<svg xmlns="http://www.w3.org/2000/svg" role="img" xmlns:xlink="http://www.w3.org/1999/xlink" viewBox="142.45 309.95 326.84 171.84"><defs><clipPath id="a"><path d="M144 311.67188h1v168.65625h-1zm0 0"/></clipPath><clipPath id="b"><path d="M144 311.67188h324v168.65625H144zm0 0"/></clipPath><clipPath id="c"><path d="M467 311.67188h1v168.65625h-1zm0 0"/></clipPath><clipPath id="d"><path d="M144 479h4v1.32813h-4zm0 0"/></clipPath><clipPath id="e"><path d="M147 479h3v1.32813h-3zm0 0"/></clipPath><clipPath id="f"><path d="M153 480h9v.32813h-9zm0 0"/></clipPath><clipPath id="g"><path d="M160 480h3v.32813h-3zm0 0"/></clipPath><clipPath id="h"><path d="M166 479h9v1.32813h-9zm0 0"/></clipPath><clipPath id="i"><path d="M173 480h3v.32813h-3zm0 0"/></clipPath><clipPath id="j"><path d="M180 479h8v1.32813h-8zm0 0"/></clipPath><clipPath id="k"><path d="M187 479h2v1.32813h-2zm0 0"/></clipPath><clipPath id="l"><path d="M193 480h9v.32813h-9zm0 0"/></clipPath><clipPath id="m"><path d="M200 480h3v.32813h-3zm0 0"/></clipPath><clipPath id="n"><path d="M206 479h9v1.32813h-9zm0 0"/></clipPath><clipPath id="o"><path d="M213 479h3v1.32813h-3zm0 0"/></clipPath><clipPath id="p"><path d="M220 480h8v.32813h-8zm0 0"/></clipPath><clipPath id="q"><path d="M227 480h2v.32813h-2zm0 0"/></clipPath><clipPath id="r"><path d="M233 479h8v1.32813h-8zm0 0"/></clipPath><clipPath id="s"><path d="M240 480h2v.32813h-2zm0 0"/></clipPath><clipPath id="t"><path d="M246 479h9v1.32813h-9zm0 0"/></clipPath><clipPath id="u"><path d="M252 480h2v.32813h-2zm0 0"/></clipPath><clipPath id="v"><path d="M260 480h8v.32813h-8zm0 0"/></clipPath><clipPath id="w"><path d="M266 480h2v.32813h-2zm0 0"/></clipPath><clipPath id="x"><path d="M273 479h8v1.32813h-8zm0 0"/></clipPath><clipPath id="y"><path d="M280 480h2v.32813h-2zm0 0"/></clipPath><clipPath id="z"><path d="M286 478h9v2.32813h-9zm0 0"/></clipPath><clipPath id="A"><path d="M300 479h8v1.32813h-8zm0 0"/></clipPath><clipPath id="B"><path d="M307 480h2v.32813h-2zm0 0"/></clipPath><clipPath id="C"><path d="M313 478h8v2.32813h-8zm0 0"/></clipPath><clipPath id="D"><path d="M327 478h7v2.32813h-7zm0 0"/></clipPath><clipPath id="E"><path d="M339 479h9v1.32813h-9zm0 0"/></clipPath><clipPath id="F"><path d="M345 480h2v.32813h-2zm0 0"/></clipPath><clipPath id="G"><path d="M353 479h8v1.32813h-8zm0 0"/></clipPath><clipPath id="H"><path d="M359 480h2v.32813h-2zm0 0"/></clipPath><clipPath id="I"><path d="M367 477h7v3.32813h-7zm0 0"/></clipPath><clipPath id="J"><path d="M381 476h5v4.32813h-5zm0 0"/></clipPath><clipPath id="K"><path d="M396 476h2v4.32813h-2zm0 0"/></clipPath><clipPath id="L"><path d="M406 478h8v2.32813h-8zm0 0"/></clipPath><clipPath id="M"><path d="M419 479h9v1.32813h-9zm0 0"/></clipPath><clipPath id="N"><path d="M426 480h3v.32813h-3zm0 0"/></clipPath><clipPath id="O"><path d="M425 480h3v.32813h-3zm0 0"/></clipPath><clipPath id="P"><path d="M433 479h8v1.32813h-8zm0 0"/></clipPath><clipPath id="Q"><path d="M440 480h2v.32813h-2zm0 0"/></clipPath><clipPath id="R"><path d="M439 480h2v.32813h-2zm0 0"/></clipPath><clipPath id="S"><path d="M446 479h9v1.32813h-9zm0 0"/></clipPath><clipPath id="T"><path d="M453 479h3v1.32813h-3zm0 0"/></clipPath><clipPath id="U"><path d="M459 479h9v1.32813h-9zm0 0"/></clipPath><clipPath id="V"><path d="M465 479h3v1.32813h-3zm0 0"/></clipPath><clipPath id="W"><path d="M144 466h4v2h-4zm0 0"/></clipPath><clipPath id="X"><path d="M466 465h2v4h-2zm0 0"/></clipPath><clipPath id="Y"><path d="M144 451h3v6h-3zm0 0"/></clipPath><clipPath id="Z"><path d="M144 438h4v5h-4zm0 0"/></clipPath><clipPath id="aa"><path d="M144 424h4v6h-4zm0 0"/></clipPath><clipPath id="ab"><path d="M144 411h4v5h-4zm0 0"/></clipPath><clipPath id="ac"><path d="M144 398h4v5h-4zm0 0"/></clipPath><clipPath id="ad"><path d="M465 397h3v2h-3zm0 0"/></clipPath><clipPath id="ae"><path d="M144 385h4v5h-4zm0 0"/></clipPath><clipPath id="af"><path d="M465 383h3v2h-3zm0 0"/></clipPath><clipPath id="ag"><path d="M144 371h3v6h-3zm0 0"/></clipPath><clipPath id="ah"><path d="M466 371h2v3h-2zm0 0"/></clipPath><clipPath id="ai"><path d="M144 357h2v7h-2zm0 0"/></clipPath><clipPath id="aj"><path d="M466 358h2v4h-2zm0 0"/></clipPath><clipPath id="ak"><path d="M144 343h1v8h-1zm0 0"/></clipPath><clipPath id="al"><path d="M144 341h2v3h-2zm0 0"/></clipPath><clipPath id="am"><path d="M144 343h1v2h-1zm0 0"/></clipPath><clipPath id="an"><path d="M465 344h3v2h-3zm0 0"/></clipPath><clipPath id="ao"><path d="M144 330h2v8h-2zm0 0"/></clipPath><clipPath id="ap"><path d="M144 328h1v3h-1zm0 0"/></clipPath><clipPath id="aq"><path d="M144 329h2v3h-2zm0 0"/></clipPath><clipPath id="ar"><path d="M144 317h2v8h-2zm0 0"/></clipPath><g id="as" clip-path="url(#clip1)"><path fill="#fff" fill-opacity="0" fill-rule="evenodd" d="M0 0h1000v1000H0zm0 0"/><path fill="#d3d3d3" fill-opacity="0" fill-rule="evenodd" d="M162.15234 355.86719l-.23437.29297.0586.23437.11718.17188.17578.23437.29297.34766.11328.0586.11719-.17188.0586-.23438.17577-.17578.46485-.17578h.69922l.23437.29297.28906.8164.0586.17579.17578.23046.35156.23438.69922.69922.17188.17578.23437.34765.23438.41016.28906.58203.41015.46485.23047.23437.23438.17578.11719.23047.17578.29297.17187 1.16406v.23438l.0586.28906.05859.11719.11719.11719.34765.41015.11719.17188.17578.17578.17578.23437.11719.17188.17188.35156.05859.23438.23437.40625.23438-.0586-.17578.17578-.0586.92969h-.58203l-.23437-.11328-.34766.11328-.11719.11719-.05859.29297-.0586.17578-.11718.17187-.46484.29297-.0586.23438-.0586.11328v.64453l.0586.17187v.41016l.0586.0586v.40624l.05859.40625.11719.17579.05859.05859.23047.64062-.0586.29297v.69922l-.05859.58203v.23438l-.0586.23047-.05468.35156v1.92187l.05469.1172h.42578l-.36719.11718-.02344.35156.89063 1.16797 1.74219.53906 1.33984.35938v.53906l.08984.8086.53516.71484 1.51953.26953.89063-.08594.08984 1.16406.53516.1797 1.16015-.1797 2.05469-.98437 1.16016-.36328 1.8789-.17578 1.69531-.1797-.17968.71876-1.51563.08594-1.25.08984-.80469.26953-1.07421.8086.26953.71875.53515.89843-.17968.625-.26563.8086.26563 1.07812.625.89844.80468.17969 1.25-.1797-.26562.72267.09766.5039.05468.29297v.17188l.0586.29296v.40625l.17578.1172.35156.11718h.40625l.29297-.17578.11328-.11719.0586-.11719.11718-.23047.0586-.17578.35156-.46484.23047-.17578.17578-.0586.17578.0586.0586.17578.11718.98828.05469.46875.0586.17188.11718.23437.17578.0586.8164.05859h.28907l.11719.23437.05859.40625.0586.35156v1.10547l.11718.29297.11719.34766.28906.69922.17578.35156.58203.7539.35157.17579.17187.0586.46875.23437.64063.46484.34765.23438.29297.17578.29297.05468.23047.0625.8164.34766.29297.17578.11328.17188.35157.35156.11719.17578.52343.64063v.28906l.0586.35156v.34766l.05859.35156.0586.28906.11718.0586.17188.05859h.17578l.58203.23437.17578.1172.17578.28905.17578.23438.11328.23437.29297.23047.11719.11719v.41016l.0586.05468.28906.23438.23437.11719.0586.11718.11718.17188.0586.11719.23047.23437.05859.17578.23437.0586.1172.05859-.1172.11328-.05859.11719v.11719l-.11719.29296-.11719.28907v.58203l.17579.11719.11718.05859.0586.11719.11719.11719.11328.05859.17578.34765.0586.35157.05858.40625v.17578l-.05859.17578-.11719.69922v.17187l.1172.17579.29296.29296h.40625l.17578.1172.11719.17187.11719.29296v.23438h-.52735l-.23047-.23438h-.23437l-.17578.0586-.0586.69922.0586.34765.11719.17579.17578.41015.11718.23047.28907.46875.17578.05469h.52344l.23437.0586.75781.64062.0586.29296v.23438l.05859.0586.23047.34765v.35156l-.11719.17188v.29297l.29297.28906.29297.17578.17187.0586.29297.17577.29297.1172.58203.40624.28906.23438.29297.17578.21875.16015.01563.01172.23047.17579.64062.52343.17578.23438.1172.17578.17577.17578.11328.17188v.64062l.1172.17578.46874.11719.58203.11719.23438.05859.23047.11328.29297.11719.11328.0586.58593.35156.28907.17187.17578.0625.17578.05469.17578.0586.69922.35155.28906.17579.23438.05468.28906.17578.23437.1172.64063.40624.29297.11719.17187.0586.23438.05859.41015.05859.23047.0586.23438.11718.0586.17188-.41017.17578.46875.0586.0586.29296.11328.23438.17578.05468.23438.0586.17578.05859.40625.11719.64062.23437.11719.17188.0586.23437v.17578l-.0586.1172-.0586.40624.23438.23438.11719.05859.34766.11719.64062.23047.17578.11718.28906.1172.17578.17577.23438.46485.58203 1.10546.17578.17579.34766.17578.17578.11719.35156.11718 1.04688.52344.23437.0586.46485.11327.29297.0586.46484.17578.75781.58203.23438.23438.34765.46484.17578.17578.28907.23438.8164.69921.29297.17579.28906.28906.29297.17578.29297.28906.69531.64063.17578.17578.29297.23437.28907.23438.46875.28906.64062.58203.34766.23438.23437.29297.34766.34765.35156.46485.9336.99218.34765.40625.11719.17579.23437.05859.11328.11719.64454.17578.23047.11328.23437.0586.29297.17577.23047.1172.9336.69921.40624.40625.23438.17578.40625.17578.23437.11719.8164.34766.34766.23437.23438.11719.29297.28906.23047.11719.7578.35156.35157.17188.23047.05859.29297.11719.23437.0586.8711.17577h.8164l.46875.23047.17188.0586.875.69921.46484.1172.29297.05858.17578.0586.23047.0586.46875.05859.34766.05859.35156.0586.40625.05859h.29297l.17187.0586v.23046l.17578.17578h.29297l.34766.0586.35156.05859.69922.11719h.64063l.46484-.23438.29297-.17578.17187-.11719.41016-.17187.28906-.17578.9336-.46485.46875-.29297.52343-.29296.46485-.17188.46484-.17578 1.05078-.46485.28906-.11718.41016-.11719.28906-.11719.52735-.17578 1.51562-.69922.58203-.34765.28907-.0586.29297-.0586.34765-.11718.875-.23047.35156-.11719h.11329l.23437-.05859.875-.23437.23438-.0586h.8125l.35156-.0586.8164-.11718.17188-.0586.35156-.05468.29297-.0586.23047-.05859.8164-.17578.17579-.0586h.34765l.23438-.05859.46484-.11718.75781-.17188.23438-.0586h.34765l.41016-.11718.28906-.0586 1.28516-.05859h.28906l.41016-.0586.23047-.05858h.17578l.875-.1172h.40625l.41015-.11718h.34766l.35156-.11328.8711-.0586h1.75l1.04687.28907.41016.11719.28906.11718.35156.11719.28907.11719 1.05078.17187.28906.0586h.29297l.29297.05859.17187.0586.41016.05859.17187.0586.1172.05858h.11718l.11719.0586.35156.0586h.11328l.41016.0664 1.92187.39453 1.92578.39453 1.51953.44922 1.69532.71875 2.14453.80469 1.60547-.71875 1.42968-.80469 1.16016-1.07813 1.25-.44921 3.03516-.71875 1.875-.35938 2.14453-1.34765 2.23437-1.25391 2.5-1.25781 1.69531-.44922 1.78516-.17969 1.16016-.26953.625.53906 1.33984-.26953.71485-.98828.98437-1.34375.44531-.17969.80469-.35937 1.875-.53907 1.78516-.44921 1.25-.26954 1.16015-.08984 1.69922-.08984 1.96094-.26954 1.25-.08984h.53906l.625-.08984h.89063l2.14453-.17969 2.41015-.17969 2.58985-.08984 1.69531.17969 1.60938.08984 1.42968.35938 1.16016.71875 1.875.98828 1.16015 1.52734.26563.71484.6289.08985.35548.89844.53515.53906.53516 1.52734 1.07422.35938h.53515l-.80469.53515.08985 1.70703.71484 2.69532.89063.80468.89453.98829.71484 1.2578 1.78516.53907 1.51953-.17969.35547 1.34375 1.60937-.80469.98047-.53906.26953.26953.31641-.21484.21875-.14453.80078.44922.44922-.35938h.35547l.53515-.26953.53907-.71875.53515-.26953.625-.98828 1.16016.44922.83984.3711 1.39454.61718 1.6953-.17969h1.60548l1.78515.08985.17969-1.70704.53516-1.34375.80468.26954.4922.84765.40233.40625-.08984.53906v.35938l.71485.44922.71093-.26953h1.42969l.35938.98828.4453 1.25781.71485 1.34375 1.25.6289 1.69531.62891.71485-.17969.17969-.53906.98046-.08984.44922.35937.08594 1.25782-.26563.6289-.53515.17969v.53906l.71484.98438.26563.53906.98437.98828.80078 1.07813-.26562.35937-.08985.89844-.625 2.33203-.35546 2.0664-.08985 1.79298-.17969.71875-.08984.53906v1.4375l-.98047 1.88281-.35937 1.70703-.53516.89844-.80469 1.16797-.26562.53906 2.05469 1.2539.08593.35938-.35546.53906-.08985-.17968v.80859l.08985 1.4375-.44532.71484-1.07422.09375-.26562.71485.53515.89844.8047.71875 1.16015.80859 1.33984.26953.44531.35938-.35546.44921-1.78907-.08984-1.25-.44922-.71484-.71875-.625-.08984-.17578 3.58984-.1875 1.3086h89.35937V311.70313h-55.26953v49.08203l.76172.125 3.28906.54296 2.02344 2.83594v2.7539l2.35156.33204 2.34766.33203h4.05078l-1.3789 4.16016-2.02344.70703-2.02344.70312-.54297.34375-2.59375 1.6172-.1875.11718-2.02344-2.07813-.73046-2.74218-2.67188-2.07813-1.375-3.5-.0664-.08203-1.95704-2.67188 2.75-1.41796v-49.08204H294.42187v91.41407l.1172.03125.1328.01172.07422.07421.10547.04688.08985.0586.08593.05859.08985.0586.29687.29687.0586.08984.03125.11719.02734.11719.01563.13671-.03125.1172-.0586.08983-.0586.08594-.04296.10547-.04688.10156-.02734.1211v.14453l.17578.26953.14844.14844.07422.08594.07422.07421.04296.10547.0625.08985.0586.08593.04297.10547.0586.08985.04687.10156.04296.10547.0586.08594.11719.17968.07421.07422.0625.08594.0586.08984.04297.10547.0586.08985.05858.08593.0625.08985.0586.08984.04297.10156.11719.17969.07421.07422.0586.08594.07422.07421.08984.0586.10547.04687h.14844l.1328-.01562.13282.01562.10156-.04687.07422-.07422.04688-.10156-.01563-.13281v-.14844l-.04687-.10547-.02735-.11719-.04687-.10156-.02735-.1211-.04296-.10156-.0625-.08984-.04297-.10156-.04297-.10547-.03125-.11719-.01563-.13281-.01171-.13672.08593-.0586.0586-.08593.12109-.03125.04297.10547.01562.1328v.1172l.0586.10156.0586.08984.08983.0586.14844.14843.0586.08985.04296.10547-.01171.10156.08593.0586.10547.04687.08594.0586.08984.05858.07422.07422-.11719.02735-.10546.04687-.08594.0586-.07422.07421-.0586.08985-.0625.08594-.02734.12109-.04687.10156-.04297.10547-.03125.11719-.01172.13281-.01563.13281v.14844l.02735.11719.04687.10547.04297.10156.0586.08984.07421.07422.08985.0586.07422.07421.08984.0586.0586.08984.04296.10547.04688.10156.11719.03125.1328.01563h.14845l.11718-.03125.10547.04297.04297.10547.04688.10156.02734.1211L299.5 410l.02734.11719.03125.1211.02735.11718.10547.04297.10156.04687.13281-.01562.14844.14844.0625.08593.07422.07422.07031.07422.08984.0625.10547.04297.10156.04297.1172.03125.13671.01562.11719-.03125.07422-.07422.02734-.11718-.01172-.13282-.03125-.12109-.02734-.11719.04297-.10547h.11719l.08984.0625.11719.02735h.14843l.13282.01562h.14843l.13282.01563.1328-.01563h.14845l.1328-.01562.13282-.01172.13672.01172.11719-.02735.13281-.01562.1914-.0586-.05859.17579-.01562.1328-.02735.1211-.01562.13281-.0586.08594-.1328.01563-.10548.04687-.10546.04297-.1172.03125-.11718.02735-.26563.03125h-.14843l-.13281.01562-.07422.07422.05859.08594.14844.14843.11719.1797.07421.0703.08985.0625.08984.0586.08594.0586.08984.05858.10156.04297.10547.0625.10547.04297.08594.0586.10547.04687.10156.04297.17969.11719.0586.08984-.04298.10156-.04687.10547.01562.13281.22266.22266.0586.08985.04296.10156.03125.1211.04297.10155.01563.13282.03125.11718.01171.13672.03125.11719.14844.14844.10156.04297.10547.04296.1172.03125.1328.01563.13672.01563h.11719l.11719-.03125.08984-.0586.04297-.10547.04688-.10156.04296-.10547.03125-.11719.01172-.1328v-.14845l-.01172-.1328-.01562-.13282-.03125-.11719-.04297-.10547-.04688-.10547-.04296-.10156-.04297-.10547-.01563-.13281.01563-.13281.02734-.11719.03125-.11719.02735-.1211.04687-.10155.08984-.0586.08594-.0625.07422-.07422.08984-.05859.22266-.22266.0586-.08593.07421-.07422.11719-.17969.0586-.08594v-.14844l-.07423-.07421-.10156-.04688-.10547-.04297-.10156-.04297-.0586-.08984-.04687-.10547-.02734-.11719.08984-.05859.11719-.03125.10156-.04297.17969-.11719.14844-.14843.01172-.13282-.01172-.10546-.08985-.0586-.1328.01563h-.14845l-.1328.01562-.13282-.01562-.1211-.03125-.08593-.0586-.07422-.07422-.0586-.08984-.0625-.08594-.11718-.17969-.0586-.08593.03125-.1211.08594-.05859.1211-.03125.05859-.08594v-.1211l-.03125-.11718-.0586-.08984-.05859-.08594-.04687-.10547-.02735-.11719-.01562-.1328.0586-.08985.07421-.07422.08984-.0586.1172-.17968.07421-.07422.0586-.08594.14843-.14844.1211-.03125.1328-.01562.13282.01562.07422.07422.04297.10547.01562.13281-.03125.1172-.11719.03124-.1328.01172-.14844.14844-.04297.10547-.04688.10156-.02734.1211-.03125.11718v.14844l.03125.11719.04297.10546.05859.08985.07422.07031.07422.07422.11719.03125.12109.02734.11719-.02734.1328-.01563h.1172l.08984.0586.07422.07422.04687.10546.0586.08594.10156.04688.13281.01562.10547.04297.08594.0586-.01172.10546-.07422.07422-.17969.11719-.05859.08984-.08984.0586-.07032.07422-.07421.07421-.0625.08985-.02735.11719-.01562.1328.01562.13282-.01562.13281v.14844l.01562.13281.02735.1172.03125.12108.07421.07422.08985.0586.08594.0586.08984.05858.11719.03125v.08594l-.10157.04688-.08984.0586-.26563.03124-.11718.02735h-.14844l-.10547.04296-.10156.04688-.0586.08984-.0625.23438-.01171.13281-.03125.1211-.01563.1328v.29298l-.01172.1328.01172.13673.01563.1328.1328.01563.13282.01172.1211.03125.08593.0586.07422.07421.04688.10547.04296.10157.01563.1328v.44532l-.01563.13281v.44532l.03125.26562.02735.11719.01562.13281.03125.11719.08594.21094.03125.26562v.14844l-.03125.11719-.02734.11718-.03125.1211-.02735.11719-.03125.11718-.03125.1211-.01171.1328-.01563.13282.08984.0586.1172-.03125.10155.01562.04688.10547-.03125.26562v.44141l-.04297.10547-.04688.10547-.04296.10156-.04297.10547-.0586.08594-.03125.12109-.04296.11719-.03125.11719-.01563.1328.01563.13282.05859.08984.10547.04688.08594.0586.05859.08593-.01172.13672-.03125.11719-.04297.10156v.44531l-.01562.13281v.14844l-.03125.11719-.04297.10547-.02735.11719-.04687.10546-.04297.10157-.03125.12109-.02734.11719-.03125.13281-.03125.11719-.02735.11719-.04297.10546-.03125.1172-.03125.12108-.01171.13282-.01563.13281v.29688l.02734.11718v.14844l.04688.39844.02734.11719.0586.08984.12109.03125h.14844l.13281-.01563.0586.08985v.11719l-.0586.08984-.08984.0586-.10157.04296-.10546.04688-.08985.05859-.08594.0586-.13671.01562-.1172-.03125-.1328-.01563-.10157.04688-.0625.08594-.01172.13671-.01562.13282-.03125.11719-.02735.11718-.01562.13281-.03125.1211v.29687l.01563.13282.03125.11718v.14844l.01171.13281v.14844l-.02734.11719-.04688.10156-.02734.1211-.03125.11718-.0586.08985-.07421.07421-.10156.04297-.10547.04688-.11719.02734-.1211.03125-.10156-.04687.0586-.08594.10547-.04688.02734-.11718.03125-.11719.02734-.1211.03125-.11718v-.14844l.01563-.13281-.03125-.11719-.04297-.10547-.10547.01563-.07422.07422-.10156.04296-.08984.0625-.07422.07422-.04297.10157-.01563.1328-.03125.1172L304.25 426l-.03125.11719-.02734.11719-.03125.12109-.02735.11719-.03125.11718-.04297.10547-.08984.0586h-.08984l-.1172-.03125-.03124-.08594.01562-.13672-.03125-.11719v-.14844l-.01171-.1328v-.14844l-.0625-.23438-.02735-.1211-.04297-.10156-.04687-.10546-.0586-.08594-.05859-.08985-.04297-.10546-.0625-.08594-.14844-.14844-.0703-.07422-.10548-.04687-.10547-.04297-.10156-.04297-.29687-.29688-.08985-.07421-.08594-.0586-.10546-.04297-.08985-.0625-.08594-.0586-.10546-.04296-.08985-.0586-.08594-.0625-.07421-.0703-.10547-.04688-.08594-.0586-.10547-.04296-.08984-.0625-.10156-.04297-.10547-.04297-.08594-.0586-.10547-.04687-.10547-.04297-.10156-.04687-.08985-.0586-.10156-.04297-.10547-.04296-.08984-.0625-.11719-.02735-.13281-.01562-.13281.01562H299.75l-.13281.01563-.11719-.03125-.08984-.0586-.07422-.07422-.08985-.05859-.10156-.04688h-.14844l-.12109-.02734-.10156-.04297-.07422-.07422-.11719-.17968-.08984-.0586-.10156-.04297-.08985-.0625-.10547-.04296-.08984-.0586-.08594-.0586-.10547-.04687-.0586-.08594-.05858-.08984-.04297-.10547-.04688-.10156-.07422-.07422-.08594-.0586-.07421-.07421-.08985-.0586-.22265-.22265-.04297-.10547-.03125-.26563.10547-.04296h.14453l.10547.04296.07421.07422.08985.0586.08594.0586.10546.04687.08985.05859.14844.14844.0703.07422.14845.14843.0625.08594.07421.07422.08594.0586.07422.07421.08985.0625.08984.0586.08594.05859.26953.17578.10156.04688.10547.04296.10156.04297.04688-.07421.05859-.08594.07422-.07422.07031-.07422.10547.04297.07422.07422.0586.08984.04296.10156.04688.10547.04296.10547.1211.02735.11719-.02735.07421-.08984.04297-.10547.0586-.08985.07422-.07421.10546-.04297.1172-.02735.1328.01172.08985.0586.14844.14843.05859.08985.04297.10547.04687.10156.04297.10547.04297.10156.10547.04688.10547.04296.13281.01563.08594-.0586.0586-.08984.07421-.07422.10547-.04297.11719.02735.10547.04687.10156.04297.10547.04297.10156.04688.17969.11718v.11719l-.01563.13281.01563.13281.01562.13672.0586.08594.10156.04688.1211.02734.11718.03125h.14844l.11719-.03125.05859-.08984.17969-.1172.05859-.08983.07422-.07422.0586-.08594.11718-.17969.17969-.11719.11719.03125.08984.0586.04297.07422-.01563.1328v.1172l.08985.05859h.14843l.13282-.01563.1328-.01171.26563-.03125.10547-.04297.11719-.03125.1211-.02735.07421-.07421.07031-.07422.0625-.08985-.01562-.10547-.04688-.10156-.10156-.04297-.10547-.01562-.11718.02734-.26563.03125h-.14844l-.07421-.07422-.08985-.0586-.11719-.03124-.11718-.02735-.13282-.01562h-.14843l-.13282.01563h-.29687l-.10547-.04688-.14844-.14844-.04297-.10156-.05859-.08984.22266-.22266.08593-.0586.10547-.04296.11719-.03125.13281-.01563.13281.01563.13672.01562.10157.04297.1328-.01172.08985-.0625.10156-.04297.0625-.08984-.04687-.10156-.08984-.0586-.1172-.03125-.10155-.04296-.0586-.08985-.0625-.08984v-.11719l.01563-.13281.10547-.04688.07421-.07031v-.1211l-.08984-.05859-.03125-.11719.08985-.05859.07421-.07422.04297-.10547.0586-.08984.04687-.10156.01563-.13281v-.14844l-.04688-.10547-.04297-.10156-.08984-.0586-.13281-.01562-.10157-.04297-.13671-.01563-.1172-.03125h-.4453l-.13282-.01562-.13281-.01172-.13281-.01563-.11719-.03125h-.14844l-.13281-.01562-.13281-.01172-.26563-.03125-.1211-.04297-.08593-.0586-.07422-.07421v-.14844l.01172-.13281.10547-.04688.10156-.04296.13281-.01563h.15235l.13281-.01562h.29297l.1211.03125.10156.04296.08984.0586.23438.0625.12109-.04688.08984-.05859.10156-.04297.13282-.01562.10547.04296.10156.04688.13281.01172.1211-.02735h.14453l.12109-.03125.11719-.02734.10547-.04687.07421-.07422.08594-.0586.14844-.14843.0586-.08594.04687-.10547.02734-.11719.01563-.10547-.10156-.04296-.08985-.0586-.11719-.03125-.10546-.04297-.08985-.0625-.07422-.08594-.07422-.07421-.10156-.04297-.10547-.04688-.10156-.04297-.0586-.08984-.04687-.10156-.08594-.21094-.0625-.08594-.05859-.08984-.07422-.07422-.08594-.0586h-.26953l-.11719.03126-.08984.05859-.10156.04297-.13281.01562-.10547-.01562-.02735-.11719-.0625-.08984-.11718-.03125-.10157-.04297-.14843-.14844-.03125-.11719-.01563-.10546.07422-.07422.17969-.1172.11719-.02733.11718-.03125.13672.01562.10156.04297.10547.04297.10156.04687.10547.04297.1172.03125.1328.01563.1172.02734.1328.01563.10547-.01563.08985-.0586-.07422-.07421-.10547-.04297-.07422-.07422-.07422-.08984-.14844-.14844-.08593-.0586-.08985-.05859-.07422-.07422-.08984-.0586-.10156-.04687-.1211-.02734-.10156-.04688-.10547-.04296-.11719-.03125-.10156-.04297-.1211-.03125h-.14843l-.11719.03125-.10546.04297-.08594.0625-.17969.11718-.08594.0586-.08984.0586-.10547.04687-.08594.05859-.10547.04297-.10156.04297-.10547.04687-.07422.07422-.05859.08985-.0586.08593-.04687.10547-.0586.08594-.07421.07422-.13281-.01172-.1172-.03125h-.11718l-.07422.07422-.08984.0586-.07422.07421-.08984.0586-.08594.05859-.10547.04687-.10156.04297-.13672.01563-.10156-.04297-.14844-.14844-.10547-.04688h-.08594l-.10547.04688-.10156.04297-.1211.03125-.11718-.03125-.07422-.07422v-.11719l.03125-.1211.07422-.0703.0586-.08985.07421-.07422.11719-.03125.10547-.04296h.29297l.13281-.01563.13672-.01563.10156-.04296.08985-.0586.10156-.04687.08984-.0586.13281-.01171.08985.05859.13281.01172.08984-.0586.08594-.05859.10547-.04297.08984-.0586.08594-.0625.08985-.05859.14843-.14843.0586-.08594.05859-.08985.10547-.04296.13281-.01563.11719.02735.1211.03125.05859-.0586.05859-.08984.03125-.26563.02734-.11719.10547.01172.13281.01563.10157-.04297.08984-.0586.0586-.08984.07421-.07422.0586-.08984.04687-.10156.01172-.13281-.01172-.13282-.04687-.10547-.14844-.14843-.0586-.08985-.05859-.08594-.04297-.10546v-.44532l.01563-.1328v-.14845l.01172-.1328-.0586-.0586-.08984.0586-.10156-.04298-.17969-.11719-.08594-.05859-.0625-.08984-.0586-.08985-.07421-.07421-.08594-.0586-.1211.03125-.10155.01172-.10547.04688-.08594.05859-.10547.04297-.14844.14844-.08984.05859-.08594.0586-.08984.0625-.10547.04296-.13281.01563v-.1211l.10547-.04297.11718-.03125.07422-.0703.04297-.10548v-.14844l-.02734-.11718-.14844-.14844-.13281-.01563h-.14844l-.11719.03125-.10547.04297-.10156.04297-.08984.0625-.11719.02735-.07422-.07422.01172-.13281-.04297-.10157-.04297-.10547-.08984-.05859-.11719.02734-.1211.03125-.11718.03125-.10156.04297-.1211.03125-.10156.04297-.10547.04297-.08984.0586-.10156.01562v-.11719l.01562-.13281-.0586-.08985-.07421.04297-.14844.14844-.0586.08985-.07421.07421-.04688.10547-.04296.10156-.07422.07422-.0586.08985-.07422.07422-.05859.08593-.07422.07422-.08984.0625-.07422.07031-.07422.07422-.10156.01563-.13281.01562-.10547-.04296v-.1211l.14843-.14844.04297-.10156.0586-.08984.04687-.10156.04297-.10547.0586-.08985.03124-.11719.04297-.10156.03125-.1211.02735-.11718.04687-.10547.04297-.10156.04297-.10547.07422-.07031.08984-.0625.08985-.0586.10156-.04296h.29687l.26563-.03125.10547-.04297-.07422-.07422-.11719-.03125-.10547-.04297-.08984-.0586-.10156-.04687-.08985-.0586-.10156-.04296-.10547-.04297-.08984-.0625-.08594-.0586-.10547-.04296-.10156-.04297-.1211-.03125-.11718-.03125-.10157-.04297L297.5 410.25l-.10156-.04297-.08985-.0586-.04296-.10546-.01563-.13281.10156-.04297.13281-.01563.13672.01563.13282-.01563.10156-.04297.0586-.08984.01562-.10547-.08985-.0586-.07421-.07421-.10157-.04297-.08984-.0586-.14844-.14843-.04297-.10547-.01562-.13281v-.29297l-.0586-.08985-.08984-.05859-.07422-.07422-.04297-.10547-.03125-.11718-.0586-.08985-.07421-.07422-.11719-.02734-.07422-.07422-.08984-.0586-.08984-.0625-.08594-.05859-.07422-.07421-.0586-.08594-.04687-.10547-.08594-.0586-.14843-.14843-.19532-.0586-.1328.01563-.10157.04297-.07422.07422-.04688.10156-.04296.10547-.0586.08984-.0586.08594-.29687.29687-.08984.0586h-.08594l-.0625-.08594-.04297-.10547.03125-.11719.0586-.08984.02734-.11719-.01172-.13281-.08984-.0625-.10547.04688-.11719.02734-.11719.03125-.26953.17578-.10156.04688-.11719.02734-.10546.04687-.08985.0586-.10156.04297-.0586-.08594-.04687-.10547.01563-.13281.04687-.10547.07031-.07422.07422-.07031.0586-.08985v-.14843l-.04297-.10547h-.23829l-.10156.04687-.03125.11719-.02734.11719-.03125.1211-.07422.04296-.13281.01563-.07422-.04688-.04297-.10156-.04297-.10547-.04687-.10156-.04297-.10547-.1211.03125-.10156.04297-.13281.01562-.11719.03125-.10547.04297-.08984.0586-.10156.04687-.1211.02734-.13281.01563-.10156-.04297-.0586-.08985-.04687-.10546-.04297-.10157-.04297-.10546v-.1172l.0586-.08984.08593-.05859.17969-.11719.10156-.04687.10547-.04297.10547-.0586.10156-.04296.08985-.0625.10156-.04297.10547-.0586.10156-.04687.08984-.0586.10547-.04296.10156-.04297.08985-.0625.10156-.04297.13672-.01563.11719.03125.10156.04297.1211.03125.10156.04297.10546.04688.10157.04296.10547.04297.10156.04688.10547.04297.10156.04297.10547.04687.08594.0586.10546.04296.1172.03125.10546.04297.10156.04688.08985.0586.10547.04296.10156.04297.10547.04687.11719.02735.10156.04687.1211.02735h.14843l.08594-.0586.01562-.10156.0586-.08984-.02735-.1172-.07422-.07421-.11719-.17969-.07421-.07422-.08985-.07421-.17969-.1172-.08593-.05859-.10547-.04296-.10156-.04688-.26954-.17578-.05859-.08985-.07422-.07421-.0586-.08985-.04296-.10156-.03125-.11719-.01563-.13672v-.5625l-.01171-.1328-.01563-.13282-.03125-.11719-.01562-.13281-.01172-.13281-.03125-.1211-.22266-.22265-.0586-.08594-.01562-.10547.03125-.11719.13281-.01562v-91.41406H172.9922v1.45312l-.0586.23438-.35156 1.05078-.17187.52343-.1172.34766-.17577.41016-.11719.17187-.23438.29297-.23046.0586h-.35157l-.11718.05859-.23047.40625v.29297l.11719.17578.23046.23047.1172.23437.64062.75781.29297.46485.17578.23437.23047.35156.23437.34766.64063.8164.17578.46485.17187.41016.11719.69531.17578.46875.11719 1.39844.0586.46484v.875l.11718 1.04688v4.78125l-.0586.46484-.35156 1.28125-.17578.52344-.11328.41015-.35156.9297L172.93359 336l-.23437.58203-.11719.17578-.17187.34766-.17578.40625-.35157.8164-.0586.29297-.11327.29297-.11719.28906-.0586.17579-.11718.875-.0586.40625-.05859.11718-.0586.17579-.05859.17187-.23047.52734-.11718.17188v.23437l-.11719.23438-.0586.17187-.17577.58594v.28906l-.0586.17579v.29296l-.0586.11329-.05859.52734v.17187l-.05468.23438v2.6211l-.17578.8164-.1172.17578-.17577.23438-.1172.17187-.11327.23438-.58594.93359-.23047.28906-.29297.46485-.17578.23437-.28906.35156-.35156.69922-.11328.23047-.17579.41016-.17578.23046-.40625.52735-.8164.69922-.29297.17187-.28906.23438-.17579.11719-.17578.17578-.52344.40625-.52734.17578-.17187.17578-.23438.05469-.64062.17578h-.75782m12.21094 31.02344l-1.07422.44921.35938.89454 1.25-.71485.44531-.53906-.98047-.08985"/><path fill="#d3d3d3" fill-opacity="0" fill-rule="evenodd" d="M201.50781 416.59766h-.89453l.44922.6289.98047.35938.80469-.08985.4453-.98828-.17577.08985-.71485-.35547-.89453.35547m154.6211 59.0703l-.0586-.52343v-.29297l.11328-.29297.0586-.23046.46875-.46875h.11328l.11719-.11329.11718-.05859h.17579l.23437-.0586h.34766l.23437.0586.11719.0586.23047.17187.0586.17578.11718.58203v.29297l-.11719.17578-.17187.28906-.17579.17579-.52734.52343-.23047.23438-.11719.0586h-.17578l-.11718-.0586-.40625-.29297-.17579-.11719-.11718-.0586-.0586-.11327-.05468-.1172m6.64062-10.95702l-.0586-.17188v-1.10937l.0586-.17188.17578-.0586.17188-.05858h.17578l.23437-.0586.1172.0586.05858.69921-.05859.17188-.11719.17578-.11718.0586-.23438.52343-.11328.0586h-.23438l-.05859-.1172m9.61328-14.39062l-.11719-.17578v-.69922l.29297-.875.1172-.17187.17577-.35156.11328-.23047.1172-.29297.35155-.75781.1172-.23047.17187-.23438h.17578l.11719-.0586h.64062l.11719.0586.23437.23438.17188.11328.35156.29297.11719.11718.11328.17579v.11328l.11719.05859.11718.11719v.69922l-.05859.17578v.23047l-.0586.17578-.34765 1.05078-.11719.23047-.11719.23437-.11718.0586-.23047.23437-.64063.28906h-.875l-.41015-.11718-.64063-.46485"/><path fill="none" stroke="#bebebe" stroke-linecap="round" stroke-linejoin="round" stroke-miterlimit="10" stroke-width=".5" d="M467.95703 311.69531H144.02734v168.625h323.9297v-168.625"/><g clip-path="url(#a)"><path fill="#fff" fill-opacity="0" fill-rule="evenodd" d="M144 475.89063v4.4375h.0039H144V311.67188h.0039H144v164.21875"/></g><g clip-path="url(#b)"><path fill="#fff" fill-opacity="0" fill-rule="evenodd" d="M144.0039 480.32813V311.67188h17.75v141.2539l-.65234.77344.65235 1.01562 1.8828-1.01562-1.8828-.77344v-141.2539h17.7539v128.03515l-.6914.67578-1.67578 4.4375-2.07422 1.95703-2.63282 2.48438-.4453 4.4375 3.07812 2.4961 4.4414.0625 4.4375.09765 2.99219-2.65625 1.44531-1.70703 3.05469-2.73047.32422-4.4414-3.3789-1.38282-4.4375-2.97266-1.03516-.08203-3.40235-.67578V311.67188h39.94531v144.97265l-2.3828 1.49219 2.3828 2.54687 2.23047-2.54687-2.23047-1.49219V311.67188h22.19141v120.91406l-3.46094 3.35937-.97656 3.2539-1.08594 1.1836 1.08594 1.66016 3.0625 2.77734 1.375 1.77735 4.4375 2.59765.02734.0664-.02734.03907-4.4375 1.63281-3.6289 2.76563 3.6289 3.25781 4.4375.125 4.4375-1.33984 1.53906-2.04297 2.69922-4.4375.19922-.1289 3.52734-4.3125-3.52734-3.64844-4.4375-.08204-.625-.70703-.5625-4.4375-3.25-3.10937-4.4375-.25V311.67188h13.3125v112.54687l-3.02344 2.85156 1.75782 4.4375 1.26562.97266 3.91016-.97266.53125-.11328 2.59765-4.32422-2.59765-2.57031-4.4414-.28125V311.67187h31.0703v113.875l-1.51953 1.52344 1.51953 2 4.4375-.6289 1.2461-1.3711-1.2461-1.2461-4.4375-.27733v-113.875h57.69922V430.5078l-1.32031 1-1.15234 4.4375 2.36328 4.4375.10937.10547 4.4375.80469.8711-.91016-.8711-.8711-3.11328-3.5664-.21484-4.4375-1.10938-1V311.67187h8.875V418.3086l-3.4336 4.32032 2.16017 4.4414 1.27343 1.29297.60547 3.14453.15625 4.4375 3.67969 3.67969 3.36328.75781 1.07422 1.08203 1.07031-1.08203 3.02344-4.4375-.51172-4.4375-.21094-4.4375-3.3711-4.3711-.0703-.0703-4.3672-3.8086-4.4414-.51172V311.67188H467.9961v168.65625H144.00391"/></g><path fill="#50fcfc" fill-rule="evenodd" d="M161.7539 454.71484l-.65234-1.01562.65235-.77344 1.8828.77344-1.8828 1.01562m13.3125 1.48047l-3.07813-2.4961.44531-4.4375 2.63282-2.48437 2.07422-1.95703 1.67578-4.4375.6914-.67578 3.40235.67578 1.03515.08203v2.63282l-2.78515 1.72265-.2461 4.4414 3.03125 2.58595 2.41797-2.58594-.38672-4.4414-2.03125-1.72266v-2.63282l4.4375 2.97266 3.3789 1.38281-.32421 4.4414-3.05469 2.73048-1.44531 1.70703-2.99219 2.65625-4.4375-.09766-4.4414-.0625"/><path fill="#00e8fc" fill-rule="evenodd" d="M183.94531 451.84766l-3.03125-2.58594.2461-4.4414 2.78515-1.72266 2.03125 1.72265.38672 4.4414-2.41797 2.58595"/><path fill="#50fcfc" fill-rule="evenodd" d="M219.45313 460.6836l-2.38282-2.54688 2.38281-1.49219 2.23047 1.49219-2.23047 2.54687m17.75391-18.64062l-1.08594-1.66016 1.08594-1.1836.97656-3.2539 3.46094-3.35937v1.625l-1.78906 1.73437 1.78906 2.11328v1.97657l-2.01172.34765 2.01172 2.32813.39063-2.32813-.39063-.34765v-1.97657l2.6211 2.32422 1.8164 2.66797 2.16797 1.76953 1.5625 4.4414.70703.875.67969-.875 3.75781-2.39062 1.67969-2.05078-1.67969-1.73437-4.4375.39062-2.72656-3.09375-.61719-4.4375-1.09375-1.04687-4.4375-.6875v-1.625l4.4375.25 3.25 3.10937.5625 4.4375.625.70703 4.4375.08204 3.52734 3.64843-3.52734 4.3125-.19922.1289-2.69922 4.4375-1.53906 2.04298-4.4375 1.33984-4.4375-.125-3.6289-3.25781 3.6289-2.76563 4.4375-1.6328.02734-.03907-.02734-.0664-4.4375-2.59766-1.375-1.77735-3.0625-2.77734"/><path fill="#fff" fill-opacity="0" fill-rule="evenodd" d="M241.64453 440.03516l-2.01172.34765 2.01172 2.32813.39063-2.32813-.39063-.34765"/><path fill="#00e8fc" fill-rule="evenodd" d="M241.64453 438.0586l-1.78906-2.11329 1.78906-1.73437 4.4375.6875 1.09375 1.04687.61719 4.4375 2.72656 3.09375 4.4375-.39062 1.67969 1.73437-1.67969 2.05078-3.75781 2.39063-.67969.875-.70703-.875-1.5625-4.4414-2.16797-1.76954-1.8164-2.66797-2.6211-2.32422"/><path fill="#50fcfc" fill-rule="evenodd" d="M253.6914 431.50781l-1.7578-4.4375 3.02343-2.85156v2.48047l-.39062.3711.39062.66796 2.0586-.66797-2.0586-.3711v-2.48046l4.4414.28125 2.59766 2.57031-2.59765 4.32422-.53125.11328-3.91016.97266-1.26562-.97266"/><path fill="#00e8fc" fill-rule="evenodd" d="M254.95703 427.73828l-.39062-.66797.39062-.3711 2.0586.3711-2.0586.66797"/><path fill="#50fcfc" fill-rule="evenodd" d="M286.02734 429.07031l-1.51953-2 1.51953-1.52344 4.4375.27735 1.2461 1.2461-1.2461 1.37109-4.4375.6289m57.58985 11.3125l-2.36328-4.4375 1.15234-4.4375 1.32031-1 1.10938 1 .21484 4.4375 3.11328 3.5664.8711.8711-.8711.91016-4.4375-.80469-.10937-.10547m7.71094-13.3125l-2.16016-4.4414 3.4336-4.32032 4.4414.51172v1.7461l-4.4414.07421-1.58204 1.98829 1.58203 2.39062.89453 2.05078.63672 4.4375.3711 4.4375 2.53906 2.53906 4.4375 1.44141 3.57422-3.98047-1.27344-4.4375-.52734-4.4375-1.77344-2.30078-2.07031-2.14062-2.3672-2.0625v-1.7461l4.3672 3.8086.0703.0703 3.3711 4.3711.21094 4.4375.51172 4.4375-3.02344 4.4375-1.07031 1.08203-1.07422-1.08203-3.36328-.75781-3.67969-3.67969-.15625-4.4375-.60547-3.14453-1.27344-1.29297"/><path fill="#00e8fc" fill-rule="evenodd" d="M352.60156 425.01953l-1.58203-2.39062 1.58203-1.98829 4.4414-.07421v3.30859l-1.51562 3.19531.14844 4.4375.72656 4.4375.64063.63672 4.4375 2.375 2.70312-3.01172-2.53906-4.4375-.16406-.84375-1.375-3.59375-3.0625-3.19531v-3.3086l2.36719 2.0625 2.0703 2.14063 1.77345 2.30078.52734 4.4375 1.27344 4.4375-3.57422 3.98047-4.4375-1.4414-2.53906-2.53907-.3711-4.4375-.63672-4.4375-.89453-2.05078"/><path fill="#00d4fc" fill-rule="evenodd" d="M355.67578 431.50781l-.14844-4.4375 1.51563-3.19531 3.0625 3.19531 1.375 3.59375v2.1914l-3.375 3.08985 3.375 2.04297 1.83594-2.04297-1.83594-3.08984v-2.1914l.16406.84374 2.53906 4.4375-2.70312 3.01172-4.4375-2.375-.64063-.63672-.72656-4.4375"/><path fill="#00c4fc" fill-rule="evenodd" d="M361.48047 437.98828l-3.375-2.04297 3.375-3.08984v1.46484l-1.77735 1.625 1.77735 1.07422.96484-1.07422-.96484-1.625v-1.46484l1.83594 3.08984-1.83594 2.04297"/><path fill="#00b8fc" fill-rule="evenodd" d="M361.48047 437.01953l-1.77735-1.07422 1.77735-1.625v1.46485l-.17578.16015.17578.10547.09375-.10547-.09375-.16015v-1.46485l.96484 1.625-.96484 1.07422"/><path fill="#00a8fc" fill-rule="evenodd" d="M361.48047 436.05078l-.17578-.10547.17578-.16015.09375.16015-.09375.10547"/><g clip-path="url(#c)"><path fill="#fff" fill-opacity="0" fill-rule="evenodd" d="M467.9961 480.32813H468V311.67188h-.0039H468v168.65625h-.0039"/></g><g clip-path="url(#d)"><path fill="none" stroke="#000" stroke-linecap="round" stroke-linejoin="round" stroke-miterlimit="10" stroke-width=".5" d="M147.51172 480.17188l-7.02344.3164"/></g><g clip-path="url(#e)"><path fill="none" stroke="#000" stroke-linecap="round" stroke-linejoin="round" stroke-miterlimit="10" stroke-width=".5" d="M147.51172 480.17188l1.2461 2.10937"/></g><g clip-path="url(#f)"><path fill="none" stroke="#000" stroke-linecap="round" stroke-linejoin="round" stroke-miterlimit="10" stroke-width=".5" d="M160.82813 480.39844l-7.02735-.14063"/></g><g clip-path="url(#g)"><path fill="none" stroke="#000" stroke-linecap="round" stroke-linejoin="round" stroke-miterlimit="10" stroke-width=".5" d="M160.82813 480.39844l1.10937 2.1914"/></g><g clip-path="url(#h)"><path fill="none" stroke="#000" stroke-linecap="round" stroke-linejoin="round" stroke-miterlimit="10" stroke-width=".5" d="M174.09766 480.90234l-6.9336-1.14453"/></g><g clip-path="url(#i)"><path fill="none" stroke="#000" stroke-linecap="round" stroke-linejoin="round" stroke-miterlimit="10" stroke-width=".5" d="M174.09766 480.90234l.78125 2.32422"/></g><g clip-path="url(#j)"><path fill="none" stroke="#000" stroke-linecap="round" stroke-linejoin="round" stroke-miterlimit="10" stroke-width=".5" d="M187.45703 480.1914l-7.02344.27344"/></g><g clip-path="url(#k)"><path fill="none" stroke="#000" stroke-linecap="round" stroke-linejoin="round" stroke-miterlimit="10" stroke-width=".5" d="M187.45703 480.1914l1.23438 2.1211"/></g><g clip-path="url(#l)"><path fill="none" stroke="#000" stroke-linecap="round" stroke-linejoin="round" stroke-miterlimit="10" stroke-width=".5" d="M200.77344 480.25l-7.02735.15625"/></g><g clip-path="url(#m)"><path fill="none" stroke="#000" stroke-linecap="round" stroke-linejoin="round" stroke-miterlimit="10" stroke-width=".5" d="M200.77344 480.25l1.19922 2.14063"/></g><g clip-path="url(#n)"><path fill="none" stroke="#000" stroke-linecap="round" stroke-linejoin="round" stroke-miterlimit="10" stroke-width=".5" d="M214.08984 480.2461l-7.02734.16406"/></g><g clip-path="url(#o)"><path fill="none" stroke="#000" stroke-linecap="round" stroke-linejoin="round" stroke-miterlimit="10" stroke-width=".5" d="M214.08984 480.2461l1.19922 2.14062"/></g><g clip-path="url(#p)"><path fill="none" stroke="#000" stroke-linecap="round" stroke-linejoin="round" stroke-miterlimit="10" stroke-width=".5" d="M227.40234 480.38672l-7.02343-.11328"/></g><g clip-path="url(#q)"><path fill="none" stroke="#000" stroke-linecap="round" stroke-linejoin="round" stroke-miterlimit="10" stroke-width=".5" d="M227.40234 480.38672l1.1172 2.1836"/></g><g clip-path="url(#r)"><path fill="none" stroke="#000" stroke-linecap="round" stroke-linejoin="round" stroke-miterlimit="10" stroke-width=".5" d="M240.6836 480.8164l-6.95704-.97656"/></g><g clip-path="url(#s)"><path fill="none" stroke="#000" stroke-linecap="round" stroke-linejoin="round" stroke-miterlimit="10" stroke-width=".5" d="M240.6836 480.8164l.83984 2.3047"/></g><g clip-path="url(#t)"><path fill="none" stroke="#000" stroke-linecap="round" stroke-linejoin="round" stroke-miterlimit="10" stroke-width=".5" d="M254.03125 480.4336l-7.02344-.20704"/></g><g clip-path="url(#u)"><path fill="none" stroke="#000" stroke-linecap="round" stroke-linejoin="round" stroke-miterlimit="10" stroke-width=".5" d="M253.01172 480.40234l.54297 1.09766"/></g><g clip-path="url(#v)"><path fill="none" stroke="#000" stroke-linecap="round" stroke-linejoin="round" stroke-miterlimit="10" stroke-width=".5" d="M267.34766 480.40625l-7.02344-.15625"/></g><g clip-path="url(#w)"><path fill="none" stroke="#000" stroke-linecap="round" stroke-linejoin="round" stroke-miterlimit="10" stroke-width=".5" d="M266.32422 480.38672l.55469 1.09375"/></g><g clip-path="url(#x)"><path fill="none" stroke="#000" stroke-linecap="round" stroke-linejoin="round" stroke-miterlimit="10" stroke-width=".5" d="M280.55469 481.20703l-6.80469-1.7539"/></g><g clip-path="url(#y)"><path fill="none" stroke="#000" stroke-linecap="round" stroke-linejoin="round" stroke-miterlimit="10" stroke-width=".5" d="M280.55469 481.20703l.57422 2.38672"/></g><g clip-path="url(#z)"><path fill="none" stroke="#000" stroke-linecap="round" stroke-linejoin="round" stroke-miterlimit="10" stroke-width=".5" d="M293.75781 481.55469l-6.58594-2.44922"/></g><g clip-path="url(#A)"><path fill="none" stroke="#000" stroke-linecap="round" stroke-linejoin="round" stroke-miterlimit="10" stroke-width=".5" d="M307.28906 480.52734l-7.01562-.39843"/></g><g clip-path="url(#B)"><path fill="none" stroke="#000" stroke-linecap="round" stroke-linejoin="round" stroke-miterlimit="10" stroke-width=".5" d="M307.28906 480.52734l1.02735 2.22657"/></g><g clip-path="url(#C)"><path fill="none" stroke="#000" stroke-linecap="round" stroke-linejoin="round" stroke-miterlimit="10" stroke-width=".5" d="M320.23438 481.90625l-6.27735-3.15625"/></g><g clip-path="url(#D)"><path fill="none" stroke="#000" stroke-linecap="round" stroke-linejoin="round" stroke-miterlimit="10" stroke-width=".5" d="M333.57422 481.85938l-6.32422-3.0625"/></g><g clip-path="url(#E)"><path fill="none" stroke="#000" stroke-linecap="round" stroke-linejoin="round" stroke-miterlimit="10" stroke-width=".5" d="M347.23047 480.58594l-7.00781-.51172"/></g><g clip-path="url(#F)"><path fill="none" stroke="#000" stroke-linecap="round" stroke-linejoin="round" stroke-miterlimit="10" stroke-width=".5" d="M346.21094 480.51172l.4961 1.1211"/></g><g clip-path="url(#G)"><path fill="none" stroke="#000" stroke-linecap="round" stroke-linejoin="round" stroke-miterlimit="10" stroke-width=".5" d="M360.49219 480.9961l-6.89844-1.33594"/></g><g clip-path="url(#H)"><path fill="none" stroke="#000" stroke-linecap="round" stroke-linejoin="round" stroke-miterlimit="10" stroke-width=".5" d="M359.48828 480.80469l.35938 1.17187"/></g><g clip-path="url(#I)"><path fill="none" stroke="#000" stroke-linecap="round" stroke-linejoin="round" stroke-miterlimit="10" stroke-width=".5" d="M372.76953 482.88281l-4.82812-5.10547"/></g><g clip-path="url(#J)"><path fill="none" stroke="#000" stroke-linecap="round" stroke-linejoin="round" stroke-miterlimit="10" stroke-width=".5" d="M385.125 483.52734l-2.90625-6.39843"/></g><g clip-path="url(#K)"><path fill="none" stroke="#000" stroke-linecap="round" stroke-linejoin="round" stroke-miterlimit="10" stroke-width=".5" d="M396.27734 483.76953l1.41797-6.88281"/></g><g clip-path="url(#L)"><path fill="none" stroke="#000" stroke-linecap="round" stroke-linejoin="round" stroke-miterlimit="10" stroke-width=".5" d="M413.53125 481.71484l-6.45703-2.77343"/></g><g clip-path="url(#M)"><path fill="none" stroke="#000" stroke-linecap="round" stroke-linejoin="round" stroke-miterlimit="10" stroke-width=".5" d="M427.1211 480.57422l-7.00782-.49219"/></g><g clip-path="url(#N)"><path fill="none" stroke="#000" stroke-linecap="round" stroke-linejoin="round" stroke-miterlimit="10" stroke-width=".5" d="M427.1211 480.57422l.99609 2.24219"/></g><g clip-path="url(#O)"><path fill="none" stroke="#000" stroke-linecap="round" stroke-linejoin="round" stroke-miterlimit="10" stroke-width=".5" d="M426.10156 480.5039l.9961 2.2422"/></g><g clip-path="url(#P)"><path fill="none" stroke="#000" stroke-linecap="round" stroke-linejoin="round" stroke-miterlimit="10" stroke-width=".5" d="M440.4375 480.55078l-7.01172-.44531"/></g><g clip-path="url(#Q)"><path fill="none" stroke="#000" stroke-linecap="round" stroke-linejoin="round" stroke-miterlimit="10" stroke-width=".5" d="M440.4375 480.55078l1.01172 2.23438"/></g><g clip-path="url(#R)"><path fill="none" stroke="#000" stroke-linecap="round" stroke-linejoin="round" stroke-miterlimit="10" stroke-width=".5" d="M439.41797 480.48438l.50781 1.11718"/></g><g clip-path="url(#S)"><path fill="none" stroke="#000" stroke-linecap="round" stroke-linejoin="round" stroke-miterlimit="10" stroke-width=".5" d="M453.75781 480.21484l-7.02344.23047"/></g><g clip-path="url(#T)"><path fill="none" stroke="#000" stroke-linecap="round" stroke-linejoin="round" stroke-miterlimit="10" stroke-width=".5" d="M453.75781 480.21484l1.22266 2.125"/></g><g clip-path="url(#U)"><path fill="none" stroke="#000" stroke-linecap="round" stroke-linejoin="round" stroke-miterlimit="10" stroke-width=".5" d="M467.0039 479.625l-6.8828 1.40625"/></g><g clip-path="url(#V)"><path fill="none" stroke="#000" stroke-linecap="round" stroke-linejoin="round" stroke-miterlimit="10" stroke-width=".5" d="M466.0039 479.82813l.78126.94921"/></g><g clip-path="url(#W)"><path fill="none" stroke="#000" stroke-linecap="round" stroke-linejoin="round" stroke-miterlimit="10" stroke-width=".5" d="M147.49219 466.6211l-6.98438.78515"/></g><path fill="none" stroke="#000" stroke-linecap="round" stroke-linejoin="round" stroke-miterlimit="10" stroke-width=".5" d="M146.47656 466.73438l.6914 1.01171m13.41017-2.03906l-6.52344 2.61328m6.52344-2.61328l1.875 1.58203m11.51953-1.35937l-6.6836 2.16797m6.6836-2.16797l1.76562 1.70312m11.46875-1.92578l-6.52344 2.61328m6.52344-2.61328l1.875 1.58594m11.38672-1.71485l-6.41406 2.8711m6.41406-2.8711l1.9336 1.50782m11.63671-.67188l-6.92578 1.19922m5.91797-1.02344l.75.96875m13.58203-1.07422l-6.94531 1.0586m5.9336-.90625l.73437.98437m13.57422-1.2539l-6.91016 1.29297m5.90234-1.10547l.76563.96093m13.61719-.47265l-7.02735-.0586m6.0039.05079l.56642 1.08984m13.76953-1.16406l-7.02344.10547m6.0039-.08985l.58985 1.07422m13.73047-.70703l-6.9961-.66016m5.97657.56641l.47265 1.13281m13.82422-.76562l-6.92187-1.20703m5.91406 1.03125l.38281 1.16796m13.98047-1.28125l-7-.6289m5.98047.53906l.47656 1.1289m13.86328-1.09374l-7.00781-.51953m5.98828.4453l.49219 1.1211m13.79687-.6875l-6.91797-1.23828m5.91016 1.0586l.375 1.16796m14-1.51172l-7.02344-.1914m6 .16406l.54688 1.09766m13.78125-.89063l-7.0039-.55078m5.98437.47266l.48828 1.125m12.83984 1.15234l-4.98828-4.94922m4.26172 4.23047l-.35547 1.17188M381.82031 470l3.70313-5.97266m10.82812 6.44141l1.26953-6.91016m-1.08203 5.90625l-1.17187.3711m17.6836-.63672l-5.5-4.3711m5.5 4.3711l-.44532 2.41406m-.35547-3.05078l-.22266 1.20703m15.00391-1.9336l-6.83203-1.64452m6.83203 1.64453l.61328 2.3789m-1.60547-2.61718l.60938 2.375m13.79297-2.78907l-7.01954-.33984m7.01954.33984l1.04687 2.21875m-2.07031-2.26953l.52344 1.11328m13.74609-1.94922l-6.8789 1.4336m6.8789-1.4336l1.5664 1.88672m-2.5703-1.67968l.78515.9453m13.49219-1.33202l-6.79688 1.79297"/><g clip-path="url(#X)"><path fill="none" stroke="#000" stroke-linecap="round" stroke-linejoin="round" stroke-miterlimit="10" stroke-width=".5" d="M466.96094 466.11719l1.66406 1.80078"/></g><g clip-path="url(#Y)"><path fill="none" stroke="#000" stroke-linecap="round" stroke-linejoin="round" stroke-miterlimit="10" stroke-width=".5" d="M146.72266 451.47656l-5.44532 4.44531"/></g><path fill="none" stroke="#000" stroke-linecap="round" stroke-linejoin="round" stroke-miterlimit="10" stroke-width=".5" d="M145.92969 452.1211l1.13281.47656m12.29688-1.75391l-4.08985 5.71094m3.4961-4.88281l1.21484.16406m12.39062-1.1914l-3.48047 6.10546m2.97266-5.21484l1.22656.03515m13.09766-.57422l-4.48438 5.40625m3.83204-4.62109l1.20312.25m13.15625-.65625l-5.26953 4.64844m4.5039-3.97266l1.14844.4336m13.13672-.85547l-5.67969 4.14062m4.85547-3.53906l1.10157.53906m13.47265-.34765l-6.54687 2.55078m5.59375-2.1797l.92969.80079m13.4453-.85156l-6.76171 1.91015m5.77734-1.6289l.85156.88281m13.51563-.89062l-6.89453 1.36718m20.23437-1.22265l-6.9453 1.07422m5.93358-.91797l.73438.98437m13.42188.59766L273.84765 452.5m5.64453 2.04688l.17187 1.21484m14.19532-1.14844l-6.78516-1.82812m5.79687 1.5625l.27344 1.1953m12.90235.83985l-4.53125-5.36718m3.87109 4.58593l-.45313 1.14063m15.4922-1.92188l-6.66016-2.24218m5.6914 1.91406l.19922 1.21094m14.25-2.37891l-6.98828.7461m17.60547-3.79298l-1.59375 6.84375m1.36328-5.84765l1.1836-.3164m8.61718.82812l5.89453 3.82812m-5.03515-3.26953l.10546-1.22266m11.78516 2.66797l7.02344-.17969m-6 .15235l-.60547-1.0664m13.16406 2.35155l6.48828-2.69921m-5.54297 2.30859l-.94921-.78125m14.52343 2.6836l4.08203-5.71876m-3.48828 4.88672l-1.21484-.16015m16.78125 1.55078L409.5 450.27734m1.60547 6.83985l-1.84766 1.61718m17.4414-3.34765l-6.16405-3.375m6.16406 3.375l-.03125 2.45312m-.86719-2.9453l-.02734 2.45312m14.19922-1.89063l-6.08203-3.51953m6.08203 3.51953l-.08985 2.45313m13.71094-3.14454l-6.69531-2.1328m6.69531 2.1328l.4414 2.41407M467 454.41797l-6.8789-1.4414M466 454.21093l.33984 1.17578"/><g clip-path="url(#Z)"><path fill="none" stroke="#000" stroke-linecap="round" stroke-linejoin="round" stroke-miterlimit="10" stroke-width=".5" d="M146.91797 438.42188l-5.83594 3.92187"/></g><path fill="none" stroke="#000" stroke-linecap="round" stroke-linejoin="round" stroke-miterlimit="10" stroke-width=".5" d="M146.91797 438.42188l2.16406 1.15625m-3.01562-.58594l1.08203.57812m13.02734-1.23047l-5.71875 4.08594m5.71875-4.08594l2.19531 1.09375m10.76172-1.51953l-5.0039 4.9375m4.27343-4.21875l1.17188.36719m13.11328-.8125l-5.48438 4.39453m5.48438-4.39453l2.2539.96875m11.07032-.96094l-5.5 4.375m5.5-4.375l2.25.98047m11.45703-.36328l-6.28516 3.14062m6.28516-3.14062l2 1.42187m11.19922-1.63671l-6.05469 3.5703m6.05469-3.5703l2.08984 1.28125m10.88281-1.76172l-5.36718 4.53515m4.58594-3.875l1.13671.45313m13.03516-1.02344l-5.51953 4.35156m4.71484-3.71875l1.125.4961m13.7461.95703l-7.02344.17969m6-.15235l.60547 1.0664m13.69531-1.52343l-6.94922 1.03906m5.9375-.88672l.73047.98438m13.58984-.0625l-6.9375-1.10938m5.9297.94922l.39843 1.16016m13.95312-1.91406l-6.99218.71875m5.97265-.61328l.6836 1.01953m13.65234-1.08985l-6.9961.64844m5.98047-.55469l.67188 1.02735m13.57422-1.6289l-6.82813 1.66405m5.83594-1.42187l.8164.91797m10.0547-3.83985l.04687 7.02735m10.27734-5.32031l6.02735 3.60937m-5.15235-3.08203l.0625-1.22656m12.10938 1.24609l6.5625 2.51563m-5.60547-2.14844l-.15234-1.21875m12.27734 2.16797l7.02734-.11328m-7.02734.11328l-1.1836-2.14844m15.07032 4.01172l5.88281-3.84375m-5.88281 3.84375l-2.14844-1.1836m3.00781.625l-1.07812-.59375m13.89844 1.6172l5.15625-4.77345m-5.15625 4.77344l-2.31641-.80469m20.57031 1.02344l-4.71875-5.20703m4.71875 5.20703l-.83203 2.3086m.14453-3.06641l-.41797 1.15234m14.44532-.42187l-4.76954-5.15625m4.76954 5.15625l-.8086 2.32031m13.05078-1.63672l-2.625-6.51953m2.625 6.51953l-1.57812 1.875m14.27344-1.6914l-1.38282-6.89063m1.1797 5.88672l-.94923.78125"/><g clip-path="url(#aa)"><path fill="none" stroke="#000" stroke-linecap="round" stroke-linejoin="round" stroke-miterlimit="10" stroke-width=".5" d="M146.91797 425.10938l-5.83594 3.91796"/></g><path fill="none" stroke="#000" stroke-linecap="round" stroke-linejoin="round" stroke-miterlimit="10" stroke-width=".5" d="M146.91797 425.10938l2.16406 1.15625m-3.01562-.58594l1.08203.57812m13.19531-.96875l-6.0586 3.5586m6.0586-3.5586l2.08984 1.28125m-2.97265-.76562l1.04687.64453m13.23438-1.00781l-6.22656 3.2578m6.22656-3.2578l2.02734 1.3828m11.58203-.62108l-6.8125 1.73046m6.8125-1.73046L189 428.01563m-2.64063-1.5625l.82422.91015m13.53516-.91797l-6.91797 1.2461m6.91797-1.2461l1.51953 1.92578m-2.52734-1.74609l.76172.96484m13.61328-.39062l-7.02344-.26172m6.0039.22656l.53126 1.10157m13.80468-1.29297l-7.02343.1914m7.02343-.1914l1.21094 2.1328m12.0625-2.58593l-6.9414 1.09766m6.9414-1.09766l1.47656 1.96094m11.0547-3.67969l-5.3711 4.53516m5.3711-4.53516l2.27733.91406m11.59375.00391l-6.48437 2.69922m5.54297-2.3086l.94531.78126m12.73047 2.47265l-5.32031-4.58984m5.32031 4.58984l-.54297 2.39453m13.84375-7l-5.29687 4.6211m4.52734-3.94922l1.14453.4414m12.91406 3.53516l-5.24609-4.67578m19.23047 3.5664l-6.58203-2.45703m5.625 2.10157l.16015 1.21484m14.28907-2.66406l-6.9336 1.15234m19.85938-2.26953l-6.15625 3.38672m6.15625-3.38672l2.05469 1.33984m10.08593-2.59765l-3.8086 5.90234m3.25392-5.04297l1.22265.10157m11.76563 1.99218l-.01954-.20312-.05859-.1914-.09375-.17579-.46094-.375-.1914-.0586-.19922-.01952-.19922.01953-.1914.05859-.45704.375-.09765.17578-.0586.1914-.01953.20313.01953.19922.0586.1914.09765.17579.45703.375.19141.0586.19922.01952.19922-.01953.1914-.0586.46094-.375.09375-.17577.0586-.1914.01953-.19923m9.2539 1.76172l6.07813-3.52734m-6.07813 3.52734l-2.08203-1.29297m2.96485.78125l-1.03907-.64843m13.28906.80468l6.44141-2.8164m13.13672 3.16797l-6.08594-3.51954m5.19922 3.00782l-.04297 1.22656m13.05078.51172l-3.69921-5.97266m3.69921 5.97266l-1.23437 2.1211m.69531-2.98829l-1.23437 2.11719m13.48437-.73047l-.48828-7.01172m.48828 7.01172l-2.07812 1.30078m2.0078-2.32031l-1.03905.64844m16.58984-.57813l-4.82031-5.11328m4.1211 4.36719l-.39454 1.16406m12.21875.53125l-.4375-7.01172m.4375 7.01172l-2.08984 1.28516"/><g clip-path="url(#ab)"><path fill="none" stroke="#000" stroke-linecap="round" stroke-linejoin="round" stroke-miterlimit="10" stroke-width=".5" d="M147.02344 411.96484l-6.04688 3.57422"/></g><path fill="none" stroke="#000" stroke-linecap="round" stroke-linejoin="round" stroke-miterlimit="10" stroke-width=".5" d="M147.02344 411.96484l2.09375 1.28125m-2.97266-.76172l2.09375 1.28125m12.34375-1.30859l-6.53125 2.58985m6.53125-2.58985l1.86719 1.58985m-2.82031-1.21094l1.87109 1.58984m12.49219-1.69922l-6.72266 2.05469m6.72266-2.05469l1.73437 1.73438m-2.71484-1.4336l1.73437 1.73438m12.52735-2.13672l-6.65625 2.25781m6.65625-2.25781l1.78515 1.67969m-2.7539-1.35156l.89453.83984m13.4961-.77344l-6.8711 1.46875m6.8711-1.46875l1.57812 1.8789m11.5586.17188l-6.51563-2.63281m5.5664 2.25l.1289 1.21875m12.27735 1.07031l-2.79687-6.44531m15.33594 6.67969l-1.2422-6.91406m1.0586 5.91015l-.96484.75781m15.67187-6.21093l-3.66015 6m3.125-5.12891l1.22656.07422m13.10547-.58985l-4.625 5.28907m3.95312-4.51953l1.1914.27734m11.62891 4.91797l-2.29296-6.64063m1.96093 5.67578l-.83593.89844m14.58203-6.53906l-2.48828 6.57031m2.125-5.61328l1.21875-.15625m14.72265 2.64453l-7.01953-.32031m17.48047 3.61328l-1.30469-6.90625m11.23047 5.65625l5.47266-4.40625m-4.67578 3.76563l-1.12891-.48047m12.8789-.82031l7.00782-.52344m-5.98828.44922l-.65625-1.03907m19.60547-.70312l-6.30078 3.10937m6.30078-3.10937l1.99218 1.4336m11.27735-1.52735l-6.20703 3.29687m5.30078-2.8164l1.01953.6836m7.74219-2.125l4.71093 5.21484M382 411.90625l.41797-1.15625m16.30469-.05078l-3.47266 6.10937m3.47266-6.10937l2.45312.07031m10.1914-.36328l-2.1328 6.69531m2.1328-6.69531l2.41407-.4414m-2.72266 1.41406l1.20704-.21875m14.68359 3.70312l-6.66797-2.21875m6.66797 2.21875l.41016 2.41797m11.8203-.82813l-4.49609-5.39843m4.4961 5.39844l-.92969 2.27343m.27344-3.0586l-.46094 1.13673m12.86328.39453l-1.35937-6.89453m1.16015 5.89453l-.94922.77344m12.98438.20312l1.60156-6.84375m-1.60156 6.84375l-2.375.625"/><g clip-path="url(#ac)"><path fill="none" stroke="#000" stroke-linecap="round" stroke-linejoin="round" stroke-miterlimit="10" stroke-width=".5" d="M147.15234 398.88281l-6.30468 3.10938"/></g><path fill="none" stroke="#000" stroke-linecap="round" stroke-linejoin="round" stroke-miterlimit="10" stroke-width=".5" d="M147.15234 398.88281l1.98828 1.4336m-2.90625-.98047l1.9922 1.4336m-2.91016-.98048l.99609.71485m14.09766-1.73047l-6.19141 3.32812m6.1914-3.32812l2.03907 1.36328m-2.9414-.8789l2.04296 1.36327m11.14844-3.02343l-4.13672 5.67968m4.13672-5.67968l2.42969.34375m-3.03125.48437l1.21484.17188m12.05469-1.3711l-2.84375 6.42578m2.84375-6.42578l2.44922-.17578m10.7578.1289l-2.625 6.51954m2.625-6.51953l2.4375-.25781m11.09767.35546l-3.06641 6.32032m2.6211-5.40235l1.22655-.04297m13.52344-.15625l-5.05078 4.88672m5.05078-4.88672l2.33594.75391m-3.07031-.04297l1.16797.3789m13.30468-.5625l-5.89453 3.82813m5.89453-3.82812l2.14453 1.1875m-3.0039-.6289l1.07422.59374m13.08203-1.17969l-5.85547 3.88672m5.85547-3.88672l2.15625 1.16797m11.29297-.94531l-6.1289 3.4375m6.1289-3.4375l2.0664 1.32813m11.48829-.8047l-6.60547 2.39454m6.60547-2.39453l1.8203 1.64062m11.11329-2.39453l-5.84375 3.90235m5.84375-3.90235l2.16016 1.16016m8.01562-2.71485l.4375 7.01172m-.4375-7.01172l2.08984-1.28906m11.16797 8.29688l.55078-7.00391m-.55078 7.0039l-2.25.98048m14.64063-1.1797l2.40234-6.60546m-2.05469 5.64453l-1.21484.16797m12.83594-4.92969l5.09375 4.83594m7.90234-4.45313l5.73047 4.07032m-4.89453-3.47657l.15625-1.21875m13.88672 5.92579l2.60547-6.52735m-2.22657 5.57813l-1.21875.1328m18.86329-3.30077l-6.81641 1.70312m6.8164-1.70312l1.64454 1.82422m11.76562-1.26172l-7.0039.57812m7.0039-.57812l1.32813 2.0625m11.125-4.09375l-5.27735 4.64062m5.27735-4.64062l2.29297.86719m10.92187-.97657l-5.07812 4.85938m5.07812-4.85938l2.32813.76953m11.71875.37891l-6.54297 2.5625m6.54297-2.5625l1.86328 1.59766m11.58984-1.16016l-6.82031 1.6914m6.82031-1.6914l1.64063 1.82422m10.78515-3.42969l-5.03906 4.89844"/><g clip-path="url(#ad)"><path fill="none" stroke="#000" stroke-linecap="round" stroke-linejoin="round" stroke-miterlimit="10" stroke-width=".5" d="M466.08203 397.98828l2.33594.75"/></g><path fill="none" stroke="#000" stroke-linecap="round" stroke-linejoin="round" stroke-miterlimit="10" stroke-width=".5" d="M465.34766 398.70313l1.16796.375"/><g clip-path="url(#ae)"><path fill="none" stroke="#000" stroke-linecap="round" stroke-linejoin="round" stroke-miterlimit="10" stroke-width=".5" d="M147.03906 385.36328l-6.07812 3.51953"/></g><path fill="none" stroke="#000" stroke-linecap="round" stroke-linejoin="round" stroke-miterlimit="10" stroke-width=".5" d="M147.03906 385.36328l2.08594 1.29688m-2.96875-.78516l2.08203 1.29688m11.27344-2.78907l-4.39453 5.48047m4.39453-5.48047l2.41406.45703m-3.05078.33985l2.41016.45703m10.76953-1.72656l-2.84766 6.42578m2.84766-6.42578l2.44922-.17188m-2.86328 1.10938l2.44921-.17579m11.28516-.7578l-2.85938 6.41796m2.85938-6.41797l2.44922-.16797m-2.86328 1.10157l2.44531-.16797m11.32813-.7461l-2.94922 6.37891m2.94922-6.3789l2.45312-.13282m-2.88281 1.0625l2.45312-.13672m12.67969.35938l-5.72266 4.07422m5.72266-4.07422l2.19531 1.09765m-3.02734-.5039l1.09766.54687m13.40625-.51562l-6.4375 2.82422m5.5-2.41407l.96093.76172m10.44531-3.2539l-.74609 6.98828m.7461-6.98828l2.27734-.91407m13.1914 1.96485l-5.05078 4.88672m5.05078-4.88672l2.33204.75781m-3.06641-.04688l1.16406.37891m12.32813-1.55469l-3.9414 5.81641m3.9414-5.8164l2.4414.26171m-3.01171.58594l1.21875.1289m13.69921.10548l-6.0039 3.65234m6.0039-3.65235l2.10938 1.25m-2.98438-.71875l2.11329 1.25m12.12109-1.70312l-6.09375 3.5m6.09375-3.5l2.07812 1.30469m-2.96484-.79688l1.03906.65235m12.4375-2.05079l-4.64062 5.27735m4.64062-5.27735l2.38672.56641m-3.0625.20313l1.19531.28125m13.4336-.3047l-5.91797 3.78907m5.91797-3.78906l2.13672 1.20312m-2.9961-.65234l2.13672 1.20313m11.97266-1.85157l-5.78906 3.98047m5.78906-3.98047l2.17969 1.13281m11.28125-.90625l-6.07813 3.52735m6.07813-3.52735l2.08203 1.29297m-2.96875-.78125l1.04297.64844m13.60546.17188l-6.97265.86328m6.97265-.86328l1.41016 2.0078m-2.42578-1.8828l.70703 1.0039m13.25781-2.3125l-6.24218 3.23047m6.24218-3.23047l2.01953 1.39453m-2.92578-.92187l2.01563 1.39453m12.42969-1.33594l-6.6875 2.16797m6.6875-2.16797l1.76171 1.70703m-2.73437-1.39062l.8789.85156m13.46876-.94922l-6.8086 1.73047m6.8086-1.73047l1.65234 1.8164m-2.64063-1.5664l.82422.91016m13.11328-2.0625l-6.07421 3.53515m6.07421-3.53515l2.08204 1.29687m-2.96875-.78125l1.04296.64844m13.40235-.64844l-6.5664 2.50391m6.5664-2.5039l1.84765 1.61327m-2.80078-1.25l.92188.8086m13.55078-.33985l-6.97266.84375m6.97266-.84375l1.40625 2.01172m-2.41797-1.89062l1.40234 2.01172m12.91407-2.22266l-6.95313 1.02344m6.95313-1.02344l1.45703 1.97266m-2.46875-1.82422l.72656.98828m12.02734-3.58203l-3.80468 5.91015"/><g clip-path="url(#af)"><path fill="none" stroke="#000" stroke-linecap="round" stroke-linejoin="round" stroke-miterlimit="10" stroke-width=".5" d="M465.46484 384.16797l2.44532.20312"/></g><g clip-path="url(#ag)"><path fill="none" stroke="#000" stroke-linecap="round" stroke-linejoin="round" stroke-miterlimit="10" stroke-width=".5" d="M146.65234 371.5039l-5.30468 4.60938"/></g><path fill="none" stroke="#000" stroke-linecap="round" stroke-linejoin="round" stroke-miterlimit="10" stroke-width=".5" d="M146.65234 371.5039l2.28907.87891m-3.0625-.20703l1.14843.4375m13.00782-1.02734l-5.44141 4.44531m5.4414-4.44531l2.26173.94922m-3.05079-.3047l1.12891.47657m12.28516-1.76562l-4.0586 5.73437m4.0586-5.73437l2.43359.30859m-3.02344.52344l2.4336.3125m10.27734-1.6914l-1.67188 6.82812m1.67188-6.82813l2.3789-.60156m-2.62109 1.59765l1.1875-.30468m12.66797-.60156l-2.26953 6.64843m2.26953-6.64844l2.42188-.39062m-2.75 1.35547l1.21093-.19531m13.4297-.23829l-4.26173 5.58594m4.26172-5.58594l2.42188.39844m9.6328-1.00781l-1.74218 6.80469m1.74219-6.80469l2.38672-.57813m12.38281 1.34766l-4.65234 5.26563m4.65234-5.26563l2.38672.57031m-3.0625.19532l1.1914.28515m10.53907-1.92969l-.13281 7.02344m.11328-6.0039l1.09375-.5547m13.07422-.35155l-1.79688 6.79296m1.79688-6.79296l2.39062-.5586m-2.65234 1.54688l1.1953-.27735m12.75782-.58593l-2.55078 6.54687m2.55078-6.54687l2.4375-.28907m-2.8086 1.2422l1.21876-.14454m13.80469.11328l-5.22657 4.69922m5.22657-4.69922l2.30468.84375m-3.0664-.16015l1.15234.42187m12.33203-1.6289l-4.03906 5.75m4.03906-5.75l2.4336.30077m-3.02344.53516l1.21875.15235m13.11719-.63282l-4.90235 5.03906m4.90235-5.03906l2.35546.6836m11.3125-.28125l-5.60937 4.23046m5.60937-4.23046l2.22657 1.03906m11.22656-.83985l-5.88672 3.83594m5.88672-3.83594l2.14844 1.1836m11.3828-.80469l-6.3164 3.07813m6.3164-3.07813l1.98438 1.4414m11.20704-1.67187l-6.07032 3.53906m6.07032-3.53906l2.08593 1.28906m11.44532-.84765l-6.50391 2.65625m6.5039-2.65625l1.88672 1.57031m-2.83203-1.1836l.94532.78516m13.44921-.78906l-6.76953 1.89063m6.76953-1.89063l1.69141 1.77735m11.73047-1.22266l-6.98438.78125m6.98438-.78125l1.38672 2.02344m-2.40235-1.91016l.69141 1.01172m13.53516-1.66406l-6.77735 1.85937m6.77735-1.85937l1.68359 1.78125m-2.66797-1.51172l.83985.89062m13.46093-1.16015l-6.77734 1.85937m6.77734-1.85937l1.6836 1.78515m-2.66797-1.51562l.83984.89453m13.21875-1.79297l-6.29687 3.11328m6.29687-3.11328l1.9961 1.4336m-2.91016-.98048l.9961.71875m13.22656-1.18359l-6.28516 3.14063"/><g clip-path="url(#ah)"><path fill="none" stroke="#000" stroke-linecap="round" stroke-linejoin="round" stroke-miterlimit="10" stroke-width=".5" d="M466.70313 372.23828l2 1.42188"/></g><path fill="none" stroke="#000" stroke-linecap="round" stroke-linejoin="round" stroke-miterlimit="10" stroke-width=".5" d="M465.78906 372.69531l1 .71094"/><g clip-path="url(#ai)"><path fill="none" stroke="#000" stroke-linecap="round" stroke-linejoin="round" stroke-miterlimit="10" stroke-width=".5" d="M145.44531 357.28906l-2.89062 6.40625"/></g><path fill="none" stroke="#000" stroke-linecap="round" stroke-linejoin="round" stroke-miterlimit="10" stroke-width=".5" d="M145.44531 357.28906l2.44922-.15625m8.55469-.04297l1.73437 6.8086m-1.73437-6.8086l1.8125-1.65234m12.375 1.54297l-.01172 7.02734m.01172-7.02734l2.16797-1.14844m-2.17188 2.17188l1.08594-.57422m12.98438-.36719l-1.51563 6.86328m1.51563-6.86328l2.36328-.65625m10.21875.57422l-.05078 7.02734m.05078-7.02734l2.17578-1.13672m10.35156 1.21875l1.52344 6.85938m-1.30078-5.85938l.93359-.79688m9.98828 1.29688l5.86719 3.86328m-5.01563-3.30078l.11328-1.22266m14.375-.80468l1.81641 6.78906m-1.8164-6.78906l1.79296-1.67188m13.82422 1.84375l-2.78515 6.44922m2.3789-5.51172l1.22266-.10156m9.8789-.90625l2.44922 6.58594m-2.44922-6.58594l1.62891-1.83594m12.60547 1.6289l.61328 7m-.52344-5.98046l1.03125-.66797M290 357.01172l.9336 6.96484m-.79688-5.95312l.9961-.71485M303.41405 357l.73438 6.98828m-.6289-5.97265l1.01952-.6875m14.34375.14062l-3.57031 6.05078m3.57031-6.05078l2.44922.10547m8.8164-.58594l.52344 7.00781m-.4453-5.98828l1.03515-.65234m14.83203.54297l-4.73438 5.1914m4.73438-5.1914l2.3789.60937m12.07422 1.77735l-7.01171.41406m7.01171-.41406l1.27735 2.09765m11.84375-3.0625l-6.625 2.34375m5.66015-2.0039l.90625.83203m13.25-1.47656l-6.375 2.95312m6.375-2.95313l1.95704 1.48438m11.14453-1.875l-5.94922 3.73828m5.94922-3.73828l2.1289 1.21875m11.66016-.01953l-6.89844 1.33594m6.89844-1.33594l1.54297 1.91015m11.82422-1.55468l-7 .625m7-.625l1.33984 2.05469m-2.35937-1.96485l.67187 1.02735m13.4961-1.91407l-6.66797 2.22266m6.66796-2.22266l1.77735 1.6914m-2.75-1.36718l.89062.84375m13.34375-1.3164l-6.5625 2.51562m6.5625-2.51563l1.85157 1.60938m-2.8047-1.24219l.92579.80469m13.32812-1.20703l-6.53125 2.58984"/><g clip-path="url(#aj)"><path fill="none" stroke="#000" stroke-linecap="round" stroke-linejoin="round" stroke-miterlimit="10" stroke-width=".5" d="M466.82813 359.19922l1.86718 1.58984"/></g><path fill="none" stroke="#000" stroke-linecap="round" stroke-linejoin="round" stroke-miterlimit="10" stroke-width=".5" d="M465.8789 359.57422l1.8672 1.58984"/><g clip-path="url(#ak)"><path fill="none" stroke="#000" stroke-linecap="round" stroke-linejoin="round" stroke-miterlimit="10" stroke-width=".5" d="M143.28516 343.73828l1.42968 6.8789"/></g><g clip-path="url(#al)"><path fill="none" stroke="#000" stroke-linecap="round" stroke-linejoin="round" stroke-miterlimit="10" stroke-width=".5" d="M143.28516 343.73828l1.8828-1.57031"/></g><g clip-path="url(#am)"><path fill="none" stroke="#000" stroke-linecap="round" stroke-linejoin="round" stroke-miterlimit="10" stroke-width=".5" d="M143.49219 344.73828l.9414-.78515"/></g><path fill="none" stroke="#000" stroke-linecap="round" stroke-linejoin="round" stroke-miterlimit="10" stroke-width=".5" d="M155.69531 344.0586l3.23828 6.23827m-3.23828-6.23828l1.39063-2.01953m-.91797 2.92969l1.39062-2.02344m11.34375 1.17188l3.45313 6.1211m-3.45313-6.1211l1.32032-2.0664m-.81641 2.95702l.66016-1.03515m11.98047.25l3.79687 5.91015m-3.79688-5.91015l1.19922-2.14063m14.08985 1.58203l-.15235 7.02735m.13282-6.00391l1.09375-.55078m9.86718.38281l4.59375 5.3164m-3.92578-4.54296l.44531-1.14453m12.08985.47265l4.82031 5.11329m7.52344-3.51172l6.76172 1.91015M234.80859 346.5l-.26172-1.19922m12.46875 1.61719l7.00782.51953m-5.98828-.4414l-.4922-1.125m12.875 2.11718l6.83595-1.6211m-5.84375 1.38673l-.8086-.92188m13.51953-1.4336l6.0586 3.5586m-5.17578-3.03906l.05078-1.22656m12.04297 1.48046l6.73437 2.01172m-5.7539-1.71875l-.2422-1.20312m12.6797.6211l6.53124 2.58984m-6.53125-2.58985l-.27343-2.4375m13.77734 2.03906l6.15234 3.39063m-5.2578-2.89844l.01952-1.22656m15.80078-1.07031l-.64843 6.9961m.64843-6.9961L333 342.73438m10.24219.96484l.96875 6.95703m-.82813-5.94531l.99219-.71875m13.9336-.08985l-2.53516 6.55079m2.53515-6.55079l2.4375-.29296m11.125.39843l-3.03125 6.33985m3.03125-6.33985l2.45313-.10547m11.3164 6.1836l-3.9414-5.8164m17.98047.65233l-5.38672 4.51172m4.60547-3.85546l1.13672.46093m13.67968.3125l-6.82812 1.65625m6.82812-1.65625l1.63282 1.83203m11.77734-.82812L420.10937 347m7.01563.35547l1.04297 2.22265m12.1289-3.41406l-6.73046 2.02735m6.73046-2.02735l1.72657 1.74219m11.5664-1.8125l-6.6875 2.16797m6.6875-2.16797l1.76172 1.70703m10.85156-2.9375l-5.28515 4.6289"/><g clip-path="url(#an)"><path fill="none" stroke="#000" stroke-linecap="round" stroke-linejoin="round" stroke-miterlimit="10" stroke-width=".5" d="M466.20313 344.86328l2.29687.8711"/></g><path fill="none" stroke="#000" stroke-linecap="round" stroke-linejoin="round" stroke-miterlimit="10" stroke-width=".5" d="M465.4375 345.53516l1.14453.4375"/><g clip-path="url(#ao)"><path fill="none" stroke="#000" stroke-linecap="round" stroke-linejoin="round" stroke-miterlimit="10" stroke-width=".5" d="M142.76953 330.57422l2.46094 6.57812"/></g><g clip-path="url(#ap)"><path fill="none" stroke="#000" stroke-linecap="round" stroke-linejoin="round" stroke-miterlimit="10" stroke-width=".5" d="M142.76953 330.57422l1.625-1.83985"/></g><g clip-path="url(#aq)"><path fill="none" stroke="#000" stroke-linecap="round" stroke-linejoin="round" stroke-miterlimit="10" stroke-width=".5" d="M143.125 331.53125l1.6289-1.83984"/></g><path fill="none" stroke="#000" stroke-linecap="round" stroke-linejoin="round" stroke-miterlimit="10" stroke-width=".5" d="M157.22266 330.35156l.18359 7.02344m-.1836-7.02344l2.13673-1.20703m14.64453 3.74219l-6.75 1.95312m6.75-1.95312l1.71093 1.76172m10.48438-3.48047l-4.50781 5.39062m4.5078-5.39062l2.40235.5039m12.125 1.60938l-6.92969 1.16406m6.9297-1.16406l1.49218 1.94922m11.39453-3.13281l-6.07422 3.53125m6.07422-3.53125l2.08594 1.29296m10.88281-1.78515l-5.38281 4.51562m5.38281-4.51562l2.27734.92187m10.58204-1.375l-4.47266 5.41797m3.82422-4.6289l1.19922.24609m12.9336-.88672l-4.8086 5.125m4.8086-5.125l2.36718.64063m9.54297-1.44532l-2 6.73438m1.70703-5.7539l1.20312-.2461m7.96485 1.91406l6.8789 1.4336m-5.8789-1.22266l-.34375-1.17969m12.59765 1.41406l7.00391.54688m-7.0039-.54688l-.98048-2.25m14.34375 1.875l6.90625 1.29688m-6.90625-1.29688l-.73437-2.33984m13.9961 2.73438l7.01171.5078m-7.01172-.5078l-.99218-2.2422m14.61718 1.03907l6.39454 2.91406m-6.39454-2.91406l-.14843-2.44922m13.21093 3.23828l6.89844 1.33594m-6.89844-1.33594l-.71875-2.34765m14.41407 1.30078l6.13671 3.42969m-6.13671-3.4297l.05078-2.45312m13.45312 2.15625l5.76172 4.02344m-4.92578-3.4375l.14844-1.21875m16.5586 5.89063l-2.69532-6.4922m2.30078 5.54688l-.77734.94531m13.53125.2461l-.78516-6.98438m.67188 5.96875l-1.01172.69141m17.43359-4.10156l-6.77344 1.86719m5.78906-1.59375l.84375.89062m13.51172-.9414l-6.8828 1.42187m5.8789-1.21485l.78515.94532m13.45313.58203l-6.72266-2.04688m5.7461 1.75l.23437 1.20313m13.88672-.45703l-6.38281-2.94531m5.45312 2.51562l.07031 1.22656m14.4922-2.42187l-7.01954.30469m6-.26172l.6211 1.05859"/><g clip-path="url(#ar)"><path fill="none" stroke="#000" stroke-linecap="round" stroke-linejoin="round" stroke-miterlimit="10" stroke-width=".5" d="M145.4414 317.34375l-2.8828 6.41016"/></g><path fill="none" stroke="#000" stroke-linecap="round" stroke-linejoin="round" stroke-miterlimit="10" stroke-width=".5" d="M145.4414 317.34375l2.44923-.16406m-2.8672 1.09765l1.22266-.08203m14.01563.4375l-5.89453 3.82813m5.89453-3.82813l2.14453 1.1914m11.58984-.28124l-6.73047 2.01172m6.73047-2.01172l1.72657 1.74219m11.46875-2.08204l-6.4922 2.69141m6.4922-2.6914l1.89453 1.55859m10.77344-2.57813l-5.19922 4.73047m5.19922-4.73047l2.30859.82813m11.16797-.64063l-5.51953 4.35157m5.51953-4.35157l2.2461.9922m10.45312-1.60157l-4.28907 5.57031m4.28907-5.57031l2.41797.41015m10.24218-.80468l-2.97656 6.36328m2.97656-6.36328l2.44922-.1289m9.8789-.16798l-1.0039 6.95313m1.0039-6.95313l2.3086-.82812m10.47266.79297l.0625 7.02734m-.05469-6.0039l1.07813-.58594m12.58984-.42188l-.66016 6.9961m.5625-5.98047l1.13281-.46875m11.89454-.5625l.10937 7.02734m-.09375-6.0039l1.07422-.59376m11.83203-.40234l.89453 6.96875m-.76172-5.95313l1-.71093m12.19922-.30469l.86328 6.97266m-.73828-5.96094l1.0039-.70313m9.23438 2.22657l6.76563 1.89843m-5.78125-1.62109l-.26172-1.19922m12.48437 2.26563l6.98438-.78516m-6.98438.78516l-1.38671-2.02344m14.67968 1.67187l7.02735-.08593m-7.02735.08593l-1.17968-2.14843m14.5039 2.33203l7.01172-.45313m-7.01172.45313l-1.28906-2.08594m16.16797 4.78906l3.88281-5.85547m-3.3164 5.00391l-1.22266-.11719m13.07812.11719l5.66797-4.15234m-4.84375 3.54687l-1.10547-.53125m17.17578 2.49219l-1.49218-6.86719m10.85937 1.99219l6.40625 2.88672m-5.47656-2.46875l-.07813-1.22266m13.23829-.29297l4.85546 5.07813m-4.85546-5.07813l.76953-2.32812m13.28125 1.78906l3.38281 6.16016m-3.38281-6.16016l1.34375-2.05469m10.77343 7.13281l5.77735-3.99609m-4.9375 3.41406l-1.08985-.5625"/><path fill="#00f" fill-rule="evenodd" d="M383.80078 441.01953h8.61719V430.8711h-8.61719v10.14844"/><path fill="azure" fill-rule="evenodd" d="M385.63281 432.70703h.83203v2.82031h3.28907v-2.8203h.83203v6.47655h-.83203v-2.91406h-3.28907v2.91406h-.83203v-6.47656"/><path fill="#ff3030" fill-rule="evenodd" d="M184.76953 418.82813h7.6914v-10.14844h-7.6914v10.14844"/><path fill="azure" fill-rule="evenodd" d="M186.60156 410.51172h.83203v5.74219h3.19532v.73828h-4.02735v-6.48047"/><path fill="#00f" fill-rule="evenodd" d="M366.04688 401.07422h8.61718v-10.14844h-8.61719v10.14844"/><path fill="azure" fill-rule="evenodd" d="M367.8789 392.76172h.83594v2.82031H372v-2.82031h.83203v6.47656H372v-2.91406h-3.28516v2.91406h-.83593v-6.47656"/><path fill="#00f" fill-rule="evenodd" d="M201.82813 392.19531h8.61718v-10.14453h-8.61719v10.14453"/><path fill="azure" fill-rule="evenodd" d="M203.66016 383.88281h.83203v2.82422h3.28906v-2.82422h.83203v6.48047h-.83203v-2.91406h-3.28906v2.91406h-.83203v-6.48047"/><path fill="#ff3030" fill-rule="evenodd" d="M335.67188 387.75781h7.6953v-10.14453h-7.6953v10.14453"/><path fill="azure" fill-rule="evenodd" d="M337.5039 379.44531h.83594v5.73828h3.19141v.7422h-4.02734v-6.48048"/><path fill="#ffffe0" fill-rule="evenodd" d="M386.1289 412.33984h22.1797v-10.1914h-22.1797v10.1914"/><path fill-rule="evenodd" d="M389.625 403.98047h.51172v6.29297h-.78906v-4.48828h-1.38672v-.5547l.5586-.0664.2539-.05469.23047-.08593.20312-.14453.17188-.20704.14062-.29687.10547-.39453m4.8164 0l.22657.01953.22265.05469.20704.08984.1953.1211.1836.14843.17188.17578.30078.42188.2461.49219.17968.54687.10938.57813.03906.58984-.03906.59375-.10938.58594-.17969.55469-.2461.5-.30077.42968-.17188.17969-.1836.15234-.1953.125-.20704.08985-.22265.0586-.22656.01952-.23047-.01953-.21875-.0586-.20703-.08984-.19922-.125-.1836-.15234-.17187-.17969-.30078-.42969-.24219-.5-.17969-.55468-.11328-.58594-.03515-.59375h.83203l.02734.5664.08203.50391.125.4414.16406.375.19141.30079.21094.22266.22265.13671.22657.04688.22656-.04688.22265-.13671.21094-.22266.1914-.30078.16017-.375.125-.4414.08203-.50391.03125-.56641-.03125-.5586-.08204-.5-.125-.4375-.16015-.36718-.1914-.28906-.21094-.21485-.22266-.13281-.22656-.04297-.22657.04297-.22265.13281-.21094.21485-.1914.28906-.16407.36719-.125.4375-.08203.5-.02734.55859h-.83204l.03516-.58984.11328-.57813.17969-.54687.24219-.4922.30078-.42187.17187-.17578.1836-.14844.19922-.12109.20703-.08984.21875-.05469.23047-.01953m4.95312 0l.22656.01953.21875.05469.21094.08984.19531.1211.1836.14843.17187.17578.30078.42188.2461.49219.17969.54687.10937.57813.03906.58984-.03906.59375-.10938.58594-.17968.55469-.2461.5-.30078.42968-.17187.17969-.1836.15234-.1953.125-.21095.08985-.21875.0586-.22656.01952-.23047-.01953-.21875-.0586-.20703-.08984-.19922-.125-.1836-.15234-.17187-.17969-.30078-.42969-.24219-.5-.17968-.55468-.11328-.58594-.03907-.59375h.83594l.02735.5664.08203.50391.125.4414.16406.375.1914.30079.21094.22266.22266.13671.22656.04688.22656-.04688.22266-.13671.21094-.22266.1875-.30078.16406-.375.125-.4414.08203-.50391.03125-.56641-.03125-.5586-.08203-.5-.125-.4375-.16406-.36718-.1875-.28906-.21094-.21485-.22266-.13281-.22656-.04297-.22656.04297-.22266.13281-.21094.21485-.1914.28906-.16406.36719-.125.4375-.08204.5-.02734.55859h-.83594l.03907-.58984.11328-.57813.17969-.54687.24218-.4922.30078-.42187.17188-.17578.1836-.14844.19921-.12109.20703-.08984.21875-.05469.23047-.01953m4.95313 0l.38671.02734.35547.08203.32422.13672.28125.1875.22656.23828.17579.28516.10937.33203.03516.3789-.01953.27344-.0586.23438-.08594.19922-.11328.17187-.1289.14063-.14063.125-.28515.19531.23046.1211.21094.14453.17969.17187.15625.19531.1211.21094.08984.23047.0586.2461.01952.2539-.03515.3086-.10547.32812-.17188.32422-.23828.30469-.3086.26953-.37109.21484-.21484.08203-.22656.0625-.2461.03516-.2578.01562-.26173-.01562-.24219-.03516-.22265-.0625-.20703-.08203-.35547-.21484-.29297-.26954-.22266-.30468-.15625-.32422-.09375-.32813-.03125-.30859h.83594l.02735.2539.07812.23438.1211.21094.16015.1875.1914.15234.22266.11328.23828.07032.25782.02734.2539-.02734.23828-.07032.22266-.11328.1914-.15234.16016-.1875.1211-.21094.07812-.23437.02735-.25391-.02735-.2539-.07812-.23438-.1211-.21094-.16015-.1875-.19141-.15234-.22266-.11328-.23828-.07032-.2539-.02734-.25782.02734-.23828.07032-.22265.11328-.19141.15234-.16016.1875-.12109.21094-.07813.23437-.02734.25391h-.83594l.01954-.2539.05859-.23829.08984-.22656.125-.20703.15235-.1914.17968-.17188.21094-.15235.23047-.1328-.28516-.19532-.14062-.125-.1289-.14063-.11329-.17187-.08594-.19922-.05859-.23438-.01953-.27343h.78515l.02344.21094.0664.1914.10548.16797.13672.14063.16406.10937.1875.08203.20703.05078.22266.01563.21875-.01563.20703-.05078.1875-.08203.16406-.10938.14063-.14062.10156-.16797.0664-.1914.02344-.21094-.02344-.21485-.0664-.1914-.10156-.16797-.14063-.14063-.16406-.10937-.1875-.08203-.20703-.05078-.21875-.01563-.22266.01563-.20703.05078-.1875.08203-.16406.10937-.13672.14063-.10547.16797-.0664.1914-.02344.21485h-.78516l.03515-.3789.10938-.33204.17578-.28516.22656-.23828.28125-.1875.32422-.13672.35547-.08203.39063-.02734"/><path fill="#ffffe0" fill-rule="evenodd" d="M275.16797 338.28125h22.17969v-10.1914h-22.1797v10.1914"/><path fill-rule="evenodd" d="M278.66797 329.92188h.50781v6.29296h-.78515v-4.48828H277v-.55469l.5625-.0664.25-.05469.23047-.08984.20312-.14063.17579-.21094.14062-.29296.10547-.39454m4.8125 0l.23047.01954.21875.05468.20703.08985.19922.1211.1836.14843.17187.17578.30078.41797.24219.4961.17968.54687.11328.57812.03907.58985-.03907.59375-.11328.58593-.17969.55079-.24218.5039-.30078.42969-.17188.17969-.1836.15234-.19921.1211-.20703.09374-.21875.0547-.23047.02343-.22656-.02344-.21875-.05469-.21094-.09375-.19531-.12109-.1836-.15234-.17187-.1797-.30078-.42968-.2461-.5039-.17969-.55079-.10937-.58593-.03906-.59375h.83203l.03125.5625.08203.5078.125.44142.16406.375.1875.30078.21094.22265.22266.13672.22656.04688.22656-.04688.22266-.13672.21094-.22265.1914-.30079.16406-.375.125-.4414.08204-.50781.02734-.5625-.02735-.5586-.08203-.5039-.125-.4336-.16406-.36719-.1914-.28906-.21094-.21484-.22266-.13281-.22656-.04297-.22656.04297-.22266.1328-.21094.21485-.1875.28906-.16406.3672-.125.43359-.08203.5039-.03125.5586h-.83203l.03906-.58985.10938-.57812.17968-.54688.2461-.4961.30078-.41796.17187-.17578.1836-.14844.1953-.1211.21095-.08984.21875-.05468.22656-.01954m5.09375 0h.50781v6.29297h-.78515v-4.48828h-1.39063v-.55469l.5586-.0664.2539-.05469.23047-.08984.20312-.14063.17188-.21094.14453-.29296.10547-.39454m2.82422 2.17579h.78515l.01954-.31641.05859-.28906.10156-.25.13672-.21485.1836-.17578.22265-.1289.26563-.07813.30859-.02734.23828.01953.22266.0625.20312.10156.17969.13672.14844.17578.11328.20313.07031.23828.02734.26562-.02343.26563-.06641.22656-.10938.1914-.15625.17188-.19921.16016-.2461.16797-.63672.38671-.53515.31641-.4375.3164-.34766.32423-.26172.33593-.1914.35157-.125.36718-.07032.39454-.01953.41796h4.21094v-.73828h-3.33203l.08203-.28515.11328-.23829.14844-.19921.1875-.1797.23047-.17187.28125-.17578.71484-.41797.41797-.20312.34375-.23438.28125-.25.21875-.26562.16406-.27735.11328-.28515.0625-.28516.01954-.28125-.04297-.38281-.1172-.34766-.1914-.30859-.25-.26172-.30078-.21484-.34765-.15625-.37891-.10156-.40625-.03125-.4375.03125-.39844.09765-.35156.16797-.30469.23438-.25.30468-.1836.375-.11718.44531-.03906.51954"/><path fill="#ffffe0" fill-rule="evenodd" d="M150.1211 387.98828h22.17968v-10.1914H150.1211v10.1914"/><path fill-rule="evenodd" d="M153.61719 379.6289h.51172v6.29688h-.78907v-4.49219h-1.38672v-.55468l.5586-.0625.2539-.0547.23047-.08983.20313-.14063.17187-.21094.14063-.29297.10547-.39843m4.8164 0l.23047.01953.21875.05469.20703.08984.19532.1211.18359.15234.17188.17578.30078.41797.24609.49218.17969.54688.10937.57812.03906.59375-.03906.59375-.10937.58204-.17969.55468-.2461.5-.30077.42969-.17188.17969-.1836.15234-.1953.125-.20704.08985-.21875.05859-.23047.01953-.23047-.01953-.21875-.0586-.20703-.08984-.1953-.125-.1875-.15234-.16798-.17969-.30469-.42969-.24218-.5-.17969-.55469-.11328-.58203-.03516-.59375h.83203l.02735.5625.08203.50391.125.44531.16406.375.1914.30078.21095.21875.22265.13672.22656.04688.22657-.04688.22265-.13672.21094-.21875.1914-.30078.16016-.375.125-.44531.08203-.5039.03125-.5625-.03125-.5625-.08203-.5-.125-.4375-.16015-.36329-.19141-.29297-.21094-.21484-.22265-.1289-.22657-.04688-.22656.04687-.22266.12891-.21093.21484-.1914.29297-.16407.36328-.125.4375-.08203.5-.02735.5625h-.83203l.03516-.59375.11328-.57812.17969-.54688.24219-.49218.30468-.41797.16797-.17578.1875-.15235.19531-.1211.20703-.08983.21875-.0547.23047-.01952m5.08985 0h.51172v6.29687h-.78907v-4.49219h-1.38672v-.55468l.5586-.0625.2539-.0547.22657-.08983.20312-.14063.17578-.21094.14063-.29297.10547-.39843m2.82422 2.17578h.78515l.01953-.3164.0625-.28517.09766-.2539.14063-.21485.17968-.17187.22266-.1289.26562-.08204.3086-.02734.23828.02344.22266.0625.20703.10156.17578.13672.15234.17187.10938.20703.07422.23438.02343.26562-.01953.26954-.0664.22265-.10938.1914-.15625.17188-.19922.16406-.25.16407-.63281.39062-.53906.3125-.4375.3164-.34375.32423-.26563.33594-.1914.35156-.125.3711-.06641.39062-.02344.42187h4.21484v-.74219h-3.33203l.08203-.28515.11329-.23438.14843-.20312.1875-.17969.23047-.17188.27735-.17578.71875-.41406.41406-.20703.34766-.23047.27734-.25.22266-.26953.16406-.27734.10937-.28516.0625-.28516.02344-.28125-.04297-.3828-.1211-.34767-.1875-.30859-.25-.26172-.30468-.21094-.34375-.16015-.38281-.09766-.40625-.03515-.4336.03515-.39843.09766-.35547.16797-.30469.23437-.25.30078-.1836.375-.11718.44532-.03906.51953"/><path fill="#ffffe0" fill-rule="evenodd" d="M190.83984 475.83594h22.1797v-10.1914h-22.1797v10.1914"/><path fill-rule="evenodd" d="M194.33984 467.47656h.50782v6.29297h-.78516v-4.48828h-1.39063v-.55469l.5625-.0664.25-.05079.23047-.08984.20313-.14453.17578-.20703.14063-.29688.10546-.39453m4.8125 0l.23047.01953.21875.0547.20703.08983.19532.1211.1875.14844.16797.17578.30468.42187.24219.49219.17969.54688.11328.57812.03516.58984-.03516.59375-.11328.58594-.17969.55469-.24219.5-.30469.42969-.16796.17968-.1875.15235-.19532.125-.20703.08984-.21875.0586-.23047.01953-.23047-.01954-.21875-.05859-.20703-.08984-.1953-.125-.1836-.15235-.17188-.17968-.30078-.4297-.2461-.5-.17968-.55468-.10938-.58594-.03906-.59375h.83203l.03125.56641.08203.5039.125.44141.16016.375.1914.30078.21095.22266.22265.13672.22656.04687.22657-.04687.22265-.13672.21094-.22266.1914-.30078.16016-.375.1289-.4414.08204-.50391.02734-.5664-.02734-.5586-.08203-.5-.1289-.4375-.16016-.36328-.19141-.29297-.21094-.21484-.22265-.13282-.22657-.04296-.22656.04296-.22266.13282-.21093.21484-.1914.29297-.16017.36328-.125.4375-.08203.5-.03125.5586h-.83203l.03906-.58985.10938-.57813.17969-.54687.2461-.49219.30077-.42187.17188-.17578.1836-.14844.1953-.1211.20703-.08984.21875-.05469.23047-.01953m5.09375 0h.50782v6.29297h-.78907v-4.48828h-1.38672v-.55469l.5586-.0664.2539-.05079.23047-.08984.20313-.14453.17187-.20703.14063-.29688.10937-.39453m2.82032 2.17578h.78906l.01953-.3164.0586-.28516.09765-.2539.14063-.21485.18359-.17578.22266-.1289.26562-.07813.3086-.02735.23437.01954.22656.0625.20313.10156.17968.14062.14844.17188.11328.20703.07031.23438.02735.26562-.02344.26953-.0664.22266-.10938.1914-.15625.17188-.19922.16406-.2461.16406-.63671.39063-.53516.3125-.4375.3164-.34765.32422-.26563.33594-.1875.35156-.125.3711-.07031.39062-.01953.41797h4.21094v-.73828h-3.33204l.08203-.28516.11329-.23437.14843-.20313.1875-.17968.23047-.17188.28125-.17578.71485-.41797.41406-.20312.34766-.23047.28125-.2539.21875-.26563.16406-.27735.10937-.28515.0664-.28516.01954-.28125-.04297-.38281-.1211-.34766-.1875-.3086-.25-.26171-.30468-.21485-.34375-.15625-.3789-.09765-.40626-.03516-.4375.03125-.39843.10156-.35547.16407-.30469.23437-.2461.30469-.1875.375-.11327.44531-.04297.51953"/></g></defs><use xlink:href="#as"/></svg>