<svg xmlns="http://www.w3.org/2000/svg" role="img" xmlns:xlink="http://www.w3.org/1999/xlink" viewBox="142.45 309.95 326.84 171.84"><defs><clipPath id="a"><path d="M144 311.67188h1v168.65625h-1zm0 0"/></clipPath><clipPath id="b"><path d="M144 311.67188h324v168.65625H144zm0 0"/></clipPath><clipPath id="c"><path d="M467 311.67188h1v168.65625h-1zm0 0"/></clipPath><clipPath id="d"><path d="M144 479h4v1.32813h-4zm0 0"/></clipPath><clipPath id="e"><path d="M147 479h3v1.32813h-3zm0 0"/></clipPath><clipPath id="f"><path d="M153 479h8v1.32813h-8zm0 0"/></clipPath><clipPath id="g"><path d="M160 479h3v1.32813h-3zm0 0"/></clipPath><clipPath id="h"><path d="M166 479h9v1.32813h-9zm0 0"/></clipPath><clipPath id="i"><path d="M172 479h3v1.32813h-3zm0 0"/></clipPath><clipPath id="j"><path d="M180 479h8v1.32813h-8zm0 0"/></clipPath><clipPath id="k"><path d="M187 479h3v1.32813h-3zm0 0"/></clipPath><clipPath id="l"><path d="M193 479h9v1.32813h-9zm0 0"/></clipPath><clipPath id="m"><path d="M200 479h3v1.32813h-3zm0 0"/></clipPath><clipPath id="n"><path d="M206 479h9v1.32813h-9zm0 0"/></clipPath><clipPath id="o"><path d="M213 479h3v1.32813h-3zm0 0"/></clipPath><clipPath id="p"><path d="M220 479h8v1.32813h-8zm0 0"/></clipPath><clipPath id="q"><path d="M227 480h2v.32813h-2zm0 0"/></clipPath><clipPath id="r"><path d="M233 479h8v1.32813h-8zm0 0"/></clipPath><clipPath id="s"><path d="M240 480h2v.32813h-2zm0 0"/></clipPath><clipPath id="t"><path d="M246 479h9v1.32813h-9zm0 0"/></clipPath><clipPath id="u"><path d="M253 480h2v.32813h-2zm0 0"/></clipPath><clipPath id="v"><path d="M260 479h8v1.32813h-8zm0 0"/></clipPath><clipPath id="w"><path d="M267 480h2v.32813h-2zm0 0"/></clipPath><clipPath id="x"><path d="M273 479h8v1.32813h-8zm0 0"/></clipPath><clipPath id="y"><path d="M280 480h2v.32813h-2zm0 0"/></clipPath><clipPath id="z"><path d="M286 478h8v2.32813h-8zm0 0"/></clipPath><clipPath id="A"><path d="M300 479h8v1.32813h-8zm0 0"/></clipPath><clipPath id="B"><path d="M313 478h8v2.32813h-8zm0 0"/></clipPath><clipPath id="C"><path d="M327 477h7v3.32813h-7zm0 0"/></clipPath><clipPath id="D"><path d="M340 477h7v3.32813h-7zm0 0"/></clipPath><clipPath id="E"><path d="M354 477h6v3.32813h-6zm0 0"/></clipPath><clipPath id="F"><path d="M368 476h5v4.32813h-5zm0 0"/></clipPath><clipPath id="G"><path d="M381 477h5v3.32813h-5zm0 0"/></clipPath><clipPath id="H"><path d="M393 479h8v1.32813h-8zm0 0"/></clipPath><clipPath id="I"><path d="M400 480h2v.32813h-2zm0 0"/></clipPath><clipPath id="J"><path d="M406 479h8v1.32813h-8zm0 0"/></clipPath><clipPath id="K"><path d="M412 480h2v.32813h-2zm0 0"/></clipPath><clipPath id="L"><path d="M420 479h8v1.32813h-8zm0 0"/></clipPath><clipPath id="M"><path d="M425 480h2v.32813h-2zm0 0"/></clipPath><clipPath id="N"><path d="M433 478h8v2.32813h-8zm0 0"/></clipPath><clipPath id="O"><path d="M447 477h7v3.32813h-7zm0 0"/></clipPath><clipPath id="P"><path d="M461 477h5v3.32813h-5zm0 0"/></clipPath><clipPath id="Q"><path d="M144 465h4v4h-4zm0 0"/></clipPath><clipPath id="R"><path d="M144 451h4v5h-4zm0 0"/></clipPath><clipPath id="S"><path d="M144 438h4v4h-4zm0 0"/></clipPath><clipPath id="T"><path d="M144 425h4v4h-4zm0 0"/></clipPath><clipPath id="U"><path d="M144 411h4v5h-4zm0 0"/></clipPath><clipPath id="V"><path d="M144 397h3v6h-3zm0 0"/></clipPath><clipPath id="W"><path d="M466 400h2v4h-2zm0 0"/></clipPath><clipPath id="X"><path d="M144 384h3v6h-3zm0 0"/></clipPath><clipPath id="Y"><path d="M144 370h2v8h-2zm0 0"/></clipPath><clipPath id="Z"><path d="M144 356h1v9h-1zm0 0"/></clipPath><clipPath id="aa"><path d="M144 355h2v3h-2zm0 0"/></clipPath><clipPath id="ab"><path d="M144 357h2v2h-2zm0 0"/></clipPath><clipPath id="ac"><path d="M466 359h2v3h-2zm0 0"/></clipPath><clipPath id="ad"><path d="M144 343h2v8h-2zm0 0"/></clipPath><clipPath id="ae"><path d="M144 341h2v4h-2zm0 0"/></clipPath><clipPath id="af"><path d="M144 343h1v3h-1zm0 0"/></clipPath><clipPath id="ag"><path d="M466 346h2v3h-2zm0 0"/></clipPath><clipPath id="ah"><path d="M144 330h2v8h-2zm0 0"/></clipPath><clipPath id="ai"><path d="M144 318h4v5h-4zm0 0"/></clipPath><g id="aj" clip-path="url(#clip1)"><path fill="#fff" fill-opacity="0" fill-rule="evenodd" d="M0 0h1000v1000H0zm0 0"/><path fill="#d3d3d3" fill-opacity="0" fill-rule="evenodd" d="M162.15234 355.86719l-.23437.29297.0586.23437.11718.17188.17578.23437.29297.34766.11328.0586.11719-.17188.0586-.23438.17577-.17578.46485-.17578h.69922l.23437.29297.28906.8164.0586.17579.17578.23046.35156.23438.69922.69922.17188.17578.23437.34765.23438.41016.28906.58203.41015.46485.23047.23437.23438.17578.11719.23047.17578.29297.17187 1.16406v.23438l.0586.28906.05859.11719.11719.11719.34765.41015.11719.17188.17578.17578.17578.23437.11719.17188.17188.35156.05859.23438.23437.40625.23438-.0586-.17578.17578-.0586.92969h-.58203l-.23437-.11328-.34766.11328-.11719.11719-.05859.29297-.0586.17578-.11718.17187-.46484.29297-.0586.23438-.0586.11328v.64453l.0586.17187v.41016l.0586.0586v.40624l.05859.40625.11719.17579.05859.05859.23047.64062-.0586.29297v.69922l-.05859.58203v.23438l-.0586.23047-.05468.35156v1.92187l.05469.1172h.42578l-.36719.11718-.02344.35156.89063 1.16797 1.74219.53906 1.33984.35938v.53906l.08984.8086.53516.71484 1.51953.26953.89063-.08594.08984 1.16406.53516.1797 1.16015-.1797 2.05469-.98437 1.16016-.36328 1.8789-.17578 1.69531-.1797-.17968.71876-1.51563.08594-1.25.08984-.80469.26953-1.07421.8086.26953.71875.53515.89843-.17968.625-.26563.8086.26563 1.07812.625.89844.80468.17969 1.25-.1797-.26562.72267.09766.5039.05468.29297v.17188l.0586.29296v.40625l.17578.1172.35156.11718h.40625l.29297-.17578.11328-.11719.0586-.11719.11718-.23047.0586-.17578.35156-.46484.23047-.17578.17578-.0586.17578.0586.0586.17578.11718.98828.05469.46875.0586.17188.11718.23437.17578.0586.8164.05859h.28907l.11719.23437.05859.40625.0586.35156v1.10547l.11718.29297.11719.34766.28906.69922.17578.35156.58203.7539.35157.17579.17187.0586.46875.23437.64063.46484.34765.23438.29297.17578.29297.05468.23047.0625.8164.34766.29297.17578.11328.17188.35157.35156.11719.17578.52343.64063v.28906l.0586.35156v.34766l.05859.35156.0586.28906.11718.0586.17188.05859h.17578l.58203.23437.17578.1172.17578.28905.17578.23438.11328.23437.29297.23047.11719.11719v.41016l.0586.05468.28906.23438.23437.11719.0586.11718.11718.17188.0586.11719.23047.23437.05859.17578.23437.0586.1172.05859-.1172.11328-.05859.11719v.11719l-.11719.29296-.11719.28907v.58203l.17579.11719.11718.05859.0586.11719.11719.11719.11328.05859.17578.34765.0586.35157.05858.40625v.17578l-.05859.17578-.11719.69922v.17187l.1172.17579.29296.29296h.40625l.17578.1172.11719.17187.11719.29296v.23438h-.52735l-.23047-.23438h-.23437l-.17578.0586-.0586.69922.0586.34765.11719.17579.17578.41015.11718.23047.28907.46875.17578.05469h.52344l.23437.0586.75781.64062.0586.29296v.23438l.05859.0586.23047.34765v.35156l-.11719.17188v.29297l.29297.28906.29297.17578.17187.0586.29297.17577.29297.1172.58203.40624.28906.23438.29297.17578.21875.16015.01563.01172.23047.17579.64062.52343.17578.23438.1172.17578.17577.17578.11328.17188v.64062l.1172.17578.46874.11719.58203.11719.23438.05859.23047.11328.29297.11719.11328.0586.58593.35156.28907.17187.17578.0625.17578.05469.17578.0586.69922.35155.28906.17579.23438.05468.28906.17578.23437.1172.64063.40624.29297.11719.17187.0586.23438.05859.41015.05859.23047.0586.23438.11718.0586.17188-.41017.17578.46875.0586.0586.29296.11328.23438.17578.05468.23438.0586.17578.05859.40625.11719.64062.23437.11719.17188.0586.23437v.17578l-.0586.1172-.0586.40624.23438.23438.11719.05859.34766.11719.64062.23047.17578.11718.28906.1172.17578.17577.23438.46485.58203 1.10546.17578.17579.34766.17578.17578.11719.35156.11718 1.04688.52344.23437.0586.46485.11327.29297.0586.46484.17578.75781.58203.23438.23438.34765.46484.17578.17578.28907.23438.8164.69921.29297.17579.28906.28906.29297.17578.29297.28906.69531.64063.17578.17578.29297.23437.28907.23438.46875.28906.64062.58203.34766.23438.23437.29297.34766.34765.35156.46485.9336.99218.34765.40625.11719.17579.23437.05859.11328.11719.64454.17578.23047.11328.23437.0586.29297.17577.23047.1172.9336.69921.40624.40625.23438.17578.40625.17578.23437.11719.8164.34766.34766.23437.23438.11719.29297.28906.23047.11719.7578.35156.35157.17188.23047.05859.29297.11719.23437.0586.8711.17577h.8164l.46875.23047.17188.0586.875.69921.46484.1172.29297.05858.17578.0586.23047.0586.46875.05859.34766.05859.35156.0586.40625.05859h.29297l.17187.0586v.23046l.17578.17578h.29297l.34766.0586.35156.05859.69922.11719h.64063l.46484-.23438.29297-.17578.17187-.11719.41016-.17187.28906-.17578.9336-.46485.46875-.29297.52343-.29296.46485-.17188.46484-.17578 1.05078-.46485.28906-.11718.41016-.11719.28906-.11719.52735-.17578 1.51562-.69922.58203-.34765.28907-.0586.29297-.0586.34765-.11718.875-.23047.35156-.11719h.11329l.23437-.05859.875-.23437.23438-.0586h.8125l.35156-.0586.8164-.11718.17188-.0586.35156-.05468.29297-.0586.23047-.05859.8164-.17578.17579-.0586h.34765l.23438-.05859.46484-.11718.75781-.17188.23438-.0586h.34765l.41016-.11718.28906-.0586 1.28516-.05859h.28906l.41016-.0586.23047-.05858h.17578l.875-.1172h.40625l.41015-.11718h.34766l.35156-.11328.8711-.0586h1.75l1.04687.28907.41016.11719.28906.11718.35156.11719.28907.11719 1.05078.17187.28906.0586h.29297l.29297.05859.17187.0586.41016.05859.17187.0586.1172.05858h.11718l.11719.0586.35156.0586h.11328l.41016.0664 1.92187.39453 1.92578.39453 1.51953.44922 1.69532.71875 2.14453.80469 1.60547-.71875 1.42968-.80469 1.16016-1.07813 1.25-.44921 3.03516-.71875 1.875-.35938 2.14453-1.34765 2.23437-1.25391 2.5-1.25781 1.69531-.44922 1.78516-.17969 1.16016-.26953.625.53906 1.33984-.26953.71485-.98828.98437-1.34375.44531-.17969.80469-.35937 1.875-.53907 1.78516-.44921 1.25-.26954 1.16015-.08984 1.69922-.08984 1.96094-.26954 1.25-.08984h.53906l.625-.08984h.89063l2.14453-.17969 2.41015-.17969 2.58985-.08984 1.69531.17969 1.60938.08984 1.42968.35938 1.16016.71875 1.875.98828 1.16015 1.52734.26563.71484.6289.08985.35548.89844.53515.53906.53516 1.52734 1.07422.35938h.53515l-.80469.53515.08985 1.70703.71484 2.69532.89063.80468.89453.98829.71484 1.2578 1.78516.53907 1.51953-.17969.35547 1.34375 1.60937-.80469.98047-.53906.26953.26953.31641-.21484.21875-.14453.80078.44922.44922-.35938h.35547l.53515-.26953.53907-.71875.53515-.26953.625-.98828 1.16016.44922.83984.3711 1.39454.61718 1.6953-.17969h1.60548l1.78515.08985.17969-1.70704.53516-1.34375.80468.26954.4922.84765.40233.40625-.08984.53906v.35938l.71485.44922.71093-.26953h1.42969l.35938.98828.4453 1.25781.71485 1.34375 1.25.6289 1.69531.62891.71485-.17969.17969-.53906.98046-.08984.44922.35937.08594 1.25782-.26563.6289-.53515.17969v.53906l.71484.98438.26563.53906.98437.98828.80078 1.07813-.26562.35937-.08985.89844-.625 2.33203-.35546 2.0664-.08985 1.79298-.17969.71875-.08984.53906v1.4375l-.98047 1.88281-.35937 1.70703-.53516.89844-.80469 1.16797-.26562.53906 2.05469 1.2539.08593.35938-.35546.53906-.08985-.17968v.80859l.08985 1.4375-.44532.71484-1.07422.09375-.26562.71485.53515.89844.8047.71875 1.16015.80859 1.33984.26953.44531.35938-.35546.44921-1.78907-.08984-1.25-.44922-.71484-.71875-.625-.08984-.17578 3.58984-.1875 1.3086h89.35937V311.70313h-55.26953v49.08203l.76172.125 3.28906.54296 2.02344 2.83594v2.7539l2.35156.33204 2.34766.33203h4.05078l-1.3789 4.16016-2.02344.70703-2.02344.70312-.54297.34375-2.59375 1.6172-.1875.11718-2.02344-2.07813-.73046-2.74218-2.67188-2.07813-1.375-3.5-.0664-.08203-1.95704-2.67188 2.75-1.41796v-49.08204H294.42187v91.41407l.1172.03125.1328.01172.07422.07421.10547.04688.08985.0586.08593.05859.08985.0586.29687.29687.0586.08984.03125.11719.02734.11719.01563.13671-.03125.1172-.0586.08983-.0586.08594-.04296.10547-.04688.10156-.02734.1211v.14453l.17578.26953.14844.14844.07422.08594.07422.07421.04296.10547.0625.08985.0586.08593.04297.10547.0586.08985.04687.10156.04296.10547.0586.08594.11719.17968.07421.07422.0625.08594.0586.08984.04297.10547.0586.08985.05858.08593.0625.08985.0586.08984.04297.10156.11719.17969.07421.07422.0586.08594.07422.07421.08984.0586.10547.04687h.14844l.1328-.01562.13282.01562.10156-.04687.07422-.07422.04688-.10156-.01563-.13281v-.14844l-.04687-.10547-.02735-.11719-.04687-.10156-.02735-.1211-.04296-.10156-.0625-.08984-.04297-.10156-.04297-.10547-.03125-.11719-.01563-.13281-.01171-.13672.08593-.0586.0586-.08593.12109-.03125.04297.10547.01562.1328v.1172l.0586.10156.0586.08984.08983.0586.14844.14843.0586.08985.04296.10547-.01171.10156.08593.0586.10547.04687.08594.0586.08984.05858.07422.07422-.11719.02735-.10546.04687-.08594.0586-.07422.07421-.0586.08985-.0625.08594-.02734.12109-.04687.10156-.04297.10547-.03125.11719-.01172.13281-.01563.13281v.14844l.02735.11719.04687.10547.04297.10156.0586.08984.07421.07422.08985.0586.07422.07421.08984.0586.0586.08984.04296.10547.04688.10156.11719.03125.1328.01563h.14845l.11718-.03125.10547.04297.04297.10547.04688.10156.02734.1211L299.5 410l.02734.11719.03125.1211.02735.11718.10547.04297.10156.04687.13281-.01562.14844.14844.0625.08593.07422.07422.07031.07422.08984.0625.10547.04297.10156.04297.1172.03125.13671.01562.11719-.03125.07422-.07422.02734-.11718-.01172-.13282-.03125-.12109-.02734-.11719.04297-.10547h.11719l.08984.0625.11719.02735h.14843l.13282.01562h.14843l.13282.01563.1328-.01563h.14845l.1328-.01562.13282-.01172.13672.01172.11719-.02735.13281-.01562.1914-.0586-.05859.17579-.01562.1328-.02735.1211-.01562.13281-.0586.08594-.1328.01563-.10548.04687-.10546.04297-.1172.03125-.11718.02735-.26563.03125h-.14843l-.13281.01562-.07422.07422.05859.08594.14844.14843.11719.1797.07421.0703.08985.0625.08984.0586.08594.0586.08984.05858.10156.04297.10547.0625.10547.04297.08594.0586.10547.04687.10156.04297.17969.11719.0586.08984-.04298.10156-.04687.10547.01562.13281.22266.22266.0586.08985.04296.10156.03125.1211.04297.10155.01563.13282.03125.11718.01171.13672.03125.11719.14844.14844.10156.04297.10547.04296.1172.03125.1328.01563.13672.01563h.11719l.11719-.03125.08984-.0586.04297-.10547.04688-.10156.04296-.10547.03125-.11719.01172-.1328v-.14845l-.01172-.1328-.01562-.13282-.03125-.11719-.04297-.10547-.04688-.10547-.04296-.10156-.04297-.10547-.01563-.13281.01563-.13281.02734-.11719.03125-.11719.02735-.1211.04687-.10155.08984-.0586.08594-.0625.07422-.07422.08984-.05859.22266-.22266.0586-.08593.07421-.07422.11719-.17969.0586-.08594v-.14844l-.07423-.07421-.10156-.04688-.10547-.04297-.10156-.04297-.0586-.08984-.04687-.10547-.02734-.11719.08984-.05859.11719-.03125.10156-.04297.17969-.11719.14844-.14843.01172-.13282-.01172-.10546-.08985-.0586-.1328.01563h-.14845l-.1328.01562-.13282-.01562-.1211-.03125-.08593-.0586-.07422-.07422-.0586-.08984-.0625-.08594-.11718-.17969-.0586-.08593.03125-.1211.08594-.05859.1211-.03125.05859-.08594v-.1211l-.03125-.11718-.0586-.08984-.05859-.08594-.04687-.10547-.02735-.11719-.01562-.1328.0586-.08985.07421-.07422.08984-.0586.1172-.17968.07421-.07422.0586-.08594.14843-.14844.1211-.03125.1328-.01562.13282.01562.07422.07422.04297.10547.01562.13281-.03125.1172-.11719.03124-.1328.01172-.14844.14844-.04297.10547-.04688.10156-.02734.1211-.03125.11718v.14844l.03125.11719.04297.10546.05859.08985.07422.07031.07422.07422.11719.03125.12109.02734.11719-.02734.1328-.01563h.1172l.08984.0586.07422.07422.04687.10546.0586.08594.10156.04688.13281.01562.10547.04297.08594.0586-.01172.10546-.07422.07422-.17969.11719-.05859.08984-.08984.0586-.07032.07422-.07421.07421-.0625.08985-.02735.11719-.01562.1328.01562.13282-.01562.13281v.14844l.01562.13281.02735.1172.03125.12108.07421.07422.08985.0586.08594.0586.08984.05858.11719.03125v.08594l-.10157.04688-.08984.0586-.26563.03124-.11718.02735h-.14844l-.10547.04296-.10156.04688-.0586.08984-.0625.23438-.01171.13281-.03125.1211-.01563.1328v.29298l-.01172.1328.01172.13673.01563.1328.1328.01563.13282.01172.1211.03125.08593.0586.07422.07421.04688.10547.04296.10157.01563.1328v.44532l-.01563.13281v.44532l.03125.26562.02735.11719.01562.13281.03125.11719.08594.21094.03125.26562v.14844l-.03125.11719-.02734.11718-.03125.1211-.02735.11719-.03125.11718-.03125.1211-.01171.1328-.01563.13282.08984.0586.1172-.03125.10155.01562.04688.10547-.03125.26562v.44141l-.04297.10547-.04688.10547-.04296.10156-.04297.10547-.0586.08594-.03125.12109-.04296.11719-.03125.11719-.01563.1328.01563.13282.05859.08984.10547.04688.08594.0586.05859.08593-.01172.13672-.03125.11719-.04297.10156v.44531l-.01562.13281v.14844l-.03125.11719-.04297.10547-.02735.11719-.04687.10546-.04297.10157-.03125.12109-.02734.11719-.03125.13281-.03125.11719-.02735.11719-.04297.10546-.03125.1172-.03125.12108-.01171.13282-.01563.13281v.29688l.02734.11718v.14844l.04688.39844.02734.11719.0586.08984.12109.03125h.14844l.13281-.01563.0586.08985v.11719l-.0586.08984-.08984.0586-.10157.04296-.10546.04688-.08985.05859-.08594.0586-.13671.01562-.1172-.03125-.1328-.01563-.10157.04688-.0625.08594-.01172.13671-.01562.13282-.03125.11719-.02735.11718-.01562.13281-.03125.1211v.29687l.01563.13282.03125.11718v.14844l.01171.13281v.14844l-.02734.11719-.04688.10156-.02734.1211-.03125.11718-.0586.08985-.07421.07421-.10156.04297-.10547.04688-.11719.02734-.1211.03125-.10156-.04687.0586-.08594.10547-.04688.02734-.11718.03125-.11719.02734-.1211.03125-.11718v-.14844l.01563-.13281-.03125-.11719-.04297-.10547-.10547.01563-.07422.07422-.10156.04296-.08984.0625-.07422.07422-.04297.10157-.01563.1328-.03125.1172L304.25 426l-.03125.11719-.02734.11719-.03125.12109-.02735.11719-.03125.11718-.04297.10547-.08984.0586h-.08984l-.1172-.03125-.03124-.08594.01562-.13672-.03125-.11719v-.14844l-.01171-.1328v-.14844l-.0625-.23438-.02735-.1211-.04297-.10156-.04687-.10546-.0586-.08594-.05859-.08985-.04297-.10546-.0625-.08594-.14844-.14844-.0703-.07422-.10548-.04687-.10547-.04297-.10156-.04297-.29687-.29688-.08985-.07421-.08594-.0586-.10546-.04297-.08985-.0625-.08594-.0586-.10546-.04296-.08985-.0586-.08594-.0625-.07421-.0703-.10547-.04688-.08594-.0586-.10547-.04296-.08984-.0625-.10156-.04297-.10547-.04297-.08594-.0586-.10547-.04687-.10547-.04297-.10156-.04687-.08985-.0586-.10156-.04297-.10547-.04296-.08984-.0625-.11719-.02735-.13281-.01562-.13281.01562H299.75l-.13281.01563-.11719-.03125-.08984-.0586-.07422-.07422-.08985-.05859-.10156-.04688h-.14844l-.12109-.02734-.10156-.04297-.07422-.07422-.11719-.17968-.08984-.0586-.10156-.04297-.08985-.0625-.10547-.04296-.08984-.0586-.08594-.0586-.10547-.04687-.0586-.08594-.05858-.08984-.04297-.10547-.04688-.10156-.07422-.07422-.08594-.0586-.07421-.07421-.08985-.0586-.22265-.22265-.04297-.10547-.03125-.26563.10547-.04296h.14453l.10547.04296.07421.07422.08985.0586.08594.0586.10546.04687.08985.05859.14844.14844.0703.07422.14845.14843.0625.08594.07421.07422.08594.0586.07422.07421.08985.0625.08984.0586.08594.05859.26953.17578.10156.04688.10547.04296.10156.04297.04688-.07421.05859-.08594.07422-.07422.07031-.07422.10547.04297.07422.07422.0586.08984.04296.10156.04688.10547.04296.10547.1211.02735.11719-.02735.07421-.08984.04297-.10547.0586-.08985.07422-.07421.10546-.04297.1172-.02735.1328.01172.08985.0586.14844.14843.05859.08985.04297.10547.04687.10156.04297.10547.04297.10156.10547.04688.10547.04296.13281.01563.08594-.0586.0586-.08984.07421-.07422.10547-.04297.11719.02735.10547.04687.10156.04297.10547.04297.10156.04688.17969.11718v.11719l-.01563.13281.01563.13281.01562.13672.0586.08594.10156.04688.1211.02734.11718.03125h.14844l.11719-.03125.05859-.08984.17969-.1172.05859-.08983.07422-.07422.0586-.08594.11718-.17969.17969-.11719.11719.03125.08984.0586.04297.07422-.01563.1328v.1172l.08985.05859h.14843l.13282-.01563.1328-.01171.26563-.03125.10547-.04297.11719-.03125.1211-.02735.07421-.07421.07031-.07422.0625-.08985-.01562-.10547-.04688-.10156-.10156-.04297-.10547-.01562-.11718.02734-.26563.03125h-.14844l-.07421-.07422-.08985-.0586-.11719-.03124-.11718-.02735-.13282-.01562h-.14843l-.13282.01563h-.29687l-.10547-.04688-.14844-.14844-.04297-.10156-.05859-.08984.22266-.22266.08593-.0586.10547-.04296.11719-.03125.13281-.01563.13281.01563.13672.01562.10157.04297.1328-.01172.08985-.0625.10156-.04297.0625-.08984-.04687-.10156-.08984-.0586-.1172-.03125-.10155-.04296-.0586-.08985-.0625-.08984v-.11719l.01563-.13281.10547-.04688.07421-.07031v-.1211l-.08984-.05859-.03125-.11719.08985-.05859.07421-.07422.04297-.10547.0586-.08984.04687-.10156.01563-.13281v-.14844l-.04688-.10547-.04297-.10156-.08984-.0586-.13281-.01562-.10157-.04297-.13671-.01563-.1172-.03125h-.4453l-.13282-.01562-.13281-.01172-.13281-.01563-.11719-.03125h-.14844l-.13281-.01562-.13281-.01172-.26563-.03125-.1211-.04297-.08593-.0586-.07422-.07421v-.14844l.01172-.13281.10547-.04688.10156-.04296.13281-.01563h.15235l.13281-.01562h.29297l.1211.03125.10156.04296.08984.0586.23438.0625.12109-.04688.08984-.05859.10156-.04297.13282-.01562.10547.04296.10156.04688.13281.01172.1211-.02735h.14453l.12109-.03125.11719-.02734.10547-.04687.07421-.07422.08594-.0586.14844-.14843.0586-.08594.04687-.10547.02734-.11719.01563-.10547-.10156-.04296-.08985-.0586-.11719-.03125-.10546-.04297-.08985-.0625-.07422-.08594-.07422-.07421-.10156-.04297-.10547-.04688-.10156-.04297-.0586-.08984-.04687-.10156-.08594-.21094-.0625-.08594-.05859-.08984-.07422-.07422-.08594-.0586h-.26953l-.11719.03126-.08984.05859-.10156.04297-.13281.01562-.10547-.01562-.02735-.11719-.0625-.08984-.11718-.03125-.10157-.04297-.14843-.14844-.03125-.11719-.01563-.10546.07422-.07422.17969-.1172.11719-.02733.11718-.03125.13672.01562.10156.04297.10547.04297.10156.04687.10547.04297.1172.03125.1328.01563.1172.02734.1328.01563.10547-.01563.08985-.0586-.07422-.07421-.10547-.04297-.07422-.07422-.07422-.08984-.14844-.14844-.08593-.0586-.08985-.05859-.07422-.07422-.08984-.0586-.10156-.04687-.1211-.02734-.10156-.04688-.10547-.04296-.11719-.03125-.10156-.04297-.1211-.03125h-.14843l-.11719.03125-.10546.04297-.08594.0625-.17969.11718-.08594.0586-.08984.0586-.10547.04687-.08594.05859-.10547.04297-.10156.04297-.10547.04687-.07422.07422-.05859.08985-.0586.08593-.04687.10547-.0586.08594-.07421.07422-.13281-.01172-.1172-.03125h-.11718l-.07422.07422-.08984.0586-.07422.07421-.08984.0586-.08594.05859-.10547.04687-.10156.04297-.13672.01563-.10156-.04297-.14844-.14844-.10547-.04688h-.08594l-.10547.04688-.10156.04297-.1211.03125-.11718-.03125-.07422-.07422v-.11719l.03125-.1211.07422-.0703.0586-.08985.07421-.07422.11719-.03125.10547-.04296h.29297l.13281-.01563.13672-.01563.10156-.04296.08985-.0586.10156-.04687.08984-.0586.13281-.01171.08985.05859.13281.01172.08984-.0586.08594-.05859.10547-.04297.08984-.0586.08594-.0625.08985-.05859.14843-.14843.0586-.08594.05859-.08985.10547-.04296.13281-.01563.11719.02735.1211.03125.05859-.0586.05859-.08984.03125-.26563.02734-.11719.10547.01172.13281.01563.10157-.04297.08984-.0586.0586-.08984.07421-.07422.0586-.08984.04687-.10156.01172-.13281-.01172-.13282-.04687-.10547-.14844-.14843-.0586-.08985-.05859-.08594-.04297-.10546v-.44532l.01563-.1328v-.14845l.01172-.1328-.0586-.0586-.08984.0586-.10156-.04298-.17969-.11719-.08594-.05859-.0625-.08984-.0586-.08985-.07421-.07421-.08594-.0586-.1211.03125-.10155.01172-.10547.04688-.08594.05859-.10547.04297-.14844.14844-.08984.05859-.08594.0586-.08984.0625-.10547.04296-.13281.01563v-.1211l.10547-.04297.11718-.03125.07422-.0703.04297-.10548v-.14844l-.02734-.11718-.14844-.14844-.13281-.01563h-.14844l-.11719.03125-.10547.04297-.10156.04297-.08984.0625-.11719.02735-.07422-.07422.01172-.13281-.04297-.10157-.04297-.10547-.08984-.05859-.11719.02734-.1211.03125-.11718.03125-.10156.04297-.1211.03125-.10156.04297-.10547.04297-.08984.0586-.10156.01562v-.11719l.01562-.13281-.0586-.08985-.07421.04297-.14844.14844-.0586.08985-.07421.07421-.04688.10547-.04296.10156-.07422.07422-.0586.08985-.07422.07422-.05859.08593-.07422.07422-.08984.0625-.07422.07031-.07422.07422-.10156.01563-.13281.01562-.10547-.04296v-.1211l.14843-.14844.04297-.10156.0586-.08984.04687-.10156.04297-.10547.0586-.08985.03124-.11719.04297-.10156.03125-.1211.02735-.11718.04687-.10547.04297-.10156.04297-.10547.07422-.07031.08984-.0625.08985-.0586.10156-.04296h.29687l.26563-.03125.10547-.04297-.07422-.07422-.11719-.03125-.10547-.04297-.08984-.0586-.10156-.04687-.08985-.0586-.10156-.04296-.10547-.04297-.08984-.0625-.08594-.0586-.10547-.04296-.10156-.04297-.1211-.03125-.11718-.03125-.10157-.04297L297.5 410.25l-.10156-.04297-.08985-.0586-.04296-.10546-.01563-.13281.10156-.04297.13281-.01563.13672.01563.13282-.01563.10156-.04297.0586-.08984.01562-.10547-.08985-.0586-.07421-.07421-.10157-.04297-.08984-.0586-.14844-.14843-.04297-.10547-.01562-.13281v-.29297l-.0586-.08985-.08984-.05859-.07422-.07422-.04297-.10547-.03125-.11718-.0586-.08985-.07421-.07422-.11719-.02734-.07422-.07422-.08984-.0586-.08984-.0625-.08594-.05859-.07422-.07421-.0586-.08594-.04687-.10547-.08594-.0586-.14843-.14843-.19532-.0586-.1328.01563-.10157.04297-.07422.07422-.04688.10156-.04296.10547-.0586.08984-.0586.08594-.29687.29687-.08984.0586h-.08594l-.0625-.08594-.04297-.10547.03125-.11719.0586-.08984.02734-.11719-.01172-.13281-.08984-.0625-.10547.04688-.11719.02734-.11719.03125-.26953.17578-.10156.04688-.11719.02734-.10546.04687-.08985.0586-.10156.04297-.0586-.08594-.04687-.10547.01563-.13281.04687-.10547.07031-.07422.07422-.07031.0586-.08985v-.14843l-.04297-.10547h-.23829l-.10156.04687-.03125.11719-.02734.11719-.03125.1211-.07422.04296-.13281.01563-.07422-.04688-.04297-.10156-.04297-.10547-.04687-.10156-.04297-.10547-.1211.03125-.10156.04297-.13281.01562-.11719.03125-.10547.04297-.08984.0586-.10156.04687-.1211.02734-.13281.01563-.10156-.04297-.0586-.08985-.04687-.10546-.04297-.10157-.04297-.10546v-.1172l.0586-.08984.08593-.05859.17969-.11719.10156-.04687.10547-.04297.10547-.0586.10156-.04296.08985-.0625.10156-.04297.10547-.0586.10156-.04687.08984-.0586.10547-.04296.10156-.04297.08985-.0625.10156-.04297.13672-.01563.11719.03125.10156.04297.1211.03125.10156.04297.10546.04688.10157.04296.10547.04297.10156.04688.10547.04297.10156.04297.10547.04687.08594.0586.10546.04296.1172.03125.10546.04297.10156.04688.08985.0586.10547.04296.10156.04297.10547.04687.11719.02735.10156.04687.1211.02735h.14843l.08594-.0586.01562-.10156.0586-.08984-.02735-.1172-.07422-.07421-.11719-.17969-.07421-.07422-.08985-.07421-.17969-.1172-.08593-.05859-.10547-.04296-.10156-.04688-.26954-.17578-.05859-.08985-.07422-.07421-.0586-.08985-.04296-.10156-.03125-.11719-.01563-.13672v-.5625l-.01171-.1328-.01563-.13282-.03125-.11719-.01562-.13281-.01172-.13281-.03125-.1211-.22266-.22265-.0586-.08594-.01562-.10547.03125-.11719.13281-.01562v-91.41406H172.9922v1.45312l-.0586.23438-.35156 1.05078-.17187.52343-.1172.34766-.17577.41016-.11719.17187-.23438.29297-.23046.0586h-.35157l-.11718.05859-.23047.40625v.29297l.11719.17578.23046.23047.1172.23437.64062.75781.29297.46485.17578.23437.23047.35156.23437.34766.64063.8164.17578.46485.17187.41016.11719.69531.17578.46875.11719 1.39844.0586.46484v.875l.11718 1.04688v4.78125l-.0586.46484-.35156 1.28125-.17578.52344-.11328.41015-.35156.9297L172.93359 336l-.23437.58203-.11719.17578-.17187.34766-.17578.40625-.35157.8164-.0586.29297-.11327.29297-.11719.28906-.0586.17579-.11718.875-.0586.40625-.05859.11718-.0586.17579-.05859.17187-.23047.52734-.11718.17188v.23437l-.11719.23438-.0586.17187-.17577.58594v.28906l-.0586.17579v.29296l-.0586.11329-.05859.52734v.17187l-.05468.23438v2.6211l-.17578.8164-.1172.17578-.17577.23438-.1172.17187-.11327.23438-.58594.93359-.23047.28906-.29297.46485-.17578.23437-.28906.35156-.35156.69922-.11328.23047-.17579.41016-.17578.23046-.40625.52735-.8164.69922-.29297.17187-.28906.23438-.17579.11719-.17578.17578-.52344.40625-.52734.17578-.17187.17578-.23438.05469-.64062.17578h-.75782m12.21094 31.02344l-1.07422.44921.35938.89454 1.25-.71485.44531-.53906-.98047-.08985"/><path fill="#d3d3d3" fill-opacity="0" fill-rule="evenodd" d="M201.50781 416.59766h-.89453l.44922.6289.98047.35938.80469-.08985.4453-.98828-.17577.08985-.71485-.35547-.89453.35547m154.6211 59.0703l-.0586-.52343v-.29297l.11328-.29297.0586-.23046.46875-.46875h.11328l.11719-.11329.11718-.05859h.17579l.23437-.0586h.34766l.23437.0586.11719.0586.23047.17187.0586.17578.11718.58203v.29297l-.11719.17578-.17187.28906-.17579.17579-.52734.52343-.23047.23438-.11719.0586h-.17578l-.11718-.0586-.40625-.29297-.17579-.11719-.11718-.0586-.0586-.11327-.05468-.1172m6.64062-10.95702l-.0586-.17188v-1.10937l.0586-.17188.17578-.0586.17188-.05858h.17578l.23437-.0586.1172.0586.05858.69921-.05859.17188-.11719.17578-.11718.0586-.23438.52343-.11328.0586h-.23438l-.05859-.1172m9.61328-14.39062l-.11719-.17578v-.69922l.29297-.875.1172-.17187.17577-.35156.11328-.23047.1172-.29297.35155-.75781.1172-.23047.17187-.23438h.17578l.11719-.0586h.64062l.11719.0586.23437.23438.17188.11328.35156.29297.11719.11718.11328.17579v.11328l.11719.05859.11718.11719v.69922l-.05859.17578v.23047l-.0586.17578-.34765 1.05078-.11719.23047-.11719.23437-.11718.0586-.23047.23437-.64063.28906h-.875l-.41015-.11718-.64063-.46485"/><path fill="none" stroke="#bebebe" stroke-linecap="round" stroke-linejoin="round" stroke-miterlimit="10" stroke-width=".5" d="M467.95703 311.69531H144.02734v168.625h323.9297v-168.625"/><g clip-path="url(#a)"><path fill="#fff" fill-opacity="0" fill-rule="evenodd" d="M144 475.89063v4.4375h.0039H144V311.67188h.0039H144v164.21875"/></g><g clip-path="url(#b)"><path fill="#fff" fill-opacity="0" fill-rule="evenodd" d="M144.0039 480.32813V311.67188h35.50391v127.85937l-.86328.85156-2.0664 4.4375-1.51172.71875-4.4375 2.94922-2.5586.77344-1.8789.48047-.39453-.48047-4.04297-2.625-2.90625 2.625-.65235 4.4375 1.1211 4.4375 2.4375 3.79297 1.36718.64453 3.07032 2.0039 3.23828-2.0039 1.19922-1.10938 4.4375.14454 4.4414-.47657 4.4375-1.1836 3.92578-1.8125.15625-4.4375.35547-1.12108 3.6211-3.31641.21093-4.4414-3.83203-1.65235-4.4375-2.77735-.07422-.0078-4.36328-.85157V311.67187h17.7539v144.77344l-4.4414.20703-3.17969 1.48438 3.1797 1.0664 4.4414.61329 2.4375-1.6797-2.4375-1.6914V311.67187h22.1914v144.92579l-3.5703 1.53906 3.5703 2.83594 3.375-2.83594-3.375-1.53906V311.67187h22.19141v120.91407l-3.47656 3.35937-.96094 3.16797-1.17969 1.26953 1.1797 1.74219 3.0625 2.69531 1.375 1.78906 4.3164 2.65235-4.3164 1.15625-4.23048 3.28125-.20703.10547-4.4414.75-4.4375 2.0586-2.65235 1.52343.13672 4.4375 2.51563 1.32031 4.4375 1.0664 4.4414.88282 4.4375-.09766 4.4375.07813 4.4375-1.1289 4.4375-1.23829 1.10547-.88281 3.33594-2.57031 3.82031-1.8672-3.82031-3.20312-.79297-1.23437.79297-2.38672 1.09765-2.05078-1.09765-.57031-.89453-3.8711-3.54688-3.65234-4.4375-.08203-.6211-.70313-.5625-4.4375-3.2539-3.10937-4.4375-.25V311.67188h13.3125v112.54687l-3.02344 2.85156 1.75782 4.4375 1.26562.97266 3.91016-.97266.53125-.11328 2.59765-4.32422-2.59765-2.57031-4.4414-.28125V311.67187h13.3164V457.9961l-1.10938.14063 1.10938.21875.73047-.21875-.73047-.14063V311.67188h17.7539V425.5039l-1.54296 1.5664 1.54296 2.02344 4.4375-.64453 1.26954-1.3789-1.26954-1.27344-4.4375-.29297V311.67187h57.69922v118.8086l-1.35547 1.02734-1.12109 4.4375 2.36719 4.4375.10937.10547 4.4375.80469.8711-.91016-.8711-.8711-3.10937-3.5664-.1914-4.4375-1.13673-1.02734v-118.8086h8.875v106.625l-3.4336 4.33204 2.16017 4.4414 1.27343 1.29297.60547 3.14453.15625 4.4375 3.67969 3.67969 3.36328.75781 1.07422 1.10938 1.07031-1.10938 3.02344-4.4375-.51172-4.4375-.21094-4.4375-3.3711-4.3711-.0703-.0703-4.3672-3.8125-4.4414-.51954v-106.625h31.07031V449.8711l-4.16015 3.82813-.27735.84765-2.67968 3.58985-.21094 4.4375 2.89063 2.96484 2.95312-2.96484-.20313-4.4375 1.6875-.66016 3.77344-3.77734-3.77344-3.82813V311.67188h84.32422v168.65625H144.00391"/></g><path fill="#50fcfc" fill-rule="evenodd" d="M159.3164 458.13672l-1.12109-4.4375.65235-4.4375 2.90625-2.625v3.64453l-1.03907 3.41797 1.03907 2.3789 2.5664-2.3789-2.5664-3.41797v-3.64453l4.04297 2.625.39453.48047 1.8789-.48047 2.5586-.77344 4.4375-2.94922 1.51172-.71875 2.0664-4.4375.86328-.85156 4.36328.85156.07422.00781v2.58985l-4.4375 1.73828-.0586.10156-4.3828 2.08594-2.9336 2.35547-1.21484 4.4375 4.14844 3.48828 4.4414-1.19531 4.4375-.48828 1.4375-1.8047 1.70313-4.4375-.9336-4.4414-2.20703-1.83984v-2.58985l4.4375 2.77735 3.83203 1.65234-.21093 4.4414-3.6211 3.31642-.35547 1.12109-.15625 4.4375-3.92578 1.8125-4.4375 1.1836-4.4414.47656-4.4375-.14454-1.19922 1.10938-3.23828 2.0039-3.07032-2.0039-1.36718-.64453-2.4375-3.79297"/><path fill="#00e8fc" fill-rule="evenodd" d="M161.7539 456.07813l-1.03906-2.37891 1.03907-3.41797 2.5664 3.41797-2.5664 2.3789m13.3125 1.10938l-4.14844-3.48828 1.21484-4.4375 2.9336-2.35547v2.27344l-.09766.08203-1.57031 4.4375 1.66797 1.40234 2.41797-1.40234-2.15625-4.4375-.26172-.08203v-2.27344l4.3828-2.08594.0586-.10156 4.4375-1.73828 2.20703 1.83984.9336 4.4414-1.70313 4.4375-1.4375 1.8047-4.4375.48828-4.4414 1.19531"/><path fill="#00d4fc" fill-rule="evenodd" d="M175.0664 455.10156l-1.66796-1.40234 1.57031-4.4375.09766-.08203.26172.08203 2.15625 4.4375-2.41797 1.40234"/><path fill="#50fcfc" fill-rule="evenodd" d="M192.82031 459.20313l-3.17969-1.06641 3.1797-1.48438 4.4414-.20703 2.4375 1.6914-2.4375 1.6797-4.4414-.61329m26.6328 1.76954l-3.5703-2.83594 3.5703-1.53906 3.375 1.53906-3.375 2.83594m6.35938 1.60156l-.13672-4.4375 2.65234-1.52344 4.4375-2.0586 4.44141-.75.20703-.10546 4.23047-3.28125 4.3164-1.15625-4.3164-2.65235-1.375-1.78906-3.0625-2.69531-1.17969-1.74219 1.1797-1.26953.96093-3.16797 3.47656-3.35937v1.625l-1.79687 1.73437 1.79687 2.11328v1.97657l-1.92578.34765 1.92578 2.32813.39063-2.32813-.39063-.34765v-1.97657l2.6211 2.32422 1.8164 2.67188v10.94922l-4.4375 1.79687-4.4375 1.22656-4.4414.71485-.56641.39453.5664.75781 3.59375 3.67969.84766.41015 2.53125-.41015 1.90625-1.0039 4.4375-3.25.08984-.1836-.08984-4.13281v-10.94922l2.16406 1.76562 1.52735 4.4414.7461 2.58595.77343-2.58594 3.66406-2.27735 1.6875-2.16406-1.6875-1.73437-4.4375.38672-2.72266-3.08985-.62109-4.4375-1.09375-1.04687-4.4375-.6875v-1.625l4.4375.25 3.2539 3.10937.5625 4.4375.6211.70313 4.4375.08203 3.54688 3.65234.89453 3.8711 1.09765.5703-1.09765 2.05079-.79297 2.38672.79297 1.23437 3.82031 3.20313-3.82031 1.86719-3.33594 2.5703-1.10547.88282-4.4375 1.23828-4.4375 1.1289-4.4375-.07812-4.4375.09766-4.4414-.88281-4.4375-1.0664-2.51563-1.32032"/><path fill="#00e8fc" fill-rule="evenodd" d="M232.76563 458.89453l-.56641-.75781.5664-.39453 4.44141-.71485 4.4375-1.22656 4.4375-1.79687.08984 4.1328-.08984.1836-4.4375 3.25-1.90625 1.0039-2.53125.41017-.84766-.41016-3.59375-3.67969"/><path fill="#fff" fill-opacity="0" fill-rule="evenodd" d="M241.64453 440.03516l-1.92578.34765 1.92578 2.32813.39063-2.32813-.39063-.34765"/><path fill="#00e8fc" fill-rule="evenodd" d="M241.64453 438.0586l-1.79687-2.11329 1.79687-1.73437 4.4375.6875 1.09375 1.04687.6211 4.4375 2.72265 3.08985 4.4375-.38672 1.6875 1.73437-1.6875 2.16406-3.66406 2.27735-.77344 2.58594-.7461-2.58594-1.52734-4.4414-2.16406-1.76563-1.8164-2.67188-2.6211-2.32422"/><path fill="#50fcfc" fill-rule="evenodd" d="M253.6914 431.50781l-1.7578-4.4375 3.02343-2.85156v2.48047l-.39062.3711.39062.66796 2.0586-.66797-2.0586-.3711v-2.48046l4.4414.28125 2.59766 2.57031-2.59765 4.32422-.53125.11328-3.91016.97266-1.26562-.97266"/><path fill="#00e8fc" fill-rule="evenodd" d="M254.95703 427.73828l-.39062-.66797.39062-.3711 2.0586.3711-2.0586.66797"/><path fill="#50fcfc" fill-rule="evenodd" d="M268.27344 458.35547l-1.10938-.21875 1.10938-.14063.73047.14063-.73047.21875m17.7539-29.26172l-1.54296-2.02344 1.54296-1.5664 4.4375.29296 1.26954 1.27344-1.26954 1.3789-4.4375.64454m57.58985 11.28906l-2.36719-4.4375 1.1211-4.4375 1.35546-1.02734 1.13672 1.02734.1914 4.4375 3.10938 3.5664.8711.8711-.8711.91016-4.4375-.80469-.10937-.10547m7.71094-13.3125l-2.16016-4.4414 3.4336-4.33204 4.4414.51954v1.73828l-4.4414.07812-1.58204 1.9961 1.58203 2.39062.89453 2.05078.63672 4.4375.3711 4.4375 2.53906 2.53906 4.4375 1.44141 3.57422-3.98047-1.27344-4.4375-.52734-4.4375-1.77344-2.30078-2.0625-2.14062-2.375-2.07422v-1.73828l4.36719 3.8125.0703.0703 3.3711 4.3711.21094 4.4375.51172 4.4375-3.02344 4.4375-1.07031 1.10938-1.07422-1.10938-3.36328-.75781-3.67969-3.67969-.15625-4.4375-.60547-3.14453-1.27344-1.29297"/><path fill="#00e8fc" fill-rule="evenodd" d="M352.60156 425.01953l-1.58203-2.39062 1.58203-1.9961 4.4414-.07812v3.30469l-1.51562 3.21093.14844 4.4375.72656 4.4375.64063.63672 4.4375 2.375 2.70312-3.01172-2.53906-4.4375-.16406-.84375-1.375-3.59375-3.0625-3.21094v-3.30468l2.375 2.07422 2.0625 2.14062 1.77344 2.30078.52734 4.4375 1.27344 4.4375-3.57422 3.98047-4.4375-1.4414-2.53906-2.53907-.3711-4.4375-.63672-4.4375-.89453-2.05078"/><path fill="#00d4fc" fill-rule="evenodd" d="M355.67578 431.50781l-.14844-4.4375 1.51563-3.21094 3.0625 3.21094 1.375 3.59375v2.1914l-3.375 3.08985 3.375 2.04297 1.83594-2.04297-1.83594-3.08984v-2.1914l.16406.84374 2.53906 4.4375-2.70312 3.01172-4.4375-2.375-.64063-.63672-.72656-4.4375"/><path fill="#00c4fc" fill-rule="evenodd" d="M361.48047 437.98828l-3.375-2.04297 3.375-3.08984v1.46484l-1.77735 1.625 1.77735 1.07422.96484-1.07422-.96484-1.625v-1.46484l1.83594 3.08984-1.83594 2.04297"/><path fill="#00b8fc" fill-rule="evenodd" d="M361.48047 437.01953l-1.77735-1.07422 1.77735-1.625v1.46485l-.17578.16015.17578.10547.09375-.10547-.09375-.16015v-1.46485l.96484 1.625-.96484 1.07422"/><path fill="#00a8fc" fill-rule="evenodd" d="M361.48047 436.05078l-.17578-.10547.17578-.16015.09375.16015-.09375.10547"/><path fill="#50fcfc" fill-rule="evenodd" d="M379.23438 465.53906l-2.89063-2.96484.21094-4.4375 2.67969-3.58985.27734-.84765 4.16015-3.82813v1.08204l-2.98046 2.74609-1.45704 4.42187-.01171.01563-.55079 4.4375.5625.57812.57422-.57812-.5625-4.4375 4.42579-1.73047 2.70312-2.70703-2.70313-2.7461v-1.08203l3.77344 3.82813-3.77344 3.77734-1.6875.66016.20313 4.4375-2.95313 2.96484"/><path fill="#00e8fc" fill-rule="evenodd" d="M379.23438 463.15234l-.5625-.57812.55078-4.4375.01171-.01563 1.45704-4.42187 2.98046-2.7461v1.8086l-1.01953.9375 1.01954.92578.92187-.92578-.92188-.9375v-1.8086l2.70313 2.7461-2.70313 2.70703-4.42578 1.73047.5625 4.4375-.57421.57812"/><path fill="#00d4fc" fill-rule="evenodd" d="M383.67188 454.625l-1.01954-.92578 1.01954-.9375.92187.9375-.92188.92578"/><g clip-path="url(#c)"><path fill="#fff" fill-opacity="0" fill-rule="evenodd" d="M467.9961 480.32813H468V311.67188h-.0039H468v168.65625h-.0039"/></g><g clip-path="url(#d)"><path fill="none" stroke="#000" stroke-linecap="round" stroke-linejoin="round" stroke-miterlimit="10" stroke-width=".5" d="M147.34766 479.26563l-6.69532 2.125"/></g><g clip-path="url(#e)"><path fill="none" stroke="#000" stroke-linecap="round" stroke-linejoin="round" stroke-miterlimit="10" stroke-width=".5" d="M147.34766 479.26563l1.7539 1.71484"/></g><g clip-path="url(#f)"><path fill="none" stroke="#000" stroke-linecap="round" stroke-linejoin="round" stroke-miterlimit="10" stroke-width=".5" d="M160.71484 479.4414l-6.80078 1.77344"/></g><g clip-path="url(#g)"><path fill="none" stroke="#000" stroke-linecap="round" stroke-linejoin="round" stroke-miterlimit="10" stroke-width=".5" d="M160.71484 479.4414l1.66016 1.8086"/></g><g clip-path="url(#h)"><path fill="none" stroke="#000" stroke-linecap="round" stroke-linejoin="round" stroke-miterlimit="10" stroke-width=".5" d="M174.10938 479.82813l-6.95704 1.0039"/></g><g clip-path="url(#i)"><path fill="none" stroke="#000" stroke-linecap="round" stroke-linejoin="round" stroke-miterlimit="10" stroke-width=".5" d="M173.09766 479.97266l.72265.99218"/></g><g clip-path="url(#j)"><path fill="none" stroke="#000" stroke-linecap="round" stroke-linejoin="round" stroke-miterlimit="10" stroke-width=".5" d="M187.35156 479.46875l-6.8125 1.71875"/></g><g clip-path="url(#k)"><path fill="none" stroke="#000" stroke-linecap="round" stroke-linejoin="round" stroke-miterlimit="10" stroke-width=".5" d="M187.35156 479.46875L189 481.28906"/></g><g clip-path="url(#l)"><path fill="none" stroke="#000" stroke-linecap="round" stroke-linejoin="round" stroke-miterlimit="10" stroke-width=".5" d="M200.76563 480.08203l-7.01172.49219"/></g><g clip-path="url(#m)"><path fill="none" stroke="#000" stroke-linecap="round" stroke-linejoin="round" stroke-miterlimit="10" stroke-width=".5" d="M200.76563 480.08203l1.30078 2.08203"/></g><g clip-path="url(#n)"><path fill="none" stroke="#000" stroke-linecap="round" stroke-linejoin="round" stroke-miterlimit="10" stroke-width=".5" d="M214.08203 480.10547l-7.01172.44531"/></g><g clip-path="url(#o)"><path fill="none" stroke="#000" stroke-linecap="round" stroke-linejoin="round" stroke-miterlimit="10" stroke-width=".5" d="M214.08203 480.10547l1.28516 2.08984"/></g><g clip-path="url(#p)"><path fill="none" stroke="#000" stroke-linecap="round" stroke-linejoin="round" stroke-miterlimit="10" stroke-width=".5" d="M227.39844 480.50781l-7.01563-.35547"/></g><g clip-path="url(#q)"><path fill="none" stroke="#000" stroke-linecap="round" stroke-linejoin="round" stroke-miterlimit="10" stroke-width=".5" d="M227.39844 480.50781l1.04297 2.22266"/></g><g clip-path="url(#r)"><path fill="none" stroke="#000" stroke-linecap="round" stroke-linejoin="round" stroke-miterlimit="10" stroke-width=".5" d="M240.6914 480.76953l-6.97265-.88281"/></g><g clip-path="url(#s)"><path fill="none" stroke="#000" stroke-linecap="round" stroke-linejoin="round" stroke-miterlimit="10" stroke-width=".5" d="M240.6914 480.76953l.8711 2.29297"/></g><g clip-path="url(#t)"><path fill="none" stroke="#000" stroke-linecap="round" stroke-linejoin="round" stroke-miterlimit="10" stroke-width=".5" d="M253.95313 481.07422l-6.8672-1.48828"/></g><g clip-path="url(#u)"><path fill="none" stroke="#000" stroke-linecap="round" stroke-linejoin="round" stroke-miterlimit="10" stroke-width=".5" d="M253.95313 481.07422l.66796 2.35937"/></g><g clip-path="url(#v)"><path fill="none" stroke="#000" stroke-linecap="round" stroke-linejoin="round" stroke-miterlimit="10" stroke-width=".5" d="M267.29688 480.9375l-6.92188-1.21875"/></g><g clip-path="url(#w)"><path fill="none" stroke="#000" stroke-linecap="round" stroke-linejoin="round" stroke-miterlimit="10" stroke-width=".5" d="M267.29688 480.9375l.7578 2.33203"/></g><g clip-path="url(#x)"><path fill="none" stroke="#000" stroke-linecap="round" stroke-linejoin="round" stroke-miterlimit="10" stroke-width=".5" d="M280.5625 481.16797l-6.82422-1.67969"/></g><g clip-path="url(#y)"><path fill="none" stroke="#000" stroke-linecap="round" stroke-linejoin="round" stroke-miterlimit="10" stroke-width=".5" d="M280.5625 481.16797l.60156 2.3789"/></g><g clip-path="url(#z)"><path fill="none" stroke="#000" stroke-linecap="round" stroke-linejoin="round" stroke-miterlimit="10" stroke-width=".5" d="M293.70313 481.6914l-6.47657-2.72265"/></g><g clip-path="url(#A)"><path fill="none" stroke="#000" stroke-linecap="round" stroke-linejoin="round" stroke-miterlimit="10" stroke-width=".5" d="M307.13281 481.38672l-6.70312-2.11719"/></g><g clip-path="url(#B)"><path fill="none" stroke="#000" stroke-linecap="round" stroke-linejoin="round" stroke-miterlimit="10" stroke-width=".5" d="M320.1289 482.10547l-6.0664-3.55078"/></g><g clip-path="url(#C)"><path fill="none" stroke="#000" stroke-linecap="round" stroke-linejoin="round" stroke-miterlimit="10" stroke-width=".5" d="M333.09766 482.59375l-5.375-4.52734"/></g><g clip-path="url(#D)"><path fill="none" stroke="#000" stroke-linecap="round" stroke-linejoin="round" stroke-miterlimit="10" stroke-width=".5" d="M346.4336 482.5664l-5.41798-4.47656"/></g><g clip-path="url(#E)"><path fill="none" stroke="#000" stroke-linecap="round" stroke-linejoin="round" stroke-miterlimit="10" stroke-width=".5" d="M358.9961 483.2461l-3.91016-5.83594"/></g><g clip-path="url(#F)"><path fill="none" stroke="#000" stroke-linecap="round" stroke-linejoin="round" stroke-miterlimit="10" stroke-width=".5" d="M371.97656 483.44531l-3.23828-6.23437"/></g><g clip-path="url(#G)"><path fill="none" stroke="#000" stroke-linecap="round" stroke-linejoin="round" stroke-miterlimit="10" stroke-width=".5" d="M385.46875 483.34766l-3.59375-6.03907"/></g><g clip-path="url(#H)"><path fill="none" stroke="#000" stroke-linecap="round" stroke-linejoin="round" stroke-miterlimit="10" stroke-width=".5" d="M400.3789 481.23828l-6.78515-1.82031"/></g><g clip-path="url(#I)"><path fill="none" stroke="#000" stroke-linecap="round" stroke-linejoin="round" stroke-miterlimit="10" stroke-width=".5" d="M400.3789 481.23828l.5547 2.39063"/></g><g clip-path="url(#J)"><path fill="none" stroke="#000" stroke-linecap="round" stroke-linejoin="round" stroke-miterlimit="10" stroke-width=".5" d="M413.65234 481.39063l-6.69921-2.125"/></g><g clip-path="url(#K)"><path fill="none" stroke="#000" stroke-linecap="round" stroke-linejoin="round" stroke-miterlimit="10" stroke-width=".5" d="M412.67578 481.08203l.22266 1.20703"/></g><g clip-path="url(#L)"><path fill="none" stroke="#000" stroke-linecap="round" stroke-linejoin="round" stroke-miterlimit="10" stroke-width=".5" d="M426.96875 481.375l-6.70703-2.09375"/></g><g clip-path="url(#M)"><path fill="none" stroke="#000" stroke-linecap="round" stroke-linejoin="round" stroke-miterlimit="10" stroke-width=".5" d="M425.9961 481.07031l.22656 1.20703"/></g><g clip-path="url(#N)"><path fill="none" stroke="#000" stroke-linecap="round" stroke-linejoin="round" stroke-miterlimit="10" stroke-width=".5" d="M440.16016 481.71094l-6.45704-2.76563"/></g><g clip-path="url(#O)"><path fill="none" stroke="#000" stroke-linecap="round" stroke-linejoin="round" stroke-miterlimit="10" stroke-width=".5" d="M453.05078 482.4414l-5.60937-4.22656"/></g><g clip-path="url(#P)"><path fill="none" stroke="#000" stroke-linecap="round" stroke-linejoin="round" stroke-miterlimit="10" stroke-width=".5" d="M465.5586 483.21875l-3.9922-5.78125"/></g><g clip-path="url(#Q)"><path fill="none" stroke="#000" stroke-linecap="round" stroke-linejoin="round" stroke-miterlimit="10" stroke-width=".5" d="M147.15625 465.46875l-6.3125 3.08984"/></g><path fill="none" stroke="#000" stroke-linecap="round" stroke-linejoin="round" stroke-miterlimit="10" stroke-width=".5" d="M147.15625 465.46875l1.98828 1.4414m11.28125-1.52734l-6.22266 3.26172m6.22266-3.26172l2.02734 1.38672m11.33985-1.28515l-6.32813 3.05859m5.41016-2.61328l.98828.72656m13.4414-.66797l-6.71874 2.05078m6.71875-2.05078l1.73437 1.73438m11.69922-1.21485l-6.95312 1.01172m6.95312-1.01172l1.44922 1.97656m11.875-1.91406l-6.97266.88672m5.95703-.75781l.70704 1.0039m13.64453-.51171l-7.01563-.35547m5.9961.30468l.51953 1.11329m13.78125-.72657L233.73047 466.5m5.9375.8789l.41406 1.15626m13.78516-.44922l-6.6914-2.14063m6.6914 2.14063l.4375 2.41406m12.98047-2.8164l-6.89844-1.33985m6.89844 1.33984l.71875 2.34766m12.55468-2.16797l-6.8164-1.69922m6.8164 1.69922l.59375 2.3789m12.66016-2.16015l-6.69531-2.13672m5.72265 1.82813l.21875 1.20703m13.81641-.30078l-6.1875-3.33203m5.28516 2.84765l-.00391 1.22657m13.89063-.23829l-5.52735-4.33984m5.52735 4.33984l-.4297 2.41407m13.91016-2.64453l-5.85937-3.87891m5.00781 3.3125l-.11719 1.22266m14.08204-.37891L341 464.79687m4.66016 3.78907l-.23828 1.20312m13.64062.09766l-4.04297-5.7461m3.45313 4.91016l-.5547 1.09375m12.85157.35938l-.82812-6.98047m.70703 5.96484l-1.00781.69922m15.55468-.00781l-3.04687-6.33203m2.60156 5.41015l-.72656.98828m14.85547-.27343l-3.78516-5.91797m3.78516 5.91797l-1.20313 2.13672m15.36719-2.89844l-5.48438-4.39453m5.48438 4.39453l-.45313 2.41015m14.0547-2.82812l-6.0586-3.5586m6.0586 3.5586l-.10157 2.45312m-.77734-2.97265l-.0547 1.22656m14.67188-1.82031l-6.90234-1.33203m6.90234 1.33203l.71875 2.34765m12.60547-2.40234l-6.92187-1.22266m6.92187 1.22266l.75781 2.33203m11.71485-.60156l-5.23438-4.6836m5.23438 4.6836l-.58594 2.38281"/><g clip-path="url(#R)"><path fill="none" stroke="#000" stroke-linecap="round" stroke-linejoin="round" stroke-miterlimit="10" stroke-width=".5" d="M147.14453 452.1289l-6.28906 3.13673"/></g><path fill="none" stroke="#000" stroke-linecap="round" stroke-linejoin="round" stroke-miterlimit="10" stroke-width=".5" d="M147.14453 452.1289l1.9961 1.42579m11.0039-1.9375l-5.66016 4.16406m4.83594-3.5586l1.10547.53126m13.1211-1.01172l-5.83594 3.91406m4.98828-3.34375l1.08203.57813m13.46875-.37891l-6.60938 2.375m5.64844-2.03125l.91016.82422m13.4961-.71485l-6.8711 1.46485m6.8711-1.46485l1.57812 1.87891m11.77734-1.65625l-6.95312 1.01953m6.95312-1.01953l1.45703 1.97656m11.89453-1.40625l-7.02343-.11718m7.02343.11718l1.1172 2.1836m12.1875-1.9297l-7-.625m5.98046.53126l.47656 1.13281m13.48047.2539l-6.25-3.21093m5.33984 2.74219l.01954 1.22656m13.96484-.35547l-5.76563-4.01562m5.76563 4.01562l-.29297 2.4375m14.17969-3.8125l-6.91016-1.26953m6.91016 1.26953l.74219 2.33985m12.48828-1.98047l-6.74219-1.98828m6.74219 1.98828l.49219 2.40625m12.61328-1.86328l-6.32032-3.07032m5.40235 2.625l.04297 1.22266m14.21484-.82813l-6.3711-2.96875m5.44532 2.53516l.0625 1.22656m13.73437-.08203l-5.48437-4.39062m4.6875 3.7539l-.22656 1.20313m14.83593-1.39453l-6.47656-2.73438m5.53125 2.33594l.10938 1.22266m13.45312.23437L354.5 451.27344m4.34375 4.14453l-.33203 1.1836m12.9336.4375l-2.17579-6.6797m1.85938 5.70704l-.85157.8828m10.65625-1.05077l5.47657-4.39844m-4.6797 3.75781l-1.1289-.48437m14.61719 1.96094l3.53516-6.07032m-3.01953 5.1875l-1.22657-.04687m15.89844 1.40625l-.21094-7.02344m.21094 7.02344l-2.13281 1.21484m16.66797-1.47265l-2.64844-6.50782m2.64844 6.50781l-1.57032 1.88282m16.53125-3.26172l-5.9414-3.75m5.9414 3.75l-.17968 2.44531m13.8789-3.27734l-6.71093-2.08594m6.71093 2.08594l.45703 2.41015m12.19922-1.19922l-5.39062-4.5078m5.39062 4.5078l-.50781 2.40235"/><g clip-path="url(#S)"><path fill="none" stroke="#000" stroke-linecap="round" stroke-linejoin="round" stroke-miterlimit="10" stroke-width=".5" d="M147.2539 439.05469l-6.5078 2.65625"/></g><path fill="none" stroke="#000" stroke-linecap="round" stroke-linejoin="round" stroke-miterlimit="10" stroke-width=".5" d="M147.2539 439.05469l1.88282 1.57031m-2.83203-1.1836l.94531.78516m13.39453-.96484l-6.66016 2.24219m6.66016-2.2422l1.78516 1.6875m-2.7539-1.35937l.89062.84375m13.4375-1.03906l-6.7461 1.97656m6.7461-1.97656l1.71093 1.75781m-2.6953-1.46875l.85937.87891m13.5664-.48828l-7 .61719m7-.6172l1.33985 2.0547m-2.35938-1.96485l.67188 1.02735m13.67187-.66407l-7.01953-.28906m7.01953.28906l1.0625 2.21485m12.2539-2.51953l-7.01952.3203m5.99609-.27343l.625 1.05469m13.50781.25781l-6.60937-2.39453m5.64844 2.04297l.17187 1.21484m14.20703-1.20312l-6.8164-1.71485m5.82421 1.46485l.29297 1.1914m14.10938-1.53515l-7.00781-.53125m5.98828.45703l.49218 1.1211m13.00782.97265l-5.33594-4.57031m4.5586 3.90625l-.26563 1.19921m14.5-.71093l-5.6211-4.21485m5.6211 4.21485l-.3789 2.42187m13.77343-2.53125l-5.78125-3.9961m4.9414 3.41407l-.14453 1.21875m14.66016-1.30469l-6.5039-2.66406m5.55859 2.27734l.1211 1.21875m14.14843-.84765l-6.51953-2.6289m5.57031 2.24609l.1289 1.21875m14.23048-3.19532l-6.71094 2.08594m5.73437-1.78125l.8711.86328m13.34375-1.39453l-6.5547 2.53906m5.60157-2.16797l.92578.80079m10.10547 3.61328L357 436.87109m14.21094 6.92188l-1.71094-6.8164m1.46094 5.82421l-.91016.82031m12.71875.15625l1.80469-6.78906m10.28125 6.1875l4.26172-5.58594m-3.64453 4.77344l-1.20703-.19922m17.52343 1.40235l-2.97265-6.3672m2.97265 6.3672l-1.47656 1.96093m1.04297-2.88672l-.73828.98047m12.45312.23438l1.09375-6.9414m-1.09375 6.9414l-2.32031.80078m2.48047-1.8125l-1.16016.40234m15.6211.56641l-1.51953-6.85938m1.29687 5.86329l-.9336.79687m15.85548-.44922l-4.28907-5.5625m3.66797 4.7539l-.50781 1.1172m15.20703-1.11329l-5.8125-3.94921m4.96484 3.37109l-.1289 1.22266"/><g clip-path="url(#T)"><path fill="none" stroke="#000" stroke-linecap="round" stroke-linejoin="round" stroke-miterlimit="10" stroke-width=".5" d="M147.20703 425.63281l-6.41406 2.8711"/></g><path fill="none" stroke="#000" stroke-linecap="round" stroke-linejoin="round" stroke-miterlimit="10" stroke-width=".5" d="M147.20703 425.63281l1.9375 1.5039m-2.8711-1.08593l1.9375 1.5039m12.50782-1.36327l-6.80469 1.7539m6.80469-1.7539L162.375 428m-2.64844-1.55469l.82813.90625m13.54687-.8125l-6.94531 1.0586m6.94531-1.0586l1.46875 1.96485m-2.47656-1.8125l.73047.98437m13.5625-1.3086l-6.88281 1.40235m6.8828-1.40234l1.5625 1.89453m11.8125-1.46094l-7.0039.53516m5.98438-.45703l.66015 1.03515M213.5 429.01562l-5.85156-3.89453m5 3.32813l-.1211 1.21875m13.91797-.1875l-5.10937-4.82422m4.36719 4.1211l-.32422 1.18359m14.13672-.2461l-4.6211-5.29297m18.11328 5.12891l-4.97656-4.96484m4.2539 4.24219L251.92579 430m13.22656.32422l-2.6328-6.51172m2.25 5.5664l-.78907.9375m15.52344-.63671l-4.70704-5.22266m4.02344 4.46094l-.42187 1.15234m13.98047-.05468l-3.82813-5.89454m3.27344 5.03516l-.59766 1.07422m13.54688.20703l-1.98438-6.73828m1.69532 5.75781l-.875.85938m16.0625-.85938l-5.15235-4.77734m4.40235 4.08203l-.3125 1.1875m15.20312-2l-6.80469-1.76172m5.8164 1.5039l.28517 1.19532m13.48828-3.84375l-5.7422 4.05078m4.90626-3.46094l1.09375.55078m13.58594 1.76954l-6.80078-1.76954m15.30078 4.10157l2.82812-6.4336m-2.41406 5.4961l-1.22656.09375M386 429.6992l-4.66016-5.26171m3.98438 4.4961l-.42969 1.14843m12.97266.38672l-1.76172-6.80078m1.5039 5.8125l-.90234.82812m12.79688.1797l1.59765-6.83985m-1.59765 6.83984l-2.3711.63281m2.60157-1.625l-1.1836.3125m13.5.40625l3.13281-6.29296m-3.1328 6.29296l-2.45313.06641m2.91015-.98438l-2.45312.06641m15.35156.8711l3.05078-6.33204m-2.60937 5.41016l-1.22266.04688m17.77344.48828l-4.30078-5.5586m3.67187 4.75l-.5039 1.11719m14.36718-.25l-4.14062-5.67578m3.53906 4.85156l-.53516 1.10156"/><g clip-path="url(#U)"><path fill="none" stroke="#000" stroke-linecap="round" stroke-linejoin="round" stroke-miterlimit="10" stroke-width=".5" d="M146.96094 411.86328l-5.92188 3.77735"/></g><path fill="none" stroke="#000" stroke-linecap="round" stroke-linejoin="round" stroke-miterlimit="10" stroke-width=".5" d="M146.96094 411.86328l2.13672 1.21094m-2.9961-.66016l2.13672 1.20703m11.92969-1.91796l-5.70703 4.09765m5.70703-4.09765l2.19922 1.08984m-3.02735-.49219l1.09766.54297m13.07031-1.10547l-5.75781 4.03125m5.75781-4.03125l2.1875 1.11719m10.72656-1.59375l-4.95312 4.98437m4.23047-4.26171l1.17578.35546m13.2539-.61718l-5.73437 4.0625m4.89844-3.47266l1.09766.55469m11.8203-2.22266l-3.27343 6.21875m12.17969-5.26562l5.54687 4.3125m-4.74219-3.6836l.21094-1.21093m12.53125.3125l5.08203 4.85156m-4.34375-4.14844l.33203-1.17969m14.8672 6.41407l-.16407-7.02344m10.78516 5.85937l5.22656-4.69531m8.38672 4.99219l4.6289-5.28906m-3.95703 4.51953l-1.1914-.28125m19.66015-1.70703l-7.02343.22656m13.39453.63672l6.86718-1.5m6.73047-.8086l6.30078 3.11719m6.71875-2.23437l6.89454 1.35156m-5.89454-1.15625l-.35546-1.17578m16.11718-1.85938v7.02735m0-6.00391l1.08203-.57422m14.3047.23047l-4.14454 5.67187m3.54297-4.84765l1.21484.17578m7.11719 1.73437l7.02344.20313m-6-.17578l-.54688-1.09766m12.84375.96485l7.01563.41406m-7.01563-.41406l-1.02343-2.23438m14.36328 2.89453l6.96484-.90625m-6.96484.90625l-1.42188-2m20.82031 3.90625l-5.20312-4.71875m4.44531 4.03125l-.30078 1.1914m12.01953.64063l-.49219-7.00781m.4922 7.00781l-2.08204 1.30078M437.5 417.22266l-1.13672-6.9375m.96875 5.92578l-.97656.7461m16.66406-1.04688l-5.54687-4.3125m4.74218 3.68359l-.21093 1.21094m10.89062.71094l1.33594-6.89844m-1.14453 5.89453l-1.17188.35937"/><g clip-path="url(#V)"><path fill="none" stroke="#000" stroke-linecap="round" stroke-linejoin="round" stroke-miterlimit="10" stroke-width=".5" d="M146.70703 398.19922l-5.41406 4.47656"/></g><path fill="none" stroke="#000" stroke-linecap="round" stroke-linejoin="round" stroke-miterlimit="10" stroke-width=".5" d="M146.70703 398.19922l2.26953.9375m-3.05469-.28516l2.26563.9375m-3.05469-.28515l1.13281.46875m12.92579-2.50391l-3.75391 5.9375m3.7539-5.9375l2.44923.1836m-2.9922.67968l2.44532.1836m-2.99219.67968l1.22266.09375m13.53906-1.5625l-4.46875 5.42578m4.46875-5.42578l2.40625.48828m-3.05469.30079l2.40235.48828m11.51172-1.31641l-4.3672 5.5039m4.3672-5.5039l2.41406.44531m-3.04688.35547l1.20313.22266m12.01562-1.46875l-2.91015 6.39453m2.91015-6.39453l2.44922-.15235m-2.8711 1.08204l1.22267-.07813m8.39062.0586l5.33594 4.57421m-4.5586-3.91015l.26953-1.19532m16.63282-.2578l-3.39063 6.15233m2.89844-5.2578l1.22656.01952m13.57031-.10546l-5.36718 4.53515m5.36719-4.53515l2.27734.91015m-3.0586-.25l1.13672.45313m12.84375-1.2461l-5.13672 4.79688m5.13672-4.79688l2.32032.80078m-3.07032-.10156l1.16016.39844m12.59375-1.39063l-4.51563 5.38282m3.85938-4.59766l1.19922.2539m8.39844-1.15234l4.23046 5.60938m-3.61718-4.79297l.51953-1.11328m11.14453 1.55078l6.30469 3.10156m-5.38672-2.64844l-.03906-1.22656m14.05859-.83594l3.0625 6.32422m-2.61719-5.40625l.72266-.98828m10.21875 2.625l6.92187 1.21094m-5.91796-1.03516l-.37891-1.16406m16.80078-1.85938l-1.30469 6.90625m1.30469-6.90625l2.34375-.72656m10.02734.67969l.58594 7.0039m-.5-5.98437l1.03125-.66406m9.01563 2.63281l6.94921 1.02735m-5.9375-.87891l-.41406-1.15625m12.6875 1.2461l7.00781.54687m-5.98828-.46485l-.48828-1.125m19.69922 2.16797l-6.82031-1.69922m5.82812 1.44922l.29688 1.1914m13.82812-3.17968l-6.45703 2.77344m6.45703-2.77344l1.91407 1.53516m11.65234-.6211l-6.96094.94532m6.96094-.94532l1.4336 1.9922m-2.44532-1.85548l.71875.9961m12.98438 1.38671l-5.71094-4.09375m5.71094 4.09375l-.32422 2.4336m-.50781-3.02735l-.16016 1.21485m14.20703-.48438l-5.51172-4.36328m5.51172 4.36328l-.4414 2.41016m-.36329-3.04688l-.21875 1.20704m14.88672-1.5586l-6.60937-2.38672m6.60937 2.38672l.34766 2.42578m13.16797-3.3789l-7.01172-.48438"/><g clip-path="url(#W)"><path fill="none" stroke="#000" stroke-linecap="round" stroke-linejoin="round" stroke-miterlimit="10" stroke-width=".5" d="M467.0664 400.67969l1 2.24219"/></g><g clip-path="url(#X)"><path fill="none" stroke="#000" stroke-linecap="round" stroke-linejoin="round" stroke-miterlimit="10" stroke-width=".5" d="M146.69922 384.875l-5.39844 4.4961"/></g><path fill="none" stroke="#000" stroke-linecap="round" stroke-linejoin="round" stroke-miterlimit="10" stroke-width=".5" d="M146.69922 384.875l2.27344.92969m-3.0586-.27344l1.13672.46094m12.63281-1.46485l-4.73828 5.19141m4.73828-5.1914l2.37891.61327m-3.0664.14454l2.375.60937m11.73437-1.26562l-4.95313 4.98828m4.95313-4.98828l2.34766.71093m-3.06641.01563l2.34766.71094m-3.07032.01562l1.17578.35547m13.55078-1.83594L181.5 389.64453m4.89063-5.04297l2.35937.6836m-3.07031.05078l2.35547.67969m11.30078-1.72657l-4.15235 5.66797m4.15235-5.66797l2.42969.34766m-3.03516.47656l2.42969.35156m11.77343-.9453l-4.71875 5.20702m4.71875-5.20703l2.37891.60156m-3.0625.15625l2.3789.60157m-3.0664.15625l1.1875.30078m13.71484-1.60547l-5.14843 4.78515m5.14843-4.78515l2.31641.80078m-3.0664-.10547l2.3203.80469m11.84766-1.38281l-5.35547 4.55078m5.35547-4.55078l2.28125.90625m10.45313-1.44922l-4.1914 5.63672m4.1914-5.63672l2.42578.36719m-3.03516.45312l1.21094.1836m13.09766-.67579l-4.96094 4.98047m4.96094-4.98047l2.34765.71485m-3.07031.01171l2.34766.71094m12.05468-1.0039l-5.6914 4.11718m5.6914-4.11718l2.20313 1.07812m-3.03125-.48047l1.10156.53906m13.46485-.375l-6.53516 2.58985m6.53516-2.58985l1.86718 1.59375m-2.82031-1.21484l1.8711 1.58985m12.23828-2.3086l-6.21875 3.26953m6.21875-3.26953l2.02734 1.38281m-2.9336-.90625l2.02735 1.38282m12.52344-.94532l-6.87891 1.44141m6.8789-1.4414l1.57032 1.88671m-2.57031-1.67578l.78515.9414m12.875-2.57421l-5.5664 4.28515m5.5664-4.28515l2.23438 1.01172m11.72656.36719l-6.85937 1.52734m6.85937-1.52735l1.59375 1.86329m11.75781-1.66016l-6.9336 1.1211m6.9336-1.1211l1.48438 1.95313M359.5 386.72656l.74219.97656m13.60937-.23828l-6.99218-.68359m6.99218.6836l.9375 2.26952m-1.95312-2.36718l.46875 1.13281m13.86328-1.73047l-6.99219.71094m6.99219-.71094l1.36328 2.03516m-2.38281-1.9336l1.36719 2.03907m12.85156-2.75l-6.76172 1.92578m6.76172-1.92578l1.69922 1.76953m-2.6836-1.48828l1.69922 1.76562m12.65235-1.82812l-6.8672 1.48828m6.8672-1.48828l1.58593 1.875m-2.58593-1.66016l1.58593 1.875m12.80469-1.13672l-7.01562-.41797m7.01562.41797l1.01953 2.23438m-2.04297-2.29297l1.02344 2.23047m13.24219-1.64454l-6.8711-1.47265m6.8711 1.47265l.67187 2.35938m-1.67187-2.57422l.33594 1.17969m14.05468-1.58985l-7.02343-.22265m7.02343.22265l1.08203 2.20313m-2.10156-2.23438l.53906 1.10157m13.66797-.23438l-6.76562-1.89062m6.76562 1.89062l.52735 2.39453m-1.51172-2.67187l.52734 2.39844m-1.51172-2.67188l.26172 1.19922"/><g clip-path="url(#Y)"><path fill="none" stroke="#000" stroke-linecap="round" stroke-linejoin="round" stroke-miterlimit="10" stroke-width=".5" d="M145.51172 370.63672l-3.02344 6.34375"/></g><path fill="none" stroke="#000" stroke-linecap="round" stroke-linejoin="round" stroke-miterlimit="10" stroke-width=".5" d="M145.51172 370.63672l2.44922-.10938m10.02344-.16796l-1.33985 6.89843m1.33984-6.89844l2.34766-.71875m-2.54297 1.72266l1.17188-.35937m13.13672-.38672L169.16406 377m2.9336-6.38281l2.44922-.14453m-2.875 1.0703l1.22265-.0703m12.72266-.75391l-3.34766 6.17969m3.34766-6.17969l2.45703.01953m-2.9414.8789l1.22655.01173m12.26563-1.0586l-2.73047 6.47656m2.73047-6.47656l2.44531-.21875m11.48828.55469l-3.96484 5.80469m3.96484-5.80469l2.4375.26953m11.35938.1289l-4.92969 5.00782m4.92969-5.00781l2.35156.69531m-3.07031.03125l1.17578.35156m12.53906-1.35937l-4.28906 5.5664m4.28906-5.5664l2.41797.41015m9.98047-.91796l-2.45703 6.58593m2.45703-6.58594l2.42969-.3203m11.2461.48046l-3.1797 6.26563m3.1797-6.26563l2.45312-.04687m11.33203.33203l-4.1211 5.69531m4.1211-5.69531l2.42969.33594m11.89453.80078l-6.14063 3.41796m6.14063-3.41796l2.0625 1.33593m11.03515-1.67578l-5.70703 4.10156m5.70703-4.10156l2.20313 1.08985m-3.03125-.4922l1.09765.54298M319.5 371.24609l-4.80469 5.125m4.80469-5.125l2.36719.64063m-3.0664.10547l1.18359.32031m13.13671-.73828l-5.42187 4.46875m5.42187-4.46875l2.26954.9414m-3.0586-.29296l1.13672.47265m13.64063.16797l-6.76563 1.89063m6.76563-1.89063l1.6914 1.77735M360.5 373.19921l-6.91797 1.21875m6.91797-1.21875l1.51172 1.9336m-2.51563-1.75391l.75391.96484m13.53125-1.3164l-6.85156 1.5625m6.85156-1.5625l1.60547 1.85546m-2.60156-1.6289l.80078.92968m13.49219-1.22656l-6.81641 1.70313m6.8164-1.70313l1.64454 1.82031m-2.63282-1.57421l.82032.91406m13.5664-.71485l-6.98047.8125m6.98047-.8125l1.39453 2.01954m-2.41015-1.90235l.69531 1.01172m13.65625-.8086l-7.02344.17188m7.02344-.17187l1.20703 2.14062m-2.22656-2.11328l1.20312 2.13672m13.12891-1.85938l-7.01562-.4375m7.01562.4375l1.01172 2.23438m-2.03516-2.29688l1.01563 2.23438m13.32422-2.5664l-7.01953.35156m7.01953-.35157l1.2578 2.10938m-2.28124-2.0586l.6289 1.0547m13.70313-1.19142l-7.00781.52344m7.00781-.52344l1.3086 2.07422m-2.32813-2l.65625 1.03907m13.5586.08984l-6.76954-1.88281m6.76953 1.88281l.53125 2.39453m-1.51562-2.66797l.53125 2.39453"/><g clip-path="url(#Z)"><path fill="none" stroke="#000" stroke-linecap="round" stroke-linejoin="round" stroke-miterlimit="10" stroke-width=".5" d="M143.6836 356.99219l.6328 7"/></g><g clip-path="url(#aa)"><path fill="none" stroke="#000" stroke-linecap="round" stroke-linejoin="round" stroke-miterlimit="10" stroke-width=".5" d="M143.6836 356.99219l2.05468-1.33985"/></g><g clip-path="url(#ab)"><path fill="none" stroke="#000" stroke-linecap="round" stroke-linejoin="round" stroke-miterlimit="10" stroke-width=".5" d="M143.77734 358.01172l1.02735-.67188"/></g><path fill="none" stroke="#000" stroke-linecap="round" stroke-linejoin="round" stroke-miterlimit="10" stroke-width=".5" d="M156.08594 357.20313l2.45703 6.58203m-2.45703-6.58204l1.6289-1.83984m-1.26953 2.79688l.8125-.91797m11.77344.1211l3.19922 6.2578m-3.19922-6.2578l1.40234-2.01173m-.9375 2.92188l.70313-1.0039m12.17578.08202l3.14063 6.28516m-3.14063-6.28516l1.42188-2m11.55859 2.1875l3.8086 5.90625m-3.8086-5.90625l1.19531-2.14062m-.64062 3l.59765-1.07031m12.27344.14453l3.58984 6.03906m-3.58984-6.03906l1.27344-2.09766m12.17969 2.01953l3.3125 6.19922m-3.3125-6.19922l1.37109-2.03906m12.91797 1.6914l1.36328 6.89454m-1.36328-6.89454l1.90234-1.55078m11.8125 1.4961l.5625 7.0039m-.48047-5.98437l1.03516-.66406m10.92578-.00391l3.10938 6.30078m-3.10938-6.30078l1.4336-1.99219m11.88671 1.98828l3.09766 6.3086m-3.09766-6.3086l1.4375-1.98828m11.10547 2.5039l4.64063 5.27735m-3.96485-4.51172l.4336-1.14843m15.58593-.33204l-2.11718 6.70313m1.80859-5.72656l1.20703-.22266m13.14063-.42969l-3.56641 6.0547m3.5664-6.0547l2.44922.10547m10.52344-.28125l-2.88281 6.40625m2.88281-6.40625l2.44922-.16015m12.53516 1.72656l-6.21875 3.27344m6.21875-3.27344l2.02734 1.38281m11.48438-.9375l-6.61329 2.38281m6.61329-2.3828l1.8164 1.64843m-2.78125-1.30078l.91016.82422m13.54297-.48047l-6.95703 1m6.95703-1l1.44531 1.98437m-2.46094-1.83594l.72656.98829m13.57032-1.31641l-6.89453 1.36328m6.89453-1.36328l1.55078 1.89844m-2.55469-1.70313l.77734.95313m13.58985-.83594l-6.98828.73438m6.98828-.73438l1.3711 2.03516m-2.38673-1.92579l.6836 1.01563m13.66406-.64844l-7.02344-.21484m7.02344.21484l1.08594 2.19922m-2.10547-2.23047l.54297 1.09766m13.78125-1.47266l-7 .59375m7-.59375l1.33203 2.0625m-2.35156-1.97265l.66796 1.02734m13.65235-1.24219l-6.97266.84766m6.97266-.84766l1.40625 2.01172m-2.41797-1.89062l1.40234 2.01171m12.9297-2.10156l-6.98438.78125m6.98437-.78125l1.38672 2.02735m-2.40234-1.91407l1.38671 2.02735m12.84766-2.65625l-6.78906 1.8164"/><g clip-path="url(#ac)"><path fill="none" stroke="#000" stroke-linecap="round" stroke-linejoin="round" stroke-miterlimit="10" stroke-width=".5" d="M466.95703 359.58594l1.67188 1.79297"/></g><path fill="none" stroke="#000" stroke-linecap="round" stroke-linejoin="round" stroke-miterlimit="10" stroke-width=".5" d="M465.96875 359.84766l.83594.89843"/><g clip-path="url(#ad)"><path fill="none" stroke="#000" stroke-linecap="round" stroke-linejoin="round" stroke-miterlimit="10" stroke-width=".5" d="M143.13281 343.77344l1.73438 6.8086"/></g><g clip-path="url(#ae)"><path fill="none" stroke="#000" stroke-linecap="round" stroke-linejoin="round" stroke-miterlimit="10" stroke-width=".5" d="M143.13281 343.77344l1.8125-1.65235"/></g><g clip-path="url(#af)"><path fill="none" stroke="#000" stroke-linecap="round" stroke-linejoin="round" stroke-miterlimit="10" stroke-width=".5" d="M143.38672 344.76563l.90625-.82813"/></g><path fill="none" stroke="#000" stroke-linecap="round" stroke-linejoin="round" stroke-miterlimit="10" stroke-width=".5" d="M156.25 343.82813l2.1289 6.69921m-2.1289-6.69921l1.71484-1.75391m11.46485 1.80078l2.39844 6.60547m-2.39844-6.60547l1.64453-1.82031m10.6211 2.42578l4.5 5.39453m-3.84766-4.60938l.46484-1.13671m11.9961.53515l4.90624 5.03125m-4.1953-4.30078l.375-1.16797m11.7539 1.00781l5.85547 3.88672M208.5 345.8008l.11719-1.22267m11.76562 2.40235l7.01563.39453m-7.01563-.39453l-1.02734-2.22656m14.57812 1.14453l6.54297 2.5586m-6.54297-2.5586l-.28515-2.4375m13.53125 2.63281l6.6836 2.17188m-6.6836-2.17188l-.42578-2.41797m13.60156 3.01953l6.96094.96485m-6.96094-.96485l-.84375-2.30469m14.13672 2.52735l7.00781.51953m-7.00781-.51953l-.98828-2.2461m14.30078 2.28516l7.01172.4414m-7.01172-.4414l-1.01563-2.23437m2.03516 2.30078l-.50781-1.11719M300.28125 347.5l7-.64063m-7 .64063l-1.34375-2.05469m2.36328 1.96094l-1.34375-2.05469m14.46094-.44922l5.35547 4.55079m-5.35547-4.55079l.52344-2.39453m13.64843 1.66406l3.64454 6.01172m-3.11329-5.13671l.625-1.0547m13.13282-.22265l1.6953 6.8164m-1.44921-5.82421l.91406-.82031m15.55078.8164l-5.09765 4.83985m5.09765-4.83985l2.32422.77735m11.875.88671l-6.86328 1.51172m5.86328-1.28906l.79688.9336m13.5664.07421l-6.96093-.94921m5.94921.8125l.42188 1.14843m13.9336-1.36328l-7.01954-.2461m7.01953.2461l1.07813 2.20703m11.95703-.9414l-6.45703-2.77735m6.45703 2.77735l.19922 2.4453m13.35156-3.2578l-6.92969-1.15235m6.9297 1.15235l.78124 2.32812m-1.78906-2.4961l.39062 1.16407m13.97657-1.3789l-7.01954-.38282m7.01954.38281l1.03125 2.22266m12.05078-3.6875l-6.55078 2.54297m6.55078-2.54297l1.85547 1.60156m11.625-1.03125l-6.88672 1.40235"/><g clip-path="url(#ag)"><path fill="none" stroke="#000" stroke-linecap="round" stroke-linejoin="round" stroke-miterlimit="10" stroke-width=".5" d="M467.0039 346.47656l1.5625 1.89453"/></g><g clip-path="url(#ah)"><path fill="none" stroke="#000" stroke-linecap="round" stroke-linejoin="round" stroke-miterlimit="10" stroke-width=".5" d="M145.2461 330.57813l-2.4922 6.5703"/></g><path fill="none" stroke="#000" stroke-linecap="round" stroke-linejoin="round" stroke-miterlimit="10" stroke-width=".5" d="M145.2461 330.57813l2.43359-.3086m13.10937 3.0625l-6.94531 1.0625m6.94531-1.0625l1.46485 1.96485m11.72656-2.4961l-6.69922 2.1211m6.69922-2.1211l1.75 1.71875m11.72656-.78906l-7.02344.26172m7.02344-.26172l1.23047 2.125m12.0625-2.40235l-6.98047.82032m6.98047-.82031l1.39844 2.01562m11.9414-1.5664l-7.02734-.07813m7.02734.07812l1.125 2.1797m12.09766-3.01563l-6.84375 1.59375m6.84375-1.59375l1.61328 1.84765m11.46094-2.54297l-6.36328 2.98438m5.4375-2.55078l.98047.73828m13.38672-.86719l-6.61329 2.375m5.64844-2.03125l.91016.82422m9.67969-3.47266l.76562 6.98438m9.45313-4l6.95703 1.01172m-5.94532-.86328l-.41406-1.15625m12.6875 1.35937l7.01953.3125m-7.01953-.3125l-1.05469-2.21875m14.38282 2.73828l6.99218-.72656m-6.99218.72656l-1.3672-2.03515m2.38673 1.92968l-.6875-1.01953m12.96484.67188l7.02735.17969m-7.02735-.1797l-1.09375-2.1953m2.11719 2.22265l-.54688-1.09765m12.87891.6289l6.94531 1.0625m-6.94531-1.0625l-.8125-2.3164m14.11719 2.40234l6.96875.89062m-6.96875-.89062l-.86719-2.29688m14.72266.82422l5.88672 3.83594m-5.88672-3.83594l.21484-2.4414m14.2461 1.33984l3.59374 6.03906m-3.0703-5.16015l.63671-1.05079m13.30469 6.64454l1.29297-6.90625m-1.10547 5.90234l-1.16797.36719m12.88281.03125l4.1211-5.69531m-3.51954 4.86718l-1.21484-.16797m18.52344.57813l-5.07031-4.85938m4.33593 4.15235l-.33593 1.17969m15.16406-1.72657l-6.625-2.35156m6.625 2.35156l.35937 2.42578m12.20703-1.19921l-5.1289-4.8047m4.38281 4.10548l-.32031 1.18359m15.30078-2.4375l-6.96875-.89844m5.95703.76563l.42969 1.14844m13.05469.85156l-5.28516-4.63281m4.51562 3.95703l-.27734 1.1953"/><g clip-path="url(#ai)"><path fill="none" stroke="#000" stroke-linecap="round" stroke-linejoin="round" stroke-miterlimit="10" stroke-width=".5" d="M147.20313 319.10156l-6.40625 2.89453"/></g><path fill="none" stroke="#000" stroke-linecap="round" stroke-linejoin="round" stroke-miterlimit="10" stroke-width=".5" d="M147.20313 319.10156l1.9414 1.4961m-2.875-1.07813l.97266.75m13.5625-.13281l-6.98047.82422m6.98047-.82422l1.39844 2.01562m11.91015-2.07421l-6.96484.9414m6.96484-.9414l1.42969 1.99218m11.91016-1.30078l-7.01563-.44531m7.01563.44531l1.01171 2.23438m12.06641-3.73829l-6.54297 2.56641m6.54297-2.5664l1.86328 1.59375m11.42188-1.66797l-6.48047 2.71484m6.48047-2.71484l1.89843 1.55078m11.0625-2.19531l-5.77343 4.0039m5.77343-4.0039l2.1797 1.125m10.97265-1.34375l-5.44922 4.4375m5.44922-4.4375l2.26172.95312m10.36328-1.59766l-4.07031 5.72657m3.48046-4.89454l1.21485.16016m11.48828-1.54297l-1.66406 6.82813m1.42187-5.83203l1.1914-.3047m12.16016-.73437l-1.2539 6.91407m1.07031-5.90625l1.16797-.375m13.10547-.39454l-2.80469 6.44141m2.39844-5.5039l1.22265-.09766m12.125-.98047l-2.05859 6.71875m1.76172-5.74219l1.20312-.23047m11.03125-.8828l.69922 6.99218m10.01563-1.58594l5.89843-3.8164m7.05079 3.0664l6.6328-2.3164m-6.6328 2.3164l-1.8047-1.66797m14.9336.22656l7.0039.56641m-7.0039-.5664l-.97265-2.25391m1.99218 2.33594l-.48828-1.125m12.80469 1.80468l6.96094-.96093m-6.96094.96093l-1.4375-1.98828m16.64844 4.64453l3.17187-6.26953m-3.17187 6.26953l-2.45313.05079m16.1211.10156l2.46484-6.57813m-2.46484 6.57813l-2.4336.32031m15.39844-.47266l3.16406-6.27343m-2.70312 5.36328l-1.22657.02344m12.17188-1.84375l6.98047-.8086m10.8711-2.94922l-2.08985 6.70703m1.78515-5.73437l1.20704-.22656m14.58203 1.18359l-6.42578 2.84375m5.48828-2.42969l.96484.75781m11.79688-2.80859l-3.44922 6.1211"/><path fill="#00f" fill-rule="evenodd" d="M184.07422 472.08594h8.61719V461.9414h-8.6172v10.14453"/><path fill="azure" fill-rule="evenodd" d="M185.90625 463.77344h.83594v2.82422h3.28515v-2.82422h.83203v6.48047h-.83203v-2.91797h-3.28515v2.91797h-.83594v-6.48047"/><path fill="#ff3030" fill-rule="evenodd" d="M437.7539 467.64844h7.69532V457.5039h-7.69531v10.14453"/><path fill="azure" fill-rule="evenodd" d="M439.58594 459.33594h.83594v5.73828h3.1914v.74219h-4.02734v-6.48047"/><path fill="#00f" fill-rule="evenodd" d="M401.55469 463.21094h8.61719V453.0625h-8.6172v10.14844"/><path fill="azure" fill-rule="evenodd" d="M403.38672 454.89844h.83203v2.82031h3.28906v-2.82031h.83203v6.48047h-.83203v-2.91797h-3.28906v2.91797h-.83203v-6.48047"/><path fill="#ff3030" fill-rule="evenodd" d="M171.45313 441.01953h7.6914V430.8711h-7.6914v10.14844"/><path fill="azure" fill-rule="evenodd" d="M173.28516 432.70703h.83593v5.73828h3.19141v.73828h-4.02734v-6.47656"/><path fill="#ff3030" fill-rule="evenodd" d="M335.67188 441.01953h7.6953V430.8711h-7.6953v10.14844"/><path fill="azure" fill-rule="evenodd" d="M337.5039 432.70703h.83594v5.73828h3.19141v.73828h-4.02734v-6.47656"/><path fill="#00f" fill-rule="evenodd" d="M219.58203 409.94922h8.61719v-10.14453h-8.61719v10.14453"/><path fill="azure" fill-rule="evenodd" d="M221.41406 401.63672h.83203v2.82422h3.28907v-2.82422h.83203v6.48047h-.83203v-2.91797h-3.28907v2.91797h-.83203v-6.48047"/><path fill="#ff3030" fill-rule="evenodd" d="M171.45313 401.07422h7.6914v-10.14844h-7.6914v10.14844"/><path fill="azure" fill-rule="evenodd" d="M173.28516 392.76172h.83593V398.5h3.19141v.73828h-4.02734v-6.47656"/><path fill="#ff3030" fill-rule="evenodd" d="M393.3711 392.19531h7.6914v-10.14453h-7.6914v10.14453"/><path fill="azure" fill-rule="evenodd" d="M395.20313 383.88281h.83593v5.73828h3.1914v.7422h-4.02733v-6.48048"/><path fill="#ff3030" fill-rule="evenodd" d="M282.41406 383.32031h7.6914v-10.14844h-7.6914v10.14844"/><path fill="azure" fill-rule="evenodd" d="M284.2461 375.00781h.83202v5.73828h3.19532v.7422h-4.02735v-6.48048"/><path fill="#00f" fill-rule="evenodd" d="M370.48438 325.6211h8.62109v-10.14454h-8.6211v10.14453"/><path fill="azure" fill-rule="evenodd" d="M372.3164 317.3086h.83594v2.82421h3.28516v-2.82422h.83203v6.48047h-.83203v-2.91797h-3.28516v2.91797h-.83593v-6.48047"/><path fill="#ffffe0" fill-rule="evenodd" d="M208.59375 348.84766h22.17969v-10.19532h-22.17969v10.19532"/><path fill-rule="evenodd" d="M212.09375 340.48828h.50781v6.29297h-.78515v-4.48828h-1.39063v-.55469l.5586-.0664.2539-.0547.23047-.08984.20313-.14062.17187-.21094.14453-.29297.10547-.39453m4.8125 0l.23047.01953.21875.05469.20703.08984.19531.1211.1836.14844.17187.17578.30469.41796.24219.4961.17968.54687.10938.57813.03906.58984-.03906.59375-.10938.58594-.17968.55078-.2422.5039-.30468.42579-.17187.17969-.1836.15625-.19531.12109-.20703.09375-.21875.05469-.23047.01953-.23047-.01953-.21875-.05469-.20703-.09375-.19531-.1211-.1836-.15624-.17187-.1797-.30469-.42577-.24219-.5039-.17968-.55079-.10938-.58594-.03906-.59375h.83203l.03125.5625.07813.50781.1289.44141.16016.375.1914.30078.21094.22266.22266.13672.22656.04687.22656-.04687.22266-.13672.21094-.22266.1914-.30078.16016-.375.1289-.4414.08204-.50782.02734-.5625-.02734-.5625-.08203-.5-.12891-.4336-.16016-.36718-.1914-.29297-.21094-.21094-.22266-.1328-.22656-.04688-.22656.04687-.22266.13281-.21094.21094-.1914.29297-.16016.36719-.1289.4336-.07813.5-.03125.5625h-.83203l.03906-.58985.10938-.57813.17968-.54687.2422-.4961.30468-.41796.17187-.17579.1836-.14843.19531-.1211.20703-.08984.21875-.05469.23047-.01953m5.08984 0h.51172v6.29297h-.78906v-4.48828h-1.38672v-.55469l.5586-.0664.2539-.0547.22656-.08984.20703-.14062.17188-.21094.14063-.29297.10546-.39453m2.82422 2.17578h.78906l.01954-.3164.05859-.28907.09766-.25.14062-.21484.1836-.17578.22265-.1289.26563-.08204.30468-.02734.23828.02344.22657.0625.20312.10156.17969.13672.14844.17578.11328.20312.07031.23828.02734.26563-.02343.26562-.0664.22657-.10938.1914-.15625.17188-.19922.16015-.2461.16797-.63672.38672-.53515.3164-.4375.31641-.34766.32422-.26562.33594-.1875.35156-.125.36719-.07031.39453-.01954.41797h4.21094v-.73828h-3.33203l.08203-.28516.11328-.23828.14844-.19922.1875-.17969.23047-.17187.27734-.17578.71875-.41797.41406-.20703.34766-.23047.28125-.25.21875-.26563.16406-.28125.10938-.28125.0664-.28515.01954-.28125-.04297-.38281-.1211-.34766-.1875-.3086-.25-.26171-.30468-.21485-.34375-.15625-.38282-.10156-.40625-.03125-.43359.03125-.39844.09766-.35547.16797-.30468.23437-.2461.30469-.1875.375-.11328.44531-.04297.51953"/></g></defs><use xlink:href="#aj"/></svg>