<svg xmlns="http://www.w3.org/2000/svg" role="img" xmlns:xlink="http://www.w3.org/1999/xlink" viewBox="142.45 309.95 326.84 171.84"><defs><clipPath id="a"><path d="M144 311.67188h1v168.65625h-1zm0 0"/></clipPath><clipPath id="b"><path d="M144 311.67188h324v168.65625H144zm0 0"/></clipPath><clipPath id="c"><path d="M467 311.67188h1v168.65625h-1zm0 0"/></clipPath><clipPath id="d"><path d="M144 479h4v1.32813h-4zm0 0"/></clipPath><clipPath id="e"><path d="M147 480h2v.32813h-2zm0 0"/></clipPath><clipPath id="f"><path d="M153 479h9v1.32813h-9zm0 0"/></clipPath><clipPath id="g"><path d="M160 480h3v.32813h-3zm0 0"/></clipPath><clipPath id="h"><path d="M159 480h2v.32813h-2zm0 0"/></clipPath><clipPath id="i"><path d="M166 479h9v1.32813h-9zm0 0"/></clipPath><clipPath id="j"><path d="M173 480h2v.32813h-2zm0 0"/></clipPath><clipPath id="k"><path d="M180 479h8v1.32813h-8zm0 0"/></clipPath><clipPath id="l"><path d="M187 480h2v.32813h-2zm0 0"/></clipPath><clipPath id="m"><path d="M193 479h8v1.32813h-8zm0 0"/></clipPath><clipPath id="n"><path d="M200 480h2v.32813h-2zm0 0"/></clipPath><clipPath id="o"><path d="M206 480h9v.32813h-9zm0 0"/></clipPath><clipPath id="p"><path d="M213 480h3v.32813h-3zm0 0"/></clipPath><clipPath id="q"><path d="M220 480h8v.32813h-8zm0 0"/></clipPath><clipPath id="r"><path d="M227 480h2v.32813h-2zm0 0"/></clipPath><clipPath id="s"><path d="M233 479h8v1.32813h-8zm0 0"/></clipPath><clipPath id="t"><path d="M240 479h3v1.32813h-3zm0 0"/></clipPath><clipPath id="u"><path d="M246 479h9v1.32813h-9zm0 0"/></clipPath><clipPath id="v"><path d="M253 479h3v1.32813h-3zm0 0"/></clipPath><clipPath id="w"><path d="M260 478h8v2.32813h-8zm0 0"/></clipPath><clipPath id="x"><path d="M265 479h3v1.32813h-3zm0 0"/></clipPath><clipPath id="y"><path d="M273 478h8v2.32813h-8zm0 0"/></clipPath><clipPath id="z"><path d="M286 478h8v2.32813h-8zm0 0"/></clipPath><clipPath id="A"><path d="M292 479h2v1.32813h-2zm0 0"/></clipPath><clipPath id="B"><path d="M300 478h8v2.32813h-8zm0 0"/></clipPath><clipPath id="C"><path d="M305 478h3v2.32813h-3zm0 0"/></clipPath><clipPath id="D"><path d="M314 477h7v3.32813h-7zm0 0"/></clipPath><clipPath id="E"><path d="M328 477h5v3.32813h-5zm0 0"/></clipPath><clipPath id="F"><path d="M343 476h2v4.32813h-2zm0 0"/></clipPath><clipPath id="G"><path d="M353 478h8v2.32813h-8zm0 0"/></clipPath><clipPath id="H"><path d="M366 480h9v.32813h-9zm0 0"/></clipPath><clipPath id="I"><path d="M379 479h9v1.32813h-9zm0 0"/></clipPath><clipPath id="J"><path d="M380 478h2v2.32813h-2zm0 0"/></clipPath><clipPath id="K"><path d="M393 478h8v2.32813h-8zm0 0"/></clipPath><clipPath id="L"><path d="M406 479h9v1.32813h-9zm0 0"/></clipPath><clipPath id="M"><path d="M407 478h2v2.32813h-2zm0 0"/></clipPath><clipPath id="N"><path d="M420 478h7v2.32813h-7zm0 0"/></clipPath><clipPath id="O"><path d="M433 478h8v2.32813h-8zm0 0"/></clipPath><clipPath id="P"><path d="M446 479h8v1.32813h-8zm0 0"/></clipPath><clipPath id="Q"><path d="M460 478h8v2.32813h-8zm0 0"/></clipPath><clipPath id="R"><path d="M144 466h4v2h-4zm0 0"/></clipPath><clipPath id="S"><path d="M144 451h4v5h-4zm0 0"/></clipPath><clipPath id="T"><path d="M465 451h3v2h-3zm0 0"/></clipPath><clipPath id="U"><path d="M144 437h3v6h-3zm0 0"/></clipPath><clipPath id="V"><path d="M466 438h2v3h-2zm0 0"/></clipPath><clipPath id="W"><path d="M144 425h4v5h-4zm0 0"/></clipPath><clipPath id="X"><path d="M466 425h2v3h-2zm0 0"/></clipPath><clipPath id="Y"><path d="M144 412h4v4h-4zm0 0"/></clipPath><clipPath id="Z"><path d="M466 412h2v3h-2zm0 0"/></clipPath><clipPath id="aa"><path d="M144 400h4v1h-4zm0 0"/></clipPath><clipPath id="ab"><path d="M466 399h2v3h-2zm0 0"/></clipPath><clipPath id="ac"><path d="M144 386h4v2h-4zm0 0"/></clipPath><clipPath id="ad"><path d="M466 386h2v4h-2zm0 0"/></clipPath><clipPath id="ae"><path d="M144 372h4v4h-4zm0 0"/></clipPath><clipPath id="af"><path d="M466 373h2v4h-2zm0 0"/></clipPath><clipPath id="ag"><path d="M144 358h4v5h-4zm0 0"/></clipPath><clipPath id="ah"><path d="M466 359h2v3h-2zm0 0"/></clipPath><clipPath id="ai"><path d="M144 344h3v6h-3zm0 0"/></clipPath><clipPath id="aj"><path d="M466 345h2v3h-2zm0 0"/></clipPath><clipPath id="ak"><path d="M144 331h3v6h-3zm0 0"/></clipPath><clipPath id="al"><path d="M466 332h2v3h-2zm0 0"/></clipPath><clipPath id="am"><path d="M465 332h3v3h-3zm0 0"/></clipPath><clipPath id="an"><path d="M144 319h4v4h-4zm0 0"/></clipPath><clipPath id="ao"><path d="M465 318h3v2h-3zm0 0"/></clipPath><g id="ap" clip-path="url(#clip1)"><path fill="#fff" fill-opacity="0" fill-rule="evenodd" d="M0 0h1000v1000H0zm0 0"/><path fill="#d3d3d3" fill-opacity="0" fill-rule="evenodd" d="M162.15234 355.86719l-.23437.29297.0586.23437.11718.17188.17578.23437.29297.34766.11328.0586.11719-.17188.0586-.23438.17577-.17578.46485-.17578h.69922l.23437.29297.28906.8164.0586.17579.17578.23046.35156.23438.69922.69922.17188.17578.23437.34765.23438.41016.28906.58203.41015.46485.23047.23437.23438.17578.11719.23047.17578.29297.17187 1.16406v.23438l.0586.28906.05859.11719.11719.11719.34765.41015.11719.17188.17578.17578.17578.23437.11719.17188.17188.35156.05859.23438.23437.40625.23438-.0586-.17578.17578-.0586.92969h-.58203l-.23437-.11328-.34766.11328-.11719.11719-.05859.29297-.0586.17578-.11718.17187-.46484.29297-.0586.23438-.0586.11328v.64453l.0586.17187v.41016l.0586.0586v.40624l.05859.40625.11719.17579.05859.05859.23047.64062-.0586.29297v.69922l-.05859.58203v.23438l-.0586.23047-.05468.35156v1.92187l.05469.1172h.42578l-.36719.11718-.02344.35156.89063 1.16797 1.74219.53906 1.33984.35938v.53906l.08984.8086.53516.71484 1.51953.26953.89063-.08594.08984 1.16406.53516.1797 1.16015-.1797 2.05469-.98437 1.16016-.36328 1.8789-.17578 1.69531-.1797-.17968.71876-1.51563.08594-1.25.08984-.80469.26953-1.07421.8086.26953.71875.53515.89843-.17968.625-.26563.8086.26563 1.07812.625.89844.80468.17969 1.25-.1797-.26562.72267.09766.5039.05468.29297v.17188l.0586.29296v.40625l.17578.1172.35156.11718h.40625l.29297-.17578.11328-.11719.0586-.11719.11718-.23047.0586-.17578.35156-.46484.23047-.17578.17578-.0586.17578.0586.0586.17578.11718.98828.05469.46875.0586.17188.11718.23437.17578.0586.8164.05859h.28907l.11719.23437.05859.40625.0586.35156v1.10547l.11718.29297.11719.34766.28906.69922.17578.35156.58203.7539.35157.17579.17187.0586.46875.23437.64063.46484.34765.23438.29297.17578.29297.05468.23047.0625.8164.34766.29297.17578.11328.17188.35157.35156.11719.17578.52343.64063v.28906l.0586.35156v.34766l.05859.35156.0586.28906.11718.0586.17188.05859h.17578l.58203.23437.17578.1172.17578.28905.17578.23438.11328.23437.29297.23047.11719.11719v.41016l.0586.05468.28906.23438.23437.11719.0586.11718.11718.17188.0586.11719.23047.23437.05859.17578.23437.0586.1172.05859-.1172.11328-.05859.11719v.11719l-.11719.29296-.11719.28907v.58203l.17579.11719.11718.05859.0586.11719.11719.11719.11328.05859.17578.34765.0586.35157.05858.40625v.17578l-.05859.17578-.11719.69922v.17187l.1172.17579.29296.29296h.40625l.17578.1172.11719.17187.11719.29296v.23438h-.52735l-.23047-.23438h-.23437l-.17578.0586-.0586.69922.0586.34765.11719.17579.17578.41015.11718.23047.28907.46875.17578.05469h.52344l.23437.0586.75781.64062.0586.29296v.23438l.05859.0586.23047.34765v.35156l-.11719.17188v.29297l.29297.28906.29297.17578.17187.0586.29297.17577.29297.1172.58203.40624.28906.23438.29297.17578.21875.16015.01563.01172.23047.17579.64062.52343.17578.23438.1172.17578.17577.17578.11328.17188v.64062l.1172.17578.46874.11719.58203.11719.23438.05859.23047.11328.29297.11719.11328.0586.58593.35156.28907.17187.17578.0625.17578.05469.17578.0586.69922.35155.28906.17579.23438.05468.28906.17578.23437.1172.64063.40624.29297.11719.17187.0586.23438.05859.41015.05859.23047.0586.23438.11718.0586.17188-.41017.17578.46875.0586.0586.29296.11328.23438.17578.05468.23438.0586.17578.05859.40625.11719.64062.23437.11719.17188.0586.23437v.17578l-.0586.1172-.0586.40624.23438.23438.11719.05859.34766.11719.64062.23047.17578.11718.28906.1172.17578.17577.23438.46485.58203 1.10546.17578.17579.34766.17578.17578.11719.35156.11718 1.04688.52344.23437.0586.46485.11327.29297.0586.46484.17578.75781.58203.23438.23438.34765.46484.17578.17578.28907.23438.8164.69921.29297.17579.28906.28906.29297.17578.29297.28906.69531.64063.17578.17578.29297.23437.28907.23438.46875.28906.64062.58203.34766.23438.23437.29297.34766.34765.35156.46485.9336.99218.34765.40625.11719.17579.23437.05859.11328.11719.64454.17578.23047.11328.23437.0586.29297.17577.23047.1172.9336.69921.40624.40625.23438.17578.40625.17578.23437.11719.8164.34766.34766.23437.23438.11719.29297.28906.23047.11719.7578.35156.35157.17188.23047.05859.29297.11719.23437.0586.8711.17577h.8164l.46875.23047.17188.0586.875.69921.46484.1172.29297.05858.17578.0586.23047.0586.46875.05859.34766.05859.35156.0586.40625.05859h.29297l.17187.0586v.23046l.17578.17578h.29297l.34766.0586.35156.05859.69922.11719h.64063l.46484-.23438.29297-.17578.17187-.11719.41016-.17187.28906-.17578.9336-.46485.46875-.29297.52343-.29296.46485-.17188.46484-.17578 1.05078-.46485.28906-.11718.41016-.11719.28906-.11719.52735-.17578 1.51562-.69922.58203-.34765.28907-.0586.29297-.0586.34765-.11718.875-.23047.35156-.11719h.11329l.23437-.05859.875-.23437.23438-.0586h.8125l.35156-.0586.8164-.11718.17188-.0586.35156-.05468.29297-.0586.23047-.05859.8164-.17578.17579-.0586h.34765l.23438-.05859.46484-.11718.75781-.17188.23438-.0586h.34765l.41016-.11718.28906-.0586 1.28516-.05859h.28906l.41016-.0586.23047-.05858h.17578l.875-.1172h.40625l.41015-.11718h.34766l.35156-.11328.8711-.0586h1.75l1.04687.28907.41016.11719.28906.11718.35156.11719.28907.11719 1.05078.17187.28906.0586h.29297l.29297.05859.17187.0586.41016.05859.17187.0586.1172.05858h.11718l.11719.0586.35156.0586h.11328l.41016.0664 1.92187.39453 1.92578.39453 1.51953.44922 1.69532.71875 2.14453.80469 1.60547-.71875 1.42968-.80469 1.16016-1.07813 1.25-.44921 3.03516-.71875 1.875-.35938 2.14453-1.34765 2.23437-1.25391 2.5-1.25781 1.69531-.44922 1.78516-.17969 1.16016-.26953.625.53906 1.33984-.26953.71485-.98828.98437-1.34375.44531-.17969.80469-.35937 1.875-.53907 1.78516-.44921 1.25-.26954 1.16015-.08984 1.69922-.08984 1.96094-.26954 1.25-.08984h.53906l.625-.08984h.89063l2.14453-.17969 2.41015-.17969 2.58985-.08984 1.69531.17969 1.60938.08984 1.42968.35938 1.16016.71875 1.875.98828 1.16015 1.52734.26563.71484.6289.08985.35548.89844.53515.53906.53516 1.52734 1.07422.35938h.53515l-.80469.53515.08985 1.70703.71484 2.69532.89063.80468.89453.98829.71484 1.2578 1.78516.53907 1.51953-.17969.35547 1.34375 1.60937-.80469.98047-.53906.26953.26953.31641-.21484.21875-.14453.80078.44922.44922-.35938h.35547l.53515-.26953.53907-.71875.53515-.26953.625-.98828 1.16016.44922.83984.3711 1.39454.61718 1.6953-.17969h1.60548l1.78515.08985.17969-1.70704.53516-1.34375.80468.26954.4922.84765.40233.40625-.08984.53906v.35938l.71485.44922.71093-.26953h1.42969l.35938.98828.4453 1.25781.71485 1.34375 1.25.6289 1.69531.62891.71485-.17969.17969-.53906.98046-.08984.44922.35937.08594 1.25782-.26563.6289-.53515.17969v.53906l.71484.98438.26563.53906.98437.98828.80078 1.07813-.26562.35937-.08985.89844-.625 2.33203-.35546 2.0664-.08985 1.79298-.17969.71875-.08984.53906v1.4375l-.98047 1.88281-.35937 1.70703-.53516.89844-.80469 1.16797-.26562.53906 2.05469 1.2539.08593.35938-.35546.53906-.08985-.17968v.80859l.08985 1.4375-.44532.71484-1.07422.09375-.26562.71485.53515.89844.8047.71875 1.16015.80859 1.33984.26953.44531.35938-.35546.44921-1.78907-.08984-1.25-.44922-.71484-.71875-.625-.08984-.17578 3.58984-.1875 1.3086h89.35937V311.70313h-55.26953v49.08203l.76172.125 3.28906.54296 2.02344 2.83594v2.7539l2.35156.33204 2.34766.33203h4.05078l-1.3789 4.16016-2.02344.70703-2.02344.70312-.54297.34375-2.59375 1.6172-.1875.11718-2.02344-2.07813-.73046-2.74218-2.67188-2.07813-1.375-3.5-.0664-.08203-1.95704-2.67188 2.75-1.41796v-49.08204H294.42187v91.41407l.1172.03125.1328.01172.07422.07421.10547.04688.08985.0586.08593.05859.08985.0586.29687.29687.0586.08984.03125.11719.02734.11719.01563.13671-.03125.1172-.0586.08983-.0586.08594-.04296.10547-.04688.10156-.02734.1211v.14453l.17578.26953.14844.14844.07422.08594.07422.07421.04296.10547.0625.08985.0586.08593.04297.10547.0586.08985.04687.10156.04296.10547.0586.08594.11719.17968.07421.07422.0625.08594.0586.08984.04297.10547.0586.08985.05858.08593.0625.08985.0586.08984.04297.10156.11719.17969.07421.07422.0586.08594.07422.07421.08984.0586.10547.04687h.14844l.1328-.01562.13282.01562.10156-.04687.07422-.07422.04688-.10156-.01563-.13281v-.14844l-.04687-.10547-.02735-.11719-.04687-.10156-.02735-.1211-.04296-.10156-.0625-.08984-.04297-.10156-.04297-.10547-.03125-.11719-.01563-.13281-.01171-.13672.08593-.0586.0586-.08593.12109-.03125.04297.10547.01562.1328v.1172l.0586.10156.0586.08984.08983.0586.14844.14843.0586.08985.04296.10547-.01171.10156.08593.0586.10547.04687.08594.0586.08984.05858.07422.07422-.11719.02735-.10546.04687-.08594.0586-.07422.07421-.0586.08985-.0625.08594-.02734.12109-.04687.10156-.04297.10547-.03125.11719-.01172.13281-.01563.13281v.14844l.02735.11719.04687.10547.04297.10156.0586.08984.07421.07422.08985.0586.07422.07421.08984.0586.0586.08984.04296.10547.04688.10156.11719.03125.1328.01563h.14845l.11718-.03125.10547.04297.04297.10547.04688.10156.02734.1211L299.5 410l.02734.11719.03125.1211.02735.11718.10547.04297.10156.04687.13281-.01562.14844.14844.0625.08593.07422.07422.07031.07422.08984.0625.10547.04297.10156.04297.1172.03125.13671.01562.11719-.03125.07422-.07422.02734-.11718-.01172-.13282-.03125-.12109-.02734-.11719.04297-.10547h.11719l.08984.0625.11719.02735h.14843l.13282.01562h.14843l.13282.01563.1328-.01563h.14845l.1328-.01562.13282-.01172.13672.01172.11719-.02735.13281-.01562.1914-.0586-.05859.17579-.01562.1328-.02735.1211-.01562.13281-.0586.08594-.1328.01563-.10548.04687-.10546.04297-.1172.03125-.11718.02735-.26563.03125h-.14843l-.13281.01562-.07422.07422.05859.08594.14844.14843.11719.1797.07421.0703.08985.0625.08984.0586.08594.0586.08984.05858.10156.04297.10547.0625.10547.04297.08594.0586.10547.04687.10156.04297.17969.11719.0586.08984-.04298.10156-.04687.10547.01562.13281.22266.22266.0586.08985.04296.10156.03125.1211.04297.10155.01563.13282.03125.11718.01171.13672.03125.11719.14844.14844.10156.04297.10547.04296.1172.03125.1328.01563.13672.01563h.11719l.11719-.03125.08984-.0586.04297-.10547.04688-.10156.04296-.10547.03125-.11719.01172-.1328v-.14845l-.01172-.1328-.01562-.13282-.03125-.11719-.04297-.10547-.04688-.10547-.04296-.10156-.04297-.10547-.01563-.13281.01563-.13281.02734-.11719.03125-.11719.02735-.1211.04687-.10155.08984-.0586.08594-.0625.07422-.07422.08984-.05859.22266-.22266.0586-.08593.07421-.07422.11719-.17969.0586-.08594v-.14844l-.07423-.07421-.10156-.04688-.10547-.04297-.10156-.04297-.0586-.08984-.04687-.10547-.02734-.11719.08984-.05859.11719-.03125.10156-.04297.17969-.11719.14844-.14843.01172-.13282-.01172-.10546-.08985-.0586-.1328.01563h-.14845l-.1328.01562-.13282-.01562-.1211-.03125-.08593-.0586-.07422-.07422-.0586-.08984-.0625-.08594-.11718-.17969-.0586-.08593.03125-.1211.08594-.05859.1211-.03125.05859-.08594v-.1211l-.03125-.11718-.0586-.08984-.05859-.08594-.04687-.10547-.02735-.11719-.01562-.1328.0586-.08985.07421-.07422.08984-.0586.1172-.17968.07421-.07422.0586-.08594.14843-.14844.1211-.03125.1328-.01562.13282.01562.07422.07422.04297.10547.01562.13281-.03125.1172-.11719.03124-.1328.01172-.14844.14844-.04297.10547-.04688.10156-.02734.1211-.03125.11718v.14844l.03125.11719.04297.10546.05859.08985.07422.07031.07422.07422.11719.03125.12109.02734.11719-.02734.1328-.01563h.1172l.08984.0586.07422.07422.04687.10546.0586.08594.10156.04688.13281.01562.10547.04297.08594.0586-.01172.10546-.07422.07422-.17969.11719-.05859.08984-.08984.0586-.07032.07422-.07421.07421-.0625.08985-.02735.11719-.01562.1328.01562.13282-.01562.13281v.14844l.01562.13281.02735.1172.03125.12108.07421.07422.08985.0586.08594.0586.08984.05858.11719.03125v.08594l-.10157.04688-.08984.0586-.26563.03124-.11718.02735h-.14844l-.10547.04296-.10156.04688-.0586.08984-.0625.23438-.01171.13281-.03125.1211-.01563.1328v.29298l-.01172.1328.01172.13673.01563.1328.1328.01563.13282.01172.1211.03125.08593.0586.07422.07421.04688.10547.04296.10157.01563.1328v.44532l-.01563.13281v.44532l.03125.26562.02735.11719.01562.13281.03125.11719.08594.21094.03125.26562v.14844l-.03125.11719-.02734.11718-.03125.1211-.02735.11719-.03125.11718-.03125.1211-.01171.1328-.01563.13282.08984.0586.1172-.03125.10155.01562.04688.10547-.03125.26562v.44141l-.04297.10547-.04688.10547-.04296.10156-.04297.10547-.0586.08594-.03125.12109-.04296.11719-.03125.11719-.01563.1328.01563.13282.05859.08984.10547.04688.08594.0586.05859.08593-.01172.13672-.03125.11719-.04297.10156v.44531l-.01562.13281v.14844l-.03125.11719-.04297.10547-.02735.11719-.04687.10546-.04297.10157-.03125.12109-.02734.11719-.03125.13281-.03125.11719-.02735.11719-.04297.10546-.03125.1172-.03125.12108-.01171.13282-.01563.13281v.29688l.02734.11718v.14844l.04688.39844.02734.11719.0586.08984.12109.03125h.14844l.13281-.01563.0586.08985v.11719l-.0586.08984-.08984.0586-.10157.04296-.10546.04688-.08985.05859-.08594.0586-.13671.01562-.1172-.03125-.1328-.01563-.10157.04688-.0625.08594-.01172.13671-.01562.13282-.03125.11719-.02735.11718-.01562.13281-.03125.1211v.29687l.01563.13282.03125.11718v.14844l.01171.13281v.14844l-.02734.11719-.04688.10156-.02734.1211-.03125.11718-.0586.08985-.07421.07421-.10156.04297-.10547.04688-.11719.02734-.1211.03125-.10156-.04687.0586-.08594.10547-.04688.02734-.11718.03125-.11719.02734-.1211.03125-.11718v-.14844l.01563-.13281-.03125-.11719-.04297-.10547-.10547.01563-.07422.07422-.10156.04296-.08984.0625-.07422.07422-.04297.10157-.01563.1328-.03125.1172L304.25 426l-.03125.11719-.02734.11719-.03125.12109-.02735.11719-.03125.11718-.04297.10547-.08984.0586h-.08984l-.1172-.03125-.03124-.08594.01562-.13672-.03125-.11719v-.14844l-.01171-.1328v-.14844l-.0625-.23438-.02735-.1211-.04297-.10156-.04687-.10546-.0586-.08594-.05859-.08985-.04297-.10546-.0625-.08594-.14844-.14844-.0703-.07422-.10548-.04687-.10547-.04297-.10156-.04297-.29687-.29688-.08985-.07421-.08594-.0586-.10546-.04297-.08985-.0625-.08594-.0586-.10546-.04296-.08985-.0586-.08594-.0625-.07421-.0703-.10547-.04688-.08594-.0586-.10547-.04296-.08984-.0625-.10156-.04297-.10547-.04297-.08594-.0586-.10547-.04687-.10547-.04297-.10156-.04687-.08985-.0586-.10156-.04297-.10547-.04296-.08984-.0625-.11719-.02735-.13281-.01562-.13281.01562H299.75l-.13281.01563-.11719-.03125-.08984-.0586-.07422-.07422-.08985-.05859-.10156-.04688h-.14844l-.12109-.02734-.10156-.04297-.07422-.07422-.11719-.17968-.08984-.0586-.10156-.04297-.08985-.0625-.10547-.04296-.08984-.0586-.08594-.0586-.10547-.04687-.0586-.08594-.05858-.08984-.04297-.10547-.04688-.10156-.07422-.07422-.08594-.0586-.07421-.07421-.08985-.0586-.22265-.22265-.04297-.10547-.03125-.26563.10547-.04296h.14453l.10547.04296.07421.07422.08985.0586.08594.0586.10546.04687.08985.05859.14844.14844.0703.07422.14845.14843.0625.08594.07421.07422.08594.0586.07422.07421.08985.0625.08984.0586.08594.05859.26953.17578.10156.04688.10547.04296.10156.04297.04688-.07421.05859-.08594.07422-.07422.07031-.07422.10547.04297.07422.07422.0586.08984.04296.10156.04688.10547.04296.10547.1211.02735.11719-.02735.07421-.08984.04297-.10547.0586-.08985.07422-.07421.10546-.04297.1172-.02735.1328.01172.08985.0586.14844.14843.05859.08985.04297.10547.04687.10156.04297.10547.04297.10156.10547.04688.10547.04296.13281.01563.08594-.0586.0586-.08984.07421-.07422.10547-.04297.11719.02735.10547.04687.10156.04297.10547.04297.10156.04688.17969.11718v.11719l-.01563.13281.01563.13281.01562.13672.0586.08594.10156.04688.1211.02734.11718.03125h.14844l.11719-.03125.05859-.08984.17969-.1172.05859-.08983.07422-.07422.0586-.08594.11718-.17969.17969-.11719.11719.03125.08984.0586.04297.07422-.01563.1328v.1172l.08985.05859h.14843l.13282-.01563.1328-.01171.26563-.03125.10547-.04297.11719-.03125.1211-.02735.07421-.07421.07031-.07422.0625-.08985-.01562-.10547-.04688-.10156-.10156-.04297-.10547-.01562-.11718.02734-.26563.03125h-.14844l-.07421-.07422-.08985-.0586-.11719-.03124-.11718-.02735-.13282-.01562h-.14843l-.13282.01563h-.29687l-.10547-.04688-.14844-.14844-.04297-.10156-.05859-.08984.22266-.22266.08593-.0586.10547-.04296.11719-.03125.13281-.01563.13281.01563.13672.01562.10157.04297.1328-.01172.08985-.0625.10156-.04297.0625-.08984-.04687-.10156-.08984-.0586-.1172-.03125-.10155-.04296-.0586-.08985-.0625-.08984v-.11719l.01563-.13281.10547-.04688.07421-.07031v-.1211l-.08984-.05859-.03125-.11719.08985-.05859.07421-.07422.04297-.10547.0586-.08984.04687-.10156.01563-.13281v-.14844l-.04688-.10547-.04297-.10156-.08984-.0586-.13281-.01562-.10157-.04297-.13671-.01563-.1172-.03125h-.4453l-.13282-.01562-.13281-.01172-.13281-.01563-.11719-.03125h-.14844l-.13281-.01562-.13281-.01172-.26563-.03125-.1211-.04297-.08593-.0586-.07422-.07421v-.14844l.01172-.13281.10547-.04688.10156-.04296.13281-.01563h.15235l.13281-.01562h.29297l.1211.03125.10156.04296.08984.0586.23438.0625.12109-.04688.08984-.05859.10156-.04297.13282-.01562.10547.04296.10156.04688.13281.01172.1211-.02735h.14453l.12109-.03125.11719-.02734.10547-.04687.07421-.07422.08594-.0586.14844-.14843.0586-.08594.04687-.10547.02734-.11719.01563-.10547-.10156-.04296-.08985-.0586-.11719-.03125-.10546-.04297-.08985-.0625-.07422-.08594-.07422-.07421-.10156-.04297-.10547-.04688-.10156-.04297-.0586-.08984-.04687-.10156-.08594-.21094-.0625-.08594-.05859-.08984-.07422-.07422-.08594-.0586h-.26953l-.11719.03126-.08984.05859-.10156.04297-.13281.01562-.10547-.01562-.02735-.11719-.0625-.08984-.11718-.03125-.10157-.04297-.14843-.14844-.03125-.11719-.01563-.10546.07422-.07422.17969-.1172.11719-.02733.11718-.03125.13672.01562.10156.04297.10547.04297.10156.04687.10547.04297.1172.03125.1328.01563.1172.02734.1328.01563.10547-.01563.08985-.0586-.07422-.07421-.10547-.04297-.07422-.07422-.07422-.08984-.14844-.14844-.08593-.0586-.08985-.05859-.07422-.07422-.08984-.0586-.10156-.04687-.1211-.02734-.10156-.04688-.10547-.04296-.11719-.03125-.10156-.04297-.1211-.03125h-.14843l-.11719.03125-.10546.04297-.08594.0625-.17969.11718-.08594.0586-.08984.0586-.10547.04687-.08594.05859-.10547.04297-.10156.04297-.10547.04687-.07422.07422-.05859.08985-.0586.08593-.04687.10547-.0586.08594-.07421.07422-.13281-.01172-.1172-.03125h-.11718l-.07422.07422-.08984.0586-.07422.07421-.08984.0586-.08594.05859-.10547.04687-.10156.04297-.13672.01563-.10156-.04297-.14844-.14844-.10547-.04688h-.08594l-.10547.04688-.10156.04297-.1211.03125-.11718-.03125-.07422-.07422v-.11719l.03125-.1211.07422-.0703.0586-.08985.07421-.07422.11719-.03125.10547-.04296h.29297l.13281-.01563.13672-.01563.10156-.04296.08985-.0586.10156-.04687.08984-.0586.13281-.01171.08985.05859.13281.01172.08984-.0586.08594-.05859.10547-.04297.08984-.0586.08594-.0625.08985-.05859.14843-.14843.0586-.08594.05859-.08985.10547-.04296.13281-.01563.11719.02735.1211.03125.05859-.0586.05859-.08984.03125-.26563.02734-.11719.10547.01172.13281.01563.10157-.04297.08984-.0586.0586-.08984.07421-.07422.0586-.08984.04687-.10156.01172-.13281-.01172-.13282-.04687-.10547-.14844-.14843-.0586-.08985-.05859-.08594-.04297-.10546v-.44532l.01563-.1328v-.14845l.01172-.1328-.0586-.0586-.08984.0586-.10156-.04298-.17969-.11719-.08594-.05859-.0625-.08984-.0586-.08985-.07421-.07421-.08594-.0586-.1211.03125-.10155.01172-.10547.04688-.08594.05859-.10547.04297-.14844.14844-.08984.05859-.08594.0586-.08984.0625-.10547.04296-.13281.01563v-.1211l.10547-.04297.11718-.03125.07422-.0703.04297-.10548v-.14844l-.02734-.11718-.14844-.14844-.13281-.01563h-.14844l-.11719.03125-.10547.04297-.10156.04297-.08984.0625-.11719.02735-.07422-.07422.01172-.13281-.04297-.10157-.04297-.10547-.08984-.05859-.11719.02734-.1211.03125-.11718.03125-.10156.04297-.1211.03125-.10156.04297-.10547.04297-.08984.0586-.10156.01562v-.11719l.01562-.13281-.0586-.08985-.07421.04297-.14844.14844-.0586.08985-.07421.07421-.04688.10547-.04296.10156-.07422.07422-.0586.08985-.07422.07422-.05859.08593-.07422.07422-.08984.0625-.07422.07031-.07422.07422-.10156.01563-.13281.01562-.10547-.04296v-.1211l.14843-.14844.04297-.10156.0586-.08984.04687-.10156.04297-.10547.0586-.08985.03124-.11719.04297-.10156.03125-.1211.02735-.11718.04687-.10547.04297-.10156.04297-.10547.07422-.07031.08984-.0625.08985-.0586.10156-.04296h.29687l.26563-.03125.10547-.04297-.07422-.07422-.11719-.03125-.10547-.04297-.08984-.0586-.10156-.04687-.08985-.0586-.10156-.04296-.10547-.04297-.08984-.0625-.08594-.0586-.10547-.04296-.10156-.04297-.1211-.03125-.11718-.03125-.10157-.04297L297.5 410.25l-.10156-.04297-.08985-.0586-.04296-.10546-.01563-.13281.10156-.04297.13281-.01563.13672.01563.13282-.01563.10156-.04297.0586-.08984.01562-.10547-.08985-.0586-.07421-.07421-.10157-.04297-.08984-.0586-.14844-.14843-.04297-.10547-.01562-.13281v-.29297l-.0586-.08985-.08984-.05859-.07422-.07422-.04297-.10547-.03125-.11718-.0586-.08985-.07421-.07422-.11719-.02734-.07422-.07422-.08984-.0586-.08984-.0625-.08594-.05859-.07422-.07421-.0586-.08594-.04687-.10547-.08594-.0586-.14843-.14843-.19532-.0586-.1328.01563-.10157.04297-.07422.07422-.04688.10156-.04296.10547-.0586.08984-.0586.08594-.29687.29687-.08984.0586h-.08594l-.0625-.08594-.04297-.10547.03125-.11719.0586-.08984.02734-.11719-.01172-.13281-.08984-.0625-.10547.04688-.11719.02734-.11719.03125-.26953.17578-.10156.04688-.11719.02734-.10546.04687-.08985.0586-.10156.04297-.0586-.08594-.04687-.10547.01563-.13281.04687-.10547.07031-.07422.07422-.07031.0586-.08985v-.14843l-.04297-.10547h-.23829l-.10156.04687-.03125.11719-.02734.11719-.03125.1211-.07422.04296-.13281.01563-.07422-.04688-.04297-.10156-.04297-.10547-.04687-.10156-.04297-.10547-.1211.03125-.10156.04297-.13281.01562-.11719.03125-.10547.04297-.08984.0586-.10156.04687-.1211.02734-.13281.01563-.10156-.04297-.0586-.08985-.04687-.10546-.04297-.10157-.04297-.10546v-.1172l.0586-.08984.08593-.05859.17969-.11719.10156-.04687.10547-.04297.10547-.0586.10156-.04296.08985-.0625.10156-.04297.10547-.0586.10156-.04687.08984-.0586.10547-.04296.10156-.04297.08985-.0625.10156-.04297.13672-.01563.11719.03125.10156.04297.1211.03125.10156.04297.10546.04688.10157.04296.10547.04297.10156.04688.10547.04297.10156.04297.10547.04687.08594.0586.10546.04296.1172.03125.10546.04297.10156.04688.08985.0586.10547.04296.10156.04297.10547.04687.11719.02735.10156.04687.1211.02735h.14843l.08594-.0586.01562-.10156.0586-.08984-.02735-.1172-.07422-.07421-.11719-.17969-.07421-.07422-.08985-.07421-.17969-.1172-.08593-.05859-.10547-.04296-.10156-.04688-.26954-.17578-.05859-.08985-.07422-.07421-.0586-.08985-.04296-.10156-.03125-.11719-.01563-.13672v-.5625l-.01171-.1328-.01563-.13282-.03125-.11719-.01562-.13281-.01172-.13281-.03125-.1211-.22266-.22265-.0586-.08594-.01562-.10547.03125-.11719.13281-.01562v-91.41406H172.9922v1.45312l-.0586.23438-.35156 1.05078-.17187.52343-.1172.34766-.17577.41016-.11719.17187-.23438.29297-.23046.0586h-.35157l-.11718.05859-.23047.40625v.29297l.11719.17578.23046.23047.1172.23437.64062.75781.29297.46485.17578.23437.23047.35156.23437.34766.64063.8164.17578.46485.17187.41016.11719.69531.17578.46875.11719 1.39844.0586.46484v.875l.11718 1.04688v4.78125l-.0586.46484-.35156 1.28125-.17578.52344-.11328.41015-.35156.9297L172.93359 336l-.23437.58203-.11719.17578-.17187.34766-.17578.40625-.35157.8164-.0586.29297-.11327.29297-.11719.28906-.0586.17579-.11718.875-.0586.40625-.05859.11718-.0586.17579-.05859.17187-.23047.52734-.11718.17188v.23437l-.11719.23438-.0586.17187-.17577.58594v.28906l-.0586.17579v.29296l-.0586.11329-.05859.52734v.17187l-.05468.23438v2.6211l-.17578.8164-.1172.17578-.17577.23438-.1172.17187-.11327.23438-.58594.93359-.23047.28906-.29297.46485-.17578.23437-.28906.35156-.35156.69922-.11328.23047-.17579.41016-.17578.23046-.40625.52735-.8164.69922-.29297.17187-.28906.23438-.17579.11719-.17578.17578-.52344.40625-.52734.17578-.17187.17578-.23438.05469-.64062.17578h-.75782m12.21094 31.02344l-1.07422.44921.35938.89454 1.25-.71485.44531-.53906-.98047-.08985"/><path fill="#d3d3d3" fill-opacity="0" fill-rule="evenodd" d="M201.50781 416.59766h-.89453l.44922.6289.98047.35938.80469-.08985.4453-.98828-.17577.08985-.71485-.35547-.89453.35547m154.6211 59.0703l-.0586-.52343v-.29297l.11328-.29297.0586-.23046.46875-.46875h.11328l.11719-.11329.11718-.05859h.17579l.23437-.0586h.34766l.23437.0586.11719.0586.23047.17187.0586.17578.11718.58203v.29297l-.11719.17578-.17187.28906-.17579.17579-.52734.52343-.23047.23438-.11719.0586h-.17578l-.11718-.0586-.40625-.29297-.17579-.11719-.11718-.0586-.0586-.11327-.05468-.1172m6.64062-10.95702l-.0586-.17188v-1.10937l.0586-.17188.17578-.0586.17188-.05858h.17578l.23437-.0586.1172.0586.05858.69921-.05859.17188-.11719.17578-.11718.0586-.23438.52343-.11328.0586h-.23438l-.05859-.1172m9.61328-14.39062l-.11719-.17578v-.69922l.29297-.875.1172-.17187.17577-.35156.11328-.23047.1172-.29297.35155-.75781.1172-.23047.17187-.23438h.17578l.11719-.0586h.64062l.11719.0586.23437.23438.17188.11328.35156.29297.11719.11718.11328.17579v.11328l.11719.05859.11718.11719v.69922l-.05859.17578v.23047l-.0586.17578-.34765 1.05078-.11719.23047-.11719.23437-.11718.0586-.23047.23437-.64063.28906h-.875l-.41015-.11718-.64063-.46485"/><path fill="none" stroke="#bebebe" stroke-linecap="round" stroke-linejoin="round" stroke-miterlimit="10" stroke-width=".5" d="M467.95703 311.69531H144.02734v168.625h323.9297v-168.625"/><g clip-path="url(#a)"><path fill="#fff" fill-opacity="0" fill-rule="evenodd" d="M144 475.89063v4.4375h.0039H144V311.67188h.0039H144v164.21875"/></g><g clip-path="url(#b)"><path fill="#fff" fill-opacity="0" fill-rule="evenodd" d="M144.0039 480.32813V311.67188h26.625v129.8828l-4.4375.1875-4.4375 1.48048-.80468 1.59765-2.08594 4.4414-.35547 4.4375 1.11328 4.4375 2.13282 2.38282 4.4375-.34375 4.4375-.96094 4.4375-.89453 4.4414 1.98828 4.4375 1.42579 3.66797-3.59766.76953-1.21875 4.4375.27344v2.33203l-1.54297 3.05078 1.54297.72656 1.19531-.72656-1.1953-3.05078v-2.33203l1.3828-3.4922 2.32032-4.4375-3.70313-2.21483-2.5039 2.21484-1.9336 1.66797-2.71094 2.76953-1.72656 1.15625-4.4375.1875-4.4414 2.71484-.9336-4.0586.9336-.7578 2.6875-3.6797-1.4961-4.4414-1.1914-1.23828-4.4375-2.02734V311.67188h39.9453v108.35156l-4.4375 2.47265-.21093.13282-4.17187 4.4414-.0547.2539-2.43358 4.1836 2.43359 1.5586v16.5l-3.6914 4.1328-.03907 4.4375 3.73047 1.02735 4.4375.3125 4.04687-1.33984-4.04687-2.6875-.26563-1.75-4.17187-4.13281v-16.5l2.0664 2.8789 2.3711 2.23438 4.4375 1.1289 4.4414.39063 3.82813.6836.60938.32812.64843-.32813 3.78906-1.64062 2.39454-2.79688.65625-4.4375-3.05078-3.25-4.4375-.79297-1.07422-.39453-3.36328-4.03125-.4375-.41015-4.00391-2.60547V311.67188h257.42187v168.65625H144.00391"/></g><path fill="#50fcfc" fill-rule="evenodd" d="M159.6211 458.13672l-1.11329-4.4375.35547-4.4375 2.08594-4.4414.80469-1.59766 4.4375-1.48047v3.47656l-4.4375 3.25781-.44922.78516-.89453 4.4375 1.34375 2.86328 4.4375-.88672 2.4375-1.97656 2-1.13672 3.79297-3.30078-3.79297-3.21485-4.4375-.82812v-3.47656l4.4375-.1875 4.4375 2.02734 1.1914 1.23828 1.4961 4.4414-2.6875 3.6797-.9336.7578.9336 4.0586 4.4414-2.71484 4.4375-.1875v3.25781l-.0625.02344.0625.02734.02735-.02734-.02735-.02344v-3.25781l1.72656-1.15625 2.71094-2.76953 1.9336-1.66797 2.5039-2.21485 3.70313 2.21485-2.32031 4.4375-1.38282 3.49219-4.4375-.27344-.76953 1.21875-3.66797 3.59765-4.4375-1.42578-4.4414-1.98828-4.4375.89453-4.4375.96094-4.4375.34375-2.13282-2.38281"/><path fill="#00e8fc" fill-rule="evenodd" d="M161.7539 456.5625l-1.34374-2.86328.89453-4.4375.44922-.78516 4.4375-3.25781 4.4375.82813 3.79297 3.21484-3.79297 3.30078-2 1.13672-2.4375 1.97656-4.4375.88672m22.1914 1.60156l-.0625-.02734.0625-.02344.02735.02344-.02735.02734"/><path fill="#50fcfc" fill-rule="evenodd" d="M192.82031 463.30078l-1.54297-.72656 1.54297-3.05078 1.19531 3.05078-1.1953.72656m8.8789-4.13672l-3.73047-1.02734.03906-4.4375 3.6914-4.13281v1.73046l-2.14452 2.40235 2.14453 2.76953 2.42187-2.76953-2.42187-2.40235v-1.73046l4.17187 4.1328.26563 1.75 4.04687 2.6875-4.04687 1.33985-4.4375-.3125m0-26.09765l-2.4336-1.5586 2.4336-4.1836.05469-.2539 4.17187-4.4414.21094-.13282 4.4375-2.47265v5.5586l-4.4375 1.3125-.16797.17577-.65625 4.4375.82422 1.08203 2.86719 3.35547 1.5703.78906 4.44142.85938 2.77343-1.64844 1.66406-1.26172 4.4375-1.09375.91407-2.08203-.91406-.97265-4.4375-1.21875-4.4375-1.10938-2.82813-1.13672-1.61328-1.48828v-5.5586l4.0039 2.60548.4375.41015 3.36329 4.03125 1.07422.39453 4.4375.79297 3.05078 3.25-.65625 4.4375-2.39453 2.79688-3.78907 1.64062-.64844.32813-.60937-.32813-3.82813-.6836-4.4414-.39062-4.4375-1.1289-2.3711-2.23438-2.0664-2.8789"/><path fill="#00e8fc" fill-rule="evenodd" d="M201.69922 456.46875l-2.14453-2.76953 2.14453-2.40235 2.42187 2.40235-2.42187 2.76953m4.4375-23.8789l-.82422-1.08204.65625-4.4375.16797-.17578 4.4375-1.3125 1.61328 1.48828 2.82813 1.13672 4.4375 1.10938 4.4375 1.21875.91406.97265-.91406 2.08203-4.4375 1.09375-1.66407 1.26172-2.77344 1.64844-4.4414-.85938-1.57031-.78906-2.8672-3.35547"/><g clip-path="url(#c)"><path fill="#fff" fill-opacity="0" fill-rule="evenodd" d="M467.9961 480.32813H468V311.67188h-.0039H468v168.65625h-.0039"/></g><g clip-path="url(#d)"><path fill="none" stroke="#000" stroke-linecap="round" stroke-linejoin="round" stroke-miterlimit="10" stroke-width=".5" d="M147.50781 480.51953l-7.01562-.38281"/></g><g clip-path="url(#e)"><path fill="none" stroke="#000" stroke-linecap="round" stroke-linejoin="round" stroke-miterlimit="10" stroke-width=".5" d="M147.50781 480.51953l1.03516 2.22656"/></g><g clip-path="url(#f)"><path fill="none" stroke="#000" stroke-linecap="round" stroke-linejoin="round" stroke-miterlimit="10" stroke-width=".5" d="M160.82813 480.4336l-7.02344-.21094"/></g><g clip-path="url(#g)"><path fill="none" stroke="#000" stroke-linecap="round" stroke-linejoin="round" stroke-miterlimit="10" stroke-width=".5" d="M160.82813 480.4336l1.08593 2.19921"/></g><g clip-path="url(#h)"><path fill="none" stroke="#000" stroke-linecap="round" stroke-linejoin="round" stroke-miterlimit="10" stroke-width=".5" d="M159.80469 480.40234l.54297 1.10157"/></g><g clip-path="url(#i)"><path fill="none" stroke="#000" stroke-linecap="round" stroke-linejoin="round" stroke-miterlimit="10" stroke-width=".5" d="M174.0625 481.08203l-6.86328-1.50781"/></g><g clip-path="url(#j)"><path fill="none" stroke="#000" stroke-linecap="round" stroke-linejoin="round" stroke-miterlimit="10" stroke-width=".5" d="M174.0625 481.08203l.66016 2.36328"/></g><g clip-path="url(#k)"><path fill="none" stroke="#000" stroke-linecap="round" stroke-linejoin="round" stroke-miterlimit="10" stroke-width=".5" d="M187.36719 481.1211l-6.84375-1.58594"/></g><g clip-path="url(#l)"><path fill="none" stroke="#000" stroke-linecap="round" stroke-linejoin="round" stroke-miterlimit="10" stroke-width=".5" d="M187.36719 481.1211L188 483.49218"/></g><g clip-path="url(#m)"><path fill="none" stroke="#000" stroke-linecap="round" stroke-linejoin="round" stroke-miterlimit="10" stroke-width=".5" d="M200.71875 480.94531l-6.91797-1.23047"/></g><g clip-path="url(#n)"><path fill="none" stroke="#000" stroke-linecap="round" stroke-linejoin="round" stroke-miterlimit="10" stroke-width=".5" d="M200.71875 480.94531l.7539 2.33203"/></g><g clip-path="url(#o)"><path fill="none" stroke="#000" stroke-linecap="round" stroke-linejoin="round" stroke-miterlimit="10" stroke-width=".5" d="M214.08984 480.38672l-7.02734-.11328"/></g><g clip-path="url(#p)"><path fill="none" stroke="#000" stroke-linecap="round" stroke-linejoin="round" stroke-miterlimit="10" stroke-width=".5" d="M214.08984 480.38672l1.1172 2.1836"/></g><g clip-path="url(#q)"><path fill="none" stroke="#000" stroke-linecap="round" stroke-linejoin="round" stroke-miterlimit="10" stroke-width=".5" d="M227.40234 480.26563l-7.02343.1289"/></g><g clip-path="url(#r)"><path fill="none" stroke="#000" stroke-linecap="round" stroke-linejoin="round" stroke-miterlimit="10" stroke-width=".5" d="M227.40234 480.26563l1.19141 2.14453"/></g><g clip-path="url(#s)"><path fill="none" stroke="#000" stroke-linecap="round" stroke-linejoin="round" stroke-miterlimit="10" stroke-width=".5" d="M240.69531 479.91016l-6.98047.83593"/></g><g clip-path="url(#t)"><path fill="none" stroke="#000" stroke-linecap="round" stroke-linejoin="round" stroke-miterlimit="10" stroke-width=".5" d="M240.69531 479.91016l1.39844 2.01562"/></g><g clip-path="url(#u)"><path fill="none" stroke="#000" stroke-linecap="round" stroke-linejoin="round" stroke-miterlimit="10" stroke-width=".5" d="M253.875 479.28516l-6.71094 2.08593"/></g><g clip-path="url(#v)"><path fill="none" stroke="#000" stroke-linecap="round" stroke-linejoin="round" stroke-miterlimit="10" stroke-width=".5" d="M253.875 479.28516l1.74219 1.73047"/></g><g clip-path="url(#w)"><path fill="none" stroke="#000" stroke-linecap="round" stroke-linejoin="round" stroke-miterlimit="10" stroke-width=".5" d="M267.0664 478.94922l-6.46093 2.75781"/></g><g clip-path="url(#x)"><path fill="none" stroke="#000" stroke-linecap="round" stroke-linejoin="round" stroke-miterlimit="10" stroke-width=".5" d="M266.125 479.35156l.95703.76953"/></g><g clip-path="url(#y)"><path fill="none" stroke="#000" stroke-linecap="round" stroke-linejoin="round" stroke-miterlimit="10" stroke-width=".5" d="M280.07422 478.3789l-5.84766 3.89844"/></g><path fill="none" stroke="#000" stroke-linecap="round" stroke-linejoin="round" stroke-miterlimit="10" stroke-width=".5" d="M279.22266 478.94531l1.08203.58203"/><g clip-path="url(#z)"><path fill="none" stroke="#000" stroke-linecap="round" stroke-linejoin="round" stroke-miterlimit="10" stroke-width=".5" d="M293.69922 478.95313l-6.46485 2.75"/></g><g clip-path="url(#A)"><path fill="none" stroke="#000" stroke-linecap="round" stroke-linejoin="round" stroke-miterlimit="10" stroke-width=".5" d="M292.75781 479.35156l.95313.77344"/></g><g clip-path="url(#B)"><path fill="none" stroke="#000" stroke-linecap="round" stroke-linejoin="round" stroke-miterlimit="10" stroke-width=".5" d="M306.85547 478.625l-6.14844 3.40625"/></g><g clip-path="url(#C)"><path fill="none" stroke="#000" stroke-linecap="round" stroke-linejoin="round" stroke-miterlimit="10" stroke-width=".5" d="M305.96094 479.1211l1.02734.66796"/></g><g clip-path="url(#D)"><path fill="none" stroke="#000" stroke-linecap="round" stroke-linejoin="round" stroke-miterlimit="10" stroke-width=".5" d="M319.80078 478.08594l-5.41015 4.48437"/></g><path fill="none" stroke="#000" stroke-linecap="round" stroke-linejoin="round" stroke-miterlimit="10" stroke-width=".5" d="M319.01172 478.73828l1.13672.46485"/><g clip-path="url(#E)"><path fill="none" stroke="#000" stroke-linecap="round" stroke-linejoin="round" stroke-miterlimit="10" stroke-width=".5" d="M332.2539 477.33984l-3.6875 5.98047"/></g><path fill="none" stroke="#000" stroke-linecap="round" stroke-linejoin="round" stroke-miterlimit="10" stroke-width=".5" d="M331.71875 478.20703l1.22266.07813"/><g clip-path="url(#F)"><path fill="none" stroke="#000" stroke-linecap="round" stroke-linejoin="round" stroke-miterlimit="10" stroke-width=".5" d="M343.96875 476.82422l-.48438 7.00781"/></g><g clip-path="url(#G)"><path fill="none" stroke="#000" stroke-linecap="round" stroke-linejoin="round" stroke-miterlimit="10" stroke-width=".5" d="M353.72266 481.48047l6.63671-2.30078"/></g><g clip-path="url(#H)"><path fill="none" stroke="#000" stroke-linecap="round" stroke-linejoin="round" stroke-miterlimit="10" stroke-width=".5" d="M366.84375 480.35938l7.02734-.0586"/></g><g clip-path="url(#I)"><path fill="none" stroke="#000" stroke-linecap="round" stroke-linejoin="round" stroke-miterlimit="10" stroke-width=".5" d="M380.16016 480.21094l7.02343.23828"/></g><g clip-path="url(#J)"><path fill="none" stroke="#000" stroke-linecap="round" stroke-linejoin="round" stroke-miterlimit="10" stroke-width=".5" d="M381.17969 480.24219l-.53516-1.10156"/></g><g clip-path="url(#K)"><path fill="none" stroke="#000" stroke-linecap="round" stroke-linejoin="round" stroke-miterlimit="10" stroke-width=".5" d="M393.79297 478.85938l6.38672 2.9375"/></g><path fill="none" stroke="#000" stroke-linecap="round" stroke-linejoin="round" stroke-miterlimit="10" stroke-width=".5" d="M394.72266 479.28906l-.07032-1.22656"/><g clip-path="url(#L)"><path fill="none" stroke="#000" stroke-linecap="round" stroke-linejoin="round" stroke-miterlimit="10" stroke-width=".5" d="M406.82422 479.83203l6.95703.9961"/></g><g clip-path="url(#M)"><path fill="none" stroke="#000" stroke-linecap="round" stroke-linejoin="round" stroke-miterlimit="10" stroke-width=".5" d="M407.83594 479.97656l-.41797-1.15625"/></g><g clip-path="url(#N)"><path fill="none" stroke="#000" stroke-linecap="round" stroke-linejoin="round" stroke-miterlimit="10" stroke-width=".5" d="M420.60938 478.51172l6.01171 3.63672"/></g><path fill="none" stroke="#000" stroke-linecap="round" stroke-linejoin="round" stroke-miterlimit="10" stroke-width=".5" d="M421.48438 479.03906l.0703-1.22656"/><g clip-path="url(#O)"><path fill="none" stroke="#000" stroke-linecap="round" stroke-linejoin="round" stroke-miterlimit="10" stroke-width=".5" d="M433.78906 478.75781l6.28516 3.14063"/></g><path fill="none" stroke="#000" stroke-linecap="round" stroke-linejoin="round" stroke-miterlimit="10" stroke-width=".5" d="M434.70313 479.21484l-.03125-1.22656"/><g clip-path="url(#P)"><path fill="none" stroke="#000" stroke-linecap="round" stroke-linejoin="round" stroke-miterlimit="10" stroke-width=".5" d="M446.83984 479.47656l6.81641 1.70313"/></g><path fill="none" stroke="#000" stroke-linecap="round" stroke-linejoin="round" stroke-miterlimit="10" stroke-width=".5" d="M447.82813 479.72266l-.29297-1.1875"/><g clip-path="url(#Q)"><path fill="none" stroke="#000" stroke-linecap="round" stroke-linejoin="round" stroke-miterlimit="10" stroke-width=".5" d="M460.28125 479.07422l6.5625 2.51172"/></g><path fill="none" stroke="#000" stroke-linecap="round" stroke-linejoin="round" stroke-miterlimit="10" stroke-width=".5" d="M461.23438 479.4375l-.14844-1.21484"/><g clip-path="url(#R)"><path fill="none" stroke="#000" stroke-linecap="round" stroke-linejoin="round" stroke-miterlimit="10" stroke-width=".5" d="M147.46875 467.5664l-6.9375-1.10546"/></g><path fill="none" stroke="#000" stroke-linecap="round" stroke-linejoin="round" stroke-miterlimit="10" stroke-width=".5" d="M147.46875 467.5664l.79688 2.32032m12.47265-2.08594l-6.84766-1.57422m6.84766 1.57422l.64063 2.36719m12.66797-2.33594l-6.83204-1.63672m6.83203 1.63672l.61329 2.3789m12.75-2.60937l-6.9297-1.17578m6.9297 1.17578l.77343 2.32813m12.4961-2.11328l-6.83985-1.60547m6.83985 1.60547l.625 2.375m12.72265-2.52735l-6.90625-1.30078m6.90625 1.30078l.73047 2.34375m12.63281-3.29687l-7 .60547m7-.60547l1.33594 2.0586m11.94531-2.33595l-6.92968 1.16016m6.92969-1.16016l1.49218 1.94532m11.67578-2.51954l-6.63672 2.3086m6.63672-2.3086l1.80078 1.66407m11.23047-2.27735l-6.07422 3.53516m6.07422-3.53516l2.08594 1.29297m11.07813-1.53515l-5.76563 4.01953m5.76563-4.01953l2.18359 1.12109m11.16406-1.07031l-5.83594 3.91797m5.83594-3.91797l2.16406 1.15625m10.94532-1.42969l-5.42578 4.46484m5.42578-4.46484l2.26562.9414m10.71485-1.29687l-4.75 5.17578m4.75-5.17578l2.375.61328m-3.06641.14063l1.1875.30469m13.00781-.8711l-5.1289 4.80078m5.1289-4.80078l2.32031.79297m-3.0664-.09375l1.16015.39453m12.69922-1.29297l-4.73046 5.19922m4.73046-5.19922l2.37891.60938m10.3086-1.0625l-3.47266 6.10547m2.96875-5.21875l1.22656.03515M370.375 463.5l-.03906 7.02734m.03515-6.0039l1.08594-.57031m11.34766-.34375l1.73437 6.80859m-1.48437-5.8164l.91015-.82813m11.46094.09375l3.1211 6.29297m-2.66797-5.37891l.71484-.9961m10.89453 1.125l5.6289 4.20704m-5.6289-4.20703l.375-2.42578m13.4375 1.88671l4.63281 5.28516m-4.6328-5.28516l.87108-2.29297m14.4375 1.4375l.64454 6.9961m-.64454-6.9961l2.05079-1.34765m9.64062 1.91797l3.89063 5.85547m-3.89063-5.85547l1.16797-2.15625m12.65625 1.8789l2.875 6.41016m-2.45703-5.47656l.75-.96875"/><g clip-path="url(#S)"><path fill="none" stroke="#000" stroke-linecap="round" stroke-linejoin="round" stroke-miterlimit="10" stroke-width=".5" d="M146.99219 455.53906l-5.98438-3.6836"/></g><path fill="none" stroke="#000" stroke-linecap="round" stroke-linejoin="round" stroke-miterlimit="10" stroke-width=".5" d="M146.99219 455.53906l-.15235 2.44922m13.26172-2.15234l-5.57422-4.27735m5.57422 4.27735l-.40234 2.42187m14.09375-3.03125l-6.32813-3.05468m6.32813 3.05468l.09766 2.44922m13.26562-2.55078l-6.42188-2.85156m6.42188 2.85156l.17188 2.44922m13.27343-2.78125l-6.67969-2.1875m6.6797 2.1875l.41796 2.41406m12.90234-2.4336l-6.6914-2.14843m6.6914 2.14844l.4336 2.41406m13.02344-3.0664l-6.97657-.84376m6.97657.84375l.8828 2.28516m12.45704-2.76172l-7.02734.10547m7.02734-.10547l1.1836 2.14844m12.12109-2.375l-7.0039.5586m7.0039-.5586l1.32031 2.07031m11.4375-3.70312l-5.89063 3.82812m5.89063-3.82812l2.14844 1.1914m11.01172-1.41406l-5.58203 4.26953m5.58203-4.26953l2.23047 1.02344m10.99609-1.13281l-5.40235 4.49218m5.40235-4.49219l2.26953.9297m-3.05469-.27735l1.13281.46484m13.10157-.94531l-5.67188 4.14844m5.67188-4.14844l2.20703 1.07031m-3.03125-.46484l1.10156.53125m12.83203-1.39063l-5.26172 4.65625m5.26172-4.65625l2.30078.85938m-3.0664-.1836l2.30078.85938m11.65625-1.66797l-5.01563 4.92188m5.01563-4.92188l2.33984.73828m-3.07031-.02343l2.33984.73828m11.70704-1.45313l-5.01563 4.92188m5.01563-4.92188l2.33984.73828m-3.07031-.02343l1.16796.37109m12.4375-1.46484l-4.13671 5.67968m4.13671-5.67968l2.4297.34375m-3.03126.48046l1.21485.17188m10.8789-1.66016l-.49219 7.00782m.42188-5.98829l1.1211-.5m10.6914-.26953L385 456.94921m-2.65625-6.5039l1.5664-1.88672m11.0547 2.26563l4.04296 5.75m-3.45312-4.91406l.55469-1.09375m13.4414-.30078l1.5 6.86718m-1.5-6.86718l1.8711-1.58594m13.65625 1.82422l-2.92579 6.39062m2.92579-6.39062l2.44921-.14453m-2.875 1.07421l1.22657-.07421m12.70312-.76172l-3.30078 6.20312m3.30078-6.20312h2.45313m-2.9336.90234h2.45313m-2.9336.90234h1.22657m14.08593-.96484l-5.375 4.52344m5.375-4.52344l2.27735.91406m-3.0586-.25781l1.13672.46094m12.79297-1.30469l-5.03906 4.89844"/><g clip-path="url(#T)"><path fill="none" stroke="#000" stroke-linecap="round" stroke-linejoin="round" stroke-miterlimit="10" stroke-width=".5" d="M466.08203 451.25l2.33594.75"/></g><g clip-path="url(#U)"><path fill="none" stroke="#000" stroke-linecap="round" stroke-linejoin="round" stroke-miterlimit="10" stroke-width=".5" d="M146.63672 442.70313l-5.27344-4.64063"/></g><path fill="none" stroke="#000" stroke-linecap="round" stroke-linejoin="round" stroke-miterlimit="10" stroke-width=".5" d="M146.63672 442.70313l-.5664 2.39062m13.68359-2.17969l-4.87891-5.0586m4.8789 5.0586l-.7578 2.33203m13.5078-1.89062l-3.75-5.94531m3.75 5.9453l-1.21874 2.12891m14.98437-2.46484L181.6211 437.75m4.64844 5.26953l-.86328 2.29688m14.6211-2.76563l-5.53516-4.33203m5.53515 4.33203l-.42968 2.41406m13.83203-2.53125l-5.70703-4.09765m4.875 3.5l-.16016 1.21484m14.92969-2.16406l-6.95313-1.00781m5.9414.86328l.41407 1.15234m13.86719-2.26562l-6.86328 1.51172m6.86328-1.51172l1.58984 1.86718m11.7539-.5078l-6.92187-1.20704m5.91407 1.03125l.3828 1.16406m13.60548-3.19531l-6.25 3.20703m5.33984-2.74219l1.00781.70313m12.90625-1.66797l-5.6289 4.20703m5.6289-4.20703l2.21875 1.04297m11.04688-1.10938l-5.52734 4.33985m5.52734-4.33985l2.24219.9922m11.1289-.91798l-5.64062 4.1875m5.64062-4.1875l2.21485 1.05469m-3.03516-.44531l1.10938.52734m12.53906-1.66797l-4.66797 5.25m4.66797-5.25l2.38672.57813m10.83593-.66016l-4.48437 5.41406m4.48437-5.41406l2.40235.4961M332 438.46483l1.20313.2461m13.7578.29687l-6.46874 2.75m6.46875-2.75l1.90625 1.54297m-2.84766-1.14062l1.90625 1.53906m12.21094-2.23047l-6.1914 3.32812m6.1914-3.32812l2.03906 1.36328m-2.9414-.8789l2.04296 1.36328m11.9375-2.22657l-5.71875 4.08594m5.71875-4.08594l2.19532 1.09375m-3.02735-.49609l1.09766.54297m13.44531-.42578l-6.50781 2.65625m6.50781-2.65625l1.88281 1.57031m10.33204-3.01563l-4.3125 5.54688m4.3125-5.54688l2.41796.42188m11.46094.125l-5.4336 4.45703m5.4336-4.45703l2.26172.94531m-3.05469-.29687l1.13282.47265m12.60937-1.5039l-4.70703 5.21875m4.70703-5.21875l2.38281.59765m-3.0664.16407l2.3789.59375m-3.0625.16406l1.1875.29687m13.65235-1.66797l-5.01953 4.92188m5.01953-4.92188l2.33984.7422m-3.07031-.02345l2.33984.73829m-3.07031-.02344l1.16797.3711m14.1836-1.02345l-6.17188 3.35938m6.17187-3.35938l2.04688 1.35157m-2.94532-.86328l2.04688 1.35546m12.26562-1.64843l-6.36718 2.96875"/><g clip-path="url(#V)"><path fill="none" stroke="#000" stroke-linecap="round" stroke-linejoin="round" stroke-miterlimit="10" stroke-width=".5" d="M466.7461 438.89844l1.96093 1.47656"/></g><path fill="none" stroke="#000" stroke-linecap="round" stroke-linejoin="round" stroke-miterlimit="10" stroke-width=".5" d="M465.82031 439.33203l.98047.73828"/><g clip-path="url(#W)"><path fill="none" stroke="#000" stroke-linecap="round" stroke-linejoin="round" stroke-miterlimit="10" stroke-width=".5" d="M147.05078 428.8125l-6.10156-3.48828"/></g><path fill="none" stroke="#000" stroke-linecap="round" stroke-linejoin="round" stroke-miterlimit="10" stroke-width=".5" d="M146.16406 428.30469l-.03906 1.22656m13.54688.14453l-4.71485-5.21484m4.71484 5.21484l-.83593 2.30469m13.97265-2.15625l-4.35547-5.51172m4.35547 5.51172l-.98437 2.2461m14.0625-2.07423l-3.88281-5.85547m3.3164 5.00391l-.58203 1.07813m12.21875.34765l.60547-7.0039m-.51953 5.98437l-1.1289.48047m11.8789-.8164l5.5664-4.29298m11.32422 5.57032l-1.58593-6.84766m14.91797.0039l-1.6211 6.83985m17.58984-4.01562l-6.92578 1.1914m19.67578-2.58203l-5.79687 3.97266m4.95313-3.39453l1.08593.5664m11.80078-2.26953l-3.2539 6.22656m2.78125-5.32421l1.22656-.00782m13.23828-.4336l-4.60937 5.30079m4.60937-5.30078l2.39063.55078m11.22656-.2539l-5.21485 4.71093m5.21485-4.71094l2.3086.83203m11.3125-.4414l-5.82423 3.92969m5.82422-3.9297l2.16797 1.14845m11.72656.42968l-6.98437.76953m6.98437-.76953l1.38282 2.02735m-2.39844-1.91407l.6914 1.01172m13.66016-.75l-7.02734.01953m7.02734-.01953l1.16016 2.16407m-2.17969-2.16016l1.15625 2.16016m-2.17969-2.16016l.57813 1.08203m14.74218-1.59765l-6.94921 1.04687m6.94921-1.04688l1.46094 1.96875m-2.47265-1.8164l1.46093 1.96875m-2.47265-1.8164l.73047.98437m14.57812-1.45313l-6.89062 1.375m6.89062-1.375l1.55469 1.89844m-2.55469-1.69922l1.55078 1.89844m12.66016-2.5039l-6.67969 2.18359m6.67969-2.1836l1.76562 1.70313m-2.73828-1.38672l1.76953 1.70312m12.25-2.6289l-6.14453 3.40625m6.14453-3.40625l2.0586 1.33593m-2.95313-.84375l2.0586 1.33985m11.8203-2.32813l-5.48046 4.39453m5.48047-4.39453l2.2539.96875m-3.05078-.32812l2.25391.96875m-3.05469-.33203l1.1289.48437m13.35938-2.20312l-4.63672 5.27734m4.63672-5.27734l2.39063.5625m-3.0625.20312l2.38672.5664m-3.0625.20313l2.38672.5625m12.86718-1.43359l-5.8164 3.94922m5.8164-3.94922l2.16797 1.14844m-3.01562-.57422l2.17187 1.14844m-3.01562-.57422l1.08203.57422m14.3125-.96485l-6.59375 2.4336m6.59375-2.4336l1.83203 1.63672m-2.79297-1.28125l1.83203 1.63281m12.46875-1.92187l-6.64062 2.30078"/><g clip-path="url(#X)"><path fill="none" stroke="#000" stroke-linecap="round" stroke-linejoin="round" stroke-miterlimit="10" stroke-width=".5" d="M466.88281 425.91797l1.79688 1.66797"/></g><path fill="none" stroke="#000" stroke-linecap="round" stroke-linejoin="round" stroke-miterlimit="10" stroke-width=".5" d="M465.91406 426.2539l.89844.83204"/><g clip-path="url(#Y)"><path fill="none" stroke="#000" stroke-linecap="round" stroke-linejoin="round" stroke-miterlimit="10" stroke-width=".5" d="M147.3125 414.92578l-6.625-2.34375"/></g><path fill="none" stroke="#000" stroke-linecap="round" stroke-linejoin="round" stroke-miterlimit="10" stroke-width=".5" d="M146.34766 414.58203l.18359 1.21485m13.98438-.59375l-6.40235-2.90235m5.46875 2.48047l.07813 1.22656m12.60937.85156l-3.27734-6.21484m3.27734 6.21485l-1.3789 2.03125m15.70703-2.83204l-5.3047-4.60937m4.53126 3.9375l-.27344 1.19531m14.54297-.7539l-5.66797-4.15235m4.84375 3.55078l-.17578 1.21485m14.55469-.98047l-6.14453-3.41406m5.25 2.91796l-.02344 1.22657m12.38281-5.73047l-2.44922 6.58594m17-5.8047l-4.91797 5.02345m17.6211-5.5l-3.69531 5.97656m16.1875-6.35156l-2.04688 6.72265m1.7461-5.74219l1.20702-.23828m14.78516 1.73438l-6.80078 1.77344m5.8125-1.51563l.82813.90234m13.54687.26172l-6.94531-1.07422m6.94531 1.07422l.8086 2.3164m12.51952-2.41796l-6.97265-.86719m6.97265.86719l.87891 2.29297m12.46094-2.89844l-7.01953.34375m7.01953-.34375l1.25781 2.10938m-2.27734-2.0586l.625 1.05469m13.60937-.08203l-6.8164-1.70313m6.8164 1.70313l.58985 2.38281m-1.58204-2.6289l.58985 2.3789m13.74219-2.23437l-6.8672-1.5m6.8672 1.5l.66406 2.35937m-1.66406-2.57812l.66406 2.35937m13.73047-2.91797l-7.02735.05469m7.02735-.05469l1.16797 2.15625m-2.19141-2.14843l.58594 1.07812m13.69531-1.69922l-6.91016 1.28125m6.91016-1.28125l1.52734 1.92188m-2.53515-1.73438l1.52734 1.91797m12.70703-2.46484l-6.73828 2m6.73828-2l1.72266 1.75m-2.70313-1.45703l1.72266 1.74609m-2.70313-1.45703l.86329.875m14.4453-1.33985l-6.80077 1.76563m6.80078-1.76563l1.66015 1.8086m-2.64843-1.55078l1.66015 1.80468m-2.65234-1.55078l.83203.90625m14.14453-2.22656l-6.16015 3.38281m6.16015-3.38281l2.05078 1.34375m-2.94921-.85156l2.05468 1.34375m-2.94922-.85156l2.05079 1.34375m13.26171-1.875l-6.57421 2.47656m6.57421-2.47656l1.84375 1.62109m-2.79687-1.26172l1.83984 1.6211m-2.79687-1.26172l1.83984 1.62109m13.54297-1.79688l-6.88672 1.39063m6.88672-1.39063l1.5586 1.89844m-2.5586-1.69531l1.55469 1.89453m-2.5586-1.6914l.77735.9453m14.47265-1.6328l-6.75 1.94921m6.75-1.94922l1.70704 1.76172m-2.6875-1.47656l1.70703 1.76172m-2.69141-1.47656l.85547.8789m14.39844-1.53906l-6.69532 2.13281"/><g clip-path="url(#Z)"><path fill="none" stroke="#000" stroke-linecap="round" stroke-linejoin="round" stroke-miterlimit="10" stroke-width=".5" d="M466.91016 412.6875l1.7539 1.71484"/></g><path fill="none" stroke="#000" stroke-linecap="round" stroke-linejoin="round" stroke-miterlimit="10" stroke-width=".5" d="M465.9336 413l1.7578 1.71484"/><g clip-path="url(#aa)"><path fill="none" stroke="#000" stroke-linecap="round" stroke-linejoin="round" stroke-miterlimit="10" stroke-width=".5" d="M147.51172 400.50781l-7.02344-.13672"/></g><path fill="none" stroke="#000" stroke-linecap="round" stroke-linejoin="round" stroke-miterlimit="10" stroke-width=".5" d="M146.49219 400.48828l.55469 1.09375m12.8828 1.20313l-5.23046-4.69141m4.46875 4.00781l-.29297 1.1914m13.9961-.14843l-4.48048-5.41406m3.82813 4.6289l-.46875 1.13282m12.9961.36719l-1.60157-6.84375m1.36719 5.84765l-.92578.8086m15.67578-6.1211l-4.0039 5.77344m16.58593-6.16016l-2.53906 6.55078m18.08984-3.51562l-7.00781.47656m7.00781-.47656l1.29688 2.08594m11.85937-.77344l-6.6914-2.14453m6.6914 2.14453l.4375 2.41406m-1.41016-2.72656l.4336 2.41406m-1.40625-2.72656l.21484 1.20703M253.8711 401.5l-6.69922-2.1211m6.69922 2.1211l.44141 2.41406m-1.41797-2.72265l.44531 2.41406m-1.41797-2.72266l.21875 1.20703m15.15235-1.03125l-6.91406-1.23828m6.91406 1.23828l.7539 2.33594m-1.7578-2.51562l.75 2.33203m-1.75782-2.51563l.7539 2.33594m14.62891-2.64063l-7.02734.09375m7.02734-.09375l1.17969 2.15235m-2.20312-2.13672l1.17968 2.14844m-2.19922-2.13672l.58985 1.07812m14.7539-.74609l-7-.625m7 .625l.95704 2.26172m-1.97657-2.35156l.95703 2.2578m13.31641-1.75l-6.875-1.46093m6.875 1.46094l.67578 2.35937m12.71094-2.89062l-7.01563-.39844m7.01563.39844l1.02344 2.23047m12.28906-2.61719l-7.01563.3789m7.01563-.3789l1.26953 2.10156m-2.28906-2.04687l.63281 1.05078m13.23438.84765l-6.07813-3.53125m6.07813 3.53125l-.09375 2.45313m-.79297-2.96484l-.04688 1.22265m12.90235.60547l-3.38672-6.16015m3.38672 6.16015l-1.34375 2.05078m16.39843-4.3789l-6.86328-1.50782m6.86328 1.50782l.66016 2.36328m-1.66016-2.58203l.32813 1.18359M387 399.3125l-6.65625 2.2539M387 399.3125l1.78516 1.67969m-2.75391-1.35156l1.78516 1.67968m12.6289-1.50781l-6.91797 1.25m6.91797-1.25l1.51563 1.92969m-2.52344-1.7461l1.51953 1.92579m12.83203-1.91797l-6.97265.86718m6.97265-.86718l1.41016 2.0078m-2.42578-1.8789l1.41015 2.00781m-2.42578-1.8828l.70703 1.0039m14.6172-1.40235l-6.9297 1.16016m6.9297-1.16015l1.49218 1.9453m-2.5-1.77734l1.49219 1.94532m-2.5-1.77735l.74609.97266m14.625-.95313l-7.01172.44922m7.01172-.44922l1.28906 2.08594m-2.3086-2.02344l1.28907 2.08985m-2.3086-2.02344l.64454 1.04688m14.6836-1.4336l-6.96094.96485m6.96093-.96485l1.4375 1.98438m-2.44922-1.84375l1.4375 1.98437m-2.44921-1.84375l.71875.99219m14.55859-1.60547l-6.83594 1.625"/><g clip-path="url(#ab)"><path fill="none" stroke="#000" stroke-linecap="round" stroke-linejoin="round" stroke-miterlimit="10" stroke-width=".5" d="M466.98047 399.625l1.6211 1.83984"/></g><path fill="none" stroke="#000" stroke-linecap="round" stroke-linejoin="round" stroke-miterlimit="10" stroke-width=".5" d="M465.98438 399.86328l1.62109 1.83985m-2.61328-1.60547l.8086.92187"/><g clip-path="url(#ac)"><path fill="none" stroke="#000" stroke-linecap="round" stroke-linejoin="round" stroke-miterlimit="10" stroke-width=".5" d="M147.46875 386.5586l-6.9375 1.1289"/></g><path fill="none" stroke="#000" stroke-linecap="round" stroke-linejoin="round" stroke-miterlimit="10" stroke-width=".5" d="M147.46875 386.5586l1.48438 1.94921m11.86718-1.64844l-7.00781.52735m5.98828-.44922l.65234 1.03516m13.10157-2.79297l-5.85156 3.89062m5-3.32812l1.08203.58594m7.46093-1.45313l5.39844 4.4961m-4.61328-3.83985l.25-1.20313m11.76953 1.3672l6.42188 2.85546m13.16015.30078l-6.11719-3.45703m6.1172 3.45703l-.0625 2.45313m-.82423-2.95703l-.0664 2.45312m14.46094-2.34375l-6.5-2.66797m6.5 2.66797l.24609 2.4414m-1.1914-2.83202l.24609 2.4414M225.25 387.6797l.24219 2.4414m15.04687-1.88671l-6.66797-2.22266m6.66797 2.22265l.40625 2.41797m-1.375-2.74218l.40625 2.42187m-1.3789-2.7461l.20703 1.21094m15.08984-.6914l-6.7461-1.96485m6.7461 1.96485l.5 2.40234m-1.48047-2.6875l.25 1.19922m14.15625-2.33984l-6.96875.88672m6.96875-.88672l1.41797 2.0039m-2.42969-1.875l.70704 1.00391m13.4375-1.89063l-6.60547 2.40235m6.60547-2.40235l1.82421 1.64063m11.48828-1.64063l-6.60156 2.40625m6.60156-2.40625l1.82422 1.64063m11.3711-1.9336l-6.35938 2.98829m6.35938-2.98828l1.96484 1.46875M320.5 386.2539l-6.8086 1.73828m6.8086-1.73828l1.65234 1.8125m11.7461-1.38282l-6.97266.87891m6.97266-.8789l1.41406 2.0078m11.60156-.09374l-6.3789-2.94922m5.45312 2.51953l.0664 1.22656m14.32032-1.16406l-6.66797-2.21485m6.66797 2.21485l.41016 2.41797m-1.37891-2.74219l.20313 1.21094m14.24609-2.30078l-7 .61328m7-.61328l1.33594 2.05859m-2.35157-1.96875l1.33204 2.0586m-2.35157-1.96876l.66797 1.02735m14.61328-1.66016l-6.85937 1.51953m6.85937-1.51953l1.59375 1.86719m-2.58984-1.64453l1.58984 1.86719m12.63281-2.41016l-6.68359 2.16015m6.6836-2.16015l1.76562 1.70703m-2.73828-1.39453l1.76562 1.70703m12.48047-2.14844L407 388.33203m6.60156-2.41797l1.82422 1.64063m-2.78515-1.28906l1.82812 1.64062m12.61719-1.33203l-6.9414 1.09765m6.9414-1.09765l1.47656 1.96094m-2.48438-1.80079l1.47657 1.96094m12.89062-1.64062l-7.02734.13672m7.02734-.13672l1.19531 2.14062m-2.21875-2.1211l1.19532 2.14454m-2.21875-2.125l.59765 1.07031m14.76563-1.01953l-7.02735-.04297m7.02735.04297l1.13672 2.17188m-2.16016-2.1797l1.13672 2.17579m-2.16016-2.17969l.57032 1.08594m14.78515-1.28516l-7.01562.37891"/><g clip-path="url(#ad)"><path fill="none" stroke="#000" stroke-linecap="round" stroke-linejoin="round" stroke-miterlimit="10" stroke-width=".5" d="M467.07031 386.9336l1.26563 2.10156"/></g><path fill="none" stroke="#000" stroke-linecap="round" stroke-linejoin="round" stroke-miterlimit="10" stroke-width=".5" d="M466.05078 386.98828l1.26563 2.10156m-2.28907-2.04687l.63282 1.05078"/><g clip-path="url(#ae)"><path fill="none" stroke="#000" stroke-linecap="round" stroke-linejoin="round" stroke-miterlimit="10" stroke-width=".5" d="M147.35547 372.76953l-6.71094 2.07813"/></g><path fill="none" stroke="#000" stroke-linecap="round" stroke-linejoin="round" stroke-miterlimit="10" stroke-width=".5" d="M147.35547 372.76953l1.74219 1.73047m11.73047-.77344l-7.02735.16406m6.0039-.14062l.60157 1.07031m13.42969.42578l-6.41406-2.875m5.48046 2.45704l.08594 1.22265m13.26953-4.88672l-4.625 5.28906m3.95313-4.51953l1.19531.27735m13.69922 3l-6.4414-2.80469m6.4414 2.80469l.1914 2.44531m12.63672-1.64063l-5.46875-4.41406m5.46875 4.41406l-.46484 2.41016m-.32813-3.05469l-.46484 2.41016m-.33203-3.05078l-.46484 2.41015m-.33203-3.05078l-.23047 1.20313m16.28125.20312l-6.16407-3.375m6.16407 3.375l-.02735 2.45313m-.8711-2.94531l-.02733 2.45312m14.58984-2.88672l-6.85938-1.52344m6.85938 1.52344l.65234 2.36328m-1.65234-2.58593l.65625 2.36718M254.02734 374l-7.01562-.38281m7.01562.38281l1.03516 2.22656m-2.05469-2.28125l.51563 1.11328m13.80469-1.625l-6.98438.7461m6.98438-.7461l1.375 2.03516m-2.39063-1.92578l.6875 1.01562m13.52734-1.71875l-6.7539 1.9375m6.7539-1.9375l1.70703 1.76172m-2.6875-1.48047l.85157.88282m13.50781-.90625l-6.88281 1.42187m6.88281-1.42187l1.5664 1.88671m-2.5664-1.67968l1.5664 1.88672m12.71876-2.22266l-6.82422 1.67969m6.82422-1.67969l1.63671 1.82813m-2.6289-1.58594l1.63672 1.83203m12.71094-1.88672l-6.90235 1.30469m6.90235-1.30469l1.53515 1.91406m-2.53906-1.72265l1.53515 1.91406m12.82422-1.83594l-6.98437.76563m6.98437-.76563l1.38282 2.02735m-2.39844-1.91407l.6914 1.01172m13.66016-.63281l-7.02344-.21875m7.02344.21875l1.08203 2.20312m-2.10547-2.23437l1.08594 2.20312m13.2539-2.18359l-7.02734-.19531m7.02735.19531l1.08984 2.19922m-2.11328-2.22656l1.08984 2.19921m-2.11328-2.22656l.54688 1.09766m14.8086-1.33985l-7.01563.39844m7.01562-.39844l1.27344 2.09766m-2.29297-2.03906l1.27344 2.09765m-2.29297-2.03906l1.26953 2.09766m14.02344-2.70703L380.22656 374.5m6.89063-1.38281l1.55469 1.89453m-2.5586-1.69531l1.5586 1.89843m-2.5625-1.6953l.78125.94921m14.54296-1.33203l-6.89453 1.33984m6.89453-1.33984l1.54688 1.91015m-2.54688-1.71484l1.54297 1.91016m-2.54687-1.71485l.76953.95313m14.58203-1.16797l-6.95703.99219m6.95703-.99219l1.44531 1.98047m-2.46094-1.83594l1.44922 1.98047m12.89454-2.02344l-6.98438.78516m6.98438-.78516l1.38671 2.02735m-2.40234-1.91016l1.38672 2.02344m12.95703-1.97656l-7.01172.46093m7.01172-.46094l1.29297 2.08594m-2.3125-2.01953l1.29297 2.08594m13.05078-1.89453l-7.02735-.05469m7.02735.05469l1.13281 2.17578m-2.15625-2.1836l1.13281 2.17579m13.20313-2.25l-7.02735.10937"/><g clip-path="url(#af)"><path fill="none" stroke="#000" stroke-linecap="round" stroke-linejoin="round" stroke-miterlimit="10" stroke-width=".5" d="M467.07422 373.7539l1.1836 2.14844"/></g><path fill="none" stroke="#000" stroke-linecap="round" stroke-linejoin="round" stroke-miterlimit="10" stroke-width=".5" d="M466.05078 373.76953l.59375 1.07422"/><g clip-path="url(#ag)"><path fill="none" stroke="#000" stroke-linecap="round" stroke-linejoin="round" stroke-miterlimit="10" stroke-width=".5" d="M147.13672 358.91016l-6.27344 3.16796"/></g><path fill="none" stroke="#000" stroke-linecap="round" stroke-linejoin="round" stroke-miterlimit="10" stroke-width=".5" d="M147.13672 358.91016l2.0039 1.41406m11.29688-1.4375l-6.2461 3.21484m6.2461-3.21484l2.01563 1.39844m9.29687 3.53906l-2.23828-6.66016m16.54687 6.13672l-4.22656-5.61328m3.61328 4.79688l-.51953 1.10937m14.96094-.76563l-5.25-4.67187m5.25 4.67188l-.58203 2.38671m-.1836-3.0664l-.28906 1.1914m14.23828-.375l-4.99219-4.9453m4.9922 4.9453l-.70704 2.35157m-.01953-3.07032l-.70703 2.35157m-.01953-3.07032l-.35156 1.17579m15.8125-.73438l-6.375-2.95313m6.375 2.95313l.13671 2.44922m-1.0625-2.8789l.13282 2.44921m14.24218-2.35547l-6.64453-2.28125m6.64453 2.28125l.38672 2.42578m-1.35156-2.7578l.1914 1.21483m14.27344-2.2578l-7.01172.47265m7.01172-.47266l1.29297 2.08203m-2.3125-2.01562l1.29297 2.08594m13.02734-2.3125l-6.98437.79296m6.98438-.79296l1.38671 2.02343m-2.40234-1.91015l1.38672 2.02344m12.95312-2.02344l-7.0039.5625m7.0039-.5625l1.32422 2.0664m-2.34375-1.98437l1.32422 2.0664m12.98828-2.34375l-6.96094.95313m6.96094-.95313l1.4375 1.9922m-2.44922-1.85157l1.4375 1.98828m12.91016-1.96484l-7 .6289m7-.6289l1.33984 2.05078m-2.35937-1.96094l1.34375 2.05469m-2.36328-1.96485l1.34375 2.0547m14.01562-2.13673l-7.01172.4297m7.01172-.4297l1.28516 2.09375m-2.30469-2.03125l1.28125 2.09375m-2.30078-2.03125l.64062 1.04688m14.70704-1.28906l-6.9961.66406m6.9961-.66406l1.35156 2.05078m-2.3711-1.95313l1.35157 2.05078m12.9961-1.71484l-7.02345-.19922m7.02344.19922l1.08984 2.19922m-2.11328-2.23047l1.08985 2.19922m-2.10938-2.22656l.54297 1.09765m14.8164-1.25l-7.02343.22266m7.02344-.22266l1.21875 2.1289m-2.24219-2.09765l1.21875 2.1289m-2.24219-2.09765l1.22266 2.1289m14.11719-2.48046l-6.98047.79688m6.98047-.79688l1.39062 2.02344m-2.40625-1.90625l1.39063 2.02344m-2.40625-1.90625l1.39062 2.01953m-2.40625-1.90625l.69531 1.01171m15.625-1.6328l-6.89843 1.34374m6.89843-1.34375l1.54297 1.90625m-2.54687-1.71094l1.54297 1.90625m-2.54688-1.71093l1.54688 1.90625m-2.55079-1.71094l.77344.95313m15.55469-1.53516l-6.90234 1.33594m6.90234-1.33594l1.54297 1.91015m-2.54688-1.71484l1.54297 1.90625m-2.54687-1.71094l1.54297 1.90625m13.77343-2.3164l-6.89062 1.3789m6.89062-1.3789l1.5547 1.89844m-2.5586-1.69922l1.55468 1.89843m-2.55468-1.6953l.77734.94921m14.52344-1.4414l-6.85156 1.55468m6.85156-1.55469l1.60156 1.85938m-2.59766-1.63281l1.60157 1.85937m-2.59766-1.63281l.80078.92969m14.51953-1.32032l-6.8789 1.4336m6.8789-1.4336l1.57032 1.88672m-2.57032-1.67969l1.57032 1.88672m-2.57032-1.67578l.78125.9414m14.56641-1.17968l-6.94531 1.07422m6.94531-1.07422l1.46875 1.96485m-2.48047-1.8086l1.46875 1.96485m-2.47656-1.8086l.73437.98047m14.47266-1.83203l-6.6914 2.15234"/><g clip-path="url(#ah)"><path fill="none" stroke="#000" stroke-linecap="round" stroke-linejoin="round" stroke-miterlimit="10" stroke-width=".5" d="M466.90625 359.41797l1.76172 1.71094"/></g><path fill="none" stroke="#000" stroke-linecap="round" stroke-linejoin="round" stroke-miterlimit="10" stroke-width=".5" d="M465.9336 359.73047l1.7578 1.71094"/><g clip-path="url(#ai)"><path fill="none" stroke="#000" stroke-linecap="round" stroke-linejoin="round" stroke-miterlimit="10" stroke-width=".5" d="M146.71875 344.95313l-5.4375 4.44921"/></g><path fill="none" stroke="#000" stroke-linecap="round" stroke-linejoin="round" stroke-miterlimit="10" stroke-width=".5" d="M145.92969 345.60156l1.1289.47266m13.26172-.71485l-6.01172 3.63672m5.13672-3.10937l1.05469.6289m13.57422-.02734l-6.89063 1.3789m5.89063-1.17968l.77734.94922m10.7539 2.99219l-1.3203-6.90235m1.1289 5.89844l-.95703.76953m16-.47265l-4.39062-5.48829m4.39062 5.48829l-.97266 2.2539m13.52344-1.78906l-2.86328-6.41797m2.86328 6.41797l-1.50781 1.9336m1.08984-2.8672l-1.5078 1.9336m16.28515-1.71485l-4.95313-4.98828m4.95313 4.98829l-.72656 2.34375m.0039-3.07032l-.72266 2.34375m15.48047-2.64844l-6.39062-2.92578m6.39062 2.92579l.14453 2.44921m-1.07421-2.875l.14453 2.44922m14.375-2.95312l-6.94531-1.0625m6.9453 1.0625l.8125 2.3164m-1.8203-2.47265l.80859 2.3164m13.54687-2.4414l-7.0078-.5039m7.0078.5039l.9922 2.2461m-2.01173-2.32032l.99219 2.2461m13.34375-2.19923l-7.01172-.44921m7.01172.44921l1.01172 2.23829m-2.03125-2.3047l1.01172 2.23829m13.32812-2.28125l-7.02344-.23047m7.02344.23047L295.0586 349.5m-2.10156-2.23828l1.07813 2.20312m13.2578-2.17187l-7.02343-.23047m7.02344.23047l1.08203 2.20312m-2.10547-2.23828l1.08203 2.20313m-2.10156-2.23438l.53906 1.10156m14.8164-1.27734l-7.01952.2539m7.01953-.2539l1.23047 2.1211m-2.25-2.08594l1.23047 2.125m-2.25391-2.08594l1.23047 2.1211m14.10156-2.52344l-6.96875.91406m6.96875-.91406l1.42578 1.99609m-2.4375-1.86328l1.42188 1.9961m-2.4375-1.86329l.71093.9961m14.65235-1.04688l-7.00781.48047m7.0078-.48047l1.30079 2.08203m-2.32031-2.01172l1.29687 2.08203m-2.3164-2.01171l.64843 1.03906m14.71094-.80469l-7.01953-.26563m7.01953.26563l1.07031 2.20703m-2.08984-2.2461l1.0664 2.20704m-2.08984-2.2461l1.07031 2.20704m14.26954-2.65235l-6.98438.77735m6.98438-.77735l1.3828 2.02735m-2.39843-1.91407l1.38281 2.02735m-2.39843-1.91406l1.3828 2.02734m-2.39843-1.91406l.6914 1.01171m15.59376-1.78515L380.2539 348m6.83203-1.64453l1.6289 1.83984m-2.62109-1.59765l1.625 1.83593m-2.6211-1.59765l1.62891 1.83594m13.63281-2.47657l-6.74609 1.96485m6.7461-1.96485l1.71093 1.75781m-2.6914-1.47265l1.71093 1.75781m-2.6953-1.47265l1.71483 1.7578m13.51954-2.46874l-6.65625 2.25m6.65625-2.25l1.78515 1.6836m-2.7539-1.35938l1.78515 1.68359m-2.7539-1.35547l1.78515 1.6836m-2.7539-1.35547l.89453.83984m15.29297-1.91406l-6.58985 2.4375m6.58985-2.4375l1.83203 1.6289m-2.78907-1.27734l1.83204 1.63281m-2.79297-1.27734l1.83203 1.63281m-2.78906-1.27734l.91406.8164m15.3711-1.58593l-6.77735 1.84765m6.77734-1.84765l1.6836 1.78515m-2.66797-1.51562l1.67968 1.78515m-2.66796-1.51562l1.68359 1.78515m13.5664-2.45703l-6.70312 2.11329m6.70313-2.11329l1.75 1.72266m-2.72657-1.41406l1.75 1.71875m-2.72265-1.41016l.875.85938m14.30468-1.71094l-6.53515 2.58594"/><g clip-path="url(#aj)"><path fill="none" stroke="#000" stroke-linecap="round" stroke-linejoin="round" stroke-miterlimit="10" stroke-width=".5" d="M466.82813 345.88672l1.86718 1.58984"/></g><path fill="none" stroke="#000" stroke-linecap="round" stroke-linejoin="round" stroke-miterlimit="10" stroke-width=".5" d="M465.8789 346.26172l1.8672 1.58984m-2.82032-1.21484l.9375.79687"/><g clip-path="url(#ak)"><path fill="none" stroke="#000" stroke-linecap="round" stroke-linejoin="round" stroke-miterlimit="10" stroke-width=".5" d="M141.46484 336.29688l5.07032-4.8672"/></g><path fill="none" stroke="#000" stroke-linecap="round" stroke-linejoin="round" stroke-miterlimit="10" stroke-width=".5" d="M160.6914 332.89063l-6.7539 1.9414m19.5039 1.13672l-5.62109-4.21484m4.80469 3.60156l-.1914 1.21484m14.84374-1.59765l-6.66406-2.22266m6.66406 2.22266l.41016 2.42187m11.02734-.33203l-2.91015-6.39844m2.91015 6.39844l-1.49609 1.94531m1.07422-2.8789l-1.4961 1.94921m15.65235-1.24218l-3.75-5.94531m3.75 5.9453l-1.21484 2.12891m.67187-2.99609l-1.21875 2.13281m.67188-2.9961l-.60938 1.06642m15.02344.65625l-3.76953-5.9297m3.76953 5.9297l-1.20703 2.1328m.66015-2.99609l-1.21094 2.13672m.66407-3l-.60547 1.0664m15.5039.28907l-4.74218-5.1875m4.74219 5.1875l-.82032 2.3125m.1289-3.07031l-.8203 2.3125m15.47265-2.34766l-6.03515-3.60156m6.03515 3.60156l-.1211 2.44922m-.7578-2.97265l-.1211 2.44921m-.75781-2.97265l-.0586 1.22265m15.4297-.8203l-6.63673-2.3125m6.63672 2.3125l.375 2.42577m-1.33984-2.76172l.375 2.42188m-1.33984-2.75781l.1875 1.21093m15.22265-1.23828l-6.96484-.91406m6.96484.91406l.86328 2.29688m-1.875-2.42969l.85938 2.29688m-1.875-2.4297l.42969 1.14844m14.91406-.87109l-6.96484-.9414m6.96484.9414l.85156 2.30469m-1.86719-2.4414l.85157 2.30077m-1.86328-2.4375l.42578 1.15235m14.92578-.97266l-6.98438-.75m6.98438.75l.91406 2.27735m-1.92969-2.38672l.91407 2.27734m-1.9297-2.38672l.45704 1.14063m14.91016-1.22266l-7.02735-.14844m7.02735.14844l1.10546 2.1914m-2.1289-2.21484l1.10547 2.1914m-2.12891-2.21093l.55469 1.09375m14.80078-.91797l-7.01563-.41406m7.01563.41406l1.01953 2.23438m-2.03906-2.29297l1.01953 2.23047m-2.03906-2.29297l.5078 1.11719m14.78517-.51563l-6.89063-1.375m6.89063 1.375l.70312 2.35156m-1.70703-2.55078l.70703 2.35156m-1.70703-2.55078l.35156 1.17579m14.9375-.64844l-6.83203-1.63281m6.83203 1.6328l.61719 2.375m-1.60938-2.61327l.6172 2.375m-1.61329-2.61329l.3086 1.1875m15.08984-1.625l-7.02344.19532m7.02344-.19531l1.21094 2.1328m-2.23047-2.10546l1.21093 2.13281m-2.23437-2.10547l1.21094 2.13672m14.11718-2.5586l-6.96484.9297m6.96484-.9297l1.4297 1.9961m-2.44141-1.85937l1.42578 1.99609m12.57812-3.20313l-6.3164 3.07032m6.3164-3.07031l1.98438 1.4453m-2.90235-1l.99219.72266m13.28516-1.08203l-6.40235 2.89844m6.40235-2.89844l1.9414 1.5m-2.875-1.07812l1.94532 1.4961m12.35546-1.79298l-6.5078 2.64844m6.5078-2.64844l1.88282 1.57422m-2.82813-1.1875l1.88281 1.57031m12.375-1.96875l-6.5039 2.66797m6.5039-2.66797l1.88672 1.57032m-2.83593-1.1797l1.89062 1.56642m-2.83594-1.1797l1.89063 1.56641m13.38672-2.16015l-6.64063 2.30469m6.64063-2.3047l1.79687 1.66798m-2.76172-1.33204l1.79688 1.66797m-2.76563-1.33203l1.80078 1.66797m-2.76562-1.33594l.89844.83594m15.16015-2.21484l-6.32812 3.05469"/><g clip-path="url(#al)"><path fill="none" stroke="#000" stroke-linecap="round" stroke-linejoin="round" stroke-miterlimit="10" stroke-width=".5" d="M466.72656 332.33594l1.97656 1.44922"/></g><g clip-path="url(#am)"><path fill="none" stroke="#000" stroke-linecap="round" stroke-linejoin="round" stroke-miterlimit="10" stroke-width=".5" d="M465.80469 332.78125l1.98047 1.44922"/></g><path fill="none" stroke="#000" stroke-linecap="round" stroke-linejoin="round" stroke-miterlimit="10" stroke-width=".5" d="M464.88281 333.22266l1.98047 1.45312"/><g clip-path="url(#an)"><path fill="none" stroke="#000" stroke-linecap="round" stroke-linejoin="round" stroke-miterlimit="10" stroke-width=".5" d="M147.28516 319.30469l-6.57032 2.48828"/></g><path fill="none" stroke="#000" stroke-linecap="round" stroke-linejoin="round" stroke-miterlimit="10" stroke-width=".5" d="M146.32813 319.66797l.92578.8086m8.5625 3.25l3-6.35548m-2.56641 5.4297l-1.22266.05858m12.08985-2.18359l7.02344-.25781m9.59375 3.63672l.42187-7.01563m-.36328 5.9961l-1.11328.5078m15.48047.40235l-1.80078-6.79297m1.80078 6.79297l-1.79688 1.66797m1.53516-2.65625l-1.79688 1.66797m15.48828-.71484l-2.02734-6.72657m2.02734 6.72657l-1.74218 1.73046m1.4453-2.70703l-1.73827 1.72657M211 321.95312l-.8711.8672m15.13673.96093l-2.75-6.46484m2.75 6.46484l-1.54297 1.90625m1.14453-2.84766l-1.54297 1.91016m1.14062-2.85156l-1.54297 1.91015m16.23829-.33984l-3.91016-5.83984m3.91016 5.83984L238 325.62891m.58984-3.01172l-1.16015 2.16406m.59375-3.01172l-.58203 1.08203m15.6953.03906l-5.23437-4.6875m5.23438 4.6875l-.58594 2.38282m-.17578-3.0625l-.58594 2.38281m-.17578-3.0664l-.29297 1.1914m15.6211-.52734l-6.21094-3.28907m6.21094 3.28907l.0039 2.45312m-.90625-2.92969l.0039 2.45313m-.91015-2.9336l.0039 2.45313m15.42188-2.28516l-6.8164-1.70703m6.8164 1.70703l.58985 2.38282m-1.58203-2.63282l.58984 2.38282m-1.58203-2.62891l.29687 1.1914m15.05078-.92187l-6.91406-1.25781m6.91406 1.25781l.7461 2.33985m-1.75-2.52344l.7461 2.33984m-1.75391-2.51953l.375 1.16797m14.97265-.91797l-6.95312-1.02734m6.95312 1.02734l.82422 2.3086m-1.83594-2.46094l.82422 2.3125m-1.83593-2.46094l.82421 2.3125m14.55079-2.41797l-7.02344-.21875m7.02344.21875l1.08203 2.20313m-2.10547-2.23438l1.08594 2.20313m-2.10938-2.23438l1.08594 2.19922m14.27734-2.2461h-7.02734m7.02734 0l1.15235 2.16797m-2.17579-2.16796l1.15235 2.16796m-2.17578-2.16796l.57812 1.08593m14.78125-1.21094l-7.02344.25m7.02344-.25l1.22656 2.125m-2.25-2.08593l1.23047 2.1211m13.05078-1.39063l-6.91015-1.28907m5.90234 1.10157l.36719 1.17187m13.83984-2.72265l-6.67578 2.1914m6.67578-2.1914l1.76953 1.69921m11.6172-1.4453l-6.82423 1.67968m6.82422-1.67969l1.63672 1.82813m-2.6289-1.58204l.8203.91407m13.52344-.9961l-6.89453 1.35547m5.89063-1.16015l.77344.95312m11.82812-3.53125l-3.46094 6.11719m2.95703-5.22656l1.22657.03125m13.74218.125l-5.7578 4.02734m18.39452-4.7539l-4.40234 5.47656m4.40234-5.47657l2.41016.46094m11.72266.48047l-6.03516 3.59766m6.03516-3.59766l2.09765 1.26953m-2.97656-.7461l2.09766 1.26954m11.7539-2.26953l-5.35547 4.55078"/><g clip-path="url(#ao)"><path fill="none" stroke="#000" stroke-linecap="round" stroke-linejoin="round" stroke-miterlimit="10" stroke-width=".5" d="M466.23828 318.27344l2.28125.90625"/></g><path fill="none" stroke="#000" stroke-linecap="round" stroke-linejoin="round" stroke-miterlimit="10" stroke-width=".5" d="M465.46094 318.9336l2.28125.90624m-3.0625-.24218l2.28125.90625m-3.0586-.2461l1.14063.45313"/><path fill="#ff3030" fill-rule="evenodd" d="M313.48047 467.64844h7.6914V457.5039h-7.6914v10.14453"/><path fill="azure" fill-rule="evenodd" d="M315.3125 459.33594h.83594v5.73828h3.1914v.74219h-4.02734v-6.48047"/><path fill="#ff3030" fill-rule="evenodd" d="M229.15234 463.21094h7.69141V453.0625h-7.6914v10.14844"/><path fill="azure" fill-rule="evenodd" d="M230.98438 454.89844h.83203v5.73828h3.1953v.74219h-4.02733v-6.48047"/><path fill="#ff3030" fill-rule="evenodd" d="M459.94531 454.33203h7.69531V444.1875h-7.6953v10.14453"/><path fill="azure" fill-rule="evenodd" d="M461.78125 446.01953h.83203v5.73828h3.1914V452.5h-4.02343v-6.48047"/><path fill="#ff3030" fill-rule="evenodd" d="M189.20703 356.6875h7.6914v-10.14453h-7.6914v10.14453"/><path fill="azure" fill-rule="evenodd" d="M191.03906 348.375h.83594v5.74219h3.1914v.73828h-4.02734V348.375"/><path fill="#ffffe0" fill-rule="evenodd" d="M359.4961 401.36719h22.17968v-10.1914H359.4961v10.1914"/><path fill-rule="evenodd" d="M362.9961 393.00781h.51171v6.29688h-.78906v-4.49219h-1.38672v-.55469l.5586-.0664.25-.05079.23046-.08984.20313-.14062.17578-.21094.14063-.29688.10546-.39453m4.8125 0l.23047.01953.21875.0547.20703.08983.19922.1211.1836.14844.17187.17578.30078.42187.24219.49219.17969.54688.11328.57812.03906.59375-.03906.58984-.11328.58594-.17969.55469-.24219.5-.30078.42969-.17187.17968-.1836.15235-.19922.125-.20703.08984-.21875.0586-.23047.01953-.22656-.01954-.21875-.05859-.21094-.08984-.1953-.125-.1836-.15235-.17188-.17968-.30078-.4297-.24219-.5-.17968-.55468-.11329-.58594-.03906-.58984h.83594l.02734.5625.08204.5039.125.44532.16406.3711.1914.30077.21094.22266.22266.13672.22265.04687.22657-.04687.22265-.13672.21094-.22266.1914-.30078.16407-.3711.125-.4453.08203-.50391.02734-.5625-.02734-.5625-.08203-.5-.125-.4375-.16406-.36328-.19141-.29297-.21094-.21484-.22265-.13282-.22657-.04296-.22265.04296-.22266.13282-.21094.21484-.1914.29297-.16406.36328-.125.4375-.08204.5-.02734.5625h-.83594l.03906-.59375.11329-.57813.17968-.54687.2422-.49219.30077-.42187.17188-.17578.1836-.14844.1953-.1211.21094-.08984.21875-.05469.22656-.01953m5.09375 0h.50782v6.29688h-.78516v-4.49219h-1.39063v-.55469l.5625-.0664.25-.05079.23047-.08984.20313-.14062.17578-.21094.14063-.29688.10546-.39453m2.82422 2.17578h.78516l.01953-.3164.0586-.28516.10156-.2539.14062-.21485.17969-.17578.22265-.1289.26563-.07813.3086-.02735.23827.01954.22266.0625.20313.10156.17968.14062.14844.17188.11328.20703.07422.23438.02344.26562-.02344.26953-.0625.22266-.11328.1914-.15234.17188-.20313.16406-.2461.16406-.6328.39063-.53907.3125-.4375.3164-.34765.32422-.26172.33594-.1914.35156-.125.3711-.06642.39062-.02343.42188h4.21094v-.74219h-3.33204l.08594-.28516.11328-.23437.14844-.20313.1875-.17968.23047-.17188.27734-.17578.71875-.41797.41406-.20312.34375-.23047.28125-.2539.21875-.26563.16407-.27735.11328-.28515.0625-.28516.01953-.28125-.03906-.38281-.1211-.34766-.1914-.3086-.25-.26171-.30078-.21485-.34766-.15625-.3789-.09765-.40626-.03516-.43359.03516-.39844.09765-.35547.16407-.30468.23437-.25.30469-.1836.375-.11719.44531-.03906.51953"/><path fill="#ffffe0" fill-rule="evenodd" d="M234.17578 365.79688h22.1836v-10.19141h-22.1836v10.1914"/><path fill-rule="evenodd" d="M237.67578 357.4375h.51172v6.29688h-.78906v-4.4922h-1.38672v-.55468l.5586-.0664.25-.05079.23046-.08984.20313-.14063.17578-.21093.14062-.29688.10547-.39453m4.8125 0l.23047.01953.21875.05469.20703.08984.19922.1211.1836.14843.17187.17579.30078.42187.24219.49219.17969.54687.11328.57813.03906.59375-.03906.58984-.11328.58594-.1797.55469-.24218.5-.30078.42968-.17188.1797-.18359.15233-.19922.125-.20703.08985-.21875.0586-.23047.01952-.22656-.01953-.21875-.0586-.21094-.08983-.19531-.125-.1836-.15235-.17187-.17969-.30078-.42968-.24219-.5-.17969-.5547-.11328-.58593-.03906-.58984h.83594l.02734.5625.08203.5039.125.44532.16406.375.19141.29687.21094.22266.22266.13672.22265.04687.22656-.04687.22266-.13672.21094-.22266.1914-.29687.16407-.375.125-.44532.08203-.5039.02734-.5625-.02734-.5625-.08203-.5-.125-.4375-.16407-.36328-.1914-.29297-.21094-.21485-.22266-.1328-.22656-.04298-.22266.04297-.22265.13281-.21094.21485-.1914.29297-.16407.36328-.125.4375-.08203.5-.02734.5625h-.83594l.03906-.59375.11328-.57813.1797-.54687.24218-.49219.30078-.42188.17188-.17578.18359-.14843.19531-.1211.21094-.08984.21875-.05469.22656-.01953m5.09375 0h.50781v6.29688h-.78515v-4.4922h-1.39063v-.55468l.5625-.0664.25-.05079.23047-.08984.20313-.14063.17578-.21093.14062-.29688.10547-.39453m2.82422 2.17578h.78516l.01953-.3164.0586-.28516.10155-.2539.14063-.21485.17969-.17188.22265-.1289.26563-.08203.3086-.02735.23827.01953.22266.0625.20312.10157.1797.14062.14843.17188.11328.20703.07422.23437.02344.26563-.02344.26953-.0625.22265-.11328.19141-.15235.17188-.20312.16406-.2461.16406-.6328.39063-.53907.3125-.4375.3164-.34766.32422-.26172.33594-.1914.35156-.125.3711-.0664.39062-.02345.42188h4.21094v-.7422h-3.33203l.08594-.28515.11328-.23437.14844-.20313.1875-.17969.23047-.17187.27734-.17578.71875-.41406.41406-.20704.34375-.23046.28125-.25.21875-.26954.16406-.27734.11329-.28516.0625-.28515.01953-.28125-.03906-.38281-.1211-.34766-.1914-.3086-.25-.26171-.30079-.21094-.34765-.16016-.3789-.09765-.40626-.03516-.4336.03516-.39843.09765-.35547.16406-.30469.23438-.25.30469-.18359.375-.11719.44531-.03906.51953"/><path fill="#ffffe0" fill-rule="evenodd" d="M323.99219 357.75h22.17969v-10.1914h-22.1797V357.75"/><path fill-rule="evenodd" d="M327.48828 349.39063H328v6.29687h-.78906v-4.48828h-1.38672v-.5586l.5586-.0625.2539-.05468.22656-.08985.20703-.14062.17188-.21094.14062-.29297.10547-.39844m4.8164 0l.22657.01954.21875.05859.21094.08594.19531.1211.1836.15233.17187.17579.30078.41796.2461.4922.17968.54687.10938.58203.03906.58984-.03906.59375-.10938.58203-.17969.5547-.24609.5039-.30078.42578-.17188.17969-.18359.15234-.19531.125-.21094.09375-.21875.05469-.22656.01953-.23047-.01953-.21875-.05469-.20703-.09375-.19922-.125-.1836-.15234-.17187-.1797-.30078-.42577-.24219-.5039-.17969-.5547-.11328-.58203-.03515-.59375h.83203l.02734.5625.08203.5039.125.44532.16406.375.19141.30078.21094.21875.22265.13672.22657.04688.22656-.04688.22266-.13672.21093-.21875.1875-.30078.16407-.375.125-.44531.08203-.5039.03125-.5625-.03125-.5625-.08203-.5-.125-.4336-.16407-.36719-.1875-.29297-.21093-.21484-.22266-.1289-.22656-.04688-.22656.04687-.22266.1289-.21094.21485-.1914.29297-.16407.36719-.125.4336-.08203.5-.02734.5625h-.83203l.03515-.58985.11328-.58203.1797-.54688.24218-.49219.30078-.41796.17188-.17579.18359-.15234.19922-.1211.20703-.08593.21875-.0586.23047-.01952m5.08984 0h.50781v6.29687h-.78515v-4.48828h-1.38672v-.5586l.5586-.0625.25-.05468.23046-.08985.20313-.14062.17578-.21094.14062-.29297.10547-.39844m6.80469 1.6211h-.78516l-.05469-.21094-.08203-.1875-.10546-.16015-.12891-.12891-.14844-.10156-.16015-.07422-.16797-.04688-.17188-.01562-.32812.04297-.28907.11718-.24609.19532-.20313.26953-.16015.33984-.11328.40235-.07031.46875-.02344.52343.1875-.19922.1875-.16015.1836-.1211.1875-.08984.1875-.0625.1914-.03516.40234-.02343.30469.03125.32031.08984.3164.15625.29688.21875.2539.28516.19923.35156.07031.19922.05469.21875.02734.23437.00781.25-.78906.04688-.02734-.25781-.07813-.25391-.1211-.23438-.16015-.20703-.19531-.17969-.21875-.13671-.23828-.08985-.25781-.03125-.25391.03125-.24219.08985-.21875.13671-.1914.1797-.16016.20702-.125.23438-.07813.2539-.02343.25782.02344.25781.07812.25.125.23828.16016.20703.1914.17969.21875.13672.24219.08594.2539.03125.25782-.03125.23828-.08594.21875-.13672.19531-.17969.16016-.20703.1211-.23828.07812-.25.02734-.25781.78906-.04688-.03125.3711-.09375.37109-.15625.35938-.22265.32812-.29297.28125-.16797.1211-.1875.10156-.20703.08203-.22266.0625-.24219.03906-.26171.01172-.28125-.01563-.26172-.04687-.23828-.07813-.21485-.10156-.19531-.13281-.17188-.15625-.15625-.17969-.1328-.20312-.1172-.22266-.10156-.24219-.14453-.53515-.08594-.59375-.02734-.64063.03906-.74219.11328-.66406.1875-.57812.1211-.25391.13672-.23047.15234-.20703.17188-.1836.18359-.15234.20312-.1289.21875-.10157.23047-.07421.25-.04688.26172-.01563.36719.03516.33203.09766.29297.14844.25781.19921.21094.2422.16406.27343.11719.30469.0625.3203"/></g></defs><use xlink:href="#ap"/></svg>