<svg xmlns="http://www.w3.org/2000/svg" role="img" xmlns:xlink="http://www.w3.org/1999/xlink" viewBox="142.45 309.95 326.84 171.84"><defs><clipPath id="a"><path d="M144 441h1v39.32813h-1zm0 0"/></clipPath><clipPath id="b"><path d="M144 311.67188h1V432h-1zm0 0"/></clipPath><clipPath id="c"><path d="M144 311.67188h324v168.65625H144zm0 0"/></clipPath><clipPath id="d"><path d="M224 311.67188h13V316h-13zm0 0"/></clipPath><clipPath id="e"><path d="M226 311.67188h9V314h-9zm0 0"/></clipPath><clipPath id="f"><path d="M384 476h16v4.32813h-16zm0 0"/></clipPath><clipPath id="g"><path d="M385 476h12v4.32813h-12zm0 0"/></clipPath><clipPath id="h"><path d="M388 478h7v2.32813h-7zm0 0"/></clipPath><clipPath id="i"><path d="M391 479h3v1.32813h-3zm0 0"/></clipPath><clipPath id="j"><path d="M448 478h5v2.32813h-5zm0 0"/></clipPath><clipPath id="k"><path d="M461 474h7v6.32813h-7zm0 0"/></clipPath><clipPath id="l"><path d="M467 474h1v6.32813h-1zm0 0"/></clipPath><clipPath id="m"><path d="M467 311.67188h1V475h-1zm0 0"/></clipPath><clipPath id="n"><path d="M144 479h4v1.32813h-4zm0 0"/></clipPath><clipPath id="o"><path d="M147 480h2v.32813h-2zm0 0"/></clipPath><clipPath id="p"><path d="M146 480h2v.32813h-2zm0 0"/></clipPath><clipPath id="q"><path d="M153 479h9v1.32813h-9zm0 0"/></clipPath><clipPath id="r"><path d="M160 480h2v.32813h-2zm0 0"/></clipPath><clipPath id="s"><path d="M166 479h9v1.32813h-9zm0 0"/></clipPath><clipPath id="t"><path d="M173 480h3v.32813h-3zm0 0"/></clipPath><clipPath id="u"><path d="M180 480h8v.32813h-8zm0 0"/></clipPath><clipPath id="v"><path d="M187 480h2v.32813h-2zm0 0"/></clipPath><clipPath id="w"><path d="M193 479h9v1.32813h-9zm0 0"/></clipPath><clipPath id="x"><path d="M200 479h3v1.32813h-3zm0 0"/></clipPath><clipPath id="y"><path d="M206 479h9v1.32813h-9zm0 0"/></clipPath><clipPath id="z"><path d="M213 479h3v1.32813h-3zm0 0"/></clipPath><clipPath id="A"><path d="M220 479h8v1.32813h-8zm0 0"/></clipPath><clipPath id="B"><path d="M227 479h3v1.32813h-3zm0 0"/></clipPath><clipPath id="C"><path d="M233 479h8v1.32813h-8zm0 0"/></clipPath><clipPath id="D"><path d="M240 479h3v1.32813h-3zm0 0"/></clipPath><clipPath id="E"><path d="M246 478h9v2.32813h-9zm0 0"/></clipPath><clipPath id="F"><path d="M253 478h3v2.32813h-3zm0 0"/></clipPath><clipPath id="G"><path d="M260 478h8v2.32813h-8zm0 0"/></clipPath><clipPath id="H"><path d="M266 478h4v2.32813h-4zm0 0"/></clipPath><clipPath id="I"><path d="M273 478h8v2.32813h-8zm0 0"/></clipPath><clipPath id="J"><path d="M280 478h3v2.32813h-3zm0 0"/></clipPath><clipPath id="K"><path d="M287 478h7v2.32813h-7zm0 0"/></clipPath><clipPath id="L"><path d="M293 478h3v2.32813h-3zm0 0"/></clipPath><clipPath id="M"><path d="M300 478h7v2.32813h-7zm0 0"/></clipPath><clipPath id="N"><path d="M314 477h6v3.32813h-6zm0 0"/></clipPath><clipPath id="O"><path d="M329 476h2v4.32813h-2zm0 0"/></clipPath><clipPath id="P"><path d="M340 478h8v2.32813h-8zm0 0"/></clipPath><clipPath id="Q"><path d="M353 478h8v2.32813h-8zm0 0"/></clipPath><clipPath id="R"><path d="M367 477h6v3.32813h-6zm0 0"/></clipPath><clipPath id="S"><path d="M381 477h6v3.32813h-6zm0 0"/></clipPath><clipPath id="T"><path d="M393 478h8v2.32813h-8zm0 0"/></clipPath><clipPath id="U"><path d="M407 477h6v3.32813h-6zm0 0"/></clipPath><clipPath id="V"><path d="M421 477h5v3.32813h-5zm0 0"/></clipPath><clipPath id="W"><path d="M436 476h2v4.32813h-2zm0 0"/></clipPath><clipPath id="X"><path d="M449 476h2v4.32813h-2zm0 0"/></clipPath><clipPath id="Y"><path d="M463 476h1v4.32813h-1zm0 0"/></clipPath><clipPath id="Z"><path d="M144 466h4v2h-4zm0 0"/></clipPath><clipPath id="aa"><path d="M144 452h4v3h-4zm0 0"/></clipPath><clipPath id="ab"><path d="M144 438h4v5h-4zm0 0"/></clipPath><clipPath id="ac"><path d="M465 437h3v2h-3zm0 0"/></clipPath><clipPath id="ad"><path d="M144 425h4v4h-4zm0 0"/></clipPath><clipPath id="ae"><path d="M465 424h3v2h-3zm0 0"/></clipPath><clipPath id="af"><path d="M144 413h4v2h-4zm0 0"/></clipPath><clipPath id="ag"><path d="M466 411h2v2h-2zm0 0"/></clipPath><clipPath id="ah"><path d="M465 411h3v3h-3zm0 0"/></clipPath><clipPath id="ai"><path d="M144 399h4v3h-4zm0 0"/></clipPath><clipPath id="aj"><path d="M466 398h2v3h-2zm0 0"/></clipPath><clipPath id="ak"><path d="M465 398h3v3h-3zm0 0"/></clipPath><clipPath id="al"><path d="M144 386h4v2h-4zm0 0"/></clipPath><clipPath id="am"><path d="M466 385h2v3h-2zm0 0"/></clipPath><clipPath id="an"><path d="M144 372h4v4h-4zm0 0"/></clipPath><clipPath id="ao"><path d="M466 372h2v3h-2zm0 0"/></clipPath><clipPath id="ap"><path d="M144 358h4v5h-4zm0 0"/></clipPath><clipPath id="aq"><path d="M466 358h2v3h-2zm0 0"/></clipPath><clipPath id="ar"><path d="M144 343h1v8h-1zm0 0"/></clipPath><clipPath id="as"><path d="M144 343h2v2h-2zm0 0"/></clipPath><clipPath id="at"><path d="M466 345h2v3h-2zm0 0"/></clipPath><clipPath id="au"><path d="M465 345h3v3h-3zm0 0"/></clipPath><clipPath id="av"><path d="M144 333h4v2h-4zm0 0"/></clipPath><clipPath id="aw"><path d="M466 332h2v3h-2zm0 0"/></clipPath><clipPath id="ax"><path d="M465 332h3v3h-3zm0 0"/></clipPath><clipPath id="ay"><path d="M144 316h2v9h-2zm0 0"/></clipPath><clipPath id="az"><path d="M144 317h1v2h-1zm0 0"/></clipPath><clipPath id="aA"><path d="M466 318h2v3h-2zm0 0"/></clipPath><clipPath id="aB"><path d="M465 318h3v3h-3zm0 0"/></clipPath><g id="aC" clip-path="url(#clip1)"><path fill="#fff" fill-opacity="0" fill-rule="evenodd" d="M0 0h1000v1000H0zm0 0"/><path fill="#d3d3d3" fill-opacity="0" fill-rule="evenodd" d="M162.15234 355.86719l-.23437.29297.0586.23437.11718.17188.17578.23437.29297.34766.11328.0586.11719-.17188.0586-.23438.17577-.17578.46485-.17578h.69922l.23437.29297.28906.8164.0586.17579.17578.23046.35156.23438.69922.69922.17188.17578.23437.34765.23438.41016.28906.58203.41015.46485.23047.23437.23438.17578.11719.23047.17578.29297.17187 1.16406v.23438l.0586.28906.05859.11719.11719.11719.34765.41015.11719.17188.17578.17578.17578.23437.11719.17188.17188.35156.05859.23438.23437.40625.23438-.0586-.17578.17578-.0586.92969h-.58203l-.23437-.11328-.34766.11328-.11719.11719-.05859.29297-.0586.17578-.11718.17187-.46484.29297-.0586.23438-.0586.11328v.64453l.0586.17187v.41016l.0586.0586v.40624l.05859.40625.11719.17579.05859.05859.23047.64062-.0586.29297v.69922l-.05859.58203v.23438l-.0586.23047-.05468.35156v1.92187l.05469.1172h.42578l-.36719.11718-.02344.35156.89063 1.16797 1.74219.53906 1.33984.35938v.53906l.08984.8086.53516.71484 1.51953.26953.89063-.08594.08984 1.16406.53516.1797 1.16015-.1797 2.05469-.98437 1.16016-.36328 1.8789-.17578 1.69531-.1797-.17968.71876-1.51563.08594-1.25.08984-.80469.26953-1.07421.8086.26953.71875.53515.89843-.17968.625-.26563.8086.26563 1.07812.625.89844.80468.17969 1.25-.1797-.26562.72267.09766.5039.05468.29297v.17188l.0586.29296v.40625l.17578.1172.35156.11718h.40625l.29297-.17578.11328-.11719.0586-.11719.11718-.23047.0586-.17578.35156-.46484.23047-.17578.17578-.0586.17578.0586.0586.17578.11718.98828.05469.46875.0586.17188.11718.23437.17578.0586.8164.05859h.28907l.11719.23437.05859.40625.0586.35156v1.10547l.11718.29297.11719.34766.28906.69922.17578.35156.58203.7539.35157.17579.17187.0586.46875.23437.64063.46484.34765.23438.29297.17578.29297.05468.23047.0625.8164.34766.29297.17578.11328.17188.35157.35156.11719.17578.52343.64063v.28906l.0586.35156v.34766l.05859.35156.0586.28906.11718.0586.17188.05859h.17578l.58203.23437.17578.1172.17578.28905.17578.23438.11328.23437.29297.23047.11719.11719v.41016l.0586.05468.28906.23438.23437.11719.0586.11718.11718.17188.0586.11719.23047.23437.05859.17578.23437.0586.1172.05859-.1172.11328-.05859.11719v.11719l-.11719.29296-.11719.28907v.58203l.17579.11719.11718.05859.0586.11719.11719.11719.11328.05859.17578.34765.0586.35157.05858.40625v.17578l-.05859.17578-.11719.69922v.17187l.1172.17579.29296.29296h.40625l.17578.1172.11719.17187.11719.29296v.23438h-.52735l-.23047-.23438h-.23437l-.17578.0586-.0586.69922.0586.34765.11719.17579.17578.41015.11718.23047.28907.46875.17578.05469h.52344l.23437.0586.75781.64062.0586.29296v.23438l.05859.0586.23047.34765v.35156l-.11719.17188v.29297l.29297.28906.29297.17578.17187.0586.29297.17577.29297.1172.58203.40624.28906.23438.29297.17578.21875.16015.01563.01172.23047.17579.64062.52343.17578.23438.1172.17578.17577.17578.11328.17188v.64062l.1172.17578.46874.11719.58203.11719.23438.05859.23047.11328.29297.11719.11328.0586.58593.35156.28907.17187.17578.0625.17578.05469.17578.0586.69922.35155.28906.17579.23438.05468.28906.17578.23437.1172.64063.40624.29297.11719.17187.0586.23438.05859.41015.05859.23047.0586.23438.11718.0586.17188-.41017.17578.46875.0586.0586.29296.11328.23438.17578.05468.23438.0586.17578.05859.40625.11719.64062.23437.11719.17188.0586.23437v.17578l-.0586.1172-.0586.40624.23438.23438.11719.05859.34766.11719.64062.23047.17578.11718.28906.1172.17578.17577.23438.46485.58203 1.10546.17578.17579.34766.17578.17578.11719.35156.11718 1.04688.52344.23437.0586.46485.11327.29297.0586.46484.17578.75781.58203.23438.23438.34765.46484.17578.17578.28907.23438.8164.69921.29297.17579.28906.28906.29297.17578.29297.28906.69531.64063.17578.17578.29297.23437.28907.23438.46875.28906.64062.58203.34766.23438.23437.29297.34766.34765.35156.46485.9336.99218.34765.40625.11719.17579.23437.05859.11328.11719.64454.17578.23047.11328.23437.0586.29297.17577.23047.1172.9336.69921.40624.40625.23438.17578.40625.17578.23437.11719.8164.34766.34766.23437.23438.11719.29297.28906.23047.11719.7578.35156.35157.17188.23047.05859.29297.11719.23437.0586.8711.17577h.8164l.46875.23047.17188.0586.875.69921.46484.1172.29297.05858.17578.0586.23047.0586.46875.05859.34766.05859.35156.0586.40625.05859h.29297l.17187.0586v.23046l.17578.17578h.29297l.34766.0586.35156.05859.69922.11719h.64063l.46484-.23438.29297-.17578.17187-.11719.41016-.17187.28906-.17578.9336-.46485.46875-.29297.52343-.29296.46485-.17188.46484-.17578 1.05078-.46485.28906-.11718.41016-.11719.28906-.11719.52735-.17578 1.51562-.69922.58203-.34765.28907-.0586.29297-.0586.34765-.11718.875-.23047.35156-.11719h.11329l.23437-.05859.875-.23437.23438-.0586h.8125l.35156-.0586.8164-.11718.17188-.0586.35156-.05468.29297-.0586.23047-.05859.8164-.17578.17579-.0586h.34765l.23438-.05859.46484-.11718.75781-.17188.23438-.0586h.34765l.41016-.11718.28906-.0586 1.28516-.05859h.28906l.41016-.0586.23047-.05858h.17578l.875-.1172h.40625l.41015-.11718h.34766l.35156-.11328.8711-.0586h1.75l1.04687.28907.41016.11719.28906.11718.35156.11719.28907.11719 1.05078.17187.28906.0586h.29297l.29297.05859.17187.0586.41016.05859.17187.0586.1172.05858h.11718l.11719.0586.35156.0586h.11328l.41016.0664 1.92187.39453 1.92578.39453 1.51953.44922 1.69532.71875 2.14453.80469 1.60547-.71875 1.42968-.80469 1.16016-1.07813 1.25-.44921 3.03516-.71875 1.875-.35938 2.14453-1.34765 2.23437-1.25391 2.5-1.25781 1.69531-.44922 1.78516-.17969 1.16016-.26953.625.53906 1.33984-.26953.71485-.98828.98437-1.34375.44531-.17969.80469-.35937 1.875-.53907 1.78516-.44921 1.25-.26954 1.16015-.08984 1.69922-.08984 1.96094-.26954 1.25-.08984h.53906l.625-.08984h.89063l2.14453-.17969 2.41015-.17969 2.58985-.08984 1.69531.17969 1.60938.08984 1.42968.35938 1.16016.71875 1.875.98828 1.16015 1.52734.26563.71484.6289.08985.35548.89844.53515.53906.53516 1.52734 1.07422.35938h.53515l-.80469.53515.08985 1.70703.71484 2.69532.89063.80468.89453.98829.71484 1.2578 1.78516.53907 1.51953-.17969.35547 1.34375 1.60937-.80469.98047-.53906.26953.26953.31641-.21484.21875-.14453.80078.44922.44922-.35938h.35547l.53515-.26953.53907-.71875.53515-.26953.625-.98828 1.16016.44922.83984.3711 1.39454.61718 1.6953-.17969h1.60548l1.78515.08985.17969-1.70704.53516-1.34375.80468.26954.4922.84765.40233.40625-.08984.53906v.35938l.71485.44922.71093-.26953h1.42969l.35938.98828.4453 1.25781.71485 1.34375 1.25.6289 1.69531.62891.71485-.17969.17969-.53906.98046-.08984.44922.35937.08594 1.25782-.26563.6289-.53515.17969v.53906l.71484.98438.26563.53906.98437.98828.80078 1.07813-.26562.35937-.08985.89844-.625 2.33203-.35546 2.0664-.08985 1.79298-.17969.71875-.08984.53906v1.4375l-.98047 1.88281-.35937 1.70703-.53516.89844-.80469 1.16797-.26562.53906 2.05469 1.2539.08593.35938-.35546.53906-.08985-.17968v.80859l.08985 1.4375-.44532.71484-1.07422.09375-.26562.71485.53515.89844.8047.71875 1.16015.80859 1.33984.26953.44531.35938-.35546.44921-1.78907-.08984-1.25-.44922-.71484-.71875-.625-.08984-.17578 3.58984-.1875 1.3086h89.35937V311.70313h-55.26953v49.08203l.76172.125 3.28906.54296 2.02344 2.83594v2.7539l2.35156.33204 2.34766.33203h4.05078l-1.3789 4.16016-2.02344.70703-2.02344.70312-.54297.34375-2.59375 1.6172-.1875.11718-2.02344-2.07813-.73046-2.74218-2.67188-2.07813-1.375-3.5-.0664-.08203-1.95704-2.67188 2.75-1.41796v-49.08204H294.42187v91.41407l.1172.03125.1328.01172.07422.07421.10547.04688.08985.0586.08593.05859.08985.0586.29687.29687.0586.08984.03125.11719.02734.11719.01563.13671-.03125.1172-.0586.08983-.0586.08594-.04296.10547-.04688.10156-.02734.1211v.14453l.17578.26953.14844.14844.07422.08594.07422.07421.04296.10547.0625.08985.0586.08593.04297.10547.0586.08985.04687.10156.04296.10547.0586.08594.11719.17968.07421.07422.0625.08594.0586.08984.04297.10547.0586.08985.05858.08593.0625.08985.0586.08984.04297.10156.11719.17969.07421.07422.0586.08594.07422.07421.08984.0586.10547.04687h.14844l.1328-.01562.13282.01562.10156-.04687.07422-.07422.04688-.10156-.01563-.13281v-.14844l-.04687-.10547-.02735-.11719-.04687-.10156-.02735-.1211-.04296-.10156-.0625-.08984-.04297-.10156-.04297-.10547-.03125-.11719-.01563-.13281-.01171-.13672.08593-.0586.0586-.08593.12109-.03125.04297.10547.01562.1328v.1172l.0586.10156.0586.08984.08983.0586.14844.14843.0586.08985.04296.10547-.01171.10156.08593.0586.10547.04687.08594.0586.08984.05858.07422.07422-.11719.02735-.10546.04687-.08594.0586-.07422.07421-.0586.08985-.0625.08594-.02734.12109-.04687.10156-.04297.10547-.03125.11719-.01172.13281-.01563.13281v.14844l.02735.11719.04687.10547.04297.10156.0586.08984.07421.07422.08985.0586.07422.07421.08984.0586.0586.08984.04296.10547.04688.10156.11719.03125.1328.01563h.14845l.11718-.03125.10547.04297.04297.10547.04688.10156.02734.1211L299.5 410l.02734.11719.03125.1211.02735.11718.10547.04297.10156.04687.13281-.01562.14844.14844.0625.08593.07422.07422.07031.07422.08984.0625.10547.04297.10156.04297.1172.03125.13671.01562.11719-.03125.07422-.07422.02734-.11718-.01172-.13282-.03125-.12109-.02734-.11719.04297-.10547h.11719l.08984.0625.11719.02735h.14843l.13282.01562h.14843l.13282.01563.1328-.01563h.14845l.1328-.01562.13282-.01172.13672.01172.11719-.02735.13281-.01562.1914-.0586-.05859.17579-.01562.1328-.02735.1211-.01562.13281-.0586.08594-.1328.01563-.10548.04687-.10546.04297-.1172.03125-.11718.02735-.26563.03125h-.14843l-.13281.01562-.07422.07422.05859.08594.14844.14843.11719.1797.07421.0703.08985.0625.08984.0586.08594.0586.08984.05858.10156.04297.10547.0625.10547.04297.08594.0586.10547.04687.10156.04297.17969.11719.0586.08984-.04298.10156-.04687.10547.01562.13281.22266.22266.0586.08985.04296.10156.03125.1211.04297.10155.01563.13282.03125.11718.01171.13672.03125.11719.14844.14844.10156.04297.10547.04296.1172.03125.1328.01563.13672.01563h.11719l.11719-.03125.08984-.0586.04297-.10547.04688-.10156.04296-.10547.03125-.11719.01172-.1328v-.14845l-.01172-.1328-.01562-.13282-.03125-.11719-.04297-.10547-.04688-.10547-.04296-.10156-.04297-.10547-.01563-.13281.01563-.13281.02734-.11719.03125-.11719.02735-.1211.04687-.10155.08984-.0586.08594-.0625.07422-.07422.08984-.05859.22266-.22266.0586-.08593.07421-.07422.11719-.17969.0586-.08594v-.14844l-.07423-.07421-.10156-.04688-.10547-.04297-.10156-.04297-.0586-.08984-.04687-.10547-.02734-.11719.08984-.05859.11719-.03125.10156-.04297.17969-.11719.14844-.14843.01172-.13282-.01172-.10546-.08985-.0586-.1328.01563h-.14845l-.1328.01562-.13282-.01562-.1211-.03125-.08593-.0586-.07422-.07422-.0586-.08984-.0625-.08594-.11718-.17969-.0586-.08593.03125-.1211.08594-.05859.1211-.03125.05859-.08594v-.1211l-.03125-.11718-.0586-.08984-.05859-.08594-.04687-.10547-.02735-.11719-.01562-.1328.0586-.08985.07421-.07422.08984-.0586.1172-.17968.07421-.07422.0586-.08594.14843-.14844.1211-.03125.1328-.01562.13282.01562.07422.07422.04297.10547.01562.13281-.03125.1172-.11719.03124-.1328.01172-.14844.14844-.04297.10547-.04688.10156-.02734.1211-.03125.11718v.14844l.03125.11719.04297.10546.05859.08985.07422.07031.07422.07422.11719.03125.12109.02734.11719-.02734.1328-.01563h.1172l.08984.0586.07422.07422.04687.10546.0586.08594.10156.04688.13281.01562.10547.04297.08594.0586-.01172.10546-.07422.07422-.17969.11719-.05859.08984-.08984.0586-.07032.07422-.07421.07421-.0625.08985-.02735.11719-.01562.1328.01562.13282-.01562.13281v.14844l.01562.13281.02735.1172.03125.12108.07421.07422.08985.0586.08594.0586.08984.05858.11719.03125v.08594l-.10157.04688-.08984.0586-.26563.03124-.11718.02735h-.14844l-.10547.04296-.10156.04688-.0586.08984-.0625.23438-.01171.13281-.03125.1211-.01563.1328v.29298l-.01172.1328.01172.13673.01563.1328.1328.01563.13282.01172.1211.03125.08593.0586.07422.07421.04688.10547.04296.10157.01563.1328v.44532l-.01563.13281v.44532l.03125.26562.02735.11719.01562.13281.03125.11719.08594.21094.03125.26562v.14844l-.03125.11719-.02734.11718-.03125.1211-.02735.11719-.03125.11718-.03125.1211-.01171.1328-.01563.13282.08984.0586.1172-.03125.10155.01562.04688.10547-.03125.26562v.44141l-.04297.10547-.04688.10547-.04296.10156-.04297.10547-.0586.08594-.03125.12109-.04296.11719-.03125.11719-.01563.1328.01563.13282.05859.08984.10547.04688.08594.0586.05859.08593-.01172.13672-.03125.11719-.04297.10156v.44531l-.01562.13281v.14844l-.03125.11719-.04297.10547-.02735.11719-.04687.10546-.04297.10157-.03125.12109-.02734.11719-.03125.13281-.03125.11719-.02735.11719-.04297.10546-.03125.1172-.03125.12108-.01171.13282-.01563.13281v.29688l.02734.11718v.14844l.04688.39844.02734.11719.0586.08984.12109.03125h.14844l.13281-.01563.0586.08985v.11719l-.0586.08984-.08984.0586-.10157.04296-.10546.04688-.08985.05859-.08594.0586-.13671.01562-.1172-.03125-.1328-.01563-.10157.04688-.0625.08594-.01172.13671-.01562.13282-.03125.11719-.02735.11718-.01562.13281-.03125.1211v.29687l.01563.13282.03125.11718v.14844l.01171.13281v.14844l-.02734.11719-.04688.10156-.02734.1211-.03125.11718-.0586.08985-.07421.07421-.10156.04297-.10547.04688-.11719.02734-.1211.03125-.10156-.04687.0586-.08594.10547-.04688.02734-.11718.03125-.11719.02734-.1211.03125-.11718v-.14844l.01563-.13281-.03125-.11719-.04297-.10547-.10547.01563-.07422.07422-.10156.04296-.08984.0625-.07422.07422-.04297.10157-.01563.1328-.03125.1172L304.25 426l-.03125.11719-.02734.11719-.03125.12109-.02735.11719-.03125.11718-.04297.10547-.08984.0586h-.08984l-.1172-.03125-.03124-.08594.01562-.13672-.03125-.11719v-.14844l-.01171-.1328v-.14844l-.0625-.23438-.02735-.1211-.04297-.10156-.04687-.10546-.0586-.08594-.05859-.08985-.04297-.10546-.0625-.08594-.14844-.14844-.0703-.07422-.10548-.04687-.10547-.04297-.10156-.04297-.29687-.29688-.08985-.07421-.08594-.0586-.10546-.04297-.08985-.0625-.08594-.0586-.10546-.04296-.08985-.0586-.08594-.0625-.07421-.0703-.10547-.04688-.08594-.0586-.10547-.04296-.08984-.0625-.10156-.04297-.10547-.04297-.08594-.0586-.10547-.04687-.10547-.04297-.10156-.04687-.08985-.0586-.10156-.04297-.10547-.04296-.08984-.0625-.11719-.02735-.13281-.01562-.13281.01562H299.75l-.13281.01563-.11719-.03125-.08984-.0586-.07422-.07422-.08985-.05859-.10156-.04688h-.14844l-.12109-.02734-.10156-.04297-.07422-.07422-.11719-.17968-.08984-.0586-.10156-.04297-.08985-.0625-.10547-.04296-.08984-.0586-.08594-.0586-.10547-.04687-.0586-.08594-.05858-.08984-.04297-.10547-.04688-.10156-.07422-.07422-.08594-.0586-.07421-.07421-.08985-.0586-.22265-.22265-.04297-.10547-.03125-.26563.10547-.04296h.14453l.10547.04296.07421.07422.08985.0586.08594.0586.10546.04687.08985.05859.14844.14844.0703.07422.14845.14843.0625.08594.07421.07422.08594.0586.07422.07421.08985.0625.08984.0586.08594.05859.26953.17578.10156.04688.10547.04296.10156.04297.04688-.07421.05859-.08594.07422-.07422.07031-.07422.10547.04297.07422.07422.0586.08984.04296.10156.04688.10547.04296.10547.1211.02735.11719-.02735.07421-.08984.04297-.10547.0586-.08985.07422-.07421.10546-.04297.1172-.02735.1328.01172.08985.0586.14844.14843.05859.08985.04297.10547.04687.10156.04297.10547.04297.10156.10547.04688.10547.04296.13281.01563.08594-.0586.0586-.08984.07421-.07422.10547-.04297.11719.02735.10547.04687.10156.04297.10547.04297.10156.04688.17969.11718v.11719l-.01563.13281.01563.13281.01562.13672.0586.08594.10156.04688.1211.02734.11718.03125h.14844l.11719-.03125.05859-.08984.17969-.1172.05859-.08983.07422-.07422.0586-.08594.11718-.17969.17969-.11719.11719.03125.08984.0586.04297.07422-.01563.1328v.1172l.08985.05859h.14843l.13282-.01563.1328-.01171.26563-.03125.10547-.04297.11719-.03125.1211-.02735.07421-.07421.07031-.07422.0625-.08985-.01562-.10547-.04688-.10156-.10156-.04297-.10547-.01562-.11718.02734-.26563.03125h-.14844l-.07421-.07422-.08985-.0586-.11719-.03124-.11718-.02735-.13282-.01562h-.14843l-.13282.01563h-.29687l-.10547-.04688-.14844-.14844-.04297-.10156-.05859-.08984.22266-.22266.08593-.0586.10547-.04296.11719-.03125.13281-.01563.13281.01563.13672.01562.10157.04297.1328-.01172.08985-.0625.10156-.04297.0625-.08984-.04687-.10156-.08984-.0586-.1172-.03125-.10155-.04296-.0586-.08985-.0625-.08984v-.11719l.01563-.13281.10547-.04688.07421-.07031v-.1211l-.08984-.05859-.03125-.11719.08985-.05859.07421-.07422.04297-.10547.0586-.08984.04687-.10156.01563-.13281v-.14844l-.04688-.10547-.04297-.10156-.08984-.0586-.13281-.01562-.10157-.04297-.13671-.01563-.1172-.03125h-.4453l-.13282-.01562-.13281-.01172-.13281-.01563-.11719-.03125h-.14844l-.13281-.01562-.13281-.01172-.26563-.03125-.1211-.04297-.08593-.0586-.07422-.07421v-.14844l.01172-.13281.10547-.04688.10156-.04296.13281-.01563h.15235l.13281-.01562h.29297l.1211.03125.10156.04296.08984.0586.23438.0625.12109-.04688.08984-.05859.10156-.04297.13282-.01562.10547.04296.10156.04688.13281.01172.1211-.02735h.14453l.12109-.03125.11719-.02734.10547-.04687.07421-.07422.08594-.0586.14844-.14843.0586-.08594.04687-.10547.02734-.11719.01563-.10547-.10156-.04296-.08985-.0586-.11719-.03125-.10546-.04297-.08985-.0625-.07422-.08594-.07422-.07421-.10156-.04297-.10547-.04688-.10156-.04297-.0586-.08984-.04687-.10156-.08594-.21094-.0625-.08594-.05859-.08984-.07422-.07422-.08594-.0586h-.26953l-.11719.03126-.08984.05859-.10156.04297-.13281.01562-.10547-.01562-.02735-.11719-.0625-.08984-.11718-.03125-.10157-.04297-.14843-.14844-.03125-.11719-.01563-.10546.07422-.07422.17969-.1172.11719-.02733.11718-.03125.13672.01562.10156.04297.10547.04297.10156.04687.10547.04297.1172.03125.1328.01563.1172.02734.1328.01563.10547-.01563.08985-.0586-.07422-.07421-.10547-.04297-.07422-.07422-.07422-.08984-.14844-.14844-.08593-.0586-.08985-.05859-.07422-.07422-.08984-.0586-.10156-.04687-.1211-.02734-.10156-.04688-.10547-.04296-.11719-.03125-.10156-.04297-.1211-.03125h-.14843l-.11719.03125-.10546.04297-.08594.0625-.17969.11718-.08594.0586-.08984.0586-.10547.04687-.08594.05859-.10547.04297-.10156.04297-.10547.04687-.07422.07422-.05859.08985-.0586.08593-.04687.10547-.0586.08594-.07421.07422-.13281-.01172-.1172-.03125h-.11718l-.07422.07422-.08984.0586-.07422.07421-.08984.0586-.08594.05859-.10547.04687-.10156.04297-.13672.01563-.10156-.04297-.14844-.14844-.10547-.04688h-.08594l-.10547.04688-.10156.04297-.1211.03125-.11718-.03125-.07422-.07422v-.11719l.03125-.1211.07422-.0703.0586-.08985.07421-.07422.11719-.03125.10547-.04296h.29297l.13281-.01563.13672-.01563.10156-.04296.08985-.0586.10156-.04687.08984-.0586.13281-.01171.08985.05859.13281.01172.08984-.0586.08594-.05859.10547-.04297.08984-.0586.08594-.0625.08985-.05859.14843-.14843.0586-.08594.05859-.08985.10547-.04296.13281-.01563.11719.02735.1211.03125.05859-.0586.05859-.08984.03125-.26563.02734-.11719.10547.01172.13281.01563.10157-.04297.08984-.0586.0586-.08984.07421-.07422.0586-.08984.04687-.10156.01172-.13281-.01172-.13282-.04687-.10547-.14844-.14843-.0586-.08985-.05859-.08594-.04297-.10546v-.44532l.01563-.1328v-.14845l.01172-.1328-.0586-.0586-.08984.0586-.10156-.04298-.17969-.11719-.08594-.05859-.0625-.08984-.0586-.08985-.07421-.07421-.08594-.0586-.1211.03125-.10155.01172-.10547.04688-.08594.05859-.10547.04297-.14844.14844-.08984.05859-.08594.0586-.08984.0625-.10547.04296-.13281.01563v-.1211l.10547-.04297.11718-.03125.07422-.0703.04297-.10548v-.14844l-.02734-.11718-.14844-.14844-.13281-.01563h-.14844l-.11719.03125-.10547.04297-.10156.04297-.08984.0625-.11719.02735-.07422-.07422.01172-.13281-.04297-.10157-.04297-.10547-.08984-.05859-.11719.02734-.1211.03125-.11718.03125-.10156.04297-.1211.03125-.10156.04297-.10547.04297-.08984.0586-.10156.01562v-.11719l.01562-.13281-.0586-.08985-.07421.04297-.14844.14844-.0586.08985-.07421.07421-.04688.10547-.04296.10156-.07422.07422-.0586.08985-.07422.07422-.05859.08593-.07422.07422-.08984.0625-.07422.07031-.07422.07422-.10156.01563-.13281.01562-.10547-.04296v-.1211l.14843-.14844.04297-.10156.0586-.08984.04687-.10156.04297-.10547.0586-.08985.03124-.11719.04297-.10156.03125-.1211.02735-.11718.04687-.10547.04297-.10156.04297-.10547.07422-.07031.08984-.0625.08985-.0586.10156-.04296h.29687l.26563-.03125.10547-.04297-.07422-.07422-.11719-.03125-.10547-.04297-.08984-.0586-.10156-.04687-.08985-.0586-.10156-.04296-.10547-.04297-.08984-.0625-.08594-.0586-.10547-.04296-.10156-.04297-.1211-.03125-.11718-.03125-.10157-.04297L297.5 410.25l-.10156-.04297-.08985-.0586-.04296-.10546-.01563-.13281.10156-.04297.13281-.01563.13672.01563.13282-.01563.10156-.04297.0586-.08984.01562-.10547-.08985-.0586-.07421-.07421-.10157-.04297-.08984-.0586-.14844-.14843-.04297-.10547-.01562-.13281v-.29297l-.0586-.08985-.08984-.05859-.07422-.07422-.04297-.10547-.03125-.11718-.0586-.08985-.07421-.07422-.11719-.02734-.07422-.07422-.08984-.0586-.08984-.0625-.08594-.05859-.07422-.07421-.0586-.08594-.04687-.10547-.08594-.0586-.14843-.14843-.19532-.0586-.1328.01563-.10157.04297-.07422.07422-.04688.10156-.04296.10547-.0586.08984-.0586.08594-.29687.29687-.08984.0586h-.08594l-.0625-.08594-.04297-.10547.03125-.11719.0586-.08984.02734-.11719-.01172-.13281-.08984-.0625-.10547.04688-.11719.02734-.11719.03125-.26953.17578-.10156.04688-.11719.02734-.10546.04687-.08985.0586-.10156.04297-.0586-.08594-.04687-.10547.01563-.13281.04687-.10547.07031-.07422.07422-.07031.0586-.08985v-.14843l-.04297-.10547h-.23829l-.10156.04687-.03125.11719-.02734.11719-.03125.1211-.07422.04296-.13281.01563-.07422-.04688-.04297-.10156-.04297-.10547-.04687-.10156-.04297-.10547-.1211.03125-.10156.04297-.13281.01562-.11719.03125-.10547.04297-.08984.0586-.10156.04687-.1211.02734-.13281.01563-.10156-.04297-.0586-.08985-.04687-.10546-.04297-.10157-.04297-.10546v-.1172l.0586-.08984.08593-.05859.17969-.11719.10156-.04687.10547-.04297.10547-.0586.10156-.04296.08985-.0625.10156-.04297.10547-.0586.10156-.04687.08984-.0586.10547-.04296.10156-.04297.08985-.0625.10156-.04297.13672-.01563.11719.03125.10156.04297.1211.03125.10156.04297.10546.04688.10157.04296.10547.04297.10156.04688.10547.04297.10156.04297.10547.04687.08594.0586.10546.04296.1172.03125.10546.04297.10156.04688.08985.0586.10547.04296.10156.04297.10547.04687.11719.02735.10156.04687.1211.02735h.14843l.08594-.0586.01562-.10156.0586-.08984-.02735-.1172-.07422-.07421-.11719-.17969-.07421-.07422-.08985-.07421-.17969-.1172-.08593-.05859-.10547-.04296-.10156-.04688-.26954-.17578-.05859-.08985-.07422-.07421-.0586-.08985-.04296-.10156-.03125-.11719-.01563-.13672v-.5625l-.01171-.1328-.01563-.13282-.03125-.11719-.01562-.13281-.01172-.13281-.03125-.1211-.22266-.22265-.0586-.08594-.01562-.10547.03125-.11719.13281-.01562v-91.41406H172.9922v1.45312l-.0586.23438-.35156 1.05078-.17187.52343-.1172.34766-.17577.41016-.11719.17187-.23438.29297-.23046.0586h-.35157l-.11718.05859-.23047.40625v.29297l.11719.17578.23046.23047.1172.23437.64062.75781.29297.46485.17578.23437.23047.35156.23437.34766.64063.8164.17578.46485.17187.41016.11719.69531.17578.46875.11719 1.39844.0586.46484v.875l.11718 1.04688v4.78125l-.0586.46484-.35156 1.28125-.17578.52344-.11328.41015-.35156.9297L172.93359 336l-.23437.58203-.11719.17578-.17187.34766-.17578.40625-.35157.8164-.0586.29297-.11327.29297-.11719.28906-.0586.17579-.11718.875-.0586.40625-.05859.11718-.0586.17579-.05859.17187-.23047.52734-.11718.17188v.23437l-.11719.23438-.0586.17187-.17577.58594v.28906l-.0586.17579v.29296l-.0586.11329-.05859.52734v.17187l-.05468.23438v2.6211l-.17578.8164-.1172.17578-.17577.23438-.1172.17187-.11327.23438-.58594.93359-.23047.28906-.29297.46485-.17578.23437-.28906.35156-.35156.69922-.11328.23047-.17579.41016-.17578.23046-.40625.52735-.8164.69922-.29297.17187-.28906.23438-.17579.11719-.17578.17578-.52344.40625-.52734.17578-.17187.17578-.23438.05469-.64062.17578h-.75782m12.21094 31.02344l-1.07422.44921.35938.89454 1.25-.71485.44531-.53906-.98047-.08985"/><path fill="#d3d3d3" fill-opacity="0" fill-rule="evenodd" d="M201.50781 416.59766h-.89453l.44922.6289.98047.35938.80469-.08985.4453-.98828-.17577.08985-.71485-.35547-.89453.35547m154.6211 59.0703l-.0586-.52343v-.29297l.11328-.29297.0586-.23046.46875-.46875h.11328l.11719-.11329.11718-.05859h.17579l.23437-.0586h.34766l.23437.0586.11719.0586.23047.17187.0586.17578.11718.58203v.29297l-.11719.17578-.17187.28906-.17579.17579-.52734.52343-.23047.23438-.11719.0586h-.17578l-.11718-.0586-.40625-.29297-.17579-.11719-.11718-.0586-.0586-.11327-.05468-.1172m6.64062-10.95702l-.0586-.17188v-1.10937l.0586-.17188.17578-.0586.17188-.05858h.17578l.23437-.0586.1172.0586.05858.69921-.05859.17188-.11719.17578-.11718.0586-.23438.52343-.11328.0586h-.23438l-.05859-.1172m9.61328-14.39062l-.11719-.17578v-.69922l.29297-.875.1172-.17187.17577-.35156.11328-.23047.1172-.29297.35155-.75781.1172-.23047.17187-.23438h.17578l.11719-.0586h.64062l.11719.0586.23437.23438.17188.11328.35156.29297.11719.11718.11328.17579v.11328l.11719.05859.11718.11719v.69922l-.05859.17578v.23047l-.0586.17578-.34765 1.05078-.11719.23047-.11719.23437-.11718.0586-.23047.23437-.64063.28906h-.875l-.41015-.11718-.64063-.46485"/><path fill="none" stroke="#bebebe" stroke-linecap="round" stroke-linejoin="round" stroke-miterlimit="10" stroke-width=".5" d="M467.95703 311.69531H144.02734v168.625h323.9297v-168.625"/><g clip-path="url(#a)"><path fill="#fff" fill-opacity="0" fill-rule="evenodd" d="M144 475.89063v4.4375h.0039H144v-39.08985 34.65235"/></g><g clip-path="url(#b)"><path fill="#fff" fill-opacity="0" fill-rule="evenodd" d="M144 431.50781v.40235-120.23829h.0039H144v119.83594"/></g><path fill="#50fcfc" fill-rule="evenodd" d="M144 436.5625v4.67578l.0039.0039v-4.68359l-.0039.00391"/><path fill="#00e8fc" fill-rule="evenodd" d="M144 435.45313v1.10937l.0039-.0039v-1.10157l-.0039-.0039"/><path fill="#50fcfc" fill-rule="evenodd" d="M144 431.91016v3.54296l.0039.00391v-3.54297l-.0039-.0039"/><g clip-path="url(#c)"><path fill="#fff" fill-opacity="0" fill-rule="evenodd" d="M144.0039 480.32813v-39.08594l4.4336 1.25 4.4375-.92578 4.0664-1.1836.375-3.0664.02344 3.0664.35157 4.4375-.17578 4.4414-.1211 4.4375.5 4.4375 3.85938 3.72267 4.4375-.2422 4.4375-.39452 4.4375-.625 4.4414.53515 4.4375.8789 4.4375.35938.05078.20313 4.38672 2.29687 4.16797-2.29687.27344-.11328 4.4375-.04297 4.4375-.45703 4.4375.42969 4.2461-4.25391.1953-.46485 4.4375-3.74609.73047-.22656 3.70703-.58203 4.4375-1 4.08204-2.85547.35547-.15625 4.4414-.30078 4.21094-3.98438.22656-.09765 4.4375-.64844v3.85156l-1.8711 1.33594 1.8711 2.17578 1.33203-2.17578-1.33203-1.33594v-3.85156l4.32422-3.6914.11328-.57032 4.4375.11719 4.4414-.66797 3.2461-3.3164 1.1914-1.96485 3.36329-2.47266-3.36328-3.1836-4.4375-.28905-4.4414-.4336-4.4375 1.17578-3.83985 2.73047-.59766.07031-.10547-.0703-1.3125-4.4375-3.01953-1.40235-2.48828 1.40234-1.94922.08594-4.4414.14063-.2422-.22657-4.1953-3.94531-2.40235-.4961-2.03516-1.88671-4.4375-2.1836-4.4375.6797-.43359-1.04688-4.00781-3.51172-1.48828-.92578-2.94922-3.51563-1.08594-.92187-3.35156-3.44141-2.16797 3.4414-1.69922 4.4375 3.86719 4.22657.53906.21094 2.48047 4.4375-3.01953 1.0078-1.03906-1.0078-3.39844-4.29297-.1875-.14453-4.2539-1.69532-4.4375 1-.98048.69532-3.45703 1.24609-4.4375.86719-2.7539 2.32422-1.6875.66015-4.4375.6211-3.51172 3.16015-.92578.47656-4.4375 1.19532-3.0547 2.76562-1.3828 4.36719-.22657.07031-4.21484 1.9375-4.4375-.1211-1.0586-1.8164-3.375-4.03125V311.67187h80.95313l3.3711 3.3711 4.4375.125 3.5039-3.4961h40.88281V425.875l-1.40625 1.19531-3.03515.92969-3.55469 3.50781 3.55469 2.73828 4.4414.21485 1.53516 1.48437 2.90234 2.86719 4.40625-2.86719-4.09765-4.4375-.3086-.66015-2.92968-3.77735-1.50782-1.19531V311.67187h17.75V458.0547l-.17187.08203.17187.04687.38282-.04687-.38282-.08203V311.67188h8.87891v142l-.01953.02734.01953.05469.1836-.0547-.1836-.02733v-142h8.875v136.78906l-.32422.80078.32422.6875.26563-.6875-.26563-.80078V311.67188h8.8789V434.6953l-4.4375 1.10938-.16796.14062.16797.3164 3.03125 4.1211 1.40625 1.73828 1.53906-1.73828 2.89844-3.50781.79687-.92969-.79687-.90625-4.4375-.34375V311.67187h53.2578v136.42579l-3.95312 1.16406 3.95313 1.03515 4.28125 3.40235.16015.19922.39844-.19922-.39844-.30469-2.77734-4.13281-1.66406-1.16406V311.67187h13.3164V455.3125l-1.66406 2.82422-.5664 4.4375-2.20704 4.14062-.11328.30079-.28906 4.4375.40235 1.48437 4.4375.60156 3.17968-2.08594-1.71094-4.4375.3047-4.4414-.14844-4.4375-1.625-2.82422V311.67187h79.88671v162.56641l-1.65625 1.65235-2.77734 2.07421-2.35938 2.36329h-8.61718l-2.33985-2.02735-2.02734 2.02735h-48.9336l-2.30077-2.625-4.4375-1.58594-4.4375.20312-3.96094 4.00781H144.0039"/></g><path fill="#50fcfc" fill-rule="evenodd" d="M148.4375 442.49219l-4.4336-1.25v-4.6836l.41016-.61328-.41015-.48828v-3.54297l3.375 4.03125 1.05859 1.8164 4.4375.1211 4.21484-1.9375.22657-.07031 1.3828-4.36719 3.0547-2.76562 4.4375-1.19531.92578-.47657 3.51172-3.16015 4.4375-.6211 1.6875-.66015 2.7539-2.32422 4.4375-.86719 3.45703-1.2461.98047-.6953 4.4375-1 4.2539 1.6953.1875.14454 3.39845 4.29297 1.03906 1.0078 3.01953-1.0078-2.48047-4.4375-.53906-.21094-3.86719-4.22656 1.69922-4.4375 2.16797-3.44141v4.24219l-2.4414 3.63672 2.4414 2.66796 3.90625-2.66796-3.90625-3.63672V405.875l3.35156 3.4414 1.08594.92188 2.94922 3.51563 1.48828.92578v2.39062l-4.21875 1.1211 4.21875 2.8828 1.28125-2.8828-1.28125-1.1211v-2.39062l4.00781 3.51172.4336 1.04687 4.4375-.67969v1.3047l-3.61329 2.76562-.82422 4.36328-4.4414-3.03906-4.4375.73046-2.90234 2.38672-1.53516 2.54688-4.4375.42969-2.80078-2.97657-1.64063-2.15234-4.4375-1.00781-3.33984-1.28125-1.09766-.30079-1.19531.30079-3.24219.79687-4.4414 1.35938-4.4375 1.1875-1.21875 1.09765-3.21875 1.66406-4.4375 2.73047-.04688.04297-3.0586 4.4375.51563 8.875-.57031 4.4414-.2461 4.4375 1.38673 4.4375 2.01953 1.94923 4.4375-.38672 4.24609-1.5625.1914-.10547 4.4375-2.66016 1.83985-1.67187 2.60156-1.36719 4.4375-1.64062 2.83203 3.0078-2.83203 3.1797-3.84765 1.2578 3.84765.90235 1.1875-.90234 3.25-2.91406 4.4375.4453 1.63672 2.46876 2.80469 1.83984 4.4375.22266 4.4375-.34375 3.76172-1.71875-1.3711-4.4375 2.04688-1.96094 4.1875-2.47656.2539-.11719 4.4375-.89844 4.4375.23829 4.4375-.44922 4.4375-1.50782 4.44141-.30468 1.47656-1.40235 2.96094-1.32031 4.4375-.63281 2.90625-2.48438 1.2461-4.4375-4.15235-3.78125-.9414-.65625-3.4961-3.75-4.4375-.11719-4.4414.66016-1.32032-1.23047-3.11719-2.9336-4.4375-.51171-.96093-.9961-3.47656-2.76562v-1.30469l4.4375 2.1836 2.03515 1.88672 2.40234.49609 4.19532 3.94531.24219.22656 4.4414-.14062 1.94922-.08594 2.48828-1.40234 3.01953 1.40234 1.3125 4.4375.10547.07031.59766-.0703 3.83984-2.73048 4.4375-1.17578v1.3789l-3.99219 2.52735.03516 4.4375 3.95703 3.13672 4.4414-1.69531 1.41016-1.4414.125-4.4375-1.53515-.3086-4.4414-2.21875v-1.3789l4.4414.43359 4.4375.28906 3.36328 3.1836-3.36328 2.47265-1.1914 1.96484-3.2461 3.3164-4.4414.66798-4.4375-.11719-.11329.57031-4.32422 3.6914-4.4375.64845-.22656.09765-4.21094 3.98438-4.4414.30078-.35547.15625-4.08203 2.85547-4.4375 1-3.70704.58203-.73047.22656-4.4375 3.7461-.1953.46484-4.2461 4.2539-4.4375-.42968-4.4375.45703-4.4375.04297-.27344.11328-4.16797 2.29687-4.38672-2.29687-.05078-.20313-4.4375-.35937-4.4375-.8789-4.4414-.53516-4.4375.625-4.4375.39453-4.4375.24219-3.85938-3.72266-.5-4.4375.1211-4.4375.17578-4.4414-.35157-4.4375-.02343-3.06641-.375 3.0664-4.06641 1.1836-4.4375.92578"/><path fill="#00e8fc" fill-rule="evenodd" d="M144.41406 435.94531l-.41015.61328v-1.10156l.41015.48828m15.32031 22.1914l-1.38671-4.4375.24609-4.4375.57031-4.4414-.51562-8.875 3.0586-4.4375.04687-.04297 4.4375-2.73046 3.21875-1.66407 1.21875-1.09765 4.4375-1.1875 4.4414-1.35938 3.24219-.79687 1.19531-.30079 1.09766.30079 3.33984 1.28125 4.4375 1.0078 1.64063 2.15235 2.80078 2.97656 4.4375-.42968 1.53516-2.54688 2.90234-2.38672 4.4375-.73046 4.4414 3.03906.82422-4.36328 3.61328-2.76563v2.16797l-.78125.59766.78125 1.08984 3.52344 3.35156-3.52344 3.64063-2.05468.79687-2.38281 2.72266-1.6172-2.72266-2.82421-1.64453-4.4375-.9414-1.74219 2.58593-2.69531 2.41016-4.4375.90625-1.15625 1.1211-3.28516 4.07421-1.61328-4.07422-2.82422-4.30078-4.4375.83594-2.22656-.97266-2.21094-2.64062-4.4414-1.29688-4.4375 2.2539-4.4375.88673-1.28125.79687-3.15625 3.1914-.8672 1.2461.62892 4.4375.10546 4.4375-1.23437 4.4414-.45703 4.4375 1.82422 3.42188 4.4375-.85937 3.97265-2.5625.46485-.1914 4.4375-1.57813 3.4414-2.66797 1-1.8789 4.4375-2.3047 4.4375 2.96875 4.4375 1.1875 4.4414-3.42968v7.57031l-.49608.32422.49609.24219.0625-.2422-.0625-.32421v-7.57031l.92969-.98438 3.5078-1.95312v8.72656l-1.85937 2.10547 1.85938 2.77344 2.10547-2.77344-2.10547-2.10547v-8.72656l4.4375-.03906 4.24219-2.44532.1953-.3164 4.44142-3.14454.80859-.97656 3.6289-3.40234 4.4375.125 2.50391-1.16016 1.9336-1.15625v3.64453l-4.07032 1.94922 4.07031 2.25 1.44922-2.25-1.44922-1.94922v-3.64453l.98047 1.15625 2.96485 4.4375.4375 4.4375.05469.03906 4.4414 1.90625 4.4375-.86718 4.4375-.60938.55078-.46875 2.53516-4.4375-3.08594-2.8125-2.33594-1.625-2.10156-2.2539-4.4375-.8086-4.4414 1.52735-3.11329-2.90235-1.32422-1.25-4.4375.6289-3.6875-3.8203-.75-.59766v-2.16797l3.47657 2.76563.96094.99609 4.4375.51172 3.11718 2.9336 1.32031 1.23046 4.44141-.66015 4.4375.11718 3.4961 3.75.9414.65625 4.15234 3.78125-1.24609 4.4375-2.90625 2.48438-4.4375.63281-2.96094 1.32031-1.47656 1.40235-4.4414.30468-4.4375 1.50782-4.4375.44921-4.4375-.23828-4.4375.89844-.25391.11719-4.1875 2.47656-2.04688 1.96094 1.3711 4.4375-3.76172 1.71875-4.4375.34375-4.4375-.22266-2.80469-1.83984-1.63672-2.46875-4.4375-.44531-3.25 2.91406-1.1875.90234-3.84765-.90234 3.84765-1.25781 2.83203-3.1797-2.83203-3.0078-4.4375 1.64062-2.60156 1.36719-1.83984 1.67187-4.4375 2.66016-.19141.10547-4.2461 1.5625-4.4375.38672-2.01952-1.94922"/><path fill="#00d4fc" fill-rule="evenodd" d="M161.7539 457.1211l-1.82421-3.42188.45703-4.4375 1.23437-4.4414-.10547-4.4375-.6289-4.4375.86719-1.2461 3.15625-3.1914 1.28125-.79688 4.4375-.88672 4.4375-2.2539 4.4414 1.29687 2.21094 2.64062 2.22656.97266 4.4375-.83594v3.01953l-4.4375.76953-1.94531.51172-2.49219 1.16016-4.20312 3.27734-.23828.4414-2.30078 3.9961-2.13672 1.17188-4.4375.66797-3.33203 2.60156-1.10547 2.73437-.23828 1.70313.23828.4414 1.46875-.4414 2.96875-1.30469 4.4375-1.21484 4.4375-1.47266.57812-.44531 1.10547-4.4414 2.75781-2.01563 3.83594-2.42188.60156-1.60156 4.4375.95703.83985-3.79297-.83985-1.28125v-3.01953l2.82422 4.30078 1.61328 4.07422 3.28516-4.07422 1.15625-1.1211 4.4375-.90624 2.69531-2.41016 1.74219-2.58594 4.4375.94141 2.82422 1.64453 1.61719 2.72266 2.3828-2.72266 2.0547-.79687 3.52343-3.64063-3.52344-3.35156-.78125-1.08984.78125-.59766.75.59766 3.6875 3.8203 4.4375-.6289 1.32422 1.25 3.11328 2.90235 4.44141-1.52735v.8086l-4.3125 2.2539 2.2539 4.4375 2.0586 2.64063 4.4375 1.01172 4.4375-.4922 2.01953-3.16015-2.01953-1.83984-3.73047-2.59766-.70703-.76172-4.4375-1.49218v-.8086l4.4375.8086 2.10156 2.2539 2.33594 1.625 3.08594 2.8125-2.53516 4.4375-.55078.46875-4.4375.60938-4.4375.86719-4.4414-1.90625-.0547-.03907-.4375-4.4375-2.96484-4.4375-.98047-1.15625-1.93359 1.15625-2.5039 1.16016-4.4375-.125-3.62891 3.40234-.8086.97656-4.4414 3.14454-.19531.3164-4.2422 2.44531-4.4375.03907-3.5078 1.95312-.9297.98438-4.4414 3.42969-4.4375-1.1875-4.4375-2.96875-4.4375 2.30468-1 1.8789-3.4414 2.66798-4.4375 1.57812-.46485.1914-3.97265 2.5625-4.4375.85938"/><path fill="#00c4fc" fill-rule="evenodd" d="M161.7539 454.14063l-.23827-.44141.23828-1.70313 1.10547-2.73437 3.33203-2.60156 4.4375-.66797 2.13672-1.17188 2.30078-3.9961.23828-.4414 4.20312-3.27734L182 435.9453l1.94531-.51172 4.4375-.76953.83985 1.28125-.83985 3.79297-4.4375-.95703-.60156 1.60156-3.83594 2.42188-2.75781 2.01562-1.10547 4.4414-.57812.44532-4.4375 1.47266-4.4375 1.21484-2.96875 1.30469-1.46875.4414"/><path fill="#50fcfc" fill-rule="evenodd" d="M197.26172 453.375l-.4961.32422.4961.24219.0625-.2422-.0625-.32421"/><path fill="#00e8fc" fill-rule="evenodd" d="M201.69922 416.42188l-2.4414-2.66797 2.4414-3.63672v3.53906l-.0664.09766.0664.0703.10547-.0703-.10547-.09766v-3.53906l3.90625 3.63672-3.90625 2.66796"/><path fill="#00d4fc" fill-rule="evenodd" d="M201.69922 456.47266l-1.85938-2.77344 1.85938-2.10547 2.10547 2.10547-2.10547 2.77344m0-42.64844l-.0664-.07031.0664-.09766.10547.09766-.10547.0703"/><path fill="#00e8fc" fill-rule="evenodd" d="M210.57422 421.07422l-4.21875-2.88281 4.21875-1.1211 1.28125 1.1211-1.28125 2.8828"/><path fill="#50fcfc" fill-rule="evenodd" d="M228.32813 433.9961l-4.07032 1.94921 4.07031 2.25 1.44922-2.25-1.44922-1.94922"/><g clip-path="url(#d)"><path fill="#50fcfc" fill-rule="evenodd" d="M226.5625 311.67188h-1.60547l3.3711 3.37109 4.4375.125 3.5039-3.4961h-1.41406l-2.08984 2.08204-4.4375-.31641-1.76563-1.76563"/></g><g clip-path="url(#e)"><path fill="#00e8fc" fill-rule="evenodd" d="M232.36328 311.67188h-5.80078l1.76563 1.76562 4.4375.3164 2.08984-2.08202h-2.49219"/></g><path fill="#00c4fc" fill-rule="evenodd" d="M235.14844 435.94531l-2.2539-4.4375 4.3125-2.2539v.80468l-2.76954 1.44922 2.76953 3.78906.90625.64844 3.53125 1.98438 4.4375-.49219.95313-1.49219-.95313-.86719-4.4375-2.27734-.95312-1.29297-3.48438-1.44922v-.80468l4.4375 1.49218.70703.76172 3.73047 2.59766 2.01953 1.83984-2.01953 3.16016-4.4375.49219-4.4375-1.01172-2.0586-2.64063"/><path fill="#00b8fc" fill-rule="evenodd" d="M237.20703 435.29688l-2.76953-3.78907 2.76953-1.44922v.8086l-1.22656.64062 1.22656 1.67578 3.8711 2.76172.5664.3164 2.85547-.3164-2.85547-.5039-2.89844-3.9336-1.53906-.64062v-.8086l3.48438 1.44922.95312 1.29297 4.4375 2.27735.95313.86718-.95313 1.49219-4.4375.49219-3.53125-1.98438-.90625-.64844"/><path fill="#00a8fc" fill-rule="evenodd" d="M237.20703 433.1836l-1.22656-1.67579 1.22656-.64062 1.53906.64062 2.89844 3.9336 2.85547.5039-2.85547.3164-.5664-.3164-3.8711-2.76172"/><path fill="#50fcfc" fill-rule="evenodd" d="M246.08203 451.4375l-1.8711-2.17578 1.8711-1.33594 1.33203 1.33594-1.33203 2.17578"/><path fill="#00e8fc" fill-rule="evenodd" d="M251 435.94531l-.03516-4.4375 3.9922-2.52734v2.29687l-.36329.23047-1.8086 4.4375 2.17188 1.71875 3.07813-1.71875-2.64844-4.4375-.42969-.23047v-2.29687l4.4414 2.21875 1.53516.3086-.125 4.4375-1.41015 1.4414-4.4414 1.69531L251 435.94531"/><path fill="#00d4fc" fill-rule="evenodd" d="M254.95703 437.66406l-2.17187-1.71875 1.80859-4.4375.36328-.23047v3.8086l-.38281.85937.38281.30469.54688-.30469-.54688-.85937v-3.8086l.42969.23047 2.64844 4.4375-3.07813 1.71875"/><path fill="#00c4fc" fill-rule="evenodd" d="M254.95703 436.25l-.38281-.30469.38281-.85937.54688.85937-.54688.30469"/><path fill="#50fcfc" fill-rule="evenodd" d="M272.71094 434.2461l-3.55469-2.73829L272.71094 428l3.03515-.92969 1.40625-1.19531v4.53906l-4.4414.9375-.15625.15625.15625.1211 4.4414.53125 3.91797 3.78515.51953.51172.78516-.51172-.78516-.82422-3.42187-3.61328-1.01563-1.09375V425.875l1.50782 1.19531 2.92968 3.77735.3086.66015 4.09765 4.4375-4.40625 2.86719-2.90234-2.86719-1.53516-1.48437-4.4414-.21485"/><path fill="#00e8fc" fill-rule="evenodd" d="M272.71094 431.6289l-.15625-.12109.15625-.15625 4.4414-.9375 1.01563 1.09375 3.42187 3.61328.78516.82422-.78516.51172-.51953-.51172-3.91797-3.78515-4.4414-.53125"/><path fill="#50fcfc" fill-rule="evenodd" d="M294.90234 458.1836l-.17187-.04688.17187-.08203.38282.08203-.38282.04687m8.87891-4.42968l-.01953-.0547.01953-.02733.1836.02734-.1836.05469m8.875-3.8047l-.32422-.6875.32422-.80077.26563.80078-.26563.6875m4.4414-13.6875l-.16796-.3164.16797-.14063 4.4375-1.10938 4.4375.34375.79687.90625-.79687.92969-2.89844 3.50781-1.53906 1.73828-1.40625-1.73828-3.03125-4.1211m57.6953 14.03517l-3.95312-1.03516 3.95313-1.16406 1.66406 1.16406 2.77735 4.13281.39843.30469-.39844.19922-.16015-.19922-4.28125-3.40235m8.8789 22.64063l-.40234-1.48438.28906-4.4375.11329-.30078 2.20703-4.14062.5664-4.4375 1.66406-2.82422 1.625 2.82422.14844 4.4375-.30469 4.4414 1.71094 4.4375-3.17969 2.08594-4.4375-.60156"/><g clip-path="url(#f)"><path fill="#50fcfc" fill-rule="evenodd" d="M384.14844 480.32813h1.71094l2.25-2.27735 4.4375-1.10937 4.05859 3.38671h2.67969l-2.30079-2.625-4.4375-1.58593-4.4375.20312-3.96093 4.00781"/></g><g clip-path="url(#g)"><path fill="#00e8fc" fill-rule="evenodd" d="M385.85938 480.32813l2.25-2.27735 4.4375-1.10937 4.05859 3.38671h-1.64063l-2.41796-2.01953-3.88282 2.01954h-2.80469"/></g><g clip-path="url(#h)"><path fill="#00d4fc" fill-rule="evenodd" d="M388.66406 480.32813h2.63672l1.2461-.64844.77734.64844h1.64062l-2.41796-2.01954-3.88282 2.01954"/></g><g clip-path="url(#i)"><path fill="#00c4fc" fill-rule="evenodd" d="M391.30078 480.32813l1.2461-.64844.77734.64844h-2.02344"/></g><g clip-path="url(#j)"><path fill="#50fcfc" fill-rule="evenodd" d="M448.21875 480.32813h4.36719l-2.33985-2.02735-2.02734 2.02735"/></g><g clip-path="url(#k)"><path fill="#50fcfc" fill-rule="evenodd" d="M461.20313 480.32813l2.35937-2.36329 2.77734-2.07421 1.65625-1.65235v6.08985h-6.79296"/></g><g clip-path="url(#l)"><path fill="#50fcfc" fill-rule="evenodd" d="M467.9961 480.32813H468v-6.09375 6.09375h-.0039"/></g><g clip-path="url(#m)"><path fill="#fff" fill-opacity="0" fill-rule="evenodd" d="M467.9961 311.67188H468v162.5625-162.5625h-.0039"/></g><path fill="#fff" fill-opacity="0" fill-rule="evenodd" d="M239.85938 431.69531l3.41796 4.73438 8.07422-5.82813-3.41797-4.73437-8.07422 5.82812"/><path fill-rule="evenodd" d="M248.4961 429.77734l.29687.41016-5.10156 3.6836-.46094-.63673 3.64062-2.6289-.8125-1.125.44922-.32422.3789.41406.19142.17578.20703.13282.23437.08203.27344.01953.32031-.0586.38281-.14453"/><path fill="#fff" fill-opacity="0" fill-rule="evenodd" d="M171.6875 465.70313l5.84375-.0586-.09766-9.96094-5.84375.0586.09766 9.96094"/><path fill-rule="evenodd" d="M175.10938 457.53906l.5078-.0039.0625 6.29296-.78905.00782-.04297-4.48828-1.38672.01562-.00781-.5586.55859-.0703.2539-.0547.22657-.09374.20312-.14063.17188-.21094.14062-.29687.10156-.39844"/><path fill="#fff" fill-opacity="0" fill-rule="evenodd" d="M218.35156 430.15625l7.4961 2.57422 3.3125-9.63672-7.4922-2.57813-3.3164 9.64063"/><path fill-rule="evenodd" d="M223.41797 423.0586l3.10547 1.0664-.23828.69922-2.4961-.85547-.80469 1.63281.26563-.08203.30078-.03515.33203.01953.375.09375.29688.1289.29297.1914.26562.2461.22656.3086.16407.35937.05078.20313.03125.21875.00781.23046-.01953.2422-.04688.2578-.08203.27344-.17578.40625-.23437.36328-.28516.3086-.33984.24219-.37891.16796-.20703.05079-.21875.03125-.22656.0039-.23438-.01953-.24219-.04297-.25-.07422-.42968-.1875-.34375-.22656-.26563-.26172-.1875-.28906-.125-.32031-.0664-.33985-.01172-.35156.03125-.36328.74609.2539v.2461l.02734.23047.0586.21094.08594.1953.11718.16798.15235.14843.17968.1211.21485.09375.30469.07812.28906.02735.26953-.03516.25-.08984.22656-.14844.19922-.21094.17188-.26953.14062-.32813.0664-.2578.02735-.26563-.01563-.26953-.0625-.26172-.12109-.2461-.17578-.22265-.24219-.1875-.3086-.14063-.33202-.07812-.30078.01172-.31641.08984-.38281.15234-.65625-.22656 1.55078-3.08594"/><g clip-path="url(#n)"><path fill="none" stroke="#000" stroke-linecap="round" stroke-linejoin="round" stroke-miterlimit="10" stroke-width=".5" d="M147.5 480.61719l-7-.57422"/></g><g clip-path="url(#o)"><path fill="none" stroke="#000" stroke-linecap="round" stroke-linejoin="round" stroke-miterlimit="10" stroke-width=".5" d="M147.5 480.61719l.97266 2.2539"/></g><g clip-path="url(#p)"><path fill="none" stroke="#000" stroke-linecap="round" stroke-linejoin="round" stroke-miterlimit="10" stroke-width=".5" d="M146.48438 480.53125l.48437 1.1289"/></g><g clip-path="url(#q)"><path fill="none" stroke="#000" stroke-linecap="round" stroke-linejoin="round" stroke-miterlimit="10" stroke-width=".5" d="M160.8086 480.70313l-6.98829-.75"/></g><g clip-path="url(#r)"><path fill="none" stroke="#000" stroke-linecap="round" stroke-linejoin="round" stroke-miterlimit="10" stroke-width=".5" d="M160.8086 480.70313l.91406 2.27734"/></g><g clip-path="url(#s)"><path fill="none" stroke="#000" stroke-linecap="round" stroke-linejoin="round" stroke-miterlimit="10" stroke-width=".5" d="M174.14063 480.44922l-7.02344-.24219"/></g><g clip-path="url(#t)"><path fill="none" stroke="#000" stroke-linecap="round" stroke-linejoin="round" stroke-miterlimit="10" stroke-width=".5" d="M174.14063 480.44922l1.07812 2.20703"/></g><g clip-path="url(#u)"><path fill="none" stroke="#000" stroke-linecap="round" stroke-linejoin="round" stroke-miterlimit="10" stroke-width=".5" d="M187.45703 480.25781l-7.02344.14453"/></g><g clip-path="url(#v)"><path fill="none" stroke="#000" stroke-linecap="round" stroke-linejoin="round" stroke-miterlimit="10" stroke-width=".5" d="M187.45703 480.25781l1.19531 2.14063"/></g><g clip-path="url(#w)"><path fill="none" stroke="#000" stroke-linecap="round" stroke-linejoin="round" stroke-miterlimit="10" stroke-width=".5" d="M200.75781 480.00781l-6.9961.64063"/></g><g clip-path="url(#x)"><path fill="none" stroke="#000" stroke-linecap="round" stroke-linejoin="round" stroke-miterlimit="10" stroke-width=".5" d="M200.75781 480.00781l1.34766 2.05469"/></g><g clip-path="url(#y)"><path fill="none" stroke="#000" stroke-linecap="round" stroke-linejoin="round" stroke-miterlimit="10" stroke-width=".5" d="M214.05469 479.83984l-6.95703.97657"/></g><g clip-path="url(#z)"><path fill="none" stroke="#000" stroke-linecap="round" stroke-linejoin="round" stroke-miterlimit="10" stroke-width=".5" d="M214.05469 479.83984l1.4414 1.98438"/></g><g clip-path="url(#A)"><path fill="none" stroke="#000" stroke-linecap="round" stroke-linejoin="round" stroke-miterlimit="10" stroke-width=".5" d="M227.3711 479.84375l-6.96094.97266"/></g><g clip-path="url(#B)"><path fill="none" stroke="#000" stroke-linecap="round" stroke-linejoin="round" stroke-miterlimit="10" stroke-width=".5" d="M227.3711 479.84375l1.4414 1.98438"/></g><g clip-path="url(#C)"><path fill="none" stroke="#000" stroke-linecap="round" stroke-linejoin="round" stroke-miterlimit="10" stroke-width=".5" d="M240.63672 479.5664l-6.85938 1.52735"/></g><g clip-path="url(#D)"><path fill="none" stroke="#000" stroke-linecap="round" stroke-linejoin="round" stroke-miterlimit="10" stroke-width=".5" d="M240.63672 479.5664l1.59375 1.86329"/></g><g clip-path="url(#E)"><path fill="none" stroke="#000" stroke-linecap="round" stroke-linejoin="round" stroke-miterlimit="10" stroke-width=".5" d="M253.84766 479.19531l-6.65235 2.26953"/></g><g clip-path="url(#F)"><path fill="none" stroke="#000" stroke-linecap="round" stroke-linejoin="round" stroke-miterlimit="10" stroke-width=".5" d="M253.84766 479.19531l1.78906 1.67578"/></g><g clip-path="url(#G)"><path fill="none" stroke="#000" stroke-linecap="round" stroke-linejoin="round" stroke-miterlimit="10" stroke-width=".5" d="M267.05469 478.92188l-6.4375 2.8125"/></g><g clip-path="url(#H)"><path fill="none" stroke="#000" stroke-linecap="round" stroke-linejoin="round" stroke-miterlimit="10" stroke-width=".5" d="M267.05469 478.92188l1.92187 1.52343"/></g><g clip-path="url(#I)"><path fill="none" stroke="#000" stroke-linecap="round" stroke-linejoin="round" stroke-miterlimit="10" stroke-width=".5" d="M280.3711 478.92188l-6.4375 2.8164"/></g><g clip-path="url(#J)"><path fill="none" stroke="#000" stroke-linecap="round" stroke-linejoin="round" stroke-miterlimit="10" stroke-width=".5" d="M280.3711 478.92188l1.92187 1.52343"/></g><g clip-path="url(#K)"><path fill="none" stroke="#000" stroke-linecap="round" stroke-linejoin="round" stroke-miterlimit="10" stroke-width=".5" d="M293.5664 478.67578l-6.19921 3.3086"/></g><g clip-path="url(#L)"><path fill="none" stroke="#000" stroke-linecap="round" stroke-linejoin="round" stroke-miterlimit="10" stroke-width=".5" d="M293.5664 478.67578l2.03516 1.36719"/></g><g clip-path="url(#M)"><path fill="none" stroke="#000" stroke-linecap="round" stroke-linejoin="round" stroke-miterlimit="10" stroke-width=".5" d="M306.70703 478.38281l-5.85156 3.89453"/></g><path fill="none" stroke="#000" stroke-linecap="round" stroke-linejoin="round" stroke-miterlimit="10" stroke-width=".5" d="M305.85547 478.94922l1.07812.58203"/><g clip-path="url(#N)"><path fill="none" stroke="#000" stroke-linecap="round" stroke-linejoin="round" stroke-miterlimit="10" stroke-width=".5" d="M319.35547 477.63672l-4.51953 5.38281"/></g><path fill="none" stroke="#000" stroke-linecap="round" stroke-linejoin="round" stroke-miterlimit="10" stroke-width=".5" d="M318.69922 478.42188l1.19922.2539"/><g clip-path="url(#O)"><path fill="none" stroke="#000" stroke-linecap="round" stroke-linejoin="round" stroke-miterlimit="10" stroke-width=".5" d="M330.69922 476.82813l-.57813 7.0039"/></g><g clip-path="url(#P)"><path fill="none" stroke="#000" stroke-linecap="round" stroke-linejoin="round" stroke-miterlimit="10" stroke-width=".5" d="M340.46094 479.03516l6.53125 2.58593"/></g><g clip-path="url(#Q)"><path fill="none" stroke="#000" stroke-linecap="round" stroke-linejoin="round" stroke-miterlimit="10" stroke-width=".5" d="M353.79297 481.67188l6.4961-2.6875"/></g><g clip-path="url(#R)"><path fill="none" stroke="#000" stroke-linecap="round" stroke-linejoin="round" stroke-miterlimit="10" stroke-width=".5" d="M368.20313 483.10547l4.30468-5.55469"/></g><g clip-path="url(#S)"><path fill="none" stroke="#000" stroke-linecap="round" stroke-linejoin="round" stroke-miterlimit="10" stroke-width=".5" d="M381.30469 482.92578l4.73437-5.19531"/></g><g clip-path="url(#T)"><path fill="none" stroke="#000" stroke-linecap="round" stroke-linejoin="round" stroke-miterlimit="10" stroke-width=".5" d="M394.13281 482.3789l5.70703-4.09765"/></g><g clip-path="url(#U)"><path fill="none" stroke="#000" stroke-linecap="round" stroke-linejoin="round" stroke-miterlimit="10" stroke-width=".5" d="M408.03125 483.01172l4.53906-5.36328"/></g><g clip-path="url(#V)"><path fill="none" stroke="#000" stroke-linecap="round" stroke-linejoin="round" stroke-miterlimit="10" stroke-width=".5" d="M421.7539 483.3086l3.72266-5.96094"/></g><g clip-path="url(#W)"><path fill="none" stroke="#000" stroke-linecap="round" stroke-linejoin="round" stroke-miterlimit="10" stroke-width=".5" d="M436.4375 483.8086l.98828-6.95704"/></g><g clip-path="url(#X)"><path fill="none" stroke="#000" stroke-linecap="round" stroke-linejoin="round" stroke-miterlimit="10" stroke-width=".5" d="M450.27734 476.8164l-.05859 7.02735"/></g><g clip-path="url(#Y)"><path fill="none" stroke="#000" stroke-linecap="round" stroke-linejoin="round" stroke-miterlimit="10" stroke-width=".5" d="M463.49219 476.8164l.13672 7.02344"/></g><g clip-path="url(#Z)"><path fill="none" stroke="#000" stroke-linecap="round" stroke-linejoin="round" stroke-miterlimit="10" stroke-width=".5" d="M147.48828 467.44922l-6.97656-.8711"/></g><path fill="none" stroke="#000" stroke-linecap="round" stroke-linejoin="round" stroke-miterlimit="10" stroke-width=".5" d="M147.48828 467.44922l.875 2.28906m-1.89062-2.41797l.4375 1.14844m13.90625-1.15234l-7-.60547m7 .60547l.96093 2.2578m12.3672-2.51952l-7.02735-.08203m7.02734.08203l1.125 2.1836m12.1875-2.17188l-7.02344-.10547m7.02344.10547l1.1211 2.17968m12.17968-2.55078l-6.9961.63672m6.9961-.63672l1.34375 2.05469m11.96094-2.16406l-6.97656.85547m6.97656-.85547l1.40625 2.01172m11.91797-1.92188l-6.99219.67578m6.99219-.67578l1.35547 2.04688m11.8711-2.56641l-6.81642 1.71484m6.81641-1.71484l1.64453 1.8164m-2.63672-1.5664l.82422.91016M253.75 465.625l-6.45703 2.77734M253.75 465.625l1.91406 1.53906m-2.85547-1.13281l.95703.76562m13.08985-1.58203l-6.03906 3.59766m6.03906-3.59766l2.09765 1.27344m-2.97656-.75l1.04688.63672m13.27734-.91797L274 468.57031m6.30078-3.11328l1.99219 1.42969m11.21875-1.625l-6.08984 3.5039m6.08984-3.5039l2.07812 1.30469m11.08594-1.54297l-5.78906 3.98047m5.78906-3.98047l2.17578 1.13281M319.5 464.45312l-4.8086 5.1211m4.8086-5.1211l2.36719.64063m10.98437-.60938l-4.88281 5.0586m4.88281-5.0586l2.35938.6797m10.63672-.94923l-4.2461 5.59766m3.6289-4.78516l1.21095.19532m11.35937-1.64063l-1.51953 6.86328m1.29688-5.86328l1.18359-.32812m13.26172-.33204l-3.33203 6.1836m2.84765-5.28516l1.22657.00781m7.53906 1.17579l6.73047 2.01953m-5.75-1.72266l-.2422-1.20312m12.47267 1.35937l6.9414 1.11328m-5.92969-.95312l-.39843-1.16016m13.03906 3.14453l6.26953-3.17578m-5.35937 2.71484l-1.00391-.70703m18.64453-3.23437l-4.20312 5.6289m3.58984-4.8125l1.21484.1875m13.0625-.70703l-4.90234 5.03516m4.1875-4.30078l1.17969.33984m8.28515 4.25l4.23047-5.61328m14.44531 1.46484l-6.49218 2.6836"/><g clip-path="url(#aa)"><path fill="none" stroke="#000" stroke-linecap="round" stroke-linejoin="round" stroke-miterlimit="10" stroke-width=".5" d="M147.42969 454.46484l-6.85938-1.53125"/></g><path fill="none" stroke="#000" stroke-linecap="round" stroke-linejoin="round" stroke-miterlimit="10" stroke-width=".5" d="M147.42969 454.46484l.65234 2.3672m12.58203-2.07032l-6.69531-2.1289m6.69531 2.1289l.4414 2.41406m12.62892-1.83203l-6.21094-3.28906m6.21094 3.28906l.0039 2.45313m13.54688-3.00782l-6.6797-2.17969m6.6797 2.1797l.42187 2.41796m13.04688-3.1289l-6.98828-.76172m6.98828.76172l.91015 2.28125m12.39063-2.1797l-6.96094-.96093m6.96094.96094l.84765 2.30078m12.5-2.86719l-7.02343.17188m7.02343-.17188l1.20703 2.13672m12.03516-2.76563l-6.8789 1.42579m6.8789-1.42578l1.57031 1.88671m11.22657-3.125l-5.84375 3.90625m5.84375-3.90625l2.16015 1.16016m-3.01172-.59375l1.08203.58203m13.125-1.08594l-5.92187 3.78125m5.92188-3.78125l2.13671 1.20704m-2.99609-.65625l1.0664.60156m13.21094-.97656l-6.1289 3.42968m6.1289-3.42969l2.06641 1.32422m-2.95703-.82812l1.03125.66406m12.76172-1.75l-5.30469 4.60938m5.30469-4.60938l2.28906.8789m-3.0586-.21093l1.14454.4414m12.66797-1.39062l-4.75782 5.17188m4.75782-5.17188l2.375.6211m11.02734-.53907l-4.92969 5.00781m4.92969-5.0078l2.35156.69921m-3.07031.02734l1.17578.35157m12.85156-1.08203l-4.92187 5.01562m4.92187-5.01562l2.35547.6953m-3.07031.03516l1.17578.34766m12.53906-1.35156l-4.29296 5.5625m4.29296-5.5625l2.42188.41015m-3.04688.39844l1.21094.20703m12.79297-.96875l-4.41797 5.46485m4.41797-5.46485l2.41016.46875m-3.0547.32813l1.20704.23437m11.45703-1.6914l-1.82422 6.78515m1.82422-6.78515l2.39063-.55078m8.2539.90234l3.51563 6.08594m-3.0039-5.19922l.64843-1.04297m11.05469 1.15625l5.71484 4.08594m-4.88281-3.49219l.16015-1.21484m11.94141 1.30468l6.48047 2.71485m11.91406-4.34766l-3.67969 5.98438m3.14454-5.11329l1.22265.07422m12.08203-1.21875l-2.58984 6.53125m2.58984-6.53125l2.4414-.27343m9.78517.03125l-.41407 7.01562m.35547-5.9961l1.11328-.51171m14.07032.1211l-4.03125 5.7578m3.4453-4.91796l1.21485.14843"/><g clip-path="url(#ab)"><path fill="none" stroke="#000" stroke-linecap="round" stroke-linejoin="round" stroke-miterlimit="10" stroke-width=".5" d="M147.1289 441.98047l-6.2578-3.19531"/></g><path fill="none" stroke="#000" stroke-linecap="round" stroke-linejoin="round" stroke-miterlimit="10" stroke-width=".5" d="M147.1289 441.98047l.04298 2.45312m13.26562-2.4375l-6.24219-3.22656m5.33203 2.75781l.01563 1.22657m14.35547-1.08204l-6.53906-2.57421m5.58984 2.19922l.13672 1.21875m13.86719-.31641l-6.01563-3.63281m5.14063 3.10546l-.06641 1.22266m14.59766-1.44531l-6.69922-2.1289m5.72265 1.8164l.22266 1.20703m14.23047-1.78906l-7.01953-.33985m5.99609.28907l.52344 1.10937m13.8086-1.50781l-7.00782.55469m5.98828-.47266l.66016 1.03125m13.53906-1.82812l-6.73828 1.98437m6.73828-1.98437l1.71875 1.7539m11.3086-2.45312l-6.16016 3.3828m6.16015-3.3828l2.05078 1.34375m10.89844-1.88282l-5.42969 4.46485m5.4297-4.46485l2.26562.94141m11.01562-.98047l-5.36328 4.53906m5.36328-4.53906l2.28125.91406m11.14063-.78125l-5.57813 4.27735m5.57813-4.27735l2.23047 1.01563m-3.04297-.39453l1.11718.50781m12.58594-1.59375l-4.72656 5.20313m4.72656-5.20313l2.375.60547m-3.0625.15234l1.1875.30078m13.08594-.78125l-5.26953 4.65235m5.26953-4.65235l2.29687.85938m-3.0664-.1836l1.15234.4297m12.97266-1.0586l-5.34766 4.5586m5.34766-4.5586l2.28125.89844m-3.0625-.23828l2.28515.90234m11.53907-1.84766l-4.8047 5.1289m4.8047-5.1289l2.36718.63672m-3.0664.10938l2.36719.63672m11.08984-1.8086l-3.6914 5.97656m3.6914-5.97656l2.44922.16016m-2.98438.71094l1.22266.07812m11.53125-1.39062l-1.5 6.86328m1.5-6.86328l2.36328-.66407m-2.58203 1.66016l1.1836-.33203m9.97265-.34766l3.25781 6.22656m-3.25781-6.22656l1.38672-2.02344m-.91406 2.9297l.6953-1.01173m10.64454 1.6289l6.26172 3.1836m-6.26172-3.1836l-.04688-2.45702m.95704 2.91797l-.02344-1.22657m14.41015-.96484l2.29688 6.64063m-1.96094-5.67579l.83594-.89843m15.48047.5078l-4.3789 5.4961m4.3789-5.4961l2.41406.44923m-3.05078.34765l2.41406.45313m11.30078-1.42578l-3.90234 5.84375m3.90234-5.84375l2.4414.25m-3.0078.60156l2.4414.2461m11.33985-1.16016l-3.70313 5.97265m3.70313-5.97265l2.44922.16015m-2.98829.70704l2.44922.16406m-2.98828.70703l1.22656.07812m13.4961-1.58593l-4.36328 5.5078"/><g clip-path="url(#ac)"><path fill="none" stroke="#000" stroke-linecap="round" stroke-linejoin="round" stroke-miterlimit="10" stroke-width=".5" d="M465.74219 437.6289l2.41406.44532"/></g><path fill="none" stroke="#000" stroke-linecap="round" stroke-linejoin="round" stroke-miterlimit="10" stroke-width=".5" d="M465.10938 438.42969l1.20703.22265"/><g clip-path="url(#ad)"><path fill="none" stroke="#000" stroke-linecap="round" stroke-linejoin="round" stroke-miterlimit="10" stroke-width=".5" d="M147.40234 427.9414l-6.80468-1.74609"/></g><path fill="none" stroke="#000" stroke-linecap="round" stroke-linejoin="round" stroke-miterlimit="10" stroke-width=".5" d="M146.41406 427.6875l.28906 1.1914m13.92188-.6289l-6.61719-2.36328m5.65235 2.01953l.17968 1.21484m13.9375-.48828l-6.29297-3.1289m5.375 2.67187l.03516 1.22656m13.84375-.20312l-5.58594-4.26172m4.77344 3.64062l-.19922 1.21094m14.47656-.79687l-5.8828-3.84766m5.8828 3.84766l-.22265 2.4414m13.96484-3.37109l-6.74219-1.98828m5.76172 1.69922l.2461 1.19922m14.0664-.96875l-6.77343-1.8711m5.78906 1.59766l.26562 1.19922m14.06641-2.66016l-6.83984 1.59766m6.83984-1.59766l1.61719 1.84766m11.51172-2.42578l-6.46485 2.7539m6.46485-2.7539l1.90625 1.54296m11.14062-2.05468l-5.92969 3.77734m5.9297-3.77734l2.1328 1.21093m-2.99609-.66015l1.0664.60547m13.05079-1.2461l-5.8086 3.95703m5.8086-3.95703l2.17187 1.14063m-3.01562-.5664l1.08594.5703m13.27734-.80078l-6.21875 3.26953m6.21875-3.26953l2.03125 1.38282m10.4336-2.44141l-4.51563 5.38672m4.51562-5.38672l2.39844.51172m-3.05469.27344l1.19922.2539m13.17969-.63672l-5.33203 4.58203m5.33203-4.58203l2.28516.89453m-3.0625-.22656l1.14453.44531m12.92578-1.1328l-5.28906 4.62109m5.28906-4.6211l2.29297.8711m-3.0625-.19922l2.29297.8711m11.80859-1.52735l-5.32031 4.58984m5.3203-4.58984l2.28907.89062m-3.0625-.22265l1.14453.4453m13.04688-.98827l-5.52735 4.33984m5.52735-4.33984l2.24219.99219M359 425.53125l1.1211.49219m12.34374-1.76563l-4.21875 5.6211m4.21875-5.6211l2.42579.3789m-3.03907.44142l2.42578.3789m11.78516-.96484l-4.78125 5.15234m4.78125-5.15234l2.3711.6289m-3.06641.1211l2.3711.6289m-3.06641.1211l1.18359.3125m13.67969-1.65235l-5.09766 4.83204m5.09766-4.83204l2.32812.77735m-3.07031-.07422l2.32812.77734m-3.0703-.07422l2.32812.77735m12.23437-2.41406l-4.6211 5.29296m4.6211-5.29296l2.38672.55468m-3.0625.21485l2.39063.55468m-3.0625.21485l2.39062.5586m11.70703-2.5l-3.49219 6.09765m3.4922-6.09766l2.44921.07422m-2.95703.8125l2.44922.07813m-2.95703.80859l2.44922.07812m-2.95704.8086l1.22657.03906m13.78515-2.59375l-3.83984 5.88672m3.83984-5.88672l2.44532.22266m-3.00391.63672l2.44531.21875m-3.0039.63671l2.4453.21875m12.03907-1.89843l-3.94531 5.8164m3.94531-5.8164l2.4414.26562m-3.01562.58203l2.4414.26172m-3.01562.58203l1.22266.13282m13.64844-1.5l-4.75782 5.16796"/><g clip-path="url(#ae)"><path fill="none" stroke="#000" stroke-linecap="round" stroke-linejoin="round" stroke-miterlimit="10" stroke-width=".5" d="M465.9414 424.48438l2.375.61718"/></g><path fill="none" stroke="#000" stroke-linecap="round" stroke-linejoin="round" stroke-miterlimit="10" stroke-width=".5" d="M465.25 425.23438l2.3711.62109m-3.06641.13281l1.1875.3086"/><g clip-path="url(#af)"><path fill="none" stroke="#000" stroke-linecap="round" stroke-linejoin="round" stroke-miterlimit="10" stroke-width=".5" d="M147.5 414.05469l-7-.60156"/></g><path fill="none" stroke="#000" stroke-linecap="round" stroke-linejoin="round" stroke-miterlimit="10" stroke-width=".5" d="M147.5 414.05469l.96484 2.2539m12.25391-3.43359l-6.80469 1.75781m5.8125-1.5039l.82813.90625m13.2461-1.79297l-6.34376 3.02344m6.34375-3.02344l1.97266 1.46094m11.61719-.64454L180.5 414.44922m5.88672-1.1875l.78125.94531m13.50781-1.26953l-6.83203 1.63281m5.83984-1.39843l.8125.92187m13.19532 1.28516l-6.23047-3.25m5.32422 2.77734l.0078 1.22656m12.97267.58985l-3.75-5.94141m3.20703 5.07813l-.60938 1.0664m15.78516-1.71094l-6.38672-2.92187m6.38672 2.92187l.14844 2.44922m13.43359-4.51953l-6.92188 1.21875m6.92188-1.21875l1.51172 1.9336m-2.51953-1.75782l.7578.96875m13.53126-1.32031l-6.85156 1.57031m6.85156-1.57031l1.60547 1.85156m-2.60547-1.625l.80469.92578m13.21875-1.95312l-6.26954 3.17187m6.26954-3.17187l2.0078 1.41406m11.52345-.88672l-6.69922 2.11719m6.69922-2.11719l1.75 1.71875m10.65234-3.1914l-4.875 5.0625m4.875-5.0625l2.35938.67578m11.38671-.17188l-5.73828 4.05469m5.73828-4.05469l2.19141 1.10157m-3.02734-.51172l1.09765.55078m12.42188-1.82422l-4.47266 5.42187m4.47266-5.42187l2.40234.49219m-3.05469.29687l1.20313.2461m12.03125-1.5l-3.00781 6.35156m3.0078-6.35156l2.44923-.11329m-2.88672 1.03907l1.22656-.0586m14.35156 1.1836l-6.66015 2.24609m6.66015-2.2461l1.78516 1.6875m-2.7539-1.35937l.89062.84375m13.45703-.96094l-6.78516 1.82813m6.78516-1.82813l1.67578 1.78907m-2.66406-1.52344l1.67578 1.78906m12.2461-2.95312l-6.02344 3.62109m6.02343-3.6211l2.10157 1.26563m-2.98047-.73828l2.10547 1.26563m-2.98047-.73829l1.05078.63282m14.13672-1.46875l-6.26172 3.1875m6.26172-3.1875l2.01172 1.41015m-2.92188-.94531l2.00781 1.40625m-2.91796-.94531l1.0039.70703m13.65625-2.33985l-5.3125 4.60157m5.3125-4.60156l2.28906.8828m-3.0625-.21484l2.28907.88672m-3.0625-.21484l2.28906.88281m-3.0586-.21484l1.14454.4414m14.46875-2.46875l-5.27344 4.64063m5.27344-4.64063l2.29687.86328m-3.0625-.1875l2.29297.86329m-3.0625-.19141l2.29688.86719m12.5664-2.20313l-5.30078 4.61719m5.30078-4.61719l2.28906.875m-3.0625-.20312l2.29297.875m-3.0625-.20313l2.29297.875m12.48828-2.30469l-5.14843 4.78516m5.14843-4.78515l2.3164.80468m-3.0664-.10547l2.32032.80078m-3.07032-.10546l2.32032.80078m12.64453-2.02344l-5.44532 4.4414"/><g clip-path="url(#ag)"><path fill="none" stroke="#000" stroke-linecap="round" stroke-linejoin="round" stroke-miterlimit="10" stroke-width=".5" d="M466.28516 411.53125l2.26171.95313"/></g><g clip-path="url(#ah)"><path fill="none" stroke="#000" stroke-linecap="round" stroke-linejoin="round" stroke-miterlimit="10" stroke-width=".5" d="M465.49219 412.17969l2.26172.94922"/></g><path fill="none" stroke="#000" stroke-linecap="round" stroke-linejoin="round" stroke-miterlimit="10" stroke-width=".5" d="M464.69922 412.82422l1.13281.47656"/><g clip-path="url(#ai)"><path fill="none" stroke="#000" stroke-linecap="round" stroke-linejoin="round" stroke-miterlimit="10" stroke-width=".5" d="M147.48047 400.92969l-6.96094-.98438"/></g><path fill="none" stroke="#000" stroke-linecap="round" stroke-linejoin="round" stroke-miterlimit="10" stroke-width=".5" d="M147.48047 400.92969l.83594 2.3086m12.47265-3.32032l-6.94922 1.04297m5.9375-.89063l.73047.98438m12.57813-3.1289l-4.91406 5.02343m4.91406-5.02344l2.35547.6914m11.17187-.46484l-5.33594 4.57032m4.5586-3.90625l1.14453.44921m12.26172-1.72656l-3.96485 5.80078m3.39063-4.95703l1.21875.13672m10.26172-1.57031l.85547 6.97656m-.73047-5.96094l1.0039-.70312m15.59375 5.03515l-5.96484-3.71484m5.96484 3.71485l-.16406 2.4453m-.70312-2.98827l-.08203 1.22656m14.58203-1.33203l-6.59766-2.42188m6.59766 2.42188l.33593 2.42969m-1.29687-2.78125l.16797 1.21484m14.30469-1.70313l-6.98829-.74218m6.98828.74218l.91407 2.27735m-1.9336-2.38672l.46094 1.14062m13.88281-1.64843l-7.0078.49218m7.0078-.49218l1.30078 2.08203m-2.3203-2.00781l.65234 1.03906m13.67187-.51172l-6.98828-.70703m6.98828.70703l.92969 2.26953m12.1836-3.84766l-6.58594 2.44922m6.58593-2.44922l1.83594 1.62891m11.55078-1.42578l-6.72656 2.03906m6.72656-2.03906l1.73047 1.73828m-2.71094-1.4414l.86719.87109m13.52344-.77735l-6.91406 1.25782m6.91406-1.25782l1.51953 1.92579m-2.52734-1.7422l.76171.96485m12.96094-2.5625l-5.71484 4.08985m5.71484-4.08985l2.19531 1.08985m11.73438.41406l-6.94531 1.07812m6.9453-1.07812l1.46876 1.96484M360.5 401.0586l-6.91797-1.24218m5.91016 1.0625l.375 1.16796m13.66015-3.12109l-6.34375 3.02344m6.34375-3.02344l1.97266 1.46094m-2.89453-1.01953l.98437.73047m12.6875-2.01563l-5.21093 4.71094m5.21093-4.71094l2.3086.83594m-3.0664-.15235l2.30859.83594m12.58203.05078l-6.84766 1.57032m6.84766-1.57032l1.60937 1.85547m-2.60547-1.625l.80469.92578m13.51563-1.11328l-6.8672 1.48438m6.8672-1.48438l1.58593 1.875m-2.58203-1.65625l1.58203 1.8711m12.42188-2.95313l-6.25 3.21094m6.25-3.21094l2.01562 1.40235m-2.92578-.9336l2.01563 1.40235m12.22656-1.83594l-6.28516 3.14062m6.28516-3.14062l2 1.42187m-2.91406-.96484l2 1.42187m-2.91407-.96484l1 .71094m14.08204-1.74219l-6.16407 3.375m6.16407-3.375l2.05078 1.34766m-2.94922-.85547l2.05469 1.34765m-2.94922-.85546l2.05078 1.34375m12.9961-2.4375l-6.03907 3.59765"/><g clip-path="url(#aj)"><path fill="none" stroke="#000" stroke-linecap="round" stroke-linejoin="round" stroke-miterlimit="10" stroke-width=".5" d="M466.58203 398.64063l2.09766 1.26953"/></g><g clip-path="url(#ak)"><path fill="none" stroke="#000" stroke-linecap="round" stroke-linejoin="round" stroke-miterlimit="10" stroke-width=".5" d="M465.70313 399.16406l2.09765 1.26953"/></g><path fill="none" stroke="#000" stroke-linecap="round" stroke-linejoin="round" stroke-miterlimit="10" stroke-width=".5" d="M464.82422 399.6875l1.04687.63672"/><g clip-path="url(#al)"><path fill="none" stroke="#000" stroke-linecap="round" stroke-linejoin="round" stroke-miterlimit="10" stroke-width=".5" d="M147.5039 386.84766l-7.0078.55078"/></g><path fill="none" stroke="#000" stroke-linecap="round" stroke-linejoin="round" stroke-miterlimit="10" stroke-width=".5" d="M146.48438 386.92969l.65625 1.03125m13.6875-.92188l-7.02735.16797m6.0039-.14453l.60157 1.07031M174 386.13671l-6.74219 1.97657M174 386.13672l1.71484 1.7539m10.4961-3.45312l-4.53125 5.3711m3.8711-4.58985l1.19921.25781m12.83984-.98437l-4.66015 5.26172m3.98437-4.4961l1.1914.28906m13.98438 1.4961l-7.02734.16015m7.02734-.16015l1.19922 2.14062m-2.22265-2.11718l1.19922 2.14062m12.99218-1.08594l-6.73437-1.99609m6.73437 1.9961l.48828 2.40624m-1.46875-2.6953l.48828 2.40624M240.60938 388l-6.80468-1.7539M240.60938 388l.57421 2.38672m-1.5664-2.64063l.28906 1.19141m13.8711-.49219l-6.51173-2.64453m6.51172 2.64453l.25 2.4414m13.01563-2.32812l-6.41406-2.87109m6.41406 2.8711l.16406 2.44921m-1.09766-2.86719l.08204 1.22657m14.36328-1.3789l-6.8086-1.73048m6.8086 1.73047l.58594 2.38281m12.82421-2.92578l-6.99609-.64453m6.9961.64453l.94921 2.26563m12.15235-3.82813l-6.57032 2.48438m6.57032-2.48438l1.84375 1.61719m11.68359-.69531l-6.9961.63672m6.9961-.63672l1.34375 2.05078m-2.35937-1.96094l.67187 1.02735m13.53516-1.77735l-6.75 1.95703m6.75-1.95703l1.71093 1.75781m11.59375-1.80078l-6.72656 2.04297m5.7461-1.7461l.86718.8711m13.57813-.2461l-7.02735.20313m7.02735-.20312l1.21094 2.1289m-2.23438-2.10156l.60547 1.0664m13.63281-1.8203l-6.82812 1.65234m6.82812-1.65235l1.6289 1.83594m-2.62109-1.59375l1.62891 1.83594m-2.6211-1.59766l.8125.91797m14.33204-1.88281l-6.51953 2.6211m6.51953-2.6211l1.8789 1.57813m-2.82812-1.19532l1.8789 1.57813m12.46876-1.73828l-6.6836 2.17578m6.6836-2.17578l1.76562 1.70312m-2.73828-1.38672l.88281.85156m13.375-1.25l-6.625 2.33985m6.625-2.33985l1.8086 1.66407m-2.76954-1.32031l1.8047 1.66015m12.34765-2.3086l-6.3789 2.94923m6.3789-2.94922l1.95703 1.48437m-2.88281-1.05469l.97656.7422m13.45703-.65235l-6.76172 1.91015m6.76172-1.91015l1.69922 1.76953m-2.6836-1.49219l.84766.88672m13.35547-1.45703l-6.57031 2.4961m6.57031-2.4961l1.84766 1.61719m-2.8047-1.2539l1.84767 1.61718m12.47265-1.84375l-6.66797 2.22265"/><g clip-path="url(#am)"><path fill="none" stroke="#000" stroke-linecap="round" stroke-linejoin="round" stroke-miterlimit="10" stroke-width=".5" d="M466.89453 386.01172l1.77735 1.6914"/></g><path fill="none" stroke="#000" stroke-linecap="round" stroke-linejoin="round" stroke-miterlimit="10" stroke-width=".5" d="M465.92578 386.33594l1.77735 1.6914m-2.75-1.36718l.89062.84375"/><g clip-path="url(#an)"><path fill="none" stroke="#000" stroke-linecap="round" stroke-linejoin="round" stroke-miterlimit="10" stroke-width=".5" d="M147.1875 372.33203l-6.375 2.95313"/></g><path fill="none" stroke="#000" stroke-linecap="round" stroke-linejoin="round" stroke-miterlimit="10" stroke-width=".5" d="M147.1875 372.33203l1.95703 1.48047m11.67969-.16797l-7.01953.32813m6-.28125l.625 1.05468m10.6875-4.41796l-.97266 6.96093m.82813-5.94922l1.15625-.41796m8.67968 1.30078l6.27344 3.17187m-5.35937-2.71094l-.02735-1.22656m16.84375 5.625l-2.55469-6.54687m2.5547 6.54687l-1.60157 1.85938m16.50781-3.10547l-5.73828-4.0586m5.73828 4.0586l-.3125 2.4375m13.28906-2.02735l-5.0625-4.875m5.0625 4.875l-.67187 2.35938m14.79688-3.71094l-6.6836-2.17187m6.6836 2.17187l.42578 2.41406m-1.39844-2.73046l.21484 1.20703m14.04297-.8047l-6.625-2.34374m6.625 2.34375l.36328 2.42578m-1.32812-2.76563l.1836 1.21094m14.09374-.86328l-6.61719-2.36328m6.6172 2.36328l.35546 2.42969m-1.32031-2.77344l.17969 1.21485m14.08593-.82422l-6.58594-2.45313m6.58594 2.45313l.32422 2.42968m-1.28515-2.78906l.16406 1.21875m14.2539-1.35156l-6.87109-1.46875m6.8711 1.46875l.67187 2.35937m-1.67188-2.57421l.67188 2.35937m13.71875-2.82813l-7.02344-.10156m7.02344.10156l1.1211 2.1836m-2.14063-2.19922l1.11719 2.1836m13.19921-2.57813l-6.98828.71484m6.98828-.71484l1.3672 2.03906m-2.38282-1.9336l.6836 1.01954m13.66406-.9336l-7.01954.33594m7.01954-.33594l1.2539 2.10547m-2.27734-2.05859l.6289 1.05469m13.71094-1.0039l-7.02344.14062m7.02344-.14063l1.19531 2.14453m-2.21875-2.125l.59766 1.07422m13.73828-.85937l-7.01953-.32813m7.01953.32813l1.05078 2.21484m-2.07031-2.26172l1.04688 2.21485m13.28906-2.46485l-7.02344.26563m7.02344-.26563l1.23437 2.1211m-2.25781-2.08204l1.23438 2.1211m13.01953-2.80469l-6.85157 1.55469m6.85157-1.55469l1.60156 1.85938m-2.59766-1.63282l.80078.92969m13.51954-1.10938l-6.8711 1.46094m6.8711-1.46094L402 374.96094m-2.57813-1.66797l.78907.9375m13.55469-1.0039l-6.9297 1.16406m6.9297-1.16407l1.49609 1.94531m-2.5039-1.77734l.74609.97266m13.41796-1.7539l-6.60937 2.39062m6.60938-2.39063l1.8203 1.64453m-2.78124-1.29687l.91015.82422m13.40235-1.06641l-6.6836 2.17969m6.6836-2.17969l1.76562 1.69922m-2.73828-1.38281l.88281.85156m13.44922-1.01953l-6.76953 1.88281m6.76953-1.88281l1.6875 1.77734m-2.67578-1.5039l.84766.88671m13.44531-1.1953l-6.75 1.95312"/><g clip-path="url(#ao)"><path fill="none" stroke="#000" stroke-linecap="round" stroke-linejoin="round" stroke-miterlimit="10" stroke-width=".5" d="M466.9375 372.83203l1.70703 1.75781"/></g><path fill="none" stroke="#000" stroke-linecap="round" stroke-linejoin="round" stroke-miterlimit="10" stroke-width=".5" d="M465.95313 373.11328l.85546.88281"/><g clip-path="url(#ap)"><path fill="none" stroke="#000" stroke-linecap="round" stroke-linejoin="round" stroke-miterlimit="10" stroke-width=".5" d="M146.76172 358.32422l-5.52344 4.33984"/></g><path fill="none" stroke="#000" stroke-linecap="round" stroke-linejoin="round" stroke-miterlimit="10" stroke-width=".5" d="M146.76172 358.32422l2.2461.98828m11.8203 1.16016l-7.02734.04296m6.0039-.03906l.58595 1.08203m11.80078-4.21093l-3.125 6.29296m2.67187-5.3789l1.22656-.03516m14.03907 4l-6.1172-3.46484m5.22657 2.96094l-.03516 1.22656m13.75391-.0625l-5.14062-4.78906m5.14062 4.78906l-.63672 2.3711m-.11328-3.06641l-.3164 1.18359m13.28515.30469l-2.95312-6.375m2.95312 6.375l-1.48047 1.95703m1.05078-2.88281l-.73828.97656m16.19531-1.76172l-6.375-2.95313m6.375 2.95313l.13282 2.45313m-1.0586-2.88282l.06641 1.22656m14.14063-.72656l-6.3086-3.08984m6.3086 3.08984l.08203 2.45313m-1-2.90235l.04297 1.22657m14.1953-.78516l-6.3164-3.07813m6.3164 3.07813l.08595 2.45313m-1.00782-2.89844l.04297 1.22656m14.40234-1.3164l-6.73437-2.00391m6.73438 2.0039l.48437 2.40625m-1.46484-2.69921l.48828 2.40625m13.82812-2.1875l-6.77734-1.85547m6.77734 1.85546l.53907 2.39454m-1.52344-2.66407l.53906 2.39063m13.54297-1.53125l-6.33984-3.03516m6.33984 3.03516l.10156 2.44922m-1.02734-2.89063l.10547 2.44922m14.30859-2.44922l-6.6875-2.15234m6.6875 2.15234l.4336 2.41406m-1.40626-2.72656l.4336 2.41406m-1.40625-2.73046l.21484 1.21093m15.17578-1.13671l-6.94922-1.04688m6.94922 1.04688l.8164 2.3164m-1.82812-2.46875l.81641 2.3164m13.53516-2.35937l-6.9961-.65234m6.9961.65234l.9453 2.26563m-1.96483-2.35938l.9453 2.26172m13.38673-2.16797l-6.9961-.65625m6.9961.65625l.9453 2.26563m-1.96093-2.35938l.94531 2.26563m13.39844-2.66797l-7.01953.33984m7.01953-.33984l1.2539 2.10547m-2.27343-2.0586l1.2539 2.10938m-2.27734-2.0586l1.25782 2.10938m14.04296-2.6914l-6.90625 1.30859m6.90625-1.3086l1.53516 1.91016m-2.53906-1.72266l1.53515 1.91407m-2.53906-1.72266l1.53516 1.91406m13.60156-2.9336l-6.53125 2.58985m6.53125-2.58984l1.8711 1.58594m-2.82032-1.21094l1.86719 1.58984m-2.82031-1.21094l.9375.79297m14.25-1.61718l-6.47266 2.72656m6.47266-2.72656l1.90234 1.55078m-2.84375-1.15235l1.90234 1.54688m12.41797-1.79297l-6.59765 2.42188m6.59765-2.42188l1.82422 1.63672m-2.78515-1.28516l1.82812 1.64063M427 359.54688l-6.76562 1.89453M427 359.54687l1.69531 1.77344m-2.67968-1.5l1.6914 1.77735m12.58985-2.1172l-6.73047 2.02345m6.73047-2.02344l1.72656 1.7461m-2.70703-1.44923l1.72656 1.7422m12.49219-2.26173l-6.57813 2.46875m6.57813-2.46875l1.83984 1.625m-2.79687-1.26562l1.83984 1.625m12.29687-2.30078l-6.30468 3.10546"/><g clip-path="url(#aq)"><path fill="none" stroke="#000" stroke-linecap="round" stroke-linejoin="round" stroke-miterlimit="10" stroke-width=".5" d="M466.71484 358.9414l1.98829 1.4336"/></g><path fill="none" stroke="#000" stroke-linecap="round" stroke-linejoin="round" stroke-miterlimit="10" stroke-width=".5" d="M465.79688 359.39063l.99609.71875"/><g clip-path="url(#ar)"><path fill="none" stroke="#000" stroke-linecap="round" stroke-linejoin="round" stroke-miterlimit="10" stroke-width=".5" d="M143.67969 343.67969l.64062 6.9961"/></g><g clip-path="url(#as)"><path fill="none" stroke="#000" stroke-linecap="round" stroke-linejoin="round" stroke-miterlimit="10" stroke-width=".5" d="M143.77344 344.69922l1.02344-.67578"/></g><path fill="none" stroke="#000" stroke-linecap="round" stroke-linejoin="round" stroke-miterlimit="10" stroke-width=".5" d="M159.125 344.16406l-3.61719 6.02735m3.08985-5.14844l1.22656.0625m9.51953-1.19922l2.57031 6.54297m15.54297-3.32813l-7.02344.1172m6.00391-.10157l.59375 1.07422m11.58984 2.20703l-2.72265-6.48047m2.72265 6.48047l-1.55078 1.90234m15.40235-2.1875l-3.79688-5.91015m3.79688 5.91015l-1.19922 2.14063m.64844-3l-1.20313 2.14062m15.66797-1.76562l-4.9961-4.9414m4.9961 4.9414L225.68359 352m-.02343-3.07031l-.70313 2.35156m14.8125-1.69922l-5.1289-4.80469m5.1289 4.8047l-.64062 2.36718m-.10547-3.0664l-.32031 1.18359m14.76953-.98438l-5.90625-3.8086m5.90625 3.8086l-.20703 2.44531m-.65235-3l-.10156 1.22266m14.64844-1.4375l-6.64844-2.26953m6.64844 2.26953l.39062 2.42188m-1.35547-2.75391l.19532 1.21094m14.19921-1.29688l-6.8789-1.4336m6.8789 1.4336l.6875 2.35547m-1.6875-2.5664l.6875 2.35546m13.5586-1.875l-6.74219-1.97265m6.74219 1.97265l.5 2.40235m-1.48047-2.6875l.5 2.40234m13.65234-1.71094l-6.45312-2.78515m6.45312 2.78515l.19922 2.44531m-1.14062-2.85156l.20312 2.44531m-1.14062-2.84765l.10156 1.22265m15.30469-1.09765l-6.87891-1.41797m6.8789 1.41797l.69141 2.35547m-1.6914-2.5625l.6914 2.35547m-1.6914-2.5586l.34375 1.17578m15.04297-1.33593l-7.02344-.27735m7.02344.27735l1.0664 2.21093m-2.08984-2.25l1.0664 2.20704m13.25-1.88672l-6.97656-.83985m6.97656.83985l.88282 2.28906m-1.89844-2.41016l.88281 2.28906m13.42578-2.02734l-6.9336-1.1211m6.9336 1.1211l.79297 2.32422M359.5 347.57422l.79297 2.32422m-1.80078-2.48438l.39453 1.16016m14.98437-1.39453h-7.02734m7.02734 0l1.15235 2.16406m-2.17578-2.16406L374 349.34375m-2.17578-2.16406l1.15234 2.16406m-2.17578-2.16406l.57813 1.08203m15.65234-2.10938l-6.71875 2.0547m6.71875-2.0547l1.73438 1.73438m-2.71094-1.4375l1.73437 1.73437m-2.71484-1.43359l1.73828 1.73438m13.30078-2.91016l-6.2539 3.20703m6.2539-3.20703l2.01172 1.40234m-2.92187-.9336l2.01171 1.40235m-2.92187-.9375l1.00781.70313m14.25-1.3711l-6.5 2.67579m6.5-2.67579l1.89063 1.56641m-2.83594-1.17578l1.89062 1.5664m-2.83593-1.17578l1.89062 1.5625m13.4961-1.76171l-6.85938 1.51562m6.85938-1.51563l1.59375 1.86329m-2.58985-1.64454l1.58985 1.8672m-2.58985-1.64844l.79688.93359m14.51172-1.39063l-6.85547 1.55079m6.85547-1.55079l1.60156 1.85938m-2.59766-1.63281l1.59766 1.85937m-2.59766-1.63281l.80078.92969m14.38672-1.79688l-6.60937 2.3789m6.60937-2.3789l1.82031 1.64844m-2.78125-1.30469l1.82032 1.64844m-2.78125-1.30078l.91015.82422m14.25-1.71094l-6.45703 2.76953"/><g clip-path="url(#at)"><path fill="none" stroke="#000" stroke-linecap="round" stroke-linejoin="round" stroke-miterlimit="10" stroke-width=".5" d="M466.78906 345.79297l1.91406 1.53515"/></g><g clip-path="url(#au)"><path fill="none" stroke="#000" stroke-linecap="round" stroke-linejoin="round" stroke-miterlimit="10" stroke-width=".5" d="M465.85156 346.19531l1.91406 1.53516"/></g><path fill="none" stroke="#000" stroke-linecap="round" stroke-linejoin="round" stroke-miterlimit="10" stroke-width=".5" d="M464.91016 346.59766l.95703.76953"/><g clip-path="url(#av)"><path fill="none" stroke="#000" stroke-linecap="round" stroke-linejoin="round" stroke-miterlimit="10" stroke-width=".5" d="M140.48828 333.74219l7.02344.24219"/></g><path fill="none" stroke="#000" stroke-linecap="round" stroke-linejoin="round" stroke-miterlimit="10" stroke-width=".5" d="M153.9336 332.90234l6.76171 1.92188m-5.77734-1.64063l-.25781-1.19921m13.1289-.19141l5.67969 4.14062m-4.85156-3.53906l.17187-1.21484m12.26953.67969l5.77344 4.0078m-4.9336-3.42187l.14454-1.21875m15.61719 6.1289l-.80078-6.98437m.68359 5.96875l-1.00781.69532m15.36328.08203l-2.64453-6.51172m2.64453 6.51172L210.3203 339m1.1914-2.82813l-1.57421 1.88282m1.1914-2.83203l-.78906.9414m15.15625.82422l-3.21093-6.25m3.21093 6.25l-1.39843 2.01563m.93359-2.92579l-.70313 1.00782m14.77735-.26953l-3.80078-5.91016m3.80078 5.91016l-1.19922 2.14062m.64844-3l-.60156 1.07031m15.29687-.94921l-5.45703-4.4297m5.45703 4.4297l-.47266 2.40625m-.32422-3.05079l-.23437 1.20313m14.91797-1.5664l-6.60156-2.41407m6.60156 2.41406l.33594 2.42969m-1.29688-2.78125l.33594 2.42969m14.10547-2.72266l-6.9336-1.125m6.9336 1.125l.79297 2.32031m-1.80079-2.48437l.79297 2.32422m13.5586-2.3711l-6.99219-.70312m6.99219.70312l.92968 2.26954m-1.9453-2.3711l.92968 2.26953m13.11328-1.08594l-6.41406-2.86718m6.41406 2.86719l.16797 2.4453m-1.10156-2.86327l.16797 2.44921m-1.10157-2.86718l.08594 1.22656m15.19922-.64844l-6.6211-2.35156m6.6211 2.35156l.36328 2.42578m-1.32422-2.76953l.35938 2.42578m-1.32422-2.76562l.36328 2.42578m15.03906-2.3789l-6.94531-1.08204m6.94531 1.08203l.80469 2.32032m-1.8164-2.47657l.80468 2.32032m-1.8125-2.47657l.40234 1.16016m14.96485-1.1211l-7.00781-.53515m7.0078.53516l.98048 2.25m-2-2.32422l.49218 1.1211m13.79688-.70704l-6.91797-1.21094m6.91797 1.21094l.76172 2.33203m-1.76563-2.50781l.37891 1.16797m13.98437-1.32422l-7.0078-.54688m7.0078.54688l.98047 2.25m-2-2.32813l.98047 2.25m13.3164-3.02734l-6.92968 1.16016m6.92969-1.16016l1.49219 1.94922m-2.5-1.77735l1.49218 1.94532m12.7422-2.5039l-6.75392 1.9375m6.75391-1.9375l1.70313 1.76562m-2.6836-1.48438l1.70313 1.76563m12.58593-2.07032l-6.74218 1.98438m6.74218-1.98438l1.71875 1.75m-2.69921-1.46093l1.71484 1.75m12.64062-1.80079l-6.86328 1.50782m6.86328-1.50781l1.58985 1.86718m-2.58594-1.64844l1.58984 1.8672m-2.58984-1.64844l.79688.93359m14.35156-1.90235l-6.53906 2.57032m6.53906-2.57031l1.86719 1.59375m-2.81641-1.22266l1.86328 1.59765m-2.8164-1.22265l1.86718 1.59375m13.39844-2.21094l-6.63281 2.3125m6.63281-2.3125l1.80078 1.66797m-2.76562-1.33203l1.80078 1.66797m-2.76563-1.33203l1.80078 1.66796m13.34766-2.58593l-6.4414 2.80469"/><g clip-path="url(#aw)"><path fill="none" stroke="#000" stroke-linecap="round" stroke-linejoin="round" stroke-miterlimit="10" stroke-width=".5" d="M466.78125 332.46094l1.92188 1.52734"/></g><g clip-path="url(#ax)"><path fill="none" stroke="#000" stroke-linecap="round" stroke-linejoin="round" stroke-miterlimit="10" stroke-width=".5" d="M465.84375 332.86719l1.92188 1.52734"/></g><path fill="none" stroke="#000" stroke-linecap="round" stroke-linejoin="round" stroke-miterlimit="10" stroke-width=".5" d="M464.91016 333.27734l1.91796 1.52735"/><g clip-path="url(#ay)"><path fill="none" stroke="#000" stroke-linecap="round" stroke-linejoin="round" stroke-miterlimit="10" stroke-width=".5" d="M142.97656 317.1875l2.04688 6.72266"/></g><g clip-path="url(#az)"><path fill="none" stroke="#000" stroke-linecap="round" stroke-linejoin="round" stroke-miterlimit="10" stroke-width=".5" d="M143.27344 318.16406l.86719-.86719"/></g><path fill="none" stroke="#000" stroke-linecap="round" stroke-linejoin="round" stroke-miterlimit="10" stroke-width=".5" d="M153.80078 320.57031l7.02734-.04687m-7.02734.04687l-1.16406-2.16015m14.4961 2.46875l6.99609-.66016m-6.9961.66016l-1.35156-2.05079m14.66406 1.4297l7 .58202m-7-.58203l-.96875-2.2539m17.8164 6.05859l-.0664-7.02734m.0586 6.0039l-1.07813.58594m15.39844.28125l-2.0586-6.71875m2.0586 6.71875l-1.73438 1.73828m1.4336-2.71484l-1.73438 1.73437m1.4336-2.71094l-.8672.8672m14.72267 1.10546l-1.9375-6.7539m1.9375 6.7539l-1.76563 1.70313m1.48047-2.6875l-1.76563 1.70703m16.09375-1.02344l-3.39453-6.15234m3.39453 6.15234l-1.33984 2.05469m.84766-2.94922l-1.33985 2.05469m.84375-2.95313l-.66797 1.03125m16.13282-.27344l-5.71485-4.08593m5.71485 4.08593l-.32422 2.4336m-.50781-3.02735l-.32422 2.4336m-.50782-3.02735l-.32422 2.4336m15.81641-2.29688l-6.74219-1.98437m6.7422 1.98437l.49218 2.40235m-1.47266-2.69141l.49219 2.40625m-1.47266-2.69531l.2461 1.20312m15.13672-1.10937l-6.95313-1.01172m6.95313 1.01172l.82812 2.3086m-1.83984-2.45704l.82812 2.3125m-1.83984-2.46094l.41406 1.15625m14.96094-1.33594l-7.02734-.0625m7.02734.0625l1.13281 2.17579m-2.15625-2.1836l1.13281 2.17578m13.1211-1.43359l-6.85938-1.52734m6.85938 1.52734l.65234 2.36328m-1.65234-2.58594l.65625 2.36329m13.58594-1.875l-6.71485-2.0586m6.71485 2.0586l.46875 2.41015m-1.44532-2.71094l.46875 2.41016M318.5 320.98047l.23438 1.20312m15.18359-1.39843l-7.01172-.47266m7.01172.47266l1.0039 2.23828m-2.02734-2.3086l1.0039 2.23829m13.31641-2l-6.98046-.8086m6.98046.8086l.89844 2.28125m-1.91406-2.39844l.44922 1.14062m13.77734-.48828l-6.76953-1.88281m5.78516 1.60937l.26562 1.19922m14.01172-2.8789l-6.72656 2.02734m6.72656-2.02734l1.73047 1.74218m11.39062-2.25l-6.33593 3.04297m6.33593-3.04297l1.97657 1.45313m-2.89844-1.01172l.98828.72656m13.35156 1.63281l-6.54297-2.5625m6.54297 2.5625l.28516 2.4375m13.03125-2.4375l-6.54297-2.5625m6.54297 2.5625l.28125 2.4375m12.84375-5.40234l-6.16797 3.36719m5.27344-2.875l1.02344.67187m11.17968-2.82421l-2.15234 6.6914m2.15234-6.6914l2.41407-.4336m12.49218 1.49219l-5.33593 4.57422m5.33593-4.57422l2.28516.89453m-3.0625-.23047l2.28516.89453m12.10937-1.15234l-5.9375 3.75781"/><g clip-path="url(#aA)"><path fill="none" stroke="#000" stroke-linecap="round" stroke-linejoin="round" stroke-miterlimit="10" stroke-width=".5" d="M466.53125 318.66797l2.13281 1.21484"/></g><g clip-path="url(#aB)"><path fill="none" stroke="#000" stroke-linecap="round" stroke-linejoin="round" stroke-miterlimit="10" stroke-width=".5" d="M465.66797 319.21484l2.1289 1.21485"/></g><path fill="none" stroke="#000" stroke-linecap="round" stroke-linejoin="round" stroke-miterlimit="10" stroke-width=".5" d="M464.80078 319.76172l2.13281 1.21484"/><path fill="#ff3030" fill-rule="evenodd" d="M442.1914 467.64844h7.69532V457.5039h-7.69531v10.14453"/><path fill="azure" fill-rule="evenodd" d="M444.02734 459.33594h.83204v5.73828h3.1953v.74219h-4.02734v-6.48047"/><path fill="#ff3030" fill-rule="evenodd" d="M269.09766 436.57813h7.6914v-10.14454h-7.6914v10.14454"/><path fill="azure" fill-rule="evenodd" d="M270.92969 428.26563h.83203v5.74218h3.19531v.73828h-4.02734v-6.48046"/><path fill="#ff3030" fill-rule="evenodd" d="M326.79688 436.57813h7.6914v-10.14454h-7.6914v10.14454"/><path fill="azure" fill-rule="evenodd" d="M328.6289 428.26563h.83204v5.74218h3.19531v.73828h-4.02734v-6.48046"/><path fill="#00f" fill-rule="evenodd" d="M224.01953 414.38672h8.61719v-10.14453h-8.61719v10.14453"/><path fill="azure" fill-rule="evenodd" d="M225.85156 406.07422h.83594v2.82422h3.28516v-2.82422h.83203v6.48047h-.83203v-2.91406h-3.28516v2.91406h-.83594v-6.48047"/><path fill="#ff3030" fill-rule="evenodd" d="M184.76953 409.94922h7.6914v-10.14453h-7.6914v10.14453"/><path fill="azure" fill-rule="evenodd" d="M186.60156 401.63672h.83203v5.73828h3.19532v.74219h-4.02735v-6.48047"/><path fill="#ff3030" fill-rule="evenodd" d="M193.64453 361.1289h7.69531v-10.14843h-7.6953v10.14844"/><path fill="azure" fill-rule="evenodd" d="M195.47656 352.8164h.83594v5.73829h3.1914v.73828h-4.02734v-6.47656"/><path fill="#ffffe0" fill-rule="evenodd" d="M333.40234 383.55078h22.1797v-10.1914h-22.1797v10.1914"/><path fill-rule="evenodd" d="M336.90234 375.1914h.50782v6.29688h-.78907v-4.49219h-1.38671v-.55468l.55859-.06641.2539-.05078.23047-.08985.20313-.14453.17187-.20703.14063-.29687.10937-.39453m4.8125 0l.23047.01953.21875.05469.20703.08984.19532.1211.18359.14843.17188.17578.30078.42188.24609.49218.17969.54688.10937.57812.03906.59375-.03906.58985-.10937.58594-.17969.55468-.2461.5-.30077.42969-.17188.17969-.1836.15234-.1953.125-.20704.08985-.21875.05859-.23047.01953-.23046-.01953-.21875-.0586-.20704-.08984-.1953-.125-.1875-.15234-.16798-.17969-.30469-.42969-.24218-.5-.17969-.55469-.11328-.58593-.03516-.58985h.83203l.02735.5625.08203.50391.1289.44531.16016.3711.1914.30078.21094.22265.22266.13672.22656.04688.22657-.04688.22265-.13672.21094-.22265.1914-.30078.16016-.3711.125-.44531.08203-.5039.03125-.5625-.03125-.5625-.08203-.5-.125-.4375-.16015-.36329-.19141-.29297-.21094-.21484-.22265-.13281-.22657-.04297-.22656.04297-.22265.13281-.21094.21484-.1914.29297-.16017.36328-.1289.4375-.08203.5-.02735.5625h-.83203l.03516-.59375.11328-.57812.17969-.54688.24219-.49218.30468-.42188.16797-.17578.1875-.14844.19531-.1211.20704-.08983.21875-.0547.23046-.01952m5.08985 0h.51172v6.29687h-.78907v-4.49219h-1.38671v-.55468l.55859-.06641.2539-.05078.22657-.08985.20312-.14453.17578-.20703.14063-.29687.10547-.39453m2.82422 2.17578h.78906l.01953-.3164.0586-.28517.09765-.2539.14063-.21485.17968-.17578.22656-.1289.26172-.07813.3086-.02734.23828.01953.22265.0625.20704.10156.17968.14063.14844.17187.11328.20703.07031.23438.02344.26562-.01953.26954-.0664.22265-.10938.1914-.15625.17188-.19922.16406-.25.16407-.63281.39062-.53516.3125-.4375.3164-.34765.32423-.26563.33594-.1875.35156-.125.3711-.07031.39062-.01953.42187h4.21094v-.74219h-3.33204l.08204-.28515.11328-.23438.14843-.20312.1875-.17969.23047-.17188.27735-.17578.71875-.41796.41406-.20313.34765-.23047.28125-.2539.21875-.26563.16407-.27734.10937-.28516.0625-.28516.02344-.28125-.04297-.3828-.1211-.34767-.1875-.30859-.25-.26172-.30468-.21484-.34375-.15625-.38281-.09766-.40625-.03515-.4336.03125-.39843.10156-.35547.16406-.30469.23438-.2461.30468-.1875.375-.11718.44532-.03906.51953"/><path fill="#ffffe0" fill-rule="evenodd" d="M315.11328 339.59375h22.17969v-10.19531h-22.17969v10.19531"/><path fill-rule="evenodd" d="M318.61328 331.23438h.50781v6.29296h-.78515v-4.48828h-1.39063v-.55469l.5625-.0664.25-.05469.23047-.08984.20313-.14063.17578-.21094.14062-.29296.10547-.39454m4.8125 0l.23047.01563.21875.0586.20703.08984.19922.1211.1836.14843.17187.17578.30078.41797.24219.4961.17969.54296.11328.58203.03515.58985-.03515.59375-.11329.58203-.17968.55469-.24219.5039-.30078.42578-.17188.17969-.18359.15625-.19922.1211-.20703.09374-.21875.0547-.23047.01952-.22656-.01953-.21875-.05469-.21094-.09375-.19531-.12109-.1836-.15625-.17187-.17969-.30078-.42578-.2461-.5039-.17968-.5547-.10938-.58202-.03906-.59375h.83203l.03125.5625.08203.5078.125.44142.16406.375.1875.30078.21094.22265.22266.13672.22656.04688.22656-.04688.22266-.13672.21094-.22265.1914-.30079.16407-.375.125-.4414.08203-.50781.02734-.5625-.02734-.5625-.08203-.5-.125-.4336-.16407-.36719-.1914-.29296-.21094-.21094-.22266-.13281-.22656-.04688-.22656.04688-.22266.1328-.21094.21095-.1875.29296-.16406.3672-.125.43359-.08203.5-.03125.5625h-.83203l.03906-.58985.10938-.58203.17969-.54297.24609-.4961.30078-.41796.17188-.17578.18359-.14844.19531-.1211.21094-.08984.21875-.05859.22656-.01563m5.09375 0h.50781v6.29297h-.78515v-4.48828h-1.39063v-.55469l.5586-.0664.2539-.05469.23047-.08984.20313-.14063.17187-.21094.14453-.29296.10547-.39454m6.80469 1.6172h-.78906l-.05079-.21094-.08203-.1875-.10937-.15625-.1289-.13282-.14454-.10156-.16015-.07422-.16797-.04687-.17579-.01563-.32421.04297-.28907.11719-.24609.19922-.20313.26562-.16015.33985-.11719.40234-.07031.46875-.02344.52734.1875-.20312.1875-.16016.1875-.1211.1836-.08984.1875-.05859.1914-.03906.40235-.02344.30859.03125.32031.08984.3164.15625.29298.21875.2539.28516.19922.35156.07422.19922.05078.21875.03125.23438.0039.25-.78515.04687-.02734-.25781-.07813-.25-.1211-.23438-.16405-.21093-.19141-.1797-.21875-.13671-.24219-.08594-.2539-.03125-.25391.03125-.24219.08594-.21875.13672-.19531.17969-.16016.21093-.12109.23438-.07813.25-.02734.25781.02735.25781.07812.25391.1211.23438.16015.20703.19531.17968.21875.13672.24219.08985.2539.03125.25391-.03125.24219-.08985.21875-.13672.1914-.17968.16407-.20704.1211-.23437.07812-.2539.02734-.25782.78516-.04687-.03125.37109-.09375.3711-.15625.35937-.22266.32812-.28906.28125-.17188.1211-.1875.10156-.20703.08203-.22265.0625-.2422.03906-.2578.01172-.28516-.01562-.25781-.04688-.23828-.07422-.21485-.10546-.19531-.13282-.17578-.15625-.15235-.17969-.13671-.20312-.1172-.22266-.09765-.24218-.14844-.53516-.08203-.59375-.02734-.63672.03906-.7461.11328-.66406.1875-.57421.1172-.25782.13671-.23046.15625-.20704.16797-.17968.1875-.15625.20312-.12891.21485-.10156.23437-.07422.2461-.04688.26171-.01171.3672.03125.33202.09765.29688.14844.2539.20312.21485.23829.16406.27734.11719.30078.0625.32031"/></g></defs><use xlink:href="#aC"/></svg>