<svg xmlns="http://www.w3.org/2000/svg" role="img" xmlns:xlink="http://www.w3.org/1999/xlink" viewBox="142.45 309.95 326.84 171.84"><defs><clipPath id="a"><path d="M144 311.67188h1v168.65625h-1zm0 0"/></clipPath><clipPath id="b"><path d="M144 311.67188h324v168.65625H144zm0 0"/></clipPath><clipPath id="c"><path d="M467 311.67188h1v168.65625h-1zm0 0"/></clipPath><clipPath id="d"><path d="M144 479h4v1.32813h-4zm0 0"/></clipPath><clipPath id="e"><path d="M147 480h2v.32813h-2zm0 0"/></clipPath><clipPath id="f"><path d="M153 479h9v1.32813h-9zm0 0"/></clipPath><clipPath id="g"><path d="M160 480h3v.32813h-3zm0 0"/></clipPath><clipPath id="h"><path d="M159 480h2v.32813h-2zm0 0"/></clipPath><clipPath id="i"><path d="M166 479h9v1.32813h-9zm0 0"/></clipPath><clipPath id="j"><path d="M173 480h2v.32813h-2zm0 0"/></clipPath><clipPath id="k"><path d="M180 479h8v1.32813h-8zm0 0"/></clipPath><clipPath id="l"><path d="M187 480h2v.32813h-2zm0 0"/></clipPath><clipPath id="m"><path d="M193 479h8v1.32813h-8zm0 0"/></clipPath><clipPath id="n"><path d="M200 480h2v.32813h-2zm0 0"/></clipPath><clipPath id="o"><path d="M206 480h9v.32813h-9zm0 0"/></clipPath><clipPath id="p"><path d="M213 480h3v.32813h-3zm0 0"/></clipPath><clipPath id="q"><path d="M220 480h8v.32813h-8zm0 0"/></clipPath><clipPath id="r"><path d="M227 480h2v.32813h-2zm0 0"/></clipPath><clipPath id="s"><path d="M233 479h8v1.32813h-8zm0 0"/></clipPath><clipPath id="t"><path d="M240 479h3v1.32813h-3zm0 0"/></clipPath><clipPath id="u"><path d="M246 479h9v1.32813h-9zm0 0"/></clipPath><clipPath id="v"><path d="M253 479h3v1.32813h-3zm0 0"/></clipPath><clipPath id="w"><path d="M260 478h8v2.32813h-8zm0 0"/></clipPath><clipPath id="x"><path d="M265 479h3v1.32813h-3zm0 0"/></clipPath><clipPath id="y"><path d="M273 478h8v2.32813h-8zm0 0"/></clipPath><clipPath id="z"><path d="M286 478h8v2.32813h-8zm0 0"/></clipPath><clipPath id="A"><path d="M292 479h2v1.32813h-2zm0 0"/></clipPath><clipPath id="B"><path d="M300 478h8v2.32813h-8zm0 0"/></clipPath><clipPath id="C"><path d="M305 478h3v2.32813h-3zm0 0"/></clipPath><clipPath id="D"><path d="M314 477h7v3.32813h-7zm0 0"/></clipPath><clipPath id="E"><path d="M328 477h5v3.32813h-5zm0 0"/></clipPath><clipPath id="F"><path d="M343 476h2v4.32813h-2zm0 0"/></clipPath><clipPath id="G"><path d="M353 478h8v2.32813h-8zm0 0"/></clipPath><clipPath id="H"><path d="M366 480h9v.32813h-9zm0 0"/></clipPath><clipPath id="I"><path d="M379 479h9v1.32813h-9zm0 0"/></clipPath><clipPath id="J"><path d="M380 478h2v2.32813h-2zm0 0"/></clipPath><clipPath id="K"><path d="M393 478h8v2.32813h-8zm0 0"/></clipPath><clipPath id="L"><path d="M406 479h9v1.32813h-9zm0 0"/></clipPath><clipPath id="M"><path d="M407 478h2v2.32813h-2zm0 0"/></clipPath><clipPath id="N"><path d="M420 478h7v2.32813h-7zm0 0"/></clipPath><clipPath id="O"><path d="M433 478h8v2.32813h-8zm0 0"/></clipPath><clipPath id="P"><path d="M446 479h8v1.32813h-8zm0 0"/></clipPath><clipPath id="Q"><path d="M447 478h2v2.32813h-2zm0 0"/></clipPath><clipPath id="R"><path d="M459 479h9v1.32813h-9zm0 0"/></clipPath><clipPath id="S"><path d="M144 466h4v2h-4zm0 0"/></clipPath><clipPath id="T"><path d="M144 451h4v5h-4zm0 0"/></clipPath><clipPath id="U"><path d="M465 450h3v3h-3zm0 0"/></clipPath><clipPath id="V"><path d="M144 437h3v6h-3zm0 0"/></clipPath><clipPath id="W"><path d="M466 438h2v3h-2zm0 0"/></clipPath><clipPath id="X"><path d="M144 425h4v5h-4zm0 0"/></clipPath><clipPath id="Y"><path d="M466 425h2v3h-2zm0 0"/></clipPath><clipPath id="Z"><path d="M144 412h4v4h-4zm0 0"/></clipPath><clipPath id="aa"><path d="M466 412h2v3h-2zm0 0"/></clipPath><clipPath id="ab"><path d="M144 400h4v1h-4zm0 0"/></clipPath><clipPath id="ac"><path d="M466 399h2v3h-2zm0 0"/></clipPath><clipPath id="ad"><path d="M144 386h4v2h-4zm0 0"/></clipPath><clipPath id="ae"><path d="M466 386h2v4h-2zm0 0"/></clipPath><clipPath id="af"><path d="M144 372h4v4h-4zm0 0"/></clipPath><clipPath id="ag"><path d="M466 373h2v4h-2zm0 0"/></clipPath><clipPath id="ah"><path d="M144 358h4v5h-4zm0 0"/></clipPath><clipPath id="ai"><path d="M466 359h2v3h-2zm0 0"/></clipPath><clipPath id="aj"><path d="M144 344h3v6h-3zm0 0"/></clipPath><clipPath id="ak"><path d="M466 345h2v3h-2zm0 0"/></clipPath><clipPath id="al"><path d="M144 331h3v6h-3zm0 0"/></clipPath><clipPath id="am"><path d="M466 332h2v3h-2zm0 0"/></clipPath><clipPath id="an"><path d="M465 332h3v3h-3zm0 0"/></clipPath><clipPath id="ao"><path d="M144 318h4v5h-4zm0 0"/></clipPath><clipPath id="ap"><path d="M465 318h3v2h-3zm0 0"/></clipPath><g id="aq" clip-path="url(#clip1)"><path fill="#fff" fill-opacity="0" fill-rule="evenodd" d="M0 0h1000v1000H0zm0 0"/><path fill="#d3d3d3" fill-opacity="0" fill-rule="evenodd" d="M162.15234 355.86719l-.23437.29297.0586.23437.11718.17188.17578.23437.29297.34766.11328.0586.11719-.17188.0586-.23438.17577-.17578.46485-.17578h.69922l.23437.29297.28906.8164.0586.17579.17578.23046.35156.23438.69922.69922.17188.17578.23437.34765.23438.41016.28906.58203.41015.46485.23047.23437.23438.17578.11719.23047.17578.29297.17187 1.16406v.23438l.0586.28906.05859.11719.11719.11719.34765.41015.11719.17188.17578.17578.17578.23437.11719.17188.17188.35156.05859.23438.23437.40625.23438-.0586-.17578.17578-.0586.92969h-.58203l-.23437-.11328-.34766.11328-.11719.11719-.05859.29297-.0586.17578-.11718.17187-.46484.29297-.0586.23438-.0586.11328v.64453l.0586.17187v.41016l.0586.0586v.40624l.05859.40625.11719.17579.05859.05859.23047.64062-.0586.29297v.69922l-.05859.58203v.23438l-.0586.23047-.05468.35156v1.92187l.05469.1172h.42578l-.36719.11718-.02344.35156.89063 1.16797 1.74219.53906 1.33984.35938v.53906l.08984.8086.53516.71484 1.51953.26953.89063-.08594.08984 1.16406.53516.1797 1.16015-.1797 2.05469-.98437 1.16016-.36328 1.8789-.17578 1.69531-.1797-.17968.71876-1.51563.08594-1.25.08984-.80469.26953-1.07421.8086.26953.71875.53515.89843-.17968.625-.26563.8086.26563 1.07812.625.89844.80468.17969 1.25-.1797-.26562.72267.09766.5039.05468.29297v.17188l.0586.29296v.40625l.17578.1172.35156.11718h.40625l.29297-.17578.11328-.11719.0586-.11719.11718-.23047.0586-.17578.35156-.46484.23047-.17578.17578-.0586.17578.0586.0586.17578.11718.98828.05469.46875.0586.17188.11718.23437.17578.0586.8164.05859h.28907l.11719.23437.05859.40625.0586.35156v1.10547l.11718.29297.11719.34766.28906.69922.17578.35156.58203.7539.35157.17579.17187.0586.46875.23437.64063.46484.34765.23438.29297.17578.29297.05468.23047.0625.8164.34766.29297.17578.11328.17188.35157.35156.11719.17578.52343.64063v.28906l.0586.35156v.34766l.05859.35156.0586.28906.11718.0586.17188.05859h.17578l.58203.23437.17578.1172.17578.28905.17578.23438.11328.23437.29297.23047.11719.11719v.41016l.0586.05468.28906.23438.23437.11719.0586.11718.11718.17188.0586.11719.23047.23437.05859.17578.23437.0586.1172.05859-.1172.11328-.05859.11719v.11719l-.11719.29296-.11719.28907v.58203l.17579.11719.11718.05859.0586.11719.11719.11719.11328.05859.17578.34765.0586.35157.05858.40625v.17578l-.05859.17578-.11719.69922v.17187l.1172.17579.29296.29296h.40625l.17578.1172.11719.17187.11719.29296v.23438h-.52735l-.23047-.23438h-.23437l-.17578.0586-.0586.69922.0586.34765.11719.17579.17578.41015.11718.23047.28907.46875.17578.05469h.52344l.23437.0586.75781.64062.0586.29296v.23438l.05859.0586.23047.34765v.35156l-.11719.17188v.29297l.29297.28906.29297.17578.17187.0586.29297.17577.29297.1172.58203.40624.28906.23438.29297.17578.21875.16015.01563.01172.23047.17579.64062.52343.17578.23438.1172.17578.17577.17578.11328.17188v.64062l.1172.17578.46874.11719.58203.11719.23438.05859.23047.11328.29297.11719.11328.0586.58593.35156.28907.17187.17578.0625.17578.05469.17578.0586.69922.35155.28906.17579.23438.05468.28906.17578.23437.1172.64063.40624.29297.11719.17187.0586.23438.05859.41015.05859.23047.0586.23438.11718.0586.17188-.41017.17578.46875.0586.0586.29296.11328.23438.17578.05468.23438.0586.17578.05859.40625.11719.64062.23437.11719.17188.0586.23437v.17578l-.0586.1172-.0586.40624.23438.23438.11719.05859.34766.11719.64062.23047.17578.11718.28906.1172.17578.17577.23438.46485.58203 1.10546.17578.17579.34766.17578.17578.11719.35156.11718 1.04688.52344.23437.0586.46485.11327.29297.0586.46484.17578.75781.58203.23438.23438.34765.46484.17578.17578.28907.23438.8164.69921.29297.17579.28906.28906.29297.17578.29297.28906.69531.64063.17578.17578.29297.23437.28907.23438.46875.28906.64062.58203.34766.23438.23437.29297.34766.34765.35156.46485.9336.99218.34765.40625.11719.17579.23437.05859.11328.11719.64454.17578.23047.11328.23437.0586.29297.17577.23047.1172.9336.69921.40624.40625.23438.17578.40625.17578.23437.11719.8164.34766.34766.23437.23438.11719.29297.28906.23047.11719.7578.35156.35157.17188.23047.05859.29297.11719.23437.0586.8711.17577h.8164l.46875.23047.17188.0586.875.69921.46484.1172.29297.05858.17578.0586.23047.0586.46875.05859.34766.05859.35156.0586.40625.05859h.29297l.17187.0586v.23046l.17578.17578h.29297l.34766.0586.35156.05859.69922.11719h.64063l.46484-.23438.29297-.17578.17187-.11719.41016-.17187.28906-.17578.9336-.46485.46875-.29297.52343-.29296.46485-.17188.46484-.17578 1.05078-.46485.28906-.11718.41016-.11719.28906-.11719.52735-.17578 1.51562-.69922.58203-.34765.28907-.0586.29297-.0586.34765-.11718.875-.23047.35156-.11719h.11329l.23437-.05859.875-.23437.23438-.0586h.8125l.35156-.0586.8164-.11718.17188-.0586.35156-.05468.29297-.0586.23047-.05859.8164-.17578.17579-.0586h.34765l.23438-.05859.46484-.11718.75781-.17188.23438-.0586h.34765l.41016-.11718.28906-.0586 1.28516-.05859h.28906l.41016-.0586.23047-.05858h.17578l.875-.1172h.40625l.41015-.11718h.34766l.35156-.11328.8711-.0586h1.75l1.04687.28907.41016.11719.28906.11718.35156.11719.28907.11719 1.05078.17187.28906.0586h.29297l.29297.05859.17187.0586.41016.05859.17187.0586.1172.05858h.11718l.11719.0586.35156.0586h.11328l.41016.0664 1.92187.39453 1.92578.39453 1.51953.44922 1.69532.71875 2.14453.80469 1.60547-.71875 1.42968-.80469 1.16016-1.07813 1.25-.44921 3.03516-.71875 1.875-.35938 2.14453-1.34765 2.23437-1.25391 2.5-1.25781 1.69531-.44922 1.78516-.17969 1.16016-.26953.625.53906 1.33984-.26953.71485-.98828.98437-1.34375.44531-.17969.80469-.35937 1.875-.53907 1.78516-.44921 1.25-.26954 1.16015-.08984 1.69922-.08984 1.96094-.26954 1.25-.08984h.53906l.625-.08984h.89063l2.14453-.17969 2.41015-.17969 2.58985-.08984 1.69531.17969 1.60938.08984 1.42968.35938 1.16016.71875 1.875.98828 1.16015 1.52734.26563.71484.6289.08985.35548.89844.53515.53906.53516 1.52734 1.07422.35938h.53515l-.80469.53515.08985 1.70703.71484 2.69532.89063.80468.89453.98829.71484 1.2578 1.78516.53907 1.51953-.17969.35547 1.34375 1.60937-.80469.98047-.53906.26953.26953.31641-.21484.21875-.14453.80078.44922.44922-.35938h.35547l.53515-.26953.53907-.71875.53515-.26953.625-.98828 1.16016.44922.83984.3711 1.39454.61718 1.6953-.17969h1.60548l1.78515.08985.17969-1.70704.53516-1.34375.80468.26954.4922.84765.40233.40625-.08984.53906v.35938l.71485.44922.71093-.26953h1.42969l.35938.98828.4453 1.25781.71485 1.34375 1.25.6289 1.69531.62891.71485-.17969.17969-.53906.98046-.08984.44922.35937.08594 1.25782-.26563.6289-.53515.17969v.53906l.71484.98438.26563.53906.98437.98828.80078 1.07813-.26562.35937-.08985.89844-.625 2.33203-.35546 2.0664-.08985 1.79298-.17969.71875-.08984.53906v1.4375l-.98047 1.88281-.35937 1.70703-.53516.89844-.80469 1.16797-.26562.53906 2.05469 1.2539.08593.35938-.35546.53906-.08985-.17968v.80859l.08985 1.4375-.44532.71484-1.07422.09375-.26562.71485.53515.89844.8047.71875 1.16015.80859 1.33984.26953.44531.35938-.35546.44921-1.78907-.08984-1.25-.44922-.71484-.71875-.625-.08984-.17578 3.58984-.1875 1.3086h89.35937V311.70313h-55.26953v49.08203l.76172.125 3.28906.54296 2.02344 2.83594v2.7539l2.35156.33204 2.34766.33203h4.05078l-1.3789 4.16016-2.02344.70703-2.02344.70312-.54297.34375-2.59375 1.6172-.1875.11718-2.02344-2.07813-.73046-2.74218-2.67188-2.07813-1.375-3.5-.0664-.08203-1.95704-2.67188 2.75-1.41796v-49.08204H294.42187v91.41407l.1172.03125.1328.01172.07422.07421.10547.04688.08985.0586.08593.05859.08985.0586.29687.29687.0586.08984.03125.11719.02734.11719.01563.13671-.03125.1172-.0586.08983-.0586.08594-.04296.10547-.04688.10156-.02734.1211v.14453l.17578.26953.14844.14844.07422.08594.07422.07421.04296.10547.0625.08985.0586.08593.04297.10547.0586.08985.04687.10156.04296.10547.0586.08594.11719.17968.07421.07422.0625.08594.0586.08984.04297.10547.0586.08985.05858.08593.0625.08985.0586.08984.04297.10156.11719.17969.07421.07422.0586.08594.07422.07421.08984.0586.10547.04687h.14844l.1328-.01562.13282.01562.10156-.04687.07422-.07422.04688-.10156-.01563-.13281v-.14844l-.04687-.10547-.02735-.11719-.04687-.10156-.02735-.1211-.04296-.10156-.0625-.08984-.04297-.10156-.04297-.10547-.03125-.11719-.01563-.13281-.01171-.13672.08593-.0586.0586-.08593.12109-.03125.04297.10547.01562.1328v.1172l.0586.10156.0586.08984.08983.0586.14844.14843.0586.08985.04296.10547-.01171.10156.08593.0586.10547.04687.08594.0586.08984.05858.07422.07422-.11719.02735-.10546.04687-.08594.0586-.07422.07421-.0586.08985-.0625.08594-.02734.12109-.04687.10156-.04297.10547-.03125.11719-.01172.13281-.01563.13281v.14844l.02735.11719.04687.10547.04297.10156.0586.08984.07421.07422.08985.0586.07422.07421.08984.0586.0586.08984.04296.10547.04688.10156.11719.03125.1328.01563h.14845l.11718-.03125.10547.04297.04297.10547.04688.10156.02734.1211L299.5 410l.02734.11719.03125.1211.02735.11718.10547.04297.10156.04687.13281-.01562.14844.14844.0625.08593.07422.07422.07031.07422.08984.0625.10547.04297.10156.04297.1172.03125.13671.01562.11719-.03125.07422-.07422.02734-.11718-.01172-.13282-.03125-.12109-.02734-.11719.04297-.10547h.11719l.08984.0625.11719.02735h.14843l.13282.01562h.14843l.13282.01563.1328-.01563h.14845l.1328-.01562.13282-.01172.13672.01172.11719-.02735.13281-.01562.1914-.0586-.05859.17579-.01562.1328-.02735.1211-.01562.13281-.0586.08594-.1328.01563-.10548.04687-.10546.04297-.1172.03125-.11718.02735-.26563.03125h-.14843l-.13281.01562-.07422.07422.05859.08594.14844.14843.11719.1797.07421.0703.08985.0625.08984.0586.08594.0586.08984.05858.10156.04297.10547.0625.10547.04297.08594.0586.10547.04687.10156.04297.17969.11719.0586.08984-.04298.10156-.04687.10547.01562.13281.22266.22266.0586.08985.04296.10156.03125.1211.04297.10155.01563.13282.03125.11718.01171.13672.03125.11719.14844.14844.10156.04297.10547.04296.1172.03125.1328.01563.13672.01563h.11719l.11719-.03125.08984-.0586.04297-.10547.04688-.10156.04296-.10547.03125-.11719.01172-.1328v-.14845l-.01172-.1328-.01562-.13282-.03125-.11719-.04297-.10547-.04688-.10547-.04296-.10156-.04297-.10547-.01563-.13281.01563-.13281.02734-.11719.03125-.11719.02735-.1211.04687-.10155.08984-.0586.08594-.0625.07422-.07422.08984-.05859.22266-.22266.0586-.08593.07421-.07422.11719-.17969.0586-.08594v-.14844l-.07423-.07421-.10156-.04688-.10547-.04297-.10156-.04297-.0586-.08984-.04687-.10547-.02734-.11719.08984-.05859.11719-.03125.10156-.04297.17969-.11719.14844-.14843.01172-.13282-.01172-.10546-.08985-.0586-.1328.01563h-.14845l-.1328.01562-.13282-.01562-.1211-.03125-.08593-.0586-.07422-.07422-.0586-.08984-.0625-.08594-.11718-.17969-.0586-.08593.03125-.1211.08594-.05859.1211-.03125.05859-.08594v-.1211l-.03125-.11718-.0586-.08984-.05859-.08594-.04687-.10547-.02735-.11719-.01562-.1328.0586-.08985.07421-.07422.08984-.0586.1172-.17968.07421-.07422.0586-.08594.14843-.14844.1211-.03125.1328-.01562.13282.01562.07422.07422.04297.10547.01562.13281-.03125.1172-.11719.03124-.1328.01172-.14844.14844-.04297.10547-.04688.10156-.02734.1211-.03125.11718v.14844l.03125.11719.04297.10546.05859.08985.07422.07031.07422.07422.11719.03125.12109.02734.11719-.02734.1328-.01563h.1172l.08984.0586.07422.07422.04687.10546.0586.08594.10156.04688.13281.01562.10547.04297.08594.0586-.01172.10546-.07422.07422-.17969.11719-.05859.08984-.08984.0586-.07032.07422-.07421.07421-.0625.08985-.02735.11719-.01562.1328.01562.13282-.01562.13281v.14844l.01562.13281.02735.1172.03125.12108.07421.07422.08985.0586.08594.0586.08984.05858.11719.03125v.08594l-.10157.04688-.08984.0586-.26563.03124-.11718.02735h-.14844l-.10547.04296-.10156.04688-.0586.08984-.0625.23438-.01171.13281-.03125.1211-.01563.1328v.29298l-.01172.1328.01172.13673.01563.1328.1328.01563.13282.01172.1211.03125.08593.0586.07422.07421.04688.10547.04296.10157.01563.1328v.44532l-.01563.13281v.44532l.03125.26562.02735.11719.01562.13281.03125.11719.08594.21094.03125.26562v.14844l-.03125.11719-.02734.11718-.03125.1211-.02735.11719-.03125.11718-.03125.1211-.01171.1328-.01563.13282.08984.0586.1172-.03125.10155.01562.04688.10547-.03125.26562v.44141l-.04297.10547-.04688.10547-.04296.10156-.04297.10547-.0586.08594-.03125.12109-.04296.11719-.03125.11719-.01563.1328.01563.13282.05859.08984.10547.04688.08594.0586.05859.08593-.01172.13672-.03125.11719-.04297.10156v.44531l-.01562.13281v.14844l-.03125.11719-.04297.10547-.02735.11719-.04687.10546-.04297.10157-.03125.12109-.02734.11719-.03125.13281-.03125.11719-.02735.11719-.04297.10546-.03125.1172-.03125.12108-.01171.13282-.01563.13281v.29688l.02734.11718v.14844l.04688.39844.02734.11719.0586.08984.12109.03125h.14844l.13281-.01563.0586.08985v.11719l-.0586.08984-.08984.0586-.10157.04296-.10546.04688-.08985.05859-.08594.0586-.13671.01562-.1172-.03125-.1328-.01563-.10157.04688-.0625.08594-.01172.13671-.01562.13282-.03125.11719-.02735.11718-.01562.13281-.03125.1211v.29687l.01563.13282.03125.11718v.14844l.01171.13281v.14844l-.02734.11719-.04688.10156-.02734.1211-.03125.11718-.0586.08985-.07421.07421-.10156.04297-.10547.04688-.11719.02734-.1211.03125-.10156-.04687.0586-.08594.10547-.04688.02734-.11718.03125-.11719.02734-.1211.03125-.11718v-.14844l.01563-.13281-.03125-.11719-.04297-.10547-.10547.01563-.07422.07422-.10156.04296-.08984.0625-.07422.07422-.04297.10157-.01563.1328-.03125.1172L304.25 426l-.03125.11719-.02734.11719-.03125.12109-.02735.11719-.03125.11718-.04297.10547-.08984.0586h-.08984l-.1172-.03125-.03124-.08594.01562-.13672-.03125-.11719v-.14844l-.01171-.1328v-.14844l-.0625-.23438-.02735-.1211-.04297-.10156-.04687-.10546-.0586-.08594-.05859-.08985-.04297-.10546-.0625-.08594-.14844-.14844-.0703-.07422-.10548-.04687-.10547-.04297-.10156-.04297-.29687-.29688-.08985-.07421-.08594-.0586-.10546-.04297-.08985-.0625-.08594-.0586-.10546-.04296-.08985-.0586-.08594-.0625-.07421-.0703-.10547-.04688-.08594-.0586-.10547-.04296-.08984-.0625-.10156-.04297-.10547-.04297-.08594-.0586-.10547-.04687-.10547-.04297-.10156-.04687-.08985-.0586-.10156-.04297-.10547-.04296-.08984-.0625-.11719-.02735-.13281-.01562-.13281.01562H299.75l-.13281.01563-.11719-.03125-.08984-.0586-.07422-.07422-.08985-.05859-.10156-.04688h-.14844l-.12109-.02734-.10156-.04297-.07422-.07422-.11719-.17968-.08984-.0586-.10156-.04297-.08985-.0625-.10547-.04296-.08984-.0586-.08594-.0586-.10547-.04687-.0586-.08594-.05858-.08984-.04297-.10547-.04688-.10156-.07422-.07422-.08594-.0586-.07421-.07421-.08985-.0586-.22265-.22265-.04297-.10547-.03125-.26563.10547-.04296h.14453l.10547.04296.07421.07422.08985.0586.08594.0586.10546.04687.08985.05859.14844.14844.0703.07422.14845.14843.0625.08594.07421.07422.08594.0586.07422.07421.08985.0625.08984.0586.08594.05859.26953.17578.10156.04688.10547.04296.10156.04297.04688-.07421.05859-.08594.07422-.07422.07031-.07422.10547.04297.07422.07422.0586.08984.04296.10156.04688.10547.04296.10547.1211.02735.11719-.02735.07421-.08984.04297-.10547.0586-.08985.07422-.07421.10546-.04297.1172-.02735.1328.01172.08985.0586.14844.14843.05859.08985.04297.10547.04687.10156.04297.10547.04297.10156.10547.04688.10547.04296.13281.01563.08594-.0586.0586-.08984.07421-.07422.10547-.04297.11719.02735.10547.04687.10156.04297.10547.04297.10156.04688.17969.11718v.11719l-.01563.13281.01563.13281.01562.13672.0586.08594.10156.04688.1211.02734.11718.03125h.14844l.11719-.03125.05859-.08984.17969-.1172.05859-.08983.07422-.07422.0586-.08594.11718-.17969.17969-.11719.11719.03125.08984.0586.04297.07422-.01563.1328v.1172l.08985.05859h.14843l.13282-.01563.1328-.01171.26563-.03125.10547-.04297.11719-.03125.1211-.02735.07421-.07421.07031-.07422.0625-.08985-.01562-.10547-.04688-.10156-.10156-.04297-.10547-.01562-.11718.02734-.26563.03125h-.14844l-.07421-.07422-.08985-.0586-.11719-.03124-.11718-.02735-.13282-.01562h-.14843l-.13282.01563h-.29687l-.10547-.04688-.14844-.14844-.04297-.10156-.05859-.08984.22266-.22266.08593-.0586.10547-.04296.11719-.03125.13281-.01563.13281.01563.13672.01562.10157.04297.1328-.01172.08985-.0625.10156-.04297.0625-.08984-.04687-.10156-.08984-.0586-.1172-.03125-.10155-.04296-.0586-.08985-.0625-.08984v-.11719l.01563-.13281.10547-.04688.07421-.07031v-.1211l-.08984-.05859-.03125-.11719.08985-.05859.07421-.07422.04297-.10547.0586-.08984.04687-.10156.01563-.13281v-.14844l-.04688-.10547-.04297-.10156-.08984-.0586-.13281-.01562-.10157-.04297-.13671-.01563-.1172-.03125h-.4453l-.13282-.01562-.13281-.01172-.13281-.01563-.11719-.03125h-.14844l-.13281-.01562-.13281-.01172-.26563-.03125-.1211-.04297-.08593-.0586-.07422-.07421v-.14844l.01172-.13281.10547-.04688.10156-.04296.13281-.01563h.15235l.13281-.01562h.29297l.1211.03125.10156.04296.08984.0586.23438.0625.12109-.04688.08984-.05859.10156-.04297.13282-.01562.10547.04296.10156.04688.13281.01172.1211-.02735h.14453l.12109-.03125.11719-.02734.10547-.04687.07421-.07422.08594-.0586.14844-.14843.0586-.08594.04687-.10547.02734-.11719.01563-.10547-.10156-.04296-.08985-.0586-.11719-.03125-.10546-.04297-.08985-.0625-.07422-.08594-.07422-.07421-.10156-.04297-.10547-.04688-.10156-.04297-.0586-.08984-.04687-.10156-.08594-.21094-.0625-.08594-.05859-.08984-.07422-.07422-.08594-.0586h-.26953l-.11719.03126-.08984.05859-.10156.04297-.13281.01562-.10547-.01562-.02735-.11719-.0625-.08984-.11718-.03125-.10157-.04297-.14843-.14844-.03125-.11719-.01563-.10546.07422-.07422.17969-.1172.11719-.02733.11718-.03125.13672.01562.10156.04297.10547.04297.10156.04687.10547.04297.1172.03125.1328.01563.1172.02734.1328.01563.10547-.01563.08985-.0586-.07422-.07421-.10547-.04297-.07422-.07422-.07422-.08984-.14844-.14844-.08593-.0586-.08985-.05859-.07422-.07422-.08984-.0586-.10156-.04687-.1211-.02734-.10156-.04688-.10547-.04296-.11719-.03125-.10156-.04297-.1211-.03125h-.14843l-.11719.03125-.10546.04297-.08594.0625-.17969.11718-.08594.0586-.08984.0586-.10547.04687-.08594.05859-.10547.04297-.10156.04297-.10547.04687-.07422.07422-.05859.08985-.0586.08593-.04687.10547-.0586.08594-.07421.07422-.13281-.01172-.1172-.03125h-.11718l-.07422.07422-.08984.0586-.07422.07421-.08984.0586-.08594.05859-.10547.04687-.10156.04297-.13672.01563-.10156-.04297-.14844-.14844-.10547-.04688h-.08594l-.10547.04688-.10156.04297-.1211.03125-.11718-.03125-.07422-.07422v-.11719l.03125-.1211.07422-.0703.0586-.08985.07421-.07422.11719-.03125.10547-.04296h.29297l.13281-.01563.13672-.01563.10156-.04296.08985-.0586.10156-.04687.08984-.0586.13281-.01171.08985.05859.13281.01172.08984-.0586.08594-.05859.10547-.04297.08984-.0586.08594-.0625.08985-.05859.14843-.14843.0586-.08594.05859-.08985.10547-.04296.13281-.01563.11719.02735.1211.03125.05859-.0586.05859-.08984.03125-.26563.02734-.11719.10547.01172.13281.01563.10157-.04297.08984-.0586.0586-.08984.07421-.07422.0586-.08984.04687-.10156.01172-.13281-.01172-.13282-.04687-.10547-.14844-.14843-.0586-.08985-.05859-.08594-.04297-.10546v-.44532l.01563-.1328v-.14845l.01172-.1328-.0586-.0586-.08984.0586-.10156-.04298-.17969-.11719-.08594-.05859-.0625-.08984-.0586-.08985-.07421-.07421-.08594-.0586-.1211.03125-.10155.01172-.10547.04688-.08594.05859-.10547.04297-.14844.14844-.08984.05859-.08594.0586-.08984.0625-.10547.04296-.13281.01563v-.1211l.10547-.04297.11718-.03125.07422-.0703.04297-.10548v-.14844l-.02734-.11718-.14844-.14844-.13281-.01563h-.14844l-.11719.03125-.10547.04297-.10156.04297-.08984.0625-.11719.02735-.07422-.07422.01172-.13281-.04297-.10157-.04297-.10547-.08984-.05859-.11719.02734-.1211.03125-.11718.03125-.10156.04297-.1211.03125-.10156.04297-.10547.04297-.08984.0586-.10156.01562v-.11719l.01562-.13281-.0586-.08985-.07421.04297-.14844.14844-.0586.08985-.07421.07421-.04688.10547-.04296.10156-.07422.07422-.0586.08985-.07422.07422-.05859.08593-.07422.07422-.08984.0625-.07422.07031-.07422.07422-.10156.01563-.13281.01562-.10547-.04296v-.1211l.14843-.14844.04297-.10156.0586-.08984.04687-.10156.04297-.10547.0586-.08985.03124-.11719.04297-.10156.03125-.1211.02735-.11718.04687-.10547.04297-.10156.04297-.10547.07422-.07031.08984-.0625.08985-.0586.10156-.04296h.29687l.26563-.03125.10547-.04297-.07422-.07422-.11719-.03125-.10547-.04297-.08984-.0586-.10156-.04687-.08985-.0586-.10156-.04296-.10547-.04297-.08984-.0625-.08594-.0586-.10547-.04296-.10156-.04297-.1211-.03125-.11718-.03125-.10157-.04297L297.5 410.25l-.10156-.04297-.08985-.0586-.04296-.10546-.01563-.13281.10156-.04297.13281-.01563.13672.01563.13282-.01563.10156-.04297.0586-.08984.01562-.10547-.08985-.0586-.07421-.07421-.10157-.04297-.08984-.0586-.14844-.14843-.04297-.10547-.01562-.13281v-.29297l-.0586-.08985-.08984-.05859-.07422-.07422-.04297-.10547-.03125-.11718-.0586-.08985-.07421-.07422-.11719-.02734-.07422-.07422-.08984-.0586-.08984-.0625-.08594-.05859-.07422-.07421-.0586-.08594-.04687-.10547-.08594-.0586-.14843-.14843-.19532-.0586-.1328.01563-.10157.04297-.07422.07422-.04688.10156-.04296.10547-.0586.08984-.0586.08594-.29687.29687-.08984.0586h-.08594l-.0625-.08594-.04297-.10547.03125-.11719.0586-.08984.02734-.11719-.01172-.13281-.08984-.0625-.10547.04688-.11719.02734-.11719.03125-.26953.17578-.10156.04688-.11719.02734-.10546.04687-.08985.0586-.10156.04297-.0586-.08594-.04687-.10547.01563-.13281.04687-.10547.07031-.07422.07422-.07031.0586-.08985v-.14843l-.04297-.10547h-.23829l-.10156.04687-.03125.11719-.02734.11719-.03125.1211-.07422.04296-.13281.01563-.07422-.04688-.04297-.10156-.04297-.10547-.04687-.10156-.04297-.10547-.1211.03125-.10156.04297-.13281.01562-.11719.03125-.10547.04297-.08984.0586-.10156.04687-.1211.02734-.13281.01563-.10156-.04297-.0586-.08985-.04687-.10546-.04297-.10157-.04297-.10546v-.1172l.0586-.08984.08593-.05859.17969-.11719.10156-.04687.10547-.04297.10547-.0586.10156-.04296.08985-.0625.10156-.04297.10547-.0586.10156-.04687.08984-.0586.10547-.04296.10156-.04297.08985-.0625.10156-.04297.13672-.01563.11719.03125.10156.04297.1211.03125.10156.04297.10546.04688.10157.04296.10547.04297.10156.04688.10547.04297.10156.04297.10547.04687.08594.0586.10546.04296.1172.03125.10546.04297.10156.04688.08985.0586.10547.04296.10156.04297.10547.04687.11719.02735.10156.04687.1211.02735h.14843l.08594-.0586.01562-.10156.0586-.08984-.02735-.1172-.07422-.07421-.11719-.17969-.07421-.07422-.08985-.07421-.17969-.1172-.08593-.05859-.10547-.04296-.10156-.04688-.26954-.17578-.05859-.08985-.07422-.07421-.0586-.08985-.04296-.10156-.03125-.11719-.01563-.13672v-.5625l-.01171-.1328-.01563-.13282-.03125-.11719-.01562-.13281-.01172-.13281-.03125-.1211-.22266-.22265-.0586-.08594-.01562-.10547.03125-.11719.13281-.01562v-91.41406H172.9922v1.45312l-.0586.23438-.35156 1.05078-.17187.52343-.1172.34766-.17577.41016-.11719.17187-.23438.29297-.23046.0586h-.35157l-.11718.05859-.23047.40625v.29297l.11719.17578.23046.23047.1172.23437.64062.75781.29297.46485.17578.23437.23047.35156.23437.34766.64063.8164.17578.46485.17187.41016.11719.69531.17578.46875.11719 1.39844.0586.46484v.875l.11718 1.04688v4.78125l-.0586.46484-.35156 1.28125-.17578.52344-.11328.41015-.35156.9297L172.93359 336l-.23437.58203-.11719.17578-.17187.34766-.17578.40625-.35157.8164-.0586.29297-.11327.29297-.11719.28906-.0586.17579-.11718.875-.0586.40625-.05859.11718-.0586.17579-.05859.17187-.23047.52734-.11718.17188v.23437l-.11719.23438-.0586.17187-.17577.58594v.28906l-.0586.17579v.29296l-.0586.11329-.05859.52734v.17187l-.05468.23438v2.6211l-.17578.8164-.1172.17578-.17577.23438-.1172.17187-.11327.23438-.58594.93359-.23047.28906-.29297.46485-.17578.23437-.28906.35156-.35156.69922-.11328.23047-.17579.41016-.17578.23046-.40625.52735-.8164.69922-.29297.17187-.28906.23438-.17579.11719-.17578.17578-.52344.40625-.52734.17578-.17187.17578-.23438.05469-.64062.17578h-.75782m12.21094 31.02344l-1.07422.44921.35938.89454 1.25-.71485.44531-.53906-.98047-.08985"/><path fill="#d3d3d3" fill-opacity="0" fill-rule="evenodd" d="M201.50781 416.59766h-.89453l.44922.6289.98047.35938.80469-.08985.4453-.98828-.17577.08985-.71485-.35547-.89453.35547m154.6211 59.0703l-.0586-.52343v-.29297l.11328-.29297.0586-.23046.46875-.46875h.11328l.11719-.11329.11718-.05859h.17579l.23437-.0586h.34766l.23437.0586.11719.0586.23047.17187.0586.17578.11718.58203v.29297l-.11719.17578-.17187.28906-.17579.17579-.52734.52343-.23047.23438-.11719.0586h-.17578l-.11718-.0586-.40625-.29297-.17579-.11719-.11718-.0586-.0586-.11327-.05468-.1172m6.64062-10.95702l-.0586-.17188v-1.10937l.0586-.17188.17578-.0586.17188-.05858h.17578l.23437-.0586.1172.0586.05858.69921-.05859.17188-.11719.17578-.11718.0586-.23438.52343-.11328.0586h-.23438l-.05859-.1172m9.61328-14.39062l-.11719-.17578v-.69922l.29297-.875.1172-.17187.17577-.35156.11328-.23047.1172-.29297.35155-.75781.1172-.23047.17187-.23438h.17578l.11719-.0586h.64062l.11719.0586.23437.23438.17188.11328.35156.29297.11719.11718.11328.17579v.11328l.11719.05859.11718.11719v.69922l-.05859.17578v.23047l-.0586.17578-.34765 1.05078-.11719.23047-.11719.23437-.11718.0586-.23047.23437-.64063.28906h-.875l-.41015-.11718-.64063-.46485"/><path fill="none" stroke="#bebebe" stroke-linecap="round" stroke-linejoin="round" stroke-miterlimit="10" stroke-width=".5" d="M467.95703 311.69531H144.02734v168.625h323.9297v-168.625"/><g clip-path="url(#a)"><path fill="#fff" fill-opacity="0" fill-rule="evenodd" d="M144 475.89063v4.4375h.0039H144V311.67188h.0039H144v164.21875"/></g><g clip-path="url(#b)"><path fill="#fff" fill-opacity="0" fill-rule="evenodd" d="M144.0039 480.32813V311.67188h26.625v129.8828l-4.4375.1875-4.4375 1.75-.66796 1.32813-2.17578 4.4414-.30078 4.4375 1.35546 4.4375 1.78907 2.03517 4.4375-.00391 4.4375-.95313 4.4375-.89453 4.4414 1.98828 4.4375 1.42579 3.66797-3.59766.76953-1.21875 4.4375.27344v2.33203l-1.54297 3.05078 1.54297.72656 1.19531-.72656-1.1953-3.05078v-2.33203l1.3828-3.4922 2.31641-4.4375-3.69922-2.21483-2.5039 2.21484-1.9336 1.66797-2.71094 2.76953-1.72656 1.15625-4.4375.1875-4.4414 2.71875-.9375-4.0625.9375-.75781 2.6875-3.6797-1.50391-4.4414-1.1836-1.23437-4.4375-2.03125V311.67188h39.94532v108.40625l-4.4375 2.42968-.15625.1211-3.72656 4.4414-.5547 2.19922-1.39062 2.23828 1.39063.83594v17.22266l-3.6914 4.1328-.03907 4.4375 3.73047 1.02735 4.4375.3125 4.04687-1.33984-4.04687-2.6875-.26563-1.75-4.17187-4.13281v-17.22266l3.65234 3.60156.78516.85156 4.4375 2.16407 4.4414.4336 4.4375.16405 4.4375-1.26171 2.22266-2.35157.82813-4.4375-3.05078-3.25-4.4375-.79297-1.1172-.39453-3.3203-3.95703-.51563-.48437-3.92578-2.55079V311.67188h257.42187v168.65625H144.00391"/></g><path fill="#50fcfc" fill-rule="evenodd" d="M159.96484 458.13672l-1.35547-4.4375.30079-4.4375 2.17578-4.4414.66797-1.32813 4.4375-1.75v3.51953l-4.4375 3.41015-.33985.58985-.7461 4.4375 1.08595 2.16797 4.4375-.19922 2.42578-1.96875 2.01172-1.23438 3.73437-3.20312-3.73437-3.11719-4.4375-.88281v-3.51953l4.4375-.1875 4.4375 2.03125 1.18359 1.23437 1.5039 4.4414-2.6875 3.6797-.9375.7578.9375 4.0625 4.44141-2.71874 4.4375-.1875v3.25781l-.0625.02344.0625.02734.02735-.02734-.02735-.02344v-3.25781l1.72656-1.15625 2.71094-2.76953 1.9336-1.66797 2.5039-2.21485 3.69922 2.21485-2.3164 4.4375-1.38282 3.49219-4.4375-.27344-.76953 1.21875-3.66797 3.59765-4.4375-1.42578-4.4414-1.98828-4.4375.89453-4.4375.95313-4.4375.0039-1.78907-2.03515"/><path fill="#00e8fc" fill-rule="evenodd" d="M161.7539 455.86719l-1.08593-2.16797.7461-4.4375.33984-.58985 4.4375-3.41015 4.4375.88281 3.73437 3.11719-3.73437 3.20312-2.01172 1.23438-2.42578 1.96875-4.4375.19922m22.1914 2.29687l-.0625-.02734.0625-.02344.02735.02344-.02735.02734"/><path fill="#50fcfc" fill-rule="evenodd" d="M192.82031 463.30078l-1.54297-.72656 1.54297-3.05078 1.19531 3.05078-1.1953.72656m8.8789-4.13672l-3.73047-1.02734.03906-4.4375 3.6914-4.13281v1.73046l-2.14452 2.40235 2.14453 2.76953 2.42187-2.76953-2.42187-2.40235v-1.73046l4.17187 4.1328.26563 1.75 4.04687 2.6875-4.04687 1.33985-4.4375-.3125"/><path fill="#00e8fc" fill-rule="evenodd" d="M201.69922 456.46875l-2.14453-2.76953 2.14453-2.40235 2.42187 2.40235-2.42187 2.76953"/><path fill="#50fcfc" fill-rule="evenodd" d="M201.69922 432.34375l-1.39063-.83594 1.39063-2.23828.55469-2.19922 3.72656-4.4414.15625-.1211 4.4375-2.42969v6.69532l-.61328.29687-2.80078 4.4375 3.36328 4.4375.05078.03125 4.4414 1.29297 2.5-1.32422 1.9375-1.28515 4.4375-1.22657.91407-1.92578-.91406-.97265-4.4375-1.21875-4.4375-.8711-4.1172-1.375-.32421-.29687v-6.69531L214.5 422.6289l.51563.48437 3.3203 3.95703 1.1172.39453 4.4375.79297 3.05078 3.25-.82813 4.4375-2.22266 2.35156-4.4375 1.26172-4.4375-.16406-4.4414-.4336-4.4375-2.16406-.78516-.85156-3.65234-3.60156"/><path fill="#00e8fc" fill-rule="evenodd" d="M210.52344 435.94531l-3.36328-4.4375 2.80078-4.4375.61328-.29687.32422.29687 4.11719 1.375 4.4375.8711 4.4375 1.21875.91406.97265-.91406 1.92578-4.4375 1.22657-1.9375 1.28515-2.5 1.32422-4.44141-1.29297-.05078-.03125"/><g clip-path="url(#c)"><path fill="#fff" fill-opacity="0" fill-rule="evenodd" d="M467.9961 480.32813H468V311.67188h-.0039H468v168.65625h-.0039"/></g><g clip-path="url(#d)"><path fill="none" stroke="#000" stroke-linecap="round" stroke-linejoin="round" stroke-miterlimit="10" stroke-width=".5" d="M147.50781 480.54297l-7.01562-.42578"/></g><g clip-path="url(#e)"><path fill="none" stroke="#000" stroke-linecap="round" stroke-linejoin="round" stroke-miterlimit="10" stroke-width=".5" d="M147.50781 480.54297l1.01953 2.23047"/></g><g clip-path="url(#f)"><path fill="none" stroke="#000" stroke-linecap="round" stroke-linejoin="round" stroke-miterlimit="10" stroke-width=".5" d="M160.82813 480.44531l-7.02344-.23047"/></g><g clip-path="url(#g)"><path fill="none" stroke="#000" stroke-linecap="round" stroke-linejoin="round" stroke-miterlimit="10" stroke-width=".5" d="M160.82813 480.44531l1.07812 2.20313"/></g><g clip-path="url(#h)"><path fill="none" stroke="#000" stroke-linecap="round" stroke-linejoin="round" stroke-miterlimit="10" stroke-width=".5" d="M159.80469 480.41016l.53906 1.10156"/></g><g clip-path="url(#i)"><path fill="none" stroke="#000" stroke-linecap="round" stroke-linejoin="round" stroke-miterlimit="10" stroke-width=".5" d="M174.0586 481.10156l-6.85548-1.54297"/></g><g clip-path="url(#j)"><path fill="none" stroke="#000" stroke-linecap="round" stroke-linejoin="round" stroke-miterlimit="10" stroke-width=".5" d="M174.0586 481.10156l.64843 2.36328"/></g><g clip-path="url(#k)"><path fill="none" stroke="#000" stroke-linecap="round" stroke-linejoin="round" stroke-miterlimit="10" stroke-width=".5" d="M187.36328 481.14453l-6.83594-1.63281"/></g><g clip-path="url(#l)"><path fill="none" stroke="#000" stroke-linecap="round" stroke-linejoin="round" stroke-miterlimit="10" stroke-width=".5" d="M187.36328 481.14453l.61719 2.375"/></g><g clip-path="url(#m)"><path fill="none" stroke="#000" stroke-linecap="round" stroke-linejoin="round" stroke-miterlimit="10" stroke-width=".5" d="M200.71484 480.96875l-6.91015-1.28125"/></g><g clip-path="url(#n)"><path fill="none" stroke="#000" stroke-linecap="round" stroke-linejoin="round" stroke-miterlimit="10" stroke-width=".5" d="M200.71484 480.96875l.73828 2.34375"/></g><g clip-path="url(#o)"><path fill="none" stroke="#000" stroke-linecap="round" stroke-linejoin="round" stroke-miterlimit="10" stroke-width=".5" d="M214.08984 480.39453l-7.02734-.13281"/></g><g clip-path="url(#p)"><path fill="none" stroke="#000" stroke-linecap="round" stroke-linejoin="round" stroke-miterlimit="10" stroke-width=".5" d="M214.08984 480.39453l1.10938 2.1875"/></g><g clip-path="url(#q)"><path fill="none" stroke="#000" stroke-linecap="round" stroke-linejoin="round" stroke-miterlimit="10" stroke-width=".5" d="M227.40234 480.26563l-7.02343.1289"/></g><g clip-path="url(#r)"><path fill="none" stroke="#000" stroke-linecap="round" stroke-linejoin="round" stroke-miterlimit="10" stroke-width=".5" d="M227.40234 480.26563l1.19141 2.14453"/></g><g clip-path="url(#s)"><path fill="none" stroke="#000" stroke-linecap="round" stroke-linejoin="round" stroke-miterlimit="10" stroke-width=".5" d="M240.69531 479.91797l-6.98047.82422"/></g><g clip-path="url(#t)"><path fill="none" stroke="#000" stroke-linecap="round" stroke-linejoin="round" stroke-miterlimit="10" stroke-width=".5" d="M240.69531 479.91797l1.39844 2.01562"/></g><g clip-path="url(#u)"><path fill="none" stroke="#000" stroke-linecap="round" stroke-linejoin="round" stroke-miterlimit="10" stroke-width=".5" d="M253.8711 479.27734l-6.70313 2.10547"/></g><g clip-path="url(#v)"><path fill="none" stroke="#000" stroke-linecap="round" stroke-linejoin="round" stroke-miterlimit="10" stroke-width=".5" d="M253.8711 479.27734l1.75 1.72266"/></g><g clip-path="url(#w)"><path fill="none" stroke="#000" stroke-linecap="round" stroke-linejoin="round" stroke-miterlimit="10" stroke-width=".5" d="M267.08984 479l-6.5078 2.65625"/></g><g clip-path="url(#x)"><path fill="none" stroke="#000" stroke-linecap="round" stroke-linejoin="round" stroke-miterlimit="10" stroke-width=".5" d="M266.14063 479.38672l.9453.78515"/></g><g clip-path="url(#y)"><path fill="none" stroke="#000" stroke-linecap="round" stroke-linejoin="round" stroke-miterlimit="10" stroke-width=".5" d="M280.05469 478.35156l-5.8086 3.95703"/></g><path fill="none" stroke="#000" stroke-linecap="round" stroke-linejoin="round" stroke-miterlimit="10" stroke-width=".5" d="M279.21094 478.92578l1.08594.57031"/><g clip-path="url(#z)"><path fill="none" stroke="#000" stroke-linecap="round" stroke-linejoin="round" stroke-miterlimit="10" stroke-width=".5" d="M293.6836 478.92188l-6.4375 2.8125"/></g><g clip-path="url(#A)"><path fill="none" stroke="#000" stroke-linecap="round" stroke-linejoin="round" stroke-miterlimit="10" stroke-width=".5" d="M292.75 479.33203l.96094.76172"/></g><g clip-path="url(#B)"><path fill="none" stroke="#000" stroke-linecap="round" stroke-linejoin="round" stroke-miterlimit="10" stroke-width=".5" d="M306.84375 478.60938l-6.1289 3.4375"/></g><g clip-path="url(#C)"><path fill="none" stroke="#000" stroke-linecap="round" stroke-linejoin="round" stroke-miterlimit="10" stroke-width=".5" d="M305.95313 479.10938l1.03125.66406"/></g><g clip-path="url(#D)"><path fill="none" stroke="#000" stroke-linecap="round" stroke-linejoin="round" stroke-miterlimit="10" stroke-width=".5" d="M319.79688 478.08203l-5.40235 4.49219"/></g><path fill="none" stroke="#000" stroke-linecap="round" stroke-linejoin="round" stroke-miterlimit="10" stroke-width=".5" d="M319.01172 478.73438l1.13672.46484"/><g clip-path="url(#E)"><path fill="none" stroke="#000" stroke-linecap="round" stroke-linejoin="round" stroke-miterlimit="10" stroke-width=".5" d="M332.22656 477.32031l-3.6289 6.01563"/></g><path fill="none" stroke="#000" stroke-linecap="round" stroke-linejoin="round" stroke-miterlimit="10" stroke-width=".5" d="M331.69922 478.19531l1.22265.0664"/><g clip-path="url(#F)"><path fill="none" stroke="#000" stroke-linecap="round" stroke-linejoin="round" stroke-miterlimit="10" stroke-width=".5" d="M343.88281 476.82031l-.3164 7.01953"/></g><g clip-path="url(#G)"><path fill="none" stroke="#000" stroke-linecap="round" stroke-linejoin="round" stroke-miterlimit="10" stroke-width=".5" d="M353.72656 481.4961l6.6289-2.33204"/></g><g clip-path="url(#H)"><path fill="none" stroke="#000" stroke-linecap="round" stroke-linejoin="round" stroke-miterlimit="10" stroke-width=".5" d="M366.84375 480.34766l7.02734-.03907"/></g><g clip-path="url(#I)"><path fill="none" stroke="#000" stroke-linecap="round" stroke-linejoin="round" stroke-miterlimit="10" stroke-width=".5" d="M380.16016 480.21484l7.02343.22657"/></g><g clip-path="url(#J)"><path fill="none" stroke="#000" stroke-linecap="round" stroke-linejoin="round" stroke-miterlimit="10" stroke-width=".5" d="M381.17969 480.25l-.53906-1.10156"/></g><g clip-path="url(#K)"><path fill="none" stroke="#000" stroke-linecap="round" stroke-linejoin="round" stroke-miterlimit="10" stroke-width=".5" d="M393.72656 479.01563l6.51953 2.625"/></g><path fill="none" stroke="#000" stroke-linecap="round" stroke-linejoin="round" stroke-miterlimit="10" stroke-width=".5" d="M394.67578 479.39844l-.1289-1.22266"/><g clip-path="url(#L)"><path fill="none" stroke="#000" stroke-linecap="round" stroke-linejoin="round" stroke-miterlimit="10" stroke-width=".5" d="M406.80078 480.00781l7 .64453"/></g><g clip-path="url(#M)"><path fill="none" stroke="#000" stroke-linecap="round" stroke-linejoin="round" stroke-miterlimit="10" stroke-width=".5" d="M407.82031 480.10156l-.47265-1.13281"/></g><g clip-path="url(#N)"><path fill="none" stroke="#000" stroke-linecap="round" stroke-linejoin="round" stroke-miterlimit="10" stroke-width=".5" d="M420.51172 478.6836l6.21094 3.28906"/></g><path fill="none" stroke="#000" stroke-linecap="round" stroke-linejoin="round" stroke-miterlimit="10" stroke-width=".5" d="M421.41406 479.16406v-1.22656"/><g clip-path="url(#O)"><path fill="none" stroke="#000" stroke-linecap="round" stroke-linejoin="round" stroke-miterlimit="10" stroke-width=".5" d="M433.6875 478.97656l6.48828 2.70703"/></g><path fill="none" stroke="#000" stroke-linecap="round" stroke-linejoin="round" stroke-miterlimit="10" stroke-width=".5" d="M434.63281 479.36719l-.11328-1.21875"/><g clip-path="url(#P)"><path fill="none" stroke="#000" stroke-linecap="round" stroke-linejoin="round" stroke-miterlimit="10" stroke-width=".5" d="M446.79688 479.66016L453.6953 481"/></g><g clip-path="url(#Q)"><path fill="none" stroke="#000" stroke-linecap="round" stroke-linejoin="round" stroke-miterlimit="10" stroke-width=".5" d="M447.80078 479.85547l-.35937-1.17578"/></g><g clip-path="url(#R)"><path fill="none" stroke="#000" stroke-linecap="round" stroke-linejoin="round" stroke-miterlimit="10" stroke-width=".5" d="M460.21484 479.26172l6.69532 2.13672"/></g><path fill="none" stroke="#000" stroke-linecap="round" stroke-linejoin="round" stroke-miterlimit="10" stroke-width=".5" d="M461.1875 479.57031l-.21875-1.20703"/><g clip-path="url(#S)"><path fill="none" stroke="#000" stroke-linecap="round" stroke-linejoin="round" stroke-miterlimit="10" stroke-width=".5" d="M147.47266 467.54688l-6.94532-1.06641"/></g><path fill="none" stroke="#000" stroke-linecap="round" stroke-linejoin="round" stroke-miterlimit="10" stroke-width=".5" d="M147.47266 467.54688l.80859 2.3164m12.44922-2.02734l-6.83203-1.64453m6.83203 1.64453l.61328 2.375m12.70703-2.39453l-6.83984-1.60547m6.83984 1.60547l.6289 2.37109m12.73048-2.58203l-6.9297-1.1836m6.9297 1.1836l.76953 2.32812m12.49219-2.08593l-6.82422-1.66797m6.82422 1.66797l.60937 2.375m12.73828-2.51954l-6.89062-1.3789m6.89062 1.3789l.70703 2.35157m12.66797-3.3086l-7.00781.53516m7.00781-.53516l1.3125 2.07422m11.96094-2.40625l-6.92578 1.19922m6.92578-1.19922l1.5039 1.9375m11.67579-2.47265l-6.65235 2.26953m6.65235-2.26953l1.78906 1.67968m11.2461-2.29297l-6.09376 3.4961m6.09375-3.4961l2.07813 1.3047m11.07031-1.56641l-5.76172 4.01953m5.76172-4.01953l2.1875 1.12109m11.17188-1.0586l-5.84766 3.89454m5.84765-3.89453l2.16016 1.16406m10.94531-1.44531l-5.42968 4.45703m5.42968-4.45703l2.26563.9414m10.70312-1.3086l-4.73437 5.19141m4.73437-5.1914l2.375.60937m-3.0664.14453l1.1875.3047m13.02734-.85157l-5.15234 4.77734m5.15234-4.77734l2.3164.80469m10.8086-.9961l-4.77344 5.16016m4.77344-5.16016l2.3711.62891m10.33593-1.07813l-3.5586 6.0586m3.04298-5.17578l1.22656.05078M370.44141 463.5l-.17188 7.02734m.14844-6.0039l1.09375-.55078m10.99219-.27344l2.33593 6.6289m-1.99609-5.66406l.82813-.90234m11.77734.09375l3.07422 6.3164m-3.07422-6.3164l1.44531-1.98438M407.42188 465l5.7578 4.02734M407.42189 465l.30078-2.4375m13.44921 1.92578l4.88672 5.05078m-4.88671-5.05078l.7578-2.33203m14.66016 1.35937l.6836 6.9961m-.6836-6.9961l2.04688-1.35546m9.65234 1.9375l3.91406 5.83203m-3.91406-5.83203l1.15625-2.16407m12.4375 1.9922l3.35938 6.17577m-2.8711-5.27734l.67579-1.02344"/><g clip-path="url(#T)"><path fill="none" stroke="#000" stroke-linecap="round" stroke-linejoin="round" stroke-miterlimit="10" stroke-width=".5" d="M146.99219 455.53906l-5.98438-3.6836"/></g><path fill="none" stroke="#000" stroke-linecap="round" stroke-linejoin="round" stroke-miterlimit="10" stroke-width=".5" d="M146.99219 455.53906l-.15235 2.44922m13.2422-2.125l-5.53517-4.33203m5.53516 4.33203l-.42969 2.41797m14.11328-3l-6.27343-3.16797m6.27344 3.16797l.05078 2.45313m13.34375-2.6172l-6.4297-2.83593m6.4297 2.83594l.17968 2.44531m13.25782-2.76172l-6.67188-2.20703m6.67188 2.20703l.41015 2.42188m12.91016-2.4375l-6.6836-2.17578m6.6836 2.17578l.42187 2.41797m13.03125-3.03125l-6.96093-.94532m6.96093.94531l.85157 2.30079m12.49609-2.80078l-7.02734.05468m7.02734-.05469l1.16797 2.15625m12.13281-2.4453l-7 .6328m7-.6328l1.34375 2.05468m11.42969-3.63672l-5.91406 3.79688m5.91406-3.79688l2.14062 1.20313m11.02735-1.41407l-5.6211 4.21875m5.6211-4.21875l2.22265 1.04297m11.01563-1.14062l-5.46875 4.41015m5.46875-4.41015l2.25781.96484m-3.05078-.32031l1.1289.48047m13.08594-.98438l-5.67968 4.13282m5.67968-4.13282l2.20703 1.07422m-3.03125-.47265l1.10157.53515m12.82422-1.40234l-5.25391 4.66406m5.2539-4.66406l2.30079.85547m-3.0625-.17578l2.29687.85546m11.66797-1.65625l-5.03125 4.90625m5.03125-4.90625l2.33984.7461m-3.0703-.03125l2.33593.7461m11.69531-1.47657l-5.0039 4.9336m5.0039-4.9336l2.34375.73437m-3.07031-.01562l1.17187.36719m12.44141-1.45313l-4.14453 5.67188m4.14453-5.67188l2.42969.34766m-3.03125.47656l1.21484.17578m10.90625-1.66797l-.55469 7.00781m.47657-5.98828l1.125-.48828m10.51172-.21484l2.96093 6.375m-2.96093-6.375l1.47656-1.95703m11.20703 2.33593l4.22266 5.6172m-3.60547-4.80079l.51953-1.11328m13.57812-.33594l1.42188 6.88281m-1.42188-6.8828l1.89063-1.56641m-1.6836 2.5664l.94532-.78125m14.3125.01563l-2.875 6.41015m2.875-6.41015l2.44922-.16407m-2.8672 1.09766l1.22266-.08203m12.6836-.76953l-3.22266 6.2461m3.22266-6.2461l2.45312-.02735m-2.92187.9375l2.45312-.03125m-2.92187.94141l1.22656-.01562m14.03516-1.01954l-5.24219 4.6797m5.24219-4.6797l2.30078.84766m-3.0625-.16797l1.14844.42578m12.7578-1.28515l-4.89843 5.03906"/><g clip-path="url(#U)"><path fill="none" stroke="#000" stroke-linecap="round" stroke-linejoin="round" stroke-miterlimit="10" stroke-width=".5" d="M466.01172 451.17969l2.35547.6836"/></g><g clip-path="url(#V)"><path fill="none" stroke="#000" stroke-linecap="round" stroke-linejoin="round" stroke-miterlimit="10" stroke-width=".5" d="M146.64453 442.69922l-5.28906-4.6289"/></g><path fill="none" stroke="#000" stroke-linecap="round" stroke-linejoin="round" stroke-miterlimit="10" stroke-width=".5" d="M146.64453 442.69922l-.5625 2.38672m13.67188-2.17188l-4.87891-5.0586m4.8789 5.0586l-.7578 2.33203m13.51171-1.89062l-3.7539-5.9414m3.7539 5.9414l-1.21875 2.1289m14.9414-2.43359l-4.5703-5.33594m4.5703 5.33594l-.89452 2.28516m14.71875-2.82422l-5.58985-4.25781m5.58985 4.2578l-.39453 2.42188m13.76953-2.5l-5.70703-4.09765m4.875 3.5l-.16407 1.21484m14.94922-2.27734l-6.98437-.77735m5.96875.66407l.45312 1.14062m13.82031-2.15625l-6.87109 1.47656m6.8711-1.47656l1.58203 1.875m11.74609-.46094l-6.89453-1.35156m5.89062 1.15625l.35938 1.17188m13.65234-3.22266l-6.28515 3.14063m5.37109-2.6836l1 .71094m12.92578-1.67188l-5.67187 4.14844m5.67187-4.14844l2.20703 1.07032m11.05078-1.14453l-5.5625 4.29687m5.5625-4.29687l2.23829 1.01171m11.1328-.9375l-5.67187 4.14844m5.67188-4.14844l2.20703 1.07032m-3.03125-.46485l1.10156.53516m12.61719-1.61328l-4.83203 5.09765m4.83203-5.09765l2.36719.65234m10.76562-.8164l-4.46875 5.42578m4.46875-5.42578l2.40625.48828m-3.05469.30078l1.19922.24219m13.75782.29296l-6.45704 2.77344m6.45704-2.77344l1.91406 1.53907m-2.85156-1.13282l1.91406 1.53516m12.1836-2.25781l-6.14454 3.41015m6.14453-3.41015l2.0586 1.33203m-2.95313-.83594l2.0586 1.33203m11.86328-2.26562l-5.57032 4.28125m5.57032-4.28125l2.23437 1.01562m-3.04297-.39062l1.11719.50781m13.41406-.46094l-6.38281 2.9414m6.38281-2.9414l1.95313 1.48438m10.35937-2.76172l-4.3789 5.4961m4.3789-5.4961l2.41016.44922m11.36328-.01172l-5.29688 4.6211m5.29688-4.6211l2.29297.875m-3.0625-.20313l1.14453.4375m12.69922-1.35937l-4.8164 5.11719m4.8164-5.1172l2.36719.64845m-3.06641.09765l2.36719.64453m-3.06641.09766l1.1836.32422m13.61718-1.72656l-4.98828 4.94922m4.98828-4.94922l2.34375.72265m-3.07031-.0039l2.34375.72656m-3.07031-.00781l1.17187.36328m14.16406-1.04688l-6.125 3.4414m6.125-3.4414l2.06641 1.32422m-2.95703-.82422l2.0664 1.32422m12.2461-1.61719l-6.33984 3.02735"/><g clip-path="url(#W)"><path fill="none" stroke="#000" stroke-linecap="round" stroke-linejoin="round" stroke-miterlimit="10" stroke-width=".5" d="M466.73047 438.8711l1.97656 1.45702"/></g><path fill="none" stroke="#000" stroke-linecap="round" stroke-linejoin="round" stroke-miterlimit="10" stroke-width=".5" d="M465.8086 439.3086l.98827.73046"/><g clip-path="url(#X)"><path fill="none" stroke="#000" stroke-linecap="round" stroke-linejoin="round" stroke-miterlimit="10" stroke-width=".5" d="M147.0625 428.79297l-6.125-3.44531"/></g><path fill="none" stroke="#000" stroke-linecap="round" stroke-linejoin="round" stroke-miterlimit="10" stroke-width=".5" d="M146.17188 428.28906l-.03125 1.22656m13.53906.15235l-4.72656-5.19922m4.72656 5.19922l-.83203 2.3086m13.95703-2.14845l-4.34766-5.51953m4.34766 5.51953l-.98828 2.2461m14.17968-2.15235l-4.10156-5.70703m3.5039 4.87891l-.54296 1.09766m12.3086.39062l.1953-7.02734m-.16796 6.0039l-1.09766.54688m11.80078-.76563l5.35938-4.54296m11.26172 5.73046l-1.25-6.91796m1.0664 5.91015l-.96094.76172m14.52735-6.65625l-1.38672 6.88672m17.48437-3.95703l-6.95312 1.02734m19.72656-2.44531l-5.86719 3.86719m5.01172-3.3047l1.07813.58595m12-2.20703l-3.6836 5.98046m3.14844-5.11328l1.22266.07813m13.01953-.66797l-4.46484 5.42578m4.46484-5.42578l2.40234.48828m11.26172-.15625l-5.16406 4.76172m5.16406-4.76172l2.3164.8125m11.29688-.4414l-5.76172 4.01952m5.76172-4.01953l2.1836 1.1172m11.72656.3828l-6.95313 1.01953m6.95313-1.01953l1.45312 1.97657m-2.46484-1.82813l.72656.98828m13.63672-.65625l-7.02734.0586m7.02734-.0586l1.17188 2.15625m-2.19141-2.14844l1.16797 2.15625m-2.1914-2.14843l.58593 1.07812m14.73828-1.5586l-6.95703.98829m6.95703-.98828l1.44531 1.98437m-2.45703-1.83984l1.44532 1.98438m-2.45704-1.83985l.72266.99219m14.57422-1.51563l-6.875 1.45704m6.875-1.45704l1.57812 1.87891m-2.57812-1.66797l1.57812 1.8789m12.63672-2.46093l-6.67187 2.19922m6.67187-2.19922l1.77344 1.69531m-2.74219-1.375l1.76953 1.69532m12.23829-2.64454l-6.1211 3.45704m6.1211-3.45704l2.0664 1.32032m-2.95703-.81641l2.0664 1.32031m11.83985-2.26953l-5.51953 4.34766m5.51953-4.34766l2.2461.98828m-3.05079-.35547l2.2461.98829m-3.04688-.35547l1.1211.49609m13.3125-2.26562l-4.54688 5.35546m4.54688-5.35546l2.39453.51953m-3.0586.2578l2.39844.52345m-3.0586.2578l2.39844.52345m-3.05859.2539l1.19922.26172m14.71875-1.91406l-5.78516 3.98828m5.78516-3.98828l2.17969 1.1289m-3.02344-.54687l2.17969 1.1289m-3.01953-.55077l1.08984.5664m14.30078-.97656l-6.57031 2.48828m6.57031-2.48828l1.84375 1.6211m-2.79687-1.25782l1.84375 1.61719m12.47265-1.85156l-6.66406 2.23046"/><g clip-path="url(#Y)"><path fill="none" stroke="#000" stroke-linecap="round" stroke-linejoin="round" stroke-miterlimit="10" stroke-width=".5" d="M466.89453 425.95313l1.77735 1.6914"/></g><path fill="none" stroke="#000" stroke-linecap="round" stroke-linejoin="round" stroke-miterlimit="10" stroke-width=".5" d="M465.92578 426.27734l.88672.84766"/><g clip-path="url(#Z)"><path fill="none" stroke="#000" stroke-linecap="round" stroke-linejoin="round" stroke-miterlimit="10" stroke-width=".5" d="M147.3125 414.92578l-6.625-2.34375"/></g><path fill="none" stroke="#000" stroke-linecap="round" stroke-linejoin="round" stroke-miterlimit="10" stroke-width=".5" d="M146.34766 414.58203l.18359 1.21485m14.0039-.63672l-6.4375-2.81641m5.5 2.40625l.09376 1.22656m12.60937.86719l-3.34375-6.17969m3.34375 6.17969l-1.35547 2.04297m15.66797-2.84766l-5.33594-4.57031m4.5586 3.90625l-.26563 1.19531m14.53125-.75l-5.6836-4.13281m4.85548 3.53125l-.16797 1.21484m14.52734-.9453l-6.11328-3.46876m5.22266 2.96484l-.03516 1.22657m12.42578-5.7461l-2.48437 6.57422m17.08984-5.71875l-5.0664 4.86719m18.11718-5.11719l-4.53515 5.36719m16.5625-6.0586l-1.96485 6.7461m1.67969-5.76172l1.20313-.25m14.79296 1.67188l-6.7539 1.93359m6.7539-1.9336l1.70313 1.76563m11.71875-.32812l-6.96484-.9375m6.96484.9375l.85156 2.30078m12.46485-2.32813l-6.96875-.88281m6.96875.88281l.87109 2.29297m12.46875-2.8711l-7.01953.27344m7.01953-.27343l1.23828 2.11718m-2.25781-2.07812l.61719 1.0586m13.65625-.28907l-6.89844-1.34375m6.89844 1.34375l.71484 2.34766m-1.71875-2.54297l.71484 2.34765m13.5664-1.98046l-6.8203-1.6875m6.8203 1.6875l.59767 2.3789m-1.58985-2.625l.59766 2.3789m13.8125-2.96874l-7.02735-.01563m7.02735.01563l1.14844 2.16797m-2.17188-2.17188l.57422 1.08594m13.70703-1.72266l-6.91406 1.26563m6.91406-1.26563l1.52344 1.92188m-2.53125-1.73828l1.52344 1.92187m12.71484-2.46093l-6.74219 1.97656m6.74219-1.97656l1.71484 1.7539m-2.69531-1.46875l1.71484 1.75781m-2.6953-1.46875l.85546.87891m14.44531-1.35938l-6.79297 1.78516m6.79297-1.78515l1.66797 1.80468m-2.65625-1.54297l1.66406 1.80078m-2.65234-1.54296l.83203.90234m14.1289-2.2461l-6.1328 3.4375m6.1328-3.4375l2.0625 1.32813m-2.95702-.82812l2.0664 1.32812m-2.95703-.82812l2.0664 1.32812m13.22657-1.92969l-6.51562 2.63672m6.51562-2.63672l1.8789 1.57813m-2.82812-1.1914l1.8789 1.57421m-2.82812-1.1914l1.88282 1.57421m13.51171-1.73437l-6.8789 1.42187m6.8789-1.42187l1.56641 1.89062m-2.5664-1.68359l1.5664 1.89063m-2.5664-1.6836l.78124.94531m14.47657-1.59765l-6.76563 1.89844m6.76563-1.89844l1.6953 1.77344m-2.67968-1.5l1.69531 1.77734m-2.67968-1.5l.84765.88672m14.42969-1.46875l-6.75 1.96094"/><g clip-path="url(#aa)"><path fill="none" stroke="#000" stroke-linecap="round" stroke-linejoin="round" stroke-miterlimit="10" stroke-width=".5" d="M466.9375 412.77344l1.70703 1.76172"/></g><path fill="none" stroke="#000" stroke-linecap="round" stroke-linejoin="round" stroke-miterlimit="10" stroke-width=".5" d="M465.95313 413.0586l1.71093 1.7578"/><g clip-path="url(#ab)"><path fill="none" stroke="#000" stroke-linecap="round" stroke-linejoin="round" stroke-miterlimit="10" stroke-width=".5" d="M147.51172 400.44531l-7.02344-.01562"/></g><path fill="none" stroke="#000" stroke-linecap="round" stroke-linejoin="round" stroke-miterlimit="10" stroke-width=".5" d="M146.49219 400.44531l.57422 1.08203m12.8828 1.23438l-5.26952-4.64844m4.5039 3.97266l-.28515 1.19531m13.96484-.13281l-4.46875-5.42188m3.82031 4.63281l-.46875 1.13672m12.97266.3711l-1.54688-6.85547m1.32032 5.85547l-.92969.80078m15.0039-6.49219l-2.61327 6.52344m17.05859-5.79297l-4.8711 5.0664m19.25-2.85546l-7 .64453m7-.64453l1.34375 2.05078m11.83594-.71875l-6.73047-2.02344m6.73047 2.02344l.48047 2.40625m-1.46094-2.69922l.48047 2.40625m-1.45703-2.70313l.23828 1.20704m15.02344-.58985l-6.71094-2.07812m6.71094 2.07812l.46094 2.41406m-1.4375-2.71484l.46094 2.41016m-1.4375-2.71094l.23046 1.20313m15.14453-1.04688l-6.92578-1.1875m6.92578 1.1875l.76954 2.33203m-1.77735-2.5039l.76953 2.32812m-1.77343-2.5l.76562 2.32813m14.61328-2.66797l-7.02734.18359m7.02734-.1836l1.20703 2.13282m-2.23046-2.10938l1.20703 2.13672m-2.23047-2.10937l.60547 1.07031m14.74609-.7461l-7.0039-.5703m7.0039.5703l.97266 2.25391m-1.9922-2.33594l.97267 2.25391m13.29687-1.73828l-6.8789-1.4375m6.8789 1.4375l.6875 2.35547m12.69922-2.89063l-7.01953-.36718m7.01953.36718l1.03516 2.22657m12.27734-2.63672l-7.01172.45312m7.01172-.45312l1.28906 2.08594m-2.3086-2.01954l.64454 1.04297m13.2461.83594l-6.125-3.4375m6.125 3.4375l-.0547 2.45313m-.83593-2.95313l-.02735 1.22656m12.76563.6836l-3.1914-6.25782m3.1914 6.25782l-1.40625 2.01171m16.54687-4.34375l-6.84375-1.58984m6.84375 1.58985l.63282 2.37109m-1.62891-2.60156l.3164 1.18359m13.88673-2.92188l-6.625 2.34375m6.625-2.34375l1.80859 1.66016m-2.77344-1.3164l1.8086 1.65625m12.625-1.40235l-6.9336 1.14844m6.9336-1.14844l1.48828 1.95313m-2.4961-1.78516l1.48828 1.94922m12.85547-1.96875l-6.97656.85156m6.97656-.85156l1.40625 2.01172m-2.42187-1.88672l1.40625 2.01172m-2.42188-1.88672l.70313 1.0039m14.60937-1.47656l-6.90625 1.30078m6.90625-1.30078l1.53125 1.91406m-2.53515-1.72656l1.53125 1.91406m-2.53907-1.72265l.76954.95703m14.60937-.92969l-7.01172.48828m7.01172-.48828l1.30078 2.07813m-2.32031-2.00781l1.29687 2.08203m-2.3164-2.01172l1.29687 2.08203m14.03125-2.44922l-6.96093.9414m6.96093-.9414l1.4336 1.99219m-2.44532-1.85547l1.4336 1.99219m-2.44531-1.85547l.71484.9961m14.5664-1.58595l-6.84765 1.57422"/><g clip-path="url(#ac)"><path fill="none" stroke="#000" stroke-linecap="round" stroke-linejoin="round" stroke-miterlimit="10" stroke-width=".5" d="M466.98438 399.65234l1.60937 1.85157"/></g><path fill="none" stroke="#000" stroke-linecap="round" stroke-linejoin="round" stroke-miterlimit="10" stroke-width=".5" d="M465.98828 399.8789l1.60938 1.85548m-2.60547-1.625l.80469.92578"/><g clip-path="url(#ad)"><path fill="none" stroke="#000" stroke-linecap="round" stroke-linejoin="round" stroke-miterlimit="10" stroke-width=".5" d="M147.46875 386.5664l-6.9375 1.1172"/></g><path fill="none" stroke="#000" stroke-linecap="round" stroke-linejoin="round" stroke-miterlimit="10" stroke-width=".5" d="M147.46875 386.5664l1.48047 1.95313m11.8711-1.65625l-7.00782.51953m5.98828-.4414l.65234 1.03515M173.5 385.09375l-5.73828 4.0586m4.90234-3.46876l1.09375.55079m7.48828-1.36329l5.39844 4.50391m-4.61328-3.84766l.2539-1.19921m11.80079 1.28906l6.34765 3.01172m13.21485.1953L207.5 385.42189m6.14844 3.40234l-.03906 2.45312m-.85547-2.94921l-.03907 2.45312m14.4297-2.32813l-6.50782-2.66015m6.50781 2.66015l.2461 2.44141m-1.19532-2.82812l.25 2.4414M225.25 387.6797l.2461 2.4414m15.05468-1.92578l-6.6914-2.14453m6.6914 2.14453l.4375 2.41406m-1.41016-2.72656l.4375 2.41406m-1.41015-2.72656l.21875 1.20703m15.07031-.67187l-6.7461-1.96094m6.7461 1.96094l.5 2.39844m-1.48047-2.6875l.25 1.20312m14.15625-2.33984l-6.96875.88672m6.96875-.88672l1.41797 2.00781m-2.42969-1.8789l.70704 1.0039m13.43359-1.90234l-6.59766 2.42578m6.59766-2.42578l1.82812 1.63671m11.46875-1.67968l-6.5625 2.51562m6.5625-2.51562l1.85157 1.60937m11.35156-1.86719l-6.33985 3.02735m6.33985-3.02735l1.97656 1.45704m11.57422-.8125l-6.8086 1.73828m6.8086-1.73828l1.65234 1.8125m11.73828-1.41797l-6.96093.94922m6.96093-.94922l1.4375 1.99219m11.60157-.07032l-6.40625-2.89453m5.47265 2.47266l.07813 1.22656m14.3164-1.1875l-6.69921-2.1289m6.69921 2.1289l.44141 2.41406m-1.41797-2.72265l.22266 1.20703m14.21875-2.28125l-7 .63672m7-.63672l1.34375 2.05469m-2.36328-1.96094l1.34375 2.05078m-2.35938-1.95703l.67188 1.02344m14.59375-1.71094l-6.83203 1.63672m6.83203-1.63672l1.6289 1.83594m-2.62109-1.59766l1.625 1.83594m12.58984-2.40235l-6.64453 2.29297m6.64453-2.29297l1.79297 1.67188m-2.76172-1.33985l1.79688 1.67188m12.45703-2.08594l-6.58594 2.45703m6.58594-2.45703l1.83594 1.6289m-2.79297-1.26952l1.83594 1.625M427.07422 386.5l-6.91406 1.2461m6.91406-1.2461l1.51953 1.92969m-2.52734-1.75l1.51953 1.92969m12.85937-1.57813l-7.02734.1836m7.02734-.1836l1.20703 2.13672m-2.23047-2.10938l1.20704 2.13672m-2.23047-2.10937l.60547 1.0664m14.7578-1.0078l-7.02734-.04298m7.02735.04297l1.13672 2.17188m-2.16016-2.1797l1.13672 2.17579m-2.16016-2.17969l.57032 1.08594m14.78906-1.23047l-7.02344.26953"/><g clip-path="url(#ae)"><path fill="none" stroke="#000" stroke-linecap="round" stroke-linejoin="round" stroke-miterlimit="10" stroke-width=".5" d="M467.07422 386.98828l1.23437 2.1211"/></g><path fill="none" stroke="#000" stroke-linecap="round" stroke-linejoin="round" stroke-miterlimit="10" stroke-width=".5" d="M466.05078 387.02734l1.23438 2.1211m-2.25391-2.08203l.61719 1.05859"/><g clip-path="url(#af)"><path fill="none" stroke="#000" stroke-linecap="round" stroke-linejoin="round" stroke-miterlimit="10" stroke-width=".5" d="M147.36328 372.78906l-6.72656 2.03516"/></g><path fill="none" stroke="#000" stroke-linecap="round" stroke-linejoin="round" stroke-miterlimit="10" stroke-width=".5" d="M147.36328 372.78906l1.73047 1.74219m11.73438-.75l-7.02735.05469m6.0039-.04688l.58595 1.07813m13.4375.39453l-6.39454-2.90625m5.46485 2.48437l.07422 1.22266m13.24218-4.9375l-4.53906 5.36328m3.8789-4.58203l1.19923.26172m13.77734 2.92187l-6.54297-2.5625m6.54297 2.5625l.28125 2.4375m12.52734-1.55078l-5.52734-4.33984m5.52734 4.33984l-.43359 2.41797m-.3711-3.04687l-.43359 2.41406m-.3711-3.04688l-.43358 2.41407m15.6875-1.65235l-6.1875-3.33594m6.1875 3.33594l-.01563 2.45313m-.88672-2.9375l-.01172 2.45312m14.5586-2.83984l-6.84375-1.59375m6.84375 1.59375l.6289 2.3711m-1.625-2.60157l.6289 2.3711m13.76563-2.73048l-7.01562-.41406m7.01562.41406l1.02344 2.23047m-2.04297-2.28906l.51172 1.11328m13.8086-1.66015l-6.98438.79687m6.98438-.79687l1.38671 2.02343m-2.40234-1.90625l.6914 1.01172m13.52344-1.69922l-6.7539 1.9375m6.7539-1.9375l1.70704 1.76172m-2.6875-1.48047l.85156.88282m13.50781-.91016l-6.8789 1.42969m6.8789-1.42969l1.5664 1.88672m-2.5664-1.67969l1.5664 1.88672m12.71094-2.2539l-6.80468 1.75m6.80468-1.75l1.65625 1.80859m-2.64843-1.55469l1.65625 1.8086m12.6914-1.89063l-6.88672 1.40625m6.88672-1.40625L322.10156 375m-2.5664-1.6914l1.5625 1.89452m12.80078-1.80859l-6.97656.82422m6.97656-.82422l1.39844 2.01953m-2.41016-1.89844l.69531 1.00782m13.65625-.625l-7.02344-.1836m7.02344.1836l1.09375 2.19531m-2.11719-2.21875l1.09766 2.19531m13.24219-2.16406l-7.02735-.19531m7.02735.19531l1.08984 2.19922m-2.11328-2.22656l1.08984 2.19921m-2.11328-2.22656l.54688 1.09766m14.8086-1.34375l-7.01563.40234m7.01562-.40234l1.27344 2.09765m-2.29297-2.03906l1.27344 2.09766m-2.29297-2.03906l1.27344 2.09765m14.01172-2.73437l-6.875 1.4414m6.875-1.4414l1.57421 1.88672m-2.57421-1.67579l1.5703 1.88282m-2.5703-1.67188l.78515.9414m14.53125-1.36327l-6.8789 1.44531m6.8789-1.44531l1.57031 1.88281m-2.5703-1.67188l1.5703 1.88282m-2.57421-1.67188l.78906.9414m14.5586-1.1914l-6.9375 1.10156m6.9375-1.10156l1.48046 1.95703m-2.48828-1.79687l1.47656 1.95703m12.86328-2.02344l-6.96875.91016m6.96875-.91016l1.42188 2m-2.4375-1.86719l1.42187 2m12.92578-1.96484l-7.0039.57813m7.0039-.57813l1.32422 2.0625m-2.34375-1.98047l1.32813 2.0664m13.01953-1.8164l-7.02734-.08594m7.02734.08594l1.125 2.17969m-2.14844-2.1914l1.125 2.17968m13.21094-2.21094h-7.02734"/><g clip-path="url(#ag)"><path fill="none" stroke="#000" stroke-linecap="round" stroke-linejoin="round" stroke-miterlimit="10" stroke-width=".5" d="M467.07422 373.8086l1.15234 2.16796"/></g><path fill="none" stroke="#000" stroke-linecap="round" stroke-linejoin="round" stroke-miterlimit="10" stroke-width=".5" d="M466.05469 373.8086l.57422 1.08202"/><g clip-path="url(#ah)"><path fill="none" stroke="#000" stroke-linecap="round" stroke-linejoin="round" stroke-miterlimit="10" stroke-width=".5" d="M147.14453 358.92188l-6.28906 3.14062"/></g><path fill="none" stroke="#000" stroke-linecap="round" stroke-linejoin="round" stroke-miterlimit="10" stroke-width=".5" d="M147.14453 358.92188l1.9961 1.42578m11.3125-1.4336l-6.27735 3.16016m6.27734-3.16016l2.00391 1.41797m9.4961 3.41797l-2.64454-6.51172m16.5547 6.19922l-3.83595-5.88672m3.27735 5.02735l-.58985 1.07421m15.29297-.97265l-5.4961-4.375m5.4961 4.375l-.44531 2.41406m-.35156-3.05078l-.22656 1.20703m14.07421-.27344l-4.96875-4.96875m4.96875 4.96875l-.71484 2.34766m-.00781-3.07031l-.71485 2.34765m-.0078-3.07031l-.35938 1.17188m15.8125-.70704l-6.35157-3.0039m6.35157 3.0039l.11328 2.44922m-1.03906-2.88672l.11718 2.44922m14.26953-2.36719l-6.64453-2.29687m6.64453 2.29688l.37891 2.42578m-1.34766-2.75782l.19141 1.21094m14.27734-2.22656l-7.01562.39844m7.01562-.39844l1.27344 2.09765m-2.29297-2.03906l1.27344 2.09766m13.04688-2.34766l-6.98438.78125m6.98438-.78125l1.3828 2.02735m-2.39843-1.91407l1.38281 2.02735m12.96094-1.9961l-7.01172.4961m7.01172-.4961l1.30078 2.07813m-2.32031-2.00781l1.30078 2.08203m13.0039-2.41797l-6.95312 1.02344m6.95313-1.02344l1.45703 1.97656m-2.46875-1.82812l1.45703 1.97656m12.89062-1.96094l-6.99218.69531m6.99218-.6953l1.35938 2.04296m-2.3789-1.9414l1.36327 2.04296m-2.3789-1.9414l1.35937 2.04296m14-2.14453l-7.01172.4961m7.01172-.4961l1.30078 2.07813m-2.3203-2.00781l1.30077 2.08203m-2.32031-2.00781l.64844 1.03906m14.69531-1.30078l-6.98828.72656m6.98828-.72656l1.3711 2.03515m-2.38672-1.92969l1.36718 2.03516m12.98047-1.69922l-7.02344-.15234m7.02344.15234l1.10547 2.1914m-2.1289-2.21483l1.10546 2.1914m-2.125-2.21484l.55078 1.09765m14.8047-1.26953l-7.01954.28125m7.01953-.28125l1.23828 2.1211m-2.25781-2.07813l1.23828 2.11719m-2.26172-2.07813l1.23828 2.1211m14.10157-2.46875l-6.98047.8125m6.98047-.8125l1.39453 2.01953m-2.41016-1.89844l1.39453 2.01953m-2.41015-1.90234l1.39453 2.01953m-2.41016-1.90234l.69531 1.01171m15.6211-1.64062l-6.89453 1.36328m6.89453-1.36328l1.55078 1.90234m-2.55469-1.70312l1.55078 1.90234m-2.55078-1.70703l1.55078 1.90235m-2.55468-1.70313l.77343.95313m15.55078-1.54297l-6.89453 1.35546m6.89453-1.35546l1.54688 1.90234m-2.55078-1.70703l1.55078 1.90234m-2.55469-1.70312l1.55078 1.90234m13.76563-2.33594l-6.8789 1.4336m6.8789-1.4336l1.5664 1.88672m-2.5664-1.67969l1.5664 1.88672m-2.5703-1.67578l.78515.9414m14.51562-1.4453l-6.84375 1.60546m6.84375-1.60546l1.61328 1.84765m-2.60937-1.61328l1.61328 1.84375m-2.60937-1.61328l.80859.92578m14.50781-1.34765L433.5 361.2539m6.86328-1.51954l1.59375 1.86329m-2.59375-1.64454l1.59375 1.8672m-2.58984-1.64454l.79687.9336m14.55469-1.16407l-6.9414 1.09766m6.9414-1.09766l1.47266 1.96094m-2.48438-1.80078l1.47656 1.96094m12.72657-2.63282l-6.69922 2.1211"/><g clip-path="url(#ai)"><path fill="none" stroke="#000" stroke-linecap="round" stroke-linejoin="round" stroke-miterlimit="10" stroke-width=".5" d="M466.91016 359.4336l1.7539 1.71874"/></g><path fill="none" stroke="#000" stroke-linecap="round" stroke-linejoin="round" stroke-miterlimit="10" stroke-width=".5" d="M465.9375 359.74219l1.75 1.71875"/><g clip-path="url(#aj)"><path fill="none" stroke="#000" stroke-linecap="round" stroke-linejoin="round" stroke-miterlimit="10" stroke-width=".5" d="M146.73828 344.97656l-5.47656 4.40235"/></g><path fill="none" stroke="#000" stroke-linecap="round" stroke-linejoin="round" stroke-miterlimit="10" stroke-width=".5" d="M145.9414 345.61719l1.12891.48437m13.28516-.6836l-6.08203 3.51954m5.19922-3.00781l1.03906.64844m13.59375.07421l-6.94922 1.05079m5.9375-.89844l.73047.98437m10.73047 2.84766l-1.21875-6.91797m1.04297 5.91406l-.96875.7539m16.17968-.57812l-4.65625-5.26171m4.65625 5.26171l-.85937 2.30079m13.27344-1.72266l-2.85547-6.41797m2.85547 6.41797l-1.51172 1.9336m1.09375-2.8672l-1.51172 1.9336m16.27344-1.69922l-4.91407-5.01953m4.91407 5.01953l-.7422 2.33984m.02735-3.0703l-.74219 2.33983m15.50391-2.64062l-6.375-2.95703m6.375 2.95703l.13281 2.44922m-1.0625-2.8789l.13672 2.44921m14.39453-2.98437l-6.95312-1.02735m6.95312 1.02735L254.82031 350m-1.83594-2.45703l.82422 2.3086m13.53516-2.45313l-7.01563-.4414m7.01563.4414l1.01172 2.23437m-2.03516-2.29687l1.01563 2.23437m13.32031-2.17187l-7.01172-.4414m7.01172.4414l1.01562 2.23437m-2.03515-2.30078l1.01562 2.23438m13.32422-2.29688l-7.02344-.1836m7.02344.1836l1.09766 2.19531m-2.11719-2.22265l1.09375 2.19531m13.24219-2.21484l-7.02344-.08985m7.02344.08985l1.125 2.18359m-2.14453-2.19531l1.1211 2.17969M305.25 347.1953l.5625 1.09375m14.79297-1.26953l-7.01953.32031m7.01953-.3203l1.25 2.10937m-2.26953-2.06641l1.25 2.11328m-2.27344-2.0664l1.25 2.11328m14.08203-2.50782l-6.96484.92579m6.96484-.92579l1.42578 1.9961m-2.4414-1.86328l1.42968 1.99609m-2.4414-1.85938l.71484.9961m14.64453-1.09375l-7.0039.58203m7.0039-.58203l1.32813 2.0664m-2.34766-1.98046l1.32813 2.0625m-2.34375-1.97657l.66015 1.03125m14.70313-.84375l-7.02735-.1328m7.02735.1328l1.10937 2.1875m-2.13281-2.20703l1.11328 2.1875m-2.13672-2.20703l1.11328 2.1875m14.21875-2.67187l-6.96875.91015m6.96875-.91015l1.42188 2m-2.4336-1.8672l1.42188 2m-2.4375-1.86718l1.42187 2m-2.43359-1.86719l.71094 1m15.57031-1.78125l-6.82422 1.6797m6.82422-1.6797l1.63672 1.82813m-2.6289-1.58594l1.63671 1.82813m-2.6289-1.58204l1.63671 1.82813m13.63672-2.41797l-6.76953 1.88281m6.76953-1.8828l1.69141 1.77733m-2.67578-1.5039l1.6914 1.77734m-2.67578-1.5039l1.6875 1.77734m13.53907-2.50781l-6.65625 2.25m6.65625-2.25l1.78515 1.6836m-2.7539-1.35938l1.78515 1.68359m-2.7539-1.35547l1.78515 1.6836m-2.7539-1.35547l.89453.83984m15.29687-1.91016l-6.59375 2.42579m6.59375-2.42579l1.82813 1.63672m-2.78907-1.28125l1.82813 1.63672m-2.78516-1.28515l1.82813 1.63671m-2.78906-1.28515l.91406.82031m15.36719-1.60156l-6.77344 1.8711m6.77344-1.8711l1.6875 1.78125m-2.67188-1.50781l1.6875 1.78125m-2.67187-1.51172l1.6875 1.78515m13.55859-2.45703l-6.69531 2.13281m6.69531-2.1328l1.7539 1.71483m-2.72656-1.40625l1.75391 1.71485m-2.73047-1.40235l.8789.85547m14.3125-1.6875l-6.54687 2.55079"/><g clip-path="url(#ak)"><path fill="none" stroke="#000" stroke-linecap="round" stroke-linejoin="round" stroke-miterlimit="10" stroke-width=".5" d="M466.83594 345.90234L468.6953 347.5"/></g><path fill="none" stroke="#000" stroke-linecap="round" stroke-linejoin="round" stroke-miterlimit="10" stroke-width=".5" d="M465.88281 346.27344l1.85938 1.59765m-2.8125-1.22656l.92969.80078"/><g clip-path="url(#al)"><path fill="none" stroke="#000" stroke-linecap="round" stroke-linejoin="round" stroke-miterlimit="10" stroke-width=".5" d="M141.5 336.33203l5-4.9375"/></g><path fill="none" stroke="#000" stroke-linecap="round" stroke-linejoin="round" stroke-miterlimit="10" stroke-width=".5" d="M160.73047 333.04297l-6.83203 1.63672m19.53125 1.3086l-5.59766-4.25m4.78125 3.6289l-.19531 1.21094m14.84766-1.5625l-6.64063-2.3047m6.64063 2.3047l.3789 2.42187m11.11719-.39844l-3.0039-6.35156m3.0039 6.35156l-1.46484 1.96875m1.02734-2.89453l-1.46484 1.96875m15.65625-1.28906l-3.87891-5.85938m3.8789 5.85938l-1.17187 2.15625m.60547-3.00781l-1.17188 2.15625m.60938-3.00782l-.58594 1.07813m15 .64453l-3.82031-5.89844m3.82031 5.89844l-1.1914 2.14453m.63671-3.0039l-1.1953 2.14453m.63671-3l-.59375 1.0703m15.47656.29298l-4.72656-5.19922m4.72656 5.19922l-.82812 2.3125m.14062-3.0664l-.82812 2.30858m15.5039-2.38671l-6.07422-3.53516m6.07422 3.53516l-.09375 2.45312m-.79297-2.96484l-.09375 2.44922m-.78906-2.96485l-.04687 1.22656M267.16016 335l-6.64844-2.27344M267.16016 335l.38672 2.42188m-1.35547-2.75391l.39062 2.42578m-1.35547-2.7539l.1914 1.21093m15.22267-1.27344l-6.98047-.82812m6.98047.82812l.88671 2.28907m-1.90234-2.41016l.88672 2.28906m-1.90234-2.41015l.4453 1.14453m14.89454-.85938l-6.96875-.91406m6.96875.91406l.85937 2.30078m-1.87109-2.43359l.85938 2.29688m-1.875-2.4297l.42968 1.14844m14.92578-.98046l-6.99218-.71875m6.99218.71875l.92188 2.27343m-1.9414-2.3789l.92577 2.27344m-1.9414-2.37891l.46094 1.13672m14.90625-1.2461l-7.02735-.07812m7.02735.07812l1.1289 2.17579m-2.15234-2.1875l1.1289 2.17968m-2.14843-2.1914l.5625 1.08984m14.79297-.9336l-7.01954-.34374m7.01954.34375l1.04296 2.21875m-2.0664-2.26954l1.04687 2.21875m-2.0664-2.26953l.52343 1.10938m14.77735-.53125l-6.90625-1.30078m6.90625 1.30078l.73047 2.34375m-1.73438-2.53125l.73047 2.34375m-1.73828-2.53125l.36719 1.16797m14.91406-.58594l-6.8164-1.71484m6.8164 1.71484l.58594 2.38281m-1.57813-2.6289l.58985 2.3789m-1.58204-2.6289l.29297 1.1914m15.11328-1.60547l-7.02734.10938m7.02734-.10938l1.1836 2.14844m-2.20703-2.13281l1.18359 2.14844m-2.20703-2.13282l1.1836 2.14844m14.14452-2.59765l-6.96093.9453m6.96093-.9453l1.4336 1.99218m-2.44531-1.85547l1.43359 1.9922m12.58984-3.15626l-6.35547 3m6.35547-3l1.96485 1.46485m-2.89063-1.03125l.98438.73437m13.26562-1.14844l-6.3711 2.96094m6.3711-2.96094l1.95703 1.47656m-2.88672-1.04687l1.96094 1.48047m12.32813-1.8086l-6.46485 2.75782m6.46485-2.75781l1.91015 1.54296m-2.84765-1.14062l1.90625 1.54297m12.36328-1.90625l-6.4961 2.67969m6.4961-2.6797l1.89062 1.5625m-2.83593-1.17187l1.89062 1.5625m-2.83594-1.17187l1.89063 1.5625m13.375-2.1914l-6.61719 2.375m6.61719-2.375l1.8164 1.65233m-2.78125-1.30468l1.81641 1.64844m-2.77734-1.3047l1.8164 1.65235m-2.77734-1.3086l.90625.82813m15.15625-2.1914l-6.33984 3.03125"/><g clip-path="url(#am)"><path fill="none" stroke="#000" stroke-linecap="round" stroke-linejoin="round" stroke-miterlimit="10" stroke-width=".5" d="M466.73047 332.34766l1.97656 1.45703"/></g><g clip-path="url(#an)"><path fill="none" stroke="#000" stroke-linecap="round" stroke-linejoin="round" stroke-miterlimit="10" stroke-width=".5" d="M465.8086 332.78906l1.97265 1.45703"/></g><path fill="none" stroke="#000" stroke-linecap="round" stroke-linejoin="round" stroke-miterlimit="10" stroke-width=".5" d="M464.88672 333.23047l1.97265 1.45703"/><g clip-path="url(#ao)"><path fill="none" stroke="#000" stroke-linecap="round" stroke-linejoin="round" stroke-miterlimit="10" stroke-width=".5" d="M147.25781 319.23438l-6.51562 2.625"/></g><path fill="none" stroke="#000" stroke-linecap="round" stroke-linejoin="round" stroke-miterlimit="10" stroke-width=".5" d="M146.3125 319.61719l.9375.78906m8.59766 3.33203l2.9375-6.38281m-2.51172 5.45703l-1.22266.07031m12.07031-2.53125l7.01563.39063m9.60547 3.3125l.40625-7.01563m-.34766 5.9961l-1.11328.51171m15.53516.37891l-1.92578-6.75781m1.92578 6.75781l-1.76563 1.70313m1.48438-2.6836l-1.76563 1.69922m15.46094-.7461l-2.125-6.69921m2.125 6.69922l-1.71484 1.75m1.40625-2.72656l-1.71485 1.7539m1.40625-2.72656l-.85937.875m15.12109.94922L222.5 317.3203m2.78125 6.45313l-1.53516 1.91797m1.12891-2.85547l-1.53516 1.91406m1.13282-2.85156l-1.53516 1.91406m16.22266-.34375l-3.91016-5.83984m3.91016 5.83984L238 325.62891m.58984-3.01172l-1.16015 2.16406m.59375-3.01172l-.58203 1.08203m15.6875.05078l-5.21875-4.70703m5.21875 4.70703l-.59375 2.37891m-.16407-3.0664l-.59765 2.3828m-.16406-3.0664l-.29688 1.1914m15.64063-.55077l-6.23438-3.25m6.23438 3.25l.01953 2.45312m-.9297-2.92578l.02345 2.45312m-.9297-2.92578l.01954 2.45313m15.40234-2.28516l-6.8164-1.69531m6.8164 1.69531l.59766 2.38281m-1.58984-2.6289l.59765 2.38281m-1.58984-2.6289l.30078 1.1914m15.05469-.96094L287 319.96484m6.92969 1.16797l.77734 2.32813m-1.78515-2.5l.77734 2.32812m-1.78516-2.4961l.38672 1.16407m14.95703-.90625l-6.95312-1.00781m6.95312 1.00781l.82813 2.3086m-1.83985-2.45313l.82813 2.3086m-1.83984-2.45704l.82812 2.3086m14.54688-2.46485l-7.02735-.10547m7.02735.10547l1.11718 2.1836m-2.14062-2.19922l1.1211 2.1836m-2.14063-2.19923l1.11718 2.1836m14.2422-2.20704h-7.02735m7.02734 0l1.15235 2.16797m-2.17579-2.16796l1.15235 2.16796m-2.17578-2.16796l.57812 1.08593m14.78125-1.22265l-7.02344.27343m7.02344-.27343l1.23438 2.12109m-2.25782-2.08203l1.23438 2.1211m13.03906-1.35157l-6.89453-1.34375m5.89453 1.14844l.35547 1.17187m13.84766-2.75l-6.67188 2.20703m6.67188-2.20703l1.77343 1.69531m11.6211-1.41015l-6.83203 1.63672m6.83203-1.63672l1.6289 1.83594m-2.62109-1.59766l.8125.91797m13.55469-.86328l-6.94922 1.05078m5.9375-.89844l.73047.98438m11.91406-3.63282l-3.58594 6.04297m3.0664-5.16406l1.22657.0586m13.42578-.26563l-5.22265 4.69922M439 317.70704l-4.13672 5.67968M439 317.70703l2.42969.34766m11.82422.67578l-6.01172 3.63672m6.01172-3.63672l2.10547 1.25781m-2.98047-.73047l2.10547 1.25781m11.76171-2.23437l-5.37109 4.53125"/><g clip-path="url(#ap)"><path fill="none" stroke="#000" stroke-linecap="round" stroke-linejoin="round" stroke-miterlimit="10" stroke-width=".5" d="M466.2461 318.28125l2.27734.91406"/></g><path fill="none" stroke="#000" stroke-linecap="round" stroke-linejoin="round" stroke-miterlimit="10" stroke-width=".5" d="M465.46484 318.9414l2.27735.91407m-3.0586-.2539l2.27735.91406m-3.0586-.25391l1.14063.45703"/><path fill="#ff3030" fill-rule="evenodd" d="M313.48047 467.64844h7.6914V457.5039h-7.6914v10.14453"/><path fill="azure" fill-rule="evenodd" d="M315.3125 459.33594h.83594v5.73828h3.1914v.74219h-4.02734v-6.48047"/><path fill="#ff3030" fill-rule="evenodd" d="M233.58984 463.21094h7.69532V453.0625h-7.69532v10.14844"/><path fill="azure" fill-rule="evenodd" d="M235.42188 454.89844h.83593v5.73828h3.1914v.74219h-4.02733v-6.48047"/><path fill="#ff3030" fill-rule="evenodd" d="M189.20703 356.6875h7.6914v-10.14453h-7.6914v10.14453"/><path fill="azure" fill-rule="evenodd" d="M191.03906 348.375h.83594v5.74219h3.1914v.73828h-4.02734V348.375"/><path fill="#ffffe0" fill-rule="evenodd" d="M341.74219 394.20313h22.1836v-10.19141h-22.1836v10.1914"/><path fill-rule="evenodd" d="M345.24219 385.84375h.51172v6.29297h-.78907v-4.48828h-1.38671v-.55469l.55859-.0664.2539-.0547.22657-.08593.20312-.14453.17578-.20703.14063-.29688.10547-.39453m4.8164 0l.22657.01953.21875.05469.21093.08984.19532.1211.18359.14843.17188.17579.30078.42187.24218.49219.1797.54687.11327.57813.03906.58984-.03906.59375-.11328.58594-.17969.55469-.24218.5-.30079.42968-.17187.1797-.1836.15233-.1953.125-.21094.08985-.21875.0586-.22657.01952-.23046-.01953-.21875-.0586-.20704-.08983-.19921-.125-.1836-.15235-.17187-.17969-.30079-.42968-.24218-.5-.17969-.5547-.11328-.58593-.03906-.59375h.83593l.02735.5664.08203.50391.125.44141.16406.375.1914.30078.21094.22266.22266.13672.22656.04687.22657-.04687.22265-.13672.21094-.22266.1875-.30078.16406-.375.125-.4414.08203-.50391.03125-.5664-.03125-.5586-.08203-.5-.125-.4375-.16406-.36719-.1875-.28906-.21094-.21485-.22265-.1328-.22657-.04298-.22656.04297-.22265.13281-.21094.21485-.1914.28906-.16407.36719-.125.4375-.08203.5-.02735.5586h-.83593l.03906-.58985.11328-.57813.17969-.54687.24219-.49219.30078-.42188.17187-.17578.1836-.14843.19921-.1211.20704-.08984.21875-.05469.23046-.01953m5.08985 0h.50781v6.29297h-.78516v-4.48828h-1.39062v-.55469l.5625-.0664.25-.0547.23047-.08593.20312-.14453.17578-.20703.14063-.29688.10547-.39453m2.82422 2.17578h.78515l.01953-.3164.0586-.28516.10156-.2539.14063-.21485.17968-.17578.22266-.1289.26562-.07813.3086-.02735.23828.01953.22265.0625.20313.10157.17969.14062.14844.17188.11328.20703.07421.23437.02344.26563-.01953.26953-.0664.22265-.10938.19141-.15625.17188-.20313.16406-.24609.16406-.63281.39063-.53906.3125-.4375.3164-.34375.32422-.26563.33594-.1914.35156-.125.3711-.06641.39062-.02344.41797h4.21485v-.73828h-3.33594l.08594-.28516.11328-.23437.14843-.20313.1875-.17969.23047-.17187.27735-.17578.71875-.41797.41406-.20313.34375-.23046.28125-.25391.22265-.26563.16016-.27734.11328-.28516.0625-.28515.01953-.28125-.03906-.38281-.1211-.34766-.1914-.3086-.25-.26171-.30078-.21485-.34766-.15625-.3789-.09765-.40625-.03516-.4336.03125-.39843.10156-.35547.16406-.30469.23438-.25.30469-.1836.375-.11718.44531-.03906.51953"/><path fill="#ffffe0" fill-rule="evenodd" d="M248.53906 375.46875h22.17969v-10.19531h-22.17969v10.19531"/><path fill-rule="evenodd" d="M252.03906 367.10938h.50781v6.29296h-.78515v-4.48828h-1.39063v-.55469l.5586-.0664.2539-.05469.23047-.08984.20313-.14063.17187-.21094.14453-.29296.10547-.39454m4.8125 0l.23047.01954.21875.05468.20703.08985.19531.1211.1836.14843.17187.17578.3047.41797.24218.4961.17969.54687.10937.57812.03906.58985-.03906.59375-.10937.58593-.1797.55079-.24218.5039-.30469.42578-.17187.17969-.1836.15625-.1953.1211-.20704.09374-.21875.0547-.23047.01952-.23047-.01953-.21875-.05469-.20703-.09375-.19531-.12109-.1836-.15625-.17187-.17969-.30469-.42578-.24218-.5039-.1797-.55079-.10937-.58593-.03906-.59375h.83203l.02735.5625.08203.5078.1289.44142.16016.375.1914.30078.21094.22265.22266.13672.22656.04688.22656-.04688.22266-.13672.21094-.22265.1914-.30079.16016-.375.1289-.4414.07813-.50781.03125-.5625-.03125-.5625-.07812-.5-.1289-.4336-.16017-.36719-.1914-.29296-.21094-.21094-.22265-.13281-.22657-.04688-.22656.04688-.22266.1328-.21093.21095-.19141.29296-.16016.3672-.1289.43359-.08203.5-.02735.5625h-.83203l.03906-.58985.10938-.57812.17969-.54688.24218-.4961.3047-.41796.17187-.17578.18359-.14844.19531-.1211.20703-.08984.21875-.05468.23047-.01954m5.08985 0h.51171v6.29297h-.78906v-4.48828h-1.38672v-.55469l.5586-.0664.2539-.05469.22657-.08984.20703-.14063.17187-.21094.14063-.29296.10547-.39454m2.82421 2.17579h.78907l.01953-.31641.0586-.28906.09765-.25.14062-.21485.1797-.17578.22655-.1289.26563-.08204.30469-.02734.23828.02344.22656.0625.20313.10156.17968.13672.14844.17578.11328.20313.07031.23828.02344.26172-.01953.26953-.0664.22656-.10938.1914-.15625.17188-.19922.16016-.2461.16797-.63671.38671-.53516.3125-.4375.32032-.34765.32422-.26563.33593-.1875.35157-.125.36718-.07031.39454-.01953.41796h4.21093v-.73828h-3.33203l.08203-.28515.11329-.23829.14843-.19921.1875-.1797.23047-.17187.27735-.17578.71875-.41797.41406-.20703.34765-.23047.28125-.25.21875-.26562.16407-.28125.10937-.28125.0664-.28516.01954-.28125-.04297-.38281-.1211-.34766-.1875-.30859-.25-.26172-.30468-.21484-.34375-.15625-.38281-.10156-.40625-.03125-.4336.03125-.39844.09765-.35546.16797-.3047.23438-.24608.30468-.1875.375-.1172.44531-.03906.51954"/><path fill="#ffffe0" fill-rule="evenodd" d="M346.1836 366.61719h22.17968v-10.19531H346.1836v10.1953"/><path fill-rule="evenodd" d="M349.6836 358.25781h.5078v6.29297h-.78906v-4.48828h-1.38671v-.5586l.55859-.0625.2539-.05468.23047-.08985.20313-.14062.17187-.21094.14063-.29297.10937-.39453m4.8125 0l.23047.01563.21875.0586.20703.08983.19532.1211.18359.14844.17188.17578.30078.41797.24609.49609.17969.54297.10937.58203.03906.58984-.03906.59375-.10937.58204-.17969.55468-.2461.5039-.30077.42579-.17188.17969-.1836.15625-.1953.1211-.20704.09374-.21875.05469-.23047.01953-.23046-.01953-.21875-.05469-.20704-.09375-.1953-.1211-.1875-.15624-.16798-.17969-.30469-.42578-.24218-.5039-.17969-.5547-.11328-.58203-.03516-.59375h.83203l.02735.5625.08203.50782.1289.4414.16016.375.1914.30078.21094.22266.22266.13672.22656.04687.22657-.04687.22265-.13672.21094-.22266.1914-.30078.16016-.375.125-.4414.08203-.50782.03125-.5625-.03125-.5625-.08203-.5-.125-.43359-.16015-.36719-.19141-.29297-.21094-.21484-.22265-.1289-.22657-.04688-.22656.04687-.22265.12891-.21094.21484-.1914.29297-.16017.36719-.1289.4336-.08203.5-.02735.5625h-.83203l.03516-.58985.11328-.58203.17969-.54297.24219-.4961.30468-.41796.16797-.17578.1875-.14844.19531-.1211.20704-.08984.21875-.0586.23046-.01562m5.08985 0h.51172v6.29297h-.78907v-4.48828h-1.38671v-.5586l.55859-.0625.2539-.05468.22657-.08985.20312-.14062.17578-.21094.14063-.29297.10547-.39453m6.80469 1.61719h-.78516l-.05469-.21094-.07812-.1875-.10938-.15625-.1289-.13281-.14844-.10156-.16016-.07422-.16797-.04688-.17187-.01562-.32813.04297-.28515.11719-.2461.19921-.20703.26563-.16015.33984-.11329.40235-.0703.46875-.02345.52734.1875-.20313.1875-.16015.1836-.1211.1875-.08984.1875-.0625.1914-.03515.40235-.02344.30469.03125.3203.08984.31641.15625.29688.21875.2539.28516.19922.35156.07422.19922.05078.21875.02735.23437.00781.25-.78906.04688-.02735-.25781-.07812-.25-.1211-.23438-.16015-.21094-.19531-.17968-.21875-.13672-.23829-.08594-.2578-.03125-.25391.03125-.23829.08594-.22265.13672-.1914.17968-.16016.21094-.125.23438-.07422.25-.02735.2578.02735.25782.07422.2539.125.23438.16015.20703.1914.1797.22267.13671.23828.08984.2539.03125.25781-.03125.23829-.08984.21875-.13672.1953-.17969.16017-.20703.12109-.23437.07812-.2539.02735-.25782.78906-.04688-.03125.3711-.09375.3711-.15625.35937-.22266.32812-.28906.28125-.17187.1211-.1875.10156-.20704.08203-.22265.0625-.24219.03906-.26172.01172-.28125-.01563-.26172-.04687-.23437-.07422-.21875-.10547-.19531-.13281-.17188-.15625-.15625-.17969-.13281-.20312-.11719-.22266-.09765-.24219-.14844-.53515-.08594-.59375-.02734-.63672.03906-.7461.11328-.66406.1875-.57422.1211-.2578.13671-.23048.15235-.20703.17187-.17969.1875-.15625.19922-.1289.21875-.10156.23438-.07422.24609-.04688.26172-.01172.36719.03125.33203.09766.29296.14844.25782.20312.21094.23828.16796.27735.11329.30078.0625.32031"/></g></defs><use xlink:href="#aq"/></svg>