<svg xmlns="http://www.w3.org/2000/svg" role="img" xmlns:xlink="http://www.w3.org/1999/xlink" viewBox="142.45 309.95 326.84 171.84"><defs><clipPath id="a"><path d="M144 441h1v39.32813h-1zm0 0"/></clipPath><clipPath id="b"><path d="M144 311.67188h1V432h-1zm0 0"/></clipPath><clipPath id="c"><path d="M144 311.67188h324v168.65625H144zm0 0"/></clipPath><clipPath id="d"><path d="M224 311.67188h13V316h-13zm0 0"/></clipPath><clipPath id="e"><path d="M226 311.67188h9V314h-9zm0 0"/></clipPath><clipPath id="f"><path d="M384 476h16v4.32813h-16zm0 0"/></clipPath><clipPath id="g"><path d="M385 476h12v4.32813h-12zm0 0"/></clipPath><clipPath id="h"><path d="M388 478h7v2.32813h-7zm0 0"/></clipPath><clipPath id="i"><path d="M391 479h3v1.32813h-3zm0 0"/></clipPath><clipPath id="j"><path d="M448 478h5v2.32813h-5zm0 0"/></clipPath><clipPath id="k"><path d="M461 474h7v6.32813h-7zm0 0"/></clipPath><clipPath id="l"><path d="M467 474h1v6.32813h-1zm0 0"/></clipPath><clipPath id="m"><path d="M467 311.67188h1V475h-1zm0 0"/></clipPath><clipPath id="n"><path d="M144 479h4v1.32813h-4zm0 0"/></clipPath><clipPath id="o"><path d="M147 480h2v.32813h-2zm0 0"/></clipPath><clipPath id="p"><path d="M146 480h2v.32813h-2zm0 0"/></clipPath><clipPath id="q"><path d="M153 479h9v1.32813h-9zm0 0"/></clipPath><clipPath id="r"><path d="M160 480h3v.32813h-3zm0 0"/></clipPath><clipPath id="s"><path d="M166 480h9v.32813h-9zm0 0"/></clipPath><clipPath id="t"><path d="M173 480h3v.32813h-3zm0 0"/></clipPath><clipPath id="u"><path d="M180 479h8v1.32813h-8zm0 0"/></clipPath><clipPath id="v"><path d="M187 479h2v1.32813h-2zm0 0"/></clipPath><clipPath id="w"><path d="M193 479h8v1.32813h-8zm0 0"/></clipPath><clipPath id="x"><path d="M200 479h3v1.32813h-3zm0 0"/></clipPath><clipPath id="y"><path d="M206 479h9v1.32813h-9zm0 0"/></clipPath><clipPath id="z"><path d="M213 479h3v1.32813h-3zm0 0"/></clipPath><clipPath id="A"><path d="M220 479h8v1.32813h-8zm0 0"/></clipPath><clipPath id="B"><path d="M227 479h3v1.32813h-3zm0 0"/></clipPath><clipPath id="C"><path d="M226 479h2v1.32813h-2zm0 0"/></clipPath><clipPath id="D"><path d="M233 479h8v1.32813h-8zm0 0"/></clipPath><clipPath id="E"><path d="M240 479h3v1.32813h-3zm0 0"/></clipPath><clipPath id="F"><path d="M246 479h9v1.32813h-9zm0 0"/></clipPath><clipPath id="G"><path d="M253 479h3v1.32813h-3zm0 0"/></clipPath><clipPath id="H"><path d="M260 478h8v2.32813h-8zm0 0"/></clipPath><clipPath id="I"><path d="M266 478h4v2.32813h-4zm0 0"/></clipPath><clipPath id="J"><path d="M273 478h8v2.32813h-8zm0 0"/></clipPath><clipPath id="K"><path d="M280 478h3v2.32813h-3zm0 0"/></clipPath><clipPath id="L"><path d="M287 478h7v2.32813h-7zm0 0"/></clipPath><clipPath id="M"><path d="M293 478h3v2.32813h-3zm0 0"/></clipPath><clipPath id="N"><path d="M300 478h8v2.32813h-8zm0 0"/></clipPath><clipPath id="O"><path d="M305 478h3v2.32813h-3zm0 0"/></clipPath><clipPath id="P"><path d="M314 477h6v3.32813h-6zm0 0"/></clipPath><clipPath id="Q"><path d="M329 476h3v4.32813h-3zm0 0"/></clipPath><clipPath id="R"><path d="M340 479h8v1.32813h-8zm0 0"/></clipPath><clipPath id="S"><path d="M354 477h6v3.32813h-6zm0 0"/></clipPath><clipPath id="T"><path d="M367 477h6v3.32813h-6zm0 0"/></clipPath><clipPath id="U"><path d="M381 477h6v3.32813h-6zm0 0"/></clipPath><clipPath id="V"><path d="M393 477h8v3.32813h-8zm0 0"/></clipPath><clipPath id="W"><path d="M407 477h6v3.32813h-6zm0 0"/></clipPath><clipPath id="X"><path d="M421 477h5v3.32813h-5zm0 0"/></clipPath><clipPath id="Y"><path d="M435 476h4v4.32813h-4zm0 0"/></clipPath><clipPath id="Z"><path d="M449 476h2v4.32813h-2zm0 0"/></clipPath><clipPath id="aa"><path d="M461 476h5v4.32813h-5zm0 0"/></clipPath><clipPath id="ab"><path d="M144 466h4v2h-4zm0 0"/></clipPath><clipPath id="ac"><path d="M144 452h4v3h-4zm0 0"/></clipPath><clipPath id="ad"><path d="M144 438h4v5h-4zm0 0"/></clipPath><clipPath id="ae"><path d="M466 437h2v3h-2zm0 0"/></clipPath><clipPath id="af"><path d="M144 426h4v3h-4zm0 0"/></clipPath><clipPath id="ag"><path d="M465 424h3v2h-3zm0 0"/></clipPath><clipPath id="ah"><path d="M144 413h4v2h-4zm0 0"/></clipPath><clipPath id="ai"><path d="M466 411h2v2h-2zm0 0"/></clipPath><clipPath id="aj"><path d="M465 412h3v2h-3zm0 0"/></clipPath><clipPath id="ak"><path d="M144 399h4v3h-4zm0 0"/></clipPath><clipPath id="al"><path d="M466 398h2v3h-2zm0 0"/></clipPath><clipPath id="am"><path d="M465 399h3v2h-3zm0 0"/></clipPath><clipPath id="an"><path d="M144 386h4v2h-4zm0 0"/></clipPath><clipPath id="ao"><path d="M466 385h2v4h-2zm0 0"/></clipPath><clipPath id="ap"><path d="M144 372h4v4h-4zm0 0"/></clipPath><clipPath id="aq"><path d="M466 372h2v4h-2zm0 0"/></clipPath><clipPath id="ar"><path d="M144 358h4v5h-4zm0 0"/></clipPath><clipPath id="as"><path d="M466 358h2v3h-2zm0 0"/></clipPath><clipPath id="at"><path d="M144 343h1v8h-1zm0 0"/></clipPath><clipPath id="au"><path d="M144 343h2v2h-2zm0 0"/></clipPath><clipPath id="av"><path d="M466 345h2v3h-2zm0 0"/></clipPath><clipPath id="aw"><path d="M144 333h4v2h-4zm0 0"/></clipPath><clipPath id="ax"><path d="M466 332h2v3h-2zm0 0"/></clipPath><clipPath id="ay"><path d="M465 332h3v3h-3zm0 0"/></clipPath><clipPath id="az"><path d="M144 316h2v9h-2zm0 0"/></clipPath><clipPath id="aA"><path d="M144 317h1v2h-1zm0 0"/></clipPath><clipPath id="aB"><path d="M466 318h2v3h-2zm0 0"/></clipPath><clipPath id="aC"><path d="M465 318h3v3h-3zm0 0"/></clipPath><g id="aD" clip-path="url(#clip1)"><path fill="#fff" fill-opacity="0" fill-rule="evenodd" d="M0 0h1000v1000H0zm0 0"/><path fill="#d3d3d3" fill-opacity="0" fill-rule="evenodd" d="M162.15234 355.86719l-.23437.29297.0586.23437.11718.17188.17578.23437.29297.34766.11328.0586.11719-.17188.0586-.23438.17577-.17578.46485-.17578h.69922l.23437.29297.28906.8164.0586.17579.17578.23046.35156.23438.69922.69922.17188.17578.23437.34765.23438.41016.28906.58203.41015.46485.23047.23437.23438.17578.11719.23047.17578.29297.17187 1.16406v.23438l.0586.28906.05859.11719.11719.11719.34765.41015.11719.17188.17578.17578.17578.23437.11719.17188.17188.35156.05859.23438.23437.40625.23438-.0586-.17578.17578-.0586.92969h-.58203l-.23437-.11328-.34766.11328-.11719.11719-.05859.29297-.0586.17578-.11718.17187-.46484.29297-.0586.23438-.0586.11328v.64453l.0586.17187v.41016l.0586.0586v.40624l.05859.40625.11719.17579.05859.05859.23047.64062-.0586.29297v.69922l-.05859.58203v.23438l-.0586.23047-.05468.35156v1.92187l.05469.1172h.42578l-.36719.11718-.02344.35156.89063 1.16797 1.74219.53906 1.33984.35938v.53906l.08984.8086.53516.71484 1.51953.26953.89063-.08594.08984 1.16406.53516.1797 1.16015-.1797 2.05469-.98437 1.16016-.36328 1.8789-.17578 1.69531-.1797-.17968.71876-1.51563.08594-1.25.08984-.80469.26953-1.07421.8086.26953.71875.53515.89843-.17968.625-.26563.8086.26563 1.07812.625.89844.80468.17969 1.25-.1797-.26562.72267.09766.5039.05468.29297v.17188l.0586.29296v.40625l.17578.1172.35156.11718h.40625l.29297-.17578.11328-.11719.0586-.11719.11718-.23047.0586-.17578.35156-.46484.23047-.17578.17578-.0586.17578.0586.0586.17578.11718.98828.05469.46875.0586.17188.11718.23437.17578.0586.8164.05859h.28907l.11719.23437.05859.40625.0586.35156v1.10547l.11718.29297.11719.34766.28906.69922.17578.35156.58203.7539.35157.17579.17187.0586.46875.23437.64063.46484.34765.23438.29297.17578.29297.05468.23047.0625.8164.34766.29297.17578.11328.17188.35157.35156.11719.17578.52343.64063v.28906l.0586.35156v.34766l.05859.35156.0586.28906.11718.0586.17188.05859h.17578l.58203.23437.17578.1172.17578.28905.17578.23438.11328.23437.29297.23047.11719.11719v.41016l.0586.05468.28906.23438.23437.11719.0586.11718.11718.17188.0586.11719.23047.23437.05859.17578.23437.0586.1172.05859-.1172.11328-.05859.11719v.11719l-.11719.29296-.11719.28907v.58203l.17579.11719.11718.05859.0586.11719.11719.11719.11328.05859.17578.34765.0586.35157.05858.40625v.17578l-.05859.17578-.11719.69922v.17187l.1172.17579.29296.29296h.40625l.17578.1172.11719.17187.11719.29296v.23438h-.52735l-.23047-.23438h-.23437l-.17578.0586-.0586.69922.0586.34765.11719.17579.17578.41015.11718.23047.28907.46875.17578.05469h.52344l.23437.0586.75781.64062.0586.29296v.23438l.05859.0586.23047.34765v.35156l-.11719.17188v.29297l.29297.28906.29297.17578.17187.0586.29297.17577.29297.1172.58203.40624.28906.23438.29297.17578.21875.16015.01563.01172.23047.17579.64062.52343.17578.23438.1172.17578.17577.17578.11328.17188v.64062l.1172.17578.46874.11719.58203.11719.23438.05859.23047.11328.29297.11719.11328.0586.58593.35156.28907.17187.17578.0625.17578.05469.17578.0586.69922.35155.28906.17579.23438.05468.28906.17578.23437.1172.64063.40624.29297.11719.17187.0586.23438.05859.41015.05859.23047.0586.23438.11718.0586.17188-.41017.17578.46875.0586.0586.29296.11328.23438.17578.05468.23438.0586.17578.05859.40625.11719.64062.23437.11719.17188.0586.23437v.17578l-.0586.1172-.0586.40624.23438.23438.11719.05859.34766.11719.64062.23047.17578.11718.28906.1172.17578.17577.23438.46485.58203 1.10546.17578.17579.34766.17578.17578.11719.35156.11718 1.04688.52344.23437.0586.46485.11327.29297.0586.46484.17578.75781.58203.23438.23438.34765.46484.17578.17578.28907.23438.8164.69921.29297.17579.28906.28906.29297.17578.29297.28906.69531.64063.17578.17578.29297.23437.28907.23438.46875.28906.64062.58203.34766.23438.23437.29297.34766.34765.35156.46485.9336.99218.34765.40625.11719.17579.23437.05859.11328.11719.64454.17578.23047.11328.23437.0586.29297.17577.23047.1172.9336.69921.40624.40625.23438.17578.40625.17578.23437.11719.8164.34766.34766.23437.23438.11719.29297.28906.23047.11719.7578.35156.35157.17188.23047.05859.29297.11719.23437.0586.8711.17577h.8164l.46875.23047.17188.0586.875.69921.46484.1172.29297.05858.17578.0586.23047.0586.46875.05859.34766.05859.35156.0586.40625.05859h.29297l.17187.0586v.23046l.17578.17578h.29297l.34766.0586.35156.05859.69922.11719h.64063l.46484-.23438.29297-.17578.17187-.11719.41016-.17187.28906-.17578.9336-.46485.46875-.29297.52343-.29296.46485-.17188.46484-.17578 1.05078-.46485.28906-.11718.41016-.11719.28906-.11719.52735-.17578 1.51562-.69922.58203-.34765.28907-.0586.29297-.0586.34765-.11718.875-.23047.35156-.11719h.11329l.23437-.05859.875-.23437.23438-.0586h.8125l.35156-.0586.8164-.11718.17188-.0586.35156-.05468.29297-.0586.23047-.05859.8164-.17578.17579-.0586h.34765l.23438-.05859.46484-.11718.75781-.17188.23438-.0586h.34765l.41016-.11718.28906-.0586 1.28516-.05859h.28906l.41016-.0586.23047-.05858h.17578l.875-.1172h.40625l.41015-.11718h.34766l.35156-.11328.8711-.0586h1.75l1.04687.28907.41016.11719.28906.11718.35156.11719.28907.11719 1.05078.17187.28906.0586h.29297l.29297.05859.17187.0586.41016.05859.17187.0586.1172.05858h.11718l.11719.0586.35156.0586h.11328l.41016.0664 1.92187.39453 1.92578.39453 1.51953.44922 1.69532.71875 2.14453.80469 1.60547-.71875 1.42968-.80469 1.16016-1.07813 1.25-.44921 3.03516-.71875 1.875-.35938 2.14453-1.34765 2.23437-1.25391 2.5-1.25781 1.69531-.44922 1.78516-.17969 1.16016-.26953.625.53906 1.33984-.26953.71485-.98828.98437-1.34375.44531-.17969.80469-.35937 1.875-.53907 1.78516-.44921 1.25-.26954 1.16015-.08984 1.69922-.08984 1.96094-.26954 1.25-.08984h.53906l.625-.08984h.89063l2.14453-.17969 2.41015-.17969 2.58985-.08984 1.69531.17969 1.60938.08984 1.42968.35938 1.16016.71875 1.875.98828 1.16015 1.52734.26563.71484.6289.08985.35548.89844.53515.53906.53516 1.52734 1.07422.35938h.53515l-.80469.53515.08985 1.70703.71484 2.69532.89063.80468.89453.98829.71484 1.2578 1.78516.53907 1.51953-.17969.35547 1.34375 1.60937-.80469.98047-.53906.26953.26953.31641-.21484.21875-.14453.80078.44922.44922-.35938h.35547l.53515-.26953.53907-.71875.53515-.26953.625-.98828 1.16016.44922.83984.3711 1.39454.61718 1.6953-.17969h1.60548l1.78515.08985.17969-1.70704.53516-1.34375.80468.26954.4922.84765.40233.40625-.08984.53906v.35938l.71485.44922.71093-.26953h1.42969l.35938.98828.4453 1.25781.71485 1.34375 1.25.6289 1.69531.62891.71485-.17969.17969-.53906.98046-.08984.44922.35937.08594 1.25782-.26563.6289-.53515.17969v.53906l.71484.98438.26563.53906.98437.98828.80078 1.07813-.26562.35937-.08985.89844-.625 2.33203-.35546 2.0664-.08985 1.79298-.17969.71875-.08984.53906v1.4375l-.98047 1.88281-.35937 1.70703-.53516.89844-.80469 1.16797-.26562.53906 2.05469 1.2539.08593.35938-.35546.53906-.08985-.17968v.80859l.08985 1.4375-.44532.71484-1.07422.09375-.26562.71485.53515.89844.8047.71875 1.16015.80859 1.33984.26953.44531.35938-.35546.44921-1.78907-.08984-1.25-.44922-.71484-.71875-.625-.08984-.17578 3.58984-.1875 1.3086h89.35937V311.70313h-55.26953v49.08203l.76172.125 3.28906.54296 2.02344 2.83594v2.7539l2.35156.33204 2.34766.33203h4.05078l-1.3789 4.16016-2.02344.70703-2.02344.70312-.54297.34375-2.59375 1.6172-.1875.11718-2.02344-2.07813-.73046-2.74218-2.67188-2.07813-1.375-3.5-.0664-.08203-1.95704-2.67188 2.75-1.41796v-49.08204H294.42187v91.41407l.1172.03125.1328.01172.07422.07421.10547.04688.08985.0586.08593.05859.08985.0586.29687.29687.0586.08984.03125.11719.02734.11719.01563.13671-.03125.1172-.0586.08983-.0586.08594-.04296.10547-.04688.10156-.02734.1211v.14453l.17578.26953.14844.14844.07422.08594.07422.07421.04296.10547.0625.08985.0586.08593.04297.10547.0586.08985.04687.10156.04296.10547.0586.08594.11719.17968.07421.07422.0625.08594.0586.08984.04297.10547.0586.08985.05858.08593.0625.08985.0586.08984.04297.10156.11719.17969.07421.07422.0586.08594.07422.07421.08984.0586.10547.04687h.14844l.1328-.01562.13282.01562.10156-.04687.07422-.07422.04688-.10156-.01563-.13281v-.14844l-.04687-.10547-.02735-.11719-.04687-.10156-.02735-.1211-.04296-.10156-.0625-.08984-.04297-.10156-.04297-.10547-.03125-.11719-.01563-.13281-.01171-.13672.08593-.0586.0586-.08593.12109-.03125.04297.10547.01562.1328v.1172l.0586.10156.0586.08984.08983.0586.14844.14843.0586.08985.04296.10547-.01171.10156.08593.0586.10547.04687.08594.0586.08984.05858.07422.07422-.11719.02735-.10546.04687-.08594.0586-.07422.07421-.0586.08985-.0625.08594-.02734.12109-.04687.10156-.04297.10547-.03125.11719-.01172.13281-.01563.13281v.14844l.02735.11719.04687.10547.04297.10156.0586.08984.07421.07422.08985.0586.07422.07421.08984.0586.0586.08984.04296.10547.04688.10156.11719.03125.1328.01563h.14845l.11718-.03125.10547.04297.04297.10547.04688.10156.02734.1211L299.5 410l.02734.11719.03125.1211.02735.11718.10547.04297.10156.04687.13281-.01562.14844.14844.0625.08593.07422.07422.07031.07422.08984.0625.10547.04297.10156.04297.1172.03125.13671.01562.11719-.03125.07422-.07422.02734-.11718-.01172-.13282-.03125-.12109-.02734-.11719.04297-.10547h.11719l.08984.0625.11719.02735h.14843l.13282.01562h.14843l.13282.01563.1328-.01563h.14845l.1328-.01562.13282-.01172.13672.01172.11719-.02735.13281-.01562.1914-.0586-.05859.17579-.01562.1328-.02735.1211-.01562.13281-.0586.08594-.1328.01563-.10548.04687-.10546.04297-.1172.03125-.11718.02735-.26563.03125h-.14843l-.13281.01562-.07422.07422.05859.08594.14844.14843.11719.1797.07421.0703.08985.0625.08984.0586.08594.0586.08984.05858.10156.04297.10547.0625.10547.04297.08594.0586.10547.04687.10156.04297.17969.11719.0586.08984-.04298.10156-.04687.10547.01562.13281.22266.22266.0586.08985.04296.10156.03125.1211.04297.10155.01563.13282.03125.11718.01171.13672.03125.11719.14844.14844.10156.04297.10547.04296.1172.03125.1328.01563.13672.01563h.11719l.11719-.03125.08984-.0586.04297-.10547.04688-.10156.04296-.10547.03125-.11719.01172-.1328v-.14845l-.01172-.1328-.01562-.13282-.03125-.11719-.04297-.10547-.04688-.10547-.04296-.10156-.04297-.10547-.01563-.13281.01563-.13281.02734-.11719.03125-.11719.02735-.1211.04687-.10155.08984-.0586.08594-.0625.07422-.07422.08984-.05859.22266-.22266.0586-.08593.07421-.07422.11719-.17969.0586-.08594v-.14844l-.07423-.07421-.10156-.04688-.10547-.04297-.10156-.04297-.0586-.08984-.04687-.10547-.02734-.11719.08984-.05859.11719-.03125.10156-.04297.17969-.11719.14844-.14843.01172-.13282-.01172-.10546-.08985-.0586-.1328.01563h-.14845l-.1328.01562-.13282-.01562-.1211-.03125-.08593-.0586-.07422-.07422-.0586-.08984-.0625-.08594-.11718-.17969-.0586-.08593.03125-.1211.08594-.05859.1211-.03125.05859-.08594v-.1211l-.03125-.11718-.0586-.08984-.05859-.08594-.04687-.10547-.02735-.11719-.01562-.1328.0586-.08985.07421-.07422.08984-.0586.1172-.17968.07421-.07422.0586-.08594.14843-.14844.1211-.03125.1328-.01562.13282.01562.07422.07422.04297.10547.01562.13281-.03125.1172-.11719.03124-.1328.01172-.14844.14844-.04297.10547-.04688.10156-.02734.1211-.03125.11718v.14844l.03125.11719.04297.10546.05859.08985.07422.07031.07422.07422.11719.03125.12109.02734.11719-.02734.1328-.01563h.1172l.08984.0586.07422.07422.04687.10546.0586.08594.10156.04688.13281.01562.10547.04297.08594.0586-.01172.10546-.07422.07422-.17969.11719-.05859.08984-.08984.0586-.07032.07422-.07421.07421-.0625.08985-.02735.11719-.01562.1328.01562.13282-.01562.13281v.14844l.01562.13281.02735.1172.03125.12108.07421.07422.08985.0586.08594.0586.08984.05858.11719.03125v.08594l-.10157.04688-.08984.0586-.26563.03124-.11718.02735h-.14844l-.10547.04296-.10156.04688-.0586.08984-.0625.23438-.01171.13281-.03125.1211-.01563.1328v.29298l-.01172.1328.01172.13673.01563.1328.1328.01563.13282.01172.1211.03125.08593.0586.07422.07421.04688.10547.04296.10157.01563.1328v.44532l-.01563.13281v.44532l.03125.26562.02735.11719.01562.13281.03125.11719.08594.21094.03125.26562v.14844l-.03125.11719-.02734.11718-.03125.1211-.02735.11719-.03125.11718-.03125.1211-.01171.1328-.01563.13282.08984.0586.1172-.03125.10155.01562.04688.10547-.03125.26562v.44141l-.04297.10547-.04688.10547-.04296.10156-.04297.10547-.0586.08594-.03125.12109-.04296.11719-.03125.11719-.01563.1328.01563.13282.05859.08984.10547.04688.08594.0586.05859.08593-.01172.13672-.03125.11719-.04297.10156v.44531l-.01562.13281v.14844l-.03125.11719-.04297.10547-.02735.11719-.04687.10546-.04297.10157-.03125.12109-.02734.11719-.03125.13281-.03125.11719-.02735.11719-.04297.10546-.03125.1172-.03125.12108-.01171.13282-.01563.13281v.29688l.02734.11718v.14844l.04688.39844.02734.11719.0586.08984.12109.03125h.14844l.13281-.01563.0586.08985v.11719l-.0586.08984-.08984.0586-.10157.04296-.10546.04688-.08985.05859-.08594.0586-.13671.01562-.1172-.03125-.1328-.01563-.10157.04688-.0625.08594-.01172.13671-.01562.13282-.03125.11719-.02735.11718-.01562.13281-.03125.1211v.29687l.01563.13282.03125.11718v.14844l.01171.13281v.14844l-.02734.11719-.04688.10156-.02734.1211-.03125.11718-.0586.08985-.07421.07421-.10156.04297-.10547.04688-.11719.02734-.1211.03125-.10156-.04687.0586-.08594.10547-.04688.02734-.11718.03125-.11719.02734-.1211.03125-.11718v-.14844l.01563-.13281-.03125-.11719-.04297-.10547-.10547.01563-.07422.07422-.10156.04296-.08984.0625-.07422.07422-.04297.10157-.01563.1328-.03125.1172L304.25 426l-.03125.11719-.02734.11719-.03125.12109-.02735.11719-.03125.11718-.04297.10547-.08984.0586h-.08984l-.1172-.03125-.03124-.08594.01562-.13672-.03125-.11719v-.14844l-.01171-.1328v-.14844l-.0625-.23438-.02735-.1211-.04297-.10156-.04687-.10546-.0586-.08594-.05859-.08985-.04297-.10546-.0625-.08594-.14844-.14844-.0703-.07422-.10548-.04687-.10547-.04297-.10156-.04297-.29687-.29688-.08985-.07421-.08594-.0586-.10546-.04297-.08985-.0625-.08594-.0586-.10546-.04296-.08985-.0586-.08594-.0625-.07421-.0703-.10547-.04688-.08594-.0586-.10547-.04296-.08984-.0625-.10156-.04297-.10547-.04297-.08594-.0586-.10547-.04687-.10547-.04297-.10156-.04687-.08985-.0586-.10156-.04297-.10547-.04296-.08984-.0625-.11719-.02735-.13281-.01562-.13281.01562H299.75l-.13281.01563-.11719-.03125-.08984-.0586-.07422-.07422-.08985-.05859-.10156-.04688h-.14844l-.12109-.02734-.10156-.04297-.07422-.07422-.11719-.17968-.08984-.0586-.10156-.04297-.08985-.0625-.10547-.04296-.08984-.0586-.08594-.0586-.10547-.04687-.0586-.08594-.05858-.08984-.04297-.10547-.04688-.10156-.07422-.07422-.08594-.0586-.07421-.07421-.08985-.0586-.22265-.22265-.04297-.10547-.03125-.26563.10547-.04296h.14453l.10547.04296.07421.07422.08985.0586.08594.0586.10546.04687.08985.05859.14844.14844.0703.07422.14845.14843.0625.08594.07421.07422.08594.0586.07422.07421.08985.0625.08984.0586.08594.05859.26953.17578.10156.04688.10547.04296.10156.04297.04688-.07421.05859-.08594.07422-.07422.07031-.07422.10547.04297.07422.07422.0586.08984.04296.10156.04688.10547.04296.10547.1211.02735.11719-.02735.07421-.08984.04297-.10547.0586-.08985.07422-.07421.10546-.04297.1172-.02735.1328.01172.08985.0586.14844.14843.05859.08985.04297.10547.04687.10156.04297.10547.04297.10156.10547.04688.10547.04296.13281.01563.08594-.0586.0586-.08984.07421-.07422.10547-.04297.11719.02735.10547.04687.10156.04297.10547.04297.10156.04688.17969.11718v.11719l-.01563.13281.01563.13281.01562.13672.0586.08594.10156.04688.1211.02734.11718.03125h.14844l.11719-.03125.05859-.08984.17969-.1172.05859-.08983.07422-.07422.0586-.08594.11718-.17969.17969-.11719.11719.03125.08984.0586.04297.07422-.01563.1328v.1172l.08985.05859h.14843l.13282-.01563.1328-.01171.26563-.03125.10547-.04297.11719-.03125.1211-.02735.07421-.07421.07031-.07422.0625-.08985-.01562-.10547-.04688-.10156-.10156-.04297-.10547-.01562-.11718.02734-.26563.03125h-.14844l-.07421-.07422-.08985-.0586-.11719-.03124-.11718-.02735-.13282-.01562h-.14843l-.13282.01563h-.29687l-.10547-.04688-.14844-.14844-.04297-.10156-.05859-.08984.22266-.22266.08593-.0586.10547-.04296.11719-.03125.13281-.01563.13281.01563.13672.01562.10157.04297.1328-.01172.08985-.0625.10156-.04297.0625-.08984-.04687-.10156-.08984-.0586-.1172-.03125-.10155-.04296-.0586-.08985-.0625-.08984v-.11719l.01563-.13281.10547-.04688.07421-.07031v-.1211l-.08984-.05859-.03125-.11719.08985-.05859.07421-.07422.04297-.10547.0586-.08984.04687-.10156.01563-.13281v-.14844l-.04688-.10547-.04297-.10156-.08984-.0586-.13281-.01562-.10157-.04297-.13671-.01563-.1172-.03125h-.4453l-.13282-.01562-.13281-.01172-.13281-.01563-.11719-.03125h-.14844l-.13281-.01562-.13281-.01172-.26563-.03125-.1211-.04297-.08593-.0586-.07422-.07421v-.14844l.01172-.13281.10547-.04688.10156-.04296.13281-.01563h.15235l.13281-.01562h.29297l.1211.03125.10156.04296.08984.0586.23438.0625.12109-.04688.08984-.05859.10156-.04297.13282-.01562.10547.04296.10156.04688.13281.01172.1211-.02735h.14453l.12109-.03125.11719-.02734.10547-.04687.07421-.07422.08594-.0586.14844-.14843.0586-.08594.04687-.10547.02734-.11719.01563-.10547-.10156-.04296-.08985-.0586-.11719-.03125-.10546-.04297-.08985-.0625-.07422-.08594-.07422-.07421-.10156-.04297-.10547-.04688-.10156-.04297-.0586-.08984-.04687-.10156-.08594-.21094-.0625-.08594-.05859-.08984-.07422-.07422-.08594-.0586h-.26953l-.11719.03126-.08984.05859-.10156.04297-.13281.01562-.10547-.01562-.02735-.11719-.0625-.08984-.11718-.03125-.10157-.04297-.14843-.14844-.03125-.11719-.01563-.10546.07422-.07422.17969-.1172.11719-.02733.11718-.03125.13672.01562.10156.04297.10547.04297.10156.04687.10547.04297.1172.03125.1328.01563.1172.02734.1328.01563.10547-.01563.08985-.0586-.07422-.07421-.10547-.04297-.07422-.07422-.07422-.08984-.14844-.14844-.08593-.0586-.08985-.05859-.07422-.07422-.08984-.0586-.10156-.04687-.1211-.02734-.10156-.04688-.10547-.04296-.11719-.03125-.10156-.04297-.1211-.03125h-.14843l-.11719.03125-.10546.04297-.08594.0625-.17969.11718-.08594.0586-.08984.0586-.10547.04687-.08594.05859-.10547.04297-.10156.04297-.10547.04687-.07422.07422-.05859.08985-.0586.08593-.04687.10547-.0586.08594-.07421.07422-.13281-.01172-.1172-.03125h-.11718l-.07422.07422-.08984.0586-.07422.07421-.08984.0586-.08594.05859-.10547.04687-.10156.04297-.13672.01563-.10156-.04297-.14844-.14844-.10547-.04688h-.08594l-.10547.04688-.10156.04297-.1211.03125-.11718-.03125-.07422-.07422v-.11719l.03125-.1211.07422-.0703.0586-.08985.07421-.07422.11719-.03125.10547-.04296h.29297l.13281-.01563.13672-.01563.10156-.04296.08985-.0586.10156-.04687.08984-.0586.13281-.01171.08985.05859.13281.01172.08984-.0586.08594-.05859.10547-.04297.08984-.0586.08594-.0625.08985-.05859.14843-.14843.0586-.08594.05859-.08985.10547-.04296.13281-.01563.11719.02735.1211.03125.05859-.0586.05859-.08984.03125-.26563.02734-.11719.10547.01172.13281.01563.10157-.04297.08984-.0586.0586-.08984.07421-.07422.0586-.08984.04687-.10156.01172-.13281-.01172-.13282-.04687-.10547-.14844-.14843-.0586-.08985-.05859-.08594-.04297-.10546v-.44532l.01563-.1328v-.14845l.01172-.1328-.0586-.0586-.08984.0586-.10156-.04298-.17969-.11719-.08594-.05859-.0625-.08984-.0586-.08985-.07421-.07421-.08594-.0586-.1211.03125-.10155.01172-.10547.04688-.08594.05859-.10547.04297-.14844.14844-.08984.05859-.08594.0586-.08984.0625-.10547.04296-.13281.01563v-.1211l.10547-.04297.11718-.03125.07422-.0703.04297-.10548v-.14844l-.02734-.11718-.14844-.14844-.13281-.01563h-.14844l-.11719.03125-.10547.04297-.10156.04297-.08984.0625-.11719.02735-.07422-.07422.01172-.13281-.04297-.10157-.04297-.10547-.08984-.05859-.11719.02734-.1211.03125-.11718.03125-.10156.04297-.1211.03125-.10156.04297-.10547.04297-.08984.0586-.10156.01562v-.11719l.01562-.13281-.0586-.08985-.07421.04297-.14844.14844-.0586.08985-.07421.07421-.04688.10547-.04296.10156-.07422.07422-.0586.08985-.07422.07422-.05859.08593-.07422.07422-.08984.0625-.07422.07031-.07422.07422-.10156.01563-.13281.01562-.10547-.04296v-.1211l.14843-.14844.04297-.10156.0586-.08984.04687-.10156.04297-.10547.0586-.08985.03124-.11719.04297-.10156.03125-.1211.02735-.11718.04687-.10547.04297-.10156.04297-.10547.07422-.07031.08984-.0625.08985-.0586.10156-.04296h.29687l.26563-.03125.10547-.04297-.07422-.07422-.11719-.03125-.10547-.04297-.08984-.0586-.10156-.04687-.08985-.0586-.10156-.04296-.10547-.04297-.08984-.0625-.08594-.0586-.10547-.04296-.10156-.04297-.1211-.03125-.11718-.03125-.10157-.04297L297.5 410.25l-.10156-.04297-.08985-.0586-.04296-.10546-.01563-.13281.10156-.04297.13281-.01563.13672.01563.13282-.01563.10156-.04297.0586-.08984.01562-.10547-.08985-.0586-.07421-.07421-.10157-.04297-.08984-.0586-.14844-.14843-.04297-.10547-.01562-.13281v-.29297l-.0586-.08985-.08984-.05859-.07422-.07422-.04297-.10547-.03125-.11718-.0586-.08985-.07421-.07422-.11719-.02734-.07422-.07422-.08984-.0586-.08984-.0625-.08594-.05859-.07422-.07421-.0586-.08594-.04687-.10547-.08594-.0586-.14843-.14843-.19532-.0586-.1328.01563-.10157.04297-.07422.07422-.04688.10156-.04296.10547-.0586.08984-.0586.08594-.29687.29687-.08984.0586h-.08594l-.0625-.08594-.04297-.10547.03125-.11719.0586-.08984.02734-.11719-.01172-.13281-.08984-.0625-.10547.04688-.11719.02734-.11719.03125-.26953.17578-.10156.04688-.11719.02734-.10546.04687-.08985.0586-.10156.04297-.0586-.08594-.04687-.10547.01563-.13281.04687-.10547.07031-.07422.07422-.07031.0586-.08985v-.14843l-.04297-.10547h-.23829l-.10156.04687-.03125.11719-.02734.11719-.03125.1211-.07422.04296-.13281.01563-.07422-.04688-.04297-.10156-.04297-.10547-.04687-.10156-.04297-.10547-.1211.03125-.10156.04297-.13281.01562-.11719.03125-.10547.04297-.08984.0586-.10156.04687-.1211.02734-.13281.01563-.10156-.04297-.0586-.08985-.04687-.10546-.04297-.10157-.04297-.10546v-.1172l.0586-.08984.08593-.05859.17969-.11719.10156-.04687.10547-.04297.10547-.0586.10156-.04296.08985-.0625.10156-.04297.10547-.0586.10156-.04687.08984-.0586.10547-.04296.10156-.04297.08985-.0625.10156-.04297.13672-.01563.11719.03125.10156.04297.1211.03125.10156.04297.10546.04688.10157.04296.10547.04297.10156.04688.10547.04297.10156.04297.10547.04687.08594.0586.10546.04296.1172.03125.10546.04297.10156.04688.08985.0586.10547.04296.10156.04297.10547.04687.11719.02735.10156.04687.1211.02735h.14843l.08594-.0586.01562-.10156.0586-.08984-.02735-.1172-.07422-.07421-.11719-.17969-.07421-.07422-.08985-.07421-.17969-.1172-.08593-.05859-.10547-.04296-.10156-.04688-.26954-.17578-.05859-.08985-.07422-.07421-.0586-.08985-.04296-.10156-.03125-.11719-.01563-.13672v-.5625l-.01171-.1328-.01563-.13282-.03125-.11719-.01562-.13281-.01172-.13281-.03125-.1211-.22266-.22265-.0586-.08594-.01562-.10547.03125-.11719.13281-.01562v-91.41406H172.9922v1.45312l-.0586.23438-.35156 1.05078-.17187.52343-.1172.34766-.17577.41016-.11719.17187-.23438.29297-.23046.0586h-.35157l-.11718.05859-.23047.40625v.29297l.11719.17578.23046.23047.1172.23437.64062.75781.29297.46485.17578.23437.23047.35156.23437.34766.64063.8164.17578.46485.17187.41016.11719.69531.17578.46875.11719 1.39844.0586.46484v.875l.11718 1.04688v4.78125l-.0586.46484-.35156 1.28125-.17578.52344-.11328.41015-.35156.9297L172.93359 336l-.23437.58203-.11719.17578-.17187.34766-.17578.40625-.35157.8164-.0586.29297-.11327.29297-.11719.28906-.0586.17579-.11718.875-.0586.40625-.05859.11718-.0586.17579-.05859.17187-.23047.52734-.11718.17188v.23437l-.11719.23438-.0586.17187-.17577.58594v.28906l-.0586.17579v.29296l-.0586.11329-.05859.52734v.17187l-.05468.23438v2.6211l-.17578.8164-.1172.17578-.17577.23438-.1172.17187-.11327.23438-.58594.93359-.23047.28906-.29297.46485-.17578.23437-.28906.35156-.35156.69922-.11328.23047-.17579.41016-.17578.23046-.40625.52735-.8164.69922-.29297.17187-.28906.23438-.17579.11719-.17578.17578-.52344.40625-.52734.17578-.17187.17578-.23438.05469-.64062.17578h-.75782m12.21094 31.02344l-1.07422.44921.35938.89454 1.25-.71485.44531-.53906-.98047-.08985"/><path fill="#d3d3d3" fill-opacity="0" fill-rule="evenodd" d="M201.50781 416.59766h-.89453l.44922.6289.98047.35938.80469-.08985.4453-.98828-.17577.08985-.71485-.35547-.89453.35547m154.6211 59.0703l-.0586-.52343v-.29297l.11328-.29297.0586-.23046.46875-.46875h.11328l.11719-.11329.11718-.05859h.17579l.23437-.0586h.34766l.23437.0586.11719.0586.23047.17187.0586.17578.11718.58203v.29297l-.11719.17578-.17187.28906-.17579.17579-.52734.52343-.23047.23438-.11719.0586h-.17578l-.11718-.0586-.40625-.29297-.17579-.11719-.11718-.0586-.0586-.11327-.05468-.1172m6.64062-10.95702l-.0586-.17188v-1.10937l.0586-.17188.17578-.0586.17188-.05858h.17578l.23437-.0586.1172.0586.05858.69921-.05859.17188-.11719.17578-.11718.0586-.23438.52343-.11328.0586h-.23438l-.05859-.1172m9.61328-14.39062l-.11719-.17578v-.69922l.29297-.875.1172-.17187.17577-.35156.11328-.23047.1172-.29297.35155-.75781.1172-.23047.17187-.23438h.17578l.11719-.0586h.64062l.11719.0586.23437.23438.17188.11328.35156.29297.11719.11718.11328.17579v.11328l.11719.05859.11718.11719v.69922l-.05859.17578v.23047l-.0586.17578-.34765 1.05078-.11719.23047-.11719.23437-.11718.0586-.23047.23437-.64063.28906h-.875l-.41015-.11718-.64063-.46485"/><path fill="none" stroke="#bebebe" stroke-linecap="round" stroke-linejoin="round" stroke-miterlimit="10" stroke-width=".5" d="M467.95703 311.69531H144.02734v168.625h323.9297v-168.625"/><g clip-path="url(#a)"><path fill="#fff" fill-opacity="0" fill-rule="evenodd" d="M144 475.89063v4.4375h.0039H144v-39.08985 34.65235"/></g><g clip-path="url(#b)"><path fill="#fff" fill-opacity="0" fill-rule="evenodd" d="M144 431.50781v.38281-120.21875h.0039H144v119.83594"/></g><path fill="#50fcfc" fill-rule="evenodd" d="M144 436.80078v4.4375l.0039.0039v-4.4453l-.0039.0039"/><path fill="#00e8fc" fill-rule="evenodd" d="M144 435.25v1.55078l.0039-.0039v-1.54297L144 435.25"/><path fill="#50fcfc" fill-rule="evenodd" d="M144 431.89063V435.25l.0039.0039v-3.35937l-.0039-.0039"/><g clip-path="url(#c)"><path fill="#fff" fill-opacity="0" fill-rule="evenodd" d="M144.0039 480.32813v-39.08594l4.4336 1.32812 4.4375-.69531 4.4414-1.36719.36329 4.3125-.1914 4.4414-.14845 4.4375.52735 4.4375 3.88672 3.75782 4.4375-.27344 4.4375-.375 4.4375-.53125 4.4414.48829 4.4375.91796 3.7461.45313.6914.21484 4.4375 2.08985 4.20703-2.3047.23438-.09765 4.4375-.0586 4.4375-.39062 4.4375.38282 4.42187-4.27344.01953-.03906 4.4375-4.00391 4.4375 1.3086 1.78907-1.70313 2.64844-1.28125 4.125-3.15625.3125-.15235 4.4414-.30468 4.21094-3.98438.22656-.09765 4.4375-.64844v3.85156l-1.88281 1.33594 1.88281 2.21875 1.36328-2.21875-1.36328-1.33594v-3.85156l4.32422-3.6914.11328-.57032 4.4375.11719 4.4414-.66797 3.2461-3.3164 1.1914-1.96485 3.36329-2.47266-3.36328-3.1836-4.4375-.28905-4.4414-.4336-4.4375 1.17578-3.83985 2.73047-.59766.07031-.10547-.0703-1.3125-4.4375-3.01953-1.40235-2.49219 1.40234-1.9453.08594-4.44142.14063-.24218-.22657-4.19531-3.98828-1.47266-.45312-2.96484-2.73829-4.4375-1.40625-4.4375.30079-.41797-.59375-4.02344-3.51172-1.48047-.92578-2.95703-3.51954-1.08594-.91796-3.35156-3.44141-2.16797 3.4414-1.69922 4.4375 3.86719 4.23048.52734.20703 2.38672 4.4375-2.91406.9414-.98438-.9414-3.45312-4.29297-.1875-.14453-4.2539-1.69532-4.4375 1-.98048.69532-3.45703 1.24609-4.4375.86719-2.7539 2.32422-1.6875.65625-4.4375.625-3.51563 3.16015-.92187.47656-4.4375 1.17579-3.07422 2.78515-1.36328 4.15625-.88282.28125-3.55859 1.6289-4.4375.13282-1-1.76172-3.4336-4.05078V311.67188h80.95313l3.3711 3.37109 4.4375.125 3.5039-3.4961h40.88281V425.875l-1.41015 1.19531-3.03125.92969-3.55469 3.50781 3.55469 2.73828 4.4414.21485 1.53516 1.48437 2.90234 2.86719 4.40625-2.86719-4.09765-4.4375-.3086-.66015-2.92968-3.77735-1.50782-1.19531V311.67187h17.75v146.1875l-.59375.27735.59375.15625 1.1172-.15625-1.1172-.27735v-146.1875h8.87891v142l-.01953.02735.01953.05469.1836-.0547-.1836-.02733v-142h8.875v136.78906l-.32422.80078.32422.6875.26563-.6875-.26563-.80078V311.67188h8.8789V434.6953l-4.4375 1.10938-.16796.14062.16797.3164 3.03125 4.1211 1.40625 1.73828 1.53906-1.73828 2.89844-3.50781.79687-.92969-.79687-.90625-4.4375-.34375V311.67187h53.2578v136.42579l-3.95702 1.16406 3.95703 1.03515 4.28125 3.40235.16015.20312.46094-.20312-.46094-.30469-2.77734-4.13281-1.66406-1.16406V311.67187h13.3164V455.1797l-1.71484 2.95703-.51562 4.4375-2.20704 4.14062-.11328.30079-.28906 4.4375.40235 1.48437 4.4375.60156 3.17968-2.08594-1.71094-4.4375.3047-4.4414-.13673-4.4375-1.63671-2.95703V311.67188h79.88671v162.5664l-1.65625 1.65235-2.77734 2.07421-2.35938 2.36329h-8.61718l-2.33985-2.02735-2.02734 2.02735h-48.9336l-2.30077-2.625-4.4375-1.58594-4.4375.20312-3.96094 4.00781H144.0039"/></g><path fill="#50fcfc" fill-rule="evenodd" d="M148.4375 442.57031l-4.4336-1.32812v-4.44531l.58594-.85157-.58593-.6914v-3.35938l3.43359 4.05078 1 1.76172 4.4375-.13281 3.5586-1.6289.8828-.28126 1.36329-4.15625 3.07422-2.78515 4.4375-1.17579.92187-.47656 3.51563-3.16015 4.4375-.625 1.6875-.65625 2.7539-2.32422 4.4375-.86719 3.45703-1.2461.98047-.6953 4.4375-1 4.2539 1.6953.1875.14454 3.45313 4.29297.98438.9414 2.91406-.9414-2.38672-4.4375-.52734-.20704-3.86719-4.23046 1.69922-4.4375 2.16797-3.44141v4.24219l-2.4414 3.63672 2.4414 2.67187 3.91406-2.67187-3.91406-3.63672V405.875l3.35156 3.4414 1.08594.91798 2.95703 3.51953 1.48047.92578v2.39062l-4.21875 1.1211 4.21875 3.28515 1.28516-3.28515-1.28516-1.1211v-2.39062l4.02344 3.51172.41797.59375 4.4375-.30079v1.1875l-4.41797 2.95704-.01953.03906-4.44141.69922-4.4375 1.26172-2.97266 2.4414-1.46484 2.39063-4.4375.21484-2.6875-2.60547-1.7539-2.26562-4.4375-.9336-3.33595-1.24218-1.10156-.30079-1.19922.30079-3.23828.77734-4.4414 1.375-4.4375 1.1875-1.22266 1.10156-3.21484 1.66016-4.4375 2.67969-.10547.09765-3.04297 4.4375.27734 4.4375.27344 4.4375-.58594 4.4414-.26953 4.4375 1.41797 4.4375 2.03516 1.96485 4.4375-.39062 4.32812-1.57422.10938-.0586 4.4375-2.51562 4.27734 2.57422.16406.0586 4.4375 1.28124 1.6836-1.33984 2.7539-2.66016 4.4375.1914 1.63672 2.46876 2.80469 1.84765 4.4375.21485 4.4375-.3086 3.83203-1.7539-1.15234-4.4375 1.7578-1.1836 4.44142-2.875.85546-.3789 3.58203-.64844 4.4375.35938 4.4375-.63672 4.4375-1.80469 4.44141-.3086 1.48047-1.40234 2.95703-1.32031 4.4375-.63281 2.90625-2.48438 1.2461-4.4375-4.15235-3.78125-.9414-.65625-3.4961-3.75-4.4375-.11719-4.4414.66016-1.31641-1.23047-3.1211-2.96875-4.4375-1.32422-.18359-.14843-4.2539-2.95704v-1.1875l4.4375 1.40625 2.96484 2.73829 1.47266.45312 4.1953 3.98828.2422.22656 4.4414-.14062 1.94531-.08594 2.4922-1.40234 3.01952 1.40234 1.3125 4.4375.10547.07031.59766-.0703 3.83984-2.73048 4.4375-1.17578v1.3789l-3.99219 2.52735.03516 4.4375 3.95703 3.13672 4.4414-1.6914 1.41407-1.44532.1211-4.4375-1.53516-.3086-4.4414-2.21874v-1.3789l4.4414.43359 4.4375.28906 3.36328 3.1836-3.36328 2.47265-1.1914 1.96484-3.2461 3.3164-4.4414.66798-4.4375-.11719-.11329.57031-4.32422 3.6914-4.4375.64845-.22656.09765-4.21094 3.98438-4.4414.30469-.3125.15234-4.125 3.15625-2.64844 1.28125-1.78906 1.70312-4.4375-1.30859-4.4375 4.0039-.01954.03907-4.42187 4.27344-4.4375-.38282-4.4375.39063-4.4375.0586-.23438.09765-4.20703 2.30469-4.4375-2.08985-.6914-.21484-3.7461-.45313-4.4375-.91796-4.4414-.48829-4.4375.53125-4.4375.375-4.4375.27344-3.88672-3.75781-.52735-4.4375.14844-4.4375.1914-4.4414-.36327-4.3125-4.44141 1.36718-4.4375.69531"/><path fill="#00e8fc" fill-rule="evenodd" d="M144.58984 435.94531l-.58593.85156v-1.54296l.58593.6914m15.12891 22.1914l-1.41797-4.4375.26953-4.4375.58594-4.4414-.27344-4.4375-.27734-4.4375 3.04297-4.4375.10547-.09765 4.4375-2.6797 3.21484-1.66015 1.22266-1.10156 4.4375-1.1875 4.4414-1.375 3.23828-.77734 1.19922-.30079 1.10156.30079 3.33594 1.24218 4.4375.9336 1.7539 2.26562 2.6875 2.60547 4.4375-.21484 1.46485-2.39063 2.97266-2.4414 4.4375-1.26172 4.4414-.69922.01954-.03906 4.41797-2.95704v1.98438l-1.46094.97266 1.46094 3.8828.33203.5586-.33203.3125-4.4375 2.5-4.44141-.625-4.4375-.57812-1.9336 2.82812-2.5039 2.30469-4.4375.45313-2.08594 1.67968-2.35547 3.55078-1.11328-3.55078-2.42578-4.4375-.89844-.8789-1.34375.8789-3.09375.8164-2.07422-.8164-2.36328-2.76172-4.4414-1.23828-4.4375 2.29688-4.4375.90234-1.30078.80078-3.13672 3.10547-.9336 1.33203.6914 4.4375.10938 4.4375-1.24218 4.4414-.48047 4.4375 1.85547 3.4297 4.4375-.83594 4.18359-2.59375.2539-.10547 4.4375-1.6289 4.375-2.70313.06641-.07813 4.4375-1.6953v5.20312l-4.4375.11328-2.32422.89453 2.32422 4.23437 4.4375-2.53906 1.60156-1.69531-1.60156-1.00781v-5.20313l4.4375 1.08985 4.10938.68359.32812.09375.11719-.09375 4.32422-3.44531v7.5664l-.49219.3164.49219.2422.0625-.2422-.0625-.3164v-7.5664l.9375-.9961 3.5-1.9375v8.69531l-1.875 2.1211 1.875 2.78906 2.13281-2.78906-2.13281-2.1211v-8.6953l4.4375-.00391 4.2539-2.4961.1836-.29687 4.4414-3.11328 1.3672-1.02735 3.0703-1.14453 4.4375-1.05078v10.22266l-1.51562.84765 1.51563.38672.77734-.38672-.77734-.84765V433.75l3.49609-2.24219.9414-1.14453v3.64063l-4.05078 1.9414 4.05078 2.23828 1.44141-2.23828-1.4414-1.9414v-3.64063l.98046 1.14453 2.96485 4.4375.4375 4.4375.05469.03906 4.4414 1.90625 4.4375-.86718 4.4375-.60938.55078-.46875 2.53516-4.4375-3.08594-2.8125-2.33594-1.625-2.10156-2.2539-4.4375-.8086-4.4414 1.52735-3.10157-2.90235-1.33594-1.26953-4.4375-.72265-3.03515-2.44922-1.40234-.97266v-1.98438l4.2539 2.95704.1836.14843 4.4375 1.32422 3.12109 2.96875 1.3164 1.23047 4.44141-.66015 4.4375.11718 3.4961 3.75.9414.65625 4.15234 3.78125-1.24609 4.4375-2.90625 2.48438-4.4375.63281-2.95703 1.32031-1.48047 1.40235-4.4414.30859-4.4375 1.80469-4.4375.63672-4.4375-.35938-3.58204.64844-.85547.3789-4.4414 2.875-1.75781 1.1836 1.15234 4.4375-3.83203 1.7539-4.4375.3086-4.4375-.21485-2.80469-1.84765-1.63672-2.46875-4.4375-.1914-2.7539 2.66015-1.6836 1.33984-4.4375-1.28125-.16406-.0586-4.27734-2.57421-4.4375 2.51563-.10938.05859-4.32812 1.57422-4.4375.39062-2.03516-1.96484"/><path fill="#00d4fc" fill-rule="evenodd" d="M161.7539 457.1289l-1.85546-3.42968.48047-4.4375 1.24218-4.4414-.10937-4.4375-.6914-4.4375.93359-1.33204 3.13672-3.10547 1.30078-.80078 4.4375-.90234 4.4375-2.29688 4.4414 1.23828 2.36328 2.76172 2.07422.8164 3.09375-.8164 1.34375-.8789v3.47656l-4.4375 1.04687-2.6836.79297-1.7539.71875-4.4414 3.67969-.02344.03906-2.46484 4.4375-1.94922 1.14844-4.4375.67188-3.34375 2.62109-1.09375 2.66797-.25391 1.76953.2539.46875 1.57423-.46875 2.86328-1.25781 4.4375-1.21485 4.4375-1.5.7539-.46484 3.63281-4.4414.0547-.01954 4.4375-1.8164 3.11718 1.83593 1.32031.61328 1.03906-.61328.11329-4.4375.11718-4.4375-1.26953-1.83984v-3.47656l.89844.8789 2.42578 4.4375 1.11328 3.55078 2.35547-3.55078 2.08594-1.67969 4.4375-.45312 2.5039-2.30469 1.9336-2.82812 4.4375.57812 4.4414.625 4.4375-2.5.33204-.3125-.33203-.5586-1.46094-3.8828 1.46094-.97266 1.40234.97266 3.03516 2.44921 4.4375.72266 1.33593 1.26953 3.10156 2.90235 4.44141-1.52735v.8086l-4.3125 2.2539 2.2539 4.4375 2.0586 2.64063 4.4375 1.01172 4.4375-.4922 2.01953-3.16015-2.01953-1.83984-3.73047-2.59766-.70703-.76172-4.4375-1.49218v-.8086l4.4375.8086 2.10156 2.2539 2.33594 1.625 3.08594 2.8125-2.53516 4.4375-.55078.46875-4.4375.60938-4.4375.86719-4.4414-1.90625-.0547-.03907-.4375-4.4375-2.96484-4.4375-.98047-1.14453-.9414 1.14453-3.4961 2.24219-4.4375 1.05078-3.0703 1.14453-1.3672 1.02735-4.4414 3.11328-.1836.29687-4.2539 2.4961-4.4375.0039-3.5 1.9375-.9375.9961-4.32422 3.4453-.11719.09376-.32812-.09375-4.10938-.6836-4.4375-1.08984-4.4375 1.69531-.0664.07813-4.375 2.70312-4.4375 1.62891-.25391.10547-4.1836 2.59375-4.4375.83594"/><path fill="#00c4fc" fill-rule="evenodd" d="M161.7539 454.16797l-.2539-.46875.2539-1.76953 1.09376-2.66797 3.34375-2.6211 4.4375-.67187 1.94922-1.14844 2.46484-4.4375.02344-.03906 4.4414-3.67969 1.7539-.71875 2.6836-.79297 4.4375-1.04687 1.26953 1.83984-.11718 4.4375-.11328 4.4375-1.03907.61328-1.32031-.61328-3.11719-1.83594-4.4375 1.81641-.05469.01953-3.6328 4.4414-.75391.46485-4.4375 1.5-4.4375 1.21485-2.86328 1.2578-1.57422.46876"/><path fill="#50fcfc" fill-rule="evenodd" d="M179.50781 452.80469l-2.32422.89453 2.32422 4.23437 4.4375-2.53906 1.60156-1.69531-1.60156-1.00781-4.4375.11328m17.7539.57812l-.49218.3164.49219.2422.0625-.2422-.0625-.3164"/><path fill="#00e8fc" fill-rule="evenodd" d="M201.69922 416.42578l-2.4414-2.67187 2.4414-3.63672v3.53906l-.0664.09766.0664.0703.10547-.0703-.10547-.09766v-3.53906l3.91406 3.63672-3.91406 2.67187"/><path fill="#00d4fc" fill-rule="evenodd" d="M201.69922 456.48828l-1.875-2.78906 1.875-2.1211 2.13281 2.1211-2.13281 2.78906m0-42.66406l-.0664-.07031.0664-.09766.10547.09766-.10547.0703"/><path fill="#00e8fc" fill-rule="evenodd" d="M210.57422 421.47656l-4.21875-3.28515 4.21875-1.1211 1.28516 1.1211-1.28516 3.28515"/><path fill="#00d4fc" fill-rule="evenodd" d="M223.89063 445.20703l-1.51563-.38672 1.51563-.84765.77734.84765-.77734.38672"/><path fill="#50fcfc" fill-rule="evenodd" d="M228.32813 434.0039l-4.05079 1.94141 4.05078 2.23828 1.44141-2.23828-1.4414-1.9414"/><g clip-path="url(#d)"><path fill="#50fcfc" fill-rule="evenodd" d="M226.5625 311.67188h-1.60547l3.3711 3.37109 4.4375.125 3.5039-3.4961h-1.41406l-2.08984 2.08204-4.4375-.31641-1.76563-1.76563"/></g><g clip-path="url(#e)"><path fill="#00e8fc" fill-rule="evenodd" d="M232.36328 311.67188h-5.80078l1.76563 1.76562 4.4375.3164 2.08984-2.08202h-2.49219"/></g><path fill="#00c4fc" fill-rule="evenodd" d="M235.14844 435.94531l-2.2539-4.4375 4.3125-2.2539v.80468l-2.76954 1.44922 2.76953 3.79297.90625.64453 3.53125 1.98438 4.4375-.49219.95313-1.49219-.95313-.86719-4.4375-2.27734-.95312-1.29297-3.48438-1.44922v-.80468l4.4375 1.49218.70703.76172 3.73047 2.59766 2.01953 1.83984-2.01953 3.16016-4.4375.49219-4.4375-1.01172-2.0586-2.64063"/><path fill="#00b8fc" fill-rule="evenodd" d="M237.20703 435.30078l-2.76953-3.79297 2.76953-1.44922v.8047l-1.23047.64452 1.23047 1.67969 3.8711 2.75781.5664.3164 2.85547-.3164-2.85547-.5039-2.89453-3.9336-1.54297-.64453v-.80469l3.48438 1.44922.95312 1.29297 4.4375 2.27735.95313.86718-.95313 1.49219-4.4375.49219-3.53125-1.98438-.90625-.64453"/><path fill="#00a8fc" fill-rule="evenodd" d="M237.20703 433.1875l-1.23047-1.67969 1.23047-.64453 1.54297.64453 2.89453 3.9336 2.85547.5039-2.85547.3164-.5664-.3164-3.8711-2.75781"/><path fill="#50fcfc" fill-rule="evenodd" d="M246.08203 451.48047l-1.88281-2.21875 1.88281-1.33594 1.36328 1.33594-1.36328 2.21875"/><path fill="#00e8fc" fill-rule="evenodd" d="M251 435.94531l-.03516-4.4375 3.9922-2.52734v2.29687l-.36329.23047-1.8086 4.4375 2.17188 1.72266 3.07813-1.72266-2.64844-4.4375-.42969-.23047v-2.29687l4.4414 2.21875 1.53516.3086-.12109 4.4375-1.41406 1.4453-4.4414 1.69141L251 435.94531"/><path fill="#00d4fc" fill-rule="evenodd" d="M254.95703 437.66797l-2.17187-1.72266 1.80859-4.4375.36328-.23047v3.8086l-.38281.85937.38281.30469.54688-.30469-.54688-.85937v-3.8086l.42969.23047 2.64844 4.4375-3.07813 1.72266"/><path fill="#00c4fc" fill-rule="evenodd" d="M254.95703 436.25l-.38281-.30469.38281-.85937.54688.85937-.54688.30469"/><path fill="#50fcfc" fill-rule="evenodd" d="M272.71094 434.2461l-3.55469-2.73829L272.71094 428l3.03125-.92969 1.41015-1.19531v4.53906l-4.4414.9375-.15625.15625.15625.1211 4.4414.53125 3.91797 3.78515.51953.51172.78516-.51172-.78516-.82422-3.42187-3.61328-1.01563-1.09375V425.875l1.50782 1.19531 2.92968 3.77735.3086.66015 4.09765 4.4375-4.40625 2.86719-2.90234-2.86719-1.53516-1.48437-4.4414-.21485"/><path fill="#00e8fc" fill-rule="evenodd" d="M272.71094 431.6289l-.15625-.12109.15625-.15625 4.4414-.9375 1.01563 1.09375 3.42187 3.61328.78516.82422-.78516.51172-.51953-.51172-3.91797-3.78515-4.4414-.53125"/><path fill="#50fcfc" fill-rule="evenodd" d="M294.90234 458.29297l-.59375-.15625.59375-.27735 1.1172.27735-1.1172.15625m8.87891-4.53906l-.01953-.0547.01953-.02733.1836.02734-.1836.05469m8.875-3.8047l-.32422-.6875.32422-.80077.26563.80078-.26563.6875m4.4414-13.6875l-.16796-.3164.16797-.14063 4.4375-1.10938 4.4375.34375.79687.90625-.79687.92969-2.89844 3.50781-1.53906 1.73828-1.40625-1.73828-3.03125-4.1211m57.6953 14.03517l-3.95702-1.03516 3.95703-1.16406 1.66406 1.16406 2.77735 4.13281.46093.30469-.46094.20312-.16015-.20312-4.28125-3.40235m8.8789 22.64063l-.40234-1.48438.28906-4.4375.11329-.30078 2.20703-4.14062.51562-4.4375 1.71485-2.95703 1.63671 2.95703.13672 4.4375-.30469 4.4414 1.71094 4.4375-3.17969 2.08594-4.4375-.60156"/><g clip-path="url(#f)"><path fill="#50fcfc" fill-rule="evenodd" d="M384.14844 480.32813h1.71094l2.25-2.27735 4.4375-1.10937 4.05859 3.38671h2.67969l-2.30079-2.625-4.4375-1.58593-4.4375.20312-3.96093 4.00781"/></g><g clip-path="url(#g)"><path fill="#00e8fc" fill-rule="evenodd" d="M385.85938 480.32813l2.25-2.27735 4.4375-1.10937 4.05859 3.38671h-1.64063l-2.41796-2.01953-3.88282 2.01954h-2.80469"/></g><g clip-path="url(#h)"><path fill="#00d4fc" fill-rule="evenodd" d="M388.66406 480.32813h2.63672l1.2461-.64844.77734.64844h1.64062l-2.41796-2.01954-3.88282 2.01954"/></g><g clip-path="url(#i)"><path fill="#00c4fc" fill-rule="evenodd" d="M391.30078 480.32813l1.2461-.64844.77734.64844h-2.02344"/></g><g clip-path="url(#j)"><path fill="#50fcfc" fill-rule="evenodd" d="M448.21875 480.32813h4.36719l-2.33985-2.02735-2.02734 2.02735"/></g><g clip-path="url(#k)"><path fill="#50fcfc" fill-rule="evenodd" d="M461.20313 480.32813l2.35937-2.36329 2.77734-2.07421 1.65625-1.65235v6.08985h-6.79296"/></g><g clip-path="url(#l)"><path fill="#50fcfc" fill-rule="evenodd" d="M467.9961 480.32813H468v-6.09375 6.09375h-.0039"/></g><g clip-path="url(#m)"><path fill="#fff" fill-opacity="0" fill-rule="evenodd" d="M467.9961 311.67188H468v162.5625-162.5625h-.0039"/></g><path fill="#fff" fill-opacity="0" fill-rule="evenodd" d="M208.53125 419.03906l3.91016 4.33985 7.40234-6.66407-3.91016-4.34375-7.40234 6.66797"/><path fill-rule="evenodd" d="M216.91406 416.19922l.33985.3789-4.6797 4.21094-.52343-.58594 3.33594-3.0039-.92969-1.03125.41406-.3711.42188.3711.20703.15234.22266.11328.24218.0547.26953-.01173.31641-.08984.36328-.1875"/><path fill="#fff" fill-opacity="0" fill-rule="evenodd" d="M189.54688 470.05469l5.83984-.17578-.30078-9.95704-5.83985.17579.30078 9.95703"/><path fill-rule="evenodd" d="M192.79688 461.82422l.51171-.01563.19141 6.29297-.78906.02344-.13672-4.48828-1.38672.04297-.01563-.55469.5586-.08203.25-.0625.22656-.09375.19922-.14844.16797-.21484.1289-.30078.09375-.39844"/><path fill="#fff" fill-opacity="0" fill-rule="evenodd" d="M233.58594 434.03906l7.90234-.59765-.76953-10.16407-7.90234.60157.76953 10.16015"/><path fill-rule="evenodd" d="M235.42969 425.51563l3.27734-.2461.05469.73828-2.63281.19922-.09375 1.8164.21484-.17968.26172-.15234.3125-.11329.3789-.05859h.32813l.34375.0586.34375.12109.32422.1914.29687.26954.12891.16406.11328.1875.09766.20703.07812.23438.0586.2539.03515.28125-.0039.44531-.07032.42579-.14062.39843-.21484.35547-.28516.30469-.16797.1289-.1875.11329-.20703.09375-.22266.07421-.23828.0547-.26172.03515-.46875-.0039-.40234-.07032-.34766-.13672-.28906-.1914-.24219-.2422-.1914-.28515-.15235-.32031-.11328-.34766.78125-.0586.09766.22267.11719.19921.14062.17188.15625.14453.17578.10938.19531.07812.21094.03906h.23438l.3125-.04687.27343-.09375.23438-.13672.19531-.1836.14844-.22656.10156-.26953.05078-.3164v-.35547l-.03906-.26172-.08203-.25781-.1211-.23829-.16406-.21875-.20703-.17968-.25-.13282-.29297-.07421-.33984-.01172-.33594.0625-.27344.1289-.2578.20703-.28907.29297-.6914.05469.20312-3.45313"/><g clip-path="url(#n)"><path fill="none" stroke="#000" stroke-linecap="round" stroke-linejoin="round" stroke-miterlimit="10" stroke-width=".5" d="M147.50781 480.53516l-7.01562-.41407"/></g><g clip-path="url(#o)"><path fill="none" stroke="#000" stroke-linecap="round" stroke-linejoin="round" stroke-miterlimit="10" stroke-width=".5" d="M147.50781 480.53516l1.01953 2.23437"/></g><g clip-path="url(#p)"><path fill="none" stroke="#000" stroke-linecap="round" stroke-linejoin="round" stroke-miterlimit="10" stroke-width=".5" d="M146.48828 480.47656l.50781 1.11328"/></g><g clip-path="url(#q)"><path fill="none" stroke="#000" stroke-linecap="round" stroke-linejoin="round" stroke-miterlimit="10" stroke-width=".5" d="M160.8164 480.61328l-7.0039-.57031"/></g><g clip-path="url(#r)"><path fill="none" stroke="#000" stroke-linecap="round" stroke-linejoin="round" stroke-miterlimit="10" stroke-width=".5" d="M160.8164 480.61328l.97266 2.2539"/></g><g clip-path="url(#s)"><path fill="none" stroke="#000" stroke-linecap="round" stroke-linejoin="round" stroke-miterlimit="10" stroke-width=".5" d="M174.14453 480.38672l-7.02734-.11328"/></g><g clip-path="url(#t)"><path fill="none" stroke="#000" stroke-linecap="round" stroke-linejoin="round" stroke-miterlimit="10" stroke-width=".5" d="M174.14453 480.38672l1.11719 2.1836"/></g><g clip-path="url(#u)"><path fill="none" stroke="#000" stroke-linecap="round" stroke-linejoin="round" stroke-miterlimit="10" stroke-width=".5" d="M187.45703 480.17969l-7.02344.29687"/></g><g clip-path="url(#v)"><path fill="none" stroke="#000" stroke-linecap="round" stroke-linejoin="round" stroke-miterlimit="10" stroke-width=".5" d="M187.45703 480.17969l1.24219 2.11719"/></g><g clip-path="url(#w)"><path fill="none" stroke="#000" stroke-linecap="round" stroke-linejoin="round" stroke-miterlimit="10" stroke-width=".5" d="M200.7461 479.89063l-6.97266.875"/></g><g clip-path="url(#x)"><path fill="none" stroke="#000" stroke-linecap="round" stroke-linejoin="round" stroke-miterlimit="10" stroke-width=".5" d="M200.7461 479.89063l1.41406 2.0078"/></g><g clip-path="url(#y)"><path fill="none" stroke="#000" stroke-linecap="round" stroke-linejoin="round" stroke-miterlimit="10" stroke-width=".5" d="M214.05078 479.8086l-6.94922 1.03906"/></g><g clip-path="url(#z)"><path fill="none" stroke="#000" stroke-linecap="round" stroke-linejoin="round" stroke-miterlimit="10" stroke-width=".5" d="M214.05078 479.8086l1.45703 1.97265"/></g><g clip-path="url(#A)"><path fill="none" stroke="#000" stroke-linecap="round" stroke-linejoin="round" stroke-miterlimit="10" stroke-width=".5" d="M227.36328 479.79688l-6.94531 1.0625"/></g><g clip-path="url(#B)"><path fill="none" stroke="#000" stroke-linecap="round" stroke-linejoin="round" stroke-miterlimit="10" stroke-width=".5" d="M227.36328 479.79688l1.46484 1.96875"/></g><g clip-path="url(#C)"><path fill="none" stroke="#000" stroke-linecap="round" stroke-linejoin="round" stroke-miterlimit="10" stroke-width=".5" d="M226.35156 479.95313l.73438.98437"/></g><g clip-path="url(#D)"><path fill="none" stroke="#000" stroke-linecap="round" stroke-linejoin="round" stroke-miterlimit="10" stroke-width=".5" d="M240.6289 479.54297l-6.84765 1.57031"/></g><g clip-path="url(#E)"><path fill="none" stroke="#000" stroke-linecap="round" stroke-linejoin="round" stroke-miterlimit="10" stroke-width=".5" d="M240.6289 479.54297l1.60938 1.85547"/></g><g clip-path="url(#F)"><path fill="none" stroke="#000" stroke-linecap="round" stroke-linejoin="round" stroke-miterlimit="10" stroke-width=".5" d="M253.86328 479.25l-6.6875 2.15625"/></g><g clip-path="url(#G)"><path fill="none" stroke="#000" stroke-linecap="round" stroke-linejoin="round" stroke-miterlimit="10" stroke-width=".5" d="M253.86328 479.25l1.76172 1.71094"/></g><g clip-path="url(#H)"><path fill="none" stroke="#000" stroke-linecap="round" stroke-linejoin="round" stroke-miterlimit="10" stroke-width=".5" d="M267.05078 478.91406l-6.42969 2.83203"/></g><g clip-path="url(#I)"><path fill="none" stroke="#000" stroke-linecap="round" stroke-linejoin="round" stroke-miterlimit="10" stroke-width=".5" d="M267.05078 478.91406l1.92969 1.51953"/></g><g clip-path="url(#J)"><path fill="none" stroke="#000" stroke-linecap="round" stroke-linejoin="round" stroke-miterlimit="10" stroke-width=".5" d="M280.39844 478.98438l-6.4961 2.6875"/></g><g clip-path="url(#K)"><path fill="none" stroke="#000" stroke-linecap="round" stroke-linejoin="round" stroke-miterlimit="10" stroke-width=".5" d="M280.39844 478.98438l1.89062 1.5625"/></g><g clip-path="url(#L)"><path fill="none" stroke="#000" stroke-linecap="round" stroke-linejoin="round" stroke-miterlimit="10" stroke-width=".5" d="M293.65234 478.84766l-6.37109 2.96484"/></g><g clip-path="url(#M)"><path fill="none" stroke="#000" stroke-linecap="round" stroke-linejoin="round" stroke-miterlimit="10" stroke-width=".5" d="M293.65234 478.84766l1.95704 1.47656"/></g><g clip-path="url(#N)"><path fill="none" stroke="#000" stroke-linecap="round" stroke-linejoin="round" stroke-miterlimit="10" stroke-width=".5" d="M306.90625 478.72656l-6.2539 3.20313"/></g><g clip-path="url(#O)"><path fill="none" stroke="#000" stroke-linecap="round" stroke-linejoin="round" stroke-miterlimit="10" stroke-width=".5" d="M306 479.1914l1.0039.70313"/></g><g clip-path="url(#P)"><path fill="none" stroke="#000" stroke-linecap="round" stroke-linejoin="round" stroke-miterlimit="10" stroke-width=".5" d="M319.64453 477.91016l-5.09765 4.83593"/></g><path fill="none" stroke="#000" stroke-linecap="round" stroke-linejoin="round" stroke-miterlimit="10" stroke-width=".5" d="M318.90234 478.61328l1.16407.39063"/><g clip-path="url(#Q)"><path fill="none" stroke="#000" stroke-linecap="round" stroke-linejoin="round" stroke-miterlimit="10" stroke-width=".5" d="M331.35938 476.94531l-1.89454 6.76563"/></g><g clip-path="url(#R)"><path fill="none" stroke="#000" stroke-linecap="round" stroke-linejoin="round" stroke-miterlimit="10" stroke-width=".5" d="M340.3164 479.48438l6.82032 1.6914"/></g><g clip-path="url(#S)"><path fill="none" stroke="#000" stroke-linecap="round" stroke-linejoin="round" stroke-miterlimit="10" stroke-width=".5" d="M354.44922 482.70313l5.1836-4.7461"/></g><g clip-path="url(#T)"><path fill="none" stroke="#000" stroke-linecap="round" stroke-linejoin="round" stroke-miterlimit="10" stroke-width=".5" d="M368.19922 483.10156l4.3125-5.54687"/></g><g clip-path="url(#U)"><path fill="none" stroke="#000" stroke-linecap="round" stroke-linejoin="round" stroke-miterlimit="10" stroke-width=".5" d="M381.26953 482.89453l4.80469-5.1289"/></g><g clip-path="url(#V)"><path fill="none" stroke="#000" stroke-linecap="round" stroke-linejoin="round" stroke-miterlimit="10" stroke-width=".5" d="M394.16797 482.42969l5.63672-4.19922"/></g><g clip-path="url(#W)"><path fill="none" stroke="#000" stroke-linecap="round" stroke-linejoin="round" stroke-miterlimit="10" stroke-width=".5" d="M407.92578 482.91797l4.7539-5.17578"/></g><g clip-path="url(#X)"><path fill="none" stroke="#000" stroke-linecap="round" stroke-linejoin="round" stroke-miterlimit="10" stroke-width=".5" d="M421.5039 483.13672l4.22657-5.61719"/></g><g clip-path="url(#Y)"><path fill="none" stroke="#000" stroke-linecap="round" stroke-linejoin="round" stroke-miterlimit="10" stroke-width=".5" d="M435.9961 483.71484l1.87109-6.77343"/></g><g clip-path="url(#Z)"><path fill="none" stroke="#000" stroke-linecap="round" stroke-linejoin="round" stroke-miterlimit="10" stroke-width=".5" d="M450.39063 476.8164l-.28907 7.02344"/></g><g clip-path="url(#aa)"><path fill="none" stroke="#000" stroke-linecap="round" stroke-linejoin="round" stroke-miterlimit="10" stroke-width=".5" d="M462.22656 477.07813l2.66797 6.5"/></g><g clip-path="url(#ab)"><path fill="none" stroke="#000" stroke-linecap="round" stroke-linejoin="round" stroke-miterlimit="10" stroke-width=".5" d="M147.5039 467.28906l-7.0078-.54687"/></g><path fill="none" stroke="#000" stroke-linecap="round" stroke-linejoin="round" stroke-miterlimit="10" stroke-width=".5" d="M147.5039 467.28906l.98048 2.2461m-2-2.32813l.48828 1.125m13.84375-1.02344l-7.00391-.58984m7.0039.58984l.96485 2.25782m12.35938-2.3711l-7.01954-.36328m7.01953.36328l1.03516 2.22656m12.28125-2.43359l-7.02344.05078m7.02344-.05078l1.16797 2.15625m12.14844-2.23047l-7.02344.19922m7.02344-.19922l1.21094 2.13281m12.08593-2.41015l-6.98828.7539m6.98828-.7539l1.375 2.03125m11.9375-2.03906l-6.98437.76953m6.98437-.76953l1.38281 2.02734m11.83204-2.5586l-6.78516 1.83204m6.78516-1.83203l1.67578 1.78906m-2.66406-1.52344l.83984.89453m13.3164-1.59375l-6.48828 2.69922m6.48828-2.69922l1.89454 1.5586m-2.83985-1.16407l.94922.77735m13.10547-1.58203l-6.07813 3.51953m6.07813-3.51953l2.08203 1.29687m-2.96484-.78516l1.03906.64844m13.26953-.95703L274 468.57031m6.30078-3.11328l1.99219 1.42969m11.23437-1.59766l-6.12109 3.44922m6.1211-3.44922l2.0664 1.32031m11.125-1.52343l-5.875 3.85937m5.875-3.85937l2.15234 1.17578m10.89454-1.53125l-5.33985 4.5664m5.33985-4.5664l2.28515.89844m10.98438-.95313l-5.2461 4.67578m5.2461-4.67578l2.30078.85156m10.50781-1.3203l-4.23437 5.61327m3.61718-4.79687l1.21094.19531m11.75781-1.52344l-2.3086 6.63672m1.97267-5.67187l1.21093-.1875m13.13282-.44922l-3.69532 5.98047m11.65235-3.08594l7.02343.1914m-6.0039-.16406l-.54297-1.09765m12.83984 1.01171l7.01953.3086m-6-.26563l-.52734-1.10547m13.33203 3.04688l6-3.66016m-5.125 3.12891l-1.0586-.625m16.95313-4.15625l-.90625 6.96484m15.73828-6.39062l-3.9414 5.8164m12.55078-.69921l5.46875-4.41797m13.41797.13281l-5.67188 4.15234"/><g clip-path="url(#ac)"><path fill="none" stroke="#000" stroke-linecap="round" stroke-linejoin="round" stroke-miterlimit="10" stroke-width=".5" d="M147.42969 454.46094l-6.85938-1.52344"/></g><path fill="none" stroke="#000" stroke-linecap="round" stroke-linejoin="round" stroke-miterlimit="10" stroke-width=".5" d="M147.42969 454.46094l.65625 2.36328m12.51172-1.875l-6.56641-2.5039m6.5664 2.5039l.3047 2.4375m12.9414-2.26563l-6.42578-2.84375m6.42578 2.84375l.17578 2.44532m13.2461-2.72266l-6.64454-2.28906m6.64453 2.28906l.38672 2.42188m13.09375-3.125l-6.97265-.88282m6.97265.88281l.8711 2.29297m12.40625-2.0664l-6.89844-1.33594m6.89844 1.33594l.71875 2.34765m12.66015-2.92187l-7.02343-.1875m7.02343.1875l1.09375 2.19531m12.13282-3.07812l-6.84766 1.57812m6.84766-1.57812l1.60937 1.85156m11.20703-3.00781l-5.85156 3.89062m5.85156-3.89062l2.16016 1.16406m-3.01172-.59766l1.08203.58203m13.14063-1.0625l-5.96485 3.71485m5.96485-3.71485l2.125 1.23047m-2.9922-.6875l1.0625.61328m13.16798-1.07812l-6.0586 3.5625m6.0586-3.5625l2.08984 1.28515m-2.97265-.76562l1.04687.64063m12.83984-1.60547l-5.4375 4.44922m5.4375-4.44922l2.26563.94922m-3.05469-.30079l1.13281.47266m12.5586-1.54688l-4.60938 5.3047m4.60938-5.3047l2.39062.55079m-3.0625.21875l1.19531.27734m12.94141-.90625l-4.91016 5.02344m4.91016-5.02344l2.35547.6914m-3.07031.03907l1.17968.34375m12.84766-1.07813l-4.90625 5.03125m4.90625-5.03125l2.35547.6875m-3.0664.04297l1.17577.34375m12.69532-1.21875l-4.59375 5.32032m4.59375-5.32032l2.39062.54297m-3.0586.23047l1.19532.27344m12.79688-1.03516l-4.61329 5.29688m4.61329-5.29688l2.39062.55469m-3.0625.21484l1.19531.27735m11.19922-1.83985l-1.42578 6.88282m1.42578-6.88282l2.35547-.6875m7.76953 1.63282l4.94922 4.98828m-4.22656-4.26172l.36328-1.17188m11.58203 1.33203l6.2461 3.21875m-6.2461-3.21875l-.03125-2.45312m14.77734.98437l3.38282 6.15625m12.4375-6.49609l-1.6289 6.83594m1.39452-5.84375l1.1875-.3086m11.3125-.77343l.47266 7.01172m-.47266-7.01172l2.08203-1.29297m10.53907 1.41015l1.85937 6.77735m-1.85937-6.77735l1.78515-1.68359m14.60547 2.29297l-4.28906 5.5625m3.66406-4.7539l1.21094.20312"/><g clip-path="url(#ad)"><path fill="none" stroke="#000" stroke-linecap="round" stroke-linejoin="round" stroke-miterlimit="10" stroke-width=".5" d="M147.15234 441.9336l-6.30468-3.10157"/></g><path fill="none" stroke="#000" stroke-linecap="round" stroke-linejoin="round" stroke-miterlimit="10" stroke-width=".5" d="M147.15234 441.9336l.07813 2.45312m13.17969-2.34375l-6.19141-3.32031m5.29297 2.83984l-.0039 1.22656m14.41796-1.1875l-6.58984-2.4336m5.63281 2.07813l.16406 1.21485m13.6914-.0625l-5.7578-4.03125m4.91797 3.44531l-.14844 1.21875m14.77734-1.59766l-6.70703-2.09765m5.73047 1.79297l.22656 1.20312m14.21094-1.625l-6.9961-.64453m5.97657.55078l.47656 1.1289m13.86719-1.17187l-7.01563-.375m5.9961.32031l.51562 1.11329M240.60547 439.5l-6.80078 1.76953m6.80078-1.76953l1.66016 1.80469m11.30078-2.67188l-6.09375 3.5m6.09375-3.5l2.07812 1.30469m11-1.66016l-5.6211 4.21485m5.6211-4.21485l2.22266 1.03907m11.00781-1.15235l-5.44922 4.4375m5.44922-4.4375l2.26172.95313m-3.05469-.30469l1.13281.47656m13.1875-.83203l-5.875 3.85547m5.875-3.85547l2.15235 1.17578m-3.00782-.61719l1.07813.58985m12.60156-1.7461l-4.89062 5.04688m4.89062-5.04688l2.35547.6797m-3.0664.05468l1.17578.33984m13.08203-.82422l-5.35547 4.55079m5.35547-4.55079l2.28125.90235m-3.0625-.24219l1.14062.45313m12.99219-1.07032l-5.42969 4.46094m5.42969-4.46094l2.26562.94532m-3.05468-.29297l2.26562.9414m11.5625-1.89062l-4.875 5.0586m4.875-5.0586l2.35938.67187m-3.07032.0625l2.35938.67578m11.14062-1.83203l-3.82421 5.89844m3.82421-5.89844l2.44141.21094m-3 .64844l1.22266.10547m11.76953-1.375l-2.0625 6.71875m2.0625-6.71875l2.41015-.46485m-2.71093 1.44532l2.41015-.46875m8.94141-.44141l2.46484 6.58203m-2.46484-6.58203l1.625-1.83984m-1.26563 2.79687l.8125-.91797m10.625 1.0664l5.50391 4.3672m-5.5039-4.3672l.4453-2.41405m15.01563 1.13671l1.21094 6.92188m-1.03516-5.91406l.96875-.7539m14.88282.39843l-4.21485 5.6211m4.21485-5.6211l2.42578.375m-3.03907.4414l2.42579.37891m11.43359-1.2461l-4.07422 5.72266m4.07422-5.72265l2.4336.3164m-3.02735.51563l2.4336.3164m11.42187-1.1875l-3.96875 5.79688m3.96875-5.79687l2.4375.27343m-3.01563.57032l2.44141.27343m-3.01563.57032l1.21875.13671m13.95313-1.1875l-5.3789 4.52344"/><g clip-path="url(#ae)"><path fill="none" stroke="#000" stroke-linecap="round" stroke-linejoin="round" stroke-miterlimit="10" stroke-width=".5" d="M466.25 438.1211l2.27734.91796"/></g><path fill="none" stroke="#000" stroke-linecap="round" stroke-linejoin="round" stroke-miterlimit="10" stroke-width=".5" d="M465.46875 438.78125l1.13672.45703"/><g clip-path="url(#af)"><path fill="none" stroke="#000" stroke-linecap="round" stroke-linejoin="round" stroke-miterlimit="10" stroke-width=".5" d="M147.4336 427.8164l-6.8672-1.49609"/></g><path fill="none" stroke="#000" stroke-linecap="round" stroke-linejoin="round" stroke-miterlimit="10" stroke-width=".5" d="M146.4336 427.59766l.33202 1.17968m13.98438-.97265l-6.8711-1.47266m5.8711 1.26172l.33594 1.17969m13.76562-.29688l-6.4414-2.8164m5.5039 2.40625l.09375 1.22265m13.78906-.16797l-5.70312-4.10546m4.875 3.5078l-.16797 1.21485m14.14844-.40625l-5.3789-4.52734m5.3789 4.52734l-.51563 2.39844m14.08985-2.75l-5.89453-3.82422m5.03515 3.26953l-.10547 1.22266m14.5586-1.1914l-6.45313-2.77345m5.51563 2.3672l.10156 1.22265m14.35156-2.97266l-6.85547 1.53906m6.85547-1.53906l1.59766 1.85938m11.54687-2.40625l-6.51562 2.6289m6.51562-2.6289l1.87891 1.57812m11.26563-1.9414l-6.17579 3.35546m6.17578-3.35546l2.04688 1.35546m-2.94531-.86718l1.02344.67968m13.11328-1.30468l-6.01953 3.6289m6.01953-3.6289l2.10547 1.2578m-2.98047-.73046l1.05078.6289m13.2539-.94921l-6.24609 3.21484m6.2461-3.21484l2.01562 1.39844m10.6914-2.2461l-5.03124 4.91016m5.03125-4.91016l2.33593.75m-3.07031-.03515l1.17188.375m13.15625-.76563l-5.58985 4.26172m5.58985-4.26172l2.23046 1.02734m-3.04296-.40625l1.11328.51172m12.8789-1.29687l-5.32031 4.58984m5.32031-4.58984l2.28907.88672m-3.0625-.21875l2.28906.88671m11.8164-1.53515l-5.35156 4.55078m5.35156-4.55078l2.28125.90234m-3.05859-.24219l1.14063.45313m13.07421-.96484l-5.59765 4.2539m5.59765-4.2539l2.22657 1.02734m-3.04297-.40625l2.23047 1.02734m11.22656-2.3203l-4.2461 5.59765m4.2461-5.59766l2.42187.39063m-3.04296.42187l2.42578.39063m11.73828-1.01172l-4.70703 5.21484m4.70703-5.21484l2.38281.59765m-3.0664.16016l2.3789.59766m-3.0625.16015l2.3789.59766m12.58594-1.82813l-5.27343 4.64453m5.27343-4.64453l2.29688.86328m-3.0625-.1875l2.29687.86329m-3.0625-.1875l2.29688.86328m-3.0664-.1875l1.14843.4336m14.07422-2.84376l-4.48438 5.41016m4.48438-5.41016l2.40234.4961m-3.05468.28906l2.40234.4961m-3.05469.29296l2.40235.4961m-3.0547.29296l1.20313.2461m13.83594-2.78907l-4.01562 5.76953m4.01562-5.76953l2.4336.29297m-3.01954.54688l2.4375.29297m-3.01953.54687l2.4336.29297m-3.01954.54687l1.21875.14454m14.00391-2.54688l-4.32422 5.53906m4.32422-5.53906l2.41797.42188m-3.04688.3828l2.41797.42579m-3.04687.3789l2.41406.42579m-3.04297.3789l1.20703.21485m13.9961-2.6289l-4.32813 5.53515m4.32813-5.53516l2.41406.42578m-3.04297.3789l2.41406.42579m-3.04297.3789l1.20704.21485m13.77734-1.44922l-5.14844 4.78516"/><g clip-path="url(#ag)"><path fill="none" stroke="#000" stroke-linecap="round" stroke-linejoin="round" stroke-miterlimit="10" stroke-width=".5" d="M466.13672 424.67578l2.3164.80469"/></g><path fill="none" stroke="#000" stroke-linecap="round" stroke-linejoin="round" stroke-miterlimit="10" stroke-width=".5" d="M465.38672 425.3711l2.32031.80468m-3.07031-.10547l1.16015.39844"/><g clip-path="url(#ah)"><path fill="none" stroke="#000" stroke-linecap="round" stroke-linejoin="round" stroke-miterlimit="10" stroke-width=".5" d="M147.50781 413.9375l-7.01562-.3711"/></g><path fill="none" stroke="#000" stroke-linecap="round" stroke-linejoin="round" stroke-miterlimit="10" stroke-width=".5" d="M147.50781 413.9375l1.03516 2.22656m12.1211-3.46875l-6.69923 2.11719m6.69922-2.11719l1.7539 1.71485m11.31642-2.30078l-6.21094 3.28906m6.21094-3.28906l2.03125 1.375m11.58984-.58204l-6.82031 1.70313m5.82812-1.45703l.82031.91015m13.44532-1.30078l-6.73828 1.99219m5.7578-1.70313l.85938.87891m13.08203 1.6289l-6.03125-3.60156m17.58985 5.08204l-2.51563-6.5625m2.14844 5.60546l-.80469.92579m16.50781-1.98829l-6.55859-2.52343m6.5586 2.52343l.29687 2.4336m13.25-3.8789l-7.01953.36327m7.01953-.36328l1.26172 2.10547m-2.28516-2.05078l.63281 1.05078m13.60547-1.75781l-6.82422 1.67187m6.82422-1.67187l1.63672 1.82812m-2.6289-1.58593l.8203.91406m13.1836-1.96094l-6.21484 3.28125m6.21484-3.28125l2.03125 1.375m-2.9375-.89844l1.01563.6875m13.3711-.80078l-6.54688 2.55078m6.54687-2.55078l1.85938 1.60156m10.63671-2.83984l-4.90625 5.03125m4.90625-5.03125l2.35547.6875m-3.0703.04297l1.17968.34766m13.3789-.41797l-5.96484 3.71093m5.96484-3.71093l2.125 1.23047m-2.99218-.69141l1.0625.61719m12.23828-2.11719l-4.20313 5.63281m4.20313-5.63281l2.42578.375m-3.03516.44531l1.21094.1875m12.71094-1.00781l-4.19531 5.63281m4.1953-5.63281l2.42579.36719m12.23437 1.74218l-6.8828 1.41407m6.8828-1.41407l1.5625 1.88672m-2.5664-1.68359l.78125.94531m13.50781-1.28125l-6.82422 1.67969m6.82422-1.67969l1.63281 1.82813m-2.6289-1.58203l1.63672 1.82812m12.33593-2.9375l-6.14843 3.40625m6.14843-3.40625l2.0547 1.33594m-2.94923-.83985l2.05469 1.33594m-2.94922-.83984l1.02734.66797m14.1836-1.44922l-6.36328 2.98437m6.36328-2.98437l1.96094 1.46875m-2.88672-1.03516l1.96093 1.47266m-2.88671-1.03906l1.96093 1.47265m12.78907-3.01953l-5.52735 4.33984m5.52735-4.33984l2.24218.9961m-3.04687-.36329l2.24219.9922m-3.04688-.35938l2.24219.99218m-3.04688-.36328l1.1211.4961m14.69531-2.26954l-5.70313 4.10157m5.70313-4.10157l2.19922 1.08594m-3.02735-.48828l2.19922 1.08594m-3.03125-.49219l2.19922 1.08594m12.67969-2.40625l-5.51172 4.35937m5.51172-4.35937l2.2461.98437m-3.04688-.35156l2.2461.98438m-3.05079-.34766l2.25.98437m12.6211-2.3164l-5.41407 4.48047m5.41406-4.48047l2.26954.9336m-3.0586-.28126l2.26953.9336m-3.05468-.28125l2.26953.93359m12.75-2.07031l-5.67578 4.14453"/><g clip-path="url(#ai)"><path fill="none" stroke="#000" stroke-linecap="round" stroke-linejoin="round" stroke-miterlimit="10" stroke-width=".5" d="M466.39844 411.67969l2.20703 1.07031"/></g><g clip-path="url(#aj)"><path fill="none" stroke="#000" stroke-linecap="round" stroke-linejoin="round" stroke-miterlimit="10" stroke-width=".5" d="M465.57422 412.28516l2.20703 1.0703"/></g><path fill="none" stroke="#000" stroke-linecap="round" stroke-linejoin="round" stroke-miterlimit="10" stroke-width=".5" d="M464.7461 412.88672l1.10546.53515"/><g clip-path="url(#ak)"><path fill="none" stroke="#000" stroke-linecap="round" stroke-linejoin="round" stroke-miterlimit="10" stroke-width=".5" d="M147.46875 401.00781l-6.9375-1.14062"/></g><path fill="none" stroke="#000" stroke-linecap="round" stroke-linejoin="round" stroke-miterlimit="10" stroke-width=".5" d="M147.46875 401.00781l.78125 2.32422m12.51563-3.55469l-6.90235 1.32422m5.89844-1.13281l.76953.95703m12.67188-2.88281l-5.14454 4.78906m5.14453-4.78906l2.31641.80469m10.92578-.87891l-5 4.9414m4.26953-4.22265l1.17188.36328m12.04687-1.70312l-3.34765 6.17968m2.85937-5.28125l1.22656.01172m10.9961-1.33203l-.1875 7.02344m.16016-6l1.09765-.54688m14.8789 5.25391l-5.45312-4.4336m5.45313 4.4336l-.47266 2.40625m-.32031-3.05078l-.23828 1.20312m14.97656-1.73437l-6.71094-2.08203m6.71094 2.08203l.45703 2.41015m-1.4336-2.71484l.45704 2.41016m13.94531-2.59375l-6.9375-1.10938m6.9375 1.10938l.79688 2.32422m-1.8047-2.48438l.79298 2.32031m13.57422-2.69921l-7.02735-.02735m7.02735.02735l1.14453 2.17187m-2.16406-2.17578l.5703 1.08594m13.6836-.34375l-6.86328-1.50391m6.86328 1.5039l.66406 2.35938m12.46875-4.45312l-6.49609 2.68359m6.4961-2.6836l1.89062 1.5625m11.59766-1.01952l-6.84375 1.59375m6.84375-1.59375l1.61328 1.85156m-2.60938-1.61719l.80469.92188m13.5586-.88672l-6.94923 1.05859m6.94922-1.0586l1.46485 1.96485m-2.47657-1.8125l.73438.98438m12.9414-2.70313l-5.64453 4.1875m5.64454-4.1875l2.21484 1.05469m11.78906 1l-7.02734.07812m7.02734-.07812l1.17578 2.15234m11.83203-.67578l-6.41015-2.8711m5.48047 2.45313l.08203 1.22266m14.22265-3.54297l-6.52734 2.60156m6.52734-2.60156l1.8711 1.58594m10.95312-2.44141l-5.54687 4.3164m5.54687-4.3164l2.23828 1m-3.04687-.3711l2.23828 1m12.57031-.09374l-6.91797 1.24609m6.91797-1.2461l1.51563 1.92579m-2.52344-1.7461l.75781.96485m13.58594-1l-6.96094.95703m6.96094-.95703l1.4375 1.98828m-2.44922-1.85156l.71875.99609m13.35156-2.05469l-6.4453 2.80078m6.4453-2.80078l1.91797 1.52735m-2.85547-1.1211l1.91797 1.52735m12.30078-2.01172l-6.3789 2.95312m6.3789-2.95312l1.95313 1.48437m-2.88281-1.05469l1.95703 1.48438m-2.88281-1.05469l.97656.74219m14.14844-1.6914l-6.28907 3.1328m6.28907-3.1328l2 1.42968m-2.91407-.97265l1.9961 1.42578m-2.91016-.96875l1.9961 1.42578m13.09374-2.4414l-6.18359 3.33593"/><g clip-path="url(#al)"><path fill="none" stroke="#000" stroke-linecap="round" stroke-linejoin="round" stroke-miterlimit="10" stroke-width=".5" d="M466.65234 398.76953l2.04297 1.35938"/></g><g clip-path="url(#am)"><path fill="none" stroke="#000" stroke-linecap="round" stroke-linejoin="round" stroke-miterlimit="10" stroke-width=".5" d="M465.7539 399.2539l2.04298 1.35938"/></g><path fill="none" stroke="#000" stroke-linecap="round" stroke-linejoin="round" stroke-miterlimit="10" stroke-width=".5" d="M464.85547 399.74219l1.01953.67969"/><g clip-path="url(#an)"><path fill="none" stroke="#000" stroke-linecap="round" stroke-linejoin="round" stroke-miterlimit="10" stroke-width=".5" d="M147.5039 386.86328l-7.0078.51953"/></g><path fill="none" stroke="#000" stroke-linecap="round" stroke-linejoin="round" stroke-miterlimit="10" stroke-width=".5" d="M146.48438 386.9414l.65234 1.03516m13.6836-1.10156l-7.01173.4961m5.9922-.42579l.65233 1.03906m13.58594-1.71484l-6.8164 1.70703m5.82422-1.45703l.8203.91016m12.35157-2.98438l-4.54688 5.35938m3.88282-4.58203l1.19922.26171m12.41015-1.3125l-3.8086 5.90625m3.25392-5.04687l1.22265.10156m14.25781 2.01953l-7.02734-.05859m7.02734.0586l1.13282 2.17577m-2.15625-2.18359l1.1328 2.17578m13.04688-1.15625l-6.71093-2.08203m6.71093 2.08203l.45703 2.41016m-1.43359-2.71485l.45703 2.41407m13.82813-2.09375l-6.69922-2.11328m6.69922 2.11328l.44922 2.41406m-1.42188-2.72266l.22266 1.20704m13.84375-.35547l-6.25781-3.19922m6.2578 3.19922l.04298 2.45312m13.15234-2.23828l-6.01563-3.6289m6.01563 3.6289l-.13281 2.45313m-.74219-2.98047l-.0664 1.22656m14.47265-1.11328l-6.44531-2.80078m6.44531 2.80078l.1914 2.44531m13.3047-2.97266l-6.8086-1.74609m6.8086 1.7461l.57812 2.3828m12.69531-4.26562l-6.73047 2.01953m6.73047-2.01953l1.72656 1.74219m11.70704-1.20313l-6.96485.94141m6.96485-.9414l1.43359 1.99218m-2.44531-1.85547l.71484.9961m13.51953-1.58985l-6.77734 1.85547m6.77734-1.85547l1.6836 1.78516m11.6289-1.79297l-6.77344 1.8711m5.78907-1.59766l.84375.89062m13.58203-.2461l-7.02735.03517m7.02735-.03516l1.16406 2.16015m-2.1875-2.15625l.58203 1.08204m13.64844-1.9336l-6.8086 1.73438m6.8086-1.73438l1.65234 1.8125m-2.64453-1.5625l1.65235 1.8164m-2.64063-1.5625l.82422.90626m14.3164-1.875l-6.5039 2.66015m6.5039-2.66015l1.88672 1.57031m-2.83203-1.1836l1.88672 1.57032m12.49219-1.6289l-6.73828 2.0039m6.73828-2.0039l1.71875 1.75m-2.69922-1.45704l.85938.8711m13.3828-1.32032l-6.6328 2.31641m6.6328-2.3164l1.8047 1.66796m-2.76954-1.33203l.90235.83594m13.21875-1.55469l-6.3164 3.08203m6.3164-3.08203l1.98437 1.44531m-2.90234-.99609l.99219.72266m13.48047-.53516l-6.79297 1.8086m6.79297-1.8086l1.66796 1.79688m-2.65625-1.53516l1.67188 1.79687m12.58984-2.19921l-6.71093 2.08984m6.71093-2.08985l1.74219 1.72657m-2.71875-1.42188l1.74219 1.72656m12.5625-1.99218l-6.73438 2.01172"/><g clip-path="url(#ao)"><path fill="none" stroke="#000" stroke-linecap="round" stroke-linejoin="round" stroke-miterlimit="10" stroke-width=".5" d="M466.92969 386.11719l1.72265 1.7461"/></g><path fill="none" stroke="#000" stroke-linecap="round" stroke-linejoin="round" stroke-miterlimit="10" stroke-width=".5" d="M465.94922 386.41016l1.72265 1.74609m-2.70312-1.45313l.86328.875"/><g clip-path="url(#ap)"><path fill="none" stroke="#000" stroke-linecap="round" stroke-linejoin="round" stroke-miterlimit="10" stroke-width=".5" d="M147.21094 372.38672l-6.42188 2.84375"/></g><path fill="none" stroke="#000" stroke-linecap="round" stroke-linejoin="round" stroke-miterlimit="10" stroke-width=".5" d="M147.21094 372.38672l1.9336 1.51172m11.67968-.28125L153.80859 374m5.9922-.32813l.63671 1.05079m10.2539-4.42579l-.12109 7.02344m.10156-6.0039l1.09375-.5547m8.79688 2.09376l6.76563 1.90625m-5.78125-1.6289l-.25782-1.19923m17.22266 5.15625l-2.5039-6.5625m2.5039 6.5625l-1.61328 1.85157m16.4336-2.95313l-5.51173-4.35937m5.51172 4.35937l-.4375 2.41406m13.57813-2.21093l-5.16407-4.76563m5.16407 4.76563l-.6211 2.37109m14.71875-3.73828l-6.73047-2.03125m6.73047 2.03125l.47656 2.40625m-1.45703-2.70313l.23828 1.20313m13.91797-.52735l-6.44922-2.78906m6.44922 2.78906l.19922 2.44532m-1.13672-2.85156l.09766 1.22265m14.1836-.88672l-6.50782-2.64844m6.50781 2.64844l.25 2.4414m-1.1953-2.82812l.125 1.22266m14.14062-.84766l-6.51954-2.625m6.51954 2.625l.2578 2.44141m-1.20702-2.82422l.1289 1.22266m14.27735-1.26563l-6.80078-1.77344m6.80078 1.77344l.5664 2.38672m-1.55859-2.64453l.57031 2.38672m13.83203-2.65235l-6.99218-.72656m6.99218.72656l.91797 2.27344m-1.9375-2.3789l.92188 2.27343m13.42578-2.6914l-7.01953.3164m7.01953-.3164l1.25 2.11328m-2.26953-2.0664l.6211 1.05859m13.70702-1.20704l-7.00781.52344m7.00781-.52344l1.3125 2.07422m-2.33203-2l.65625 1.03907m13.6875-.91016l-7.02344.11719m7.02344-.11719l1.1875 2.14844m-2.20703-2.13281l.59375 1.07421m13.73828-.83203l-7.01562-.39844m7.01562.39844l1.02735 2.22656m-2.05079-2.28515l1.02735 2.23047m13.3086-2.5625L366.84765 374m7.01562-.38281l1.26953 2.10156m-2.28906-2.04688l1.26953 2.10157m12.96485-2.82422l-6.8125 1.71484m6.8125-1.71484l1.64453 1.82031m-2.63672-1.57031l.82422.91015m13.51172-1.03125l-6.8711 1.46094m6.8711-1.46094L402 374.96094m-2.57812-1.66797l.78906.9375m13.5039-1.2539l-6.82812 1.66406m6.82812-1.66407l1.63282 1.83203m-2.625-1.58984l.8164.91406m13.375-1.53125l-6.59765 2.41406m6.59765-2.41406l1.82813 1.63672m-2.78516-1.28515l.91016.8164m13.4336-.95312l-6.73829 1.98437m6.73828-1.98437l1.71875 1.7539m-2.69922-1.46484l.85938.875m13.47265-1.03516l-6.8125 1.72656m6.8125-1.72656l1.64844 1.8164m-2.64062-1.5664l.82422.91016m13.49218-1.1289l-6.82812 1.66015"/><g clip-path="url(#aq)"><path fill="none" stroke="#000" stroke-linecap="round" stroke-linejoin="round" stroke-miterlimit="10" stroke-width=".5" d="M466.97656 372.97656l1.6289 1.83594"/></g><path fill="none" stroke="#000" stroke-linecap="round" stroke-linejoin="round" stroke-miterlimit="10" stroke-width=".5" d="M465.98047 373.21875l.8164.91797"/><g clip-path="url(#ar)"><path fill="none" stroke="#000" stroke-linecap="round" stroke-linejoin="round" stroke-miterlimit="10" stroke-width=".5" d="M146.78516 358.35156l-5.57032 4.28125"/></g><path fill="none" stroke="#000" stroke-linecap="round" stroke-linejoin="round" stroke-miterlimit="10" stroke-width=".5" d="M146.78516 358.35156l2.23437 1.01563m11.79297 1.44531l-6.9961-.64063m5.98048.54688l.47265 1.13281m11.76563-4.57812l-2.8086 6.4414m2.39844-5.5039l1.22266-.09766m14.3789 3.63672l-6.5625-2.51563m5.60938 2.14844l.14844 1.21875m13.33593.36328l-4.9961-4.9414m4.9961 4.9414l-.70312 2.34766m-.02344-3.0664l-.35156 1.17577m13.44922.22266l-3.10547-6.30469m3.10547 6.3047l-1.4375 1.99218m.98437-2.91016l-.71875.9961m16.13672-1.78516l-6.40625-2.88672m6.40625 2.88672l.16016 2.44531m-1.09375-2.86719l.08203 1.22657m13.84765-.24219l-5.76562-4.01563m5.76562 4.01563l-.29297 2.4375m-.54687-3.01953l-.14844 1.21875m14.55469-1.05469l-6.26953-3.17578m6.26953 3.17578l.04688 2.45313m-.96094-2.91797l.02344 1.22656m14.39062-1.20703l-6.64453-2.28906m6.64453 2.28906l.38672 2.42578m-1.35156-2.75781l.1914 1.21094m14.125-.98047l-6.71094-2.08594m6.71094 2.08594l.45703 2.41015m-1.43359-2.71484l.45703 2.41406m13.64453-1.6289l-6.33203-3.04688m6.33203 3.04688l.09766 2.45312m-1.01953-2.89453l.09765 2.45312m14.3047-2.42187l-6.66407-2.22266m6.66406 2.22266l.41016 2.41797m-1.3789-2.74219l.40624 2.41797m-1.375-2.74219l.20313 1.21094m15.15625-.95313l-6.87891-1.4414m6.8789 1.4414l.6836 2.35547m-1.6836-2.5664l.6836 2.35546m13.6836-2.48046l-6.98438-.77344m6.98437.77344l.90625 2.28125m-1.92187-2.39454l.90625 2.28125m13.4336-2.25l-7-.60937m7 .60938l.95702 2.26171m-1.97656-2.34765l.96094 2.25781m13.38281-2.59766l-7.01953.2422m7.01953-.2422l1.22656 2.12891m-2.24609-2.09375l1.22656 2.1289m-2.25-2.09374l1.22657 2.1289m14.08593-2.65625l-6.92968 1.16016m6.92968-1.16016l1.4961 1.94531m-2.50391-1.77734l1.4961 1.94531m-2.50391-1.77734l1.49219 1.94531m13.64843-2.98047l-6.54687 2.5586m6.54687-2.5586l1.85938 1.59766m-2.8125-1.22656l1.85937 1.59765m-2.8125-1.22656l.92969.80078m14.2539-1.63672l-6.47265 2.7422m6.47266-2.7422l1.90625 1.54688m-2.84766-1.14453l1.90625 1.54297m12.40234-1.8086l-6.57812 2.46875m6.57812-2.46875l1.83985 1.625m-2.79688-1.26562l1.83985 1.625m12.53125-1.67969l-6.77735 1.85938m6.77735-1.85938l1.68359 1.78516m-2.66797-1.51172l1.6836 1.78515m12.59375-2.14062l-6.73047 2.02734m6.73047-2.02734l1.72656 1.74219m-2.70703-1.44922l1.72656 1.74219m12.51562-2.19141l-6.625 2.33984m6.625-2.33984l1.8086 1.66015m-2.76953-1.3203l1.80468 1.66015m12.3711-2.2539l-6.42578 2.84374"/><g clip-path="url(#as)"><path fill="none" stroke="#000" stroke-linecap="round" stroke-linejoin="round" stroke-miterlimit="10" stroke-width=".5" d="M466.77344 359.07031l1.92969 1.51563"/></g><path fill="none" stroke="#000" stroke-linecap="round" stroke-linejoin="round" stroke-miterlimit="10" stroke-width=".5" d="M465.83984 359.48438l.96485.7578"/><g clip-path="url(#at)"><path fill="none" stroke="#000" stroke-linecap="round" stroke-linejoin="round" stroke-miterlimit="10" stroke-width=".5" d="M143.66016 343.67969l.67968 6.9961"/></g><g clip-path="url(#au)"><path fill="none" stroke="#000" stroke-linecap="round" stroke-linejoin="round" stroke-miterlimit="10" stroke-width=".5" d="M143.75781 344.69922l1.02344-.67969"/></g><path fill="none" stroke="#000" stroke-linecap="round" stroke-linejoin="round" stroke-miterlimit="10" stroke-width=".5" d="M159.15625 344.1836l-3.67969 5.98827m3.14453-5.11718l1.22266.07812m10.5625-1.46094l.44922 7.01172m16.59766-3.71484l-7.01563.41797m5.9961-.35547l.63671 1.04688m11.66406 2.28906l-2.94921-6.3789m2.94922 6.3789l-1.48047 1.95312m15-2.05469l-3.35547-6.17578m3.35547 6.17579l-1.35547 2.04687m.86719-2.94531l-1.35547 2.04687m.86718-2.94531l-.67578 1.02344m15.73047.21484l-4.88281-5.0586m4.88281 5.0586l-.76172 2.33203m.05078-3.0664l-.3789 1.16406m14.61328-.65235l-5.30078-4.61328m5.30078 4.61329l-.55078 2.39062m-.21875-3.0625l-.27735 1.19531m14.58985-.8125l-5.7539-4.03515m5.7539 4.03515l-.30078 2.4336m-.53907-3.01954l-.14843 1.21485m14.7578-1.52735l-6.66405-2.23828m6.66406 2.23829l.40234 2.41796m-1.3711-2.74609l.19923 1.21094m14.17187-1.1914l-6.83984-1.6211m6.83984 1.6211l.6211 2.375m-1.6172-2.60938l.6211 2.37109m13.6289-1.91406l-6.71484-2.0664m6.71485 2.0664l.46484 2.41015m-1.4414-2.71093l.46484 2.41015m13.71484-1.80078l-6.49609-2.67969m6.4961 2.6797l.24218 2.4414m-1.1875-2.83203l.24219 2.4414m-1.1875-2.83203l.1211 1.22266m15.27343-1.03906l-6.86719-1.48829m6.86719 1.48829l.66406 2.36328m-1.66406-2.57813l.66406 2.35938m-1.66406-2.57813l.33203 1.1836m15.05078-1.20704l-7.0039-.57421m7.0039.57421l.96875 2.25391m-1.98828-2.33594l.96875 2.2539m13.35156-2.03124l-6.97656-.85547m6.97656.85547l.87891 2.28906m-1.89453-2.41406l.8789 2.28906m13.44532-2.13281l-6.96485-.91797m6.96485.91797l.85937 2.29687m-1.8711-2.42968l.85938 2.29687m-1.875-2.42969l.4297 1.14844m14.9414-1.46094l-7.02344.23829m7.02344-.23829l1.22656 2.12891m-2.2461-2.09375l1.22266 2.125m-2.2461-2.08984l1.22266 2.125m-2.24609-2.08985l.61328 1.0625m15.55078-2.26953l-6.58593 2.4414m6.58593-2.4414l1.83594 1.6289m-2.79297-1.27343l1.83203 1.6289m-2.79297-1.27343l1.83594 1.6289m13.3086-2.5625l-6.41016 2.88672m6.41016-2.88671l1.9375 1.5039m-2.8711-1.08203l1.9414 1.5m-2.875-1.08203l.97266.75m14.32032-1.3125l-6.6289 2.33203m6.6289-2.33203l1.80468 1.66015m-2.76953-1.3203l1.8047 1.66015m-2.76954-1.32031l1.80469 1.66015m13.5586-1.91797l-6.8672 1.4922m6.8672-1.4922l1.58593 1.8711m-2.58594-1.65625l1.58594 1.8711m-2.58594-1.65235l.79297.9336m14.4961-1.48438l-6.81641 1.72265m6.8164-1.72265l1.64453 1.8203m-2.63671-1.5703l1.64843 1.8203m-2.64062-1.5703l.82422.91015m14.38281-1.70703l-6.63281 2.3164m6.63281-2.3164l1.80469 1.66406m-2.76953-1.32812l1.80468 1.66406m-2.76953-1.32422l.90235.83203m14.28515-1.66406l-6.51562 2.6289"/><g clip-path="url(#av)"><path fill="none" stroke="#000" stroke-linecap="round" stroke-linejoin="round" stroke-miterlimit="10" stroke-width=".5" d="M466.82031 345.86328l1.8789 1.57813"/></g><path fill="none" stroke="#000" stroke-linecap="round" stroke-linejoin="round" stroke-miterlimit="10" stroke-width=".5" d="M465.8711 346.2461l1.8789 1.57812m-2.82813-1.19531l.94141.78906"/><g clip-path="url(#aw)"><path fill="none" stroke="#000" stroke-linecap="round" stroke-linejoin="round" stroke-miterlimit="10" stroke-width=".5" d="M140.48828 333.78906l7.02344.14844"/></g><path fill="none" stroke="#000" stroke-linecap="round" stroke-linejoin="round" stroke-miterlimit="10" stroke-width=".5" d="M153.8789 333.13672l6.875 1.45312m-6.875-1.45312l-.67968-2.35938m14.42187 1.27344l6.01953 3.625m-5.14453-3.09765l.06641-1.22657m13.1836-.23047l4.39843 5.48438m-3.75781-4.6875l.48437-1.125m14.375 6.58203l.02735-7.02734m-.02735 7.02734l-2.16797 1.14453m16.6797-1.34765l-2.36329-6.6172m2.36328 6.6172l-1.65234 1.8125m1.3086-2.77344l-1.65235 1.8125m1.3086-2.77735l-.82813.90625m15.28515.82032l-3.27343-6.21875m3.27343 6.21875L224.14454 339m.90624-2.9336l-.6914 1.01563m14.76171-.27344l-3.83203-5.89062m3.83203 5.89062l-1.1875 2.14454m.62891-3.00391l-.59375 1.07422m15.3164-.99219l-5.53124-4.33594m5.53125 4.33594l-.4297 2.41406m-.375-3.04687l-.21483 1.20703m14.88671-1.58594l-6.6328-2.3125m6.6328 2.3125l.375 2.42578m-1.33984-2.76172l.375 2.42579m14.08203-2.8711l-6.98828-.75m6.98828.75l.91406 2.27344m-1.92968-2.38281l.91406 2.27734m13.38281-1.9414l-6.92187-1.20313m6.92187 1.20312l.76563 2.33204m-1.76953-2.50782l.76171 2.33203m13.26954-1.24609l-6.34375-3.02344m6.34375 3.02344l.10937 2.44922m-1.03125-2.89063l.10547 2.45313m-1.03125-2.89063l.05469 1.22266m15.26953-.7461l-6.66797-2.22265m6.66797 2.22266l.40625 2.42187m-1.375-2.74219l.40625 2.41797m-1.3789-2.74219l.41015 2.41797m14.99219-2.39062l-6.95704-.98438m6.95704.98438l.83593 2.3086m-1.84765-2.45313l.83593 2.3086m-1.85156-2.44923l.42188 1.15235m14.95312-1.21485l-7.02344-.28906m7.02344.28906l1.0586 2.21485m-2.08204-2.25782l1.0625 2.21485m13.21094-1.63281l-6.89453-1.3672m6.89453 1.3672l.70703 2.34765m-1.71093-2.54687l.35546 1.17187m14.01563-1.35156l-7-.61328m7 .61328l.96094 2.26172m-1.98047-2.34766l.96094 2.25781m13.34375-3.03906l-6.9375 1.125m6.9375-1.125l1.48437 1.95313m-2.4961-1.78907l1.48438 1.95313m12.70703-2.66016l-6.66797 2.21094m6.66797-2.21094l1.77735 1.69531m-2.7461-1.375l1.77344 1.69532m12.58984-1.75l-6.82421 1.67969m6.82421-1.6797l1.63282 1.82813m-2.62891-1.58203l1.63672 1.82813m12.67969-2.04297l-6.83985 1.61328m6.83985-1.61328l1.62109 1.84765m-2.61328-1.60937l1.61719 1.84375m-2.61328-1.60938l.80859.92188m14.32031-1.9336l-6.48828 2.69141m6.48828-2.6914l1.89453 1.5625m-2.83593-1.16797l1.89062 1.55859m-2.83594-1.16797l1.89453 1.5586m13.40625-2.07813l-6.6875 2.16406m6.6875-2.16406l1.76172 1.70703m-2.73437-1.39062l1.76172 1.70703m-2.73438-1.39453l1.76172 1.70703m-2.73437-1.39063l.8828.85156m15.25-2.0664l-6.48437 2.70312"/><g clip-path="url(#ax)"><path fill="none" stroke="#000" stroke-linecap="round" stroke-linejoin="round" stroke-miterlimit="10" stroke-width=".5" d="M466.80469 332.51172l1.89844 1.55469"/></g><g clip-path="url(#ay)"><path fill="none" stroke="#000" stroke-linecap="round" stroke-linejoin="round" stroke-miterlimit="10" stroke-width=".5" d="M465.85938 332.90234l1.89843 1.5586"/></g><path fill="none" stroke="#000" stroke-linecap="round" stroke-linejoin="round" stroke-miterlimit="10" stroke-width=".5" d="M464.91797 333.29688l1.89844 1.55468"/><g clip-path="url(#az)"><path fill="none" stroke="#000" stroke-linecap="round" stroke-linejoin="round" stroke-miterlimit="10" stroke-width=".5" d="M142.8711 317.22266l2.2578 6.65234"/></g><g clip-path="url(#aA)"><path fill="none" stroke="#000" stroke-linecap="round" stroke-linejoin="round" stroke-miterlimit="10" stroke-width=".5" d="M143.19922 318.1875l.83984-.89063"/></g><path fill="none" stroke="#000" stroke-linecap="round" stroke-linejoin="round" stroke-miterlimit="10" stroke-width=".5" d="M153.8086 320.76953l7.01171-.44531m-7.01172.44531l-1.28515-2.08984m14.6211 2.3086l6.97265-.87892m-6.97266.87891l-1.41406-2.00781m14.75.98828l6.92969 1.16016m-6.9297-1.16016l-.78124-2.32813m18.46484 6.30079l-1.8086-6.78907m1.54688 5.8047l-.89843.83202m14.53515.13672l-1.92578-6.75781m1.92578 6.75781l-1.76953 1.70313m1.48828-2.6836l-1.76953 1.69922m1.48828-2.6836l-.88281.85157m14.7539 1.11719l-1.91406-6.76172m1.91407 6.76172l-1.77344 1.69531m1.49219-2.67969l-1.76953 1.69922m16.125-1.03125l-3.4336-6.1289m3.4336 6.1289l-1.32422 2.0625m.82422-2.95312l-1.32422 2.0625m.82422-2.95704l-.66016 1.03125m16.0586-.1875l-5.59766-4.24609m5.59765 4.2461l-.39062 2.42187m-.42578-3.03906l-.39063 2.42187m-.42187-3.04297l-.19532 1.21485m15.66797-.97656l-6.65625-2.2461m6.65625 2.2461l.39844 2.42187m-1.36719-2.75l.39844 2.42188m-1.36719-2.75l.19922 1.21093m15.1914-1.11328l-6.93359-1.13281m6.9336 1.13281l.78906 2.32422m-1.79687-2.48828l.78906 2.32422m-1.79688-2.48828l.39453 1.16015m14.96875-1.07422l-6.99609-.64843m6.9961.64843l.9453 2.26563m-1.96484-2.35938l.94922 2.26563m13.19531-1.3125l-6.61718-2.36328m6.61718 2.36328l.35547 2.42578m-1.32031-2.76953l.35938 2.42578m13.91796-2.07031l-6.61328-2.38672m6.61328 2.38672l.34766 2.42578m-1.3125-2.77344l.35156 2.42969m-1.3125-2.77735l.17578 1.21485m15.25782-1.39063l-6.9961-.64453m6.9961.64453l.9453 2.26172m-1.96483-2.35547l.94921 2.26172m13.33594-1.83594l-6.90234-1.3125m6.90234 1.3125l.73047 2.34375m-1.73437-2.53515l.36328 1.17187m13.76953-.33593l-6.52735-2.59766m5.57813 2.21875l.13672 1.21875m14.26562-3.01563l-6.80468 1.75391m6.80468-1.7539l1.65625 1.80859m11.49219-2.30469l-6.46875 2.74219m6.46875-2.74219l1.90625 1.54688m-2.84766-1.14844l.95313.77344m13.2539 1.68359l-6.37109-2.96484m6.3711 2.96484l.1328 2.44922m13.26954-2.65625l-6.54688-2.55078m5.59375 2.17969l.14454 1.21875m13.92578-3.82813l-6.14844 3.40625m5.2539-2.91016l1.02735.66797m11.44531-2.71094l-2.67578 6.5m2.67578-6.5l2.4414-.23828m12.35938 1.39844l-5.64453 4.1836m5.64453-4.1836l2.21485 1.05469m-3.03907-.44531l2.21875 1.05468m12.06641-1.44921l-5.9375 3.7539"/><g clip-path="url(#aB)"><path fill="none" stroke="#000" stroke-linecap="round" stroke-linejoin="round" stroke-miterlimit="10" stroke-width=".5" d="M466.53125 318.67188l2.13281 1.21484"/></g><g clip-path="url(#aC)"><path fill="none" stroke="#000" stroke-linecap="round" stroke-linejoin="round" stroke-miterlimit="10" stroke-width=".5" d="M465.66797 319.21484l2.1289 1.21875"/></g><path fill="none" stroke="#000" stroke-linecap="round" stroke-linejoin="round" stroke-miterlimit="10" stroke-width=".5" d="M464.80469 319.76172l2.1289 1.21484"/><path fill="#ff3030" fill-rule="evenodd" d="M322.35938 436.57813h7.6914v-10.14454h-7.6914v10.14454"/><path fill="azure" fill-rule="evenodd" d="M324.1914 428.26563h.83204v5.74218h3.19531v.73828h-4.02734v-6.48046"/><path fill="#ff3030" fill-rule="evenodd" d="M184.76953 414.38672h7.6914v-10.14453h-7.6914v10.14453"/><path fill="azure" fill-rule="evenodd" d="M186.60156 406.07422h.83203v5.74219h3.19532v.73828h-4.02735v-6.48047"/><path fill="#00f" fill-rule="evenodd" d="M224.01953 414.38672h8.61719v-10.14453h-8.61719v10.14453"/><path fill="azure" fill-rule="evenodd" d="M225.85156 406.07422h.83594v2.82422h3.28516v-2.82422h.83203v6.48047h-.83203v-2.91406h-3.28516v2.91406h-.83594v-6.48047"/><path fill="#ff3030" fill-rule="evenodd" d="M193.64453 361.1289h7.69531v-10.14843h-7.6953v10.14844"/><path fill="azure" fill-rule="evenodd" d="M195.47656 352.8164h.83594v5.73829h3.1914v.73828h-4.02734v-6.47656"/><path fill="#ffffe0" fill-rule="evenodd" d="M199.71484 377.01953h22.1836v-10.1914h-22.1836v10.1914"/><path fill-rule="evenodd" d="M203.21484 368.66016h.51172v6.29687h-.78906v-4.49219h-1.38672v-.55468l.5586-.06641.2539-.05078.22656-.08985.20313-.14062.17578-.21094.14063-.29687.10546-.39453m4.81641 0l.22656.01953.21875.05469.21094.08984.19531.1211.1836.14843.17187.17578.30078.42188.24219.49218.17969.54688.11328.57812.03906.59375-.03906.58985-.11328.58594-.17969.55468-.24219.5-.30078.42969-.17187.17969-.1836.15234-.19531.125-.21094.08985-.21875.05859-.22656.01953-.23047-.01953-.21875-.0586-.20703-.08984-.19922-.125-.1836-.15234-.17187-.17969-.30078-.42969-.24219-.5-.17968-.55469-.11328-.58593-.03907-.58985h.83594l.02734.5625.08203.50391.125.44531.16407.3711.1914.30078.21094.22265.22266.13672.22656.04688.22656-.04688.22266-.13672.21094-.22265.1875-.30078.16406-.3711.125-.44531.08203-.5039.03125-.5625-.03125-.5625-.08203-.5-.125-.4375-.16406-.36329-.1875-.29297-.21094-.21484-.22266-.13281-.22656-.04297-.22656.04297-.22266.13281-.21094.21484-.1914.29297-.16406.36328-.125.4375-.08204.5-.02734.5625h-.83594l.03906-.59375.11329-.57812.17968-.54688.2422-.49218.30077-.42188.17188-.17578.1836-.14844.19921-.1211.20703-.08983.21875-.0547.23047-.01952m4.94922 0l.23047.01953.21875.05469.20703.08984.19922.1211.1836.14843.17187.17578.30078.42188.24219.49218.17968.54688.11328.57812.03907.59375-.03907.58985-.11328.58594-.17969.55468-.24218.5-.30078.42969-.17188.17969-.1836.15234-.19921.125-.20703.08985-.21875.05859-.23047.01953-.22656-.01953-.21875-.0586-.21094-.08984-.19531-.125-.1836-.15234-.17187-.17969-.30078-.42969-.2422-.5-.17968-.55469-.11328-.58593-.03906-.58985h.83594l.02734.5625.08203.50391.125.44531.16406.3711.1914.30078.20704.22265.22266.13672.22656.04688.22656-.04688.22266-.13672.21094-.22265.1914-.30078.16406-.3711.125-.44531.08203-.5039.02735-.5625-.02734-.5625-.08204-.5-.125-.4375-.16406-.36329-.1914-.29297-.21094-.21484-.22266-.13281-.22656-.04297-.22656.04297-.22266.13281-.20703.21484-.1914.29297-.16407.36328-.125.4375-.08203.5-.02734.5625h-.83594l.03906-.59375.11328-.57812.17969-.54688.24219-.49218.30078-.42188.17187-.17578.1836-.14844.1953-.1211.21095-.08983.21875-.0547.22656-.01952m4.95312 0l.38672.02734.35938.08203.32422.13672.27734.1875.23047.23828.17578.28516.10547.33203.03906.3789-.01953.27344-.0586.23438-.08593.19922-.11328.17187-.1289.14453-.14063.1211-.28516.1953.23047.1211.20703.14453.1836.17188.15234.19531.125.21094.08984.23047.05469.2461.01953.2539-.03516.3086-.10156.32812-.17187.32421-.23828.3086-.3086.26953-.375.21094-.21094.08203-.22656.0625-.2461.03906-.26171.01172-.25781-.01172-.2422-.03906-.22265-.0625-.20703-.08203-.35937-.21094-.28907-.26953-.22265-.3086-.15625-.32421-.09375-.32813-.03125-.3086h.83594l.02343.25391.07813.23438.125.21484.16015.1836.19141.15234.21875.11328.24219.07422.2539.02344.25782-.02344.23828-.07422.21875-.11328.19531-.15234.16016-.1836.12109-.21484.07813-.23438.02734-.2539-.02734-.2539-.07813-.23438-.1211-.21094-.16015-.1836-.19531-.15234-.21875-.11719-.23828-.0703-.25782-.02735-.2539.02734-.24219.07031-.21875.1172-.1914.15233-.16016.1836-.125.21094-.07813.23437-.02344.2539h-.83593l.01953-.2539.05469-.23828.09375-.22266.12109-.21093.15625-.19141.17969-.17188.20703-.15234.23437-.13281-.28906-.19531-.13672-.1211-.1289-.14453-.11328-.17187-.08985-.19922-.05469-.23438-.02343-.27344h.78906l.02344.21485.0664.1914.10156.16407.13672.14062.16797.10938.1875.08203.20703.05078.21875.01953.22266-.01953.20703-.05078.1875-.08203.16406-.10938.13672-.14062.10547-.16406.0664-.19141.02345-.21485-.02344-.21484-.0664-.1914-.10548-.16797-.13672-.13672-.16406-.11328-.1875-.08204-.20703-.05078-.22266-.01562-.21875.01562-.20703.05079-.1875.08203-.16797.11328-.13672.13672-.10156.16796-.0664.19141-.02344.21485h-.78906l.03906-.37891.10937-.33203.17188-.28516.23047-.23828.28125-.1875.32031-.13672.35938-.08203.38671-.02734"/><path fill="#ffffe0" fill-rule="evenodd" d="M342.42188 387.98828h22.17968v-10.1914h-22.17969v10.1914"/><path fill-rule="evenodd" d="M345.92188 379.6289h.5078v6.29688h-.78515v-4.49219h-1.38672v-.55468l.5586-.0625.25-.0547.23046-.08983.20313-.14063.17578-.21094.14063-.29297.10546-.39843m4.8125 0l.23047.01953.21875.05469.20704.08984.19921.1211.1836.15234.17187.17578.30078.41797.2422.49218.17968.54688.11328.57812.03906.59375-.03906.59375-.11328.58204-.17969.55468-.24219.5-.30078.42969-.17187.17969-.1836.15234-.19921.125-.20704.08985-.21875.05859-.23046.01953-.22657-.01953-.21875-.0586-.21094-.08984-.1953-.125-.1836-.15234-.17188-.17969-.30078-.42969-.24219-.5-.17968-.55469-.11328-.58203-.03907-.59375h.83594l.02735.5625.08203.50391.125.44531.16406.375.1914.30078.20704.21875.22265.13672.22656.04688.22657-.04688.22265-.13672.21094-.21875.1914-.30078.16407-.375.125-.44531.08203-.5039.02735-.5625-.02735-.5625-.08203-.5-.125-.4375-.16406-.36329-.1914-.29297-.21095-.21484-.22265-.1289-.22656-.04688-.22657.04687-.22265.12891-.20704.21484-.1914.29297-.16406.36328-.125.4375-.08204.5-.02734.5625h-.83594l.03907-.59375.11328-.57812.17969-.54688.24218-.49218.30078-.41797.17188-.17578.1836-.15235.1953-.1211.21094-.08983.21875-.0547.22656-.01952m5.09375 0h.50782v6.29687h-.78516v-4.49219h-1.39062v-.55468l.5625-.0625.25-.0547.23046-.08983.20313-.14063.17578-.21094.14063-.29297.10546-.39843m2.82422 2.17578h.78516l.01953-.3164.0586-.28517.10156-.2539.14062-.21485.17969-.17187.22266-.1289.26562-.08204.3086-.02734.23828.02344.22265.0625.20313.10156.17969.13672.14843.17187.11328.20703.07422.23438.02344.26562-.02344.26954-.0625.22265-.11328.1914-.15234.17188-.20313.16406-.2461.16407-.6328.39062-.53907.3125-.4375.3164-.34765.32423-.26172.33594-.1914.35156-.125.3711-.07032.39062-.01953.42187h4.21094v-.74219h-3.33204l.08594-.28515.11328-.23438.14844-.20312.1836-.17969.23437-.17188.27734-.17578.71875-.41406.41407-.20703.34375-.23047.28125-.25.21875-.26953.16406-.27734.11328-.28516.0625-.28516.01953-.28125-.04297-.3828-.11719-.34767-.1914-.30859-.25-.26172-.30078-.21094-.34766-.16015-.3789-.09766-.40625-.03515-.4336.03515-.39844.09766-.35546.16797-.3047.23437-.25.30078-.18359.375-.11718.44532-.03907.51953"/><path fill="#ffffe0" fill-rule="evenodd" d="M306.23828 332.59766h22.17969v-10.19141h-22.17969v10.1914"/><path fill-rule="evenodd" d="M309.73828 324.23828h.50781v6.29688h-.78906v-4.4922h-1.38672v-.55468l.5586-.0664.2539-.05079.23047-.08984.20313-.14063.17187-.21093.14063-.29688.10937-.39453m4.8125 0l.23047.01953.21875.05469.20703.08984.19531.1211.1836.14844.17187.17578.30078.42187.2461.49219.17969.54687.10937.57813.03906.59375-.03906.58984-.10938.58594-.17968.55469-.2461.5-.30078.42969-.17187.17968-.1836.15235-.1953.125-.20704.08984-.21875.0586-.23047.01952-.23047-.01953-.21875-.05859-.20703-.08984-.19531-.125-.1875-.15235-.16797-.17969-.30469-.42968-.24219-.5-.17968-.55469-.11328-.58594-.03516-.58984h.83203l.02735.5625.08203.5039.1289.44532.16016.3711.1914.30077.21094.22266.22266.13672.22656.04687.22656-.04687.22266-.13672.21094-.22266.1914-.30078.16016-.3711.125-.4453.08203-.50391.03125-.5625-.03125-.5625-.08203-.5-.125-.4375-.16016-.36328-.1914-.29297-.21094-.21485-.22266-.1328-.22656-.04298-.22656.04297-.22266.13281-.21094.21485-.1914.29297-.16016.36328-.1289.4375-.08204.5-.02734.5625h-.83203l.03516-.59375.11328-.57813.17969-.54687.24218-.49219.30469-.42187.16797-.17579.1875-.14843.19531-.1211.20703-.08984.21875-.05469.23047-.01953m5.08985 0h.51171v6.29688h-.78906v-4.4922h-1.38672v-.55468l.5586-.0664.2539-.05079.22656-.08984.20313-.14063.17578-.21093.14063-.29688.10546-.39453m6.8047 1.6211h-.78516l-.05079-.21485-.08203-.1836-.10937-.16015-.1289-.1289-.14844-.10547-.16016-.07422-.16797-.04297-.17188-.01563-.32812.03907-.28516.12109-.24609.19531-.20703.26953-.16016.33594-.11328.40625-.07031.46485-.02344.52734.1875-.20313.1875-.16015.1836-.1211.1875-.08593.1875-.0625.1914-.03516.40235-.02734.30468.03125.32031.09375.31641.15625.29688.21875.2539.28515.19922.34766.07422.20312.05078.21485.02735.23437.0078.2539-.78906.04688-.02734-.26171-.07812-.25-.1211-.23438-.16015-.21094-.19532-.17578-.21875-.13672-.23828-.08984-.25781-.03125-.2539.03125-.23829.08984-.22265.13672-.19141.17578-.16016.21094-.125.23438-.07421.25-.02735.26171.02735.25782.07421.25.125.23437.16016.21094.1914.17969.22266.13671.23828.08594.25391.03125.25781-.03125.23828-.08594.21875-.13671.19532-.1797.16015-.21093.1211-.23437.07812-.25.02735-.25782.78906-.04687-.03125.3711-.09375.37109-.15625.35937-.22266.32813-.28906.28125-.17188.12109-.1875.10156-.20703.08203-.22265.0625-.2422.03516-.26171.01563-.28125-.01563-.26172-.04688-.23437-.07812-.21875-.10547-.19532-.1289-.17187-.15625-.15625-.1797-.13281-.20312-.1172-.22265-.09765-.2422-.14844-.53515-.08593-.59375-.02735-.64062.03907-.74219.11328-.66406.1875-.57813.1211-.2539.13671-.23047.15234-.20703.17188-.1836.1875-.15625.19922-.1289.21875-.10157.23437-.07421.2461-.04297.26171-.01563.3672.03516.33202.09375.29297.15234.25781.19922.21094.24219.16797.27344.11328.30078.0625.32421"/></g></defs><use xlink:href="#aD"/></svg>