<svg xmlns="http://www.w3.org/2000/svg" role="img" xmlns:xlink="http://www.w3.org/1999/xlink" viewBox="142.45 309.95 326.84 171.84"><defs><clipPath id="a"><path d="M144 441h1v39.32813h-1zm0 0"/></clipPath><clipPath id="b"><path d="M144 311.67188h1V433h-1zm0 0"/></clipPath><clipPath id="c"><path d="M144 311.67188h324v168.65625H144zm0 0"/></clipPath><clipPath id="d"><path d="M224 311.67188h13V316h-13zm0 0"/></clipPath><clipPath id="e"><path d="M226 311.67188h9V314h-9zm0 0"/></clipPath><clipPath id="f"><path d="M384 476h16v4.32813h-16zm0 0"/></clipPath><clipPath id="g"><path d="M385 476h12v4.32813h-12zm0 0"/></clipPath><clipPath id="h"><path d="M388 478h7v2.32813h-7zm0 0"/></clipPath><clipPath id="i"><path d="M391 479h3v1.32813h-3zm0 0"/></clipPath><clipPath id="j"><path d="M448 478h5v2.32813h-5zm0 0"/></clipPath><clipPath id="k"><path d="M461 474h7v6.32813h-7zm0 0"/></clipPath><clipPath id="l"><path d="M467 474h1v6.32813h-1zm0 0"/></clipPath><clipPath id="m"><path d="M467 311.67188h1V475h-1zm0 0"/></clipPath><clipPath id="n"><path d="M144 479h4v1.32813h-4zm0 0"/></clipPath><clipPath id="o"><path d="M147 480h2v.32813h-2zm0 0"/></clipPath><clipPath id="p"><path d="M146 480h2v.32813h-2zm0 0"/></clipPath><clipPath id="q"><path d="M153 479h8v1.32813h-8zm0 0"/></clipPath><clipPath id="r"><path d="M160 480h2v.32813h-2zm0 0"/></clipPath><clipPath id="s"><path d="M166 479h9v1.32813h-9zm0 0"/></clipPath><clipPath id="t"><path d="M173 480h3v.32813h-3zm0 0"/></clipPath><clipPath id="u"><path d="M180 480h8v.32813h-8zm0 0"/></clipPath><clipPath id="v"><path d="M187 480h2v.32813h-2zm0 0"/></clipPath><clipPath id="w"><path d="M193 479h9v1.32813h-9zm0 0"/></clipPath><clipPath id="x"><path d="M200 479h3v1.32813h-3zm0 0"/></clipPath><clipPath id="y"><path d="M206 479h9v1.32813h-9zm0 0"/></clipPath><clipPath id="z"><path d="M213 479h3v1.32813h-3zm0 0"/></clipPath><clipPath id="A"><path d="M220 479h8v1.32813h-8zm0 0"/></clipPath><clipPath id="B"><path d="M227 479h3v1.32813h-3zm0 0"/></clipPath><clipPath id="C"><path d="M233 479h8v1.32813h-8zm0 0"/></clipPath><clipPath id="D"><path d="M240 479h3v1.32813h-3zm0 0"/></clipPath><clipPath id="E"><path d="M246 478h9v2.32813h-9zm0 0"/></clipPath><clipPath id="F"><path d="M253 478h3v2.32813h-3zm0 0"/></clipPath><clipPath id="G"><path d="M260 478h8v2.32813h-8zm0 0"/></clipPath><clipPath id="H"><path d="M266 478h4v2.32813h-4zm0 0"/></clipPath><clipPath id="I"><path d="M273 478h8v2.32813h-8zm0 0"/></clipPath><clipPath id="J"><path d="M280 478h3v2.32813h-3zm0 0"/></clipPath><clipPath id="K"><path d="M287 478h7v2.32813h-7zm0 0"/></clipPath><clipPath id="L"><path d="M300 477h7v3.32813h-7zm0 0"/></clipPath><clipPath id="M"><path d="M315 477h5v3.32813h-5zm0 0"/></clipPath><clipPath id="N"><path d="M329 476h2v4.32813h-2zm0 0"/></clipPath><clipPath id="O"><path d="M340 477h7v3.32813h-7zm0 0"/></clipPath><clipPath id="P"><path d="M353 479h8v1.32813h-8zm0 0"/></clipPath><clipPath id="Q"><path d="M367 478h7v2.32813h-7zm0 0"/></clipPath><clipPath id="R"><path d="M382 476h4v4.32813h-4zm0 0"/></clipPath><clipPath id="S"><path d="M393 478h8v2.32813h-8zm0 0"/></clipPath><clipPath id="T"><path d="M393 480h3v.32813h-3zm0 0"/></clipPath><clipPath id="U"><path d="M409 476h3v4.32813h-3zm0 0"/></clipPath><clipPath id="V"><path d="M420 478h8v2.32813h-8zm0 0"/></clipPath><clipPath id="W"><path d="M434 477h6v3.32813h-6zm0 0"/></clipPath><clipPath id="X"><path d="M449 476h2v4.32813h-2zm0 0"/></clipPath><clipPath id="Y"><path d="M462 476h3v4.32813h-3zm0 0"/></clipPath><clipPath id="Z"><path d="M144 466h4v2h-4zm0 0"/></clipPath><clipPath id="aa"><path d="M144 452h4v3h-4zm0 0"/></clipPath><clipPath id="ab"><path d="M144 438h4v5h-4zm0 0"/></clipPath><clipPath id="ac"><path d="M465 437h3v2h-3zm0 0"/></clipPath><clipPath id="ad"><path d="M144 425h4v5h-4zm0 0"/></clipPath><clipPath id="ae"><path d="M465 423h3v2h-3zm0 0"/></clipPath><clipPath id="af"><path d="M144 412h4v3h-4zm0 0"/></clipPath><clipPath id="ag"><path d="M465 410h3v2h-3zm0 0"/></clipPath><clipPath id="ah"><path d="M144 399h4v3h-4zm0 0"/></clipPath><clipPath id="ai"><path d="M466 398h2v2h-2zm0 0"/></clipPath><clipPath id="aj"><path d="M465 398h3v3h-3zm0 0"/></clipPath><clipPath id="ak"><path d="M144 386h4v3h-4zm0 0"/></clipPath><clipPath id="al"><path d="M466 385h2v2h-2zm0 0"/></clipPath><clipPath id="am"><path d="M465 385h3v3h-3zm0 0"/></clipPath><clipPath id="an"><path d="M144 371h4v5h-4zm0 0"/></clipPath><clipPath id="ao"><path d="M466 371h2v3h-2zm0 0"/></clipPath><clipPath id="ap"><path d="M144 357h3v7h-3zm0 0"/></clipPath><clipPath id="aq"><path d="M466 358h2v3h-2zm0 0"/></clipPath><clipPath id="ar"><path d="M465 358h3v3h-3zm0 0"/></clipPath><clipPath id="as"><path d="M144 343h1v8h-1zm0 0"/></clipPath><clipPath id="at"><path d="M144 343h2v2h-2zm0 0"/></clipPath><clipPath id="au"><path d="M466 345h2v3h-2zm0 0"/></clipPath><clipPath id="av"><path d="M144 333h4v2h-4zm0 0"/></clipPath><clipPath id="aw"><path d="M466 332h2v3h-2zm0 0"/></clipPath><clipPath id="ax"><path d="M465 332h3v3h-3zm0 0"/></clipPath><clipPath id="ay"><path d="M144 318h4v5h-4zm0 0"/></clipPath><clipPath id="az"><path d="M466 318h2v2h-2zm0 0"/></clipPath><clipPath id="aA"><path d="M465 318h3v3h-3zm0 0"/></clipPath><g id="aB" clip-path="url(#clip1)"><path fill="#fff" fill-opacity="0" fill-rule="evenodd" d="M0 0h1000v1000H0zm0 0"/><path fill="#d3d3d3" fill-opacity="0" fill-rule="evenodd" d="M162.15234 355.86719l-.23437.29297.0586.23437.11718.17188.17578.23437.29297.34766.11328.0586.11719-.17188.0586-.23438.17577-.17578.46485-.17578h.69922l.23437.29297.28906.8164.0586.17579.17578.23046.35156.23438.69922.69922.17188.17578.23437.34765.23438.41016.28906.58203.41015.46485.23047.23437.23438.17578.11719.23047.17578.29297.17187 1.16406v.23438l.0586.28906.05859.11719.11719.11719.34765.41015.11719.17188.17578.17578.17578.23437.11719.17188.17188.35156.05859.23438.23437.40625.23438-.0586-.17578.17578-.0586.92969h-.58203l-.23437-.11328-.34766.11328-.11719.11719-.05859.29297-.0586.17578-.11718.17187-.46484.29297-.0586.23438-.0586.11328v.64453l.0586.17187v.41016l.0586.0586v.40624l.05859.40625.11719.17579.05859.05859.23047.64062-.0586.29297v.69922l-.05859.58203v.23438l-.0586.23047-.05468.35156v1.92187l.05469.1172h.42578l-.36719.11718-.02344.35156.89063 1.16797 1.74219.53906 1.33984.35938v.53906l.08984.8086.53516.71484 1.51953.26953.89063-.08594.08984 1.16406.53516.1797 1.16015-.1797 2.05469-.98437 1.16016-.36328 1.8789-.17578 1.69531-.1797-.17968.71876-1.51563.08594-1.25.08984-.80469.26953-1.07421.8086.26953.71875.53515.89843-.17968.625-.26563.8086.26563 1.07812.625.89844.80468.17969 1.25-.1797-.26562.72267.09766.5039.05468.29297v.17188l.0586.29296v.40625l.17578.1172.35156.11718h.40625l.29297-.17578.11328-.11719.0586-.11719.11718-.23047.0586-.17578.35156-.46484.23047-.17578.17578-.0586.17578.0586.0586.17578.11718.98828.05469.46875.0586.17188.11718.23437.17578.0586.8164.05859h.28907l.11719.23437.05859.40625.0586.35156v1.10547l.11718.29297.11719.34766.28906.69922.17578.35156.58203.7539.35157.17579.17187.0586.46875.23437.64063.46484.34765.23438.29297.17578.29297.05468.23047.0625.8164.34766.29297.17578.11328.17188.35157.35156.11719.17578.52343.64063v.28906l.0586.35156v.34766l.05859.35156.0586.28906.11718.0586.17188.05859h.17578l.58203.23437.17578.1172.17578.28905.17578.23438.11328.23437.29297.23047.11719.11719v.41016l.0586.05468.28906.23438.23437.11719.0586.11718.11718.17188.0586.11719.23047.23437.05859.17578.23437.0586.1172.05859-.1172.11328-.05859.11719v.11719l-.11719.29296-.11719.28907v.58203l.17579.11719.11718.05859.0586.11719.11719.11719.11328.05859.17578.34765.0586.35157.05858.40625v.17578l-.05859.17578-.11719.69922v.17187l.1172.17579.29296.29296h.40625l.17578.1172.11719.17187.11719.29296v.23438h-.52735l-.23047-.23438h-.23437l-.17578.0586-.0586.69922.0586.34765.11719.17579.17578.41015.11718.23047.28907.46875.17578.05469h.52344l.23437.0586.75781.64062.0586.29296v.23438l.05859.0586.23047.34765v.35156l-.11719.17188v.29297l.29297.28906.29297.17578.17187.0586.29297.17577.29297.1172.58203.40624.28906.23438.29297.17578.21875.16015.01563.01172.23047.17579.64062.52343.17578.23438.1172.17578.17577.17578.11328.17188v.64062l.1172.17578.46874.11719.58203.11719.23438.05859.23047.11328.29297.11719.11328.0586.58593.35156.28907.17187.17578.0625.17578.05469.17578.0586.69922.35155.28906.17579.23438.05468.28906.17578.23437.1172.64063.40624.29297.11719.17187.0586.23438.05859.41015.05859.23047.0586.23438.11718.0586.17188-.41017.17578.46875.0586.0586.29296.11328.23438.17578.05468.23438.0586.17578.05859.40625.11719.64062.23437.11719.17188.0586.23437v.17578l-.0586.1172-.0586.40624.23438.23438.11719.05859.34766.11719.64062.23047.17578.11718.28906.1172.17578.17577.23438.46485.58203 1.10546.17578.17579.34766.17578.17578.11719.35156.11718 1.04688.52344.23437.0586.46485.11327.29297.0586.46484.17578.75781.58203.23438.23438.34765.46484.17578.17578.28907.23438.8164.69921.29297.17579.28906.28906.29297.17578.29297.28906.69531.64063.17578.17578.29297.23437.28907.23438.46875.28906.64062.58203.34766.23438.23437.29297.34766.34765.35156.46485.9336.99218.34765.40625.11719.17579.23437.05859.11328.11719.64454.17578.23047.11328.23437.0586.29297.17577.23047.1172.9336.69921.40624.40625.23438.17578.40625.17578.23437.11719.8164.34766.34766.23437.23438.11719.29297.28906.23047.11719.7578.35156.35157.17188.23047.05859.29297.11719.23437.0586.8711.17577h.8164l.46875.23047.17188.0586.875.69921.46484.1172.29297.05858.17578.0586.23047.0586.46875.05859.34766.05859.35156.0586.40625.05859h.29297l.17187.0586v.23046l.17578.17578h.29297l.34766.0586.35156.05859.69922.11719h.64063l.46484-.23438.29297-.17578.17187-.11719.41016-.17187.28906-.17578.9336-.46485.46875-.29297.52343-.29296.46485-.17188.46484-.17578 1.05078-.46485.28906-.11718.41016-.11719.28906-.11719.52735-.17578 1.51562-.69922.58203-.34765.28907-.0586.29297-.0586.34765-.11718.875-.23047.35156-.11719h.11329l.23437-.05859.875-.23437.23438-.0586h.8125l.35156-.0586.8164-.11718.17188-.0586.35156-.05468.29297-.0586.23047-.05859.8164-.17578.17579-.0586h.34765l.23438-.05859.46484-.11718.75781-.17188.23438-.0586h.34765l.41016-.11718.28906-.0586 1.28516-.05859h.28906l.41016-.0586.23047-.05858h.17578l.875-.1172h.40625l.41015-.11718h.34766l.35156-.11328.8711-.0586h1.75l1.04687.28907.41016.11719.28906.11718.35156.11719.28907.11719 1.05078.17187.28906.0586h.29297l.29297.05859.17187.0586.41016.05859.17187.0586.1172.05858h.11718l.11719.0586.35156.0586h.11328l.41016.0664 1.92187.39453 1.92578.39453 1.51953.44922 1.69532.71875 2.14453.80469 1.60547-.71875 1.42968-.80469 1.16016-1.07813 1.25-.44921 3.03516-.71875 1.875-.35938 2.14453-1.34765 2.23437-1.25391 2.5-1.25781 1.69531-.44922 1.78516-.17969 1.16016-.26953.625.53906 1.33984-.26953.71485-.98828.98437-1.34375.44531-.17969.80469-.35937 1.875-.53907 1.78516-.44921 1.25-.26954 1.16015-.08984 1.69922-.08984 1.96094-.26954 1.25-.08984h.53906l.625-.08984h.89063l2.14453-.17969 2.41015-.17969 2.58985-.08984 1.69531.17969 1.60938.08984 1.42968.35938 1.16016.71875 1.875.98828 1.16015 1.52734.26563.71484.6289.08985.35548.89844.53515.53906.53516 1.52734 1.07422.35938h.53515l-.80469.53515.08985 1.70703.71484 2.69532.89063.80468.89453.98829.71484 1.2578 1.78516.53907 1.51953-.17969.35547 1.34375 1.60937-.80469.98047-.53906.26953.26953.31641-.21484.21875-.14453.80078.44922.44922-.35938h.35547l.53515-.26953.53907-.71875.53515-.26953.625-.98828 1.16016.44922.83984.3711 1.39454.61718 1.6953-.17969h1.60548l1.78515.08985.17969-1.70704.53516-1.34375.80468.26954.4922.84765.40233.40625-.08984.53906v.35938l.71485.44922.71093-.26953h1.42969l.35938.98828.4453 1.25781.71485 1.34375 1.25.6289 1.69531.62891.71485-.17969.17969-.53906.98046-.08984.44922.35937.08594 1.25782-.26563.6289-.53515.17969v.53906l.71484.98438.26563.53906.98437.98828.80078 1.07813-.26562.35937-.08985.89844-.625 2.33203-.35546 2.0664-.08985 1.79298-.17969.71875-.08984.53906v1.4375l-.98047 1.88281-.35937 1.70703-.53516.89844-.80469 1.16797-.26562.53906 2.05469 1.2539.08593.35938-.35546.53906-.08985-.17968v.80859l.08985 1.4375-.44532.71484-1.07422.09375-.26562.71485.53515.89844.8047.71875 1.16015.80859 1.33984.26953.44531.35938-.35546.44921-1.78907-.08984-1.25-.44922-.71484-.71875-.625-.08984-.17578 3.58984-.1875 1.3086h89.35937V311.70313h-55.26953v49.08203l.76172.125 3.28906.54296 2.02344 2.83594v2.7539l2.35156.33204 2.34766.33203h4.05078l-1.3789 4.16016-2.02344.70703-2.02344.70312-.54297.34375-2.59375 1.6172-.1875.11718-2.02344-2.07813-.73046-2.74218-2.67188-2.07813-1.375-3.5-.0664-.08203-1.95704-2.67188 2.75-1.41796v-49.08204H294.42187v91.41407l.1172.03125.1328.01172.07422.07421.10547.04688.08985.0586.08593.05859.08985.0586.29687.29687.0586.08984.03125.11719.02734.11719.01563.13671-.03125.1172-.0586.08983-.0586.08594-.04296.10547-.04688.10156-.02734.1211v.14453l.17578.26953.14844.14844.07422.08594.07422.07421.04296.10547.0625.08985.0586.08593.04297.10547.0586.08985.04687.10156.04296.10547.0586.08594.11719.17968.07421.07422.0625.08594.0586.08984.04297.10547.0586.08985.05858.08593.0625.08985.0586.08984.04297.10156.11719.17969.07421.07422.0586.08594.07422.07421.08984.0586.10547.04687h.14844l.1328-.01562.13282.01562.10156-.04687.07422-.07422.04688-.10156-.01563-.13281v-.14844l-.04687-.10547-.02735-.11719-.04687-.10156-.02735-.1211-.04296-.10156-.0625-.08984-.04297-.10156-.04297-.10547-.03125-.11719-.01563-.13281-.01171-.13672.08593-.0586.0586-.08593.12109-.03125.04297.10547.01562.1328v.1172l.0586.10156.0586.08984.08983.0586.14844.14843.0586.08985.04296.10547-.01171.10156.08593.0586.10547.04687.08594.0586.08984.05858.07422.07422-.11719.02735-.10546.04687-.08594.0586-.07422.07421-.0586.08985-.0625.08594-.02734.12109-.04687.10156-.04297.10547-.03125.11719-.01172.13281-.01563.13281v.14844l.02735.11719.04687.10547.04297.10156.0586.08984.07421.07422.08985.0586.07422.07421.08984.0586.0586.08984.04296.10547.04688.10156.11719.03125.1328.01563h.14845l.11718-.03125.10547.04297.04297.10547.04688.10156.02734.1211L299.5 410l.02734.11719.03125.1211.02735.11718.10547.04297.10156.04687.13281-.01562.14844.14844.0625.08593.07422.07422.07031.07422.08984.0625.10547.04297.10156.04297.1172.03125.13671.01562.11719-.03125.07422-.07422.02734-.11718-.01172-.13282-.03125-.12109-.02734-.11719.04297-.10547h.11719l.08984.0625.11719.02735h.14843l.13282.01562h.14843l.13282.01563.1328-.01563h.14845l.1328-.01562.13282-.01172.13672.01172.11719-.02735.13281-.01562.1914-.0586-.05859.17579-.01562.1328-.02735.1211-.01562.13281-.0586.08594-.1328.01563-.10548.04687-.10546.04297-.1172.03125-.11718.02735-.26563.03125h-.14843l-.13281.01562-.07422.07422.05859.08594.14844.14843.11719.1797.07421.0703.08985.0625.08984.0586.08594.0586.08984.05858.10156.04297.10547.0625.10547.04297.08594.0586.10547.04687.10156.04297.17969.11719.0586.08984-.04298.10156-.04687.10547.01562.13281.22266.22266.0586.08985.04296.10156.03125.1211.04297.10155.01563.13282.03125.11718.01171.13672.03125.11719.14844.14844.10156.04297.10547.04296.1172.03125.1328.01563.13672.01563h.11719l.11719-.03125.08984-.0586.04297-.10547.04688-.10156.04296-.10547.03125-.11719.01172-.1328v-.14845l-.01172-.1328-.01562-.13282-.03125-.11719-.04297-.10547-.04688-.10547-.04296-.10156-.04297-.10547-.01563-.13281.01563-.13281.02734-.11719.03125-.11719.02735-.1211.04687-.10155.08984-.0586.08594-.0625.07422-.07422.08984-.05859.22266-.22266.0586-.08593.07421-.07422.11719-.17969.0586-.08594v-.14844l-.07423-.07421-.10156-.04688-.10547-.04297-.10156-.04297-.0586-.08984-.04687-.10547-.02734-.11719.08984-.05859.11719-.03125.10156-.04297.17969-.11719.14844-.14843.01172-.13282-.01172-.10546-.08985-.0586-.1328.01563h-.14845l-.1328.01562-.13282-.01562-.1211-.03125-.08593-.0586-.07422-.07422-.0586-.08984-.0625-.08594-.11718-.17969-.0586-.08593.03125-.1211.08594-.05859.1211-.03125.05859-.08594v-.1211l-.03125-.11718-.0586-.08984-.05859-.08594-.04687-.10547-.02735-.11719-.01562-.1328.0586-.08985.07421-.07422.08984-.0586.1172-.17968.07421-.07422.0586-.08594.14843-.14844.1211-.03125.1328-.01562.13282.01562.07422.07422.04297.10547.01562.13281-.03125.1172-.11719.03124-.1328.01172-.14844.14844-.04297.10547-.04688.10156-.02734.1211-.03125.11718v.14844l.03125.11719.04297.10546.05859.08985.07422.07031.07422.07422.11719.03125.12109.02734.11719-.02734.1328-.01563h.1172l.08984.0586.07422.07422.04687.10546.0586.08594.10156.04688.13281.01562.10547.04297.08594.0586-.01172.10546-.07422.07422-.17969.11719-.05859.08984-.08984.0586-.07032.07422-.07421.07421-.0625.08985-.02735.11719-.01562.1328.01562.13282-.01562.13281v.14844l.01562.13281.02735.1172.03125.12108.07421.07422.08985.0586.08594.0586.08984.05858.11719.03125v.08594l-.10157.04688-.08984.0586-.26563.03124-.11718.02735h-.14844l-.10547.04296-.10156.04688-.0586.08984-.0625.23438-.01171.13281-.03125.1211-.01563.1328v.29298l-.01172.1328.01172.13673.01563.1328.1328.01563.13282.01172.1211.03125.08593.0586.07422.07421.04688.10547.04296.10157.01563.1328v.44532l-.01563.13281v.44532l.03125.26562.02735.11719.01562.13281.03125.11719.08594.21094.03125.26562v.14844l-.03125.11719-.02734.11718-.03125.1211-.02735.11719-.03125.11718-.03125.1211-.01171.1328-.01563.13282.08984.0586.1172-.03125.10155.01562.04688.10547-.03125.26562v.44141l-.04297.10547-.04688.10547-.04296.10156-.04297.10547-.0586.08594-.03125.12109-.04296.11719-.03125.11719-.01563.1328.01563.13282.05859.08984.10547.04688.08594.0586.05859.08593-.01172.13672-.03125.11719-.04297.10156v.44531l-.01562.13281v.14844l-.03125.11719-.04297.10547-.02735.11719-.04687.10546-.04297.10157-.03125.12109-.02734.11719-.03125.13281-.03125.11719-.02735.11719-.04297.10546-.03125.1172-.03125.12108-.01171.13282-.01563.13281v.29688l.02734.11718v.14844l.04688.39844.02734.11719.0586.08984.12109.03125h.14844l.13281-.01563.0586.08985v.11719l-.0586.08984-.08984.0586-.10157.04296-.10546.04688-.08985.05859-.08594.0586-.13671.01562-.1172-.03125-.1328-.01563-.10157.04688-.0625.08594-.01172.13671-.01562.13282-.03125.11719-.02735.11718-.01562.13281-.03125.1211v.29687l.01563.13282.03125.11718v.14844l.01171.13281v.14844l-.02734.11719-.04688.10156-.02734.1211-.03125.11718-.0586.08985-.07421.07421-.10156.04297-.10547.04688-.11719.02734-.1211.03125-.10156-.04687.0586-.08594.10547-.04688.02734-.11718.03125-.11719.02734-.1211.03125-.11718v-.14844l.01563-.13281-.03125-.11719-.04297-.10547-.10547.01563-.07422.07422-.10156.04296-.08984.0625-.07422.07422-.04297.10157-.01563.1328-.03125.1172L304.25 426l-.03125.11719-.02734.11719-.03125.12109-.02735.11719-.03125.11718-.04297.10547-.08984.0586h-.08984l-.1172-.03125-.03124-.08594.01562-.13672-.03125-.11719v-.14844l-.01171-.1328v-.14844l-.0625-.23438-.02735-.1211-.04297-.10156-.04687-.10546-.0586-.08594-.05859-.08985-.04297-.10546-.0625-.08594-.14844-.14844-.0703-.07422-.10548-.04687-.10547-.04297-.10156-.04297-.29687-.29688-.08985-.07421-.08594-.0586-.10546-.04297-.08985-.0625-.08594-.0586-.10546-.04296-.08985-.0586-.08594-.0625-.07421-.0703-.10547-.04688-.08594-.0586-.10547-.04296-.08984-.0625-.10156-.04297-.10547-.04297-.08594-.0586-.10547-.04687-.10547-.04297-.10156-.04687-.08985-.0586-.10156-.04297-.10547-.04296-.08984-.0625-.11719-.02735-.13281-.01562-.13281.01562H299.75l-.13281.01563-.11719-.03125-.08984-.0586-.07422-.07422-.08985-.05859-.10156-.04688h-.14844l-.12109-.02734-.10156-.04297-.07422-.07422-.11719-.17968-.08984-.0586-.10156-.04297-.08985-.0625-.10547-.04296-.08984-.0586-.08594-.0586-.10547-.04687-.0586-.08594-.05858-.08984-.04297-.10547-.04688-.10156-.07422-.07422-.08594-.0586-.07421-.07421-.08985-.0586-.22265-.22265-.04297-.10547-.03125-.26563.10547-.04296h.14453l.10547.04296.07421.07422.08985.0586.08594.0586.10546.04687.08985.05859.14844.14844.0703.07422.14845.14843.0625.08594.07421.07422.08594.0586.07422.07421.08985.0625.08984.0586.08594.05859.26953.17578.10156.04688.10547.04296.10156.04297.04688-.07421.05859-.08594.07422-.07422.07031-.07422.10547.04297.07422.07422.0586.08984.04296.10156.04688.10547.04296.10547.1211.02735.11719-.02735.07421-.08984.04297-.10547.0586-.08985.07422-.07421.10546-.04297.1172-.02735.1328.01172.08985.0586.14844.14843.05859.08985.04297.10547.04687.10156.04297.10547.04297.10156.10547.04688.10547.04296.13281.01563.08594-.0586.0586-.08984.07421-.07422.10547-.04297.11719.02735.10547.04687.10156.04297.10547.04297.10156.04688.17969.11718v.11719l-.01563.13281.01563.13281.01562.13672.0586.08594.10156.04688.1211.02734.11718.03125h.14844l.11719-.03125.05859-.08984.17969-.1172.05859-.08983.07422-.07422.0586-.08594.11718-.17969.17969-.11719.11719.03125.08984.0586.04297.07422-.01563.1328v.1172l.08985.05859h.14843l.13282-.01563.1328-.01171.26563-.03125.10547-.04297.11719-.03125.1211-.02735.07421-.07421.07031-.07422.0625-.08985-.01562-.10547-.04688-.10156-.10156-.04297-.10547-.01562-.11718.02734-.26563.03125h-.14844l-.07421-.07422-.08985-.0586-.11719-.03124-.11718-.02735-.13282-.01562h-.14843l-.13282.01563h-.29687l-.10547-.04688-.14844-.14844-.04297-.10156-.05859-.08984.22266-.22266.08593-.0586.10547-.04296.11719-.03125.13281-.01563.13281.01563.13672.01562.10157.04297.1328-.01172.08985-.0625.10156-.04297.0625-.08984-.04687-.10156-.08984-.0586-.1172-.03125-.10155-.04296-.0586-.08985-.0625-.08984v-.11719l.01563-.13281.10547-.04688.07421-.07031v-.1211l-.08984-.05859-.03125-.11719.08985-.05859.07421-.07422.04297-.10547.0586-.08984.04687-.10156.01563-.13281v-.14844l-.04688-.10547-.04297-.10156-.08984-.0586-.13281-.01562-.10157-.04297-.13671-.01563-.1172-.03125h-.4453l-.13282-.01562-.13281-.01172-.13281-.01563-.11719-.03125h-.14844l-.13281-.01562-.13281-.01172-.26563-.03125-.1211-.04297-.08593-.0586-.07422-.07421v-.14844l.01172-.13281.10547-.04688.10156-.04296.13281-.01563h.15235l.13281-.01562h.29297l.1211.03125.10156.04296.08984.0586.23438.0625.12109-.04688.08984-.05859.10156-.04297.13282-.01562.10547.04296.10156.04688.13281.01172.1211-.02735h.14453l.12109-.03125.11719-.02734.10547-.04687.07421-.07422.08594-.0586.14844-.14843.0586-.08594.04687-.10547.02734-.11719.01563-.10547-.10156-.04296-.08985-.0586-.11719-.03125-.10546-.04297-.08985-.0625-.07422-.08594-.07422-.07421-.10156-.04297-.10547-.04688-.10156-.04297-.0586-.08984-.04687-.10156-.08594-.21094-.0625-.08594-.05859-.08984-.07422-.07422-.08594-.0586h-.26953l-.11719.03126-.08984.05859-.10156.04297-.13281.01562-.10547-.01562-.02735-.11719-.0625-.08984-.11718-.03125-.10157-.04297-.14843-.14844-.03125-.11719-.01563-.10546.07422-.07422.17969-.1172.11719-.02733.11718-.03125.13672.01562.10156.04297.10547.04297.10156.04687.10547.04297.1172.03125.1328.01563.1172.02734.1328.01563.10547-.01563.08985-.0586-.07422-.07421-.10547-.04297-.07422-.07422-.07422-.08984-.14844-.14844-.08593-.0586-.08985-.05859-.07422-.07422-.08984-.0586-.10156-.04687-.1211-.02734-.10156-.04688-.10547-.04296-.11719-.03125-.10156-.04297-.1211-.03125h-.14843l-.11719.03125-.10546.04297-.08594.0625-.17969.11718-.08594.0586-.08984.0586-.10547.04687-.08594.05859-.10547.04297-.10156.04297-.10547.04687-.07422.07422-.05859.08985-.0586.08593-.04687.10547-.0586.08594-.07421.07422-.13281-.01172-.1172-.03125h-.11718l-.07422.07422-.08984.0586-.07422.07421-.08984.0586-.08594.05859-.10547.04687-.10156.04297-.13672.01563-.10156-.04297-.14844-.14844-.10547-.04688h-.08594l-.10547.04688-.10156.04297-.1211.03125-.11718-.03125-.07422-.07422v-.11719l.03125-.1211.07422-.0703.0586-.08985.07421-.07422.11719-.03125.10547-.04296h.29297l.13281-.01563.13672-.01563.10156-.04296.08985-.0586.10156-.04687.08984-.0586.13281-.01171.08985.05859.13281.01172.08984-.0586.08594-.05859.10547-.04297.08984-.0586.08594-.0625.08985-.05859.14843-.14843.0586-.08594.05859-.08985.10547-.04296.13281-.01563.11719.02735.1211.03125.05859-.0586.05859-.08984.03125-.26563.02734-.11719.10547.01172.13281.01563.10157-.04297.08984-.0586.0586-.08984.07421-.07422.0586-.08984.04687-.10156.01172-.13281-.01172-.13282-.04687-.10547-.14844-.14843-.0586-.08985-.05859-.08594-.04297-.10546v-.44532l.01563-.1328v-.14845l.01172-.1328-.0586-.0586-.08984.0586-.10156-.04298-.17969-.11719-.08594-.05859-.0625-.08984-.0586-.08985-.07421-.07421-.08594-.0586-.1211.03125-.10155.01172-.10547.04688-.08594.05859-.10547.04297-.14844.14844-.08984.05859-.08594.0586-.08984.0625-.10547.04296-.13281.01563v-.1211l.10547-.04297.11718-.03125.07422-.0703.04297-.10548v-.14844l-.02734-.11718-.14844-.14844-.13281-.01563h-.14844l-.11719.03125-.10547.04297-.10156.04297-.08984.0625-.11719.02735-.07422-.07422.01172-.13281-.04297-.10157-.04297-.10547-.08984-.05859-.11719.02734-.1211.03125-.11718.03125-.10156.04297-.1211.03125-.10156.04297-.10547.04297-.08984.0586-.10156.01562v-.11719l.01562-.13281-.0586-.08985-.07421.04297-.14844.14844-.0586.08985-.07421.07421-.04688.10547-.04296.10156-.07422.07422-.0586.08985-.07422.07422-.05859.08593-.07422.07422-.08984.0625-.07422.07031-.07422.07422-.10156.01563-.13281.01562-.10547-.04296v-.1211l.14843-.14844.04297-.10156.0586-.08984.04687-.10156.04297-.10547.0586-.08985.03124-.11719.04297-.10156.03125-.1211.02735-.11718.04687-.10547.04297-.10156.04297-.10547.07422-.07031.08984-.0625.08985-.0586.10156-.04296h.29687l.26563-.03125.10547-.04297-.07422-.07422-.11719-.03125-.10547-.04297-.08984-.0586-.10156-.04687-.08985-.0586-.10156-.04296-.10547-.04297-.08984-.0625-.08594-.0586-.10547-.04296-.10156-.04297-.1211-.03125-.11718-.03125-.10157-.04297L297.5 410.25l-.10156-.04297-.08985-.0586-.04296-.10546-.01563-.13281.10156-.04297.13281-.01563.13672.01563.13282-.01563.10156-.04297.0586-.08984.01562-.10547-.08985-.0586-.07421-.07421-.10157-.04297-.08984-.0586-.14844-.14843-.04297-.10547-.01562-.13281v-.29297l-.0586-.08985-.08984-.05859-.07422-.07422-.04297-.10547-.03125-.11718-.0586-.08985-.07421-.07422-.11719-.02734-.07422-.07422-.08984-.0586-.08984-.0625-.08594-.05859-.07422-.07421-.0586-.08594-.04687-.10547-.08594-.0586-.14843-.14843-.19532-.0586-.1328.01563-.10157.04297-.07422.07422-.04688.10156-.04296.10547-.0586.08984-.0586.08594-.29687.29687-.08984.0586h-.08594l-.0625-.08594-.04297-.10547.03125-.11719.0586-.08984.02734-.11719-.01172-.13281-.08984-.0625-.10547.04688-.11719.02734-.11719.03125-.26953.17578-.10156.04688-.11719.02734-.10546.04687-.08985.0586-.10156.04297-.0586-.08594-.04687-.10547.01563-.13281.04687-.10547.07031-.07422.07422-.07031.0586-.08985v-.14843l-.04297-.10547h-.23829l-.10156.04687-.03125.11719-.02734.11719-.03125.1211-.07422.04296-.13281.01563-.07422-.04688-.04297-.10156-.04297-.10547-.04687-.10156-.04297-.10547-.1211.03125-.10156.04297-.13281.01562-.11719.03125-.10547.04297-.08984.0586-.10156.04687-.1211.02734-.13281.01563-.10156-.04297-.0586-.08985-.04687-.10546-.04297-.10157-.04297-.10546v-.1172l.0586-.08984.08593-.05859.17969-.11719.10156-.04687.10547-.04297.10547-.0586.10156-.04296.08985-.0625.10156-.04297.10547-.0586.10156-.04687.08984-.0586.10547-.04296.10156-.04297.08985-.0625.10156-.04297.13672-.01563.11719.03125.10156.04297.1211.03125.10156.04297.10546.04688.10157.04296.10547.04297.10156.04688.10547.04297.10156.04297.10547.04687.08594.0586.10546.04296.1172.03125.10546.04297.10156.04688.08985.0586.10547.04296.10156.04297.10547.04687.11719.02735.10156.04687.1211.02735h.14843l.08594-.0586.01562-.10156.0586-.08984-.02735-.1172-.07422-.07421-.11719-.17969-.07421-.07422-.08985-.07421-.17969-.1172-.08593-.05859-.10547-.04296-.10156-.04688-.26954-.17578-.05859-.08985-.07422-.07421-.0586-.08985-.04296-.10156-.03125-.11719-.01563-.13672v-.5625l-.01171-.1328-.01563-.13282-.03125-.11719-.01562-.13281-.01172-.13281-.03125-.1211-.22266-.22265-.0586-.08594-.01562-.10547.03125-.11719.13281-.01562v-91.41406H172.9922v1.45312l-.0586.23438-.35156 1.05078-.17187.52343-.1172.34766-.17577.41016-.11719.17187-.23438.29297-.23046.0586h-.35157l-.11718.05859-.23047.40625v.29297l.11719.17578.23046.23047.1172.23437.64062.75781.29297.46485.17578.23437.23047.35156.23437.34766.64063.8164.17578.46485.17187.41016.11719.69531.17578.46875.11719 1.39844.0586.46484v.875l.11718 1.04688v4.78125l-.0586.46484-.35156 1.28125-.17578.52344-.11328.41015-.35156.9297L172.93359 336l-.23437.58203-.11719.17578-.17187.34766-.17578.40625-.35157.8164-.0586.29297-.11327.29297-.11719.28906-.0586.17579-.11718.875-.0586.40625-.05859.11718-.0586.17579-.05859.17187-.23047.52734-.11718.17188v.23437l-.11719.23438-.0586.17187-.17577.58594v.28906l-.0586.17579v.29296l-.0586.11329-.05859.52734v.17187l-.05468.23438v2.6211l-.17578.8164-.1172.17578-.17577.23438-.1172.17187-.11327.23438-.58594.93359-.23047.28906-.29297.46485-.17578.23437-.28906.35156-.35156.69922-.11328.23047-.17579.41016-.17578.23046-.40625.52735-.8164.69922-.29297.17187-.28906.23438-.17579.11719-.17578.17578-.52344.40625-.52734.17578-.17187.17578-.23438.05469-.64062.17578h-.75782m12.21094 31.02344l-1.07422.44921.35938.89454 1.25-.71485.44531-.53906-.98047-.08985"/><path fill="#d3d3d3" fill-opacity="0" fill-rule="evenodd" d="M201.50781 416.59766h-.89453l.44922.6289.98047.35938.80469-.08985.4453-.98828-.17577.08985-.71485-.35547-.89453.35547m154.6211 59.0703l-.0586-.52343v-.29297l.11328-.29297.0586-.23046.46875-.46875h.11328l.11719-.11329.11718-.05859h.17579l.23437-.0586h.34766l.23437.0586.11719.0586.23047.17187.0586.17578.11718.58203v.29297l-.11719.17578-.17187.28906-.17579.17579-.52734.52343-.23047.23438-.11719.0586h-.17578l-.11718-.0586-.40625-.29297-.17579-.11719-.11718-.0586-.0586-.11327-.05468-.1172m6.64062-10.95702l-.0586-.17188v-1.10937l.0586-.17188.17578-.0586.17188-.05858h.17578l.23437-.0586.1172.0586.05858.69921-.05859.17188-.11719.17578-.11718.0586-.23438.52343-.11328.0586h-.23438l-.05859-.1172m9.61328-14.39062l-.11719-.17578v-.69922l.29297-.875.1172-.17187.17577-.35156.11328-.23047.1172-.29297.35155-.75781.1172-.23047.17187-.23438h.17578l.11719-.0586h.64062l.11719.0586.23437.23438.17188.11328.35156.29297.11719.11718.11328.17579v.11328l.11719.05859.11718.11719v.69922l-.05859.17578v.23047l-.0586.17578-.34765 1.05078-.11719.23047-.11719.23437-.11718.0586-.23047.23437-.64063.28906h-.875l-.41015-.11718-.64063-.46485"/><path fill="none" stroke="#bebebe" stroke-linecap="round" stroke-linejoin="round" stroke-miterlimit="10" stroke-width=".5" d="M467.95703 311.69531H144.02734v168.625h323.9297v-168.625"/><g clip-path="url(#a)"><path fill="#fff" fill-opacity="0" fill-rule="evenodd" d="M144 475.89063v4.4375h.0039H144v-39.09766 34.66015"/></g><g clip-path="url(#b)"><path fill="#fff" fill-opacity="0" fill-rule="evenodd" d="M144 431.50781v.89844-120.73438h.0039H144v119.83594"/></g><path fill="#50fcfc" fill-rule="evenodd" d="M144 432.40625v8.82422h.0039v-8.82031l-.0039-.00391"/><g clip-path="url(#c)"><path fill="#fff" fill-opacity="0" fill-rule="evenodd" d="M144.0039 480.32813v-39.09766l4.4336.21875 2.8164-1.0664-2.8164-1.375-1.91406-3.0625-2.51953-3.53516V311.67187h57.6953V405.875l-2.16796 3.4414-1.69922 4.4375 3.86719 4.22657.54297.21094 2.50781 4.4375-3.05078 1.03125-1.0625-1.03125-3.375-4.26954-.21484-.16796L192.8203 416.5l-4.4375 1.01563-.95703.67578-3.48047 1.3164-4.4375.8086-2.7461 2.3125-1.6953.6875-4.4375.6328-3.48438 3.1211-.95312.76172-4.4375 2.08985-1.70313 1.58593-2.08594 4.4375.5 4.4375.96094 4.4375-1.01562 4.4414-.21094 4.4375.86719 4.4375 2.6875 2.8672 4.4375-.46094 4.4375-.85156 4.4375-.62891 4.4414 1.42578 4.4375 1.29688 4.21875-3.64844.21875-.2461.49219.2461 2.27734 4.4375 1.66797.78515 1.30078-.78515 3.14063-1.92969 4.4375-.60937 4.4375.80859 4.4375-.89844 1.96875-1.8086 2.47266-2.23437 3.4414-2.20312.9961-2.48828.96484-1.94922 2.1875-4.4414 1.28516-2.42579 3.53906-2.01172.85156-4.4375.04688-.02344.01562.02344.23047 4.4375 3.9336 4.4375.2578.14063.34766-.14063 4.09375-.35937 4.4375-.08203 4.4375-.33594v3.88281l-1.84375 1.33594 1.84375 1.66406 1.27734-1.66406-1.27734-1.33594v-3.88281l3.75-3.66016.6875-2.17969 4.4375 1.72266 4.4414-.66406 3.2461-3.3164 1.1914-1.96876 3.36329-2.46875-3.36328-3.1836-4.4375-.28905-4.4414-.4336-4.4375 1.17578-3.83985 2.73047-.59766.07031-.125-.0703-1.29297-4.4375-3.01953-1.40235-2.48828 1.40234-1.94922.1211-4.4414.10546-.2422-.22656-4.1953-3.92578-2.44922-.51562-1.98828-1.8711-4.4375-2.1875-4.4375.70313-.44922-1.08203-3.9922-3.51172-1.48827-.92578-2.94922-3.51563-1.08594-.92187-3.35156-3.44141v-94.20313h23.25781l3.3711 3.3711 4.4375.125 3.5039-3.4961h40.88281V425.875l-1.40625 1.19531-3.03515.92969-3.55469 3.50781 3.55469 2.73828 4.4414.21485 1.53516 1.48437 2.90234 2.86719 4.40625-2.86719-4.09765-4.4375-.3086-.66015-2.92968-3.77735-1.50782-1.19531V311.67187h26.62891v142.00391l-.01953.02344.01953.04297.07813-.04297-.07813-.02344v-142.0039h8.875v136.78906l-.32422.80078.32422.64453.26563-.64453-.26563-.80078V311.67188h8.8789V434.6953l-4.4375 1.10938-.16796.14062.16797.3164 3.03125 4.1211 1.40625 1.73828 1.53906-1.73828 2.89844-3.50781.79687-.92969-.79687-.90625-4.4375-.34375V311.67187h53.2578v136.42579l-3.94921 1.16406 3.94922 1.03515 4.28125 3.40235.16015.19922.32813-.19922-.32813-.30469-2.77734-4.13281-1.66406-1.16406V311.67187h13.3164v143.70704l-1.65625 2.7578-.57421 4.4375-2.20704 4.14063-.11328.30079-.28906 4.4375.40235 1.48437 4.4375.60156 3.17968-2.08594-1.71094-4.4375.3047-4.4414-.14844-4.4375-1.625-2.75781V311.67187h79.88671v162.56641l-1.65625 1.65235-2.77734 2.07421-2.35938 2.36329h-8.61718l-2.33985-2.02735-2.02734 2.02735h-48.9336l-2.30077-2.625-4.4375-1.58594-4.4375.20312-3.96094 4.00781H144.0039"/></g><path fill="#50fcfc" fill-rule="evenodd" d="M148.4375 441.44922l-4.4336-.21875v-8.82031l2.51954 3.53515 1.91406 3.0625 2.8164 1.375-2.8164 1.0664m10.02734-1.0664l-.5-4.4375 2.08594-4.4375 1.70313-1.58594 4.4375-2.08984.95312-.76172 3.48438-3.1211 4.4375-.6328 1.6953-.6875 2.7461-2.3125 4.4375-.8086 3.48047-1.3164.95703-.67579 4.4375-1.01562 4.22656 1.6914.21485.16798 3.375 4.26953 1.0625 1.03125 3.05078-1.03125-2.50781-4.4375-.54297-.21094-3.86719-4.22656 1.69922-4.4375 2.16797-3.44141v4.24219l-2.4414 3.63672 2.4414 2.66796 3.90625-2.66796-3.90625-3.63672V405.875l3.35156 3.4414 1.08594.92188 2.94922 3.51563 1.48828.92578v2.39062l-4.21875 1.1211 4.21875 2.82421 1.27344-2.82421-1.27344-1.1211v-2.39062l3.99219 3.51172.44922 1.08203 4.4375-.70313v1.29688l-3.60938 2.76172 3.60938 4.09375.54687.34765-.54688.58594-4.4375.30469-1.64062-.89063-2.80078-3-4.4375.6289-2.875 2.3711-1.5625 2.83985-4.4375.55468-3.32813-3.39453-1.11328-1.50781-4.4375-1.2539-4.1836-1.6797-.2539-.0703-.33203.0703-4.10547.95704-4.4414 1.29297-4.4375 1.1875-1.1172 1.0039-3.3203 2.65625-2.60938 1.78125-1.82812 2.38281-1.3711 2.0547.85938 4.4375.51172 1.80077.7578 2.63672-.7578 1.03906-1.56641 3.40235-.4414 4.4375 2.0078 4.3125 4.4375-.95703 4.4375-1.20703 3.29298-2.14844 1.14453-.39844 4.4414-1.95312 2.3789-2.08594 2.0586-1.85547v10.57031l-.3086.16016.3086.1211.13672-.1211-.13672-.16016v-10.57031l4.4375 1.21484 2.61328.64063 1.82422 1.20703 1.95703-1.20703 2.48438-2.5625v6.28125l-.92969.71875.92969 1.14844.21484-1.14844-.21484-.71875v-6.28125l4.28906-1.8789.14844-.01173v4.84766l-2.83984 4.04297 2.83984 3.4336 3.92969-3.4336-3.9297-4.04297v-4.84766l.1172.01172 4.3203 3.39844 1.5586 1.04297 2.8789.78125 1.34376-.78125-1.34375-2.375-1.46094-2.0664 1.46094-.3711 3.98437-4.0664.45703-.2422 4.4375-1.54687 4.05079-2.64844.38672-.23828 4.4375-1.76172 1.49218 2 2.94531 3.95703.9336.48047 3.50781 1.9414 4.4375.9297 4.4375-.46875 2.46094-2.40235 1.6914-4.4375-4.15234-3.78125-1.13672-.65625-3.30078-3.59375-4.4375-.05078-4.4414.4414-1.32032-1.23437-3.11719-2.92187-4.4375-.1211-.96093-1.39843-3.47656-2.76172v-1.29688l4.4375 2.1875 1.98828 1.8711 2.44922.51562 4.1953 3.92578.2422.22656 4.4414-.10546 1.94922-.1211 2.48828-1.40234 3.01953 1.40234 1.29297 4.4375.125.07031.59766-.0703 3.83984-2.73048 4.4375-1.17578v1.3789l-3.99219 2.52735.03516 4.4375 3.95703 3.13281 4.4414-1.6914 1.41016-1.4414.125-4.4375-1.53515-.3086-4.4414-2.21875v-1.3789l4.4414.43359 4.4375.28906 3.36328 3.1836-3.36328 2.46874-1.1914 1.96875-3.2461 3.3164-4.4414.66407-4.4375-1.72265-.6875 2.17968-3.75 3.66016-4.4375.33594-4.4375.08203-4.09376.35937-.34766.14063-.2578-.14063-3.9336-4.4375-.23047-4.4375-.01563-.02344-.04687.02344-.85156 4.4375-3.53906 2.01172-1.28516 2.42578-2.1875 4.4414-.96484 1.94923-.9961 2.48828-3.4414 2.20312-2.47266 2.23438-1.96875 1.8086-4.4375.89843-4.4375-.8086-4.4375.60938-3.14063 1.92969-1.30078.78515-1.66797-.78515-2.27734-4.4375-.49219-.2461-.21875.2461-4.21875 3.64844-4.4375-1.29688-4.4414-1.42578-4.4375.6289-4.4375.85157-4.4375.46094-2.6875-2.8672-.8672-4.4375.21095-4.4375 1.01562-4.4414-.96094-4.4375"/><path fill="#00e8fc" fill-rule="evenodd" d="M161.7539 458.01172l-2.0078-4.3125.4414-4.4375 1.5664-3.40235.75782-1.03906-.75781-2.63672-.51172-1.80078-.85938-4.4375 1.3711-2.05469 1.82812-2.3828 2.60938-1.78126 3.3203-2.65625 1.1172-1.0039 4.4375-1.1875v3.27343l-4.4375 2.12891-1.70703 1.22656-.98829 4.4375 2.69532 1.38281 1.23047 3.0547-1.02735 4.4375-.20312.23046-4.4375.8789-2.57813 3.33204 2.57813 3.20312 4.4375-.54687 4.4375-1.2539 1.99218-1.40235 2.44922-3.36328 1.17188-1.07813 3.26562-2.1211 4.26953-2.3164.16797-.1289 1.8711-4.3086-1.8711-3.41797-4.4375.33594-3.03125-1.35547-1.40625-1.59375-4.4414-1.76172v-3.27343l4.4414-1.29297 4.10547-.95703.33203-.07032.2539.07032 4.1836 1.67968 4.4375 1.25391v8.72266l-.28515 1.66015.28515 1.5039.55469-1.5039-.55469-1.66015v-8.72266l1.11328 1.50781 3.32813 3.39453 4.4375-.55468 1.5625-2.83985 2.875-2.3711v4.59767l-1.34766 2.21093-3.08984 3.78906-2.40234.64844 2.40234 2.29297 1.07812 2.14453 3.35938 1.375 2.14062-1.375 2.29688-2.13281 4.4414-1.82031.60547-.48438-.60547-1.63672-2.21093-2.80078-2.23047-1.125-4.4375-1.08594v-4.59765l4.4375-.6289 2.80078 3 1.64063.89062 4.4375-.30469.54687-.58594-.54688-.34765-3.60937-4.09375 3.60938-2.76172v2.16797l-.77735.59375.77734.8828.7461-.8828-.7461-.59375v-2.16797l3.47657 2.76172.96094 1.39843 4.4375.1211v1.67969l-3.3711 1.24218 3.3711 3.28125.98437 1.15625 2.97266 4.4375.48047.64844 4.4414 2.67969 2.04688 1.10937 2.39062.9961 4.4375-.69141.3125-.30469 2.77344-4.4375-3.08594-2.8125-2.82031-1.625-1.61719-1.76172-4.4375-.76171-4.4414.99609-3.11329-2.91016-1.32422-1.24219v-1.67968l3.1172 2.92187 1.3203 1.23438 4.44141-.4414 4.4375.05077 3.30078 3.59375 1.13672.65625 4.15234 3.78125-1.6914 4.4375-2.46094 2.40235-4.4375.46875-4.4375-.9297-3.50781-1.9414-.9336-.48047-2.9453-3.95703-1.4922-2-4.4375 1.76172-.38671.23828-4.05078 2.64844-4.4375 1.54688-.45704.24218-3.98437 4.0664-1.46094.3711 1.46094 2.0664 1.34375 2.375-1.34375.78126-2.8789-.78125-1.5586-1.04297-4.32031-3.39844-.1172-.01172-.14843.01172-4.28906 1.8789-2.48438 2.5625-1.95703 1.20704-1.82422-1.20703-2.61328-.64063-4.4375-1.21484-2.0586 1.85547-2.3789 2.08594-4.4414 1.95312-1.14453.39844-3.29297 2.14844-4.4375 1.20703-4.4375.95703"/><path fill="#00d4fc" fill-rule="evenodd" d="M166.1914 452.46484l-2.57812-3.20312 2.57813-3.33203 4.4375-.8789.20312-.23048 1.02734-4.4375-1.23046-3.05469-2.69532-1.3828.98828-4.4375 1.70704-1.22657 4.4375-2.1289 4.4414 1.76171 1.40625 1.59375 3.03125 1.35547v3.04688l-.17187.03515-4.26563 2.65625-1.80469 1.78125 1.8047.84766 1.5039-.84766 2.9336-4.30469.26171-.1328-.26172-.03516v-3.04688l4.4375-.33594 1.8711 3.41797-1.8711 4.3086-.16797.1289-4.26953 2.3164-3.26562 2.1211-1.17188 1.07813-2.44922 3.36328-1.99218 1.40234-4.4375 1.2539-4.4375.54688"/><path fill="#00c4fc" fill-rule="evenodd" d="M179.50781 441.23047l-1.80469-.84766 1.8047-1.78125 4.26562-2.65625.17187-.03515.26172.03515-.26172.13281-2.9336 4.3047-1.5039.84765"/><path fill="#00e8fc" fill-rule="evenodd" d="M183.94531 458.25781l-.3086-.1211.3086-.16015.13672.16016-.13672.1211"/><path fill="#50fcfc" fill-rule="evenodd" d="M192.82031 434.28516l-.28515 1.66015.28515 1.5039.55469-1.5039-.55469-1.66015"/><path fill="#fff" fill-opacity="0" fill-rule="evenodd" d="M197.26172 452.98047l-.92969.71875.92969 1.14844.21484-1.14844-.21484-.71875"/><path fill="#00e8fc" fill-rule="evenodd" d="M201.69922 457.13281l-2.83984-3.4336 2.83984-4.04296v3.27734l-.53906.76563.53906.64844.74219-.64844-.7422-.76563v-3.27734l3.9297 4.04297-3.9297 3.4336m0-40.71094l-2.4414-2.66797 2.4414-3.63672v3.53906l-.0664.09766.0664.0703.10548-.0703-.10547-.09766v-3.53906l3.90625 3.63672-3.90625 2.66796"/><path fill="#00d4fc" fill-rule="evenodd" d="M201.69922 438.23828l-2.40234-2.29297 2.40234-.64844 3.08984-3.78906 1.34766-2.21094 4.4375 1.08594 2.23047 1.125 2.21094 2.80078.60546 1.63672-.60547.48438-4.4414 1.82031-2.29688 2.13281-2.14062 1.375-3.35938-1.375-1.07812-2.14453m0 16.10938l-.53906-.64844.53906-.76563.74219.76563-.7422.64844m0-40.52344l-.0664-.07031.0664-.09766.10548.09766-.10547.0703"/><path fill="#00e8fc" fill-rule="evenodd" d="M210.57422 421.01563l-4.21875-2.82422 4.21875-1.1211 1.27344 1.1211-1.27344 2.82421"/><path fill="#00d4fc" fill-rule="evenodd" d="M219.45313 423.51172l-.77735-.88281.77734-.59375.7461.59375-.7461.8828m8.875 6.83985l-3.37109-3.28125 3.3711-1.24219 1.32421 1.2422 3.11328 2.91015 4.44141-.9961v1.1211l-4.14062 1.40234 2.76562 4.4375 1.375.88281 4.4375 2.6836 4.4375-.50781 2.01953-3.0586-2.01953-1.83984-4.4375-2.50781-.13672-.08985-4.30078-1.40234v-1.1211l4.4375.76172 1.61719 1.76172 2.82031 1.625 3.08594 2.8125-2.77344 4.4375-.3125.30469-4.4375.6914-2.39062-.99609-2.04688-1.10937-4.4414-2.67969-.48047-.64844-2.97266-4.4375-.98438-1.15625"/><g clip-path="url(#d)"><path fill="#50fcfc" fill-rule="evenodd" d="M226.5625 311.67188h-1.60547l3.3711 3.37109 4.4375.125 3.5039-3.4961h-1.41406l-2.08984 2.08204-4.4375-.31641-1.76563-1.76563"/></g><g clip-path="url(#e)"><path fill="#00e8fc" fill-rule="evenodd" d="M232.36328 311.67188h-5.80078l1.76563 1.76562 4.4375.3164 2.08984-2.08202h-2.49219"/></g><path fill="#00c4fc" fill-rule="evenodd" d="M235.83203 435.94531l-2.76562-4.4375 4.14062-1.40234v1.125l-.82422.27734.82422 1.23828 1.8164 3.19922 2.6211 1.71094 4.4375-.26563.95313-1.4453-.95313-.8672-4.4375-1.21875-3.58594-2.35156-.85156-.27734v-1.125l4.30078 1.40234.13672.08985 4.4375 2.5078 2.01953 1.83985-2.01953 3.0586-4.4375.5078-4.4375-2.68358-1.375-.88282"/><path fill="#00b8fc" fill-rule="evenodd" d="M237.20703 432.7461l-.82422-1.23829.82422-.27734.85156.27734 3.58594 2.35156 4.4375 1.21875.95313.8672-.95313 1.4453-4.4375.26563-2.6211-1.71094-1.8164-3.19922"/><path fill="#50fcfc" fill-rule="evenodd" d="M246.08203 450.92578l-1.84375-1.66406 1.84375-1.33594 1.27734 1.33594-1.27734 1.66406"/><path fill="#00e8fc" fill-rule="evenodd" d="M251 435.94531l-.03516-4.4375 3.9922-2.52734v2.29687l-.36329.23047-1.8086 4.4375 2.17188 1.71875 3.07813-1.71875-2.64844-4.4375-.42969-.23047v-2.29687l4.4414 2.21875 1.53516.3086-.125 4.4375-1.41015 1.4414-4.4414 1.6914L251 435.94533"/><path fill="#00d4fc" fill-rule="evenodd" d="M254.95703 437.66406l-2.17187-1.71875 1.80859-4.4375.36328-.23047v3.8086l-.38281.85937.38281.30469.54688-.30469-.54688-.85937v-3.8086l.42969.23047 2.64844 4.4375-3.07813 1.71875"/><path fill="#00c4fc" fill-rule="evenodd" d="M254.95703 436.25l-.38281-.30469.38281-.85937.54688.85937-.54688.30469"/><path fill="#50fcfc" fill-rule="evenodd" d="M272.71094 434.2461l-3.55469-2.73829L272.71094 428l3.03515-.92969 1.40625-1.19531v4.53906l-4.4414.9375-.15625.15625.15625.1211 4.4414.53125 3.91797 3.78515.51953.51172.78516-.51172-.78516-.82422-3.42187-3.61328-1.01563-1.09375V425.875l1.50782 1.19531 2.92968 3.77735.3086.66015 4.09765 4.4375-4.40625 2.86719-2.90234-2.86719-1.53516-1.48437-4.4414-.21485"/><path fill="#00e8fc" fill-rule="evenodd" d="M272.71094 431.6289l-.15625-.12109.15625-.15625 4.4414-.9375 1.01563 1.09375 3.42187 3.61328.78516.82422-.78516.51172-.51953-.51172-3.91797-3.78515-4.4414-.53125"/><path fill="#50fcfc" fill-rule="evenodd" d="M303.78125 453.74219l-.01953-.04297.01953-.02344.07813.02344-.07813.04297m8.875-3.83594l-.32422-.64453.32422-.80078.26563.80078-.26563.64453m4.4414-13.64453l-.16796-.3164.16797-.14063 4.4375-1.10938 4.4375.34375.79687.90625-.79687.92969-2.89844 3.50781-1.53906 1.73828-1.40625-1.73828-3.03125-4.1211m57.6953 14.03517l-3.94921-1.03516 3.94922-1.16406 1.66406 1.16406 2.77735 4.13281.32812.30469-.32813.19922-.16015-.19922-4.28125-3.40235m8.8789 22.64063l-.40234-1.48438.28906-4.4375.11329-.30078 2.20703-4.14062.57421-4.4375 1.65625-2.75781 1.625 2.7578.14844 4.4375-.30469 4.44142 1.71094 4.4375-3.17969 2.08593-4.4375-.60156"/><g clip-path="url(#f)"><path fill="#50fcfc" fill-rule="evenodd" d="M384.14844 480.32813h1.71094l2.25-2.27735 4.4375-1.10937 4.05859 3.38671h2.67969l-2.30079-2.625-4.4375-1.58593-4.4375.20312-3.96093 4.00781"/></g><g clip-path="url(#g)"><path fill="#00e8fc" fill-rule="evenodd" d="M385.85938 480.32813l2.25-2.27735 4.4375-1.10937 4.05859 3.38671h-1.64063l-2.41796-2.01953-3.88282 2.01954h-2.80469"/></g><g clip-path="url(#h)"><path fill="#00d4fc" fill-rule="evenodd" d="M388.66406 480.32813h2.63672l1.2461-.64844.77734.64844h1.64062l-2.41796-2.01954-3.88282 2.01954"/></g><g clip-path="url(#i)"><path fill="#00c4fc" fill-rule="evenodd" d="M391.30078 480.32813l1.2461-.64844.77734.64844h-2.02344"/></g><g clip-path="url(#j)"><path fill="#50fcfc" fill-rule="evenodd" d="M448.21875 480.32813h4.36719l-2.33985-2.02735-2.02734 2.02735"/></g><g clip-path="url(#k)"><path fill="#50fcfc" fill-rule="evenodd" d="M461.20313 480.32813l2.35937-2.36329 2.77734-2.07421 1.65625-1.65235v6.08985h-6.79296"/></g><g clip-path="url(#l)"><path fill="#50fcfc" fill-rule="evenodd" d="M467.9961 480.32813H468v-6.09375 6.09375h-.0039"/></g><g clip-path="url(#m)"><path fill="#fff" fill-opacity="0" fill-rule="evenodd" d="M467.9961 311.67188H468v162.5625-162.5625h-.0039"/></g><path fill="#fff" fill-opacity="0" fill-rule="evenodd" d="M215.30078 423.07031l5.77344.875 1.4961-9.84765-5.77735-.875-1.49219 9.84765"/><path fill-rule="evenodd" d="M219.98047 415.5586l.5.07812-.9414 6.22265-.77735-.11718.67187-4.4414-1.37109-.20704.08203-.55078.5625.01953.25781-.01172.23828-.05469.22266-.10937.20313-.1836.1875-.26953.16406-.375"/><path fill="#fff" fill-opacity="0" fill-rule="evenodd" d="M215.36719 462.01563l4.64062-3.54688-6.04297-7.91406-4.64453 3.54297 6.04688 7.91796"/><path fill-rule="evenodd" d="M213.21484 453.42969l.40625-.3086 3.82032 5.00391-.625.47656-2.72657-3.5664-1.10547.84375-.33593-.44141.40625-.39453.16797-.19531.1289-.21094.07422-.23438.01172-.27343-.0664-.32032-.15626-.3789"/><g clip-path="url(#n)"><path fill="none" stroke="#000" stroke-linecap="round" stroke-linejoin="round" stroke-miterlimit="10" stroke-width=".5" d="M147.46875 480.8789l-6.9375-1.10156"/></g><g clip-path="url(#o)"><path fill="none" stroke="#000" stroke-linecap="round" stroke-linejoin="round" stroke-miterlimit="10" stroke-width=".5" d="M147.46875 480.8789l.80078 2.32032"/></g><g clip-path="url(#p)"><path fill="none" stroke="#000" stroke-linecap="round" stroke-linejoin="round" stroke-miterlimit="10" stroke-width=".5" d="M146.46094 480.71875l.39844 1.16016"/></g><g clip-path="url(#q)"><path fill="none" stroke="#000" stroke-linecap="round" stroke-linejoin="round" stroke-miterlimit="10" stroke-width=".5" d="M160.7461 481.08203l-6.86329-1.50781"/></g><g clip-path="url(#r)"><path fill="none" stroke="#000" stroke-linecap="round" stroke-linejoin="round" stroke-miterlimit="10" stroke-width=".5" d="M160.7461 481.08203l.66015 2.36719"/></g><g clip-path="url(#s)"><path fill="none" stroke="#000" stroke-linecap="round" stroke-linejoin="round" stroke-miterlimit="10" stroke-width=".5" d="M174.11328 480.78516l-6.96875-.91016"/></g><g clip-path="url(#t)"><path fill="none" stroke="#000" stroke-linecap="round" stroke-linejoin="round" stroke-miterlimit="10" stroke-width=".5" d="M174.11328 480.78516l.86328 2.29687"/></g><g clip-path="url(#u)"><path fill="none" stroke="#000" stroke-linecap="round" stroke-linejoin="round" stroke-miterlimit="10" stroke-width=".5" d="M187.45703 480.40234l-7.02344-.14453"/></g><g clip-path="url(#v)"><path fill="none" stroke="#000" stroke-linecap="round" stroke-linejoin="round" stroke-miterlimit="10" stroke-width=".5" d="M187.45703 480.40234l1.10938 2.1875"/></g><g clip-path="url(#w)"><path fill="none" stroke="#000" stroke-linecap="round" stroke-linejoin="round" stroke-miterlimit="10" stroke-width=".5" d="M200.76563 480.11328l-7.01172.42969"/></g><g clip-path="url(#x)"><path fill="none" stroke="#000" stroke-linecap="round" stroke-linejoin="round" stroke-miterlimit="10" stroke-width=".5" d="M200.76563 480.11328l1.28515 2.09375"/></g><g clip-path="url(#y)"><path fill="none" stroke="#000" stroke-linecap="round" stroke-linejoin="round" stroke-miterlimit="10" stroke-width=".5" d="M214.05078 479.8125l-6.94922 1.03516"/></g><g clip-path="url(#z)"><path fill="none" stroke="#000" stroke-linecap="round" stroke-linejoin="round" stroke-miterlimit="10" stroke-width=".5" d="M214.05078 479.8125l1.45703 1.97266"/></g><g clip-path="url(#A)"><path fill="none" stroke="#000" stroke-linecap="round" stroke-linejoin="round" stroke-miterlimit="10" stroke-width=".5" d="M227.36719 479.82813l-6.95313 1"/></g><g clip-path="url(#B)"><path fill="none" stroke="#000" stroke-linecap="round" stroke-linejoin="round" stroke-miterlimit="10" stroke-width=".5" d="M227.36719 479.82813l1.44922 1.98437"/></g><g clip-path="url(#C)"><path fill="none" stroke="#000" stroke-linecap="round" stroke-linejoin="round" stroke-miterlimit="10" stroke-width=".5" d="M240.64453 479.61328l-6.8789 1.42969"/></g><g clip-path="url(#D)"><path fill="none" stroke="#000" stroke-linecap="round" stroke-linejoin="round" stroke-miterlimit="10" stroke-width=".5" d="M240.64453 479.61328l1.57031 1.89063"/></g><g clip-path="url(#E)"><path fill="none" stroke="#000" stroke-linecap="round" stroke-linejoin="round" stroke-miterlimit="10" stroke-width=".5" d="M253.82813 479.14844l-6.6172 2.35937"/></g><g clip-path="url(#F)"><path fill="none" stroke="#000" stroke-linecap="round" stroke-linejoin="round" stroke-miterlimit="10" stroke-width=".5" d="M253.82813 479.14844l1.8164 1.65234"/></g><g clip-path="url(#G)"><path fill="none" stroke="#000" stroke-linecap="round" stroke-linejoin="round" stroke-miterlimit="10" stroke-width=".5" d="M267.10156 479.03516l-6.53125 2.58593"/></g><g clip-path="url(#H)"><path fill="none" stroke="#000" stroke-linecap="round" stroke-linejoin="round" stroke-miterlimit="10" stroke-width=".5" d="M267.10156 479.03516l1.8711 1.58984"/></g><g clip-path="url(#I)"><path fill="none" stroke="#000" stroke-linecap="round" stroke-linejoin="round" stroke-miterlimit="10" stroke-width=".5" d="M280.30078 478.77344L274 481.8828"/></g><g clip-path="url(#J)"><path fill="none" stroke="#000" stroke-linecap="round" stroke-linejoin="round" stroke-miterlimit="10" stroke-width=".5" d="M280.30078 478.77344l1.99219 1.4336"/></g><g clip-path="url(#K)"><path fill="none" stroke="#000" stroke-linecap="round" stroke-linejoin="round" stroke-miterlimit="10" stroke-width=".5" d="M293.44922 478.46875l-5.96485 3.71875"/></g><path fill="none" stroke="#000" stroke-linecap="round" stroke-linejoin="round" stroke-miterlimit="10" stroke-width=".5" d="M292.57813 479.01172l1.0625.61328"/><g clip-path="url(#L)"><path fill="none" stroke="#000" stroke-linecap="round" stroke-linejoin="round" stroke-miterlimit="10" stroke-width=".5" d="M306.39063 477.97656l-5.22266 4.70313"/></g><path fill="none" stroke="#000" stroke-linecap="round" stroke-linejoin="round" stroke-miterlimit="10" stroke-width=".5" d="M305.63281 478.66406l1.15235.41797"/><g clip-path="url(#M)"><path fill="none" stroke="#000" stroke-linecap="round" stroke-linejoin="round" stroke-miterlimit="10" stroke-width=".5" d="M318.83203 477.27344l-3.47265 6.10937"/></g><path fill="none" stroke="#000" stroke-linecap="round" stroke-linejoin="round" stroke-miterlimit="10" stroke-width=".5" d="M318.32813 478.16406l1.22656.03516"/><g clip-path="url(#N)"><path fill="none" stroke="#000" stroke-linecap="round" stroke-linejoin="round" stroke-miterlimit="10" stroke-width=".5" d="M330.14844 476.82422l.52734 7.00781"/></g><path fill="none" stroke="#000" stroke-linecap="round" stroke-linejoin="round" stroke-miterlimit="10" stroke-width=".5" d="M330.22266 477.84375l1.03906-.65625"/><g clip-path="url(#O)"><path fill="none" stroke="#000" stroke-linecap="round" stroke-linejoin="round" stroke-miterlimit="10" stroke-width=".5" d="M341.15234 477.9375l5.14844 4.78125"/></g><g clip-path="url(#P)"><path fill="none" stroke="#000" stroke-linecap="round" stroke-linejoin="round" stroke-miterlimit="10" stroke-width=".5" d="M353.57031 479.77344l6.9414 1.11328"/></g><g clip-path="url(#Q)"><path fill="none" stroke="#000" stroke-linecap="round" stroke-linejoin="round" stroke-miterlimit="10" stroke-width=".5" d="M367.34375 482.14063l6.02344-3.6211"/></g><g clip-path="url(#R)"><path fill="none" stroke="#000" stroke-linecap="round" stroke-linejoin="round" stroke-miterlimit="10" stroke-width=".5" d="M382.3789 483.59766l2.58204-6.53516"/></g><g clip-path="url(#S)"><path fill="none" stroke="#000" stroke-linecap="round" stroke-linejoin="round" stroke-miterlimit="10" stroke-width=".5" d="M394.02734 482.22266l5.91797-3.78516"/></g><g clip-path="url(#T)"><path fill="none" stroke="#000" stroke-linecap="round" stroke-linejoin="round" stroke-miterlimit="10" stroke-width=".5" d="M394.88672 481.67188l-1.0664-.60547"/></g><g clip-path="url(#U)"><path fill="none" stroke="#000" stroke-linecap="round" stroke-linejoin="round" stroke-miterlimit="10" stroke-width=".5" d="M409.35938 483.71484l1.8828-6.76953"/></g><g clip-path="url(#V)"><path fill="none" stroke="#000" stroke-linecap="round" stroke-linejoin="round" stroke-miterlimit="10" stroke-width=".5" d="M426.79297 481.83203l-6.35156-3.00781"/></g><g clip-path="url(#W)"><path fill="none" stroke="#000" stroke-linecap="round" stroke-linejoin="round" stroke-miterlimit="10" stroke-width=".5" d="M439.28125 477.71875l-4.69922 5.22266"/></g><g clip-path="url(#X)"><path fill="none" stroke="#000" stroke-linecap="round" stroke-linejoin="round" stroke-miterlimit="10" stroke-width=".5" d="M450.2461 476.8164v7.02735"/></g><path fill="none" stroke="#000" stroke-linecap="round" stroke-linejoin="round" stroke-miterlimit="10" stroke-width=".5" d="M450.2461 477.83594l1.08202-.57422"/><g clip-path="url(#Y)"><path fill="none" stroke="#000" stroke-linecap="round" stroke-linejoin="round" stroke-miterlimit="10" stroke-width=".5" d="M464.21875 476.875l-1.3125 6.90625"/></g><path fill="none" stroke="#000" stroke-linecap="round" stroke-linejoin="round" stroke-miterlimit="10" stroke-width=".5" d="M464.02734 477.88281l1.17188-.36328"/><g clip-path="url(#Z)"><path fill="none" stroke="#000" stroke-linecap="round" stroke-linejoin="round" stroke-miterlimit="10" stroke-width=".5" d="M147.44531 467.71094l-6.89062-1.39453"/></g><path fill="none" stroke="#000" stroke-linecap="round" stroke-linejoin="round" stroke-miterlimit="10" stroke-width=".5" d="M147.44531 467.71094l.69531 2.35547m12.58204-2.20313l-6.81641-1.69922m6.8164 1.69922l.59766 2.3789m12.75781-2.55077l-6.89453-1.35547m6.89453 1.35547l.71094 2.34765m12.66797-3.00781l-7.02344-.03516m7.02344.03516l1.14063 2.17578m12.17187-2.04687l-7.01953-.29297m7.01953.29297l1.0625 2.21093m12.25-2.57812l-7.01172.4414m7.01172-.4414l1.28516 2.08984m12.03125-2.07422l-7.01563.41016m7.01563-.41016l1.27734 2.09375m12.00781-2.375l-6.95703.97266m6.95703-.97266l1.44141 1.98829m11.65625-2.8086l-6.52344 2.61328m6.52344-2.61328l1.875 1.58203m-2.82422-1.20312l.9375.79297m13.26563-1.3125l-6.40235 2.89453m6.40235-2.89453l1.9453 1.49609m11.4336-1.35156l-6.52734 2.60547m6.52734-2.60547l1.8711 1.58594m11.3789-1.73438l-6.39843 2.90234m6.39843-2.90234l1.94532 1.4961m11.16796-1.87891l-5.99218 3.66797m5.99218-3.66797l2.11329 1.2461m10.21484-2.29298l-4.01953 5.76172m4.01953-5.76172l2.4375.29688m10.28516-.63281l-2.83204 6.43359m2.41797-5.4961l1.22266-.08984m12.85547-.66797l-3.53125 6.07422m3.01953-5.1914l1.22266.04687m10.23046-1.35156l1.21485 6.91797m13.58594-6.85938l-1.75782 6.80078m10.89453-4.60937l6.59766 2.41797m-5.63672-2.06641l-.16797-1.21484m12.32813 1.68359l6.98437.77734m-5.96484-.66406l-.45313-1.14062M410.3711 463.5l-.14062 7.02734m.14062-7.02734l2.19141-1.10937m13.6875 2.29687l-5.26562 4.65234m5.26562-4.65234l2.29688.85938m11.15234-.69922l-5.53516 4.33203m4.73047-3.69922l1.1211.4961m12.91015 3.30859l-5.35937-4.54297m4.58203 3.88281l-.26172 1.19922m15.10937-3.54297l-6.87109 1.46484m5.8711-1.2539l.79296.9414"/><g clip-path="url(#aa)"><path fill="none" stroke="#000" stroke-linecap="round" stroke-linejoin="round" stroke-miterlimit="10" stroke-width=".5" d="M147.38281 454.64453l-6.76562-1.89062"/></g><path fill="none" stroke="#000" stroke-linecap="round" stroke-linejoin="round" stroke-miterlimit="10" stroke-width=".5" d="M147.38281 454.64453l.52735 2.39453m12.66406-2.02734l-6.51953-2.625m6.51953 2.625l.25781 2.4414m12.98828-2.28515l-6.38281-2.9414m5.45313 2.51562l.0703 1.22265m14.48829-1.98437l-7.00781-.5625m5.98828.48047l.48437 1.125m13.63672-.08985l-6.58203-2.46875m5.625 2.10938l.15625 1.21484m14.07031-.7461l-6.49219-2.6914m5.54688 2.30078l.11719 1.22266m14.40625-1.96875l-7.01563-.41797m7.01563.41797l1.01953 2.23047m12.28906-2.72656l-7.0039.57812m7.0039-.57812l1.32422 2.0625m11.84375-2.82422l-6.70703 2.09765m6.70703-2.09765l1.7461 1.72656m11.35156-2.26172l-6.27344 3.17188m6.27344-3.17188l2.0039 1.41406m-2.91797-.95312l1.00391.70703m13.25-1.11328l-6.32422 3.0625m6.32422-3.0625l1.98047 1.44922m-2.89844-1.0039l.98828.72655m13.16407-1.33203l-6.16407 3.3789m6.16407-3.3789l2.05078 1.34766m11.33203-1.21875l-6.29688 3.125m6.29688-3.125l1.99219 1.42969m11.52343-.92579l-6.69922 2.11329m5.72657-1.8047l.875.85938m13.21484-1.66015l-6.30469 3.10156m6.30469-3.10156l1.99219 1.4336m10.88672-2.11329l-5.4297 4.46094m5.4297-4.46094l2.26562.9414m-3.0586-.29296l1.13282.46875m11.97656-1.95313l-3.4336 6.13282m3.4336-6.13282l2.45313.05469m-2.95313.83594l1.22657.02734m13.96093.47266l-6.17968 3.34765m6.17968-3.34765l2.04688 1.35547m10.83203-1.98438l-5.30469 4.60938m5.30469-4.60938l2.28906.8789m10.2539-1.54296l-3.76171 5.9375m3.21484-5.07422l1.22266.09375m11.00781 5.51563l-.4961-7.00782m.42188 5.98828l-1.03906.65235M427.11719 454l-7-.60156m5.98047.51172l.48047 1.1289m13.74218-2.26953l-6.77734 1.85938m5.78906-1.58985l.84375.89063m12.65235-2.61719l-5.16016 4.76953m5.16016-4.76953l2.3164.8086m11.76953.52343l-6.70312 2.10938m5.72656-1.80079l.875.85938"/><g clip-path="url(#ab)"><path fill="none" stroke="#000" stroke-linecap="round" stroke-linejoin="round" stroke-miterlimit="10" stroke-width=".5" d="M146.92188 442.33203l-5.84375-3.89844"/></g><path fill="none" stroke="#000" stroke-linecap="round" stroke-linejoin="round" stroke-miterlimit="10" stroke-width=".5" d="M146.92188 442.33203l-.2422 2.4414m13.76954-2.80077l-6.26953-3.17578m5.35937 2.71093l.02344 1.22656m14.10938-.58984l-6.08204-3.52344m5.19532 3.01172l-.04297 1.22657m14.58984-1.53907l-6.77344-1.8711m5.78907 1.59767l.26562 1.19921m14.10156-1.21093l-6.90625-1.30078m5.89844 1.10937l.36719 1.17188m13.98437-2.09766l-6.96484.9336m5.94922-.79688l.71484.9961m13.29688-2.19532l-6.32813 3.05469m5.40625-2.60938l.99219.72656m13.58984.51563l-7.01953-.32031m6 .27343l.52344 1.10938m13.26172-3.11328l-5.92188 3.78125m5.0625-3.23047l1.06641.60156m12.84375-1.51562l-5.39063 4.51172m5.39063-4.51172l2.27344.92187m11-.96875l-5.3086 4.60156m5.3086-4.60156l2.28906.88281m10.5625-1.32812l-4.38281 5.49219m4.38281-5.4922l2.41406.45313m10.79688-.53125l-4.17578 5.65235m4.17578-5.65235l2.42968.35938m-3.03515.46094l1.21094.17968m13.4453-.26562l-5.64452 4.1836m5.64453-4.1836l2.21484 1.05469m11.1875-.9336l-5.8164 3.9414m5.8164-3.9414l2.16797 1.14453m-3.01562-.57421l1.08593.57421m12.875-1.41796l-5.41406 4.48437m5.41406-4.48437l2.26563.9375m-3.05469-.28516l1.13281.46875m12.2461-1.78125l-3.96094 5.80469m3.96094-5.8047l2.4375.26954m-3.01563.57422l1.21875.13672m11.9375-1.36328l-2.49219 6.5703m2.4922-6.5703l2.43359-.3086m6.1289 3.8125l7.01563-.4375m12.8789 1.92578l-6.14453-3.41406m19.8789 1.30078l-6.98046.8125m19.73047-2.35156l-5.85156 3.89063m5.85156-3.89063l2.15625 1.16797m-3.00781-.60156l1.07812.58203m12.34375-1.95703l-4.36328 5.51172m4.36328-5.51172l2.41016.4414m-3.04688.35938l1.20703.21875m13.26563-.51172l-5.40235 4.4961m4.61329-3.84376l1.13671.46485m12.41407-1.64844l-4.30078 5.55469"/><g clip-path="url(#ac)"><path fill="none" stroke="#000" stroke-linecap="round" stroke-linejoin="round" stroke-miterlimit="10" stroke-width=".5" d="M465.71094 437.60547l2.41797.41406"/></g><g clip-path="url(#ad)"><path fill="none" stroke="#000" stroke-linecap="round" stroke-linejoin="round" stroke-miterlimit="10" stroke-width=".5" d="M147.02344 428.85938l-6.04688-3.58204"/></g><path fill="none" stroke="#000" stroke-linecap="round" stroke-linejoin="round" stroke-miterlimit="10" stroke-width=".5" d="M146.14453 428.33984l-.0586 1.22266m13.83595-.13672l-5.21094-4.71484m4.45312 4.02734l-.30078 1.1914m14.875-1.21874l-6.21484-3.28516m5.3086 2.80469l.0039 1.23047m13.70312-.02344l-5.1875-4.73828m4.4336 4.05078l-.3047 1.1875m15.26173-2.40625l-6.96485-.92578m5.95313.78906l.42969 1.15235m13.60547-2.95313l-6.37891 2.94922m5.44922-2.51953l.97656.73828m12.41406-2.3164l-4.67187 5.24609m3.99219-4.48438l1.1914.29297m13.95313 1.13281l-6.97266.8711m6.97266-.8711l1.41406 2.0039m11.08984-3.84765l-5.35156 4.5586m5.35156-4.5586l2.28125.90625m11.0664-.86718l-5.41405 4.48046m5.41406-4.48046l2.26953.93359m11.07031-.90234l-5.46484 4.41796m5.46484-4.41796l2.25781.95703m10.44532-1.54688l-4.24219 5.59766m4.24219-5.59766l2.42578.39063m11.22265-.10938l-4.90625 5.03516m4.90625-5.03516l2.35547.6875m10.50391-1.0586l-3.9961 5.77735m3.9961-5.77734l2.4375.28515m11.55078.32032l-5.33984 4.5664m5.33984-4.5664l2.28125.89453m-3.0586-.23047l1.14063.44922m13.1914-.79688l-5.8203 3.9336m5.8203-3.9336l2.16798 1.14844m-3.01563-.57812l2.16797 1.15234m12.03516-1.66406l-5.90235 3.8164m5.90235-3.8164l2.14453 1.1953m10.8164-1.65233l-5.1953 4.73046m5.1953-4.73046l2.3125.82421m10.22657-1.46093l-3.64453 6.0078m3.64453-6.0078l2.45312.13672m-2.98047.73437l2.44922.14063m-2.98047.73437l1.22266.07031m14.1836-.86328l-5.70704 4.09766m5.70703-4.09766l2.19922 1.08985m-3.02734-.4922l2.19922 1.08595m11.84375-1.81641l-5.50782 4.36328m5.50782-4.36328l2.25.98047m-3.05078-.34766l2.25.98438m-3.05079-.34766l1.125.49219m13.39844-2.1836l-4.71875 5.20703m4.71875-5.20703l2.3789.60157m-3.0664.15625l2.3789.60156m10.92188-1.85547l-3.3164 6.19922m3.3164-6.19922l2.45313.00781m-2.9375.89453l2.45312.00782m10.29297-1.26954l-1.21094 6.92188m1.21094-6.92188l2.33203-.76171m-2.5078 1.76562l1.16796-.3789m13.53125-.17579l-3.6289 6.01953"/><g clip-path="url(#ae)"><path fill="none" stroke="#000" stroke-linecap="round" stroke-linejoin="round" stroke-miterlimit="10" stroke-width=".5" d="M465.375 424.0586l2.44922.1328"/></g><path fill="none" stroke="#000" stroke-linecap="round" stroke-linejoin="round" stroke-miterlimit="10" stroke-width=".5" d="M464.84766 424.9336l2.44921.1328"/><g clip-path="url(#af)"><path fill="none" stroke="#000" stroke-linecap="round" stroke-linejoin="round" stroke-miterlimit="10" stroke-width=".5" d="M147.39844 414.64844l-6.79688-1.79297"/></g><path fill="none" stroke="#000" stroke-linecap="round" stroke-linejoin="round" stroke-miterlimit="10" stroke-width=".5" d="M146.41016 414.39063l.27734 1.1914m13.98438-.78515l-6.71094-2.08594m5.73437 1.78125l.22656 1.20703m14.11329-1.07422l-6.8086-1.74219m5.8164 1.48828l.28907 1.19141m13.96094-.7461l-6.69531-2.125m5.72265 1.81641l.22266 1.20313m14.07422-2.9961l-6.71485 2.07813m5.73828-1.77734l.8711.86328m13.5664-.42188l-7.0039.58985m7.0039-.58985l1.32813 2.0625m11.80469-.625l-6.64453-2.28515m5.67968 1.95312l.19141 1.21484m14.22656-1.41406l-6.91797-1.21875m6.91797 1.21875l.76172 2.33203m12.53906-3.63281l-6.89062 1.38281m6.89062-1.38281l1.5547 1.89844m11.76562-1.88281l-6.89844 1.34765m6.89844-1.34765l1.54297 1.90625m11.79296-1.77735l-6.9414 1.09375m6.9414-1.09375l1.47657 1.96094m-2.48438-1.80078l.73438.98047m13.62109-.875l-7.0039.55859m7.0039-.5586l1.32031 2.07032m11.89063-2.6836l-6.79688 1.78907m6.79688-1.78906l1.66406 1.80078m11-3.09766l-5.4961 4.3789m5.4961-4.3789l2.25.97656m11.35938-.54297l-6.08594 3.51563m6.08594-3.51563l2.08203 1.30078m10.85937-1.82812l-5.33984 4.5664m5.33984-4.5664l2.28516.89844m10.66797-1.26563l-4.61329 5.30078m4.61329-5.30078l2.39062.55469m11.23438-.2461l-5.23438 4.6875m5.23438-4.6875l2.30468.84766m-3.0664-.16406l1.15234.42187m13.07422-.92968l-5.53125 4.33593m5.53125-4.33593l2.24219.9961m-3.04688-.36329l2.24219.99219m-3.04688-.36328l1.1211.49609m14.0625-1.375l-6.05078 3.57031m6.05078-3.57031l2.09375 1.28125m-2.97266-.76172l2.09375 1.28125m11.47656-2.57812l-4.80468 5.125m4.80469-5.125l2.37109.64062m-3.07031.10547l2.37109.64062m11.03125-1.84765l-3.58203 6.04687m3.58203-6.04687l2.45313.11328m-2.97266.76562l2.44922.11329m11.73828-.75391l-4.28516 5.57031m4.28516-5.57031l2.42187.41016m-3.04296.40234l2.41796.40625m-3.04296.40234l1.21093.20313m13.27735-1.8789l-4.14063 5.67968m4.14063-5.67969l2.42968.34766m-3.03125.48047l2.4297.34375m11.3164-1.28907l-3.79688 5.91407"/><g clip-path="url(#ag)"><path fill="none" stroke="#000" stroke-linecap="round" stroke-linejoin="round" stroke-miterlimit="10" stroke-width=".5" d="M465.46094 410.79688l2.44531.20312"/></g><path fill="none" stroke="#000" stroke-linecap="round" stroke-linejoin="round" stroke-miterlimit="10" stroke-width=".5" d="M464.90625 411.65625l2.44922.20313"/><g clip-path="url(#ah)"><path fill="none" stroke="#000" stroke-linecap="round" stroke-linejoin="round" stroke-miterlimit="10" stroke-width=".5" d="M147.49219 400.82813l-6.98438-.77735"/></g><path fill="none" stroke="#000" stroke-linecap="round" stroke-linejoin="round" stroke-miterlimit="10" stroke-width=".5" d="M146.47656 400.71484l.45313 1.14063m13.89844-1.41797h-7.02735m6.0039 0l.57813 1.08594m12.72656-3.57422l-4.95703 4.98047m4.23438-4.25781l1.17578.35546m12.0039-1.70703l-3.24218 6.23438m2.76953-5.32422l1.23047-.01172m14.33594 1.33984l-6.80078 1.75782m5.8125-1.5l.82812.90234m11.13281-3.63281l-2.11328 6.70312m1.80469-5.72656l1.20703-.22266m14.86328 2.87891l-7.00781-.5625m7.00781.5625l.97266 2.2539m-1.99219-2.33593l.48438 1.125m13.84375-1.01172l-6.9961-.625m6.9961.625l.95703 2.26172m-1.97266-2.35156l.47656 1.1289m13.8086-2.01172l-6.90235 1.32422m6.90235-1.32422l1.53906 1.91016m-2.54297-1.71875l.76953.95703m13.45703-1.51562l-6.71875 2.05859m6.71875-2.0586l1.73438 1.73438m-2.71094-1.4375l.86719.86719m13.49219-.91797l-6.85157 1.5625m6.85156-1.5625l1.60157 1.85547m11.76172-1.58985l-6.95313 1.03125m6.95313-1.03125l1.45703 1.97657m11.6875-2.65625l-6.60938 2.39453m6.60938-2.39453l1.82031 1.64453m11.5625-1.4375l-6.74219 1.98047m6.74219-1.98047l1.71484 1.7539m11.33985-2.39453l-6.22656 3.25782m6.22656-3.25782l2.02734 1.38672m9.85938-2.83984l-3.3672 6.16797m3.3672-6.16797l2.45312.02734m12.05078 1.03516l-5.7461 4.04297m5.7461-4.04297l2.1875 1.10547m11.22266-.96094l-5.9375 3.7539m5.9375-3.7539l2.13281 1.21484m-2.9961-.67187l2.13282 1.21875m-2.9961-.67188l1.06641.60938m13.42188-2.3789l-4.82813 5.10937m4.82813-5.10938l2.36328.65235m-3.0664.09375l2.36327.64843m-3.0664.09375l1.1836.32422m14.33984-.66797l-6.4336 2.82032m6.4336-2.82032l1.92578 1.52344m-2.85938-1.11328l1.92188 1.52344m12.3789-1.8125l-6.53906 2.57812m6.53906-2.57812l1.86719 1.59375m-2.82031-1.21875l1.86719 1.59375m11.85937-2.89453l-5.45703 4.42968m5.45703-4.42968l2.26172.95703m-3.05469-.3125l2.25781.95703m11.4961-1.97656l-4.75 5.17968m4.75-5.17968l2.3789.61718m-3.0664.13672l2.375.61719m-3.0664.13672l1.1875.3086m13.97655-1.29298l-5.68359 4.13282m5.6836-4.13282l2.20312 1.07813m-3.03125-.47656l2.20703 1.07812m11.86719-1.76953l-5.54688 4.3164"/><g clip-path="url(#ai)"><path fill="none" stroke="#000" stroke-linecap="round" stroke-linejoin="round" stroke-miterlimit="10" stroke-width=".5" d="M466.33594 398.28125l2.23828 1"/></g><g clip-path="url(#aj)"><path fill="none" stroke="#000" stroke-linecap="round" stroke-linejoin="round" stroke-miterlimit="10" stroke-width=".5" d="M465.52734 398.91016l2.23829 1"/></g><g clip-path="url(#ak)"><path fill="none" stroke="#000" stroke-linecap="round" stroke-linejoin="round" stroke-miterlimit="10" stroke-width=".5" d="M147.42969 386.35547l-6.85938 1.53515"/></g><path fill="none" stroke="#000" stroke-linecap="round" stroke-linejoin="round" stroke-miterlimit="10" stroke-width=".5" d="M146.42969 386.57813l.80078.92968m13.58984-.17187l-7.01172-.42578m5.9922.36328l.51171 1.11719m13.04297-3.48438l-5.45313 4.4336m4.66016-3.78907l1.1289.47656m12.58594-1.53125l-4.66406 5.25391m3.98438-4.48828l1.1953.28906m11.34376 4.97656l-1.7539-6.80859m1.5 5.8164l-.90626.82813m16.96485-2.23437l-6.73047-2.01172m6.73047 2.01172l.48437 2.40625m12.97656-3.32813l-7.02343-.16797m7.02343.16797l1.10157 2.1914m-2.1211-2.21484l.54688 1.09375m13.75781-.67578l-6.96094-.95703m6.96094.95703l.84375 2.30469m-1.85938-2.4414l.42579 1.14843m13.92968-1.71875l-7.01172.45703m7.01172-.45703l1.28907 2.08594m-2.3086-2.01953l.64453 1.04297m13.57813-1.78907l-6.78906 1.81641m6.78906-1.8164l1.67187 1.79687m11.66016-1.73438l-6.82422 1.69141m6.82422-1.6914l1.63672 1.82812m11.72656-1.58594l-6.92187 1.20703m6.92187-1.20703l1.50781 1.9375m11.85547-1.4961l-7.01953.32423m7.01953-.32422l1.25 2.11328m12.0625-1.74219l-7.01172-.41797m5.9922.35938l.51171 1.11328m13.66406-2.33203l-6.69531 2.13672m6.69531-2.13672l1.75781 1.71484m11.3711-2.1836l-6.32031 3.07423m6.3203-3.07422l1.98048 1.4414m11.66406-.29296l-6.98047.77734m6.98047-.77735l1.38672 2.02344m-2.40235-1.91015l.69532 1.01171m13.42578-1.99218l-6.5625 2.51172m6.5625-2.51172l1.85156 1.61328m-2.80469-1.2461l1.84766 1.61329m12.21094-2.4336l-6.14063 3.41797m6.14063-3.41797l2.0586 1.33203m-2.95313-.83593l2.05859 1.33593m11.92969-2.17968l-5.69922 4.11328m5.69922-4.11328l2.20312 1.08203m-3.03125-.48438l2.19922 1.08594m12.14063-1.3789l-6.09375 3.5039m6.09375-3.5039l2.07812 1.30468m-2.96484-.79297l2.07812 1.30469m12.16406-1.74219l-6.17187 3.35547m6.17187-3.35547l2.04688 1.35156m-2.94531-.86328l2.04687 1.35157m11.50781-2.69922l-4.85546 5.07422m4.85546-5.07422l2.36329.66406m-3.07032.07422l2.36328.66406m12.47657-.21484L447 388.47266m6.49219-2.69922l1.89453 1.5586m-2.83985-1.16407l.94922.77734m13.10938-1.57812l-6.08594 3.51562"/><g clip-path="url(#al)"><path fill="none" stroke="#000" stroke-linecap="round" stroke-linejoin="round" stroke-miterlimit="10" stroke-width=".5" d="M466.60547 385.36719l2.07812 1.29687"/></g><g clip-path="url(#am)"><path fill="none" stroke="#000" stroke-linecap="round" stroke-linejoin="round" stroke-miterlimit="10" stroke-width=".5" d="M465.71875 385.8789l2.08203 1.29688"/></g><g clip-path="url(#an)"><path fill="none" stroke="#000" stroke-linecap="round" stroke-linejoin="round" stroke-miterlimit="10" stroke-width=".5" d="M147.01563 372.00781l-6.03125 3.60156"/></g><path fill="none" stroke="#000" stroke-linecap="round" stroke-linejoin="round" stroke-miterlimit="10" stroke-width=".5" d="M147.01563 372.00781l2.10156 1.26953m11.48437-.70703l-6.57422 2.47656m5.6172-2.11718l.92187.8086m12.71875-2.23438l-5.3086 4.60546m4.53516-3.93359l1.14453.4414m13.61719.06641l-6.65625 2.25m19.76172.4922l-6.23828-3.23438m5.33203 2.76562l.01172 1.22656m14.10156-.5625l-6.01953-3.625m6.01953 3.625l-.1289 2.44922m13.3203-2.26172l-5.77343-4m5.77343 4l-.28515 2.4375m13.96875-3.11328l-6.50781-2.64844m6.5078 2.64844l.25 2.4414m13.23438-2.98046l-6.84765-1.57031m6.84765 1.57031l.63672 2.3711m-1.63281-2.59766l.3164 1.1836m14.08204-1.69142l-7.02344-.10156m7.02344.10156l1.12109 2.1797m-2.14063-2.19532l.5586 1.08984m13.7461-1.58203l-6.96485.91406m6.96484-.91406l1.42578 2m-2.4375-1.86719l.71094 1m13.6211-1.10546l-6.97266.85937m6.97265-.85937l1.40625 2.0078m-2.42187-1.8828l.70313 1.0039m13.53125-1.61719l-6.78125 1.83204m6.78125-1.83204l1.67968 1.79297m-2.66406-1.52343l1.67578 1.78906m12.64453-1.98828l-6.82031 1.6914m6.82031-1.6914l1.63672 1.82812m-2.6289-1.58203l.8164.91406m13.58594-.10156l-7.01563-.42187m7.01563.42187l1.01953 2.23047m-2.03906-2.29297l.50781 1.11719m13.83203-1.30469l-7.02734.07813m7.02734-.07813l1.17578 2.15235m-2.19531-2.14063l1.17578 2.15234m13.14453-2.47265l-6.9961.69531m6.9961-.69531l1.35938 2.04297m-2.3789-1.94141l1.35937 2.04297m12.96093-2.2539l-6.96875.91406m6.96875-.91407l1.42188 2m-2.4336-1.86719l1.42188 2m12.88672-2.26171l-6.92969 1.17187m6.92969-1.17187l1.4961 1.9414m-2.50391-1.77344l1.49609 1.94532m12.8086-2.20313l-6.89454 1.34766m6.89453-1.34766l1.54688 1.90625m-2.55078-1.70703l1.54687 1.90235m12.71094-2.36329l-6.77344 1.875m6.77344-1.875l1.6875 1.78125m-2.67188-1.5078l1.6875 1.78124m12.69141-1.70312l-6.92969 1.17187m6.9297-1.17187l1.49608 1.9414m-2.5039-1.77344l1.4961 1.94532m12.57812-2.9375l-6.4336 2.82031m6.4336-2.82031l1.92578 1.52344m-2.85938-1.11329l.96094.76172m13.38672-.92187l-6.63281 2.32031m6.63281-2.32031l1.80469 1.66406m-2.76953-1.32813l.90234.83594m12.98438-1.96484l-5.84375 3.90625"/><g clip-path="url(#ao)"><path fill="none" stroke="#000" stroke-linecap="round" stroke-linejoin="round" stroke-miterlimit="10" stroke-width=".5" d="M466.48438 371.85547l2.16015 1.16015"/></g><path fill="none" stroke="#000" stroke-linecap="round" stroke-linejoin="round" stroke-miterlimit="10" stroke-width=".5" d="M465.63281 372.42188l1.08203.58203"/><g clip-path="url(#ap)"><path fill="none" stroke="#000" stroke-linecap="round" stroke-linejoin="round" stroke-miterlimit="10" stroke-width=".5" d="M146.52734 358.05078l-5.05468 4.88281"/></g><path fill="none" stroke="#000" stroke-linecap="round" stroke-linejoin="round" stroke-miterlimit="10" stroke-width=".5" d="M146.52734 358.05078l2.33203.75781m11.33594-.32812l-5.76172 4.02344m4.92578-3.4375l1.08985.55859m13.25-.84375l-6.13672 3.42188m5.24219-2.92188l1.03125.66406m11.82031 3.61719l-3.42188-6.13672m2.92579 5.24219l-.66797 1.03125m15.08984-.57031l-4.64453-5.27344m4.64453 5.27344l-.86719 2.29687m14.56641-2.6914l-5.41016-4.48438m5.41016 4.48438l-.4961 2.40234m14.28516-3.14453l-6.35937-2.9961m6.35937 2.9961l.11719 2.44922m-1.04297-2.88672l.0586 1.22656m14.40234-1.40625l-6.80078-1.76563m6.80078 1.76563l.57031 2.38672m-1.5586-2.64453l.28516 1.19531m14.10938-1.41797l-6.98047-.80078m6.98047.80078l.89453 2.28516m-1.91016-2.40235l.44922 1.14063m13.66016-.14063l-6.53906-2.5703m6.53906 2.5703l.27734 2.44141m-1.23047-2.8125l.14063 1.21875m14.23047-1.14844l-6.7461-1.96484m6.7461 1.96484l.5 2.40235m-1.48047-2.69141l.5 2.40234m13.92969-2.85937l-7.01172-.47266m7.01172.47266l1 2.23828m-2.01954-2.3086l.5 1.1211m13.83594-1.08984l-7.01562-.39454m7.01562.39454l1.02735 2.22656m-2.04688-2.28516l.51172 1.11328m13.82422-1.375l-7.01953.2422m7.01953-.2422l1.22656 2.125m-2.2461-2.08984l1.22657 2.125M333.89062 360l-6.95703.98438M333.89062 360l1.44141 1.98438m-2.45312-1.83985l1.4414 1.98438m12.90235-1.3125l-6.9961-.64844m6.9961.64844l.94921 2.26562m-1.96484-2.35937l.94531 2.26562m13.39844-2.3086l-7.01953-.37109m7.01953.3711l1.03516 2.22265m-2.0586-2.27734l1.03907 2.22266m-2.0586-2.27735l.51953 1.11328m14.81641-1.60937l-6.97656.83984m6.97656-.83984l1.40234 2.01172m-2.41797-1.89063l1.40625 2.01172m-2.42187-1.89062l.70312 1.0078m14.52735-1.8164l-6.74219 1.97266m6.74219-1.97266l1.71484 1.7539m-2.69531-1.46874l1.71484 1.75781m-2.6953-1.46875l1.71483 1.7539m13.58204-2.2578l-6.78516 1.82812m6.78516-1.82813l1.67578 1.79297m-2.66407-1.52734l1.67579 1.79297m-2.66016-1.52735l.83594.89844m14.4961-1.25l-6.8711 1.47266m6.8711-1.47266l1.57812 1.875m-2.57813-1.66406l1.57813 1.8789m12.73828-2.08593l-6.875 1.46484m6.875-1.46484l1.57812 1.8789m-2.57812-1.66796l1.57812 1.8789m12.74219-2.0586l-6.88672 1.39845m6.88672-1.39844l1.5586 1.89453m-2.5625-1.6914l1.5625 1.89452m12.65234-2.49218l-6.67969 2.1914m6.67969-2.1914l1.76953 1.69922m-2.74219-1.38282l1.76953 1.70313m12.19922-2.72266l-6.03906 3.59375"/><g clip-path="url(#aq)"><path fill="none" stroke="#000" stroke-linecap="round" stroke-linejoin="round" stroke-miterlimit="10" stroke-width=".5" d="M466.58203 358.69531l2.09766 1.27344"/></g><g clip-path="url(#ar)"><path fill="none" stroke="#000" stroke-linecap="round" stroke-linejoin="round" stroke-miterlimit="10" stroke-width=".5" d="M465.70313 359.21875l2.09765 1.27344"/></g><g clip-path="url(#as)"><path fill="none" stroke="#000" stroke-linecap="round" stroke-linejoin="round" stroke-miterlimit="10" stroke-width=".5" d="M143.98047 343.66406l.03906 7.02735"/></g><g clip-path="url(#at)"><path fill="none" stroke="#000" stroke-linecap="round" stroke-linejoin="round" stroke-miterlimit="10" stroke-width=".5" d="M143.98828 344.6875l1.07813-.58203"/></g><path fill="none" stroke="#000" stroke-linecap="round" stroke-linejoin="round" stroke-miterlimit="10" stroke-width=".5" d="M159.03906 344.11719l-3.44922 6.1211m2.94922-5.23048l1.22656.03125m14.16407.92969l-6.59766 2.41797m5.63672-2.0664l.91406.8203m9-3.3125l2.125 6.69922m12.71094.13282l-.91797-6.96485m.91797 6.96485l-1.9961 1.42578m15.32813-1.42578l-.95312-6.96485m.8164 5.94922l-.9961.71875m16.72267-.9961l-5.5-4.375m5.5 4.375l-.44922 2.41016m-.35157-3.04687l-.22265 1.20312m14.51953-.8164l-5.86328-3.8789m5.86328 3.8789l-.23438 2.4414m-.61718-3.0078l-.1172 1.22265m14.53517-1.10938l-6.3672-2.97265m6.3672 2.97265l.1289 2.44922m-1.05469-2.88281l.12891 2.45312m14.35547-2.72656l-6.85156-1.55469m6.85156 1.5547l.64453 2.36718m-1.64063-2.59375l.32032 1.1836m13.9961-.98438l-6.86329-1.5039m6.86328 1.5039l.66016 2.36328m-1.65625-2.58203l.66015 2.36328m13.72266-2.625l-7.00781-.54297m7.00781.54297l.98047 2.25m-2-2.32813l.98047 2.25m-2-2.32812l.49219 1.125m14.87109-1.15235l-7.02344-.17578m7.02344.17579l1.09766 2.1914m-2.1211-2.21875l1.10156 2.19531m13.22657-1.97656l-7.00391-.5586m7.0039.5586l.97657 2.2539m-1.9961-2.33593l.97657 2.2539m13.3711-2.48046l-7.02735.0586m7.02734-.0586l1.16797 2.15625m-2.1914-2.14844l1.16796 2.16016m13.16797-2.08985l-7.02734-.09765m7.02734.09765l1.1211 2.1836m-2.14063-2.19532l1.1211 2.1797m-2.14454-2.19532l.5586 1.08984m14.79687-.92578l-7.01953-.36719m7.01953.3672l1.03516 2.22265m-2.0586-2.27735l1.03907 2.22266m-2.0586-2.27734l.51953 1.11328m14.83204-1.45313l-7.00782.52735m7.00782-.52735l1.3125 2.07422m-2.33204-1.9961l1.3125 2.07423m-2.33203-2l1.3125 2.07421m13.92578-2.89453l-6.77343 1.86329m6.77343-1.86329l1.6836 1.78516m-2.66797-1.51172l1.6836 1.78125m-2.67188-1.51172l1.6875 1.78516m13.38281-2.91406l-6.33984 3.03515m6.33984-3.03515l1.97266 1.45703m-2.89453-1.01563l1.97265 1.45703m-2.89453-1.01562L400.28516 348m13.20312-2.30078l-6.375 2.95703m6.375-2.95703l1.95703 1.48047m-2.88281-1.05078l1.95703 1.48437m-2.88672-1.05469l1.95703 1.48438m13.32422-2.07422l-6.59765 2.41797m6.59765-2.41797l1.82813 1.63672m-2.78516-1.28516l1.82422 1.63672m-2.78516-1.28515l.91407.8203m14.48047-.9414l-6.91797 1.2539m6.91797-1.2539l1.51953 1.92578m-2.52735-1.74219l1.51953 1.92579m-2.52734-1.7422l.76172.96095m14.53125-1.50391l-6.84375 1.60547m6.84375-1.60547l1.61719 1.84766m-2.61328-1.61329l1.61718 1.84766m-2.61328-1.61328l.8086.92188m14.36718-1.82032l-6.57812 2.46485"/><g clip-path="url(#au)"><path fill="none" stroke="#000" stroke-linecap="round" stroke-linejoin="round" stroke-miterlimit="10" stroke-width=".5" d="M466.85156 345.94531l1.83985 1.625"/></g><path fill="none" stroke="#000" stroke-linecap="round" stroke-linejoin="round" stroke-miterlimit="10" stroke-width=".5" d="M465.89453 346.30469l1.83985 1.6211m-2.79688-1.26173l.91797.8086"/><g clip-path="url(#av)"><path fill="none" stroke="#000" stroke-linecap="round" stroke-linejoin="round" stroke-miterlimit="10" stroke-width=".5" d="M140.49219 333.64844l7.01562.42578"/></g><path fill="none" stroke="#000" stroke-linecap="round" stroke-linejoin="round" stroke-miterlimit="10" stroke-width=".5" d="M154.30469 332.05469l6.02344 3.61719m-5.14844-3.09375l.0625-1.22266m13.5586-.49219l3.65624 6m-3.1211-5.1289l.625-1.0547m13.35157 6.64063l1.26563-6.91406m-1.08204 5.90625l-1.16797.3711m15.00782.6914l-.15235-7.02344m.12891 6.0039l-1.07031.59767m13.78906.3828l1.08984-6.9453m-.93359 5.93359l-1.15625.40234m17.16016-.20703l-4.60157-5.3125m4.60157 5.3125l-.88672 2.28906m.21484-3.0625l-.88281 2.28907m14.5625-1.28125l-3.98828-5.78516m3.98828 5.78516l-1.1289 2.17968m.55077-3.01953l-.5664 1.08985m15.57031-1.4922l-6.20703-3.29687m6.20703 3.29688v2.45312m-.90625-2.93359l.0039 2.45313m-.90624-2.9336v1.22656m15.43359-1.08203l-6.82813-1.66406m6.82813 1.66406l.60547 2.375m-1.59766-2.61719l.60547 2.375m-1.60156-2.61718l.30469 1.1875m15.07812-1.15625l-6.98828-.75781m6.98828.7578l.91016 2.27735m-1.92578-2.38672l.91015 2.27735m13.41406-2.1172l-6.97265-.85937m6.97265.85938l.87891 2.28906m-1.89453-2.41406l.8789 2.28906m13.47266-2.39844l-7.01562-.39062m7.01562.39062l1.02735 2.22657m-2.04688-2.28125l1.02735 2.22656m-2.05079-2.28516l.51563 1.11328m14.84765-1.14453l-7.02734-.10156m7.02735.10156l1.12109 2.1836m-2.14453-2.19922l1.1211 2.1836m-2.14063-2.19923l.55859 1.09375m14.80078-1.08594l-7.02734-.05468m7.02734.05469l1.13281 2.17578m-2.15625-2.1836l1.13282 2.17578m13.20312-2.14062l-7.02344-.10938m7.02344.10938l1.11719 2.1875m-2.13672-2.20313l1.11719 2.1836m13.21484-2.02344l-7.01562-.39844m7.01562.39844l1.02344 2.23047m-2.04688-2.28906l.51563 1.11328m13.82812-1.20313l-7.02734-.10156m7.02734.10156l1.1211 2.17969m-2.14453-2.19531l1.12109 2.1836m-2.14453-2.19923l.5625 1.09375m14.6289-2.1914l-6.6875 2.15625m6.6875-2.15625l1.76172 1.70703m-2.73437-1.39453l1.76172 1.71093m12.69531-.90625l-7.02734-.07812m7.02734.07812l1.1289 2.17579m-2.15234-2.1875l1.1289 2.17578M413.75 333.1875l-6.89844 1.35156m6.89844-1.35156l1.54688 1.90625m-2.55079-1.71094l1.54688 1.90625m-2.55078-1.70703l.77344.94922m14.4414-1.75781l-6.67969 2.17969m6.6797-2.1797l1.76562 1.69923m-2.73829-1.38282l1.76954 1.69922m-2.7422-1.38281l.88673.85156m14.47656-1.09375l-6.88672 1.39844m6.88672-1.39844l1.5586 1.89453m-2.5625-1.6914l1.5625 1.89453m-2.5625-1.6914l1.55859 1.89452m13.6914-2.58203l-6.75 1.96094m6.75-1.96094l1.71094 1.75781m-2.69531-1.47265l1.71484 1.75781m-2.69531-1.47265l1.71094 1.7578m13.4375-2.69921l-6.48828 2.69922"/><g clip-path="url(#aw)"><path fill="none" stroke="#000" stroke-linecap="round" stroke-linejoin="round" stroke-miterlimit="10" stroke-width=".5" d="M466.80469 332.51172l1.89844 1.5586"/></g><g clip-path="url(#ax)"><path fill="none" stroke="#000" stroke-linecap="round" stroke-linejoin="round" stroke-miterlimit="10" stroke-width=".5" d="M465.86328 332.90625l1.89453 1.5586"/></g><path fill="none" stroke="#000" stroke-linecap="round" stroke-linejoin="round" stroke-miterlimit="10" stroke-width=".5" d="M464.91797 333.30078l1.89453 1.55469"/><g clip-path="url(#ay)"><path fill="none" stroke="#000" stroke-linecap="round" stroke-linejoin="round" stroke-miterlimit="10" stroke-width=".5" d="M141.07031 318.60938l5.85938 3.875"/></g><path fill="none" stroke="#000" stroke-linecap="round" stroke-linejoin="round" stroke-miterlimit="10" stroke-width=".5" d="M153.80078 320.51563l7.02734.0664m-7.02734-.0664l-1.1289-2.1797m14.5039 1.5625l6.90625 1.29688m-6.90625-1.29687l-.73047-2.33985m14.40625 4.65235l6.1875-3.32422m-5.28906 2.83984l-1.01953-.67969m13.69531 1.57813l5.66797-4.15625m-4.84375 3.55078l-1.10547-.53125m16.28516 2.57031l.29297-7.01953m-.29297 7.01953l-2.21485 1.0586m2.25782-2.08203l-1.10938.53125m15.67969.30078l-2.3086-6.63672m2.3086 6.63672l-1.66797 1.80078m1.33203-2.76563l-1.66797 1.79688m15.96485-1.13281l-3.59766-6.03516m3.59766 6.03516l-1.26953 2.09765m.74609-2.97656l-1.26953 2.09766m16.20312-2.2461l-5.78906-3.98047m5.78906 3.98047l-.27734 2.4375m-.5625-3.01562l-.28125 2.4375m-.5625-3.01953l-.14063 1.21875m15.71875-1.51172l-6.9453-1.07422m6.9453 1.07422l.8047 2.3164m-1.81642-2.47265l.8086 2.3164m-1.82031-2.47265l.40625 1.15625m14.97265-1.28125l-7.02734-.19922m7.02734.19922l1.08985 2.19922m-2.11329-2.23047l1.08985 2.19922m-2.11328-2.22657l.54687 1.09766m14.8125-1.23047l-7.02344.1836m7.02344-.1836l1.21094 2.13672m-2.23047-2.10938l1.20703 2.13672m13.1211-2.33593l-7.00782.52734m7.00782-.52734l1.3125 2.07421m-2.33204-2l1.3125 2.07422m13.02735-1.74609l-7.01953-.27734m7.01953.27734l1.0664 2.21094m-2.08593-2.25l1.0625 2.20703m-2.08594-2.25l.53516 1.10547m14.80859-1.52344l-6.99219.71875m6.99219-.71875l1.36719 2.03906m-2.38282-1.9336l1.3672 2.03907m12.93359-2.36328l-6.9297 1.15625m6.9297-1.15625l1.49218 1.94922m-2.5-1.78125l.7461.97656m13.61718-.34765l-7.01171-.4336m7.01171.4336l1.01954 2.23046m12.10546-3.60937l-6.6328 2.32422m6.6328-2.32422l1.8047 1.66015m11.03124-2.5703l-5.67187 4.14452m5.67187-4.14453l2.20703 1.07031m-3.03125-.46875l2.20703 1.07032M400 318.74219l-6.02734 3.60937M400 318.7422l2.10156 1.26953m11.34766 2.09765l-6.29688-3.12109m6.29688 3.1211l.07031 2.45312m13.54688-3.33984l-6.89844-1.34766m5.89453 1.14844l.35547 1.17578m12.40234-4.61328l-3.77734 5.92578m3.22656-5.0625l1.22656.09375m13.27344-.4414l-5.04297 4.89452m5.04297-4.89453l2.33594.7539m-3.07031-.04296l2.33593.7539m11.9961-1.13671l-5.60938 4.23437"/><g clip-path="url(#az)"><path fill="none" stroke="#000" stroke-linecap="round" stroke-linejoin="round" stroke-miterlimit="10" stroke-width=".5" d="M466.36719 318.42969l2.22265 1.03515"/></g><g clip-path="url(#aA)"><path fill="none" stroke="#000" stroke-linecap="round" stroke-linejoin="round" stroke-miterlimit="10" stroke-width=".5" d="M465.55078 319.04688l2.22266 1.03515"/></g><path fill="none" stroke="#000" stroke-linecap="round" stroke-linejoin="round" stroke-miterlimit="10" stroke-width=".5" d="M464.73438 319.66406l2.22265 1.03516"/><path fill="#00f" fill-rule="evenodd" d="M295.03516 467.64844h8.61718V457.5039h-8.61718v10.14453"/><path fill="azure" fill-rule="evenodd" d="M296.86719 459.33594h.83203v2.82422h3.28515v-2.82422h.83594v6.48047h-.83594v-2.91797h-3.28515v2.91797h-.83203v-6.48047"/><path fill="#00f" fill-rule="evenodd" d="M388.23828 467.64844h8.61719V457.5039h-8.61719v10.14453"/><path fill="azure" fill-rule="evenodd" d="M390.07031 459.33594h.83594v2.82422h3.28516v-2.82422h.83203v6.48047h-.83203v-2.91797h-3.28516v2.91797h-.83594v-6.48047"/><path fill="#00f" fill-rule="evenodd" d="M237.33594 441.01953h8.61719V430.8711h-8.6172v10.14844"/><path fill="azure" fill-rule="evenodd" d="M239.16797 432.70703H240v2.82031h3.28516v-2.8203h.83593v6.47655h-.83593v-2.91406H240v2.91406h-.83203v-6.47656"/><path fill="#ff3030" fill-rule="evenodd" d="M375.61719 418.82813h7.69531v-10.14844h-7.69531v10.14844"/><path fill="azure" fill-rule="evenodd" d="M377.44922 410.51172h.83594v5.74219h3.1914v.73828h-4.02734v-6.48047"/><path fill="#ff3030" fill-rule="evenodd" d="M291.28906 414.38672h7.6914v-10.14453h-7.6914v10.14453"/><path fill="azure" fill-rule="evenodd" d="M293.1211 406.07422h.83593v5.74219h3.1914v.73828h-4.02734v-6.48047"/><path fill="#ff3030" fill-rule="evenodd" d="M189.20703 370.0039h7.6914v-10.14452h-7.6914v10.14453"/><path fill="azure" fill-rule="evenodd" d="M191.03906 361.6914h.83594v5.73829h3.1914v.74219h-4.02734v-6.48047"/><path fill="#ffffe0" fill-rule="evenodd" d="M333.9336 441.25h22.17968v-10.1914H333.9336V441.25"/><path fill-rule="evenodd" d="M337.42969 432.89063h.51172v6.29296h-.78907v-4.48828h-1.38671v-.55469l.55859-.0664.2539-.05469.22657-.08594.20703-.14453.17187-.20703.14063-.29687.10547-.39454m4.8164 0l.22657.01954.21875.05468.21093.08985.19532.1211.18359.14843.17188.17578.30078.42188.24609.49218.17969.54688.10937.57812.03906.58985-.03906.59375-.10937.58593-.17969.5547-.2461.5-.30077.42968-.17188.17969-.1836.15234-.1953.125-.21094.08984-.21875.0586-.22657.01953-.23046-.01953-.21875-.0586-.20704-.08984-.19921-.125-.1836-.15234-.17187-.1797-.30079-.42968-.24218-.5-.17969-.55469-.11328-.58593-.03516-.59375h.83203l.02735.5664.08203.5039.125.44142.16406.375.1914.30078.21094.22265.22266.13672.22656.04688.22657-.04688.22265-.13672.21094-.22265.1875-.30079.16406-.375.125-.4414.08203-.5039.03125-.56641-.03125-.5586-.08203-.5-.125-.4375-.16406-.36719-.1875-.28906-.21094-.21484-.22265-.13281-.22657-.04297-.22656.04297-.22265.1328-.21094.21485-.1914.28906-.16407.3672-.125.4375-.08203.5-.02735.55859h-.83203l.03516-.58985.11328-.57812.17969-.54688.24219-.49219.30078-.42187.17187-.17578.1836-.14844.19921-.1211.20704-.08984.21875-.05468.23046-.01954m4.95313 0l.22656.01954.21875.05468.21094.08985.19531.1211.1836.14843.17187.17578.30078.42188.24219.49218.17969.54688.11328.57812.03906.58985-.03906.59375-.11328.58593-.1797.5547-.24218.5-.30078.42968-.17188.17969-.18359.15234-.19531.125-.21094.08984-.21875.0586-.22656.01953-.23047-.01953-.21875-.0586-.20703-.08984-.19922-.125-.1836-.15234-.17187-.1797-.30078-.42968-.24219-.5-.17969-.55469-.11328-.58593-.03906-.59375h.83594l.02734.5664.08203.5039.125.44142.16407.375.1914.30078.21094.22265.22266.13672.22656.04688.22656-.04688.22266-.13672.21094-.22265.1875-.30079.16406-.375.125-.4414.08203-.5039.03125-.56641-.03125-.5586-.08203-.5-.125-.4375-.16406-.36719-.1875-.28906-.21094-.21484-.22266-.13281-.22656-.04297-.22656.04297-.22266.1328-.21094.21485-.1914.28906-.16407.3672-.125.4375-.08203.5-.02734.55859h-.83594l.03906-.58985.11329-.57812.17968-.54688.24219-.49219.30078-.42187.17188-.17578.18359-.14844.19922-.1211.20703-.08984.21875-.05468.23047-.01954m4.94922 0l.39062.02735.35547.08203.32422.13672.28125.1875.22656.23828.17578.28516.10938.33203.03515.375-.01953.27734-.05859.23438-.08594.19921-.11328.17188-.1289.14063-.14063.125-.28516.1953.23047.1211.21094.14453.17969.17188.15234.19531.125.21094.08985.23047.05859.24609.01953.2539-.03516.3086-.10546.32813-.17188.32421-.23828.3047-.3086.26952-.37109.21485-.21484.08203-.22656.0625-.2461.03515-.25781.01563-.26172-.01563-.24219-.03515-.22265-.0625-.20704-.08203-.35937-.21485-.28906-.26953-.22266-.30469-.15625-.32421-.09375-.32813-.03125-.3086h.83594l.02734.25391.07813.23438.1211.21094.16015.1875.1914.15234.22266.11328.23828.07031.2539.02735.25782-.02735.23828-.07031.22266-.11328.1914-.15235.16016-.1875.1211-.21093.07812-.23438.02734-.2539-.02734-.25391-.07813-.23438-.12109-.21093-.16016-.1875-.1914-.15235-.22266-.11328-.23828-.07031-.25781-.02734-.2539.02734-.23829.07031-.22266.11328-.1914.15235-.16016.1875-.1211.21094-.07812.23437-.02734.2539h-.83594l.01953-.2539.0586-.23828.08984-.22656.1211-.20704.15624-.1914.1797-.17188.21093-.15234.23047-.13281-.28516-.19531-.14062-.125-.12891-.14063-.11328-.17188-.08594-.19921-.0586-.23438-.01952-.27734h.78515l.02344.21484.0664.1914.10157.16798.14062.14062.16407.10938.1875.08203.20703.05078.21875.01562.22265-.01562.20704-.05078.1875-.08203.16406-.10938.13672-.14062.10546-.16797.06641-.1914.02344-.21485-.02344-.21094-.0664-.1914-.10547-.16798-.13672-.14062-.16406-.10938-.1875-.08203-.20704-.05078-.22265-.01562-.21875.01562-.20703.05078-.1875.08204-.16407.10937-.14062.14063-.10156.16796-.06641.19141-.02344.21094h-.78515l.03515-.375.10938-.33203.17187-.28516.23047-.23828.28125-.1875.32422-.13672.35547-.08203.38672-.02735"/><path fill="#ffffe0" fill-rule="evenodd" d="M161.05469 352.48438h22.17969v-10.19532h-22.1797v10.19531"/><path fill-rule="evenodd" d="M164.55469 344.125h.50781v6.29297h-.78516v-4.48828h-1.39062v-.5586l.5625-.0625.25-.05468.23047-.08985.20312-.14062.17578-.21094.14063-.29297.10547-.39453m4.8125 0l.23047.01563.21875.05859.20703.08984.19922.11719.18359.15234.17188.17579.30078.41796.24218.4961.1797.54297.11327.58203.03906.58984-.03906.59375-.11328.58203-.17969.55469-.24218.5039-.30078.42579-.17188.17969-.1836.15234-.19921.125-.20703.09375-.21875.05469-.23047.01953-.22656-.01953-.21875-.0547-.21094-.09374-.19531-.125-.1836-.15235-.17187-.17968-.30078-.42578-.2461-.50391-.17969-.55469-.10937-.58203-.03906-.59375h.83203l.03125.5625.08203.50781.125.44141.16406.375.1875.30078.21094.22266.22266.13672.22656.04687.22656-.04687.22266-.13672.21093-.22266.19141-.30078.16406-.375.125-.4414.08203-.50782.02735-.5625-.02735-.5625-.08203-.5-.125-.4336-.16406-.36718-.1914-.29297-.21094-.21484-.22266-.1289-.22656-.04688-.22656.04687-.22266.1289-.21094.21485-.1875.29297-.16406.36719-.125.4336-.08203.5-.03125.5625h-.83203l.03906-.58985.10937-.58203.1797-.54297.24608-.4961.30079-.41796.17187-.17579.1836-.15234.1953-.11719.21095-.08984.21875-.0586.22656-.01562m4.95312 0l.23047.01563.21875.05859.20703.08984.19531.11719.1875.15234.17188.17579.30078.41796.24219.4961.17969.54297.11328.58203.03515.58984-.03515.59375-.11328.58203-.1797.55469-.24218.5039-.30078.42579-.17188.17969-.1875.15234-.1953.125-.20704.09375-.21875.05469-.23047.01953-.23047-.01953-.21875-.0547-.20703-.09374-.19531-.125-.1836-.15235-.17187-.17968-.30078-.42578-.2461-.50391-.17968-.55469-.10938-.58203-.03906-.59375h.83203l.03125.5625.08203.50781.125.44141.16016.375.1914.30078.21094.22266.22266.13672.22656.04687.22656-.04687.22266-.13672.21094-.22266.1914-.30078.16407-.375.125-.4414.08203-.50782.02734-.5625-.02734-.5625-.08203-.5-.125-.4336-.16406-.36718-.19141-.29297-.21094-.21484-.22266-.1289-.22656-.04688-.22656.04687-.22266.1289-.21093.21485-.19141.29297-.16016.36719-.125.4336-.08203.5-.03125.5625h-.83203l.03906-.58985.10938-.58203.17969-.54297.24609-.4961.30078-.41796.17188-.17579.18359-.15234.19531-.11719.20703-.08984.21875-.0586.23047-.01562m4.95313 0l.38672.02734.35937.08204.32422.13671.27734.1875.23047.23438.17188.28515.10937.33594.03906.375-.01953.27344-.05859.23438-.08984.20312-.10938.16797-.1289.14453-.14063.1211-.28516.19921.23047.11719.20703.14844.1836.17187.15234.1914.125.21485.08984.23047.0547.24219.01952.25781-.03515.3086-.10156.32421-.17188.32813-.24219.30469-.30469.26953-.375.21484-.21093.08203-.22656.0586-.2461.03906-.26172.01172-.25781-.01172-.24219-.03906-.22265-.0586-.20703-.08203-.35938-.21484-.28906-.26953-.22266-.3047-.15625-.32812-.09375-.32421-.03125-.3086h.83203l.02735.25.07812.23828.1211.21094.16406.1836.1914.15234.21875.11719.2422.0703.2539.02735.2539-.02734.2422-.07031.21874-.1172.19531-.15234.16016-.18359.1211-.21094.07812-.23828.02734-.25-.02734-.2539-.07813-.23438-.12109-.21484-.16016-.1836-.1953-.15234-.21876-.11328-.24219-.07422-.2539-.02344-.2539.02344-.2422.07422-.21875.11328-.1914.15234-.16406.1836-.1211.21484-.07812.23438-.02735.2539h-.83203l.01953-.2539.05469-.2422.08984-.22265.125-.20703.15235-.1914.1836-.17188.20702-.15235.23438-.1328-.28906-.19923-.14063-.12109-.1289-.14453-.10938-.16797-.08984-.20313-.0547-.23437-.02343-.27344h.78906l.02344.21485.0625.1914.10547.16797.13672.13672.16406.11328.1914.08203.20704.05078.21875.01563.22265-.01563.20313-.05078.1914-.08203.16407-.11328.13672-.13672.10547-.16797.0664-.1914.01953-.21485-.01953-.21484-.0664-.1914-.10547-.16407-.13672-.14063-.16406-.11328-.19141-.07812-.20313-.05078-.22265-.01953-.21875.01953-.20703.05078-.19141.07812-.16406.11329-.13672.14062-.10547.16406-.0625.1914-.02344.21485h-.78906l.03906-.375.10938-.33594.17187-.28515.23047-.23438.28125-.1875.32031-.13671.35938-.08204.38672-.02734"/><path fill="#ffffe0" fill-rule="evenodd" d="M310.67578 369.51172h22.17969V359.3164h-22.17969v10.1953"/><path fill-rule="evenodd" d="M314.17578 361.15234h.50781v6.29297h-.78515v-4.48828h-1.39063v-.55469l.5586-.0664.2539-.05469.23047-.08984.20313-.14063.17187-.21094.14453-.29296.10547-.39454m4.8125 0l.23047.01954.21875.05468.20703.08985.19531.12109.1836.14844.17187.17578.30469.41797.24219.4961.17969.54687.10937.57812.03906.58985-.03906.59375-.10938.58203-.17968.55468-.24219.50391-.30469.42578-.17187.17969-.1836.15625-.1953.1211-.20704.09374-.21875.05469-.23047.01953-.23047-.01953-.21875-.05469-.20703-.09375-.19531-.1211-.1836-.15624-.17187-.17969-.30469-.42578-.24219-.5039-.17968-.5547-.10938-.58202-.03906-.59375h.83203l.03125.5625.07813.5078.1289.44141.16016.375.1914.30079.21094.22265.22266.13672.22656.04688.22656-.04688.22266-.13672.21094-.22265.1914-.30079.16016-.375.1289-.4414.08204-.50781.02734-.5625-.02734-.5625-.08203-.5-.12891-.4336-.16016-.36719-.1914-.29296-.21094-.21094-.22266-.13281-.22656-.04688-.22656.04688-.22266.1328-.21094.21094-.1914.29297-.16016.3672-.1289.43358-.07813.5-.03125.5625h-.83203l.03906-.58984.10938-.57812.17969-.54688.24218-.4961.30469-.41796.17188-.17578.18359-.14844.19531-.1211.20703-.08984.21875-.05469.23047-.01953m5.08985 0h.51171v6.29297h-.78906v-4.48828h-1.38672v-.55469l.5586-.0664.2539-.05469.23047-.08984.20313-.14063.17187-.21094.14063-.29296.10546-.39454m2.82422 2.17579h.78907l.01953-.31641.0586-.28906.09765-.25.14062-.21485.1836-.17578.22265-.1289.26563-.08204.30469-.02734.23828.02344.22656.0625.20312.10156.1797.13672.14843.17578.11328.20313.07031.23828.02735.26171-.02344.26954-.0664.22656-.10938.1914-.15625.17188-.19922.16016-.2461.16796-.63671.38672-.53516.3125-.4375.32032-.34766.32421-.26562.33594-.1875.34766-.125.3711-.07031.39452-.01954.41797h4.21094v-.73828h-3.33203l.08203-.28515.11328-.23829.14844-.19921.1875-.1836.23047-.16797.27734-.17578.71875-.41797.41407-.20703.34765-.23047.28125-.25.21875-.26562.16406-.28125.10938-.28125.0664-.28516.01954-.28125-.04297-.38281-.1211-.34766-.1875-.3086-.25-.26562-.30468-.21093-.34375-.15625-.3789-.10157-.41017-.03125-.43359.03125-.39844.09766-.35546.16797-.3047.23437-.24609.3047-.1875.375-.11328.4453-.04297.51954"/><path fill="#ffffe0" fill-rule="evenodd" d="M302.73047 330.28906h22.1836v-10.1914h-22.1836v10.1914"/><path fill-rule="evenodd" d="M306.23047 321.92969h.51172v6.29687h-.78906v-4.48828h-1.38672v-.5586l.55859-.0625.2539-.05468.22657-.08984.20312-.14063.17579-.21094.14062-.29296.10547-.39844m4.8164 0l.22657.01953.21875.0586.21094.08593.1953.1211.1836.15234.17188.17578.30078.41797.24219.49219.17968.54687.11328.58203.03907.58985-.03907.59375-.11328.58203-.17969.55468-.24218.50391-.30078.42578-.17188.17969-.1836.15234-.1953.125-.21094.09375-.21875.05469-.22656.01953-.23047-.01953-.21875-.05469-.20704-.09375-.19921-.125-.1836-.15234-.17187-.17969-.30078-.42578-.2422-.5039-.17968-.5547-.11328-.58202-.03906-.59375h.83594l.02734.5625.08203.5078.125.44141.16406.375.1914.30079.21095.21875.22265.13671.22656.04688.22657-.04688.22265-.13671.20704-.21875.1914-.30079.16406-.375.125-.4414.08204-.50781.02734-.5625-.02735-.5625-.08203-.5-.125-.4336-.16406-.36719-.1914-.29296-.20704-.21485-.22265-.1289-.22656-.04688-.22657.04688-.22265.1289-.21094.21485-.1914.29296-.16407.3672-.125.43358-.08203.5-.02735.5625h-.83593l.03906-.58984.11328-.58203.17969-.54688.24219-.49218.30078-.41797.17187-.17578.1836-.15235.19921-.12109.20704-.08594.21875-.0586.23046-.01952m5.08985 0h.50781v6.29687h-.78515v-4.48828h-1.39063v-.5586l.5625-.0625.25-.05468.23047-.08984.20312-.14063.17579-.21094.14062-.29296.10547-.39844m6.80469 1.6211h-.78907l-.05078-.21095-.08203-.1875-.10547-.15625-.1289-.1328-.14844-.10157-.16016-.07422-.16797-.04688-.17187-.01562-.32813.04297-.28906.11719-.2461.1953-.20312.26954-.16015.33984-.1172.40235-.0703.46875-.02344.52344.1914-.19922.1836-.16016.1875-.1211.1836-.08984.1914-.0625.1914-.03515.39844-.02344.3086.03125.3203.08984.31642.15625.29296.21875.25782.28516.19921.35156.07032.19922.05469.21875.02734.23438.0039.25-.78515.04687-.02735-.25781-.07812-.2539-.1211-.23438-.16015-.20704-.19531-.17968-.21875-.13672-.24219-.08985-.2539-.03125-.25391.03125-.24219.08985-.21875.13672-.1914.17969-.16407.20703-.1211.23437-.07812.2539-.02734.25782.02734.25781.07813.25.1211.23828.16405.20704.19141.17968.21875.13672.24219.08594.2539.03125.25391-.03125.24219-.08594.21875-.13672.19531-.17969.16016-.20703.12109-.23828.07813-.25.02734-.25781.78515-.04688-.02734.3711-.09375.3711-.16015.35937-.22266.32812-.28906.28125-.16797.1211-.1914.10156-.20313.08203-.22266.0625-.24219.03906-.26172.01172-.28125-.01562-.26171-.04688-.23829-.07812-.21484-.10157-.19531-.1328-.17188-.15626-.15625-.17969-.13281-.20312-.11719-.22266-.10156-.24219-.14453-.53515-.08594-.59375-.02734-.64063.03906-.74218.11328-.66407.1875-.57812.1211-.2539.13671-.23048.15235-.20703.17187-.17969.1836-.15625.20312-.1289.21875-.10156.23047-.07422.25-.04688.26172-.01562.36328.03515.33594.09766.29297.14844.2578.19922.21095.24218.16406.27344.11719.30469.0625.32031"/></g></defs><use xlink:href="#aB"/></svg>