<svg xmlns="http://www.w3.org/2000/svg" role="img" xmlns:xlink="http://www.w3.org/1999/xlink" viewBox="142.45 309.95 326.84 171.84"><defs><clipPath id="a"><path d="M144 311.67188h1v168.65625h-1zm0 0"/></clipPath><clipPath id="b"><path d="M144 311.67188h324v168.65625H144zm0 0"/></clipPath><clipPath id="c"><path d="M384 476h15v4.32813h-15zm0 0"/></clipPath><clipPath id="d"><path d="M386 477h10v3.32813h-10zm0 0"/></clipPath><clipPath id="e"><path d="M390 479h4v1.32813h-4zm0 0"/></clipPath><clipPath id="f"><path d="M449 479h2v1.32813h-2zm0 0"/></clipPath><clipPath id="g"><path d="M461 474h7v6.32813h-7zm0 0"/></clipPath><clipPath id="h"><path d="M466 478h2v2.32813h-2zm0 0"/></clipPath><clipPath id="i"><path d="M467 311.67188h1V475h-1zm0 0"/></clipPath><clipPath id="j"><path d="M144 480h4v.32813h-4zm0 0"/></clipPath><clipPath id="k"><path d="M147 480h2v.32813h-2zm0 0"/></clipPath><clipPath id="l"><path d="M146 480h2v.32813h-2zm0 0"/></clipPath><clipPath id="m"><path d="M153 479h9v1.32813h-9zm0 0"/></clipPath><clipPath id="n"><path d="M160 480h3v.32813h-3zm0 0"/></clipPath><clipPath id="o"><path d="M159 480h2v.32813h-2zm0 0"/></clipPath><clipPath id="p"><path d="M166 479h9v1.32813h-9zm0 0"/></clipPath><clipPath id="q"><path d="M173 480h3v.32813h-3zm0 0"/></clipPath><clipPath id="r"><path d="M180 479h8v1.32813h-8zm0 0"/></clipPath><clipPath id="s"><path d="M187 480h2v.32813h-2zm0 0"/></clipPath><clipPath id="t"><path d="M193 479h9v1.32813h-9zm0 0"/></clipPath><clipPath id="u"><path d="M200 480h3v.32813h-3zm0 0"/></clipPath><clipPath id="v"><path d="M206 479h9v1.32813h-9zm0 0"/></clipPath><clipPath id="w"><path d="M213 479h3v1.32813h-3zm0 0"/></clipPath><clipPath id="x"><path d="M220 479h8v1.32813h-8zm0 0"/></clipPath><clipPath id="y"><path d="M227 479h2v1.32813h-2zm0 0"/></clipPath><clipPath id="z"><path d="M233 479h8v1.32813h-8zm0 0"/></clipPath><clipPath id="A"><path d="M240 479h3v1.32813h-3zm0 0"/></clipPath><clipPath id="B"><path d="M246 479h9v1.32813h-9zm0 0"/></clipPath><clipPath id="C"><path d="M253 479h3v1.32813h-3zm0 0"/></clipPath><clipPath id="D"><path d="M260 478h8v2.32813h-8zm0 0"/></clipPath><clipPath id="E"><path d="M273 478h8v2.32813h-8zm0 0"/></clipPath><clipPath id="F"><path d="M279 479h2v1.32813h-2zm0 0"/></clipPath><clipPath id="G"><path d="M286 479h9v1.32813h-9zm0 0"/></clipPath><clipPath id="H"><path d="M292 479h2v1.32813h-2zm0 0"/></clipPath><clipPath id="I"><path d="M300 478h8v2.32813h-8zm0 0"/></clipPath><clipPath id="J"><path d="M305 479h3v1.32813h-3zm0 0"/></clipPath><clipPath id="K"><path d="M314 478h7v2.32813h-7zm0 0"/></clipPath><clipPath id="L"><path d="M328 477h5v3.32813h-5zm0 0"/></clipPath><clipPath id="M"><path d="M342 476h3v4.32813h-3zm0 0"/></clipPath><clipPath id="N"><path d="M353 479h8v1.32813h-8zm0 0"/></clipPath><clipPath id="O"><path d="M366 479h9v1.32813h-9zm0 0"/></clipPath><clipPath id="P"><path d="M379 479h9v1.32813h-9zm0 0"/></clipPath><clipPath id="Q"><path d="M394 477h6v3.32813h-6zm0 0"/></clipPath><clipPath id="R"><path d="M409 476h3v4.32813h-3zm0 0"/></clipPath><clipPath id="S"><path d="M422 476h3v4.32813h-3zm0 0"/></clipPath><clipPath id="T"><path d="M436 476h2v4.32813h-2zm0 0"/></clipPath><clipPath id="U"><path d="M449 476h3v4.32813h-3zm0 0"/></clipPath><clipPath id="V"><path d="M462 476h3v4.32813h-3zm0 0"/></clipPath><clipPath id="W"><path d="M144 466h4v2h-4zm0 0"/></clipPath><clipPath id="X"><path d="M144 451h4v5h-4zm0 0"/></clipPath><clipPath id="Y"><path d="M144 437h3v7h-3zm0 0"/></clipPath><clipPath id="Z"><path d="M466 439h2v3h-2zm0 0"/></clipPath><clipPath id="aa"><path d="M144 424h3v6h-3zm0 0"/></clipPath><clipPath id="ab"><path d="M466 425h2v2h-2zm0 0"/></clipPath><clipPath id="ac"><path d="M144 412h4v4h-4zm0 0"/></clipPath><clipPath id="ad"><path d="M465 410h3v3h-3zm0 0"/></clipPath><clipPath id="ae"><path d="M144 399h4v3h-4zm0 0"/></clipPath><clipPath id="af"><path d="M466 398h2v3h-2zm0 0"/></clipPath><clipPath id="ag"><path d="M144 386h4v3h-4zm0 0"/></clipPath><clipPath id="ah"><path d="M466 386h2v3h-2zm0 0"/></clipPath><clipPath id="ai"><path d="M144 372h4v4h-4zm0 0"/></clipPath><clipPath id="aj"><path d="M466 372h2v3h-2zm0 0"/></clipPath><clipPath id="ak"><path d="M144 358h4v5h-4zm0 0"/></clipPath><clipPath id="al"><path d="M466 358h2v3h-2zm0 0"/></clipPath><clipPath id="am"><path d="M144 343h3v8h-3zm0 0"/></clipPath><clipPath id="an"><path d="M466 345h2v3h-2zm0 0"/></clipPath><clipPath id="ao"><path d="M465 345h3v3h-3zm0 0"/></clipPath><clipPath id="ap"><path d="M144 332h4v4h-4zm0 0"/></clipPath><clipPath id="aq"><path d="M466 331h2v3h-2zm0 0"/></clipPath><clipPath id="ar"><path d="M465 332h3v3h-3zm0 0"/></clipPath><clipPath id="as"><path d="M144 320h4v2h-4zm0 0"/></clipPath><clipPath id="at"><path d="M465 318h3v2h-3zm0 0"/></clipPath><g id="au" clip-path="url(#clip1)"><path fill="#fff" fill-opacity="0" fill-rule="evenodd" d="M0 0h1000v1000H0zm0 0"/><path fill="#d3d3d3" fill-opacity="0" fill-rule="evenodd" d="M162.15234 355.86719l-.23437.29297.0586.23437.11718.17188.17578.23437.29297.34766.11328.0586.11719-.17188.0586-.23438.17577-.17578.46485-.17578h.69922l.23437.29297.28906.8164.0586.17579.17578.23046.35156.23438.69922.69922.17188.17578.23437.34765.23438.41016.28906.58203.41015.46485.23047.23437.23438.17578.11719.23047.17578.29297.17187 1.16406v.23438l.0586.28906.05859.11719.11719.11719.34765.41015.11719.17188.17578.17578.17578.23437.11719.17188.17188.35156.05859.23438.23437.40625.23438-.0586-.17578.17578-.0586.92969h-.58203l-.23437-.11328-.34766.11328-.11719.11719-.05859.29297-.0586.17578-.11718.17187-.46484.29297-.0586.23438-.0586.11328v.64453l.0586.17187v.41016l.0586.0586v.40624l.05859.40625.11719.17579.05859.05859.23047.64062-.0586.29297v.69922l-.05859.58203v.23438l-.0586.23047-.05468.35156v1.92187l.05469.1172h.42578l-.36719.11718-.02344.35156.89063 1.16797 1.74219.53906 1.33984.35938v.53906l.08984.8086.53516.71484 1.51953.26953.89063-.08594.08984 1.16406.53516.1797 1.16015-.1797 2.05469-.98437 1.16016-.36328 1.8789-.17578 1.69531-.1797-.17968.71876-1.51563.08594-1.25.08984-.80469.26953-1.07421.8086.26953.71875.53515.89843-.17968.625-.26563.8086.26563 1.07812.625.89844.80468.17969 1.25-.1797-.26562.72267.09766.5039.05468.29297v.17188l.0586.29296v.40625l.17578.1172.35156.11718h.40625l.29297-.17578.11328-.11719.0586-.11719.11718-.23047.0586-.17578.35156-.46484.23047-.17578.17578-.0586.17578.0586.0586.17578.11718.98828.05469.46875.0586.17188.11718.23437.17578.0586.8164.05859h.28907l.11719.23437.05859.40625.0586.35156v1.10547l.11718.29297.11719.34766.28906.69922.17578.35156.58203.7539.35157.17579.17187.0586.46875.23437.64063.46484.34765.23438.29297.17578.29297.05468.23047.0625.8164.34766.29297.17578.11328.17188.35157.35156.11719.17578.52343.64063v.28906l.0586.35156v.34766l.05859.35156.0586.28906.11718.0586.17188.05859h.17578l.58203.23437.17578.1172.17578.28905.17578.23438.11328.23437.29297.23047.11719.11719v.41016l.0586.05468.28906.23438.23437.11719.0586.11718.11718.17188.0586.11719.23047.23437.05859.17578.23437.0586.1172.05859-.1172.11328-.05859.11719v.11719l-.11719.29296-.11719.28907v.58203l.17579.11719.11718.05859.0586.11719.11719.11719.11328.05859.17578.34765.0586.35157.05858.40625v.17578l-.05859.17578-.11719.69922v.17187l.1172.17579.29296.29296h.40625l.17578.1172.11719.17187.11719.29296v.23438h-.52735l-.23047-.23438h-.23437l-.17578.0586-.0586.69922.0586.34765.11719.17579.17578.41015.11718.23047.28907.46875.17578.05469h.52344l.23437.0586.75781.64062.0586.29296v.23438l.05859.0586.23047.34765v.35156l-.11719.17188v.29297l.29297.28906.29297.17578.17187.0586.29297.17577.29297.1172.58203.40624.28906.23438.29297.17578.21875.16015.01563.01172.23047.17579.64062.52343.17578.23438.1172.17578.17577.17578.11328.17188v.64062l.1172.17578.46874.11719.58203.11719.23438.05859.23047.11328.29297.11719.11328.0586.58593.35156.28907.17187.17578.0625.17578.05469.17578.0586.69922.35155.28906.17579.23438.05468.28906.17578.23437.1172.64063.40624.29297.11719.17187.0586.23438.05859.41015.05859.23047.0586.23438.11718.0586.17188-.41017.17578.46875.0586.0586.29296.11328.23438.17578.05468.23438.0586.17578.05859.40625.11719.64062.23437.11719.17188.0586.23437v.17578l-.0586.1172-.0586.40624.23438.23438.11719.05859.34766.11719.64062.23047.17578.11718.28906.1172.17578.17577.23438.46485.58203 1.10546.17578.17579.34766.17578.17578.11719.35156.11718 1.04688.52344.23437.0586.46485.11327.29297.0586.46484.17578.75781.58203.23438.23438.34765.46484.17578.17578.28907.23438.8164.69921.29297.17579.28906.28906.29297.17578.29297.28906.69531.64063.17578.17578.29297.23437.28907.23438.46875.28906.64062.58203.34766.23438.23437.29297.34766.34765.35156.46485.9336.99218.34765.40625.11719.17579.23437.05859.11328.11719.64454.17578.23047.11328.23437.0586.29297.17577.23047.1172.9336.69921.40624.40625.23438.17578.40625.17578.23437.11719.8164.34766.34766.23437.23438.11719.29297.28906.23047.11719.7578.35156.35157.17188.23047.05859.29297.11719.23437.0586.8711.17577h.8164l.46875.23047.17188.0586.875.69921.46484.1172.29297.05858.17578.0586.23047.0586.46875.05859.34766.05859.35156.0586.40625.05859h.29297l.17187.0586v.23046l.17578.17578h.29297l.34766.0586.35156.05859.69922.11719h.64063l.46484-.23438.29297-.17578.17187-.11719.41016-.17187.28906-.17578.9336-.46485.46875-.29297.52343-.29296.46485-.17188.46484-.17578 1.05078-.46485.28906-.11718.41016-.11719.28906-.11719.52735-.17578 1.51562-.69922.58203-.34765.28907-.0586.29297-.0586.34765-.11718.875-.23047.35156-.11719h.11329l.23437-.05859.875-.23437.23438-.0586h.8125l.35156-.0586.8164-.11718.17188-.0586.35156-.05468.29297-.0586.23047-.05859.8164-.17578.17579-.0586h.34765l.23438-.05859.46484-.11718.75781-.17188.23438-.0586h.34765l.41016-.11718.28906-.0586 1.28516-.05859h.28906l.41016-.0586.23047-.05858h.17578l.875-.1172h.40625l.41015-.11718h.34766l.35156-.11328.8711-.0586h1.75l1.04687.28907.41016.11719.28906.11718.35156.11719.28907.11719 1.05078.17187.28906.0586h.29297l.29297.05859.17187.0586.41016.05859.17187.0586.1172.05858h.11718l.11719.0586.35156.0586h.11328l.41016.0664 1.92187.39453 1.92578.39453 1.51953.44922 1.69532.71875 2.14453.80469 1.60547-.71875 1.42968-.80469 1.16016-1.07813 1.25-.44921 3.03516-.71875 1.875-.35938 2.14453-1.34765 2.23437-1.25391 2.5-1.25781 1.69531-.44922 1.78516-.17969 1.16016-.26953.625.53906 1.33984-.26953.71485-.98828.98437-1.34375.44531-.17969.80469-.35937 1.875-.53907 1.78516-.44921 1.25-.26954 1.16015-.08984 1.69922-.08984 1.96094-.26954 1.25-.08984h.53906l.625-.08984h.89063l2.14453-.17969 2.41015-.17969 2.58985-.08984 1.69531.17969 1.60938.08984 1.42968.35938 1.16016.71875 1.875.98828 1.16015 1.52734.26563.71484.6289.08985.35548.89844.53515.53906.53516 1.52734 1.07422.35938h.53515l-.80469.53515.08985 1.70703.71484 2.69532.89063.80468.89453.98829.71484 1.2578 1.78516.53907 1.51953-.17969.35547 1.34375 1.60937-.80469.98047-.53906.26953.26953.31641-.21484.21875-.14453.80078.44922.44922-.35938h.35547l.53515-.26953.53907-.71875.53515-.26953.625-.98828 1.16016.44922.83984.3711 1.39454.61718 1.6953-.17969h1.60548l1.78515.08985.17969-1.70704.53516-1.34375.80468.26954.4922.84765.40233.40625-.08984.53906v.35938l.71485.44922.71093-.26953h1.42969l.35938.98828.4453 1.25781.71485 1.34375 1.25.6289 1.69531.62891.71485-.17969.17969-.53906.98046-.08984.44922.35937.08594 1.25782-.26563.6289-.53515.17969v.53906l.71484.98438.26563.53906.98437.98828.80078 1.07813-.26562.35937-.08985.89844-.625 2.33203-.35546 2.0664-.08985 1.79298-.17969.71875-.08984.53906v1.4375l-.98047 1.88281-.35937 1.70703-.53516.89844-.80469 1.16797-.26562.53906 2.05469 1.2539.08593.35938-.35546.53906-.08985-.17968v.80859l.08985 1.4375-.44532.71484-1.07422.09375-.26562.71485.53515.89844.8047.71875 1.16015.80859 1.33984.26953.44531.35938-.35546.44921-1.78907-.08984-1.25-.44922-.71484-.71875-.625-.08984-.17578 3.58984-.1875 1.3086h89.35937V311.70313h-55.26953v49.08203l.76172.125 3.28906.54296 2.02344 2.83594v2.7539l2.35156.33204 2.34766.33203h4.05078l-1.3789 4.16016-2.02344.70703-2.02344.70312-.54297.34375-2.59375 1.6172-.1875.11718-2.02344-2.07813-.73046-2.74218-2.67188-2.07813-1.375-3.5-.0664-.08203-1.95704-2.67188 2.75-1.41796v-49.08204H294.42187v91.41407l.1172.03125.1328.01172.07422.07421.10547.04688.08985.0586.08593.05859.08985.0586.29687.29687.0586.08984.03125.11719.02734.11719.01563.13671-.03125.1172-.0586.08983-.0586.08594-.04296.10547-.04688.10156-.02734.1211v.14453l.17578.26953.14844.14844.07422.08594.07422.07421.04296.10547.0625.08985.0586.08593.04297.10547.0586.08985.04687.10156.04296.10547.0586.08594.11719.17968.07421.07422.0625.08594.0586.08984.04297.10547.0586.08985.05858.08593.0625.08985.0586.08984.04297.10156.11719.17969.07421.07422.0586.08594.07422.07421.08984.0586.10547.04687h.14844l.1328-.01562.13282.01562.10156-.04687.07422-.07422.04688-.10156-.01563-.13281v-.14844l-.04687-.10547-.02735-.11719-.04687-.10156-.02735-.1211-.04296-.10156-.0625-.08984-.04297-.10156-.04297-.10547-.03125-.11719-.01563-.13281-.01171-.13672.08593-.0586.0586-.08593.12109-.03125.04297.10547.01562.1328v.1172l.0586.10156.0586.08984.08983.0586.14844.14843.0586.08985.04296.10547-.01171.10156.08593.0586.10547.04687.08594.0586.08984.05858.07422.07422-.11719.02735-.10546.04687-.08594.0586-.07422.07421-.0586.08985-.0625.08594-.02734.12109-.04687.10156-.04297.10547-.03125.11719-.01172.13281-.01563.13281v.14844l.02735.11719.04687.10547.04297.10156.0586.08984.07421.07422.08985.0586.07422.07421.08984.0586.0586.08984.04296.10547.04688.10156.11719.03125.1328.01563h.14845l.11718-.03125.10547.04297.04297.10547.04688.10156.02734.1211L299.5 410l.02734.11719.03125.1211.02735.11718.10547.04297.10156.04687.13281-.01562.14844.14844.0625.08593.07422.07422.07031.07422.08984.0625.10547.04297.10156.04297.1172.03125.13671.01562.11719-.03125.07422-.07422.02734-.11718-.01172-.13282-.03125-.12109-.02734-.11719.04297-.10547h.11719l.08984.0625.11719.02735h.14843l.13282.01562h.14843l.13282.01563.1328-.01563h.14845l.1328-.01562.13282-.01172.13672.01172.11719-.02735.13281-.01562.1914-.0586-.05859.17579-.01562.1328-.02735.1211-.01562.13281-.0586.08594-.1328.01563-.10548.04687-.10546.04297-.1172.03125-.11718.02735-.26563.03125h-.14843l-.13281.01562-.07422.07422.05859.08594.14844.14843.11719.1797.07421.0703.08985.0625.08984.0586.08594.0586.08984.05858.10156.04297.10547.0625.10547.04297.08594.0586.10547.04687.10156.04297.17969.11719.0586.08984-.04298.10156-.04687.10547.01562.13281.22266.22266.0586.08985.04296.10156.03125.1211.04297.10155.01563.13282.03125.11718.01171.13672.03125.11719.14844.14844.10156.04297.10547.04296.1172.03125.1328.01563.13672.01563h.11719l.11719-.03125.08984-.0586.04297-.10547.04688-.10156.04296-.10547.03125-.11719.01172-.1328v-.14845l-.01172-.1328-.01562-.13282-.03125-.11719-.04297-.10547-.04688-.10547-.04296-.10156-.04297-.10547-.01563-.13281.01563-.13281.02734-.11719.03125-.11719.02735-.1211.04687-.10155.08984-.0586.08594-.0625.07422-.07422.08984-.05859.22266-.22266.0586-.08593.07421-.07422.11719-.17969.0586-.08594v-.14844l-.07423-.07421-.10156-.04688-.10547-.04297-.10156-.04297-.0586-.08984-.04687-.10547-.02734-.11719.08984-.05859.11719-.03125.10156-.04297.17969-.11719.14844-.14843.01172-.13282-.01172-.10546-.08985-.0586-.1328.01563h-.14845l-.1328.01562-.13282-.01562-.1211-.03125-.08593-.0586-.07422-.07422-.0586-.08984-.0625-.08594-.11718-.17969-.0586-.08593.03125-.1211.08594-.05859.1211-.03125.05859-.08594v-.1211l-.03125-.11718-.0586-.08984-.05859-.08594-.04687-.10547-.02735-.11719-.01562-.1328.0586-.08985.07421-.07422.08984-.0586.1172-.17968.07421-.07422.0586-.08594.14843-.14844.1211-.03125.1328-.01562.13282.01562.07422.07422.04297.10547.01562.13281-.03125.1172-.11719.03124-.1328.01172-.14844.14844-.04297.10547-.04688.10156-.02734.1211-.03125.11718v.14844l.03125.11719.04297.10546.05859.08985.07422.07031.07422.07422.11719.03125.12109.02734.11719-.02734.1328-.01563h.1172l.08984.0586.07422.07422.04687.10546.0586.08594.10156.04688.13281.01562.10547.04297.08594.0586-.01172.10546-.07422.07422-.17969.11719-.05859.08984-.08984.0586-.07032.07422-.07421.07421-.0625.08985-.02735.11719-.01562.1328.01562.13282-.01562.13281v.14844l.01562.13281.02735.1172.03125.12108.07421.07422.08985.0586.08594.0586.08984.05858.11719.03125v.08594l-.10157.04688-.08984.0586-.26563.03124-.11718.02735h-.14844l-.10547.04296-.10156.04688-.0586.08984-.0625.23438-.01171.13281-.03125.1211-.01563.1328v.29298l-.01172.1328.01172.13673.01563.1328.1328.01563.13282.01172.1211.03125.08593.0586.07422.07421.04688.10547.04296.10157.01563.1328v.44532l-.01563.13281v.44532l.03125.26562.02735.11719.01562.13281.03125.11719.08594.21094.03125.26562v.14844l-.03125.11719-.02734.11718-.03125.1211-.02735.11719-.03125.11718-.03125.1211-.01171.1328-.01563.13282.08984.0586.1172-.03125.10155.01562.04688.10547-.03125.26562v.44141l-.04297.10547-.04688.10547-.04296.10156-.04297.10547-.0586.08594-.03125.12109-.04296.11719-.03125.11719-.01563.1328.01563.13282.05859.08984.10547.04688.08594.0586.05859.08593-.01172.13672-.03125.11719-.04297.10156v.44531l-.01562.13281v.14844l-.03125.11719-.04297.10547-.02735.11719-.04687.10546-.04297.10157-.03125.12109-.02734.11719-.03125.13281-.03125.11719-.02735.11719-.04297.10546-.03125.1172-.03125.12108-.01171.13282-.01563.13281v.29688l.02734.11718v.14844l.04688.39844.02734.11719.0586.08984.12109.03125h.14844l.13281-.01563.0586.08985v.11719l-.0586.08984-.08984.0586-.10157.04296-.10546.04688-.08985.05859-.08594.0586-.13671.01562-.1172-.03125-.1328-.01563-.10157.04688-.0625.08594-.01172.13671-.01562.13282-.03125.11719-.02735.11718-.01562.13281-.03125.1211v.29687l.01563.13282.03125.11718v.14844l.01171.13281v.14844l-.02734.11719-.04688.10156-.02734.1211-.03125.11718-.0586.08985-.07421.07421-.10156.04297-.10547.04688-.11719.02734-.1211.03125-.10156-.04687.0586-.08594.10547-.04688.02734-.11718.03125-.11719.02734-.1211.03125-.11718v-.14844l.01563-.13281-.03125-.11719-.04297-.10547-.10547.01563-.07422.07422-.10156.04296-.08984.0625-.07422.07422-.04297.10157-.01563.1328-.03125.1172L304.25 426l-.03125.11719-.02734.11719-.03125.12109-.02735.11719-.03125.11718-.04297.10547-.08984.0586h-.08984l-.1172-.03125-.03124-.08594.01562-.13672-.03125-.11719v-.14844l-.01171-.1328v-.14844l-.0625-.23438-.02735-.1211-.04297-.10156-.04687-.10546-.0586-.08594-.05859-.08985-.04297-.10546-.0625-.08594-.14844-.14844-.0703-.07422-.10548-.04687-.10547-.04297-.10156-.04297-.29687-.29688-.08985-.07421-.08594-.0586-.10546-.04297-.08985-.0625-.08594-.0586-.10546-.04296-.08985-.0586-.08594-.0625-.07421-.0703-.10547-.04688-.08594-.0586-.10547-.04296-.08984-.0625-.10156-.04297-.10547-.04297-.08594-.0586-.10547-.04687-.10547-.04297-.10156-.04687-.08985-.0586-.10156-.04297-.10547-.04296-.08984-.0625-.11719-.02735-.13281-.01562-.13281.01562H299.75l-.13281.01563-.11719-.03125-.08984-.0586-.07422-.07422-.08985-.05859-.10156-.04688h-.14844l-.12109-.02734-.10156-.04297-.07422-.07422-.11719-.17968-.08984-.0586-.10156-.04297-.08985-.0625-.10547-.04296-.08984-.0586-.08594-.0586-.10547-.04687-.0586-.08594-.05858-.08984-.04297-.10547-.04688-.10156-.07422-.07422-.08594-.0586-.07421-.07421-.08985-.0586-.22265-.22265-.04297-.10547-.03125-.26563.10547-.04296h.14453l.10547.04296.07421.07422.08985.0586.08594.0586.10546.04687.08985.05859.14844.14844.0703.07422.14845.14843.0625.08594.07421.07422.08594.0586.07422.07421.08985.0625.08984.0586.08594.05859.26953.17578.10156.04688.10547.04296.10156.04297.04688-.07421.05859-.08594.07422-.07422.07031-.07422.10547.04297.07422.07422.0586.08984.04296.10156.04688.10547.04296.10547.1211.02735.11719-.02735.07421-.08984.04297-.10547.0586-.08985.07422-.07421.10546-.04297.1172-.02735.1328.01172.08985.0586.14844.14843.05859.08985.04297.10547.04687.10156.04297.10547.04297.10156.10547.04688.10547.04296.13281.01563.08594-.0586.0586-.08984.07421-.07422.10547-.04297.11719.02735.10547.04687.10156.04297.10547.04297.10156.04688.17969.11718v.11719l-.01563.13281.01563.13281.01562.13672.0586.08594.10156.04688.1211.02734.11718.03125h.14844l.11719-.03125.05859-.08984.17969-.1172.05859-.08983.07422-.07422.0586-.08594.11718-.17969.17969-.11719.11719.03125.08984.0586.04297.07422-.01563.1328v.1172l.08985.05859h.14843l.13282-.01563.1328-.01171.26563-.03125.10547-.04297.11719-.03125.1211-.02735.07421-.07421.07031-.07422.0625-.08985-.01562-.10547-.04688-.10156-.10156-.04297-.10547-.01562-.11718.02734-.26563.03125h-.14844l-.07421-.07422-.08985-.0586-.11719-.03124-.11718-.02735-.13282-.01562h-.14843l-.13282.01563h-.29687l-.10547-.04688-.14844-.14844-.04297-.10156-.05859-.08984.22266-.22266.08593-.0586.10547-.04296.11719-.03125.13281-.01563.13281.01563.13672.01562.10157.04297.1328-.01172.08985-.0625.10156-.04297.0625-.08984-.04687-.10156-.08984-.0586-.1172-.03125-.10155-.04296-.0586-.08985-.0625-.08984v-.11719l.01563-.13281.10547-.04688.07421-.07031v-.1211l-.08984-.05859-.03125-.11719.08985-.05859.07421-.07422.04297-.10547.0586-.08984.04687-.10156.01563-.13281v-.14844l-.04688-.10547-.04297-.10156-.08984-.0586-.13281-.01562-.10157-.04297-.13671-.01563-.1172-.03125h-.4453l-.13282-.01562-.13281-.01172-.13281-.01563-.11719-.03125h-.14844l-.13281-.01562-.13281-.01172-.26563-.03125-.1211-.04297-.08593-.0586-.07422-.07421v-.14844l.01172-.13281.10547-.04688.10156-.04296.13281-.01563h.15235l.13281-.01562h.29297l.1211.03125.10156.04296.08984.0586.23438.0625.12109-.04688.08984-.05859.10156-.04297.13282-.01562.10547.04296.10156.04688.13281.01172.1211-.02735h.14453l.12109-.03125.11719-.02734.10547-.04687.07421-.07422.08594-.0586.14844-.14843.0586-.08594.04687-.10547.02734-.11719.01563-.10547-.10156-.04296-.08985-.0586-.11719-.03125-.10546-.04297-.08985-.0625-.07422-.08594-.07422-.07421-.10156-.04297-.10547-.04688-.10156-.04297-.0586-.08984-.04687-.10156-.08594-.21094-.0625-.08594-.05859-.08984-.07422-.07422-.08594-.0586h-.26953l-.11719.03126-.08984.05859-.10156.04297-.13281.01562-.10547-.01562-.02735-.11719-.0625-.08984-.11718-.03125-.10157-.04297-.14843-.14844-.03125-.11719-.01563-.10546.07422-.07422.17969-.1172.11719-.02733.11718-.03125.13672.01562.10156.04297.10547.04297.10156.04687.10547.04297.1172.03125.1328.01563.1172.02734.1328.01563.10547-.01563.08985-.0586-.07422-.07421-.10547-.04297-.07422-.07422-.07422-.08984-.14844-.14844-.08593-.0586-.08985-.05859-.07422-.07422-.08984-.0586-.10156-.04687-.1211-.02734-.10156-.04688-.10547-.04296-.11719-.03125-.10156-.04297-.1211-.03125h-.14843l-.11719.03125-.10546.04297-.08594.0625-.17969.11718-.08594.0586-.08984.0586-.10547.04687-.08594.05859-.10547.04297-.10156.04297-.10547.04687-.07422.07422-.05859.08985-.0586.08593-.04687.10547-.0586.08594-.07421.07422-.13281-.01172-.1172-.03125h-.11718l-.07422.07422-.08984.0586-.07422.07421-.08984.0586-.08594.05859-.10547.04687-.10156.04297-.13672.01563-.10156-.04297-.14844-.14844-.10547-.04688h-.08594l-.10547.04688-.10156.04297-.1211.03125-.11718-.03125-.07422-.07422v-.11719l.03125-.1211.07422-.0703.0586-.08985.07421-.07422.11719-.03125.10547-.04296h.29297l.13281-.01563.13672-.01563.10156-.04296.08985-.0586.10156-.04687.08984-.0586.13281-.01171.08985.05859.13281.01172.08984-.0586.08594-.05859.10547-.04297.08984-.0586.08594-.0625.08985-.05859.14843-.14843.0586-.08594.05859-.08985.10547-.04296.13281-.01563.11719.02735.1211.03125.05859-.0586.05859-.08984.03125-.26563.02734-.11719.10547.01172.13281.01563.10157-.04297.08984-.0586.0586-.08984.07421-.07422.0586-.08984.04687-.10156.01172-.13281-.01172-.13282-.04687-.10547-.14844-.14843-.0586-.08985-.05859-.08594-.04297-.10546v-.44532l.01563-.1328v-.14845l.01172-.1328-.0586-.0586-.08984.0586-.10156-.04298-.17969-.11719-.08594-.05859-.0625-.08984-.0586-.08985-.07421-.07421-.08594-.0586-.1211.03125-.10155.01172-.10547.04688-.08594.05859-.10547.04297-.14844.14844-.08984.05859-.08594.0586-.08984.0625-.10547.04296-.13281.01563v-.1211l.10547-.04297.11718-.03125.07422-.0703.04297-.10548v-.14844l-.02734-.11718-.14844-.14844-.13281-.01563h-.14844l-.11719.03125-.10547.04297-.10156.04297-.08984.0625-.11719.02735-.07422-.07422.01172-.13281-.04297-.10157-.04297-.10547-.08984-.05859-.11719.02734-.1211.03125-.11718.03125-.10156.04297-.1211.03125-.10156.04297-.10547.04297-.08984.0586-.10156.01562v-.11719l.01562-.13281-.0586-.08985-.07421.04297-.14844.14844-.0586.08985-.07421.07421-.04688.10547-.04296.10156-.07422.07422-.0586.08985-.07422.07422-.05859.08593-.07422.07422-.08984.0625-.07422.07031-.07422.07422-.10156.01563-.13281.01562-.10547-.04296v-.1211l.14843-.14844.04297-.10156.0586-.08984.04687-.10156.04297-.10547.0586-.08985.03124-.11719.04297-.10156.03125-.1211.02735-.11718.04687-.10547.04297-.10156.04297-.10547.07422-.07031.08984-.0625.08985-.0586.10156-.04296h.29687l.26563-.03125.10547-.04297-.07422-.07422-.11719-.03125-.10547-.04297-.08984-.0586-.10156-.04687-.08985-.0586-.10156-.04296-.10547-.04297-.08984-.0625-.08594-.0586-.10547-.04296-.10156-.04297-.1211-.03125-.11718-.03125-.10157-.04297L297.5 410.25l-.10156-.04297-.08985-.0586-.04296-.10546-.01563-.13281.10156-.04297.13281-.01563.13672.01563.13282-.01563.10156-.04297.0586-.08984.01562-.10547-.08985-.0586-.07421-.07421-.10157-.04297-.08984-.0586-.14844-.14843-.04297-.10547-.01562-.13281v-.29297l-.0586-.08985-.08984-.05859-.07422-.07422-.04297-.10547-.03125-.11718-.0586-.08985-.07421-.07422-.11719-.02734-.07422-.07422-.08984-.0586-.08984-.0625-.08594-.05859-.07422-.07421-.0586-.08594-.04687-.10547-.08594-.0586-.14843-.14843-.19532-.0586-.1328.01563-.10157.04297-.07422.07422-.04688.10156-.04296.10547-.0586.08984-.0586.08594-.29687.29687-.08984.0586h-.08594l-.0625-.08594-.04297-.10547.03125-.11719.0586-.08984.02734-.11719-.01172-.13281-.08984-.0625-.10547.04688-.11719.02734-.11719.03125-.26953.17578-.10156.04688-.11719.02734-.10546.04687-.08985.0586-.10156.04297-.0586-.08594-.04687-.10547.01563-.13281.04687-.10547.07031-.07422.07422-.07031.0586-.08985v-.14843l-.04297-.10547h-.23829l-.10156.04687-.03125.11719-.02734.11719-.03125.1211-.07422.04296-.13281.01563-.07422-.04688-.04297-.10156-.04297-.10547-.04687-.10156-.04297-.10547-.1211.03125-.10156.04297-.13281.01562-.11719.03125-.10547.04297-.08984.0586-.10156.04687-.1211.02734-.13281.01563-.10156-.04297-.0586-.08985-.04687-.10546-.04297-.10157-.04297-.10546v-.1172l.0586-.08984.08593-.05859.17969-.11719.10156-.04687.10547-.04297.10547-.0586.10156-.04296.08985-.0625.10156-.04297.10547-.0586.10156-.04687.08984-.0586.10547-.04296.10156-.04297.08985-.0625.10156-.04297.13672-.01563.11719.03125.10156.04297.1211.03125.10156.04297.10546.04688.10157.04296.10547.04297.10156.04688.10547.04297.10156.04297.10547.04687.08594.0586.10546.04296.1172.03125.10546.04297.10156.04688.08985.0586.10547.04296.10156.04297.10547.04687.11719.02735.10156.04687.1211.02735h.14843l.08594-.0586.01562-.10156.0586-.08984-.02735-.1172-.07422-.07421-.11719-.17969-.07421-.07422-.08985-.07421-.17969-.1172-.08593-.05859-.10547-.04296-.10156-.04688-.26954-.17578-.05859-.08985-.07422-.07421-.0586-.08985-.04296-.10156-.03125-.11719-.01563-.13672v-.5625l-.01171-.1328-.01563-.13282-.03125-.11719-.01562-.13281-.01172-.13281-.03125-.1211-.22266-.22265-.0586-.08594-.01562-.10547.03125-.11719.13281-.01562v-91.41406H172.9922v1.45312l-.0586.23438-.35156 1.05078-.17187.52343-.1172.34766-.17577.41016-.11719.17187-.23438.29297-.23046.0586h-.35157l-.11718.05859-.23047.40625v.29297l.11719.17578.23046.23047.1172.23437.64062.75781.29297.46485.17578.23437.23047.35156.23437.34766.64063.8164.17578.46485.17187.41016.11719.69531.17578.46875.11719 1.39844.0586.46484v.875l.11718 1.04688v4.78125l-.0586.46484-.35156 1.28125-.17578.52344-.11328.41015-.35156.9297L172.93359 336l-.23437.58203-.11719.17578-.17187.34766-.17578.40625-.35157.8164-.0586.29297-.11327.29297-.11719.28906-.0586.17579-.11718.875-.0586.40625-.05859.11718-.0586.17579-.05859.17187-.23047.52734-.11718.17188v.23437l-.11719.23438-.0586.17187-.17577.58594v.28906l-.0586.17579v.29296l-.0586.11329-.05859.52734v.17187l-.05468.23438v2.6211l-.17578.8164-.1172.17578-.17577.23438-.1172.17187-.11327.23438-.58594.93359-.23047.28906-.29297.46485-.17578.23437-.28906.35156-.35156.69922-.11328.23047-.17579.41016-.17578.23046-.40625.52735-.8164.69922-.29297.17187-.28906.23438-.17579.11719-.17578.17578-.52344.40625-.52734.17578-.17187.17578-.23438.05469-.64062.17578h-.75782m12.21094 31.02344l-1.07422.44921.35938.89454 1.25-.71485.44531-.53906-.98047-.08985"/><path fill="#d3d3d3" fill-opacity="0" fill-rule="evenodd" d="M201.50781 416.59766h-.89453l.44922.6289.98047.35938.80469-.08985.4453-.98828-.17577.08985-.71485-.35547-.89453.35547m154.6211 59.0703l-.0586-.52343v-.29297l.11328-.29297.0586-.23046.46875-.46875h.11328l.11719-.11329.11718-.05859h.17579l.23437-.0586h.34766l.23437.0586.11719.0586.23047.17187.0586.17578.11718.58203v.29297l-.11719.17578-.17187.28906-.17579.17579-.52734.52343-.23047.23438-.11719.0586h-.17578l-.11718-.0586-.40625-.29297-.17579-.11719-.11718-.0586-.0586-.11327-.05468-.1172m6.64062-10.95702l-.0586-.17188v-1.10937l.0586-.17188.17578-.0586.17188-.05858h.17578l.23437-.0586.1172.0586.05858.69921-.05859.17188-.11719.17578-.11718.0586-.23438.52343-.11328.0586h-.23438l-.05859-.1172m9.61328-14.39062l-.11719-.17578v-.69922l.29297-.875.1172-.17187.17577-.35156.11328-.23047.1172-.29297.35155-.75781.1172-.23047.17187-.23438h.17578l.11719-.0586h.64062l.11719.0586.23437.23438.17188.11328.35156.29297.11719.11718.11328.17579v.11328l.11719.05859.11718.11719v.69922l-.05859.17578v.23047l-.0586.17578-.34765 1.05078-.11719.23047-.11719.23437-.11718.0586-.23047.23437-.64063.28906h-.875l-.41015-.11718-.64063-.46485"/><path fill="none" stroke="#bebebe" stroke-linecap="round" stroke-linejoin="round" stroke-miterlimit="10" stroke-width=".5" d="M467.95703 311.69531H144.02734v168.625h323.9297v-168.625"/><g clip-path="url(#a)"><path fill="#fff" fill-opacity="0" fill-rule="evenodd" d="M144 475.89063v4.4375h.0039H144V311.67188h.0039H144v164.21875"/></g><g clip-path="url(#b)"><path fill="#fff" fill-opacity="0" fill-rule="evenodd" d="M144.0039 480.32813V311.67188h66.57032V416.5078l-1.99219 1.6836-2.44531 3.71093-1.33984.72657-3.09766 1.07421-1.13672-1.07421-3.30078-3.85547-.90625-.58203-3.53516-1.19532-2.32031 1.19532-2.11719 1.64843-4.4375 1.11329-2.28906 1.67578-2.03125 4.4414-.11719.66016-.51562-.66016-3.92578-.76172-1.04297.76172 1.04297 2.27344 2.48437 2.16406 1.95703.8125 4.4375 1.78125 3.28516 1.84375 1.15234 1.0586 1.42578 3.3789 3.01172 2.80078 1.91797 1.63672-1.91797 1.48828-2.63672 2.95313-1.80078 1.61719-2.71094 2.8203-1.72656 1.15235-4.4375.1875-4.4414 2.60156-.81641-3.9414.8164-.69922 2.76563-3.73828-1.25-4.4414-1.51562-1.51173-4.4375-1.86718-4.4375.16015-4.4375 1.4375-.8047 1.78125-2.08983 4.4414-.40625 4.4375.91406 4.4375 2.38672 2.58985 4.4375-.49219 4.4375-.92968 4.4375-.9336 4.4414 1.94141 4.4375 1.42188 3.66797-3.59766.76953-1.21875 4.4375.27734v2.32813l-1.54297 3.05078 1.54297.72656 1.19531-.72656-1.1953-3.05078v-2.32813l1.42968-3.4961 2.72266-4.4375.28906-.42187 4.4375-1.70703v2.35547l-3.72266 4.21094-.00781 4.4375 3.73047 1.02734 4.4375.3125 4.04687-1.33984-4.04687-2.71485-.25781-1.72265-4.1797-4.21094v-2.35547l4.4375-1.25781 1.65235-1.05469 2.78516-.6289 4.4414-1.15625 4.4375.14843 2.60157-2.80078 1.83594-1.35937 2.64062-3.07813.79688-4.4375-3.4375-4.09765-4.4375-.3086-.10157-.03125-2.55078-4.4414-1.78516-2.13672-2.375-2.30078-2.0664-1.6836V311.67187h66.57812v115.21485l-.15234.1836.15234.17968.2422-.17969-.2422-.1836V311.67189h44.38282V434.6953l-4.4375 1.10938-.16797.14062.16797.3164 4.4375 2.78126 4.4375-2.20703.79687-.89063-.79687-.90625-4.4375-.34375V311.67187h57.69921v141.72266l-.16015.30469.16015.19922.32813-.19922-.32813-.30469V311.67188h88.76172v162.7578l-1.46484 1.46094-2.96875 2.62891-1.80469 1.8086h-10.91015l-.60157-.50391-.5039.5039h-51.66797l-1.08985-1.19921-4.4375-2.75-4.4375.10937-3.90625 3.83985H144.00392"/></g><path fill="#50fcfc" fill-rule="evenodd" d="M159.36719 458.13672l-.91406-4.4375.40625-4.4375 2.08984-4.4414.80469-1.78126 4.4375-1.4375v3.58985l-4.4375 3.28125-.44922.78906-.98828 4.4375 1.4375 3.3125 4.4375-1.1211 2.83593-2.1914 1.60157-.9336 3.89843-3.5039-3.89843-3.29297-4.4375-.77734v-3.58985l4.4375-.16015 4.4375 1.86718 1.51562 1.51172 1.25 4.4414L175.06641 453l-.81641.69922.8164 3.9414 4.44141-2.60156 4.4375-.1875v3.26172l-.0625.02344.0625.02734.02735-.02734-.02735-.02344v-3.26172l1.72656-1.15234 2.71094-2.82031 1.80078-1.6172 2.63672-2.95312 1.91797-1.48828-1.91797-1.63672-3.01172-2.80078-1.42578-3.3789-1.15234-1.0586-3.28516-1.84375-4.4375-1.78125-1.95703-.8125-2.48437-2.16406-1.04297-2.27344 1.04297-.76172 3.92578.76172.51562.66016.11719-.66016 2.03125-4.4414 2.28906-1.67579 4.4375-1.11328 2.11719-1.64843 2.32031-1.19532 3.53516 1.19532.90625.58203 3.30078 3.85547 1.13672 1.07421 3.09766-1.07421 1.33984-.72657 2.44531-3.71093 1.99219-1.6836v7.57422l-4.4375.63281-2.85547 2.35547-1.58203 2.97656-4.4375.96485-.46484.4961-1.10157 4.4375 1.5664 3.94921.32032.48828 4.11719 2.02344 4.4375.69922 4.4375-1.78125 1.55078-.9414 2.89063-1.20313 4.4375-2.95703.39062-.27735 4.04688-2.1289 1.1289-2.3086-1.1289-1.34765-4.4375-1.04297-4.4375-1.15625-1.65235-.89063-2.78906-2.98828v-7.57422l2.0664 1.6836 2.375 2.30078 1.78516 2.13672 2.55078 4.4414.10156.03125 4.4375.3086 3.4375 4.09765-.79687 4.4375-2.64063 3.07813-1.83593 1.35937-2.60156 2.80078-4.4375-.14843-4.44141 1.15625-2.78516.6289-1.65234 1.05469-4.4375 1.25781-4.4375 1.70703-.28906.42188-2.72266 4.4375-1.42969 3.4961-4.4375-.27735-.76953 1.21875-3.66797 3.59765-4.4375-1.42187-4.4414-1.9414-4.4375.93359-4.4375.92969-4.4375.49218-2.38672-2.58984"/><path fill="#00e8fc" fill-rule="evenodd" d="M161.7539 457.01172l-1.4375-3.3125.98829-4.4375.44922-.78906 4.4375-3.28125 4.4375.77734 3.89843 3.29297-3.89843 3.5039-1.60157.9336-2.83593 2.1914-4.4375 1.1211m22.1914 1.15234l-.0625-.02734.0625-.02344.02735.02344-.02735.02734"/><path fill="#50fcfc" fill-rule="evenodd" d="M192.82031 463.30078l-1.54297-.72656 1.54297-3.05078 1.19531 3.05078-1.1953.72656"/><path fill="#00e8fc" fill-rule="evenodd" d="M197.26172 439.89453l-1.5664-3.94922 1.10155-4.4375.46485-.4961 4.4375-.96483 1.58203-2.97657 2.85547-2.35547v5.4297l-.72266 1.36327-1.67969 4.4375 2.40235 2.51953 4.4375-1.27734 4.25-1.24219-2.28516-4.4375-1.96484-.92969-4.4375-.43359v-5.42969l4.4375-.6328 2.78906 2.98827 1.65234.89063 4.4375 1.15625 4.4375 1.04297 1.12891 1.34765-1.1289 2.3086-4.04688 2.1289-.39063.27735-4.4375 2.95703-2.89062 1.20312-1.55078.9414-4.4375 1.78126-4.4375-.69922-4.11719-2.02344-.32031-.48828"/><path fill="#50fcfc" fill-rule="evenodd" d="M201.69922 459.16406l-3.73047-1.02734.00781-4.4375 3.72266-4.21094v1.7539l-2.17188 2.45704 2.17188 2.78125 2.4375-2.78125-2.4375-2.45703v-1.7539l4.17969 4.21093.2578 1.72265 4.04688 2.71485-4.04687 1.33984-4.4375-.3125"/><path fill="#00e8fc" fill-rule="evenodd" d="M201.69922 456.48047l-2.17188-2.78125 2.17188-2.45703 2.4375 2.45703-2.4375 2.78125"/><path fill="#00d4fc" fill-rule="evenodd" d="M206.13672 438.46484l-2.40234-2.51953 1.67968-4.4375.72266-1.36328 4.4375.4336 1.96484.92968 2.28516 4.4375-4.25 1.24219-4.4375 1.27734"/><path fill="#50fcfc" fill-rule="evenodd" d="M277.15234 427.25L277 427.07031l.15234-.1836.2422.1836-.2422.17969m39.94532 9.01172l-.16797-.3164.16797-.14063 4.4375-1.10938 4.4375.34375.79687.90625-.79687.89063-4.4375 2.20703-4.4375-2.78125m62.13671 17.63672l-.16015-.19922.16015-.30469.32813.30469-.32813.19922"/><g clip-path="url(#c)"><path fill="#50fcfc" fill-rule="evenodd" d="M384.20313 480.32813h1.91406l1.99219-1.95704 4.4375-.77343 3.2578 2.73046h2.26954l-1.08985-1.19921-4.4375-2.75-4.4375.10937-3.90625 3.83985"/></g><g clip-path="url(#d)"><path fill="#00e8fc" fill-rule="evenodd" d="M386.11719 480.32813l1.99219-1.95704 4.4375-.77343 3.2578 2.73046h-2.42187l-.83594-.69921-2.12109.69921h-4.3086"/></g><g clip-path="url(#e)"><path fill="#00d4fc" fill-rule="evenodd" d="M390.42578 480.32813l2.1211-.69922.83593.69921h-2.95703"/></g><g clip-path="url(#f)"><path fill="#50fcfc" fill-rule="evenodd" d="M449.74219 480.32813l.5039-.50391.60157.5039h-1.10547"/></g><g clip-path="url(#g)"><path fill="#50fcfc" fill-rule="evenodd" d="M461.75781 480.32813l1.80469-1.8086 2.96875-2.6289 1.46484-1.46094v4.48828l-1.11328 1.41015h-5.125"/></g><g clip-path="url(#h)"><path fill="#fff" fill-opacity="0" fill-rule="evenodd" d="M467.9961 478.91797l-1.11329 1.41015h1.11328v-1.41015"/></g><path fill="#50fcfc" fill-rule="evenodd" d="M467.9961 474.42969v4.48828l.0039-.0039v-4.48829l-.0039.0039"/><g clip-path="url(#i)"><path fill="#fff" fill-opacity="0" fill-rule="evenodd" d="M467.9961 311.67188H468v162.7539-162.7539h-.0039"/></g><path fill="#fff" fill-opacity="0" fill-rule="evenodd" d="M190.34375 424.3125l4.92188-3.14453-5.36329-8.39453-4.92187 3.14453 5.36328 8.39453"/><path fill-rule="evenodd" d="M188.91406 415.57813l.42969-.27344 3.39063 5.30469-.66407.42578-2.41797-3.78516-1.16797.75-.30078-.46875.4375-.35547.1836-.1836.14453-.19921.09375-.22656.03516-.27344-.03907-.32422-.125-.39063"/><g clip-path="url(#j)"><path fill="none" stroke="#000" stroke-linecap="round" stroke-linejoin="round" stroke-miterlimit="10" stroke-width=".5" d="M147.51172 480.32813h-7.02344"/></g><g clip-path="url(#k)"><path fill="none" stroke="#000" stroke-linecap="round" stroke-linejoin="round" stroke-miterlimit="10" stroke-width=".5" d="M147.51172 480.32813l1.15234 2.16796"/></g><g clip-path="url(#l)"><path fill="none" stroke="#000" stroke-linecap="round" stroke-linejoin="round" stroke-miterlimit="10" stroke-width=".5" d="M146.49219 480.32813l.57422 1.08203"/></g><g clip-path="url(#m)"><path fill="none" stroke="#000" stroke-linecap="round" stroke-linejoin="round" stroke-miterlimit="10" stroke-width=".5" d="M160.82422 480.47656l-7.01953-.29297"/></g><g clip-path="url(#n)"><path fill="none" stroke="#000" stroke-linecap="round" stroke-linejoin="round" stroke-miterlimit="10" stroke-width=".5" d="M160.82422 480.47656l1.0625 2.21094"/></g><g clip-path="url(#o)"><path fill="none" stroke="#000" stroke-linecap="round" stroke-linejoin="round" stroke-miterlimit="10" stroke-width=".5" d="M159.80469 480.4336l.53125 1.10546"/></g><g clip-path="url(#p)"><path fill="none" stroke="#000" stroke-linecap="round" stroke-linejoin="round" stroke-miterlimit="10" stroke-width=".5" d="M174.07813 481.0039l-6.89454-1.34765"/></g><g clip-path="url(#q)"><path fill="none" stroke="#000" stroke-linecap="round" stroke-linejoin="round" stroke-miterlimit="10" stroke-width=".5" d="M174.07813 481.0039l.71484 2.34766"/></g><g clip-path="url(#r)"><path fill="none" stroke="#000" stroke-linecap="round" stroke-linejoin="round" stroke-miterlimit="10" stroke-width=".5" d="M187.41406 480.89063l-6.9375-1.125"/></g><g clip-path="url(#s)"><path fill="none" stroke="#000" stroke-linecap="round" stroke-linejoin="round" stroke-miterlimit="10" stroke-width=".5" d="M187.41406 480.89063l.78906 2.32421"/></g><g clip-path="url(#t)"><path fill="none" stroke="#000" stroke-linecap="round" stroke-linejoin="round" stroke-miterlimit="10" stroke-width=".5" d="M200.76953 480.51172l-7.01953-.36719"/></g><g clip-path="url(#u)"><path fill="none" stroke="#000" stroke-linecap="round" stroke-linejoin="round" stroke-miterlimit="10" stroke-width=".5" d="M200.76953 480.51172l1.03516 2.22265"/></g><g clip-path="url(#v)"><path fill="none" stroke="#000" stroke-linecap="round" stroke-linejoin="round" stroke-miterlimit="10" stroke-width=".5" d="M214.08594 480.23047l-7.02344.19922"/></g><g clip-path="url(#w)"><path fill="none" stroke="#000" stroke-linecap="round" stroke-linejoin="round" stroke-miterlimit="10" stroke-width=".5" d="M214.08594 480.23047l1.21484 2.13281"/></g><g clip-path="url(#x)"><path fill="none" stroke="#000" stroke-linecap="round" stroke-linejoin="round" stroke-miterlimit="10" stroke-width=".5" d="M227.40234 480.22266l-7.02343.21093"/></g><g clip-path="url(#y)"><path fill="none" stroke="#000" stroke-linecap="round" stroke-linejoin="round" stroke-miterlimit="10" stroke-width=".5" d="M227.40234 480.22266l1.21875 2.1289"/></g><g clip-path="url(#z)"><path fill="none" stroke="#000" stroke-linecap="round" stroke-linejoin="round" stroke-miterlimit="10" stroke-width=".5" d="M240.70703 480.02344l-7 .60937"/></g><g clip-path="url(#A)"><path fill="none" stroke="#000" stroke-linecap="round" stroke-linejoin="round" stroke-miterlimit="10" stroke-width=".5" d="M240.70703 480.02344l1.33594 2.0586"/></g><g clip-path="url(#B)"><path fill="none" stroke="#000" stroke-linecap="round" stroke-linejoin="round" stroke-miterlimit="10" stroke-width=".5" d="M253.9375 479.51172l-6.83203 1.63672"/></g><g clip-path="url(#C)"><path fill="none" stroke="#000" stroke-linecap="round" stroke-linejoin="round" stroke-miterlimit="10" stroke-width=".5" d="M253.9375 479.51172l1.625 1.83594"/></g><g clip-path="url(#D)"><path fill="none" stroke="#000" stroke-linecap="round" stroke-linejoin="round" stroke-miterlimit="10" stroke-width=".5" d="M266.85938 478.53906l-6.04688 3.57813"/></g><path fill="none" stroke="#000" stroke-linecap="round" stroke-linejoin="round" stroke-miterlimit="10" stroke-width=".5" d="M265.98047 479.0586l1.04687.64062"/><g clip-path="url(#E)"><path fill="none" stroke="#000" stroke-linecap="round" stroke-linejoin="round" stroke-miterlimit="10" stroke-width=".5" d="M280.3789 478.94531l-6.45702 2.76563"/></g><g clip-path="url(#F)"><path fill="none" stroke="#000" stroke-linecap="round" stroke-linejoin="round" stroke-miterlimit="10" stroke-width=".5" d="M279.4414 479.34766l.95704.76953"/></g><g clip-path="url(#G)"><path fill="none" stroke="#000" stroke-linecap="round" stroke-linejoin="round" stroke-miterlimit="10" stroke-width=".5" d="M293.92969 479.74219L287 480.91406"/></g><g clip-path="url(#H)"><path fill="none" stroke="#000" stroke-linecap="round" stroke-linejoin="round" stroke-miterlimit="10" stroke-width=".5" d="M292.92188 479.91406l.75.96875"/></g><g clip-path="url(#I)"><path fill="none" stroke="#000" stroke-linecap="round" stroke-linejoin="round" stroke-miterlimit="10" stroke-width=".5" d="M307.09375 479.15625l-6.625 2.34375"/></g><g clip-path="url(#J)"><path fill="none" stroke="#000" stroke-linecap="round" stroke-linejoin="round" stroke-miterlimit="10" stroke-width=".5" d="M306.1289 479.5l.90626.82813"/></g><g clip-path="url(#K)"><path fill="none" stroke="#000" stroke-linecap="round" stroke-linejoin="round" stroke-miterlimit="10" stroke-width=".5" d="M319.9375 478.26563l-5.6836 4.125"/></g><path fill="none" stroke="#000" stroke-linecap="round" stroke-linejoin="round" stroke-miterlimit="10" stroke-width=".5" d="M319.11328 478.86719l1.10156.53515"/><g clip-path="url(#L)"><path fill="none" stroke="#000" stroke-linecap="round" stroke-linejoin="round" stroke-miterlimit="10" stroke-width=".5" d="M332.54297 477.53906l-4.26563 5.58203"/></g><path fill="none" stroke="#000" stroke-linecap="round" stroke-linejoin="round" stroke-miterlimit="10" stroke-width=".5" d="M331.92578 478.35156l1.20703.19922"/><g clip-path="url(#M)"><path fill="none" stroke="#000" stroke-linecap="round" stroke-linejoin="round" stroke-miterlimit="10" stroke-width=".5" d="M344.42188 476.88672l-1.39454 6.88672"/></g><g clip-path="url(#N)"><path fill="none" stroke="#000" stroke-linecap="round" stroke-linejoin="round" stroke-miterlimit="10" stroke-width=".5" d="M353.52734 480.42969l7.02735-.19922"/></g><g clip-path="url(#O)"><path fill="none" stroke="#000" stroke-linecap="round" stroke-linejoin="round" stroke-miterlimit="10" stroke-width=".5" d="M366.8711 480.77734l6.96874-.89453"/></g><g clip-path="url(#P)"><path fill="none" stroke="#000" stroke-linecap="round" stroke-linejoin="round" stroke-miterlimit="10" stroke-width=".5" d="M380.16016 480.49219l7.01953-.32813"/></g><g clip-path="url(#Q)"><path fill="none" stroke="#000" stroke-linecap="round" stroke-linejoin="round" stroke-miterlimit="10" stroke-width=".5" d="M394.8789 477.51563l4.21485 5.625"/></g><path fill="none" stroke="#000" stroke-linecap="round" stroke-linejoin="round" stroke-miterlimit="10" stroke-width=".5" d="M395.49219 478.33594l.52344-1.11328"/><g clip-path="url(#R)"><path fill="none" stroke="#000" stroke-linecap="round" stroke-linejoin="round" stroke-miterlimit="10" stroke-width=".5" d="M411.35156 476.97656L409.25 483.6797"/></g><g clip-path="url(#S)"><path fill="none" stroke="#000" stroke-linecap="round" stroke-linejoin="round" stroke-miterlimit="10" stroke-width=".5" d="M424.45313 476.91797l-1.67579 6.82422"/></g><path fill="none" stroke="#000" stroke-linecap="round" stroke-linejoin="round" stroke-miterlimit="10" stroke-width=".5" d="M424.21094 477.91016l1.1875-.30078"/><g clip-path="url(#T)"><path fill="none" stroke="#000" stroke-linecap="round" stroke-linejoin="round" stroke-miterlimit="10" stroke-width=".5" d="M437.14844 476.82031l-.4336 7.01563"/></g><path fill="none" stroke="#000" stroke-linecap="round" stroke-linejoin="round" stroke-miterlimit="10" stroke-width=".5" d="M437.08594 477.84375l1.11328-.51172"/><g clip-path="url(#U)"><path fill="none" stroke="#000" stroke-linecap="round" stroke-linejoin="round" stroke-miterlimit="10" stroke-width=".5" d="M449.42578 476.91406l1.64453 6.83203"/></g><path fill="none" stroke="#000" stroke-linecap="round" stroke-linejoin="round" stroke-miterlimit="10" stroke-width=".5" d="M449.66406 477.90625l.91797-.8125"/><g clip-path="url(#V)"><path fill="none" stroke="#000" stroke-linecap="round" stroke-linejoin="round" stroke-miterlimit="10" stroke-width=".5" d="M463.22656 476.83203l.67188 6.99219"/></g><path fill="none" stroke="#000" stroke-linecap="round" stroke-linejoin="round" stroke-miterlimit="10" stroke-width=".5" d="M463.32422 477.84766l1.02344-.67578"/><g clip-path="url(#W)"><path fill="none" stroke="#000" stroke-linecap="round" stroke-linejoin="round" stroke-miterlimit="10" stroke-width=".5" d="M147.45313 467.66016l-6.90625-1.29297"/></g><path fill="none" stroke="#000" stroke-linecap="round" stroke-linejoin="round" stroke-miterlimit="10" stroke-width=".5" d="M147.45313 467.66016L148.1875 470m-1.73828-2.52734l.36719 1.16797m13.89843-.73829l-6.79687-1.77734m6.79687 1.77734l.5625 2.39063m12.6172-1.98438l-6.53126-2.58984m6.53125 2.58984l.27344 2.44141m13.1914-2.90234l-6.82812-1.66797m6.82813 1.66797l.60546 2.3789m12.79297-2.86718l-6.99219-.69141m6.9922.6914l.93359 2.26954m12.3789-2.25391l-6.98828-.72266m6.98828.72266l.92188 2.27344m12.41015-2.74219l-7.02343.21484m7.02343-.21484l1.21875 2.1289m12.09766-1.91796l-7.02344-.20703m7.02344.20703l1.08594 2.19531m12.07031-3.33984l-6.71094 2.08203m6.71094-2.08203l1.74219 1.72656M267 465.48438l-6.32813 3.05859M267 465.48437l1.98047 1.44922m11.1914-1.71093l-6.04296 3.58203m6.04297-3.58203l2.09765 1.27343m11.05078-1.53125l-5.71093 4.09766m5.71093-4.09766l2.19922 1.08985m11.09375-1.1211l-5.66406 4.16016m5.66406-4.16016L308.82422 466m10.8789-1.34375l-5.21484 4.71484m5.21485-4.71484l2.30468.83594m-3.0625-.14844l1.15235.41797m12.65625-1.36719l-4.6836 5.23828m4.6836-5.23828l2.3828.58594m-3.0664.17578l1.1914.29297m12.38282-1.3789l-3.83594 5.88671m3.83594-5.88672l2.44531.21875m9.80079-.6836l-1.69922 6.81641m1.45312-5.82421l1.1914-.29688m10.57423-.67187l1.89453 6.76953m-1.6211-5.78516l.89063-.84375m11.3086.21875l3.57812 6.05078m-3.0586-5.16797l.64063-1.04687m15.95312.3086l-4.01953 5.76171m3.4336-4.92578l1.21875.14844m12.97656-.75782L408 469.66797m3.9336-4.53516l1.1953.27344m11.92579-1.59766l-2.8789 6.41016m2.8789-6.41016l2.44922-.16406m9.84765-.1211l-.83984 6.98048m.71875-5.96485l1.14062-.4414m12.82422-.46875l-1.89843 6.76953m1.62109-5.78516l1.19922-.26172m14.77344 1.53516l-6.65625 2.2539m5.6875-1.92578l.89062.83985"/><g clip-path="url(#X)"><path fill="none" stroke="#000" stroke-linecap="round" stroke-linejoin="round" stroke-miterlimit="10" stroke-width=".5" d="M147.08203 455.38672l-6.16406-3.375"/></g><path fill="none" stroke="#000" stroke-linecap="round" stroke-linejoin="round" stroke-miterlimit="10" stroke-width=".5" d="M147.08203 455.38672l-.02734 2.45312m13.25-2.29687l-5.98047-3.6875m5.98047 3.6875l-.15625 2.44922m13.59765-2.67188l-6.23437-3.24219m6.23437 3.2422l.02344 2.45312m13.40625-2.69532l-6.46094-2.76171m6.46094 2.76171l.20703 2.44532m13.21094-2.71875l-6.66797-2.21094m6.66797 2.21094l.41406 2.41797m13.04688-3.02735l-6.95703-.99219m6.95703.9922l.83594 2.30468m12.5078-2.59375l-7.01562-.41406m5.9961.35547l.5078 1.11328m13.79298-.73047l-6.94922-1.0625m5.9375.90625l.40625 1.16015m13.9336-1.97656l-6.97266.88281m6.97265-.8828l1.41406 2.0078m11.55079-3.14453l-6.27735 3.15625m6.27735-3.15625l2.0039 1.41797m11.0586-1.84375l-5.76953 4.00781m5.76953-4.0078l2.18359 1.12109m11.0039-1.29688l-5.51562 4.35547m5.51563-4.35547l2.24609.98828m-3.04687-.35156l1.12109.49219m13.10547-.97657l-5.73828 4.0547m5.73828-4.0547l2.1914 1.10157m10.89063-1.39844l-5.26953 4.64844m5.26953-4.64844l2.29687.85937m-3.0625-.18359l1.14844.42969m12.53516-1.48828l-4.47656 5.41406m4.47656-5.41406l2.40625.49218M332 451.77734l1.19922.25m13.11719-.69922l-5.1836 4.7422m5.1836-4.7422l2.3125.82032m-3.06641-.13281l1.15625.41015m13.23047-.69922l-5.8164 3.9414m5.8164-3.9414l2.16797 1.14844m9.82031-2.3125l-3.16406 6.27344m2.70312-5.36328l1.22657-.02344m11.7539-1.17578l-1.57031 6.85156m1.33984-5.85547l1.1875-.3164m14.01953.22265l-4.89453 5.04297m4.1836-4.3086l1.17578.33985m12.8086-1.11328l-4.8125 5.125m4.11327-4.3789l1.1836.3203m11.86328-1.71093l-2.875 6.41015m2.45703-5.47656l1.22266-.08203m13.5664-.1211l-4.98828 4.95313m4.26172-4.23437l1.17187.36328m13.375-.4375l-5.99609 3.66406m5.1211-3.13281l1.05859.625m13.57812-.01172l-6.89062 1.375m5.88672-1.17578l.77734.94922"/><g clip-path="url(#Y)"><path fill="none" stroke="#000" stroke-linecap="round" stroke-linejoin="round" stroke-miterlimit="10" stroke-width=".5" d="M146.54297 442.8086l-5.08594-4.84766"/></g><path fill="none" stroke="#000" stroke-linecap="round" stroke-linejoin="round" stroke-miterlimit="10" stroke-width=".5" d="M146.54297 442.8086l-.66016 2.36327m13.44531-1.91015l-4.02734-5.75781m3.4414 4.92187l-.55859 1.09375m14.01953.00781l-3.14453-6.28515m2.6875 5.3711l-.71484.99608m14.55469-.11718l-3.28125-6.21485m2.80469 5.3086l-.69141 1.01562m15.51172-.9336l-5.33594-4.5703m4.5586 3.90625l-.26563 1.19921m15.10937-2.02343l-6.84375-1.59375M213 440.94922l.3164 1.1836m13.96094-2.6797l-6.77343 1.86329m5.78906-1.59375l.84375.89062m13.14844-1.92578l-6.15625 3.39062m5.2578-2.89453l1.02735.66797m12.51953-2.02344l-4.82422 5.10938m4.1211-4.36328l1.1836.32422m13.3125-.51172l-5.78126 3.99219m4.9414-3.41016l1.08985.5625m12.90625-1.35938l-5.46484 4.42188m5.46484-4.42188l2.25781.96094m10.73438-1.30469l-4.82031 5.11329m4.82031-5.11329l2.36719.64844m-3.0664.09375l1.18358.32422m13.28125-.55469l-5.71875 4.08594m5.71875-4.08594l2.19532 1.09375m10.82812-1.4453l-5.13672 4.79296m4.39063-4.09766l1.16015.40235m13.44922-.32813l-6.23047 3.25m6.23047-3.25l2.02344 1.38672m11.35547-1.25l-6.36328 2.98047m6.36328-2.98047l1.96484 1.47266m-2.89062-1.03907l.98437.73438m12.58203-2.14063l-5.01171 4.92579m4.28125-4.21094l1.17187.3711m13.5586-.09376l-6.38282 2.9375m6.38281-2.9375l1.95313 1.48438m11.64062.55078l-6.9375-1.1289m5.92579.96484l.39453 1.16015m13.7539-2.79687l-6.58203 2.46875m6.58203-2.46875l1.83985 1.625m11.39062-1.82813l-6.41406 2.875m5.48047-2.45703l.96875.7539M427 439.4375l-6.76563 1.89453M427 439.4375l1.6914 1.77734m-2.67578-1.5039l.84766.89062m13.41406-1.28906l-6.6914 2.14062m6.6914-2.14062l1.75782 1.71094m-2.73047-1.39844l.8789.85547m13.27735-1.51563l-6.42969 2.83594m6.42969-2.83594l1.92968 1.51953m11.58204-.94921l-6.82032 1.6953"/><g clip-path="url(#Z)"><path fill="none" stroke="#000" stroke-linecap="round" stroke-linejoin="round" stroke-miterlimit="10" stroke-width=".5" d="M466.97266 439.53516l1.64062 1.82422"/></g><g clip-path="url(#aa)"><path fill="none" stroke="#000" stroke-linecap="round" stroke-linejoin="round" stroke-miterlimit="10" stroke-width=".5" d="M146.69922 429.3164l-5.39844-4.49609"/></g><path fill="none" stroke="#000" stroke-linecap="round" stroke-linejoin="round" stroke-miterlimit="10" stroke-width=".5" d="M145.91406 428.66016l-.25 1.20312m13.5664.14844l-3.83202-5.88672m3.83203 5.88672l-1.1836 2.14844m13.58204-1.72266l-1.9961-6.73828m1.9961 6.73828l-1.75391 1.71875m13.64844-1.59766l.84375-6.97656m-.71875 5.96094l-1.14453.4414m14.34765.57422l.8164-6.98047m-.69921 5.96485l-1.14063.44531m17.91407-4.4414l-6.33203 3.04296m5.41015-2.60156l.98828.72656m10.57032-3.125l-.97657 6.95703m.83203-5.9453l1.15625-.42188m14.61329.76172l-5.59766 4.2539m18.70313-4.5039l-5.17579 4.7539m4.42188-4.0625l1.15625.41016m11.69922-1.95703l-2.75 6.46484m2.35156-5.52344l1.22266-.10546m12.17187-.95313l-2.11328 6.69922m1.80469-5.72656l1.20703-.22266m13.49219-.1914l-4.26563 5.58202m3.64453-4.76953l1.21094.19922m12.96875-.8086l-4.75 5.17579m4.0586-4.42188l1.1875.3086m13.71874.25781l-6.55078 2.53516m6.55078-2.53516l1.85938 1.60547m11.67187.07031l-6.98047-.8164m6.98047.8164l.89063 2.28906m-1.90625-2.40625l.44531 1.14454m13.84375-2.10938l-6.89844 1.34766m6.89844-1.34766l1.54688 1.90234m-2.55079-1.70703l.77344.95313m13.5039-1.33203l-6.8164 1.71484m6.8164-1.71484l1.64454 1.8164m-2.63672-1.5664l.82422.91015m13.53125-.9375l-6.91016 1.26953m6.91016-1.26953l1.52344 1.92188m-2.53125-1.73828l.76562.96093m13.09375-2.34765l-5.98828 3.67578m5.98828-3.67578l2.11719 1.2461m11.71875.6914l-7.02734-.19922m7.02734.19922l1.08984 2.19922m-2.11328-2.22657l.54688 1.09766m13.6211-2.2539l-6.6836 2.16796m6.6836-2.16797l1.76171 1.70313m11.23047-2.41406l-6.04297 3.58984m6.04297-3.58984l2.09765 1.27734m-2.97656-.7539l2.09766 1.27343m11.71094-2.32812l-5.26954 4.65234m5.26954-4.65234l2.29687.86328m-3.0664-.1875l1.15234.4336m12.95703-1.08204l-5.3164 4.59766m5.3164-4.59766l2.28516.88672m-3.0586-.21484l1.14453.4414m13.30078-.61328l-6.03515 3.59766"/><g clip-path="url(#ab)"><path fill="none" stroke="#000" stroke-linecap="round" stroke-linejoin="round" stroke-miterlimit="10" stroke-width=".5" d="M466.57813 425.26953l2.10156 1.26953"/></g><g clip-path="url(#ac)"><path fill="none" stroke="#000" stroke-linecap="round" stroke-linejoin="round" stroke-miterlimit="10" stroke-width=".5" d="M147.29688 414.96875l-6.59375-2.42969"/></g><path fill="none" stroke="#000" stroke-linecap="round" stroke-linejoin="round" stroke-miterlimit="10" stroke-width=".5" d="M146.33594 414.61719l.16797 1.21484m13.375.32422l-5.125-4.80469m4.3789 4.10547l-.32031 1.1836m12.65234.52734l-1.66797-6.82813m1.42579 5.83203l-.91407.81641m15.88672-.53515l-4.5-5.39844m3.84375 4.61328l-.46094 1.13672m14.70313-.60547l-5.04297-4.89063m4.3125 4.1797l-.34375 1.17968m15.28516-3.73438l-6.83203 1.64063m5.83593-1.40235l.81641.91797m12.38672-2.98437l-4.61719 5.29687m19.02344-3.53515l-6.80078 1.77343m5.8125-1.51562l.82812.90234m13.10156-2.0625l-6.05078 3.57422m5.16797-3.05469l1.04688.64063m12.8086-1.64063l-5.3672 4.53907m4.58594-3.8789l1.14063.45702m13.64062.16016l-6.73828 1.98437m5.75781-1.6953l.85938.875m13.57812-.07813l-7.02344-.19141m6.00391.16406l.54688 1.10156m13.76953-1.55859l-6.98438.78125m6.98438-.78125l1.38672 2.02344m11.9375-1.91016l-7.00391.55469m7.0039-.55469l1.32032 2.0664m-2.33985-1.98827l.66016 1.03515m13.39453.57032l-6.4414-2.8125m6.4414 2.8125l.1875 2.4453m13.41797-3.7578l-7.02344-.1875m7.02344.1875l1.09375 2.1953m12.1211-3.125l-6.82422 1.67188m6.82421-1.67187l1.63672 1.83203m-2.6289-1.58984l.8164.91797m13.5-1.13282l-6.83984 1.61719m6.83984-1.61719l1.6172 1.84375m-2.61329-1.60937l1.61719 1.84375m12.625-2.32422l-6.70313 2.10937m6.70313-2.10937l1.75 1.72266m-2.72656-1.41797l1.75 1.72265m12.28906-2.6289l-6.19922 3.3125m6.19922-3.3125l2.03515 1.36718m-2.9375-.88671l2.03516 1.37109m12.04688-2.08203l-5.9297 3.76953m5.9297-3.76953l2.13671 1.21094m-3-.66016l1.07032.60547m13.21093-.98828l-6.1328 3.43359m6.1328-3.4336l2.0625 1.32813m-2.95703-.82812l1.03125.66406m13.07031-1.33984l-5.91796 3.78906m5.91796-3.78906l2.13672 1.20703m-2.99609-.65625l1.0664.60156m12.95704-1.3711l-5.61719 4.22657m5.61719-4.22656l2.22265 1.03906m-3.03906-.42578l1.10938.51953m12.58203-1.61328l-4.73828 5.1875"/><g clip-path="url(#ad)"><path fill="none" stroke="#000" stroke-linecap="round" stroke-linejoin="round" stroke-miterlimit="10" stroke-width=".5" d="M465.92969 411.16016l2.3789.60937"/></g><path fill="none" stroke="#000" stroke-linecap="round" stroke-linejoin="round" stroke-miterlimit="10" stroke-width=".5" d="M465.24219 411.91406l1.1875.30469"/><g clip-path="url(#ae)"><path fill="none" stroke="#000" stroke-linecap="round" stroke-linejoin="round" stroke-miterlimit="10" stroke-width=".5" d="M147.3789 401.40625l-6.7578-1.9336"/></g><path fill="none" stroke="#000" stroke-linecap="round" stroke-linejoin="round" stroke-miterlimit="10" stroke-width=".5" d="M146.39453 401.125l.25781 1.19922m11.58203 1.5039l-1.83593-6.78125m15.20703 6.76563l-1.95313-6.75m11.3086 5.23047l5.96875-3.70703m7.50781 3.94531l5.64453-4.1875m11.51563 2.09375l-.01953-.19922-.0586-.1914-.09375-.17579-.46094-.3789-.1914-.05469-.19922-.02344-.19922.02344-.1914.05469-.45704.3789-.09765.17579-.0547.1914-.01952.19922.01953.19922.05469.1914.09765.1797.45703.375.19141.05859.19922.01953.19922-.01953.1914-.0586.46094-.375.09375-.17969.0586-.1914.01953-.19922m15.80468.01563l-7.02734-.03125m6.00781.02734l.57031 1.08594m13.62891-.12891l-6.7539-1.9375m6.7539 1.9375l.51172 2.40234m-1.49219-2.68359l.2539 1.19922m14.10548-1.17188l-6.8789-1.42578m6.8789 1.42578l.6875 2.35547m-1.6875-2.5625l.6875 2.35547m13.67969-2.47656l-6.98438-.77344m6.98438.77344l.90625 2.28125m-1.92188-2.39453l.45313 1.14062m13.89062-1.63281l-7.01172.4375m7.01172-.4375l1.28516 2.09375m-2.3047-2.02734l.64063 1.04296m13.70313-.91015l-7.02734.04297m7.02734-.04297l1.16406 2.15625m12.13281-2.5l-6.99218.72656m6.99218-.72656l1.3672 2.03515m11.95312-1.9375l-7.00391.53516m7.0039-.53515l1.31641 2.0703m12.0039-1.99218l-7.01562.375m7.01563-.375l1.26562 2.10156m11.98047-2.64453l-6.875 1.46094m5.875-1.25l.78907.9414m13.57812-.83203l-6.98047.82032m5.96485-.69922l.69921 1.00781m13.56641-1.5039l-6.84766 1.5703m6.84766-1.5703l1.60547 1.85546m11.32031-2.83984l-6.07031 3.53906m6.07031-3.53906l2.08594 1.28906m-2.96875-.77344l1.04297.64454m13.34375-.78125l-6.45313 2.78125m6.45313-2.78125l1.91797 1.53515m-2.85547-1.1289l.95703.76562m13.42969-.8125l-6.71875 2.0625m6.71875-2.0625l1.73828 1.73438m-2.71485-1.4336l.8672.86719m13.2578-1.60547l-6.3828 2.9414m6.3828-2.9414l1.95313 1.48438m-2.88281-1.0586l.97656.74219m13.1836-1.33985l-6.21485 3.28125m6.21484-3.28125l2.03125 1.37891m-2.9375-.90234l1.01563.6914m13.34375-.875l-6.48828 2.69922m6.48828-2.69922l1.89453 1.5586m-2.83984-1.16797l.94921.78125m13.25-1.3086l-6.36718 2.96875"/><g clip-path="url(#af)"><path fill="none" stroke="#000" stroke-linecap="round" stroke-linejoin="round" stroke-miterlimit="10" stroke-width=".5" d="M466.7461 398.95313l1.96093 1.47656"/></g><path fill="none" stroke="#000" stroke-linecap="round" stroke-linejoin="round" stroke-miterlimit="10" stroke-width=".5" d="M465.82031 399.38672l.98047.73828"/><g clip-path="url(#ag)"><path fill="none" stroke="#000" stroke-linecap="round" stroke-linejoin="round" stroke-miterlimit="10" stroke-width=".5" d="M147.44531 386.4336l-6.89062 1.3789"/></g><path fill="none" stroke="#000" stroke-linecap="round" stroke-linejoin="round" stroke-miterlimit="10" stroke-width=".5" d="M147.44531 386.4336L149 388.33202m11.78125-1.77344l-6.9336 1.12891m5.92579-.96484l.74219.97656m13.0039-2.57422l-5.77734 3.9961m4.9375-3.41407l1.08984.5625M183 383.73828l1.89063 6.76953m-1.6172-5.78515l.89063-.84375m10.67578 5.78906l4.83985-5.08985m-4.13672 4.35157l-1.17969-.32813m18.83984.85156l-5.2578-4.66015m5.2578 4.66015l-.57421 2.38672m-.19141-3.0625l-.28516 1.19141m14.8672-1.25l-6.26173-3.1914m6.26172 3.1914l.04688 2.45313m-.95703-2.91797l.04296 2.45312m14.33203-2.3164l-6.55468-2.53516m6.55469 2.53515l.29296 2.4336m-1.25-2.80469l.29688 2.4375m14.09375-2.44531l-6.79688-1.77735m6.79688 1.77735l.57031 2.38672m-1.5586-2.64453l.28516 1.1914m14.125-1.57031l-7.0078-.5039m7.0078.5039l.9922 2.24219m-2.01173-2.3164l.4961 1.12108m13.83984-1.53125l-7.01172.46485m7.01172-.46485l1.29297 2.08594m-2.3125-2.01953L280.28125 388m13.67969-1.25l-6.98828.7461m6.98828-.7461l1.375 2.03125m-2.39453-1.92188l.6875 1.01563m13.58984-1.48047l-6.875 1.45703m6.875-1.45703l1.57422 1.8789m11.80469-1.4414l-7.00391.58203m7.0039-.58203l1.32813 2.0625m12-1.82422l-7.02734.10938m7.02734-.10938l1.1836 2.14453m12.10546-2.51562l-6.97656.85156m6.97656-.85156l1.40625 2.00781m11.89453-2.11719l-6.9453 1.06641m6.9453-1.0664l1.46485 1.96484m-2.47656-1.8086l.73437.98047m13.48047-1.625l-6.72656 2.04297m6.72656-2.04297l1.73047 1.73828m-2.71094-1.4414l.86719.8711m13.4336-1.15235l-6.73438 2.01172m6.73437-2.01172l1.72266 1.75m-2.70313-1.45703l.86328.875m13.39454-1.28907l-6.66016 2.25391m6.66016-2.2539l1.78515 1.68359m-2.7539-1.35547l.89062.84375m13.47656-.8711l-6.82812 1.65235m6.82812-1.65235l1.62891 1.83594m-2.6211-1.59375l.8125.91797m13.40626-1.47265l-6.64844 2.27734m6.64844-2.27735l1.78906 1.6797m-2.75781-1.34766l.89453.83984m13.25781-1.5l-6.38672 2.9336m6.38672-2.9336l1.94922 1.48828m-2.8789-1.0586l.97655.7422m13.40235-.83204l-6.65625 2.25782m6.65625-2.25782l1.78515 1.6797m-2.7539-1.35157l.89453.83984m13.46875-.90234l-6.8125 1.72265"/><g clip-path="url(#ah)"><path fill="none" stroke="#000" stroke-linecap="round" stroke-linejoin="round" stroke-miterlimit="10" stroke-width=".5" d="M466.96875 386.26172l1.64844 1.8164"/></g><path fill="none" stroke="#000" stroke-linecap="round" stroke-linejoin="round" stroke-miterlimit="10" stroke-width=".5" d="M465.97656 386.51172l.82422.91015"/><g clip-path="url(#ai)"><path fill="none" stroke="#000" stroke-linecap="round" stroke-linejoin="round" stroke-miterlimit="10" stroke-width=".5" d="M147.27734 372.53906l-6.55468 2.53906"/></g><path fill="none" stroke="#000" stroke-linecap="round" stroke-linejoin="round" stroke-miterlimit="10" stroke-width=".5" d="M147.27734 372.53906l1.85547 1.60156m11.66016-.83203l-6.95703.9961m5.94531-.85156l.72266.99218m13.3125-2.1211l-6.3711 2.96485m5.4414-2.53125l.98048.73828m12.84765-1.84765l-5.53906 4.32031m5.53906-4.32031l2.2422 1m10.68358 3.7461l-4.7578-5.17188m4.7578 5.17187l-.8164 2.3125m14.15234-2.33203l-4.80078-5.13281m4.80078 5.13281l-.79687 2.32031m.09765-3.0664l-.79687 2.3203m15.46484-2.40624l-6.10937-3.46875m6.10937 3.46875l-.0664 2.45312m-.82422-2.95703l-.0664 2.45313m14.61327-2.78906l-6.79297-1.79297m6.79297 1.79296l.5625 2.39063m-1.55078-2.64844l.5625 2.38672m13.85547-2.94531l-7.02344-.15625m7.02344.15625l1.10547 2.1914m-2.125-2.21484l.55078 1.09766m13.77734-1.42969l-7.0078.55469m7.0078-.55469l1.31641 2.07031m-2.33594-1.98828l.65625 1.03516m13.66016-1.26953l-6.97266.85937m6.97266-.85937l1.41015 2.0078m-2.42187-1.8828l.70313 1.0039m13.6328-1.04297l-6.99218.6875m6.99219-.6875l1.35937 2.04297m-2.375-1.9414l.67969 1.01953m13.63672-1.25l-6.96094.94531m6.96094-.94531l1.4336 1.99219m-2.44532-1.85547l.71484.99609m13.62891-.9961l-6.9961.67188m6.9961-.67187l1.35547 2.04296m-2.375-1.9453l1.35547 2.04296m12.9961-1.75781l-7.02735-.09375m7.02734.09375l1.1211 2.1836m-2.14454-2.19532l.5625 1.08984m13.77344-1.0703l-7.02344-.10938m7.02344.10937l1.11719 2.1875m-2.13672-2.20312l1.11719 2.18359m13.20703-2.5l-7.0039.55078m7.0039-.55078l1.32031 2.07031m-2.33984-1.98828l1.32031 2.07031m12.9375-2.66015l-6.85156 1.5664m6.85156-1.5664l1.60547 1.85547m-2.60156-1.625l1.60546 1.85546m12.60547-2.4375l-6.64843 2.27344m6.64843-2.27344l1.78907 1.6797m-2.75782-1.34766l1.79297 1.67578m12.55078-1.8164l-6.76953 1.89062m6.76953-1.89063l1.69141 1.77735m-2.67578-1.5l1.6914 1.77734m12.52344-2.3164L407 375.01562m6.60156-2.41407l1.82422 1.64063m-2.78515-1.28906l1.82421 1.64062m12.62891-1.29297l-6.95313 1.01563m6.95313-1.01563l1.45313 1.97656m-2.46485-1.82812l1.45313 1.97656m12.72656-2.73437l-6.66016 2.23437m6.66016-2.23437l1.78125 1.6875m-2.75-1.36329l.89062.84375m13.26172-1.5078l-6.39453 2.91406m6.39453-2.91407l1.94531 1.49219m-2.8789-1.07031l.97656.7461m13.32813-1.03126l-6.51172 2.64063"/><g clip-path="url(#aj)"><path fill="none" stroke="#000" stroke-linecap="round" stroke-linejoin="round" stroke-miterlimit="10" stroke-width=".5" d="M466.8164 372.48828l1.88282 1.57422"/></g><g clip-path="url(#ak)"><path fill="none" stroke="#000" stroke-linecap="round" stroke-linejoin="round" stroke-miterlimit="10" stroke-width=".5" d="M146.85938 358.45313l-5.71875 4.08203"/></g><path fill="none" stroke="#000" stroke-linecap="round" stroke-linejoin="round" stroke-miterlimit="10" stroke-width=".5" d="M146.85938 358.45313l2.1953 1.09375m10.83204-1.44532l-5.14453 4.78516m4.39844-4.08985l1.15625.39844m13.36718-.47265l-6.0664 3.54296m19.73047-.82421l-6.76563-1.89454m5.78125 1.6172l.26172 1.19921m12.38672 1.1875l-3.46485-6.11328m3.46485 6.11328l-1.3164 2.07031m.8125-2.96093l-1.31642 2.0703m15.71875-1.59765l-4.6328-5.28125m4.6328 5.28125l-.86718 2.29688m.19531-3.0625l-.8711 2.29297m15.67579-2.57422l-6.26563-3.1836m6.26563 3.1836l.04687 2.45312m-.95703-2.91797l.04297 2.45313m14.42188-2.58985l-6.7422-1.98437m6.7422 1.98438l.49218 2.40234m-1.47656-2.6914l.4961 2.40234m13.9453-3.05079l-7.02734-.10937m7.02735.10938l1.11718 2.1875m-2.14062-2.20313l1.11719 2.1836m13.21875-2.22266h-7.02735m7.02735 0l1.15234 2.16797m-2.17188-2.16797l.57422 1.08594m13.75782-.92188l-7.01954-.32813m7.01954.32813l1.05078 2.21875m-2.07031-2.26563l1.04687 2.21875m13.28906-2.18359l-7.01953-.30469m7.01953.3047l1.0586 2.21483m-2.08203-2.2578l1.05859 2.21484m13.28125-2.19532l-7.02344-.2539m7.02344.2539l1.07031 2.20704m-2.09375-2.2461l1.07422 2.20703m13.26563-2.2539l-7.02735-.08204m7.02735.08204l1.125 2.17968m-2.14844-2.1914l1.1289 2.17969m13.20704-2.125l-7.02344-.17188m7.02344.17188l1.10156 2.1953m-2.1211-2.21874l.54688 1.09765m13.78906-1.08984l-7.02344-.14063m7.02344.14063l1.10938 2.1914m-2.13282-2.21093l1.10938 2.1875m13.21875-2.52344l-7.0039.57031m7.0039-.5703l1.32422 2.0664m-2.34375-1.98438l1.32422 2.0664m12.99218-2.30858l-6.96875.89453m6.96875-.89454l1.42188 2m-2.4336-1.87109l1.41797 2m-2.43359-1.8711l.71094 1.00391m14.55078-1.6953l-6.80469 1.76171m6.80469-1.76172l1.65625 1.80469m-2.64844-1.55078l1.66016 1.8086m-2.64844-1.55079l.82813.90234m14.45703-1.4414l-6.78516 1.8164m6.78516-1.8164l1.67578 1.79687m-2.66016-1.53125l1.67188 1.79297m-2.66016-1.53125l.83594.89844m14.47265-1.34766l-6.82812 1.65625m6.82812-1.65625l1.63282 1.83594m-2.625-1.59375l1.6289 1.83594m-2.6211-1.59375l.8125.91406m14.5-1.34375l-6.85546 1.54688m6.85547-1.54688l1.60156 1.85938m-2.59765-1.63282l1.60156 1.85938m-2.59766-1.63281l.79688.92968m14.46484-1.5625l-6.76172 1.90625m6.76172-1.90625l1.69922 1.77344m-2.6836-1.4961l1.69922 1.77344m-2.68359-1.49609l.85156.88672m14.23438-1.97656l-6.36719 2.98046m6.36719-2.98046l1.96094 1.47265m-2.88672-1.03906l1.96093 1.47266m12.17188-2.11329l-6.15234 3.39454"/><g clip-path="url(#al)"><path fill="none" stroke="#000" stroke-linecap="round" stroke-linejoin="round" stroke-miterlimit="10" stroke-width=".5" d="M466.63672 358.79688l2.05469 1.33984"/></g><path fill="none" stroke="#000" stroke-linecap="round" stroke-linejoin="round" stroke-miterlimit="10" stroke-width=".5" d="M465.74219 359.28906l1.02734.67188"/><g clip-path="url(#am)"><path fill="none" stroke="#000" stroke-linecap="round" stroke-linejoin="round" stroke-miterlimit="10" stroke-width=".5" d="M145.9375 344.2461l-3.875 5.86327"/></g><path fill="none" stroke="#000" stroke-linecap="round" stroke-linejoin="round" stroke-miterlimit="10" stroke-width=".5" d="M145.375 345.10156l1.21875.11719m12.29297-1.1836l-3.14453 6.28516m2.6875-5.3711l1.22656-.03124m13.9961.46875l-6.04298 3.58203m5.16407-3.0625l1.04687.64063m12.54688 3.17578l-4.84375-5.08985m4.14062 4.35156l-.39062 1.16407m12.875.42969l-1.77735-6.80079m1.77735 6.80079l-1.80469 1.66015m1.54688-2.64844l-1.8047 1.66016m15.97266-.88672l-2.96875-6.3711m2.96875 6.3711l-1.47656 1.95703m1.04688-2.88281l-.73828.97656m15.73046-1.02734l-5.46093-4.41797m5.46093 4.41797l-.46484 2.41015m-.32813-3.05078l-.46875 2.40625m15.125-2.71093l-6.55859-2.52735m6.5586 2.52735l.29687 2.4375m-1.25-2.8047l.29297 2.4336m14.10547-2.47265l-6.8164-1.71485m6.8164 1.71485l.58984 2.3789m-1.58203-2.6289l.58984 2.3828m13.73047-2.1953l-6.84375-1.58985m6.84375 1.58985l.63281 2.37109m-1.6289-2.60156l.63281 2.3711m13.67969-2.14845l-6.84766-1.57421m6.84766 1.57421l.63672 2.3711m-1.63282-2.59766l.32032 1.1836m14-.9961l-6.86719-1.4961m6.86719 1.4961l.66406 2.36328m-1.66406-2.58203l.66406 2.36328m13.6914-2.36328l-6.9453-1.0586m6.9453 1.0586l.8125 2.3164m-1.82421-2.46874l.8125 2.3164m13.55078-2.51953l-7.01953-.34765m7.01953.34765l1.04297 2.21875m-2.0625-2.26953l1.04297 2.21875m13.29687-2.375l-7.02734.07031m7.02734-.0703l1.17188 2.15233m-2.19532-2.14453l1.17188 2.15625m13.15234-1.83984l-7.0039-.58203m7.0039.58203l.96875 2.2539m-1.98828-2.33984l.96875 2.2539m13.35156-2.02343l-6.97265-.8711m6.97265.8711l.875 2.29297m-1.89062-2.41797l.875 2.29297M358.5 347.35937l.4375 1.14844m14.92969-1.44922l-7.02344.23829m7.02344-.23829l1.22265 2.12891m-2.24218-2.09375l1.22265 2.1289m-2.2461-2.09374l.61329 1.0625m14.65625-1.8125l-6.84375 1.59765m6.84375-1.59765l1.61328 1.84765m-2.60937-1.61328l1.61328 1.84766m-2.60938-1.61719l.8086.92578m14.42187-1.66797l-6.6914 2.15235m6.6914-2.15235l1.75781 1.70703m-2.73047-1.39453l1.75782 1.71094m-2.73438-1.39844l.88281.85547m14.3672-1.52344l-6.66016 2.2422m6.66015-2.2422l1.78125 1.6836m-2.75-1.35938l1.78125 1.6875m-2.75-1.35937l1.78125 1.6836M426.92578 346l-6.6211 2.35547M426.92579 346l1.8125 1.65625m-2.77344-1.3125L427.77344 348M425 346.6875l1.8125 1.65625m13.39062-2.44531l-6.54296 2.5586m6.54296-2.5586l1.86329 1.60156m-2.8125-1.22656l1.85937 1.59765m-2.8125-1.22656l.92969.79688m14.22265-1.69922l-6.41406 2.8711m6.41406-2.8711l1.9375 1.50781m-2.87109-1.08984l1.9375 1.5078m-2.8711-1.08983l.96876.7539m14.13281-1.7539l-6.2539 3.19921"/><g clip-path="url(#an)"><path fill="none" stroke="#000" stroke-linecap="round" stroke-linejoin="round" stroke-miterlimit="10" stroke-width=".5" d="M466.6875 345.57813l2.01563 1.40234"/></g><g clip-path="url(#ao)"><path fill="none" stroke="#000" stroke-linecap="round" stroke-linejoin="round" stroke-miterlimit="10" stroke-width=".5" d="M465.77734 346.04297l2.01563 1.40234"/></g><g clip-path="url(#ap)"><path fill="none" stroke="#000" stroke-linecap="round" stroke-linejoin="round" stroke-miterlimit="10" stroke-width=".5" d="M140.73438 335.16406l6.53125-2.60156"/></g><path fill="none" stroke="#000" stroke-linecap="round" stroke-linejoin="round" stroke-miterlimit="10" stroke-width=".5" d="M154.30469 332.05078l6.01953 3.625m-5.14453-3.09765l.0664-1.22266m15.27735-1.0039l.21484 7.02343m16.48438-2.24219l-6.5547-2.53906m5.60157 2.16797l.14453 1.21875m11.1914 1.3789l-.6914-6.99218m.6914 6.99219l-2.04296 1.35937m1.9414-2.375l-2.04296 1.35938m16.58594-.64844l-2.94141-6.38281m2.9414 6.3828l-1.48828 1.95313m1.0586-2.88281l-1.48438 1.95313m15.5586-1.19922l-3.60157-6.03516m3.60157 6.03516l-1.26953 2.10156m.74609-2.97656l-1.27344 2.09765m15.46875-1.46484l-4.3164-5.54688m4.3164 5.54688l-1.0039 2.23828m.375-3.04688l-1.00391 2.2422m15.67187-2.19923l-5.76562-4.01562m5.76562 4.01562l-.28906 2.4336m-.54687-3.01953l-.29297 2.4375m14.92187-2.83204l-6.71875-2.05859m6.71875 2.0586l.46485 2.41015m-1.44141-2.70703L266.68359 337m-1.4453-2.70703l.23437 1.20312m15.13671-1.01171l-6.91796-1.2422m6.91797 1.2422l.75 2.33593m-1.75782-2.51562l.7539 2.33594m-1.7578-2.51954l.375 1.16797m14.91796-.64453l-6.85156-1.5625m6.85156 1.5625l.64454 2.36719m-1.64063-2.59766l.64453 2.3711m-1.64062-2.59766l.32031 1.1836m15-.77735l-6.875-1.46094m6.875 1.46094l.67578 2.35938m-1.67578-2.57032l.67578 2.35547m13.6836-2.40625l-6.96485-.9375m6.96485.9375l.85156 2.30078m-1.86328-2.4375l.85156 2.30078m13.50781-2.58593l-7.02734-.09375m7.02734.09375l1.1211 2.17968m-2.14454-2.1953l1.1211 2.18358m13.21094-2.0078l-7.01563-.41407m7.01563.41406l1.02343 2.22656m-2.04297-2.28906l1.01954 2.23047m13.30859-2.07812l-7.0039-.59766m7.0039.59766l.96094 2.2578m-1.98047-2.34374l.96484 2.25781m13.34766-2.96484l-6.95703.99219m6.95703-.9922l1.44531 1.98048m-2.45703-1.83594l1.44531 1.98047m12.65625-2.95703l-6.50781 2.65625m6.50781-2.65625l1.88281 1.5703m-2.83203-1.18358l.94531.78515m13.35938-1.0664l-6.58984 2.4453m6.58984-2.4453l1.83203 1.6289m-2.79297-1.27344l.91797.81641m13.46094-.84766l-6.79688 1.79297m6.79688-1.79297l1.66406 1.80079m-2.65234-1.53907l.83203.90235m13.4414-1.26954L420.25 334.8672m6.73438-2.00781l1.72265 1.74609m-2.70312-1.45313l1.72265 1.7461m12.48047-2.3086l-6.55078 2.54688m6.55078-2.54688l1.85938 1.60157m-2.8125-1.23047l1.85937 1.60156m-2.8125-1.23047l.92969.80078m14.26172-1.61719L447 335.21094m6.49219-2.69531l1.89453 1.5625m-2.83985-1.16797l1.89454 1.55859m-2.83985-1.16797l1.89453 1.5586m13.1172-2.73438l-6.10548 3.47656"/><g clip-path="url(#aq)"><path fill="none" stroke="#000" stroke-linecap="round" stroke-linejoin="round" stroke-miterlimit="10" stroke-width=".5" d="M466.61328 332.125l2.07422 1.3086"/></g><g clip-path="url(#ar)"><path fill="none" stroke="#000" stroke-linecap="round" stroke-linejoin="round" stroke-miterlimit="10" stroke-width=".5" d="M465.72656 332.6289l2.07422 1.3125"/></g><path fill="none" stroke="#000" stroke-linecap="round" stroke-linejoin="round" stroke-miterlimit="10" stroke-width=".5" d="M464.83594 333.13672l2.07422 1.3125"/><g clip-path="url(#as)"><path fill="none" stroke="#000" stroke-linecap="round" stroke-linejoin="round" stroke-miterlimit="10" stroke-width=".5" d="M147.5039 320.8086l-7.0078-.51954"/></g><path fill="none" stroke="#000" stroke-linecap="round" stroke-linejoin="round" stroke-miterlimit="10" stroke-width=".5" d="M154.91406 323.11328l4.80078-5.13281m-4.10156 4.38672l-1.1836-.32031m12.77735-.69922l6.84375-1.59766m-6.84375 1.59766L165.59375 319.5m16.8789 4.23828l2.94532-6.3789m-2.51563 5.44921l-1.22656.07032m15.64844 1.18359l-.1289-7.02734m.1289 7.02734l-2.14453 1.1875m2.125-2.21094l-2.14453 1.1914m15.75-.18358l-.67188-6.9961m.67188 6.9961l-2.04297 1.35156m1.94531-2.3711l-2.04688 1.35547m16.52735-.61328l-2.80469-6.4414m2.80469 6.4414l-1.52734 1.92188m1.11718-2.85938l-1.52734 1.92188m1.1211-2.85938l-.76173.96094m15.69141.42969l-4.40234-5.47657m4.40234 5.47657l-.96875 2.2578m.32813-3.05468l-.96875 2.25781m.32812-3.05468l-.48438 1.1289m15.53125.03516l-5.30078-4.61328m5.30078 4.61328l-.55468 2.39062m-.21875-3.0625l-.55078 2.39063m-.21875-3.0625l-.27735 1.19531m15.60156-.53906l-6.23437-3.24219m6.23438 3.24219l.02343 2.45312m-.92969-2.92578l.02344 2.45703m-.92969-2.92578l.00782 1.22656m15.33594-.79687l-6.66797-2.21484m6.66797 2.21484l.41015 2.41797m-1.3789-2.74219l.41015 2.42188m-1.38281-2.7422l.20703 1.20704m15.11719-.78906l-6.80078-1.76563m6.80078 1.76563l.57031 2.38672m-1.5586-2.64454l.57032 2.38672m13.76172-2.25l-6.85938-1.52343m6.85938 1.52343l.65234 2.3672m-1.65234-2.58595l.65625 2.36329m13.73437-2.66797l-7.01172-.47266m7.01172.47266l1.0039 2.23828m-2.02343-2.3086l1.0039 2.2422m-2.02343-2.3086l.5 1.11719m14.83594-1.64844l-6.97266.86328m6.97266-.86328l1.41015 2.00781m-2.42578-1.88281l1.41016 2.00781m12.85156-2.5039l-6.83984 1.60546m6.83984-1.60547l1.61719 1.84375m-2.60938-1.61328l1.6172 1.84766m12.49218-2.6836l-6.4414 2.8125m6.4414-2.8125l1.92187 1.52344m11.57422-.99219l-6.80468 1.75391m6.80468-1.7539l1.65625 1.80859m11.21485-2.82813l-5.91797 3.78907m5.91797-3.78907l2.14062 1.20313m10.35547-2.09375l-4.27734 5.57422m4.27734-5.57422l2.41797.40234m9.89062-.9414l-2.26562 6.65234m17.61328-1.80469l-6.33203-3.04687m5.41406 2.60547l.04688 1.22265m14.53515-2.27344l-7.02734-.05859m7.02734.0586l1.13282 2.17578m11.90234-3.58204l-6.46875 2.75m6.46875-2.75l1.90625 1.54297m-2.84766-1.14062l1.90625 1.54297m-2.84765-1.14453l1.91015 1.54296m12.73047-3.24609l-5.35156 4.55469"/><g clip-path="url(#at)"><path fill="none" stroke="#000" stroke-linecap="round" stroke-linejoin="round" stroke-miterlimit="10" stroke-width=".5" d="M466.23828 318.26953l2.28125.90625"/></g><path fill="none" stroke="#000" stroke-linecap="round" stroke-linejoin="round" stroke-miterlimit="10" stroke-width=".5" d="M465.46094 318.9336l2.28125.90234m-3.0625-.23828l2.28125.90234"/><path fill="#ff3030" fill-rule="evenodd" d="M215.83594 472.08594h7.69531V461.9414h-7.69531v10.14453"/><path fill="azure" fill-rule="evenodd" d="M217.67188 463.77344h.83203v5.73828h3.1914v.74219h-4.02344v-6.48047"/><path fill="#ff3030" fill-rule="evenodd" d="M455.50781 454.33203h7.6914V444.1875h-7.6914v10.14453"/><path fill="azure" fill-rule="evenodd" d="M457.33984 446.01953h.83594v5.73828h3.1914V452.5h-4.02734v-6.48047"/><path fill="#00f" fill-rule="evenodd" d="M317.22656 445.45703h8.61719V435.3125h-8.61719v10.14453"/><path fill="azure" fill-rule="evenodd" d="M319.0586 437.14453h.83202v2.82422h3.28516v-2.82422h.83594v6.48047h-.83594v-2.91797h-3.28515v2.91797h-.83204v-6.48047"/><path fill="#ff3030" fill-rule="evenodd" d="M220.27734 432.14063h7.69141v-10.14454h-7.6914v10.14454"/><path fill="azure" fill-rule="evenodd" d="M222.10938 423.82813h.83203v5.73828h3.1953v.74218h-4.02733v-6.48046"/><path fill="#ff3030" fill-rule="evenodd" d="M189.20703 356.6875h7.6914v-10.14453h-7.6914v10.14453"/><path fill="azure" fill-rule="evenodd" d="M191.03906 348.375h.83594v5.74219h3.1914v.73828h-4.02734V348.375"/><path fill="#ffffe0" fill-rule="evenodd" d="M355.64844 427.9336h22.17969v-10.19141h-22.1797v10.1914"/><path fill-rule="evenodd" d="M359.14453 419.57422h.51172v6.29687h-.78906v-4.49218h-1.38672v-.5547l.5586-.0625.2539-.05468.22656-.08984.20703-.14063.17188-.21094.14062-.29687.10547-.39453m4.8164 0l.22657.01953.22266.05469.20703.08984.19531.1211.1836.15234.17187.17187.30078.42188.2461.49219.17968.54687.10938.57813.03906.59375-.03906.59375-.10938.58203-.17969.55469-.24609.5-.30078.42968-.17188.17969-.18359.15234-.19531.125-.20703.08985-.22266.0586-.22656.01952-.23047-.01953-.21875-.0586-.20703-.08984-.19922-.125-.1836-.15234-.17187-.17969-.30078-.42969-.24219-.5-.17969-.55468-.11328-.58203-.03515-.59375h.83203l.02734.5625.08203.5039.125.44531.16406.375.19141.30079.21094.21875.22265.13671.22657.04688.22656-.04688.22266-.13671.21093-.21875.19141-.30079.16016-.375.125-.4453.08203-.50391.03125-.5625-.03125-.5625-.08203-.5-.125-.4375-.16016-.36329-.1914-.29296-.21094-.21485-.22266-.13281-.22656-.04297-.22656.04297-.22266.13281-.21094.21485-.1914.29296-.16407.36329-.125.4375-.08203.5-.02734.5625h-.83203l.03515-.59375.11328-.57813.1797-.54687.24218-.4922.30078-.42187.17188-.17187.18359-.15235.19922-.12109.20703-.08984.21875-.05469.23047-.01953m4.95312 0l.22656.01953.21875.05469.21094.08984.19531.1211.1836.15234.17187.17187.30079.42188.24218.49219.1836.54687.10937.57813.03906.59375-.03906.59375-.10937.58203-.1836.55469-.24219.5-.30078.42968-.17187.17969-.1836.15234-.1953.125-.21094.08985-.21875.0586-.22657.01952-.23047-.01953-.21875-.0586-.20703-.08984-.19922-.125-.18359-.15234-.17188-.17969-.30078-.42969-.24218-.5-.1797-.55468-.11327-.58203-.03906-.59375h.83593l.02735.5625.08203.5039.125.44531.16406.375.1914.30079.21094.21875.22266.13671.22656.04688.22656-.04688.22266-.13671.21094-.21875.1875-.30079.16406-.375.125-.4453.08203-.50391.03125-.5625-.03125-.5625-.08203-.5-.125-.4375-.16406-.36329-.1875-.29296-.21094-.21485-.22265-.13281-.22657-.04297-.22656.04297-.22266.13281-.21093.21485-.19141.29296-.16406.36329-.125.4375-.08203.5-.02735.5625h-.83594l.03907-.59375.11328-.57813.17969-.54687.24218-.4922.30079-.42187.17187-.17187.1836-.15235.19921-.12109.20703-.08984.21875-.05469.23047-.01953m4.95313 0l.38672.02734.35546.08594.32422.13281.28125.1875.22657.23828.17578.28516.10937.33203.03516.3789-.01953.27344-.0586.23438-.08593.19922-.11329.17187-.1289.14454-.14063.12109-.28515.19531.23047.1211.21093.14453.1797.17187.15624.19531.1211.21485.08984.22656.0586.2461.01952.2539-.03515.3125-.10547.32422-.17188.32422-.23828.3086-.3086.26952-.37108.21485-.21485.07812-.22656.0625-.2461.03906-.2578.01172-.26173-.01172-.24218-.03906-.22266-.0625-.20703-.07812-.35547-.21485-.29297-.26953-.22265-.3086-.15625-.32421-.09375-.32422-.03125-.3125h.83593l.02735.2539.07812.23438.1211.21485.16015.18359.1914.15234.22266.11328.23829.07422.2578.02344.25391-.02344.23829-.07422.22265-.11328.1914-.15234.16016-.1836.1211-.21484.07812-.23437.02735-.25391-.02735-.25-.07812-.23828-.1211-.21094-.16015-.1836-.1914-.15234-.22267-.11718-.23828-.07032-.2539-.02734-.25781.02734-.23829.07032-.22265.11718-.1914.15235-.16017.1836-.12109.21093-.07812.23828-.02735.25h-.83594l.01954-.2539.05859-.23829.08984-.22265.125-.21094.15235-.1875.17969-.17578.21093-.15235.23047-.1328-.28515-.19532-.14063-.1211-.1289-.14453-.11329-.17187-.08594-.19922-.05859-.23438-.01953-.27343h.78516l.02343.21484.06641.1914.10156.16407.14063.14063.16406.11328.1875.07812.20703.05078.22266.01953.21875-.01953.20703-.05078.1875-.07812.16406-.11329.14063-.14062.10156-.16406.0664-.1914.02344-.21485-.02344-.21485-.0664-.1914-.10156-.16797-.14063-.13672-.16406-.11328-.1875-.08203-.20703-.05078-.21875-.01563-.22266.01563-.20703.05078-.1875.08203-.16406.11328-.14063.13672-.10156.16797-.0664.1914-.02344.21485h-.78516l.03516-.3789.10937-.33204.17578-.28516.22656-.23828.28125-.1875.32422-.13281.35547-.08594.39063-.02734"/><path fill="#ffffe0" fill-rule="evenodd" d="M181.96484 385.20313h22.1797v-10.19141h-22.1797v10.1914"/><path fill-rule="evenodd" d="M185.46094 376.84375h.51172v6.29688h-.78907v-4.4922h-1.38672v-.55468l.5586-.0664.2539-.05079.22657-.08984.20703-.14453.17187-.20703.14063-.29688.10547-.39453m4.8164 0l.22657.01953.21875.05469.21093.08984.19532.1211.18359.14843.17188.17579.30078.42187.24609.49219.17969.54687.10937.57813.03906.59375-.03906.58984-.10937.58594-.17969.55469-.2461.5-.30077.42968-.17188.1797-.1836.15233-.1953.125-.21094.08985-.21875.0586-.22657.01952-.23047-.01953-.21875-.0586-.20703-.08983-.19922-.125-.18359-.15235-.17187-.17969-.30078-.42968-.2422-.5-.17968-.5547-.11328-.58593-.03906-.58984h.83593l.02735.5625.08203.5039.125.44532.16406.37109.1914.30078.21095.22266.22265.13672.22656.04687.22657-.04687.22265-.13672.21094-.22266.1875-.30078.16406-.3711.125-.4453.08203-.50391.03125-.5625-.03125-.5625-.08203-.5-.125-.4375-.16406-.36328-.1875-.29297-.21094-.21485-.22265-.1328-.22657-.04298-.22656.04297-.22266.13281-.21093.21485-.1914.29297-.16407.36328-.125.4375-.08203.5-.02735.5625h-.83593l.03906-.59375.11328-.57813.17969-.54687.24219-.49219.30078-.42188.17187-.17578.1836-.14843.19921-.1211.20703-.08984.21875-.05469.23047-.01953m4.95313 0l.22656.01953.21875.05469.21094.08984.19531.1211.1836.14843.17187.17579.30078.42187.24219.49219.17969.54687.11328.57813.03906.59375-.03906.58984-.11328.58594-.1797.55469-.24218.5-.30078.42968-.17188.1797-.18359.15233-.19531.125-.21094.08985-.21875.0586-.22656.01952-.23047-.01953-.21875-.0586-.20703-.08983-.19922-.125-.1836-.15235-.17187-.17969-.30078-.42968-.24219-.5-.17969-.5547-.11328-.58593-.03906-.58984h.83594l.02734.5625.08203.5039.125.44532.16407.37109.1914.30078.21094.22266.22266.13672.22656.04687.22656-.04687.22266-.13672.20703-.22266.1914-.30078.16407-.3711.125-.4453.08203-.50391.02734-.5625-.02734-.5625-.08203-.5-.125-.4375-.16406-.36328-.19141-.29297-.20703-.21485-.22266-.1328-.22656-.04298-.22656.04297-.22266.13281-.21094.21485-.1914.29297-.16407.36328-.125.4375-.08203.5-.02734.5625h-.83594l.03906-.59375.11328-.57813.1797-.54687.24218-.49219.30078-.42188.17188-.17578.18359-.14843.19922-.1211.20703-.08984.21875-.05469.23047-.01953m4.94922 0l.39062.02734.35547.08204.32422.13671.28125.1875.22656.23829.17578.28515.10938.33203.03516.3789-.01954.27345-.05859.23437-.08594.19922-.11328.17188-.1289.14453-.14063.12109-.28516.19531.23047.1211.21094.14453.17969.17187.15234.19531.125.21094.08984.23047.0586.2461.01562.2539-.03125.3086-.10547.32812-.17187.32422-.23828.3086-.3086.26562-.37109.21484-.21484.08203-.22656.0625-.2461.03516-.25781.01562-.26172-.01562-.24219-.03516-.22265-.0625-.20703-.08203-.35938-.21484-.28906-.26563-.22266-.3086-.15625-.32421-.09375-.32813-.03125-.30859h.83594l.02734.2539.07422.23438.125.21094.16016.1875.1914.15234.22266.11329.23828.07421.2539.02344.25782-.02344.23828-.07421.22266-.11329.1914-.15234.16016-.1875.1211-.21094.07812-.23437.02734-.2539-.02734-.25392-.07813-.23437-.12109-.21094-.16016-.1836-.1914-.15233-.22266-.1172-.23828-.0703-.25781-.02735-.2539.02735-.23829.0703-.22266.1172-.1914.15234-.16016.1836-.125.21093-.07422.23438-.02734.2539h-.83594l.01953-.2539.0586-.23829.08984-.22656.1211-.20703.15624-.1914.1797-.17188.21093-.15235.23047-.1328-.28516-.19532-.14062-.1211-.12891-.14452-.11328-.17188-.08594-.19922-.0586-.23437-.01952-.27344h.78515l.02344.21484.0664.1914.10157.16407.13672.14063.16797.10937.1875.08203.20703.05078.21875.01563.22265-.01563.20703-.05078.1875-.08203.16407-.10937.13672-.14063.10547-.16406.0664-.1914.02344-.21485-.02344-.21485-.0664-.1914-.10547-.16797-.13672-.14063-.16406-.10937-.1875-.08203-.20704-.05078-.22265-.01563-.21875.01563-.20703.05078-.1875.08203-.16797.10938-.13672.14062-.10156.16797-.06641.1914-.02344.21485h-.78515l.03515-.3789.10938-.33204.17187-.28515.23047-.23829.28125-.1875.32422-.13671.35547-.08204.38672-.02734"/><path fill="#ffffe0" fill-rule="evenodd" d="M319.55078 375.5586h22.1836v-10.19141h-22.1836v10.1914"/><path fill-rule="evenodd" d="M323.05078 367.19922h.51172v6.29297h-.78906v-4.48828h-1.38672v-.5547l.5586-.0664.25-.05469.23046-.08984.20313-.14062.17578-.21094.14062-.29297.10547-.39453m4.8125 0l.23047.01953.21875.05469.21094.08984.19531.1211.1836.14843.17187.17578.30078.41797.24219.4961.17969.54687.11328.57813.03906.58984-.03906.59375-.11329.58594-.17968.55078-.24219.5039-.30078.4297-.17188.17968-.18359.15234-.19531.1211-.21094.09375-.21875.05469-.23047.01953-.22656-.01954-.21875-.05468-.21094-.09375-.19531-.1211-.1836-.15234-.17187-.17969-.30078-.42969-.24219-.5039-.17969-.55078-.11328-.58594-.03906-.59375h.83594l.02734.5625.08203.50781.125.4414.16406.375.19141.30079.21094.22266.22265.13671.22266.04688.22656-.04688.22266-.13671.21094-.22266.1914-.30078.16407-.375.125-.4414.08203-.50782.02734-.5625-.02734-.5586-.08203-.5039-.125-.4336-.16407-.36718-.1914-.29297-.21094-.21094-.22266-.13281-.22656-.04688-.22265.04688-.22266.13281-.21094.21094-.1914.29297-.16407.36719-.125.43359-.08203.5039-.02734.5586h-.83594l.03906-.58984.11328-.57813.1797-.54687.24218-.4961.30078-.41797.17188-.17578.18359-.14844.19531-.12109.21094-.08984.21875-.05469.22656-.01953m5.09375 0h.50781v6.29297h-.78515v-4.48828h-1.39063v-.5547l.5625-.0664.25-.05469.23047-.08984.20313-.14062.17578-.21094.14062-.29297.10547-.39453m2.82422 2.17578h.78516l.01953-.3164.0586-.28907.10155-.25.14063-.21484.17969-.17578.22265-.12891.26563-.07813.3086-.03125.23827.02344.22266.0625.20312.10156.1797.13672.14843.17579.11328.20312.07422.23828.02344.26563-.02344.26562-.0625.22656-.11328.19141-.15235.17188-.20312.16015-.2461.16797-.6328.38672-.53907.3164-.4375.31641-.34766.32422-.26171.33594-.19141.35156-.125.36719-.0664.39453-.02344.41797h4.21093v-.73828h-3.33203l.08594-.28516.11328-.23828.14844-.19922.1875-.17969.23047-.17187.27734-.17578.71875-.41797.41406-.20313.34375-.23437.28125-.25.21875-.26563.16406-.27734.11329-.28516.0625-.28515.01953-.28125-.03906-.38282-.1211-.34765-.1914-.3086-.25-.26171-.30079-.21485-.34765-.15625-.3789-.10156-.40626-.03125-.4336.03125-.39843.09765-.35547.16797-.30469.23438-.25.30469-.18359.375-.11719.4453-.03906.51954"/><path fill="#ffffe0" fill-rule="evenodd" d="M332.86719 342.8164h22.17969v-10.1953h-22.1797v10.1953"/><path fill-rule="evenodd" d="M336.36719 334.45703h.50781V340.75h-.78516v-4.48828h-1.39062v-.55469l.5625-.0664.25-.0547.23047-.08984.20312-.14062.17578-.21094.14063-.29297.10547-.39453m4.8125 0l.23047.01953.21875.05469.20703.08984.19531.1211.1875.14844.16797.17578.30469.41796.24218.4961.1797.54687.11327.57813.03516.58984-.03516.59375-.11328.58594-.17969.55078-.24218.5039-.3047.42579-.16796.17969-.1875.15625-.19531.12109-.20703.09375-.21875.05469-.23047.01953-.23047-.01953-.21875-.05469-.20703-.09375-.19531-.1211-.1836-.15624-.17187-.1797-.30079-.42577-.24609-.5039-.17969-.55079-.10937-.58594-.03906-.59375h.83203l.03125.5625.08203.50781.125.44141.16015.375.19141.30078.21094.22266.22265.13672.22657.04687.22656-.04687.22266-.13672.21093-.22266.19141-.30078.16016-.375.1289-.4414.08203-.50782.02735-.5625-.02735-.5625-.08203-.5-.1289-.4336-.16016-.36718-.1914-.29297-.21094-.21094-.22266-.1328-.22656-.04688-.22656.04687-.22266.13281-.21094.21094-.1914.29297-.16016.36719-.125.4336-.08203.5-.03125.5625h-.83203l.03906-.58985.10937-.57813.1797-.54687.24608-.4961.30079-.41796.17187-.17579.1836-.14843.1953-.1211.20704-.08984.21875-.05469.23047-.01953m5.09375 0h.50781V340.75h-.78906v-4.48828h-1.38672v-.55469l.5586-.0664.2539-.0547.23047-.08984.20312-.14062.17188-.21094.14062-.29297.10938-.39453m6.80078 1.61719h-.78516l-.05078-.21094-.08203-.1875-.10938-.15625-.1289-.13281-.14453-.10156-.16016-.07422-.16797-.04688-.17578-.01562-.32812.04297-.28516.12109-.2461.19531-.20312.26563-.16015.33984-.1172.40235-.0703.46875-.02344.52734.1875-.20313.1875-.16015.1836-.1211.1875-.08984.1875-.0586.1914-.03906.40234-.02343.3086.03125.3203.08984.31641.15625.29297.21875.2539.28516.19923.35156.07422.19922.05078.21875.03125.23437.0039.25-.78515.04688-.02735-.25781-.07812-.25-.125-.23438-.16016-.21094-.1914-.17969-.21875-.13671-.2422-.08594-.2539-.03125-.25781.03125-.23828.08594-.21875.13671-.19531.1797-.16016.21093-.1211.23438-.07812.25-.02734.2578.02734.26173.07813.25.12109.23437.16016.21094.1953.17578.21876.13672.23828.08984.25781.03125.2539-.03125.2422-.08984.21875-.13672.1914-.17578.16016-.21094.125-.23437.07812-.25.02735-.26172.78515-.04688-.03125.3711-.09375.37109-.15625.35938-.22265.32812-.28906.28516-.17188.11718-.1875.10157-.20703.08203-.22266.0625-.24219.03906-.2578.01172-.28516-.01563-.25782-.04687-.23828-.07422-.21484-.10547-.19531-.13281-.17579-.15625-.15234-.17969-.13672-.20312-.11719-.22266-.09765-.24219-.14844-.53125-.08203-.59375-.02734-.64062.03906-.7461.11328-.66015.1875-.57813.11719-.25781.13672-.23047.15625-.20703.16796-.17969.1875-.15625.20313-.1289.21484-.10157.23438-.07421.2461-.04297.26171-.01563.36719.03125.33203.09766.29688.15234.2539.19922.21485.23828.16406.27735.11328.30078.0625.3203"/></g></defs><use xlink:href="#au"/></svg>