<svg xmlns="http://www.w3.org/2000/svg" role="img" xmlns:xlink="http://www.w3.org/1999/xlink" viewBox="142.45 309.95 326.84 171.84"><defs><clipPath id="a"><path d="M144 311.67188h1v168.65625h-1zm0 0"/></clipPath><clipPath id="b"><path d="M144 311.67188h324v168.65625H144zm0 0"/></clipPath><clipPath id="c"><path d="M467 311.67188h1v168.65625h-1zm0 0"/></clipPath><clipPath id="d"><path d="M144 479h4v1.32813h-4zm0 0"/></clipPath><clipPath id="e"><path d="M147 480h2v.32813h-2zm0 0"/></clipPath><clipPath id="f"><path d="M153 479h8v1.32813h-8zm0 0"/></clipPath><clipPath id="g"><path d="M160 480h2v.32813h-2zm0 0"/></clipPath><clipPath id="h"><path d="M166 479h9v1.32813h-9zm0 0"/></clipPath><clipPath id="i"><path d="M180 479h8v1.32813h-8zm0 0"/></clipPath><clipPath id="j"><path d="M187 480h2v.32813h-2zm0 0"/></clipPath><clipPath id="k"><path d="M193 479h9v1.32813h-9zm0 0"/></clipPath><clipPath id="l"><path d="M200 480h2v.32813h-2zm0 0"/></clipPath><clipPath id="m"><path d="M206 479h9v1.32813h-9zm0 0"/></clipPath><clipPath id="n"><path d="M213 480h3v.32813h-3zm0 0"/></clipPath><clipPath id="o"><path d="M220 479h8v1.32813h-8zm0 0"/></clipPath><clipPath id="p"><path d="M227 480h2v.32813h-2zm0 0"/></clipPath><clipPath id="q"><path d="M233 479h8v1.32813h-8zm0 0"/></clipPath><clipPath id="r"><path d="M246 478h9v2.32813h-9zm0 0"/></clipPath><clipPath id="s"><path d="M260 478h8v2.32813h-8zm0 0"/></clipPath><clipPath id="t"><path d="M274 477h6v3.32813h-6zm0 0"/></clipPath><clipPath id="u"><path d="M288 476h5v4.32813h-5zm0 0"/></clipPath><clipPath id="v"><path d="M302 476h3v4.32813h-3zm0 0"/></clipPath><clipPath id="w"><path d="M316 476h3v4.32813h-3zm0 0"/></clipPath><clipPath id="x"><path d="M326 478h8v2.32813h-8zm0 0"/></clipPath><clipPath id="y"><path d="M340 478h8v2.32813h-8zm0 0"/></clipPath><clipPath id="z"><path d="M353 479h8v1.32813h-8zm0 0"/></clipPath><clipPath id="A"><path d="M366 479h9v1.32813h-9zm0 0"/></clipPath><clipPath id="B"><path d="M366 479h3v1.32813h-3zm0 0"/></clipPath><clipPath id="C"><path d="M379 479h9v1.32813h-9zm0 0"/></clipPath><clipPath id="D"><path d="M380 479h2v1.32813h-2zm0 0"/></clipPath><clipPath id="E"><path d="M393 478h8v2.32813h-8zm0 0"/></clipPath><clipPath id="F"><path d="M407 478h7v2.32813h-7zm0 0"/></clipPath><clipPath id="G"><path d="M421 477h6v3.32813h-6zm0 0"/></clipPath><clipPath id="H"><path d="M435 476h4v4.32813h-4zm0 0"/></clipPath><clipPath id="I"><path d="M448 476h4v4.32813h-4zm0 0"/></clipPath><clipPath id="J"><path d="M461 477h5v3.32813h-5zm0 0"/></clipPath><clipPath id="K"><path d="M144 466h4v2h-4zm0 0"/></clipPath><clipPath id="L"><path d="M144 452h4v3h-4zm0 0"/></clipPath><clipPath id="M"><path d="M144 438h4v5h-4zm0 0"/></clipPath><clipPath id="N"><path d="M144 425h4v4h-4zm0 0"/></clipPath><clipPath id="O"><path d="M144 413h4v2h-4zm0 0"/></clipPath><clipPath id="P"><path d="M144 399h4v3h-4zm0 0"/></clipPath><clipPath id="Q"><path d="M144 385h4v4h-4zm0 0"/></clipPath><clipPath id="R"><path d="M144 372h4v4h-4zm0 0"/></clipPath><clipPath id="S"><path d="M144 357h3v7h-3zm0 0"/></clipPath><clipPath id="T"><path d="M144 343h3v8h-3zm0 0"/></clipPath><clipPath id="U"><path d="M144 331h4v6h-4zm0 0"/></clipPath><clipPath id="V"><path d="M465 331h3v2h-3zm0 0"/></clipPath><clipPath id="W"><path d="M144 318h4v5h-4zm0 0"/></clipPath><clipPath id="X"><path d="M466 318h2v3h-2zm0 0"/></clipPath><g id="Y" clip-path="url(#clip1)"><path fill="#fff" fill-opacity="0" fill-rule="evenodd" d="M0 0h1000v1000H0zm0 0"/><path fill="#d3d3d3" fill-opacity="0" fill-rule="evenodd" d="M162.15234 355.86719l-.23437.29297.0586.23437.11718.17188.17578.23437.29297.34766.11328.0586.11719-.17188.0586-.23438.17577-.17578.46485-.17578h.69922l.23437.29297.28906.8164.0586.17579.17578.23046.35156.23438.69922.69922.17188.17578.23437.34765.23438.41016.28906.58203.41015.46485.23047.23437.23438.17578.11719.23047.17578.29297.17187 1.16406v.23438l.0586.28906.05859.11719.11719.11719.34765.41015.11719.17188.17578.17578.17578.23437.11719.17188.17188.35156.05859.23438.23437.40625.23438-.0586-.17578.17578-.0586.92969h-.58203l-.23437-.11328-.34766.11328-.11719.11719-.05859.29297-.0586.17578-.11718.17187-.46484.29297-.0586.23438-.0586.11328v.64453l.0586.17187v.41016l.0586.0586v.40624l.05859.40625.11719.17579.05859.05859.23047.64062-.0586.29297v.69922l-.05859.58203v.23438l-.0586.23047-.05468.35156v1.92187l.05469.1172h.42578l-.36719.11718-.02344.35156.89063 1.16797 1.74219.53906 1.33984.35938v.53906l.08984.8086.53516.71484 1.51953.26953.89063-.08594.08984 1.16406.53516.1797 1.16015-.1797 2.05469-.98437 1.16016-.36328 1.8789-.17578 1.69531-.1797-.17968.71876-1.51563.08594-1.25.08984-.80469.26953-1.07421.8086.26953.71875.53515.89843-.17968.625-.26563.8086.26563 1.07812.625.89844.80468.17969 1.25-.1797-.26562.72267.09766.5039.05468.29297v.17188l.0586.29296v.40625l.17578.1172.35156.11718h.40625l.29297-.17578.11328-.11719.0586-.11719.11718-.23047.0586-.17578.35156-.46484.23047-.17578.17578-.0586.17578.0586.0586.17578.11718.98828.05469.46875.0586.17188.11718.23437.17578.0586.8164.05859h.28907l.11719.23437.05859.40625.0586.35156v1.10547l.11718.29297.11719.34766.28906.69922.17578.35156.58203.7539.35157.17579.17187.0586.46875.23437.64063.46484.34765.23438.29297.17578.29297.05468.23047.0625.8164.34766.29297.17578.11328.17188.35157.35156.11719.17578.52343.64063v.28906l.0586.35156v.34766l.05859.35156.0586.28906.11718.0586.17188.05859h.17578l.58203.23437.17578.1172.17578.28905.17578.23438.11328.23437.29297.23047.11719.11719v.41016l.0586.05468.28906.23438.23437.11719.0586.11718.11718.17188.0586.11719.23047.23437.05859.17578.23437.0586.1172.05859-.1172.11328-.05859.11719v.11719l-.11719.29296-.11719.28907v.58203l.17579.11719.11718.05859.0586.11719.11719.11719.11328.05859.17578.34765.0586.35157.05858.40625v.17578l-.05859.17578-.11719.69922v.17187l.1172.17579.29296.29296h.40625l.17578.1172.11719.17187.11719.29296v.23438h-.52735l-.23047-.23438h-.23437l-.17578.0586-.0586.69922.0586.34765.11719.17579.17578.41015.11718.23047.28907.46875.17578.05469h.52344l.23437.0586.75781.64062.0586.29296v.23438l.05859.0586.23047.34765v.35156l-.11719.17188v.29297l.29297.28906.29297.17578.17187.0586.29297.17577.29297.1172.58203.40624.28906.23438.29297.17578.21875.16015.01563.01172.23047.17579.64062.52343.17578.23438.1172.17578.17577.17578.11328.17188v.64062l.1172.17578.46874.11719.58203.11719.23438.05859.23047.11328.29297.11719.11328.0586.58593.35156.28907.17187.17578.0625.17578.05469.17578.0586.69922.35155.28906.17579.23438.05468.28906.17578.23437.1172.64063.40624.29297.11719.17187.0586.23438.05859.41015.05859.23047.0586.23438.11718.0586.17188-.41017.17578.46875.0586.0586.29296.11328.23438.17578.05468.23438.0586.17578.05859.40625.11719.64062.23437.11719.17188.0586.23437v.17578l-.0586.1172-.0586.40624.23438.23438.11719.05859.34766.11719.64062.23047.17578.11718.28906.1172.17578.17577.23438.46485.58203 1.10546.17578.17579.34766.17578.17578.11719.35156.11718 1.04688.52344.23437.0586.46485.11327.29297.0586.46484.17578.75781.58203.23438.23438.34765.46484.17578.17578.28907.23438.8164.69921.29297.17579.28906.28906.29297.17578.29297.28906.69531.64063.17578.17578.29297.23437.28907.23438.46875.28906.64062.58203.34766.23438.23437.29297.34766.34765.35156.46485.9336.99218.34765.40625.11719.17579.23437.05859.11328.11719.64454.17578.23047.11328.23437.0586.29297.17577.23047.1172.9336.69921.40624.40625.23438.17578.40625.17578.23437.11719.8164.34766.34766.23437.23438.11719.29297.28906.23047.11719.7578.35156.35157.17188.23047.05859.29297.11719.23437.0586.8711.17577h.8164l.46875.23047.17188.0586.875.69921.46484.1172.29297.05858.17578.0586.23047.0586.46875.05859.34766.05859.35156.0586.40625.05859h.29297l.17187.0586v.23046l.17578.17578h.29297l.34766.0586.35156.05859.69922.11719h.64063l.46484-.23438.29297-.17578.17187-.11719.41016-.17187.28906-.17578.9336-.46485.46875-.29297.52343-.29296.46485-.17188.46484-.17578 1.05078-.46485.28906-.11718.41016-.11719.28906-.11719.52735-.17578 1.51562-.69922.58203-.34765.28907-.0586.29297-.0586.34765-.11718.875-.23047.35156-.11719h.11329l.23437-.05859.875-.23437.23438-.0586h.8125l.35156-.0586.8164-.11718.17188-.0586.35156-.05468.29297-.0586.23047-.05859.8164-.17578.17579-.0586h.34765l.23438-.05859.46484-.11718.75781-.17188.23438-.0586h.34765l.41016-.11718.28906-.0586 1.28516-.05859h.28906l.41016-.0586.23047-.05858h.17578l.875-.1172h.40625l.41015-.11718h.34766l.35156-.11328.8711-.0586h1.75l1.04687.28907.41016.11719.28906.11718.35156.11719.28907.11719 1.05078.17187.28906.0586h.29297l.29297.05859.17187.0586.41016.05859.17187.0586.1172.05858h.11718l.11719.0586.35156.0586h.11328l.41016.0664 1.92187.39453 1.92578.39453 1.51953.44922 1.69532.71875 2.14453.80469 1.60547-.71875 1.42968-.80469 1.16016-1.07813 1.25-.44921 3.03516-.71875 1.875-.35938 2.14453-1.34765 2.23437-1.25391 2.5-1.25781 1.69531-.44922 1.78516-.17969 1.16016-.26953.625.53906 1.33984-.26953.71485-.98828.98437-1.34375.44531-.17969.80469-.35937 1.875-.53907 1.78516-.44921 1.25-.26954 1.16015-.08984 1.69922-.08984 1.96094-.26954 1.25-.08984h.53906l.625-.08984h.89063l2.14453-.17969 2.41015-.17969 2.58985-.08984 1.69531.17969 1.60938.08984 1.42968.35938 1.16016.71875 1.875.98828 1.16015 1.52734.26563.71484.6289.08985.35548.89844.53515.53906.53516 1.52734 1.07422.35938h.53515l-.80469.53515.08985 1.70703.71484 2.69532.89063.80468.89453.98829.71484 1.2578 1.78516.53907 1.51953-.17969.35547 1.34375 1.60937-.80469.98047-.53906.26953.26953.31641-.21484.21875-.14453.80078.44922.44922-.35938h.35547l.53515-.26953.53907-.71875.53515-.26953.625-.98828 1.16016.44922.83984.3711 1.39454.61718 1.6953-.17969h1.60548l1.78515.08985.17969-1.70704.53516-1.34375.80468.26954.4922.84765.40233.40625-.08984.53906v.35938l.71485.44922.71093-.26953h1.42969l.35938.98828.4453 1.25781.71485 1.34375 1.25.6289 1.69531.62891.71485-.17969.17969-.53906.98046-.08984.44922.35937.08594 1.25782-.26563.6289-.53515.17969v.53906l.71484.98438.26563.53906.98437.98828.80078 1.07813-.26562.35937-.08985.89844-.625 2.33203-.35546 2.0664-.08985 1.79298-.17969.71875-.08984.53906v1.4375l-.98047 1.88281-.35937 1.70703-.53516.89844-.80469 1.16797-.26562.53906 2.05469 1.2539.08593.35938-.35546.53906-.08985-.17968v.80859l.08985 1.4375-.44532.71484-1.07422.09375-.26562.71485.53515.89844.8047.71875 1.16015.80859 1.33984.26953.44531.35938-.35546.44921-1.78907-.08984-1.25-.44922-.71484-.71875-.625-.08984-.17578 3.58984-.1875 1.3086h89.35937V311.70313h-55.26953v49.08203l.76172.125 3.28906.54296 2.02344 2.83594v2.7539l2.35156.33204 2.34766.33203h4.05078l-1.3789 4.16016-2.02344.70703-2.02344.70312-.54297.34375-2.59375 1.6172-.1875.11718-2.02344-2.07813-.73046-2.74218-2.67188-2.07813-1.375-3.5-.0664-.08203-1.95704-2.67188 2.75-1.41796v-49.08204H294.42187v91.41407l.1172.03125.1328.01172.07422.07421.10547.04688.08985.0586.08593.05859.08985.0586.29687.29687.0586.08984.03125.11719.02734.11719.01563.13671-.03125.1172-.0586.08983-.0586.08594-.04296.10547-.04688.10156-.02734.1211v.14453l.17578.26953.14844.14844.07422.08594.07422.07421.04296.10547.0625.08985.0586.08593.04297.10547.0586.08985.04687.10156.04296.10547.0586.08594.11719.17968.07421.07422.0625.08594.0586.08984.04297.10547.0586.08985.05858.08593.0625.08985.0586.08984.04297.10156.11719.17969.07421.07422.0586.08594.07422.07421.08984.0586.10547.04687h.14844l.1328-.01562.13282.01562.10156-.04687.07422-.07422.04688-.10156-.01563-.13281v-.14844l-.04687-.10547-.02735-.11719-.04687-.10156-.02735-.1211-.04296-.10156-.0625-.08984-.04297-.10156-.04297-.10547-.03125-.11719-.01563-.13281-.01171-.13672.08593-.0586.0586-.08593.12109-.03125.04297.10547.01562.1328v.1172l.0586.10156.0586.08984.08983.0586.14844.14843.0586.08985.04296.10547-.01171.10156.08593.0586.10547.04687.08594.0586.08984.05858.07422.07422-.11719.02735-.10546.04687-.08594.0586-.07422.07421-.0586.08985-.0625.08594-.02734.12109-.04687.10156-.04297.10547-.03125.11719-.01172.13281-.01563.13281v.14844l.02735.11719.04687.10547.04297.10156.0586.08984.07421.07422.08985.0586.07422.07421.08984.0586.0586.08984.04296.10547.04688.10156.11719.03125.1328.01563h.14845l.11718-.03125.10547.04297.04297.10547.04688.10156.02734.1211L299.5 410l.02734.11719.03125.1211.02735.11718.10547.04297.10156.04687.13281-.01562.14844.14844.0625.08593.07422.07422.07031.07422.08984.0625.10547.04297.10156.04297.1172.03125.13671.01562.11719-.03125.07422-.07422.02734-.11718-.01172-.13282-.03125-.12109-.02734-.11719.04297-.10547h.11719l.08984.0625.11719.02735h.14843l.13282.01562h.14843l.13282.01563.1328-.01563h.14845l.1328-.01562.13282-.01172.13672.01172.11719-.02735.13281-.01562.1914-.0586-.05859.17579-.01562.1328-.02735.1211-.01562.13281-.0586.08594-.1328.01563-.10548.04687-.10546.04297-.1172.03125-.11718.02735-.26563.03125h-.14843l-.13281.01562-.07422.07422.05859.08594.14844.14843.11719.1797.07421.0703.08985.0625.08984.0586.08594.0586.08984.05858.10156.04297.10547.0625.10547.04297.08594.0586.10547.04687.10156.04297.17969.11719.0586.08984-.04298.10156-.04687.10547.01562.13281.22266.22266.0586.08985.04296.10156.03125.1211.04297.10155.01563.13282.03125.11718.01171.13672.03125.11719.14844.14844.10156.04297.10547.04296.1172.03125.1328.01563.13672.01563h.11719l.11719-.03125.08984-.0586.04297-.10547.04688-.10156.04296-.10547.03125-.11719.01172-.1328v-.14845l-.01172-.1328-.01562-.13282-.03125-.11719-.04297-.10547-.04688-.10547-.04296-.10156-.04297-.10547-.01563-.13281.01563-.13281.02734-.11719.03125-.11719.02735-.1211.04687-.10155.08984-.0586.08594-.0625.07422-.07422.08984-.05859.22266-.22266.0586-.08593.07421-.07422.11719-.17969.0586-.08594v-.14844l-.07423-.07421-.10156-.04688-.10547-.04297-.10156-.04297-.0586-.08984-.04687-.10547-.02734-.11719.08984-.05859.11719-.03125.10156-.04297.17969-.11719.14844-.14843.01172-.13282-.01172-.10546-.08985-.0586-.1328.01563h-.14845l-.1328.01562-.13282-.01562-.1211-.03125-.08593-.0586-.07422-.07422-.0586-.08984-.0625-.08594-.11718-.17969-.0586-.08593.03125-.1211.08594-.05859.1211-.03125.05859-.08594v-.1211l-.03125-.11718-.0586-.08984-.05859-.08594-.04687-.10547-.02735-.11719-.01562-.1328.0586-.08985.07421-.07422.08984-.0586.1172-.17968.07421-.07422.0586-.08594.14843-.14844.1211-.03125.1328-.01562.13282.01562.07422.07422.04297.10547.01562.13281-.03125.1172-.11719.03124-.1328.01172-.14844.14844-.04297.10547-.04688.10156-.02734.1211-.03125.11718v.14844l.03125.11719.04297.10546.05859.08985.07422.07031.07422.07422.11719.03125.12109.02734.11719-.02734.1328-.01563h.1172l.08984.0586.07422.07422.04687.10546.0586.08594.10156.04688.13281.01562.10547.04297.08594.0586-.01172.10546-.07422.07422-.17969.11719-.05859.08984-.08984.0586-.07032.07422-.07421.07421-.0625.08985-.02735.11719-.01562.1328.01562.13282-.01562.13281v.14844l.01562.13281.02735.1172.03125.12108.07421.07422.08985.0586.08594.0586.08984.05858.11719.03125v.08594l-.10157.04688-.08984.0586-.26563.03124-.11718.02735h-.14844l-.10547.04296-.10156.04688-.0586.08984-.0625.23438-.01171.13281-.03125.1211-.01563.1328v.29298l-.01172.1328.01172.13673.01563.1328.1328.01563.13282.01172.1211.03125.08593.0586.07422.07421.04688.10547.04296.10157.01563.1328v.44532l-.01563.13281v.44532l.03125.26562.02735.11719.01562.13281.03125.11719.08594.21094.03125.26562v.14844l-.03125.11719-.02734.11718-.03125.1211-.02735.11719-.03125.11718-.03125.1211-.01171.1328-.01563.13282.08984.0586.1172-.03125.10155.01562.04688.10547-.03125.26562v.44141l-.04297.10547-.04688.10547-.04296.10156-.04297.10547-.0586.08594-.03125.12109-.04296.11719-.03125.11719-.01563.1328.01563.13282.05859.08984.10547.04688.08594.0586.05859.08593-.01172.13672-.03125.11719-.04297.10156v.44531l-.01562.13281v.14844l-.03125.11719-.04297.10547-.02735.11719-.04687.10546-.04297.10157-.03125.12109-.02734.11719-.03125.13281-.03125.11719-.02735.11719-.04297.10546-.03125.1172-.03125.12108-.01171.13282-.01563.13281v.29688l.02734.11718v.14844l.04688.39844.02734.11719.0586.08984.12109.03125h.14844l.13281-.01563.0586.08985v.11719l-.0586.08984-.08984.0586-.10157.04296-.10546.04688-.08985.05859-.08594.0586-.13671.01562-.1172-.03125-.1328-.01563-.10157.04688-.0625.08594-.01172.13671-.01562.13282-.03125.11719-.02735.11718-.01562.13281-.03125.1211v.29687l.01563.13282.03125.11718v.14844l.01171.13281v.14844l-.02734.11719-.04688.10156-.02734.1211-.03125.11718-.0586.08985-.07421.07421-.10156.04297-.10547.04688-.11719.02734-.1211.03125-.10156-.04687.0586-.08594.10547-.04688.02734-.11718.03125-.11719.02734-.1211.03125-.11718v-.14844l.01563-.13281-.03125-.11719-.04297-.10547-.10547.01563-.07422.07422-.10156.04296-.08984.0625-.07422.07422-.04297.10157-.01563.1328-.03125.1172L304.25 426l-.03125.11719-.02734.11719-.03125.12109-.02735.11719-.03125.11718-.04297.10547-.08984.0586h-.08984l-.1172-.03125-.03124-.08594.01562-.13672-.03125-.11719v-.14844l-.01171-.1328v-.14844l-.0625-.23438-.02735-.1211-.04297-.10156-.04687-.10546-.0586-.08594-.05859-.08985-.04297-.10546-.0625-.08594-.14844-.14844-.0703-.07422-.10548-.04687-.10547-.04297-.10156-.04297-.29687-.29688-.08985-.07421-.08594-.0586-.10546-.04297-.08985-.0625-.08594-.0586-.10546-.04296-.08985-.0586-.08594-.0625-.07421-.0703-.10547-.04688-.08594-.0586-.10547-.04296-.08984-.0625-.10156-.04297-.10547-.04297-.08594-.0586-.10547-.04687-.10547-.04297-.10156-.04687-.08985-.0586-.10156-.04297-.10547-.04296-.08984-.0625-.11719-.02735-.13281-.01562-.13281.01562H299.75l-.13281.01563-.11719-.03125-.08984-.0586-.07422-.07422-.08985-.05859-.10156-.04688h-.14844l-.12109-.02734-.10156-.04297-.07422-.07422-.11719-.17968-.08984-.0586-.10156-.04297-.08985-.0625-.10547-.04296-.08984-.0586-.08594-.0586-.10547-.04687-.0586-.08594-.05858-.08984-.04297-.10547-.04688-.10156-.07422-.07422-.08594-.0586-.07421-.07421-.08985-.0586-.22265-.22265-.04297-.10547-.03125-.26563.10547-.04296h.14453l.10547.04296.07421.07422.08985.0586.08594.0586.10546.04687.08985.05859.14844.14844.0703.07422.14845.14843.0625.08594.07421.07422.08594.0586.07422.07421.08985.0625.08984.0586.08594.05859.26953.17578.10156.04688.10547.04296.10156.04297.04688-.07421.05859-.08594.07422-.07422.07031-.07422.10547.04297.07422.07422.0586.08984.04296.10156.04688.10547.04296.10547.1211.02735.11719-.02735.07421-.08984.04297-.10547.0586-.08985.07422-.07421.10546-.04297.1172-.02735.1328.01172.08985.0586.14844.14843.05859.08985.04297.10547.04687.10156.04297.10547.04297.10156.10547.04688.10547.04296.13281.01563.08594-.0586.0586-.08984.07421-.07422.10547-.04297.11719.02735.10547.04687.10156.04297.10547.04297.10156.04688.17969.11718v.11719l-.01563.13281.01563.13281.01562.13672.0586.08594.10156.04688.1211.02734.11718.03125h.14844l.11719-.03125.05859-.08984.17969-.1172.05859-.08983.07422-.07422.0586-.08594.11718-.17969.17969-.11719.11719.03125.08984.0586.04297.07422-.01563.1328v.1172l.08985.05859h.14843l.13282-.01563.1328-.01171.26563-.03125.10547-.04297.11719-.03125.1211-.02735.07421-.07421.07031-.07422.0625-.08985-.01562-.10547-.04688-.10156-.10156-.04297-.10547-.01562-.11718.02734-.26563.03125h-.14844l-.07421-.07422-.08985-.0586-.11719-.03124-.11718-.02735-.13282-.01562h-.14843l-.13282.01563h-.29687l-.10547-.04688-.14844-.14844-.04297-.10156-.05859-.08984.22266-.22266.08593-.0586.10547-.04296.11719-.03125.13281-.01563.13281.01563.13672.01562.10157.04297.1328-.01172.08985-.0625.10156-.04297.0625-.08984-.04687-.10156-.08984-.0586-.1172-.03125-.10155-.04296-.0586-.08985-.0625-.08984v-.11719l.01563-.13281.10547-.04688.07421-.07031v-.1211l-.08984-.05859-.03125-.11719.08985-.05859.07421-.07422.04297-.10547.0586-.08984.04687-.10156.01563-.13281v-.14844l-.04688-.10547-.04297-.10156-.08984-.0586-.13281-.01562-.10157-.04297-.13671-.01563-.1172-.03125h-.4453l-.13282-.01562-.13281-.01172-.13281-.01563-.11719-.03125h-.14844l-.13281-.01562-.13281-.01172-.26563-.03125-.1211-.04297-.08593-.0586-.07422-.07421v-.14844l.01172-.13281.10547-.04688.10156-.04296.13281-.01563h.15235l.13281-.01562h.29297l.1211.03125.10156.04296.08984.0586.23438.0625.12109-.04688.08984-.05859.10156-.04297.13282-.01562.10547.04296.10156.04688.13281.01172.1211-.02735h.14453l.12109-.03125.11719-.02734.10547-.04687.07421-.07422.08594-.0586.14844-.14843.0586-.08594.04687-.10547.02734-.11719.01563-.10547-.10156-.04296-.08985-.0586-.11719-.03125-.10546-.04297-.08985-.0625-.07422-.08594-.07422-.07421-.10156-.04297-.10547-.04688-.10156-.04297-.0586-.08984-.04687-.10156-.08594-.21094-.0625-.08594-.05859-.08984-.07422-.07422-.08594-.0586h-.26953l-.11719.03126-.08984.05859-.10156.04297-.13281.01562-.10547-.01562-.02735-.11719-.0625-.08984-.11718-.03125-.10157-.04297-.14843-.14844-.03125-.11719-.01563-.10546.07422-.07422.17969-.1172.11719-.02733.11718-.03125.13672.01562.10156.04297.10547.04297.10156.04687.10547.04297.1172.03125.1328.01563.1172.02734.1328.01563.10547-.01563.08985-.0586-.07422-.07421-.10547-.04297-.07422-.07422-.07422-.08984-.14844-.14844-.08593-.0586-.08985-.05859-.07422-.07422-.08984-.0586-.10156-.04687-.1211-.02734-.10156-.04688-.10547-.04296-.11719-.03125-.10156-.04297-.1211-.03125h-.14843l-.11719.03125-.10546.04297-.08594.0625-.17969.11718-.08594.0586-.08984.0586-.10547.04687-.08594.05859-.10547.04297-.10156.04297-.10547.04687-.07422.07422-.05859.08985-.0586.08593-.04687.10547-.0586.08594-.07421.07422-.13281-.01172-.1172-.03125h-.11718l-.07422.07422-.08984.0586-.07422.07421-.08984.0586-.08594.05859-.10547.04687-.10156.04297-.13672.01563-.10156-.04297-.14844-.14844-.10547-.04688h-.08594l-.10547.04688-.10156.04297-.1211.03125-.11718-.03125-.07422-.07422v-.11719l.03125-.1211.07422-.0703.0586-.08985.07421-.07422.11719-.03125.10547-.04296h.29297l.13281-.01563.13672-.01563.10156-.04296.08985-.0586.10156-.04687.08984-.0586.13281-.01171.08985.05859.13281.01172.08984-.0586.08594-.05859.10547-.04297.08984-.0586.08594-.0625.08985-.05859.14843-.14843.0586-.08594.05859-.08985.10547-.04296.13281-.01563.11719.02735.1211.03125.05859-.0586.05859-.08984.03125-.26563.02734-.11719.10547.01172.13281.01563.10157-.04297.08984-.0586.0586-.08984.07421-.07422.0586-.08984.04687-.10156.01172-.13281-.01172-.13282-.04687-.10547-.14844-.14843-.0586-.08985-.05859-.08594-.04297-.10546v-.44532l.01563-.1328v-.14845l.01172-.1328-.0586-.0586-.08984.0586-.10156-.04298-.17969-.11719-.08594-.05859-.0625-.08984-.0586-.08985-.07421-.07421-.08594-.0586-.1211.03125-.10155.01172-.10547.04688-.08594.05859-.10547.04297-.14844.14844-.08984.05859-.08594.0586-.08984.0625-.10547.04296-.13281.01563v-.1211l.10547-.04297.11718-.03125.07422-.0703.04297-.10548v-.14844l-.02734-.11718-.14844-.14844-.13281-.01563h-.14844l-.11719.03125-.10547.04297-.10156.04297-.08984.0625-.11719.02735-.07422-.07422.01172-.13281-.04297-.10157-.04297-.10547-.08984-.05859-.11719.02734-.1211.03125-.11718.03125-.10156.04297-.1211.03125-.10156.04297-.10547.04297-.08984.0586-.10156.01562v-.11719l.01562-.13281-.0586-.08985-.07421.04297-.14844.14844-.0586.08985-.07421.07421-.04688.10547-.04296.10156-.07422.07422-.0586.08985-.07422.07422-.05859.08593-.07422.07422-.08984.0625-.07422.07031-.07422.07422-.10156.01563-.13281.01562-.10547-.04296v-.1211l.14843-.14844.04297-.10156.0586-.08984.04687-.10156.04297-.10547.0586-.08985.03124-.11719.04297-.10156.03125-.1211.02735-.11718.04687-.10547.04297-.10156.04297-.10547.07422-.07031.08984-.0625.08985-.0586.10156-.04296h.29687l.26563-.03125.10547-.04297-.07422-.07422-.11719-.03125-.10547-.04297-.08984-.0586-.10156-.04687-.08985-.0586-.10156-.04296-.10547-.04297-.08984-.0625-.08594-.0586-.10547-.04296-.10156-.04297-.1211-.03125-.11718-.03125-.10157-.04297L297.5 410.25l-.10156-.04297-.08985-.0586-.04296-.10546-.01563-.13281.10156-.04297.13281-.01563.13672.01563.13282-.01563.10156-.04297.0586-.08984.01562-.10547-.08985-.0586-.07421-.07421-.10157-.04297-.08984-.0586-.14844-.14843-.04297-.10547-.01562-.13281v-.29297l-.0586-.08985-.08984-.05859-.07422-.07422-.04297-.10547-.03125-.11718-.0586-.08985-.07421-.07422-.11719-.02734-.07422-.07422-.08984-.0586-.08984-.0625-.08594-.05859-.07422-.07421-.0586-.08594-.04687-.10547-.08594-.0586-.14843-.14843-.19532-.0586-.1328.01563-.10157.04297-.07422.07422-.04688.10156-.04296.10547-.0586.08984-.0586.08594-.29687.29687-.08984.0586h-.08594l-.0625-.08594-.04297-.10547.03125-.11719.0586-.08984.02734-.11719-.01172-.13281-.08984-.0625-.10547.04688-.11719.02734-.11719.03125-.26953.17578-.10156.04688-.11719.02734-.10546.04687-.08985.0586-.10156.04297-.0586-.08594-.04687-.10547.01563-.13281.04687-.10547.07031-.07422.07422-.07031.0586-.08985v-.14843l-.04297-.10547h-.23829l-.10156.04687-.03125.11719-.02734.11719-.03125.1211-.07422.04296-.13281.01563-.07422-.04688-.04297-.10156-.04297-.10547-.04687-.10156-.04297-.10547-.1211.03125-.10156.04297-.13281.01562-.11719.03125-.10547.04297-.08984.0586-.10156.04687-.1211.02734-.13281.01563-.10156-.04297-.0586-.08985-.04687-.10546-.04297-.10157-.04297-.10546v-.1172l.0586-.08984.08593-.05859.17969-.11719.10156-.04687.10547-.04297.10547-.0586.10156-.04296.08985-.0625.10156-.04297.10547-.0586.10156-.04687.08984-.0586.10547-.04296.10156-.04297.08985-.0625.10156-.04297.13672-.01563.11719.03125.10156.04297.1211.03125.10156.04297.10546.04688.10157.04296.10547.04297.10156.04688.10547.04297.10156.04297.10547.04687.08594.0586.10546.04296.1172.03125.10546.04297.10156.04688.08985.0586.10547.04296.10156.04297.10547.04687.11719.02735.10156.04687.1211.02735h.14843l.08594-.0586.01562-.10156.0586-.08984-.02735-.1172-.07422-.07421-.11719-.17969-.07421-.07422-.08985-.07421-.17969-.1172-.08593-.05859-.10547-.04296-.10156-.04688-.26954-.17578-.05859-.08985-.07422-.07421-.0586-.08985-.04296-.10156-.03125-.11719-.01563-.13672v-.5625l-.01171-.1328-.01563-.13282-.03125-.11719-.01562-.13281-.01172-.13281-.03125-.1211-.22266-.22265-.0586-.08594-.01562-.10547.03125-.11719.13281-.01562v-91.41406H172.9922v1.45312l-.0586.23438-.35156 1.05078-.17187.52343-.1172.34766-.17577.41016-.11719.17187-.23438.29297-.23046.0586h-.35157l-.11718.05859-.23047.40625v.29297l.11719.17578.23046.23047.1172.23437.64062.75781.29297.46485.17578.23437.23047.35156.23437.34766.64063.8164.17578.46485.17187.41016.11719.69531.17578.46875.11719 1.39844.0586.46484v.875l.11718 1.04688v4.78125l-.0586.46484-.35156 1.28125-.17578.52344-.11328.41015-.35156.9297L172.93359 336l-.23437.58203-.11719.17578-.17187.34766-.17578.40625-.35157.8164-.0586.29297-.11327.29297-.11719.28906-.0586.17579-.11718.875-.0586.40625-.05859.11718-.0586.17579-.05859.17187-.23047.52734-.11718.17188v.23437l-.11719.23438-.0586.17187-.17577.58594v.28906l-.0586.17579v.29296l-.0586.11329-.05859.52734v.17187l-.05468.23438v2.6211l-.17578.8164-.1172.17578-.17577.23438-.1172.17187-.11327.23438-.58594.93359-.23047.28906-.29297.46485-.17578.23437-.28906.35156-.35156.69922-.11328.23047-.17579.41016-.17578.23046-.40625.52735-.8164.69922-.29297.17187-.28906.23438-.17579.11719-.17578.17578-.52344.40625-.52734.17578-.17187.17578-.23438.05469-.64062.17578h-.75782m12.21094 31.02344l-1.07422.44921.35938.89454 1.25-.71485.44531-.53906-.98047-.08985"/><path fill="#d3d3d3" fill-opacity="0" fill-rule="evenodd" d="M201.50781 416.59766h-.89453l.44922.6289.98047.35938.80469-.08985.4453-.98828-.17577.08985-.71485-.35547-.89453.35547m154.6211 59.0703l-.0586-.52343v-.29297l.11328-.29297.0586-.23046.46875-.46875h.11328l.11719-.11329.11718-.05859h.17579l.23437-.0586h.34766l.23437.0586.11719.0586.23047.17187.0586.17578.11718.58203v.29297l-.11719.17578-.17187.28906-.17579.17579-.52734.52343-.23047.23438-.11719.0586h-.17578l-.11718-.0586-.40625-.29297-.17579-.11719-.11718-.0586-.0586-.11327-.05468-.1172m6.64062-10.95702l-.0586-.17188v-1.10937l.0586-.17188.17578-.0586.17188-.05858h.17578l.23437-.0586.1172.0586.05858.69921-.05859.17188-.11719.17578-.11718.0586-.23438.52343-.11328.0586h-.23438l-.05859-.1172m9.61328-14.39062l-.11719-.17578v-.69922l.29297-.875.1172-.17187.17577-.35156.11328-.23047.1172-.29297.35155-.75781.1172-.23047.17187-.23438h.17578l.11719-.0586h.64062l.11719.0586.23437.23438.17188.11328.35156.29297.11719.11718.11328.17579v.11328l.11719.05859.11718.11719v.69922l-.05859.17578v.23047l-.0586.17578-.34765 1.05078-.11719.23047-.11719.23437-.11718.0586-.23047.23437-.64063.28906h-.875l-.41015-.11718-.64063-.46485"/><path fill="none" stroke="#bebebe" stroke-linecap="round" stroke-linejoin="round" stroke-miterlimit="10" stroke-width=".5" d="M467.95703 311.69531H144.02734v168.625h323.9297v-168.625"/><g clip-path="url(#a)"><path fill="#fff" fill-opacity="0" fill-rule="evenodd" d="M144 475.89063v4.4375h.0039H144V311.67188h.0039H144v164.21875"/></g><g clip-path="url(#b)"><path fill="#fff" fill-opacity="0" fill-rule="evenodd" d="M144.0039 480.32813V311.67188h8.8711v128.54296l-.2461.16797.2461.10547.34766-.10547-.34766-.16797V311.67188h48.82422v103.66796l-4.4375 2.1836-4.4414.41015-.3711.25782-4.0664 3-1.84766 1.4375-2.58985 4.0078-.57422.4336-3.86328 4.14844-1.34765.28906-3.09375.13672-2.61328-.13672-1.82422-.44531-4.4375-.47656-1.34375.92187-3.09375 1.2539-2.73047 3.1836-1.3711 4.4375.14453 4.4375.1211 4.4414.0664 4.4375-.29296 4.4375 1.25 4.4375 2.8125 2.64454 4.4375.1289 4.4375 1.29688 2.23437.3711 2.20313 2.32812 1.34375-2.32813 3.09765-.87109 4.4375.19922 4.4375-.23047 4.4375-.8164 4.4414-1.0547 2.39845-1.66796 2.03906-.92188 4.4375-3.02343 3.23828-.4922 1.19922-1.3789.98437-3.0586 3.45703-.8125 4.4375-2.23046 4.4375.0664 1.9922-1.46093 2.4453-1.14844 3.94532-3.29297.49219-1.48828 1.32421-2.94922-1.32422-1.07812-1.28906-3.35938-3.14844-3.72265-.41015-.71485-4.02734-4.25-4.4375.41797-.78907-.60547-2.83203-4.4414.26953-4.4375-1.08594-.29688-.8828.29688-3.5586.40234-4.4375.1211-1.65234-.52344-2.78516-2.85157V311.67188h31.0664v105.55859l-3.3789.96094 3.29297 4.4375.08594.0664 4.4414 2.03125 1.79688-2.09765-1.79688-3.7422-1.1914-.6953-3.25-.96094v-105.5586h142.02734v137.34375l-.125.2461.125.23828.10937-.23828-.10937-.2461V311.67188h8.8789v136.5625l-1.09375 1.02735 1.09375 1.53125 2.15235-1.53125-2.15235-1.02735v-136.5625h84.32422v168.65625H144.00391"/></g><path fill="#50fcfc" fill-rule="evenodd" d="M152.875 440.48828l-.2461-.10547.2461-.16797.34766.16797-.34766.10547m4.92188 4.33203l-.14454-4.4375 1.3711-4.4375 2.73047-3.1836 3.09375-1.2539 1.34375-.92187v3.86328l-2.50782 1.4961-1.92968 1.14843-2.04688 3.28906-.91016 4.4375.25 4.4414.09766 4.4375.67969 4.4375 1.92969 3.28126 4.4375-.55078 4.26562 1.70703.17188.08203.33203-.08203 2.20703-4.4375 1.89844-1.03125 1.96484 1.03125 2.47656 3.47265 2.79297.96485 1.64453.27734 4.4375.33594 1.73047-.61328 2.70703-1.10547 4.23047-3.33203.21094-.57813 2.3164-3.85937-2.3164-1.57813-4.4414-2.08203-1.1211-.77734-3.3164-3.5625-1.48048-.8789-2.89453-4.4375-.0625-.28126-2.77344-4.15625-1.66406-.41797-4.4414.26563-4.4375-.65625-4.4375-.6875v-3.86328l4.4375.47656 1.82422.44531 2.61328.13672 3.09375-.13672 1.34765-.28906 3.86328-4.14844.57422-.4336 2.58985-4.0078 1.84765-1.4375 4.0664-3 .3711-.25782 4.4414-.41015 4.4375-2.1836v3.77735l-4.4375 1.2461-4.4414 1.45702-.9375.8086-3.5 3.77343-.5625.66797-1.35547 4.4375 1.91797 3.14844 3.46094 1.28906.97656.32031v8.4961l-.01562.0586.01562.02343.0664-.02344-.0664-.0586v-8.49608l4.4414 4.0039.36329.11328 4.07422 1.53906 4.4375.40625v5.9961l-3.42578.9375 3.42578 1.41797 1.47656-1.41797-1.47656-.9375v-5.9961l3.8789 2.4922.5586.3203 4.4414 1.7461 4.4375.09375 4.4375-.26172 2.85938-1.89844 1.57813-2.79297.84765-1.64453-.21094-4.4375-.63672-.75-2.11328-3.6875-2.32422-2.45312-4.4375.125-2.74218-2.10938-1.69531-2.20312-2.875-2.23828-1.56641-1.3125-4.4375-1.23047-4.4375-.96875v-3.77735l2.78516 2.85157 1.65234.52343 4.4375-.12109 3.5586-.40234.8828-.29688 1.08594.29688-.26953 4.4375 2.83203 4.4414.78906.60547 4.4375-.41797 4.02735 4.25.41016.71485 3.14843 3.72265 1.28906 3.35938 1.32422 1.07812-1.32422 2.94922-.49218 1.48828-3.94531 3.29297-2.44532 1.14844-1.99219 1.46094-4.4375-.06641-4.4375 2.23047-3.45703.8125-.98437 3.0586-1.19922 1.3789-3.23828.49219-4.4375 3.02343-2.03906.92188-2.39844 1.66797-4.4414 1.05469-4.4375.8164-4.4375.23047-4.4375-.19922-3.09766.8711-1.34375 2.32812-2.20313-2.32813-2.23437-.37109-4.4375-1.29687-4.4375-.12891-2.8125-2.64453-1.25-4.4375.29297-4.4375-.06641-4.4375-.1211-4.4414"/><path fill="#00e8fc" fill-rule="evenodd" d="M159.04688 449.26172l-.25-4.4414.91015-4.4375 2.04688-3.28907v4.8086l-1.29297 2.91796.47265 4.4414.14063 4.4375.67969 1.9297 3.49218-1.9297.94532-.78515 2.61328.78516 1.82422.38672.94922-.38672-.30079-4.4375-.64843-3.23828-4.4375.6836-1.31641-1.88673-3.1211-2.91797v-4.80859l1.9297-1.14844 2.5078-1.4961 4.4375.6875 4.4375.65626 4.44141-.26563 1.66406.41797 2.77344 4.15625.0625.28125 2.89453 4.4375 1.48047.8789 3.3164 3.5625 1.1211.77735 4.4414 2.08203 2.31642 1.57813-2.31641 3.85937-.21094.57813-4.23047 3.33203-2.70703 1.10547-1.73047.61328-4.4375-.33594-1.64453-.27734-2.79297-.96485-2.47656-3.47265-1.96484-1.03125-1.89844 1.03125-2.20703 4.4375-.33203.08203-.17188-.08203-4.26562-1.70703-4.4375.55078-1.9297-3.28125-.67968-4.4375-.09766-4.4375"/><path fill="#00d4fc" fill-rule="evenodd" d="M160.9336 449.26172l-.47266-4.4414 1.29297-2.91798 3.12109 2.91797 1.3164 1.88672 4.4375-.6836.64844 3.23829.30078 4.4375-.94921.38672-1.82422-.38672-2.61328-.78516-.94532.78516-3.49218 1.92969-.6797-1.9297-.14062-4.4375"/><path fill="#00e8fc" fill-rule="evenodd" d="M188.38281 434.65625l-1.91797-3.14844 1.35547-4.4375.5625-.66797 3.5-3.77343.9375-.8086 4.4414-1.45703 4.4375-1.2461 4.4375.96876v2.28906l-1.64452.2539-2.79297 1.1797-4.4375 2.14843-1.38281 1.11328 1.3828 3.83203.48438.60547 3.95313 1.71094 4.4375-.51953 2.55469-1.1914 1.8828-1.20313 1.75-3.23438-1.75-1.35547-3.83202-3.08593-.60547-.25391v-2.28906l4.4375 1.23047 1.5664 1.3125 2.875 2.23828 1.69532 2.20312 2.74219 2.10938 4.4375-.125 2.32421 2.45312 2.11328 3.6875.63672.75.21094 4.4375-.84766 1.64453-1.57812 2.79297-2.85938 1.89844-4.4375.26172-4.4375-.09375-4.4414-1.7461-.5586-.3203-3.8789-2.4922-4.4375-.40625-4.07422-1.53906-.36328-.11328-4.4414-4.0039-.97657-.32032-3.46094-1.28906"/><path fill="#fff" fill-opacity="0" fill-rule="evenodd" d="M192.82031 444.76172l-.01562.0586.01562.02343.0664-.02344-.0664-.0586"/><path fill="#00d4fc" fill-rule="evenodd" d="M197.26172 430.90234l-1.38281-3.83203 1.3828-1.11328 4.4375-2.14844 2.79298-1.17968 1.64453-.25391.60547.2539 3.83203 3.08594 1.75 1.35547-1.75 3.23438-1.88281 1.20312-2.5547 1.1914-4.4375.51954-3.95312-1.71094-.48437-.60547"/><path fill="#fff" fill-opacity="0" fill-rule="evenodd" d="M206.13672 448.32422l-3.42578.9375 3.42578 1.41797 1.47656-1.41797-1.47656-.9375"/><path fill="#50fcfc" fill-rule="evenodd" d="M232.67969 422.6289l-3.29297-4.4375 3.3789-.96093 3.25.96094 1.19141.6953 1.79688 3.7422-1.79688 2.09765-4.4414-2.03125-.08594-.0664M374.79297 449.5l-.125-.23828.125-.2461.10937.2461-.10937.23828m8.8789 1.29297l-1.09375-1.53125 1.09375-1.02735 2.15235 1.02735-2.15235 1.53125"/><g clip-path="url(#c)"><path fill="#fff" fill-opacity="0" fill-rule="evenodd" d="M467.9961 480.32813H468V311.67188h-.0039H468v168.65625h-.0039"/></g><path fill="#fff" fill-opacity="0" fill-rule="evenodd" d="M218.89844 430.80078l5.46875 2.05469 3.5-9.32813-5.47266-2.05078-3.4961 9.32422"/><path fill-rule="evenodd" d="M225.02734 424.42188l.47657.17968-2.21094 5.89063-.73438-.27344 1.57422-4.20313-1.29687-.48828.19531-.51953.54688.13281.2539.03907.2461-.0039.23828-.0586.23828-.13672.23437-.22656.23828-.33204"/><g clip-path="url(#d)"><path fill="none" stroke="#000" stroke-linecap="round" stroke-linejoin="round" stroke-miterlimit="10" stroke-width=".5" d="M147.48047 480.8164l-6.96094-.97265"/></g><g clip-path="url(#e)"><path fill="none" stroke="#000" stroke-linecap="round" stroke-linejoin="round" stroke-miterlimit="10" stroke-width=".5" d="M147.48047 480.8164l.83984 2.3047"/></g><g clip-path="url(#f)"><path fill="none" stroke="#000" stroke-linecap="round" stroke-linejoin="round" stroke-miterlimit="10" stroke-width=".5" d="M160.74219 481.10156l-6.85547-1.54687"/></g><g clip-path="url(#g)"><path fill="none" stroke="#000" stroke-linecap="round" stroke-linejoin="round" stroke-miterlimit="10" stroke-width=".5" d="M160.74219 481.10156l.64844 2.36719"/></g><g clip-path="url(#h)"><path fill="none" stroke="#000" stroke-linecap="round" stroke-linejoin="round" stroke-miterlimit="10" stroke-width=".5" d="M174.01953 481.25781l-6.77734-1.85937"/></g><g clip-path="url(#i)"><path fill="none" stroke="#000" stroke-linecap="round" stroke-linejoin="round" stroke-miterlimit="10" stroke-width=".5" d="M187.42969 480.78906l-6.96875-.92187"/></g><g clip-path="url(#j)"><path fill="none" stroke="#000" stroke-linecap="round" stroke-linejoin="round" stroke-miterlimit="10" stroke-width=".5" d="M187.42969 480.78906l.85547 2.30078"/></g><g clip-path="url(#k)"><path fill="none" stroke="#000" stroke-linecap="round" stroke-linejoin="round" stroke-miterlimit="10" stroke-width=".5" d="M200.76172 480.64063l-7-.625"/></g><g clip-path="url(#l)"><path fill="none" stroke="#000" stroke-linecap="round" stroke-linejoin="round" stroke-miterlimit="10" stroke-width=".5" d="M200.76172 480.64063l.95312 2.26171"/></g><g clip-path="url(#m)"><path fill="none" stroke="#000" stroke-linecap="round" stroke-linejoin="round" stroke-miterlimit="10" stroke-width=".5" d="M214.08203 480.57031l-7.01172-.48047"/></g><g clip-path="url(#n)"><path fill="none" stroke="#000" stroke-linecap="round" stroke-linejoin="round" stroke-miterlimit="10" stroke-width=".5" d="M214.08203 480.57031l1 2.23828"/></g><g clip-path="url(#o)"><path fill="none" stroke="#000" stroke-linecap="round" stroke-linejoin="round" stroke-miterlimit="10" stroke-width=".5" d="M227.3164 481.10156l-6.85156-1.54687"/></g><g clip-path="url(#p)"><path fill="none" stroke="#000" stroke-linecap="round" stroke-linejoin="round" stroke-miterlimit="10" stroke-width=".5" d="M227.3164 481.10156l.64844 2.36719"/></g><g clip-path="url(#q)"><path fill="none" stroke="#000" stroke-linecap="round" stroke-linejoin="round" stroke-miterlimit="10" stroke-width=".5" d="M240.58203 481.30469l-6.75-1.95313"/></g><g clip-path="url(#r)"><path fill="none" stroke="#000" stroke-linecap="round" stroke-linejoin="round" stroke-miterlimit="10" stroke-width=".5" d="M253.84766 481.46094l-6.65235-2.26172"/></g><g clip-path="url(#s)"><path fill="none" stroke="#000" stroke-linecap="round" stroke-linejoin="round" stroke-miterlimit="10" stroke-width=".5" d="M267.17578 481.41406l-6.6836-2.17187"/></g><g clip-path="url(#t)"><path fill="none" stroke="#000" stroke-linecap="round" stroke-linejoin="round" stroke-miterlimit="10" stroke-width=".5" d="M279.48438 482.95703l-4.66797-5.2539"/></g><g clip-path="url(#u)"><path fill="none" stroke="#000" stroke-linecap="round" stroke-linejoin="round" stroke-miterlimit="10" stroke-width=".5" d="M291.9336 483.51953l-2.9375-6.38281"/></g><g clip-path="url(#v)"><path fill="none" stroke="#000" stroke-linecap="round" stroke-linejoin="round" stroke-miterlimit="10" stroke-width=".5" d="M302.96484 476.91016l1.63282 6.83593"/></g><path fill="none" stroke="#000" stroke-linecap="round" stroke-linejoin="round" stroke-miterlimit="10" stroke-width=".5" d="M303.20313 477.90625l.91796-.8125"/><g clip-path="url(#w)"><path fill="none" stroke="#000" stroke-linecap="round" stroke-linejoin="round" stroke-miterlimit="10" stroke-width=".5" d="M316.3125 476.90234l1.5664 6.85157"/></g><path fill="none" stroke="#000" stroke-linecap="round" stroke-linejoin="round" stroke-miterlimit="10" stroke-width=".5" d="M316.53906 477.90234l.92969-.80468"/><g clip-path="url(#x)"><path fill="none" stroke="#000" stroke-linecap="round" stroke-linejoin="round" stroke-miterlimit="10" stroke-width=".5" d="M327.22656 478.84375l6.36719 2.96875"/></g><path fill="none" stroke="#000" stroke-linecap="round" stroke-linejoin="round" stroke-miterlimit="10" stroke-width=".5" d="M328.15234 479.27734l-.0625-1.22656"/><g clip-path="url(#y)"><path fill="none" stroke="#000" stroke-linecap="round" stroke-linejoin="round" stroke-miterlimit="10" stroke-width=".5" d="M340.54688 478.83594l6.35937 2.98437"/></g><path fill="none" stroke="#000" stroke-linecap="round" stroke-linejoin="round" stroke-miterlimit="10" stroke-width=".5" d="M341.46875 479.26953l-.0586-1.22265"/><g clip-path="url(#z)"><path fill="none" stroke="#000" stroke-linecap="round" stroke-linejoin="round" stroke-miterlimit="10" stroke-width=".5" d="M353.67188 479.33984l6.73828 1.98047"/></g><g clip-path="url(#A)"><path fill="none" stroke="#000" stroke-linecap="round" stroke-linejoin="round" stroke-miterlimit="10" stroke-width=".5" d="M366.85156 480.60156l7.00781-.54687"/></g><g clip-path="url(#B)"><path fill="none" stroke="#000" stroke-linecap="round" stroke-linejoin="round" stroke-miterlimit="10" stroke-width=".5" d="M367.8711 480.52344l-.65626-1.03516"/></g><g clip-path="url(#C)"><path fill="none" stroke="#000" stroke-linecap="round" stroke-linejoin="round" stroke-miterlimit="10" stroke-width=".5" d="M380.16797 480.59766l7.00781-.53907"/></g><g clip-path="url(#D)"><path fill="none" stroke="#000" stroke-linecap="round" stroke-linejoin="round" stroke-miterlimit="10" stroke-width=".5" d="M381.1875 480.51953l-.65625-1.03515"/></g><g clip-path="url(#E)"><path fill="none" stroke="#000" stroke-linecap="round" stroke-linejoin="round" stroke-miterlimit="10" stroke-width=".5" d="M393.65625 479.20313l6.66016 2.25"/></g><path fill="none" stroke="#000" stroke-linecap="round" stroke-linejoin="round" stroke-miterlimit="10" stroke-width=".5" d="M394.625 479.53125l-.19922-1.21094"/><g clip-path="url(#F)"><path fill="none" stroke="#000" stroke-linecap="round" stroke-linejoin="round" stroke-miterlimit="10" stroke-width=".5" d="M407.26953 478.55469l6.0664 3.54687"/></g><g clip-path="url(#G)"><path fill="none" stroke="#000" stroke-linecap="round" stroke-linejoin="round" stroke-miterlimit="10" stroke-width=".5" d="M421.44531 483.09375l4.33985-5.52734"/></g><g clip-path="url(#H)"><path fill="none" stroke="#000" stroke-linecap="round" stroke-linejoin="round" stroke-miterlimit="10" stroke-width=".5" d="M435.78125 483.64844l2.30078-6.64063"/></g><g clip-path="url(#I)"><path fill="none" stroke="#000" stroke-linecap="round" stroke-linejoin="round" stroke-miterlimit="10" stroke-width=".5" d="M448.90234 483.57422l2.69141-6.49219"/></g><g clip-path="url(#J)"><path fill="none" stroke="#000" stroke-linecap="round" stroke-linejoin="round" stroke-miterlimit="10" stroke-width=".5" d="M461.41016 483.10547l4.30468-5.55469"/></g><g clip-path="url(#K)"><path fill="none" stroke="#000" stroke-linecap="round" stroke-linejoin="round" stroke-miterlimit="10" stroke-width=".5" d="M147.48047 467.50781l-6.96094-.98828"/></g><path fill="none" stroke="#000" stroke-linecap="round" stroke-linejoin="round" stroke-miterlimit="10" stroke-width=".5" d="M147.48047 467.50781l.83594 2.30469m12.3125-1.63672L154 465.85156m6.6289 2.32422l.3711 2.42578m12.9414-2.41015l-6.62109-2.35547m6.6211 2.35547l.35547 2.42968m13.03515-2.67187l-6.77344-1.8711m6.77344 1.8711l.53516 2.39453m12.78906-2.42969l-6.79297-1.80078m6.79297 1.80078l.5586 2.39063m12.82812-2.73438l-6.9375-1.11328m6.9375 1.11328l.79687 2.32032m12.5625-2.72266l-7.02343-.3086m7.02343.3086l1.0547 2.21484m12.2539-2.10547l-7.00781-.52734m7.0078.52734l.98438 2.2461m12.1211-1.28906l-6.58985-2.44141m5.6289 2.08594l.16407 1.21484m14.14063-.9375l-6.64844-2.28516m5.67969 1.95313l.1914 1.21094m14.11719-.95703l-6.69922-2.12891m5.72266 1.82031l.22265 1.20703m13.06641-4.57812l-4.6914 5.23047m4.0078-4.46875l1.19141.29297m10.77735-1.9375l-.63282 6.99609m.53907-5.98047l1.1328-.47656m11.67188-.54297l.57422 7.0039m-.48828-5.98437l1.03125-.66406m11.0039-.03906l2.96095 6.37109m-2.53125-5.44531l.74218-.97657m12.14453.05078l2.96094 6.3711m-2.53125-5.44531l.73828-.97657m12.9336-.20703l1.38672 6.88672m-1.1875-5.88672l.94921-.77734m10.51563.60156l4.6875 5.23828m7.46484-2.8086l7.01563.37891m-5.9961-.32421l-.51562-1.10938m13.35937-.64844l5.91797 3.78516m-5.0586-3.23438l.10157-1.22265m11.82813 3.01953l6.96875-.91016m-5.95313.77735l-.71094-1m18.95704-1.82813l-4.92188 5.01172m13.59766-5.26172l4.35547 5.51172m9.0625-5.59375l4.14843 5.67578m13.34375-5.65234l-4.20703 5.6289"/><g clip-path="url(#L)"><path fill="none" stroke="#000" stroke-linecap="round" stroke-linejoin="round" stroke-miterlimit="10" stroke-width=".5" d="M147.46094 454.3125l-6.92188-1.22656"/></g><path fill="none" stroke="#000" stroke-linecap="round" stroke-linejoin="round" stroke-miterlimit="10" stroke-width=".5" d="M147.46094 454.3125l.7539 2.33594m12.14453-1.1914l-6.08593-3.51563m6.08594 3.51562l-.08985 2.44922m12.69922-1.58594l-4.67969-5.24219m4 4.48047l-.42578 1.14844m14.7539-.72656l-5.34374-4.5625m4.5664 3.89844l-.26562 1.1953m14.53516-.7539l-5.69532-4.11719m4.86328 3.51563l-.16797 1.21875m14.58204-1.05469l-6.23047-3.2461m5.32422 2.77735l.0078 1.22656m14.15626-.65234l-6.11719-3.45312m5.22656 2.94921l-.02734 1.22657m14.6836-2.63282l-7.01954.36329m5.9961-.3086l.6328 1.05078m13.70313-.73047l-7.01562-.3828m5.9961.32812l.51562 1.11328m13.71875-.38672l-6.8125-1.72656m5.82031 1.47656l.29297 1.1914m13.625-3.60937L274.13672 455.5m5.15234-3.07813l1.05078.63282m11.6797-2.50781l-3.10938 6.30078m2.65625-5.38282l1.22656-.03906m11.0664-1.23828l-.15625 7.02344m.13282-6.0039l1.09765-.55079m11.95313-.46484l.41797 7.01562m-.35938-5.9961l1.04688-.64062m12.4414-.38672l-.04297 7.02735m.03516-6.0039l1.08594-.57032m11.99219-.44531l.4453 7.01172m-.3828-5.9922l1.04687-.64062m12.78906-.36719l-.72265 6.9922m.61718-5.97266l1.13672-.46094m10.2461-.15234l3.35547 6.17578m-2.8672-5.27735l.67579-1.01953m11.98047.22266l3.69531 5.97656m-3.16016-5.10937l.6211-1.0586m11.01172 1.33985l5.98828 3.67968m-5.11719-3.14453l.07813-1.22656m11.95312 1.67187l6.8125 1.71875m-5.82031-1.46875l-.29297-1.1914m12.60156 1l6.84375 1.60156m-5.84765-1.36719l-.31641-1.1875m12.54687 1.94922l7.01954-.39062m-5.9961.33203l-.63672-1.04688M446.98437 455l6.52344-2.60547M446.98437 455l-1.875-1.58203m19.80079-2.96485l-2.69532 6.4922m2.30078-5.54688l1.22266-.11719"/><g clip-path="url(#M)"><path fill="none" stroke="#000" stroke-linecap="round" stroke-linejoin="round" stroke-miterlimit="10" stroke-width=".5" d="M147.05078 442.125l-6.10156-3.48438"/></g><path fill="none" stroke="#000" stroke-linecap="round" stroke-linejoin="round" stroke-miterlimit="10" stroke-width=".5" d="M147.05078 442.125l-.07422 2.45313m13.1289-2.0625l-5.58202-4.26563m4.76953 3.64453l-.19922 1.21094m13.08984.42969l-3.10547-6.3047m2.65235 5.38673l-.71484.9961m13.89843.14843l-1.9414-6.7539m1.66015 5.76952l-.88281.85157m12.6289.15625l1.76173-6.8047m-1.50391 5.81642l-1.1914.28515m13.39452.35547l3.46875-6.10937m-2.96484 5.22265l-1.22266-.03515m14.23047 1.02734l3.07813-6.3164m-2.6289 5.39452l-1.22657.04297m12.17187-1.65625l6.91797-1.25m6.64844 2.05469l6.41797-2.85937m-5.48438 2.4453l-.96875-.7539m16.60157 3.2539l-.08985-7.02734m10.04688 4.6797l6.6289-2.33595m8.85938-2.15234l2.28516 6.64453m-1.95313-5.67969l.83594-.89453m13.45312-.25781l-.32812 7.01953m.28125-6l1.10937-.52344m11.13282-.36718l1.91015 6.76172m-1.63281-5.77735l.88672-.85156m13.0664-.26563l.07813 7.02735m-.0664-6.00781l1.07812-.58594m12.1211-.4336l.28515 7.02344m-.24219-6l1.0586-.6211m11.0703-.16015l2.57423 6.53906m-2.19922-5.58593l.79687-.9336m13-.23828l.85938 6.97656m-.73438-5.96093l1.00781-.70313m9.54297 1.46485l6.14063 3.42187m-5.2461-2.92187l.02344-1.22657m13.19531-.24218l4.54297 5.35937m-3.88281-4.57812l.45313-1.14063m13.25-.2539l2.4453 6.58593m-2.08984-5.6289l.81641-.91407m12.1836-.0586l2.36718 6.6172m-2.02344-5.65235l.82813-.91015m9.84766 2.74609l6.95703 1.01563m-5.94532-.8672l-.41015-1.15624m13.40625 3.66015l5.57031-4.28515m-4.75781 3.66015l-1.11719-.5078m18.66016 1.68358l-4.50782-5.39062"/><g clip-path="url(#N)"><path fill="none" stroke="#000" stroke-linecap="round" stroke-linejoin="round" stroke-miterlimit="10" stroke-width=".5" d="M147.23047 428.44531l-6.46094-2.7539"/></g><path fill="none" stroke="#000" stroke-linecap="round" stroke-linejoin="round" stroke-miterlimit="10" stroke-width=".5" d="M147.23047 428.44531l.21094 2.44531m12.78125-1.84765l-5.8125-3.94922m4.96484 3.375l-.13281 1.21875m12.96875.51953l-3.16406-6.27734m2.70312 5.36328l-.70703 1m11.60156.03906l2.60156-6.52734m-2.22265 5.57812l-1.21875.13282m12.16406-1.21875l6.58203-2.45704m-5.625 2.09766l-.91797-.8125m13.10156.52344l6.9297-1.16016m-5.92188.99219l-.7461-.97656m13.08203 1.28515l6.875-1.4414m-5.875 1.23047l-.78515-.94141m13.20703 1.5586l6.66016-2.25m-5.69141 1.92187l-.89063-.84375m13.58594 1.90625l5.96094-3.72266m-5.09375 3.17969l-1.0625-.61328m14.03906 1.8125l4.90235-5.03516m-4.1875 4.30078l-1.1797-.33984m13.75392 1.04687l4.95703-4.98046m-4.23438 4.2578l-1.17578-.35546m12.98047-2.70313l6.53515 2.58204m7.5-3.71094l5.09375 4.83984m10.5625-5.92578l.41016 7.01172m-.35156-5.99219L318 423.94531m12.20313-.38281l.41406 7.01172m-.35156-5.99219l1.04687-.64062m11.67578-.3086l1.47656 6.8711m-1.26171-5.8711l.9375-.78906m10.3203.83984l5.16016 4.76954m-4.41015-4.07813l.3164-1.1836m12.44922.29298l4.75781 5.16796m-4.0664-4.41796l.40625-1.15625m13.38672-.3086l2.42187 6.59766m-2.42187-6.59766l1.63672-1.82812m14.39062 1.94922l-3.0039 6.35546m3.0039-6.35546l2.45313-.11329m10.33593-.08203l-1.95312 6.75m1.66797-5.76953l1.20312-.2539m13.38672-.26563l-3.92969 5.82422m3.9297-5.82422l2.4375.25781m10.26562-.58984l-2.70704 6.48828m2.70704-6.48828l2.4414-.22656m-2.83594 1.17187l1.22266-.11328M448.75 430.25l2.99219-6.35938m-2.55469 5.4336l-1.22656.0586m16.50781 1.07812l-1.8164-6.78516m1.55468 5.80078l-.89844.83594"/><g clip-path="url(#O)"><path fill="none" stroke="#000" stroke-linecap="round" stroke-linejoin="round" stroke-miterlimit="10" stroke-width=".5" d="M147.49219 414.1289l-6.98438-.75"/></g><path fill="none" stroke="#000" stroke-linecap="round" stroke-linejoin="round" stroke-miterlimit="10" stroke-width=".5" d="M146.47656 414.01953l.45703 1.13672m13.76563-.45703l-6.76953-1.89453m5.78515 1.6211l.26172 1.19921m13.57422.07812l-5.84375-3.90234m4.9961 3.33594l-.125 1.22265m12.14843.82032l-1.5625-6.85157m11.15625 5.35157l5.8789-3.85157m-5.02343 3.29297l-1.07422-.58984m12.96094-.6875l7.02344-.17969m-6 .15235l-.60547-1.06641m12.96484 1.69531l6.89063-1.38281m-5.88672 1.1836l-.77734-.94923m13.28125 1.78125l6.5078-2.65234m-6.5078 2.65234l-1.88672-1.5703m15.28125 1.75l6.34765-3.01173m-6.34765 3.01172l-1.97266-1.46094m15.64844 2.0625l5.625-4.21093m-4.80469 3.59765l-1.11328-.51953m13.10937.19922l6.625-2.34375m-6.625 2.34375l-1.80859-1.66016m15.01563-.3125l6.83984 1.60157m-5.84766-1.3711L287.72656 412m13.41797-.57031l5.27344 4.64453m-4.50781-3.96875l.28515-1.1914m11.58203 1.68359l6.63672 2.3125m-5.67187-1.97657l-.1875-1.21093m12.38281 1.49218l6.94531 1.07813m-5.9336-.92188l-.40233-1.16015m12.70703 1.01172l6.9453 1.05859m-5.9375-.90234l-.40624-1.16016m18.04297-1.44922l-3.71485 5.96875m14.67188.49219l1-6.95313m11.04297.44141l3.54687 6.0664m-3.03125-5.18359l.64453-1.04297m12.91407-.16797L398 417.1172m-1.73047-5.75l.8711-.86328m14.58593.03906l-2.84765 6.42187m2.84765-6.42187l2.44531-.17578m10.77735.13672l-2.66797 6.5m2.66797-6.5l2.4414-.2422m10.88282.2422L435.58984 417m2.6836-6.4961l2.4414-.23828m-2.83203 1.1836l1.21875-.11719m14.625 2.89844l-6.96094-.95703m5.94922.82031l.42188 1.14844m11.80469 1.74218l-2.76172-6.46093m2.35937 5.51953l-.76953.95703"/><g clip-path="url(#P)"><path fill="none" stroke="#000" stroke-linecap="round" stroke-linejoin="round" stroke-miterlimit="10" stroke-width=".5" d="M147.45313 399.78516l-6.90625 1.30859"/></g><path fill="none" stroke="#000" stroke-linecap="round" stroke-linejoin="round" stroke-miterlimit="10" stroke-width=".5" d="M146.44922 399.97656l.76562.95703m7.53516-2.89843l5.1289 4.80468m7.29688-1.7539l6.90625-1.29688m6.54688 1.8086l6.6328-2.32032m-5.66796 1.98438l-.90234-.83203m13.08593.46875l6.96485-.92188m-5.95313.78906l-.71094-1m13 .31641l6.9922.71094m-6.9922-.71094l-.92578-2.27344m14.22657 2.53907l7.02343.17968m-7.02343-.17968l-1.09766-2.19532m2.11719 2.22266l-.54688-1.09766m12.85938 1.51172l6.99219-.69922m-6.9922.69922l-1.36327-2.04297m15.02343 3.25l6.29688-3.11718m-6.29688 3.11718l-1.99218-1.42968m15.9453 2.32812l5.02345-4.91406m-5.02344 4.91406l-2.33985-.74219m15.67188.76172l4.98828-4.94922m-4.26172 4.22657l-1.17187-.36329m14.82422-4.59765l2.86328 6.41797M305.2578 397.25l-2.95703 6.375m14.97266-6.69531l-.35547 7.01953m14.11328-6.96875l-1.23828 6.91797m16.1289-6.20313l-4.39062 5.48828m17.04297.41797l-3.0664-6.32422m2.62109 5.40235l-.72657.99219m14.91797-.32032l-3.92968-5.82812m3.35937 4.98047l-.57812 1.08203m15.57421-4.84766l-6.15234 3.39844m5.25781-2.90235l1.02735.66797m10.4414-2.96093l-.66797 6.99609m.57032-5.98047l1.1328-.46875m14.57813.625l-5.26562 4.65235m4.5-3.97657l1.14844.42969m12.08984-1.80469l-3.58203 6.04688m3.58203-6.04688l2.45313.11328m11.05468.00782l-3.96484 5.80468m3.96484-5.80468l2.4375.27343m12.15625 1.32422l-6.52343 2.60938m5.57421-2.23047l.9375.79297m12.58985 2.57812l-5.04688-4.89062m4.3125 4.17969l-.33984 1.17968"/><g clip-path="url(#Q)"><path fill="none" stroke="#000" stroke-linecap="round" stroke-linejoin="round" stroke-miterlimit="10" stroke-width=".5" d="M147.375 386.14453l-6.75 1.95703"/></g><path fill="none" stroke="#000" stroke-linecap="round" stroke-linejoin="round" stroke-miterlimit="10" stroke-width=".5" d="M147.375 386.14453l1.71094 1.75781m-2.69531-1.47265l.85546.8789m13.08985-1.97656l-6.04297 3.58203m6.04297-3.58203l2.09765 1.27344m10.53516-2.10156l-4.67969 5.23828m4-4.47656l1.1914.29296m11.16017-1.8789L183.25 390.5664m1.1875-5.88672l1.17578-.34766m11.51953-.71875l.25781 7.01953m-.22265-6l1.0625-.61328m9.92969.55078l4.82812 5.10547m-4.82812-5.10547l.78515-2.32422m11.5 4.1797l6.89063 1.39452m-5.88672-1.1914l-.35156-1.17579m14.79297 4.9297l2.6289-6.51954m-2.6289 6.51953l-2.4375.25781m16.78906-.01562l.5586-7.0039m-.48048 5.98437l-1.125.48828m14.14453.50781l.9922-6.95703m-.9922 6.95703l-2.30468.83594m16.14843-.80078l-.0625-7.02735m.05078 6.00391l-1.07812.58594m17.19531-.98438l-5.64844-4.18359m4.82813 3.57422l-.1836 1.21484m14.94532-2.02344l-6.89844-1.34765m6.89844 1.34765l.71094 2.34766m12.66015-2.79687l-7.01172-.44922m5.9922.38281l.5078 1.11719m13.83594-1.20703l-7.02734-.13282m6.0039.11329l.5547 1.09375m13.73437-.57032l-6.9336-1.14453m5.92578.98047l.39063 1.16016m13.60937.0039l-6.28515-3.14453m5.3711 2.6875l.03124 1.22656m14.54688-2.74218l-6.98047.80078m5.96484-.6836l.69531 1.01172m12.59766-3.24219l-4.90625 5.03125m4.1914-4.30078l1.1797.34375m12.51952-1.35937l-4.24609 5.59765m4.2461-5.59765l2.42187.39062m10.65625-.55468l-3.77344 5.92578m3.77344-5.92578l2.44922.1914m10.60547-.34375l-3.25 6.23047m3.25-6.23047l2.45312-.01953m11.16406.19531l-3.85546 5.87891m3.85546-5.8789l2.44141.22656m11.21094.02734l-4.53125 5.3711m3.8711-4.58985l1.19921.25781m13.4414 3.58594l-5.85937-3.8789m5.0039 3.3164l-.11718 1.21875"/><g clip-path="url(#R)"><path fill="none" stroke="#000" stroke-linecap="round" stroke-linejoin="round" stroke-miterlimit="10" stroke-width=".5" d="M147.3086 372.6289l-6.6172 2.35548"/></g><path fill="none" stroke="#000" stroke-linecap="round" stroke-linejoin="round" stroke-miterlimit="10" stroke-width=".5" d="M147.3086 372.6289l1.8125 1.65626m-2.77344-1.3125l.90625.82812m13.43359-.97265l-6.7461 1.96093m6.7461-1.96094l1.71094 1.75782m-2.6914-1.47266l.85546.8789m13.41797-1.24609l-6.69922 2.1211m6.69922-2.1211l1.75 1.71875m11.32031-2.30078l-6.21094 3.28906m6.21094-3.28906l2.03125 1.375m-2.9375-.89844l1.01953.6875m12.4961-2.08593l-4.80078 5.13281m4.80078-5.13281l2.37109.64062m-3.07031.10547l1.1875.32031m11.94922-1.66796l-3.04688 6.33203m3.04688-6.33204l2.45312-.09765m11.36328 6.13672l-4.04687-5.74219m3.45703 4.90625l-.55078 1.09375m14.61328-.375l-4.36328-5.50781m4.36328 5.50781l-.98438 2.25m14.71875-2.64063l-5.20312-4.72656m5.20312 4.72656l-.60547 2.37891m-.15234-3.0664l-.30078 1.1875m14.19531-.32032l-4.84765-5.08594m4.84765 5.08594l-.77343 2.32813m.0703-3.0664l-.38671 1.16405m14.23047-.26562l-4.49219-5.40625m4.49219 5.40625l-.92969 2.26953m15.03516-3.21094l-6.07813-3.52734m5.19531 3.01562l-.04687 1.22657m14.70312-2.13282l-6.99218-.6875m5.97656.58594l.46484 1.13672m13.8789-1.51172l-7.01952.26172m6-.22266l.61719 1.0625m13.71484-1.17187l-7.01563.40234m5.9961-.34375l.63672 1.05078m13.66797-1.41796L340.25 374.3203m5.9414-.875l.72657.98828m13.63281-.80859l-7.01953.36719m5.9961-.3164l.6328 1.05468m13.6172-1.72266l-6.84376 1.60156m5.84766-1.36718l.8086.92187m12.74218-2.65234l-5.32031 4.58984m5.32031-4.58984l2.28516.89062m10.1914-1.59765l-3.64453 6.00781m3.64453-6.00781l2.45313.14062m10.3789-.38672l-2.67968 6.4961m2.67969-6.4961l2.4414-.23828m10.53906.1211l-2.0078 6.73437m2.0078-6.73437l2.40625-.48438m11.60547.77735l-3.40234 6.14843m3.40234-6.14844l2.45313.03907m10.64453-.14844l-2.96875 6.36719m2.96875-6.36719l2.45312-.1289m12.83594 3.9375l-6.91406-1.25m5.90625 1.0664l.375 1.16797"/><g clip-path="url(#S)"><path fill="none" stroke="#000" stroke-linecap="round" stroke-linejoin="round" stroke-miterlimit="10" stroke-width=".5" d="M145.9961 357.60156l-3.9922 5.78125"/></g><path fill="none" stroke="#000" stroke-linecap="round" stroke-linejoin="round" stroke-miterlimit="10" stroke-width=".5" d="M145.41406 358.44531l1.21875.14063m12.35547-1.1836l-3.34766 6.1797m2.86329-5.27735l1.22656.00781m13.20703-.46875l-4.61328 5.30078m3.9414-4.53125l1.19532.27735m12.97265-.87891l-4.97656 4.96094m4.2539-4.23829l1.17188.35938m12.8789-1.0664l-5.0039 4.93359m5.0039-4.9336l2.33985.73438m10.99219-.71875l-5.03516 4.90234m5.03516-4.90234l2.33594.7461m11.0664 4.0625l-5.21093-4.71876m4.45312 4.03125l-.30078 1.1914m12.5664.5586l-1.59765-6.84375m1.36719 5.84766l-.92578.8086m15.20703-.07423l-3.07031-6.3203m3.0703 6.3203l-1.4453 1.98438m15.21093-2.2461l-3.97265-5.79687m3.97265 5.79688l-1.13281 2.17578m14.92188-2.5625l-4.91797-5.02344m4.20312 4.29297l-.3711 1.16797m15.19923-1.625l-6.51172-2.64454m5.5625 2.25782l.125 1.22265m14.34375-1.55078l-6.92188-1.21875m5.91407 1.04297l.3789 1.16406m13.99219-1.4414l-7.01953-.3125m7.01953.3125l1.05469 2.21484m12.25-2.0625l-7-.61719m5.98047.52735l.48046 1.1289m13.84375-1.76953l-6.97656.84766m5.96094-.72656l.70312 1.0078m13.58594-1.39062l-6.89453 1.3711m5.89063-1.17188l.77734.94922m13.16406-2.17187l-6.14062 3.41406m5.25-2.91797l1.02734.66797m12.5-2.03125l-4.78125 5.15234m4.78125-5.15234l2.3711.6289m10.17187-1.17187l-3.23828 6.23828m3.23828-6.23828l2.45312-.02734m9.53907-.35547l-.58985 7.0039m.58985-7.0039l2.2539-.96485m11.76953 1.09766l-2.0078 6.73438m2.0078-6.73438l2.40235-.48438m10.8711.47266l-1.92579 6.75781m1.92578-6.7578l2.39844-.51173m11.57812.77735l-3.25 6.23046m3.25-6.23046l2.45313-.01954m11.17578.20313l-3.8789 5.85938m3.3164-5.00782l1.21875.11719"/><g clip-path="url(#T)"><path fill="none" stroke="#000" stroke-linecap="round" stroke-linejoin="round" stroke-miterlimit="10" stroke-width=".5" d="M142.23828 344.13672l3.52344 6.08203"/></g><path fill="none" stroke="#000" stroke-linecap="round" stroke-linejoin="round" stroke-miterlimit="10" stroke-width=".5" d="M154.91797 344.60938l4.79297 5.13671m-4.79297-5.13671l.79687-2.32032m12.40235 2.4336l5.02734 4.91015m-5.02734-4.91015l.6914-2.35547m13.02735 2l4.21875 5.6211m-4.21875-5.6211l1.04297-2.22266m13.58984 1.60938l1.58203 6.84765m-1.35156-5.85156l.92578-.80469m15.1836.51953l-4.46485 5.42579m4.46484-5.42579l2.40625.48829M227 348.8125l-6.21875-3.26953m5.3125 2.79297l.00781 1.22656m11.59766 1.09375l-.98828-6.95703m.98828 6.95703l-1.98047 1.44531m14.59375-1.41797l.41406-7.01171m-.41406 7.01171l-2.23047 1.02344m16.07813-1.03125l-.65235-6.9961m.65235 6.9961l-2.04688 1.34766m16.0625-1.48438l-2.05078-6.72265m1.75 5.74609l-.86719.86719m15.73438-.57422l-4.55469-5.35156m3.89453 4.5703l-.45312 1.14063m15.16406-1.22656l-6.02344-3.6211m6.02344 3.6211l-.13281 2.45313m13.71093-2.98829l-6.55078-2.55078m5.59766 2.1797l.14453 1.21874m14.32813-1.625l-6.95704-.9961m5.94532.85157l.41406 1.15234m13.91797-1.94921l-6.96875.88671m5.95312-.7578l.71094 1m13.64063-.9375l-7.01172.5039m7.01172-.5039l1.30468 2.07812M373.66796 346l-6.62108 2.35547M373.66797 346l1.8086 1.65625m10.82812-2.80469l-5.26563 4.65235m4.5-3.97657l1.14844.4297m12.26172-1.69142l-3.92578 5.82422m3.92578-5.82421l2.4414.2539m9.79688-.74219l-1.76953 6.80079m1.76953-6.80079l2.38672-.5703m10.00781.45702l.07031 7.02735m-.0703-7.02735l2.15624-1.17187m11.50781 1.1875l-.6289 6.9961m.6289-6.9961l2.25782-.95703m11.68359 1.0703l-1.88281 6.76954m1.88281-6.76953l2.39844-.52735m12.75781 1.76563l-5.5625 4.29297m4.7539-3.66797l1.1172.50781"/><g clip-path="url(#U)"><path fill="none" stroke="#000" stroke-linecap="round" stroke-linejoin="round" stroke-miterlimit="10" stroke-width=".5" d="M141.04688 331.95703l5.90625 3.8086"/></g><path fill="none" stroke="#000" stroke-linecap="round" stroke-linejoin="round" stroke-miterlimit="10" stroke-width=".5" d="M154.22656 332.1875l6.17578 3.35156m-6.17578-3.35156l.01953-2.45313m.87891 2.94141l.01953-2.45312m12.21875 2.34375l6.53125 2.59375m-6.53125-2.59375l-.26953-2.4375m1.22266 2.8164l-.27344-2.4375m12.60156 2.14844l6.60156 2.41406m-6.60156-2.41406l-.33594-2.42969m1.29688 2.78125l-.33594-2.42969m12.69531 2.06641l6.58985 2.4375m-6.58985-2.4375l-.32812-2.4336m1.28906 2.78516l-.16406-1.21484m12.7461.3711l6.13671 3.42187m-6.13672-3.42188l.04688-2.45312m18.64844 1.51953l-4.625 5.28906m3.95312-4.51953l1.19531.27735m8.9375 4.7539l3.08203-6.3125m-2.6328 5.39453l-1.22657.04297m15.01562 1.17578l1.23828-6.91406m-1.23828 6.91406l-2.33593.7539m15.18359-.87108l2.17188-6.6797m-2.17188 6.6797l-2.41797.42578m15.83203-.39454l1.97266-6.74218m-1.6836 5.76172l-1.20312.25m15.3086.87109l-.1836-7.02344m.15625 6l-1.0664.60547m16.2578-.16797l-3.88671-5.85156m3.32422 5l-.58594 1.07813m15.23828-.92579l-5.4336-4.45312m4.64454 3.80469l-.24219 1.20312m13.03125.4414l-2.80078-6.4453m2.39062 5.5078l-.76171.96094m16.07421-5.08984l-5.98046 3.6875m19.55468-3.1875l-6.49218 2.6875m17.17578-4.80469l-1.23438 6.91797m16.55469-5.79687l-5.24219 4.67969m4.48047-4l1.14844.42578m11.91015-1.89063l-3.20703 6.25m3.20703-6.25l2.45313-.03906m10.41406-.15235l-2.3125 6.63282m2.3125-6.63281l2.42578-.375m9.3164.20312l.83204 6.97656m-.71094-5.96094l1.00782-.70312m15.02343.6289l-4.83984 5.09376m4.83984-5.09375l2.36328.65625m10.37891-1.09766l-3.69531 5.97656m3.69531-5.97656l2.44922.16016m11.5039.34375l-4.96874 4.96875"/><g clip-path="url(#V)"><path fill="none" stroke="#000" stroke-linecap="round" stroke-linejoin="round" stroke-miterlimit="10" stroke-width=".5" d="M466.04688 331.3789l2.34375.71876"/></g><g clip-path="url(#W)"><path fill="none" stroke="#000" stroke-linecap="round" stroke-linejoin="round" stroke-miterlimit="10" stroke-width=".5" d="M140.89453 318.90625l6.21094 3.28516"/></g><path fill="none" stroke="#000" stroke-linecap="round" stroke-linejoin="round" stroke-miterlimit="10" stroke-width=".5" d="M154.08594 319.16406l6.45703 2.76563m-6.45703-2.76563l-.20703-2.44531m13.28515 3.2461l6.92969 1.16796m-6.92969-1.16797l-.77344-2.32812m1.78125 2.4961l-.38671-1.16016m12.66406 1.20703l6.98828.73828m-6.98828-.73828l-.91797-2.27735m1.9375 2.38282l-.91797-2.27344m13.21484 2.16406l6.98829.7461m-6.98828-.7461l-.91407-2.27734m1.92969 2.38672l-.91406-2.27735m13.24219 1.96875l6.93359 1.14063m-6.9336-1.14063l-.78515-2.32422m1.79297 2.4922l-.39453-1.16407m12.6875 1.08203l6.96093.97266m-6.96093-.97266l-.83985-2.30469m14.27735 3.82031l6.71875-2.0625m-5.7422 1.76172l-.86718-.86718m14.86719 3.21484l3.39453-6.15234m-2.90234 5.2578l-1.22657-.01952m13.1836.24219l5.125-4.8086m-4.3789 4.10938l-1.16016-.39844m15.26953 2.05469l2.04687-6.72266m-2.04687 6.72266l-2.41016.46875m16.4375-.33204l.6211-7m-.6211 7l-2.26172.95704m16.28125-.96485l-.78906-6.98437m.78906 6.98437l-2.02734 1.38672m16.6914-1.82812L315.35156 317.5m2.98047 5.21094l-.65234 1.03515m15.97656-1.85546l-6.49219-2.6836m5.55078 2.29297l.1172 1.21875m14.11718-3.5664L340.5 321.9414m5.51172-2.38282l.96094.76563m12.5625-2.25l-4.98828 4.94531m4.26171-4.22656l1.17188.36328m9.375-1.97656l2.0039 6.73437m-1.71484-5.7539l.875-.85938m16.19531 1.49219l-6.08984 3.50781m5.20703-2.9961l1.03906.65235m12.14454-2.27734l-4.0586 5.73828m4.0586-5.73828l2.43359.3086m10.1289-.71485l-2.55468 6.54687m2.55469-6.54687l2.4375-.28516m8.3125.28906l2.57421 6.53907m-2.19921-5.58594l.79687-.9336m10.04688 4.1875l6.76953-1.875m-5.78516 1.60547l-.84375-.89062m19.82813-1.0625l-6.53907 2.57422m5.58985-2.19922l.92968.79687m12.9961-1.82421l-5.85938 3.8789"/><g clip-path="url(#X)"><path fill="none" stroke="#000" stroke-linecap="round" stroke-linejoin="round" stroke-miterlimit="10" stroke-width=".5" d="M466.49219 318.60938l2.15625 1.17187"/></g><path fill="#00f" fill-rule="evenodd" d="M383.80078 432.14063h8.61719v-10.14454h-8.61719v10.14454"/><path fill="azure" fill-rule="evenodd" d="M385.63281 423.82813h.83203v2.82421h3.28907v-2.82421h.83203v6.48046h-.83203v-2.91796h-3.28907v2.91796h-.83203v-6.48046"/><path fill="#00f" fill-rule="evenodd" d="M219.58203 414.38672h8.61719v-10.14453h-8.61719v10.14453"/><path fill="azure" fill-rule="evenodd" d="M221.41406 406.07422h.83203v2.82422h3.28907v-2.82422h.83203v6.48047h-.83203v-2.91406h-3.28907v2.91406h-.83203v-6.48047"/><path fill="#00f" fill-rule="evenodd" d="M370.48438 401.07422h8.62109v-10.14844h-8.6211v10.14844"/><path fill="azure" fill-rule="evenodd" d="M372.3164 392.76172h.83594v2.82031h3.28516v-2.82031h.83203v6.47656h-.83203v-2.91406h-3.28516v2.91406h-.83593v-6.47656"/><path fill="#ff3030" fill-rule="evenodd" d="M242.46875 365.5664h7.6914v-10.14452h-7.6914v10.14453"/><path fill="azure" fill-rule="evenodd" d="M244.30078 357.2539h.83203v5.73829h3.19531v.74219h-4.02734v-6.48047"/><path fill="#ffffe0" fill-rule="evenodd" d="M430.51172 448.75781h22.17969v-10.1914h-22.1797v10.1914"/><path fill-rule="evenodd" d="M434.01172 440.39844h.50781v6.29297h-.78515v-4.48829h-1.39063v-.55468l.5586-.0664.2539-.0547.23047-.08984.20312-.14063.17188-.21093.14453-.29297.10547-.39453m4.8125 0l.23047.01953.21875.05469.20703.08984.19531.1211.1836.14843.17187.17578.30469.41797.24219.4961.17968.54687.10938.57813.03906.58984-.03906.59375-.10938.58594-.17969.55078-.24218.5039-.30469.4297-.17188.17968-.18359.15234-.19531.1211-.20703.09375-.21875.05859-.23047.01953-.23047-.01953-.21875-.0586-.20703-.09374-.19531-.1211-.1836-.15234-.17187-.17969-.30469-.42969-.24219-.5039-.17969-.55078-.10937-.58594-.03906-.59375h.83203l.02734.5625.08203.50781.12891.4414.16016.375.1914.30079.21094.22265.22266.13672.22656.04688.22656-.04688.22266-.13671.21094-.22266.1914-.30078.16016-.375.1289-.4414.07813-.50782.03125-.5625-.03125-.5586-.07813-.5039-.1289-.4336-.16016-.36718-.1914-.28906-.21094-.21485-.22266-.13281-.22656-.04297-.22656.04297-.22266.13281-.21094.21485-.1914.28906-.16016.36719-.1289.43359-.08204.5039-.02734.5586h-.83203l.03906-.58985.10938-.57812.17968-.54688.24219-.49609.30469-.41797.17187-.17578.1836-.14844.1953-.12109.20704-.08984.21875-.0547.23047-.01952m4.95312 0l.23047.01953.21875.05469.20703.08984.19532.1211.18359.14843.17188.17578.30078.41797.24609.4961.17969.54687.10937.57813.03906.58984-.03906.59375-.10937.58594-.17969.55078-.2461.5039-.30077.4297-.17188.17968-.1836.15234-.1953.1211-.20704.09375-.21875.05859-.23047.01953-.23046-.01953-.21875-.0586-.20704-.09374-.1953-.1211-.1875-.15234-.16798-.17969-.30469-.42969-.24218-.5039-.17969-.55078-.11328-.58594-.03516-.59375h.83203l.02735.5625.08203.50781.1289.4414.16016.375.1914.30079.21094.22265.22266.13672.22656.04688.22657-.04688.22265-.13671.21094-.22266.1914-.30078.16016-.375.125-.4414.08203-.50782.03125-.5625-.03125-.5586-.08203-.5039-.125-.4336-.16015-.36718-.19141-.28906-.21094-.21485-.22265-.13281-.22657-.04297-.22656.04297-.22265.13281-.21094.21485-.1914.28906-.16017.36719-.1289.43359-.08203.5039-.02735.5586h-.83203l.03516-.58985.11328-.57812.17969-.54688.24219-.49609.30468-.41797.16797-.17578.1875-.14844.19531-.12109.20704-.08984.21875-.0547.23046-.01952m4.95313 0l.38672.02734.35937.08203.32031.13672.28125.1875.23047.23828.17188.28516.10937.33203.03907.375-.02344.27734-.05469.23438-.08984.19922-.11328.16797-.12891.14453-.13672.125-.28906.19531.23437.11719.20704.14844.17968.17187.15625.1914.1211.21485.09375.23047.05468.24219.01954.2578-.03516.3086-.10547.32813-.17188.32422-.23828.30468-.30468.26954-.375.21484-.21094.08203-.23047.0586-.24219.03906-.26172.01562-.26171-.01562-.2422-.03907-.22265-.05859-.20312-.08203-.35938-.21485-.28906-.26953-.22266-.30468-.16015-.32422-.08985-.32813-.03125-.3086h.83203l.02735.25392.07812.23437.1211.21094.16015.1836.19531.15233.21875.1172.23829.0703.2578.02735.25392-.02735.24218-.0703.21875-.1172.1914-.15234.16017-.1836.125-.21093.07812-.23438.02344-.2539-.02344-.2539-.07813-.23438-.125-.21094-.16015-.1875-.1914-.15234-.21876-.11329-.24219-.07421-.2539-.02344-.25781.02344-.23829.07421-.21875.11329-.1953.15234-.16016.1875-.1211.21094-.07812.23437-.02735.2539h-.83203l.01953-.2539.0547-.23828.08983-.22656.125-.20703.15235-.1914.1836-.17188.20702-.15235.23047-.13281-.28515-.19531-.14063-.125-.1289-.14453-.11329-.16797-.08593-.19922-.0586-.23438-.01953-.27734h.78516l.02344.21484.0664.19141.10547.16797.13672.14062.16406.10938.1875.08203.20703.05078.22266.01563.21875-.01563.20703-.05078.1875-.08203.16797-.10938.13672-.14062.10156-.16797.0664-.1914.02344-.21485-.02343-.21484-.06641-.19141-.10156-.16406-.13672-.14063-.16797-.10937-.1875-.08203-.20703-.05079-.21875-.01562-.22266.01563-.20703.05078-.1875.08203-.16406.10937-.13672.14063-.10547.16406-.0664.1914-.02344.21485h-.78516l.03906-.375.10547-.33203.17578-.28516.23047-.23828.27735-.1875.32421-.13672.35938-.08203.38672-.02734"/><path fill="#ffffe0" fill-rule="evenodd" d="M355.0586 357.3086h22.17968v-10.19141H355.0586v10.1914"/><path fill-rule="evenodd" d="M358.5586 348.94922h.5078v6.29297h-.78515v-4.48828h-1.39063v-.5547l.5625-.0664.25-.05469.23047-.08984.20313-.14062.17578-.21094.14063-.29297.10546-.39453m4.8125 0l.23047.01953.21875.05469.20703.08984.19922.1211.1836.14843.17187.17578.30078.41797.24219.4961.17969.54687.11328.57813.03515.58984-.03515.59375-.11328.58594-.17969.55078-.24219.5039-.30078.4297-.17187.17577-.1836.15625-.19922.1211-.20703.09375-.21875.05469-.23047.01953-.22656-.01954-.21875-.05468-.21094-.09375-.1953-.1211-.1836-.15625-.17188-.17578-.30078-.42969-.2461-.5039-.17968-.55078-.10938-.58594-.03906-.59375h.83203l.03125.5625.08204.50781.125.4414.16406.375.1875.30079.21094.22266.22265.13671.22656.04688.22657-.04688.22265-.13671.21094-.22266.1914-.30078.16407-.375.125-.4414.08203-.50782.02734-.5625-.02734-.5586-.08203-.5039-.125-.4336-.16406-.36718-.19141-.29297-.21094-.21094-.22265-.13281-.22657-.04688-.22656.04688-.22265.13281-.21094.21094-.1875.29297-.16406.36719-.125.43359-.08204.5039-.03125.5586h-.83203l.03906-.58984.10938-.57813.17969-.54687.2461-.4961.30077-.41797.17188-.17578.1836-.14844.1953-.12109.21094-.08984.21875-.05469.22656-.01953m5.09375 0h.50782v6.29297h-.78516v-4.48828h-1.39063v-.5547l.5586-.0664.2539-.05469.23047-.08984.20313-.14062.17187-.21094.14454-.29297.10546-.39453m2.82032 2.17578h.78906l.01953-.3164.0586-.28907.10156-.25.13671-.21484.1836-.17578.22265-.12891.26563-.07813.3086-.03125.23827.02344.22266.0625.20313.10156.17968.13672.14844.17579.11328.20312.07031.23828.02735.26563-.02344.26562-.0664.22656-.10938.19141-.15625.17188-.19922.16015-.2461.16797-.63671.38672-.53516.3164-.4375.31641-.34765.32422-.26172.33594-.1914.35156-.125.36719-.07032.39453-.01953.41797h4.21094v-.73828h-3.33204l.08204-.28516.11328-.23828.14843-.19922.1875-.17969.23047-.17187.28125-.17578.71485-.41797.41796-.20313.34375-.23437.28125-.25.21875-.26563.16407-.27734.11328-.28516.0625-.28515.01953-.28125-.04297-.38282-.11719-.34765-.1914-.3086-.25-.26171-.30078-.21485-.34766-.15625-.3789-.10156-.40626-.03125-.4375.03125-.39843.09765-.35157.16797-.30468.23438-.25.30469-.1875.375-.11329.4453-.04296.51954"/><path fill="#ffffe0" fill-rule="evenodd" d="M202.10156 392.42578h22.17969v-10.1914h-22.17969v10.1914"/><path fill-rule="evenodd" d="M205.60156 384.07031h.50781v6.29297h-.78515V385.875h-1.39063v-.5586l.5586-.0625.2539-.05468.23047-.08985.20313-.14062.17187-.21094.14453-.29297.10547-.39453m4.8125 0l.23047.01563.21875.0586.20703.08983.19531.1172.1836.15234.17187.17578.3047.41797.24218.49218.17969.54688.10937.58203.03906.58984-.03906.59375-.10937.58204-.1797.55468-.24218.5039-.30469.42579-.17187.17969-.1836.15234-.1953.125-.20704.09375-.21875.05469-.23047.01953-.23047-.01953-.21875-.05469-.20703-.09375-.19531-.125-.1836-.15234-.17187-.17969-.30469-.42578-.24218-.5039-.1797-.5547-.10937-.58203-.03906-.59375h.83203l.03125.5625.07813.50782.1289.4414.16016.375.1914.30078.21094.21875.22266.14063.22656.04687.22656-.04687.22266-.14063.21094-.21875.1914-.30078.16016-.375.1289-.4414.08204-.50782.02734-.5625-.02734-.5625-.08203-.5-.1289-.43359-.16017-.36719-.1914-.29297-.21094-.21484-.22266-.1289-.22656-.04688-.22656.04687-.22266.12891-.21093.21484-.19141.29297-.16016.36719-.1289.4336-.07813.5-.03125.5625h-.83203l.03906-.58985.10938-.58203.17969-.54688.24218-.49218.3047-.41797.17187-.17578.18359-.15235.19531-.11719.20703-.08984.21875-.0586.23047-.01562m5.08985 0h.51172v6.29297h-.78907V385.875h-1.38672v-.5586l.5586-.0625.2539-.05468.22657-.08985.20703-.14062.17187-.21094.14063-.29297.10547-.39453m2.82422 2.17188h.78906l.01953-.3164.0586-.28517.09765-.25.14062-.21875.1836-.17187.22265-.1289.26563-.08204.30469-.02734.23828.02344.22656.0625.20313.10156.17968.13672.14844.17578.11328.20312.07031.23829.02735.26171-.02344.26954-.0664.22656-.10938.1914-.15625.17188-.19922.16015-.2461.16797-.63671.38672-.53516.3125-.4375.3164-.34766.32813-.26562.33204-.1875.35156-.125.3711-.07031.39452-.01953.41797h4.21093v-.74219h-3.33203l.08203-.28125.11328-.23828.14844-.20312.1875-.17969.23047-.17188.27734-.17578.71875-.41406.41407-.20703.34765-.23047.28125-.25.21875-.26953.16407-.27734.10937-.28125.0664-.28516.01954-.28125-.04297-.38281-.1211-.35156-.1875-.3047-.25-.26562-.30468-.21094-.34375-.16015-.3789-.09766-.41016-.03125-.4336.03125-.39844.09766-.35546.16797-.3047.23437-.24608.30469-.1875.3711-.11329.44921-.04297.51563"/><path fill="#ffffe0" fill-rule="evenodd" d="M173.9375 463.4414h22.1836V453.25h-22.1836v10.1914"/><path fill-rule="evenodd" d="M177.4375 455.08203h.51172v6.29688h-.78906v-4.4922h-1.38672v-.55468l.5586-.0664.2539-.05079.22656-.08984.20313-.14453.17578-.20703.14062-.29688.10547-.39453m4.8164 0l.22657.01953.21875.05469.21094.08984.1953.1211.1836.14844.17188.17578.30078.42187.24219.49219.17968.54687.11328.57813.03907.58984-.03906.59375-.11329.58594-.17968.55469-.2422.5-.30077.42969-.17188.17968-.1836.15235-.1953.125-.21094.08984-.21875.0586-.22656.01952-.23047-.01953-.21875-.05859-.20703-.08984-.19922-.125-.1836-.15235-.17187-.17969-.30078-.42968-.24219-.5-.17969-.55469-.11328-.58594-.03906-.59375h.83594l.02734.5664.08203.50392.125.4414.16406.375.19141.30078.21094.22266.22265.13672.22657.04687.22656-.04687.22266-.13672.21093-.22266.1875-.30078.16406-.375.125-.4414.08204-.50391.03125-.5664-.03125-.5586-.08203-.5-.125-.4375-.16407-.36328-.1875-.29297-.21094-.21485-.22265-.1328-.22656-.04298-.22657.04297-.22265.13281-.21094.21485-.1914.29297-.16407.36328-.125.4375-.08203.5-.02734.5586h-.83594l.03906-.58985.11328-.57813.17969-.54687.24219-.49219.30078-.42187.17187-.17579.1836-.14843.19922-.1211.20703-.08984.21875-.05469.23047-.01953m5.08984 0h.50781v6.29688h-.78515v-4.4922h-1.39063v-.55468l.5625-.0664.25-.05079.23047-.08984.20313-.14453.17578-.20703.14062-.29688.10547-.39453m2.82422 2.17578h.78516l.01953-.3164.05859-.28516.10156-.2539.14063-.21485.17969-.17578.22265-.1289.26563-.07813.30859-.02735.23828.01954.22266.0625.20312.10156.17969.14062.14844.17188.11328.20703.07422.23437.02344.26563-.01954.26953-.0664.22266-.11328.1914-.15235.17188-.20312.16406-.2461.16406-.6328.39063-.53907.3125-.4375.3164-.34375.32422-.26563.33594-.1914.35156-.125.3711-.0664.39062-.02345.42188h4.21485v-.7422h-3.33594l.08594-.28515.11328-.23437.14844-.20313.1875-.17969.23047-.17187.27734-.17578.71875-.41797.41406-.20313.34375-.23046.28125-.25391.22266-.26563.16015-.27734.11328-.28515.0625-.28516.01954-.28125-.03907-.38281-.12109-.34766-.1914-.3086-.25-.26171-.30079-.21485-.34765-.15625-.37891-.09765-.40625-.03516-.4336.03125-.39843.10156-.35547.16407-.30469.23437-.25.30469-.1836.375-.11718.44531-.03906.51953"/></g></defs><use xlink:href="#Y"/></svg>