<svg xmlns="http://www.w3.org/2000/svg" role="img" xmlns:xlink="http://www.w3.org/1999/xlink" viewBox="142.45 309.95 326.84 171.84"><defs><clipPath id="a"><path d="M144 311.67188h1v168.65625h-1zm0 0"/></clipPath><clipPath id="b"><path d="M144 311.67188h324v168.65625H144zm0 0"/></clipPath><clipPath id="c"><path d="M467 311.67188h1v168.65625h-1zm0 0"/></clipPath><clipPath id="d"><path d="M144 479h4v1.32813h-4zm0 0"/></clipPath><clipPath id="e"><path d="M147 480h2v.32813h-2zm0 0"/></clipPath><clipPath id="f"><path d="M153 479h8v1.32813h-8zm0 0"/></clipPath><clipPath id="g"><path d="M160 480h2v.32813h-2zm0 0"/></clipPath><clipPath id="h"><path d="M166 479h9v1.32813h-9zm0 0"/></clipPath><clipPath id="i"><path d="M173 480h2v.32813h-2zm0 0"/></clipPath><clipPath id="j"><path d="M180 479h8v1.32813h-8zm0 0"/></clipPath><clipPath id="k"><path d="M187 480h2v.32813h-2zm0 0"/></clipPath><clipPath id="l"><path d="M193 479h9v1.32813h-9zm0 0"/></clipPath><clipPath id="m"><path d="M200 480h2v.32813h-2zm0 0"/></clipPath><clipPath id="n"><path d="M206 479h9v1.32813h-9zm0 0"/></clipPath><clipPath id="o"><path d="M213 480h3v.32813h-3zm0 0"/></clipPath><clipPath id="p"><path d="M220 479h8v1.32813h-8zm0 0"/></clipPath><clipPath id="q"><path d="M227 480h2v.32813h-2zm0 0"/></clipPath><clipPath id="r"><path d="M233 479h8v1.32813h-8zm0 0"/></clipPath><clipPath id="s"><path d="M246 478h9v2.32813h-9zm0 0"/></clipPath><clipPath id="t"><path d="M260 478h8v2.32813h-8zm0 0"/></clipPath><clipPath id="u"><path d="M274 477h6v3.32813h-6zm0 0"/></clipPath><clipPath id="v"><path d="M288 476h5v4.32813h-5zm0 0"/></clipPath><clipPath id="w"><path d="M303 476h2v4.32813h-2zm0 0"/></clipPath><clipPath id="x"><path d="M315 476h4v4.32813h-4zm0 0"/></clipPath><clipPath id="y"><path d="M327 478h7v2.32813h-7zm0 0"/></clipPath><clipPath id="z"><path d="M340 478h7v2.32813h-7zm0 0"/></clipPath><clipPath id="A"><path d="M353 478h8v2.32813h-8zm0 0"/></clipPath><clipPath id="B"><path d="M366 480h9v.32813h-9zm0 0"/></clipPath><clipPath id="C"><path d="M367 478h2v2.32813h-2zm0 0"/></clipPath><clipPath id="D"><path d="M379 479h9v1.32813h-9zm0 0"/></clipPath><clipPath id="E"><path d="M380 478h2v2.32813h-2zm0 0"/></clipPath><clipPath id="F"><path d="M393 479h8v1.32813h-8zm0 0"/></clipPath><clipPath id="G"><path d="M406 479h9v1.32813h-9zm0 0"/></clipPath><clipPath id="H"><path d="M421 477h5v3.32813h-5zm0 0"/></clipPath><clipPath id="I"><path d="M435 476h4v4.32813h-4zm0 0"/></clipPath><clipPath id="J"><path d="M448 476h4v4.32813h-4zm0 0"/></clipPath><clipPath id="K"><path d="M461 477h5v3.32813h-5zm0 0"/></clipPath><clipPath id="L"><path d="M144 466h4v2h-4zm0 0"/></clipPath><clipPath id="M"><path d="M144 452h4v3h-4zm0 0"/></clipPath><clipPath id="N"><path d="M144 438h4v5h-4zm0 0"/></clipPath><clipPath id="O"><path d="M144 425h4v4h-4zm0 0"/></clipPath><clipPath id="P"><path d="M144 412h4v3h-4zm0 0"/></clipPath><clipPath id="Q"><path d="M144 399h4v3h-4zm0 0"/></clipPath><clipPath id="R"><path d="M144 385h4v4h-4zm0 0"/></clipPath><clipPath id="S"><path d="M144 372h4v4h-4zm0 0"/></clipPath><clipPath id="T"><path d="M144 357h3v7h-3zm0 0"/></clipPath><clipPath id="U"><path d="M144 343h2v8h-2zm0 0"/></clipPath><clipPath id="V"><path d="M144 341h1v4h-1zm0 0"/></clipPath><clipPath id="W"><path d="M144 331h4v6h-4zm0 0"/></clipPath><clipPath id="X"><path d="M144 318h4v5h-4zm0 0"/></clipPath><clipPath id="Y"><path d="M466 318h2v3h-2zm0 0"/></clipPath><g id="Z" clip-path="url(#clip1)"><path fill="#fff" fill-opacity="0" fill-rule="evenodd" d="M0 0h1000v1000H0zm0 0"/><path fill="#d3d3d3" fill-opacity="0" fill-rule="evenodd" d="M162.15234 355.86719l-.23437.29297.0586.23437.11718.17188.17578.23437.29297.34766.11328.0586.11719-.17188.0586-.23438.17577-.17578.46485-.17578h.69922l.23437.29297.28906.8164.0586.17579.17578.23046.35156.23438.69922.69922.17188.17578.23437.34765.23438.41016.28906.58203.41015.46485.23047.23437.23438.17578.11719.23047.17578.29297.17187 1.16406v.23438l.0586.28906.05859.11719.11719.11719.34765.41015.11719.17188.17578.17578.17578.23437.11719.17188.17188.35156.05859.23438.23437.40625.23438-.0586-.17578.17578-.0586.92969h-.58203l-.23437-.11328-.34766.11328-.11719.11719-.05859.29297-.0586.17578-.11718.17187-.46484.29297-.0586.23438-.0586.11328v.64453l.0586.17187v.41016l.0586.0586v.40624l.05859.40625.11719.17579.05859.05859.23047.64062-.0586.29297v.69922l-.05859.58203v.23438l-.0586.23047-.05468.35156v1.92187l.05469.1172h.42578l-.36719.11718-.02344.35156.89063 1.16797 1.74219.53906 1.33984.35938v.53906l.08984.8086.53516.71484 1.51953.26953.89063-.08594.08984 1.16406.53516.1797 1.16015-.1797 2.05469-.98437 1.16016-.36328 1.8789-.17578 1.69531-.1797-.17968.71876-1.51563.08594-1.25.08984-.80469.26953-1.07421.8086.26953.71875.53515.89843-.17968.625-.26563.8086.26563 1.07812.625.89844.80468.17969 1.25-.1797-.26562.72267.09766.5039.05468.29297v.17188l.0586.29296v.40625l.17578.1172.35156.11718h.40625l.29297-.17578.11328-.11719.0586-.11719.11718-.23047.0586-.17578.35156-.46484.23047-.17578.17578-.0586.17578.0586.0586.17578.11718.98828.05469.46875.0586.17188.11718.23437.17578.0586.8164.05859h.28907l.11719.23437.05859.40625.0586.35156v1.10547l.11718.29297.11719.34766.28906.69922.17578.35156.58203.7539.35157.17579.17187.0586.46875.23437.64063.46484.34765.23438.29297.17578.29297.05468.23047.0625.8164.34766.29297.17578.11328.17188.35157.35156.11719.17578.52343.64063v.28906l.0586.35156v.34766l.05859.35156.0586.28906.11718.0586.17188.05859h.17578l.58203.23437.17578.1172.17578.28905.17578.23438.11328.23437.29297.23047.11719.11719v.41016l.0586.05468.28906.23438.23437.11719.0586.11718.11718.17188.0586.11719.23047.23437.05859.17578.23437.0586.1172.05859-.1172.11328-.05859.11719v.11719l-.11719.29296-.11719.28907v.58203l.17579.11719.11718.05859.0586.11719.11719.11719.11328.05859.17578.34765.0586.35157.05858.40625v.17578l-.05859.17578-.11719.69922v.17187l.1172.17579.29296.29296h.40625l.17578.1172.11719.17187.11719.29296v.23438h-.52735l-.23047-.23438h-.23437l-.17578.0586-.0586.69922.0586.34765.11719.17579.17578.41015.11718.23047.28907.46875.17578.05469h.52344l.23437.0586.75781.64062.0586.29296v.23438l.05859.0586.23047.34765v.35156l-.11719.17188v.29297l.29297.28906.29297.17578.17187.0586.29297.17577.29297.1172.58203.40624.28906.23438.29297.17578.21875.16015.01563.01172.23047.17579.64062.52343.17578.23438.1172.17578.17577.17578.11328.17188v.64062l.1172.17578.46874.11719.58203.11719.23438.05859.23047.11328.29297.11719.11328.0586.58593.35156.28907.17187.17578.0625.17578.05469.17578.0586.69922.35155.28906.17579.23438.05468.28906.17578.23437.1172.64063.40624.29297.11719.17187.0586.23438.05859.41015.05859.23047.0586.23438.11718.0586.17188-.41017.17578.46875.0586.0586.29296.11328.23438.17578.05468.23438.0586.17578.05859.40625.11719.64062.23437.11719.17188.0586.23437v.17578l-.0586.1172-.0586.40624.23438.23438.11719.05859.34766.11719.64062.23047.17578.11718.28906.1172.17578.17577.23438.46485.58203 1.10546.17578.17579.34766.17578.17578.11719.35156.11718 1.04688.52344.23437.0586.46485.11327.29297.0586.46484.17578.75781.58203.23438.23438.34765.46484.17578.17578.28907.23438.8164.69921.29297.17579.28906.28906.29297.17578.29297.28906.69531.64063.17578.17578.29297.23437.28907.23438.46875.28906.64062.58203.34766.23438.23437.29297.34766.34765.35156.46485.9336.99218.34765.40625.11719.17579.23437.05859.11328.11719.64454.17578.23047.11328.23437.0586.29297.17577.23047.1172.9336.69921.40624.40625.23438.17578.40625.17578.23437.11719.8164.34766.34766.23437.23438.11719.29297.28906.23047.11719.7578.35156.35157.17188.23047.05859.29297.11719.23437.0586.8711.17577h.8164l.46875.23047.17188.0586.875.69921.46484.1172.29297.05858.17578.0586.23047.0586.46875.05859.34766.05859.35156.0586.40625.05859h.29297l.17187.0586v.23046l.17578.17578h.29297l.34766.0586.35156.05859.69922.11719h.64063l.46484-.23438.29297-.17578.17187-.11719.41016-.17187.28906-.17578.9336-.46485.46875-.29297.52343-.29296.46485-.17188.46484-.17578 1.05078-.46485.28906-.11718.41016-.11719.28906-.11719.52735-.17578 1.51562-.69922.58203-.34765.28907-.0586.29297-.0586.34765-.11718.875-.23047.35156-.11719h.11329l.23437-.05859.875-.23437.23438-.0586h.8125l.35156-.0586.8164-.11718.17188-.0586.35156-.05468.29297-.0586.23047-.05859.8164-.17578.17579-.0586h.34765l.23438-.05859.46484-.11718.75781-.17188.23438-.0586h.34765l.41016-.11718.28906-.0586 1.28516-.05859h.28906l.41016-.0586.23047-.05858h.17578l.875-.1172h.40625l.41015-.11718h.34766l.35156-.11328.8711-.0586h1.75l1.04687.28907.41016.11719.28906.11718.35156.11719.28907.11719 1.05078.17187.28906.0586h.29297l.29297.05859.17187.0586.41016.05859.17187.0586.1172.05858h.11718l.11719.0586.35156.0586h.11328l.41016.0664 1.92187.39453 1.92578.39453 1.51953.44922 1.69532.71875 2.14453.80469 1.60547-.71875 1.42968-.80469 1.16016-1.07813 1.25-.44921 3.03516-.71875 1.875-.35938 2.14453-1.34765 2.23437-1.25391 2.5-1.25781 1.69531-.44922 1.78516-.17969 1.16016-.26953.625.53906 1.33984-.26953.71485-.98828.98437-1.34375.44531-.17969.80469-.35937 1.875-.53907 1.78516-.44921 1.25-.26954 1.16015-.08984 1.69922-.08984 1.96094-.26954 1.25-.08984h.53906l.625-.08984h.89063l2.14453-.17969 2.41015-.17969 2.58985-.08984 1.69531.17969 1.60938.08984 1.42968.35938 1.16016.71875 1.875.98828 1.16015 1.52734.26563.71484.6289.08985.35548.89844.53515.53906.53516 1.52734 1.07422.35938h.53515l-.80469.53515.08985 1.70703.71484 2.69532.89063.80468.89453.98829.71484 1.2578 1.78516.53907 1.51953-.17969.35547 1.34375 1.60937-.80469.98047-.53906.26953.26953.31641-.21484.21875-.14453.80078.44922.44922-.35938h.35547l.53515-.26953.53907-.71875.53515-.26953.625-.98828 1.16016.44922.83984.3711 1.39454.61718 1.6953-.17969h1.60548l1.78515.08985.17969-1.70704.53516-1.34375.80468.26954.4922.84765.40233.40625-.08984.53906v.35938l.71485.44922.71093-.26953h1.42969l.35938.98828.4453 1.25781.71485 1.34375 1.25.6289 1.69531.62891.71485-.17969.17969-.53906.98046-.08984.44922.35937.08594 1.25782-.26563.6289-.53515.17969v.53906l.71484.98438.26563.53906.98437.98828.80078 1.07813-.26562.35937-.08985.89844-.625 2.33203-.35546 2.0664-.08985 1.79298-.17969.71875-.08984.53906v1.4375l-.98047 1.88281-.35937 1.70703-.53516.89844-.80469 1.16797-.26562.53906 2.05469 1.2539.08593.35938-.35546.53906-.08985-.17968v.80859l.08985 1.4375-.44532.71484-1.07422.09375-.26562.71485.53515.89844.8047.71875 1.16015.80859 1.33984.26953.44531.35938-.35546.44921-1.78907-.08984-1.25-.44922-.71484-.71875-.625-.08984-.17578 3.58984-.1875 1.3086h89.35937V311.70313h-55.26953v49.08203l.76172.125 3.28906.54296 2.02344 2.83594v2.7539l2.35156.33204 2.34766.33203h4.05078l-1.3789 4.16016-2.02344.70703-2.02344.70312-.54297.34375-2.59375 1.6172-.1875.11718-2.02344-2.07813-.73046-2.74218-2.67188-2.07813-1.375-3.5-.0664-.08203-1.95704-2.67188 2.75-1.41796v-49.08204H294.42187v91.41407l.1172.03125.1328.01172.07422.07421.10547.04688.08985.0586.08593.05859.08985.0586.29687.29687.0586.08984.03125.11719.02734.11719.01563.13671-.03125.1172-.0586.08983-.0586.08594-.04296.10547-.04688.10156-.02734.1211v.14453l.17578.26953.14844.14844.07422.08594.07422.07421.04296.10547.0625.08985.0586.08593.04297.10547.0586.08985.04687.10156.04296.10547.0586.08594.11719.17968.07421.07422.0625.08594.0586.08984.04297.10547.0586.08985.05858.08593.0625.08985.0586.08984.04297.10156.11719.17969.07421.07422.0586.08594.07422.07421.08984.0586.10547.04687h.14844l.1328-.01562.13282.01562.10156-.04687.07422-.07422.04688-.10156-.01563-.13281v-.14844l-.04687-.10547-.02735-.11719-.04687-.10156-.02735-.1211-.04296-.10156-.0625-.08984-.04297-.10156-.04297-.10547-.03125-.11719-.01563-.13281-.01171-.13672.08593-.0586.0586-.08593.12109-.03125.04297.10547.01562.1328v.1172l.0586.10156.0586.08984.08983.0586.14844.14843.0586.08985.04296.10547-.01171.10156.08593.0586.10547.04687.08594.0586.08984.05858.07422.07422-.11719.02735-.10546.04687-.08594.0586-.07422.07421-.0586.08985-.0625.08594-.02734.12109-.04687.10156-.04297.10547-.03125.11719-.01172.13281-.01563.13281v.14844l.02735.11719.04687.10547.04297.10156.0586.08984.07421.07422.08985.0586.07422.07421.08984.0586.0586.08984.04296.10547.04688.10156.11719.03125.1328.01563h.14845l.11718-.03125.10547.04297.04297.10547.04688.10156.02734.1211L299.5 410l.02734.11719.03125.1211.02735.11718.10547.04297.10156.04687.13281-.01562.14844.14844.0625.08593.07422.07422.07031.07422.08984.0625.10547.04297.10156.04297.1172.03125.13671.01562.11719-.03125.07422-.07422.02734-.11718-.01172-.13282-.03125-.12109-.02734-.11719.04297-.10547h.11719l.08984.0625.11719.02735h.14843l.13282.01562h.14843l.13282.01563.1328-.01563h.14845l.1328-.01562.13282-.01172.13672.01172.11719-.02735.13281-.01562.1914-.0586-.05859.17579-.01562.1328-.02735.1211-.01562.13281-.0586.08594-.1328.01563-.10548.04687-.10546.04297-.1172.03125-.11718.02735-.26563.03125h-.14843l-.13281.01562-.07422.07422.05859.08594.14844.14843.11719.1797.07421.0703.08985.0625.08984.0586.08594.0586.08984.05858.10156.04297.10547.0625.10547.04297.08594.0586.10547.04687.10156.04297.17969.11719.0586.08984-.04298.10156-.04687.10547.01562.13281.22266.22266.0586.08985.04296.10156.03125.1211.04297.10155.01563.13282.03125.11718.01171.13672.03125.11719.14844.14844.10156.04297.10547.04296.1172.03125.1328.01563.13672.01563h.11719l.11719-.03125.08984-.0586.04297-.10547.04688-.10156.04296-.10547.03125-.11719.01172-.1328v-.14845l-.01172-.1328-.01562-.13282-.03125-.11719-.04297-.10547-.04688-.10547-.04296-.10156-.04297-.10547-.01563-.13281.01563-.13281.02734-.11719.03125-.11719.02735-.1211.04687-.10155.08984-.0586.08594-.0625.07422-.07422.08984-.05859.22266-.22266.0586-.08593.07421-.07422.11719-.17969.0586-.08594v-.14844l-.07423-.07421-.10156-.04688-.10547-.04297-.10156-.04297-.0586-.08984-.04687-.10547-.02734-.11719.08984-.05859.11719-.03125.10156-.04297.17969-.11719.14844-.14843.01172-.13282-.01172-.10546-.08985-.0586-.1328.01563h-.14845l-.1328.01562-.13282-.01562-.1211-.03125-.08593-.0586-.07422-.07422-.0586-.08984-.0625-.08594-.11718-.17969-.0586-.08593.03125-.1211.08594-.05859.1211-.03125.05859-.08594v-.1211l-.03125-.11718-.0586-.08984-.05859-.08594-.04687-.10547-.02735-.11719-.01562-.1328.0586-.08985.07421-.07422.08984-.0586.1172-.17968.07421-.07422.0586-.08594.14843-.14844.1211-.03125.1328-.01562.13282.01562.07422.07422.04297.10547.01562.13281-.03125.1172-.11719.03124-.1328.01172-.14844.14844-.04297.10547-.04688.10156-.02734.1211-.03125.11718v.14844l.03125.11719.04297.10546.05859.08985.07422.07031.07422.07422.11719.03125.12109.02734.11719-.02734.1328-.01563h.1172l.08984.0586.07422.07422.04687.10546.0586.08594.10156.04688.13281.01562.10547.04297.08594.0586-.01172.10546-.07422.07422-.17969.11719-.05859.08984-.08984.0586-.07032.07422-.07421.07421-.0625.08985-.02735.11719-.01562.1328.01562.13282-.01562.13281v.14844l.01562.13281.02735.1172.03125.12108.07421.07422.08985.0586.08594.0586.08984.05858.11719.03125v.08594l-.10157.04688-.08984.0586-.26563.03124-.11718.02735h-.14844l-.10547.04296-.10156.04688-.0586.08984-.0625.23438-.01171.13281-.03125.1211-.01563.1328v.29298l-.01172.1328.01172.13673.01563.1328.1328.01563.13282.01172.1211.03125.08593.0586.07422.07421.04688.10547.04296.10157.01563.1328v.44532l-.01563.13281v.44532l.03125.26562.02735.11719.01562.13281.03125.11719.08594.21094.03125.26562v.14844l-.03125.11719-.02734.11718-.03125.1211-.02735.11719-.03125.11718-.03125.1211-.01171.1328-.01563.13282.08984.0586.1172-.03125.10155.01562.04688.10547-.03125.26562v.44141l-.04297.10547-.04688.10547-.04296.10156-.04297.10547-.0586.08594-.03125.12109-.04296.11719-.03125.11719-.01563.1328.01563.13282.05859.08984.10547.04688.08594.0586.05859.08593-.01172.13672-.03125.11719-.04297.10156v.44531l-.01562.13281v.14844l-.03125.11719-.04297.10547-.02735.11719-.04687.10546-.04297.10157-.03125.12109-.02734.11719-.03125.13281-.03125.11719-.02735.11719-.04297.10546-.03125.1172-.03125.12108-.01171.13282-.01563.13281v.29688l.02734.11718v.14844l.04688.39844.02734.11719.0586.08984.12109.03125h.14844l.13281-.01563.0586.08985v.11719l-.0586.08984-.08984.0586-.10157.04296-.10546.04688-.08985.05859-.08594.0586-.13671.01562-.1172-.03125-.1328-.01563-.10157.04688-.0625.08594-.01172.13671-.01562.13282-.03125.11719-.02735.11718-.01562.13281-.03125.1211v.29687l.01563.13282.03125.11718v.14844l.01171.13281v.14844l-.02734.11719-.04688.10156-.02734.1211-.03125.11718-.0586.08985-.07421.07421-.10156.04297-.10547.04688-.11719.02734-.1211.03125-.10156-.04687.0586-.08594.10547-.04688.02734-.11718.03125-.11719.02734-.1211.03125-.11718v-.14844l.01563-.13281-.03125-.11719-.04297-.10547-.10547.01563-.07422.07422-.10156.04296-.08984.0625-.07422.07422-.04297.10157-.01563.1328-.03125.1172L304.25 426l-.03125.11719-.02734.11719-.03125.12109-.02735.11719-.03125.11718-.04297.10547-.08984.0586h-.08984l-.1172-.03125-.03124-.08594.01562-.13672-.03125-.11719v-.14844l-.01171-.1328v-.14844l-.0625-.23438-.02735-.1211-.04297-.10156-.04687-.10546-.0586-.08594-.05859-.08985-.04297-.10546-.0625-.08594-.14844-.14844-.0703-.07422-.10548-.04687-.10547-.04297-.10156-.04297-.29687-.29688-.08985-.07421-.08594-.0586-.10546-.04297-.08985-.0625-.08594-.0586-.10546-.04296-.08985-.0586-.08594-.0625-.07421-.0703-.10547-.04688-.08594-.0586-.10547-.04296-.08984-.0625-.10156-.04297-.10547-.04297-.08594-.0586-.10547-.04687-.10547-.04297-.10156-.04687-.08985-.0586-.10156-.04297-.10547-.04296-.08984-.0625-.11719-.02735-.13281-.01562-.13281.01562H299.75l-.13281.01563-.11719-.03125-.08984-.0586-.07422-.07422-.08985-.05859-.10156-.04688h-.14844l-.12109-.02734-.10156-.04297-.07422-.07422-.11719-.17968-.08984-.0586-.10156-.04297-.08985-.0625-.10547-.04296-.08984-.0586-.08594-.0586-.10547-.04687-.0586-.08594-.05858-.08984-.04297-.10547-.04688-.10156-.07422-.07422-.08594-.0586-.07421-.07421-.08985-.0586-.22265-.22265-.04297-.10547-.03125-.26563.10547-.04296h.14453l.10547.04296.07421.07422.08985.0586.08594.0586.10546.04687.08985.05859.14844.14844.0703.07422.14845.14843.0625.08594.07421.07422.08594.0586.07422.07421.08985.0625.08984.0586.08594.05859.26953.17578.10156.04688.10547.04296.10156.04297.04688-.07421.05859-.08594.07422-.07422.07031-.07422.10547.04297.07422.07422.0586.08984.04296.10156.04688.10547.04296.10547.1211.02735.11719-.02735.07421-.08984.04297-.10547.0586-.08985.07422-.07421.10546-.04297.1172-.02735.1328.01172.08985.0586.14844.14843.05859.08985.04297.10547.04687.10156.04297.10547.04297.10156.10547.04688.10547.04296.13281.01563.08594-.0586.0586-.08984.07421-.07422.10547-.04297.11719.02735.10547.04687.10156.04297.10547.04297.10156.04688.17969.11718v.11719l-.01563.13281.01563.13281.01562.13672.0586.08594.10156.04688.1211.02734.11718.03125h.14844l.11719-.03125.05859-.08984.17969-.1172.05859-.08983.07422-.07422.0586-.08594.11718-.17969.17969-.11719.11719.03125.08984.0586.04297.07422-.01563.1328v.1172l.08985.05859h.14843l.13282-.01563.1328-.01171.26563-.03125.10547-.04297.11719-.03125.1211-.02735.07421-.07421.07031-.07422.0625-.08985-.01562-.10547-.04688-.10156-.10156-.04297-.10547-.01562-.11718.02734-.26563.03125h-.14844l-.07421-.07422-.08985-.0586-.11719-.03124-.11718-.02735-.13282-.01562h-.14843l-.13282.01563h-.29687l-.10547-.04688-.14844-.14844-.04297-.10156-.05859-.08984.22266-.22266.08593-.0586.10547-.04296.11719-.03125.13281-.01563.13281.01563.13672.01562.10157.04297.1328-.01172.08985-.0625.10156-.04297.0625-.08984-.04687-.10156-.08984-.0586-.1172-.03125-.10155-.04296-.0586-.08985-.0625-.08984v-.11719l.01563-.13281.10547-.04688.07421-.07031v-.1211l-.08984-.05859-.03125-.11719.08985-.05859.07421-.07422.04297-.10547.0586-.08984.04687-.10156.01563-.13281v-.14844l-.04688-.10547-.04297-.10156-.08984-.0586-.13281-.01562-.10157-.04297-.13671-.01563-.1172-.03125h-.4453l-.13282-.01562-.13281-.01172-.13281-.01563-.11719-.03125h-.14844l-.13281-.01562-.13281-.01172-.26563-.03125-.1211-.04297-.08593-.0586-.07422-.07421v-.14844l.01172-.13281.10547-.04688.10156-.04296.13281-.01563h.15235l.13281-.01562h.29297l.1211.03125.10156.04296.08984.0586.23438.0625.12109-.04688.08984-.05859.10156-.04297.13282-.01562.10547.04296.10156.04688.13281.01172.1211-.02735h.14453l.12109-.03125.11719-.02734.10547-.04687.07421-.07422.08594-.0586.14844-.14843.0586-.08594.04687-.10547.02734-.11719.01563-.10547-.10156-.04296-.08985-.0586-.11719-.03125-.10546-.04297-.08985-.0625-.07422-.08594-.07422-.07421-.10156-.04297-.10547-.04688-.10156-.04297-.0586-.08984-.04687-.10156-.08594-.21094-.0625-.08594-.05859-.08984-.07422-.07422-.08594-.0586h-.26953l-.11719.03126-.08984.05859-.10156.04297-.13281.01562-.10547-.01562-.02735-.11719-.0625-.08984-.11718-.03125-.10157-.04297-.14843-.14844-.03125-.11719-.01563-.10546.07422-.07422.17969-.1172.11719-.02733.11718-.03125.13672.01562.10156.04297.10547.04297.10156.04687.10547.04297.1172.03125.1328.01563.1172.02734.1328.01563.10547-.01563.08985-.0586-.07422-.07421-.10547-.04297-.07422-.07422-.07422-.08984-.14844-.14844-.08593-.0586-.08985-.05859-.07422-.07422-.08984-.0586-.10156-.04687-.1211-.02734-.10156-.04688-.10547-.04296-.11719-.03125-.10156-.04297-.1211-.03125h-.14843l-.11719.03125-.10546.04297-.08594.0625-.17969.11718-.08594.0586-.08984.0586-.10547.04687-.08594.05859-.10547.04297-.10156.04297-.10547.04687-.07422.07422-.05859.08985-.0586.08593-.04687.10547-.0586.08594-.07421.07422-.13281-.01172-.1172-.03125h-.11718l-.07422.07422-.08984.0586-.07422.07421-.08984.0586-.08594.05859-.10547.04687-.10156.04297-.13672.01563-.10156-.04297-.14844-.14844-.10547-.04688h-.08594l-.10547.04688-.10156.04297-.1211.03125-.11718-.03125-.07422-.07422v-.11719l.03125-.1211.07422-.0703.0586-.08985.07421-.07422.11719-.03125.10547-.04296h.29297l.13281-.01563.13672-.01563.10156-.04296.08985-.0586.10156-.04687.08984-.0586.13281-.01171.08985.05859.13281.01172.08984-.0586.08594-.05859.10547-.04297.08984-.0586.08594-.0625.08985-.05859.14843-.14843.0586-.08594.05859-.08985.10547-.04296.13281-.01563.11719.02735.1211.03125.05859-.0586.05859-.08984.03125-.26563.02734-.11719.10547.01172.13281.01563.10157-.04297.08984-.0586.0586-.08984.07421-.07422.0586-.08984.04687-.10156.01172-.13281-.01172-.13282-.04687-.10547-.14844-.14843-.0586-.08985-.05859-.08594-.04297-.10546v-.44532l.01563-.1328v-.14845l.01172-.1328-.0586-.0586-.08984.0586-.10156-.04298-.17969-.11719-.08594-.05859-.0625-.08984-.0586-.08985-.07421-.07421-.08594-.0586-.1211.03125-.10155.01172-.10547.04688-.08594.05859-.10547.04297-.14844.14844-.08984.05859-.08594.0586-.08984.0625-.10547.04296-.13281.01563v-.1211l.10547-.04297.11718-.03125.07422-.0703.04297-.10548v-.14844l-.02734-.11718-.14844-.14844-.13281-.01563h-.14844l-.11719.03125-.10547.04297-.10156.04297-.08984.0625-.11719.02735-.07422-.07422.01172-.13281-.04297-.10157-.04297-.10547-.08984-.05859-.11719.02734-.1211.03125-.11718.03125-.10156.04297-.1211.03125-.10156.04297-.10547.04297-.08984.0586-.10156.01562v-.11719l.01562-.13281-.0586-.08985-.07421.04297-.14844.14844-.0586.08985-.07421.07421-.04688.10547-.04296.10156-.07422.07422-.0586.08985-.07422.07422-.05859.08593-.07422.07422-.08984.0625-.07422.07031-.07422.07422-.10156.01563-.13281.01562-.10547-.04296v-.1211l.14843-.14844.04297-.10156.0586-.08984.04687-.10156.04297-.10547.0586-.08985.03124-.11719.04297-.10156.03125-.1211.02735-.11718.04687-.10547.04297-.10156.04297-.10547.07422-.07031.08984-.0625.08985-.0586.10156-.04296h.29687l.26563-.03125.10547-.04297-.07422-.07422-.11719-.03125-.10547-.04297-.08984-.0586-.10156-.04687-.08985-.0586-.10156-.04296-.10547-.04297-.08984-.0625-.08594-.0586-.10547-.04296-.10156-.04297-.1211-.03125-.11718-.03125-.10157-.04297L297.5 410.25l-.10156-.04297-.08985-.0586-.04296-.10546-.01563-.13281.10156-.04297.13281-.01563.13672.01563.13282-.01563.10156-.04297.0586-.08984.01562-.10547-.08985-.0586-.07421-.07421-.10157-.04297-.08984-.0586-.14844-.14843-.04297-.10547-.01562-.13281v-.29297l-.0586-.08985-.08984-.05859-.07422-.07422-.04297-.10547-.03125-.11718-.0586-.08985-.07421-.07422-.11719-.02734-.07422-.07422-.08984-.0586-.08984-.0625-.08594-.05859-.07422-.07421-.0586-.08594-.04687-.10547-.08594-.0586-.14843-.14843-.19532-.0586-.1328.01563-.10157.04297-.07422.07422-.04688.10156-.04296.10547-.0586.08984-.0586.08594-.29687.29687-.08984.0586h-.08594l-.0625-.08594-.04297-.10547.03125-.11719.0586-.08984.02734-.11719-.01172-.13281-.08984-.0625-.10547.04688-.11719.02734-.11719.03125-.26953.17578-.10156.04688-.11719.02734-.10546.04687-.08985.0586-.10156.04297-.0586-.08594-.04687-.10547.01563-.13281.04687-.10547.07031-.07422.07422-.07031.0586-.08985v-.14843l-.04297-.10547h-.23829l-.10156.04687-.03125.11719-.02734.11719-.03125.1211-.07422.04296-.13281.01563-.07422-.04688-.04297-.10156-.04297-.10547-.04687-.10156-.04297-.10547-.1211.03125-.10156.04297-.13281.01562-.11719.03125-.10547.04297-.08984.0586-.10156.04687-.1211.02734-.13281.01563-.10156-.04297-.0586-.08985-.04687-.10546-.04297-.10157-.04297-.10546v-.1172l.0586-.08984.08593-.05859.17969-.11719.10156-.04687.10547-.04297.10547-.0586.10156-.04296.08985-.0625.10156-.04297.10547-.0586.10156-.04687.08984-.0586.10547-.04296.10156-.04297.08985-.0625.10156-.04297.13672-.01563.11719.03125.10156.04297.1211.03125.10156.04297.10546.04688.10157.04296.10547.04297.10156.04688.10547.04297.10156.04297.10547.04687.08594.0586.10546.04296.1172.03125.10546.04297.10156.04688.08985.0586.10547.04296.10156.04297.10547.04687.11719.02735.10156.04687.1211.02735h.14843l.08594-.0586.01562-.10156.0586-.08984-.02735-.1172-.07422-.07421-.11719-.17969-.07421-.07422-.08985-.07421-.17969-.1172-.08593-.05859-.10547-.04296-.10156-.04688-.26954-.17578-.05859-.08985-.07422-.07421-.0586-.08985-.04296-.10156-.03125-.11719-.01563-.13672v-.5625l-.01171-.1328-.01563-.13282-.03125-.11719-.01562-.13281-.01172-.13281-.03125-.1211-.22266-.22265-.0586-.08594-.01562-.10547.03125-.11719.13281-.01562v-91.41406H172.9922v1.45312l-.0586.23438-.35156 1.05078-.17187.52343-.1172.34766-.17577.41016-.11719.17187-.23438.29297-.23046.0586h-.35157l-.11718.05859-.23047.40625v.29297l.11719.17578.23046.23047.1172.23437.64062.75781.29297.46485.17578.23437.23047.35156.23437.34766.64063.8164.17578.46485.17187.41016.11719.69531.17578.46875.11719 1.39844.0586.46484v.875l.11718 1.04688v4.78125l-.0586.46484-.35156 1.28125-.17578.52344-.11328.41015-.35156.9297L172.93359 336l-.23437.58203-.11719.17578-.17187.34766-.17578.40625-.35157.8164-.0586.29297-.11327.29297-.11719.28906-.0586.17579-.11718.875-.0586.40625-.05859.11718-.0586.17579-.05859.17187-.23047.52734-.11718.17188v.23437l-.11719.23438-.0586.17187-.17577.58594v.28906l-.0586.17579v.29296l-.0586.11329-.05859.52734v.17187l-.05468.23438v2.6211l-.17578.8164-.1172.17578-.17577.23438-.1172.17187-.11327.23438-.58594.93359-.23047.28906-.29297.46485-.17578.23437-.28906.35156-.35156.69922-.11328.23047-.17579.41016-.17578.23046-.40625.52735-.8164.69922-.29297.17187-.28906.23438-.17579.11719-.17578.17578-.52344.40625-.52734.17578-.17187.17578-.23438.05469-.64062.17578h-.75782m12.21094 31.02344l-1.07422.44921.35938.89454 1.25-.71485.44531-.53906-.98047-.08985"/><path fill="#d3d3d3" fill-opacity="0" fill-rule="evenodd" d="M201.50781 416.59766h-.89453l.44922.6289.98047.35938.80469-.08985.4453-.98828-.17577.08985-.71485-.35547-.89453.35547m154.6211 59.0703l-.0586-.52343v-.29297l.11328-.29297.0586-.23046.46875-.46875h.11328l.11719-.11329.11718-.05859h.17579l.23437-.0586h.34766l.23437.0586.11719.0586.23047.17187.0586.17578.11718.58203v.29297l-.11719.17578-.17187.28906-.17579.17579-.52734.52343-.23047.23438-.11719.0586h-.17578l-.11718-.0586-.40625-.29297-.17579-.11719-.11718-.0586-.0586-.11327-.05468-.1172m6.64062-10.95702l-.0586-.17188v-1.10937l.0586-.17188.17578-.0586.17188-.05858h.17578l.23437-.0586.1172.0586.05858.69921-.05859.17188-.11719.17578-.11718.0586-.23438.52343-.11328.0586h-.23438l-.05859-.1172m9.61328-14.39062l-.11719-.17578v-.69922l.29297-.875.1172-.17187.17577-.35156.11328-.23047.1172-.29297.35155-.75781.1172-.23047.17187-.23438h.17578l.11719-.0586h.64062l.11719.0586.23437.23438.17188.11328.35156.29297.11719.11718.11328.17579v.11328l.11719.05859.11718.11719v.69922l-.05859.17578v.23047l-.0586.17578-.34765 1.05078-.11719.23047-.11719.23437-.11718.0586-.23047.23437-.64063.28906h-.875l-.41015-.11718-.64063-.46485"/><path fill="none" stroke="#bebebe" stroke-linecap="round" stroke-linejoin="round" stroke-miterlimit="10" stroke-width=".5" d="M467.95703 311.69531H144.02734v168.625h323.9297v-168.625"/><g clip-path="url(#a)"><path fill="#fff" fill-opacity="0" fill-rule="evenodd" d="M144 475.89063v4.4375h.0039H144V311.67188h.0039H144v164.21875"/></g><g clip-path="url(#b)"><path fill="#fff" fill-opacity="0" fill-rule="evenodd" d="M144.0039 480.32813V311.67188h8.8711v128.68359l-.03516.02734.03516.01563.0586-.01563-.0586-.02734v-128.6836h48.82422v103.92579l-4.4375 2.1914-4.4414.33985-.08595.0625-4.35156 3.30078-1.25 1.13672-2.39062 4.4414-.79688 2.09375-4.0664 2.34375-.3711.07813-4.4414.10156L171 431.50781l-.3711-.07031-4.4375-.6289-1.03124.69921-3.40625 1.34375-2.69141 3.09375-1.41016 4.4375.14453 4.4375.125 4.4414.06641 4.4375-.28516 4.4375 1.28516 4.4375 2.76563 2.58985 4.4375.16406 4.4375 1.31641 2.26172.3711 2.17578 2.30078 1.3164-2.30079 3.125-.87109 4.4375.1875 4.4375-.22656 4.4375-.8125 4.4414-1.09375 2.33204-1.625 2.10547-.95703 4.4375-3.28906 1.01953-.19141 3.28125-4.4375-4.30078-2.04688-4.30078-2.39062-.13672-.20313-4.4375-2.26171-4.4414-.72657-1.34376-1.25-3.09375-3.97656-.32812-.46094.32812-3.76562 4.4375 1.42578 3.30078 2.33984 1.14063 1.32422 4.4375 1.20703 4.4375 1.38281.98437.52344 3.45313 3.57422 4.4414-.67187 4.4375-.65235 4.4375-.07422 3.4922-2.17578.9453-.7539 4.23829-3.6836-1.12891-4.4375-3.10938-3.65625-.4414-.78125-3.9961-4.22656-4.4375.4414-.80468-.65234-2.89844-4.4414-.73438-1.9375-4.4414-1.90235-4.4375-.07031-1.65625-.52734-2.78125-2.59375V311.67187h181.97266v136.78516l-.85547.80469.85546 1.23828 1.8125-1.23828-1.8125-.80469V311.67188h84.32422v168.65625H144.00391"/></g><path fill="#50fcfc" fill-rule="evenodd" d="M152.875 440.39844l-.03516-.01563.03516-.02734.0586.02734-.0586.01563m4.92188 4.42187l-.14454-4.4375 1.41016-4.4375 2.6914-3.09375 3.40626-1.34375 1.03125-.69922v3.8047l-2.28516 1.33202-2.15234 1.22266-2.02735 3.21484-.92969 4.4375.26563 4.4414.09375 4.4375.73047 4.4375 1.86719 3.15235 4.4375-.47656 4.32422 1.76172.11328.0586.22656-.0586 2.16797-4.4375 2.04297-1.10156 2.07422 1.10156 2.36718 3.45703 2.79688.98047 1.64062.27344 4.4375.32812 1.69922-.60156 2.73828-1.11328 4.1836-3.32422.2578-.70313 2.28126-3.73437-2.28125-1.54297-4.4414-2.07422-1.2461-.82031-3.1914-2.94531-2.88282-1.4961-1.55469-3.64453-.1914-.79297-3.57422-4.4375-.67188-.29687-4.4414.23828-4.4375-.48828-4.4375-.78516v-3.80469l4.4375.62891.37109.07031 4.0664.17969 4.44141-.10156.3711-.07813 4.0664-2.34375.79688-2.09375 2.39062-4.4414 1.25-1.13672 4.35156-3.30078.08594-.0625 4.4414-.33985 4.4375-2.1914v3.5664l-4.4375 1.25-4.4414 1.67578-.6211.53907-3.16796 4.4414-.51172 4.4375 4.30078 2.54688 2.58594 1.89062 1.85547 1.55078 4.4375.38672 4.4375-.25 3.6211 2.75.8164.57813 4.4414 1.10547 4.4375 1.14062 4.4375-.19531 2.9961-2.6289 1.4414-2.75.56641-1.6875-.5664-.66407-2.13282-3.77344-2.30469-2.4375-4.4375.23828-2.74609-2.23828-1.6914-2.1875-2.89063-2.2539-1.55078-1.25-4.4375-1.28907-4.4375-.92578v-3.5664l2.78125 2.59375 1.65625.52734 4.4375.07031 4.4414 1.90235.73438 1.9375 2.89844 4.4414.80469.65235 4.4375-.44141 3.99609 4.22656.4414.78125 3.10938 3.65625 1.1289 4.4375-4.23827 3.6836-.94532.7539-3.49219 2.17578-4.4375.07422-4.4375.65235-4.4414.67187-3.45313-3.57422-.98437-.52344-4.4375-1.3828-4.4375-1.20704-1.14063-1.32422-3.30078-2.33984-4.4375-1.42578-.32812 3.76562.32812.46094 3.09375 3.97656 1.34375 1.25 4.4414.72656 4.4375 2.26172.13673.20313 4.30078 2.39062 4.30078 2.04688-3.28125 4.4375-1.01953.1914-4.4375 3.28907-2.10547.95703-2.33203 1.625-4.4414 1.09375-4.4375.8125-4.4375.22656-4.4375-.1875-3.125.8711-1.31641 2.30078-2.17578-2.30079-2.26172-.37109-4.4375-1.3164-4.4375-.16407-2.76563-2.58984-1.28516-4.4375.28516-4.4375-.0664-4.4375-.125-4.4414"/><path fill="#00e8fc" fill-rule="evenodd" d="M159.0625 449.26172l-.26563-4.4414.9297-4.4375 2.02734-3.21485v4.76562l-1.28516 2.88672.4961 4.4414.1328 4.4375.65626 1.8125 3.3125-1.8125 1.125-1.01952 2.91406 1.01953 1.52344.34375.85156-.34375-.23047-4.4375-.6211-3.09766-4.4375.71875-1.34374-2.0625-3.09375-2.88672v-4.76562l2.15234-1.22266 2.28516-1.33203 4.4375.78516 4.4375.48828 4.4414-.23828.67188.29687 3.57422 4.4375.1914.79297 1.55469 3.64453 2.88281 1.4961 3.1914 2.9453 1.2461.82032 4.4414 2.07422 2.28126 1.54297-2.28125 3.73437-.25781.70313-4.1836 3.32422-2.73828 1.11328-1.69922.60156-4.4375-.32812-1.64062-.27344-2.79688-.98047-2.36719-3.45703-2.07421-1.10156-2.04297 1.10156-2.16797 4.4375-.22656.0586-.11328-.0586-4.32422-1.76172-4.4375.47656-1.8672-3.15234-.73046-4.4375-.09375-4.4375"/><path fill="#00d4fc" fill-rule="evenodd" d="M160.96484 449.26172l-.49609-4.4414 1.28516-2.88673 3.09375 2.88672 1.34375 2.0625 4.4375-.71875.62109 3.09766.23047 4.4375-.85156.34375-1.52344-.34375-2.91406-1.01953-1.125 1.01953-3.3125 1.8125-.65625-1.8125-.13282-4.4375"/><path fill="#00e8fc" fill-rule="evenodd" d="M192.82031 434.05469l-4.30078-2.54688.51172-4.4375 3.16797-4.4414.6211-.53907 4.4414-1.67578 4.4375-1.25 4.4375.92578v2.28516l-1.40625.2539-3.03125 1.50391-4.4375 2.375-.48047.5625.48047.8086 4.4375 2.9414 4.4375-.28906 4.4375-1.58984 1.55078-1.8711-1.55078-1.17969-3.83594-3.26171-.60156-.25391v-2.28516l4.4375 1.28907 1.55078 1.25 2.89063 2.2539 1.6914 2.1875 2.7461 2.23828 4.4375-.23828 2.30468 2.4375 2.13281 3.77344.56641.66406-.5664 1.6875-1.44141 2.75-2.9961 2.6289-4.4375.19532-4.4375-1.14062-4.4414-1.10547-.8164-.57813-3.6211-2.75-4.4375.25-4.4375-.38672-1.85547-1.55078-2.58594-1.89062"/><path fill="#00d4fc" fill-rule="evenodd" d="M197.26172 427.8789l-.48047-.80859.48047-.5625 4.4375-2.375 3.03125-1.5039 1.40625-.25391.60156.2539 3.83594 3.26173 1.55078 1.17968-1.55078 1.8711-4.4375 1.58984-4.4375.28906-4.4375-2.9414"/><path fill="#50fcfc" fill-rule="evenodd" d="M383.67188 450.5l-.85547-1.23828.85546-.80469 1.8125.80469-1.8125 1.23828"/><g clip-path="url(#c)"><path fill="#fff" fill-opacity="0" fill-rule="evenodd" d="M467.9961 480.32813H468V311.67188h-.0039H468v168.65625h-.0039"/></g><path fill="#fff" fill-opacity="0" fill-rule="evenodd" d="M205.70313 452.10156l5.53125 1.8711 3.1914-9.4375-5.53516-1.8672-3.1875 9.4336"/><path fill-rule="evenodd" d="M211.6211 445.52344l.48046.16406-2.01562 5.96094-.7461-.25 1.4375-4.2539-1.3164-.44532.17969-.52735.55078.1211.2578.02734.2461-.01172.23828-.0664.23047-.14453.22656-.23438.23047-.33984"/><g clip-path="url(#d)"><path fill="none" stroke="#000" stroke-linecap="round" stroke-linejoin="round" stroke-miterlimit="10" stroke-width=".5" d="M147.48047 480.82031l-6.96094-.98437"/></g><g clip-path="url(#e)"><path fill="none" stroke="#000" stroke-linecap="round" stroke-linejoin="round" stroke-miterlimit="10" stroke-width=".5" d="M147.48047 480.82031l.83594 2.3086"/></g><g clip-path="url(#f)"><path fill="none" stroke="#000" stroke-linecap="round" stroke-linejoin="round" stroke-miterlimit="10" stroke-width=".5" d="M160.74219 481.09375l-6.85547-1.53125"/></g><g clip-path="url(#g)"><path fill="none" stroke="#000" stroke-linecap="round" stroke-linejoin="round" stroke-miterlimit="10" stroke-width=".5" d="M160.74219 481.09375l.65234 2.36719"/></g><g clip-path="url(#h)"><path fill="none" stroke="#000" stroke-linecap="round" stroke-linejoin="round" stroke-miterlimit="10" stroke-width=".5" d="M174.02734 481.21875l-6.79687-1.78125"/></g><g clip-path="url(#i)"><path fill="none" stroke="#000" stroke-linecap="round" stroke-linejoin="round" stroke-miterlimit="10" stroke-width=".5" d="M174.02734 481.21875l.56641 2.38672"/></g><g clip-path="url(#j)"><path fill="none" stroke="#000" stroke-linecap="round" stroke-linejoin="round" stroke-miterlimit="10" stroke-width=".5" d="M187.42188 480.82813l-6.95313-1"/></g><g clip-path="url(#k)"><path fill="none" stroke="#000" stroke-linecap="round" stroke-linejoin="round" stroke-miterlimit="10" stroke-width=".5" d="M187.42188 480.82813l.83203 2.30859"/></g><g clip-path="url(#l)"><path fill="none" stroke="#000" stroke-linecap="round" stroke-linejoin="round" stroke-miterlimit="10" stroke-width=".5" d="M200.76172 480.63672l-7-.61719"/></g><g clip-path="url(#m)"><path fill="none" stroke="#000" stroke-linecap="round" stroke-linejoin="round" stroke-miterlimit="10" stroke-width=".5" d="M200.76172 480.63672l.95312 2.26172"/></g><g clip-path="url(#n)"><path fill="none" stroke="#000" stroke-linecap="round" stroke-linejoin="round" stroke-miterlimit="10" stroke-width=".5" d="M214.07813 480.59766l-7.00782-.53907"/></g><g clip-path="url(#o)"><path fill="none" stroke="#000" stroke-linecap="round" stroke-linejoin="round" stroke-miterlimit="10" stroke-width=".5" d="M214.07813 480.59766l.98046 2.25"/></g><g clip-path="url(#p)"><path fill="none" stroke="#000" stroke-linecap="round" stroke-linejoin="round" stroke-miterlimit="10" stroke-width=".5" d="M227.33984 480.98828l-6.90234-1.3164"/></g><g clip-path="url(#q)"><path fill="none" stroke="#000" stroke-linecap="round" stroke-linejoin="round" stroke-miterlimit="10" stroke-width=".5" d="M227.33984 480.98828l.72657 2.34375"/></g><g clip-path="url(#r)"><path fill="none" stroke="#000" stroke-linecap="round" stroke-linejoin="round" stroke-miterlimit="10" stroke-width=".5" d="M240.58203 481.30469l-6.7539-1.94922"/></g><g clip-path="url(#s)"><path fill="none" stroke="#000" stroke-linecap="round" stroke-linejoin="round" stroke-miterlimit="10" stroke-width=".5" d="M253.8164 481.54688l-6.58984-2.4336"/></g><g clip-path="url(#t)"><path fill="none" stroke="#000" stroke-linecap="round" stroke-linejoin="round" stroke-miterlimit="10" stroke-width=".5" d="M267.16406 481.45703l-6.65625-2.2539"/></g><g clip-path="url(#u)"><path fill="none" stroke="#000" stroke-linecap="round" stroke-linejoin="round" stroke-miterlimit="10" stroke-width=".5" d="M279.60547 482.84375l-4.90625-5.03125"/></g><g clip-path="url(#v)"><path fill="none" stroke="#000" stroke-linecap="round" stroke-linejoin="round" stroke-miterlimit="10" stroke-width=".5" d="M292 483.49219l-3.0664-6.32422"/></g><g clip-path="url(#w)"><path fill="none" stroke="#000" stroke-linecap="round" stroke-linejoin="round" stroke-miterlimit="10" stroke-width=".5" d="M303.45703 476.83203l.64844 6.9961"/></g><path fill="none" stroke="#000" stroke-linecap="round" stroke-linejoin="round" stroke-miterlimit="10" stroke-width=".5" d="M303.55078 477.84766l1.02344-.67188"/><g clip-path="url(#x)"><path fill="none" stroke="#000" stroke-linecap="round" stroke-linejoin="round" stroke-miterlimit="10" stroke-width=".5" d="M315.9336 477.01172l2.32421 6.63281"/></g><path fill="none" stroke="#000" stroke-linecap="round" stroke-linejoin="round" stroke-miterlimit="10" stroke-width=".5" d="M316.27344 477.97656l.83203-.90234"/><g clip-path="url(#y)"><path fill="none" stroke="#000" stroke-linecap="round" stroke-linejoin="round" stroke-miterlimit="10" stroke-width=".5" d="M327.35156 478.60547l6.1211 3.44922"/></g><path fill="none" stroke="#000" stroke-linecap="round" stroke-linejoin="round" stroke-miterlimit="10" stroke-width=".5" d="M328.24219 479.10547l.02734-1.22656"/><g clip-path="url(#z)"><path fill="none" stroke="#000" stroke-linecap="round" stroke-linejoin="round" stroke-miterlimit="10" stroke-width=".5" d="M340.71484 478.51953l6.02344 3.61719"/></g><path fill="none" stroke="#000" stroke-linecap="round" stroke-linejoin="round" stroke-miterlimit="10" stroke-width=".5" d="M341.58984 479.04688l.06641-1.22657"/><g clip-path="url(#A)"><path fill="none" stroke="#000" stroke-linecap="round" stroke-linejoin="round" stroke-miterlimit="10" stroke-width=".5" d="M353.85547 478.84375l6.3711 2.96875"/></g><path fill="none" stroke="#000" stroke-linecap="round" stroke-linejoin="round" stroke-miterlimit="10" stroke-width=".5" d="M354.78125 479.27734l-.0625-1.22656"/><g clip-path="url(#B)"><path fill="none" stroke="#000" stroke-linecap="round" stroke-linejoin="round" stroke-miterlimit="10" stroke-width=".5" d="M366.84375 480.29297l7.02734.07031"/></g><g clip-path="url(#C)"><path fill="none" stroke="#000" stroke-linecap="round" stroke-linejoin="round" stroke-miterlimit="10" stroke-width=".5" d="M367.86328 480.30469l-.5625-1.08985"/></g><g clip-path="url(#D)"><path fill="none" stroke="#000" stroke-linecap="round" stroke-linejoin="round" stroke-miterlimit="10" stroke-width=".5" d="M380.16797 480.0625l7.00781.53125"/></g><g clip-path="url(#E)"><path fill="none" stroke="#000" stroke-linecap="round" stroke-linejoin="round" stroke-miterlimit="10" stroke-width=".5" d="M381.1875 480.14063l-.49219-1.125"/></g><g clip-path="url(#F)"><path fill="none" stroke="#000" stroke-linecap="round" stroke-linejoin="round" stroke-miterlimit="10" stroke-width=".5" d="M393.58984 479.42578l6.79297 1.80469"/></g><path fill="none" stroke="#000" stroke-linecap="round" stroke-linejoin="round" stroke-miterlimit="10" stroke-width=".5" d="M394.57813 479.6875l-.27735-1.19531"/><g clip-path="url(#G)"><path fill="none" stroke="#000" stroke-linecap="round" stroke-linejoin="round" stroke-miterlimit="10" stroke-width=".5" d="M406.8164 479.86719l6.96876.92187"/></g><g clip-path="url(#H)"><path fill="none" stroke="#000" stroke-linecap="round" stroke-linejoin="round" stroke-miterlimit="10" stroke-width=".5" d="M421.66406 483.25l3.90625-5.83984"/></g><g clip-path="url(#I)"><path fill="none" stroke="#000" stroke-linecap="round" stroke-linejoin="round" stroke-miterlimit="10" stroke-width=".5" d="M435.30469 483.44531l3.2539-6.23047"/></g><g clip-path="url(#J)"><path fill="none" stroke="#000" stroke-linecap="round" stroke-linejoin="round" stroke-miterlimit="10" stroke-width=".5" d="M449.01953 483.6211l2.45313-6.58594"/></g><g clip-path="url(#K)"><path fill="none" stroke="#000" stroke-linecap="round" stroke-linejoin="round" stroke-miterlimit="10" stroke-width=".5" d="M461.53516 483.19922l4.05468-5.73828"/></g><g clip-path="url(#L)"><path fill="none" stroke="#000" stroke-linecap="round" stroke-linejoin="round" stroke-miterlimit="10" stroke-width=".5" d="M147.47656 467.52734L140.52344 466.5"/></g><path fill="none" stroke="#000" stroke-linecap="round" stroke-linejoin="round" stroke-miterlimit="10" stroke-width=".5" d="M147.47656 467.52734l.82422 2.3125m12.39453-1.86328l-6.75781-1.92578m6.75781 1.92578l.51172 2.39844M174 468.01172l-6.73828-1.9961M174 468.01173l.48828 2.40625m12.83203-2.4336l-6.7539-1.9414m6.7539 1.9414l.51172 2.39844m12.82031-2.45312l-6.78515-1.83203m6.78515 1.83203l.54688 2.39062m12.83594-2.70312l-6.92188-1.20703m6.92188 1.20703l.76172 2.33594m12.60156-2.7422l-7.01563-.39452m7.01563.39453l1.03125 2.22656m12.28125-2.17187l-7.01172-.50391m7.01172.5039l.99219 2.2461m12.17968-1.48047l-6.72656-2.03516m5.75 1.73829l.23828 1.20312m14.13281-1.21875l-6.8828-1.41016m5.8828 1.20313l.34766 1.17969m13.98438-1.0586l-6.91797-1.23828m5.91015 1.0586l.375 1.16796m12.7461-4.30078l-4.51563 5.38672m3.85938-4.60156l1.19922.2539m10.84765-1.84375l-.66406 6.9961m.5664-5.97656l1.13282-.47266m11.67187-.55078l.55078 7.0039m-.46875-5.98437l1.03516-.66016m11.40234-.20312l2.14063 6.6914m-1.82813-5.71875l.85547-.8789m12.39453-.16406l1.64844 6.83203m-1.41015-5.83594l.91796-.8164m13.09766-.27344l-.23047 7.01953m.19531-6l1.10157-.53907m10.97656-.28906l2.3125 6.63672m8.66016-3.65234l6.99609.66797m-5.97656-.57032l-.46875-1.1328m12.83593.58983l6.85547 1.5586m-5.85547-1.33203l-.32421-1.1836m12.60156 2.31641l6.92969-1.16016m-5.92188.9922l-.7461-.97267m13.07032 1.23047l6.89844-1.33984m7.05859 2.78125l5.61328-4.22266m-4.79687 3.60938l-1.11328-.51953m14.03515 1.60547l4.76563-5.16797m-4.07032 4.41406l-1.1875-.3086m13.64063.89844l5.09766-4.83984"/><g clip-path="url(#M)"><path fill="none" stroke="#000" stroke-linecap="round" stroke-linejoin="round" stroke-miterlimit="10" stroke-width=".5" d="M147.45313 454.34375l-6.90625-1.29297"/></g><path fill="none" stroke="#000" stroke-linecap="round" stroke-linejoin="round" stroke-miterlimit="10" stroke-width=".5" d="M147.45313 454.34375l.73437 2.34375m12.20703-1.29297l-6.15625-3.39062m6.15625 3.39062l-.03906 2.45313m12.75781-1.66407l-4.96875-4.96875m4.2461 4.2461l-.35938 1.17187m14.82813-.96875l-5.82813-3.92968m4.98047 3.35937l-.1289 1.21875m14.05468-.33984l-5.35547-4.54688m4.57813 3.88281l-.26172 1.19922m14.85937-1.32031l-6.36328-2.98047m5.4375 2.54688l.0625 1.22656m14.01953-.49219l-6.04687-3.57812m5.16797 3.05468l-.0547 1.22657m14.73829-2.5547l-7.02734.125m6.0039-.10937l.59766 1.07422m13.74219-1.01562l-7.02735-.02344m6.0039.01953l.57423 1.08594m13.7539-.82031l-7.0078-.54688m5.98827.46875l.48828 1.125m13.64063-2.52734l-6.59766 2.41406m5.64063-2.0625l.91015.82031m12.0547-2.85937l-3.98048 5.78906m3.39844-4.94922l1.22266.14063m11.26562-1.55078l-1.16406 6.92968m.9961-5.92187l1.16405-.38672m11.92188-.66406l-.3711 7.01562m.31641-5.9961l1.11328-.51952m12.73438-.44141l-1.32813 6.89844m1.13672-5.89453l1.17188-.36329m12.14062-.67578l-.9375 6.96485m.9375-6.96485l2.30078-.85156m11.2461.89453l-1.40235 6.88281m1.19922-5.8828l1.17578-.34766m10.6211-.57422l2.04297 6.72265m-1.7461-5.74218l.86719-.8672m11.07031.4336l4.20313 5.63281m-3.59375-4.8125l.52343-1.10937m11 1.85156l6.56641 2.5039m-5.60937-2.13671l-.15235-1.21875m12.28516 1.94922l7.01953.3125m-6-.26563l-.52734-1.10937m12.8203 1.33984l7.02345-.2461m-6.00391.21095l-.61328-1.0625m12.91797 1.26562l7.0039-.58203m-7.0039.58203l-1.32813-2.0625m15.0039 3.34375l6.28516-3.14062m-6.28515 3.14062l-2-1.42187m14.97656.35156l6.95703-1"/><g clip-path="url(#N)"><path fill="none" stroke="#000" stroke-linecap="round" stroke-linejoin="round" stroke-miterlimit="10" stroke-width=".5" d="M147.02344 442.17578l-6.04688-3.58594"/></g><path fill="none" stroke="#000" stroke-linecap="round" stroke-linejoin="round" stroke-miterlimit="10" stroke-width=".5" d="M147.02344 442.17578l-.11719 2.44922m13.19531-2.10156l-5.57031-4.28125m4.75781 3.66015l-.20312 1.21094m13.59375.125l-4.10156-5.70703m3.5039 4.875l-.54297 1.10156m13.40625.24219l-2-6.73438m1.70703 5.75782l-.87109.85937m13.46094.26563l.03515-7.02735m12.39844 6.91016l1.80078-6.79297m-1.53906 5.80469l-1.19531.27734m14.80469.8086l.6875-6.9922m-.58594 5.97657l-1.13672.46875m12.20312-.46875l4.98047-4.95703m9.83985 5.85156l1.97265-6.7461m13.46094 6.69923l-2.26563-6.65235m11.38282 5.04297l6.1289-3.4375m8.69532-1.42969l3.10937 6.30079m12.42969-6.60157l-1.33594 6.89844m1.14063-5.89453l1.17187-.35938m11.3711-.6953l.59765 7m-.51172-5.98048l1.03125-.66797m12.45313-.36328l.08593 7.02735m-.07421-6.00782l1.07812-.58593m12.95313-.36719l-1.3672 6.89062m1.16798-5.88671l1.17578-.35547m11.05078-.66407l1.20703 6.92188m-1.03125-5.91406l.96875-.7539m14.02344-.07813l-2.5 6.5703m2.13672-5.61327l1.21875-.15235m8.6211.10547l5.17577 4.7539m-4.42187-4.0625l.3086-1.1875m12.08593.69532l5.51172 4.35547m-4.71094-3.72266l.21875-1.20703m12.69922.14063l4.70703 5.21875m-4.02344-4.45703l.41797-1.15235m12.42188.21875l4.28906 5.5664m-3.66406-4.7578l.5039-1.1172m10.86328 2.51173l6.9336 1.15625m-5.92578-.98828l-.38672-1.16016m13.07422 3.2539l6.17187-3.36718m-6.17187 3.36719l-2.04688-1.35157m16.22266 2.38672l4.45312-5.4375m-3.80469 4.64844l-1.20312-.24219"/><g clip-path="url(#O)"><path fill="none" stroke="#000" stroke-linecap="round" stroke-linejoin="round" stroke-miterlimit="10" stroke-width=".5" d="M147.22656 428.45703l-6.45312-2.77734"/></g><path fill="none" stroke="#000" stroke-linecap="round" stroke-linejoin="round" stroke-miterlimit="10" stroke-width=".5" d="M147.22656 428.45703l.20313 2.44531m12.7539-1.80468l-5.73828-4.0586m4.90235 3.46875l-.15625 1.21485m12.72265.61718l-2.5664-6.54296m2.1914 5.58984l-.79687.9336m12.97265.2539l.46094-7.01172m-.39453 5.99219l-1.11719.5039m11.63672-1.09765l5.92188-3.78516m-5.0625 3.23438l-1.06641-.60157m13.08984.1797l6.78125-1.83985m-5.79297 1.57422l-.83984-.89454m13.32031 1.60547l6.47657-2.73047m-5.53516 2.33204l-.94922-.77344m13.39063 1.3164l6.34375-3.01953m-5.42188 2.58203l-.98828-.73046m13.8789 1.9375l5.34766-4.5586m-4.57031 3.89453l-1.14063-.44922m15.07422 2.10938l2.55078-6.55078m-2.17968 5.59765l-1.21485.14454m12.32032-.84375l6.23437-3.2461m-5.32812 2.77344l-1.01172-.69531m13.48828-2.20313l6.09765 3.4961m11.16797-5.14453l-1.80468 6.79296m1.54296-5.80468l1.19532-.27735m12.08594-.77344l-1.21485 6.91797m1.03906-5.91406l1.16797-.3789m10.90235-.58204l1.6289 6.83594m-1.39453-5.84375l.92188-.8125m11.25.17578l3.4453 6.1211m-2.9453-5.23047l.66406-1.03516m11.02344 1.15234l5.69921 4.10547m-4.87109-3.5078l.16797-1.21876m13.15234-.20312l4.03516 5.7539m-3.44922-4.91797l.55469-1.09375m13.20703-.23828l1.96484 6.7461m-1.67578-5.76563l.8789-.85547m14.2422-.08594l-2.22266 6.66797m2.22266-6.66797l2.41796-.40625m10.56641.31641l-1.5625 6.84766m1.33594-5.85157l1.1836-.3203m13-.46485l-2.84766 6.42578m2.84765-6.42578l2.44922-.17578m-2.86328 1.11328l1.22656-.08985m12.03906-1.01562l-1.91796 6.76172m1.91796-6.76172l2.39844-.51563m-2.67969 1.5l1.19922-.2578m9.52344 5.60156l3.82813-5.89454m-3.82813 5.89453l-2.4414-.21484m17.41796.77344l.50391-7.01172m-.42969 5.99219l-1.1211.4961"/><g clip-path="url(#P)"><path fill="none" stroke="#000" stroke-linecap="round" stroke-linejoin="round" stroke-miterlimit="10" stroke-width=".5" d="M147.47656 414.27344l-6.95312-1.03906"/></g><path fill="none" stroke="#000" stroke-linecap="round" stroke-linejoin="round" stroke-miterlimit="10" stroke-width=".5" d="M146.46484 414.1211l.40625 1.15624m13.84766-.64843l-6.8086-1.75m5.81641 1.49218l.28906 1.19532m13.48438.21484l-5.73828-4.05469m4.90234 3.46485l-.15234 1.21484m11.40234.85938l.0625-7.02735m10.3125 5.39453l5.9414-3.75781m-5.07421 3.21094l-1.0664-.60938m13.03515-.0586l6.89844-1.32812m-5.89453 1.13672l-.76953-.95703m13.1289 1.35547l6.80469-1.7461m-6.80469 1.7461l-1.65625-1.8125m15.125 2.28516l6.4961-2.6875m-6.4961 2.6875l-1.89062-1.5625m15.78125 2.49609l5.34765-4.5586m-5.34765 4.5586l-2.28125-.89844m16.20703 1.46485l4.125-5.6875m-4.125 5.6875l-2.42969-.33985m15.1289-.23047l5.35548-4.54687m-4.57813 3.88281l-1.14063-.45312m17.5586-4.45703l-2.40625 6.60156m2.0586-5.64063l1.21484-.17187m12.30078-.83985l-2.10938 6.70313m1.80078-5.72656l1.20703-.22657m13.02344-.49609l-3.32422 6.1914m2.83985-5.28906l1.22656.00391m10.33203-1.27344l1.15625 6.92969M330 411.29688l.97266-.7461m10.65625.38281l4.1953 5.64063m-3.58593-4.82031l.52734-1.10938m17.20704 1.17578l-5.86329 3.86719m19.75391-2.14062l-7.01562.41406m5.99609-.35547l.63672 1.05078M383.9414 410.25l-.53907 7.00781m.46094-5.98828l1.125-.49219m11.34375-.47656l1.3086 6.90625m-1.1172-5.90234l.95313-.76563m14.54688.15235l-3.44532 6.125m3.44532-6.125l2.45312.05859m10.53125-.22266l-2.78125 6.45313m2.78125-6.45313l2.44531-.20312m-2.85156 1.14062l1.22266-.10156m12.46484-.85156l-2.71484 6.48047m2.71484-6.48047l2.44531-.22266m-2.83984 1.16797l1.22266-.11328m14.64453 2.3789l-7.02735.0586m6.00391-.04687l.58594 1.07812m10.69531 2.42578l-.91797-6.96875m.78516 5.95313l-1 .71484"/><g clip-path="url(#Q)"><path fill="none" stroke="#000" stroke-linecap="round" stroke-linejoin="round" stroke-miterlimit="10" stroke-width=".5" d="M147.47656 399.9336l-6.95312 1.01171"/></g><path fill="none" stroke="#000" stroke-linecap="round" stroke-linejoin="round" stroke-miterlimit="10" stroke-width=".5" d="M146.46484 400.08203l.72657.98828m10.03906-4.14453l.16797 7.02344m9.79297-2.78516l6.875-1.45312m6.55859 1.8789l6.64063-2.30468m-5.67188 1.97265l-.90234-.83594m13.09375.52344l6.95312-1.01562m-5.9414.86719l-.72657-.98829m13.04688.01172l6.91797 1.23438m-6.91797-1.23438l-.7539-2.33594m14.12108 2.09766l6.8125 1.71094m-6.8125-1.71094l-.58984-2.38281m1.57813 2.63281l-.29297-1.1914m12.51172 1.88671l7.02734-.17968m-6.0039.15234l-.60157-1.0664m13.60156 3.12109l5.60938-4.23438m-5.60938 4.23438l-2.22265-1.03516m16.82031 2.08594l3.04688-6.33203m-2.60157 5.41015l-1.22656.05079m16.39453 1.1328l-1.54687-6.85546m1.3203 5.85547l-.92968.80078m16.96875-4.51172l-6.54297 2.5664m5.58985-2.1953l.92968.80077m13.3711-1.08593l-6.60938 2.39062m5.64844-2.04297l.91016.82422m13.1953-1.5625l-6.26952 3.17578m5.35547-2.71484l1.0039.70703m13.26172-1.09375l-6.34375 3.02344m19.65625-3.02735l-6.33594 3.03125m5.41407-2.58984l.98828.72656m12.7461 2.63672l-5.33204-4.57812m4.55469 3.91406l-.26953 1.19531m14.02734-.1914l-4.66406-5.25391m4.66406 5.2539l-.85547 2.30079m14.78906-6.83985l-5.89843 3.82032m5.03906-3.26563l1.07422.59766m11.58984-2.44531l-2.8789 6.41015m2.46093-5.48047l1.22266-.08203m13.54297-.14062l-4.94531 4.99218m4.9453-4.99218l2.35157.70703m10.28516-1.23047l-3.58985 6.04297m3.58985-6.04297l2.45312.11719m-2.97265.76171l1.22265.0586m13.16406-.53516l-4.6914 5.23438m4.6914-5.23438l2.37891.58985m-3.0625.17187l1.1914.29297m13.625.03125l-6.32421 3.0664m6.32422-3.0664l1.98047 1.44531m10.91015 2.28906l-5.47656-4.40234M465.5039 402l-.23047 1.20313"/><g clip-path="url(#R)"><path fill="none" stroke="#000" stroke-linecap="round" stroke-linejoin="round" stroke-miterlimit="10" stroke-width=".5" d="M147.3711 386.1289l-6.7422 1.98829"/></g><path fill="none" stroke="#000" stroke-linecap="round" stroke-linejoin="round" stroke-miterlimit="10" stroke-width=".5" d="M147.3711 386.1289l1.71484 1.75391m-2.69531-1.46484l.85937.8789m12.97266-2.14453l-5.81641 3.94532m5.8164-3.94532l2.16798 1.14454m10.35156-1.98438l-4.22266 5.6211m3.60547-4.80079l1.21484.1875m10.41016-1.70703l.39063 7.01953m-.33204-5.9961L184.85547 384m11.48828-.26953l1.83594 6.78515m-1.83594-6.78515l1.78906-1.67578m10.625 2.0625l3.63281 6.01172m-3.6328-6.01172l1.2578-2.10938m-.73046 2.98438l.6328-1.05469M220.5 386.20703l6.78125 1.83203m-5.79688-1.5664l-.27343-1.19532m16.35547 5.33985l-.71875-6.98828m.71875 6.98828l-2.03907 1.36719m16.97657-1.96094l-3.96875-5.80078m3.96875 5.80078l-1.13672 2.17187m14.30078-2.07422l-3.66406-5.99609m3.66406 5.9961l-1.25 2.11327m15.26562-2.67578l-5.0664-4.87109m5.0664 4.8711l-.67187 2.35937m14.84375-3.875l-6.78125-1.83985m6.78125 1.83985l.54687 2.39062m12.88672-3.08984l-7.01562-.4414m7.01562.4414l1.01172 2.23438m-2.03516-2.29688l.50782 1.11719m13.82031-1.58985l-6.9961.62891m6.9961-.6289l1.34375 2.05468m11.86719-2.64844l-6.78907 1.81641m6.78907-1.8164l1.67187 1.79296m11.76172-.80078l-7.02344-.16797m7.02344.16797l1.10156 2.1914m11.98047-1.01562l-6.5586-2.51953m5.60548 2.15235l.14843 1.21875m14.35157-2.23047l-7.02344.23828m7.02344-.23828l1.22656 2.125m11.57031-3.84766l-5.98437 3.6836m5.98437-3.6836l2.11719 1.24219m10.71484-1.85938l-5.01953 4.91797m5.01953-4.91797l2.33594.73828m10.42578-1.1953l-3.91406 5.83202m3.91406-5.83203l2.4414.25m10.32032-.55469l-2.80469 6.44141m2.8047-6.4414l2.4453-.19141m11.25391.38672l-3.57422 6.05078m3.57422-6.05078l2.45312.11328m11.64063.51562l-5.13281 4.79688m5.13281-4.79688l2.32422.79688m11.8789 2.24219l-6.90625-1.28516m5.90235 1.09765l.36719 1.17188"/><g clip-path="url(#S)"><path fill="none" stroke="#000" stroke-linecap="round" stroke-linejoin="round" stroke-miterlimit="10" stroke-width=".5" d="M147.28906 372.57031l-6.57812 2.47656"/></g><path fill="none" stroke="#000" stroke-linecap="round" stroke-linejoin="round" stroke-miterlimit="10" stroke-width=".5" d="M147.28906 372.57031l1.83985 1.625m-2.79688-1.26562l.92188.8125m13.47265-.77735l-6.82422 1.6836m6.82422-1.6836l1.63672 1.82813m-2.6289-1.58203l.8164.91406m13.48047-1.20313l-6.80078 1.77344m6.80078-1.77344l1.66016 1.8047m11.36328-2.5547l-6.21875 3.27344m6.21875-3.27344l2.02734 1.37891m-2.9336-.90234l1.01563.6914m12.48438-2.10937l-4.77735 5.15625m4.77735-5.15625l2.3711.6289m-3.06642.1211l1.1875.3125m11.78516-1.72656l-2.70312 6.48437m2.70312-6.48437l2.44531-.23047m11.92578 6.03125l-4.8125-5.11719m4.11329 4.3711l-.39453 1.16406m14.70703-.73438L234.5 371.56641m5.41016 4.48437l-.4961 2.40235m-.29297-3.0547l-.24609 1.20313m14.60547-.89844l-5.91797-3.78906m5.91797 3.78906l-.19922 2.44532m13.2461-2.08203l-5.38282-4.51954m5.38281 4.51954l-.51172 2.40234m-.27343-3.0586l-.2539 1.19923m13.76952.0078l-4.21484-5.62109m4.21484 5.6211l-1.04297 2.22265m14.82422-2.63671l-5.14453-4.78907m4.39453 4.08985l-.3164 1.1875m15.30859-2.57032l-7-.625m5.98047.53516l.47656 1.1289m13.8711-1.3203l-7.02735-.0625m6.0039.05077l.56641 1.08985m13.6875-1.875l-6.85937 1.53125m5.86328-1.3086l.79688.9336m13.45703-1.3789l-6.7422 1.97656m6.7422-1.97657l1.71484 1.7539m11.74219-.65233l-7.02344-.22657m7.02344.22656l1.07812 2.20313m12.21875-2.67969l-6.98828.72656m6.98828-.72656l1.36719 2.03516m11.36328-3.64063l-5.82031 3.9375m4.97265-3.36328l1.08594.57422m12.24219-2.01562l-4.15234 5.67187m3.54687-4.84765l1.21485.17578m11.7539-1.4922l-2.25 6.65626m1.92578-5.6875l1.20703-.19922m11.75-.92578l-.88671 6.96875m.88671-6.96875l2.29688-.8711m12.17187 1.22657l-3.1914 6.25781m3.1914-6.25781l2.45313-.04297m11.60937.55469l-4.6875 5.23437m4.6875-5.23437l2.38282.58593m11.97656 1.09375l-6.77344 1.8711m5.78906-1.59766l.83985.89063"/><g clip-path="url(#T)"><path fill="none" stroke="#000" stroke-linecap="round" stroke-linejoin="round" stroke-miterlimit="10" stroke-width=".5" d="M146.125 357.69531l-4.25 5.59375"/></g><path fill="none" stroke="#000" stroke-linecap="round" stroke-linejoin="round" stroke-miterlimit="10" stroke-width=".5" d="M145.50781 358.50781l1.21094.19922m12.6289-1.08203l-4.0664 5.73438m3.47656-4.89844l1.21485.15625m13.61718-.01563l-5.91797 3.78516m5.0586-3.23438l1.0664.60157m13.1172-1.13672l-5.9375 3.7539m5.07421-3.20703l1.0664.60547m12.82032-1.55078l-5.35547 4.55078m5.35547-4.55078l2.28125.90625m10.88672-1.07031l-5.0586 4.8789m5.0586-4.8789l2.33203.75781m11.33984 3.6836l-5.77343-4.00391m4.93359 3.42187l-.14453 1.21875m12.09766.8086l-1.3672-6.89454m1.3672 6.89454l-1.90235 1.55078m15.25-1.5586l-1.4375-6.8789m1.4375 6.8789l-1.88281 1.57032m16.51562-2.14454l-4.0703-5.73046m3.47655 4.89453l-.55078 1.09765m14.76172-.5039l-4.67187-5.25m3.99218 4.48828l-.42968 1.14844m15.28515-1.5586l-6.39844-2.90234m5.46875 2.48047l.07813 1.22265m14.4375-1.6914l-6.9375-1.1211m5.92578.95704l.39844 1.16015m13.78515-.42187l-6.65234-2.27344m6.65234 2.27344l.38672 2.42187m13.10938-3.35156l-7.01563-.41406m7.01563.41406l1.02344 2.23047m12.29687-2.50781l-7.02344.14453m7.02344-.14454l1.19531 2.14063m12.11328-2.3125l-7.01171.48828m7.01171-.48828l1.29688 2.08203m11.88281-2.83594l-6.73828 1.9961m5.75781-1.70703l.85938.875m12.90625-2.23829l-5.67969 4.14063m4.85156-3.53906l1.10547.53906m11.38281-2.375l-2.375 6.61328m2.03125-5.65234l1.21485-.17578m11.0039-.98438l.50782 7.00781m-.50782-7.0078l2.07813-1.3047m11.58594 1.29688l-.1914 7.02344m.16405-6l1.09766-.54688m12.6836-.4375l-1.06641 6.94531m1.0664-6.9453l2.31641-.8086m12.05078 1.14844l-3.17187 6.26953m3.17187-6.26954l2.45313-.05078m12.07421 1.0586l-5.59375 4.2539m4.77735-3.63671l1.11719.51562"/><g clip-path="url(#U)"><path fill="none" stroke="#000" stroke-linecap="round" stroke-linejoin="round" stroke-miterlimit="10" stroke-width=".5" d="M142.38281 344.0586l3.23438 6.23827"/></g><g clip-path="url(#V)"><path fill="none" stroke="#000" stroke-linecap="round" stroke-linejoin="round" stroke-miterlimit="10" stroke-width=".5" d="M142.38281 344.0586l1.39063-2.01954"/></g><path fill="none" stroke="#000" stroke-linecap="round" stroke-linejoin="round" stroke-miterlimit="10" stroke-width=".5" d="M155.04297 344.5l4.54297 5.35938M155.04297 344.5l.90625-2.28125m12.11719 2.55469l5.125 4.8086m-5.125-4.8086l.64453-2.36719m13.24219 1.8789l3.98437 5.78907m-3.40625-4.94922l.5664-1.08594m13.28907-.26562l1.75 6.8086m-1.4961-5.81642l.90625-.82812m15.16797.45313l-4.27734 5.57421m4.27734-5.57421l2.41797.40625m11.60938 4.43359l-5.70313-4.10547m4.8711 3.50781l-.16407 1.21875m12.06641.78516l-1.21484-6.91797m1.21484 6.91797l-1.9336 1.51172m14.47657-1.46094l.33203-7.01953m-.33203 7.01953l-2.21875 1.04688m15.40234-1.0547l.59375-7.0039m-.59375 7.0039l-2.25781.96485m16.71094-1.05469l-1.6836-6.82421m1.4375 5.83203l-.91406.8164M292.5586 350l-4.1875-5.64453m3.57813 4.82422l-.52735 1.10547m15.16407-.9922l-5.60938-4.23046m4.79297 3.61719l-.1914 1.21094m14.27343-.53516L314.33984 345m4.71094 3.72266l-.21875 1.20703m14.83594-1.4375l-6.51563-2.6289m5.57032 2.24608l.125 1.22266m14.38671-1.96094l-7.01562-.38671m7.01563.38671l1.03125 2.23047m12.26171-2.85156l-6.97265.85938m6.97265-.85938l1.41016 2.00781m11.51563-3.23828l-6.19532 3.3164M372.55078 346l1.01953.6836m12.96094-1.54688l-5.71875 4.08203m4.88672-3.48828l1.09765.54687m12.28125-1.92187L394.89454 350m3.57422-4.82422l1.21484.1836m10.6875-1.69532l-.14062 7.02735m.14062-7.02735l2.19141-1.10547m10.4414 1.16016l1.22657 6.91797m-1.22656-6.91797l1.93359-1.51172m11.57422 1.48438l.83984 6.97656m-.83984-6.97656l2.01562-1.40235m11.51172 1.38281l.41797 7.01172m-.41797-7.01171l2.09375-1.28125m14.1836 2.60546l-5.50782 4.36329m4.70704-3.72657l1.12109.48828"/><g clip-path="url(#W)"><path fill="none" stroke="#000" stroke-linecap="round" stroke-linejoin="round" stroke-miterlimit="10" stroke-width=".5" d="M141.13281 331.83203l5.73438 4.0625"/></g><path fill="none" stroke="#000" stroke-linecap="round" stroke-linejoin="round" stroke-miterlimit="10" stroke-width=".5" d="M154.27344 332.10156l6.08203 3.52344m-6.08203-3.52344l.08984-2.44922m.79688 2.96094l.08593-2.44922m12.09375 2.46485l6.58203 2.46875m-6.58203-2.46875l-.3164-2.4336m1.27344 2.79297l-.31641-2.4336m12.65234 2.13673l6.625 2.34375m-6.625-2.34375l-.36328-2.42579m1.32813 2.76954l-.3672-2.4297m12.73438 2.03517l6.58985 2.4453m-6.58985-2.4453l-.32422-2.4297m1.28516 2.78516l-.16406-1.21484m12.72266.41016l6.18359 3.33984m-6.1836-3.33984l.01563-2.45313m19.2539 2.08985l-5.72656 4.0703m4.89453-3.48046l1.09766.55078m9.34375 4.30469l1.6836-6.82031m-1.4375 5.82812l-1.19141.30078m14.76953.77735l.66797-6.9922m-.66797 6.9922l-2.26563.9414m14.83204-1.09375l2.16406-6.6875m-2.16406 6.6875l-2.41797.42578m15.53125-.5l2.5664-6.54297m-2.5664 6.54297l-2.4375.28516m15.78515-.27344l2.5-6.5664m-2.13671 5.61328l-1.21485.15234m15.27344 1.03125l.28516-7.02344m-.2422 6l-1.10546.53125m17.35156-.9375l-5.66015-4.16797m4.83593 3.5625l-.17968 1.21485m12.01953.78125l-1.0625-6.94531m.91015 5.93359l-.98437.73437m16.20703-5.86328l-4.57031 5.33594m16.97265-5.90234l-2.7461 6.46875m2.34767-5.52735l1.22265-.10547m14.42578 1.21094l-6.61718 2.3711m5.65625-2.02344l.90625.82422m12.42578-2.58594l-4.72657 5.19922m4.03907-4.4414l1.1875.30077m11.55468-1.79297l-2.20703 6.67188m2.20703-6.67188l2.41797-.41015m10.71485.35547l-1.83985 6.78125m1.83985-6.78125l2.39062-.54688m8.1875.92969l3.63281 6.01562m-3.10546-5.14062l.6289-1.05078m15.32813-.0586l-2.70703 6.48438m2.3125-5.54297l1.22265-.11328m11.86328-1.02344l-1.46093 6.875m1.46093-6.875l2.35938-.67578m12.52734 1.46094l-4.60547 5.30469m3.9375-4.53516l1.19532.27734"/><g clip-path="url(#X)"><path fill="none" stroke="#000" stroke-linecap="round" stroke-linejoin="round" stroke-miterlimit="10" stroke-width=".5" d="M141.04297 318.65234l5.91406 3.79297"/></g><path fill="none" stroke="#000" stroke-linecap="round" stroke-linejoin="round" stroke-miterlimit="10" stroke-width=".5" d="M154.1289 319.07031l6.375 2.95703m-6.375-2.95703l-.13671-2.44922m13.17969 3.29688l6.91406 1.25781m-6.91406-1.25781l-.7461-2.33594m1.7539 2.51953l-.375-1.16797m12.64454 1.26563l6.99219.69922m-6.9922-.69922l-.92968-2.26953m1.94531 2.3711l-.92968-2.26954m13.22265 2.23828l7.0039.55469m-7.0039-.55469l-.97656-2.25m1.9961 2.33203l-.97657-2.25m13.28125 2.0664l6.98828.75782m-6.98828-.75781l-.91016-2.27735m1.92579 2.39063L207.1875 318m13.22656 2.03516l6.95313 1.02343m-6.95313-1.02343l-.82422-2.3086m14.1797 3.55078l6.875-1.45703m-5.875 1.24219l-.78907-.9375m15.07422 3.61719l2.92969-6.38672m-2.50391 5.45703l-1.22266.07031m13.5625.54297l4.03125-5.75781m-4.03125 5.75781l-2.4336-.29687m16.48829.6914l2.55078-6.54687m-2.55078 6.54687l-2.4375.28906m16.35938-.11328l1.33984-6.89843m-1.33985 6.89843l-2.34765.71875m16.30469-.65234l.05468-7.02734m-.05468 7.02734l-2.17579 1.13281m17.39063-1.67578l-3.7461-5.94531m3.19922 5.08203l-.60937 1.0625m15.85156-1.83984l-6.5039-2.66016m6.5039 2.66016l.2461 2.4414m12.8164-5.59765l-6.0039 3.65234m5.1328-3.1211l1.0547.625m12.32812-2.07421l-4.39453 5.48437m3.7539-4.6836l1.20704.22657m11.125-1.75l-1.14453 6.9336m17.05468-4.98829l-6.33593 3.04297m5.41406-2.60156l.98828.72656m11.90625-2.64844l-3.65234 6m3.65234-6l2.44922.14454m10.19922-.46094l-2.32032 6.63281m2.32032-6.63281l2.42578-.3711m8.3711.44922l2.71484 6.48047m-2.31641-5.53906l.77344-.94922m10.26172 4.60547l6.48046-2.71875m-5.53906 2.32422l-.94922-.77735m19.66016-1.84765l-6.1914 3.32422m5.28906-2.83985l1.01953.6797m13.09765-1.33595l-5.99218 3.66797"/><g clip-path="url(#Y)"><path fill="none" stroke="#000" stroke-linecap="round" stroke-linejoin="round" stroke-miterlimit="10" stroke-width=".5" d="M466.5586 318.71484l2.11327 1.2461"/></g><path fill="#ff3030" fill-rule="evenodd" d="M353.42578 436.57813h7.6914v-10.14454h-7.6914v10.14454"/><path fill="azure" fill-rule="evenodd" d="M355.25781 428.26563h.83594v5.74218h3.1914v.73828h-4.02734v-6.48046"/><path fill="#00f" fill-rule="evenodd" d="M383.80078 432.14063h8.61719v-10.14454h-8.61719v10.14454"/><path fill="azure" fill-rule="evenodd" d="M385.63281 423.82813h.83203v2.82421h3.28907v-2.82421h.83203v6.48046h-.83203v-2.91796h-3.28907v2.91796h-.83203v-6.48046"/><path fill="#00f" fill-rule="evenodd" d="M215.14453 414.38672h8.61719v-10.14453h-8.61719v10.14453"/><path fill="azure" fill-rule="evenodd" d="M216.97656 406.07422h.83203v2.82422h3.28516v-2.82422h.83594v6.48047h-.83594v-2.91406h-3.28516v2.91406h-.83203v-6.48047"/><path fill="#ff3030" fill-rule="evenodd" d="M344.55078 405.51172h7.6914v-10.14453h-7.6914v10.14453"/><path fill="azure" fill-rule="evenodd" d="M346.38281 397.19922h.83203v5.73828h3.19532v.74219h-4.02735v-6.48047"/><path fill="#00f" fill-rule="evenodd" d="M370.48438 401.07422h8.62109v-10.14844h-8.6211v10.14844"/><path fill="azure" fill-rule="evenodd" d="M372.3164 392.76172h.83594v2.82031h3.28516v-2.82031h.83203v6.47656h-.83203v-2.91406h-3.28516v2.91406h-.83593v-6.47656"/><path fill="#ff3030" fill-rule="evenodd" d="M242.46875 365.5664h7.6914v-10.14452h-7.6914v10.14453"/><path fill="azure" fill-rule="evenodd" d="M244.30078 357.2539h.83203v5.73829h3.19531v.74219h-4.02734v-6.48047"/><path fill="#ffffe0" fill-rule="evenodd" d="M441.11328 472.3164h22.17969V462.125h-22.17969v10.1914"/><path fill-rule="evenodd" d="M444.61328 463.95703h.50781v6.29688h-.78515v-4.48829h-1.38672v-.55859l.5586-.0625.25-.05469.23046-.08984.20313-.14063.17578-.21093.14062-.29297.10547-.39844m4.8125 0l.23047.01953.21875.0586.20703.08593.19922.1211.1836.15234.17187.17578.30078.41797.24219.49219.17969.54687.11328.58204.03906.58984-.03906.59375-.11329.58203-.17968.55469-.24219.5039-.30078.42579-.17188.17968-.18359.15235-.19922.125-.20703.09375-.21875.05468-.23047.01954-.22656-.01954-.21875-.05468-.21094-.09375-.19531-.125-.1836-.15235-.17187-.17969-.30078-.42578-.24219-.5039-.17969-.55469-.11328-.58203-.03906-.59375h.83203l.03125.5625.08203.50781.125.4414.16406.375.1875.30079.21094.21875.22266.13672.22656.04687.22656-.04687.22266-.13672.21094-.21875.1914-.30078.16407-.375.125-.4414.08203-.50782.02734-.5625-.02734-.5625-.08203-.5-.125-.4336-.16407-.36718-.1914-.29297-.21094-.21485-.22266-.1289-.22656-.04688-.22656.04688-.22266.1289-.21094.21485-.1875.29297-.16406.36719-.125.43359-.08203.5-.03125.5625h-.83203l.03906-.58985.11328-.58203.1797-.54687.24218-.49219.30078-.41797.17188-.17578.18359-.15234.19531-.1211.21094-.08593.21875-.0586.22656-.01953m4.95313 0l.23046.01953.21875.0586.20704.08593.19921.1211.1836.15234.17187.17578.30079.41797.24218.49219.17969.54687.11328.58204.03516.58984-.03516.59375-.11328.58203-.17969.55469-.24219.5039-.30078.42579-.17187.17968-.1836.15235-.19921.125-.20704.09375-.21875.05468-.23046.01954-.22657-.01954-.21875-.05468-.21093-.09375-.19532-.125-.18359-.15235-.17188-.17969-.30078-.42578-.24609-.5039-.17969-.55469-.10937-.58203-.03906-.59375h.83203l.03125.5625.08203.50781.125.4414.16406.375.1875.30079.21094.21875.22265.13672.22657.04687.22656-.04687.22265-.13672.21094-.21875.1914-.30078.16407-.375.125-.4414.08203-.50782.02735-.5625-.02735-.5625-.08203-.5-.125-.4336-.16406-.36718-.1914-.29297-.21094-.21485-.22266-.1289-.22656-.04688-.22657.04688-.22265.1289-.21094.21485-.1875.29297-.16406.36719-.125.43359-.08203.5-.03125.5625h-.83204l.03907-.58985.10937-.58203.17969-.54687.2461-.49219.30077-.41797.17188-.17578.1836-.15234.1953-.1211.21094-.08593.21875-.0586.22657-.01953m4.95312 0l.38672.03125.35938.08203.32421.13672.27735.1875.23047.23438.17187.28515.10938.33203.03906.37891-.01953.27344-.0586.23437-.08984.20313-.10938.16797-.1289.14453-.14063.1211-.28515.19921.23047.11719.20703.14844.1836.17187.15233.1914.125.21485.08985.23047.05469.24219.01953.2578-.03516.3086-.10156.32422-.17188.32813-.24218.30468-.3047.26954-.375.21484-.21093.08203-.22656.0586-.2461.03906-.26171.01171-.25782-.01171-.24218-.03907-.22266-.05859-.20703-.08203-.35938-.21485-.28906-.26953-.22265-.30468-.15625-.32813-.09375-.32422-.03125-.3086h.83203l.02734.25.07813.23829.12109.21094.16406.1836.1914.15233.21876.11329.24219.07421.2539.02344.2539-.02344.2422-.07421.21875-.11329.1953-.15234.16016-.1836.1211-.21093.07812-.23828.02735-.25-.02735-.2539-.07812-.23438-.1211-.21485-.16015-.18359-.19531-.15234-.21875-.11329-.2422-.07421-.2539-.02344-.2539.02344-.2422.07421-.21874.11329-.1914.15234-.16407.1836-.1211.21484-.07812.23437-.02734.2539h-.83204l.01954-.2539.05468-.24219.09375-.22265.1211-.20703.15234-.1914.1836-.17188.20703-.15625.23437-.12891-.28906-.19922-.14063-.1211-.1289-.14452-.10938-.16797-.08984-.20313-.05469-.23437-.02344-.27344h.78907l.02343.21484.06641.19141.10156.16406.13672.14063.16406.11328.19141.08203.20703.04688.21875.01953.22266-.01954.20703-.04687.1875-.08203.16406-.11328.13672-.14063.10547-.16406.0664-.1914.02344-.21485-.02344-.21484-.0664-.19141-.10547-.16406-.13672-.14063-.16406-.11328-.1875-.08203-.20703-.04688-.22266-.01953-.21875.01954-.20703.04687-.1914.08203-.16407.11328-.13672.14063-.10156.16406-.0664.1914-.02344.21485h-.78907l.03907-.3789.10937-.33204.17188-.28515.23046-.23438.28125-.1875.32032-.13672.35937-.08203.38672-.03125"/><path fill="#ffffe0" fill-rule="evenodd" d="M328.42969 348.41797h22.17969v-10.1914h-22.1797v10.1914"/><path fill-rule="evenodd" d="M331.92969 340.0586h.50781v6.29687h-.78516v-4.49219h-1.39062v-.55469l.5586-.0664.2539-.05078.23047-.08985.20312-.14453.17188-.20703.14453-.29688.10547-.39453m4.8125 0l.23047.01954.21875.05468.20703.08985.19531.12109.1836.14844.17187.17578.30469.42187.24218.4922.1797.54687.10937.57812.03906.58985-.03906.59375-.10938.58593-.17969.55469-.24218.5-.3047.42969-.17187.17969-.18359.15234-.19531.125-.20703.08984-.21875.0586-.23047.01953-.23047-.01953-.21875-.0586-.20703-.08984-.19531-.125-.1836-.15235-.17187-.17968-.3047-.42969-.24218-.5-.17969-.55469-.10937-.58594-.03906-.59375h.83203l.02734.56641.08203.5039.1289.44141.16017.375.1914.30079.21094.22265.22265.13672.22657.04688.22656-.04688.22266-.13672.21093-.22265.19141-.30079.16016-.375.1289-.4414.07813-.5039.03125-.56642-.03125-.55859-.07813-.5-.1289-.4375-.16016-.36328-.1914-.29297-.21094-.21484-.22266-.13281-.22656-.04297-.22656.04296-.22266.13282-.21094.21484-.1914.29297-.16016.36328-.1289.4375-.08204.5-.02734.5586h-.83203l.03906-.58985.10937-.57812.1797-.54688.24218-.49219.30469-.42187.17187-.17578.1836-.14844.1953-.1211.20704-.08984.21875-.05469.23047-.01953m5.08984 0h.51172v6.29688h-.78906v-4.49219h-1.38672v-.55469l.5586-.0664.2539-.05078.22656-.08985.20313-.14453.17578-.20703.14062-.29688.10547-.39453m2.82422 2.17579h.78906l.01953-.31641.0586-.28516.09765-.2539.14063-.21485.17969-.17578.22656-.1289.26172-.07813.3086-.02734.23827.01953.22266.0625.20703.10156.17969.14063.14844.17187.11328.20703.0703.23438.02345.26562-.01954.26953-.0664.22266-.10938.1914-.15625.17188-.19921.16406-.25.16406-.63282.39063-.53515.3125-.4375.3164-.34766.32423-.26563.33593-.1875.35156-.125.3711-.0703.39062-.01954.42188h4.21094v-.74219h-3.33203l.08203-.28515.11328-.23438.14844-.20313.1875-.17968.23047-.17188.27734-.17578.71875-.41797.41406-.20312.34766-.23047.28125-.2539.21875-.26563.16406-.27735.10938-.28515.0664-.28516.01953-.28125-.04296-.38281-.1211-.34766-.1875-.3086-.25-.26171-.30469-.21484-.34375-.15625-.3828-.09766-.40626-.03516-.4336.03125-.39843.10157-.35547.16406-.30469.23437-.24609.3047-.1875.375-.11719.4453-.03906.51954"/><path fill="#ffffe0" fill-rule="evenodd" d="M173.08594 391.20703h22.17969v-10.1914h-22.1797v10.1914"/><path fill-rule="evenodd" d="M176.58594 382.84766h.50781v6.29687h-.78516v-4.49219h-1.39062v-.55468l.5625-.06641.25-.05078.23047-.08985.20312-.14453.17578-.20703.14063-.29687.10547-.39453m4.8125 0l.23047.01953.21875.05469.20703.08984.19922.1211.18359.14843.17188.17578.30078.42188.24218.49218.1797.54688.11327.57812.03516.58985-.03516.59375-.11328.58594-.17969.55468-.24218.5-.30078.42969-.17188.17969-.1836.15234-.19921.125-.20703.08985-.21875.05859-.23047.01953-.22656-.01953-.21875-.0586-.21094-.08984-.19531-.125-.1836-.15234-.17187-.17969-.30078-.42969-.2461-.5-.17969-.55469-.10937-.58593-.03906-.59375h.83203l.03125.5664.08203.50391.125.4414.16406.375.1875.30079.21094.22265.22266.13672.22656.04688.22656-.04688.22266-.13672.21093-.22265.19141-.30078.16406-.375.125-.44141.08203-.5039.02735-.56641-.02735-.5586-.08203-.5-.125-.4375-.16406-.36328-.1914-.29297-.21094-.21484-.22266-.13281-.22656-.04297-.22656.04297-.22266.13281-.21094.21484-.1875.29297-.16406.36328-.125.4375-.08203.5-.03125.5586h-.83203l.03906-.58985.10937-.57812.1797-.54688.24608-.49218.30079-.42188.17187-.17578.1836-.14844.1953-.1211.21095-.08983.21875-.0547.22656-.01952m5.09375 0H187v6.29687h-.78516v-4.49219h-1.39062v-.55468l.5586-.06641.2539-.05078.23047-.08985.20312-.14453.17188-.20703.14453-.29687.10547-.39453m2.82031 2.17578h.78906l.01953-.3164.0586-.28517.10156-.2539.13672-.21485.1836-.17578.22265-.1289.26562-.07813.3086-.02734.23828.01953.22266.0625.20312.10156.17969.14063.14844.17187.11328.20703.0703.23438.02735.26562-.02344.26954-.0664.22265-.10938.1914-.15625.17188-.19922.16406-.24609.16407-.63672.39062-.53515.3125-.4375.3164-.34766.32423-.26172.33594-.1914.35156-.125.3711-.07032.39062-.01953.42187h4.21094v-.74219h-3.33203l.08203-.28515.11328-.23438.14844-.20312.1875-.17969.23047-.17188.28125-.17578.71484-.41796.41797-.20313.34375-.23047.28125-.2539.21875-.26563.16406-.27734.11328-.28516.0625-.28516.01953-.28125-.04297-.3828-.11718-.34767-.1914-.30859-.25-.26172-.30079-.21484-.34766-.15625-.3789-.09766-.40625-.03515-.4375.03125-.39844.10156-.35156.16406-.30469.23438-.25.30468-.1875.375-.11328.44532-.04297.51953"/><path fill="#ffffe0" fill-rule="evenodd" d="M168.64844 435.11328h22.17969v-10.1914h-22.1797v10.1914"/><path fill-rule="evenodd" d="M172.14844 426.7539h.50781v6.29688h-.78516v-4.49219h-1.39062v-.55468l.5586-.06641.2539-.05078.23047-.08985.20312-.14453.17188-.20703.14453-.29687.10547-.39453m4.8125 0l.23047.01953.21875.05469.20703.08984.19531.1211.1836.14843.17187.17578.30469.42188.24218.49218.1797.54688.10937.57812.03906.59375-.03906.58985-.10938.58594-.17969.55468-.24218.5-.3047.42969-.17187.17969-.18359.15234-.19531.125-.20703.08985-.21875.05859-.23047.01953-.23047-.01953-.21875-.0586-.20703-.08984-.19531-.125-.1836-.15234-.17187-.17969-.3047-.42969-.24218-.5-.17969-.55469-.10937-.58593-.03906-.58985h.83203l.03125.5625.07812.50391.1289.44531.16017.3711.1914.30078.21094.22265.22266.13672.22656.04688.22656-.04688.22266-.13672.21093-.22265.19141-.30078.16016-.3711.1289-.44531.08203-.5039.02735-.5625-.02735-.5625-.08203-.5-.1289-.4375-.16016-.36329-.1914-.29297-.21094-.21484-.22266-.13281-.22656-.04297-.22656.04297-.22266.13281-.21094.21484-.1914.29297-.16016.36328-.1289.4375-.07813.5-.03125.5625h-.83203l.03906-.59375.10937-.57812.1797-.54688.24218-.49218.30469-.42188.17187-.17578.1836-.14844.1953-.1211.20704-.08983.21875-.0547.23047-.01952m5.08984 0h.51172v6.29687h-.78906v-4.49219h-1.38672v-.55468l.5586-.06641.2539-.05078.22656-.08985.20703-.14453.17188-.20703.14062-.29687.10547-.39453m2.82422 2.17578h.78906l.01953-.3164.0586-.28517.09765-.2539.14063-.21485.1836-.17578.22265-.1289.26562-.07813.3047-.02734.23827.01953.22656.0625.20313.10156.17969.14063.14844.17187.11328.20703.0703.23438.02735.26562-.02344.26954-.0664.22265-.10938.1914-.15625.17188-.19922.16406-.24609.16407-.63672.39062-.53515.3125-.4375.3164-.34766.32423-.26563.33594-.1875.35156-.125.3711-.0703.39062-.01954.42187h4.21094v-.74219h-3.33203l.08203-.28515.11328-.23438.14844-.20312.1875-.17969.23047-.17188.27734-.17578.71875-.41796.41406-.20313.34766-.23047.28125-.2539.21875-.26563.16406-.27734.10938-.28516.0664-.28516.01953-.28125-.04297-.3828-.12109-.34767-.1875-.30859-.25-.26172-.30469-.21484-.34375-.15625-.3789-.09766-.41016-.03515-.4336.03125-.39843.10156-.35547.16406-.30469.23438-.24609.30468-.1875.375-.11328.44532-.04297.51953"/></g></defs><use xlink:href="#Z"/></svg>