<svg xmlns="http://www.w3.org/2000/svg" role="img" xmlns:xlink="http://www.w3.org/1999/xlink" viewBox="142.45 309.95 326.84 171.84"><defs><clipPath id="a"><path d="M144 311.67188h1v168.65625h-1zm0 0"/></clipPath><clipPath id="b"><path d="M144 311.67188h324v168.65625H144zm0 0"/></clipPath><clipPath id="c"><path d="M467 311.67188h1v168.65625h-1zm0 0"/></clipPath><clipPath id="d"><path d="M144 479h4v1.32813h-4zm0 0"/></clipPath><clipPath id="e"><path d="M147 480h2v.32813h-2zm0 0"/></clipPath><clipPath id="f"><path d="M153 479h8v1.32813h-8zm0 0"/></clipPath><clipPath id="g"><path d="M160 480h2v.32813h-2zm0 0"/></clipPath><clipPath id="h"><path d="M166 479h9v1.32813h-9zm0 0"/></clipPath><clipPath id="i"><path d="M180 479h8v1.32813h-8zm0 0"/></clipPath><clipPath id="j"><path d="M187 480h2v.32813h-2zm0 0"/></clipPath><clipPath id="k"><path d="M193 479h9v1.32813h-9zm0 0"/></clipPath><clipPath id="l"><path d="M200 480h2v.32813h-2zm0 0"/></clipPath><clipPath id="m"><path d="M206 479h9v1.32813h-9zm0 0"/></clipPath><clipPath id="n"><path d="M213 480h3v.32813h-3zm0 0"/></clipPath><clipPath id="o"><path d="M220 479h8v1.32813h-8zm0 0"/></clipPath><clipPath id="p"><path d="M227 480h2v.32813h-2zm0 0"/></clipPath><clipPath id="q"><path d="M233 479h8v1.32813h-8zm0 0"/></clipPath><clipPath id="r"><path d="M246 479h9v1.32813h-9zm0 0"/></clipPath><clipPath id="s"><path d="M260 478h8v2.32813h-8zm0 0"/></clipPath><clipPath id="t"><path d="M274 477h6v3.32813h-6zm0 0"/></clipPath><clipPath id="u"><path d="M288 476h5v4.32813h-5zm0 0"/></clipPath><clipPath id="v"><path d="M302 476h3v4.32813h-3zm0 0"/></clipPath><clipPath id="w"><path d="M316 476h3v4.32813h-3zm0 0"/></clipPath><clipPath id="x"><path d="M326 478h8v2.32813h-8zm0 0"/></clipPath><clipPath id="y"><path d="M340 478h8v2.32813h-8zm0 0"/></clipPath><clipPath id="z"><path d="M353 479h8v1.32813h-8zm0 0"/></clipPath><clipPath id="A"><path d="M366 479h9v1.32813h-9zm0 0"/></clipPath><clipPath id="B"><path d="M366 479h3v1.32813h-3zm0 0"/></clipPath><clipPath id="C"><path d="M379 479h9v1.32813h-9zm0 0"/></clipPath><clipPath id="D"><path d="M380 479h2v1.32813h-2zm0 0"/></clipPath><clipPath id="E"><path d="M393 479h8v1.32813h-8zm0 0"/></clipPath><clipPath id="F"><path d="M407 478h7v2.32813h-7zm0 0"/></clipPath><clipPath id="G"><path d="M421 477h6v3.32813h-6zm0 0"/></clipPath><clipPath id="H"><path d="M435 476h4v4.32813h-4zm0 0"/></clipPath><clipPath id="I"><path d="M448 479h4v1.32813h-4zm0 0"/></clipPath><clipPath id="J"><path d="M461 477h5v3.32813h-5zm0 0"/></clipPath><clipPath id="K"><path d="M144 466h4v2h-4zm0 0"/></clipPath><clipPath id="L"><path d="M144 452h4v3h-4zm0 0"/></clipPath><clipPath id="M"><path d="M144 438h4v5h-4zm0 0"/></clipPath><clipPath id="N"><path d="M144 425h4v4h-4zm0 0"/></clipPath><clipPath id="O"><path d="M144 413h4v2h-4zm0 0"/></clipPath><clipPath id="P"><path d="M144 399h4v3h-4zm0 0"/></clipPath><clipPath id="Q"><path d="M144 385h4v4h-4zm0 0"/></clipPath><clipPath id="R"><path d="M144 372h4v4h-4zm0 0"/></clipPath><clipPath id="S"><path d="M144 357h3v7h-3zm0 0"/></clipPath><clipPath id="T"><path d="M144 343h3v8h-3zm0 0"/></clipPath><clipPath id="U"><path d="M144 331h4v5h-4zm0 0"/></clipPath><clipPath id="V"><path d="M465 331h3v2h-3zm0 0"/></clipPath><clipPath id="W"><path d="M144 318h4v5h-4zm0 0"/></clipPath><clipPath id="X"><path d="M466 318h2v2h-2zm0 0"/></clipPath><g id="Y" clip-path="url(#clip1)"><path fill="#fff" fill-opacity="0" fill-rule="evenodd" d="M0 0h1000v1000H0zm0 0"/><path fill="#d3d3d3" fill-opacity="0" fill-rule="evenodd" d="M162.15234 355.86719l-.23437.29297.0586.23437.11718.17188.17578.23437.29297.34766.11328.0586.11719-.17188.0586-.23438.17577-.17578.46485-.17578h.69922l.23437.29297.28906.8164.0586.17579.17578.23046.35156.23438.69922.69922.17188.17578.23437.34765.23438.41016.28906.58203.41015.46485.23047.23437.23438.17578.11719.23047.17578.29297.17187 1.16406v.23438l.0586.28906.05859.11719.11719.11719.34765.41015.11719.17188.17578.17578.17578.23437.11719.17188.17188.35156.05859.23438.23437.40625.23438-.0586-.17578.17578-.0586.92969h-.58203l-.23437-.11328-.34766.11328-.11719.11719-.05859.29297-.0586.17578-.11718.17187-.46484.29297-.0586.23438-.0586.11328v.64453l.0586.17187v.41016l.0586.0586v.40624l.05859.40625.11719.17579.05859.05859.23047.64062-.0586.29297v.69922l-.05859.58203v.23438l-.0586.23047-.05468.35156v1.92187l.05469.1172h.42578l-.36719.11718-.02344.35156.89063 1.16797 1.74219.53906 1.33984.35938v.53906l.08984.8086.53516.71484 1.51953.26953.89063-.08594.08984 1.16406.53516.1797 1.16015-.1797 2.05469-.98437 1.16016-.36328 1.8789-.17578 1.69531-.1797-.17968.71876-1.51563.08594-1.25.08984-.80469.26953-1.07421.8086.26953.71875.53515.89843-.17968.625-.26563.8086.26563 1.07812.625.89844.80468.17969 1.25-.1797-.26562.72267.09766.5039.05468.29297v.17188l.0586.29296v.40625l.17578.1172.35156.11718h.40625l.29297-.17578.11328-.11719.0586-.11719.11718-.23047.0586-.17578.35156-.46484.23047-.17578.17578-.0586.17578.0586.0586.17578.11718.98828.05469.46875.0586.17188.11718.23437.17578.0586.8164.05859h.28907l.11719.23437.05859.40625.0586.35156v1.10547l.11718.29297.11719.34766.28906.69922.17578.35156.58203.7539.35157.17579.17187.0586.46875.23437.64063.46484.34765.23438.29297.17578.29297.05468.23047.0625.8164.34766.29297.17578.11328.17188.35157.35156.11719.17578.52343.64063v.28906l.0586.35156v.34766l.05859.35156.0586.28906.11718.0586.17188.05859h.17578l.58203.23437.17578.1172.17578.28905.17578.23438.11328.23437.29297.23047.11719.11719v.41016l.0586.05468.28906.23438.23437.11719.0586.11718.11718.17188.0586.11719.23047.23437.05859.17578.23437.0586.1172.05859-.1172.11328-.05859.11719v.11719l-.11719.29296-.11719.28907v.58203l.17579.11719.11718.05859.0586.11719.11719.11719.11328.05859.17578.34765.0586.35157.05858.40625v.17578l-.05859.17578-.11719.69922v.17187l.1172.17579.29296.29296h.40625l.17578.1172.11719.17187.11719.29296v.23438h-.52735l-.23047-.23438h-.23437l-.17578.0586-.0586.69922.0586.34765.11719.17579.17578.41015.11718.23047.28907.46875.17578.05469h.52344l.23437.0586.75781.64062.0586.29296v.23438l.05859.0586.23047.34765v.35156l-.11719.17188v.29297l.29297.28906.29297.17578.17187.0586.29297.17577.29297.1172.58203.40624.28906.23438.29297.17578.21875.16015.01563.01172.23047.17579.64062.52343.17578.23438.1172.17578.17577.17578.11328.17188v.64062l.1172.17578.46874.11719.58203.11719.23438.05859.23047.11328.29297.11719.11328.0586.58593.35156.28907.17187.17578.0625.17578.05469.17578.0586.69922.35155.28906.17579.23438.05468.28906.17578.23437.1172.64063.40624.29297.11719.17187.0586.23438.05859.41015.05859.23047.0586.23438.11718.0586.17188-.41017.17578.46875.0586.0586.29296.11328.23438.17578.05468.23438.0586.17578.05859.40625.11719.64062.23437.11719.17188.0586.23437v.17578l-.0586.1172-.0586.40624.23438.23438.11719.05859.34766.11719.64062.23047.17578.11718.28906.1172.17578.17577.23438.46485.58203 1.10546.17578.17579.34766.17578.17578.11719.35156.11718 1.04688.52344.23437.0586.46485.11327.29297.0586.46484.17578.75781.58203.23438.23438.34765.46484.17578.17578.28907.23438.8164.69921.29297.17579.28906.28906.29297.17578.29297.28906.69531.64063.17578.17578.29297.23437.28907.23438.46875.28906.64062.58203.34766.23438.23437.29297.34766.34765.35156.46485.9336.99218.34765.40625.11719.17579.23437.05859.11328.11719.64454.17578.23047.11328.23437.0586.29297.17577.23047.1172.9336.69921.40624.40625.23438.17578.40625.17578.23437.11719.8164.34766.34766.23437.23438.11719.29297.28906.23047.11719.7578.35156.35157.17188.23047.05859.29297.11719.23437.0586.8711.17577h.8164l.46875.23047.17188.0586.875.69921.46484.1172.29297.05858.17578.0586.23047.0586.46875.05859.34766.05859.35156.0586.40625.05859h.29297l.17187.0586v.23046l.17578.17578h.29297l.34766.0586.35156.05859.69922.11719h.64063l.46484-.23438.29297-.17578.17187-.11719.41016-.17187.28906-.17578.9336-.46485.46875-.29297.52343-.29296.46485-.17188.46484-.17578 1.05078-.46485.28906-.11718.41016-.11719.28906-.11719.52735-.17578 1.51562-.69922.58203-.34765.28907-.0586.29297-.0586.34765-.11718.875-.23047.35156-.11719h.11329l.23437-.05859.875-.23437.23438-.0586h.8125l.35156-.0586.8164-.11718.17188-.0586.35156-.05468.29297-.0586.23047-.05859.8164-.17578.17579-.0586h.34765l.23438-.05859.46484-.11718.75781-.17188.23438-.0586h.34765l.41016-.11718.28906-.0586 1.28516-.05859h.28906l.41016-.0586.23047-.05858h.17578l.875-.1172h.40625l.41015-.11718h.34766l.35156-.11328.8711-.0586h1.75l1.04687.28907.41016.11719.28906.11718.35156.11719.28907.11719 1.05078.17187.28906.0586h.29297l.29297.05859.17187.0586.41016.05859.17187.0586.1172.05858h.11718l.11719.0586.35156.0586h.11328l.41016.0664 1.92187.39453 1.92578.39453 1.51953.44922 1.69532.71875 2.14453.80469 1.60547-.71875 1.42968-.80469 1.16016-1.07813 1.25-.44921 3.03516-.71875 1.875-.35938 2.14453-1.34765 2.23437-1.25391 2.5-1.25781 1.69531-.44922 1.78516-.17969 1.16016-.26953.625.53906 1.33984-.26953.71485-.98828.98437-1.34375.44531-.17969.80469-.35937 1.875-.53907 1.78516-.44921 1.25-.26954 1.16015-.08984 1.69922-.08984 1.96094-.26954 1.25-.08984h.53906l.625-.08984h.89063l2.14453-.17969 2.41015-.17969 2.58985-.08984 1.69531.17969 1.60938.08984 1.42968.35938 1.16016.71875 1.875.98828 1.16015 1.52734.26563.71484.6289.08985.35548.89844.53515.53906.53516 1.52734 1.07422.35938h.53515l-.80469.53515.08985 1.70703.71484 2.69532.89063.80468.89453.98829.71484 1.2578 1.78516.53907 1.51953-.17969.35547 1.34375 1.60937-.80469.98047-.53906.26953.26953.31641-.21484.21875-.14453.80078.44922.44922-.35938h.35547l.53515-.26953.53907-.71875.53515-.26953.625-.98828 1.16016.44922.83984.3711 1.39454.61718 1.6953-.17969h1.60548l1.78515.08985.17969-1.70704.53516-1.34375.80468.26954.4922.84765.40233.40625-.08984.53906v.35938l.71485.44922.71093-.26953h1.42969l.35938.98828.4453 1.25781.71485 1.34375 1.25.6289 1.69531.62891.71485-.17969.17969-.53906.98046-.08984.44922.35937.08594 1.25782-.26563.6289-.53515.17969v.53906l.71484.98438.26563.53906.98437.98828.80078 1.07813-.26562.35937-.08985.89844-.625 2.33203-.35546 2.0664-.08985 1.79298-.17969.71875-.08984.53906v1.4375l-.98047 1.88281-.35937 1.70703-.53516.89844-.80469 1.16797-.26562.53906 2.05469 1.2539.08593.35938-.35546.53906-.08985-.17968v.80859l.08985 1.4375-.44532.71484-1.07422.09375-.26562.71485.53515.89844.8047.71875 1.16015.80859 1.33984.26953.44531.35938-.35546.44921-1.78907-.08984-1.25-.44922-.71484-.71875-.625-.08984-.17578 3.58984-.1875 1.3086h89.35937V311.70313h-55.26953v49.08203l.76172.125 3.28906.54296 2.02344 2.83594v2.7539l2.35156.33204 2.34766.33203h4.05078l-1.3789 4.16016-2.02344.70703-2.02344.70312-.54297.34375-2.59375 1.6172-.1875.11718-2.02344-2.07813-.73046-2.74218-2.67188-2.07813-1.375-3.5-.0664-.08203-1.95704-2.67188 2.75-1.41796v-49.08204H294.42187v91.41407l.1172.03125.1328.01172.07422.07421.10547.04688.08985.0586.08593.05859.08985.0586.29687.29687.0586.08984.03125.11719.02734.11719.01563.13671-.03125.1172-.0586.08983-.0586.08594-.04296.10547-.04688.10156-.02734.1211v.14453l.17578.26953.14844.14844.07422.08594.07422.07421.04296.10547.0625.08985.0586.08593.04297.10547.0586.08985.04687.10156.04296.10547.0586.08594.11719.17968.07421.07422.0625.08594.0586.08984.04297.10547.0586.08985.05858.08593.0625.08985.0586.08984.04297.10156.11719.17969.07421.07422.0586.08594.07422.07421.08984.0586.10547.04687h.14844l.1328-.01562.13282.01562.10156-.04687.07422-.07422.04688-.10156-.01563-.13281v-.14844l-.04687-.10547-.02735-.11719-.04687-.10156-.02735-.1211-.04296-.10156-.0625-.08984-.04297-.10156-.04297-.10547-.03125-.11719-.01563-.13281-.01171-.13672.08593-.0586.0586-.08593.12109-.03125.04297.10547.01562.1328v.1172l.0586.10156.0586.08984.08983.0586.14844.14843.0586.08985.04296.10547-.01171.10156.08593.0586.10547.04687.08594.0586.08984.05858.07422.07422-.11719.02735-.10546.04687-.08594.0586-.07422.07421-.0586.08985-.0625.08594-.02734.12109-.04687.10156-.04297.10547-.03125.11719-.01172.13281-.01563.13281v.14844l.02735.11719.04687.10547.04297.10156.0586.08984.07421.07422.08985.0586.07422.07421.08984.0586.0586.08984.04296.10547.04688.10156.11719.03125.1328.01563h.14845l.11718-.03125.10547.04297.04297.10547.04688.10156.02734.1211L299.5 410l.02734.11719.03125.1211.02735.11718.10547.04297.10156.04687.13281-.01562.14844.14844.0625.08593.07422.07422.07031.07422.08984.0625.10547.04297.10156.04297.1172.03125.13671.01562.11719-.03125.07422-.07422.02734-.11718-.01172-.13282-.03125-.12109-.02734-.11719.04297-.10547h.11719l.08984.0625.11719.02735h.14843l.13282.01562h.14843l.13282.01563.1328-.01563h.14845l.1328-.01562.13282-.01172.13672.01172.11719-.02735.13281-.01562.1914-.0586-.05859.17579-.01562.1328-.02735.1211-.01562.13281-.0586.08594-.1328.01563-.10548.04687-.10546.04297-.1172.03125-.11718.02735-.26563.03125h-.14843l-.13281.01562-.07422.07422.05859.08594.14844.14843.11719.1797.07421.0703.08985.0625.08984.0586.08594.0586.08984.05858.10156.04297.10547.0625.10547.04297.08594.0586.10547.04687.10156.04297.17969.11719.0586.08984-.04298.10156-.04687.10547.01562.13281.22266.22266.0586.08985.04296.10156.03125.1211.04297.10155.01563.13282.03125.11718.01171.13672.03125.11719.14844.14844.10156.04297.10547.04296.1172.03125.1328.01563.13672.01563h.11719l.11719-.03125.08984-.0586.04297-.10547.04688-.10156.04296-.10547.03125-.11719.01172-.1328v-.14845l-.01172-.1328-.01562-.13282-.03125-.11719-.04297-.10547-.04688-.10547-.04296-.10156-.04297-.10547-.01563-.13281.01563-.13281.02734-.11719.03125-.11719.02735-.1211.04687-.10155.08984-.0586.08594-.0625.07422-.07422.08984-.05859.22266-.22266.0586-.08593.07421-.07422.11719-.17969.0586-.08594v-.14844l-.07423-.07421-.10156-.04688-.10547-.04297-.10156-.04297-.0586-.08984-.04687-.10547-.02734-.11719.08984-.05859.11719-.03125.10156-.04297.17969-.11719.14844-.14843.01172-.13282-.01172-.10546-.08985-.0586-.1328.01563h-.14845l-.1328.01562-.13282-.01562-.1211-.03125-.08593-.0586-.07422-.07422-.0586-.08984-.0625-.08594-.11718-.17969-.0586-.08593.03125-.1211.08594-.05859.1211-.03125.05859-.08594v-.1211l-.03125-.11718-.0586-.08984-.05859-.08594-.04687-.10547-.02735-.11719-.01562-.1328.0586-.08985.07421-.07422.08984-.0586.1172-.17968.07421-.07422.0586-.08594.14843-.14844.1211-.03125.1328-.01562.13282.01562.07422.07422.04297.10547.01562.13281-.03125.1172-.11719.03124-.1328.01172-.14844.14844-.04297.10547-.04688.10156-.02734.1211-.03125.11718v.14844l.03125.11719.04297.10546.05859.08985.07422.07031.07422.07422.11719.03125.12109.02734.11719-.02734.1328-.01563h.1172l.08984.0586.07422.07422.04687.10546.0586.08594.10156.04688.13281.01562.10547.04297.08594.0586-.01172.10546-.07422.07422-.17969.11719-.05859.08984-.08984.0586-.07032.07422-.07421.07421-.0625.08985-.02735.11719-.01562.1328.01562.13282-.01562.13281v.14844l.01562.13281.02735.1172.03125.12108.07421.07422.08985.0586.08594.0586.08984.05858.11719.03125v.08594l-.10157.04688-.08984.0586-.26563.03124-.11718.02735h-.14844l-.10547.04296-.10156.04688-.0586.08984-.0625.23438-.01171.13281-.03125.1211-.01563.1328v.29298l-.01172.1328.01172.13673.01563.1328.1328.01563.13282.01172.1211.03125.08593.0586.07422.07421.04688.10547.04296.10157.01563.1328v.44532l-.01563.13281v.44532l.03125.26562.02735.11719.01562.13281.03125.11719.08594.21094.03125.26562v.14844l-.03125.11719-.02734.11718-.03125.1211-.02735.11719-.03125.11718-.03125.1211-.01171.1328-.01563.13282.08984.0586.1172-.03125.10155.01562.04688.10547-.03125.26562v.44141l-.04297.10547-.04688.10547-.04296.10156-.04297.10547-.0586.08594-.03125.12109-.04296.11719-.03125.11719-.01563.1328.01563.13282.05859.08984.10547.04688.08594.0586.05859.08593-.01172.13672-.03125.11719-.04297.10156v.44531l-.01562.13281v.14844l-.03125.11719-.04297.10547-.02735.11719-.04687.10546-.04297.10157-.03125.12109-.02734.11719-.03125.13281-.03125.11719-.02735.11719-.04297.10546-.03125.1172-.03125.12108-.01171.13282-.01563.13281v.29688l.02734.11718v.14844l.04688.39844.02734.11719.0586.08984.12109.03125h.14844l.13281-.01563.0586.08985v.11719l-.0586.08984-.08984.0586-.10157.04296-.10546.04688-.08985.05859-.08594.0586-.13671.01562-.1172-.03125-.1328-.01563-.10157.04688-.0625.08594-.01172.13671-.01562.13282-.03125.11719-.02735.11718-.01562.13281-.03125.1211v.29687l.01563.13282.03125.11718v.14844l.01171.13281v.14844l-.02734.11719-.04688.10156-.02734.1211-.03125.11718-.0586.08985-.07421.07421-.10156.04297-.10547.04688-.11719.02734-.1211.03125-.10156-.04687.0586-.08594.10547-.04688.02734-.11718.03125-.11719.02734-.1211.03125-.11718v-.14844l.01563-.13281-.03125-.11719-.04297-.10547-.10547.01563-.07422.07422-.10156.04296-.08984.0625-.07422.07422-.04297.10157-.01563.1328-.03125.1172L304.25 426l-.03125.11719-.02734.11719-.03125.12109-.02735.11719-.03125.11718-.04297.10547-.08984.0586h-.08984l-.1172-.03125-.03124-.08594.01562-.13672-.03125-.11719v-.14844l-.01171-.1328v-.14844l-.0625-.23438-.02735-.1211-.04297-.10156-.04687-.10546-.0586-.08594-.05859-.08985-.04297-.10546-.0625-.08594-.14844-.14844-.0703-.07422-.10548-.04687-.10547-.04297-.10156-.04297-.29687-.29688-.08985-.07421-.08594-.0586-.10546-.04297-.08985-.0625-.08594-.0586-.10546-.04296-.08985-.0586-.08594-.0625-.07421-.0703-.10547-.04688-.08594-.0586-.10547-.04296-.08984-.0625-.10156-.04297-.10547-.04297-.08594-.0586-.10547-.04687-.10547-.04297-.10156-.04687-.08985-.0586-.10156-.04297-.10547-.04296-.08984-.0625-.11719-.02735-.13281-.01562-.13281.01562H299.75l-.13281.01563-.11719-.03125-.08984-.0586-.07422-.07422-.08985-.05859-.10156-.04688h-.14844l-.12109-.02734-.10156-.04297-.07422-.07422-.11719-.17968-.08984-.0586-.10156-.04297-.08985-.0625-.10547-.04296-.08984-.0586-.08594-.0586-.10547-.04687-.0586-.08594-.05858-.08984-.04297-.10547-.04688-.10156-.07422-.07422-.08594-.0586-.07421-.07421-.08985-.0586-.22265-.22265-.04297-.10547-.03125-.26563.10547-.04296h.14453l.10547.04296.07421.07422.08985.0586.08594.0586.10546.04687.08985.05859.14844.14844.0703.07422.14845.14843.0625.08594.07421.07422.08594.0586.07422.07421.08985.0625.08984.0586.08594.05859.26953.17578.10156.04688.10547.04296.10156.04297.04688-.07421.05859-.08594.07422-.07422.07031-.07422.10547.04297.07422.07422.0586.08984.04296.10156.04688.10547.04296.10547.1211.02735.11719-.02735.07421-.08984.04297-.10547.0586-.08985.07422-.07421.10546-.04297.1172-.02735.1328.01172.08985.0586.14844.14843.05859.08985.04297.10547.04687.10156.04297.10547.04297.10156.10547.04688.10547.04296.13281.01563.08594-.0586.0586-.08984.07421-.07422.10547-.04297.11719.02735.10547.04687.10156.04297.10547.04297.10156.04688.17969.11718v.11719l-.01563.13281.01563.13281.01562.13672.0586.08594.10156.04688.1211.02734.11718.03125h.14844l.11719-.03125.05859-.08984.17969-.1172.05859-.08983.07422-.07422.0586-.08594.11718-.17969.17969-.11719.11719.03125.08984.0586.04297.07422-.01563.1328v.1172l.08985.05859h.14843l.13282-.01563.1328-.01171.26563-.03125.10547-.04297.11719-.03125.1211-.02735.07421-.07421.07031-.07422.0625-.08985-.01562-.10547-.04688-.10156-.10156-.04297-.10547-.01562-.11718.02734-.26563.03125h-.14844l-.07421-.07422-.08985-.0586-.11719-.03124-.11718-.02735-.13282-.01562h-.14843l-.13282.01563h-.29687l-.10547-.04688-.14844-.14844-.04297-.10156-.05859-.08984.22266-.22266.08593-.0586.10547-.04296.11719-.03125.13281-.01563.13281.01563.13672.01562.10157.04297.1328-.01172.08985-.0625.10156-.04297.0625-.08984-.04687-.10156-.08984-.0586-.1172-.03125-.10155-.04296-.0586-.08985-.0625-.08984v-.11719l.01563-.13281.10547-.04688.07421-.07031v-.1211l-.08984-.05859-.03125-.11719.08985-.05859.07421-.07422.04297-.10547.0586-.08984.04687-.10156.01563-.13281v-.14844l-.04688-.10547-.04297-.10156-.08984-.0586-.13281-.01562-.10157-.04297-.13671-.01563-.1172-.03125h-.4453l-.13282-.01562-.13281-.01172-.13281-.01563-.11719-.03125h-.14844l-.13281-.01562-.13281-.01172-.26563-.03125-.1211-.04297-.08593-.0586-.07422-.07421v-.14844l.01172-.13281.10547-.04688.10156-.04296.13281-.01563h.15235l.13281-.01562h.29297l.1211.03125.10156.04296.08984.0586.23438.0625.12109-.04688.08984-.05859.10156-.04297.13282-.01562.10547.04296.10156.04688.13281.01172.1211-.02735h.14453l.12109-.03125.11719-.02734.10547-.04687.07421-.07422.08594-.0586.14844-.14843.0586-.08594.04687-.10547.02734-.11719.01563-.10547-.10156-.04296-.08985-.0586-.11719-.03125-.10546-.04297-.08985-.0625-.07422-.08594-.07422-.07421-.10156-.04297-.10547-.04688-.10156-.04297-.0586-.08984-.04687-.10156-.08594-.21094-.0625-.08594-.05859-.08984-.07422-.07422-.08594-.0586h-.26953l-.11719.03126-.08984.05859-.10156.04297-.13281.01562-.10547-.01562-.02735-.11719-.0625-.08984-.11718-.03125-.10157-.04297-.14843-.14844-.03125-.11719-.01563-.10546.07422-.07422.17969-.1172.11719-.02733.11718-.03125.13672.01562.10156.04297.10547.04297.10156.04687.10547.04297.1172.03125.1328.01563.1172.02734.1328.01563.10547-.01563.08985-.0586-.07422-.07421-.10547-.04297-.07422-.07422-.07422-.08984-.14844-.14844-.08593-.0586-.08985-.05859-.07422-.07422-.08984-.0586-.10156-.04687-.1211-.02734-.10156-.04688-.10547-.04296-.11719-.03125-.10156-.04297-.1211-.03125h-.14843l-.11719.03125-.10546.04297-.08594.0625-.17969.11718-.08594.0586-.08984.0586-.10547.04687-.08594.05859-.10547.04297-.10156.04297-.10547.04687-.07422.07422-.05859.08985-.0586.08593-.04687.10547-.0586.08594-.07421.07422-.13281-.01172-.1172-.03125h-.11718l-.07422.07422-.08984.0586-.07422.07421-.08984.0586-.08594.05859-.10547.04687-.10156.04297-.13672.01563-.10156-.04297-.14844-.14844-.10547-.04688h-.08594l-.10547.04688-.10156.04297-.1211.03125-.11718-.03125-.07422-.07422v-.11719l.03125-.1211.07422-.0703.0586-.08985.07421-.07422.11719-.03125.10547-.04296h.29297l.13281-.01563.13672-.01563.10156-.04296.08985-.0586.10156-.04687.08984-.0586.13281-.01171.08985.05859.13281.01172.08984-.0586.08594-.05859.10547-.04297.08984-.0586.08594-.0625.08985-.05859.14843-.14843.0586-.08594.05859-.08985.10547-.04296.13281-.01563.11719.02735.1211.03125.05859-.0586.05859-.08984.03125-.26563.02734-.11719.10547.01172.13281.01563.10157-.04297.08984-.0586.0586-.08984.07421-.07422.0586-.08984.04687-.10156.01172-.13281-.01172-.13282-.04687-.10547-.14844-.14843-.0586-.08985-.05859-.08594-.04297-.10546v-.44532l.01563-.1328v-.14845l.01172-.1328-.0586-.0586-.08984.0586-.10156-.04298-.17969-.11719-.08594-.05859-.0625-.08984-.0586-.08985-.07421-.07421-.08594-.0586-.1211.03125-.10155.01172-.10547.04688-.08594.05859-.10547.04297-.14844.14844-.08984.05859-.08594.0586-.08984.0625-.10547.04296-.13281.01563v-.1211l.10547-.04297.11718-.03125.07422-.0703.04297-.10548v-.14844l-.02734-.11718-.14844-.14844-.13281-.01563h-.14844l-.11719.03125-.10547.04297-.10156.04297-.08984.0625-.11719.02735-.07422-.07422.01172-.13281-.04297-.10157-.04297-.10547-.08984-.05859-.11719.02734-.1211.03125-.11718.03125-.10156.04297-.1211.03125-.10156.04297-.10547.04297-.08984.0586-.10156.01562v-.11719l.01562-.13281-.0586-.08985-.07421.04297-.14844.14844-.0586.08985-.07421.07421-.04688.10547-.04296.10156-.07422.07422-.0586.08985-.07422.07422-.05859.08593-.07422.07422-.08984.0625-.07422.07031-.07422.07422-.10156.01563-.13281.01562-.10547-.04296v-.1211l.14843-.14844.04297-.10156.0586-.08984.04687-.10156.04297-.10547.0586-.08985.03124-.11719.04297-.10156.03125-.1211.02735-.11718.04687-.10547.04297-.10156.04297-.10547.07422-.07031.08984-.0625.08985-.0586.10156-.04296h.29687l.26563-.03125.10547-.04297-.07422-.07422-.11719-.03125-.10547-.04297-.08984-.0586-.10156-.04687-.08985-.0586-.10156-.04296-.10547-.04297-.08984-.0625-.08594-.0586-.10547-.04296-.10156-.04297-.1211-.03125-.11718-.03125-.10157-.04297L297.5 410.25l-.10156-.04297-.08985-.0586-.04296-.10546-.01563-.13281.10156-.04297.13281-.01563.13672.01563.13282-.01563.10156-.04297.0586-.08984.01562-.10547-.08985-.0586-.07421-.07421-.10157-.04297-.08984-.0586-.14844-.14843-.04297-.10547-.01562-.13281v-.29297l-.0586-.08985-.08984-.05859-.07422-.07422-.04297-.10547-.03125-.11718-.0586-.08985-.07421-.07422-.11719-.02734-.07422-.07422-.08984-.0586-.08984-.0625-.08594-.05859-.07422-.07421-.0586-.08594-.04687-.10547-.08594-.0586-.14843-.14843-.19532-.0586-.1328.01563-.10157.04297-.07422.07422-.04688.10156-.04296.10547-.0586.08984-.0586.08594-.29687.29687-.08984.0586h-.08594l-.0625-.08594-.04297-.10547.03125-.11719.0586-.08984.02734-.11719-.01172-.13281-.08984-.0625-.10547.04688-.11719.02734-.11719.03125-.26953.17578-.10156.04688-.11719.02734-.10546.04687-.08985.0586-.10156.04297-.0586-.08594-.04687-.10547.01563-.13281.04687-.10547.07031-.07422.07422-.07031.0586-.08985v-.14843l-.04297-.10547h-.23829l-.10156.04687-.03125.11719-.02734.11719-.03125.1211-.07422.04296-.13281.01563-.07422-.04688-.04297-.10156-.04297-.10547-.04687-.10156-.04297-.10547-.1211.03125-.10156.04297-.13281.01562-.11719.03125-.10547.04297-.08984.0586-.10156.04687-.1211.02734-.13281.01563-.10156-.04297-.0586-.08985-.04687-.10546-.04297-.10157-.04297-.10546v-.1172l.0586-.08984.08593-.05859.17969-.11719.10156-.04687.10547-.04297.10547-.0586.10156-.04296.08985-.0625.10156-.04297.10547-.0586.10156-.04687.08984-.0586.10547-.04296.10156-.04297.08985-.0625.10156-.04297.13672-.01563.11719.03125.10156.04297.1211.03125.10156.04297.10546.04688.10157.04296.10547.04297.10156.04688.10547.04297.10156.04297.10547.04687.08594.0586.10546.04296.1172.03125.10546.04297.10156.04688.08985.0586.10547.04296.10156.04297.10547.04687.11719.02735.10156.04687.1211.02735h.14843l.08594-.0586.01562-.10156.0586-.08984-.02735-.1172-.07422-.07421-.11719-.17969-.07421-.07422-.08985-.07421-.17969-.1172-.08593-.05859-.10547-.04296-.10156-.04688-.26954-.17578-.05859-.08985-.07422-.07421-.0586-.08985-.04296-.10156-.03125-.11719-.01563-.13672v-.5625l-.01171-.1328-.01563-.13282-.03125-.11719-.01562-.13281-.01172-.13281-.03125-.1211-.22266-.22265-.0586-.08594-.01562-.10547.03125-.11719.13281-.01562v-91.41406H172.9922v1.45312l-.0586.23438-.35156 1.05078-.17187.52343-.1172.34766-.17577.41016-.11719.17187-.23438.29297-.23046.0586h-.35157l-.11718.05859-.23047.40625v.29297l.11719.17578.23046.23047.1172.23437.64062.75781.29297.46485.17578.23437.23047.35156.23437.34766.64063.8164.17578.46485.17187.41016.11719.69531.17578.46875.11719 1.39844.0586.46484v.875l.11718 1.04688v4.78125l-.0586.46484-.35156 1.28125-.17578.52344-.11328.41015-.35156.9297L172.93359 336l-.23437.58203-.11719.17578-.17187.34766-.17578.40625-.35157.8164-.0586.29297-.11327.29297-.11719.28906-.0586.17579-.11718.875-.0586.40625-.05859.11718-.0586.17579-.05859.17187-.23047.52734-.11718.17188v.23437l-.11719.23438-.0586.17187-.17577.58594v.28906l-.0586.17579v.29296l-.0586.11329-.05859.52734v.17187l-.05468.23438v2.6211l-.17578.8164-.1172.17578-.17577.23438-.1172.17187-.11327.23438-.58594.93359-.23047.28906-.29297.46485-.17578.23437-.28906.35156-.35156.69922-.11328.23047-.17579.41016-.17578.23046-.40625.52735-.8164.69922-.29297.17187-.28906.23438-.17579.11719-.17578.17578-.52344.40625-.52734.17578-.17187.17578-.23438.05469-.64062.17578h-.75782m12.21094 31.02344l-1.07422.44921.35938.89454 1.25-.71485.44531-.53906-.98047-.08985"/><path fill="#d3d3d3" fill-opacity="0" fill-rule="evenodd" d="M201.50781 416.59766h-.89453l.44922.6289.98047.35938.80469-.08985.4453-.98828-.17577.08985-.71485-.35547-.89453.35547m154.6211 59.0703l-.0586-.52343v-.29297l.11328-.29297.0586-.23046.46875-.46875h.11328l.11719-.11329.11718-.05859h.17579l.23437-.0586h.34766l.23437.0586.11719.0586.23047.17187.0586.17578.11718.58203v.29297l-.11719.17578-.17187.28906-.17579.17579-.52734.52343-.23047.23438-.11719.0586h-.17578l-.11718-.0586-.40625-.29297-.17579-.11719-.11718-.0586-.0586-.11327-.05468-.1172m6.64062-10.95702l-.0586-.17188v-1.10937l.0586-.17188.17578-.0586.17188-.05858h.17578l.23437-.0586.1172.0586.05858.69921-.05859.17188-.11719.17578-.11718.0586-.23438.52343-.11328.0586h-.23438l-.05859-.1172m9.61328-14.39062l-.11719-.17578v-.69922l.29297-.875.1172-.17187.17577-.35156.11328-.23047.1172-.29297.35155-.75781.1172-.23047.17187-.23438h.17578l.11719-.0586h.64062l.11719.0586.23437.23438.17188.11328.35156.29297.11719.11718.11328.17579v.11328l.11719.05859.11718.11719v.69922l-.05859.17578v.23047l-.0586.17578-.34765 1.05078-.11719.23047-.11719.23437-.11718.0586-.23047.23437-.64063.28906h-.875l-.41015-.11718-.64063-.46485"/><path fill="none" stroke="#bebebe" stroke-linecap="round" stroke-linejoin="round" stroke-miterlimit="10" stroke-width=".5" d="M467.95703 311.69531H144.02734v168.625h323.9297v-168.625"/><g clip-path="url(#a)"><path fill="#fff" fill-opacity="0" fill-rule="evenodd" d="M144 475.89063v4.4375h.0039H144V311.67188h.0039H144v164.21875"/></g><g clip-path="url(#b)"><path fill="#fff" fill-opacity="0" fill-rule="evenodd" d="M144.0039 480.32813V311.67188h8.8711v128.54296l-.2539.16797.2539.10547.34766-.10547-.34766-.16797V311.67188h48.82422V415.3125l-4.4375 2.17578-4.4414.38281-.46876.32032-3.96875 2.75-2.29297 1.6875-2.14453 2.9375-1.6836 1.5039-2.7539 3.89453-2.71875.54297-1.72265.07031-1.26953-.0703-3.16797-.8086-4.4375-.2539-1.52344 1.0625-2.91406 1.23437-2.73828 3.20312-1.3672 4.4375.14845 4.4375.12109 4.4414.0664 4.4375-.29296 4.4375 1.21484 4.4375 2.84766 2.6797 4.4375.10546 4.4375 1.28907 2.23437.36719 2.20313 2.32812 1.34375-2.32813 3.09765-.87109 4.4375.19922 4.4375-.23047 4.4375-.8164 4.4414-1.04297 2.4297-1.6797 2.0078-.90233 4.4375-2.9375 4.4375-.51563.10938-.08203 2.2422-4.4375 2.08983-.28906 4.4375-1.375 4.4375.01171 4.4375-2.58593.36329-.19922 4.07422-2.23828 1.3203-2.20313.53907-4.4375-1.85938-1.46094-1.28125-2.97656-3.15625-3.73437-.40234-.70313-4.03516-4.2539-4.4375.41796-.78515-.60156-2.8125-4.4414.30078-4.4375-1.14063-.32032-.91796.32032-3.52344.40234-4.4375.1211-1.65234-.52344-2.78516-2.87891V311.67187h31.0664v105.5547l-3.3828.96484 3.27343 4.4375.10938.08203 4.4414 2.01953 1.85547-2.10156-1.85547-3.77735-1.13281-.66015-3.3086-.96485V311.67187h142.02735v136.8711l-.39063.71875.39063.71094.34375-.71094-.34375-.71875v-136.8711h8.8789v136.375l-1.28515 1.21485 1.28515 1.76562 2.40235-1.76562-2.40235-1.21485v-136.375h84.32422v168.65625H144.00391"/></g><path fill="#50fcfc" fill-rule="evenodd" d="M152.875 440.48828l-.2539-.10547.2539-.16797.34766.16797-.34766.10547m4.92188 4.33203l-.14844-4.4375 1.36719-4.4375 2.73828-3.20312 2.91406-1.23438 1.52344-1.0625 4.4375.2539 3.16797.8086 1.26953.07031 1.72265-.0703 2.71875-.54298 2.7539-3.89453 1.6836-1.5039 2.14453-2.9375 2.29297-1.6875 3.96875-2.75.46875-.32032 4.4414-.3828 4.4375-2.17579v3.80078l-4.4375 1.21875-4.4414 1.4375-1.03515.85938-3.40235 3.5703-.76172.8711-2.04687 4.4375-1.6289 3.64063-4.4375.3711-4.44141.17968-4.4375-.73047-4.4375-.54688-2.52735 1.52344-1.91015 1.1211-2.06641 3.3164-.89063 4.4375.25 4.4414.08985 4.4375.6875 4.4375 1.92969 3.33595 4.4375-.59766 4.19922 1.69922.23828.11719.45312-.1172 2.13672-4.4375 1.84766-1 1.92187 1 2.51953 3.48048 2.79297.95703 1.64453.27734 4.4375.33594 1.73047-.61328 2.70703-1.10547 4.26953-3.33203.17188-.47656 2.38672-3.96094-2.38672-1.73047-4.4414-1.95703-1.08204-.75-3.35547-3.97266-.67969-.46875-3.07421-4.4375 3.7539-4.42187 4.4375 1.90234 2.41406 2.51953 2.02735 1.98438 4.4375-.24219 4.4375 2.57422.1875.1211 4.25 2.19921 4.4414.91406 4.4375.20313 4.4375-.22266 4.10547-3.09375.33203-.88281 1.27344-3.55469-.63672-4.4375-.63672-.7539-2.10937-3.6836-2.32813-2.45312-4.4375.125-2.73828-2.10938-1.69922-2.20703-2.87109-2.23437-1.57031-1.3125-4.4375-1.23047-4.4375-.97266v-3.80078l2.78516 2.8789 1.65234.52344 4.4375-.12109 3.52344-.40234.91797-.32032 1.14062.32032-.30078 4.4375 2.8125 4.4414.78516.60156 4.4375-.41796 4.03515 4.2539.40234.70313 3.15625 3.73437 1.28125 2.97656 1.85938 1.46094-.53906 4.4375-1.32031 2.20313-4.07422 2.23828-.36328.19922-4.4375 2.58594-4.4375-.01172-4.4375 1.375-2.08985.28906-2.24219 4.4375-.10937.08203-4.4375.51563-4.4375 2.9375-2.00781.90234-2.4297 1.67969-4.4414 1.04296-4.4375.81641-4.4375.23047-4.4375-.19922-3.09765.8711-1.34375 2.32812-2.20313-2.32813-2.23437-.36718-4.4375-1.28906-4.4375-.10547-2.84766-2.6797-1.21484-4.4375.29297-4.4375-.06641-4.4375-.1211-4.4414"/><path fill="#00e8fc" fill-rule="evenodd" d="M159.04688 449.26172l-.25-4.4414.89062-4.4375 2.0664-3.31641v4.80859l-1.29296 2.94531.47265 4.4414.12891 4.4375.6914 1.95704 3.51954-1.95703.91797-.76953 2.55078.76953 1.88672.40625 1.01172-.40625-.34766-4.4375-.66406-3.33203-4.4375.7461-1.3047-1.85548-3.1328-2.94531v-4.8086l1.91015-1.12109 2.52735-1.52344 4.4375.54688 4.4375.73047 4.4414-.17969 4.4375-.3711 1.6289-3.64062 2.04688-4.4375.76172-.8711 3.40235-3.5703 1.03515-.85938 4.4414-1.4375 4.4375-1.21875 4.4375.97266v2.28906l-1.68358.2539-2.75391 1.12891-4.4375 2.01563-1.70313 1.29687-2.73828 3.79688-.36719.64062.3672.25781 4.4414 1.37891 4.4375 1.34766 4.4375-.95703 4.125-2.02735.3125-.21875 1.76562-4.21875-1.76562-1.36719-3.83203-3.07421-.60547-.25391v-2.28906l4.4375 1.23047 1.57031 1.3125 2.8711 2.23437 1.69921 2.20703 2.73828 2.10938v10.72265l-.66406.48047.66406.41406 1.71094-.41406-1.71094-.48047V429.1797l4.4375-.125 2.32813 2.45312 2.10938 3.6836.63671.7539.63672 4.4375-1.27344 3.55469-.33203.88281-4.10547 3.09375-4.4375.22266-4.4375-.20313-4.4414-.91406-4.25-2.19922-.1875-.1211-4.4375-2.57421-4.4375.24219-2.02734-1.98438-2.41407-2.51953-4.4375-1.90234-3.7539 4.42187 3.07422 4.4375.67968.46875 3.35547 3.97266 1.08203.75 4.4414 1.95703 2.38673 1.73047-2.38672 3.96094-.17188.47656-4.26953 3.33203-2.70703 1.10547-1.73047.61328-4.4375-.33594-1.64453-.27734-2.79297-.95703-2.51953-3.48047-1.92187-1-1.84766 1-2.13672 4.4375-.45312.11719-.23828-.1172-4.19922-1.69921-4.4375.59766-1.9297-3.33594-.6875-4.4375-.08983-4.4375"/><path fill="#00d4fc" fill-rule="evenodd" d="M160.9336 449.26172l-.47266-4.4414 1.29297-2.94532 3.1328 2.94531 1.3047 1.85547 4.4375-.7461.66406 3.33204.34766 4.4375-1.01172.40625-1.88672-.40625-2.55078-.76953-.91797.76953-3.51953 1.95703-.69141-1.95703-.1289-4.4375m31.88671-17.4961l-.36719-.2578.3672-.64063 2.73827-3.79688 1.70313-1.29687 4.4375-2.01563 2.7539-1.1289 1.6836-.25391.60547.2539 3.83203 3.07423 1.76562 1.36718-1.76562 4.21875-.3125.21875-4.125 2.02735-4.4375.95703-4.4375-1.34766-4.4414-1.3789m26.6328 9.03125l-.66406-.41407.66406-.48047 1.71094.48047-1.71094.41406"/><path fill="#50fcfc" fill-rule="evenodd" d="M232.65625 422.6289l-3.27344-4.4375 3.38281-.96484 3.3086.96485 1.13281.66015 1.85547 3.77735-1.85547 2.10156-4.4414-2.01953-.10938-.08203m142.13672 27.34375l-.39063-.71094.39063-.71875.34375.71875-.34375.71094m8.8789 1.05468l-1.28515-1.76562 1.28515-1.21485 2.40235 1.21485-2.40235 1.76562"/><g clip-path="url(#c)"><path fill="#fff" fill-opacity="0" fill-rule="evenodd" d="M467.9961 480.32813H468V311.67188h-.0039H468v168.65625h-.0039"/></g><path fill="#fff" fill-opacity="0" fill-rule="evenodd" d="M210.03516 418.32031l3.37109 4.76953 8.13281-5.75-3.3711-4.76953-8.1328 5.75"/><path fill-rule="evenodd" d="M218.6914 416.48438l.29298.41796-5.14063 3.63282-.45313-.64454 3.66407-2.58984-.80078-1.13281.45312-.32031.3789.41796.1875.17579.20704.1328.23047.08595.27344.01953.32421-.05078.38282-.14454"/><g clip-path="url(#d)"><path fill="none" stroke="#000" stroke-linecap="round" stroke-linejoin="round" stroke-miterlimit="10" stroke-width=".5" d="M147.47656 480.83594l-6.95312-1.01563"/></g><g clip-path="url(#e)"><path fill="none" stroke="#000" stroke-linecap="round" stroke-linejoin="round" stroke-miterlimit="10" stroke-width=".5" d="M147.47656 480.83594l.82813 2.3125"/></g><g clip-path="url(#f)"><path fill="none" stroke="#000" stroke-linecap="round" stroke-linejoin="round" stroke-miterlimit="10" stroke-width=".5" d="M160.74219 481.10547l-6.85547-1.55469"/></g><g clip-path="url(#g)"><path fill="none" stroke="#000" stroke-linecap="round" stroke-linejoin="round" stroke-miterlimit="10" stroke-width=".5" d="M160.74219 481.10547l.64453 2.36719"/></g><g clip-path="url(#h)"><path fill="none" stroke="#000" stroke-linecap="round" stroke-linejoin="round" stroke-miterlimit="10" stroke-width=".5" d="M174.01953 481.25781l-6.77734-1.85937"/></g><g clip-path="url(#i)"><path fill="none" stroke="#000" stroke-linecap="round" stroke-linejoin="round" stroke-miterlimit="10" stroke-width=".5" d="M187.42969 480.78516l-6.96875-.91407"/></g><g clip-path="url(#j)"><path fill="none" stroke="#000" stroke-linecap="round" stroke-linejoin="round" stroke-miterlimit="10" stroke-width=".5" d="M187.42969 480.78516l.85937 2.29687"/></g><g clip-path="url(#k)"><path fill="none" stroke="#000" stroke-linecap="round" stroke-linejoin="round" stroke-miterlimit="10" stroke-width=".5" d="M200.76172 480.64063l-7-.625"/></g><g clip-path="url(#l)"><path fill="none" stroke="#000" stroke-linecap="round" stroke-linejoin="round" stroke-miterlimit="10" stroke-width=".5" d="M200.76172 480.64063l.95312 2.26171"/></g><g clip-path="url(#m)"><path fill="none" stroke="#000" stroke-linecap="round" stroke-linejoin="round" stroke-miterlimit="10" stroke-width=".5" d="M214.08203 480.5664l-7.01172-.47656"/></g><g clip-path="url(#n)"><path fill="none" stroke="#000" stroke-linecap="round" stroke-linejoin="round" stroke-miterlimit="10" stroke-width=".5" d="M214.08203 480.5664l1 2.2422"/></g><g clip-path="url(#o)"><path fill="none" stroke="#000" stroke-linecap="round" stroke-linejoin="round" stroke-miterlimit="10" stroke-width=".5" d="M227.3125 481.1211l-6.84375-1.58594"/></g><g clip-path="url(#p)"><path fill="none" stroke="#000" stroke-linecap="round" stroke-linejoin="round" stroke-miterlimit="10" stroke-width=".5" d="M227.3125 481.1211l.63281 2.37109"/></g><g clip-path="url(#q)"><path fill="none" stroke="#000" stroke-linecap="round" stroke-linejoin="round" stroke-miterlimit="10" stroke-width=".5" d="M240.57813 481.3125l-6.7461-1.96484"/></g><g clip-path="url(#r)"><path fill="none" stroke="#000" stroke-linecap="round" stroke-linejoin="round" stroke-miterlimit="10" stroke-width=".5" d="M253.86719 481.39844l-6.6914-2.14063"/></g><g clip-path="url(#s)"><path fill="none" stroke="#000" stroke-linecap="round" stroke-linejoin="round" stroke-miterlimit="10" stroke-width=".5" d="M267.17969 481.41016l-6.6875-2.16407"/></g><g clip-path="url(#t)"><path fill="none" stroke="#000" stroke-linecap="round" stroke-linejoin="round" stroke-miterlimit="10" stroke-width=".5" d="M279.4375 482.9961l-4.57422-5.33594"/></g><g clip-path="url(#u)"><path fill="none" stroke="#000" stroke-linecap="round" stroke-linejoin="round" stroke-miterlimit="10" stroke-width=".5" d="M291.92578 483.52344l-2.92187-6.39063"/></g><g clip-path="url(#v)"><path fill="none" stroke="#000" stroke-linecap="round" stroke-linejoin="round" stroke-miterlimit="10" stroke-width=".5" d="M302.89844 476.92969l1.76562 6.80078"/></g><path fill="none" stroke="#000" stroke-linecap="round" stroke-linejoin="round" stroke-miterlimit="10" stroke-width=".5" d="M303.15625 477.91797l.90234-.83203"/><g clip-path="url(#w)"><path fill="none" stroke="#000" stroke-linecap="round" stroke-linejoin="round" stroke-miterlimit="10" stroke-width=".5" d="M316.3789 476.89063l1.4336 6.8789"/></g><path fill="none" stroke="#000" stroke-linecap="round" stroke-linejoin="round" stroke-miterlimit="10" stroke-width=".5" d="M316.58594 477.89063l.94531-.78516"/><g clip-path="url(#x)"><path fill="none" stroke="#000" stroke-linecap="round" stroke-linejoin="round" stroke-miterlimit="10" stroke-width=".5" d="M327.17578 478.96094l6.47266 2.73828"/></g><path fill="none" stroke="#000" stroke-linecap="round" stroke-linejoin="round" stroke-miterlimit="10" stroke-width=".5" d="M328.11719 479.35938l-.10938-1.22266"/><g clip-path="url(#y)"><path fill="none" stroke="#000" stroke-linecap="round" stroke-linejoin="round" stroke-miterlimit="10" stroke-width=".5" d="M340.46484 479.01953l6.52344 2.61719"/></g><path fill="none" stroke="#000" stroke-linecap="round" stroke-linejoin="round" stroke-miterlimit="10" stroke-width=".5" d="M341.41406 479.40234l-.13281-1.22265"/><g clip-path="url(#z)"><path fill="none" stroke="#000" stroke-linecap="round" stroke-linejoin="round" stroke-miterlimit="10" stroke-width=".5" d="M353.60156 479.61719l6.8789 1.42578"/></g><g clip-path="url(#A)"><path fill="none" stroke="#000" stroke-linecap="round" stroke-linejoin="round" stroke-miterlimit="10" stroke-width=".5" d="M366.85938 480.67188l6.99218-.6836"/></g><g clip-path="url(#B)"><path fill="none" stroke="#000" stroke-linecap="round" stroke-linejoin="round" stroke-miterlimit="10" stroke-width=".5" d="M367.875 480.57031l-.67578-1.02344"/></g><g clip-path="url(#C)"><path fill="none" stroke="#000" stroke-linecap="round" stroke-linejoin="round" stroke-miterlimit="10" stroke-width=".5" d="M380.16797 480.57813l7.00781-.5"/></g><g clip-path="url(#D)"><path fill="none" stroke="#000" stroke-linecap="round" stroke-linejoin="round" stroke-miterlimit="10" stroke-width=".5" d="M381.1875 480.5039l-.65234-1.03906"/></g><g clip-path="url(#E)"><path fill="none" stroke="#000" stroke-linecap="round" stroke-linejoin="round" stroke-miterlimit="10" stroke-width=".5" d="M393.59766 479.40234l6.77734 1.85547"/></g><path fill="none" stroke="#000" stroke-linecap="round" stroke-linejoin="round" stroke-miterlimit="10" stroke-width=".5" d="M394.58203 479.67188l-.26953-1.19922"/><g clip-path="url(#F)"><path fill="none" stroke="#000" stroke-linecap="round" stroke-linejoin="round" stroke-miterlimit="10" stroke-width=".5" d="M407.30469 478.4961l5.99219 3.66796"/></g><g clip-path="url(#G)"><path fill="none" stroke="#000" stroke-linecap="round" stroke-linejoin="round" stroke-miterlimit="10" stroke-width=".5" d="M421.26563 482.9414l4.69921-5.22656"/></g><g clip-path="url(#H)"><path fill="none" stroke="#000" stroke-linecap="round" stroke-linejoin="round" stroke-miterlimit="10" stroke-width=".5" d="M435.90625 483.6914l2.04688-6.72265"/></g><g clip-path="url(#I)"><path fill="none" stroke="#000" stroke-linecap="round" stroke-linejoin="round" stroke-miterlimit="10" stroke-width=".5" d="M451.26953 480.32813l-.01953-.19922-.0586-.19141-.09374-.17578-.46094-.3789-.1914-.0586-.19923-.01953-.19921.01953-.19141.0586-.45703.3789-.09766.17578-.0586.1914-.01952.19923.01953.19921.0586.19141.09765.17969.45703.375.1914.0586.19922.01952.19922-.01953.1914-.0586.46095-.375.09375-.17968.05859-.1914.01953-.19922"/></g><g clip-path="url(#J)"><path fill="none" stroke="#000" stroke-linecap="round" stroke-linejoin="round" stroke-miterlimit="10" stroke-width=".5" d="M461.59375 483.23828l3.9336-5.82031"/></g><g clip-path="url(#K)"><path fill="none" stroke="#000" stroke-linecap="round" stroke-linejoin="round" stroke-miterlimit="10" stroke-width=".5" d="M147.47656 467.51953l-6.95312-1.01172"/></g><path fill="none" stroke="#000" stroke-linecap="round" stroke-linejoin="round" stroke-miterlimit="10" stroke-width=".5" d="M147.47656 467.51953l.82813 2.3086m12.30469-1.59375l-6.58985-2.44141m6.58984 2.4414l.32813 2.4297m12.98438-2.42188l-6.58204-2.45703m6.58203 2.45703l.32032 2.4336m13.10156-2.77345l-6.79688-1.77734m6.79688 1.77734l.5664 2.39063m12.76173-2.4336l-6.82032-1.6914m6.82031 1.6914l.59766 2.37891m12.78516-2.73437l-6.95703-.98047m6.95703.98047l.83594 2.30859m12.51171-2.67188l-7.02343-.2539m7.02343.2539l1.07422 2.20704m12.23438-2.10938l-7.01172-.44922m7.01172.44922l1.01172 2.23438m12.08984-1.23438l-6.58594-2.44922m5.6289 2.09375l.16017 1.21485m14.10546-.84375l-6.57422-2.48047m5.6172 2.1211l.15624 1.21484m14.14453-.9336l-6.6289-2.32422m5.66406 1.98828l.1875 1.21094m13.09766-4.67578l-4.63672 5.27734m3.96093-4.51171l1.19532.28125m10.7539-1.91016l-.55468 7.0039m.47265-5.98437l1.125-.48828m11.72656-.53125l.53907 7.0039m-.46094-5.98437l1.03516-.66016m10.83984.02735l3.25781 6.23047m-2.78125-5.32422l.6914-1.01172m11.96485.21094l3.625 6.01953m-3.09765-5.14453l.6289-1.05078m12.96875-.1836l2.0039 6.73828m-1.71093-5.75781l.875-.85937m10.59766.83203l5.10156 4.83203m-4.35938-4.1289l.32813-1.1836m11.28516 2.82031l7.02343.15234m-6.0039-.1289l-.55078-1.09766m13.57812-.9961l5.5586 4.29298m-4.75-3.66797l.20703-1.21094m11.5703 2.53516l7.01563.39453m12.28907-2.6836L421.13672 469.5m15.71484-6l.15625 7.02734m12.16406-6.85937l2.14844 6.6914m14.53125-6.01171l-4.57812 5.33203"/><g clip-path="url(#L)"><path fill="none" stroke="#000" stroke-linecap="round" stroke-linejoin="round" stroke-miterlimit="10" stroke-width=".5" d="M147.45703 454.32422l-6.91406-1.25"/></g><path fill="none" stroke="#000" stroke-linecap="round" stroke-linejoin="round" stroke-miterlimit="10" stroke-width=".5" d="M147.45703 454.32422l.75 2.33594m12.14063-1.1875l-6.0625-3.55079m6.0625 3.55079l-.10157 2.45312m12.6797-1.57031l-4.59376-5.3164m3.92578 4.54296l-.4414 1.14453m14.8164-.76562l-5.375-4.52344m4.59375 3.86719l-.25781 1.19922m14.59766-.8672l-5.85938-3.8789m5.0039 3.3164l-.11718 1.21876m14.58984-1.22266l-6.46875-2.7461m5.52735 2.34767l.10937 1.22265m14.01563-.54687l-6.20313-3.29688m5.30078 2.8164v1.22657m14.6172-2.67969l-7.00392.5664m5.98438-.48046l.66406 1.03125m13.67188-.57422l-7.00781-.51562m5.98828.4414l.49609 1.1211m13.73047-.39844l-6.78906-1.8125m5.80078 1.55078l.27734 1.19531m13.40234-4l-5.54296 4.3164m4.73828-3.6875l1.1211.5m11.51562-2.23827l-2.57422 6.53906m2.19922-5.58984l1.21875-.13672m11.07421-1.05469l.21875 7.02344m-.1875-6.0039l1.0625-.60938m11.96094-.39453l.73828 6.98828m-.6289-5.96875l1.01562-.6875m12.28125-.33985l.5586 7.0039m-.47657-5.98437l1.03125-.66015m11.8047-.30469l1.35155 6.89453m-1.15625-5.89062l.95313-.77344m12.9414-.29297l-.19921 7.02344m.16796-6.0039l1.10157-.54298m10.125.16016l4.04297 5.75m-3.45704-4.91406l.5547-1.09375m12.38671.11718l3.61328 6.02735m-3.08594-5.14844l.63282-1.05078m11.14062 1.09375l5.64453 4.1875m-4.82422-3.57813l.1836-1.21484m11.95312 1.20313l6.35938 2.99218m-5.4336-2.5586l-.05859-1.22265m12.36328.98828l6.53125 2.59375m-5.58203-2.21875l-.13672-1.21875m12.2539 2.14063h7.02735m-6.0039 0l-.57813-1.08203m13.08984 2.3086l6.58594-2.45313m-5.625 2.09765l-.91797-.8164m18.19532-3.16797l-3.26172 6.22656m2.78906-5.32031l1.22656-.00781"/><g clip-path="url(#M)"><path fill="none" stroke="#000" stroke-linecap="round" stroke-linejoin="round" stroke-miterlimit="10" stroke-width=".5" d="M147.0664 442.09766l-6.1328-3.4297"/></g><path fill="none" stroke="#000" stroke-linecap="round" stroke-linejoin="round" stroke-miterlimit="10" stroke-width=".5" d="M147.0664 442.09766l-.05077 2.45312m13.08203-2.02344l-5.56641-4.28906m4.75781 3.66797l-.20703 1.20703m12.9375.4961l-2.77734-6.45313m2.3711 5.51563l-.76563.95703m13.89062.17578l-1.58594-6.84375m1.35547 5.84765l-.92578.8086m12.75781.15625l1.83985-6.78125m-1.57031 5.79687l-1.19922.26953m13.64062.4922l3.05078-6.33204m-2.60547 5.41016l-1.22656.04687m13.6836.63672l3.875-5.85937m-3.3125 5.0078l-1.21875-.11718m12.40234-1.75l7.01172-.41797m6.3789.96875l6.85938-1.52344m-5.85938 1.3047l-.79687-.9336m16.54297 3.90625v-7.02735m9.88281 4.26172l6.86328-1.5m8.95703-2.63672l1.85157 6.77735m-1.58204-5.79297l.89454-.83984m12.8125-.26172l.52734 7.0078m-.44922-5.98827l1.03516-.65625m11.20703-.13672l2.51953 6.5586m-2.15234-5.60548l.80468-.92578m13.28516-.26172l.23828 7.02344m-.20312-6l1.0625-.61328m11.83203-.375l1.0078 6.95313m-.85937-5.94141l.98829-.72656m10.79687.22656l3.76953 5.9336m-3.21875-5.07032l.60547-1.0664M369.41797 437l1.8789 6.76953m-1.60546-5.78515l.88672-.84766m9.92968 1.71875l6.32813 3.05469m-5.40625-2.60938l-.05078-1.22656m13.6328-.59766l3.94923 5.8125m-3.375-4.96484l.57031-1.08594m13.42969-.29687l1.42969 6.8828m-1.21875-5.8789l.9414-.78515m11.9961-.1797l1.76171 6.8047m-1.5039-5.8125l.90234-.82813m9.53906 2.89453l6.9961.6875m-5.97656-.58593l-.46875-1.13672m13.58203 3.64843l5.36328-4.53906m-4.58594 3.8789l-1.13672-.45312m19.23047.86328l-5.75-4.03906"/><g clip-path="url(#N)"><path fill="none" stroke="#000" stroke-linecap="round" stroke-linejoin="round" stroke-miterlimit="10" stroke-width=".5" d="M147.23828 428.42969l-6.47656-2.72266"/></g><path fill="none" stroke="#000" stroke-linecap="round" stroke-linejoin="round" stroke-miterlimit="10" stroke-width=".5" d="M147.23828 428.42969l.22266 2.44531m12.76562-1.84375l-5.82422-3.92578m4.97657 3.35547l-.125 1.21875m13.01562.4961l-3.27734-6.21485m2.80078 5.3125l-.6914 1.01172m11.05468-.19141l3.57813-6.05078m-3.0547 5.17187l-1.22655-.05859m12.45312-1.04297l6.70703-2.08984m-5.73047 1.78515l-.8711-.86328m13.0586.34766l7.01172-.44922m-5.99219.38281l-.64453-1.04297m12.96094 1.33203l6.96875-.89453m-5.95703.76172l-.70703-1m13.09375 1.57031l6.80078-1.76953m-5.8086 1.51172l-.83203-.90234m13.51953 2.04687l6.07032-3.54297m-5.1875 3.02735l-1.04297-.64844m13.88281 1.72266l5.25781-4.66016m-4.49218 3.98438l-1.14844-.4297m13.76562 1.1797l5.1211-4.8086m-4.375 4.10938l-1.16406-.39453m12.8828-2.15235l6.82423 1.6836m6.51562-1.78125l6.77344 1.8789m-5.78906-1.60547l-.26563-1.19922m15.34766-1.58984l1.26953 6.91016m-1.08594-5.90625l.96094-.76172m12.88672-.30078l-.16406 7.02734m.14062-6.0039l1.09766-.55079m11.44922-.39843l1.42187 6.8789m-1.21484-5.8789l.9453-.78125m10.35157.77343l5.04297 4.89453m-4.3086-4.18359l.33985-1.17578m12.71094.0586l4.10156 5.70702m-3.5039-4.875l.54296-1.10156m12.96485-.15625l2.52343 6.5586m-2.52343-6.5586l1.60547-1.85156m14.45312 1.94531l-2.96484 6.3711m2.96484-6.3711l2.45313-.1289m10.41406-.04297l-2.07031 6.71484m1.76953-5.73828l1.20703-.23047m13.42969-.23828l-4.10938 5.69922m4.10938-5.69922l2.42968.33203m10.2539-.69531l-2.84765 6.42578m2.84766-6.42578l2.44531-.17578m-2.85937 1.10937l1.22265-.08594m9.8164 5.64454l2.53126-6.5586m-2.16016 5.60547l-1.21875.14453m16.45703.89063l-2.05859-6.71875m1.76172 5.73828l-.86719.8711"/><g clip-path="url(#O)"><path fill="none" stroke="#000" stroke-linecap="round" stroke-linejoin="round" stroke-miterlimit="10" stroke-width=".5" d="M147.4961 414.10938l-6.9922-.71094"/></g><path fill="none" stroke="#000" stroke-linecap="round" stroke-linejoin="round" stroke-miterlimit="10" stroke-width=".5" d="M146.47656 414.0039l.46485 1.13673m13.74609-.40235l-6.7461-1.97265m5.76563 1.6875l.2461 1.19921m13.65234-.02734l-5.94922-3.74219m5.08203 3.19531l-.08984 1.22657m12.45703.76562l-2.32031-6.63281m11.72656 5.5039l5.5-4.375m7.05469 2.05079l7.01953.27344m-6-.23438l-.53516-1.10547m12.89063 1.86328l6.89843-1.32031m-5.89453 1.1289l-.76953-.95702m13.29688 1.86328l6.46484-2.75m-6.46484 2.75l-1.91016-1.54297m15.36328 1.82812l6.1914-3.32031m-5.29296 2.83594l-1.01953-.67969m13.60156 1.4414l5.85938-3.875m-5.00782 3.3125l-1.07812-.58593m13.0625.0625l6.8164-1.70313m-5.82422 1.45704l-.8203-.91407m13.15624-.59375l6.79297 1.80469m-5.80469-1.54297l-.28125-1.19531m12.96094.07812l6.08594 3.51563m-5.19922-3.0039l.04297-1.22657m12.42187.65234l6.01172 3.64063m6.84766-2.42969l6.92187 1.21875m-5.91406-1.03906l-.3789-1.16797m12.76171.65625l6.77344 1.8789m12.53125-3.30077l-5.20703 4.72265m13.07422-.30078l5.6914-4.1211m8.30079-.70312l4.33593 5.53125m-3.70703-4.72656l.5-1.1211m13.2461-.2539l2.21484 6.67187m-1.89063-5.69921l.84375-.89063m14.6211.01563l-2.73438 6.47656m2.73438-6.47656l2.44531-.21875m10.8125.1953l-2.61719 6.52345m2.6172-6.52344l2.4375-.26172m10.95312.29297l-2.76954 6.45703m2.76954-6.45703l2.4453-.20313m12.96095 3.9375l-6.95313-1.00781m5.9414.86328l.41407 1.15235m11.8086 1.72265l-2.7461-6.46875m2.34766 5.52735l-.77344.95312"/><g clip-path="url(#P)"><path fill="none" stroke="#000" stroke-linecap="round" stroke-linejoin="round" stroke-miterlimit="10" stroke-width=".5" d="M147.4414 399.72266l-6.8828 1.42968"/></g><path fill="none" stroke="#000" stroke-linecap="round" stroke-linejoin="round" stroke-miterlimit="10" stroke-width=".5" d="M146.4375 399.92969l.78516.94531m7.11718-2.30469l5.95313 3.73438m6.86719-1.32422l6.9414-1.08594m6.48438 1.57813l6.71875-2.06641m-5.74219 1.76563l-.86719-.8672m13.0664.44532l7-.625m-5.98437.53516l-.66797-1.02735m12.96485.50781l7.0039.59375m-7.0039-.59375l-.96484-2.2539m14.26953 2.58203l7.02343-.0625m-7.02343.0625l-1.17188-2.15625m2.1914 2.14844l-.58593-1.07813m12.91016 1.51953l6.96484-.92968m-6.96484.92968l-1.4297-1.99218m15.1211 3.16796l6.21485-3.28125m-6.21485 3.28125l-2.03125-1.375m15.95313 2.20313l5-4.9375m-4.27344 4.21875l-1.16797-.36328m13.98047 1.28906l4.55078-5.35156m-3.89062 4.57422l-1.19532-.26172m13.84766-4.3086l4.5586 5.34766m9.54687-5.85937l2.97656 6.36718m12.05469-6.6875l-.45703 7.01172m14.25781-6.94922l-1.42578 6.88282m15.46875-6.64454l-2.88672 6.40625m15.55078.22266l-1.58203-6.84765m1.35156 5.85156l-.92578.80469m15.48438-.21875l-3.60547-6.03125m3.07812 5.15625L371 403.625m15.625-5.08594l-5.91016 3.80078m5.05079-3.25l1.0703.60157m10.07813-2.76563l.14453 7.02344m-.125-6l1.07032-.60156m14.85156.67968l-5.10938 4.82032m4.3672-4.1172l1.16405.39063m12.09375-1.72656l-3.51171 6.08594m3.51171-6.08594l2.45313.08594m10.94531-.03516l-3.67578 5.98828m3.67578-5.98828l2.44922.15235m12.21875 1.36718l-6.3789 2.94532m5.44921-2.51563l.97656.74219m12.51172 2.83594l-4.86718-5.07032m4.15625 4.33204l-.38282 1.16796"/><g clip-path="url(#Q)"><path fill="none" stroke="#000" stroke-linecap="round" stroke-linejoin="round" stroke-miterlimit="10" stroke-width=".5" d="M147.3789 386.15625l-6.7578 1.9336"/></g><path fill="none" stroke="#000" stroke-linecap="round" stroke-linejoin="round" stroke-miterlimit="10" stroke-width=".5" d="M147.3789 386.15625l1.70313 1.76563m-2.6875-1.48438l.85156.88281m13.125-1.9336l-6.10937 3.47267m6.10937-3.47266l2.07032 1.3164m10.58203-2.15234l-4.78906 5.14453m4.09375-4.39453l1.18359.3164m11.5-1.83984l-2.13281 6.69532m1.82422-5.72266l1.20703-.21875m10.82422-.88281l1.05468 6.94922m-.90234-5.9375l.98437-.73047m10.375.5625l4.66016 5.26172m-3.98438-4.4961l.4297-1.14844m11.02734 2.85547l7.01953.32032m-5.9961-.27735l-.52734-1.10547m14.32031 4.10157l4.01953-5.76172m-4.01953 5.76172l-2.4375-.29688m17.15235.875l1.21875-6.91797m-1.03907 5.91406l-1.16797.37891m14.35938.63672l1.10938-6.9414m-.94922 5.92968l-1.16016.39844m14.71094.65234l.3164-7.01953m-.26953 6l-1.10937.52735m17.26172-.80079l-5.45313-4.43359m4.66016 3.78906l-.23438 1.20313m14.97266-1.73438l-6.71094-2.08203m5.73438 1.77735l.23046 1.20703m14.21875-2.03516l-7.02734.1836m6.0039-.15626l.60548 1.06641m13.73437-.94531l-7.02734-.10938m6.0039.08985l.5586 1.09375m13.7461-.65625l-6.96095-.94922m5.94922.8125l.42188 1.14844m13.60547.0078l-6.36329-2.98827m5.4375 2.55078l.0625 1.22656m14.44141-2.97656l-6.89062 1.38672m5.88671-1.1836l.78125.94922m12.1836-3.28125l-4.1836 5.64453m3.57813-4.82422l1.21094.1836m12.51172-1.14063l-3.78516 5.92188m3.78516-5.92188l2.4453.19531m10.8125-.23046l-3.67187 5.99218m3.67188-5.99218l2.44922.14843m10.5586-.3164l-3.0586 6.32422m3.0586-6.32422l2.45312-.09375m11.08593.21094l-3.5039 6.08984m3.5039-6.08985l2.45313.08204m11.16015.10937l-4.10156 5.70703m3.5039-4.875l1.21485.16406m13.29688 4.16407l-5.29688-4.61328m4.52735 3.9414l-.27735 1.19531"/><g clip-path="url(#R)"><path fill="none" stroke="#000" stroke-linecap="round" stroke-linejoin="round" stroke-miterlimit="10" stroke-width=".5" d="M147.3086 372.6211l-6.6172 2.375"/></g><path fill="none" stroke="#000" stroke-linecap="round" stroke-linejoin="round" stroke-miterlimit="10" stroke-width=".5" d="M147.3086 372.6211l1.8164 1.64843m11.54688-1.5039l-6.71094 2.08203m6.71094-2.08204l1.74218 1.73047m11.52344-1.86718l-6.61719 2.35937m6.61719-2.35937l1.8164 1.65234m11.26563-2.17578l-6.14844 3.40625m6.14844-3.40625l2.0586 1.33984m-2.95313-.84375l1.02734.66797m12.51953-2.01562l-4.82421 5.10937m4.82422-5.10937l2.36718.64843m-3.07031.09375l1.1836.32422m12-1.65234l-3.15626 6.28125m3.15625-6.28125l2.45313-.05469m10.16406 6.59766l-1.75781-6.80469m15.98047 6.42969l-3.57031-6.05469m3.5703 6.05469l-1.28124 2.08984m14.89844-2.28906l-4.17579-5.65625m4.17578 5.65625l-1.0625 2.21094m14.57422-2.3711l-4.5703-5.33594m4.5703 5.33594l-.89843 2.28516m14-2.11328l-4.14063-5.67969m4.14063 5.67969l-1.07422 2.20703m15.3164-3.21485l-5.99609-3.66406m5.1211 3.1289l-.07032 1.22657m14.76172-2.23047l-7-.58594m5.98047.5l.48437 1.12891m13.86328-1.35156l-7.02734.03125m6.0039-.02735l.58204 1.08204m13.75781-1.1211l-7.02734.10156m6.0039-.08593l.58985 1.07422m13.6875-1.6797l-6.91016 1.28126m5.90625-1.09375l.76172.95703m13.58984-.92578l-6.97265.84375m5.96093-.72266l.69922 1.00781m13.53125-1.63671l-6.77734 1.85937m5.78906-1.58984l.84375.89453m12.6211-2.65235l-5.10157 4.83594m4.35938-4.13281l1.16015.39063m12.02344-1.76172l-3.35547 6.17187m3.35547-6.17187l2.45313.02343m10.32422-.26171l-2.28125 6.64843m2.28125-6.64844l2.42187-.38671m10.8125.35937l-2.11719 6.70313m2.1172-6.70313l2.41015-.44531m11.39843.64453l-3.10546 6.30469m3.10546-6.30469l2.45313-.07422m10.21484-.16797l-1.8125 6.78906m1.55078-5.80078l1.19532-.27734m14.48828 4.4961l-6.02344-3.625"/><g clip-path="url(#S)"><path fill="none" stroke="#000" stroke-linecap="round" stroke-linejoin="round" stroke-miterlimit="10" stroke-width=".5" d="M145.96094 357.57813l-3.92188 5.83203"/></g><path fill="none" stroke="#000" stroke-linecap="round" stroke-linejoin="round" stroke-miterlimit="10" stroke-width=".5" d="M145.39063 358.42578l1.21875.1289m12.25-1.21874l-3.08985 6.3125m2.64063-5.39453l1.22656-.03907m13.01172-.59765l-4.03906 5.75m3.45312-4.91406l1.21875.15234m12.94922-.78125l-4.57031 5.33984m4.5703-5.33984l2.39454.53515m11.0664-.40234l-4.86327 5.07422m4.86328-5.07422l2.36328.66797m10.92969-.6914l-4.81641 5.11718m4.8164-5.11719l2.3672.64844m11.48827 3.82031l-5.89843-3.8164m5.03906 3.26172l-.10156 1.21875m11.33203.9414l-.01172-7.02734m.01172 6.0039l-1.08203.57813m15.60937.22656l-2.4375-6.58984m2.08594 5.6289l-.8164.91797m14.93359-.16015l-3.33594-6.1875m2.84766 5.28906l-.6797 1.01953m15.125-.5664l-4.62109-5.29297m3.94922 4.51953l-.4375 1.14844m15.42578-1.85157l-6.625-2.34375m5.66016 2.0039l.1836 1.21485m14.2578-1.52344l-6.94921-1.04687m5.9414.89453l.40625 1.16016m13.95704-1.61719l-7.02735.17578m6.0039-.15234l.60157 1.07031m13.73828-1.02344l-7.02734.03125m6.0039-.02734l.58204 1.08203m13.69921-1.70313l-6.91406 1.26563m5.90625-1.07813l.76172.96094m13.5039-1.39844l-6.80077 1.76563m5.8125-1.50781l.82812.90234m13.0039-2.21875l-5.85937 3.88281m5.00781-3.3164l1.07813.58594m12.35547-1.95313l-4.39453 5.48438m3.7578-4.6836l1.20313.22656m12.27735-1.34765l-3.44922 6.125m3.44922-6.125l2.45312.0625m9.98438-.41016l-1.69531 6.82031m1.6953-6.8203l2.38282-.59376m11.40625.75l-2.64453 6.51172m2.64453-6.51172l2.4414-.2539m10.79298.22265l-2.48047 6.57422m2.48046-6.57422l2.4336-.3164m11.0625.39062l-2.84375 6.42578m2.84375-6.42578l2.44922-.17578m10.22656-.03906l-1.5625 6.85156"/><g clip-path="url(#T)"><path fill="none" stroke="#000" stroke-linecap="round" stroke-linejoin="round" stroke-miterlimit="10" stroke-width=".5" d="M142.21484 344.15234l3.57032 6.05079"/></g><path fill="none" stroke="#000" stroke-linecap="round" stroke-linejoin="round" stroke-miterlimit="10" stroke-width=".5" d="M154.8789 344.64453l4.8711 5.0664m-4.8711-5.0664l.76563-2.33203m12.52344 2.35938l4.92187 5.01171m-4.92187-5.01171l.73828-2.33985m12.89453 2.0625l4.28906 5.5664m-4.28906-5.5664l1.01563-2.23437m13.63672 1.59765l1.61718 6.83985m-1.61719-6.83985l1.84375-1.61719m14.45704 2.28125l-4.35547 5.51172m4.35547-5.51171l2.41406.4375m12.20312 1.84765l-6.96093.9414m5.94922-.80468l.71484.9961m10.64062 2.8125l-1.01953-6.94923m.8711 5.94141l-.98828.72656m12.98437.1875l1.91797-6.76171m-1.64063 5.77734l-1.19922.25781m14.82422.83985l.7422-6.98829m-.63282 5.97266l-1.14063.45703m14.9297.57031l-.42579-7.01171m.36328 5.99218l-1.04687.64063m16.54297-.4961l-4.66016-5.26171m3.98047 4.49609l-.42969 1.14844m15.15625-1.28907l-6.125-3.4453m6.125 3.4453l-.0586 2.45313m13.70704-3.28125l-6.79297-1.79297m5.80469 1.53516l.28125 1.1914m14.125-1.53125l-7-.59765m5.98437.51171l.48047 1.12891m13.71484-2.35547l-6.72656 2.02735m5.7461-1.73047l.86718.8711m13.55469-.56642l-6.98047.82422m5.96484-.70312l.69922 1.00781m13.46875-1.84375l-6.65625 2.2539m5.6875-1.92577l.89453.83984m12.61329-2.45703l-5.10547 4.83203m5.10547-4.83203l2.32812.78515m10.19531-1.41015l-3.51953 6.08203m3.51953-6.08203l2.45313.08984m10.19922-.38672l-2.1914 6.67579m2.1914-6.67579l2.41797-.41796m10.26171.27343l-.92578 6.96485m.92578-6.96485l2.30079-.85547m11.47656.94922l-1.84766 6.77735m1.84766-6.77735l2.39453-.54297m11.26562.65625l-2.53515 6.55079m2.53515-6.55079l2.4336-.29296m12.20703 1.19921l-5.1875 4.73829m4.4336-4.05079l1.15624.41407"/><g clip-path="url(#U)"><path fill="none" stroke="#000" stroke-linecap="round" stroke-linejoin="round" stroke-miterlimit="10" stroke-width=".5" d="M141.02344 331.9961l5.95312 3.73437"/></g><path fill="none" stroke="#000" stroke-linecap="round" stroke-linejoin="round" stroke-miterlimit="10" stroke-width=".5" d="M154.21094 332.21484l6.20703 3.29297m-6.20703-3.29297l-.0039-2.45312m.90624 2.9336v-2.45313m12.26563 2.29297l6.5039 2.65625m-6.5039-2.65625l-.25-2.44141m1.1953 2.82813l-.25-2.44141m12.58204 2.14453l6.57813 2.47656m-6.57813-2.47656l-.3164-2.4336m1.27343 2.79298l-.3164-2.4336m12.68359 2.05078l6.5586 2.52344m-6.5586-2.52344l-.29688-2.4336m1.25 2.80079l-.14843-1.21875m12.74218.36328l6.09766 3.4961m-6.09766-3.4961l.07813-2.44922m18.09375 1.1875l-3.61719 6.02344m3.08984-5.14844l1.22657.0625m9.0625 5.125l3.48828-6.10156m-2.98047 5.21484l-1.22656-.03906m15.05078 1.3125l1.45703-6.875m-1.45703 6.875l-2.35938.67578m15.57032-.69922l1.66406-6.82812m-1.66406 6.82812l-2.37891.60547m16.45703-.50781l.13672-7.02344m-.13672 7.02344l-2.1875 1.10938m16.34766-1.19532l-1.55078-6.85156m1.32422 5.85547l-.9297.80078m15.45313-.1875l-3.51562-6.08594m3.0039 5.19922l-.65234 1.04297m15.46094-1.0039l-5.48047-4.39454m4.6836 3.75781l-.22657 1.20313m14.20703-.41016l-5.21875-4.70312m4.46094 4.01953l-.29688 1.1914m15.23438-3.3789l-6.94922 1.03906m5.9414-.88672l.72657.98438m12.6289-3.07813l-5.01171 4.92188m15.02343-5.88281l1.59375 6.84375m-1.35937-5.84766l.92187-.8086m15.64844.97657l-5.38672 4.51562m4.60547-3.85937l1.13672.46094m11.9961-1.91797l-3.45704 6.11719m3.45703-6.1172l2.45313.0625m10.02344-.40234l-1.77735 6.79688m1.77735-6.79688l2.38671-.5664m9.6797.46875l.71874 6.99219m-.61719-5.97266l1.01954-.6875m14.53515.26172l-3.96484 5.80469m3.38672-4.96094l1.21875.13672m12.71875-.94922l-4.05078 5.74219m4.05078-5.7422l2.4336.3086m11.32812.0664l-4.94532 4.9922"/><g clip-path="url(#V)"><path fill="none" stroke="#000" stroke-linecap="round" stroke-linejoin="round" stroke-miterlimit="10" stroke-width=".5" d="M466.03516 331.36719l2.34765.70703"/></g><g clip-path="url(#W)"><path fill="none" stroke="#000" stroke-linecap="round" stroke-linejoin="round" stroke-miterlimit="10" stroke-width=".5" d="M140.88281 318.92578l6.23438 3.2461"/></g><path fill="none" stroke="#000" stroke-linecap="round" stroke-linejoin="round" stroke-miterlimit="10" stroke-width=".5" d="M154.07422 319.1914l6.48437 2.71094m-6.48437-2.71093l-.22656-2.44141m13.3125 3.23438l6.9375 1.125m-6.9375-1.125l-.78907-2.32032m1.80078 2.48438l-.39453-1.16016m12.67578 1.16797l6.98438.78125m-6.98438-.78125l-.90234-2.28125m1.91797 2.39453l-.90234-2.28125m13.20312 2.14453l6.98047.82813m-6.98047-.82813l-.88672-2.28515m1.90235 2.40625l-.44141-1.14454m12.77344.8086l6.91406 1.26172m-6.91406-1.26172l-.74219-2.33985m1.75 2.52344l-.3711-1.17187m12.65626 1.14453l6.96093.94922m-6.96093-.94922l-.84766-2.30469m14.27344 3.76563l6.74219-1.97657M234.8164 321.25l-.85938-.8789m14.58594 3.08202l3.95312-5.80859m-3.375 4.96485l-1.22265-.13282m13.01172.01563l5.85156-3.88672m-5 3.32031l-1.08203-.58203m15.30078 2.51953l2.33984-6.6289m-2.33984 6.6289l-2.42578.36328m16.26953-.22265l1.28125-6.91016m-1.28125 6.91016l-2.33984.73828m16.60156-.69531l-.60938-7m.60938 7l-2.0586 1.33593m16.57422-1.66015l-3.01172-6.34766m2.57422 5.42578l-.73437.98438m16.23437-1.91016l-6.50781-2.65625m5.5625 2.26953l.1211 1.22266m14.02343-3.74219l-6.27344 3.16016m5.35938-2.70313l1.0039.71094m12.32422-2.30078l-4.47265 5.42187m3.82031-4.63281l1.20313.2461m9.34375-1.63282l2.36718 6.61719m-2.02343-5.65235l.82812-.90625m16.2461 1.29297l-5.83594 3.91407m4.98437-3.34375l1.08203.57812m12.17188-2.07422l-4.01172 5.76953m4.01172-5.76953l2.4375.28906m10.1289-.6875l-2.51171 6.5625m2.51171-6.5625l2.4336-.30078m8.3125.32422l2.625 6.51953m-2.24219-5.5703l.78906-.94142m9.9961 3.86329l6.91797-1.22266m-5.91407 1.04297l-.7539-.96485m19.85156-.59765l-6.65625 2.25781m5.6875-1.92969l.89453.84375m12.97656-2l-5.83203 3.91797"/><g clip-path="url(#X)"><path fill="none" stroke="#000" stroke-linecap="round" stroke-linejoin="round" stroke-miterlimit="10" stroke-width=".5" d="M466.47656 318.58984l2.16406 1.15235"/></g><path fill="#00f" fill-rule="evenodd" d="M383.80078 432.14063h8.61719v-10.14454h-8.61719v10.14454"/><path fill="azure" fill-rule="evenodd" d="M385.63281 423.82813h.83203v2.82421h3.28907v-2.82421h.83203v6.48046h-.83203v-2.91796h-3.28907v2.91796h-.83203v-6.48046"/><path fill="#00f" fill-rule="evenodd" d="M370.48438 396.63281h8.62109v-10.14453h-8.6211v10.14453"/><path fill="azure" fill-rule="evenodd" d="M372.3164 388.32031h.83594v2.82422h3.28516v-2.82422h.83203v6.48047h-.83203v-2.91406h-3.28516v2.91406h-.83593v-6.48047"/><path fill="#ff3030" fill-rule="evenodd" d="M242.46875 365.5664h7.6914v-10.14452h-7.6914v10.14453"/><path fill="azure" fill-rule="evenodd" d="M244.30078 357.2539h.83203v5.73829h3.19531v.74219h-4.02734v-6.48047"/><path fill="#ffffe0" fill-rule="evenodd" d="M430.98047 454.5664h22.1836v-10.1953h-22.1836v10.1953"/><path fill-rule="evenodd" d="M434.48047 446.20703h.51172V452.5h-.78906v-4.48828h-1.38672v-.55469l.55859-.0664.2539-.0547.22657-.08984.20312-.14062.17579-.21094.14062-.29297.10547-.39453m4.8164 0l.22657.01563.21875.05859.21094.08984.1953.1211.1836.14844.17188.17578.30078.41796.24219.4961.17968.54297.11328.58203.03907.58984-.03907.59375-.11328.58203-.17969.5547-.24218.5039-.30078.42578-.17188.17969-.1836.15625-.1953.12109-.21094.09375-.21875.05469-.22656.01953-.23047-.01953-.21875-.05469-.20704-.09375-.19921-.1211-.1836-.15624-.17187-.1797-.30078-.42577-.2422-.5039-.17968-.5547-.11328-.58203-.03906-.59375h.83594l.02734.5625.08203.50781.125.44141.16406.375.1914.30078.21095.22266.22265.13672.22656.04687.22657-.04687.22265-.13672.20704-.22266.1914-.30078.16406-.375.125-.4414.08204-.50782.02734-.5625-.02735-.5625-.08203-.5-.125-.4336-.16406-.36718-.1914-.29297-.20704-.21484-.22265-.1289-.22656-.04688-.22657.04687-.22265.1289-.21094.21485-.1914.29297-.16407.36719-.125.4336-.08203.5-.02735.5625h-.83593l.03906-.58985.11328-.58203.17969-.54297.24219-.4961.30078-.41796.17187-.17579.1836-.14843.19921-.1211.20704-.08984.21875-.0586.23046-.01562m4.94922 0l.23047.01563.21875.05859.20703.08984.19922.1211.1836.14844.17187.17578.30078.41796.24219.4961.17969.54297.11328.58203.03906.58984-.03906.59375-.11328.58203-.17969.5547-.24219.5039-.30078.42578-.17187.17969-.1836.15625-.19922.12109-.20703.09375-.21875.05469-.23047.01953-.22656-.01953-.21875-.05469-.21094-.09375-.1953-.1211-.1836-.15624-.17188-.1797-.30078-.42577-.24219-.5039-.17968-.5547-.11329-.58203-.03906-.59375h.83203l.03125.5625.08204.50781.125.44141.16406.375.1875.30078.21094.22266.22265.13672.22656.04687.22657-.04687.22265-.13672.21094-.22266.1914-.30078.16407-.375.125-.4414.08203-.50782.02734-.5625-.02734-.5625-.08203-.5-.125-.4336-.16406-.36718-.19141-.29297-.21094-.21484-.22265-.1289-.22657-.04688-.22656.04687-.22265.1289-.21094.21485-.1875.29297-.16406.36719-.125.4336-.08204.5-.03125.5625h-.83203l.03906-.58985.11329-.58203.17968-.54297.2422-.4961.30077-.41796.17188-.17579.1836-.14843.1953-.1211.21094-.08984.21875-.0586.22656-.01562m4.95313 0l.38672.02735.35937.08203.32422.13671.27735.1875.23046.23438.17579.28906.10546.33203.03907.375-.01954.27344-.05859.23438-.08594.20312-.11328.16797-.1289.14453-.14063.1211-.28515.19921.23046.1172.20704.14843.18359.17187.15234.19141.125.21484.08985.23047.05468.24219.01954.25781-.03516.3086-.10156.32421-.17188.32813-.23828.30469-.3086.26953-.375.21484-.21093.08203-.22656.0586-.2461.03906-.26172.01172-.2578-.01172-.2422-.03906-.22265-.0586-.20703-.08203-.35938-.21484-.28906-.26953-.22266-.30469-.15625-.32813-.09375-.32421-.03125-.3086h.83203l.02735.25.07812.23828.125.21094.16016.1836.1914.15234.21875.11719.2422.0703.2539.02735.25781-.02734.23828-.07031.21875-.1172.19531-.15233.16016-.1836.1211-.21094.07812-.23828.02734-.25-.02734-.2539-.07813-.23438-.12109-.21484-.16015-.1836-.19532-.15234-.21875-.11328-.23828-.07422-.25781-.02344-.2539.02344-.2422.07422-.21875.11328-.1914.15234-.16016.1836-.125.21484-.07812.23438-.02735.2539h-.83203l.01953-.2539.0547-.2422.09374-.22265.1211-.20703.15625-.1914.17968-.17188.20703-.15234.23438-.13282-.28906-.19921-.13672-.1211-.1289-.14453-.11329-.16797-.08984-.20312-.0547-.23438-.02343-.27344h.78906l.02344.21485.0664.1914.10157.16797.13672.13672.16797.11328.1875.08203.20703.05079.21875.01562.22265-.01563.20704-.05078.1875-.08203.16406-.11328.13672-.13672.10547-.16797.0664-.1914.02344-.21485-.02344-.21484-.0664-.1914-.10547-.16407-.13672-.14062-.16406-.11329-.1875-.07812-.20704-.05078-.22265-.01953-.21875.01953-.20703.05078-.1875.07813-.16797.11328-.13672.14062-.10156.16406-.0664.19141-.02345.21484h-.78906l.03906-.375.10938-.33203.17187-.28906.23047-.23438.28125-.1875.32031-.13671.35938-.08204.38672-.02734"/><path fill="#ffffe0" fill-rule="evenodd" d="M333.58203 343.60547h22.17969v-10.1914h-22.17969v10.1914"/><path fill-rule="evenodd" d="M337.08203 335.2461h.50781v6.29687h-.78515v-4.49219h-1.39063v-.55469l.5625-.0664.25-.05078.23047-.08985.20313-.14453.17187-.20703.14453-.29688.10547-.39453m4.8125 0l.23047.01954.21875.05468.20703.08985.19531.12109.1875.14844.16797.17578.30469.42187.24219.4922.17969.54687.11328.57812.03515.59375-.03515.58985-.11329.58593-.17968.55469-.24219.5-.30469.42969-.16797.17969-.1875.15234-.1953.125-.20704.08984-.21875.0586-.23047.01953-.23047-.01953-.21875-.0586-.20703-.08984-.19531-.125-.1836-.15235-.17187-.17968-.30078-.42969-.2461-.5-.17968-.55469-.10938-.58594-.03906-.58984h.83203l.03125.5625.08203.5039.125.44532.16016.3711.1914.30077.21094.22266.22266.13672.22656.04688.22656-.04688.22266-.13672.21094-.22265.1914-.30079.16016-.37109.1289-.44531.08204-.5039.02734-.5625-.02734-.5625-.08203-.5-.12891-.4375-.16016-.36329-.1914-.29297-.21094-.21484-.22266-.13281-.22656-.04297-.22656.04296-.22266.13282-.21094.21484-.1914.29297-.16016.36328-.125.4375-.08203.5-.03125.5625h-.83203l.03906-.59375.10938-.57812.17969-.54688.24609-.49219.30078-.42187.17188-.17578.18359-.14844.19531-.1211.20703-.08984.21875-.05469.23047-.01953m5.09375 0h.50781v6.29688h-.78906v-4.49219h-1.38672v-.55469l.5586-.0664.2539-.05078.23047-.08985.20313-.14453.17187-.20703.14063-.29688.10937-.39453m2.82031 2.17579h.78907l.01953-.31641.0586-.28516.09765-.2539.14062-.21485.1836-.17578.22265-.1289.26563-.07813.3086-.02734.23437.01953.22656.0625.20312.10156.1797.14063.14843.17187.11328.20703.07031.23438.02735.26562-.02344.26953-.0664.22266-.10938.1914-.15625.17188-.19922.16406-.2461.16406-.63671.39063-.53516.3125-.4375.3164-.34766.32423-.26562.33593-.1875.35156-.125.3711-.07031.39062-.01954.42188h4.21094v-.74219h-3.33203l.08203-.28515.11328-.23438.14844-.20313.1875-.17968.23047-.17188.28125-.17578.71484-.41797.41407-.20312.34765-.23047.28125-.2539.21875-.26563.16406-.27735.10938-.28515.0664-.28516.01954-.28125-.04297-.38281-.1211-.34766-.1875-.3086-.25-.26171-.30468-.21484-.34375-.15625-.3789-.09766-.40626-.03516-.4375.03125-.39844.10157-.35546.16406-.3047.23437-.24609.3047-.1875.375-.11328.4453-.04297.51954"/><path fill="#ffffe0" fill-rule="evenodd" d="M204.15625 395.54297h22.17969v-10.1914h-22.17969v10.1914"/><path fill-rule="evenodd" d="M207.65234 387.1836h.51172v6.29687h-.78906v-4.49219h-1.38672v-.55469l.5586-.0664.2539-.05078.23047-.08985.20313-.14062.17187-.21094.14063-.29688.10546-.39453m4.81641 0l.23047.01954.21875.05468.20703.08985.19531.12109.1836.14844.17187.17578.30078.42187.2461.4922.17968.54687.10938.57812.03906.59375-.03906.58985-.10938.58593-.17968.55469-.2461.5-.30078.42969-.17187.17969-.1836.15234-.19531.125-.20703.08984-.21875.0586-.23047.01953-.23047-.01953-.21875-.0586-.20703-.08984-.19531-.125-.1875-.15235-.16797-.17968-.30469-.42969-.24219-.5-.17968-.55469-.11328-.58594-.03516-.58984h.83203l.02734.5625.08203.5039.125.44532.16407.375.1914.29688.21094.22265.22266.13672.22656.04688.22656-.04688.22266-.13672.21094-.22265.1914-.29688.16016-.375.125-.44531.08203-.5039.03125-.5625-.03125-.5625-.08203-.5-.125-.4375-.16016-.36329-.1914-.29297-.21094-.21484-.22266-.13281-.22656-.04297-.22656.04296-.22266.13282-.21094.21484-.1914.29297-.16406.36328-.125.4375-.08204.5-.02734.5625h-.83203l.03516-.59375.11328-.57812.17968-.54688.2422-.49219.30468-.42187.16797-.17578.1875-.14844.19531-.1211.20703-.08984.21875-.05469.23047-.01953m5.08984 0h.51172v6.29688h-.78906v-4.49219h-1.38672v-.55469l.5586-.0664.2539-.05078.22656-.08985.20313-.14062.17578-.21094.14063-.29688.10546-.39453m2.82422 2.17579h.78516l.01953-.31641.0625-.28516.09766-.2539.14062-.21485.17969-.17187.22266-.1289.26562-.08204.3086-.02734.23827.01953.22266.0625.20703.10156.17578.14063.15235.17187.10937.20703.07422.23438.02344.26562-.01953.26953-.0664.22266-.10938.1914-.15625.17188-.19922.16406-.25.16406-.63281.39063-.53907.3125-.4375.3164-.34375.32423-.26562.33593-.1914.35156-.125.3711-.06642.39062-.02343.42188h4.21484v-.74219H221.125l.08203-.28515.11328-.23438.14844-.20313.1875-.17968.23047-.17188.27734-.17578.71875-.41406.41406-.20703.34766-.23047.27734-.25.22266-.26953.16406-.27735.10938-.28515.0625-.28516.02344-.28125-.04297-.38281-.1211-.34766-.1875-.3086-.25-.26171-.30468-.21094-.34375-.16015-.38282-.09766-.40625-.03516-.43359.03516-.39844.09766-.35547.16406-.30468.23437-.25.3047-.1836.375-.11719.4453-.03906.51954"/></g></defs><use xlink:href="#Y"/></svg>