<svg xmlns="http://www.w3.org/2000/svg" role="img" xmlns:xlink="http://www.w3.org/1999/xlink" viewBox="142.45 309.95 326.84 171.84"><defs><clipPath id="a"><path d="M144 442h1v38.32813h-1zm0 0"/></clipPath><clipPath id="b"><path d="M144 311.67188h1V437h-1zm0 0"/></clipPath><clipPath id="c"><path d="M144 311.67188h324v168.65625H144zm0 0"/></clipPath><clipPath id="d"><path d="M374 453h27v27.32813h-27zm0 0"/></clipPath><clipPath id="e"><path d="M467 311.67188h1v168.65625h-1zm0 0"/></clipPath><clipPath id="f"><path d="M144 479h4v1.32813h-4zm0 0"/></clipPath><clipPath id="g"><path d="M147 480h2v.32813h-2zm0 0"/></clipPath><clipPath id="h"><path d="M146 480h1v.32813h-1zm0 0"/></clipPath><clipPath id="i"><path d="M153 479h9v1.32813h-9zm0 0"/></clipPath><clipPath id="j"><path d="M160 480h2v.32813h-2zm0 0"/></clipPath><clipPath id="k"><path d="M159 480h2v.32813h-2zm0 0"/></clipPath><clipPath id="l"><path d="M166 479h9v1.32813h-9zm0 0"/></clipPath><clipPath id="m"><path d="M173 480h3v.32813h-3zm0 0"/></clipPath><clipPath id="n"><path d="M172 480h2v.32813h-2zm0 0"/></clipPath><clipPath id="o"><path d="M180 478h8v2.32813h-8zm0 0"/></clipPath><clipPath id="p"><path d="M186 480h1v.32813h-1zm0 0"/></clipPath><clipPath id="q"><path d="M193 479h8v1.32813h-8zm0 0"/></clipPath><clipPath id="r"><path d="M207 478h8v2.32813h-8zm0 0"/></clipPath><clipPath id="s"><path d="M220 478h8v2.32813h-8zm0 0"/></clipPath><clipPath id="t"><path d="M233 478h8v2.32813h-8zm0 0"/></clipPath><clipPath id="u"><path d="M247 478h7v2.32813h-7zm0 0"/></clipPath><clipPath id="v"><path d="M261 477h6v3.32813h-6zm0 0"/></clipPath><clipPath id="w"><path d="M275 476h4v4.32813h-4zm0 0"/></clipPath><clipPath id="x"><path d="M288 477h5v3.32813h-5zm0 0"/></clipPath><clipPath id="y"><path d="M302 476h3v4.32813h-3zm0 0"/></clipPath><clipPath id="z"><path d="M316 476h2v4.32813h-2zm0 0"/></clipPath><clipPath id="A"><path d="M326 479h9v1.32813h-9zm0 0"/></clipPath><clipPath id="B"><path d="M339 479h9v1.32813h-9zm0 0"/></clipPath><clipPath id="C"><path d="M353 478h8v2.32813h-8zm0 0"/></clipPath><clipPath id="D"><path d="M353 480h2v.32813h-2zm0 0"/></clipPath><clipPath id="E"><path d="M366 479h8v1.32813h-8zm0 0"/></clipPath><clipPath id="F"><path d="M365 479h3v1.32813h-3zm0 0"/></clipPath><clipPath id="G"><path d="M380 478h8v2.32813h-8zm0 0"/></clipPath><clipPath id="H"><path d="M378 479h3v1.32813h-3zm0 0"/></clipPath><clipPath id="I"><path d="M393 478h8v2.32813h-8zm0 0"/></clipPath><clipPath id="J"><path d="M391 479h3v1.32813h-3zm0 0"/></clipPath><clipPath id="K"><path d="M393 480h2v.32813h-2zm0 0"/></clipPath><clipPath id="L"><path d="M406 479h8v1.32813h-8zm0 0"/></clipPath><clipPath id="M"><path d="M405 479h3v1.32813h-3zm0 0"/></clipPath><clipPath id="N"><path d="M420 477h7v3.32813h-7zm0 0"/></clipPath><clipPath id="O"><path d="M434 477h5v3.32813h-5zm0 0"/></clipPath><clipPath id="P"><path d="M449 476h3v4.32813h-3zm0 0"/></clipPath><clipPath id="Q"><path d="M463 476h2v4.32813h-2zm0 0"/></clipPath><clipPath id="R"><path d="M144 465h4v4h-4zm0 0"/></clipPath><clipPath id="S"><path d="M144 452h4v3h-4zm0 0"/></clipPath><clipPath id="T"><path d="M144 438h4v4h-4zm0 0"/></clipPath><clipPath id="U"><path d="M144 425h4v4h-4zm0 0"/></clipPath><clipPath id="V"><path d="M144 413h4v2h-4zm0 0"/></clipPath><clipPath id="W"><path d="M144 398h4v5h-4zm0 0"/></clipPath><clipPath id="X"><path d="M144 385h4v4h-4zm0 0"/></clipPath><clipPath id="Y"><path d="M144 371h4v5h-4zm0 0"/></clipPath><clipPath id="Z"><path d="M144 356h2v9h-2zm0 0"/></clipPath><clipPath id="aa"><path d="M144 343h3v8h-3zm0 0"/></clipPath><clipPath id="ab"><path d="M144 331h4v6h-4zm0 0"/></clipPath><clipPath id="ac"><path d="M144 318h4v5h-4zm0 0"/></clipPath><clipPath id="ad"><path d="M465 317h3v2h-3zm0 0"/></clipPath><g id="ae" clip-path="url(#clip1)"><path fill="#fff" fill-opacity="0" fill-rule="evenodd" d="M0 0h1000v1000H0zm0 0"/><path fill="#d3d3d3" fill-opacity="0" fill-rule="evenodd" d="M162.15234 355.86719l-.23437.29297.0586.23437.11718.17188.17578.23437.29297.34766.11328.0586.11719-.17188.0586-.23438.17577-.17578.46485-.17578h.69922l.23437.29297.28906.8164.0586.17579.17578.23046.35156.23438.69922.69922.17188.17578.23437.34765.23438.41016.28906.58203.41015.46485.23047.23437.23438.17578.11719.23047.17578.29297.17187 1.16406v.23438l.0586.28906.05859.11719.11719.11719.34765.41015.11719.17188.17578.17578.17578.23437.11719.17188.17188.35156.05859.23438.23437.40625.23438-.0586-.17578.17578-.0586.92969h-.58203l-.23437-.11328-.34766.11328-.11719.11719-.05859.29297-.0586.17578-.11718.17187-.46484.29297-.0586.23438-.0586.11328v.64453l.0586.17187v.41016l.0586.0586v.40624l.05859.40625.11719.17579.05859.05859.23047.64062-.0586.29297v.69922l-.05859.58203v.23438l-.0586.23047-.05468.35156v1.92187l.05469.1172h.42578l-.36719.11718-.02344.35156.89063 1.16797 1.74219.53906 1.33984.35938v.53906l.08984.8086.53516.71484 1.51953.26953.89063-.08594.08984 1.16406.53516.1797 1.16015-.1797 2.05469-.98437 1.16016-.36328 1.8789-.17578 1.69531-.1797-.17968.71876-1.51563.08594-1.25.08984-.80469.26953-1.07421.8086.26953.71875.53515.89843-.17968.625-.26563.8086.26563 1.07812.625.89844.80468.17969 1.25-.1797-.26562.72267.09766.5039.05468.29297v.17188l.0586.29296v.40625l.17578.1172.35156.11718h.40625l.29297-.17578.11328-.11719.0586-.11719.11718-.23047.0586-.17578.35156-.46484.23047-.17578.17578-.0586.17578.0586.0586.17578.11718.98828.05469.46875.0586.17188.11718.23437.17578.0586.8164.05859h.28907l.11719.23437.05859.40625.0586.35156v1.10547l.11718.29297.11719.34766.28906.69922.17578.35156.58203.7539.35157.17579.17187.0586.46875.23437.64063.46484.34765.23438.29297.17578.29297.05468.23047.0625.8164.34766.29297.17578.11328.17188.35157.35156.11719.17578.52343.64063v.28906l.0586.35156v.34766l.05859.35156.0586.28906.11718.0586.17188.05859h.17578l.58203.23437.17578.1172.17578.28905.17578.23438.11328.23437.29297.23047.11719.11719v.41016l.0586.05468.28906.23438.23437.11719.0586.11718.11718.17188.0586.11719.23047.23437.05859.17578.23437.0586.1172.05859-.1172.11328-.05859.11719v.11719l-.11719.29296-.11719.28907v.58203l.17579.11719.11718.05859.0586.11719.11719.11719.11328.05859.17578.34765.0586.35157.05858.40625v.17578l-.05859.17578-.11719.69922v.17187l.1172.17579.29296.29296h.40625l.17578.1172.11719.17187.11719.29296v.23438h-.52735l-.23047-.23438h-.23437l-.17578.0586-.0586.69922.0586.34765.11719.17579.17578.41015.11718.23047.28907.46875.17578.05469h.52344l.23437.0586.75781.64062.0586.29296v.23438l.05859.0586.23047.34765v.35156l-.11719.17188v.29297l.29297.28906.29297.17578.17187.0586.29297.17577.29297.1172.58203.40624.28906.23438.29297.17578.21875.16015.01563.01172.23047.17579.64062.52343.17578.23438.1172.17578.17577.17578.11328.17188v.64062l.1172.17578.46874.11719.58203.11719.23438.05859.23047.11328.29297.11719.11328.0586.58593.35156.28907.17187.17578.0625.17578.05469.17578.0586.69922.35155.28906.17579.23438.05468.28906.17578.23437.1172.64063.40624.29297.11719.17187.0586.23438.05859.41015.05859.23047.0586.23438.11718.0586.17188-.41017.17578.46875.0586.0586.29296.11328.23438.17578.05468.23438.0586.17578.05859.40625.11719.64062.23437.11719.17188.0586.23437v.17578l-.0586.1172-.0586.40624.23438.23438.11719.05859.34766.11719.64062.23047.17578.11718.28906.1172.17578.17577.23438.46485.58203 1.10546.17578.17579.34766.17578.17578.11719.35156.11718 1.04688.52344.23437.0586.46485.11327.29297.0586.46484.17578.75781.58203.23438.23438.34765.46484.17578.17578.28907.23438.8164.69921.29297.17579.28906.28906.29297.17578.29297.28906.69531.64063.17578.17578.29297.23437.28907.23438.46875.28906.64062.58203.34766.23438.23437.29297.34766.34765.35156.46485.9336.99218.34765.40625.11719.17579.23437.05859.11328.11719.64454.17578.23047.11328.23437.0586.29297.17577.23047.1172.9336.69921.40624.40625.23438.17578.40625.17578.23437.11719.8164.34766.34766.23437.23438.11719.29297.28906.23047.11719.7578.35156.35157.17188.23047.05859.29297.11719.23437.0586.8711.17577h.8164l.46875.23047.17188.0586.875.69921.46484.1172.29297.05858.17578.0586.23047.0586.46875.05859.34766.05859.35156.0586.40625.05859h.29297l.17187.0586v.23046l.17578.17578h.29297l.34766.0586.35156.05859.69922.11719h.64063l.46484-.23438.29297-.17578.17187-.11719.41016-.17187.28906-.17578.9336-.46485.46875-.29297.52343-.29296.46485-.17188.46484-.17578 1.05078-.46485.28906-.11718.41016-.11719.28906-.11719.52735-.17578 1.51562-.69922.58203-.34765.28907-.0586.29297-.0586.34765-.11718.875-.23047.35156-.11719h.11329l.23437-.05859.875-.23437.23438-.0586h.8125l.35156-.0586.8164-.11718.17188-.0586.35156-.05468.29297-.0586.23047-.05859.8164-.17578.17579-.0586h.34765l.23438-.05859.46484-.11718.75781-.17188.23438-.0586h.34765l.41016-.11718.28906-.0586 1.28516-.05859h.28906l.41016-.0586.23047-.05858h.17578l.875-.1172h.40625l.41015-.11718h.34766l.35156-.11328.8711-.0586h1.75l1.04687.28907.41016.11719.28906.11718.35156.11719.28907.11719 1.05078.17187.28906.0586h.29297l.29297.05859.17187.0586.41016.05859.17187.0586.1172.05858h.11718l.11719.0586.35156.0586h.11328l.41016.0664 1.92187.39453 1.92578.39453 1.51953.44922 1.69532.71875 2.14453.80469 1.60547-.71875 1.42968-.80469 1.16016-1.07813 1.25-.44921 3.03516-.71875 1.875-.35938 2.14453-1.34765 2.23437-1.25391 2.5-1.25781 1.69531-.44922 1.78516-.17969 1.16016-.26953.625.53906 1.33984-.26953.71485-.98828.98437-1.34375.44531-.17969.80469-.35937 1.875-.53907 1.78516-.44921 1.25-.26954 1.16015-.08984 1.69922-.08984 1.96094-.26954 1.25-.08984h.53906l.625-.08984h.89063l2.14453-.17969 2.41015-.17969 2.58985-.08984 1.69531.17969 1.60938.08984 1.42968.35938 1.16016.71875 1.875.98828 1.16015 1.52734.26563.71484.6289.08985.35548.89844.53515.53906.53516 1.52734 1.07422.35938h.53515l-.80469.53515.08985 1.70703.71484 2.69532.89063.80468.89453.98829.71484 1.2578 1.78516.53907 1.51953-.17969.35547 1.34375 1.60937-.80469.98047-.53906.26953.26953.31641-.21484.21875-.14453.80078.44922.44922-.35938h.35547l.53515-.26953.53907-.71875.53515-.26953.625-.98828 1.16016.44922.83984.3711 1.39454.61718 1.6953-.17969h1.60548l1.78515.08985.17969-1.70704.53516-1.34375.80468.26954.4922.84765.40233.40625-.08984.53906v.35938l.71485.44922.71093-.26953h1.42969l.35938.98828.4453 1.25781.71485 1.34375 1.25.6289 1.69531.62891.71485-.17969.17969-.53906.98046-.08984.44922.35937.08594 1.25782-.26563.6289-.53515.17969v.53906l.71484.98438.26563.53906.98437.98828.80078 1.07813-.26562.35937-.08985.89844-.625 2.33203-.35546 2.0664-.08985 1.79298-.17969.71875-.08984.53906v1.4375l-.98047 1.88281-.35937 1.70703-.53516.89844-.80469 1.16797-.26562.53906 2.05469 1.2539.08593.35938-.35546.53906-.08985-.17968v.80859l.08985 1.4375-.44532.71484-1.07422.09375-.26562.71485.53515.89844.8047.71875 1.16015.80859 1.33984.26953.44531.35938-.35546.44921-1.78907-.08984-1.25-.44922-.71484-.71875-.625-.08984-.17578 3.58984-.1875 1.3086h89.35937V311.70313h-55.26953v49.08203l.76172.125 3.28906.54296 2.02344 2.83594v2.7539l2.35156.33204 2.34766.33203h4.05078l-1.3789 4.16016-2.02344.70703-2.02344.70312-.54297.34375-2.59375 1.6172-.1875.11718-2.02344-2.07813-.73046-2.74218-2.67188-2.07813-1.375-3.5-.0664-.08203-1.95704-2.67188 2.75-1.41796v-49.08204H294.42187v91.41407l.1172.03125.1328.01172.07422.07421.10547.04688.08985.0586.08593.05859.08985.0586.29687.29687.0586.08984.03125.11719.02734.11719.01563.13671-.03125.1172-.0586.08983-.0586.08594-.04296.10547-.04688.10156-.02734.1211v.14453l.17578.26953.14844.14844.07422.08594.07422.07421.04296.10547.0625.08985.0586.08593.04297.10547.0586.08985.04687.10156.04296.10547.0586.08594.11719.17968.07421.07422.0625.08594.0586.08984.04297.10547.0586.08985.05858.08593.0625.08985.0586.08984.04297.10156.11719.17969.07421.07422.0586.08594.07422.07421.08984.0586.10547.04687h.14844l.1328-.01562.13282.01562.10156-.04687.07422-.07422.04688-.10156-.01563-.13281v-.14844l-.04687-.10547-.02735-.11719-.04687-.10156-.02735-.1211-.04296-.10156-.0625-.08984-.04297-.10156-.04297-.10547-.03125-.11719-.01563-.13281-.01171-.13672.08593-.0586.0586-.08593.12109-.03125.04297.10547.01562.1328v.1172l.0586.10156.0586.08984.08983.0586.14844.14843.0586.08985.04296.10547-.01171.10156.08593.0586.10547.04687.08594.0586.08984.05858.07422.07422-.11719.02735-.10546.04687-.08594.0586-.07422.07421-.0586.08985-.0625.08594-.02734.12109-.04687.10156-.04297.10547-.03125.11719-.01172.13281-.01563.13281v.14844l.02735.11719.04687.10547.04297.10156.0586.08984.07421.07422.08985.0586.07422.07421.08984.0586.0586.08984.04296.10547.04688.10156.11719.03125.1328.01563h.14845l.11718-.03125.10547.04297.04297.10547.04688.10156.02734.1211L299.5 410l.02734.11719.03125.1211.02735.11718.10547.04297.10156.04687.13281-.01562.14844.14844.0625.08593.07422.07422.07031.07422.08984.0625.10547.04297.10156.04297.1172.03125.13671.01562.11719-.03125.07422-.07422.02734-.11718-.01172-.13282-.03125-.12109-.02734-.11719.04297-.10547h.11719l.08984.0625.11719.02735h.14843l.13282.01562h.14843l.13282.01563.1328-.01563h.14845l.1328-.01562.13282-.01172.13672.01172.11719-.02735.13281-.01562.1914-.0586-.05859.17579-.01562.1328-.02735.1211-.01562.13281-.0586.08594-.1328.01563-.10548.04687-.10546.04297-.1172.03125-.11718.02735-.26563.03125h-.14843l-.13281.01562-.07422.07422.05859.08594.14844.14843.11719.1797.07421.0703.08985.0625.08984.0586.08594.0586.08984.05858.10156.04297.10547.0625.10547.04297.08594.0586.10547.04687.10156.04297.17969.11719.0586.08984-.04298.10156-.04687.10547.01562.13281.22266.22266.0586.08985.04296.10156.03125.1211.04297.10155.01563.13282.03125.11718.01171.13672.03125.11719.14844.14844.10156.04297.10547.04296.1172.03125.1328.01563.13672.01563h.11719l.11719-.03125.08984-.0586.04297-.10547.04688-.10156.04296-.10547.03125-.11719.01172-.1328v-.14845l-.01172-.1328-.01562-.13282-.03125-.11719-.04297-.10547-.04688-.10547-.04296-.10156-.04297-.10547-.01563-.13281.01563-.13281.02734-.11719.03125-.11719.02735-.1211.04687-.10155.08984-.0586.08594-.0625.07422-.07422.08984-.05859.22266-.22266.0586-.08593.07421-.07422.11719-.17969.0586-.08594v-.14844l-.07423-.07421-.10156-.04688-.10547-.04297-.10156-.04297-.0586-.08984-.04687-.10547-.02734-.11719.08984-.05859.11719-.03125.10156-.04297.17969-.11719.14844-.14843.01172-.13282-.01172-.10546-.08985-.0586-.1328.01563h-.14845l-.1328.01562-.13282-.01562-.1211-.03125-.08593-.0586-.07422-.07422-.0586-.08984-.0625-.08594-.11718-.17969-.0586-.08593.03125-.1211.08594-.05859.1211-.03125.05859-.08594v-.1211l-.03125-.11718-.0586-.08984-.05859-.08594-.04687-.10547-.02735-.11719-.01562-.1328.0586-.08985.07421-.07422.08984-.0586.1172-.17968.07421-.07422.0586-.08594.14843-.14844.1211-.03125.1328-.01562.13282.01562.07422.07422.04297.10547.01562.13281-.03125.1172-.11719.03124-.1328.01172-.14844.14844-.04297.10547-.04688.10156-.02734.1211-.03125.11718v.14844l.03125.11719.04297.10546.05859.08985.07422.07031.07422.07422.11719.03125.12109.02734.11719-.02734.1328-.01563h.1172l.08984.0586.07422.07422.04687.10546.0586.08594.10156.04688.13281.01562.10547.04297.08594.0586-.01172.10546-.07422.07422-.17969.11719-.05859.08984-.08984.0586-.07032.07422-.07421.07421-.0625.08985-.02735.11719-.01562.1328.01562.13282-.01562.13281v.14844l.01562.13281.02735.1172.03125.12108.07421.07422.08985.0586.08594.0586.08984.05858.11719.03125v.08594l-.10157.04688-.08984.0586-.26563.03124-.11718.02735h-.14844l-.10547.04296-.10156.04688-.0586.08984-.0625.23438-.01171.13281-.03125.1211-.01563.1328v.29298l-.01172.1328.01172.13673.01563.1328.1328.01563.13282.01172.1211.03125.08593.0586.07422.07421.04688.10547.04296.10157.01563.1328v.44532l-.01563.13281v.44532l.03125.26562.02735.11719.01562.13281.03125.11719.08594.21094.03125.26562v.14844l-.03125.11719-.02734.11718-.03125.1211-.02735.11719-.03125.11718-.03125.1211-.01171.1328-.01563.13282.08984.0586.1172-.03125.10155.01562.04688.10547-.03125.26562v.44141l-.04297.10547-.04688.10547-.04296.10156-.04297.10547-.0586.08594-.03125.12109-.04296.11719-.03125.11719-.01563.1328.01563.13282.05859.08984.10547.04688.08594.0586.05859.08593-.01172.13672-.03125.11719-.04297.10156v.44531l-.01562.13281v.14844l-.03125.11719-.04297.10547-.02735.11719-.04687.10546-.04297.10157-.03125.12109-.02734.11719-.03125.13281-.03125.11719-.02735.11719-.04297.10546-.03125.1172-.03125.12108-.01171.13282-.01563.13281v.29688l.02734.11718v.14844l.04688.39844.02734.11719.0586.08984.12109.03125h.14844l.13281-.01563.0586.08985v.11719l-.0586.08984-.08984.0586-.10157.04296-.10546.04688-.08985.05859-.08594.0586-.13671.01562-.1172-.03125-.1328-.01563-.10157.04688-.0625.08594-.01172.13671-.01562.13282-.03125.11719-.02735.11718-.01562.13281-.03125.1211v.29687l.01563.13282.03125.11718v.14844l.01171.13281v.14844l-.02734.11719-.04688.10156-.02734.1211-.03125.11718-.0586.08985-.07421.07421-.10156.04297-.10547.04688-.11719.02734-.1211.03125-.10156-.04687.0586-.08594.10547-.04688.02734-.11718.03125-.11719.02734-.1211.03125-.11718v-.14844l.01563-.13281-.03125-.11719-.04297-.10547-.10547.01563-.07422.07422-.10156.04296-.08984.0625-.07422.07422-.04297.10157-.01563.1328-.03125.1172L304.25 426l-.03125.11719-.02734.11719-.03125.12109-.02735.11719-.03125.11718-.04297.10547-.08984.0586h-.08984l-.1172-.03125-.03124-.08594.01562-.13672-.03125-.11719v-.14844l-.01171-.1328v-.14844l-.0625-.23438-.02735-.1211-.04297-.10156-.04687-.10546-.0586-.08594-.05859-.08985-.04297-.10546-.0625-.08594-.14844-.14844-.0703-.07422-.10548-.04687-.10547-.04297-.10156-.04297-.29687-.29688-.08985-.07421-.08594-.0586-.10546-.04297-.08985-.0625-.08594-.0586-.10546-.04296-.08985-.0586-.08594-.0625-.07421-.0703-.10547-.04688-.08594-.0586-.10547-.04296-.08984-.0625-.10156-.04297-.10547-.04297-.08594-.0586-.10547-.04687-.10547-.04297-.10156-.04687-.08985-.0586-.10156-.04297-.10547-.04296-.08984-.0625-.11719-.02735-.13281-.01562-.13281.01562H299.75l-.13281.01563-.11719-.03125-.08984-.0586-.07422-.07422-.08985-.05859-.10156-.04688h-.14844l-.12109-.02734-.10156-.04297-.07422-.07422-.11719-.17968-.08984-.0586-.10156-.04297-.08985-.0625-.10547-.04296-.08984-.0586-.08594-.0586-.10547-.04687-.0586-.08594-.05858-.08984-.04297-.10547-.04688-.10156-.07422-.07422-.08594-.0586-.07421-.07421-.08985-.0586-.22265-.22265-.04297-.10547-.03125-.26563.10547-.04296h.14453l.10547.04296.07421.07422.08985.0586.08594.0586.10546.04687.08985.05859.14844.14844.0703.07422.14845.14843.0625.08594.07421.07422.08594.0586.07422.07421.08985.0625.08984.0586.08594.05859.26953.17578.10156.04688.10547.04296.10156.04297.04688-.07421.05859-.08594.07422-.07422.07031-.07422.10547.04297.07422.07422.0586.08984.04296.10156.04688.10547.04296.10547.1211.02735.11719-.02735.07421-.08984.04297-.10547.0586-.08985.07422-.07421.10546-.04297.1172-.02735.1328.01172.08985.0586.14844.14843.05859.08985.04297.10547.04687.10156.04297.10547.04297.10156.10547.04688.10547.04296.13281.01563.08594-.0586.0586-.08984.07421-.07422.10547-.04297.11719.02735.10547.04687.10156.04297.10547.04297.10156.04688.17969.11718v.11719l-.01563.13281.01563.13281.01562.13672.0586.08594.10156.04688.1211.02734.11718.03125h.14844l.11719-.03125.05859-.08984.17969-.1172.05859-.08983.07422-.07422.0586-.08594.11718-.17969.17969-.11719.11719.03125.08984.0586.04297.07422-.01563.1328v.1172l.08985.05859h.14843l.13282-.01563.1328-.01171.26563-.03125.10547-.04297.11719-.03125.1211-.02735.07421-.07421.07031-.07422.0625-.08985-.01562-.10547-.04688-.10156-.10156-.04297-.10547-.01562-.11718.02734-.26563.03125h-.14844l-.07421-.07422-.08985-.0586-.11719-.03124-.11718-.02735-.13282-.01562h-.14843l-.13282.01563h-.29687l-.10547-.04688-.14844-.14844-.04297-.10156-.05859-.08984.22266-.22266.08593-.0586.10547-.04296.11719-.03125.13281-.01563.13281.01563.13672.01562.10157.04297.1328-.01172.08985-.0625.10156-.04297.0625-.08984-.04687-.10156-.08984-.0586-.1172-.03125-.10155-.04296-.0586-.08985-.0625-.08984v-.11719l.01563-.13281.10547-.04688.07421-.07031v-.1211l-.08984-.05859-.03125-.11719.08985-.05859.07421-.07422.04297-.10547.0586-.08984.04687-.10156.01563-.13281v-.14844l-.04688-.10547-.04297-.10156-.08984-.0586-.13281-.01562-.10157-.04297-.13671-.01563-.1172-.03125h-.4453l-.13282-.01562-.13281-.01172-.13281-.01563-.11719-.03125h-.14844l-.13281-.01562-.13281-.01172-.26563-.03125-.1211-.04297-.08593-.0586-.07422-.07421v-.14844l.01172-.13281.10547-.04688.10156-.04296.13281-.01563h.15235l.13281-.01562h.29297l.1211.03125.10156.04296.08984.0586.23438.0625.12109-.04688.08984-.05859.10156-.04297.13282-.01562.10547.04296.10156.04688.13281.01172.1211-.02735h.14453l.12109-.03125.11719-.02734.10547-.04687.07421-.07422.08594-.0586.14844-.14843.0586-.08594.04687-.10547.02734-.11719.01563-.10547-.10156-.04296-.08985-.0586-.11719-.03125-.10546-.04297-.08985-.0625-.07422-.08594-.07422-.07421-.10156-.04297-.10547-.04688-.10156-.04297-.0586-.08984-.04687-.10156-.08594-.21094-.0625-.08594-.05859-.08984-.07422-.07422-.08594-.0586h-.26953l-.11719.03126-.08984.05859-.10156.04297-.13281.01562-.10547-.01562-.02735-.11719-.0625-.08984-.11718-.03125-.10157-.04297-.14843-.14844-.03125-.11719-.01563-.10546.07422-.07422.17969-.1172.11719-.02733.11718-.03125.13672.01562.10156.04297.10547.04297.10156.04687.10547.04297.1172.03125.1328.01563.1172.02734.1328.01563.10547-.01563.08985-.0586-.07422-.07421-.10547-.04297-.07422-.07422-.07422-.08984-.14844-.14844-.08593-.0586-.08985-.05859-.07422-.07422-.08984-.0586-.10156-.04687-.1211-.02734-.10156-.04688-.10547-.04296-.11719-.03125-.10156-.04297-.1211-.03125h-.14843l-.11719.03125-.10546.04297-.08594.0625-.17969.11718-.08594.0586-.08984.0586-.10547.04687-.08594.05859-.10547.04297-.10156.04297-.10547.04687-.07422.07422-.05859.08985-.0586.08593-.04687.10547-.0586.08594-.07421.07422-.13281-.01172-.1172-.03125h-.11718l-.07422.07422-.08984.0586-.07422.07421-.08984.0586-.08594.05859-.10547.04687-.10156.04297-.13672.01563-.10156-.04297-.14844-.14844-.10547-.04688h-.08594l-.10547.04688-.10156.04297-.1211.03125-.11718-.03125-.07422-.07422v-.11719l.03125-.1211.07422-.0703.0586-.08985.07421-.07422.11719-.03125.10547-.04296h.29297l.13281-.01563.13672-.01563.10156-.04296.08985-.0586.10156-.04687.08984-.0586.13281-.01171.08985.05859.13281.01172.08984-.0586.08594-.05859.10547-.04297.08984-.0586.08594-.0625.08985-.05859.14843-.14843.0586-.08594.05859-.08985.10547-.04296.13281-.01563.11719.02735.1211.03125.05859-.0586.05859-.08984.03125-.26563.02734-.11719.10547.01172.13281.01563.10157-.04297.08984-.0586.0586-.08984.07421-.07422.0586-.08984.04687-.10156.01172-.13281-.01172-.13282-.04687-.10547-.14844-.14843-.0586-.08985-.05859-.08594-.04297-.10546v-.44532l.01563-.1328v-.14845l.01172-.1328-.0586-.0586-.08984.0586-.10156-.04298-.17969-.11719-.08594-.05859-.0625-.08984-.0586-.08985-.07421-.07421-.08594-.0586-.1211.03125-.10155.01172-.10547.04688-.08594.05859-.10547.04297-.14844.14844-.08984.05859-.08594.0586-.08984.0625-.10547.04296-.13281.01563v-.1211l.10547-.04297.11718-.03125.07422-.0703.04297-.10548v-.14844l-.02734-.11718-.14844-.14844-.13281-.01563h-.14844l-.11719.03125-.10547.04297-.10156.04297-.08984.0625-.11719.02735-.07422-.07422.01172-.13281-.04297-.10157-.04297-.10547-.08984-.05859-.11719.02734-.1211.03125-.11718.03125-.10156.04297-.1211.03125-.10156.04297-.10547.04297-.08984.0586-.10156.01562v-.11719l.01562-.13281-.0586-.08985-.07421.04297-.14844.14844-.0586.08985-.07421.07421-.04688.10547-.04296.10156-.07422.07422-.0586.08985-.07422.07422-.05859.08593-.07422.07422-.08984.0625-.07422.07031-.07422.07422-.10156.01563-.13281.01562-.10547-.04296v-.1211l.14843-.14844.04297-.10156.0586-.08984.04687-.10156.04297-.10547.0586-.08985.03124-.11719.04297-.10156.03125-.1211.02735-.11718.04687-.10547.04297-.10156.04297-.10547.07422-.07031.08984-.0625.08985-.0586.10156-.04296h.29687l.26563-.03125.10547-.04297-.07422-.07422-.11719-.03125-.10547-.04297-.08984-.0586-.10156-.04687-.08985-.0586-.10156-.04296-.10547-.04297-.08984-.0625-.08594-.0586-.10547-.04296-.10156-.04297-.1211-.03125-.11718-.03125-.10157-.04297L297.5 410.25l-.10156-.04297-.08985-.0586-.04296-.10546-.01563-.13281.10156-.04297.13281-.01563.13672.01563.13282-.01563.10156-.04297.0586-.08984.01562-.10547-.08985-.0586-.07421-.07421-.10157-.04297-.08984-.0586-.14844-.14843-.04297-.10547-.01562-.13281v-.29297l-.0586-.08985-.08984-.05859-.07422-.07422-.04297-.10547-.03125-.11718-.0586-.08985-.07421-.07422-.11719-.02734-.07422-.07422-.08984-.0586-.08984-.0625-.08594-.05859-.07422-.07421-.0586-.08594-.04687-.10547-.08594-.0586-.14843-.14843-.19532-.0586-.1328.01563-.10157.04297-.07422.07422-.04688.10156-.04296.10547-.0586.08984-.0586.08594-.29687.29687-.08984.0586h-.08594l-.0625-.08594-.04297-.10547.03125-.11719.0586-.08984.02734-.11719-.01172-.13281-.08984-.0625-.10547.04688-.11719.02734-.11719.03125-.26953.17578-.10156.04688-.11719.02734-.10546.04687-.08985.0586-.10156.04297-.0586-.08594-.04687-.10547.01563-.13281.04687-.10547.07031-.07422.07422-.07031.0586-.08985v-.14843l-.04297-.10547h-.23829l-.10156.04687-.03125.11719-.02734.11719-.03125.1211-.07422.04296-.13281.01563-.07422-.04688-.04297-.10156-.04297-.10547-.04687-.10156-.04297-.10547-.1211.03125-.10156.04297-.13281.01562-.11719.03125-.10547.04297-.08984.0586-.10156.04687-.1211.02734-.13281.01563-.10156-.04297-.0586-.08985-.04687-.10546-.04297-.10157-.04297-.10546v-.1172l.0586-.08984.08593-.05859.17969-.11719.10156-.04687.10547-.04297.10547-.0586.10156-.04296.08985-.0625.10156-.04297.10547-.0586.10156-.04687.08984-.0586.10547-.04296.10156-.04297.08985-.0625.10156-.04297.13672-.01563.11719.03125.10156.04297.1211.03125.10156.04297.10546.04688.10157.04296.10547.04297.10156.04688.10547.04297.10156.04297.10547.04687.08594.0586.10546.04296.1172.03125.10546.04297.10156.04688.08985.0586.10547.04296.10156.04297.10547.04687.11719.02735.10156.04687.1211.02735h.14843l.08594-.0586.01562-.10156.0586-.08984-.02735-.1172-.07422-.07421-.11719-.17969-.07421-.07422-.08985-.07421-.17969-.1172-.08593-.05859-.10547-.04296-.10156-.04688-.26954-.17578-.05859-.08985-.07422-.07421-.0586-.08985-.04296-.10156-.03125-.11719-.01563-.13672v-.5625l-.01171-.1328-.01563-.13282-.03125-.11719-.01562-.13281-.01172-.13281-.03125-.1211-.22266-.22265-.0586-.08594-.01562-.10547.03125-.11719.13281-.01562v-91.41406H172.9922v1.45312l-.0586.23438-.35156 1.05078-.17187.52343-.1172.34766-.17577.41016-.11719.17187-.23438.29297-.23046.0586h-.35157l-.11718.05859-.23047.40625v.29297l.11719.17578.23046.23047.1172.23437.64062.75781.29297.46485.17578.23437.23047.35156.23437.34766.64063.8164.17578.46485.17187.41016.11719.69531.17578.46875.11719 1.39844.0586.46484v.875l.11718 1.04688v4.78125l-.0586.46484-.35156 1.28125-.17578.52344-.11328.41015-.35156.9297L172.93359 336l-.23437.58203-.11719.17578-.17187.34766-.17578.40625-.35157.8164-.0586.29297-.11327.29297-.11719.28906-.0586.17579-.11718.875-.0586.40625-.05859.11718-.0586.17579-.05859.17187-.23047.52734-.11718.17188v.23437l-.11719.23438-.0586.17187-.17577.58594v.28906l-.0586.17579v.29296l-.0586.11329-.05859.52734v.17187l-.05468.23438v2.6211l-.17578.8164-.1172.17578-.17577.23438-.1172.17187-.11327.23438-.58594.93359-.23047.28906-.29297.46485-.17578.23437-.28906.35156-.35156.69922-.11328.23047-.17579.41016-.17578.23046-.40625.52735-.8164.69922-.29297.17187-.28906.23438-.17579.11719-.17578.17578-.52344.40625-.52734.17578-.17187.17578-.23438.05469-.64062.17578h-.75782m12.21094 31.02344l-1.07422.44921.35938.89454 1.25-.71485.44531-.53906-.98047-.08985"/><path fill="#d3d3d3" fill-opacity="0" fill-rule="evenodd" d="M201.50781 416.59766h-.89453l.44922.6289.98047.35938.80469-.08985.4453-.98828-.17577.08985-.71485-.35547-.89453.35547m154.6211 59.0703l-.0586-.52343v-.29297l.11328-.29297.0586-.23046.46875-.46875h.11328l.11719-.11329.11718-.05859h.17579l.23437-.0586h.34766l.23437.0586.11719.0586.23047.17187.0586.17578.11718.58203v.29297l-.11719.17578-.17187.28906-.17579.17579-.52734.52343-.23047.23438-.11719.0586h-.17578l-.11718-.0586-.40625-.29297-.17579-.11719-.11718-.0586-.0586-.11327-.05468-.1172m6.64062-10.95702l-.0586-.17188v-1.10937l.0586-.17188.17578-.0586.17188-.05858h.17578l.23437-.0586.1172.0586.05858.69921-.05859.17188-.11719.17578-.11718.0586-.23438.52343-.11328.0586h-.23438l-.05859-.1172m9.61328-14.39062l-.11719-.17578v-.69922l.29297-.875.1172-.17187.17577-.35156.11328-.23047.1172-.29297.35155-.75781.1172-.23047.17187-.23438h.17578l.11719-.0586h.64062l.11719.0586.23437.23438.17188.11328.35156.29297.11719.11718.11328.17579v.11328l.11719.05859.11718.11719v.69922l-.05859.17578v.23047l-.0586.17578-.34765 1.05078-.11719.23047-.11719.23437-.11718.0586-.23047.23437-.64063.28906h-.875l-.41015-.11718-.64063-.46485"/><path fill="none" stroke="#bebebe" stroke-linecap="round" stroke-linejoin="round" stroke-miterlimit="10" stroke-width=".5" d="M467.95703 311.69531H144.02734v168.625h323.9297v-168.625"/><g clip-path="url(#a)"><path fill="#fff" fill-opacity="0" fill-rule="evenodd" d="M144 475.89063v4.4375h.0039H144v-37.3711 32.9336"/></g><g clip-path="url(#b)"><path fill="#fff" fill-opacity="0" fill-rule="evenodd" d="M144 435.94531v.58203-124.85546h.0039H144V435.9453"/></g><path fill="#50fcfc" fill-rule="evenodd" d="M144 436.52734v6.4297h.0039v-6.4297H144"/><g clip-path="url(#c)"><path fill="#fff" fill-opacity="0" fill-rule="evenodd" d="M144.0039 480.32813v-37.3711l4.4336-1.73047 4.4375.80078 4.4414-.71875.17579 3.51172.02344 4.4414.05859 4.4375-.14844 4.4375 1.17578 4.4375 3.15235 2.97267 4.4375.22656 4.4375.91797 2.23437.32421 2.20313 2.32813 1.34375-2.32813 3.09765-.64453 4.4375.15625 4.4375-.29687 4.4375-.45703 4.4414-1.24219 2.96485-1.95703 1.47266-.28516 4.4375-.32422 4.4375-.66796 4.4414.39843 3.47657.8789.96094.71485 1.41796-.71484 3.01953-.40625 4.4375-.03906 3.19922.4453 1.23828.28517.41797-.28516 4.02344-1.08985 2.61328 1.08985 1.82422 1.28125 2.69531-1.28125 1.7422-2.08985 1.39062-2.34765.9414-4.4375 2.10547-4.03516.33984-.40234 3.55079-4.4414.54687-3.00391 2.84766 3.0039 1.59375.46485 4.4375 3.6953 4.4375-.22655 4.4375-.59766 4.41015-3.33594.03125-.01172 4.4375-.24609 4.4375-1.92969 2.125-2.25 2.3125-2.13281 2.14844-2.30469-2.14844-2.39062-3.79687-2.04688-.64063-1.36328-4.4375-1.41406L277.15234 430l-1.95703-2.92969-2.48437-1.94922-2.5625 1.94922-1.875.66797-3.9336-.66797-.5039-.28906-.5039.28906-3.9336.32031-1.92969-.3203-2.51172-1.92188-2.63672 1.92187-1.80078.8711-.57812-.8711-3.85938-3.72656-1.27344-.71484-3.16406-3.6836-.46484-.7539-3.97266-3.4922-4.4414.08985-4.4375-.9961-.38672-.03905-4.05078-1.14454-2.15625 1.14454-2.28125.90625-4.4375.32812-4.19922-1.23437-.2422-.14454-4.4375-2.70703-4.10546 2.85157-.33203.48437-4.4375 2.4961-4.4414.10937-3.20313 1.34766-1.23438.44921-4.4375 1.83985-4.4375 1.24219-1.15234.90625-3.28906 1.3164-4.4375 1.625-2.1211 1.5-2.3164 1.0039-4.4375 1.73438-2.20703 1.69922-2.01563 4.4375-.21484 2.5625-4.44141-1.53515-4.4375 1.90234-4.4336-2.34766V311.67188h159.77735v115.97656l-1.29297 3.85937 1.29297 1.25781 1.22656-1.2578-1.22656-3.85938V311.67188h48.82031V431.9414l-4.4375.35156-2.59765 3.65234 2.59765 2.53906 1.09375 1.89844 3.34375 3.375 4.4414.02735 4.4375-2.25782 2.26563-1.14453-2.26562-1.22656-2.88672-3.21094-1.55078-3.16797-4.4414-.83593V311.67187h26.6328v130.36329l-3.27343 2.78515-1.16797 1.1875-3.15235 3.2539 3.15235 3.3672 2.3711-3.3672 2.0703-2.04296 2.52344 2.04297 1.91406 2.82031 2.96094-2.82031-2.96094-1.82031-2.14062-2.6211-2.29688-2.78515V311.67187h88.76172v168.65625h-67.83984l-2.9961-4.4375-.17577-.22265-3.04688-4.21485-1.39063-1.67578-1.17187-2.76171 1.17188-.91407 3.08984-3.52734.15234-4.4375-3.24219-3.3086-4.4375-.85156-4.4375 1.65235-4.4375-.02735-4.4414 1.1914-.76953 1.34376.76953.47656 4.4414 1.76172 1.21875 2.19922 3.21875 3.29687 1.02344 1.14454 3.41406 4.3789.25.0586-.25.27734-2.28906 4.16015.58594 4.4375H144.00391"/></g><path fill="#50fcfc" fill-rule="evenodd" d="M148.4375 441.22656l-4.4336 1.73047v-6.42969l4.4336 2.34766 4.4375-1.90234 4.4414 1.53515.21485-2.5625 2.01563-4.4375 2.20703-1.69922 4.4375-1.73437 2.3164-1.0039 2.1211-1.5 4.4375-1.625 3.28906-1.31641 1.15234-.90625 4.4375-1.2422 4.4375-1.83983 1.23438-.44922 3.20312-1.34766 4.4414-.10938 4.4375-2.49609.33204-.48437 4.10547-2.85157v6.375l-1.2461.91407 1.2461.35937 2.16406-.35937-2.16406-.91407v-6.375l4.4375 2.70704.24219.14453 4.19922 1.23437 4.4375-.32812v7.02734l-2.13282.9414 1.39063 4.44141.74219.57031 4.42187-.5703-2.35156-4.44141-2.07031-.94141v-7.02734l2.28125-.90625 2.15625-1.14454 4.05078 1.14454.38672.03906V415.75l-4.4375.49219-3.66797 1.94922 3.66797 2.03125L227 422.6289l1.32813 3.30468v5.21094l-.14454.36328.14453.2539 1.5-.2539-1.5-.36328v-5.21094l4.4375.47657 4.44141-1.09375 2.71875 1.7539-2.71875 3.08985-1.38281 1.34765-.05078 4.4375-3.00781 2.83594-3.37891-2.83594-1.0586-.96484-1.95703-3.47266-2.48047-2.5664-4.4375.21484-2.71875-2.08594-1.71875-2.39062-2.6953-2.05078-1.7461-1.76172-4.4375-.88672-4.4375-.89844-4.4375.8125-4.4414.98438-3.3711 1.75-1.0664.67578-4.4375 3.4961-4.0625.26952-.375.00781-.61329-.0078-3.82812-.07423-.14453.07422-4.29297 1.45703-4.4375 2.34766-1.1797.63281-3.2578 1.73047-2.08203 2.70703-1.14454 4.4375-.39843 4.4375.09375 4.4414.0703 4.4375.46485 4.4375 2.9961 4.29688 4.4375-.3125 2.62109.45313 1.8164.60937 4.22657-.60937.21094-.03906.15234.03906 4.28906.75781 4.4375.66406 4.4375-.3125 4.4375-.83984.53906-.26953 3.90235-1.08203 4.4375-.89453 4.4375-2.0547 1.98828-.40624 2.44922-.4336 3.80078.4336.64063.08594 4.4375 1.34375 4.4375-.1211 2.86718-1.3086 1.57031-1.01952 4.4375.73437 4.44141.16016 4.4375-.57813 2.39063-3.73437 2.04687-1.1836 2.46094-3.2539-2.46094-2.35938-2.89844-2.08203 2.89844-1.35547v1.3047l-.11328.05077.11328.08203.21094-.08203-.21094-.05078v-1.30469l3.33594-3.08203 1.10156-1.5625 4.4375-1.74219 1.11328-1.1328 3.32813-1 4.4375-3.0586 4.4375 1.30078 4.4375-.29688 2.08203-1.3828-2.08203-2.53516-4.4375.75-4.4375 1.1875-4.4375-2.57032-4.4414.15625-4.4375 2.36329-2.51173-3.78907-1.92578-1.85937-4.4375-2.1914-.17187-.39063-2.69922-4.4375-1.5664-1.37891-4.10548 1.3789-.33594.07423-.17968-.07422-4.25781-2.44141v-1.95703l4.4375.9961 4.4414-.08985 3.97266 3.49219.46484.7539 3.16406 3.6836 1.27344.71484 3.85938 3.72656.57812.8711 1.80078-.8711 2.63672-1.92187 2.51172 1.92187 1.92969.32031 3.9336-.3203.5039-.28907.5039.28906 3.9336.66797 1.875-.66797 2.5625-1.94922 2.48437 1.94922L277.15234 430v2.82031l-4.4414 2-4.4375.23828-4.4375-.59765-4.20313 1.48437 1.20703 4.4375 2.9961.60547 2.28515-.60547 2.15235-1.41406 4.4375-1.60938 4.4414-.8164 3.19141-.59766-3.1914-3.125V430l4.4375-1.26953v8.8164l-4.4375.33594-4.44141 1.90625-1.0625.59375-3.375 2.63281-4.4375.53907-1.53516 1.26562 1.53516 1.3789 4.4375-.0078 4.4375-.42579 1.25-.9453 3.1914-1.5586 4.4375-.39453 3.32813-2.48438-3.32813-2.83594v-8.8164l4.4375 1.41406.64063 1.36328 3.79687 2.04688 2.14844 2.39062-2.14844 2.30469-2.3125 2.13281-2.125 2.25-4.4375 1.92969-4.4375.2461-.03125.01171-4.41015 3.33594-4.4375.59766-4.4375.22656-4.4375-3.69531-1.59375-.46485-2.84766-3.0039-.54687 3.0039-3.55078 4.4414-.33985.40235-2.10547 4.03516-.9414 4.4375-1.39063 2.34765-1.74219 2.08985-2.6953 1.28125-1.82423-1.28125-2.61328-1.08985-4.02344 1.08985-.41797.28515-1.23828-.28515-3.19922-.44531-4.4375.03906-3.01953.40625-1.41797.71484-.96093-.71484-3.47656-.8789-4.44141-.39844-4.4375.66796-4.4375.32422-1.47266.28516-2.96484 1.95703-4.4414 1.24219-4.4375.45703-4.4375.29687-4.4375-.15625-3.09766.64454-1.34375 2.32812-2.20313-2.32813-2.23437-.32421-4.4375-.91797-4.4375-.22656-3.15235-2.97266-1.17578-4.4375.14844-4.4375-.0586-4.4375-.02343-4.4414-.17578-3.51173-4.44141.71875-4.4375-.80078"/><path fill="#00e8fc" fill-rule="evenodd" d="M158.22266 449.26172l-.09375-4.4414.39843-4.4375 1.14453-4.4375 2.08204-2.70704 3.2578-1.73047 1.1797-.63281 4.4375-2.34766 4.29297-1.45703.14453-.07422 3.82812.07422.61328.00781.375-.0078 4.0625-.26954 4.4375-3.4961 1.0664-.67577 3.3711-1.75 4.4414-.98438 4.4375-.8125 4.4375.89844v2.38281l-1.85155.26563-2.58594.76562-4.4375 1.0586-4.4414 2.57812-.05079.03906-4.38672 1.84766-4.4375 1.5586-2.98047 1.03124-1.45703.41797-4.41797-.41797-.02343-.0039-.01563.0039-4.42187.63672-4.4375 1.89844-2.70313 1.90234L161.75391 438l-1.05078 2.38281-1.51172 4.4375.21484 4.4414.08203 4.4375 1.49219 4.4375.77344 1.10938 4.4375-.13671 4.4375-.32032 1.16015-.65234 3.27735-1.07813 3.33203 1.07813 1.10937.64453 4.4375 1.86328 4.4375.33203 4.4375-.54687 4.4414-1.66797 2.84376-.625 1.59375-1.07422 3.3164-3.36328 1.02735-4.4375.09375-.10547.09766.10547 4.33984 2.85937 2.88672 1.57813 1.55469.42187 3.64843-.42187.78906-.10938 1.47657.10938 2.96094.26172.3828-.26172 4.0547-2.85156 4.4375 1.1328 3.85546 1.71876.58594.27344.38672-.27344 3.8125-4.4375-1.875-4.4414 2.11328-4.03516 4.4375.5039.98438-.90625 2.98828-4.4375-2.21094-4.4375-1.76172-2.60156-3.01172 2.60156-1.42578.67188-2.9961 3.76562 2.77345 4.4375-4.21485 2.8086-4.4414-.38282-4.04297-2.42578-.39453-.32812-4.4375-2.53906-4.4375-.65625-2.76954-.91407-1.66797-.53125-3.53515-3.90625 1-4.4375-1.90625-1.49219-3.83203-2.94921-.60547-.26563v-2.38281l4.4375.88672 1.7461 1.76172 2.6953 2.05078 1.71875 2.39062 2.71875 2.08594 4.4375-.21484 2.48047 2.5664 1.95703 3.47266 1.0586.96484 3.3789 2.83594 3.00782-2.83594.05078-4.4375 1.38281-1.34765v8.05078l-1.98437 2.17187 1.98437.58594.875-.58594-.875-2.17187v-8.05078l2.71875-3.08985-2.71875-1.7539-4.4414 1.09375-4.4375-.47657L227 422.62891l-3.10938-2.40625-3.66796-2.03125 3.66797-1.94922 4.4375-.49219 4.2578 2.4414.1797.07423v2.35937l-2.26954 2.0039 2.26953 1.73829 3.6211-1.73828-3.6211-2.00391v-2.35938l.33594-.07421 4.10547-1.37891 1.5664 1.3789 2.69923 4.4375.17187.39063 4.4375 2.1914 1.92578 1.85938 2.51172 3.78906 4.4375-2.36328 4.4414-.15625v1.58204l-3.4375 1.58593 3.4375 1.71875 2.32032-1.71875-2.32031-1.58594v-1.58203l4.4375 2.57032 4.4375-1.1875 4.4375-.75 2.08203 2.53515-2.08203 1.38281-4.4375.29688-4.4375-1.30078-4.4375 3.0586-3.32813 1-1.11328 1.1328-4.4375 1.7422-1.10156 1.5625-3.33594 3.08202-2.89844 1.35547 2.89844 2.08203 2.46094 2.35938-2.46094 3.2539-2.04687 1.1836-2.39063 3.73437-4.4375.57813-4.4414-.16016-4.4375-.73437-1.57032 1.01953-2.86719 1.3086-4.4375.12109-4.4375-1.34375-.64062-.08594-3.80078-.4336-2.44922.4336-1.98828.40625-4.4375 2.05469-4.4375.89453-3.90234 1.08203-.53907.26953-4.4375.83984-4.4375.3125-4.4375-.66406-4.28906-.75781-.15234-.03906-.21094.03906-4.22656.60937-1.81641-.60937-2.6211-.45313-4.4375.3125-2.99609-4.29687-.46484-4.4375-.07031-4.4375"/><path fill="#00d4fc" fill-rule="evenodd" d="M159.40625 449.26172l-.21484-4.4414 1.51172-4.4375L161.7539 438l1.73437-2.05469 2.70313-1.90234 4.4375-1.89844 4.42187-.63672.01563-.0039.02343.0039 4.41797.41797 1.45703-.41797 2.98047-1.03125 4.4375-1.5586 4.38672-1.84765.05078-.03906 4.4414-2.57813 4.4375-1.05859v5.625l-4.4375.92969-4.4414 1-1.35547.5586-3.08203 1.79296-4.4375-.25781-4.4375 1.76562-4.4414.65235-4.4375.23828-.73047.2461-3.70703 1.1328-2.94532 3.3047-1.49218 1.1875-1.50391 3.25.33594 4.4414.09765 4.4375 1.07032 2.5664 4.4375-.28125 4.4375-.35156 4.4375-1.04687 4.21093-.88672.23047-.13672.22266.13672 4.21484 3.20312 1.3789 1.23438 3.0586.67187 4.4375-.64843.05469-.02344 4.38672-3.67969.92969-.75781-.9297-1.02344-4.4414-1.9414-1.84375-1.47266-1.42969-4.4414-1.16406-1.45313L185.5 440.3828l2.88281-2.03906 4.4375.76563 4.4414.02343 3.375-3.1875 1.0625-1.82812 2.10938-2.60938-2.10937-2.48828v-5.625l2.58594-.76562 1.85156-.26563.60547.26563 3.83203 2.94921 1.90625 1.4922-1 4.4375 3.53516 3.90624v7.49219l-1.8672 1.91406 1.8672 1.57813 4.4375 1.41015 4.4375-.92578.57812-2.0625-.57813-.78906-4.4375-.94922-4.4375-.17578v-7.49219l1.66797.53125 2.76953.91406 4.4375.65625 4.4375 2.53907.39454.32812 4.04297 2.42578 4.4414.38282 4.21484-2.8086-2.77343-4.4375 2.9961-3.76562 1.42577-.67188 3.01172-2.60156v5.66797l-4.4375.10547-1.00781 1.26562 1.00781 1.5586 4.4375-.46094.64063-1.09766-.64063-1.3711v-5.66796l1.76172 2.60156 2.21094 4.4375-2.98828 4.4375-.98438.90625-4.4375-.5039-2.11328 4.03515 1.875 4.4414-3.8125 4.4375-.38672.27345-.58594-.27344-3.85547-1.71875-4.4375-1.13281-4.05468 2.85156-.38281.26172-2.96094-.26172-1.47656-.10938-.78907.10938-3.64844.42187-1.55468-.42187-2.88672-1.57813-4.33984-2.85937-.09766-.10547-.09375.10547-1.02734 4.4375-3.31641 3.36328-1.59375 1.07422-2.84375.625-4.4414 1.66797-4.4375.54687-4.4375-.33203-4.4375-1.86328-1.10938-.64453-3.33203-1.07813-3.27735 1.07813-1.16015.65234-4.4375.32031-4.4375.13672-.77344-1.10937-1.49219-4.4375-.08203-4.4375"/><path fill="#00c4fc" fill-rule="evenodd" d="M160.58594 449.26172l-.33594-4.4414 1.5039-3.25 1.4922-1.1875 2.9453-3.3047 3.70704-1.1328.73047-.2461v4.16406l-4.4375.44922-.0625.07031-4.375 3.48438-.44141.95312.4414 4.3086.69532.1328 3.74219.86329 3.64062-.86328.79688-.51172.73047-3.92969.9453-4.4375-1.67577-.51953v-4.16406l4.4375-.23828 4.4414-.65235 4.4375-1.76562v2.17969l-1.57031.72265 1.57031 1.32422 1.73047-1.32422-1.73047-.72265v-2.1797l4.4375.25782 3.08203-1.79297 1.35547-.5586v4.48438l-.78125.51172.78125.3164 1.24219-.3164-1.24219-.51172v-4.48437l4.4414-1 4.4375-.92969 2.10938 2.48828-2.10937 2.60938-1.0625 1.82812-3.375 3.1875-4.4414-.02344-4.4375-.76562-2.88282 2.03906 2.88281 2.98438 1.16406 1.45312 1.4297 4.4414 1.84374 1.47267 4.4414 1.9414.9297 1.02344-.9297.75781-4.38671 3.67969-.05469.02344-4.4375.64843-3.0586-.67187-1.3789-1.23438-4.21484-3.20312-.22266-.13672-.23047.13672-4.21093.88672-4.4375 1.04687-4.4375.35156-4.4375.28125-1.07032-2.5664-.09765-4.4375"/><path fill="#00b8fc" fill-rule="evenodd" d="M161.7539 449.1289l-.4414-4.30859.4414-.95312 4.375-3.48438.0625-.07031v.33984l-2.01562 4.16797 2.01563 3.70703 3.33203-3.70703-3.33203-4.16797v-.33984l4.4375-.44922 1.67578.51953-.94531 4.4375-.73047 3.92969-.79688.51172-3.64062.86328-3.7422-.86328-.6953-.13281"/><path fill="#00c4fc" fill-rule="evenodd" d="M166.1914 440.65234l-2.01562 4.16797 2.01563 3.70703 3.33203-3.70703-3.33203-4.16797"/><path fill="#00b8fc" fill-rule="evenodd" d="M183.94531 437.26953l-1.57031-1.32422 1.57031-.72265 1.73047.72265-1.73047 1.32422m8.875-1.00781l-.78125-.3164.78125-.51173 1.24219.51172-1.24219.3164"/><path fill="#fff" fill-opacity="0" fill-rule="evenodd" d="M206.13672 417.27734l-1.2461.91407 1.2461.35937 2.16406-.35937-2.16406-.91407"/><path fill="#00c4fc" fill-rule="evenodd" d="M215.01563 446.39844l-1.8672-1.57813 1.8672-1.91406 4.4375.17578 4.4375.94922.57812.78906-.57813 2.0625-4.4375.92578-4.4375-1.41015"/><path fill="#fff" fill-opacity="0" fill-rule="evenodd" d="M219.45313 421.6875l-2.13282.9414 1.39063 4.44141.74219.57031 4.42187-.5703-2.35156-4.44141-2.07031-.94141m8.875 9.45703l-.14454.36328.14453.2539 1.5-.2539-1.5-.36328"/><path fill="#00d4fc" fill-rule="evenodd" d="M232.76563 424.36719l-2.26954-1.73828 2.26953-2.00391 3.6211 2.0039-3.6211 1.73829"/><path fill="#50fcfc" fill-rule="evenodd" d="M237.20703 438.21094l-1.98437 2.17187 1.98437.58594.875-.58594-.875-2.17187"/><path fill="#00c4fc" fill-rule="evenodd" d="M241.64453 437.5039l-1.00781-1.55859 1.00781-1.26562 4.4375-.10547.64063 1.3711-.64063 1.09765-4.4375.46094"/><path fill="#fff" fill-opacity="0" fill-rule="evenodd" d="M246.08203 444.76953l-.11328.05078.11328.08203.21094-.08203-.21094-.05078"/><path fill="#00d4fc" fill-rule="evenodd" d="M259.39844 433.22656l-3.4375-1.71875 3.4375-1.58594 2.32031 1.58594-2.32031 1.71875"/><path fill="#fff" fill-opacity="0" fill-rule="evenodd" d="M263.83594 434.46094l-4.20313 1.48437 1.20703 4.4375 2.9961.60547 2.28515-.60547 2.15235-1.41406 4.4375-1.60938 4.4414-.8164 3.19141-.59766-3.1914-3.125-4.44141 2-4.4375.23828-4.4375-.59765"/><path fill="#00e8fc" fill-rule="evenodd" d="M263.83594 446.19922l-1.53516-1.3789 1.53516-1.26563 4.4375-.53906 3.375-2.63282 1.0625-.59375 4.4414-1.90625v2.23438l-.54296.26562.54296.30469 2.1836-.30469-2.1836-.26562v-2.23438l4.4375-.33594 3.32813 2.83594-3.32813 2.48438-4.4375.39453-3.1914 1.5586-1.25.9453-4.4375.42579-4.4375.0078"/><path fill="#00d4fc" fill-rule="evenodd" d="M277.15234 440.6875l-.54296-.30469.54296-.26562 2.1836.26562-2.1836.30469"/><path fill="#50fcfc" fill-rule="evenodd" d="M303.78125 432.76563l-1.29297-1.25782 1.29297-3.85937 1.22656 3.85937-1.22656 1.25781m44.38281 5.71875l-2.59765-2.53906 2.59765-3.65234 4.4375-.35156v1.15234l-4.125 2.85156 2.58203 4.4375 1.54297 1.5586 4.4414.24218 2.60157-1.80078-2.60156-2.72265-.98438-1.71485-3.45703-2.85156v-1.15234l4.4414.83593 1.55079 3.16797 2.88672 3.21094 2.26562 1.22656-2.26562 1.14453-4.4375 2.25782-4.4414-.02735-3.34376-3.375-1.09375-1.89844"/><path fill="#00e8fc" fill-rule="evenodd" d="M351.0586 440.38281l-2.58204-4.4375 4.125-2.85156v1.91797l-1.34765.9336 1.34765 2.22265 1.13281-2.22266-1.1328-.9336v-1.91796l3.45702 2.85156.98438 1.71485 2.60156 2.72265-2.60156 1.80078-4.4414-.24218-1.54298-1.5586"/><path fill="#00d4fc" fill-rule="evenodd" d="M352.60156 438.16797l-1.34765-2.22266 1.34765-.9336 1.13281.9336-1.1328 2.22266"/><path fill="#50fcfc" fill-rule="evenodd" d="M374.79297 452.6289l-3.15235-3.36718 3.15235-3.2539 1.16797-1.1875 3.27344-2.78516 2.29687 2.78515 2.14063 2.6211 2.96093 1.8203-2.96094 2.82032-1.91406-2.82031-2.52344-2.04297-2.0703 2.04297-2.3711 3.36719"/><g clip-path="url(#d)"><path fill="#50fcfc" fill-rule="evenodd" d="M374.79297 458.61328l-.76953-.47656.76953-1.34375 4.4414-1.1914 4.4375.02734 4.4375-1.65235v1.65235l-2.95703 2.5078 2.95704 3.51563 4.4375-.09375 1.14453-3.42187-1.14454-1.16406-4.4375-1.34375v-1.65235l4.4375.85156 3.2422 3.3086-.15235 4.4375-3.08985 3.52734-1.17187.91406 1.17188 2.76172 1.39062 1.67579 3.04688 4.21484.17578.22265 2.99609 4.4375h-13.75l-.58594-4.4375 2.28906-4.16015.25-.27735-.25-.05859-3.41406-4.3789-1.02344-1.14454-3.21875-3.29687-1.21875-2.19922-4.4414-1.76172"/></g><path fill="#00e8fc" fill-rule="evenodd" d="M388.10938 461.65234l-2.95704-3.51562 2.95704-2.50781 4.4375 1.34375 1.14453 1.16406-1.14454 3.42187-4.4375.09375"/><g clip-path="url(#e)"><path fill="#fff" fill-opacity="0" fill-rule="evenodd" d="M467.9961 480.32813H468V311.67188h-.0039H468v168.65625h-.0039"/></g><path fill="#fff" fill-opacity="0" fill-rule="evenodd" d="M278.08594 433.75l5.83984.08594.14844-9.95703-5.84375-.08985-.14453 9.96094"/><path fill-rule="evenodd" d="M281.70313 425.67578l.5078.00781-.08984 6.29297-.78906-.01172.0664-4.48828-1.38671-.01953.00781-.5586.5586-.05468.2539-.05078.23047-.08594.20703-.13672.17578-.20703.14844-.29297.10938-.39453"/><path fill="#fff" fill-opacity="0" fill-rule="evenodd" d="M190.39844 471.39453l5.73828-1.08984-1.85938-9.78516-5.73828 1.08985 1.85938 9.78515"/><path fill-rule="evenodd" d="M192.32031 462.75781l.5-.09375 1.17578 6.1836-.77343.14843-.83985-4.41406-1.36328.26172-.10156-.54688.53516-.16796.23828-.10157.21093-.1289.17188-.17578.13281-.2422.08203-.3125.03125-.41015"/><path fill="#fff" fill-opacity="0" fill-rule="evenodd" d="M244.66406 449.07031l.32813-7.91797-10.1836-.42187-.32812 7.91797 10.1836.42187"/><path fill-rule="evenodd" d="M236.41406 446.2461l.13672-3.28516.73828.03125-.10937 2.63672 1.79297.30468-.15235-.23437-.1211-.27344-.07421-.32812-.01563-.38282.03907-.32421.09765-.33204.16016-.32812.23047-.30469.30078-.25781.17969-.10938.19531-.09375.21875-.0703.24219-.05079.26172-.02734.28125-.00391.4414.05469.41406.1211.37891.1875.32813.2539.26953.3164.10937.1836.08985.19922.0703.21484.04688.23047.02735.2461v.26171l-.05469.46485-.11719.39453-.17578.32421-.22656.26954-.26953.20703-.30469.16015-.33594.11329-.35547.07421.03125-.78515.23438-.07031.21094-.09375.1875-.1172.16015-.14062.1289-.16015.09767-.1836.0664-.21094.02734-.23046-.0078-.3125-.0625-.28516-.10938-.25-.15625-.21484-.20703-.17188-.25782-.13281-.30859-.08985-.35547-.03906-.26562.00781-.26172.05079-.2539.09375-.23438.13671-.20313.1836-.16016.23437-.10937.28125-.05078.33985.02344.33594.09765.28515.17578.28125.25391.32422-.02734.6914-3.40235-.60156"/><path fill="#fff" fill-opacity="0" fill-rule="evenodd" d="M162.4375 464.61328l7.91406-.40625-.52344-10.17969-7.91406.41016.52344 10.17578"/><path fill-rule="evenodd" d="M164.48828 456.14063l3.28125-.17188.03516.74219-2.63281.13281-.14063 1.8164.21875-.17577.26563-.14454.3164-.10546.38281-.05079.32422.00782.34375.0664.33985.13281.3203.19922.28907.27344.125.16797.10938.1914.09375.21094.0703.23438.05079.25781.02734.28125-.01172.44531-.07812.42188-.15234.39453-.22266.34766-.29297.30078-.17187.125-.19141.10547-.20703.08984-.22266.07031-.24219.05078-.26171.02344-.46875-.01172-.40235-.08203-.34375-.14453-.28515-.19922-.23438-.25-.1875-.28906-.14062-.32422-.10938-.34766.78906-.03906.08985.22656.11328.20313.13281.17187.15234.14844.17579.11328.1914.08203.21485.04297.23047.00781.3125-.03906.27734-.08594.23828-.1328.19922-.17579.15234-.22265.10938-.26954.0586-.3125.0078-.35937-.03515-.26172-.07031-.25781-.1172-.24219-.16015-.22266-.19922-.18359-.2461-.13672-.29296-.08594-.34375-.01562-.33203.05078-.27734.125-.26172.19922-.29688.28515-.69531.03516.28906-3.4414"/><g clip-path="url(#f)"><path fill="none" stroke="#000" stroke-linecap="round" stroke-linejoin="round" stroke-miterlimit="10" stroke-width=".5" d="M147.41016 481.17578l-6.82032-1.69531"/></g><g clip-path="url(#g)"><path fill="none" stroke="#000" stroke-linecap="round" stroke-linejoin="round" stroke-miterlimit="10" stroke-width=".5" d="M147.41016 481.17578l.59375 2.38281"/></g><g clip-path="url(#h)"><path fill="none" stroke="#000" stroke-linecap="round" stroke-linejoin="round" stroke-miterlimit="10" stroke-width=".5" d="M146.41797 480.92969l.29687 1.1914"/></g><g clip-path="url(#i)"><path fill="none" stroke="#000" stroke-linecap="round" stroke-linejoin="round" stroke-miterlimit="10" stroke-width=".5" d="M160.76563 481l-6.89844-1.34375"/></g><g clip-path="url(#j)"><path fill="none" stroke="#000" stroke-linecap="round" stroke-linejoin="round" stroke-miterlimit="10" stroke-width=".5" d="M160.76563 481l.71484 2.34766"/></g><g clip-path="url(#k)"><path fill="none" stroke="#000" stroke-linecap="round" stroke-linejoin="round" stroke-miterlimit="10" stroke-width=".5" d="M159.76172 480.80469l.35547 1.17187"/></g><g clip-path="url(#l)"><path fill="none" stroke="#000" stroke-linecap="round" stroke-linejoin="round" stroke-miterlimit="10" stroke-width=".5" d="M174.07422 481.02344l-6.88672-1.38672"/></g><g clip-path="url(#m)"><path fill="none" stroke="#000" stroke-linecap="round" stroke-linejoin="round" stroke-miterlimit="10" stroke-width=".5" d="M174.07422 481.02344l.70312 2.34765"/></g><g clip-path="url(#n)"><path fill="none" stroke="#000" stroke-linecap="round" stroke-linejoin="round" stroke-miterlimit="10" stroke-width=".5" d="M173.07422 480.82031l.34766 1.17578"/></g><g clip-path="url(#o)"><path fill="none" stroke="#000" stroke-linecap="round" stroke-linejoin="round" stroke-miterlimit="10" stroke-width=".5" d="M187.2461 481.53125l-6.60157-2.40234"/></g><g clip-path="url(#p)"><path fill="none" stroke="#000" stroke-linecap="round" stroke-linejoin="round" stroke-miterlimit="10" stroke-width=".5" d="M186.28516 481.17969l.17187 1.21484"/></g><g clip-path="url(#q)"><path fill="none" stroke="#000" stroke-linecap="round" stroke-linejoin="round" stroke-miterlimit="10" stroke-width=".5" d="M200.60938 481.39063l-6.69922-2.1211"/></g><g clip-path="url(#r)"><path fill="none" stroke="#000" stroke-linecap="round" stroke-linejoin="round" stroke-miterlimit="10" stroke-width=".5" d="M213.8789 481.51953l-6.60937-2.38281"/></g><g clip-path="url(#s)"><path fill="none" stroke="#000" stroke-linecap="round" stroke-linejoin="round" stroke-miterlimit="10" stroke-width=".5" d="M227.14453 481.66016L220.63672 479"/></g><g clip-path="url(#t)"><path fill="none" stroke="#000" stroke-linecap="round" stroke-linejoin="round" stroke-miterlimit="10" stroke-width=".5" d="M240.47266 481.61719l-6.53516-2.57813"/></g><g clip-path="url(#u)"><path fill="none" stroke="#000" stroke-linecap="round" stroke-linejoin="round" stroke-miterlimit="10" stroke-width=".5" d="M253.69531 481.83203l-6.35156-3.00781"/></g><g clip-path="url(#v)"><path fill="none" stroke="#000" stroke-linecap="round" stroke-linejoin="round" stroke-miterlimit="10" stroke-width=".5" d="M266.25 482.88281l-4.82813-5.10937"/></g><g clip-path="url(#w)"><path fill="none" stroke="#000" stroke-linecap="round" stroke-linejoin="round" stroke-miterlimit="10" stroke-width=".5" d="M278.36328 483.625l-2.42578-6.59375"/></g><g clip-path="url(#x)"><path fill="none" stroke="#000" stroke-linecap="round" stroke-linejoin="round" stroke-miterlimit="10" stroke-width=".5" d="M292.67188 483.0625l-4.41016-5.46875"/></g><g clip-path="url(#y)"><path fill="none" stroke="#000" stroke-linecap="round" stroke-linejoin="round" stroke-miterlimit="10" stroke-width=".5" d="M304.41406 476.875l-1.26953 6.91016"/></g><g clip-path="url(#z)"><path fill="none" stroke="#000" stroke-linecap="round" stroke-linejoin="round" stroke-miterlimit="10" stroke-width=".5" d="M317.6211 476.85547l-1.04688 6.94922"/></g><g clip-path="url(#A)"><path fill="none" stroke="#000" stroke-linecap="round" stroke-linejoin="round" stroke-miterlimit="10" stroke-width=".5" d="M327.05469 481.36328l6.71484-2.07031"/></g><g clip-path="url(#B)"><path fill="none" stroke="#000" stroke-linecap="round" stroke-linejoin="round" stroke-miterlimit="10" stroke-width=".5" d="M340.23828 480.75l6.97656-.83984"/></g><g clip-path="url(#C)"><path fill="none" stroke="#000" stroke-linecap="round" stroke-linejoin="round" stroke-miterlimit="10" stroke-width=".5" d="M353.7461 481.55469l6.58984-2.44922"/></g><g clip-path="url(#D)"><path fill="none" stroke="#000" stroke-linecap="round" stroke-linejoin="round" stroke-miterlimit="10" stroke-width=".5" d="M354.70703 481.19531l-.91797-.8125"/></g><g clip-path="url(#E)"><path fill="none" stroke="#000" stroke-linecap="round" stroke-linejoin="round" stroke-miterlimit="10" stroke-width=".5" d="M366.98828 481.33594l6.73438-2.01563"/></g><g clip-path="url(#F)"><path fill="none" stroke="#000" stroke-linecap="round" stroke-linejoin="round" stroke-miterlimit="10" stroke-width=".5" d="M366.98828 481.33594l-1.72265-1.7461"/></g><g clip-path="url(#G)"><path fill="none" stroke="#000" stroke-linecap="round" stroke-linejoin="round" stroke-miterlimit="10" stroke-width=".5" d="M380.34375 481.45313L387 479.20702"/></g><g clip-path="url(#H)"><path fill="none" stroke="#000" stroke-linecap="round" stroke-linejoin="round" stroke-miterlimit="10" stroke-width=".5" d="M380.34375 481.45313l-1.78516-1.6875"/></g><g clip-path="url(#I)"><path fill="none" stroke="#000" stroke-linecap="round" stroke-linejoin="round" stroke-miterlimit="10" stroke-width=".5" d="M393.65625 481.44922l6.66016-2.24219"/></g><g clip-path="url(#J)"><path fill="none" stroke="#000" stroke-linecap="round" stroke-linejoin="round" stroke-miterlimit="10" stroke-width=".5" d="M393.65625 481.44922l-1.78125-1.6836"/></g><g clip-path="url(#K)"><path fill="none" stroke="#000" stroke-linecap="round" stroke-linejoin="round" stroke-miterlimit="10" stroke-width=".5" d="M394.625 481.125l-.89063-.84375"/></g><g clip-path="url(#L)"><path fill="none" stroke="#000" stroke-linecap="round" stroke-linejoin="round" stroke-miterlimit="10" stroke-width=".5" d="M406.8789 481.1211l6.84376-1.58594"/></g><g clip-path="url(#M)"><path fill="none" stroke="#000" stroke-linecap="round" stroke-linejoin="round" stroke-miterlimit="10" stroke-width=".5" d="M406.8789 481.1211l-1.61327-1.85157"/></g><g clip-path="url(#N)"><path fill="none" stroke="#000" stroke-linecap="round" stroke-linejoin="round" stroke-miterlimit="10" stroke-width=".5" d="M421.16406 482.84375l4.90625-5.03125"/></g><g clip-path="url(#O)"><path fill="none" stroke="#000" stroke-linecap="round" stroke-linejoin="round" stroke-miterlimit="10" stroke-width=".5" d="M435.13672 483.35156l3.58984-6.04297"/></g><g clip-path="url(#P)"><path fill="none" stroke="#000" stroke-linecap="round" stroke-linejoin="round" stroke-miterlimit="10" stroke-width=".5" d="M449.39063 483.73828l1.71093-6.8164"/></g><g clip-path="url(#Q)"><path fill="none" stroke="#000" stroke-linecap="round" stroke-linejoin="round" stroke-miterlimit="10" stroke-width=".5" d="M463.26953 483.82813l.58594-7"/></g><g clip-path="url(#R)"><path fill="none" stroke="#000" stroke-linecap="round" stroke-linejoin="round" stroke-miterlimit="10" stroke-width=".5" d="M147.32422 468.15234l-6.64844-2.27734"/></g><path fill="none" stroke="#000" stroke-linecap="round" stroke-linejoin="round" stroke-miterlimit="10" stroke-width=".5" d="M147.32422 468.15234l.38672 2.42188m12.99219-2.63672l-6.77735-1.84766m6.77734 1.84766l.54297 2.39453m12.80078-2.49219l-6.83203-1.65234m6.83203 1.65234l.60938 2.37891m12.79297-2.94531l-7.00781-.51953m7.0078.51953l.98829 2.2461m12.33203-2.32032l-7.01953-.3711m7.01953.3711l1.03516 2.22656m12.14844-1.4414l-6.75391-1.94141m6.7539 1.9414l.50782 2.40235m12.60547-1.86719l-6.35157-3.01172m6.35157 3.01172l.11328 2.44922m13.28906-2.65234l-6.52734-2.60547m5.57812 2.22656l.13281 1.21875m14.25782-1.21484l-6.77735-1.85547m5.78906 1.58593l.26954 1.19532m13.5078.1836l-5.72655-4.07423m4.89453 3.48047l-.16016 1.21875M279.00391 470l-3.70704-5.97266m3.16797 5.10157l-.61718 1.0625m9.14453-3.71485l6.94531 1.07422m9.86719-4.05078l-.04688 7.02734m12.50781-6.92968l1.66016 6.83203m-1.41797-5.83594l.91797-.8164m10.36719.89062l5.23437 4.6914m-4.47265-4.0078l.29687-1.19141m11.85156 1.0625l6.04297 3.58203m-5.16406-3.0625l.0586-1.22657m12.07421 1.36329l6.65235 2.26953m-5.6836-1.9414l-.1953-1.21095m12.48046 1.08203l6.77344 1.8711m-5.78516-1.59766l-.26953-1.19922m12.52344 2.48047l6.91797-1.23828m-6.91797 1.23828l-1.51563-1.92969m15.00781 2.5586l6.56641-2.4961m-6.5664 2.4961l-1.84766-1.61719m15.41797 2.15625l6.05468-3.57422m-6.05468 3.57422l-2.08985-1.28125m2.97266.76172l-1.04688-.64063m13.16016.4375l6.69531-2.1289m-6.6953 2.1289l-1.75392-1.71484m2.72657 1.40625l-.875-.85937m13.09375.65234l6.9414-1.09766m-6.9414 1.09766l-1.47657-1.96094m15.73829 3.85547l5.04687-4.88672m-5.04687 4.88672l-2.33594-.7539m17.01172 1.625l2.32812-6.62891m-2.32812 6.6289l-2.42578.3711"/><g clip-path="url(#S)"><path fill="none" stroke="#000" stroke-linecap="round" stroke-linejoin="round" stroke-miterlimit="10" stroke-width=".5" d="M147.38672 454.63281l-6.77344-1.86719"/></g><path fill="none" stroke="#000" stroke-linecap="round" stroke-linejoin="round" stroke-miterlimit="10" stroke-width=".5" d="M147.38672 454.63281l.53516 2.39453m12.23437-1.26172l-5.6836-4.1328m4.85548 3.53124l-.16797 1.21485m14.22265-.4961l-5.50781-4.36718m4.70703 3.73046l-.22266 1.20704m14.69141-1.11329l-6.21094-3.28125m5.3086 2.8047l.0039 1.22655m14.48828-1.43359l-6.76171-1.91406m5.77734 1.63672l.26172 1.19922m13.85547-.42579l-6.39844-2.90625m5.46875 2.48047l.07813 1.22657m14.07421-.60938l-6.21093-3.29297m5.30468 2.8164l.00391 1.22657m13.88281-.23828l-5.54297-4.3164m4.73828 3.6914l-.21093 1.20703m11.36719.76953l.3828-7.01562m15.72657 5.86718l-5.20703-4.71875m16.9414 2.35938l-.01953-.19922-.05859-.1914-.09375-.1797-.45703-.375-.1914-.05859-.19923-.01953-.19922.01953-.1953.0586-.45704.375-.09375.17968-.0586.19141-.01952.19922.01953.19922.0586.1914.09374.17578.45703.37891.19532.0586.19921.01953.19922-.01953.1914-.0586.45704-.3789.09375-.17579.0586-.1914.01953-.19922m9.35156-1.92188l5.88281 3.84375m7.10938-3.21484l6.53125 2.58594m9.2578-4.71485l1.58204 6.84375m-1.35156-5.84765l.92578-.8086m10.66406.56641l4.57422 5.33594m-3.91016-4.5586l.44922-1.14453m11.83985.72656l5.29687 4.6172m-4.52734-3.94532l.27734-1.19531m12.00781.85937l5.8164 3.94531m-4.96874-3.37109l.13281-1.22266m12.58985.31641l5.30468 4.60938m-4.53125-3.9375l.27344-1.19532m11.46094 2.21875l6.92187 1.21485m-6.92187-1.21485l-.76172-2.33203m14.0586 3.4336l6.95702-.98829m-6.95703.98829l-1.44531-1.98047m2.45703 1.83984l-.72265-.99219m14.28906 3.3672l4.42969-5.45313m-4.4297 5.45312l-2.40624-.47266m3.05078-.3203l-1.20313-.23438m13.08594.125l6.0039-3.65235m-6.0039 3.65235l-2.10937-1.25m15.03515.34375l6.78516-1.83594m-5.79688 1.5664l-.83984-.89453m13.0664-.14453l6.98438.77735m-5.96875-.66407l-.45312-1.14062m14.04297 4.15625l4.40234-5.47656m-4.40234 5.47656l-2.41016-.46094"/><g clip-path="url(#T)"><path fill="none" stroke="#000" stroke-linecap="round" stroke-linejoin="round" stroke-miterlimit="10" stroke-width=".5" d="M147.3164 441.54688l-6.6328-2.32813"/></g><path fill="none" stroke="#000" stroke-linecap="round" stroke-linejoin="round" stroke-miterlimit="10" stroke-width=".5" d="M147.3164 441.54688l.3672 2.42578m12.73827-1.94532l-6.21093-3.28515m5.30469 2.80469l.0039 1.22656m13.88281-.23438l-5.54687-4.3125m18.94531 4.20313l-5.71094-4.09375m4.87891 3.5l-.16016 1.21484m13.45703.21485L195.25392 437.5m18.08984 5.04688l-5.53516-4.32813m13.66016 4.71094l4.83984-5.09375m9.1875 5.61719l3.41797-6.14063m8.6836 5.01953l5.84765-3.89844m-4.9961 3.33204l-1.08202-.58204m13.01953-.13672l6.89844-1.32812m6.375.27344l6.98046.78125m-5.96484-.66797l-.45312-1.14063m13 .07032l6.48828 2.6953m-5.54688-2.30077l-.11718-1.22266m12.95703.02734l5.55468 4.30079m-4.74609-3.67579l.20703-1.21093m13.54297-.42578l3.0664 6.3203m-2.62109-5.39843l.72266-.99219m12.9375-.20312l1.48437 6.86719m-1.26953-5.8672l.9375-.79296m12.92578-.28516l-.03906 7.02735m.03125-6.00782l1.08985-.5664m10.60546-.0664l3.21485 6.25m-2.7461-5.33985l.69922-1.00781m10.5039 1.88671l6.5 2.67579M380.5 438.875l6.34375 3.01953M380.5 438.875l-.11328-2.45313m13.5664 2.1875l6.06641 3.54688m-6.0664-3.54688l.09765-2.44921m.78516 2.96875l.09765-2.45313m11.88282 3.26563l6.96875.88671m-6.96875-.88671l-.8711-2.29688m1.88672 2.42578l-.8711-2.29687m1.88282 2.42578l-.4336-1.14844m11.92188 2.58203l6.57031-2.4961m-6.5703 2.4961l-1.84766-1.61719m2.80468 1.25391l-.92578-.8086m13.63281 1.85548l5.8711-3.8672m-5.8711 3.8672l-2.15234-1.17579m16.08203-3.39453l4.64063 5.27735m-3.96485-4.51172l.4336-1.14844M460.7578 442.5l5.60938-4.23047M460.7578 442.5l-2.22656-1.03906"/><g clip-path="url(#U)"><path fill="none" stroke="#000" stroke-linecap="round" stroke-linejoin="round" stroke-miterlimit="10" stroke-width=".5" d="M147.33984 428.15625l-6.67968-2.17578"/></g><path fill="none" stroke="#000" stroke-linecap="round" stroke-linejoin="round" stroke-miterlimit="10" stroke-width=".5" d="M146.36719 427.83984l.21484 1.20703m13.91797-.49609l-6.3711-2.96484m5.44532 2.53125l.0664 1.22656m13.6836-.01953l-5.38672-4.51172m4.60156 3.85547l-.2539 1.19922m11.65234.71484l.01563-7.02734M196.5039 430.5l1.51172-6.86328m14.94921.85547l-4.77734 5.15234m13.29297-5.13281l4.82031 5.11328m8.01563-.5586l5.77734-3.99609m7.3125 3.625l6.23047-3.2539m7.23437 3.51562l5.92578-3.77734m11.375 1.89062l-.01953-.20312-.05859-.1914L278 426.5l-.45703-.375-.1914-.0586-.19923-.01952-.19922.01953-.1953.05859-.45704.375-.09375.17578-.0586.1914-.01952.20313.01953.19922.0586.1914.09374.17579.45703.375.19532.0586.19921.01952.19922-.01953.1914-.0586.45704-.375.09375-.17577.0586-.1914.01953-.19923m8.79687-.34765l6.99219.6914m-5.97266-.58984l-.46875-1.13672m12.84766.55469l6.82812 1.65234m9.70313-4.33594l.39453 7.01954m-.33594-5.9961l1.04688-.63672m10.97265-.08593l2.86719 6.41796m-2.44922-5.48437l.7539-.96484m12.38282-.0625l2.38672 6.60937m-2.03906-5.64844l.82422-.91015m11.90625.04297l2.86328 6.41796m9.46875-.65625l4.82812-5.10546m-4.125 4.36328l-1.1836-.32422m12.8711-.39063l6.67578-2.1914m-6.67578 2.1914l-1.76953-1.69922m16.60938-2.40625l3.6289 6.01954m-3.6289-6.01954l1.26171-2.10546m-.73437 2.98046l.6289-1.05078m13.92579-.32812l.09375 7.02734m-.09375-7.02734l2.15234-1.17969m11.82422 1.23438L423 430.52734m1.23047-6.91796l2.33594-.75391m-2.51563 1.76172l1.16797-.3789m12.22266-.64454l-1.01953 6.94922m1.01953-6.94922l2.30859-.82812m7.04297 3.66015l6.90625 1.28516m-6.90625-1.28516l-.73828-2.33984m14.35937 1.41797l6.29297 3.1289m-6.29297-3.1289l-.0664-2.44922"/><g clip-path="url(#V)"><path fill="none" stroke="#000" stroke-linecap="round" stroke-linejoin="round" stroke-miterlimit="10" stroke-width=".5" d="M147.5 413.42969l-7 .64453"/></g><path fill="none" stroke="#000" stroke-linecap="round" stroke-linejoin="round" stroke-miterlimit="10" stroke-width=".5" d="M146.48047 413.52344l.67187 1.02734m13.64844-1.22656l-6.97266.85547m5.96094-.73047l.70313 1.00781m12.89062-2.88672l-5.50781 4.36328m4.70703-3.72656l1.125.49219m12.5039-1.63281l-4.53124 5.375m3.8711-4.59375l1.19921.2578m13.19531-.62108l-5.36719 4.53515m4.58594-3.875l1.13672.45703m8.75-2.01172l3.05078 6.32813m-2.60937-5.41016l.72656-.98828m10.21094 2.61719l6.91797 1.23437m-5.91016-1.05468l-.375-1.16797m12.76953 2.58984l6.7461-1.96875m-6.7461 1.96875l-1.71094-1.75781m17.23828 4.08984l2.32422-6.63281m-1.98828 5.66797l-1.21094.1836m15.29297.97656l.1172-7.02344m-.09767 6.0039l-1.09375.5547m10.96485-2.59376l6.96484-.90625m-5.95312.77344l-.71094-1m13.5664-1.26172l5.85938 3.88281m7.44531-.01953l5.88282-3.84375m-5.02735 3.28516l-1.07422-.59375m17.28125-4.1875l-1.61328 6.83594m1.3789-5.84375l1.1875-.3086m8.22266 1.625l6.66797 2.21875m-5.69922-1.89453l-.20312-1.21094m14.09766-1.03125l3.5664 6.05469m-3.04687-5.17578l.64062-1.04297m14.48438-.28125l-1.08985 6.9414m.9297-5.92968l1.16015-.40234m8.25781 2.89453l7.02734-.06641m-6.0078.0586l-.58595-1.07813m13.91797-1.4375l4.94922 4.98437m-4.22656-4.26171l.35937-1.17188m13.86328-.46875l1.69141 6.82031m-1.6914-6.82031l1.82812-1.64062m-1.58203 2.6328l.91406-.8203m13.16406-.27344l-.32812 7.01953m.32812-7.01953l2.21875-1.04688m-2.26562 2.07032l1.10937-.52735m12.29688-.49219l-.41797 7.01563m.41797-7.01563l2.23047-1.01953m-2.28907 2.03907l1.11329-.50782m11.67187-.4961l.76172 6.98438m-.76172-6.98437l2.02734-1.38281m-1.91796 2.39843l2.03125-1.3789m10.16796.6289l2.77735 6.45313m-2.77735-6.45313l1.53125-1.91406m13.7422 1.67188l-1.14454 6.93359m1.14453-6.9336l2.32422-.78124m-2.48828 1.79297l1.16016-.39454"/><g clip-path="url(#W)"><path fill="none" stroke="#000" stroke-linecap="round" stroke-linejoin="round" stroke-miterlimit="10" stroke-width=".5" d="M147.0664 398.72656l-6.1328 3.42578"/></g><path fill="none" stroke="#000" stroke-linecap="round" stroke-linejoin="round" stroke-miterlimit="10" stroke-width=".5" d="M146.17578 399.22266l1.03125.66796m12.82422-1.68359l-5.42969 4.46094m4.63672-3.8125l1.13281.47265m12.19532-1.82421l-3.8711 5.86718m3.8711-5.86718l2.4414.23437m10.51953-.4375l-3.16406 6.27344m2.70313-5.35938l1.22656-.02734m11.4336-1.23047l-.9297 6.96485m.79297-5.95313l1.14844-.42578m8.59766 1.53515l6.48047 2.71875m-5.53907-2.3203l-.10937-1.22266m12.21094 2.11328l7.02343.14062m-7.02343-.14062l-1.10938-2.1875m14.51953 1.4375l6.83203 1.64453m-6.83203-1.64453l-.61328-2.375m15.7461 6.32422l3.19921-6.25782m-3.19922 6.25782l-2.45312.03906m16.91016.3164l.91406-6.96875m-.78125 5.95704l-1.14844.42968m18.125-3.99609l-6.67578 2.1875m19.35938 1.14844l-5.41407-4.48047m4.6289 3.82812l-.25 1.19922m9.26173-5.3711l4.76562 5.16407m7.45313-3.08594l6.95703 1.00782m10.85937-.50391l-.01953-.19922-.0586-.1914-.09374-.17579-.46094-.3789-.1914-.05469-.19922-.02344-.19922.02344-.1914.05469-.45704.3789-.09766.17579-.05859.1914-.01953.19922.01953.19922.0586.1914.09765.1797.45703.375.1914.05859.19923.01953.19921-.01953.19141-.0586.46094-.375.09375-.17969.0586-.1914.01952-.19922m14.67188-2.58203l-4.75781 5.16797m4.0664-4.41797l1.1875.3086m6.9414 1.1875l6.9961.67187m-5.97656-.57422l-.47266-1.13281m12.89454 2.35937l6.74218-1.97265m-5.76172 1.68359l-.85546-.875m17.83203-3.09766l-2.54297 6.55078m2.54297-6.55078l2.4375-.29297m11.2578.46485l-3.30077 6.20312m3.30078-6.20312h2.45312m-2.93359.90234h2.45313m10.84765-1.11719l-2.3086 6.63672m2.3086-6.63672l2.42188-.3789m10.76562.33594l-2.05469 6.71875m2.0547-6.71875l2.40624-.46875m9.92578.3164l-.08984 7.02735m.08984-7.02735l2.17969-1.125m-2.19531 2.14844l1.09375-.5625m12.32031-.46094l-.25781 7.02344m.25781-7.02344l2.20703-1.07031m-2.24219 2.09375l2.20704-1.07031m11.09375.04687l-.16016 7.02344m.16015-7.02344l2.19141-1.10156"/><g clip-path="url(#X)"><path fill="none" stroke="#000" stroke-linecap="round" stroke-linejoin="round" stroke-miterlimit="10" stroke-width=".5" d="M147.28125 385.86719l-6.5625 2.51562"/></g><path fill="none" stroke="#000" stroke-linecap="round" stroke-linejoin="round" stroke-miterlimit="10" stroke-width=".5" d="M147.28125 385.86719l1.85156 1.60937m11.6211-1.07812l-6.87891 1.44922m6.8789-1.44922l1.57423 1.88281m-2.57422-1.67188l.78515.94141m12.82422-2.63281l-5.46875 4.41015m5.46875-4.41015l2.25781.96094m8.90235-2.22266l-1.15625 6.9336m1.15625-6.9336l2.32422-.77734m-2.4922 1.78906l1.16407-.39063m10.03516-.22656l3.41015 6.14453m-3.41015-6.14453l1.33594-2.0586m-.83985 2.95313l.66797-1.03125m11.5664.54297l4.58204 5.33203m-4.58203-5.33203l.89062-2.28515m-.22266 3.0625l.44532-1.14454M221 389.1211l5.78125-3.99609M221 389.1211l-2.17969-1.12891m15.01172.11719l6.7461-1.97266m11.1328-2.32031l-2.3789 6.61328M265 390.4375l-2.33203-6.6289M265 390.4375l-1.66016 1.80469m15.11328-1.85547l-2.60546-6.52735m2.22656 5.57813l-.79297.9375m16.69922-3.19531l-7.02735-.11328m20.10938-1.20313l-6.5625 2.51953m5.60547-2.15234l.92578.80469m12.44922-2.4922l-4.76953 5.16017m4.07422-4.41016l1.1875.3125m13.83593.6211l-6.79687 1.79296m5.8086-1.53125l.83202.90235m9.08204-3.63672l1.98046 6.74218m-1.6914-5.76171l.8789-.85938m16.07032 1.3086l-5.86329 3.8789m5.00782-3.3125l1.07812.58594m12.96485-1.33203l-5.60938 4.23828m5.60938-4.23828l2.22265 1.03515m9.53516-2.19922l-2.49219 6.57032m2.49219-6.57032l2.4336-.30859m10.72656.25l-2.1836 6.6836m2.1836-6.6836l2.41406-.42188m11.9375.96875l-4.25781 5.58985m4.2578-5.58985l2.42188.39844m-3.03906.41406l1.21094.19922m10.44531-1.72656l.29688 7.01953m-.29688-7.01953l2.11719-1.24219m11.13672 1.2461l.41796 7.01172m-.41796-7.01172l2.09375-1.28125m-2.03125 2.30078l1.04687-.64063m12.9414-.34765l-1.05468 6.94922m1.05469-6.94922l2.3125-.8125m-2.46485 1.82422l1.15625-.40625m12.58204-.55079l-1.59766 6.83985m1.59765-6.83985l2.3711-.6328m-2.60156 1.6289l1.18359-.3164"/><g clip-path="url(#Y)"><path fill="none" stroke="#000" stroke-linecap="round" stroke-linejoin="round" stroke-miterlimit="10" stroke-width=".5" d="M147.05469 372.07422l-6.10938 3.46875"/></g><path fill="none" stroke="#000" stroke-linecap="round" stroke-linejoin="round" stroke-miterlimit="10" stroke-width=".5" d="M147.05469 372.07422l2.07031 1.3164m11.52344-.6914l-6.66797 2.21875m6.66797-2.21875l1.77734 1.6914m10.83594-2.91015L168 376.13672m5.26172-4.65625l2.29687.85937m9.95703-1.67578l-3.14062 6.28516m3.14063-6.28516l2.45312-.0586m8.21484-.14062l2.15235 6.6875m-2.15235-6.6875l1.71094-1.76171m-1.39844 2.73437l.85547-.8789m12.33203-.14844l1.78125 6.79687m-1.78125-6.79687l1.8047-1.66407m-1.54298 2.65235l.89844-.83203m11.84375-.0586l2.40625 6.60156m-2.40625-6.60156l1.64063-1.82422m-1.29297 2.78516l.8203-.91406m13.26954 6.76562l.16016-7.02344m-.16016 7.02344l-2.1914 1.10156m14.90234-1.16796l1.3711-6.89063m-1.17188 5.88672l-1.17578.35547m13.66015.46094l2.63281-6.51563m-2.25 5.5664l-1.22265.12891m14.71484.9922l1.51172-6.86329m-1.28906 5.86719l-1.1836.32812m17.36328-.13281l-4.66406-5.25781m3.98828 4.49219l-.42968 1.14843m15.52343-2.26953l-6.86718-1.48437m6.86718 1.48437l.66797 2.35938m12.30078-4.77735l-6.17578 3.35156m5.27735-2.86328l1.02343.67579m12.7461-1.8047l-5.28516 4.63282m4.51563-3.95703l1.14453.4336m11.32422-2.15235l-2.0547 6.71875m2.0547-6.71875l2.40625-.46875m12.79687 1.86328l-5.82812 3.92578m5.82812-3.92578L362.1211 373m11.58985-.24219l-6.70703 2.10156m6.70703-2.10156l1.7461 1.72266m-2.72266-1.41797l.87109.86328m13.28516-1.52734l-6.4375 2.82031m6.4375-2.82031l1.92187 1.52344m9.40625-3.40625l-2.46484 6.58203m2.46484-6.58204l2.42969-.3164m10.35547.16797l-1.40235 6.88281m1.40235-6.88281l2.35156-.69922m12.3789 1.33984l-4.23828 5.60156m4.23829-5.60156l2.42578.38672m8.57812-1.09375l.38672 7.01563m-.38672-7.01563l2.10156-1.26953m10.61329 1.35547l1.58984 6.84375m-1.35938-5.84766l.92579-.8086m12.74218-.27343l.42188 7.01563m-.42188-7.01563l2.08985-1.28125m-2.03125 2.30078l1.04687-.64062"/><g clip-path="url(#Z)"><path fill="none" stroke="#000" stroke-linecap="round" stroke-linejoin="round" stroke-miterlimit="10" stroke-width=".5" d="M144.82031 357.07813l-1.64062 6.83203"/></g><path fill="none" stroke="#000" stroke-linecap="round" stroke-linejoin="round" stroke-miterlimit="10" stroke-width=".5" d="M144.58203 358.07031l1.1875-.3086m11.94531-.7578l-.79687 6.98046m.67969-5.96484l1.14062-.44922m12.54688-.52734l-1.3125 6.90234m1.3125-6.90234l2.34375-.72656m11.54687.88671l-2.46094 6.58204m2.10157-5.625L186.03516 358m9.70312-.67188l3.04688 6.33204m-2.60547-5.41016l.72656-.99219m13.65234-.27734l.03125 7.02734m-.03125-7.02734l2.16016-1.16406m11.29297 1.16406l-.24219 7.02344m.24219-7.02344l2.20312-1.07422m-2.23828 2.09766l1.10156-.53907m12.20313-.48437l-.15234 7.02734m.15234-7.02734l2.1914-1.10547m8.34766 6.86719l5.40235-4.4961m-5.40235 4.4961l-2.27344-.92969m17.39454 2.07813l1.78906-6.79688m-1.53125 5.8086l-1.1914.28124m16.49609.55079l-2.70703-6.48438m2.70703 6.48438l-1.5547 1.89843m16.2422-2.92187l-5.44922-4.4375m5.44922 4.4375l-.47657 2.41015m13.57422-2.16796l-5.01562-4.92188m4.28515 4.20703l-.34765 1.17578m15.0586-4.42578L313.92187 362m5.42578-2.57422l.98437.73047m13.13672-1.39453l-6.11328 3.46484m5.22266-2.96094l1.03515.65625m13.46485-.48046l-6.70313 2.10546m5.72656-1.80078l.875.85938m13.3164-1.4375l-6.5039 2.65234m18.53907-4.23437l-3.94532 5.8125m3.3711-4.96485l1.22265.12891M386.14844 358l-4.95313 4.98438M386.14844 358l2.34765.71094m10.62891-1.0039l-4.27734 5.57421m4.27734-5.57422l2.41797.40235m9.44922-1.0625l-1.3789 6.89062m1.3789-6.89063l2.34765-.70312m10.79688.67578l-1.04297 6.94922m1.04297-6.94922l2.3164-.8164m-2.46484 1.82812l1.15625-.41016m11.98047-.63671L436.73828 364m.38672-7.01563l2.22656-1.03125m9.4961 1.31641l2.80078 6.44531m-2.80078-6.4453l1.52734-1.91798m12.29297 1.74219l1.78906 6.79688m-1.78906-6.79688l1.80078-1.66406"/><g clip-path="url(#aa)"><path fill="none" stroke="#000" stroke-linecap="round" stroke-linejoin="round" stroke-miterlimit="10" stroke-width=".5" d="M142.15625 344.1875l3.6875 5.98047"/></g><path fill="none" stroke="#000" stroke-linecap="round" stroke-linejoin="round" stroke-miterlimit="10" stroke-width=".5" d="M155.25 344.33594l4.1289 5.6875m-4.1289-5.6875l1.07813-2.20703m12.25 2.1953l4.10546 5.70704m-4.10547-5.70703l1.08594-2.19922m-.48828 3.03125l.54297-1.10156m11.92578.46875l4.60156 5.3086m-4.60156-5.3086l.8789-2.28906m-.21093 3.0625l.4414-1.14454m12.16798.40235l4.67578 5.2461m-4.67578-5.2461l.84765-2.30078m-.16797 3.0664l.42578-1.15234m13.23438-.2461l2.6289 6.51563m-2.6289-6.51563l1.57812-1.8828m11.53516 1.96874l3.03125 6.33985m-3.03125-6.33985l1.46094-1.97265m11.28906 2.3125l4.16016 5.66015m-4.16016-5.66015l1.0664-2.21094m15.55079 1.7461l-2.4414 6.58984m2.08593-5.62891l1.21484-.16406m13.48828-.19531l-4.5078 5.38671m3.85155-4.60546l1.19922.2539m13.98828 1.09766l-6.9375 1.1211m5.92578-.95704l.7422.97656m13.11327 1.2539l-5.99609-3.66796m5.9961 3.66797l-.14844 2.44922m13.58984-2.67969l-6.25-3.20703m5.33984 2.74219l.01954 1.22656m13.9375-.32422l-5.71485-4.08203m4.88281 3.48828l-.16015 1.21875m8.60547-4.73047l5.6875 4.1289m13.5625-3.73437l-6.1836 3.33985m5.28516-2.85547l1.01953.67969m13.19922-1.15235l-6.1914 3.32031m6.1914-3.3203l2.03906 1.36327m9.72656-2.85937l-3.09375 6.3086m2.64454-5.39063l1.22656-.04297m12.17969-1.02735l-2.375 6.61329m2.02734-5.65235l1.21484-.17578m10.98047-.98047l.5586 7.0039m-.47657-5.98437l1.03125-.66015m13.3125-.26954l-1.66406 6.82422m1.42188-5.83203l1.1914-.30469m13.5625-.14453l-4.0586 5.73829m4.0586-5.73829l2.4375.3125m9.13672-.9453l-.57422 7.0039m.57422-7.0039l2.25-.97267m10.58984.96485l.375 7.01953m-.375-7.01953l2.10157-1.26563m10.5 1.37891l1.80468 6.79297m-1.54296-5.80469l.89843-.83203"/><g clip-path="url(#ab)"><path fill="none" stroke="#000" stroke-linecap="round" stroke-linejoin="round" stroke-miterlimit="10" stroke-width=".5" d="M141.15625 331.79688l5.6875 4.1289"/></g><path fill="none" stroke="#000" stroke-linecap="round" stroke-linejoin="round" stroke-miterlimit="10" stroke-width=".5" d="M154.52344 331.73047l5.58594 4.26172m-5.58594-4.26172l.39453-2.41797m.41797 3.03906l.39844-2.42187m12.0664 1.84765l5.65625 4.17188m-5.65625-4.17188l.35938-2.42578m.46484 3.03516l.35547-2.42969m.46875 3.03516l.17578-1.21485m11.39844.13282l5.84375 3.90625m-5.84375-3.90625l.2461-2.44141m.60546 3.01172l.2461-2.4414m12.1875 1.92187l5.90624 3.80469m-5.90625-3.8047l.20313-2.4453m.65625 2.99609l.20312-2.44531m12.00782 2.33593l6.39062 2.92188m-6.39062-2.92188l-.14844-2.44921m1.07812 2.875l-.07422-1.22657m12.21094 1.5664l6.89063 1.39063m-6.89063-1.39062l-.69922-2.35156m14 2.4375l6.91797 1.21875m-6.91797-1.21875l-.76172-2.33204m14.14063 2.04297l6.79297 1.79688m-6.79297-1.79688l-.5586-2.39062m13.78126 2.8789l6.97656.81641m-5.96094-.69531l-.44922-1.14453m19.33594-.22266l-6.19922 3.3125m18.20703 1.36719l-3.58203-6.04688m3.0586 5.16797l-.63672 1.04688m13.98047.07422l-2.59375-6.53125m2.21484 5.58203l-.79297.9336m12.07813.08202l2.22265-6.66406m-1.89844 5.69531l-1.21093.20313m11.93359-3.52344l6.76172 1.91406m7.07812 1.08985l5.71094-4.09375m13.91406 2.67578l-6.91015-1.25781m18.3086 3.78906l-3.07423-6.32031m2.625 5.39843l-.72265.99219m16.29687-2.16406l-6.69531-2.13281m5.71875 1.82421l.22265 1.20704m10.81641-5.47657l-.1914 7.02344m.16406-6.0039l1.09765-.54298m12.3125-.47656l-.32421 7.01953m.27734-5.99609l1.10547-.52734m10.72265-.21875l2.7422 6.46875m-2.34376-5.52735l.77344-.95312m12.26562-.03906l2.4961 6.5703m-2.4961-6.5703l1.61329-1.84766m12.64843 1.63281l.60156 7m-.60156-7l2.0625-1.33203m12.82031 1.55469l-2.53125 6.55469m2.53125-6.5547l2.4336-.29687"/><g clip-path="url(#ac)"><path fill="none" stroke="#000" stroke-linecap="round" stroke-linejoin="round" stroke-miterlimit="10" stroke-width=".5" d="M140.9414 318.82031l6.1172 3.45703"/></g><path fill="none" stroke="#000" stroke-linecap="round" stroke-linejoin="round" stroke-miterlimit="10" stroke-width=".5" d="M154.1836 318.95313l6.26171 3.1875m-6.26172-3.1875l-.04297-2.45313m.95313 2.91797l-.01953-1.22656m12.4414.73437l6.23047 3.2461m-6.23047-3.2461l-.02343-2.45312m.92969 2.92578l-.01172-1.22656m12.43359.73046l6.20313 3.29297m-6.20313-3.29297l-.0039-2.45703m.90624 2.9336l-.0039-1.22657m12.16015 1.35547l6.71485 2.07813m-6.71485-2.07813l-.45703-2.41015m13.71875 4.29296l6.82031-1.6875m-6.8203 1.6875l-1.63673-1.82812m15 2.00781l6.72266-2.04687m-6.72266 2.04687l-1.73047-1.73437m2.71094 1.4375l-.86719-.86719m13.09375.69531l6.94141-1.10937m-6.9414 1.10937l-1.47657-1.95703m14.76172 1.67578l7.0039-.54687m-7.0039.54687l-1.32031-2.07031m14.78125 2.83594l6.71094-2.07813m-6.71094 2.07813l-1.74219-1.72656m15.04688 1.69921l6.73046-2.01953m-5.75 1.72656l-.86328-.875m13.60547 2.0547l5.91406-3.79298m-5.05468 3.23829l-1.0664-.59766m14.77343 2.32812l3.41406-6.14453m-3.41406 6.14453l-2.45313-.04687m16.00391.16406l2.9414-6.3789m-2.9414 6.3789l-2.45313.13672m17.6172.16797l-.75391-6.98828m.7539 6.98828l-2.03125 1.375m17.27735-2.22266l-4.6172-5.29687m3.94532 4.52734l-.4375 1.14453m15.48047-4.03125l-6.73047 2.01563m18.29297-4.1289l-3.22266 6.24608m18.4297-2.90234l-7.01173-.44531m5.99219.38281l.50781 1.11719m12.92188-3.63672l-5.19922 4.72266m4.44531-4.03516l1.15234.41406m11.88672-1.88281l-3.14062 6.28516m3.14062-6.28516l2.45313-.0625m9.82422-.26953l-1.0625 6.94531m1.0625-6.94531l2.3164-.8125m8.66016 1.27344l3.61328 6.02734m-3.08984-5.15234l.63281-1.05079m16.2461.51563l-4.5625 5.34375m3.89843-4.5664l1.19922.26952m12.69922-1.11328l-4.39844 5.48047"/><g clip-path="url(#ad)"><path fill="none" stroke="#000" stroke-linecap="round" stroke-linejoin="round" stroke-miterlimit="10" stroke-width=".5" d="M465.76172 317.8086l2.41015.45702"/></g><path fill="none" stroke="#000" stroke-linecap="round" stroke-linejoin="round" stroke-miterlimit="10" stroke-width=".5" d="M465.1211 318.60547l1.20702.23047"/><path fill="#00f" fill-rule="evenodd" d="M388.23828 472.08594h8.61719V461.9414h-8.61719v10.14453"/><path fill="azure" fill-rule="evenodd" d="M390.07031 463.77344h.83594v2.82422h3.28516v-2.82422h.83203v6.48047h-.83203v-2.91797h-3.28516v2.91797h-.83594v-6.48047"/><path fill="#00f" fill-rule="evenodd" d="M383.80078 436.57813h8.61719v-10.14454h-8.61719v10.14454"/><path fill="azure" fill-rule="evenodd" d="M385.63281 428.26563h.83203v2.82421h3.28907v-2.82421h.83203v6.48046h-.83203v-2.91406h-3.28907v2.91406h-.83203v-6.48046"/><path fill="#00f" fill-rule="evenodd" d="M219.58203 414.38672h8.61719v-10.14453h-8.61719v10.14453"/><path fill="azure" fill-rule="evenodd" d="M221.41406 406.07422h.83203v2.82422h3.28907v-2.82422h.83203v6.48047h-.83203v-2.91406h-3.28907v2.91406h-.83203v-6.48047"/><path fill="#00f" fill-rule="evenodd" d="M370.48438 401.07422h8.62109v-10.14844h-8.6211v10.14844"/><path fill="azure" fill-rule="evenodd" d="M372.3164 392.76172h.83594v2.82031h3.28516v-2.82031h.83203v6.47656h-.83203v-2.91406h-3.28516v2.91406h-.83593v-6.47656"/><path fill="#ff3030" fill-rule="evenodd" d="M335.67188 396.63281h7.6953v-10.14453h-7.6953v10.14453"/><path fill="azure" fill-rule="evenodd" d="M337.5039 388.32031h.83594v5.74219h3.19141v.73828h-4.02734v-6.48047"/><path fill="#ff3030" fill-rule="evenodd" d="M255.78125 370.0039h7.69531v-10.14452h-7.69531v10.14453"/><path fill="azure" fill-rule="evenodd" d="M257.61719 361.6914h.83203v5.73829h3.1914v.74219h-4.02343v-6.48047"/><path fill="#ffffe0" fill-rule="evenodd" d="M434.55078 459.0039h22.17969v-10.1914h-22.17969v10.1914"/><path fill-rule="evenodd" d="M438.05078 450.64453h.50781v6.29297h-.78515v-4.48828h-1.39063v-.55469l.5625-.0664.25-.0547.23047-.08984.20313-.14062.17578-.21094.14062-.29297.10547-.39453m4.8125 0l.23047.01953.21875.05469.20703.08984.19922.1211.1836.14844.17187.17578.30078.41796.24219.4961.17969.54687.11328.57813.03906.58984-.03906.59375-.11329.58594-.17968.55078-.24219.5039-.30078.4297-.17188.17968-.18359.15235-.19922.12109-.20703.09375-.21875.0586-.23047.01952-.22656-.01953-.21875-.05859-.21094-.09375-.19531-.1211-.1836-.15234-.17187-.17969-.30078-.42968-.2461-.5039-.17968-.55079-.10938-.58594-.03906-.59375h.83203l.03125.5625.08203.50781.125.44141.16406.375.1875.30078.21094.22266.22266.13672.22656.04687.22656-.04687.22266-.13672.21094-.22266.1914-.30078.16407-.375.125-.4414.08203-.50782.02734-.5625-.02734-.5586-.08203-.5039-.125-.4336-.16407-.36718-.1914-.28906-.21094-.21485-.22266-.1328-.22656-.04298-.22656.04297-.22266.13281-.21094.21485-.1875.28906-.16406.36719-.125.4336-.08203.5039-.03125.5586h-.83203l.03906-.58985.10938-.57813.17969-.54687.24609-.4961.30078-.41796.17188-.17579.18359-.14843.19531-.1211.21094-.08984.21875-.05469.22656-.01953m4.95313 0l.23046.01953.21875.05469.20704.08984.1953.1211.1875.14844.16798.17578.30469.41796.24218.4961.17969.54687.11328.57813.03516.58984-.03516.59375-.11328.58594-.17969.55078-.24219.5039-.30468.4297-.16797.17968-.1875.15235-.19531.12109-.20704.09375-.21875.0586-.23046.01952-.23047-.01953-.21875-.05859-.20703-.09375-.19532-.1211-.18359-.15234-.17188-.17969-.30078-.42968-.24609-.5039-.17969-.55079-.10937-.58594-.03906-.59375h.83203l.03125.5625.08203.50781.125.44141.16015.375.19141.30078.21094.22266.22265.13672.22657.04687.22656-.04687.22265-.13672.21094-.22266.1914-.30078.16017-.375.1289-.4414.08203-.50782.02735-.5625-.02735-.5586-.08203-.5039-.1289-.4336-.16016-.36718-.1914-.28906-.21094-.21485-.22266-.1328-.22656-.04298-.22657.04297-.22265.13281-.21094.21485-.1914.28906-.16016.36719-.125.4336-.08203.5039-.03125.5586h-.83204l.03907-.58985.10937-.57813.17969-.54687.2461-.4961.30077-.41796.17188-.17579.1836-.14843.1953-.1211.20704-.08984.21875-.05469.23047-.01953m4.95312 0l.38672.02735.35938.08203.32421.13671.27735.1875.23047.23829.17187.28515.10938.33203.03906.375-.01953.27735-.0586.23437-.08984.19922-.10938.17188-.1289.14062-.14063.125-.28515.19531.23047.1172.20703.14843.1836.17187.15233.19141.125.21484.08985.23047.05469.24219.01953.25781-.03516.3086-.10156.32812-.17188.32422-.24218.30469-.3047.26953-.375.21484-.21093.08203-.22656.0586-.2461.03906-.26171.01563-.25782-.01563-.24218-.03906-.22266-.0586-.20703-.08203-.35938-.21484-.28906-.26953-.22265-.30469-.15625-.32422-.09375-.32812-.03125-.3086h.83203l.02734.2539.07813.23438.12109.21094.16406.1836.1914.15234.21876.11719.24219.0703.2539.02735.2539-.02734.2422-.07031.21875-.1172.1953-.15233.16016-.1836.1211-.21094.07812-.23437.02735-.2539-.02735-.25391-.07812-.23438-.1211-.21094-.16015-.1875-.19531-.15234-.21875-.11328-.2422-.07422-.2539-.02344-.2539.02344-.2422.07422-.21874.11328-.1914.15234-.16407.1875-.1211.21094-.07812.23438-.02734.2539h-.83204l.01954-.2539.05468-.23829.08985-.22656.125-.20703.15234-.1914.1836-.17188.20703-.15234.23437-.13282-.28906-.1953-.14063-.125-.1289-.14063-.10938-.17188-.08984-.19922-.05469-.23437-.02344-.27735h.78907l.02343.21485.0625.1914.10547.16797.13672.14063.16406.10937.19141.08203.20703.05079.21875.01562.21875-.01563.20703-.05078.1914-.08203.16407-.10937.13672-.14063.10547-.16797.0664-.1914.01954-.21485-.01954-.21484-.0664-.1875-.10547-.16797-.13672-.14062-.16406-.10938-.1914-.08203-.20704-.05078-.21875-.01563-.21875.01563-.20703.05078-.1914.08203-.16407.10938-.13672.14062-.10547.16797-.0625.1875-.02343.21484h-.78907l.03907-.375.10937-.33203.17188-.28515.23046-.23829.28125-.1875.32032-.13671.35937-.08204.38672-.02734"/><path fill="#ffffe0" fill-rule="evenodd" d="M177.52344 394.66797h22.1836v-10.1914h-22.1836v10.1914"/><path fill-rule="evenodd" d="M181.02344 386.3086h.51172v6.29687h-.78907v-4.49219h-1.38672v-.55469l.5586-.0625.25-.05468.23047-.08985.20312-.14062.17578-.21094.14063-.29297.10547-.39844m4.8125 0l.23047.01954.21875.05468.20703.08985.19922.12109.18359.15234.17188.17579.30078.41796.24218.4922.1797.54687.11327.57812.03906.59375-.03906.59375-.11328.58203-.17969.55469-.24218.5-.30078.42969-.17188.17969-.1836.15234-.19921.125-.20703.08984-.21875.0586-.23047.01953-.22656-.01953-.21875-.0586-.21094-.08984-.19531-.125-.1836-.15235-.17187-.17968-.30078-.42969-.2422-.5-.17968-.55469-.11328-.58203-.03906-.59375h.83593l.02735.5625.08203.5039.125.44532.16406.375.1914.30078.21095.21875.22265.13672.22266.04688.22656-.04688.22266-.13672.21093-.21875.19141-.30078.16406-.375.125-.44531.08203-.5039.02735-.5625-.02735-.5625-.08203-.5-.125-.4336-.16406-.36719-.1914-.29297-.21094-.21484-.22266-.1289-.22656-.04688-.22266.04687-.22266.1289-.21093.21485-.1914.29297-.16407.36719-.125.4336-.08203.5-.02735.5625h-.83593l.03906-.59376.11328-.57812.17969-.54688.24219-.49219.30078-.41796.17187-.17579.1836-.15234.1953-.1211.21095-.08984.21875-.05469.22656-.01953m5.09375 0h.50781v6.29688h-.78516v-4.49219h-1.39062v-.55469l.5625-.0625.25-.05468.23047-.08985.20312-.14062.17578-.21094.14063-.29297.10547-.39844m2.82422 2.17579h.78515l.01953-.31641.0586-.28516.10156-.2539.14063-.21485.17968-.17187.22266-.1289.26562-.08204.3086-.02734.23828.02343.22266.0625.20312.10157.17969.13671.14844.17188.11328.20703.07422.23438.02343.26562-.02344.26953-.0625.22266-.11328.19531-.15234.16797-.20313.16406-.24609.16406-.63281.39063-.53906.3125-.4375.3164-.34766.32423-.26172.33593-.1914.35156-.125.3711-.06641.39062-.02344.42188h4.21094v-.74219h-3.33203l.08594-.28515.11328-.23438.14843-.20313.1875-.17968.23047-.17188.27735-.17578.71875-.41406.41406-.20703.34375-.23047.28125-.25.21875-.26953.16406-.27735.11328-.28515.0625-.28516.01953-.28125-.03906-.38281-.1211-.34766-.1914-.3086-.25-.26171-.30078-.21094-.34766-.16015-.3789-.09766-.40625-.03516-.4336.03516-.39843.09766-.35547.16796-.30469.23438-.25.30078-.1836.375-.11718.44531-.03906.51954"/></g></defs><use xlink:href="#ae"/></svg>