<svg xmlns="http://www.w3.org/2000/svg" role="img" xmlns:xlink="http://www.w3.org/1999/xlink" viewBox="142.45 309.95 326.84 171.84"><defs><clipPath id="a"><path d="M144 441h1v39.32813h-1zm0 0"/></clipPath><clipPath id="b"><path d="M144 311.67188h1V438h-1zm0 0"/></clipPath><clipPath id="c"><path d="M144 311.67188h324v168.65625H144zm0 0"/></clipPath><clipPath id="d"><path d="M379 453h22v27.32813h-22zm0 0"/></clipPath><clipPath id="e"><path d="M467 311.67188h1v168.65625h-1zm0 0"/></clipPath><clipPath id="f"><path d="M144 478h4v2.32813h-4zm0 0"/></clipPath><clipPath id="g"><path d="M153 479h8v1.32813h-8zm0 0"/></clipPath><clipPath id="h"><path d="M160 480h2v.32813h-2zm0 0"/></clipPath><clipPath id="i"><path d="M166 479h9v1.32813h-9zm0 0"/></clipPath><clipPath id="j"><path d="M173 480h3v.32813h-3zm0 0"/></clipPath><clipPath id="k"><path d="M180 479h8v1.32813h-8zm0 0"/></clipPath><clipPath id="l"><path d="M187 480h2v.32813h-2zm0 0"/></clipPath><clipPath id="m"><path d="M193 479h9v1.32813h-9zm0 0"/></clipPath><clipPath id="n"><path d="M200 480h2v.32813h-2zm0 0"/></clipPath><clipPath id="o"><path d="M206 479h9v1.32813h-9zm0 0"/></clipPath><clipPath id="p"><path d="M213 480h3v.32813h-3zm0 0"/></clipPath><clipPath id="q"><path d="M220 478h8v2.32813h-8zm0 0"/></clipPath><clipPath id="r"><path d="M233 478h8v2.32813h-8zm0 0"/></clipPath><clipPath id="s"><path d="M246 479h9v1.32813h-9zm0 0"/></clipPath><clipPath id="t"><path d="M260 477h7v3.32813h-7zm0 0"/></clipPath><clipPath id="u"><path d="M275 476h4v4.32813h-4zm0 0"/></clipPath><clipPath id="v"><path d="M289 476h3v4.32813h-3zm0 0"/></clipPath><clipPath id="w"><path d="M301 477h6v3.32813h-6zm0 0"/></clipPath><clipPath id="x"><path d="M314 477h6v3.32813h-6zm0 0"/></clipPath><clipPath id="y"><path d="M327 477h7v3.32813h-7zm0 0"/></clipPath><clipPath id="z"><path d="M340 478h8v2.32813h-8zm0 0"/></clipPath><clipPath id="A"><path d="M340 480h2v.32813h-2zm0 0"/></clipPath><clipPath id="B"><path d="M353 479h8v1.32813h-8zm0 0"/></clipPath><clipPath id="C"><path d="M353 479h2v1.32813h-2zm0 0"/></clipPath><clipPath id="D"><path d="M366 479h8v1.32813h-8zm0 0"/></clipPath><clipPath id="E"><path d="M365 479h3v1.32813h-3zm0 0"/></clipPath><clipPath id="F"><path d="M380 478h8v2.32813h-8zm0 0"/></clipPath><clipPath id="G"><path d="M380 480h2v.32813h-2zm0 0"/></clipPath><clipPath id="H"><path d="M393 478h8v2.32813h-8zm0 0"/></clipPath><clipPath id="I"><path d="M391 479h3v1.32813h-3zm0 0"/></clipPath><clipPath id="J"><path d="M407 478h7v2.32813h-7zm0 0"/></clipPath><clipPath id="K"><path d="M406 480h3v.32813h-3zm0 0"/></clipPath><clipPath id="L"><path d="M420 477h7v3.32813h-7zm0 0"/></clipPath><clipPath id="M"><path d="M435 476h4v4.32813h-4zm0 0"/></clipPath><clipPath id="N"><path d="M446 478h8v2.32813h-8zm0 0"/></clipPath><clipPath id="O"><path d="M452 479h2v1.32813h-2zm0 0"/></clipPath><clipPath id="P"><path d="M463 476h1v4.32813h-1zm0 0"/></clipPath><clipPath id="Q"><path d="M144 465h4v4h-4zm0 0"/></clipPath><clipPath id="R"><path d="M144 452h4v3h-4zm0 0"/></clipPath><clipPath id="S"><path d="M144 438h4v5h-4zm0 0"/></clipPath><clipPath id="T"><path d="M144 425h4v4h-4zm0 0"/></clipPath><clipPath id="U"><path d="M144 413h4v2h-4zm0 0"/></clipPath><clipPath id="V"><path d="M144 398h4v5h-4zm0 0"/></clipPath><clipPath id="W"><path d="M144 385h4v4h-4zm0 0"/></clipPath><clipPath id="X"><path d="M144 372h4v4h-4zm0 0"/></clipPath><clipPath id="Y"><path d="M144 357h2v7h-2zm0 0"/></clipPath><clipPath id="Z"><path d="M144 343h3v8h-3zm0 0"/></clipPath><clipPath id="aa"><path d="M144 331h4v5h-4zm0 0"/></clipPath><clipPath id="ab"><path d="M144 318h4v5h-4zm0 0"/></clipPath><clipPath id="ac"><path d="M465 317h3v3h-3zm0 0"/></clipPath><g id="ad" clip-path="url(#clip1)"><path fill="#fff" fill-opacity="0" fill-rule="evenodd" d="M0 0h1000v1000H0zm0 0"/><path fill="#d3d3d3" fill-opacity="0" fill-rule="evenodd" d="M162.15234 355.86719l-.23437.29297.0586.23437.11718.17188.17578.23437.29297.34766.11328.0586.11719-.17188.0586-.23438.17577-.17578.46485-.17578h.69922l.23437.29297.28906.8164.0586.17579.17578.23046.35156.23438.69922.69922.17188.17578.23437.34765.23438.41016.28906.58203.41015.46485.23047.23437.23438.17578.11719.23047.17578.29297.17187 1.16406v.23438l.0586.28906.05859.11719.11719.11719.34765.41015.11719.17188.17578.17578.17578.23437.11719.17188.17188.35156.05859.23438.23437.40625.23438-.0586-.17578.17578-.0586.92969h-.58203l-.23437-.11328-.34766.11328-.11719.11719-.05859.29297-.0586.17578-.11718.17187-.46484.29297-.0586.23438-.0586.11328v.64453l.0586.17187v.41016l.0586.0586v.40624l.05859.40625.11719.17579.05859.05859.23047.64062-.0586.29297v.69922l-.05859.58203v.23438l-.0586.23047-.05468.35156v1.92187l.05469.1172h.42578l-.36719.11718-.02344.35156.89063 1.16797 1.74219.53906 1.33984.35938v.53906l.08984.8086.53516.71484 1.51953.26953.89063-.08594.08984 1.16406.53516.1797 1.16015-.1797 2.05469-.98437 1.16016-.36328 1.8789-.17578 1.69531-.1797-.17968.71876-1.51563.08594-1.25.08984-.80469.26953-1.07421.8086.26953.71875.53515.89843-.17968.625-.26563.8086.26563 1.07812.625.89844.80468.17969 1.25-.1797-.26562.72267.09766.5039.05468.29297v.17188l.0586.29296v.40625l.17578.1172.35156.11718h.40625l.29297-.17578.11328-.11719.0586-.11719.11718-.23047.0586-.17578.35156-.46484.23047-.17578.17578-.0586.17578.0586.0586.17578.11718.98828.05469.46875.0586.17188.11718.23437.17578.0586.8164.05859h.28907l.11719.23437.05859.40625.0586.35156v1.10547l.11718.29297.11719.34766.28906.69922.17578.35156.58203.7539.35157.17579.17187.0586.46875.23437.64063.46484.34765.23438.29297.17578.29297.05468.23047.0625.8164.34766.29297.17578.11328.17188.35157.35156.11719.17578.52343.64063v.28906l.0586.35156v.34766l.05859.35156.0586.28906.11718.0586.17188.05859h.17578l.58203.23437.17578.1172.17578.28905.17578.23438.11328.23437.29297.23047.11719.11719v.41016l.0586.05468.28906.23438.23437.11719.0586.11718.11718.17188.0586.11719.23047.23437.05859.17578.23437.0586.1172.05859-.1172.11328-.05859.11719v.11719l-.11719.29296-.11719.28907v.58203l.17579.11719.11718.05859.0586.11719.11719.11719.11328.05859.17578.34765.0586.35157.05858.40625v.17578l-.05859.17578-.11719.69922v.17187l.1172.17579.29296.29296h.40625l.17578.1172.11719.17187.11719.29296v.23438h-.52735l-.23047-.23438h-.23437l-.17578.0586-.0586.69922.0586.34765.11719.17579.17578.41015.11718.23047.28907.46875.17578.05469h.52344l.23437.0586.75781.64062.0586.29296v.23438l.05859.0586.23047.34765v.35156l-.11719.17188v.29297l.29297.28906.29297.17578.17187.0586.29297.17577.29297.1172.58203.40624.28906.23438.29297.17578.21875.16015.01563.01172.23047.17579.64062.52343.17578.23438.1172.17578.17577.17578.11328.17188v.64062l.1172.17578.46874.11719.58203.11719.23438.05859.23047.11328.29297.11719.11328.0586.58593.35156.28907.17187.17578.0625.17578.05469.17578.0586.69922.35155.28906.17579.23438.05468.28906.17578.23437.1172.64063.40624.29297.11719.17187.0586.23438.05859.41015.05859.23047.0586.23438.11718.0586.17188-.41017.17578.46875.0586.0586.29296.11328.23438.17578.05468.23438.0586.17578.05859.40625.11719.64062.23437.11719.17188.0586.23437v.17578l-.0586.1172-.0586.40624.23438.23438.11719.05859.34766.11719.64062.23047.17578.11718.28906.1172.17578.17577.23438.46485.58203 1.10546.17578.17579.34766.17578.17578.11719.35156.11718 1.04688.52344.23437.0586.46485.11327.29297.0586.46484.17578.75781.58203.23438.23438.34765.46484.17578.17578.28907.23438.8164.69921.29297.17579.28906.28906.29297.17578.29297.28906.69531.64063.17578.17578.29297.23437.28907.23438.46875.28906.64062.58203.34766.23438.23437.29297.34766.34765.35156.46485.9336.99218.34765.40625.11719.17579.23437.05859.11328.11719.64454.17578.23047.11328.23437.0586.29297.17577.23047.1172.9336.69921.40624.40625.23438.17578.40625.17578.23437.11719.8164.34766.34766.23437.23438.11719.29297.28906.23047.11719.7578.35156.35157.17188.23047.05859.29297.11719.23437.0586.8711.17577h.8164l.46875.23047.17188.0586.875.69921.46484.1172.29297.05858.17578.0586.23047.0586.46875.05859.34766.05859.35156.0586.40625.05859h.29297l.17187.0586v.23046l.17578.17578h.29297l.34766.0586.35156.05859.69922.11719h.64063l.46484-.23438.29297-.17578.17187-.11719.41016-.17187.28906-.17578.9336-.46485.46875-.29297.52343-.29296.46485-.17188.46484-.17578 1.05078-.46485.28906-.11718.41016-.11719.28906-.11719.52735-.17578 1.51562-.69922.58203-.34765.28907-.0586.29297-.0586.34765-.11718.875-.23047.35156-.11719h.11329l.23437-.05859.875-.23437.23438-.0586h.8125l.35156-.0586.8164-.11718.17188-.0586.35156-.05468.29297-.0586.23047-.05859.8164-.17578.17579-.0586h.34765l.23438-.05859.46484-.11718.75781-.17188.23438-.0586h.34765l.41016-.11718.28906-.0586 1.28516-.05859h.28906l.41016-.0586.23047-.05858h.17578l.875-.1172h.40625l.41015-.11718h.34766l.35156-.11328.8711-.0586h1.75l1.04687.28907.41016.11719.28906.11718.35156.11719.28907.11719 1.05078.17187.28906.0586h.29297l.29297.05859.17187.0586.41016.05859.17187.0586.1172.05858h.11718l.11719.0586.35156.0586h.11328l.41016.0664 1.92187.39453 1.92578.39453 1.51953.44922 1.69532.71875 2.14453.80469 1.60547-.71875 1.42968-.80469 1.16016-1.07813 1.25-.44921 3.03516-.71875 1.875-.35938 2.14453-1.34765 2.23437-1.25391 2.5-1.25781 1.69531-.44922 1.78516-.17969 1.16016-.26953.625.53906 1.33984-.26953.71485-.98828.98437-1.34375.44531-.17969.80469-.35937 1.875-.53907 1.78516-.44921 1.25-.26954 1.16015-.08984 1.69922-.08984 1.96094-.26954 1.25-.08984h.53906l.625-.08984h.89063l2.14453-.17969 2.41015-.17969 2.58985-.08984 1.69531.17969 1.60938.08984 1.42968.35938 1.16016.71875 1.875.98828 1.16015 1.52734.26563.71484.6289.08985.35548.89844.53515.53906.53516 1.52734 1.07422.35938h.53515l-.80469.53515.08985 1.70703.71484 2.69532.89063.80468.89453.98829.71484 1.2578 1.78516.53907 1.51953-.17969.35547 1.34375 1.60937-.80469.98047-.53906.26953.26953.31641-.21484.21875-.14453.80078.44922.44922-.35938h.35547l.53515-.26953.53907-.71875.53515-.26953.625-.98828 1.16016.44922.83984.3711 1.39454.61718 1.6953-.17969h1.60548l1.78515.08985.17969-1.70704.53516-1.34375.80468.26954.4922.84765.40233.40625-.08984.53906v.35938l.71485.44922.71093-.26953h1.42969l.35938.98828.4453 1.25781.71485 1.34375 1.25.6289 1.69531.62891.71485-.17969.17969-.53906.98046-.08984.44922.35937.08594 1.25782-.26563.6289-.53515.17969v.53906l.71484.98438.26563.53906.98437.98828.80078 1.07813-.26562.35937-.08985.89844-.625 2.33203-.35546 2.0664-.08985 1.79298-.17969.71875-.08984.53906v1.4375l-.98047 1.88281-.35937 1.70703-.53516.89844-.80469 1.16797-.26562.53906 2.05469 1.2539.08593.35938-.35546.53906-.08985-.17968v.80859l.08985 1.4375-.44532.71484-1.07422.09375-.26562.71485.53515.89844.8047.71875 1.16015.80859 1.33984.26953.44531.35938-.35546.44921-1.78907-.08984-1.25-.44922-.71484-.71875-.625-.08984-.17578 3.58984-.1875 1.3086h89.35937V311.70313h-55.26953v49.08203l.76172.125 3.28906.54296 2.02344 2.83594v2.7539l2.35156.33204 2.34766.33203h4.05078l-1.3789 4.16016-2.02344.70703-2.02344.70312-.54297.34375-2.59375 1.6172-.1875.11718-2.02344-2.07813-.73046-2.74218-2.67188-2.07813-1.375-3.5-.0664-.08203-1.95704-2.67188 2.75-1.41796v-49.08204H294.42187v91.41407l.1172.03125.1328.01172.07422.07421.10547.04688.08985.0586.08593.05859.08985.0586.29687.29687.0586.08984.03125.11719.02734.11719.01563.13671-.03125.1172-.0586.08983-.0586.08594-.04296.10547-.04688.10156-.02734.1211v.14453l.17578.26953.14844.14844.07422.08594.07422.07421.04296.10547.0625.08985.0586.08593.04297.10547.0586.08985.04687.10156.04296.10547.0586.08594.11719.17968.07421.07422.0625.08594.0586.08984.04297.10547.0586.08985.05858.08593.0625.08985.0586.08984.04297.10156.11719.17969.07421.07422.0586.08594.07422.07421.08984.0586.10547.04687h.14844l.1328-.01562.13282.01562.10156-.04687.07422-.07422.04688-.10156-.01563-.13281v-.14844l-.04687-.10547-.02735-.11719-.04687-.10156-.02735-.1211-.04296-.10156-.0625-.08984-.04297-.10156-.04297-.10547-.03125-.11719-.01563-.13281-.01171-.13672.08593-.0586.0586-.08593.12109-.03125.04297.10547.01562.1328v.1172l.0586.10156.0586.08984.08983.0586.14844.14843.0586.08985.04296.10547-.01171.10156.08593.0586.10547.04687.08594.0586.08984.05858.07422.07422-.11719.02735-.10546.04687-.08594.0586-.07422.07421-.0586.08985-.0625.08594-.02734.12109-.04687.10156-.04297.10547-.03125.11719-.01172.13281-.01563.13281v.14844l.02735.11719.04687.10547.04297.10156.0586.08984.07421.07422.08985.0586.07422.07421.08984.0586.0586.08984.04296.10547.04688.10156.11719.03125.1328.01563h.14845l.11718-.03125.10547.04297.04297.10547.04688.10156.02734.1211L299.5 410l.02734.11719.03125.1211.02735.11718.10547.04297.10156.04687.13281-.01562.14844.14844.0625.08593.07422.07422.07031.07422.08984.0625.10547.04297.10156.04297.1172.03125.13671.01562.11719-.03125.07422-.07422.02734-.11718-.01172-.13282-.03125-.12109-.02734-.11719.04297-.10547h.11719l.08984.0625.11719.02735h.14843l.13282.01562h.14843l.13282.01563.1328-.01563h.14845l.1328-.01562.13282-.01172.13672.01172.11719-.02735.13281-.01562.1914-.0586-.05859.17579-.01562.1328-.02735.1211-.01562.13281-.0586.08594-.1328.01563-.10548.04687-.10546.04297-.1172.03125-.11718.02735-.26563.03125h-.14843l-.13281.01562-.07422.07422.05859.08594.14844.14843.11719.1797.07421.0703.08985.0625.08984.0586.08594.0586.08984.05858.10156.04297.10547.0625.10547.04297.08594.0586.10547.04687.10156.04297.17969.11719.0586.08984-.04298.10156-.04687.10547.01562.13281.22266.22266.0586.08985.04296.10156.03125.1211.04297.10155.01563.13282.03125.11718.01171.13672.03125.11719.14844.14844.10156.04297.10547.04296.1172.03125.1328.01563.13672.01563h.11719l.11719-.03125.08984-.0586.04297-.10547.04688-.10156.04296-.10547.03125-.11719.01172-.1328v-.14845l-.01172-.1328-.01562-.13282-.03125-.11719-.04297-.10547-.04688-.10547-.04296-.10156-.04297-.10547-.01563-.13281.01563-.13281.02734-.11719.03125-.11719.02735-.1211.04687-.10155.08984-.0586.08594-.0625.07422-.07422.08984-.05859.22266-.22266.0586-.08593.07421-.07422.11719-.17969.0586-.08594v-.14844l-.07423-.07421-.10156-.04688-.10547-.04297-.10156-.04297-.0586-.08984-.04687-.10547-.02734-.11719.08984-.05859.11719-.03125.10156-.04297.17969-.11719.14844-.14843.01172-.13282-.01172-.10546-.08985-.0586-.1328.01563h-.14845l-.1328.01562-.13282-.01562-.1211-.03125-.08593-.0586-.07422-.07422-.0586-.08984-.0625-.08594-.11718-.17969-.0586-.08593.03125-.1211.08594-.05859.1211-.03125.05859-.08594v-.1211l-.03125-.11718-.0586-.08984-.05859-.08594-.04687-.10547-.02735-.11719-.01562-.1328.0586-.08985.07421-.07422.08984-.0586.1172-.17968.07421-.07422.0586-.08594.14843-.14844.1211-.03125.1328-.01562.13282.01562.07422.07422.04297.10547.01562.13281-.03125.1172-.11719.03124-.1328.01172-.14844.14844-.04297.10547-.04688.10156-.02734.1211-.03125.11718v.14844l.03125.11719.04297.10546.05859.08985.07422.07031.07422.07422.11719.03125.12109.02734.11719-.02734.1328-.01563h.1172l.08984.0586.07422.07422.04687.10546.0586.08594.10156.04688.13281.01562.10547.04297.08594.0586-.01172.10546-.07422.07422-.17969.11719-.05859.08984-.08984.0586-.07032.07422-.07421.07421-.0625.08985-.02735.11719-.01562.1328.01562.13282-.01562.13281v.14844l.01562.13281.02735.1172.03125.12108.07421.07422.08985.0586.08594.0586.08984.05858.11719.03125v.08594l-.10157.04688-.08984.0586-.26563.03124-.11718.02735h-.14844l-.10547.04296-.10156.04688-.0586.08984-.0625.23438-.01171.13281-.03125.1211-.01563.1328v.29298l-.01172.1328.01172.13673.01563.1328.1328.01563.13282.01172.1211.03125.08593.0586.07422.07421.04688.10547.04296.10157.01563.1328v.44532l-.01563.13281v.44532l.03125.26562.02735.11719.01562.13281.03125.11719.08594.21094.03125.26562v.14844l-.03125.11719-.02734.11718-.03125.1211-.02735.11719-.03125.11718-.03125.1211-.01171.1328-.01563.13282.08984.0586.1172-.03125.10155.01562.04688.10547-.03125.26562v.44141l-.04297.10547-.04688.10547-.04296.10156-.04297.10547-.0586.08594-.03125.12109-.04296.11719-.03125.11719-.01563.1328.01563.13282.05859.08984.10547.04688.08594.0586.05859.08593-.01172.13672-.03125.11719-.04297.10156v.44531l-.01562.13281v.14844l-.03125.11719-.04297.10547-.02735.11719-.04687.10546-.04297.10157-.03125.12109-.02734.11719-.03125.13281-.03125.11719-.02735.11719-.04297.10546-.03125.1172-.03125.12108-.01171.13282-.01563.13281v.29688l.02734.11718v.14844l.04688.39844.02734.11719.0586.08984.12109.03125h.14844l.13281-.01563.0586.08985v.11719l-.0586.08984-.08984.0586-.10157.04296-.10546.04688-.08985.05859-.08594.0586-.13671.01562-.1172-.03125-.1328-.01563-.10157.04688-.0625.08594-.01172.13671-.01562.13282-.03125.11719-.02735.11718-.01562.13281-.03125.1211v.29687l.01563.13282.03125.11718v.14844l.01171.13281v.14844l-.02734.11719-.04688.10156-.02734.1211-.03125.11718-.0586.08985-.07421.07421-.10156.04297-.10547.04688-.11719.02734-.1211.03125-.10156-.04687.0586-.08594.10547-.04688.02734-.11718.03125-.11719.02734-.1211.03125-.11718v-.14844l.01563-.13281-.03125-.11719-.04297-.10547-.10547.01563-.07422.07422-.10156.04296-.08984.0625-.07422.07422-.04297.10157-.01563.1328-.03125.1172L304.25 426l-.03125.11719-.02734.11719-.03125.12109-.02735.11719-.03125.11718-.04297.10547-.08984.0586h-.08984l-.1172-.03125-.03124-.08594.01562-.13672-.03125-.11719v-.14844l-.01171-.1328v-.14844l-.0625-.23438-.02735-.1211-.04297-.10156-.04687-.10546-.0586-.08594-.05859-.08985-.04297-.10546-.0625-.08594-.14844-.14844-.0703-.07422-.10548-.04687-.10547-.04297-.10156-.04297-.29687-.29688-.08985-.07421-.08594-.0586-.10546-.04297-.08985-.0625-.08594-.0586-.10546-.04296-.08985-.0586-.08594-.0625-.07421-.0703-.10547-.04688-.08594-.0586-.10547-.04296-.08984-.0625-.10156-.04297-.10547-.04297-.08594-.0586-.10547-.04687-.10547-.04297-.10156-.04687-.08985-.0586-.10156-.04297-.10547-.04296-.08984-.0625-.11719-.02735-.13281-.01562-.13281.01562H299.75l-.13281.01563-.11719-.03125-.08984-.0586-.07422-.07422-.08985-.05859-.10156-.04688h-.14844l-.12109-.02734-.10156-.04297-.07422-.07422-.11719-.17968-.08984-.0586-.10156-.04297-.08985-.0625-.10547-.04296-.08984-.0586-.08594-.0586-.10547-.04687-.0586-.08594-.05858-.08984-.04297-.10547-.04688-.10156-.07422-.07422-.08594-.0586-.07421-.07421-.08985-.0586-.22265-.22265-.04297-.10547-.03125-.26563.10547-.04296h.14453l.10547.04296.07421.07422.08985.0586.08594.0586.10546.04687.08985.05859.14844.14844.0703.07422.14845.14843.0625.08594.07421.07422.08594.0586.07422.07421.08985.0625.08984.0586.08594.05859.26953.17578.10156.04688.10547.04296.10156.04297.04688-.07421.05859-.08594.07422-.07422.07031-.07422.10547.04297.07422.07422.0586.08984.04296.10156.04688.10547.04296.10547.1211.02735.11719-.02735.07421-.08984.04297-.10547.0586-.08985.07422-.07421.10546-.04297.1172-.02735.1328.01172.08985.0586.14844.14843.05859.08985.04297.10547.04687.10156.04297.10547.04297.10156.10547.04688.10547.04296.13281.01563.08594-.0586.0586-.08984.07421-.07422.10547-.04297.11719.02735.10547.04687.10156.04297.10547.04297.10156.04688.17969.11718v.11719l-.01563.13281.01563.13281.01562.13672.0586.08594.10156.04688.1211.02734.11718.03125h.14844l.11719-.03125.05859-.08984.17969-.1172.05859-.08983.07422-.07422.0586-.08594.11718-.17969.17969-.11719.11719.03125.08984.0586.04297.07422-.01563.1328v.1172l.08985.05859h.14843l.13282-.01563.1328-.01171.26563-.03125.10547-.04297.11719-.03125.1211-.02735.07421-.07421.07031-.07422.0625-.08985-.01562-.10547-.04688-.10156-.10156-.04297-.10547-.01562-.11718.02734-.26563.03125h-.14844l-.07421-.07422-.08985-.0586-.11719-.03124-.11718-.02735-.13282-.01562h-.14843l-.13282.01563h-.29687l-.10547-.04688-.14844-.14844-.04297-.10156-.05859-.08984.22266-.22266.08593-.0586.10547-.04296.11719-.03125.13281-.01563.13281.01563.13672.01562.10157.04297.1328-.01172.08985-.0625.10156-.04297.0625-.08984-.04687-.10156-.08984-.0586-.1172-.03125-.10155-.04296-.0586-.08985-.0625-.08984v-.11719l.01563-.13281.10547-.04688.07421-.07031v-.1211l-.08984-.05859-.03125-.11719.08985-.05859.07421-.07422.04297-.10547.0586-.08984.04687-.10156.01563-.13281v-.14844l-.04688-.10547-.04297-.10156-.08984-.0586-.13281-.01562-.10157-.04297-.13671-.01563-.1172-.03125h-.4453l-.13282-.01562-.13281-.01172-.13281-.01563-.11719-.03125h-.14844l-.13281-.01562-.13281-.01172-.26563-.03125-.1211-.04297-.08593-.0586-.07422-.07421v-.14844l.01172-.13281.10547-.04688.10156-.04296.13281-.01563h.15235l.13281-.01562h.29297l.1211.03125.10156.04296.08984.0586.23438.0625.12109-.04688.08984-.05859.10156-.04297.13282-.01562.10547.04296.10156.04688.13281.01172.1211-.02735h.14453l.12109-.03125.11719-.02734.10547-.04687.07421-.07422.08594-.0586.14844-.14843.0586-.08594.04687-.10547.02734-.11719.01563-.10547-.10156-.04296-.08985-.0586-.11719-.03125-.10546-.04297-.08985-.0625-.07422-.08594-.07422-.07421-.10156-.04297-.10547-.04688-.10156-.04297-.0586-.08984-.04687-.10156-.08594-.21094-.0625-.08594-.05859-.08984-.07422-.07422-.08594-.0586h-.26953l-.11719.03126-.08984.05859-.10156.04297-.13281.01562-.10547-.01562-.02735-.11719-.0625-.08984-.11718-.03125-.10157-.04297-.14843-.14844-.03125-.11719-.01563-.10546.07422-.07422.17969-.1172.11719-.02733.11718-.03125.13672.01562.10156.04297.10547.04297.10156.04687.10547.04297.1172.03125.1328.01563.1172.02734.1328.01563.10547-.01563.08985-.0586-.07422-.07421-.10547-.04297-.07422-.07422-.07422-.08984-.14844-.14844-.08593-.0586-.08985-.05859-.07422-.07422-.08984-.0586-.10156-.04687-.1211-.02734-.10156-.04688-.10547-.04296-.11719-.03125-.10156-.04297-.1211-.03125h-.14843l-.11719.03125-.10546.04297-.08594.0625-.17969.11718-.08594.0586-.08984.0586-.10547.04687-.08594.05859-.10547.04297-.10156.04297-.10547.04687-.07422.07422-.05859.08985-.0586.08593-.04687.10547-.0586.08594-.07421.07422-.13281-.01172-.1172-.03125h-.11718l-.07422.07422-.08984.0586-.07422.07421-.08984.0586-.08594.05859-.10547.04687-.10156.04297-.13672.01563-.10156-.04297-.14844-.14844-.10547-.04688h-.08594l-.10547.04688-.10156.04297-.1211.03125-.11718-.03125-.07422-.07422v-.11719l.03125-.1211.07422-.0703.0586-.08985.07421-.07422.11719-.03125.10547-.04296h.29297l.13281-.01563.13672-.01563.10156-.04296.08985-.0586.10156-.04687.08984-.0586.13281-.01171.08985.05859.13281.01172.08984-.0586.08594-.05859.10547-.04297.08984-.0586.08594-.0625.08985-.05859.14843-.14843.0586-.08594.05859-.08985.10547-.04296.13281-.01563.11719.02735.1211.03125.05859-.0586.05859-.08984.03125-.26563.02734-.11719.10547.01172.13281.01563.10157-.04297.08984-.0586.0586-.08984.07421-.07422.0586-.08984.04687-.10156.01172-.13281-.01172-.13282-.04687-.10547-.14844-.14843-.0586-.08985-.05859-.08594-.04297-.10546v-.44532l.01563-.1328v-.14845l.01172-.1328-.0586-.0586-.08984.0586-.10156-.04298-.17969-.11719-.08594-.05859-.0625-.08984-.0586-.08985-.07421-.07421-.08594-.0586-.1211.03125-.10155.01172-.10547.04688-.08594.05859-.10547.04297-.14844.14844-.08984.05859-.08594.0586-.08984.0625-.10547.04296-.13281.01563v-.1211l.10547-.04297.11718-.03125.07422-.0703.04297-.10548v-.14844l-.02734-.11718-.14844-.14844-.13281-.01563h-.14844l-.11719.03125-.10547.04297-.10156.04297-.08984.0625-.11719.02735-.07422-.07422.01172-.13281-.04297-.10157-.04297-.10547-.08984-.05859-.11719.02734-.1211.03125-.11718.03125-.10156.04297-.1211.03125-.10156.04297-.10547.04297-.08984.0586-.10156.01562v-.11719l.01562-.13281-.0586-.08985-.07421.04297-.14844.14844-.0586.08985-.07421.07421-.04688.10547-.04296.10156-.07422.07422-.0586.08985-.07422.07422-.05859.08593-.07422.07422-.08984.0625-.07422.07031-.07422.07422-.10156.01563-.13281.01562-.10547-.04296v-.1211l.14843-.14844.04297-.10156.0586-.08984.04687-.10156.04297-.10547.0586-.08985.03124-.11719.04297-.10156.03125-.1211.02735-.11718.04687-.10547.04297-.10156.04297-.10547.07422-.07031.08984-.0625.08985-.0586.10156-.04296h.29687l.26563-.03125.10547-.04297-.07422-.07422-.11719-.03125-.10547-.04297-.08984-.0586-.10156-.04687-.08985-.0586-.10156-.04296-.10547-.04297-.08984-.0625-.08594-.0586-.10547-.04296-.10156-.04297-.1211-.03125-.11718-.03125-.10157-.04297L297.5 410.25l-.10156-.04297-.08985-.0586-.04296-.10546-.01563-.13281.10156-.04297.13281-.01563.13672.01563.13282-.01563.10156-.04297.0586-.08984.01562-.10547-.08985-.0586-.07421-.07421-.10157-.04297-.08984-.0586-.14844-.14843-.04297-.10547-.01562-.13281v-.29297l-.0586-.08985-.08984-.05859-.07422-.07422-.04297-.10547-.03125-.11718-.0586-.08985-.07421-.07422-.11719-.02734-.07422-.07422-.08984-.0586-.08984-.0625-.08594-.05859-.07422-.07421-.0586-.08594-.04687-.10547-.08594-.0586-.14843-.14843-.19532-.0586-.1328.01563-.10157.04297-.07422.07422-.04688.10156-.04296.10547-.0586.08984-.0586.08594-.29687.29687-.08984.0586h-.08594l-.0625-.08594-.04297-.10547.03125-.11719.0586-.08984.02734-.11719-.01172-.13281-.08984-.0625-.10547.04688-.11719.02734-.11719.03125-.26953.17578-.10156.04688-.11719.02734-.10546.04687-.08985.0586-.10156.04297-.0586-.08594-.04687-.10547.01563-.13281.04687-.10547.07031-.07422.07422-.07031.0586-.08985v-.14843l-.04297-.10547h-.23829l-.10156.04687-.03125.11719-.02734.11719-.03125.1211-.07422.04296-.13281.01563-.07422-.04688-.04297-.10156-.04297-.10547-.04687-.10156-.04297-.10547-.1211.03125-.10156.04297-.13281.01562-.11719.03125-.10547.04297-.08984.0586-.10156.04687-.1211.02734-.13281.01563-.10156-.04297-.0586-.08985-.04687-.10546-.04297-.10157-.04297-.10546v-.1172l.0586-.08984.08593-.05859.17969-.11719.10156-.04687.10547-.04297.10547-.0586.10156-.04296.08985-.0625.10156-.04297.10547-.0586.10156-.04687.08984-.0586.10547-.04296.10156-.04297.08985-.0625.10156-.04297.13672-.01563.11719.03125.10156.04297.1211.03125.10156.04297.10546.04688.10157.04296.10547.04297.10156.04688.10547.04297.10156.04297.10547.04687.08594.0586.10546.04296.1172.03125.10546.04297.10156.04688.08985.0586.10547.04296.10156.04297.10547.04687.11719.02735.10156.04687.1211.02735h.14843l.08594-.0586.01562-.10156.0586-.08984-.02735-.1172-.07422-.07421-.11719-.17969-.07421-.07422-.08985-.07421-.17969-.1172-.08593-.05859-.10547-.04296-.10156-.04688-.26954-.17578-.05859-.08985-.07422-.07421-.0586-.08985-.04296-.10156-.03125-.11719-.01563-.13672v-.5625l-.01171-.1328-.01563-.13282-.03125-.11719-.01562-.13281-.01172-.13281-.03125-.1211-.22266-.22265-.0586-.08594-.01562-.10547.03125-.11719.13281-.01562v-91.41406H172.9922v1.45312l-.0586.23438-.35156 1.05078-.17187.52343-.1172.34766-.17577.41016-.11719.17187-.23438.29297-.23046.0586h-.35157l-.11718.05859-.23047.40625v.29297l.11719.17578.23046.23047.1172.23437.64062.75781.29297.46485.17578.23437.23047.35156.23437.34766.64063.8164.17578.46485.17187.41016.11719.69531.17578.46875.11719 1.39844.0586.46484v.875l.11718 1.04688v4.78125l-.0586.46484-.35156 1.28125-.17578.52344-.11328.41015-.35156.9297L172.93359 336l-.23437.58203-.11719.17578-.17187.34766-.17578.40625-.35157.8164-.0586.29297-.11327.29297-.11719.28906-.0586.17579-.11718.875-.0586.40625-.05859.11718-.0586.17579-.05859.17187-.23047.52734-.11718.17188v.23437l-.11719.23438-.0586.17187-.17577.58594v.28906l-.0586.17579v.29296l-.0586.11329-.05859.52734v.17187l-.05468.23438v2.6211l-.17578.8164-.1172.17578-.17577.23438-.1172.17187-.11327.23438-.58594.93359-.23047.28906-.29297.46485-.17578.23437-.28906.35156-.35156.69922-.11328.23047-.17579.41016-.17578.23046-.40625.52735-.8164.69922-.29297.17187-.28906.23438-.17579.11719-.17578.17578-.52344.40625-.52734.17578-.17187.17578-.23438.05469-.64062.17578h-.75782m12.21094 31.02344l-1.07422.44921.35938.89454 1.25-.71485.44531-.53906-.98047-.08985"/><path fill="#d3d3d3" fill-opacity="0" fill-rule="evenodd" d="M201.50781 416.59766h-.89453l.44922.6289.98047.35938.80469-.08985.4453-.98828-.17577.08985-.71485-.35547-.89453.35547m154.6211 59.0703l-.0586-.52343v-.29297l.11328-.29297.0586-.23046.46875-.46875h.11328l.11719-.11329.11718-.05859h.17579l.23437-.0586h.34766l.23437.0586.11719.0586.23047.17187.0586.17578.11718.58203v.29297l-.11719.17578-.17187.28906-.17579.17579-.52734.52343-.23047.23438-.11719.0586h-.17578l-.11718-.0586-.40625-.29297-.17579-.11719-.11718-.0586-.0586-.11327-.05468-.1172m6.64062-10.95702l-.0586-.17188v-1.10937l.0586-.17188.17578-.0586.17188-.05858h.17578l.23437-.0586.1172.0586.05858.69921-.05859.17188-.11719.17578-.11718.0586-.23438.52343-.11328.0586h-.23438l-.05859-.1172m9.61328-14.39062l-.11719-.17578v-.69922l.29297-.875.1172-.17187.17577-.35156.11328-.23047.1172-.29297.35155-.75781.1172-.23047.17187-.23438h.17578l.11719-.0586h.64062l.11719.0586.23437.23438.17188.11328.35156.29297.11719.11718.11328.17579v.11328l.11719.05859.11718.11719v.69922l-.05859.17578v.23047l-.0586.17578-.34765 1.05078-.11719.23047-.11719.23437-.11718.0586-.23047.23437-.64063.28906h-.875l-.41015-.11718-.64063-.46485"/><path fill="none" stroke="#bebebe" stroke-linecap="round" stroke-linejoin="round" stroke-miterlimit="10" stroke-width=".5" d="M467.95703 311.69531H144.02734v168.625h323.9297v-168.625"/><g clip-path="url(#a)"><path fill="#fff" fill-opacity="0" fill-rule="evenodd" d="M144 475.89063v4.4375h.0039H144v-38.375 33.9375"/></g><g clip-path="url(#b)"><path fill="#fff" fill-opacity="0" fill-rule="evenodd" d="M144 435.94531v2.0039-126.27733h.0039H144V435.9453"/></g><path fill="#50fcfc" fill-rule="evenodd" d="M144 437.94922v4.0039h.0039v-4l-.0039-.0039"/><g clip-path="url(#c)"><path fill="#fff" fill-opacity="0" fill-rule="evenodd" d="M144.0039 480.32813v-38.375l2.5-1.57032-2.5-2.42969V311.67188h8.8711V439.9336l-.74219.44922.74219.2539.90234-.2539-.90234-.44922V311.67188h53.26172v99.23046l-4.10547 2.85157-.33203.48437-4.4375 2.71485-4.4414.10546-2.35157 1.13282-2.08594.9414-4.4375 2.48438-4.2461 1.01172-.1914.04296-4.4414 1.6836-4.4375 2.11719-.91407.59765-3.52343 1.76953-3.75 2.66797-.6875.46485-3.17578 3.97265-.9922 4.4375.16798 4.4375.11718 4.4414.07422 4.4375-.30078 4.4375 1.05078 4.4375 3.0586 2.90235 4.4375-.01953 4.4375 1.19922 2.23437.35938 2.20313 2.32812 1.34375-2.32813 3.09765-.8203 4.4375.1953 4.4375-.26953 4.4375-.8125 4.4414-.97656 2.69532-1.75781 1.74219-.625 4.4375-1.22656 4.4375-.19141 4.4414-.40234 4.4375.21093 4.01172-2.20312.42578-.09375 4.4375-.60938 4.4375-.66796 4.44141-.01954 4.4375-1.1914 1.5-1.85547 2.9375-1.33985 2.85938-3.09765 1.57812-4.40235.04297-.03906-.04297-.10937-.26562-4.32813.26562-.3086 4.4375-.6289 4.4414-3.23047.23438-.26953 4.20313-1.49219 4.4375.51172 4.4375-.15234 4.4414-2.22656 3.41407 3.35937-3.41407 3.69922-1.02343.73828-3.41797 3.66797-4.4375-1.51953-4.4375.14453-4.4375 1.94531-.20703.19922.20703.17969 4.4375 3.4336 4.4375-1.7422 4.4375-1.20312.64062-.66797 3.80078-3.57812.8086-.85938 3.6289-3.32422 4.4375.85157 4.4375-.65235 1.28516-1.3125-1.28516-1.50781-3.79687-2.92969-.64063-1.36328-4.4375-1.41406L277.15234 430l-1.95703-2.92969-2.48437-1.94922-2.5625 1.94922-1.875.66797-3.9336-.66797-.5039-.28906-.5039.28906-3.9336.33594-2.09375-.33594-2.34766-1.75-2.46094 1.75-1.97656.8789-.58594-.8789-3.85156-3.72265-4.4375-.27344-.73828-.44531.21875-4.4375-3.91797-3.46485-4.4414.0625-4.4375-.9961-.89844-.03905-3.53906-.51563-1.15235.51563-3.28516.91406-4.4375.32422-4.19921-1.23828-.2422-.14454-4.4375-2.70703v-99.23046h97.64454v115.97656l-1.29297 3.85937 1.29297 1.21875 1.22656-1.21875-1.22656-3.85937V311.67188h48.82031V431.9414l-4.4375.35156-2.59765 3.65234 2.59765 2.53516 1.09766 1.90234 3.33984 3.375 4.4414.02735 4.4375-2.26954 2.26563-1.1328-2.26562-1.22657-2.88672-3.21094-1.55078-3.16797-4.4414-.83593V311.67187h26.6328v130.41016l-3.14843 2.73828-1.29297 1.29688-2.42969 3.14453 2.42969 3.23437v4.98047l-.39844.66016.39844.23828 2.01562-.23828-2.01562-.66016v-4.98047l2.26953-3.23437 2.17188-2.16406 2.72265 2.16406 1.71485 2.23828 2.86328-2.23828-2.86329-1.64453-2.24218-2.79688-2.19531-2.73828V311.67188h88.76171v168.65625h-67.83984l-2.9961-4.4375-.17577-.22266-3.04688-4.21485-1.39063-1.67578-1.17187-2.76171 1.17188-1 2.96484-3.44141.27734-4.4375-3.24219-3.27344-4.4375-.88672-4.4375 2.15235-3.82421 2.0078.6328 4.4375 3.19142 3.29298 1.02343 1.14844 3.41406 4.3789.25.0586-.25.27734-2.28906 4.16015.58594 4.4375H144.00391"/></g><path fill="#50fcfc" fill-rule="evenodd" d="M146.5039 440.38281l-2.5 1.57031v-4l2.5 2.4297m6.3711.2539l-.74219-.2539.74219-.44923.90234.44922-.90234.2539m4.8789 4.1836l-.16796-4.4375.99219-4.4375 3.17578-3.97265.6875-.46485 3.75-2.66797 3.52343-1.76953.91407-.59765 4.4375-2.1172 4.4414-1.68358.1914-.04297 4.2461-1.01172 4.4375-2.48438 2.08594-.9414 2.35156-1.13282 4.4414-.10546 4.4375-2.71485v4.85156l-4.4375.91407-4.4414 1.15625-2.34765 1.46875-2.08985 1.73437-3.20703 2.70703-1.23047.6875-4.4375 1.2539-4.4414-.13671-4.4375 1.6211-1.71094 1.01171-2.72656 1.02344-4.14844 3.41406-.28906.36328-2.1875 4.07422-.85547 4.4375.22656 4.4414.09375 4.4375.48438 4.4375 2.23828 3.98438 4.4375-.95703 4 1.41016.4375.19922.84765-.19922 2.39453-4.4375 1.19532-.58594 1.25.58594 3.1914 4.02344 1.21485.41406 3.22265.57812 4.4375.0547 1.78906-.63282 2.64844-.78516 4.4414-2.07031 4.4375-1.21094.57423-.3711 3.86328-2.1953 4.4375.1328 4.4414.19923 4.4375-.10938 4.4375-1.17187 2.78125-1.29297 1.65625-.78906 4.4375.0078 4.44141.7422 4.4375-2.28125 4.25-2.1172-4.25-3.32812-.90234-1.11328.90234-.5586 4.4375-1.15624v1.44531l-.875.26953.875.71875 4.33203-.71875-4.33203-.26953v-1.44531l2.72656-2.72266 1.71094-2.00781 4.4375-1.57422 1.11328-.85547 3.32813-1.0586 4.4375-3 4.4375 1.25782 4.4375-.25781 2.08203-1.3789-2.08203-2.53516-4.4375.75-4.4375 1.1875-4.4375-2.5-4.4414.1953-4.4375 2.25392L248 427.0703l-1.91797-1.85156-4.4375.42578-1.5664 1.42578-2.8711 3.22656-1.38281 1.21094-.03906 4.4375 1.42187 1.11719v2.46875l-1.5586.85156 1.5586.67188.50781-.67188-.5078-.85156v-2.46875l1.98827 3.32031-1.98828 2.60938-4.4414-1.42188-1.17579-1.1875-2.33593-4.4375-.92578-.83984-1.96094-3.59766-2.47656-2.5625-4.4375.21485-2.71875-2.08985-1.71875-2.39062-2.69532-2.05078-1.7461-1.75782-4.4375-.88671-4.4375-.89454v-4.85156l.33204-.48437 4.10547-2.85157v6.36329l-1.26563.92578 1.26563.36718 2.1836-.36718-2.1836-.92579v-6.36328l4.4375 2.70704.24219.14453 4.19922 1.23828 4.4375-.32422v6.8164l-2.41407 1.14454 1.67188 4.4414.74219.57031 4.42187-.5703-1.86719-4.44141-2.55469-1.14454v-6.8164l3.28516-.91406 1.15234-.51563 3.53907.51563.89844.03906V415.75l-4.4375.66016-3.66797 1.78125 3.66797 1.96875 4.4375.5625v10.35546l-.14454.4297.14453.26171 1.51172-.26172-1.51172-.42969v-10.35546l4.25782-2.53125-4.25781-2.44141v-1.95703l4.4375.9961 4.4414-.0625v2.18359l-4.07422 1.28125 4.07422 3.64062v5.15235l-.91406.08593.91406.05078.04688-.05078-.04688-.08594v-5.15234l1.44922-3.64062-1.44922-1.28125v-2.1836l3.91797 3.46485-.21875 4.4375.73828.4453 4.4375.27345 3.85156 3.72265.58594.8789 1.97656-.8789 2.46094-1.75 2.34766 1.75 2.09375.33594 3.9336-.33594.5039-.28906.5039.28906 3.9336.66797 1.875-.66797 2.5625-1.94922 2.48437 1.94922L277.15234 430l4.4375-1.26953 4.4375 1.41406.64063 1.36328 3.79687 2.92969 1.28516 1.50781-1.28516 1.3125-4.4375.65235-4.4375-.85157-3.6289 3.32422-.8086.85938-3.80078 3.57812-.64062.66797-4.4375 1.20313-4.4375 1.74218L259.39844 445l-.20703-.17969.20703-.19922 4.4375-1.9453 4.4375-.14454 4.4375 1.51953 3.41797-3.66797 1.02343-.73828 3.41407-3.69922-3.41407-3.35937-4.4414 2.22656-4.4375.15234-4.4375-.51171-4.20313 1.49218-.23437.26953-4.4414 3.23047-4.4375.6289-.26563.3086.26562 4.32813.04297.10937-.04297.03906-1.57812 4.40235-2.85938 3.09765-2.9375 1.33985-1.5 1.85547-4.4375 1.1914-4.4414.01954-4.4375.66796-4.4375.60938-.42579.09375-4.01172 2.20312-4.4375-.21093-4.4414.40234-4.4375.1914-4.4375 1.22657-1.74219.625-2.69531 1.75781-4.4414.97656-4.4375.8125-4.4375.26954-4.4375-.19532-3.09766.82031-1.34375 2.32813-2.20313-2.32813-2.23437-.35937-4.4375-1.19922-4.4375.01953-3.0586-2.90234-1.05078-4.4375.30078-4.4375-.07422-4.4375-.11718-4.4414"/><path fill="#00e8fc" fill-rule="evenodd" d="M158.9375 449.26172l-.22656-4.4414.85547-4.4375 2.1875-4.07423.28906-.36328 4.14844-3.41406 2.72656-1.02344 1.71094-1.01172 4.4375-1.62109 4.4414.13672 4.4375-1.2539 1.23047-.6875 3.20703-2.70704 2.08985-1.73437 2.34765-1.46875 4.4414-1.15625 4.4375-.91407 4.4375.89454v2.3789l-1.85155.26563-2.58594.77343-4.4375 1.39844-3.42578 2.26953-1.01563.46094-4.4375 2.60547-2.20312 1.3711-2.23438.8203-4.4375 1.4375-4.4414.88672-4.4375.13672-2.90625 1.15625-1.53125.85156-2.92578 3.58594-1.51172 1.20703-1.44532 3.23047.40625 4.4414.12891 4.4375.91016 2.83595 4.4375-1.82813 4.4375.42188 4.4375-1.41797.03515-.01172 4.40625-2.17188 4.4375 1.64454.57813.52734 3.85937 3.83594 4.4375-.17188 4.4414-3.05078 1.26563-.61328 3.17188-3.55469 1.69922-.88281 2.73828-1.42578 1.33203 1.42578 3.10547 1.4414 4.4414.01563 4.4375.13281 4.4375-1.14844.96875-.4414 1.57032-4.4414-.88672-4.4375-1.65234-1.38673-4.4375-1.5039-4.4375-1.27344-.94532-.27344-3.1875-4.4375 1.59375-4.4375-1.90234-1.48828-3.83203-2.95312-.60547-.26563v-2.3789l4.4375.88671 1.7461 1.75782 2.6953 2.05078 1.71875 2.39062 2.71875 2.08985 4.4375-.21485 2.47657 2.5625 1.96094 3.59766.92578.83984 2.33593 4.4375 1.17578 1.1875 4.44141 1.42188v5.10156l-4.4414.88672-.375.28125.375.09765 4.4414.4922.94922-.58985-.94922-1.16797v-5.10156l1.98828-2.60938-1.98828-3.32031-1.42187-1.11719.03906-4.4375 1.38281-1.21094 2.8711-3.22656 1.5664-1.42578 4.4375-.42578v5.82813l-.66016.46093-3.77734.88281-2.65625 3.5547 2.65625 4.42187.14063.01562 4.29687.3125.3125-.3125 3.58594-4.4375-3.66797-4.4375-.23047-.46094v-5.82812L248 427.07031l2.51953 3.78906 4.4375-2.2539 4.4414-.19531v1.67187l-3.29687 1.42578 3.29688 1.55078 2.14062-1.55078-2.14062-1.42578v-1.67187l4.4375 2.5 4.4375-1.1875 4.4375-.75 2.08203 2.53515-2.08203 1.3789-4.4375.25782-4.4375-1.25781-4.4375 3-3.32813 1.0586-1.11328.85546-4.4375 1.57422-1.71094 2.00781-2.72656 2.72266-4.4375 1.15625-.90234.5586.90234 1.11327 4.25 3.32813-4.25 2.11719-4.4375 2.28125-4.4414-.7422-4.4375-.0078-1.65625.78906-2.78125 1.29297-4.4375 1.17187-4.4375.10938-4.44141-.19922-4.4375-.13281-3.86328 2.1953-.57422.3711-4.4375 1.21094-4.4414 2.07031-2.64845.78516-1.78906.63281-4.4375-.05469-3.22265-.57812-1.21485-.41406-3.1914-4.02344-1.25-.58594-1.19532.58594-2.39453 4.4375-.84765.19922-.4375-.19922-4-1.41016-4.4375.95703-2.23828-3.98437-.48438-4.4375-.09375-4.4375"/><path fill="#00d4fc" fill-rule="evenodd" d="M160.71484 449.26172l-.40625-4.4414 1.44532-3.23048 1.51172-1.20703 2.92578-3.58594 1.53125-.85156 2.90625-1.15625 4.4375-.13672 4.4414-.88671 4.4375-1.4375v2.71484l-2.19531.90234-2.24219 3.94922-.57812.48828.57812 2.11328 1.26172-2.11328 3.17578-1.07031 3.57813-3.36719-3.57813-.90234v-2.71485l2.23438-.8203 2.20312-1.3711 4.4375-2.60547v6.01953l-3.24219 2.39453 3.2422.95313 4.4414-.35938.42187-.59375-.42187-1.52344-4.4414-.87109v-6.01953l1.01562-.46094 3.42578-2.26953 4.4375-1.39844 2.58594-.77343 1.85156-.26563.60547.26563 3.83203 2.95312 1.90234 1.48828-1.59375 4.4375 3.1875 4.4375.94531.27344 4.4375 1.27344 4.4375 1.5039 1.65235 1.38672.88672 4.4375-1.57031 4.4414-.96875.44142-4.4375 1.14843-4.4375-.13281-4.44141-.01563-3.10547-1.4414-1.33203-1.42578-2.73828 1.42578-1.69922.88281-3.17188 3.55469-1.26562.61328-4.4414 3.05078-4.4375.17188-3.85938-3.83594-.57813-.52735-4.4375-1.64453-4.40625 2.17188-.03515.01172-4.4375 1.41797-4.4375-.42188-4.4375 1.82813-.91016-2.83594-.1289-4.4375"/><path fill="#00c4fc" fill-rule="evenodd" d="M179.50781 442.4961l-.57812-2.11329.57812-.48828 2.24219-3.94922 2.19531-.90234 3.57813.90234-3.57813 3.36719-3.17578 1.07031-1.26172 2.11328m13.3125-5.59765l-3.24219-.95313 3.2422-2.39453 4.4414.8711.42187 1.52343-.42187.59375-4.4414.35938"/><path fill="#fff" fill-opacity="0" fill-rule="evenodd" d="M206.13672 417.26563l-1.26563.92578 1.26563.36718 2.1836-.36718-2.1836-.92579m13.3164 4.21875l-2.41406 1.14454 1.67188 4.4414.74219.57031 4.42187-.5703-1.86719-4.44141-2.55469-1.14454"/><path fill="#00e8fc" fill-rule="evenodd" d="M223.89063 420.16016l-3.66797-1.96875 3.66797-1.78125 4.4375-.66016 4.2578 2.4414-4.2578 2.53126-4.4375-.5625"/><path fill="#fff" fill-opacity="0" fill-rule="evenodd" d="M228.32813 431.07813l-.14454.42968.14453.26172 1.51172-.26172-1.51172-.42969"/><path fill="#00d4fc" fill-rule="evenodd" d="M232.76563 449.35938l-.375-.09766.375-.28125 4.4414-.88672.94922 1.16797-.94922.58984-4.4414-.49219"/><path fill="#00e8fc" fill-rule="evenodd" d="M237.20703 421.83203l-4.07422-3.64062 4.07422-1.28125 1.44922 1.28125-1.44922 3.64062"/><path fill="#fff" fill-opacity="0" fill-rule="evenodd" d="M237.20703 439.53125l-1.5586.85156 1.5586.67188.50781-.67188-.5078-.85156m0-12.54688l-.91407.08594.91406.05078.04688-.05078-.04688-.08594"/><path fill="#00d4fc" fill-rule="evenodd" d="M241.64453 440.36719l-2.65625-4.42188 2.65625-3.55469v3.27735l-.20703.27734.20703.34375 4.4375-.28125.04688-.0625-.04688-.0586-4.4375-.21874v-3.27735l3.77734-.8828.66016-.46094.23047.46093 3.66797 4.4375-3.58594 4.4375-.3125.3125-4.29687-.3125-.14063-.01562"/><path fill="#00c4fc" fill-rule="evenodd" d="M241.64453 436.28906l-.20703-.34375.20703-.27734 4.4375.21875.04688.0586-.04688.0625-4.4375.28124"/><path fill="#fff" fill-opacity="0" fill-rule="evenodd" d="M246.08203 444.55078l-.875.26953.875.71875 4.33203-.71875-4.33203-.26953"/><path fill="#00d4fc" fill-rule="evenodd" d="M259.39844 433.0586l-3.29688-1.55079 3.29688-1.42578 2.14062 1.42578-2.14062 1.55078"/><path fill="#50fcfc" fill-rule="evenodd" d="M303.78125 432.72656l-1.29297-1.21875 1.29297-3.85937 1.22656 3.85937-1.22656 1.21875m44.38281 5.7539l-2.59765-2.53515 2.59765-3.65234 4.4375-.35156v1.15234l-4.125 2.85156 2.58203 4.4375 1.54297 1.5586 4.4414.23828 2.60157-1.79688-2.60156-2.72265-.98438-1.71485-3.45703-2.85156v-1.15234l4.4414.83593 1.55079 3.16797 2.88672 3.21094 2.26562 1.22656-2.26562 1.13281-4.4375 2.26954-4.4414-.02735-3.33985-3.375-1.09766-1.90234"/><path fill="#00e8fc" fill-rule="evenodd" d="M351.0586 440.38281l-2.58204-4.4375 4.125-2.85156v1.91797l-1.34765.9336 1.34765 2.22265 1.13281-2.22266-1.1328-.9336v-1.91796l3.45702 2.85156.98438 1.71485 2.60156 2.72265-2.60156 1.79688-4.4414-.23828-1.54298-1.5586"/><path fill="#00d4fc" fill-rule="evenodd" d="M352.60156 438.16797l-1.34765-2.22266 1.34765-.9336 1.13281.9336-1.1328 2.22266"/><path fill="#50fcfc" fill-rule="evenodd" d="M374.79297 452.4961l-2.42969-3.23438 2.42969-3.14453 1.29297-1.29688 3.14844-2.73828 2.1953 2.73828 2.2422 2.79688 2.86328 1.64453-2.86329 2.23828-1.71484-2.23828-2.72265-2.16406-2.17188 2.16406-2.26953 3.23437m0 5.87891l-.39844-.23828.39844-.66016 2.01562.66016-2.01562.23828"/><g clip-path="url(#d)"><path fill="#50fcfc" fill-rule="evenodd" d="M380.48047 462.57422l-.63281-4.4375 3.82421-2.00781 4.4375-2.15235v1.66016l-2.94921 2.5 2.94921 3.50781 4.4375-.48437 1.14454-3.02344-1.14454-1.15235-4.4375-1.34765v-1.66016l4.4375.88672 3.2422 3.27344-.27735 4.4375-2.96485 3.4414-1.17187 1 1.17188 2.76172 1.39062 1.67579 3.04688 4.21484.17578.22265 2.99609 4.4375h-13.75l-.58594-4.4375 2.28906-4.16015.25-.27735-.25-.05859-3.41406-4.3789-1.02344-1.14844-3.1914-3.29297"/></g><path fill="#00e8fc" fill-rule="evenodd" d="M388.10938 461.64453l-2.94922-3.50781 2.94921-2.5 4.4375 1.34765 1.14454 1.15235-1.14454 3.02344-4.4375.48437"/><g clip-path="url(#e)"><path fill="#fff" fill-opacity="0" fill-rule="evenodd" d="M467.9961 480.32813H468V311.67188h-.0039H468v168.65625h-.0039"/></g><path fill="#fff" fill-opacity="0" fill-rule="evenodd" d="M228.83203 419.48047l5.8086.60156 1.03125-9.90625-5.8125-.60156-1.02735 9.90625"/><path fill-rule="evenodd" d="M233.15234 411.75781l.50391.05078-.64844 6.26172-.78125-.08203.46094-4.46484-1.3789-.14063.05859-.55469.5625-.0078.2539-.02735.23828-.0625.21875-.1211.19532-.1914.16797-.27735.14843-.3828"/><path fill="#fff" fill-opacity="0" fill-rule="evenodd" d="M259.65234 442.07031l4.82813-3.29297-5.60938-8.23046-4.82812 3.29296 5.60937 8.23047"/><path fill-rule="evenodd" d="M257.96875 433.38281l.41797-.28906 3.54687 5.20313-.64843.4414-2.53125-3.70703-1.14454.78125-.3164-.46094.42969-.36719.17578-.1875.14062-.20312.08594-.23047.02734-.27344-.05078-.3203-.13281-.38673"/><path fill="#fff" fill-opacity="0" fill-rule="evenodd" d="M190.66797 463.66797l7.51953-2.4961-3.21094-9.67187-7.51953 2.4961 3.21094 9.67187"/><path fill-rule="evenodd" d="M190.38672 454.95313l3.1211-1.03516.23046.70312-2.5039.83204.35156 1.78515.16406-.22656.21484-.21094.27735-.1836.35547-.15234.3164-.07812.34766-.02735.35937.03516.3672.10547.34765.1914.16406.12891.15625.15235.14844.17968.13281.20704.11719.23437.10156.26172.10547.4336.03516.42968-.04297.41797-.1211.39844-.19922.36328-.1328.16797-.15626.15625-.17578.14062-.19922.125-.21875.11328-.2461.09375-.45312.11328-.41015.02735-.3672-.04688-.33202-.11719-.28906-.17968-.25782-.22656-.22656-.27344-.19531-.3086.75-.25.14844.19532.16015.16406.17578.13672.1875.09765.19531.06641.21094.02344.21485-.01172.22656-.05469.29297-.1211.24219-.15624.1953-.1914.14454-.22267.08984-.2578.03125-.28516-.02734-.32032-.08984-.34765-.10157-.24219-.13672-.23047-.17578-.20312-.21094-.16797-.24609-.125-.27344-.07031h-.30468l-.33203.0703-.3125.14063-.23047.1914-.19922.26563-.21094.35547-.66016.21875-.64062-3.39844"/><g clip-path="url(#f)"><path fill="none" stroke="#000" stroke-linecap="round" stroke-linejoin="round" stroke-miterlimit="10" stroke-width=".5" d="M147.33203 481.44531l-6.66406-2.23437"/></g><g clip-path="url(#g)"><path fill="none" stroke="#000" stroke-linecap="round" stroke-linejoin="round" stroke-miterlimit="10" stroke-width=".5" d="M160.70703 481.2461l-6.78125-1.83594"/></g><g clip-path="url(#h)"><path fill="none" stroke="#000" stroke-linecap="round" stroke-linejoin="round" stroke-miterlimit="10" stroke-width=".5" d="M160.70703 481.2461l.54297 2.39452"/></g><g clip-path="url(#i)"><path fill="none" stroke="#000" stroke-linecap="round" stroke-linejoin="round" stroke-miterlimit="10" stroke-width=".5" d="M174.10547 480.85547l-6.94922-1.05469"/></g><g clip-path="url(#j)"><path fill="none" stroke="#000" stroke-linecap="round" stroke-linejoin="round" stroke-miterlimit="10" stroke-width=".5" d="M174.10547 480.85547l.8125 2.3164"/></g><g clip-path="url(#k)"><path fill="none" stroke="#000" stroke-linecap="round" stroke-linejoin="round" stroke-miterlimit="10" stroke-width=".5" d="M187.40625 480.92969l-6.92188-1.19922"/></g><g clip-path="url(#l)"><path fill="none" stroke="#000" stroke-linecap="round" stroke-linejoin="round" stroke-miterlimit="10" stroke-width=".5" d="M187.40625 480.92969l.76563 2.32812"/></g><g clip-path="url(#m)"><path fill="none" stroke="#000" stroke-linecap="round" stroke-linejoin="round" stroke-miterlimit="10" stroke-width=".5" d="M200.7539 480.6875l-6.98827-.71875"/></g><g clip-path="url(#n)"><path fill="none" stroke="#000" stroke-linecap="round" stroke-linejoin="round" stroke-miterlimit="10" stroke-width=".5" d="M200.7539 480.6875l.92579 2.27344"/></g><g clip-path="url(#o)"><path fill="none" stroke="#000" stroke-linecap="round" stroke-linejoin="round" stroke-miterlimit="10" stroke-width=".5" d="M214.03125 480.95703l-6.91406-1.25781"/></g><g clip-path="url(#p)"><path fill="none" stroke="#000" stroke-linecap="round" stroke-linejoin="round" stroke-miterlimit="10" stroke-width=".5" d="M214.03125 480.95703l.7461 2.33985"/></g><g clip-path="url(#q)"><path fill="none" stroke="#000" stroke-linecap="round" stroke-linejoin="round" stroke-miterlimit="10" stroke-width=".5" d="M227.20313 481.4961l-6.625-2.33594"/></g><g clip-path="url(#r)"><path fill="none" stroke="#000" stroke-linecap="round" stroke-linejoin="round" stroke-miterlimit="10" stroke-width=".5" d="M240.17969 482.19922l-5.94922-3.73828"/></g><g clip-path="url(#s)"><path fill="none" stroke="#000" stroke-linecap="round" stroke-linejoin="round" stroke-miterlimit="10" stroke-width=".5" d="M253.86719 481.39844l-6.69531-2.13672"/></g><g clip-path="url(#t)"><path fill="none" stroke="#000" stroke-linecap="round" stroke-linejoin="round" stroke-miterlimit="10" stroke-width=".5" d="M266.49219 482.6289l-5.3125-4.60156"/></g><g clip-path="url(#u)"><path fill="none" stroke="#000" stroke-linecap="round" stroke-linejoin="round" stroke-miterlimit="10" stroke-width=".5" d="M278.32422 483.64063l-2.34766-6.625"/></g><g clip-path="url(#v)"><path fill="none" stroke="#000" stroke-linecap="round" stroke-linejoin="round" stroke-miterlimit="10" stroke-width=".5" d="M290.16406 483.82813l.60156-7"/></g><g clip-path="url(#w)"><path fill="none" stroke="#000" stroke-linecap="round" stroke-linejoin="round" stroke-miterlimit="10" stroke-width=".5" d="M301.75781 477.45703l4.04688 5.74219"/></g><g clip-path="url(#x)"><path fill="none" stroke="#000" stroke-linecap="round" stroke-linejoin="round" stroke-miterlimit="10" stroke-width=".5" d="M315.05078 477.47266l4.08985 5.71093"/></g><g clip-path="url(#y)"><path fill="none" stroke="#000" stroke-linecap="round" stroke-linejoin="round" stroke-miterlimit="10" stroke-width=".5" d="M327.6211 482.46484l5.57812-4.27343"/></g><g clip-path="url(#z)"><path fill="none" stroke="#000" stroke-linecap="round" stroke-linejoin="round" stroke-miterlimit="10" stroke-width=".5" d="M340.6211 481.97266l6.21093-3.28516"/></g><g clip-path="url(#A)"><path fill="none" stroke="#000" stroke-linecap="round" stroke-linejoin="round" stroke-miterlimit="10" stroke-width=".5" d="M341.52344 481.49219l-1.01563-.6875"/></g><g clip-path="url(#B)"><path fill="none" stroke="#000" stroke-linecap="round" stroke-linejoin="round" stroke-miterlimit="10" stroke-width=".5" d="M353.54297 480.65234l6.9961-.64843"/></g><g clip-path="url(#C)"><path fill="none" stroke="#000" stroke-linecap="round" stroke-linejoin="round" stroke-miterlimit="10" stroke-width=".5" d="M354.5625 480.5586l-.67578-1.02344"/></g><g clip-path="url(#D)"><path fill="none" stroke="#000" stroke-linecap="round" stroke-linejoin="round" stroke-miterlimit="10" stroke-width=".5" d="M366.96875 481.25781l6.77734-1.85937"/></g><g clip-path="url(#E)"><path fill="none" stroke="#000" stroke-linecap="round" stroke-linejoin="round" stroke-miterlimit="10" stroke-width=".5" d="M366.96875 481.25781l-1.6836-1.78515"/></g><g clip-path="url(#F)"><path fill="none" stroke="#000" stroke-linecap="round" stroke-linejoin="round" stroke-miterlimit="10" stroke-width=".5" d="M380.4375 481.70313l6.46875-2.7461"/></g><g clip-path="url(#G)"><path fill="none" stroke="#000" stroke-linecap="round" stroke-linejoin="round" stroke-miterlimit="10" stroke-width=".5" d="M381.3789 481.30078l-.95312-.76953"/></g><g clip-path="url(#H)"><path fill="none" stroke="#000" stroke-linecap="round" stroke-linejoin="round" stroke-miterlimit="10" stroke-width=".5" d="M393.72656 481.63672l6.51953-2.61328"/></g><g clip-path="url(#I)"><path fill="none" stroke="#000" stroke-linecap="round" stroke-linejoin="round" stroke-miterlimit="10" stroke-width=".5" d="M393.72656 481.63672l-1.875-1.58594"/></g><g clip-path="url(#J)"><path fill="none" stroke="#000" stroke-linecap="round" stroke-linejoin="round" stroke-miterlimit="10" stroke-width=".5" d="M407.36719 482.26172l5.86719-3.86719"/></g><g clip-path="url(#K)"><path fill="none" stroke="#000" stroke-linecap="round" stroke-linejoin="round" stroke-miterlimit="10" stroke-width=".5" d="M408.22266 481.69922l-1.07813-.58594"/></g><g clip-path="url(#L)"><path fill="none" stroke="#000" stroke-linecap="round" stroke-linejoin="round" stroke-miterlimit="10" stroke-width=".5" d="M421.23828 482.91406l4.7539-5.17187"/></g><g clip-path="url(#M)"><path fill="none" stroke="#000" stroke-linecap="round" stroke-linejoin="round" stroke-miterlimit="10" stroke-width=".5" d="M435.47656 483.52734l2.91016-6.39453"/></g><g clip-path="url(#N)"><path fill="none" stroke="#000" stroke-linecap="round" stroke-linejoin="round" stroke-miterlimit="10" stroke-width=".5" d="M453.5 478.9961l-6.5039 2.66406"/></g><g clip-path="url(#O)"><path fill="none" stroke="#000" stroke-linecap="round" stroke-linejoin="round" stroke-miterlimit="10" stroke-width=".5" d="M452.55078 479.38672l.94531.78125"/></g><g clip-path="url(#P)"><path fill="none" stroke="#000" stroke-linecap="round" stroke-linejoin="round" stroke-miterlimit="10" stroke-width=".5" d="M463.73438 483.83984l-.34375-7.01953"/></g><g clip-path="url(#Q)"><path fill="none" stroke="#000" stroke-linecap="round" stroke-linejoin="round" stroke-miterlimit="10" stroke-width=".5" d="M147.3125 468.1875l-6.625-2.34766"/></g><path fill="none" stroke="#000" stroke-linecap="round" stroke-linejoin="round" stroke-miterlimit="10" stroke-width=".5" d="M147.3125 468.1875l.36328 2.42578m12.98828-2.53906l-6.69922-2.1211m6.69922 2.1211l.44531 2.41015m12.95313-2.72265l-6.86328-1.4961m6.86328 1.4961l.66406 2.36328m12.71094-2.73828l-6.98438-.7461m6.98438.7461l.91797 2.27734m12.41797-2.6875l-7.02735.07422m7.02735-.07422l1.17578 2.15235m12.125-1.8047l-7-.62109m7 .6211l.95703 2.26172m12.1914-1.45313l-6.66406-2.23828m6.66407 2.23828l.40234 2.42188m12.64453-1.82032l-6.1289-3.4375m6.1289 3.4375l-.05469 2.44922m13.58594-2.90625l-6.5586-2.52734m5.60157 2.16016l.14844 1.21484m13.88281-.35156l-6.08203-3.51953m5.19922 3.0078l-.04297 1.22657m13.36719.29297l-4.33204-5.53516m3.69922 4.73047l-.49609 1.1211m13.16406.3164l-1.76953-6.80078m14.23828-.11328l-.07812 7.02734m12.44531-6.90625l1.8164 6.78516m-1.55077-5.80078l.89453-.83594m9.67187 2.32422l6.78125 1.83984m6.5586-1.92968l6.73046 2.01953m-5.75-1.72657l-.24218-1.20312m12.48828 1.29297l6.91406 1.2539m-5.91016-1.0703l-.37109-1.17188m12.92969.17968l6.41406 2.8711m-5.48047-2.45313L368 464.77344m12.17578 1.90234l6.99219.67578m-5.97656-.57812l-.46875-1.13282m12.75 1.33204l7.02734.08203m-7.02734-.08203l-1.125-2.1836m15.01953 4.15625l5.86719-3.86328m-5.01172 3.30078l-1.07813-.58594m13.1914.47266l6.5625-2.51172m8.1875-1.73437l3.69141 5.98047m-3.15234-5.10938l.61719-1.0586m16.39062.60157l-4.77343 5.15234m17.23046.58594l-3.05859-6.32422m2.61328 5.40625l-.72265.98828"/><g clip-path="url(#R)"><path fill="none" stroke="#000" stroke-linecap="round" stroke-linejoin="round" stroke-miterlimit="10" stroke-width=".5" d="M147.36719 454.69922l-6.73438-2"/></g><path fill="none" stroke="#000" stroke-linecap="round" stroke-linejoin="round" stroke-miterlimit="10" stroke-width=".5" d="M147.36719 454.69922l.48828 2.40234m12.54687-1.72656l-6.17578-3.35156m6.17578 3.35156l-.01953 2.45312M173.5 455.72656l-5.73828-4.0586m4.90234 3.46876l-.15625 1.21875m14.66797-1.27735l-6.46094-2.7578m5.51953 2.35546l.10547 1.22266m13.88672-.32031l-5.9336-3.76172m5.07032 3.21484l-.09375 1.22656m14.33984-.78515l-6.0664-3.54688m5.1836 3.03125l-.05079 1.22656m13.44922.22657l-4.46875-5.42578m3.8164 4.63671l-.46874 1.13282m14.67187-.5586l-4.9414-4.99219m4.22265 4.26563l-.36328 1.17187m12.30469.55079l-.7539-6.98438m16.71093 5.28906l-6.03906-3.59375m5.16015 3.07032l-.0586 1.22656m14.73829-2.7461l-7.01172.4922m17.84375-.2461l-.01953-.19922-.0586-.1914-.09374-.1797-.46094-.375-.1914-.05859-.19923-.01953-.19921.01953-.19141.0586-.45703.375-.09766.17968-.05469.19141-.01953.19922.01953.19922.0547.1914.09765.17578.45703.37891.1914.0586.19922.01953.19922-.01954.1914-.05859.46095-.3789.09375-.17579.05859-.1914.01953-.19922m10.09766-2.7461l4.39062 5.48829m8.00782-4.3711l6.22265 3.25781m6.69531-1.84375l7.01563.4297m-5.99219-.3672l-.50781-1.11718m12.83203.7539l6.95313 1.03125m-5.94141-.8828l-.41016-1.15235m12.79688.60547l6.78515 1.82812m-5.79687-1.5625l-.27734-1.19531m14.60156-1.38281l2.78906 6.44921m-2.78906-6.44921l1.53125-1.91797m9.70703 4.61718l6.94531 1.0547m-5.9375-.90235l-.40625-1.15625m12.99219.0625l6.38672 2.9375m-5.45703-2.51172l-.07032-1.22266m12.28125 1.26172l6.73438 2.0039m6.4414-.80859l7.01563-.38671m-5.9961.33203l-.6328-1.05078m12.92187.96484l7.02734-.10156m-6.0039.08593l-.59375-1.07421m13.08593-.13282l6.625 2.34375m-6.625-2.34375l-.36328-2.42578m20.3711 2.6289l-6.75782 1.9336m5.77344-1.65234l.85156.88672"/><g clip-path="url(#S)"><path fill="none" stroke="#000" stroke-linecap="round" stroke-linejoin="round" stroke-miterlimit="10" stroke-width=".5" d="M147.20703 441.82031l-6.41406-2.875"/></g><path fill="none" stroke="#000" stroke-linecap="round" stroke-linejoin="round" stroke-miterlimit="10" stroke-width=".5" d="M146.27344 441.40234l.08203 1.22657m14.01953-.51954l-6.1211-3.44921m5.23048 2.9453l-.03125 1.22657m12.08984.94531l-1.82813-6.78515m1.5625 5.79687l-.89453.83594m13.17188.25l.78125-6.98437m10.10156 5.58593l5.64453-4.1875m6.99219 2.39844l7-.60937m6.54297 1.58593l6.54687-2.5586m-5.59375 2.1836l-.92969-.79687m13.73829 1.97656l5.65234-4.17187m-4.83203 3.5664l-1.10547-.53125m13.23438.51953l6.38671-2.9336m-5.45703 2.50392l-.97656-.7422m13.25781-1.51171l6.59375 2.42969m6.66016-2.25l6.71484 2.07422m-5.73828-1.77344l-.23047-1.20703m14.0625-1.03516l3.73047 5.95313m-3.1875-5.08594l.60938-1.0625m12.80859-.125l2.4336 6.59375m-2.07813-5.63281l.8164-.91407m12.63282-.1875l1.45703 6.875m-1.2461-5.875l.94141-.78515m11.44531.02343l2.89453 6.40235m9.02735-5.26953l5.67969 4.1328m-4.85547-3.53124l.17187-1.21484m11.76563 1.76953l6.78515 1.82422m-5.79687-1.5586l-.27735-1.19531m13.89844-.97656l4.19531 5.63672m-4.1953-5.63672l1.05077-2.21875m10.91016 4.375l6.90234 1.3203m-6.90234-1.3203l-.72266-2.34375m15.9297 6.15234l3.12108-6.29687m-2.66796 5.3828l-1.22657.03126m12.3672-1.01563l6.5664-2.5m-5.61328 2.13672l-.92188-.8086m14.27344 2.58595l4.58594-5.32813m-3.91797 4.55469L420.79297 442m14.80078 1.63281l2.67578-6.5m-2.67578 6.5l-2.4414.24219m18.6289-.32812l-3.0664-6.32422m14.84765 6.67578v-7.02735m0 6.00391l-1.08594.57422"/><g clip-path="url(#T)"><path fill="none" stroke="#000" stroke-linecap="round" stroke-linejoin="round" stroke-miterlimit="10" stroke-width=".5" d="M147.3789 428.02734l-6.7578-1.91797"/></g><path fill="none" stroke="#000" stroke-linecap="round" stroke-linejoin="round" stroke-miterlimit="10" stroke-width=".5" d="M146.39453 427.75l.25781 1.19922m13.69922-.11328l-6.07031-3.53516m5.1875 3.02344l-.05078 1.22265m13.4336.2422l-4.44141-5.44141M172.20313 429l-.47266 1.1289m9.70312-.60156l5.02344-4.91797m7.3711 3.20313l6.86718-1.48828m-5.8711 1.26953l-.78905-.9336m14.53515-2.47656l4.00781 5.76953m-3.42578-4.92968l.5625-1.09375m11.28125 1.14843l5.78907 3.98047m-4.94532-3.40234l.13672-1.21875m11.73828 3.02734l6.98047-.79297m-5.96484.6797l-.69531-1.01173m13.51953 2.61328l5.9336-3.76562m-5.07032 3.21484l-1.0664-.60547m13.15624.39844l6.65625-2.2539m-5.6875 1.92578l-.89453-.83985m14.94922-3.07812l3.23828 6.23828m8.57813-4.74219l6.23437 3.2461m-5.32422-2.77344l-.01172-1.22656m12.09766 1.64453l6.875 1.46484m-5.875-1.2539l-.33594-1.1797m14.63672-1.49609l2.90235 6.39844m-2.48047-5.46875l.74609-.97266m12.79688-.17968l1.60156 6.83984m-1.36719-5.84375l.92578-.8086m12.80078-.27734l.3125 7.01954m-.26953-6l1.0586-.6211m9.4453 1.16016l5.84766 3.90234m6.97266-1.14453l6.83984-1.61328m7.55079-1.8125l4.6875 5.23828m-4.6875-5.23828l.84375-2.30078m14.01171 1.5l1.60547 6.83984m-1.60547-6.83984l1.84766-1.61719m-1.61328 2.61328l.92187-.8086m13.8672-.16405l-1.8086 6.79296m1.8086-6.79296l2.38671-.5547m11.4336.73438l-2.82032 6.4336m2.82031-6.4336l2.44532-.1875m-2.85547 1.1211l1.22265-.08985m12.71875-.73828l-3.2539 6.22656m3.2539-6.22656l2.45704-.01953m8.77343 6.61328l.91407-6.96484m-.78125 5.95312l-1.14844.42969m11.39062-2.00781l6.79688-1.78125m-5.8086 1.51953l-.83203-.90234"/><g clip-path="url(#U)"><path fill="none" stroke="#000" stroke-linecap="round" stroke-linejoin="round" stroke-miterlimit="10" stroke-width=".5" d="M147.49219 414.1289l-6.98438-.75"/></g><path fill="none" stroke="#000" stroke-linecap="round" stroke-linejoin="round" stroke-miterlimit="10" stroke-width=".5" d="M146.47656 414.01953l.45703 1.13672m13.79297-.5625l-6.82422-1.67969m5.83203 1.4336l.30079 1.1914m13.89453-.57812l-6.59766-2.41406m14.72656 4.17187l3.77344-5.92969m13.26563-.03125l-3.67578 5.98828m12.51562-5.3125l5.27344 4.64063m-4.5039-3.96875l.28124-1.1914m11.39063 2.79687l7.02343.08203m-6.0039-.07031l-.5625-1.08985m13.9336 3.65235l4.87108-5.0625m-4.16406 4.32422l-1.17969-.33594m16.9375 1.98437l-1.42578-6.88281m1.21875 5.8789l-.9453.78516m15.42968-.13281l-3.35156-6.17969m16.01953 6.44922l-2.05469-6.71875m16.39062.5039l-4.09765 5.70704m17.3164-5.76953l-3.91015 5.83594m18.64062-3.91797l-6.73828 2m5.75781-1.71094l.85938.875m7.3125 2.01953l5.50781-4.36719m7.98047-.19922l5.16406 4.76563m14.1875-3.02735l-6.91015 1.28907m13.64453-2.2461l6.2539 3.20313m-5.34375-2.73828l-.01953-1.22657m14.28125-.91406l2.53907 6.55078m-2.17188-5.59765l.80078-.92578m11.57813.2539l3.67578 5.99219m-3.14063-5.1211l.6211-1.05468m15.32812-.07031l-2.66406 6.5m2.66406-6.5l2.4414-.2461m10.45313.10156l-1.82421 6.78907m1.82421-6.78907l2.39063-.55078m-2.65625 1.53907l1.19531-.27344m11.85547-.8125l-.76172 6.98437m.76172-6.98437l2.28125-.91016m14.15625 4.15625L446.74219 414m14.1289-2.50781l5.37891 4.52343m-5.3789-4.52343l.51171-2.39844"/><g clip-path="url(#V)"><path fill="none" stroke="#000" stroke-linecap="round" stroke-linejoin="round" stroke-miterlimit="10" stroke-width=".5" d="M146.99219 398.59375l-5.98438 3.6875"/></g><path fill="none" stroke="#000" stroke-linecap="round" stroke-linejoin="round" stroke-miterlimit="10" stroke-width=".5" d="M146.1211 399.13281l1.05859.61719m8.76562-2.54688l2.73828 6.47266m10.07032-6.21094l3.75 5.94532m-3.20313-5.07813l.60938-1.0664m12.65234-.0586l2.76563 6.46094m-2.36329-5.51953l.76953-.95703m14.41016-.15235l-1.76953 6.80078m1.51172-5.8125l1.19531-.28515m8.02344 2.14062l6.9375 1.11328m-5.92578-.95312l-.39844-1.16016m12.96094.1289l6.42187 2.85157m-5.48828-2.4336l-.08594-1.22656m13.76172-.71093l3.83203 5.89062m-3.27343-5.03125l.59375-1.07422M247.875 402.75l5.28906-4.625m14.15235 2.80469l-6.96094-.98438m20.1875-.41797l-6.78516 1.82032m5.80078-1.5547l.83594.89845m12.35938-2.91797l-4.57813 5.33203m3.91406-4.5586l1.19532.26954m11.79687-1.64063l-2.60156 6.52735m2.22266-5.57813l1.21875-.13281m13.70312.0039l-5.05469 4.88282m4.3164-4.17188l1.16798.3789m13.00781-.95312l-5.30469 4.60938m4.53516-3.9375l1.14453.4414m12.42578-1.59375l-4.27734 5.57422m3.65625-4.76562l1.21094.20312m7.96484-.5625l5.2461 4.67188m8.3125.25l4.7578-5.17188m-4.0664 4.41797l-1.1875-.3086m18.25-4.36718l-4.1211 5.6914m4.1211-5.6914l2.4336.33594m8.28515-.96485l1.07422 6.94532m-.91797-5.9336l.98047-.73437m14.33594.07812l-3.2422 6.23438m2.76954-5.32813l1.22656-.01172m12.09766-1.09375l-2.3164 6.63282m2.3164-6.63282l2.42578-.37109m9.44531.1875l.57422 7.0039m-.57422-7.0039l2.0625-1.32813m14.22656 2.56641l-5.375 4.52735m4.59375-3.8711l1.13672.46094m11.04297-2.28125l-1.53906 6.85547m1.3164-5.85938l1.1797-.32422"/><g clip-path="url(#W)"><path fill="none" stroke="#000" stroke-linecap="round" stroke-linejoin="round" stroke-miterlimit="10" stroke-width=".5" d="M147.32031 385.96875l-6.64062 2.3086"/></g><path fill="none" stroke="#000" stroke-linecap="round" stroke-linejoin="round" stroke-miterlimit="10" stroke-width=".5" d="M147.32031 385.96875l1.79688 1.67188m-2.76563-1.33594l.90235.83594m13.33203-1.30079l-6.54297 2.56641m6.54297-2.5664l1.86328 1.59765m-2.8164-1.22266l.93359.79688m12.8789-1.99219l-5.6289 4.20703m5.6289-4.20703l2.21875 1.04297m-3.03906-.42969l1.10938.51953m12.27343-1.875l-4.125 5.69141m4.125-5.6914l2.42969.33984m5.6211 1.0586l6.40234 2.89452m-5.47266-2.47265l-.07812-1.22266m12.37109 1.02734l6.58984 2.44141m-5.6328-2.08594l-.16017-1.21484m14.3086 5.2539l3.00781-6.34765m-2.57031 5.42578l-1.22656.05469m12.79297-.20313l5.6289-4.20312m6.98828 2.10156h7.02735m11.98828 2.7461l-4.375-5.4961m18.875 1.76172l-6.7461 1.97265m5.76563-1.6875l.85547.87891m13.04297-2.04297l-5.95313 3.73438m5.08594-3.1914l1.0664.60937m13.28125-.86329l-6.28125 3.15625m5.3672-2.69921l1 .71093m12.13671-2.4453l-4.09766 5.70702m3.5-4.8789l1.21875.16406m12.71485-.97656l-4.14063 5.67578m3.53907-4.85156l1.21484.17578m10.09375-1.63282l1.07812 6.94141m12.35938-6.96094l.83203 6.98047m15.39453-5.96484l-4.99219 4.94922m4.9922-4.94922l2.34374.73047m8.96485-1.73438l-.98047 6.95703m.98047-6.95703l2.30859-.83984m11.47656.9375l-1.91797 6.76172m1.91797-6.76172l2.39844-.51563m11.23047.6211l-2.54297 6.55078m2.54297-6.55078l2.4336-.28907m10.5039.16797l-1.79297 6.79297m1.79297-6.79297l2.39062-.5625m10.02735.44531v7.02735m0-7.02735l2.16797-1.15234m11.59765 1.17969l-.89453 6.97265m.89453-6.97265l2.29297-.86328m14.05469 4.82812l-6.96094-.95703m5.94922.8164l.42187 1.15235"/><g clip-path="url(#X)"><path fill="none" stroke="#000" stroke-linecap="round" stroke-linejoin="round" stroke-miterlimit="10" stroke-width=".5" d="M147.15234 372.25781l-6.30468 3.10156"/></g><path fill="none" stroke="#000" stroke-linecap="round" stroke-linejoin="round" stroke-miterlimit="10" stroke-width=".5" d="M147.15234 372.25781l1.9922 1.4336m11.44921-1.14844l-6.55469 2.53125m6.55469-2.53125l1.85547 1.60547m10.71484-2.77735l-5.0664 4.8711m5.0664-4.8711l2.33203.76563m9.40625-1.70703l-1.91406 6.75781m1.63672-5.77734l1.19922-.25782m11.7461-.84375l-.6211 7m.53125-5.98046l1.1289-.48047m11.27344-.48438l1.38672 6.89063m-1.1875-5.88672l.94922-.78125m11.02734.22265l3.66016 6m-3.125-5.125l.625-1.05859m15.3164 6.4336l-2.66015-6.50391m2.27344 5.5586l-.78516.9453m13.4336.25391l-.55079-7.00781m.46875 5.98828l-1.03515.65625m15.72656 0l-3.14063-6.28516m2.6836 5.3711l-.71094 1m13.5625.22656L276.5 370.35547m1.11328 5.90234l-.96094.76563m16.94922-1.625l-6.26953-3.17969m5.35547 2.71484l.02344 1.22657m14.58203-2.39844l-7.02344.09375m6.0039-.08203l.58985 1.07812m13.42969-2.4961l-6.39453 2.90626m5.46484-2.48438l.97266.7461m11.88672-2.72656l-3.625 6.01953m3.09765-5.14063l1.22656.0625m11.85157-1.28515l-2.09375 6.71093m1.78906-5.73437l1.20313-.22656m13.23828-.3711l-3.73829 5.95313m3.19532-5.08594l1.22265.08594m13.44532-.25l-5.35547 4.54687m4.57422-3.88672l1.14062.45313m12.38672-1.65235l-4.21875 5.6211m3.60156-4.80078l1.21485.1875m11.78515-1.50782l-2.35547 6.625m2.35547-6.625l2.42578-.35937m10.44922.23828l-1.47656 6.86719m1.47656-6.86719l2.35938-.67188m11.5625.85938l-2.6875 6.49219m2.6875-6.49219l2.4414-.23828m10.44141.08984l-1.82422 6.78516m1.82422-6.78516l2.39453-.54687m10.17969.4336l-.34375 7.01562m.34375-7.01563l2.22265-1.04687m-2.27343 2.0664l1.11328-.52344m11.1211-.36718l1.91796 6.75781m-1.91797-6.75781l1.77344-1.69922"/><g clip-path="url(#Y)"><path fill="none" stroke="#000" stroke-linecap="round" stroke-linejoin="round" stroke-miterlimit="10" stroke-width=".5" d="M145.6289 357.3789l-3.2578 6.22657"/></g><path fill="none" stroke="#000" stroke-linecap="round" stroke-linejoin="round" stroke-miterlimit="10" stroke-width=".5" d="M145.15625 358.28516l1.22656-.00782m12.32031-1.01171l-2.77343 6.45703m2.36719-5.51954l1.22265-.10156m12.7539-.71484l-3.28515 6.21484m3.28516-6.21484l2.45312-.00781m9.20703-.39844l.01953 7.02734m-.01953-7.02734l2.16407-1.16016m10.91797 1.16797L197.5039 364m-.48828-7.01172l2.07812-1.30078m10.38672 1.46875l2.1914 6.67578m-2.1914-6.67578l1.69922-1.77344m9.84765 3.07813l5.72657 4.0664m-4.89453-3.47656l.15625-1.21484m11.7539 3.38672l6.8711-1.46094m-6.8711 1.46094l-1.57812-1.87891M250.33594 364l.36719-7.01563m-.3125 5.9961l-1.11329.51953m13.28907.26953l2.53515-6.55469m14.91407 5.3125l-5.73047-4.0664m18.17187-.86328l-3.98047 5.78906m3.40235-4.94531l1.21875.13671m14.10547 1.125l-6.84766 1.57813m5.85156-1.34766l.80469.92579m12.42187-2.98829l-4.67578 5.2461m3.9961-4.48438l1.1914.28906m13.28907-.51953l-5.64844 4.1797m4.82812-3.57032l1.10547.52734m11.8789-2.13672l-3.34765 6.1797m2.86328-5.28126l1.22657.01172m13.38671-.30469l-4.96875 4.96875m4.2422-4.2461l1.17577.35938m12.60157-1.3203l-4.44141 5.4453m4.4414-5.4453l2.40626.47655m10.6289-.67968l-3.88281 5.85546m3.88281-5.85546l2.4414.23828m10.40235-.5l-2.9414 6.3789m2.9414-6.3789l2.45313-.14063m10.98047.19531l-3.17579 6.26954m3.17579-6.26954l2.45312-.04687m10.84375.03906l-3.14062 6.28516m3.14062-6.28516l2.45313-.0625m10.71093-.00781l-2.83984 6.42578m2.83984-6.42578l2.44532-.17969m10.03906-.07031l-1.17969 6.92578m1.17969-6.92578l2.32812-.77344m10.28907.72266l.21484 7.02344m-.1836-6l1.06641-.60938"/><g clip-path="url(#Z)"><path fill="none" stroke="#000" stroke-linecap="round" stroke-linejoin="round" stroke-miterlimit="10" stroke-width=".5" d="M142.07422 344.23828l3.85156 5.8789"/></g><path fill="none" stroke="#000" stroke-linecap="round" stroke-linejoin="round" stroke-miterlimit="10" stroke-width=".5" d="M155.1836 344.38281l4.26171 5.58985m-4.26172-5.58985l1.02344-2.22656m12.65625 1.98438l3.53516 6.07421m-3.53516-6.07421l1.29297-2.08594m-.78125 2.96875l.64844-1.03906m13.13281-.23047l1.57813 6.84765m-1.57813-6.84765l1.85156-1.60938m11.36328 1.63281l1.77735 6.80079m-1.77735-6.80079l1.8047-1.66015m10.71483 1.97656l3.3711 6.16797m-3.3711-6.16797l1.34766-2.04688m12.26563 1.90235l2.77343 6.45703m-2.37109-5.51563l.76953-.95703m10.33594 1.78516l6.39062 2.91797m-6.39062-2.91797l-.14844-2.44922m13.21094 3.23438l6.89453 1.34765m-5.89453-1.15234l-.35547-1.17188m12.64063 2.17188l6.94921-1.04297m-5.9375.89063l-.73047-.98438m13.33594-.88672l6.35156 3.0039m13.40235-2.79687l-6.53125 2.58985m5.58203-2.21094l.9336.79297m13.45702-.80078l-6.78125 1.85156m5.79297-1.58203l.83985.89062m13.32422-1.5625l-6.50391 2.65235m5.5586-2.26563l.9414.78516m12.1836-2.65235l-4.23048 5.61329m3.61329-4.79688l1.21093.19531m12.82032-.9336l-4.4297 5.45704m4.4297-5.45703l2.40625.47265m11.5.14063l-5.61329 4.23047m4.79688-3.61328l1.10938.51562m13.3203-.66406l-6.20702 3.29297m5.30078-2.8164l1.01953.6875m12.46484-2.11329l-4.73828 5.1914m4.73828-5.1914l2.3789.61328m10.02735-1.21484l-2.91797 6.39453m2.91797-6.39453l2.44922-.14453m10.1875-.08203l-1.5625 6.84765m1.5625-6.84765l2.3711-.64063m11.03906.66016l-1.75 6.8086m1.75-6.8086l2.38281-.57422m11.3711.71875l-2.62891 6.51953m2.6289-6.51953l2.4375-.25781m9.46094.0039l.20313 7.02735m-.20313-7.02735l2.13281-1.21094m12.83204 1.57032l-3.09766 6.3086m2.64844-5.39063l1.22656-.03907"/><g clip-path="url(#aa)"><path fill="none" stroke="#000" stroke-linecap="round" stroke-linejoin="round" stroke-miterlimit="10" stroke-width=".5" d="M141.02344 331.9961l5.95312 3.73437"/></g><path fill="none" stroke="#000" stroke-linecap="round" stroke-linejoin="round" stroke-miterlimit="10" stroke-width=".5" d="M154.2461 332.15234l6.13671 3.42188m-6.13672-3.42188l.05078-2.45312m.84375 2.94922l.05079-2.45313m12.41797 1.8711l6.03906 3.59375m-6.03906-3.59375l.12109-2.45313m.75781 2.97656l.1211-2.45312m12.35156 1.8711l5.96875 3.71093m-5.96875-3.71094l.16797-2.44922m.70312 2.98829l.16406-2.44922m12.42578 1.6953l5.67579 4.14063m-5.67578-4.14062l.34375-2.42969m.48046 3.03125l.17188-1.21484m13.15234-.20313l4.00781 5.77344m-4.0078-5.77344l1.125-2.17969m11.89843 2.40625l4.59375 5.32032m-3.92578-4.54688l.44531-1.14453m12.64063.04688l3.71484 5.96875m-3.17188-5.10157l.61329-1.05859m10.51172 2.9414l7.01171.46876m-5.99218-.40235l-.50391-1.11719m12.79688 1.0625l7.01562.44532m-5.9961-.38281l-.5039-1.1172m13.08594 2.6836l6.4414-2.8125m-5.5039 2.40235l-.96094-.76172m13.90625 2.0664l5.3086-4.60156m-4.53907 3.9336l-1.14453-.44141m14.70703 1.91797l3.27344-6.21875m14.03515 5.71484l-4.71484-5.21094m18.98047 1.42188l-6.61719 2.36719m5.65625-2.02344l.90625.82422m12.47266-2.54297l-4.82031 5.11328m4.11718-4.36719l1.1836.32422m10.51172-2.02344l-.17579 7.02344m.15235-6.0039l1.09765-.54688m10.30079.05469l3.70312 5.96875m-3.16406-5.10157l.61719-1.05859m17.375 2.15625l-6.72657 2.03906m6.72657-2.03906l1.73046 1.74219m10.57422-3.33203l-4.70703 5.21875m4.70703-5.21875l2.37891.59765m9.8125-1.28125l-2.45703 6.58594m2.45703-6.58594l2.42969-.32031m9.28906.11719l.73437 6.98828m-.6289-5.96875l1.01953-.6875m13.38672-.25l-1.66016 6.82812m1.41797-5.83593l1.1875-.3047m11.3086-.78124l.46093 7.01172m-.39453-5.98828l1.04688-.64844m14.30859.16015l-3.75 5.94532m3.20312-5.07813l1.22266.08985"/><g clip-path="url(#ab)"><path fill="none" stroke="#000" stroke-linecap="round" stroke-linejoin="round" stroke-miterlimit="10" stroke-width=".5" d="M141.23438 318.38281l5.53125 4.33203"/></g><path fill="none" stroke="#000" stroke-linecap="round" stroke-linejoin="round" stroke-miterlimit="10" stroke-width=".5" d="M154.49219 318.45703l5.64453 4.1836m-5.64453-4.1836l.36719-2.42969m.45312 3.03516l.1836-1.21094m11.875 1.3789l6.51562 2.63282m-6.51563-2.63281l-.2539-2.4375m1.20312 2.82031l-.1289-1.21875m12.43359 1l6.64063 2.30469m-6.64063-2.30469l-.375-2.42578m1.34375 2.76172l-.1914-1.21094m12.80859.28125l6.09765 3.4961m-6.09765-3.4961l.08203-2.45312m13.04297 2.83984l6.48047 2.71875m-5.53907-2.32031l-.11328-1.22266m12.28125 1.48438l6.88672 1.39843m-5.88281-1.1953l-.34766-1.17579m12.98438.0586l6.24219 3.22656m-5.33594-2.75782l-.01172-1.22656m12.22656 1.19922l6.625 2.34766m-5.66016-2.00782l-.17968-1.21093m12.46484 3.0078l6.75781-1.92968m-5.77343 1.64844l-.85157-.88281m13.37891 1.6914l6.36328-2.98437m-6.36328 2.98437l-1.96094-1.47265m15.66797 2.11328l5.58203-4.26563m-5.58203 4.26563l-2.23437-1.01953m16.13672 1.625l4.40625-5.47266m-3.76563 4.67578l-1.20313-.23047m15.17579 1.6875L318 317.15234m-1.54297 5.8047l-1.19531.27733m17.47265-.05078l-4.64843-5.26953m3.97265 4.5l-.42968 1.15235m15.59375-3.3711l-6.9922.70703m5.97267-.60546l.68359 1.01953m12.47656-3.40625l-4.64453 5.27343m3.96875-4.5039l1.1914.28125m11.875-1.63672l-2.79296 6.44922m2.38672-5.51172l1.22265-.09766m14.59766 2.03906l-6.99219.69141m5.97266-.58984l.67969 1.01953m12.45703-3.4336l-4.59766 5.31641m4.59766-5.3164l2.39062.54687m9.98828-1.1289l-2.72656 6.47656m2.72656-6.47657l2.44531-.21875m9.5625-.05468l-.10937 7.02734m.10938-7.02734l2.18359-1.1172m8.09375 2.77345l5.96484 3.71484m-5.09765-3.17578l.08203-1.22266m18.60937 1.23438l-6.52344 2.60937m19.19532-3.64844l-5.23438 4.6875"/><g clip-path="url(#ac)"><path fill="none" stroke="#000" stroke-linecap="round" stroke-linejoin="round" stroke-miterlimit="10" stroke-width=".5" d="M466.17969 318.20313l2.30469.84765"/></g><path fill="#00f" fill-rule="evenodd" d="M388.23828 467.64844h8.61719V457.5039h-8.61719v10.14453"/><path fill="azure" fill-rule="evenodd" d="M390.07031 459.33594h.83594v2.82422h3.28516v-2.82422h.83203v6.48047h-.83203v-2.91797h-3.28516v2.91797h-.83594v-6.48047"/><path fill="#00f" fill-rule="evenodd" d="M383.80078 436.57813h8.61719v-10.14454h-8.61719v10.14454"/><path fill="azure" fill-rule="evenodd" d="M385.63281 428.26563h.83203v2.82421h3.28907v-2.82421h.83203v6.48046h-.83203v-2.91406h-3.28907v2.91406h-.83203v-6.48046"/><path fill="#ff3030" fill-rule="evenodd" d="M295.72656 409.94922h7.69531v-10.14453h-7.6953v10.14453"/><path fill="azure" fill-rule="evenodd" d="M297.5586 401.63672h.83593v5.73828h3.1914v.74219h-4.02734v-6.48047"/><path fill="#00f" fill-rule="evenodd" d="M370.48438 401.07422h8.62109v-10.14844h-8.6211v10.14844"/><path fill="azure" fill-rule="evenodd" d="M372.3164 392.76172h.83594v2.82031h3.28516v-2.82031h.83203v6.47656h-.83203v-2.91406h-3.28516v2.91406h-.83593v-6.47656"/><path fill="#ff3030" fill-rule="evenodd" d="M242.46875 361.1289h7.6914v-10.14843h-7.6914v10.14844"/><path fill="azure" fill-rule="evenodd" d="M244.30078 352.8164h.83203v5.73829h3.19531v.73828h-4.02734v-6.47656"/><path fill="#ffffe0" fill-rule="evenodd" d="M344.8164 383.55078h22.1797v-10.1914h-22.1797v10.1914"/><path fill-rule="evenodd" d="M348.3164 375.1914h.50782v6.29688h-.78516v-4.49219h-1.38672v-.55468l.5586-.06641.25-.05078.23047-.08985.20312-.14453.17578-.20703.14063-.29687.10547-.39453m4.8125 0l.23046.01953.21875.05469.20704.08984.19921.1211.1836.14843.17187.17578.30079.42188.24218.49218.17969.54688.11328.57812.03906.59375-.03906.58985-.11328.58594-.17969.55468-.24219.5-.30078.42969-.17187.17969-.1836.15234-.19921.125-.20704.08985-.21875.05859-.23046.01953-.22657-.01953-.21875-.0586-.21093-.08984-.19532-.125-.18359-.15234-.17188-.17969-.30078-.42969-.24218-.5-.1797-.55469-.11327-.58593-.03906-.58985h.83593l.02735.5625.08203.50391.125.44531.16406.3711.1914.30078.20704.22265.22265.13672.22657.04688.22656-.04688.22265-.13672.21094-.22265.1914-.30078.16407-.3711.125-.44531.08203-.5039.02735-.5625-.02735-.5625-.08203-.5-.125-.4375-.16406-.36329-.1914-.29297-.21094-.21484-.22266-.13281-.22656-.04297-.22657.04297-.22265.13281-.20703.21484-.19141.29297-.16406.36328-.125.4375-.08203.5-.02735.5625h-.83594l.03907-.59375.11328-.57812.17969-.54688.24218-.49218.30079-.42188.17187-.17578.1836-.14844.1953-.1211.21094-.08983.21875-.0547.22657-.01952m4.95312 0l.23047.01953.21875.05469.20703.08984.19922.1211.1836.14843.17187.17578.30078.42188.24219.49218.17969.54688.11328.57812.03906.59375-.03906.58985-.11329.58594-.17968.55468-.24219.5-.30078.42969-.17188.17969-.18359.15234-.19922.125-.20703.08985-.21875.05859-.23047.01953-.22656-.01953-.21875-.0586-.21094-.08984-.19531-.125-.1836-.15234-.17187-.17969-.30078-.42969-.2461-.5-.17968-.55469-.10938-.58593-.03906-.58985h.83203l.03125.5625.08203.50391.125.44531.16406.3711.1875.30078.21094.22265.22266.13672.22656.04688.22656-.04688.22266-.13672.21094-.22265.1914-.30078.16407-.3711.125-.44531.08203-.5039.02734-.5625-.02734-.5625-.08203-.5-.125-.4375-.16407-.36329-.1914-.29297-.21094-.21484-.22266-.13281-.22656-.04297-.22656.04297-.22266.13281-.21094.21484-.1875.29297-.16406.36328-.125.4375-.08203.5-.03125.5625H356l.03906-.59375.10938-.57812.17969-.54688.24609-.49218.30078-.42188.17188-.17578.18359-.14844.19531-.1211.21094-.08983.21875-.0547.22656-.01952m4.95313 0l.38671.02734.35938.08203.32422.13672.27734.1875.23047.23828.17188.28516.10937.33203.03906.3789-.01953.27344-.0586.23438-.08593.19922-.11328.17187-.1289.14453-.14063.1211-.28516.1953.23047.1211.20703.14453.1836.17188.15234.19531.125.21094.08984.23047.0547.2461.01952.2539-.03515.3086-.10157.32812-.17187.32421-.23828.3086-.3086.26562-.375.21485-.21093.08203-.22657.0625-.24609.03515-.26172.01563-.25781-.01563-.24219-.03515-.22265-.0625-.20704-.08203-.35937-.21485-.28906-.26562-.22266-.3086-.15625-.32421-.09375-.32813-.03125-.3086h.83203l.02735.25391.07812.23438.125.21094.16016.1875.1914.15234.21875.11328.24219.07422.2539.02344.25391-.02344.24219-.07422.21875-.11328.19531-.15234.16016-.1875.1211-.21094.07812-.23438.02734-.2539-.02734-.2539-.07813-.23438-.1211-.21094-.16015-.1836-.19531-.15234-.21875-.11719-.24219-.0703-.2539-.02735-.25391.02734-.24219.07031-.21875.1172-.1914.15233-.16016.1836-.125.21094-.07813.23437-.02734.2539h-.83203l.01953-.2539.05469-.23828.09375-.22656.1211-.20703.15624-.19141.17969-.17188.20703-.15234.23438-.13281-.28907-.19531-.13671-.1211-.13282-.14453-.10937-.17187-.08985-.19922-.05468-.23438-.02344-.27344h.78906l.02344.21485.0664.1914.10157.16407.13672.14062.16796.10938.1875.08203.20704.05078.21875.01563.22265-.01563.20703-.05078.1875-.08203.16407-.10938.13671-.14062.10547-.16406.06641-.19141.02344-.21485-.02344-.21484-.0664-.1914-.10548-.16797-.13671-.14063-.16407-.10937-.1875-.08204-.20703-.05078-.22265-.01562-.21875.01562-.20704.05079-.1875.08203-.16796.10937-.13672.14063-.10156.16796-.06641.19141-.02344.21485h-.78906l.03906-.37891.10938-.33203.17187-.28516.23047-.23828.28125-.1875.32031-.13672.35938-.08203.38672-.02734"/><path fill="#ffffe0" fill-rule="evenodd" d="M248.53906 335.90625h22.17969v-10.1914h-22.17969v10.1914"/><path fill-rule="evenodd" d="M252.03906 327.54688h.50781v6.29687h-.78515v-4.49219h-1.39063v-.55469l.5586-.0625.2539-.05468.23047-.08985.20313-.14062.17187-.21094.14453-.29687.10547-.39454m4.8125 0l.23047.01954.21875.05468.20703.08985.19531.1211.1836.14843.17187.17578.3047.42188.24218.49218.17969.54688.10937.57812.03906.59375-.03906.59375-.10937.58203-.1797.5547-.24218.5-.30469.42968-.17187.17969-.1836.15234-.1953.125-.20704.08984-.21875.0586-.23047.01953-.23047-.01953-.21875-.0586-.20703-.08984-.19531-.125-.1836-.15234-.17187-.1797-.30469-.42968-.24218-.5-.1797-.55469-.10937-.58203-.03906-.59375h.83203l.02735.5625.08203.5039.1289.44532.16016.375.1914.30078.21094.21875.22266.13672.22656.04688.22656-.04688.22266-.13672.21094-.21875.1914-.30078.16016-.375.1289-.44531.07813-.5039.03125-.5625-.03125-.5625-.07812-.5-.1289-.4375-.16017-.36329-.1914-.29297-.21094-.21484-.22265-.13281-.22657-.04297-.22656.04297-.22266.1328-.21093.21485-.19141.29297-.16016.36328-.1289.4375-.08203.5-.02735.5625h-.83203l.03906-.59375.10938-.57812.17969-.54688.24218-.49219.3047-.42187.17187-.17578.18359-.14844.19531-.1211.20703-.08984.21875-.05468.23047-.01954m4.95313 0l.23047.01954.21875.05468.20703.08985.19531.1211.1836.14843.17187.17578.30078.42188.2461.49218.17968.54688.10938.57812.03906.59375-.03906.59375-.10938.58203-.17969.5547-.24609.5-.30078.42968-.17188.17969-.18359.15234-.19531.125-.20703.08984-.21875.0586-.23047.01953-.23047-.01953-.21875-.0586-.20703-.08984-.19531-.125-.1875-.15234-.16797-.1797-.3047-.42968-.24218-.5-.17969-.55469-.11328-.58203-.03515-.59375h.83203l.02734.5625.08203.5039.1289.44532.16017.375.1914.30078.21094.21875.22265.13672.22657.04688.22656-.04688.22266-.13672.21093-.21875.19141-.30078.16016-.375.125-.44531.08203-.5039.03125-.5625-.03125-.5625-.08203-.5-.125-.4375-.16016-.36329-.1914-.29297-.21094-.21484-.22266-.13281-.22656-.04297-.22656.04297-.22266.1328-.21094.21485-.1914.29297-.16016.36328-.1289.4375-.08204.5-.02734.5625h-.83203l.03515-.59375.11328-.57812.1797-.54688.24218-.49219.30469-.42187.16796-.17578.1875-.14844.19532-.1211.20703-.08984.21875-.05468.23047-.01954m4.95312 0l.38672.02735.35938.08594.3203.1328.28126.1875.23047.23829.17187.28516.10938.33203.03906.3789-.02344.27344-.05469.23438-.08984.19921-.11328.17188-.1289.14453-.13673.1211-.28906.1953.23438.1211.20703.14453.17969.17188.15625.19531.12109.21094.09375.23047.05469.24609.01953.2539-.03516.3125-.10547.32423-.17187.32421-.23828.3086-.3086.26953-.37109.21484-.21094.07813-.23047.0625-.24218.03906-.26172.01172-.26172-.01172-.24219-.03906-.22265-.0625-.20313-.07813-.35938-.21484-.28906-.26953-.22265-.3086-.16016-.32421-.09375-.32422-.02734-.3125h.83203l.02734.2539.07813.23438.12109.21484.16016.1836.1953.15234.21876.11328.23828.07422.25781.02344.2539-.02344.2422-.07422.21875-.11328.1914-.15235.16016-.18359.125-.21484.07812-.23438.02344-.2539-.02344-.25-.07812-.23829-.125-.21093-.16016-.1836-.1914-.15234-.21875-.11719-.2422-.07031-.2539-.02734-.25781.02734-.23828.07031-.21875.11719-.19531.15234-.16016.1836-.1211.21094-.07812.23828-.02734.25h-.83203l.01953-.25391.05469-.23828.08984-.22266.125-.21094.15234-.1875.1836-.17578.20703-.15234.23047-.13281-.28516-.19531-.14063-.1211-.1289-.14453-.11328-.17188-.08594-.19921-.0586-.23438-.01952-.27344h.78515l.02344.21485.0664.1914.10547.16407.13672.14062.16406.11328.1875.07813.20704.05078.22265.01953.21875-.01953.20703-.05078.1875-.07813.16797-.11328.13672-.14062.10156-.16407.06641-.1914.02344-.21485-.02344-.21484-.0664-.1914-.10157-.16798-.13672-.13671-.16797-.11329-.1875-.08203-.20703-.05078-.21875-.01562-.22265.01562-.20704.05078-.1875.08204-.16406.11328-.13672.13671-.10546.16797-.06641.19141-.02344.21484h-.78515l.03906-.3789.10547-.33203.17578-.28516.23047-.23828.27734-.1875.32422-.13281.35937-.08594.38672-.02735"/><path fill="#ffffe0" fill-rule="evenodd" d="M199.71484 387.49219h22.1836v-10.1914h-22.1836v10.1914"/><path fill-rule="evenodd" d="M203.21484 379.13281h.51172v6.29297h-.78906v-4.48828h-1.38672v-.55469l.5586-.0664.2539-.0547.22656-.08593.20313-.14453.17578-.20703.14063-.29688.10546-.39453m4.81641 0l.22656.01953.21875.0547.21094.08983.19531.1211.1836.14844.17187.17578.30078.42187.24219.49219.17969.54688.11328.57812.03906.58984-.03906.59375-.11328.58594-.17969.55469-.24219.5-.30078.42969-.17187.17968-.1836.15235-.19531.125-.21094.08984-.21875.0586-.22656.01953-.23047-.01954-.21875-.05859-.20703-.08984-.19922-.125-.1836-.15235-.17187-.17968-.30078-.4297-.24219-.5-.17968-.55468-.11328-.58594-.03907-.59375h.83594l.02734.56641.08203.5039.125.44141.16407.375.1914.30078.21094.22266.22266.13672.22656.04687.22656-.04687.22266-.13672.21094-.22266.1875-.30078.16406-.375.125-.4414.08203-.50391.03125-.5664-.03125-.5586-.08203-.5-.125-.4375-.16406-.36719-.1875-.28906-.21094-.21484-.22266-.13282-.22656-.04296-.22656.04296-.22266.13282-.21094.21484-.1914.28906-.16406.36719-.125.4375-.08204.5-.02734.5586h-.83594l.03906-.58985.11329-.57813.17968-.54687.2422-.49219.30077-.42187.17188-.17578.1836-.14844.19921-.1211.20703-.08984.21875-.05469.23047-.01953m4.94922 0l.23047.01953.21875.0547.20703.08983.19922.1211.1836.14844.17187.17578.30078.42187.24219.49219.17968.54688.11328.57812.03907.58984-.03907.59375-.11328.58594-.17969.55469-.24218.5-.30078.42969-.17188.17968-.1836.15235-.19921.125-.20703.08984-.21875.0586-.23047.01953-.22656-.01954-.21875-.05859-.21094-.08984-.19531-.125-.1836-.15235-.17187-.17968-.30078-.4297-.2422-.5-.17968-.55468-.11328-.58594-.03906-.59375h.83594l.02734.56641.08203.5039.125.44141.16406.375.1914.30078.20704.22266.22266.13672.22656.04687.22656-.04687.22266-.13672.21094-.22266.1914-.30078.16406-.375.125-.4414.08203-.50391.02735-.5664-.02734-.5586-.08204-.5-.125-.4375-.16406-.36719-.1914-.28906-.21094-.21484-.22266-.13282-.22656-.04296-.22656.04296-.22266.13282-.20703.21484-.1914.28906-.16407.36719-.125.4375-.08203.5-.02734.5586h-.83594l.03906-.58985.11328-.57813.17969-.54687.24219-.49219.30078-.42187.17187-.17578.1836-.14844.1953-.1211.21095-.08984.21875-.05469.22656-.01953m4.95312 0l.38672.02735.35938.08203.32422.13672.27734.1875.23047.23828.17578.28515.10547.33204.03906.3789-.01953.27344-.0586.23437-.08593.19922-.11328.17188-.1289.14062-.14063.125-.28516.19531.23047.1211.20703.14453.1836.17188.15234.1953.125.21094.08984.23047.05469.2461.01953.2539-.03516.3086-.10156.32812-.17187.32422-.23828.30469-.3086.26953-.375.21484-.21094.08204-.22656.0625-.2461.03515-.26171.01563-.25781-.01563-.2422-.03515-.22265-.0625-.20703-.08204-.35937-.21484-.28907-.26953-.22265-.30469-.15625-.32422-.09375-.32812-.03125-.3086h.83594l.02343.25391.07813.23438.125.21093.16015.1875.19141.15235.21875.11328.24219.07031.2539.02734.25782-.02734.23828-.07031.21875-.11328.19531-.15235.16016-.1875.12109-.21094.07813-.23437.02734-.2539-.02734-.25391-.07813-.23438-.1211-.21094-.16015-.1875-.19531-.15234-.21875-.11328-.23828-.07031-.25782-.02735-.2539.02735-.24219.07031-.21875.11328-.1914.15235-.16016.1875-.125.21093-.07813.23438-.02344.2539h-.83593l.01953-.2539.05469-.23828.09375-.22657.12109-.20703.15625-.1914.17969-.17188.20703-.15234.23437-.13281-.28906-.19532-.13672-.125-.1289-.14062-.11328-.17188-.08985-.19922-.05469-.23437-.02343-.27344h.78906l.02344.21094.0664.1914.10156.16797.13672.14063.16797.10937.1875.08204.20703.05078.21875.01562.22266-.01562.20703-.05079.1875-.08203.16406-.10937.13672-.14063.10547-.16796.0664-.19141.02345-.21094-.02344-.21484-.0664-.1914-.10548-.16798-.13672-.14062-.16406-.10938-.1875-.08203-.20703-.05078-.22266-.01563-.21875.01563-.20703.05078-.1875.08203-.16797.10938-.13672.14062-.10156.16797-.0664.1914-.02344.21485h-.78906l.03906-.3789.10937-.33204.17188-.28515.23047-.23828.28125-.1875.32031-.13672.35938-.08203.38671-.02735"/><path fill="#ffffe0" fill-rule="evenodd" d="M341.74219 426.34766h22.1836v-10.19141h-22.1836v10.1914"/><path fill-rule="evenodd" d="M345.24219 417.98828h.51172v6.29688h-.78907v-4.4922h-1.38671v-.55468l.55859-.0625.2539-.05469.22657-.08984.20312-.14063.17578-.21093.14063-.29688.10547-.39453m4.8164 0l.22657.01953.21875.05469.21093.08984.19532.1211.18359.14844.17188.17578.30078.42187.24218.49219.1797.54687.11327.57813.03906.59375-.03906.59375-.11328.58203-.17969.55469-.24218.5-.30079.42969-.17187.17968-.1836.15235-.1953.125-.21094.08984-.21875.0586-.22657.01952-.23046-.01953-.21875-.05859-.20704-.08984-.19921-.125-.1836-.15235-.17187-.17969-.30079-.42968-.24218-.5-.17969-.55469-.11328-.58203-.03906-.59375h.83593l.02735.5625.08203.5039.125.44532.16406.375.1914.30078.21094.21875.22266.13672.22656.04687.22657-.04687.22265-.13672.21094-.21875.1875-.30078.16406-.375.125-.44531.08203-.50391.03125-.5625-.03125-.5625-.08203-.5-.125-.4375-.16406-.36328-.1875-.29297-.21094-.21485-.22265-.1328-.22657-.04298-.22656.04297-.22265.13281-.21094.21485-.1914.29297-.16407.36328-.125.4375-.08203.5-.02735.5625h-.83593l.03906-.59375.11328-.57813.17969-.54687.24219-.49219.30078-.42187.17187-.17579.1836-.14843.19921-.1211.20704-.08984.21875-.05469.23046-.01953m4.94922 0l.23047.01953.21875.05469.20703.08984.19922.1211.1836.14844.17187.17578.30078.42187.24219.49219.17969.54687.11328.57813.03906.59375-.03906.59375-.11328.58203-.1797.55469-.24218.5-.30078.42969-.17188.17968-.18359.15235-.19922.125-.20703.08984-.21875.0586-.23047.01952-.22656-.01953-.21875-.05859-.21094-.08984-.19531-.125-.1836-.15235-.17187-.17969-.30078-.42968-.24219-.5-.17969-.55469-.11328-.58203-.03906-.59375h.83594l.02734.5625.08203.5039.125.44532.16407.375.1914.30078.20703.21875.22266.13672.22656.04687.22656-.04687.22266-.13672.21094-.21875.1914-.30078.16407-.375.125-.44531.08203-.50391.02734-.5625-.02734-.5625-.08203-.5-.125-.4375-.16406-.36328-.19141-.29297-.21094-.21485-.22265-.1328-.22657-.04298-.22656.04297-.22266.13281-.20703.21485-.1914.29297-.16407.36328-.125.4375-.08203.5-.02734.5625h-.83594l.03906-.59375.11329-.57813.17968-.54687.24219-.49219.30078-.42187.17188-.17579.18359-.14843.19531-.1211.21094-.08984.21875-.05469.22656-.01953m4.95313 0l.38672.02735.35937.08593.32422.13281.27734.1875.23047.23829.17578.28515.10547.33203.03906.37891-.01953.27344-.05859.23437-.08594.19922-.11328.17188-.1289.14453-.14063.1211-.28516.1953.23047.1211.20703.14453.1836.17187.15234.19532.125.21093.08985.23047.05468.2461.01953.2539-.03125.3125-.10546.32422-.17188.32422-.23828.3086-.3086.26952-.375.21485-.21093.07812-.22656.0625-.2461.03907-.26172.01171-.25781-.01171-.24219-.03907-.22265-.0625-.20704-.07812-.35937-.21485-.28906-.26953-.22266-.30859-.15625-.32422-.09375-.32422-.03125-.3125h.83594l.02734.2539.07422.23438.125.21485.16016.1836.1914.15233.22266.11329.23828.07421.2539.02344.25782-.02344.23828-.07421.21875-.11329.19531-.15234.16016-.1836.1211-.21484.07812-.23437.02734-.2539-.02734-.25-.07813-.23829-.12109-.21094-.16016-.18359-.1953-.15234-.21876-.1172-.23828-.0703-.25781-.02735-.2539.02735-.23829.0703-.22266.1172-.1914.15234-.16016.1836-.125.21093-.07422.23828-.02734.25h-.83594l.01953-.2539.0586-.23829.08984-.22265.1211-.21094.15624-.1875.1797-.17578.20702-.15234.23438-.13282-.28906-.1953-.13672-.1211-.12891-.14453-.11328-.17188-.08594-.19922-.0586-.23437-.01952-.27344h.78515l.02344.21484.0664.19141.10157.16406.13672.14063.16797.11328.1875.07812.20703.05079.21875.01953.22265-.01954.20704-.05078.1875-.07812.16406-.11328.13672-.14063.10546-.16406.06641-.1914.02344-.21485-.02344-.21484-.0664-.19141-.10547-.16797-.13672-.13672-.16406-.11328-.1875-.08203-.20704-.05078-.22265-.01563-.21875.01563-.20703.05078-.1875.08203-.16797.11328-.13672.13672-.10156.16797-.06641.1914-.02344.21485h-.78515l.03515-.3789.10938-.33204.17187-.28515.23047-.23829.28125-.1875.32031-.1328.35938-.08594.38672-.02735"/><path fill="#ffffe0" fill-rule="evenodd" d="M412.75781 438.88281h22.17969v-10.1914h-22.17969v10.1914"/><path fill-rule="evenodd" d="M416.25781 430.52344h.50781v6.29687h-.78515v-4.49219h-1.39063v-.55468l.5625-.0664.25-.05079.23047-.08984.20313-.14454.17187-.20703.14453-.29687.10547-.39453m4.8125 0l.23047.01953.21875.05469.20703.08984.19531.1211.1875.14843.16797.17578.3047.42188.24218.49219.17969.54687.11328.57813.03515.59375-.03515.58984-.11328.58594-.1797.55468-.24218.5-.30469.4297-.16796.17968-.1875.15234-.19532.125-.20703.08985-.21875.05859-.23047.01953-.23047-.01953-.21875-.0586-.20703-.08984-.19531-.125-.1836-.15234-.17187-.17969-.30078-.42969-.2461-.5-.17968-.55468-.10938-.58594-.03906-.58985h.83203l.03125.5625.08203.50391.125.44531.16016.3711.1914.30078.21094.22265.22266.13672.22656.04688.22656-.04688.22266-.13671.21094-.22266.1914-.30078.16016-.3711.1289-.4453.08204-.50392.02734-.5625-.02734-.5625-.08203-.5-.1289-.4375-.16017-.36328-.1914-.29296-.21094-.21485-.22265-.13281-.22657-.04297-.22656.04297-.22266.13281-.21093.21485-.19141.29296-.16016.36329-.125.4375-.08203.5-.03125.5625h-.83203l.03906-.59375.10938-.57813.17969-.54688.24609-.49218.30078-.42188.17188-.17578.18359-.14844.19531-.12109.20703-.08984.21875-.0547.23047-.01952m4.95313 0l.23047.01953.21875.05469.20703.08984.19531.1211.1836.14843.17187.17578.30469.42188.24218.49219.1797.54687.10937.57813.03906.59375-.03906.58984-.10938.58594-.17969.55468-.24218.5-.3047.4297-.17187.17968-.18359.15234-.19531.125-.20703.08985-.21875.05859-.23047.01953-.23047-.01953-.21875-.0586-.20703-.08984-.19531-.125-.1836-.15234-.17187-.17969-.3047-.42969-.24218-.5-.17969-.55468-.10937-.58594-.03906-.58985h.83203l.02734.5625.08203.50391.1289.44531.16017.3711.1914.30078.21094.22265.22265.13672.22657.04688.22656-.04688.22266-.13671.21093-.22266.19141-.30078.16016-.3711.1289-.4453.07813-.50392.03125-.5625-.03125-.5625-.07813-.5-.1289-.4375-.16016-.36328-.1914-.29296-.21094-.21485-.22266-.13281-.22656-.04297-.22656.04297-.22266.13281-.21094.21485-.1914.29296-.16016.36329-.1289.4375-.08204.5-.02734.5625h-.83203l.03906-.59375.10937-.57813.1797-.54688.24218-.49218.30469-.42188.17187-.17578.1836-.14844.1953-.12109.20704-.08984.21875-.0547.23047-.01952m4.95312 0l.38672.02734.35938.08203.3203.13672.28126.1875.23047.23828.17187.28516.10938.33203.03906.3789-.02344.27344-.05469.23438-.08984.19922-.10937.17187-.12891.14453-.14063.1211-.28906.19531.23438.1211.20703.14452.1836.17188.15234.19531.12109.21094.09375.23047.05469.2461.01953.2539-.03516.3086-.10156.32812-.17188.32422-.24218.30859-.30469.26563-.375.21484-.21094.08203-.23047.0625-.24218.03516-.26172.01562-.26172-.01562-.23828-.03516-.22656-.0625-.20313-.08203-.35938-.21485-.28906-.26562-.22265-.3086-.16016-.32421-.08984-.32813-.03125-.3086h.83203l.02734.25392.07813.23437.12109.21094.16016.1875.1953.15234.21876.11328.24219.07422.2539.02344.2539-.02344.2422-.07422.21875-.11328.1914-.15234.16406-.1875.1211-.21094.07812-.23438.02735-.2539-.02735-.2539-.07812-.23438-.1211-.21094-.16406-.1836-.1914-.15234-.21875-.11719-.2422-.0703-.2539-.02735-.2539.02734-.2422.07031-.21874.1172-.19531.15234-.16016.18359-.1211.21094-.07812.23437-.02734.2539h-.83203l.01953-.2539.05469-.23828.08984-.22656.125-.20703.15234-.1914.1836-.17188.20703-.15235.23047-.13281-.28516-.19531-.14063-.1211-.1289-.14453-.10938-.17187-.08984-.19922-.0586-.23438-.01952-.27343h.78515l.02344.21484.0664.1914.10547.16407.13672.14062.16406.10938.1875.08203.20704.05078.22265.01563.21875-.01563.20703-.05078.19141-.08203.16406-.10938.13672-.14062.10156-.16406.06641-.19141.02344-.21484-.02344-.21485-.0664-.1914-.10157-.16797-.13672-.14063-.16406-.10937-.1914-.08203-.20704-.05079-.21875-.01562-.22265.01563-.20704.05078-.1875.08203-.16406.10937-.13672.14063-.10546.16797-.06641.1914-.02344.21485h-.78515l.03906-.37891.10937-.33203.17188-.28516.23047-.23828.27734-.1875.32422-.13672.35937-.08203.38672-.02734"/></g></defs><use xlink:href="#ad"/></svg>