<svg xmlns="http://www.w3.org/2000/svg" role="img" xmlns:xlink="http://www.w3.org/1999/xlink" viewBox="142.45 309.95 326.84 171.84"><defs><clipPath id="a"><path d="M144 443h1v37.32813h-1zm0 0"/></clipPath><clipPath id="b"><path d="M144 311.67188h1V437h-1zm0 0"/></clipPath><clipPath id="c"><path d="M144 311.67188h324v168.65625H144zm0 0"/></clipPath><clipPath id="d"><path d="M370 441h31v39.32813h-31zm0 0"/></clipPath><clipPath id="e"><path d="M467 311.67188h1v168.65625h-1zm0 0"/></clipPath><clipPath id="f"><path d="M144 479h4v1.32813h-4zm0 0"/></clipPath><clipPath id="g"><path d="M147 480h2v.32813h-2zm0 0"/></clipPath><clipPath id="h"><path d="M146 480h1v.32813h-1zm0 0"/></clipPath><clipPath id="i"><path d="M153 479h9v1.32813h-9zm0 0"/></clipPath><clipPath id="j"><path d="M160 480h2v.32813h-2zm0 0"/></clipPath><clipPath id="k"><path d="M159 480h2v.32813h-2zm0 0"/></clipPath><clipPath id="l"><path d="M166 479h9v1.32813h-9zm0 0"/></clipPath><clipPath id="m"><path d="M173 480h3v.32813h-3zm0 0"/></clipPath><clipPath id="n"><path d="M172 480h2v.32813h-2zm0 0"/></clipPath><clipPath id="o"><path d="M180 478h8v2.32813h-8zm0 0"/></clipPath><clipPath id="p"><path d="M186 480h1v.32813h-1zm0 0"/></clipPath><clipPath id="q"><path d="M193 478h8v2.32813h-8zm0 0"/></clipPath><clipPath id="r"><path d="M207 478h7v2.32813h-7zm0 0"/></clipPath><clipPath id="s"><path d="M220 478h8v2.32813h-8zm0 0"/></clipPath><clipPath id="t"><path d="M233 479h8v1.32813h-8zm0 0"/></clipPath><clipPath id="u"><path d="M239 480h2v.32813h-2zm0 0"/></clipPath><clipPath id="v"><path d="M247 477h7v3.32813h-7zm0 0"/></clipPath><clipPath id="w"><path d="M261 477h5v3.32813h-5zm0 0"/></clipPath><clipPath id="x"><path d="M275 476h4v4.32813h-4zm0 0"/></clipPath><clipPath id="y"><path d="M288 477h5v3.32813h-5zm0 0"/></clipPath><clipPath id="z"><path d="M302 476h4v4.32813h-4zm0 0"/></clipPath><clipPath id="A"><path d="M316 476h3v4.32813h-3zm0 0"/></clipPath><clipPath id="B"><path d="M327 477h7v3.32813h-7zm0 0"/></clipPath><clipPath id="C"><path d="M340 478h8v2.32813h-8zm0 0"/></clipPath><clipPath id="D"><path d="M353 479h8v1.32813h-8zm0 0"/></clipPath><clipPath id="E"><path d="M353 479h2v1.32813h-2zm0 0"/></clipPath><clipPath id="F"><path d="M366 478h8v2.32813h-8zm0 0"/></clipPath><clipPath id="G"><path d="M366 480h3v.32813h-3zm0 0"/></clipPath><clipPath id="H"><path d="M380 478h8v2.32813h-8zm0 0"/></clipPath><clipPath id="I"><path d="M378 480h3v.32813h-3zm0 0"/></clipPath><clipPath id="J"><path d="M393 478h8v2.32813h-8zm0 0"/></clipPath><clipPath id="K"><path d="M391 480h4v.32813h-4zm0 0"/></clipPath><clipPath id="L"><path d="M407 478h7v2.32813h-7zm0 0"/></clipPath><clipPath id="M"><path d="M404 480h4v.32813h-4zm0 0"/></clipPath><clipPath id="N"><path d="M406 480h3v.32813h-3zm0 0"/></clipPath><clipPath id="O"><path d="M420 477h7v3.32813h-7zm0 0"/></clipPath><clipPath id="P"><path d="M435 476h4v4.32813h-4zm0 0"/></clipPath><clipPath id="Q"><path d="M448 476h4v4.32813h-4zm0 0"/></clipPath><clipPath id="R"><path d="M462 476h3v4.32813h-3zm0 0"/></clipPath><clipPath id="S"><path d="M144 466h4v2h-4zm0 0"/></clipPath><clipPath id="T"><path d="M144 452h4v3h-4zm0 0"/></clipPath><clipPath id="U"><path d="M144 439h4v3h-4zm0 0"/></clipPath><clipPath id="V"><path d="M144 425h4v4h-4zm0 0"/></clipPath><clipPath id="W"><path d="M144 412h4v4h-4zm0 0"/></clipPath><clipPath id="X"><path d="M466 411h2v3h-2zm0 0"/></clipPath><clipPath id="Y"><path d="M144 398h4v5h-4zm0 0"/></clipPath><clipPath id="Z"><path d="M465 397h3v2h-3zm0 0"/></clipPath><clipPath id="aa"><path d="M144 385h4v4h-4zm0 0"/></clipPath><clipPath id="ab"><path d="M144 372h4v4h-4zm0 0"/></clipPath><clipPath id="ac"><path d="M144 356h1v9h-1zm0 0"/></clipPath><clipPath id="ad"><path d="M144 357h2v2h-2zm0 0"/></clipPath><clipPath id="ae"><path d="M144 344h3v7h-3zm0 0"/></clipPath><clipPath id="af"><path d="M144 331h4v6h-4zm0 0"/></clipPath><clipPath id="ag"><path d="M465 331h3v2h-3zm0 0"/></clipPath><clipPath id="ah"><path d="M144 318h4v5h-4zm0 0"/></clipPath><clipPath id="ai"><path d="M466 318h2v2h-2zm0 0"/></clipPath><clipPath id="aj"><path d="M465 318h3v3h-3zm0 0"/></clipPath><g id="ak" clip-path="url(#clip1)"><path fill="#fff" fill-opacity="0" fill-rule="evenodd" d="M0 0h1000v1000H0zm0 0"/><path fill="#d3d3d3" fill-opacity="0" fill-rule="evenodd" d="M162.15234 355.86719l-.23437.29297.0586.23437.11718.17188.17578.23437.29297.34766.11328.0586.11719-.17188.0586-.23438.17577-.17578.46485-.17578h.69922l.23437.29297.28906.8164.0586.17579.17578.23046.35156.23438.69922.69922.17188.17578.23437.34765.23438.41016.28906.58203.41015.46485.23047.23437.23438.17578.11719.23047.17578.29297.17187 1.16406v.23438l.0586.28906.05859.11719.11719.11719.34765.41015.11719.17188.17578.17578.17578.23437.11719.17188.17188.35156.05859.23438.23437.40625.23438-.0586-.17578.17578-.0586.92969h-.58203l-.23437-.11328-.34766.11328-.11719.11719-.05859.29297-.0586.17578-.11718.17187-.46484.29297-.0586.23438-.0586.11328v.64453l.0586.17187v.41016l.0586.0586v.40624l.05859.40625.11719.17579.05859.05859.23047.64062-.0586.29297v.69922l-.05859.58203v.23438l-.0586.23047-.05468.35156v1.92187l.05469.1172h.42578l-.36719.11718-.02344.35156.89063 1.16797 1.74219.53906 1.33984.35938v.53906l.08984.8086.53516.71484 1.51953.26953.89063-.08594.08984 1.16406.53516.1797 1.16015-.1797 2.05469-.98437 1.16016-.36328 1.8789-.17578 1.69531-.1797-.17968.71876-1.51563.08594-1.25.08984-.80469.26953-1.07421.8086.26953.71875.53515.89843-.17968.625-.26563.8086.26563 1.07812.625.89844.80468.17969 1.25-.1797-.26562.72267.09766.5039.05468.29297v.17188l.0586.29296v.40625l.17578.1172.35156.11718h.40625l.29297-.17578.11328-.11719.0586-.11719.11718-.23047.0586-.17578.35156-.46484.23047-.17578.17578-.0586.17578.0586.0586.17578.11718.98828.05469.46875.0586.17188.11718.23437.17578.0586.8164.05859h.28907l.11719.23437.05859.40625.0586.35156v1.10547l.11718.29297.11719.34766.28906.69922.17578.35156.58203.7539.35157.17579.17187.0586.46875.23437.64063.46484.34765.23438.29297.17578.29297.05468.23047.0625.8164.34766.29297.17578.11328.17188.35157.35156.11719.17578.52343.64063v.28906l.0586.35156v.34766l.05859.35156.0586.28906.11718.0586.17188.05859h.17578l.58203.23437.17578.1172.17578.28905.17578.23438.11328.23437.29297.23047.11719.11719v.41016l.0586.05468.28906.23438.23437.11719.0586.11718.11718.17188.0586.11719.23047.23437.05859.17578.23437.0586.1172.05859-.1172.11328-.05859.11719v.11719l-.11719.29296-.11719.28907v.58203l.17579.11719.11718.05859.0586.11719.11719.11719.11328.05859.17578.34765.0586.35157.05858.40625v.17578l-.05859.17578-.11719.69922v.17187l.1172.17579.29296.29296h.40625l.17578.1172.11719.17187.11719.29296v.23438h-.52735l-.23047-.23438h-.23437l-.17578.0586-.0586.69922.0586.34765.11719.17579.17578.41015.11718.23047.28907.46875.17578.05469h.52344l.23437.0586.75781.64062.0586.29296v.23438l.05859.0586.23047.34765v.35156l-.11719.17188v.29297l.29297.28906.29297.17578.17187.0586.29297.17577.29297.1172.58203.40624.28906.23438.29297.17578.21875.16015.01563.01172.23047.17579.64062.52343.17578.23438.1172.17578.17577.17578.11328.17188v.64062l.1172.17578.46874.11719.58203.11719.23438.05859.23047.11328.29297.11719.11328.0586.58593.35156.28907.17187.17578.0625.17578.05469.17578.0586.69922.35155.28906.17579.23438.05468.28906.17578.23437.1172.64063.40624.29297.11719.17187.0586.23438.05859.41015.05859.23047.0586.23438.11718.0586.17188-.41017.17578.46875.0586.0586.29296.11328.23438.17578.05468.23438.0586.17578.05859.40625.11719.64062.23437.11719.17188.0586.23437v.17578l-.0586.1172-.0586.40624.23438.23438.11719.05859.34766.11719.64062.23047.17578.11718.28906.1172.17578.17577.23438.46485.58203 1.10546.17578.17579.34766.17578.17578.11719.35156.11718 1.04688.52344.23437.0586.46485.11327.29297.0586.46484.17578.75781.58203.23438.23438.34765.46484.17578.17578.28907.23438.8164.69921.29297.17579.28906.28906.29297.17578.29297.28906.69531.64063.17578.17578.29297.23437.28907.23438.46875.28906.64062.58203.34766.23438.23437.29297.34766.34765.35156.46485.9336.99218.34765.40625.11719.17579.23437.05859.11328.11719.64454.17578.23047.11328.23437.0586.29297.17577.23047.1172.9336.69921.40624.40625.23438.17578.40625.17578.23437.11719.8164.34766.34766.23437.23438.11719.29297.28906.23047.11719.7578.35156.35157.17188.23047.05859.29297.11719.23437.0586.8711.17577h.8164l.46875.23047.17188.0586.875.69921.46484.1172.29297.05858.17578.0586.23047.0586.46875.05859.34766.05859.35156.0586.40625.05859h.29297l.17187.0586v.23046l.17578.17578h.29297l.34766.0586.35156.05859.69922.11719h.64063l.46484-.23438.29297-.17578.17187-.11719.41016-.17187.28906-.17578.9336-.46485.46875-.29297.52343-.29296.46485-.17188.46484-.17578 1.05078-.46485.28906-.11718.41016-.11719.28906-.11719.52735-.17578 1.51562-.69922.58203-.34765.28907-.0586.29297-.0586.34765-.11718.875-.23047.35156-.11719h.11329l.23437-.05859.875-.23437.23438-.0586h.8125l.35156-.0586.8164-.11718.17188-.0586.35156-.05468.29297-.0586.23047-.05859.8164-.17578.17579-.0586h.34765l.23438-.05859.46484-.11718.75781-.17188.23438-.0586h.34765l.41016-.11718.28906-.0586 1.28516-.05859h.28906l.41016-.0586.23047-.05858h.17578l.875-.1172h.40625l.41015-.11718h.34766l.35156-.11328.8711-.0586h1.75l1.04687.28907.41016.11719.28906.11718.35156.11719.28907.11719 1.05078.17187.28906.0586h.29297l.29297.05859.17187.0586.41016.05859.17187.0586.1172.05858h.11718l.11719.0586.35156.0586h.11328l.41016.0664 1.92187.39453 1.92578.39453 1.51953.44922 1.69532.71875 2.14453.80469 1.60547-.71875 1.42968-.80469 1.16016-1.07813 1.25-.44921 3.03516-.71875 1.875-.35938 2.14453-1.34765 2.23437-1.25391 2.5-1.25781 1.69531-.44922 1.78516-.17969 1.16016-.26953.625.53906 1.33984-.26953.71485-.98828.98437-1.34375.44531-.17969.80469-.35937 1.875-.53907 1.78516-.44921 1.25-.26954 1.16015-.08984 1.69922-.08984 1.96094-.26954 1.25-.08984h.53906l.625-.08984h.89063l2.14453-.17969 2.41015-.17969 2.58985-.08984 1.69531.17969 1.60938.08984 1.42968.35938 1.16016.71875 1.875.98828 1.16015 1.52734.26563.71484.6289.08985.35548.89844.53515.53906.53516 1.52734 1.07422.35938h.53515l-.80469.53515.08985 1.70703.71484 2.69532.89063.80468.89453.98829.71484 1.2578 1.78516.53907 1.51953-.17969.35547 1.34375 1.60937-.80469.98047-.53906.26953.26953.31641-.21484.21875-.14453.80078.44922.44922-.35938h.35547l.53515-.26953.53907-.71875.53515-.26953.625-.98828 1.16016.44922.83984.3711 1.39454.61718 1.6953-.17969h1.60548l1.78515.08985.17969-1.70704.53516-1.34375.80468.26954.4922.84765.40233.40625-.08984.53906v.35938l.71485.44922.71093-.26953h1.42969l.35938.98828.4453 1.25781.71485 1.34375 1.25.6289 1.69531.62891.71485-.17969.17969-.53906.98046-.08984.44922.35937.08594 1.25782-.26563.6289-.53515.17969v.53906l.71484.98438.26563.53906.98437.98828.80078 1.07813-.26562.35937-.08985.89844-.625 2.33203-.35546 2.0664-.08985 1.79298-.17969.71875-.08984.53906v1.4375l-.98047 1.88281-.35937 1.70703-.53516.89844-.80469 1.16797-.26562.53906 2.05469 1.2539.08593.35938-.35546.53906-.08985-.17968v.80859l.08985 1.4375-.44532.71484-1.07422.09375-.26562.71485.53515.89844.8047.71875 1.16015.80859 1.33984.26953.44531.35938-.35546.44921-1.78907-.08984-1.25-.44922-.71484-.71875-.625-.08984-.17578 3.58984-.1875 1.3086h89.35937V311.70313h-55.26953v49.08203l.76172.125 3.28906.54296 2.02344 2.83594v2.7539l2.35156.33204 2.34766.33203h4.05078l-1.3789 4.16016-2.02344.70703-2.02344.70312-.54297.34375-2.59375 1.6172-.1875.11718-2.02344-2.07813-.73046-2.74218-2.67188-2.07813-1.375-3.5-.0664-.08203-1.95704-2.67188 2.75-1.41796v-49.08204H294.42187v91.41407l.1172.03125.1328.01172.07422.07421.10547.04688.08985.0586.08593.05859.08985.0586.29687.29687.0586.08984.03125.11719.02734.11719.01563.13671-.03125.1172-.0586.08983-.0586.08594-.04296.10547-.04688.10156-.02734.1211v.14453l.17578.26953.14844.14844.07422.08594.07422.07421.04296.10547.0625.08985.0586.08593.04297.10547.0586.08985.04687.10156.04296.10547.0586.08594.11719.17968.07421.07422.0625.08594.0586.08984.04297.10547.0586.08985.05858.08593.0625.08985.0586.08984.04297.10156.11719.17969.07421.07422.0586.08594.07422.07421.08984.0586.10547.04687h.14844l.1328-.01562.13282.01562.10156-.04687.07422-.07422.04688-.10156-.01563-.13281v-.14844l-.04687-.10547-.02735-.11719-.04687-.10156-.02735-.1211-.04296-.10156-.0625-.08984-.04297-.10156-.04297-.10547-.03125-.11719-.01563-.13281-.01171-.13672.08593-.0586.0586-.08593.12109-.03125.04297.10547.01562.1328v.1172l.0586.10156.0586.08984.08983.0586.14844.14843.0586.08985.04296.10547-.01171.10156.08593.0586.10547.04687.08594.0586.08984.05858.07422.07422-.11719.02735-.10546.04687-.08594.0586-.07422.07421-.0586.08985-.0625.08594-.02734.12109-.04687.10156-.04297.10547-.03125.11719-.01172.13281-.01563.13281v.14844l.02735.11719.04687.10547.04297.10156.0586.08984.07421.07422.08985.0586.07422.07421.08984.0586.0586.08984.04296.10547.04688.10156.11719.03125.1328.01563h.14845l.11718-.03125.10547.04297.04297.10547.04688.10156.02734.1211L299.5 410l.02734.11719.03125.1211.02735.11718.10547.04297.10156.04687.13281-.01562.14844.14844.0625.08593.07422.07422.07031.07422.08984.0625.10547.04297.10156.04297.1172.03125.13671.01562.11719-.03125.07422-.07422.02734-.11718-.01172-.13282-.03125-.12109-.02734-.11719.04297-.10547h.11719l.08984.0625.11719.02735h.14843l.13282.01562h.14843l.13282.01563.1328-.01563h.14845l.1328-.01562.13282-.01172.13672.01172.11719-.02735.13281-.01562.1914-.0586-.05859.17579-.01562.1328-.02735.1211-.01562.13281-.0586.08594-.1328.01563-.10548.04687-.10546.04297-.1172.03125-.11718.02735-.26563.03125h-.14843l-.13281.01562-.07422.07422.05859.08594.14844.14843.11719.1797.07421.0703.08985.0625.08984.0586.08594.0586.08984.05858.10156.04297.10547.0625.10547.04297.08594.0586.10547.04687.10156.04297.17969.11719.0586.08984-.04298.10156-.04687.10547.01562.13281.22266.22266.0586.08985.04296.10156.03125.1211.04297.10155.01563.13282.03125.11718.01171.13672.03125.11719.14844.14844.10156.04297.10547.04296.1172.03125.1328.01563.13672.01563h.11719l.11719-.03125.08984-.0586.04297-.10547.04688-.10156.04296-.10547.03125-.11719.01172-.1328v-.14845l-.01172-.1328-.01562-.13282-.03125-.11719-.04297-.10547-.04688-.10547-.04296-.10156-.04297-.10547-.01563-.13281.01563-.13281.02734-.11719.03125-.11719.02735-.1211.04687-.10155.08984-.0586.08594-.0625.07422-.07422.08984-.05859.22266-.22266.0586-.08593.07421-.07422.11719-.17969.0586-.08594v-.14844l-.07423-.07421-.10156-.04688-.10547-.04297-.10156-.04297-.0586-.08984-.04687-.10547-.02734-.11719.08984-.05859.11719-.03125.10156-.04297.17969-.11719.14844-.14843.01172-.13282-.01172-.10546-.08985-.0586-.1328.01563h-.14845l-.1328.01562-.13282-.01562-.1211-.03125-.08593-.0586-.07422-.07422-.0586-.08984-.0625-.08594-.11718-.17969-.0586-.08593.03125-.1211.08594-.05859.1211-.03125.05859-.08594v-.1211l-.03125-.11718-.0586-.08984-.05859-.08594-.04687-.10547-.02735-.11719-.01562-.1328.0586-.08985.07421-.07422.08984-.0586.1172-.17968.07421-.07422.0586-.08594.14843-.14844.1211-.03125.1328-.01562.13282.01562.07422.07422.04297.10547.01562.13281-.03125.1172-.11719.03124-.1328.01172-.14844.14844-.04297.10547-.04688.10156-.02734.1211-.03125.11718v.14844l.03125.11719.04297.10546.05859.08985.07422.07031.07422.07422.11719.03125.12109.02734.11719-.02734.1328-.01563h.1172l.08984.0586.07422.07422.04687.10546.0586.08594.10156.04688.13281.01562.10547.04297.08594.0586-.01172.10546-.07422.07422-.17969.11719-.05859.08984-.08984.0586-.07032.07422-.07421.07421-.0625.08985-.02735.11719-.01562.1328.01562.13282-.01562.13281v.14844l.01562.13281.02735.1172.03125.12108.07421.07422.08985.0586.08594.0586.08984.05858.11719.03125v.08594l-.10157.04688-.08984.0586-.26563.03124-.11718.02735h-.14844l-.10547.04296-.10156.04688-.0586.08984-.0625.23438-.01171.13281-.03125.1211-.01563.1328v.29298l-.01172.1328.01172.13673.01563.1328.1328.01563.13282.01172.1211.03125.08593.0586.07422.07421.04688.10547.04296.10157.01563.1328v.44532l-.01563.13281v.44532l.03125.26562.02735.11719.01562.13281.03125.11719.08594.21094.03125.26562v.14844l-.03125.11719-.02734.11718-.03125.1211-.02735.11719-.03125.11718-.03125.1211-.01171.1328-.01563.13282.08984.0586.1172-.03125.10155.01562.04688.10547-.03125.26562v.44141l-.04297.10547-.04688.10547-.04296.10156-.04297.10547-.0586.08594-.03125.12109-.04296.11719-.03125.11719-.01563.1328.01563.13282.05859.08984.10547.04688.08594.0586.05859.08593-.01172.13672-.03125.11719-.04297.10156v.44531l-.01562.13281v.14844l-.03125.11719-.04297.10547-.02735.11719-.04687.10546-.04297.10157-.03125.12109-.02734.11719-.03125.13281-.03125.11719-.02735.11719-.04297.10546-.03125.1172-.03125.12108-.01171.13282-.01563.13281v.29688l.02734.11718v.14844l.04688.39844.02734.11719.0586.08984.12109.03125h.14844l.13281-.01563.0586.08985v.11719l-.0586.08984-.08984.0586-.10157.04296-.10546.04688-.08985.05859-.08594.0586-.13671.01562-.1172-.03125-.1328-.01563-.10157.04688-.0625.08594-.01172.13671-.01562.13282-.03125.11719-.02735.11718-.01562.13281-.03125.1211v.29687l.01563.13282.03125.11718v.14844l.01171.13281v.14844l-.02734.11719-.04688.10156-.02734.1211-.03125.11718-.0586.08985-.07421.07421-.10156.04297-.10547.04688-.11719.02734-.1211.03125-.10156-.04687.0586-.08594.10547-.04688.02734-.11718.03125-.11719.02734-.1211.03125-.11718v-.14844l.01563-.13281-.03125-.11719-.04297-.10547-.10547.01563-.07422.07422-.10156.04296-.08984.0625-.07422.07422-.04297.10157-.01563.1328-.03125.1172L304.25 426l-.03125.11719-.02734.11719-.03125.12109-.02735.11719-.03125.11718-.04297.10547-.08984.0586h-.08984l-.1172-.03125-.03124-.08594.01562-.13672-.03125-.11719v-.14844l-.01171-.1328v-.14844l-.0625-.23438-.02735-.1211-.04297-.10156-.04687-.10546-.0586-.08594-.05859-.08985-.04297-.10546-.0625-.08594-.14844-.14844-.0703-.07422-.10548-.04687-.10547-.04297-.10156-.04297-.29687-.29688-.08985-.07421-.08594-.0586-.10546-.04297-.08985-.0625-.08594-.0586-.10546-.04296-.08985-.0586-.08594-.0625-.07421-.0703-.10547-.04688-.08594-.0586-.10547-.04296-.08984-.0625-.10156-.04297-.10547-.04297-.08594-.0586-.10547-.04687-.10547-.04297-.10156-.04687-.08985-.0586-.10156-.04297-.10547-.04296-.08984-.0625-.11719-.02735-.13281-.01562-.13281.01562H299.75l-.13281.01563-.11719-.03125-.08984-.0586-.07422-.07422-.08985-.05859-.10156-.04688h-.14844l-.12109-.02734-.10156-.04297-.07422-.07422-.11719-.17968-.08984-.0586-.10156-.04297-.08985-.0625-.10547-.04296-.08984-.0586-.08594-.0586-.10547-.04687-.0586-.08594-.05858-.08984-.04297-.10547-.04688-.10156-.07422-.07422-.08594-.0586-.07421-.07421-.08985-.0586-.22265-.22265-.04297-.10547-.03125-.26563.10547-.04296h.14453l.10547.04296.07421.07422.08985.0586.08594.0586.10546.04687.08985.05859.14844.14844.0703.07422.14845.14843.0625.08594.07421.07422.08594.0586.07422.07421.08985.0625.08984.0586.08594.05859.26953.17578.10156.04688.10547.04296.10156.04297.04688-.07421.05859-.08594.07422-.07422.07031-.07422.10547.04297.07422.07422.0586.08984.04296.10156.04688.10547.04296.10547.1211.02735.11719-.02735.07421-.08984.04297-.10547.0586-.08985.07422-.07421.10546-.04297.1172-.02735.1328.01172.08985.0586.14844.14843.05859.08985.04297.10547.04687.10156.04297.10547.04297.10156.10547.04688.10547.04296.13281.01563.08594-.0586.0586-.08984.07421-.07422.10547-.04297.11719.02735.10547.04687.10156.04297.10547.04297.10156.04688.17969.11718v.11719l-.01563.13281.01563.13281.01562.13672.0586.08594.10156.04688.1211.02734.11718.03125h.14844l.11719-.03125.05859-.08984.17969-.1172.05859-.08983.07422-.07422.0586-.08594.11718-.17969.17969-.11719.11719.03125.08984.0586.04297.07422-.01563.1328v.1172l.08985.05859h.14843l.13282-.01563.1328-.01171.26563-.03125.10547-.04297.11719-.03125.1211-.02735.07421-.07421.07031-.07422.0625-.08985-.01562-.10547-.04688-.10156-.10156-.04297-.10547-.01562-.11718.02734-.26563.03125h-.14844l-.07421-.07422-.08985-.0586-.11719-.03124-.11718-.02735-.13282-.01562h-.14843l-.13282.01563h-.29687l-.10547-.04688-.14844-.14844-.04297-.10156-.05859-.08984.22266-.22266.08593-.0586.10547-.04296.11719-.03125.13281-.01563.13281.01563.13672.01562.10157.04297.1328-.01172.08985-.0625.10156-.04297.0625-.08984-.04687-.10156-.08984-.0586-.1172-.03125-.10155-.04296-.0586-.08985-.0625-.08984v-.11719l.01563-.13281.10547-.04688.07421-.07031v-.1211l-.08984-.05859-.03125-.11719.08985-.05859.07421-.07422.04297-.10547.0586-.08984.04687-.10156.01563-.13281v-.14844l-.04688-.10547-.04297-.10156-.08984-.0586-.13281-.01562-.10157-.04297-.13671-.01563-.1172-.03125h-.4453l-.13282-.01562-.13281-.01172-.13281-.01563-.11719-.03125h-.14844l-.13281-.01562-.13281-.01172-.26563-.03125-.1211-.04297-.08593-.0586-.07422-.07421v-.14844l.01172-.13281.10547-.04688.10156-.04296.13281-.01563h.15235l.13281-.01562h.29297l.1211.03125.10156.04296.08984.0586.23438.0625.12109-.04688.08984-.05859.10156-.04297.13282-.01562.10547.04296.10156.04688.13281.01172.1211-.02735h.14453l.12109-.03125.11719-.02734.10547-.04687.07421-.07422.08594-.0586.14844-.14843.0586-.08594.04687-.10547.02734-.11719.01563-.10547-.10156-.04296-.08985-.0586-.11719-.03125-.10546-.04297-.08985-.0625-.07422-.08594-.07422-.07421-.10156-.04297-.10547-.04688-.10156-.04297-.0586-.08984-.04687-.10156-.08594-.21094-.0625-.08594-.05859-.08984-.07422-.07422-.08594-.0586h-.26953l-.11719.03126-.08984.05859-.10156.04297-.13281.01562-.10547-.01562-.02735-.11719-.0625-.08984-.11718-.03125-.10157-.04297-.14843-.14844-.03125-.11719-.01563-.10546.07422-.07422.17969-.1172.11719-.02733.11718-.03125.13672.01562.10156.04297.10547.04297.10156.04687.10547.04297.1172.03125.1328.01563.1172.02734.1328.01563.10547-.01563.08985-.0586-.07422-.07421-.10547-.04297-.07422-.07422-.07422-.08984-.14844-.14844-.08593-.0586-.08985-.05859-.07422-.07422-.08984-.0586-.10156-.04687-.1211-.02734-.10156-.04688-.10547-.04296-.11719-.03125-.10156-.04297-.1211-.03125h-.14843l-.11719.03125-.10546.04297-.08594.0625-.17969.11718-.08594.0586-.08984.0586-.10547.04687-.08594.05859-.10547.04297-.10156.04297-.10547.04687-.07422.07422-.05859.08985-.0586.08593-.04687.10547-.0586.08594-.07421.07422-.13281-.01172-.1172-.03125h-.11718l-.07422.07422-.08984.0586-.07422.07421-.08984.0586-.08594.05859-.10547.04687-.10156.04297-.13672.01563-.10156-.04297-.14844-.14844-.10547-.04688h-.08594l-.10547.04688-.10156.04297-.1211.03125-.11718-.03125-.07422-.07422v-.11719l.03125-.1211.07422-.0703.0586-.08985.07421-.07422.11719-.03125.10547-.04296h.29297l.13281-.01563.13672-.01563.10156-.04296.08985-.0586.10156-.04687.08984-.0586.13281-.01171.08985.05859.13281.01172.08984-.0586.08594-.05859.10547-.04297.08984-.0586.08594-.0625.08985-.05859.14843-.14843.0586-.08594.05859-.08985.10547-.04296.13281-.01563.11719.02735.1211.03125.05859-.0586.05859-.08984.03125-.26563.02734-.11719.10547.01172.13281.01563.10157-.04297.08984-.0586.0586-.08984.07421-.07422.0586-.08984.04687-.10156.01172-.13281-.01172-.13282-.04687-.10547-.14844-.14843-.0586-.08985-.05859-.08594-.04297-.10546v-.44532l.01563-.1328v-.14845l.01172-.1328-.0586-.0586-.08984.0586-.10156-.04298-.17969-.11719-.08594-.05859-.0625-.08984-.0586-.08985-.07421-.07421-.08594-.0586-.1211.03125-.10155.01172-.10547.04688-.08594.05859-.10547.04297-.14844.14844-.08984.05859-.08594.0586-.08984.0625-.10547.04296-.13281.01563v-.1211l.10547-.04297.11718-.03125.07422-.0703.04297-.10548v-.14844l-.02734-.11718-.14844-.14844-.13281-.01563h-.14844l-.11719.03125-.10547.04297-.10156.04297-.08984.0625-.11719.02735-.07422-.07422.01172-.13281-.04297-.10157-.04297-.10547-.08984-.05859-.11719.02734-.1211.03125-.11718.03125-.10156.04297-.1211.03125-.10156.04297-.10547.04297-.08984.0586-.10156.01562v-.11719l.01562-.13281-.0586-.08985-.07421.04297-.14844.14844-.0586.08985-.07421.07421-.04688.10547-.04296.10156-.07422.07422-.0586.08985-.07422.07422-.05859.08593-.07422.07422-.08984.0625-.07422.07031-.07422.07422-.10156.01563-.13281.01562-.10547-.04296v-.1211l.14843-.14844.04297-.10156.0586-.08984.04687-.10156.04297-.10547.0586-.08985.03124-.11719.04297-.10156.03125-.1211.02735-.11718.04687-.10547.04297-.10156.04297-.10547.07422-.07031.08984-.0625.08985-.0586.10156-.04296h.29687l.26563-.03125.10547-.04297-.07422-.07422-.11719-.03125-.10547-.04297-.08984-.0586-.10156-.04687-.08985-.0586-.10156-.04296-.10547-.04297-.08984-.0625-.08594-.0586-.10547-.04296-.10156-.04297-.1211-.03125-.11718-.03125-.10157-.04297L297.5 410.25l-.10156-.04297-.08985-.0586-.04296-.10546-.01563-.13281.10156-.04297.13281-.01563.13672.01563.13282-.01563.10156-.04297.0586-.08984.01562-.10547-.08985-.0586-.07421-.07421-.10157-.04297-.08984-.0586-.14844-.14843-.04297-.10547-.01562-.13281v-.29297l-.0586-.08985-.08984-.05859-.07422-.07422-.04297-.10547-.03125-.11718-.0586-.08985-.07421-.07422-.11719-.02734-.07422-.07422-.08984-.0586-.08984-.0625-.08594-.05859-.07422-.07421-.0586-.08594-.04687-.10547-.08594-.0586-.14843-.14843-.19532-.0586-.1328.01563-.10157.04297-.07422.07422-.04688.10156-.04296.10547-.0586.08984-.0586.08594-.29687.29687-.08984.0586h-.08594l-.0625-.08594-.04297-.10547.03125-.11719.0586-.08984.02734-.11719-.01172-.13281-.08984-.0625-.10547.04688-.11719.02734-.11719.03125-.26953.17578-.10156.04688-.11719.02734-.10546.04687-.08985.0586-.10156.04297-.0586-.08594-.04687-.10547.01563-.13281.04687-.10547.07031-.07422.07422-.07031.0586-.08985v-.14843l-.04297-.10547h-.23829l-.10156.04687-.03125.11719-.02734.11719-.03125.1211-.07422.04296-.13281.01563-.07422-.04688-.04297-.10156-.04297-.10547-.04687-.10156-.04297-.10547-.1211.03125-.10156.04297-.13281.01562-.11719.03125-.10547.04297-.08984.0586-.10156.04687-.1211.02734-.13281.01563-.10156-.04297-.0586-.08985-.04687-.10546-.04297-.10157-.04297-.10546v-.1172l.0586-.08984.08593-.05859.17969-.11719.10156-.04687.10547-.04297.10547-.0586.10156-.04296.08985-.0625.10156-.04297.10547-.0586.10156-.04687.08984-.0586.10547-.04296.10156-.04297.08985-.0625.10156-.04297.13672-.01563.11719.03125.10156.04297.1211.03125.10156.04297.10546.04688.10157.04296.10547.04297.10156.04688.10547.04297.10156.04297.10547.04687.08594.0586.10546.04296.1172.03125.10546.04297.10156.04688.08985.0586.10547.04296.10156.04297.10547.04687.11719.02735.10156.04687.1211.02735h.14843l.08594-.0586.01562-.10156.0586-.08984-.02735-.1172-.07422-.07421-.11719-.17969-.07421-.07422-.08985-.07421-.17969-.1172-.08593-.05859-.10547-.04296-.10156-.04688-.26954-.17578-.05859-.08985-.07422-.07421-.0586-.08985-.04296-.10156-.03125-.11719-.01563-.13672v-.5625l-.01171-.1328-.01563-.13282-.03125-.11719-.01562-.13281-.01172-.13281-.03125-.1211-.22266-.22265-.0586-.08594-.01562-.10547.03125-.11719.13281-.01562v-91.41406H172.9922v1.45312l-.0586.23438-.35156 1.05078-.17187.52343-.1172.34766-.17577.41016-.11719.17187-.23438.29297-.23046.0586h-.35157l-.11718.05859-.23047.40625v.29297l.11719.17578.23046.23047.1172.23437.64062.75781.29297.46485.17578.23437.23047.35156.23437.34766.64063.8164.17578.46485.17187.41016.11719.69531.17578.46875.11719 1.39844.0586.46484v.875l.11718 1.04688v4.78125l-.0586.46484-.35156 1.28125-.17578.52344-.11328.41015-.35156.9297L172.93359 336l-.23437.58203-.11719.17578-.17187.34766-.17578.40625-.35157.8164-.0586.29297-.11327.29297-.11719.28906-.0586.17579-.11718.875-.0586.40625-.05859.11718-.0586.17579-.05859.17187-.23047.52734-.11718.17188v.23437l-.11719.23438-.0586.17187-.17577.58594v.28906l-.0586.17579v.29296l-.0586.11329-.05859.52734v.17187l-.05468.23438v2.6211l-.17578.8164-.1172.17578-.17577.23438-.1172.17187-.11327.23438-.58594.93359-.23047.28906-.29297.46485-.17578.23437-.28906.35156-.35156.69922-.11328.23047-.17579.41016-.17578.23046-.40625.52735-.8164.69922-.29297.17187-.28906.23438-.17579.11719-.17578.17578-.52344.40625-.52734.17578-.17187.17578-.23438.05469-.64062.17578h-.75782m12.21094 31.02344l-1.07422.44921.35938.89454 1.25-.71485.44531-.53906-.98047-.08985"/><path fill="#d3d3d3" fill-opacity="0" fill-rule="evenodd" d="M201.50781 416.59766h-.89453l.44922.6289.98047.35938.80469-.08985.4453-.98828-.17577.08985-.71485-.35547-.89453.35547m154.6211 59.0703l-.0586-.52343v-.29297l.11328-.29297.0586-.23046.46875-.46875h.11328l.11719-.11329.11718-.05859h.17579l.23437-.0586h.34766l.23437.0586.11719.0586.23047.17187.0586.17578.11718.58203v.29297l-.11719.17578-.17187.28906-.17579.17579-.52734.52343-.23047.23438-.11719.0586h-.17578l-.11718-.0586-.40625-.29297-.17579-.11719-.11718-.0586-.0586-.11327-.05468-.1172m6.64062-10.95702l-.0586-.17188v-1.10937l.0586-.17188.17578-.0586.17188-.05858h.17578l.23437-.0586.1172.0586.05858.69921-.05859.17188-.11719.17578-.11718.0586-.23438.52343-.11328.0586h-.23438l-.05859-.1172m9.61328-14.39062l-.11719-.17578v-.69922l.29297-.875.1172-.17187.17577-.35156.11328-.23047.1172-.29297.35155-.75781.1172-.23047.17187-.23438h.17578l.11719-.0586h.64062l.11719.0586.23437.23438.17188.11328.35156.29297.11719.11718.11328.17579v.11328l.11719.05859.11718.11719v.69922l-.05859.17578v.23047l-.0586.17578-.34765 1.05078-.11719.23047-.11719.23437-.11718.0586-.23047.23437-.64063.28906h-.875l-.41015-.11718-.64063-.46485"/><path fill="none" stroke="#bebebe" stroke-linecap="round" stroke-linejoin="round" stroke-miterlimit="10" stroke-width=".5" d="M467.95703 311.69531H144.02734v168.625h323.9297v-168.625"/><g clip-path="url(#a)"><path fill="#fff" fill-opacity="0" fill-rule="evenodd" d="M144 475.89063v4.4375h.0039H144v-36.72266 32.28515"/></g><g clip-path="url(#b)"><path fill="#fff" fill-opacity="0" fill-rule="evenodd" d="M144 435.94531v.42188-124.69531h.0039H144V435.9453"/></g><path fill="#50fcfc" fill-rule="evenodd" d="M144 436.36719v7.23828h.0039v-7.23828H144"/><g clip-path="url(#c)"><path fill="#fff" fill-opacity="0" fill-rule="evenodd" d="M144.0039 480.32813v-36.72266l4.4336-1.01563 4.4375.67579 4.4414.35156.05079 1.20312-.05078 1.10156-2.29297 3.33985.3086 4.4375 1.0039 4.4375.98047 1.44531.82422 2.99219 3.61328 3.35547 4.4375.50781 4.4375.33984 2.23437.23829 2.20313 2.32812 1.34375-2.32813 3.09765-.53515 4.4375.125 4.4375-.28516 4.4375-.45312 4.4414-1.04297 3.23048-2.25 1.20703-.27735 4.4375-.32421 4.4375-.60547 4.4414 1.04687.67579.16016 3.76172 1.74219 4.03515-1.7422.40234-.05077.5625.05078 3.875 1.23437 4.4375-.07421 1.89063-1.16016 2.55078-.58985 2.17578.58985 2.26172 1.36328 2.91406-1.36328 1.52344-.51563 3.875-3.92187.5625-.74219 2.98438-3.69531 1.45312-1.78906 2.71875-2.64844 1.72266-.89844 4.4375.70313 4.4375-.19141 4.4375-.4375 4.4414-1.78906 3.75-1.82813.6875-.1211 4.4375-1.89062 2.3047-2.42578 2.1328-2.13281 2.19922-2.30469-2.19922-2.39062-3.52343-2.04688-.91407-2.07812-4.4375-.84375-4.4375 1.41015-1.91015-2.92578-2.53125-2.05078-2.61328 2.05078-1.82422.66797-3.9336-.66797-.5039-.28906-.5039.28906-3.9336.32031-1.92969-.3203-2.51172-1.92188-2.63672 1.92187-1.80078.8711-.57422-.8711-3.86328-3.75781-1.20703-.6836-3.23047-3.84374-.35547-.59375-4.08203-3.67579-4.4414.17188-2.6836-.9336-1.7539-1.4414-4.4375-1.23828-4.40625 2.67969-.03125.01171-4.4375.76172-2.90625-.77343-1.53516-.77735-4.4375-2.25781-4.1211 3.03516-.3164.46484-4.4375 2.4961-4.4414.11718-3.21876 1.35938-1.21875.39843-4.4375 1.66797-4.4375 1.34766-1.28906 1.02344-3.15234 1.1875-4.4375 1.74609-2.13282 1.50781-2.30468.5586-4.4375 1.05078-3.44532 2.82812-.99218 3.625-4.44141.23828-1.5039.57422-2.9336 1.27344-4.4336-.85156V311.67188h159.77735v115.97265l-1.29297 3.86328 1.29297 1.35156 1.33203-1.35156-1.33203-3.86328V311.67188h48.82031V431.9375l-4.4375.35547-2.59765 3.65234 2.59765 2.53906 1.09375 1.89844 3.34375 3.375 4.4414.03125 4.4375-2.2461 2.26563-1.16015-2.26562-1.22656-2.88672-3.21094-1.55078-3.16797-4.4414-.83984V311.67187h31.0703v123.48438l-1.91406.78906 1.91406 2.57813.53125-2.57813-.53125-.78906V311.67187h84.32422v168.65625h-67.83984l-2.9961-4.4375-.17577-.22265-3.04688-4.21485-1.39063-1.67578-1.16796-2.76171 1.16796-.91016 3.13282-3.53125.32031-4.4375-3.45313-3.33985-4.4375-.83203-1.57812-.26562 1.57813-4.375.03515-.0625 4.40235-2.98438 1.33203-1.45703-1.33204-2.17187-4.4375.44922-1.49609 1.72265-2.9414 1.4414-1.71485-1.4414-2.72265-3.24219-3.9922 3.2422-.44921.51952-4.16797 3.92188 4.16797 3.36719 2.375 1.0703-2.375 3.09376-.76953 1.34375.76953.47656 4.4414 2.82031.9297 1.14063 3.5078 3.29687 1.01563 1.14454 3.42188 4.3789.25.0586-.25.27734-2.28907 4.16015.58594 4.4375H144.00391"/></g><path fill="#50fcfc" fill-rule="evenodd" d="M148.4375 442.58984l-4.4336 1.01563v-7.23828l4.4336.85156 2.9336-1.27344 1.5039-.57422 4.4414-.23828.9922-3.625 3.4453-2.82812 4.4375-1.05078 2.3047-.5586 2.1328-1.50781 4.4375-1.7461 3.15235-1.1875 1.28906-1.02343 4.4375-1.34766 4.4375-1.66797 1.21875-.39843 3.21875-1.35938 4.4414-.11719 4.4375-2.49609.31642-.46484 4.12109-3.03516v2.9375l-.13281.09766.1328.11328v3.45703l-1.20312.86719 1.20313.35937 2.02344-.35937-2.02344-.8672v-3.45702l.16016-.11328-.16016-.09766v-2.9375l4.4375 2.25781 1.53516.77735 2.90625.77343 4.4375-.76171v8.24218l-1.73438.6211 1.03125 4.4414.70313.46875 4.40625-.46875-2.91797-4.4414-1.48828-.6211v-8.24219l.03125-.01171 4.40625-2.6797 4.4375 1.23829v3.14844l-4.4375.42187-4.40625 2.3086 4.40625 2.20312 2.86328 2.23438 1.57422 3.64843v5.09375l-.02735.13672.02734.08594.61329-.08594-.61328-.13672v-5.09375l4.4375.23438 4.4414-1.0664 2.58203 1.625-2.58203 2.88671-1.54297 1.55078.10938 4.4375-3.00781 2.8125-2.9961-2.8125-1.4414-1.375-1.04688-3.0625-3.39063-3.41797-4.4375.69922-2.57812-1.71875-1.85938-2.53515-2.54687-1.90625 2.54688-4.3047 3.63671-.1328-3.63672-.08204-.14062.08204-4.30078 2.47656-4.4375-.6914-4.4375-.95704-4.4375.86328-4.4414.92969-4.14454 1.8164-.29297.15235-4.4375 2.26563-4.4375.08984-4.4414 1.4336-.94141.5-3.4961.79687-4.4375 1.32031-4.4375 2.14453-.21484.17578-3.28906 4.4375-.53516 4.4375.13282 4.4375-.21485 4.4414.07422 4.4375.46094 4.4375 2.51953 4.4375 1.0664.9922 4.4375.89062 4.4375-.25781 4.4375.10937 4.44141-.35156 4.4375.51953 4.4375-.42187 4.4375-.89453 1.24219-.58594 3.19922-.90625 4.4375-1.04688 4.4375-2.01953 2.82422-.46484 1.61328-.19922 2.0625.19922 2.3789.35547 4.4375 1.54687 4.4375.1289 4.4375-1.7578 4.4375.79296 4.44141.125 4.4375-.45703 2.85938-.73437 1.57812-.35938 3.28125-4.07812.77344-4.4375.38281-.78125 4.4375-2.79297 4.4414-.27344 4.4375 1.71094 4.4375-.20313 4.4375-.26562 2.8125-1.83594 1.62891-.9414 4.4375-.86329 3.53907-2.6328-3.53907-2.90235-4.4375-.04688-4.4414 1.96485-1.69531.98437-2.7422 1.78125-4.4375.3086-4.4375 1.01562-4.4414.53906-4.4375-1.51562-1.0625-2.1289 1.0625-1.51563 4.4375-1.33594 1.11328-1.58594 3.32813-1 4.4375-3.03906 4.4375 1.40234 4.4375-.40625 2.08203-1.39453-2.08203-2.58203-4.4375.79688-4.4375 1.1875-4.4375-2.57032-4.4414.15625-4.4375 2.35938-2.4922-3.78516-1.9453-1.89062-4.4375-2.42188-.0547-.1289-2.6328-4.4375-1.75-1.57813-4.44142 1.51172-4.4375-2.66406v-3.14844l1.75391 1.4414 2.6836.9336 4.4414-.17188 4.08203 3.67579.35547.59375 3.23047 3.84375 1.20703.68359 3.86328 3.75781.57422.8711 1.80078-.8711 2.63672-1.92187 2.51172 1.92187 1.92969.32031 3.9336-.3203.5039-.28907.5039.28906 3.9336.66797 1.82422-.66797 2.61328-2.05078 2.53125 2.05078 1.91015 2.92578v4.28125l-4.4414.57422-4.4375.45703-4.4375-.72265-4.17188 1.35937 3.72656 4.4375.44532.11719.77734-.11719 3.66016-2.07812 4.4375-1.11719 4.4414-1.08984 1.75-.15235-1.75-1.66797v-4.28125l4.4375-1.41015 4.4375.84375.91407 2.07812 3.52343 2.04688 2.19922 2.39062-2.19922 2.30469-2.1328 2.13281-2.3047 2.42578-4.4375 1.89063-.6875.1211-3.75 1.82812-4.4414 1.78906-4.4375.4375-4.4375.1914-4.4375-.70312-1.72266.89844-2.71875 2.64844-1.45312 1.78906-2.98438 3.69531-.5625.74219-3.875 3.92187-1.52344.51563-2.91406 1.36328-2.26172-1.36328-2.17578-.58985-2.55078.58985-1.89063 1.16015-4.4375.07422-3.875-1.23437-.5625-.05078-.40234.05078-4.03516 1.74219-3.76171-1.7422-.67578-.16015-4.44141-1.04687-4.4375.60547-4.4375.32421-1.20703.27735-3.23047 2.25-4.4414 1.04297-4.4375.45312-4.4375.28516-4.4375-.125-3.09766.53515-1.34375 2.32813-2.20313-2.32813-2.23437-.23828-4.4375-.33984-4.4375-.50781-3.61328-3.35547-.82422-2.99219-.98047-1.44531-1.0039-4.4375-.3086-4.4375 2.29297-3.33985.05078-1.10156-.05078-1.20312-4.44141-.35156-4.4375-.67579"/><path fill="#00e8fc" fill-rule="evenodd" d="M157.70703 453.69922l-.07422-4.4375.21485-4.4414-.13282-4.4375.53516-4.4375 3.28906-4.4375.21485-.17579 4.4375-2.14453 4.4375-1.32031 3.49609-.79688.9414-.5 4.44141-1.4336 4.4375-.08983 4.4375-2.26563.29297-.15234 4.14453-1.81641 4.4414-.92969 4.4375-.86328 4.4375.95703v2.375l-1.93358.27735-2.50391.6953-4.4375.84376-4.4414 2.19922-1.10938.70312-3.32813.83203-4.4375.35157-4.4375.35546-4.4414.3672-4.4375.89062-3.91797 1.64062-.51953.1875-4.4375 1.88281-1.83203 2.3672-1.26172 4.4375-.01172 4.4375-.22266 4.4414.2461 4.4375 1.18359 4.4375 1.89844 2.66797 4.4375.58984 4.4375-.54297 4.4375-1.8711 4.4414 1.14454 4.4375 1.02734 4.4375.0586 4.4375-.63281 4.4414-1.62891 3.22267-.8125 1.21484-.7461 4.4375-3.4453 4.4375-.22266 4.4414 1.11718 4.4375.76172 4.4375.39453 3.5625-2.29687.875-.66406 4.4375-.70704 2.21485 1.3711 2.22656 1.51562 2.64453-1.51562 1.79297-1.6875 4.4375-1.92969.35938-.82031-.35938-.4336-4.4375-2.49218-.91016-1.51563.91016-3.39453 4.4375.36328.9961-1.40625 2.97656-4.4375-2.1875-4.4375-1.78516-2.66015-3.10547 2.66015-1.33203.63281-2.9961 3.8047 2.71876 4.4375-4.16016 2.41015-4.4414-.51172-3.92188-1.89844-.51563-.48047-4.4375-2.77734-4.4375-.90625-1.05859-.27344 1.0586-.79687 4.4375-.15235 1.6914-3.48828-1.6914-1.70703-4.4375 1.07813-1.30079.6289-3.13672 3.44531-3.21484-3.4453.9336-4.4375-2.16016-1.6172-3.77344-2.82421-.66406-.27735v-2.375l4.4375.6914 4.30078-2.47655.14063-.08204 3.63671.08204-3.63672.1328-2.54687 4.3047 2.54688 1.90625 1.85937 2.53515 2.57813 1.71875 4.4375-.69922 3.39062 3.41797 1.04688 3.0625 1.4414 1.375 2.9961 2.8125 3.0078-2.8125-.10937-4.4375 1.54297-1.55078 2.58203-2.88672-2.58203-1.625-4.4414 1.0664-4.4375-.23437-1.57422-3.64843-2.86328-2.23438-4.40625-2.20312 4.40625-2.3086 4.4375-.42187 4.4375 2.66406v2.38672l-2.38282 2.11719 2.38281 1.83984 3.79688-1.83984-3.79688-2.1172V418.125l4.44141-1.51172 1.75 1.57813 2.63281 4.4375.0547.1289 4.4375 2.42188 1.9453 1.89062 2.4922 3.78516 4.4375-2.35938 4.4414-.15625v1.58204l-3.4375 1.58593 3.4375 1.71875 2.32031-1.71875-2.32031-1.58594v-1.58203l4.4375 2.57032 4.4375-1.1875 4.4375-.79688 2.08203 2.58203-2.08203 1.39453-4.4375.40625-4.4375-1.40234-4.4375 3.03906-3.32813 1-1.11328 1.58594-4.4375 1.33594-1.0625 1.51562 1.0625 2.1289 4.4375 1.51563 4.4414-.53906 4.4375-1.01562 4.4375-.3086 2.7422-1.78125 1.6953-.98437 4.44141-1.96485v2.22657l-1.36328.72265 1.36328.85547 3.73047-.85547-3.73047-.72265v-2.22657l4.4375.04688 3.53907 2.90234-3.53907 2.63281-4.4375.86329-1.6289.9414-2.8125 1.83594-4.4375.26563-4.4375.20312-4.4375-1.71094-4.4414.27344-4.4375 2.79297-.38282.78125-.77344 4.4375-3.28125 4.07812-1.57812.35938-2.85938.73437-4.4375.45704-4.4414-.125-4.4375-.79297-4.4375 1.7578-4.4375-.1289-4.4375-1.54687-2.37891-.35547-2.0625-.19922-1.61328.19922-2.82422.46484-4.4375 2.01953-4.4375 1.04688-3.19922.90625-1.24219.58594-4.4375.89453-4.4375.42187-4.4375-.51953-4.4414.35156-4.4375-.10937-4.4375.25781-4.4375-.89062-1.06641-.9922-2.51953-4.4375-.46094-4.4375"/><path fill="#00d4fc" fill-rule="evenodd" d="M158.67188 453.69922l-.2461-4.4375.22266-4.4414.01172-4.4375 1.26172-4.4375 1.83203-2.3672 4.4375-1.8828.51953-.1875 3.91797-1.64063 4.4375-.89063 4.4414-.36719 4.4375-.35546 4.4375-.35157 3.32813-.83203 1.10937-.70312 4.4414-2.19922 4.4375-.84375v4.7461l-4.4375.2539-4.4414.65625-4.4375 1.07812-4.4375-.18359-4.4375 1.23047-4.4414.00781-2.25.39453-2.1875.42578-4.4375 1.5-4.4375 2.3047-.16016.20702-1.98828 4.4375-.16016 4.4375-.22265 4.4414.41015 4.4375 1.90625 4.4375.21485.30079 4.4375.21094 3.98437-.51172.45313-.0586 4.4375-1.67968 4.4414-.64453 4.4375 2.33203.19922.05078 4.23828.82812 4.4375-.67968.3789-.14844 4.0625-2.30469 2.63282-2.13281 1.80469-1.73047 3.28906-2.70703 1.14844-1.33203 3.34766 1.33203 1.08984.32422 4.4414.94531 4.4375.77734 4.4375-1.70703.56641-.33984 3.8711-3.96875 1.02734-.47266-1.02734-.15234-4.4375-2.71485-4.39063-1.5703-.04688-.01173-4.4375-.59765-4.4414-2.11328-3.64453-1.71485-.79297-.74219-1.14453-3.6953-3.29297-3.4375v-4.7461l2.5039-.69531 1.9336-.27735.66406.27735 3.77344 2.82421 2.16016 1.6172-.9336 4.4375 3.21484 3.4453 3.13672-3.4453 1.30078-.62891 4.4375-1.07813 1.69141 1.70703-1.6914 3.48828-4.4375.15235-1.0586.79687 1.0586.27344 4.4375.90625 4.4375 2.77734.51562.48047 3.92188 1.89844 4.4414.51172v5.28515l-1.21484 1.1836 1.21484.3789.40234-.3789-.40234-1.1836v-5.28515l4.16016-2.41016-2.71875-4.4375 2.9961-3.80469 1.33202-.6328 3.10547-2.66016v5.69921l-4.4375.1211-1.00781 1.27734 1.00781 1.5586 4.4375-.46094.64063-1.09766-.64063-1.39844v-5.69921l1.78516 2.66015 2.1875 4.4375-2.97656 4.4375-.9961 1.40625-4.4375-.36328-.91016 3.39453.91016 1.51563 4.4375 2.49219.35938.43359-.35938.82031-4.4375 1.92969-1.79297 1.6875-2.64453 1.51562-2.22656-1.51562-2.21484-1.3711-4.4375.70704-.875.66406-3.5625 2.29687-4.4375-.39453-4.4375-.76172-4.44141-1.11718-4.4375.22265-4.4375 3.44531-1.21484.7461-3.22266.8125-4.4414 1.6289-4.4375.63282-4.4375-.0586-4.4375-1.02734-4.44141-1.14453-4.4375 1.8711-4.4375.54296-4.4375-.58984-1.89844-2.66797-1.1836-4.4375"/><path fill="#00c4fc" fill-rule="evenodd" d="M159.63281 453.69922l-.41015-4.4375.22265-4.4414.16016-4.4375 1.98828-4.4375.16016-.20704 4.4375-2.30469 4.4375-1.5 2.1875-.42578 2.25-.39453 4.4414-.00781 4.4375-1.23047 4.4375.1836 4.4375-1.07813 4.4414-.65625v2.63281l-4.4414.22266-1.38672.32812-3.05078.86328-4.35156-.86328-.08594-.01172-.03515.01172-4.40235 1.72266-4.4414 2.51172-4.4375-1.42188-4.4375.85156-1.46094.77344-2.97656 1.84375-1.20313 2.59375-.30469 4.4375-.23047 4.4414.57813 4.4375 1.16016 2.57423 4.4375.45703 4.4375-1.4414 4.4375-.94532 1.51562-.64453 2.92578-3.21485 2.39063 3.21485 2.04687 1.5 4.4375 1.08594 4.4375-.76563 2.88281-1.82031-2.8828-2.53125-1.92188-1.90625 1.28515-4.4414.63672-1.89844 4.4414-1.5547 1.4297-.98437 2.78125-4.4375-2.61328-4.4375-1.59766-.55078v-2.63281l4.4375-.2539 3.29297 3.4375 1.14453 3.6953.79297.7422 3.64453 1.71484 4.4414 2.11328 4.4375.59765.04688.01172 4.39063 1.57031 4.4375 2.71485 1.02734.15234-1.02734.47266-3.8711 3.96875-.5664.33984-4.4375 1.70703-4.4375-.77734-4.44141-.94531-1.08984-.32422-3.34766-1.33203-1.14844 1.33203-3.28906 2.70703-1.80469 1.73047-2.63281 2.13281-4.0625 2.30469-.3789.14844-4.4375.67968-4.23829-.82812-.19922-.05078-4.4375-2.33203-4.4414.64453-4.4375 1.67969-.45313.05859-3.98437.51172-4.4375-.21094-.21485-.30078-1.90625-4.4375"/><path fill="#00b8fc" fill-rule="evenodd" d="M160.59375 453.69922l-.57813-4.4375.23047-4.4414.3047-4.4375 1.20312-2.59376 2.97656-1.84375 1.46094-.77344 4.4375-.85156 4.4375 1.42188 4.4414-2.51172 4.40235-1.72266.03515-.01172v1.875l-4.4375 1.91797-1.10937.65625-2.38281 4.4375-.94922 2.05469-.36328-2.05469-4.07422-3.92969-4.4375 2.32032-4.4375 1.05078-.25782.5586-.44922 4.4375-.23828 4.4414.7461 4.4375.19922.4414 4.4375.86329 2.82812-1.3047 1.60938-2.35546 1.59375-2.08203 2.84375-3.23438 4.4414-.64843.69922-.5586 3.73828-2.9375 2.35156-1.5 2.08594-1.90234 4.4375-.35938 4.23828-2.17578-4.23828-2.1289-4.4375 1.1914-4.4375-1.63672v-1.875l.08594.01172 4.35156.86328 3.05078-.86328 1.38672-.32812 4.4414-.22266 1.59767.55078 2.61328 4.4375-2.78125 4.4375-1.4297.98438-4.4414 1.55469-.63672 1.89843-1.28515 4.4414 1.92187 1.90626 2.88281 2.53125-2.8828 1.82031-4.4375.76563-4.4375-1.08594-2.04688-1.5-2.39063-3.21485-2.92578 3.21485-1.51562.64453-4.4375.94531-4.4375 1.4414-4.4375-.45702-1.16016-2.57422"/><path fill="#00a8fc" fill-rule="evenodd" d="M161.55469 453.69922l-.7461-4.4375.23828-4.4414.44922-4.4375.25782-.5586v6.6875l-.14844 2.75.14844.84765 1.26953-.84765-1.26953-2.75v-6.6875l4.4375-1.05078v2.65625l-2.38282 3.39062 2.38282 2.92578 4.4375-1.32421 2.03906-1.60157-2.03906-.35547-4.4375-3.03515v-2.65625l4.4375-2.32031v1.60546l-3.01563 2.32422 3.01563 2.41797 2.41406-2.41797-2.41406-2.32422v-1.60546l4.07422 3.92968.36328 2.05469.94922-2.05469 2.3828-4.4375 1.10938-.65625 4.4375-1.91797V435.25l-1.5664.69531 1.5664 1.53516 1.6211-1.53516-1.6211-.69531v-1.8789l4.4375 1.63671 4.4375-1.1914 4.23828 2.1289-4.23828 2.17578-4.4375.35938-2.08594 1.90234-2.35156 1.5-3.73828 2.9375-.69922.5586-4.4414.64843-2.84375 3.23438-1.59375 2.08203-1.60938 2.35547-2.82812 1.30469-4.4375-.86329-.19922-.4414"/><path fill="#009800" fill-rule="evenodd" d="M161.7539 450.10938l-.14843-.84766.14844-2.75 1.26953 2.75-1.26953.84765"/><path fill="#00b8fc" fill-rule="evenodd" d="M166.1914 441.42969l-2.3828 3.39062 2.3828 2.92578 4.4375-1.32421 2.03907-1.60157-2.03906-.35547-4.4375-3.03515v3.30469l.14453.08593-.14453.07813-.0625-.07813.0625-.08594v-3.30468"/><path fill="#00c4fc" fill-rule="evenodd" d="M166.1914 444.73438l-.0625.08593.0625.07813.14454-.07813-.14453-.08594"/><path fill="#009800" fill-rule="evenodd" d="M170.6289 442.80078l-3.01562-2.41797 3.01563-2.32422v1.60157l-.9375.72265.9375.7539.7539-.7539-.7539-.72265v-1.60157l2.41406 2.32422-2.41406 2.41797"/><path fill="#00ac00" fill-rule="evenodd" d="M170.6289 441.13672l-.9375-.7539.9375-.72266.75391.72265-.7539.7539"/><path fill="#009800" fill-rule="evenodd" d="M183.94531 437.48047l-1.5664-1.53516 1.5664-.69531 1.6211.69531-1.6211 1.53516"/><path fill="#fff" fill-opacity="0" fill-rule="evenodd" d="M206.13672 417.32422l-1.20313.86719 1.20313.35937 2.02344-.35937-2.02344-.8672"/><path fill="#00e8fc" fill-rule="evenodd" d="M206.13672 413.86719l-.13281-.11328.1328-.09766.16017.09766-.16016.11328"/><path fill="#fff" fill-opacity="0" fill-rule="evenodd" d="M219.45313 422.00781l-1.73438.6211 1.03125 4.4414.70313.46875 4.40625-.46875-2.91797-4.4414-1.48828-.6211m8.875 9.36328l-.02735.13672.02734.08594.61329-.08594-.61328-.13672"/><path fill="#00d4fc" fill-rule="evenodd" d="M232.76563 424.46875l-2.38282-1.83984 2.38281-2.1172 3.79688 2.1172-3.79688 1.83984"/><path fill="#00c4fc" fill-rule="evenodd" d="M237.20703 449.64063l-1.21484-.37891 1.21484-1.1836.40234 1.1836-.40234.3789m4.4375-12.13671l-1.00781-1.5586 1.00781-1.27734 4.4375-.1211.64063 1.39844-.64063 1.09766-4.4375.46094"/><path fill="#00d4fc" fill-rule="evenodd" d="M259.39844 433.22656l-3.4375-1.71875 3.4375-1.58594 2.32031 1.58594-2.32031 1.71875"/><path fill="#fff" fill-opacity="0" fill-rule="evenodd" d="M263.83594 434.58594l-4.17188 1.35937 3.72656 4.4375.44532.11719.77734-.11719 3.66016-2.07812 4.4375-1.11719 4.4414-1.08984 1.75-.15235-1.75-1.66797-4.4414.57422-4.4375.45703-4.4375-.72265"/><path fill="#00d4fc" fill-rule="evenodd" d="M277.15234 441.23828l-1.36328-.85547 1.36328-.72265 3.73047.72265-3.73047.85547"/><path fill="#50fcfc" fill-rule="evenodd" d="M303.78125 432.85938l-1.29297-1.35157 1.29297-3.86328 1.33203 3.86328-1.33203 1.35156m44.38281 5.625l-2.59765-2.53906 2.59765-3.65234 4.4375-.35547v1.15234l-4.125 2.85547 2.58203 4.4375 1.54297 1.5586 4.4414.24218 2.60157-1.80078-2.60156-2.72265-.98438-1.71485-3.45703-2.85547v-1.15234l4.4414.83984 1.55079 3.16797 2.88672 3.21094 2.26562 1.22656-2.26562 1.16016-4.4375 2.2461-4.4414-.03126-3.34376-3.375-1.09375-1.89844"/><path fill="#00e8fc" fill-rule="evenodd" d="M351.0586 440.38281l-2.58204-4.4375 4.125-2.85547v1.92188l-1.34765.9336 1.34765 2.22265 1.13281-2.22266-1.1328-.9336v-1.92187l3.45702 2.85547.98438 1.71485 2.60156 2.72265-2.60156 1.80078-4.4414-.24218-1.54298-1.5586"/><path fill="#00d4fc" fill-rule="evenodd" d="M352.60156 438.16797l-1.34765-2.22266 1.34765-.9336 1.13281.9336-1.1328 2.22266"/><g clip-path="url(#d)"><path fill="#50fcfc" fill-rule="evenodd" d="M374.79297 452.6289l-4.16797-3.36718 4.16797-3.92188.44922-.51953 3.99219-3.24219v6.3047l-1.53907 1.3789 1.53906 2.91797 1.13282-2.91797-1.13281-1.3789v-6.3047l2.72265 3.2422 1.71485 1.4414 2.9414-1.4414 1.4961-1.72266 4.4375-.44922 1.33203 2.17187-1.33204 1.45703-4.40234 2.98438-.03515.0625-1.57813 4.375 1.57813.26562v1.65625l-2.97657 2.51563 2.97656 3.52734 4.4375-.05469 1.25391-3.47265-1.2539-1.21485-4.4375-1.30078v-1.65625l4.4375.83204L396 458.13671l-.32031 4.4375-3.13281 3.53125-1.16797.91015 1.16796 2.76172 1.39063 1.67579 3.04688 4.21484.17578.22265 2.99609 4.4375h-13.75l-.58594-4.4375 2.28906-4.16015.25-.27735-.25-.05859-3.42187-4.3789-1.01563-1.14454-3.5078-3.29687-.9297-1.14063-4.4414-2.8203-.76953-.47657.76953-1.34375 2.375-3.09375-2.375-1.07031"/></g><path fill="#fff" fill-opacity="0" fill-rule="evenodd" d="M379.23438 447.88281l-1.53907 1.3789 1.53906 2.91798 1.13282-2.91797-1.13281-1.3789"/><path fill="#50fcfc" fill-rule="evenodd" d="M383.67188 438.52344l-1.91407-2.57813 1.91406-.78906.53125.78906-.53125 2.57813"/><path fill="#00e8fc" fill-rule="evenodd" d="M388.10938 461.66406l-2.97657-3.52734 2.97656-2.51563 4.4375 1.30079 1.25391 1.21484-1.2539 3.47265-4.4375.0547"/><g clip-path="url(#e)"><path fill="#fff" fill-opacity="0" fill-rule="evenodd" d="M467.9961 480.32813H468V311.67188h-.0039H468v168.65625h-.0039"/></g><path fill="#fff" fill-opacity="0" fill-rule="evenodd" d="M269.24219 430.0625l5.84375.04688.07422-9.96094-5.83985-.04297-.07812 9.95703"/><path fill-rule="evenodd" d="M272.80469 421.96484l.51172.00391-.05079 6.29297-.78515-.0039.03515-4.4922-1.39062-.0078.0039-.5586.5625-.0586.25-.05078.23048-.08984.20703-.14063.17578-.20703.14062-.29296.10938-.39454"/><path fill="#fff" fill-opacity="0" fill-rule="evenodd" d="M199.0625 467.82422l5.77734-.86719-1.48437-9.85156-5.77734.8711 1.48437 9.84765"/><path fill-rule="evenodd" d="M201.3125 459.26563l.5039-.07422.9375 6.22656-.77734.11719-.66797-4.44141-1.375.20703-.08203-.55078.54297-.14844.24219-.08984.21484-.1211.17969-.17187.14063-.23438.09375-.30859.04687-.41015"/><path fill="#fff" fill-opacity="0" fill-rule="evenodd" d="M241.80469 438.80078l6.1914-4.94531-6.35937-7.96485-6.1914 4.94532 6.35937 7.96484"/><path fill-rule="evenodd" d="M238.52734 430.71875l2.56641-2.04688.46094.57813-2.0586 1.64453.94532 1.55469.07422-.26953.1289-.26953.19531-.27344.28125-.26172.26953-.1836.31641-.14452.35156-.09375.37891-.02344.39453.05469.19922.0625.19922.08984.19922.11719.19531.14843.1914.1797.1875.21483.25.3672.1797.39062.10546.41015.02344.41407-.0625.41015-.0664.20313-.08985.19922-.11719.1914-.14062.1914-.17188.1797-.19531.17187-.38672.26172-.375.17188-.36328.07812-.34766.00781-.33593-.0664-.32032-.12891-.30468-.17578-.28907-.22266.61328-.49219.20704.13282.21093.09765.20703.0625.21094.03125.20703-.0078.20313-.04688.19922-.08594.19531-.13281.23047-.21485.17578-.23047.11719-.24609.0586-.25781-.00782-.27344-.0664-.28125-.13673-.28906-.20312-.29297-.17969-.19531-.21094-.16407-.23437-.1328-.25781-.08595-.26953-.03125-.28125.03125-.28907.10157-.28515.18359-.2422.23828-.15233.26172-.09766.3164-.07422.40626-.54297.43359-1.77344-2.96875"/><path fill="#fff" fill-opacity="0" fill-rule="evenodd" d="M168.10156 467.01563l7.65625-2.03907-2.625-9.85156-7.65625 2.03906 2.625 9.85156"/><path fill-rule="evenodd" d="M168.34375 458.29688l3.17578-.84375.1914.71484-2.54687.67969.23828 1.80468.1797-.21875.22655-.1953.28907-.16798.35937-.13281.32422-.05469.34766-.00781.35937.0586.35547.1289.33984.20703.15625.14063.14844.16015.13281.1875.1211.21485.10156.24218.08594.26954.08203.4375.00781.42968-.0664.41797-.14454.38672-.22656.35156-.14062.16016-.16407.14453-.18359.13281-.20703.11328-.22656.09766-.25.07813-.45703.08593-.41407.0039-.36328-.0703-.32031-.13672-.28125-.19531-.24219-.2422-.21094-.28906-.17578-.3203.76172-.19923.13672.20313.15234.17187.16797.14454.17969.11328.1914.07421.20704.03907h.21875l.22656-.03906.29688-.10547.2539-.14063.20703-.17969.15625-.21484.10547-.25.05078-.28516-.00781-.3203-.0664-.35157-.08985-.25-.125-.23438-.16406-.21484-.19922-.1836-.23438-.13671-.27343-.08594-.30078-.01953-.33985.05078-.3164.1211-.2422.17968-.21484.25-.23437.33985-.66797.17968-.4375-3.42969"/><g clip-path="url(#f)"><path fill="none" stroke="#000" stroke-linecap="round" stroke-linejoin="round" stroke-miterlimit="10" stroke-width=".5" d="M147.41406 481.16016l-6.82812-1.66407"/></g><g clip-path="url(#g)"><path fill="none" stroke="#000" stroke-linecap="round" stroke-linejoin="round" stroke-miterlimit="10" stroke-width=".5" d="M147.41406 481.16016l.60547 2.375"/></g><g clip-path="url(#h)"><path fill="none" stroke="#000" stroke-linecap="round" stroke-linejoin="round" stroke-miterlimit="10" stroke-width=".5" d="M146.42188 480.91797l.30078 1.1875"/></g><g clip-path="url(#i)"><path fill="none" stroke="#000" stroke-linecap="round" stroke-linejoin="round" stroke-miterlimit="10" stroke-width=".5" d="M160.76172 481.01172l-6.89453-1.36328"/></g><g clip-path="url(#j)"><path fill="none" stroke="#000" stroke-linecap="round" stroke-linejoin="round" stroke-miterlimit="10" stroke-width=".5" d="M160.76172 481.01172l.71094 2.34765"/></g><g clip-path="url(#k)"><path fill="none" stroke="#000" stroke-linecap="round" stroke-linejoin="round" stroke-miterlimit="10" stroke-width=".5" d="M159.75781 480.8125l.35547 1.17188"/></g><g clip-path="url(#l)"><path fill="none" stroke="#000" stroke-linecap="round" stroke-linejoin="round" stroke-miterlimit="10" stroke-width=".5" d="M174.07031 481.03516l-6.88281-1.41407"/></g><g clip-path="url(#m)"><path fill="none" stroke="#000" stroke-linecap="round" stroke-linejoin="round" stroke-miterlimit="10" stroke-width=".5" d="M174.07031 481.03516l.69531 2.35547"/></g><g clip-path="url(#n)"><path fill="none" stroke="#000" stroke-linecap="round" stroke-linejoin="round" stroke-miterlimit="10" stroke-width=".5" d="M173.07031 480.83203l.34766 1.17578"/></g><g clip-path="url(#o)"><path fill="none" stroke="#000" stroke-linecap="round" stroke-linejoin="round" stroke-miterlimit="10" stroke-width=".5" d="M187.21484 481.61328l-6.53906-2.57031"/></g><g clip-path="url(#p)"><path fill="none" stroke="#000" stroke-linecap="round" stroke-linejoin="round" stroke-miterlimit="10" stroke-width=".5" d="M186.26563 481.23828l.13671 1.22266"/></g><g clip-path="url(#q)"><path fill="none" stroke="#000" stroke-linecap="round" stroke-linejoin="round" stroke-miterlimit="10" stroke-width=".5" d="M200.57031 481.5039l-6.6211-2.35156"/></g><g clip-path="url(#r)"><path fill="none" stroke="#000" stroke-linecap="round" stroke-linejoin="round" stroke-miterlimit="10" stroke-width=".5" d="M213.6914 481.95313l-6.23046-3.25"/></g><g clip-path="url(#s)"><path fill="none" stroke="#000" stroke-linecap="round" stroke-linejoin="round" stroke-miterlimit="10" stroke-width=".5" d="M227.07031 481.82031l-6.35937-2.98437"/></g><g clip-path="url(#t)"><path fill="none" stroke="#000" stroke-linecap="round" stroke-linejoin="round" stroke-miterlimit="10" stroke-width=".5" d="M240.55469 481.39063l-6.69922-2.125"/></g><g clip-path="url(#u)"><path fill="none" stroke="#000" stroke-linecap="round" stroke-linejoin="round" stroke-miterlimit="10" stroke-width=".5" d="M239.57813 481.08203l.22265 1.20703"/></g><g clip-path="url(#v)"><path fill="none" stroke="#000" stroke-linecap="round" stroke-linejoin="round" stroke-miterlimit="10" stroke-width=".5" d="M252.8711 482.9375l-4.70313-5.21875"/></g><g clip-path="url(#w)"><path fill="none" stroke="#000" stroke-linecap="round" stroke-linejoin="round" stroke-miterlimit="10" stroke-width=".5" d="M265.70313 483.30469l-3.73438-5.95313"/></g><g clip-path="url(#x)"><path fill="none" stroke="#000" stroke-linecap="round" stroke-linejoin="round" stroke-miterlimit="10" stroke-width=".5" d="M278.41797 483.60547l-2.53516-6.55469"/></g><g clip-path="url(#y)"><path fill="none" stroke="#000" stroke-linecap="round" stroke-linejoin="round" stroke-miterlimit="10" stroke-width=".5" d="M292.23438 477.29297l-3.53516 6.07031"/></g><g clip-path="url(#z)"><path fill="none" stroke="#000" stroke-linecap="round" stroke-linejoin="round" stroke-miterlimit="10" stroke-width=".5" d="M305.09766 477.07031l-2.63282 6.51563"/></g><path fill="none" stroke="#000" stroke-linecap="round" stroke-linejoin="round" stroke-miterlimit="10" stroke-width=".5" d="M304.71484 478.01953l1.21875-.1289"/><g clip-path="url(#A)"><path fill="none" stroke="#000" stroke-linecap="round" stroke-linejoin="round" stroke-miterlimit="10" stroke-width=".5" d="M317.77734 476.88281l-1.36328 6.89453"/></g><g clip-path="url(#B)"><path fill="none" stroke="#000" stroke-linecap="round" stroke-linejoin="round" stroke-miterlimit="10" stroke-width=".5" d="M327.7461 478.03906l5.33202 4.57813"/></g><g clip-path="url(#C)"><path fill="none" stroke="#000" stroke-linecap="round" stroke-linejoin="round" stroke-miterlimit="10" stroke-width=".5" d="M340.6836 482.08203l6.08593-3.50781"/></g><g clip-path="url(#D)"><path fill="none" stroke="#000" stroke-linecap="round" stroke-linejoin="round" stroke-miterlimit="10" stroke-width=".5" d="M353.625 481.14844l6.83203-1.64063"/></g><g clip-path="url(#E)"><path fill="none" stroke="#000" stroke-linecap="round" stroke-linejoin="round" stroke-miterlimit="10" stroke-width=".5" d="M354.61719 480.91016l-.8125-.91797"/></g><g clip-path="url(#F)"><path fill="none" stroke="#000" stroke-linecap="round" stroke-linejoin="round" stroke-miterlimit="10" stroke-width=".5" d="M367.0625 481.55078l6.58984-2.4414"/></g><g clip-path="url(#G)"><path fill="none" stroke="#000" stroke-linecap="round" stroke-linejoin="round" stroke-miterlimit="10" stroke-width=".5" d="M368.01953 481.19531l-.91406-.8164"/></g><g clip-path="url(#H)"><path fill="none" stroke="#000" stroke-linecap="round" stroke-linejoin="round" stroke-miterlimit="10" stroke-width=".5" d="M380.52344 481.89453l6.29297-3.1289"/></g><g clip-path="url(#I)"><path fill="none" stroke="#000" stroke-linecap="round" stroke-linejoin="round" stroke-miterlimit="10" stroke-width=".5" d="M380.52344 481.89453l-1.9961-1.42969"/></g><g clip-path="url(#J)"><path fill="none" stroke="#000" stroke-linecap="round" stroke-linejoin="round" stroke-miterlimit="10" stroke-width=".5" d="M393.86719 481.94922l6.23828-3.24219"/></g><g clip-path="url(#K)"><path fill="none" stroke="#000" stroke-linecap="round" stroke-linejoin="round" stroke-miterlimit="10" stroke-width=".5" d="M393.86719 481.94922l-2.01953-1.39063"/></g><g clip-path="url(#L)"><path fill="none" stroke="#000" stroke-linecap="round" stroke-linejoin="round" stroke-miterlimit="10" stroke-width=".5" d="M407.30469 482.16016l5.9961-3.66407"/></g><g clip-path="url(#M)"><path fill="none" stroke="#000" stroke-linecap="round" stroke-linejoin="round" stroke-miterlimit="10" stroke-width=".5" d="M407.30469 482.16016l-2.11328-1.2461"/></g><g clip-path="url(#N)"><path fill="none" stroke="#000" stroke-linecap="round" stroke-linejoin="round" stroke-miterlimit="10" stroke-width=".5" d="M408.17578 481.6289l-1.05469-.625"/></g><g clip-path="url(#O)"><path fill="none" stroke="#000" stroke-linecap="round" stroke-linejoin="round" stroke-miterlimit="10" stroke-width=".5" d="M421.10547 482.78516l5.01953-4.91407"/></g><g clip-path="url(#P)"><path fill="none" stroke="#000" stroke-linecap="round" stroke-linejoin="round" stroke-miterlimit="10" stroke-width=".5" d="M435.3125 483.44531l3.23828-6.23437"/></g><g clip-path="url(#Q)"><path fill="none" stroke="#000" stroke-linecap="round" stroke-linejoin="round" stroke-miterlimit="10" stroke-width=".5" d="M449.01172 483.61719l2.46875-6.57813"/></g><g clip-path="url(#R)"><path fill="none" stroke="#000" stroke-linecap="round" stroke-linejoin="round" stroke-miterlimit="10" stroke-width=".5" d="M462.6875 483.73047l1.75-6.80469"/></g><g clip-path="url(#S)"><path fill="none" stroke="#000" stroke-linecap="round" stroke-linejoin="round" stroke-miterlimit="10" stroke-width=".5" d="M147.46484 467.59766l-6.92968-1.16797"/></g><path fill="none" stroke="#000" stroke-linecap="round" stroke-linejoin="round" stroke-miterlimit="10" stroke-width=".5" d="M147.46484 467.59766l.77344 2.33203m12.41406-1.8164l-6.67187-2.19923m6.67187 2.19922l.41407 2.42188m12.83593-2.2422l-6.54297-2.55858m6.54297 2.55859l.28516 2.4375m13.16406-2.85938l-6.8125-1.71484m6.8125 1.71484l.58985 2.38282m12.71484-2.33985l-6.79297-1.80078m6.79297 1.80078l.5586 2.38672m12.6328-2.0039l-6.54296-2.5625m6.54297 2.5625l.28125 2.43359m13.05859-2.5l-6.59375-2.4336m6.59375 2.4336l.32813 2.4336m13.04296-2.59376l-6.70312-2.11328m5.72656 1.80469l.22266 1.20703m14.01562-.75l-6.60156-2.41016m5.64063 2.0586l.17187 1.21484m13.20313.4961l-4.80079-5.12891m4.10547 4.38281l-.39844 1.16016m14.22266-.25l-4.42578-5.45703m17.875.11328l-4.6914 5.23047m16.76952-5.94922l-2.21875 6.66797m1.89454-5.69922l1.21093-.20313m12.03907-.8711l-1.4375 6.87891m1.22656-5.8789l1.17969-.33985m11.78515-.73046l-.32031 7.01953m.27344-6L331.6328 464m10.54297-.13672l3.10156 6.30078m-2.65234-5.38672l.71875-.99218m11.39453.57421l4.60547 5.3086m-3.9375-4.53516l.4414-1.14453m11.12891 2.0625l6.75781 1.92578m-5.77343-1.64453l-.25782-1.20312m12.46485 2.16015l7.00781-.55078m-7.00781.55078l-1.3164-2.07031m14.625 1.96094l7.01952-.33203m-7.01953.33203l-1.2539-2.11328m2.27343 2.0625l-.625-1.0547m13.0625 1.94141l6.73438-2.0039m-6.73438 2.0039l-1.72265-1.75m2.70312 1.45704l-.85937-.8711m13.48437 1.85547l6.15625-3.38672m-6.15625 3.38672l-2.05469-1.34375m2.94922.85156l-1.02734-.67187m14.24219 2.14062l4.5664-5.33984m-4.5664 5.33984l-2.39453-.53125m3.05859-.24609l-1.19922-.26563m14.16797 1.28516l3.92969-5.82422m-3.92969 5.82422l-2.4414-.25781m3.01171-.58985l-1.21875-.1289m14.85547 1.41015l2.14453-6.6914m-2.14453 6.6914l-2.41406.4336m2.72656-1.40625l-1.20703.21484"/><g clip-path="url(#T)"><path fill="none" stroke="#000" stroke-linecap="round" stroke-linejoin="round" stroke-miterlimit="10" stroke-width=".5" d="M147.42969 454.46094l-6.85938-1.52344"/></g><path fill="none" stroke="#000" stroke-linecap="round" stroke-linejoin="round" stroke-miterlimit="10" stroke-width=".5" d="M147.42969 454.46094l.65625 2.36328m12.17969-1.21485l-5.89844-3.8203m5.03906 3.26562l-.10547 1.21875m14.08594-.39453l-5.51172-4.35938m5.51172 4.35938l-.4414 2.41406m13.98046-2.73828l-5.96484-3.71485m5.96484 3.71485l-.16406 2.44922m13.76562-3.01172l-6.53515-2.58985m5.58203 2.21485l.13672 1.21875m14.2539-1.21875l-6.78125-1.83594m6.78125 1.83594l.54688 2.39062m12.69531-2.14843l-6.63281-2.32032m5.66797 1.98047l.1875 1.21485m13.90234-.4336l-6.2539-3.20703m5.34375 2.74219l.01953 1.22656m14.4375-3.39844l-6.71485 2.07031m17.65625-4.41015l-1.96875 6.7461m14.4414-6.88282l-.28515 7.02344M288.75 450.6328l3.42969 6.13281m10.7539-6.47656l1.69141 6.82031m-1.44531-5.82812l.91406-.82031m13.47656-.24219l-.94531 6.96094m.80469-5.94922l1.15234-.42578m12.75781-.4961l-1.85937 6.77735m1.85937-6.77735l2.39453-.53515m10.54297.45703l-1.10156 6.9375m.9414-5.92969l1.16016-.39844m12.21485-.625l-.90235 6.96875m.76953-5.95703l1.14844-.42969m13.07422-.39062l-2.44922 6.58594m2.08985-5.6289l1.21875-.16017m7.79687 1.75391l6.86719 1.48438m-5.8711-1.26954l-.33203-1.17968m12.78125.50781l6.60547 2.39453M393.6836 452.5l-.34375-2.42969m1.3047 2.77735l-.17188-1.21094m12.33203 1.73437l6.9961.65625m-6.9961-.65625l-.94532-2.26562m1.96094 2.35937l-.47265-1.1328m12.91015 2.40233l6.71485-2.0703m-6.71485 2.0703l-1.73828-1.73046m2.71484 1.42968l-1.73828-1.73047m14.12891 2.1836l6.61328-2.375m-6.61328 2.375l-1.8164-1.64844m2.77734 1.30469l-1.8164-1.65235m14.29687 2.3047l6.35937-2.9922m-6.35937 2.9922l-1.96485-1.46876m2.89063 1.03125l-.98047-.73437m14.8086 2.72656l3.48437-6.10156M461.8203 456.75l-2.45312-.07422m2.95703-.8125l-1.22656-.03906"/><g clip-path="url(#U)"><path fill="none" stroke="#000" stroke-linecap="round" stroke-linejoin="round" stroke-miterlimit="10" stroke-width=".5" d="M147.35938 441.41797l-6.71875-2.07031"/></g><path fill="none" stroke="#000" stroke-linecap="round" stroke-linejoin="round" stroke-miterlimit="10" stroke-width=".5" d="M146.3789 441.11719l.23438 1.20312m13.51172.17188l-5.6211-4.21485m4.8047 3.60157l-.19141 1.21093m11.86719.78907l-.70704-6.9922m15.14063 6.6875l-2.94531-6.3789m17.89453 4.82813l-6.21485-3.28125m5.3125 2.80468l.00391 1.22657m14.23047-.78516l-6.25-3.21094m5.34375 2.7461l.01562 1.22656m12.29297.9336l-2.42187-6.59766m2.07031 5.63672l-.82031.91406m14.16797.14453l-1.78516-6.79688m14.02344 6.90625l.3711-7.01562m9.6328 3.17187l6.9922.67188m6.30858-.47266l7.01954.27735m7.04297-2.3125l5.52343 4.34375m9.3164-5.46094l2.47267 6.57812m13.17578-6.6289l-2.1875 6.67969m1.86718-5.70704l1.20704-.21093m12.79296-.61719l-2.92187 6.39062m2.4961-5.46093l1.22656-.07422m12.6875-.76953l-3.26563 6.22265m2.78906-5.3164l1.22656-.00782m12.20704-1.0625l-2.55079 6.54688m2.1797-5.59375l1.21874-.14453m8.09375 4.1211l6.19922-3.3125m6.70703 1.8789l7.01563-.44531m-5.9961.3789l-.64062-1.04297m13.02734.0586l6.83203 1.65625m-6.83203-1.65625l-.60937-2.375m14.17578 1.67578l6.32812 3.05469m-6.32812-3.0547l-.09375-2.45312m1.01562 2.89844l-.04687-1.22656m12.10156 2.58984l7.0039-.5625m-7.0039.5625l-1.32031-2.0664m2.33984 1.98437l-.66015-1.03125m12.99609 1.4336l6.92578-1.19922m-6.92578 1.19921l-1.5039-1.9414m2.51171 1.76562l-1.5039-1.9375m13.83593 2.2461l6.875-1.46485m-6.875 1.46485l-1.57812-1.8789m2.57812 1.66405l-.78906-.9375m13.97266 2.8125l5.14062-4.78906m-5.14062 4.78906l-2.32031-.79687m3.0664.10156l-1.16015-.39844"/><g clip-path="url(#V)"><path fill="none" stroke="#000" stroke-linecap="round" stroke-linejoin="round" stroke-miterlimit="10" stroke-width=".5" d="M147.33203 428.1875l-6.66406-2.23828"/></g><path fill="none" stroke="#000" stroke-linecap="round" stroke-linejoin="round" stroke-miterlimit="10" stroke-width=".5" d="M146.36328 427.86328l.19922 1.20703m14.22656-1.48437l-6.94922-1.03125m5.9375.8789l.41407 1.15625m13.8164-2.48437l-6.75781 1.92578m20.0039-2.14453l-6.61718 2.36328m19.76953.38672L194.11719 425.5m5.3711 2.67969l.03515 1.22656m11.40625 1.15625l-.71094-6.98828m10.84766 5.58203l5.64843-4.17578m-4.82812 3.57031l-1.10547-.53125m13.9961 1.58985l4.85546-5.08204m-4.14844 4.33985l-1.17968-.33203m15.34765 1.9375l1.73438-6.8086m-1.48047 5.82032l-1.1914.28906m14.61327.77344l1.01563-6.95704m-.86719 5.94532l-1.15625.41015m13.02735.14063l3.60547-6.03516m8.01953 3.40625l6.98437-.77734m-5.96875.66406l-.6914-1.01172m13.08203 1.60938l6.80468-1.7461m6.94141 2.75l5.9414-3.7539m7.66798-.39844l5.35156 4.55078m8.35937-4.94922l4.5586 5.34766m7.52734-2.8164l7.01953.28515m6.90625 1.84375l5.79688-3.97266m-4.95313 3.39453l-1.08594-.5664m14.16016 1.8164l4.59375-5.3164m-4.59375 5.3164l-2.39453-.54687m16.71094-5.3789l2.58984 6.53515m-2.58984-6.53516l1.58984-1.86719m11.21094 2.1211l3.61719 6.02734m-3.6172-6.02734l1.26563-2.10156m14.7539 1.71875l-1.78905 6.79296m1.78906-6.79296l2.38672-.5625m11.07422.60156l-2.08204 6.71484m2.08204-6.71484l2.41015-.45703m-2.71484 1.43359l1.20703-.22656m10.07813-.66016l2.58984 6.53516m-2.58985-6.53516l1.58594-1.86719m12.63672 1.64063l.76953 6.98828m-.65625-5.96875l1.01172-.6914"/><g clip-path="url(#W)"><path fill="none" stroke="#000" stroke-linecap="round" stroke-linejoin="round" stroke-miterlimit="10" stroke-width=".5" d="M147.20313 412.30469l-6.40625 2.89844"/></g><path fill="none" stroke="#000" stroke-linecap="round" stroke-linejoin="round" stroke-miterlimit="10" stroke-width=".5" d="M146.26953 412.72656l.97266.75m13.10937-1.49219l-6.07422 3.53907m5.19141-3.02344l1.04297.64453m11.58984-2.58203l-2.94531 6.38281m2.51953-5.45312l1.22266-.07031m12.86719-.67579l-3.64063 6.01172m3.10938-5.13672l1.22656.07032m10.36719-1.42579l.86718 6.97266m9.45313-4.26562L214 414.53516m-5.85156-1.33594l-.32031-1.1836m12.55078 1.70313l7.02343.07031m-6.0039-.0625l-.5625-1.08594m13.0586 2.28516l6.625-2.34375m-6.625 2.34375l-1.8086-1.66015m17.1211 3.74609l2.625-6.51563m-2.2422 5.56641l-1.21875.13281m14.47657.92969l1.97656-6.74219m-1.6875 5.76172l-1.20313.25m13.04297.11719l4.34766-5.51563m-3.71484 4.71485l-1.20704-.21875m16.22657-5.25l-.32813 7.01953m.28125-5.9961l1.10938-.52734m8.57812 3.1836l7.01953-.33594m-5.9961.28906l-.6289-1.05469m12.95313.44532l6.95703.97265m-5.94531-.82812l-.42188-1.15235m12.96485 2.85938l6.47656-2.72656m-5.53516 2.32812l-.94922-.77344m13.17969-1.13672l6.76563 1.89063m-5.78125-1.61719l-.26563-1.19922m18.98047.04297l-6.0039 3.65235m13.8203-4.29688l4.9922 4.94531M368.58593 412l.35156-1.17578m11.88281.875l5.69922 4.10937m-5.69922-4.10937l.33594-2.4336m13.41406 1.9375l4.83203 5.10157m-4.83203-5.10156l.78125-2.32813m-.07812 3.07031l.78125-2.32812m15.11328.73047l-1.73438 6.8125m1.73438-6.8125l2.38281-.58203m11.49219.77734l-2.85156 6.42187m2.85156-6.42187l2.44922-.17188m-2.86328 1.10547l2.4453-.17187m-2.85937 1.10547l1.22266-.08594m12.0039-2.04688l-1.01952 6.95313m1.01953-6.95313l2.3125-.82421m-2.46094 1.83593l1.15625-.41406m13.16016-.35938l-2.72657 6.47657m2.72657-6.47656l2.4453-.21875m-2.83984 1.16015l1.22266-.10937m14.02734.42578l-5.80468 3.96094"/><g clip-path="url(#X)"><path fill="none" stroke="#000" stroke-linecap="round" stroke-linejoin="round" stroke-miterlimit="10" stroke-width=".5" d="M466.46484 411.77344l2.17188 1.14062"/></g><path fill="none" stroke="#000" stroke-linecap="round" stroke-linejoin="round" stroke-miterlimit="10" stroke-width=".5" d="M465.6211 412.35156l1.08593.57031"/><g clip-path="url(#Y)"><path fill="none" stroke="#000" stroke-linecap="round" stroke-linejoin="round" stroke-miterlimit="10" stroke-width=".5" d="M147.17188 398.92969l-6.34375 3.01562"/></g><path fill="none" stroke="#000" stroke-linecap="round" stroke-linejoin="round" stroke-miterlimit="10" stroke-width=".5" d="M147.17188 398.92969l1.97265 1.46484m11.3164-1.51953l-6.29296 3.1289m6.29297-3.1289l1.9961 1.42578m9.80858-2.97265l-3.26953 6.21875m2.79297-5.3125l1.22656-.00782m10.48829-1.27344l.8828 6.97266m-.7539-5.95703l1-.71094m10.1836.65625l4.88672 5.04688m-4.17579-4.3125l.37891-1.16797m11.76953.97656l5.80078 3.96485m-5.80078-3.96485l.26953-2.4375m.57422 3.01563l.13281-1.22266m11.96875 1.33984l6.53907 2.57032m-6.53907-2.57032l-.28125-2.4375m1.23047 2.8125l-.13672-1.21875m12.26953 1.82813l7.00391.60547m-7.0039-.60547l-.96094-2.25781m14.51953 3.875l6.51562-2.62891m-6.51562 2.6289l-1.8789-1.58202m16.96093 3.4453l2.98438-6.35937m-2.98438 6.35938l-2.45313.1211m15.26954-.40626l3.98047-5.78906m-3.40235 4.94922l-1.21875-.14063m14.03906 1.03906l3.8125-5.90234m-3.2578 5.04297l-1.22266-.10547m15.4453 1.4961l.89063-6.96875m9.4336 4.21875l6.87109-1.46485m-5.8711 1.25l-.78906-.9375m13.11329-.35937l6.85156 1.55859m9.47656-4.26953l.82813 6.97656m-.70704-5.96094l1.00782-.69921m10.76562 6.16796l3.66797-5.99218m-3.13281 5.12109l-1.22656-.07422m14.46484 1.1836l2.75-6.46485m-2.35156 5.52344l-1.21875.10547m19.01953-2.23047l-7.01953-.33594m7.01953.33594l1.04687 2.22265m11.42969-4.67187l-5.33984 4.5664m5.33984-4.5664l2.28516.89453m-3.0625-.23047l1.14062.44922m13.21875-.75781l-5.875 3.85547m5.875-3.85547l2.15235 1.17578m8.71093-2.73047l-.97265 6.96094m.97265-6.96094l2.30469-.83984m10.98047.83594l-.91016 6.96875m.91016-6.96875l2.29687-.85938m-2.42968 1.875l1.14843-.4336m13.08204-.3828l-2.47657 6.57421m2.47656-6.57422l2.4336-.3164m-2.79297 1.26953l1.21484-.15625m13.20313-.41016l-3.96485 5.80078"/><g clip-path="url(#Z)"><path fill="none" stroke="#000" stroke-linecap="round" stroke-linejoin="round" stroke-miterlimit="10" stroke-width=".5" d="M465.54297 397.53906l2.4375.26953"/></g><path fill="none" stroke="#000" stroke-linecap="round" stroke-linejoin="round" stroke-miterlimit="10" stroke-width=".5" d="M464.96875 398.38281l2.4375.26953"/><g clip-path="url(#aa)"><path fill="none" stroke="#000" stroke-linecap="round" stroke-linejoin="round" stroke-miterlimit="10" stroke-width=".5" d="M147.3086 385.94531l-6.6172 2.35547"/></g><path fill="none" stroke="#000" stroke-linecap="round" stroke-linejoin="round" stroke-miterlimit="10" stroke-width=".5" d="M147.3086 385.94531l1.8125 1.65625m11.07421-2.49219l-5.75781 4.02735m5.75781-4.02735l2.1836 1.1172m9.79297-2.26173l-3.08594 6.31641m3.08594-6.3164l2.45312-.08204m-2.90234 1.0039l1.22656-.04296m11.94531-1.10156l-1.89844 6.76172m1.89844-6.76172l2.39844-.52344m10.20312.39844l-.46875 7.01172m.46875-7.01172l2.23828-1.0039m10.64063 1.0039l.40234 7.01562m-.40234-7.01562l2.09375-1.27735m-2.03516 2.29688l2.09375-1.27344m-2.03515 2.29297l1.04687-.63672m11.08203-1.17187l2.53907 6.55078m-2.53907-6.55078l1.60157-1.85938m-1.23438 2.8125l.80469-.92969m9.89844 3.23438l7.02734.03515m-7.02734-.03515l-1.14063-2.17578m2.16406 2.17969l-.5703-1.08594m12.99608 2.0664l6.75782-1.93359m-6.75781 1.9336l-1.70313-1.76954m17.73047 4.2539l1.33594-6.90233m-1.33594 6.90234l-2.34766.71875m17.9375-1.04688L275.54297 384m2.75 5.33984l-.70313 1.00782m15.44141-.82422l-5.1289-4.80078m4.3828 4.10156l-.3203 1.1875m15.27343-3.51563l-6.91406 1.25391m5.90625-1.07031l.76172.96094m12.8125-2.75782l-5.41797 4.48047m5.41797-4.48047l2.26562.9375m10.76172-1.2461l-4.83984 5.09767m4.83984-5.09766l2.36328.66015m11.5664.1211l-6.07421 3.53515m6.07422-3.53515l2.08594 1.29687m11.41796 1.86329l-6.44921-2.78516m6.44921 2.78515l.20313 2.44532m-1.14063-2.85156l.10157 1.22265m14.42578-2.53906l-6.9961.66015m6.9961-.66015l1.34765 2.05078m-2.36718-1.95313l.67578 1.02344m13.03906-2.80469l-5.75781 4.02735m5.75781-4.02735l2.1836 1.1172m9.95703-2.17579l-3.41016 6.14453m3.41016-6.14453l2.45312.04688m11.34766.28125l-4.38282 5.48828m4.38282-5.48828l2.41406.44921m-3.05078.34766l1.20703.22656m10.34766-1.78515l.41406 7.01172m-.41406-7.01172l2.09375-1.27735m10.8789 1.3125l1.09766 6.94141m-1.09766-6.9414l1.96094-1.47657m11.61719 1.44531l.57031 7.00391m-.57031-7.0039l2.0664-1.32423m-1.98437 2.34375l1.03515-.66406m13.90235-.0664l-2.83985 6.42578m2.83985-6.42578l2.44922-.1797m-2.85938 1.11329l2.44531-.17578"/><g clip-path="url(#ab)"><path fill="none" stroke="#000" stroke-linecap="round" stroke-linejoin="round" stroke-miterlimit="10" stroke-width=".5" d="M147.22656 372.41797l-6.45312 2.78125"/></g><path fill="none" stroke="#000" stroke-linecap="round" stroke-linejoin="round" stroke-miterlimit="10" stroke-width=".5" d="M146.28906 372.82422l.95703.76562m12.58203-2.23828l-5.02343 4.91406m4.29297-4.19921l1.16797.37109m12.45312-1.45703l-4.17578 5.65234m3.5664-4.82812l1.21485.17969m11.88672-1.45313l-2.53125 6.55469m2.53125-6.55469l2.4336-.29688m10.91405.3086l-2.59765 6.53125m2.59765-6.53125L201 370.27344m-2.82031 1.21875l1.22265-.13281m12.1836-.91797l-2.01953 6.73046m2.01953-6.73046l2.40625-.48047m-2.69922 1.46094l2.40625-.48047m11.75-.28125l-3.1211 6.29687m3.1211-6.29687l2.45312-.07032m-2.90625.98829l2.45313-.07032m6.79297 4.1875l5.92578-3.77344m-5.0625 3.22266l-1.07031-.60547m15.37109 2.60156l2.22656-6.66406m-1.90234 5.69531l-1.21094.20313m14.03516.70703l2.5625-6.54687m-2.5625 6.54687l-2.4375.28125m15.70703-.30078l2.65234-6.50781m-2.26562 5.5625l-1.21875.125m17.22656.60937l-3.50781-6.08984m2.9961 5.20703l-.64845 1.03906m15.46094-.9961l-5.47656-4.40624m4.67969 3.76562l-.23047 1.20313m15.0586-3.40625l-6.91017 1.28125m5.90625-1.09375l.76172.95703m13.3047-1.94922l-6.40626 2.89063m6.40625-2.89063l1.9414 1.5039m11.5547-1.01171l-6.76563 1.90625m6.76562-1.90625l1.69532 1.76953m11.73047-.44922l-6.98829-.73437m6.98829.73437l.91796 2.27344m12.375-3.1875l-6.9414 1.09375m6.9414-1.09375l1.47266 1.96094m11.44922-3.10938L380.59375 375.5m6.15625-3.38672l2.05469 1.34375m10.28125-2.46484l-4.20313 5.63281m4.20313-5.63281l2.42578.375m9.71484-.94922l-1.85156 6.78125m1.85156-6.78125l2.39453-.53906m9.72266.42578l.54297 7.00781m-.54297-7.00781l2.07031-1.3164m11.0625 1.33593l.91016 6.96875m-.91016-6.96875l1.9961-1.42188m11.14062 1.44922l1.26953 6.91406m-1.26953-6.91406l1.92188-1.52344m-1.73829 2.53125l.96094-.76171m13.0664-.29297l-.52734 7.00781m.52735-7.00781l2.2461-.98438m-2.32032 2.0039l1.1211-.49218"/><g clip-path="url(#ac)"><path fill="none" stroke="#000" stroke-linecap="round" stroke-linejoin="round" stroke-miterlimit="10" stroke-width=".5" d="M144.32813 356.9961l-.65625 6.99609"/></g><g clip-path="url(#ad)"><path fill="none" stroke="#000" stroke-linecap="round" stroke-linejoin="round" stroke-miterlimit="10" stroke-width=".5" d="M144.23047 358.01172l1.13281-.47266"/></g><path fill="none" stroke="#000" stroke-linecap="round" stroke-linejoin="round" stroke-miterlimit="10" stroke-width=".5" d="M156.89453 357.0039l.83984 6.97657m-.71875-5.96094l1.00782-.69922m11.57031-.1836l2.07031 6.71485m-1.76953-5.73828l.86719-.8711m11.79297.02344l2.78125 6.45313m-2.78125-6.45313l1.53515-1.91406m11.96485 1.83985l2.41015 6.60156m-2.41015-6.60156l1.64062-1.82422m13.13281 1.6211l-.5078 7.0078m.5078-7.0078l2.2461-.9922m-2.32031 2.01172l1.125-.4961m13.0039-.39062l-1.98437 6.7422m1.98437-6.7422l2.40235-.49218m-2.69141 1.47265l2.40234-.49219m12.78516.4961l-5.15234 4.77344m5.15234-4.77344l2.32031.8086m6.45313-1.33204l3.9336 5.82422m8.20312-1.34375l6.28515-3.14063m-6.28515 3.14063l-1.9961-1.42188m16.72266 2.91016l3.46484-6.11328m-3.46484 6.11328l-2.45313-.0664m17.98438.48828l-.96484-6.96094m.96484 6.96094l-1.98828 1.4375m1.84765-2.44922l-.99609.71875m15.67578-.11719l-3.41797-6.14063m3.41797 6.14063l-1.33203 2.0625m16.25781-3.97266l-6.63281-2.3203m5.66797 1.98437l.1836 1.21093m13.72265-3.95312l-5.89063 3.83594M332.5 359.1328l1.07422.59375m12.72266-1.6289l-5.14063 4.78906m4.39063-4.08985l1.16015.39844m13.1836-.75781l-5.69922 4.11328m4.87109-3.51562l1.09766.54296m12.25-1.93359l-4.10938 5.69922m3.51172-4.8711l1.21484.16798m12.50391-1.12891l-3.71875 5.96094m3.71875-5.96094l2.44922.17187m10.23828-.48046l-2.46484 6.58203m2.46484-6.58204l2.4336-.3203m10.9375.33984l-2.57422 6.53906m2.57421-6.53906l2.4375-.27735m10.59375.17969l-2.0078 6.73438m2.0078-6.73438l2.40235-.48438m9.49219.36329l.83203 6.97656m-.83203-6.97656l2.01562-1.39844m10.48828 1.59375l2.45313 6.58594m-2.45313-6.58594l1.6289-1.83594m13.90626 1.76172l-1.98828 6.73828m1.98828-6.73828l2.40625-.49219m-2.69531 1.47266l1.20312-.2461"/><g clip-path="url(#ae)"><path fill="none" stroke="#000" stroke-linecap="round" stroke-linejoin="round" stroke-miterlimit="10" stroke-width=".5" d="M142.04297 344.26172l3.91406 5.83594"/></g><path fill="none" stroke="#000" stroke-linecap="round" stroke-linejoin="round" stroke-miterlimit="10" stroke-width=".5" d="M155.38672 344.24219l3.85547 5.8711m-3.85547-5.8711l1.17969-2.15235m-.6172 3.00782l.58595-1.07813m11.83593.46875l4.51953 5.3789m-4.51953-5.3789l.91797-2.27734m-.26172 3.0586l.46094-1.13673m11.92578.60547l5.0625 4.8789m-5.0625-4.8789l.67578-2.35937m.0625 3.0703l.33594-1.17968m12.16797.55078l5.21094 4.71485m-5.21094-4.71485l.59766-2.3789m.16015 3.0664l.30078-1.1914m12.79297.01953l4.13281 5.6836m-4.1328-5.6836l1.07421-2.20703m-.47266 3.03515l.53907-1.10547m12.82422-.09375l2.83593 6.42579m-2.83593-6.42579l1.51562-1.92968m-1.10547 2.86328l.76172-.96485m13.46094-.26953l.19922 7.02735m-.19922-7.02735l2.13281-1.21094m13.04688 1.6875l-3.53125 6.07422m3.01953-5.1914L253 345.0703m14.32813 1.73047l-6.98438.7539m6.98438-.7539l1.3789 2.03125m-2.39453-1.92187l.6875 1.01562m12.38281 1.96485l-4.46484-5.42579m4.46484 5.42579l-.9414 2.26562m.29296-3.05469l-.47265 1.13281m13.34375.26563l-2.28125-6.64453m2.28125 6.64453l-1.67578 1.79297m1.34375-2.75781l-.83594.89453m14.8086-.0586l-2.9297-6.38671m2.50391 5.45703l-.7461.97656m15.62891-.88281l-5.21484-4.71485m4.45703 4.02735l-.30078 1.1914m12.7539-6.23437l-1.97265 6.7461m16.13281-6.3711l-3.66797 5.9961m3.13672-5.1211l1.22266.07031m12.34375-1.09766l-3.10547 6.3047m2.65234-5.39063l1.22657-.03516m10.91015-1.24219l.15625 7.02735m-.1328-6.00391l1.0703-.59766m13.8125-.08203l-3.02343 6.34375m2.58203-5.42187l1.22656-.05469m11.875-1.10547l-1.71484 6.8164m1.71484-6.8164l2.38281-.58594m11.53906.80079l-2.92968 6.38671m2.92968-6.38671l2.44922-.14454m11.00391.21094l-3.20313 6.2539m3.20313-6.2539l2.45312-.03515m10.4375-.14844l-2.35546 6.6211m2.35546-6.6211l2.4297-.35938m10.4375.23438l-1.46095 6.8711m1.46094-6.8711l2.35938-.67969m11.6289.89453l-2.80468 6.4414m2.80468-6.4414l2.44532-.1914"/><g clip-path="url(#af)"><path fill="none" stroke="#000" stroke-linecap="round" stroke-linejoin="round" stroke-miterlimit="10" stroke-width=".5" d="M141.0625 331.9336l5.875 3.85937"/></g><path fill="none" stroke="#000" stroke-linecap="round" stroke-linejoin="round" stroke-miterlimit="10" stroke-width=".5" d="M154.64063 331.58594l5.34765 4.55469m-5.34766-4.5547l.52735-2.39843m.25 3.0586l.52734-2.39454m11.98438 1.76563l5.40234 4.49219m-5.40234-4.4922l.4961-2.40234m.28905 3.0547l.5-2.40235m11.92188 1.88672l5.61719 4.21875m-5.6172-4.21875l.37892-2.42579m.4375 3.03907l.3789-2.42578m11.9961 1.98828l5.86718 3.86719m-5.86719-3.8672l.23047-2.4414m.6211 3.0039l.23047-2.4414m.625 3.0039l.11328-1.22265m11.42187.20703l6.00781 3.64844m-6.0078-3.64844l.14062-2.44922m.73437 2.98047l.14063-2.44922m12.125 2.2422l6.35547 3m-6.35547-3l-.11719-2.44923m1.04297 2.88672l-.11719-2.44922m12.73047 1.61328l5.91406 3.79688m-5.91406-3.79688l.19922-2.4453m.66016 2.99608l.10156-1.22265m13.14062-.19531l4.33985 5.52734m-4.33985-5.52734l.99219-2.2422m17.30078 2.89845l-5.61719 4.21875m4.80079-3.60547l1.10937.51953m13.08984 2.9961l-5.75-4.03907m5.75 4.03906l-.30468 2.4336m11.32812-.98829l-1.16797-6.92968m1.16797 6.92969l-1.94531 1.49609m14.89844-1.45313l-.44532-7.01562m.44532 7.01562l-2.08985 1.28516m15.8164-1.33594l-1.26952-6.91406m1.08593 5.90625l-.96093.76172m10.5039-4.36328l6.64063 2.30078m6.5039-1.55078l6.98047.80469m8.4922-3.65235l2.66796 6.5m12.08594-6.76172l-.20703 7.02344m16.66796-4.84375l-6.5039 2.66406m5.5586-2.27734l.9453.78515m11.90625-2.83203l-3.68359 5.98438m3.14844-5.11328l1.22265.07812m12.4297-1.0625l-3.28907 6.21094m3.28906-6.21094l2.45313-.0039m10.99218.07421l-3.54687 6.07032m3.02734-5.1875l1.22657.05078m11.59375-1.32813l-1.51954 6.85938m1.29688-5.86328l1.1836-.32813m13.55468-.15625l-3.92187 5.83594m3.92187-5.83594l2.4414.2539m11.29298.07813l-4.75782 5.17188"/><g clip-path="url(#ag)"><path fill="none" stroke="#000" stroke-linecap="round" stroke-linejoin="round" stroke-miterlimit="10" stroke-width=".5" d="M465.9414 331.27734l2.375.6172"/></g><path fill="none" stroke="#000" stroke-linecap="round" stroke-linejoin="round" stroke-miterlimit="10" stroke-width=".5" d="M465.2461 332.03125l1.1875.3086"/><g clip-path="url(#ah)"><path fill="none" stroke="#000" stroke-linecap="round" stroke-linejoin="round" stroke-miterlimit="10" stroke-width=".5" d="M140.90625 318.88672l6.1875 3.32422"/></g><path fill="none" stroke="#000" stroke-linecap="round" stroke-linejoin="round" stroke-miterlimit="10" stroke-width=".5" d="M154.27734 318.78125l6.07422 3.53516m-6.07422-3.53516l.09375-2.45313m.78907 2.96485l.05078-1.22266m12.3789.71485l6.07813 3.52734m-6.07813-3.52734l.09375-2.45313m.79297 2.96485l.04688-1.22657m12.30078.86719l6.24219 3.22266m-6.2422-3.22266l-.03124-2.45313m.9375 2.92188l-.03125-2.45313m12.25 2.42188l6.625 2.34375m-6.625-2.34375l-.36328-2.42578m1.32422 2.76953l-.1797-1.21484m12.42188 1.2539L214 321.33984m-6.84766-1.58203l-.63672-2.3711m1.63282 2.60157l-.3164-1.1836m12.54687 1.64063l7.02343.20313m-7.02343-.20313l-1.08985-2.19922m2.10938 2.23047l-1.08594-2.19922m13.39844 1.89454l6.98828.75m-6.98828-.75l-.91406-2.27735m1.93359 2.38672l-.91797-2.27734m13.34375 1.53515l6.73047 2.01563m-6.73047-2.01563l-.48438-2.40625m1.46094 2.69922l-.23828-1.20312m12.75.4453l6.3789 2.94923m-6.3789-2.94922l-.13672-2.44922m13.32032 2.77734l6.64453 2.29297m-5.67578-1.96094l-.19141-1.21093m15.13672 5.46094l1.44922-6.875m-1.23829 5.875l-1.17968.33984m14.42578.6875l1.16406-6.92969m-1.16406 6.92969l-2.32813.77734m14.8086-1.02344l2.83203-6.43359m-2.83203 6.4336l-2.44532.17968m16.17579-.02734l2-6.73828m-2 6.73828l-2.40235.48437m15.75-.47656l1.9375-6.7539m-1.65625 5.76953l-1.19922.2578m16.13282.73438l-1.86329-6.77343m13.11329.0625l2.26562 6.65234m15.48047-2.10938l-6.59375-2.43359m5.63281 2.07813l.16797 1.21484m13.8086-3.90625l-5.9961 3.66016m5.125-3.12891l1.05469.625m12.42969-1.98438l-4.59375 5.31641m4.59375-5.3164l2.39453.54687m10-1.1211l-2.75 6.46485m2.75-6.46484l2.44531-.21485m8.02734.2539l2.9336 6.38673m-2.50782-5.45703l.7461-.97657m16.38281 1.08204l-5.54687 4.3125m5.54687-4.3125l2.23828 1.0039m11.15235-.90234l-5.69922 4.10937"/><g clip-path="url(#ai)"><path fill="none" stroke="#000" stroke-linecap="round" stroke-linejoin="round" stroke-miterlimit="10" stroke-width=".5" d="M466.41016 318.49219l2.20312 1.08594"/></g><g clip-path="url(#aj)"><path fill="none" stroke="#000" stroke-linecap="round" stroke-linejoin="round" stroke-miterlimit="10" stroke-width=".5" d="M465.58203 319.08984l2.20313 1.08594"/></g><path fill="#00f" fill-rule="evenodd" d="M397.11719 467.64844h8.61719V457.5039h-8.6172v10.14453"/><path fill="azure" fill-rule="evenodd" d="M398.94922 459.33594h.83203v2.82422h3.28516v-2.82422h.83593v6.48047h-.83593v-2.91797h-3.28516v2.91797h-.83203v-6.48047"/><path fill="#ff3030" fill-rule="evenodd" d="M326.79688 445.45703h7.6914V435.3125h-7.6914v10.14453"/><path fill="azure" fill-rule="evenodd" d="M328.6289 437.14453h.83204v5.73828h3.19531v.74219h-4.02734v-6.48047"/><path fill="#00f" fill-rule="evenodd" d="M370.48438 405.51172h8.62109v-10.14453h-8.6211v10.14453"/><path fill="azure" fill-rule="evenodd" d="M372.3164 397.19922h.83594v2.82422h3.28516v-2.82422h.83203v6.48047h-.83203v-2.91797h-3.28516v2.91797h-.83593v-6.48047"/><path fill="#00f" fill-rule="evenodd" d="M201.82813 396.63281h8.61718v-10.14453h-8.61719v10.14453"/><path fill="azure" fill-rule="evenodd" d="M203.66016 388.32031h.83203v2.82422h3.28906v-2.82422h.83203v6.48047h-.83203v-2.91406h-3.28906v2.91406h-.83203v-6.48047"/><path fill="#ff3030" fill-rule="evenodd" d="M260.21875 374.4414h7.69531v-10.14452h-7.69531v10.14453"/><path fill="azure" fill-rule="evenodd" d="M262.05469 366.1289h.83203v5.7422h3.19531v.73827h-4.02734v-6.48046"/><path fill="#ffffe0" fill-rule="evenodd" d="M421.91797 463.4414h22.17969V453.25h-22.1797v10.1914"/><path fill-rule="evenodd" d="M425.41797 455.08203h.50781v6.29688h-.78515v-4.4922H423.75v-.55468l.5586-.0664.2539-.05079.23047-.08984.20312-.14453.17188-.20703.14453-.29688.10547-.39453m4.8125 0l.23047.01953.21875.05469.20703.08984.19531.1211.1836.14844.17187.17578.30078.42187.2461.49219.17968.54687.10938.57813.03906.58984-.03906.59375-.10938.58594-.17969.55469-.24609.5-.30078.42969-.17188.17968-.18359.15235-.19531.125-.20703.08984-.21875.0586-.23047.01952-.23047-.01953-.21875-.05859-.20703-.08984-.19531-.125-.1875-.15235-.16797-.17969-.30469-.42968-.24219-.5-.17969-.55469-.10937-.58594-.03906-.59375h.83203l.02734.5664.08203.50392.12891.4414.16016.375.1914.30078.21094.22266.22266.13672.22656.04687.22656-.04687.22266-.13672.21094-.22266.1914-.30078.16016-.375.1289-.4414.07813-.50391.03125-.5664-.03125-.5586-.07813-.5-.1289-.4375-.16016-.36328-.1914-.29297-.21094-.21485-.22266-.1328-.22656-.04298-.22656.04297-.22266.13281-.21094.21485-.1914.29297-.16016.36328-.1289.4375-.08204.5-.02734.5586h-.83203l.03906-.58985.10938-.57813.17968-.54687.24219-.49219.30469-.42187.16797-.17579.1875-.14843.1953-.1211.20704-.08984.21875-.05469.23047-.01953m5.08984 0h.51172v6.29688h-.78906v-4.4922h-1.38672v-.55468l.5586-.0664.2539-.05079.22656-.08984.20313-.14453.17578-.20703.14062-.29688.10547-.39453m2.82422 2.17578h.78906l.01954-.3164.05859-.28516.09765-.2539.14063-.21485.17969-.17578.22656-.1289.26172-.07813.3086-.02735.23827.01954.22266.0625.20703.10156.17969.14062.14844.17188.11328.20703.07031.23437.02344.26563-.01953.26953-.06641.22266-.10938.1914-.15625.17188-.19921.16406-.25.16406-.63282.39063-.53515.3125-.4375.3164-.34766.32422-.26562.33594-.1875.35156-.125.3711-.07032.39062-.01953.42188h4.21094v-.7422h-3.33203l.08203-.28515.11328-.23437.14844-.20313.1875-.17969.23047-.17187.27734-.17578.71875-.41797.41406-.20313.34766-.23046.28125-.25391.21875-.26563.16406-.27734.10938-.28515.0664-.28516.01954-.28125-.04297-.38281-.1211-.34766-.1875-.3086-.25-.26171-.30469-.21485-.34375-.15625-.3828-.09765-.40626-.03516-.4336.03125-.39843.10156-.35547.16407-.30469.23437-.24609.30469-.1875.375-.11719.44531-.03906.51953"/><path fill="#ffffe0" fill-rule="evenodd" d="M354.2461 348.04297h22.17968v-10.1914H354.2461v10.1914"/><path fill-rule="evenodd" d="M357.7461 339.6836h.5078v6.29687h-.78515v-4.49219h-1.39063v-.55469l.5586-.0625.2539-.05468.23047-.08985.20313-.14062.17187-.21094.14454-.29297.10546-.39844m4.8125 0l.23047.01954.21875.05468.20703.08985.19532.12109.18359.15234.17188.17579.30468.41796.24219.4922.17969.54687.10937.57812.03906.59375-.03906.59375-.10937.58203-.17969.55469-.24219.5-.30469.42969-.17187.17969-.1836.15234-.1953.125-.20704.08984-.21875.0586-.23047.01953-.23046-.01953-.21875-.0586-.20704-.08984-.1953-.125-.1836-.15235-.17188-.17968-.30469-.42969-.24218-.5-.17969-.55469-.10938-.58203-.03906-.59375h.83203l.03125.5625.07813.5039.1289.44532.16016.375.1914.30078.21094.21875.22266.13672.22656.04688.22657-.04688.22265-.13672.21094-.21875.1914-.30078.16016-.375.1289-.44531.08204-.5039.02734-.5625-.02734-.5625-.08203-.5-.1289-.4336-.16016-.36719-.19141-.29297-.21094-.21484-.22265-.1289-.22657-.04688-.22656.04687-.22265.1289-.21094.21485-.1914.29297-.16017.36719-.1289.4336-.07813.5-.03125.5625h-.83203l.03906-.59376.10938-.57812.17969-.54688.24219-.49219.30468-.41796.17188-.17579.1836-.15234.1953-.1211.20704-.08984.21875-.05469.23046-.01953m5.08985 0h.51172v6.29688h-.78907v-4.49219h-1.38671v-.55469l.55859-.0625.2539-.05468.23047-.08985.20313-.14062.17187-.21094.14063-.29297.10547-.39844m2.82422 2.17579h.78906l.01953-.31641.0586-.28516.09765-.2539.14063-.21485.18359-.17187.22265-.1289.26563-.08204.30469-.02734.23828.02343.22656.0625.20313.10157.17968.13671.14844.17188.11328.20703.07031.23438.02735.26562-.02344.26953-.0664.22266-.10938.19531-.15625.16797-.19922.16406-.2461.16406-.63671.39063-.53516.3125-.4375.3164-.34765.32423-.26563.33593-.1875.35156-.125.3711-.07031.39062-.01953.42188h4.21094v-.74219h-3.33204l.08204-.28515.11328-.23438.14843-.20313.1875-.17968.23047-.17188.27735-.17578.71875-.41406.41406-.20703.34765-.23047.28125-.25.21875-.26953.16407-.27735.10937-.28515.0664-.28516.01954-.28125-.04297-.38281-.1211-.34766-.1875-.3086-.25-.26171-.30468-.21094-.34375-.16015-.3789-.09766-.41016-.03516-.4336.03516-.39843.09766-.35547.16796-.30469.23438-.2461.30078-.1875.375-.11327.44531-.04297.51954"/><path fill="#ffffe0" fill-rule="evenodd" d="M154.46875 392.42578h22.17969v-10.1914h-22.17969v10.1914"/><path fill-rule="evenodd" d="M157.96875 384.07031h.50781v6.29297h-.78515V385.875h-1.38672v-.5586l.5586-.0625.25-.05468.23046-.08985.20313-.14062.17578-.21094.14062-.29297.10547-.39453m4.8125 0l.23047.01563.21875.0586.20703.08983.19922.1172.1836.15234.17187.17578.30078.41797.24219.49218.17968.54688.11328.58203.03907.58984-.03906.59375-.11329.58204-.17968.55468-.2422.5039-.30077.42579-.17188.17969-.1836.15234-.19921.125-.20703.09375-.21875.05469-.23047.01953-.22656-.01953-.21875-.05469-.21094-.09375-.19531-.125-.1836-.15234-.17187-.17969-.30078-.42578-.24219-.5039-.17969-.5547-.11328-.58203-.03906-.59375h.83594l.02734.5625.08203.50782.125.4414.16406.375.19141.30078.20703.21875.22266.14063.22656.04687.22656-.04687.22266-.14063.21094-.21875.1914-.30078.16406-.375.125-.4414.08204-.50782.02734-.5625-.02734-.5625-.08203-.5-.125-.43359-.16407-.36719-.1914-.29297-.21094-.21484-.22266-.1289-.22656-.04688-.22656.04687-.22266.12891-.20703.21484-.1914.29297-.16407.36719-.125.4336-.08203.5-.02734.5625h-.83594l.03906-.58985.11328-.58203.17969-.54688.24219-.49218.30078-.41797.17187-.17578.1836-.15235.19531-.11719.21094-.08984.21875-.0586.22656-.01562m5.09375 0h.50781v6.29297h-.78515V385.875h-1.39063v-.5586l.5625-.0625.25-.05468.23047-.08985.20313-.14062.17578-.21094.14062-.29297.10547-.39453m2.82422 2.17188h.78516l.01953-.3164.05859-.28517.10156-.25.14063-.21875.17969-.17187.22265-.1289.26563-.08204.30859-.02734.23828.02344.22266.0625.20312.10156.17969.13672.14844.17578.11328.20312.07031.23829.02734.26171-.02343.26954-.0625.22656-.11328.1914-.15235.17188-.20312.16015-.2461.16797-.6328.38672-.53907.3125-.4375.3164-.34766.32813-.26172.33204-.1914.35156-.125.3711-.07031.39452-.01954.41797h4.21094v-.74219h-3.33203l.08594-.28125.11328-.23828.14844-.20312.18359-.17969.23438-.17188.27734-.17578.71484-.41406.41797-.20703.34375-.23047.28125-.25.21875-.26953.16406-.27734.11328-.28125.0625-.28516.01954-.28125-.04297-.38281-.11719-.35156-.1914-.3047-.25-.26562-.30079-.21094-.34765-.16015-.37891-.09766-.40625-.03125-.4375.03125-.39453.09766-.35547.16797-.30469.23437-.25.30469-.1836.3711-.11718.44921-.03906.51563"/></g></defs><use xlink:href="#ak"/></svg>