<svg xmlns="http://www.w3.org/2000/svg" role="img" xmlns:xlink="http://www.w3.org/1999/xlink" viewBox="142.45 309.95 326.84 171.84"><defs><clipPath id="a"><path d="M144 433h1v47.32813h-1zm0 0"/></clipPath><clipPath id="b"><path d="M144 311.67188h1V431h-1zm0 0"/></clipPath><clipPath id="c"><path d="M144 311.67188h324v168.65625H144zm0 0"/></clipPath><clipPath id="d"><path d="M467 311.67188h1v168.65625h-1zm0 0"/></clipPath><clipPath id="e"><path d="M144 479h4v1.32813h-4zm0 0"/></clipPath><clipPath id="f"><path d="M147 480h2v.32813h-2zm0 0"/></clipPath><clipPath id="g"><path d="M146 480h2v.32813h-2zm0 0"/></clipPath><clipPath id="h"><path d="M153 479h9v1.32813h-9zm0 0"/></clipPath><clipPath id="i"><path d="M160 480h3v.32813h-3zm0 0"/></clipPath><clipPath id="j"><path d="M159 480h2v.32813h-2zm0 0"/></clipPath><clipPath id="k"><path d="M166 479h9v1.32813h-9zm0 0"/></clipPath><clipPath id="l"><path d="M173 480h3v.32813h-3zm0 0"/></clipPath><clipPath id="m"><path d="M172 480h2v.32813h-2zm0 0"/></clipPath><clipPath id="n"><path d="M180 480h8v.32813h-8zm0 0"/></clipPath><clipPath id="o"><path d="M187 480h2v.32813h-2zm0 0"/></clipPath><clipPath id="p"><path d="M186 480h2v.32813h-2zm0 0"/></clipPath><clipPath id="q"><path d="M193 480h9v.32813h-9zm0 0"/></clipPath><clipPath id="r"><path d="M200 480h3v.32813h-3zm0 0"/></clipPath><clipPath id="s"><path d="M199 480h2v.32813h-2zm0 0"/></clipPath><clipPath id="t"><path d="M206 479h9v1.32813h-9zm0 0"/></clipPath><clipPath id="u"><path d="M213 479h3v1.32813h-3zm0 0"/></clipPath><clipPath id="v"><path d="M212 479h2v1.32813h-2zm0 0"/></clipPath><clipPath id="w"><path d="M220 479h8v1.32813h-8zm0 0"/></clipPath><clipPath id="x"><path d="M227 479h3v1.32813h-3zm0 0"/></clipPath><clipPath id="y"><path d="M226 479h3v1.32813h-3zm0 0"/></clipPath><clipPath id="z"><path d="M233 479h8v1.32813h-8zm0 0"/></clipPath><clipPath id="A"><path d="M240 479h3v1.32813h-3zm0 0"/></clipPath><clipPath id="B"><path d="M239 479h2v1.32813h-2zm0 0"/></clipPath><clipPath id="C"><path d="M246 479h9v1.32813h-9zm0 0"/></clipPath><clipPath id="D"><path d="M253 479h3v1.32813h-3zm0 0"/></clipPath><clipPath id="E"><path d="M252 479h2v1.32813h-2zm0 0"/></clipPath><clipPath id="F"><path d="M260 479h8v1.32813h-8zm0 0"/></clipPath><clipPath id="G"><path d="M266 479h4v1.32813h-4zm0 0"/></clipPath><clipPath id="H"><path d="M265 479h3v1.32813h-3zm0 0"/></clipPath><clipPath id="I"><path d="M273 478h8v2.32813h-8zm0 0"/></clipPath><clipPath id="J"><path d="M280 478h3v2.32813h-3zm0 0"/></clipPath><clipPath id="K"><path d="M279 478h2v2.32813h-2zm0 0"/></clipPath><clipPath id="L"><path d="M287 477h7v3.32813h-7zm0 0"/></clipPath><clipPath id="M"><path d="M301 477h6v3.32813h-6zm0 0"/></clipPath><clipPath id="N"><path d="M314 477h6v3.32813h-6zm0 0"/></clipPath><clipPath id="O"><path d="M327 477h7v3.32813h-7zm0 0"/></clipPath><clipPath id="P"><path d="M340 477h7v3.32813h-7zm0 0"/></clipPath><clipPath id="Q"><path d="M354 477h6v3.32813h-6zm0 0"/></clipPath><clipPath id="R"><path d="M367 477h7v3.32813h-7zm0 0"/></clipPath><clipPath id="S"><path d="M381 477h5v3.32813h-5zm0 0"/></clipPath><clipPath id="T"><path d="M393 479h8v1.32813h-8zm0 0"/></clipPath><clipPath id="U"><path d="M393 479h2v1.32813h-2zm0 0"/></clipPath><clipPath id="V"><path d="M409 476h3v4.32813h-3zm0 0"/></clipPath><clipPath id="W"><path d="M421 477h6v3.32813h-6zm0 0"/></clipPath><clipPath id="X"><path d="M434 477h5v3.32813h-5zm0 0"/></clipPath><clipPath id="Y"><path d="M448 476h4v4.32813h-4zm0 0"/></clipPath><clipPath id="Z"><path d="M462 476h3v4.32813h-3zm0 0"/></clipPath><clipPath id="aa"><path d="M144 466h4v2h-4zm0 0"/></clipPath><clipPath id="ab"><path d="M465 464h3v2h-3zm0 0"/></clipPath><clipPath id="ac"><path d="M144 453h4v2h-4zm0 0"/></clipPath><clipPath id="ad"><path d="M144 439h4v2h-4zm0 0"/></clipPath><clipPath id="ae"><path d="M465 437h3v1h-3zm0 0"/></clipPath><clipPath id="af"><path d="M144 426h4v2h-4zm0 0"/></clipPath><clipPath id="ag"><path d="M465 424h3v2h-3zm0 0"/></clipPath><clipPath id="ah"><path d="M144 413h4v2h-4zm0 0"/></clipPath><clipPath id="ai"><path d="M465 410h3v3h-3zm0 0"/></clipPath><clipPath id="aj"><path d="M144 398h4v4h-4zm0 0"/></clipPath><clipPath id="ak"><path d="M466 398h2v2h-2zm0 0"/></clipPath><clipPath id="al"><path d="M465 398h3v3h-3zm0 0"/></clipPath><clipPath id="am"><path d="M144 385h4v4h-4zm0 0"/></clipPath><clipPath id="an"><path d="M466 384h2v3h-2zm0 0"/></clipPath><clipPath id="ao"><path d="M465 385h3v3h-3zm0 0"/></clipPath><clipPath id="ap"><path d="M144 372h4v4h-4zm0 0"/></clipPath><clipPath id="aq"><path d="M466 372h2v3h-2zm0 0"/></clipPath><clipPath id="ar"><path d="M144 358h4v5h-4zm0 0"/></clipPath><clipPath id="as"><path d="M466 358h2v3h-2zm0 0"/></clipPath><clipPath id="at"><path d="M144 344h4v6h-4zm0 0"/></clipPath><clipPath id="au"><path d="M466 345h2v3h-2zm0 0"/></clipPath><clipPath id="av"><path d="M465 345h3v3h-3zm0 0"/></clipPath><clipPath id="aw"><path d="M144 330h3v8h-3zm0 0"/></clipPath><clipPath id="ax"><path d="M466 332h2v3h-2zm0 0"/></clipPath><clipPath id="ay"><path d="M465 332h3v3h-3zm0 0"/></clipPath><clipPath id="az"><path d="M144 318h4v5h-4zm0 0"/></clipPath><clipPath id="aA"><path d="M465 318h3v2h-3zm0 0"/></clipPath><g id="aB" clip-path="url(#clip1)"><path fill="#fff" fill-opacity="0" fill-rule="evenodd" d="M0 0h1000v1000H0zm0 0"/><path fill="#d3d3d3" fill-opacity="0" fill-rule="evenodd" d="M162.15234 355.86719l-.23437.29297.0586.23437.11718.17188.17578.23437.29297.34766.11328.0586.11719-.17188.0586-.23438.17577-.17578.46485-.17578h.69922l.23437.29297.28906.8164.0586.17579.17578.23046.35156.23438.69922.69922.17188.17578.23437.34765.23438.41016.28906.58203.41015.46485.23047.23437.23438.17578.11719.23047.17578.29297.17187 1.16406v.23438l.0586.28906.05859.11719.11719.11719.34765.41015.11719.17188.17578.17578.17578.23437.11719.17188.17188.35156.05859.23438.23437.40625.23438-.0586-.17578.17578-.0586.92969h-.58203l-.23437-.11328-.34766.11328-.11719.11719-.05859.29297-.0586.17578-.11718.17187-.46484.29297-.0586.23438-.0586.11328v.64453l.0586.17187v.41016l.0586.0586v.40624l.05859.40625.11719.17579.05859.05859.23047.64062-.0586.29297v.69922l-.05859.58203v.23438l-.0586.23047-.05468.35156v1.92187l.05469.1172h.42578l-.36719.11718-.02344.35156.89063 1.16797 1.74219.53906 1.33984.35938v.53906l.08984.8086.53516.71484 1.51953.26953.89063-.08594.08984 1.16406.53516.1797 1.16015-.1797 2.05469-.98437 1.16016-.36328 1.8789-.17578 1.69531-.1797-.17968.71876-1.51563.08594-1.25.08984-.80469.26953-1.07421.8086.26953.71875.53515.89843-.17968.625-.26563.8086.26563 1.07812.625.89844.80468.17969 1.25-.1797-.26562.72267.09766.5039.05468.29297v.17188l.0586.29296v.40625l.17578.1172.35156.11718h.40625l.29297-.17578.11328-.11719.0586-.11719.11718-.23047.0586-.17578.35156-.46484.23047-.17578.17578-.0586.17578.0586.0586.17578.11718.98828.05469.46875.0586.17188.11718.23437.17578.0586.8164.05859h.28907l.11719.23437.05859.40625.0586.35156v1.10547l.11718.29297.11719.34766.28906.69922.17578.35156.58203.7539.35157.17579.17187.0586.46875.23437.64063.46484.34765.23438.29297.17578.29297.05468.23047.0625.8164.34766.29297.17578.11328.17188.35157.35156.11719.17578.52343.64063v.28906l.0586.35156v.34766l.05859.35156.0586.28906.11718.0586.17188.05859h.17578l.58203.23437.17578.1172.17578.28905.17578.23438.11328.23437.29297.23047.11719.11719v.41016l.0586.05468.28906.23438.23437.11719.0586.11718.11718.17188.0586.11719.23047.23437.05859.17578.23437.0586.1172.05859-.1172.11328-.05859.11719v.11719l-.11719.29296-.11719.28907v.58203l.17579.11719.11718.05859.0586.11719.11719.11719.11328.05859.17578.34765.0586.35157.05858.40625v.17578l-.05859.17578-.11719.69922v.17187l.1172.17579.29296.29296h.40625l.17578.1172.11719.17187.11719.29296v.23438h-.52735l-.23047-.23438h-.23437l-.17578.0586-.0586.69922.0586.34765.11719.17579.17578.41015.11718.23047.28907.46875.17578.05469h.52344l.23437.0586.75781.64062.0586.29296v.23438l.05859.0586.23047.34765v.35156l-.11719.17188v.29297l.29297.28906.29297.17578.17187.0586.29297.17577.29297.1172.58203.40624.28906.23438.29297.17578.21875.16015.01563.01172.23047.17579.64062.52343.17578.23438.1172.17578.17577.17578.11328.17188v.64062l.1172.17578.46874.11719.58203.11719.23438.05859.23047.11328.29297.11719.11328.0586.58593.35156.28907.17187.17578.0625.17578.05469.17578.0586.69922.35155.28906.17579.23438.05468.28906.17578.23437.1172.64063.40624.29297.11719.17187.0586.23438.05859.41015.05859.23047.0586.23438.11718.0586.17188-.41017.17578.46875.0586.0586.29296.11328.23438.17578.05468.23438.0586.17578.05859.40625.11719.64062.23437.11719.17188.0586.23437v.17578l-.0586.1172-.0586.40624.23438.23438.11719.05859.34766.11719.64062.23047.17578.11718.28906.1172.17578.17577.23438.46485.58203 1.10546.17578.17579.34766.17578.17578.11719.35156.11718 1.04688.52344.23437.0586.46485.11327.29297.0586.46484.17578.75781.58203.23438.23438.34765.46484.17578.17578.28907.23438.8164.69921.29297.17579.28906.28906.29297.17578.29297.28906.69531.64063.17578.17578.29297.23437.28907.23438.46875.28906.64062.58203.34766.23438.23437.29297.34766.34765.35156.46485.9336.99218.34765.40625.11719.17579.23437.05859.11328.11719.64454.17578.23047.11328.23437.0586.29297.17577.23047.1172.9336.69921.40624.40625.23438.17578.40625.17578.23437.11719.8164.34766.34766.23437.23438.11719.29297.28906.23047.11719.7578.35156.35157.17188.23047.05859.29297.11719.23437.0586.8711.17577h.8164l.46875.23047.17188.0586.875.69921.46484.1172.29297.05858.17578.0586.23047.0586.46875.05859.34766.05859.35156.0586.40625.05859h.29297l.17187.0586v.23046l.17578.17578h.29297l.34766.0586.35156.05859.69922.11719h.64063l.46484-.23438.29297-.17578.17187-.11719.41016-.17187.28906-.17578.9336-.46485.46875-.29297.52343-.29296.46485-.17188.46484-.17578 1.05078-.46485.28906-.11718.41016-.11719.28906-.11719.52735-.17578 1.51562-.69922.58203-.34765.28907-.0586.29297-.0586.34765-.11718.875-.23047.35156-.11719h.11329l.23437-.05859.875-.23437.23438-.0586h.8125l.35156-.0586.8164-.11718.17188-.0586.35156-.05468.29297-.0586.23047-.05859.8164-.17578.17579-.0586h.34765l.23438-.05859.46484-.11718.75781-.17188.23438-.0586h.34765l.41016-.11718.28906-.0586 1.28516-.05859h.28906l.41016-.0586.23047-.05858h.17578l.875-.1172h.40625l.41015-.11718h.34766l.35156-.11328.8711-.0586h1.75l1.04687.28907.41016.11719.28906.11718.35156.11719.28907.11719 1.05078.17187.28906.0586h.29297l.29297.05859.17187.0586.41016.05859.17187.0586.1172.05858h.11718l.11719.0586.35156.0586h.11328l.41016.0664 1.92187.39453 1.92578.39453 1.51953.44922 1.69532.71875 2.14453.80469 1.60547-.71875 1.42968-.80469 1.16016-1.07813 1.25-.44921 3.03516-.71875 1.875-.35938 2.14453-1.34765 2.23437-1.25391 2.5-1.25781 1.69531-.44922 1.78516-.17969 1.16016-.26953.625.53906 1.33984-.26953.71485-.98828.98437-1.34375.44531-.17969.80469-.35937 1.875-.53907 1.78516-.44921 1.25-.26954 1.16015-.08984 1.69922-.08984 1.96094-.26954 1.25-.08984h.53906l.625-.08984h.89063l2.14453-.17969 2.41015-.17969 2.58985-.08984 1.69531.17969 1.60938.08984 1.42968.35938 1.16016.71875 1.875.98828 1.16015 1.52734.26563.71484.6289.08985.35548.89844.53515.53906.53516 1.52734 1.07422.35938h.53515l-.80469.53515.08985 1.70703.71484 2.69532.89063.80468.89453.98829.71484 1.2578 1.78516.53907 1.51953-.17969.35547 1.34375 1.60937-.80469.98047-.53906.26953.26953.31641-.21484.21875-.14453.80078.44922.44922-.35938h.35547l.53515-.26953.53907-.71875.53515-.26953.625-.98828 1.16016.44922.83984.3711 1.39454.61718 1.6953-.17969h1.60548l1.78515.08985.17969-1.70704.53516-1.34375.80468.26954.4922.84765.40233.40625-.08984.53906v.35938l.71485.44922.71093-.26953h1.42969l.35938.98828.4453 1.25781.71485 1.34375 1.25.6289 1.69531.62891.71485-.17969.17969-.53906.98046-.08984.44922.35937.08594 1.25782-.26563.6289-.53515.17969v.53906l.71484.98438.26563.53906.98437.98828.80078 1.07813-.26562.35937-.08985.89844-.625 2.33203-.35546 2.0664-.08985 1.79298-.17969.71875-.08984.53906v1.4375l-.98047 1.88281-.35937 1.70703-.53516.89844-.80469 1.16797-.26562.53906 2.05469 1.2539.08593.35938-.35546.53906-.08985-.17968v.80859l.08985 1.4375-.44532.71484-1.07422.09375-.26562.71485.53515.89844.8047.71875 1.16015.80859 1.33984.26953.44531.35938-.35546.44921-1.78907-.08984-1.25-.44922-.71484-.71875-.625-.08984-.17578 3.58984-.1875 1.3086h89.35937V311.70313h-55.26953v49.08203l.76172.125 3.28906.54296 2.02344 2.83594v2.7539l2.35156.33204 2.34766.33203h4.05078l-1.3789 4.16016-2.02344.70703-2.02344.70312-.54297.34375-2.59375 1.6172-.1875.11718-2.02344-2.07813-.73046-2.74218-2.67188-2.07813-1.375-3.5-.0664-.08203-1.95704-2.67188 2.75-1.41796v-49.08204H294.42187v91.41407l.1172.03125.1328.01172.07422.07421.10547.04688.08985.0586.08593.05859.08985.0586.29687.29687.0586.08984.03125.11719.02734.11719.01563.13671-.03125.1172-.0586.08983-.0586.08594-.04296.10547-.04688.10156-.02734.1211v.14453l.17578.26953.14844.14844.07422.08594.07422.07421.04296.10547.0625.08985.0586.08593.04297.10547.0586.08985.04687.10156.04296.10547.0586.08594.11719.17968.07421.07422.0625.08594.0586.08984.04297.10547.0586.08985.05858.08593.0625.08985.0586.08984.04297.10156.11719.17969.07421.07422.0586.08594.07422.07421.08984.0586.10547.04687h.14844l.1328-.01562.13282.01562.10156-.04687.07422-.07422.04688-.10156-.01563-.13281v-.14844l-.04687-.10547-.02735-.11719-.04687-.10156-.02735-.1211-.04296-.10156-.0625-.08984-.04297-.10156-.04297-.10547-.03125-.11719-.01563-.13281-.01171-.13672.08593-.0586.0586-.08593.12109-.03125.04297.10547.01562.1328v.1172l.0586.10156.0586.08984.08983.0586.14844.14843.0586.08985.04296.10547-.01171.10156.08593.0586.10547.04687.08594.0586.08984.05858.07422.07422-.11719.02735-.10546.04687-.08594.0586-.07422.07421-.0586.08985-.0625.08594-.02734.12109-.04687.10156-.04297.10547-.03125.11719-.01172.13281-.01563.13281v.14844l.02735.11719.04687.10547.04297.10156.0586.08984.07421.07422.08985.0586.07422.07421.08984.0586.0586.08984.04296.10547.04688.10156.11719.03125.1328.01563h.14845l.11718-.03125.10547.04297.04297.10547.04688.10156.02734.1211L299.5 410l.02734.11719.03125.1211.02735.11718.10547.04297.10156.04687.13281-.01562.14844.14844.0625.08593.07422.07422.07031.07422.08984.0625.10547.04297.10156.04297.1172.03125.13671.01562.11719-.03125.07422-.07422.02734-.11718-.01172-.13282-.03125-.12109-.02734-.11719.04297-.10547h.11719l.08984.0625.11719.02735h.14843l.13282.01562h.14843l.13282.01563.1328-.01563h.14845l.1328-.01562.13282-.01172.13672.01172.11719-.02735.13281-.01562.1914-.0586-.05859.17579-.01562.1328-.02735.1211-.01562.13281-.0586.08594-.1328.01563-.10548.04687-.10546.04297-.1172.03125-.11718.02735-.26563.03125h-.14843l-.13281.01562-.07422.07422.05859.08594.14844.14843.11719.1797.07421.0703.08985.0625.08984.0586.08594.0586.08984.05858.10156.04297.10547.0625.10547.04297.08594.0586.10547.04687.10156.04297.17969.11719.0586.08984-.04298.10156-.04687.10547.01562.13281.22266.22266.0586.08985.04296.10156.03125.1211.04297.10155.01563.13282.03125.11718.01171.13672.03125.11719.14844.14844.10156.04297.10547.04296.1172.03125.1328.01563.13672.01563h.11719l.11719-.03125.08984-.0586.04297-.10547.04688-.10156.04296-.10547.03125-.11719.01172-.1328v-.14845l-.01172-.1328-.01562-.13282-.03125-.11719-.04297-.10547-.04688-.10547-.04296-.10156-.04297-.10547-.01563-.13281.01563-.13281.02734-.11719.03125-.11719.02735-.1211.04687-.10155.08984-.0586.08594-.0625.07422-.07422.08984-.05859.22266-.22266.0586-.08593.07421-.07422.11719-.17969.0586-.08594v-.14844l-.07423-.07421-.10156-.04688-.10547-.04297-.10156-.04297-.0586-.08984-.04687-.10547-.02734-.11719.08984-.05859.11719-.03125.10156-.04297.17969-.11719.14844-.14843.01172-.13282-.01172-.10546-.08985-.0586-.1328.01563h-.14845l-.1328.01562-.13282-.01562-.1211-.03125-.08593-.0586-.07422-.07422-.0586-.08984-.0625-.08594-.11718-.17969-.0586-.08593.03125-.1211.08594-.05859.1211-.03125.05859-.08594v-.1211l-.03125-.11718-.0586-.08984-.05859-.08594-.04687-.10547-.02735-.11719-.01562-.1328.0586-.08985.07421-.07422.08984-.0586.1172-.17968.07421-.07422.0586-.08594.14843-.14844.1211-.03125.1328-.01562.13282.01562.07422.07422.04297.10547.01562.13281-.03125.1172-.11719.03124-.1328.01172-.14844.14844-.04297.10547-.04688.10156-.02734.1211-.03125.11718v.14844l.03125.11719.04297.10546.05859.08985.07422.07031.07422.07422.11719.03125.12109.02734.11719-.02734.1328-.01563h.1172l.08984.0586.07422.07422.04687.10546.0586.08594.10156.04688.13281.01562.10547.04297.08594.0586-.01172.10546-.07422.07422-.17969.11719-.05859.08984-.08984.0586-.07032.07422-.07421.07421-.0625.08985-.02735.11719-.01562.1328.01562.13282-.01562.13281v.14844l.01562.13281.02735.1172.03125.12108.07421.07422.08985.0586.08594.0586.08984.05858.11719.03125v.08594l-.10157.04688-.08984.0586-.26563.03124-.11718.02735h-.14844l-.10547.04296-.10156.04688-.0586.08984-.0625.23438-.01171.13281-.03125.1211-.01563.1328v.29298l-.01172.1328.01172.13673.01563.1328.1328.01563.13282.01172.1211.03125.08593.0586.07422.07421.04688.10547.04296.10157.01563.1328v.44532l-.01563.13281v.44532l.03125.26562.02735.11719.01562.13281.03125.11719.08594.21094.03125.26562v.14844l-.03125.11719-.02734.11718-.03125.1211-.02735.11719-.03125.11718-.03125.1211-.01171.1328-.01563.13282.08984.0586.1172-.03125.10155.01562.04688.10547-.03125.26562v.44141l-.04297.10547-.04688.10547-.04296.10156-.04297.10547-.0586.08594-.03125.12109-.04296.11719-.03125.11719-.01563.1328.01563.13282.05859.08984.10547.04688.08594.0586.05859.08593-.01172.13672-.03125.11719-.04297.10156v.44531l-.01562.13281v.14844l-.03125.11719-.04297.10547-.02735.11719-.04687.10546-.04297.10157-.03125.12109-.02734.11719-.03125.13281-.03125.11719-.02735.11719-.04297.10546-.03125.1172-.03125.12108-.01171.13282-.01563.13281v.29688l.02734.11718v.14844l.04688.39844.02734.11719.0586.08984.12109.03125h.14844l.13281-.01563.0586.08985v.11719l-.0586.08984-.08984.0586-.10157.04296-.10546.04688-.08985.05859-.08594.0586-.13671.01562-.1172-.03125-.1328-.01563-.10157.04688-.0625.08594-.01172.13671-.01562.13282-.03125.11719-.02735.11718-.01562.13281-.03125.1211v.29687l.01563.13282.03125.11718v.14844l.01171.13281v.14844l-.02734.11719-.04688.10156-.02734.1211-.03125.11718-.0586.08985-.07421.07421-.10156.04297-.10547.04688-.11719.02734-.1211.03125-.10156-.04687.0586-.08594.10547-.04688.02734-.11718.03125-.11719.02734-.1211.03125-.11718v-.14844l.01563-.13281-.03125-.11719-.04297-.10547-.10547.01563-.07422.07422-.10156.04296-.08984.0625-.07422.07422-.04297.10157-.01563.1328-.03125.1172L304.25 426l-.03125.11719-.02734.11719-.03125.12109-.02735.11719-.03125.11718-.04297.10547-.08984.0586h-.08984l-.1172-.03125-.03124-.08594.01562-.13672-.03125-.11719v-.14844l-.01171-.1328v-.14844l-.0625-.23438-.02735-.1211-.04297-.10156-.04687-.10546-.0586-.08594-.05859-.08985-.04297-.10546-.0625-.08594-.14844-.14844-.0703-.07422-.10548-.04687-.10547-.04297-.10156-.04297-.29687-.29688-.08985-.07421-.08594-.0586-.10546-.04297-.08985-.0625-.08594-.0586-.10546-.04296-.08985-.0586-.08594-.0625-.07421-.0703-.10547-.04688-.08594-.0586-.10547-.04296-.08984-.0625-.10156-.04297-.10547-.04297-.08594-.0586-.10547-.04687-.10547-.04297-.10156-.04687-.08985-.0586-.10156-.04297-.10547-.04296-.08984-.0625-.11719-.02735-.13281-.01562-.13281.01562H299.75l-.13281.01563-.11719-.03125-.08984-.0586-.07422-.07422-.08985-.05859-.10156-.04688h-.14844l-.12109-.02734-.10156-.04297-.07422-.07422-.11719-.17968-.08984-.0586-.10156-.04297-.08985-.0625-.10547-.04296-.08984-.0586-.08594-.0586-.10547-.04687-.0586-.08594-.05858-.08984-.04297-.10547-.04688-.10156-.07422-.07422-.08594-.0586-.07421-.07421-.08985-.0586-.22265-.22265-.04297-.10547-.03125-.26563.10547-.04296h.14453l.10547.04296.07421.07422.08985.0586.08594.0586.10546.04687.08985.05859.14844.14844.0703.07422.14845.14843.0625.08594.07421.07422.08594.0586.07422.07421.08985.0625.08984.0586.08594.05859.26953.17578.10156.04688.10547.04296.10156.04297.04688-.07421.05859-.08594.07422-.07422.07031-.07422.10547.04297.07422.07422.0586.08984.04296.10156.04688.10547.04296.10547.1211.02735.11719-.02735.07421-.08984.04297-.10547.0586-.08985.07422-.07421.10546-.04297.1172-.02735.1328.01172.08985.0586.14844.14843.05859.08985.04297.10547.04687.10156.04297.10547.04297.10156.10547.04688.10547.04296.13281.01563.08594-.0586.0586-.08984.07421-.07422.10547-.04297.11719.02735.10547.04687.10156.04297.10547.04297.10156.04688.17969.11718v.11719l-.01563.13281.01563.13281.01562.13672.0586.08594.10156.04688.1211.02734.11718.03125h.14844l.11719-.03125.05859-.08984.17969-.1172.05859-.08983.07422-.07422.0586-.08594.11718-.17969.17969-.11719.11719.03125.08984.0586.04297.07422-.01563.1328v.1172l.08985.05859h.14843l.13282-.01563.1328-.01171.26563-.03125.10547-.04297.11719-.03125.1211-.02735.07421-.07421.07031-.07422.0625-.08985-.01562-.10547-.04688-.10156-.10156-.04297-.10547-.01562-.11718.02734-.26563.03125h-.14844l-.07421-.07422-.08985-.0586-.11719-.03124-.11718-.02735-.13282-.01562h-.14843l-.13282.01563h-.29687l-.10547-.04688-.14844-.14844-.04297-.10156-.05859-.08984.22266-.22266.08593-.0586.10547-.04296.11719-.03125.13281-.01563.13281.01563.13672.01562.10157.04297.1328-.01172.08985-.0625.10156-.04297.0625-.08984-.04687-.10156-.08984-.0586-.1172-.03125-.10155-.04296-.0586-.08985-.0625-.08984v-.11719l.01563-.13281.10547-.04688.07421-.07031v-.1211l-.08984-.05859-.03125-.11719.08985-.05859.07421-.07422.04297-.10547.0586-.08984.04687-.10156.01563-.13281v-.14844l-.04688-.10547-.04297-.10156-.08984-.0586-.13281-.01562-.10157-.04297-.13671-.01563-.1172-.03125h-.4453l-.13282-.01562-.13281-.01172-.13281-.01563-.11719-.03125h-.14844l-.13281-.01562-.13281-.01172-.26563-.03125-.1211-.04297-.08593-.0586-.07422-.07421v-.14844l.01172-.13281.10547-.04688.10156-.04296.13281-.01563h.15235l.13281-.01562h.29297l.1211.03125.10156.04296.08984.0586.23438.0625.12109-.04688.08984-.05859.10156-.04297.13282-.01562.10547.04296.10156.04688.13281.01172.1211-.02735h.14453l.12109-.03125.11719-.02734.10547-.04687.07421-.07422.08594-.0586.14844-.14843.0586-.08594.04687-.10547.02734-.11719.01563-.10547-.10156-.04296-.08985-.0586-.11719-.03125-.10546-.04297-.08985-.0625-.07422-.08594-.07422-.07421-.10156-.04297-.10547-.04688-.10156-.04297-.0586-.08984-.04687-.10156-.08594-.21094-.0625-.08594-.05859-.08984-.07422-.07422-.08594-.0586h-.26953l-.11719.03126-.08984.05859-.10156.04297-.13281.01562-.10547-.01562-.02735-.11719-.0625-.08984-.11718-.03125-.10157-.04297-.14843-.14844-.03125-.11719-.01563-.10546.07422-.07422.17969-.1172.11719-.02733.11718-.03125.13672.01562.10156.04297.10547.04297.10156.04687.10547.04297.1172.03125.1328.01563.1172.02734.1328.01563.10547-.01563.08985-.0586-.07422-.07421-.10547-.04297-.07422-.07422-.07422-.08984-.14844-.14844-.08593-.0586-.08985-.05859-.07422-.07422-.08984-.0586-.10156-.04687-.1211-.02734-.10156-.04688-.10547-.04296-.11719-.03125-.10156-.04297-.1211-.03125h-.14843l-.11719.03125-.10546.04297-.08594.0625-.17969.11718-.08594.0586-.08984.0586-.10547.04687-.08594.05859-.10547.04297-.10156.04297-.10547.04687-.07422.07422-.05859.08985-.0586.08593-.04687.10547-.0586.08594-.07421.07422-.13281-.01172-.1172-.03125h-.11718l-.07422.07422-.08984.0586-.07422.07421-.08984.0586-.08594.05859-.10547.04687-.10156.04297-.13672.01563-.10156-.04297-.14844-.14844-.10547-.04688h-.08594l-.10547.04688-.10156.04297-.1211.03125-.11718-.03125-.07422-.07422v-.11719l.03125-.1211.07422-.0703.0586-.08985.07421-.07422.11719-.03125.10547-.04296h.29297l.13281-.01563.13672-.01563.10156-.04296.08985-.0586.10156-.04687.08984-.0586.13281-.01171.08985.05859.13281.01172.08984-.0586.08594-.05859.10547-.04297.08984-.0586.08594-.0625.08985-.05859.14843-.14843.0586-.08594.05859-.08985.10547-.04296.13281-.01563.11719.02735.1211.03125.05859-.0586.05859-.08984.03125-.26563.02734-.11719.10547.01172.13281.01563.10157-.04297.08984-.0586.0586-.08984.07421-.07422.0586-.08984.04687-.10156.01172-.13281-.01172-.13282-.04687-.10547-.14844-.14843-.0586-.08985-.05859-.08594-.04297-.10546v-.44532l.01563-.1328v-.14845l.01172-.1328-.0586-.0586-.08984.0586-.10156-.04298-.17969-.11719-.08594-.05859-.0625-.08984-.0586-.08985-.07421-.07421-.08594-.0586-.1211.03125-.10155.01172-.10547.04688-.08594.05859-.10547.04297-.14844.14844-.08984.05859-.08594.0586-.08984.0625-.10547.04296-.13281.01563v-.1211l.10547-.04297.11718-.03125.07422-.0703.04297-.10548v-.14844l-.02734-.11718-.14844-.14844-.13281-.01563h-.14844l-.11719.03125-.10547.04297-.10156.04297-.08984.0625-.11719.02735-.07422-.07422.01172-.13281-.04297-.10157-.04297-.10547-.08984-.05859-.11719.02734-.1211.03125-.11718.03125-.10156.04297-.1211.03125-.10156.04297-.10547.04297-.08984.0586-.10156.01562v-.11719l.01562-.13281-.0586-.08985-.07421.04297-.14844.14844-.0586.08985-.07421.07421-.04688.10547-.04296.10156-.07422.07422-.0586.08985-.07422.07422-.05859.08593-.07422.07422-.08984.0625-.07422.07031-.07422.07422-.10156.01563-.13281.01562-.10547-.04296v-.1211l.14843-.14844.04297-.10156.0586-.08984.04687-.10156.04297-.10547.0586-.08985.03124-.11719.04297-.10156.03125-.1211.02735-.11718.04687-.10547.04297-.10156.04297-.10547.07422-.07031.08984-.0625.08985-.0586.10156-.04296h.29687l.26563-.03125.10547-.04297-.07422-.07422-.11719-.03125-.10547-.04297-.08984-.0586-.10156-.04687-.08985-.0586-.10156-.04296-.10547-.04297-.08984-.0625-.08594-.0586-.10547-.04296-.10156-.04297-.1211-.03125-.11718-.03125-.10157-.04297L297.5 410.25l-.10156-.04297-.08985-.0586-.04296-.10546-.01563-.13281.10156-.04297.13281-.01563.13672.01563.13282-.01563.10156-.04297.0586-.08984.01562-.10547-.08985-.0586-.07421-.07421-.10157-.04297-.08984-.0586-.14844-.14843-.04297-.10547-.01562-.13281v-.29297l-.0586-.08985-.08984-.05859-.07422-.07422-.04297-.10547-.03125-.11718-.0586-.08985-.07421-.07422-.11719-.02734-.07422-.07422-.08984-.0586-.08984-.0625-.08594-.05859-.07422-.07421-.0586-.08594-.04687-.10547-.08594-.0586-.14843-.14843-.19532-.0586-.1328.01563-.10157.04297-.07422.07422-.04688.10156-.04296.10547-.0586.08984-.0586.08594-.29687.29687-.08984.0586h-.08594l-.0625-.08594-.04297-.10547.03125-.11719.0586-.08984.02734-.11719-.01172-.13281-.08984-.0625-.10547.04688-.11719.02734-.11719.03125-.26953.17578-.10156.04688-.11719.02734-.10546.04687-.08985.0586-.10156.04297-.0586-.08594-.04687-.10547.01563-.13281.04687-.10547.07031-.07422.07422-.07031.0586-.08985v-.14843l-.04297-.10547h-.23829l-.10156.04687-.03125.11719-.02734.11719-.03125.1211-.07422.04296-.13281.01563-.07422-.04688-.04297-.10156-.04297-.10547-.04687-.10156-.04297-.10547-.1211.03125-.10156.04297-.13281.01562-.11719.03125-.10547.04297-.08984.0586-.10156.04687-.1211.02734-.13281.01563-.10156-.04297-.0586-.08985-.04687-.10546-.04297-.10157-.04297-.10546v-.1172l.0586-.08984.08593-.05859.17969-.11719.10156-.04687.10547-.04297.10547-.0586.10156-.04296.08985-.0625.10156-.04297.10547-.0586.10156-.04687.08984-.0586.10547-.04296.10156-.04297.08985-.0625.10156-.04297.13672-.01563.11719.03125.10156.04297.1211.03125.10156.04297.10546.04688.10157.04296.10547.04297.10156.04688.10547.04297.10156.04297.10547.04687.08594.0586.10546.04296.1172.03125.10546.04297.10156.04688.08985.0586.10547.04296.10156.04297.10547.04687.11719.02735.10156.04687.1211.02735h.14843l.08594-.0586.01562-.10156.0586-.08984-.02735-.1172-.07422-.07421-.11719-.17969-.07421-.07422-.08985-.07421-.17969-.1172-.08593-.05859-.10547-.04296-.10156-.04688-.26954-.17578-.05859-.08985-.07422-.07421-.0586-.08985-.04296-.10156-.03125-.11719-.01563-.13672v-.5625l-.01171-.1328-.01563-.13282-.03125-.11719-.01562-.13281-.01172-.13281-.03125-.1211-.22266-.22265-.0586-.08594-.01562-.10547.03125-.11719.13281-.01562v-91.41406H172.9922v1.45312l-.0586.23438-.35156 1.05078-.17187.52343-.1172.34766-.17577.41016-.11719.17187-.23438.29297-.23046.0586h-.35157l-.11718.05859-.23047.40625v.29297l.11719.17578.23046.23047.1172.23437.64062.75781.29297.46485.17578.23437.23047.35156.23437.34766.64063.8164.17578.46485.17187.41016.11719.69531.17578.46875.11719 1.39844.0586.46484v.875l.11718 1.04688v4.78125l-.0586.46484-.35156 1.28125-.17578.52344-.11328.41015-.35156.9297L172.93359 336l-.23437.58203-.11719.17578-.17187.34766-.17578.40625-.35157.8164-.0586.29297-.11327.29297-.11719.28906-.0586.17579-.11718.875-.0586.40625-.05859.11718-.0586.17579-.05859.17187-.23047.52734-.11718.17188v.23437l-.11719.23438-.0586.17187-.17577.58594v.28906l-.0586.17579v.29296l-.0586.11329-.05859.52734v.17187l-.05468.23438v2.6211l-.17578.8164-.1172.17578-.17577.23438-.1172.17187-.11327.23438-.58594.93359-.23047.28906-.29297.46485-.17578.23437-.28906.35156-.35156.69922-.11328.23047-.17579.41016-.17578.23046-.40625.52735-.8164.69922-.29297.17187-.28906.23438-.17579.11719-.17578.17578-.52344.40625-.52734.17578-.17187.17578-.23438.05469-.64062.17578h-.75782m12.21094 31.02344l-1.07422.44921.35938.89454 1.25-.71485.44531-.53906-.98047-.08985"/><path fill="#d3d3d3" fill-opacity="0" fill-rule="evenodd" d="M201.50781 416.59766h-.89453l.44922.6289.98047.35938.80469-.08985.4453-.98828-.17577.08985-.71485-.35547-.89453.35547m154.6211 59.0703l-.0586-.52343v-.29297l.11328-.29297.0586-.23046.46875-.46875h.11328l.11719-.11329.11718-.05859h.17579l.23437-.0586h.34766l.23437.0586.11719.0586.23047.17187.0586.17578.11718.58203v.29297l-.11719.17578-.17187.28906-.17579.17579-.52734.52343-.23047.23438-.11719.0586h-.17578l-.11718-.0586-.40625-.29297-.17579-.11719-.11718-.0586-.0586-.11327-.05468-.1172m6.64062-10.95702l-.0586-.17188v-1.10937l.0586-.17188.17578-.0586.17188-.05858h.17578l.23437-.0586.1172.0586.05858.69921-.05859.17188-.11719.17578-.11718.0586-.23438.52343-.11328.0586h-.23438l-.05859-.1172m9.61328-14.39062l-.11719-.17578v-.69922l.29297-.875.1172-.17187.17577-.35156.11328-.23047.1172-.29297.35155-.75781.1172-.23047.17187-.23438h.17578l.11719-.0586h.64062l.11719.0586.23437.23438.17188.11328.35156.29297.11719.11718.11328.17579v.11328l.11719.05859.11718.11719v.69922l-.05859.17578v.23047l-.0586.17578-.34765 1.05078-.11719.23047-.11719.23437-.11718.0586-.23047.23437-.64063.28906h-.875l-.41015-.11718-.64063-.46485"/><path fill="none" stroke="#bebebe" stroke-linecap="round" stroke-linejoin="round" stroke-miterlimit="10" stroke-width=".5" d="M467.95703 311.69531H144.02734v168.625h323.9297v-168.625"/><g clip-path="url(#a)"><path fill="#fff" fill-opacity="0" fill-rule="evenodd" d="M144 475.89063v4.4375h.0039H144v-46.4336 41.9961"/></g><g clip-path="url(#b)"><path fill="#fff" fill-opacity="0" fill-rule="evenodd" d="M144 427.07031v3.625-119.02344h.0039H144v115.39844"/></g><path fill="#50fcfc" fill-rule="evenodd" d="M144 430.69531v3.19922l.0039-.00781v-3.1914H144"/><g clip-path="url(#c)"><path fill="#fff" fill-opacity="0" fill-rule="evenodd" d="M144.0039 480.32813v-46.44141l.83985-2.3789-.83984-.8125V311.67187h57.6953v101.94921l-.09374.13282.09375.10546 4.02344 4.33204-4.02344 3.49609-4.4375-.67188-4.4414-1.6875-1.00782-1.13671-3.42969-2.125-4.4375-.27344-4.4375.97656-1.42969 1.42188-3.01171 2.8203-4.3125 1.6172-.125.01171-4.4375.90625-3.98047 3.52344-.45703.20703-4.28516 4.23047-.15234 2.39844-1.27344 2.03906-1.90625 4.4375 2.79687 4.4375.38282 1.21875.03906 3.22266-.03906.99219-2.97266 3.4453-.64063 4.4375-.36718 4.4375 3.98047 3.78126 4.4375.21484 4.4375-.875 4.4375-.58984 4.4375.05078 4.4414-1.08594 4.4375.14063 4.20703-1.63672.23047-.03125 4.4375-.47266 4.4414.0664 4.4375-3.16796 1.83204-.83203 2.60547-.83985 2.97656-3.59765-1.3164-4.4375 2.77734-.89063 4.4414-.51953 4.4375-.9336 3.28516-2.09765-3.28516-2.52734-.84375-1.91016.3672-4.4375-2.5-4.4375-1.46095-3.38281-.96484-1.05469-3.47656-1.61328-4.4375-2.39453-2.21875-.4336 2.21875-3.21093.49219-1.22656-.4922-.45313-4.32421-3.98437-.11328-.13282V311.67188h39.94531v127.11328l-1.55469 1.59765 1.5547 1.63672 1.54687-1.63672-1.54688-1.59765V311.67187h137.58984v149.67188l-1.08203 1.23047 1.08204.82812 1.71875-.82812-1.71875-1.23047V311.67187h8.875v149.16407l-2.54297 1.73828 2.54296 2.11719 2.03907-2.1172-2.03906-1.73827V311.67188h79.88671v168.65625H144.00391"/></g><path fill="#50fcfc" fill-rule="evenodd" d="M144.84375 431.50781l-.83984 2.3789v-3.1914l.83984.8125m12.47266 34.84766l-3.98047-3.78125.36719-4.4375.64062-4.4375 2.97266-3.44531.03906-.9922-.03906-3.22265-.38282-1.21875-2.79687-4.4375 1.90625-4.4375 1.27344-2.03906.15234-2.39844 4.28516-4.23047.45703-.20703 3.98047-3.52344 4.4375-.90625.125-.01171 4.3125-1.6172 3.01172-2.8203 1.42968-1.42188 4.4375-.97656v2.92969l-4.4375 1.0078-3 2.89845-1.4414.65625-4.4375.46875-4.4375 1.1914-2.39844 2.125-2.03906.92578-3.5547 3.51172-.47265 4.4375-.28515 4.4375.01562 4.4375.30078 4.4414-.21875 4.4375.04297 4.4375-.03516 4.4375 4.20704 2.41017 4.4375-2.35547.18359-.0547 4.2539-.33593 4.4375.00781 4.44141-.39453 4.4375-.21094 4.4375-1.01171 4.4375-.5625 4.4414-.39844 1.8086-1.53125 2.6289-2.76172 2.57813-1.67578.2422-4.4375 1.61718-1.88281 4.4375-2.13672.64453-.42188 3.79688-3.39062.70312-1.04688 1.02344-4.4375-1.72656-2.1211-3.35547-2.3164-1.08594-1.10547-2.875-3.33203-1.5625-1.23828-4.4375-1.39844-4.4375.14454-4.4414.51953-2.08985-2.46875-2.34766-2.57422-4.4375-1.33203v-2.9297l4.4375.27345 3.42969 2.125 1.00781 1.13671 4.4414 1.6875 4.4375.67188 4.02345-3.4961-4.02344-4.33202-.09375-.10547.09375-.13282.11328.13282 4.32422 3.98437.49219.45313-.4922 1.22656-2.21874 3.21094 2.21875.43359 4.4375 2.39453 3.47656 1.61328.96484 1.05469 1.46094 3.38281 2.5 4.4375-.36719 4.4375.84375 1.91016 3.28516 2.52734-3.28516 2.09766-4.4375.9336-4.4414.51952-2.77734.89063 1.3164 4.4375-2.97656 3.59765-2.60547.83985-1.83203.83203-4.4375 3.16797-4.4414-.0664-4.4375.47265-.23048.03125-4.20703 1.63672-4.4375-.14063-4.4414 1.08594-4.4375-.05078-4.4375.58984-4.4375.875-4.4375-.21484"/><path fill="#00e8fc" fill-rule="evenodd" d="M157.45703 444.82031l-.01562-4.4375.28515-4.4375.47266-4.4375 3.55469-3.51172 2.03906-.92578 2.39844-2.125 4.4375-1.1914 4.4375-.46875 1.4414-.65625 3-2.89844 4.4375-1.00781v3.90625h-.0039l-4.4336.78125-4.4414 1.6289-4.4375.5664-3.98047 1.46485-.45703.14063-4.4375 1.98437-2.33985 2.3125-.85156 4.4375-.6914 4.4375-.16407 4.4375.71484 4.4414-.28906 4.4375.48047 4.4375 3.14063 4.3125 4.4375-2.0039 4.4375.38672 4.4375-.22265 4.4414-.3672 4.4375-.85156 3.1875-1.2539 1.25-.4414 4.4375-.63673 4.4414-1.71484 1.57423-1.64453 2.46094-4.4375.40234-1.34766 2.14062-3.09375 2.29688-1.82812 4.4375-1.83594.82422-.77344.84375-4.4375-1.66797-1.23828-3.60156-3.19922-.83594-.92969-4.4375-2.53906-4.4375-.1289-4.4414.60546-4.4375-.45703-3.92579-.98828-.51172-4.4414v-3.90625l4.4375 1.33203 2.34766 2.57422 2.08984 2.46875 4.4414-.51954 4.4375-.14453 4.4375 1.39844 1.5625 1.23828 2.875 3.33203 1.08595 1.10547 3.35547 2.3164 1.72656 2.1211-1.02344 4.4375-.70313 1.04688-3.79687 3.39062-.64453.42188-4.4375 2.13672-1.61719 1.8828-.24219 4.4375-2.57812 1.67579-2.6289 2.76172-1.8086 1.53125-4.4414.39844-4.4375.5625-4.4375 1.01171-4.4375.21094-4.44141.39453-4.4375-.0078-4.25391.33593-.1836.05469-4.4375 2.35546-4.20702-2.41015.03515-4.4375-.04297-4.4375.21875-4.4375-.30078-4.4414"/><path fill="#00d4fc" fill-rule="evenodd" d="M158.42188 449.26172l-.71485-4.4414.16406-4.4375.69141-4.4375.85156-4.4375 2.33985-2.3125 4.4375-1.98438.45703-.14063 3.98047-1.46484 4.4375-.5664v1.7578l-1.88282.27344-2.55468.27344-4.4375 1.4336-4.4375 1.61718-1.125 1.11328-1.23438 4.4375-1.09766 4.4375-.34375 4.4375 1.13282 4.4414-.35938 4.4375.91797 4.4375 2.10938 2.89454 4.4375-2.73828 4.4375 1.13672 4.4375-.45703 4.4414-.33985 1.82422-.4961 2.61328-.9453 4.4375-1.51954 4.4375-1.17578 1.47266-.79687 2.96875-2.95703.96484-1.48047.16406-4.4414-.67187-4.4375 2.07031-4.4375 1.5664-4.4375-4.09374-1.64454-4.4414.53125-4.4375.63672-4.4375-.21094-4.19532-3.75-.24219-.19531-4.4414-.07813v-1.7578l4.4414-1.62891 4.4336-.78125h.0039l.51172 4.4414 3.92578.98828 4.4375.45704 4.4414-.60547 4.4375.1289 4.4375 2.53906.83595.9297 3.60156 3.19921 1.66797 1.23828-.84375 4.4375-.82422.77344-4.4375 1.83594-2.29688 1.82812-2.14062 3.09375-.40234 1.34766-2.46094 4.4375-1.57422 1.64453-4.4414 1.71484-4.4375.63672-1.25.4414-3.1875 1.25392-4.4375.85156-4.44141.36719-4.4375.22265-4.4375-.38672-4.4375 2.0039-3.14063-4.3125-.48047-4.4375.28906-4.4375"/><path fill="#00c4fc" fill-rule="evenodd" d="M159.08594 449.26172l-1.13281-4.4414.34375-4.4375 1.09765-4.4375 1.23438-4.4375 1.125-1.11329 4.4375-1.61719 4.4375-1.43359 2.55468-.27344 1.88282-.27344v1.1836l-4.4375.6875-4.4375 1.67578-4.03516 1.16406-.40234.17188-1.52344 4.26562-1.5039 4.4375-.52345 4.4375 1.54688 4.4414-.4336 4.4375 1.35938 4.4375 1.07813 1.48048 2.35156-1.48047 2.08594-1.39844 4.4375 1.22656 4.4375-.5 4.4414-.27734 4.4375-2.1289 4.27735-1.35938.16015-.08203 4.4375-2.75 1.61328-1.60547-.8203-4.4414-.79298-1.83985-1.33594-2.59766 1.33594-2.70703.76953-1.73047-.76953-1.1875-4.4375-.64844-4.4375-.53125-4.4375-.48828-.55469-1.58203-3.88671-3.52734v-1.1836l4.4414.07813.24219.19531 4.19531 3.75 4.4375.21094 4.4375-.63672 4.4414-.53125 4.09376 1.64453-1.5664 4.4375-2.07032 4.4375.67188 4.4375-.16407 4.4414-.96484 1.48048-2.96875 2.95703-1.47266.79687-4.4375 1.17579-4.4375 1.51953-2.61328.9453-1.82422.4961-4.4414.33985-4.4375.45703-4.4375-1.13672-4.4375 2.73828-2.10938-2.89453-.91797-4.4375.35938-4.4375"/><path fill="#00b8fc" fill-rule="evenodd" d="M159.75 449.26172l-1.54688-4.4414.52344-4.4375 1.5039-4.4375 1.52345-4.26563.40234-.17188 4.03516-1.16406 4.4375-1.67578 4.4375-.6875v1.08203l-4.4375.92969-3.6172 1.51562-.8203.59375-4.4375 1.91797-.6875 1.92578-1.91016 4.4375-.70703 4.4375 1.96484 4.4414-.5039 4.4375 1.79687 4.4375.04688.0625.09765-.0625 4.33985-2.90624 4.4375.58984 4.4375.26563 4.4414-.27735 3.58985-2.10937.84765-1.92969 4.4375-1.58984 1.35156-.91797-1.35156-3.48438-.34765-.95703-2.52344-4.4375-1.5664-3.60547-4.4375-.57421-.36329-.25782-1.3789-4.4375-2.69922-2.44531v-1.08203l3.88672 3.52734.55468 1.58203 4.4375.48829 4.4375.53125 4.4375.64843.76953 1.1875-.76953 1.73047-1.33594 2.70703 1.33594 2.59766.79297 1.83984.82031 4.4414-1.61328 1.60548-4.4375 2.75-.16015.08203-4.27735 1.35937-4.4375 2.12891-4.4414.27734-4.4375.5-4.4375-1.22656-2.08594 1.39844-2.35156 1.48047-1.07813-1.48047-1.35937-4.4375.43359-4.4375"/><path fill="#00a8fc" fill-rule="evenodd" d="M160.41406 449.26172l-1.96484-4.4414.70703-4.4375 1.91016-4.4375.6875-1.92579 4.4375-1.91797.8203-.59375 3.6172-1.51562 4.4375-.92969v1.07813l-4.4375 1.17578-.45313.1914-3.98437 2.88281-3.52344 1.5547-.91406.14843-2.16797 4.28906-.88672 4.4375 2.3789 4.4414-.57812 4.4375 1.2539 3.0547 4.4375-3.03125 2.79688-.02344 1.64063-.02344.05859.02344 4.3789 1.00781 4.44141-.27344 1.25-.73437 1.44531-4.4375-.0039-4.4414.34766-4.4375-3.03907-2.58985-2.58594-1.84766-.34765-4.4375-1.50781-1.36719v-1.07812l2.69922 2.44531 1.3789 4.4375.36328.25781 4.4375.57422 1.5664 3.60547 2.52345 4.4375.34765.95703 1.35156 3.48438-1.35156.91797-4.4375 1.58984-.84765 1.92969-3.58985 2.10937-4.4414.27735-4.4375-.26563-4.4375-.58984-4.33985 2.90625-.09765.0625-.04688-.0625-1.79687-4.4375.5039-4.4375"/><path fill="#009800" fill-rule="evenodd" d="M161.07813 449.26172l-2.37891-4.4414.88672-4.4375 2.16797-4.28907.91406-.14844 3.52344-1.55469 3.98437-2.8828.45313-.19141 4.4375-1.17579v1.07813l-1.05078.28906-3.38672 2.64063-2.85547 1.79687-1.58203.61719-4.4375.3789-1.7422 3.44141-1.0664 4.4375 2.79688 4.4414-.64844 4.4375.66016 1.60938 2.35937-1.60937-2.3086-4.4375 4.38673-1.00781v.77734l-1 .23047 1 4.20703.5703-4.20703-.5703-.23047v-.77734l2.5 1.0078 1.9375 2.21095 4.4375 1.61328 4.0039-3.82422-.48047-4.4414.91797-2.45704 1.17578-1.98047-1.17578-1.0039-4.4414-2.82032-.98828-.61328.98828-1.71484.3203-2.72266-.3203-.28906v-1.07813l1.5078 1.3672.34767 4.4375 2.58593 1.84765 3.03906 2.58984-.34765 4.4375.0039 4.4414-1.4453 4.4375-1.25.73438-4.44141.27344-4.37891-1.00781-.0586-.02344-1.64062.02344-2.79687.02344-4.4375 3.03125-1.25391-3.0547.57813-4.4375"/><path fill="#00ac00" fill-rule="evenodd" d="M161.74219 449.26172l-2.79688-4.4414 1.0664-4.4375 1.7422-3.44141 4.4375-.37891 1.58203-.61719 2.85547-1.79687v2.1289l-4.4375 2.19922-4.4375-.6875-1.3125 2.59375-1.2461 4.4375 2.5586 4.05469v4.35938l-.07032.46484.07032.16797.24218-.16797-.24218-.46485V448.875l4.4375-1.40234 4.42968 1.78906.00782.00781 4.4375 1.53906 1.62109-1.54687.73438-4.4414-1.85547-4.4375-.5-.16798-4.4375-3.9375v-2.1289l3.38672-2.64063 1.05078-.28906.3203.28906-.3203 2.72266-.98828 1.71484.98828.61328 4.4414 2.82032 1.17578 1.0039-1.17578 1.98047-.91797 2.45703.48047 4.4414-4.0039 3.82423-4.4375-1.61328-1.9375-2.21094-2.5-1.00781-4.38672 1.0078 2.3086 4.4375-2.35938 1.60938-.66016-1.60937.64844-4.4375"/><path fill="#00c800" fill-rule="evenodd" d="M161.7539 448.875l-2.55859-4.05469 1.2461-4.4375 1.3125-2.59375 4.4375.6875 4.4375-2.19922v1.59375l-3.36328 2.51172-1.07422 1.84766-2.16016-1.84766-2.27734-.89844-.45313.89844-1.61328 4.4375 2.0664 3.26953 4.4375-2.17187 2.48438-1.09766 1.95313-1.15234 4.3789 1.15234.0586.05078.01953-.05078-.01953-.03125-1.69532-4.40625-2.74218-2.51172v-1.59375l4.4375 3.9375.5.16797 1.85547 4.4375-.73438 4.4414-1.6211 1.54688-4.4375-1.53906-.0078-.00781-4.4297-1.78906-4.4375 1.40234"/><path fill="#10cc00" fill-rule="evenodd" d="M161.7539 448.08984l-2.0664-3.26953 1.61328-4.4375.45313-.89844v1.47266l-1.57032 3.86328 1.57032 2.48438 4.05859-2.48438-4.0586-3.86328v-1.47265l2.27735.89843 2.16016 1.84766 1.07422-1.84766 3.36328-2.51172v1.59375l-1.23047.91797 1.23047 1.20313 1.0039-1.20313-1.0039-.91797v-1.59375l2.74218 2.51172 1.69532 4.40625.01953.03125-.01953.05078-.0586-.05078-4.3789-1.15234-1.95313 1.15234-2.48437 1.09766-4.4375 2.17187"/><path fill="#24d000" fill-rule="evenodd" d="M161.7539 447.30469l-1.5703-2.48438 1.5703-3.86328v1.22266l-1.07421 2.64062 1.07422 1.69922 2.77343-1.69922-2.77343-2.64062v-1.22266l4.05859 3.86328-4.0586 2.48438"/><path fill="#3cd800" fill-rule="evenodd" d="M161.7539 446.51953l-1.07421-1.69922 1.07422-2.64062v1.22265l-.57813 1.41797.57813.91406 1.49218-.91406-1.49218-1.41797v-1.22265l2.77343 2.64062-2.77343 1.69922"/><path fill="#54dc00" fill-rule="evenodd" d="M161.7539 445.73438l-.57812-.91407.57813-1.41797v1.21875l-.08203.19922.08203.1289.20703-.1289-.20703-.19922v-1.21875l1.49218 1.41797-1.49218.91406"/><path fill="#e8e05c" fill-rule="evenodd" d="M161.7539 444.94922l-.08202-.1289.08203-.19923.20703.19922-.20703.1289"/><path fill="#00c800" fill-rule="evenodd" d="M161.7539 453.86719l-.0703-.16797.0703-.46485.2422.46485-.2422.16797"/><path fill="#00a8fc" fill-rule="evenodd" d="M166.1914 449.03125l-1 .23047 1 4.20703.57032-4.20703-.57031-.23047"/><path fill="#24d000" fill-rule="evenodd" d="M170.6289 441.58594l-1.23046-1.20313 1.23047-.91797 1.0039.91797-1.0039 1.20313"/><path fill="#50fcfc" fill-rule="evenodd" d="M241.64453 442.01953l-1.55469-1.63672 1.5547-1.59765 1.54687 1.59765-1.54688 1.63672m137.58984 21.38281l-1.08203-.82812 1.08204-1.23047 1.71875 1.23047-1.71875.82812m8.875 1.28907l-2.54297-2.1172 2.54296-1.73827 2.03907 1.73828-2.03906 2.11719"/><g clip-path="url(#d)"><path fill="#fff" fill-opacity="0" fill-rule="evenodd" d="M467.9961 480.32813H468V311.67188h-.0039H468v168.65625h-.0039"/></g><path fill="#fff" fill-opacity="0" fill-rule="evenodd" d="M208.89063 427.9961l3.17187 4.90624 8.36719-5.40234-3.17188-4.90625-8.36719 5.40234"/><path fill-rule="evenodd" d="M217.61719 426.52734l.27734.42579-5.28906 3.41796-.42578-.66406 3.76953-2.4336-.7539-1.16796.46874-.30078.35938.4336.17969.18358.19921.14454.23047.09375.26953.03125.32422-.03907.39063-.125"/><path fill="#fff" fill-opacity="0" fill-rule="evenodd" d="M181.55078 465.60938l7.60938-2.20704-2.83985-9.78906-7.60937 2.20703 2.83984 9.78906"/><path fill-rule="evenodd" d="M181.60547 456.89063l3.15625-.91797.20703.71093-2.53516.73438.28125 1.80078.17188-.21875.22266-.20313.28515-.17578.35938-.13671.3203-.06641.34767-.01172.35937.04688.35938.12109.34375.20312.16015.13282.14844.16015.14062.1836.125.21093.10938.23829.08984.26953.08985.43359.01953.4336-.0586.41796-.13672.39063-.21484.35547-.14062.16406-.16016.14844-.17969.1328-.20312.1211-.22656.10156-.2461.08594-.45703.09375-.41406.01563-.36328-.0625-.32422-.13281-.28516-.1875-.25-.23829-.21484-.28125-.17969-.3164.7539-.21875.14063.19922.15625.17187.17188.14063.17968.10546.19532.07422.20703.03516.21875-.00781.22656-.04688.29688-.10937.25-.14453.20312-.1836.14844-.21875.10156-.2539.04297-.28516-.01563-.32031-.07422-.34766-.09375-.25-.1289-.23437-.16797-.21094-.20313-.17578-.24218-.13281-.26953-.07813-.3047-.01563-.33593.0586-.3125.1289-.24219.1836-.21093.25781-.22266.34375-.66797.19531-.50781-3.41796"/><g clip-path="url(#e)"><path fill="none" stroke="#000" stroke-linecap="round" stroke-linejoin="round" stroke-miterlimit="10" stroke-width=".5" d="M147.5 480.64844l-7-.63672"/></g><g clip-path="url(#f)"><path fill="none" stroke="#000" stroke-linecap="round" stroke-linejoin="round" stroke-miterlimit="10" stroke-width=".5" d="M147.5 480.64844l.94922 2.26172"/></g><g clip-path="url(#g)"><path fill="none" stroke="#000" stroke-linecap="round" stroke-linejoin="round" stroke-miterlimit="10" stroke-width=".5" d="M146.48047 480.55469l.47656 1.1289"/></g><g clip-path="url(#h)"><path fill="none" stroke="#000" stroke-linecap="round" stroke-linejoin="round" stroke-miterlimit="10" stroke-width=".5" d="M160.8164 480.63281l-7-.60937"/></g><g clip-path="url(#i)"><path fill="none" stroke="#000" stroke-linecap="round" stroke-linejoin="round" stroke-miterlimit="10" stroke-width=".5" d="M160.8164 480.63281l.95704 2.26172"/></g><g clip-path="url(#j)"><path fill="none" stroke="#000" stroke-linecap="round" stroke-linejoin="round" stroke-miterlimit="10" stroke-width=".5" d="M159.79688 480.54688l.48046 1.1289"/></g><g clip-path="url(#k)"><path fill="none" stroke="#000" stroke-linecap="round" stroke-linejoin="round" stroke-miterlimit="10" stroke-width=".5" d="M174.13281 480.61719l-7.0039-.57422"/></g><g clip-path="url(#l)"><path fill="none" stroke="#000" stroke-linecap="round" stroke-linejoin="round" stroke-miterlimit="10" stroke-width=".5" d="M174.13281 480.61719l.96875 2.2539"/></g><g clip-path="url(#m)"><path fill="none" stroke="#000" stroke-linecap="round" stroke-linejoin="round" stroke-miterlimit="10" stroke-width=".5" d="M173.11328 480.53125l.48438 1.1289"/></g><g clip-path="url(#n)"><path fill="none" stroke="#000" stroke-linecap="round" stroke-linejoin="round" stroke-miterlimit="10" stroke-width=".5" d="M187.45703 480.36719l-7.02344-.07422"/></g><g clip-path="url(#o)"><path fill="none" stroke="#000" stroke-linecap="round" stroke-linejoin="round" stroke-miterlimit="10" stroke-width=".5" d="M187.45703 480.36719l1.1289 2.17578"/></g><g clip-path="url(#p)"><path fill="none" stroke="#000" stroke-linecap="round" stroke-linejoin="round" stroke-miterlimit="10" stroke-width=".5" d="M186.4375 480.35547L187 481.4453"/></g><g clip-path="url(#q)"><path fill="none" stroke="#000" stroke-linecap="round" stroke-linejoin="round" stroke-miterlimit="10" stroke-width=".5" d="M200.77344 480.28906l-7.02735.07813"/></g><g clip-path="url(#r)"><path fill="none" stroke="#000" stroke-linecap="round" stroke-linejoin="round" stroke-miterlimit="10" stroke-width=".5" d="M200.77344 480.28906l1.17578 2.15235"/></g><g clip-path="url(#s)"><path fill="none" stroke="#000" stroke-linecap="round" stroke-linejoin="round" stroke-miterlimit="10" stroke-width=".5" d="M199.75 480.30078l.58984 1.07813"/></g><g clip-path="url(#t)"><path fill="none" stroke="#000" stroke-linecap="round" stroke-linejoin="round" stroke-miterlimit="10" stroke-width=".5" d="M214.08203 480.1289l-7.01562.40235"/></g><g clip-path="url(#u)"><path fill="none" stroke="#000" stroke-linecap="round" stroke-linejoin="round" stroke-miterlimit="10" stroke-width=".5" d="M214.08203 480.1289l1.27344 2.09766"/></g><g clip-path="url(#v)"><path fill="none" stroke="#000" stroke-linecap="round" stroke-linejoin="round" stroke-miterlimit="10" stroke-width=".5" d="M213.0625 480.1875l.63672 1.04688"/></g><g clip-path="url(#w)"><path fill="none" stroke="#000" stroke-linecap="round" stroke-linejoin="round" stroke-miterlimit="10" stroke-width=".5" d="M227.33984 479.66016l-6.89843 1.33593"/></g><g clip-path="url(#x)"><path fill="none" stroke="#000" stroke-linecap="round" stroke-linejoin="round" stroke-miterlimit="10" stroke-width=".5" d="M227.33984 479.66016l1.54297 1.91015"/></g><g clip-path="url(#y)"><path fill="none" stroke="#000" stroke-linecap="round" stroke-linejoin="round" stroke-miterlimit="10" stroke-width=".5" d="M226.33594 479.85547l1.54297 1.91015"/></g><g clip-path="url(#z)"><path fill="none" stroke="#000" stroke-linecap="round" stroke-linejoin="round" stroke-miterlimit="10" stroke-width=".5" d="M240.61328 479.46875l-6.8125 1.72266"/></g><g clip-path="url(#A)"><path fill="none" stroke="#000" stroke-linecap="round" stroke-linejoin="round" stroke-miterlimit="10" stroke-width=".5" d="M240.61328 479.46875l1.64844 1.8164"/></g><g clip-path="url(#B)"><path fill="none" stroke="#000" stroke-linecap="round" stroke-linejoin="round" stroke-miterlimit="10" stroke-width=".5" d="M239.6211 479.71875l.82421.90625"/></g><g clip-path="url(#C)"><path fill="none" stroke="#000" stroke-linecap="round" stroke-linejoin="round" stroke-miterlimit="10" stroke-width=".5" d="M253.96484 479.625l-6.88672 1.40625"/></g><g clip-path="url(#D)"><path fill="none" stroke="#000" stroke-linecap="round" stroke-linejoin="round" stroke-miterlimit="10" stroke-width=".5" d="M253.96484 479.625l1.5586 1.89453"/></g><g clip-path="url(#E)"><path fill="none" stroke="#000" stroke-linecap="round" stroke-linejoin="round" stroke-miterlimit="10" stroke-width=".5" d="M252.96094 479.83203l.78125.94531"/></g><g clip-path="url(#F)"><path fill="none" stroke="#000" stroke-linecap="round" stroke-linejoin="round" stroke-miterlimit="10" stroke-width=".5" d="M267.20703 479.33594l-6.74219 1.98437"/></g><g clip-path="url(#G)"><path fill="none" stroke="#000" stroke-linecap="round" stroke-linejoin="round" stroke-miterlimit="10" stroke-width=".5" d="M267.20703 479.33594l1.71485 1.7539"/></g><g clip-path="url(#H)"><path fill="none" stroke="#000" stroke-linecap="round" stroke-linejoin="round" stroke-miterlimit="10" stroke-width=".5" d="M266.22656 479.625l.85547.8789"/></g><g clip-path="url(#I)"><path fill="none" stroke="#000" stroke-linecap="round" stroke-linejoin="round" stroke-miterlimit="10" stroke-width=".5" d="M280.30469 478.78516l-6.3086 3.08984"/></g><g clip-path="url(#J)"><path fill="none" stroke="#000" stroke-linecap="round" stroke-linejoin="round" stroke-miterlimit="10" stroke-width=".5" d="M280.30469 478.78516l1.98828 1.4375"/></g><g clip-path="url(#K)"><path fill="none" stroke="#000" stroke-linecap="round" stroke-linejoin="round" stroke-miterlimit="10" stroke-width=".5" d="M279.38672 479.23438l.9961.71875"/></g><g clip-path="url(#L)"><path fill="none" stroke="#000" stroke-linecap="round" stroke-linejoin="round" stroke-miterlimit="10" stroke-width=".5" d="M293.27344 478.21484l-5.61328 4.22657"/></g><path fill="none" stroke="#000" stroke-linecap="round" stroke-linejoin="round" stroke-miterlimit="10" stroke-width=".5" d="M293.27344 478.21484l2.22265 1.03907"/><g clip-path="url(#M)"><path fill="none" stroke="#000" stroke-linecap="round" stroke-linejoin="round" stroke-miterlimit="10" stroke-width=".5" d="M306.26172 477.83984l-4.96094 4.97657"/></g><path fill="none" stroke="#000" stroke-linecap="round" stroke-linejoin="round" stroke-miterlimit="10" stroke-width=".5" d="M306.26172 477.83984l2.34765.71094"/><g clip-path="url(#N)"><path fill="none" stroke="#000" stroke-linecap="round" stroke-linejoin="round" stroke-miterlimit="10" stroke-width=".5" d="M319.74219 478.01953l-5.29297 4.6211"/></g><path fill="none" stroke="#000" stroke-linecap="round" stroke-linejoin="round" stroke-miterlimit="10" stroke-width=".5" d="M318.97266 478.6914l1.14453.4375"/><g clip-path="url(#O)"><path fill="none" stroke="#000" stroke-linecap="round" stroke-linejoin="round" stroke-miterlimit="10" stroke-width=".5" d="M333.08594 478.05078l-5.34766 4.5586"/></g><path fill="none" stroke="#000" stroke-linecap="round" stroke-linejoin="round" stroke-miterlimit="10" stroke-width=".5" d="M332.3086 478.71484l1.14062.44922"/><g clip-path="url(#P)"><path fill="none" stroke="#000" stroke-linecap="round" stroke-linejoin="round" stroke-miterlimit="10" stroke-width=".5" d="M346.23438 477.86719l-5.01563 4.92187"/></g><path fill="none" stroke="#000" stroke-linecap="round" stroke-linejoin="round" stroke-miterlimit="10" stroke-width=".5" d="M345.5039 478.58203l1.16798.3711"/><g clip-path="url(#Q)"><path fill="none" stroke="#000" stroke-linecap="round" stroke-linejoin="round" stroke-miterlimit="10" stroke-width=".5" d="M359.21875 477.57031l-4.35156 5.51563"/></g><path fill="none" stroke="#000" stroke-linecap="round" stroke-linejoin="round" stroke-miterlimit="10" stroke-width=".5" d="M358.58203 478.3711l1.21094.21874"/><g clip-path="url(#R)"><path fill="none" stroke="#000" stroke-linecap="round" stroke-linejoin="round" stroke-miterlimit="10" stroke-width=".5" d="M373.01172 478.02734l-5.3125 4.60157"/></g><g clip-path="url(#S)"><path fill="none" stroke="#000" stroke-linecap="round" stroke-linejoin="round" stroke-miterlimit="10" stroke-width=".5" d="M381.90625 483.36719l3.53125-6.07422"/></g><g clip-path="url(#T)"><path fill="none" stroke="#000" stroke-linecap="round" stroke-linejoin="round" stroke-miterlimit="10" stroke-width=".5" d="M393.55078 481.0586l6.8711-1.46094"/></g><g clip-path="url(#U)"><path fill="none" stroke="#000" stroke-linecap="round" stroke-linejoin="round" stroke-miterlimit="10" stroke-width=".5" d="M394.55078 480.84766l-.78906-.94141"/></g><g clip-path="url(#V)"><path fill="none" stroke="#000" stroke-linecap="round" stroke-linejoin="round" stroke-miterlimit="10" stroke-width=".5" d="M410.99219 476.88281l-1.3789 6.89063"/></g><path fill="none" stroke="#000" stroke-linecap="round" stroke-linejoin="round" stroke-miterlimit="10" stroke-width=".5" d="M410.78906 477.88672l1.17578-.35156"/><g clip-path="url(#W)"><path fill="none" stroke="#000" stroke-linecap="round" stroke-linejoin="round" stroke-miterlimit="10" stroke-width=".5" d="M421.42969 477.57813l4.375 5.5"/></g><path fill="none" stroke="#000" stroke-linecap="round" stroke-linejoin="round" stroke-miterlimit="10" stroke-width=".5" d="M422.0664 478.3789l.48829-1.125"/><g clip-path="url(#X)"><path fill="none" stroke="#000" stroke-linecap="round" stroke-linejoin="round" stroke-miterlimit="10" stroke-width=".5" d="M435.17578 477.28516l3.51172 6.08593"/></g><path fill="none" stroke="#000" stroke-linecap="round" stroke-linejoin="round" stroke-miterlimit="10" stroke-width=".5" d="M435.6836 478.17188l.65234-1.03907"/><g clip-path="url(#Y)"><path fill="none" stroke="#000" stroke-linecap="round" stroke-linejoin="round" stroke-miterlimit="10" stroke-width=".5" d="M451.28906 476.97266l-2.08594 6.71093"/></g><path fill="none" stroke="#000" stroke-linecap="round" stroke-linejoin="round" stroke-miterlimit="10" stroke-width=".5" d="M450.98438 477.94922l1.20703-.22656"/><g clip-path="url(#Z)"><path fill="none" stroke="#000" stroke-linecap="round" stroke-linejoin="round" stroke-miterlimit="10" stroke-width=".5" d="M462.40625 477.01172l2.3125 6.63281"/></g><path fill="none" stroke="#000" stroke-linecap="round" stroke-linejoin="round" stroke-miterlimit="10" stroke-width=".5" d="M462.74219 477.97656l.83203-.90234"/><g clip-path="url(#aa)"><path fill="none" stroke="#000" stroke-linecap="round" stroke-linejoin="round" stroke-miterlimit="10" stroke-width=".5" d="M147.47266 467.55469l-6.94532-1.08203"/></g><path fill="none" stroke="#000" stroke-linecap="round" stroke-linejoin="round" stroke-miterlimit="10" stroke-width=".5" d="M147.47266 467.55469l.80078 2.32031m12.4961-2.21094l-6.90626-1.30078m6.90625 1.30078l.73047 2.33985m12.50781-2.02344l-6.75781-1.9336m6.75781 1.9336l.51172 2.39844m-1.49219-2.6797l.25391 1.19923m14.10156-1.14844l-6.875-1.46875m6.875 1.46875l.67188 2.35937m-1.67188-2.57421l.33594 1.17968m14.05078-1.8828l-7.01953.36327m7.01953-.36328l1.26172 2.10547m-2.28125-2.05078l.6289 1.05078m13.6836-1.36719l-6.97266.88672m6.97266-.88672l1.41406 2.0039m-2.42969-1.875l1.41407 2.00391m12.875-2.38671l-6.89063 1.39453m6.89063-1.39453l1.55469 1.89843m-2.5586-1.6953l1.5586 1.89452m12.66406-2.45703l-6.69922 2.11328m6.69922-2.11328l1.75 1.71875m-2.72266-1.41015l1.75 1.71875m12.35156-2.4961l-6.32812 3.05078m6.32812-3.05078l1.98047 1.44922m-2.89844-1.0039l1.97657 1.44921M267.0078 465.5l-6.34375 3.02734m6.34375-3.02734l1.97266 1.46094m-2.89453-1.01953l1.96875 1.46093m12.21093-2.01171l-6.23046 3.24609m6.23046-3.2461l2.02344 1.39063m-2.92969-.91797l1.01172.69531m13.1211-1.32812l-6.05469 3.5664m6.05469-3.5664l2.09375 1.28125m-2.97266-.76172l1.04297.64063m13.1875-1.09766l-6.125 3.4414m6.125-3.4414l2.0664 1.32812m-2.95703-.82812l1.03125.66406m13.13282-1.23437l-6.04297 3.58203m6.04297-3.58203l2.09765 1.27734m11.30078-1.1289l-6.21093 3.28515m6.21093-3.28516l2.03125 1.375m10.79688-2.07812l-5.23438 4.6914m5.23438-4.6914l2.30078.84375m11.08594-.75781l-5.3789 4.51953m5.3789-4.51953l2.27734.91406m11.01563-.9414l-5.33203 4.57421m5.33203-4.57422l2.28515.89063m10.98047-.94922l-5.23437 4.6914m5.23437-4.6914l2.30078.84375m9.60938-1.79688l-2.42578 6.59766m2.07422-5.63672l1.21484-.16797m12.88672-.59765l-3.29688 6.20703m3.29688-6.20703h2.45312m11.21875.21875l-4.01172 5.76953m4.01172-5.76953l2.4375.29296m-3.01953.54688l1.21875.14453m12.54688-1.07031l-3.7461 5.9414m3.7461-5.9414l2.44922.17969m-2.9922.68359l1.22266.08984m12.85938-.80078l-4.19531 5.63672m4.19531-5.63672l2.42578.3711m11.3125-.00391l-5.03906 4.90234"/><g clip-path="url(#ab)"><path fill="none" stroke="#000" stroke-linecap="round" stroke-linejoin="round" stroke-miterlimit="10" stroke-width=".5" d="M466.08203 464.5625l2.33594.75"/></g><path fill="none" stroke="#000" stroke-linecap="round" stroke-linejoin="round" stroke-miterlimit="10" stroke-width=".5" d="M465.34766 465.27734l1.16796.375"/><g clip-path="url(#ac)"><path fill="none" stroke="#000" stroke-linecap="round" stroke-linejoin="round" stroke-miterlimit="10" stroke-width=".5" d="M147.5039 453.9375l-7.0078-.48047"/></g><path fill="none" stroke="#000" stroke-linecap="round" stroke-linejoin="round" stroke-miterlimit="10" stroke-width=".5" d="M147.5039 453.9375l1.00391 2.24219m12.16016-1.42578l-6.70313-2.10938m6.70313 2.10938l.44531 2.41406m12.98828-2.92969l-6.9414-1.07812m6.9414 1.07812l.80469 2.3164m12.52344-2.41796l-6.96875-.875m6.96875.875l.875 2.29297m12.44531-2.33203l-6.98047-.80078m6.98047.80078l.89844 2.28515m12.41797-3.07031l-6.98438.77344m6.98438-.77344l1.38672 2.02344m-2.40235-1.91406l.6914 1.01562m13.48048-1.84766l-6.66797 2.21875m6.66797-2.21875L229 454.28125m-2.7461-1.36719l1.77735 1.6914m12.5039-2.03515l-6.65624 2.2539m6.65625-2.2539l1.78515 1.6836m-2.7539-1.35547l1.78515 1.6836m-2.7539-1.35548l.89062.84375m14.32422-1.60156l-6.58203 2.45703m6.58203-2.45703l1.83594 1.6289m-2.79297-1.26952l1.83594 1.6289m12.26953-2.36328l-6.25 3.21094m6.25-3.21094l2.01562 1.40234m-2.92578-.93359l2.01563 1.39844m12.07812-2.10156l-5.98828 3.67578m5.98828-3.67578l2.11719 1.24609m-2.98828-.71094l2.11719 1.2461m11.93359-1.98438l-5.71875 4.08203m5.71875-4.08203l2.19922 1.09375m-3.03125-.5l1.09765.54688M307 452.28906l-6.4375 2.82031m6.4375-2.8203l1.92188 1.51952m-2.85938-1.10937l.96094.75781m13.29297-1.16406l-6.44141 2.8125m6.4414-2.8125l1.92188 1.52344m-2.85937-1.11329l1.92187 1.52344m12.29297-2.01562l-6.36719 2.97656m6.36719-2.97656l1.96094 1.47265m-2.88672-1.03906l1.96094 1.47266m11.96484-2.44922l-5.73437 4.0625m5.73437-4.0625l2.1914 1.10156m-3.02734-.51172l2.19532 1.10156m12.3164-1.04296l-6.45703 2.76562m6.45703-2.76562l1.91406 1.53906m-2.85156-1.13672l.95313.76953m13.28125-1.21875l-6.41797 2.85938m6.41797-2.85938l1.93359 1.50781m-2.86719-1.09375l.96485.75782m13.53906-.31641l-6.9336 1.14844m6.9336-1.14844l1.49219 1.94922m-2.5-1.78125l.74609.97265m13.625-.54296l-7.02734-.04688m6.0039.03906l.57032 1.08594m13.6875-1.84766l-6.8672 1.48829m5.8672-1.26954l.79296.9375m12.60157-2.86718l-5.02735 4.91015m5.02735-4.91015l2.33984.7461m10.41016-1.21485l-3.89453 5.84765m3.89453-5.84765l2.4414.2461m10.90625-.22267l-3.96093 5.8047m3.96093-5.8047l2.4375.26954m10.46094-.51563L462 456.84766m2.66797-5.37891l1.22656-.03516"/><g clip-path="url(#ad)"><path fill="none" stroke="#000" stroke-linecap="round" stroke-linejoin="round" stroke-miterlimit="10" stroke-width=".5" d="M147.5 440.67969l-7-.59375"/></g><path fill="none" stroke="#000" stroke-linecap="round" stroke-linejoin="round" stroke-miterlimit="10" stroke-width=".5" d="M147.5 440.67969l.96484 2.2539m12.32032-3.08984l-6.94141 1.07813m6.9414-1.07813l1.47266 1.96484m11.85938-1.86718l-6.97266.8828m6.97266-.8828l1.41406 2.0039m11.89844-2.01172l-6.96875.89844m6.96875-.89844l1.41797 2.00391m11.92578-1.58203l-7.02735.05469m7.02735-.0547l1.16797 2.16016m12.1328-2.4375l-7 .60938m7-.60938l1.33595 2.0586m-2.35157-1.96875l.66797 1.02734m13.63281-1.375l-6.9375 1.1289m6.9375-1.1289l1.48438 1.95313m-2.4961-1.78907l.7422.97657m13.02343-2.55078l-5.8164 3.9453m5.8164-3.9453l2.16797 1.14843m-3.01563-.57422l1.08594.57422m13.26563-.83203l-6.19531 3.3164m6.1953-3.3164l2.03907 1.36328m-2.9414-.8828l1.01952.68358m12.94532-1.5703l-5.6875 4.1289m5.6875-4.1289l2.20312 1.07421m-3.03125-.47656l1.10156.53906m12.97657-1.22266l-5.5586 4.29688m5.5586-4.29688l2.23828 1.01172m-3.04688-.38672l1.1172.50391m13.14843-.9336l-5.84375 3.90626m5.84375-3.90625l2.16015 1.16406M292.53516 439l1.08203.58203m12.98437-1.29297l-5.64062 4.1875m5.64062-4.1875l2.21485 1.05469m-3.03516-.44531l1.10937.52734m13.3086-.6914l-6.20703 3.29687m6.20703-3.29688l2.03125 1.3711m-2.9336-.89063l2.03125 1.3711m-2.93359-.89063l1.01563.6836m14.03515-1.76563l-6.07031 3.53906m6.07031-3.53906l2.08594 1.28906m-2.96875-.77343l2.08594 1.28906m-2.96875-.77344l1.04297.64453m13.64453-2.22265l-5.28125 4.6328m5.28125-4.6328l2.29687.87109m-3.0664-.19531l2.29687.86718m11.13672-2.12109l-3.98047 5.79297m3.98047-5.79297l2.4375.27734m-3.01563.5625l1.21875.14063m11.60547-1.47656l-1.84375 6.78125m1.84375-6.78125l2.39453-.54297m-2.66015 1.53125l1.19531-.27344m9.6211-.3164l3.68359 5.98437m-3.6836-5.98438l1.2422-2.11718m14.33593 8.59765l-.83984-6.97656m.71875 5.96094l-1.00782.70312m17.09375-4.8828l-6.14062 3.41796m6.14062-3.41797l2.0586 1.33203m-2.95313-.83594l2.0625 1.33204m11.23047-2.89844l-4.30469 5.55469m4.3047-5.5547l2.41796.41798m-3.04688.39062l2.41797.41797m10.27735-1.84375l-1.8086 6.78906m1.8086-6.78906l2.39062-.55469m-2.65234 1.54297l2.39062-.55469m-2.65625 1.54297l1.19532-.27734m13.34375-1.4336l-3.19922 6.25782m3.19922-6.25781l2.45312-.03907m-2.91797.94922l2.45313-.03906m11.60547-.71094l-3.75782 5.9375"/><g clip-path="url(#ae)"><path fill="none" stroke="#000" stroke-linecap="round" stroke-linejoin="round" stroke-miterlimit="10" stroke-width=".5" d="M465.4414 437.41406l2.44532.1875"/></g><path fill="none" stroke="#000" stroke-linecap="round" stroke-linejoin="round" stroke-miterlimit="10" stroke-width=".5" d="M464.89453 438.27734l1.22266.09375"/><g clip-path="url(#af)"><path fill="none" stroke="#000" stroke-linecap="round" stroke-linejoin="round" stroke-miterlimit="10" stroke-width=".5" d="M147.51172 427.04688l-7.02344.04296"/></g><path fill="none" stroke="#000" stroke-linecap="round" stroke-linejoin="round" stroke-miterlimit="10" stroke-width=".5" d="M147.51172 427.04688l1.16797 2.15625m12.08203-2.82422l-6.89063 1.3789m6.89063-1.3789l1.55469 1.89843m11.82422-1.11718l-7.02344-.1836m7.02344.1836l1.09765 2.1953m12.05469-1.22265l-6.69531-2.1289m6.6953 2.1289l.44142 2.41407m13.02734-3.77344l-7.0039.58984m7.0039-.58984l1.32812 2.0625m-2.34765-1.97656l.66406 1.03125m13.55469-1.75782l-6.77344 1.8711m6.77344-1.8711l1.6875 1.78125m-2.67188-1.50781l.84375.89063m13.51172-.94141l-6.88281 1.42578m6.88281-1.42578l1.5664 1.88672m-2.5703-1.67969l.78515.94531m13.57813-.8789l-6.97266.8789m6.97266-.8789l1.41406 2.0078m11.76953-2.60937l-6.71094 2.08204m6.71094-2.08204l1.74219 1.72657m11.5664-1.7461l-6.69922 2.1211m6.69922-2.1211l1.75391 1.71875m-2.72656-1.41015l.875.85937m13.3164-1.4414l-6.5039 2.66796m6.5039-2.66797l1.88672 1.56641m-2.83203-1.17578l.9414.78125m13.32813-1.14844l-6.51953 2.6211m6.51953-2.6211l1.875 1.57813m-2.82422-1.19532l.9375.78907m13.03907-1.73438l-5.94532 3.7461m5.94532-3.7461l2.1289 1.21485m-2.9961-.67188l1.06641.60938m12.94532-1.39844l-5.60157 4.24219m5.60157-4.2422l2.22656 1.03126m-3.04297-.41406l2.22656 1.03125m12.05078-1.44141l-5.89843 3.82422m5.89843-3.82422l2.14454 1.1914m-3.00391-.6328l2.14453 1.1914m11.94922-1.86719l-5.73828 4.0586m5.73828-4.0586l2.1914 1.10547m-3.02343-.51172l1.09375.55078m13.3711-.60156l-6.3711 2.97266m6.3711-2.97266l1.95702 1.47656m10.91407-2.1875l-5.48438 4.39453m5.48438-4.39453l2.2539.96875m-3.05078-.32812l2.2539.96875m11.73048-1.75781l-5.23047 4.6914m5.23047-4.6914l2.30468.84375m-3.0664-.16016l2.30468.83984m-3.0625-.16015l2.3047.84375m-3.06641-.16016l1.15234.42188m14.79297-2.00782l-5.92578 3.76953m5.92578-3.76953l2.13672 1.20703m-2.9961-.66015l2.13282 1.21094m-2.9961-.66016l2.13281 1.20703m12.46875-2.85937l-5.05468 4.8789m5.05468-4.8789l2.33594.7578m-3.07031-.04687l2.33203.75782m-3.0664-.05079l2.33203.76172m12.04296-2.54297L421.5 429.875m4.23437-5.60938l2.42188.38282m-3.03906.42968l2.42187.38672m-3.03906.4297l1.21094.1953m12.72265-2.19922l-3.0039 6.35547m3.0039-6.35547l2.44922-.11328m-2.88672 1.03907l2.44922-.1172m11.38672-.76562l-3.16797 6.26953m3.16797-6.26953l2.45313-.05078m-2.91407.96094l2.45313-.05078m-2.91406.96484l1.22656-.02734m13.8086-1.24219l-4.76954 5.16016"/><g clip-path="url(#ag)"><path fill="none" stroke="#000" stroke-linecap="round" stroke-linejoin="round" stroke-miterlimit="10" stroke-width=".5" d="M465.94531 424.48828l2.375.625"/></g><path fill="none" stroke="#000" stroke-linecap="round" stroke-linejoin="round" stroke-miterlimit="10" stroke-width=".5" d="M465.2539 425.23828l2.3711.625m-3.0664.125l2.37109.625"/><g clip-path="url(#ah)"><path fill="none" stroke="#000" stroke-linecap="round" stroke-linejoin="round" stroke-miterlimit="10" stroke-width=".5" d="M147.49219 413.35547l-6.98438.79687"/></g><path fill="none" stroke="#000" stroke-linecap="round" stroke-linejoin="round" stroke-miterlimit="10" stroke-width=".5" d="M147.49219 413.35547l1.39062 2.01953m11.6914-2.92969l-6.51952 2.61719m6.51953-2.61719l1.8789 1.57813m11.45313-1.53906l-6.55078 2.53906m6.55078-2.53906l1.85547 1.60546m11.6914-.125l-7.01562-.42187m7.01563.42187l1.01953 2.23047m12.1953-3.28906l-6.8164 1.69531m6.8164-1.69531l1.64454 1.82031m11.77734-1.01953l-7.02734.09375m7.02734-.09375l1.1797 2.14844m11.03515.45312l-4.82813-5.10937m4.82813 5.10937l-.78516 2.32422m15.1914-5.1289l-7.01171.5m7.01172-.5l1.30078 2.07812m11.29687.3086l-5.57422-4.27735m5.57422 4.27734l-.40625 2.42188m14.44141-4.35156l-7.01563-.41407m7.01563.41407l1.02344 2.22656m12.15234-3.42578l-6.73828 1.98437m6.73828-1.98437l1.71875 1.75m-2.69922-1.46094l.85938.875m13.5664-.47266l-7 .60157m7-.60157l1.33204 2.0625m11.23828-3.9414l-5.51172 4.35937m5.51172-4.35937l2.25.98437m-3.05078-.35156l1.125.49219m13.53515-.16016l-6.59765 2.42969m6.59765-2.42969l1.82813 1.63672m-2.78907-1.28516l1.82813 1.63672M333.6914 412.5l-6.5625 2.50781m6.5625-2.50781l1.85156 1.61328m-2.80469-1.25l.92578.8086m12.5-2.44922l-4.875 5.05859m4.875-5.0586l2.35938.67579m-3.0664.0625l1.17577.33593m13.125-.76953l-5.4336 4.45313m5.4336-4.45313l2.26563.94532m-3.05469-.29688l2.26172.94531m12.35547-.75l-6.46094 2.76172m6.46094-2.76172l1.91015 1.54297m-2.84765-1.14062l1.91015 1.53906m-2.85156-1.13672l.95313.76953m13.82422-2.29687l-5.625 4.21093m5.625-4.21093l2.21875 1.04297m-3.03907-.4297l2.22266 1.04298m-3.03906-.42969l2.21875 1.04297M400 411.94922l-6.02734 3.60937M400 411.94922l2.10156 1.26562m-2.97656-.74218l2.10156 1.26953M398.2461 413l1.05079.63281m13.54687-2.30469l-5.08203 4.85157m5.08203-4.85157l2.32813.76954m-3.07032-.06641l2.33203.77344m-3.0703-.0664l2.32812.77343m12.1914-2.4414l-4.53515 5.36718m4.53515-5.36719l2.39844.51953m-3.0586.26172l2.39844.51563m-3.05859.26562l2.39844.51563m12.49219-1.83985l-5.04688 4.89063m5.04688-4.89063l2.33593.75391m-3.0664-.04297l2.33203.7539m11.72265-1.45702l-5.0625 4.875m5.0625-4.875l2.33204.76171m-3.06641-.05078l2.33203.76172m-3.07031-.05469l1.16797.38282m13.49609-1.92188l-4.8164 5.11719"/><g clip-path="url(#ai)"><path fill="none" stroke="#000" stroke-linecap="round" stroke-linejoin="round" stroke-miterlimit="10" stroke-width=".5" d="M465.96875 411.19531l2.36719.64453"/></g><path fill="none" stroke="#000" stroke-linecap="round" stroke-linejoin="round" stroke-miterlimit="10" stroke-width=".5" d="M465.26953 411.9375l2.36719.64844m-3.07031.09765l1.18359.32422"/><g clip-path="url(#aj)"><path fill="none" stroke="#000" stroke-linecap="round" stroke-linejoin="round" stroke-miterlimit="10" stroke-width=".5" d="M147.27734 399.17578l-6.55468 2.52735"/></g><path fill="none" stroke="#000" stroke-linecap="round" stroke-linejoin="round" stroke-miterlimit="10" stroke-width=".5" d="M147.27734 399.17578l1.85547 1.60547m11.20703-2.13281l-6.04687 3.57812m6.04687-3.57812l2.09375 1.27734m11.6836.09375l-6.97656.83594m6.97656-.83594l1.40234 2.01563m11.92578-1.28907l-7-.61718m7 .61718l.95703 2.25782m-1.97656-2.34766l.48047 1.1289m13.85547-1.625l-7.0039.5547m7.0039-.5547l1.32031 2.07032m11.5-3.60938l-6.01562 3.63282m5.14062-3.10547l1.05469.63281m13.6289.98047l-7-.64844m7 .64844l.94532 2.26562m-1.96485-2.35937l.47266 1.13281m13.75781-.46094l-6.79297-1.80078m6.79297 1.80078l.5586 2.39063m12.87109-3.11719l-7.01953-.34765m7.01953.34765l1.04297 2.21875m12.26562-2.14844l-7.0078-.48828m7.0078.48828l1 2.23829m-2.01953-2.3125l.5 1.12109m13.84375-1.21875l-7.02734-.14844m7.02734.14844l1.10547 2.1914m12.21094-2.26562h-7.02735m7.02735 0l1.15234 2.16797m12.16016-2.14844l-7.02735-.03906m7.02735.03906l1.14062 2.17188m-2.16015-2.17579l.57031 1.08594m13.6289-2.0664l-6.7539 1.93359m6.7539-1.9336l1.70313 1.76563m11.44531-2.23047l-6.41797 2.85938m6.41797-2.85938l1.9336 1.51172m-2.86719-1.09375l.96484.7539m13.53516-.33984l-6.92188 1.19922m6.92188-1.19922l1.5039 1.9375m11.84766-1.65234l-6.9961.625m6.9961-.625l1.34375 2.05469m11.63672-3.26563l-6.32812 3.05078m6.32812-3.05078l1.98047 1.44922m-2.89844-1.00781l1.97656 1.45312m-2.89843-1.0078l.98828.72655m13.4375-2.62109l-4.8711 5.0625m4.8711-5.0625l2.36328.67188m-3.07031.0664l2.35937.67188m-3.0664.0625l1.17968.33593m14.40625-.5078l-6.58203 2.46483m6.58203-2.46484l1.83594 1.625m-2.79297-1.26562l1.83594 1.625m12.5625-1.57813l-6.83203 1.64844m6.83203-1.64844l1.625 1.83594m-2.6211-1.59375l1.62891 1.83594m11.95313-3.51563l-5.375 4.52344m5.375-4.52344l2.27734.91406m-3.0586-.2539l2.27344.91406m-3.05859-.25781l2.27734.91406m12.8711-1.86719l-5.91016 3.80078m5.91016-3.80078l2.14062 1.19531m-3-.64453l2.14063 1.19922m-3-.64453l1.07031.59766m13.99219-1.66016l-5.96875 3.71094m5.96875-3.71094l2.1211 1.23438m-2.98829-.69141l2.1211 1.23047m-2.9922-.6914l1.0625.61327m13.76563-2.01562l-5.51562 4.35547"/><g clip-path="url(#ak)"><path fill="none" stroke="#000" stroke-linecap="round" stroke-linejoin="round" stroke-miterlimit="10" stroke-width=".5" d="M466.32031 398.26172l2.2461.98437"/></g><g clip-path="url(#al)"><path fill="none" stroke="#000" stroke-linecap="round" stroke-linejoin="round" stroke-miterlimit="10" stroke-width=".5" d="M465.51563 398.89453l2.24609.98438"/></g><path fill="none" stroke="#000" stroke-linecap="round" stroke-linejoin="round" stroke-miterlimit="10" stroke-width=".5" d="M464.71484 399.52734l1.1211.4922"/><g clip-path="url(#am)"><path fill="none" stroke="#000" stroke-linecap="round" stroke-linejoin="round" stroke-miterlimit="10" stroke-width=".5" d="M147.17969 385.63281l-6.35938 2.98047"/></g><path fill="none" stroke="#000" stroke-linecap="round" stroke-linejoin="round" stroke-miterlimit="10" stroke-width=".5" d="M147.17969 385.63281l1.96484 1.47266m-2.89062-1.03906l.98437.73828m13.48438-.53516l-6.81641 1.70703m6.8164-1.70703l1.64454 1.82031m-2.63672-1.5703l.82422.91015m13.5586.16797l-6.96485-.94532m6.96484.94532l.84766 2.30078m12.13672-4.32422l-6.3047 3.09765m5.38673-2.64843l.9961.71875m12.89452 2.49219l-5.6211-4.21875m4.8047 3.60156l-.19141 1.21484m14.98438-2.17187l-6.94532-1.07422m6.94531 1.07422l.8086 2.3203m-1.82031-2.47655l.40625 1.16015m13.94922-1.21875l-7-.64453m7 .64453l.9453 2.26172m12.13282-3.88672l-6.52734 2.60938m6.52734-2.60938l1.875 1.58203m11.33984-1.8125l-6.32422 3.06641m6.32422-3.0664l1.98047 1.44921m11.45703-1.15625l-6.57422 2.48047m6.57422-2.48047l1.84375 1.6211m-2.79687-1.26172l.91797.8125m13.55078-.3711l-6.97266.87891m6.97266-.8789l1.41406 2.0039m11.89844-2.01953l-6.96875.91015m6.96875-.91015l1.42187 2m11.89063-1.07031l-6.96094-.94532m6.96094.94532l.85156 2.30078m12.4961-2.71875l-7.02735-.10938m7.02734.10938l1.1172 2.1836m-2.14063-2.20313l.5586 1.09375m13.60155-2.23438l-6.67187 2.21094m6.67187-2.21094l1.77344 1.6914m-2.74219-1.37109l.88672.84766m13.5664-.29688l-7.01171.46485m7.01172-.46485l1.29297 2.08594m12.01172-2.21484l-6.98829.72656m6.98829-.72656l1.37109 2.03515m-2.38672-1.92968l.6836 1.01562m13.46093-1.94531l-6.61328 2.3711m6.61328-2.3711l1.8164 1.64844m-2.78124-1.30469l1.8164 1.65234m-2.77734-1.30468l.91016.82421m14.14453-1.9414l-6.24219 3.22265m6.24219-3.22265l2.01953 1.39453m-2.92969-.92578l2.01953 1.39453m12.1172-2.02734l-6.06642 3.55078m6.06641-3.55078l2.08594 1.28906m-2.96875-.76953l2.08984 1.28515m12.2539-1.51953l-6.35937 2.98438m6.35938-2.98438l1.96484 1.46875m-2.88672-1.03515l1.96094 1.47265M426.73437 385.5L420.5 388.7461m6.23437-3.2461l2.01954 1.39063m-2.9297-.91797l1.01173.6953m13.13672-1.30468l-6.08204 3.51953m6.08204-3.51953l2.08203 1.29688m-2.96875-.78516l1.04297.64844m13.28906-.91406l-6.34375 3.02734m6.34375-3.02735l1.97265 1.46094m-2.89453-1.01953l1.97266 1.46094m12.00781-2.34766l-5.83203 3.91797"/><g clip-path="url(#an)"><path fill="none" stroke="#000" stroke-linecap="round" stroke-linejoin="round" stroke-miterlimit="10" stroke-width=".5" d="M466.47656 385.16406l2.16406 1.15625"/></g><g clip-path="url(#ao)"><path fill="none" stroke="#000" stroke-linecap="round" stroke-linejoin="round" stroke-miterlimit="10" stroke-width=".5" d="M465.6289 385.73438l2.16407 1.15625"/></g><path fill="none" stroke="#000" stroke-linecap="round" stroke-linejoin="round" stroke-miterlimit="10" stroke-width=".5" d="M464.78125 386.30469l1.08203.57812"/><g clip-path="url(#ap)"><path fill="none" stroke="#000" stroke-linecap="round" stroke-linejoin="round" stroke-miterlimit="10" stroke-width=".5" d="M147.32031 372.66406l-6.64062 2.28906"/></g><path fill="none" stroke="#000" stroke-linecap="round" stroke-linejoin="round" stroke-miterlimit="10" stroke-width=".5" d="M147.32031 372.66406l1.79688 1.67578m-2.76172-1.34375l.89844.83985m13.5078-.70313l-6.89452 1.35156m6.89453-1.35156l1.54687 1.90625m11.81641-1.57812l-6.99219.69531m5.97656-.59375l.6797 1.01953m12.21874-3.61719l-4.125 5.6875m4.125-5.6875l2.42969.33985m12.28906 1.9414l-6.9336 1.125m6.9336-1.125l1.48438 1.95313m-2.49219-1.78906l.74219.97656m13.58594-.03906l-6.94141-1.08204m6.9414 1.08204l.8047 2.3203m-1.81641-2.47655l.40234 1.16015m13.9375-1.09765l-6.96875-.89063m6.96875.89063l.8711 2.29296m-1.88282-2.42578l.4336 1.14844m13.92187-1.55078l-7.02734.17578m7.02734-.17578l1.20313 2.14063m-2.22657-2.11329l.60156 1.07032m13.72657-1.28907l-7.0039.5625m7.0039-.5625l1.32031 2.06641m-2.33984-1.98438l.66015 1.03125m13.66797-.5l-6.99219-.66796m6.9922.66796l.9414 2.26954m-1.95703-2.36329l.46875 1.13282m13.83203-.79688l-6.9336-1.14844m6.9336 1.14844l.78125 2.32813m-1.78906-2.4961L280 375.37891m13.97266-1.34375l-7.01172-.45313m7.01172.45313l1.0078 2.23828m-2.02733-2.30469l.5039 1.1211m13.83594-1.40235l-7.02344.24219m7.02344-.24219l1.22656 2.125m-2.25-2.08984l1.22656 2.125m13.09375-1.67579l-6.98828-.73046m6.98828.73046l.92188 2.27735m-1.9375-2.38281l.46094 1.13671m13.84375-.83203l-6.9375-1.125m6.9375 1.125l.78906 2.32422m-1.79688-2.48828l.39454 1.16406m13.96875-1.74218l-7.01563.35546m7.01563-.35546l1.26171 2.10546m-2.28125-2.05078l1.25782 2.10547m13.08203-1.94922l-7.02735-.0625m7.02735.0625l1.13281 2.17579m-2.15625-2.1875l1.13281 2.17578m13.1914-2.5l-7 .60546m7-.60546l1.33595 2.05859m-2.35157-1.96875l1.33204 2.0586m12.98046-2.33204l-6.96093.97266m6.96093-.97266l1.44141 1.98828m-2.45703-1.84375l.72266.9922m13.5039-1.6211l-6.7539 1.94531m6.7539-1.94531l1.70703 1.76172m-2.6914-1.48047l.85547.88281m13.45312-1.1289l-6.77344 1.875m6.77344-1.875l1.6875 1.78124m-2.67187-1.5078l.84375.89062m13.47265-1.10157l-6.80469 1.75m6.8047-1.75l1.65624 1.8125M439.94141 372l-6.01953 3.61719M439.9414 372l2.10547 1.26172m-2.98047-.73828l1.05078.63281m13.34765-.7539l-6.4375 2.8125m6.4375-2.8125l1.92579 1.52343m-2.85938-1.11328l.96094.76172m13.33203-1.07031l-6.52344 2.60937"/><g clip-path="url(#aq)"><path fill="none" stroke="#000" stroke-linecap="round" stroke-linejoin="round" stroke-miterlimit="10" stroke-width=".5" d="M466.82422 372.5039l1.875 1.58204"/></g><path fill="none" stroke="#000" stroke-linecap="round" stroke-linejoin="round" stroke-miterlimit="10" stroke-width=".5" d="M465.875 372.88281l.9375.79297"/><g clip-path="url(#ar)"><path fill="none" stroke="#000" stroke-linecap="round" stroke-linejoin="round" stroke-miterlimit="10" stroke-width=".5" d="M147.14453 358.92188l-6.28906 3.14062"/></g><path fill="none" stroke="#000" stroke-linecap="round" stroke-linejoin="round" stroke-miterlimit="10" stroke-width=".5" d="M147.14453 358.92188l1.9961 1.42187m11.46093-1.09375l-6.57422 2.48438m6.57422-2.48438l1.84375 1.6211m11.61719-1.1211l-6.86719 1.48438m6.86719-1.48438l1.58594 1.875m-2.58203-1.65625l.78906.9336m13.60156-.37891l-7.02344-.0586m7.02344.0586l1.13672 2.17578m12.0586-3.1211l-6.78516 1.82813m6.78515-1.82813l1.67578 1.79297m-2.66406-1.52734l.83985.89844m13.5664-.60156l-6.99219.70312m6.9922-.70313l1.36327 2.03907m-2.3789-1.9375l.67969 1.01953m13.66015-.51563l-7.00781-.5078m7.00781.5078l.99219 2.2461m-2.01172-2.32031l.99219 2.24609m13.3164-2.92188l-6.95703.9922m6.95703-.9922l1.44532 1.98047m-2.45703-1.83594l.72265.9922m13.44922-1.77735l-6.64844 2.27344m6.64844-2.27344l1.79297 1.67578m11.54687-1.59766l-6.69922 2.1211m6.69922-2.1211l1.75391 1.71485m11.45703.69922l-6.48437-2.70704m6.48437 2.70704l.22656 2.4414m13.05079-2.35547l-6.41016-2.8828m6.41015 2.8828l.16016 2.44922m-1.09375-2.86719l.08203 1.22266m14.44531-1.79687l-6.96875-.89844m6.96875.89844l.86329 2.29687M306.25 360.8125l.86719 2.29688m13.48828-2.44922l-7.01953-.33204m7.01953.33204l1.04687 2.21875m-2.0664-2.26954l1.04687 2.21875m13.27735-2.02734l-7-.61719m7 .6172l.95703 2.26171m-1.97656-2.35156l.95703 2.26172m13.23828-1.45313l-6.72266-2.05078m6.72266 2.05078l.47265 2.40625m-1.44921-2.70703l.46875 2.41016m13.9453-2.6797l-6.96484-.91405m6.96485.91406l.85937 2.30078m-1.8711-2.4336l.85938 2.30079m13.4961-2.73438l-7.02344.21875m7.02344-.21875l1.21875 2.13281m-2.23828-2.10156l1.21875 2.13281m-2.2422-2.09765l.60938 1.0625m14.6211-1.96094l-6.76953 1.88281m6.76953-1.8828l1.6914 1.78124m-2.67578-1.50781l1.6914 1.78125m-2.67577-1.50781l.84375.89062m14.4336-1.46875l-6.75392 1.94531m6.75391-1.9453l1.70703 1.76562m-2.6914-1.48047l1.70703 1.76172m12.64062-1.84766l-6.85156 1.55078m6.85156-1.55078l1.60547 1.85547m-2.60156-1.63281l.80078.92968m13.45313-1.375l-6.73829 1.9961m6.73829-1.9961l1.71875 1.75m-2.69922-1.46093l.85937.875m13.34375-1.4336l-6.55078 2.53516m6.55078-2.53516l1.85547 1.60547m-2.8086-1.23828l.9297.80469m13.29687-1.28125l-6.46875 2.75m6.46875-2.75l1.90625 1.54297m-2.84766-1.14063l.95313.76953m13.03906-1.67187l-5.9414 3.7539"/><g clip-path="url(#as)"><path fill="none" stroke="#000" stroke-linecap="round" stroke-linejoin="round" stroke-miterlimit="10" stroke-width=".5" d="M466.53125 358.61719l2.13281 1.21484"/></g><path fill="none" stroke="#000" stroke-linecap="round" stroke-linejoin="round" stroke-miterlimit="10" stroke-width=".5" d="M465.66797 359.16406l1.0664.60547"/><g clip-path="url(#at)"><path fill="none" stroke="#000" stroke-linecap="round" stroke-linejoin="round" stroke-miterlimit="10" stroke-width=".5" d="M146.76563 345.01172l-5.53125 4.33203"/></g><path fill="none" stroke="#000" stroke-linecap="round" stroke-linejoin="round" stroke-miterlimit="10" stroke-width=".5" d="M146.76563 345.01172l2.24218 1m11.4961-.3086l-6.37891 2.95313m5.44922-2.52344l.98047.73828m13.58984.28125l-7.02734.05079m6.0039-.04297l.58203 1.07812m13.4375-2.51953l-6.39062 2.91797m6.39063-2.91797l1.94921 1.49219m-2.8789-1.0664l.97265.74608m13.19141-1.33593l-6.23047 3.2461m6.23047-3.2461l2.02344 1.39062m11.66015-.24219l-6.96484.94922m6.96484-.94921l1.4336 1.99218m-2.44922-1.85156l.71875.99219m13.64062-.71485l-7.02343.11329m7.02343-.11329l1.1875 2.14844m-2.20703-2.13281l1.1836 2.14844m13.1328-1.73829l-6.98827-.73828m6.98828.73829l.91797 2.27734m-1.9336-2.38281l.45703 1.13671m13.82032-.6914l-6.88281-1.41797m6.8828 1.41797l.69141 2.35156m-1.6914-2.5586l.34375 1.17579m13.98047-1l-6.89844-1.35156m6.89844 1.35156l.71093 2.34765m12.66016-2.77734l-7.01172-.4961m7.01172.4961l.9961 2.24219m-2.01563-2.3125l.4961 1.1211m13.77343-.58594l-6.88281-1.42579m6.88281 1.42579l.6875 2.35546m-1.6875-2.5625l.6875 2.35547m13.55469-1.86328l-6.73828-1.9961m6.73828 1.9961l.48828 2.40625m-1.46875-2.69531l.49219 2.40234m13.9414-2.85937l-7.01172-.5039m7.01172.5039l.99219 2.24219m-2.01172-2.31641l.99219 2.2461m13.35156-2.47657l-7.02734.10547m7.02734-.10547l1.1836 2.14844m-2.20704-2.13281l1.1836 2.14843M347.22656 347.5l-7-.64063m7 .64063l.94922 2.26172m-1.96875-2.35547l.94922 2.26172m-1.96875-2.35547l.47656 1.1289m14.8711-.89062l-6.98829-.74219m6.98829.7422l.91796 2.27343m-1.93359-2.38281l.91406 2.27734M358.5 347.33203l.91797 2.27735m14.45312-2.47657l-7.02734.08985m7.02734-.08985l1.1797 2.15235m-2.20313-2.14063l1.17968 2.15235m-2.20312-2.13672l1.17969 2.15234m-2.20313-2.14063l.58984 1.07813m15.6875-1.92578l-6.8164 1.70703m6.8164-1.70703l1.64454 1.82422m-2.63282-1.57422l1.64063 1.82031m-2.63281-1.57422l1.64062 1.82422m13.38281-3.05078l-6.26953 3.16797m6.26953-3.16797l2.00782 1.41406m-2.91797-.95312l2.0039 1.41406m-2.91797-.95313l2.00391 1.41407m13.15234-2.30469l-6.30468 3.10547m6.30468-3.10547l1.9922 1.4336m-2.91016-.98438l1.99218 1.4336m-2.91015-.98048l.9961.71875m14.30077-1.27734l-6.59765 2.41797m6.59765-2.41797l1.82813 1.64063m-2.78516-1.28907l1.82422 1.64063m-2.78516-1.28906l.91407.8203m14.47265-.97656l-6.90234 1.32422m6.90234-1.32421l1.53906 1.91406m-2.54296-1.71875l1.53906 1.91015m-2.54297-1.71875l.76953.95704m14.49219-1.60157l-6.78125 1.83985m6.78125-1.83985l1.67969 1.78906m-2.66407-1.52343l1.67578 1.78906m-2.66406-1.51953l.83985.89453m14.19921-2.08203l-6.28515 3.14453"/><g clip-path="url(#au)"><path fill="none" stroke="#000" stroke-linecap="round" stroke-linejoin="round" stroke-miterlimit="10" stroke-width=".5" d="M466.70313 345.60547l2 1.42578"/></g><g clip-path="url(#av)"><path fill="none" stroke="#000" stroke-linecap="round" stroke-linejoin="round" stroke-miterlimit="10" stroke-width=".5" d="M465.78906 346.0625l2 1.42578"/></g><path fill="none" stroke="#000" stroke-linecap="round" stroke-linejoin="round" stroke-miterlimit="10" stroke-width=".5" d="M464.875 346.51953l1 .71485"/><g clip-path="url(#aw)"><path fill="none" stroke="#000" stroke-linecap="round" stroke-linejoin="round" stroke-miterlimit="10" stroke-width=".5" d="M142.125 330.89453l3.75 5.9375"/></g><path fill="none" stroke="#000" stroke-linecap="round" stroke-linejoin="round" stroke-miterlimit="10" stroke-width=".5" d="M158.22656 330.46875l-1.82422 6.78906m1.5586-5.80078l1.19531-.27344m13.07422-.44921l-3.19922 6.2578m2.73438-5.34765l1.22656-.01953m8.59765 4.84375l4.71094-5.21094m14.28906 3.72656l-6.66015-2.24218m5.6914 1.91797l.19922 1.20703m14.03906-.75781l-6.5703-2.4961m6.5703 2.4961l.3086 2.4375m13.23437-3.69922l-7.02734.03125m7.02734-.03125l1.16407 2.16015m12.04297-1.28125L233.80077 333m6.8086 1.72656l.58593 2.38281m-1.57422-2.6328l.28907 1.1914m14.125-1.88281l-7.02735.15234m7.02735-.15234l1.1953 2.14062m-2.21874-2.11719l.59766 1.07032m13.73828-1.01563h-7.02735m7.02735 0l1.15234 2.16797m-2.17188-2.16797l.57422 1.08203m13.75782-.90625l-7.01954-.35156m7.01954.35156l1.03906 2.22266m-2.0625-2.27344l1.04297 2.22266m13.28906-2.08985l-7.00781-.51562m7.00781.51562l.99219 2.2461m-2.01172-2.32031l.4961 1.12109m13.78515-.63281l-6.89844-1.34375m6.89844 1.34375l.71484 2.34765m-1.71875-2.54297l.35938 1.17188m13.91406-.77344l-6.8086-1.75m6.8086 1.75l.57422 2.38672m-1.5664-2.64063l.57812 2.38282m-1.5664-2.63672l.28515 1.1914m15.09375-1.14843l-6.97656-.82031m6.97656.8203l.89062 2.28907m-1.90234-2.40625l.88672 2.28516m-1.90235-2.40625l.44532 1.14453m14.92187-1.28516l-7.02734-.0625m7.02734.0625l1.13281 2.17578m-2.15234-2.1875l1.13281 2.17969m13.14063-1.53906l-6.90235-1.32031m6.90235 1.3203l.72656 2.34376m-1.73047-2.53516l.36328 1.17188m13.99219-1.22266l-6.97656-.83594m6.97656.83594l.88672 2.28906m-1.90234-2.41015l.88671 2.28515m-1.89843-2.40625l.4414 1.14453m14.86328-1.97656l-6.90234 1.3125m6.90234-1.3125l1.53907 1.91016m-2.54297-1.71875l1.53906 1.91015m12.83594-1.69921l-7.01172.5078m7.01172-.5078l1.30469 2.07812m-2.32422-2.0039l1.30468 2.07812m-2.32421-2.0039l.65234 1.03906m14.44531-2.27344l-6.5 2.67578m6.5-2.67578l1.89063 1.5664m-2.83594-1.17578l1.89062 1.5664m12.41016-1.85155l-6.57812 2.46875m6.57812-2.46875l1.83984 1.625m-2.79687-1.26563l1.83984 1.625m-2.79687-1.26562l.91797.8125m14.34375-1.4375l-6.64453 2.28125m6.64453-2.28125l1.79297 1.67578m-2.75782-1.34375l1.79297 1.67578m-2.76172-1.34375l1.79297 1.67578m13.48047-2.26172l-6.69531 2.125m6.69531-2.125l1.7539 1.71485m-2.72656-1.40625l1.75391 1.71484m-2.72656-1.40625l1.75 1.71875m13.35547-2.73828l-6.38672 2.92969"/><g clip-path="url(#ax)"><path fill="none" stroke="#000" stroke-linecap="round" stroke-linejoin="round" stroke-miterlimit="10" stroke-width=".5" d="M466.7539 332.39844l1.95313 1.48828"/></g><g clip-path="url(#ay)"><path fill="none" stroke="#000" stroke-linecap="round" stroke-linejoin="round" stroke-miterlimit="10" stroke-width=".5" d="M465.82422 332.82422l1.95312 1.48828"/></g><path fill="none" stroke="#000" stroke-linecap="round" stroke-linejoin="round" stroke-miterlimit="10" stroke-width=".5" d="M464.89844 333.25l1.94922 1.48828"/><g clip-path="url(#az)"><path fill="none" stroke="#000" stroke-linecap="round" stroke-linejoin="round" stroke-miterlimit="10" stroke-width=".5" d="M140.76563 319.17578l6.46875 2.7461"/></g><path fill="none" stroke="#000" stroke-linecap="round" stroke-linejoin="round" stroke-miterlimit="10" stroke-width=".5" d="M153.82031 320.17969l6.98828.73437m-5.97265-.625l-.45703-1.13672m12.73828 1.41797l7.02734-.04687m-6.0039.03906l-.58594-1.07813m19.75781.0586l-6.73438 2.00781M197.92188 324l-1.32421-6.90234m1.1328 5.89843l-.95702.76954m15.75781-.29688l-3.91016-5.83984m3.91016 5.83984l-1.16016 2.16016m14.79297-2.40235l-4.54687-5.35937m4.54687 5.35937l-.91015 2.28125m.24609-3.0586l-.45313 1.14063m14.98438-.95312l-5.65234-4.17578m5.65234 4.17578l-.35938 2.42578m-.46093-3.03516l-.1836 1.21485m14.89063-1.80078l-6.79688-1.78516m6.79688 1.78516l.5664 2.38671m-1.55468-2.64843l.28125 1.19531m14.10156-1.33203l-6.95703-.99219m6.95703.99219l.83594 2.3086m-1.84766-2.45313l.41797 1.15625M280.66406 320.5l-7.02734.09375m7.02734-.09375l1.17969 2.15234m-2.20313-2.13671l.58985 1.07421m13.74219-1.24609l-7.01563.40625m7.01563-.40625l1.27734 2.09766m-2.29688-2.03516l.63672 1.04688m13.70313-.9336l-7.02735.0586m7.02735-.0586l1.17187 2.15625m-2.1914-2.14844l.58203 1.07813m13.73437-.67969l-6.98828-.75781m6.98828.75781l.91016 2.28125m-1.92578-2.39062l.91015 2.27734m13.4336-2.35547l-7.01563-.3789m7.01563.3789l1.03515 2.22266m-2.05468-2.27735l.51562 1.10938m13.77735-.65625l-6.9297-1.17969m6.9297 1.17969l.76953 2.32812m12.59375-2.86328l-7.02735-.10937m7.02735.10937l1.11718 2.1836m12.1797-2.59375l-6.9922.71484m6.9922-.71484l1.36718 2.03906m11.48437-3.45703l-6.0625 3.55078m6.0625-3.55078l2.08985 1.28515m-2.97266-.76953l1.04297.64453m13.05469-1.32421l-5.86328 3.8789m5.86328-3.8789l2.15625 1.17187m11.49219-.53125l-6.53125 2.59766m5.58203-2.21875l.9336.79296m12.77343-2.11328l-5.41406 4.48047m16.29687-5.74219l-.55078 7.00391m.55078-7.0039l2.25-.98047m13.03516 1.77734L448.0039 323.25m4.48828-5.40625l2.40234.4961m-3.0586.29296l1.20313.2461m13.20703-.59766l-5.37109 4.53125"/><g clip-path="url(#aA)"><path fill="none" stroke="#000" stroke-linecap="round" stroke-linejoin="round" stroke-miterlimit="10" stroke-width=".5" d="M466.2461 318.28125l2.27734.91406"/></g><path fill="none" stroke="#000" stroke-linecap="round" stroke-linejoin="round" stroke-miterlimit="10" stroke-width=".5" d="M465.46484 318.9414l2.27735.91407m-3.0586-.2539l2.27735.91406"/><path fill="#00f" fill-rule="evenodd" d="M388.23828 472.08594h8.61719V461.9414h-8.61719v10.14453"/><path fill="azure" fill-rule="evenodd" d="M390.07031 463.77344h.83594v2.82422h3.28516v-2.82422h.83203v6.48047h-.83203v-2.91797h-3.28516v2.91797h-.83594v-6.48047"/><path fill="#ff3030" fill-rule="evenodd" d="M366.74219 423.26563h7.6914v-10.14844h-7.6914v10.14844"/><path fill="azure" fill-rule="evenodd" d="M368.57422 414.95313h.83203v5.73828h3.19531v.74218h-4.02734v-6.48046"/><path fill="#00f" fill-rule="evenodd" d="M224.01953 414.38672h8.61719v-10.14453h-8.61719v10.14453"/><path fill="azure" fill-rule="evenodd" d="M225.85156 406.07422h.83594v2.82422h3.28516v-2.82422h.83203v6.48047h-.83203v-2.91406h-3.28516v2.91406h-.83594v-6.48047"/><path fill="#ff3030" fill-rule="evenodd" d="M189.20703 409.94922h7.6914v-10.14453h-7.6914v10.14453"/><path fill="azure" fill-rule="evenodd" d="M191.03906 401.63672h.83594v5.73828h3.1914v.74219h-4.02734v-6.48047"/><path fill="#ff3030" fill-rule="evenodd" d="M189.20703 370.0039h7.6914v-10.14452h-7.6914v10.14453"/><path fill="azure" fill-rule="evenodd" d="M191.03906 361.6914h.83594v5.73829h3.1914v.74219h-4.02734v-6.48047"/><path fill="#ffffe0" fill-rule="evenodd" d="M347.98047 387.98828h22.17969v-10.1914h-22.1797v10.1914"/><path fill-rule="evenodd" d="M351.48047 379.6289h.50781v6.29688h-.78515v-4.49219h-1.39063v-.55468l.5625-.0625.25-.0547.23047-.08983.20312-.14063.17579-.21094.14062-.29297.10547-.39843m4.8125 0l.23047.01953.21875.05469.20703.08984.19922.1211.1836.15234.17187.17578.30078.41797.24219.49218.17968.54688.11328.57812.03516.59375-.03516.59375-.11328.58204-.17969.55468-.24218.5-.30078.42969-.17188.17969-.1836.15234-.19921.125-.20703.08985-.21875.05859-.23047.01953-.22656-.01953-.22266-.0586-.20703-.08984-.19531-.125-.1836-.15234-.17187-.17969-.30078-.42969-.2461-.5-.17969-.55469-.10937-.58203-.03906-.59375h.83203l.03125.5625.08203.50391.125.44531.16406.375.1875.30078.21094.21875.22266.13672.22656.04688.22656-.04688.22266-.13672.21094-.21875.1914-.30078.16406-.375.125-.44531.08204-.5039.02734-.5625-.02735-.5625-.08203-.5-.125-.4375-.16406-.36329-.1914-.29297-.21094-.21484-.22266-.1289-.22656-.04688-.22656.04687-.22266.12891-.21094.21484-.1875.29297-.16406.36328-.125.4375-.08203.5-.03125.5625h-.83203l.03906-.59375.10938-.57812.17968-.54688.2461-.49218.30078-.41797.17187-.17578.1836-.15235.1953-.1211.20704-.08983.22266-.0547.22656-.01952m5.09375 0h.50781v6.29687h-.78515v-4.49219h-1.39063v-.55468l.5586-.0625.2539-.0547.23047-.08983.20312-.14063.17188-.21094.14453-.29297.10547-.39843m2.82031 2.17578h.78906l.01954-.3164.05859-.28517.10156-.2539.13672-.21485.1836-.17187.22265-.1289.26563-.08204.30859-.02734.23828.02344.22266.0625.20312.10156.17969.13672.14844.17187.11328.20703.07031.23438.02734.26562-.02343.26954-.06641.22265-.10938.1914-.15625.17188-.19921.16406-.2461.16407-.63672.39062-.53515.3125-.4375.3164-.34766.32423-.26172.33594-.1914.35156-.125.3711-.07032.39062-.01953.42187h4.21094v-.74219h-3.33203l.08203-.28515.11328-.23438.14844-.20312.1875-.17969.23047-.17188.28125-.17578.71484-.41406.41797-.20703.34375-.23047.28125-.25.21875-.26953.16406-.27734.11328-.28516.0625-.28516.01954-.28125-.04297-.3828-.1172-.34767-.1914-.30859-.25-.26172-.30078-.21094-.34765-.16015-.37891-.09766-.40625-.03515-.4375.03515-.39844.09766-.35156.16797-.30469.23437-.25.30078-.1875.375-.11328.44532-.04297.51953"/><path fill="#ffffe0" fill-rule="evenodd" d="M208.59375 327.97656h22.17969v-10.1914h-22.17969v10.1914"/><path fill-rule="evenodd" d="M212.09375 319.61719h.50781v6.29687h-.78515v-4.49219h-1.39063v-.55468l.5586-.0625.2539-.05469.23047-.08984.20313-.14063.17187-.21094.14453-.29296.10547-.39844m4.8125 0l.23047.01953.21875.05469.20703.08984.19531.1211.1836.15234.17187.17578.30469.41797.24219.49219.17968.54687.10938.57813.03906.59375-.03906.59375-.10938.58203-.17968.55468-.2422.50391-.30468.42578-.17187.17969-.1836.15234-.19531.125-.20703.08985-.21875.05859-.23047.01953-.23047-.01953-.21875-.0586-.20703-.08984-.19531-.125-.1836-.15234-.17187-.17969-.30469-.42578-.24219-.5039-.17968-.5547-.10938-.58202-.03906-.59375h.83203l.03125.5625.07813.5039.1289.44531.16016.375.1914.30079.21094.21875.22266.13671.22656.04688.22656-.04688.22266-.13671.21094-.21875.1914-.30079.16016-.375.1289-.4453.08204-.50392.02734-.5625-.02734-.5625-.08203-.5-.12891-.43359-.16016-.36719-.1914-.29296-.21094-.21485-.22266-.1289-.22656-.04688-.22656.04688-.22266.1289-.21094.21485-.1914.29296-.16016.3672-.1289.43358-.07813.5-.03125.5625h-.83203l.03906-.59375.10938-.57812.17968-.54688.2422-.49218.30468-.41797.17187-.17578.1836-.15235.19531-.12109.20703-.08984.21875-.0547.23047-.01952m5.08984 0h.51172v6.29687h-.78906v-4.49219h-1.38672v-.55468l.5586-.0625.2539-.05469.22656-.08984.20703-.14063.17188-.21094.14063-.29296.10546-.39844m2.82422 2.17578h.78906l.01954-.3164.05859-.28516.09766-.25391.14062-.21484.1836-.17188.22265-.1289.26563-.08204.30468-.02734.23828.02344.22657.0625.20312.10156.17969.13672.14844.17187.11328.20704.07031.23828.02734.26171-.02343.26954-.0664.22265-.10938.19531-.15625.16797-.19922.16407-.2461.16406-.63672.39062-.53515.3125-.4375.31641-.34766.32422-.26562.33594-.1875.35156-.125.3711-.07031.39062-.01954.42187h4.21094v-.74219h-3.33203l.08203-.28125.11328-.23828.14844-.20312.1875-.17969.23047-.17187.27734-.17579.71875-.41406.41406-.20703.34766-.23047.28125-.25.21875-.26953.16406-.27734.10938-.28516.0664-.28515.01954-.28125-.04297-.38282-.1211-.34765-.1875-.3086-.25-.26172-.30468-.21093-.34375-.16016-.38282-.09766-.40625-.03515-.43359.03515-.39844.09766-.35547.16797-.30468.23437-.2461.30079-.1875.375-.11328.4453-.04297.51954"/><path fill="#ffffe0" fill-rule="evenodd" d="M328.42969 342.3086h22.17969v-10.19141h-22.1797v10.1914"/><path fill-rule="evenodd" d="M331.92969 333.94922h.50781v6.29297h-.78516v-4.48828h-1.39062v-.5547l.5586-.0664.2539-.05469.23047-.08984.20312-.14062.17188-.21094.14453-.29297.10547-.39453m4.8125 0l.23047.01953.21875.05469.20703.08984.19531.1211.1836.14843.17187.17578.30469.41797.24218.4961.1797.54687.10937.57813.03906.58984-.03906.59375-.10938.58594-.17969.55469-.24218.5-.3047.42968-.17187.17969-.18359.15234-.19531.1211-.20703.09375-.21875.0586-.23047.01952-.23047-.01953-.21875-.0586-.20703-.09374-.19531-.1211-.1836-.15234-.17187-.17969-.3047-.42969-.24218-.5-.17969-.55468-.10937-.58594-.03906-.59375h.83203l.02734.5625.08203.50781.1289.4414.16017.375.1914.30079.21094.22266.22265.13671.22657.04688.22656-.04688.22266-.13671.21093-.22266.19141-.30078.16016-.375.1289-.4414.07813-.50782.03125-.5625-.03125-.5586-.07813-.5-.1289-.4375-.16016-.36718-.1914-.28906-.21094-.21485-.22266-.13281-.22656-.04297-.22656.04297-.22266.13281-.21094.21485-.1914.28906-.16016.36719-.1289.4375-.08204.5-.02734.55859h-.83203l.03906-.58984.10937-.57813.1797-.54687.24218-.4961.30469-.41797.17187-.17578.1836-.14844.1953-.12109.20704-.08984.21875-.05469.23047-.01953m5.08984 0h.51172v6.29297h-.78906v-4.48828h-1.38672v-.5547l.5586-.0664.2539-.05469.22656-.08984.20313-.14062.17578-.21094.14062-.29297.10547-.39453m6.80469 1.6211h-.78516l-.05078-.21485-.08203-.1836-.10938-.16015-.1289-.13281-.14844-.10157-.16015-.07421-.16797-.04688-.17188-.01172-.32812.03906-.28516.1211-.2461.19531-.20312.26953-.16406.33594-.11328.40625-.07031.46484-.02344.52735.1875-.20313.1875-.16015.1836-.1211.1875-.08984.1875-.0586.1914-.03906.40234-.02344.30469.03125.32031.09375.3164.15235.29688.22265.2539.28125.19923.35157.07422.19921.05078.21875.03125.23438.0039.2539-.78906.04298-.02734-.25782-.07813-.25-.1211-.23437-.16015-.21094-.1914-.17578-.22266-.14063-.23828-.08593-.2539-.03125-.25782.03125-.23828.08593-.22266.14063-.1914.17578-.16016.21094-.1211.23437-.07812.25-.02734.25781.02734.26172.07813.25.12109.23438.16016.21094.1914.17578.22266.13672.23828.08984.25781.03125.2539-.03125.23829-.08984.22266-.13672.1914-.17578.16016-.21094.1211-.23438.07812-.25.02734-.26171.78906-.04297-.03125.36718-.09375.375-.15625.35547-.22265.32813-.28906.28515-.17188.1172-.1875.10155-.20703.08594-.22266.0586-.24219.03906-.2578.01562-.28516-.01953-.26172-.04687-.23438-.07422-.21875-.10547-.1914-.13281-.17579-.15625-.15234-.1797-.13672-.19921-.11719-.22266-.09765-.24218-.14844-.53516-.08594-.59375-.02734-.64063.03906-.74218.11719-.66406.1836-.57813.12109-.2539.13672-.23438.15234-.20703.17188-.17969.1875-.15625.19921-.1289.21875-.10157.23438-.07422.2461-.04297.26171-.01562.36719.03125.33203.09765.29688.15235.2539.19922.21094.23828.16797.27734.11328.30078.0625.32422"/></g></defs><use xlink:href="#aB"/></svg>