<svg xmlns="http://www.w3.org/2000/svg" role="img" xmlns:xlink="http://www.w3.org/1999/xlink" viewBox="142.45 309.95 326.84 171.84"><defs><clipPath id="a"><path d="M144 311.67188h1v168.65625h-1zm0 0"/></clipPath><clipPath id="b"><path d="M144 311.67188h324v168.65625H144zm0 0"/></clipPath><clipPath id="c"><path d="M384 476h13v4.32813h-13zm0 0"/></clipPath><clipPath id="d"><path d="M386 477h10v3.32813h-10zm0 0"/></clipPath><clipPath id="e"><path d="M390 479h3v1.32813h-3zm0 0"/></clipPath><clipPath id="f"><path d="M467 311.67188h1v168.65625h-1zm0 0"/></clipPath><clipPath id="g"><path d="M144 480h4v.32813h-4zm0 0"/></clipPath><clipPath id="h"><path d="M147 480h2v.32813h-2zm0 0"/></clipPath><clipPath id="i"><path d="M153 480h9v.32813h-9zm0 0"/></clipPath><clipPath id="j"><path d="M160 480h3v.32813h-3zm0 0"/></clipPath><clipPath id="k"><path d="M166 479h9v1.32813h-9zm0 0"/></clipPath><clipPath id="l"><path d="M173 479h3v1.32813h-3zm0 0"/></clipPath><clipPath id="m"><path d="M180 479h8v1.32813h-8zm0 0"/></clipPath><clipPath id="n"><path d="M187 479h3v1.32813h-3zm0 0"/></clipPath><clipPath id="o"><path d="M193 479h8v1.32813h-8zm0 0"/></clipPath><clipPath id="p"><path d="M200 479h3v1.32813h-3zm0 0"/></clipPath><clipPath id="q"><path d="M206 478h9v2.32813h-9zm0 0"/></clipPath><clipPath id="r"><path d="M213 478h3v2.32813h-3zm0 0"/></clipPath><clipPath id="s"><path d="M220 478h8v2.32813h-8zm0 0"/></clipPath><clipPath id="t"><path d="M226 478h4v2.32813h-4zm0 0"/></clipPath><clipPath id="u"><path d="M225 479h3v1.32813h-3zm0 0"/></clipPath><clipPath id="v"><path d="M233 478h8v2.32813h-8zm0 0"/></clipPath><clipPath id="w"><path d="M240 478h3v2.32813h-3zm0 0"/></clipPath><clipPath id="x"><path d="M239 478h2v2.32813h-2zm0 0"/></clipPath><clipPath id="y"><path d="M247 478h7v2.32813h-7zm0 0"/></clipPath><clipPath id="z"><path d="M253 478h3v2.32813h-3zm0 0"/></clipPath><clipPath id="A"><path d="M252 478h2v2.32813h-2zm0 0"/></clipPath><clipPath id="B"><path d="M260 478h8v2.32813h-8zm0 0"/></clipPath><clipPath id="C"><path d="M266 478h4v2.32813h-4zm0 0"/></clipPath><clipPath id="D"><path d="M273 478h8v2.32813h-8zm0 0"/></clipPath><clipPath id="E"><path d="M279 479h2v1.32813h-2zm0 0"/></clipPath><clipPath id="F"><path d="M287 478h7v2.32813h-7zm0 0"/></clipPath><clipPath id="G"><path d="M292 479h2v1.32813h-2zm0 0"/></clipPath><clipPath id="H"><path d="M300 478h8v2.32813h-8zm0 0"/></clipPath><clipPath id="I"><path d="M305 479h3v1.32813h-3zm0 0"/></clipPath><clipPath id="J"><path d="M313 478h8v2.32813h-8zm0 0"/></clipPath><clipPath id="K"><path d="M329 476h3v4.32813h-3zm0 0"/></clipPath><clipPath id="L"><path d="M341 477h6v3.32813h-6zm0 0"/></clipPath><clipPath id="M"><path d="M355 476h4v4.32813h-4zm0 0"/></clipPath><clipPath id="N"><path d="M367 477h7v3.32813h-7zm0 0"/></clipPath><clipPath id="O"><path d="M380 478h7v2.32813h-7zm0 0"/></clipPath><clipPath id="P"><path d="M393 478h8v2.32813h-8zm0 0"/></clipPath><clipPath id="Q"><path d="M407 477h7v3.32813h-7zm0 0"/></clipPath><clipPath id="R"><path d="M422 476h3v4.32813h-3zm0 0"/></clipPath><clipPath id="S"><path d="M433 479h8v1.32813h-8zm0 0"/></clipPath><clipPath id="T"><path d="M446 479h8v1.32813h-8zm0 0"/></clipPath><clipPath id="U"><path d="M460 478h7v2.32813h-7zm0 0"/></clipPath><clipPath id="V"><path d="M144 466h4v2h-4zm0 0"/></clipPath><clipPath id="W"><path d="M466 467h2v3h-2zm0 0"/></clipPath><clipPath id="X"><path d="M144 452h4v3h-4zm0 0"/></clipPath><clipPath id="Y"><path d="M144 439h4v3h-4zm0 0"/></clipPath><clipPath id="Z"><path d="M466 438h2v3h-2zm0 0"/></clipPath><clipPath id="aa"><path d="M144 425h4v4h-4zm0 0"/></clipPath><clipPath id="ab"><path d="M466 425h2v4h-2zm0 0"/></clipPath><clipPath id="ac"><path d="M144 411h4v5h-4zm0 0"/></clipPath><clipPath id="ad"><path d="M465 411h3v2h-3zm0 0"/></clipPath><clipPath id="ae"><path d="M144 398h4v5h-4zm0 0"/></clipPath><clipPath id="af"><path d="M466 398h2v3h-2zm0 0"/></clipPath><clipPath id="ag"><path d="M144 385h4v4h-4zm0 0"/></clipPath><clipPath id="ah"><path d="M466 385h2v4h-2zm0 0"/></clipPath><clipPath id="ai"><path d="M144 373h4v2h-4zm0 0"/></clipPath><clipPath id="aj"><path d="M144 360h4v1h-4zm0 0"/></clipPath><clipPath id="ak"><path d="M465 357h3v3h-3zm0 0"/></clipPath><clipPath id="al"><path d="M144 346h4v2h-4zm0 0"/></clipPath><clipPath id="am"><path d="M466 345h2v2h-2zm0 0"/></clipPath><clipPath id="an"><path d="M144 332h4v4h-4zm0 0"/></clipPath><clipPath id="ao"><path d="M466 331h2v3h-2zm0 0"/></clipPath><clipPath id="ap"><path d="M465 332h3v3h-3zm0 0"/></clipPath><clipPath id="aq"><path d="M144 317h3v7h-3zm0 0"/></clipPath><clipPath id="ar"><path d="M465 317h3v3h-3zm0 0"/></clipPath><g id="as" clip-path="url(#clip1)"><path fill="#fff" fill-opacity="0" fill-rule="evenodd" d="M0 0h1000v1000H0zm0 0"/><path fill="#d3d3d3" fill-opacity="0" fill-rule="evenodd" d="M162.15234 355.86719l-.23437.29297.0586.23437.11718.17188.17578.23437.29297.34766.11328.0586.11719-.17188.0586-.23438.17577-.17578.46485-.17578h.69922l.23437.29297.28906.8164.0586.17579.17578.23046.35156.23438.69922.69922.17188.17578.23437.34765.23438.41016.28906.58203.41015.46485.23047.23437.23438.17578.11719.23047.17578.29297.17187 1.16406v.23438l.0586.28906.05859.11719.11719.11719.34765.41015.11719.17188.17578.17578.17578.23437.11719.17188.17188.35156.05859.23438.23437.40625.23438-.0586-.17578.17578-.0586.92969h-.58203l-.23437-.11328-.34766.11328-.11719.11719-.05859.29297-.0586.17578-.11718.17187-.46484.29297-.0586.23438-.0586.11328v.64453l.0586.17187v.41016l.0586.0586v.40624l.05859.40625.11719.17579.05859.05859.23047.64062-.0586.29297v.69922l-.05859.58203v.23438l-.0586.23047-.05468.35156v1.92187l.05469.1172h.42578l-.36719.11718-.02344.35156.89063 1.16797 1.74219.53906 1.33984.35938v.53906l.08984.8086.53516.71484 1.51953.26953.89063-.08594.08984 1.16406.53516.1797 1.16015-.1797 2.05469-.98437 1.16016-.36328 1.8789-.17578 1.69531-.1797-.17968.71876-1.51563.08594-1.25.08984-.80469.26953-1.07421.8086.26953.71875.53515.89843-.17968.625-.26563.8086.26563 1.07812.625.89844.80468.17969 1.25-.1797-.26562.72267.09766.5039.05468.29297v.17188l.0586.29296v.40625l.17578.1172.35156.11718h.40625l.29297-.17578.11328-.11719.0586-.11719.11718-.23047.0586-.17578.35156-.46484.23047-.17578.17578-.0586.17578.0586.0586.17578.11718.98828.05469.46875.0586.17188.11718.23437.17578.0586.8164.05859h.28907l.11719.23437.05859.40625.0586.35156v1.10547l.11718.29297.11719.34766.28906.69922.17578.35156.58203.7539.35157.17579.17187.0586.46875.23437.64063.46484.34765.23438.29297.17578.29297.05468.23047.0625.8164.34766.29297.17578.11328.17188.35157.35156.11719.17578.52343.64063v.28906l.0586.35156v.34766l.05859.35156.0586.28906.11718.0586.17188.05859h.17578l.58203.23437.17578.1172.17578.28905.17578.23438.11328.23437.29297.23047.11719.11719v.41016l.0586.05468.28906.23438.23437.11719.0586.11718.11718.17188.0586.11719.23047.23437.05859.17578.23437.0586.1172.05859-.1172.11328-.05859.11719v.11719l-.11719.29296-.11719.28907v.58203l.17579.11719.11718.05859.0586.11719.11719.11719.11328.05859.17578.34765.0586.35157.05858.40625v.17578l-.05859.17578-.11719.69922v.17187l.1172.17579.29296.29296h.40625l.17578.1172.11719.17187.11719.29296v.23438h-.52735l-.23047-.23438h-.23437l-.17578.0586-.0586.69922.0586.34765.11719.17579.17578.41015.11718.23047.28907.46875.17578.05469h.52344l.23437.0586.75781.64062.0586.29296v.23438l.05859.0586.23047.34765v.35156l-.11719.17188v.29297l.29297.28906.29297.17578.17187.0586.29297.17577.29297.1172.58203.40624.28906.23438.29297.17578.21875.16015.01563.01172.23047.17579.64062.52343.17578.23438.1172.17578.17577.17578.11328.17188v.64062l.1172.17578.46874.11719.58203.11719.23438.05859.23047.11328.29297.11719.11328.0586.58593.35156.28907.17187.17578.0625.17578.05469.17578.0586.69922.35155.28906.17579.23438.05468.28906.17578.23437.1172.64063.40624.29297.11719.17187.0586.23438.05859.41015.05859.23047.0586.23438.11718.0586.17188-.41017.17578.46875.0586.0586.29296.11328.23438.17578.05468.23438.0586.17578.05859.40625.11719.64062.23437.11719.17188.0586.23437v.17578l-.0586.1172-.0586.40624.23438.23438.11719.05859.34766.11719.64062.23047.17578.11718.28906.1172.17578.17577.23438.46485.58203 1.10546.17578.17579.34766.17578.17578.11719.35156.11718 1.04688.52344.23437.0586.46485.11327.29297.0586.46484.17578.75781.58203.23438.23438.34765.46484.17578.17578.28907.23438.8164.69921.29297.17579.28906.28906.29297.17578.29297.28906.69531.64063.17578.17578.29297.23437.28907.23438.46875.28906.64062.58203.34766.23438.23437.29297.34766.34765.35156.46485.9336.99218.34765.40625.11719.17579.23437.05859.11328.11719.64454.17578.23047.11328.23437.0586.29297.17577.23047.1172.9336.69921.40624.40625.23438.17578.40625.17578.23437.11719.8164.34766.34766.23437.23438.11719.29297.28906.23047.11719.7578.35156.35157.17188.23047.05859.29297.11719.23437.0586.8711.17577h.8164l.46875.23047.17188.0586.875.69921.46484.1172.29297.05858.17578.0586.23047.0586.46875.05859.34766.05859.35156.0586.40625.05859h.29297l.17187.0586v.23046l.17578.17578h.29297l.34766.0586.35156.05859.69922.11719h.64063l.46484-.23438.29297-.17578.17187-.11719.41016-.17187.28906-.17578.9336-.46485.46875-.29297.52343-.29296.46485-.17188.46484-.17578 1.05078-.46485.28906-.11718.41016-.11719.28906-.11719.52735-.17578 1.51562-.69922.58203-.34765.28907-.0586.29297-.0586.34765-.11718.875-.23047.35156-.11719h.11329l.23437-.05859.875-.23437.23438-.0586h.8125l.35156-.0586.8164-.11718.17188-.0586.35156-.05468.29297-.0586.23047-.05859.8164-.17578.17579-.0586h.34765l.23438-.05859.46484-.11718.75781-.17188.23438-.0586h.34765l.41016-.11718.28906-.0586 1.28516-.05859h.28906l.41016-.0586.23047-.05858h.17578l.875-.1172h.40625l.41015-.11718h.34766l.35156-.11328.8711-.0586h1.75l1.04687.28907.41016.11719.28906.11718.35156.11719.28907.11719 1.05078.17187.28906.0586h.29297l.29297.05859.17187.0586.41016.05859.17187.0586.1172.05858h.11718l.11719.0586.35156.0586h.11328l.41016.0664 1.92187.39453 1.92578.39453 1.51953.44922 1.69532.71875 2.14453.80469 1.60547-.71875 1.42968-.80469 1.16016-1.07813 1.25-.44921 3.03516-.71875 1.875-.35938 2.14453-1.34765 2.23437-1.25391 2.5-1.25781 1.69531-.44922 1.78516-.17969 1.16016-.26953.625.53906 1.33984-.26953.71485-.98828.98437-1.34375.44531-.17969.80469-.35937 1.875-.53907 1.78516-.44921 1.25-.26954 1.16015-.08984 1.69922-.08984 1.96094-.26954 1.25-.08984h.53906l.625-.08984h.89063l2.14453-.17969 2.41015-.17969 2.58985-.08984 1.69531.17969 1.60938.08984 1.42968.35938 1.16016.71875 1.875.98828 1.16015 1.52734.26563.71484.6289.08985.35548.89844.53515.53906.53516 1.52734 1.07422.35938h.53515l-.80469.53515.08985 1.70703.71484 2.69532.89063.80468.89453.98829.71484 1.2578 1.78516.53907 1.51953-.17969.35547 1.34375 1.60937-.80469.98047-.53906.26953.26953.31641-.21484.21875-.14453.80078.44922.44922-.35938h.35547l.53515-.26953.53907-.71875.53515-.26953.625-.98828 1.16016.44922.83984.3711 1.39454.61718 1.6953-.17969h1.60548l1.78515.08985.17969-1.70704.53516-1.34375.80468.26954.4922.84765.40233.40625-.08984.53906v.35938l.71485.44922.71093-.26953h1.42969l.35938.98828.4453 1.25781.71485 1.34375 1.25.6289 1.69531.62891.71485-.17969.17969-.53906.98046-.08984.44922.35937.08594 1.25782-.26563.6289-.53515.17969v.53906l.71484.98438.26563.53906.98437.98828.80078 1.07813-.26562.35937-.08985.89844-.625 2.33203-.35546 2.0664-.08985 1.79298-.17969.71875-.08984.53906v1.4375l-.98047 1.88281-.35937 1.70703-.53516.89844-.80469 1.16797-.26562.53906 2.05469 1.2539.08593.35938-.35546.53906-.08985-.17968v.80859l.08985 1.4375-.44532.71484-1.07422.09375-.26562.71485.53515.89844.8047.71875 1.16015.80859 1.33984.26953.44531.35938-.35546.44921-1.78907-.08984-1.25-.44922-.71484-.71875-.625-.08984-.17578 3.58984-.1875 1.3086h89.35937V311.70313h-55.26953v49.08203l.76172.125 3.28906.54296 2.02344 2.83594v2.7539l2.35156.33204 2.34766.33203h4.05078l-1.3789 4.16016-2.02344.70703-2.02344.70312-.54297.34375-2.59375 1.6172-.1875.11718-2.02344-2.07813-.73046-2.74218-2.67188-2.07813-1.375-3.5-.0664-.08203-1.95704-2.67188 2.75-1.41796v-49.08204H294.42187v91.41407l.1172.03125.1328.01172.07422.07421.10547.04688.08985.0586.08593.05859.08985.0586.29687.29687.0586.08984.03125.11719.02734.11719.01563.13671-.03125.1172-.0586.08983-.0586.08594-.04296.10547-.04688.10156-.02734.1211v.14453l.17578.26953.14844.14844.07422.08594.07422.07421.04296.10547.0625.08985.0586.08593.04297.10547.0586.08985.04687.10156.04296.10547.0586.08594.11719.17968.07421.07422.0625.08594.0586.08984.04297.10547.0586.08985.05858.08593.0625.08985.0586.08984.04297.10156.11719.17969.07421.07422.0586.08594.07422.07421.08984.0586.10547.04687h.14844l.1328-.01562.13282.01562.10156-.04687.07422-.07422.04688-.10156-.01563-.13281v-.14844l-.04687-.10547-.02735-.11719-.04687-.10156-.02735-.1211-.04296-.10156-.0625-.08984-.04297-.10156-.04297-.10547-.03125-.11719-.01563-.13281-.01171-.13672.08593-.0586.0586-.08593.12109-.03125.04297.10547.01562.1328v.1172l.0586.10156.0586.08984.08983.0586.14844.14843.0586.08985.04296.10547-.01171.10156.08593.0586.10547.04687.08594.0586.08984.05858.07422.07422-.11719.02735-.10546.04687-.08594.0586-.07422.07421-.0586.08985-.0625.08594-.02734.12109-.04687.10156-.04297.10547-.03125.11719-.01172.13281-.01563.13281v.14844l.02735.11719.04687.10547.04297.10156.0586.08984.07421.07422.08985.0586.07422.07421.08984.0586.0586.08984.04296.10547.04688.10156.11719.03125.1328.01563h.14845l.11718-.03125.10547.04297.04297.10547.04688.10156.02734.1211L299.5 410l.02734.11719.03125.1211.02735.11718.10547.04297.10156.04687.13281-.01562.14844.14844.0625.08593.07422.07422.07031.07422.08984.0625.10547.04297.10156.04297.1172.03125.13671.01562.11719-.03125.07422-.07422.02734-.11718-.01172-.13282-.03125-.12109-.02734-.11719.04297-.10547h.11719l.08984.0625.11719.02735h.14843l.13282.01562h.14843l.13282.01563.1328-.01563h.14845l.1328-.01562.13282-.01172.13672.01172.11719-.02735.13281-.01562.1914-.0586-.05859.17579-.01562.1328-.02735.1211-.01562.13281-.0586.08594-.1328.01563-.10548.04687-.10546.04297-.1172.03125-.11718.02735-.26563.03125h-.14843l-.13281.01562-.07422.07422.05859.08594.14844.14843.11719.1797.07421.0703.08985.0625.08984.0586.08594.0586.08984.05858.10156.04297.10547.0625.10547.04297.08594.0586.10547.04687.10156.04297.17969.11719.0586.08984-.04298.10156-.04687.10547.01562.13281.22266.22266.0586.08985.04296.10156.03125.1211.04297.10155.01563.13282.03125.11718.01171.13672.03125.11719.14844.14844.10156.04297.10547.04296.1172.03125.1328.01563.13672.01563h.11719l.11719-.03125.08984-.0586.04297-.10547.04688-.10156.04296-.10547.03125-.11719.01172-.1328v-.14845l-.01172-.1328-.01562-.13282-.03125-.11719-.04297-.10547-.04688-.10547-.04296-.10156-.04297-.10547-.01563-.13281.01563-.13281.02734-.11719.03125-.11719.02735-.1211.04687-.10155.08984-.0586.08594-.0625.07422-.07422.08984-.05859.22266-.22266.0586-.08593.07421-.07422.11719-.17969.0586-.08594v-.14844l-.07423-.07421-.10156-.04688-.10547-.04297-.10156-.04297-.0586-.08984-.04687-.10547-.02734-.11719.08984-.05859.11719-.03125.10156-.04297.17969-.11719.14844-.14843.01172-.13282-.01172-.10546-.08985-.0586-.1328.01563h-.14845l-.1328.01562-.13282-.01562-.1211-.03125-.08593-.0586-.07422-.07422-.0586-.08984-.0625-.08594-.11718-.17969-.0586-.08593.03125-.1211.08594-.05859.1211-.03125.05859-.08594v-.1211l-.03125-.11718-.0586-.08984-.05859-.08594-.04687-.10547-.02735-.11719-.01562-.1328.0586-.08985.07421-.07422.08984-.0586.1172-.17968.07421-.07422.0586-.08594.14843-.14844.1211-.03125.1328-.01562.13282.01562.07422.07422.04297.10547.01562.13281-.03125.1172-.11719.03124-.1328.01172-.14844.14844-.04297.10547-.04688.10156-.02734.1211-.03125.11718v.14844l.03125.11719.04297.10546.05859.08985.07422.07031.07422.07422.11719.03125.12109.02734.11719-.02734.1328-.01563h.1172l.08984.0586.07422.07422.04687.10546.0586.08594.10156.04688.13281.01562.10547.04297.08594.0586-.01172.10546-.07422.07422-.17969.11719-.05859.08984-.08984.0586-.07032.07422-.07421.07421-.0625.08985-.02735.11719-.01562.1328.01562.13282-.01562.13281v.14844l.01562.13281.02735.1172.03125.12108.07421.07422.08985.0586.08594.0586.08984.05858.11719.03125v.08594l-.10157.04688-.08984.0586-.26563.03124-.11718.02735h-.14844l-.10547.04296-.10156.04688-.0586.08984-.0625.23438-.01171.13281-.03125.1211-.01563.1328v.29298l-.01172.1328.01172.13673.01563.1328.1328.01563.13282.01172.1211.03125.08593.0586.07422.07421.04688.10547.04296.10157.01563.1328v.44532l-.01563.13281v.44532l.03125.26562.02735.11719.01562.13281.03125.11719.08594.21094.03125.26562v.14844l-.03125.11719-.02734.11718-.03125.1211-.02735.11719-.03125.11718-.03125.1211-.01171.1328-.01563.13282.08984.0586.1172-.03125.10155.01562.04688.10547-.03125.26562v.44141l-.04297.10547-.04688.10547-.04296.10156-.04297.10547-.0586.08594-.03125.12109-.04296.11719-.03125.11719-.01563.1328.01563.13282.05859.08984.10547.04688.08594.0586.05859.08593-.01172.13672-.03125.11719-.04297.10156v.44531l-.01562.13281v.14844l-.03125.11719-.04297.10547-.02735.11719-.04687.10546-.04297.10157-.03125.12109-.02734.11719-.03125.13281-.03125.11719-.02735.11719-.04297.10546-.03125.1172-.03125.12108-.01171.13282-.01563.13281v.29688l.02734.11718v.14844l.04688.39844.02734.11719.0586.08984.12109.03125h.14844l.13281-.01563.0586.08985v.11719l-.0586.08984-.08984.0586-.10157.04296-.10546.04688-.08985.05859-.08594.0586-.13671.01562-.1172-.03125-.1328-.01563-.10157.04688-.0625.08594-.01172.13671-.01562.13282-.03125.11719-.02735.11718-.01562.13281-.03125.1211v.29687l.01563.13282.03125.11718v.14844l.01171.13281v.14844l-.02734.11719-.04688.10156-.02734.1211-.03125.11718-.0586.08985-.07421.07421-.10156.04297-.10547.04688-.11719.02734-.1211.03125-.10156-.04687.0586-.08594.10547-.04688.02734-.11718.03125-.11719.02734-.1211.03125-.11718v-.14844l.01563-.13281-.03125-.11719-.04297-.10547-.10547.01563-.07422.07422-.10156.04296-.08984.0625-.07422.07422-.04297.10157-.01563.1328-.03125.1172L304.25 426l-.03125.11719-.02734.11719-.03125.12109-.02735.11719-.03125.11718-.04297.10547-.08984.0586h-.08984l-.1172-.03125-.03124-.08594.01562-.13672-.03125-.11719v-.14844l-.01171-.1328v-.14844l-.0625-.23438-.02735-.1211-.04297-.10156-.04687-.10546-.0586-.08594-.05859-.08985-.04297-.10546-.0625-.08594-.14844-.14844-.0703-.07422-.10548-.04687-.10547-.04297-.10156-.04297-.29687-.29688-.08985-.07421-.08594-.0586-.10546-.04297-.08985-.0625-.08594-.0586-.10546-.04296-.08985-.0586-.08594-.0625-.07421-.0703-.10547-.04688-.08594-.0586-.10547-.04296-.08984-.0625-.10156-.04297-.10547-.04297-.08594-.0586-.10547-.04687-.10547-.04297-.10156-.04687-.08985-.0586-.10156-.04297-.10547-.04296-.08984-.0625-.11719-.02735-.13281-.01562-.13281.01562H299.75l-.13281.01563-.11719-.03125-.08984-.0586-.07422-.07422-.08985-.05859-.10156-.04688h-.14844l-.12109-.02734-.10156-.04297-.07422-.07422-.11719-.17968-.08984-.0586-.10156-.04297-.08985-.0625-.10547-.04296-.08984-.0586-.08594-.0586-.10547-.04687-.0586-.08594-.05858-.08984-.04297-.10547-.04688-.10156-.07422-.07422-.08594-.0586-.07421-.07421-.08985-.0586-.22265-.22265-.04297-.10547-.03125-.26563.10547-.04296h.14453l.10547.04296.07421.07422.08985.0586.08594.0586.10546.04687.08985.05859.14844.14844.0703.07422.14845.14843.0625.08594.07421.07422.08594.0586.07422.07421.08985.0625.08984.0586.08594.05859.26953.17578.10156.04688.10547.04296.10156.04297.04688-.07421.05859-.08594.07422-.07422.07031-.07422.10547.04297.07422.07422.0586.08984.04296.10156.04688.10547.04296.10547.1211.02735.11719-.02735.07421-.08984.04297-.10547.0586-.08985.07422-.07421.10546-.04297.1172-.02735.1328.01172.08985.0586.14844.14843.05859.08985.04297.10547.04687.10156.04297.10547.04297.10156.10547.04688.10547.04296.13281.01563.08594-.0586.0586-.08984.07421-.07422.10547-.04297.11719.02735.10547.04687.10156.04297.10547.04297.10156.04688.17969.11718v.11719l-.01563.13281.01563.13281.01562.13672.0586.08594.10156.04688.1211.02734.11718.03125h.14844l.11719-.03125.05859-.08984.17969-.1172.05859-.08983.07422-.07422.0586-.08594.11718-.17969.17969-.11719.11719.03125.08984.0586.04297.07422-.01563.1328v.1172l.08985.05859h.14843l.13282-.01563.1328-.01171.26563-.03125.10547-.04297.11719-.03125.1211-.02735.07421-.07421.07031-.07422.0625-.08985-.01562-.10547-.04688-.10156-.10156-.04297-.10547-.01562-.11718.02734-.26563.03125h-.14844l-.07421-.07422-.08985-.0586-.11719-.03124-.11718-.02735-.13282-.01562h-.14843l-.13282.01563h-.29687l-.10547-.04688-.14844-.14844-.04297-.10156-.05859-.08984.22266-.22266.08593-.0586.10547-.04296.11719-.03125.13281-.01563.13281.01563.13672.01562.10157.04297.1328-.01172.08985-.0625.10156-.04297.0625-.08984-.04687-.10156-.08984-.0586-.1172-.03125-.10155-.04296-.0586-.08985-.0625-.08984v-.11719l.01563-.13281.10547-.04688.07421-.07031v-.1211l-.08984-.05859-.03125-.11719.08985-.05859.07421-.07422.04297-.10547.0586-.08984.04687-.10156.01563-.13281v-.14844l-.04688-.10547-.04297-.10156-.08984-.0586-.13281-.01562-.10157-.04297-.13671-.01563-.1172-.03125h-.4453l-.13282-.01562-.13281-.01172-.13281-.01563-.11719-.03125h-.14844l-.13281-.01562-.13281-.01172-.26563-.03125-.1211-.04297-.08593-.0586-.07422-.07421v-.14844l.01172-.13281.10547-.04688.10156-.04296.13281-.01563h.15235l.13281-.01562h.29297l.1211.03125.10156.04296.08984.0586.23438.0625.12109-.04688.08984-.05859.10156-.04297.13282-.01562.10547.04296.10156.04688.13281.01172.1211-.02735h.14453l.12109-.03125.11719-.02734.10547-.04687.07421-.07422.08594-.0586.14844-.14843.0586-.08594.04687-.10547.02734-.11719.01563-.10547-.10156-.04296-.08985-.0586-.11719-.03125-.10546-.04297-.08985-.0625-.07422-.08594-.07422-.07421-.10156-.04297-.10547-.04688-.10156-.04297-.0586-.08984-.04687-.10156-.08594-.21094-.0625-.08594-.05859-.08984-.07422-.07422-.08594-.0586h-.26953l-.11719.03126-.08984.05859-.10156.04297-.13281.01562-.10547-.01562-.02735-.11719-.0625-.08984-.11718-.03125-.10157-.04297-.14843-.14844-.03125-.11719-.01563-.10546.07422-.07422.17969-.1172.11719-.02733.11718-.03125.13672.01562.10156.04297.10547.04297.10156.04687.10547.04297.1172.03125.1328.01563.1172.02734.1328.01563.10547-.01563.08985-.0586-.07422-.07421-.10547-.04297-.07422-.07422-.07422-.08984-.14844-.14844-.08593-.0586-.08985-.05859-.07422-.07422-.08984-.0586-.10156-.04687-.1211-.02734-.10156-.04688-.10547-.04296-.11719-.03125-.10156-.04297-.1211-.03125h-.14843l-.11719.03125-.10546.04297-.08594.0625-.17969.11718-.08594.0586-.08984.0586-.10547.04687-.08594.05859-.10547.04297-.10156.04297-.10547.04687-.07422.07422-.05859.08985-.0586.08593-.04687.10547-.0586.08594-.07421.07422-.13281-.01172-.1172-.03125h-.11718l-.07422.07422-.08984.0586-.07422.07421-.08984.0586-.08594.05859-.10547.04687-.10156.04297-.13672.01563-.10156-.04297-.14844-.14844-.10547-.04688h-.08594l-.10547.04688-.10156.04297-.1211.03125-.11718-.03125-.07422-.07422v-.11719l.03125-.1211.07422-.0703.0586-.08985.07421-.07422.11719-.03125.10547-.04296h.29297l.13281-.01563.13672-.01563.10156-.04296.08985-.0586.10156-.04687.08984-.0586.13281-.01171.08985.05859.13281.01172.08984-.0586.08594-.05859.10547-.04297.08984-.0586.08594-.0625.08985-.05859.14843-.14843.0586-.08594.05859-.08985.10547-.04296.13281-.01563.11719.02735.1211.03125.05859-.0586.05859-.08984.03125-.26563.02734-.11719.10547.01172.13281.01563.10157-.04297.08984-.0586.0586-.08984.07421-.07422.0586-.08984.04687-.10156.01172-.13281-.01172-.13282-.04687-.10547-.14844-.14843-.0586-.08985-.05859-.08594-.04297-.10546v-.44532l.01563-.1328v-.14845l.01172-.1328-.0586-.0586-.08984.0586-.10156-.04298-.17969-.11719-.08594-.05859-.0625-.08984-.0586-.08985-.07421-.07421-.08594-.0586-.1211.03125-.10155.01172-.10547.04688-.08594.05859-.10547.04297-.14844.14844-.08984.05859-.08594.0586-.08984.0625-.10547.04296-.13281.01563v-.1211l.10547-.04297.11718-.03125.07422-.0703.04297-.10548v-.14844l-.02734-.11718-.14844-.14844-.13281-.01563h-.14844l-.11719.03125-.10547.04297-.10156.04297-.08984.0625-.11719.02735-.07422-.07422.01172-.13281-.04297-.10157-.04297-.10547-.08984-.05859-.11719.02734-.1211.03125-.11718.03125-.10156.04297-.1211.03125-.10156.04297-.10547.04297-.08984.0586-.10156.01562v-.11719l.01562-.13281-.0586-.08985-.07421.04297-.14844.14844-.0586.08985-.07421.07421-.04688.10547-.04296.10156-.07422.07422-.0586.08985-.07422.07422-.05859.08593-.07422.07422-.08984.0625-.07422.07031-.07422.07422-.10156.01563-.13281.01562-.10547-.04296v-.1211l.14843-.14844.04297-.10156.0586-.08984.04687-.10156.04297-.10547.0586-.08985.03124-.11719.04297-.10156.03125-.1211.02735-.11718.04687-.10547.04297-.10156.04297-.10547.07422-.07031.08984-.0625.08985-.0586.10156-.04296h.29687l.26563-.03125.10547-.04297-.07422-.07422-.11719-.03125-.10547-.04297-.08984-.0586-.10156-.04687-.08985-.0586-.10156-.04296-.10547-.04297-.08984-.0625-.08594-.0586-.10547-.04296-.10156-.04297-.1211-.03125-.11718-.03125-.10157-.04297L297.5 410.25l-.10156-.04297-.08985-.0586-.04296-.10546-.01563-.13281.10156-.04297.13281-.01563.13672.01563.13282-.01563.10156-.04297.0586-.08984.01562-.10547-.08985-.0586-.07421-.07421-.10157-.04297-.08984-.0586-.14844-.14843-.04297-.10547-.01562-.13281v-.29297l-.0586-.08985-.08984-.05859-.07422-.07422-.04297-.10547-.03125-.11718-.0586-.08985-.07421-.07422-.11719-.02734-.07422-.07422-.08984-.0586-.08984-.0625-.08594-.05859-.07422-.07421-.0586-.08594-.04687-.10547-.08594-.0586-.14843-.14843-.19532-.0586-.1328.01563-.10157.04297-.07422.07422-.04688.10156-.04296.10547-.0586.08984-.0586.08594-.29687.29687-.08984.0586h-.08594l-.0625-.08594-.04297-.10547.03125-.11719.0586-.08984.02734-.11719-.01172-.13281-.08984-.0625-.10547.04688-.11719.02734-.11719.03125-.26953.17578-.10156.04688-.11719.02734-.10546.04687-.08985.0586-.10156.04297-.0586-.08594-.04687-.10547.01563-.13281.04687-.10547.07031-.07422.07422-.07031.0586-.08985v-.14843l-.04297-.10547h-.23829l-.10156.04687-.03125.11719-.02734.11719-.03125.1211-.07422.04296-.13281.01563-.07422-.04688-.04297-.10156-.04297-.10547-.04687-.10156-.04297-.10547-.1211.03125-.10156.04297-.13281.01562-.11719.03125-.10547.04297-.08984.0586-.10156.04687-.1211.02734-.13281.01563-.10156-.04297-.0586-.08985-.04687-.10546-.04297-.10157-.04297-.10546v-.1172l.0586-.08984.08593-.05859.17969-.11719.10156-.04687.10547-.04297.10547-.0586.10156-.04296.08985-.0625.10156-.04297.10547-.0586.10156-.04687.08984-.0586.10547-.04296.10156-.04297.08985-.0625.10156-.04297.13672-.01563.11719.03125.10156.04297.1211.03125.10156.04297.10546.04688.10157.04296.10547.04297.10156.04688.10547.04297.10156.04297.10547.04687.08594.0586.10546.04296.1172.03125.10546.04297.10156.04688.08985.0586.10547.04296.10156.04297.10547.04687.11719.02735.10156.04687.1211.02735h.14843l.08594-.0586.01562-.10156.0586-.08984-.02735-.1172-.07422-.07421-.11719-.17969-.07421-.07422-.08985-.07421-.17969-.1172-.08593-.05859-.10547-.04296-.10156-.04688-.26954-.17578-.05859-.08985-.07422-.07421-.0586-.08985-.04296-.10156-.03125-.11719-.01563-.13672v-.5625l-.01171-.1328-.01563-.13282-.03125-.11719-.01562-.13281-.01172-.13281-.03125-.1211-.22266-.22265-.0586-.08594-.01562-.10547.03125-.11719.13281-.01562v-91.41406H172.9922v1.45312l-.0586.23438-.35156 1.05078-.17187.52343-.1172.34766-.17577.41016-.11719.17187-.23438.29297-.23046.0586h-.35157l-.11718.05859-.23047.40625v.29297l.11719.17578.23046.23047.1172.23437.64062.75781.29297.46485.17578.23437.23047.35156.23437.34766.64063.8164.17578.46485.17187.41016.11719.69531.17578.46875.11719 1.39844.0586.46484v.875l.11718 1.04688v4.78125l-.0586.46484-.35156 1.28125-.17578.52344-.11328.41015-.35156.9297L172.93359 336l-.23437.58203-.11719.17578-.17187.34766-.17578.40625-.35157.8164-.0586.29297-.11327.29297-.11719.28906-.0586.17579-.11718.875-.0586.40625-.05859.11718-.0586.17579-.05859.17187-.23047.52734-.11718.17188v.23437l-.11719.23438-.0586.17187-.17577.58594v.28906l-.0586.17579v.29296l-.0586.11329-.05859.52734v.17187l-.05468.23438v2.6211l-.17578.8164-.1172.17578-.17577.23438-.1172.17187-.11327.23438-.58594.93359-.23047.28906-.29297.46485-.17578.23437-.28906.35156-.35156.69922-.11328.23047-.17579.41016-.17578.23046-.40625.52735-.8164.69922-.29297.17187-.28906.23438-.17579.11719-.17578.17578-.52344.40625-.52734.17578-.17187.17578-.23438.05469-.64062.17578h-.75782m12.21094 31.02344l-1.07422.44921.35938.89454 1.25-.71485.44531-.53906-.98047-.08985"/><path fill="#d3d3d3" fill-opacity="0" fill-rule="evenodd" d="M201.50781 416.59766h-.89453l.44922.6289.98047.35938.80469-.08985.4453-.98828-.17577.08985-.71485-.35547-.89453.35547m154.6211 59.0703l-.0586-.52343v-.29297l.11328-.29297.0586-.23046.46875-.46875h.11328l.11719-.11329.11718-.05859h.17579l.23437-.0586h.34766l.23437.0586.11719.0586.23047.17187.0586.17578.11718.58203v.29297l-.11719.17578-.17187.28906-.17579.17579-.52734.52343-.23047.23438-.11719.0586h-.17578l-.11718-.0586-.40625-.29297-.17579-.11719-.11718-.0586-.0586-.11327-.05468-.1172m6.64062-10.95702l-.0586-.17188v-1.10937l.0586-.17188.17578-.0586.17188-.05858h.17578l.23437-.0586.1172.0586.05858.69921-.05859.17188-.11719.17578-.11718.0586-.23438.52343-.11328.0586h-.23438l-.05859-.1172m9.61328-14.39062l-.11719-.17578v-.69922l.29297-.875.1172-.17187.17577-.35156.11328-.23047.1172-.29297.35155-.75781.1172-.23047.17187-.23438h.17578l.11719-.0586h.64062l.11719.0586.23437.23438.17188.11328.35156.29297.11719.11718.11328.17579v.11328l.11719.05859.11718.11719v.69922l-.05859.17578v.23047l-.0586.17578-.34765 1.05078-.11719.23047-.11719.23437-.11718.0586-.23047.23437-.64063.28906h-.875l-.41015-.11718-.64063-.46485"/><path fill="none" stroke="#bebebe" stroke-linecap="round" stroke-linejoin="round" stroke-miterlimit="10" stroke-width=".5" d="M467.95703 311.69531H144.02734v168.625h323.9297v-168.625"/><g clip-path="url(#a)"><path fill="#fff" fill-opacity="0" fill-rule="evenodd" d="M144 475.89063v4.4375h.0039H144V311.67188h.0039H144v164.21875"/></g><g clip-path="url(#b)"><path fill="#fff" fill-opacity="0" fill-rule="evenodd" d="M144.0039 480.32813V311.67188h66.57032V432.5l-4.4375 3.07031-.26563.375-2.32812 4.4375-1.84375 4.39844-.03516.03906.03516.03516 4.4375 1.82031 4.4375-.23828 2.13281-1.61719.03906-4.4375 2.26953-1.71094 2.29297-2.72656-2.29297-2.57031-4.4414-.875V311.67187h22.1914v121.23047l-3.375 3.04297 3.375 3.09375 2.87891-3.09375-2.8789-3.04297V311.67188h142.02734v132.88671l-.5039.26172.39452 4.4414.10938.07813.10547-.07812.40625-4.4414-.51172-.26173V311.67188h8.8789v140.5625l-1.59765 1.46484.4375 4.4375 1.16015 3.64844.32032.78906 4.11719 2.28906 2.93359-2.28906-2.9336-3.88281-1.26562-.5547-.98438-4.4375-2.1875-1.46483v-140.5625h84.32422v168.65625h-71.51562l-3.9336-3.8125-4.4375-.22266-3.57421 4.03515H144.0039"/></g><path fill="#50fcfc" fill-rule="evenodd" d="M201.69922 444.85547l-.03516-.03516.03516-.03906 1.84375-4.39844 2.32812-4.4375.26563-.375 4.4375-3.07031v3.13672l-.40625.3086.40625.46484.52734-.46485-.52734-.3086V432.5l4.4414.875 2.29297 2.57031-2.29297 2.72656-2.26953 1.71094-.03906 4.4375-2.13281 1.61719-4.4375.23828-4.4375-1.82031"/><path fill="#00e8fc" fill-rule="evenodd" d="M210.57422 436.41016l-.40625-.46485.40625-.3086.52734.3086-.52734.46485"/><path fill="#50fcfc" fill-rule="evenodd" d="M232.76563 439.03906l-3.375-3.09375 3.375-3.04297v2.96094l-.08985.08203.08984.08594.08204-.08594-.08203-.08203v-2.96094l2.8789 3.04297-2.8789 3.09375"/><path fill="#00e8fc" fill-rule="evenodd" d="M232.76563 436.03125l-.08985-.08594.08984-.08203.08204.08203-.08203.08594"/><path fill="#50fcfc" fill-rule="evenodd" d="M374.6836 449.26172l-.39454-4.4414.5039-.26173.51173.26172-.40625 4.4414-.10547.07813-.10938-.07812m7.82813 8.875l-.4375-4.4375 1.59765-1.46485 2.1875 1.46485.98438 4.4375 1.26563.55469 2.93359 3.8828-2.9336 2.28907-4.11718-2.28906-.32031-.78906-1.16016-3.64844"/><g clip-path="url(#c)"><path fill="#50fcfc" fill-rule="evenodd" d="M384.53516 480.32813h1.64062l1.9336-2.1836 4.4375-.34375 2.60937 2.52735h1.32422l-3.9336-3.8125-4.4375-.22266-3.57421 4.03515"/></g><g clip-path="url(#d)"><path fill="#00e8fc" fill-rule="evenodd" d="M386.17578 480.32813h4.67969l1.6914-.38672.39844.38671h2.21094l-2.60938-2.52734-4.4375.34375-1.93359 2.1836"/></g><g clip-path="url(#e)"><path fill="#00d4fc" fill-rule="evenodd" d="M390.85547 480.32813l1.6914-.38672.39844.38671h-2.08984"/></g><g clip-path="url(#f)"><path fill="#fff" fill-opacity="0" fill-rule="evenodd" d="M467.9961 480.32813H468V311.67188h-.0039H468v168.65625h-.0039"/></g><g clip-path="url(#g)"><path fill="none" stroke="#000" stroke-linecap="round" stroke-linejoin="round" stroke-miterlimit="10" stroke-width=".5" d="M147.51172 480.375l-7.02344-.09375"/></g><g clip-path="url(#h)"><path fill="none" stroke="#000" stroke-linecap="round" stroke-linejoin="round" stroke-miterlimit="10" stroke-width=".5" d="M147.51172 480.375l1.125 2.17969"/></g><g clip-path="url(#i)"><path fill="none" stroke="#000" stroke-linecap="round" stroke-linejoin="round" stroke-miterlimit="10" stroke-width=".5" d="M160.82813 480.3125l-7.02735.03125"/></g><g clip-path="url(#j)"><path fill="none" stroke="#000" stroke-linecap="round" stroke-linejoin="round" stroke-miterlimit="10" stroke-width=".5" d="M160.82813 480.3125l1.16015 2.16406"/></g><g clip-path="url(#k)"><path fill="none" stroke="#000" stroke-linecap="round" stroke-linejoin="round" stroke-miterlimit="10" stroke-width=".5" d="M174.1289 480.02734l-7 .60157"/></g><g clip-path="url(#l)"><path fill="none" stroke="#000" stroke-linecap="round" stroke-linejoin="round" stroke-miterlimit="10" stroke-width=".5" d="M174.1289 480.02734l1.33594 2.0586"/></g><g clip-path="url(#m)"><path fill="none" stroke="#000" stroke-linecap="round" stroke-linejoin="round" stroke-miterlimit="10" stroke-width=".5" d="M187.42578 479.83984l-6.96094.98047"/></g><g clip-path="url(#n)"><path fill="none" stroke="#000" stroke-linecap="round" stroke-linejoin="round" stroke-miterlimit="10" stroke-width=".5" d="M187.42578 479.83984l1.4414 1.98438"/></g><g clip-path="url(#o)"><path fill="none" stroke="#000" stroke-linecap="round" stroke-linejoin="round" stroke-miterlimit="10" stroke-width=".5" d="M200.71094 479.67188l-6.90235 1.3125"/></g><g clip-path="url(#p)"><path fill="none" stroke="#000" stroke-linecap="round" stroke-linejoin="round" stroke-miterlimit="10" stroke-width=".5" d="M200.71094 479.67188l1.53906 1.91406"/></g><g clip-path="url(#q)"><path fill="none" stroke="#000" stroke-linecap="round" stroke-linejoin="round" stroke-miterlimit="10" stroke-width=".5" d="M213.91797 479.24219l-6.6836 2.17187"/></g><g clip-path="url(#r)"><path fill="none" stroke="#000" stroke-linecap="round" stroke-linejoin="round" stroke-miterlimit="10" stroke-width=".5" d="M213.91797 479.24219l1.76562 1.70312"/></g><g clip-path="url(#s)"><path fill="none" stroke="#000" stroke-linecap="round" stroke-linejoin="round" stroke-miterlimit="10" stroke-width=".5" d="M227.08203 478.86328l-6.38281 2.9336"/></g><g clip-path="url(#t)"><path fill="none" stroke="#000" stroke-linecap="round" stroke-linejoin="round" stroke-miterlimit="10" stroke-width=".5" d="M227.08203 478.86328l1.95313 1.48438"/></g><g clip-path="url(#u)"><path fill="none" stroke="#000" stroke-linecap="round" stroke-linejoin="round" stroke-miterlimit="10" stroke-width=".5" d="M226.15234 479.28906l.97657.74219"/></g><g clip-path="url(#v)"><path fill="none" stroke="#000" stroke-linecap="round" stroke-linejoin="round" stroke-miterlimit="10" stroke-width=".5" d="M240.33984 478.74219l-6.26953 3.17187"/></g><g clip-path="url(#w)"><path fill="none" stroke="#000" stroke-linecap="round" stroke-linejoin="round" stroke-miterlimit="10" stroke-width=".5" d="M240.33984 478.74219l2.00782 1.41406"/></g><g clip-path="url(#x)"><path fill="none" stroke="#000" stroke-linecap="round" stroke-linejoin="round" stroke-miterlimit="10" stroke-width=".5" d="M239.42969 479.20313l1 .70703"/></g><g clip-path="url(#y)"><path fill="none" stroke="#000" stroke-linecap="round" stroke-linejoin="round" stroke-miterlimit="10" stroke-width=".5" d="M253.61328 478.66016L247.42968 482"/></g><g clip-path="url(#z)"><path fill="none" stroke="#000" stroke-linecap="round" stroke-linejoin="round" stroke-miterlimit="10" stroke-width=".5" d="M253.61328 478.66016l2.04297 1.35547"/></g><g clip-path="url(#A)"><path fill="none" stroke="#000" stroke-linecap="round" stroke-linejoin="round" stroke-miterlimit="10" stroke-width=".5" d="M252.71094 479.14453l1.02344.67969"/></g><g clip-path="url(#B)"><path fill="none" stroke="#000" stroke-linecap="round" stroke-linejoin="round" stroke-miterlimit="10" stroke-width=".5" d="M267.00781 478.8164l-6.34375 3.02344"/></g><g clip-path="url(#C)"><path fill="none" stroke="#000" stroke-linecap="round" stroke-linejoin="round" stroke-miterlimit="10" stroke-width=".5" d="M267.00781 478.8164l1.97266 1.46094"/></g><g clip-path="url(#D)"><path fill="none" stroke="#000" stroke-linecap="round" stroke-linejoin="round" stroke-miterlimit="10" stroke-width=".5" d="M280.35938 478.89844l-6.41797 2.86328"/></g><g clip-path="url(#E)"><path fill="none" stroke="#000" stroke-linecap="round" stroke-linejoin="round" stroke-miterlimit="10" stroke-width=".5" d="M279.42578 479.3125l.96875.7539"/></g><g clip-path="url(#F)"><path fill="none" stroke="#000" stroke-linecap="round" stroke-linejoin="round" stroke-miterlimit="10" stroke-width=".5" d="M293.66797 478.88281l-6.40235 2.89063"/></g><g clip-path="url(#G)"><path fill="none" stroke="#000" stroke-linecap="round" stroke-linejoin="round" stroke-miterlimit="10" stroke-width=".5" d="M292.73438 479.30469l.97265.75"/></g><g clip-path="url(#H)"><path fill="none" stroke="#000" stroke-linecap="round" stroke-linejoin="round" stroke-miterlimit="10" stroke-width=".5" d="M306.96484 478.83984l-6.36718 2.97657"/></g><g clip-path="url(#I)"><path fill="none" stroke="#000" stroke-linecap="round" stroke-linejoin="round" stroke-miterlimit="10" stroke-width=".5" d="M306.03906 479.27344l.98047.73828"/></g><g clip-path="url(#J)"><path fill="none" stroke="#000" stroke-linecap="round" stroke-linejoin="round" stroke-miterlimit="10" stroke-width=".5" d="M320.36719 479.05078l-6.54297 2.55469"/></g><g clip-path="url(#K)"><path fill="none" stroke="#000" stroke-linecap="round" stroke-linejoin="round" stroke-miterlimit="10" stroke-width=".5" d="M331.28516 476.92578l-1.75 6.80469"/></g><g clip-path="url(#L)"><path fill="none" stroke="#000" stroke-linecap="round" stroke-linejoin="round" stroke-miterlimit="10" stroke-width=".5" d="M341.41797 477.67969l4.61328 5.30078"/></g><path fill="none" stroke="#000" stroke-linecap="round" stroke-linejoin="round" stroke-miterlimit="10" stroke-width=".5" d="M342.08984 478.44922l.44141-1.14453"/><g clip-path="url(#M)"><path fill="none" stroke="#000" stroke-linecap="round" stroke-linejoin="round" stroke-miterlimit="10" stroke-width=".5" d="M355.35156 477.2461l3.3789 6.16406"/></g><path fill="none" stroke="#000" stroke-linecap="round" stroke-linejoin="round" stroke-miterlimit="10" stroke-width=".5" d="M355.84375 478.14453l.67188-1.02734"/><g clip-path="url(#N)"><path fill="none" stroke="#000" stroke-linecap="round" stroke-linejoin="round" stroke-miterlimit="10" stroke-width=".5" d="M367.80078 477.91797l5.11328 4.82031"/></g><path fill="none" stroke="#000" stroke-linecap="round" stroke-linejoin="round" stroke-miterlimit="10" stroke-width=".5" d="M368.54297 478.6211l.32422-1.1836"/><g clip-path="url(#O)"><path fill="none" stroke="#000" stroke-linecap="round" stroke-linejoin="round" stroke-miterlimit="10" stroke-width=".5" d="M380.66406 478.51172l6.01563 3.63281"/></g><path fill="none" stroke="#000" stroke-linecap="round" stroke-linejoin="round" stroke-miterlimit="10" stroke-width=".5" d="M381.53906 479.04297l.0664-1.22656"/><g clip-path="url(#P)"><path fill="none" stroke="#000" stroke-linecap="round" stroke-linejoin="round" stroke-miterlimit="10" stroke-width=".5" d="M393.92969 478.59766l6.11328 3.46093"/></g><g clip-path="url(#Q)"><path fill="none" stroke="#000" stroke-linecap="round" stroke-linejoin="round" stroke-miterlimit="10" stroke-width=".5" d="M407.5625 478.125l5.47656 4.40625"/></g><g clip-path="url(#R)"><path fill="none" stroke="#000" stroke-linecap="round" stroke-linejoin="round" stroke-miterlimit="10" stroke-width=".5" d="M424.26172 476.875l-1.28906 6.90625"/></g><g clip-path="url(#S)"><path fill="none" stroke="#000" stroke-linecap="round" stroke-linejoin="round" stroke-miterlimit="10" stroke-width=".5" d="M440.4336 480.05078l-7.00391.5586"/></g><g clip-path="url(#T)"><path fill="none" stroke="#000" stroke-linecap="round" stroke-linejoin="round" stroke-miterlimit="10" stroke-width=".5" d="M453.73438 480.7461l-6.97657-.83594"/></g><g clip-path="url(#U)"><path fill="none" stroke="#000" stroke-linecap="round" stroke-linejoin="round" stroke-miterlimit="10" stroke-width=".5" d="M466.63281 482.03125l-6.14453-3.40625"/></g><g clip-path="url(#V)"><path fill="none" stroke="#000" stroke-linecap="round" stroke-linejoin="round" stroke-miterlimit="10" stroke-width=".5" d="M147.5039 467.29297l-7.0078-.55469"/></g><path fill="none" stroke="#000" stroke-linecap="round" stroke-linejoin="round" stroke-miterlimit="10" stroke-width=".5" d="M147.5039 467.29297l.97657 2.25m12.33984-2.3125l-7.01172-.4336m7.01172.4336l1.01563 2.23437m-2.03516-2.29687l.50781 1.11719m13.83594-1.30079l-7.02734.0586m7.02734-.0586l1.16797 2.16016m-2.1914-2.15234l.58593 1.08203m13.74219-1.3164l-7.00781.51171m7.0078-.51172l1.3086 2.07422m-2.32812-2l.65234 1.03516m13.66797-1.25l-6.98047.79297m6.98047-.79297l1.39063 2.02344m-2.40625-1.91016l.6953 1.01172m13.53907-1.64453l-6.78516 1.83203m6.78516-1.83203l1.67578 1.79297m-2.66406-1.52735l.83984.89844m13.23047-1.78516l-6.32031 3.07422m6.32031-3.07422l1.98438 1.4414m-2.90625-.99608l.99218.72265m13.0586-1.5039l-5.94531 3.74609m5.9453-3.7461l2.12891 1.21876m-2.99609-.67188l1.0664.60938m13.10548-1.17188l-5.92579 3.77734m5.92578-3.77734l2.13672 1.20703m-3-.65625l1.06641.60156M266.71484 465l-5.7578 4.02734M266.71483 465l2.1875 1.11719m-3.02343-.53125l1.08984.5586m12.73828-1.54298l-5.10937 4.82422m5.10937-4.82422l2.32422.78516m-3.07031-.08203l1.16406.39062m12.4414-1.4961l-4.20312 5.62892m4.20313-5.62891l2.42578.3711m10.8164-.42579l-4.05468 5.73828m4.05468-5.73828l2.4336.3086m10.46484-.5625l-3.22265 6.24609m3.22265-6.2461l2.45313-.03124m10.6875-.05079l-2.875 6.41016m2.875-6.41016l2.44922-.16406m10.4453.0039l-2.03124 6.73048m2.03125-6.73047l2.40625-.47656m10.1875.33984l-.58985 7.0039m.58985-7.0039l2.2539-.96484m9.19922 1.32421l3.13672 6.28516m-2.67969-5.3711l.71094-1m10.46094 1.90235l6.50781 2.65234m-5.5625-2.26562l-.125-1.22266m15.44922-1.33984l.59766 7.0039m-.51172-5.98437l1.03125-.66406m12.91406-.34375l-.83203 6.98047m.71094-5.96485l1.14062-.4414m13.42578-.23828l-3.09375 6.30859m3.09375-6.3086l2.45313-.08203m9.42578-.27343l-.22266 7.02343m.22266-7.02343l2.20312-1.08594m14.0547 2.85937L447.1914 468.75m6.10937-3.47266l2.07422 1.31641m11.6875.70703l-7.0039-.57422"/><g clip-path="url(#W)"><path fill="none" stroke="#000" stroke-linecap="round" stroke-linejoin="round" stroke-miterlimit="10" stroke-width=".5" d="M467.0625 467.30078l.97266 2.2539"/></g><g clip-path="url(#X)"><path fill="none" stroke="#000" stroke-linecap="round" stroke-linejoin="round" stroke-miterlimit="10" stroke-width=".5" d="M147.42188 454.4961l-6.84375-1.59376"/></g><path fill="none" stroke="#000" stroke-linecap="round" stroke-linejoin="round" stroke-miterlimit="10" stroke-width=".5" d="M147.42188 454.4961l.6289 2.37109m12.72266-2.54688l-6.91797-1.24219m6.91797 1.2422l.75 2.33593m-1.75781-2.51563l.375 1.16797m13.97265-1.14453l-6.96484-.92969m6.96484.9297l.85547 2.29687m-1.8711-2.4336l.4297 1.15235m13.92968-1.53125l-7.02344.10156m7.02344-.10156l1.1836 2.14843m-2.20313-2.1328l.58984 1.07421m13.72657-1.40234l-6.98828.72656m6.98828-.72656l1.37109 2.03515m11.72656-2.9453l-6.55078 2.54687m6.55078-2.54688l1.85547 1.60156m11.375-1.79297l-6.38672 2.9297m6.38672-2.9297l1.95313 1.48829m11.32812-1.5625l-6.3164 3.07812m6.3164-3.07812l1.98438 1.4453m11.10156-1.85155l-5.85547 3.88672m5.85547-3.88672l2.15625 1.17187m10.85937-1.55469l-5.26172 4.65625m5.26172-4.65625l2.30078.85938m10.91797-.96484l-5.0664 4.86718m5.0664-4.86719l2.33203.76563m-3.0664-.0586l1.16406.38282m13.05078-.90625l-5.39844 4.5m5.39844-4.5l2.27344.92578m-3.0586-.26953l1.13672.46094m13.13282-.89844l-5.73438 4.0586m5.73438-4.0586l2.1914 1.10547m-3.02343-.51172l1.09375.55078m12.58203-1.6836l-4.79297 5.13673m4.79297-5.13672l2.3711.63672m10.26952-1.12891l-3.4414 6.125m3.4414-6.125l2.45313.05469m10.35156-.29297l-2.42188 6.59765m2.42188-6.59765l2.42969-.33594m10.45703.21094l-1.5664 6.85156m1.5664-6.85156l2.36719-.64063m10.97265.64453l-1.61719 6.83985m1.6172-6.83985l2.37109-.62109m10.68359.57031l-1.09375 6.9414m1.09375-6.9414l2.3164-.80078m12.35157 1.3164l-3.80078 5.91016m3.25-5.04687l1.22265.10156m13.25782-.46094l-5.03125 4.90625m4.30078-4.1914l1.16797.3711m11.5664-1.9336L422.41406 457m2.05469-5.64063l1.21484-.17187m12.73047-.67578l-2.96484 6.375m2.53125-5.44531l1.22656-.06641m13.625-.05469l-5.17187 4.75781m4.41796-4.0664l1.16016.40625m13.69531.29297l-6.74218 1.97656M465.95312 453l.85547.875"/><g clip-path="url(#Y)"><path fill="none" stroke="#000" stroke-linecap="round" stroke-linejoin="round" stroke-miterlimit="10" stroke-width=".5" d="M147.36719 441.3789l-6.73438-1.99218"/></g><path fill="none" stroke="#000" stroke-linecap="round" stroke-linejoin="round" stroke-miterlimit="10" stroke-width=".5" d="M147.36719 441.3789l.49219 2.40626m12.82812-2.41797l-6.7461-1.96485m6.7461 1.96485l.5 2.40234m-1.48047-2.6875l.25 1.19922m14.07031-1l-6.79297-1.79688m6.79297 1.79688l.5586 2.39063m12.82812-2.73047l-6.9375-1.1172m6.9375 1.1172l.79297 2.3203m12.5664-2.92968l-7.02734.10156m6.00391-.08593l.59375 1.07422m13.72266-1.44922l-6.98047.82422m5.96484-.70704l.69922 1.00782m13.09375-2.6172l-5.90625 3.8086m5.04688-3.25781l1.0703.60156m12.25391-2.0625l-4.20703 5.6289m4.20703-5.6289l2.42578.3711m9.04297-1.0625l-.51172 7.0078m.51172-7.0078l2.2422-.9922m12.3828 1.35157l-3.1328 6.28906m3.1328-6.28906l2.44922-.0664m11.53125.5l-4.46484 5.42578m4.46484-5.42579l2.40625.48438m10.3711-.85156l-3.39063 6.15625m3.39063-6.15625l2.45312.03906m11.45313.3711l-4.57032 5.33593m4.57032-5.33594l2.39453.53516m10.9961-.46875l-4.72267 5.20312m4.72266-5.20312l2.3789.60547m10.90235-.63672l-4.65625 5.26562m4.65625-5.26562l2.38672.57422m11.32031-.16406l-5.4375 4.44921m5.4375-4.44921l2.26172.9453m9.25-2.11327l-1.83203 6.78515m1.5664-5.80078l1.19532-.27344m11.41797-.83203l.10547 7.02735m-.10547-7.02735l2.14843-1.18359m14.33985 6.3086l-6.24219-3.22657M400.5 440.4922l-7.02734-.21875m6.0039.1875l.54297 1.10156m13.58594-2.3789L407 441.58202m5.64453-2.04687l.91016.8203m13.29297-1.35155l-6.46485 2.7578m6.46485-2.7578l1.91015 1.54296m11.57422-1.05468l-6.80078 1.78125m6.80078-1.78125l1.66016 1.80469m11.6211-1.92579l-6.73048 2.02344m6.73047-2.02344l1.72656 1.7461m11.45313-2.11328l-6.46094 2.76171"/><g clip-path="url(#Z)"><path fill="none" stroke="#000" stroke-linecap="round" stroke-linejoin="round" stroke-miterlimit="10" stroke-width=".5" d="M466.79297 439.0039l1.91015 1.53907"/></g><g clip-path="url(#aa)"><path fill="none" stroke="#000" stroke-linecap="round" stroke-linejoin="round" stroke-miterlimit="10" stroke-width=".5" d="M147.20313 428.51563l-6.40625-2.89454"/></g><path fill="none" stroke="#000" stroke-linecap="round" stroke-linejoin="round" stroke-miterlimit="10" stroke-width=".5" d="M147.20313 428.51563l.15625 2.44921m13.19921-2.54687l-6.48828-2.69922m6.48828 2.69922l.23047 2.44531m13.21875-2.82812l-6.75781-1.9336m6.75781 1.9336l.51172 2.39843m12.83594-2.51562l-6.82031-1.69922m6.8203 1.69922l.59376 2.3789m12.82422-3.17187l-7.02735-.11328m6.00391.09765l.5586 1.08985m13.55859-2.35938l-6.58203 2.45703m6.58203-2.45703l1.83594 1.625m10.5-3.04297l-4.625 5.29297m3.95312-4.52343l1.19531.28125m13.33203-.45704l-5.70312 4.10547m4.8711-3.5078l1.10155.54296m12.34766-1.86328l-4.3125 5.55078m3.6836-4.74219l1.21093.21094m12.53125-1.16406l-3.90625 5.83984m3.33594-4.99219l1.22266.125m12.8789-.8164l-4.33984 5.52734m3.70703-4.72266l1.20703.21485m11.3086-1.6914l-1.47657 6.87109m1.26172-5.8711l1.17969-.33594m13.34375-.28515l-3.46094 6.11328m2.95703-5.22656l1.22657.03515m11.41015-1.33593l-1.09375 6.9414m1.09375-6.9414l2.3164-.80079m13.02345 1.87891l-5.14454 4.78516m5.14454-4.78516l2.3164.80078m11.54688-.01953l-6.2422 3.22266m5.33595-2.7539l1.0078.69921m13.39063-.76563l-6.59765 2.41797m6.59765-2.41797l1.82813 1.64063m10.60547-2.98047l-4.83594 5.09766m4.83594-5.09766l2.36328.65234m11.1875-.40625l-5.3086 4.60547m5.3086-4.60547l2.29297.88282m11.86328 1.78906l-6.98828-.73828m6.98828.73828l.91797 2.27734m12.2539-3.70312l-6.70312 2.11328m6.70312-2.11328l1.75 1.71875m-2.72656-1.41016l.875.85938m13-2.04297L420.6836 429m5.8672-3.86328l2.15234 1.17578m-3.00782-.61328l2.15625 1.17578m12.16407-1.49219l-6.16797 3.3711m6.16797-3.3711l2.04687 1.34766m-2.94531-.85547l1.02344.67187m13.0625-1.3789l-5.91016 3.80078m5.91016-3.80078l2.14062 1.19922m11.57813-.32422l-6.71875 2.05078"/><g clip-path="url(#ab)"><path fill="none" stroke="#000" stroke-linecap="round" stroke-linejoin="round" stroke-miterlimit="10" stroke-width=".5" d="M466.92188 426.04297l1.73437 1.73437"/></g><g clip-path="url(#ac)"><path fill="none" stroke="#000" stroke-linecap="round" stroke-linejoin="round" stroke-miterlimit="10" stroke-width=".5" d="M147.17188 415.26172l-6.34375-3.01563"/></g><path fill="none" stroke="#000" stroke-linecap="round" stroke-linejoin="round" stroke-miterlimit="10" stroke-width=".5" d="M147.17188 415.26172l.11328 2.44922m13.1953-2.4336l-6.33202-3.05078m6.33203 3.05078l.09766 2.45313m13.36718-2.82031l-6.63281-2.31641m5.66797 1.98047l.1875 1.21484m14.17969-2.90625l-6.8047 1.74219m5.81642-1.48828l.82421.90625m13.08985-2.09766l-6.02735 3.61719m6.02735-3.61719l2.10156 1.26563m11.36328-.98438l-6.32812 3.05469m5.41015-2.61328l.98828.72656m12.75391-1.92578l-5.34375 4.5664m4.5664-3.89843l1.14063.44922m13.3789-.49219l-6.1953 3.3164m5.29296-2.83202l1.01953.68359M253.8047 412.5l-6.5664 2.5039m5.60937-2.13671l.92578.80469m13.28906-1.3086l-6.45313 2.78125m5.51563-2.375l.95703.76563m12.94531-1.80078l-5.75 4.03906m4.91016-3.45313l1.09375.5586m12.97656-1.26172l-5.58203 4.26953m4.76953-3.64844l1.11328.51172m12.58594-1.59766l-4.72656 5.20313m4.03906-4.44531l1.1875.30078m13.26172-.5664l-5.6211 4.21874m5.6211-4.21875l2.22266 1.04297m11.63672.01953l-6.71094 2.08985m5.73437-1.78516l.8711.86328m13.41406.9414l-6.69922-2.125m6.69922 2.125l.44531 2.41407m12.89063-4.48047l-6.73438 2.00781m6.73438-2.00781l1.72265 1.7461m11.3125-2.41407l-6.17968 3.34375m6.17968-3.34375l2.04688 1.35547m10.9961-1.78516l-5.63282 4.20313m5.63281-4.20313l2.21875 1.04688m-3.03906-.4336l1.10937.52344m13.1836-.90234l-5.94922 3.73437m5.94922-3.73437l2.1289 1.21875m-2.99218-.67578l1.0625.60937m13.08984-1.19922l-5.89453 3.82422m5.89453-3.82422l2.14453 1.19141m-3.0039-.63281l1.07421.59375m13.03125-1.2539l-5.7578 4.03124m5.7578-4.03125l2.1836 1.11328m-3.02344-.52734l1.09375.5586m13.41797-.4961l-6.47266 2.73437m6.47266-2.73437l1.90234 1.55078m11.40625-1.5625l-6.46093 2.75781m6.46093-2.75781l1.91016 1.53906m-2.84766-1.13672l.95313.76954m12.66015-2.16407l-5.18359 4.74219"/><g clip-path="url(#ad)"><path fill="none" stroke="#000" stroke-linecap="round" stroke-linejoin="round" stroke-miterlimit="10" stroke-width=".5" d="M466.15234 411.38281l2.3125.82031"/></g><g clip-path="url(#ae)"><path fill="none" stroke="#000" stroke-linecap="round" stroke-linejoin="round" stroke-miterlimit="10" stroke-width=".5" d="M147.10938 402.07422l-6.21875-3.26953"/></g><path fill="none" stroke="#000" stroke-linecap="round" stroke-linejoin="round" stroke-miterlimit="10" stroke-width=".5" d="M147.10938 402.07422l.01171 2.45312m13.34766-2.53906l-6.3086-3.09765m6.3086 3.09765l.07813 2.44922m13.58203-3.6875l-7-.6211m7 .6211l.95703 2.25781m12.01172-4.125l-6.3047 3.10938m6.3047-3.10938l1.98828 1.4336m11.34765-1.39063l-6.34375 3.02344m5.41797-2.58203l.98828.73047m13.30078-1.0625l-6.4414 2.80468m5.5039-2.39453l.96094.76172m13.375-.95703l-6.60937 2.3789m6.60937-2.3789l1.82031 1.64844m11.58985-1.34766l-6.80078 1.77735m6.80078-1.77735l1.66016 1.80469m11.71093-1.5586l-6.91015 1.28516m6.91015-1.28515l1.52735 1.91796m11.63672-2.47265l-6.60938 2.39062m6.60938-2.39062l1.8203 1.64844m11.38673-1.90625l-6.39453 2.91015m6.39453-2.91015l1.9453 1.49218m11.22657-1.77734l-6.10547 3.47656m6.10547-3.47656l2.07422 1.3125m10.63672-2.09375l-4.89844 5.03906m4.89844-5.03906l2.35547.6836m11.14062-.4922l-5.26172 4.65625m4.4961-3.97656l1.14844.42969m13.34375-.53906l-6.08204 3.51953m6.08204-3.51953l2.08203 1.29687m11.6914.14063l-7 .64453m5.98047-.55078l.67188 1.02344m13.48437-1.94532l-6.64453 2.29688m5.67578-1.96094l.89844.83594m13.07031-1.83594l-6.01562 3.6289m5.14062-3.10156l1.05469.62891m12.6914-1.7461l-5.125 4.8086m5.125-4.8086l2.32032.78907m-3.0664-.08985l1.16015.39454m13.32031-.54688l-5.96484 3.71094m5.96484-3.71094l2.125 1.23438m11.42578-.78516l-6.4375 2.8125m6.4375-2.8125l1.92578 1.52344m-2.85937-1.11328l.96094.76171m12.95703-1.76562l-5.77344 4.0039m5.77344-4.0039l2.17968 1.1211m-3.01953-.53907l1.08985.5625m13.08984-1.10547l-5.82422 3.92578m5.82422-3.92578l2.16797 1.15235m11.45703-.59375l-6.4414 2.80859m6.4414-2.8086l1.92188 1.52344m-2.85938-1.11718l.96094.76562m13.17969-1.40234l-6.21875 3.26953"/><g clip-path="url(#af)"><path fill="none" stroke="#000" stroke-linecap="round" stroke-linejoin="round" stroke-miterlimit="10" stroke-width=".5" d="M466.67188 398.80469l2.02734 1.3789"/></g><path fill="none" stroke="#000" stroke-linecap="round" stroke-linejoin="round" stroke-miterlimit="10" stroke-width=".5" d="M465.76563 399.27734l1.01562.69141"/><g clip-path="url(#ag)"><path fill="none" stroke="#000" stroke-linecap="round" stroke-linejoin="round" stroke-miterlimit="10" stroke-width=".5" d="M147.32422 388.26563l-6.64844-2.28516"/></g><path fill="none" stroke="#000" stroke-linecap="round" stroke-linejoin="round" stroke-miterlimit="10" stroke-width=".5" d="M146.35547 387.9336l.1914 1.21093m14.26563-1.6875l-6.9961-.66797m5.97657.57031l.47266 1.13282m13.70312-2.46094l-6.67578 2.1875m6.67578-2.1875l1.76953 1.69922m11.67969-1.13281l-6.94531 1.05078m6.9453-1.05078l1.46485 1.96875m11.71485-2.53516l-6.67578 2.1836m5.70703-1.8672l.8828.85157m13.54298-.5664l-6.95703.98046m6.95703-.98047l1.4414 1.98438m11.78125-2.42578l-6.77343 1.86328m6.77343-1.86328l1.6875 1.78125m11.48047-2.20704l-6.48047 2.71485m6.48047-2.71485l1.90235 1.5547m11.13672-2.08594l-5.92579 3.77734m5.92578-3.77735l2.13672 1.21094m11.3086-.98828l-6.1875 3.33203m6.1875-3.33203l2.03906 1.36328m11.22656-1.45312l-6.08594 3.51172m6.08594-3.51172l2.07813 1.30078m11.27344-1.23438l-6.16407 3.37891m6.16406-3.3789l2.05079 1.34765m10.8789-1.91016l-5.39062 4.50391m5.39062-4.5039l2.27344.92187m11.26953-.61719l-5.84765 3.89453m5.84765-3.89453l2.16016 1.16406m11.08984-1.2578l-5.71875 4.08202m5.71875-4.08203l2.19531 1.09375m11.08985-1.13672l-5.66016 4.16797m4.83985-3.5586l1.10546.53126m13.65235.28125l-6.90235 1.32422m6.90235-1.32422l1.53906 1.91015m11.69922-2.22265l-6.75 1.94922m6.75-1.94922l1.71094 1.76172m-2.69141-1.48047l.85156.88281m13.09375-1.97656l-6.05078 3.57422m6.05078-3.57422l2.09375 1.28125m11.17578-1.35547l-5.95703 3.72265m5.95703-3.72265l2.125 1.22656m11.14454-1.30078l-5.86329 3.8711m5.86329-3.8711l2.15234 1.17188m-3.00781-.60938l1.07812.58594m12.8711-1.44922l-5.42188 4.47265m5.42188-4.47265l2.26562.9375m11.03125-.95703l-5.38672 4.51172m5.38672-4.51172l2.27344.92187m11.52734-.16406l-6.35547 2.9961m6.35547-2.9961l1.96485 1.46875m11.52343-1.01953l-6.70703 2.10156"/><g clip-path="url(#ah)"><path fill="none" stroke="#000" stroke-linecap="round" stroke-linejoin="round" stroke-miterlimit="10" stroke-width=".5" d="M466.91406 386.07422l1.7461 1.72265"/></g><g clip-path="url(#ai)"><path fill="none" stroke="#000" stroke-linecap="round" stroke-linejoin="round" stroke-miterlimit="10" stroke-width=".5" d="M147.5039 374.05469l-7.0078-.49219"/></g><path fill="none" stroke="#000" stroke-linecap="round" stroke-linejoin="round" stroke-miterlimit="10" stroke-width=".5" d="M147.5039 374.05469l1 2.24219m12.26173-1.82032l-6.89844-1.33594m6.89844 1.33594l.71875 2.34375m12.63671-2.61719l-6.98047-.78906m6.98047.78906l.90235 2.28125m12.36328-1.97656L180.5 373.10937m6.88672 1.39844l.69922 2.35156m12.66406-2.66015l-6.98047-.78516m6.98047.78516l.90625 2.28125m12.40625-3.09375l-6.97656.84375m6.97656-.84375l1.40625 2.01172m11.57813-3.13672l-6.3125 3.09375m6.3125-3.09375l1.98828 1.4375m11.5039-1.00781l-6.66406 2.23437m6.66406-2.23437l1.77735 1.6914m11.49609-1.8086l-6.58203 2.46876m6.58203-2.46875l1.83594 1.625m11.32422-1.97656l-6.27344 3.17187m6.27344-3.17187l2.0039 1.41406m11.34766-1.33203l-6.34766 3.00781m6.34766-3.00781l1.96875 1.46094m11.48047-1.13672l-6.61719 2.35937m6.61719-2.35937l1.8125 1.65234m11.44922-1.79297l-6.51172 2.64063m6.51172-2.64063l1.8828 1.57422m11.39063-1.67969l-6.42578 2.85156m6.42578-2.85156l1.9297 1.51563m11.48046-1.27735l-6.61328 2.375m6.61328-2.375l1.8164 1.65235m11.58594-1.36719l-6.79296 1.80078m6.79296-1.80078l1.66797 1.80078m-2.65625-1.53515l.83594.89843m13.50781-1l-6.8711 1.47656m6.8711-1.47656l1.58203 1.875m-2.58203-1.66015l.78907.9375m13.48046-1.33985l-6.77734 1.85156m6.77734-1.85156l1.6797 1.78516m-2.66798-1.51563l.84375.89454m13.1875-1.86329l-6.23437 3.2461m6.23437-3.2461l2.01953 1.39063m-2.92968-.91797l1.01172.69531m13.20703-1.17187l-6.22266 3.25781m6.22266-3.25781l2.02734 1.38672m-2.92969-.91407l1.01172.69532m12.90235-1.65235l-5.6172 4.22266m5.6172-4.22266l2.22265 1.04297m-3.03906-.42578l1.10937.51953m13.15235-.95312l-5.875 3.85937m5.875-3.85937l2.15234 1.17968m10.98047-1.42968l-5.51172 4.35937m5.51172-4.35937l2.2461.98437m10.90234-1.17969l-5.17578 4.75m5.17578-4.75l2.3125.81641m11.32812-.40234l-5.83203 3.92187m4.98438-3.35156l1.08203.57812"/><g clip-path="url(#aj)"><path fill="none" stroke="#000" stroke-linecap="round" stroke-linejoin="round" stroke-miterlimit="10" stroke-width=".5" d="M147.51172 360.65234l-7.02344-.3164"/></g><path fill="none" stroke="#000" stroke-linecap="round" stroke-linejoin="round" stroke-miterlimit="10" stroke-width=".5" d="M147.51172 360.65234l1.05078 2.21485m-2.07422-2.26172l.52734 1.10547m13.6211-.07422l-6.64453-2.28906m6.64453 2.28906l.38281 2.42578m-1.34766-2.75781l.38282 2.42578m14.05469-2.73438l-6.95704-1.0039m6.95703 1.0039l.82813 2.3086m-1.83984-2.45703l.41406 1.15625m13.9336-1.19922l-7-.625m7 .625l.95312 2.26172m-1.97266-2.35157l.47656 1.12891m13.85157-.97656l-6.98828-.75m6.98828.75l.91406 2.27734m-1.92969-2.38672l.45703 1.14063m13.78906-2.2539l-6.8203 1.6953m6.8203-1.6953l1.64063 1.82421m11.46094-2.4375l-6.39063 2.92578m6.39063-2.92578l1.94922 1.48828m11.35156-1.51562l-6.36328 2.98046m6.36328-2.98046l1.96094 1.47265m11.30468-1.57422l-6.26562 3.1836m6.26562-3.1836l2.00782 1.40625m11.39453-1.22265l-6.4375 2.8164m6.4375-2.8164l1.92187 1.52344m11.63672-.71875l-6.92578 1.20312m6.92578-1.20313l1.5039 1.9375m11.8086-1.9375l-6.92187 1.20704m6.92187-1.20704l1.50781 1.9375m11.77735-2.08984l-6.85938 1.51172m6.85938-1.51172l1.59375 1.86719m11.73047-1.82813l-6.87891 1.4297m6.8789-1.4297l1.57032 1.88672m11.74219-1.89844l-6.875 1.45313m6.875-1.45313l1.57812 1.88282m11.76172-1.76172l-6.92187 1.21094m6.92187-1.21094l1.50781 1.9375m-2.51562-1.76172l.7539.96875m13.48829-1.49219l-6.76172 1.91016m6.76172-1.91016l1.69921 1.76953m-2.68359-1.49218l.85156.88671m13.46094-1.11718l-6.78906 1.8125m6.78906-1.8125l1.67188 1.79687m-2.66016-1.53125l.83594.89453m13.39453-1.39843l-6.64453 2.28906m6.64453-2.28906l1.79687 1.67578m-2.76172-1.33985l.89844.83594m13.38281-1.16797l-6.64453 2.28516m6.64453-2.28516l1.79297 1.67188m-2.75781-1.33985l1.79297 1.67579m12.45703-2.08985l-6.58594 2.44531m6.58594-2.4453l1.83594 1.6328m-2.79297-1.27734l1.83594 1.63281m12.3789-2.14062l-6.46875 2.75m6.46875-2.75l1.90625 1.54297m-2.84765-1.14063l.95312.76953m13.36719-1l-6.59766 2.41016m6.59766-2.41016l1.82812 1.64063m-2.78515-1.28906l.91015.8164m12.85157-2.10156l-5.57813 4.27734m5.57813-4.27734l2.23047 1.01953m-3.04297-.39844l1.11718.51172m12.7422-1.4414l-5.04298 4.89062"/><g clip-path="url(#ak)"><path fill="none" stroke="#000" stroke-linecap="round" stroke-linejoin="round" stroke-miterlimit="10" stroke-width=".5" d="M466.08203 358.04688l2.33594.7539"/></g><g clip-path="url(#al)"><path fill="none" stroke="#000" stroke-linecap="round" stroke-linejoin="round" stroke-miterlimit="10" stroke-width=".5" d="M147.50781 346.98438l-7.01562.38671"/></g><path fill="none" stroke="#000" stroke-linecap="round" stroke-linejoin="round" stroke-miterlimit="10" stroke-width=".5" d="M147.50781 346.98438l1.26953 2.10156m-2.28906-2.04297l.63281 1.05078m13.58985-.00781l-6.78906-1.8164m6.78906 1.8164l.55078 2.39062m-1.53906-2.65234l.27343 1.19531m14.10547-1.30078l-6.9414-1.08203m6.9414 1.08203l.80469 2.32031m-1.8164-2.47656l.40234 1.16016m13.91406-.9297l-6.92188-1.22655m6.92188 1.22656l.7539 2.33203m12.61329-2.84766l-7.02344-.19921m7.02344.19921l1.08984 2.19922m12.14453-3.05078l-6.86328 1.5039m6.86328-1.5039l1.58985 1.8711m11.625-2.23438l-6.66407 2.23438m6.66407-2.23438l1.78125 1.6875m11.39453-2.03906l-6.38672 2.9336m6.38672-2.9336l1.94922 1.48437m11.58203-.8711l-6.8164 1.70704m6.8164-1.70703l1.64453 1.82031m11.75-1.3711l-6.98047.8086m6.98047-.8086l1.39453 2.01954m11.9375-1.85547l-7.01172.48047m7.01172-.48047l1.29688 2.08203m12.02734-1.88672l-7.02735.09375m7.02735-.09375l1.17969 2.14844m12.1328-2.03125l-7.02343-.14453m7.02344.14453l1.10547 2.1914m-2.1289-2.21093l.55468 1.09375m13.78515-1.2461l-7.02734.19922m7.02735-.19921l1.21093 2.1328m-2.23437-2.10546l.60547 1.0664m13.65234-1.74609l-6.86328 1.50781m6.86328-1.5078l1.58984 1.86718m-2.58984-1.64844l.79688.9336m13.54687-1.01172l-6.92188 1.22265m6.92188-1.22265l1.51172 1.92968m-2.51953-1.7539l.7539.96875m13.60547-.86328l-6.9961.66015m6.9961-.66015l1.35156 2.05078m-2.37109-1.95313l.67578 1.02344m13.64453-1.2461l-6.96875.91016m6.96875-.91015l1.42188 2m-2.4336-1.8672l1.42188 1.9961m12.82813-2.53906l-6.8125 1.73047m6.8125-1.73047l1.64843 1.82031m-2.64062-1.5664l1.64844 1.8164m12.58984-2.30469l-6.67578 2.20313m6.67578-2.20313l1.77344 1.69532m-2.7461-1.375l1.77344 1.69531m12.47656-2.11719L407 348.37891m6.60156-2.40235l1.82422 1.64453m-2.78515-1.29296l1.82421 1.64062m12.38672-2.16016l-6.47265 2.73829m6.47265-2.73829l1.90625 1.54688m-2.84765-1.14844l1.90625 1.54688m12.2578-2.14844l-6.28515 3.14453m6.28516-3.14453l2 1.42578m-2.91406-.96875l2 1.42578m12.11718-2.08594l-6.0625 3.55079m6.0625-3.55079l2.08985 1.28907m-2.96875-.76954l2.08594 1.28516m12.09375-1.83203l-6.03125 3.60547"/><g clip-path="url(#am)"><path fill="none" stroke="#000" stroke-linecap="round" stroke-linejoin="round" stroke-miterlimit="10" stroke-width=".5" d="M466.57813 345.375l2.09765 1.26563"/></g><path fill="none" stroke="#000" stroke-linecap="round" stroke-linejoin="round" stroke-miterlimit="10" stroke-width=".5" d="M465.69922 345.89844l1.05078.63281"/><g clip-path="url(#an)"><path fill="none" stroke="#000" stroke-linecap="round" stroke-linejoin="round" stroke-miterlimit="10" stroke-width=".5" d="M147.20703 332.42578l-6.41406 2.875"/></g><path fill="none" stroke="#000" stroke-linecap="round" stroke-linejoin="round" stroke-miterlimit="10" stroke-width=".5" d="M147.20703 332.42578l1.9375 1.50781m11.67578-.30468l-7.01172.46875m7.01172-.46875l1.29297 2.08593m11.66406-.29296l-6.29687-3.1172m6.29687 3.1172l.07422 2.45312m13.09766-2.1914l-6.00781-3.64063m6.0078 3.64062l-.13671 2.44922m13.73828-3.03906l-6.58203-2.46094m6.58203 2.46094l.32422 2.42969m13.16016-3.05469l-6.92188-1.21094m6.92188 1.21094l.76172 2.33203m12.60546-2.9375H220.375m7.02734 0l1.15235 2.16797m12.16015-1.98438l-7.01953-.36718m7.01953.36719l1.03907 2.22265m12.26953-2.13281l-7.0039-.54688m7.0039.54688l.98047 2.25m12.33593-2.28906l-7.01172-.46875m7.01172.46875l1.00782 2.23828m12.3125-2.61719l-7.01954.28906m7.01954-.28906l1.24218 2.11719m12.07813-2.01953l-7.02734.09375m7.02734-.09375l1.17969 2.14843m12.03125-1.26171l-6.82422-1.6797m6.82422 1.6797l.60156 2.3789m12.72656-2.42969l-6.84765-1.57812m6.84765 1.57812l.63672 2.3672m12.69922-3.84376l-6.89063 1.375m6.89063-1.375l1.55469 1.89844m11.73828-2l-6.84766 1.57812m6.84766-1.57812l1.60937 1.85156m11.77735-1.42969l-6.98828.73047m6.98828-.73047l1.37109 2.03516m11.88672-2.39453l-6.875 1.44922m6.875-1.44922l1.57422 1.88281m-2.57422-1.67187l.78906.9414m13.08203-2.26953l-5.98437 3.6875m5.98437-3.6875l2.11719 1.23828m-2.98828-.70312l1.0586.6211M399.96483 332l-5.95703 3.72656M399.96484 332l2.125 1.22656m11.32813-.98437l-6.23438 3.24219m6.23438-3.2422l2.02344 1.39063m-2.9297-.91797l1.01173.69532m13.32031-.9336l-6.45703 2.77344m6.45703-2.77344l1.91406 1.53906m-2.85156-1.13671l.95703.76953m13.21485-1.35156l-6.29297 3.1328m6.29297-3.1328l1.99609 1.42578m-2.91406-.96875l2 1.42578m12.15234-2.03125l-6.13281 3.42969m6.13281-3.4297l2.0625 1.32813m-2.95312-.82812l2.0625 1.32812m12.09765-1.90625l-6.04297 3.58594"/><g clip-path="url(#ao)"><path fill="none" stroke="#000" stroke-linecap="round" stroke-linejoin="round" stroke-miterlimit="10" stroke-width=".5" d="M466.58203 332.07031l2.09766 1.27735"/></g><g clip-path="url(#ap)"><path fill="none" stroke="#000" stroke-linecap="round" stroke-linejoin="round" stroke-miterlimit="10" stroke-width=".5" d="M465.70313 332.59375l2.09765 1.27344"/></g><path fill="none" stroke="#000" stroke-linecap="round" stroke-linejoin="round" stroke-miterlimit="10" stroke-width=".5" d="M464.82422 333.11328l1.04687.63672"/><g clip-path="url(#aq)"><path fill="none" stroke="#000" stroke-linecap="round" stroke-linejoin="round" stroke-miterlimit="10" stroke-width=".5" d="M141.53125 318.04688l4.9375 5.0039"/></g><path fill="none" stroke="#000" stroke-linecap="round" stroke-linejoin="round" stroke-miterlimit="10" stroke-width=".5" d="M155.11719 317.8086l4.39844 5.48046m-3.76172-4.6836l.48437-1.1289m17.42188 4.85156l-6.0586-3.5625m17.61719 5.0547l-2.54688-6.54688m2.17579 5.59765l-.80078.9297m15.19921-.35157l-3.96875-5.80078m3.96875 5.80078l-1.13672 2.17187m15.15625-2.8125l-5.3828-4.51953m5.3828 4.51953l-.51171 2.39844m14.35156-3.2461l-6.4336-2.82421m6.4336 2.82422l.1836 2.44531m13.21484-2.65234l-6.59766-2.41407m6.59766 2.41407l.33984 2.42968m13.1289-2.98046l-6.90234-1.3125m6.90235 1.3125l.72656 2.34375m12.57031-2.26172l-6.8711-1.47657m6.8711 1.47657l.67188 2.35937m12.72265-3.21484l-7.02343.23437m7.02343-.23437l1.22266 2.1289m12.03125-2.65234l-6.90625 1.28516m6.90625-1.28516l1.53125 1.91797m11.78906-.65235l-6.91406-1.25m6.91406 1.25l.75 2.33594m12.55469-2.27344l-6.89453-1.37109m6.89453 1.3711l.70703 2.34765m12.60156-3.7539l-6.8789 1.4414m6.8789-1.4414l1.57032 1.8828m11.49218-2.63671l-6.3789 2.94922m6.3789-2.94922l1.95703 1.48047m11.05079-2.01953l-5.76172 4.02343m4.92187-3.4375l1.09375.5586m13.47656-.34766l-6.59375 2.4336m5.63282-2.08204l.91797.82032m12.46484-2.51954l-4.80469 5.125m4.80469-5.125l2.36719.64063m10.67968-.86719l-4.26953 5.57813M398.5 318.5703l1.21094.19922m11.05078-1.70312l-.91797 6.96484m.78516-5.95313l1.14843-.42968m10.03907-.11719l3.60156 6.03516m-3.07813-5.15625l.63672-1.05079m17.35157 2.28516l-6.79297 1.80469m19.79297-2.58985l-6.16016 3.37891m6.16016-3.3789l2.05078 1.34375m-2.94922-.85157l1.02734.67188m12.61328-1.9375l-5.01562 4.92187"/><g clip-path="url(#ar)"><path fill="none" stroke="#000" stroke-linecap="round" stroke-linejoin="round" stroke-miterlimit="10" stroke-width=".5" d="M466.07031 318.08594l2.33985.73828"/></g><path fill="none" stroke="#000" stroke-linecap="round" stroke-linejoin="round" stroke-miterlimit="10" stroke-width=".5" d="M465.33984 318.80078l2.33985.74219m-3.07031-.02344l1.17187.36719"/><path fill="#ff3030" fill-rule="evenodd" d="M455.50781 467.64844h7.6914V457.5039h-7.6914v10.14453"/><path fill="azure" fill-rule="evenodd" d="M457.33984 459.33594h.83594v5.73828h3.1914v.74219h-4.02734v-6.48047"/><path fill="#ff3030" fill-rule="evenodd" d="M162.57813 463.21094h7.6914V453.0625h-7.6914v10.14844"/><path fill="azure" fill-rule="evenodd" d="M164.41016 454.89844h.83203v5.73828h3.19531v.74219h-4.02734v-6.48047"/><path fill="#00f" fill-rule="evenodd" d="M321.66406 445.45703h8.61719V435.3125h-8.61719v10.14453"/><path fill="azure" fill-rule="evenodd" d="M323.4961 437.14453h.83202v2.82422h3.28907v-2.82422h.83203v6.48047h-.83203v-2.91797h-3.28906v2.91797h-.83204v-6.48047"/><path fill="#ff3030" fill-rule="evenodd" d="M295.72656 414.38672h7.69531v-10.14453h-7.6953v10.14453"/><path fill="azure" fill-rule="evenodd" d="M297.5586 406.07422h.83593v5.74219h3.1914v.73828h-4.02734v-6.48047"/><path fill="#ff3030" fill-rule="evenodd" d="M175.89063 370.0039h7.6953v-10.14452h-7.6953v10.14453"/><path fill="azure" fill-rule="evenodd" d="M177.72656 361.6914h.83203v5.73829H181.75v.74219h-4.02344v-6.48047"/><path fill="#ffffe0" fill-rule="evenodd" d="M337.76563 396.86719h22.17968v-10.1914h-22.17969v10.1914"/><path fill-rule="evenodd" d="M341.26563 388.50781h.5078v6.29297h-.78515v-4.48828h-1.39062v-.55469l.5625-.0664.25-.0547.23046-.08983.20313-.14063.17578-.21094.14063-.29297.10546-.39453m4.8125 0l.23047.01953.21875.0547.20704.08983.19921.1211.1836.14844.17187.17578.30078.41797.2422.49609.17968.54688.11328.57812.03516.58984-.03516.59375-.11328.58594-.17969.55078-.24219.5039-.30078.4297-.17187.17578-.1836.15625-.19921.1211-.20704.09374-.21875.05469-.23046.01953-.22657-.01953-.22265-.05469-.20704-.09375-.1953-.1211-.1836-.15624-.17188-.17578-.30078-.4297-.2461-.5039-.17968-.55078-.10937-.58594-.03907-.59375h.83204l.03125.5625.08203.50782.125.4414.16406.375.1875.30078.21094.22266.22265.13672.22656.04687.22657-.04687.22265-.13672.21094-.22266.1914-.30078.16407-.375.125-.4414.08203-.50782.02735-.5625-.02735-.55859-.08203-.5039-.125-.4336-.16406-.36719-.1914-.29297-.21095-.21093-.22265-.13282-.22656-.04687-.22657.04687-.22265.13282-.21094.21093-.1875.29297-.16406.36719-.125.4336-.08204.5039-.03125.5586h-.83203l.03907-.58985.10937-.57813.17969-.54687.2461-.4961.30077-.41796.17188-.17578.1836-.14844.1953-.1211.20704-.08984.22265-.05469.22656-.01953m4.95313 0l.23047.01953.21875.0547.20703.08983.19531.1211.1875.14844.16797.17578.30469.41797.24219.49609.17968.54688.11329.57812.03515.58984-.03515.59375-.11329.58594-.17968.55078-.2422.5039-.30468.4297-.16797.17578-.1875.15625-.19531.1211-.20703.09374-.21875.05469-.23047.01953-.23047-.01953-.21875-.05469-.20703-.09375-.19531-.1211-.1836-.15624-.17187-.17578-.30078-.4297-.2461-.5039-.17968-.55078-.10938-.58594-.03906-.59375h.83203l.03125.5625.08203.50782.125.4414.16016.375.1914.30078.21094.22266.22266.13672.22656.04687.22656-.04687.22266-.13672.21094-.22266.1914-.30078.16016-.375.1289-.4414.08204-.50782.02734-.5625-.02734-.55859-.08204-.5039-.1289-.4336-.16016-.36719-.1914-.29297-.21094-.21093-.22266-.13282-.22656-.04687-.22656.04687-.22266.13282-.21094.21093-.1914.29297-.16016.36719-.125.4336-.08203.5039-.03125.5586h-.83203l.03906-.58985.10938-.57813.17968-.54687.2461-.4961.30078-.41796.17187-.17578.1836-.14844.19531-.1211.20703-.08984.21875-.05469.23047-.01953m4.95313 0l.38671.02735.35938.08203.32031.13672.28125.1875.23047.23828.17188.28515.10937.33204.03906.375-.01953.27343-.0586.23828-.08984.19922-.10937.16797-.1289.14453-.14063.125-.28516.19531.23047.1172.20703.14843.1836.17188.15234.1914.125.21485.08984.23046.05469.2422.01953.2578-.03515.3086-.10157.32812-.17187.32422-.24219.30469-.30469.26953-.375.21484-.21094.08204-.22656.05859-.2461.03906-.26171.01172-.25781-.01172-.24219-.03906-.22266-.0586-.20703-.08203-.35937-.21484-.28906-.26953-.22266-.30469-.15625-.32422-.09375-.32812-.03125-.3086h.83203l.02734.25391.07813.23438.1211.21093.16015.1836.19531.15234.21875.11719.24219.07031.2539.02734.25391-.02734.24219-.07031.21875-.11719.19531-.15234.16016-.1836.1211-.21094.07812-.23437.02734-.2539-.02734-.25391-.07813-.23438-.1211-.21484-.16015-.1836-.19531-.15234-.21875-.11328-.24219-.07422-.2539-.02344-.25391.02344-.24219.07422-.21875.11328-.19531.15235-.16016.18359-.1211.21484-.07812.23438-.02734.2539h-.83203l.01953-.2539.05469-.23828.08984-.22657.125-.20703.15235-.1914.18359-.17188.20703-.15234.23047-.13281-.28516-.19532-.14062-.125-.1289-.14453-.10938-.16797-.08985-.19922-.0586-.23828-.01952-.27344h.78906l.02344.21485.0625.1914.10547.16797.13671.13672.16407.11328.1914.08204.20704.05078.21875.01562.21875-.01562.20703-.05079.1914-.08203.16406-.11328.13672-.13672.10547-.16796.0625-.19141.02344-.21485-.02344-.21484-.0625-.1914-.10547-.16407-.13671-.14062-.16407-.10938-.1914-.08203-.20704-.05078-.21875-.01953-.21875.01953-.20703.05078-.1914.08203-.16406.10938-.13672.14062-.10547.16406-.0625.19141-.02344.21485h-.78906l.03906-.375.10938-.33204.17187-.28515.23047-.23828.28125-.1875.32031-.13672.35938-.08203.38671-.02735"/><path fill="#ffffe0" fill-rule="evenodd" d="M288.48438 431.92969h22.17968v-10.1914h-22.17969v10.1914"/><path fill-rule="evenodd" d="M291.98438 423.57031h.5078v6.29688h-.78515v-4.48828h-1.39062v-.5586l.55859-.0625.2539-.05469.23048-.08984.20312-.14062.17188-.21094.14453-.29297.10546-.39844m4.8125 0l.23047.01953.21875.0586.20704.08594.1953.12109.1836.15234.17188.17578.30468.41797.2422.49219.17968.54688.10937.58203.03907.58984-.03907.59375-.10937.58203-.17969.55469-.24219.5039-.30468.42579-.17188.17968-.1836.15235-.1953.125-.20704.09375-.21875.05469-.23046.01953-.23047-.01954-.21875-.05468-.20704-.09375-.1953-.125-.1836-.15235-.17188-.17968-.30468-.42579-.2422-.5039-.17968-.55469-.10937-.58203-.03907-.59375h.83204l.02734.5625.08203.50781.1289.4414.16016.375.1914.30079.21095.21875.22265.13672.22656.04687.22657-.04687.22265-.13672.21094-.21875.1914-.30078.16016-.375.12891-.4414.07813-.50782.03125-.5625-.03125-.5625-.07813-.5-.1289-.4336-.16016-.36718-.1914-.29297-.21095-.21484-.22265-.12891-.22656-.04688-.22657.04688-.22265.1289-.21094.21485-.1914.29297-.16016.36719-.12891.43359-.08203.5-.02735.5625h-.83203l.03907-.58984.10937-.58204.17969-.54687.24219-.49219.30468-.41797.17188-.17578.1836-.15234.1953-.1211.20704-.08593.21875-.0586.23046-.01953m4.95313 0l.23047.01953.21875.0586.20703.08594.19531.12109.1836.15234.17187.17578.30078.41797.2461.49219.17968.54688.10938.58203.03906.58984-.03906.59375-.10938.58203-.17968.55469-.2461.5039-.30078.42579-.17187.17968-.1836.15235-.19531.125-.20703.09375-.21875.05469-.23047.01953-.23047-.01954-.21875-.05468-.20703-.09375-.19531-.125-.1875-.15235-.16797-.17968-.30469-.42579-.24219-.5039-.17968-.55469-.11329-.58203-.03515-.59375H300.5l.02734.5625.08204.50781.1289.4414.16016.375.1914.30079.21094.21875.22266.13672.22656.04687.22656-.04687.22266-.13672.21094-.21875.1914-.30078.16016-.375.125-.4414.08203-.50782.03125-.5625-.03125-.5625-.08203-.5-.125-.4336-.16016-.36718-.1914-.29297-.21094-.21484-.22266-.12891-.22656-.04688-.22656.04688-.22266.1289-.21094.21485-.1914.29297-.16016.36719-.1289.43359-.08204.5-.02734.5625h-.83203l.03515-.58984.11329-.58204.17968-.54687.2422-.49219.30468-.41797.16797-.17578.1875-.15234.19531-.1211.20703-.08593.21875-.0586.23047-.01953m4.95313 0l.38671.03125.35938.08203.32031.13672.28125.1875.23047.23438.17188.28515.10937.33204.03906.3789-.02344.27344-.05468.23437-.08985.20313-.11328.16797-.1289.14453-.13672.1211-.28906.19921.23437.11719.20703.14844.17969.16796.15625.19532.1211.21484.09374.23047.05469.24219.01953.2539-.03515.3125-.10547.32422-.17188.32422-.23828.3086-.3086.26953-.37109.21484-.21094.07813-.23046.0625-.2422.03906-.26171.01172-.26172-.01172-.24219-.03906-.22265-.0625-.20313-.07813-.35937-.21484-.29297-.26954-.22266-.30859-.15625-.32422-.09375-.32422-.02734-.3125h.83203l.02734.25391.07813.23438.1211.21484.16015.1836.19531.15234.21875.11328.23828.07422.25781.02343.25391-.02343.24219-.07422.21875-.11328.1914-.15235.16016-.1836.125-.21483.07813-.23438.02343-.2539-.02343-.25-.07813-.23438-.125-.21485-.16015-.18359-.19141-.15234-.21875-.11328-.24219-.07422-.2539-.02344-.25782.02344-.23828.07422-.21875.11328-.19531.15234-.16016.1836-.1211.21484-.07812.23437-.02734.25h-.83203l.01953-.25.05469-.24218.08984-.22266.125-.20703.15235-.1914.18359-.17188.20703-.15625.23047-.1289-.28516-.19923-.14062-.1211-.1289-.14452-.11329-.16797-.08594-.20313-.0586-.23437-.01952-.27344h.78515l.02344.21485.0664.1914.10548.16406.13671.14063.16407.11328.1875.08203.20703.04688.22265.01953.21875-.01953.20704-.04688.1875-.08203.16796-.11328.13672-.14063.10157-.16406.0664-.1914.02344-.21485-.02344-.21484-.0664-.1914-.10157-.16407-.13671-.14063-.16797-.11328-.1875-.08203-.20704-.04687-.21875-.01954-.22265.01954-.20703.04687-.1875.08203-.16406.11328-.13672.14063-.10547.16406-.0664.1914-.02345.21485h-.78515l.03906-.3789.10547-.33204.17578-.28515.23047-.23438.27734-.1875.32422-.13672.35938-.08203.38671-.03125"/><path fill="#ffffe0" fill-rule="evenodd" d="M333.78516 356.92188h22.17968v-10.19141h-22.17968v10.1914"/><path fill-rule="evenodd" d="M337.28516 348.5625h.5078v6.29297h-.78515v-4.48828h-1.39062v-.55469l.5625-.0664.25-.0547.23047-.08984.20312-.14062.17578-.21094.14063-.29297.10547-.39453m4.8125 0l.23046.01953.21875.05469.20704.08984.1953.1211.1875.14843.16798.17579.30469.41796.24218.4961.17969.54687.11328.57813.03516.58984-.03516.59375-.11328.58594-.17969.55078-.24219.5039-.30468.4297-.16797.17968-.1875.15235-.19531.12109-.20704.09375-.21875.05469-.23046.01953-.23047-.01953-.21875-.0547-.20703-.09374-.19532-.1211-.18359-.15234-.17188-.17969-.30078-.42968-.24609-.50391-.17969-.55078-.10937-.58594-.03906-.59375h.83203l.03125.5625.08203.50781.125.44141.16015.375.19141.30078.21094.22266.22265.13672.22657.04687.22656-.04687.22265-.13672.21094-.22266.1914-.30078.16017-.375.1289-.4414.08203-.50782.02735-.5625-.02735-.5586-.08203-.5039-.1289-.4336-.16016-.36718-.1914-.29297-.21094-.21094-.22266-.1328-.22656-.04298-.22657.04297-.22265.13281-.21094.21094-.1914.29297-.16016.36719-.125.4336-.08203.5039-.03125.5586h-.83204l.03907-.58985.10937-.57813.17969-.54687.2461-.4961.30077-.41796.17188-.17579.1836-.14843.1953-.1211.20704-.08984.21875-.05469.23047-.01953m5.09375 0h.5078v6.29297h-.78905v-4.48828h-1.38672v-.55469l.5586-.0664.2539-.0547.23047-.08984.20312-.14062.17188-.21094.14453-.29297.10547-.39453m2.8203 2.17578h.78907l.01953-.3164.0586-.28907.09765-.25.14063-.21484.1836-.17578.22265-.1289.26562-.07813.3086-.02735.23437.01953.22656.0625.20313.10157.17969.13671.14843.17579.11329.20312.0703.23828.02735.26563-.02344.26562-.0664.22656-.10938.19141-.15625.17188-.19922.16015-.24609.16797-.63672.38672-.53515.3164-.4375.31641-.34766.32422-.26172.33594-.1914.35156-.125.36719-.07032.39453-.01953.41797h4.21094v-.73828h-3.33203l.08203-.28516.11328-.23828.14844-.19922.1875-.17969.23046-.17187.28125-.17578.71485-.41797.41797-.20313.34375-.23437.28125-.25.21875-.26563.16406-.27734.10938-.28516.0664-.28515.01953-.28125-.04297-.38281-.12109-.34766-.1875-.3086-.25-.26171-.30078-.21485-.34766-.15625-.3789-.10156-.40625-.03125-.4375.03125-.39844.09766-.35156.16796-.3086.23438-.2461.30469-.1875.375-.11327.44531-.04297.51953"/><path fill="#ffffe0" fill-rule="evenodd" d="M204.15625 332.17969h22.17969v-10.19531h-22.17969v10.1953"/><path fill-rule="evenodd" d="M207.65234 323.82031h.51172v6.29297h-.78906V325.625h-1.38672v-.55469l.5586-.0664.2539-.0547.23047-.08983.20313-.14063.17187-.21094.14063-.29297.10546-.39453m4.81641 0l.23047.01953.21875.0547.20703.08983.19531.1211.1836.14844.17187.17578.30078.41797.2461.49609.17968.54688.10938.57812.03906.58984-.03906.59375-.10938.58594-.17968.55078-.2461.5039-.30078.42579-.17187.17969-.1836.15625-.19531.1211-.20703.09374-.21875.05469-.23047.01953-.23047-.01953-.21875-.05469-.20703-.09375-.19531-.1211-.1875-.15624-.16797-.17969-.30469-.42578-.24219-.5039-.17968-.55079-.11328-.58594-.03516-.59375h.83203l.02734.5625.08203.50782.125.4414.16407.375.1914.30078.21094.22266.22266.13672.22656.04687.22656-.04687.22266-.13672.21094-.22266.1914-.30078.16016-.375.125-.4414.08203-.50782.03125-.5625-.03125-.5625-.08203-.5-.125-.43359-.16016-.36719-.1914-.29297-.21094-.21093-.22266-.13282-.22656-.04687-.22656.04687-.22266.13282-.21094.21093-.1914.29297-.16406.36719-.125.4336-.08204.5-.02734.5625h-.83203l.03516-.58985.11328-.57813.17968-.54687.2422-.4961.30468-.41796.16797-.17578.1875-.14844.19531-.1211.20703-.08984.21875-.05469.23047-.01953m5.08984 0h.51172v6.29297h-.78906V325.625h-1.38672v-.55469l.5586-.0664.2539-.0547.22656-.08983.20313-.14063.17578-.21094.14063-.29297.10546-.39453m2.82422 2.17578h.78516l.01953-.3164.0625-.28906.09766-.25.14062-.21485.17969-.17578.22266-.1289.26562-.08204.3086-.02734.23827.02344.22266.0625.20703.10156.17578.13672.15235.17578.10937.20312.07422.23829.02344.26171-.01953.26954-.0664.22656-.10938.1914-.15625.17188-.19922.16015-.25.16797-.63281.38672-.53907.3125-.4375.32031-.34375.32422-.26562.33594-.1914.35156-.125.3672-.06642.39452-.02343.41797h4.21484v-.73828H221.125l.08203-.28516.11328-.23828.14844-.19922.1875-.17968.23047-.17188.27734-.17578.71875-.41797.41406-.20703.34766-.23047.27734-.25.22266-.26562.16406-.28125.10938-.28125.0625-.28516.02344-.28125-.04297-.38281-.1211-.34766-.1875-.3086-.25-.26171-.30468-.21485-.34375-.15625-.38282-.10156-.40625-.03125-.43359.03125-.39844.09766-.35547.16797-.30468.23437-.25.30469-.1836.375-.11719.44531-.03906.51953"/><path fill="#ffffe0" fill-rule="evenodd" d="M323.99219 326.32031h22.17969V316.125h-22.1797v10.19531"/><path fill-rule="evenodd" d="M327.48828 317.96094H328v6.29297h-.78906v-4.48829h-1.38672v-.55468l.5586-.0664.2539-.0547.22656-.08984.20703-.14063.17188-.21093.14062-.29297.10547-.39453m4.8164 0l.22657.01953.21875.05469.21094.08984.19531.1211.1836.14843.17187.17578.30078.41797.2461.4961.17968.54687.10938.57813.03906.58984-.03906.59375-.10938.58203-.17969.55469-.24609.5039-.30078.42579-.17188.17968-.18359.15625-.19531.1211-.21094.09375-.21875.05468-.22656.01954-.23047-.01954-.21875-.05468-.20703-.09375-.19922-.1211-.1836-.15625-.17187-.17969-.30078-.42578-.24219-.5039-.17969-.55469-.11328-.58203-.03515-.59375h.83203l.02734.5625.08203.50781.125.4414.16406.375.19141.30079.21094.22265.22265.13672.22657.04688.22656-.04688.22266-.13671.21093-.22266.1875-.30078.16407-.375.125-.4414.08203-.50782.03125-.5625-.03125-.5625-.08203-.5-.125-.4336-.16407-.36718-.1875-.29297-.21093-.21094-.22266-.13281-.22656-.04688-.22656.04688-.22266.13281-.21094.21094-.1914.29297-.16407.36719-.125.43359-.08203.5-.02734.5625h-.83203l.03515-.58985.11328-.57812.1797-.54688.24218-.49609.30078-.41797.17188-.17578.18359-.14844.19922-.12109.20703-.08984.21875-.0547.23047-.01952m5.08984 0h.50781v6.29297h-.78515v-4.48829h-1.38672v-.55468l.5586-.0664.25-.0547.23046-.08984.20313-.14063.17578-.21093.14062-.29297.10547-.39453m6.80469 1.61719h-.78516l-.05469-.21094-.08203-.1875-.10546-.15625-.12891-.13281-.14844-.10157-.16015-.07422-.16797-.04687-.17188-.01563-.32812.04297-.28907.11719-.24609.19922-.20313.26562-.16015.33985-.11328.40234-.07031.46875-.02344.52735.1875-.20313.1875-.16016.1836-.12109.1875-.08984.1875-.0586.1914-.03906.40234-.02344.30469.03125.32031.08985.3164.15625.29688.21875.2539.28515.19923.35156.07031.19922.05469.21875.02734.23438.00781.25-.78906.04687-.02734-.2578-.07813-.25-.1211-.23438-.16015-.21094-.19531-.17969-.21875-.13672-.23828-.08594-.25781-.03125-.25391.03125-.24219.08594-.21875.13672-.1914.17969-.16016.21094-.125.23437-.07813.25-.02343.25781.02344.25782.07812.2539.125.23438.16016.21094.1914.17578.21875.13671.24219.08985.2539.03125.25782-.03125.23828-.08985.21875-.13671.19531-.17579.16016-.21093.1211-.23438.07812-.2539.02734-.25782.78906-.04687-.03125.3711-.09375.37109-.15625.35937-.22265.32813-.29297.28515-.16797.11719-.1875.10156-.20703.08203-.22266.0625-.24219.03907-.26171.01171-.28125-.01562-.26172-.04688-.23828-.07421-.21485-.10547-.19531-.13281-.17188-.15625-.15625-.1797-.1328-.20312-.1172-.22265-.10156-.2422-.14453-.53515-.08594-.58984-.02734-.64063.03906-.74609.11328-.66016.1875-.57812.1211-.25781.13672-.23047.15234-.20703.17188-.1797.18359-.15624.20312-.1289.21875-.10157.23047-.07422.25-.04687.26172-.01172.36719.03125.33203.09765.29297.14844.25781.20313.21094.23828.16406.27734.11719.30078.0625.32031"/></g></defs><use xlink:href="#as"/></svg>