<svg xmlns="http://www.w3.org/2000/svg" role="img" xmlns:xlink="http://www.w3.org/1999/xlink" viewBox="142.45 309.95 326.84 171.84"><defs><clipPath id="a"><path d="M144 311.67188h1v168.65625h-1zm0 0"/></clipPath><clipPath id="b"><path d="M144 311.67188h324v168.65625H144zm0 0"/></clipPath><clipPath id="c"><path d="M467 311.67188h1v168.65625h-1zm0 0"/></clipPath><clipPath id="d"><path d="M144 479h4v1.32813h-4zm0 0"/></clipPath><clipPath id="e"><path d="M147 480h2v.32813h-2zm0 0"/></clipPath><clipPath id="f"><path d="M153 479h9v1.32813h-9zm0 0"/></clipPath><clipPath id="g"><path d="M160 479h3v1.32813h-3zm0 0"/></clipPath><clipPath id="h"><path d="M166 480h9v.32813h-9zm0 0"/></clipPath><clipPath id="i"><path d="M173 480h3v.32813h-3zm0 0"/></clipPath><clipPath id="j"><path d="M180 479h8v1.32813h-8zm0 0"/></clipPath><clipPath id="k"><path d="M187 480h2v.32813h-2zm0 0"/></clipPath><clipPath id="l"><path d="M193 479h9v1.32813h-9zm0 0"/></clipPath><clipPath id="m"><path d="M200 480h2v.32813h-2zm0 0"/></clipPath><clipPath id="n"><path d="M206 479h9v1.32813h-9zm0 0"/></clipPath><clipPath id="o"><path d="M213 480h3v.32813h-3zm0 0"/></clipPath><clipPath id="p"><path d="M220 479h8v1.32813h-8zm0 0"/></clipPath><clipPath id="q"><path d="M227 479h2v1.32813h-2zm0 0"/></clipPath><clipPath id="r"><path d="M233 479h8v1.32813h-8zm0 0"/></clipPath><clipPath id="s"><path d="M240 479h3v1.32813h-3zm0 0"/></clipPath><clipPath id="t"><path d="M246 479h9v1.32813h-9zm0 0"/></clipPath><clipPath id="u"><path d="M253 479h3v1.32813h-3zm0 0"/></clipPath><clipPath id="v"><path d="M260 479h8v1.32813h-8zm0 0"/></clipPath><clipPath id="w"><path d="M266 479h4v1.32813h-4zm0 0"/></clipPath><clipPath id="x"><path d="M273 479h8v1.32813h-8zm0 0"/></clipPath><clipPath id="y"><path d="M279 479h2v1.32813h-2zm0 0"/></clipPath><clipPath id="z"><path d="M286 480h9v.32813h-9zm0 0"/></clipPath><clipPath id="A"><path d="M292 480h2v.32813h-2zm0 0"/></clipPath><clipPath id="B"><path d="M300 479h8v1.32813h-8zm0 0"/></clipPath><clipPath id="C"><path d="M305 479h3v1.32813h-3zm0 0"/></clipPath><clipPath id="D"><path d="M313 479h8v1.32813h-8zm0 0"/></clipPath><clipPath id="E"><path d="M319 479h2v1.32813h-2zm0 0"/></clipPath><clipPath id="F"><path d="M329 479h3v1.32813h-3zm0 0"/></clipPath><clipPath id="G"><path d="M340 479h8v1.32813h-8zm0 0"/></clipPath><clipPath id="H"><path d="M353 478h8v2.32813h-8zm0 0"/></clipPath><clipPath id="I"><path d="M366 479h8v1.32813h-8zm0 0"/></clipPath><clipPath id="J"><path d="M380 478h8v2.32813h-8zm0 0"/></clipPath><clipPath id="K"><path d="M393 479h8v1.32813h-8zm0 0"/></clipPath><clipPath id="L"><path d="M392 477h2v3.32813h-2zm0 0"/></clipPath><clipPath id="M"><path d="M406 479h8v1.32813h-8zm0 0"/></clipPath><clipPath id="N"><path d="M406 479h3v1.32813h-3zm0 0"/></clipPath><clipPath id="O"><path d="M419 479h9v1.32813h-9zm0 0"/></clipPath><clipPath id="P"><path d="M420 478h2v2.32813h-2zm0 0"/></clipPath><clipPath id="Q"><path d="M436 476h2v4.32813h-2zm0 0"/></clipPath><clipPath id="R"><path d="M449 476h2v4.32813h-2zm0 0"/></clipPath><clipPath id="S"><path d="M463 476h1v4.32813h-1zm0 0"/></clipPath><clipPath id="T"><path d="M144 466h4v2h-4zm0 0"/></clipPath><clipPath id="U"><path d="M466 464h2v3h-2zm0 0"/></clipPath><clipPath id="V"><path d="M144 452h4v3h-4zm0 0"/></clipPath><clipPath id="W"><path d="M466 452h2v3h-2zm0 0"/></clipPath><clipPath id="X"><path d="M144 439h4v3h-4zm0 0"/></clipPath><clipPath id="Y"><path d="M466 439h2v3h-2zm0 0"/></clipPath><clipPath id="Z"><path d="M144 425h4v4h-4zm0 0"/></clipPath><clipPath id="aa"><path d="M466 426h2v4h-2zm0 0"/></clipPath><clipPath id="ab"><path d="M144 412h4v4h-4zm0 0"/></clipPath><clipPath id="ac"><path d="M466 413h2v3h-2zm0 0"/></clipPath><clipPath id="ad"><path d="M144 399h4v3h-4zm0 0"/></clipPath><clipPath id="ae"><path d="M466 400h2v3h-2zm0 0"/></clipPath><clipPath id="af"><path d="M144 385h4v4h-4zm0 0"/></clipPath><clipPath id="ag"><path d="M466 386h2v4h-2zm0 0"/></clipPath><clipPath id="ah"><path d="M144 373h4v2h-4zm0 0"/></clipPath><clipPath id="ai"><path d="M466 373h2v4h-2zm0 0"/></clipPath><clipPath id="aj"><path d="M144 359h4v3h-4zm0 0"/></clipPath><clipPath id="ak"><path d="M466 359h2v3h-2zm0 0"/></clipPath><clipPath id="al"><path d="M144 346h4v2h-4zm0 0"/></clipPath><clipPath id="am"><path d="M466 346h2v3h-2zm0 0"/></clipPath><clipPath id="an"><path d="M144 332h4v4h-4zm0 0"/></clipPath><clipPath id="ao"><path d="M466 332h2v3h-2zm0 0"/></clipPath><clipPath id="ap"><path d="M144 318h4v5h-4zm0 0"/></clipPath><clipPath id="aq"><path d="M466 318h2v2h-2zm0 0"/></clipPath><clipPath id="ar"><path d="M465 318h3v3h-3zm0 0"/></clipPath><g id="as" clip-path="url(#clip1)"><path fill="#fff" fill-opacity="0" fill-rule="evenodd" d="M0 0h1000v1000H0zm0 0"/><path fill="#d3d3d3" fill-opacity="0" fill-rule="evenodd" d="M162.15234 355.86719l-.23437.29297.0586.23437.11718.17188.17578.23437.29297.34766.11328.0586.11719-.17188.0586-.23438.17577-.17578.46485-.17578h.69922l.23437.29297.28906.8164.0586.17579.17578.23046.35156.23438.69922.69922.17188.17578.23437.34765.23438.41016.28906.58203.41015.46485.23047.23437.23438.17578.11719.23047.17578.29297.17187 1.16406v.23438l.0586.28906.05859.11719.11719.11719.34765.41015.11719.17188.17578.17578.17578.23437.11719.17188.17188.35156.05859.23438.23437.40625.23438-.0586-.17578.17578-.0586.92969h-.58203l-.23437-.11328-.34766.11328-.11719.11719-.05859.29297-.0586.17578-.11718.17187-.46484.29297-.0586.23438-.0586.11328v.64453l.0586.17187v.41016l.0586.0586v.40624l.05859.40625.11719.17579.05859.05859.23047.64062-.0586.29297v.69922l-.05859.58203v.23438l-.0586.23047-.05468.35156v1.92187l.05469.1172h.42578l-.36719.11718-.02344.35156.89063 1.16797 1.74219.53906 1.33984.35938v.53906l.08984.8086.53516.71484 1.51953.26953.89063-.08594.08984 1.16406.53516.1797 1.16015-.1797 2.05469-.98437 1.16016-.36328 1.8789-.17578 1.69531-.1797-.17968.71876-1.51563.08594-1.25.08984-.80469.26953-1.07421.8086.26953.71875.53515.89843-.17968.625-.26563.8086.26563 1.07812.625.89844.80468.17969 1.25-.1797-.26562.72267.09766.5039.05468.29297v.17188l.0586.29296v.40625l.17578.1172.35156.11718h.40625l.29297-.17578.11328-.11719.0586-.11719.11718-.23047.0586-.17578.35156-.46484.23047-.17578.17578-.0586.17578.0586.0586.17578.11718.98828.05469.46875.0586.17188.11718.23437.17578.0586.8164.05859h.28907l.11719.23437.05859.40625.0586.35156v1.10547l.11718.29297.11719.34766.28906.69922.17578.35156.58203.7539.35157.17579.17187.0586.46875.23437.64063.46484.34765.23438.29297.17578.29297.05468.23047.0625.8164.34766.29297.17578.11328.17188.35157.35156.11719.17578.52343.64063v.28906l.0586.35156v.34766l.05859.35156.0586.28906.11718.0586.17188.05859h.17578l.58203.23437.17578.1172.17578.28905.17578.23438.11328.23437.29297.23047.11719.11719v.41016l.0586.05468.28906.23438.23437.11719.0586.11718.11718.17188.0586.11719.23047.23437.05859.17578.23437.0586.1172.05859-.1172.11328-.05859.11719v.11719l-.11719.29296-.11719.28907v.58203l.17579.11719.11718.05859.0586.11719.11719.11719.11328.05859.17578.34765.0586.35157.05858.40625v.17578l-.05859.17578-.11719.69922v.17187l.1172.17579.29296.29296h.40625l.17578.1172.11719.17187.11719.29296v.23438h-.52735l-.23047-.23438h-.23437l-.17578.0586-.0586.69922.0586.34765.11719.17579.17578.41015.11718.23047.28907.46875.17578.05469h.52344l.23437.0586.75781.64062.0586.29296v.23438l.05859.0586.23047.34765v.35156l-.11719.17188v.29297l.29297.28906.29297.17578.17187.0586.29297.17577.29297.1172.58203.40624.28906.23438.29297.17578.21875.16015.01563.01172.23047.17579.64062.52343.17578.23438.1172.17578.17577.17578.11328.17188v.64062l.1172.17578.46874.11719.58203.11719.23438.05859.23047.11328.29297.11719.11328.0586.58593.35156.28907.17187.17578.0625.17578.05469.17578.0586.69922.35155.28906.17579.23438.05468.28906.17578.23437.1172.64063.40624.29297.11719.17187.0586.23438.05859.41015.05859.23047.0586.23438.11718.0586.17188-.41017.17578.46875.0586.0586.29296.11328.23438.17578.05468.23438.0586.17578.05859.40625.11719.64062.23437.11719.17188.0586.23437v.17578l-.0586.1172-.0586.40624.23438.23438.11719.05859.34766.11719.64062.23047.17578.11718.28906.1172.17578.17577.23438.46485.58203 1.10546.17578.17579.34766.17578.17578.11719.35156.11718 1.04688.52344.23437.0586.46485.11327.29297.0586.46484.17578.75781.58203.23438.23438.34765.46484.17578.17578.28907.23438.8164.69921.29297.17579.28906.28906.29297.17578.29297.28906.69531.64063.17578.17578.29297.23437.28907.23438.46875.28906.64062.58203.34766.23438.23437.29297.34766.34765.35156.46485.9336.99218.34765.40625.11719.17579.23437.05859.11328.11719.64454.17578.23047.11328.23437.0586.29297.17577.23047.1172.9336.69921.40624.40625.23438.17578.40625.17578.23437.11719.8164.34766.34766.23437.23438.11719.29297.28906.23047.11719.7578.35156.35157.17188.23047.05859.29297.11719.23437.0586.8711.17577h.8164l.46875.23047.17188.0586.875.69921.46484.1172.29297.05858.17578.0586.23047.0586.46875.05859.34766.05859.35156.0586.40625.05859h.29297l.17187.0586v.23046l.17578.17578h.29297l.34766.0586.35156.05859.69922.11719h.64063l.46484-.23438.29297-.17578.17187-.11719.41016-.17187.28906-.17578.9336-.46485.46875-.29297.52343-.29296.46485-.17188.46484-.17578 1.05078-.46485.28906-.11718.41016-.11719.28906-.11719.52735-.17578 1.51562-.69922.58203-.34765.28907-.0586.29297-.0586.34765-.11718.875-.23047.35156-.11719h.11329l.23437-.05859.875-.23437.23438-.0586h.8125l.35156-.0586.8164-.11718.17188-.0586.35156-.05468.29297-.0586.23047-.05859.8164-.17578.17579-.0586h.34765l.23438-.05859.46484-.11718.75781-.17188.23438-.0586h.34765l.41016-.11718.28906-.0586 1.28516-.05859h.28906l.41016-.0586.23047-.05858h.17578l.875-.1172h.40625l.41015-.11718h.34766l.35156-.11328.8711-.0586h1.75l1.04687.28907.41016.11719.28906.11718.35156.11719.28907.11719 1.05078.17187.28906.0586h.29297l.29297.05859.17187.0586.41016.05859.17187.0586.1172.05858h.11718l.11719.0586.35156.0586h.11328l.41016.0664 1.92187.39453 1.92578.39453 1.51953.44922 1.69532.71875 2.14453.80469 1.60547-.71875 1.42968-.80469 1.16016-1.07813 1.25-.44921 3.03516-.71875 1.875-.35938 2.14453-1.34765 2.23437-1.25391 2.5-1.25781 1.69531-.44922 1.78516-.17969 1.16016-.26953.625.53906 1.33984-.26953.71485-.98828.98437-1.34375.44531-.17969.80469-.35937 1.875-.53907 1.78516-.44921 1.25-.26954 1.16015-.08984 1.69922-.08984 1.96094-.26954 1.25-.08984h.53906l.625-.08984h.89063l2.14453-.17969 2.41015-.17969 2.58985-.08984 1.69531.17969 1.60938.08984 1.42968.35938 1.16016.71875 1.875.98828 1.16015 1.52734.26563.71484.6289.08985.35548.89844.53515.53906.53516 1.52734 1.07422.35938h.53515l-.80469.53515.08985 1.70703.71484 2.69532.89063.80468.89453.98829.71484 1.2578 1.78516.53907 1.51953-.17969.35547 1.34375 1.60937-.80469.98047-.53906.26953.26953.31641-.21484.21875-.14453.80078.44922.44922-.35938h.35547l.53515-.26953.53907-.71875.53515-.26953.625-.98828 1.16016.44922.83984.3711 1.39454.61718 1.6953-.17969h1.60548l1.78515.08985.17969-1.70704.53516-1.34375.80468.26954.4922.84765.40233.40625-.08984.53906v.35938l.71485.44922.71093-.26953h1.42969l.35938.98828.4453 1.25781.71485 1.34375 1.25.6289 1.69531.62891.71485-.17969.17969-.53906.98046-.08984.44922.35937.08594 1.25782-.26563.6289-.53515.17969v.53906l.71484.98438.26563.53906.98437.98828.80078 1.07813-.26562.35937-.08985.89844-.625 2.33203-.35546 2.0664-.08985 1.79298-.17969.71875-.08984.53906v1.4375l-.98047 1.88281-.35937 1.70703-.53516.89844-.80469 1.16797-.26562.53906 2.05469 1.2539.08593.35938-.35546.53906-.08985-.17968v.80859l.08985 1.4375-.44532.71484-1.07422.09375-.26562.71485.53515.89844.8047.71875 1.16015.80859 1.33984.26953.44531.35938-.35546.44921-1.78907-.08984-1.25-.44922-.71484-.71875-.625-.08984-.17578 3.58984-.1875 1.3086h89.35937V311.70313h-55.26953v49.08203l.76172.125 3.28906.54296 2.02344 2.83594v2.7539l2.35156.33204 2.34766.33203h4.05078l-1.3789 4.16016-2.02344.70703-2.02344.70312-.54297.34375-2.59375 1.6172-.1875.11718-2.02344-2.07813-.73046-2.74218-2.67188-2.07813-1.375-3.5-.0664-.08203-1.95704-2.67188 2.75-1.41796v-49.08204H294.42187v91.41407l.1172.03125.1328.01172.07422.07421.10547.04688.08985.0586.08593.05859.08985.0586.29687.29687.0586.08984.03125.11719.02734.11719.01563.13671-.03125.1172-.0586.08983-.0586.08594-.04296.10547-.04688.10156-.02734.1211v.14453l.17578.26953.14844.14844.07422.08594.07422.07421.04296.10547.0625.08985.0586.08593.04297.10547.0586.08985.04687.10156.04296.10547.0586.08594.11719.17968.07421.07422.0625.08594.0586.08984.04297.10547.0586.08985.05858.08593.0625.08985.0586.08984.04297.10156.11719.17969.07421.07422.0586.08594.07422.07421.08984.0586.10547.04687h.14844l.1328-.01562.13282.01562.10156-.04687.07422-.07422.04688-.10156-.01563-.13281v-.14844l-.04687-.10547-.02735-.11719-.04687-.10156-.02735-.1211-.04296-.10156-.0625-.08984-.04297-.10156-.04297-.10547-.03125-.11719-.01563-.13281-.01171-.13672.08593-.0586.0586-.08593.12109-.03125.04297.10547.01562.1328v.1172l.0586.10156.0586.08984.08983.0586.14844.14843.0586.08985.04296.10547-.01171.10156.08593.0586.10547.04687.08594.0586.08984.05858.07422.07422-.11719.02735-.10546.04687-.08594.0586-.07422.07421-.0586.08985-.0625.08594-.02734.12109-.04687.10156-.04297.10547-.03125.11719-.01172.13281-.01563.13281v.14844l.02735.11719.04687.10547.04297.10156.0586.08984.07421.07422.08985.0586.07422.07421.08984.0586.0586.08984.04296.10547.04688.10156.11719.03125.1328.01563h.14845l.11718-.03125.10547.04297.04297.10547.04688.10156.02734.1211L299.5 410l.02734.11719.03125.1211.02735.11718.10547.04297.10156.04687.13281-.01562.14844.14844.0625.08593.07422.07422.07031.07422.08984.0625.10547.04297.10156.04297.1172.03125.13671.01562.11719-.03125.07422-.07422.02734-.11718-.01172-.13282-.03125-.12109-.02734-.11719.04297-.10547h.11719l.08984.0625.11719.02735h.14843l.13282.01562h.14843l.13282.01563.1328-.01563h.14845l.1328-.01562.13282-.01172.13672.01172.11719-.02735.13281-.01562.1914-.0586-.05859.17579-.01562.1328-.02735.1211-.01562.13281-.0586.08594-.1328.01563-.10548.04687-.10546.04297-.1172.03125-.11718.02735-.26563.03125h-.14843l-.13281.01562-.07422.07422.05859.08594.14844.14843.11719.1797.07421.0703.08985.0625.08984.0586.08594.0586.08984.05858.10156.04297.10547.0625.10547.04297.08594.0586.10547.04687.10156.04297.17969.11719.0586.08984-.04298.10156-.04687.10547.01562.13281.22266.22266.0586.08985.04296.10156.03125.1211.04297.10155.01563.13282.03125.11718.01171.13672.03125.11719.14844.14844.10156.04297.10547.04296.1172.03125.1328.01563.13672.01563h.11719l.11719-.03125.08984-.0586.04297-.10547.04688-.10156.04296-.10547.03125-.11719.01172-.1328v-.14845l-.01172-.1328-.01562-.13282-.03125-.11719-.04297-.10547-.04688-.10547-.04296-.10156-.04297-.10547-.01563-.13281.01563-.13281.02734-.11719.03125-.11719.02735-.1211.04687-.10155.08984-.0586.08594-.0625.07422-.07422.08984-.05859.22266-.22266.0586-.08593.07421-.07422.11719-.17969.0586-.08594v-.14844l-.07423-.07421-.10156-.04688-.10547-.04297-.10156-.04297-.0586-.08984-.04687-.10547-.02734-.11719.08984-.05859.11719-.03125.10156-.04297.17969-.11719.14844-.14843.01172-.13282-.01172-.10546-.08985-.0586-.1328.01563h-.14845l-.1328.01562-.13282-.01562-.1211-.03125-.08593-.0586-.07422-.07422-.0586-.08984-.0625-.08594-.11718-.17969-.0586-.08593.03125-.1211.08594-.05859.1211-.03125.05859-.08594v-.1211l-.03125-.11718-.0586-.08984-.05859-.08594-.04687-.10547-.02735-.11719-.01562-.1328.0586-.08985.07421-.07422.08984-.0586.1172-.17968.07421-.07422.0586-.08594.14843-.14844.1211-.03125.1328-.01562.13282.01562.07422.07422.04297.10547.01562.13281-.03125.1172-.11719.03124-.1328.01172-.14844.14844-.04297.10547-.04688.10156-.02734.1211-.03125.11718v.14844l.03125.11719.04297.10546.05859.08985.07422.07031.07422.07422.11719.03125.12109.02734.11719-.02734.1328-.01563h.1172l.08984.0586.07422.07422.04687.10546.0586.08594.10156.04688.13281.01562.10547.04297.08594.0586-.01172.10546-.07422.07422-.17969.11719-.05859.08984-.08984.0586-.07032.07422-.07421.07421-.0625.08985-.02735.11719-.01562.1328.01562.13282-.01562.13281v.14844l.01562.13281.02735.1172.03125.12108.07421.07422.08985.0586.08594.0586.08984.05858.11719.03125v.08594l-.10157.04688-.08984.0586-.26563.03124-.11718.02735h-.14844l-.10547.04296-.10156.04688-.0586.08984-.0625.23438-.01171.13281-.03125.1211-.01563.1328v.29298l-.01172.1328.01172.13673.01563.1328.1328.01563.13282.01172.1211.03125.08593.0586.07422.07421.04688.10547.04296.10157.01563.1328v.44532l-.01563.13281v.44532l.03125.26562.02735.11719.01562.13281.03125.11719.08594.21094.03125.26562v.14844l-.03125.11719-.02734.11718-.03125.1211-.02735.11719-.03125.11718-.03125.1211-.01171.1328-.01563.13282.08984.0586.1172-.03125.10155.01562.04688.10547-.03125.26562v.44141l-.04297.10547-.04688.10547-.04296.10156-.04297.10547-.0586.08594-.03125.12109-.04296.11719-.03125.11719-.01563.1328.01563.13282.05859.08984.10547.04688.08594.0586.05859.08593-.01172.13672-.03125.11719-.04297.10156v.44531l-.01562.13281v.14844l-.03125.11719-.04297.10547-.02735.11719-.04687.10546-.04297.10157-.03125.12109-.02734.11719-.03125.13281-.03125.11719-.02735.11719-.04297.10546-.03125.1172-.03125.12108-.01171.13282-.01563.13281v.29688l.02734.11718v.14844l.04688.39844.02734.11719.0586.08984.12109.03125h.14844l.13281-.01563.0586.08985v.11719l-.0586.08984-.08984.0586-.10157.04296-.10546.04688-.08985.05859-.08594.0586-.13671.01562-.1172-.03125-.1328-.01563-.10157.04688-.0625.08594-.01172.13671-.01562.13282-.03125.11719-.02735.11718-.01562.13281-.03125.1211v.29687l.01563.13282.03125.11718v.14844l.01171.13281v.14844l-.02734.11719-.04688.10156-.02734.1211-.03125.11718-.0586.08985-.07421.07421-.10156.04297-.10547.04688-.11719.02734-.1211.03125-.10156-.04687.0586-.08594.10547-.04688.02734-.11718.03125-.11719.02734-.1211.03125-.11718v-.14844l.01563-.13281-.03125-.11719-.04297-.10547-.10547.01563-.07422.07422-.10156.04296-.08984.0625-.07422.07422-.04297.10157-.01563.1328-.03125.1172L304.25 426l-.03125.11719-.02734.11719-.03125.12109-.02735.11719-.03125.11718-.04297.10547-.08984.0586h-.08984l-.1172-.03125-.03124-.08594.01562-.13672-.03125-.11719v-.14844l-.01171-.1328v-.14844l-.0625-.23438-.02735-.1211-.04297-.10156-.04687-.10546-.0586-.08594-.05859-.08985-.04297-.10546-.0625-.08594-.14844-.14844-.0703-.07422-.10548-.04687-.10547-.04297-.10156-.04297-.29687-.29688-.08985-.07421-.08594-.0586-.10546-.04297-.08985-.0625-.08594-.0586-.10546-.04296-.08985-.0586-.08594-.0625-.07421-.0703-.10547-.04688-.08594-.0586-.10547-.04296-.08984-.0625-.10156-.04297-.10547-.04297-.08594-.0586-.10547-.04687-.10547-.04297-.10156-.04687-.08985-.0586-.10156-.04297-.10547-.04296-.08984-.0625-.11719-.02735-.13281-.01562-.13281.01562H299.75l-.13281.01563-.11719-.03125-.08984-.0586-.07422-.07422-.08985-.05859-.10156-.04688h-.14844l-.12109-.02734-.10156-.04297-.07422-.07422-.11719-.17968-.08984-.0586-.10156-.04297-.08985-.0625-.10547-.04296-.08984-.0586-.08594-.0586-.10547-.04687-.0586-.08594-.05858-.08984-.04297-.10547-.04688-.10156-.07422-.07422-.08594-.0586-.07421-.07421-.08985-.0586-.22265-.22265-.04297-.10547-.03125-.26563.10547-.04296h.14453l.10547.04296.07421.07422.08985.0586.08594.0586.10546.04687.08985.05859.14844.14844.0703.07422.14845.14843.0625.08594.07421.07422.08594.0586.07422.07421.08985.0625.08984.0586.08594.05859.26953.17578.10156.04688.10547.04296.10156.04297.04688-.07421.05859-.08594.07422-.07422.07031-.07422.10547.04297.07422.07422.0586.08984.04296.10156.04688.10547.04296.10547.1211.02735.11719-.02735.07421-.08984.04297-.10547.0586-.08985.07422-.07421.10546-.04297.1172-.02735.1328.01172.08985.0586.14844.14843.05859.08985.04297.10547.04687.10156.04297.10547.04297.10156.10547.04688.10547.04296.13281.01563.08594-.0586.0586-.08984.07421-.07422.10547-.04297.11719.02735.10547.04687.10156.04297.10547.04297.10156.04688.17969.11718v.11719l-.01563.13281.01563.13281.01562.13672.0586.08594.10156.04688.1211.02734.11718.03125h.14844l.11719-.03125.05859-.08984.17969-.1172.05859-.08983.07422-.07422.0586-.08594.11718-.17969.17969-.11719.11719.03125.08984.0586.04297.07422-.01563.1328v.1172l.08985.05859h.14843l.13282-.01563.1328-.01171.26563-.03125.10547-.04297.11719-.03125.1211-.02735.07421-.07421.07031-.07422.0625-.08985-.01562-.10547-.04688-.10156-.10156-.04297-.10547-.01562-.11718.02734-.26563.03125h-.14844l-.07421-.07422-.08985-.0586-.11719-.03124-.11718-.02735-.13282-.01562h-.14843l-.13282.01563h-.29687l-.10547-.04688-.14844-.14844-.04297-.10156-.05859-.08984.22266-.22266.08593-.0586.10547-.04296.11719-.03125.13281-.01563.13281.01563.13672.01562.10157.04297.1328-.01172.08985-.0625.10156-.04297.0625-.08984-.04687-.10156-.08984-.0586-.1172-.03125-.10155-.04296-.0586-.08985-.0625-.08984v-.11719l.01563-.13281.10547-.04688.07421-.07031v-.1211l-.08984-.05859-.03125-.11719.08985-.05859.07421-.07422.04297-.10547.0586-.08984.04687-.10156.01563-.13281v-.14844l-.04688-.10547-.04297-.10156-.08984-.0586-.13281-.01562-.10157-.04297-.13671-.01563-.1172-.03125h-.4453l-.13282-.01562-.13281-.01172-.13281-.01563-.11719-.03125h-.14844l-.13281-.01562-.13281-.01172-.26563-.03125-.1211-.04297-.08593-.0586-.07422-.07421v-.14844l.01172-.13281.10547-.04688.10156-.04296.13281-.01563h.15235l.13281-.01562h.29297l.1211.03125.10156.04296.08984.0586.23438.0625.12109-.04688.08984-.05859.10156-.04297.13282-.01562.10547.04296.10156.04688.13281.01172.1211-.02735h.14453l.12109-.03125.11719-.02734.10547-.04687.07421-.07422.08594-.0586.14844-.14843.0586-.08594.04687-.10547.02734-.11719.01563-.10547-.10156-.04296-.08985-.0586-.11719-.03125-.10546-.04297-.08985-.0625-.07422-.08594-.07422-.07421-.10156-.04297-.10547-.04688-.10156-.04297-.0586-.08984-.04687-.10156-.08594-.21094-.0625-.08594-.05859-.08984-.07422-.07422-.08594-.0586h-.26953l-.11719.03126-.08984.05859-.10156.04297-.13281.01562-.10547-.01562-.02735-.11719-.0625-.08984-.11718-.03125-.10157-.04297-.14843-.14844-.03125-.11719-.01563-.10546.07422-.07422.17969-.1172.11719-.02733.11718-.03125.13672.01562.10156.04297.10547.04297.10156.04687.10547.04297.1172.03125.1328.01563.1172.02734.1328.01563.10547-.01563.08985-.0586-.07422-.07421-.10547-.04297-.07422-.07422-.07422-.08984-.14844-.14844-.08593-.0586-.08985-.05859-.07422-.07422-.08984-.0586-.10156-.04687-.1211-.02734-.10156-.04688-.10547-.04296-.11719-.03125-.10156-.04297-.1211-.03125h-.14843l-.11719.03125-.10546.04297-.08594.0625-.17969.11718-.08594.0586-.08984.0586-.10547.04687-.08594.05859-.10547.04297-.10156.04297-.10547.04687-.07422.07422-.05859.08985-.0586.08593-.04687.10547-.0586.08594-.07421.07422-.13281-.01172-.1172-.03125h-.11718l-.07422.07422-.08984.0586-.07422.07421-.08984.0586-.08594.05859-.10547.04687-.10156.04297-.13672.01563-.10156-.04297-.14844-.14844-.10547-.04688h-.08594l-.10547.04688-.10156.04297-.1211.03125-.11718-.03125-.07422-.07422v-.11719l.03125-.1211.07422-.0703.0586-.08985.07421-.07422.11719-.03125.10547-.04296h.29297l.13281-.01563.13672-.01563.10156-.04296.08985-.0586.10156-.04687.08984-.0586.13281-.01171.08985.05859.13281.01172.08984-.0586.08594-.05859.10547-.04297.08984-.0586.08594-.0625.08985-.05859.14843-.14843.0586-.08594.05859-.08985.10547-.04296.13281-.01563.11719.02735.1211.03125.05859-.0586.05859-.08984.03125-.26563.02734-.11719.10547.01172.13281.01563.10157-.04297.08984-.0586.0586-.08984.07421-.07422.0586-.08984.04687-.10156.01172-.13281-.01172-.13282-.04687-.10547-.14844-.14843-.0586-.08985-.05859-.08594-.04297-.10546v-.44532l.01563-.1328v-.14845l.01172-.1328-.0586-.0586-.08984.0586-.10156-.04298-.17969-.11719-.08594-.05859-.0625-.08984-.0586-.08985-.07421-.07421-.08594-.0586-.1211.03125-.10155.01172-.10547.04688-.08594.05859-.10547.04297-.14844.14844-.08984.05859-.08594.0586-.08984.0625-.10547.04296-.13281.01563v-.1211l.10547-.04297.11718-.03125.07422-.0703.04297-.10548v-.14844l-.02734-.11718-.14844-.14844-.13281-.01563h-.14844l-.11719.03125-.10547.04297-.10156.04297-.08984.0625-.11719.02735-.07422-.07422.01172-.13281-.04297-.10157-.04297-.10547-.08984-.05859-.11719.02734-.1211.03125-.11718.03125-.10156.04297-.1211.03125-.10156.04297-.10547.04297-.08984.0586-.10156.01562v-.11719l.01562-.13281-.0586-.08985-.07421.04297-.14844.14844-.0586.08985-.07421.07421-.04688.10547-.04296.10156-.07422.07422-.0586.08985-.07422.07422-.05859.08593-.07422.07422-.08984.0625-.07422.07031-.07422.07422-.10156.01563-.13281.01562-.10547-.04296v-.1211l.14843-.14844.04297-.10156.0586-.08984.04687-.10156.04297-.10547.0586-.08985.03124-.11719.04297-.10156.03125-.1211.02735-.11718.04687-.10547.04297-.10156.04297-.10547.07422-.07031.08984-.0625.08985-.0586.10156-.04296h.29687l.26563-.03125.10547-.04297-.07422-.07422-.11719-.03125-.10547-.04297-.08984-.0586-.10156-.04687-.08985-.0586-.10156-.04296-.10547-.04297-.08984-.0625-.08594-.0586-.10547-.04296-.10156-.04297-.1211-.03125-.11718-.03125-.10157-.04297L297.5 410.25l-.10156-.04297-.08985-.0586-.04296-.10546-.01563-.13281.10156-.04297.13281-.01563.13672.01563.13282-.01563.10156-.04297.0586-.08984.01562-.10547-.08985-.0586-.07421-.07421-.10157-.04297-.08984-.0586-.14844-.14843-.04297-.10547-.01562-.13281v-.29297l-.0586-.08985-.08984-.05859-.07422-.07422-.04297-.10547-.03125-.11718-.0586-.08985-.07421-.07422-.11719-.02734-.07422-.07422-.08984-.0586-.08984-.0625-.08594-.05859-.07422-.07421-.0586-.08594-.04687-.10547-.08594-.0586-.14843-.14843-.19532-.0586-.1328.01563-.10157.04297-.07422.07422-.04688.10156-.04296.10547-.0586.08984-.0586.08594-.29687.29687-.08984.0586h-.08594l-.0625-.08594-.04297-.10547.03125-.11719.0586-.08984.02734-.11719-.01172-.13281-.08984-.0625-.10547.04688-.11719.02734-.11719.03125-.26953.17578-.10156.04688-.11719.02734-.10546.04687-.08985.0586-.10156.04297-.0586-.08594-.04687-.10547.01563-.13281.04687-.10547.07031-.07422.07422-.07031.0586-.08985v-.14843l-.04297-.10547h-.23829l-.10156.04687-.03125.11719-.02734.11719-.03125.1211-.07422.04296-.13281.01563-.07422-.04688-.04297-.10156-.04297-.10547-.04687-.10156-.04297-.10547-.1211.03125-.10156.04297-.13281.01562-.11719.03125-.10547.04297-.08984.0586-.10156.04687-.1211.02734-.13281.01563-.10156-.04297-.0586-.08985-.04687-.10546-.04297-.10157-.04297-.10546v-.1172l.0586-.08984.08593-.05859.17969-.11719.10156-.04687.10547-.04297.10547-.0586.10156-.04296.08985-.0625.10156-.04297.10547-.0586.10156-.04687.08984-.0586.10547-.04296.10156-.04297.08985-.0625.10156-.04297.13672-.01563.11719.03125.10156.04297.1211.03125.10156.04297.10546.04688.10157.04296.10547.04297.10156.04688.10547.04297.10156.04297.10547.04687.08594.0586.10546.04296.1172.03125.10546.04297.10156.04688.08985.0586.10547.04296.10156.04297.10547.04687.11719.02735.10156.04687.1211.02735h.14843l.08594-.0586.01562-.10156.0586-.08984-.02735-.1172-.07422-.07421-.11719-.17969-.07421-.07422-.08985-.07421-.17969-.1172-.08593-.05859-.10547-.04296-.10156-.04688-.26954-.17578-.05859-.08985-.07422-.07421-.0586-.08985-.04296-.10156-.03125-.11719-.01563-.13672v-.5625l-.01171-.1328-.01563-.13282-.03125-.11719-.01562-.13281-.01172-.13281-.03125-.1211-.22266-.22265-.0586-.08594-.01562-.10547.03125-.11719.13281-.01562v-91.41406H172.9922v1.45312l-.0586.23438-.35156 1.05078-.17187.52343-.1172.34766-.17577.41016-.11719.17187-.23438.29297-.23046.0586h-.35157l-.11718.05859-.23047.40625v.29297l.11719.17578.23046.23047.1172.23437.64062.75781.29297.46485.17578.23437.23047.35156.23437.34766.64063.8164.17578.46485.17187.41016.11719.69531.17578.46875.11719 1.39844.0586.46484v.875l.11718 1.04688v4.78125l-.0586.46484-.35156 1.28125-.17578.52344-.11328.41015-.35156.9297L172.93359 336l-.23437.58203-.11719.17578-.17187.34766-.17578.40625-.35157.8164-.0586.29297-.11327.29297-.11719.28906-.0586.17579-.11718.875-.0586.40625-.05859.11718-.0586.17579-.05859.17187-.23047.52734-.11718.17188v.23437l-.11719.23438-.0586.17187-.17577.58594v.28906l-.0586.17579v.29296l-.0586.11329-.05859.52734v.17187l-.05468.23438v2.6211l-.17578.8164-.1172.17578-.17577.23438-.1172.17187-.11327.23438-.58594.93359-.23047.28906-.29297.46485-.17578.23437-.28906.35156-.35156.69922-.11328.23047-.17579.41016-.17578.23046-.40625.52735-.8164.69922-.29297.17187-.28906.23438-.17579.11719-.17578.17578-.52344.40625-.52734.17578-.17187.17578-.23438.05469-.64062.17578h-.75782m12.21094 31.02344l-1.07422.44921.35938.89454 1.25-.71485.44531-.53906-.98047-.08985"/><path fill="#d3d3d3" fill-opacity="0" fill-rule="evenodd" d="M201.50781 416.59766h-.89453l.44922.6289.98047.35938.80469-.08985.4453-.98828-.17577.08985-.71485-.35547-.89453.35547m154.6211 59.0703l-.0586-.52343v-.29297l.11328-.29297.0586-.23046.46875-.46875h.11328l.11719-.11329.11718-.05859h.17579l.23437-.0586h.34766l.23437.0586.11719.0586.23047.17187.0586.17578.11718.58203v.29297l-.11719.17578-.17187.28906-.17579.17579-.52734.52343-.23047.23438-.11719.0586h-.17578l-.11718-.0586-.40625-.29297-.17579-.11719-.11718-.0586-.0586-.11327-.05468-.1172m6.64062-10.95702l-.0586-.17188v-1.10937l.0586-.17188.17578-.0586.17188-.05858h.17578l.23437-.0586.1172.0586.05858.69921-.05859.17188-.11719.17578-.11718.0586-.23438.52343-.11328.0586h-.23438l-.05859-.1172m9.61328-14.39062l-.11719-.17578v-.69922l.29297-.875.1172-.17187.17577-.35156.11328-.23047.1172-.29297.35155-.75781.1172-.23047.17187-.23438h.17578l.11719-.0586h.64062l.11719.0586.23437.23438.17188.11328.35156.29297.11719.11718.11328.17579v.11328l.11719.05859.11718.11719v.69922l-.05859.17578v.23047l-.0586.17578-.34765 1.05078-.11719.23047-.11719.23437-.11718.0586-.23047.23437-.64063.28906h-.875l-.41015-.11718-.64063-.46485"/><path fill="none" stroke="#bebebe" stroke-linecap="round" stroke-linejoin="round" stroke-miterlimit="10" stroke-width=".5" d="M467.95703 311.69531H144.02734v168.625h323.9297v-168.625"/><g clip-path="url(#a)"><path fill="#fff" fill-opacity="0" fill-rule="evenodd" d="M144 475.89063v4.4375h.0039H144V311.67188h.0039H144v164.21875"/></g><g clip-path="url(#b)"><path fill="#fff" fill-opacity="0" fill-rule="evenodd" d="M144.0039 480.32813V311.67188h66.57032v122.53125l-1.67188 1.74218 1.67188 2.07031 4.4414-1.05859 1.19532-1.01172-1.19531-1.39062-4.44141-.35156V311.67188h173.09766v141.5664l-.46094.46094.46094.80469.5664-.8047-.5664-.46093v-141.5664h84.32421v168.65625H144.00391"/></g><path fill="#50fcfc" fill-rule="evenodd" d="M210.57422 438.01563l-1.67188-2.07032 1.67188-1.74219 4.4414.35157 1.19532 1.39062-1.19531 1.01172-4.44141 1.0586m173.09766 16.48828l-.46094-.8047.46094-.46093.5664.46094-.5664.80469"/><g clip-path="url(#c)"><path fill="#fff" fill-opacity="0" fill-rule="evenodd" d="M467.9961 480.32813H468V311.67188h-.0039H468v168.65625h-.0039"/></g><g clip-path="url(#d)"><path fill="none" stroke="#000" stroke-linecap="round" stroke-linejoin="round" stroke-miterlimit="10" stroke-width=".5" d="M147.50781 480.52344l-7.01562-.39063"/></g><g clip-path="url(#e)"><path fill="none" stroke="#000" stroke-linecap="round" stroke-linejoin="round" stroke-miterlimit="10" stroke-width=".5" d="M147.50781 480.52344l1.03125 2.22656"/></g><g clip-path="url(#f)"><path fill="none" stroke="#000" stroke-linecap="round" stroke-linejoin="round" stroke-miterlimit="10" stroke-width=".5" d="M160.82422 480.16016l-7.01953.33593"/></g><g clip-path="url(#g)"><path fill="none" stroke="#000" stroke-linecap="round" stroke-linejoin="round" stroke-miterlimit="10" stroke-width=".5" d="M160.82422 480.16016l1.2539 2.10937"/></g><g clip-path="url(#h)"><path fill="none" stroke="#000" stroke-linecap="round" stroke-linejoin="round" stroke-miterlimit="10" stroke-width=".5" d="M174.14453 480.27734l-7.02734.10157"/></g><g clip-path="url(#i)"><path fill="none" stroke="#000" stroke-linecap="round" stroke-linejoin="round" stroke-miterlimit="10" stroke-width=".5" d="M174.14453 480.27734l1.1836 2.15235"/></g><g clip-path="url(#j)"><path fill="none" stroke="#000" stroke-linecap="round" stroke-linejoin="round" stroke-miterlimit="10" stroke-width=".5" d="M187.44922 480.61328l-7.00781-.5664"/></g><g clip-path="url(#k)"><path fill="none" stroke="#000" stroke-linecap="round" stroke-linejoin="round" stroke-miterlimit="10" stroke-width=".5" d="M187.44922 480.61328l.97266 2.25"/></g><g clip-path="url(#l)"><path fill="none" stroke="#000" stroke-linecap="round" stroke-linejoin="round" stroke-miterlimit="10" stroke-width=".5" d="M200.75781 480.66797l-6.9961-.67969"/></g><g clip-path="url(#m)"><path fill="none" stroke="#000" stroke-linecap="round" stroke-linejoin="round" stroke-miterlimit="10" stroke-width=".5" d="M200.75781 480.66797l.9375 2.26953"/></g><g clip-path="url(#n)"><path fill="none" stroke="#000" stroke-linecap="round" stroke-linejoin="round" stroke-miterlimit="10" stroke-width=".5" d="M214.07422 480.6289l-7-.60156"/></g><g clip-path="url(#o)"><path fill="none" stroke="#000" stroke-linecap="round" stroke-linejoin="round" stroke-miterlimit="10" stroke-width=".5" d="M214.07422 480.6289l.96484 2.25782"/></g><g clip-path="url(#p)"><path fill="none" stroke="#000" stroke-linecap="round" stroke-linejoin="round" stroke-miterlimit="10" stroke-width=".5" d="M227.39453 480.0664l-7.00781.52344"/></g><g clip-path="url(#q)"><path fill="none" stroke="#000" stroke-linecap="round" stroke-linejoin="round" stroke-miterlimit="10" stroke-width=".5" d="M227.39453 480.0664l1.3086 2.07423"/></g><g clip-path="url(#r)"><path fill="none" stroke="#000" stroke-linecap="round" stroke-linejoin="round" stroke-miterlimit="10" stroke-width=".5" d="M240.64844 479.6211l-6.88281 1.41406"/></g><g clip-path="url(#s)"><path fill="none" stroke="#000" stroke-linecap="round" stroke-linejoin="round" stroke-miterlimit="10" stroke-width=".5" d="M240.64844 479.6211l1.5625 1.89062"/></g><g clip-path="url(#t)"><path fill="none" stroke="#000" stroke-linecap="round" stroke-linejoin="round" stroke-miterlimit="10" stroke-width=".5" d="M253.88672 479.3164l-6.73047 2.02344"/></g><g clip-path="url(#u)"><path fill="none" stroke="#000" stroke-linecap="round" stroke-linejoin="round" stroke-miterlimit="10" stroke-width=".5" d="M253.88672 479.3164l1.72656 1.7422"/></g><g clip-path="url(#v)"><path fill="none" stroke="#000" stroke-linecap="round" stroke-linejoin="round" stroke-miterlimit="10" stroke-width=".5" d="M267.1875 479.27734l-6.70313 2.10157"/></g><g clip-path="url(#w)"><path fill="none" stroke="#000" stroke-linecap="round" stroke-linejoin="round" stroke-miterlimit="10" stroke-width=".5" d="M267.1875 479.27734L268.9336 481"/></g><g clip-path="url(#x)"><path fill="none" stroke="#000" stroke-linecap="round" stroke-linejoin="round" stroke-miterlimit="10" stroke-width=".5" d="M280.60938 479.70313l-6.91797 1.25"/></g><g clip-path="url(#y)"><path fill="none" stroke="#000" stroke-linecap="round" stroke-linejoin="round" stroke-miterlimit="10" stroke-width=".5" d="M279.60156 479.88672l.76172.96094"/></g><g clip-path="url(#z)"><path fill="none" stroke="#000" stroke-linecap="round" stroke-linejoin="round" stroke-miterlimit="10" stroke-width=".5" d="M293.98047 480.28125l-7.02735.09375"/></g><g clip-path="url(#A)"><path fill="none" stroke="#000" stroke-linecap="round" stroke-linejoin="round" stroke-miterlimit="10" stroke-width=".5" d="M292.95703 480.29688l.58985 1.07421"/></g><g clip-path="url(#B)"><path fill="none" stroke="#000" stroke-linecap="round" stroke-linejoin="round" stroke-miterlimit="10" stroke-width=".5" d="M307.24219 479.72656l-6.92188 1.20313"/></g><g clip-path="url(#C)"><path fill="none" stroke="#000" stroke-linecap="round" stroke-linejoin="round" stroke-miterlimit="10" stroke-width=".5" d="M306.23438 479.90234l.7539.96875"/></g><g clip-path="url(#D)"><path fill="none" stroke="#000" stroke-linecap="round" stroke-linejoin="round" stroke-miterlimit="10" stroke-width=".5" d="M320.5586 479.72266l-6.92188 1.21093"/></g><g clip-path="url(#E)"><path fill="none" stroke="#000" stroke-linecap="round" stroke-linejoin="round" stroke-miterlimit="10" stroke-width=".5" d="M319.55078 479.89844l.7539.96875"/></g><g clip-path="url(#F)"><path fill="none" stroke="#000" stroke-linecap="round" stroke-linejoin="round" stroke-miterlimit="10" stroke-width=".5" d="M331.4336 480.32813l-.01954-.19922-.0586-.19141-.09374-.17578-.46094-.3789-.1914-.0586-.19922-.01953-.19922.01953-.1914.0586-.45704.3789-.09766.17578-.05859.1914-.01953.19923.01953.19921.0586.19141.09765.17969.45703.375.1914.0586.19923.01952.19921-.01953.19141-.0586.46094-.375.09375-.17968.0586-.1914.01952-.19922"/></g><g clip-path="url(#G)"><path fill="none" stroke="#000" stroke-linecap="round" stroke-linejoin="round" stroke-miterlimit="10" stroke-width=".5" d="M340.33203 481.23828l6.78906-1.8164"/></g><g clip-path="url(#H)"><path fill="none" stroke="#000" stroke-linecap="round" stroke-linejoin="round" stroke-miterlimit="10" stroke-width=".5" d="M353.8711 478.8086l6.33984 3.03906"/></g><path fill="none" stroke="#000" stroke-linecap="round" stroke-linejoin="round" stroke-miterlimit="10" stroke-width=".5" d="M354.79297 479.25l-.05078-1.22266"/><g clip-path="url(#I)"><path fill="none" stroke="#000" stroke-linecap="round" stroke-linejoin="round" stroke-miterlimit="10" stroke-width=".5" d="M366.98047 479.35547l6.75 1.94922"/></g><path fill="none" stroke="#000" stroke-linecap="round" stroke-linejoin="round" stroke-miterlimit="10" stroke-width=".5" d="M367.96094 479.63672l-.25-1.19922"/><g clip-path="url(#J)"><path fill="none" stroke="#000" stroke-linecap="round" stroke-linejoin="round" stroke-miterlimit="10" stroke-width=".5" d="M380.41797 479.0039l6.50781 2.64844"/></g><path fill="none" stroke="#000" stroke-linecap="round" stroke-linejoin="round" stroke-miterlimit="10" stroke-width=".5" d="M381.36328 479.39063l-.125-1.21875"/><g clip-path="url(#K)"><path fill="none" stroke="#000" stroke-linecap="round" stroke-linejoin="round" stroke-miterlimit="10" stroke-width=".5" d="M393.5 479.90234l6.97266.85157"/></g><g clip-path="url(#L)"><path fill="none" stroke="#000" stroke-linecap="round" stroke-linejoin="round" stroke-miterlimit="10" stroke-width=".5" d="M393.5 479.90234l-.88281-2.28906"/></g><g clip-path="url(#M)"><path fill="none" stroke="#000" stroke-linecap="round" stroke-linejoin="round" stroke-miterlimit="10" stroke-width=".5" d="M406.85938 481.02734l6.88671-1.39843"/></g><g clip-path="url(#N)"><path fill="none" stroke="#000" stroke-linecap="round" stroke-linejoin="round" stroke-miterlimit="10" stroke-width=".5" d="M407.85938 480.82422l-.77735-.94922"/></g><g clip-path="url(#O)"><path fill="none" stroke="#000" stroke-linecap="round" stroke-linejoin="round" stroke-miterlimit="10" stroke-width=".5" d="M420.15234 479.73828l6.92579 1.17969"/></g><g clip-path="url(#P)"><path fill="none" stroke="#000" stroke-linecap="round" stroke-linejoin="round" stroke-miterlimit="10" stroke-width=".5" d="M421.16016 479.91016l-.38672-1.16407"/></g><g clip-path="url(#Q)"><path fill="none" stroke="#000" stroke-linecap="round" stroke-linejoin="round" stroke-miterlimit="10" stroke-width=".5" d="M437.28516 476.83203l-.70704 6.99219"/></g><path fill="none" stroke="#000" stroke-linecap="round" stroke-linejoin="round" stroke-miterlimit="10" stroke-width=".5" d="M437.28516 476.83203l2.27343-.92578"/><g clip-path="url(#R)"><path fill="none" stroke="#000" stroke-linecap="round" stroke-linejoin="round" stroke-miterlimit="10" stroke-width=".5" d="M450.5625 476.82813l-.6289 7"/></g><path fill="none" stroke="#000" stroke-linecap="round" stroke-linejoin="round" stroke-miterlimit="10" stroke-width=".5" d="M450.5625 476.82813l2.25781-.95313"/><g clip-path="url(#S)"><path fill="none" stroke="#000" stroke-linecap="round" stroke-linejoin="round" stroke-miterlimit="10" stroke-width=".5" d="M463.48438 476.8164l.15625 7.02344"/></g><path fill="none" stroke="#000" stroke-linecap="round" stroke-linejoin="round" stroke-miterlimit="10" stroke-width=".5" d="M463.50781 477.83984l1.07031-.60156"/><g clip-path="url(#T)"><path fill="none" stroke="#000" stroke-linecap="round" stroke-linejoin="round" stroke-miterlimit="10" stroke-width=".5" d="M147.49219 467.39844l-6.98438-.76953"/></g><path fill="none" stroke="#000" stroke-linecap="round" stroke-linejoin="round" stroke-miterlimit="10" stroke-width=".5" d="M147.49219 467.39844l.91015 2.27734m12.40625-2.30469l-6.98828-.71484m6.98828.71484l.92578 2.27344m12.41016-2.65234l-7.02734.04297m7.02734-.04297l1.16406 2.16015m12.14844-2.1289l-7.02344-.01953m7.02344.01953l1.14844 2.16797m-2.16797-2.17188l.57031 1.08594m13.7539-1.40235l-7 .6211m7-.6211l1.33985 2.0547m-2.35937-1.96485l.66797 1.02734m13.62109-1.4336l-6.91406 1.25391m6.91406-1.2539l1.52344 1.92578m-2.52735-1.7461l.75782.96485m13.4414-1.6211l-6.67187 2.20704m6.67187-2.20703L229 467.60546m-2.7461-1.375l.88673.84766m13.0664-1.89453l-6 3.66016m6-3.66016l2.10938 1.25m-2.98438-.71484l1.05469.625m13.07031-1.26172l-5.8711 3.86328m5.8711-3.86328l2.15234 1.17578m-3.0078-.61328l1.07812.58984m13.13281-1.08984l-5.95313 3.73828m5.95313-3.73828l2.125 1.22266m-2.99219-.67969l1.0625.61328m13.16797-1.07422l-6.05078 3.57422m6.05078-3.57422l2.09375 1.28125m-2.97265-.76172l1.04687.64063m13.1875-1.08985l-6.13281 3.4336m6.13281-3.4336l2.0625 1.33204m11.15234-1.5l-5.92968 3.76953m5.0664-3.22266l1.0664.60547m13.52735-.21875l-6.76172 1.90234m5.77735-1.625l.84765.88672m13.3711-1.41406l-6.60156 2.40234m18.71875-4.01562l-4.20704 5.6289m3.59766-4.80859l1.21094.1875m10.6289-1.70703l-.03515 7.02734m.03125-6.0039l1.08594-.57032m11.10937-.27343l2.21094 6.66797m-1.88672-5.69922l.84765-.88672m10.5 1.0625l5.4961 4.3789m-4.69531-3.74218l.22656-1.20703m12.3125.54297l5.44922 4.43359m-5.44922-4.4336l.47656-2.41015m12.14063 3.83594l6.84765 1.58203m-6.84765-1.58203l-.63672-2.3672m14.1875 1.6797l6.375 2.95703m-5.44922-2.52735l-.0664-1.22656m17.77734-.51562l-4.26954 5.58203m4.26954-5.58203l2.42187.40234m10.6836-.55078l-3.85157 5.8789m3.85156-5.8789l2.44532.22656m-3.0039.6289l1.22265.11329m13.58203-.07422l-5.71094 4.08984"/><g clip-path="url(#U)"><path fill="none" stroke="#000" stroke-linecap="round" stroke-linejoin="round" stroke-miterlimit="10" stroke-width=".5" d="M466.41797 464.96875l2.19922 1.08984"/></g><path fill="none" stroke="#000" stroke-linecap="round" stroke-linejoin="round" stroke-miterlimit="10" stroke-width=".5" d="M465.58594 465.5625l1.10156.54688"/><g clip-path="url(#V)"><path fill="none" stroke="#000" stroke-linecap="round" stroke-linejoin="round" stroke-miterlimit="10" stroke-width=".5" d="M147.44531 454.38281l-6.89062-1.36719"/></g><path fill="none" stroke="#000" stroke-linecap="round" stroke-linejoin="round" stroke-miterlimit="10" stroke-width=".5" d="M147.44531 454.38281l.71094 2.34766m12.625-2.44922l-6.92969-1.16797m6.92969 1.16797l.77344 2.32813m12.5664-2.51954l-6.98047-.78515m6.98047.78515l.90235 2.28516m12.42969-2.8789l-7.01563.40624m7.01563-.40625l1.27343 2.09375m12.04688-1.85156l-7.02735-.08203m7.02735.08203l1.125 2.17969m-2.14844-2.1914l.5664 1.08984m13.73438-1.64063l-6.94922 1.04688m6.94922-1.04688l1.46094 1.97266m-2.47266-1.82031l.73047.98437m13.44922-1.73828l-6.65625 2.25m6.65625-2.25l1.78516 1.6836m-2.75391-1.35548l.89453.83985m12.9414-2.05469l-5.76171 4.01953m5.76172-4.01953l2.1836 1.11719m-3.01954-.53125l1.08984.5586m12.87891-1.38282l-5.39453 4.5m5.39453-4.5l2.27344.92578m-3.0586-.27344l1.13672.46485m12.76953-1.33203l-5.01172 4.92578m5.01172-4.92578l2.34375.73828m-3.0703-.01953l1.16796.36718m13.125-.80078l-5.51172 4.35938m5.51172-4.35938l2.25.98438m-3.05078-.35157l1.125.4961m12.89062-1.25l-5.3125 4.59765m5.3125-4.59765l2.28907.88672m-3.0586-.21485l1.14063.4414m12.70312-1.36718L301.3672 456.25m4.82812-5.10547l2.36719.65235m-3.07031.09375l1.1836.32421m12.98827-.91406l-5.13672 4.79688m5.13672-4.79688l2.32031.79688m10.64844-1.1211l-4.44531 5.4414m4.44531-5.4414l2.41016.48047m10.8164-.55078l-4.26953 5.58203m4.26953-5.58203l2.42188.40234m10.34766-.74218l-3.17579 6.26562m3.17579-6.26562l2.45312-.04688m9.01563-.32422l.51953 7.00781m-.51953-7.0078l2.07421-1.3086m9.04688 2.29687l4.90234 5.03125m-4.1875-4.30078l.375-1.16797m11.85157.86328l5.65234 4.17579m-5.65234-4.17578l.35937-2.42579m13.78516 1.6211l3.99218 5.78515m-3.99218-5.78515l1.1289-2.17578m13.36328 1.65234l1.64063 6.83203m-1.64063-6.83203l1.83594-1.625m13.46485 1.72656l-2.33204 6.6289m2.33204-6.6289l2.42578-.36328m12.44531 1.45703l-5.4414 4.44531m5.4414-4.4453l2.26172.94921m-3.05469-.30469l1.13281.47657m13.51563-.20704l-6.52344 2.61329"/><g clip-path="url(#W)"><path fill="none" stroke="#000" stroke-linecap="round" stroke-linejoin="round" stroke-miterlimit="10" stroke-width=".5" d="M466.82422 452.39063l1.875 1.58203"/></g><path fill="none" stroke="#000" stroke-linecap="round" stroke-linejoin="round" stroke-miterlimit="10" stroke-width=".5" d="M465.875 452.77344l.9375.78906"/><g clip-path="url(#X)"><path fill="none" stroke="#000" stroke-linecap="round" stroke-linejoin="round" stroke-miterlimit="10" stroke-width=".5" d="M147.38281 441.33594l-6.76562-1.90625"/></g><path fill="none" stroke="#000" stroke-linecap="round" stroke-linejoin="round" stroke-miterlimit="10" stroke-width=".5" d="M147.38281 441.33594l.51953 2.39844m12.77344-2.32813l-6.72266-2.04688m6.72266 2.04688l.47266 2.40625m12.9336-2.77734l-6.90235-1.3047m6.90234 1.3047l.73047 2.34375m-1.73438-2.53125l.36329 1.17187m14.01172-1.4375l-7.01563-.39453m7.01563.39453l1.02734 2.22656m-2.04688-2.28515l.51172 1.11328m13.82422-1.05078l-7.01562-.40625m7.01562.40625l1.02344 2.23047m12.29687-2.3711l-7.02734-.125m6.0039.10938l.5547 1.09375m13.39062-2.7539l-6.24219 3.22655m6.24219-3.22656l2.01953 1.39453m11.15234-1.64453l-5.95703 3.72656m5.95703-3.72656l2.125 1.22656m-2.99218-.68359l1.0625.61328m12.8203-1.5664l-5.35546 4.55078m5.35547-4.55078l2.28125.90234m-3.0625-.24219l1.14062.45313m12.26563-1.73438l-3.98047 5.78906m3.98047-5.78906l2.4375.27734m10.64844-.42187l-3.51954 6.08203m3.51954-6.08203l2.45312.08984m11.8711.78516l-5.53516 4.32813m5.53515-4.32813l2.2422 1m10.83984-1.26953l-5.07032 4.86719m5.07032-4.8672l2.33203.76563m-3.07031-.05859l1.16406.38281m12.8125-1.16406l-4.91797 5.01953m4.91797-5.01953l2.35156.6914m-3.0664.03907l1.17577.34375m12.07032-1.65234l-3.35156 6.17578m3.35156-6.17578l2.45312.01953m-2.9414.8789l1.22656.00782m12.9414-.6797l-4.07812 5.71876m4.07813-5.71875l2.43359.32031m-3.02735.51172l1.21875.16016m13.00782-.73829l-4.71485 5.21094m4.71485-5.21094l2.3789.59766m-3.0664.16016l1.1914.30078m11.56641-1.78516l-2.22266 6.66406m2.22266-6.66406l2.41797-.40625m-2.74219 1.375l1.21094-.20312m11.24219-.94532l.14453 7.02344m-.14453-7.02344l2.14453-1.1953m11.08594 1.19921l.3164 7.01953m-.3164-7.01953l2.11328-1.25m13.30468 1.83203l-3.89062 5.85156m3.89062-5.85156l2.44141.24219m10.85938-.25l-3.86329 5.8711m3.86329-5.8711l2.4453.22656m-3.0078.625l2.4453.23047m12.125-.48437l-5.24609 4.67187m5.2461-4.67187l2.30078.85156m-3.0625-.17188l2.30078.85157m12.36328-.6211l-6.42187 2.85156m6.42187-2.85156l1.9336 1.51563m-2.8672-1.10157l.96485.75782m13.41406-.83203l-6.68359 2.17187"/><g clip-path="url(#Y)"><path fill="none" stroke="#000" stroke-linecap="round" stroke-linejoin="round" stroke-miterlimit="10" stroke-width=".5" d="M466.90234 439.29688l1.76563 1.70703"/></g><path fill="none" stroke="#000" stroke-linecap="round" stroke-linejoin="round" stroke-miterlimit="10" stroke-width=".5" d="M465.92969 439.61328l.88281.85156"/><g clip-path="url(#Z)"><path fill="none" stroke="#000" stroke-linecap="round" stroke-linejoin="round" stroke-miterlimit="10" stroke-width=".5" d="M147.3789 428.03125l-6.7578-1.92578"/></g><path fill="none" stroke="#000" stroke-linecap="round" stroke-linejoin="round" stroke-miterlimit="10" stroke-width=".5" d="M147.3789 428.03125l.51173 2.40234m12.83593-2.53125l-6.82422-1.66797m6.82422 1.66797l.60547 2.37891m-1.59766-2.6211l.3047 1.1875m14.03515-1.08202l-6.88672-1.39454m6.88672 1.39453l.69922 2.35157m-1.70313-2.55469l.35156 1.17578m14.01172-1.24219l-6.97656-.85546m6.97656.85546l.87891 2.29297m12.46094-2.77344l-7.02735.10938m6.00391-.09375l.59375 1.07422m13.67188-.32813l-6.88282-1.41797m5.88281 1.21094l.34375 1.17578m13.79297-.375l-6.52343-2.60547m5.57422 2.22657l.1328 1.21875m13.98438-3.76563l-6.23047 3.2461m5.32422-2.77344l1.01172.69531m12.91797-1.63672l-5.64453 4.1836m5.64453-4.1836l2.21484 1.05078m10.71094-1.49609l-4.86719 5.07422m4.8672-5.07422l2.35937.67188m11.13672-.48047l-5.23047 4.6914m5.23047-4.6914l2.30468.84375m10.60938-1.22657l-4.42578 5.45704m4.42578-5.45704l2.40625.46875m10.92578-.45312l-4.46094 5.42578m4.46094-5.42578l2.40625.48437m10.92578-.47265l-4.4961 5.40234m4.4961-5.40234l2.40234.5m10.98047-.4414l-4.63281 5.28515m4.63281-5.28516l2.38672.5625m11.58203.20313l-5.9414 3.7539m5.9414-3.7539l2.13282 1.21484m-2.9961-.66797l1.0664.60938m13.5586-.10157l-6.83203 1.64454m6.83203-1.64454l1.6289 1.83594m-2.62109-1.59766l1.625 1.83594m12.44141-2.75781l-6.34766 3.01172m6.34766-3.01172l1.96875 1.46094M372.60547 426l1.97266 1.46094m12.02343-2.33203l-5.85937 3.8789m5.85937-3.8789l2.15625 1.16797m-3.01172-.60547l1.08204.58593m13.46093-.41015l-6.60547 2.40234m6.60547-2.40234l1.82032 1.64453m-2.78125-1.29297l1.82421 1.64063m12.01563-2.82032l-5.73438 4.0586m5.73438-4.0586l2.19531 1.10547m-3.02734-.51562l2.1914 1.10547m-3.02734-.51563l1.09766.55469m13.08984-2.54297l-4.14062 5.67578m4.14062-5.67578l2.42969.34375m-3.03125.48047l2.42578.34765m-3.03125.48047l2.42969.34375m12.60547-1.53906l-5.16797 4.76563m5.16797-4.76563l2.3125.8086m-3.06641-.1172l2.3164.8125m-3.0664-.11718l1.15625.40234m14.5664.16797l-6.97656.84766m6.97657-.84766l1.40625 2.01172m-2.42188-1.88672l1.40625 2.01172m12.94922-1.83984l-7.02344.2539"/><g clip-path="url(#aa)"><path fill="none" stroke="#000" stroke-linecap="round" stroke-linejoin="round" stroke-miterlimit="10" stroke-width=".5" d="M467.07422 426.9414l1.23047 2.1211"/></g><path fill="none" stroke="#000" stroke-linecap="round" stroke-linejoin="round" stroke-miterlimit="10" stroke-width=".5" d="M466.05078 426.97656l1.23047 2.125"/><g clip-path="url(#ab)"><path fill="none" stroke="#000" stroke-linecap="round" stroke-linejoin="round" stroke-miterlimit="10" stroke-width=".5" d="M147.35938 414.78516l-6.71875-2.0625"/></g><path fill="none" stroke="#000" stroke-linecap="round" stroke-linejoin="round" stroke-miterlimit="10" stroke-width=".5" d="M147.35938 414.78516l.46484 2.41015m12.86719-2.47656l-6.75391-1.9336m6.7539 1.9336l.51173 2.40234m-1.4922-2.68359l.25391 1.19922m14.08594-1.08985l-6.84375-1.58984m6.84375 1.58985l.63281 2.37109m12.77344-3.07422l-7.02344-.17969m7.02344.17969l1.09766 2.1914m11.86719-3.8164l-6.32032 3.07031m5.39844-2.625l.99219.72266m12.51953-2.16406l-4.875 5.0625m4.16797-4.32422l1.17969.33593m13.05859-.84765l-5.30469 4.60937m19.17188-3.74609L234 415.19531m5.47656-2.46484l.96875.7539m13.16406-1.40625l-6.17578 3.35157m6.17578-3.35156l2.04688 1.35546m11.55078-.66797l-6.74219 1.97657m6.7422-1.97656l1.71484 1.7539m-2.69532-1.46875l.85547.8789m13.21485-1.73827l-6.29297 3.125m6.29297-3.125l1.99609 1.42968m-2.91016-.97265l.9961.71094m12.9375-1.66016l-5.69922 4.10937m5.69922-4.10937l2.19921 1.08203m-3.03125-.48437l1.10157.53906m13.10547-1.05078l-5.82032 3.9375m5.82032-3.9375l2.16796 1.14843m11.52735-.41796l-6.57813 2.47265m6.57813-2.47265l1.83984 1.625m10.60938-2.9297l-4.84766 5.08595m4.84766-5.08594l2.36328.65625m11.9414 1.0586l-6.82812 1.65234m6.82812-1.65235l1.62891 1.83594m11.76563-.6211l-6.98829-.77343m6.98829.77344l.90625 2.27734m-1.92579-2.39063l.45704 1.14063m13.76953-2.35938l-6.76953 1.88672m6.76953-1.88672l1.6914 1.77735m-2.67578-1.5l1.6875 1.77734m12.42969-2.55469l-6.40625 2.89063m6.40625-2.89063l1.9414 1.5m-2.875-1.07812l1.94141 1.5m12.40235-1.6914l-6.59766 2.42577m6.59766-2.42578l1.82812 1.63672m-2.78906-1.28125l1.82812 1.63672m12.1211-2.65234l-5.94532 3.74609m5.94532-3.7461l2.1289 1.21876m-2.99218-.67188l2.1289 1.21875m-2.9961-.67578l1.06641.60938m13.69922-2.08204l-5.38672 4.51563m5.38672-4.51563l2.27344.92188m-3.05469-.26563l2.27344.92188m-3.0586-.26563l1.13673.46094m14.39453-.59766l-6.6836 2.16407m6.6836-2.16406l1.76562 1.70703m-2.73828-1.39063l1.76563 1.70313m-2.73829-1.39063l.88282.85547m14.52734-.79297l-6.98437.78125m6.98437-.78125l1.38672 2.02344m-2.40234-1.91016l1.38671 2.02344m-2.40234-1.91016l.6914 1.01172m14.66798-1.11328l-7.00782.53125"/><g clip-path="url(#ac)"><path fill="none" stroke="#000" stroke-linecap="round" stroke-linejoin="round" stroke-miterlimit="10" stroke-width=".5" d="M467.0664 413.48828l1.3125 2.07422"/></g><path fill="none" stroke="#000" stroke-linecap="round" stroke-linejoin="round" stroke-miterlimit="10" stroke-width=".5" d="M466.04688 413.5664l1.3125 2.07032"/><g clip-path="url(#ad)"><path fill="none" stroke="#000" stroke-linecap="round" stroke-linejoin="round" stroke-miterlimit="10" stroke-width=".5" d="M147.39844 401.33203l-6.79688-1.78906"/></g><path fill="none" stroke="#000" stroke-linecap="round" stroke-linejoin="round" stroke-miterlimit="10" stroke-width=".5" d="M147.39844 401.33203l.5625 2.39063m12.77734-2.5l-6.84766-1.57032m6.84766 1.57032l.64063 2.37109m-1.63672-2.59766l.32031 1.1836m14.07813-1.6211l-7.02344-.24218m7.02344.24218l1.07812 2.20704m12.15625-3.09766l-6.85938 1.53906m5.85938-1.3164l.80078.93359m13.16797-2.0664l-6.16797 3.36327m6.16797-3.36328l2.05078 1.35156m11.67969.02344l-7 .61328m7-.61328l1.33594 2.0586m11.99218-1.66797l-7.02343-.17188m7.02343.17188l1.09766 2.19531M226.3789 400.5l.55079 1.09766m13.77344-.83204l-6.9961-.65234m6.9961.65235l.9453 2.26171m-1.96093-2.35937l.94531 2.26562m13.39844-2.66796l-7.01953.34765m7.01953-.34765l1.25781 2.10546m-2.28125-2.05468l.6289 1.05078m13.71095-.99219l-7.02344.1289m7.02344-.1289l1.1914 2.14453m-2.21093-2.1289l.59375 1.07421m13.62109-1.9375l-6.78516 1.82032m6.78516-1.82032l1.67578 1.79688m11.69531-1.5664l-6.89453 1.35937m6.89453-1.35938l1.54688 1.90235m-2.55078-1.70313l.77343.94922m13.60157-.69922l-7.01172.46094m7.01172-.46094l1.29297 2.08985m11.98828-2.41016l-6.94141 1.10547m6.9414-1.10547l1.47657 1.95703m11.64453-2.67188l-6.55469 2.53125m6.55469-2.53125l1.85547 1.60547m11.66016-.84375l-6.95313 1.00782m6.95313-1.00782l1.44921 1.98047m9.3086 1.91406l-1.83985-6.78125m1.83985 6.78125l-1.78906 1.6797m17.41015-3.6797l-6.45312-2.78125m5.51562 2.37891l.09766 1.22266m14.16797-3.57031l-6.47657 2.72265m6.47657-2.72265l1.90234 1.55078m-2.84375-1.15625l.94922.77734m13.57422-.05469l-7.01172.48438m7.01172-.48438l1.29687 2.08203m-2.3164-2.01171l.64843 1.04296m13.69141-.95312l-7.02344.16406m7.02344-.16406l1.20313 2.14062m-2.22266-2.11718l.60156 1.0703m13.40235-2.5039l-6.35938 2.98828m6.35938-2.98828l1.96484 1.46875m-2.89063-1.03515l1.96485 1.47265m12.52734-1.16406l-6.86328 1.5m6.86328-1.5l1.58985 1.8711m-2.58594-1.65235l1.58594 1.8711m-2.58594-1.65235l.79297.9336m14.60156-.59766l-7.02734-.04297m7.02734.04297l1.13672 2.17187m-2.16016-2.17969l1.13672 2.17188m-2.16016-2.17969l.57032 1.08985m14.78906-1.22657l-7.02344.25782"/><g clip-path="url(#ae)"><path fill="none" stroke="#000" stroke-linecap="round" stroke-linejoin="round" stroke-miterlimit="10" stroke-width=".5" d="M467.07422 400.3086l1.23047 2.125"/></g><path fill="none" stroke="#000" stroke-linecap="round" stroke-linejoin="round" stroke-miterlimit="10" stroke-width=".5" d="M466.05078 400.34766l1.23047 2.12109"/><g clip-path="url(#af)"><path fill="none" stroke="#000" stroke-linecap="round" stroke-linejoin="round" stroke-miterlimit="10" stroke-width=".5" d="M147.26172 388.4336l-6.52344-2.6211"/></g><path fill="none" stroke="#000" stroke-linecap="round" stroke-linejoin="round" stroke-miterlimit="10" stroke-width=".5" d="M147.26172 388.4336l.26172 2.4375m13.20312-2.90235l-6.82031-1.6914m6.82031 1.6914l.59766 2.3789m12.76172-3.86327l-6.91016 1.27734m6.91016-1.27735l1.52344 1.92188m10.73046-3.85156l-4.79297 5.13672m4.09766-4.39063l1.1836.32031m13.07421-.8125l-5.28515 4.62891m4.51562-3.95703l1.14844.4375m13.78516 1.59765l-6.98438-.78515m6.98438.78515l.90234 2.28125m-1.91797-2.39453l.44922 1.14063m13.89063-1.74219l-7 .64453m7-.64453l1.34375 2.05469m-2.36329-1.96094l1.34375 2.05469m12.97657-2.25781l-6.97266.86718m6.97266-.86718l1.41015 2.0078m-2.42578-1.8828l.70703 1.0039m13.64063-.40625l-7.0039-.57812m7.0039.57812l.96875 2.2539m12.35547-2.54296h-7.02735m7.02735 0l1.15234 2.16406m12.16406-2.24219l-7.02734.15235m7.02734-.15235l1.19922 2.14063m11.97266-3.05469l-6.74219 1.98047m6.74219-1.98047l1.71484 1.7539m11.5586-1.8828l-6.66016 2.23828m6.66015-2.23828l1.78516 1.6875m11.71484-.45704l-7.02343-.22265m7.02343.22265l1.08204 2.20313m12.23046-2.47656l-7.01953.32422m7.01953-.32422l1.25 2.10937m12.0625-1.74219l-7.01562-.41015m5.9961.35156l.51171 1.11328m13.4336.35938l-6.23829-3.23828m6.23829 3.23828l.02343 2.45312m-.93359-2.92187l.01172 1.22656m14.58594-2.76563l-6.98438.77735m6.98438-.77735l1.3828 2.02735m-2.39843-1.91406l1.38281 2.02734m12.8047-2.8164l-6.69532 2.1289m6.69531-2.1289l1.7539 1.71484m-2.72656-1.40625l.875.85937m13.5586-.45312l-6.98828.70312m6.98828-.70312l1.36328 2.03906m11.69531-3.0586l-6.47265 2.73829m6.47265-2.73828l1.90235 1.54687m-2.84375-1.14844l.94921.77344m13.14063-1.51172l-6.14063 3.41797m6.14063-3.41797l2.0586 1.33594m-2.95313-.83594l1.03125.66406m13.54687-.16796l-6.8789 1.42578m6.8789-1.42578l1.57032 1.88671m-2.57032-1.67968l.78516.94531m13.58984-.11719l-7-.64453m7 .64453l.94922 2.26563m-1.96875-2.35938l.94922 2.26563m13.39844-2.38672l-7.02344-.21485"/><g clip-path="url(#ag)"><path fill="none" stroke="#000" stroke-linecap="round" stroke-linejoin="round" stroke-miterlimit="10" stroke-width=".5" d="M467.07422 387.23047l1.08203 2.20312"/></g><path fill="none" stroke="#000" stroke-linecap="round" stroke-linejoin="round" stroke-miterlimit="10" stroke-width=".5" d="M466.05078 387.19922l1.08594 2.20312"/><g clip-path="url(#ah)"><path fill="none" stroke="#000" stroke-linecap="round" stroke-linejoin="round" stroke-miterlimit="10" stroke-width=".5" d="M147.51172 373.8789l-7.02344-.14452"/></g><path fill="none" stroke="#000" stroke-linecap="round" stroke-linejoin="round" stroke-miterlimit="10" stroke-width=".5" d="M147.51172 373.8789l1.10937 2.19141m12.20313-2.39453l-7.01953.26563m6-.22657l.61719 1.0586m13.64843-1.67578l-6.88281 1.42187m6.88281-1.42187l1.5664 1.88671m11.82032-1.07421l-7.02344-.20313m7.02344.20313l1.08984 2.1953m-2.11328-2.22655l1.08985 2.19921m13.2461-2.11718l-7.01954-.3086m7.01953.3086l1.0586 2.21484m-2.07813-2.25781l.52734 1.10547m13.70313-.35156l-6.8086-1.73047m6.8086 1.73046l.58203 2.38672m-1.57422-2.63671l.29297 1.1914m14-.89062L220.5 372.89453m5.79688 1.5625l.27343 1.19531m14.14844-1.73828l-7.02344-.21094m7.02344.21094l1.08594 2.20313m12.22656-2.21094l-7.02344-.19531m7.02344.19531l1.09375 2.19922m12.21875-2.50781l-7.01563.42187m7.01563-.42187l1.27734 2.09375m12-2.4297l-6.9414 1.09376m6.9414-1.09375l1.47657 1.95703m11.85937-1.8164l-6.98047.8125m6.98047-.8125l1.39453 2.01952m-2.41015-1.90234l.6953 1.01172m13.65626-.82422l-7.02344.20313m7.02344-.20313l1.21484 2.13281m-2.23828-2.10546l.60938 1.0664m13.6875-1.53125l-6.94141 1.07813m6.9414-1.07813l1.47266 1.96485m-2.48047-1.8086l.73438.98047m13.63281-.55078l-7.02734-.09375m7.02734.09375l1.1211 2.1836m12.16015-1.76173l-6.96484-.9375m6.96484.9375l.85547 2.30079m-1.86719-2.4375l.42578 1.14843m13.90235-1.0039l-6.96485-.95313m6.96485.95313l.84765 2.30078m-1.86328-2.4414l.84766 2.30468m13.51562-2.64063h-7.02734m7.02734 0l1.15235 2.16797m-2.17578-2.16797L374 375.97656m-2.17578-2.16797l.57812 1.08204m14.70313-1.82813l-6.86719 1.49219m6.86719-1.49219l1.58594 1.875m-2.58594-1.65625l1.58594 1.8711m12.69921-2.21094l-6.80859 1.73046m6.8086-1.73046l1.65234 1.8164m-2.64063-1.5625l.82422.90625m13.23438-1.83203l-6.3164 3.07813m6.3164-3.07813l1.98437 1.4414m11.4414-1.1875l-6.54296 2.56641m6.54297-2.5664l1.86328 1.59765m11.58203-1.19921l-6.80078 1.77343m6.80078-1.77344l1.66016 1.8047m11.76172-.70704l-7.01563-.42187m7.01563.42187l1.01953 2.23047m-2.03907-2.29297l.50782 1.11719m13.82422-.99219l-7.00782-.54687"/><g clip-path="url(#ai)"><path fill="none" stroke="#000" stroke-linecap="round" stroke-linejoin="round" stroke-miterlimit="10" stroke-width=".5" d="M467.0664 374.08203l.97657 2.25"/></g><path fill="none" stroke="#000" stroke-linecap="round" stroke-linejoin="round" stroke-miterlimit="10" stroke-width=".5" d="M466.04688 374.0039l.48828 1.1211"/><g clip-path="url(#aj)"><path fill="none" stroke="#000" stroke-linecap="round" stroke-linejoin="round" stroke-miterlimit="10" stroke-width=".5" d="M147.48438 360.04297l-6.96875.90234"/></g><path fill="none" stroke="#000" stroke-linecap="round" stroke-linejoin="round" stroke-miterlimit="10" stroke-width=".5" d="M147.48438 360.04297l1.42187 2m-2.4375-1.8711l1.42188 2.00391m12.91796-1.32031l-6.98828-.72656m6.98828.72656l.92188 2.27344m-1.9375-2.37891l.92187 2.27344m13.38672-1.98047l-6.9414-1.09766m6.9414 1.09766l.80078 2.3164m-1.8125-2.47656l.80078 2.32031m13.5586-2.99218l-7.00781.5664m7.0078-.5664l1.32032 2.0664m-2.33984-1.98437l1.32031 2.0664m12.98047-2.41796l-6.9414 1.10156m6.9414-1.10156l1.47656 1.96093m-2.48828-1.80078l1.48047 1.96094m12.83594-.95313l-6.91797-1.23046m6.91797 1.23046l.7539 2.33204m12.48828-2.01172l-6.77343-1.875m6.77343 1.875l.53125 2.39844m12.8047-2.47266l-6.8125-1.72266m6.8125 1.72266l.58202 2.38281m12.82813-3.4961l-7.00781.50391m7.0078-.5039l1.3047 2.07812m11.93359-2.60937l-6.85156 1.5664m6.85156-1.5664l1.60547 1.85547m11.79687-1.15625l-7.02734.16406m7.02734-.16406l1.19922 2.14062m-2.22266-2.11328l.60157 1.0664m13.73828-.9375l-7.02735-.14452m7.02735.14453l1.10547 2.1875m-2.1289-2.21094l.55468 1.09765m13.78125-1.17187l-7.02735.04688m7.02735-.04688l1.16797 2.16016m-2.1875-2.15235l.58203 1.07813m13.69922-1.67188l-6.91797 1.22266m6.91797-1.22266l1.51172 1.9336m-2.51563-1.75782l.7539.96875m13.5-1.4453l-6.78515 1.82421m6.78516-1.82422l1.67578 1.79297m-2.66406-1.52734l.83593.89453m13.58594-.25h-7.02734m7.02734 0l1.15234 2.16797m-2.17187-2.16797l.57422 1.08594m13.76172-.97266l-7.02344-.22266m7.02344.22266l1.08203 2.19922m-2.10547-2.23438l1.08203 2.20313m13.2461-2.55469l-7.00782.54688m7.00781-.54688l1.31641 2.07031m-2.33594-1.98828l1.31641 2.07031m-2.33594-1.99218l.66016 1.03515m14.58203-1.83594l-6.78516 1.82813m6.78516-1.82813l1.67578 1.79297m-2.66016-1.52734l1.67579 1.79297m-2.66407-1.52735l.83594.89844m14.33203-1.79297l-6.54297 2.5586m6.54297-2.5586l1.86328 1.59766m-2.8164-1.22656l1.86328 1.59765m12.46094-1.82421l-6.65235 2.26562m6.65235-2.26563l1.78906 1.6797m-2.75781-1.34766l.89453.83593m13.46875-.88671l-6.8164 1.70312m6.8164-1.70313l1.64453 1.82422m-2.63672-1.57421l.82422.91015m13.52734-.96875l-6.90234 1.32422m6.90234-1.32422l1.53906 1.91016m-2.54296-1.71875l.76953.95312m13.5664-1.04297l-6.9375 1.1211m6.9375-1.1211l1.48438 1.95313m11.73828-2.36719l-6.75 1.94922"/><g clip-path="url(#ak)"><path fill="none" stroke="#000" stroke-linecap="round" stroke-linejoin="round" stroke-miterlimit="10" stroke-width=".5" d="M466.9375 359.51953l1.70703 1.76172"/></g><g clip-path="url(#al)"><path fill="none" stroke="#000" stroke-linecap="round" stroke-linejoin="round" stroke-miterlimit="10" stroke-width=".5" d="M147.48828 346.74219l-6.97656.8711"/></g><path fill="none" stroke="#000" stroke-linecap="round" stroke-linejoin="round" stroke-miterlimit="10" stroke-width=".5" d="M147.48828 346.74219l1.41016 2.00781m-2.42578-1.8789l.70312 1.0039m13.6211-.21484l-6.96094-.96485m6.96094.96485l.84375 2.30468m-1.85938-2.4453l.84375 2.30468m13.48828-2.17188l-6.96484-.94921m6.96484.94921l.84766 2.3047m-1.86328-2.44142l.84765 2.30079m13.51172-2.48829l-7.02344-.30078m7.02344.30079l1.0586 2.21484m-2.08204-2.25781l.53125 1.10546m13.75782-.62109l-6.92578-1.1836m6.92578 1.1836l.76953 2.33203m12.57422-2.53515l-6.98438-.77344m6.98438.77344l.90625 2.27734m12.42187-2.38672l-7.00781-.5586m7.00781.5586l.97656 2.25m12.28516-1.86328l-6.90234-1.33203m6.90234 1.33203l.71875 2.34375m12.64453-2.6836l-6.9961-.65234m6.9961.65235l.94531 2.26562m12.3672-2.25781l-6.9922-.66797m6.9922.66797l.9414 2.26562m-1.95703-2.36328l.46875 1.13281m13.83593-.8203l-6.9414-1.09766m6.9414 1.09765l.80079 2.32031m-1.8086-2.48046l.39844 1.16015m13.88672-.8086l-6.86719-1.48046m6.86719 1.48047l.67187 2.36328m-1.66797-2.57813l.33204 1.1797m14.04296-1.35157l-6.99218-.70703m6.99218.70703l.9297 2.26953m-1.94923-2.3711l.46485 1.13282m13.88672-1.36719l-7.02735-.03515m7.02735.03515l1.14062 2.17188m-2.16406-2.17578l1.14062 2.17187m13.16407-2.6836l-6.95704.9961m6.95704-.9961l1.4453 1.98438m-2.45702-1.83984l1.4453 1.98437m12.78907-2.5625l-6.77344 1.86329m6.77344-1.86329l1.6836 1.78516m-2.66797-1.51172l1.68359 1.78125m12.73047-1.40234l-7.0039.5586m7.0039-.5586l1.32031 2.07031m-2.33984-1.98828l1.32031 2.07031m13.02734-1.92187l-7.02734.09765m7.02734-.09765l1.1797 2.14843m-2.20313-2.1328l1.18359 2.14843m-2.20703-2.13672l.58984 1.07813m14.6836-1.82422l-6.85547 1.53906m6.85547-1.53906l1.60156 1.85937m-2.59766-1.63672l1.59766 1.85938m-2.59375-1.63672l.79687.9336m14.48829-1.48438l-6.8086 1.7461m6.8086-1.7461l1.65234 1.8164m-2.64453-1.5625l1.65625 1.8125m-2.64453-1.55859l.82422.90625M413.6914 346.25l-6.77735 1.85938m6.77735-1.85938l1.68359 1.78125m-2.67187-1.51172l1.68359 1.78516m-2.66797-1.51563l.83984.89063m14.40625-1.57031l-6.6953 2.13671m6.6953-2.13671l1.75391 1.71484m-2.73047-1.40235l1.75781 1.71485m-2.73046-1.40625l.8789.85937m14.42969-1.32812l-6.78516 1.83594m6.78516-1.83594L442 348.05078m-2.66406-1.52344l1.67969 1.78907m12.68359-1.78125l-6.90625 1.28515m6.90625-1.28515l1.53125 1.91796m-2.53516-1.73046l.76563.95703m13.48828-1.42969l-6.77734 1.85547"/><g clip-path="url(#am)"><path fill="none" stroke="#000" stroke-linecap="round" stroke-linejoin="round" stroke-miterlimit="10" stroke-width=".5" d="M466.94922 346.25l1.6836 1.78516"/></g><path fill="none" stroke="#000" stroke-linecap="round" stroke-linejoin="round" stroke-miterlimit="10" stroke-width=".5" d="M465.96484 346.51953l.83985.89453"/><g clip-path="url(#an)"><path fill="none" stroke="#000" stroke-linecap="round" stroke-linejoin="round" stroke-miterlimit="10" stroke-width=".5" d="M147.23047 332.48047l-6.46094 2.76172"/></g><path fill="none" stroke="#000" stroke-linecap="round" stroke-linejoin="round" stroke-miterlimit="10" stroke-width=".5" d="M146.28906 332.88281l.95703.76953m13.57422.4297l-7.01172-.44142m5.9922.37891l.5078 1.11719m13.59766-.0039l-6.55078-2.53907m6.55078 2.53906l.28906 2.4375m12.96094-2.28515l-6.42188-2.84375m6.42188 2.84375l.17969 2.44921m13.15625-2.49609l-6.46485-2.75m6.46485 2.75l.21094 2.44531m13.13671-2.52343l-6.53125-2.59375m6.53125 2.59375l.26953 2.4414m-1.21875-2.8164l.13282 1.21875m14.30469-1.41797l-6.875-1.44531m6.875 1.4453l.67968 2.35938m12.65235-2.4336l-6.90625-1.29687m6.90625 1.29688l.73047 2.33984m12.52734-2.09375l-6.79297-1.78906m6.79297 1.78906l.5625 2.39063M252.92969 334.5l.28125 1.1914m13.89453-.54687l-6.54297-2.5625m6.54297 2.5625l.28515 2.4375m-1.23437-2.8086l.14063 1.21876m14.23437-1.17188l-6.76172-1.91406m6.76172 1.91406l.51563 2.39844m12.78125-2.33203l-6.72266-2.04688m6.72265 2.04688l.46875 2.41015m12.4375-1.53125l-5.90625-3.80468m5.04688 3.25l-.10156 1.22265m14.6875-1.55468l-6.73047-2.03125m6.73047 2.03125l.47656 2.40625m12.9336-2.8047l-6.91798-1.23437m6.91797 1.23438l.75391 2.33203m-1.76172-2.51172l.3789 1.16797m13.86329-2.57031l-6.75781 1.92969m6.7578-1.9297l1.70313 1.76563m11.63282-1.6914l-6.79688 1.78125m6.79688-1.78125l1.66406 1.80078m-2.65625-1.54297l.83203.90234m13.57031.07813l-6.99219-.69531m6.9922.6953l.93359 2.26954m-1.94922-2.3711l.46484 1.13282m13.8789-1.5664l-7.01562.375m7.01563-.375l1.26562 2.10155m-2.28515-2.04687l1.26562 2.10156M400.5 333.81641l-7.02734.09375m7.02734-.09375l1.17969 2.14843m-2.20313-2.13671l.58985 1.07812m13.70312-1.61719l-6.9336 1.14844m6.9336-1.14844l1.48828 1.94922m-2.5-1.78125l.7461.97266M427.02344 333l-6.8125 1.72656M427.02344 333l1.64844 1.8164m-2.64063-1.5664l1.64844 1.8164m-2.64063-1.5664l.82422.91016m14.35547-1.78125l-6.57813 2.46875m6.57813-2.46875l1.84375 1.62109m-2.80078-1.26172l1.84375 1.6211m-2.80078-1.26172l.92187.80859m14.4336-1.1211l-6.82813 1.65626m6.82813-1.65625l1.6289 1.83593m-2.6211-1.59375l1.62892 1.83594m-2.6211-1.59765l.8125.91796m14.41797-1.64843l-6.6875 2.15625"/><g clip-path="url(#ao)"><path fill="none" stroke="#000" stroke-linecap="round" stroke-linejoin="round" stroke-miterlimit="10" stroke-width=".5" d="M466.90625 332.78516l1.76172 1.71093"/></g><path fill="none" stroke="#000" stroke-linecap="round" stroke-linejoin="round" stroke-miterlimit="10" stroke-width=".5" d="M465.9336 333.09766l1.76171 1.71093m-2.73437-1.39453l.8789.85156"/><g clip-path="url(#ap)"><path fill="none" stroke="#000" stroke-linecap="round" stroke-linejoin="round" stroke-miterlimit="10" stroke-width=".5" d="M141.15625 318.48438l5.6875 4.125"/></g><path fill="none" stroke="#000" stroke-linecap="round" stroke-linejoin="round" stroke-miterlimit="10" stroke-width=".5" d="M153.98828 321.67578l6.65234-2.25781m-5.68359 1.92969l-.89453-.83985m16.64063 3.55469l-.14844-7.02734m.1289 6.0039l-1.0703.59766m16.54296-.35938l-4.42188-5.46093m4.42188 5.46093l-.95703 2.25782m14.10156-2.12891l-4.08203-5.71875m4.08203 5.71875l-1.08984 2.19922m14.73047-2.46094l-4.73047-5.19531m4.73047 5.19531l-.82813 2.3125m14.84375-3.1914l-6.13281-3.4375m6.13281 3.4375l-.05469 2.45312m-.83984-2.95313l-.02734 1.22657m14.60937-1.71875l-6.8789-1.44922m6.8789 1.44922l.67969 2.35547m12.6289-2.33204l-6.86328-1.5m6.86328 1.5l.66407 2.36329m12.58594-2.10938l-6.73438-2.0039m6.73438 2.0039l.48437 2.40625m12.71094-2.0625l-6.49219-2.6914m6.49219 2.6914l.23437 2.4414m13.34375-3.94921l-7.01953.32422m7.01953-.32422l1.25 2.10937m12.03516-1.47265l-6.96094-.95313m6.96094.95313l.84766 2.30469m11.8125-.69141l-5.65235-4.17578m5.65235 4.17578l-.35938 2.42578m14.27734-3.7461l-6.85546-1.53906m6.85546 1.53907l.64844 2.36718m12.72656-2.72265l-6.97656-.82422m6.97656.82422l.89063 2.28515m12.3164-3.65625l-6.76171 1.91407m5.77734-1.63672l.85156.88672m13.55469-.6172l-6.97656.82032m5.96484-.69922l.69531 1.00781m13.22657-2.40625l-6.16407 3.375m6.16407-3.375l2.05078 1.34766m11.6875.10156l-7.01172.47657m5.99219-.40625l.64843 1.04296m6.98438.58594l6.39062-2.91797m12.07032-1.46484l-3.89844 5.84766m17.40234-5.71094l-4.27734 5.57422m3.65625-4.76563l1.21094.20313m13.72265.1914l-6.27343 3.16797m6.27343-3.16797l2.0039 1.41407m-2.91796-.95313l1.0039.70703m12.94532-1.6289l-5.71484 4.08984"/><g clip-path="url(#aq)"><path fill="none" stroke="#000" stroke-linecap="round" stroke-linejoin="round" stroke-miterlimit="10" stroke-width=".5" d="M466.41797 318.5039l2.19922 1.08985"/></g><g clip-path="url(#ar)"><path fill="none" stroke="#000" stroke-linecap="round" stroke-linejoin="round" stroke-miterlimit="10" stroke-width=".5" d="M465.58594 319.09766l2.19922 1.09375"/></g><path fill="none" stroke="#000" stroke-linecap="round" stroke-linejoin="round" stroke-miterlimit="10" stroke-width=".5" d="M464.75781 319.6914l1.09766.54688"/><path fill="#ff3030" fill-rule="evenodd" d="M317.91797 454.33203h7.69531V444.1875h-7.69531v10.14453"/><path fill="azure" fill-rule="evenodd" d="M319.7539 446.01953h.83204v5.73828h3.1914V452.5h-4.02343v-6.48047"/><path fill="#ff3030" fill-rule="evenodd" d="M167.01563 436.57813h7.6914v-10.14454h-7.6914v10.14454"/><path fill="azure" fill-rule="evenodd" d="M168.84766 428.26563h.83203v5.74218h3.19531v.73828h-4.02734v-6.48046"/><path fill="#00f" fill-rule="evenodd" d="M224.01953 414.38672h8.61719v-10.14453h-8.61719v10.14453"/><path fill="azure" fill-rule="evenodd" d="M225.85156 406.07422h.83594v2.82422h3.28516v-2.82422h.83203v6.48047h-.83203v-2.91406h-3.28516v2.91406h-.83594v-6.48047"/><path fill="#ff3030" fill-rule="evenodd" d="M171.45313 370.0039h7.6914v-10.14452h-7.6914v10.14453"/><path fill="azure" fill-rule="evenodd" d="M173.28516 361.6914h.83593v5.73829h3.19141v.74219h-4.02734v-6.48047"/><path fill="#ffffe0" fill-rule="evenodd" d="M341.74219 389.20313h22.1836v-10.19141h-22.1836v10.1914"/><path fill-rule="evenodd" d="M345.24219 380.84375h.51172v6.29688h-.78907v-4.48829h-1.38671v-.55859l.55859-.0625.2539-.05469.22657-.08984.20312-.14063.17578-.21093.14063-.29297.10547-.39844m4.8164 0l.22657.01953.21875.0586.21093.08593.19532.1211.18359.15234.17188.17578.30078.41797.24218.49219.1797.54687.11327.58203.03906.58985-.03906.59375-.11328.58203-.17969.55469-.24218.5039-.30079.42578-.17187.1797-.1836.15233-.1953.125-.21094.09375-.21875.0547-.22657.01952-.23046-.01953-.21875-.05469-.20704-.09375-.19921-.125-.1836-.15234-.17187-.17969-.30079-.42578-.24218-.5039-.17969-.5547-.11328-.58202-.03906-.59375h.83593l.02735.5625.08203.50781.125.4414.16406.375.1914.30079.21094.21875.22266.13672.22656.04687.22657-.04687.22265-.13672.21094-.21875.1875-.30078.16406-.375.125-.44141.08203-.50781.03125-.5625-.03125-.5625-.08203-.5-.125-.4336-.16406-.36718-.1875-.29297-.21094-.21485-.22265-.1289-.22657-.04688-.22656.04688-.22265.1289-.21094.21485-.1914.29297-.16407.36718-.125.4336-.08203.5-.02735.5625h-.83593l.03906-.58985.11328-.58203.17969-.54687.24219-.49219.30078-.41797.17187-.17578.1836-.15234.19921-.1211.20704-.08594.21875-.05859.23046-.01953m5.08985 0h.50781v6.29688h-.78516v-4.48829h-1.39062v-.55859l.5625-.0625.25-.05469.23047-.08984.20312-.14063.17578-.21093.14063-.29297.10547-.39844m2.82422 2.17578h.78515l.01953-.3164.0586-.28516.10156-.2539.14063-.21485.17968-.17188.22266-.1289.26562-.08203.3086-.02735.23828.02344.22265.0625.20313.10156.17969.13672.14844.17188.11328.20703.07421.23828.02344.26172-.01953.26953-.0664.22656-.10938.1914-.15625.16798-.20313.16406-.24609.16797-.63281.38672-.53906.3125-.4375.3164-.34375.32422-.26563.33594-.1914.35156-.125.3711-.06641.39453-.02344.41796h4.21485v-.74218h-3.33594l.08594-.28125.11328-.23828.14843-.20313.1875-.17969.23047-.17187.27735-.17578.71875-.41406.41406-.20704.34375-.23046.28125-.25.22265-.26954.16016-.27734.11328-.28125.0625-.28516.01953-.28125-.03906-.38671-.1211-.34766-.1914-.30469-.25-.26562-.30078-.21094-.34766-.16016-.3789-.09765-.40625-.03516-.4336.03516-.39843.09765-.35547.16797-.30469.23438-.25.30468-.1836.3711-.11718.44922-.03906.51562"/><path fill="#ffffe0" fill-rule="evenodd" d="M206.95313 352.48438h22.17968v-10.19532h-22.17969v10.19531"/><path fill-rule="evenodd" d="M210.45313 344.125h.5078v6.29297h-.78515v-4.48828h-1.39062v-.5586l.5625-.0625.25-.05468.23047-.08985.20312-.14062.17578-.21094.14063-.29297.10547-.39453m4.8125 0l.23046.01563.21875.05859.20703.08984.19532.11719.1875.15234.17187.17579.30078.41796.2422.4961.17968.54297.11328.58203.03516.58984-.03516.59375-.11328.58203-.17969.55469-.24219.5039-.30078.42579-.17187.17969-.1875.15234-.19531.125-.20704.09375-.21875.05469-.23047.01953-.22656-.01953-.22265-.0547-.20703-.09374-.19532-.125-.1836-.15235-.17187-.17968-.30078-.42578-.2461-.50391-.17968-.55469-.10937-.58203-.03907-.59375h.83203l.03125.5625.08204.50781.125.44141.16015.375.1914.30078.21095.22266.22265.13672.22656.04687.22657-.04687.22265-.13672.21094-.22266.1914-.30078.16407-.375.125-.4414.08203-.50782.02734-.5625-.02734-.5625-.08203-.5-.125-.4336-.16406-.36718-.1914-.29297-.21095-.21484-.22265-.1289-.22656-.04688-.22657.04687-.22265.1289-.21094.21485-.1914.29297-.16016.36719-.125.4336-.08203.5-.03125.5625h-.83204l.03907-.58985.10937-.58203.17969-.54297.2461-.4961.30077-.41796.17188-.17579.1836-.15234.1953-.11719.20704-.08984.22265-.0586.22656-.01562m5.09375 0h.50782v6.29297h-.78516v-4.48828h-1.39062v-.5586l.55859-.0625.2539-.05468.23048-.08985.20312-.14062.17188-.21094.14453-.29297.10547-.39453m2.8203 2.17188h.78907l.01953-.3125.0586-.28907.09765-.25.14063-.21875.18359-.17187.22266-.1289.26562-.08204.3086-.02734.23437.02343.22656.0625.20313.10157.17969.13671.14843.17579.11328.20312.07032.23828.02734.26172-.02344.26953-.0664.22656-.10938.19141-.15625.17188-.19922.16015-.2461.16797-.63671.38672-.53516.3125-.4375.3164-.34765.32813-.26172.33594-.1914.34765-.125.3711-.07032.39453-.01953.41797h4.21094v-.74219h-3.33203l.08203-.28125.11328-.23828.14844-.20313.1875-.17968.23046-.16797.28125-.17578.71485-.41797.41797-.20703.34375-.23047.28125-.25.21875-.26953.16406-.27735.11328-.28125.0625-.28515.01953-.28125-.04297-.38281-.11719-.35157-.1914-.30469-.25-.26562-.30078-.21094-.34766-.16015-.3789-.09766-.40625-.03125-.4375.03125-.39844.09766-.35156.16796-.3086.23438-.2461.30469-.1875.3711-.11327.44921-.04297.51563"/><path fill="#ffffe0" fill-rule="evenodd" d="M350.6211 344.35547h22.17968v-10.1914H350.6211v10.1914"/><path fill-rule="evenodd" d="M354.1211 335.9961h.5078v6.29687h-.78515v-4.49219h-1.39063v-.55469l.5586-.0625.2539-.05468.23047-.08985.20313-.14062.17187-.21094.14454-.29297.10546-.39844m4.8125 0l.23047.01954.21875.05468.20703.08985.19532.12109.18359.15234.17188.17579.30468.41796.24219.4922.17969.54687.10937.57812.03906.59375-.03906.59375-.10937.58203-.17969.55469-.24219.5-.30469.42969-.17187.17969-.1836.15234-.1953.125-.20704.08984-.21875.0586-.23047.01953-.23046-.01953-.21875-.0586-.20704-.08984-.1953-.125-.1836-.15235-.17188-.17968-.30469-.42969-.24218-.5-.17969-.55469-.10938-.58203-.03906-.59375h.83203l.03125.5625.07813.5039.1289.44532.16016.375.1914.30078.21094.21875.22266.13672.22656.04688.22657-.04688.22265-.13672.21094-.21875.1914-.30078.16016-.375.1289-.44531.08204-.5039.02734-.5625-.02734-.5625-.08203-.5-.1289-.4375-.16016-.36329-.19141-.29297-.21094-.21484-.22265-.1289-.22657-.04688-.22656.04687-.22265.1289-.21094.21485-.1914.29297-.16017.36328-.1289.4375-.07813.5-.03125.5625h-.83203l.03906-.59375.10938-.57812.17969-.54688.24219-.49219.30468-.41796.17188-.17579.1836-.15234.1953-.1211.20704-.08984.21875-.05469.23046-.01953m5.08985 0h.51172v6.29688h-.78907v-4.49219h-1.38671v-.55469l.55859-.0625.2539-.05468.22657-.08985.20703-.14062.17187-.21094.14063-.29297.10547-.39844m6.80469 1.6211h-.78516l-.05078-.21094-.08203-.1875-.10938-.16016-.1289-.1289-.14844-.10547-.15625-.07422-.17188-.04297-.17187-.01562-.32813.03906-.28515.1211-.2461.1953-.20312.26954-.16016.33984-.11719.40234-.0703.46875-.02345.52344.1875-.20312.1875-.15625.1836-.125.1875-.08594.1875-.0625.1914-.03516.40235-.02344.3086.02735.3203.09375.3125.15625.29688.21875.2539.28515.19922.35157.07422.19922.05078.21875.03125.23437.00391.25-.78906.04688-.02735-.25782-.07421-.2539-.125-.23438-.16016-.21094-.1914-.17578-.22266-.13671-.23829-.08985-.2539-.03125-.25781.03125-.23829.08985-.21875.13671-.1953.17579-.16016.21093-.1211.23438-.07812.2539-.02735.25782.02735.2578.07812.25.1211.23438.16015.21094.19531.17969.21875.13672.23829.08594.2578.03125.25392-.03125.23828-.08594.22265-.13672.1914-.17969.16017-.21094.125-.23437.07421-.25.02735-.25781.78906-.04688-.03125.3711-.09375.37109-.15625.35937-.22266.32813-.28906.28125-.17187.1211-.1875.10156-.20704.08203-.22265.0625-.24219.03906-.25781.01172-.28516-.01563-.25781-.04687-.23828-.07813-.21875-.10547-.1914-.1289-.17579-.15625-.15234-.17969-.13672-.20313-.11719-.22265-.09765-.24219-.14844-.53515-.08594-.59375-.02344-.64063.03516-.74219.11719-.66406.18359-.57813.1211-.2539.13671-.23047.15235-.20703.17187-.1836.1875-.15234.19922-.13281.21875-.10156.23438-.07032.24609-.04687.26172-.01563.36719.03516.33203.09375.29687.15234.2539.19922.21094.24219.16797.27344.11329.30469.0625.3203"/></g></defs><use xlink:href="#as"/></svg>