<svg xmlns="http://www.w3.org/2000/svg" role="img" xmlns:xlink="http://www.w3.org/1999/xlink" viewBox="142.45 309.95 326.84 171.84"><defs><clipPath id="a"><path d="M144 311.67188h1v168.65625h-1zm0 0"/></clipPath><clipPath id="b"><path d="M144 311.67188h324v168.65625H144zm0 0"/></clipPath><clipPath id="c"><path d="M384 476h13v4.32813h-13zm0 0"/></clipPath><clipPath id="d"><path d="M386 477h10v3.32813h-10zm0 0"/></clipPath><clipPath id="e"><path d="M390 479h3v1.32813h-3zm0 0"/></clipPath><clipPath id="f"><path d="M467 311.67188h1v168.65625h-1zm0 0"/></clipPath><clipPath id="g"><path d="M144 479h4v1.32813h-4zm0 0"/></clipPath><clipPath id="h"><path d="M147 480h2v.32813h-2zm0 0"/></clipPath><clipPath id="i"><path d="M153 480h9v.32813h-9zm0 0"/></clipPath><clipPath id="j"><path d="M160 480h3v.32813h-3zm0 0"/></clipPath><clipPath id="k"><path d="M166 479h9v1.32813h-9zm0 0"/></clipPath><clipPath id="l"><path d="M173 479h3v1.32813h-3zm0 0"/></clipPath><clipPath id="m"><path d="M180 479h8v1.32813h-8zm0 0"/></clipPath><clipPath id="n"><path d="M187 479h3v1.32813h-3zm0 0"/></clipPath><clipPath id="o"><path d="M193 478h8v2.32813h-8zm0 0"/></clipPath><clipPath id="p"><path d="M200 478h3v2.32813h-3zm0 0"/></clipPath><clipPath id="q"><path d="M207 478h7v2.32813h-7zm0 0"/></clipPath><clipPath id="r"><path d="M213 478h3v2.32813h-3zm0 0"/></clipPath><clipPath id="s"><path d="M220 478h8v2.32813h-8zm0 0"/></clipPath><clipPath id="t"><path d="M226 478h4v2.32813h-4zm0 0"/></clipPath><clipPath id="u"><path d="M225 478h3v2.32813h-3zm0 0"/></clipPath><clipPath id="v"><path d="M233 478h8v2.32813h-8zm0 0"/></clipPath><clipPath id="w"><path d="M240 478h3v2.32813h-3zm0 0"/></clipPath><clipPath id="x"><path d="M239 478h2v2.32813h-2zm0 0"/></clipPath><clipPath id="y"><path d="M247 478h7v2.32813h-7zm0 0"/></clipPath><clipPath id="z"><path d="M253 478h3v2.32813h-3zm0 0"/></clipPath><clipPath id="A"><path d="M260 478h8v2.32813h-8zm0 0"/></clipPath><clipPath id="B"><path d="M266 478h4v2.32813h-4zm0 0"/></clipPath><clipPath id="C"><path d="M273 478h8v2.32813h-8zm0 0"/></clipPath><clipPath id="D"><path d="M287 477h7v3.32813h-7zm0 0"/></clipPath><clipPath id="E"><path d="M301 477h6v3.32813h-6zm0 0"/></clipPath><clipPath id="F"><path d="M315 476h4v4.32813h-4zm0 0"/></clipPath><clipPath id="G"><path d="M329 476h2v4.32813h-2zm0 0"/></clipPath><clipPath id="H"><path d="M341 477h6v3.32813h-6zm0 0"/></clipPath><clipPath id="I"><path d="M354 477h7v3.32813h-7zm0 0"/></clipPath><clipPath id="J"><path d="M367 478h7v2.32813h-7zm0 0"/></clipPath><clipPath id="K"><path d="M379 479h9v1.32813h-9zm0 0"/></clipPath><clipPath id="L"><path d="M380 479h2v1.32813h-2zm0 0"/></clipPath><clipPath id="M"><path d="M393 478h8v2.32813h-8zm0 0"/></clipPath><clipPath id="N"><path d="M393 480h3v.32813h-3zm0 0"/></clipPath><clipPath id="O"><path d="M406 479h8v1.32813h-8zm0 0"/></clipPath><clipPath id="P"><path d="M406 479h3v1.32813h-3zm0 0"/></clipPath><clipPath id="Q"><path d="M420 478h8v2.32813h-8zm0 0"/></clipPath><clipPath id="R"><path d="M436 476h2v4.32813h-2zm0 0"/></clipPath><clipPath id="S"><path d="M448 476h4v4.32813h-4zm0 0"/></clipPath><clipPath id="T"><path d="M461 477h6v3.32813h-6zm0 0"/></clipPath><clipPath id="U"><path d="M144 466h4v2h-4zm0 0"/></clipPath><clipPath id="V"><path d="M144 453h4v2h-4zm0 0"/></clipPath><clipPath id="W"><path d="M144 439h4v3h-4zm0 0"/></clipPath><clipPath id="X"><path d="M144 425h4v4h-4zm0 0"/></clipPath><clipPath id="Y"><path d="M466 424h2v3h-2zm0 0"/></clipPath><clipPath id="Z"><path d="M144 412h4v4h-4zm0 0"/></clipPath><clipPath id="aa"><path d="M144 398h4v5h-4zm0 0"/></clipPath><clipPath id="ab"><path d="M465 397h3v3h-3zm0 0"/></clipPath><clipPath id="ac"><path d="M144 386h4v3h-4zm0 0"/></clipPath><clipPath id="ad"><path d="M466 384h2v3h-2zm0 0"/></clipPath><clipPath id="ae"><path d="M144 373h4v2h-4zm0 0"/></clipPath><clipPath id="af"><path d="M465 370h3v3h-3zm0 0"/></clipPath><clipPath id="ag"><path d="M144 359h4v3h-4zm0 0"/></clipPath><clipPath id="ah"><path d="M466 358h2v3h-2zm0 0"/></clipPath><clipPath id="ai"><path d="M144 346h4v2h-4zm0 0"/></clipPath><clipPath id="aj"><path d="M466 345h2v3h-2zm0 0"/></clipPath><clipPath id="ak"><path d="M465 345h3v4h-3zm0 0"/></clipPath><clipPath id="al"><path d="M144 331h4v5h-4zm0 0"/></clipPath><clipPath id="am"><path d="M466 332h2v3h-2zm0 0"/></clipPath><clipPath id="an"><path d="M144 316h1v9h-1zm0 0"/></clipPath><clipPath id="ao"><path d="M144 315h2v3h-2zm0 0"/></clipPath><clipPath id="ap"><path d="M465 318h3v2h-3zm0 0"/></clipPath><g id="aq" clip-path="url(#clip1)"><path fill="#fff" fill-opacity="0" fill-rule="evenodd" d="M0 0h1000v1000H0zm0 0"/><path fill="#d3d3d3" fill-opacity="0" fill-rule="evenodd" d="M162.15234 355.86719l-.23437.29297.0586.23437.11718.17188.17578.23437.29297.34766.11328.0586.11719-.17188.0586-.23438.17577-.17578.46485-.17578h.69922l.23437.29297.28906.8164.0586.17579.17578.23046.35156.23438.69922.69922.17188.17578.23437.34765.23438.41016.28906.58203.41015.46485.23047.23437.23438.17578.11719.23047.17578.29297.17187 1.16406v.23438l.0586.28906.05859.11719.11719.11719.34765.41015.11719.17188.17578.17578.17578.23437.11719.17188.17188.35156.05859.23438.23437.40625.23438-.0586-.17578.17578-.0586.92969h-.58203l-.23437-.11328-.34766.11328-.11719.11719-.05859.29297-.0586.17578-.11718.17187-.46484.29297-.0586.23438-.0586.11328v.64453l.0586.17187v.41016l.0586.0586v.40624l.05859.40625.11719.17579.05859.05859.23047.64062-.0586.29297v.69922l-.05859.58203v.23438l-.0586.23047-.05468.35156v1.92187l.05469.1172h.42578l-.36719.11718-.02344.35156.89063 1.16797 1.74219.53906 1.33984.35938v.53906l.08984.8086.53516.71484 1.51953.26953.89063-.08594.08984 1.16406.53516.1797 1.16015-.1797 2.05469-.98437 1.16016-.36328 1.8789-.17578 1.69531-.1797-.17968.71876-1.51563.08594-1.25.08984-.80469.26953-1.07421.8086.26953.71875.53515.89843-.17968.625-.26563.8086.26563 1.07812.625.89844.80468.17969 1.25-.1797-.26562.72267.09766.5039.05468.29297v.17188l.0586.29296v.40625l.17578.1172.35156.11718h.40625l.29297-.17578.11328-.11719.0586-.11719.11718-.23047.0586-.17578.35156-.46484.23047-.17578.17578-.0586.17578.0586.0586.17578.11718.98828.05469.46875.0586.17188.11718.23437.17578.0586.8164.05859h.28907l.11719.23437.05859.40625.0586.35156v1.10547l.11718.29297.11719.34766.28906.69922.17578.35156.58203.7539.35157.17579.17187.0586.46875.23437.64063.46484.34765.23438.29297.17578.29297.05468.23047.0625.8164.34766.29297.17578.11328.17188.35157.35156.11719.17578.52343.64063v.28906l.0586.35156v.34766l.05859.35156.0586.28906.11718.0586.17188.05859h.17578l.58203.23437.17578.1172.17578.28905.17578.23438.11328.23437.29297.23047.11719.11719v.41016l.0586.05468.28906.23438.23437.11719.0586.11718.11718.17188.0586.11719.23047.23437.05859.17578.23437.0586.1172.05859-.1172.11328-.05859.11719v.11719l-.11719.29296-.11719.28907v.58203l.17579.11719.11718.05859.0586.11719.11719.11719.11328.05859.17578.34765.0586.35157.05858.40625v.17578l-.05859.17578-.11719.69922v.17187l.1172.17579.29296.29296h.40625l.17578.1172.11719.17187.11719.29296v.23438h-.52735l-.23047-.23438h-.23437l-.17578.0586-.0586.69922.0586.34765.11719.17579.17578.41015.11718.23047.28907.46875.17578.05469h.52344l.23437.0586.75781.64062.0586.29296v.23438l.05859.0586.23047.34765v.35156l-.11719.17188v.29297l.29297.28906.29297.17578.17187.0586.29297.17577.29297.1172.58203.40624.28906.23438.29297.17578.21875.16015.01563.01172.23047.17579.64062.52343.17578.23438.1172.17578.17577.17578.11328.17188v.64062l.1172.17578.46874.11719.58203.11719.23438.05859.23047.11328.29297.11719.11328.0586.58593.35156.28907.17187.17578.0625.17578.05469.17578.0586.69922.35155.28906.17579.23438.05468.28906.17578.23437.1172.64063.40624.29297.11719.17187.0586.23438.05859.41015.05859.23047.0586.23438.11718.0586.17188-.41017.17578.46875.0586.0586.29296.11328.23438.17578.05468.23438.0586.17578.05859.40625.11719.64062.23437.11719.17188.0586.23437v.17578l-.0586.1172-.0586.40624.23438.23438.11719.05859.34766.11719.64062.23047.17578.11718.28906.1172.17578.17577.23438.46485.58203 1.10546.17578.17579.34766.17578.17578.11719.35156.11718 1.04688.52344.23437.0586.46485.11327.29297.0586.46484.17578.75781.58203.23438.23438.34765.46484.17578.17578.28907.23438.8164.69921.29297.17579.28906.28906.29297.17578.29297.28906.69531.64063.17578.17578.29297.23437.28907.23438.46875.28906.64062.58203.34766.23438.23437.29297.34766.34765.35156.46485.9336.99218.34765.40625.11719.17579.23437.05859.11328.11719.64454.17578.23047.11328.23437.0586.29297.17577.23047.1172.9336.69921.40624.40625.23438.17578.40625.17578.23437.11719.8164.34766.34766.23437.23438.11719.29297.28906.23047.11719.7578.35156.35157.17188.23047.05859.29297.11719.23437.0586.8711.17577h.8164l.46875.23047.17188.0586.875.69921.46484.1172.29297.05858.17578.0586.23047.0586.46875.05859.34766.05859.35156.0586.40625.05859h.29297l.17187.0586v.23046l.17578.17578h.29297l.34766.0586.35156.05859.69922.11719h.64063l.46484-.23438.29297-.17578.17187-.11719.41016-.17187.28906-.17578.9336-.46485.46875-.29297.52343-.29296.46485-.17188.46484-.17578 1.05078-.46485.28906-.11718.41016-.11719.28906-.11719.52735-.17578 1.51562-.69922.58203-.34765.28907-.0586.29297-.0586.34765-.11718.875-.23047.35156-.11719h.11329l.23437-.05859.875-.23437.23438-.0586h.8125l.35156-.0586.8164-.11718.17188-.0586.35156-.05468.29297-.0586.23047-.05859.8164-.17578.17579-.0586h.34765l.23438-.05859.46484-.11718.75781-.17188.23438-.0586h.34765l.41016-.11718.28906-.0586 1.28516-.05859h.28906l.41016-.0586.23047-.05858h.17578l.875-.1172h.40625l.41015-.11718h.34766l.35156-.11328.8711-.0586h1.75l1.04687.28907.41016.11719.28906.11718.35156.11719.28907.11719 1.05078.17187.28906.0586h.29297l.29297.05859.17187.0586.41016.05859.17187.0586.1172.05858h.11718l.11719.0586.35156.0586h.11328l.41016.0664 1.92187.39453 1.92578.39453 1.51953.44922 1.69532.71875 2.14453.80469 1.60547-.71875 1.42968-.80469 1.16016-1.07813 1.25-.44921 3.03516-.71875 1.875-.35938 2.14453-1.34765 2.23437-1.25391 2.5-1.25781 1.69531-.44922 1.78516-.17969 1.16016-.26953.625.53906 1.33984-.26953.71485-.98828.98437-1.34375.44531-.17969.80469-.35937 1.875-.53907 1.78516-.44921 1.25-.26954 1.16015-.08984 1.69922-.08984 1.96094-.26954 1.25-.08984h.53906l.625-.08984h.89063l2.14453-.17969 2.41015-.17969 2.58985-.08984 1.69531.17969 1.60938.08984 1.42968.35938 1.16016.71875 1.875.98828 1.16015 1.52734.26563.71484.6289.08985.35548.89844.53515.53906.53516 1.52734 1.07422.35938h.53515l-.80469.53515.08985 1.70703.71484 2.69532.89063.80468.89453.98829.71484 1.2578 1.78516.53907 1.51953-.17969.35547 1.34375 1.60937-.80469.98047-.53906.26953.26953.31641-.21484.21875-.14453.80078.44922.44922-.35938h.35547l.53515-.26953.53907-.71875.53515-.26953.625-.98828 1.16016.44922.83984.3711 1.39454.61718 1.6953-.17969h1.60548l1.78515.08985.17969-1.70704.53516-1.34375.80468.26954.4922.84765.40233.40625-.08984.53906v.35938l.71485.44922.71093-.26953h1.42969l.35938.98828.4453 1.25781.71485 1.34375 1.25.6289 1.69531.62891.71485-.17969.17969-.53906.98046-.08984.44922.35937.08594 1.25782-.26563.6289-.53515.17969v.53906l.71484.98438.26563.53906.98437.98828.80078 1.07813-.26562.35937-.08985.89844-.625 2.33203-.35546 2.0664-.08985 1.79298-.17969.71875-.08984.53906v1.4375l-.98047 1.88281-.35937 1.70703-.53516.89844-.80469 1.16797-.26562.53906 2.05469 1.2539.08593.35938-.35546.53906-.08985-.17968v.80859l.08985 1.4375-.44532.71484-1.07422.09375-.26562.71485.53515.89844.8047.71875 1.16015.80859 1.33984.26953.44531.35938-.35546.44921-1.78907-.08984-1.25-.44922-.71484-.71875-.625-.08984-.17578 3.58984-.1875 1.3086h89.35937V311.70313h-55.26953v49.08203l.76172.125 3.28906.54296 2.02344 2.83594v2.7539l2.35156.33204 2.34766.33203h4.05078l-1.3789 4.16016-2.02344.70703-2.02344.70312-.54297.34375-2.59375 1.6172-.1875.11718-2.02344-2.07813-.73046-2.74218-2.67188-2.07813-1.375-3.5-.0664-.08203-1.95704-2.67188 2.75-1.41796v-49.08204H294.42187v91.41407l.1172.03125.1328.01172.07422.07421.10547.04688.08985.0586.08593.05859.08985.0586.29687.29687.0586.08984.03125.11719.02734.11719.01563.13671-.03125.1172-.0586.08983-.0586.08594-.04296.10547-.04688.10156-.02734.1211v.14453l.17578.26953.14844.14844.07422.08594.07422.07421.04296.10547.0625.08985.0586.08593.04297.10547.0586.08985.04687.10156.04296.10547.0586.08594.11719.17968.07421.07422.0625.08594.0586.08984.04297.10547.0586.08985.05858.08593.0625.08985.0586.08984.04297.10156.11719.17969.07421.07422.0586.08594.07422.07421.08984.0586.10547.04687h.14844l.1328-.01562.13282.01562.10156-.04687.07422-.07422.04688-.10156-.01563-.13281v-.14844l-.04687-.10547-.02735-.11719-.04687-.10156-.02735-.1211-.04296-.10156-.0625-.08984-.04297-.10156-.04297-.10547-.03125-.11719-.01563-.13281-.01171-.13672.08593-.0586.0586-.08593.12109-.03125.04297.10547.01562.1328v.1172l.0586.10156.0586.08984.08983.0586.14844.14843.0586.08985.04296.10547-.01171.10156.08593.0586.10547.04687.08594.0586.08984.05858.07422.07422-.11719.02735-.10546.04687-.08594.0586-.07422.07421-.0586.08985-.0625.08594-.02734.12109-.04687.10156-.04297.10547-.03125.11719-.01172.13281-.01563.13281v.14844l.02735.11719.04687.10547.04297.10156.0586.08984.07421.07422.08985.0586.07422.07421.08984.0586.0586.08984.04296.10547.04688.10156.11719.03125.1328.01563h.14845l.11718-.03125.10547.04297.04297.10547.04688.10156.02734.1211L299.5 410l.02734.11719.03125.1211.02735.11718.10547.04297.10156.04687.13281-.01562.14844.14844.0625.08593.07422.07422.07031.07422.08984.0625.10547.04297.10156.04297.1172.03125.13671.01562.11719-.03125.07422-.07422.02734-.11718-.01172-.13282-.03125-.12109-.02734-.11719.04297-.10547h.11719l.08984.0625.11719.02735h.14843l.13282.01562h.14843l.13282.01563.1328-.01563h.14845l.1328-.01562.13282-.01172.13672.01172.11719-.02735.13281-.01562.1914-.0586-.05859.17579-.01562.1328-.02735.1211-.01562.13281-.0586.08594-.1328.01563-.10548.04687-.10546.04297-.1172.03125-.11718.02735-.26563.03125h-.14843l-.13281.01562-.07422.07422.05859.08594.14844.14843.11719.1797.07421.0703.08985.0625.08984.0586.08594.0586.08984.05858.10156.04297.10547.0625.10547.04297.08594.0586.10547.04687.10156.04297.17969.11719.0586.08984-.04298.10156-.04687.10547.01562.13281.22266.22266.0586.08985.04296.10156.03125.1211.04297.10155.01563.13282.03125.11718.01171.13672.03125.11719.14844.14844.10156.04297.10547.04296.1172.03125.1328.01563.13672.01563h.11719l.11719-.03125.08984-.0586.04297-.10547.04688-.10156.04296-.10547.03125-.11719.01172-.1328v-.14845l-.01172-.1328-.01562-.13282-.03125-.11719-.04297-.10547-.04688-.10547-.04296-.10156-.04297-.10547-.01563-.13281.01563-.13281.02734-.11719.03125-.11719.02735-.1211.04687-.10155.08984-.0586.08594-.0625.07422-.07422.08984-.05859.22266-.22266.0586-.08593.07421-.07422.11719-.17969.0586-.08594v-.14844l-.07423-.07421-.10156-.04688-.10547-.04297-.10156-.04297-.0586-.08984-.04687-.10547-.02734-.11719.08984-.05859.11719-.03125.10156-.04297.17969-.11719.14844-.14843.01172-.13282-.01172-.10546-.08985-.0586-.1328.01563h-.14845l-.1328.01562-.13282-.01562-.1211-.03125-.08593-.0586-.07422-.07422-.0586-.08984-.0625-.08594-.11718-.17969-.0586-.08593.03125-.1211.08594-.05859.1211-.03125.05859-.08594v-.1211l-.03125-.11718-.0586-.08984-.05859-.08594-.04687-.10547-.02735-.11719-.01562-.1328.0586-.08985.07421-.07422.08984-.0586.1172-.17968.07421-.07422.0586-.08594.14843-.14844.1211-.03125.1328-.01562.13282.01562.07422.07422.04297.10547.01562.13281-.03125.1172-.11719.03124-.1328.01172-.14844.14844-.04297.10547-.04688.10156-.02734.1211-.03125.11718v.14844l.03125.11719.04297.10546.05859.08985.07422.07031.07422.07422.11719.03125.12109.02734.11719-.02734.1328-.01563h.1172l.08984.0586.07422.07422.04687.10546.0586.08594.10156.04688.13281.01562.10547.04297.08594.0586-.01172.10546-.07422.07422-.17969.11719-.05859.08984-.08984.0586-.07032.07422-.07421.07421-.0625.08985-.02735.11719-.01562.1328.01562.13282-.01562.13281v.14844l.01562.13281.02735.1172.03125.12108.07421.07422.08985.0586.08594.0586.08984.05858.11719.03125v.08594l-.10157.04688-.08984.0586-.26563.03124-.11718.02735h-.14844l-.10547.04296-.10156.04688-.0586.08984-.0625.23438-.01171.13281-.03125.1211-.01563.1328v.29298l-.01172.1328.01172.13673.01563.1328.1328.01563.13282.01172.1211.03125.08593.0586.07422.07421.04688.10547.04296.10157.01563.1328v.44532l-.01563.13281v.44532l.03125.26562.02735.11719.01562.13281.03125.11719.08594.21094.03125.26562v.14844l-.03125.11719-.02734.11718-.03125.1211-.02735.11719-.03125.11718-.03125.1211-.01171.1328-.01563.13282.08984.0586.1172-.03125.10155.01562.04688.10547-.03125.26562v.44141l-.04297.10547-.04688.10547-.04296.10156-.04297.10547-.0586.08594-.03125.12109-.04296.11719-.03125.11719-.01563.1328.01563.13282.05859.08984.10547.04688.08594.0586.05859.08593-.01172.13672-.03125.11719-.04297.10156v.44531l-.01562.13281v.14844l-.03125.11719-.04297.10547-.02735.11719-.04687.10546-.04297.10157-.03125.12109-.02734.11719-.03125.13281-.03125.11719-.02735.11719-.04297.10546-.03125.1172-.03125.12108-.01171.13282-.01563.13281v.29688l.02734.11718v.14844l.04688.39844.02734.11719.0586.08984.12109.03125h.14844l.13281-.01563.0586.08985v.11719l-.0586.08984-.08984.0586-.10157.04296-.10546.04688-.08985.05859-.08594.0586-.13671.01562-.1172-.03125-.1328-.01563-.10157.04688-.0625.08594-.01172.13671-.01562.13282-.03125.11719-.02735.11718-.01562.13281-.03125.1211v.29687l.01563.13282.03125.11718v.14844l.01171.13281v.14844l-.02734.11719-.04688.10156-.02734.1211-.03125.11718-.0586.08985-.07421.07421-.10156.04297-.10547.04688-.11719.02734-.1211.03125-.10156-.04687.0586-.08594.10547-.04688.02734-.11718.03125-.11719.02734-.1211.03125-.11718v-.14844l.01563-.13281-.03125-.11719-.04297-.10547-.10547.01563-.07422.07422-.10156.04296-.08984.0625-.07422.07422-.04297.10157-.01563.1328-.03125.1172L304.25 426l-.03125.11719-.02734.11719-.03125.12109-.02735.11719-.03125.11718-.04297.10547-.08984.0586h-.08984l-.1172-.03125-.03124-.08594.01562-.13672-.03125-.11719v-.14844l-.01171-.1328v-.14844l-.0625-.23438-.02735-.1211-.04297-.10156-.04687-.10546-.0586-.08594-.05859-.08985-.04297-.10546-.0625-.08594-.14844-.14844-.0703-.07422-.10548-.04687-.10547-.04297-.10156-.04297-.29687-.29688-.08985-.07421-.08594-.0586-.10546-.04297-.08985-.0625-.08594-.0586-.10546-.04296-.08985-.0586-.08594-.0625-.07421-.0703-.10547-.04688-.08594-.0586-.10547-.04296-.08984-.0625-.10156-.04297-.10547-.04297-.08594-.0586-.10547-.04687-.10547-.04297-.10156-.04687-.08985-.0586-.10156-.04297-.10547-.04296-.08984-.0625-.11719-.02735-.13281-.01562-.13281.01562H299.75l-.13281.01563-.11719-.03125-.08984-.0586-.07422-.07422-.08985-.05859-.10156-.04688h-.14844l-.12109-.02734-.10156-.04297-.07422-.07422-.11719-.17968-.08984-.0586-.10156-.04297-.08985-.0625-.10547-.04296-.08984-.0586-.08594-.0586-.10547-.04687-.0586-.08594-.05858-.08984-.04297-.10547-.04688-.10156-.07422-.07422-.08594-.0586-.07421-.07421-.08985-.0586-.22265-.22265-.04297-.10547-.03125-.26563.10547-.04296h.14453l.10547.04296.07421.07422.08985.0586.08594.0586.10546.04687.08985.05859.14844.14844.0703.07422.14845.14843.0625.08594.07421.07422.08594.0586.07422.07421.08985.0625.08984.0586.08594.05859.26953.17578.10156.04688.10547.04296.10156.04297.04688-.07421.05859-.08594.07422-.07422.07031-.07422.10547.04297.07422.07422.0586.08984.04296.10156.04688.10547.04296.10547.1211.02735.11719-.02735.07421-.08984.04297-.10547.0586-.08985.07422-.07421.10546-.04297.1172-.02735.1328.01172.08985.0586.14844.14843.05859.08985.04297.10547.04687.10156.04297.10547.04297.10156.10547.04688.10547.04296.13281.01563.08594-.0586.0586-.08984.07421-.07422.10547-.04297.11719.02735.10547.04687.10156.04297.10547.04297.10156.04688.17969.11718v.11719l-.01563.13281.01563.13281.01562.13672.0586.08594.10156.04688.1211.02734.11718.03125h.14844l.11719-.03125.05859-.08984.17969-.1172.05859-.08983.07422-.07422.0586-.08594.11718-.17969.17969-.11719.11719.03125.08984.0586.04297.07422-.01563.1328v.1172l.08985.05859h.14843l.13282-.01563.1328-.01171.26563-.03125.10547-.04297.11719-.03125.1211-.02735.07421-.07421.07031-.07422.0625-.08985-.01562-.10547-.04688-.10156-.10156-.04297-.10547-.01562-.11718.02734-.26563.03125h-.14844l-.07421-.07422-.08985-.0586-.11719-.03124-.11718-.02735-.13282-.01562h-.14843l-.13282.01563h-.29687l-.10547-.04688-.14844-.14844-.04297-.10156-.05859-.08984.22266-.22266.08593-.0586.10547-.04296.11719-.03125.13281-.01563.13281.01563.13672.01562.10157.04297.1328-.01172.08985-.0625.10156-.04297.0625-.08984-.04687-.10156-.08984-.0586-.1172-.03125-.10155-.04296-.0586-.08985-.0625-.08984v-.11719l.01563-.13281.10547-.04688.07421-.07031v-.1211l-.08984-.05859-.03125-.11719.08985-.05859.07421-.07422.04297-.10547.0586-.08984.04687-.10156.01563-.13281v-.14844l-.04688-.10547-.04297-.10156-.08984-.0586-.13281-.01562-.10157-.04297-.13671-.01563-.1172-.03125h-.4453l-.13282-.01562-.13281-.01172-.13281-.01563-.11719-.03125h-.14844l-.13281-.01562-.13281-.01172-.26563-.03125-.1211-.04297-.08593-.0586-.07422-.07421v-.14844l.01172-.13281.10547-.04688.10156-.04296.13281-.01563h.15235l.13281-.01562h.29297l.1211.03125.10156.04296.08984.0586.23438.0625.12109-.04688.08984-.05859.10156-.04297.13282-.01562.10547.04296.10156.04688.13281.01172.1211-.02735h.14453l.12109-.03125.11719-.02734.10547-.04687.07421-.07422.08594-.0586.14844-.14843.0586-.08594.04687-.10547.02734-.11719.01563-.10547-.10156-.04296-.08985-.0586-.11719-.03125-.10546-.04297-.08985-.0625-.07422-.08594-.07422-.07421-.10156-.04297-.10547-.04688-.10156-.04297-.0586-.08984-.04687-.10156-.08594-.21094-.0625-.08594-.05859-.08984-.07422-.07422-.08594-.0586h-.26953l-.11719.03126-.08984.05859-.10156.04297-.13281.01562-.10547-.01562-.02735-.11719-.0625-.08984-.11718-.03125-.10157-.04297-.14843-.14844-.03125-.11719-.01563-.10546.07422-.07422.17969-.1172.11719-.02733.11718-.03125.13672.01562.10156.04297.10547.04297.10156.04687.10547.04297.1172.03125.1328.01563.1172.02734.1328.01563.10547-.01563.08985-.0586-.07422-.07421-.10547-.04297-.07422-.07422-.07422-.08984-.14844-.14844-.08593-.0586-.08985-.05859-.07422-.07422-.08984-.0586-.10156-.04687-.1211-.02734-.10156-.04688-.10547-.04296-.11719-.03125-.10156-.04297-.1211-.03125h-.14843l-.11719.03125-.10546.04297-.08594.0625-.17969.11718-.08594.0586-.08984.0586-.10547.04687-.08594.05859-.10547.04297-.10156.04297-.10547.04687-.07422.07422-.05859.08985-.0586.08593-.04687.10547-.0586.08594-.07421.07422-.13281-.01172-.1172-.03125h-.11718l-.07422.07422-.08984.0586-.07422.07421-.08984.0586-.08594.05859-.10547.04687-.10156.04297-.13672.01563-.10156-.04297-.14844-.14844-.10547-.04688h-.08594l-.10547.04688-.10156.04297-.1211.03125-.11718-.03125-.07422-.07422v-.11719l.03125-.1211.07422-.0703.0586-.08985.07421-.07422.11719-.03125.10547-.04296h.29297l.13281-.01563.13672-.01563.10156-.04296.08985-.0586.10156-.04687.08984-.0586.13281-.01171.08985.05859.13281.01172.08984-.0586.08594-.05859.10547-.04297.08984-.0586.08594-.0625.08985-.05859.14843-.14843.0586-.08594.05859-.08985.10547-.04296.13281-.01563.11719.02735.1211.03125.05859-.0586.05859-.08984.03125-.26563.02734-.11719.10547.01172.13281.01563.10157-.04297.08984-.0586.0586-.08984.07421-.07422.0586-.08984.04687-.10156.01172-.13281-.01172-.13282-.04687-.10547-.14844-.14843-.0586-.08985-.05859-.08594-.04297-.10546v-.44532l.01563-.1328v-.14845l.01172-.1328-.0586-.0586-.08984.0586-.10156-.04298-.17969-.11719-.08594-.05859-.0625-.08984-.0586-.08985-.07421-.07421-.08594-.0586-.1211.03125-.10155.01172-.10547.04688-.08594.05859-.10547.04297-.14844.14844-.08984.05859-.08594.0586-.08984.0625-.10547.04296-.13281.01563v-.1211l.10547-.04297.11718-.03125.07422-.0703.04297-.10548v-.14844l-.02734-.11718-.14844-.14844-.13281-.01563h-.14844l-.11719.03125-.10547.04297-.10156.04297-.08984.0625-.11719.02735-.07422-.07422.01172-.13281-.04297-.10157-.04297-.10547-.08984-.05859-.11719.02734-.1211.03125-.11718.03125-.10156.04297-.1211.03125-.10156.04297-.10547.04297-.08984.0586-.10156.01562v-.11719l.01562-.13281-.0586-.08985-.07421.04297-.14844.14844-.0586.08985-.07421.07421-.04688.10547-.04296.10156-.07422.07422-.0586.08985-.07422.07422-.05859.08593-.07422.07422-.08984.0625-.07422.07031-.07422.07422-.10156.01563-.13281.01562-.10547-.04296v-.1211l.14843-.14844.04297-.10156.0586-.08984.04687-.10156.04297-.10547.0586-.08985.03124-.11719.04297-.10156.03125-.1211.02735-.11718.04687-.10547.04297-.10156.04297-.10547.07422-.07031.08984-.0625.08985-.0586.10156-.04296h.29687l.26563-.03125.10547-.04297-.07422-.07422-.11719-.03125-.10547-.04297-.08984-.0586-.10156-.04687-.08985-.0586-.10156-.04296-.10547-.04297-.08984-.0625-.08594-.0586-.10547-.04296-.10156-.04297-.1211-.03125-.11718-.03125-.10157-.04297L297.5 410.25l-.10156-.04297-.08985-.0586-.04296-.10546-.01563-.13281.10156-.04297.13281-.01563.13672.01563.13282-.01563.10156-.04297.0586-.08984.01562-.10547-.08985-.0586-.07421-.07421-.10157-.04297-.08984-.0586-.14844-.14843-.04297-.10547-.01562-.13281v-.29297l-.0586-.08985-.08984-.05859-.07422-.07422-.04297-.10547-.03125-.11718-.0586-.08985-.07421-.07422-.11719-.02734-.07422-.07422-.08984-.0586-.08984-.0625-.08594-.05859-.07422-.07421-.0586-.08594-.04687-.10547-.08594-.0586-.14843-.14843-.19532-.0586-.1328.01563-.10157.04297-.07422.07422-.04688.10156-.04296.10547-.0586.08984-.0586.08594-.29687.29687-.08984.0586h-.08594l-.0625-.08594-.04297-.10547.03125-.11719.0586-.08984.02734-.11719-.01172-.13281-.08984-.0625-.10547.04688-.11719.02734-.11719.03125-.26953.17578-.10156.04688-.11719.02734-.10546.04687-.08985.0586-.10156.04297-.0586-.08594-.04687-.10547.01563-.13281.04687-.10547.07031-.07422.07422-.07031.0586-.08985v-.14843l-.04297-.10547h-.23829l-.10156.04687-.03125.11719-.02734.11719-.03125.1211-.07422.04296-.13281.01563-.07422-.04688-.04297-.10156-.04297-.10547-.04687-.10156-.04297-.10547-.1211.03125-.10156.04297-.13281.01562-.11719.03125-.10547.04297-.08984.0586-.10156.04687-.1211.02734-.13281.01563-.10156-.04297-.0586-.08985-.04687-.10546-.04297-.10157-.04297-.10546v-.1172l.0586-.08984.08593-.05859.17969-.11719.10156-.04687.10547-.04297.10547-.0586.10156-.04296.08985-.0625.10156-.04297.10547-.0586.10156-.04687.08984-.0586.10547-.04296.10156-.04297.08985-.0625.10156-.04297.13672-.01563.11719.03125.10156.04297.1211.03125.10156.04297.10546.04688.10157.04296.10547.04297.10156.04688.10547.04297.10156.04297.10547.04687.08594.0586.10546.04296.1172.03125.10546.04297.10156.04688.08985.0586.10547.04296.10156.04297.10547.04687.11719.02735.10156.04687.1211.02735h.14843l.08594-.0586.01562-.10156.0586-.08984-.02735-.1172-.07422-.07421-.11719-.17969-.07421-.07422-.08985-.07421-.17969-.1172-.08593-.05859-.10547-.04296-.10156-.04688-.26954-.17578-.05859-.08985-.07422-.07421-.0586-.08985-.04296-.10156-.03125-.11719-.01563-.13672v-.5625l-.01171-.1328-.01563-.13282-.03125-.11719-.01562-.13281-.01172-.13281-.03125-.1211-.22266-.22265-.0586-.08594-.01562-.10547.03125-.11719.13281-.01562v-91.41406H172.9922v1.45312l-.0586.23438-.35156 1.05078-.17187.52343-.1172.34766-.17577.41016-.11719.17187-.23438.29297-.23046.0586h-.35157l-.11718.05859-.23047.40625v.29297l.11719.17578.23046.23047.1172.23437.64062.75781.29297.46485.17578.23437.23047.35156.23437.34766.64063.8164.17578.46485.17187.41016.11719.69531.17578.46875.11719 1.39844.0586.46484v.875l.11718 1.04688v4.78125l-.0586.46484-.35156 1.28125-.17578.52344-.11328.41015-.35156.9297L172.93359 336l-.23437.58203-.11719.17578-.17187.34766-.17578.40625-.35157.8164-.0586.29297-.11327.29297-.11719.28906-.0586.17579-.11718.875-.0586.40625-.05859.11718-.0586.17579-.05859.17187-.23047.52734-.11718.17188v.23437l-.11719.23438-.0586.17187-.17577.58594v.28906l-.0586.17579v.29296l-.0586.11329-.05859.52734v.17187l-.05468.23438v2.6211l-.17578.8164-.1172.17578-.17577.23438-.1172.17187-.11327.23438-.58594.93359-.23047.28906-.29297.46485-.17578.23437-.28906.35156-.35156.69922-.11328.23047-.17579.41016-.17578.23046-.40625.52735-.8164.69922-.29297.17187-.28906.23438-.17579.11719-.17578.17578-.52344.40625-.52734.17578-.17187.17578-.23438.05469-.64062.17578h-.75782m12.21094 31.02344l-1.07422.44921.35938.89454 1.25-.71485.44531-.53906-.98047-.08985"/><path fill="#d3d3d3" fill-opacity="0" fill-rule="evenodd" d="M201.50781 416.59766h-.89453l.44922.6289.98047.35938.80469-.08985.4453-.98828-.17577.08985-.71485-.35547-.89453.35547m154.6211 59.0703l-.0586-.52343v-.29297l.11328-.29297.0586-.23046.46875-.46875h.11328l.11719-.11329.11718-.05859h.17579l.23437-.0586h.34766l.23437.0586.11719.0586.23047.17187.0586.17578.11718.58203v.29297l-.11719.17578-.17187.28906-.17579.17579-.52734.52343-.23047.23438-.11719.0586h-.17578l-.11718-.0586-.40625-.29297-.17579-.11719-.11718-.0586-.0586-.11327-.05468-.1172m6.64062-10.95702l-.0586-.17188v-1.10937l.0586-.17188.17578-.0586.17188-.05858h.17578l.23437-.0586.1172.0586.05858.69921-.05859.17188-.11719.17578-.11718.0586-.23438.52343-.11328.0586h-.23438l-.05859-.1172m9.61328-14.39062l-.11719-.17578v-.69922l.29297-.875.1172-.17187.17577-.35156.11328-.23047.1172-.29297.35155-.75781.1172-.23047.17187-.23438h.17578l.11719-.0586h.64062l.11719.0586.23437.23438.17188.11328.35156.29297.11719.11718.11328.17579v.11328l.11719.05859.11718.11719v.69922l-.05859.17578v.23047l-.0586.17578-.34765 1.05078-.11719.23047-.11719.23437-.11718.0586-.23047.23437-.64063.28906h-.875l-.41015-.11718-.64063-.46485"/><path fill="none" stroke="#bebebe" stroke-linecap="round" stroke-linejoin="round" stroke-miterlimit="10" stroke-width=".5" d="M467.95703 311.69531H144.02734v168.625h323.9297v-168.625"/><g clip-path="url(#a)"><path fill="#fff" fill-opacity="0" fill-rule="evenodd" d="M144 475.89063v4.4375h.0039H144V311.67188h.0039H144v164.21875"/></g><g clip-path="url(#b)"><path fill="#fff" fill-opacity="0" fill-rule="evenodd" d="M144.0039 480.32813V311.67188h39.94141v132.71484l-.35937.4336.35937.30468.35156-.30469-.35156-.4336V311.67189h26.6289v120.8203l-4.4375 2.6875-.58593.76563-2.41016 4.4375-1.4414 3.57813-.66016.85937.66016.63281 4.4375 1.50391 4.4375.7539 3.64062-2.89062-.6875-4.4375 1.48828-1.17578 2.29297-3.26172-2.29297-2.57031-4.4414-.88281V311.67188h8.8789v112.92187l-2.73046 2.47656 2.73047 3.59766 2.73046-3.59766-2.73047-2.47656V311.67187h8.875v119.42188l-.96875.41406.96875.57031 1.0625 3.8672 3.375 3.09374 3-3.09375-3-3.04297-4.03125-1.39453-.40625-.41406V311.67187h13.31641v125.85547l-2.91797 2.85547 2.91797 2.83203 4.4375-2.6328.20703-.19923-.20703-.20312-4.4375-2.65235V311.67188h133.14844v132.88671l-.5039.26172.19921 4.4414.30469.21876.28515-.21875.22657-4.4414-.51172-.26173V311.67188h8.8789v140.5625l-1.59765 1.46484.02344 4.4375.9414 4.4375.63281.71484 4.4375 3.11328.92579.61329 3.51171 3.3203 2.8125-3.3203-2.20703-4.44141-.46875-4.4375-.13671-.22266-4.4375-2.64844-2.23438-1.5664-2.20313-1.46485v-140.5625h84.32422v168.65625h-71.51562l-3.9336-3.8125-4.4375-.22656-3.57421 4.03906H144.0039"/></g><path fill="#50fcfc" fill-rule="evenodd" d="M183.94531 445.125l-.35937-.30469.35937-.4336.35156.4336-.35156.30469m17.7539.32813l-.66015-.63282.66016-.85937 1.4414-3.57813 2.41016-4.4375.58594-.76562 4.4375-2.6875v3.13281l-.4375.32031.4375.4961.54297-.4961-.54297-.32031v-3.13281l4.4414.88281 2.29297 2.57031-2.29297 3.26172-1.48828 1.17578.6875 4.4375-3.64062 2.89063-4.4375-.7539-4.4375-1.50392"/><path fill="#00e8fc" fill-rule="evenodd" d="M210.57422 436.4414l-.4375-.49609.4375-.32031.54297.32031-.54297.4961"/><path fill="#50fcfc" fill-rule="evenodd" d="M219.45313 430.66797l-2.73047-3.59766 2.73047-2.47656 2.73046 2.47656-2.73047 3.59766m8.875 1.41015l-.96875-.5703.96875-.41407.40625.41406 4.03125 1.39453v2.96094l-.08984.08203.08984.08594.08204-.08594-.08203-.08203v-2.96094l3 3.04297-3 3.09375-3.375-3.09375-1.0625-3.86719"/><path fill="#00e8fc" fill-rule="evenodd" d="M232.76563 436.03125l-.08985-.08594.08984-.08203.08204.08203-.08203.08594"/><path fill="#50fcfc" fill-rule="evenodd" d="M241.64453 443.21484l-2.91797-2.83203 2.91797-2.85547v2.53516l-.32812.32031.32812.3164.50781-.3164-.5078-.32031v-2.53516l4.4375 2.65235.20702.20312-.20703.19922-4.4375 2.63281"/><path fill="#00e8fc" fill-rule="evenodd" d="M241.64453 440.69922l-.32812-.3164.32812-.32032.50781.32031-.5078.3164"/><path fill="#50fcfc" fill-rule="evenodd" d="M374.48828 449.26172l-.19922-4.4414.5039-.26173.51173.26172-.22656 4.4414-.28516.21876-.30469-.21875m7.60938 8.875l-.02344-4.4375 1.59765-1.46485 2.20313 1.46485 2.23438 1.5664 4.4375 2.64844.13671.22266.46875 4.4375 2.20704 4.4414-2.8125 3.32032-3.51172-3.32031-.92579-.61329-4.4375-3.11328-.6328-.71484-.94141-4.4375"/><g clip-path="url(#c)"><path fill="#50fcfc" fill-rule="evenodd" d="M384.53516 480.32813h1.64062l1.9336-2.1836 4.4375-.34375 2.60937 2.52735h1.32422l-3.9336-3.8125-4.4375-.22657-3.57421 4.03906"/></g><g clip-path="url(#d)"><path fill="#00e8fc" fill-rule="evenodd" d="M386.17578 480.32813l1.9336-2.1836 4.4375-.34375 2.60937 2.52735h-2.21094l-.39844-.38672-1.6914.38671h-4.67969"/></g><g clip-path="url(#e)"><path fill="#00d4fc" fill-rule="evenodd" d="M390.85547 480.32813l1.6914-.38672.39844.38671h-2.08984"/></g><g clip-path="url(#f)"><path fill="#fff" fill-opacity="0" fill-rule="evenodd" d="M467.9961 480.32813H468V311.67188h-.0039H468v168.65625h-.0039"/></g><g clip-path="url(#g)"><path fill="none" stroke="#000" stroke-linecap="round" stroke-linejoin="round" stroke-miterlimit="10" stroke-width=".5" d="M147.50781 480.54688l-7.01562-.4375"/></g><g clip-path="url(#h)"><path fill="none" stroke="#000" stroke-linecap="round" stroke-linejoin="round" stroke-miterlimit="10" stroke-width=".5" d="M147.50781 480.54688l1.01563 2.23437"/></g><g clip-path="url(#i)"><path fill="none" stroke="#000" stroke-linecap="round" stroke-linejoin="round" stroke-miterlimit="10" stroke-width=".5" d="M160.82813 480.36719l-7.02735-.07813"/></g><g clip-path="url(#j)"><path fill="none" stroke="#000" stroke-linecap="round" stroke-linejoin="round" stroke-miterlimit="10" stroke-width=".5" d="M160.82813 480.36719l1.1289 2.17969"/></g><g clip-path="url(#k)"><path fill="none" stroke="#000" stroke-linecap="round" stroke-linejoin="round" stroke-miterlimit="10" stroke-width=".5" d="M174.1211 479.92188l-6.98048.8125"/></g><g clip-path="url(#l)"><path fill="none" stroke="#000" stroke-linecap="round" stroke-linejoin="round" stroke-miterlimit="10" stroke-width=".5" d="M174.1211 479.92188l1.39452 2.01953"/></g><g clip-path="url(#m)"><path fill="none" stroke="#000" stroke-linecap="round" stroke-linejoin="round" stroke-miterlimit="10" stroke-width=".5" d="M187.36328 479.51172l-6.83594 1.63672"/></g><g clip-path="url(#n)"><path fill="none" stroke="#000" stroke-linecap="round" stroke-linejoin="round" stroke-miterlimit="10" stroke-width=".5" d="M187.36328 479.51172l1.625 1.83594"/></g><g clip-path="url(#o)"><path fill="none" stroke="#000" stroke-linecap="round" stroke-linejoin="round" stroke-miterlimit="10" stroke-width=".5" d="M200.5586 479.11719l-6.59766 2.42578"/></g><g clip-path="url(#p)"><path fill="none" stroke="#000" stroke-linecap="round" stroke-linejoin="round" stroke-miterlimit="10" stroke-width=".5" d="M200.5586 479.11719l1.82812 1.63281"/></g><g clip-path="url(#q)"><path fill="none" stroke="#000" stroke-linecap="round" stroke-linejoin="round" stroke-miterlimit="10" stroke-width=".5" d="M213.70313 478.72656l-6.25391 3.20313"/></g><g clip-path="url(#r)"><path fill="none" stroke="#000" stroke-linecap="round" stroke-linejoin="round" stroke-miterlimit="10" stroke-width=".5" d="M213.70313 478.72656l2.01171 1.40625"/></g><g clip-path="url(#s)"><path fill="none" stroke="#000" stroke-linecap="round" stroke-linejoin="round" stroke-miterlimit="10" stroke-width=".5" d="M226.96875 478.63672l-6.15625 3.38281"/></g><g clip-path="url(#t)"><path fill="none" stroke="#000" stroke-linecap="round" stroke-linejoin="round" stroke-miterlimit="10" stroke-width=".5" d="M226.96875 478.63672l2.05469 1.34375"/></g><g clip-path="url(#u)"><path fill="none" stroke="#000" stroke-linecap="round" stroke-linejoin="round" stroke-miterlimit="10" stroke-width=".5" d="M226.07422 479.1289l1.02734.67188"/></g><g clip-path="url(#v)"><path fill="none" stroke="#000" stroke-linecap="round" stroke-linejoin="round" stroke-miterlimit="10" stroke-width=".5" d="M240.26563 478.60547l-6.1211 3.44922"/></g><g clip-path="url(#w)"><path fill="none" stroke="#000" stroke-linecap="round" stroke-linejoin="round" stroke-miterlimit="10" stroke-width=".5" d="M240.26563 478.60547l2.0664 1.32031"/></g><g clip-path="url(#x)"><path fill="none" stroke="#000" stroke-linecap="round" stroke-linejoin="round" stroke-miterlimit="10" stroke-width=".5" d="M239.375 479.10547l1.03516.66015"/></g><g clip-path="url(#y)"><path fill="none" stroke="#000" stroke-linecap="round" stroke-linejoin="round" stroke-miterlimit="10" stroke-width=".5" d="M253.55469 478.5586l-6.0664 3.54296"/></g><g clip-path="url(#z)"><path fill="none" stroke="#000" stroke-linecap="round" stroke-linejoin="round" stroke-miterlimit="10" stroke-width=".5" d="M253.55469 478.5586l2.08594 1.28906"/></g><path fill="none" stroke="#000" stroke-linecap="round" stroke-linejoin="round" stroke-miterlimit="10" stroke-width=".5" d="M252.67188 479.07422l1.04296.64453"/><g clip-path="url(#A)"><path fill="none" stroke="#000" stroke-linecap="round" stroke-linejoin="round" stroke-miterlimit="10" stroke-width=".5" d="M266.86328 478.54688l-6.05469 3.5664"/></g><g clip-path="url(#B)"><path fill="none" stroke="#000" stroke-linecap="round" stroke-linejoin="round" stroke-miterlimit="10" stroke-width=".5" d="M266.86328 478.54688l2.09375 1.28125"/></g><g clip-path="url(#C)"><path fill="none" stroke="#000" stroke-linecap="round" stroke-linejoin="round" stroke-miterlimit="10" stroke-width=".5" d="M280.07813 478.38672l-5.85547 3.88281"/></g><path fill="none" stroke="#000" stroke-linecap="round" stroke-linejoin="round" stroke-miterlimit="10" stroke-width=".5" d="M279.22656 478.95313l1.07813.58203"/><g clip-path="url(#D)"><path fill="none" stroke="#000" stroke-linecap="round" stroke-linejoin="round" stroke-miterlimit="10" stroke-width=".5" d="M293.1211 478.03125l-5.3125 4.59766"/></g><path fill="none" stroke="#000" stroke-linecap="round" stroke-linejoin="round" stroke-miterlimit="10" stroke-width=".5" d="M292.34766 478.69922l1.14453.4414"/><g clip-path="url(#E)"><path fill="none" stroke="#000" stroke-linecap="round" stroke-linejoin="round" stroke-miterlimit="10" stroke-width=".5" d="M305.86719 477.5039l-4.17578 5.65235"/></g><path fill="none" stroke="#000" stroke-linecap="round" stroke-linejoin="round" stroke-miterlimit="10" stroke-width=".5" d="M305.26172 478.32422l1.21094.17969"/><g clip-path="url(#F)"><path fill="none" stroke="#000" stroke-linecap="round" stroke-linejoin="round" stroke-miterlimit="10" stroke-width=".5" d="M318.51172 477.11328l-2.83203 6.42969"/></g><path fill="none" stroke="#000" stroke-linecap="round" stroke-linejoin="round" stroke-miterlimit="10" stroke-width=".5" d="M318.10156 478.05078l1.22266-.08984"/><g clip-path="url(#G)"><path fill="none" stroke="#000" stroke-linecap="round" stroke-linejoin="round" stroke-miterlimit="10" stroke-width=".5" d="M330.66406 476.82422l-.5039 7.00781"/></g><path fill="none" stroke="#000" stroke-linecap="round" stroke-linejoin="round" stroke-miterlimit="10" stroke-width=".5" d="M330.58984 477.84375l1.1211-.4961"/><g clip-path="url(#H)"><path fill="none" stroke="#000" stroke-linecap="round" stroke-linejoin="round" stroke-miterlimit="10" stroke-width=".5" d="M341.64453 477.4961l4.16406 5.66406"/></g><path fill="none" stroke="#000" stroke-linecap="round" stroke-linejoin="round" stroke-miterlimit="10" stroke-width=".5" d="M342.25 478.32031l.53125-1.10547"/><g clip-path="url(#I)"><path fill="none" stroke="#000" stroke-linecap="round" stroke-linejoin="round" stroke-miterlimit="10" stroke-width=".5" d="M354.32422 478.09766l5.4336 4.46093"/></g><path fill="none" stroke="#000" stroke-linecap="round" stroke-linejoin="round" stroke-miterlimit="10" stroke-width=".5" d="M355.11719 478.7461l.24219-1.19923"/><g clip-path="url(#J)"><path fill="none" stroke="#000" stroke-linecap="round" stroke-linejoin="round" stroke-miterlimit="10" stroke-width=".5" d="M367.32031 478.5586l6.07031 3.54296"/></g><path fill="none" stroke="#000" stroke-linecap="round" stroke-linejoin="round" stroke-miterlimit="10" stroke-width=".5" d="M368.20313 479.07422l.05078-1.22656"/><g clip-path="url(#K)"><path fill="none" stroke="#000" stroke-linecap="round" stroke-linejoin="round" stroke-miterlimit="10" stroke-width=".5" d="M380.16797 480.60156l7.00781-.54687"/></g><g clip-path="url(#L)"><path fill="none" stroke="#000" stroke-linecap="round" stroke-linejoin="round" stroke-miterlimit="10" stroke-width=".5" d="M381.1875 480.52344l-.66016-1.03516"/></g><g clip-path="url(#M)"><path fill="none" stroke="#000" stroke-linecap="round" stroke-linejoin="round" stroke-miterlimit="10" stroke-width=".5" d="M393.83594 481.88281l6.30078-3.10937"/></g><g clip-path="url(#N)"><path fill="none" stroke="#000" stroke-linecap="round" stroke-linejoin="round" stroke-miterlimit="10" stroke-width=".5" d="M394.7539 481.4336l-.99609-.71876"/></g><g clip-path="url(#O)"><path fill="none" stroke="#000" stroke-linecap="round" stroke-linejoin="round" stroke-miterlimit="10" stroke-width=".5" d="M406.89844 481.19531l6.8086-1.73437"/></g><g clip-path="url(#P)"><path fill="none" stroke="#000" stroke-linecap="round" stroke-linejoin="round" stroke-miterlimit="10" stroke-width=".5" d="M407.88672 480.94531l-.82422-.91015"/></g><g clip-path="url(#Q)"><path fill="none" stroke="#000" stroke-linecap="round" stroke-linejoin="round" stroke-miterlimit="10" stroke-width=".5" d="M420.46875 481.88672l6.29688-3.11719"/></g><g clip-path="url(#R)"><path fill="none" stroke="#000" stroke-linecap="round" stroke-linejoin="round" stroke-miterlimit="10" stroke-width=".5" d="M437.22266 483.83203l-.58204-7.0039"/></g><g clip-path="url(#S)"><path fill="none" stroke="#000" stroke-linecap="round" stroke-linejoin="round" stroke-miterlimit="10" stroke-width=".5" d="M451.4336 483.63672l-2.375-6.61328"/></g><g clip-path="url(#T)"><path fill="none" stroke="#000" stroke-linecap="round" stroke-linejoin="round" stroke-miterlimit="10" stroke-width=".5" d="M465.8164 483.02344l-4.5078-5.39063"/></g><g clip-path="url(#U)"><path fill="none" stroke="#000" stroke-linecap="round" stroke-linejoin="round" stroke-miterlimit="10" stroke-width=".5" d="M147.5039 467.26563l-7.0078-.50391"/></g><path fill="none" stroke="#000" stroke-linecap="round" stroke-linejoin="round" stroke-miterlimit="10" stroke-width=".5" d="M147.5039 467.26563l.9961 2.24218m-2.01563-2.3164l.4961 1.12109m13.83984-1.07422l-7.01172-.44922m7.01172.44922l1.01172 2.23438m-2.03125-2.30078l.50781 1.11718m13.82813-1.08203l-7.01563-.38672m7.01563.38672l1.03125 2.22656m-2.05078-2.28125l.51562 1.11329m13.82031-1.47266l-7.01562.4414m7.01563-.4414l1.28515 2.08594m-2.3086-2.02344l.64454 1.04687m13.66406-1.39843l-6.95312 1.01953m6.95312-1.01953l1.45313 1.97265m-2.46485-1.82422l.72656.98828m13.47657-1.67187l-6.71094 2.08984m6.71094-2.08984l1.7461 1.72656m-2.72267-1.42187l.8711.86328m13.33984-1.39844l-6.54687 2.55078m6.54687-2.55078l1.85938 1.60156m-2.8125-1.23047l.92969.80079m13.26953-1.33204L234 468.44922m6.41016-2.8711l1.9375 1.50391m-2.8672-1.08594l.96876.75391m13.1836-1.36719l-6.22266 3.26172m6.22265-3.26172l2.02735 1.38281m-2.9336-.91015l1.01172.69531m12.8711-1.6914l-5.54688 4.30859m5.54688-4.3086l2.23828 1.00391m-3.04688-.3789l1.1211.5039m12.86328-1.29687l-5.26953 4.64453m5.26953-4.64453l2.29687.86328m-3.0625-.1875l1.14844.42969m12.91797-1.1211l-5.24219 4.67578m5.24219-4.67578l2.30469.84766m10.82421-1.04297l-4.87109 5.0664m4.8711-5.0664l2.36328.67187m10.0664-1.29296l-3.09765 6.30859m3.09765-6.3086l2.45313-.07812m9.62109-.26953l-.61328 7.0039m.52344-5.98437l1.1289-.47656m11.76172-.54688l.41406 7.01172m-.35546-5.99219l1.04687-.64062m11.79688-.33203l1.23828 6.91797m-1.0586-5.91016l.96485-.75781m12.07422-.23047l1.43359 6.8789m-1.22656-5.8789l.9453-.78516m10.88282.33203l3.98828 5.78516m-3.40625-4.94531l.5625-1.08594m11.08203 1.45703l6.16797 3.36328m-5.27343-2.8711l.01562-1.23046m13.48438-.46484l4.0078 5.76953m-3.42577-4.92969l.5625-1.09375m14.49609-.35937l-.64062 6.99609m.64062-6.9961l2.26172-.95312m11.86328 1.125l-2.26172 6.65234m2.26172-6.65234l2.42188-.39453m13.27734 3.76172l-7.02734-.08203m6.0039.0703l.5625 1.08985m13.02344 1.05078l-5.52734-4.33984m5.52734 4.33984l-.42969 2.41407m-.3711-3.04688l-.21874 1.20703"/><g clip-path="url(#V)"><path fill="none" stroke="#000" stroke-linecap="round" stroke-linejoin="round" stroke-miterlimit="10" stroke-width=".5" d="M147.48438 454.14844l-6.96875-.89844"/></g><path fill="none" stroke="#000" stroke-linecap="round" stroke-linejoin="round" stroke-miterlimit="10" stroke-width=".5" d="M147.48438 454.14844l.86718 2.29297m12.45703-2.3711l-6.98828-.74218m6.98828.74218l.91797 2.27344m-1.9336-2.38281l.45704 1.13672m13.89063-1.29688l-7.02344-.20703m7.02344.20703l1.08984 2.20313m12.20312-2.73828l-6.97656.86718m6.97656-.86719l1.41016 2.00782m11.70313-2.82031l-6.57032 2.49218m6.57031-2.49219l1.84375 1.6172m11.29688-2.00391l-6.22266 3.26562m6.22266-3.26562l2.02734 1.3828m11.25-1.44921l-6.14843 3.39844M226.96484 452l2.0586 1.33984m11.01953-1.71484l-5.67578 4.14844m5.67578-4.14844l2.20703 1.07031m-3.03516-.46875l1.10547.53516m12.65235-1.57813l-4.90625 5.03125m4.90625-5.03125l2.35547.6875m-3.06641.04297l1.17578.34375m13.16797-.71875l-5.53906 4.32031m5.53906-4.3203l2.24219.99609m-3.04688-.3672l1.1211.4961m12.97265-1.16015l-5.48828 4.38671m5.48828-4.38671l2.2539.97656m-3.05077-.33594l1.125.48438m12.96484-1.15235l-5.44531 4.4414m5.44531-4.4414l2.26172.95313m-3.05078-.30469l1.1289.47656m13.09375-.96875l-5.68359 4.13281m5.6836-4.1328l2.20702 1.07421m10.78125-1.46484l-5.02734 4.91015m4.29688-4.1953l1.16796.375m11.39844-1.9922l-2.0664 6.71875m1.76562-5.74218l1.20313-.23047m13.3203-.3164l-3.8828 5.85937m3.3164-5.00782l1.22266.1211m11.69531-1.41797l-1.95703 6.75m1.95703-6.75l2.40235-.5039m-2.6875 1.48437l1.20312-.25m13.53125-.16407l-4.22266 5.6172m4.22266-5.6172l2.42188.38282m11.47656.17187l-5.39063 4.50781m5.39063-4.5078l2.27344.92187m5.82812-1.1211l5.03516 4.90235m-4.30079-4.1875l.34375-1.17969m18.21875 2.32031l-6.92578 1.19531m20.28907-.52734l-7.02344-.14062m6 .12109l.55469 1.09375m13.67968-2.0039l-6.8164 1.71874m5.82422-1.46875l.82421.91016m12.03125-3.21875l-3.91015 5.83594m3.91015-5.83594l2.44141.2461m5.4336 2.19921l6.96484.94531"/><g clip-path="url(#W)"><path fill="none" stroke="#000" stroke-linecap="round" stroke-linejoin="round" stroke-miterlimit="10" stroke-width=".5" d="M147.42578 441.16797l-6.85156-1.57031"/></g><path fill="none" stroke="#000" stroke-linecap="round" stroke-linejoin="round" stroke-miterlimit="10" stroke-width=".5" d="M147.42578 441.16797l.63672 2.3711m12.63672-2.21095l-6.76953-1.88671m6.76953 1.88671l.52734 2.39454m12.91797-3.39844l-7.02734.1211m7.02734-.1211l1.1875 2.14453m12.1211-1.8711l-7.01563-.42577m7.01563.42578l1.01953 2.23047m12.27734-2.83985l-6.98047.79297m5.96484-.67969l.69532 1.01172m13.46094-1.89062l-6.63282 2.3203m6.63281-2.3203l1.8047 1.66406m10.66015-3.0039l-4.9336 5.0039m4.9336-5.0039l2.35156.69921m10.58594-1.02344l-4.17578 5.65235m4.17578-5.65235l2.42578.35938m-3.03125.46094l1.21094.18359m11.36328-1.61328l-1.48438 6.86719m1.48438-6.8672l2.36328-.66796m11.88672 1.01563l-3.35156 6.17578m3.35156-6.17578l2.45312.01953m10.92578.01562l-3.48046 6.10547m3.48047-6.10547l2.45312.07031m-2.96094.81641l1.22656.03516m11.60157-1.3047l-1.48828 6.8672m1.48828-6.8672l2.35937-.66796m11.5586.85938l-2.69532 6.48828m2.69532-6.48828l2.4414-.23438m11.54297.60156l-4.03515 5.75m4.03515-5.75l2.4375.30078m-3.02344.53516l1.21875.15234m13.14454-.60156l-4.95704 4.98047m4.95704-4.98047l2.34765.71094m10.99219-.6875l-5.00781 4.92969m5.0078-4.9297l2.33985.73829m-3.0664-.01953l1.16797.36719m11.79296-1.83203l-2.84765 6.42187m2.84765-6.42187L360.91406 437m11.1836.33203l-3.48047 6.10547m3.48047-6.10547l2.45312.07031m8.15235 6.35938l1.9375-6.7539m-1.65625 5.76952l-1.19922.25782m15.8828.79687l-1.36327-6.89453m1.16406 5.89063l-.94922.77343m11.42969-.60937l4.70703-5.21875m-4.02344 4.46094l-1.1914-.30079m19.54687-2.53906l-6.74219 1.97656m6.7422-1.97656l1.71484 1.7539m11.53906-1.9375l-6.6211 2.34376m5.66016-2.0039l.90234.83202m13.48438-.79687l-6.84375 1.59375m5.84766-1.35938l.80859.92188m12.1289-3.21485l-4.09374 5.71094m3.49609-4.8789l1.21875.16406"/><g clip-path="url(#X)"><path fill="none" stroke="#000" stroke-linecap="round" stroke-linejoin="round" stroke-miterlimit="10" stroke-width=".5" d="M147.19922 428.52344l-6.39844-2.90625"/></g><path fill="none" stroke="#000" stroke-linecap="round" stroke-linejoin="round" stroke-miterlimit="10" stroke-width=".5" d="M147.19922 428.52344l.15234 2.44531m13.22656-2.59766l-6.52734-2.60547m6.52734 2.60547l.26563 2.4375m12.98438-2.28125l-6.39454-2.91797m6.39453 2.91797l.14844 2.44922m13.47656-3.6914l-7.01562-.4297m5.9961.3672l.5078 1.11328m13.60157-2.52344l-6.5664 2.51172m6.5664-2.51172l1.84766 1.61328m10.6328-2.875l-4.89843 5.03516m4.89844-5.03516l2.35937.6836m-3.07031.04687l1.17578.34375m13.10156-.80469l-5.39843 4.4961m5.39843-4.4961l2.27344.92578m11.84766 1.53516l-7.01172-.42578m5.99219.36328l.5078 1.11719m12.71095-3.83985l-4.78125 5.14844m4.08593-4.40234l1.1875.3164m12.73047-1.14843l-4.59375 5.3164m4.59375-5.3164l2.39453.54687m11.39453-.05078l-5.54296 4.32422m4.73437-3.69531l1.1211.5m12.66015-1.50782l-4.85547 5.08203m4.14844-4.34375l1.17969.33204M305.5 424.0039l-3.4375 6.1289M305 424.89453l1.22656.02735m11.4336-1.32032l-1.12891 6.9336m1.1289-6.9336l2.32032-.79297m12.1875 1.21875l-3.51563 6.08204m3.51563-6.08204l2.45312.08594m-2.96484.79688l1.22656.04687m13.53516-.14844l-5.38281 4.51954m5.3828-4.51954l2.27345.91797m-3.0586-.26172l1.14063.46094m13.33984-.5664l-6.14453 3.41796m6.14453-3.41796l2.0586 1.33593m9.52734-2.875l-2.6875 6.4961m2.6875-6.4961l2.4414-.23437m10.07422.01172l-1.08593 6.9414m1.08593-6.9414l2.31641-.8047m-2.47656 1.8125l1.16015-.39843m15.16407 1.94922l-6.78516 1.82422m6.78516-1.82422l1.67578 1.79297m11.05078-3L407.5 429.1875m5.60547-4.23828l2.22265 1.03516m-3.03906-.41797l2.22656 1.03125m-3.04296-.41407l1.11328.51563m13.83594-1.74219l-5.61329 4.22656m5.61329-4.22656l2.22656 1.03516m-3.04297-.42188l2.22265 1.03907m11.01954-2.48438l-3.83204 5.88672m3.83204-5.88672l2.4453.21484m-3.0039.64063l1.22266.10937m11.54687-1.4414l-1.62109 6.83984m1.6211-6.83984l2.37109-.6211m13.07422 2.1172l-5.88282 3.84765"/><g clip-path="url(#Y)"><path fill="none" stroke="#000" stroke-linecap="round" stroke-linejoin="round" stroke-miterlimit="10" stroke-width=".5" d="M466.5039 425.14453l2.14844 1.1836"/></g><path fill="none" stroke="#000" stroke-linecap="round" stroke-linejoin="round" stroke-miterlimit="10" stroke-width=".5" d="M465.64453 425.70313l1.07813.59375"/><g clip-path="url(#Z)"><path fill="none" stroke="#000" stroke-linecap="round" stroke-linejoin="round" stroke-miterlimit="10" stroke-width=".5" d="M147.22656 415.14453l-6.45312-2.78125"/></g><path fill="none" stroke="#000" stroke-linecap="round" stroke-linejoin="round" stroke-miterlimit="10" stroke-width=".5" d="M147.22656 415.14453l.19922 2.44531m13.29297-2.96875l-6.8086-1.73437m6.8086 1.73437l.58203 2.38282m12.83984-3.3672l-7.02343.23048m7.02344-.23047l1.22265 2.1289m12.02734-2.6953L180.5 414.4375m6.89063-1.36719l1.55468 1.89844m11.65235-2.3125l-6.67578 2.1914m6.67578-2.1914l1.76953 1.70313m11.3711-2.13672l-6.32813 3.05859m5.40625-2.61328l.99218.72656m13.52735-.33594l-6.89063 1.39063m5.88672-1.1875l.77734.94531m13.5547-1.0625l-6.91798 1.21875m6.91797-1.21875l1.51172 1.9336m11.73438-2.25782l-6.77735 1.86328m6.77735-1.86328l1.68359 1.78516m11.48828-2.1914l-6.49219 2.67968m5.54688-2.28906l.94922.78125m13.26172-1.29297l-6.39063 2.92187m6.39063-2.92187l1.9453 1.48828m11.14063-1.90625l-5.9375 3.75781m5.9375-3.75781l2.13282 1.21094m11.34765-.92578l-6.26562 3.1875M306 412.625l1.0039.70313m12.69532-1.9336l-5.20703 4.71875m5.20703-4.71875l2.3086.83203m11.76952.51563l-6.73046 2.01953m5.75-1.72266l.86328.8711m13.46484-1.05078l-6.79687 1.78906m6.79687-1.78906l1.66406 1.80468m11.13672-2.91797l-5.76953 4.01172m5.76953-4.01172l2.1836 1.1211m10.58984-1.73047l-4.6875 5.23437m4.6875-5.23437l2.38281.58594m-3.0625.17578l1.1914.29297m13.15235-.69532l-5.38281 4.51563m5.38281-4.51563l2.27344.92188m-3.05469-.26563l2.27344.92188m12.03906-1.29297l-5.8164 3.94531m5.8164-3.94531l2.16797 1.14844m-3.01562-.57422l2.17187 1.14844m11.46094-2.33594l-4.75781 5.17187m4.7578-5.17187l2.375.6211m-3.0664.1328l1.1875.3086m12.45313-1.35547l-4.02735 5.75781m4.02735-5.75781l2.4375.29688m-3.02344.53906l1.21875.15234m12.7539-.9375l-4.16796 5.65625m4.16797-5.65625l2.42968.35938m-3.03515.46484l1.21484.17578m12.38281-1.21094l-3.52343 6.07813m3.52343-6.07813l2.45313.08594m-2.96485.79688l1.22657.04297m12.32812-1.07032l-2.98047 6.36328m2.98047-6.36328l2.45313-.1211m-2.88672 1.04688l2.45312-.12109"/><g clip-path="url(#aa)"><path fill="none" stroke="#000" stroke-linecap="round" stroke-linejoin="round" stroke-miterlimit="10" stroke-width=".5" d="M147.04297 402.1914l-6.08594-3.5078"/></g><path fill="none" stroke="#000" stroke-linecap="round" stroke-linejoin="round" stroke-miterlimit="10" stroke-width=".5" d="M146.16016 401.67969l-.04297 1.22656m14.70703-2.33594l-7.01953-.26172m6 .22266l.53515 1.10156m13.58203-2.42187l-6.58593 2.45312m6.58594-2.45312l1.83593 1.6289m11.66016-.93359l-6.94531 1.0625m6.9453-1.0625l1.46876 1.96484m11.84766-1.9453l-6.94922 1.02733m6.94922-1.02734l1.45703 1.97266m11.75-2.46875l-6.73047 2.01562m6.73047-2.01562l1.72656 1.7461m11.44922-2.125l-6.45313 2.77733m6.45313-2.77734l1.91406 1.53516m-2.85156-1.13281l.95703.76953m13.49219-.56641l-6.84766 1.5664m6.84766-1.5664l1.60937 1.85547m11.6289-2.14063l-6.6953 2.13282m6.6953-2.13282l1.75782 1.71485m11.3164-2.29297l-6.21093 3.28906m6.21094-3.28906l2.03125 1.375m11.17187-1.5664l-5.98828 3.67187m5.98828-3.67188l2.11719 1.2461m10.94531-1.60547l-5.48437 4.39062m5.48437-4.39062l2.2539.97265m10.34766-1.64453l-4.05468 5.73828m4.05468-5.73828l2.4336.3086m11.91797.83984l-6.12891 3.4414m6.1289-3.4414l2.0625 1.32422m11.1836-1.4414l-5.98828 3.67577m5.98828-3.67578l2.11328 1.24219m11.09766-1.40234l-5.78125 3.99218m4.9414-3.41015l1.08985.5625m10.9961-2.5625l-1.64454 6.83203m1.40234-5.83985l1.19141-.30468m14.54688.90234l-6.00391 3.65235m6.0039-3.65235l2.10938 1.25m-2.98437-.71875l1.05468.625m12.6211-1.8086l-4.98047 4.95704m4.98047-4.95703l2.34765.72265m-3.07031-.0039l1.17188.36328m13.33593-.4961l-5.91797 3.78516m5.91797-3.78515l2.13672 1.20312m-2.9961-.65234l1.06641.60156m13.21485-.97656l-6.13281 3.43359m6.1328-3.4336l2.0625 1.32813m-2.95312-.82812l1.03125.66406m12.42969-2.08594l-4.64453 5.27344m4.64453-5.27344l2.39063.57031m-3.06641.19922l1.19531.28125m12.64844-1.17187l-4.34766 5.51953m4.34766-5.51953l2.41406.4336m-3.04687.36718l2.41406.4375m12.42969-.1875l-6.14063 3.41797m6.14063-3.41797l2.05859 1.33203m-2.95312-.83594l1.03125.66406m12.64453-1.8828l-5.07032 4.86327"/><g clip-path="url(#ab)"><path fill="none" stroke="#000" stroke-linecap="round" stroke-linejoin="round" stroke-miterlimit="10" stroke-width=".5" d="M466.09766 398.00781l2.33203.76563"/></g><path fill="none" stroke="#000" stroke-linecap="round" stroke-linejoin="round" stroke-miterlimit="10" stroke-width=".5" d="M465.35938 398.71484l2.33203.76563"/><g clip-path="url(#ac)"><path fill="none" stroke="#000" stroke-linecap="round" stroke-linejoin="round" stroke-miterlimit="10" stroke-width=".5" d="M147.40234 387.9961l-6.80468-1.7461"/></g><path fill="none" stroke="#000" stroke-linecap="round" stroke-linejoin="round" stroke-miterlimit="10" stroke-width=".5" d="M146.41406 387.74219l.28906 1.1914m14.1172-1.59765l-7.01173-.42578m5.9922.36328l.51171 1.11719m13.76953-.6172l-6.90625-1.30077m6.90625 1.30078l.73047 2.34375m11.8711-5.19531l-5.47657 4.40234m5.47656-4.40235l2.25391.96485m10.63281-1.41016l-4.61719 5.29688m3.94532-4.52735l1.19531.27735m13.9961 1.53515l-7.02735.12891m7.02734-.1289l1.19141 2.14452m12.04688-2.8125l-6.875 1.46485m6.875-1.46485l1.57812 1.87891m11.16797-3.17187l-5.73828 4.05078m5.73828-4.05078l2.1914 1.10546m-3.02343-.51562l1.09375.55078m13.15234-.9961l-5.9336 3.76173m5.9336-3.76172l2.13281 1.21094m-2.99609-.66407l1.0664.60547m13.00782-1.30469l-5.72656 4.06641m5.72656-4.0664l2.19531 1.09765M280 385.07031l-5.69922 4.10938M280 385.0703l2.20313 1.08203m11.1914-.96875l-5.85937 3.87891m5.85937-3.8789l2.15625 1.17187m-3.00781-.60547l1.07812.58203m13.08985-1.14844l-5.85938 3.87891m5.85938-3.8789l2.15625 1.17187m11.2539-1.01953l-6.05078 3.57422m6.05078-3.57422l2.09375 1.27734m11.19922-1.3125l-6.00781 3.64453m6.00781-3.64453l2.10938 1.25781m-2.98047-.72656l1.05078.6289m12.79297-1.6328l-5.32031 4.58984m5.3203-4.58985l2.28517.88672m11.64843.14454l-6.5586 2.53125m6.5586-2.53125l1.85157 1.60546m-2.8086-1.23828l.92969.80078m13.1914-1.5039l-6.2578 3.19922m6.2578-3.19922l2.01172 1.40625m-2.92187-.9414l1.00781.70312m13.16797-1.25782l-6.16016 3.37891m6.16016-3.3789l2.05469 1.34374m-2.94922-.85156l1.02734.67188m12.9961-1.47266l-5.78516 3.9961m5.78516-3.9961l2.17578 1.1289m-3.01953-.54687l2.17968 1.1289m11.97266-1.71874l-5.76953 4.01172m5.76953-4.01172l2.17969 1.1211m-3.01953-.53907l1.08984.5625m12.88672-1.3789l-5.41406 4.48046m5.41406-4.48047l2.26562.9336m-3.05468-.28125l1.1328.46484m12.26954-1.76172l-4.01172 5.76953m4.01172-5.76953l2.4336.28906m-3.01954.55079l2.4375.28906m12.83985.8086l-6.76563 1.89452m6.76563-1.89453l1.6953 1.77735m-2.67968-1.5l.84766.88671m12.76562-2.46875l-5.39453 4.50391"/><g clip-path="url(#ad)"><path fill="none" stroke="#000" stroke-linecap="round" stroke-linejoin="round" stroke-miterlimit="10" stroke-width=".5" d="M466.25781 384.8711l2.27344.92577"/></g><path fill="none" stroke="#000" stroke-linecap="round" stroke-linejoin="round" stroke-miterlimit="10" stroke-width=".5" d="M465.47266 385.52734l1.13671.46094"/><g clip-path="url(#ae)"><path fill="none" stroke="#000" stroke-linecap="round" stroke-linejoin="round" stroke-miterlimit="10" stroke-width=".5" d="M147.49219 374.1875l-6.98438-.75781"/></g><path fill="none" stroke="#000" stroke-linecap="round" stroke-linejoin="round" stroke-miterlimit="10" stroke-width=".5" d="M146.47656 374.07422l.45703 1.14062m13.6797-.1953l-6.59767-2.42579m6.59766 2.42578l.33203 2.4336m13.17188-3.22657l-6.97656-.83594m6.97656.83594l.88672 2.28516m12.34375-3.57813l-6.8047 1.75m6.8047-1.75l1.65625 1.8086m11.43359-2.4375l-6.35156 3.00781m6.35156-3.00781l1.96484 1.46484m-2.89062-1.02734l.98437.73437m12.87891-1.79297l-5.59766 4.25m5.59766-4.25l2.22656 1.03125m-3.04297-.41406l1.11328.51563m13.3086-.67579l-6.17969 3.33594m6.17969-3.33594l2.04297 1.35547m-2.9414-.87109l1.02343.67969m13.40234-.69531l-6.60547 2.39843m6.60547-2.39844l1.82422 1.64454m-2.78516-1.29688l.91016.82422m13.10938-1.72656l-6.08985 3.50781m6.08985-3.50781l2.07812 1.30469m11.22266-1.32813l-6.0625 3.55469m6.0625-3.55469l2.08984 1.28516m11.3164-1.1172l-6.24609 3.21876m6.2461-3.21875l2.01562 1.39844m11.33594-1.32422l-6.32031 3.07031m6.32031-3.07031l1.98438 1.44531m11.28515-1.53906l-6.22656 3.25781m6.22656-3.25781l2.02344 1.38672m-2.92969-.91407l1.01172.69532m13.0625-1.42579l-5.92969 3.77344m5.92969-3.77344l2.13281 1.21094m-2.9961-.66015l1.06642.60546m13.3164-.78125l-6.34375 3.02344m6.34375-3.02344l1.97266 1.46094m-2.89453-1.01953l.98437.73047m13.52344-.35938l-6.88672 1.39844m6.88672-1.39844l1.5625 1.89454m-2.5625-1.69141l.77734.94922m13.45703-1.47266l-6.72265 2.03906m6.72265-2.03906l1.73047 1.73828m-2.70703-1.4414l.86328.86719m13.28125-1.56641l-6.42578 2.84375m6.42578-2.84375l1.92969 1.51562m-2.86719-1.10156l.96485.75781m13.28125-1.17968l-6.41797 2.85937m6.41797-2.85937l1.9375 1.5078m-2.8711-1.09374l.96875.7539m13.49219-.55078l-6.83984 1.6211m6.83984-1.6211l1.6211 1.84375m-2.6172-1.60546l.8086.92187m13.34766-1.64453l-6.53125 2.59375m6.53125-2.59375l1.87109 1.58984m-2.82031-1.21094l.9336.79297m13.42187-.91406l-6.71094 2.07813m6.71094-2.07813l1.74218 1.73047m-2.71875-1.42969l.8711.86719m12.99219-2.07422L434.0039 375.75m5.85547-3.88672l2.15625 1.16797m-3.00782-.60156l1.07813.58594m13.11328-1.11329l-5.90625 3.8125m5.90625-3.8125l2.14062 1.19532m10.59766-1.875l-4.7539 5.17187"/><g clip-path="url(#af)"><path fill="none" stroke="#000" stroke-linecap="round" stroke-linejoin="round" stroke-miterlimit="10" stroke-width=".5" d="M465.9375 371.22266l2.375.61718"/></g><g clip-path="url(#ag)"><path fill="none" stroke="#000" stroke-linecap="round" stroke-linejoin="round" stroke-miterlimit="10" stroke-width=".5" d="M147.44922 361.16016l-6.89844-1.33594"/></g><path fill="none" stroke="#000" stroke-linecap="round" stroke-linejoin="round" stroke-miterlimit="10" stroke-width=".5" d="M147.44922 361.16016l.71875 2.34765m-1.72266-2.54297l.35938 1.17579m13.90234-.72657l-6.78125-1.83984m6.78125 1.83984l.54297 2.39063m12.89063-3.16797l-7.01954-.28516m7.01953.28516l1.0625 2.21094m-2.08203-2.25391l.53125 1.10547m13.8047-1.1836l-7.02345-.04296m7.02344.04296l1.14063 2.17188m12.0664-3.0664l-6.8086 1.74218m6.8086-1.74219l1.65235 1.8125m11.1914-2.87109l-5.86719 3.86328m5.8672-3.86328l2.15624 1.17188m-3.00781-.61329l1.07813.58985m13.09765-1.14063l-5.88281 3.84766m5.88281-3.84766l2.14844 1.1836m-3.0039-.625l1.07421.59375m13.08203-1.17579l-5.85547 3.89063m5.85547-3.89063l2.15625 1.16797m-3.00781-.60156l1.07813.58594m13.10937-1.11719l-5.89844 3.82031m5.89844-3.8203l2.14453 1.1953m11.26172-1.04296l-6.07813 3.51953m6.07813-3.51954l2.08203 1.29688m11.46485-.82031l-6.54297 2.5664m6.54297-2.5664l1.86328 1.59765m11.48047-1.52734l-6.59766 2.42188m6.59765-2.42188l1.82813 1.64063m11.60547-1.2461l-6.83594 1.63281m6.83594-1.6328l1.6211 1.83983m11.74218-1.60546l-6.92969 1.16796m6.92969-1.16796l1.49219 1.9453m-2.5039-1.77733l.75.97265m13.4375-1.6836l-6.65626 2.25391m6.65625-2.2539l1.78516 1.67969m-2.7539-1.35157l.89452.83985m13.42578-1.05079l-6.73046 2.01954m6.73046-2.01954l1.72657 1.7422m-2.70313-1.44923l.86328.8711m13.5625-.47266l-6.9961.63672m6.9961-.63672l1.34375 2.05078m-2.35937-1.95703l.67187 1.02344m13.64453-1.26172l-6.96484.92578m6.96484-.92578l1.42579 1.9961m-2.44141-1.86329l1.42969 1.9961m12.67968-2.97266l-6.52343 2.60938m6.52343-2.60938l1.875 1.58594m-2.82421-1.20703l1.875 1.58593m12.35546-2.04687l-6.45703 2.77344m6.45703-2.77344l1.91407 1.53906m-2.85157-1.13281l1.91016 1.53515m12.42969-1.71875l-6.63281 2.32813m6.6328-2.32813l1.8047 1.66407m-2.76954-1.32422l1.8047 1.66406m12.5-1.92187l-6.6836 2.16796m6.6836-2.16796l1.76562 1.70312m-2.73829-1.39062l.88282.85546m13.35937-1.30468l-6.58984 2.4414m6.58984-2.4414l1.83203 1.63281m-2.79296-1.27734l.91796.8164m13.42188-.98437l-6.71875 2.0625m6.71875-2.0625l1.73828 1.73437m-2.71484-1.4336l.86718.8672m13.01954-2.03907l-5.90625 3.8086"/><g clip-path="url(#ah)"><path fill="none" stroke="#000" stroke-linecap="round" stroke-linejoin="round" stroke-miterlimit="10" stroke-width=".5" d="M466.51563 358.58984l2.14062 1.19532"/></g><path fill="none" stroke="#000" stroke-linecap="round" stroke-linejoin="round" stroke-miterlimit="10" stroke-width=".5" d="M465.65625 359.14453l1.07031.59766"/><g clip-path="url(#ai)"><path fill="none" stroke="#000" stroke-linecap="round" stroke-linejoin="round" stroke-miterlimit="10" stroke-width=".5" d="M147.4961 346.83594l-6.9922.6875"/></g><path fill="none" stroke="#000" stroke-linecap="round" stroke-linejoin="round" stroke-miterlimit="10" stroke-width=".5" d="M147.4961 346.83594l1.35937 2.04297m-2.375-1.94532l.67969 1.02344m13.65625-.48828l-7.00391-.58203m7.0039.58203l.96876 2.2539m12.29297-3.21484l-6.89844 1.34375m6.89844-1.34375l1.54687 1.90625m-2.55078-1.71094l.77344.95313m13.55468-1.10547l-6.91406 1.2539m6.91406-1.2539l1.51953 1.92578m11.48829-2.85547l-6.30078 3.11329m6.30078-3.11329l1.99218 1.4297m10.97266-1.9961l-5.59766 4.25m5.59766-4.25l2.22656 1.02734m11.19922-.8711l-5.82422 3.9336m5.82422-3.9336l2.16797 1.15235m11.5-.48828l-6.52734 2.60938m6.52734-2.60938l1.875 1.58203m11.57813-1.16015l-6.80079 1.76171m6.80078-1.76171l1.66016 1.80859m-2.64844-1.55469l.82813.90625m13.54297-.82422l-6.9414 1.08985m6.9414-1.08985l1.47656 1.96094m-2.48437-1.80469l.73828.98047m13.59765-1.05078l-6.96484.91797m6.96484-.91797l1.42578 1.9961m-2.4375-1.86329l.71094 1m13.46485-1.79687l-6.66016 2.2461m6.66016-2.2461l1.78125 1.6836m-2.75-1.35548l.89062.83985m13.45703-.94922l-6.78906 1.8086m6.78906-1.8086l1.67188 1.80078m-2.66016-1.53516l.83594.89844m13.5586-.69922l-6.97266.8789m6.97265-.8789l1.41406 2.00781m-2.42968-1.8789l.70703 1.0039m13.59375-1.32812l-6.91016 1.26953m6.91016-1.26953l1.52344 1.92187m-2.53125-1.73828l1.52734 1.92188m12.66797-2.59375l-6.65625 2.2461m6.65625-2.2461l1.78515 1.6836m-2.7539-1.35548l1.78515 1.6836m12.6172-1.57032l-6.89454 1.36329m6.89453-1.36329l1.55078 1.90235m-2.55468-1.70313l1.55078 1.90235m12.8164-1.76954l-6.99218.69922m6.99218-.69921l1.36328 2.04296m-2.3789-1.9414l1.35937 2.04297m12.83203-2.83204l-6.71484 2.07422m6.71484-2.07421l1.7422 1.73046m-2.71876-1.42968l1.74219 1.73046m-2.71875-1.42578l.8711.86329m14.12109-2.1211l-6.16016 3.38281m6.16016-3.3828l2.05078 1.34374m-2.94922-.85156l2.05469 1.34375m-2.94922-.85156l1.02734.67187m14.07422-1.67187l-6.14453 3.41015m6.14453-3.41015l2.0586 1.33593m-2.95313-.83984l2.0586 1.33594m-2.95313-.83985l1.02734.66797m14.0664-1.67578l-6.125 3.4414m6.125-3.4414l2.06641 1.32422m-2.95703-.82422l2.0664 1.32422m-2.95702-.82422l1.03125.66406m13.95703-1.84375l-5.91016 3.80079m5.91016-3.80079l2.14062 1.19922m-3-.64453l1.07032.59766m13.4453-.47266l-6.58983 2.4414m6.58984-2.4414l1.83203 1.63281m-2.79297-1.27734l.91797.8164m13.3164-1.27343L460.3047 348.5"/><g clip-path="url(#aj)"><path fill="none" stroke="#000" stroke-linecap="round" stroke-linejoin="round" stroke-miterlimit="10" stroke-width=".5" d="M466.8164 345.85547l1.88282 1.57422"/></g><g clip-path="url(#ak)"><path fill="none" stroke="#000" stroke-linecap="round" stroke-linejoin="round" stroke-miterlimit="10" stroke-width=".5" d="M465.8711 346.24219l1.8828 1.57422"/></g><g clip-path="url(#al)"><path fill="none" stroke="#000" stroke-linecap="round" stroke-linejoin="round" stroke-miterlimit="10" stroke-width=".5" d="M147.09766 332.20703l-6.19532 3.3125"/></g><path fill="none" stroke="#000" stroke-linecap="round" stroke-linejoin="round" stroke-miterlimit="10" stroke-width=".5" d="M147.09766 332.20703l2.03906 1.36719m11.46875-.94531l-6.57813 2.46875m5.6211-2.10938l.91797.8125m13.4375-.91406l-6.75 1.94922m5.76953-1.66406l.85547.8828m12.29687-2.90624l-4.46094 5.42969m4.46094-5.4297l2.40625.48438m11.35547-.04297l-5.35547 4.54688m4.57813-3.88672l1.14062.45313m13.72656.5078l-6.90625 1.3047m6.90625-1.3047l1.53516 1.91407m11.8164-1.6875l-6.97656.85156m6.97657-.85156l1.40625 2.01172m11.87109-2.25l-6.90234 1.32812m6.90234-1.32812l1.53906 1.91015m11.8164-1.6289l-6.98437.76562m6.98438-.76562l1.38281 2.03125m11.91406-2.16797l-6.94922 1.03906m6.94922-1.03906l1.46094 1.97266M280.5 332.80078l-6.69922 2.125m6.69922-2.125l1.7539 1.71485m11.63673-1.44532l-6.84766 1.58594m6.84765-1.58594l1.60938 1.85156m11.76172-1.53515l-6.96094.95312m6.96094-.95312l1.4336 1.98828m11.70312-2.71094l-6.60547 2.39844m6.60547-2.39844l1.82031 1.64453m11.48828-1.66406l-6.59375 2.4375m6.59375-2.4375l1.83203 1.63281m11.65235-.98437l-6.9336 1.14062m6.9336-1.14062l1.48828 1.94922m11.85156-1.76953l-6.98047.78125m6.98047-.78125l1.38672 2.02343m11.92187-2.07421l-6.96875.8828m6.96875-.8828l1.41797 2.0039m-2.42969-1.875l.70704 1m13.5078-1.67187l-6.74608 1.96875m6.74609-1.96875l1.71484 1.7578m-2.69531-1.47265l.85547.8789m13.54297-.70702l-6.94922 1.05469m6.94922-1.0547l1.46094 1.96876m11.8203-2.14844l-6.8828 1.41406m6.8828-1.41406l1.56641 1.89063m-2.5664-1.6875l.78125.9453m13.45703-1.46093l-6.72656 2.03906m6.72656-2.03906l1.73047 1.73828M426 333.14063l.86719.86718m13.01953-2.04297l-5.91016 3.79688m5.91016-3.79688l2.14062 1.19922m-3-.64844l2.14063 1.19922m12.34765-1.14453l-6.53515 2.58594m6.53515-2.58594l1.8672 1.59375m-2.82032-1.21484l1.86719 1.58984m12.48047-1.7461l-6.69532 2.14063"/><g clip-path="url(#am)"><path fill="none" stroke="#000" stroke-linecap="round" stroke-linejoin="round" stroke-miterlimit="10" stroke-width=".5" d="M466.91016 332.79297l1.7539 1.71484"/></g><path fill="none" stroke="#000" stroke-linecap="round" stroke-linejoin="round" stroke-miterlimit="10" stroke-width=".5" d="M465.9336 333.10547l1.7578 1.71094m-2.73046-1.40235l.8789.85938"/><g clip-path="url(#an)"><path fill="none" stroke="#000" stroke-linecap="round" stroke-linejoin="round" stroke-miterlimit="10" stroke-width=".5" d="M143.63281 317.05469l.73438 6.98828"/></g><g clip-path="url(#ao)"><path fill="none" stroke="#000" stroke-linecap="round" stroke-linejoin="round" stroke-miterlimit="10" stroke-width=".5" d="M143.63281 317.05469l2.03516-1.3711"/></g><path fill="none" stroke="#000" stroke-linecap="round" stroke-linejoin="round" stroke-miterlimit="10" stroke-width=".5" d="M156.78516 317.07422l1.0625 6.94531m-.91016-5.9336l.98438-.73437m11.15625.04297l3.10546 6.30469m-2.65625-5.38672l.71875-.9961m11.14063.82423l5.11719 4.8125m-4.375-4.11329l.32422-1.18359m12.85156-.02734l3.91015 5.83984m14.23047-.89453l-5.74219-4.05078m4.91016 3.46094l-.15625 1.21484m14.79297-1.6211l-6.71875-2.0625m6.71875 2.0625l.46484 2.41016m13.00391-3.4414h-7.02734m7.02734 0l1.15234 2.16796m12.16016-2.26562l-7.02344.19922m7.02344-.19922l1.21484 2.1289m12.09375-2.28515l-7.0078.50781m7.0078-.50781l1.3047 2.07812m11.87108-2.83984l-6.72656 2.03125m6.72656-2.03125l1.72657 1.74219m11.53125-1.90625l-6.61719 2.36328m6.61719-2.36328l1.8164 1.65234m11.70313-.4336l-7.02735-.07812m7.02735.07813l1.1289 2.17969m12.1211-2.89844l-6.89453 1.35937m6.89453-1.35937l1.55078 1.90234m11.46875-2.77344l-6.30469 3.10157m6.30469-3.10157l1.99219 1.4375m11.57031-.77343l-6.79688 1.77343m6.79688-1.77343l1.66406 1.80468m11.69531-1.61718l-6.88671 1.40234m5.8828-1.19922l.78126.94531m13.46484-1.4375l-6.74219 1.98047m5.76172-1.6914l.85938.875m12.70703-2.4922l-5.28125 4.63673m5.28125-4.63672l2.29297.86719m10.7539-1.14063l-4.74609 5.17969m4.7461-5.17969l2.375.61719m10.72265-.80078l-4.3125 5.54687m3.6875-4.73828l1.20703.21094m11.42969-1.65235l-1.70313 6.81641m17.19141-5.19531l-6.05078 3.57422m18.94531-4.14453l-5.21094 4.71484m5.21094-4.71484l2.3086.83593m-3.06641-.14843l1.15625.41406m12.96875-1.04297l-5.3125 4.59766"/><g clip-path="url(#ap)"><path fill="none" stroke="#000" stroke-linecap="round" stroke-linejoin="round" stroke-miterlimit="10" stroke-width=".5" d="M466.21875 318.25l2.28906.88281"/></g><path fill="none" stroke="#000" stroke-linecap="round" stroke-linejoin="round" stroke-miterlimit="10" stroke-width=".5" d="M465.44531 318.91797l2.28906.88281m-3.0625-.21484l1.14454.4414"/><path fill="#00f" fill-rule="evenodd" d="M383.80078 472.08594h8.61719V461.9414h-8.61719v10.14453"/><path fill="azure" fill-rule="evenodd" d="M385.63281 463.77344h.83203v2.82422h3.28907v-2.82422h.83203v6.48047h-.83203v-2.91797h-3.28907v2.91797h-.83203v-6.48047"/><path fill="#00f" fill-rule="evenodd" d="M312.78516 454.33203h8.62109V444.1875h-8.6211v10.14453"/><path fill="azure" fill-rule="evenodd" d="M314.6211 446.01953h.83202v2.82422h3.28516v-2.82422h.83203V452.5h-.83203v-2.91406h-3.28515V452.5h-.83204v-6.48047"/><path fill="#ff3030" fill-rule="evenodd" d="M459.94531 454.33203h7.69531V444.1875h-7.6953v10.14453"/><path fill="azure" fill-rule="evenodd" d="M461.78125 446.01953h.83203v5.73828h3.1914V452.5h-4.02343v-6.48047"/><path fill="#00f" fill-rule="evenodd" d="M383.80078 436.57813h8.61719v-10.14454h-8.61719v10.14454"/><path fill="azure" fill-rule="evenodd" d="M385.63281 428.26563h.83203v2.82421h3.28907v-2.82421h.83203v6.48046h-.83203v-2.91406h-3.28907v2.91406h-.83203v-6.48046"/><path fill="#ff3030" fill-rule="evenodd" d="M375.61719 418.82813h7.69531v-10.14844h-7.69531v10.14844"/><path fill="azure" fill-rule="evenodd" d="M377.44922 410.51172h.83594v5.74219h3.1914v.73828h-4.02734v-6.48047"/><path fill="#ff3030" fill-rule="evenodd" d="M295.72656 414.38672h7.69531v-10.14453h-7.6953v10.14453"/><path fill="azure" fill-rule="evenodd" d="M297.5586 406.07422h.83593v5.74219h3.1914v.73828h-4.02734v-6.48047"/><path fill="#ff3030" fill-rule="evenodd" d="M202.52344 409.94922h7.6914v-10.14453h-7.6914v10.14453"/><path fill="azure" fill-rule="evenodd" d="M204.35547 401.63672h.83203v5.73828h3.19531v.74219h-4.02734v-6.48047"/><path fill="#ff3030" fill-rule="evenodd" d="M189.20703 374.4414h7.6914v-10.14452h-7.6914v10.14453"/><path fill="azure" fill-rule="evenodd" d="M191.03906 366.1289h.83594v5.7422h3.1914v.73827h-4.02734v-6.48046"/><path fill="#ffffe0" fill-rule="evenodd" d="M343.58984 419.0586h22.1797v-10.19141h-22.1797v10.1914"/><path fill-rule="evenodd" d="M347.08984 410.69922h.50782v6.29297h-.78516v-4.48828h-1.38672v-.5547l.5586-.0664.25-.05469.23046-.08984.20313-.14062.17578-.21094.14063-.29297.10546-.39453m4.8125 0l.23047.01953.21875.05469.20703.08984.19922.1211.1836.14843.17187.17578.30078.41797.24219.4961.17969.54687.11328.57813.03906.58984-.03906.59375-.11328.58594-.17969.55469-.24219.5-.30078.42968-.17187.17969-.1836.15234-.19922.1211-.20703.09375-.21875.0586-.23047.01952-.22656-.01953-.21875-.0586-.21094-.09374-.1953-.1211-.1836-.15234-.17188-.17969-.30078-.42969-.24219-.5-.17968-.55468-.11329-.58594-.03906-.59375h.83203l.03125.5625.08204.50781.125.4414.16406.375.1875.30079.21094.22266.22265.13671.22656.04688.22657-.04688.22265-.13671.21094-.22266.1914-.30078.16407-.375.125-.4414.08203-.50782.02734-.5625-.02734-.5586-.08203-.5039-.125-.4336-.16406-.36718-.19141-.28906-.21094-.21485-.22265-.13281-.22657-.04297-.22656.04297-.22265.13281-.21094.21485-.1875.28906-.16406.36719-.125.43359-.08204.5039-.03125.5586h-.83203l.03906-.58984.11329-.57813.17968-.54687.2422-.4961.30077-.41797.17188-.17578.1836-.14844.1953-.12109.21094-.08984.21875-.05469.22656-.01953m4.95313 0l.23047.01953.21875.05469.20703.08984.19922.1211.1836.14843.17187.17578.30078.41797.24219.4961.17968.54687.11328.57813.03516.58984-.03516.59375-.11328.58594-.17969.55469-.24218.5-.30078.42968-.17188.17969-.1836.15234-.19921.1211-.20703.09375-.21875.0586-.23047.01952-.22656-.01953-.21875-.0586-.21094-.09374-.19531-.1211-.1836-.15234-.17187-.17969-.30078-.42969-.2461-.5-.17969-.55468-.10937-.58594-.03906-.59375h.83203l.03125.5625.08203.50781.125.4414.16406.375.1875.30079.21094.22266.22266.13671.22656.04688.22656-.04688.22266-.13671.21094-.22266.1914-.30078.16406-.375.125-.4414.08204-.50782.02734-.5625-.02735-.5586-.08203-.5039-.125-.4336-.16406-.36718-.1914-.28906-.21094-.21485-.22266-.13281-.22656-.04297-.22656.04297-.22266.13281-.21094.21485-.1875.28906-.16406.36719-.125.43359-.08203.5039-.03125.5586h-.83203l.03906-.58984.10938-.57813.17968-.54687.2461-.4961.30078-.41797.17187-.17578.1836-.14844.1953-.12109.21095-.08984.21875-.05469.22656-.01953m4.95312 0l.38672.02734.35938.08203.32422.13672.27734.1875.23047.23828.17187.28516.10938.33203.03906.375-.01953.27735-.0586.23437-.08984.19922-.10937.17187-.1289.14063-.14063.125-.28516.19531.23047.11719.20703.14844.1836.17187.15234.1914.125.21485.08984.23047.05469.24219.01953.25781-.03516.3086-.10156.32812-.17187.32422-.2422.30469-.30468.26953-.375.21484-.21094.08203-.22656.0586-.2461.03906-.26171.01562-.25781-.01562-.2422-.03906-.22265-.0586-.20703-.08203-.35937-.21484-.28907-.26954-.22265-.30468-.15625-.32422-.09375-.32813-.03125-.30859h.83203l.02734.2539.07813.23438.1211.21094.16405.1875.19141.14844.21875.11718.24219.07032.2539.02734.25391-.02734.24219-.07032.21875-.11718.19531-.14844.16016-.1875.12109-.21094.07813-.23437.02734-.25391-.02735-.2539-.07812-.23438-.1211-.21094-.16015-.1875-.19531-.15234-.21875-.11328-.24219-.07422-.2539-.02344-.25391.02344-.24219.07422-.21875.11328-.1914.15234-.16407.1875-.1211.21094-.07812.23437-.02734.25391h-.83203l.01953-.2539.05469-.23829.09375-.22656.12109-.20703.15234-.1914.1836-.17188.20703-.15235.23437-.1328-.28906-.19532-.14062-.125-.12891-.14063-.10938-.17187-.08984-.19922-.05469-.23438-.02343-.27734h.78906l.02344.21485.0664.1914.10156.16797.13672.14063.16407.10937.1914.08203.20703.05078.21875.01563.22266-.01563.20703-.05078.1875-.08203.16406-.10938.13672-.14062.10547-.16797.0664-.1914.02344-.21485-.02343-.21484-.0664-.1875-.10548-.16797-.13672-.14063-.16406-.10937-.1875-.08203-.20703-.05078-.22266-.01563-.21875.01563-.20703.05078-.1914.08203-.16407.10937-.13671.14063-.10157.16797-.0664.1875-.02344.21484h-.78906l.03906-.375.10937-.33203.17188-.28516.23047-.23828.28125-.1875.32031-.13672.35938-.08203.38671-.02734"/><path fill="#ffffe0" fill-rule="evenodd" d="M323.99219 355.23047h22.17969v-10.1914h-22.1797v10.1914"/><path fill-rule="evenodd" d="M327.48828 346.8711H328v6.29296h-.78906v-4.48828h-1.38672v-.55469l.5586-.0664.2539-.05469.22656-.08594.20703-.14453.17188-.20703.14062-.29688.10547-.39453m4.8164 0l.22657.01954.21875.05468.21094.08985.19531.12109.1836.14844.17187.17578.30078.42187.2461.4922.17968.54687.10938.57812.03906.58985-.03906.59375-.10938.58593-.17969.55469-.24609.5-.30078.42969-.17188.17969-.18359.15234-.19531.125-.21094.08984-.21875.0586-.22656.01953-.23047-.01953-.21875-.0586-.20703-.08984-.19922-.125-.1836-.15235-.17187-.17968-.30078-.42969-.24219-.5-.17969-.55469-.11328-.58594-.03515-.59375h.83203l.02734.56641.08203.5039.125.44141.16406.375.19141.30079.21094.22265.22265.13672.22657.04688.22656-.04688.22266-.13672.21093-.22265.1875-.30079.16407-.375.125-.4414.08203-.5039.03125-.56642-.03125-.55859-.08203-.5-.125-.4375-.16407-.36719-.1875-.28906-.21093-.21484-.22266-.13281-.22656-.04297-.22656.04296-.22266.13282-.21094.21484-.1914.28906-.16407.3672-.125.4375-.08203.5-.02734.55858h-.83203l.03515-.58984.11328-.57812.1797-.54688.24218-.49219.30078-.42187.17188-.17578.18359-.14844.19922-.1211.20703-.08984.21875-.05469.23047-.01953m5.08984 0h.50781v6.29297h-.78515v-4.48828h-1.38672v-.55469l.5586-.0664.25-.05469.23046-.08594.20313-.14453.17578-.20703.14062-.29688.10547-.39453m2.82422 2.17579h.78516l.01953-.31641.0625-.28516.09765-.2539.14063-.21485.17969-.17578.22265-.1289.26563-.07813.3086-.02734.23827.01953.22266.0625.20703.10156.17578.14063.14844.17187.11328.20703.07422.23438.02344.26562-.01954.26953-.0664.22266-.10938.1914-.15625.17188-.20312.16406-.2461.16406-.6328.39063-.53907.3125-.4375.3164-.34375.32423-.26563.33593-.1914.35156-.125.3711-.0664.39062-.02344.41797h4.21484v-.73828h-3.33203l.08203-.28515.11328-.23438.14844-.20313.1875-.17968.23047-.17188.27734-.17578.71875-.41797.41406-.20312.34766-.23047.27734-.2539.22266-.26563.16406-.27735.10938-.28515.0625-.28516.02343-.28125-.04296-.38281-.1211-.34766-.1875-.3086-.2539-.26171-.30079-.21484-.34375-.15625-.3828-.09766-.40626-.03516-.4336.03125-.39843.10157-.35547.16406-.30469.23437-.25.3047-.18359.375-.11719.4453-.03906.51954"/></g></defs><use xlink:href="#aq"/></svg>