<svg xmlns="http://www.w3.org/2000/svg" role="img" xmlns:xlink="http://www.w3.org/1999/xlink" viewBox="142.45 309.95 326.84 171.84"><defs><clipPath id="a"><path d="M144 311.67188h1v168.65625h-1zm0 0"/></clipPath><clipPath id="b"><path d="M144 311.67188h324v168.65625H144zm0 0"/></clipPath><clipPath id="c"><path d="M384 476h13v4.32813h-13zm0 0"/></clipPath><clipPath id="d"><path d="M386 477h10v3.32813h-10zm0 0"/></clipPath><clipPath id="e"><path d="M390 479h3v1.32813h-3zm0 0"/></clipPath><clipPath id="f"><path d="M467 311.67188h1v168.65625h-1zm0 0"/></clipPath><clipPath id="g"><path d="M144 479h4v1.32813h-4zm0 0"/></clipPath><clipPath id="h"><path d="M147 480h2v.32813h-2zm0 0"/></clipPath><clipPath id="i"><path d="M153 479h9v1.32813h-9zm0 0"/></clipPath><clipPath id="j"><path d="M160 480h3v.32813h-3zm0 0"/></clipPath><clipPath id="k"><path d="M166 479h9v1.32813h-9zm0 0"/></clipPath><clipPath id="l"><path d="M173 479h3v1.32813h-3zm0 0"/></clipPath><clipPath id="m"><path d="M180 479h8v1.32813h-8zm0 0"/></clipPath><clipPath id="n"><path d="M187 479h3v1.32813h-3zm0 0"/></clipPath><clipPath id="o"><path d="M193 478h8v2.32813h-8zm0 0"/></clipPath><clipPath id="p"><path d="M200 478h3v2.32813h-3zm0 0"/></clipPath><clipPath id="q"><path d="M207 478h7v2.32813h-7zm0 0"/></clipPath><clipPath id="r"><path d="M213 478h3v2.32813h-3zm0 0"/></clipPath><clipPath id="s"><path d="M220 478h8v2.32813h-8zm0 0"/></clipPath><clipPath id="t"><path d="M226 478h4v2.32813h-4zm0 0"/></clipPath><clipPath id="u"><path d="M233 478h8v2.32813h-8zm0 0"/></clipPath><clipPath id="v"><path d="M239 478h4v2.32813h-4zm0 0"/></clipPath><clipPath id="w"><path d="M247 478h7v2.32813h-7zm0 0"/></clipPath><clipPath id="x"><path d="M253 478h3v2.32813h-3zm0 0"/></clipPath><clipPath id="y"><path d="M260 478h8v2.32813h-8zm0 0"/></clipPath><clipPath id="z"><path d="M266 478h4v2.32813h-4zm0 0"/></clipPath><clipPath id="A"><path d="M273 478h8v2.32813h-8zm0 0"/></clipPath><clipPath id="B"><path d="M287 478h7v2.32813h-7zm0 0"/></clipPath><clipPath id="C"><path d="M301 477h6v3.32813h-6zm0 0"/></clipPath><clipPath id="D"><path d="M315 476h4v4.32813h-4zm0 0"/></clipPath><clipPath id="E"><path d="M329 476h2v4.32813h-2zm0 0"/></clipPath><clipPath id="F"><path d="M341 477h6v3.32813h-6zm0 0"/></clipPath><clipPath id="G"><path d="M354 477h6v3.32813h-6zm0 0"/></clipPath><clipPath id="H"><path d="M367 478h7v2.32813h-7zm0 0"/></clipPath><clipPath id="I"><path d="M380 478h8v2.32813h-8zm0 0"/></clipPath><clipPath id="J"><path d="M393 477h7v3.32813h-7zm0 0"/></clipPath><clipPath id="K"><path d="M406 480h9v.32813h-9zm0 0"/></clipPath><clipPath id="L"><path d="M407 478h2v2.32813h-2zm0 0"/></clipPath><clipPath id="M"><path d="M423 476h2v4.32813h-2zm0 0"/></clipPath><clipPath id="N"><path d="M434 477h6v3.32813h-6zm0 0"/></clipPath><clipPath id="O"><path d="M447 477h6v3.32813h-6zm0 0"/></clipPath><clipPath id="P"><path d="M460 477h7v3.32813h-7zm0 0"/></clipPath><clipPath id="Q"><path d="M144 466h4v2h-4zm0 0"/></clipPath><clipPath id="R"><path d="M144 452h4v3h-4zm0 0"/></clipPath><clipPath id="S"><path d="M144 439h4v3h-4zm0 0"/></clipPath><clipPath id="T"><path d="M144 425h4v4h-4zm0 0"/></clipPath><clipPath id="U"><path d="M466 426h2v3h-2zm0 0"/></clipPath><clipPath id="V"><path d="M144 411h4v5h-4zm0 0"/></clipPath><clipPath id="W"><path d="M144 398h4v5h-4zm0 0"/></clipPath><clipPath id="X"><path d="M465 397h3v3h-3zm0 0"/></clipPath><clipPath id="Y"><path d="M144 385h4v4h-4zm0 0"/></clipPath><clipPath id="Z"><path d="M466 385h2v2h-2zm0 0"/></clipPath><clipPath id="aa"><path d="M144 372h4v3h-4zm0 0"/></clipPath><clipPath id="ab"><path d="M465 370h3v3h-3zm0 0"/></clipPath><clipPath id="ac"><path d="M144 359h4v3h-4zm0 0"/></clipPath><clipPath id="ad"><path d="M466 358h2v2h-2zm0 0"/></clipPath><clipPath id="ae"><path d="M144 346h4v2h-4zm0 0"/></clipPath><clipPath id="af"><path d="M466 345h2v3h-2zm0 0"/></clipPath><clipPath id="ag"><path d="M144 332h4v4h-4zm0 0"/></clipPath><clipPath id="ah"><path d="M466 332h2v3h-2zm0 0"/></clipPath><clipPath id="ai"><path d="M144 316h2v9h-2zm0 0"/></clipPath><clipPath id="aj"><path d="M144 317h1v2h-1zm0 0"/></clipPath><clipPath id="ak"><path d="M465 318h3v2h-3zm0 0"/></clipPath><g id="al" clip-path="url(#clip1)"><path fill="#fff" fill-opacity="0" fill-rule="evenodd" d="M0 0h1000v1000H0zm0 0"/><path fill="#d3d3d3" fill-opacity="0" fill-rule="evenodd" d="M162.15234 355.86719l-.23437.29297.0586.23437.11718.17188.17578.23437.29297.34766.11328.0586.11719-.17188.0586-.23438.17577-.17578.46485-.17578h.69922l.23437.29297.28906.8164.0586.17579.17578.23046.35156.23438.69922.69922.17188.17578.23437.34765.23438.41016.28906.58203.41015.46485.23047.23437.23438.17578.11719.23047.17578.29297.17187 1.16406v.23438l.0586.28906.05859.11719.11719.11719.34765.41015.11719.17188.17578.17578.17578.23437.11719.17188.17188.35156.05859.23438.23437.40625.23438-.0586-.17578.17578-.0586.92969h-.58203l-.23437-.11328-.34766.11328-.11719.11719-.05859.29297-.0586.17578-.11718.17187-.46484.29297-.0586.23438-.0586.11328v.64453l.0586.17187v.41016l.0586.0586v.40624l.05859.40625.11719.17579.05859.05859.23047.64062-.0586.29297v.69922l-.05859.58203v.23438l-.0586.23047-.05468.35156v1.92187l.05469.1172h.42578l-.36719.11718-.02344.35156.89063 1.16797 1.74219.53906 1.33984.35938v.53906l.08984.8086.53516.71484 1.51953.26953.89063-.08594.08984 1.16406.53516.1797 1.16015-.1797 2.05469-.98437 1.16016-.36328 1.8789-.17578 1.69531-.1797-.17968.71876-1.51563.08594-1.25.08984-.80469.26953-1.07421.8086.26953.71875.53515.89843-.17968.625-.26563.8086.26563 1.07812.625.89844.80468.17969 1.25-.1797-.26562.72267.09766.5039.05468.29297v.17188l.0586.29296v.40625l.17578.1172.35156.11718h.40625l.29297-.17578.11328-.11719.0586-.11719.11718-.23047.0586-.17578.35156-.46484.23047-.17578.17578-.0586.17578.0586.0586.17578.11718.98828.05469.46875.0586.17188.11718.23437.17578.0586.8164.05859h.28907l.11719.23437.05859.40625.0586.35156v1.10547l.11718.29297.11719.34766.28906.69922.17578.35156.58203.7539.35157.17579.17187.0586.46875.23437.64063.46484.34765.23438.29297.17578.29297.05468.23047.0625.8164.34766.29297.17578.11328.17188.35157.35156.11719.17578.52343.64063v.28906l.0586.35156v.34766l.05859.35156.0586.28906.11718.0586.17188.05859h.17578l.58203.23437.17578.1172.17578.28905.17578.23438.11328.23437.29297.23047.11719.11719v.41016l.0586.05468.28906.23438.23437.11719.0586.11718.11718.17188.0586.11719.23047.23437.05859.17578.23437.0586.1172.05859-.1172.11328-.05859.11719v.11719l-.11719.29296-.11719.28907v.58203l.17579.11719.11718.05859.0586.11719.11719.11719.11328.05859.17578.34765.0586.35157.05858.40625v.17578l-.05859.17578-.11719.69922v.17187l.1172.17579.29296.29296h.40625l.17578.1172.11719.17187.11719.29296v.23438h-.52735l-.23047-.23438h-.23437l-.17578.0586-.0586.69922.0586.34765.11719.17579.17578.41015.11718.23047.28907.46875.17578.05469h.52344l.23437.0586.75781.64062.0586.29296v.23438l.05859.0586.23047.34765v.35156l-.11719.17188v.29297l.29297.28906.29297.17578.17187.0586.29297.17577.29297.1172.58203.40624.28906.23438.29297.17578.21875.16015.01563.01172.23047.17579.64062.52343.17578.23438.1172.17578.17577.17578.11328.17188v.64062l.1172.17578.46874.11719.58203.11719.23438.05859.23047.11328.29297.11719.11328.0586.58593.35156.28907.17187.17578.0625.17578.05469.17578.0586.69922.35155.28906.17579.23438.05468.28906.17578.23437.1172.64063.40624.29297.11719.17187.0586.23438.05859.41015.05859.23047.0586.23438.11718.0586.17188-.41017.17578.46875.0586.0586.29296.11328.23438.17578.05468.23438.0586.17578.05859.40625.11719.64062.23437.11719.17188.0586.23437v.17578l-.0586.1172-.0586.40624.23438.23438.11719.05859.34766.11719.64062.23047.17578.11718.28906.1172.17578.17577.23438.46485.58203 1.10546.17578.17579.34766.17578.17578.11719.35156.11718 1.04688.52344.23437.0586.46485.11327.29297.0586.46484.17578.75781.58203.23438.23438.34765.46484.17578.17578.28907.23438.8164.69921.29297.17579.28906.28906.29297.17578.29297.28906.69531.64063.17578.17578.29297.23437.28907.23438.46875.28906.64062.58203.34766.23438.23437.29297.34766.34765.35156.46485.9336.99218.34765.40625.11719.17579.23437.05859.11328.11719.64454.17578.23047.11328.23437.0586.29297.17577.23047.1172.9336.69921.40624.40625.23438.17578.40625.17578.23437.11719.8164.34766.34766.23437.23438.11719.29297.28906.23047.11719.7578.35156.35157.17188.23047.05859.29297.11719.23437.0586.8711.17577h.8164l.46875.23047.17188.0586.875.69921.46484.1172.29297.05858.17578.0586.23047.0586.46875.05859.34766.05859.35156.0586.40625.05859h.29297l.17187.0586v.23046l.17578.17578h.29297l.34766.0586.35156.05859.69922.11719h.64063l.46484-.23438.29297-.17578.17187-.11719.41016-.17187.28906-.17578.9336-.46485.46875-.29297.52343-.29296.46485-.17188.46484-.17578 1.05078-.46485.28906-.11718.41016-.11719.28906-.11719.52735-.17578 1.51562-.69922.58203-.34765.28907-.0586.29297-.0586.34765-.11718.875-.23047.35156-.11719h.11329l.23437-.05859.875-.23437.23438-.0586h.8125l.35156-.0586.8164-.11718.17188-.0586.35156-.05468.29297-.0586.23047-.05859.8164-.17578.17579-.0586h.34765l.23438-.05859.46484-.11718.75781-.17188.23438-.0586h.34765l.41016-.11718.28906-.0586 1.28516-.05859h.28906l.41016-.0586.23047-.05858h.17578l.875-.1172h.40625l.41015-.11718h.34766l.35156-.11328.8711-.0586h1.75l1.04687.28907.41016.11719.28906.11718.35156.11719.28907.11719 1.05078.17187.28906.0586h.29297l.29297.05859.17187.0586.41016.05859.17187.0586.1172.05858h.11718l.11719.0586.35156.0586h.11328l.41016.0664 1.92187.39453 1.92578.39453 1.51953.44922 1.69532.71875 2.14453.80469 1.60547-.71875 1.42968-.80469 1.16016-1.07813 1.25-.44921 3.03516-.71875 1.875-.35938 2.14453-1.34765 2.23437-1.25391 2.5-1.25781 1.69531-.44922 1.78516-.17969 1.16016-.26953.625.53906 1.33984-.26953.71485-.98828.98437-1.34375.44531-.17969.80469-.35937 1.875-.53907 1.78516-.44921 1.25-.26954 1.16015-.08984 1.69922-.08984 1.96094-.26954 1.25-.08984h.53906l.625-.08984h.89063l2.14453-.17969 2.41015-.17969 2.58985-.08984 1.69531.17969 1.60938.08984 1.42968.35938 1.16016.71875 1.875.98828 1.16015 1.52734.26563.71484.6289.08985.35548.89844.53515.53906.53516 1.52734 1.07422.35938h.53515l-.80469.53515.08985 1.70703.71484 2.69532.89063.80468.89453.98829.71484 1.2578 1.78516.53907 1.51953-.17969.35547 1.34375 1.60937-.80469.98047-.53906.26953.26953.31641-.21484.21875-.14453.80078.44922.44922-.35938h.35547l.53515-.26953.53907-.71875.53515-.26953.625-.98828 1.16016.44922.83984.3711 1.39454.61718 1.6953-.17969h1.60548l1.78515.08985.17969-1.70704.53516-1.34375.80468.26954.4922.84765.40233.40625-.08984.53906v.35938l.71485.44922.71093-.26953h1.42969l.35938.98828.4453 1.25781.71485 1.34375 1.25.6289 1.69531.62891.71485-.17969.17969-.53906.98046-.08984.44922.35937.08594 1.25782-.26563.6289-.53515.17969v.53906l.71484.98438.26563.53906.98437.98828.80078 1.07813-.26562.35937-.08985.89844-.625 2.33203-.35546 2.0664-.08985 1.79298-.17969.71875-.08984.53906v1.4375l-.98047 1.88281-.35937 1.70703-.53516.89844-.80469 1.16797-.26562.53906 2.05469 1.2539.08593.35938-.35546.53906-.08985-.17968v.80859l.08985 1.4375-.44532.71484-1.07422.09375-.26562.71485.53515.89844.8047.71875 1.16015.80859 1.33984.26953.44531.35938-.35546.44921-1.78907-.08984-1.25-.44922-.71484-.71875-.625-.08984-.17578 3.58984-.1875 1.3086h89.35937V311.70313h-55.26953v49.08203l.76172.125 3.28906.54296 2.02344 2.83594v2.7539l2.35156.33204 2.34766.33203h4.05078l-1.3789 4.16016-2.02344.70703-2.02344.70312-.54297.34375-2.59375 1.6172-.1875.11718-2.02344-2.07813-.73046-2.74218-2.67188-2.07813-1.375-3.5-.0664-.08203-1.95704-2.67188 2.75-1.41796v-49.08204H294.42187v91.41407l.1172.03125.1328.01172.07422.07421.10547.04688.08985.0586.08593.05859.08985.0586.29687.29687.0586.08984.03125.11719.02734.11719.01563.13671-.03125.1172-.0586.08983-.0586.08594-.04296.10547-.04688.10156-.02734.1211v.14453l.17578.26953.14844.14844.07422.08594.07422.07421.04296.10547.0625.08985.0586.08593.04297.10547.0586.08985.04687.10156.04296.10547.0586.08594.11719.17968.07421.07422.0625.08594.0586.08984.04297.10547.0586.08985.05858.08593.0625.08985.0586.08984.04297.10156.11719.17969.07421.07422.0586.08594.07422.07421.08984.0586.10547.04687h.14844l.1328-.01562.13282.01562.10156-.04687.07422-.07422.04688-.10156-.01563-.13281v-.14844l-.04687-.10547-.02735-.11719-.04687-.10156-.02735-.1211-.04296-.10156-.0625-.08984-.04297-.10156-.04297-.10547-.03125-.11719-.01563-.13281-.01171-.13672.08593-.0586.0586-.08593.12109-.03125.04297.10547.01562.1328v.1172l.0586.10156.0586.08984.08983.0586.14844.14843.0586.08985.04296.10547-.01171.10156.08593.0586.10547.04687.08594.0586.08984.05858.07422.07422-.11719.02735-.10546.04687-.08594.0586-.07422.07421-.0586.08985-.0625.08594-.02734.12109-.04687.10156-.04297.10547-.03125.11719-.01172.13281-.01563.13281v.14844l.02735.11719.04687.10547.04297.10156.0586.08984.07421.07422.08985.0586.07422.07421.08984.0586.0586.08984.04296.10547.04688.10156.11719.03125.1328.01563h.14845l.11718-.03125.10547.04297.04297.10547.04688.10156.02734.1211L299.5 410l.02734.11719.03125.1211.02735.11718.10547.04297.10156.04687.13281-.01562.14844.14844.0625.08593.07422.07422.07031.07422.08984.0625.10547.04297.10156.04297.1172.03125.13671.01562.11719-.03125.07422-.07422.02734-.11718-.01172-.13282-.03125-.12109-.02734-.11719.04297-.10547h.11719l.08984.0625.11719.02735h.14843l.13282.01562h.14843l.13282.01563.1328-.01563h.14845l.1328-.01562.13282-.01172.13672.01172.11719-.02735.13281-.01562.1914-.0586-.05859.17579-.01562.1328-.02735.1211-.01562.13281-.0586.08594-.1328.01563-.10548.04687-.10546.04297-.1172.03125-.11718.02735-.26563.03125h-.14843l-.13281.01562-.07422.07422.05859.08594.14844.14843.11719.1797.07421.0703.08985.0625.08984.0586.08594.0586.08984.05858.10156.04297.10547.0625.10547.04297.08594.0586.10547.04687.10156.04297.17969.11719.0586.08984-.04298.10156-.04687.10547.01562.13281.22266.22266.0586.08985.04296.10156.03125.1211.04297.10155.01563.13282.03125.11718.01171.13672.03125.11719.14844.14844.10156.04297.10547.04296.1172.03125.1328.01563.13672.01563h.11719l.11719-.03125.08984-.0586.04297-.10547.04688-.10156.04296-.10547.03125-.11719.01172-.1328v-.14845l-.01172-.1328-.01562-.13282-.03125-.11719-.04297-.10547-.04688-.10547-.04296-.10156-.04297-.10547-.01563-.13281.01563-.13281.02734-.11719.03125-.11719.02735-.1211.04687-.10155.08984-.0586.08594-.0625.07422-.07422.08984-.05859.22266-.22266.0586-.08593.07421-.07422.11719-.17969.0586-.08594v-.14844l-.07423-.07421-.10156-.04688-.10547-.04297-.10156-.04297-.0586-.08984-.04687-.10547-.02734-.11719.08984-.05859.11719-.03125.10156-.04297.17969-.11719.14844-.14843.01172-.13282-.01172-.10546-.08985-.0586-.1328.01563h-.14845l-.1328.01562-.13282-.01562-.1211-.03125-.08593-.0586-.07422-.07422-.0586-.08984-.0625-.08594-.11718-.17969-.0586-.08593.03125-.1211.08594-.05859.1211-.03125.05859-.08594v-.1211l-.03125-.11718-.0586-.08984-.05859-.08594-.04687-.10547-.02735-.11719-.01562-.1328.0586-.08985.07421-.07422.08984-.0586.1172-.17968.07421-.07422.0586-.08594.14843-.14844.1211-.03125.1328-.01562.13282.01562.07422.07422.04297.10547.01562.13281-.03125.1172-.11719.03124-.1328.01172-.14844.14844-.04297.10547-.04688.10156-.02734.1211-.03125.11718v.14844l.03125.11719.04297.10546.05859.08985.07422.07031.07422.07422.11719.03125.12109.02734.11719-.02734.1328-.01563h.1172l.08984.0586.07422.07422.04687.10546.0586.08594.10156.04688.13281.01562.10547.04297.08594.0586-.01172.10546-.07422.07422-.17969.11719-.05859.08984-.08984.0586-.07032.07422-.07421.07421-.0625.08985-.02735.11719-.01562.1328.01562.13282-.01562.13281v.14844l.01562.13281.02735.1172.03125.12108.07421.07422.08985.0586.08594.0586.08984.05858.11719.03125v.08594l-.10157.04688-.08984.0586-.26563.03124-.11718.02735h-.14844l-.10547.04296-.10156.04688-.0586.08984-.0625.23438-.01171.13281-.03125.1211-.01563.1328v.29298l-.01172.1328.01172.13673.01563.1328.1328.01563.13282.01172.1211.03125.08593.0586.07422.07421.04688.10547.04296.10157.01563.1328v.44532l-.01563.13281v.44532l.03125.26562.02735.11719.01562.13281.03125.11719.08594.21094.03125.26562v.14844l-.03125.11719-.02734.11718-.03125.1211-.02735.11719-.03125.11718-.03125.1211-.01171.1328-.01563.13282.08984.0586.1172-.03125.10155.01562.04688.10547-.03125.26562v.44141l-.04297.10547-.04688.10547-.04296.10156-.04297.10547-.0586.08594-.03125.12109-.04296.11719-.03125.11719-.01563.1328.01563.13282.05859.08984.10547.04688.08594.0586.05859.08593-.01172.13672-.03125.11719-.04297.10156v.44531l-.01562.13281v.14844l-.03125.11719-.04297.10547-.02735.11719-.04687.10546-.04297.10157-.03125.12109-.02734.11719-.03125.13281-.03125.11719-.02735.11719-.04297.10546-.03125.1172-.03125.12108-.01171.13282-.01563.13281v.29688l.02734.11718v.14844l.04688.39844.02734.11719.0586.08984.12109.03125h.14844l.13281-.01563.0586.08985v.11719l-.0586.08984-.08984.0586-.10157.04296-.10546.04688-.08985.05859-.08594.0586-.13671.01562-.1172-.03125-.1328-.01563-.10157.04688-.0625.08594-.01172.13671-.01562.13282-.03125.11719-.02735.11718-.01562.13281-.03125.1211v.29687l.01563.13282.03125.11718v.14844l.01171.13281v.14844l-.02734.11719-.04688.10156-.02734.1211-.03125.11718-.0586.08985-.07421.07421-.10156.04297-.10547.04688-.11719.02734-.1211.03125-.10156-.04687.0586-.08594.10547-.04688.02734-.11718.03125-.11719.02734-.1211.03125-.11718v-.14844l.01563-.13281-.03125-.11719-.04297-.10547-.10547.01563-.07422.07422-.10156.04296-.08984.0625-.07422.07422-.04297.10157-.01563.1328-.03125.1172L304.25 426l-.03125.11719-.02734.11719-.03125.12109-.02735.11719-.03125.11718-.04297.10547-.08984.0586h-.08984l-.1172-.03125-.03124-.08594.01562-.13672-.03125-.11719v-.14844l-.01171-.1328v-.14844l-.0625-.23438-.02735-.1211-.04297-.10156-.04687-.10546-.0586-.08594-.05859-.08985-.04297-.10546-.0625-.08594-.14844-.14844-.0703-.07422-.10548-.04687-.10547-.04297-.10156-.04297-.29687-.29688-.08985-.07421-.08594-.0586-.10546-.04297-.08985-.0625-.08594-.0586-.10546-.04296-.08985-.0586-.08594-.0625-.07421-.0703-.10547-.04688-.08594-.0586-.10547-.04296-.08984-.0625-.10156-.04297-.10547-.04297-.08594-.0586-.10547-.04687-.10547-.04297-.10156-.04687-.08985-.0586-.10156-.04297-.10547-.04296-.08984-.0625-.11719-.02735-.13281-.01562-.13281.01562H299.75l-.13281.01563-.11719-.03125-.08984-.0586-.07422-.07422-.08985-.05859-.10156-.04688h-.14844l-.12109-.02734-.10156-.04297-.07422-.07422-.11719-.17968-.08984-.0586-.10156-.04297-.08985-.0625-.10547-.04296-.08984-.0586-.08594-.0586-.10547-.04687-.0586-.08594-.05858-.08984-.04297-.10547-.04688-.10156-.07422-.07422-.08594-.0586-.07421-.07421-.08985-.0586-.22265-.22265-.04297-.10547-.03125-.26563.10547-.04296h.14453l.10547.04296.07421.07422.08985.0586.08594.0586.10546.04687.08985.05859.14844.14844.0703.07422.14845.14843.0625.08594.07421.07422.08594.0586.07422.07421.08985.0625.08984.0586.08594.05859.26953.17578.10156.04688.10547.04296.10156.04297.04688-.07421.05859-.08594.07422-.07422.07031-.07422.10547.04297.07422.07422.0586.08984.04296.10156.04688.10547.04296.10547.1211.02735.11719-.02735.07421-.08984.04297-.10547.0586-.08985.07422-.07421.10546-.04297.1172-.02735.1328.01172.08985.0586.14844.14843.05859.08985.04297.10547.04687.10156.04297.10547.04297.10156.10547.04688.10547.04296.13281.01563.08594-.0586.0586-.08984.07421-.07422.10547-.04297.11719.02735.10547.04687.10156.04297.10547.04297.10156.04688.17969.11718v.11719l-.01563.13281.01563.13281.01562.13672.0586.08594.10156.04688.1211.02734.11718.03125h.14844l.11719-.03125.05859-.08984.17969-.1172.05859-.08983.07422-.07422.0586-.08594.11718-.17969.17969-.11719.11719.03125.08984.0586.04297.07422-.01563.1328v.1172l.08985.05859h.14843l.13282-.01563.1328-.01171.26563-.03125.10547-.04297.11719-.03125.1211-.02735.07421-.07421.07031-.07422.0625-.08985-.01562-.10547-.04688-.10156-.10156-.04297-.10547-.01562-.11718.02734-.26563.03125h-.14844l-.07421-.07422-.08985-.0586-.11719-.03124-.11718-.02735-.13282-.01562h-.14843l-.13282.01563h-.29687l-.10547-.04688-.14844-.14844-.04297-.10156-.05859-.08984.22266-.22266.08593-.0586.10547-.04296.11719-.03125.13281-.01563.13281.01563.13672.01562.10157.04297.1328-.01172.08985-.0625.10156-.04297.0625-.08984-.04687-.10156-.08984-.0586-.1172-.03125-.10155-.04296-.0586-.08985-.0625-.08984v-.11719l.01563-.13281.10547-.04688.07421-.07031v-.1211l-.08984-.05859-.03125-.11719.08985-.05859.07421-.07422.04297-.10547.0586-.08984.04687-.10156.01563-.13281v-.14844l-.04688-.10547-.04297-.10156-.08984-.0586-.13281-.01562-.10157-.04297-.13671-.01563-.1172-.03125h-.4453l-.13282-.01562-.13281-.01172-.13281-.01563-.11719-.03125h-.14844l-.13281-.01562-.13281-.01172-.26563-.03125-.1211-.04297-.08593-.0586-.07422-.07421v-.14844l.01172-.13281.10547-.04688.10156-.04296.13281-.01563h.15235l.13281-.01562h.29297l.1211.03125.10156.04296.08984.0586.23438.0625.12109-.04688.08984-.05859.10156-.04297.13282-.01562.10547.04296.10156.04688.13281.01172.1211-.02735h.14453l.12109-.03125.11719-.02734.10547-.04687.07421-.07422.08594-.0586.14844-.14843.0586-.08594.04687-.10547.02734-.11719.01563-.10547-.10156-.04296-.08985-.0586-.11719-.03125-.10546-.04297-.08985-.0625-.07422-.08594-.07422-.07421-.10156-.04297-.10547-.04688-.10156-.04297-.0586-.08984-.04687-.10156-.08594-.21094-.0625-.08594-.05859-.08984-.07422-.07422-.08594-.0586h-.26953l-.11719.03126-.08984.05859-.10156.04297-.13281.01562-.10547-.01562-.02735-.11719-.0625-.08984-.11718-.03125-.10157-.04297-.14843-.14844-.03125-.11719-.01563-.10546.07422-.07422.17969-.1172.11719-.02733.11718-.03125.13672.01562.10156.04297.10547.04297.10156.04687.10547.04297.1172.03125.1328.01563.1172.02734.1328.01563.10547-.01563.08985-.0586-.07422-.07421-.10547-.04297-.07422-.07422-.07422-.08984-.14844-.14844-.08593-.0586-.08985-.05859-.07422-.07422-.08984-.0586-.10156-.04687-.1211-.02734-.10156-.04688-.10547-.04296-.11719-.03125-.10156-.04297-.1211-.03125h-.14843l-.11719.03125-.10546.04297-.08594.0625-.17969.11718-.08594.0586-.08984.0586-.10547.04687-.08594.05859-.10547.04297-.10156.04297-.10547.04687-.07422.07422-.05859.08985-.0586.08593-.04687.10547-.0586.08594-.07421.07422-.13281-.01172-.1172-.03125h-.11718l-.07422.07422-.08984.0586-.07422.07421-.08984.0586-.08594.05859-.10547.04687-.10156.04297-.13672.01563-.10156-.04297-.14844-.14844-.10547-.04688h-.08594l-.10547.04688-.10156.04297-.1211.03125-.11718-.03125-.07422-.07422v-.11719l.03125-.1211.07422-.0703.0586-.08985.07421-.07422.11719-.03125.10547-.04296h.29297l.13281-.01563.13672-.01563.10156-.04296.08985-.0586.10156-.04687.08984-.0586.13281-.01171.08985.05859.13281.01172.08984-.0586.08594-.05859.10547-.04297.08984-.0586.08594-.0625.08985-.05859.14843-.14843.0586-.08594.05859-.08985.10547-.04296.13281-.01563.11719.02735.1211.03125.05859-.0586.05859-.08984.03125-.26563.02734-.11719.10547.01172.13281.01563.10157-.04297.08984-.0586.0586-.08984.07421-.07422.0586-.08984.04687-.10156.01172-.13281-.01172-.13282-.04687-.10547-.14844-.14843-.0586-.08985-.05859-.08594-.04297-.10546v-.44532l.01563-.1328v-.14845l.01172-.1328-.0586-.0586-.08984.0586-.10156-.04298-.17969-.11719-.08594-.05859-.0625-.08984-.0586-.08985-.07421-.07421-.08594-.0586-.1211.03125-.10155.01172-.10547.04688-.08594.05859-.10547.04297-.14844.14844-.08984.05859-.08594.0586-.08984.0625-.10547.04296-.13281.01563v-.1211l.10547-.04297.11718-.03125.07422-.0703.04297-.10548v-.14844l-.02734-.11718-.14844-.14844-.13281-.01563h-.14844l-.11719.03125-.10547.04297-.10156.04297-.08984.0625-.11719.02735-.07422-.07422.01172-.13281-.04297-.10157-.04297-.10547-.08984-.05859-.11719.02734-.1211.03125-.11718.03125-.10156.04297-.1211.03125-.10156.04297-.10547.04297-.08984.0586-.10156.01562v-.11719l.01562-.13281-.0586-.08985-.07421.04297-.14844.14844-.0586.08985-.07421.07421-.04688.10547-.04296.10156-.07422.07422-.0586.08985-.07422.07422-.05859.08593-.07422.07422-.08984.0625-.07422.07031-.07422.07422-.10156.01563-.13281.01562-.10547-.04296v-.1211l.14843-.14844.04297-.10156.0586-.08984.04687-.10156.04297-.10547.0586-.08985.03124-.11719.04297-.10156.03125-.1211.02735-.11718.04687-.10547.04297-.10156.04297-.10547.07422-.07031.08984-.0625.08985-.0586.10156-.04296h.29687l.26563-.03125.10547-.04297-.07422-.07422-.11719-.03125-.10547-.04297-.08984-.0586-.10156-.04687-.08985-.0586-.10156-.04296-.10547-.04297-.08984-.0625-.08594-.0586-.10547-.04296-.10156-.04297-.1211-.03125-.11718-.03125-.10157-.04297L297.5 410.25l-.10156-.04297-.08985-.0586-.04296-.10546-.01563-.13281.10156-.04297.13281-.01563.13672.01563.13282-.01563.10156-.04297.0586-.08984.01562-.10547-.08985-.0586-.07421-.07421-.10157-.04297-.08984-.0586-.14844-.14843-.04297-.10547-.01562-.13281v-.29297l-.0586-.08985-.08984-.05859-.07422-.07422-.04297-.10547-.03125-.11718-.0586-.08985-.07421-.07422-.11719-.02734-.07422-.07422-.08984-.0586-.08984-.0625-.08594-.05859-.07422-.07421-.0586-.08594-.04687-.10547-.08594-.0586-.14843-.14843-.19532-.0586-.1328.01563-.10157.04297-.07422.07422-.04688.10156-.04296.10547-.0586.08984-.0586.08594-.29687.29687-.08984.0586h-.08594l-.0625-.08594-.04297-.10547.03125-.11719.0586-.08984.02734-.11719-.01172-.13281-.08984-.0625-.10547.04688-.11719.02734-.11719.03125-.26953.17578-.10156.04688-.11719.02734-.10546.04687-.08985.0586-.10156.04297-.0586-.08594-.04687-.10547.01563-.13281.04687-.10547.07031-.07422.07422-.07031.0586-.08985v-.14843l-.04297-.10547h-.23829l-.10156.04687-.03125.11719-.02734.11719-.03125.1211-.07422.04296-.13281.01563-.07422-.04688-.04297-.10156-.04297-.10547-.04687-.10156-.04297-.10547-.1211.03125-.10156.04297-.13281.01562-.11719.03125-.10547.04297-.08984.0586-.10156.04687-.1211.02734-.13281.01563-.10156-.04297-.0586-.08985-.04687-.10546-.04297-.10157-.04297-.10546v-.1172l.0586-.08984.08593-.05859.17969-.11719.10156-.04687.10547-.04297.10547-.0586.10156-.04296.08985-.0625.10156-.04297.10547-.0586.10156-.04687.08984-.0586.10547-.04296.10156-.04297.08985-.0625.10156-.04297.13672-.01563.11719.03125.10156.04297.1211.03125.10156.04297.10546.04688.10157.04296.10547.04297.10156.04688.10547.04297.10156.04297.10547.04687.08594.0586.10546.04296.1172.03125.10546.04297.10156.04688.08985.0586.10547.04296.10156.04297.10547.04687.11719.02735.10156.04687.1211.02735h.14843l.08594-.0586.01562-.10156.0586-.08984-.02735-.1172-.07422-.07421-.11719-.17969-.07421-.07422-.08985-.07421-.17969-.1172-.08593-.05859-.10547-.04296-.10156-.04688-.26954-.17578-.05859-.08985-.07422-.07421-.0586-.08985-.04296-.10156-.03125-.11719-.01563-.13672v-.5625l-.01171-.1328-.01563-.13282-.03125-.11719-.01562-.13281-.01172-.13281-.03125-.1211-.22266-.22265-.0586-.08594-.01562-.10547.03125-.11719.13281-.01562v-91.41406H172.9922v1.45312l-.0586.23438-.35156 1.05078-.17187.52343-.1172.34766-.17577.41016-.11719.17187-.23438.29297-.23046.0586h-.35157l-.11718.05859-.23047.40625v.29297l.11719.17578.23046.23047.1172.23437.64062.75781.29297.46485.17578.23437.23047.35156.23437.34766.64063.8164.17578.46485.17187.41016.11719.69531.17578.46875.11719 1.39844.0586.46484v.875l.11718 1.04688v4.78125l-.0586.46484-.35156 1.28125-.17578.52344-.11328.41015-.35156.9297L172.93359 336l-.23437.58203-.11719.17578-.17187.34766-.17578.40625-.35157.8164-.0586.29297-.11327.29297-.11719.28906-.0586.17579-.11718.875-.0586.40625-.05859.11718-.0586.17579-.05859.17187-.23047.52734-.11718.17188v.23437l-.11719.23438-.0586.17187-.17577.58594v.28906l-.0586.17579v.29296l-.0586.11329-.05859.52734v.17187l-.05468.23438v2.6211l-.17578.8164-.1172.17578-.17577.23438-.1172.17187-.11327.23438-.58594.93359-.23047.28906-.29297.46485-.17578.23437-.28906.35156-.35156.69922-.11328.23047-.17579.41016-.17578.23046-.40625.52735-.8164.69922-.29297.17187-.28906.23438-.17579.11719-.17578.17578-.52344.40625-.52734.17578-.17187.17578-.23438.05469-.64062.17578h-.75782m12.21094 31.02344l-1.07422.44921.35938.89454 1.25-.71485.44531-.53906-.98047-.08985"/><path fill="#d3d3d3" fill-opacity="0" fill-rule="evenodd" d="M201.50781 416.59766h-.89453l.44922.6289.98047.35938.80469-.08985.4453-.98828-.17577.08985-.71485-.35547-.89453.35547m154.6211 59.0703l-.0586-.52343v-.29297l.11328-.29297.0586-.23046.46875-.46875h.11328l.11719-.11329.11718-.05859h.17579l.23437-.0586h.34766l.23437.0586.11719.0586.23047.17187.0586.17578.11718.58203v.29297l-.11719.17578-.17187.28906-.17579.17579-.52734.52343-.23047.23438-.11719.0586h-.17578l-.11718-.0586-.40625-.29297-.17579-.11719-.11718-.0586-.0586-.11327-.05468-.1172m6.64062-10.95702l-.0586-.17188v-1.10937l.0586-.17188.17578-.0586.17188-.05858h.17578l.23437-.0586.1172.0586.05858.69921-.05859.17188-.11719.17578-.11718.0586-.23438.52343-.11328.0586h-.23438l-.05859-.1172m9.61328-14.39062l-.11719-.17578v-.69922l.29297-.875.1172-.17187.17577-.35156.11328-.23047.1172-.29297.35155-.75781.1172-.23047.17187-.23438h.17578l.11719-.0586h.64062l.11719.0586.23437.23438.17188.11328.35156.29297.11719.11718.11328.17579v.11328l.11719.05859.11718.11719v.69922l-.05859.17578v.23047l-.0586.17578-.34765 1.05078-.11719.23047-.11719.23437-.11718.0586-.23047.23437-.64063.28906h-.875l-.41015-.11718-.64063-.46485"/><path fill="none" stroke="#bebebe" stroke-linecap="round" stroke-linejoin="round" stroke-miterlimit="10" stroke-width=".5" d="M467.95703 311.69531H144.02734v168.625h323.9297v-168.625"/><g clip-path="url(#a)"><path fill="#fff" fill-opacity="0" fill-rule="evenodd" d="M144 475.89063v4.4375h.0039H144V311.67188h.0039H144v164.21875"/></g><g clip-path="url(#b)"><path fill="#fff" fill-opacity="0" fill-rule="evenodd" d="M144.0039 480.32813V311.67188h66.57032v120.8203l-4.4375 2.6875-.57031.76563-2.19532 4.4375-1.67187 4.23828-.16797.19922.16797.16406 4.4375 1.76563 4.4375-.0039 2.71094-1.92579.17578-4.4375 1.55469-1.21875 2.29296-3.21875-2.29297-2.57031-4.4414-.88281V311.67188h8.8789v112.96484l-2.73046 2.4336 2.73047 3.59765 2.73046-3.59766-2.73047-2.4336V311.67189h8.875v119.42187l-.96875.41406.96875.57031 1.0625 3.8672 3.375 3.09374 3-3.09375-3-3.04297-4.03125-1.39453-.40625-.41406V311.67187h13.31641v125.8672l-2.91016 2.84374 2.91016 2.8164 4.3086-2.8164-4.3086-2.84375V311.67187h133.14844V444.5586l-.5039.26172.19921 4.4414.30469.21876.28515-.21875.22657-4.4414-.51172-.26173V311.67188h8.8789v140.5625l-1.59765 1.46484.02344 4.4375.9414 4.4375.63281.71484 4.4375 3.02344 1.3125.70313 3.125 2.6289 2.39844-2.6289-1.80469-4.44141-.45703-4.4375-.13671-.22266-4.4375-2.64844-2.23438-1.5664-2.20313-1.46485v-140.5625h84.32422v168.65625h-71.51562l-3.9336-3.8125-4.4375-.22656-3.57421 4.03906H144.0039"/></g><path fill="#50fcfc" fill-rule="evenodd" d="M201.69922 444.98438l-.16797-.16407.16797-.19922 1.67187-4.23828 2.19532-4.4375.5703-.76562 4.4375-2.6875v3.13281l-.4375.32031.4375.4961.54298-.4961-.54297-.32031v-3.13281l4.4414.88281 2.29297 2.57031-2.29297 3.21875-1.55468 1.21875-.17578 4.4375-2.71094 1.92578-4.4375.00391-4.4375-1.76563"/><path fill="#00e8fc" fill-rule="evenodd" d="M210.57422 436.4414l-.4375-.49609.4375-.32031.54297.32031-.54297.4961"/><path fill="#50fcfc" fill-rule="evenodd" d="M219.45313 430.66797l-2.73047-3.59766 2.73047-2.4336 2.73046 2.4336-2.73047 3.59766m8.875 1.41015l-.96875-.5703.96875-.41407.40625.41406 4.03125 1.39453v2.96094l-.08984.08203.08984.08594.08204-.08594-.08203-.08203v-2.96094l3 3.04297-3 3.09375-3.375-3.09375-1.0625-3.86719"/><path fill="#00e8fc" fill-rule="evenodd" d="M232.76563 436.03125l-.08985-.08594.08984-.08203.08204.08203-.08203.08594"/><path fill="#50fcfc" fill-rule="evenodd" d="M241.64453 443.19922l-2.91016-2.8164 2.91016-2.84376v2.55078l-.30078.29297.30078.29297.44531-.29297-.4453-.29297v-2.55078l4.30858 2.84375-4.30859 2.8164"/><path fill="#00e8fc" fill-rule="evenodd" d="M241.64453 440.67578l-.30078-.29297.30078-.29297.44531.29297-.4453.29297"/><path fill="#50fcfc" fill-rule="evenodd" d="M374.48828 449.26172l-.19922-4.4414.5039-.26173.51173.26172-.22656 4.4414-.28516.21876-.30469-.21875m7.60938 8.875l-.02344-4.4375 1.59765-1.46485 2.20313 1.46485 2.23438 1.5664 4.4375 2.64844.13671.22266.45704 4.4375 1.80468 4.4414-2.39844 2.62891-3.125-2.6289-1.3125-.70313-4.4375-3.02344-.6328-.71484-.94141-4.4375"/><g clip-path="url(#c)"><path fill="#50fcfc" fill-rule="evenodd" d="M384.53516 480.32813h1.64062l1.9336-2.1836 4.4375-.34375 2.60937 2.52735h1.32422l-3.9336-3.8125-4.4375-.22657-3.57421 4.03906"/></g><g clip-path="url(#d)"><path fill="#00e8fc" fill-rule="evenodd" d="M386.17578 480.32813l1.9336-2.1836 4.4375-.34375 2.60937 2.52735h-2.21094l-.39844-.38672-1.6914.38671h-4.67969"/></g><g clip-path="url(#e)"><path fill="#00d4fc" fill-rule="evenodd" d="M390.85547 480.32813l1.6914-.38672.39844.38671h-2.08984"/></g><g clip-path="url(#f)"><path fill="#fff" fill-opacity="0" fill-rule="evenodd" d="M467.9961 480.32813H468V311.67188h-.0039H468v168.65625h-.0039"/></g><g clip-path="url(#g)"><path fill="none" stroke="#000" stroke-linecap="round" stroke-linejoin="round" stroke-miterlimit="10" stroke-width=".5" d="M147.47656 480.82813l-6.95312-1"/></g><g clip-path="url(#h)"><path fill="none" stroke="#000" stroke-linecap="round" stroke-linejoin="round" stroke-miterlimit="10" stroke-width=".5" d="M147.47656 480.82813l.83203 2.30859"/></g><g clip-path="url(#i)"><path fill="none" stroke="#000" stroke-linecap="round" stroke-linejoin="round" stroke-miterlimit="10" stroke-width=".5" d="M160.82031 480.54297l-7.01172-.42969"/></g><g clip-path="url(#j)"><path fill="none" stroke="#000" stroke-linecap="round" stroke-linejoin="round" stroke-miterlimit="10" stroke-width=".5" d="M160.82031 480.54297l1.01953 2.23437"/></g><g clip-path="url(#k)"><path fill="none" stroke="#000" stroke-linecap="round" stroke-linejoin="round" stroke-miterlimit="10" stroke-width=".5" d="M174.11719 479.90625l-6.97656.84766"/></g><g clip-path="url(#l)"><path fill="none" stroke="#000" stroke-linecap="round" stroke-linejoin="round" stroke-miterlimit="10" stroke-width=".5" d="M174.11719 479.90625l1.40625 2.01172"/></g><g clip-path="url(#m)"><path fill="none" stroke="#000" stroke-linecap="round" stroke-linejoin="round" stroke-miterlimit="10" stroke-width=".5" d="M187.35547 479.47656l-6.82031 1.70313"/></g><g clip-path="url(#n)"><path fill="none" stroke="#000" stroke-linecap="round" stroke-linejoin="round" stroke-miterlimit="10" stroke-width=".5" d="M187.35547 479.47656l1.64062 1.82422"/></g><g clip-path="url(#o)"><path fill="none" stroke="#000" stroke-linecap="round" stroke-linejoin="round" stroke-miterlimit="10" stroke-width=".5" d="M200.5625 479.125l-6.60547 2.40625"/></g><g clip-path="url(#p)"><path fill="none" stroke="#000" stroke-linecap="round" stroke-linejoin="round" stroke-miterlimit="10" stroke-width=".5" d="M200.5625 479.125l1.82422 1.64453"/></g><g clip-path="url(#q)"><path fill="none" stroke="#000" stroke-linecap="round" stroke-linejoin="round" stroke-miterlimit="10" stroke-width=".5" d="M213.67969 478.67969l-6.20703 3.29687"/></g><g clip-path="url(#r)"><path fill="none" stroke="#000" stroke-linecap="round" stroke-linejoin="round" stroke-miterlimit="10" stroke-width=".5" d="M213.67969 478.67969l2.03125 1.375"/></g><g clip-path="url(#s)"><path fill="none" stroke="#000" stroke-linecap="round" stroke-linejoin="round" stroke-miterlimit="10" stroke-width=".5" d="M226.95703 478.61328l-6.13281 3.4336"/></g><g clip-path="url(#t)"><path fill="none" stroke="#000" stroke-linecap="round" stroke-linejoin="round" stroke-miterlimit="10" stroke-width=".5" d="M226.95703 478.61328l2.0625 1.32813"/></g><g clip-path="url(#u)"><path fill="none" stroke="#000" stroke-linecap="round" stroke-linejoin="round" stroke-miterlimit="10" stroke-width=".5" d="M240.21484 478.51563l-6.01953 3.625"/></g><g clip-path="url(#v)"><path fill="none" stroke="#000" stroke-linecap="round" stroke-linejoin="round" stroke-miterlimit="10" stroke-width=".5" d="M240.21484 478.51563l2.10547 1.26171"/></g><path fill="none" stroke="#000" stroke-linecap="round" stroke-linejoin="round" stroke-miterlimit="10" stroke-width=".5" d="M239.33984 479.04297l1.05078.6289"/><g clip-path="url(#w)"><path fill="none" stroke="#000" stroke-linecap="round" stroke-linejoin="round" stroke-miterlimit="10" stroke-width=".5" d="M253.55078 478.55078l-6.0625 3.55469"/></g><g clip-path="url(#x)"><path fill="none" stroke="#000" stroke-linecap="round" stroke-linejoin="round" stroke-miterlimit="10" stroke-width=".5" d="M253.55078 478.55078l2.08984 1.28906"/></g><path fill="none" stroke="#000" stroke-linecap="round" stroke-linejoin="round" stroke-miterlimit="10" stroke-width=".5" d="M252.66797 479.07031l1.04687.64063"/><g clip-path="url(#y)"><path fill="none" stroke="#000" stroke-linecap="round" stroke-linejoin="round" stroke-miterlimit="10" stroke-width=".5" d="M266.94531 478.6914l-6.21875 3.27344"/></g><g clip-path="url(#z)"><path fill="none" stroke="#000" stroke-linecap="round" stroke-linejoin="round" stroke-miterlimit="10" stroke-width=".5" d="M266.94531 478.6914l2.02735 1.38282"/></g><g clip-path="url(#A)"><path fill="none" stroke="#000" stroke-linecap="round" stroke-linejoin="round" stroke-miterlimit="10" stroke-width=".5" d="M280.1836 478.55469l-6.06641 3.55078"/></g><path fill="none" stroke="#000" stroke-linecap="round" stroke-linejoin="round" stroke-miterlimit="10" stroke-width=".5" d="M279.30078 479.07031l1.04297.64453"/><g clip-path="url(#B)"><path fill="none" stroke="#000" stroke-linecap="round" stroke-linejoin="round" stroke-miterlimit="10" stroke-width=".5" d="M293.32422 478.28906l-5.71875 4.08203"/></g><path fill="none" stroke="#000" stroke-linecap="round" stroke-linejoin="round" stroke-miterlimit="10" stroke-width=".5" d="M292.49219 478.88281l1.09765.54688"/><g clip-path="url(#C)"><path fill="none" stroke="#000" stroke-linecap="round" stroke-linejoin="round" stroke-miterlimit="10" stroke-width=".5" d="M306.16406 477.7461l-4.76562 5.16406"/></g><path fill="none" stroke="#000" stroke-linecap="round" stroke-linejoin="round" stroke-miterlimit="10" stroke-width=".5" d="M305.46875 478.4961l1.1875.3125"/><g clip-path="url(#D)"><path fill="none" stroke="#000" stroke-linecap="round" stroke-linejoin="round" stroke-miterlimit="10" stroke-width=".5" d="M318.67578 477.1914l-3.15625 6.27735"/></g><g clip-path="url(#E)"><path fill="none" stroke="#000" stroke-linecap="round" stroke-linejoin="round" stroke-miterlimit="10" stroke-width=".5" d="M330.70703 476.82813l-.59375 7"/></g><g clip-path="url(#F)"><path fill="none" stroke="#000" stroke-linecap="round" stroke-linejoin="round" stroke-miterlimit="10" stroke-width=".5" d="M341.50781 477.60156l4.4336 5.45313"/></g><path fill="none" stroke="#000" stroke-linecap="round" stroke-linejoin="round" stroke-miterlimit="10" stroke-width=".5" d="M342.15234 478.39453l.48047-1.1289"/><g clip-path="url(#G)"><path fill="none" stroke="#000" stroke-linecap="round" stroke-linejoin="round" stroke-miterlimit="10" stroke-width=".5" d="M354.6211 477.78125l4.83984 5.09375"/></g><path fill="none" stroke="#000" stroke-linecap="round" stroke-linejoin="round" stroke-miterlimit="10" stroke-width=".5" d="M355.32422 478.52344l.39062-1.16406"/><g clip-path="url(#H)"><path fill="none" stroke="#000" stroke-linecap="round" stroke-linejoin="round" stroke-miterlimit="10" stroke-width=".5" d="M367.4961 478.28516l5.71874 4.08593"/></g><path fill="none" stroke="#000" stroke-linecap="round" stroke-linejoin="round" stroke-miterlimit="10" stroke-width=".5" d="M368.32813 478.8789l.16406-1.21484"/><g clip-path="url(#I)"><path fill="none" stroke="#000" stroke-linecap="round" stroke-linejoin="round" stroke-miterlimit="10" stroke-width=".5" d="M380.4414 478.94922l6.46094 2.75781"/></g><g clip-path="url(#J)"><path fill="none" stroke="#000" stroke-linecap="round" stroke-linejoin="round" stroke-miterlimit="10" stroke-width=".5" d="M399.73438 478.14063l-5.4961 4.3789"/></g><g clip-path="url(#K)"><path fill="none" stroke="#000" stroke-linecap="round" stroke-linejoin="round" stroke-miterlimit="10" stroke-width=".5" d="M406.78906 480.26172l7.02344.13281"/></g><g clip-path="url(#L)"><path fill="none" stroke="#000" stroke-linecap="round" stroke-linejoin="round" stroke-miterlimit="10" stroke-width=".5" d="M407.8125 480.28125l-.5586-1.09375"/></g><g clip-path="url(#M)"><path fill="none" stroke="#000" stroke-linecap="round" stroke-linejoin="round" stroke-miterlimit="10" stroke-width=".5" d="M423.35938 476.82422l.51562 7.00781"/></g><g clip-path="url(#N)"><path fill="none" stroke="#000" stroke-linecap="round" stroke-linejoin="round" stroke-miterlimit="10" stroke-width=".5" d="M439.15234 483.05078l-4.4414-5.44531"/></g><g clip-path="url(#O)"><path fill="none" stroke="#000" stroke-linecap="round" stroke-linejoin="round" stroke-miterlimit="10" stroke-width=".5" d="M452.66406 482.8789l-4.83594-5.09765"/></g><g clip-path="url(#P)"><path fill="none" stroke="#000" stroke-linecap="round" stroke-linejoin="round" stroke-miterlimit="10" stroke-width=".5" d="M466.17578 482.67969l-5.22656-4.69922"/></g><g clip-path="url(#Q)"><path fill="none" stroke="#000" stroke-linecap="round" stroke-linejoin="round" stroke-miterlimit="10" stroke-width=".5" d="M147.49219 467.38281l-6.98438-.73828"/></g><path fill="none" stroke="#000" stroke-linecap="round" stroke-linejoin="round" stroke-miterlimit="10" stroke-width=".5" d="M147.49219 467.38281l.91797 2.27735m-1.9336-2.38282l.46094 1.13672m13.88281-1.1836l-7.01172-.43358m7.01172.43359l1.01953 2.23437m-2.03906-2.29687l.50781 1.11719m13.83594-1.25782L167.1172 467m7.02734.02734l1.14453 2.16797m-2.16797-2.17187l.57422 1.08594m13.75-1.39844l-7 .60547m7-.60547l1.33203 2.0625m-2.35156-1.97266l.66797 1.03125m13.64453-1.32422l-6.95312 1.01172m6.95312-1.01172l1.44922 1.97657m-2.46094-1.82813l.72656.98828m13.47266-1.69531l-6.69922 2.1289m6.69922-2.1289l1.7539 1.71484m-2.73046-1.40625l.8789.85938m13.26563-1.55078l-6.40625 2.89453m6.40625-2.89453l1.9414 1.5039m-2.875-1.08203l.97266.75m13.17969-1.36719l-6.21484 3.28516m6.21484-3.28516l2.03125 1.37891m-2.9375-.89844l1.01563.6875m13.13671-1.29297l-6.07422 3.53516m6.07422-3.53516l2.08203 1.29297m-2.96875-.77734l1.04297.64453m12.94141-1.48438l-5.64453 4.1836m5.64453-4.1836l2.21875 1.0547m-3.03906-.44532l1.10937.52734m12.77344-1.4414l-5.13672 4.79297m5.13672-4.79297l2.32031.79687m-3.0664-.10156l1.16015.39844M292.91797 464.5l-4.90625 5.02734m4.90625-5.02734l2.35547.6875m10.80469-.83203l-4.59375 5.3164m4.59375-5.3164l2.39062.54297m10.17578-1.03907l-3.09765 6.3086m3.09765-6.3086l2.45313-.07812m10.24609-.15625l-1.86719 6.77734m1.86719-6.77734l2.39453-.53516m10.32813.42578l-.6797 6.9961m.58204-5.97656l1.13281-.46875m11.44532-.53125l.98828 6.95703m-.84375-5.94532l.98828-.72265m11.05469.07422l3.24218 6.23047m-2.76953-5.32422l.69531-1.01172m10.51563 1.89453l6.50781 2.65234m-5.5625-2.26562l-.125-1.21875m14.67969-1.1875l2.13672 6.6914m-1.82422-5.71875l.85547-.8789m12.22656-.1211l1.97656 6.7461m-1.6875-5.76563l.8789-.85547m13.4375-.2539l-.60155 7.0039m.60156-7.0039l2.25781-.96094m11.14844.97266l-.78516 6.98047m.78516-6.98047l2.28125-.90625m13.5039 2.35937l-5.72656 4.07422m5.72657-4.07422l2.1953 1.09375m11.42188 2.46875l-6.33203-3.05078m6.33203 3.05078l.10157 2.44922"/><g clip-path="url(#R)"><path fill="none" stroke="#000" stroke-linecap="round" stroke-linejoin="round" stroke-miterlimit="10" stroke-width=".5" d="M147.46875 454.25781l-6.9375-1.11719"/></g><path fill="none" stroke="#000" stroke-linecap="round" stroke-linejoin="round" stroke-miterlimit="10" stroke-width=".5" d="M147.46875 454.25781l.79297 2.32031m12.52734-2.34765l-6.94531-1.0664m6.94531 1.0664l.8086 2.3164m-1.82032-2.46875l.40625 1.15625m13.9336-1.10156l-6.97266-.8711m6.97266.8711l.875 2.29297m12.46484-2.875l-7.02344.29688m7.02344-.29688l1.24219 2.11328m11.95312-2.88281l-6.78515 1.83594m6.78515-1.83594l1.67578 1.79297m11.42188-2.3789l-6.35156 3.0078m6.35156-3.0078l1.96875 1.46484m11.19922-1.7461l-6.05469 3.57031m6.05469-3.5703l2.08984 1.27734m11.32031-1.10547l-6.24218 3.22656m6.24219-3.22656l2.01562 1.39453m11.03125-1.82813l-5.71094 4.09375m5.71094-4.09375l2.19922 1.08985m11.01953-1.21875l-5.51563 4.35156m5.51563-4.35156l2.2461.98437m10.8828-1.20312l-5.14453 4.78906m5.14454-4.78906l2.3203.80078M278.97267 452l1.16015.40234m13.14844-.80468l-5.6289 4.20312m5.6289-4.20312l2.21875 1.04687m-3.03906-.4375l1.10937.52344m13.21094-.86328l-6 3.66015m6-3.66015l2.10938 1.25m10.68359-1.90625l-4.95703 4.97656m4.23828-4.2539l1.17187.35546m11.22266-2l-1.67969 6.82031m1.4375-5.82812l1.1875-.30078m12.74219-.57813l-2.42187 6.59375m2.0703-5.63672l1.21485-.16796m12.1289-.89063l-1.77734 6.79688m1.77735-6.79688l2.38672-.57031m-2.64453 1.5586l1.1914-.28516m12.92188-.51563l-2.85938 6.41797m2.44531-5.48438l1.22266-.08203m13.4961-.1875L381.25 456.2461m4.83984-5.09375l2.36329.65625m8.23437-1.60937l.59766 7m15.79297-5.65625l-5.55079 4.3086m4.7422-3.6797l1.11718.50391m13.59375.0039l-6.72656 2.03907m19.77343-2.67969l-6.1914 3.32031m18.61719-4.39453l-4.41407 5.46875m3.77344-4.67187l1.20313.23047m12.28906-1.34375L461.8164 456.75"/><g clip-path="url(#S)"><path fill="none" stroke="#000" stroke-linecap="round" stroke-linejoin="round" stroke-miterlimit="10" stroke-width=".5" d="M147.40625 441.25l-6.8125-1.73047"/></g><path fill="none" stroke="#000" stroke-linecap="round" stroke-linejoin="round" stroke-miterlimit="10" stroke-width=".5" d="M147.40625 441.25l.58203 2.38281m12.66016-2.14062l-6.66797-2.21485m6.66797 2.21485l.41015 2.41797m13.04297-2.97266l-6.9414-1.10938m6.9414 1.10938l.79297 2.32031m12.52734-2.36328l-6.95312-1.02344m6.95313 1.02344l.82421 2.3125m12.52735-2.75781l-7.02735-.13281m6.00391.11328l.55469 1.09375m13.73047-1.7539L207.11719 441m5.91015-1.05078l.75782.96484m13.05078-2.44531l-5.89063 3.83203m5.89063-3.83203l2.14844 1.1875m10.1328-2.21875l-3.82421 5.89453m3.82422-5.89453l2.44531.21094m9.1836-.76953l-.45313 7.01171m.45312-7.01171l2.23828-1.01172m12.3125 1.32031l-2.92578 6.39062m2.92578-6.39062l2.45313-.14453m11.35156.41797l-3.89844 5.84765m3.89844-5.84765l2.4414.24218m9.69141-.74609l-1.53906 6.85547m1.53906-6.85547l2.3672-.65234m11.89452 1.01172l-3.42968 6.1328m3.42968-6.1328l2.45313.05468m11.17578.14453l-4.0586 5.73438m4.0586-5.73438l2.4336.3125m11.3203.0547l-4.93359 5.0039m4.9336-5.0039l2.35156.69921m11.15234-.5l-5.3125 4.60156m5.3125-4.60156l2.28906.88672m-3.0625-.21484l1.14454.4414m10.82812-2.28515l-1.08203 6.9453m.92578-5.93359l1.16016-.40234M371 436.9297l-1.28516 6.90625M371 436.92969l2.33984-.73828m11.14844 7.60937l-1.63281-6.83594m1.39453 5.83985l-.92188.8125m16.71875-1.51172l-6.12109-3.44531m5.23047 2.9453l-.02734 1.22657m13.89453-.22656l-5.44531-4.44531m19.32421.97656l-6.5703 2.49219m6.5703-2.4922l1.84375 1.6172m11.60938-1.15625l-6.84766 1.5703m6.84766-1.5703l1.60547 1.85546m11.76562-1.5664l-6.95703.99219m6.95703-.9922l1.44531 1.98438m10.8125-4.03515l-4.84375 5.09375m4.13672-4.35157l1.1836.32813"/><g clip-path="url(#T)"><path fill="none" stroke="#000" stroke-linecap="round" stroke-linejoin="round" stroke-miterlimit="10" stroke-width=".5" d="M147.13281 428.65625l-6.26562-3.17578"/></g><path fill="none" stroke="#000" stroke-linecap="round" stroke-linejoin="round" stroke-miterlimit="10" stroke-width=".5" d="M147.13281 428.65625l.05078 2.45313m13.34766-2.62891l-6.4336-2.82422m6.4336 2.82422l.1875 2.44531m13.15234-2.5l-6.48047-2.71484m6.48047 2.71484l.22657 2.44531m13.33203-3.35937l-6.96875-.88672m5.95703.75781l.4336 1.14844m13.8789-2.0039l-6.9414 1.08202m6.9414-1.08203l1.47266 1.96094m10.875-3.88672l-5.00391 4.9336m5.0039-4.9336l2.33985.73438m10.7539-.9375l-4.5664 5.33984m4.5664-5.33984l2.39844.53125m11.875.77734l-6.47656 2.72266m5.53125-2.32813l.95313.77735m12.96875-1.78907l-5.8047 3.95703m4.96095-3.3828l1.08593.5703m13.1836-.97265l-6.02344 3.61328m5.14844-3.08984l1.05078.6328m13.17578-1.09765l-6.09375 3.5m5.20703-2.99219l1.03906.65235m12.4336-2.05078l-4.64063 5.27734m3.96485-4.51172l1.1953.28516m13.27345-.53906l-5.59375 4.2539m16.33203-5.63281l-.44141 7.01172m.4414-7.01172l2.23438-1.01172m12.63281 1.48438l-3.54687 6.0664m3.54687-6.0664l2.45313.10156m12.01172.98437l-5.84766 3.89453m5.84766-3.89453l2.16015 1.16016m11.4375-.65625l-6.41015 2.88672m6.41015-2.88672l1.9375 1.5039m9.65625-3.24609l-2.96875 6.3711m2.53516-5.44532l1.22656-.0625M384 423.57031l-.65625 6.9961M384 423.5703l2.26563-.94531m14.22656 4.67969l-7.01172-.47266m7.01172.47266l1.0039 2.23828m11.8711-4.1914l-6.1289 3.43359m6.1289-3.4336l2.0625 1.32422m-2.95703-.82422l2.0664 1.32422m11.9336-2.15234l-5.71094 4.08984m5.71094-4.08984l2.19922 1.08984m-3.03125-.4961l2.19921 1.08985m11.71485-1.97656l-5.2461 4.67578m5.2461-4.67578l2.30078.84765m-3.0664-.16796l1.15234.42578m12.52734-1.48828l-4.4414 5.4414m4.4414-5.4414l2.40625.47656m-3.05469.3125l1.20313.23828m13.96875.9375l-6.86328 1.51172"/><g clip-path="url(#U)"><path fill="none" stroke="#000" stroke-linecap="round" stroke-linejoin="round" stroke-miterlimit="10" stroke-width=".5" d="M466.99219 426.3125l1.59375 1.86719"/></g><g clip-path="url(#V)"><path fill="none" stroke="#000" stroke-linecap="round" stroke-linejoin="round" stroke-miterlimit="10" stroke-width=".5" d="M147.1211 415.36328l-6.2422-3.21875"/></g><path fill="none" stroke="#000" stroke-linecap="round" stroke-linejoin="round" stroke-miterlimit="10" stroke-width=".5" d="M147.1211 415.36328l.03124 2.45313m13.41797-2.7422l-6.51172-2.64452m6.51172 2.64453l.25 2.4414m13.29297-3.3125l-6.96875-.89843m5.95703.76562l.4336 1.14844m13.82812-2.27734l-6.83594 1.625m5.83985-1.39063l.8125.92188m13.39844-1.5l-6.63672 2.30859m6.63672-2.3086l1.80078 1.66798m11.53906-1.59375l-6.6836 2.16406m5.71094-1.85156l.88281.85546m13.29297-1.46875l-6.46093 2.76563m5.51953-2.36328l.95703.76562m13.4336-.80078l-6.72657 2.03125m6.72656-2.03125l1.72656 1.74219m11.63282-1.57422l-6.82031 1.69531m6.8203-1.69531l1.64063 1.82422m11.5664-2.17969l-6.60155 2.40625m5.64062-2.0586l.91406.82032m13.32032-1.27734l-6.51954 2.625m5.57032-2.2422l.9414.78907m13.01953-1.76172l-5.91015 3.80469m5.04687-3.25l1.07422.59766m12.96875-1.34375l-5.64453 4.1875m4.82422-3.57813l1.10937.52734m13.19532-.88671l-5.98047 3.6875m5.10937-3.15235l1.0586.6211m13.64062.40234l-7.0039.5664m5.98437-.48437l.66016 1.03516m13.66406-.44532l-6.98438-.77343m5.96875.66015l.45313 1.14063m13.41406-3.19531l-6.0586 3.5625m6.0586-3.5625l2.08985 1.28125m10.97265-1.65235l-5.55469 4.30469m5.5547-4.30469l2.23827 1.0039m-3.04687-.3789l1.1211.5039m12.83593-1.32812l-5.21875 4.70313m5.21875-4.70313l2.30469.83594m-3.0664-.15234l1.15624.41797m13.09375-.89454l-5.5664 4.28907m5.5664-4.28907l2.23438 1.01172m-3.04297-.38672l2.23437 1.01172m11.66797-1.89843l-5.1211 4.8125m5.1211-4.8125l2.32031.78906m-3.0664-.08985l1.16015.39454m12.9297-1.0625l-5.1797 4.74609m5.1797-4.7461l2.3125.82032m-3.06642-.1289l1.15625.41015m13.09375-.88672l-5.54296 4.3164m5.54296-4.3164l2.2422 1.0039m11.07421-1l-5.54687 4.3125m5.54687-4.3125l2.24219 1.00391m-3.04688-.375l1.1172.5m11.32421-2.3125l-2.1875 6.67969m2.1875-6.67969l2.41797-.41797m-2.73828 1.39063l2.41797-.42188"/><g clip-path="url(#W)"><path fill="none" stroke="#000" stroke-linecap="round" stroke-linejoin="round" stroke-miterlimit="10" stroke-width=".5" d="M146.88672 402.4414l-5.77344-4.0078"/></g><path fill="none" stroke="#000" stroke-linecap="round" stroke-linejoin="round" stroke-miterlimit="10" stroke-width=".5" d="M146.88672 402.4414l-.28906 2.4375m14.09765-3.48046l-6.76172-1.91797m6.76172 1.91797l.51563 2.39844m12.82031-4.2461l-6.80078 1.77735m6.80078-1.77735l1.66016 1.80469m11.65234-1.80469l-6.79688 1.77735m6.79688-1.77735l1.66406 1.80469m11.71875-1.5l-6.92969 1.16406m5.92188-.99219l.7461.97266m13.46874-1.59375l-6.71484 2.0664m6.71484-2.0664l1.73828 1.73047m11.44532-2.08985l-6.45313 2.78516m6.45313-2.78515l1.91406 1.53125m11.47266-1.34766l-6.59766 2.41797m6.59766-2.41797l1.82812 1.63672m11.5664-1.39063l-6.7578 1.92188m6.7578-1.92188l1.70313 1.76953M267 398.91016l-6.32813 3.05859M267 398.91015l1.98047 1.44923m11.14453-1.78907l-5.94922 3.73828m5.94922-3.73828l2.1289 1.22266m10.8711-1.65235l-5.32031 4.59375m5.32031-4.59375l2.28906.89063m10.21094-1.58203l-3.6875 5.98047m3.6875-5.98047l2.44922.15625m11.79297.67187l-5.54297 4.32032m5.54297-4.32032l2.23828 1m11.1914-.84375l-5.76953 4.01172m5.76954-4.01172l2.17968 1.1172m11.60547-.15626l-6.71094 2.08594m5.73438-1.78125l.8711.86328m11.48827-3.33594l-2.84765 6.42578m2.4336-5.49218l1.22265-.08594m14.02734.44922l-5.89062 3.82812m5.89062-3.82812l2.14844 1.1914m10.64062-1.82812l-4.83593 5.10156m4.83593-5.10156l2.36329.65625m-3.06641.08594l1.17969.32812m13.30859-.51953l-5.77734 4m5.77734-4l2.17969 1.125m-3.01953-.54297l1.08984.5625m13.1211-1.0586l-5.89063 3.83204m5.89062-3.83203l2.14844 1.1875m-3.0039-.63281l1.07421.59765m12.69532-1.66015l-5.08985 4.84375m5.08985-4.84375l2.32812.77343m-3.0664-.07031l1.16406.39063m12.63672-1.33204l-4.58204 5.32422m4.58204-5.32422l2.39453.53907m-3.0586.23437l1.19532.26953m13.60156-.01562l-6.21875 3.26953m6.21875-3.26953l2.02734 1.38281m-2.92969-.90625l1.01172.6914m12.65625-1.9414L461 402.84375"/><g clip-path="url(#X)"><path fill="none" stroke="#000" stroke-linecap="round" stroke-linejoin="round" stroke-miterlimit="10" stroke-width=".5" d="M466.1211 398.03125l2.32421.79297"/></g><path fill="none" stroke="#000" stroke-linecap="round" stroke-linejoin="round" stroke-miterlimit="10" stroke-width=".5" d="M465.3789 398.73438l1.16016.39453"/><g clip-path="url(#Y)"><path fill="none" stroke="#000" stroke-linecap="round" stroke-linejoin="round" stroke-miterlimit="10" stroke-width=".5" d="M147.3164 388.28516l-6.6328-2.32422"/></g><path fill="none" stroke="#000" stroke-linecap="round" stroke-linejoin="round" stroke-miterlimit="10" stroke-width=".5" d="M146.35156 387.94531l.1836 1.21485m14.28515-1.8086l-7.01172-.45703m5.9922.39063l.5039 1.11718m13.83984-1.23437l-7.02734-.08985m7.02734.08985l1.125 2.17969m11.70703-4l-6.0625 3.55078m6.0625-3.55078l2.08985 1.28906m11.66406-.0625l-6.9414 1.09765m5.93359-.9375l.73437.98047m13.57813-1.1953l-6.92188 1.20702m6.92188-1.20703l1.5078 1.9375m11.66407-2.5l-6.63281 2.33203m6.63281-2.33203l1.80469 1.66406m11.1211-2.4414l-5.85548 3.88672m5.85547-3.88672l2.15625 1.16797m10.92578-1.47657l-5.39062 4.50391m5.39062-4.5039l2.27344.92187m11.21094-.70703l-5.72656 4.07422m5.72656-4.07422l2.19531 1.09765m11.08203-1.14843l-5.65234 4.17578m5.65234-4.17578l2.21485 1.05859m11.03125-1.14844l-5.51172 4.35547m5.51172-4.35547l2.24609.98438m10.9961-1.07031l-5.3711 4.52734m5.3711-4.52735l2.27734.91016m11.125-.8086l-5.54297 4.32423m5.54297-4.32422l2.23828 1m10.92187-1.1836l-5.23047 4.69141m5.23047-4.6914l2.3047.84374m10.77343-1.08203l-4.75781 5.17188m4.7578-5.17188l2.375.61719m11.78516.57422l-6.44921 2.78515m6.44921-2.78515l1.91797 1.53125m11.36328-1.60547l-6.3828 2.9336m6.3828-2.9336l1.95313 1.48438m-2.8789-1.0586l.97265.74219m12.98437-1.67578l-5.8125 3.94922m5.8125-3.94922l2.16797 1.14453m-3.01562-.57031l1.08594.57421m12.95703-1.3125l-5.57422 4.27735m5.57422-4.27735l2.23437 1.01954m-3.04297-.39454l1.11328.50782m13.0547-1.07031l-5.66407 4.15234m5.66406-4.15235l2.21094 1.06641m-3.03516-.46484l1.10547.53515m12.58985-1.63671l-4.77735 5.15234m4.77735-5.15235l2.37109.625m-3.0664.125l1.1875.3125m12.53906-1.30078l-4.20704 5.62891m4.20704-5.6289l2.42578.375m-3.03907.4453l1.21485.1875m13.74219.21485l-6.26563 3.1836m6.26563-3.1836l2.0078 1.41406m-2.91796-.94922l1.0039.70313m13.14063-1.3125l-6.10547 3.47656"/><g clip-path="url(#Z)"><path fill="none" stroke="#000" stroke-linecap="round" stroke-linejoin="round" stroke-miterlimit="10" stroke-width=".5" d="M466.61328 385.38672l2.07422 1.3125"/></g><g clip-path="url(#aa)"><path fill="none" stroke="#000" stroke-linecap="round" stroke-linejoin="round" stroke-miterlimit="10" stroke-width=".5" d="M147.46484 374.39844l-6.92968-1.17969"/></g><path fill="none" stroke="#000" stroke-linecap="round" stroke-linejoin="round" stroke-miterlimit="10" stroke-width=".5" d="M147.46484 374.39844l.76953 2.32812m12.35938-1.65234l-6.55469-2.53516m6.55469 2.53516l.28906 2.4375m13.25781-3.84766l-7.01953.28906m7.01953-.28906l1.23829 2.11719m12.04297-1.46875l-6.95313-1.01172m6.95313 1.01172l.82812 2.3125m12.33984-3.9375l-6.66015 2.24219m6.66015-2.24219l1.78516 1.6875m11.25781-2.30078l-6.11328 3.46484m6.11328-3.46484l2.07031 1.3164m11.17579-1.43359l-5.97657 3.70313m5.97657-3.70313l2.11718 1.23438m11.4375-.76954l-6.45703 2.77344m6.45703-2.77344l1.91407 1.53907m11.26562-1.8164l-6.1875 3.32812m6.1875-3.32813l2.04297 1.35938m11.10547-1.63672l-5.85547 3.88281m5.85547-3.88281l2.16015 1.16797m11.21875-1.07032l-5.98046 3.6875m5.98047-3.6875l2.11718 1.23829m11.3125-1.03907l-6.21094 3.28906m6.21094-3.28906l2.03125 1.3789m11.17188-1.57421l-5.98828 3.67969m5.98828-3.67969l2.11719 1.24219m11.18359-1.26563l-5.95703 3.72656m5.95703-3.72656l2.125 1.22266m-2.99219-.67969l1.0625.60938m13.24219-.94141l-6.19922 3.30469m6.19922-3.30469l2.03515 1.36719m11.47266-.9375l-6.58594 2.44531m6.58594-2.44531l1.83594 1.6289m-2.79297-1.27343l.91406.8164m13.3789-1.11328l-6.6289 2.32813m6.6289-2.32813l1.8047 1.66406m-2.76954-1.32421l.90235.83203m13.32812-1.3086l-6.52734 2.60156m6.52734-2.60156l1.8711 1.58594m-2.82031-1.20703l.93359.79297M386.68359 372l-6.02343 3.61719M386.68359 372l2.10157 1.26563m-2.97657-.73829l1.05079.63282m13.28125-.89844l-6.3086 3.09375m6.3086-3.09375l1.98828 1.4336m-2.90625-.98438l.99609.71875m12.9961-1.58203l-5.82813 3.92187m5.82812-3.92187L415.38281 373m-3.01562-.58203l1.08203.57812m13.07422-1.16015l-5.8125 3.94531m5.8125-3.94531l2.17187 1.14453m-3.01562-.57031l1.08203.57421m12.80469-1.5l-5.26954 4.64844m5.26954-4.64844l2.29687.85938m-3.0625-.1836l1.14844.4297m12.74219-1.3047l-4.89063 5.04298m4.89063-5.04297l2.35937.68359m10.90625-.73047l-4.78906 5.14063"/><g clip-path="url(#ab)"><path fill="none" stroke="#000" stroke-linecap="round" stroke-linejoin="round" stroke-miterlimit="10" stroke-width=".5" d="M465.95703 371.23828l2.3711.63281"/></g><g clip-path="url(#ac)"><path fill="none" stroke="#000" stroke-linecap="round" stroke-linejoin="round" stroke-miterlimit="10" stroke-width=".5" d="M147.48047 360.96875l-6.96094-.94922"/></g><path fill="none" stroke="#000" stroke-linecap="round" stroke-linejoin="round" stroke-miterlimit="10" stroke-width=".5" d="M147.48047 360.96875l.84766 2.30078m-1.85938-2.4414l.42578 1.15234m13.7461-.35156l-6.64844-2.27344m6.64844 2.27344l.39062 2.42187m-1.35938-2.7539l.19532 1.21484m14.21094-1.34375l-6.89454-1.34766m6.89453 1.34766l.71485 2.34765m12.65625-2.76171l-7.00781-.52344m7.0078.52344L188.4375 363m12.28516-3.09766l-6.92578 1.1836m6.92578-1.1836l1.5 1.94141m11.33984-3.20313l-5.97266 3.70313m5.97266-3.70313l2.1211 1.23438m11.16406-1.27734l-5.91407 3.79296m5.91407-3.79296l2.14062 1.19921m11.10156-1.3125L234.32031 362.5m5.76953-4.01563l2.1836 1.1211m11.08203-1.1914l-5.66797 4.15624m5.66797-4.15625l2.20703 1.0664m11.20313-.92187l-5.86329 3.8711m5.86328-3.8711l2.15625 1.17188m11.39844-.7539l-6.33984 3.03515m6.33984-3.03516l1.97266 1.45313m11.3711-1.38672l-6.39845 2.90234m6.39844-2.90234l1.94531 1.4961m11.38282-1.47266l-6.42188 2.85156m6.42188-2.85156l1.9336 1.51562m11.5039-1.19922l-6.66797 2.22266m6.66797-2.22266l1.77734 1.6914m11.53125-1.71483l-6.65234 2.26562m6.65234-2.26563l1.78906 1.6797m11.53125-1.66407l-6.66406 2.23438m6.66406-2.23438l1.78125 1.6875m11.54297-1.66016l-6.6836 2.1797m6.6836-2.1797l1.76563 1.70313m-2.73828-1.38281l.8828.85156m13.44532-1.03125l-6.76562 1.89844m6.76562-1.89844l1.69531 1.77344m-2.67968-1.4961l.84765.88672m13.3125-1.5625l-6.48828 2.69922m6.48828-2.69922l1.89844 1.55469m-2.83984-1.16406l1.89453 1.55859m12.35156-1.97656l-6.46484 2.75m6.46484-2.75l1.91016 1.54687m-2.85157-1.14453l1.91016 1.54297m12.39062-1.83594l-6.55468 2.53516m6.55468-2.53516l1.85547 1.60547m-2.80859-1.23828l1.85547 1.60547m12.39844-2.01563l-6.52344 2.6172m6.52344-2.6172l1.875 1.58204m-2.82422-1.19922l.9375.78906m13.21093-1.42578l-6.29296 3.125m6.29296-3.125l1.9961 1.42578m-2.91016-.97266l1.99219 1.42969m12.33984-1.65234l-6.5 2.66796m6.5-2.66796l1.89063 1.5664m10.97265-2.36328l-5.59375 4.25781"/><g clip-path="url(#ad)"><path fill="none" stroke="#000" stroke-linecap="round" stroke-linejoin="round" stroke-miterlimit="10" stroke-width=".5" d="M466.35938 358.36328l2.22656 1.02735"/></g><path fill="none" stroke="#000" stroke-linecap="round" stroke-linejoin="round" stroke-miterlimit="10" stroke-width=".5" d="M465.54297 358.98438l1.11719.51171"/><g clip-path="url(#ae)"><path fill="none" stroke="#000" stroke-linecap="round" stroke-linejoin="round" stroke-miterlimit="10" stroke-width=".5" d="M147.5039 346.92188l-7.0078.51171"/></g><path fill="none" stroke="#000" stroke-linecap="round" stroke-linejoin="round" stroke-miterlimit="10" stroke-width=".5" d="M147.5039 346.92188L148.8125 349m-2.32813-2.0039l.65235 1.03906m13.58594.0078l-6.8125-1.72655m6.8125 1.72656l.58203 2.38281m-1.57422-2.63672l.29297 1.1914m14.08594-2.28905l-6.95704.97656m6.95703-.97656l1.44141 1.98437m11.89844-1.76953l-7.00781.54297m7.0078-.54297l1.3125 2.07422m11.75392-3.125L194.0039 348.5m6.51172-2.64453l1.8828 1.57422m10.82032-2.5664l-5.28516 4.6289m5.28516-4.6289l2.29297.87108m10.92578-.97656l-5.09375 4.83985m5.09375-4.83985l2.32813.77735m11.16406-.57422l-5.44922 4.4375m5.44922-4.4375l2.26172.94922m11.49609-.25391l-6.33594 3.04297m6.33594-3.04297l1.97656 1.45313m11.5-1.0547l-6.65625 2.2461m6.65625-2.2461l1.78516 1.6875m11.57422-1.54296l-6.7461 1.95703m6.7461-1.95703l1.71093 1.76172m11.6211-1.70313l-6.78125 1.83985m6.78125-1.83985l1.67969 1.79297m11.69921-1.51953l-6.90625 1.29297m6.90625-1.29297l1.53125 1.91797m-2.53515-1.73047l.76562.96094m13.4961-1.40235l-6.79297 1.80079m6.79297-1.80079l1.66797 1.79688m-2.65625-1.53516l.83593.89844m13.36328-1.48047l-6.58593 2.44531m6.58593-2.4453l1.83594 1.6289m-2.79297-1.27344l.91797.8125m13.42188-.97266l-6.71875 2.05079m6.71875-2.05079l1.73437 1.73438m-2.71094-1.4375l.8672.8711m13.52343-.76173l-6.91797 1.23829m6.91797-1.23829l1.51562 1.9297m-2.52343-1.75l.75781.96483m13.57422-1.08984l-6.9375 1.1289m6.9375-1.1289l1.48437 1.95313m-2.49218-1.78907l1.48437 1.95313m12.70703-2.64844l-6.67578 2.1914m6.67578-2.1914l1.77344 1.69922m-2.74219-1.38281l1.76953 1.69922m12.35157-2.4297l-6.34766 3.01954m6.34766-3.01953l1.96875 1.46094m-2.89454-1.02344l1.97266 1.46094m12.2461-1.9375l-6.3047 3.10156m6.3047-3.10156l1.99218 1.43359m-2.91015-.98438l1.99218 1.4375m12.25391-1.86718l-6.32813 3.0586m6.32813-3.0586l1.98047 1.44922m-2.90235-1.00391l1.98047 1.44922m12.15625-2.08203l-6.1289 3.4336m6.1289-3.4336l2.0625 1.32422m-2.95312-.82422l2.0625 1.32422m12.27344-1.56641l-6.39063 2.91797m6.39063-2.91797l1.94921 1.4961m-2.8789-1.07032l.97656.7461m13.28125-1.14063l-6.41797 2.85547"/><g clip-path="url(#af)"><path fill="none" stroke="#000" stroke-linecap="round" stroke-linejoin="round" stroke-miterlimit="10" stroke-width=".5" d="M466.76953 345.75l1.9336 1.50781"/></g><path fill="none" stroke="#000" stroke-linecap="round" stroke-linejoin="round" stroke-miterlimit="10" stroke-width=".5" d="M465.83594 346.16406l.96875.75781"/><g clip-path="url(#ag)"><path fill="none" stroke="#000" stroke-linecap="round" stroke-linejoin="round" stroke-miterlimit="10" stroke-width=".5" d="M147.16797 332.33984l-6.33594 3.04688"/></g><path fill="none" stroke="#000" stroke-linecap="round" stroke-linejoin="round" stroke-miterlimit="10" stroke-width=".5" d="M147.16797 332.33984l1.97656 1.45704m11.6211-.60547l-6.89844 1.34375m6.89844-1.34375l1.54296 1.90625m11.82422-1.52344l-7.0039.57422m7.0039-.57422l1.32422 2.0664m10.50781-4.65234l-4.03906 5.75m3.44922-4.91406l1.21875.14844m13.69922.11718l-6.0664 3.54688m5.18359-3.03125l1.04297.64453m13.43359-.5586l-6.625 2.34376m6.625-2.34375l1.8086 1.66015m11.59374-1.3711l-6.80078 1.76563m6.80078-1.76562l1.66016 1.80469m11.64453-1.84766l-6.77734 1.85156m6.77734-1.85156l1.6836 1.78906m11.6914-1.54297l-6.89453 1.35938m6.89453-1.35938l1.54688 1.90235m11.77734-1.85547l-6.91406 1.26172m6.91406-1.26172l1.51953 1.92578m11.71094-2.28125l-6.7461 1.97656m6.7461-1.97656l1.71484 1.7539m11.59766-1.7539l-6.74219 1.97656m6.74219-1.97656l1.71484 1.7539m11.74219-.89843l-7.02344.26172m7.02344-.26172l1.23047 2.125m12.05468-2.45313l-6.96484.92188m6.96484-.92188l1.42579 1.9961m11.51171-3.17578l-6.21093 3.28125m6.21093-3.28125l2.03125 1.375m11.28516-1.375l-6.21484 3.28125m6.21484-3.28125l2.03125 1.3789m11.55469-.71094l-6.7539 1.94141m6.7539-1.9414l1.70703 1.76562m11.625-1.70313l-6.78906 1.82032m6.78906-1.82031l1.67578 1.79296m-2.66406-1.52734l.83594.89453m13.03906-2.13672l-5.92969 3.77344m5.92969-3.77344l2.13281 1.21094m-2.9961-.66016l1.06641.60547M400 332.0586l-6.02734 3.60938M400 332.05859l2.10156 1.26954m11.30078-1.1211l-6.19922 3.3125m6.19922-3.3125l2.03516 1.36719m-2.9375-.88672l1.01562.6875m13.32032-.92188l-6.4375 2.81641m6.4375-2.8164l1.92187 1.52343m-2.85937-1.11328l.96093.76172m13.15235-1.44922l-6.16016 3.375m6.16016-3.375l2.05078 1.34375m-2.94531-.85547l2.05078 1.34766m12.25-1.66016l-6.34375 3.02344m6.34375-3.02344l1.97265 1.45703m-2.89453-1.01953l1.97266 1.46094m12.3711-1.65234l-6.5547 2.53125"/><g clip-path="url(#ah)"><path fill="none" stroke="#000" stroke-linecap="round" stroke-linejoin="round" stroke-miterlimit="10" stroke-width=".5" d="M466.83984 332.59766l1.85547 1.60546"/></g><path fill="none" stroke="#000" stroke-linecap="round" stroke-linejoin="round" stroke-miterlimit="10" stroke-width=".5" d="M465.88672 332.96484l1.85547 1.60547m-2.8086-1.23828l.92579.80469"/><g clip-path="url(#ai)"><path fill="none" stroke="#000" stroke-linecap="round" stroke-linejoin="round" stroke-miterlimit="10" stroke-width=".5" d="M142.8086 317.24219l2.3828 6.60937"/></g><g clip-path="url(#aj)"><path fill="none" stroke="#000" stroke-linecap="round" stroke-linejoin="round" stroke-miterlimit="10" stroke-width=".5" d="M143.15625 318.20313l.82031-.90625"/></g><path fill="none" stroke="#000" stroke-linecap="round" stroke-linejoin="round" stroke-miterlimit="10" stroke-width=".5" d="M156.45703 317.14063l1.71875 6.8125m-1.46875-5.82032l.91016-.82422m11.44922.09375l3.1289 6.29297m8.24219-2.9414l7.01563-.41407m9.92187 3.71875l-.22656-7.02343m16.23437 5.625l-5.61328-4.22657m5.61328 4.22657L213 325.08594m14.1836-3.3125l-6.58594-2.44922m6.58593 2.44922l.32422 2.42969m13.16406-3.08594l-6.93359-1.14063m6.9336 1.14063l.78515 2.32812m12.57813-2.82812l-7.02735-.13672m7.02735.13672l1.10937 2.1875m12.20313-2.14063l-7.02344-.23047m7.02344.23047l1.08203 2.19922m12.13672-3.14062l-6.83203 1.65234m6.83203-1.65234l1.6289 1.83593m11.58203-2.18359l-6.625 2.34375m6.625-2.34375l1.8086 1.65625m11.70703-.4375l-7.02734-.08984m7.02734.08984l1.125 2.17969m12.1875-2.38672l-7.01953.32031m7.01953-.32031l1.25 2.11328m11.80469-3.29297l-6.4961 2.67969m6.4961-2.67969l1.89062 1.5625m11.45313-1.48437l-6.5586 2.52343m6.5586-2.52343l1.85547 1.60937m11.47265-1.58203l-6.58203 2.46875m5.625-2.10938l.91797.8125m13.5039-.64843l-6.8828 1.42187m5.8828-1.21484l.78126.94531m12.5078-2.99219l-4.83202 5.10157m4.83203-5.10157l2.36719.65235m10.80468-.78125l-4.54297 5.35937m4.54297-5.35937l2.39844.52344m10.27734-.95313l-3.26562 6.22266m2.79297-5.31641l1.22656-.00781m9.96875-1.16797l1.92188 6.75781m15.86718-3.41797l-7.02734.08203m6.0039-.0703l.58985 1.07421m13.03906-3.16406l-5.60547 4.23828m5.60547-4.23828l2.22266 1.03125m-3.03906-.41406l1.11328.51562m12.87109-1.3125l-5.3125 4.59766"/><g clip-path="url(#ak)"><path fill="none" stroke="#000" stroke-linecap="round" stroke-linejoin="round" stroke-miterlimit="10" stroke-width=".5" d="M466.21875 318.25l2.28906.88281"/></g><path fill="none" stroke="#000" stroke-linecap="round" stroke-linejoin="round" stroke-miterlimit="10" stroke-width=".5" d="M465.44531 318.91797l2.28906.88281m-3.0625-.21484l1.14454.4414"/><path fill="#00f" fill-rule="evenodd" d="M383.80078 472.08594h8.61719V461.9414h-8.61719v10.14453"/><path fill="azure" fill-rule="evenodd" d="M385.63281 463.77344h.83203v2.82422h3.28907v-2.82422h.83203v6.48047h-.83203v-2.91797h-3.28907v2.91797h-.83203v-6.48047"/><path fill="#00f" fill-rule="evenodd" d="M228.45703 463.21094h8.6211V453.0625h-8.6211v10.14844"/><path fill="azure" fill-rule="evenodd" d="M230.28906 454.89844h.83594v2.82031h3.28516v-2.82031h.83203v6.48047h-.83203v-2.91797H231.125v2.91797h-.83594v-6.48047"/><path fill="#00f" fill-rule="evenodd" d="M321.66406 454.33203h8.61719V444.1875h-8.61719v10.14453"/><path fill="azure" fill-rule="evenodd" d="M323.4961 446.01953h.83202v2.82422h3.28907v-2.82422h.83203V452.5h-.83203v-2.91406h-3.28906V452.5h-.83204v-6.48047"/><path fill="#ff3030" fill-rule="evenodd" d="M371.17969 423.26563h7.6914v-10.14844h-7.6914v10.14844"/><path fill="azure" fill-rule="evenodd" d="M373.01172 414.95313h.83594v5.73828h3.1914v.74218h-4.02734v-6.48046"/><path fill="#ff3030" fill-rule="evenodd" d="M295.72656 414.38672h7.69531v-10.14453h-7.6953v10.14453"/><path fill="azure" fill-rule="evenodd" d="M297.5586 406.07422h.83593v5.74219h3.1914v.73828h-4.02734v-6.48047"/><path fill="#ff3030" fill-rule="evenodd" d="M189.20703 378.88281h7.6914v-10.14844h-7.6914v10.14844"/><path fill="azure" fill-rule="evenodd" d="M191.03906 370.5664h.83594v5.7422h3.1914v.73827h-4.02734v-6.48046"/><path fill="#ffffe0" fill-rule="evenodd" d="M319.55078 401.17969h22.1836v-10.1914h-22.1836v10.1914"/><path fill-rule="evenodd" d="M323.05078 392.82031h.51172v6.29688h-.78906V394.625h-1.38672v-.55469l.5586-.0664.25-.05079.23046-.08984.20313-.14062.17578-.21094.14062-.29688.10547-.39453m4.8125 0l.23047.01953.21875.0547.21094.08983.19531.1211.1836.14844.17187.17578.30078.42187.24219.49219.17969.54688.11328.57812.03906.59375-.03906.58984-.11329.58594-.17968.55469-.24219.5-.30078.42969-.17188.17968-.18359.15235-.19531.125-.21094.08984-.21875.0586-.23047.01953-.22656-.01954-.21875-.05859-.21094-.08984-.19531-.125-.1836-.15235-.17187-.17968-.30078-.4297-.24219-.5-.17969-.55468-.11328-.58594-.03906-.58984h.83594l.02734.5625.08203.5039.125.44532.16406.3711.19141.30077.21094.22266.22265.13672.22266.04687.22656-.04687.22266-.13672.21094-.22266.1914-.30078.16407-.3711.125-.4453.08203-.50391.02734-.5625-.02734-.5625-.08203-.5-.125-.4375-.16407-.36328-.1914-.29297-.21094-.21484-.22266-.13282-.22656-.04296-.22265.04296-.22266.13282-.21094.21484-.1914.29297-.16407.36328-.125.4375-.08203.5-.02734.5625h-.83594l.03906-.59375.11328-.57813.1797-.54687.24218-.49219.30078-.42187.17188-.17578.18359-.14844.19531-.1211.21094-.08984.21875-.05469.22656-.01953m4.95313 0l.23046.01953.21875.0547.20704.08983.19921.1211.1836.14844.17187.17578.30079.42187.24218.49219.17969.54688.11328.57812.03906.59375-.03906.58984-.11328.58594-.17969.55469-.24219.5-.30078.42969-.17187.17968-.1836.15235-.19921.125-.20704.08984-.21875.0586-.23046.01953-.22657-.01954-.21875-.05859-.21093-.08984-.19532-.125-.18359-.15235-.17188-.17968-.30078-.4297-.24218-.5-.1836-.55468-.10937-.58594-.03906-.58984h.83203l.03125.5625.08203.5039.125.44532.16406.3711.1875.30077.21094.22266.22265.13672.22657.04687.22656-.04687.22265-.13672.21094-.22266.1914-.30078.16407-.3711.125-.4453.08203-.50391.02735-.5625-.02735-.5625-.08203-.5-.125-.4375-.16406-.36328-.1914-.29297-.21094-.21484-.22266-.13282-.22656-.04296-.22657.04296-.22265.13282-.21094.21484-.1875.29297-.16406.36328-.125.4375-.08203.5-.03125.5625h-.83204l.03907-.59375.10937-.57813.1836-.54687.24218-.49219.30079-.42187.17187-.17578.1836-.14844.1953-.1211.21094-.08984.21875-.05469.22657-.01953m4.95312 0l.38672.02735.35938.08593.32421.13282.27735.1875.23047.23828.17187.28515.10938.33204.03906.3789-.01953.27344-.0586.23437-.08593.19922-.11329.17188-.1289.14453-.14063.1211-.28515.1953.23047.1211.20703.14453.1836.17188.15233.1953.125.21094.08985.23047.05469.2461.01953.2539-.03516.3086-.10156.32812-.17188.32422-.23828.3086-.3086.26953-.375.21093-.21093.08204-.22656.0625-.2461.03906-.26171.01172-.25782-.01172-.24218-.03906-.22266-.0625-.20703-.08204-.35938-.21093-.28906-.26954-.22265-.30859-.15625-.32422-.09375-.32812-.03125-.3086h.83203l.02734.25391.07813.23438.125.21484.16015.1836.1914.15234.21876.11328.24219.07422.2539.02343.25781-.02343.23829-.07422.21875-.11328.1953-.15235.16016-.1836.1211-.21483.07812-.23438.02735-.2539-.02735-.25391-.07812-.23438-.1211-.21094-.16015-.18359-.19531-.15234-.21875-.11719-.23829-.07031-.2578-.02735-.25392.02735-.24218.07031-.21875.11719-.1914.15234-.16017.1836-.125.21093-.07812.23438-.02734.2539h-.83204l.01954-.2539.05468-.23828.09375-.22266.1211-.21094.15625-.1914.17969-.17188.20703-.15234.23437-.13281-.28906-.19532-.13672-.1211-.1289-.14452-.11329-.17188-.08984-.19922-.05469-.23437-.02344-.27344h.78907l.02343.21485.06641.1914.10156.16406.13672.14063.16797.10937.1875.08204.20703.05078.21875.01953.22266-.01953.20703-.05079.1875-.08203.16406-.10937.13672-.14063.10547-.16406.0664-.1914.02344-.21485-.02344-.21484-.0664-.1914-.10547-.16798-.13672-.13672-.16406-.11328-.1875-.08203-.20703-.05078-.22266-.01563-.21875.01563-.20703.05078-.1875.08203-.16797.11328-.13672.13672-.10156.16797-.0664.1914-.02344.21485h-.78907l.03907-.3789.10937-.33204.17188-.28515.23046-.23828.28125-.1875.32032-.13282.35937-.08593.38672-.02735"/><path fill="#ffffe0" fill-rule="evenodd" d="M195.27734 352.69922h22.1797v-10.1914h-22.1797v10.1914"/><path fill-rule="evenodd" d="M198.77734 344.33984h.50782v6.29297H198.5v-4.48828h-1.39063v-.55469l.5625-.0664.25-.05469.23047-.08984.20313-.14063.17578-.21094.14063-.29296.10546-.39454m4.8125 0l.23047.01954.21875.05468.20703.08985.19922.12109.1836.14844.17187.17578.30078.42187.24219.4922.17969.54687.11328.57812.03906.58985-.03906.59375-.11328.58593-.17969.55469-.24219.5-.30078.42969-.17187.17969-.1836.15234-.19922.1211-.20703.09374-.21875.0586-.23047.01953-.22656-.01953-.21875-.0586-.21094-.09375-.1953-.1211-.1836-.15233-.17188-.1797-.30078-.42968-.24219-.5-.18359-.55469-.10938-.58594-.03906-.59375h.83203l.03125.5625.08203.50782.125.4414.16407.375.1875.30079.21094.22265.22265.13672.22656.04688.22657-.04688.22265-.13672.21094-.22265.1914-.30079.16407-.375.125-.4414.08203-.50781.02734-.5625-.02734-.5586-.08203-.5-.125-.4375-.16406-.36719-.19141-.28906-.21094-.21484-.22265-.13281-.22657-.04297-.22656.04296-.22266.13282-.21093.21484-.1875.28906-.16406.3672-.125.4375-.08204.5-.03125.55858h-.83203l.03906-.58984.10938-.57812.1836-.54688.24218-.49219.30078-.42187.17188-.17578.1836-.14844.1953-.1211.21094-.08984.21875-.05469.22656-.01953m4.95313 0l.23047.01954.21875.05468.20703.08985.19922.12109.1836.14844.17187.17578.30078.42187.24219.4922.17968.54687.11328.57812.03516.58985-.03516.59375-.11328.58593-.17969.55469-.24218.5-.30078.42969-.17188.17969-.1836.15234-.19921.1211-.20703.09374-.21875.0586-.23047.01953-.22656-.01953-.22266-.0586-.20703-.09375-.19531-.1211-.1836-.15233-.17187-.1797-.30078-.42968-.2461-.5-.17969-.55469-.10937-.58594-.03906-.59375h.83203l.03125.5625.08203.50782.125.4414.16016.375.1914.30079.21094.22265.22266.13672.22656.04688.22656-.04688.22266-.13672.21094-.22265.1914-.30079.16406-.375.125-.4414.08203-.50781.02735-.5625-.02734-.5586-.08204-.5-.125-.4375-.16406-.36719-.1914-.28906-.21094-.21484-.22266-.13281-.22656-.04297-.22656.04296-.22266.13282-.21094.21484-.1914.28906-.16016.3672-.125.4375-.08203.5-.03125.55858h-.83203l.03906-.58984.10938-.57812.17968-.54688.2461-.49219.30078-.42187.17187-.17578.1836-.14844.1953-.1211.20704-.08984.22266-.05469.22656-.01953m4.95312 0l.38672.02735.35938.08203.32422.13672.27734.1875.23047.23828.17187.28515.10938.33204.03906.375-.01953.27734-.0586.23438-.08984.19921-.10937.17188-.1289.14062-.14063.125-.28516.19532.23047.11718.20703.14844.1836.17188.15234.1914.125.21485.08984.23046.05469.2422.01953.2578-.03516.3086-.10156.32812-.17187.32422-.2422.30469-.30468.26953-.375.21485-.21094.08203-.22656.05859-.2461.03906-.26171.01563-.25781-.01563-.2422-.03906-.22265-.0586-.20703-.08202-.35937-.21485-.28907-.26953-.22265-.30469-.15625-.32422-.09375-.32812-.03125-.3086h.83203l.02734.25391.07813.23438.1211.21093.16405.1875.19141.14844.21875.11719.24219.07031.2539.02735.25391-.02735.24219-.07031.21875-.11719.19531-.14844.16016-.1875.12109-.21093.07813-.23438.02734-.2539-.02734-.25391-.07813-.23438-.1211-.21093-.16015-.1875-.19531-.15235-.21875-.11328-.24219-.07422-.2539-.02344-.25391.02344-.24219.07422-.21875.11328-.1914.15235-.16407.1875-.1211.21093-.07812.23438-.02734.2539h-.83203l.01953-.2539.05469-.23828.09375-.22656.12109-.20704.15234-.1914.1836-.17188.20703-.15234.23437-.13281-.28906-.19532-.14062-.125-.12891-.14062-.10938-.17188-.08984-.19921-.05469-.23438-.02343-.27734h.78906l.02344.21484.0625.1914.10547.16798.13671.14062.16407.10938.1914.08203.20703.05078.21875.01562.22266-.01562.20703-.05078.1875-.08204.16406-.10937.13672-.14063.10547-.16796.0664-.19141.01954-.21484-.01953-.21094-.0664-.1914-.10548-.16798-.13672-.14062-.16406-.10938-.1875-.08203-.20703-.05078-.22266-.01562-.21875.01562-.20703.05078-.1914.08203-.16407.10938-.13672.14062-.10546.16797-.0625.1914-.02344.21095h-.78906l.03906-.375.10937-.33204.17188-.28515.23047-.23828.28125-.1875.32031-.13672.35938-.08203.38671-.02735"/><path fill="#ffffe0" fill-rule="evenodd" d="M190.83984 413.82031h22.1797v-10.1914h-22.1797v10.1914"/><path fill-rule="evenodd" d="M194.33984 405.46094h.50782v6.29687h-.78516v-4.48828h-1.39063v-.5586l.5625-.0625.25-.05468.23047-.08984.20313-.14063.17578-.21094.14063-.29296.10546-.39844m4.8125 0l.23047.01953.21875.0586.20703.08984.19532.11718.1875.15235.16797.17578.30468.41797.24219.49219.17969.54687.11328.58203.03516.58985-.03516.59375-.11328.58203-.17969.55468-.24219.50391-.30469.42578-.16796.17969-.1875.15234-.19532.125-.20703.09375-.21875.05469-.23047.01953-.23047-.01953-.21875-.05469-.20703-.09375-.1953-.125-.1836-.15234-.17188-.17969-.30078-.42578-.2461-.5039-.17968-.5547-.10938-.58202-.03906-.59375h.83203l.03125.5625.08203.5078.125.44141.16016.375.1914.30079.21095.21875.22265.14062.22656.04297.22657-.04297.22265-.14063.21094-.21875.1914-.30078.16016-.375.1289-.4414.08204-.50781.02734-.5625-.02734-.5625-.08203-.5-.1289-.4336-.16016-.36719-.19141-.29296-.21094-.21485-.22265-.1289-.22657-.04688-.22656.04688-.22266.1289-.21093.21485-.1914.29296-.16017.3672-.125.43358-.08203.5-.03125.5625h-.83203l.03906-.58984.10938-.58203.17969-.54688.2461-.49218.30077-.41797.17188-.17578.1836-.15235.1953-.11718.20703-.08985.21875-.0586.23047-.01952m4.95313 0l.23047.01953.21875.0586.20703.08984.19531.11718.1836.15235.17187.17578.30469.41797.24219.49219.17968.54687.10938.58203.03906.58985-.03906.59375-.10938.58203-.17969.55468-.24218.50391-.30469.42578-.17188.17969-.18359.15234-.19531.125-.20703.09375-.21875.05469-.23047.01953-.23047-.01953-.21875-.05469-.20703-.09375-.19531-.125-.1836-.15234-.17187-.17969-.30469-.42578-.24219-.5039-.17969-.5547-.10937-.58202-.03906-.59375h.83203l.03125.5625.07812.5078.12891.44141.16016.375.1914.30079.21094.21875.22266.14062.22656.04297.22656-.04297.22266-.14063.21094-.21875.1914-.30078.16016-.375.1289-.4414.08203-.50781.02735-.5625-.02734-.5625-.08204-.5-.1289-.4336-.16016-.36719-.1914-.29296-.21094-.21485-.22266-.1289-.22656-.04688-.22656.04688-.22266.1289-.21094.21485-.1914.29296-.16016.3672-.1289.43358-.07813.5-.03125.5625h-.83203l.03906-.58984.10938-.58203.17968-.54688.24219-.49218.30469-.41797.17187-.17578.1836-.15235.1953-.11718.20704-.08985.21875-.0586.23047-.01952m4.95312 0l.38672.03125.35938.08203.32031.13672.28125.1875.23047.23437.17187.28516.10938.33203.03906.3789-.02344.27344-.05468.23438-.08985.20312-.10937.16797-.1289.14453-.14063.1211-.28907.19922.23438.11718.20703.14844.1836.17188.15234.1914.1211.21485.09374.23046.05469.2422.01953.2578-.03516.3086-.10156.32422-.17187.32812-.2422.30469-.30468.26953-.375.21485-.21094.08203-.23047.05859-.24218.03906-.26172.01172-.26172-.01172-.23828-.03906-.22656-.0586-.20313-.08202-.35937-.21485-.28907-.26953-.22265-.30469-.16016-.32812-.08984-.32422-.03125-.3086h.83203l.02734.25.07813.23829.1211.21093.16015.1836.19531.15234.21875.11328.24219.07422.2539.02344.25391-.02344.24219-.07422.21875-.11328.1914-.15234.16407-.1836.12109-.21093.07813-.23829.02734-.25-.02734-.2539-.07813-.23438-.1211-.21484-.16406-.1836-.1914-.15234-.21875-.11328-.24219-.07422-.2539-.02344-.25391.02344-.24219.07422-.21875.11328-.19531.15235-.16016.18359-.1211.21484-.07812.23438-.02734.2539h-.83203l.01953-.2539.05469-.24219.08984-.22265.125-.20704.15234-.1914.1836-.17188.20703-.15234.23047-.13281-.28516-.19922-.14062-.1211-.12891-.14453-.10938-.16797-.08984-.20312-.0586-.23438-.01952-.27343h.78515l.02344.21484.0664.1914.10548.16407.13671.14062.16407.11329.1875.08203.20703.05078.22265.01562.21875-.01562.20703-.05078.19141-.08204.16406-.11328.13672-.14062.10156-.16406.06641-.19141.02344-.21484-.02344-.21485-.0664-.1914-.10157-.16407-.13672-.14062-.16406-.11328-.1914-.08203-.20704-.04688-.21875-.01953-.22265.01953-.20703.04688-.1875.08203-.16407.11328-.13672.14062-.10546.16407-.06641.1914-.02344.21485h-.78515l.03906-.37891.10937-.33203.17188-.28516.23047-.23437.27734-.1875.32422-.13672.35938-.08203.38671-.03125"/><path fill="#ffffe0" fill-rule="evenodd" d="M248.53906 435.96094h22.17969v-10.19531h-22.17969v10.1953"/><path fill-rule="evenodd" d="M252.03906 427.60156h.50781v6.29297h-.78515v-4.48828h-1.39063v-.5586l.5586-.0625.2539-.05468.23047-.08985.20313-.14062.17187-.21094.14453-.29297.10547-.39453m4.8125 0l.23047.01563.21875.0586.20703.08983.19531.1211.1836.14844.17187.17578.3047.41797.24218.49609.17969.54297.10937.58203.03906.58984-.03906.59375-.10937.58204-.1797.55468-.24218.5039-.30469.42579-.17187.17969-.1836.15234-.1953.125-.20704.09375-.21875.05469-.23047.01953-.23047-.01953-.21875-.05469-.20703-.09375-.19531-.125-.1836-.15234-.17187-.17969-.30469-.42578-.24218-.5039-.1797-.5547-.10937-.58203-.03906-.59375h.83203l.02735.5625.08203.50782.1289.4414.16016.375.1914.30078.21094.22266.22266.13672.22656.04687.22656-.04687.22266-.13672.21094-.22266.1914-.30078.16016-.375.1289-.4414.07813-.50782.03125-.5625-.03125-.5625-.07812-.5-.1289-.43359-.16017-.36719-.1914-.29297-.21094-.21484-.22265-.1289-.22657-.04688-.22656.04687-.22266.12891-.21093.21484-.19141.29297-.16016.36719-.1289.4336-.08203.5-.02735.5625h-.83203l.03906-.58985.10938-.58203.17969-.54297.24218-.4961.3047-.41796.17187-.17578.18359-.14844.19531-.1211.20703-.08984.21875-.0586.23047-.01562m4.95313 0l.23047.01563.21875.0586.20703.08983.19531.1211.1836.14844.17187.17578.30078.41797.2461.49609.17968.54297.10938.58203.03906.58984-.03906.59375-.10938.58204-.17969.55468-.24609.5039-.30078.42579-.17188.17969-.18359.15234-.19531.125-.20703.09375-.21875.05469-.23047.01953-.23047-.01953-.21875-.05469-.20703-.09375-.19531-.125-.1875-.15234-.16797-.17969-.3047-.42578-.24218-.5039-.17969-.5547-.11328-.58203-.03515-.59375h.83203l.02734.5625.08203.50782.1289.4414.16017.375.1914.30078.21094.22266.22265.13672.22657.04687.22656-.04687.22266-.13672.21093-.22266.19141-.30078.16016-.375.125-.4414.08203-.50782.03125-.5625-.03125-.5625-.08203-.5-.125-.43359-.16016-.36719-.1914-.29297-.21094-.21484-.22266-.1289-.22656-.04688-.22656.04687-.22266.12891-.21094.21484-.1914.29297-.16016.36719-.1289.4336-.08204.5-.02734.5625h-.83203l.03515-.58985.11328-.58203.1797-.54297.24218-.4961.30469-.41796.16796-.17578.1875-.14844.19532-.1211.20703-.08984.21875-.0586.23047-.01562m4.95312 0l.38672.02735.35938.08203.3203.13672.28126.1875.23047.23437.17187.28906.10938.33204.03906.375-.02344.27343-.05469.23438-.08984.20312-.11328.16797-.1289.14453-.13673.1211-.28906.19921.23438.1172.20703.14843.17969.17188.15625.1914.12109.21485.09375.23046.05469.2422.01953.2578-.03516.3086-.10547.32422-.17187.32812-.23828.30469-.3086.26953-.37109.21484-.21094.08204-.23047.05859-.24218.03906-.26172.01172-.26172-.01172-.24219-.03906-.22265-.0586-.20313-.08203-.35938-.21484-.28906-.26953-.22265-.30469-.16016-.32812-.09375-.32422-.02734-.3086h.83203l.02734.25.07813.23829.12109.21093.16016.1836.1953.15234.21876.11719.23828.07031.25781.02734.2539-.02734.2422-.07031.21875-.11719.1914-.15234.16016-.1836.125-.21094.07812-.23828.02344-.25-.02344-.2539-.07812-.23438-.125-.21484-.16016-.1836-.1914-.15234-.21875-.11328-.2422-.07422-.2539-.02344-.25781.02344-.23828.07422-.21875.11328-.19531.15235-.16016.18359-.1211.21484-.07812.23438-.02734.2539h-.83203l.01953-.2539.05469-.24219.08984-.22266.125-.20703.15234-.1914.1836-.17188.20703-.15234.23047-.13281-.28516-.19922-.14063-.1211-.1289-.14453-.11328-.16797-.08594-.20312-.0586-.23438-.01952-.27344h.78515l.02344.21485.0664.1914.10547.16797.13672.13672.16406.11328.1875.08204.20704.05078.22265.01562.21875-.01562.20703-.05079.1875-.08203.16797-.11328.13672-.13672.10156-.16796.06641-.19141.02344-.21485-.02344-.21484-.0664-.1914-.10157-.16407-.13672-.14062-.16797-.11328-.1875-.07813-.20703-.05078-.21875-.01953-.22265.01953-.20704.05078-.1875.07813-.16406.11328-.13672.14062-.10546.16406-.06641.19141-.02344.21485h-.78515l.03906-.375.10547-.33204.17578-.28906.23047-.23437.27734-.1875.32422-.13672.35937-.08203.38672-.02735"/><path fill="#ffffe0" fill-rule="evenodd" d="M338.69922 445.6875h22.17969v-10.1914h-22.1797v10.1914"/><path fill-rule="evenodd" d="M342.19922 437.32813h.50781v6.29687h-.78515v-4.49219h-1.39063v-.55469l.5586-.0664.2539-.05078.23047-.08985.20312-.14062.17188-.21094.14453-.29687.10547-.39454m4.8125 0l.23047.01954.21875.05468.20703.08985.19531.1211.1836.14843.17187.17578.30469.42188.24219.49218.17968.54688.10938.57812.03906.59375-.03906.58985-.10938.58593-.17969.5547-.24218.5-.30469.42968-.17188.17969-.18359.15234-.19531.125-.20703.08984-.21875.0586-.23047.01953-.23047-.01953-.21875-.0586-.20703-.08984-.19531-.125-.1836-.15234-.17187-.1797-.30469-.42968-.24219-.5-.17969-.55469-.10937-.58593-.03906-.58985h.83203l.02734.5625.08203.5039.12891.44532.16016.3711.1914.30078.21094.22265.22266.13672.22656.04688.22656-.04688.22266-.13672.21094-.22265.1914-.30079.16016-.37109.1289-.44531.07813-.5039.03125-.5625-.03125-.5625-.07813-.5-.1289-.4375-.16016-.36329-.1914-.29297-.21094-.21484-.22266-.13281-.22656-.04297-.22656.04297-.22266.1328-.21094.21485-.1914.29297-.16016.36328-.1289.4375-.08204.5-.02734.5625h-.83203l.03906-.59375.10938-.57812.17968-.54688.24219-.49219.30469-.42187.17187-.17578.1836-.14844.1953-.1211.20704-.08984.21875-.05468.23047-.01954m4.95312 0l.23047.01954.21875.05468.20703.08985.19532.1211.18359.14843.17188.17578.30078.42188.24609.49218.17969.54688.10937.57812.03906.59375-.03906.58985-.10937.58593-.17969.5547-.2461.5-.30077.42968-.17188.17969-.1836.15234-.1953.125-.20704.08984-.21875.0586-.23047.01953-.23046-.01953-.21875-.0586-.20704-.08984-.1953-.125-.1875-.15234-.16798-.1797-.30469-.42968-.24218-.5-.17969-.55469-.11328-.58593-.03516-.58985h.83203l.02735.5625.08203.5039.1289.44532.16016.3711.1914.30078.21094.22265.22266.13672.22656.04688.22657-.04688.22265-.13672.21094-.22265.1914-.30079.16016-.37109.125-.44531.08203-.5039.03125-.5625-.03125-.5625-.08203-.5-.125-.4375-.16015-.36329-.19141-.29297-.21094-.21484-.22265-.13281-.22657-.04297-.22656.04297-.22265.1328-.21094.21485-.1914.29297-.16017.36328-.1289.4375-.08203.5-.02735.5625h-.83203l.03516-.59375.11328-.57812.17969-.54688.24219-.49219.30468-.42187.16797-.17578.1875-.14844.19531-.1211.20704-.08984.21875-.05468.23046-.01954m4.95313 0l.38672.02735.35937.08203.32031.13672.28125.1875.23047.23828.17188.28516.10937.33203.03907.3789-.02344.27344-.05469.23438-.08984.19921-.11328.17188-.12891.14453-.13672.1211-.28906.1953.23437.1211.20704.14453.17968.17188.15625.19531.1211.21094.08984.23047.0586.24609.01952.2539-.03515.3086-.10547.32813-.17188.32421-.23828.3086-.30859.26953-.3711.21094-.21093.08203-.23047.0625-.24219.03906-.26172.01172-.26171-.01172-.2422-.03906-.22265-.0625-.20312-.08203-.35938-.21094-.29297-.26953-.22265-.3086-.15625-.32421-.09375-.32813-.02735-.3086h.83203l.02735.25391.07812.23438.1211.21484.16015.1836.19531.15234.21875.11328.23829.07422.2578.02344.25392-.02344.24218-.07422.21875-.11328.1914-.15235.16017-.18359.125-.21484.07812-.23438.02344-.2539-.02344-.25391-.07813-.23438-.125-.21093-.16015-.1836-.1914-.15234-.21876-.11719-.24219-.07031-.2539-.02734-.25781.02734-.23829.07031-.21875.11719-.1953.15234-.16016.1836-.1211.21094-.07812.23437-.02735.2539h-.83203l.01953-.2539.0547-.23828.08983-.22266.125-.21094.15235-.1914.1836-.17188.20702-.15234.23047-.13281-.28515-.19531-.14063-.1211-.1289-.14453-.11329-.17188-.08593-.19921-.0586-.23438-.01953-.27344h.78516l.02344.21485.0664.1914.10547.16407.13672.14062.16406.10938.1875.08203.20703.05078.22266.01953.21875-.01953.20703-.05078.1875-.08203.16797-.10938.13672-.14062.10156-.16407.0664-.1914.02344-.21485-.02343-.21484-.06641-.1914-.10156-.16798-.13672-.13671-.16797-.11329-.1875-.08203-.20703-.05078-.21875-.01562-.22266.01562-.20703.05078-.1875.08204-.16406.11328-.13672.13671-.10547.16797-.0664.19141-.02344.21484h-.78516l.03906-.3789.10547-.33203.17578-.28516.23047-.23828.27735-.1875.32421-.13672.35938-.08203.38672-.02735"/><path fill="#ffffe0" fill-rule="evenodd" d="M301.80078 350.58984h22.17969v-10.1914h-22.17969v10.1914"/><path fill-rule="evenodd" d="M305.29688 342.23047h.51171v6.29297h-.78906v-4.48828h-1.38672v-.5547l.5586-.0664.2539-.05469.22656-.08984.20313-.14062.17578-.21094.14063-.29297.10546-.39453m4.81641 0l.22656.01953.21875.05469.21094.08984.19531.1211.1836.14843.17187.17578.30078.41797.2422.4961.18358.54687.10938.57813.03906.58984-.03906.59375-.10938.58594-.18359.55078-.24219.5039-.30078.4297-.17187.17968-.1836.15234-.1953.1211-.21095.09375-.21875.05469-.22656.02343-.23047-.02344-.21875-.05468-.20703-.09375-.19922-.1211-.1836-.15234-.17187-.17969-.30078-.42969-.24219-.5039-.17968-.55078-.11328-.58594-.03907-.59375h.83594l.02735.5625.08203.50781.125.4414.16406.375.1914.30079.21094.22266.22266.13671.22656.04688.22656-.04688.22266-.13671.21094-.22266.1875-.30078.16406-.375.125-.4414.08203-.50782.03125-.5625-.03125-.5586-.08203-.5039-.125-.4336-.16406-.36718-.1875-.29297-.21094-.21094-.22266-.13281-.22656-.04297-.22656.04297-.22266.13281-.21094.21094-.1914.29297-.16406.36719-.125.43359-.08204.5039-.02734.5586h-.83594l.03907-.58984.11328-.57813.17969-.54687.24218-.4961.30078-.41797.17188-.17578.1836-.14844.19921-.12109.20703-.08984.21875-.05469.23047-.01953m5.08985 0h.5078v6.29297h-.78515v-4.48828h-1.39062v-.5547l.5625-.0664.25-.05469.23046-.08984.20313-.14062.17578-.21094.14063-.29297.10546-.39453m2.82422 2.17578h.78516l.01953-.3164.0586-.28907.10156-.25.14062-.21484.17969-.17578.22266-.12891.26562-.07813.3086-.02734.23828.01953.22265.0625.20313.10156.17969.13672.14843.17579.11328.20312.07422.23828.02344.26563-.01953.26562-.0664.22656-.10938.19141-.15625.17188-.20313.16015-.2461.16797-.6328.38672-.53907.3164-.4375.31641-.34375.32422-.26562.33594-.1914.35156-.125.36719-.06641.39453-.02344.41797h4.21484v-.73828h-3.33594l.08594-.28516.11328-.23828.14844-.19922.1875-.17969.23047-.17187.27734-.17578.71875-.41797.41407-.20313.34375-.23437.28125-.25.22265-.26563.16016-.27734.11328-.28516.0625-.28515.01953-.28125-.03906-.38282-.1211-.34765-.1914-.3086-.25-.26171-.30078-.21485-.34766-.15625-.3789-.10156-.40625-.03125-.4336.03125-.39844.09765-.35546.16797-.3047.23438-.25.30469-.18359.375-.11718.4453-.03907.51954"/></g></defs><use xlink:href="#al"/></svg>