<svg xmlns="http://www.w3.org/2000/svg" role="img" xmlns:xlink="http://www.w3.org/1999/xlink" viewBox="142.45 309.95 326.84 171.84"><defs><clipPath id="a"><path d="M144 311.67188h1v168.65625h-1zm0 0"/></clipPath><clipPath id="b"><path d="M144 311.67188h324v168.65625H144zm0 0"/></clipPath><clipPath id="c"><path d="M384 476h13v4.32813h-13zm0 0"/></clipPath><clipPath id="d"><path d="M386 477h10v3.32813h-10zm0 0"/></clipPath><clipPath id="e"><path d="M390 479h3v1.32813h-3zm0 0"/></clipPath><clipPath id="f"><path d="M467 311.67188h1v168.65625h-1zm0 0"/></clipPath><clipPath id="g"><path d="M144 479h4v1.32813h-4zm0 0"/></clipPath><clipPath id="h"><path d="M147 479h3v1.32813h-3zm0 0"/></clipPath><clipPath id="i"><path d="M153 479h9v1.32813h-9zm0 0"/></clipPath><clipPath id="j"><path d="M160 479h3v1.32813h-3zm0 0"/></clipPath><clipPath id="k"><path d="M167 479h8v1.32813h-8zm0 0"/></clipPath><clipPath id="l"><path d="M173 479h3v1.32813h-3zm0 0"/></clipPath><clipPath id="m"><path d="M180 479h8v1.32813h-8zm0 0"/></clipPath><clipPath id="n"><path d="M187 479h3v1.32813h-3zm0 0"/></clipPath><clipPath id="o"><path d="M193 478h8v2.32813h-8zm0 0"/></clipPath><clipPath id="p"><path d="M200 478h3v2.32813h-3zm0 0"/></clipPath><clipPath id="q"><path d="M206 479h9v1.32813h-9zm0 0"/></clipPath><clipPath id="r"><path d="M213 479h3v1.32813h-3zm0 0"/></clipPath><clipPath id="s"><path d="M220 478h8v2.32813h-8zm0 0"/></clipPath><clipPath id="t"><path d="M226 478h4v2.32813h-4zm0 0"/></clipPath><clipPath id="u"><path d="M225 479h3v1.32813h-3zm0 0"/></clipPath><clipPath id="v"><path d="M233 478h8v2.32813h-8zm0 0"/></clipPath><clipPath id="w"><path d="M240 478h3v2.32813h-3zm0 0"/></clipPath><clipPath id="x"><path d="M239 478h2v2.32813h-2zm0 0"/></clipPath><clipPath id="y"><path d="M247 478h7v2.32813h-7zm0 0"/></clipPath><clipPath id="z"><path d="M253 478h3v2.32813h-3zm0 0"/></clipPath><clipPath id="A"><path d="M260 478h8v2.32813h-8zm0 0"/></clipPath><clipPath id="B"><path d="M266 478h4v2.32813h-4zm0 0"/></clipPath><clipPath id="C"><path d="M273 478h8v2.32813h-8zm0 0"/></clipPath><clipPath id="D"><path d="M279 479h2v1.32813h-2zm0 0"/></clipPath><clipPath id="E"><path d="M287 478h7v2.32813h-7zm0 0"/></clipPath><clipPath id="F"><path d="M292 478h2v2.32813h-2zm0 0"/></clipPath><clipPath id="G"><path d="M300 478h8v2.32813h-8zm0 0"/></clipPath><clipPath id="H"><path d="M305 478h3v2.32813h-3zm0 0"/></clipPath><clipPath id="I"><path d="M313 479h8v1.32813h-8zm0 0"/></clipPath><clipPath id="J"><path d="M319 479h2v1.32813h-2zm0 0"/></clipPath><clipPath id="K"><path d="M327 477h6v3.32813h-6zm0 0"/></clipPath><clipPath id="L"><path d="M340 477h7v3.32813h-7zm0 0"/></clipPath><clipPath id="M"><path d="M354 477h6v3.32813h-6zm0 0"/></clipPath><clipPath id="N"><path d="M367 477h7v3.32813h-7zm0 0"/></clipPath><clipPath id="O"><path d="M380 478h7v2.32813h-7zm0 0"/></clipPath><clipPath id="P"><path d="M378 480h4v.32813h-4zm0 0"/></clipPath><clipPath id="Q"><path d="M394 477h6v3.32813h-6zm0 0"/></clipPath><clipPath id="R"><path d="M408 477h5v3.32813h-5zm0 0"/></clipPath><clipPath id="S"><path d="M421 476h5v4.32813h-5zm0 0"/></clipPath><clipPath id="T"><path d="M436 476h2v4.32813h-2zm0 0"/></clipPath><clipPath id="U"><path d="M449 476h2v4.32813h-2zm0 0"/></clipPath><clipPath id="V"><path d="M462 476h3v4.32813h-3zm0 0"/></clipPath><clipPath id="W"><path d="M144 466h4v2h-4zm0 0"/></clipPath><clipPath id="X"><path d="M144 452h4v3h-4zm0 0"/></clipPath><clipPath id="Y"><path d="M144 439h4v3h-4zm0 0"/></clipPath><clipPath id="Z"><path d="M466 439h2v4h-2zm0 0"/></clipPath><clipPath id="aa"><path d="M144 426h4v2h-4zm0 0"/></clipPath><clipPath id="ab"><path d="M466 425h2v2h-2zm0 0"/></clipPath><clipPath id="ac"><path d="M465 425h3v3h-3zm0 0"/></clipPath><clipPath id="ad"><path d="M144 413h4v2h-4zm0 0"/></clipPath><clipPath id="ae"><path d="M466 411h2v3h-2zm0 0"/></clipPath><clipPath id="af"><path d="M465 412h3v3h-3zm0 0"/></clipPath><clipPath id="ag"><path d="M144 398h4v5h-4zm0 0"/></clipPath><clipPath id="ah"><path d="M466 399h2v3h-2zm0 0"/></clipPath><clipPath id="ai"><path d="M144 384h4v6h-4zm0 0"/></clipPath><clipPath id="aj"><path d="M466 386h2v3h-2zm0 0"/></clipPath><clipPath id="ak"><path d="M144 371h4v5h-4zm0 0"/></clipPath><clipPath id="al"><path d="M466 372h2v4h-2zm0 0"/></clipPath><clipPath id="am"><path d="M144 358h4v5h-4zm0 0"/></clipPath><clipPath id="an"><path d="M466 358h2v3h-2zm0 0"/></clipPath><clipPath id="ao"><path d="M144 345h4v5h-4zm0 0"/></clipPath><clipPath id="ap"><path d="M466 345h2v4h-2zm0 0"/></clipPath><clipPath id="aq"><path d="M144 330h3v8h-3zm0 0"/></clipPath><clipPath id="ar"><path d="M466 332h2v3h-2zm0 0"/></clipPath><clipPath id="as"><path d="M144 316h1v9h-1zm0 0"/></clipPath><clipPath id="at"><path d="M144 315h2v3h-2zm0 0"/></clipPath><clipPath id="au"><path d="M144 317h1v2h-1zm0 0"/></clipPath><clipPath id="av"><path d="M466 318h2v2h-2zm0 0"/></clipPath><clipPath id="aw"><path d="M465 318h3v3h-3zm0 0"/></clipPath><g id="ax" clip-path="url(#clip1)"><path fill="#fff" fill-opacity="0" fill-rule="evenodd" d="M0 0h1000v1000H0zm0 0"/><path fill="#d3d3d3" fill-opacity="0" fill-rule="evenodd" d="M162.15234 355.86719l-.23437.29297.0586.23437.11718.17188.17578.23437.29297.34766.11328.0586.11719-.17188.0586-.23438.17577-.17578.46485-.17578h.69922l.23437.29297.28906.8164.0586.17579.17578.23046.35156.23438.69922.69922.17188.17578.23437.34765.23438.41016.28906.58203.41015.46485.23047.23437.23438.17578.11719.23047.17578.29297.17187 1.16406v.23438l.0586.28906.05859.11719.11719.11719.34765.41015.11719.17188.17578.17578.17578.23437.11719.17188.17188.35156.05859.23438.23437.40625.23438-.0586-.17578.17578-.0586.92969h-.58203l-.23437-.11328-.34766.11328-.11719.11719-.05859.29297-.0586.17578-.11718.17187-.46484.29297-.0586.23438-.0586.11328v.64453l.0586.17187v.41016l.0586.0586v.40624l.05859.40625.11719.17579.05859.05859.23047.64062-.0586.29297v.69922l-.05859.58203v.23438l-.0586.23047-.05468.35156v1.92187l.05469.1172h.42578l-.36719.11718-.02344.35156.89063 1.16797 1.74219.53906 1.33984.35938v.53906l.08984.8086.53516.71484 1.51953.26953.89063-.08594.08984 1.16406.53516.1797 1.16015-.1797 2.05469-.98437 1.16016-.36328 1.8789-.17578 1.69531-.1797-.17968.71876-1.51563.08594-1.25.08984-.80469.26953-1.07421.8086.26953.71875.53515.89843-.17968.625-.26563.8086.26563 1.07812.625.89844.80468.17969 1.25-.1797-.26562.72267.09766.5039.05468.29297v.17188l.0586.29296v.40625l.17578.1172.35156.11718h.40625l.29297-.17578.11328-.11719.0586-.11719.11718-.23047.0586-.17578.35156-.46484.23047-.17578.17578-.0586.17578.0586.0586.17578.11718.98828.05469.46875.0586.17188.11718.23437.17578.0586.8164.05859h.28907l.11719.23437.05859.40625.0586.35156v1.10547l.11718.29297.11719.34766.28906.69922.17578.35156.58203.7539.35157.17579.17187.0586.46875.23437.64063.46484.34765.23438.29297.17578.29297.05468.23047.0625.8164.34766.29297.17578.11328.17188.35157.35156.11719.17578.52343.64063v.28906l.0586.35156v.34766l.05859.35156.0586.28906.11718.0586.17188.05859h.17578l.58203.23437.17578.1172.17578.28905.17578.23438.11328.23437.29297.23047.11719.11719v.41016l.0586.05468.28906.23438.23437.11719.0586.11718.11718.17188.0586.11719.23047.23437.05859.17578.23437.0586.1172.05859-.1172.11328-.05859.11719v.11719l-.11719.29296-.11719.28907v.58203l.17579.11719.11718.05859.0586.11719.11719.11719.11328.05859.17578.34765.0586.35157.05858.40625v.17578l-.05859.17578-.11719.69922v.17187l.1172.17579.29296.29296h.40625l.17578.1172.11719.17187.11719.29296v.23438h-.52735l-.23047-.23438h-.23437l-.17578.0586-.0586.69922.0586.34765.11719.17579.17578.41015.11718.23047.28907.46875.17578.05469h.52344l.23437.0586.75781.64062.0586.29296v.23438l.05859.0586.23047.34765v.35156l-.11719.17188v.29297l.29297.28906.29297.17578.17187.0586.29297.17577.29297.1172.58203.40624.28906.23438.29297.17578.21875.16015.01563.01172.23047.17579.64062.52343.17578.23438.1172.17578.17577.17578.11328.17188v.64062l.1172.17578.46874.11719.58203.11719.23438.05859.23047.11328.29297.11719.11328.0586.58593.35156.28907.17187.17578.0625.17578.05469.17578.0586.69922.35155.28906.17579.23438.05468.28906.17578.23437.1172.64063.40624.29297.11719.17187.0586.23438.05859.41015.05859.23047.0586.23438.11718.0586.17188-.41017.17578.46875.0586.0586.29296.11328.23438.17578.05468.23438.0586.17578.05859.40625.11719.64062.23437.11719.17188.0586.23437v.17578l-.0586.1172-.0586.40624.23438.23438.11719.05859.34766.11719.64062.23047.17578.11718.28906.1172.17578.17577.23438.46485.58203 1.10546.17578.17579.34766.17578.17578.11719.35156.11718 1.04688.52344.23437.0586.46485.11327.29297.0586.46484.17578.75781.58203.23438.23438.34765.46484.17578.17578.28907.23438.8164.69921.29297.17579.28906.28906.29297.17578.29297.28906.69531.64063.17578.17578.29297.23437.28907.23438.46875.28906.64062.58203.34766.23438.23437.29297.34766.34765.35156.46485.9336.99218.34765.40625.11719.17579.23437.05859.11328.11719.64454.17578.23047.11328.23437.0586.29297.17577.23047.1172.9336.69921.40624.40625.23438.17578.40625.17578.23437.11719.8164.34766.34766.23437.23438.11719.29297.28906.23047.11719.7578.35156.35157.17188.23047.05859.29297.11719.23437.0586.8711.17577h.8164l.46875.23047.17188.0586.875.69921.46484.1172.29297.05858.17578.0586.23047.0586.46875.05859.34766.05859.35156.0586.40625.05859h.29297l.17187.0586v.23046l.17578.17578h.29297l.34766.0586.35156.05859.69922.11719h.64063l.46484-.23438.29297-.17578.17187-.11719.41016-.17187.28906-.17578.9336-.46485.46875-.29297.52343-.29296.46485-.17188.46484-.17578 1.05078-.46485.28906-.11718.41016-.11719.28906-.11719.52735-.17578 1.51562-.69922.58203-.34765.28907-.0586.29297-.0586.34765-.11718.875-.23047.35156-.11719h.11329l.23437-.05859.875-.23437.23438-.0586h.8125l.35156-.0586.8164-.11718.17188-.0586.35156-.05468.29297-.0586.23047-.05859.8164-.17578.17579-.0586h.34765l.23438-.05859.46484-.11718.75781-.17188.23438-.0586h.34765l.41016-.11718.28906-.0586 1.28516-.05859h.28906l.41016-.0586.23047-.05858h.17578l.875-.1172h.40625l.41015-.11718h.34766l.35156-.11328.8711-.0586h1.75l1.04687.28907.41016.11719.28906.11718.35156.11719.28907.11719 1.05078.17187.28906.0586h.29297l.29297.05859.17187.0586.41016.05859.17187.0586.1172.05858h.11718l.11719.0586.35156.0586h.11328l.41016.0664 1.92187.39453 1.92578.39453 1.51953.44922 1.69532.71875 2.14453.80469 1.60547-.71875 1.42968-.80469 1.16016-1.07813 1.25-.44921 3.03516-.71875 1.875-.35938 2.14453-1.34765 2.23437-1.25391 2.5-1.25781 1.69531-.44922 1.78516-.17969 1.16016-.26953.625.53906 1.33984-.26953.71485-.98828.98437-1.34375.44531-.17969.80469-.35937 1.875-.53907 1.78516-.44921 1.25-.26954 1.16015-.08984 1.69922-.08984 1.96094-.26954 1.25-.08984h.53906l.625-.08984h.89063l2.14453-.17969 2.41015-.17969 2.58985-.08984 1.69531.17969 1.60938.08984 1.42968.35938 1.16016.71875 1.875.98828 1.16015 1.52734.26563.71484.6289.08985.35548.89844.53515.53906.53516 1.52734 1.07422.35938h.53515l-.80469.53515.08985 1.70703.71484 2.69532.89063.80468.89453.98829.71484 1.2578 1.78516.53907 1.51953-.17969.35547 1.34375 1.60937-.80469.98047-.53906.26953.26953.31641-.21484.21875-.14453.80078.44922.44922-.35938h.35547l.53515-.26953.53907-.71875.53515-.26953.625-.98828 1.16016.44922.83984.3711 1.39454.61718 1.6953-.17969h1.60548l1.78515.08985.17969-1.70704.53516-1.34375.80468.26954.4922.84765.40233.40625-.08984.53906v.35938l.71485.44922.71093-.26953h1.42969l.35938.98828.4453 1.25781.71485 1.34375 1.25.6289 1.69531.62891.71485-.17969.17969-.53906.98046-.08984.44922.35937.08594 1.25782-.26563.6289-.53515.17969v.53906l.71484.98438.26563.53906.98437.98828.80078 1.07813-.26562.35937-.08985.89844-.625 2.33203-.35546 2.0664-.08985 1.79298-.17969.71875-.08984.53906v1.4375l-.98047 1.88281-.35937 1.70703-.53516.89844-.80469 1.16797-.26562.53906 2.05469 1.2539.08593.35938-.35546.53906-.08985-.17968v.80859l.08985 1.4375-.44532.71484-1.07422.09375-.26562.71485.53515.89844.8047.71875 1.16015.80859 1.33984.26953.44531.35938-.35546.44921-1.78907-.08984-1.25-.44922-.71484-.71875-.625-.08984-.17578 3.58984-.1875 1.3086h89.35937V311.70313h-55.26953v49.08203l.76172.125 3.28906.54296 2.02344 2.83594v2.7539l2.35156.33204 2.34766.33203h4.05078l-1.3789 4.16016-2.02344.70703-2.02344.70312-.54297.34375-2.59375 1.6172-.1875.11718-2.02344-2.07813-.73046-2.74218-2.67188-2.07813-1.375-3.5-.0664-.08203-1.95704-2.67188 2.75-1.41796v-49.08204H294.42187v91.41407l.1172.03125.1328.01172.07422.07421.10547.04688.08985.0586.08593.05859.08985.0586.29687.29687.0586.08984.03125.11719.02734.11719.01563.13671-.03125.1172-.0586.08983-.0586.08594-.04296.10547-.04688.10156-.02734.1211v.14453l.17578.26953.14844.14844.07422.08594.07422.07421.04296.10547.0625.08985.0586.08593.04297.10547.0586.08985.04687.10156.04296.10547.0586.08594.11719.17968.07421.07422.0625.08594.0586.08984.04297.10547.0586.08985.05858.08593.0625.08985.0586.08984.04297.10156.11719.17969.07421.07422.0586.08594.07422.07421.08984.0586.10547.04687h.14844l.1328-.01562.13282.01562.10156-.04687.07422-.07422.04688-.10156-.01563-.13281v-.14844l-.04687-.10547-.02735-.11719-.04687-.10156-.02735-.1211-.04296-.10156-.0625-.08984-.04297-.10156-.04297-.10547-.03125-.11719-.01563-.13281-.01171-.13672.08593-.0586.0586-.08593.12109-.03125.04297.10547.01562.1328v.1172l.0586.10156.0586.08984.08983.0586.14844.14843.0586.08985.04296.10547-.01171.10156.08593.0586.10547.04687.08594.0586.08984.05858.07422.07422-.11719.02735-.10546.04687-.08594.0586-.07422.07421-.0586.08985-.0625.08594-.02734.12109-.04687.10156-.04297.10547-.03125.11719-.01172.13281-.01563.13281v.14844l.02735.11719.04687.10547.04297.10156.0586.08984.07421.07422.08985.0586.07422.07421.08984.0586.0586.08984.04296.10547.04688.10156.11719.03125.1328.01563h.14845l.11718-.03125.10547.04297.04297.10547.04688.10156.02734.1211L299.5 410l.02734.11719.03125.1211.02735.11718.10547.04297.10156.04687.13281-.01562.14844.14844.0625.08593.07422.07422.07031.07422.08984.0625.10547.04297.10156.04297.1172.03125.13671.01562.11719-.03125.07422-.07422.02734-.11718-.01172-.13282-.03125-.12109-.02734-.11719.04297-.10547h.11719l.08984.0625.11719.02735h.14843l.13282.01562h.14843l.13282.01563.1328-.01563h.14845l.1328-.01562.13282-.01172.13672.01172.11719-.02735.13281-.01562.1914-.0586-.05859.17579-.01562.1328-.02735.1211-.01562.13281-.0586.08594-.1328.01563-.10548.04687-.10546.04297-.1172.03125-.11718.02735-.26563.03125h-.14843l-.13281.01562-.07422.07422.05859.08594.14844.14843.11719.1797.07421.0703.08985.0625.08984.0586.08594.0586.08984.05858.10156.04297.10547.0625.10547.04297.08594.0586.10547.04687.10156.04297.17969.11719.0586.08984-.04298.10156-.04687.10547.01562.13281.22266.22266.0586.08985.04296.10156.03125.1211.04297.10155.01563.13282.03125.11718.01171.13672.03125.11719.14844.14844.10156.04297.10547.04296.1172.03125.1328.01563.13672.01563h.11719l.11719-.03125.08984-.0586.04297-.10547.04688-.10156.04296-.10547.03125-.11719.01172-.1328v-.14845l-.01172-.1328-.01562-.13282-.03125-.11719-.04297-.10547-.04688-.10547-.04296-.10156-.04297-.10547-.01563-.13281.01563-.13281.02734-.11719.03125-.11719.02735-.1211.04687-.10155.08984-.0586.08594-.0625.07422-.07422.08984-.05859.22266-.22266.0586-.08593.07421-.07422.11719-.17969.0586-.08594v-.14844l-.07423-.07421-.10156-.04688-.10547-.04297-.10156-.04297-.0586-.08984-.04687-.10547-.02734-.11719.08984-.05859.11719-.03125.10156-.04297.17969-.11719.14844-.14843.01172-.13282-.01172-.10546-.08985-.0586-.1328.01563h-.14845l-.1328.01562-.13282-.01562-.1211-.03125-.08593-.0586-.07422-.07422-.0586-.08984-.0625-.08594-.11718-.17969-.0586-.08593.03125-.1211.08594-.05859.1211-.03125.05859-.08594v-.1211l-.03125-.11718-.0586-.08984-.05859-.08594-.04687-.10547-.02735-.11719-.01562-.1328.0586-.08985.07421-.07422.08984-.0586.1172-.17968.07421-.07422.0586-.08594.14843-.14844.1211-.03125.1328-.01562.13282.01562.07422.07422.04297.10547.01562.13281-.03125.1172-.11719.03124-.1328.01172-.14844.14844-.04297.10547-.04688.10156-.02734.1211-.03125.11718v.14844l.03125.11719.04297.10546.05859.08985.07422.07031.07422.07422.11719.03125.12109.02734.11719-.02734.1328-.01563h.1172l.08984.0586.07422.07422.04687.10546.0586.08594.10156.04688.13281.01562.10547.04297.08594.0586-.01172.10546-.07422.07422-.17969.11719-.05859.08984-.08984.0586-.07032.07422-.07421.07421-.0625.08985-.02735.11719-.01562.1328.01562.13282-.01562.13281v.14844l.01562.13281.02735.1172.03125.12108.07421.07422.08985.0586.08594.0586.08984.05858.11719.03125v.08594l-.10157.04688-.08984.0586-.26563.03124-.11718.02735h-.14844l-.10547.04296-.10156.04688-.0586.08984-.0625.23438-.01171.13281-.03125.1211-.01563.1328v.29298l-.01172.1328.01172.13673.01563.1328.1328.01563.13282.01172.1211.03125.08593.0586.07422.07421.04688.10547.04296.10157.01563.1328v.44532l-.01563.13281v.44532l.03125.26562.02735.11719.01562.13281.03125.11719.08594.21094.03125.26562v.14844l-.03125.11719-.02734.11718-.03125.1211-.02735.11719-.03125.11718-.03125.1211-.01171.1328-.01563.13282.08984.0586.1172-.03125.10155.01562.04688.10547-.03125.26562v.44141l-.04297.10547-.04688.10547-.04296.10156-.04297.10547-.0586.08594-.03125.12109-.04296.11719-.03125.11719-.01563.1328.01563.13282.05859.08984.10547.04688.08594.0586.05859.08593-.01172.13672-.03125.11719-.04297.10156v.44531l-.01562.13281v.14844l-.03125.11719-.04297.10547-.02735.11719-.04687.10546-.04297.10157-.03125.12109-.02734.11719-.03125.13281-.03125.11719-.02735.11719-.04297.10546-.03125.1172-.03125.12108-.01171.13282-.01563.13281v.29688l.02734.11718v.14844l.04688.39844.02734.11719.0586.08984.12109.03125h.14844l.13281-.01563.0586.08985v.11719l-.0586.08984-.08984.0586-.10157.04296-.10546.04688-.08985.05859-.08594.0586-.13671.01562-.1172-.03125-.1328-.01563-.10157.04688-.0625.08594-.01172.13671-.01562.13282-.03125.11719-.02735.11718-.01562.13281-.03125.1211v.29687l.01563.13282.03125.11718v.14844l.01171.13281v.14844l-.02734.11719-.04688.10156-.02734.1211-.03125.11718-.0586.08985-.07421.07421-.10156.04297-.10547.04688-.11719.02734-.1211.03125-.10156-.04687.0586-.08594.10547-.04688.02734-.11718.03125-.11719.02734-.1211.03125-.11718v-.14844l.01563-.13281-.03125-.11719-.04297-.10547-.10547.01563-.07422.07422-.10156.04296-.08984.0625-.07422.07422-.04297.10157-.01563.1328-.03125.1172L304.25 426l-.03125.11719-.02734.11719-.03125.12109-.02735.11719-.03125.11718-.04297.10547-.08984.0586h-.08984l-.1172-.03125-.03124-.08594.01562-.13672-.03125-.11719v-.14844l-.01171-.1328v-.14844l-.0625-.23438-.02735-.1211-.04297-.10156-.04687-.10546-.0586-.08594-.05859-.08985-.04297-.10546-.0625-.08594-.14844-.14844-.0703-.07422-.10548-.04687-.10547-.04297-.10156-.04297-.29687-.29688-.08985-.07421-.08594-.0586-.10546-.04297-.08985-.0625-.08594-.0586-.10546-.04296-.08985-.0586-.08594-.0625-.07421-.0703-.10547-.04688-.08594-.0586-.10547-.04296-.08984-.0625-.10156-.04297-.10547-.04297-.08594-.0586-.10547-.04687-.10547-.04297-.10156-.04687-.08985-.0586-.10156-.04297-.10547-.04296-.08984-.0625-.11719-.02735-.13281-.01562-.13281.01562H299.75l-.13281.01563-.11719-.03125-.08984-.0586-.07422-.07422-.08985-.05859-.10156-.04688h-.14844l-.12109-.02734-.10156-.04297-.07422-.07422-.11719-.17968-.08984-.0586-.10156-.04297-.08985-.0625-.10547-.04296-.08984-.0586-.08594-.0586-.10547-.04687-.0586-.08594-.05858-.08984-.04297-.10547-.04688-.10156-.07422-.07422-.08594-.0586-.07421-.07421-.08985-.0586-.22265-.22265-.04297-.10547-.03125-.26563.10547-.04296h.14453l.10547.04296.07421.07422.08985.0586.08594.0586.10546.04687.08985.05859.14844.14844.0703.07422.14845.14843.0625.08594.07421.07422.08594.0586.07422.07421.08985.0625.08984.0586.08594.05859.26953.17578.10156.04688.10547.04296.10156.04297.04688-.07421.05859-.08594.07422-.07422.07031-.07422.10547.04297.07422.07422.0586.08984.04296.10156.04688.10547.04296.10547.1211.02735.11719-.02735.07421-.08984.04297-.10547.0586-.08985.07422-.07421.10546-.04297.1172-.02735.1328.01172.08985.0586.14844.14843.05859.08985.04297.10547.04687.10156.04297.10547.04297.10156.10547.04688.10547.04296.13281.01563.08594-.0586.0586-.08984.07421-.07422.10547-.04297.11719.02735.10547.04687.10156.04297.10547.04297.10156.04688.17969.11718v.11719l-.01563.13281.01563.13281.01562.13672.0586.08594.10156.04688.1211.02734.11718.03125h.14844l.11719-.03125.05859-.08984.17969-.1172.05859-.08983.07422-.07422.0586-.08594.11718-.17969.17969-.11719.11719.03125.08984.0586.04297.07422-.01563.1328v.1172l.08985.05859h.14843l.13282-.01563.1328-.01171.26563-.03125.10547-.04297.11719-.03125.1211-.02735.07421-.07421.07031-.07422.0625-.08985-.01562-.10547-.04688-.10156-.10156-.04297-.10547-.01562-.11718.02734-.26563.03125h-.14844l-.07421-.07422-.08985-.0586-.11719-.03124-.11718-.02735-.13282-.01562h-.14843l-.13282.01563h-.29687l-.10547-.04688-.14844-.14844-.04297-.10156-.05859-.08984.22266-.22266.08593-.0586.10547-.04296.11719-.03125.13281-.01563.13281.01563.13672.01562.10157.04297.1328-.01172.08985-.0625.10156-.04297.0625-.08984-.04687-.10156-.08984-.0586-.1172-.03125-.10155-.04296-.0586-.08985-.0625-.08984v-.11719l.01563-.13281.10547-.04688.07421-.07031v-.1211l-.08984-.05859-.03125-.11719.08985-.05859.07421-.07422.04297-.10547.0586-.08984.04687-.10156.01563-.13281v-.14844l-.04688-.10547-.04297-.10156-.08984-.0586-.13281-.01562-.10157-.04297-.13671-.01563-.1172-.03125h-.4453l-.13282-.01562-.13281-.01172-.13281-.01563-.11719-.03125h-.14844l-.13281-.01562-.13281-.01172-.26563-.03125-.1211-.04297-.08593-.0586-.07422-.07421v-.14844l.01172-.13281.10547-.04688.10156-.04296.13281-.01563h.15235l.13281-.01562h.29297l.1211.03125.10156.04296.08984.0586.23438.0625.12109-.04688.08984-.05859.10156-.04297.13282-.01562.10547.04296.10156.04688.13281.01172.1211-.02735h.14453l.12109-.03125.11719-.02734.10547-.04687.07421-.07422.08594-.0586.14844-.14843.0586-.08594.04687-.10547.02734-.11719.01563-.10547-.10156-.04296-.08985-.0586-.11719-.03125-.10546-.04297-.08985-.0625-.07422-.08594-.07422-.07421-.10156-.04297-.10547-.04688-.10156-.04297-.0586-.08984-.04687-.10156-.08594-.21094-.0625-.08594-.05859-.08984-.07422-.07422-.08594-.0586h-.26953l-.11719.03126-.08984.05859-.10156.04297-.13281.01562-.10547-.01562-.02735-.11719-.0625-.08984-.11718-.03125-.10157-.04297-.14843-.14844-.03125-.11719-.01563-.10546.07422-.07422.17969-.1172.11719-.02733.11718-.03125.13672.01562.10156.04297.10547.04297.10156.04687.10547.04297.1172.03125.1328.01563.1172.02734.1328.01563.10547-.01563.08985-.0586-.07422-.07421-.10547-.04297-.07422-.07422-.07422-.08984-.14844-.14844-.08593-.0586-.08985-.05859-.07422-.07422-.08984-.0586-.10156-.04687-.1211-.02734-.10156-.04688-.10547-.04296-.11719-.03125-.10156-.04297-.1211-.03125h-.14843l-.11719.03125-.10546.04297-.08594.0625-.17969.11718-.08594.0586-.08984.0586-.10547.04687-.08594.05859-.10547.04297-.10156.04297-.10547.04687-.07422.07422-.05859.08985-.0586.08593-.04687.10547-.0586.08594-.07421.07422-.13281-.01172-.1172-.03125h-.11718l-.07422.07422-.08984.0586-.07422.07421-.08984.0586-.08594.05859-.10547.04687-.10156.04297-.13672.01563-.10156-.04297-.14844-.14844-.10547-.04688h-.08594l-.10547.04688-.10156.04297-.1211.03125-.11718-.03125-.07422-.07422v-.11719l.03125-.1211.07422-.0703.0586-.08985.07421-.07422.11719-.03125.10547-.04296h.29297l.13281-.01563.13672-.01563.10156-.04296.08985-.0586.10156-.04687.08984-.0586.13281-.01171.08985.05859.13281.01172.08984-.0586.08594-.05859.10547-.04297.08984-.0586.08594-.0625.08985-.05859.14843-.14843.0586-.08594.05859-.08985.10547-.04296.13281-.01563.11719.02735.1211.03125.05859-.0586.05859-.08984.03125-.26563.02734-.11719.10547.01172.13281.01563.10157-.04297.08984-.0586.0586-.08984.07421-.07422.0586-.08984.04687-.10156.01172-.13281-.01172-.13282-.04687-.10547-.14844-.14843-.0586-.08985-.05859-.08594-.04297-.10546v-.44532l.01563-.1328v-.14845l.01172-.1328-.0586-.0586-.08984.0586-.10156-.04298-.17969-.11719-.08594-.05859-.0625-.08984-.0586-.08985-.07421-.07421-.08594-.0586-.1211.03125-.10155.01172-.10547.04688-.08594.05859-.10547.04297-.14844.14844-.08984.05859-.08594.0586-.08984.0625-.10547.04296-.13281.01563v-.1211l.10547-.04297.11718-.03125.07422-.0703.04297-.10548v-.14844l-.02734-.11718-.14844-.14844-.13281-.01563h-.14844l-.11719.03125-.10547.04297-.10156.04297-.08984.0625-.11719.02735-.07422-.07422.01172-.13281-.04297-.10157-.04297-.10547-.08984-.05859-.11719.02734-.1211.03125-.11718.03125-.10156.04297-.1211.03125-.10156.04297-.10547.04297-.08984.0586-.10156.01562v-.11719l.01562-.13281-.0586-.08985-.07421.04297-.14844.14844-.0586.08985-.07421.07421-.04688.10547-.04296.10156-.07422.07422-.0586.08985-.07422.07422-.05859.08593-.07422.07422-.08984.0625-.07422.07031-.07422.07422-.10156.01563-.13281.01562-.10547-.04296v-.1211l.14843-.14844.04297-.10156.0586-.08984.04687-.10156.04297-.10547.0586-.08985.03124-.11719.04297-.10156.03125-.1211.02735-.11718.04687-.10547.04297-.10156.04297-.10547.07422-.07031.08984-.0625.08985-.0586.10156-.04296h.29687l.26563-.03125.10547-.04297-.07422-.07422-.11719-.03125-.10547-.04297-.08984-.0586-.10156-.04687-.08985-.0586-.10156-.04296-.10547-.04297-.08984-.0625-.08594-.0586-.10547-.04296-.10156-.04297-.1211-.03125-.11718-.03125-.10157-.04297L297.5 410.25l-.10156-.04297-.08985-.0586-.04296-.10546-.01563-.13281.10156-.04297.13281-.01563.13672.01563.13282-.01563.10156-.04297.0586-.08984.01562-.10547-.08985-.0586-.07421-.07421-.10157-.04297-.08984-.0586-.14844-.14843-.04297-.10547-.01562-.13281v-.29297l-.0586-.08985-.08984-.05859-.07422-.07422-.04297-.10547-.03125-.11718-.0586-.08985-.07421-.07422-.11719-.02734-.07422-.07422-.08984-.0586-.08984-.0625-.08594-.05859-.07422-.07421-.0586-.08594-.04687-.10547-.08594-.0586-.14843-.14843-.19532-.0586-.1328.01563-.10157.04297-.07422.07422-.04688.10156-.04296.10547-.0586.08984-.0586.08594-.29687.29687-.08984.0586h-.08594l-.0625-.08594-.04297-.10547.03125-.11719.0586-.08984.02734-.11719-.01172-.13281-.08984-.0625-.10547.04688-.11719.02734-.11719.03125-.26953.17578-.10156.04688-.11719.02734-.10546.04687-.08985.0586-.10156.04297-.0586-.08594-.04687-.10547.01563-.13281.04687-.10547.07031-.07422.07422-.07031.0586-.08985v-.14843l-.04297-.10547h-.23829l-.10156.04687-.03125.11719-.02734.11719-.03125.1211-.07422.04296-.13281.01563-.07422-.04688-.04297-.10156-.04297-.10547-.04687-.10156-.04297-.10547-.1211.03125-.10156.04297-.13281.01562-.11719.03125-.10547.04297-.08984.0586-.10156.04687-.1211.02734-.13281.01563-.10156-.04297-.0586-.08985-.04687-.10546-.04297-.10157-.04297-.10546v-.1172l.0586-.08984.08593-.05859.17969-.11719.10156-.04687.10547-.04297.10547-.0586.10156-.04296.08985-.0625.10156-.04297.10547-.0586.10156-.04687.08984-.0586.10547-.04296.10156-.04297.08985-.0625.10156-.04297.13672-.01563.11719.03125.10156.04297.1211.03125.10156.04297.10546.04688.10157.04296.10547.04297.10156.04688.10547.04297.10156.04297.10547.04687.08594.0586.10546.04296.1172.03125.10546.04297.10156.04688.08985.0586.10547.04296.10156.04297.10547.04687.11719.02735.10156.04687.1211.02735h.14843l.08594-.0586.01562-.10156.0586-.08984-.02735-.1172-.07422-.07421-.11719-.17969-.07421-.07422-.08985-.07421-.17969-.1172-.08593-.05859-.10547-.04296-.10156-.04688-.26954-.17578-.05859-.08985-.07422-.07421-.0586-.08985-.04296-.10156-.03125-.11719-.01563-.13672v-.5625l-.01171-.1328-.01563-.13282-.03125-.11719-.01562-.13281-.01172-.13281-.03125-.1211-.22266-.22265-.0586-.08594-.01562-.10547.03125-.11719.13281-.01562v-91.41406H172.9922v1.45312l-.0586.23438-.35156 1.05078-.17187.52343-.1172.34766-.17577.41016-.11719.17187-.23438.29297-.23046.0586h-.35157l-.11718.05859-.23047.40625v.29297l.11719.17578.23046.23047.1172.23437.64062.75781.29297.46485.17578.23437.23047.35156.23437.34766.64063.8164.17578.46485.17187.41016.11719.69531.17578.46875.11719 1.39844.0586.46484v.875l.11718 1.04688v4.78125l-.0586.46484-.35156 1.28125-.17578.52344-.11328.41015-.35156.9297L172.93359 336l-.23437.58203-.11719.17578-.17187.34766-.17578.40625-.35157.8164-.0586.29297-.11327.29297-.11719.28906-.0586.17579-.11718.875-.0586.40625-.05859.11718-.0586.17579-.05859.17187-.23047.52734-.11718.17188v.23437l-.11719.23438-.0586.17187-.17577.58594v.28906l-.0586.17579v.29296l-.0586.11329-.05859.52734v.17187l-.05468.23438v2.6211l-.17578.8164-.1172.17578-.17577.23438-.1172.17187-.11327.23438-.58594.93359-.23047.28906-.29297.46485-.17578.23437-.28906.35156-.35156.69922-.11328.23047-.17579.41016-.17578.23046-.40625.52735-.8164.69922-.29297.17187-.28906.23438-.17579.11719-.17578.17578-.52344.40625-.52734.17578-.17187.17578-.23438.05469-.64062.17578h-.75782m12.21094 31.02344l-1.07422.44921.35938.89454 1.25-.71485.44531-.53906-.98047-.08985"/><path fill="#d3d3d3" fill-opacity="0" fill-rule="evenodd" d="M201.50781 416.59766h-.89453l.44922.6289.98047.35938.80469-.08985.4453-.98828-.17577.08985-.71485-.35547-.89453.35547m154.6211 59.0703l-.0586-.52343v-.29297l.11328-.29297.0586-.23046.46875-.46875h.11328l.11719-.11329.11718-.05859h.17579l.23437-.0586h.34766l.23437.0586.11719.0586.23047.17187.0586.17578.11718.58203v.29297l-.11719.17578-.17187.28906-.17579.17579-.52734.52343-.23047.23438-.11719.0586h-.17578l-.11718-.0586-.40625-.29297-.17579-.11719-.11718-.0586-.0586-.11327-.05468-.1172m6.64062-10.95702l-.0586-.17188v-1.10937l.0586-.17188.17578-.0586.17188-.05858h.17578l.23437-.0586.1172.0586.05858.69921-.05859.17188-.11719.17578-.11718.0586-.23438.52343-.11328.0586h-.23438l-.05859-.1172m9.61328-14.39062l-.11719-.17578v-.69922l.29297-.875.1172-.17187.17577-.35156.11328-.23047.1172-.29297.35155-.75781.1172-.23047.17187-.23438h.17578l.11719-.0586h.64062l.11719.0586.23437.23438.17188.11328.35156.29297.11719.11718.11328.17579v.11328l.11719.05859.11718.11719v.69922l-.05859.17578v.23047l-.0586.17578-.34765 1.05078-.11719.23047-.11719.23437-.11718.0586-.23047.23437-.64063.28906h-.875l-.41015-.11718-.64063-.46485"/><path fill="none" stroke="#bebebe" stroke-linecap="round" stroke-linejoin="round" stroke-miterlimit="10" stroke-width=".5" d="M467.95703 311.69531H144.02734v168.625h323.9297v-168.625"/><g clip-path="url(#a)"><path fill="#fff" fill-opacity="0" fill-rule="evenodd" d="M144 475.89063v4.4375h.0039H144V311.67188h.0039H144v164.21875"/></g><g clip-path="url(#b)"><path fill="#fff" fill-opacity="0" fill-rule="evenodd" d="M144.0039 480.32813V311.67188h22.1875V430.0664l-1.5039 1.4414-.95313 4.4375-1.98046 2.20313-.90625 2.23437-.86328 4.4375.32421 4.4414-.48047 4.4375 1.92579 2.4375 3.76562-2.4375.59766-4.4375-.55469-4.4414.6289-.99219 4.4375-.53515 2.00391-2.91016 2.4336-2.33984 1.625-2.09766-1.625-2.77344-4.4375-.9375-.26953-.72656-4.16797-1.4414V311.67187h17.7539v130.76954l-2.01562 2.3789-2.42188 3.29297-2.10156 1.14844 2.10156 1.0039 4.4375-.86718.11328-.13672 2.76563-4.4414-2.8789-2.37891V311.67187h26.6289v120.8086l-4.4375 2.6914-.59375.77344-2.46094 4.4375-1.38281 2.78906-2.01563 1.64844 2.01563 2.0625 4.4375 1.34375 2.46484 1.03516 1.97266.64844 1.67969-.64844 2.5625-4.4414-1.04688-4.4375 1.2461-.96485 2.3164-3.47266-2.3164-2.6289-4.44141-.83594v-120.8086h8.8789v112.46875l-2.93359 2.9297 2.9336 3.73046 4.33593.70703.10156.02344 4.4375.72656.89063 3.6875 3.54688 3.14063 3-3.14063-3-3.30078-3.86329-1.13672-.57422-.45703-4.4375.41016-1.27343-4.39063-3.16406-2.92969V311.67188h22.1914v125.85547l-3.03125 2.85547 3.03125 2.83203 4.4375-2.6328.20703-.19923-.20703-.20312-4.4375-2.65235V311.67188h133.14844v132.82421l-.61328.32422.3086 4.4414.30468.21876.28515-.21875.33204-4.4414-.6172-.32423V311.67188h8.87892v140.46484l-1.6875 1.5625.0625 4.4375.85546 4.4375.76954.86719 4.4375 2.96093.92578.61329 3.51171 3.3203 2.8125-3.3203-2.20703-4.44141-.09375-4.4375-.51171-.88672-4.4375-2.10547-2.07032-1.44531-2.36719-1.5625V311.67187h84.32422v168.65625h-71.51562l-3.9336-3.8125-4.4375-.22656-3.57421 4.03906H144.0039"/></g><path fill="#50fcfc" fill-rule="evenodd" d="M161.7539 456.13672l-1.92577-2.4375.48046-4.4375-.32422-4.4414.86329-4.4375.90625-2.23438 1.98047-2.20313.95312-4.4375 1.5039-1.4414 4.16798 1.4414.26953.72656 4.4375.9375 1.625 2.77344-1.625 2.09766-2.4336 2.33984-2.0039 2.91016-4.4375.53515-.62891.9922.55469 4.4414-.59766 4.4375-3.76562 2.4375m17.7539-5.8711l-2.10156-1.0039 2.10156-1.14844 2.42188-3.29297 2.01562-2.3789 2.8789 2.3789-2.76562 4.4414-.11328.13673-4.4375.86719m22.1914-3.38282l-2.01562-2.0625 2.01563-1.64844 1.38281-2.78906 2.46094-4.4375.59375-.77344 4.4375-2.6914v3.14453l-.4375.32031.4375.4961.54687-.4961-.54687-.32031v-3.14453l4.4414.83594 2.31641 2.6289-2.3164 3.47266-1.2461.96484 1.04688 4.4375-2.5625 4.4414-1.6797.64845-1.97265-.64844-2.46484-1.03516-4.4375-1.34375"/><path fill="#00e8fc" fill-rule="evenodd" d="M210.57422 436.4414l-.4375-.49609.4375-.32031.54687.32031-.54687.4961"/><path fill="#50fcfc" fill-rule="evenodd" d="M219.45313 430.80078l-2.9336-3.73047 2.9336-2.92969 3.16406 2.9297 1.27344 4.39062 4.4375-.41016.57421.45703 3.86328 1.13672v3.21094l-.09765.08984.09766.08594.08203-.08594-.08203-.08984v-3.21094l3 3.30078-3 3.14063-3.54688-3.14063-.89063-3.6875-4.4375-.72656-.10156-.02344-4.33594-.70703"/><path fill="#00e8fc" fill-rule="evenodd" d="M232.76563 436.03125l-.09766-.08594.09766-.08984.08203.08984-.08203.08594"/><path fill="#50fcfc" fill-rule="evenodd" d="M241.64453 443.21484l-3.03125-2.83203 3.03125-2.85547v2.53516l-.33984.32031.33984.3164.50781-.3164-.5078-.32031v-2.53516l4.4375 2.65235.20702.20312-.20703.19922-4.4375 2.63281"/><path fill="#00e8fc" fill-rule="evenodd" d="M241.64453 440.69922l-.33984-.3164.33984-.32032.50781.32031-.5078.3164"/><path fill="#50fcfc" fill-rule="evenodd" d="M374.48828 449.26172l-.3086-4.4414.61329-.32423.61719.32422-.33204 4.4414-.28515.21876-.30469-.21875m7.5586 8.875l-.0625-4.4375 1.6875-1.5625 2.36718 1.5625 2.07031 1.44531 4.4375 2.10547.51172.88672.09375 4.4375 2.20704 4.4414-2.8125 3.32032-3.51172-3.32031-.92579-.61329-4.4375-2.96093-.76953-.8672-.85546-4.4375"/><g clip-path="url(#c)"><path fill="#50fcfc" fill-rule="evenodd" d="M384.53516 480.32813h1.64062l1.9336-2.1836 4.4375-.34375 2.60937 2.52735h1.32422l-3.9336-3.8125-4.4375-.22657-3.57421 4.03906"/></g><g clip-path="url(#d)"><path fill="#00e8fc" fill-rule="evenodd" d="M386.17578 480.32813l1.9336-2.1836 4.4375-.34375 2.60937 2.52735h-2.21094l-.39844-.38672-1.6914.38671h-4.67969"/></g><g clip-path="url(#e)"><path fill="#00d4fc" fill-rule="evenodd" d="M390.85547 480.32813l1.6914-.38672.39844.38671h-2.08984"/></g><g clip-path="url(#f)"><path fill="#fff" fill-opacity="0" fill-rule="evenodd" d="M467.9961 480.32813H468V311.67188h-.0039H468v168.65625h-.0039"/></g><g clip-path="url(#g)"><path fill="none" stroke="#000" stroke-linecap="round" stroke-linejoin="round" stroke-miterlimit="10" stroke-width=".5" d="M147.42188 479.52734l-6.84375 1.60157"/></g><g clip-path="url(#h)"><path fill="none" stroke="#000" stroke-linecap="round" stroke-linejoin="round" stroke-miterlimit="10" stroke-width=".5" d="M147.42188 479.52734l1.61328 1.84766"/></g><g clip-path="url(#i)"><path fill="none" stroke="#000" stroke-linecap="round" stroke-linejoin="round" stroke-miterlimit="10" stroke-width=".5" d="M160.75781 479.6289l-6.88672 1.40235"/></g><g clip-path="url(#j)"><path fill="none" stroke="#000" stroke-linecap="round" stroke-linejoin="round" stroke-miterlimit="10" stroke-width=".5" d="M160.75781 479.6289l1.5625 1.89063"/></g><g clip-path="url(#k)"><path fill="none" stroke="#000" stroke-linecap="round" stroke-linejoin="round" stroke-miterlimit="10" stroke-width=".5" d="M174.01172 479.3711l-6.76172 1.91406"/></g><g clip-path="url(#l)"><path fill="none" stroke="#000" stroke-linecap="round" stroke-linejoin="round" stroke-miterlimit="10" stroke-width=".5" d="M174.01172 479.3711l1.69922 1.76952"/></g><g clip-path="url(#m)"><path fill="none" stroke="#000" stroke-linecap="round" stroke-linejoin="round" stroke-miterlimit="10" stroke-width=".5" d="M187.29297 479.25781l-6.69531 2.14453"/></g><g clip-path="url(#n)"><path fill="none" stroke="#000" stroke-linecap="round" stroke-linejoin="round" stroke-miterlimit="10" stroke-width=".5" d="M187.29297 479.25781l1.75781 1.71094"/></g><g clip-path="url(#o)"><path fill="none" stroke="#000" stroke-linecap="round" stroke-linejoin="round" stroke-miterlimit="10" stroke-width=".5" d="M200.60156 479.24219l-6.6836 2.17578"/></g><g clip-path="url(#p)"><path fill="none" stroke="#000" stroke-linecap="round" stroke-linejoin="round" stroke-miterlimit="10" stroke-width=".5" d="M200.60156 479.24219l1.76563 1.70312"/></g><g clip-path="url(#q)"><path fill="none" stroke="#000" stroke-linecap="round" stroke-linejoin="round" stroke-miterlimit="10" stroke-width=".5" d="M213.98828 479.5l-6.82812 1.66016"/></g><g clip-path="url(#r)"><path fill="none" stroke="#000" stroke-linecap="round" stroke-linejoin="round" stroke-miterlimit="10" stroke-width=".5" d="M213.98828 479.5l1.63281 1.83203"/></g><g clip-path="url(#s)"><path fill="none" stroke="#000" stroke-linecap="round" stroke-linejoin="round" stroke-miterlimit="10" stroke-width=".5" d="M227.14453 479l-6.50781 2.65625"/></g><g clip-path="url(#t)"><path fill="none" stroke="#000" stroke-linecap="round" stroke-linejoin="round" stroke-miterlimit="10" stroke-width=".5" d="M227.14453 479l1.88281 1.57422"/></g><g clip-path="url(#u)"><path fill="none" stroke="#000" stroke-linecap="round" stroke-linejoin="round" stroke-miterlimit="10" stroke-width=".5" d="M226.19531 479.38672l.94531.78515"/></g><g clip-path="url(#v)"><path fill="none" stroke="#000" stroke-linecap="round" stroke-linejoin="round" stroke-miterlimit="10" stroke-width=".5" d="M240.34766 478.7539l-6.28125 3.14844"/></g><g clip-path="url(#w)"><path fill="none" stroke="#000" stroke-linecap="round" stroke-linejoin="round" stroke-miterlimit="10" stroke-width=".5" d="M240.34766 478.7539l2 1.42188"/></g><g clip-path="url(#x)"><path fill="none" stroke="#000" stroke-linecap="round" stroke-linejoin="round" stroke-miterlimit="10" stroke-width=".5" d="M239.4336 479.21094l1 .71094"/></g><g clip-path="url(#y)"><path fill="none" stroke="#000" stroke-linecap="round" stroke-linejoin="round" stroke-miterlimit="10" stroke-width=".5" d="M253.6836 478.80078l-6.32813 3.05469"/></g><g clip-path="url(#z)"><path fill="none" stroke="#000" stroke-linecap="round" stroke-linejoin="round" stroke-miterlimit="10" stroke-width=".5" d="M253.6836 478.80078l1.98046 1.45313"/></g><g clip-path="url(#A)"><path fill="none" stroke="#000" stroke-linecap="round" stroke-linejoin="round" stroke-miterlimit="10" stroke-width=".5" d="M267.16797 479.21484l-6.66406 2.23047"/></g><g clip-path="url(#B)"><path fill="none" stroke="#000" stroke-linecap="round" stroke-linejoin="round" stroke-miterlimit="10" stroke-width=".5" d="M267.16797 479.21484l1.78125 1.6875"/></g><g clip-path="url(#C)"><path fill="none" stroke="#000" stroke-linecap="round" stroke-linejoin="round" stroke-miterlimit="10" stroke-width=".5" d="M280.42969 479.0664l-6.5586 2.52735"/></g><g clip-path="url(#D)"><path fill="none" stroke="#000" stroke-linecap="round" stroke-linejoin="round" stroke-miterlimit="10" stroke-width=".5" d="M279.47656 479.4336l.92578.80468"/></g><g clip-path="url(#E)"><path fill="none" stroke="#000" stroke-linecap="round" stroke-linejoin="round" stroke-miterlimit="10" stroke-width=".5" d="M293.60938 478.75781l-6.28516 3.14063"/></g><g clip-path="url(#F)"><path fill="none" stroke="#000" stroke-linecap="round" stroke-linejoin="round" stroke-miterlimit="10" stroke-width=".5" d="M292.69531 479.21484l1 .71094"/></g><g clip-path="url(#G)"><path fill="none" stroke="#000" stroke-linecap="round" stroke-linejoin="round" stroke-miterlimit="10" stroke-width=".5" d="M306.91406 478.73828l-6.26562 3.17969"/></g><g clip-path="url(#H)"><path fill="none" stroke="#000" stroke-linecap="round" stroke-linejoin="round" stroke-miterlimit="10" stroke-width=".5" d="M306.0039 479.20313l1.00391.70312"/></g><g clip-path="url(#I)"><path fill="none" stroke="#000" stroke-linecap="round" stroke-linejoin="round" stroke-miterlimit="10" stroke-width=".5" d="M320.46875 479.34375l-6.7461 1.96875"/></g><g clip-path="url(#J)"><path fill="none" stroke="#000" stroke-linecap="round" stroke-linejoin="round" stroke-miterlimit="10" stroke-width=".5" d="M319.48828 479.63281l.85547.8789"/></g><g clip-path="url(#K)"><path fill="none" stroke="#000" stroke-linecap="round" stroke-linejoin="round" stroke-miterlimit="10" stroke-width=".5" d="M332.59375 483.08203l-4.36328-5.50781"/></g><g clip-path="url(#L)"><path fill="none" stroke="#000" stroke-linecap="round" stroke-linejoin="round" stroke-miterlimit="10" stroke-width=".5" d="M341.04688 482.60156l5.35937-4.54687"/></g><g clip-path="url(#M)"><path fill="none" stroke="#000" stroke-linecap="round" stroke-linejoin="round" stroke-miterlimit="10" stroke-width=".5" d="M354.7539 482.9961l4.57423-5.33204"/></g><g clip-path="url(#N)"><path fill="none" stroke="#000" stroke-linecap="round" stroke-linejoin="round" stroke-miterlimit="10" stroke-width=".5" d="M367.8711 482.8125l4.96874-4.96875"/></g><g clip-path="url(#O)"><path fill="none" stroke="#000" stroke-linecap="round" stroke-linejoin="round" stroke-miterlimit="10" stroke-width=".5" d="M380.78125 482.32422l5.78125-3.99219"/></g><g clip-path="url(#P)"><path fill="none" stroke="#000" stroke-linecap="round" stroke-linejoin="round" stroke-miterlimit="10" stroke-width=".5" d="M380.78125 482.32422l-2.17969-1.1289"/></g><g clip-path="url(#Q)"><path fill="none" stroke="#000" stroke-linecap="round" stroke-linejoin="round" stroke-miterlimit="10" stroke-width=".5" d="M394.41016 482.71875l5.15234-4.78125"/></g><g clip-path="url(#R)"><path fill="none" stroke="#000" stroke-linecap="round" stroke-linejoin="round" stroke-miterlimit="10" stroke-width=".5" d="M408.5586 483.3789l3.48437-6.10156"/></g><g clip-path="url(#S)"><path fill="none" stroke="#000" stroke-linecap="round" stroke-linejoin="round" stroke-miterlimit="10" stroke-width=".5" d="M422.08984 483.49219l3.05079-6.32813"/></g><g clip-path="url(#T)"><path fill="none" stroke="#000" stroke-linecap="round" stroke-linejoin="round" stroke-miterlimit="10" stroke-width=".5" d="M436.64844 483.83203l.5664-7.0039"/></g><g clip-path="url(#U)"><path fill="none" stroke="#000" stroke-linecap="round" stroke-linejoin="round" stroke-miterlimit="10" stroke-width=".5" d="M449.97266 483.83203l.54687-7.00781"/></g><g clip-path="url(#V)"><path fill="none" stroke="#000" stroke-linecap="round" stroke-linejoin="round" stroke-miterlimit="10" stroke-width=".5" d="M464.3711 483.7461l-1.6211-6.83594"/></g><g clip-path="url(#W)"><path fill="none" stroke="#000" stroke-linecap="round" stroke-linejoin="round" stroke-miterlimit="10" stroke-width=".5" d="M147.46094 466.40234l-6.92188 1.22266"/></g><path fill="none" stroke="#000" stroke-linecap="round" stroke-linejoin="round" stroke-miterlimit="10" stroke-width=".5" d="M147.46094 466.40234l1.51172 1.9336m-2.51953-1.75782l.7539.96875m13.54297-1.27343l-6.8711 1.48047m6.8711-1.48047l1.58203 1.875m-2.58203-1.66016l.79297.9375m13.48437-1.30078l-6.79687 1.77734m6.79687-1.77734l1.66407 1.80078m-2.65235-1.54297l.83203.90235m13.35938-1.52344l-6.57031 2.5039m6.5703-2.5039l1.84767 1.61719m-2.8047-1.25391l.92188.8086m13.33594-1.20313l-6.54297 2.5664m6.54297-2.5664l1.86328 1.59765m11.46094-1.57812l-6.5586 2.52734m6.5586-2.52734l1.85156 1.60937m-2.8086-1.24218l.9297.80468m13.10546-1.66406l-6.08593 3.51172m6.08593-3.51172l2.08203 1.29688m-2.96875-.78516l1.04297.64844m12.97657-1.44531l-5.72266 4.08203m5.72266-4.08203l2.1953 1.09765m-3.02733-.5039l1.09765.54687m13.16797-.96484l-5.95703 3.73047m5.95703-3.73047l2.125 1.22656m-2.99219-.6836l1.0625.61329m13.1875-1.03907l-6.09375 3.4961m6.09375-3.4961l2.07813 1.3047m-2.96485-.79688l1.03907.65234m13.22265-1.05078l-6.21484 3.27734m6.21484-3.27734l2.03125 1.3789m-2.9336-.90234l1.01173.6875m12.98828-1.52343l-5.77735 3.99609m5.77735-3.9961l2.17969 1.125m10.68359-1.66015l-4.875 5.0664m4.875-5.0664l2.35937.67578m10.65625-.92969l-4.27734 5.57422m3.65234-4.76562l1.21094.20312m12.55078-1.14062l-3.92187 5.83203m3.35156-4.98438l1.21875.1289m12.03516-1.3125l-2.65625 6.50392m2.26953-5.5586l1.21875-.125m11.63281-1.05078l-.95703 6.96484m10.64062-5.03125l6.3086 3.09766m6.64844-1.61328l7.02343.1289m-6.0039-.10937l-.55469-1.09375m12.89453 1.70703l6.9336-1.13672m-6.9336 1.13672l-1.48828-1.95312m15.07422 2.84765l6.39062-2.92578m-6.39062 2.92578l-1.94922-1.48828m16.08594 2.61719l4.7461-5.1836m-4.7461 5.1836l-2.375-.61328m16.52734 1.17969l3.07422-6.31641m-3.07422 6.3164l-2.45312.08594m2.89843-1.0039l-1.22656.04297m14.90234 1.15234l1.46094-6.8711m-1.46094 6.8711l-2.35546.67969m2.5703-1.6797l-1.17968.33985m14.44922.6914l1.125-6.93358M463 470.48047l-2.32422.79297"/><g clip-path="url(#X)"><path fill="none" stroke="#000" stroke-linecap="round" stroke-linejoin="round" stroke-miterlimit="10" stroke-width=".5" d="M147.44531 453.0039l-6.89062 1.39063"/></g><path fill="none" stroke="#000" stroke-linecap="round" stroke-linejoin="round" stroke-miterlimit="10" stroke-width=".5" d="M147.44531 453.0039L149 454.90235m11.8164-1.47656l-7.0039.54688m7.0039-.54688l1.32032 2.0664m11.8789-2.73437l-6.76953 1.8789m6.76953-1.8789l1.6875 1.78125m11.54297-2.04687l-6.60156 2.41406m6.60156-2.41406l1.82422 1.64062m11.32422-2.01953l-6.26953 3.17188m6.26953-3.17188l2.00781 1.41016m11.14453-1.70313l-5.9414 3.7539m5.9414-3.7539l2.12891 1.21875m-2.9961-.67187l1.06641.60937m12.85157-1.51953l-5.41407 4.48047m5.41407-4.48047l2.26953.9375m-3.0586-.28515l1.13672.46875m12.73828-1.3711l-4.95312 4.98438m4.95312-4.98438l2.34766.71094m-3.07031.01172l1.17578.35547m13.0586-.8672l-5.34766 4.5625m5.34765-4.5625l2.28125.90235m-3.0625-.23828l1.14453.44922m12.96094-1.10156l-5.36719 4.53515m5.3672-4.53515l2.27734.91406m-3.0586-.2539l1.14063.45702m12.85937-1.22656l-5.17578 4.75781m5.17578-4.7578l2.3125.8164m-3.0664-.125l1.15625.41015m13.0039-.99609l-5.35547 4.54688m5.35547-4.54688l2.28125.90235m-3.0625-.2422l1.14063.45313m12.55859-1.51172L301.5 456.3711m4.5625-5.34375l2.39453.53125m-3.0586.2461l1.19923.26562m12.64453-1.15625l-4.29297 5.5664m4.29297-5.5664l2.41797.41016m-3.04297.40234l1.21094.20313m12.90625-.86719l-4.64844 5.26953m4.64844-5.26953l2.38671.57031m11.21094-.28906l-5.21094 4.71094m5.21094-4.71094l2.3086.83203m10.82421-1.01953l-4.84765 5.08594m4.84765-5.08594l2.36329.66016m-3.07032.07812l1.1836.33203m12.08203-1.6211l-3.33203 6.1875m3.33203-6.1875l2.45312.01173M382 450.60547l3.33984 6.1836M382 450.60546l1.35938-2.04297m10.5625 3.41797l6.1289 3.4336m-6.1289-3.4336l.05078-2.45313m13.11328 2.75l6.42969 2.83985m-6.4297-2.83985l-.17577-2.4453m13.6875 2.0703l6.03906 3.59375m-6.03906-3.59375l.11718-2.44922m13.53125 1.98047l5.3711 4.53125m-4.58985-3.87109l.25782-1.19922m12.67187.13672l4.57813 5.33203m9.20312.33985l3.64453-6.00782m-3.64453 6.00781l-2.44922-.14062m2.98047-.73438l-1.22656-.0703"/><g clip-path="url(#Y)"><path fill="none" stroke="#000" stroke-linecap="round" stroke-linejoin="round" stroke-miterlimit="10" stroke-width=".5" d="M147.48828 440.79297l-6.97656-.82031"/></g><path fill="none" stroke="#000" stroke-linecap="round" stroke-linejoin="round" stroke-miterlimit="10" stroke-width=".5" d="M147.48828 440.79297l.89063 2.28906m12.43359-2.3711l-6.9961-.65234m6.9961.65235l.94531 2.26172m12.3789-2.81641l-7.01171.45312m7.01172-.45312l1.28906 2.08594m12.01953-2.16016l-7 .60156m7-.60156l1.33203 2.0625m-2.35156-1.97266l.66797 1.02735m13.54688-1.77735l-6.75782 1.92579m6.75781-1.92579l1.69922 1.76563m-2.68359-1.48828l.85156.88672m13.26953-1.64844l-6.40234 2.89062m6.40234-2.89062l1.94141 1.5m-2.8711-1.07813l.96876.75m12.90234-1.80859l-5.65625 4.16797m5.65625-4.16797l2.21484 1.0586m-3.03906-.45313l1.10938.53125m12.66797-1.55469l-4.9336 5.0039m4.9336-5.0039l2.35156.69922m-3.07031.02734l1.17578.35157m13-.92969l-5.21875 4.70312m5.21875-4.70312l2.30859.83594m-3.0664-.15235l1.15234.41797m13.04687-.95703l-5.46875 4.41406m5.46875-4.41406l2.25781.96094m-3.05468-.32031l1.1289.48046m12.76563-1.36328l-5.03516 4.90235m5.03516-4.90235l2.33594.7461m-3.06641-.03516l1.16797.375m12.80469-1.16016l-4.88672 5.05079m4.88672-5.05079l2.35546.67579m-3.0664.05859l1.17578.33984m12.73437-1.18359l-4.65625 5.26562m4.65625-5.26562l2.38672.57422m-3.0664.1914l1.19531.28907m12.85156-1.00782l-4.76172 5.17188m4.76172-5.17188l2.375.6211m-3.07031.13281l1.1875.3086m13.04297-.83594l-5.20313 4.72265m5.20313-4.72265l2.3086.82812m-3.06641-.14062l1.15625.41406m12.65234-1.36719l-4.67188 5.25m4.67188-5.25l2.38281.58203m-3.0625.1836l1.1914.28906m12.73438-1.11328l-4.53515 5.36719m4.53515-5.3672l2.39844.51954m-3.0586.26172l1.19923.25781m11.76171-1.63672l-2.5078 6.5625m2.5078-6.5625l2.4375-.30469m-2.80078 1.25782l1.21875-.14844m10.08985-.85547l2.23437 6.66406m-2.23437-6.66406l1.6875-1.77734M394.40625 438l5.16016 4.76562M394.40625 438l.6211-2.3711m12.92577 2.14063L412.64844 443m-4.69532-5.23047l.84375-2.30469m13.69141 1.58985l2.25781 6.65625m-1.92968-5.6875l.83984-.89063m14.1836-.14453l-1.81641 6.78906m1.8164-6.78906l2.38672-.55469m-2.65234 1.54297l1.19531-.27734m13.63281-.08985l-4.3125 5.55079m4.3125-5.55079l2.41797.41797m-3.04687.39063l2.41797.41797m12.86718 1.22656l-6.99609.64453"/><g clip-path="url(#Z)"><path fill="none" stroke="#000" stroke-linecap="round" stroke-linejoin="round" stroke-miterlimit="10" stroke-width=".5" d="M467.0586 440.0625l1.34765 2.05078"/></g><g clip-path="url(#aa)"><path fill="none" stroke="#000" stroke-linecap="round" stroke-linejoin="round" stroke-miterlimit="10" stroke-width=".5" d="M147.46484 427.64453l-6.92968-1.15234"/></g><path fill="none" stroke="#000" stroke-linecap="round" stroke-linejoin="round" stroke-miterlimit="10" stroke-width=".5" d="M147.46484 427.64453l.78516 2.32422m12.54688-2.4375l-6.96485-.92578m6.96484.92578l.85547 2.30078m12.41407-2.02734l-6.8711-1.47266m6.8711 1.47266l.67187 2.35937m-1.67187-2.57422l.33593 1.1797m14.0547-1.67188l-7.02345-.0586m7.02344.0586l1.13672 2.17578m-2.15625-2.1836l.5664 1.08594m13.6172-2.13672l-6.71876 2.0586m6.71875-2.0586l1.73438 1.73047m11.46094-2.0625l-6.48047 2.72266m5.53515-2.32422l.95313.77344m13.49219-.58594l-6.85157 1.55078m5.85547-1.32422l.80078.92969m12.75391-2.66406l-5.33984 4.5664m5.33984-4.5664l2.28516.89843m10.83203-1.11328l-4.9414 4.9961m4.9414-4.9961l2.35156.70703m11.02734-.64453l-5.0703 4.8711m5.0703-4.8711l2.32813.76563m10.83203-.91406l-4.76172 5.16796m4.76172-5.16796l2.375.62109m10.70313-.82031l-4.28907 5.5664m4.28906-5.5664l2.42188.41015m11.11719-.22265l-4.73438 5.1953m4.73438-5.1953l2.375.60547m11.23047-.3086l-5.3125 4.59766m5.3125-4.59766l2.28906.88281m11.10937-.78125l-5.48437 4.39454m5.48437-4.39454l2.25391.97266m-3.05078-.33203l1.125.48437m12.58984-1.54296l-4.6875 5.23046m4.6875-5.23046l2.38281.58593m-3.0664.17578l1.1914.29297m12.76954-1.08984l-4.61329 5.30078m4.61329-5.30078l2.39062.55469m-3.0625.21875l1.19531.27343m12.36329-1.36718l-3.75391 5.9414m3.7539-5.9414l2.44532.18359m-2.99219.67969l1.22266.09375m11.66015-1.38281l-1.80078 6.79296m1.80078-6.79297l2.39063-.55859m12.61328 1.57813l-5.17578 4.7539m5.17578-4.7539l2.3125.8164m-3.0664-.125l2.3164.8164m11.45703-1.79296l-4.58594 5.32422m4.58594-5.32422l2.39453.54297m-3.0586.23437l2.39063.53907m-3.0586.23437l1.19532.26953m12.77735-2.27734L422 430.1875m3.23438-6.23828l2.45312-.02344m-2.92188.92969l2.45313-.02344m-2.92578.9336l2.45312-.02735m12.83204-.98047l-5.29688 4.6211m5.29688-4.6211l2.29296.8789m-3.0625-.20702l2.29297.8789m-3.0625-.20703l1.14453.4414m13.75-1.73827l-5.375 4.52734m5.375-4.52734l2.27735.91406m-3.0586-.25781l2.27735.91406m-3.0586-.2539l1.13672.45703m14.14063-1.1875l-6.17188 3.35546"/><g clip-path="url(#ab)"><path fill="none" stroke="#000" stroke-linecap="round" stroke-linejoin="round" stroke-miterlimit="10" stroke-width=".5" d="M466.64844 425.39063l2.04687 1.35156"/></g><g clip-path="url(#ac)"><path fill="none" stroke="#000" stroke-linecap="round" stroke-linejoin="round" stroke-miterlimit="10" stroke-width=".5" d="M465.75 425.8789l2.04688 1.35157"/></g><g clip-path="url(#ad)"><path fill="none" stroke="#000" stroke-linecap="round" stroke-linejoin="round" stroke-miterlimit="10" stroke-width=".5" d="M147.48828 413.33984l-6.97656.82813"/></g><path fill="none" stroke="#000" stroke-linecap="round" stroke-linejoin="round" stroke-miterlimit="10" stroke-width=".5" d="M146.47266 413.46094l.69922 1.00781m13.62109-1.22266l-6.95313 1.01563m6.95313-1.01563l1.45312 1.97657m11.89453-1.59375l-7.02343.24609m7.02344-.2461l1.22656 2.125m12.05469-2.5078l-6.95313 1.01171m6.95313-1.01172l1.45312 1.98047m11.6875-2.67968l-6.60156 2.41015m6.60156-2.41015l1.82422 1.64062m10.9414-2.61719l-5.5039 4.36719m4.70312-3.73438l1.125.4922m13.38282 2.625l-6.28907-3.13282m19.48047-.22656l-6.04297 3.58203m5.16407-3.0586l1.05078.63672m12.64453-1.8125l-5.04688 4.89063m4.3125-4.17969l1.16797.3789m13.375-.4453l-6.03125 3.60156m6.03125-3.60157l2.10156 1.26954m10.77735-1.85547l-5.16016 4.77343m5.16016-4.77343l2.3164.8086m-3.0664-.11329l1.15625.40234m12.71484-1.29297l-4.76953 5.16016m4.76953-5.16016l2.3711.625m-3.06641.12891l1.1875.3125m12.6289-1.23047l-4.3828 5.49219m4.3828-5.49219l2.41407.45313m11.46094.10937l-5.50391 4.36719m5.5039-4.36719l2.25.98047m10.59376-1.46875l-4.5625 5.34375m4.5625-5.34375l2.39843.53125m10.19922-1.00781l-3.125 6.29687m3.125-6.29687l2.45313-.07031m12.21484 1.2578l-5.83203 3.91798m5.83203-3.91797l2.16406 1.15625m11.4961-.5039l-6.52344 2.61718m6.52344-2.61719l1.875 1.58203m-2.82422-1.20312l1.875 1.58203m-2.82422-1.19922l.9375.78906m13.91406-2.22656l-5.79687 3.96875m5.79687-3.96875l2.17578 1.13672m-3.01953-.5586l2.17578 1.13673m12.07032-1.58594L394 415.60547m5.97266-3.70703l2.12109 1.23437m-2.99219-.69531l2.1211 1.23437m-2.98829-.6914l1.0586.61328m13.60156-2.21094l-5.1875 4.73828m5.1875-4.73828l2.3125.82422m-3.0664-.13281l2.3125.82422m-3.06641-.13672l1.15625.41406m13.58203-1.88281l-5.01563 4.92187m5.01563-4.92187l2.33984.74219m-3.0703-.02735l2.33983.74219m-3.0703-.02344l1.17187.36719m14.1289-1.11719l-6.0664 3.55078m6.0664-3.55078l2.08594 1.28906m-2.96875-.76953l2.08984 1.28516m-2.97265-.76953l1.04297.64453m14.11328-1.53906l-6.21875 3.27344m6.21875-3.27344l2.02734 1.3789m-2.9336-.90234l2.03126 1.3789m-2.9336-.90234l1.01172.6875m14.10938-1.64843l-6.21094 3.28906"/><g clip-path="url(#ae)"><path fill="none" stroke="#000" stroke-linecap="round" stroke-linejoin="round" stroke-miterlimit="10" stroke-width=".5" d="M466.66797 412.10938l2.03125 1.375"/></g><g clip-path="url(#af)"><path fill="none" stroke="#000" stroke-linecap="round" stroke-linejoin="round" stroke-miterlimit="10" stroke-width=".5" d="M465.76172 412.58594l2.03515 1.3789"/></g><path fill="none" stroke="#000" stroke-linecap="round" stroke-linejoin="round" stroke-miterlimit="10" stroke-width=".5" d="M464.85938 413.0664l1.01562.6875"/><g clip-path="url(#ag)"><path fill="none" stroke="#000" stroke-linecap="round" stroke-linejoin="round" stroke-miterlimit="10" stroke-width=".5" d="M147.01172 398.6289l-6.02344 3.6211"/></g><path fill="none" stroke="#000" stroke-linecap="round" stroke-linejoin="round" stroke-miterlimit="10" stroke-width=".5" d="M146.13281 399.15625l1.05469.6289m13.3086-.83593l-6.36329 2.97656m5.4375-2.54297l.98047.73828m13.17188-1.34765l-6.1875 3.32812m5.28906-2.84375l1.01953.67969m11.28125-2.8086l-2.35938 6.6211m2.01563-5.66016l1.21484-.17578m11.28907-.98828l-.05078 7.02735m.04296-6.00782l1.08594-.5664m15.16016 1.14453l-5.89453 3.82812m5.03515-3.26953l1.07422.59375m13.4414-.47656l-6.57812 2.48047m6.57813-2.48047l1.83984 1.6211m-2.79687-1.26173l.91797.8125m13.42968-.9453l-6.73047 2.02343m6.73047-2.02344l1.72656 1.7461m-2.70703-1.44922l.86328.87109m13.3711-1.35547l-6.60547 2.40235m6.60547-2.40235l1.82031 1.64063m-2.78125-1.29297l1.82031 1.64453m12.6172-1.3711l-6.9297 1.15625m6.9297-1.15625l1.49218 1.94922m-2.5-1.78125l1.49219 1.94922m12.77734-2.3789l-6.82422 1.68359m6.82422-1.6836l1.63672 1.82813m11.1875-2.9414l-5.83985 3.90625m5.83985-3.90625l2.16015 1.16015m-3.01171-.58984l1.08203.57812m13.5625-.08984l-6.79688 1.78906m6.79688-1.78906l1.66406 1.80469m-2.65234-1.54297l.83203.90234m13.48047-1.125l-6.81641 1.71485m6.8164-1.71485l1.64454 1.82031m-2.63672-1.5703l.82422.91015m12.98437-2.27735l-5.8164 3.94532m5.8164-3.94532l2.16797 1.14844m-3.01562-.57422l1.08593.57422m13.6797.92578l-7.02345-.20312m7.02344.20312l1.08984 2.19922m11.35157.02344l-5.27344-4.64453m5.27344 4.64453l-.57032 2.38672m14.7422-5.05469l-6.9922.6875m6.9922-.6875l1.35937 2.04688m11.14453-3.97266l-5.36719 4.53906m5.36719-4.53906l2.27734.91015m-3.0586-.25l2.27735.91016m12.5-.3086l-6.73047 2.01563m6.73047-2.01562l1.72656 1.7461m11.6875-1.32423l-6.92968 1.17188m6.92968-1.17188l1.4961 1.94531m11.26172-3.32812l-5.8164 3.9414m5.8164-3.9414l2.17187 1.14453m-3.01562-.57422l2.16797 1.14844m12.27343-1.22266l-6.3789 2.94922m6.3789-2.94922l1.95313 1.48047m-2.88281-1.05078l1.95703 1.48047m12.29687-1.88672l-6.39844 2.90235m6.39844-2.90235l1.94531 1.4961m-2.875-1.07422l1.94532 1.49609m12.4336-1.57813l-6.66798 2.22266"/><g clip-path="url(#ah)"><path fill="none" stroke="#000" stroke-linecap="round" stroke-linejoin="round" stroke-miterlimit="10" stroke-width=".5" d="M466.89453 399.32813l1.77735 1.6914"/></g><path fill="none" stroke="#000" stroke-linecap="round" stroke-linejoin="round" stroke-miterlimit="10" stroke-width=".5" d="M465.92578 399.65234l1.77735 1.6875m-2.75-1.36718l.89062.84765"/><g clip-path="url(#ai)"><path fill="none" stroke="#000" stroke-linecap="round" stroke-linejoin="round" stroke-miterlimit="10" stroke-width=".5" d="M146.92188 385.16797l-5.84375 3.91015"/></g><path fill="none" stroke="#000" stroke-linecap="round" stroke-linejoin="round" stroke-miterlimit="10" stroke-width=".5" d="M146.07031 385.73828l1.08203.57813m12.63672-1.69141l-4.94531 4.9961m4.22266-4.26954l1.17578.35547m12.14453-1.625l-3.51563 6.08203m3.51563-6.08203l2.45312.08594m11.0547.03125l-3.89845 5.84765m3.89844-5.84765l2.4414.24219m11.01563-.14063l-4.1836 5.64453m4.1836-5.64453l2.42578.36328m12.28516 2.90235l-6.97266-.88672m6.97266.88672l.86719 2.29687m-1.88281-2.42578l.43359 1.14844m13.83984-2.22656l-6.85937 1.52734m6.85937-1.52735l1.59375 1.86329m-2.59375-1.64063l.80078.92969m13.39453-1.5625l-6.62109 2.34765m6.6211-2.34765l1.8125 1.65625m-2.77344-1.3125l1.8086 1.65625m12.51952-1.83985l-6.72656 2.03125m6.72656-2.03125l1.73047 1.73829m-2.70703-1.44532l.86328.8711M267.16406 386l-6.65625 2.2461M267.16406 386l1.78516 1.6836m-2.7539-1.35548l.89452.83985m13.39844-1.13672l-6.67578 2.1836m6.67578-2.1836l1.76953 1.69922m-2.73828-1.38281l.88281.85156m13.40625-1.16016l-6.68359 2.16797m6.6836-2.16797l1.76562 1.70313m-2.73828-1.38672l.88281.85156m13.50781-.77734l-6.89062 1.38672m6.89062-1.38672l1.55469 1.89453m-2.5586-1.6914l.77735.9453m13.48047-1.39453l-6.76953 1.87891m6.76953-1.8789l1.6914 1.78124m-2.67578-1.5078l.84375.89062m13.5-.98047l-6.85937 1.51562m6.85937-1.51562l1.59375 1.86328m-2.58984-1.64453l.79688.9336m13.59765-.25782l-7.02344-.27735m7.02344.27735l1.0625 2.21094m12.25-2.19141l-7.01953-.3164m7.01953.3164l1.05469 2.21484m12.17187-3.17187l-6.84375 1.59765m6.84375-1.59765l1.61329 1.84765m-2.60938-1.61718l1.61719 1.84765m12.42187-2.83984l-6.29687 3.1211m6.29687-3.1211l1.99219 1.4336m-2.91016-.97657l1 .71485m13.3672-.86329l-6.56641 2.50391m6.5664-2.5039l1.84766 1.61718m11.14844-2.25l-5.9297 3.76953m5.9297-3.76953l2.13671 1.20703m11.20704-1.16406l-5.98438 3.6836m5.98438-3.6836l2.11718 1.24219m11.33985-.98438l-6.26953 3.16797m6.26953-3.16797l2.0078 1.41406m11.41017-1.1914l-6.47657 2.72265m6.47657-2.72265l1.90234 1.55078m-2.84375-1.15625l.94922.77734m13.4961-.58203l-6.85548 1.54297"/><g clip-path="url(#aj)"><path fill="none" stroke="#000" stroke-linecap="round" stroke-linejoin="round" stroke-miterlimit="10" stroke-width=".5" d="M466.98828 386.35156l1.60156 1.85938"/></g><path fill="none" stroke="#000" stroke-linecap="round" stroke-linejoin="round" stroke-miterlimit="10" stroke-width=".5" d="M465.99219 386.57813l.80078.92968"/><g clip-path="url(#ak)"><path fill="none" stroke="#000" stroke-linecap="round" stroke-linejoin="round" stroke-miterlimit="10" stroke-width=".5" d="M146.98438 371.95313l-5.96875 3.71093"/></g><path fill="none" stroke="#000" stroke-linecap="round" stroke-linejoin="round" stroke-miterlimit="10" stroke-width=".5" d="M146.98438 371.95313l2.12109 1.23046m9.41406-2.67578l-2.40625 6.60156m2.40625-6.60156l2.42969-.33984m12.40234 1.41797l-5.44531 4.44531m5.44531-4.44531l2.26172.95312m11.13672-.84375l-5.60938 4.22656m5.60938-4.22656l2.22656 1.03516m-3.04297-.42188l1.11328.51954m13.6836.4375l-6.9414 1.08593m6.9414-1.08594l1.47266 1.96485m-2.48047-1.80469l1.47265 1.96094m12.89063-1.66406l-7.02344.16796m7.02344-.16796l1.20703 2.14062M213.0664 373.75l1.20312 2.13672m-2.22656-2.11328l.60156 1.07031m14.75781-1.13672l-7.02343.20313m7.02343-.20313l1.21485 2.1289m-2.23828-2.10156l1.21484 2.13282m13.04297-2.80469l-6.86328 1.49219m6.86328-1.49219l1.58984 1.8711m-2.58594-1.65626l.79297.9375m13.39063-1.60546l-6.60547 2.39843m6.60547-2.39844l1.82031 1.64454m-2.78125-1.29297l.91016.82031m13.53515-.49219l-6.94922 1.03906m6.94922-1.03906l1.46094 1.97266m11.88281-1.73828l-7.0039.5664m7.0039-.5664l1.32422 2.0664m11.98828-2.08593l-7 .60546m7-.60546l1.33594 2.05859m-2.35156-1.96875l.66406 1.03125m13.64844-1.30469l-6.96094.97266m6.96094-.97266l1.4375 1.98828m-2.45313-1.84375l.72266.9922m13.58984-1.23829l-6.92578 1.17969m6.92578-1.17969l1.5 1.94531m-2.5078-1.77344l.75.97266m13.5664-1.19531l-6.91016 1.28125m6.91016-1.28125l1.52734 1.91797m11.82031-1.67969l-6.98047.80469m6.98047-.80469l1.39453 2.01953m-2.41015-1.90234l.69922 1.00781m13.65625-.77344l-7.02735.09766m7.02735-.09766l1.1836 2.15235m-2.20704-2.13672l.59375 1.07422m13.74219-1.12891l-7.02344.17969m7.02344-.17969l1.20703 2.13672m-2.22656-2.11328l.60156 1.07031m13.67187-1.67188l-6.89843 1.33594m6.89843-1.33594l1.54297 1.90625m11.46094-2.8203l-6.27734 3.16406m6.27734-3.16407l2.0039 1.41797m11.38672-1.25781l-6.42968 2.83984m6.42968-2.83984l1.9297 1.51953m10.91015-2.29688l-5.48047 4.39844m4.6836-3.75781l1.1289.48438m12.78516-1.35157l-5.08204 4.85156m5.08204-4.85156l2.32812.76953m11.5625.03516l-6.23437 3.24219m6.23437-3.24219l2.02344 1.39063m11.61719-.48047l-6.88282 1.42187"/><g clip-path="url(#al)"><path fill="none" stroke="#000" stroke-linecap="round" stroke-linejoin="round" stroke-miterlimit="10" stroke-width=".5" d="M467.0039 373.09766l1.56641 1.89062"/></g><g clip-path="url(#am)"><path fill="none" stroke="#000" stroke-linecap="round" stroke-linejoin="round" stroke-miterlimit="10" stroke-width=".5" d="M147.16406 358.96484l-6.32812 3.0547"/></g><path fill="none" stroke="#000" stroke-linecap="round" stroke-linejoin="round" stroke-miterlimit="10" stroke-width=".5" d="M147.16406 358.96484l1.98047 1.45313m-2.90234-1.00781l.99219.72656m12.78515-1.89063l-5.40625 4.4922m5.40625-4.4922l2.26953.9336m-3.0586-.27735l2.26954.9297m12.625.3125l-6.99219.6953m6.99219-.6953l1.36328 2.04296m11.92969-2.23828l-6.94531 1.08594m6.9453-1.08594l1.47267 1.96484m-2.48438-1.80469l1.47266 1.96094m12.83984-2.1875l-6.91797 1.22266m6.91797-1.22266l1.51172 1.92969m-2.51563-1.7539l1.51172 1.93359m12.58203-2.8789l-6.46484 2.7578m6.46484-2.7578l1.90625 1.54296m-2.84765-1.14063l.95312.76954m13.23047-1.32422l-6.32031 3.0664m6.32031-3.0664l1.98438 1.44531m-2.90235-1l.98828.72266m13.51563-.39844l-6.85938 1.52344m6.85938-1.52344l1.59375 1.86719m11.79687-1.32032l-7.01172.4336m7.01172-.4336l1.28125 2.08985m11.97657-2.53125l-6.90235 1.3164m6.90235-1.3164l1.53906 1.91015m11.63281-2.4375l-6.61328 2.3672m6.61328-2.3672l1.8164 1.65235m11.625-1.21485l-6.86718 1.4961m6.86719-1.4961l1.58594 1.8711m11.80859-1.125h-7.02734m7.02734 0l1.15234 2.16797m-2.17187-2.16797l.57422 1.08594m13.7578-1.20313l-7.01952.23828m7.01953-.23828l1.22656 2.125m-2.2461-2.08984l.61329 1.0625m13.67969-1.54688l-6.9375 1.13281m6.9375-1.1328l1.48437 1.95312m-2.49219-1.78907l.7422.97657m13.60546-.20313l-6.98828-.73828m6.98828.73828l.91797 2.27344m12.40234-2.33594l-6.9961-.61719m6.9961.6172l.95703 2.26171m-1.97265-2.35156L360 361.84375m13.86719-1.47266l-7.02344.2422m7.02344-.2422l1.22656 2.125m-2.2461-2.08984l1.22266 2.125m12.94922-3.09766l-6.69922 2.1172m6.69922-2.1172l1.7539 1.71875m-2.72655-1.41015l1.75 1.71875m12.46875-2.22656l-6.5586 2.51562m6.5586-2.51563l1.85156 1.61329m-2.80469-1.2461l.92578.80469m13.07031-1.72656l-6.01562 3.6289m6.01562-3.6289l2.10547 1.26172m11.21094-1.26172l-6.01953 3.625m6.01953-3.625l2.10547 1.26172m-2.98047-.73438l1.05078.63281m13.35547-.74218l-6.44922 2.79296m6.44922-2.79296l1.91797 1.53125m11.60547-.89063L446.8164 361.25m6.86328-1.51172l1.58984 1.86719m11.53516-2.46485l-6.48438 2.70704"/><g clip-path="url(#an)"><path fill="none" stroke="#000" stroke-linecap="round" stroke-linejoin="round" stroke-miterlimit="10" stroke-width=".5" d="M466.80469 359.14063l1.89844 1.55468"/></g><g clip-path="url(#ao)"><path fill="none" stroke="#000" stroke-linecap="round" stroke-linejoin="round" stroke-miterlimit="10" stroke-width=".5" d="M147.01953 345.38672l-6.03906 3.58594"/></g><path fill="none" stroke="#000" stroke-linecap="round" stroke-linejoin="round" stroke-miterlimit="10" stroke-width=".5" d="M147.01953 345.38672l2.09766 1.27344m-2.97656-.75391l1.05078.63672m13.125-1.1914l-6.00391 3.65234m6.0039-3.65235l2.10938 1.25m-2.98437-.71875l1.05859.625m13.49219-.35156l-6.72266 2.04297m6.72266-2.04297l1.73047 1.73828m-2.71094-1.4414l1.73437 1.73828m12.63672-1.73829l-6.875 1.45313m6.875-1.45313l1.57422 1.87891m-2.57422-1.66797l.78906.9414m13.53907-1.08202l-6.90235 1.3086m6.90235-1.3086l1.53906 1.91406m10.99219-3.54688l-5.33203 4.57813m5.33203-4.57813l2.28515.89063m-3.0625-.22656l1.14453.44531m12.94922-1.10547l-5.33984 4.5664m5.33984-4.5664l2.28516.89844m11.73438.40234l-6.7461 1.96875m6.7461-1.96875l1.71484 1.7539m11.72656-1.10937l-6.9961.67579m6.9961-.67579l1.35156 2.04688m11.86328-2.59375l-6.79687 1.76953m6.79688-1.76953l1.66406 1.80469m-2.65235-1.54688l.83203.90235m13.44532-1.26563l-6.74219 1.98047m6.74219-1.98047l1.71484 1.7539m-2.69922-1.46484l.85938.875m13.44922-1.13281l-6.76172 1.91797m6.76172-1.91797l1.69922 1.76953m11.74609-.72656l-7.02344-.16797m7.02344.16797l1.10156 2.19531m12.21094-2.11328l-7.01953-.33203m7.01953.33203l1.04687 2.21875m-2.0664-2.26563l.52344 1.10938m13.80078-1.5586l-6.9961.66016m6.9961-.66015l1.34765 2.04687m-2.36718-1.94922l.67578 1.02344m13.60937-1.44922l-6.90234 1.3164m6.90234-1.3164l1.53906 1.91406m-2.54296-1.72265l.76953.95703m13.5703.04687l-6.9414-1.07421m6.9414 1.07421l.8086 2.31641m-1.8164-2.47266l.40234 1.15625m13.92188-1.01171l-6.94532-1.05079m6.94532 1.05079l.8164 2.3164m-1.82422-2.46875l.8125 2.3164m13.51172-3.22656l-6.94531 1.07422m6.94531-1.07421l1.46875 1.96484m-2.48047-1.8086l1.46875 1.96485m-2.48047-1.8086l.73829.98438m14.22265-2.42188l-6.1914 3.32422m6.1914-3.32421l2.03906 1.36328M399.1797 346l2.04297 1.36328m12.30468-1.57812l-6.44921 2.78515m6.44921-2.78515l1.91797 1.53125m-2.85547-1.125l1.91407 1.53125m12.42578-1.71485l-6.625 2.33985m6.625-2.33985l1.8086 1.66016m-2.77345-1.32031l1.8086 1.66015m12.63672-1.3125l-6.95703.96485m6.95703-.96485l1.4414 1.98828m-2.45312-1.84765l1.4375 1.98828m12.91015-1.95703l-7 .6211m7-.6211l1.33985 2.0586m-2.35938-1.96876l.67188 1.03125m13.53906-1.78906l-6.75 1.95703"/><g clip-path="url(#ap)"><path fill="none" stroke="#000" stroke-linecap="round" stroke-linejoin="round" stroke-miterlimit="10" stroke-width=".5" d="M466.9375 346.19922l1.70703 1.75781"/></g><path fill="none" stroke="#000" stroke-linecap="round" stroke-linejoin="round" stroke-miterlimit="10" stroke-width=".5" d="M465.95313 346.48438l1.71093 1.7578"/><g clip-path="url(#aq)"><path fill="none" stroke="#000" stroke-linecap="round" stroke-linejoin="round" stroke-miterlimit="10" stroke-width=".5" d="M145.98047 330.96094l-3.96094 5.80469"/></g><path fill="none" stroke="#000" stroke-linecap="round" stroke-linejoin="round" stroke-miterlimit="10" stroke-width=".5" d="M145.98047 330.96094l2.4375.26562m11.28906.0625l-4.78125 5.14844m4.78125-5.14844l2.3711.6289m11.5078.04688l-5.91015 3.79688m5.91016-3.79688l2.14062 1.19922m11.5625-.375l-6.6875 2.14844m6.6875-2.14844l1.76172 1.71094m-2.73437-1.39844l1.76172 1.71094m12.19921-2.75l-6.03515 3.60156m6.03515-3.60156l2.09766 1.26953m11.59375-.375l-6.78906 1.8125m6.78906-1.8125l1.67188 1.79688m-2.66016-1.53516l.83594.89844m13.11328-2.01563l-6.07813 3.52344m6.07813-3.52344l2.08203 1.29688m11.61328-.34375l-6.83984 1.61719m6.83984-1.6172l1.61719 1.84376m11.73047-1.69531l-6.90235 1.3203m6.90235-1.3203l1.53906 1.91015m11.6836-2.27344l-6.71876 2.04688m6.71875-2.04688l1.73438 1.73438m11.6914-1.26563l-6.9414 1.10547m6.9414-1.10547l1.47657 1.96094m11.52734-2.9414l-6.32031 3.0703m6.32031-3.0703l1.98438 1.4453m11.15625-1.76562l-5.96875 3.71094m5.96875-3.71094l2.12109 1.23047m11.6211 1.46094l-6.82423-1.67188m6.82422 1.67188l.60547 2.375m12.8086-3.1289l-7.02344-.16407m7.02344.16406l1.10156 2.19531m-2.1211-2.21875l.55079 1.09766m13.78515-1.15625h-7.02734m7.02734 0l1.15235 2.16797m12.16406-2.09375l-7.02735-.14844m7.02735.14844l1.10547 2.1914m12.0078-1.08984l-6.62108-2.35156m6.62109 2.35156l.35937 2.42578m13.0586-4.42187l-6.83203 1.64062m6.83203-1.64062l1.6289 1.83984m-2.62109-1.60156l.8125.91797m13.5664-.78125l-6.97265.89062m6.97266-.89062l1.41796 2m11.77735-2.5586l-6.73438 2.00782m6.73438-2.00781l1.72265 1.74609m-2.70312-1.45313l.86328.8711m13.51953-.8125l-6.90625 1.30469m6.90625-1.3047l1.53125 1.91407m-2.53906-1.72656l1.53516 1.91797m12.77343-2.1797l-6.8789 1.45313m6.8789-1.45312l1.57422 1.88281m-2.57812-1.67187l1.57422 1.8828m12.7539-2.04296l-6.89844 1.35156m6.89844-1.35156l1.54688 1.90625m-2.55078-1.71094l1.54687 1.90625m-2.55078-1.70703l.77344.94922m14.45703-1.70313l-6.71485 2.06641"/><g clip-path="url(#ar)"><path fill="none" stroke="#000" stroke-linecap="round" stroke-linejoin="round" stroke-miterlimit="10" stroke-width=".5" d="M466.91797 332.82813l1.73828 1.73437"/></g><path fill="none" stroke="#000" stroke-linecap="round" stroke-linejoin="round" stroke-miterlimit="10" stroke-width=".5" d="M465.9414 333.1289l1.73829 1.73438m-2.71485-1.4336l.8711.8672"/><g clip-path="url(#as)"><path fill="none" stroke="#000" stroke-linecap="round" stroke-linejoin="round" stroke-miterlimit="10" stroke-width=".5" d="M143.41016 317.08594l1.17968 6.92578"/></g><g clip-path="url(#at)"><path fill="none" stroke="#000" stroke-linecap="round" stroke-linejoin="round" stroke-miterlimit="10" stroke-width=".5" d="M143.41016 317.08594l1.9414-1.5"/></g><g clip-path="url(#au)"><path fill="none" stroke="#000" stroke-linecap="round" stroke-linejoin="round" stroke-miterlimit="10" stroke-width=".5" d="M143.58203 318.09375l.96875-.75"/></g><path fill="none" stroke="#000" stroke-linecap="round" stroke-linejoin="round" stroke-miterlimit="10" stroke-width=".5" d="M156.63672 317.10156l1.35937 6.89453m-1.35937-6.89453l1.90234-1.55078m12.29688 1.48828l-.41016 7.01563m.34766-5.99219l1.11719-.51172m13.2539-.30469l-2.39844 6.60547m2.39844-6.60547l2.42969-.34375m13.17578 4.0586l-6.98047-.82813m5.96484.71094l.44532 1.14063m13.53515.14453l-6.27734-3.16016m6.27734 3.16016l.0547 2.45312m13.60937-3.61328l-6.97657-.84375m6.97657.84375l.8828 2.28906M240.71876 320.5l-7.02734.09766m7.02734-.09766l1.1836 2.14844m12.12109-2.35547l-7.00781.50781m7.0078-.50781l1.3047 2.07812m11.83984-2.9414l-6.66406 2.23437m6.66406-2.23437l1.78125 1.6914m11.6836-1.05078l-6.96095.95703m6.96094-.95703l1.4336 1.98828m11.91015-1.43359l-7.02344-.15234m7.02344.15234l1.10547 2.1875m11.82422-3.8711l-6.25 3.21485m6.25-3.21484l2.01562 1.39843m11.54688-.78125l-6.7461 1.97657m6.7461-1.97657l1.71484 1.75391m11.60938-1.71094l-6.76563 1.89453m6.76563-1.89453l1.69531 1.77735m11.71875-1.29688l-6.96484.92969m6.96484-.92969l1.42969 1.9961m11.40625.29296l-6.0039-3.64453m5.1328 3.11328l-.0703 1.22657m14.73437-2.02735l-6.95703-.98047m5.9453.83594l.41798 1.15235m13.54297-3.125l-6.22657 3.2539m6.22657-3.2539l2.02343 1.38671m10.86328-2.02343l-5.375 4.52734m5.375-4.52734l2.27735.91406m9.375 4.71094l-2.04688-6.72266m1.75 5.74219l-.87109.86719m12.60937.16015l1.70313-6.8164m-1.45703 5.82421l-1.1914.29688m16.25-6.03906l-2.27735 6.64843m1.94531-5.67968l1.21094-.19532m14.03125.34375l-5.46875 4.41407m5.46875-4.41407l2.25781.96485m11.23828-.71485l-5.83203 3.91797"/><g clip-path="url(#av)"><path fill="none" stroke="#000" stroke-linecap="round" stroke-linejoin="round" stroke-miterlimit="10" stroke-width=".5" d="M466.47656 318.58984l2.16406 1.15625"/></g><g clip-path="url(#aw)"><path fill="none" stroke="#000" stroke-linecap="round" stroke-linejoin="round" stroke-miterlimit="10" stroke-width=".5" d="M465.6289 319.16016l2.16407 1.15625"/></g><path fill="none" stroke="#000" stroke-linecap="round" stroke-linejoin="round" stroke-miterlimit="10" stroke-width=".5" d="M464.78125 319.73047l1.08203.57812"/><path fill="#00f" fill-rule="evenodd" d="M392.67578 463.21094h8.6211V453.0625h-8.6211v10.14844"/><path fill="azure" fill-rule="evenodd" d="M394.51172 454.89844h.83203v2.82031h3.28516v-2.82031h.83203v6.48047h-.83203v-2.91797h-3.28516v2.91797h-.83203v-6.48047"/><path fill="#ff3030" fill-rule="evenodd" d="M193.64453 445.45703h7.69531V435.3125h-7.6953v10.14453"/><path fill="azure" fill-rule="evenodd" d="M195.47656 437.14453h.83594v5.73828h3.1914v.74219h-4.02734v-6.48047"/><path fill="#ff3030" fill-rule="evenodd" d="M322.35938 441.01953h7.6914V430.8711h-7.6914v10.14844"/><path fill="azure" fill-rule="evenodd" d="M324.1914 432.70703h.83204v5.73828h3.19531v.73828h-4.02734v-6.47656"/><path fill="#00f" fill-rule="evenodd" d="M383.80078 436.57813h8.61719v-10.14454h-8.61719v10.14454"/><path fill="azure" fill-rule="evenodd" d="M385.63281 428.26563h.83203v2.82421h3.28907v-2.82421h.83203v6.48046h-.83203v-2.91406h-3.28907v2.91406h-.83203v-6.48046"/><path fill="#00f" fill-rule="evenodd" d="M219.58203 414.38672h8.61719v-10.14453h-8.61719v10.14453"/><path fill="azure" fill-rule="evenodd" d="M221.41406 406.07422h.83203v2.82422h3.28907v-2.82422h.83203v6.48047h-.83203v-2.91406h-3.28907v2.91406h-.83203v-6.48047"/><path fill="#00f" fill-rule="evenodd" d="M197.39063 392.19531h8.61718v-10.14453h-8.61719v10.14453"/><path fill="azure" fill-rule="evenodd" d="M199.22266 383.88281h.83203v2.82422h3.28515v-2.82422h.83594v6.48047h-.83594v-2.91406h-3.28515v2.91406h-.83203v-6.48047"/><path fill="#ff3030" fill-rule="evenodd" d="M193.64453 361.1289h7.69531v-10.14843h-7.6953v10.14844"/><path fill="azure" fill-rule="evenodd" d="M195.47656 352.8164h.83594v5.73829h3.1914v.73828h-4.02734v-6.47656"/><path fill="#ffffe0" fill-rule="evenodd" d="M315.11328 369.25781h22.17969v-10.1914h-22.17969v10.1914"/><path fill-rule="evenodd" d="M318.61328 360.89844h.50781v6.29297h-.78515v-4.48829h-1.39063v-.55468l.5625-.0664.25-.05079.23047-.08984.20313-.14454.17578-.20703.14062-.29687.10547-.39453m4.8125 0l.23047.01953.21875.05469.20703.08984.19922.1211.1836.14843.17187.17578.30078.42188.24219.49219.17969.54687.11328.57813.03515.58984-.03515.59375-.11329.58594-.17968.55468-.24219.5-.30078.4297-.17188.17968-.18359.15234-.19922.125-.20703.08985-.21875.05859-.23047.01953-.22656-.01953-.21875-.0586-.21094-.08984-.19531-.125-.1836-.15234-.17187-.17969-.30078-.42969-.2461-.5-.17968-.55468-.10938-.58594-.03906-.59375h.83203l.03125.5664.08203.50391.125.4414.16406.375.1875.30079.21094.22265.22266.13672.22656.04688.22656-.04688.22266-.13671.21094-.22266.1914-.30078.16407-.375.125-.4414.08203-.50392.02734-.5664-.02734-.5586-.08203-.5-.125-.4375-.16407-.36328-.1914-.29296-.21094-.21485-.22266-.13281-.22656-.04297-.22656.04297-.22266.13281-.21094.21485-.1875.29296-.16406.36329-.125.4375-.08203.5-.03125.55859h-.83203l.03906-.58985.10938-.57812.17969-.54688.24609-.49218.30078-.42188.17188-.17578.18359-.14844.19531-.12109.21094-.08984.21875-.0547.22656-.01952m5.09375 0h.50781v6.29297h-.78515v-4.48829h-1.39063v-.55468l.5586-.0664.2539-.05079.23047-.08984.20313-.14454.17187-.20703.14453-.29687.10547-.39453m2.82031 2.17578h.78907l.01953-.3164.0586-.28516.10155-.25391.13672-.21484.1836-.17579.22265-.1289.26563-.07813.3086-.02734.23827.01953.22266.0625.20312.10156.1797.14063.14843.17187.11328.20704.07031.23437.02735.26563-.02344.26953-.0664.22265-.10938.1914-.15625.17188-.19922.16407-.2461.16406-.63671.39062-.53516.3125-.4375.31641-.34766.32422-.26171.33594-.19141.35156-.125.3711-.07031.39062-.01954.41797h4.21094v-.73829h-3.33203l.08203-.28515.11328-.23438.14844-.20312.1875-.17969.23047-.17187.28125-.17579.71484-.41796.41797-.20313.34375-.23047.28125-.2539.21875-.26563.16406-.27734.11329-.28516.0625-.28515.01953-.28125-.04297-.38282-.11719-.34765-.1914-.3086-.25-.26172-.30079-.21484-.34765-.15625-.3789-.09766-.40626-.03515-.4375.03125-.39844.10156-.35156.16406-.30469.23438-.25.30469-.1875.375-.11328.4453-.04297.51954"/><path fill="#ffffe0" fill-rule="evenodd" d="M192.26172 325.85156h22.17969v-10.1914h-22.1797v10.1914"/><path fill-rule="evenodd" d="M195.76172 317.49219h.50781v6.29687h-.78516v-4.49219h-1.39062v-.55468l.5586-.0664.2539-.05079.23047-.08984.20312-.14063.17188-.21094.14453-.29687.10547-.39453m4.8125 0l.23047.01953.21875.05469.20703.08984.19531.1211.1836.14843.17187.17578.30469.42188.24219.49219.17968.54687.10938.57813.03906.59375-.03906.58984-.10938.58594-.17969.55468-.24218.5-.30469.4297-.17188.17968-.18359.15234-.19531.125-.20703.08985-.21875.05859-.23047.01953-.23047-.01953-.21875-.0586-.20703-.08984-.19531-.125-.1836-.15234-.17187-.17969-.30469-.42969-.24219-.5-.17969-.55468-.10937-.58594-.03906-.58985h.83203l.02734.5625.08203.50391.12891.44531.16016.375.1914.29688.21094.22265.22266.13672.22656.04688.22656-.04688.22266-.13671.21094-.22266.1914-.29688.16016-.375.1289-.4453.07813-.50392.03125-.5625-.03125-.5625-.07813-.5-.1289-.4375-.16016-.36328-.1914-.29296-.21094-.21485-.22266-.13281-.22656-.04297-.22656.04297-.22266.13281-.21094.21485-.1914.29296-.16016.36329-.1289.4375-.08204.5-.02734.5625h-.83203l.03906-.59375.10938-.57813.17968-.54688.24219-.49218.30469-.42188.17187-.17578.1836-.14844.1953-.12109.20704-.08984.21875-.0547.23047-.01952m5.08984 0h.51172v6.29687h-.78906v-4.49219H204v-.55468l.5586-.0664.2539-.05079.22656-.08984.20313-.14063.17578-.21094.14062-.29687.10547-.39453m2.82422 2.17578h.78906l.01953-.3164.0586-.28516.09766-.25391.14062-.21484.17969-.17188.22656-.1289.26172-.08204.3086-.02734.23827.01953.22266.0625.20703.10156.17969.14063.14844.17187.11328.20704.07031.23437.02344.26563-.01953.26953-.06641.22265-.10938.1914-.15625.17188-.19921.16407-.25.16406-.63282.39062-.53515.3125-.4375.31641-.34766.32422-.26562.33594-.1875.35156-.125.3711-.07032.39062-.01953.42187h4.21094v-.74219h-3.33203l.08203-.28515.11328-.23438.14844-.20312.1875-.17969.23047-.17187.27734-.17579.71875-.41406.41406-.20703.34766-.23047.28125-.25.21875-.26953.16406-.27734.10938-.28516.0664-.28515.01953-.28125-.04296-.38282-.1211-.34765-.1875-.3086-.25-.26172-.30469-.21093-.34375-.16016-.3828-.09766-.40626-.03515-.4336.03515-.39843.09766-.35547.16406-.30469.23438-.24609.30469-.1875.375-.11719.4453-.03906.51954"/><path fill="#ffffe0" fill-rule="evenodd" d="M315.11328 327.6914h22.17969V317.5h-22.17969v10.1914"/><path fill-rule="evenodd" d="M318.61328 319.33203h.50781v6.29688h-.78515v-4.48829h-1.39063v-.55859l.5625-.0625.25-.05469.23047-.08984.20313-.14063.17578-.21093.14062-.29297.10547-.39844m4.8125 0l.23047.01953.21875.0586.20703.08593.19922.1211.1836.15234.17187.17578.30078.41797.24219.49219.17969.54687.11328.58204.03515.58984-.03515.59375-.11329.58203-.17968.55469-.24219.5039-.30078.42579-.17188.17968-.18359.15235-.19922.125-.20703.08984-.21875.0586-.23047.01952-.22656-.01953-.21875-.05859-.21094-.08984-.19531-.125-.1836-.15235-.17187-.17969-.30078-.42578-.2461-.5039-.17968-.55469-.10938-.58203-.03906-.59375h.83203l.03125.5625.08203.5039.125.44532.16406.375.1875.30078.21094.21875.22266.13672.22656.04687.22656-.04687.22266-.13672.21094-.21875.1914-.30078.16407-.375.125-.44531.08203-.50391.02734-.5625-.02734-.5625-.08203-.5-.125-.4336-.16407-.36718-.1914-.29297-.21094-.21485-.22266-.1289-.22656-.04688-.22656.04688-.22266.1289-.21094.21485-.1875.29297-.16406.36719-.125.43359-.08203.5-.03125.5625h-.83203l.03906-.58985.10938-.58203.17969-.54687.24609-.49219.30078-.41797.17188-.17578.18359-.15234.19531-.1211.21094-.08593.21875-.0586.22656-.01953m5.09375 0h.50781v6.29688h-.78515v-4.48829h-1.39063v-.55859l.5586-.0625.2539-.05469.23047-.08984.20313-.14063.17187-.21093.14453-.29297.10547-.39844m6.80469 1.6211h-.78906l-.05079-.21094-.08203-.1875-.10937-.16016-.1289-.1289-.14454-.10547-.16015-.07422-.16797-.04297-.17579-.01563-.32421.04297-.28907.11719-.24609.19531-.20313.26953-.16015.33985-.11719.40234-.07031.46875-.02344.52344.1875-.19922.1875-.16016.1875-.125.1836-.08593.1875-.0625.1914-.03516.40235-.02344.30859.03125.32031.08985.3164.15625.29298.21875.2539.28515.19922.35156.07422.19922.05078.21875.03125.23438.0039.25-.78515.04687-.02734-.2578-.07813-.25392-.1211-.23437-.16405-.20703-.19141-.17969-.21875-.13672-.24219-.08984-.2539-.03125-.25391.03125-.24219.08984-.21875.13672-.19531.17969-.16016.20703-.12109.23438-.07813.2539-.02734.25781.02735.25782.07812.25.1211.23437.16015.21094.19531.17969.21875.13671.24219.08594.2539.03125.25391-.03125.24219-.08594.21875-.13671.1914-.1797.16407-.21093.1211-.23437.07812-.25.02734-.25782.78516-.04687-.03125.3711-.09375.37109-.15625.35937-.22266.32813-.28906.28125-.17188.12109-.1875.10156-.20703.08203-.22265.0625-.2422.03907-.2578.01171-.28516-.01562-.25781-.04688-.23828-.07812-.21485-.10156-.19531-.13281-.17578-.15625-.15235-.1797-.13671-.20312-.1172-.22265-.09765-.2422-.14844-.53515-.08203-.59375-.02734-.64062.03906-.74219.11328-.66406.1875-.57813.1172-.2539.13671-.23047.15625-.20703.16797-.1836.1875-.15234.20312-.1289.21485-.10157.23437-.07422.2461-.04687.26171-.01563.3672.03516.33202.09765.29688.14844.2539.19922.21485.24219.16406.27344.11719.30468.0625.32031"/></g></defs><use xlink:href="#ax"/></svg>