<svg xmlns="http://www.w3.org/2000/svg" role="img" xmlns:xlink="http://www.w3.org/1999/xlink" viewBox="142.45 309.95 326.84 171.84"><defs><clipPath id="a"><path d="M144 311.67188h1v168.65625h-1zm0 0"/></clipPath><clipPath id="b"><path d="M144 311.67188h324v168.65625H144zm0 0"/></clipPath><clipPath id="c"><path d="M467 311.67188h1v168.65625h-1zm0 0"/></clipPath><clipPath id="d"><path d="M144 479h4v1.32813h-4zm0 0"/></clipPath><clipPath id="e"><path d="M146 480h2v.32813h-2zm0 0"/></clipPath><clipPath id="f"><path d="M153 479h8v1.32813h-8zm0 0"/></clipPath><clipPath id="g"><path d="M159 480h2v.32813h-2zm0 0"/></clipPath><clipPath id="h"><path d="M167 479h8v1.32813h-8zm0 0"/></clipPath><clipPath id="i"><path d="M172 480h2v.32813h-2zm0 0"/></clipPath><clipPath id="j"><path d="M180 479h8v1.32813h-8zm0 0"/></clipPath><clipPath id="k"><path d="M186 480h2v.32813h-2zm0 0"/></clipPath><clipPath id="l"><path d="M193 479h8v1.32813h-8zm0 0"/></clipPath><clipPath id="m"><path d="M199 480h2v.32813h-2zm0 0"/></clipPath><clipPath id="n"><path d="M207 478h8v2.32813h-8zm0 0"/></clipPath><clipPath id="o"><path d="M220 477h7v3.32813h-7zm0 0"/></clipPath><clipPath id="p"><path d="M234 477h6v3.32813h-6zm0 0"/></clipPath><clipPath id="q"><path d="M247 478h7v2.32813h-7zm0 0"/></clipPath><clipPath id="r"><path d="M260 479h8v1.32813h-8zm0 0"/></clipPath><clipPath id="s"><path d="M266 480h1v.32813h-1zm0 0"/></clipPath><clipPath id="t"><path d="M273 479h8v1.32813h-8zm0 0"/></clipPath><clipPath id="u"><path d="M279 480h2v.32813h-2zm0 0"/></clipPath><clipPath id="v"><path d="M286 479h9v1.32813h-9zm0 0"/></clipPath><clipPath id="w"><path d="M292 480h2v.32813h-2zm0 0"/></clipPath><clipPath id="x"><path d="M300 480h8v.32813h-8zm0 0"/></clipPath><clipPath id="y"><path d="M307 480h2v.32813h-2zm0 0"/></clipPath><clipPath id="z"><path d="M313 479h8v1.32813h-8zm0 0"/></clipPath><clipPath id="A"><path d="M319 479h2v1.32813h-2zm0 0"/></clipPath><clipPath id="B"><path d="M328 476h5v4.32813h-5zm0 0"/></clipPath><clipPath id="C"><path d="M341 477h5v3.32813h-5zm0 0"/></clipPath><clipPath id="D"><path d="M355 476h4v4.32813h-4zm0 0"/></clipPath><clipPath id="E"><path d="M368 477h5v3.32813h-5zm0 0"/></clipPath><clipPath id="F"><path d="M379 479h9v1.32813h-9zm0 0"/></clipPath><clipPath id="G"><path d="M380 479h2v1.32813h-2zm0 0"/></clipPath><clipPath id="H"><path d="M394 477h6v3.32813h-6zm0 0"/></clipPath><clipPath id="I"><path d="M406 479h9v1.32813h-9zm0 0"/></clipPath><clipPath id="J"><path d="M407 478h2v2.32813h-2zm0 0"/></clipPath><clipPath id="K"><path d="M421 476h5v4.32813h-5zm0 0"/></clipPath><clipPath id="L"><path d="M435 476h4v4.32813h-4zm0 0"/></clipPath><clipPath id="M"><path d="M448 476h4v4.32813h-4zm0 0"/></clipPath><clipPath id="N"><path d="M460 478h7v2.32813h-7zm0 0"/></clipPath><clipPath id="O"><path d="M144 466h4v2h-4zm0 0"/></clipPath><clipPath id="P"><path d="M144 452h4v3h-4zm0 0"/></clipPath><clipPath id="Q"><path d="M144 438h4v5h-4zm0 0"/></clipPath><clipPath id="R"><path d="M144 424h4v6h-4zm0 0"/></clipPath><clipPath id="S"><path d="M144 411h4v6h-4zm0 0"/></clipPath><clipPath id="T"><path d="M144 397h3v7h-3zm0 0"/></clipPath><clipPath id="U"><path d="M144 384h3v7h-3zm0 0"/></clipPath><clipPath id="V"><path d="M144 370h3v7h-3zm0 0"/></clipPath><clipPath id="W"><path d="M144 357h3v7h-3zm0 0"/></clipPath><clipPath id="X"><path d="M465 357h3v1h-3zm0 0"/></clipPath><clipPath id="Y"><path d="M144 345h4v4h-4zm0 0"/></clipPath><clipPath id="Z"><path d="M465 344h3v3h-3zm0 0"/></clipPath><clipPath id="aa"><path d="M144 332h4v4h-4zm0 0"/></clipPath><clipPath id="ab"><path d="M466 332h2v3h-2zm0 0"/></clipPath><clipPath id="ac"><path d="M144 319h4v3h-4zm0 0"/></clipPath><clipPath id="ad"><path d="M466 319h2v4h-2zm0 0"/></clipPath><g id="ae" clip-path="url(#clip1)"><path fill="#fff" fill-opacity="0" fill-rule="evenodd" d="M0 0h1000v1000H0zm0 0"/><path fill="#d3d3d3" fill-opacity="0" fill-rule="evenodd" d="M162.15234 355.86719l-.23437.29297.0586.23437.11718.17188.17578.23437.29297.34766.11328.0586.11719-.17188.0586-.23438.17577-.17578.46485-.17578h.69922l.23437.29297.28906.8164.0586.17579.17578.23046.35156.23438.69922.69922.17188.17578.23437.34765.23438.41016.28906.58203.41015.46485.23047.23437.23438.17578.11719.23047.17578.29297.17187 1.16406v.23438l.0586.28906.05859.11719.11719.11719.34765.41015.11719.17188.17578.17578.17578.23437.11719.17188.17188.35156.05859.23438.23437.40625.23438-.0586-.17578.17578-.0586.92969h-.58203l-.23437-.11328-.34766.11328-.11719.11719-.05859.29297-.0586.17578-.11718.17187-.46484.29297-.0586.23438-.0586.11328v.64453l.0586.17187v.41016l.0586.0586v.40624l.05859.40625.11719.17579.05859.05859.23047.64062-.0586.29297v.69922l-.05859.58203v.23438l-.0586.23047-.05468.35156v1.92187l.05469.1172h.42578l-.36719.11718-.02344.35156.89063 1.16797 1.74219.53906 1.33984.35938v.53906l.08984.8086.53516.71484 1.51953.26953.89063-.08594.08984 1.16406.53516.1797 1.16015-.1797 2.05469-.98437 1.16016-.36328 1.8789-.17578 1.69531-.1797-.17968.71876-1.51563.08594-1.25.08984-.80469.26953-1.07421.8086.26953.71875.53515.89843-.17968.625-.26563.8086.26563 1.07812.625.89844.80468.17969 1.25-.1797-.26562.72267.09766.5039.05468.29297v.17188l.0586.29296v.40625l.17578.1172.35156.11718h.40625l.29297-.17578.11328-.11719.0586-.11719.11718-.23047.0586-.17578.35156-.46484.23047-.17578.17578-.0586.17578.0586.0586.17578.11718.98828.05469.46875.0586.17188.11718.23437.17578.0586.8164.05859h.28907l.11719.23437.05859.40625.0586.35156v1.10547l.11718.29297.11719.34766.28906.69922.17578.35156.58203.7539.35157.17579.17187.0586.46875.23437.64063.46484.34765.23438.29297.17578.29297.05468.23047.0625.8164.34766.29297.17578.11328.17188.35157.35156.11719.17578.52343.64063v.28906l.0586.35156v.34766l.05859.35156.0586.28906.11718.0586.17188.05859h.17578l.58203.23437.17578.1172.17578.28905.17578.23438.11328.23437.29297.23047.11719.11719v.41016l.0586.05468.28906.23438.23437.11719.0586.11718.11718.17188.0586.11719.23047.23437.05859.17578.23437.0586.1172.05859-.1172.11328-.05859.11719v.11719l-.11719.29296-.11719.28907v.58203l.17579.11719.11718.05859.0586.11719.11719.11719.11328.05859.17578.34765.0586.35157.05858.40625v.17578l-.05859.17578-.11719.69922v.17187l.1172.17579.29296.29296h.40625l.17578.1172.11719.17187.11719.29296v.23438h-.52735l-.23047-.23438h-.23437l-.17578.0586-.0586.69922.0586.34765.11719.17579.17578.41015.11718.23047.28907.46875.17578.05469h.52344l.23437.0586.75781.64062.0586.29296v.23438l.05859.0586.23047.34765v.35156l-.11719.17188v.29297l.29297.28906.29297.17578.17187.0586.29297.17577.29297.1172.58203.40624.28906.23438.29297.17578.21875.16015.01563.01172.23047.17579.64062.52343.17578.23438.1172.17578.17577.17578.11328.17188v.64062l.1172.17578.46874.11719.58203.11719.23438.05859.23047.11328.29297.11719.11328.0586.58593.35156.28907.17187.17578.0625.17578.05469.17578.0586.69922.35155.28906.17579.23438.05468.28906.17578.23437.1172.64063.40624.29297.11719.17187.0586.23438.05859.41015.05859.23047.0586.23438.11718.0586.17188-.41017.17578.46875.0586.0586.29296.11328.23438.17578.05468.23438.0586.17578.05859.40625.11719.64062.23437.11719.17188.0586.23437v.17578l-.0586.1172-.0586.40624.23438.23438.11719.05859.34766.11719.64062.23047.17578.11718.28906.1172.17578.17577.23438.46485.58203 1.10546.17578.17579.34766.17578.17578.11719.35156.11718 1.04688.52344.23437.0586.46485.11327.29297.0586.46484.17578.75781.58203.23438.23438.34765.46484.17578.17578.28907.23438.8164.69921.29297.17579.28906.28906.29297.17578.29297.28906.69531.64063.17578.17578.29297.23437.28907.23438.46875.28906.64062.58203.34766.23438.23437.29297.34766.34765.35156.46485.9336.99218.34765.40625.11719.17579.23437.05859.11328.11719.64454.17578.23047.11328.23437.0586.29297.17577.23047.1172.9336.69921.40624.40625.23438.17578.40625.17578.23437.11719.8164.34766.34766.23437.23438.11719.29297.28906.23047.11719.7578.35156.35157.17188.23047.05859.29297.11719.23437.0586.8711.17577h.8164l.46875.23047.17188.0586.875.69921.46484.1172.29297.05858.17578.0586.23047.0586.46875.05859.34766.05859.35156.0586.40625.05859h.29297l.17187.0586v.23046l.17578.17578h.29297l.34766.0586.35156.05859.69922.11719h.64063l.46484-.23438.29297-.17578.17187-.11719.41016-.17187.28906-.17578.9336-.46485.46875-.29297.52343-.29296.46485-.17188.46484-.17578 1.05078-.46485.28906-.11718.41016-.11719.28906-.11719.52735-.17578 1.51562-.69922.58203-.34765.28907-.0586.29297-.0586.34765-.11718.875-.23047.35156-.11719h.11329l.23437-.05859.875-.23437.23438-.0586h.8125l.35156-.0586.8164-.11718.17188-.0586.35156-.05468.29297-.0586.23047-.05859.8164-.17578.17579-.0586h.34765l.23438-.05859.46484-.11718.75781-.17188.23438-.0586h.34765l.41016-.11718.28906-.0586 1.28516-.05859h.28906l.41016-.0586.23047-.05858h.17578l.875-.1172h.40625l.41015-.11718h.34766l.35156-.11328.8711-.0586h1.75l1.04687.28907.41016.11719.28906.11718.35156.11719.28907.11719 1.05078.17187.28906.0586h.29297l.29297.05859.17187.0586.41016.05859.17187.0586.1172.05858h.11718l.11719.0586.35156.0586h.11328l.41016.0664 1.92187.39453 1.92578.39453 1.51953.44922 1.69532.71875 2.14453.80469 1.60547-.71875 1.42968-.80469 1.16016-1.07813 1.25-.44921 3.03516-.71875 1.875-.35938 2.14453-1.34765 2.23437-1.25391 2.5-1.25781 1.69531-.44922 1.78516-.17969 1.16016-.26953.625.53906 1.33984-.26953.71485-.98828.98437-1.34375.44531-.17969.80469-.35937 1.875-.53907 1.78516-.44921 1.25-.26954 1.16015-.08984 1.69922-.08984 1.96094-.26954 1.25-.08984h.53906l.625-.08984h.89063l2.14453-.17969 2.41015-.17969 2.58985-.08984 1.69531.17969 1.60938.08984 1.42968.35938 1.16016.71875 1.875.98828 1.16015 1.52734.26563.71484.6289.08985.35548.89844.53515.53906.53516 1.52734 1.07422.35938h.53515l-.80469.53515.08985 1.70703.71484 2.69532.89063.80468.89453.98829.71484 1.2578 1.78516.53907 1.51953-.17969.35547 1.34375 1.60937-.80469.98047-.53906.26953.26953.31641-.21484.21875-.14453.80078.44922.44922-.35938h.35547l.53515-.26953.53907-.71875.53515-.26953.625-.98828 1.16016.44922.83984.3711 1.39454.61718 1.6953-.17969h1.60548l1.78515.08985.17969-1.70704.53516-1.34375.80468.26954.4922.84765.40233.40625-.08984.53906v.35938l.71485.44922.71093-.26953h1.42969l.35938.98828.4453 1.25781.71485 1.34375 1.25.6289 1.69531.62891.71485-.17969.17969-.53906.98046-.08984.44922.35937.08594 1.25782-.26563.6289-.53515.17969v.53906l.71484.98438.26563.53906.98437.98828.80078 1.07813-.26562.35937-.08985.89844-.625 2.33203-.35546 2.0664-.08985 1.79298-.17969.71875-.08984.53906v1.4375l-.98047 1.88281-.35937 1.70703-.53516.89844-.80469 1.16797-.26562.53906 2.05469 1.2539.08593.35938-.35546.53906-.08985-.17968v.80859l.08985 1.4375-.44532.71484-1.07422.09375-.26562.71485.53515.89844.8047.71875 1.16015.80859 1.33984.26953.44531.35938-.35546.44921-1.78907-.08984-1.25-.44922-.71484-.71875-.625-.08984-.17578 3.58984-.1875 1.3086h89.35937V311.70313h-55.26953v49.08203l.76172.125 3.28906.54296 2.02344 2.83594v2.7539l2.35156.33204 2.34766.33203h4.05078l-1.3789 4.16016-2.02344.70703-2.02344.70312-.54297.34375-2.59375 1.6172-.1875.11718-2.02344-2.07813-.73046-2.74218-2.67188-2.07813-1.375-3.5-.0664-.08203-1.95704-2.67188 2.75-1.41796v-49.08204H294.42187v91.41407l.1172.03125.1328.01172.07422.07421.10547.04688.08985.0586.08593.05859.08985.0586.29687.29687.0586.08984.03125.11719.02734.11719.01563.13671-.03125.1172-.0586.08983-.0586.08594-.04296.10547-.04688.10156-.02734.1211v.14453l.17578.26953.14844.14844.07422.08594.07422.07421.04296.10547.0625.08985.0586.08593.04297.10547.0586.08985.04687.10156.04296.10547.0586.08594.11719.17968.07421.07422.0625.08594.0586.08984.04297.10547.0586.08985.05858.08593.0625.08985.0586.08984.04297.10156.11719.17969.07421.07422.0586.08594.07422.07421.08984.0586.10547.04687h.14844l.1328-.01562.13282.01562.10156-.04687.07422-.07422.04688-.10156-.01563-.13281v-.14844l-.04687-.10547-.02735-.11719-.04687-.10156-.02735-.1211-.04296-.10156-.0625-.08984-.04297-.10156-.04297-.10547-.03125-.11719-.01563-.13281-.01171-.13672.08593-.0586.0586-.08593.12109-.03125.04297.10547.01562.1328v.1172l.0586.10156.0586.08984.08983.0586.14844.14843.0586.08985.04296.10547-.01171.10156.08593.0586.10547.04687.08594.0586.08984.05858.07422.07422-.11719.02735-.10546.04687-.08594.0586-.07422.07421-.0586.08985-.0625.08594-.02734.12109-.04687.10156-.04297.10547-.03125.11719-.01172.13281-.01563.13281v.14844l.02735.11719.04687.10547.04297.10156.0586.08984.07421.07422.08985.0586.07422.07421.08984.0586.0586.08984.04296.10547.04688.10156.11719.03125.1328.01563h.14845l.11718-.03125.10547.04297.04297.10547.04688.10156.02734.1211L299.5 410l.02734.11719.03125.1211.02735.11718.10547.04297.10156.04687.13281-.01562.14844.14844.0625.08593.07422.07422.07031.07422.08984.0625.10547.04297.10156.04297.1172.03125.13671.01562.11719-.03125.07422-.07422.02734-.11718-.01172-.13282-.03125-.12109-.02734-.11719.04297-.10547h.11719l.08984.0625.11719.02735h.14843l.13282.01562h.14843l.13282.01563.1328-.01563h.14845l.1328-.01562.13282-.01172.13672.01172.11719-.02735.13281-.01562.1914-.0586-.05859.17579-.01562.1328-.02735.1211-.01562.13281-.0586.08594-.1328.01563-.10548.04687-.10546.04297-.1172.03125-.11718.02735-.26563.03125h-.14843l-.13281.01562-.07422.07422.05859.08594.14844.14843.11719.1797.07421.0703.08985.0625.08984.0586.08594.0586.08984.05858.10156.04297.10547.0625.10547.04297.08594.0586.10547.04687.10156.04297.17969.11719.0586.08984-.04298.10156-.04687.10547.01562.13281.22266.22266.0586.08985.04296.10156.03125.1211.04297.10155.01563.13282.03125.11718.01171.13672.03125.11719.14844.14844.10156.04297.10547.04296.1172.03125.1328.01563.13672.01563h.11719l.11719-.03125.08984-.0586.04297-.10547.04688-.10156.04296-.10547.03125-.11719.01172-.1328v-.14845l-.01172-.1328-.01562-.13282-.03125-.11719-.04297-.10547-.04688-.10547-.04296-.10156-.04297-.10547-.01563-.13281.01563-.13281.02734-.11719.03125-.11719.02735-.1211.04687-.10155.08984-.0586.08594-.0625.07422-.07422.08984-.05859.22266-.22266.0586-.08593.07421-.07422.11719-.17969.0586-.08594v-.14844l-.07423-.07421-.10156-.04688-.10547-.04297-.10156-.04297-.0586-.08984-.04687-.10547-.02734-.11719.08984-.05859.11719-.03125.10156-.04297.17969-.11719.14844-.14843.01172-.13282-.01172-.10546-.08985-.0586-.1328.01563h-.14845l-.1328.01562-.13282-.01562-.1211-.03125-.08593-.0586-.07422-.07422-.0586-.08984-.0625-.08594-.11718-.17969-.0586-.08593.03125-.1211.08594-.05859.1211-.03125.05859-.08594v-.1211l-.03125-.11718-.0586-.08984-.05859-.08594-.04687-.10547-.02735-.11719-.01562-.1328.0586-.08985.07421-.07422.08984-.0586.1172-.17968.07421-.07422.0586-.08594.14843-.14844.1211-.03125.1328-.01562.13282.01562.07422.07422.04297.10547.01562.13281-.03125.1172-.11719.03124-.1328.01172-.14844.14844-.04297.10547-.04688.10156-.02734.1211-.03125.11718v.14844l.03125.11719.04297.10546.05859.08985.07422.07031.07422.07422.11719.03125.12109.02734.11719-.02734.1328-.01563h.1172l.08984.0586.07422.07422.04687.10546.0586.08594.10156.04688.13281.01562.10547.04297.08594.0586-.01172.10546-.07422.07422-.17969.11719-.05859.08984-.08984.0586-.07032.07422-.07421.07421-.0625.08985-.02735.11719-.01562.1328.01562.13282-.01562.13281v.14844l.01562.13281.02735.1172.03125.12108.07421.07422.08985.0586.08594.0586.08984.05858.11719.03125v.08594l-.10157.04688-.08984.0586-.26563.03124-.11718.02735h-.14844l-.10547.04296-.10156.04688-.0586.08984-.0625.23438-.01171.13281-.03125.1211-.01563.1328v.29298l-.01172.1328.01172.13673.01563.1328.1328.01563.13282.01172.1211.03125.08593.0586.07422.07421.04688.10547.04296.10157.01563.1328v.44532l-.01563.13281v.44532l.03125.26562.02735.11719.01562.13281.03125.11719.08594.21094.03125.26562v.14844l-.03125.11719-.02734.11718-.03125.1211-.02735.11719-.03125.11718-.03125.1211-.01171.1328-.01563.13282.08984.0586.1172-.03125.10155.01562.04688.10547-.03125.26562v.44141l-.04297.10547-.04688.10547-.04296.10156-.04297.10547-.0586.08594-.03125.12109-.04296.11719-.03125.11719-.01563.1328.01563.13282.05859.08984.10547.04688.08594.0586.05859.08593-.01172.13672-.03125.11719-.04297.10156v.44531l-.01562.13281v.14844l-.03125.11719-.04297.10547-.02735.11719-.04687.10546-.04297.10157-.03125.12109-.02734.11719-.03125.13281-.03125.11719-.02735.11719-.04297.10546-.03125.1172-.03125.12108-.01171.13282-.01563.13281v.29688l.02734.11718v.14844l.04688.39844.02734.11719.0586.08984.12109.03125h.14844l.13281-.01563.0586.08985v.11719l-.0586.08984-.08984.0586-.10157.04296-.10546.04688-.08985.05859-.08594.0586-.13671.01562-.1172-.03125-.1328-.01563-.10157.04688-.0625.08594-.01172.13671-.01562.13282-.03125.11719-.02735.11718-.01562.13281-.03125.1211v.29687l.01563.13282.03125.11718v.14844l.01171.13281v.14844l-.02734.11719-.04688.10156-.02734.1211-.03125.11718-.0586.08985-.07421.07421-.10156.04297-.10547.04688-.11719.02734-.1211.03125-.10156-.04687.0586-.08594.10547-.04688.02734-.11718.03125-.11719.02734-.1211.03125-.11718v-.14844l.01563-.13281-.03125-.11719-.04297-.10547-.10547.01563-.07422.07422-.10156.04296-.08984.0625-.07422.07422-.04297.10157-.01563.1328-.03125.1172L304.25 426l-.03125.11719-.02734.11719-.03125.12109-.02735.11719-.03125.11718-.04297.10547-.08984.0586h-.08984l-.1172-.03125-.03124-.08594.01562-.13672-.03125-.11719v-.14844l-.01171-.1328v-.14844l-.0625-.23438-.02735-.1211-.04297-.10156-.04687-.10546-.0586-.08594-.05859-.08985-.04297-.10546-.0625-.08594-.14844-.14844-.0703-.07422-.10548-.04687-.10547-.04297-.10156-.04297-.29687-.29688-.08985-.07421-.08594-.0586-.10546-.04297-.08985-.0625-.08594-.0586-.10546-.04296-.08985-.0586-.08594-.0625-.07421-.0703-.10547-.04688-.08594-.0586-.10547-.04296-.08984-.0625-.10156-.04297-.10547-.04297-.08594-.0586-.10547-.04687-.10547-.04297-.10156-.04687-.08985-.0586-.10156-.04297-.10547-.04296-.08984-.0625-.11719-.02735-.13281-.01562-.13281.01562H299.75l-.13281.01563-.11719-.03125-.08984-.0586-.07422-.07422-.08985-.05859-.10156-.04688h-.14844l-.12109-.02734-.10156-.04297-.07422-.07422-.11719-.17968-.08984-.0586-.10156-.04297-.08985-.0625-.10547-.04296-.08984-.0586-.08594-.0586-.10547-.04687-.0586-.08594-.05858-.08984-.04297-.10547-.04688-.10156-.07422-.07422-.08594-.0586-.07421-.07421-.08985-.0586-.22265-.22265-.04297-.10547-.03125-.26563.10547-.04296h.14453l.10547.04296.07421.07422.08985.0586.08594.0586.10546.04687.08985.05859.14844.14844.0703.07422.14845.14843.0625.08594.07421.07422.08594.0586.07422.07421.08985.0625.08984.0586.08594.05859.26953.17578.10156.04688.10547.04296.10156.04297.04688-.07421.05859-.08594.07422-.07422.07031-.07422.10547.04297.07422.07422.0586.08984.04296.10156.04688.10547.04296.10547.1211.02735.11719-.02735.07421-.08984.04297-.10547.0586-.08985.07422-.07421.10546-.04297.1172-.02735.1328.01172.08985.0586.14844.14843.05859.08985.04297.10547.04687.10156.04297.10547.04297.10156.10547.04688.10547.04296.13281.01563.08594-.0586.0586-.08984.07421-.07422.10547-.04297.11719.02735.10547.04687.10156.04297.10547.04297.10156.04688.17969.11718v.11719l-.01563.13281.01563.13281.01562.13672.0586.08594.10156.04688.1211.02734.11718.03125h.14844l.11719-.03125.05859-.08984.17969-.1172.05859-.08983.07422-.07422.0586-.08594.11718-.17969.17969-.11719.11719.03125.08984.0586.04297.07422-.01563.1328v.1172l.08985.05859h.14843l.13282-.01563.1328-.01171.26563-.03125.10547-.04297.11719-.03125.1211-.02735.07421-.07421.07031-.07422.0625-.08985-.01562-.10547-.04688-.10156-.10156-.04297-.10547-.01562-.11718.02734-.26563.03125h-.14844l-.07421-.07422-.08985-.0586-.11719-.03124-.11718-.02735-.13282-.01562h-.14843l-.13282.01563h-.29687l-.10547-.04688-.14844-.14844-.04297-.10156-.05859-.08984.22266-.22266.08593-.0586.10547-.04296.11719-.03125.13281-.01563.13281.01563.13672.01562.10157.04297.1328-.01172.08985-.0625.10156-.04297.0625-.08984-.04687-.10156-.08984-.0586-.1172-.03125-.10155-.04296-.0586-.08985-.0625-.08984v-.11719l.01563-.13281.10547-.04688.07421-.07031v-.1211l-.08984-.05859-.03125-.11719.08985-.05859.07421-.07422.04297-.10547.0586-.08984.04687-.10156.01563-.13281v-.14844l-.04688-.10547-.04297-.10156-.08984-.0586-.13281-.01562-.10157-.04297-.13671-.01563-.1172-.03125h-.4453l-.13282-.01562-.13281-.01172-.13281-.01563-.11719-.03125h-.14844l-.13281-.01562-.13281-.01172-.26563-.03125-.1211-.04297-.08593-.0586-.07422-.07421v-.14844l.01172-.13281.10547-.04688.10156-.04296.13281-.01563h.15235l.13281-.01562h.29297l.1211.03125.10156.04296.08984.0586.23438.0625.12109-.04688.08984-.05859.10156-.04297.13282-.01562.10547.04296.10156.04688.13281.01172.1211-.02735h.14453l.12109-.03125.11719-.02734.10547-.04687.07421-.07422.08594-.0586.14844-.14843.0586-.08594.04687-.10547.02734-.11719.01563-.10547-.10156-.04296-.08985-.0586-.11719-.03125-.10546-.04297-.08985-.0625-.07422-.08594-.07422-.07421-.10156-.04297-.10547-.04688-.10156-.04297-.0586-.08984-.04687-.10156-.08594-.21094-.0625-.08594-.05859-.08984-.07422-.07422-.08594-.0586h-.26953l-.11719.03126-.08984.05859-.10156.04297-.13281.01562-.10547-.01562-.02735-.11719-.0625-.08984-.11718-.03125-.10157-.04297-.14843-.14844-.03125-.11719-.01563-.10546.07422-.07422.17969-.1172.11719-.02733.11718-.03125.13672.01562.10156.04297.10547.04297.10156.04687.10547.04297.1172.03125.1328.01563.1172.02734.1328.01563.10547-.01563.08985-.0586-.07422-.07421-.10547-.04297-.07422-.07422-.07422-.08984-.14844-.14844-.08593-.0586-.08985-.05859-.07422-.07422-.08984-.0586-.10156-.04687-.1211-.02734-.10156-.04688-.10547-.04296-.11719-.03125-.10156-.04297-.1211-.03125h-.14843l-.11719.03125-.10546.04297-.08594.0625-.17969.11718-.08594.0586-.08984.0586-.10547.04687-.08594.05859-.10547.04297-.10156.04297-.10547.04687-.07422.07422-.05859.08985-.0586.08593-.04687.10547-.0586.08594-.07421.07422-.13281-.01172-.1172-.03125h-.11718l-.07422.07422-.08984.0586-.07422.07421-.08984.0586-.08594.05859-.10547.04687-.10156.04297-.13672.01563-.10156-.04297-.14844-.14844-.10547-.04688h-.08594l-.10547.04688-.10156.04297-.1211.03125-.11718-.03125-.07422-.07422v-.11719l.03125-.1211.07422-.0703.0586-.08985.07421-.07422.11719-.03125.10547-.04296h.29297l.13281-.01563.13672-.01563.10156-.04296.08985-.0586.10156-.04687.08984-.0586.13281-.01171.08985.05859.13281.01172.08984-.0586.08594-.05859.10547-.04297.08984-.0586.08594-.0625.08985-.05859.14843-.14843.0586-.08594.05859-.08985.10547-.04296.13281-.01563.11719.02735.1211.03125.05859-.0586.05859-.08984.03125-.26563.02734-.11719.10547.01172.13281.01563.10157-.04297.08984-.0586.0586-.08984.07421-.07422.0586-.08984.04687-.10156.01172-.13281-.01172-.13282-.04687-.10547-.14844-.14843-.0586-.08985-.05859-.08594-.04297-.10546v-.44532l.01563-.1328v-.14845l.01172-.1328-.0586-.0586-.08984.0586-.10156-.04298-.17969-.11719-.08594-.05859-.0625-.08984-.0586-.08985-.07421-.07421-.08594-.0586-.1211.03125-.10155.01172-.10547.04688-.08594.05859-.10547.04297-.14844.14844-.08984.05859-.08594.0586-.08984.0625-.10547.04296-.13281.01563v-.1211l.10547-.04297.11718-.03125.07422-.0703.04297-.10548v-.14844l-.02734-.11718-.14844-.14844-.13281-.01563h-.14844l-.11719.03125-.10547.04297-.10156.04297-.08984.0625-.11719.02735-.07422-.07422.01172-.13281-.04297-.10157-.04297-.10547-.08984-.05859-.11719.02734-.1211.03125-.11718.03125-.10156.04297-.1211.03125-.10156.04297-.10547.04297-.08984.0586-.10156.01562v-.11719l.01562-.13281-.0586-.08985-.07421.04297-.14844.14844-.0586.08985-.07421.07421-.04688.10547-.04296.10156-.07422.07422-.0586.08985-.07422.07422-.05859.08593-.07422.07422-.08984.0625-.07422.07031-.07422.07422-.10156.01563-.13281.01562-.10547-.04296v-.1211l.14843-.14844.04297-.10156.0586-.08984.04687-.10156.04297-.10547.0586-.08985.03124-.11719.04297-.10156.03125-.1211.02735-.11718.04687-.10547.04297-.10156.04297-.10547.07422-.07031.08984-.0625.08985-.0586.10156-.04296h.29687l.26563-.03125.10547-.04297-.07422-.07422-.11719-.03125-.10547-.04297-.08984-.0586-.10156-.04687-.08985-.0586-.10156-.04296-.10547-.04297-.08984-.0625-.08594-.0586-.10547-.04296-.10156-.04297-.1211-.03125-.11718-.03125-.10157-.04297L297.5 410.25l-.10156-.04297-.08985-.0586-.04296-.10546-.01563-.13281.10156-.04297.13281-.01563.13672.01563.13282-.01563.10156-.04297.0586-.08984.01562-.10547-.08985-.0586-.07421-.07421-.10157-.04297-.08984-.0586-.14844-.14843-.04297-.10547-.01562-.13281v-.29297l-.0586-.08985-.08984-.05859-.07422-.07422-.04297-.10547-.03125-.11718-.0586-.08985-.07421-.07422-.11719-.02734-.07422-.07422-.08984-.0586-.08984-.0625-.08594-.05859-.07422-.07421-.0586-.08594-.04687-.10547-.08594-.0586-.14843-.14843-.19532-.0586-.1328.01563-.10157.04297-.07422.07422-.04688.10156-.04296.10547-.0586.08984-.0586.08594-.29687.29687-.08984.0586h-.08594l-.0625-.08594-.04297-.10547.03125-.11719.0586-.08984.02734-.11719-.01172-.13281-.08984-.0625-.10547.04688-.11719.02734-.11719.03125-.26953.17578-.10156.04688-.11719.02734-.10546.04687-.08985.0586-.10156.04297-.0586-.08594-.04687-.10547.01563-.13281.04687-.10547.07031-.07422.07422-.07031.0586-.08985v-.14843l-.04297-.10547h-.23829l-.10156.04687-.03125.11719-.02734.11719-.03125.1211-.07422.04296-.13281.01563-.07422-.04688-.04297-.10156-.04297-.10547-.04687-.10156-.04297-.10547-.1211.03125-.10156.04297-.13281.01562-.11719.03125-.10547.04297-.08984.0586-.10156.04687-.1211.02734-.13281.01563-.10156-.04297-.0586-.08985-.04687-.10546-.04297-.10157-.04297-.10546v-.1172l.0586-.08984.08593-.05859.17969-.11719.10156-.04687.10547-.04297.10547-.0586.10156-.04296.08985-.0625.10156-.04297.10547-.0586.10156-.04687.08984-.0586.10547-.04296.10156-.04297.08985-.0625.10156-.04297.13672-.01563.11719.03125.10156.04297.1211.03125.10156.04297.10546.04688.10157.04296.10547.04297.10156.04688.10547.04297.10156.04297.10547.04687.08594.0586.10546.04296.1172.03125.10546.04297.10156.04688.08985.0586.10547.04296.10156.04297.10547.04687.11719.02735.10156.04687.1211.02735h.14843l.08594-.0586.01562-.10156.0586-.08984-.02735-.1172-.07422-.07421-.11719-.17969-.07421-.07422-.08985-.07421-.17969-.1172-.08593-.05859-.10547-.04296-.10156-.04688-.26954-.17578-.05859-.08985-.07422-.07421-.0586-.08985-.04296-.10156-.03125-.11719-.01563-.13672v-.5625l-.01171-.1328-.01563-.13282-.03125-.11719-.01562-.13281-.01172-.13281-.03125-.1211-.22266-.22265-.0586-.08594-.01562-.10547.03125-.11719.13281-.01562v-91.41406H172.9922v1.45312l-.0586.23438-.35156 1.05078-.17187.52343-.1172.34766-.17577.41016-.11719.17187-.23438.29297-.23046.0586h-.35157l-.11718.05859-.23047.40625v.29297l.11719.17578.23046.23047.1172.23437.64062.75781.29297.46485.17578.23437.23047.35156.23437.34766.64063.8164.17578.46485.17187.41016.11719.69531.17578.46875.11719 1.39844.0586.46484v.875l.11718 1.04688v4.78125l-.0586.46484-.35156 1.28125-.17578.52344-.11328.41015-.35156.9297L172.93359 336l-.23437.58203-.11719.17578-.17187.34766-.17578.40625-.35157.8164-.0586.29297-.11327.29297-.11719.28906-.0586.17579-.11718.875-.0586.40625-.05859.11718-.0586.17579-.05859.17187-.23047.52734-.11718.17188v.23437l-.11719.23438-.0586.17187-.17577.58594v.28906l-.0586.17579v.29296l-.0586.11329-.05859.52734v.17187l-.05468.23438v2.6211l-.17578.8164-.1172.17578-.17577.23438-.1172.17187-.11327.23438-.58594.93359-.23047.28906-.29297.46485-.17578.23437-.28906.35156-.35156.69922-.11328.23047-.17579.41016-.17578.23046-.40625.52735-.8164.69922-.29297.17187-.28906.23438-.17579.11719-.17578.17578-.52344.40625-.52734.17578-.17187.17578-.23438.05469-.64062.17578h-.75782m12.21094 31.02344l-1.07422.44921.35938.89454 1.25-.71485.44531-.53906-.98047-.08985"/><path fill="#d3d3d3" fill-opacity="0" fill-rule="evenodd" d="M201.50781 416.59766h-.89453l.44922.6289.98047.35938.80469-.08985.4453-.98828-.17577.08985-.71485-.35547-.89453.35547m154.6211 59.0703l-.0586-.52343v-.29297l.11328-.29297.0586-.23046.46875-.46875h.11328l.11719-.11329.11718-.05859h.17579l.23437-.0586h.34766l.23437.0586.11719.0586.23047.17187.0586.17578.11718.58203v.29297l-.11719.17578-.17187.28906-.17579.17579-.52734.52343-.23047.23438-.11719.0586h-.17578l-.11718-.0586-.40625-.29297-.17579-.11719-.11718-.0586-.0586-.11327-.05468-.1172m6.64062-10.95702l-.0586-.17188v-1.10937l.0586-.17188.17578-.0586.17188-.05858h.17578l.23437-.0586.1172.0586.05858.69921-.05859.17188-.11719.17578-.11718.0586-.23438.52343-.11328.0586h-.23438l-.05859-.1172m9.61328-14.39062l-.11719-.17578v-.69922l.29297-.875.1172-.17187.17577-.35156.11328-.23047.1172-.29297.35155-.75781.1172-.23047.17187-.23438h.17578l.11719-.0586h.64062l.11719.0586.23437.23438.17188.11328.35156.29297.11719.11718.11328.17579v.11328l.11719.05859.11718.11719v.69922l-.05859.17578v.23047l-.0586.17578-.34765 1.05078-.11719.23047-.11719.23437-.11718.0586-.23047.23437-.64063.28906h-.875l-.41015-.11718-.64063-.46485"/><path fill="none" stroke="#bebebe" stroke-linecap="round" stroke-linejoin="round" stroke-miterlimit="10" stroke-width=".5" d="M467.95703 311.69531H144.02734v168.625h323.9297v-168.625"/><g clip-path="url(#a)"><path fill="#fff" fill-opacity="0" fill-rule="evenodd" d="M144 475.89063v4.4375h.0039H144V311.67188h.0039H144v164.21875"/></g><g clip-path="url(#b)"><path fill="#fff" fill-opacity="0" fill-rule="evenodd" d="M144.0039 480.32813V311.67188h75.44923v115.05859l-.34375.33984.34375.39844.46875-.39844-.46875-.33984v-115.0586h4.4375v144.96094l-3.0586 1.5039 3.0586.53517 4.4375-.39454.96484-.14062-.96484-.60938-4.4375-.89453V311.67187h22.1914v113.21485l-4.4375.0039-3.40234 2.1797-1.03516 1.19921-4.4414-.83594-4.4375.21094-3.97657 3.86328 3.97656 3.6836 1.25.7539 3.1875 2.72656 4.44141.65235v8.88281l-4.14453 1.05469 4.14453 3.16015 4.4375-2.70312.33594-.45703-.33594-.21485-4.4375-.83984v-8.88281l1.47656 1.0586 2.96094 2.91015 4.4375.00781 2.82031-2.91797-.2539-4.4375.66406-4.4375-1.15234-4.4375-2.07813-2.1836V311.67189h39.94531V417.0664l-1.13671 1.125-3.30079 1.66796-4.4375 1.01172-2.01171 1.75782-2.4297 3.3164-1.1914 1.125-3.2461.75-3.8828 3.6875 3.8828 3.5625 4.4375-.64453 4.44141-.44531 3.71485 1.96484.72265.73828.7422-.73828.33983-4.4375-.82812-4.4375 4.1836-.71484 1.39062.71484 3.04687 2.1211V453l-3.20312.69922-1.23438.77734-1.125 3.66016 1.125 1.6914 4.4375-.08984 2.82032-1.60156-1.76172-4.4375-1.0586-.69922v-23.8086l2.1172-2.12109 2.3203-.96875 3.48047-3.47265-3.48047-3.85938-4.4375.1289-3.15234-.70702-1.28516-1.125V311.67187h26.62891v102.75391l-3.89844 3.76563.78125 4.4375 3.11719 3.10937 3.01563-3.10937.75-4.4375-3.76563-3.76563v-102.7539h4.4414V448.5l-1.89843.76172-2.54297.91015-4.4375 1.07032-4.4375 1.73047-1.42578.72656-3.01172 4.19922-.5586.23828.5586.08203 4.4375 1.7539 4.4375-.19921 4.4375-.39063 2.71875-1.2461 1.72266-2.09374 1.71875-2.34375-.0586-4.4375-1.66015-.76172V311.67187h31.0664v113.54688l-3.3711 1.85156 3.125 4.4375.2461.5625.64844 3.875 3.78906 3.86328 1.41406.57422 3.02735 1.96094 1.94922-1.96094 2.28515-4.4375-4.23437-4.32812-4.4414.89062-4.08594-1 1.87109-4.4375-2.22266-1.85156V311.67187h31.07031v119.89454l-4.27734 4.3789-.16406 2.1875-.6836 2.25-3.7539 1.28125-4.4375 3.14844-.01953.00781.01953.0586.52734 4.3828-.52734.73438-4.4375-.39453-4.4375-.0586-2.82031-.28124-1.6211-.23047-.35547.23047-4.08203 2.22656-1.32422 2.21094.53907 4.4375.78515.49219 4.4375 1.375 4.4414.01171 4.4375-1.71875.47267-.16015 3.96484-1.05469.54297 1.05469 1.29687 4.4375 2.59766 3.02344 4.4375-.7422 4.4414-1.92187.60938-.35937 3.33594-4.4375.49219-.61328 3.8164-3.82422-.63281-4.4375 1.2539-4.25781 4.4375 3.01953v6.98828l-3.78515 3.125-.65235.42578-3.4453 4.01172 3.4453 3.07031 4.4375-.4336 4.4375-1.98046.76172-.65625-.76171-.90625-1.3672-3.53125-3.0703-3.125v-6.98828l4.4375-2.5 3.72265 3.73828-3.33984 4.4375 4.0586 3.83203v14.79297l-4.44142 1.4336-2.41406 2.1328 2.41406 2.07032 4.44141 1.77734 3.25781-3.84765-3.2578-3.56641v-14.79297l3.72265-3.83203-3.07813-4.4375-.64453-.90625-3.55078-3.53516-.89063-.88281-4.4375-2.9414-.48046-.61329-3.95704-2.16797-1.51171-2.26953-2.92579-3.46875-4.4375-.91015V311.67187h88.76172v168.65625H144.00391"/></g><path fill="#50fcfc" fill-rule="evenodd" d="M219.45313 427.46875l-.34375-.39844.34375-.33984.46875.33984-.46875.39844m4.4375 31.20313l-3.0586-.53516 3.0586-1.5039 4.4375.89452.96484.60938-.96484.14062-4.4375.39454m4.4375-23.48047l-3.97657-3.6836 3.97656-3.86328 4.4375-.21094 4.44141.83594 1.03516-1.19922 3.40234-2.17969v3.21094l-3.29687 3.40625-1.14063 1.83985-1.75-1.83985-2.6914-2.00781-4.4375.21094-1.84766 1.79687 1.84766 1.71094 4.4375 2.625.10937.10156 4.33203 1.58985 3.96875 2.84765.46875.46094 4.4375-.34375.11328-.11719-.11328-.50781-.77344-3.92969.77344-1.67578 1.1211-2.76172-1.1211-2.07031-4.4375-1.33594v-3.21094l4.4375-.0039 2.07813 2.1836 1.15234 4.4375-.66406 4.4375.2539 4.4375-2.8203 2.91796-4.4375-.00781-2.96095-2.91016-1.47656-1.0586-4.4414-.65233-3.1875-2.72657-1.25-.7539"/><path fill="#00e8fc" fill-rule="evenodd" d="M228.32813 433.21875l-1.84766-1.71094 1.84766-1.79687 4.4375-.21094 2.6914 2.00781 1.75 1.83985 1.14063-1.83985 3.29687-3.40625v3.1289l-.26953.27735.26953 2.2461.50781-2.2461-.5078-.27734v-3.1289l4.4375 1.33593 1.12108 2.07031-1.12109 2.76172-.77344 1.67578.77344 3.92969.11328.50781-.11328.11719-4.4375.34375-.46875-.46094-3.96875-2.84765-4.33203-1.58985-.10938-.10156-4.4375-2.625"/><path fill="#50fcfc" fill-rule="evenodd" d="M237.20703 452.42188l-4.14453-3.16016 4.14453-1.05469 4.4375.83985.33594.21484-.33594.45703-4.4375 2.70313"/><path fill="#00d4fc" fill-rule="evenodd" d="M241.64453 433.7539l-.26953-2.24609.26953-.27734.50781.27734-.5078 2.2461"/><path fill="#50fcfc" fill-rule="evenodd" d="M268.27344 435.07031l-3.88281-3.5625 3.8828-3.6875v1.57422l-2.22265 2.11328 2.22266 2.04297 4.4375-1.48437 2.4336-.5586-2.4336-.99219-4.4375-1.12109v-1.57422l3.2461-.75 1.1914-1.125 2.42969-3.3164 2.01171-1.75782v3.60938l-3.4375 2.58984 3.4375 1.89844 4.31641-1.89844-4.3164-2.58984v-3.60938l4.4375-1.01171 3.30077-1.66797 1.13672-1.125 1.28516 1.125 3.15234.70703v1.28125l-4.4375.85937-4.4375 1.38281-.55859.20704.5586.34375 4.4375.78125 4.4375 2.54687 4.4375-1.65625 2.01562-2.01562-2.01563-2.23438-4.4375-.21484v-1.28125l4.4375-.1289 3.48047 3.85937-3.48047 3.47265-2.3203.96875-2.1172 2.1211-3.04687-2.1211-1.39063-.71484-4.18359.71484.82813 4.4375-.33985 4.4375-.74219.73828-.72265-.73828-3.71485-1.96484-4.4414.44531-4.4375.64453"/><path fill="#00e8fc" fill-rule="evenodd" d="M268.27344 433.55078l-2.22266-2.04297 2.22266-2.11328 4.4375 1.1211 2.4336.99218-2.4336.5586-4.4375 1.48437"/><path fill="#fff" fill-opacity="0" fill-rule="evenodd" d="M277.15234 424.48047l-3.4375 2.58984 3.4375 1.89844 4.31641-1.89844-4.3164-2.58984"/><path fill="#00e8fc" fill-rule="evenodd" d="M281.58984 422.97266l-.55859-.34375.5586-.20704 4.4375-1.3828 4.4375-.85938v2.14062l-.72657.3086.72656.46875 2.02735-.46875-2.02735-.3086v-2.14062l4.4375.21484 2.01563 2.23438-2.01563 2.01562-4.4375 1.65625-4.4375-2.54687-4.4375-.78125"/><path fill="#50fcfc" fill-rule="evenodd" d="M286.02734 459.82813l-1.125-1.69141 1.125-3.66016 1.23438-.77734L290.46484 453l1.0586.69922 1.76172 4.4375-2.82032 1.60156-4.4375.08985"/><path fill="#00d4fc" fill-rule="evenodd" d="M290.46484 423.09766l-.72656-.46875.72656-.3086 2.02735.3086-2.02735.46875"/><path fill="#50fcfc" fill-rule="evenodd" d="M299.34375 458.21875l-.5586-.08203.5586-.23828 3.01172-4.19922 1.42578-.72656 4.4375-1.73047 4.4375-1.07031 2.54297-.91016 1.89844-.76172 1.66015.76172.0586 4.4375-1.71875 2.34375-1.72266 2.09375-2.71875 1.2461-4.4375.39062-4.4375.19922-4.4375-1.75391m10.19531-35.58984l-.78125-4.4375 3.89844-3.76563v1.01172l-2.85156 2.7539 1.97265 4.4375.87891.875.85156-.875 1.90235-4.4375-2.75391-2.7539v-1.01172l3.76563 3.76563-.75 4.4375-3.01563 3.10937-3.11719-3.10937"/><path fill="#00e8fc" fill-rule="evenodd" d="M311.77734 422.6289l-1.97265-4.4375 2.85156-2.7539v1.6875l-1.10156 1.0664 1.10156 2.00782 1.0664-2.00781-1.0664-1.06641v-1.6875l2.7539 2.7539-1.90234 4.4375-.85156.875-.8789-.875"/><path fill="#00d4fc" fill-rule="evenodd" d="M312.65625 420.19922l-1.10156-2.00781 1.10156-1.06641 1.0664 1.0664-1.0664 2.00782"/><path fill="#50fcfc" fill-rule="evenodd" d="M347.91797 431.50781l-3.125-4.4375 3.3711-1.85156 2.22265 1.85156-1.8711 4.4375 4.08594 1 4.4414-.89062v1.29297l-4.4414 2.05078-1.08203.98437 1.08203 1.10547 4.4414 2.48438 2.96876-3.58985-2.96875-3.03515v-1.29297l4.23437 4.32812-2.28515 4.4375-1.94922 1.96094-3.02735-1.96094-1.41406-.57422-3.78906-3.86328-.64844-3.875-.2461-.5625m-.53905 26.6289l-.53907-4.4375 1.32422-2.21093 4.08203-2.22656.35547-.23047 1.6211.23047 2.8203.28125 4.4375.0586 4.4375.39452.52735-.73437-.52734-4.38281-.01953-.0586.01953-.00781 4.4375-3.14844 3.7539-1.28125.6836-2.25.16406-2.1875 4.27735-4.3789v3.28906l-1.06641 1.08984 1.0664.98047 4.4375-.8711V439.75l-4.4375.13672-3.38671.4961 2.02343 4.4375 1.36329.66015v1.9375l-3.25391 1.84375-1.1875.71875-4.4375.375-2.3164 3.34375 1.46093 4.4375.85547 3.36328 4.4375-.09375 4.4414.01172 2.8711-3.28125 1.5664-1.95313 2.48047-2.48437-2.25-4.4375-.23046-.23438-4.4375-1.60937v-1.9375l4.4375.55469 4.25-1.21485-3.12891-4.4375-1.1211-.63281v-3.69531l.08204-.10938-.08204-.09765-4.4375-.9922v-3.28905l4.4375.91015 2.92579 3.46875 1.51171 2.26953 3.95704 2.16797.48046.61328 4.4375 2.94141.89063.88281 3.55078 3.53516v4.23828l-.95703 1.10547.95703.90234.875-.90234-.875-1.10547v-4.23828l.64453.90625 3.07813 4.4375-3.72266 3.83203-4.0586-3.83203 3.33985-4.4375-3.72265-3.73828-4.4375 2.5-4.4375-3.01953-1.25391 4.2578.63281 4.4375-3.8164 3.82423-.4922.61328-3.33593 4.4375-.60938.35937-4.4414 1.92188-4.4375.74219-2.59766-3.02344-1.29687-4.4375-.54297-1.05469-3.96485 1.05469-.47265.16015-4.4375 1.71875-4.4414-.01171-4.4375-1.375-.78516-.4922"/><path fill="#00e8fc" fill-rule="evenodd" d="M352.60156 437.05078l-1.08203-1.10547 1.08203-.98437 4.4414-2.05078v2.15625l-1.55468.8789 1.55469 1.04297.85937-1.04297-.85937-.8789v-2.15625l2.96875 3.03515-2.96875 3.58985-4.4414-2.48438"/><path fill="#00d4fc" fill-rule="evenodd" d="M357.04297 436.98828l-1.55469-1.04297 1.55469-.8789.85937.8789-.85937 1.04297"/><path fill="#00e8fc" fill-rule="evenodd" d="M369.5 458.13672l-1.46094-4.4375 2.3164-3.34375 4.4375-.375 1.1875-.71875 3.25392-1.84375v3.4336l-4.44141 2.59374-.40625.2539.40625.5586 2.01953 3.8789 2.42188 1.23438 1.07812-1.23437 3.35938-4.1836.2539-.2539-.2539-.47656-4.4375-2.3711v-3.4336l4.4375 1.60938.23046.23438 2.25 4.4375-2.48046 2.48437-1.56641 1.95313-2.8711 3.28125-4.4414-.01172-4.4375.09375-.85547-3.36328"/><path fill="#00d4fc" fill-rule="evenodd" d="M374.79297 454.25781l-.40625-.5586.40625-.2539 4.4414-2.59375 4.4375 2.3711.25391.47656-.2539.2539-3.35938 4.1836-1.07813 1.23437-2.42187-1.23437-2.01953-3.8789"/><path fill="#fff" fill-opacity="0" fill-rule="evenodd" d="M379.23438 439.88672l-3.38672.4961 2.02343 4.4375 1.36329.66015 4.4375.55469 4.25-1.21485-3.12891-4.4375-1.1211-.63281-4.4375.13672"/><path fill="#00e8fc" fill-rule="evenodd" d="M379.23438 436.92578l-1.06641-.98047 1.0664-1.08984 4.4375.99219.08204.09765-.08204.10938-4.4375.8711"/><path fill="#50fcfc" fill-rule="evenodd" d="M388.10938 465.64453l-3.44532-3.07031 3.44531-4.01172v3.13281l-.7539.8789.7539.67188 3.44532-.67187-3.44531-.8789v-3.13282l.65234-.42578 3.78515-3.125 3.07032 3.125 1.36719 3.53125.76171.90625-.76171.65625-4.4375 1.98047-4.4375.4336"/><path fill="#00e8fc" fill-rule="evenodd" d="M388.10938 463.2461l-.75391-.67188.7539-.8789 3.44532.8789-3.44531.67187"/><path fill="#50fcfc" fill-rule="evenodd" d="M396.98438 477.96094l-2.41407-2.07031 2.41406-2.13282 4.44141-1.4336v2.89845l-1.44922.66796 1.44922.71875.60938-.71875-.60938-.66796v-2.89844l3.25781 3.5664-3.2578 3.84766-4.44142-1.77734"/><path fill="#00e8fc" fill-rule="evenodd" d="M401.42578 476.60938l-1.44922-.71875 1.44922-.66797.60938.66796-.60938.71875m0-22.0078l-.95703-.90235.95703-1.10547.875 1.10547-.875.90234"/><g clip-path="url(#c)"><path fill="#fff" fill-opacity="0" fill-rule="evenodd" d="M467.9961 480.32813H468V311.67188h-.0039H468v168.65625h-.0039"/></g><path fill="#fff" fill-opacity="0" fill-rule="evenodd" d="M386.58984 450.9336l5.5-1.96876-3.35546-9.3789-5.5 1.96875 3.35546 9.3789"/><path fill-rule="evenodd" d="M387.14453 442.10156l.48047-.17187 2.1211 5.92969-.7422.26171-1.51171-4.22656-1.3086.46875-.1875-.52344.50782-.25.21875-.13671.1875-.16016.14062-.20313.09375-.2539.03516-.32422-.03516-.41016"/><g clip-path="url(#d)"><path fill="none" stroke="#000" stroke-linecap="round" stroke-linejoin="round" stroke-miterlimit="10" stroke-width=".5" d="M147.4375 481.04688l-6.875-1.4375"/></g><g clip-path="url(#e)"><path fill="none" stroke="#000" stroke-linecap="round" stroke-linejoin="round" stroke-miterlimit="10" stroke-width=".5" d="M146.4375 480.83984l.34375 1.17578"/></g><g clip-path="url(#f)"><path fill="none" stroke="#000" stroke-linecap="round" stroke-linejoin="round" stroke-miterlimit="10" stroke-width=".5" d="M160.67188 481.35938l-6.71485-2.0625"/></g><g clip-path="url(#g)"><path fill="none" stroke="#000" stroke-linecap="round" stroke-linejoin="round" stroke-miterlimit="10" stroke-width=".5" d="M159.69531 481.0586l.23438 1.20702"/></g><g clip-path="url(#h)"><path fill="none" stroke="#000" stroke-linecap="round" stroke-linejoin="round" stroke-miterlimit="10" stroke-width=".5" d="M173.9961 481.33594l-6.73048-2.01172"/></g><g clip-path="url(#i)"><path fill="none" stroke="#000" stroke-linecap="round" stroke-linejoin="round" stroke-miterlimit="10" stroke-width=".5" d="M173.01563 481.04297l.24218 1.20312"/></g><g clip-path="url(#j)"><path fill="none" stroke="#000" stroke-linecap="round" stroke-linejoin="round" stroke-miterlimit="10" stroke-width=".5" d="M187.44531 480.64453l-7-.63281"/></g><g clip-path="url(#k)"><path fill="none" stroke="#000" stroke-linecap="round" stroke-linejoin="round" stroke-miterlimit="10" stroke-width=".5" d="M186.42578 480.55469l.47656 1.1289"/></g><g clip-path="url(#l)"><path fill="none" stroke="#000" stroke-linecap="round" stroke-linejoin="round" stroke-miterlimit="10" stroke-width=".5" d="M200.69922 481.05078l-6.8789-1.4414"/></g><g clip-path="url(#m)"><path fill="none" stroke="#000" stroke-linecap="round" stroke-linejoin="round" stroke-miterlimit="10" stroke-width=".5" d="M199.69922 480.83984l.33984 1.1797"/></g><g clip-path="url(#n)"><path fill="none" stroke="#000" stroke-linecap="round" stroke-linejoin="round" stroke-miterlimit="10" stroke-width=".5" d="M213.83203 481.64453l-6.51562-2.6289"/></g><g clip-path="url(#o)"><path fill="none" stroke="#000" stroke-linecap="round" stroke-linejoin="round" stroke-miterlimit="10" stroke-width=".5" d="M226.54297 482.63281l-5.30469-4.60547"/></g><g clip-path="url(#p)"><path fill="none" stroke="#000" stroke-linecap="round" stroke-linejoin="round" stroke-miterlimit="10" stroke-width=".5" d="M239.625 482.875l-4.83984-5.09375"/></g><g clip-path="url(#q)"><path fill="none" stroke="#000" stroke-linecap="round" stroke-linejoin="round" stroke-miterlimit="10" stroke-width=".5" d="M253.75 481.71094l-6.46094-2.76563"/></g><g clip-path="url(#r)"><path fill="none" stroke="#000" stroke-linecap="round" stroke-linejoin="round" stroke-miterlimit="10" stroke-width=".5" d="M267.32031 480.76953l-6.96875-.8789"/></g><g clip-path="url(#s)"><path fill="none" stroke="#000" stroke-linecap="round" stroke-linejoin="round" stroke-miterlimit="10" stroke-width=".5" d="M266.3086 480.64063l.43359 1.14843"/></g><g clip-path="url(#t)"><path fill="none" stroke="#000" stroke-linecap="round" stroke-linejoin="round" stroke-miterlimit="10" stroke-width=".5" d="M280.64844 480.64844l-6.9961-.64063"/></g><g clip-path="url(#u)"><path fill="none" stroke="#000" stroke-linecap="round" stroke-linejoin="round" stroke-miterlimit="10" stroke-width=".5" d="M279.63281 480.55469l.47266 1.13281"/></g><g clip-path="url(#v)"><path fill="none" stroke="#000" stroke-linecap="round" stroke-linejoin="round" stroke-miterlimit="10" stroke-width=".5" d="M293.95313 480.75781l-6.97657-.85547"/></g><g clip-path="url(#w)"><path fill="none" stroke="#000" stroke-linecap="round" stroke-linejoin="round" stroke-miterlimit="10" stroke-width=".5" d="M292.9375 480.63281l.4414 1.14453"/></g><g clip-path="url(#x)"><path fill="none" stroke="#000" stroke-linecap="round" stroke-linejoin="round" stroke-miterlimit="10" stroke-width=".5" d="M307.29297 480.36719l-7.02735-.07813"/></g><g clip-path="url(#y)"><path fill="none" stroke="#000" stroke-linecap="round" stroke-linejoin="round" stroke-miterlimit="10" stroke-width=".5" d="M307.29297 480.36719l1.1289 2.17969"/></g><g clip-path="url(#z)"><path fill="none" stroke="#000" stroke-linecap="round" stroke-linejoin="round" stroke-miterlimit="10" stroke-width=".5" d="M320.59375 479.9961l-6.9961.66406"/></g><g clip-path="url(#A)"><path fill="none" stroke="#000" stroke-linecap="round" stroke-linejoin="round" stroke-miterlimit="10" stroke-width=".5" d="M319.57422 480.09375l.67578 1.02344"/></g><g clip-path="url(#B)"><path fill="none" stroke="#000" stroke-linecap="round" stroke-linejoin="round" stroke-miterlimit="10" stroke-width=".5" d="M332.07422 483.42578l-3.32422-6.1914"/></g><g clip-path="url(#C)"><path fill="none" stroke="#000" stroke-linecap="round" stroke-linejoin="round" stroke-miterlimit="10" stroke-width=".5" d="M341.82813 483.28516l3.79687-5.91407"/></g><g clip-path="url(#D)"><path fill="none" stroke="#000" stroke-linecap="round" stroke-linejoin="round" stroke-miterlimit="10" stroke-width=".5" d="M355.36719 483.41797l3.34765-6.17969"/></g><g clip-path="url(#E)"><path fill="none" stroke="#000" stroke-linecap="round" stroke-linejoin="round" stroke-miterlimit="10" stroke-width=".5" d="M368.2539 483.14453l4.20313-5.63281"/></g><g clip-path="url(#F)"><path fill="none" stroke="#000" stroke-linecap="round" stroke-linejoin="round" stroke-miterlimit="10" stroke-width=".5" d="M380.16016 480.44531l7.02343-.23437"/></g><g clip-path="url(#G)"><path fill="none" stroke="#000" stroke-linecap="round" stroke-linejoin="round" stroke-miterlimit="10" stroke-width=".5" d="M381.17969 480.41406l-.60938-1.0664"/></g><g clip-path="url(#H)"><path fill="none" stroke="#000" stroke-linecap="round" stroke-linejoin="round" stroke-miterlimit="10" stroke-width=".5" d="M394.35938 477.9961l5.2539 4.66406"/></g><path fill="none" stroke="#000" stroke-linecap="round" stroke-linejoin="round" stroke-miterlimit="10" stroke-width=".5" d="M395.1211 478.67578l.28906-1.1914"/><g clip-path="url(#I)"><path fill="none" stroke="#000" stroke-linecap="round" stroke-linejoin="round" stroke-miterlimit="10" stroke-width=".5" d="M406.79297 480.13281l7.01562.39453"/></g><g clip-path="url(#J)"><path fill="none" stroke="#000" stroke-linecap="round" stroke-linejoin="round" stroke-miterlimit="10" stroke-width=".5" d="M407.8125 480.1875l-.51172-1.11328"/></g><g clip-path="url(#K)"><path fill="none" stroke="#000" stroke-linecap="round" stroke-linejoin="round" stroke-miterlimit="10" stroke-width=".5" d="M422.17188 483.53125l2.89062-6.40625"/></g><g clip-path="url(#L)"><path fill="none" stroke="#000" stroke-linecap="round" stroke-linejoin="round" stroke-miterlimit="10" stroke-width=".5" d="M435.6914 483.61719l2.48048-6.57422"/></g><g clip-path="url(#M)"><path fill="none" stroke="#000" stroke-linecap="round" stroke-linejoin="round" stroke-miterlimit="10" stroke-width=".5" d="M449.09375 483.64844l2.30469-6.64063"/></g><g clip-path="url(#N)"><path fill="none" stroke="#000" stroke-linecap="round" stroke-linejoin="round" stroke-miterlimit="10" stroke-width=".5" d="M466.60938 482.07422l-6.09766-3.49219"/></g><g clip-path="url(#O)"><path fill="none" stroke="#000" stroke-linecap="round" stroke-linejoin="round" stroke-miterlimit="10" stroke-width=".5" d="M147.51172 466.90234l-7.02344.22266"/></g><path fill="none" stroke="#000" stroke-linecap="round" stroke-linejoin="round" stroke-miterlimit="10" stroke-width=".5" d="M146.48828 466.9336l.61328 1.0664m13.45313.375l-6.48047-2.71875m5.53906 2.32031l.10938 1.22266m13.8828-.3164l-5.94921-3.73829m5.08203 3.19531l-.08984 1.22266m14.6211-1.41016l-6.64845-2.27734m5.6797 1.94531l.1953 1.21094m14.20313-1.29688l-6.8789-1.4414m5.8789 1.23437l.33984 1.17578m14.05078-1.67968l-7.02734-.01953m6.0039.01562l.57423 1.08594m13.70703-.46094l-6.91407-1.26172m6.91407 1.26172l.74218 2.33984m12.59766-2.5l-6.96484-.9414m5.95312.80469l.42578 1.14843m13.92969-1.3828l-7.02344-.19923m6.0039.16797l.54298 1.10156m13.7539-1.70703l-6.9453 1.07422m5.93358-.91797l.73438.98438m13.59766-1.10157l-6.95703.9961m5.9453-.85156l.72266.99218m13.40235.625L287.1875 465.75m5.60156 2.16016l.14844 1.21875m13.3125.38671l-4.9375-5.0039m4.21875 4.27734l-.36719 1.16797m14.3711-.41406l-4.87891-5.0586m15.98047 6.03516l-.44922-7.01172m15.0625 6.67188l-3.04688-6.33203m2.60547 5.41015l-.72656.98828m11.21484-.18359l3.48829-6.09766m8.1953 4.02344l6.75-1.94922m-5.76952 1.66406l-.85157-.8789m13.30079 1.49219l6.52343-2.60547m-5.57422 2.22656l-.9375-.79297m13.15625.71484l6.81641-1.6914m-5.82422 1.44531l-.82031-.91406m13.11328 1.03906l6.875-1.44922m-5.875 1.23828l-.78516-.9414m13.02735.30078l7.02344.2539m-6.00391-.21484l-.53516-1.10547m13.0547 2.42969l6.57421-2.47266m-5.61719 2.11328l-.92187-.8125m15.45703 3.26954l2.22265-6.66797m8.6875 3.35156l7.02735-.03516m-6.0039.03125l-.58204-1.08203"/><g clip-path="url(#P)"><path fill="none" stroke="#000" stroke-linecap="round" stroke-linejoin="round" stroke-miterlimit="10" stroke-width=".5" d="M147.44531 453.00781l-6.89062 1.38281"/></g><path fill="none" stroke="#000" stroke-linecap="round" stroke-linejoin="round" stroke-miterlimit="10" stroke-width=".5" d="M146.4414 453.20703l.77735.94922m13.57422.05078l-6.95313-1.01953m5.94141.8711l.41016 1.15624m11.3828 1.8672l-1.88671-6.76954m1.61328 5.78516l-.89062.84765m15.21093-.16015l-3.35156-6.17578m2.86328 5.27734l-.67578 1.02344m14.8789-.375l-4.15234-5.67188m3.54688 4.84766l-.53125 1.10156m15.5625-1.63281l-6.3711-2.96485m5.44141 2.53516l.0664 1.22656m14.00782-.47656l-6.03125-3.60156m5.15625 3.07812l-.0625 1.22266m14.71875-2.97266l-6.96484.9414m5.95312-.80468l.71484.9961m13.64063-.77735l-7.02344.23438m6.0039-.19922l.60938 1.0625m13.72657-.89063l-7.02344-.17968m7.02344.17968l1.09765 2.1914m12.15625-2.9414l-6.90234 1.3164m6.90234-1.3164l1.53907 1.91407m11.53515-2.6797l-6.42187 2.85157m6.42187-2.85156l1.9336 1.51172m11.51562-1.16797l-6.6875 2.16406m5.71484-1.84766l.87891.85157m13.35938-1.3047l-6.58985 2.4375m13.9414 1.06642l5.33985-4.57032m8.00781 4.60547l5.27344-4.64062m-4.50781 3.96484l-1.14844-.4336m12.9336-.33202l6.80078-1.75782m-5.8125 1.5l-.82813-.90234m13.07422-.19922l6.96094.95703m-5.94922-.8164l-.42188-1.15235m12.78516.6875l6.83984 1.60547m-5.84375-1.3711l-.3125-1.1875m12.6797.76563l6.74609 1.98047m-6.7461-1.98047l-.49219-2.40234m13.70704 2.8711l6.94921 1.04687m-5.9375-.89453l-.41015-1.15625m12.71484.98828l6.94531 1.07812m-5.93359-.92187l-.40625-1.16016m12.66797 1.54297h7.02734m-6.0039 0l-.57813-1.08203m12.95703 1.85937l6.85157-1.55468M447.8164 454.25l-.80078-.92969m14.22265 3.01563l4.64453-5.27344"/><g clip-path="url(#Q)"><path fill="none" stroke="#000" stroke-linecap="round" stroke-linejoin="round" stroke-miterlimit="10" stroke-width=".5" d="M147.125 438.77734l-6.25 3.21094"/></g><path fill="none" stroke="#000" stroke-linecap="round" stroke-linejoin="round" stroke-miterlimit="10" stroke-width=".5" d="M147.125 438.77734l2.01563 1.40235m11.45703-1.04297l-6.56641 2.4961m5.61328-2.13282l.92188.8086m13.11328 1.8203l-6.09766-3.49218m5.21094 2.98437l-.03906 1.22657m13.1875.42578l-3.9922-5.78125m3.9922 5.78125l-1.125 2.17968m13.64453-1.76953l-2.40235-6.60156m2.0547 5.64063l-.82032.91406m15.03125-.20703l-3.5-6.09375m2.99219 5.20703l-.65235 1.03906m13.80078.14844l-2.14843-6.6914m1.83593 5.71484l-.85547.8828m16.84375-2.51171l-6.87109-1.48047m5.8711 1.26563l.33593 1.17968m11.5664-1.70703l-.01952-.19922-.0586-.1914-.09375-.17578-.46093-.37891-.19141-.0586-.19922-.01953-.19922.01954-.1914.05859-.45703.3789-.09766.17579-.05469.1914-.01953.19922.01953.19922.05469.1914.09766.1797.45703.375.1914.05859.19922.01953.19922-.01953.1914-.0586.46094-.375.09375-.17968.0586-.1914.01953-.19923m15.7461-.64453l-6.90626 1.28906m5.90235-1.10156l.76562.96094m13.57031.03906l-6.9414-1.08594m5.9336.9297l.39843 1.16015m13.73437-2.8086l-6.55859 2.52344m6.5586-2.52344l1.85156 1.60938m11.17578-2.1836l-5.98828 3.67579m5.98828-3.67578l2.11719 1.24218m11.38671-.89453l-6.36328 2.97656m5.4375-2.54296l.98047.73828m12.9336-1.73047l-5.71094 4.09375m12.875-.83203l6.59375-2.4297m6.59375.4336l6.84765 1.5625m-5.85156-1.33593l-.32031-1.1836m13.52344-.6875l5.07812 4.85547m-4.33984-4.15234l.33203-1.1797m11.3164 3.47657l6.9336-1.14844m-5.92188.98047l-.74609-.97265m15.51172-2.80078l2.01172 6.73437m-1.71875-5.7539l.875-.86329m12.64844-.22656l1.0078 6.95313m-.85937-5.94141l.98828-.72656m11.58985-.14844l2.1836 6.67969m-1.86329-5.70703l.84766-.88282m11.0039.54297l4.47266 5.41797m-3.82422-4.63281l.46875-1.13281m11.3711 1.33203l6.125 3.4453m-5.23438-2.9414l.03125-1.22656m12.8711.0664l5.17187 4.75782"/><g clip-path="url(#R)"><path fill="none" stroke="#000" stroke-linecap="round" stroke-linejoin="round" stroke-miterlimit="10" stroke-width=".5" d="M146.88672 425.0664l-5.77344 4.00391"/></g><path fill="none" stroke="#000" stroke-linecap="round" stroke-linejoin="round" stroke-miterlimit="10" stroke-width=".5" d="M146.88672 425.0664l2.1836 1.125m-3.02345-.54296l1.08985.5625m12.89453-1.3711l-5.4336 4.45704m5.4336-4.45704l2.26563.94532m11.3828-.46094l-6.09765 3.48828m5.21094-2.98047l1.03906.65235m13.1875 2.28515l-6.14844-3.40234m5.25391 2.90625l-.01953 1.22656m14.1836-.64844l-6.0586-3.5664m6.0586 3.5664l-.10548 2.44922m13.44922-2.5039l-6.11719-3.45704m5.22657 2.95704l-.03125 1.22656M221.05078 425l5.67969 4.13672m9.78516 1.3789l1.3789-6.89062m13.32422 6.88672l-1.39844-6.88672m1.19531 5.88672l-.9453.77734m11.57812-.46875l4.3711-5.5039m-3.73438 4.70312l-1.20703-.22265m13.74218.90234l4.66016-5.26172m13.25 5.32031l-4.52735-5.375m14.13282 5.89063l2.88672-6.41016m12.33984-.27734l-.9336 6.96484m.79688-5.95312l1.15234-.42578m13.34766-.27344l-3.03125 6.33984m2.58984-5.41797l1.22657-.05078m11.29297-1.20312l-.5547 7.0039m.47266-5.98437l1.125-.48828m8.48438 2.83593l7.01953.26954m-6-.23047l-.53516-1.10157m12.94922.28516l6.78516 1.82422m8.73047-4.21875l2.38281 6.61328m-2.03516-5.64844l.82032-.91015m16.08984 1.0703l-5.5039 4.36329m5.5039-4.36328l2.25.98047m10.6289-1.4414l-4.6328 5.28515m3.96093-4.51563l1.1914.28125m12.58204-1.22265l-4.20313 5.6289m4.20313-5.6289l2.42578.375m10.30469-.73047l-3.03516 6.33984m3.03516-6.33984l2.45312-.10157m8.875-.21093l.9375 6.96484m-.80078-5.95312l.9961-.71485m15.53125 1.17188l-5.75782 4.02734m4.91797-3.4414l1.09375.55468"/><g clip-path="url(#S)"><path fill="none" stroke="#000" stroke-linecap="round" stroke-linejoin="round" stroke-miterlimit="10" stroke-width=".5" d="M146.7539 411.57031l-5.5078 4.36328"/></g><path fill="none" stroke="#000" stroke-linecap="round" stroke-linejoin="round" stroke-miterlimit="10" stroke-width=".5" d="M146.7539 411.57031l2.25.98438m-3.05077-.34766l1.125.49219m12.70703-1.44531l-4.94141 4.99609m4.9414-4.9961l2.35157.70704m-3.07031.01953l1.17578.35547m12.29297-1.53516l-3.8086 5.90625m3.2539-5.04687l1.22267.10547m13.36328 4.32812l-5.2422-4.67969m19.39845 2.94531l-6.92188-1.21093m5.91406 1.03515l.37891 1.16407m9.26172 1.69921l2.4414-6.58593m13.89844.27734l-3.60937 6.02735m18.63281-3.07032l-7.02734.11719m18.875 2.79688l-4.09375-5.71094m3.5 4.8789l-.54688 1.10157m14.45703-.26954l-4.09375-5.71093m3.4961 4.8789l-.54297 1.10157m15.85937-2.46875l-6.90234-1.3125m19.59766-1.42579l-5.66016 4.16407m4.83594-3.5586l1.10547.53125m11.78515-2.1914l-3.16406 6.27343m2.70312-5.36328l1.22657-.02343m14.35547 1.32421l-6.77735 1.85157m5.79297-1.58203l.83984.89453m13.58594-.26172l-7.02734.04687m6.0039-.03906l.58204 1.07813m13.0078-3.23047l-5.53124 4.33594m19.46875-3.09766l-6.77735 1.85547m5.79297-1.58203l.83985.89062m13.18359-1.86719l-6.22266 3.26563m14.33594-4.45703l4.17969 5.64844M382.1914 411.75l.52734-1.10547m12.71875-.04297l3.09766 6.30469m-2.64844-5.38672l.71875-.9961m14.83984-.09374l-2.28906 6.64453m2.28906-6.64453l2.42188-.38281m11.9961 1.0039l-4.4922 5.40235m4.4922-5.40235l2.40234.5M439 410.91016l-4.13672 5.68359M439 410.91015l2.42969.34376m11.14844-.12891l-4.66407 5.25781m3.98438-4.49219l1.19531.28907m12.03906-1.57031l-3.14062 6.28515m2.6836-5.3711l1.22655-.02734"/><g clip-path="url(#T)"><path fill="none" stroke="#000" stroke-linecap="round" stroke-linejoin="round" stroke-miterlimit="10" stroke-width=".5" d="M146.52344 397.99219l-5.04688 4.89062"/></g><path fill="none" stroke="#000" stroke-linecap="round" stroke-linejoin="round" stroke-miterlimit="10" stroke-width=".5" d="M146.52344 397.99219l2.33594.7539m-3.07032-.04296l1.16797.3789m12.55469-1.38672l-4.39063 5.48438m4.39063-5.48438l2.41016.45313m-3.05079.34375l1.20703.22656m12.19141-1.38672l-3.27734 6.21485m3.27734-6.21485l2.45313-.01172m12.35937 1.53906l-6.27344 3.16016m19.09766.72656l-5.29297-4.61718m19.08984 3.91015l-6.2578-3.19922m5.34765 2.73438l.01953 1.22656m14.3086-3.74219l-6.46094 2.76172m5.51953-2.35937l.95703.76953m13.39453-.92578l-6.65234 2.26562m5.68359-1.9336l.89453.83985m12.78516 2.1836l-5.4414-4.44532m4.64843 3.80079l-.23828 1.20312m14.58203-.88281l-5.91406-3.79297m5.05468 3.23828l-.10156 1.22266m14.8164-2.91016l-6.99609.6875m5.97657-.58594l.67968 1.01953m12.78125-3.11328l-5.24609 4.67578m4.48047-3.99609l1.15234.42578m10.66406-2.26172l-.72265 6.98828m.61719-5.97265l1.13671-.46094m14.31641.36328l-4.78516 5.14844m18.8086-4.22266l-6.20313 3.29688m5.30078-2.8164l1.01954.6875m13.53906-.23048l-6.88281 1.42188m5.8789-1.21485l.78516.94532m13.57812-.01172l-6.97265-.85938m5.95703.73438l.4414 1.14844m13.65235-.11329l-6.4961-2.67578m5.55079 2.28516l.12109 1.22265m14.25-3.1953l-6.72266 2.04687m5.7461-1.75l.86718.8711m12.98438-2.09767l-5.83984 3.90625m18.6875-4.46875l-4.90235 5.03516m17.80078-5.38281l-4.0703 5.72656m4.0703-5.72656l2.4336.3164m10.95312-.26171l-4.21484 5.62109m3.60156-4.80469l1.21094.1875m13.03515-.73828l-4.85156 5.08594m4.14453-4.34375l1.1836.33203m12.41797-1.41406l-4.00782 5.76953m3.42578-4.9336l1.21485.14844"/><g clip-path="url(#U)"><path fill="none" stroke="#000" stroke-linecap="round" stroke-linejoin="round" stroke-miterlimit="10" stroke-width=".5" d="M146.23047 384.41016l-4.46094 5.42968"/></g><path fill="none" stroke="#000" stroke-linecap="round" stroke-linejoin="round" stroke-miterlimit="10" stroke-width=".5" d="M146.23047 384.41016l2.40625.48437m11.09375-.32422l-4.83203 5.10547m4.83203-5.10547l2.36719.65625m-3.07032.08594l1.1836.32813m13.53125-.14844l-6.22266 3.26172m6.22266-3.26172l2.02734 1.38672m-2.9336-.91016l1.01563.6914m13.41406-.67968l-6.64453 2.28515m6.64453-2.28515l1.79688 1.67187m-2.76172-1.33984l.89844.83594m12.83984 2.125l-5.5586-4.30078m4.75 3.67578l-.20702 1.21094m14.71875-1.21485l-6.33203-3.04297m6.33203 3.04297l.10156 2.45313m13.55078-3.72657l-7.00781-.49609m7.00781.4961l.9961 2.24218m12.32812-2.58203l-7.02734.1836m7.02734-.1836l1.20703 2.13672M254 387.62109l-6.95703-.99609m6.95703.9961l.83203 2.30859m12.45703-2.15625l-6.90625-1.30078m5.90235 1.11328l.36328 1.16797m13.89062-2.5625l-6.77734 1.86328m5.79297-1.58985l.83984.89063m13.17188-1.88672l-6.19922 3.3086m5.29687-2.82813l1.01563.6836m12.3164-2.23829l-4.42968 5.45703m4.42968-5.45703l2.40625.47266m10.44532-.78906l-3.50391 6.08984m2.9961-5.20313l1.22656.03907m14.22265 1.14843l-6.7539 1.94141m19.99609.22266l-6.60937-2.38672m18.30468 4.27734l-3.36718-6.16797m2.875 5.26953l-.67579 1.02735m16.22266-4l-6.84766 1.57812m5.85157-1.35156l.80468.92578m13.28125-1.8164l-6.39843 2.90234m6.39843-2.90235l1.94532 1.4961m10.88672-2.26953l-5.4336 4.44922m5.4336-4.44922l2.26562.94531m10.61328-1.39453l-4.5625 5.34765m4.5625-5.34765l2.39453.53125m10.03516-1.08203l-2.78906 6.44922m2.78906-6.44922l2.44531-.19531m10.58203.08593l-2.21484 6.66797m1.89062-5.69922l1.21094-.20312m12.02735-.875l-1.41407 6.88672m1.41407-6.88672l2.35546-.6914m13.08204 2.05468l-5.66016 4.16406m4.83594-3.5586l1.10937.53126"/><g clip-path="url(#V)"><path fill="none" stroke="#000" stroke-linecap="round" stroke-linejoin="round" stroke-miterlimit="10" stroke-width=".5" d="M146.0625 370.96094l-4.125 5.6914"/></g><path fill="none" stroke="#000" stroke-linecap="round" stroke-linejoin="round" stroke-miterlimit="10" stroke-width=".5" d="M146.0625 370.96094l2.42969.33984m11.22265-.0586l-4.80078 5.13282m4.80078-5.13281l2.3711.63672m11.71094.41015l-6.33594 3.03906m6.33594-3.03906l1.97656 1.45313m11.4375-1.23047l-6.53125 2.58984m6.53125-2.58984l1.8711 1.58984m-2.82032-1.21094l.9336.79297m13.48827-.66015l-6.84765 1.57031m6.84765-1.57031l1.60938 1.85547m-2.60547-1.625l.80469.92578m13.59765-.32422l-7.02734-.09766m7.02734.09766l1.1211 2.1836m12.1211-1.52344l-6.88282-1.41797m6.88281 1.41796l.6914 2.35547m12.66407-2.58593l-6.96094-.95704m6.96094.95704l.84375 2.30468m12.48828-2.45312l-6.9961-.65625m6.9961.65625l.9414 2.26562m12.34376-2.03125l-6.9375-1.125m6.9375 1.125l.78906 2.32422m12.51563-2.25781l-6.91407-1.25781m6.91406 1.25781l.7422 2.33594m12.61327-3.26563l-7 .60156m5.98438-.51562l.66406 1.03125m13.2539-2.4961l-6.17187 3.35938m6.17188-3.35937l2.04687 1.35156m11.375-1.14063l-6.38281 2.9375m6.38281-2.9375l1.94922 1.48438m11.67578-.26563l-7.00781.5m5.98828-.42968l.65234 1.04296m13.47266.36329l-6.58594-2.45313m5.625 2.09766l.16407 1.21484m11.30078-5.5664l-.96485 6.96093m17.28516-3.0625l-6.97656-.83594m5.96093.71485l.44532 1.14062m13.79687-2.32421l-6.79687 1.77343m5.8086-1.51562l.83202.90234m12.6289-2.6836l-5.11327 4.82032m5.11328-4.82031l2.32422.78515m10.63672-1.11328l-4.40625 5.47656m4.40625-5.47656l2.41015.46094m10.8086-.53516l-4.21094 5.625m4.21094-5.625l2.42578.375m-3.03907.44141l1.21094.1914m11.78906-1.5078l-2.35546 6.62109m2.35546-6.6211l2.42579-.35937m-2.76954 1.32422l1.21485-.17969m11.66406-.96484l-.79687 6.98437m.79687-6.98437l2.28516-.89844m11.29687.9414l-1.32812 6.89844m1.32812-6.89844l2.34375-.72265"/><g clip-path="url(#W)"><path fill="none" stroke="#000" stroke-linecap="round" stroke-linejoin="round" stroke-miterlimit="10" stroke-width=".5" d="M146.46875 357.99219l-4.9375 5.0039"/></g><path fill="none" stroke="#000" stroke-linecap="round" stroke-linejoin="round" stroke-miterlimit="10" stroke-width=".5" d="M145.75 358.71875l1.17578.35156m12.86719-1.0664l-4.95703 4.98046m4.23437-4.2578l1.17578.35546m13.7461.39063l-6.72266 2.03906m6.72266-2.03906l1.73047 1.73828m11.49218-2l-6.53906 2.5664m6.53906-2.5664l1.86328 1.59765m11.57813-1.21484l-6.79297 1.80078m6.79297-1.80078l1.66797 1.80078m11.71875-1.47265l-6.9336 1.14062m5.92579-.97266l.74218.97657m13.4922-1.53907l-6.75782 1.9297m5.77344-1.64845l.85156.88282m13.42187-1.25l-6.70703 2.10156m5.73047-1.79297l.875.85938m13.48438-.91407l-6.84375 1.59766m5.84765-1.36719l.8086.92578m13.36718-1.60937l-6.5703 2.5m5.61327-2.13672l.92188.8086m12.64062-2.3125l-5.15234 4.78124m15.83203-5.90234l.1211 7.02734m15.01171-6.5586l-3.51562 6.08595m3.0039-5.19922l1.22657.04297m12.80468-.79688l-3.92578 5.82422m3.35547-4.97656l1.21875.125m12.72266-.9375l-4.03516 5.7539m3.44531-4.91796l1.21875.15234m14.17578 2.0664l-7.01562-.35546m16.41406 3.66796l.8164-6.98046m10.78126 6.28515l4.2539-5.59375m14.01172 4.89063l-5.64843-4.1836m18.66796-.34765l-5.05859 4.875m4.32422-4.16406l1.16406.3789m12.73438-1.23828l-4.75782 5.17188m4.75782-5.17188l2.375.61719m10.83203-.71094l-4.54297 5.36328m4.54297-5.36328l2.39844.51953m-3.0586.26172l1.19922.25781m12.63672-1.15234l-4.26172 5.58594m4.26172-5.58594l2.42187.39844m-3.04296.41406l1.21093.19922m12.48438-1.17969l-3.78125 5.92188m3.78125-5.92188l2.44531.19531m-2.9961.66797l1.22266.09766m12.59375-.99219l-3.67968 5.98828"/><g clip-path="url(#X)"><path fill="none" stroke="#000" stroke-linecap="round" stroke-linejoin="round" stroke-miterlimit="10" stroke-width=".5" d="M465.40234 357.5l2.44922.15234"/></g><g clip-path="url(#Y)"><path fill="none" stroke="#000" stroke-linecap="round" stroke-linejoin="round" stroke-miterlimit="10" stroke-width=".5" d="M147.23828 345.8164l-6.47656 2.72266"/></g><path fill="none" stroke="#000" stroke-linecap="round" stroke-linejoin="round" stroke-miterlimit="10" stroke-width=".5" d="M146.29688 346.21484l.94921.77344m12.76563-2.0625l-5.39453 4.5039m4.60937-3.84765l1.13672.46094m13.64844.17578l-6.76172 1.91797m6.76172-1.91797l1.69922 1.76953m11.34375-2.44922l-6.21875 3.27735m6.21875-3.27735l2.02734 1.3789m11.0625-1.74608l-5.76953 4.01171m4.92969-3.42968l1.09375.5625m13.13672-1.03125l-5.91797 3.78515m5.05469-3.23437l1.0703.60156m12.46485-1.89844l-4.63281 5.28125m3.96094-4.51562l1.1914.28125m12.15235-1.4961l-3.34766 6.17579m2.85938-5.27735l1.23046.00781m12.51953-.93359l-3.24218 6.23438m2.76953-5.32813l1.22656-.01172m12.03125-1.1211l-2.17969 6.6836m1.86329-5.71094l1.20703-.21093m10.84765-.89844l.97266 6.95703m-.83203-5.94531l.9961-.71875m11.51952-.13672l2.28907 6.64453m-1.95313-5.67578l.83594-.89844m12.03515-.03125l2.50782 6.5664m-2.14453-5.60937l.80468-.92578m11.08203.60938l4.63672 5.28515m-3.96093-4.51562l.43359-1.14844m13.82031-.42188l1.40625 6.88672m-1.20312-5.8828l.94922-.78126m10.75.41406l4.23046 5.61329m-3.61328-4.79688l.51953-1.10938m12.5547.04688l3.48046 6.10547m8.33203-1.69922l6.48438-2.70703m-5.53907 2.3125l-.94921-.77735m13.24218.96485l6.64063-2.29297m-5.67578 1.95703l-.89844-.83594m13.83203-2.17968l5.47266 4.41015m-4.67578-3.76562l.23046-1.20703m16.5625-.39063l-3.07421 6.3164m2.625-5.39843l1.22656-.04297m13.42969-.2539l-4.86329 5.07421m4.86329-5.07421l2.36328.66796m11.16406-.4453l-5.28516 4.6328m5.28516-4.6328l2.29297.86718m11.19531-.65235l-5.63281 4.19922m5.63281-4.19921l2.21875 1.05078m-3.03516-.4375l1.10547.52343m12.86328-1.33984l-5.30468 4.60547"/><g clip-path="url(#Z)"><path fill="none" stroke="#000" stroke-linecap="round" stroke-linejoin="round" stroke-miterlimit="10" stroke-width=".5" d="M466.21484 344.875l2.28907.8789"/></g><path fill="none" stroke="#000" stroke-linecap="round" stroke-linejoin="round" stroke-miterlimit="10" stroke-width=".5" d="M465.4414 345.54297l1.14454.4414"/><g clip-path="url(#aa)"><path fill="none" stroke="#000" stroke-linecap="round" stroke-linejoin="round" stroke-miterlimit="10" stroke-width=".5" d="M147.29297 332.63672l-6.58594 2.45312"/></g><path fill="none" stroke="#000" stroke-linecap="round" stroke-linejoin="round" stroke-miterlimit="10" stroke-width=".5" d="M146.33594 332.99219l.91797.8125m12.24609-2.6914l-4.3711 5.5m3.73438-4.69923l1.20703.21875m13.5664-.08984l-6.01171 3.64062m5.13672-3.10937l1.05469.625m12.0703-2.26563l-3.8828 5.85938m3.3164-5.00781l1.22266.12109m13.38672-.32813l-5.33594 4.57032m5.33594-4.57031l2.28125.89453m10.60156-1.31641l-4.47656 5.41406m4.47656-5.41406l2.40625.49219m10.46875-.80469l-3.59375 6.03906m3.59375-6.03906l2.45313.1211m9.72265-.5547l-1.3164 6.90235m1.3164-6.90234l2.34375-.72266m10.91406.71484l-1.19922 6.92188m1.02344-5.91406l1.16406-.38282m11.0586-.61328l1.33594 6.89844m-1.14063-5.89453l.95313-.77344m11.65625-.08984l2.35546 6.61719m-2.01171-5.65625l.82422-.90625m11.16796.48046l4.31641 5.54688m-3.6914-4.73828l.5039-1.1211m11.79297.66797l5.10156 4.83594m-4.35937-4.13281l.32812-1.1836m11.82422 1.01954l5.9414 3.7578m-5.9414-3.7578l.1875-2.44532m13.08203 2.52344l6.03516 3.59766m-6.03516-3.59766l.11719-2.44922m13.51953 1.9961l5.39063 4.5078m-5.39063-4.5078l.50781-2.40235m12.00781 4.27735l6.98829.7578m-6.98829-.7578l-.91015-2.27735m14.26953 3.32813l6.89844-1.34375m-6.89844 1.34375l-1.54297-1.90625m15.3086 3.0625l6-3.65625m-6 3.65625l-2.11329-1.25391m15.51172 1.38672l5.83203-3.92188m-4.98437 3.35157l-1.08203-.57813m13.02734-1.54687l6.875 1.46484m-5.875-1.25l-.33594-1.17969m17.76954-1.38672l-3.35938 6.17188m2.86719-5.27344l1.23047.01172M440 332.15234l-6.13672 3.42188m5.2461-2.92188l1.02734.66407m13.3711-.76563l-6.51954 2.625m6.51953-2.625l1.875 1.57813m11.4336-1.59375l-6.50782 2.65625"/><g clip-path="url(#ab)"><path fill="none" stroke="#000" stroke-linecap="round" stroke-linejoin="round" stroke-miterlimit="10" stroke-width=".5" d="M466.8164 332.53516l1.88282 1.5703"/></g><path fill="none" stroke="#000" stroke-linecap="round" stroke-linejoin="round" stroke-miterlimit="10" stroke-width=".5" d="M465.86719 332.92188l.94531.78515"/><g clip-path="url(#ac)"><path fill="none" stroke="#000" stroke-linecap="round" stroke-linejoin="round" stroke-miterlimit="10" stroke-width=".5" d="M147.33984 319.46094l-6.67968 2.17578"/></g><path fill="none" stroke="#000" stroke-linecap="round" stroke-linejoin="round" stroke-miterlimit="10" stroke-width=".5" d="M147.33984 319.46094l1.76563 1.70312m11.27344-2.33984l-6.125 3.44531m6.125-3.44531l2.0664 1.32422m11.23047-1.35156l-6.09375 3.5m6.09375-3.5l2.07813 1.30859m10.53906-2.17188l-4.69531 5.22657m4.6953-5.22657l2.38282.59375m9.76172-1.28906l-2.35547 6.6211m2.35547-6.6211l2.42969-.35937m11.21484.49609l-3.01172 6.34766m3.01172-6.34766l2.44922-.11328m9.5586-.22266l-.39844 7.01563m.39843-7.01563l2.23047-1.02344m10.21875 1.08204l1.33203 6.89843m-1.33203-6.89843l1.91016-1.54297m10.51172 1.84375l3.1211 6.29687m-3.1211-6.29687l1.42969-1.99219m11.59765 2.15234l3.69531 5.97657m-3.15625-5.10547l.6172-1.0586m11.05077 1.27735l5.91016 3.80078m-5.05078-3.25l.10156-1.22266m12.46094.51563l5.69531 4.11328m-4.86719-3.51563l.16797-1.21484m12.13281.90234l6.07032 3.53907m-5.1875-3.02344l.04687-1.22656m12.05078 1.48437l6.73828 1.9961m-6.73828-1.9961l-.48828-2.40625m13.85547 2.2461l6.63672 2.3125m-5.67188-1.97266l-.1875-1.21485m12.56641.79297l6.57422 2.48047m-5.61719-2.1211l-.15625-1.21483m12.46094 1.0078l6.6836 2.17188m-6.6836-2.17187l-.42578-2.41406m13.58594 3.85546l6.99218-.70703m-6.99218.70703l-1.36329-2.03906m2.38282 1.9375l-.6836-1.01953m14.3164 3.53906l4.32032-5.54297m-3.6914 4.73438l-1.21094-.21094m14.03515 1.1211l4.04297-5.7461m8.5625 5.08203l5.46094-4.42187m-4.66797 3.78125l-1.1289-.48047m13.17187.34375l6.41797-2.86328m-5.48438 2.44531l-.96484-.7539m14.2461 2.38671l4.62109-5.29297m14.38281 3.60938l-6.75781-1.92578m5.77344 1.64453l.2578 1.19922m14.15626-2.27344l-6.98438.78516"/><g clip-path="url(#ad)"><path fill="none" stroke="#000" stroke-linecap="round" stroke-linejoin="round" stroke-miterlimit="10" stroke-width=".5" d="M467.05469 320.15625l1.38672 2.02344"/></g><path fill="#ff3030" fill-rule="evenodd" d="M340.10938 405.51172h7.6953v-10.14453h-7.6953v10.14453"/><path fill="azure" fill-rule="evenodd" d="M341.94531 397.19922h.83203v5.73828h3.19532v.74219h-4.02735v-6.48047"/><path fill="#00f" fill-rule="evenodd" d="M370.48438 401.07422h8.62109v-10.14844h-8.6211v10.14844"/><path fill="azure" fill-rule="evenodd" d="M372.3164 392.76172h.83594v2.82031h3.28516v-2.82031h.83203v6.47656h-.83203v-2.91406h-3.28516v2.91406h-.83593v-6.47656"/><path fill="#ff3030" fill-rule="evenodd" d="M446.63281 401.07422h7.6914v-10.14844h-7.6914v10.14844"/><path fill="azure" fill-rule="evenodd" d="M448.46484 392.76172h.83204V398.5h3.1953v.73828h-4.02734v-6.47656"/><path fill="#ff3030" fill-rule="evenodd" d="M189.20703 383.32031h7.6914v-10.14844h-7.6914v10.14844"/><path fill="azure" fill-rule="evenodd" d="M191.03906 375.00781h.83594v5.73828h3.1914v.7422h-4.02734v-6.48048"/><path fill="#ffffe0" fill-rule="evenodd" d="M307.65625 348.04297h22.17969v-10.1914h-22.17969v10.1914"/><path fill-rule="evenodd" d="M311.15234 339.6836h.51172v6.29687h-.78906v-4.49219h-1.38672v-.55469l.5586-.0625.2539-.05468.22656-.08985.20313-.14062.17578-.21094.14063-.29297.10546-.39844m4.81641 0l.22656.01954.21875.05468.21094.08985.19531.12109.1836.15234.17187.17579.30078.41796.2461.4922.17968.54687.10938.57812.03906.59375-.03906.59375-.10938.58203-.17968.55469-.2461.5-.30078.42969-.17187.17969-.1836.15234-.19531.125-.21094.08984-.21875.0586-.22656.01953-.23047-.01953-.21875-.0586-.20703-.08984-.19922-.125-.1836-.15235-.17187-.17968-.30078-.42969-.24219-.5-.17968-.55469-.11329-.58203-.03906-.59375h.83594l.02734.5625.08204.5039.125.44532.16406.375.1914.30078.21094.21875.22266.13672.22656.04688.22656-.04688.22266-.13672.21094-.21875.1875-.30078.16406-.375.125-.44531.08203-.5039.03125-.5625-.03125-.5625-.08203-.5-.125-.4336-.16406-.36719-.1875-.29297-.21094-.21484-.22266-.1289-.22656-.04688-.22656.04687-.22266.1289-.21094.21485-.1914.29297-.16406.36719-.125.4336-.08204.5-.02734.5625h-.83594l.03906-.59376.11329-.57812.17968-.54688.2422-.49219.30077-.41796.17188-.17579.1836-.15234.19921-.1211.20703-.08984.21875-.05469.23047-.01953m5.08984 0h.50782v6.29688h-.78516v-4.49219h-1.38672v-.55469l.5586-.0625.25-.05468.23046-.08985.20313-.14062.17578-.21094.14063-.29297.10546-.39844m2.82422 2.17579h.78516l.01953-.31641.0625-.28516.09766-.2539.14062-.21485.17969-.17187.22265-.1289.26563-.08204.3086-.02734.23827.02343.22266.0625.20703.10157.17578.13671.14844.17188.11328.20703.07422.23438.02344.26562-.01953.26953-.0664.22266-.10938.19531-.15625.16797-.20313.16406-.2461.16406-.6328.39063-.53907.3125-.4375.3164-.34375.32423-.26562.33593-.1914.35156-.125.3711-.06642.39062-.02343.42188h4.21484v-.74219H324.625l.08203-.28515.11328-.23438.14844-.20313.1875-.17968.23047-.17188.27734-.17578.71875-.41406.41406-.20703.34766-.23047.27735-.25.22265-.26953.16016-.27735.11328-.28515.0625-.28516.01953-.28125-.03906-.38281-.1211-.34766-.1875-.3086-.2539-.26171-.30078-.21094-.34375-.16015-.38282-.09766-.40625-.03516-.43359.03516-.39844.09766-.35547.16796-.30468.23438-.25.30078-.1836.375-.11719.44531-.03906.51954"/><path fill="#ffffe0" fill-rule="evenodd" d="M160.48438 374.67578h22.17968v-10.19531h-22.17969v10.19531"/><path fill-rule="evenodd" d="M163.98438 366.3164h.5078v6.29298h-.78515v-4.48829h-1.39062v-.55468l.5625-.06641.25-.05469.23047-.08984.20312-.14063.17578-.21093.14063-.29297.10547-.39453m4.8125 0l.23046.01953.21875.05469.20703.08984.19922.1211.1836.14843.17187.17578.30078.41797.2422.4961.17968.54687.11328.57812.03906.58985-.03906.59375-.11328.58594-.17969.55078-.24219.5039-.30078.42578-.17187.1797-.1836.15624-.19922.1211-.20703.09375-.21875.05468-.23047.01953-.22656-.01953-.21875-.05469-.21094-.09375-.1953-.12109-.1836-.15625-.17188-.17969-.30078-.42578-.2461-.5039-.17968-.55079-.10937-.58593-.03907-.59375h.83203l.03125.5625.08204.50781.125.4414.16406.375.1875.30079.21094.22265.22265.13672.22656.04688.22657-.04688.22265-.13672.21094-.22265.1914-.30078.16407-.375.125-.44141.08203-.50781.02734-.5625-.02734-.5625-.08203-.5-.125-.4336-.16406-.36718-.1914-.29297-.21095-.21094-.22265-.13281-.22656-.04688-.22657.04688-.22265.13281-.21094.21094-.1875.29297-.16406.36718-.125.4336-.08203.5-.03125.5625h-.83204l.03907-.58985.10937-.57812.17969-.54688.2461-.49609.30077-.41797.17188-.17578.1836-.14844.1953-.1211.21094-.08983.21875-.0547.22656-.01952m5.09375 0h.50782v6.29296h-.78516v-4.48828h-1.39062v-.55468l.55859-.06641.2539-.05469.23048-.08984.20312-.14063.17188-.21093.14453-.29297.10547-.39453m2.82421 2.17578H177.5l.01953-.3164.0586-.28907.10156-.25.13672-.21485.18359-.17578.22266-.1289.26562-.08203.3086-.02735.23828.02344.22265.0625.20313.10156.17969.13672.14843.17578.11328.20313.07032.23828.02734.26172-.02344.26953-.0664.22656-.10938.1914-.15625.17188-.19922.16016-.2461.16797-.6328.38672-.53907.3125-.4375.3203-.34765.32423-.26172.33594-.1914.34765-.125.3711-.07032.39453-.01953.41796h4.21094v-.73828h-3.33203l.08203-.28515.11328-.23828.14844-.19922.1875-.1836.23046-.16796.28125-.17579.71485-.41796.41797-.20704.34375-.23046.28125-.25.21875-.26563.16406-.28125.11328-.28125.0625-.28516.01953-.28125-.04297-.3828-.11719-.34767-.1914-.30859-.25-.26172-.30078-.21484-.34766-.15625-.3789-.10156-.40625-.03125-.4375.03125-.39844.09765-.35156.16797-.3047.23438-.25.30468-.18359.375-.11718.44532-.03907.51953"/><path fill="#ffffe0" fill-rule="evenodd" d="M244.10156 445.58594h22.17969v-10.19531h-22.17969v10.1953"/><path fill-rule="evenodd" d="M247.59766 437.22656h.51172v6.29297h-.78907v-4.48828h-1.38672v-.55469l.5586-.0664.2539-.0547.23047-.08983.20313-.14063.17187-.21094.14063-.29297.10547-.39453m4.8164 0l.22656.01953.22266.0547.20703.08983.19531.1211.1836.14844.17187.17578.30078.41797.2461.49609.17969.54688.10937.57812.03906.58984-.03906.59375-.10937.58594-.1797.55078-.24608.5039-.30079.42579-.17187.17969-.1836.15625-.1953.1211-.20704.09374-.22266.05469-.22656.01953-.23047-.01953-.21875-.05469-.20703-.09375-.19922-.1211-.18359-.15624-.17188-.17969-.30078-.42578-.24218-.5039-.1797-.55079-.11327-.58594-.03516-.59375h.83203l.02735.5625.08203.50782.125.4414.16406.375.1914.30078.21094.22266.22266.13672.22656.04687.22656-.04687.22266-.13672.21094-.22266.1914-.30078.16016-.375.125-.4414.08203-.50782.03125-.5625-.03125-.5625-.08203-.5-.125-.43359-.16016-.36719-.1914-.29297-.21094-.21093-.22266-.13282-.22656-.04687-.22656.04687-.22266.13282-.21093.21093-.19141.29297-.16406.36719-.125.4336-.08203.5-.02735.5625h-.83203l.03516-.58985.11328-.57813.17969-.54687.24218-.4961.30078-.41796.17188-.17578.1836-.14844.19921-.1211.20703-.08984.21875-.05469.23047-.01953m5.08985 0h.51171v6.29297h-.78906v-4.48828h-1.38672v-.55469l.5586-.0664.25-.0547.23047-.08983.20312-.14063.17578-.21094.14063-.29297.10547-.39453m2.82421 2.17578h.78516l.01953-.3164.0625-.28906.09766-.25.14062-.21485.1797-.17578.22265-.1289.26562-.08204.3086-.02734.23828.02344.22265.0625.20704.10156.17578.13672.15234.17578.10938.20312.07421.23829.02344.26171-.01953.26954-.0664.22656-.10938.1914-.15625.17188-.19922.16015-.25.16797-.63281.38672-.53906.3164-.4375.31642-.34375.32421-.26563.33594-.1914.35156-.125.3672-.06641.39452-.02344.41797h4.21484v-.73828h-3.33203l.08203-.28516.11329-.23828.14843-.19922.1875-.17968.23047-.17188.27735-.17578.71875-.41797.41406-.20703.34765-.23047.27735-.25.22265-.26562.16407-.28125.10937-.28125.0625-.28516.02344-.28125-.04297-.38281-.1211-.34766-.1875-.3086-.25-.26171-.30468-.21485-.34375-.15625-.38281-.10156-.40625-.03125-.4336.03125-.39844.09766-.35546.16797-.3047.23437-.25.30469-.18358.375-.1172.44531-.03906.51953"/><path fill="#ffffe0" fill-rule="evenodd" d="M318.54297 445.6875h22.1836v-10.1914h-22.1836v10.1914"/><path fill-rule="evenodd" d="M322.04297 437.32813h.51172v6.29687h-.78906v-4.49219h-1.38672v-.55469l.55859-.0664.2539-.05078.22657-.08985.20312-.14062.17579-.21094.14062-.29687.10547-.39454m4.8164 0l.22657.01954.21875.05468.21094.08985.1953.1211.1836.14843.17188.17578.30078.42188.24219.49218.17968.54688.11328.57812.03907.59375-.03907.58985-.11328.58593-.17969.5547-.24218.5-.30078.42968-.17188.17969-.1836.15234-.1953.125-.21094.08984-.21875.0586-.22656.01953-.23047-.01953-.21875-.0586-.20704-.08984-.19921-.125-.1836-.15234-.17187-.1797-.30078-.42968-.2422-.5-.17968-.55469-.11328-.58593-.03906-.58985h.83594l.02734.5625.08203.5039.125.44532.16406.3711.1914.30078.21095.22265.22265.13672.22656.04688.22657-.04688.22265-.13672.21094-.22265.1875-.30079.16406-.37109.125-.44531.08204-.5039.03125-.5625-.03125-.5625-.08204-.5-.125-.4375-.16406-.36329-.1875-.29297-.21094-.21484-.22265-.13281-.22656-.04297-.22657.04297-.22265.1328-.21094.21485-.1914.29297-.16407.36328-.125.4375-.08203.5-.02735.5625h-.83593l.03906-.59375.11328-.57812.17969-.54688.24219-.49219.30078-.42187.17187-.17578.1836-.14844.19921-.1211.20704-.08984.21875-.05468.23046-.01954m5.08985 0h.50781v6.29688h-.78515v-4.49219h-1.39063v-.55469l.5625-.0664.25-.05078.23047-.08985.20312-.14062.17579-.21094.14062-.29687.10547-.39454m2.82422 2.17579h.78515l.01954-.31641.05859-.28516.10156-.2539.14063-.21485.17968-.17578.22266-.1289.26563-.07813.30859-.02734.23828.01953.22266.0625.20312.10156.17969.14063.14844.17187.11328.20703.07422.23438.02343.26562-.01953.26953-.0664.22266-.11329.1914-.15234.17188-.20312.16406-.2461.16407-.63281.39062-.53906.3125-.4375.3164-.34375.32423-.26563.33593-.1914.35157-.125.37109-.06641.39063-.02344.42187h4.21485v-.74219h-3.33594l.08594-.28515.11328-.23438.14844-.20312.1875-.1797.23046-.17187.27735-.17578.71875-.41797.41406-.20312.34375-.23047.28125-.2539.22266-.26563.16015-.27735.11328-.28515.0625-.28516.01954-.28125-.03907-.38281-.1211-.34766-.1914-.30859-.25-.26172-.30078-.21094-.34765-.16015-.37891-.09766-.40625-.03515-.4336.03515-.39843.09766-.35547.16406-.30469.23438-.25.30468-.1836.375-.11718.44531-.03906.51954"/></g></defs><use xlink:href="#ae"/></svg>