<svg xmlns="http://www.w3.org/2000/svg" role="img" xmlns:xlink="http://www.w3.org/1999/xlink" viewBox="142.45 309.95 326.84 171.84"><defs><clipPath id="a"><path d="M144 311.67188h1v168.65625h-1zm0 0"/></clipPath><clipPath id="b"><path d="M144 311.67188h324v168.65625H144zm0 0"/></clipPath><clipPath id="c"><path d="M467 311.67188h1v168.65625h-1zm0 0"/></clipPath><clipPath id="d"><path d="M144 479h4v1.32813h-4zm0 0"/></clipPath><clipPath id="e"><path d="M146 480h2v.32813h-2zm0 0"/></clipPath><clipPath id="f"><path d="M153 479h8v1.32813h-8zm0 0"/></clipPath><clipPath id="g"><path d="M159 480h2v.32813h-2zm0 0"/></clipPath><clipPath id="h"><path d="M167 479h8v1.32813h-8zm0 0"/></clipPath><clipPath id="i"><path d="M172 480h2v.32813h-2zm0 0"/></clipPath><clipPath id="j"><path d="M180 479h8v1.32813h-8zm0 0"/></clipPath><clipPath id="k"><path d="M186 480h2v.32813h-2zm0 0"/></clipPath><clipPath id="l"><path d="M193 479h8v1.32813h-8zm0 0"/></clipPath><clipPath id="m"><path d="M199 480h2v.32813h-2zm0 0"/></clipPath><clipPath id="n"><path d="M207 478h8v2.32813h-8zm0 0"/></clipPath><clipPath id="o"><path d="M212 480h2v.32813h-2zm0 0"/></clipPath><clipPath id="p"><path d="M220 477h7v3.32813h-7zm0 0"/></clipPath><clipPath id="q"><path d="M234 477h6v3.32813h-6zm0 0"/></clipPath><clipPath id="r"><path d="M246 478h9v2.32813h-9zm0 0"/></clipPath><clipPath id="s"><path d="M252 480h2v.32813h-2zm0 0"/></clipPath><clipPath id="t"><path d="M260 479h8v1.32813h-8zm0 0"/></clipPath><clipPath id="u"><path d="M266 480h2v.32813h-2zm0 0"/></clipPath><clipPath id="v"><path d="M273 479h8v1.32813h-8zm0 0"/></clipPath><clipPath id="w"><path d="M279 480h2v.32813h-2zm0 0"/></clipPath><clipPath id="x"><path d="M286 479h9v1.32813h-9zm0 0"/></clipPath><clipPath id="y"><path d="M292 480h2v.32813h-2zm0 0"/></clipPath><clipPath id="z"><path d="M300 480h8v.32813h-8zm0 0"/></clipPath><clipPath id="A"><path d="M306 480h2v.32813h-2zm0 0"/></clipPath><clipPath id="B"><path d="M313 479h8v1.32813h-8zm0 0"/></clipPath><clipPath id="C"><path d="M319 479h2v1.32813h-2zm0 0"/></clipPath><clipPath id="D"><path d="M328 477h5v3.32813h-5zm0 0"/></clipPath><clipPath id="E"><path d="M341 477h5v3.32813h-5zm0 0"/></clipPath><clipPath id="F"><path d="M355 476h4v4.32813h-4zm0 0"/></clipPath><clipPath id="G"><path d="M368 477h5v3.32813h-5zm0 0"/></clipPath><clipPath id="H"><path d="M379 480h9v.32813h-9zm0 0"/></clipPath><clipPath id="I"><path d="M380 478h2v2.32813h-2zm0 0"/></clipPath><clipPath id="J"><path d="M394 477h6v3.32813h-6zm0 0"/></clipPath><clipPath id="K"><path d="M406 479h9v1.32813h-9zm0 0"/></clipPath><clipPath id="L"><path d="M407 478h2v2.32813h-2zm0 0"/></clipPath><clipPath id="M"><path d="M421 477h6v3.32813h-6zm0 0"/></clipPath><clipPath id="N"><path d="M435 476h4v4.32813h-4zm0 0"/></clipPath><clipPath id="O"><path d="M449 476h3v4.32813h-3zm0 0"/></clipPath><clipPath id="P"><path d="M460 478h7v2.32813h-7zm0 0"/></clipPath><clipPath id="Q"><path d="M144 466h4v2h-4zm0 0"/></clipPath><clipPath id="R"><path d="M144 452h4v3h-4zm0 0"/></clipPath><clipPath id="S"><path d="M144 438h4v5h-4zm0 0"/></clipPath><clipPath id="T"><path d="M144 424h4v6h-4zm0 0"/></clipPath><clipPath id="U"><path d="M144 411h4v6h-4zm0 0"/></clipPath><clipPath id="V"><path d="M144 397h3v7h-3zm0 0"/></clipPath><clipPath id="W"><path d="M144 384h3v7h-3zm0 0"/></clipPath><clipPath id="X"><path d="M144 370h3v7h-3zm0 0"/></clipPath><clipPath id="Y"><path d="M144 357h3v7h-3zm0 0"/></clipPath><clipPath id="Z"><path d="M465 357h3v1h-3zm0 0"/></clipPath><clipPath id="aa"><path d="M144 345h4v4h-4zm0 0"/></clipPath><clipPath id="ab"><path d="M465 344h3v3h-3zm0 0"/></clipPath><clipPath id="ac"><path d="M144 332h4v4h-4zm0 0"/></clipPath><clipPath id="ad"><path d="M466 332h2v3h-2zm0 0"/></clipPath><clipPath id="ae"><path d="M144 319h4v3h-4zm0 0"/></clipPath><clipPath id="af"><path d="M466 319h2v4h-2zm0 0"/></clipPath><g id="ag" clip-path="url(#clip1)"><path fill="#fff" fill-opacity="0" fill-rule="evenodd" d="M0 0h1000v1000H0zm0 0"/><path fill="#d3d3d3" fill-opacity="0" fill-rule="evenodd" d="M162.15234 355.86719l-.23437.29297.0586.23437.11718.17188.17578.23437.29297.34766.11328.0586.11719-.17188.0586-.23438.17577-.17578.46485-.17578h.69922l.23437.29297.28906.8164.0586.17579.17578.23046.35156.23438.69922.69922.17188.17578.23437.34765.23438.41016.28906.58203.41015.46485.23047.23437.23438.17578.11719.23047.17578.29297.17187 1.16406v.23438l.0586.28906.05859.11719.11719.11719.34765.41015.11719.17188.17578.17578.17578.23437.11719.17188.17188.35156.05859.23438.23437.40625.23438-.0586-.17578.17578-.0586.92969h-.58203l-.23437-.11328-.34766.11328-.11719.11719-.05859.29297-.0586.17578-.11718.17187-.46484.29297-.0586.23438-.0586.11328v.64453l.0586.17187v.41016l.0586.0586v.40624l.05859.40625.11719.17579.05859.05859.23047.64062-.0586.29297v.69922l-.05859.58203v.23438l-.0586.23047-.05468.35156v1.92187l.05469.1172h.42578l-.36719.11718-.02344.35156.89063 1.16797 1.74219.53906 1.33984.35938v.53906l.08984.8086.53516.71484 1.51953.26953.89063-.08594.08984 1.16406.53516.1797 1.16015-.1797 2.05469-.98437 1.16016-.36328 1.8789-.17578 1.69531-.1797-.17968.71876-1.51563.08594-1.25.08984-.80469.26953-1.07421.8086.26953.71875.53515.89843-.17968.625-.26563.8086.26563 1.07812.625.89844.80468.17969 1.25-.1797-.26562.72267.09766.5039.05468.29297v.17188l.0586.29296v.40625l.17578.1172.35156.11718h.40625l.29297-.17578.11328-.11719.0586-.11719.11718-.23047.0586-.17578.35156-.46484.23047-.17578.17578-.0586.17578.0586.0586.17578.11718.98828.05469.46875.0586.17188.11718.23437.17578.0586.8164.05859h.28907l.11719.23437.05859.40625.0586.35156v1.10547l.11718.29297.11719.34766.28906.69922.17578.35156.58203.7539.35157.17579.17187.0586.46875.23437.64063.46484.34765.23438.29297.17578.29297.05468.23047.0625.8164.34766.29297.17578.11328.17188.35157.35156.11719.17578.52343.64063v.28906l.0586.35156v.34766l.05859.35156.0586.28906.11718.0586.17188.05859h.17578l.58203.23437.17578.1172.17578.28905.17578.23438.11328.23437.29297.23047.11719.11719v.41016l.0586.05468.28906.23438.23437.11719.0586.11718.11718.17188.0586.11719.23047.23437.05859.17578.23437.0586.1172.05859-.1172.11328-.05859.11719v.11719l-.11719.29296-.11719.28907v.58203l.17579.11719.11718.05859.0586.11719.11719.11719.11328.05859.17578.34765.0586.35157.05858.40625v.17578l-.05859.17578-.11719.69922v.17187l.1172.17579.29296.29296h.40625l.17578.1172.11719.17187.11719.29296v.23438h-.52735l-.23047-.23438h-.23437l-.17578.0586-.0586.69922.0586.34765.11719.17579.17578.41015.11718.23047.28907.46875.17578.05469h.52344l.23437.0586.75781.64062.0586.29296v.23438l.05859.0586.23047.34765v.35156l-.11719.17188v.29297l.29297.28906.29297.17578.17187.0586.29297.17577.29297.1172.58203.40624.28906.23438.29297.17578.21875.16015.01563.01172.23047.17579.64062.52343.17578.23438.1172.17578.17577.17578.11328.17188v.64062l.1172.17578.46874.11719.58203.11719.23438.05859.23047.11328.29297.11719.11328.0586.58593.35156.28907.17187.17578.0625.17578.05469.17578.0586.69922.35155.28906.17579.23438.05468.28906.17578.23437.1172.64063.40624.29297.11719.17187.0586.23438.05859.41015.05859.23047.0586.23438.11718.0586.17188-.41017.17578.46875.0586.0586.29296.11328.23438.17578.05468.23438.0586.17578.05859.40625.11719.64062.23437.11719.17188.0586.23437v.17578l-.0586.1172-.0586.40624.23438.23438.11719.05859.34766.11719.64062.23047.17578.11718.28906.1172.17578.17577.23438.46485.58203 1.10546.17578.17579.34766.17578.17578.11719.35156.11718 1.04688.52344.23437.0586.46485.11327.29297.0586.46484.17578.75781.58203.23438.23438.34765.46484.17578.17578.28907.23438.8164.69921.29297.17579.28906.28906.29297.17578.29297.28906.69531.64063.17578.17578.29297.23437.28907.23438.46875.28906.64062.58203.34766.23438.23437.29297.34766.34765.35156.46485.9336.99218.34765.40625.11719.17579.23437.05859.11328.11719.64454.17578.23047.11328.23437.0586.29297.17577.23047.1172.9336.69921.40624.40625.23438.17578.40625.17578.23437.11719.8164.34766.34766.23437.23438.11719.29297.28906.23047.11719.7578.35156.35157.17188.23047.05859.29297.11719.23437.0586.8711.17577h.8164l.46875.23047.17188.0586.875.69921.46484.1172.29297.05858.17578.0586.23047.0586.46875.05859.34766.05859.35156.0586.40625.05859h.29297l.17187.0586v.23046l.17578.17578h.29297l.34766.0586.35156.05859.69922.11719h.64063l.46484-.23438.29297-.17578.17187-.11719.41016-.17187.28906-.17578.9336-.46485.46875-.29297.52343-.29296.46485-.17188.46484-.17578 1.05078-.46485.28906-.11718.41016-.11719.28906-.11719.52735-.17578 1.51562-.69922.58203-.34765.28907-.0586.29297-.0586.34765-.11718.875-.23047.35156-.11719h.11329l.23437-.05859.875-.23437.23438-.0586h.8125l.35156-.0586.8164-.11718.17188-.0586.35156-.05468.29297-.0586.23047-.05859.8164-.17578.17579-.0586h.34765l.23438-.05859.46484-.11718.75781-.17188.23438-.0586h.34765l.41016-.11718.28906-.0586 1.28516-.05859h.28906l.41016-.0586.23047-.05858h.17578l.875-.1172h.40625l.41015-.11718h.34766l.35156-.11328.8711-.0586h1.75l1.04687.28907.41016.11719.28906.11718.35156.11719.28907.11719 1.05078.17187.28906.0586h.29297l.29297.05859.17187.0586.41016.05859.17187.0586.1172.05858h.11718l.11719.0586.35156.0586h.11328l.41016.0664 1.92187.39453 1.92578.39453 1.51953.44922 1.69532.71875 2.14453.80469 1.60547-.71875 1.42968-.80469 1.16016-1.07813 1.25-.44921 3.03516-.71875 1.875-.35938 2.14453-1.34765 2.23437-1.25391 2.5-1.25781 1.69531-.44922 1.78516-.17969 1.16016-.26953.625.53906 1.33984-.26953.71485-.98828.98437-1.34375.44531-.17969.80469-.35937 1.875-.53907 1.78516-.44921 1.25-.26954 1.16015-.08984 1.69922-.08984 1.96094-.26954 1.25-.08984h.53906l.625-.08984h.89063l2.14453-.17969 2.41015-.17969 2.58985-.08984 1.69531.17969 1.60938.08984 1.42968.35938 1.16016.71875 1.875.98828 1.16015 1.52734.26563.71484.6289.08985.35548.89844.53515.53906.53516 1.52734 1.07422.35938h.53515l-.80469.53515.08985 1.70703.71484 2.69532.89063.80468.89453.98829.71484 1.2578 1.78516.53907 1.51953-.17969.35547 1.34375 1.60937-.80469.98047-.53906.26953.26953.31641-.21484.21875-.14453.80078.44922.44922-.35938h.35547l.53515-.26953.53907-.71875.53515-.26953.625-.98828 1.16016.44922.83984.3711 1.39454.61718 1.6953-.17969h1.60548l1.78515.08985.17969-1.70704.53516-1.34375.80468.26954.4922.84765.40233.40625-.08984.53906v.35938l.71485.44922.71093-.26953h1.42969l.35938.98828.4453 1.25781.71485 1.34375 1.25.6289 1.69531.62891.71485-.17969.17969-.53906.98046-.08984.44922.35937.08594 1.25782-.26563.6289-.53515.17969v.53906l.71484.98438.26563.53906.98437.98828.80078 1.07813-.26562.35937-.08985.89844-.625 2.33203-.35546 2.0664-.08985 1.79298-.17969.71875-.08984.53906v1.4375l-.98047 1.88281-.35937 1.70703-.53516.89844-.80469 1.16797-.26562.53906 2.05469 1.2539.08593.35938-.35546.53906-.08985-.17968v.80859l.08985 1.4375-.44532.71484-1.07422.09375-.26562.71485.53515.89844.8047.71875 1.16015.80859 1.33984.26953.44531.35938-.35546.44921-1.78907-.08984-1.25-.44922-.71484-.71875-.625-.08984-.17578 3.58984-.1875 1.3086h89.35937V311.70313h-55.26953v49.08203l.76172.125 3.28906.54296 2.02344 2.83594v2.7539l2.35156.33204 2.34766.33203h4.05078l-1.3789 4.16016-2.02344.70703-2.02344.70312-.54297.34375-2.59375 1.6172-.1875.11718-2.02344-2.07813-.73046-2.74218-2.67188-2.07813-1.375-3.5-.0664-.08203-1.95704-2.67188 2.75-1.41796v-49.08204H294.42187v91.41407l.1172.03125.1328.01172.07422.07421.10547.04688.08985.0586.08593.05859.08985.0586.29687.29687.0586.08984.03125.11719.02734.11719.01563.13671-.03125.1172-.0586.08983-.0586.08594-.04296.10547-.04688.10156-.02734.1211v.14453l.17578.26953.14844.14844.07422.08594.07422.07421.04296.10547.0625.08985.0586.08593.04297.10547.0586.08985.04687.10156.04296.10547.0586.08594.11719.17968.07421.07422.0625.08594.0586.08984.04297.10547.0586.08985.05858.08593.0625.08985.0586.08984.04297.10156.11719.17969.07421.07422.0586.08594.07422.07421.08984.0586.10547.04687h.14844l.1328-.01562.13282.01562.10156-.04687.07422-.07422.04688-.10156-.01563-.13281v-.14844l-.04687-.10547-.02735-.11719-.04687-.10156-.02735-.1211-.04296-.10156-.0625-.08984-.04297-.10156-.04297-.10547-.03125-.11719-.01563-.13281-.01171-.13672.08593-.0586.0586-.08593.12109-.03125.04297.10547.01562.1328v.1172l.0586.10156.0586.08984.08983.0586.14844.14843.0586.08985.04296.10547-.01171.10156.08593.0586.10547.04687.08594.0586.08984.05858.07422.07422-.11719.02735-.10546.04687-.08594.0586-.07422.07421-.0586.08985-.0625.08594-.02734.12109-.04687.10156-.04297.10547-.03125.11719-.01172.13281-.01563.13281v.14844l.02735.11719.04687.10547.04297.10156.0586.08984.07421.07422.08985.0586.07422.07421.08984.0586.0586.08984.04296.10547.04688.10156.11719.03125.1328.01563h.14845l.11718-.03125.10547.04297.04297.10547.04688.10156.02734.1211L299.5 410l.02734.11719.03125.1211.02735.11718.10547.04297.10156.04687.13281-.01562.14844.14844.0625.08593.07422.07422.07031.07422.08984.0625.10547.04297.10156.04297.1172.03125.13671.01562.11719-.03125.07422-.07422.02734-.11718-.01172-.13282-.03125-.12109-.02734-.11719.04297-.10547h.11719l.08984.0625.11719.02735h.14843l.13282.01562h.14843l.13282.01563.1328-.01563h.14845l.1328-.01562.13282-.01172.13672.01172.11719-.02735.13281-.01562.1914-.0586-.05859.17579-.01562.1328-.02735.1211-.01562.13281-.0586.08594-.1328.01563-.10548.04687-.10546.04297-.1172.03125-.11718.02735-.26563.03125h-.14843l-.13281.01562-.07422.07422.05859.08594.14844.14843.11719.1797.07421.0703.08985.0625.08984.0586.08594.0586.08984.05858.10156.04297.10547.0625.10547.04297.08594.0586.10547.04687.10156.04297.17969.11719.0586.08984-.04298.10156-.04687.10547.01562.13281.22266.22266.0586.08985.04296.10156.03125.1211.04297.10155.01563.13282.03125.11718.01171.13672.03125.11719.14844.14844.10156.04297.10547.04296.1172.03125.1328.01563.13672.01563h.11719l.11719-.03125.08984-.0586.04297-.10547.04688-.10156.04296-.10547.03125-.11719.01172-.1328v-.14845l-.01172-.1328-.01562-.13282-.03125-.11719-.04297-.10547-.04688-.10547-.04296-.10156-.04297-.10547-.01563-.13281.01563-.13281.02734-.11719.03125-.11719.02735-.1211.04687-.10155.08984-.0586.08594-.0625.07422-.07422.08984-.05859.22266-.22266.0586-.08593.07421-.07422.11719-.17969.0586-.08594v-.14844l-.07423-.07421-.10156-.04688-.10547-.04297-.10156-.04297-.0586-.08984-.04687-.10547-.02734-.11719.08984-.05859.11719-.03125.10156-.04297.17969-.11719.14844-.14843.01172-.13282-.01172-.10546-.08985-.0586-.1328.01563h-.14845l-.1328.01562-.13282-.01562-.1211-.03125-.08593-.0586-.07422-.07422-.0586-.08984-.0625-.08594-.11718-.17969-.0586-.08593.03125-.1211.08594-.05859.1211-.03125.05859-.08594v-.1211l-.03125-.11718-.0586-.08984-.05859-.08594-.04687-.10547-.02735-.11719-.01562-.1328.0586-.08985.07421-.07422.08984-.0586.1172-.17968.07421-.07422.0586-.08594.14843-.14844.1211-.03125.1328-.01562.13282.01562.07422.07422.04297.10547.01562.13281-.03125.1172-.11719.03124-.1328.01172-.14844.14844-.04297.10547-.04688.10156-.02734.1211-.03125.11718v.14844l.03125.11719.04297.10546.05859.08985.07422.07031.07422.07422.11719.03125.12109.02734.11719-.02734.1328-.01563h.1172l.08984.0586.07422.07422.04687.10546.0586.08594.10156.04688.13281.01562.10547.04297.08594.0586-.01172.10546-.07422.07422-.17969.11719-.05859.08984-.08984.0586-.07032.07422-.07421.07421-.0625.08985-.02735.11719-.01562.1328.01562.13282-.01562.13281v.14844l.01562.13281.02735.1172.03125.12108.07421.07422.08985.0586.08594.0586.08984.05858.11719.03125v.08594l-.10157.04688-.08984.0586-.26563.03124-.11718.02735h-.14844l-.10547.04296-.10156.04688-.0586.08984-.0625.23438-.01171.13281-.03125.1211-.01563.1328v.29298l-.01172.1328.01172.13673.01563.1328.1328.01563.13282.01172.1211.03125.08593.0586.07422.07421.04688.10547.04296.10157.01563.1328v.44532l-.01563.13281v.44532l.03125.26562.02735.11719.01562.13281.03125.11719.08594.21094.03125.26562v.14844l-.03125.11719-.02734.11718-.03125.1211-.02735.11719-.03125.11718-.03125.1211-.01171.1328-.01563.13282.08984.0586.1172-.03125.10155.01562.04688.10547-.03125.26562v.44141l-.04297.10547-.04688.10547-.04296.10156-.04297.10547-.0586.08594-.03125.12109-.04296.11719-.03125.11719-.01563.1328.01563.13282.05859.08984.10547.04688.08594.0586.05859.08593-.01172.13672-.03125.11719-.04297.10156v.44531l-.01562.13281v.14844l-.03125.11719-.04297.10547-.02735.11719-.04687.10546-.04297.10157-.03125.12109-.02734.11719-.03125.13281-.03125.11719-.02735.11719-.04297.10546-.03125.1172-.03125.12108-.01171.13282-.01563.13281v.29688l.02734.11718v.14844l.04688.39844.02734.11719.0586.08984.12109.03125h.14844l.13281-.01563.0586.08985v.11719l-.0586.08984-.08984.0586-.10157.04296-.10546.04688-.08985.05859-.08594.0586-.13671.01562-.1172-.03125-.1328-.01563-.10157.04688-.0625.08594-.01172.13671-.01562.13282-.03125.11719-.02735.11718-.01562.13281-.03125.1211v.29687l.01563.13282.03125.11718v.14844l.01171.13281v.14844l-.02734.11719-.04688.10156-.02734.1211-.03125.11718-.0586.08985-.07421.07421-.10156.04297-.10547.04688-.11719.02734-.1211.03125-.10156-.04687.0586-.08594.10547-.04688.02734-.11718.03125-.11719.02734-.1211.03125-.11718v-.14844l.01563-.13281-.03125-.11719-.04297-.10547-.10547.01563-.07422.07422-.10156.04296-.08984.0625-.07422.07422-.04297.10157-.01563.1328-.03125.1172L304.25 426l-.03125.11719-.02734.11719-.03125.12109-.02735.11719-.03125.11718-.04297.10547-.08984.0586h-.08984l-.1172-.03125-.03124-.08594.01562-.13672-.03125-.11719v-.14844l-.01171-.1328v-.14844l-.0625-.23438-.02735-.1211-.04297-.10156-.04687-.10546-.0586-.08594-.05859-.08985-.04297-.10546-.0625-.08594-.14844-.14844-.0703-.07422-.10548-.04687-.10547-.04297-.10156-.04297-.29687-.29688-.08985-.07421-.08594-.0586-.10546-.04297-.08985-.0625-.08594-.0586-.10546-.04296-.08985-.0586-.08594-.0625-.07421-.0703-.10547-.04688-.08594-.0586-.10547-.04296-.08984-.0625-.10156-.04297-.10547-.04297-.08594-.0586-.10547-.04687-.10547-.04297-.10156-.04687-.08985-.0586-.10156-.04297-.10547-.04296-.08984-.0625-.11719-.02735-.13281-.01562-.13281.01562H299.75l-.13281.01563-.11719-.03125-.08984-.0586-.07422-.07422-.08985-.05859-.10156-.04688h-.14844l-.12109-.02734-.10156-.04297-.07422-.07422-.11719-.17968-.08984-.0586-.10156-.04297-.08985-.0625-.10547-.04296-.08984-.0586-.08594-.0586-.10547-.04687-.0586-.08594-.05858-.08984-.04297-.10547-.04688-.10156-.07422-.07422-.08594-.0586-.07421-.07421-.08985-.0586-.22265-.22265-.04297-.10547-.03125-.26563.10547-.04296h.14453l.10547.04296.07421.07422.08985.0586.08594.0586.10546.04687.08985.05859.14844.14844.0703.07422.14845.14843.0625.08594.07421.07422.08594.0586.07422.07421.08985.0625.08984.0586.08594.05859.26953.17578.10156.04688.10547.04296.10156.04297.04688-.07421.05859-.08594.07422-.07422.07031-.07422.10547.04297.07422.07422.0586.08984.04296.10156.04688.10547.04296.10547.1211.02735.11719-.02735.07421-.08984.04297-.10547.0586-.08985.07422-.07421.10546-.04297.1172-.02735.1328.01172.08985.0586.14844.14843.05859.08985.04297.10547.04687.10156.04297.10547.04297.10156.10547.04688.10547.04296.13281.01563.08594-.0586.0586-.08984.07421-.07422.10547-.04297.11719.02735.10547.04687.10156.04297.10547.04297.10156.04688.17969.11718v.11719l-.01563.13281.01563.13281.01562.13672.0586.08594.10156.04688.1211.02734.11718.03125h.14844l.11719-.03125.05859-.08984.17969-.1172.05859-.08983.07422-.07422.0586-.08594.11718-.17969.17969-.11719.11719.03125.08984.0586.04297.07422-.01563.1328v.1172l.08985.05859h.14843l.13282-.01563.1328-.01171.26563-.03125.10547-.04297.11719-.03125.1211-.02735.07421-.07421.07031-.07422.0625-.08985-.01562-.10547-.04688-.10156-.10156-.04297-.10547-.01562-.11718.02734-.26563.03125h-.14844l-.07421-.07422-.08985-.0586-.11719-.03124-.11718-.02735-.13282-.01562h-.14843l-.13282.01563h-.29687l-.10547-.04688-.14844-.14844-.04297-.10156-.05859-.08984.22266-.22266.08593-.0586.10547-.04296.11719-.03125.13281-.01563.13281.01563.13672.01562.10157.04297.1328-.01172.08985-.0625.10156-.04297.0625-.08984-.04687-.10156-.08984-.0586-.1172-.03125-.10155-.04296-.0586-.08985-.0625-.08984v-.11719l.01563-.13281.10547-.04688.07421-.07031v-.1211l-.08984-.05859-.03125-.11719.08985-.05859.07421-.07422.04297-.10547.0586-.08984.04687-.10156.01563-.13281v-.14844l-.04688-.10547-.04297-.10156-.08984-.0586-.13281-.01562-.10157-.04297-.13671-.01563-.1172-.03125h-.4453l-.13282-.01562-.13281-.01172-.13281-.01563-.11719-.03125h-.14844l-.13281-.01562-.13281-.01172-.26563-.03125-.1211-.04297-.08593-.0586-.07422-.07421v-.14844l.01172-.13281.10547-.04688.10156-.04296.13281-.01563h.15235l.13281-.01562h.29297l.1211.03125.10156.04296.08984.0586.23438.0625.12109-.04688.08984-.05859.10156-.04297.13282-.01562.10547.04296.10156.04688.13281.01172.1211-.02735h.14453l.12109-.03125.11719-.02734.10547-.04687.07421-.07422.08594-.0586.14844-.14843.0586-.08594.04687-.10547.02734-.11719.01563-.10547-.10156-.04296-.08985-.0586-.11719-.03125-.10546-.04297-.08985-.0625-.07422-.08594-.07422-.07421-.10156-.04297-.10547-.04688-.10156-.04297-.0586-.08984-.04687-.10156-.08594-.21094-.0625-.08594-.05859-.08984-.07422-.07422-.08594-.0586h-.26953l-.11719.03126-.08984.05859-.10156.04297-.13281.01562-.10547-.01562-.02735-.11719-.0625-.08984-.11718-.03125-.10157-.04297-.14843-.14844-.03125-.11719-.01563-.10546.07422-.07422.17969-.1172.11719-.02733.11718-.03125.13672.01562.10156.04297.10547.04297.10156.04687.10547.04297.1172.03125.1328.01563.1172.02734.1328.01563.10547-.01563.08985-.0586-.07422-.07421-.10547-.04297-.07422-.07422-.07422-.08984-.14844-.14844-.08593-.0586-.08985-.05859-.07422-.07422-.08984-.0586-.10156-.04687-.1211-.02734-.10156-.04688-.10547-.04296-.11719-.03125-.10156-.04297-.1211-.03125h-.14843l-.11719.03125-.10546.04297-.08594.0625-.17969.11718-.08594.0586-.08984.0586-.10547.04687-.08594.05859-.10547.04297-.10156.04297-.10547.04687-.07422.07422-.05859.08985-.0586.08593-.04687.10547-.0586.08594-.07421.07422-.13281-.01172-.1172-.03125h-.11718l-.07422.07422-.08984.0586-.07422.07421-.08984.0586-.08594.05859-.10547.04687-.10156.04297-.13672.01563-.10156-.04297-.14844-.14844-.10547-.04688h-.08594l-.10547.04688-.10156.04297-.1211.03125-.11718-.03125-.07422-.07422v-.11719l.03125-.1211.07422-.0703.0586-.08985.07421-.07422.11719-.03125.10547-.04296h.29297l.13281-.01563.13672-.01563.10156-.04296.08985-.0586.10156-.04687.08984-.0586.13281-.01171.08985.05859.13281.01172.08984-.0586.08594-.05859.10547-.04297.08984-.0586.08594-.0625.08985-.05859.14843-.14843.0586-.08594.05859-.08985.10547-.04296.13281-.01563.11719.02735.1211.03125.05859-.0586.05859-.08984.03125-.26563.02734-.11719.10547.01172.13281.01563.10157-.04297.08984-.0586.0586-.08984.07421-.07422.0586-.08984.04687-.10156.01172-.13281-.01172-.13282-.04687-.10547-.14844-.14843-.0586-.08985-.05859-.08594-.04297-.10546v-.44532l.01563-.1328v-.14845l.01172-.1328-.0586-.0586-.08984.0586-.10156-.04298-.17969-.11719-.08594-.05859-.0625-.08984-.0586-.08985-.07421-.07421-.08594-.0586-.1211.03125-.10155.01172-.10547.04688-.08594.05859-.10547.04297-.14844.14844-.08984.05859-.08594.0586-.08984.0625-.10547.04296-.13281.01563v-.1211l.10547-.04297.11718-.03125.07422-.0703.04297-.10548v-.14844l-.02734-.11718-.14844-.14844-.13281-.01563h-.14844l-.11719.03125-.10547.04297-.10156.04297-.08984.0625-.11719.02735-.07422-.07422.01172-.13281-.04297-.10157-.04297-.10547-.08984-.05859-.11719.02734-.1211.03125-.11718.03125-.10156.04297-.1211.03125-.10156.04297-.10547.04297-.08984.0586-.10156.01562v-.11719l.01562-.13281-.0586-.08985-.07421.04297-.14844.14844-.0586.08985-.07421.07421-.04688.10547-.04296.10156-.07422.07422-.0586.08985-.07422.07422-.05859.08593-.07422.07422-.08984.0625-.07422.07031-.07422.07422-.10156.01563-.13281.01562-.10547-.04296v-.1211l.14843-.14844.04297-.10156.0586-.08984.04687-.10156.04297-.10547.0586-.08985.03124-.11719.04297-.10156.03125-.1211.02735-.11718.04687-.10547.04297-.10156.04297-.10547.07422-.07031.08984-.0625.08985-.0586.10156-.04296h.29687l.26563-.03125.10547-.04297-.07422-.07422-.11719-.03125-.10547-.04297-.08984-.0586-.10156-.04687-.08985-.0586-.10156-.04296-.10547-.04297-.08984-.0625-.08594-.0586-.10547-.04296-.10156-.04297-.1211-.03125-.11718-.03125-.10157-.04297L297.5 410.25l-.10156-.04297-.08985-.0586-.04296-.10546-.01563-.13281.10156-.04297.13281-.01563.13672.01563.13282-.01563.10156-.04297.0586-.08984.01562-.10547-.08985-.0586-.07421-.07421-.10157-.04297-.08984-.0586-.14844-.14843-.04297-.10547-.01562-.13281v-.29297l-.0586-.08985-.08984-.05859-.07422-.07422-.04297-.10547-.03125-.11718-.0586-.08985-.07421-.07422-.11719-.02734-.07422-.07422-.08984-.0586-.08984-.0625-.08594-.05859-.07422-.07421-.0586-.08594-.04687-.10547-.08594-.0586-.14843-.14843-.19532-.0586-.1328.01563-.10157.04297-.07422.07422-.04688.10156-.04296.10547-.0586.08984-.0586.08594-.29687.29687-.08984.0586h-.08594l-.0625-.08594-.04297-.10547.03125-.11719.0586-.08984.02734-.11719-.01172-.13281-.08984-.0625-.10547.04688-.11719.02734-.11719.03125-.26953.17578-.10156.04688-.11719.02734-.10546.04687-.08985.0586-.10156.04297-.0586-.08594-.04687-.10547.01563-.13281.04687-.10547.07031-.07422.07422-.07031.0586-.08985v-.14843l-.04297-.10547h-.23829l-.10156.04687-.03125.11719-.02734.11719-.03125.1211-.07422.04296-.13281.01563-.07422-.04688-.04297-.10156-.04297-.10547-.04687-.10156-.04297-.10547-.1211.03125-.10156.04297-.13281.01562-.11719.03125-.10547.04297-.08984.0586-.10156.04687-.1211.02734-.13281.01563-.10156-.04297-.0586-.08985-.04687-.10546-.04297-.10157-.04297-.10546v-.1172l.0586-.08984.08593-.05859.17969-.11719.10156-.04687.10547-.04297.10547-.0586.10156-.04296.08985-.0625.10156-.04297.10547-.0586.10156-.04687.08984-.0586.10547-.04296.10156-.04297.08985-.0625.10156-.04297.13672-.01563.11719.03125.10156.04297.1211.03125.10156.04297.10546.04688.10157.04296.10547.04297.10156.04688.10547.04297.10156.04297.10547.04687.08594.0586.10546.04296.1172.03125.10546.04297.10156.04688.08985.0586.10547.04296.10156.04297.10547.04687.11719.02735.10156.04687.1211.02735h.14843l.08594-.0586.01562-.10156.0586-.08984-.02735-.1172-.07422-.07421-.11719-.17969-.07421-.07422-.08985-.07421-.17969-.1172-.08593-.05859-.10547-.04296-.10156-.04688-.26954-.17578-.05859-.08985-.07422-.07421-.0586-.08985-.04296-.10156-.03125-.11719-.01563-.13672v-.5625l-.01171-.1328-.01563-.13282-.03125-.11719-.01562-.13281-.01172-.13281-.03125-.1211-.22266-.22265-.0586-.08594-.01562-.10547.03125-.11719.13281-.01562v-91.41406H172.9922v1.45312l-.0586.23438-.35156 1.05078-.17187.52343-.1172.34766-.17577.41016-.11719.17187-.23438.29297-.23046.0586h-.35157l-.11718.05859-.23047.40625v.29297l.11719.17578.23046.23047.1172.23437.64062.75781.29297.46485.17578.23437.23047.35156.23437.34766.64063.8164.17578.46485.17187.41016.11719.69531.17578.46875.11719 1.39844.0586.46484v.875l.11718 1.04688v4.78125l-.0586.46484-.35156 1.28125-.17578.52344-.11328.41015-.35156.9297L172.93359 336l-.23437.58203-.11719.17578-.17187.34766-.17578.40625-.35157.8164-.0586.29297-.11327.29297-.11719.28906-.0586.17579-.11718.875-.0586.40625-.05859.11718-.0586.17579-.05859.17187-.23047.52734-.11718.17188v.23437l-.11719.23438-.0586.17187-.17577.58594v.28906l-.0586.17579v.29296l-.0586.11329-.05859.52734v.17187l-.05468.23438v2.6211l-.17578.8164-.1172.17578-.17577.23438-.1172.17187-.11327.23438-.58594.93359-.23047.28906-.29297.46485-.17578.23437-.28906.35156-.35156.69922-.11328.23047-.17579.41016-.17578.23046-.40625.52735-.8164.69922-.29297.17187-.28906.23438-.17579.11719-.17578.17578-.52344.40625-.52734.17578-.17187.17578-.23438.05469-.64062.17578h-.75782m12.21094 31.02344l-1.07422.44921.35938.89454 1.25-.71485.44531-.53906-.98047-.08985"/><path fill="#d3d3d3" fill-opacity="0" fill-rule="evenodd" d="M201.50781 416.59766h-.89453l.44922.6289.98047.35938.80469-.08985.4453-.98828-.17577.08985-.71485-.35547-.89453.35547m154.6211 59.0703l-.0586-.52343v-.29297l.11328-.29297.0586-.23046.46875-.46875h.11328l.11719-.11329.11718-.05859h.17579l.23437-.0586h.34766l.23437.0586.11719.0586.23047.17187.0586.17578.11718.58203v.29297l-.11719.17578-.17187.28906-.17579.17579-.52734.52343-.23047.23438-.11719.0586h-.17578l-.11718-.0586-.40625-.29297-.17579-.11719-.11718-.0586-.0586-.11327-.05468-.1172m6.64062-10.95702l-.0586-.17188v-1.10937l.0586-.17188.17578-.0586.17188-.05858h.17578l.23437-.0586.1172.0586.05858.69921-.05859.17188-.11719.17578-.11718.0586-.23438.52343-.11328.0586h-.23438l-.05859-.1172m9.61328-14.39062l-.11719-.17578v-.69922l.29297-.875.1172-.17187.17577-.35156.11328-.23047.1172-.29297.35155-.75781.1172-.23047.17187-.23438h.17578l.11719-.0586h.64062l.11719.0586.23437.23438.17188.11328.35156.29297.11719.11718.11328.17579v.11328l.11719.05859.11718.11719v.69922l-.05859.17578v.23047l-.0586.17578-.34765 1.05078-.11719.23047-.11719.23437-.11718.0586-.23047.23437-.64063.28906h-.875l-.41015-.11718-.64063-.46485"/><path fill="none" stroke="#bebebe" stroke-linecap="round" stroke-linejoin="round" stroke-miterlimit="10" stroke-width=".5" d="M467.95703 311.69531H144.02734v168.625h323.9297v-168.625"/><g clip-path="url(#a)"><path fill="#fff" fill-opacity="0" fill-rule="evenodd" d="M144 475.89063v4.4375h.0039H144V311.67188h.0039H144v164.21875"/></g><g clip-path="url(#b)"><path fill="#fff" fill-opacity="0" fill-rule="evenodd" d="M144.0039 480.32813V311.67188h79.88673v145.67187l-2.28907.79297 2.28906.32812 4.4375-.2539.52735-.07422-.52734-.26172-4.4375-.53125V311.67187h22.1914v113.21875l-4.4375.00391-3.38672 2.17578-.45703 4.4375-.59375.83594-1.44531-.83594-2.9961-3.67187-4.4375-.10938-3.97265 3.78125 3.97266 3.67578 1.26562.76172 3.17188 2.71094 4.4414.61328v9.24219l-1.52734.75 1.52734 2.375 3.59375-2.375-3.59375-.75v-9.24219l1.49219 1.11328 2.94531 2.89453 4.4375-.35546 2.4336-2.53907-2.4336-3.17187-.9961-1.26563.9961-.70703 3.22656-3.73047-1.15625-4.4375-2.0703-2.17969V311.67188h22.1914v116.15625l-3.86719 3.6797 3.86719 3.55859 4.4375-1.1211 3.91015-2.4375-3.91015-2.54687-4.4375-1.13281V311.67188h17.7539v105.40234l-1.1289 1.11719-3.3086 1.67578-4.4375 1.01172-2.0039 1.75 2.0039 1.83984 4.33204 2.60156.10546.09375.21875-.09375 4.21875-.71875 1.40235.71875 3.03515 2.11328v23.82032l-3.20312.6953-1.23438.77735-1.125 3.66016 1.125 1.6914 4.4375-.08984 2.82032-1.60156-1.76172-4.4375-1.0586-.69531v-23.82032l2.10938-2.11328 2.32812-.96875 3.47657-3.47265-3.47657-3.85547-4.4375.125-3.16015-.70703-1.27735-1.1172V311.67189h26.62891v102.7539l-3.89844 3.76563.78125 4.4375 3.11719 3.10937 3.01172-3.10937.7539-4.4375-3.76562-3.76563v-102.7539h4.4414V448.5078l-1.89062.7539-2.55078.91017-4.4375 1.07812-4.4375 1.72266-1.42578.72656-3.01172 4.19922-.5586.23828.5586.08203 4.4375 1.7539 4.4375-.19921 4.4375-.39063 2.71875-1.2461 1.72266-2.09765 1.70703-2.33984-.08203-4.4375-1.625-.7539V311.67187h39.9453v120.65234l-4.4414.47656-3.7461 3.14453 3.7461 3.82031 1.4375.6172 3.0039 1.94921 1.9297-1.94922 1.95312-4.4375-3.88281-3.6211V311.67189h22.1914v119.9453l-4.14062 4.32813-.30078 2.19922-.67578 2.23828-3.76172 1.28125-4.4375 3.14844-.01953.00781.01953.05469.5664 4.38672-.5664.80469-4.4375-.46485-4.4375-.02734-4.4414-.20313-4.4375 3.7461-.29688.58203.29687 1.89844.49219 2.53906 3.94531 1.71484h4.4414l3.73048-1.71484.70703-.34375 4.4375-.78516.57422 1.1289 1.27344 4.4375 2.58984 3.01954 4.4375-.73828 4.4414-1.92188.60157-.35937 3.3125-4.4375.52344-.64844 3.8125-3.78906-.62891-4.4375 1.2539-4.27735 4.4375 2.9297v8.5078l-2.6914 1.71485-1.7461 1.04297-2.40625 3.39453 2.40625 1.91406 4.4375-.39453 2.21094-1.51953-.86328-4.4375-1.34765-1.71485v-8.5078l4.4375-2.46094.80468-.63282-.80469-.80078-4.4375-3.0039-.48046-.63282-3.95704-2.16797-1.91406-2.26953-2.52344-3.14453-4.4375-1.1836v-119.9453h22.19141v139.0625l-3.51172 2.96484 3.51172 2.08984v16.54297l-4.4414 1.4336-2.40235 2.125 2.40235 2.0664 4.4414 1.77735 3.25-3.84375-3.25-3.5586v-16.54297l2.20703-2.08984-2.20703-2.96485v-139.0625h66.57031v168.65625H144.00391"/></g><path fill="#50fcfc" fill-rule="evenodd" d="M223.89063 458.46484l-2.28907-.32812 2.28906-.79297 4.4375.53125.52735.26172-.52734.07422-4.4375.2539m4.4375-23.28125l-3.97266-3.67578 3.97266-3.78125v2.04688l-1.82032 1.73437 1.82031 1.6875 3.76563-1.6875-3.76563-1.73437v-2.04688l4.4375.10938 2.9961 3.67187 1.44531.83594.59375-.83594.45703-4.4375 3.38672-2.17578v3.29297l-2.38672 3.32031-2.05078 2.875-4.22266 1.5625 4.22266 1.4414 4.01172 2.9961.42578.41797 1.6875-.41797-1.6875-4.4375 4.4375-3.14844 1.11719-1.28906-1.11719-2.0664-4.4375-1.25391v-3.29297l4.4375-.0039 2.07031 2.17968 1.15625 4.4375-3.22656 3.73047-.9961.70703.9961 1.26563 2.4336 3.17187-2.4336 2.53906-4.4375.35547-2.94531-2.89453-1.49219-1.11328-4.4414-.61328-3.17188-2.71094-1.26563-.76172"/><path fill="#00e8fc" fill-rule="evenodd" d="M228.32813 433.19531l-1.82032-1.6875 1.82031-1.73437 3.76563 1.73437-3.76563 1.6875m8.87891 4.1914l-4.22266-1.4414 4.22266-1.5625 2.05078-2.875 2.38672-3.32031 4.4375 1.2539 1.11719 2.06641-1.11719 1.28906-4.4375 3.14844 1.6875 4.4375-1.6875.41797-.42578-.41797-4.01172-2.9961"/><path fill="#50fcfc" fill-rule="evenodd" d="M237.20703 451.63672l-1.52734-2.375 1.52734-.75 3.59375.75-3.59375 2.375m31.0664-16.57031l-3.86718-3.5586 3.86719-3.67969v1.57813l-2.20703 2.10156 2.20703 2.03125 3.82031-2.03125-3.82031-2.10156v-1.57813l4.4375 1.13282 3.91015 2.54687-3.91015 2.4375-4.4375 1.1211"/><path fill="#00e8fc" fill-rule="evenodd" d="M268.27344 433.53906l-2.20703-2.03125 2.20703-2.10156 3.82031 2.10156-3.82031 2.03125"/><path fill="#50fcfc" fill-rule="evenodd" d="M277.15234 424.46875l-2.0039-1.83984 2.0039-1.75 4.4375-1.01172 3.3086-1.67578 1.1289-1.1172 1.27735 1.1172 3.16015.70703v1.28515l-4.4375.86329-4.4375 1.3789-.54296.20313.54296.33203 4.4375.78906 4.4375 2.54688 4.4375-1.65625 2.01563-2.01172-2.01563-2.23438-4.4375-.21094v-1.28515l4.4375-.125 3.47657 3.85547-3.47657 3.47265-2.32812.96875-2.10938 2.11328-3.03515-2.11328-1.40235-.71875-4.21875.71875-.21875.09375-.10546-.09375-4.33204-2.60156"/><path fill="#00e8fc" fill-rule="evenodd" d="M281.58984 422.96094l-.54296-.33203.54296-.20313 4.4375-1.3789 4.4375-.86329v2.13672l-.72265.3086.72265.46484 2.01172-.46484-2.01172-.3086v-2.13672l4.4375.21094 2.01563 2.23438-2.01563 2.01171-4.4375 1.65625-4.4375-2.54687-4.4375-.78906"/><path fill="#50fcfc" fill-rule="evenodd" d="M286.02734 459.82813l-1.125-1.69141 1.125-3.66016 1.23438-.77734 3.20312-.69531 1.0586.6953 1.76172 4.4375-2.82032 1.60157-4.4375.08985"/><path fill="#00d4fc" fill-rule="evenodd" d="M290.46484 423.09375l-.72265-.46484.72265-.3086 2.01172.3086-2.01172.46484"/><path fill="#50fcfc" fill-rule="evenodd" d="M299.34375 458.21875l-.5586-.08203.5586-.23828 3.01172-4.19922 1.42578-.72656 4.4375-1.72266 4.4375-1.07813 2.55078-.91015 1.89063-.7539 1.625.7539.08203 4.4375-1.70703 2.33984-1.72266 2.09766-2.71875 1.2461-4.4375.39062-4.4375.19922-4.4375-1.75391m10.19531-35.58984l-.78125-4.4375 3.89844-3.76563v1.01172l-2.85156 2.7539 1.97656 4.4375.875.875.84766-.875 1.90625-4.4375-2.75391-2.7539v-1.01172l3.76563 3.76563-.75391 4.4375-3.01172 3.10937-3.11719-3.10937"/><path fill="#00e8fc" fill-rule="evenodd" d="M311.78125 422.6289l-1.97656-4.4375 2.85156-2.7539v1.6875l-1.10156 1.0664 1.10156 2.00782 1.0664-2.00781-1.0664-1.06641v-1.6875l2.7539 2.7539-1.90624 4.4375-.84766.875-.875-.875"/><path fill="#00d4fc" fill-rule="evenodd" d="M312.65625 420.19922l-1.10156-2.00781 1.10156-1.06641 1.0664 1.0664-1.0664 2.00782"/><path fill="#50fcfc" fill-rule="evenodd" d="M348.16406 455.59766l-.29687-1.89844.29687-.58203 4.4375-3.7461 4.4414.20313 4.4375.02734 4.4375.46485.56642-.8047-.56641-4.38671-.01953-.05469.01953-.00781 4.4375-3.14844 3.76172-1.28125.67578-2.23828.30078-2.19922 4.14063-4.32812 4.4375 1.1836V439.5l-4.4375.03125-3.39454.85156 1.97657 4.4375 1.41796.6914v1.92188l-3.08203 1.82813-1.35937.83984-4.4375.2539-2.27735 3.34376 1.4336 4.4375.84375 3.28906 4.4375-.03906 4.4414.03125 2.84766-3.28125 1.58985-1.97656 2.47656-2.46094-2.2461-4.4375-.23046-.23438-4.4375-1.59375v-1.92187l4.4375.52344 4.26953-1.21485-3.14063-4.4375-1.1289-.88281v-6.69922l2.52343 3.14453 1.91406 2.26953 3.95704 2.16797.48046.63281 4.4375 3.00391.8047.80078-.8047.63281-4.4375 2.46094-4.4375-2.92969-1.2539 4.27735.6289 4.4375-3.8125 3.78906-.52343.64844-3.3125 4.4375-.60156.35937-4.44141 1.92188-4.4375.73828-2.58985-3.01953-1.27343-4.4375-.57422-1.1289-4.4375.78515-.70703.34375-3.73047 1.71484h-4.4414l-3.94532-1.71484-.49219-2.53906m4.4375-15.83204l-3.7461-3.8203 3.7461-3.14454 4.4414-.47656v1.6211l-4.4414 1.27343-.86719.72656.8672.88281L357.04296 439l2.14453-3.05469-2.14453-2v-1.6211l3.88281 3.6211-1.95312 4.4375-1.9297 1.94922-3.0039-1.94922-1.4375-.61719"/><path fill="#00e8fc" fill-rule="evenodd" d="M352.60156 436.82813l-.86719-.88282.8672-.72656 4.4414-1.27344 2.14453 2L357.04297 439l-4.4414-2.17188m16.91015 21.3086l-1.4336-4.4375 2.27735-3.34375 4.4375-.2539 1.35937-.83985 3.08204-1.82813v3.41797l-4.44141 2.60156-.40625.2461.40625.55078 2.04297 3.88672 2.39844 1.23437 1.0703-1.23437 3.3672-4.1836.2539-.2539-.2539-.47656-4.4375-2.3711v-3.41797l4.4375 1.59375.23046.23438 2.2461 4.4375-2.47656 2.46094-1.58985 1.97656-2.84765 3.28125-4.44141-.03125-4.4375.03906-.84375-3.28906"/><path fill="#00d4fc" fill-rule="evenodd" d="M374.79297 454.25l-.40625-.55078.40625-.2461 4.4414-2.60156 4.4375 2.3711.25391.47656-.2539.2539-3.3672 4.1836-1.0703 1.23437-2.39844-1.23437-2.04297-3.88672"/><path fill="#fff" fill-opacity="0" fill-rule="evenodd" d="M379.23438 439.53125l-3.39454.85156 1.97657 4.4375 1.41796.6914 4.4375.52345 4.26954-1.21485-3.14063-4.4375-1.1289-.88281-4.4375.03125"/><path fill="#50fcfc" fill-rule="evenodd" d="M388.10938 464.48828l-2.40625-1.91406 2.40625-3.39453 1.74609-1.04297 2.6914-1.71485 1.34766 1.71485.86328 4.4375-2.21094 1.51953-4.4375.39453m8.875 13.46875l-2.40234-2.0664 2.40235-2.125 4.4414-1.4336v2.89844l-1.4336.66015 1.4336.71094.60156-.71094-.60156-.66015v-2.89844l3.25 3.5586-3.25 3.84375-4.4414-1.77735m4.4414-22.16797l-3.51172-2.08984 3.51172-2.96485 2.20703 2.96485-2.20703 2.08984"/><path fill="#00e8fc" fill-rule="evenodd" d="M401.42578 476.60156l-1.4336-.71094 1.4336-.66015.60156.66015-.60156.71094"/><g clip-path="url(#c)"><path fill="#fff" fill-opacity="0" fill-rule="evenodd" d="M467.9961 480.32813H468V311.67188h-.0039H468v168.65625h-.0039"/></g><path fill="#fff" fill-opacity="0" fill-rule="evenodd" d="M385.14844 463.42969l3.90625-4.33985-7.40235-6.66406-3.91015 4.33985 7.40625 6.66406"/><path fill-rule="evenodd" d="M381.44531 455.39063l.34375-.375 4.67578 4.21093-.52343.58203-3.33985-3.0039-.92578 1.03515-.41406-.37109.32422-.46094.1289-.22265.08985-.23047.03125-.2461-.04297-.26953-.1211-.30469-.22656-.34375"/><g clip-path="url(#d)"><path fill="none" stroke="#000" stroke-linecap="round" stroke-linejoin="round" stroke-miterlimit="10" stroke-width=".5" d="M147.4414 481.04688l-6.8828-1.4336"/></g><g clip-path="url(#e)"><path fill="none" stroke="#000" stroke-linecap="round" stroke-linejoin="round" stroke-miterlimit="10" stroke-width=".5" d="M146.4375 480.83594l.34375 1.17969"/></g><g clip-path="url(#f)"><path fill="none" stroke="#000" stroke-linecap="round" stroke-linejoin="round" stroke-miterlimit="10" stroke-width=".5" d="M160.67578 481.35156l-6.72266-2.04687"/></g><g clip-path="url(#g)"><path fill="none" stroke="#000" stroke-linecap="round" stroke-linejoin="round" stroke-miterlimit="10" stroke-width=".5" d="M159.69922 481.05469l.23437 1.20312"/></g><g clip-path="url(#h)"><path fill="none" stroke="#000" stroke-linecap="round" stroke-linejoin="round" stroke-miterlimit="10" stroke-width=".5" d="M173.99219 481.34766l-6.72656-2.03907"/></g><g clip-path="url(#i)"><path fill="none" stroke="#000" stroke-linecap="round" stroke-linejoin="round" stroke-miterlimit="10" stroke-width=".5" d="M173.01563 481.05078l.23437 1.20313"/></g><g clip-path="url(#j)"><path fill="none" stroke="#000" stroke-linecap="round" stroke-linejoin="round" stroke-miterlimit="10" stroke-width=".5" d="M187.44531 480.61719l-7-.57422"/></g><g clip-path="url(#k)"><path fill="none" stroke="#000" stroke-linecap="round" stroke-linejoin="round" stroke-miterlimit="10" stroke-width=".5" d="M186.42969 480.53125l.48437 1.1289"/></g><g clip-path="url(#l)"><path fill="none" stroke="#000" stroke-linecap="round" stroke-linejoin="round" stroke-miterlimit="10" stroke-width=".5" d="M200.71484 480.97266l-6.91015-1.28907"/></g><g clip-path="url(#m)"><path fill="none" stroke="#000" stroke-linecap="round" stroke-linejoin="round" stroke-miterlimit="10" stroke-width=".5" d="M199.71094 480.78516l.36328 1.17187"/></g><g clip-path="url(#n)"><path fill="none" stroke="#000" stroke-linecap="round" stroke-linejoin="round" stroke-miterlimit="10" stroke-width=".5" d="M213.85938 481.57813l-6.56641-2.5"/></g><g clip-path="url(#o)"><path fill="none" stroke="#000" stroke-linecap="round" stroke-linejoin="round" stroke-miterlimit="10" stroke-width=".5" d="M212.90234 481.21484l.15625 1.21485"/></g><g clip-path="url(#p)"><path fill="none" stroke="#000" stroke-linecap="round" stroke-linejoin="round" stroke-miterlimit="10" stroke-width=".5" d="M226.57031 482.60156l-5.35937-4.54297"/></g><g clip-path="url(#q)"><path fill="none" stroke="#000" stroke-linecap="round" stroke-linejoin="round" stroke-miterlimit="10" stroke-width=".5" d="M239.65625 482.84766l-4.90234-5.03516"/></g><g clip-path="url(#r)"><path fill="none" stroke="#000" stroke-linecap="round" stroke-linejoin="round" stroke-miterlimit="10" stroke-width=".5" d="M253.84375 481.47656l-6.64453-2.29297"/></g><g clip-path="url(#s)"><path fill="none" stroke="#000" stroke-linecap="round" stroke-linejoin="round" stroke-miterlimit="10" stroke-width=".5" d="M252.875 481.14063l.1914 1.21093"/></g><g clip-path="url(#t)"><path fill="none" stroke="#000" stroke-linecap="round" stroke-linejoin="round" stroke-miterlimit="10" stroke-width=".5" d="M267.33594 480.61719l-7.0039-.57813"/></g><g clip-path="url(#u)"><path fill="none" stroke="#000" stroke-linecap="round" stroke-linejoin="round" stroke-miterlimit="10" stroke-width=".5" d="M266.32031 480.53125l.48438 1.1289"/></g><g clip-path="url(#v)"><path fill="none" stroke="#000" stroke-linecap="round" stroke-linejoin="round" stroke-miterlimit="10" stroke-width=".5" d="M280.65625 480.5586l-7.01172-.46094"/></g><g clip-path="url(#w)"><path fill="none" stroke="#000" stroke-linecap="round" stroke-linejoin="round" stroke-miterlimit="10" stroke-width=".5" d="M279.63672 480.49219l.5039 1.11719"/></g><g clip-path="url(#x)"><path fill="none" stroke="#000" stroke-linecap="round" stroke-linejoin="round" stroke-miterlimit="10" stroke-width=".5" d="M293.95313 480.75781l-6.97657-.85547"/></g><g clip-path="url(#y)"><path fill="none" stroke="#000" stroke-linecap="round" stroke-linejoin="round" stroke-miterlimit="10" stroke-width=".5" d="M292.9375 480.63281l.4414 1.14453"/></g><g clip-path="url(#z)"><path fill="none" stroke="#000" stroke-linecap="round" stroke-linejoin="round" stroke-miterlimit="10" stroke-width=".5" d="M307.29297 480.26172l-7.02344.13672"/></g><g clip-path="url(#A)"><path fill="none" stroke="#000" stroke-linecap="round" stroke-linejoin="round" stroke-miterlimit="10" stroke-width=".5" d="M306.27344 480.28125l.59375 1.07031"/></g><g clip-path="url(#B)"><path fill="none" stroke="#000" stroke-linecap="round" stroke-linejoin="round" stroke-miterlimit="10" stroke-width=".5" d="M320.55469 479.71875l-6.91797 1.21875"/></g><g clip-path="url(#C)"><path fill="none" stroke="#000" stroke-linecap="round" stroke-linejoin="round" stroke-miterlimit="10" stroke-width=".5" d="M319.55078 479.89453l.7539.96875"/></g><g clip-path="url(#D)"><path fill="none" stroke="#000" stroke-linecap="round" stroke-linejoin="round" stroke-miterlimit="10" stroke-width=".5" d="M332.27344 483.3086l-3.72656-5.95704"/></g><g clip-path="url(#E)"><path fill="none" stroke="#000" stroke-linecap="round" stroke-linejoin="round" stroke-miterlimit="10" stroke-width=".5" d="M341.76172 483.24219l3.92578-5.82813"/></g><g clip-path="url(#F)"><path fill="none" stroke="#000" stroke-linecap="round" stroke-linejoin="round" stroke-miterlimit="10" stroke-width=".5" d="M355.74219 483.59375l2.59765-6.52734"/></g><g clip-path="url(#G)"><path fill="none" stroke="#000" stroke-linecap="round" stroke-linejoin="round" stroke-miterlimit="10" stroke-width=".5" d="M368.42969 483.26953l3.85156-5.8789"/></g><g clip-path="url(#H)"><path fill="none" stroke="#000" stroke-linecap="round" stroke-linejoin="round" stroke-miterlimit="10" stroke-width=".5" d="M380.15625 480.3086l7.02734.04296"/></g><g clip-path="url(#I)"><path fill="none" stroke="#000" stroke-linecap="round" stroke-linejoin="round" stroke-miterlimit="10" stroke-width=".5" d="M381.17969 480.3125l-.57031-1.08594"/></g><g clip-path="url(#J)"><path fill="none" stroke="#000" stroke-linecap="round" stroke-linejoin="round" stroke-miterlimit="10" stroke-width=".5" d="M394.75781 477.61328l4.45703 5.4336"/></g><path fill="none" stroke="#000" stroke-linecap="round" stroke-linejoin="round" stroke-miterlimit="10" stroke-width=".5" d="M395.40625 478.40234l.47266-1.1328"/><g clip-path="url(#K)"><path fill="none" stroke="#000" stroke-linecap="round" stroke-linejoin="round" stroke-miterlimit="10" stroke-width=".5" d="M406.78906 480.1836l7.02344.28906"/></g><g clip-path="url(#L)"><path fill="none" stroke="#000" stroke-linecap="round" stroke-linejoin="round" stroke-miterlimit="10" stroke-width=".5" d="M407.8125 480.22656l-.53125-1.10547"/></g><g clip-path="url(#M)"><path fill="none" stroke="#000" stroke-linecap="round" stroke-linejoin="round" stroke-miterlimit="10" stroke-width=".5" d="M421.27734 482.94922l4.6797-5.24219"/></g><g clip-path="url(#N)"><path fill="none" stroke="#000" stroke-linecap="round" stroke-linejoin="round" stroke-miterlimit="10" stroke-width=".5" d="M435.66016 483.60547l2.54296-6.55078"/></g><g clip-path="url(#O)"><path fill="none" stroke="#000" stroke-linecap="round" stroke-linejoin="round" stroke-miterlimit="10" stroke-width=".5" d="M449.63672 483.78906l1.21875-6.92187"/></g><g clip-path="url(#P)"><path fill="none" stroke="#000" stroke-linecap="round" stroke-linejoin="round" stroke-miterlimit="10" stroke-width=".5" d="M466.72266 481.85938l-6.32422-3.0625"/></g><g clip-path="url(#Q)"><path fill="none" stroke="#000" stroke-linecap="round" stroke-linejoin="round" stroke-miterlimit="10" stroke-width=".5" d="M147.51172 466.97266l-7.02344.08203"/></g><path fill="none" stroke="#000" stroke-linecap="round" stroke-linejoin="round" stroke-miterlimit="10" stroke-width=".5" d="M146.49219 466.98438l.58594 1.07812m13.48046.30469l-6.48437-2.70703m5.53906 2.3125l.11328 1.22265m13.84766-.26562l-5.89063-3.83203m5.03516 3.27343l-.10938 1.22266m14.67188-1.47656l-6.67188-2.20703m5.69922 1.88672l.20703 1.20703m14.20313-1.36328l-6.91406-1.25m5.90625 1.0664l.375 1.16797m14-1.74219l-7.02344.26172m6.0039-.22265l.61329 1.05859m13.70312-.57422l-6.98437-.78516m6.98437.78516l.90235 2.28125m12.41406-2.3125l-6.98828-.72266m5.97265.6172l.46094 1.13671m13.89063-1.4375l-7.02735.08984m6.0039-.07422l.58985 1.07422m13.67578-1.7539l-6.8828 1.41797m5.8828-1.21094l.78125.94531m13.50782-1.26562l-6.83204 1.64453m5.83985-1.40625l.8125.91797m13.44531.67578l-6.73047-2.01953m5.75 1.72656l.24219 1.20312m13.13281.60157l-4.89062-5.04297m4.17968 4.3086l-.3789 1.16796m13.97656-.07813l-4.03516-5.7539m14.92579 6.36719l.8164-6.98047m14.5586 6.58984l-3.3086-6.19922m2.82813 5.29688l-.6836 1.01953m11.21875-.09375l3.21875-6.2461m8.32813 4.10157l6.75-1.95703m-5.76563 1.67187l-.85547-.8789m13.34375 1.59765l6.4336-2.82422m-5.4961 2.41406l-.96484-.76171m13.0664.13671l6.98829-.7539m-5.97266.64453l-.6875-1.01563m12.98828 1.12891l6.98438-.76172m-5.96875.65235l-.6875-1.01563m12.98437.3789l6.98828.73438m-5.96875-.6289l-.46093-1.13672m12.96484 2.63281l6.57422-2.47266m-5.61719 2.11328l-.92187-.8125m15.65234 3.32813l1.82813-6.78516m8.91015 3.80078l6.98047-.8164m-5.96484.69922l-.69532-1.01172"/><g clip-path="url(#R)"><path fill="none" stroke="#000" stroke-linecap="round" stroke-linejoin="round" stroke-miterlimit="10" stroke-width=".5" d="M147.44531 453.00781l-6.89062 1.3789"/></g><path fill="none" stroke="#000" stroke-linecap="round" stroke-linejoin="round" stroke-miterlimit="10" stroke-width=".5" d="M146.4414 453.21094l.77735.94922m13.57813.0039l-6.96485-.92968m5.95313.79296l.42578 1.15235m11.65234 1.8086l-2.46875-6.57813m2.10938 5.62109l-.8086.91797m14.97656-.1914l-3.45312-6.1172m2.94922 5.22657l-.66016 1.03515m15.05469-.55078l-4.60547-5.3086m3.9336 4.53907l-.44141 1.14453M213.99609 454.5l-6.83984-1.60547m5.84375 1.375l.3125 1.1836m13.99219-.9297l-6.82813-1.65234m5.83594 1.41407l.30469 1.1875m14.04297-2.42188l-6.90625 1.29688m5.89843-1.10938l.76563.95703m13.59375-.875l-6.98438.75781m5.96875-.64843l.69141 1.01562m13.66016-.86719l-7.02344.2422m7.02344-.2422l1.22656 2.125m11.97266-2.90625l-6.79297 1.8047m6.79297-1.8047l1.66796 1.80079m11.375-2.50782l-6.24609 3.21875m6.2461-3.21875l2.01562 1.39844m11.4414-1.08203l-6.53125 2.58594m5.58204-2.21094l.93359.79297m12.73437-2.16016l-5.33984 4.5664m12.8711-.65234l6.22656-3.2578m7.3711 3.70702l5.66405-4.15625m-4.83984 3.55078l-1.10547-.53125m13.02344-.07812l6.8086-1.72656m-5.82032 1.47656l-.82422-.91016m13.05469.00391l7.0039.58594m-5.98437-.5l-.48438-1.1289m12.82422.6953l6.91016 1.28125m-5.90234-1.09375l-.3711-1.17187m12.7539.66797l6.76173 1.91406m-6.76172-1.91406l-.51953-2.39844m13.74218 2.83594l6.94922 1.03515m-5.9414-.8828l-.41016-1.15626m12.70703 1.07813l6.96875.89062m-5.95703-.76172l-.4336-1.14844m12.70704 1.39844l7.02734.13281m-6.0039-.11328l-.5547-1.09375m12.98048 2.09375l6.76172-1.91015m-5.78125 1.63281L447 453.49219m14.0625 2.67578l5-4.9375"/><g clip-path="url(#S)"><path fill="none" stroke="#000" stroke-linecap="round" stroke-linejoin="round" stroke-miterlimit="10" stroke-width=".5" d="M147.10547 438.74219l-6.21094 3.28125"/></g><path fill="none" stroke="#000" stroke-linecap="round" stroke-linejoin="round" stroke-miterlimit="10" stroke-width=".5" d="M147.10547 438.74219l2.03125 1.3789m11.4336-1.05859l-6.51173 2.64453m5.5625-2.26172l.94141.78516m13.20703 1.73047l-6.28125-3.15235m5.36719 2.69141l.03125 1.22656m13.1875.45313l-4.25781-5.58985m3.64062 4.77344l-.51562 1.11719m13.98437-.0039l-3.33203-6.1875m2.84766 5.28906l-.6797 1.01953m15.1875-.625l-4.74608-5.1797m4.05468 4.42579l-.41015 1.16016m13.39843.24609l-2.71093-6.48438m18.18359 3.32422l-7.02734-.16015m6.0039.13672l.55078 1.09375m13.72266-1.83594l-6.89453 1.36719m20.2539-1.05079l-6.98828.73829m5.97266-.63282l.6875 1.01563m13.66406-.80078l-7.02734.09765m6.0039-.08593l.59375 1.07812m13.51563-2.28516l-6.57031 2.48829m6.57031-2.48828l1.84766 1.61718m11.14062-2.26953l-5.91406 3.79297m5.91406-3.79297l2.14063 1.19922m11.30078-.99219l-6.16406 3.375m5.26562-2.88281l1.02344.67578m12.77344-1.76562l-5.33594 4.5703m12.52344-1.67577l6.92187-1.21875m-5.91406 1.04297l-.7539-.96875m13.09765-.25782l6.84765 1.58985m7.21094-3.0664l5.36328 4.53905m-4.58594-3.8789l.26172-1.19922m11.46485 3.20703l6.98437-.79297m-5.96875.67578l-.69531-1.01172m15.25781-2.55859l2.45703 6.58203m-2.10156-5.625l.8164-.91797m12.65626-.1875l1.4336 6.8789m-1.22657-5.8789l.9414-.78515m11.08204.20703l3.60156 6.03515m-3.07813-5.16015l.63672-1.04688m11.29688.89453l5.3164 4.58985m-4.54296-3.92188l.26953-1.19922m11.6875 1.46875l6.48437 2.71485m-5.53906-2.32031l-.11328-1.22266m13.67578-.66797l4.09765 5.70703"/><g clip-path="url(#T)"><path fill="none" stroke="#000" stroke-linecap="round" stroke-linejoin="round" stroke-miterlimit="10" stroke-width=".5" d="M146.88281 425.0586l-5.76562 4.01952"/></g><path fill="none" stroke="#000" stroke-linecap="round" stroke-linejoin="round" stroke-miterlimit="10" stroke-width=".5" d="M146.88281 425.0586l2.1836 1.11718m-3.02344-.53125l1.09375.5586m12.875-1.38672l-5.39453 4.5039m5.39453-4.5039l2.27344.92578m11.46484-.29297l-6.23828 3.23828m5.32812-2.76562l1.01172.6953m13.1836 2.1211l-6.1797-3.33984m5.28126 2.85547l-.00781 1.22656m14.16797-.64844l-6.07422-3.52734m6.07422 3.52734l-.08985 2.45313m13.38281-2.41016l-6.02734-3.60937m5.14844 3.08203l-.0586 1.22656m8.1797-4.23438l6.11718 3.45704m10.4414 1.78125l-.36718-7.01954m13.86328 7.00391l-.73047-6.98828m.6211 5.97266l-1.01563.68359m11.85937-.4336l4.4297-5.45703m-3.78517 4.66407l-1.20312-.23828m13.84375 1.0078l4.48828-5.41015m-3.83594 4.6211l-1.19921-.2461m18.47656.92188l-4.74219-5.1836m14.00781 5.67578l3.35938-6.16796m12.38672-.34766L316.34375 430.5m1.28516-5.86328l1.17968-.33203m13.20313-.36328l-3.19922 6.2539m2.73438-5.34375l1.22656-.01953m11.53515-1.23047l-1.16406 6.9336m.99219-5.92188l1.16406-.39062m8.28516 3.49218l6.91015-1.29296m-5.90234 1.10546l-.76563-.96093m13.14063-.4336l6.77344 1.8711m8.85156-4.28125l2.15234 6.6914m-1.83984-5.71875l.85547-.8789m15.9375 1.01953l-5.42578 4.46484m5.42578-4.46484l2.26562.9414m10.61329-1.3828l-4.5547 5.35155m3.89063-4.57421l1.19922.26171m12.4414-1.29687L421.67969 430m3.3125-5.00781l1.21876.11719m12.01953-1.3047l-2.59766 6.52735m2.59766-6.52734l2.4375-.27344m8.61719.15625l1.92187 6.76172m-1.64062-5.77734l.8828-.85157m15.71876.89063l-5.21094 4.71484"/><g clip-path="url(#U)"><path fill="none" stroke="#000" stroke-linecap="round" stroke-linejoin="round" stroke-miterlimit="10" stroke-width=".5" d="M146.76172 411.58203l-5.52344 4.34375"/></g><path fill="none" stroke="#000" stroke-linecap="round" stroke-linejoin="round" stroke-miterlimit="10" stroke-width=".5" d="M146.76172 411.58203l2.2461.99219m-3.05079-.35938l1.125.4961m12.73828-1.42188l-5.00781 4.92969m5.00781-4.92969l2.33985.73828m-3.07032-.01953l1.17188.36719m12.27734-1.57031l-3.82031 5.89844m3.26563-5.03907l1.22265.10547m13.76563 3.76563l-6.0547-3.5625m19.77345 2.53515L193.82813 413m5.86328 1.28906l.33203 1.17969m9.39453 1.60156l2.3164-6.63281m14.08204.3789l-3.85157 5.875m16.26172-2.9375l-.01953-.19921-.0586-.1914-.09374-.1797-.45703-.375-.19141-.05859-.19922-.01953-.19922.01953-.19531.0586-.45703.375-.09375.17968-.0586.1914-.01953.19923.01953.19921.0586.19141.09375.17578.45703.3789.19531.0586.19922.01953.19922-.01953.1914-.0586.45704-.3789.09375-.17578.0586-.1914.01952-.19922M252.25 416.8125l-3.46094-6.11719m2.95703 5.22656l-.65625 1.03516m13.9922.08203l-2.4922-6.57031m2.12891 5.61328l-.8086.92188m16.32423-1.56641l-6.16797-3.36719m19.08593-.58203l-5.37109 4.53125m4.58984-3.8711l1.13672.45313m11.53516-2.1289l-2.52344 6.55859m2.15625-5.60156l1.21875-.14844m14.53516 1.36328l-6.66797 2.21875m5.69922-1.89453l.88672.84375m13.53906-.57422l-6.95313 1.03125m18.73438-3.4414l-3.88672 5.85156m18.57813-4.07813l-6.63672 2.30469m5.67187-1.96875l.89844.83594m12.63672-2.41407l-5.14453 4.78907m13.38672-4.86328l5 4.9375m-4.27344-4.21875l.35156-1.17579m12.9375-.09375l3.59766 6.03516m-3.07422-5.15625l.63281-1.04687m15.13281-.125l-2.35156 6.625m2.35156-6.625l2.42578-.35938m11.94922.96094l-4.47265 5.42187m4.47265-5.42187l2.40625.49219m10.64844-.6875l-3.94922 5.8125m3.94922-5.8125l2.4414.26562m11.10548-.09375l-4.41016 5.46875m3.76562-4.67578l1.20704.23437m12.33593-1.3164l-3.57812 6.04687m3.05469-5.16797l1.22656.0547"/><g clip-path="url(#V)"><path fill="none" stroke="#000" stroke-linecap="round" stroke-linejoin="round" stroke-miterlimit="10" stroke-width=".5" d="M146.50781 397.97656l-5.01562 4.92578"/></g><path fill="none" stroke="#000" stroke-linecap="round" stroke-linejoin="round" stroke-miterlimit="10" stroke-width=".5" d="M146.50781 397.97656l2.33985.73828m-3.07032-.02343l1.16797.37109m12.55469-1.375l-4.36719 5.5039m4.36719-5.5039l2.41406.4414m-3.05078.35938l1.20703.22266m12.11719-1.42188l-3.11719 6.29688m3.11719-6.29688l2.45313-.07031m12.22656 1.26953l-5.84375 3.90235m18.91797.3164l-5.36328-4.53906m19.14843 3.82422l-6.30078-3.10938m5.38281 2.65625l.03907 1.22656m14.21875-3.83203l-6.35157 3.00782m5.42578-2.57032l.98438.73438m13.36328-.92188l-6.5664 2.50782m5.60937-2.14063l.92578.80469m12.85156 2.22265l-5.57422-4.28125m4.76172 3.66016l-.20312 1.20703m14.35547-.6211l-5.625-4.20702m4.8086 3.59375l-.1875 1.21484m14.99609-3.125l-6.97657.83985m5.96094-.71875l.69922 1.0078m12.44922-3.35937l-4.61328 5.30078m3.9414-4.53125l1.19531.27735m10.5-1.91016l-.03125 7.02735m.02735-6.00782l1.08594-.57031m13.65625-.14063l-2.87891 6.41016m17.82422-4.91797l-6.13672 3.42188m5.24219-2.92188l1.03125.66406m13.51172-.3203l-6.8086 1.73827m5.82031-1.48828l.82422.91016m13.4375.73047l-6.72265-2.04688m5.7461 1.75l.23437 1.20313m13.97656-.67188l-6.5625-2.51172m5.60937 2.14454l.14844 1.21875m14.23438-3.01172l-6.78907 1.80468m6.78907-1.80468l1.67187 1.79687m11.25781-2.70312l-6.01953 3.61718m18.71875-4.3789l-4.78906 5.14062m17.77734-5.41015l-4.1328 5.68359m4.1328-5.6836l2.4297.34376m10.96483-.28516l-4.29296 5.5625m3.66796-4.7539l1.21094.20702m12.89844-.875l-4.63281 5.28516m3.95703-4.51562l1.19531.27734m12.60156-1.20703l-4.24218 5.60156m3.625-4.78515l1.21093.1953"/><g clip-path="url(#W)"><path fill="none" stroke="#000" stroke-linecap="round" stroke-linejoin="round" stroke-miterlimit="10" stroke-width=".5" d="M146.1875 384.375l-4.375 5.4961"/></g><path fill="none" stroke="#000" stroke-linecap="round" stroke-linejoin="round" stroke-miterlimit="10" stroke-width=".5" d="M146.1875 384.375l2.41406.44531m11.08203-.29297l-4.73828 5.19141m4.73828-5.1914l2.375.60937m-3.0625.14844l1.1875.30468m13.54688-.12109l-6.19922 3.3086m6.19922-3.3086l2.03516 1.36719m-2.9375-.88672l1.01953.6836m13.45312-.55079l-6.71094 2.08203m6.71094-2.08203l1.74219 1.72656m-2.71875-1.42578l.8711.86719m13.1289 1.59375l-6.1289-3.4414m5.23827 2.9414l-.02734 1.22656m14.35938-.97656l-6.37891-2.9414m6.3789 2.9414l.13672 2.45313m13.48828-3.60938l-7-.6289m7 .6289l.95313 2.26172m12.375-2.65235l-7.02734.15235m7.02734-.15235l1.19922 2.14063m-2.22266-2.11719l.60156 1.07031m13.6836-.41406l-6.92188-1.20703m6.92188 1.20703l.76172 2.33594m12.48828-2.03516l-6.78906-1.80859m5.80078 1.54688l.27734 1.1953m14.08984-2.45312l-6.91796 1.23047m5.91015-1.05078l.75781.96484m13.22657-2.14453l-6.24219 3.23047m5.33594-2.75781l1.00781.69531m12.17578-2.38281l-4.16406 5.66015m4.16406-5.66015l2.42969.35937m10.39844-.66015L315.5 390.2539m2.72656-5.35157l1.22656-.01953m14.45704 2.5586l-7-.63282m20.1914 1.28516l-6.7539-1.9414m18.5703 3.9414l-3.7539-5.9414m3.20703 5.07421l-.60547 1.0664m16.04688-3.79687l-6.91406 1.25391m5.91015-1.07031l.75782.96484m13.34375-1.88281l-6.47657 2.72265m6.47657-2.72265l1.90234 1.55078m10.95312-2.33984l-5.55859 4.30078m5.5586-4.30078L402 385.97656m10.59375-1.51562l-4.58594 5.32422m4.58594-5.32422l2.39453.54297m10.05469-1.09375l-2.85156 6.42578m2.85156-6.42578l2.44531-.17188m10.52344.04297l-2.16016 6.6836m2.16016-6.6836l2.41797-.42969m10.42578.3125l-1.21875 6.91797m1.21875-6.91797l2.33594-.75781m13.20312 2.13672l-5.66406 4.16015m4.83984-3.55468l1.10547.53125"/><g clip-path="url(#X)"><path fill="none" stroke="#000" stroke-linecap="round" stroke-linejoin="round" stroke-miterlimit="10" stroke-width=".5" d="M146.03516 370.94531l-4.07032 5.72656"/></g><path fill="none" stroke="#000" stroke-linecap="round" stroke-linejoin="round" stroke-miterlimit="10" stroke-width=".5" d="M146.03516 370.94531l2.43359.3125m11.1914-.0664l-4.6914 5.23437m4.6914-5.23437l2.38282.58593m11.78125.57032l-6.39063 2.92187m6.39063-2.92187l1.94922 1.48828m-2.8789-1.0625l.97655.74219m13.37891-.89844L180.64062 375m6.60938-2.38281l1.82031 1.64844m-2.78125-1.30079l.91016.82422m13.51172-.64062l-6.90235 1.32031m6.90235-1.32031l1.53906 1.91015m-2.54297-1.71875l.76953.95313m13.60547-.28516l-7.01562-.39844m7.01562.39844l1.02734 2.23047m-2.04687-2.28906l.51172 1.11328m13.72266-.39063l-6.8125-1.72656m6.8125 1.72656l.58203 2.38282m12.79687-2.6875l-6.9375-1.11719m6.9375 1.11719l.78906 2.32422m12.55078-2.52344l-6.98828-.72266m6.98828.72266l.92188 2.27344M253 374.0625l.46094 1.13672m13.82812-.75l-6.91015-1.28125m6.91015 1.28125l.73828 2.33984m12.5547-2.21875l-6.85938-1.52344m6.85937 1.52344l.65235 2.36328m12.73828-3.3203l-7.01563.39062m5.9961-.33594l.63671 1.05078m13.28516-2.57422l-6.1875 3.32813m6.1875-3.32813l2.04297 1.36328m11.39062-1.1211l-6.42578 2.84376m6.42578-2.84375l1.9297 1.51562m11.67577-.375l-7.0039.5625m5.98437-.48046l.66016 1.03125m13.38281.58984l-6.42578-2.84375m5.49219 2.42969l.08984 1.22265m11.78906-5.64062l-1.6836 6.82031m17.60938-2.76172l-6.90625-1.30078m5.90235 1.11328l.36328 1.17188m13.94531-2.33985l-6.88281 1.41406m5.88281-1.20703l.78125.94532m12.73828-2.75782l-5.29297 4.625m5.29297-4.625l2.29297.875m10.63672-1.25l-4.52344 5.375m4.52344-5.375l2.40234.51172m10.75782-.63672l-4.21485 5.6211m4.21485-5.6211l2.42578.37891m-3.03906.4414l1.21484.1875m11.79297-1.5039l-2.3711 6.61328m2.3711-6.61328l2.42969-.35156m-2.77344 1.3164l1.21484-.17578m11.53125-.98437l-.54687 7.00781m.54687-7.00781l2.25-.98047m11.5 1.04297l-1.41406 6.88281m1.41406-6.88281l2.35156-.69531"/><g clip-path="url(#Y)"><path fill="none" stroke="#000" stroke-linecap="round" stroke-linejoin="round" stroke-miterlimit="10" stroke-width=".5" d="M146.44531 357.96875l-4.89062 5.04688"/></g><path fill="none" stroke="#000" stroke-linecap="round" stroke-linejoin="round" stroke-miterlimit="10" stroke-width=".5" d="M145.73438 358.70313l1.17968.33984m12.86719-1.05469l-4.92969 5.00781m4.21094-4.27734l1.17578.34766m13.78516.51171l-6.78516 1.83204m6.78516-1.83204l1.67578 1.78907m11.55078-2.0625l-6.60938 2.3789m6.60938-2.3789l1.82031 1.64844m11.64063-1.12891l-6.89844 1.33594m6.89844-1.33594l1.54297 1.91015m11.80468-1.70703l-6.96484.9297m6.96484-.9297l1.42578 1.9961m11.72266-2.6914l-6.63281 2.32421m6.63281-2.32422l1.80078 1.66406m11.53906-1.59375l-6.67968 2.1797m6.67969-2.1797l1.76562 1.70313m11.60156-1.52344l-6.78906 1.82031m6.78906-1.8203l1.67578 1.79687m11.5586-2.05079l-6.6289 2.33204m5.66405-1.9961l.90625.83203m12.84375-2.14843l-5.5664 4.28906m4.75781-3.66406l1.11719.5078m10.70703-2.46874l-.96875 6.96094m15.60547-6.4961l-3.60938 6.03125m3.08203-5.15234l1.22657.0625m12.8828-.76172l-4.14452 5.67578m3.53906-4.85156l1.21484.17187m12.92188-.82421l-4.57813 5.33203m3.91407-4.5586l1.1953.26953m13.90626 2.46094l-6.82422-1.67969m16.85547 4.35157l-.2539-7.02344m.21484 6.0039l-1.0586.61329m12.73828.05078l3.09766-6.3086m14.53906 5.3086l-5.54687-4.3125m18.73828-.14844l-5.30078 4.60938m4.53125-3.9375l1.14453.4414m12.72266-1.34375l-4.86329 5.07422m4.86329-5.07422l2.35937.66797m10.8164-.79297l-4.58593 5.32422m4.58594-5.32422l2.39453.53906m-3.0625.23438l1.19531.26953m12.67578-1.13281l-4.36328 5.5039m4.36328-5.5039l2.41406.4414m-3.04687.35938l1.20703.21875M452.08594 357.5l-3.67969 5.98828m3.67969-5.98828l2.44922.15234m-2.98438.71875l1.22266.07422m12.57031-.98047l-3.5664 6.0547"/><g clip-path="url(#Z)"><path fill="none" stroke="#000" stroke-linecap="round" stroke-linejoin="round" stroke-miterlimit="10" stroke-width=".5" d="M465.34375 357.46484l2.45313.10938"/></g><g clip-path="url(#aa)"><path fill="none" stroke="#000" stroke-linecap="round" stroke-linejoin="round" stroke-miterlimit="10" stroke-width=".5" d="M147.26563 345.88672l-6.53125 2.58203"/></g><path fill="none" stroke="#000" stroke-linecap="round" stroke-linejoin="round" stroke-miterlimit="10" stroke-width=".5" d="M146.3164 346.26172l.9336.79687m12.60156-2.3125l-5.07031 4.86329m4.33203-4.15625l1.16406.3828m13.77344.53907l-6.83984 1.60547m6.83984-1.60547l1.61719 1.84766m11.54297-2.33985l-6.53125 2.58985m6.53125-2.58985l1.8711 1.59375m11.1328-2.20312l-5.90625 3.8086m5.04688-3.25392l1.07031.59766m13.22266-.94922L207.5 348.87891m5.2539-2.90625l1.03126.66796m12.85547-1.64843l-5.5 4.375m4.69921-3.74219l1.125.49219m12.19532-1.85938l-3.91016 5.83985m3.34375-4.98829l1.21875.125m12.42969-1.11718l-3.44531 6.125m2.9453-5.23438l1.22657.02735m11.96094-1.19532l-2.1875 6.67579m1.86719-5.70704l1.21093-.20703m11.08594-.92969l.48828 7.01172m-.41797-5.99218l1.04297-.64844m11.54297-.26172l1.80469 6.79297m-1.54297-5.80469l.89844-.83203m11.79687-.03906l2.52344 6.5586m-2.15625-5.60548l.80469-.92578m11.3828.3789l4.04688 5.7461m-3.46093-4.91015l.55468-1.09375m13.57422-.32813l1.2461 6.91797m-1.06641-5.91016l.96484-.75781m10.9336.22656l3.71484 5.96485m-3.17187-5.09766l.61328-1.0625m13.1289-.22266l1.77735 6.80079m9.47265-1.5l5.91016-3.80079m-5.05078 3.25l-1.07031-.60156m13.39062.92188l6.17969-3.33985m-5.28125 2.85547l-1.02344-.67969m13.82422-2.74609l5.41016 4.48047m12.125-5.41016l-3.02735 6.33985m2.58594-5.41797l1.22656-.05078m13.48047-.20313l-4.9336 5.0039m4.9336-5.0039l2.35156.70313m11.17578-.47657l-5.35546 4.55079m5.35546-4.55079l2.28125.90235m11.16407-.73828l-5.61719 4.22265m5.61719-4.22265l2.22265 1.03906m-3.03906-.42578l1.10938.51953m12.8828-1.3086l-5.33593 4.57422"/><g clip-path="url(#ab)"><path fill="none" stroke="#000" stroke-linecap="round" stroke-linejoin="round" stroke-miterlimit="10" stroke-width=".5" d="M466.23047 344.89063l2.28515.89453"/></g><path fill="none" stroke="#000" stroke-linecap="round" stroke-linejoin="round" stroke-miterlimit="10" stroke-width=".5" d="M465.45313 345.5586l1.14062.4453"/><g clip-path="url(#ac)"><path fill="none" stroke="#000" stroke-linecap="round" stroke-linejoin="round" stroke-miterlimit="10" stroke-width=".5" d="M147.33984 332.76953l-6.67968 2.1875"/></g><path fill="none" stroke="#000" stroke-linecap="round" stroke-linejoin="round" stroke-miterlimit="10" stroke-width=".5" d="M146.36719 333.08594l.88672.85156m12.42578-2.67578l-4.72656 5.20312m4.03906-4.4453l1.1875.30077m13.14062-.71875l-5.3789 4.52344m4.59375-3.86328l1.14062.45703m11.72656-2.05469l-2.91406 6.39453m2.48828-5.46093l1.22656-.07813m13.38672-.28906l-4.65625 5.26562m3.97657-4.5l1.1953.28907m12.26173-1.44141l-3.58594 6.03906m3.58594-6.03906l2.45312.11328m10.63281-.24219l-3.125 6.29688m3.125-6.29688l2.45313-.0664m9.53125-.29297l-.46484 7.01172m.39843-5.98828l1.1172-.50391m12.49218-.4961l-.91797 6.96876m.78125-5.95313l1.15234-.42969m10.89453-.48437l1.89063 6.76562m-1.61719-5.78125l.89063-.84765m11.83203-.03125l2.52734 6.55469m-2.16015-5.60157l.80468-.92578m11.3047.4375l4.20702 5.625m-3.59765-4.8086l.52343-1.10937m11.63282.80078l5.30468 4.60938m-4.53125-3.9414l.27344-1.19532m11.99219.88672l5.85547 3.88672m-5.85547-3.88672l.23828-2.4414M327.5 331.89452l5.82031 3.9375m-5.82031-3.9375l.26172-2.4414m13.10937 2.36328l5.71094 4.09375m-5.71094-4.09375l.32422-2.4336m12.35938 4.04688l6.97265.86719m-6.97265-.8672l-.875-2.29296m14.26172 3.54687l6.83203-1.64062m-6.83203 1.64062l-1.62891-1.83593m15.41797 2.9414l5.8789-3.85156m-5.02343 3.28906l-1.07422-.58984m13.72656 1.41797l5.4961-4.38281m-4.69532 3.74218l-1.125-.48437m12.9336-1.71875l6.90625 1.30469m-5.90235-1.11329l-.36328-1.17187m17.96094-1.36719l-3.66406 5.9961m3.1289-5.1211l1.22656.07422m13.91407.4375l-6.2461 3.22656m5.33594-2.75781l1.00781.69922m13.34766-.8789l-6.50781 2.64843m6.50781-2.64844l1.88281 1.57031M466.80078 332.5l-6.47656 2.72656"/><g clip-path="url(#ad)"><path fill="none" stroke="#000" stroke-linecap="round" stroke-linejoin="round" stroke-miterlimit="10" stroke-width=".5" d="M466.80078 332.5l1.90235 1.54688"/></g><path fill="none" stroke="#000" stroke-linecap="round" stroke-linejoin="round" stroke-miterlimit="10" stroke-width=".5" d="M465.85547 332.89453l.95312.77735"/><g clip-path="url(#ae)"><path fill="none" stroke="#000" stroke-linecap="round" stroke-linejoin="round" stroke-miterlimit="10" stroke-width=".5" d="M147.36328 319.53125l-6.72656 2.03516"/></g><path fill="none" stroke="#000" stroke-linecap="round" stroke-linejoin="round" stroke-miterlimit="10" stroke-width=".5" d="M147.36328 319.53125l1.73047 1.73828m11.29688-2.41797l-6.15235 3.39063m6.15234-3.39063l2.0547 1.34375m11.18359-1.48047l-5.9961 3.66407m5.9961-3.66407l2.11328 1.25m10.58203-2l-4.75781 5.16797m4.7578-5.16797l2.375.6211m9.65235-1.3789l-2.1836 6.67968m2.1836-6.67969l2.41797-.42187M212 317.33594l-2.85156 6.42187M212 317.33594l2.44922-.17188m9.53125-.1289l-.17969 7.02343m.17969-7.02343l2.19531-1.09375m10.35547 1.16015l1.35156 6.89453m-1.35156-6.89453l1.90234-1.54687m10.46094 1.8789l3.25 6.23047m-3.25-6.23047l1.38672-2.02343m11.66016 2.17968l3.78906 5.91797m-3.23828-5.0586l.60156-1.0664m11.03125 1.38281l6.05469 3.56641m-5.17578-3.04687l.05468-1.22657m12.51172.5l5.78907 3.98047m-4.94532-3.40234l.13672-1.21875m12.17578.89453l6.10938 3.46875m-5.22266-2.96094l.03516-1.22656m12.05469 1.54297l6.78515 1.82031m-5.79687-1.55469l-.27735-1.1953m12.66407.72655l6.66406 2.23047m-5.6914-1.90625l-.20313-1.21094m12.57812.80079l6.60156 2.40234m-5.64062-2.05469l-.17188-1.21484m12.48047 1l6.6914 2.13672m-5.71874-1.82813l-.21875-1.20703m12.4336 2.48828l6.94921-1.04687m-6.94922 1.04687l-1.46093-1.96875m2.47265 1.8164l-.73437-.98437m14.11718 3.1836l4.78907-5.14063m-4.09375 4.39453l-1.1836-.3164m13.98438 1.22265l4.42578-5.45703m8.3789 4.94531l5.44532-4.4375m-4.65235 3.79297l-1.1328-.47656m13.14843.28516l6.46094-2.76172m-5.52344 2.35937l-.95313-.76953m14.76563 2.8086l3.58984-6.03907m15 3.4961l-6.96093-.94922m5.94921.8086l.42579 1.15234m13.89453-2.00391l-6.94922 1.03125"/><g clip-path="url(#af)"><path fill="none" stroke="#000" stroke-linecap="round" stroke-linejoin="round" stroke-miterlimit="10" stroke-width=".5" d="M467.03516 320.03125l1.46093 1.97266"/></g><path fill="#00f" fill-rule="evenodd" d="M370.48438 401.07422h8.62109v-10.14844h-8.6211v10.14844"/><path fill="azure" fill-rule="evenodd" d="M372.3164 392.76172h.83594v2.82031h3.28516v-2.82031h.83203v6.47656h-.83203v-2.91406h-3.28516v2.91406h-.83593v-6.47656"/><path fill="#ff3030" fill-rule="evenodd" d="M446.63281 401.07422h7.6914v-10.14844h-7.6914v10.14844"/><path fill="azure" fill-rule="evenodd" d="M448.46484 392.76172h.83204V398.5h3.1953v.73828h-4.02734v-6.47656"/><path fill="#ff3030" fill-rule="evenodd" d="M189.20703 387.75781h7.6914v-10.14453h-7.6914v10.14453"/><path fill="azure" fill-rule="evenodd" d="M191.03906 379.44531h.83594v5.73828h3.1914v.7422h-4.02734v-6.48048"/><path fill="#ffffe0" fill-rule="evenodd" d="M315.11328 353.1914h22.17969v-10.1953h-22.17969v10.1953"/><path fill-rule="evenodd" d="M318.61328 344.83203h.50781v6.29297h-.78515v-4.48828h-1.39063v-.55469l.5625-.0664.25-.0547.23047-.08984.20313-.14062.17578-.21094.14062-.29297.10547-.39453m4.8125 0l.23047.01953.21875.05469.20703.08984.19922.1211.1836.14844.17187.17578.30078.41796.24219.4961.17969.54687.11328.57813.03515.58984-.03515.59375-.11329.58594-.17968.55078-.24219.5039-.30078.42579-.17188.17969-.18359.15625-.19922.12109-.20703.09375-.21875.05469-.23047.01953-.22656-.01953-.21875-.05469-.21094-.09375-.19531-.1211-.1836-.15624-.17187-.1797-.30078-.42577-.2461-.5039-.17968-.55079-.10938-.58594-.03906-.59375h.83203l.03125.5625.08203.50781.125.44141.16406.375.1875.30078.21094.22266.22266.13672.22656.04687.22656-.04687.22266-.13672.21094-.22266.1914-.30078.16407-.375.125-.4414.08203-.50782.02734-.5625-.02734-.5625-.08203-.5-.125-.4336-.16407-.36718-.1914-.29297-.21094-.21094-.22266-.1328-.22656-.04688-.22656.04687-.22266.13281-.21094.21094-.1875.29297-.16406.36719-.125.4336-.08203.5-.03125.5625h-.83203l.03906-.58985.10938-.57813.17969-.54687.24609-.4961.30078-.41796.17188-.17579.18359-.14843.19531-.1211.21094-.08984.21875-.05469.22656-.01953m5.09375 0h.50781v6.29297h-.78515v-4.48828h-1.39063v-.55469l.5586-.0664.2539-.0547.23047-.08984.20313-.14062.17187-.21094.14453-.29297.10547-.39453m2.82031 2.17578h.78907l.01953-.3164.0586-.28907.10155-.25.13672-.21484.1836-.17578.22265-.1289.26563-.08204.3086-.02734.23827.02344.22266.0625.20312.10156.1797.13672.14843.17578.11328.20312.07031.23828.02735.26563-.02344.26562-.0664.22657-.10938.1914-.15625.17188-.19922.16015-.2461.16797-.63671.38672-.53516.3164-.4375.31641-.34766.32422-.26171.33594-.19141.35156-.125.36719-.07031.39453-.01954.41797h4.21094v-.73828h-3.33203l.08203-.28516.11328-.23828.14844-.19922.1875-.17969.23047-.17187.28125-.17578.71484-.41797.41797-.20703.34375-.23047.28125-.25.21875-.26563.16406-.28125.11329-.28125.0625-.28515.01953-.28125-.04297-.38281-.11719-.34766-.1914-.3086-.25-.26171-.30079-.21485-.34765-.15625-.3789-.10156-.40626-.03125-.4375.03125-.39844.09766-.35156.16797-.30469.23437-.25.30469-.1875.375-.11328.44531-.04297.51953"/><path fill="#ffffe0" fill-rule="evenodd" d="M213.03125 374.48047h22.17969v-10.19531h-22.17969v10.1953"/><path fill-rule="evenodd" d="M216.53125 366.1211h.50781v6.29296h-.78515v-4.48828h-1.39063v-.55469l.5625-.0664.25-.05469.23047-.08984.20313-.14063.17578-.21094.14062-.29296.10547-.39454m4.8125 0l.23047.01954.21875.05468.20703.08985.19922.12109.1836.14844.17187.17578.30078.41797.24219.4961.17968.54687.11328.57812.03516.58985-.03516.59375-.11328.58203-.17968.55468-.2422.50391-.30077.42578-.17188.17969-.1836.15625-.19921.1211-.20703.09374-.21875.05469-.23047.01953-.22656-.01953-.22266-.05469-.20703-.09375-.19531-.1211-.1836-.15624-.17187-.17969-.30078-.42578-.2461-.5039-.17968-.5547-.10938-.58202-.03906-.59375h.83203l.03125.5625.08203.5078.125.44141.16406.375.1875.30079.21094.22265.22266.13672.22656.04688.22656-.04688.22266-.13672.21094-.22265.1914-.30079.16406-.375.125-.4414.08204-.50781.02734-.5625-.02734-.5625-.08203-.5-.125-.4336-.16407-.36719-.1914-.29296-.21094-.21094-.22266-.13281-.22656-.04688-.22656.04688-.22266.1328-.21094.21094-.1875.29297-.16406.3672-.125.43358-.08203.5-.03125.5625h-.83203l.03906-.58984.10938-.57812.17968-.54688.2461-.4961.30078-.41796.17187-.17578.1836-.14844.19531-.1211.20703-.08984.22266-.05469.22656-.01953m5.09375 0h.50781v6.29297h-.78515v-4.48828h-1.39063v-.55469l.5586-.0664.2539-.05469.23047-.08984.20313-.14063.17187-.21094.14453-.29296.10547-.39454m2.82031 2.17579h.78906l.01954-.31641.05859-.28906.09766-.25.14062-.21485.1836-.17578.22265-.1289.26563-.08204.30859-.02734.23828.02344.22266.0625.20312.10156.17969.13672.14844.17578.11328.20313.07031.23828.02734.26171-.02343.26954-.0664.22656-.10938.1914-.15625.17188-.19922.16016-.2461.16796-.63672.38672-.53515.3125-.4375.32032-.34766.32421-.26172.33594-.1914.34766-.125.3711-.07031.39452-.01954.41797h4.21094v-.73828H230l.08203-.28515.11328-.23829.14844-.19921.1875-.1836.23047-.16797.28125-.17578.71484-.41797.41797-.20703.34375-.23047.28125-.25.21875-.26562.16406-.28125.11328-.28125.0625-.28516.01954-.28125-.04297-.38281-.11719-.34766-.1914-.3086-.25-.26562-.30079-.21093-.34765-.15625-.37891-.10157-.40625-.03125-.4375.03125-.39844.09766-.35156.16797-.30469.23437-.25.3047-.1875.375-.11328.4453-.04297.51954"/><path fill="#ffffe0" fill-rule="evenodd" d="M203.33594 392.42578h22.17969v-10.1914h-22.1797v10.1914"/><path fill-rule="evenodd" d="M206.83594 384.07031h.50781v6.29297h-.78516V385.875h-1.39062v-.5586l.5625-.0625.25-.05468.23047-.08985.20312-.14062.17578-.21094.14063-.29297.10547-.39453m4.8125 0l.23047.01563.21875.0586.20703.08983.19922.1172.18359.15234.17188.17578.30078.41797.24218.49218.1797.54688.11327.58203.03906.58984-.03906.59375-.11328.58204-.17969.55468-.24218.5039-.30078.42579-.17188.17969-.1836.15234-.19921.125-.20703.09375-.21875.05469-.23047.01953-.22656-.01953-.21875-.05469-.21094-.09375-.19531-.125-.1836-.15234-.17187-.17969-.30078-.42578-.2461-.5039-.17969-.5547-.10937-.58203-.03906-.59375h.83203l.03125.5625.08203.50782.125.4414.16406.375.1875.30078.21094.21875.22266.14063.22656.04687.22656-.04687.22266-.14063.21093-.21875.19141-.30078.16406-.375.125-.4414.08203-.50782.02735-.5625-.02735-.5625-.08203-.5-.125-.43359-.16406-.36719-.1914-.29297-.21094-.21484-.22266-.1289-.22656-.04688-.22656.04687-.22266.12891-.21094.21484-.1875.29297-.16406.36719-.125.4336-.08203.5-.03125.5625h-.83203l.03906-.58985.10937-.58203.1797-.54688.24608-.49218.30079-.41797.17187-.17578.1836-.15235.1953-.11719.21095-.08984.21875-.0586.22656-.01562m5.09375 0h.50781v6.29297h-.78516V385.875h-1.39062v-.5586l.5586-.0625.2539-.05468.23047-.08985.20312-.14062.17188-.21094.14453-.29297.10547-.39453m2.82422 2.17188h.78515l.01953-.3164.0586-.28517.10156-.25.13672-.21875.1836-.17187.22265-.1289.26562-.08204.3086-.02734.23828.02344.22266.0625.20312.10156.17969.13672.14844.17578.11328.20312.0703.23829.02735.26171-.02344.26954-.0664.22656-.10938.1914-.15625.17188-.19922.16015-.24609.16797-.63672.38672-.53515.3125-.4375.3164-.34766.32813-.26172.33204-.1914.35156-.125.3711-.07032.39452-.01953.41797h4.21094v-.74219h-3.33203l.08203-.28125.11328-.23828.14844-.20312.1875-.17969.23047-.17188.28125-.17578.71484-.41406.41797-.20703.34375-.23047.28125-.25.21875-.26953.16406-.27734.11328-.28125.0625-.28516.01953-.28125-.04297-.38281-.11718-.35156-.1914-.3047-.25-.26562-.30079-.21094-.34766-.16015-.3789-.09766-.40625-.03125-.4375.03125-.39844.09766-.35156.16797-.30469.23437-.25.30469-.1875.3711-.11328.44921-.03906.51563"/><path fill="#ffffe0" fill-rule="evenodd" d="M292.92188 448.53125h22.17968v-10.1914h-22.17969v10.1914"/><path fill-rule="evenodd" d="M296.42188 440.17188h.5078v6.29296h-.78515v-4.48828h-1.39062v-.55469l.5625-.0664.25-.05078.23046-.08985.20313-.14453.17578-.20703.14063-.29687.10546-.39454m4.8125 0l.23047.01954.21875.05468.20704.08985.1953.1211.1875.14843.16798.17578.30468.42188.2422.49218.17968.54688.11328.57812.03516.58985-.03516.59375-.11328.58593-.17969.5547-.24219.5-.30468.42968-.16797.17969-.1875.15234-.19531.125-.20704.08984-.21875.0586-.23046.01953-.23047-.01953-.21875-.0586-.20704-.08984-.1953-.125-.1836-.15234-.17188-.1797-.30078-.42968-.2461-.5-.17968-.55469-.10937-.58593-.03907-.59375h.83204l.03125.5664.08203.5039.125.44142.16015.375.1914.30078.21095.22265.22265.13672.22656.04688.22657-.04688.22265-.13672.21094-.22265.1914-.30079.16407-.375.125-.4414.08203-.5039.02735-.56641-.02735-.5586-.08203-.5-.125-.4375-.16406-.36328-.1914-.29297-.21095-.21484-.22265-.13281-.22656-.04297-.22657.04297-.22265.1328-.21094.21485-.1914.29297-.16016.36328-.125.4375-.08204.5-.03125.5586h-.83203l.03907-.58985.10937-.57812.17969-.54688.2461-.49219.30077-.42187.17188-.17578.1836-.14844.1953-.1211.20704-.08984.21875-.05468.23046-.01954m5.09375 0h.50782v6.29297h-.78516v-4.48828h-1.39062v-.55469l.55859-.0664.2539-.05078.23048-.08985.20312-.14453.17188-.20703.14453-.29687.10546-.39454m2.82032 2.17579h.78906l.01953-.31641.0586-.28516.09765-.2539.14063-.21485.18359-.17578.22266-.1289.26562-.07813.3086-.02734.23437.01953.22656.0625.20313.10156.17969.14063.14843.17187.11328.20703.07032.23438.02734.26562-.02344.26953-.0664.22266-.10938.1914-.15625.17188-.19922.16406-.2461.16407-.63671.39062-.53516.3125-.4375.3164-.34765.32423-.26172.33593-.1914.35157-.125.37109-.07032.39063-.01953.41796h4.21094v-.73828h-3.33204l.08204-.28515.11328-.23438.14844-.20312.1875-.1797.23046-.17187.28125-.17578.71485-.41797.41797-.20312.34375-.23047.28125-.2539.21875-.26563.16406-.27735.11328-.28515.0625-.28516.01953-.28125-.04297-.38281-.11719-.34766-.1914-.30859-.25-.26172-.30078-.21484-.34766-.15625-.3789-.09766-.40625-.03515-.4375.03125-.39844.10156-.35156.16406-.3086.23438-.2461.30468-.1875.375-.11327.44531-.04297.51954"/></g></defs><use xlink:href="#ag"/></svg>