<svg xmlns="http://www.w3.org/2000/svg" role="img" xmlns:xlink="http://www.w3.org/1999/xlink" viewBox="142.45 309.95 326.84 171.84"><defs><clipPath id="a"><path d="M144 311.67188h1v168.65625h-1zm0 0"/></clipPath><clipPath id="b"><path d="M144 311.67188h324v168.65625H144zm0 0"/></clipPath><clipPath id="c"><path d="M467 311.67188h1v168.65625h-1zm0 0"/></clipPath><clipPath id="d"><path d="M144 479h4v1.32813h-4zm0 0"/></clipPath><clipPath id="e"><path d="M146 479h2v1.32813h-2zm0 0"/></clipPath><clipPath id="f"><path d="M153 479h9v1.32813h-9zm0 0"/></clipPath><clipPath id="g"><path d="M159 480h2v.32813h-2zm0 0"/></clipPath><clipPath id="h"><path d="M166 480h9v.32813h-9zm0 0"/></clipPath><clipPath id="i"><path d="M172 480h2v.32813h-2zm0 0"/></clipPath><clipPath id="j"><path d="M180 478h8v2.32813h-8zm0 0"/></clipPath><clipPath id="k"><path d="M186 479h2v1.32813h-2zm0 0"/></clipPath><clipPath id="l"><path d="M193 478h8v2.32813h-8zm0 0"/></clipPath><clipPath id="m"><path d="M199 478h2v2.32813h-2zm0 0"/></clipPath><clipPath id="n"><path d="M207 478h8v2.32813h-8zm0 0"/></clipPath><clipPath id="o"><path d="M212 479h3v1.32813h-3zm0 0"/></clipPath><clipPath id="p"><path d="M220 479h8v1.32813h-8zm0 0"/></clipPath><clipPath id="q"><path d="M226 480h1v.32813h-1zm0 0"/></clipPath><clipPath id="r"><path d="M234 477h7v3.32813h-7zm0 0"/></clipPath><clipPath id="s"><path d="M246 478h9v2.32813h-9zm0 0"/></clipPath><clipPath id="t"><path d="M260 478h8v2.32813h-8zm0 0"/></clipPath><clipPath id="u"><path d="M273 478h8v2.32813h-8zm0 0"/></clipPath><clipPath id="v"><path d="M279 480h1v.32813h-1zm0 0"/></clipPath><clipPath id="w"><path d="M287 478h7v2.32813h-7zm0 0"/></clipPath><clipPath id="x"><path d="M300 478h8v2.32813h-8zm0 0"/></clipPath><clipPath id="y"><path d="M305 480h2v.32813h-2zm0 0"/></clipPath><clipPath id="z"><path d="M313 479h8v1.32813h-8zm0 0"/></clipPath><clipPath id="A"><path d="M319 479h2v1.32813h-2zm0 0"/></clipPath><clipPath id="B"><path d="M326 479h9v1.32813h-9zm0 0"/></clipPath><clipPath id="C"><path d="M332 480h2v.32813h-2zm0 0"/></clipPath><clipPath id="D"><path d="M341 477h6v3.32813h-6zm0 0"/></clipPath><clipPath id="E"><path d="M354 477h6v3.32813h-6zm0 0"/></clipPath><clipPath id="F"><path d="M369 476h3v4.32813h-3zm0 0"/></clipPath><clipPath id="G"><path d="M381 476h5v4.32813h-5zm0 0"/></clipPath><clipPath id="H"><path d="M394 477h6v3.32813h-6zm0 0"/></clipPath><clipPath id="I"><path d="M408 476h5v4.32813h-5zm0 0"/></clipPath><clipPath id="J"><path d="M422 476h3v4.32813h-3zm0 0"/></clipPath><clipPath id="K"><path d="M433 478h8v2.32813h-8zm0 0"/></clipPath><clipPath id="L"><path d="M446 479h8v1.32813h-8zm0 0"/></clipPath><clipPath id="M"><path d="M452 480h2v.32813h-2zm0 0"/></clipPath><clipPath id="N"><path d="M460 477h7v3.32813h-7zm0 0"/></clipPath><clipPath id="O"><path d="M144 466h4v2h-4zm0 0"/></clipPath><clipPath id="P"><path d="M144 452h4v3h-4zm0 0"/></clipPath><clipPath id="Q"><path d="M144 438h4v5h-4zm0 0"/></clipPath><clipPath id="R"><path d="M144 424h4v6h-4zm0 0"/></clipPath><clipPath id="S"><path d="M144 411h4v5h-4zm0 0"/></clipPath><clipPath id="T"><path d="M144 398h4v5h-4zm0 0"/></clipPath><clipPath id="U"><path d="M465 397h3v2h-3zm0 0"/></clipPath><clipPath id="V"><path d="M144 384h3v6h-3zm0 0"/></clipPath><clipPath id="W"><path d="M465 383h3v2h-3zm0 0"/></clipPath><clipPath id="X"><path d="M144 370h2v8h-2zm0 0"/></clipPath><clipPath id="Y"><path d="M465 370h3v2h-3zm0 0"/></clipPath><clipPath id="Z"><path d="M144 356h2v9h-2zm0 0"/></clipPath><clipPath id="aa"><path d="M465 357h3v2h-3zm0 0"/></clipPath><clipPath id="ab"><path d="M144 345h4v5h-4zm0 0"/></clipPath><clipPath id="ac"><path d="M466 344h2v3h-2zm0 0"/></clipPath><clipPath id="ad"><path d="M144 332h4v4h-4zm0 0"/></clipPath><clipPath id="ae"><path d="M466 331h2v3h-2zm0 0"/></clipPath><clipPath id="af"><path d="M144 319h4v3h-4zm0 0"/></clipPath><clipPath id="ag"><path d="M466 318h2v2h-2zm0 0"/></clipPath><g id="ah" clip-path="url(#clip1)"><path fill="#fff" fill-opacity="0" fill-rule="evenodd" d="M0 0h1000v1000H0zm0 0"/><path fill="#d3d3d3" fill-opacity="0" fill-rule="evenodd" d="M162.15234 355.86719l-.23437.29297.0586.23437.11718.17188.17578.23437.29297.34766.11328.0586.11719-.17188.0586-.23438.17577-.17578.46485-.17578h.69922l.23437.29297.28906.8164.0586.17579.17578.23046.35156.23438.69922.69922.17188.17578.23437.34765.23438.41016.28906.58203.41015.46485.23047.23437.23438.17578.11719.23047.17578.29297.17187 1.16406v.23438l.0586.28906.05859.11719.11719.11719.34765.41015.11719.17188.17578.17578.17578.23437.11719.17188.17188.35156.05859.23438.23437.40625.23438-.0586-.17578.17578-.0586.92969h-.58203l-.23437-.11328-.34766.11328-.11719.11719-.05859.29297-.0586.17578-.11718.17187-.46484.29297-.0586.23438-.0586.11328v.64453l.0586.17187v.41016l.0586.0586v.40624l.05859.40625.11719.17579.05859.05859.23047.64062-.0586.29297v.69922l-.05859.58203v.23438l-.0586.23047-.05468.35156v1.92187l.05469.1172h.42578l-.36719.11718-.02344.35156.89063 1.16797 1.74219.53906 1.33984.35938v.53906l.08984.8086.53516.71484 1.51953.26953.89063-.08594.08984 1.16406.53516.1797 1.16015-.1797 2.05469-.98437 1.16016-.36328 1.8789-.17578 1.69531-.1797-.17968.71876-1.51563.08594-1.25.08984-.80469.26953-1.07421.8086.26953.71875.53515.89843-.17968.625-.26563.8086.26563 1.07812.625.89844.80468.17969 1.25-.1797-.26562.72267.09766.5039.05468.29297v.17188l.0586.29296v.40625l.17578.1172.35156.11718h.40625l.29297-.17578.11328-.11719.0586-.11719.11718-.23047.0586-.17578.35156-.46484.23047-.17578.17578-.0586.17578.0586.0586.17578.11718.98828.05469.46875.0586.17188.11718.23437.17578.0586.8164.05859h.28907l.11719.23437.05859.40625.0586.35156v1.10547l.11718.29297.11719.34766.28906.69922.17578.35156.58203.7539.35157.17579.17187.0586.46875.23437.64063.46484.34765.23438.29297.17578.29297.05468.23047.0625.8164.34766.29297.17578.11328.17188.35157.35156.11719.17578.52343.64063v.28906l.0586.35156v.34766l.05859.35156.0586.28906.11718.0586.17188.05859h.17578l.58203.23437.17578.1172.17578.28905.17578.23438.11328.23437.29297.23047.11719.11719v.41016l.0586.05468.28906.23438.23437.11719.0586.11718.11718.17188.0586.11719.23047.23437.05859.17578.23437.0586.1172.05859-.1172.11328-.05859.11719v.11719l-.11719.29296-.11719.28907v.58203l.17579.11719.11718.05859.0586.11719.11719.11719.11328.05859.17578.34765.0586.35157.05858.40625v.17578l-.05859.17578-.11719.69922v.17187l.1172.17579.29296.29296h.40625l.17578.1172.11719.17187.11719.29296v.23438h-.52735l-.23047-.23438h-.23437l-.17578.0586-.0586.69922.0586.34765.11719.17579.17578.41015.11718.23047.28907.46875.17578.05469h.52344l.23437.0586.75781.64062.0586.29296v.23438l.05859.0586.23047.34765v.35156l-.11719.17188v.29297l.29297.28906.29297.17578.17187.0586.29297.17577.29297.1172.58203.40624.28906.23438.29297.17578.21875.16015.01563.01172.23047.17579.64062.52343.17578.23438.1172.17578.17577.17578.11328.17188v.64062l.1172.17578.46874.11719.58203.11719.23438.05859.23047.11328.29297.11719.11328.0586.58593.35156.28907.17187.17578.0625.17578.05469.17578.0586.69922.35155.28906.17579.23438.05468.28906.17578.23437.1172.64063.40624.29297.11719.17187.0586.23438.05859.41015.05859.23047.0586.23438.11718.0586.17188-.41017.17578.46875.0586.0586.29296.11328.23438.17578.05468.23438.0586.17578.05859.40625.11719.64062.23437.11719.17188.0586.23437v.17578l-.0586.1172-.0586.40624.23438.23438.11719.05859.34766.11719.64062.23047.17578.11718.28906.1172.17578.17577.23438.46485.58203 1.10546.17578.17579.34766.17578.17578.11719.35156.11718 1.04688.52344.23437.0586.46485.11327.29297.0586.46484.17578.75781.58203.23438.23438.34765.46484.17578.17578.28907.23438.8164.69921.29297.17579.28906.28906.29297.17578.29297.28906.69531.64063.17578.17578.29297.23437.28907.23438.46875.28906.64062.58203.34766.23438.23437.29297.34766.34765.35156.46485.9336.99218.34765.40625.11719.17579.23437.05859.11328.11719.64454.17578.23047.11328.23437.0586.29297.17577.23047.1172.9336.69921.40624.40625.23438.17578.40625.17578.23437.11719.8164.34766.34766.23437.23438.11719.29297.28906.23047.11719.7578.35156.35157.17188.23047.05859.29297.11719.23437.0586.8711.17577h.8164l.46875.23047.17188.0586.875.69921.46484.1172.29297.05858.17578.0586.23047.0586.46875.05859.34766.05859.35156.0586.40625.05859h.29297l.17187.0586v.23046l.17578.17578h.29297l.34766.0586.35156.05859.69922.11719h.64063l.46484-.23438.29297-.17578.17187-.11719.41016-.17187.28906-.17578.9336-.46485.46875-.29297.52343-.29296.46485-.17188.46484-.17578 1.05078-.46485.28906-.11718.41016-.11719.28906-.11719.52735-.17578 1.51562-.69922.58203-.34765.28907-.0586.29297-.0586.34765-.11718.875-.23047.35156-.11719h.11329l.23437-.05859.875-.23437.23438-.0586h.8125l.35156-.0586.8164-.11718.17188-.0586.35156-.05468.29297-.0586.23047-.05859.8164-.17578.17579-.0586h.34765l.23438-.05859.46484-.11718.75781-.17188.23438-.0586h.34765l.41016-.11718.28906-.0586 1.28516-.05859h.28906l.41016-.0586.23047-.05858h.17578l.875-.1172h.40625l.41015-.11718h.34766l.35156-.11328.8711-.0586h1.75l1.04687.28907.41016.11719.28906.11718.35156.11719.28907.11719 1.05078.17187.28906.0586h.29297l.29297.05859.17187.0586.41016.05859.17187.0586.1172.05858h.11718l.11719.0586.35156.0586h.11328l.41016.0664 1.92187.39453 1.92578.39453 1.51953.44922 1.69532.71875 2.14453.80469 1.60547-.71875 1.42968-.80469 1.16016-1.07813 1.25-.44921 3.03516-.71875 1.875-.35938 2.14453-1.34765 2.23437-1.25391 2.5-1.25781 1.69531-.44922 1.78516-.17969 1.16016-.26953.625.53906 1.33984-.26953.71485-.98828.98437-1.34375.44531-.17969.80469-.35937 1.875-.53907 1.78516-.44921 1.25-.26954 1.16015-.08984 1.69922-.08984 1.96094-.26954 1.25-.08984h.53906l.625-.08984h.89063l2.14453-.17969 2.41015-.17969 2.58985-.08984 1.69531.17969 1.60938.08984 1.42968.35938 1.16016.71875 1.875.98828 1.16015 1.52734.26563.71484.6289.08985.35548.89844.53515.53906.53516 1.52734 1.07422.35938h.53515l-.80469.53515.08985 1.70703.71484 2.69532.89063.80468.89453.98829.71484 1.2578 1.78516.53907 1.51953-.17969.35547 1.34375 1.60937-.80469.98047-.53906.26953.26953.31641-.21484.21875-.14453.80078.44922.44922-.35938h.35547l.53515-.26953.53907-.71875.53515-.26953.625-.98828 1.16016.44922.83984.3711 1.39454.61718 1.6953-.17969h1.60548l1.78515.08985.17969-1.70704.53516-1.34375.80468.26954.4922.84765.40233.40625-.08984.53906v.35938l.71485.44922.71093-.26953h1.42969l.35938.98828.4453 1.25781.71485 1.34375 1.25.6289 1.69531.62891.71485-.17969.17969-.53906.98046-.08984.44922.35937.08594 1.25782-.26563.6289-.53515.17969v.53906l.71484.98438.26563.53906.98437.98828.80078 1.07813-.26562.35937-.08985.89844-.625 2.33203-.35546 2.0664-.08985 1.79298-.17969.71875-.08984.53906v1.4375l-.98047 1.88281-.35937 1.70703-.53516.89844-.80469 1.16797-.26562.53906 2.05469 1.2539.08593.35938-.35546.53906-.08985-.17968v.80859l.08985 1.4375-.44532.71484-1.07422.09375-.26562.71485.53515.89844.8047.71875 1.16015.80859 1.33984.26953.44531.35938-.35546.44921-1.78907-.08984-1.25-.44922-.71484-.71875-.625-.08984-.17578 3.58984-.1875 1.3086h89.35937V311.70313h-55.26953v49.08203l.76172.125 3.28906.54296 2.02344 2.83594v2.7539l2.35156.33204 2.34766.33203h4.05078l-1.3789 4.16016-2.02344.70703-2.02344.70312-.54297.34375-2.59375 1.6172-.1875.11718-2.02344-2.07813-.73046-2.74218-2.67188-2.07813-1.375-3.5-.0664-.08203-1.95704-2.67188 2.75-1.41796v-49.08204H294.42187v91.41407l.1172.03125.1328.01172.07422.07421.10547.04688.08985.0586.08593.05859.08985.0586.29687.29687.0586.08984.03125.11719.02734.11719.01563.13671-.03125.1172-.0586.08983-.0586.08594-.04296.10547-.04688.10156-.02734.1211v.14453l.17578.26953.14844.14844.07422.08594.07422.07421.04296.10547.0625.08985.0586.08593.04297.10547.0586.08985.04687.10156.04296.10547.0586.08594.11719.17968.07421.07422.0625.08594.0586.08984.04297.10547.0586.08985.05858.08593.0625.08985.0586.08984.04297.10156.11719.17969.07421.07422.0586.08594.07422.07421.08984.0586.10547.04687h.14844l.1328-.01562.13282.01562.10156-.04687.07422-.07422.04688-.10156-.01563-.13281v-.14844l-.04687-.10547-.02735-.11719-.04687-.10156-.02735-.1211-.04296-.10156-.0625-.08984-.04297-.10156-.04297-.10547-.03125-.11719-.01563-.13281-.01171-.13672.08593-.0586.0586-.08593.12109-.03125.04297.10547.01562.1328v.1172l.0586.10156.0586.08984.08983.0586.14844.14843.0586.08985.04296.10547-.01171.10156.08593.0586.10547.04687.08594.0586.08984.05858.07422.07422-.11719.02735-.10546.04687-.08594.0586-.07422.07421-.0586.08985-.0625.08594-.02734.12109-.04687.10156-.04297.10547-.03125.11719-.01172.13281-.01563.13281v.14844l.02735.11719.04687.10547.04297.10156.0586.08984.07421.07422.08985.0586.07422.07421.08984.0586.0586.08984.04296.10547.04688.10156.11719.03125.1328.01563h.14845l.11718-.03125.10547.04297.04297.10547.04688.10156.02734.1211L299.5 410l.02734.11719.03125.1211.02735.11718.10547.04297.10156.04687.13281-.01562.14844.14844.0625.08593.07422.07422.07031.07422.08984.0625.10547.04297.10156.04297.1172.03125.13671.01562.11719-.03125.07422-.07422.02734-.11718-.01172-.13282-.03125-.12109-.02734-.11719.04297-.10547h.11719l.08984.0625.11719.02735h.14843l.13282.01562h.14843l.13282.01563.1328-.01563h.14845l.1328-.01562.13282-.01172.13672.01172.11719-.02735.13281-.01562.1914-.0586-.05859.17579-.01562.1328-.02735.1211-.01562.13281-.0586.08594-.1328.01563-.10548.04687-.10546.04297-.1172.03125-.11718.02735-.26563.03125h-.14843l-.13281.01562-.07422.07422.05859.08594.14844.14843.11719.1797.07421.0703.08985.0625.08984.0586.08594.0586.08984.05858.10156.04297.10547.0625.10547.04297.08594.0586.10547.04687.10156.04297.17969.11719.0586.08984-.04298.10156-.04687.10547.01562.13281.22266.22266.0586.08985.04296.10156.03125.1211.04297.10155.01563.13282.03125.11718.01171.13672.03125.11719.14844.14844.10156.04297.10547.04296.1172.03125.1328.01563.13672.01563h.11719l.11719-.03125.08984-.0586.04297-.10547.04688-.10156.04296-.10547.03125-.11719.01172-.1328v-.14845l-.01172-.1328-.01562-.13282-.03125-.11719-.04297-.10547-.04688-.10547-.04296-.10156-.04297-.10547-.01563-.13281.01563-.13281.02734-.11719.03125-.11719.02735-.1211.04687-.10155.08984-.0586.08594-.0625.07422-.07422.08984-.05859.22266-.22266.0586-.08593.07421-.07422.11719-.17969.0586-.08594v-.14844l-.07423-.07421-.10156-.04688-.10547-.04297-.10156-.04297-.0586-.08984-.04687-.10547-.02734-.11719.08984-.05859.11719-.03125.10156-.04297.17969-.11719.14844-.14843.01172-.13282-.01172-.10546-.08985-.0586-.1328.01563h-.14845l-.1328.01562-.13282-.01562-.1211-.03125-.08593-.0586-.07422-.07422-.0586-.08984-.0625-.08594-.11718-.17969-.0586-.08593.03125-.1211.08594-.05859.1211-.03125.05859-.08594v-.1211l-.03125-.11718-.0586-.08984-.05859-.08594-.04687-.10547-.02735-.11719-.01562-.1328.0586-.08985.07421-.07422.08984-.0586.1172-.17968.07421-.07422.0586-.08594.14843-.14844.1211-.03125.1328-.01562.13282.01562.07422.07422.04297.10547.01562.13281-.03125.1172-.11719.03124-.1328.01172-.14844.14844-.04297.10547-.04688.10156-.02734.1211-.03125.11718v.14844l.03125.11719.04297.10546.05859.08985.07422.07031.07422.07422.11719.03125.12109.02734.11719-.02734.1328-.01563h.1172l.08984.0586.07422.07422.04687.10546.0586.08594.10156.04688.13281.01562.10547.04297.08594.0586-.01172.10546-.07422.07422-.17969.11719-.05859.08984-.08984.0586-.07032.07422-.07421.07421-.0625.08985-.02735.11719-.01562.1328.01562.13282-.01562.13281v.14844l.01562.13281.02735.1172.03125.12108.07421.07422.08985.0586.08594.0586.08984.05858.11719.03125v.08594l-.10157.04688-.08984.0586-.26563.03124-.11718.02735h-.14844l-.10547.04296-.10156.04688-.0586.08984-.0625.23438-.01171.13281-.03125.1211-.01563.1328v.29298l-.01172.1328.01172.13673.01563.1328.1328.01563.13282.01172.1211.03125.08593.0586.07422.07421.04688.10547.04296.10157.01563.1328v.44532l-.01563.13281v.44532l.03125.26562.02735.11719.01562.13281.03125.11719.08594.21094.03125.26562v.14844l-.03125.11719-.02734.11718-.03125.1211-.02735.11719-.03125.11718-.03125.1211-.01171.1328-.01563.13282.08984.0586.1172-.03125.10155.01562.04688.10547-.03125.26562v.44141l-.04297.10547-.04688.10547-.04296.10156-.04297.10547-.0586.08594-.03125.12109-.04296.11719-.03125.11719-.01563.1328.01563.13282.05859.08984.10547.04688.08594.0586.05859.08593-.01172.13672-.03125.11719-.04297.10156v.44531l-.01562.13281v.14844l-.03125.11719-.04297.10547-.02735.11719-.04687.10546-.04297.10157-.03125.12109-.02734.11719-.03125.13281-.03125.11719-.02735.11719-.04297.10546-.03125.1172-.03125.12108-.01171.13282-.01563.13281v.29688l.02734.11718v.14844l.04688.39844.02734.11719.0586.08984.12109.03125h.14844l.13281-.01563.0586.08985v.11719l-.0586.08984-.08984.0586-.10157.04296-.10546.04688-.08985.05859-.08594.0586-.13671.01562-.1172-.03125-.1328-.01563-.10157.04688-.0625.08594-.01172.13671-.01562.13282-.03125.11719-.02735.11718-.01562.13281-.03125.1211v.29687l.01563.13282.03125.11718v.14844l.01171.13281v.14844l-.02734.11719-.04688.10156-.02734.1211-.03125.11718-.0586.08985-.07421.07421-.10156.04297-.10547.04688-.11719.02734-.1211.03125-.10156-.04687.0586-.08594.10547-.04688.02734-.11718.03125-.11719.02734-.1211.03125-.11718v-.14844l.01563-.13281-.03125-.11719-.04297-.10547-.10547.01563-.07422.07422-.10156.04296-.08984.0625-.07422.07422-.04297.10157-.01563.1328-.03125.1172L304.25 426l-.03125.11719-.02734.11719-.03125.12109-.02735.11719-.03125.11718-.04297.10547-.08984.0586h-.08984l-.1172-.03125-.03124-.08594.01562-.13672-.03125-.11719v-.14844l-.01171-.1328v-.14844l-.0625-.23438-.02735-.1211-.04297-.10156-.04687-.10546-.0586-.08594-.05859-.08985-.04297-.10546-.0625-.08594-.14844-.14844-.0703-.07422-.10548-.04687-.10547-.04297-.10156-.04297-.29687-.29688-.08985-.07421-.08594-.0586-.10546-.04297-.08985-.0625-.08594-.0586-.10546-.04296-.08985-.0586-.08594-.0625-.07421-.0703-.10547-.04688-.08594-.0586-.10547-.04296-.08984-.0625-.10156-.04297-.10547-.04297-.08594-.0586-.10547-.04687-.10547-.04297-.10156-.04687-.08985-.0586-.10156-.04297-.10547-.04296-.08984-.0625-.11719-.02735-.13281-.01562-.13281.01562H299.75l-.13281.01563-.11719-.03125-.08984-.0586-.07422-.07422-.08985-.05859-.10156-.04688h-.14844l-.12109-.02734-.10156-.04297-.07422-.07422-.11719-.17968-.08984-.0586-.10156-.04297-.08985-.0625-.10547-.04296-.08984-.0586-.08594-.0586-.10547-.04687-.0586-.08594-.05858-.08984-.04297-.10547-.04688-.10156-.07422-.07422-.08594-.0586-.07421-.07421-.08985-.0586-.22265-.22265-.04297-.10547-.03125-.26563.10547-.04296h.14453l.10547.04296.07421.07422.08985.0586.08594.0586.10546.04687.08985.05859.14844.14844.0703.07422.14845.14843.0625.08594.07421.07422.08594.0586.07422.07421.08985.0625.08984.0586.08594.05859.26953.17578.10156.04688.10547.04296.10156.04297.04688-.07421.05859-.08594.07422-.07422.07031-.07422.10547.04297.07422.07422.0586.08984.04296.10156.04688.10547.04296.10547.1211.02735.11719-.02735.07421-.08984.04297-.10547.0586-.08985.07422-.07421.10546-.04297.1172-.02735.1328.01172.08985.0586.14844.14843.05859.08985.04297.10547.04687.10156.04297.10547.04297.10156.10547.04688.10547.04296.13281.01563.08594-.0586.0586-.08984.07421-.07422.10547-.04297.11719.02735.10547.04687.10156.04297.10547.04297.10156.04688.17969.11718v.11719l-.01563.13281.01563.13281.01562.13672.0586.08594.10156.04688.1211.02734.11718.03125h.14844l.11719-.03125.05859-.08984.17969-.1172.05859-.08983.07422-.07422.0586-.08594.11718-.17969.17969-.11719.11719.03125.08984.0586.04297.07422-.01563.1328v.1172l.08985.05859h.14843l.13282-.01563.1328-.01171.26563-.03125.10547-.04297.11719-.03125.1211-.02735.07421-.07421.07031-.07422.0625-.08985-.01562-.10547-.04688-.10156-.10156-.04297-.10547-.01562-.11718.02734-.26563.03125h-.14844l-.07421-.07422-.08985-.0586-.11719-.03124-.11718-.02735-.13282-.01562h-.14843l-.13282.01563h-.29687l-.10547-.04688-.14844-.14844-.04297-.10156-.05859-.08984.22266-.22266.08593-.0586.10547-.04296.11719-.03125.13281-.01563.13281.01563.13672.01562.10157.04297.1328-.01172.08985-.0625.10156-.04297.0625-.08984-.04687-.10156-.08984-.0586-.1172-.03125-.10155-.04296-.0586-.08985-.0625-.08984v-.11719l.01563-.13281.10547-.04688.07421-.07031v-.1211l-.08984-.05859-.03125-.11719.08985-.05859.07421-.07422.04297-.10547.0586-.08984.04687-.10156.01563-.13281v-.14844l-.04688-.10547-.04297-.10156-.08984-.0586-.13281-.01562-.10157-.04297-.13671-.01563-.1172-.03125h-.4453l-.13282-.01562-.13281-.01172-.13281-.01563-.11719-.03125h-.14844l-.13281-.01562-.13281-.01172-.26563-.03125-.1211-.04297-.08593-.0586-.07422-.07421v-.14844l.01172-.13281.10547-.04688.10156-.04296.13281-.01563h.15235l.13281-.01562h.29297l.1211.03125.10156.04296.08984.0586.23438.0625.12109-.04688.08984-.05859.10156-.04297.13282-.01562.10547.04296.10156.04688.13281.01172.1211-.02735h.14453l.12109-.03125.11719-.02734.10547-.04687.07421-.07422.08594-.0586.14844-.14843.0586-.08594.04687-.10547.02734-.11719.01563-.10547-.10156-.04296-.08985-.0586-.11719-.03125-.10546-.04297-.08985-.0625-.07422-.08594-.07422-.07421-.10156-.04297-.10547-.04688-.10156-.04297-.0586-.08984-.04687-.10156-.08594-.21094-.0625-.08594-.05859-.08984-.07422-.07422-.08594-.0586h-.26953l-.11719.03126-.08984.05859-.10156.04297-.13281.01562-.10547-.01562-.02735-.11719-.0625-.08984-.11718-.03125-.10157-.04297-.14843-.14844-.03125-.11719-.01563-.10546.07422-.07422.17969-.1172.11719-.02733.11718-.03125.13672.01562.10156.04297.10547.04297.10156.04687.10547.04297.1172.03125.1328.01563.1172.02734.1328.01563.10547-.01563.08985-.0586-.07422-.07421-.10547-.04297-.07422-.07422-.07422-.08984-.14844-.14844-.08593-.0586-.08985-.05859-.07422-.07422-.08984-.0586-.10156-.04687-.1211-.02734-.10156-.04688-.10547-.04296-.11719-.03125-.10156-.04297-.1211-.03125h-.14843l-.11719.03125-.10546.04297-.08594.0625-.17969.11718-.08594.0586-.08984.0586-.10547.04687-.08594.05859-.10547.04297-.10156.04297-.10547.04687-.07422.07422-.05859.08985-.0586.08593-.04687.10547-.0586.08594-.07421.07422-.13281-.01172-.1172-.03125h-.11718l-.07422.07422-.08984.0586-.07422.07421-.08984.0586-.08594.05859-.10547.04687-.10156.04297-.13672.01563-.10156-.04297-.14844-.14844-.10547-.04688h-.08594l-.10547.04688-.10156.04297-.1211.03125-.11718-.03125-.07422-.07422v-.11719l.03125-.1211.07422-.0703.0586-.08985.07421-.07422.11719-.03125.10547-.04296h.29297l.13281-.01563.13672-.01563.10156-.04296.08985-.0586.10156-.04687.08984-.0586.13281-.01171.08985.05859.13281.01172.08984-.0586.08594-.05859.10547-.04297.08984-.0586.08594-.0625.08985-.05859.14843-.14843.0586-.08594.05859-.08985.10547-.04296.13281-.01563.11719.02735.1211.03125.05859-.0586.05859-.08984.03125-.26563.02734-.11719.10547.01172.13281.01563.10157-.04297.08984-.0586.0586-.08984.07421-.07422.0586-.08984.04687-.10156.01172-.13281-.01172-.13282-.04687-.10547-.14844-.14843-.0586-.08985-.05859-.08594-.04297-.10546v-.44532l.01563-.1328v-.14845l.01172-.1328-.0586-.0586-.08984.0586-.10156-.04298-.17969-.11719-.08594-.05859-.0625-.08984-.0586-.08985-.07421-.07421-.08594-.0586-.1211.03125-.10155.01172-.10547.04688-.08594.05859-.10547.04297-.14844.14844-.08984.05859-.08594.0586-.08984.0625-.10547.04296-.13281.01563v-.1211l.10547-.04297.11718-.03125.07422-.0703.04297-.10548v-.14844l-.02734-.11718-.14844-.14844-.13281-.01563h-.14844l-.11719.03125-.10547.04297-.10156.04297-.08984.0625-.11719.02735-.07422-.07422.01172-.13281-.04297-.10157-.04297-.10547-.08984-.05859-.11719.02734-.1211.03125-.11718.03125-.10156.04297-.1211.03125-.10156.04297-.10547.04297-.08984.0586-.10156.01562v-.11719l.01562-.13281-.0586-.08985-.07421.04297-.14844.14844-.0586.08985-.07421.07421-.04688.10547-.04296.10156-.07422.07422-.0586.08985-.07422.07422-.05859.08593-.07422.07422-.08984.0625-.07422.07031-.07422.07422-.10156.01563-.13281.01562-.10547-.04296v-.1211l.14843-.14844.04297-.10156.0586-.08984.04687-.10156.04297-.10547.0586-.08985.03124-.11719.04297-.10156.03125-.1211.02735-.11718.04687-.10547.04297-.10156.04297-.10547.07422-.07031.08984-.0625.08985-.0586.10156-.04296h.29687l.26563-.03125.10547-.04297-.07422-.07422-.11719-.03125-.10547-.04297-.08984-.0586-.10156-.04687-.08985-.0586-.10156-.04296-.10547-.04297-.08984-.0625-.08594-.0586-.10547-.04296-.10156-.04297-.1211-.03125-.11718-.03125-.10157-.04297L297.5 410.25l-.10156-.04297-.08985-.0586-.04296-.10546-.01563-.13281.10156-.04297.13281-.01563.13672.01563.13282-.01563.10156-.04297.0586-.08984.01562-.10547-.08985-.0586-.07421-.07421-.10157-.04297-.08984-.0586-.14844-.14843-.04297-.10547-.01562-.13281v-.29297l-.0586-.08985-.08984-.05859-.07422-.07422-.04297-.10547-.03125-.11718-.0586-.08985-.07421-.07422-.11719-.02734-.07422-.07422-.08984-.0586-.08984-.0625-.08594-.05859-.07422-.07421-.0586-.08594-.04687-.10547-.08594-.0586-.14843-.14843-.19532-.0586-.1328.01563-.10157.04297-.07422.07422-.04688.10156-.04296.10547-.0586.08984-.0586.08594-.29687.29687-.08984.0586h-.08594l-.0625-.08594-.04297-.10547.03125-.11719.0586-.08984.02734-.11719-.01172-.13281-.08984-.0625-.10547.04688-.11719.02734-.11719.03125-.26953.17578-.10156.04688-.11719.02734-.10546.04687-.08985.0586-.10156.04297-.0586-.08594-.04687-.10547.01563-.13281.04687-.10547.07031-.07422.07422-.07031.0586-.08985v-.14843l-.04297-.10547h-.23829l-.10156.04687-.03125.11719-.02734.11719-.03125.1211-.07422.04296-.13281.01563-.07422-.04688-.04297-.10156-.04297-.10547-.04687-.10156-.04297-.10547-.1211.03125-.10156.04297-.13281.01562-.11719.03125-.10547.04297-.08984.0586-.10156.04687-.1211.02734-.13281.01563-.10156-.04297-.0586-.08985-.04687-.10546-.04297-.10157-.04297-.10546v-.1172l.0586-.08984.08593-.05859.17969-.11719.10156-.04687.10547-.04297.10547-.0586.10156-.04296.08985-.0625.10156-.04297.10547-.0586.10156-.04687.08984-.0586.10547-.04296.10156-.04297.08985-.0625.10156-.04297.13672-.01563.11719.03125.10156.04297.1211.03125.10156.04297.10546.04688.10157.04296.10547.04297.10156.04688.10547.04297.10156.04297.10547.04687.08594.0586.10546.04296.1172.03125.10546.04297.10156.04688.08985.0586.10547.04296.10156.04297.10547.04687.11719.02735.10156.04687.1211.02735h.14843l.08594-.0586.01562-.10156.0586-.08984-.02735-.1172-.07422-.07421-.11719-.17969-.07421-.07422-.08985-.07421-.17969-.1172-.08593-.05859-.10547-.04296-.10156-.04688-.26954-.17578-.05859-.08985-.07422-.07421-.0586-.08985-.04296-.10156-.03125-.11719-.01563-.13672v-.5625l-.01171-.1328-.01563-.13282-.03125-.11719-.01562-.13281-.01172-.13281-.03125-.1211-.22266-.22265-.0586-.08594-.01562-.10547.03125-.11719.13281-.01562v-91.41406H172.9922v1.45312l-.0586.23438-.35156 1.05078-.17187.52343-.1172.34766-.17577.41016-.11719.17187-.23438.29297-.23046.0586h-.35157l-.11718.05859-.23047.40625v.29297l.11719.17578.23046.23047.1172.23437.64062.75781.29297.46485.17578.23437.23047.35156.23437.34766.64063.8164.17578.46485.17187.41016.11719.69531.17578.46875.11719 1.39844.0586.46484v.875l.11718 1.04688v4.78125l-.0586.46484-.35156 1.28125-.17578.52344-.11328.41015-.35156.9297L172.93359 336l-.23437.58203-.11719.17578-.17187.34766-.17578.40625-.35157.8164-.0586.29297-.11327.29297-.11719.28906-.0586.17579-.11718.875-.0586.40625-.05859.11718-.0586.17579-.05859.17187-.23047.52734-.11718.17188v.23437l-.11719.23438-.0586.17187-.17577.58594v.28906l-.0586.17579v.29296l-.0586.11329-.05859.52734v.17187l-.05468.23438v2.6211l-.17578.8164-.1172.17578-.17577.23438-.1172.17187-.11327.23438-.58594.93359-.23047.28906-.29297.46485-.17578.23437-.28906.35156-.35156.69922-.11328.23047-.17579.41016-.17578.23046-.40625.52735-.8164.69922-.29297.17187-.28906.23438-.17579.11719-.17578.17578-.52344.40625-.52734.17578-.17187.17578-.23438.05469-.64062.17578h-.75782m12.21094 31.02344l-1.07422.44921.35938.89454 1.25-.71485.44531-.53906-.98047-.08985"/><path fill="#d3d3d3" fill-opacity="0" fill-rule="evenodd" d="M201.50781 416.59766h-.89453l.44922.6289.98047.35938.80469-.08985.4453-.98828-.17577.08985-.71485-.35547-.89453.35547m154.6211 59.0703l-.0586-.52343v-.29297l.11328-.29297.0586-.23046.46875-.46875h.11328l.11719-.11329.11718-.05859h.17579l.23437-.0586h.34766l.23437.0586.11719.0586.23047.17187.0586.17578.11718.58203v.29297l-.11719.17578-.17187.28906-.17579.17579-.52734.52343-.23047.23438-.11719.0586h-.17578l-.11718-.0586-.40625-.29297-.17579-.11719-.11718-.0586-.0586-.11327-.05468-.1172m6.64062-10.95702l-.0586-.17188v-1.10937l.0586-.17188.17578-.0586.17188-.05858h.17578l.23437-.0586.1172.0586.05858.69921-.05859.17188-.11719.17578-.11718.0586-.23438.52343-.11328.0586h-.23438l-.05859-.1172m9.61328-14.39062l-.11719-.17578v-.69922l.29297-.875.1172-.17187.17577-.35156.11328-.23047.1172-.29297.35155-.75781.1172-.23047.17187-.23438h.17578l.11719-.0586h.64062l.11719.0586.23437.23438.17188.11328.35156.29297.11719.11718.11328.17579v.11328l.11719.05859.11718.11719v.69922l-.05859.17578v.23047l-.0586.17578-.34765 1.05078-.11719.23047-.11719.23437-.11718.0586-.23047.23437-.64063.28906h-.875l-.41015-.11718-.64063-.46485"/><path fill="none" stroke="#bebebe" stroke-linecap="round" stroke-linejoin="round" stroke-miterlimit="10" stroke-width=".5" d="M467.95703 311.69531H144.02734v168.625h323.9297v-168.625"/><g clip-path="url(#a)"><path fill="#fff" fill-opacity="0" fill-rule="evenodd" d="M144 475.89063v4.4375h.0039H144V311.67188h.0039H144v164.21875"/></g><g clip-path="url(#b)"><path fill="#fff" fill-opacity="0" fill-rule="evenodd" d="M144.0039 480.32813V311.67188h102.07813v113.9453l-4.4375.19532-1.34766 1.25781-2.1914 4.4375 3.53906 3.48047 4.4375-.16797 3.0039-3.3125-1.80468-4.4375-1.19922-1.45312V311.67188h39.94531v105.4375l-1.09375 1.08203-3.34375 1.6914-4.4375 1.20313-1.54296 1.54297 1.54296 1.54296 4.3711 2.89844.0664.0664.15625-.0664 4.28125-.73047 1.41407.73047 3.02343 2.09375v24.22656l-.76562.3086-1.9414 4.4375 2.70702 1.16406 1.41407-1.16406-.90625-4.4375-.50782-.3086v-24.22656l2.09766-2.09375 2.33984-.97656 3.46485-3.46484-3.46485-3.84766-4.4375.125-3.19921-.71484-1.23829-1.08204v-105.4375h26.62891v102.75391l-3.89844 3.76563.78516 4.4375 3.11328 3.10546 3-3.10546.76563-4.4375-3.76563-3.76563v-102.7539h4.4414v136.84375l-1.8828.74609-2.5586.91797-4.4375 1.10156-4.4375 1.85156-1.07031.5664-2.94531 4.4375 4.01562 1.80079 4.4375-.1875 4.4375-.41406 2.61328-1.19922 1.82813-2.1914 1.61328-2.2461-.03906-4.4375-1.57422-.7461V311.67188h57.6953v129.40235l-4.4375 2.58203-1 1.16406.29298 4.4414-.41797 4.4375.08203 4.4375-.45703 4.4375 1.5 1.92579 4.4375.11719 4.4414-1.9414.09766-.10157 3.63672-4.4375.70313-.77344 3.70312-3.66406-.7461-4.4375-2.95702-2.8086-4.4375-.80468-1.64844-.82813-2.79297-3.7461V311.67189h8.8789v123.85156l-.42187.42187.42188.34766.2539-.34766-.2539-.42187V311.67188h17.7539v160.91406l-4.4414 1.375-2.13672 1.92969 2.13671 1.86718 4.44141 1.91797 3.16406-3.78515-3.16406-3.3047V311.67188h66.57031v168.65625H144.00391"/></g><path fill="#50fcfc" fill-rule="evenodd" d="M241.64453 434.98828l-3.53906-3.48047 2.1914-4.4375 1.34766-1.25781v2.88672l-2.01953 2.8086 2.01953 1.98437 4.4375-1.04297.85156-.9414-.85156-1.53126-4.4375-1.27734v-2.88672l4.4375-.19531 1.19922 1.45312 1.80469 4.4375-3.0039 3.3125-4.4375.16797"/><path fill="#00e8fc" fill-rule="evenodd" d="M241.64453 433.49219l-2.01953-1.98438 2.01953-2.8086 4.4375 1.27735.85156 1.53125-.85156.9414-4.4375 1.04298"/><path fill="#50fcfc" fill-rule="evenodd" d="M277.15234 424.17188l-1.54296-1.54297 1.54296-1.54297 4.4375-1.20313 3.34375-1.6914 1.09375-1.08204 1.23829 1.08204 3.19921.71484v1.28125l-4.4375.89063-4.4375 1.37109-.43359.17969.4336.29296 4.4375.8086 4.4375 2.5625 4.4375-1.66016 2.0039-2.0039-2.0039-2.22266-4.4375-.21875v-1.28125l4.4375-.125 3.46484 3.84766-3.46485 3.46484-2.33984.97656-2.09766 2.09375-3.02343-2.09375-1.41407-.73047-4.28125.73047-.15625.0664-.0664-.0664-4.3711-2.89844"/><path fill="#00e8fc" fill-rule="evenodd" d="M281.58984 422.92188l-.43359-.29297.4336-.1797 4.4375-1.37108 4.4375-.89063v2.14063l-.70313.30078.70312.45312 1.96875-.45312-1.96875-.30079v-2.14062l4.4375.21875 2.00391 2.22266-2.0039 2.0039-4.4375 1.66016-4.4375-2.5625-4.4375-.8086"/><path fill="#50fcfc" fill-rule="evenodd" d="M290.46484 459.30078l-2.70703-1.16406 1.9414-4.4375.76563-.3086.50782.3086.90625 4.4375-1.41407 1.16406"/><path fill="#00d4fc" fill-rule="evenodd" d="M290.46484 423.08203l-.70312-.45312.70312-.30079 1.96875.30079-1.96875.45312"/><path fill="#50fcfc" fill-rule="evenodd" d="M303.78125 459.9375l-4.01563-1.80078 2.94532-4.4375 1.07031-.5664 4.4375-1.85157 4.4375-1.10156 2.5586-.91797 1.8828-.7461 1.57423.7461.03906 4.4375-1.61328 2.2461-1.82813 2.1914-2.61328 1.19922-4.4375.41406-4.4375.1875m5.76172-37.3086l-.78516-4.4375 3.89844-3.76562v1.01172l-2.85156 2.7539 1.98437 4.4375.86719.8672.83594-.8672 1.91797-4.4375-2.75391-2.7539v-1.01172l3.76563 3.76563-.76563 4.4375-3 3.10546-3.11328-3.10546"/><path fill="#00e8fc" fill-rule="evenodd" d="M311.78906 422.6289l-1.98437-4.4375 2.85156-2.7539v1.6875l-1.10156 1.0664 1.10156 2.00391 1.0664-2.0039-1.0664-1.06641v-1.6875l2.7539 2.7539-1.91796 4.4375-.83594.8672-.86719-.8672"/><path fill="#00d4fc" fill-rule="evenodd" d="M312.65625 420.19531l-1.10156-2.0039 1.10156-1.06641 1.0664 1.0664-1.0664 2.00391"/><path fill="#50fcfc" fill-rule="evenodd" d="M370.35547 464.5l-1.5-1.92578.45703-4.4375-.08203-4.4375.41797-4.4375-.29297-4.4414 1-1.16407 4.4375-2.58203v6.09765l-3.6875 2.08985 3.6875.92187 1.13672-.92187-1.13672-2.08985v-6.09765l2.79297 3.7461 1.64844.82812v2l-1.47657 1.61328-2.96484 2.41406-2.80078 2.02344 2.80078 3.44531.69531.99219 3.7461 3.03125 2.53515-3.03125 1.90235-2.08985 2.37109-2.34765-2.3711-4.22656-.4453-.21094-3.9922-1.61328v-2l4.4375.80469 2.95704 2.80859.74609 4.4375-3.70313 3.66406-.70312.77344-3.63672 4.4375-.09765.10156-4.44141 1.9414-4.4375-.11718"/><path fill="#fff" fill-opacity="0" fill-rule="evenodd" d="M374.79297 447.17188l-3.6875 2.08984 3.6875.92187 1.13672-.92187-1.13672-2.08985"/><path fill="#00e8fc" fill-rule="evenodd" d="M374.79297 457.14453l-2.80078-3.44531 2.80078-2.02344 2.96484-2.41406 1.47656-1.61328v3.69531l-3.375 2.35547 2.57813 4.4375.79688.64453.53906-.64453 3.89844-4.28906.15234-.14844-.15235-.26953-4.4375-2.08594v-3.69531l3.9922 1.61328.4453.21094 2.3711 4.22656-2.3711 2.34765-1.90234 2.08985-2.53515 3.03125-3.7461-3.03125-.69531-.99219"/><path fill="#00d4fc" fill-rule="evenodd" d="M378.4375 458.13672l-2.57813-4.4375 3.375-2.35547 4.4375 2.08594.15235.26953-.15235.14844-3.89843 4.28906-.53906.64453-.79688-.64453"/><path fill="#50fcfc" fill-rule="evenodd" d="M383.67188 436.29297l-.42188-.34766.42188-.42187.2539.42187-.2539.34766m13.3125 41.46484l-2.13672-1.86719 2.13671-1.92968 4.44141-1.375v2.75l-1.21094.55469 1.21094.63671.53125-.63671-.53125-.5547v-2.75l3.16406 3.3047-3.16406 3.78515-4.4414-1.91797"/><path fill="#00e8fc" fill-rule="evenodd" d="M401.42578 476.52734l-1.21094-.63671 1.21094-.5547.53125.5547-.53125.63671"/><g clip-path="url(#c)"><path fill="#fff" fill-opacity="0" fill-rule="evenodd" d="M467.9961 480.32813H468V311.67188h-.0039H468v168.65625h-.0039"/></g><g clip-path="url(#d)"><path fill="none" stroke="#000" stroke-linecap="round" stroke-linejoin="round" stroke-miterlimit="10" stroke-width=".5" d="M147.45703 479.70703l-6.91406 1.24219"/></g><g clip-path="url(#e)"><path fill="none" stroke="#000" stroke-linecap="round" stroke-linejoin="round" stroke-miterlimit="10" stroke-width=".5" d="M146.45313 479.88672l.7578.96484"/></g><g clip-path="url(#f)"><path fill="none" stroke="#000" stroke-linecap="round" stroke-linejoin="round" stroke-miterlimit="10" stroke-width=".5" d="M160.82422 480.47266l-7.01953-.28907"/></g><g clip-path="url(#g)"><path fill="none" stroke="#000" stroke-linecap="round" stroke-linejoin="round" stroke-miterlimit="10" stroke-width=".5" d="M159.80469 480.4336l.53125 1.10546"/></g><g clip-path="url(#h)"><path fill="none" stroke="#000" stroke-linecap="round" stroke-linejoin="round" stroke-miterlimit="10" stroke-width=".5" d="M174.14453 480.39453l-7.02734-.13281"/></g><g clip-path="url(#i)"><path fill="none" stroke="#000" stroke-linecap="round" stroke-linejoin="round" stroke-miterlimit="10" stroke-width=".5" d="M173.1211 480.375l.55468 1.09375"/></g><g clip-path="url(#j)"><path fill="none" stroke="#000" stroke-linecap="round" stroke-linejoin="round" stroke-miterlimit="10" stroke-width=".5" d="M187.20313 479.01172l-6.51563 2.63281"/></g><g clip-path="url(#k)"><path fill="none" stroke="#000" stroke-linecap="round" stroke-linejoin="round" stroke-miterlimit="10" stroke-width=".5" d="M186.2539 479.39453l.94141.78906"/></g><g clip-path="url(#l)"><path fill="none" stroke="#000" stroke-linecap="round" stroke-linejoin="round" stroke-miterlimit="10" stroke-width=".5" d="M200.33984 478.64063l-6.16015 3.375"/></g><g clip-path="url(#m)"><path fill="none" stroke="#000" stroke-linecap="round" stroke-linejoin="round" stroke-miterlimit="10" stroke-width=".5" d="M199.44531 479.13281l1.02344.67188"/></g><g clip-path="url(#n)"><path fill="none" stroke="#000" stroke-linecap="round" stroke-linejoin="round" stroke-miterlimit="10" stroke-width=".5" d="M213.76563 478.85547l-6.37891 2.94531"/></g><g clip-path="url(#o)"><path fill="none" stroke="#000" stroke-linecap="round" stroke-linejoin="round" stroke-miterlimit="10" stroke-width=".5" d="M212.83594 479.28516l.97656.74218"/></g><g clip-path="url(#p)"><path fill="none" stroke="#000" stroke-linecap="round" stroke-linejoin="round" stroke-miterlimit="10" stroke-width=".5" d="M227.33594 481.01953l-6.89063-1.38281"/></g><g clip-path="url(#q)"><path fill="none" stroke="#000" stroke-linecap="round" stroke-linejoin="round" stroke-miterlimit="10" stroke-width=".5" d="M226.33203 480.82031l.35156 1.17578"/></g><g clip-path="url(#r)"><path fill="none" stroke="#000" stroke-linecap="round" stroke-linejoin="round" stroke-miterlimit="10" stroke-width=".5" d="M239.7539 482.7461l-5.09765-4.83594"/></g><g clip-path="url(#s)"><path fill="none" stroke="#000" stroke-linecap="round" stroke-linejoin="round" stroke-miterlimit="10" stroke-width=".5" d="M253.82422 481.52734l-6.60547-2.39843"/></g><g clip-path="url(#t)"><path fill="none" stroke="#000" stroke-linecap="round" stroke-linejoin="round" stroke-miterlimit="10" stroke-width=".5" d="M267.0625 481.72266l-6.45313-2.78516"/></g><g clip-path="url(#u)"><path fill="none" stroke="#000" stroke-linecap="round" stroke-linejoin="round" stroke-miterlimit="10" stroke-width=".5" d="M280.42188 481.61719l-6.53907-2.57422"/></g><g clip-path="url(#v)"><path fill="none" stroke="#000" stroke-linecap="round" stroke-linejoin="round" stroke-miterlimit="10" stroke-width=".5" d="M279.46875 481.24219l.14063 1.21875"/></g><g clip-path="url(#w)"><path fill="none" stroke="#000" stroke-linecap="round" stroke-linejoin="round" stroke-miterlimit="10" stroke-width=".5" d="M293.35547 482.32813l-5.77735-4"/></g><g clip-path="url(#x)"><path fill="none" stroke="#000" stroke-linecap="round" stroke-linejoin="round" stroke-miterlimit="10" stroke-width=".5" d="M307.10156 481.48047l-6.64062-2.30469"/></g><g clip-path="url(#y)"><path fill="none" stroke="#000" stroke-linecap="round" stroke-linejoin="round" stroke-miterlimit="10" stroke-width=".5" d="M306.13281 481.14453l.1914 1.21485"/></g><g clip-path="url(#z)"><path fill="none" stroke="#000" stroke-linecap="round" stroke-linejoin="round" stroke-miterlimit="10" stroke-width=".5" d="M320.5586 479.72656l-6.92579 1.20703"/></g><g clip-path="url(#A)"><path fill="none" stroke="#000" stroke-linecap="round" stroke-linejoin="round" stroke-miterlimit="10" stroke-width=".5" d="M319.55078 479.90234l.7539.96485"/></g><g clip-path="url(#B)"><path fill="none" stroke="#000" stroke-linecap="round" stroke-linejoin="round" stroke-miterlimit="10" stroke-width=".5" d="M333.78516 481.3125l-6.7461-1.96875"/></g><g clip-path="url(#C)"><path fill="none" stroke="#000" stroke-linecap="round" stroke-linejoin="round" stroke-miterlimit="10" stroke-width=".5" d="M332.80078 481.02734l.25 1.19922"/></g><g clip-path="url(#D)"><path fill="none" stroke="#000" stroke-linecap="round" stroke-linejoin="round" stroke-miterlimit="10" stroke-width=".5" d="M341.25 482.82031l4.95313-4.98437"/></g><g clip-path="url(#E)"><path fill="none" stroke="#000" stroke-linecap="round" stroke-linejoin="round" stroke-miterlimit="10" stroke-width=".5" d="M354.71094 482.95703l4.66015-5.25781"/></g><g clip-path="url(#F)"><path fill="none" stroke="#000" stroke-linecap="round" stroke-linejoin="round" stroke-miterlimit="10" stroke-width=".5" d="M369.46875 483.72656l1.77734-6.79687"/></g><g clip-path="url(#G)"><path fill="none" stroke="#000" stroke-linecap="round" stroke-linejoin="round" stroke-miterlimit="10" stroke-width=".5" d="M382.07813 483.46094l3.1875-6.26563"/></g><g clip-path="url(#H)"><path fill="none" stroke="#000" stroke-linecap="round" stroke-linejoin="round" stroke-miterlimit="10" stroke-width=".5" d="M398.98438 477.4375l-3.9961 5.78125"/></g><g clip-path="url(#I)"><path fill="none" stroke="#000" stroke-linecap="round" stroke-linejoin="round" stroke-miterlimit="10" stroke-width=".5" d="M408.625 483.41797l3.35156-6.17578"/></g><g clip-path="url(#J)"><path fill="none" stroke="#000" stroke-linecap="round" stroke-linejoin="round" stroke-miterlimit="10" stroke-width=".5" d="M423.9961 483.82031l-.75782-6.98437"/></g><g clip-path="url(#K)"><path fill="none" stroke="#000" stroke-linecap="round" stroke-linejoin="round" stroke-miterlimit="10" stroke-width=".5" d="M440.03516 481.97656l-6.20704-3.29687"/></g><g clip-path="url(#L)"><path fill="none" stroke="#000" stroke-linecap="round" stroke-linejoin="round" stroke-miterlimit="10" stroke-width=".5" d="M453.6875 481.03516l-6.88281-1.41016"/></g><g clip-path="url(#M)"><path fill="none" stroke="#000" stroke-linecap="round" stroke-linejoin="round" stroke-miterlimit="10" stroke-width=".5" d="M452.6875 480.82813l.34766 1.17968"/></g><g clip-path="url(#N)"><path fill="none" stroke="#000" stroke-linecap="round" stroke-linejoin="round" stroke-miterlimit="10" stroke-width=".5" d="M465.99219 477.79297l-4.85938 5.07422"/></g><path fill="none" stroke="#000" stroke-linecap="round" stroke-linejoin="round" stroke-miterlimit="10" stroke-width=".5" d="M465.28516 478.53125l1.17968.33203"/><g clip-path="url(#O)"><path fill="none" stroke="#000" stroke-linecap="round" stroke-linejoin="round" stroke-miterlimit="10" stroke-width=".5" d="M147.4375 466.28906l-6.875 1.44922"/></g><path fill="none" stroke="#000" stroke-linecap="round" stroke-linejoin="round" stroke-miterlimit="10" stroke-width=".5" d="M146.4375 466.5l.78906.9414m13.59766-.58593l-7.01953.3164m6-.26953l.625 1.0547m13.70312-.66798l-7.0039-.55078m5.98437.46875l.49219 1.125m13.83203-1.69922l-6.98438.76172m5.96875-.64844l.69141 1.01172m13.63281-1.17969l-6.97265.8711m5.95703-.7461l.70703 1.00391m13.58203-1.39062l-6.88672 1.39453m5.88281-1.1914l.78125.94921m13.52344-1.22266l-6.85937 1.53516m5.85937-1.3125l.80078.92969M240.71875 467l-7.02734.02734m6.0039-.02343l.58203 1.08203m13.7461-.80078l-7.0039-.54297m5.98437.46484l.49218 1.125m13.82032-.84375l-6.96094-.94922m5.94922.8125l.42187 1.15235m13.89063-2.0586l-6.9336 1.13672m19.3125-3.0039l-5.0625 4.87109m4.32813-4.16406l1.16406.3828m13.85938 1.60938l-7.00782-.52734m17.7461 3.65234l-1.85156-6.77734m11.02343 4.80078l6.4336-2.82422m-5.5 2.41406l-.96094-.7578m16.92578 3.25l-.73437-6.98829m11.59765 6.32422l4.16797-5.66016m9.70313 5.9961l3.05468-6.33203m-2.60937 5.41015l-1.22656.04688m12.79687-.20703l5.65625-4.16797m-4.83594 3.5625l-1.10547-.53125m12.91407-.94532H400.5m-7.02734 0l-1.15235-2.16796m14.46875 2.08203l7.02344.16797m-6-.14454l-.55078-1.09375m14.26562 3.98047l4.1797-5.65234m-3.57032 4.82812l-1.21484-.17968m17.10546 1.51562l-2.1914-6.67578m1.8711 5.70313l-.84766.88671m14.86718-.0664l-2.96093-6.3711m2.53125 5.44532l-.7422.97656m16.26563-1.92578l-6.51953-2.6211"/><g clip-path="url(#P)"><path fill="none" stroke="#000" stroke-linecap="round" stroke-linejoin="round" stroke-miterlimit="10" stroke-width=".5" d="M147.3789 452.73438l-6.7578 1.92968"/></g><path fill="none" stroke="#000" stroke-linecap="round" stroke-linejoin="round" stroke-miterlimit="10" stroke-width=".5" d="M147.3789 452.73438l1.70313 1.76562m11.6289-1.70313l-6.79296 1.8047m5.80469-1.54298l.83593.89844m13.58594-.21875l-7.02734-.07812m6.0039.0664l.5625 1.08985m13.71485-.47266l-6.90625-1.28906m5.90234 1.10156l.36719 1.17187m14.01172-1.60156l-7.02735-.0586m7.02735.0586l1.13281 2.17578m12.16406-2.55859l-6.99219.71094m6.9922-.71094l1.36718 2.03906m11.875-2.47656l-6.84375 1.58594m6.84375-1.58594l1.61328 1.85156m11.75-1.61719l-6.9375 1.11329m6.9375-1.11329l1.48047 1.95704m11.80469-2.11329l-6.8789 1.4297m6.8789-1.4297l1.5664 1.88672m11.62891-2.32422l-6.64063 2.3047m6.64063-2.3047l1.79688 1.67188m11.3164-2.13672l-6.23828 3.23438m6.23828-3.23438l2.01953 1.39063m11.40625-1.16016l-6.45703 2.77344m5.51563-2.3711l.95703.76953m12.46094-2.35937l-4.78125 5.14844m12.64843-.83985l6.11328-3.46875m-5.22265 2.96485l-1.03516-.66016m13.32813.90625l6.375-2.95312m7.01172 3.10156l6.23046-3.25m6.72657 1.11328l6.94922 1.01953m7.76562 2.32422l4.15234-5.66797m-3.55078 4.84375l-1.21484-.17578m12.78516-.42188l6.4375-2.8203m-6.4375 2.8203l-1.92579-1.52343m14.9961.71875l6.92187-1.21094m-6.92187 1.21094l-1.50781-1.9375m14.8789 2.1875l6.8125-1.71485m-6.8125 1.71485l-1.64453-1.82032m15.33203 2.73829l6.0664-3.54688m-6.0664 3.54688l-2.08594-1.28907m15.64063 1.64453l5.58984-4.26171m-5.58984 4.26171l-2.23047-1.02343m16.45313 1.85937l3.77343-5.92969m-3.22265 5.06641l-1.22266-.09766m13.97266.94922l3.80468-5.90625"/><g clip-path="url(#Q)"><path fill="none" stroke="#000" stroke-linecap="round" stroke-linejoin="round" stroke-miterlimit="10" stroke-width=".5" d="M147.10547 438.73828l-6.21094 3.29297"/></g><path fill="none" stroke="#000" stroke-linecap="round" stroke-linejoin="round" stroke-miterlimit="10" stroke-width=".5" d="M147.10547 438.73828l2.03125 1.375m-2.9375-.89844l1.01953.6875m13.23047-1.10546l-6.26953 3.17187m6.26953-3.17188l2.00781 1.41407m11.66406-.23047l-6.98047.8086m6.98047-.8086L175.51562 442m11.9375-1.78125l-7.01953.32813m7.01953-.32813l1.25391 2.10938m12.0664-1.9375l-7.02734-.01563m7.02735.01563l1.14844 2.16796m11.96875-1.01562l-6.63282-2.3164m6.63281 2.3164l.375 2.42578m12.94532-2.4375l-6.64063-2.29688m5.67578 1.96485l.1875 1.21094m14.26172-1.63282l-6.98047-.78906m5.96485.67578l.45312 1.14063m13.89844-1.26953l-7.01953-.3047m5.9961.26173l.53124 1.10547m13.8086-1.33204l-7.02344.23829m7.02344-.23829l1.22265 2.125m11.78907-3.4414l-6.41797 2.86719m6.41797-2.8672l1.93359 1.50782m11.33594-1.60156l-6.32813 3.05469m5.41016-2.60938l.98828.72266m13.15625-1.33985l-6.14844 3.40235m5.2539-2.91016l1.02735.67188m13.19922-1.13282l-6.1836 3.33594m5.28516-2.85156l1.01953.67969m12.10547-2.38282l-4.0039 5.77344m13.03906-5.5625l4.55469 5.35156m8.08984-.76562l5.89453-3.82031m-5.03906 3.26562l-1.07031-.59766m14.2578 1.96485l4.44141-5.44531m-3.79687 4.65234l-1.20313-.23828m12.6211-1.16016l6.94531-1.0586m-5.9375.90235l-.73047-.98437m13 .75l7.01953-.28125m-7.01953.28125l-1.23828-2.11719m14.59766 2.5586l6.92968-1.16407m-6.92968 1.16406l-1.49219-1.9453m15.20703 3.07812l6.13281-3.4297m-6.1328 3.4297l-2.0625-1.32422m2.95312.82812l-1.03125-.66406m13.6914 1.52734l5.66016-4.16406m-5.66016 4.16406l-2.21094-1.0625m3.03516.45703l-1.10547-.53125m14.10156 1.69141l4.64844-5.26953m-4.64844 5.26953l-2.38671-.57031m15.73046.59375l4.59375-5.32031m-3.92578 4.54687l-1.1953-.27344"/><g clip-path="url(#R)"><path fill="none" stroke="#000" stroke-linecap="round" stroke-linejoin="round" stroke-miterlimit="10" stroke-width=".5" d="M147.0039 425.2461l-6.0078 3.64452"/></g><path fill="none" stroke="#000" stroke-linecap="round" stroke-linejoin="round" stroke-miterlimit="10" stroke-width=".5" d="M147.0039 425.2461l2.10938 1.2539m-2.98437-.72266l1.05468.625m13.31641-.8164l-6.3711 2.96484m6.3711-2.96484l1.96094 1.48047m11.66015-.39063l-6.98047.78516m6.98047-.78516l1.38672 2.02344m11.85938-.83203l-6.84375-1.59766m6.84375 1.59766l.6289 2.3711m12.4961-1.78517l-6.46094-2.76562m5.51953 2.36328l.10156 1.21875m11.98828 1.14844l-2.1328-6.69922m1.82421 5.72266l-.85937.8789m14.89062-.0625l-2.94531-6.3789m2.51562 5.45312l-.74218.97656m14.63672-.125l-3.2461-6.23047m2.77344 5.32422l-.6914 1.01172m15.33984-.73437l-4.96875-4.96875m4.24609 4.24218l-.35938 1.17579m14.87891-1.05079l-5.92969-3.76953m5.06641 3.22266l-.09375 1.22266m14.8086-2.25l-7-.6211m5.98046.53125l.47656 1.1289m13.625-2.64062l-6.53515 2.58203m6.53515-2.58203l1.8672 1.59375m11.67187.06641l-6.98828-.73828m5.97265.6289l.46094 1.14063m13.67578-2.61328l-6.59765 2.42578m5.63671-2.07031l.91407.8164m12.78906-2.17578l-5.44922 4.4336m4.65625-3.78907l1.1289.47657m6.7422 1.20703l7.02343-.22266m6.29297.26563l7.01953-.3086m-6 .26563l-.6211-1.0586m13.14063 2.19141l6.57031-2.48828m-5.61328 2.125l-.92187-.8086m13.60937 1.82422l5.91407-3.79297m-5.0547 3.2422l-1.0703-.60157m15.45703-4.10547l2.05078 6.72266m-2.05078-6.72266l1.73437-1.73437m11.42969 1.78515l2.35156 6.6211m9.39844-1.10938l5.48047-4.39844m-5.48047 4.39844l-2.2539-.96875m14.93359-.26172l6.7539-1.9414m-6.7539 1.9414l-1.70703-1.76562m15.24609 2.35156l6.30469-3.10938m-6.30469 3.10938l-1.98828-1.4336m16.25781 2.6172l4.39453-5.48048m-3.7539 4.6836l-1.20704-.22656"/><g clip-path="url(#S)"><path fill="none" stroke="#000" stroke-linecap="round" stroke-linejoin="round" stroke-miterlimit="10" stroke-width=".5" d="M147.04688 412.0039l-6.09375 3.5"/></g><path fill="none" stroke="#000" stroke-linecap="round" stroke-linejoin="round" stroke-miterlimit="10" stroke-width=".5" d="M147.04688 412.0039l2.07812 1.3047m-2.96484-.79688l1.03906.65234m13.41016-.63281l-6.58985 2.44531m6.58984-2.44531l1.83204 1.6289m11.46093-1.6875l-6.54297 2.5586m6.54297-2.5586l1.86328 1.60157m11.6172-1.04688l-6.875 1.45313m5.875-1.24219l.78905.9414m13.45313.57813l-6.73047-2.01172M211.91797 417l-2.6875-6.49219m13.25 6.46485l2.82031-6.4375m-2.41016 5.5l-1.22265.09375m14.21875.8789l2.64062-6.51172m-2.2578 5.56641l-1.21876.125m16.98828.73438l-3.03515-6.33594m3.03515 6.33594l-1.45703 1.97656m14.63672-1.91406l-2.76563-6.46094m2.36329 5.51953l-.76953.95703m15.76953-.95703l-5.32813-4.58203m4.55078 3.91797l-.26953 1.1953m14.9961-4.03124l-6.59766 2.42187m5.63672-2.0703l.91406.8203m13.5586-.29296l-6.9961.66406m5.98047-.5664l.67578 1.02343m13.57812-1.59766l-6.83984 1.61719m5.84375-1.38281l.8086.92187m12.01171-3.28515l-3.85937 5.875m16.4414-6.2422l-2.39062 6.60938m2.04297-5.64843l1.21484-.17188m13.04297-.50781l-3.58203 6.04687m3.0625-5.16796l1.22656.05859m8.84766-.82422l3.9414 5.82031m-3.36718-4.97265l.57031-1.08594m13.94531-.35938l.39063 7.01563m-.33594-5.9961l1.05078-.63671m11.05469-.1172l2.69922 6.48438m-2.3086-5.54296l.77735-.94922m16.4336 1.3203l-5.8711 3.85938m5.8711-3.85937L415.39061 413m-3.0078-.61719l1.07812.58985m12.6875-1.65625l-5.0625 4.875m5.0625-4.875l2.33203.76172m-3.07031-.0547l2.33203.76173m11.4336-1.73438l-4.48829 5.40625m4.48828-5.40625l2.40234.4961m-3.05468.28906l1.19922.25m13.3125-.47266l-5.57813 4.27735m5.57813-4.27735l2.23046 1.01953m5.7461 3.53516l5.10156-4.83203m-4.35937 4.1289l-1.16407-.39062"/><g clip-path="url(#T)"><path fill="none" stroke="#000" stroke-linecap="round" stroke-linejoin="round" stroke-miterlimit="10" stroke-width=".5" d="M146.96875 398.5586l-5.9375 3.7578"/></g><path fill="none" stroke="#000" stroke-linecap="round" stroke-linejoin="round" stroke-miterlimit="10" stroke-width=".5" d="M146.96875 398.5586l2.13281 1.21484m10.80469-1.70703l-5.1836 4.74218m5.1836-4.74218l2.3125.82421m-3.0664-.1328l1.15624.41015m11.85938-1.88672l-3.07813 6.3164m3.07813-6.3164l2.45312-.08984m-2.89843 1.0078l1.22656-.04296m8.63281-.32031l4.72656 5.20312m-4.03906-4.44531l.41406-1.15234m11.2461 1.8828l6.66406 2.23048m-5.69531-1.90625l-.20313-1.21094m12.36719 2.08203l7.02734-.16015m-6.0039.13671l-.60156-1.0703m19.91796 1.03905l-7.02343-.05078m6.0039.04297l.5664 1.08594m12.66017-3.66406L234.80077 403m4.8086-5.1211l2.37109.64454m6.08594 4.42969l4.90625-5.03125m-4.90625 5.03125l-2.35547-.6875m18.71484 1.63671l-1.17969-6.92578m1.00782 5.91797l-.97266.75m17.00781-1.6211l-6.27344-3.16796m5.35938 2.70703l.02734 1.22656m13.25782-5.09765l-4.38672 5.49218M303.05859 397l1.44532 6.875M303.26953 398l.9414-.78516m11.52735-.01562l2.71484 6.48047m-2.3203-5.53906l.77734-.94922m15.6953.5039l-4.39062 5.48828m3.75391-4.6914l1.20312.22656m12.69141-1.0664l-4.27734 5.57421m3.65625-4.76562l1.21093.20312m13.6211 0l-6.0664 3.54688m5.18359-3.03125l1.04296.64453m13.12891 2.4336l-6.01172-3.64063m6.01172 3.64062l-.13672 2.44922m-.73828-2.97656l-.07031 1.22265m14.64844-3.41406l-6.79297 1.79688m6.79297-1.79688l1.66796 1.80078m-2.65625-1.53906l.83594.90235m13.1914-1.87891l-6.23827 3.23047m6.23828-3.23047l2.01953 1.39062m-2.92578-.92187l2.01953 1.39453m12.23047-1.8086l-6.29688 3.1172m6.29688-3.1172l1.9961 1.4336m-2.91016-.98047l.99609.71875m11.57031-2.79687l-2.97265 6.36718m2.97265-6.36718l2.45313-.125m10.36328-.0625l-1.97266 6.74609m1.97266-6.7461l2.40234-.5m12.5039 1.48438l-5.15624 4.77735m5.15625-4.77735l2.3164.80469m-3.0664-.10938l1.16015.40235m12.8125-1.19531l-4.96875 4.96875"/><g clip-path="url(#U)"><path fill="none" stroke="#000" stroke-linecap="round" stroke-linejoin="round" stroke-miterlimit="10" stroke-width=".5" d="M466.04688 397.95313l2.34375.71875"/></g><g clip-path="url(#V)"><path fill="none" stroke="#000" stroke-linecap="round" stroke-linejoin="round" stroke-miterlimit="10" stroke-width=".5" d="M146.63281 384.79688l-5.26562 4.65625"/></g><path fill="none" stroke="#000" stroke-linecap="round" stroke-linejoin="round" stroke-miterlimit="10" stroke-width=".5" d="M146.63281 384.79688l2.29688.85546m10.41015-1.40234l-4.05078 5.7461m4.05078-5.7461l2.4336.3086m10.77734-.37891l-3.83984 5.88672m3.83984-5.88672l2.44531.22265m-3.0039.63672l2.44531.21875m12.76953.5625l-6.52344 2.60547m6.52344-2.60547l1.875 1.58594m-2.82422-1.20703l1.875 1.58594m12.32422-2.1172l-6.39453 2.91017m6.39453-2.91016l1.94531 1.4961m-2.875-1.07032l.97266.7461m13.55078.80468l-6.94922-1.04297m5.9375.89063l.41016 1.16015m13.6289-.05468l-6.375-2.94922m6.375 2.94922l.13672 2.44921m13.47266-4.3828l-6.96484.91796m6.96484-.91797l1.42578 1.9961m-2.4375-1.86329l1.42578 1.9961m-2.4414-1.86328l1.42578 2m13.91015-2.32422l-6.94922 1.03515m6.94922-1.03515l1.45703 1.97656m-2.46875-1.82422l1.45704 1.97266m11.58984 1.13672l-4.39063-5.48828m3.75391 4.6875l-.48828 1.1289m10.39063-.08594l3.70703-5.97265m-3.16797 5.10547l-1.22266-.08203m17.71094-5.01954l-3.71875 5.96485m16.0625-6.38281l-1.77734 6.80078m1.77734-6.80078l2.39062-.56641m7.48047 1.55469l5.11328 4.82422m-4.36718-4.1211l.32422-1.1836m11.78906 1.08595l6.02344 3.61328m-5.14844-3.08985l.0664-1.22265m18.33594.59765l-5.89844 3.81641m5.03907-3.26172l1.07422.59766m13.5 1.82031l-6.69922-2.1289m6.69922 2.1289l.4414 2.41406m-1.41797-2.72265l.22266 1.20703m14.22656-2.14844l-7.01562.3711m7.01562-.3711l1.26563 2.10547m-2.28516-2.05078l.63281 1.05078m13.5039-2.09375l-6.62108 2.34765m6.62109-2.34765l1.8125 1.65625m-2.77344-1.3164l1.8086 1.65624m12.26171-2.46484l-6.20703 3.28906m6.20703-3.28906l2.03516 1.375m-2.9375-.89844l2.03125 1.375m11.70703-2.54687l-5.2461 4.67578m5.2461-4.67578l2.30078.85156m-3.0664-.17188l2.30078.85157m11.26953-2L421.5 389.92969m4.23047-5.61328l2.42578.38671m-3.03906.4297l1.21094.1953m10.66796-1.71875l-.1289 7.02735m.1289-7.02735l2.1836-1.11328m11.42578 1.13282l-.71484 6.98828m.71484-6.98828l2.26953-.92579m12.54688 1.44141l-3.71875 5.96094"/><g clip-path="url(#W)"><path fill="none" stroke="#000" stroke-linecap="round" stroke-linejoin="round" stroke-miterlimit="10" stroke-width=".5" d="M465.42188 384.14453l2.44921.16797"/></g><path fill="none" stroke="#000" stroke-linecap="round" stroke-linejoin="round" stroke-miterlimit="10" stroke-width=".5" d="M464.8789 385.01172l1.22657.08203"/><g clip-path="url(#X)"><path fill="none" stroke="#000" stroke-linecap="round" stroke-linejoin="round" stroke-miterlimit="10" stroke-width=".5" d="M145.61328 370.6875l-3.22656 6.24219"/></g><path fill="none" stroke="#000" stroke-linecap="round" stroke-linejoin="round" stroke-miterlimit="10" stroke-width=".5" d="M145.14453 371.59375l1.22656-.01172m12.29688-1.01562l-2.70703 6.48437m2.3164-5.54297l1.21875-.11328m13.51172-.17578l-4.7539 5.17578m4.7539-5.17578l2.375.61719m11.76172.51953l-6.39844 2.90625m6.39844-2.90625l1.94531 1.4961m-2.875-1.07423l1.94141 1.4961m12.53125-1.23828l-6.85547 1.54296m6.85547-1.54296l1.60156 1.86328m-2.59765-1.63672l1.59765 1.85937m12.78125-.9375l-6.98828-.75m6.98828.75l.91406 2.27344m-1.93359-2.38281l.46094 1.13672m13.80078-.61328l-6.84766-1.57813m6.84766 1.57813l.63672 2.36718m-1.63281-2.59765l.3203 1.1836m14.03517-1.1797l-6.9336-1.125m6.9336 1.125l.79296 2.32422m12.52735-3.42187l-6.94531 1.07031m6.9453-1.07031l1.46876 1.96484m11.88672-1.53906l-7.02344.21875m7.02344-.21875l1.21875 2.1289m-2.2422-2.09765l.60938 1.0664m13.6172-.09765l-6.79688-1.78125m6.79687 1.78125l.5625 2.38672m-1.55469-2.64453l.28516 1.1914m14.13281-1.98047l-7.01953.3125m7.01953-.3125l1.2461 2.11329m11.5703-3.76954l-6.02343 3.6211m6.02344-3.6211l2.10156 1.26563m-2.98047-.73828l1.05469.63281m13.14844-1.14453l-6.03906 3.59375m6.03906-3.59375l2.09765 1.27344m-2.97656-.75l1.04688.63671m13.52734-.23828l-6.80469 1.75m5.8164-1.49609l.82813.90625m13.53907-.875l-6.9297 1.17969m6.9297-1.17969l1.49609 1.9414m11.84766-.97265l-6.98828-.75781m5.97265.64844l.45313 1.13671m13.74218-.375l-6.71875-2.0625m6.71875 2.0625l.46485 2.41016m12.98828-3.76953l-6.9961.65234m6.9961-.65234l1.35156 2.05078m11.60938-3.29297l-6.28516 3.14063m6.28516-3.14063l2 1.42188m-2.91407-.96485l2 1.42188m11.89063-2.42578l-5.60938 4.23437m5.60938-4.23437l2.22656 1.03515m-3.04297-.41797l2.22657 1.03516m11.53906-2.0664l-4.875 5.05859m4.875-5.0586l2.35937.67579m-3.07031.0625l2.35938.67187m11.07421-1.8711l-3.6914 5.98048m3.6914-5.98047l2.44922.16015m10.05078-.52734l-2.0625 6.71875m2.0625-6.71875l2.41016-.46485m-2.71094 1.44141l1.20703-.23047m13.58594-.1211l-4.41406 5.46876"/><g clip-path="url(#Y)"><path fill="none" stroke="#000" stroke-linecap="round" stroke-linejoin="round" stroke-miterlimit="10" stroke-width=".5" d="M465.76953 371.07422l2.40625.46484"/></g><path fill="none" stroke="#000" stroke-linecap="round" stroke-linejoin="round" stroke-miterlimit="10" stroke-width=".5" d="M465.125 371.8711l1.20703.23046"/><g clip-path="url(#Z)"><path fill="none" stroke="#000" stroke-linecap="round" stroke-linejoin="round" stroke-miterlimit="10" stroke-width=".5" d="M144.92188 357.10156l-1.84375 6.78125"/></g><path fill="none" stroke="#000" stroke-linecap="round" stroke-linejoin="round" stroke-miterlimit="10" stroke-width=".5" d="M144.65234 358.08984l1.19532-.27343m13.1328-.41797l-3.33202 6.1875m2.84765-5.28516l1.22657.00781m12.04297-1.14062l-2.27344 6.64844m1.94531-5.6797l1.21094-.1953m14.38281.875l-6.17188 3.35546m6.17188-3.35546l2.04688 1.35156m11.53906-.71094l-6.71485 2.07422m6.71485-2.07422l1.73828 1.73047m11.6875-1.26172l-6.9336 1.13672m6.9336-1.13672l1.48828 1.94922m11.80078-.66797l-6.88281-1.42578m6.88281 1.42578l.6875 2.35547m12.50781-1.92188l-6.64453-2.29296m5.67578 1.95703l.19141 1.21484m13.63672.0039l-5.73438-4.0625m4.90235 3.47266l-.15625 1.21485m13.51172-5.49219l-4.14844 5.67188m3.54297-4.84766l1.21484.17578m12.54297-1.10938l-3.82422 5.89454m3.26953-5.03907l1.22266.10938m11.04687-1.51953l-.62109 7m.53125-5.98047l1.1289-.47656m13.51173-.19532l-3.09375 6.3086m2.64453-5.39063l1.22656-.03906m13.38672-.29688l-4.79297 5.14063m4.79297-5.14063l2.3711.63282m10.85546-.71094l-4.61719 5.29688m3.94532-4.52735l1.1953.27735m13.6211.02343l-6.27734 3.15625m6.27734-3.15625l2.0039 1.41797m11.52345 1.21875l-6.69922-2.11719m5.72656 1.8086l.22266 1.20703m13.17187.55469l-4.91406-5.01954m4.91406 5.01954l-.74219 2.33984m14.23828-2.52734l-5.27343-4.64454m5.27343 4.64454l-.5664 2.38671m14.53515-5.9453l-6.58203 2.46874m6.58203-2.46875l1.83985 1.625m10.95703-2.55078l-5.54297 4.32031m5.54297-4.3203l2.23828 1.0039m-3.04687-.375l1.12109.5m12.63281-1.53125l-4.80469 5.1289m4.8047-5.1289l2.36718.64062m-3.0664.10547l2.36718.64063m11.83203-1.19922l-5.17578 4.7539m5.17578-4.7539l2.3125.8125m-3.0664-.1211l2.3125.81641m11.30468-1.92188l-4.27343 5.57813m4.27343-5.57813l2.42188.40235m11.25-.08594l-4.98828 4.94922"/><g clip-path="url(#aa)"><path fill="none" stroke="#000" stroke-linecap="round" stroke-linejoin="round" stroke-miterlimit="10" stroke-width=".5" d="M466.05469 358.01953l2.34375.72656"/></g><path fill="none" stroke="#000" stroke-linecap="round" stroke-linejoin="round" stroke-miterlimit="10" stroke-width=".5" d="M465.32813 358.73828l1.17187.36328"/><g clip-path="url(#ab)"><path fill="none" stroke="#000" stroke-linecap="round" stroke-linejoin="round" stroke-miterlimit="10" stroke-width=".5" d="M147.01172 345.36719l-6.02344 3.6211"/></g><path fill="none" stroke="#000" stroke-linecap="round" stroke-linejoin="round" stroke-miterlimit="10" stroke-width=".5" d="M146.13672 345.89453l1.05078.63281m12.84766-1.57421l-5.4375 4.44921m4.64453-3.80078l1.13281.47266m12.3789-1.69531l-4.25 5.59765m3.63282-4.78125l1.21094.19531m12.44922-1.19921l-3.70313 5.97265m3.16406-5.10156l1.22266.07813m10.27734-1.44141l1.0039 6.95703m12.03907-6.90625l1.54688 6.85547m-1.32032-5.85547l.9297-.80078m15.875 1.3086l-5.88282 3.83984m5.02734-3.28125l1.07422.59375m12.91016-1.41407l-5.50781 4.36329m14.38671-5.26563l3.35938 6.17188m-2.8711-5.27735l.6797-1.02344m12.10546.15235l3.44531 6.125m-2.9453-5.23438l.66405-1.03515m12.26172.08203l3.22266 6.2461m-2.7539-5.33595l.69921-1.0078m11.07422.95312l5.36719 4.53515m-4.58594-3.875l.25781-1.19922m12.38281.42188l5.15625 4.77344m-4.40625-4.08204l.3125-1.18359m12.26172.48047l5.13672 4.79297m-5.13672-4.79297l.63672-2.3711m13.45703 1.7422l3.57813 6.05077m-3.57813-6.05078l1.28125-2.09375m12.85157 1.7422l1.9414 6.7539m-1.65625-5.76953l.8789-.85547m14.88673.21094l-3.52735 6.07812m3.01563-5.19531l1.22265.04687m14.09766 3.42188l-6.51562-2.6289m5.5703 2.24608l.12892 1.21875m11.30078 1.33594l-.85157-6.97265m.85157 6.97265l-2.01172 1.40625m16.07812-1.58203l-2.35547-6.6211m2.01172 5.65626l-.82422.90625m16.22266-5.21094l-5.83203 3.91797m4.98437-3.34766l1.08204.57813m12.66406-1.65625l-5 4.9336m5-4.9336l2.33984.73047m10.29688-1.26563l-3.64454 6.00781m3.64454-6.0078l2.44921.13671m-2.98046.73438l1.22656.0703m13.65234.01173l-5.70703 4.10156m5.70703-4.10156l2.19922 1.08593m-3.03125-.49218l1.10156.54687m12.95313-1.26172l-5.52735 4.33985"/><g clip-path="url(#ac)"><path fill="none" stroke="#000" stroke-linecap="round" stroke-linejoin="round" stroke-miterlimit="10" stroke-width=".5" d="M466.32422 345.00781l2.2461.99219"/></g><path fill="none" stroke="#000" stroke-linecap="round" stroke-linejoin="round" stroke-miterlimit="10" stroke-width=".5" d="M465.51953 345.64063l1.125.49609"/><g clip-path="url(#ad)"><path fill="none" stroke="#000" stroke-linecap="round" stroke-linejoin="round" stroke-miterlimit="10" stroke-width=".5" d="M147.3125 332.69531l-6.625 2.33594"/></g><path fill="none" stroke="#000" stroke-linecap="round" stroke-linejoin="round" stroke-miterlimit="10" stroke-width=".5" d="M147.3125 332.69531l1.8086 1.65625m11.70312-.67578l-7.01953.3711m6-.31641l.6289 1.05078m13.26953-2.6211l-6.14843 3.40235m19.39844-3.51953l-6.01563 3.64062m16.51563-5.32812l-.38282 7.01562m.32422-5.99609l1.11328-.51563m12.64063-.46484l-1.14453 6.9336m.97656-5.92188l1.16406-.39453m11.89063-.66016l-.28907 7.02344m.2461-6l1.10547-.53125m9.82812.34766l4.5586 5.34375m-3.89454-4.56641l.44922-1.14063m11.39453 1.35547l6.17188 3.35938m-5.27344-2.8711l.01172-1.22656m12.60156.42188l5.78125 3.99219m-4.9414-3.41407l.14453-1.21875m12.22656.79688l5.98828 3.67969m-5.98828-3.6797l.15234-2.44921m13.03516 2.67969l6.2461 3.21875m-6.2461-3.21875l-.03516-2.45313m13.28516 2.57813l6.3711 2.96875m-6.3711-2.96875l-.1289-2.44922m13.43359 2.47265l6.39453 2.92188m-6.39453-2.92188l-.14453-2.44921m13.16406 3.53906l6.98828.74219m-6.98828-.7422L326 331.21876m1.9336 2.38281l-.45704-1.14062m12.8125.67969l6.875 1.4453m-6.875-1.4453l-.6836-2.35547m1.6836 2.5664l-.34375-1.17969m12.69922.78907l6.79297 1.80469m-6.79297-1.8047l-.5586-2.38671m1.54688 2.64844l-.27734-1.19141m12.60547.92578l6.78906 1.8125m-6.78906-1.8125l-.55078-2.39062m15.77734 6.48046l2.96875-6.36718m-2.96875 6.36719l-2.44922.1289m16.42578.10156l1.64453-6.83203m-1.64453 6.83203l-2.375.61329m16.16406-.53125l.69532-6.9922m-.59375 5.97657l-1.13281.46484m17.86718-1.4375l-6.34765-3.01562m5.42578 2.57422l.05469 1.22656m13.89062-4.3086l-5.76172 4.02735m4.92188-3.4414l1.09375.55859m12.67578-1.60156l-4.99219 4.9453m4.99219-4.9453l2.34375.73046m11.27734-.3789l-5.60547 4.23828"/><g clip-path="url(#ae)"><path fill="none" stroke="#000" stroke-linecap="round" stroke-linejoin="round" stroke-miterlimit="10" stroke-width=".5" d="M466.36328 331.74219l2.22656 1.03515"/></g><path fill="none" stroke="#000" stroke-linecap="round" stroke-linejoin="round" stroke-miterlimit="10" stroke-width=".5" d="M465.54688 332.35938l1.11328.51953"/><g clip-path="url(#af)"><path fill="none" stroke="#000" stroke-linecap="round" stroke-linejoin="round" stroke-miterlimit="10" stroke-width=".5" d="M147.36719 319.54297l-6.73438 2.00781"/></g><path fill="none" stroke="#000" stroke-linecap="round" stroke-linejoin="round" stroke-miterlimit="10" stroke-width=".5" d="M147.36719 319.54297l1.72265 1.7461m-2.70312-1.45313l.86328.875m13.32031-1.48828l-6.50781 2.65234m6.50781-2.65234l1.88281 1.5703m10.21485-3.10937l-4.07422 5.72657m3.48047-4.89063l1.21484.15625m11.96485-1.38672l-2.6172 6.51953m2.23829-5.57421l1.21875-.12891m9.65625-.73047l3.02344 6.34375m-2.58594-5.41797l.73047-.98828m13.04297-.22266l1.23047 6.91797m-1.05078-5.91406l.96484-.7539m12.48437-.29298l.60157 7m-.51563-5.98046l1.03125-.66797m11.23047-.125l2.53906 6.55078m-2.17187-5.59766l.80078-.92969m11.1914.53125l4.44922 5.4375m-3.80468-4.64453l.47656-1.1328m12.25781.28515l4.3164 5.54687m-3.6875-4.73828l.5-1.1211m11.82032.64454l5.05078 4.88672m-4.3164-4.17578l.33984-1.1797m12.05078.6836l5.4336 4.45703m-4.64454-3.80859l.24219-1.20313m12.01563.9297l5.96875 3.70312m-5.96875-3.70313l.16015-2.44922m12.9336 2.86329l6.41015 2.875m-5.47656-2.45704l-.08203-1.22265m12.16015 2.45703l7.01563-.42578m-5.99219.36328l-.64062-1.04688m13.07812 1.91407l6.72656-2.03516m-5.75 1.73828l-.86328-.8711m13.10156.75391l6.92579-1.20703m-5.91797 1.03125l-.7539-.96875m13.17968 1.61719l6.6875-2.15234m-6.6875 2.15234l-1.76172-1.71094m15.91406 3.09766l5.01563-4.92578m-4.28516 4.20703l-1.17187-.36719m14.125 1.41016l4.27734-5.57813m-3.65234 4.76563l-1.21094-.19922m13.0586.08594l5.96093-3.72266m-5.96094 3.72266l-2.125-1.23047m17.70313 2.8086l1.4336-6.87892m-1.4336 6.87891l-2.35547.6836m17.98437-.9961l-3.1914-6.25781m2.72656 5.34765l-.70313 1.00782m16.39063-2.96485l-7.00781-.51953m5.98828.44531l.4961 1.1211m13.11718-3.45703l-5.5625 4.29687"/><g clip-path="url(#ag)"><path fill="none" stroke="#000" stroke-linecap="round" stroke-linejoin="round" stroke-miterlimit="10" stroke-width=".5" d="M466.34375 318.39844l2.23438 1.01172"/></g><path fill="#ff3030" fill-rule="evenodd" d="M233.58984 454.33203h7.69532V444.1875h-7.69532v10.14453"/><path fill="azure" fill-rule="evenodd" d="M235.42188 446.01953h.83593v5.73828h3.1914V452.5h-4.02733v-6.48047"/><path fill="#ff3030" fill-rule="evenodd" d="M322.35938 436.57813h7.6914v-10.14454h-7.6914v10.14454"/><path fill="azure" fill-rule="evenodd" d="M324.1914 428.26563h.83204v5.74218h3.19531v.73828h-4.02734v-6.48046"/><path fill="#00f" fill-rule="evenodd" d="M383.80078 436.57813h8.61719v-10.14454h-8.61719v10.14454"/><path fill="azure" fill-rule="evenodd" d="M385.63281 428.26563h.83203v2.82421h3.28907v-2.82421h.83203v6.48046h-.83203v-2.91406h-3.28907v2.91406h-.83203v-6.48046"/><path fill="#ff3030" fill-rule="evenodd" d="M175.89063 396.63281h7.6953v-10.14453h-7.6953v10.14453"/><path fill="azure" fill-rule="evenodd" d="M177.72656 388.32031h.83203v5.74219H181.75v.73828h-4.02344v-6.48047"/><path fill="#00f" fill-rule="evenodd" d="M224.01953 396.63281h8.61719v-10.14453h-8.61719v10.14453"/><path fill="azure" fill-rule="evenodd" d="M225.85156 388.32031h.83594v2.82422h3.28516v-2.82422h.83203v6.48047h-.83203v-2.91406h-3.28516v2.91406h-.83594v-6.48047"/><path fill="#ff3030" fill-rule="evenodd" d="M326.79688 396.63281h7.6914v-10.14453h-7.6914v10.14453"/><path fill="azure" fill-rule="evenodd" d="M328.6289 388.32031h.83204v5.74219h3.19531v.73828h-4.02734v-6.48047"/><path fill="#ffffe0" fill-rule="evenodd" d="M425.32813 414.6211h22.18359v-10.19532h-22.1836v10.19531"/><path fill-rule="evenodd" d="M428.82813 406.26172h.51171v6.29297h-.78906v-4.48828h-1.38672v-.5547l.5586-.0664.2539-.05469.22656-.08984.20313-.14062.17578-.21094.14063-.29297.10546-.39453m4.81641 0l.22656.01953.21875.05469.21094.08984.19531.1211.1836.14843.17187.17578.30078.41797.2422.4961.17968.54296.11328.58204.03906.58984-.03906.59375-.11328.58203-.17969.55469-.24219.5039-.30078.42579-.17187.17968-.1836.15625-.1953.1211-.21095.09375-.21875.05469-.22656.01953-.23047-.01954-.21875-.05468-.20703-.09375-.19922-.1211-.1836-.15625-.17187-.17968-.30078-.42579-.24219-.5039-.17968-.55469-.11328-.58203-.03907-.59375h.83594l.02735.5625.08203.50781.125.4414.16406.375.1914.30079.21094.22266.22266.13671.22656.04688.22656-.04688.22266-.13671.21094-.22266.1875-.30078.16406-.375.125-.4414.08203-.50782.03125-.5625-.03125-.5625-.08203-.5-.125-.4336-.16406-.36718-.1875-.29297-.21094-.21094-.22266-.13281-.22656-.04688-.22656.04688-.22266.13281-.21094.21094-.1914.29297-.16406.36719-.125.43359-.08204.5-.02734.5625h-.83594l.03907-.58984.11328-.58204.17969-.54296.24218-.4961.30078-.41797.17188-.17578.1836-.14844.19921-.12109.20703-.08984.21875-.05469.23047-.01953m5.08985 0h.5078v6.29297h-.78515v-4.48828h-1.39062v-.5547l.5625-.0664.25-.05469.23046-.08984.20313-.14062.17578-.21094.14063-.29297.10546-.39453m2.82422 2.17578h.78516l.01953-.3164.0586-.28907.10156-.25.14062-.21484.17969-.17578.22266-.12891.26562-.08203.3086-.02735.23828.02344.22265.0625.20313.10156.17969.13672.14843.17579.11328.20312.07422.23828.02344.26172-.01953.26953-.0664.22656-.11329.19141-.15234.17188-.20313.16015-.2461.16797-.6328.38672-.53907.3125-.4375.32031-.34375.32422-.26562.33594-.1914.34765-.125.3711-.06641.39453-.02344.41797h4.21484v-.73828h-3.33594l.08594-.28516.11328-.23828.14844-.19922.1875-.1836.23047-.16796.27734-.17578.71875-.41797.41407-.20703.34375-.23047.28125-.25.22265-.26563.16016-.28125.11328-.28125.0625-.28515.01953-.28125-.03906-.38282-.1211-.34765-.1914-.3086-.25-.26562-.30078-.21094-.34766-.16015-.3789-.09766-.40625-.03125-.4336.03125-.39844.09765-.35546.16797-.3047.23438-.25.30469-.18359.375-.11718.4453-.03907.51954"/><path fill="#ffffe0" fill-rule="evenodd" d="M159.76953 340.72656h22.1836v-10.1914h-22.1836v10.1914"/><path fill-rule="evenodd" d="M163.26953 332.36719h.51172v6.29687h-.78906v-4.49219h-1.38672v-.55468l.5586-.0664.2539-.05079.22656-.08984.20313-.14454.17578-.20703.14062-.29687.10547-.39453m4.8164 0l.22657.01953.21875.05469.21094.08984.19531.1211.1836.14843.17187.17578.30078.42188.24219.49219.1836.54687.10937.57813.03906.59375-.03906.58984-.10938.58594-.1836.55468-.24218.5-.30078.4297-.17188.17968-.18359.15234-.19531.125-.21094.08985-.21875.05859-.22656.01953-.23047-.01953-.21875-.0586-.20703-.08984-.19922-.125-.1836-.15234-.17187-.17969-.30078-.42969-.24219-.5-.17969-.55468-.11328-.58594-.03906-.58985h.83594l.02734.5625.08203.50391.125.44531.16406.3711.19141.30078.21094.22265.22266.13672.22656.04688.22656-.04688.22266-.13671.21093-.22266.1875-.30078.16407-.3711.125-.4453.08203-.50392.03125-.5625-.03125-.5625-.08203-.5-.125-.4375-.16407-.36328-.1875-.29296-.21093-.21485-.22266-.13281-.22656-.04297-.22656.04297-.22266.13281-.21094.21485-.1914.29296-.16407.36329-.125.4375-.08203.5-.02734.5625H166l.03906-.59375.11328-.57813.1797-.54688.24218-.49218.30078-.42188.17188-.17578.18359-.14844.19922-.12109.20703-.08984.21875-.0547.23047-.01952m5.08984 0h.50781v6.29687h-.78515v-4.49219h-1.39063v-.55468l.5625-.0664.25-.05079.23047-.08984.20313-.14454.17578-.20703.14062-.29687.10547-.39453m6.80469 1.6211h-.78906l-.05078-.21485-.08204-.1836-.10547-.16015-.1289-.1289-.14844-.10548-.16016-.07422-.16796-.04296-.17188-.01563-.32812.03906-.28907.1211-.24609.1953-.20313.26954-.16015.33594-.11719.40625-.07031.46484-.02344.52735.1914-.20313.1836-.16016.1875-.12109.1836-.08594.1914-.0625.1914-.03515.39845-.02735.30859.03125.32031.09375.3164.15625.29298.21875.2578.28516.19923.34765.07031.20313.05469.21484.02734.23438.0039.2539-.78515.04688-.02734-.26172-.07813-.25-.1211-.23437-.16015-.21094-.19531-.17578-.21875-.13672-.24219-.08985-.2539-.03125-.25391.03125-.24219.08985-.21875.13672-.1914.17578-.16016.21094-.125.23437-.07813.25-.02734.26172.02734.25781.07813.25.125.23438.16016.21094.1914.17578.21875.14062.24219.08594.2539.03125.25391-.03125.24219-.08594.21875-.14062.19531-.17579.16016-.21093.1211-.23438.07812-.25.02734-.25781.78516-.04688-.02735.3711-.09375.3711-.15625.35937-.22265.32812-.29297.28125-.16797.1211-.1914.10156-.20313.08203-.22266.0625-.24219.03516-.26171.01562-.28125-.01562-.26172-.04688-.23828-.07812-.21485-.10547-.19531-.1289-.17188-.15626-.15625-.17969-.1328-.20312-.1172-.22266-.10156-.24219-.14453-.53515-.08594-.59375-.02734-.64063.03906-.74218.11328-.66407.1875-.57812.1211-.2539.13672-.23048.15234-.20703.17188-.1836.18359-.15624.20312-.1289.21875-.10157.23047-.07422.25-.04297.26172-.01562.36328.03515.33594.09375.29297.15235.25781.19922.21094.24218.16406.27344.11719.30078.0625.32422"/></g></defs><use xlink:href="#ah"/></svg>