<svg xmlns="http://www.w3.org/2000/svg" role="img" xmlns:xlink="http://www.w3.org/1999/xlink" viewBox="142.45 309.95 326.84 171.84"><defs><clipPath id="a"><path d="M144 311.67188h1v168.65625h-1zm0 0"/></clipPath><clipPath id="b"><path d="M144 311.67188h324v168.65625H144zm0 0"/></clipPath><clipPath id="c"><path d="M467 311.67188h1v168.65625h-1zm0 0"/></clipPath><clipPath id="d"><path d="M144 479h4v1.32813h-4zm0 0"/></clipPath><clipPath id="e"><path d="M146 480h1v.32813h-1zm0 0"/></clipPath><clipPath id="f"><path d="M153 478h8v2.32813h-8zm0 0"/></clipPath><clipPath id="g"><path d="M159 480h2v.32813h-2zm0 0"/></clipPath><clipPath id="h"><path d="M166 479h9v1.32813h-9zm0 0"/></clipPath><clipPath id="i"><path d="M172 480h2v.32813h-2zm0 0"/></clipPath><clipPath id="j"><path d="M180 479h8v1.32813h-8zm0 0"/></clipPath><clipPath id="k"><path d="M186 480h2v.32813h-2zm0 0"/></clipPath><clipPath id="l"><path d="M193 479h8v1.32813h-8zm0 0"/></clipPath><clipPath id="m"><path d="M199 480h2v.32813h-2zm0 0"/></clipPath><clipPath id="n"><path d="M207 478h7v2.32813h-7zm0 0"/></clipPath><clipPath id="o"><path d="M220 477h7v3.32813h-7zm0 0"/></clipPath><clipPath id="p"><path d="M234 477h6v3.32813h-6zm0 0"/></clipPath><clipPath id="q"><path d="M247 477h7v3.32813h-7zm0 0"/></clipPath><clipPath id="r"><path d="M260 478h8v2.32813h-8zm0 0"/></clipPath><clipPath id="s"><path d="M273 479h8v1.32813h-8zm0 0"/></clipPath><clipPath id="t"><path d="M279 480h2v.32813h-2zm0 0"/></clipPath><clipPath id="u"><path d="M286 479h9v1.32813h-9zm0 0"/></clipPath><clipPath id="v"><path d="M293 480h3v.32813h-3zm0 0"/></clipPath><clipPath id="w"><path d="M300 479h8v1.32813h-8zm0 0"/></clipPath><clipPath id="x"><path d="M307 480h2v.32813h-2zm0 0"/></clipPath><clipPath id="y"><path d="M313 479h8v1.32813h-8zm0 0"/></clipPath><clipPath id="z"><path d="M319 480h1v.32813h-1zm0 0"/></clipPath><clipPath id="A"><path d="M327 478h7v2.32813h-7zm0 0"/></clipPath><clipPath id="B"><path d="M341 477h5v3.32813h-5zm0 0"/></clipPath><clipPath id="C"><path d="M353 478h8v2.32813h-8zm0 0"/></clipPath><clipPath id="D"><path d="M353 480h2v.32813h-2zm0 0"/></clipPath><clipPath id="E"><path d="M366 478h8v2.32813h-8zm0 0"/></clipPath><clipPath id="F"><path d="M366 480h3v.32813h-3zm0 0"/></clipPath><clipPath id="G"><path d="M379 479h9v1.32813h-9zm0 0"/></clipPath><clipPath id="H"><path d="M380 479h2v1.32813h-2zm0 0"/></clipPath><clipPath id="I"><path d="M393 479h8v1.32813h-8zm0 0"/></clipPath><clipPath id="J"><path d="M393 478h2v2.32813h-2zm0 0"/></clipPath><clipPath id="K"><path d="M406 479h9v1.32813h-9zm0 0"/></clipPath><clipPath id="L"><path d="M406 479h3v1.32813h-3zm0 0"/></clipPath><clipPath id="M"><path d="M421 476h5v4.32813h-5zm0 0"/></clipPath><clipPath id="N"><path d="M435 476h4v4.32813h-4zm0 0"/></clipPath><clipPath id="O"><path d="M447 477h6v3.32813h-6zm0 0"/></clipPath><clipPath id="P"><path d="M462 476h3v4.32813h-3zm0 0"/></clipPath><clipPath id="Q"><path d="M144 466h4v2h-4zm0 0"/></clipPath><clipPath id="R"><path d="M144 453h4v2h-4zm0 0"/></clipPath><clipPath id="S"><path d="M144 439h4v3h-4zm0 0"/></clipPath><clipPath id="T"><path d="M144 425h4v4h-4zm0 0"/></clipPath><clipPath id="U"><path d="M144 411h3v6h-3zm0 0"/></clipPath><clipPath id="V"><path d="M144 397h3v6h-3zm0 0"/></clipPath><clipPath id="W"><path d="M144 384h4v6h-4zm0 0"/></clipPath><clipPath id="X"><path d="M465 383h3v2h-3zm0 0"/></clipPath><clipPath id="Y"><path d="M144 371h3v6h-3zm0 0"/></clipPath><clipPath id="Z"><path d="M144 358h4v5h-4zm0 0"/></clipPath><clipPath id="aa"><path d="M465 357h3v2h-3zm0 0"/></clipPath><clipPath id="ab"><path d="M144 346h4v2h-4zm0 0"/></clipPath><clipPath id="ac"><path d="M466 344h2v3h-2zm0 0"/></clipPath><clipPath id="ad"><path d="M144 332h4v4h-4zm0 0"/></clipPath><clipPath id="ae"><path d="M466 332h2v3h-2zm0 0"/></clipPath><clipPath id="af"><path d="M144 318h4v5h-4zm0 0"/></clipPath><g id="ag" clip-path="url(#clip1)"><path fill="#fff" fill-opacity="0" fill-rule="evenodd" d="M0 0h1000v1000H0zm0 0"/><path fill="#d3d3d3" fill-opacity="0" fill-rule="evenodd" d="M162.15234 355.86719l-.23437.29297.0586.23437.11718.17188.17578.23437.29297.34766.11328.0586.11719-.17188.0586-.23438.17577-.17578.46485-.17578h.69922l.23437.29297.28906.8164.0586.17579.17578.23046.35156.23438.69922.69922.17188.17578.23437.34765.23438.41016.28906.58203.41015.46485.23047.23437.23438.17578.11719.23047.17578.29297.17187 1.16406v.23438l.0586.28906.05859.11719.11719.11719.34765.41015.11719.17188.17578.17578.17578.23437.11719.17188.17188.35156.05859.23438.23437.40625.23438-.0586-.17578.17578-.0586.92969h-.58203l-.23437-.11328-.34766.11328-.11719.11719-.05859.29297-.0586.17578-.11718.17187-.46484.29297-.0586.23438-.0586.11328v.64453l.0586.17187v.41016l.0586.0586v.40624l.05859.40625.11719.17579.05859.05859.23047.64062-.0586.29297v.69922l-.05859.58203v.23438l-.0586.23047-.05468.35156v1.92187l.05469.1172h.42578l-.36719.11718-.02344.35156.89063 1.16797 1.74219.53906 1.33984.35938v.53906l.08984.8086.53516.71484 1.51953.26953.89063-.08594.08984 1.16406.53516.1797 1.16015-.1797 2.05469-.98437 1.16016-.36328 1.8789-.17578 1.69531-.1797-.17968.71876-1.51563.08594-1.25.08984-.80469.26953-1.07421.8086.26953.71875.53515.89843-.17968.625-.26563.8086.26563 1.07812.625.89844.80468.17969 1.25-.1797-.26562.72267.09766.5039.05468.29297v.17188l.0586.29296v.40625l.17578.1172.35156.11718h.40625l.29297-.17578.11328-.11719.0586-.11719.11718-.23047.0586-.17578.35156-.46484.23047-.17578.17578-.0586.17578.0586.0586.17578.11718.98828.05469.46875.0586.17188.11718.23437.17578.0586.8164.05859h.28907l.11719.23437.05859.40625.0586.35156v1.10547l.11718.29297.11719.34766.28906.69922.17578.35156.58203.7539.35157.17579.17187.0586.46875.23437.64063.46484.34765.23438.29297.17578.29297.05468.23047.0625.8164.34766.29297.17578.11328.17188.35157.35156.11719.17578.52343.64063v.28906l.0586.35156v.34766l.05859.35156.0586.28906.11718.0586.17188.05859h.17578l.58203.23437.17578.1172.17578.28905.17578.23438.11328.23437.29297.23047.11719.11719v.41016l.0586.05468.28906.23438.23437.11719.0586.11718.11718.17188.0586.11719.23047.23437.05859.17578.23437.0586.1172.05859-.1172.11328-.05859.11719v.11719l-.11719.29296-.11719.28907v.58203l.17579.11719.11718.05859.0586.11719.11719.11719.11328.05859.17578.34765.0586.35157.05858.40625v.17578l-.05859.17578-.11719.69922v.17187l.1172.17579.29296.29296h.40625l.17578.1172.11719.17187.11719.29296v.23438h-.52735l-.23047-.23438h-.23437l-.17578.0586-.0586.69922.0586.34765.11719.17579.17578.41015.11718.23047.28907.46875.17578.05469h.52344l.23437.0586.75781.64062.0586.29296v.23438l.05859.0586.23047.34765v.35156l-.11719.17188v.29297l.29297.28906.29297.17578.17187.0586.29297.17577.29297.1172.58203.40624.28906.23438.29297.17578.21875.16015.01563.01172.23047.17579.64062.52343.17578.23438.1172.17578.17577.17578.11328.17188v.64062l.1172.17578.46874.11719.58203.11719.23438.05859.23047.11328.29297.11719.11328.0586.58593.35156.28907.17187.17578.0625.17578.05469.17578.0586.69922.35155.28906.17579.23438.05468.28906.17578.23437.1172.64063.40624.29297.11719.17187.0586.23438.05859.41015.05859.23047.0586.23438.11718.0586.17188-.41017.17578.46875.0586.0586.29296.11328.23438.17578.05468.23438.0586.17578.05859.40625.11719.64062.23437.11719.17188.0586.23437v.17578l-.0586.1172-.0586.40624.23438.23438.11719.05859.34766.11719.64062.23047.17578.11718.28906.1172.17578.17577.23438.46485.58203 1.10546.17578.17579.34766.17578.17578.11719.35156.11718 1.04688.52344.23437.0586.46485.11327.29297.0586.46484.17578.75781.58203.23438.23438.34765.46484.17578.17578.28907.23438.8164.69921.29297.17579.28906.28906.29297.17578.29297.28906.69531.64063.17578.17578.29297.23437.28907.23438.46875.28906.64062.58203.34766.23438.23437.29297.34766.34765.35156.46485.9336.99218.34765.40625.11719.17579.23437.05859.11328.11719.64454.17578.23047.11328.23437.0586.29297.17577.23047.1172.9336.69921.40624.40625.23438.17578.40625.17578.23437.11719.8164.34766.34766.23437.23438.11719.29297.28906.23047.11719.7578.35156.35157.17188.23047.05859.29297.11719.23437.0586.8711.17577h.8164l.46875.23047.17188.0586.875.69921.46484.1172.29297.05858.17578.0586.23047.0586.46875.05859.34766.05859.35156.0586.40625.05859h.29297l.17187.0586v.23046l.17578.17578h.29297l.34766.0586.35156.05859.69922.11719h.64063l.46484-.23438.29297-.17578.17187-.11719.41016-.17187.28906-.17578.9336-.46485.46875-.29297.52343-.29296.46485-.17188.46484-.17578 1.05078-.46485.28906-.11718.41016-.11719.28906-.11719.52735-.17578 1.51562-.69922.58203-.34765.28907-.0586.29297-.0586.34765-.11718.875-.23047.35156-.11719h.11329l.23437-.05859.875-.23437.23438-.0586h.8125l.35156-.0586.8164-.11718.17188-.0586.35156-.05468.29297-.0586.23047-.05859.8164-.17578.17579-.0586h.34765l.23438-.05859.46484-.11718.75781-.17188.23438-.0586h.34765l.41016-.11718.28906-.0586 1.28516-.05859h.28906l.41016-.0586.23047-.05858h.17578l.875-.1172h.40625l.41015-.11718h.34766l.35156-.11328.8711-.0586h1.75l1.04687.28907.41016.11719.28906.11718.35156.11719.28907.11719 1.05078.17187.28906.0586h.29297l.29297.05859.17187.0586.41016.05859.17187.0586.1172.05858h.11718l.11719.0586.35156.0586h.11328l.41016.0664 1.92187.39453 1.92578.39453 1.51953.44922 1.69532.71875 2.14453.80469 1.60547-.71875 1.42968-.80469 1.16016-1.07813 1.25-.44921 3.03516-.71875 1.875-.35938 2.14453-1.34765 2.23437-1.25391 2.5-1.25781 1.69531-.44922 1.78516-.17969 1.16016-.26953.625.53906 1.33984-.26953.71485-.98828.98437-1.34375.44531-.17969.80469-.35937 1.875-.53907 1.78516-.44921 1.25-.26954 1.16015-.08984 1.69922-.08984 1.96094-.26954 1.25-.08984h.53906l.625-.08984h.89063l2.14453-.17969 2.41015-.17969 2.58985-.08984 1.69531.17969 1.60938.08984 1.42968.35938 1.16016.71875 1.875.98828 1.16015 1.52734.26563.71484.6289.08985.35548.89844.53515.53906.53516 1.52734 1.07422.35938h.53515l-.80469.53515.08985 1.70703.71484 2.69532.89063.80468.89453.98829.71484 1.2578 1.78516.53907 1.51953-.17969.35547 1.34375 1.60937-.80469.98047-.53906.26953.26953.31641-.21484.21875-.14453.80078.44922.44922-.35938h.35547l.53515-.26953.53907-.71875.53515-.26953.625-.98828 1.16016.44922.83984.3711 1.39454.61718 1.6953-.17969h1.60548l1.78515.08985.17969-1.70704.53516-1.34375.80468.26954.4922.84765.40233.40625-.08984.53906v.35938l.71485.44922.71093-.26953h1.42969l.35938.98828.4453 1.25781.71485 1.34375 1.25.6289 1.69531.62891.71485-.17969.17969-.53906.98046-.08984.44922.35937.08594 1.25782-.26563.6289-.53515.17969v.53906l.71484.98438.26563.53906.98437.98828.80078 1.07813-.26562.35937-.08985.89844-.625 2.33203-.35546 2.0664-.08985 1.79298-.17969.71875-.08984.53906v1.4375l-.98047 1.88281-.35937 1.70703-.53516.89844-.80469 1.16797-.26562.53906 2.05469 1.2539.08593.35938-.35546.53906-.08985-.17968v.80859l.08985 1.4375-.44532.71484-1.07422.09375-.26562.71485.53515.89844.8047.71875 1.16015.80859 1.33984.26953.44531.35938-.35546.44921-1.78907-.08984-1.25-.44922-.71484-.71875-.625-.08984-.17578 3.58984-.1875 1.3086h89.35937V311.70313h-55.26953v49.08203l.76172.125 3.28906.54296 2.02344 2.83594v2.7539l2.35156.33204 2.34766.33203h4.05078l-1.3789 4.16016-2.02344.70703-2.02344.70312-.54297.34375-2.59375 1.6172-.1875.11718-2.02344-2.07813-.73046-2.74218-2.67188-2.07813-1.375-3.5-.0664-.08203-1.95704-2.67188 2.75-1.41796v-49.08204H294.42187v91.41407l.1172.03125.1328.01172.07422.07421.10547.04688.08985.0586.08593.05859.08985.0586.29687.29687.0586.08984.03125.11719.02734.11719.01563.13671-.03125.1172-.0586.08983-.0586.08594-.04296.10547-.04688.10156-.02734.1211v.14453l.17578.26953.14844.14844.07422.08594.07422.07421.04296.10547.0625.08985.0586.08593.04297.10547.0586.08985.04687.10156.04296.10547.0586.08594.11719.17968.07421.07422.0625.08594.0586.08984.04297.10547.0586.08985.05858.08593.0625.08985.0586.08984.04297.10156.11719.17969.07421.07422.0586.08594.07422.07421.08984.0586.10547.04687h.14844l.1328-.01562.13282.01562.10156-.04687.07422-.07422.04688-.10156-.01563-.13281v-.14844l-.04687-.10547-.02735-.11719-.04687-.10156-.02735-.1211-.04296-.10156-.0625-.08984-.04297-.10156-.04297-.10547-.03125-.11719-.01563-.13281-.01171-.13672.08593-.0586.0586-.08593.12109-.03125.04297.10547.01562.1328v.1172l.0586.10156.0586.08984.08983.0586.14844.14843.0586.08985.04296.10547-.01171.10156.08593.0586.10547.04687.08594.0586.08984.05858.07422.07422-.11719.02735-.10546.04687-.08594.0586-.07422.07421-.0586.08985-.0625.08594-.02734.12109-.04687.10156-.04297.10547-.03125.11719-.01172.13281-.01563.13281v.14844l.02735.11719.04687.10547.04297.10156.0586.08984.07421.07422.08985.0586.07422.07421.08984.0586.0586.08984.04296.10547.04688.10156.11719.03125.1328.01563h.14845l.11718-.03125.10547.04297.04297.10547.04688.10156.02734.1211L299.5 410l.02734.11719.03125.1211.02735.11718.10547.04297.10156.04687.13281-.01562.14844.14844.0625.08593.07422.07422.07031.07422.08984.0625.10547.04297.10156.04297.1172.03125.13671.01562.11719-.03125.07422-.07422.02734-.11718-.01172-.13282-.03125-.12109-.02734-.11719.04297-.10547h.11719l.08984.0625.11719.02735h.14843l.13282.01562h.14843l.13282.01563.1328-.01563h.14845l.1328-.01562.13282-.01172.13672.01172.11719-.02735.13281-.01562.1914-.0586-.05859.17579-.01562.1328-.02735.1211-.01562.13281-.0586.08594-.1328.01563-.10548.04687-.10546.04297-.1172.03125-.11718.02735-.26563.03125h-.14843l-.13281.01562-.07422.07422.05859.08594.14844.14843.11719.1797.07421.0703.08985.0625.08984.0586.08594.0586.08984.05858.10156.04297.10547.0625.10547.04297.08594.0586.10547.04687.10156.04297.17969.11719.0586.08984-.04298.10156-.04687.10547.01562.13281.22266.22266.0586.08985.04296.10156.03125.1211.04297.10155.01563.13282.03125.11718.01171.13672.03125.11719.14844.14844.10156.04297.10547.04296.1172.03125.1328.01563.13672.01563h.11719l.11719-.03125.08984-.0586.04297-.10547.04688-.10156.04296-.10547.03125-.11719.01172-.1328v-.14845l-.01172-.1328-.01562-.13282-.03125-.11719-.04297-.10547-.04688-.10547-.04296-.10156-.04297-.10547-.01563-.13281.01563-.13281.02734-.11719.03125-.11719.02735-.1211.04687-.10155.08984-.0586.08594-.0625.07422-.07422.08984-.05859.22266-.22266.0586-.08593.07421-.07422.11719-.17969.0586-.08594v-.14844l-.07423-.07421-.10156-.04688-.10547-.04297-.10156-.04297-.0586-.08984-.04687-.10547-.02734-.11719.08984-.05859.11719-.03125.10156-.04297.17969-.11719.14844-.14843.01172-.13282-.01172-.10546-.08985-.0586-.1328.01563h-.14845l-.1328.01562-.13282-.01562-.1211-.03125-.08593-.0586-.07422-.07422-.0586-.08984-.0625-.08594-.11718-.17969-.0586-.08593.03125-.1211.08594-.05859.1211-.03125.05859-.08594v-.1211l-.03125-.11718-.0586-.08984-.05859-.08594-.04687-.10547-.02735-.11719-.01562-.1328.0586-.08985.07421-.07422.08984-.0586.1172-.17968.07421-.07422.0586-.08594.14843-.14844.1211-.03125.1328-.01562.13282.01562.07422.07422.04297.10547.01562.13281-.03125.1172-.11719.03124-.1328.01172-.14844.14844-.04297.10547-.04688.10156-.02734.1211-.03125.11718v.14844l.03125.11719.04297.10546.05859.08985.07422.07031.07422.07422.11719.03125.12109.02734.11719-.02734.1328-.01563h.1172l.08984.0586.07422.07422.04687.10546.0586.08594.10156.04688.13281.01562.10547.04297.08594.0586-.01172.10546-.07422.07422-.17969.11719-.05859.08984-.08984.0586-.07032.07422-.07421.07421-.0625.08985-.02735.11719-.01562.1328.01562.13282-.01562.13281v.14844l.01562.13281.02735.1172.03125.12108.07421.07422.08985.0586.08594.0586.08984.05858.11719.03125v.08594l-.10157.04688-.08984.0586-.26563.03124-.11718.02735h-.14844l-.10547.04296-.10156.04688-.0586.08984-.0625.23438-.01171.13281-.03125.1211-.01563.1328v.29298l-.01172.1328.01172.13673.01563.1328.1328.01563.13282.01172.1211.03125.08593.0586.07422.07421.04688.10547.04296.10157.01563.1328v.44532l-.01563.13281v.44532l.03125.26562.02735.11719.01562.13281.03125.11719.08594.21094.03125.26562v.14844l-.03125.11719-.02734.11718-.03125.1211-.02735.11719-.03125.11718-.03125.1211-.01171.1328-.01563.13282.08984.0586.1172-.03125.10155.01562.04688.10547-.03125.26562v.44141l-.04297.10547-.04688.10547-.04296.10156-.04297.10547-.0586.08594-.03125.12109-.04296.11719-.03125.11719-.01563.1328.01563.13282.05859.08984.10547.04688.08594.0586.05859.08593-.01172.13672-.03125.11719-.04297.10156v.44531l-.01562.13281v.14844l-.03125.11719-.04297.10547-.02735.11719-.04687.10546-.04297.10157-.03125.12109-.02734.11719-.03125.13281-.03125.11719-.02735.11719-.04297.10546-.03125.1172-.03125.12108-.01171.13282-.01563.13281v.29688l.02734.11718v.14844l.04688.39844.02734.11719.0586.08984.12109.03125h.14844l.13281-.01563.0586.08985v.11719l-.0586.08984-.08984.0586-.10157.04296-.10546.04688-.08985.05859-.08594.0586-.13671.01562-.1172-.03125-.1328-.01563-.10157.04688-.0625.08594-.01172.13671-.01562.13282-.03125.11719-.02735.11718-.01562.13281-.03125.1211v.29687l.01563.13282.03125.11718v.14844l.01171.13281v.14844l-.02734.11719-.04688.10156-.02734.1211-.03125.11718-.0586.08985-.07421.07421-.10156.04297-.10547.04688-.11719.02734-.1211.03125-.10156-.04687.0586-.08594.10547-.04688.02734-.11718.03125-.11719.02734-.1211.03125-.11718v-.14844l.01563-.13281-.03125-.11719-.04297-.10547-.10547.01563-.07422.07422-.10156.04296-.08984.0625-.07422.07422-.04297.10157-.01563.1328-.03125.1172L304.25 426l-.03125.11719-.02734.11719-.03125.12109-.02735.11719-.03125.11718-.04297.10547-.08984.0586h-.08984l-.1172-.03125-.03124-.08594.01562-.13672-.03125-.11719v-.14844l-.01171-.1328v-.14844l-.0625-.23438-.02735-.1211-.04297-.10156-.04687-.10546-.0586-.08594-.05859-.08985-.04297-.10546-.0625-.08594-.14844-.14844-.0703-.07422-.10548-.04687-.10547-.04297-.10156-.04297-.29687-.29688-.08985-.07421-.08594-.0586-.10546-.04297-.08985-.0625-.08594-.0586-.10546-.04296-.08985-.0586-.08594-.0625-.07421-.0703-.10547-.04688-.08594-.0586-.10547-.04296-.08984-.0625-.10156-.04297-.10547-.04297-.08594-.0586-.10547-.04687-.10547-.04297-.10156-.04687-.08985-.0586-.10156-.04297-.10547-.04296-.08984-.0625-.11719-.02735-.13281-.01562-.13281.01562H299.75l-.13281.01563-.11719-.03125-.08984-.0586-.07422-.07422-.08985-.05859-.10156-.04688h-.14844l-.12109-.02734-.10156-.04297-.07422-.07422-.11719-.17968-.08984-.0586-.10156-.04297-.08985-.0625-.10547-.04296-.08984-.0586-.08594-.0586-.10547-.04687-.0586-.08594-.05858-.08984-.04297-.10547-.04688-.10156-.07422-.07422-.08594-.0586-.07421-.07421-.08985-.0586-.22265-.22265-.04297-.10547-.03125-.26563.10547-.04296h.14453l.10547.04296.07421.07422.08985.0586.08594.0586.10546.04687.08985.05859.14844.14844.0703.07422.14845.14843.0625.08594.07421.07422.08594.0586.07422.07421.08985.0625.08984.0586.08594.05859.26953.17578.10156.04688.10547.04296.10156.04297.04688-.07421.05859-.08594.07422-.07422.07031-.07422.10547.04297.07422.07422.0586.08984.04296.10156.04688.10547.04296.10547.1211.02735.11719-.02735.07421-.08984.04297-.10547.0586-.08985.07422-.07421.10546-.04297.1172-.02735.1328.01172.08985.0586.14844.14843.05859.08985.04297.10547.04687.10156.04297.10547.04297.10156.10547.04688.10547.04296.13281.01563.08594-.0586.0586-.08984.07421-.07422.10547-.04297.11719.02735.10547.04687.10156.04297.10547.04297.10156.04688.17969.11718v.11719l-.01563.13281.01563.13281.01562.13672.0586.08594.10156.04688.1211.02734.11718.03125h.14844l.11719-.03125.05859-.08984.17969-.1172.05859-.08983.07422-.07422.0586-.08594.11718-.17969.17969-.11719.11719.03125.08984.0586.04297.07422-.01563.1328v.1172l.08985.05859h.14843l.13282-.01563.1328-.01171.26563-.03125.10547-.04297.11719-.03125.1211-.02735.07421-.07421.07031-.07422.0625-.08985-.01562-.10547-.04688-.10156-.10156-.04297-.10547-.01562-.11718.02734-.26563.03125h-.14844l-.07421-.07422-.08985-.0586-.11719-.03124-.11718-.02735-.13282-.01562h-.14843l-.13282.01563h-.29687l-.10547-.04688-.14844-.14844-.04297-.10156-.05859-.08984.22266-.22266.08593-.0586.10547-.04296.11719-.03125.13281-.01563.13281.01563.13672.01562.10157.04297.1328-.01172.08985-.0625.10156-.04297.0625-.08984-.04687-.10156-.08984-.0586-.1172-.03125-.10155-.04296-.0586-.08985-.0625-.08984v-.11719l.01563-.13281.10547-.04688.07421-.07031v-.1211l-.08984-.05859-.03125-.11719.08985-.05859.07421-.07422.04297-.10547.0586-.08984.04687-.10156.01563-.13281v-.14844l-.04688-.10547-.04297-.10156-.08984-.0586-.13281-.01562-.10157-.04297-.13671-.01563-.1172-.03125h-.4453l-.13282-.01562-.13281-.01172-.13281-.01563-.11719-.03125h-.14844l-.13281-.01562-.13281-.01172-.26563-.03125-.1211-.04297-.08593-.0586-.07422-.07421v-.14844l.01172-.13281.10547-.04688.10156-.04296.13281-.01563h.15235l.13281-.01562h.29297l.1211.03125.10156.04296.08984.0586.23438.0625.12109-.04688.08984-.05859.10156-.04297.13282-.01562.10547.04296.10156.04688.13281.01172.1211-.02735h.14453l.12109-.03125.11719-.02734.10547-.04687.07421-.07422.08594-.0586.14844-.14843.0586-.08594.04687-.10547.02734-.11719.01563-.10547-.10156-.04296-.08985-.0586-.11719-.03125-.10546-.04297-.08985-.0625-.07422-.08594-.07422-.07421-.10156-.04297-.10547-.04688-.10156-.04297-.0586-.08984-.04687-.10156-.08594-.21094-.0625-.08594-.05859-.08984-.07422-.07422-.08594-.0586h-.26953l-.11719.03126-.08984.05859-.10156.04297-.13281.01562-.10547-.01562-.02735-.11719-.0625-.08984-.11718-.03125-.10157-.04297-.14843-.14844-.03125-.11719-.01563-.10546.07422-.07422.17969-.1172.11719-.02733.11718-.03125.13672.01562.10156.04297.10547.04297.10156.04687.10547.04297.1172.03125.1328.01563.1172.02734.1328.01563.10547-.01563.08985-.0586-.07422-.07421-.10547-.04297-.07422-.07422-.07422-.08984-.14844-.14844-.08593-.0586-.08985-.05859-.07422-.07422-.08984-.0586-.10156-.04687-.1211-.02734-.10156-.04688-.10547-.04296-.11719-.03125-.10156-.04297-.1211-.03125h-.14843l-.11719.03125-.10546.04297-.08594.0625-.17969.11718-.08594.0586-.08984.0586-.10547.04687-.08594.05859-.10547.04297-.10156.04297-.10547.04687-.07422.07422-.05859.08985-.0586.08593-.04687.10547-.0586.08594-.07421.07422-.13281-.01172-.1172-.03125h-.11718l-.07422.07422-.08984.0586-.07422.07421-.08984.0586-.08594.05859-.10547.04687-.10156.04297-.13672.01563-.10156-.04297-.14844-.14844-.10547-.04688h-.08594l-.10547.04688-.10156.04297-.1211.03125-.11718-.03125-.07422-.07422v-.11719l.03125-.1211.07422-.0703.0586-.08985.07421-.07422.11719-.03125.10547-.04296h.29297l.13281-.01563.13672-.01563.10156-.04296.08985-.0586.10156-.04687.08984-.0586.13281-.01171.08985.05859.13281.01172.08984-.0586.08594-.05859.10547-.04297.08984-.0586.08594-.0625.08985-.05859.14843-.14843.0586-.08594.05859-.08985.10547-.04296.13281-.01563.11719.02735.1211.03125.05859-.0586.05859-.08984.03125-.26563.02734-.11719.10547.01172.13281.01563.10157-.04297.08984-.0586.0586-.08984.07421-.07422.0586-.08984.04687-.10156.01172-.13281-.01172-.13282-.04687-.10547-.14844-.14843-.0586-.08985-.05859-.08594-.04297-.10546v-.44532l.01563-.1328v-.14845l.01172-.1328-.0586-.0586-.08984.0586-.10156-.04298-.17969-.11719-.08594-.05859-.0625-.08984-.0586-.08985-.07421-.07421-.08594-.0586-.1211.03125-.10155.01172-.10547.04688-.08594.05859-.10547.04297-.14844.14844-.08984.05859-.08594.0586-.08984.0625-.10547.04296-.13281.01563v-.1211l.10547-.04297.11718-.03125.07422-.0703.04297-.10548v-.14844l-.02734-.11718-.14844-.14844-.13281-.01563h-.14844l-.11719.03125-.10547.04297-.10156.04297-.08984.0625-.11719.02735-.07422-.07422.01172-.13281-.04297-.10157-.04297-.10547-.08984-.05859-.11719.02734-.1211.03125-.11718.03125-.10156.04297-.1211.03125-.10156.04297-.10547.04297-.08984.0586-.10156.01562v-.11719l.01562-.13281-.0586-.08985-.07421.04297-.14844.14844-.0586.08985-.07421.07421-.04688.10547-.04296.10156-.07422.07422-.0586.08985-.07422.07422-.05859.08593-.07422.07422-.08984.0625-.07422.07031-.07422.07422-.10156.01563-.13281.01562-.10547-.04296v-.1211l.14843-.14844.04297-.10156.0586-.08984.04687-.10156.04297-.10547.0586-.08985.03124-.11719.04297-.10156.03125-.1211.02735-.11718.04687-.10547.04297-.10156.04297-.10547.07422-.07031.08984-.0625.08985-.0586.10156-.04296h.29687l.26563-.03125.10547-.04297-.07422-.07422-.11719-.03125-.10547-.04297-.08984-.0586-.10156-.04687-.08985-.0586-.10156-.04296-.10547-.04297-.08984-.0625-.08594-.0586-.10547-.04296-.10156-.04297-.1211-.03125-.11718-.03125-.10157-.04297L297.5 410.25l-.10156-.04297-.08985-.0586-.04296-.10546-.01563-.13281.10156-.04297.13281-.01563.13672.01563.13282-.01563.10156-.04297.0586-.08984.01562-.10547-.08985-.0586-.07421-.07421-.10157-.04297-.08984-.0586-.14844-.14843-.04297-.10547-.01562-.13281v-.29297l-.0586-.08985-.08984-.05859-.07422-.07422-.04297-.10547-.03125-.11718-.0586-.08985-.07421-.07422-.11719-.02734-.07422-.07422-.08984-.0586-.08984-.0625-.08594-.05859-.07422-.07421-.0586-.08594-.04687-.10547-.08594-.0586-.14843-.14843-.19532-.0586-.1328.01563-.10157.04297-.07422.07422-.04688.10156-.04296.10547-.0586.08984-.0586.08594-.29687.29687-.08984.0586h-.08594l-.0625-.08594-.04297-.10547.03125-.11719.0586-.08984.02734-.11719-.01172-.13281-.08984-.0625-.10547.04688-.11719.02734-.11719.03125-.26953.17578-.10156.04688-.11719.02734-.10546.04687-.08985.0586-.10156.04297-.0586-.08594-.04687-.10547.01563-.13281.04687-.10547.07031-.07422.07422-.07031.0586-.08985v-.14843l-.04297-.10547h-.23829l-.10156.04687-.03125.11719-.02734.11719-.03125.1211-.07422.04296-.13281.01563-.07422-.04688-.04297-.10156-.04297-.10547-.04687-.10156-.04297-.10547-.1211.03125-.10156.04297-.13281.01562-.11719.03125-.10547.04297-.08984.0586-.10156.04687-.1211.02734-.13281.01563-.10156-.04297-.0586-.08985-.04687-.10546-.04297-.10157-.04297-.10546v-.1172l.0586-.08984.08593-.05859.17969-.11719.10156-.04687.10547-.04297.10547-.0586.10156-.04296.08985-.0625.10156-.04297.10547-.0586.10156-.04687.08984-.0586.10547-.04296.10156-.04297.08985-.0625.10156-.04297.13672-.01563.11719.03125.10156.04297.1211.03125.10156.04297.10546.04688.10157.04296.10547.04297.10156.04688.10547.04297.10156.04297.10547.04687.08594.0586.10546.04296.1172.03125.10546.04297.10156.04688.08985.0586.10547.04296.10156.04297.10547.04687.11719.02735.10156.04687.1211.02735h.14843l.08594-.0586.01562-.10156.0586-.08984-.02735-.1172-.07422-.07421-.11719-.17969-.07421-.07422-.08985-.07421-.17969-.1172-.08593-.05859-.10547-.04296-.10156-.04688-.26954-.17578-.05859-.08985-.07422-.07421-.0586-.08985-.04296-.10156-.03125-.11719-.01563-.13672v-.5625l-.01171-.1328-.01563-.13282-.03125-.11719-.01562-.13281-.01172-.13281-.03125-.1211-.22266-.22265-.0586-.08594-.01562-.10547.03125-.11719.13281-.01562v-91.41406H172.9922v1.45312l-.0586.23438-.35156 1.05078-.17187.52343-.1172.34766-.17577.41016-.11719.17187-.23438.29297-.23046.0586h-.35157l-.11718.05859-.23047.40625v.29297l.11719.17578.23046.23047.1172.23437.64062.75781.29297.46485.17578.23437.23047.35156.23437.34766.64063.8164.17578.46485.17187.41016.11719.69531.17578.46875.11719 1.39844.0586.46484v.875l.11718 1.04688v4.78125l-.0586.46484-.35156 1.28125-.17578.52344-.11328.41015-.35156.9297L172.93359 336l-.23437.58203-.11719.17578-.17187.34766-.17578.40625-.35157.8164-.0586.29297-.11327.29297-.11719.28906-.0586.17579-.11718.875-.0586.40625-.05859.11718-.0586.17579-.05859.17187-.23047.52734-.11718.17188v.23437l-.11719.23438-.0586.17187-.17577.58594v.28906l-.0586.17579v.29296l-.0586.11329-.05859.52734v.17187l-.05468.23438v2.6211l-.17578.8164-.1172.17578-.17577.23438-.1172.17187-.11327.23438-.58594.93359-.23047.28906-.29297.46485-.17578.23437-.28906.35156-.35156.69922-.11328.23047-.17579.41016-.17578.23046-.40625.52735-.8164.69922-.29297.17187-.28906.23438-.17579.11719-.17578.17578-.52344.40625-.52734.17578-.17187.17578-.23438.05469-.64062.17578h-.75782m12.21094 31.02344l-1.07422.44921.35938.89454 1.25-.71485.44531-.53906-.98047-.08985"/><path fill="#d3d3d3" fill-opacity="0" fill-rule="evenodd" d="M201.50781 416.59766h-.89453l.44922.6289.98047.35938.80469-.08985.4453-.98828-.17577.08985-.71485-.35547-.89453.35547m154.6211 59.0703l-.0586-.52343v-.29297l.11328-.29297.0586-.23046.46875-.46875h.11328l.11719-.11329.11718-.05859h.17579l.23437-.0586h.34766l.23437.0586.11719.0586.23047.17187.0586.17578.11718.58203v.29297l-.11719.17578-.17187.28906-.17579.17579-.52734.52343-.23047.23438-.11719.0586h-.17578l-.11718-.0586-.40625-.29297-.17579-.11719-.11718-.0586-.0586-.11327-.05468-.1172m6.64062-10.95702l-.0586-.17188v-1.10937l.0586-.17188.17578-.0586.17188-.05858h.17578l.23437-.0586.1172.0586.05858.69921-.05859.17188-.11719.17578-.11718.0586-.23438.52343-.11328.0586h-.23438l-.05859-.1172m9.61328-14.39062l-.11719-.17578v-.69922l.29297-.875.1172-.17187.17577-.35156.11328-.23047.1172-.29297.35155-.75781.1172-.23047.17187-.23438h.17578l.11719-.0586h.64062l.11719.0586.23437.23438.17188.11328.35156.29297.11719.11718.11328.17579v.11328l.11719.05859.11718.11719v.69922l-.05859.17578v.23047l-.0586.17578-.34765 1.05078-.11719.23047-.11719.23437-.11718.0586-.23047.23437-.64063.28906h-.875l-.41015-.11718-.64063-.46485"/><path fill="none" stroke="#bebebe" stroke-linecap="round" stroke-linejoin="round" stroke-miterlimit="10" stroke-width=".5" d="M467.95703 311.69531H144.02734v168.625h323.9297v-168.625"/><g clip-path="url(#a)"><path fill="#fff" fill-opacity="0" fill-rule="evenodd" d="M144 475.89063v4.4375h.0039H144V311.67188h.0039H144v164.21875"/></g><g clip-path="url(#b)"><path fill="#fff" fill-opacity="0" fill-rule="evenodd" d="M144.0039 480.32813V311.67188h102.07813v101.52734l-.61328.55469.61328.49609 1.67188-.4961-1.67188-.55468V311.67187h13.3164v96.08985l-2.16015 1.55469-2.28125 1.98046-2.9336 2.45704 2.9336 1.5078 4.4414 1.51173 3.13282-3.01953-1.29688-4.4375-1.83593-1.5547v-96.08983h26.6289v101.73437l-4.4375.20703-.17187.14063-3.65625 4.4375-.60938.28906-4.4414 1.9375-3.54297 2.21094-.89453.21484-.4375-.21484-4-3.39063-3.67969 3.39063-.75781.64843-4.4414.69141-3.98438 3.10156-.45313.2461-.2461-.2461-4.1914-3.92969-4.4375-.07812-4.4375-.25-.46875-.1836-3.97266-3.45312-4.4375 1.1211-4.4375-1.46485-4.4375 2.04688-1.90234 1.75.3789 4.4414 1.52345 1.73438 4.4375.41406.40625 2.28906-.40625 1.95313-3.71094 2.48437-.72656.53125-3.01954-.53125-1.41797-.2539-4.4414-2.08985-3.40234 2.34375-1.03516.6875-4.4375 1.17188-2.3711 2.57812 2.3711 3.22656 4.4375 1.05079.125.16015-.125.61719-1.50781 3.82422-2.9297 2.92969-4.4375.33984-2.83202 1.16797 2.83203 1.64844 4.4375.2539 4.14844 2.53516.28906.11719 1.28906-.1172 3.14844-.125.58203.125 3.85938 1.31642 4.4375-.2422 4.4375-.04296 4.4375-.3125 3.16796-.71875 1.26953-.40625 4.44141-1.61328 4.4375-2.27735.1836-.14062 4.2539-3.22656 4.4375.14843 1.53125-1.35937-1.53125-1.46485-4.4375.35938-3.07031-3.33594 3.07031-.55078 3.80078-3.88672.63672-2.7539 4.4375 1.48046 4.4414.23047 3.03907-3.39453 1.39844-2.22265 4.4375 1.35937 4.4375-.20703 4.4414-.125 1.125 1.19531-1.125 3.32422-2.11328 1.11328 2.11328 1.13672 1.29297-1.13672 3.14453-.96094 4.4375-.48828 4.4375-2.90625v16.72657l-4.2539.9453-.1836.13673-1.16015 4.30078 1.16015 1.73437 4.4375-.1289 2.82032-1.60547-1.41016-4.4375-1.41016-.94531v-16.72657l.08594-.08203 3.6875-4.4375.66406-.98047 4.44141-.11718 4.4375-1.1172 2.30469-2.22265-2.30469-4.04297-.0625-.39843-4.375-4.03516-1.9336-.40234-2.5078-2.9961-4.4375-1.03125-4.08594-.41015-.35157-.34766V311.67187h26.62891v102.71485l-4.4375 2.94531-.9961.85938.9961.82421 1.125 3.61329 3.3125 3.20312 3.22656-3.20312.70313-4.4375-3.92969-3.8047V311.67189h4.4414v136.4453l-2.35156 1.14454-2.08984.8711-4.4375.875-4.4375 1.86327-1.42969.82813-3.00781 4.19922-.5586.23828.5586.08203 4.4375 1.7539 4.4375-.19921 4.4375-.38672 2.72266-1.25 1.71875-1.99219 1.85937-2.44531 1.24219-4.4375-3.10156-1.14453V311.67188h31.0664v110.1953l-2.8125.76173-1.38672 4.4414 1.83985 4.4375 1.25 4.4375 1.10937 1.11719 4.14453 3.32031.29297.54297 4.4414 2.33985 4.3672-2.88282.0703-.01953 4.4375-1.07422 4.25392-3.34375-4.25391-3.63672-1.42969-.80078-3.00781-3.03515-4.4375-.95313-.89453-.44922-3.54688-3.17578-3.47265-1.26562-.96485-.76172V311.67188h31.07031v116.9375l-3.30859 2.89843-1.13281 4.38281-.05078.0547-.65625 4.4375-3.73047 1.28124-4.4375 3.14453-.02344.01172.02344.1211.29687 4.3203-.29687.42188-4.4375-.21093-1.58203-.21094-2.85547-.41016-4.4414-1.66015-3.61329 2.0703-.82422.39454-4.4375 2.52344-4.4375-1.70703-3.39453 3.22656 3.39453 1.6836 4.4375-1.45313 2.125 4.20703 2.3125 1.21094 4.4375.96093 4.4414.14454 4.4375-2.03125.82423-.28516 3.61328-1.02344.52734 1.02344 1.30469 4.4375 2.60547 3.03125 4.4375-.7461 4.4414-1.92578 3.10547-.35937 1.26172-4.4375.07031-.08985.4961.08985-.46094 4.4375 1.42969 4.4414 2.97265 3.1211 4.4375-2.28516 2.08594-.83594 2.35156-.11328 4.44141-.08984v5.5l-4.4414 1.4336-2.42188 2.14452 2.42188 2.07032 4.4414 1.77734 3.25781-3.84765-3.2578-3.57813v-5.5l4.4375-.38281 4.4375-.53906 4.0039-3.31641.10547-4.4375.32812-.40235 3.34766-4.03515-3.34766-3.26563-4.4375-.8828-1.52344-.28907-2.91406-2.1875-4.4375-1.4961-3.1914-.7578-1.25-1.2422-4.4375-2.73437-.3047-.46094-4.1328-2.70703-.54297-1.73047-3.89454-4.1289-2.59765-.3086-1.83985-2.89844v-116.9375h88.76172v168.65625H144.00391"/></g><path fill="#50fcfc" fill-rule="evenodd" d="M197.26172 455.34766l-2.83203-1.64844 2.83203-1.16797 4.4375-.33984 2.92969-2.9297 1.5078-3.82421.125-.61719-.125-.16015-4.4375-1.05079-2.37108-3.22656 2.37109-2.57812 4.4375-1.17188 1.03516-.6875 3.40234-2.34375 4.4414 2.08985 1.41797.2539 3.01953.53125.72657-.53125 3.71094-2.48437.40625-1.95313-.40625-2.28906-4.4375-.41406-1.52344-1.73438-.3789-4.4414 1.90233-1.75 4.4375-2.04688 4.4375 1.46485 4.4375-1.1211 3.97266 3.45313.46875.18359 4.4375.25 4.4375.07813 4.1914 3.92968.2461.2461.45313-.2461 3.98437-3.10156 4.4414-.6914.75782-.64844 3.67969-3.39063 4 3.39063.4375.21484.89453-.21484 3.54297-2.21094 4.4414-1.9375.60938-.28906 3.65625-4.4375.17187-.14063 4.4375-.20703v1.13281l-4.4375 2.625-.875 1.02735-3.5625 1.67968-3.58593 2.75782-.85547.55859-4.4375 1.26953-3.72656-1.82812-.71094-.60157-.65235.60157-3.78515 3.23437-4.4414.74219-.59376.46484-3.84375 2.10156-2.09375-2.10156-2.34375-2.19922-4.4375-.80859-4.4375-.47266-2.45312-.96093-1.98828-1.72657-2.98047 1.72657-1.45703 1.10937-1.72266-1.10937-2.71484-1.64844-2.46875 1.64844 2.46875 2.18359 1.5625 2.25781.71484 4.4375 2.16016 2.03516v1.75781l-2.53516.64453 2.53516 1.54297v6.23047l-4.4375.09766-4.4375-.04688-4.32813 1.05078-.10938.02735-3.82421 4.41406-.6172 1.57031-1.47655 2.86719 1.47656.80469 4.4414 1.29687 4.4375.39063 4.4375-.3672 4.4375-1.3203 1.1836-.8047 3.2539-1.7578 4.44141-2.21094 4.4375.82812 1.45313-1.29687-1.45313-1.52735-4.4375 1.09375-4.4414-1.875-3.90625-2.1328-.53125-1.10157v-6.23047l.5703-1.54297-.5703-.64453v-1.75781l2.1289 2.40234 2.3086 3.03125 4.4414-.21484v1.03125l-2.875.58984 2.875 3.34375.7461-3.34375-.7461-.58984v-1.03125l2.05078 1.6211 2.38672 3.11718 4.4375-.32031 2.73438-2.79688 1.13672-4.4375.5664-1.49219 3.33594 1.4922 1.10156.55077 4.4414.16407.63673-.71485 3.33593-4.4375.46485-1.42578 1.02734 1.42578 3.41016 2.07813 4.4375-.3789 4.4414-.32813 2.88672 3.0664 1.55078 1.6289 4.4375-.92968 1.05079-.69922 3.38671-1.16015 2.77735-3.27735 1.66015-2.45312 4.44141-.28906 3.34766-1.69532.0625-4.4414-3.41016-3.14454-4.4414-1.05468-.35548-.23828-4.08203-3.32813-4.4375-.32422v-1.13281l.35157.34766 4.08593.41015 4.4375 1.03125 2.50782 2.9961 1.93359.40234 4.375 4.03516.0625.39843 2.30469 4.04297-2.30469 2.22266-4.4375 1.11719-4.4414.11718-.66407.98047-3.6875 4.4375-.08594.08203-4.4375 2.90625-4.4375.48829-3.14453.96093-1.29297 1.13672-2.11328-1.13672 2.11328-1.11328 1.125-3.32422-1.125-1.19531-4.4414.125-4.4375.20703-4.4375-1.35937-1.39844 2.22265-3.03906 3.39453-4.4414-.23046-4.4375-1.48047-.63673 2.7539-3.80078 3.88672-3.07031.55078 3.07031 3.33594 4.4375-.35938 1.53125 1.46485-1.53125 1.35937-4.4375-.14843-4.2539 3.22656-.1836.14062-4.4375 2.27735-4.4414 1.61328-1.26954.40625-3.16797.71875-4.4375.3125-4.4375.04297-4.4375.24219-3.85937-1.31641-.58203-.125-3.14844.125-1.28906.11719-.28906-.1172-4.14844-2.53515-4.4375-.2539"/><path fill="#00e8fc" fill-rule="evenodd" d="M210.57422 454.5039l-1.47656-.80468 1.47656-2.86719.61719-1.57031 3.82422-4.41406.10937-.02735 4.32813-1.05078 4.4375.04688 4.4375-.09766.53125 1.10156 3.90625 2.13281 4.4414 1.875 4.4375-1.09375 1.45313 1.52735-1.45313 1.29687-4.4375-.82812-4.4414 2.21094-3.25391 1.7578-1.1836.8047-4.4375 1.3203-4.4375.3672-4.4375-.39063-4.4414-1.29687m13.3164-29.69141l-2.46875-2.1836 2.46875-1.64843 2.71485 1.64844 1.72266 1.10937 1.45703-1.10937 2.98047-1.72657v2.52344l-4.16407 3.64453.73828 4.4375 3.42578 4.01172.65625.42578 3.78516 1.09766 4.22656 3.33984.21094.27344 4.4375.69922.95313-.97266 1.43359-4.4375 1.1914-4.4375-3.57812-3.59765-1.01562-.83985-3.42188-1.34375-4.4375-.84375-4.4414-1.45703v-2.52344l1.98828 1.72657 2.45312.96093 4.4375.47266 4.4375.8086 2.34375 2.19921 2.09375 2.10156 3.84375-2.10156.59375-.46484 4.4414-.74219v2.91406l-4.4414 2.22657-1.40625.5039 1.40625.51172 4.4414 2.05469 2.125-2.5664-2.125-2.73048v-2.91406l3.78516-3.23437.65235-.60157.71094.60157 3.72656 1.82812 4.4375-1.26953.85547-.5586 3.58593-2.7578 3.5625-1.6797.875-1.02734 4.4375-2.625v1.38281l-2.95703 2.26954-1.48047 2.65234-4.4375 1.34766-.5703.4375-3.8711 2.52343-4.3125 1.91797 4.3125 3.17578 4.4414-1.83984 1.23829 3.10156 3.19921 3.34375 4.4375.03125 4.4375-2.0586 1.1172-1.3164 2.45702-4.4375.86328-.23437 4.44141-.89453 1.80078-3.3125-1.80078-1.66016-4.4414-1.58984-1.78516-1.1875-2.65235-2.16407-4.4375-.10546v-1.38282l4.4375.32422 4.08204 3.32813.35546.23828 4.44141 1.05469 3.41016 3.14453-.0625 4.4414-3.34766 1.69531-4.4414.28907-1.66016 2.45312-2.77735 3.27735-3.38671 1.16015-1.05079.69922-4.4375.92969-1.55078-1.6289-2.88672-3.06641-4.4414.32812-4.4375.3789-3.41016-2.07812-1.02734-1.42578-.46485 1.42578-3.33593 4.4375-.63672.71485-4.4414-.16407-1.10157-.55078-3.33594-1.49219-.5664 1.4922-1.13672 4.4375-2.73438 2.79687-4.4375.32031-2.38672-3.11719-2.05078-1.6211-4.4414.21485-2.3086-3.03125-2.1289-2.40234-2.16016-2.03516-.71484-4.4375-1.5625-2.25781"/><path fill="#fff" fill-opacity="0" fill-rule="evenodd" d="M228.32813 435.30078l-2.53516.64453 2.53516 1.54297.5703-1.54297-.5703-.64453"/><path fill="#00d4fc" fill-rule="evenodd" d="M229.33984 431.50781l-.73828-4.4375 4.16406-3.64453v2l-1.8789 1.64453 1.75781 4.4375.1211.14063 4.4414 2.84375 2.23828 1.45312 2.19922 1.25 4.4375 1.26563.90234-2.51563-.83203-4.4375-.0703-.07031-4.4375-3.74219-.98438-.625-3.45313-.89453-4.4414-.75v-2l4.4414 1.45703 4.4375.84375 3.42188 1.34375 1.01562.83985 3.57813 3.59765-1.19141 4.4375-1.4336 4.4375-.95312.97266-4.4375-.69922-.21094-.27344-4.22656-3.33984-3.78516-1.09766-.65625-.42578-3.42578-4.01172"/><path fill="#00c4fc" fill-rule="evenodd" d="M232.64453 431.50781l-1.75781-4.4375 1.8789-1.64453 4.44141.75 3.45313.89453.98437.625v3.19531l-1.90625.6172 1.90625 1.01952.73047-1.01953-.73047-.61719v-3.1953l4.4375 3.74218.07031.07031.83203 4.4375-.90234 2.51563-4.4375-1.26563-2.19922-1.25-2.23828-1.45312-4.4414-2.84375-.1211-.14063"/><path fill="#fff" fill-opacity="0" fill-rule="evenodd" d="M237.20703 439.79297l-2.875.58984 2.875 3.34375.7461-3.34375-.7461-.58984"/><path fill="#00b8fc" fill-rule="evenodd" d="M241.64453 432.52734l-1.90625-1.01953 1.90625-.61719.73047.6172-.73047 1.01952"/><path fill="#50fcfc" fill-rule="evenodd" d="M246.08203 414.25l-.61328-.4961.61328-.55468 1.67188.55469-1.67188.49609m8.875 1.01172l-2.9336-1.50781 2.9336-2.45704 2.28125-1.98046 2.16016-1.5547 1.83594 1.5547 1.29687 4.4375-3.13281 3.01953-4.4414-1.51172"/><path fill="#00d4fc" fill-rule="evenodd" d="M254.95703 432.01953l-1.40625-.51172 1.40625-.5039 4.4414-2.22657v2.3711l-.64843.35937.64844.33594.27734-.33594-.27734-.35937v-2.3711l2.125 2.73047-2.125 2.5664-4.4414-2.05468"/><path fill="#00c4fc" fill-rule="evenodd" d="M259.39844 431.84375l-.64844-.33594.64844-.35937.27734.35937-.27734.33594"/><path fill="#00d4fc" fill-rule="evenodd" d="M272.71094 430.2461l-4.3125-3.17579 4.3125-1.91797 3.8711-2.52343.5703-.4375 4.4375-1.34766 1.48047-2.65234 2.95703-2.26954 4.4375.10547v1.16407l-4.4375.11328-1.15625.88672.3086 4.4375.84765.41406v3.94531l-.1328.08203.1328.03125v1.70313l-4.4375.16015-.98828 2.54297.98828 1.03125 4.4375 1.03906 3.6797-2.0703-3.6797-2.70313v-1.70313l.11329-.03125-.11329-.08203v-3.94531l4.4375 3.63672 4.4375-1.07031 4.44141-2.625.1914-.35547-.1914-.17579-4.4414-2.125-3.21094-2.13671-1.22657-1v-1.16407l2.65235 2.16407 1.78515 1.1875 4.44141 1.58984 1.80078 1.66016-1.80078 3.3125-4.4414.89453-.86329.23437-2.45703 4.4375-1.11719 1.3164-4.4375 2.0586-4.4375-.03125-3.19921-3.34375-1.23829-3.10156-4.4414 1.83984"/><path fill="#00c4fc" fill-rule="evenodd" d="M281.58984 432.53906l-.98828-1.03125.98828-2.54297 4.4375-.16015v1.69922l-2.28906 1.0039 2.28906.76953 1.3672-.76953-1.3672-1.0039v-1.69922l3.6797 2.70312-3.6797 2.07031-4.4375-1.03906"/><path fill="#00b8fc" fill-rule="evenodd" d="M286.02734 432.27734l-2.28906-.76953 2.28906-1.0039 1.3672 1.0039-1.3672.76953"/><path fill="#50fcfc" fill-rule="evenodd" d="M286.02734 459.8711l-1.16015-1.73438 1.16015-4.30078.1836-.13672 4.2539-.94531 1.41016.9453 1.41016 4.4375-2.82032 1.60548-4.4375.1289"/><path fill="#00c4fc" fill-rule="evenodd" d="M285.17969 422.6289l-.3086-4.4375 1.15625-.88671 4.4375-.11328v1.47265l-2.54296 3.96485 2.54296 2.21093 4.4375-.46093 2.7461-1.75-2.7461-1.35157-4.4375-2.61328v-1.47265l1.22657 1 3.21093 2.13671 4.44141 2.125.1914.17579-.1914.35546-4.4414 2.625-4.4375 1.07032-4.4375-3.63672-.84766-.41406"/><path fill="#00e8fc" fill-rule="evenodd" d="M286.02734 426.98828l-.1328.08203.1328.03125.11329-.03125-.11329-.08203"/><path fill="#00b8fc" fill-rule="evenodd" d="M290.46484 424.83984l-2.54296-2.21093 2.54296-3.96485v3.30469l-.42187.66016.42187.37109 4.4375.15625.82422-.52734-.82422-.40625-4.4375-.25391v-3.30469l4.4375 2.61328 2.7461 1.35157-2.7461 1.75-4.4375.46093"/><path fill="#00a8fc" fill-rule="evenodd" d="M290.46484 423l-.42187-.3711.42187-.66015 4.4375.2539.82422.40626-.82422.52734-4.4375-.15625"/><path fill="#50fcfc" fill-rule="evenodd" d="M299.34375 458.21875l-.5586-.08203.5586-.23828 3.00781-4.19922 1.42969-.82813 4.4375-1.86328 4.4375-.875 2.08984-.8711 2.35157-1.14452 3.10156 1.14453-1.24219 4.4375-1.85937 2.44531-1.71875 1.99219-2.72266 1.25-4.4375.38672-4.4375.19922-4.4375-1.75391m8.875-39.20313l-.9961-.82421.9961-.85938 4.4375-2.94531v.9961l-3.3789 2.80859 2.21484 4.4375 1.16406 1.1289 1.13672-1.1289 1.76172-4.4375-2.89844-2.8086v-.9961l3.92969 3.8047-.70313 4.4375-3.22656 3.20312-3.3125-3.20312-1.125-3.61329"/><path fill="#00e8fc" fill-rule="evenodd" d="M311.49219 422.6289l-2.21485-4.4375 3.37891-2.80859v1.66406l-1.3789 1.14454 1.3789 2.24218 1.1836-2.24218-1.1836-1.14454v-1.66406l2.89844 2.8086-1.76172 4.4375-1.13672 1.1289-1.16406-1.1289"/><path fill="#00d4fc" fill-rule="evenodd" d="M312.65625 420.4336l-1.3789-2.2422 1.3789-1.14452 1.1836 1.14453-1.1836 2.24218"/><path fill="#50fcfc" fill-rule="evenodd" d="M339.28906 455.38281l-3.39453-1.6836 3.39453-3.22655 4.4375 1.70703 4.4375-2.52344.82422-.39453 3.61328-2.07031 4.4414 1.66015 2.85548.41016 1.58203.21094 4.4375.21093.29687-.42187-.29687-4.32031-.02344-.1211.02344-.01172 4.4375-3.14453 3.73047-1.28125.65625-4.4375.05078-.05469 1.13281-4.3828 3.3086-2.89844 1.83984 2.89843 2.59765.3086v1.07812l-4.4375.40625-2.39843 2.64453 2.39844 2.63672v4.82422l-.48438 1.41406.48438.19922v2.11719l-3.5 2.125-.94141.57812-4.4375.48438-2.33594 3.375 1.46485 4.4375.87109 3.41797 4.4375-.00781 4.4414-.12891 3.1797-3.28125 1.2578-1.60938 2.52735-2.82812-2.1289-4.4375-.39844-.73438-4.4375-1.39062v-2.11719l.7539-.19922-.7539-1.41406v-4.82422l1.92968 1.80078 2.50781 2.91406 3.82032-2.91406-.9414-4.4375-2.87892-3.05078v-1.07812l3.89454 4.1289.54296 1.73047v10.70313l-.35156.8828-.19531 4.4375.54688 2.06642 2.125-2.06641-.09766-4.4375-2.02735-.88281v-10.70313l4.13282 2.70703.30469.46094 4.4375 2.73438v4.34375l-1.34766 1.33984-2.40235 4.4375-.6875 2.27734-2.20312 2.16016-2.23438.8789-3.01953 3.5586 3.01954 3.92578 4.4375-.45703 4.4375-.07422 4.4414-.1211 4.4375-.76952 4.4375-1.48047 1.23438-1.02344.42187-4.4375 2.78125-3.41406.85156-1.02344-.85156-.82813-4.4375-2.21875-4.4375-.37109-2.73047-1.01953-1.70703-.86719-4.4414-.47265v-4.34375l1.25 1.24218 3.1914.75781 4.4375 1.4961 2.91406 2.1875 1.52344.28906 4.4375.88281 3.34766 3.26563-3.34766 4.03515-.32812.40235-.10547 4.4375-4.0039 3.3164-4.4375.53907-4.4375.38281-4.44142.08984-2.35156.11329-2.08594.83593-4.4375 2.28516-2.97265-3.1211-1.42969-4.4414.46094-4.4375-.4961-.08985-.0703.08985-1.26173 4.4375-3.10546.35937-4.44141 1.92579-4.4375.74609-2.60547-3.03125-1.30469-4.4375-.52734-1.02344-3.61328 1.02344-.82422.28515-4.4375 2.03125-4.4414-.14453-4.4375-.96093-2.3125-1.21094-2.125-4.20703-4.4375 1.45312"/><path fill="#50fcfc" fill-rule="evenodd" d="M345.80469 431.50781l-1.83985-4.4375 1.38672-4.4414 2.8125-.76172V424.75l-2.05078 2.32031 2.05078 3.27735 1.01172 1.16015 1.0586 4.4375 2.36718 2.1914 4.4375 2.2461h.0039l4.4375-1.44922 4.4375-1.6875 1.65626-1.30078-1.65625-1.41406-4.4375-2.5664-.58985-.45704-3.84765-2.4414-3.96875-1.9961-.47266-.42187-4.4375-1.89844v-2.88281l.96485.76172 3.47265 1.26562 3.54688 3.17578.89453.44922 4.4375.95313 3.00781 3.03515 1.42969.80078 4.2539 3.63672-4.2539 3.34375-4.4375 1.07422-.07031.01953-4.3672 2.88281-4.4414-2.33984-.29297-.54297-4.14453-3.32031-1.10937-1.11719-1.25-4.4375"/><path fill="#00e8fc" fill-rule="evenodd" d="M348.16406 430.34766l-2.05078-3.27735 2.05078-2.32031 4.4375 1.89844.47266.42187 3.96875 1.9961v2.55859l-3.65235 4.32031 3.65235 2.96875 4.4375-2.35547 1.30469-.61328-1.3047-.8164-4.4375-3.50391v-2.5586l3.84767 2.44141.58984.45703 4.4375 2.56641 1.65625 1.41406-1.65625 1.30078-4.4375 1.6875-4.4375 1.44922h-.0039l-4.4375-2.2461-2.3672-2.1914-1.05859-4.4375-1.01172-1.16015"/><path fill="#00d4fc" fill-rule="evenodd" d="M357.04297 438.91406l-3.65235-2.96875 3.65235-4.32031v2.14063l-1.84375 2.17968 1.84375 1.5 2.5664-1.5-2.5664-2.17969V431.625l4.4375 3.5039 1.30469.81641-1.3047.61328-4.4375 2.35547"/><path fill="#00c4fc" fill-rule="evenodd" d="M357.04297 437.44531l-1.84375-1.5 1.84375-2.17969v2.14063l-.03516.03906.03516.02735.04687-.02735-.04687-.03906v-2.14063l2.5664 2.1797-2.5664 1.5"/><path fill="#00b8fc" fill-rule="evenodd" d="M357.04297 435.97266l-.03516-.02735.03516-.03906.04687.03906-.04687.02735"/><path fill="#00e8fc" fill-rule="evenodd" d="M369.48438 458.13672l-1.46485-4.4375 2.33594-3.375 4.4375-.48438.9414-.57812 3.5-2.125v3.63672l-4.4414 2.63672-.44531.28906.4453.71875 1.82032 3.71875 2.6211 1.23828 1.1953-1.23828 3.2422-4.14453.26171-.29297-.26171-.48828-4.4375-2.4375v-3.63672l4.4375 1.39062.39843.73438 2.1289 4.4375-2.52733 2.82812-1.25782 1.60938-3.17969 3.28125-4.4414.1289-4.4375.00782-.8711-3.41797"/><path fill="#00d4fc" fill-rule="evenodd" d="M374.79297 454.41797l-.44531-.71875.4453-.28906 4.44142-2.63672 4.4375 2.4375.26171.48828-.26171.29297-3.2422 4.14453-1.1953 1.23828-2.6211-1.23828-1.82031-3.71875"/><path fill="#00e8fc" fill-rule="evenodd" d="M379.23438 438.58203l-2.39844-2.63672 2.39844-2.64453 4.4375-.40625v1.79688l-3.11329 1.2539 3.11329 2.8789 1.18359-2.8789-1.1836-1.2539v-1.79688l2.87891 3.05078.9414 4.4375-3.8203 2.91406-2.50782-2.91406-1.92969-1.80078"/><path fill="#fff" fill-opacity="0" fill-rule="evenodd" d="M379.23438 443.40625l-.48438 1.41406.48438.19922.7539-.19922-.7539-1.41406"/><path fill="#00d4fc" fill-rule="evenodd" d="M383.67188 438.82422l-3.11329-2.8789 3.11329-1.25391 1.18359 1.2539-1.1836 2.8789"/><path fill="#00e8fc" fill-rule="evenodd" d="M388.10938 466.5l-3.01954-3.92578 3.01954-3.5586 2.23437-.8789 2.20313-2.16016.6875-2.27734 2.40234-4.4375 1.34765-1.33985v3.45704l-1.71093 2.3203-1.14453 4.4375-1.58204 1.89063-4.4375 1.71094-.71093.83594.71094.92578 4.4375.73438 4.4375.17578 4.4414-.17188 4.4375-1.40625.59766-.25781 1.85547-4.4375 1.98437-2.10547 2.00781-2.33203-2.0078-1.20703-4.3672 1.20703-.0703.0625-4.4375.9375-1.40626-1-3.03515-2.32031v-3.45704l4.4414.47266 1.70703.86719 2.73047 1.01953 4.4375.3711 4.4375 2.21874.85156.82813-.85156 1.02344-2.78125 3.41406-.42187 4.4375-1.23438 1.02344-4.4375 1.48046-4.4375.76954-4.4414.12109-4.4375.07422-4.4375.45703"/><path fill="#00d4fc" fill-rule="evenodd" d="M388.10938 463.5l-.71094-.92578.71094-.83594 4.4375-1.71094 1.58203-1.89062 1.14453-4.4375 1.71094-2.32031v4.125l-.53907 2.6328-2.51562 4.4375 3.05469.28126 4.4414-.23047.15235-.05078 2.33593-4.4375-2.48828-.86719-4.4414-1.76562v-4.125l3.03515 2.3203 1.40625 1 4.4375-.9375.07031-.0625 4.3672-1.20702 2.0078 1.20703-2.0078 2.33203-1.98438 2.10547-1.85547 4.4375-.59766.25781-4.4375 1.40625-4.4414.17188-4.4375-.17579-4.4375-.73437"/><path fill="#fff" fill-opacity="0" fill-rule="evenodd" d="M387.75781 449.26172l-.19531 4.4375.54688 2.0664 2.125-2.0664-.09766-4.4375-2.02735-.88281-.35156.8828"/><path fill="#00c4fc" fill-rule="evenodd" d="M396.98438 462.85547l-3.0547-.28125 2.51563-4.4375.53906-2.63281 4.44141 1.76562 2.48828.86719-2.33594 4.4375-.15234.05078-4.4414.23047"/><path fill="#50fcfc" fill-rule="evenodd" d="M396.98438 477.96094l-2.42188-2.07031 2.42188-2.14454 4.4414-1.43359v2.90625l-1.44922.67188 1.44922.71875.60938-.71875-.60938-.67188v-2.90625l3.25781 3.57813-3.2578 3.84765-4.44142-1.77734"/><path fill="#00e8fc" fill-rule="evenodd" d="M401.42578 476.60938l-1.44922-.71875 1.44922-.67188.60938.67188-.60938.71875"/><g clip-path="url(#c)"><path fill="#fff" fill-opacity="0" fill-rule="evenodd" d="M467.9961 480.32813H468V311.67188h-.0039H468v168.65625h-.0039"/></g><path fill="#fff" fill-opacity="0" fill-rule="evenodd" d="M396.73047 449.51172l5.61719 1.60937 2.74218-9.57812-5.61718-1.60547-2.7422 9.57422"/><path fill-rule="evenodd" d="M402.33203 442.66016l.48828.14062-1.73047 6.05469-.7578-.21875 1.23827-4.3164-1.33594-.38282.15235-.53125.55469.08984.2578.01954.2461-.02344.23438-.08203.22656-.15235.21484-.2461.21094-.35155"/><path fill="#fff" fill-opacity="0" fill-rule="evenodd" d="M253.82031 429.98438l5.36328-2.31641-3.94921-9.14453-5.35938 2.3164 3.94531 9.14454"/><path fill-rule="evenodd" d="M253.8125 421.13672l.46875-.20313 2.49219 5.77735-.72266.3125-1.77734-4.1211-1.27735.55079-.21875-.51172.48828-.28125.21094-.14844.17578-.17188.12891-.21093.07813-.26172.01171-.32813-.05859-.40234"/><path fill="#fff" fill-opacity="0" fill-rule="evenodd" d="M244.34766 456.34375l5.5703-1.76953-3.01562-9.49219-5.5703 1.76953 3.01562 9.49219"/><path fill-rule="evenodd" d="M245.22266 447.53906l.48437-.15625 1.90625 6-.75.23828-1.35937-4.27734-1.32032.41797-.16797-.52735.51172-.23046.22266-.12891.1914-.15625.15235-.19531.10156-.2539.04688-.32423-.01953-.40625"/><g clip-path="url(#d)"><path fill="none" stroke="#000" stroke-linecap="round" stroke-linejoin="round" stroke-miterlimit="10" stroke-width=".5" d="M147.375 481.30469l-6.75-1.94922"/></g><g clip-path="url(#e)"><path fill="none" stroke="#000" stroke-linecap="round" stroke-linejoin="round" stroke-miterlimit="10" stroke-width=".5" d="M146.39453 481.01953l.25 1.20313"/></g><g clip-path="url(#f)"><path fill="none" stroke="#000" stroke-linecap="round" stroke-linejoin="round" stroke-miterlimit="10" stroke-width=".5" d="M160.63281 481.48828L154 479.16797"/></g><g clip-path="url(#g)"><path fill="none" stroke="#000" stroke-linecap="round" stroke-linejoin="round" stroke-miterlimit="10" stroke-width=".5" d="M159.66797 481.15234l.1836 1.21094"/></g><g clip-path="url(#h)"><path fill="none" stroke="#000" stroke-linecap="round" stroke-linejoin="round" stroke-miterlimit="10" stroke-width=".5" d="M174.07813 481l-6.89454-1.34375"/></g><g clip-path="url(#i)"><path fill="none" stroke="#000" stroke-linecap="round" stroke-linejoin="round" stroke-miterlimit="10" stroke-width=".5" d="M173.07422 480.80469l.35937 1.17578"/></g><g clip-path="url(#j)"><path fill="none" stroke="#000" stroke-linecap="round" stroke-linejoin="round" stroke-miterlimit="10" stroke-width=".5" d="M187.4336 480.76172l-6.97657-.86719"/></g><g clip-path="url(#k)"><path fill="none" stroke="#000" stroke-linecap="round" stroke-linejoin="round" stroke-miterlimit="10" stroke-width=".5" d="M186.41797 480.63672l.4375 1.14453"/></g><g clip-path="url(#l)"><path fill="none" stroke="#000" stroke-linecap="round" stroke-linejoin="round" stroke-miterlimit="10" stroke-width=".5" d="M200.64844 481.2539l-6.77735-1.85156"/></g><g clip-path="url(#m)"><path fill="none" stroke="#000" stroke-linecap="round" stroke-linejoin="round" stroke-miterlimit="10" stroke-width=".5" d="M199.66406 480.98438l.26953 1.1953"/></g><g clip-path="url(#n)"><path fill="none" stroke="#000" stroke-linecap="round" stroke-linejoin="round" stroke-miterlimit="10" stroke-width=".5" d="M213.64063 482.04297l-6.13282-3.42969"/></g><g clip-path="url(#o)"><path fill="none" stroke="#000" stroke-linecap="round" stroke-linejoin="round" stroke-miterlimit="10" stroke-width=".5" d="M226.59375 482.57422l-5.40625-4.48828"/></g><g clip-path="url(#p)"><path fill="none" stroke="#000" stroke-linecap="round" stroke-linejoin="round" stroke-miterlimit="10" stroke-width=".5" d="M239.71094 482.78906l-5.01172-4.92187"/></g><g clip-path="url(#q)"><path fill="none" stroke="#000" stroke-linecap="round" stroke-linejoin="round" stroke-miterlimit="10" stroke-width=".5" d="M253.13281 482.67969l-5.22265-4.69922"/></g><g clip-path="url(#r)"><path fill="none" stroke="#000" stroke-linecap="round" stroke-linejoin="round" stroke-miterlimit="10" stroke-width=".5" d="M267.0664 481.71094l-6.46093-2.76563"/></g><g clip-path="url(#s)"><path fill="none" stroke="#000" stroke-linecap="round" stroke-linejoin="round" stroke-miterlimit="10" stroke-width=".5" d="M280.5664 481.14453l-6.83202-1.63281"/></g><g clip-path="url(#t)"><path fill="none" stroke="#000" stroke-linecap="round" stroke-linejoin="round" stroke-miterlimit="10" stroke-width=".5" d="M279.57422 480.90625l.3086 1.1875"/></g><g clip-path="url(#u)"><path fill="none" stroke="#000" stroke-linecap="round" stroke-linejoin="round" stroke-miterlimit="10" stroke-width=".5" d="M293.97266 480.54297l-7.01563-.42578"/></g><g clip-path="url(#v)"><path fill="none" stroke="#000" stroke-linecap="round" stroke-linejoin="round" stroke-miterlimit="10" stroke-width=".5" d="M293.97266 480.54297l1.01953 2.23047"/></g><g clip-path="url(#w)"><path fill="none" stroke="#000" stroke-linecap="round" stroke-linejoin="round" stroke-miterlimit="10" stroke-width=".5" d="M307.2539 480.86328l-6.9453-1.0664"/></g><g clip-path="url(#x)"><path fill="none" stroke="#000" stroke-linecap="round" stroke-linejoin="round" stroke-miterlimit="10" stroke-width=".5" d="M307.2539 480.86328l.8086 2.3164"/></g><g clip-path="url(#y)"><path fill="none" stroke="#000" stroke-linecap="round" stroke-linejoin="round" stroke-miterlimit="10" stroke-width=".5" d="M320.47266 481.30078l-6.75391-1.94531"/></g><g clip-path="url(#z)"><path fill="none" stroke="#000" stroke-linecap="round" stroke-linejoin="round" stroke-miterlimit="10" stroke-width=".5" d="M319.48828 481.01953l.2539 1.19922"/></g><g clip-path="url(#A)"><path fill="none" stroke="#000" stroke-linecap="round" stroke-linejoin="round" stroke-miterlimit="10" stroke-width=".5" d="M333.3086 482.3125l-5.79688-3.96875"/></g><g clip-path="url(#B)"><path fill="none" stroke="#000" stroke-linecap="round" stroke-linejoin="round" stroke-miterlimit="10" stroke-width=".5" d="M341.95703 483.36328l3.53516-6.07031"/></g><g clip-path="url(#C)"><path fill="none" stroke="#000" stroke-linecap="round" stroke-linejoin="round" stroke-miterlimit="10" stroke-width=".5" d="M353.71094 481.44922l6.66015-2.24219"/></g><g clip-path="url(#D)"><path fill="none" stroke="#000" stroke-linecap="round" stroke-linejoin="round" stroke-miterlimit="10" stroke-width=".5" d="M354.67969 481.125l-.89063-.84375"/></g><g clip-path="url(#E)"><path fill="none" stroke="#000" stroke-linecap="round" stroke-linejoin="round" stroke-miterlimit="10" stroke-width=".5" d="M367.11328 481.67578l6.48828-2.69531"/></g><g clip-path="url(#F)"><path fill="none" stroke="#000" stroke-linecap="round" stroke-linejoin="round" stroke-miterlimit="10" stroke-width=".5" d="M368.05469 481.28516l-.94531-.78125"/></g><g clip-path="url(#G)"><path fill="none" stroke="#000" stroke-linecap="round" stroke-linejoin="round" stroke-miterlimit="10" stroke-width=".5" d="M380.22266 481.00781l6.89453-1.35937"/></g><g clip-path="url(#H)"><path fill="none" stroke="#000" stroke-linecap="round" stroke-linejoin="round" stroke-miterlimit="10" stroke-width=".5" d="M381.22656 480.8086l-.77344-.94923"/></g><g clip-path="url(#I)"><path fill="none" stroke="#000" stroke-linecap="round" stroke-linejoin="round" stroke-miterlimit="10" stroke-width=".5" d="M393.47656 480.14453l7.01953.3711"/></g><g clip-path="url(#J)"><path fill="none" stroke="#000" stroke-linecap="round" stroke-linejoin="round" stroke-miterlimit="10" stroke-width=".5" d="M394.5 480.19922l-.51953-1.11328"/></g><g clip-path="url(#K)"><path fill="none" stroke="#000" stroke-linecap="round" stroke-linejoin="round" stroke-miterlimit="10" stroke-width=".5" d="M406.79297 480.52734l7.01562-.39843"/></g><g clip-path="url(#L)"><path fill="none" stroke="#000" stroke-linecap="round" stroke-linejoin="round" stroke-miterlimit="10" stroke-width=".5" d="M407.8125 480.46875l-.63281-1.04688"/></g><g clip-path="url(#M)"><path fill="none" stroke="#000" stroke-linecap="round" stroke-linejoin="round" stroke-miterlimit="10" stroke-width=".5" d="M422.23828 483.5586l2.75781-6.46094"/></g><g clip-path="url(#N)"><path fill="none" stroke="#000" stroke-linecap="round" stroke-linejoin="round" stroke-miterlimit="10" stroke-width=".5" d="M435.83203 483.66406l2.19922-6.67187"/></g><g clip-path="url(#O)"><path fill="none" stroke="#000" stroke-linecap="round" stroke-linejoin="round" stroke-miterlimit="10" stroke-width=".5" d="M447.78906 482.83984l4.91406-5.02343"/></g><g clip-path="url(#P)"><path fill="none" stroke="#000" stroke-linecap="round" stroke-linejoin="round" stroke-miterlimit="10" stroke-width=".5" d="M464.69531 483.65234l-2.26953-6.64843"/></g><g clip-path="url(#Q)"><path fill="none" stroke="#000" stroke-linecap="round" stroke-linejoin="round" stroke-miterlimit="10" stroke-width=".5" d="M147.51172 466.89063l-7.02344.24609"/></g><path fill="none" stroke="#000" stroke-linecap="round" stroke-linejoin="round" stroke-miterlimit="10" stroke-width=".5" d="M146.48828 466.92578l.61328 1.0625m13.70703-.60937l-6.98828-.73047m20.32031.26172l-7.02343.20703m20.07031 1.2539l-6.48438-2.71484m5.53907 2.32031l.11328 1.21875m14.21875-1.00781l-6.625-2.34766m5.66016 2.00391l.17968 1.21484m14.08985-.85156l-6.60938-2.38672m5.64844 2.03907l.17187 1.21484m14.08203-.80078l-6.5625-2.51953m5.60547 2.15234l.14844 1.21875m14.28906-1.42578l-6.89453-1.3711m5.89063 1.17188l.35547 1.17188m14-1.20704l-6.96875-.90234m5.95703.76953l.42969 1.14844m13.74609-.35547l-6.66406-2.22266m5.6953 1.89844l.20313 1.21094m13.94141-.53125l-6.38672-2.92969m5.45703 2.5l.07422 1.22656m14.13281-.72265l-6.3125-3.08203m5.39454 2.6328l.04296 1.22657m14.28125-.97266l-6.49218-2.6914m5.54687 2.30078l.11719 1.22266m14.20703-1.00391l-6.6211-2.34766m5.66016 2.00782l.17969 1.21093m13.30078.41016l-5.03125-4.91016m4.30078 4.19532l-.34375 1.17578m13.58203.15234l-3.41406-6.13672m2.91797 5.2461l-.66797 1.02734m9.54688-1.8086l6.44922-2.79296m-5.51172 2.38672l-.95703-.76563m13.48437 1.47266l6.15234-3.39453m-5.2578 2.90234l-1.02735-.67188m13.19531.59766L387 465.88281m-6.65625 2.26172l-1.78516-1.6836m14.91407.48438l7.02734.13672m-7.02734-.13672l-1.10938-2.1914m14.44531 2.65234l6.98438-.78516m-6.98438.78516l-1.3828-2.02734m14.68359 1.42187l7.01562.42578m-5.9961-.36328l-.5078-1.11719m13.4414 3.29688l5.73828-4.0586m-4.90234 3.46875l-1.09766-.55078m12.9336-.95312l7.02343.1289m-6.0039-.10937l-.5547-1.09375m12.8672 1.51562l6.98828-.7539m-5.96875.64453l-.6914-1.01563"/><g clip-path="url(#R)"><path fill="none" stroke="#000" stroke-linecap="round" stroke-linejoin="round" stroke-miterlimit="10" stroke-width=".5" d="M147.5039 453.45703l-7.0078.48438"/></g><path fill="none" stroke="#000" stroke-linecap="round" stroke-linejoin="round" stroke-miterlimit="10" stroke-width=".5" d="M146.48438 453.52734l.64843 1.04297m13.46094.39453l-6.5586-2.53125m5.60548 2.16016l.14453 1.21875m10.96484 1.39844l-.23828-7.02344m.20312 6l-1.0625.61328m12.52344-.0664l3.53906-6.07032m-3.02343 5.1875l-1.22657-.05078m13.33985.41016l4.91015-5.02735m-4.1953 4.29688l-1.17579-.34375m14.16016 1.39844l4.14453-5.67578m-3.54297 4.85156l-1.21484-.17188m16.10546 1.67188l-.21093-7.02344m.17968 6l-1.0625.60938m17.8125-2.92579l-7.01953-.34375m6 .29297l.51953 1.10938m13.80078-1.57813l-6.99218.69532M253 453.45313l.67969 1.01953m13.66797-.75782l-7.02735-.03515m6.00782.03125l.5703 1.08594m13.26173.71484l-6.01953-3.625m5.14453 3.09766l-.06641 1.22265m14.13672-.50781l-5.77735-4m4.9336 3.41797l-.14063 1.21875m14.82422-1.80078l-6.82812-1.67188m5.83203 1.42578l.30469 1.1914m13.8164-.38671l-6.44922-2.78906m5.51172 2.38281l.09766 1.22266m13.59765.07812l-5.33203-4.57812m4.5547 3.91015l-.26954 1.19922m10.3164.41016l2.75391-6.46485M342.75 455.9922l-1.22266.10547m12-2.44532l7.02735.09375m-6.0039-.08203l-.5625-1.08984m13.73046-1.19922l5.27344 4.64453m-4.5039-3.96875l.28124-1.1914m11.41797 3.28906l6.96875-.90235m-5.95703.77344l-.70703-1m13 1.03125l6.98828-.70703m-6.98828.70703l-1.36719-2.03906m14.66406 1.8086l7.02344-.2461m-7.02344.2461l-1.22656-2.125m14.57422 2.5l6.95703-.9922m-5.94531.84766l-.72266-.99219m13.25 1.95704l6.51172-2.63672m-5.5664 2.2539l-.9375-.78906m13.19921-1.15625l6.73047 2.01953m-5.7539-1.72265l-.23829-1.20313m17.3711 5.125l-2.85938-6.41797"/><g clip-path="url(#S)"><path fill="none" stroke="#000" stroke-linecap="round" stroke-linejoin="round" stroke-miterlimit="10" stroke-width=".5" d="M147.34766 439.3164l-6.69532 2.13282"/></g><path fill="none" stroke="#000" stroke-linecap="round" stroke-linejoin="round" stroke-miterlimit="10" stroke-width=".5" d="M147.34766 439.3164l1.7539 1.71485m11.67969-1.21875l-6.9336 1.14453m5.92579-.98047l.74219.97657m12.71484 1.79296l-5.19922-4.72656m4.4414 4.03906l-.30077 1.1875m13.83593-.01562l-4.125-5.6914m3.52344 4.86327l-.53906 1.10157m11.94531.36328l.89453-6.96875m-.76562 5.95703l-1.14844.4336m14.05469.53124l1.45312-6.875m-1.23828 5.875l-1.17969.33985m15.26172.72656l-.50781-7.00781m.4336 5.98828l-1.03907.65234m16.39063-.41015l-4.4336-5.45313m3.78906 4.66016l-.47656 1.1289m15.66406-2.35937l-6.88672-1.40625m5.88282 1.20312l.34765 1.17578m13.44141-3.64062l-5.82813 3.92969m4.98047-3.35938l1.08203.57813m11.1875.8164l-.01953-.19922-.05859-.1914L278 439.8164l-.45703-.37891-.1914-.0586-.19923-.01952-.19922.01953-.1953.05859-.45704.3789-.09375.17579-.0586.1914-.01952.19922.01953.19922.0586.1914.09374.1797.45703.375.19532.05859.19921.01953.19922-.01953.1914-.0586.45704-.375.09375-.17968.0586-.1914.01953-.19923m15.17968 2.0039l-5.77343-4.0039m19.71484 1.89453l-7.02344.21094m6-.17969l.60938 1.06641m13.69922-.51172l-6.96094-.96094m5.94531.82032l.42188 1.15234m13.1953.67188l-5.53905-4.32422m4.73437 3.6953l-.21094 1.20704m13.61328.11328l-4.10156-5.70703m11.92969 2.11328l6.8711 1.48047m-5.8711-1.26562l-.33594-1.1797m12.84766.34766l6.48047 2.71485m-5.53907-2.32031l-.11328-1.22266m12.42578.97656l6.60157 2.41406m-6.60157-2.41406l-.33984-2.42969m13.7461 5.07032l6.41796-2.8672m-6.41797 2.8672l-1.93359-1.50782m2.86719 1.08985l-.96875-.7539m13.11328.42187l6.89062-1.3672m-5.88671 1.16798l-.77735-.94922m13.54297 2.3086l5.98438-3.6836m-5.11329 3.14844l-1.05859-.6211m14.16797 1.94532l4.65234-5.26563m-3.97656 4.5l-1.1914-.28516m13.78906-4.17578l4.73437 5.1914m-4.04687-4.4375l.41406-1.15624m14.03516 6.46875l1.09375-6.9414m-.9336 5.92968l-1.16015.40234"/><g clip-path="url(#T)"><path fill="none" stroke="#000" stroke-linecap="round" stroke-linejoin="round" stroke-miterlimit="10" stroke-width=".5" d="M147.08594 425.39063l-6.17188 3.35546"/></g><path fill="none" stroke="#000" stroke-linecap="round" stroke-linejoin="round" stroke-miterlimit="10" stroke-width=".5" d="M147.08594 425.39063l2.04687 1.35156m-2.94531-.86328l1.02344.67578m13-1.47266l-5.79297 3.97266m5.79297-3.97266l2.17578 1.13281m11.73828.5l-6.99219.70704m5.97656-.60157l.6797 1.01953m13.33984.71094l-6.3672-2.96484m5.44142 2.53515l.0664 1.22266m14.4336-1.57422l-6.88672-1.40234m5.88672 1.19531l.34765 1.17969m14.03906-1.63281l-7.02734-.08204m6.0039.07032l.5625 1.08984m13.66798-.25781l-6.8125-1.72266m18.3125 3.9961l-3.1797-6.26954m13.80079 6.47266l2.20312-6.67578m-1.8828 5.70312l-1.20704.20704m11.91016-3.48047l6.78906 1.8164m11.40625-4.08984l-2.97266 6.36328m2.54297-5.4375l1.22266-.0625m11.8789-1.09375l-1.68359 6.82422m10.66797-3l6.97656-.82031m-5.96094.69922l-.69921-1.00782m17.28125-2.70703l-1.58594 6.84766m1.35156-5.85156l1.1875-.31641m14.20703.42578l-5.28125 4.63672m4.51172-3.96094l1.14844.4336m12.75781-1.29688l-4.92187 5.01172m4.20703-4.28516l1.17578.35157m13.26172-.59766l-5.73828 4.05078m12.80468-2.99219l6.75782 1.9336m6.43359-1.21485l7.00781.4961m-7.00781-.4961l-1-2.23828m2.01953 2.3125l-.5-1.1211m15.04297-1.98437l2.51172 6.5625m-2.51172-6.5625l1.60937-1.85156m13.63282 1.6836l-1.33985 6.89843m1.14453-5.89844l1.17188-.35546m13.72266-.04688l-4.11329 5.69922m4.11329-5.69922l2.43359.33594m-3.03125.4961l1.21484.16405m12.16797-1.3125l-3.05078 6.33204m3.05078-6.33204l2.45313-.09765m7.47656.28125l3.71875 5.96484m-3.71875-5.96484l1.23047-2.1211m17.15625 3.67579l-6.42188 2.85546"/><g clip-path="url(#U)"><path fill="none" stroke="#000" stroke-linecap="round" stroke-linejoin="round" stroke-miterlimit="10" stroke-width=".5" d="M146.70313 411.50781L141.29688 416"/></g><path fill="none" stroke="#000" stroke-linecap="round" stroke-linejoin="round" stroke-miterlimit="10" stroke-width=".5" d="M146.70313 411.50781l2.26953.9336m-3.0547-.28125l1.13282.46875m12.45703-1.6211L155.1211 416.5m4.38672-5.49219l2.41406.45313m10.3125-.83594l-3.20703 6.2539m2.73828-5.34374l1.22657-.01563m14.125.72266l-6.34375 3.02344m5.42187-2.58594l.98438.73047m13.53906-.26953l-6.91797 1.22656m5.91406-1.04688l.75391.96485m11.6289-3.69922l-3.04687 6.33203m14.33203.3125l1.01563-6.95313m13.21094 6.96485l-.8086-6.98047m.6914 5.96484l-1.0078.69922m13.95703.33985l.15625-7.02344m-.13282 6l-1.09375.55469m15.9922.12109l-3.0586-6.32813m2.61328 5.40625l-.72266.98828m16.45313-2.88671l-6.9961-.6875m20.23047-.47266l-6.83593 1.63281m5.84375-1.39453l.80859.91797m13.58984-.17969l-7.01953-.32031m6 .27344l.52735 1.10937m13.3125-3.02734l-6.02735 3.60937m5.15235-3.08593l1.05078.6328m10.18359-2.86327l-.11328 7.02343m.09766-6.0039l1.08984-.5586m15.67187 3.45313l-6.98046-.80469m5.96484.6875l.44922 1.14063m13.625-.05078l-6.46485-2.75m5.52344 2.34765l.10938 1.22266m12.66797.84766l-3.50782-6.08985m2.9961 5.20703l-.64844 1.03907m11.42187-6.46485l2.59766 6.53125M382.75 411.4375l.79297-.9336m12.64062-.17187l1.60547 6.84375m-1.3711-5.84765l.92188-.8086m12.06641-.16406l1.78906 6.79687m-1.78906-6.79687l1.80078-1.66406m15.125 2.83203l-5.42969 4.46094m5.4297-4.46094l2.26562.94531m9.1328-2.13672l-1.60155 6.84375m1.60156-6.84375l2.375-.6289m12.125 1.15234l-3.96875 5.79687m3.96875-5.79687l2.4375.26953m9.0586-.88281l-.33204 7.01953m.28516-5.9961l1.10937-.52343"/><g clip-path="url(#V)"><path fill="none" stroke="#000" stroke-linecap="round" stroke-linejoin="round" stroke-miterlimit="10" stroke-width=".5" d="M146.73047 398.22656l-5.46094 4.42578"/></g><path fill="none" stroke="#000" stroke-linecap="round" stroke-linejoin="round" stroke-miterlimit="10" stroke-width=".5" d="M146.73047 398.22656l2.25781.95703m-3.05469-.3125l1.13282.47657m12.8203-1.3047l-5.14452 4.78907m5.14453-4.78906l2.32031.80078m-3.07031-.10156l1.16016.39844m12.875-1.125l-5.08594 4.84765m5.08594-4.84765l2.33203.77343m11.95312 1.72656l-7.02344-.15234m6.00391.1289l.55078 1.09766m13.64063-.14453l-6.73438-2.01172m6.73438 2.01172l.48047 2.40235m7.55078-.46485l3.82812-5.89062m13.46094.09765l-4.11719 5.69532m3.51953-4.8672l1.21485.16798m13.66797.07031l-6.0586 3.5625m5.17578-3.04297l1.04688.64063m12.79687 2.89843l-5.35156-4.55468m4.57422 3.89062l-.26172 1.19922m15.04297-1.78906l-6.72656-2.04297m5.74609 1.7461l.23828 1.20312m14.07422-2.89063l-6.76172 1.92188m5.77735-1.64063l.85156.88281m13.19922-1.79296l-6.26563 3.18359m5.35547-2.72266l1.0039.70704m11.95704-2.55079l-3.73828 5.94922m3.1953-5.08594l1.22267.08985m14.16406 1.11719l-6.79297 1.80859m5.80469-1.54688l.83593.89844m12.45313-2.83984l-4.76563 5.16406m4.07422-4.41015l1.1875.30859m13.85156 2.33984l-6.83203-1.64062m6.83204 1.64062l.61718 2.3789m7.3711-.25l3.82421-5.89843m-3.26562 5.03906l-1.22266-.10546m15.6836 1.52343l.41406-7.01562m-.41406 7.01562l-2.23047 1.02344m17.02734-7.80469l-2.54687 6.55078m12.04297-.85546l5.08984-4.84375m10.3711-1.06641l.79687 6.98047m-.67969-5.96485l1.01172-.6953m14.46484.20312l-3.76171 5.93359m3.76171-5.9336l2.44922.1836m-2.9961.67969l1.22267.09375m10.95312-1.5l-.38672 7.01562m.38672-7.01562l2.22656-1.03125m13.52344 2.20703l-5.25781 4.66406m4.49219-3.98437l1.14843.42578m11.39453-2.11328l-2.18359 6.67968m2.1836-6.67968l2.41796-.42188"/><g clip-path="url(#W)"><path fill="none" stroke="#000" stroke-linecap="round" stroke-linejoin="round" stroke-miterlimit="10" stroke-width=".5" d="M146.89844 385.14063l-5.79688 3.96484"/></g><path fill="none" stroke="#000" stroke-linecap="round" stroke-linejoin="round" stroke-miterlimit="10" stroke-width=".5" d="M146.89844 385.14063l2.17578 1.13671m11.29297-.89062l-6.10547 3.47265m6.10547-3.47265l2.07422 1.3125m-2.96094-.8086l1.03516.65625m12.94921-1.5l-5.66797 4.15235m5.66797-4.15235l2.21094 1.06641m-3.03516-.46094l2.20704 1.06641m11.42578-2.22656l-4.65625 5.26172m3.97656-4.4961l1.19531.28516m7.46875 3.40234l6.00781-3.64453m-5.13671 3.11328l-1.05078-.625m19.52343 1.11719l-6.05469-3.5664m6.0547 3.5664l-.10548 2.45313m13.50782-5.86329l-6.22657 3.25391m6.22657-3.2539l2.02343 1.39062m10.91016-1.97266l-5.46094 4.42188m5.46094-4.42188l2.25781.95703m11.61719.01954l-6.58203 2.46484m6.58203-2.46485l1.83594 1.62891m11.69922-.3086l-7.02344-.17577m6 .14843l.55078 1.09766m13.48047-2.60156l-6.40625 2.88672m5.47265-2.46485l.96875.75m13.17579-1.38281l-6.19922 3.3086m6.19922-3.3086l2.03515 1.3711m10.52344-2.33204l-4.6875 5.23438m4.6875-5.23438l2.38281.58594m10.96094-.5586l-4.7461 5.1797m4.7461-5.1797l2.375.61329m10.95313-.60547l-4.77344 5.16015m4.07812-4.41015l1.1875.3125m12.6875-1.17969l-4.5 5.39844m12.27735-1.46094l6.57421-2.48047m-5.61718 2.1211l-.92188-.8086m20.05469-.5039l-6.97266.86328m6.97266-.86328l1.41016 2.01171m11.27343-3.625l-5.71484 4.08985m5.71484-4.08985l2.19922 1.09375m-3.03125-.5l1.10156.54688m12.67579-1.57813L394.5 389.60938m4.97266-4.96875l2.34375.71485m-3.07032.00781l1.17579.35547m12.77343-1.16406l-4.78906 5.14062m4.78906-5.14062l2.3711.63281M412 385.30078l1.1836.3164m12.19921-1.53124l-3.53515 6.07422m3.53515-6.07422l2.45313.09375m-2.96485.78906l1.22266.04688m11.22656-1.38282l-.78125 6.98047m.78125-6.98047l2.28125-.90625m-2.39453 1.92188l1.14063-.45313m12.69921-.49219l-1.60156 6.83985m1.60156-6.83985l2.3711-.6289m-2.60547 1.625l1.1875-.3164m13.46484-.21485l-3.80468 5.91015"/><g clip-path="url(#X)"><path fill="none" stroke="#000" stroke-linecap="round" stroke-linejoin="round" stroke-miterlimit="10" stroke-width=".5" d="M465.46484 384.16797l2.44532.20703"/></g><path fill="none" stroke="#000" stroke-linecap="round" stroke-linejoin="round" stroke-miterlimit="10" stroke-width=".5" d="M464.91016 385.02734l1.22265.10157"/><g clip-path="url(#Y)"><path fill="none" stroke="#000" stroke-linecap="round" stroke-linejoin="round" stroke-miterlimit="10" stroke-width=".5" d="M146.74219 371.60938l-5.48438 4.39843"/></g><path fill="none" stroke="#000" stroke-linecap="round" stroke-linejoin="round" stroke-miterlimit="10" stroke-width=".5" d="M145.9414 372.25l1.12891.48438m13.42578-.41407l-6.36328 2.97656m6.36328-2.97656l1.96485 1.47266m10.66015-2.46094l-4.98047 4.95313m4.98047-4.95313l2.34375.72266m-3.0703-.0039l1.17577.36327m12.98828-.95312l-5.22656 4.69531m5.22656-4.69531l2.3047.84375m10.49608-1.3125l-4.19921 5.63281m4.19922-5.63281l2.42578.36719m-3.03516.44921l1.21094.1875m13.22656-.53906l-5.22266 4.70313m5.22266-4.70313l2.30469.83985m10.92187-.9336l-5.04687 4.89063m4.3125-4.1797l1.16797.37892m13.86328 1.08984l-7.00781.53125m7.0078-.53125l1.3086 2.07422m11.91797-2.63281l-6.83203 1.64843m5.83594-1.41015l.8164.91796m13.42969-1.3828l-6.70313 2.10156m5.72657-1.79688l.875.85938m13.3789-1.28516l-6.625 2.34375m5.66016-2.0039l.90234.83202m12.82813-2.16796l-5.53125 4.33593m4.72656-3.70703l1.1211.5m13.0703-1.03125l-5.67577 4.14063m5.67578-4.14063l2.21093 1.07031m10.51563-1.69921l-4.4961 5.39843m4.4961-5.39844l2.40234.5m11.71485.45704l-6.10157 3.48437m5.21485-2.97656l1.03906.65625m9.78906-2.92188l.64844 7m13.08984-7.01171l-.19921 7.02343m.19921-7.02344l2.19922-1.08984m14.45703 3.89453l-6.8828 1.41406m6.8828-1.41406l1.56641 1.88672m11.78516-1.67578l-6.95703.99219m5.9453-.84766l.72266.99219m12.46875-3.26172l-4.68359 5.23828m4.6836-5.23828l2.3828.58594m-3.0625.17969l1.19141.29296m12.75782-1.09765l-4.58985 5.32031m4.58985-5.32031l2.39062.54297m-3.0586.23046l2.39063.54297m11.8789-1.03906l-5.16405 4.76563m5.16406-4.76563l2.3164.8125m-3.0664-.11719l2.3125.8086m11.0625-2.08203l-3.78516 5.92187m3.78516-5.92187l2.44531.19921m-2.9961.66407l2.44532.19531m11.67578-.8789l-4.29297 5.5625m4.29297-5.5625l2.41797.41015m-3.04297.39844l1.20703.20703m11.4414-1.64063l-1.71093 6.8125m1.71094-6.8125l2.38281-.58984m-2.63281 1.57813l1.1914-.29297"/><g clip-path="url(#Z)"><path fill="none" stroke="#000" stroke-linecap="round" stroke-linejoin="round" stroke-miterlimit="10" stroke-width=".5" d="M147.10938 358.85547l-6.21875 3.27344"/></g><path fill="none" stroke="#000" stroke-linecap="round" stroke-linejoin="round" stroke-miterlimit="10" stroke-width=".5" d="M146.20313 359.33203l1.01562.6914m13.36328-.82421l-6.53516 2.58594m5.58594-2.20704l.9336.79297m12.73828-2.15625l-5.35156 4.5547m5.35156-4.5547l2.28125.90625m10.7461-1.20703l-4.77345 5.16016m4.77344-5.16016l2.3711.625m10.92187-.64453l-4.72656 5.19922m4.72656-5.19922l2.375.60156m9.76172-1.30859l-2.3711 6.61328m2.02735-5.65234l1.21094-.17578m12.67968-.69532l-2.83593 6.4297m2.42578-5.4922l1.22265-.08984m12.5-.84766l-2.83203 6.4336m2.83203-6.4336l2.44532-.18359m11.01953.2539l-3.1289 6.29298m2.67187-5.37891l1.22656-.03125m10.89062-1.25l.1797 7.02344m-.1797-7.02344l2.13282-1.20703m12.3203 1.36719l-2.09765 6.70703m2.09766-6.70704l2.41406-.45312m9.72266.29297l.25781 7.02344m-.25781-7.02344l2.125-1.23047m13.13672 1.73438L301.96484 363.5m3.63282-6.01563l2.44921.13672m9.94922-.52343l-1.80078 6.79296m1.80078-6.79296l2.39063-.5586m9.71484.45313l.6211 7m-.53125-5.98047l1.02734-.66797m11.54297-.23047l1.92969 6.75781m-1.9297-6.7578l1.76563-1.70313m9.14844 6.09375l6.73047-2.01954m7.4375-1.4453l5.02734 4.91015m-4.29687-4.19531l.34375-1.1797m16.40234-.18358l-3.29687 6.20703m3.29687-6.20704l2.45313-.0039m12.16015 1.19531l-5.89453 3.82422m5.89453-3.82422l2.14453 1.1875m11.125-1.25781l-5.80468 3.96484m5.80468-3.96484l2.17188 1.14062m-3.01563-.5625l1.08594.56641m12.84766-1.4375l-5.35547 4.55078m5.35547-4.55078l2.28125.90234m-3.0586-.24218l1.14063.45312m12.61328-1.46094l-4.67578 5.2461m4.67578-5.2461l2.38281.58204m-3.0625.17968l2.38282.58203m11.8203-1.14062l-5.09374 4.83984m5.09375-4.83984l2.32812.77734m-3.0664-.07422l2.32422.77735m11.43359-1.75781l-4.5 5.39453"/><g clip-path="url(#aa)"><path fill="none" stroke="#000" stroke-linecap="round" stroke-linejoin="round" stroke-miterlimit="10" stroke-width=".5" d="M465.8125 357.79688l2.40234.5"/></g><path fill="none" stroke="#000" stroke-linecap="round" stroke-linejoin="round" stroke-miterlimit="10" stroke-width=".5" d="M465.15625 358.58203l1.20313.25"/><g clip-path="url(#ab)"><path fill="none" stroke="#000" stroke-linecap="round" stroke-linejoin="round" stroke-miterlimit="10" stroke-width=".5" d="M147.51172 347.17969h-7.02344"/></g><path fill="none" stroke="#000" stroke-linecap="round" stroke-linejoin="round" stroke-miterlimit="10" stroke-width=".5" d="M146.49219 347.17969l.57422 1.08203m13.73828-.67578l-6.98047-.8164m5.96484.69921l.44531 1.14063m13.82422-2.20704l-6.85547 1.55079m6.85547-1.55079l1.60157 1.85938m11-3.3125l-5.4297 4.45703m5.4297-4.45703l2.26562.94531m10.55469-1.4414l-4.4375 5.44921m3.78906-4.65625l1.20703.23829m12.1289-1.4375l-3.1875 6.26171m2.72657-5.35156l1.22656-.01953m12.56641-.88281l-3.21875 6.2461m2.75-5.33595l1.22656-.01562M238.70703 344l-3 6.35547m2.5625-5.42969l1.22656-.0586m12.17578-1.0078L249.3711 350.5m1.96485-5.67578l1.21094-.1914m11.54687-.95704l-.51563 7.00781m.44141-5.98828l1.1211-.4961m10.29296-.08593l3.4336 6.1289m-2.9336-5.23827l.66407-1.03125m12.71093-.11329l2.3125 6.63672m-2.3125-6.63671l1.66797-1.80079m10.6914 2.3125l4.22266 5.6172m-4.22265-5.6172l1.04297-2.22265m12.92578 1.83594l2.92187 6.39062m-2.92187-6.39063l1.48828-1.94921m11.72656 1.99609l3.1211 6.29297m-3.1211-6.29297l1.42578-1.9961m11.44922 2.25391l3.9961 5.77735m-3.9961-5.77735l1.1289-2.17969m14.46095 1.56641l-.55079 7.0039m.55079-7.0039l2.25-.98047m10.26171 1.00781l1.0586 6.94922m-.90625-5.9375l.98437-.73046m10.44922.5039l4.51563 5.38281m-3.85938-4.60156l.46094-1.13672m13.41797-.3125l2.07422 6.71485m-1.77344-5.73829l.86719-.86718m16.33593 1.69531l-6.30468 3.10547m6.30468-3.10547l1.9922 1.4336m11.28515-1.50782l-6.22656 3.2539m6.22656-3.2539l2.02344 1.38672m11.19921-1.55469l-6.04296 3.58985m6.04296-3.58985l2.09766 1.27344m10.88672-1.73438l-5.38281 4.51172m5.38281-4.51171l2.27734.91796m-3.05859-.26171l1.13672.46093m13.01172-1.05469l-5.48828 4.38672"/><g clip-path="url(#ac)"><path fill="none" stroke="#000" stroke-linecap="round" stroke-linejoin="round" stroke-miterlimit="10" stroke-width=".5" d="M466.30469 344.98438l2.2539.97265"/></g><path fill="none" stroke="#000" stroke-linecap="round" stroke-linejoin="round" stroke-miterlimit="10" stroke-width=".5" d="M465.50781 345.6211l1.125.48827"/><g clip-path="url(#ad)"><path fill="none" stroke="#000" stroke-linecap="round" stroke-linejoin="round" stroke-miterlimit="10" stroke-width=".5" d="M147.24219 332.51172l-6.48438 2.70312"/></g><path fill="none" stroke="#000" stroke-linecap="round" stroke-linejoin="round" stroke-miterlimit="10" stroke-width=".5" d="M146.30078 332.90234l.94531.77735m13.27344-1.25781l-6.41016 2.8828m5.47657-2.46484l.96875.75391m13.57422-.07031l-6.9961.67969m6.9961-.6797l1.35547 2.04298m9.92187-4.89844l-2.92188 6.39062m2.4961-5.46093l1.22656-.07422m14.41406 3.36328l-6.72265-2.04688m5.7461 1.75l.23437 1.20313m13.93359-3.29688l-6.47266 2.73438m5.53125-2.33594l.94922.77344m12.78125-2.03906l-5.42187 4.46875m4.63281-3.82032l1.13281.46875m9.35938-2.27734l1.80469 6.78906m-1.54297-5.80078l.89843-.83594m9.55078 3.4922l7.00782-.5m6.3164.60546l6.9922-.71094m-5.97657.60547l-.67969-1.01953m13.21484-.53906l6.51954 2.61719m-5.57032-2.23438l-.1328-1.22266m12.36718 1.23438l6.78516 1.82812m-5.80079-1.5625l-.27343-1.1953m12.62109.86718l6.75 1.95312m-5.76953-1.66796l-.25-1.20313m12.5586 1.00781l6.80077 1.77344m-6.80078-1.77344l-.5664-2.38672m14.24218 1.50782l6.07813 3.52734m-6.07813-3.52734l.09375-2.44922m13.29688 2.32812l5.92578 3.77344m-5.0625-3.22656l.09766-1.22266m11.86328 1.92969l6.91015 1.26562m-5.90625-1.08203l-.37109-1.16797m13.03125-.02343l6.21484 3.27734m-6.21484-3.27734l-.01172-2.45313m.91406 2.9336l-.0039-1.23047m12.01562 2.18359l7.01563.41406m-7.01563-.41406l-1.02344-2.23047m2.04297 2.29297l-.51171-1.11719m14.25 4.10547l4.1289-5.6875m-4.1289 5.6875l-2.4297-.33984m15.85548-5.42578l3.90625 5.84375m-3.33594-4.9922l.57812-1.08202m17.63282 3.09765l-7.02735.10938m7.02735-.10938l1.1875 2.14454m12.04296-2.85547l-6.85546 1.52734m6.85546-1.52734l1.59766 1.86718m11.36328-2.80468l-6.14453 3.40625m6.14453-3.40625l2.0586 1.33593m11.51953-.73437l-6.67188 2.20312"/><g clip-path="url(#ae)"><path fill="none" stroke="#000" stroke-linecap="round" stroke-linejoin="round" stroke-miterlimit="10" stroke-width=".5" d="M466.89844 332.76172l1.77344 1.69531"/></g><path fill="none" stroke="#000" stroke-linecap="round" stroke-linejoin="round" stroke-miterlimit="10" stroke-width=".5" d="M465.92578 333.08203l.88672.84766"/><g clip-path="url(#af)"><path fill="none" stroke="#000" stroke-linecap="round" stroke-linejoin="round" stroke-miterlimit="10" stroke-width=".5" d="M147.23828 319.1836l-6.47656 2.73046"/></g><path fill="none" stroke="#000" stroke-linecap="round" stroke-linejoin="round" stroke-miterlimit="10" stroke-width=".5" d="M147.23828 319.1836l1.90234 1.54687m11.44141-1.47656l-6.53125 2.58984m6.53125-2.58984l1.86719 1.58984m11.5586-1.26172l-6.75391 1.9336m6.7539-1.9336l1.70313 1.76563m10.53515-3.45704l-4.60156 5.3125m4.60156-5.3125l2.39063.55079m10.76172-.6836l-4.27344 5.57813m4.27344-5.57813l2.41797.40235m10.5703-.6211l-3.625 6.01953m3.09767-5.14453l1.22656.0664m10.57812-1.4375l.45313 7.01173m-.45313-7.01172L225.75 315.75m9.91797 1.63672l3.07422 6.32031m-2.625-5.39844l.72265-.99218m11.45703.51171l4.44532 5.44141m-3.79688-4.65234l.47656-1.1289m11.34766 1.34374l6.13281 3.4336m-5.24218-2.9336l.02734-1.22656m12.19531 1.14844l6.53516 2.58984m-6.53516-2.58984l-.26953-2.4375m13.46875 2.78515l6.76953 1.89063m-6.76953-1.89063l-.52734-2.39453m13.8086 2.51953l6.83202 1.64453m-6.83203-1.64453l-.60937-2.3789m13.94921 2.29296l6.78516 1.81641m-6.78516-1.8164l-.55468-2.39063m13.82422 2.5664l6.875 1.46485m-6.875-1.46484l-.67188-2.35938m13.9961 2.33203l6.85937 1.51563m-6.85938-1.51563l-.66015-2.36328m13.91797 2.6875l6.97265.8711m-6.97265-.8711l-.875-2.29297m1.89062 2.41797l-.4375-1.14453m12.72656 1.125l6.9961.66016m-6.9961-.66016l-.9453-2.26563m1.96093 2.36329l-.47266-1.13282m16.14844 4.875l.23828-7.02343m-.20312 6.0039l-1.10157.53906m13.36329.29297l2.27734-6.64843m-2.27734 6.64843l-2.42188.39063m14.88672-.82031l3.98047-5.78907m-3.98047 5.78907l-2.4414-.27735m16.3203.59375l2.85157-6.42187m-2.4375 5.48828l-1.22266.08594m12.25-1.15625l6.59766-2.41407m-5.63672 2.0625l-.91406-.8164m17.71875 3.28125l-2.30078-6.64063m1.96484 5.67578l-.83594.89844m16.78125-2.5586l-6.89062-1.38671m6.89062 1.38672l.69922 2.35156"/><path fill="#ff3030" fill-rule="evenodd" d="M295.72656 472.08594h7.69531V461.9414h-7.6953v10.14453"/><path fill="azure" fill-rule="evenodd" d="M297.5586 463.77344h.83593v5.73828h3.1914v.74219h-4.02734v-6.48047"/><path fill="#00f" fill-rule="evenodd" d="M388.23828 467.64844h8.61719V457.5039h-8.61719v10.14453"/><path fill="azure" fill-rule="evenodd" d="M390.07031 459.33594h.83594v2.82422h3.28516v-2.82422h.83203v6.48047h-.83203v-2.91797h-3.28516v2.91797h-.83594v-6.48047"/><path fill="#00f" fill-rule="evenodd" d="M206.26563 454.33203h8.61718V444.1875h-8.61719v10.14453"/><path fill="azure" fill-rule="evenodd" d="M208.09766 446.01953h.83593v2.82422h3.28516v-2.82422h.83203V452.5h-.83203v-2.91406h-3.28516V452.5h-.83593v-6.48047"/><path fill="#00f" fill-rule="evenodd" d="M383.80078 436.57813h8.61719v-10.14454h-8.61719v10.14454"/><path fill="azure" fill-rule="evenodd" d="M385.63281 428.26563h.83203v2.82421h3.28907v-2.82421h.83203v6.48046h-.83203v-2.91406h-3.28907v2.91406h-.83203v-6.48046"/><path fill="#ff3030" fill-rule="evenodd" d="M455.50781 414.38672h7.6914v-10.14453h-7.6914v10.14453"/><path fill="azure" fill-rule="evenodd" d="M457.33984 406.07422h.83594v5.74219h3.1914v.73828h-4.02734v-6.48047"/><path fill="#ff3030" fill-rule="evenodd" d="M344.55078 405.51172h7.6914v-10.14453h-7.6914v10.14453"/><path fill="azure" fill-rule="evenodd" d="M346.38281 397.19922h.83203v5.73828h3.19532v.74219h-4.02735v-6.48047"/><path fill="#00f" fill-rule="evenodd" d="M370.48438 401.07422h8.62109v-10.14844h-8.6211v10.14844"/><path fill="azure" fill-rule="evenodd" d="M372.3164 392.76172h.83594v2.82031h3.28516v-2.82031h.83203v6.47656h-.83203v-2.91406h-3.28516v2.91406h-.83593v-6.47656"/><path fill="#ff3030" fill-rule="evenodd" d="M189.20703 378.88281h7.6914v-10.14844h-7.6914v10.14844"/><path fill="azure" fill-rule="evenodd" d="M191.03906 370.5664h.83594v5.7422h3.1914v.73827h-4.02734v-6.48046"/><path fill="#ffffe0" fill-rule="evenodd" d="M341.74219 344.375h22.1836v-10.19531h-22.1836V344.375"/><path fill-rule="evenodd" d="M345.24219 336.01563h.51172v6.29296h-.78907v-4.48828h-1.38671v-.55469l.55859-.0664.2539-.05469.22657-.08984.20312-.14063.17578-.21094.14063-.29296.10547-.39454m4.8164 0l.22657.01954.21875.05468.21093.08985.19532.1211.18359.14843.17188.17578.30078.41797.24218.4961.1797.54687.11327.57812.03906.58985-.03906.59375-.11328.58593-.17969.55079-.24218.5039-.30079.42578-.17187.17969-.1836.15625-.1953.1211-.21094.09374-.21875.0547-.22657.01952-.23046-.01953-.21875-.05469-.20704-.09375-.19921-.12109-.1836-.15625-.17187-.17969-.30079-.42578-.24218-.5039-.17969-.55079-.11328-.58593-.03906-.59375h.83593l.02735.5625.08203.5078.125.44142.16406.375.1914.30078.21094.22265.22266.13672.22656.04688.22657-.04688.22265-.13672.21094-.22265.1875-.30079.16406-.375.125-.4414.08203-.50781.03125-.5625-.03125-.5625-.08203-.5-.125-.4336-.16406-.36719-.1875-.29296-.21094-.21094-.22265-.13281-.22657-.04688-.22656.04688-.22265.1328-.21094.21095-.1914.29296-.16407.3672-.125.43359-.08203.5-.02735.5625h-.83593l.03906-.58985.11328-.57812.17969-.54688.24219-.4961.30078-.41796.17187-.17578.1836-.14844.19921-.1211.20704-.08984.21875-.05468.23046-.01954m5.08985 0h.50781v6.29297h-.78516v-4.48828h-1.39062v-.55469l.5625-.0664.25-.05469.23047-.08984.20312-.14063.17578-.21094.14063-.29296.10547-.39454m2.82422 2.17579h.78515l.01953-.31641.0586-.28906.10156-.25.14063-.21485.17968-.17578.22266-.1289.26562-.08204.3086-.02734.23828.02344.22265.0625.20313.10156.17969.13672.14844.17578.11328.20313.07421.23828.02344.26562-.01953.26563-.0664.22656-.10938.1914-.15625.17188-.20313.16016-.24609.16797-.63281.38671-.53906.31641-.4375.3164-.34375.32423-.26563.33593-.1914.35157-.125.36718-.06641.39454-.02344.41796h4.21485v-.73828h-3.33594l.08594-.28515.11328-.23829.14843-.19921.1875-.1797.23047-.17187.27735-.17578.71875-.41797.41406-.20703.34375-.23047.28125-.25.22265-.26562.16016-.28125.11328-.28125.0625-.28516.01953-.28125-.03906-.38281-.1211-.34766-.1914-.30859-.25-.26172-.30078-.21484-.34766-.15625-.3789-.10156-.40625-.03125-.4336.03125-.39843.09765-.35547.16797-.30469.23438-.25.30468-.1836.375-.11718.44531-.03906.51954"/><path fill="#ffffe0" fill-rule="evenodd" d="M190.83984 355.35547h22.1797v-10.1914h-22.1797v10.1914"/><path fill-rule="evenodd" d="M194.33984 346.9961h.50782v6.29296h-.78516v-4.48828h-1.39063v-.55469l.5625-.0664.25-.05469.23047-.08984.20313-.14063.17578-.21094.14063-.29296.10546-.39454m4.8125 0l.23047.01954.21875.05468.20703.08985.19532.12109.1875.14844.16797.17578.30468.41797.24219.4961.17969.54687.11328.57812.03516.58985-.03516.59375-.11328.58593-.17969.55469-.24219.5-.30469.42969-.16796.17969-.1875.15234-.19532.1211-.20703.09374-.21875.0586-.23047.01953-.23047-.01953-.21875-.0586-.20703-.09375-.1953-.1211-.1836-.15233-.17188-.1797-.30078-.42968-.2461-.5-.17968-.55469-.10938-.58594-.03906-.59375h.83203l.03125.5625.08203.50782.125.4414.16016.375.1914.30079.21095.22265.22265.13672.22656.04688.22657-.04688.22265-.13672.21094-.22265.1914-.30079.16016-.375.1289-.4414.08204-.50781.02734-.5625-.02734-.5586-.08203-.5039-.1289-.4336-.16016-.36719-.19141-.28906-.21094-.21484-.22265-.13281-.22657-.04297-.22656.04296-.22266.13282-.21093.21484-.1914.28906-.16017.3672-.125.43358-.08203.50391-.03125.5586h-.83203l.03906-.58985.10938-.57812.17969-.54688.2461-.4961.30077-.41796.17188-.17578.1836-.14844.1953-.1211.20703-.08984.21875-.05469.23047-.01953m5.09375 0h.50782v6.29297h-.78907v-4.48828h-1.38672v-.55469l.5586-.0664.2539-.05469.23047-.08984.20313-.14063.17187-.21094.14063-.29296.10937-.39454m2.82032 2.17579h.78906l.01953-.31641.0586-.28516.09765-.2539.14063-.21485.18359-.17578.22266-.1289.26562-.07813.3086-.02734.23437.01953.22656.0625.20313.10156.17968.14063.14844.17187.11328.20703.07031.23438.02735.26562-.02344.26563-.0664.22656-.10938.1914L210 349.75l-.19922.16016-.2461.16796-.63671.39063-.53516.3125-.4375.3164-.34765.32423-.26563.33593-.1875.35156-.125.3672-.07031.39452-.01953.41797h4.21094v-.73828h-3.33204l.08203-.28515.11329-.23829.14843-.19921.1875-.1797.23047-.17187.28125-.17578.71485-.41797.41406-.20312.34766-.23047.28125-.2539.21875-.26563.16406-.27735.10937-.28515.0664-.28516.01954-.28125-.04297-.38281-.1211-.34766-.1875-.3086-.25-.26171-.30468-.21484-.34375-.15625-.3789-.09766-.40626-.03516-.4375.03125-.39843.10157-.35547.16406-.30469.23437-.2461.3047-.1875.375-.11327.4453-.04297.51954"/><path fill="#ffffe0" fill-rule="evenodd" d="M226.34766 411.59766h22.17968v-10.19141h-22.17968v10.1914"/><path fill-rule="evenodd" d="M229.84766 403.23828h.5078v6.29297h-.78905v-4.48828h-1.38672v-.55469l.5586-.0664.2539-.0547.23047-.08984.20312-.14062.17188-.21094.14453-.29297.10547-.39453m4.8125 0l.23047.01953.21875.05469.20703.08984.1953.1211.1836.14844.17188.17578.30078.41796.2461.4961.17968.54687.10938.57813.03906.58984-.03906.59375-.10938.58594-.17969.55078-.2461.5039-.30077.4297-.17188.17968-.1836.15235-.1953.12109-.20703.09375-.21875.05469-.23047.02344-.23047-.02344-.21875-.05469-.20703-.09375-.19532-.1211-.1875-.15234-.16797-.17969-.30468-.42968-.24219-.5039-.17969-.55079-.11328-.58594-.03516-.59375h.83204l.02734.5625.08203.50781.1289.44141.16016.375.19141.30078.21094.22266.22265.13672.22657.04687.22656-.04687.22266-.13672.21093-.22266.1914-.30078.16017-.375.1289-.4414.07813-.50782.03125-.5625-.03125-.5586-.07813-.5039-.1289-.4336-.16016-.36718-.1914-.28906-.21095-.21485-.22265-.1328-.22656-.04298-.22657.04297-.22265.13281-.21094.21485-.1914.28906-.16016.36719-.1289.4336-.08204.5039-.02734.5586h-.83203l.03515-.58985.11328-.57813.17969-.54687.24219-.4961.30469-.41796.16796-.17579.1875-.14843.19532-.1211.20703-.08984.21875-.05469.23047-.01953m5.08984 0h.51172v6.29297h-.78906v-4.48828h-1.38672v-.55469l.5586-.0664.2539-.0547.22656-.08984.20313-.14062.17578-.21094.14062-.29297.10547-.39453m2.82422 2.17578h.78906l.01953-.3164.0586-.28907.09765-.25.14063-.21484.17969-.17578.22265-.1289.26563-.07813.30859-.02735.23828.01954.22266.0625.20703.10156.17969.13672.14843.17578.11328.20312.07032.23828.02344.26563-.01954.26562-.0664.22657-.10938.1914-.15625.17188-.19922.16015-.25.16797-.6328.38672-.53517.3164-.4414.31641-.34375.32422-.26563.33594-.1875.35156-.125.36719-.0703.39453-.01954.41797h4.21094v-.73828h-3.33203l.08203-.28516.11328-.23828.14844-.19922.1875-.17969.23047-.17187.27734-.17578.71875-.41797.41406-.20313.34766-.23437.28125-.25.21875-.26563.16406-.27734.10938-.28515.0625-.28516.02343-.28125-.04297-.38281-.12109-.34766-.1875-.3086-.25-.26171-.30469-.21485-.34375-.15625-.38281-.10156-.40625-.03125-.4336.03125-.39843.09766-.35547.16797-.30469.23437-.2461.30469-.1875.375-.11718.44531-.03906.51953"/><path fill="#ffffe0" fill-rule="evenodd" d="M319.55078 448.94531h22.1836V438.75h-22.1836v10.19531"/><path fill-rule="evenodd" d="M323.05078 440.58594h.51172v6.29297h-.78906v-4.48829h-1.38672v-.55468l.5586-.0664.25-.0547.23046-.08984.20313-.14063.17578-.21093.14062-.29297.10547-.39453m4.8125 0l.23047.01953.21875.05469.21094.08984.19531.1211.1836.14843.17187.17578.30078.41797.24219.4961.17969.54687.11328.57813.03906.58984-.03906.59375-.11329.58594-.17968.55078-.24219.5039-.30078.42579-.17188.17968-.18359.15625-.19531.1211-.21094.09375-.21875.05468-.23047.01954-.22656-.01954-.21875-.05468-.21094-.09375-.19531-.1211-.1836-.15625-.17187-.17969-.30078-.42578-.24219-.5039-.17969-.55078-.11328-.58594-.03906-.59375h.83594l.02734.5625.08203.50781.125.4414.16406.375.19141.30079.21094.22265.22265.13672.22266.04688.22656-.04688.22266-.13671.21094-.22266.1914-.30078.16407-.375.125-.4414.08203-.50782.02734-.5625-.02734-.5625-.08203-.5-.125-.4336-.16407-.36718-.1914-.29297-.21094-.21094-.22266-.13281-.22656-.04688-.22265.04688-.22266.13281-.21094.21094-.1914.29297-.16407.36719-.125.43359-.08203.5-.02734.5625h-.83594l.03906-.58985.11328-.57812.1797-.54688.24218-.49609.30078-.41797.17188-.17578.18359-.14844.19531-.12109.21094-.08984.21875-.0547.22656-.01952m5.09375 0h.50781v6.29297h-.78515v-4.48829h-1.39063v-.55468l.5625-.0664.25-.0547.23047-.08984.20313-.14063.17578-.21093.14062-.29297.10547-.39453m2.82422 2.17578h.78516l.01953-.3164.0586-.28907.10155-.25.14063-.21484.17969-.17579.22265-.1289.26563-.07813.3086-.03125.23827.02344.22266.0625.20312.10156.1797.13672.14843.17578.11328.20313.07422.23828.02344.26563-.02344.26562-.0625.22656-.11328.1914-.15235.17188-.20312.16016-.2461.16797-.6328.38672-.53907.3164-.4375.31641-.34766.32422-.26171.33594-.19141.35156-.125.36719-.0664.39453-.02344.41797h4.21093v-.73829h-3.33203l.08594-.28515.11328-.23828.14844-.19922.1875-.17969.23047-.17187.27734-.17579.71875-.41796.41406-.20704.34375-.23046.28125-.25.21875-.26563.16406-.28125.11329-.28125.0625-.28515.01953-.28125-.03906-.38282-.1211-.34765-.1914-.3086-.25-.26172-.30079-.21484-.34765-.15625-.3789-.10156-.40626-.03125-.4336.03125-.39843.09765-.35547.16797-.30469.23438-.25.30469-.18359.375-.11719.4453-.03906.51954"/></g></defs><use xlink:href="#ag"/></svg>