<svg xmlns="http://www.w3.org/2000/svg" role="img" xmlns:xlink="http://www.w3.org/1999/xlink" viewBox="142.45 309.95 326.84 171.84"><defs><clipPath id="a"><path d="M144 311.67188h1v168.65625h-1zm0 0"/></clipPath><clipPath id="b"><path d="M144 311.67188h324v168.65625H144zm0 0"/></clipPath><clipPath id="c"><path d="M467 311.67188h1v168.65625h-1zm0 0"/></clipPath><clipPath id="d"><path d="M144 479h4v1.32813h-4zm0 0"/></clipPath><clipPath id="e"><path d="M146 479h2v1.32813h-2zm0 0"/></clipPath><clipPath id="f"><path d="M153 479h9v1.32813h-9zm0 0"/></clipPath><clipPath id="g"><path d="M159 480h2v.32813h-2zm0 0"/></clipPath><clipPath id="h"><path d="M166 479h9v1.32813h-9zm0 0"/></clipPath><clipPath id="i"><path d="M172 480h2v.32813h-2zm0 0"/></clipPath><clipPath id="j"><path d="M180 478h8v2.32813h-8zm0 0"/></clipPath><clipPath id="k"><path d="M186 479h2v1.32813h-2zm0 0"/></clipPath><clipPath id="l"><path d="M193 478h8v2.32813h-8zm0 0"/></clipPath><clipPath id="m"><path d="M199 479h2v1.32813h-2zm0 0"/></clipPath><clipPath id="n"><path d="M207 478h8v2.32813h-8zm0 0"/></clipPath><clipPath id="o"><path d="M212 479h3v1.32813h-3zm0 0"/></clipPath><clipPath id="p"><path d="M220 479h8v1.32813h-8zm0 0"/></clipPath><clipPath id="q"><path d="M226 480h1v.32813h-1zm0 0"/></clipPath><clipPath id="r"><path d="M234 477h6v3.32813h-6zm0 0"/></clipPath><clipPath id="s"><path d="M246 479h9v1.32813h-9zm0 0"/></clipPath><clipPath id="t"><path d="M252 480h2v.32813h-2zm0 0"/></clipPath><clipPath id="u"><path d="M260 478h8v2.32813h-8zm0 0"/></clipPath><clipPath id="v"><path d="M265 480h2v.32813h-2zm0 0"/></clipPath><clipPath id="w"><path d="M273 478h8v2.32813h-8zm0 0"/></clipPath><clipPath id="x"><path d="M279 480h1v.32813h-1zm0 0"/></clipPath><clipPath id="y"><path d="M287 478h7v2.32813h-7zm0 0"/></clipPath><clipPath id="z"><path d="M300 479h8v1.32813h-8zm0 0"/></clipPath><clipPath id="A"><path d="M305 480h2v.32813h-2zm0 0"/></clipPath><clipPath id="B"><path d="M313 479h8v1.32813h-8zm0 0"/></clipPath><clipPath id="C"><path d="M319 479h2v1.32813h-2zm0 0"/></clipPath><clipPath id="D"><path d="M326 478h8v2.32813h-8zm0 0"/></clipPath><clipPath id="E"><path d="M332 480h2v.32813h-2zm0 0"/></clipPath><clipPath id="F"><path d="M341 477h6v3.32813h-6zm0 0"/></clipPath><clipPath id="G"><path d="M354 477h6v3.32813h-6zm0 0"/></clipPath><clipPath id="H"><path d="M369 476h3v4.32813h-3zm0 0"/></clipPath><clipPath id="I"><path d="M381 477h5v3.32813h-5zm0 0"/></clipPath><clipPath id="J"><path d="M395 476h4v4.32813h-4zm0 0"/></clipPath><clipPath id="K"><path d="M408 477h5v3.32813h-5zm0 0"/></clipPath><clipPath id="L"><path d="M423 476h1v4.32813h-1zm0 0"/></clipPath><clipPath id="M"><path d="M433 478h8v2.32813h-8zm0 0"/></clipPath><clipPath id="N"><path d="M446 479h8v1.32813h-8zm0 0"/></clipPath><clipPath id="O"><path d="M452 480h2v.32813h-2zm0 0"/></clipPath><clipPath id="P"><path d="M460 477h7v3.32813h-7zm0 0"/></clipPath><clipPath id="Q"><path d="M144 466h4v2h-4zm0 0"/></clipPath><clipPath id="R"><path d="M144 452h4v3h-4zm0 0"/></clipPath><clipPath id="S"><path d="M144 438h4v5h-4zm0 0"/></clipPath><clipPath id="T"><path d="M144 424h4v6h-4zm0 0"/></clipPath><clipPath id="U"><path d="M144 411h4v5h-4zm0 0"/></clipPath><clipPath id="V"><path d="M144 398h4v5h-4zm0 0"/></clipPath><clipPath id="W"><path d="M465 397h3v2h-3zm0 0"/></clipPath><clipPath id="X"><path d="M144 384h3v6h-3zm0 0"/></clipPath><clipPath id="Y"><path d="M465 383h3v2h-3zm0 0"/></clipPath><clipPath id="Z"><path d="M144 370h2v8h-2zm0 0"/></clipPath><clipPath id="aa"><path d="M465 370h3v2h-3zm0 0"/></clipPath><clipPath id="ab"><path d="M144 357h2v7h-2zm0 0"/></clipPath><clipPath id="ac"><path d="M465 357h3v2h-3zm0 0"/></clipPath><clipPath id="ad"><path d="M144 345h4v5h-4zm0 0"/></clipPath><clipPath id="ae"><path d="M466 344h2v3h-2zm0 0"/></clipPath><clipPath id="af"><path d="M144 332h4v4h-4zm0 0"/></clipPath><clipPath id="ag"><path d="M466 331h2v3h-2zm0 0"/></clipPath><clipPath id="ah"><path d="M144 319h4v3h-4zm0 0"/></clipPath><clipPath id="ai"><path d="M466 318h2v2h-2zm0 0"/></clipPath><g id="aj" clip-path="url(#clip1)"><path fill="#fff" fill-opacity="0" fill-rule="evenodd" d="M0 0h1000v1000H0zm0 0"/><path fill="#d3d3d3" fill-opacity="0" fill-rule="evenodd" d="M162.15234 355.86719l-.23437.29297.0586.23437.11718.17188.17578.23437.29297.34766.11328.0586.11719-.17188.0586-.23438.17577-.17578.46485-.17578h.69922l.23437.29297.28906.8164.0586.17579.17578.23046.35156.23438.69922.69922.17188.17578.23437.34765.23438.41016.28906.58203.41015.46485.23047.23437.23438.17578.11719.23047.17578.29297.17187 1.16406v.23438l.0586.28906.05859.11719.11719.11719.34765.41015.11719.17188.17578.17578.17578.23437.11719.17188.17188.35156.05859.23438.23437.40625.23438-.0586-.17578.17578-.0586.92969h-.58203l-.23437-.11328-.34766.11328-.11719.11719-.05859.29297-.0586.17578-.11718.17187-.46484.29297-.0586.23438-.0586.11328v.64453l.0586.17187v.41016l.0586.0586v.40624l.05859.40625.11719.17579.05859.05859.23047.64062-.0586.29297v.69922l-.05859.58203v.23438l-.0586.23047-.05468.35156v1.92187l.05469.1172h.42578l-.36719.11718-.02344.35156.89063 1.16797 1.74219.53906 1.33984.35938v.53906l.08984.8086.53516.71484 1.51953.26953.89063-.08594.08984 1.16406.53516.1797 1.16015-.1797 2.05469-.98437 1.16016-.36328 1.8789-.17578 1.69531-.1797-.17968.71876-1.51563.08594-1.25.08984-.80469.26953-1.07421.8086.26953.71875.53515.89843-.17968.625-.26563.8086.26563 1.07812.625.89844.80468.17969 1.25-.1797-.26562.72267.09766.5039.05468.29297v.17188l.0586.29296v.40625l.17578.1172.35156.11718h.40625l.29297-.17578.11328-.11719.0586-.11719.11718-.23047.0586-.17578.35156-.46484.23047-.17578.17578-.0586.17578.0586.0586.17578.11718.98828.05469.46875.0586.17188.11718.23437.17578.0586.8164.05859h.28907l.11719.23437.05859.40625.0586.35156v1.10547l.11718.29297.11719.34766.28906.69922.17578.35156.58203.7539.35157.17579.17187.0586.46875.23437.64063.46484.34765.23438.29297.17578.29297.05468.23047.0625.8164.34766.29297.17578.11328.17188.35157.35156.11719.17578.52343.64063v.28906l.0586.35156v.34766l.05859.35156.0586.28906.11718.0586.17188.05859h.17578l.58203.23437.17578.1172.17578.28905.17578.23438.11328.23437.29297.23047.11719.11719v.41016l.0586.05468.28906.23438.23437.11719.0586.11718.11718.17188.0586.11719.23047.23437.05859.17578.23437.0586.1172.05859-.1172.11328-.05859.11719v.11719l-.11719.29296-.11719.28907v.58203l.17579.11719.11718.05859.0586.11719.11719.11719.11328.05859.17578.34765.0586.35157.05858.40625v.17578l-.05859.17578-.11719.69922v.17187l.1172.17579.29296.29296h.40625l.17578.1172.11719.17187.11719.29296v.23438h-.52735l-.23047-.23438h-.23437l-.17578.0586-.0586.69922.0586.34765.11719.17579.17578.41015.11718.23047.28907.46875.17578.05469h.52344l.23437.0586.75781.64062.0586.29296v.23438l.05859.0586.23047.34765v.35156l-.11719.17188v.29297l.29297.28906.29297.17578.17187.0586.29297.17577.29297.1172.58203.40624.28906.23438.29297.17578.21875.16015.01563.01172.23047.17579.64062.52343.17578.23438.1172.17578.17577.17578.11328.17188v.64062l.1172.17578.46874.11719.58203.11719.23438.05859.23047.11328.29297.11719.11328.0586.58593.35156.28907.17187.17578.0625.17578.05469.17578.0586.69922.35155.28906.17579.23438.05468.28906.17578.23437.1172.64063.40624.29297.11719.17187.0586.23438.05859.41015.05859.23047.0586.23438.11718.0586.17188-.41017.17578.46875.0586.0586.29296.11328.23438.17578.05468.23438.0586.17578.05859.40625.11719.64062.23437.11719.17188.0586.23437v.17578l-.0586.1172-.0586.40624.23438.23438.11719.05859.34766.11719.64062.23047.17578.11718.28906.1172.17578.17577.23438.46485.58203 1.10546.17578.17579.34766.17578.17578.11719.35156.11718 1.04688.52344.23437.0586.46485.11327.29297.0586.46484.17578.75781.58203.23438.23438.34765.46484.17578.17578.28907.23438.8164.69921.29297.17579.28906.28906.29297.17578.29297.28906.69531.64063.17578.17578.29297.23437.28907.23438.46875.28906.64062.58203.34766.23438.23437.29297.34766.34765.35156.46485.9336.99218.34765.40625.11719.17579.23437.05859.11328.11719.64454.17578.23047.11328.23437.0586.29297.17577.23047.1172.9336.69921.40624.40625.23438.17578.40625.17578.23437.11719.8164.34766.34766.23437.23438.11719.29297.28906.23047.11719.7578.35156.35157.17188.23047.05859.29297.11719.23437.0586.8711.17577h.8164l.46875.23047.17188.0586.875.69921.46484.1172.29297.05858.17578.0586.23047.0586.46875.05859.34766.05859.35156.0586.40625.05859h.29297l.17187.0586v.23046l.17578.17578h.29297l.34766.0586.35156.05859.69922.11719h.64063l.46484-.23438.29297-.17578.17187-.11719.41016-.17187.28906-.17578.9336-.46485.46875-.29297.52343-.29296.46485-.17188.46484-.17578 1.05078-.46485.28906-.11718.41016-.11719.28906-.11719.52735-.17578 1.51562-.69922.58203-.34765.28907-.0586.29297-.0586.34765-.11718.875-.23047.35156-.11719h.11329l.23437-.05859.875-.23437.23438-.0586h.8125l.35156-.0586.8164-.11718.17188-.0586.35156-.05468.29297-.0586.23047-.05859.8164-.17578.17579-.0586h.34765l.23438-.05859.46484-.11718.75781-.17188.23438-.0586h.34765l.41016-.11718.28906-.0586 1.28516-.05859h.28906l.41016-.0586.23047-.05858h.17578l.875-.1172h.40625l.41015-.11718h.34766l.35156-.11328.8711-.0586h1.75l1.04687.28907.41016.11719.28906.11718.35156.11719.28907.11719 1.05078.17187.28906.0586h.29297l.29297.05859.17187.0586.41016.05859.17187.0586.1172.05858h.11718l.11719.0586.35156.0586h.11328l.41016.0664 1.92187.39453 1.92578.39453 1.51953.44922 1.69532.71875 2.14453.80469 1.60547-.71875 1.42968-.80469 1.16016-1.07813 1.25-.44921 3.03516-.71875 1.875-.35938 2.14453-1.34765 2.23437-1.25391 2.5-1.25781 1.69531-.44922 1.78516-.17969 1.16016-.26953.625.53906 1.33984-.26953.71485-.98828.98437-1.34375.44531-.17969.80469-.35937 1.875-.53907 1.78516-.44921 1.25-.26954 1.16015-.08984 1.69922-.08984 1.96094-.26954 1.25-.08984h.53906l.625-.08984h.89063l2.14453-.17969 2.41015-.17969 2.58985-.08984 1.69531.17969 1.60938.08984 1.42968.35938 1.16016.71875 1.875.98828 1.16015 1.52734.26563.71484.6289.08985.35548.89844.53515.53906.53516 1.52734 1.07422.35938h.53515l-.80469.53515.08985 1.70703.71484 2.69532.89063.80468.89453.98829.71484 1.2578 1.78516.53907 1.51953-.17969.35547 1.34375 1.60937-.80469.98047-.53906.26953.26953.31641-.21484.21875-.14453.80078.44922.44922-.35938h.35547l.53515-.26953.53907-.71875.53515-.26953.625-.98828 1.16016.44922.83984.3711 1.39454.61718 1.6953-.17969h1.60548l1.78515.08985.17969-1.70704.53516-1.34375.80468.26954.4922.84765.40233.40625-.08984.53906v.35938l.71485.44922.71093-.26953h1.42969l.35938.98828.4453 1.25781.71485 1.34375 1.25.6289 1.69531.62891.71485-.17969.17969-.53906.98046-.08984.44922.35937.08594 1.25782-.26563.6289-.53515.17969v.53906l.71484.98438.26563.53906.98437.98828.80078 1.07813-.26562.35937-.08985.89844-.625 2.33203-.35546 2.0664-.08985 1.79298-.17969.71875-.08984.53906v1.4375l-.98047 1.88281-.35937 1.70703-.53516.89844-.80469 1.16797-.26562.53906 2.05469 1.2539.08593.35938-.35546.53906-.08985-.17968v.80859l.08985 1.4375-.44532.71484-1.07422.09375-.26562.71485.53515.89844.8047.71875 1.16015.80859 1.33984.26953.44531.35938-.35546.44921-1.78907-.08984-1.25-.44922-.71484-.71875-.625-.08984-.17578 3.58984-.1875 1.3086h89.35937V311.70313h-55.26953v49.08203l.76172.125 3.28906.54296 2.02344 2.83594v2.7539l2.35156.33204 2.34766.33203h4.05078l-1.3789 4.16016-2.02344.70703-2.02344.70312-.54297.34375-2.59375 1.6172-.1875.11718-2.02344-2.07813-.73046-2.74218-2.67188-2.07813-1.375-3.5-.0664-.08203-1.95704-2.67188 2.75-1.41796v-49.08204H294.42187v91.41407l.1172.03125.1328.01172.07422.07421.10547.04688.08985.0586.08593.05859.08985.0586.29687.29687.0586.08984.03125.11719.02734.11719.01563.13671-.03125.1172-.0586.08983-.0586.08594-.04296.10547-.04688.10156-.02734.1211v.14453l.17578.26953.14844.14844.07422.08594.07422.07421.04296.10547.0625.08985.0586.08593.04297.10547.0586.08985.04687.10156.04296.10547.0586.08594.11719.17968.07421.07422.0625.08594.0586.08984.04297.10547.0586.08985.05858.08593.0625.08985.0586.08984.04297.10156.11719.17969.07421.07422.0586.08594.07422.07421.08984.0586.10547.04687h.14844l.1328-.01562.13282.01562.10156-.04687.07422-.07422.04688-.10156-.01563-.13281v-.14844l-.04687-.10547-.02735-.11719-.04687-.10156-.02735-.1211-.04296-.10156-.0625-.08984-.04297-.10156-.04297-.10547-.03125-.11719-.01563-.13281-.01171-.13672.08593-.0586.0586-.08593.12109-.03125.04297.10547.01562.1328v.1172l.0586.10156.0586.08984.08983.0586.14844.14843.0586.08985.04296.10547-.01171.10156.08593.0586.10547.04687.08594.0586.08984.05858.07422.07422-.11719.02735-.10546.04687-.08594.0586-.07422.07421-.0586.08985-.0625.08594-.02734.12109-.04687.10156-.04297.10547-.03125.11719-.01172.13281-.01563.13281v.14844l.02735.11719.04687.10547.04297.10156.0586.08984.07421.07422.08985.0586.07422.07421.08984.0586.0586.08984.04296.10547.04688.10156.11719.03125.1328.01563h.14845l.11718-.03125.10547.04297.04297.10547.04688.10156.02734.1211L299.5 410l.02734.11719.03125.1211.02735.11718.10547.04297.10156.04687.13281-.01562.14844.14844.0625.08593.07422.07422.07031.07422.08984.0625.10547.04297.10156.04297.1172.03125.13671.01562.11719-.03125.07422-.07422.02734-.11718-.01172-.13282-.03125-.12109-.02734-.11719.04297-.10547h.11719l.08984.0625.11719.02735h.14843l.13282.01562h.14843l.13282.01563.1328-.01563h.14845l.1328-.01562.13282-.01172.13672.01172.11719-.02735.13281-.01562.1914-.0586-.05859.17579-.01562.1328-.02735.1211-.01562.13281-.0586.08594-.1328.01563-.10548.04687-.10546.04297-.1172.03125-.11718.02735-.26563.03125h-.14843l-.13281.01562-.07422.07422.05859.08594.14844.14843.11719.1797.07421.0703.08985.0625.08984.0586.08594.0586.08984.05858.10156.04297.10547.0625.10547.04297.08594.0586.10547.04687.10156.04297.17969.11719.0586.08984-.04298.10156-.04687.10547.01562.13281.22266.22266.0586.08985.04296.10156.03125.1211.04297.10155.01563.13282.03125.11718.01171.13672.03125.11719.14844.14844.10156.04297.10547.04296.1172.03125.1328.01563.13672.01563h.11719l.11719-.03125.08984-.0586.04297-.10547.04688-.10156.04296-.10547.03125-.11719.01172-.1328v-.14845l-.01172-.1328-.01562-.13282-.03125-.11719-.04297-.10547-.04688-.10547-.04296-.10156-.04297-.10547-.01563-.13281.01563-.13281.02734-.11719.03125-.11719.02735-.1211.04687-.10155.08984-.0586.08594-.0625.07422-.07422.08984-.05859.22266-.22266.0586-.08593.07421-.07422.11719-.17969.0586-.08594v-.14844l-.07423-.07421-.10156-.04688-.10547-.04297-.10156-.04297-.0586-.08984-.04687-.10547-.02734-.11719.08984-.05859.11719-.03125.10156-.04297.17969-.11719.14844-.14843.01172-.13282-.01172-.10546-.08985-.0586-.1328.01563h-.14845l-.1328.01562-.13282-.01562-.1211-.03125-.08593-.0586-.07422-.07422-.0586-.08984-.0625-.08594-.11718-.17969-.0586-.08593.03125-.1211.08594-.05859.1211-.03125.05859-.08594v-.1211l-.03125-.11718-.0586-.08984-.05859-.08594-.04687-.10547-.02735-.11719-.01562-.1328.0586-.08985.07421-.07422.08984-.0586.1172-.17968.07421-.07422.0586-.08594.14843-.14844.1211-.03125.1328-.01562.13282.01562.07422.07422.04297.10547.01562.13281-.03125.1172-.11719.03124-.1328.01172-.14844.14844-.04297.10547-.04688.10156-.02734.1211-.03125.11718v.14844l.03125.11719.04297.10546.05859.08985.07422.07031.07422.07422.11719.03125.12109.02734.11719-.02734.1328-.01563h.1172l.08984.0586.07422.07422.04687.10546.0586.08594.10156.04688.13281.01562.10547.04297.08594.0586-.01172.10546-.07422.07422-.17969.11719-.05859.08984-.08984.0586-.07032.07422-.07421.07421-.0625.08985-.02735.11719-.01562.1328.01562.13282-.01562.13281v.14844l.01562.13281.02735.1172.03125.12108.07421.07422.08985.0586.08594.0586.08984.05858.11719.03125v.08594l-.10157.04688-.08984.0586-.26563.03124-.11718.02735h-.14844l-.10547.04296-.10156.04688-.0586.08984-.0625.23438-.01171.13281-.03125.1211-.01563.1328v.29298l-.01172.1328.01172.13673.01563.1328.1328.01563.13282.01172.1211.03125.08593.0586.07422.07421.04688.10547.04296.10157.01563.1328v.44532l-.01563.13281v.44532l.03125.26562.02735.11719.01562.13281.03125.11719.08594.21094.03125.26562v.14844l-.03125.11719-.02734.11718-.03125.1211-.02735.11719-.03125.11718-.03125.1211-.01171.1328-.01563.13282.08984.0586.1172-.03125.10155.01562.04688.10547-.03125.26562v.44141l-.04297.10547-.04688.10547-.04296.10156-.04297.10547-.0586.08594-.03125.12109-.04296.11719-.03125.11719-.01563.1328.01563.13282.05859.08984.10547.04688.08594.0586.05859.08593-.01172.13672-.03125.11719-.04297.10156v.44531l-.01562.13281v.14844l-.03125.11719-.04297.10547-.02735.11719-.04687.10546-.04297.10157-.03125.12109-.02734.11719-.03125.13281-.03125.11719-.02735.11719-.04297.10546-.03125.1172-.03125.12108-.01171.13282-.01563.13281v.29688l.02734.11718v.14844l.04688.39844.02734.11719.0586.08984.12109.03125h.14844l.13281-.01563.0586.08985v.11719l-.0586.08984-.08984.0586-.10157.04296-.10546.04688-.08985.05859-.08594.0586-.13671.01562-.1172-.03125-.1328-.01563-.10157.04688-.0625.08594-.01172.13671-.01562.13282-.03125.11719-.02735.11718-.01562.13281-.03125.1211v.29687l.01563.13282.03125.11718v.14844l.01171.13281v.14844l-.02734.11719-.04688.10156-.02734.1211-.03125.11718-.0586.08985-.07421.07421-.10156.04297-.10547.04688-.11719.02734-.1211.03125-.10156-.04687.0586-.08594.10547-.04688.02734-.11718.03125-.11719.02734-.1211.03125-.11718v-.14844l.01563-.13281-.03125-.11719-.04297-.10547-.10547.01563-.07422.07422-.10156.04296-.08984.0625-.07422.07422-.04297.10157-.01563.1328-.03125.1172L304.25 426l-.03125.11719-.02734.11719-.03125.12109-.02735.11719-.03125.11718-.04297.10547-.08984.0586h-.08984l-.1172-.03125-.03124-.08594.01562-.13672-.03125-.11719v-.14844l-.01171-.1328v-.14844l-.0625-.23438-.02735-.1211-.04297-.10156-.04687-.10546-.0586-.08594-.05859-.08985-.04297-.10546-.0625-.08594-.14844-.14844-.0703-.07422-.10548-.04687-.10547-.04297-.10156-.04297-.29687-.29688-.08985-.07421-.08594-.0586-.10546-.04297-.08985-.0625-.08594-.0586-.10546-.04296-.08985-.0586-.08594-.0625-.07421-.0703-.10547-.04688-.08594-.0586-.10547-.04296-.08984-.0625-.10156-.04297-.10547-.04297-.08594-.0586-.10547-.04687-.10547-.04297-.10156-.04687-.08985-.0586-.10156-.04297-.10547-.04296-.08984-.0625-.11719-.02735-.13281-.01562-.13281.01562H299.75l-.13281.01563-.11719-.03125-.08984-.0586-.07422-.07422-.08985-.05859-.10156-.04688h-.14844l-.12109-.02734-.10156-.04297-.07422-.07422-.11719-.17968-.08984-.0586-.10156-.04297-.08985-.0625-.10547-.04296-.08984-.0586-.08594-.0586-.10547-.04687-.0586-.08594-.05858-.08984-.04297-.10547-.04688-.10156-.07422-.07422-.08594-.0586-.07421-.07421-.08985-.0586-.22265-.22265-.04297-.10547-.03125-.26563.10547-.04296h.14453l.10547.04296.07421.07422.08985.0586.08594.0586.10546.04687.08985.05859.14844.14844.0703.07422.14845.14843.0625.08594.07421.07422.08594.0586.07422.07421.08985.0625.08984.0586.08594.05859.26953.17578.10156.04688.10547.04296.10156.04297.04688-.07421.05859-.08594.07422-.07422.07031-.07422.10547.04297.07422.07422.0586.08984.04296.10156.04688.10547.04296.10547.1211.02735.11719-.02735.07421-.08984.04297-.10547.0586-.08985.07422-.07421.10546-.04297.1172-.02735.1328.01172.08985.0586.14844.14843.05859.08985.04297.10547.04687.10156.04297.10547.04297.10156.10547.04688.10547.04296.13281.01563.08594-.0586.0586-.08984.07421-.07422.10547-.04297.11719.02735.10547.04687.10156.04297.10547.04297.10156.04688.17969.11718v.11719l-.01563.13281.01563.13281.01562.13672.0586.08594.10156.04688.1211.02734.11718.03125h.14844l.11719-.03125.05859-.08984.17969-.1172.05859-.08983.07422-.07422.0586-.08594.11718-.17969.17969-.11719.11719.03125.08984.0586.04297.07422-.01563.1328v.1172l.08985.05859h.14843l.13282-.01563.1328-.01171.26563-.03125.10547-.04297.11719-.03125.1211-.02735.07421-.07421.07031-.07422.0625-.08985-.01562-.10547-.04688-.10156-.10156-.04297-.10547-.01562-.11718.02734-.26563.03125h-.14844l-.07421-.07422-.08985-.0586-.11719-.03124-.11718-.02735-.13282-.01562h-.14843l-.13282.01563h-.29687l-.10547-.04688-.14844-.14844-.04297-.10156-.05859-.08984.22266-.22266.08593-.0586.10547-.04296.11719-.03125.13281-.01563.13281.01563.13672.01562.10157.04297.1328-.01172.08985-.0625.10156-.04297.0625-.08984-.04687-.10156-.08984-.0586-.1172-.03125-.10155-.04296-.0586-.08985-.0625-.08984v-.11719l.01563-.13281.10547-.04688.07421-.07031v-.1211l-.08984-.05859-.03125-.11719.08985-.05859.07421-.07422.04297-.10547.0586-.08984.04687-.10156.01563-.13281v-.14844l-.04688-.10547-.04297-.10156-.08984-.0586-.13281-.01562-.10157-.04297-.13671-.01563-.1172-.03125h-.4453l-.13282-.01562-.13281-.01172-.13281-.01563-.11719-.03125h-.14844l-.13281-.01562-.13281-.01172-.26563-.03125-.1211-.04297-.08593-.0586-.07422-.07421v-.14844l.01172-.13281.10547-.04688.10156-.04296.13281-.01563h.15235l.13281-.01562h.29297l.1211.03125.10156.04296.08984.0586.23438.0625.12109-.04688.08984-.05859.10156-.04297.13282-.01562.10547.04296.10156.04688.13281.01172.1211-.02735h.14453l.12109-.03125.11719-.02734.10547-.04687.07421-.07422.08594-.0586.14844-.14843.0586-.08594.04687-.10547.02734-.11719.01563-.10547-.10156-.04296-.08985-.0586-.11719-.03125-.10546-.04297-.08985-.0625-.07422-.08594-.07422-.07421-.10156-.04297-.10547-.04688-.10156-.04297-.0586-.08984-.04687-.10156-.08594-.21094-.0625-.08594-.05859-.08984-.07422-.07422-.08594-.0586h-.26953l-.11719.03126-.08984.05859-.10156.04297-.13281.01562-.10547-.01562-.02735-.11719-.0625-.08984-.11718-.03125-.10157-.04297-.14843-.14844-.03125-.11719-.01563-.10546.07422-.07422.17969-.1172.11719-.02733.11718-.03125.13672.01562.10156.04297.10547.04297.10156.04687.10547.04297.1172.03125.1328.01563.1172.02734.1328.01563.10547-.01563.08985-.0586-.07422-.07421-.10547-.04297-.07422-.07422-.07422-.08984-.14844-.14844-.08593-.0586-.08985-.05859-.07422-.07422-.08984-.0586-.10156-.04687-.1211-.02734-.10156-.04688-.10547-.04296-.11719-.03125-.10156-.04297-.1211-.03125h-.14843l-.11719.03125-.10546.04297-.08594.0625-.17969.11718-.08594.0586-.08984.0586-.10547.04687-.08594.05859-.10547.04297-.10156.04297-.10547.04687-.07422.07422-.05859.08985-.0586.08593-.04687.10547-.0586.08594-.07421.07422-.13281-.01172-.1172-.03125h-.11718l-.07422.07422-.08984.0586-.07422.07421-.08984.0586-.08594.05859-.10547.04687-.10156.04297-.13672.01563-.10156-.04297-.14844-.14844-.10547-.04688h-.08594l-.10547.04688-.10156.04297-.1211.03125-.11718-.03125-.07422-.07422v-.11719l.03125-.1211.07422-.0703.0586-.08985.07421-.07422.11719-.03125.10547-.04296h.29297l.13281-.01563.13672-.01563.10156-.04296.08985-.0586.10156-.04687.08984-.0586.13281-.01171.08985.05859.13281.01172.08984-.0586.08594-.05859.10547-.04297.08984-.0586.08594-.0625.08985-.05859.14843-.14843.0586-.08594.05859-.08985.10547-.04296.13281-.01563.11719.02735.1211.03125.05859-.0586.05859-.08984.03125-.26563.02734-.11719.10547.01172.13281.01563.10157-.04297.08984-.0586.0586-.08984.07421-.07422.0586-.08984.04687-.10156.01172-.13281-.01172-.13282-.04687-.10547-.14844-.14843-.0586-.08985-.05859-.08594-.04297-.10546v-.44532l.01563-.1328v-.14845l.01172-.1328-.0586-.0586-.08984.0586-.10156-.04298-.17969-.11719-.08594-.05859-.0625-.08984-.0586-.08985-.07421-.07421-.08594-.0586-.1211.03125-.10155.01172-.10547.04688-.08594.05859-.10547.04297-.14844.14844-.08984.05859-.08594.0586-.08984.0625-.10547.04296-.13281.01563v-.1211l.10547-.04297.11718-.03125.07422-.0703.04297-.10548v-.14844l-.02734-.11718-.14844-.14844-.13281-.01563h-.14844l-.11719.03125-.10547.04297-.10156.04297-.08984.0625-.11719.02735-.07422-.07422.01172-.13281-.04297-.10157-.04297-.10547-.08984-.05859-.11719.02734-.1211.03125-.11718.03125-.10156.04297-.1211.03125-.10156.04297-.10547.04297-.08984.0586-.10156.01562v-.11719l.01562-.13281-.0586-.08985-.07421.04297-.14844.14844-.0586.08985-.07421.07421-.04688.10547-.04296.10156-.07422.07422-.0586.08985-.07422.07422-.05859.08593-.07422.07422-.08984.0625-.07422.07031-.07422.07422-.10156.01563-.13281.01562-.10547-.04296v-.1211l.14843-.14844.04297-.10156.0586-.08984.04687-.10156.04297-.10547.0586-.08985.03124-.11719.04297-.10156.03125-.1211.02735-.11718.04687-.10547.04297-.10156.04297-.10547.07422-.07031.08984-.0625.08985-.0586.10156-.04296h.29687l.26563-.03125.10547-.04297-.07422-.07422-.11719-.03125-.10547-.04297-.08984-.0586-.10156-.04687-.08985-.0586-.10156-.04296-.10547-.04297-.08984-.0625-.08594-.0586-.10547-.04296-.10156-.04297-.1211-.03125-.11718-.03125-.10157-.04297L297.5 410.25l-.10156-.04297-.08985-.0586-.04296-.10546-.01563-.13281.10156-.04297.13281-.01563.13672.01563.13282-.01563.10156-.04297.0586-.08984.01562-.10547-.08985-.0586-.07421-.07421-.10157-.04297-.08984-.0586-.14844-.14843-.04297-.10547-.01562-.13281v-.29297l-.0586-.08985-.08984-.05859-.07422-.07422-.04297-.10547-.03125-.11718-.0586-.08985-.07421-.07422-.11719-.02734-.07422-.07422-.08984-.0586-.08984-.0625-.08594-.05859-.07422-.07421-.0586-.08594-.04687-.10547-.08594-.0586-.14843-.14843-.19532-.0586-.1328.01563-.10157.04297-.07422.07422-.04688.10156-.04296.10547-.0586.08984-.0586.08594-.29687.29687-.08984.0586h-.08594l-.0625-.08594-.04297-.10547.03125-.11719.0586-.08984.02734-.11719-.01172-.13281-.08984-.0625-.10547.04688-.11719.02734-.11719.03125-.26953.17578-.10156.04688-.11719.02734-.10546.04687-.08985.0586-.10156.04297-.0586-.08594-.04687-.10547.01563-.13281.04687-.10547.07031-.07422.07422-.07031.0586-.08985v-.14843l-.04297-.10547h-.23829l-.10156.04687-.03125.11719-.02734.11719-.03125.1211-.07422.04296-.13281.01563-.07422-.04688-.04297-.10156-.04297-.10547-.04687-.10156-.04297-.10547-.1211.03125-.10156.04297-.13281.01562-.11719.03125-.10547.04297-.08984.0586-.10156.04687-.1211.02734-.13281.01563-.10156-.04297-.0586-.08985-.04687-.10546-.04297-.10157-.04297-.10546v-.1172l.0586-.08984.08593-.05859.17969-.11719.10156-.04687.10547-.04297.10547-.0586.10156-.04296.08985-.0625.10156-.04297.10547-.0586.10156-.04687.08984-.0586.10547-.04296.10156-.04297.08985-.0625.10156-.04297.13672-.01563.11719.03125.10156.04297.1211.03125.10156.04297.10546.04688.10157.04296.10547.04297.10156.04688.10547.04297.10156.04297.10547.04687.08594.0586.10546.04296.1172.03125.10546.04297.10156.04688.08985.0586.10547.04296.10156.04297.10547.04687.11719.02735.10156.04687.1211.02735h.14843l.08594-.0586.01562-.10156.0586-.08984-.02735-.1172-.07422-.07421-.11719-.17969-.07421-.07422-.08985-.07421-.17969-.1172-.08593-.05859-.10547-.04296-.10156-.04688-.26954-.17578-.05859-.08985-.07422-.07421-.0586-.08985-.04296-.10156-.03125-.11719-.01563-.13672v-.5625l-.01171-.1328-.01563-.13282-.03125-.11719-.01562-.13281-.01172-.13281-.03125-.1211-.22266-.22265-.0586-.08594-.01562-.10547.03125-.11719.13281-.01562v-91.41406H172.9922v1.45312l-.0586.23438-.35156 1.05078-.17187.52343-.1172.34766-.17577.41016-.11719.17187-.23438.29297-.23046.0586h-.35157l-.11718.05859-.23047.40625v.29297l.11719.17578.23046.23047.1172.23437.64062.75781.29297.46485.17578.23437.23047.35156.23437.34766.64063.8164.17578.46485.17187.41016.11719.69531.17578.46875.11719 1.39844.0586.46484v.875l.11718 1.04688v4.78125l-.0586.46484-.35156 1.28125-.17578.52344-.11328.41015-.35156.9297L172.93359 336l-.23437.58203-.11719.17578-.17187.34766-.17578.40625-.35157.8164-.0586.29297-.11327.29297-.11719.28906-.0586.17579-.11718.875-.0586.40625-.05859.11718-.0586.17579-.05859.17187-.23047.52734-.11718.17188v.23437l-.11719.23438-.0586.17187-.17577.58594v.28906l-.0586.17579v.29296l-.0586.11329-.05859.52734v.17187l-.05468.23438v2.6211l-.17578.8164-.1172.17578-.17577.23438-.1172.17187-.11327.23438-.58594.93359-.23047.28906-.29297.46485-.17578.23437-.28906.35156-.35156.69922-.11328.23047-.17579.41016-.17578.23046-.40625.52735-.8164.69922-.29297.17187-.28906.23438-.17579.11719-.17578.17578-.52344.40625-.52734.17578-.17187.17578-.23438.05469-.64062.17578h-.75782m12.21094 31.02344l-1.07422.44921.35938.89454 1.25-.71485.44531-.53906-.98047-.08985"/><path fill="#d3d3d3" fill-opacity="0" fill-rule="evenodd" d="M201.50781 416.59766h-.89453l.44922.6289.98047.35938.80469-.08985.4453-.98828-.17577.08985-.71485-.35547-.89453.35547m154.6211 59.0703l-.0586-.52343v-.29297l.11328-.29297.0586-.23046.46875-.46875h.11328l.11719-.11329.11718-.05859h.17579l.23437-.0586h.34766l.23437.0586.11719.0586.23047.17187.0586.17578.11718.58203v.29297l-.11719.17578-.17187.28906-.17579.17579-.52734.52343-.23047.23438-.11719.0586h-.17578l-.11718-.0586-.40625-.29297-.17579-.11719-.11718-.0586-.0586-.11327-.05468-.1172m6.64062-10.95702l-.0586-.17188v-1.10937l.0586-.17188.17578-.0586.17188-.05858h.17578l.23437-.0586.1172.0586.05858.69921-.05859.17188-.11719.17578-.11718.0586-.23438.52343-.11328.0586h-.23438l-.05859-.1172m9.61328-14.39062l-.11719-.17578v-.69922l.29297-.875.1172-.17187.17577-.35156.11328-.23047.1172-.29297.35155-.75781.1172-.23047.17187-.23438h.17578l.11719-.0586h.64062l.11719.0586.23437.23438.17188.11328.35156.29297.11719.11718.11328.17579v.11328l.11719.05859.11718.11719v.69922l-.05859.17578v.23047l-.0586.17578-.34765 1.05078-.11719.23047-.11719.23437-.11718.0586-.23047.23437-.64063.28906h-.875l-.41015-.11718-.64063-.46485"/><path fill="none" stroke="#bebebe" stroke-linecap="round" stroke-linejoin="round" stroke-miterlimit="10" stroke-width=".5" d="M467.95703 311.69531H144.02734v168.625h323.9297v-168.625"/><g clip-path="url(#a)"><path fill="#fff" fill-opacity="0" fill-rule="evenodd" d="M144 475.89063v4.4375h.0039H144V311.67188h.0039H144v164.21875"/></g><g clip-path="url(#b)"><path fill="#fff" fill-opacity="0" fill-rule="evenodd" d="M144.0039 480.32813V311.67188h102.07813v113.8125l-4.4375.23046-1.41406 1.35547-2.13672 4.4375L241.64453 435l4.4375-.17578 3.01172-3.3164-1.66016-4.4375-1.35156-1.58594v-113.8125h39.94531v105.4375l-1.09375 1.08203-3.34375 1.6875-4.4375 1.17968-1.60546 1.57032 1.60546 1.58984 4.3672 2.85156.0703.0664.15625-.0664 4.28125-.73047 1.41407.73047 3.02343 2.09375v24.1289l-1.16015.40626-3.27735 2.66015-.77734 1.77735.77734 1.24219 4.4375-.05079 1.50391-1.1914-.85547-4.4375-.64844-.40625v-24.1289l2.09766-2.09376 2.33984-.97656 3.46485-3.46484-3.46485-3.84766-4.4375.125-3.19921-.71484-1.23829-1.08204v-105.4375h26.62891v102.75391l-3.89844 3.76563.78516 4.4375 3.11328 3.10546 3-3.10546.76563-4.4375-3.76563-3.76563v-102.7539h4.4414v136.84375l-1.8828.74609-2.5586.91406-4.4375 1.10547-4.4375 1.84766-1.08203.5703-3.0039 4.4375 4.08593 1.82032 4.4375-.1914 4.4375-.38282 2.70313-1.2461 1.73828-2.1289 1.66015-2.3086-.07812-4.4375-1.58203-.74608V311.67188h57.6953v129.23828l-4.4375 1.74218-2.17577 2.16797.05078 4.4414-.22266 4.4375.33203 4.4375-.01562 4.4375 2.03125 2.48438 4.4375-.33203 4.4414-1.88281.26954-.26953 3.53515-4.4375.63281-.6914 3.72657-3.7461-.74219-4.4375-2.98438-2.85156-4.4375-.79297-1.6328-.79688-2.8086-3.91015V311.67187h8.8789v123.0625l-1.61718 1.21094 1.61719 1.21485.76562-1.21485-.76563-1.21094v-123.0625h17.75391v160.90625l-4.4414 1.38282-2.13672 1.92969 2.13671 1.86718 4.44141 1.91797 3.16406-3.78515-3.16406-3.3125V311.67188h66.57031v168.65625H144.00391"/></g><path fill="#50fcfc" fill-rule="evenodd" d="M241.64453 435l-3.55078-3.49219 2.13672-4.4375 1.41406-1.35547v2.9375l-2.05078 2.85547 2.05078 2.01563 4.4375-1.07031.85938-.94532-.85938-1.58594-4.4375-1.26953v-2.9375l4.4375-.23046 1.35156 1.58593 1.66016 4.4375-3.01172 3.3164-4.4375.17579"/><path fill="#00e8fc" fill-rule="evenodd" d="M241.64453 433.52344l-2.05078-2.01563 2.05078-2.85547 4.4375 1.26954.85938 1.58593-.85938.94531-4.4375 1.07032"/><path fill="#50fcfc" fill-rule="evenodd" d="M277.15234 424.21875l-1.60546-1.58984 1.60546-1.57032 4.4375-1.17968 3.34375-1.6875 1.09375-1.08204 1.23829 1.08204 3.19921.71484v1.28125l-4.4375.88281-4.4375 1.36328-.47656.19532.47656.3203 4.4375.78907 4.4375 2.55469 4.4375-1.66016 2.00391-2.0039-2.0039-2.22266-4.4375-.21875v-1.28125l4.4375-.125 3.46484 3.84766-3.46485 3.46484-2.33984.97656-2.09766 2.09375-3.02343-2.09375-1.41407-.73047-4.28125.73047-.15625.0664-.0703-.0664-4.3672-2.85156"/><path fill="#00e8fc" fill-rule="evenodd" d="M281.58984 422.94922l-.47656-.32031.47656-.19532 4.4375-1.36328 4.4375-.88281v2.14063l-.70703.30078.70703.45312 1.96875-.45312-1.96875-.30079v-2.14062l4.4375.21875 2.00391 2.22266-2.0039 2.0039-4.4375 1.66016-4.4375-2.55469-4.4375-.78906"/><path fill="#50fcfc" fill-rule="evenodd" d="M286.02734 459.3789l-.77734-1.24218.77734-1.77735 3.27735-2.66015 1.16015-.40625.64844.40625.85547 4.4375-1.5039 1.1914-4.4375.05079"/><path fill="#00d4fc" fill-rule="evenodd" d="M290.46484 423.08203l-.70703-.45312.70703-.30079 1.96875.30079-1.96875.45312"/><path fill="#50fcfc" fill-rule="evenodd" d="M303.78125 459.95703l-4.08594-1.82031 3.0039-4.4375 1.08204-.57031 4.4375-1.84766 4.4375-1.10547 2.5586-.91406 1.8828-.7461 1.58204.7461.07812 4.4375-1.66015 2.3086-1.73829 2.1289-2.70312 1.2461-4.4375.3828-4.4375.19141m5.76172-37.32812l-.78516-4.4375 3.89844-3.76563v1.01172l-2.85156 2.7539 1.98437 4.4375.86719.8672.83594-.8672 1.91797-4.4375-2.75391-2.7539v-1.01172l3.76563 3.76563-.76563 4.4375-3 3.10546-3.11328-3.10546"/><path fill="#00e8fc" fill-rule="evenodd" d="M311.78906 422.6289l-1.98437-4.4375 2.85156-2.7539v1.6875l-1.10156 1.0664 1.10156 2.00391 1.0664-2.0039-1.0664-1.06641v-1.6875l2.7539 2.7539-1.91796 4.4375-.83594.8672-.86719-.8672"/><path fill="#00d4fc" fill-rule="evenodd" d="M312.65625 420.19531l-1.10156-2.0039 1.10156-1.06641 1.0664 1.0664-1.0664 2.00391"/><path fill="#50fcfc" fill-rule="evenodd" d="M368.33984 458.13672l-.33203-4.4375.22266-4.4375-.05078-4.4414 2.17578-2.16798 4.4375-1.74218v6.29296l-2.28125 2.0586 2.28125.83984 1.08594-.83984-1.08594-2.0586v-6.29296l2.8086 3.91015 1.6328.79688v1.92969l-1.57812 1.71484-2.86328 2.21094-3.64063 2.22656 3.25782 4.4375.3828.45703 4.44142 2.625 2.60546-3.08203 1.83204-2.0039 2.42187-2.4336-2.42188-4.24219-.39843-.19531-4.03906-1.71485v-1.92968l4.4375.79297 2.98437 2.85156.74219 4.4375-3.72656 3.7461-.63282.6914-3.53515 4.4375-.26954.26953-4.4414 1.88281-4.4375.33203-2.03125-2.48437.01562-4.4375"/><path fill="#00e8fc" fill-rule="evenodd" d="M374.41016 458.13672l-3.25782-4.4375 3.64063-2.22656 2.86328-2.21094 1.57813-1.71485v3.52735l-4.26563 2.625 3.20703 4.4375 1.0586.71875.60546-.71875 3.83204-4.1875.25-.25-.25-.4375-4.4375-2.1875v-3.52735l4.03906 1.71485.39844.19531 2.42187 4.24219-2.42188 2.4336-1.83203 2.0039-2.60546 3.08203-4.44141-2.625-.38281-.45703"/><path fill="#fff" fill-opacity="0" fill-rule="evenodd" d="M374.79297 447.20313l-2.28125 2.05859 2.28125.83984 1.08594-.83984-1.08594-2.0586"/><path fill="#00d4fc" fill-rule="evenodd" d="M378.17578 458.13672l-3.20703-4.4375 4.26563-2.625 4.4375 2.1875.25.4375-.25.25-3.83204 4.1875-.60546.71875-1.0586-.71875"/><path fill="#50fcfc" fill-rule="evenodd" d="M383.67188 437.16016l-1.6172-1.21485 1.6172-1.21094.76562 1.21094-.76563 1.21485m13.3125 40.59765l-2.13671-1.86719 2.13671-1.92968 4.44141-1.38281v2.7539l-1.21094.5586 1.21094.63671.53125-.63671-.53125-.5586v-2.7539l3.16406 3.3125-3.16406 3.78515-4.4414-1.91797"/><path fill="#00e8fc" fill-rule="evenodd" d="M401.42578 476.52734l-1.21094-.63671 1.21094-.5586.53125.5586-.53125.63671"/><g clip-path="url(#c)"><path fill="#fff" fill-opacity="0" fill-rule="evenodd" d="M467.9961 480.32813H468V311.67188h-.0039H468v168.65625h-.0039"/></g><g clip-path="url(#d)"><path fill="none" stroke="#000" stroke-linecap="round" stroke-linejoin="round" stroke-miterlimit="10" stroke-width=".5" d="M147.48828 479.91016l-6.97656.83984"/></g><g clip-path="url(#e)"><path fill="none" stroke="#000" stroke-linecap="round" stroke-linejoin="round" stroke-miterlimit="10" stroke-width=".5" d="M146.47266 480.03125l.70312 1.00781"/></g><g clip-path="url(#f)"><path fill="none" stroke="#000" stroke-linecap="round" stroke-linejoin="round" stroke-miterlimit="10" stroke-width=".5" d="M160.8164 480.60547l-7.0039-.55078"/></g><g clip-path="url(#g)"><path fill="none" stroke="#000" stroke-linecap="round" stroke-linejoin="round" stroke-miterlimit="10" stroke-width=".5" d="M159.79688 480.52344l.49218 1.125"/></g><g clip-path="url(#h)"><path fill="none" stroke="#000" stroke-linecap="round" stroke-linejoin="round" stroke-miterlimit="10" stroke-width=".5" d="M174.13672 480.5664l-7.01172-.47656"/></g><g clip-path="url(#i)"><path fill="none" stroke="#000" stroke-linecap="round" stroke-linejoin="round" stroke-miterlimit="10" stroke-width=".5" d="M173.11719 480.5l.5 1.11719"/></g><g clip-path="url(#j)"><path fill="none" stroke="#000" stroke-linecap="round" stroke-linejoin="round" stroke-miterlimit="10" stroke-width=".5" d="M187.28125 479.22656l-6.67188 2.20703"/></g><g clip-path="url(#k)"><path fill="none" stroke="#000" stroke-linecap="round" stroke-linejoin="round" stroke-miterlimit="10" stroke-width=".5" d="M186.3086 479.54688l.89062.84765"/></g><g clip-path="url(#l)"><path fill="none" stroke="#000" stroke-linecap="round" stroke-linejoin="round" stroke-miterlimit="10" stroke-width=".5" d="M200.4414 478.83984l-6.36327 2.97657"/></g><g clip-path="url(#m)"><path fill="none" stroke="#000" stroke-linecap="round" stroke-linejoin="round" stroke-miterlimit="10" stroke-width=".5" d="M199.51563 479.27344l.98046.73828"/></g><g clip-path="url(#n)"><path fill="none" stroke="#000" stroke-linecap="round" stroke-linejoin="round" stroke-miterlimit="10" stroke-width=".5" d="M213.89453 479.17578l-6.63672 2.3086"/></g><g clip-path="url(#o)"><path fill="none" stroke="#000" stroke-linecap="round" stroke-linejoin="round" stroke-miterlimit="10" stroke-width=".5" d="M212.92969 479.51172l.89844.83203"/></g><g clip-path="url(#p)"><path fill="none" stroke="#000" stroke-linecap="round" stroke-linejoin="round" stroke-miterlimit="10" stroke-width=".5" d="M227.27344 481.27344l-6.76563-1.89063"/></g><g clip-path="url(#q)"><path fill="none" stroke="#000" stroke-linecap="round" stroke-linejoin="round" stroke-miterlimit="10" stroke-width=".5" d="M226.28906 481l.26563 1.19531"/></g><g clip-path="url(#r)"><path fill="none" stroke="#000" stroke-linecap="round" stroke-linejoin="round" stroke-miterlimit="10" stroke-width=".5" d="M239.7461 482.75781l-5.08204-4.85547"/></g><g clip-path="url(#s)"><path fill="none" stroke="#000" stroke-linecap="round" stroke-linejoin="round" stroke-miterlimit="10" stroke-width=".5" d="M253.88672 481.33984l-6.73047-2.02343"/></g><g clip-path="url(#t)"><path fill="none" stroke="#000" stroke-linecap="round" stroke-linejoin="round" stroke-miterlimit="10" stroke-width=".5" d="M252.90625 481.04688l.23828 1.20312"/></g><g clip-path="url(#u)"><path fill="none" stroke="#000" stroke-linecap="round" stroke-linejoin="round" stroke-miterlimit="10" stroke-width=".5" d="M267.16797 481.4414l-6.66406-2.22265"/></g><g clip-path="url(#v)"><path fill="none" stroke="#000" stroke-linecap="round" stroke-linejoin="round" stroke-miterlimit="10" stroke-width=".5" d="M266.19922 481.11719l.20312 1.21094"/></g><g clip-path="url(#w)"><path fill="none" stroke="#000" stroke-linecap="round" stroke-linejoin="round" stroke-miterlimit="10" stroke-width=".5" d="M280.49219 481.41016l-6.6836-2.16407"/></g><g clip-path="url(#x)"><path fill="none" stroke="#000" stroke-linecap="round" stroke-linejoin="round" stroke-miterlimit="10" stroke-width=".5" d="M279.51953 481.09766l.21485 1.20703"/></g><g clip-path="url(#y)"><path fill="none" stroke="#000" stroke-linecap="round" stroke-linejoin="round" stroke-miterlimit="10" stroke-width=".5" d="M293.5039 482.09766l-6.07421-3.53516"/></g><g clip-path="url(#z)"><path fill="none" stroke="#000" stroke-linecap="round" stroke-linejoin="round" stroke-miterlimit="10" stroke-width=".5" d="M307.17578 481.23438l-6.78906-1.8125"/></g><g clip-path="url(#A)"><path fill="none" stroke="#000" stroke-linecap="round" stroke-linejoin="round" stroke-miterlimit="10" stroke-width=".5" d="M306.1875 480.97266l.27734 1.1953"/></g><g clip-path="url(#B)"><path fill="none" stroke="#000" stroke-linecap="round" stroke-linejoin="round" stroke-miterlimit="10" stroke-width=".5" d="M320.53125 479.59766l-6.8711 1.46093"/></g><g clip-path="url(#C)"><path fill="none" stroke="#000" stroke-linecap="round" stroke-linejoin="round" stroke-miterlimit="10" stroke-width=".5" d="M319.53125 479.8125l.78906.9375"/></g><g clip-path="url(#D)"><path fill="none" stroke="#000" stroke-linecap="round" stroke-linejoin="round" stroke-miterlimit="10" stroke-width=".5" d="M333.74219 481.44922l-6.66016-2.24219"/></g><g clip-path="url(#E)"><path fill="none" stroke="#000" stroke-linecap="round" stroke-linejoin="round" stroke-miterlimit="10" stroke-width=".5" d="M332.77344 481.1211l.19922 1.21093"/></g><g clip-path="url(#F)"><path fill="none" stroke="#000" stroke-linecap="round" stroke-linejoin="round" stroke-miterlimit="10" stroke-width=".5" d="M341.32813 482.89844l4.79296-5.14063"/></g><g clip-path="url(#G)"><path fill="none" stroke="#000" stroke-linecap="round" stroke-linejoin="round" stroke-miterlimit="10" stroke-width=".5" d="M354.96094 483.16016l4.16015-5.66407"/></g><g clip-path="url(#H)"><path fill="none" stroke="#000" stroke-linecap="round" stroke-linejoin="round" stroke-miterlimit="10" stroke-width=".5" d="M369.48047 483.73047l1.7539-6.80469"/></g><g clip-path="url(#I)"><path fill="none" stroke="#000" stroke-linecap="round" stroke-linejoin="round" stroke-miterlimit="10" stroke-width=".5" d="M381.71094 483.24219l3.92187-5.82813"/></g><g clip-path="url(#J)"><path fill="none" stroke="#000" stroke-linecap="round" stroke-linejoin="round" stroke-miterlimit="10" stroke-width=".5" d="M398.60938 477.21094l-3.2461 6.23437"/></g><g clip-path="url(#K)"><path fill="none" stroke="#000" stroke-linecap="round" stroke-linejoin="round" stroke-miterlimit="10" stroke-width=".5" d="M408.26563 483.1914l4.0703-5.72656"/></g><g clip-path="url(#L)"><path fill="none" stroke="#000" stroke-linecap="round" stroke-linejoin="round" stroke-miterlimit="10" stroke-width=".5" d="M423.71484 483.83984l-.1953-7.02343"/></g><g clip-path="url(#M)"><path fill="none" stroke="#000" stroke-linecap="round" stroke-linejoin="round" stroke-miterlimit="10" stroke-width=".5" d="M439.84375 482.29688l-5.82422-3.9375"/></g><g clip-path="url(#N)"><path fill="none" stroke="#000" stroke-linecap="round" stroke-linejoin="round" stroke-miterlimit="10" stroke-width=".5" d="M453.6211 481.30078l-6.75-1.94531"/></g><g clip-path="url(#O)"><path fill="none" stroke="#000" stroke-linecap="round" stroke-linejoin="round" stroke-miterlimit="10" stroke-width=".5" d="M452.64063 481.01953l.2539 1.19922"/></g><g clip-path="url(#P)"><path fill="none" stroke="#000" stroke-linecap="round" stroke-linejoin="round" stroke-miterlimit="10" stroke-width=".5" d="M466.1289 477.92969l-5.1328 4.80078"/></g><path fill="none" stroke="#000" stroke-linecap="round" stroke-linejoin="round" stroke-miterlimit="10" stroke-width=".5" d="M465.3789 478.625l1.16407.39844"/><g clip-path="url(#Q)"><path fill="none" stroke="#000" stroke-linecap="round" stroke-linejoin="round" stroke-miterlimit="10" stroke-width=".5" d="M147.46094 466.40625l-6.92188 1.21484"/></g><path fill="none" stroke="#000" stroke-linecap="round" stroke-linejoin="round" stroke-miterlimit="10" stroke-width=".5" d="M146.45313 466.58203l.7539.96875m13.6211-.52734l-7.02735-.01953m6.0039.01562l.57423 1.08594m13.72656-.57031l-6.94922-1.04297m5.9375.89062l.41016 1.15625m13.95312-1.65234l-7.02344.2539m6-.21484l.6172 1.0625m13.71093-1.28125l-7 .61328m5.98047-.52343l.66797 1.02734m13.60937-1.5l-6.89062 1.3789m5.89062-1.17968l.77734.94922m13.53516-1.17188l-6.88281 1.42578m5.8789-1.21875l.78516.94532m13.60547-.52344l-7.02734.17187m6.0039-.14843l.60156 1.0703m13.73047-.77734l-7.01172-.46484m5.9922.39844l.5 1.11719m13.83593-1.11329l-7.01563-.33984m5.9961.28906l.52344 1.11328m13.71875-2.0625l-6.82813 1.66016m19.40234-3.10937l-5.35156 4.55859m4.57422-3.89453l1.14063.45312m13.7539 1.65625l-6.95703-.98828m5.94531.84375l.41797 1.15625m11.15235 1.9336l-1.44141-6.87891m10.79688 4.80078l6.47656-2.72266m-5.53516 2.32813l-.94922-.77734m16.8711 3.30859l-.6172-6.9961m12.02735 6.62891l3.1914-6.26172m10.14845 6.27344l3.14062-6.28516m-2.6836 5.3711l-1.22656.03125m12.71485-.33594l5.8789-3.84766m-5.02343 3.28907l-1.07422-.58985m12.96484-.90625l7.01953.26172m-7.01953-.26172l-1.07031-2.20703m14.40234 1.96485l6.98829.74609m-5.97266-.63672l-.45703-1.14062m13.48047 3.5703l5.53515-4.33202m-4.72656 3.70312l-1.1211-.5m16.80079 2.45313l-.8086-6.98047m.69141 5.96484l-1.01172.69531m15.0586.19141l-2.03907-6.72266m1.74219 5.7461l-.8711.86328m16.25782-1.11719l-5.58594-4.26172"/><g clip-path="url(#R)"><path fill="none" stroke="#000" stroke-linecap="round" stroke-linejoin="round" stroke-miterlimit="10" stroke-width=".5" d="M147.38672 452.76563l-6.77344 1.86328"/></g><path fill="none" stroke="#000" stroke-linecap="round" stroke-linejoin="round" stroke-miterlimit="10" stroke-width=".5" d="M147.38672 452.76563l1.6875 1.78515m11.66797-1.6211l-6.85547 1.53907m5.85937-1.3164l.80078.93359m13.58985-.16016l-7.01172-.45312m5.99219.38672l.5039 1.11718m13.78907-.6875l-6.9297-1.17969m6.9297 1.1797l.76953 2.32812m12.58984-2.77344l-7.01953-.29297m7.01953.29297l1.0625 2.21484m12.23047-2.77343l-6.97656.82812m6.97656-.82812l1.40234 2.01562m11.83203-2.46484l-6.8125 1.72656m6.8125-1.72656l1.64844 1.82031m11.72656-1.51953l-6.93359 1.125m6.9336-1.125l1.48437 1.95312m11.8086-2.08593l-6.89063 1.38671m6.89062-1.38671l1.5586 1.89843m11.63672-2.33984l-6.64844 2.27344m6.64844-2.27344l1.79297 1.67578m11.33593-2.11719l-6.27734 3.15235m6.27734-3.15235l2.0039 1.42188m11.25782-1.52344l-6.17187 3.35938m5.27343-2.8711l1.02344.67578m12.73047-1.8203l-5.25 4.67187m12.73437-.89453l6.41016-2.88282m6.71094 2.33594l6.79687-1.78906m6.77344 2.46484l6.28516-3.14062m6.70703 2.1328l6.9336-1.125m7.66796 3.31642l4.35938-5.50782m-3.72657 4.70703l-1.20703-.22265m12.90625-.20313l6.32813-3.0586m-5.40625 2.61329l-.99219-.72266m13.05078-.02734l6.9961-.66406m-6.9961.66406l-1.35156-2.04687m14.75 2.53515l6.83203-1.64453m-6.83203 1.64453l-1.6289-1.83594m15.125 2.39063l6.46874-2.75m-6.46875 2.75l-1.90625-1.54688m15.46094 2.00782l5.98828-3.67188m-5.98828 3.67188l-2.11719-1.2461m16.20313 2.1289l4.44531-5.4414m-3.80078 4.65235l-1.20313-.2422m13.98438 1.1211l4.22656-5.61718m-3.61328 4.79687l-1.21094-.1875"/><g clip-path="url(#S)"><path fill="none" stroke="#000" stroke-linecap="round" stroke-linejoin="round" stroke-miterlimit="10" stroke-width=".5" d="M147.09766 438.73047l-6.19532 3.3086"/></g><path fill="none" stroke="#000" stroke-linecap="round" stroke-linejoin="round" stroke-miterlimit="10" stroke-width=".5" d="M147.09766 438.73047l2.03906 1.36719m11.33203-1.26563l-6.30469 3.10156m6.30469-3.10156l1.98828 1.4336m11.66406-.28125l-6.98047.80078m6.98047-.80078l1.39063 2.01953m11.94531-1.77344l-7.02344.3086m7.02344-.3086l1.2461 2.11328m12.0703-1.83203l-7.02343-.2539m7.02344.2539l1.07031 2.20703m12.03516-1.13281l-6.60547-2.40235m5.64453 2.05079l.16797 1.21484m14.07812-.79297l-6.54687-2.54687m5.59375 2.17578l.14453 1.21875m14.32812-1.625l-6.95703-.9922m5.94531.84767l.41797 1.15234m13.91407-1.04688l-6.96875-.91015m5.95703.77734l.42969 1.14844m13.92578-1.52734l-7.02344.10937m7.02344-.10938l1.1875 2.14844m11.80078-3.57812l-6.36719 2.97265m6.36719-2.97265l1.95703 1.47656m11.36719-1.45703l-6.38672 2.92969m5.45703-2.50391l.97656.7461m13.15625-1.39454l-6.16406 3.375m5.26562-2.88281l1.02735.67578m13.1836-1.16797l-6.16016 3.3789m5.26562-2.88671l1.02344.67188m12.20312-2.29688l-4.1914 5.64063m12.80468-5.17579l5.21094 4.71485m7.69922-.54688l6.01953-3.6211m-5.14453 3.09376l-1.05078-.63281m14.26172 2.05468l4.48047-5.41406m-3.82813 4.625l-1.20312-.2461m12.60156-1.39843l7.00781-.54688m-5.98828.46875l-.66016-1.03515m12.94922.71484l7.01953.25m-7.01953-.25l-1.07812-2.20312m14.42578 2.83984l6.95312-1.02344m-6.95312 1.02344l-1.45313-1.97656m15.09375 3.01562l6.3047-3.10156m-6.3047 3.10156L418.47266 440.5m2.91015.98437l-.9961-.71875m13.64454 1.60157l5.80078-3.96875m-5.80078 3.96875l-2.17187-1.13672m3.01562.5586l-1.08594-.56641m13.83594 1.5l5.24219-4.6797m-5.24219 4.6797l-2.30078-.84766m15.6914.92969l5.09376-4.83985m-4.35547 4.13282l-1.16407-.38672"/><g clip-path="url(#T)"><path fill="none" stroke="#000" stroke-linecap="round" stroke-linejoin="round" stroke-miterlimit="10" stroke-width=".5" d="M146.98828 425.22266l-5.97656 3.6914"/></g><path fill="none" stroke="#000" stroke-linecap="round" stroke-linejoin="round" stroke-miterlimit="10" stroke-width=".5" d="M146.98828 425.22266l2.1211 1.23828m-2.98829-.70313l1.0586.6211m13.30469-.82813l-6.33985 3.03516m6.33984-3.03516l1.97266 1.45703m11.65625-.38672l-6.96875.89454m6.96875-.89454l1.42188 2.00391m11.80859-.65625l-6.79688-1.80078m6.79688 1.80078l.5586 2.38672m12.49609-1.70703l-6.27735-3.16016m5.36328 2.69922l.02735 1.22656m12.0586 1.02344l-1.98829-6.73828m1.69922 5.75781l-.875.85938m15.04688-.10157l-3.125-6.29297M225 429.30079l-.71484.9961m14.6914-.19141l-3.53906-6.07422m3.02344 5.1875l-.64844 1.04688m15.2539-.77344l-5.08984-4.84766m4.34766 4.14063l-.32813 1.18359m14.67188-.82031l-5.66406-4.16016m4.83984 3.55469l-.17578 1.21484m14.98047-2.3711l-6.9961-.6328m5.98047.53906l.47656 1.1289m13.64454-2.58984l-6.57813 2.47266m6.57813-2.47266l1.83984 1.625m11.6836-.0625l-6.9961-.65234m5.98047.5586l.47265 1.1328m13.60547-2.71875l-6.48437 2.70704m5.53906-2.3125l.94922.77734m12.51172-2.34375l-4.89063 5.05078m4.1797-4.3164l1.17968.33984m6.91797 1.89453l6.96875-.88672m-5.95703.75781l-.70704-1.0039m12.98047.73047l7.02735-.08204m-6.0039.07032l-.58985-1.07422m13.02734 2.04687l6.73438-2.0039m-5.75391 1.71484l-.85938-.875m13.41407 1.72656l6.29297-3.1289m-5.375 2.67187l-1-.71484m15.17578-3.6289l2.73828 6.47265m-2.33985-5.53125l.77344-.95313m12.33985-.0664l2.34375 6.6289M420.67969 429l5.8711-3.85937M420.67968 429l-2.15235-1.17969m15.125.51172l6.5586-2.52734m-6.5586 2.52734l-1.85156-1.60937m15.2461 1.79687l6.39843-2.90234m-6.39844 2.90234l-1.9453-1.4961m2.875 1.07423l-.96876-.7461m14.21094 2.33594l4.6836-5.23828m-4 4.47656l-1.19141-.29297"/><g clip-path="url(#U)"><path fill="none" stroke="#000" stroke-linecap="round" stroke-linejoin="round" stroke-miterlimit="10" stroke-width=".5" d="M147.01563 411.94922l-6.03125 3.60547"/></g><path fill="none" stroke="#000" stroke-linecap="round" stroke-linejoin="round" stroke-miterlimit="10" stroke-width=".5" d="M147.01563 411.94922l2.10156 1.26953m-2.98047-.74219l1.05078.63281m13.35938-.73437l-6.46485 2.7539m6.46484-2.7539l1.91016 1.54297m11.25781-1.84766l-6.16797 3.36328m6.16797-3.36328l2.04688 1.35156m11.54687-.67968l-6.72656 2.02343m5.75-1.73046l.86328.87109m13.55078.29297l-6.97265-.89063m18.59375 3.46875l-3.58203-6.04687m13.35156 6.0664l3.50781-6.08984m-2.9961 5.20703l-1.22655-.04297m14.48828 1.14844l2.58984-6.53125m-2.21484 5.58203l-1.21875.13281m17.14843.62891l-3.38672-6.15625m3.38672 6.15625l-1.34375 2.05469m14.41016-1.92969l-2.89063-6.40625m2.46875 5.47266l-.75.97265m15.5547-.78515l-5.02344-4.91407m4.28906 4.19922l-.34375 1.17578m15.11719-4.28125l-6.47657 2.72266m5.53516-2.32422l.95312.77344m13.5625-.14062l-6.99609.66406m5.98047-.5664l.67578 1.02343m13.52734-1.79297l-6.73828 2.00781m5.75781-1.71484l.85938.875m12.55078-2.64844l-4.96875 4.96875m17.03516-5.77344l-2.46875 6.57813m2.10937-5.6211l1.21485-.16015m13.125-.46485l-3.80079 5.91016m3.25-5.04687l1.22266.10156m9.21094-1.17188l3.0625 6.32422m-2.61719-5.40234l.72656-.99219m10.57032 1.58594l6.20703 3.29297m-5.30469-2.8125v-1.22656m13.33984-.36329l4.35547 5.51563m-3.72265-4.71094l.49218-1.125m17.5625 1.61328l-6.38671 2.92969m6.38671-2.92969l1.94922 1.48828m10.85938-2.28515l-5.3789 4.52344m5.3789-4.52344l2.27734.91797m-3.0586-.25782l1.13673.45704m12.61328-1.47657l-4.6836 5.23828m4.6836-5.23828l2.38281.58594m-3.0625.17578l1.1914.29297m13.35548-.42578l-5.78907 3.98047m5.78906-3.98047l2.1797 1.13281m5.625 3.20313l5.23437-4.6875m-4.47266 4.0039l-1.15234-.42187"/><g clip-path="url(#V)"><path fill="none" stroke="#000" stroke-linecap="round" stroke-linejoin="round" stroke-miterlimit="10" stroke-width=".5" d="M146.92188 398.48438l-5.84375 3.90625"/></g><path fill="none" stroke="#000" stroke-linecap="round" stroke-linejoin="round" stroke-miterlimit="10" stroke-width=".5" d="M146.92188 398.48438l2.16015 1.16015m10.73828-1.66797l-5.01172 4.92188m5.01172-4.92188l2.33985.73828m-3.06641-.02343l1.16797.37109m11.9336-1.76953l-3.12891 6.29297m3.1289-6.29297l2.45313-.0664m-2.91016.98046l1.22656-.03125m8.64063-.35937l4.67969 5.24218m-4-4.48046l.42578-1.14844M194 399.1328l6.52344 2.60938m-5.57422-2.23047l-.13281-1.21875m12.24609 2.08203l7.02734.1289m-6.0039-.11327l-.5586-1.09375m19.66797-.05079l-6.60937 2.38282m5.64844-2.03516l.91015.82422m12.33594-2.65625l-4.55078 5.35547m4.55078-5.35547l2.39844.52344m6.20703 4.6875l4.86719-5.07032m-4.8672 5.07032l-2.35937-.66797m18.91797 1.55078l-1.61719-6.83594m1.38282 5.84375l-.92188.8086m16.75781-1.57032l-6.1914-3.32422m5.28906 2.83985l-.0039 1.22656m13.21874-5.23047l-4.18359 5.64844m14.23047-6.13672l2.34766 6.625m-2.00391-5.66016l.82812-.90234m11.26172.40234l4.11719 5.69532m-3.51953-4.8672l.53906-1.10155m16.29297.27343l-4.11328 5.69532m3.51172-4.8672l1.21875.16798m12.6836-1.0039l-4.08985 5.71483m3.4961-4.8828l1.21484.16015m13.98046.7461l-6.66015 2.23437m5.6914-1.91016l.89063.84375m13.08594 1.73828l-6.04688-3.57812m6.04688 3.57812l-.10938 2.45313m13.82813-5.02344l-6.85157 1.5625m6.85157-1.5625l1.60547 1.85938m-2.60157-1.63282l.80078.92969m13.20704-1.98047l-6.2461 3.21485m6.2461-3.21485l2.01562 1.39844m-2.92187-.9336l2.01562 1.39844m12.20703-1.86328l-6.25 3.21094m6.25-3.21094l2.01563 1.40235m-2.92578-.9336l1.0078.69922m11.5547-2.75781l-2.92579 6.39062m2.92579-6.39062l2.44921-.14453m10.5625.02343l-2.3164 6.63282m2.3164-6.63282l2.42579-.37109m12.40234 1.40625l-5.34375 4.5625m5.34375-4.5625l2.28516.89844m-3.0625-.23438l1.14062.44922m12.77734-1.30469l-4.99218 4.94532"/><g clip-path="url(#W)"><path fill="none" stroke="#000" stroke-linecap="round" stroke-linejoin="round" stroke-miterlimit="10" stroke-width=".5" d="M466.0586 397.96484l2.34374.73047"/></g><g clip-path="url(#X)"><path fill="none" stroke="#000" stroke-linecap="round" stroke-linejoin="round" stroke-miterlimit="10" stroke-width=".5" d="M146.57813 384.73828l-5.15625 4.76953"/></g><path fill="none" stroke="#000" stroke-linecap="round" stroke-linejoin="round" stroke-miterlimit="10" stroke-width=".5" d="M146.57813 384.73828l2.3164.8086m10.4961-1.25782l-4.15235 5.66797m4.15234-5.66797l2.4297.35156m10.83593-.38671l-4.05078 5.73828m4.05078-5.73828l2.4336.30468m-3.02344.52735l2.43359.3086m12.76172.5664l-6.63281 2.32422m6.6328-2.32422l1.80079 1.66406m-2.76563-1.32422l1.80079 1.66406m12.4414-2.10546l-6.5586 2.52734m6.5586-2.52735l1.85547 1.60547m-2.8086-1.23828l.92579.80469m13.53125.64844l-6.9375-1.11328m5.92969.94921l.39843 1.16407m13.69141-.1836l-6.46875-2.74609m6.46875 2.7461l.21484 2.4453m-1.15625-2.84374l.10547 1.22265m14.40625-2.59765l-6.98047.80468m6.98047-.80468l1.39453 2.01953m-2.41015-1.90235l1.39453 2.01954m-2.41016-1.90235l1.39453 2.01953M254 386.625l-6.95703 1m6.95703-1l1.44531 1.98047m-2.46094-1.83594l1.44922 1.98047m11.76172.97656l-4.71875-5.20703m4.03125 4.44922l-.41797 1.15625m10.14453-.05469l3.83204-5.89453m-3.27344 5.03516l-1.22266-.10547m17.73828-4.97266l-3.6875 5.98047m16.38672-6.28125l-2.45703 6.58203m2.45703-6.58203l2.4336-.32031m7.0664 1.23437L319.6836 389.5m-4.42187-4.0625l.3086-1.1875m11.55077 1.64063l6.58204 2.46484m-5.625-2.10547l-.16016-1.21484m18.90625.42578l-6.19531 3.32422m5.29297-2.83985l1.01953.6836m13.39453 1.71875l-6.58985-2.44922m6.58985 2.44922l.32422 2.42968m-1.28516-2.78515l.16406 1.21484m14.32813-2.21875l-7.02344.26953m7.02344-.26953l1.23437 2.1211m-2.25781-2.08204l.61719 1.0586m13.55469-2.03906l-6.6875 2.15234m6.6875-2.15235l1.76171 1.71094m-2.73437-1.39844l1.76172 1.71094m12.25781-2.64062l-6.15234 3.39062m6.15234-3.39062l2.05469 1.33984m-2.94922-.84765l2.05469 1.33984m11.71484-2.46094l-5.27344 4.64453m5.27344-4.64453l2.29688.86719m-3.0625-.1914l2.29687.86718m11.23828-2.04688l-4.17969 5.65235m4.1797-5.65235l2.42577.36329m-3.03515.46093l1.21484.1797m10.65625-1.69142l-.07422 7.02735m.07422-7.02735l2.17969-1.1289m11.57031 1.16015l-.94531 6.96485m.94531-6.96485l2.30078-.85156m12.4961 1.41406l-3.90625 5.83985"/><g clip-path="url(#Y)"><path fill="none" stroke="#000" stroke-linecap="round" stroke-linejoin="round" stroke-miterlimit="10" stroke-width=".5" d="M465.51563 384.20313l2.4414.24609"/></g><path fill="none" stroke="#000" stroke-linecap="round" stroke-linejoin="round" stroke-miterlimit="10" stroke-width=".5" d="M464.94531 385.05469l1.22266.1211"/><g clip-path="url(#Z)"><path fill="none" stroke="#000" stroke-linecap="round" stroke-linejoin="round" stroke-miterlimit="10" stroke-width=".5" d="M145.71484 370.74219l-3.42968 6.13281"/></g><path fill="none" stroke="#000" stroke-linecap="round" stroke-linejoin="round" stroke-miterlimit="10" stroke-width=".5" d="M145.21484 371.63281l1.22657.02735m12.41015-1.01172l-3.07422 6.32031m2.62891-5.39844l1.22656-.04687m13.49219-.1875l-4.98828 4.94531m4.98828-4.94531l2.34375.72656m-3.07031-.00781l1.17187.36328m13.60547.01172l-6.46094 2.75781m6.46094-2.75781l1.91016 1.53906m-2.84766-1.13672l1.90625 1.53906m12.5625-1.23437l-6.89453 1.34375m6.89453-1.34375l1.54688 1.90625m-2.54688-1.71094l1.54297 1.90625m12.80469-.9336l-6.95703-.99218m6.95703.99219l.83594 2.30469m-1.84766-2.44922l.83203 2.30859m13.42578-1.8164l-6.82031-1.6875m6.82031 1.6875l.59766 2.3789m-1.58985-2.625l.29688 1.1914m14.07031-1.23046l-6.9375-1.11719m6.9375 1.11719l.78906 2.32422m12.55078-3.23829l-6.99218.71094m6.99219-.71094l1.36328 2.03907M253 373.55859l.67969 1.01954m13.66797-.71875l-7.02344-.10157m7.02344.10156l1.12109 2.1836m-2.14063-2.19922l.5586 1.09375m13.6289-.11719l-6.73046-2.02344m6.73047 2.02344l.47656 2.40625m-1.45703-2.69922l.24218 1.20313m14.20313-1.96875l-7.02734.09375m7.02734-.09375l1.17969 2.14844m11.72265-3.75391l-6.20312 3.30469m6.20312-3.30469l2.03516 1.36719m-2.9375-.88672l1.01562.6836m13.14454-1.26173l-6.08985 3.5m6.08985-3.5l2.07812 1.30079m-2.96484-.79297l1.03906.65234m13.45703-.50781l-6.67578 2.19531m5.70312-1.875l.88672.84766m13.5664-.32422l-7.0078.5039m7.0078-.5039l1.3047 2.07812m11.98437-1.33984l-6.95703-.96875m5.94531.82812l.42188 1.15235m13.78515-.46094L367 372.77344m6.71484 2.07031l.46094 2.41016m12.9961-3.72266l-7.00391.55469m7.0039-.55469l1.32032 2.0664m11.6211-3.39452l-6.25391 3.21093m6.2539-3.21094l2.01172 1.40235m-2.92187-.9336l2.01171 1.39844m11.88672-2.38672l-5.59765 4.25m5.59765-4.25l2.22657 1.03125m-3.04297-.41406l2.22656 1.03125m11.58203-2.01562l-4.95312 4.98437m4.95312-4.98437l2.34766.71093m-3.07032.01563l2.35157.70703m11.03515-1.94531l-3.65234 6.00781m3.65234-6.00781l2.44922.14062m-2.98047.73438l1.22266.07031m11.80078-1.3086l-2.0039 6.73438m2.0039-6.73437l2.40234-.48829m-2.6953 1.46875l1.20312-.24609m13.55468-.14453l-4.30468 5.55469"/><g clip-path="url(#aa)"><path fill="none" stroke="#000" stroke-linecap="round" stroke-linejoin="round" stroke-miterlimit="10" stroke-width=".5" d="M465.71484 371.03125l2.41797.41797"/></g><path fill="none" stroke="#000" stroke-linecap="round" stroke-linejoin="round" stroke-miterlimit="10" stroke-width=".5" d="M465.08984 371.83984l1.20704.20704"/><g clip-path="url(#ab)"><path fill="none" stroke="#000" stroke-linecap="round" stroke-linejoin="round" stroke-miterlimit="10" stroke-width=".5" d="M145.35547 357.25l-2.71094 6.48438"/></g><path fill="none" stroke="#000" stroke-linecap="round" stroke-linejoin="round" stroke-miterlimit="10" stroke-width=".5" d="M144.96094 358.19531l1.22265-.11328m13.0625-.52344l-3.85937 5.8711m3.29687-5.01953l1.22266.11328m12.4961-1.0625l-3.54298 6.0664m3.02735-5.18359l1.22656.04688m14.03125.64843l-6.39844 2.90625m6.39844-2.90625l1.94531 1.4961m11.57032-.9297l-6.80078 1.77735m6.80078-1.77734l1.66406 1.80078m11.74219-1.32422l-6.98047.82422m6.98047-.82422l1.39453 2.01563m11.84765-.78907l-6.83593-1.6328m6.83593 1.6328l.6172 2.375m12.6289-2.1289l-6.69922-2.1211m5.72656 1.8125l.22266 1.20313m13.80078-.27344l-6.16797-3.36719m5.26953 2.87891l-.01562 1.22656m13.53906-4.99219l-4.78906 5.14063m4.09375-4.39063l1.18359.31641M278.99219 357.5l-3.6836 5.98438m3.14844-5.11329l1.22266.07813m11.01953-1.46094L290.23047 364m.40234-5.99219l1.1211-.5039m13.40625-.2422l-2.75782 6.46095m2.35547-5.51954l1.22266-.10546m13.48437-.19922l-4.73828 5.1875m4.73828-5.1875l2.37891.61328m10.90625-.64063l-4.67969 5.2422m4-4.47657l1.1914.28906m13.60938.0039l-6.29297 3.12891m6.29297-3.1289l1.9961 1.42578m11.45312 1.39844l-6.5586-2.51954m5.60548 2.15235l.14843 1.21875m13.41016.28515l-5.13672-4.79687m5.13672 4.79688l-.64062 2.37109m14.08203-2.51563l-5.39063-4.5078m5.39063 4.5078l-.50782 2.40235m14.41016-5.90235l-6.57031 2.4922m6.57031-2.4922l1.84766 1.6172m10.91797-2.57423l-5.46875 4.41016m5.46875-4.41016l2.2578.96094m-3.05077-.32031l1.125.48047m12.66015-1.47266l-4.82422 5.10938m4.82422-5.10938l2.3672.64844m-3.06642.09375l2.36329.65234m11.80078-1.24219l-5.1211 4.8086m5.1211-4.8086l2.32422.78907m-3.07032-.08985l2.32422.78906m11.35547-1.84375l-4.35547 5.51563m4.35547-5.51563l2.41406.44141m-3.05078.36328l1.20703.21875m13.01172-.78906l-4.89062 5.04688"/><g clip-path="url(#ac)"><path fill="none" stroke="#000" stroke-linecap="round" stroke-linejoin="round" stroke-miterlimit="10" stroke-width=".5" d="M466.00781 357.96875l2.35547.67969"/></g><path fill="none" stroke="#000" stroke-linecap="round" stroke-linejoin="round" stroke-miterlimit="10" stroke-width=".5" d="M465.29688 358.70313l1.17578.33984"/><g clip-path="url(#ad)"><path fill="none" stroke="#000" stroke-linecap="round" stroke-linejoin="round" stroke-miterlimit="10" stroke-width=".5" d="M147.11719 345.55469l-6.23438 3.2461"/></g><path fill="none" stroke="#000" stroke-linecap="round" stroke-linejoin="round" stroke-miterlimit="10" stroke-width=".5" d="M146.20703 346.02734l1.01172.69141m12.9336-1.61328l-5.67579 4.14453m4.85156-3.54297l1.10157.53516m12.54687-1.67969l-4.69531 5.23047m4.01172-4.46875l1.1914.29687m11.96485-1.61718l-3.00781 6.35156m2.5703-5.42969l1.22657-.05469m10.21875-1.11328l1.60547 6.83985m-1.3711-5.84375l.92188-.8086m12.34375-.22656l1.23438 6.91797m-1.0547-5.91016l.96485-.75781m15.75781 1.33203l-5.9375 3.7539m5.07422-3.20702l1.06641.60546m12.76953-1.60937l-5.2539 4.66797m14.38671-5.48438l3.10938 6.30079m-2.65625-5.38282l.71484-.9961m12.00781.15235l3.39063 6.15235m-2.89844-5.25782l.67188-1.02734m12.29297.0586l3.10547 6.30077m-2.65235-5.3828l.71485-.9961M287.70702 345l5.51563 4.35547m-4.71094-3.71875l.21875-1.20703m12.44922.38672l5.20312 4.72265m-4.44531-4.03515l.30078-1.1875m12.21485.54296l5.28515 4.63672m-5.28515-4.63671l.5625-2.38672m13.58984 1.6914l3.60937 6.02735m-3.60937-6.02735l1.26562-2.10156m12.82032 1.75781l2.0703 6.71485m-1.76952-5.73829l.86719-.86718m15.13671.32812l-3.91015 5.83985m3.33984-4.98829l1.22266.1211m13.75781 3.6914l-6.10156-3.48828m5.21484 2.98047l-.03906 1.22656m11.46484 1.03907l-.55078-7.0039m.55078 7.0039L381.87891 352m16.32812-1.52734l-2.4414-6.58985m2.08593 5.63281l-.8164.91407m16.01953-5.4336l-5.5039 4.3672m4.70312-3.73438l1.125.49218m12.73047-1.41796l-4.98438 4.94921m4.98438-4.94921l2.34375.72265m10.35546-1.21875l-3.7539 5.9414m3.7539-5.9414l2.44922.1875m-2.9961.67969l1.22657.08984m13.625-.01953l-5.73047 4.0664m5.73047-4.0664l2.1914 1.09766m-3.02734-.50781l1.09766.55078m12.94922-1.27735l-5.52734 4.33985"/><g clip-path="url(#ae)"><path fill="none" stroke="#000" stroke-linecap="round" stroke-linejoin="round" stroke-miterlimit="10" stroke-width=".5" d="M466.32422 345.00781l2.2461.99219"/></g><path fill="none" stroke="#000" stroke-linecap="round" stroke-linejoin="round" stroke-miterlimit="10" stroke-width=".5" d="M465.51953 345.64063l1.125.49609"/><g clip-path="url(#af)"><path fill="none" stroke="#000" stroke-linecap="round" stroke-linejoin="round" stroke-miterlimit="10" stroke-width=".5" d="M147.34375 332.78125l-6.6875 2.16406"/></g><path fill="none" stroke="#000" stroke-linecap="round" stroke-linejoin="round" stroke-miterlimit="10" stroke-width=".5" d="M147.34375 332.78125l1.76172 1.70703m11.71875-.82812l-7.01563.40625m5.9922-.34766l.64062 1.04688m13.07812-2.89844l-5.78125 3.99219m19.14453-3.92579l-5.875 3.85938m15.80078-5.41406l.90625 6.96875m-.77734-5.95313l1-.71094m11.99219-.27343l1.28906 6.90625m-1.10156-5.90235l.96094-.76562m12.1914-.24219l1.24219 6.91406m-1.0625-5.91015l.96484-.75782m10.26953.76172l5.04297 4.89453m-4.3086-4.17968l.33985-1.1797m11.57813 1.4297l6.3711 2.96484m-5.44532-2.53125l-.0664-1.22656m12.6328.46094l6.01563 3.6328m-5.14063-3.10156l.06641-1.22656m12.3125.80078l6.13672 3.42188m-6.13672-3.42188l.04688-2.45312m13.17968 2.6211l6.31641 3.08593m-6.3164-3.08594l-.08594-2.44922m13.34765 2.5625l6.42188 2.85938m-6.42188-2.85938l-.17187-2.4453m13.46875 2.48827l6.45703 2.77344m-6.45703-2.77344l-.20313-2.44531m13.26172 3.38281l6.96875.89844m-6.96875-.89844l-.86328-2.29687m1.8789 2.42578l-.43359-1.14844m12.78906.71094l6.85938 1.51562m-6.85938-1.51562l-.66015-2.36328m1.65625 2.58594l-.32813-1.1836m12.6875.79297l6.77735 1.85156m-6.77735-1.85156l-.54297-2.39063m1.52735 2.66016l-.26953-1.19531m12.58593.98047l6.8086 1.73828m-6.8086-1.73828l-.58203-2.38281m15.76953 6.41796l3.0625-6.32812m-3.0625 6.32812l-2.45312.08985m16.71484.21094l1.16797-6.9297m-1.16797 6.9297l-2.32812.77343m15.9961-.73437l.46093-7.01172m-.39453 5.99219l-1.11719.5039m17.80469-1.55078l-6.41406-2.875m5.48046 2.45703l.08204 1.22266m13.76171-4.35938l-5.60546 4.23438m4.78906-3.61719l1.11328.51563m12.73437-1.46485l-5.03906 4.89844m5.03906-4.89844l2.33594.75m11.3125-.35156l-5.70703 4.10156"/><g clip-path="url(#ag)"><path fill="none" stroke="#000" stroke-linecap="round" stroke-linejoin="round" stroke-miterlimit="10" stroke-width=".5" d="M466.41406 331.8125l2.19922 1.08594"/></g><path fill="none" stroke="#000" stroke-linecap="round" stroke-linejoin="round" stroke-miterlimit="10" stroke-width=".5" d="M465.58594 332.41016l1.09765.54296"/><g clip-path="url(#ah)"><path fill="none" stroke="#000" stroke-linecap="round" stroke-linejoin="round" stroke-miterlimit="10" stroke-width=".5" d="M147.375 319.57422l-6.75 1.94531"/></g><path fill="none" stroke="#000" stroke-linecap="round" stroke-linejoin="round" stroke-miterlimit="10" stroke-width=".5" d="M147.375 319.57422l1.70703 1.76562m-2.6875-1.48046l.85156.8789m13.32813-1.5l-6.51953 2.6211m6.51953-2.6211l1.8789 1.58203m10.34375-3.03906l-4.33203 5.53125m3.69922-4.72656l1.21094.21484m12.03906-1.44531l-2.9375 6.38281m2.51172-5.45312l1.22266-.07032m9.75-.92968l2.59765 6.52734m-2.21875-5.57813l.79297-.9375m13.01172-.23437l.86328 6.97266m-.73828-5.96094l1.0039-.70313m12.25782-.3164l.71875 6.98828m-.61328-5.97266l1.01953-.6836m11.0664-.02343l2.96485 6.3711m-2.53125-5.44532l.73828-.98047m11.21484.6836l4.82032 5.11328m-4.11719-4.3711l.39453-1.16015m12.3086.33594l4.64062 5.27734m-3.96484-4.51172l.43359-1.14844m11.78516.82032l5.48047 4.40234m-4.6836-3.76172l.23047-1.20703m12.15625.74219l5.74219 4.05078m-4.90625-3.46094l.15625-1.21875m12.10156.98438l6.1836 3.33593m-6.1836-3.33593l.01563-2.45313m13.14062 2.78906l6.5039 2.66407m-5.55859-2.27735l-.1211-1.21875m12.23438 2.38281l7.01563-.4375m-5.99219.375l-.64453-1.04687m13.0586 1.82422l6.77343-1.86719m-5.78906 1.59766l-.84375-.89063m13.08984.78516l6.9414-1.11719m-5.92968.95703l-.74219-.98047m13.16797 1.64454l6.69531-2.125m-6.6953 2.125l-1.75391-1.71485m15.98046 3.1836l4.875-5.0625m-4.16796 4.32812l-1.1797-.33594m14.15235 1.375l4.14453-5.67187m-3.54296 4.84765l-1.21485-.17187m13.04297.05469l5.91797-3.78907m-5.91797 3.78907l-2.14063-1.19922m17.6797 2.74219l1.46484-6.8711m-1.46485 6.8711l-2.35937.67578m17.99219-.97657l-3.16797-6.27343m2.70703 5.35937l-.70703 1.0039m16.40234-2.97656l-7.00781-.49609m5.98828.42188l.5 1.12109m13.1875-3.34375l-5.71094 4.09375"/><g clip-path="url(#ai)"><path fill="none" stroke="#000" stroke-linecap="round" stroke-linejoin="round" stroke-miterlimit="10" stroke-width=".5" d="M466.41797 318.5l2.19922 1.08984"/></g><path fill="#ff3030" fill-rule="evenodd" d="M224.71484 454.33203h7.69141V444.1875h-7.6914v10.14453"/><path fill="azure" fill-rule="evenodd" d="M226.54688 446.01953h.83203v5.73828h3.1953V452.5h-4.02733v-6.48047"/><path fill="#ff3030" fill-rule="evenodd" d="M322.35938 436.57813h7.6914v-10.14454h-7.6914v10.14454"/><path fill="azure" fill-rule="evenodd" d="M324.1914 428.26563h.83204v5.74218h3.19531v.73828h-4.02734v-6.48046"/><path fill="#00f" fill-rule="evenodd" d="M383.80078 436.57813h8.61719v-10.14454h-8.61719v10.14454"/><path fill="azure" fill-rule="evenodd" d="M385.63281 428.26563h.83203v2.82421h3.28907v-2.82421h.83203v6.48046h-.83203v-2.91406h-3.28907v2.91406h-.83203v-6.48046"/><path fill="#ff3030" fill-rule="evenodd" d="M175.89063 396.63281h7.6953v-10.14453h-7.6953v10.14453"/><path fill="azure" fill-rule="evenodd" d="M177.72656 388.32031h.83203v5.74219H181.75v.73828h-4.02344v-6.48047"/><path fill="#00f" fill-rule="evenodd" d="M228.45703 392.19531h8.6211v-10.14453h-8.6211v10.14453"/><path fill="azure" fill-rule="evenodd" d="M230.28906 383.88281h.83594v2.82422h3.28516v-2.82422h.83203v6.48047h-.83203v-2.91406H231.125v2.91406h-.83594v-6.48047"/><path fill="#ffffe0" fill-rule="evenodd" d="M182.28125 339.16797h22.17969v-10.1914h-22.17969v10.1914"/><path fill-rule="evenodd" d="M185.77734 330.8086h.51172v6.29296H185.5v-4.48828h-1.38672v-.55469l.5586-.0664.2539-.05469.22656-.08594.20703-.14453.17188-.20703.14063-.29688.10546-.39453m4.81641 0l.22656.01954.21875.05468.21094.08985.19531.12109.1836.14844.17187.17578.30078.42187.2461.4922.17968.54687.10938.57812.03906.58985-.03906.59375-.10938.58593-.17968.55469-.2461.5-.30078.42969-.17187.17969-.1836.15234-.19531.125-.21094.08984-.21875.0586-.22656.01953-.23047-.01953-.21875-.0586-.20703-.08984-.19922-.125-.1836-.15235-.17187-.17968-.30078-.42969-.24219-.5-.17968-.55469-.11328-.58594-.03516-.59375h.83203l.02734.56641.08203.5039.125.44141.16407.375.1914.30079.21094.22265.22266.13672.22656.04688.22656-.04688.22266-.13672.21094-.22265.1875-.30079.16406-.375.125-.4414.08203-.5039.03125-.56642-.03125-.55859-.08203-.5-.125-.4375-.16406-.36719-.1875-.28906-.21094-.21484-.22266-.13281-.22656-.04297-.22656.04296-.22266.13282-.21094.21484-.1914.28906-.16406.3672-.125.4375-.08204.5-.02734.55858h-.83203l.03516-.58984.11328-.57812.17968-.54688.2422-.49219.30077-.42187.17188-.17578.1836-.14844.19921-.1211.20703-.08984.21875-.05469.23047-.01953m5.08984 0h.50782v6.29297h-.78516v-4.48828h-1.38672v-.55469l.5586-.0664.25-.05469.23046-.08594.20313-.14453.17578-.20703.14063-.29688.10546-.39453m6.8047 1.6211h-.78517l-.05468-.21485-.08203-.18359-.10547-.16016-.1289-.1328-.14845-.10157-.16015-.07422-.16797-.04297-.17188-.01562-.32812.03906-.28906.1211-.2461.1953-.20312.26954-.16016.33593-.11328.40625-.07031.46485-.02344.52734.1875-.20312.1875-.16016.1836-.1211.1875-.08984.1875-.0586.1914-.03905.40234-.02344.3047.03125.3203.09375.31641.15234.29688.22266.2539.28125.19922.35156.07031.19922.05469.21875.02734.23438.00782.2539-.78907.04297-.02734-.25781-.07813-.25-.12109-.23438-.16016-.21094-.1953-.17578-.21876-.14062-.23828-.08594-.25781-.03125-.2539.03125-.2422.08594-.21875.14062-.1914.17579-.16016.21093-.125.23438-.07812.25-.02344.25781.02344.26172.07812.25.125.23437.16016.21094.1914.17578.21875.13672.2422.08985.2539.03125.25781-.03125.23828-.08985.21875-.13672.19531-.17578.16016-.21094.1211-.23437.07812-.25.02734-.26172.78907-.04297-.03125.36719-.09375.375-.15625.35547-.22266.32812-.29297.28516-.16797.11719-.1875.10156-.20703.08594-.22266.05859-.24218.03906-.26172.01563-.28125-.01563-.26172-.05078-.23828-.07422-.21484-.10547-.19532-.1328-.17187-.15626-.15625-.17969-.13281-.19921-.1172-.22266-.10155-.24219-.14454-.53515-.08593-.59375-.02735-.64063.03906-.74219.11329-.66406.1875-.57813.12109-.2539.13672-.23438.15234-.20703.17188-.17969.1836-.15625.20312-.1289.21875-.10156.23047-.07422.25-.04297.26171-.01563.3672.03125.33202.09766.29297.15234.25781.19922.21094.23828.16406.27735.1172.30078.0625.32422"/></g></defs><use xlink:href="#aj"/></svg>