<svg xmlns="http://www.w3.org/2000/svg" role="img" xmlns:xlink="http://www.w3.org/1999/xlink" viewBox="142.45 309.95 326.84 171.84"><defs><clipPath id="a"><path d="M144 311.67188h1v168.65625h-1zm0 0"/></clipPath><clipPath id="b"><path d="M144 311.67188h324v168.65625H144zm0 0"/></clipPath><clipPath id="c"><path d="M389 477h7v3.32813h-7zm0 0"/></clipPath><clipPath id="d"><path d="M391 479h3v1.32813h-3zm0 0"/></clipPath><clipPath id="e"><path d="M467 311.67188h1V473h-1zm0 0"/></clipPath><clipPath id="f"><path d="M144 479h4v1.32813h-4zm0 0"/></clipPath><clipPath id="g"><path d="M147 479h3v1.32813h-3zm0 0"/></clipPath><clipPath id="h"><path d="M146 479h2v1.32813h-2zm0 0"/></clipPath><clipPath id="i"><path d="M153 479h9v1.32813h-9zm0 0"/></clipPath><clipPath id="j"><path d="M160 479h3v1.32813h-3zm0 0"/></clipPath><clipPath id="k"><path d="M159 479h2v1.32813h-2zm0 0"/></clipPath><clipPath id="l"><path d="M166 479h9v1.32813h-9zm0 0"/></clipPath><clipPath id="m"><path d="M173 479h3v1.32813h-3zm0 0"/></clipPath><clipPath id="n"><path d="M180 479h8v1.32813h-8zm0 0"/></clipPath><clipPath id="o"><path d="M187 479h2v1.32813h-2zm0 0"/></clipPath><clipPath id="p"><path d="M193 479h9v1.32813h-9zm0 0"/></clipPath><clipPath id="q"><path d="M200 479h3v1.32813h-3zm0 0"/></clipPath><clipPath id="r"><path d="M206 479h9v1.32813h-9zm0 0"/></clipPath><clipPath id="s"><path d="M213 480h3v.32813h-3zm0 0"/></clipPath><clipPath id="t"><path d="M220 479h8v1.32813h-8zm0 0"/></clipPath><clipPath id="u"><path d="M227 480h2v.32813h-2zm0 0"/></clipPath><clipPath id="v"><path d="M233 479h8v1.32813h-8zm0 0"/></clipPath><clipPath id="w"><path d="M240 480h2v.32813h-2zm0 0"/></clipPath><clipPath id="x"><path d="M246 479h9v1.32813h-9zm0 0"/></clipPath><clipPath id="y"><path d="M253 480h3v.32813h-3zm0 0"/></clipPath><clipPath id="z"><path d="M260 479h8v1.32813h-8zm0 0"/></clipPath><clipPath id="A"><path d="M267 480h2v.32813h-2zm0 0"/></clipPath><clipPath id="B"><path d="M273 479h8v1.32813h-8zm0 0"/></clipPath><clipPath id="C"><path d="M279 480h2v.32813h-2zm0 0"/></clipPath><clipPath id="D"><path d="M287 478h7v2.32813h-7zm0 0"/></clipPath><clipPath id="E"><path d="M300 477h7v3.32813h-7zm0 0"/></clipPath><clipPath id="F"><path d="M314 477h6v3.32813h-6zm0 0"/></clipPath><clipPath id="G"><path d="M329 476h3v4.32813h-3zm0 0"/></clipPath><clipPath id="H"><path d="M342 476h3v4.32813h-3zm0 0"/></clipPath><clipPath id="I"><path d="M356 476h2v4.32813h-2zm0 0"/></clipPath><clipPath id="J"><path d="M370 476h1v4.32813h-1zm0 0"/></clipPath><clipPath id="K"><path d="M382 476h3v4.32813h-3zm0 0"/></clipPath><clipPath id="L"><path d="M395 476h4v4.32813h-4zm0 0"/></clipPath><clipPath id="M"><path d="M409 476h3v4.32813h-3zm0 0"/></clipPath><clipPath id="N"><path d="M423 476h1v4.32813h-1zm0 0"/></clipPath><clipPath id="O"><path d="M436 476h2v4.32813h-2zm0 0"/></clipPath><clipPath id="P"><path d="M448 476h4v4.32813h-4zm0 0"/></clipPath><clipPath id="Q"><path d="M462 476h3v4.32813h-3zm0 0"/></clipPath><clipPath id="R"><path d="M144 466h4v2h-4zm0 0"/></clipPath><clipPath id="S"><path d="M144 452h4v3h-4zm0 0"/></clipPath><clipPath id="T"><path d="M144 439h4v2h-4zm0 0"/></clipPath><clipPath id="U"><path d="M144 426h4v2h-4zm0 0"/></clipPath><clipPath id="V"><path d="M144 412h4v4h-4zm0 0"/></clipPath><clipPath id="W"><path d="M466 412h2v3h-2zm0 0"/></clipPath><clipPath id="X"><path d="M465 412h3v3h-3zm0 0"/></clipPath><clipPath id="Y"><path d="M144 398h4v5h-4zm0 0"/></clipPath><clipPath id="Z"><path d="M466 399h2v3h-2zm0 0"/></clipPath><clipPath id="aa"><path d="M144 385h4v5h-4zm0 0"/></clipPath><clipPath id="ab"><path d="M466 386h2v4h-2zm0 0"/></clipPath><clipPath id="ac"><path d="M144 371h4v5h-4zm0 0"/></clipPath><clipPath id="ad"><path d="M466 373h2v3h-2zm0 0"/></clipPath><clipPath id="ae"><path d="M144 358h4v5h-4zm0 0"/></clipPath><clipPath id="af"><path d="M144 344h3v7h-3zm0 0"/></clipPath><clipPath id="ag"><path d="M466 345h2v3h-2zm0 0"/></clipPath><clipPath id="ah"><path d="M144 330h1v8h-1zm0 0"/></clipPath><clipPath id="ai"><path d="M144 329h3v2h-3zm0 0"/></clipPath><clipPath id="aj"><path d="M466 332h2v4h-2zm0 0"/></clipPath><clipPath id="ak"><path d="M144 318h4v5h-4zm0 0"/></clipPath><clipPath id="al"><path d="M466 318h2v3h-2zm0 0"/></clipPath><g id="am" clip-path="url(#clip1)"><path fill="#fff" fill-opacity="0" fill-rule="evenodd" d="M0 0h1000v1000H0zm0 0"/><path fill="#d3d3d3" fill-opacity="0" fill-rule="evenodd" d="M162.15234 355.86719l-.23437.29297.0586.23437.11718.17188.17578.23437.29297.34766.11328.0586.11719-.17188.0586-.23438.17577-.17578.46485-.17578h.69922l.23437.29297.28906.8164.0586.17579.17578.23046.35156.23438.69922.69922.17188.17578.23437.34765.23438.41016.28906.58203.41015.46485.23047.23437.23438.17578.11719.23047.17578.29297.17187 1.16406v.23438l.0586.28906.05859.11719.11719.11719.34765.41015.11719.17188.17578.17578.17578.23437.11719.17188.17188.35156.05859.23438.23437.40625.23438-.0586-.17578.17578-.0586.92969h-.58203l-.23437-.11328-.34766.11328-.11719.11719-.05859.29297-.0586.17578-.11718.17187-.46484.29297-.0586.23438-.0586.11328v.64453l.0586.17187v.41016l.0586.0586v.40624l.05859.40625.11719.17579.05859.05859.23047.64062-.0586.29297v.69922l-.05859.58203v.23438l-.0586.23047-.05468.35156v1.92187l.05469.1172h.42578l-.36719.11718-.02344.35156.89063 1.16797 1.74219.53906 1.33984.35938v.53906l.08984.8086.53516.71484 1.51953.26953.89063-.08594.08984 1.16406.53516.1797 1.16015-.1797 2.05469-.98437 1.16016-.36328 1.8789-.17578 1.69531-.1797-.17968.71876-1.51563.08594-1.25.08984-.80469.26953-1.07421.8086.26953.71875.53515.89843-.17968.625-.26563.8086.26563 1.07812.625.89844.80468.17969 1.25-.1797-.26562.72267.09766.5039.05468.29297v.17188l.0586.29296v.40625l.17578.1172.35156.11718h.40625l.29297-.17578.11328-.11719.0586-.11719.11718-.23047.0586-.17578.35156-.46484.23047-.17578.17578-.0586.17578.0586.0586.17578.11718.98828.05469.46875.0586.17188.11718.23437.17578.0586.8164.05859h.28907l.11719.23437.05859.40625.0586.35156v1.10547l.11718.29297.11719.34766.28906.69922.17578.35156.58203.7539.35157.17579.17187.0586.46875.23437.64063.46484.34765.23438.29297.17578.29297.05468.23047.0625.8164.34766.29297.17578.11328.17188.35157.35156.11719.17578.52343.64063v.28906l.0586.35156v.34766l.05859.35156.0586.28906.11718.0586.17188.05859h.17578l.58203.23437.17578.1172.17578.28905.17578.23438.11328.23437.29297.23047.11719.11719v.41016l.0586.05468.28906.23438.23437.11719.0586.11718.11718.17188.0586.11719.23047.23437.05859.17578.23437.0586.1172.05859-.1172.11328-.05859.11719v.11719l-.11719.29296-.11719.28907v.58203l.17579.11719.11718.05859.0586.11719.11719.11719.11328.05859.17578.34765.0586.35157.05858.40625v.17578l-.05859.17578-.11719.69922v.17187l.1172.17579.29296.29296h.40625l.17578.1172.11719.17187.11719.29296v.23438h-.52735l-.23047-.23438h-.23437l-.17578.0586-.0586.69922.0586.34765.11719.17579.17578.41015.11718.23047.28907.46875.17578.05469h.52344l.23437.0586.75781.64062.0586.29296v.23438l.05859.0586.23047.34765v.35156l-.11719.17188v.29297l.29297.28906.29297.17578.17187.0586.29297.17577.29297.1172.58203.40624.28906.23438.29297.17578.21875.16015.01563.01172.23047.17579.64062.52343.17578.23438.1172.17578.17577.17578.11328.17188v.64062l.1172.17578.46874.11719.58203.11719.23438.05859.23047.11328.29297.11719.11328.0586.58593.35156.28907.17187.17578.0625.17578.05469.17578.0586.69922.35155.28906.17579.23438.05468.28906.17578.23437.1172.64063.40624.29297.11719.17187.0586.23438.05859.41015.05859.23047.0586.23438.11718.0586.17188-.41017.17578.46875.0586.0586.29296.11328.23438.17578.05468.23438.0586.17578.05859.40625.11719.64062.23437.11719.17188.0586.23437v.17578l-.0586.1172-.0586.40624.23438.23438.11719.05859.34766.11719.64062.23047.17578.11718.28906.1172.17578.17577.23438.46485.58203 1.10546.17578.17579.34766.17578.17578.11719.35156.11718 1.04688.52344.23437.0586.46485.11327.29297.0586.46484.17578.75781.58203.23438.23438.34765.46484.17578.17578.28907.23438.8164.69921.29297.17579.28906.28906.29297.17578.29297.28906.69531.64063.17578.17578.29297.23437.28907.23438.46875.28906.64062.58203.34766.23438.23437.29297.34766.34765.35156.46485.9336.99218.34765.40625.11719.17579.23437.05859.11328.11719.64454.17578.23047.11328.23437.0586.29297.17577.23047.1172.9336.69921.40624.40625.23438.17578.40625.17578.23437.11719.8164.34766.34766.23437.23438.11719.29297.28906.23047.11719.7578.35156.35157.17188.23047.05859.29297.11719.23437.0586.8711.17577h.8164l.46875.23047.17188.0586.875.69921.46484.1172.29297.05858.17578.0586.23047.0586.46875.05859.34766.05859.35156.0586.40625.05859h.29297l.17187.0586v.23046l.17578.17578h.29297l.34766.0586.35156.05859.69922.11719h.64063l.46484-.23438.29297-.17578.17187-.11719.41016-.17187.28906-.17578.9336-.46485.46875-.29297.52343-.29296.46485-.17188.46484-.17578 1.05078-.46485.28906-.11718.41016-.11719.28906-.11719.52735-.17578 1.51562-.69922.58203-.34765.28907-.0586.29297-.0586.34765-.11718.875-.23047.35156-.11719h.11329l.23437-.05859.875-.23437.23438-.0586h.8125l.35156-.0586.8164-.11718.17188-.0586.35156-.05468.29297-.0586.23047-.05859.8164-.17578.17579-.0586h.34765l.23438-.05859.46484-.11718.75781-.17188.23438-.0586h.34765l.41016-.11718.28906-.0586 1.28516-.05859h.28906l.41016-.0586.23047-.05858h.17578l.875-.1172h.40625l.41015-.11718h.34766l.35156-.11328.8711-.0586h1.75l1.04687.28907.41016.11719.28906.11718.35156.11719.28907.11719 1.05078.17187.28906.0586h.29297l.29297.05859.17187.0586.41016.05859.17187.0586.1172.05858h.11718l.11719.0586.35156.0586h.11328l.41016.0664 1.92187.39453 1.92578.39453 1.51953.44922 1.69532.71875 2.14453.80469 1.60547-.71875 1.42968-.80469 1.16016-1.07813 1.25-.44921 3.03516-.71875 1.875-.35938 2.14453-1.34765 2.23437-1.25391 2.5-1.25781 1.69531-.44922 1.78516-.17969 1.16016-.26953.625.53906 1.33984-.26953.71485-.98828.98437-1.34375.44531-.17969.80469-.35937 1.875-.53907 1.78516-.44921 1.25-.26954 1.16015-.08984 1.69922-.08984 1.96094-.26954 1.25-.08984h.53906l.625-.08984h.89063l2.14453-.17969 2.41015-.17969 2.58985-.08984 1.69531.17969 1.60938.08984 1.42968.35938 1.16016.71875 1.875.98828 1.16015 1.52734.26563.71484.6289.08985.35548.89844.53515.53906.53516 1.52734 1.07422.35938h.53515l-.80469.53515.08985 1.70703.71484 2.69532.89063.80468.89453.98829.71484 1.2578 1.78516.53907 1.51953-.17969.35547 1.34375 1.60937-.80469.98047-.53906.26953.26953.31641-.21484.21875-.14453.80078.44922.44922-.35938h.35547l.53515-.26953.53907-.71875.53515-.26953.625-.98828 1.16016.44922.83984.3711 1.39454.61718 1.6953-.17969h1.60548l1.78515.08985.17969-1.70704.53516-1.34375.80468.26954.4922.84765.40233.40625-.08984.53906v.35938l.71485.44922.71093-.26953h1.42969l.35938.98828.4453 1.25781.71485 1.34375 1.25.6289 1.69531.62891.71485-.17969.17969-.53906.98046-.08984.44922.35937.08594 1.25782-.26563.6289-.53515.17969v.53906l.71484.98438.26563.53906.98437.98828.80078 1.07813-.26562.35937-.08985.89844-.625 2.33203-.35546 2.0664-.08985 1.79298-.17969.71875-.08984.53906v1.4375l-.98047 1.88281-.35937 1.70703-.53516.89844-.80469 1.16797-.26562.53906 2.05469 1.2539.08593.35938-.35546.53906-.08985-.17968v.80859l.08985 1.4375-.44532.71484-1.07422.09375-.26562.71485.53515.89844.8047.71875 1.16015.80859 1.33984.26953.44531.35938-.35546.44921-1.78907-.08984-1.25-.44922-.71484-.71875-.625-.08984-.17578 3.58984-.1875 1.3086h89.35937V311.70313h-55.26953v49.08203l.76172.125 3.28906.54296 2.02344 2.83594v2.7539l2.35156.33204 2.34766.33203h4.05078l-1.3789 4.16016-2.02344.70703-2.02344.70312-.54297.34375-2.59375 1.6172-.1875.11718-2.02344-2.07813-.73046-2.74218-2.67188-2.07813-1.375-3.5-.0664-.08203-1.95704-2.67188 2.75-1.41796v-49.08204H294.42187v91.41407l.1172.03125.1328.01172.07422.07421.10547.04688.08985.0586.08593.05859.08985.0586.29687.29687.0586.08984.03125.11719.02734.11719.01563.13671-.03125.1172-.0586.08983-.0586.08594-.04296.10547-.04688.10156-.02734.1211v.14453l.17578.26953.14844.14844.07422.08594.07422.07421.04296.10547.0625.08985.0586.08593.04297.10547.0586.08985.04687.10156.04296.10547.0586.08594.11719.17968.07421.07422.0625.08594.0586.08984.04297.10547.0586.08985.05858.08593.0625.08985.0586.08984.04297.10156.11719.17969.07421.07422.0586.08594.07422.07421.08984.0586.10547.04687h.14844l.1328-.01562.13282.01562.10156-.04687.07422-.07422.04688-.10156-.01563-.13281v-.14844l-.04687-.10547-.02735-.11719-.04687-.10156-.02735-.1211-.04296-.10156-.0625-.08984-.04297-.10156-.04297-.10547-.03125-.11719-.01563-.13281-.01171-.13672.08593-.0586.0586-.08593.12109-.03125.04297.10547.01562.1328v.1172l.0586.10156.0586.08984.08983.0586.14844.14843.0586.08985.04296.10547-.01171.10156.08593.0586.10547.04687.08594.0586.08984.05858.07422.07422-.11719.02735-.10546.04687-.08594.0586-.07422.07421-.0586.08985-.0625.08594-.02734.12109-.04687.10156-.04297.10547-.03125.11719-.01172.13281-.01563.13281v.14844l.02735.11719.04687.10547.04297.10156.0586.08984.07421.07422.08985.0586.07422.07421.08984.0586.0586.08984.04296.10547.04688.10156.11719.03125.1328.01563h.14845l.11718-.03125.10547.04297.04297.10547.04688.10156.02734.1211L299.5 410l.02734.11719.03125.1211.02735.11718.10547.04297.10156.04687.13281-.01562.14844.14844.0625.08593.07422.07422.07031.07422.08984.0625.10547.04297.10156.04297.1172.03125.13671.01562.11719-.03125.07422-.07422.02734-.11718-.01172-.13282-.03125-.12109-.02734-.11719.04297-.10547h.11719l.08984.0625.11719.02735h.14843l.13282.01562h.14843l.13282.01563.1328-.01563h.14845l.1328-.01562.13282-.01172.13672.01172.11719-.02735.13281-.01562.1914-.0586-.05859.17579-.01562.1328-.02735.1211-.01562.13281-.0586.08594-.1328.01563-.10548.04687-.10546.04297-.1172.03125-.11718.02735-.26563.03125h-.14843l-.13281.01562-.07422.07422.05859.08594.14844.14843.11719.1797.07421.0703.08985.0625.08984.0586.08594.0586.08984.05858.10156.04297.10547.0625.10547.04297.08594.0586.10547.04687.10156.04297.17969.11719.0586.08984-.04298.10156-.04687.10547.01562.13281.22266.22266.0586.08985.04296.10156.03125.1211.04297.10155.01563.13282.03125.11718.01171.13672.03125.11719.14844.14844.10156.04297.10547.04296.1172.03125.1328.01563.13672.01563h.11719l.11719-.03125.08984-.0586.04297-.10547.04688-.10156.04296-.10547.03125-.11719.01172-.1328v-.14845l-.01172-.1328-.01562-.13282-.03125-.11719-.04297-.10547-.04688-.10547-.04296-.10156-.04297-.10547-.01563-.13281.01563-.13281.02734-.11719.03125-.11719.02735-.1211.04687-.10155.08984-.0586.08594-.0625.07422-.07422.08984-.05859.22266-.22266.0586-.08593.07421-.07422.11719-.17969.0586-.08594v-.14844l-.07423-.07421-.10156-.04688-.10547-.04297-.10156-.04297-.0586-.08984-.04687-.10547-.02734-.11719.08984-.05859.11719-.03125.10156-.04297.17969-.11719.14844-.14843.01172-.13282-.01172-.10546-.08985-.0586-.1328.01563h-.14845l-.1328.01562-.13282-.01562-.1211-.03125-.08593-.0586-.07422-.07422-.0586-.08984-.0625-.08594-.11718-.17969-.0586-.08593.03125-.1211.08594-.05859.1211-.03125.05859-.08594v-.1211l-.03125-.11718-.0586-.08984-.05859-.08594-.04687-.10547-.02735-.11719-.01562-.1328.0586-.08985.07421-.07422.08984-.0586.1172-.17968.07421-.07422.0586-.08594.14843-.14844.1211-.03125.1328-.01562.13282.01562.07422.07422.04297.10547.01562.13281-.03125.1172-.11719.03124-.1328.01172-.14844.14844-.04297.10547-.04688.10156-.02734.1211-.03125.11718v.14844l.03125.11719.04297.10546.05859.08985.07422.07031.07422.07422.11719.03125.12109.02734.11719-.02734.1328-.01563h.1172l.08984.0586.07422.07422.04687.10546.0586.08594.10156.04688.13281.01562.10547.04297.08594.0586-.01172.10546-.07422.07422-.17969.11719-.05859.08984-.08984.0586-.07032.07422-.07421.07421-.0625.08985-.02735.11719-.01562.1328.01562.13282-.01562.13281v.14844l.01562.13281.02735.1172.03125.12108.07421.07422.08985.0586.08594.0586.08984.05858.11719.03125v.08594l-.10157.04688-.08984.0586-.26563.03124-.11718.02735h-.14844l-.10547.04296-.10156.04688-.0586.08984-.0625.23438-.01171.13281-.03125.1211-.01563.1328v.29298l-.01172.1328.01172.13673.01563.1328.1328.01563.13282.01172.1211.03125.08593.0586.07422.07421.04688.10547.04296.10157.01563.1328v.44532l-.01563.13281v.44532l.03125.26562.02735.11719.01562.13281.03125.11719.08594.21094.03125.26562v.14844l-.03125.11719-.02734.11718-.03125.1211-.02735.11719-.03125.11718-.03125.1211-.01171.1328-.01563.13282.08984.0586.1172-.03125.10155.01562.04688.10547-.03125.26562v.44141l-.04297.10547-.04688.10547-.04296.10156-.04297.10547-.0586.08594-.03125.12109-.04296.11719-.03125.11719-.01563.1328.01563.13282.05859.08984.10547.04688.08594.0586.05859.08593-.01172.13672-.03125.11719-.04297.10156v.44531l-.01562.13281v.14844l-.03125.11719-.04297.10547-.02735.11719-.04687.10546-.04297.10157-.03125.12109-.02734.11719-.03125.13281-.03125.11719-.02735.11719-.04297.10546-.03125.1172-.03125.12108-.01171.13282-.01563.13281v.29688l.02734.11718v.14844l.04688.39844.02734.11719.0586.08984.12109.03125h.14844l.13281-.01563.0586.08985v.11719l-.0586.08984-.08984.0586-.10157.04296-.10546.04688-.08985.05859-.08594.0586-.13671.01562-.1172-.03125-.1328-.01563-.10157.04688-.0625.08594-.01172.13671-.01562.13282-.03125.11719-.02735.11718-.01562.13281-.03125.1211v.29687l.01563.13282.03125.11718v.14844l.01171.13281v.14844l-.02734.11719-.04688.10156-.02734.1211-.03125.11718-.0586.08985-.07421.07421-.10156.04297-.10547.04688-.11719.02734-.1211.03125-.10156-.04687.0586-.08594.10547-.04688.02734-.11718.03125-.11719.02734-.1211.03125-.11718v-.14844l.01563-.13281-.03125-.11719-.04297-.10547-.10547.01563-.07422.07422-.10156.04296-.08984.0625-.07422.07422-.04297.10157-.01563.1328-.03125.1172L304.25 426l-.03125.11719-.02734.11719-.03125.12109-.02735.11719-.03125.11718-.04297.10547-.08984.0586h-.08984l-.1172-.03125-.03124-.08594.01562-.13672-.03125-.11719v-.14844l-.01171-.1328v-.14844l-.0625-.23438-.02735-.1211-.04297-.10156-.04687-.10546-.0586-.08594-.05859-.08985-.04297-.10546-.0625-.08594-.14844-.14844-.0703-.07422-.10548-.04687-.10547-.04297-.10156-.04297-.29687-.29688-.08985-.07421-.08594-.0586-.10546-.04297-.08985-.0625-.08594-.0586-.10546-.04296-.08985-.0586-.08594-.0625-.07421-.0703-.10547-.04688-.08594-.0586-.10547-.04296-.08984-.0625-.10156-.04297-.10547-.04297-.08594-.0586-.10547-.04687-.10547-.04297-.10156-.04687-.08985-.0586-.10156-.04297-.10547-.04296-.08984-.0625-.11719-.02735-.13281-.01562-.13281.01562H299.75l-.13281.01563-.11719-.03125-.08984-.0586-.07422-.07422-.08985-.05859-.10156-.04688h-.14844l-.12109-.02734-.10156-.04297-.07422-.07422-.11719-.17968-.08984-.0586-.10156-.04297-.08985-.0625-.10547-.04296-.08984-.0586-.08594-.0586-.10547-.04687-.0586-.08594-.05858-.08984-.04297-.10547-.04688-.10156-.07422-.07422-.08594-.0586-.07421-.07421-.08985-.0586-.22265-.22265-.04297-.10547-.03125-.26563.10547-.04296h.14453l.10547.04296.07421.07422.08985.0586.08594.0586.10546.04687.08985.05859.14844.14844.0703.07422.14845.14843.0625.08594.07421.07422.08594.0586.07422.07421.08985.0625.08984.0586.08594.05859.26953.17578.10156.04688.10547.04296.10156.04297.04688-.07421.05859-.08594.07422-.07422.07031-.07422.10547.04297.07422.07422.0586.08984.04296.10156.04688.10547.04296.10547.1211.02735.11719-.02735.07421-.08984.04297-.10547.0586-.08985.07422-.07421.10546-.04297.1172-.02735.1328.01172.08985.0586.14844.14843.05859.08985.04297.10547.04687.10156.04297.10547.04297.10156.10547.04688.10547.04296.13281.01563.08594-.0586.0586-.08984.07421-.07422.10547-.04297.11719.02735.10547.04687.10156.04297.10547.04297.10156.04688.17969.11718v.11719l-.01563.13281.01563.13281.01562.13672.0586.08594.10156.04688.1211.02734.11718.03125h.14844l.11719-.03125.05859-.08984.17969-.1172.05859-.08983.07422-.07422.0586-.08594.11718-.17969.17969-.11719.11719.03125.08984.0586.04297.07422-.01563.1328v.1172l.08985.05859h.14843l.13282-.01563.1328-.01171.26563-.03125.10547-.04297.11719-.03125.1211-.02735.07421-.07421.07031-.07422.0625-.08985-.01562-.10547-.04688-.10156-.10156-.04297-.10547-.01562-.11718.02734-.26563.03125h-.14844l-.07421-.07422-.08985-.0586-.11719-.03124-.11718-.02735-.13282-.01562h-.14843l-.13282.01563h-.29687l-.10547-.04688-.14844-.14844-.04297-.10156-.05859-.08984.22266-.22266.08593-.0586.10547-.04296.11719-.03125.13281-.01563.13281.01563.13672.01562.10157.04297.1328-.01172.08985-.0625.10156-.04297.0625-.08984-.04687-.10156-.08984-.0586-.1172-.03125-.10155-.04296-.0586-.08985-.0625-.08984v-.11719l.01563-.13281.10547-.04688.07421-.07031v-.1211l-.08984-.05859-.03125-.11719.08985-.05859.07421-.07422.04297-.10547.0586-.08984.04687-.10156.01563-.13281v-.14844l-.04688-.10547-.04297-.10156-.08984-.0586-.13281-.01562-.10157-.04297-.13671-.01563-.1172-.03125h-.4453l-.13282-.01562-.13281-.01172-.13281-.01563-.11719-.03125h-.14844l-.13281-.01562-.13281-.01172-.26563-.03125-.1211-.04297-.08593-.0586-.07422-.07421v-.14844l.01172-.13281.10547-.04688.10156-.04296.13281-.01563h.15235l.13281-.01562h.29297l.1211.03125.10156.04296.08984.0586.23438.0625.12109-.04688.08984-.05859.10156-.04297.13282-.01562.10547.04296.10156.04688.13281.01172.1211-.02735h.14453l.12109-.03125.11719-.02734.10547-.04687.07421-.07422.08594-.0586.14844-.14843.0586-.08594.04687-.10547.02734-.11719.01563-.10547-.10156-.04296-.08985-.0586-.11719-.03125-.10546-.04297-.08985-.0625-.07422-.08594-.07422-.07421-.10156-.04297-.10547-.04688-.10156-.04297-.0586-.08984-.04687-.10156-.08594-.21094-.0625-.08594-.05859-.08984-.07422-.07422-.08594-.0586h-.26953l-.11719.03126-.08984.05859-.10156.04297-.13281.01562-.10547-.01562-.02735-.11719-.0625-.08984-.11718-.03125-.10157-.04297-.14843-.14844-.03125-.11719-.01563-.10546.07422-.07422.17969-.1172.11719-.02733.11718-.03125.13672.01562.10156.04297.10547.04297.10156.04687.10547.04297.1172.03125.1328.01563.1172.02734.1328.01563.10547-.01563.08985-.0586-.07422-.07421-.10547-.04297-.07422-.07422-.07422-.08984-.14844-.14844-.08593-.0586-.08985-.05859-.07422-.07422-.08984-.0586-.10156-.04687-.1211-.02734-.10156-.04688-.10547-.04296-.11719-.03125-.10156-.04297-.1211-.03125h-.14843l-.11719.03125-.10546.04297-.08594.0625-.17969.11718-.08594.0586-.08984.0586-.10547.04687-.08594.05859-.10547.04297-.10156.04297-.10547.04687-.07422.07422-.05859.08985-.0586.08593-.04687.10547-.0586.08594-.07421.07422-.13281-.01172-.1172-.03125h-.11718l-.07422.07422-.08984.0586-.07422.07421-.08984.0586-.08594.05859-.10547.04687-.10156.04297-.13672.01563-.10156-.04297-.14844-.14844-.10547-.04688h-.08594l-.10547.04688-.10156.04297-.1211.03125-.11718-.03125-.07422-.07422v-.11719l.03125-.1211.07422-.0703.0586-.08985.07421-.07422.11719-.03125.10547-.04296h.29297l.13281-.01563.13672-.01563.10156-.04296.08985-.0586.10156-.04687.08984-.0586.13281-.01171.08985.05859.13281.01172.08984-.0586.08594-.05859.10547-.04297.08984-.0586.08594-.0625.08985-.05859.14843-.14843.0586-.08594.05859-.08985.10547-.04296.13281-.01563.11719.02735.1211.03125.05859-.0586.05859-.08984.03125-.26563.02734-.11719.10547.01172.13281.01563.10157-.04297.08984-.0586.0586-.08984.07421-.07422.0586-.08984.04687-.10156.01172-.13281-.01172-.13282-.04687-.10547-.14844-.14843-.0586-.08985-.05859-.08594-.04297-.10546v-.44532l.01563-.1328v-.14845l.01172-.1328-.0586-.0586-.08984.0586-.10156-.04298-.17969-.11719-.08594-.05859-.0625-.08984-.0586-.08985-.07421-.07421-.08594-.0586-.1211.03125-.10155.01172-.10547.04688-.08594.05859-.10547.04297-.14844.14844-.08984.05859-.08594.0586-.08984.0625-.10547.04296-.13281.01563v-.1211l.10547-.04297.11718-.03125.07422-.0703.04297-.10548v-.14844l-.02734-.11718-.14844-.14844-.13281-.01563h-.14844l-.11719.03125-.10547.04297-.10156.04297-.08984.0625-.11719.02735-.07422-.07422.01172-.13281-.04297-.10157-.04297-.10547-.08984-.05859-.11719.02734-.1211.03125-.11718.03125-.10156.04297-.1211.03125-.10156.04297-.10547.04297-.08984.0586-.10156.01562v-.11719l.01562-.13281-.0586-.08985-.07421.04297-.14844.14844-.0586.08985-.07421.07421-.04688.10547-.04296.10156-.07422.07422-.0586.08985-.07422.07422-.05859.08593-.07422.07422-.08984.0625-.07422.07031-.07422.07422-.10156.01563-.13281.01562-.10547-.04296v-.1211l.14843-.14844.04297-.10156.0586-.08984.04687-.10156.04297-.10547.0586-.08985.03124-.11719.04297-.10156.03125-.1211.02735-.11718.04687-.10547.04297-.10156.04297-.10547.07422-.07031.08984-.0625.08985-.0586.10156-.04296h.29687l.26563-.03125.10547-.04297-.07422-.07422-.11719-.03125-.10547-.04297-.08984-.0586-.10156-.04687-.08985-.0586-.10156-.04296-.10547-.04297-.08984-.0625-.08594-.0586-.10547-.04296-.10156-.04297-.1211-.03125-.11718-.03125-.10157-.04297L297.5 410.25l-.10156-.04297-.08985-.0586-.04296-.10546-.01563-.13281.10156-.04297.13281-.01563.13672.01563.13282-.01563.10156-.04297.0586-.08984.01562-.10547-.08985-.0586-.07421-.07421-.10157-.04297-.08984-.0586-.14844-.14843-.04297-.10547-.01562-.13281v-.29297l-.0586-.08985-.08984-.05859-.07422-.07422-.04297-.10547-.03125-.11718-.0586-.08985-.07421-.07422-.11719-.02734-.07422-.07422-.08984-.0586-.08984-.0625-.08594-.05859-.07422-.07421-.0586-.08594-.04687-.10547-.08594-.0586-.14843-.14843-.19532-.0586-.1328.01563-.10157.04297-.07422.07422-.04688.10156-.04296.10547-.0586.08984-.0586.08594-.29687.29687-.08984.0586h-.08594l-.0625-.08594-.04297-.10547.03125-.11719.0586-.08984.02734-.11719-.01172-.13281-.08984-.0625-.10547.04688-.11719.02734-.11719.03125-.26953.17578-.10156.04688-.11719.02734-.10546.04687-.08985.0586-.10156.04297-.0586-.08594-.04687-.10547.01563-.13281.04687-.10547.07031-.07422.07422-.07031.0586-.08985v-.14843l-.04297-.10547h-.23829l-.10156.04687-.03125.11719-.02734.11719-.03125.1211-.07422.04296-.13281.01563-.07422-.04688-.04297-.10156-.04297-.10547-.04687-.10156-.04297-.10547-.1211.03125-.10156.04297-.13281.01562-.11719.03125-.10547.04297-.08984.0586-.10156.04687-.1211.02734-.13281.01563-.10156-.04297-.0586-.08985-.04687-.10546-.04297-.10157-.04297-.10546v-.1172l.0586-.08984.08593-.05859.17969-.11719.10156-.04687.10547-.04297.10547-.0586.10156-.04296.08985-.0625.10156-.04297.10547-.0586.10156-.04687.08984-.0586.10547-.04296.10156-.04297.08985-.0625.10156-.04297.13672-.01563.11719.03125.10156.04297.1211.03125.10156.04297.10546.04688.10157.04296.10547.04297.10156.04688.10547.04297.10156.04297.10547.04687.08594.0586.10546.04296.1172.03125.10546.04297.10156.04688.08985.0586.10547.04296.10156.04297.10547.04687.11719.02735.10156.04687.1211.02735h.14843l.08594-.0586.01562-.10156.0586-.08984-.02735-.1172-.07422-.07421-.11719-.17969-.07421-.07422-.08985-.07421-.17969-.1172-.08593-.05859-.10547-.04296-.10156-.04688-.26954-.17578-.05859-.08985-.07422-.07421-.0586-.08985-.04296-.10156-.03125-.11719-.01563-.13672v-.5625l-.01171-.1328-.01563-.13282-.03125-.11719-.01562-.13281-.01172-.13281-.03125-.1211-.22266-.22265-.0586-.08594-.01562-.10547.03125-.11719.13281-.01562v-91.41406H172.9922v1.45312l-.0586.23438-.35156 1.05078-.17187.52343-.1172.34766-.17577.41016-.11719.17187-.23438.29297-.23046.0586h-.35157l-.11718.05859-.23047.40625v.29297l.11719.17578.23046.23047.1172.23437.64062.75781.29297.46485.17578.23437.23047.35156.23437.34766.64063.8164.17578.46485.17187.41016.11719.69531.17578.46875.11719 1.39844.0586.46484v.875l.11718 1.04688v4.78125l-.0586.46484-.35156 1.28125-.17578.52344-.11328.41015-.35156.9297L172.93359 336l-.23437.58203-.11719.17578-.17187.34766-.17578.40625-.35157.8164-.0586.29297-.11327.29297-.11719.28906-.0586.17579-.11718.875-.0586.40625-.05859.11718-.0586.17579-.05859.17187-.23047.52734-.11718.17188v.23437l-.11719.23438-.0586.17187-.17577.58594v.28906l-.0586.17579v.29296l-.0586.11329-.05859.52734v.17187l-.05468.23438v2.6211l-.17578.8164-.1172.17578-.17577.23438-.1172.17187-.11327.23438-.58594.93359-.23047.28906-.29297.46485-.17578.23437-.28906.35156-.35156.69922-.11328.23047-.17579.41016-.17578.23046-.40625.52735-.8164.69922-.29297.17187-.28906.23438-.17579.11719-.17578.17578-.52344.40625-.52734.17578-.17187.17578-.23438.05469-.64062.17578h-.75782m12.21094 31.02344l-1.07422.44921.35938.89454 1.25-.71485.44531-.53906-.98047-.08985"/><path fill="#d3d3d3" fill-opacity="0" fill-rule="evenodd" d="M201.50781 416.59766h-.89453l.44922.6289.98047.35938.80469-.08985.4453-.98828-.17577.08985-.71485-.35547-.89453.35547m154.6211 59.0703l-.0586-.52343v-.29297l.11328-.29297.0586-.23046.46875-.46875h.11328l.11719-.11329.11718-.05859h.17579l.23437-.0586h.34766l.23437.0586.11719.0586.23047.17187.0586.17578.11718.58203v.29297l-.11719.17578-.17187.28906-.17579.17579-.52734.52343-.23047.23438-.11719.0586h-.17578l-.11718-.0586-.40625-.29297-.17579-.11719-.11718-.0586-.0586-.11327-.05468-.1172m6.64062-10.95702l-.0586-.17188v-1.10937l.0586-.17188.17578-.0586.17188-.05858h.17578l.23437-.0586.1172.0586.05858.69921-.05859.17188-.11719.17578-.11718.0586-.23438.52343-.11328.0586h-.23438l-.05859-.1172m9.61328-14.39062l-.11719-.17578v-.69922l.29297-.875.1172-.17187.17577-.35156.11328-.23047.1172-.29297.35155-.75781.1172-.23047.17187-.23438h.17578l.11719-.0586h.64062l.11719.0586.23437.23438.17188.11328.35156.29297.11719.11718.11328.17579v.11328l.11719.05859.11718.11719v.69922l-.05859.17578v.23047l-.0586.17578-.34765 1.05078-.11719.23047-.11719.23437-.11718.0586-.23047.23437-.64063.28906h-.875l-.41015-.11718-.64063-.46485"/><path fill="none" stroke="#bebebe" stroke-linecap="round" stroke-linejoin="round" stroke-miterlimit="10" stroke-width=".5" d="M467.95703 311.69531H144.02734v168.625h323.9297v-168.625"/><g clip-path="url(#a)"><path fill="#fff" fill-opacity="0" fill-rule="evenodd" d="M144 475.89063v4.4375h.0039H144V311.67188h.0039H144v164.21875"/></g><g clip-path="url(#b)"><path fill="#fff" fill-opacity="0" fill-rule="evenodd" d="M144.0039 480.32813V311.67188h4.4336V438.8203l-.65234 1.5625.65234.78125 3.20313-.78125-3.20313-1.5625V311.67187h17.7539v118.48047l-4.4375.90625-.59765.44922-3.01172 4.4375-.82812 2.02735-3.5625 2.41015 3.5625 2.15625.51953 2.28125.86328 4.4414-.19922 4.4375 1 4.4375 2.2539 2.29298 3.1836-2.29297 1.2539-3.38672 4.4375.35547 4.4375-.03125 4.44141-.11719 2.8086-1.25781 1.6289-1.46875 3.01563-2.96875 1.42187-1.14844 2.85547-3.29297 1.58203-2.8711 1.92188-1.5664-1.92188-1.82031-1.38672-2.61719-3.05078-1.50781-4.4375-2.19922-1.38672-.73047-3.05078-1.23437-4.4414.88281-4.4375-.28906-4.4375-.71485V311.67188h48.82422v126.22265l-2.66016 2.48828-.71094 4.4375-1.07031.94531-4.4375-.6914-.91016 4.1875-3.52734 1.91015-4.4375 2.1836-.76953.34375.76953.53125 4.4375 1.88672 4.4375.25 4.4375-1.46485 2.13281-1.20312 2.3086-3.24219 4.4375.13281 4.4375-1.24609.08984-.08203 1.73437-4.4414-1.82422-2.33204-3.77734 2.33203-.66016.58203-.72656-.58203.21875-4.4375-3.92969-2.48828V311.67188h17.75V433.0703l-3.5703 2.875 3.5703 2.50781 2.39454-2.5078-2.39453-2.875V311.67187h8.8789v125.82421l-3.30078 2.88672 3.30078 2.76172 3.00781-2.76172-3.0078-2.88672V311.67188h146.46483v144.92968l-1.625 1.53516-2.8125 2.3711-1.95703 2.0664 1.95704 3.90234.61328.53906-.61329 1.33594-.83984 3.10156.83985 1.11329 1.18359-1.11329 3.2539-2.24609 2.33594-2.1914.41016-4.44141-1.14063-4.4375-1.60546-1.53516V311.67187h79.88671v160.91016l-3.2578 3.3086 3.2578 3.2578v1.1797h-72.47265l-2.97656-2.89844-2.9961 2.89844H144.00391"/></g><path fill="#50fcfc" fill-rule="evenodd" d="M148.4375 441.16406l-.65234-.78125.65234-1.5625 3.20313 1.5625-3.20313.78125m8.8789 1.375l-3.5625-2.15625 3.5625-2.41015.82813-2.02735 3.01172-4.4375.59766-.44922v5.54297l-3.28125 3.78125 2.42968 4.4375.85157 1.9375 1.67578-1.9375 2.76172-2.5625 3.82422-1.875-3.82422-2.53515-4.4375-1.2461v-5.54297l4.4375-.90625 4.4375.71485 4.4375.28906 4.4414-.88281 3.05078 1.23437 1.38672.73047 4.4375 2.19922 3.05078 1.50781 1.38672 2.61719 1.92188 1.82031-1.92188 1.5664-1.58203 2.8711-2.85547 3.29297-1.42187 1.14844-3.01563 2.96875-1.6289 1.46875-2.8086 1.25781-4.4414.11719-4.4375.03125-4.4375-.35547-1.25391 3.38672-3.1836 2.29297-2.2539-2.29297-1-4.4375.19922-4.4375-.86328-4.4414-.51953-2.28126"/><path fill="#00e8fc" fill-rule="evenodd" d="M160.90234 444.82031l-2.42968-4.4375 3.28125-3.78125v2.64453l-.98828 1.13672.98828 1.51172 1.55078-1.51172-1.55078-1.13672v-2.64453l4.4375 1.2461 3.82422 2.53515-3.82422 1.875-2.76172 2.5625-1.67578 1.9375-.85157-1.9375"/><path fill="#00d4fc" fill-rule="evenodd" d="M161.7539 441.89453l-.98827-1.51172.98828-1.13672 1.55078 1.13672-1.55078 1.51172"/><path fill="#50fcfc" fill-rule="evenodd" d="M197.26172 454.23047l-.76953-.53125.76953-.34375 4.4375-2.1836 3.52734-1.91015.91016-4.1875 4.4375.6914 1.07031-.9453.71094-4.4375 2.66016-2.48829 3.92968 2.48828-.21875 4.4375.72656.58203.66016-.58203 3.77734-2.33203 1.82422 2.33203-1.73437 4.4414-.08984.08204-4.4375 1.2461-4.4375-.13282-2.3086 3.24219-2.13281 1.20312-4.4375 1.46485-4.4375-.25-4.4375-1.88672m35.5039-15.77735l-3.5703-2.5078 3.5703-2.875 2.39454 2.875-2.39453 2.5078m8.8789 4.69141l-3.30078-2.76172 3.30078-2.88672 3.00781 2.88672-3.0078 2.76172m142.02733 23.33203l-1.95703-3.90234 1.95704-2.0664 2.8125-2.3711 1.625-1.53516 1.60546 1.53516 1.14063 4.4375-.41016 4.4414-2.33594 2.19141-3.2539 2.2461-1.1836 1.11328-.83984-1.11329.83985-3.10156.61328-1.33594-.61329-.53906"/><g clip-path="url(#c)"><path fill="#50fcfc" fill-rule="evenodd" d="M389.55078 480.32813h2.4414l.5547-.53516.55078.53515h2.42578l-2.97656-2.89843-2.9961 2.89844"/></g><g clip-path="url(#d)"><path fill="#00e8fc" fill-rule="evenodd" d="M391.99219 480.32813l.55469-.53516.55078.53515h-1.10547"/></g><path fill="#50fcfc" fill-rule="evenodd" d="M467.9961 479.14844l-3.25782-3.25781 3.25781-3.3086v1.79297l-1.49218 1.51563 1.49218 1.49218v1.76563"/><path fill="#00e8fc" fill-rule="evenodd" d="M467.9961 477.38281l-1.4922-1.49219 1.4922-1.51562v3.00781"/><path fill="#50fcfc" fill-rule="evenodd" d="M467.9961 477.38281v1.76563l.0039.0039v-1.76562l-.0039-.0039"/><path fill="#00e8fc" fill-rule="evenodd" d="M467.9961 474.375v3.00781l.0039.0039v-3.01562l-.0039.00391"/><path fill="#50fcfc" fill-rule="evenodd" d="M467.9961 472.58203v1.79297l.0039-.0039v-1.79298l-.0039.00391"/><g clip-path="url(#e)"><path fill="#fff" fill-opacity="0" fill-rule="evenodd" d="M467.9961 311.67188H468v160.90625-160.90625h-.0039"/></g><g clip-path="url(#f)"><path fill="none" stroke="#000" stroke-linecap="round" stroke-linejoin="round" stroke-miterlimit="10" stroke-width=".5" d="M147.45313 479.6836l-6.90625 1.28906"/></g><g clip-path="url(#g)"><path fill="none" stroke="#000" stroke-linecap="round" stroke-linejoin="round" stroke-miterlimit="10" stroke-width=".5" d="M147.45313 479.6836l1.53125 1.91796"/></g><g clip-path="url(#h)"><path fill="none" stroke="#000" stroke-linecap="round" stroke-linejoin="round" stroke-miterlimit="10" stroke-width=".5" d="M146.44922 479.8711l.76562.96093"/></g><g clip-path="url(#i)"><path fill="none" stroke="#000" stroke-linecap="round" stroke-linejoin="round" stroke-miterlimit="10" stroke-width=".5" d="M160.79688 479.85547l-6.96485.94531"/></g><g clip-path="url(#j)"><path fill="none" stroke="#000" stroke-linecap="round" stroke-linejoin="round" stroke-miterlimit="10" stroke-width=".5" d="M160.79688 479.85547l1.43359 1.99219"/></g><g clip-path="url(#k)"><path fill="none" stroke="#000" stroke-linecap="round" stroke-linejoin="round" stroke-miterlimit="10" stroke-width=".5" d="M159.78516 479.9961l.71484.99609"/></g><g clip-path="url(#l)"><path fill="none" stroke="#000" stroke-linecap="round" stroke-linejoin="round" stroke-miterlimit="10" stroke-width=".5" d="M174.125 479.97656l-6.99219.70313"/></g><g clip-path="url(#m)"><path fill="none" stroke="#000" stroke-linecap="round" stroke-linejoin="round" stroke-miterlimit="10" stroke-width=".5" d="M174.125 479.97656l1.36328 2.03906"/></g><g clip-path="url(#n)"><path fill="none" stroke="#000" stroke-linecap="round" stroke-linejoin="round" stroke-miterlimit="10" stroke-width=".5" d="M187.45703 480.1914l-7.02344.27344"/></g><g clip-path="url(#o)"><path fill="none" stroke="#000" stroke-linecap="round" stroke-linejoin="round" stroke-miterlimit="10" stroke-width=".5" d="M187.45703 480.1914l1.23438 2.1211"/></g><g clip-path="url(#p)"><path fill="none" stroke="#000" stroke-linecap="round" stroke-linejoin="round" stroke-miterlimit="10" stroke-width=".5" d="M200.76953 480.1875l-7.01953.28516"/></g><g clip-path="url(#q)"><path fill="none" stroke="#000" stroke-linecap="round" stroke-linejoin="round" stroke-miterlimit="10" stroke-width=".5" d="M200.76953 480.1875l1.24219 2.11719"/></g><g clip-path="url(#r)"><path fill="none" stroke="#000" stroke-linecap="round" stroke-linejoin="round" stroke-miterlimit="10" stroke-width=".5" d="M214.08594 480.47266l-7.01953-.28516"/></g><g clip-path="url(#s)"><path fill="none" stroke="#000" stroke-linecap="round" stroke-linejoin="round" stroke-miterlimit="10" stroke-width=".5" d="M214.08594 480.47266l1.0625 2.21093"/></g><g clip-path="url(#t)"><path fill="none" stroke="#000" stroke-linecap="round" stroke-linejoin="round" stroke-miterlimit="10" stroke-width=".5" d="M227.39063 480.6289l-7-.60156"/></g><g clip-path="url(#u)"><path fill="none" stroke="#000" stroke-linecap="round" stroke-linejoin="round" stroke-miterlimit="10" stroke-width=".5" d="M227.39063 480.6289l.96484 2.25782"/></g><g clip-path="url(#v)"><path fill="none" stroke="#000" stroke-linecap="round" stroke-linejoin="round" stroke-miterlimit="10" stroke-width=".5" d="M240.6875 480.79297l-6.96484-.92578"/></g><g clip-path="url(#w)"><path fill="none" stroke="#000" stroke-linecap="round" stroke-linejoin="round" stroke-miterlimit="10" stroke-width=".5" d="M240.6875 480.79297l.85547 2.29687"/></g><g clip-path="url(#x)"><path fill="none" stroke="#000" stroke-linecap="round" stroke-linejoin="round" stroke-miterlimit="10" stroke-width=".5" d="M253.98828 480.89453l-6.9375-1.1289"/></g><g clip-path="url(#y)"><path fill="none" stroke="#000" stroke-linecap="round" stroke-linejoin="round" stroke-miterlimit="10" stroke-width=".5" d="M253.98828 480.89453l.78906 2.32031"/></g><g clip-path="url(#z)"><path fill="none" stroke="#000" stroke-linecap="round" stroke-linejoin="round" stroke-miterlimit="10" stroke-width=".5" d="M267.33984 480.57813l-7.0078-.5"/></g><g clip-path="url(#A)"><path fill="none" stroke="#000" stroke-linecap="round" stroke-linejoin="round" stroke-miterlimit="10" stroke-width=".5" d="M267.33984 480.57813l.9961 2.24609"/></g><g clip-path="url(#B)"><path fill="none" stroke="#000" stroke-linecap="round" stroke-linejoin="round" stroke-miterlimit="10" stroke-width=".5" d="M280.63281 480.78906l-6.96484-.91797"/></g><g clip-path="url(#C)"><path fill="none" stroke="#000" stroke-linecap="round" stroke-linejoin="round" stroke-miterlimit="10" stroke-width=".5" d="M279.6211 480.65234l.42968 1.15235"/></g><g clip-path="url(#D)"><path fill="none" stroke="#000" stroke-linecap="round" stroke-linejoin="round" stroke-miterlimit="10" stroke-width=".5" d="M293.57031 481.97266l-6.21094-3.28907"/></g><g clip-path="url(#E)"><path fill="none" stroke="#000" stroke-linecap="round" stroke-linejoin="round" stroke-miterlimit="10" stroke-width=".5" d="M306.41406 482.65625L301.14844 478"/></g><g clip-path="url(#F)"><path fill="none" stroke="#000" stroke-linecap="round" stroke-linejoin="round" stroke-miterlimit="10" stroke-width=".5" d="M319.39844 482.98047l-4.60547-5.30469"/></g><g clip-path="url(#G)"><path fill="none" stroke="#000" stroke-linecap="round" stroke-linejoin="round" stroke-miterlimit="10" stroke-width=".5" d="M331.48828 483.67188l-2.15234-6.6875"/></g><g clip-path="url(#H)"><path fill="none" stroke="#000" stroke-linecap="round" stroke-linejoin="round" stroke-miterlimit="10" stroke-width=".5" d="M344.20703 483.8086l-.96094-6.96094"/></g><g clip-path="url(#I)"><path fill="none" stroke="#000" stroke-linecap="round" stroke-linejoin="round" stroke-miterlimit="10" stroke-width=".5" d="M356.48438 483.79688l1.11328-6.9375"/></g><g clip-path="url(#J)"><path fill="none" stroke="#000" stroke-linecap="round" stroke-linejoin="round" stroke-miterlimit="10" stroke-width=".5" d="M370.41406 483.84375l-.11328-7.02734"/></g><g clip-path="url(#K)"><path fill="none" stroke="#000" stroke-linecap="round" stroke-linejoin="round" stroke-miterlimit="10" stroke-width=".5" d="M382.89063 483.7539l1.55859-6.85156"/></g><g clip-path="url(#L)"><path fill="none" stroke="#000" stroke-linecap="round" stroke-linejoin="round" stroke-miterlimit="10" stroke-width=".5" d="M395.66406 483.58203l2.64453-6.50781"/></g><g clip-path="url(#M)"><path fill="none" stroke="#000" stroke-linecap="round" stroke-linejoin="round" stroke-miterlimit="10" stroke-width=".5" d="M409.75 483.80078l1.10156-6.9414"/></g><g clip-path="url(#N)"><path fill="none" stroke="#000" stroke-linecap="round" stroke-linejoin="round" stroke-miterlimit="10" stroke-width=".5" d="M423.5 483.83984l.23047-7.02343"/></g><g clip-path="url(#O)"><path fill="none" stroke="#000" stroke-linecap="round" stroke-linejoin="round" stroke-miterlimit="10" stroke-width=".5" d="M437.60547 483.77734l-1.35156-6.89843"/></g><g clip-path="url(#P)"><path fill="none" stroke="#000" stroke-linecap="round" stroke-linejoin="round" stroke-miterlimit="10" stroke-width=".5" d="M451.3711 483.65625L449.1211 477"/></g><g clip-path="url(#Q)"><path fill="none" stroke="#000" stroke-linecap="round" stroke-linejoin="round" stroke-miterlimit="10" stroke-width=".5" d="M464.64453 483.67188l-2.16797-6.6836"/></g><g clip-path="url(#R)"><path fill="none" stroke="#000" stroke-linecap="round" stroke-linejoin="round" stroke-miterlimit="10" stroke-width=".5" d="M147.48438 466.5664l-6.96875.89454"/></g><path fill="none" stroke="#000" stroke-linecap="round" stroke-linejoin="round" stroke-miterlimit="10" stroke-width=".5" d="M147.48438 466.5664l1.41796 2m-2.42968-1.87109l.70703 1m13.55469-1.48437l-6.83985 1.60547m6.83984-1.60547l1.6172 1.84765m-2.60938-1.61328l.80469.92188m13.30468-1.7539l-6.44531 2.80077m6.44531-2.80078l1.92188 1.53125m11.48047-1.3164l-6.6172 2.37109m6.6172-2.3711l1.8125 1.65235m11.42968-1.83594l-6.47265 2.73828m6.47265-2.73828l1.90625 1.54688m11.42188-1.51563l-6.4961 2.67578m6.4961-2.67578l1.89062 1.5664m11.57032-1.13671l-6.78907 1.8164m6.78907-1.8164l1.67187 1.79687m11.70703-1.5039l-6.91797 1.23047m6.91797-1.23047l1.51172 1.9336m11.76172-2.14063l-6.83203 1.64453m6.83203-1.64453l1.625 1.83593m11.76953-1.37109l-6.99219.71484m6.9922-.71484l1.36327 2.03906m11.95703-1.99219l-7 .6211m7-.6211l1.33594 2.0586m11.98438-1.96875l-7.01172.4414m7.01172-.4414l1.28515 2.08984m12.02344-1.5586l-7-.62109m7 .6211l.95703 2.25781m11.95703-.91797l-6.19922-3.30078m5.29688 2.82031v1.22657m12.10547.97656l-1.97266-6.7461m1.6836 5.76563l-.87891.85547m12.67969.16797l1.6328-6.83203m-1.39452 5.83984l-1.1875.3086m14.73828.76562l.6836-6.9961m-.58594 5.97657l-1.13282.46875m13.16797.21875l3.04688-6.33203m-2.60157 5.41015l-1.22656.05078m13.0625.11328l5.11719-4.8164m-5.11719 4.8164l-2.32422-.78906m15.38282.48438l5.6289-4.20703m-5.6289 4.20703l-2.21875-1.04297m16.12109 1.65625l4.45312-5.4336m-4.45312 5.4336l-2.40625-.48047m3.05469-.3086l-1.20313-.24218m14.84375 1.59765l2.5039-6.5664m-2.5039 6.5664l-2.4336.3047m2.80079-1.26173l-1.21875.15235m14.9375 1.0039l.96484-6.96093m-.96484 6.96093l-2.30078.84375m2.4414-1.85937l-1.15234.42187m15.05078.6172l-.48437-7.01173m.48437 7.01172l-2.08203 1.29688m14.79688-1.3086l.71484-6.98828m-.71484 6.98828l-2.26954.92578"/><g clip-path="url(#S)"><path fill="none" stroke="#000" stroke-linecap="round" stroke-linejoin="round" stroke-miterlimit="10" stroke-width=".5" d="M147.44922 453.03125l-6.89844 1.33594"/></g><path fill="none" stroke="#000" stroke-linecap="round" stroke-linejoin="round" stroke-miterlimit="10" stroke-width=".5" d="M147.44922 453.03125l1.54297 1.90625m11.75-2.00781l-6.85547 1.53906m6.85547-1.53906l1.59765 1.86328m11.45703-2.61328l-6.33593 3.03906m6.33594-3.03906l1.97656 1.45703m11.3789-1.375l-6.41406 2.8711m6.41406-2.8711l1.9375 1.50781m11.66407-.44531l-6.98828.75m5.97265-.64063l.6875 1.01563m13.21484-2.46875l-6.1328 3.4336m5.24218-2.9336l1.03125.66406m12.82031-1.67969l-5.42187 4.46875m5.42187-4.46875l2.26953.94141m11.14844-.8125l-5.625 4.21094m5.625-4.21094l2.21875 1.04297m11.375-.60547l-6.1875 3.33203m6.1875-3.33203l2.04297 1.36328m11.26953-1.36719l-6.17969 3.34375m6.1797-3.34375l2.04296 1.35547m11.07422-1.67968l-5.78516 3.99218m5.78516-3.99218l2.17969 1.125m11.03125-1.26563l-5.57813 4.27344m5.57813-4.27344l2.23437 1.01563m11.13672-.94141l-5.6875 4.125m5.6875-4.125l2.20312 1.07812m11.44141-.51953l-6.34766 3.00782m5.42579-2.57032l.98437.73047m13.5-.46094l-6.84375 1.59375m5.84766-1.36328l.8086.92578m13.57421-.74218l-6.98438.76562m5.96875-.65625l.69141 1.01563m13.32422-2.2422l-6.35547 2.9961m5.42969-2.5586l.98437.73438m6.58594.71094l6.98438-.76562m6.35937.96093l6.92969-1.15625m-6.92969 1.15625l-1.49219-1.94921m14.75782 1.33203l7.02734.07812m-7.02734-.07812l-1.125-2.1797m2.14843 2.19142l-1.1289-2.1797m13.53125 3.08204l6.80468-1.75m-6.80468 1.75l-1.65625-1.8125m2.64453 1.55469l-.82422-.90235m13.71484 2.35547l5.67578-4.14453m-5.67578 4.14453l-2.20703-1.07031m3.03516.46875L420.5 454.6328m15.41016 2.42578l2.04296-6.72265m-2.04296 6.72265l-2.40625.47266m14.60156-1.04687l4.28125-5.57032m-4.28125 5.57032l-2.41797-.40625m16.44922.83203l2.85156-6.42188m-2.85156 6.42188l-2.44922.17578"/><g clip-path="url(#T)"><path fill="none" stroke="#000" stroke-linecap="round" stroke-linejoin="round" stroke-miterlimit="10" stroke-width=".5" d="M147.50781 440.17578l-7.01562.41406"/></g><path fill="none" stroke="#000" stroke-linecap="round" stroke-linejoin="round" stroke-miterlimit="10" stroke-width=".5" d="M147.50781 440.17578l1.27735 2.09375m12.01172-1.42578l-6.96485-.92188m6.96484.92188l.85938 2.30078m12.48438-2.61328l-7.01954-.29297m5.9961.25l.53125 1.10547m13.5664.07813l-6.53906-2.57813m5.58594 2.20313l.13672 1.21875m14.35547-1.76954l-6.98828-.72265m6.98828.72265l.92578 2.27344m12.3789-3.08984l-6.96875.90625m6.96875-.90625l1.42188 2.0039m11.66406-2.875l-6.50781 2.64844m6.50781-2.64844l1.88281 1.57422m11.03907-2.29297l-5.71875 4.08594m5.71875-4.08594l2.1953 1.09375m11.02345-1.21875l-5.53125 4.33594m5.53125-4.33594l2.24218.9961m11.09766-.96485l-5.57813 4.27344m5.57813-4.27344l2.23047 1.01953m11.26953-.7539l-5.94922 3.74219m5.08203-3.19532l1.0664.60938m12.9375-1.41406l-5.58983 4.2578m5.58984-4.2578l2.22656 1.02734m11.05078-1.07422l-5.51562 4.35156m5.51562-4.35156l2.2461.98828m11.25-.73828l-5.87891 3.85547m5.8789-3.85547l2.14844 1.17969m11.50391-.52344l-6.55078 2.54297m6.55078-2.54297l1.85547 1.60156m11.41797-1.70312l-6.46875 2.7461m6.46875-2.7461l1.90625 1.54297m11.16406-2.01563l-5.98047 3.6875m5.98047-3.6875l2.11719 1.23828m10.14062-2.32812l-3.86718 5.86719m3.30468-5.01172l1.22266.11328m7.6914.1875l6.0625 3.5586m-5.17968-3.04298l.05078-1.22265m12.75.1914l5.32422 4.58985m-5.32422-4.58985l.54297-2.39453m.23437 3.0625l.26953-1.19922m11.56641 1.8125l6.73047 2.02344m-6.73047-2.02344l-.48047-2.40625m13.89453 4.71485l6.53125-2.58985m-6.53125 2.58985l-1.8711-1.58985m15.17188 1.5547l6.5586-2.52345m-6.5586 2.52344l-1.85156-1.60937m17.88281 3.8164l1.12891-6.9375m11.05469 6.54688l3.39062-6.15625m-3.39062 6.15625l-2.45313-.03516"/><g clip-path="url(#U)"><path fill="none" stroke="#000" stroke-linecap="round" stroke-linejoin="round" stroke-miterlimit="10" stroke-width=".5" d="M147.48047 426.58203l-6.96094.97266"/></g><path fill="none" stroke="#000" stroke-linecap="round" stroke-linejoin="round" stroke-miterlimit="10" stroke-width=".5" d="M147.48047 426.58203l1.4414 1.98438m11.89454-1.23047l-7.00391-.53516m7.0039.53516l.98438 2.25m12.17578-1.4414l-6.6914-2.15235m6.6914 2.15234l.42969 2.41406m12.98438-2.80468L180.5 426.3828m6.89063 1.3711l.70703 2.35156m12.63672-2.52344l-6.94922-1.02734m6.94922 1.02734l.82421 2.3086m12.40235-1.87891l-6.76953-1.88672m5.78515 1.61328l.26172 1.19922m13.49219.19922L221.05078 425m4.85547 3.53516l-.17188 1.21484m14.89844-3.45313l-6.85547 1.54297m5.85938-1.3164l.80078.92968m13.5586-.89843l-6.95313 1.02734m6.95312-1.02734l1.45703 1.97656m11.85547-1.98438l-6.94922 1.04297m6.94922-1.04297l1.46094 1.96875m11.65625-2.72265l-6.55078 2.55078m5.59766-2.17969l.92968.80078m13.42579-.92187l-6.72266 2.05078m5.74219-1.75l.86718.86719m13.28125-1.5625l-6.42968 2.83984m6.42968-2.83984l1.9297 1.51562m11.39452-1.49218l-6.44922 2.79296m6.44922-2.79296l1.91797 1.52734m11.40625-1.5l-6.46875 2.74219m6.46875-2.7422l1.90625 1.54298m11.55469-1.14063l-6.75781 1.9336m5.77343-1.65235l.85157.88282m13.46484-1.10157l-6.79297 1.8086m5.80469-1.54688l.83594.89844m12.51953-2.77344l-4.89844 5.03516m4.1875-4.30469l1.17578.34375m10.46875-2.07031l-.13281 7.02734m.11328-6.0039l1.09375-.5547m14.80469.71876l-5.26172 4.65234m5.26172-4.65234l2.30078.85937m-3.0664-.1836l1.14843.4297m13.42969-.37891l-6.25782 3.19922m5.34766-2.73438l1.0039.70313m12.23438-2.35156l-4.28515 5.5664m4.28515-5.5664l2.42188.40625m7.76172-.9961l1.98046 6.7461m-1.98046-6.7461l1.7539-1.71484m13.9375 1.85937l-2.76953 6.45704m2.76953-6.45704l2.44531-.20312m12.71875 2.0586l-6.46875 2.74609m5.52735-2.34766l.95312.77344"/><g clip-path="url(#V)"><path fill="none" stroke="#000" stroke-linecap="round" stroke-linejoin="round" stroke-miterlimit="10" stroke-width=".5" d="M147.3086 412.57031l-6.6172 2.36719"/></g><path fill="none" stroke="#000" stroke-linecap="round" stroke-linejoin="round" stroke-miterlimit="10" stroke-width=".5" d="M146.34375 412.91406l.91016.82422m13.55859-.32031l-6.9961.67187m6.9961-.67187l1.35547 2.04297m11.8086-.63672l-6.69141-2.14063m6.6914 2.14063l.4375 2.41406m12.78516-2.16015l-6.50781-2.64844m6.5078 2.64844l.25 2.4414m12.8672-2.03125l-6.10938-3.46875m5.21875 2.96485l-.03516 1.22656m12.59375.76172l-2.8164-6.4375m2.40625 5.5l-.76172.96093m12.76172.25782l.63281-7m-.53906 5.98047l-1.13281.47656m13.66797.41015l2.0039-6.73437m-1.71094 5.7539l-1.20312.2422m18.74219-2.64063l-7.02735.01953m6.0039-.01563l.57813 1.08204m13.70703-.47657l-6.92187-1.19531m5.91406 1.01953l.38672 1.16797m13.42578-3.5l-5.89843 3.82031m5.89843-3.82031l2.14453 1.1914m8.96485-2.71484l-1.49219 6.86719m1.27734-5.86719l1.1797-.33593m11.41796-.73829l.375 7.01563m16.0039-5.52344l-5.7539 4.03125m4.91797-3.44531l1.09375.5586m13.48437-.32032l-6.60937 2.38281m5.64844-2.03515l.91015.8203m12.72266-2.27343l-5.32031 4.59375m5.3203-4.59375l2.28517.88672m10.23046-1.57031l-3.72265 5.96094m3.17969-5.09375l1.22656.08593m12.82812-.82031l-4.11718 5.69531m3.51953-4.86718l1.21484.16796m12.65625-1.02734l-4.03125 5.7539m4.03125-5.7539l2.4336.30078m10.74218-.39453l-3.7539 5.9414m3.7539-5.9414l2.44531.1836m-2.99218.68359l1.22265.08984m13.00782-.6875l-4.4922 5.40625m4.4922-5.40625l2.40234.5m-3.05469.28906l2.40235.4961m-3.0547.28906l1.19923.25m12.85156-2.20703l-3.35547 6.17187m3.35547-6.17187l2.45312.01953m-2.9414.8789l2.45312.01954m11.5-.83203l-3.65234 6m3.65234-6l2.44922.14062m-2.98047.73047l1.22657.07031m13.8828.38282l-6.17577 3.35156m6.17578-3.35156l2.04297 1.35546m-2.94141-.86718l2.04297 1.35547m12.32031-1.53125l-6.47656 2.72265"/><g clip-path="url(#W)"><path fill="none" stroke="#000" stroke-linecap="round" stroke-linejoin="round" stroke-miterlimit="10" stroke-width=".5" d="M466.80078 412.39063l1.90235 1.55078"/></g><g clip-path="url(#X)"><path fill="none" stroke="#000" stroke-linecap="round" stroke-linejoin="round" stroke-miterlimit="10" stroke-width=".5" d="M465.85938 412.78906l1.89843 1.55078"/></g><g clip-path="url(#Y)"><path fill="none" stroke="#000" stroke-linecap="round" stroke-linejoin="round" stroke-miterlimit="10" stroke-width=".5" d="M147.09766 398.77734l-6.19532 3.32032"/></g><path fill="none" stroke="#000" stroke-linecap="round" stroke-linejoin="round" stroke-miterlimit="10" stroke-width=".5" d="M147.09766 398.77734l2.03906 1.3672m11.58203-.57423l-6.8086 1.73438m5.82032-1.48047l.82422.90625m13.49219-1.10547l-6.83594 1.625m5.84375-1.38672l.8086.92188m11.46483-3.57813l-2.76562 6.46094m2.36328-5.51953l1.22266-.10547m9.01953-.42969l4.1836 5.64844m-3.57423-4.82422l.52735-1.10938m10.79297 3.60547l6.95703-.99218m-5.94531.84765l-.72266-.99219m15.2461 3.92188l2.51562-6.5586m-2.15235 5.60548l-1.21484.14843m15.1836 1.03125l.48046-7.01172m15.51563 6.03125l-4.8789-5.05468m4.16796 4.3203l-.3789 1.16798m15.16015-1.5l-6.39063-2.92188m5.46094 2.5l.07422 1.22266m14.375-3.14844l-6.80078 1.77344m6.80078-1.77344l1.66016 1.8086m11.51562-2.23438l-6.51953 2.625m6.51953-2.625l1.875 1.58203m-2.82422-1.19922l.9375.78906m13.28907-1.2578l-6.44532 2.80077m6.44532-2.80078l1.91797 1.52735m11.52734-1.1797l-6.70703 2.10157m5.73047-1.79687l.875.86328m8.70703-3.35547l2.71484 6.48047m-2.32031-5.53906l.77344-.94922m10.52343 1.38671l5.96094 3.72266m-5.09375-3.1836l.08594-1.22265m18.35547 4.34766l-6.02735-3.60547m6.02735 3.60547l-.1211 2.44922m13.75782-3.14844l-6.67188-2.21094m6.67188 2.21094l.41015 2.42187m12.35938-5.66015l-5.58203 4.26953m5.58203-4.26953l2.23047 1.01953m-3.04297-.39844l1.11719.51172m13.57421-.04297l-6.70703 2.08594m6.70703-2.08594l1.7461 1.72656m11.52344-1.86328l-6.6172 2.35938m6.6172-2.35938l1.8125 1.65625m10.76953-2.86719l-5.14844 4.78516m5.14844-4.78515l2.3164.80078m-3.0664-.10547l1.16015.40234m13.00782-.98047l-5.35547 4.54688m5.35547-4.54688l2.28125.90625m-3.0586-.2461l1.14063.45313m13.51562-.1914l-6.48437 2.70312m6.48437-2.70312l1.89844 1.55469m-2.83984-1.16016l1.89453 1.55469m12.53515-1.42188l-6.83203 1.64844"/><g clip-path="url(#Z)"><path fill="none" stroke="#000" stroke-linecap="round" stroke-linejoin="round" stroke-miterlimit="10" stroke-width=".5" d="M466.97656 399.61328l1.6289 1.83594"/></g><path fill="none" stroke="#000" stroke-linecap="round" stroke-linejoin="round" stroke-miterlimit="10" stroke-width=".5" d="M465.98438 399.85547l1.625 1.83594"/><g clip-path="url(#aa)"><path fill="none" stroke="#000" stroke-linecap="round" stroke-linejoin="round" stroke-miterlimit="10" stroke-width=".5" d="M147.00781 385.30469l-6.01562 3.63672"/></g><path fill="none" stroke="#000" stroke-linecap="round" stroke-linejoin="round" stroke-miterlimit="10" stroke-width=".5" d="M147.00781 385.30469l2.10547 1.25781m-2.98047-.73047l1.05078.6289m13.1172-1.1914l-5.97267 3.70703m5.97266-3.70703l2.1211 1.23438M172.96483 384.5l-4.67187 5.25m4.67187-5.25l2.38672.57813m9.82813-1.2461l-2.46875 6.58203m2.46875-6.58203l2.4336-.3164m-2.79298 1.27343l1.21485-.15625m12.55078-.76172l-2.65235 6.50782m2.65235-6.50782l2.4414-.25m12.78516 4.8711l-6.47266-2.73828m6.47266 2.73828l.21875 2.4414m13.35938-3.51171l-7-.59766m7 .59765l.96484 2.25782m-1.98438-2.34375l.96485 2.25781m13.32812-3.08203l-6.91797 1.22265m6.91797-1.22265l1.51172 1.9336m-2.51562-1.75391l1.5078 1.93359m12.85938-1.71875l-7.01172.4336m7.01172-.4336l1.28516 2.08984m-2.30469-2.02734l.64063 1.04688m13.69922-.89063h-7.02735m7.02735 0l1.15234 2.16406m12.14063-2.57031l-6.98047.8086m6.98047-.8086l1.39453 2.01953m11.73828-2.80078l-6.61328 2.375m6.61328-2.375l1.8164 1.64844m11.66407-.98828l-6.94922 1.05078m6.94922-1.05078l1.46484 1.97265m-2.47266-1.82031l.73047.98828m13.33203-2.03515l-6.42578 2.83984m6.42578-2.83985l1.9297 1.51563m-2.86329-1.10156l.96484.75781m13.4961-.53125l-6.85156 1.5586m6.85156-1.5586l1.60547 1.85938m-2.60157-1.63282l1.60157 1.85938m12.36718.3789l-6.16796-3.37109m6.16796 3.3711l-.02734 2.45312m-.86719-2.94531l-.01562 1.22656m14.39062-1.08203l-6.4961-2.67578m6.4961 2.67578l.24219 2.4414m13.21094-4.71093l-6.77344 1.86328m6.77344-1.86328l1.6875 1.78125m-2.67188-1.51172l.84375.89453m13.25782-1.71094l-6.375 2.95703m6.375-2.95703l1.95703 1.48047m-2.88672-1.05078l.98047.74219m13.03906-1.57813l-5.92578 3.76953m5.92578-3.76953l2.13672 1.20703m10.8086-1.6914l-5.1875 4.73828m5.1875-4.73828l2.3125.8203m10.73046-1.08983l-4.64453 5.27734m4.64453-5.27735l2.38672.57032m11.46484.02734l-5.71484 4.08203m5.71484-4.08203l2.19922 1.09375m11.30078-.8086l-6.08593 3.51173m6.08593-3.51172l2.08203 1.30078m-2.96875-.78906l1.04297.64843m13.61328.26172l-6.99609.66797"/><g clip-path="url(#ab)"><path fill="none" stroke="#000" stroke-linecap="round" stroke-linejoin="round" stroke-miterlimit="10" stroke-width=".5" d="M467.0586 386.78906l1.35156 2.04688"/></g><path fill="none" stroke="#000" stroke-linecap="round" stroke-linejoin="round" stroke-miterlimit="10" stroke-width=".5" d="M466.04297 386.88672l1.35156 2.04687"/><g clip-path="url(#ac)"><path fill="none" stroke="#000" stroke-linecap="round" stroke-linejoin="round" stroke-miterlimit="10" stroke-width=".5" d="M147.08203 372.11719L140.91797 375.5"/></g><path fill="none" stroke="#000" stroke-linecap="round" stroke-linejoin="round" stroke-miterlimit="10" stroke-width=".5" d="M147.08203 372.11719l2.05078 1.34375m-2.94922-.85156l1.02735.67187m12.6914-1.84766l-5.17578 4.75m5.17578-4.75l2.31641.81641m10.86719-.95313l-4.91016 5.02344m4.91016-5.02344l2.35547.6875m11.26953-.34375l-5.53125 4.33594m5.53125-4.33594l2.24219.9961m-3.04688-.36328l2.24219.99219m12.55469-.16797l-6.88282 1.42187m6.88281-1.42187l1.5625 1.89062m-2.5664-1.6836l1.5664 1.89063m12.82032-1.22656l-7.01953-.32031m7.01953.32031l1.05078 2.21875m-2.07422-2.26563l1.05469 2.21875m13.26172-1.92968l-6.98047-.80469m6.98047.80469l.89843 2.28515m-1.91406-2.40234l.89844 2.28516m13.4414-2.92188l-6.99218.70313m6.99219-.70313l1.35937 2.03906m-2.3789-1.9375l1.36327 2.03907m12.97266-2.11329l-6.9961.64454m6.9961-.64454l1.34375 2.0547M253 373.57812l.67578 1.02734m13.6211-.20313l-6.92579-1.1875m6.92578 1.1875l.76954 2.33204m-1.77735-2.50391l.38672 1.16406m13.86328-.65625l-6.77734-1.86328m6.77734 1.86328l.53516 2.39453m-1.52344-2.66406l.26953 1.19922m14.15625-1.69922l-7.01953-.32031m7.01953.32031l1.05078 2.21875m-2.07421-2.26563l.52734 1.10938m13.77734-1.73828l-6.95312 1.03125m6.95312-1.03125l1.45703 1.97265m-2.46875-1.82421l.72657.98828m13.58984-1.19531l-6.9336 1.14843m6.9336-1.14844l1.48828 1.94922m11.72266-2.39453l-6.72266 2.03906m6.72266-2.03906l1.73047 1.73828m11.6953-1.25l-6.9453 1.0625m6.9453-1.0625l1.46485 1.96875m11.88672-1.60546l-7.01953.33593m7.01953-.33594l1.2539 2.10938m-2.27343-2.0625l.625 1.05469m13.67578-1.4375l-6.95312 1.0039m6.95312-1.0039l1.44922 1.98047m-2.46094-1.83204l.72657.98829m13.60546-1.1211l-6.96093.97656m6.96093-.97656l1.44141 1.98438m11.67969-2.73438l-6.57422 2.47656m6.57422-2.47656l1.84375 1.6211m11.25781-2.08594l-6.14453 3.40625m5.25-2.91016l1.02734.66797m11.75782-2.5625l-3.29688 6.20313m2.8164-5.30079h1.22657m13.55078-.1289l-5.26172 4.65625m4.4961-3.98047l1.14843.42969m12.26172-1.6914l-3.92187 5.82812m3.35156-4.98047l1.21875.125m14.1875 1.46875l-6.96484.94531"/><g clip-path="url(#ad)"><path fill="none" stroke="#000" stroke-linecap="round" stroke-linejoin="round" stroke-miterlimit="10" stroke-width=".5" d="M467.04297 373.33594l1.4336 1.99219"/></g><g clip-path="url(#ae)"><path fill="none" stroke="#000" stroke-linecap="round" stroke-linejoin="round" stroke-miterlimit="10" stroke-width=".5" d="M146.85938 358.44922l-5.71875 4.08594"/></g><path fill="none" stroke="#000" stroke-linecap="round" stroke-linejoin="round" stroke-miterlimit="10" stroke-width=".5" d="M146.85938 358.44922l2.1953 1.09375m-3.02734-.5l1.09766.54687m13.32031-.6914l-6.26172 3.1914m6.26172-3.1914l2.01172 1.40625m-2.92187-.9414l1.0039.70312m13.20703-1.19532l-6.23047 3.2461m6.23047-3.2461l2.02344 1.38672m-2.92969-.91406l2.02344 1.38672m12.21094-1.83594l-6.25781 3.19531m6.2578-3.1953l2.01173 1.40624m-2.92188-.9414l2.01172 1.40625m12.46875-1.21485l-6.76953 1.88281m6.76953-1.8828l1.6914 1.78124m-2.67577-1.50781l1.6914 1.78125m12.6836-1.72656l-6.91797 1.23046m6.91797-1.23046l1.51172 1.92968m-2.51954-1.75l1.51563 1.9297m12.79297-2.1797l-6.89063 1.3672m6.89063-1.3672l1.55078 1.90235m-2.55469-1.70313l.77734.94922m13.58204-.91015l-6.97266.89453m6.97266-.89454l1.41797 2m-2.4336-1.87109l.71094 1m13.63672-.94922l-7.00781.53516m7.0078-.53516l1.3125 2.07031m-2.33202-1.99218l.65625 1.03515m13.65234-1.36328l-6.95313 1.03125m6.95313-1.03125l1.45703 1.97656m11.82031-2.17187l-6.8789 1.42578m6.8789-1.42578l1.57032 1.88672m11.70703-.29688l-6.80469-1.7539m5.8164 1.4961l.28516 1.1953m14.1289-1.78125l-7.02733-.0703m7.02734.0703l1.13281 2.17579m12.14453-2.73047l-6.94922 1.03906m6.94922-1.03906l1.46094 1.97265m-2.47266-1.82031l.73047.98438m13.625-.8672l-7.00781.5m7.00781-.5l1.30469 2.07813m11.98438-2.32422l-6.95704.9922m6.95704-.9922l1.44921 1.98047m11.79297-2.34765l-6.8086 1.72656m6.8086-1.72656l1.65235 1.8164m11.76172-1.19922l-7.00782.4961m7.00782-.4961l1.30468 2.07813m-2.32422-2.00781l.65235 1.04296m13.48437-2.0625l-6.60937 2.39454m6.60937-2.39454l1.82032 1.64454m-2.78516-1.29688l.91406.82422m12.99219-1.91406l-5.86328 3.875m5.86328-3.875l2.15625 1.17187m11.07031-1.30078l-5.6836 4.13281m5.6836-4.1328l2.20313 1.07421m10.72265-1.51953l-4.90625 5.02734m4.1914-4.29687l1.1797.34375m12.2578-1.54297l-3.72265 5.96094m3.17969-5.09375l1.22266.08593m11.48437-1.41406l-1.42187 6.88281m1.21484-5.8789l1.17969-.34766m15.09765 2.21094l-6.93359 1.14844m5.92578-.98047l.7461.97265"/><g clip-path="url(#af)"><path fill="none" stroke="#000" stroke-linecap="round" stroke-linejoin="round" stroke-miterlimit="10" stroke-width=".5" d="M146.09766 344.35938l-4.19532 5.63671"/></g><path fill="none" stroke="#000" stroke-linecap="round" stroke-linejoin="round" stroke-miterlimit="10" stroke-width=".5" d="M146.09766 344.35938l2.42578.36718m11.08594-.21094l-4.58985 5.32422m4.58984-5.32421l2.39454.54296m11.86718.76172l-6.48047 2.71485m6.48047-2.71485l1.89844 1.55078m-2.84375-1.15625l.95313.77735m13.21093-1.38281l-6.28906 3.13671m6.28906-3.13671l1.9961 1.42578m-2.91016-.96875l1.9961 1.42578m12.14062-2.05078l-6.10547 3.47656m6.10547-3.47656l2.07422 1.3125m-2.96094-.8086l1.03516.65625m13.19922-1.10937l-6.16797 3.3711m6.16797-3.3711l2.04687 1.35156m-2.94531-.85938l1.02344.67579m13.3789-.75391l-6.55078 2.54297m6.55078-2.54297l1.85938 1.60156m-2.8125-1.23047l.92969.80079m13.40234-1l-6.67578 2.19921m6.67578-2.19921l1.76953 1.69921m11.52734-1.75l-6.64062 2.30079m6.64062-2.30079l1.79688 1.67188m11.48828-1.76172l-6.57813 2.48047m6.57813-2.48047l1.83984 1.6211m11.60938-1.1797l-6.84375 1.59766m6.84375-1.59765l1.61328 1.84765m11.7539-1.5625l-6.95312 1.02735m6.95313-1.02735l1.45703 1.97656m11.88672-1.1875l-7.00782-.55078m5.98829.47266l.48828 1.125m13.8164-.79297l-6.94922-1.05469m6.94922 1.0547l.8125 2.3125m12.53516-3.0625l-7.01172.4414m7.01172-.4414l1.28516 2.08983m-2.3047-2.02734l.64063 1.04688m13.52344-1.98438l-6.67578 2.1914m6.67578-2.1914l1.77344 1.69922m11.53906-1.70703l-6.66797 2.20703m6.66797-2.20703l1.77734 1.69531m11.6797-.08594l-6.95313-1.01171m6.95312 1.01171l.82813 2.3125m12.52343-2.86328l-7.02734.08985m7.02734-.08985l1.1797 2.15235m-2.19923-2.13672l.58594 1.07422m13.4375-2.4961l-6.40234 2.90235m6.40234-2.90235l1.9414 1.5m-2.875-1.07812l.97266.75m12.99219-1.67578l-5.83594 3.91406m5.83594-3.91406l2.16406 1.15625m-3.01172-.58985l1.08204.58203m13.13671-1.0664l-5.9453 3.7461m5.9453-3.7461l2.12891 1.21875m-2.9961-.67188l1.06641.60938m12.66797-1.72656l-5.05078 4.88671m5.05078-4.88671l2.33594.7578m11.58203.08594l-6.25781 3.19922m5.34765-2.73437l1.00391.70312m13.3789-.8125l-6.5703 2.48829"/><g clip-path="url(#ag)"><path fill="none" stroke="#000" stroke-linecap="round" stroke-linejoin="round" stroke-miterlimit="10" stroke-width=".5" d="M466.84766 345.9336l1.84375 1.61718"/></g><g clip-path="url(#ah)"><path fill="none" stroke="#000" stroke-linecap="round" stroke-linejoin="round" stroke-miterlimit="10" stroke-width=".5" d="M144.1875 330.35547l-.375 7.01562"/></g><g clip-path="url(#ai)"><path fill="none" stroke="#000" stroke-linecap="round" stroke-linejoin="round" stroke-miterlimit="10" stroke-width=".5" d="M144.1875 330.35547l2.22266-1.03516"/></g><path fill="none" stroke="#000" stroke-linecap="round" stroke-linejoin="round" stroke-miterlimit="10" stroke-width=".5" d="M157.28906 330.35156l.05078 7.02344m-.05078-7.02344l2.15625-1.17187m12.35938 1.3711l-2.34766 6.625m2.34766-6.625l2.42578-.35938m12.8711 2.125l-6.3125 3.09375m6.3125-3.09375l1.98827 1.4414m-2.90625-.99219l.9922.72266m13.39452-.80469l-6.6211 2.35938m6.6211-2.35938l1.8125 1.65235m-2.77734-1.3086l.90625.82422m13.55469-.38281l-6.98438.78906m6.98438-.78906l1.38672 2.02344m11.83203-2.53906l-6.78907 1.8203m6.78907-1.8203l1.67187 1.79296m11.40625-2.42187l-6.3164 3.07812m6.3164-3.07812l1.98438 1.44531m11.54687-.88672l-6.7461 1.96094m6.7461-1.96094l1.71094 1.75781m11.60547-1.7539l-6.75 1.94922m6.75-1.94922l1.70703 1.76172m11.3711-2.36328l-6.27735 3.15625m6.27734-3.15625l2.0039 1.41796m11.41798-1.18359l-6.49219 2.6875m6.49219-2.6875l1.89453 1.5625m10.57812-2.78125l-4.80468 5.125m4.10546-4.3789l1.1836.3164m13.9336 1.23828l-7.00782.52344m5.98437-.44922l.65625 1.03906m13.62891-.1953l-6.90234-1.3125m6.90234 1.3125l.72656 2.34374m12.38672-4.33203l-6.5 2.66406m6.5-2.66406l1.88672 1.5664m11.10938-2.16796l-5.86329 3.86719m5.01172-3.3047l1.07813.58594m13.5625-.07421l-6.8125 1.71875m5.82422-1.46875l.82031.91015m13.58984-.3711l-7.02343.13673m7.02343-.13672l1.19532 2.14453m12.10546-1.73828l-6.99609-.67188m6.9961.67188l.9414 2.26562m12.00781-4.1953l-6.26562 3.1875m6.26562-3.1875l2.00782 1.41015m11.13671-1.71094l-5.92187 3.78516m5.92187-3.78516l2.13672 1.20703m11.1875-1.1914l-5.9414 3.7578m5.9414-3.7578l2.12891 1.21875m-2.99219-.67188l1.0625.60938m13.41016-.57422l-6.53125 2.59375m6.53125-2.59375l1.8711 1.58984m11.61327-1.04297l-6.86718 1.5"/><g clip-path="url(#aj)"><path fill="none" stroke="#000" stroke-linecap="round" stroke-linejoin="round" stroke-miterlimit="10" stroke-width=".5" d="M466.9961 333.11328l1.58593 1.8711"/></g><g clip-path="url(#ak)"><path fill="none" stroke="#000" stroke-linecap="round" stroke-linejoin="round" stroke-miterlimit="10" stroke-width=".5" d="M141.07813 318.59766l5.84375 3.90234"/></g><path fill="none" stroke="#000" stroke-linecap="round" stroke-linejoin="round" stroke-miterlimit="10" stroke-width=".5" d="M154.35938 318.64844l5.91015 3.80078m-5.91016-3.80078l.20313-2.44531m13.04297 2.55859l6.05078 3.57422m-6.05078-3.57422l.10937-2.45313m16.08594.73047l.28906 7.01953m14.86328-6.58984l-3.38671 6.15625m2.89453-5.26172l1.22656.01953m14.36719 2.66016l-6.95703-.99219m6.95703.99219l.83594 2.3086m12.45703-2.16798l-6.91407-1.27343m6.91407 1.27343l.73828 2.33985m12.63281-2.97656h-7.02734m7.02734 0l1.15234 2.16796m12.03516-3.09765l-6.77344 1.86328m6.77344-1.86328l1.6875 1.78125m11.69531-1.48828l-6.91015 1.27734m6.91015-1.27734l1.52735 1.92187m11.63672-2.48437l-6.60547 2.40234m6.60547-2.40234l1.82421 1.64062m11.65235-1.03125l-6.92578 1.17969m6.92578-1.17969l1.5 1.9414m11.67187-2.5l-6.64062 2.30079m6.64062-2.30078l1.79688 1.66797m11.67578-1.00782l-6.95703.97657m6.95703-.97657l1.4414 1.98438m-2.45312-1.83985l.72266.9922m13.5703-1.33594l-6.89062 1.3789m6.89063-1.3789l1.55469 1.89843m-2.5547-1.69922l.77735.94922m13.42969-1.55469l-6.67578 2.19141m6.67578-2.1914l1.77344 1.69921m11.26562-2.33203l-6.1211 3.45703m5.23048-2.95312l1.03515.65625m13.01172-1.41016l-5.80469 3.95703m4.96094-3.3828l1.08594.5703m12.86328-1.42187l-5.38672 4.51172m5.38672-4.51172l2.27734.92187m10.4297-1.49609l-4.16798 5.65625m3.5625-4.83203l1.21485.17969m8.98437-1.28516l3.27344 6.21875m-2.79688-5.3125l.69141-1.01563m10.41016 4.20704l6.7461-1.97266m-5.76173 1.6836l-.85937-.87891m13.27343-1.05078l6.58204 2.46093m-5.625-2.10156l-.16016-1.21484m17.16406-1.15625l-2.70703 6.48437m2.3125-5.53906l1.21875-.11719m14.17578.65625l-6.08203 3.51953"/><g clip-path="url(#al)"><path fill="none" stroke="#000" stroke-linecap="round" stroke-linejoin="round" stroke-miterlimit="10" stroke-width=".5" d="M466.60156 318.78906l2.08203 1.29688"/></g><path fill="#00f" fill-rule="evenodd" d="M392.67578 458.77344h8.6211V448.625h-8.6211v10.14844"/><path fill="azure" fill-rule="evenodd" d="M394.51172 450.45703h.83203v2.82422h3.28516v-2.82422h.83203v6.48047h-.83203v-2.91406h-3.28516v2.91406h-.83203v-6.48047"/><path fill="#ff3030" fill-rule="evenodd" d="M317.91797 436.57813h7.69531v-10.14454h-7.69531v10.14454"/><path fill="azure" fill-rule="evenodd" d="M319.7539 428.26563h.83204v5.74218h3.1914v.73828h-4.02343v-6.48046"/><path fill="#00f" fill-rule="evenodd" d="M224.01953 418.82813h8.61719v-10.14844h-8.61719v10.14844"/><path fill="azure" fill-rule="evenodd" d="M225.85156 410.51172h.83594v2.82422h3.28516v-2.82422h.83203v6.48047h-.83203v-2.91406h-3.28516v2.91406h-.83594v-6.48047"/><path fill="#ff3030" fill-rule="evenodd" d="M340.10938 396.63281h7.6953v-10.14453h-7.6953v10.14453"/><path fill="azure" fill-rule="evenodd" d="M341.94531 388.32031h.83203v5.74219h3.19532v.73828h-4.02735v-6.48047"/><path fill="#ff3030" fill-rule="evenodd" d="M202.52344 365.5664h7.6914v-10.14452h-7.6914v10.14453"/><path fill="azure" fill-rule="evenodd" d="M204.35547 357.2539h.83203v5.73829h3.19531v.74219h-4.02734v-6.48047"/><path fill="#ffffe0" fill-rule="evenodd" d="M341.74219 367.26563h22.1836v-10.19141h-22.1836v10.1914"/><path fill-rule="evenodd" d="M345.24219 358.90625h.51172v6.29297h-.78907v-4.48828h-1.38671v-.55469l.55859-.0664.2539-.0547.22657-.08984.20312-.14062.17578-.21094.14063-.29297.10547-.39453m4.8164 0l.22657.01953.21875.05469.21093.08984.19532.1211.18359.14843.17188.17579.30078.41796.24218.4961.1797.54687.11327.57813.03906.58984-.03906.59375-.11328.58594-.17969.55078-.24218.5039-.30079.4297-.17187.17968-.1836.15235-.1953.12109-.21094.09375-.21875.0586-.22657.01952-.23046-.01953-.21875-.0586-.20704-.09374-.19921-.1211-.1836-.15234-.17187-.17969-.30079-.42968-.24218-.50391-.17969-.55078-.11328-.58594-.03906-.59375h.83593l.02735.5625.08203.50781.125.44141.16406.375.1914.30078.21094.22266.22266.13672.22656.04687.22657-.04687.22265-.13672.21094-.22266.1875-.30078.16406-.375.125-.4414.08203-.50782.03125-.5625-.03125-.5586-.08203-.5039-.125-.4336-.16406-.36718-.1875-.28906-.21094-.21485-.22265-.1328-.22657-.04298-.22656.04297-.22265.13281-.21094.21485-.1914.28906-.16407.36719-.125.4336-.08203.5039-.02735.5586h-.83593l.03906-.58985.11328-.57813.17969-.54687.24219-.4961.30078-.41796.17187-.17579.1836-.14843.19921-.1211.20704-.08984.21875-.05469.23046-.01953m5.08985 0h.50781v6.29297h-.78516v-4.48828h-1.39062v-.55469l.5625-.0664.25-.0547.23047-.08984.20312-.14062.17578-.21094.14063-.29297.10547-.39453m2.82422 2.17578h.78515l.01953-.3164.0586-.28516.10156-.2539.14063-.21485.17968-.17578.22266-.1289.26562-.07813.3086-.02735.23828.01953.22265.0625.20313.10157.17969.13671.14844.17579.11328.20703.07421.23437.02344.26563-.01953.26562-.0664.22656-.10938.19141-.15625.17188-.20313.16015-.24609.16797-.63281.38672-.53906.3164-.4375.31641-.34375.32422-.26563.33594-.1914.35156-.125.36719-.06641.39453-.02344.41797h4.21485v-.73828h-3.33594l.08594-.28516.11328-.23828.14843-.19922.1875-.17969.23047-.17187.27735-.17578.71875-.41797.41406-.20313.34375-.23046.28125-.25391.22265-.26563.16016-.27734.11328-.28516.0625-.28515.01953-.28125-.03906-.38281-.1211-.34766-.1914-.3086-.25-.26171-.30078-.21485-.34766-.15625-.3789-.10156-.40625-.03125-.4336.03125-.39843.10156-.35547.16406-.30469.23438-.25.30469-.1836.375-.11718.44531-.03906.51953"/><path fill="#ffffe0" fill-rule="evenodd" d="M206.8086 334.73047h22.17968v-10.19531H206.8086v10.1953"/><path fill-rule="evenodd" d="M210.30469 326.3711h.51172v6.29296h-.78907v-4.48828h-1.38672v-.55469l.5586-.0664.2539-.05469.22657-.08984.20312-.14063.17578-.21094.14063-.29296.10547-.39454m4.8164 0l.22657.01954.21875.05468.21093.08985.19532.12109.18359.14844.17188.17578.30078.41797.24218.4961.1836.54687.10937.57812.03906.58985-.03906.59375-.10937.58593-.1836.55078-.24218.50391-.30078.42578-.17188.17969-.1836.15625-.1953.1211-.21094.09374-.21875.05469-.22657.01953-.23047-.01953-.21875-.05469-.20703-.09375-.19922-.1211-.18359-.15624-.17187-.17969-.30078-.42578-.2422-.5039-.17968-.55079-.11328-.58594-.03906-.59375h.83593l.02735.5625.08203.50782.125.4414.16406.375.1914.30079.21095.22265.22265.13672.22656.04688.22657-.04688.22265-.13672.21094-.22265.1875-.30079.16406-.375.125-.4414.08203-.50781.03125-.5625-.03125-.5625-.08203-.5-.125-.4336-.16406-.36719-.1875-.29296-.21094-.21094-.22265-.13281-.22657-.04688-.22656.04688-.22266.1328-.21093.21094-.1914.29297-.16407.3672-.125.43358-.08203.5-.02735.5625h-.83593l.03906-.58984.11328-.57812.17969-.54688.24219-.4961.30078-.41796.17187-.17578.1836-.14844.19921-.1211.20703-.08984.21875-.05469.23047-.01953m5.08985 0h.50781v6.29297h-.78516v-4.48828h-1.39062v-.55469l.5625-.0664.25-.05469.23047-.08984.20312-.14063.17578-.21094.14063-.29296.10547-.39454m2.82422 2.17579h.78515l.01953-.31641.0586-.28906.10156-.25.14063-.21485.17968-.17578.22266-.1289.26562-.08204.3086-.02734.23828.02344.22266.0625.20312.10156.17969.13672.14844.17578.11328.20313.07422.23828.02343.26171-.01953.26954-.0664.22656-.10938.1914-.15625.17188-.20313.16016-.24609.16796-.63281.38672-.53906.3125-.4375.32032-.34375.32421-.26563.33594-.1914.35156-.125.3672-.06641.39452-.02344.41797h4.21484v-.73828h-3.33593l.08594-.28515.11328-.23829.14843-.19921.1875-.1797.23047-.17187.27735-.17578.71875-.41797.41406-.20703.34375-.23047.28125-.25.22266-.26562.16015-.28125.11328-.28125.0625-.28516.01953-.28125-.03906-.38281-.1211-.34766-.1914-.3086-.25-.26171-.30078-.21484-.34766-.15625-.3789-.10157-.40625-.03125-.4336.03125-.39843.09766-.35547.16797-.30469.23437-.25.3047-.1836.375-.11718.4453-.03906.51954"/></g></defs><use xlink:href="#am"/></svg>