<svg xmlns="http://www.w3.org/2000/svg" role="img" xmlns:xlink="http://www.w3.org/1999/xlink" viewBox="142.45 309.95 326.84 171.84"><defs><clipPath id="a"><path d="M144 311.67188h1v168.65625h-1zm0 0"/></clipPath><clipPath id="b"><path d="M144 311.67188h324v168.65625H144zm0 0"/></clipPath><clipPath id="c"><path d="M389 477h7v3.32813h-7zm0 0"/></clipPath><clipPath id="d"><path d="M391 479h3v1.32813h-3zm0 0"/></clipPath><clipPath id="e"><path d="M467 311.67188h1V473h-1zm0 0"/></clipPath><clipPath id="f"><path d="M144 479h4v1.32813h-4zm0 0"/></clipPath><clipPath id="g"><path d="M147 479h3v1.32813h-3zm0 0"/></clipPath><clipPath id="h"><path d="M146 479h2v1.32813h-2zm0 0"/></clipPath><clipPath id="i"><path d="M153 479h9v1.32813h-9zm0 0"/></clipPath><clipPath id="j"><path d="M160 479h3v1.32813h-3zm0 0"/></clipPath><clipPath id="k"><path d="M159 479h2v1.32813h-2zm0 0"/></clipPath><clipPath id="l"><path d="M166 479h9v1.32813h-9zm0 0"/></clipPath><clipPath id="m"><path d="M173 479h3v1.32813h-3zm0 0"/></clipPath><clipPath id="n"><path d="M172 479h3v1.32813h-3zm0 0"/></clipPath><clipPath id="o"><path d="M180 479h8v1.32813h-8zm0 0"/></clipPath><clipPath id="p"><path d="M187 479h2v1.32813h-2zm0 0"/></clipPath><clipPath id="q"><path d="M193 479h9v1.32813h-9zm0 0"/></clipPath><clipPath id="r"><path d="M200 479h3v1.32813h-3zm0 0"/></clipPath><clipPath id="s"><path d="M206 479h9v1.32813h-9zm0 0"/></clipPath><clipPath id="t"><path d="M213 479h3v1.32813h-3zm0 0"/></clipPath><clipPath id="u"><path d="M220 479h8v1.32813h-8zm0 0"/></clipPath><clipPath id="v"><path d="M227 480h2v.32813h-2zm0 0"/></clipPath><clipPath id="w"><path d="M233 479h8v1.32813h-8zm0 0"/></clipPath><clipPath id="x"><path d="M240 480h2v.32813h-2zm0 0"/></clipPath><clipPath id="y"><path d="M246 479h9v1.32813h-9zm0 0"/></clipPath><clipPath id="z"><path d="M253 480h3v.32813h-3zm0 0"/></clipPath><clipPath id="A"><path d="M260 480h8v.32813h-8zm0 0"/></clipPath><clipPath id="B"><path d="M267 480h2v.32813h-2zm0 0"/></clipPath><clipPath id="C"><path d="M273 479h8v1.32813h-8zm0 0"/></clipPath><clipPath id="D"><path d="M279 480h2v.32813h-2zm0 0"/></clipPath><clipPath id="E"><path d="M286 478h9v2.32813h-9zm0 0"/></clipPath><clipPath id="F"><path d="M292 480h2v.32813h-2zm0 0"/></clipPath><clipPath id="G"><path d="M300 478h7v2.32813h-7zm0 0"/></clipPath><clipPath id="H"><path d="M314 477h6v3.32813h-6zm0 0"/></clipPath><clipPath id="I"><path d="M329 476h3v4.32813h-3zm0 0"/></clipPath><clipPath id="J"><path d="M343 476h2v4.32813h-2zm0 0"/></clipPath><clipPath id="K"><path d="M355 476h4v4.32813h-4zm0 0"/></clipPath><clipPath id="L"><path d="M369 476h2v4.32813h-2zm0 0"/></clipPath><clipPath id="M"><path d="M382 476h3v4.32813h-3zm0 0"/></clipPath><clipPath id="N"><path d="M394 477h6v3.32813h-6zm0 0"/></clipPath><clipPath id="O"><path d="M409 476h3v4.32813h-3zm0 0"/></clipPath><clipPath id="P"><path d="M423 476h2v4.32813h-2zm0 0"/></clipPath><clipPath id="Q"><path d="M435 476h4v4.32813h-4zm0 0"/></clipPath><clipPath id="R"><path d="M448 476h4v4.32813h-4zm0 0"/></clipPath><clipPath id="S"><path d="M462 476h3v4.32813h-3zm0 0"/></clipPath><clipPath id="T"><path d="M144 466h4v2h-4zm0 0"/></clipPath><clipPath id="U"><path d="M144 452h4v3h-4zm0 0"/></clipPath><clipPath id="V"><path d="M144 439h4v2h-4zm0 0"/></clipPath><clipPath id="W"><path d="M144 426h4v2h-4zm0 0"/></clipPath><clipPath id="X"><path d="M144 412h4v4h-4zm0 0"/></clipPath><clipPath id="Y"><path d="M466 411h2v3h-2zm0 0"/></clipPath><clipPath id="Z"><path d="M465 412h3v2h-3zm0 0"/></clipPath><clipPath id="aa"><path d="M144 398h4v5h-4zm0 0"/></clipPath><clipPath id="ab"><path d="M466 399h2v3h-2zm0 0"/></clipPath><clipPath id="ac"><path d="M144 385h4v4h-4zm0 0"/></clipPath><clipPath id="ad"><path d="M466 385h2v3h-2zm0 0"/></clipPath><clipPath id="ae"><path d="M144 372h4v4h-4zm0 0"/></clipPath><clipPath id="af"><path d="M466 372h2v3h-2zm0 0"/></clipPath><clipPath id="ag"><path d="M144 358h4v5h-4zm0 0"/></clipPath><clipPath id="ah"><path d="M144 344h3v6h-3zm0 0"/></clipPath><clipPath id="ai"><path d="M466 345h2v3h-2zm0 0"/></clipPath><clipPath id="aj"><path d="M144 330h1v8h-1zm0 0"/></clipPath><clipPath id="ak"><path d="M466 332h2v4h-2zm0 0"/></clipPath><clipPath id="al"><path d="M144 318h3v6h-3zm0 0"/></clipPath><clipPath id="am"><path d="M466 318h2v3h-2zm0 0"/></clipPath><g id="an" clip-path="url(#clip1)"><path fill="#fff" fill-opacity="0" fill-rule="evenodd" d="M0 0h1000v1000H0zm0 0"/><path fill="#d3d3d3" fill-opacity="0" fill-rule="evenodd" d="M162.15234 355.86719l-.23437.29297.0586.23437.11718.17188.17578.23437.29297.34766.11328.0586.11719-.17188.0586-.23438.17577-.17578.46485-.17578h.69922l.23437.29297.28906.8164.0586.17579.17578.23046.35156.23438.69922.69922.17188.17578.23437.34765.23438.41016.28906.58203.41015.46485.23047.23437.23438.17578.11719.23047.17578.29297.17187 1.16406v.23438l.0586.28906.05859.11719.11719.11719.34765.41015.11719.17188.17578.17578.17578.23437.11719.17188.17188.35156.05859.23438.23437.40625.23438-.0586-.17578.17578-.0586.92969h-.58203l-.23437-.11328-.34766.11328-.11719.11719-.05859.29297-.0586.17578-.11718.17187-.46484.29297-.0586.23438-.0586.11328v.64453l.0586.17187v.41016l.0586.0586v.40624l.05859.40625.11719.17579.05859.05859.23047.64062-.0586.29297v.69922l-.05859.58203v.23438l-.0586.23047-.05468.35156v1.92187l.05469.1172h.42578l-.36719.11718-.02344.35156.89063 1.16797 1.74219.53906 1.33984.35938v.53906l.08984.8086.53516.71484 1.51953.26953.89063-.08594.08984 1.16406.53516.1797 1.16015-.1797 2.05469-.98437 1.16016-.36328 1.8789-.17578 1.69531-.1797-.17968.71876-1.51563.08594-1.25.08984-.80469.26953-1.07421.8086.26953.71875.53515.89843-.17968.625-.26563.8086.26563 1.07812.625.89844.80468.17969 1.25-.1797-.26562.72267.09766.5039.05468.29297v.17188l.0586.29296v.40625l.17578.1172.35156.11718h.40625l.29297-.17578.11328-.11719.0586-.11719.11718-.23047.0586-.17578.35156-.46484.23047-.17578.17578-.0586.17578.0586.0586.17578.11718.98828.05469.46875.0586.17188.11718.23437.17578.0586.8164.05859h.28907l.11719.23437.05859.40625.0586.35156v1.10547l.11718.29297.11719.34766.28906.69922.17578.35156.58203.7539.35157.17579.17187.0586.46875.23437.64063.46484.34765.23438.29297.17578.29297.05468.23047.0625.8164.34766.29297.17578.11328.17188.35157.35156.11719.17578.52343.64063v.28906l.0586.35156v.34766l.05859.35156.0586.28906.11718.0586.17188.05859h.17578l.58203.23437.17578.1172.17578.28905.17578.23438.11328.23437.29297.23047.11719.11719v.41016l.0586.05468.28906.23438.23437.11719.0586.11718.11718.17188.0586.11719.23047.23437.05859.17578.23437.0586.1172.05859-.1172.11328-.05859.11719v.11719l-.11719.29296-.11719.28907v.58203l.17579.11719.11718.05859.0586.11719.11719.11719.11328.05859.17578.34765.0586.35157.05858.40625v.17578l-.05859.17578-.11719.69922v.17187l.1172.17579.29296.29296h.40625l.17578.1172.11719.17187.11719.29296v.23438h-.52735l-.23047-.23438h-.23437l-.17578.0586-.0586.69922.0586.34765.11719.17579.17578.41015.11718.23047.28907.46875.17578.05469h.52344l.23437.0586.75781.64062.0586.29296v.23438l.05859.0586.23047.34765v.35156l-.11719.17188v.29297l.29297.28906.29297.17578.17187.0586.29297.17577.29297.1172.58203.40624.28906.23438.29297.17578.21875.16015.01563.01172.23047.17579.64062.52343.17578.23438.1172.17578.17577.17578.11328.17188v.64062l.1172.17578.46874.11719.58203.11719.23438.05859.23047.11328.29297.11719.11328.0586.58593.35156.28907.17187.17578.0625.17578.05469.17578.0586.69922.35155.28906.17579.23438.05468.28906.17578.23437.1172.64063.40624.29297.11719.17187.0586.23438.05859.41015.05859.23047.0586.23438.11718.0586.17188-.41017.17578.46875.0586.0586.29296.11328.23438.17578.05468.23438.0586.17578.05859.40625.11719.64062.23437.11719.17188.0586.23437v.17578l-.0586.1172-.0586.40624.23438.23438.11719.05859.34766.11719.64062.23047.17578.11718.28906.1172.17578.17577.23438.46485.58203 1.10546.17578.17579.34766.17578.17578.11719.35156.11718 1.04688.52344.23437.0586.46485.11327.29297.0586.46484.17578.75781.58203.23438.23438.34765.46484.17578.17578.28907.23438.8164.69921.29297.17579.28906.28906.29297.17578.29297.28906.69531.64063.17578.17578.29297.23437.28907.23438.46875.28906.64062.58203.34766.23438.23437.29297.34766.34765.35156.46485.9336.99218.34765.40625.11719.17579.23437.05859.11328.11719.64454.17578.23047.11328.23437.0586.29297.17577.23047.1172.9336.69921.40624.40625.23438.17578.40625.17578.23437.11719.8164.34766.34766.23437.23438.11719.29297.28906.23047.11719.7578.35156.35157.17188.23047.05859.29297.11719.23437.0586.8711.17577h.8164l.46875.23047.17188.0586.875.69921.46484.1172.29297.05858.17578.0586.23047.0586.46875.05859.34766.05859.35156.0586.40625.05859h.29297l.17187.0586v.23046l.17578.17578h.29297l.34766.0586.35156.05859.69922.11719h.64063l.46484-.23438.29297-.17578.17187-.11719.41016-.17187.28906-.17578.9336-.46485.46875-.29297.52343-.29296.46485-.17188.46484-.17578 1.05078-.46485.28906-.11718.41016-.11719.28906-.11719.52735-.17578 1.51562-.69922.58203-.34765.28907-.0586.29297-.0586.34765-.11718.875-.23047.35156-.11719h.11329l.23437-.05859.875-.23437.23438-.0586h.8125l.35156-.0586.8164-.11718.17188-.0586.35156-.05468.29297-.0586.23047-.05859.8164-.17578.17579-.0586h.34765l.23438-.05859.46484-.11718.75781-.17188.23438-.0586h.34765l.41016-.11718.28906-.0586 1.28516-.05859h.28906l.41016-.0586.23047-.05858h.17578l.875-.1172h.40625l.41015-.11718h.34766l.35156-.11328.8711-.0586h1.75l1.04687.28907.41016.11719.28906.11718.35156.11719.28907.11719 1.05078.17187.28906.0586h.29297l.29297.05859.17187.0586.41016.05859.17187.0586.1172.05858h.11718l.11719.0586.35156.0586h.11328l.41016.0664 1.92187.39453 1.92578.39453 1.51953.44922 1.69532.71875 2.14453.80469 1.60547-.71875 1.42968-.80469 1.16016-1.07813 1.25-.44921 3.03516-.71875 1.875-.35938 2.14453-1.34765 2.23437-1.25391 2.5-1.25781 1.69531-.44922 1.78516-.17969 1.16016-.26953.625.53906 1.33984-.26953.71485-.98828.98437-1.34375.44531-.17969.80469-.35937 1.875-.53907 1.78516-.44921 1.25-.26954 1.16015-.08984 1.69922-.08984 1.96094-.26954 1.25-.08984h.53906l.625-.08984h.89063l2.14453-.17969 2.41015-.17969 2.58985-.08984 1.69531.17969 1.60938.08984 1.42968.35938 1.16016.71875 1.875.98828 1.16015 1.52734.26563.71484.6289.08985.35548.89844.53515.53906.53516 1.52734 1.07422.35938h.53515l-.80469.53515.08985 1.70703.71484 2.69532.89063.80468.89453.98829.71484 1.2578 1.78516.53907 1.51953-.17969.35547 1.34375 1.60937-.80469.98047-.53906.26953.26953.31641-.21484.21875-.14453.80078.44922.44922-.35938h.35547l.53515-.26953.53907-.71875.53515-.26953.625-.98828 1.16016.44922.83984.3711 1.39454.61718 1.6953-.17969h1.60548l1.78515.08985.17969-1.70704.53516-1.34375.80468.26954.4922.84765.40233.40625-.08984.53906v.35938l.71485.44922.71093-.26953h1.42969l.35938.98828.4453 1.25781.71485 1.34375 1.25.6289 1.69531.62891.71485-.17969.17969-.53906.98046-.08984.44922.35937.08594 1.25782-.26563.6289-.53515.17969v.53906l.71484.98438.26563.53906.98437.98828.80078 1.07813-.26562.35937-.08985.89844-.625 2.33203-.35546 2.0664-.08985 1.79298-.17969.71875-.08984.53906v1.4375l-.98047 1.88281-.35937 1.70703-.53516.89844-.80469 1.16797-.26562.53906 2.05469 1.2539.08593.35938-.35546.53906-.08985-.17968v.80859l.08985 1.4375-.44532.71484-1.07422.09375-.26562.71485.53515.89844.8047.71875 1.16015.80859 1.33984.26953.44531.35938-.35546.44921-1.78907-.08984-1.25-.44922-.71484-.71875-.625-.08984-.17578 3.58984-.1875 1.3086h89.35937V311.70313h-55.26953v49.08203l.76172.125 3.28906.54296 2.02344 2.83594v2.7539l2.35156.33204 2.34766.33203h4.05078l-1.3789 4.16016-2.02344.70703-2.02344.70312-.54297.34375-2.59375 1.6172-.1875.11718-2.02344-2.07813-.73046-2.74218-2.67188-2.07813-1.375-3.5-.0664-.08203-1.95704-2.67188 2.75-1.41796v-49.08204H294.42187v91.41407l.1172.03125.1328.01172.07422.07421.10547.04688.08985.0586.08593.05859.08985.0586.29687.29687.0586.08984.03125.11719.02734.11719.01563.13671-.03125.1172-.0586.08983-.0586.08594-.04296.10547-.04688.10156-.02734.1211v.14453l.17578.26953.14844.14844.07422.08594.07422.07421.04296.10547.0625.08985.0586.08593.04297.10547.0586.08985.04687.10156.04296.10547.0586.08594.11719.17968.07421.07422.0625.08594.0586.08984.04297.10547.0586.08985.05858.08593.0625.08985.0586.08984.04297.10156.11719.17969.07421.07422.0586.08594.07422.07421.08984.0586.10547.04687h.14844l.1328-.01562.13282.01562.10156-.04687.07422-.07422.04688-.10156-.01563-.13281v-.14844l-.04687-.10547-.02735-.11719-.04687-.10156-.02735-.1211-.04296-.10156-.0625-.08984-.04297-.10156-.04297-.10547-.03125-.11719-.01563-.13281-.01171-.13672.08593-.0586.0586-.08593.12109-.03125.04297.10547.01562.1328v.1172l.0586.10156.0586.08984.08983.0586.14844.14843.0586.08985.04296.10547-.01171.10156.08593.0586.10547.04687.08594.0586.08984.05858.07422.07422-.11719.02735-.10546.04687-.08594.0586-.07422.07421-.0586.08985-.0625.08594-.02734.12109-.04687.10156-.04297.10547-.03125.11719-.01172.13281-.01563.13281v.14844l.02735.11719.04687.10547.04297.10156.0586.08984.07421.07422.08985.0586.07422.07421.08984.0586.0586.08984.04296.10547.04688.10156.11719.03125.1328.01563h.14845l.11718-.03125.10547.04297.04297.10547.04688.10156.02734.1211L299.5 410l.02734.11719.03125.1211.02735.11718.10547.04297.10156.04687.13281-.01562.14844.14844.0625.08593.07422.07422.07031.07422.08984.0625.10547.04297.10156.04297.1172.03125.13671.01562.11719-.03125.07422-.07422.02734-.11718-.01172-.13282-.03125-.12109-.02734-.11719.04297-.10547h.11719l.08984.0625.11719.02735h.14843l.13282.01562h.14843l.13282.01563.1328-.01563h.14845l.1328-.01562.13282-.01172.13672.01172.11719-.02735.13281-.01562.1914-.0586-.05859.17579-.01562.1328-.02735.1211-.01562.13281-.0586.08594-.1328.01563-.10548.04687-.10546.04297-.1172.03125-.11718.02735-.26563.03125h-.14843l-.13281.01562-.07422.07422.05859.08594.14844.14843.11719.1797.07421.0703.08985.0625.08984.0586.08594.0586.08984.05858.10156.04297.10547.0625.10547.04297.08594.0586.10547.04687.10156.04297.17969.11719.0586.08984-.04298.10156-.04687.10547.01562.13281.22266.22266.0586.08985.04296.10156.03125.1211.04297.10155.01563.13282.03125.11718.01171.13672.03125.11719.14844.14844.10156.04297.10547.04296.1172.03125.1328.01563.13672.01563h.11719l.11719-.03125.08984-.0586.04297-.10547.04688-.10156.04296-.10547.03125-.11719.01172-.1328v-.14845l-.01172-.1328-.01562-.13282-.03125-.11719-.04297-.10547-.04688-.10547-.04296-.10156-.04297-.10547-.01563-.13281.01563-.13281.02734-.11719.03125-.11719.02735-.1211.04687-.10155.08984-.0586.08594-.0625.07422-.07422.08984-.05859.22266-.22266.0586-.08593.07421-.07422.11719-.17969.0586-.08594v-.14844l-.07423-.07421-.10156-.04688-.10547-.04297-.10156-.04297-.0586-.08984-.04687-.10547-.02734-.11719.08984-.05859.11719-.03125.10156-.04297.17969-.11719.14844-.14843.01172-.13282-.01172-.10546-.08985-.0586-.1328.01563h-.14845l-.1328.01562-.13282-.01562-.1211-.03125-.08593-.0586-.07422-.07422-.0586-.08984-.0625-.08594-.11718-.17969-.0586-.08593.03125-.1211.08594-.05859.1211-.03125.05859-.08594v-.1211l-.03125-.11718-.0586-.08984-.05859-.08594-.04687-.10547-.02735-.11719-.01562-.1328.0586-.08985.07421-.07422.08984-.0586.1172-.17968.07421-.07422.0586-.08594.14843-.14844.1211-.03125.1328-.01562.13282.01562.07422.07422.04297.10547.01562.13281-.03125.1172-.11719.03124-.1328.01172-.14844.14844-.04297.10547-.04688.10156-.02734.1211-.03125.11718v.14844l.03125.11719.04297.10546.05859.08985.07422.07031.07422.07422.11719.03125.12109.02734.11719-.02734.1328-.01563h.1172l.08984.0586.07422.07422.04687.10546.0586.08594.10156.04688.13281.01562.10547.04297.08594.0586-.01172.10546-.07422.07422-.17969.11719-.05859.08984-.08984.0586-.07032.07422-.07421.07421-.0625.08985-.02735.11719-.01562.1328.01562.13282-.01562.13281v.14844l.01562.13281.02735.1172.03125.12108.07421.07422.08985.0586.08594.0586.08984.05858.11719.03125v.08594l-.10157.04688-.08984.0586-.26563.03124-.11718.02735h-.14844l-.10547.04296-.10156.04688-.0586.08984-.0625.23438-.01171.13281-.03125.1211-.01563.1328v.29298l-.01172.1328.01172.13673.01563.1328.1328.01563.13282.01172.1211.03125.08593.0586.07422.07421.04688.10547.04296.10157.01563.1328v.44532l-.01563.13281v.44532l.03125.26562.02735.11719.01562.13281.03125.11719.08594.21094.03125.26562v.14844l-.03125.11719-.02734.11718-.03125.1211-.02735.11719-.03125.11718-.03125.1211-.01171.1328-.01563.13282.08984.0586.1172-.03125.10155.01562.04688.10547-.03125.26562v.44141l-.04297.10547-.04688.10547-.04296.10156-.04297.10547-.0586.08594-.03125.12109-.04296.11719-.03125.11719-.01563.1328.01563.13282.05859.08984.10547.04688.08594.0586.05859.08593-.01172.13672-.03125.11719-.04297.10156v.44531l-.01562.13281v.14844l-.03125.11719-.04297.10547-.02735.11719-.04687.10546-.04297.10157-.03125.12109-.02734.11719-.03125.13281-.03125.11719-.02735.11719-.04297.10546-.03125.1172-.03125.12108-.01171.13282-.01563.13281v.29688l.02734.11718v.14844l.04688.39844.02734.11719.0586.08984.12109.03125h.14844l.13281-.01563.0586.08985v.11719l-.0586.08984-.08984.0586-.10157.04296-.10546.04688-.08985.05859-.08594.0586-.13671.01562-.1172-.03125-.1328-.01563-.10157.04688-.0625.08594-.01172.13671-.01562.13282-.03125.11719-.02735.11718-.01562.13281-.03125.1211v.29687l.01563.13282.03125.11718v.14844l.01171.13281v.14844l-.02734.11719-.04688.10156-.02734.1211-.03125.11718-.0586.08985-.07421.07421-.10156.04297-.10547.04688-.11719.02734-.1211.03125-.10156-.04687.0586-.08594.10547-.04688.02734-.11718.03125-.11719.02734-.1211.03125-.11718v-.14844l.01563-.13281-.03125-.11719-.04297-.10547-.10547.01563-.07422.07422-.10156.04296-.08984.0625-.07422.07422-.04297.10157-.01563.1328-.03125.1172L304.25 426l-.03125.11719-.02734.11719-.03125.12109-.02735.11719-.03125.11718-.04297.10547-.08984.0586h-.08984l-.1172-.03125-.03124-.08594.01562-.13672-.03125-.11719v-.14844l-.01171-.1328v-.14844l-.0625-.23438-.02735-.1211-.04297-.10156-.04687-.10546-.0586-.08594-.05859-.08985-.04297-.10546-.0625-.08594-.14844-.14844-.0703-.07422-.10548-.04687-.10547-.04297-.10156-.04297-.29687-.29688-.08985-.07421-.08594-.0586-.10546-.04297-.08985-.0625-.08594-.0586-.10546-.04296-.08985-.0586-.08594-.0625-.07421-.0703-.10547-.04688-.08594-.0586-.10547-.04296-.08984-.0625-.10156-.04297-.10547-.04297-.08594-.0586-.10547-.04687-.10547-.04297-.10156-.04687-.08985-.0586-.10156-.04297-.10547-.04296-.08984-.0625-.11719-.02735-.13281-.01562-.13281.01562H299.75l-.13281.01563-.11719-.03125-.08984-.0586-.07422-.07422-.08985-.05859-.10156-.04688h-.14844l-.12109-.02734-.10156-.04297-.07422-.07422-.11719-.17968-.08984-.0586-.10156-.04297-.08985-.0625-.10547-.04296-.08984-.0586-.08594-.0586-.10547-.04687-.0586-.08594-.05858-.08984-.04297-.10547-.04688-.10156-.07422-.07422-.08594-.0586-.07421-.07421-.08985-.0586-.22265-.22265-.04297-.10547-.03125-.26563.10547-.04296h.14453l.10547.04296.07421.07422.08985.0586.08594.0586.10546.04687.08985.05859.14844.14844.0703.07422.14845.14843.0625.08594.07421.07422.08594.0586.07422.07421.08985.0625.08984.0586.08594.05859.26953.17578.10156.04688.10547.04296.10156.04297.04688-.07421.05859-.08594.07422-.07422.07031-.07422.10547.04297.07422.07422.0586.08984.04296.10156.04688.10547.04296.10547.1211.02735.11719-.02735.07421-.08984.04297-.10547.0586-.08985.07422-.07421.10546-.04297.1172-.02735.1328.01172.08985.0586.14844.14843.05859.08985.04297.10547.04687.10156.04297.10547.04297.10156.10547.04688.10547.04296.13281.01563.08594-.0586.0586-.08984.07421-.07422.10547-.04297.11719.02735.10547.04687.10156.04297.10547.04297.10156.04688.17969.11718v.11719l-.01563.13281.01563.13281.01562.13672.0586.08594.10156.04688.1211.02734.11718.03125h.14844l.11719-.03125.05859-.08984.17969-.1172.05859-.08983.07422-.07422.0586-.08594.11718-.17969.17969-.11719.11719.03125.08984.0586.04297.07422-.01563.1328v.1172l.08985.05859h.14843l.13282-.01563.1328-.01171.26563-.03125.10547-.04297.11719-.03125.1211-.02735.07421-.07421.07031-.07422.0625-.08985-.01562-.10547-.04688-.10156-.10156-.04297-.10547-.01562-.11718.02734-.26563.03125h-.14844l-.07421-.07422-.08985-.0586-.11719-.03124-.11718-.02735-.13282-.01562h-.14843l-.13282.01563h-.29687l-.10547-.04688-.14844-.14844-.04297-.10156-.05859-.08984.22266-.22266.08593-.0586.10547-.04296.11719-.03125.13281-.01563.13281.01563.13672.01562.10157.04297.1328-.01172.08985-.0625.10156-.04297.0625-.08984-.04687-.10156-.08984-.0586-.1172-.03125-.10155-.04296-.0586-.08985-.0625-.08984v-.11719l.01563-.13281.10547-.04688.07421-.07031v-.1211l-.08984-.05859-.03125-.11719.08985-.05859.07421-.07422.04297-.10547.0586-.08984.04687-.10156.01563-.13281v-.14844l-.04688-.10547-.04297-.10156-.08984-.0586-.13281-.01562-.10157-.04297-.13671-.01563-.1172-.03125h-.4453l-.13282-.01562-.13281-.01172-.13281-.01563-.11719-.03125h-.14844l-.13281-.01562-.13281-.01172-.26563-.03125-.1211-.04297-.08593-.0586-.07422-.07421v-.14844l.01172-.13281.10547-.04688.10156-.04296.13281-.01563h.15235l.13281-.01562h.29297l.1211.03125.10156.04296.08984.0586.23438.0625.12109-.04688.08984-.05859.10156-.04297.13282-.01562.10547.04296.10156.04688.13281.01172.1211-.02735h.14453l.12109-.03125.11719-.02734.10547-.04687.07421-.07422.08594-.0586.14844-.14843.0586-.08594.04687-.10547.02734-.11719.01563-.10547-.10156-.04296-.08985-.0586-.11719-.03125-.10546-.04297-.08985-.0625-.07422-.08594-.07422-.07421-.10156-.04297-.10547-.04688-.10156-.04297-.0586-.08984-.04687-.10156-.08594-.21094-.0625-.08594-.05859-.08984-.07422-.07422-.08594-.0586h-.26953l-.11719.03126-.08984.05859-.10156.04297-.13281.01562-.10547-.01562-.02735-.11719-.0625-.08984-.11718-.03125-.10157-.04297-.14843-.14844-.03125-.11719-.01563-.10546.07422-.07422.17969-.1172.11719-.02733.11718-.03125.13672.01562.10156.04297.10547.04297.10156.04687.10547.04297.1172.03125.1328.01563.1172.02734.1328.01563.10547-.01563.08985-.0586-.07422-.07421-.10547-.04297-.07422-.07422-.07422-.08984-.14844-.14844-.08593-.0586-.08985-.05859-.07422-.07422-.08984-.0586-.10156-.04687-.1211-.02734-.10156-.04688-.10547-.04296-.11719-.03125-.10156-.04297-.1211-.03125h-.14843l-.11719.03125-.10546.04297-.08594.0625-.17969.11718-.08594.0586-.08984.0586-.10547.04687-.08594.05859-.10547.04297-.10156.04297-.10547.04687-.07422.07422-.05859.08985-.0586.08593-.04687.10547-.0586.08594-.07421.07422-.13281-.01172-.1172-.03125h-.11718l-.07422.07422-.08984.0586-.07422.07421-.08984.0586-.08594.05859-.10547.04687-.10156.04297-.13672.01563-.10156-.04297-.14844-.14844-.10547-.04688h-.08594l-.10547.04688-.10156.04297-.1211.03125-.11718-.03125-.07422-.07422v-.11719l.03125-.1211.07422-.0703.0586-.08985.07421-.07422.11719-.03125.10547-.04296h.29297l.13281-.01563.13672-.01563.10156-.04296.08985-.0586.10156-.04687.08984-.0586.13281-.01171.08985.05859.13281.01172.08984-.0586.08594-.05859.10547-.04297.08984-.0586.08594-.0625.08985-.05859.14843-.14843.0586-.08594.05859-.08985.10547-.04296.13281-.01563.11719.02735.1211.03125.05859-.0586.05859-.08984.03125-.26563.02734-.11719.10547.01172.13281.01563.10157-.04297.08984-.0586.0586-.08984.07421-.07422.0586-.08984.04687-.10156.01172-.13281-.01172-.13282-.04687-.10547-.14844-.14843-.0586-.08985-.05859-.08594-.04297-.10546v-.44532l.01563-.1328v-.14845l.01172-.1328-.0586-.0586-.08984.0586-.10156-.04298-.17969-.11719-.08594-.05859-.0625-.08984-.0586-.08985-.07421-.07421-.08594-.0586-.1211.03125-.10155.01172-.10547.04688-.08594.05859-.10547.04297-.14844.14844-.08984.05859-.08594.0586-.08984.0625-.10547.04296-.13281.01563v-.1211l.10547-.04297.11718-.03125.07422-.0703.04297-.10548v-.14844l-.02734-.11718-.14844-.14844-.13281-.01563h-.14844l-.11719.03125-.10547.04297-.10156.04297-.08984.0625-.11719.02735-.07422-.07422.01172-.13281-.04297-.10157-.04297-.10547-.08984-.05859-.11719.02734-.1211.03125-.11718.03125-.10156.04297-.1211.03125-.10156.04297-.10547.04297-.08984.0586-.10156.01562v-.11719l.01562-.13281-.0586-.08985-.07421.04297-.14844.14844-.0586.08985-.07421.07421-.04688.10547-.04296.10156-.07422.07422-.0586.08985-.07422.07422-.05859.08593-.07422.07422-.08984.0625-.07422.07031-.07422.07422-.10156.01563-.13281.01562-.10547-.04296v-.1211l.14843-.14844.04297-.10156.0586-.08984.04687-.10156.04297-.10547.0586-.08985.03124-.11719.04297-.10156.03125-.1211.02735-.11718.04687-.10547.04297-.10156.04297-.10547.07422-.07031.08984-.0625.08985-.0586.10156-.04296h.29687l.26563-.03125.10547-.04297-.07422-.07422-.11719-.03125-.10547-.04297-.08984-.0586-.10156-.04687-.08985-.0586-.10156-.04296-.10547-.04297-.08984-.0625-.08594-.0586-.10547-.04296-.10156-.04297-.1211-.03125-.11718-.03125-.10157-.04297L297.5 410.25l-.10156-.04297-.08985-.0586-.04296-.10546-.01563-.13281.10156-.04297.13281-.01563.13672.01563.13282-.01563.10156-.04297.0586-.08984.01562-.10547-.08985-.0586-.07421-.07421-.10157-.04297-.08984-.0586-.14844-.14843-.04297-.10547-.01562-.13281v-.29297l-.0586-.08985-.08984-.05859-.07422-.07422-.04297-.10547-.03125-.11718-.0586-.08985-.07421-.07422-.11719-.02734-.07422-.07422-.08984-.0586-.08984-.0625-.08594-.05859-.07422-.07421-.0586-.08594-.04687-.10547-.08594-.0586-.14843-.14843-.19532-.0586-.1328.01563-.10157.04297-.07422.07422-.04688.10156-.04296.10547-.0586.08984-.0586.08594-.29687.29687-.08984.0586h-.08594l-.0625-.08594-.04297-.10547.03125-.11719.0586-.08984.02734-.11719-.01172-.13281-.08984-.0625-.10547.04688-.11719.02734-.11719.03125-.26953.17578-.10156.04688-.11719.02734-.10546.04687-.08985.0586-.10156.04297-.0586-.08594-.04687-.10547.01563-.13281.04687-.10547.07031-.07422.07422-.07031.0586-.08985v-.14843l-.04297-.10547h-.23829l-.10156.04687-.03125.11719-.02734.11719-.03125.1211-.07422.04296-.13281.01563-.07422-.04688-.04297-.10156-.04297-.10547-.04687-.10156-.04297-.10547-.1211.03125-.10156.04297-.13281.01562-.11719.03125-.10547.04297-.08984.0586-.10156.04687-.1211.02734-.13281.01563-.10156-.04297-.0586-.08985-.04687-.10546-.04297-.10157-.04297-.10546v-.1172l.0586-.08984.08593-.05859.17969-.11719.10156-.04687.10547-.04297.10547-.0586.10156-.04296.08985-.0625.10156-.04297.10547-.0586.10156-.04687.08984-.0586.10547-.04296.10156-.04297.08985-.0625.10156-.04297.13672-.01563.11719.03125.10156.04297.1211.03125.10156.04297.10546.04688.10157.04296.10547.04297.10156.04688.10547.04297.10156.04297.10547.04687.08594.0586.10546.04296.1172.03125.10546.04297.10156.04688.08985.0586.10547.04296.10156.04297.10547.04687.11719.02735.10156.04687.1211.02735h.14843l.08594-.0586.01562-.10156.0586-.08984-.02735-.1172-.07422-.07421-.11719-.17969-.07421-.07422-.08985-.07421-.17969-.1172-.08593-.05859-.10547-.04296-.10156-.04688-.26954-.17578-.05859-.08985-.07422-.07421-.0586-.08985-.04296-.10156-.03125-.11719-.01563-.13672v-.5625l-.01171-.1328-.01563-.13282-.03125-.11719-.01562-.13281-.01172-.13281-.03125-.1211-.22266-.22265-.0586-.08594-.01562-.10547.03125-.11719.13281-.01562v-91.41406H172.9922v1.45312l-.0586.23438-.35156 1.05078-.17187.52343-.1172.34766-.17577.41016-.11719.17187-.23438.29297-.23046.0586h-.35157l-.11718.05859-.23047.40625v.29297l.11719.17578.23046.23047.1172.23437.64062.75781.29297.46485.17578.23437.23047.35156.23437.34766.64063.8164.17578.46485.17187.41016.11719.69531.17578.46875.11719 1.39844.0586.46484v.875l.11718 1.04688v4.78125l-.0586.46484-.35156 1.28125-.17578.52344-.11328.41015-.35156.9297L172.93359 336l-.23437.58203-.11719.17578-.17187.34766-.17578.40625-.35157.8164-.0586.29297-.11327.29297-.11719.28906-.0586.17579-.11718.875-.0586.40625-.05859.11718-.0586.17579-.05859.17187-.23047.52734-.11718.17188v.23437l-.11719.23438-.0586.17187-.17577.58594v.28906l-.0586.17579v.29296l-.0586.11329-.05859.52734v.17187l-.05468.23438v2.6211l-.17578.8164-.1172.17578-.17577.23438-.1172.17187-.11327.23438-.58594.93359-.23047.28906-.29297.46485-.17578.23437-.28906.35156-.35156.69922-.11328.23047-.17579.41016-.17578.23046-.40625.52735-.8164.69922-.29297.17187-.28906.23438-.17579.11719-.17578.17578-.52344.40625-.52734.17578-.17187.17578-.23438.05469-.64062.17578h-.75782m12.21094 31.02344l-1.07422.44921.35938.89454 1.25-.71485.44531-.53906-.98047-.08985"/><path fill="#d3d3d3" fill-opacity="0" fill-rule="evenodd" d="M201.50781 416.59766h-.89453l.44922.6289.98047.35938.80469-.08985.4453-.98828-.17577.08985-.71485-.35547-.89453.35547m154.6211 59.0703l-.0586-.52343v-.29297l.11328-.29297.0586-.23046.46875-.46875h.11328l.11719-.11329.11718-.05859h.17579l.23437-.0586h.34766l.23437.0586.11719.0586.23047.17187.0586.17578.11718.58203v.29297l-.11719.17578-.17187.28906-.17579.17579-.52734.52343-.23047.23438-.11719.0586h-.17578l-.11718-.0586-.40625-.29297-.17579-.11719-.11718-.0586-.0586-.11327-.05468-.1172m6.64062-10.95702l-.0586-.17188v-1.10937l.0586-.17188.17578-.0586.17188-.05858h.17578l.23437-.0586.1172.0586.05858.69921-.05859.17188-.11719.17578-.11718.0586-.23438.52343-.11328.0586h-.23438l-.05859-.1172m9.61328-14.39062l-.11719-.17578v-.69922l.29297-.875.1172-.17187.17577-.35156.11328-.23047.1172-.29297.35155-.75781.1172-.23047.17187-.23438h.17578l.11719-.0586h.64062l.11719.0586.23437.23438.17188.11328.35156.29297.11719.11718.11328.17579v.11328l.11719.05859.11718.11719v.69922l-.05859.17578v.23047l-.0586.17578-.34765 1.05078-.11719.23047-.11719.23437-.11718.0586-.23047.23437-.64063.28906h-.875l-.41015-.11718-.64063-.46485"/><path fill="none" stroke="#bebebe" stroke-linecap="round" stroke-linejoin="round" stroke-miterlimit="10" stroke-width=".5" d="M467.95703 311.69531H144.02734v168.625h323.9297v-168.625"/><g clip-path="url(#a)"><path fill="#fff" fill-opacity="0" fill-rule="evenodd" d="M144 475.89063v4.4375h.0039H144V311.67188h.0039H144v164.21875"/></g><g clip-path="url(#b)"><path fill="#fff" fill-opacity="0" fill-rule="evenodd" d="M144.0039 480.32813V311.67188h4.4336V439l-.54688 1.38281.54688.64453 2.9961-.64453L148.4375 439V311.67187h17.7539v118.48047l-4.4375.90625-.59765.44922-3.01172 4.4375-.82812 2.1875-3.42188 2.25 3.42188 1.69922.6875 2.73828 1.4453 4.4414-.2539 4.4375.72266 4.4375 1.83594 1.91407 2.4375-1.91406 1.02343-4.4375.97657-1.47656 4.4375 1.21484 4.4375-.47266 4.4414-.47656 4.4375-2.33203 1.41797-.89453 3.01953-2.01172 2.61328-2.42969 1.82422-3.61328.92188-.82422-.92188-.89062-1.86719-3.54688-2.5703-1.28125-4.4375-2.36719-1.4297-.78906-3.0078-1.21484-4.44141.86328-4.4375-.28906-4.4375-.71485V311.67188h48.82422v126.51171l-2.23829 2.19922-.90234 4.4375-1.30078 1.09375-4.4375.5586-.73438 2.78906-3.70312 2.28125-3.55469 2.15625 3.55469 1.83984 4.4375.3125 4.4375-1.67969.79687-.47265 3.64453-3.78516 4.4375.47656 4.11329-1.1289.32422-.35547 1.52734-4.08594-1.52734-1.95703-3.4336 1.95703-1.0039.9336-1.03907-.9336.13281-4.4375-3.53125-2.19922V311.67188h17.75v121.46875l-3.27734 2.80468 3.27734 2.45703 2.36329-2.45703-2.36328-2.80469V311.67188h8.8789v125.89454l-3.17578 2.8164 3.17578 2.7461 3.00781-2.7461-3.0078-2.8164V311.67187h146.46483v144.97266l-1.5625 1.49219-2.875 2.4414-1.9453 1.9961 1.9453 3.89844.61329.54296-.61329 1.33594-.83984 3.10156.83985 1.11329 1.18359-1.11329 3.2539-2.24609 2.33594-2.1914.41016-4.44141-1.19531-4.4375-1.55079-1.49219V311.67188h79.88672v160.91015l-3.2578 3.3086 3.2578 3.2578v1.1797h-72.47265l-2.97656-2.89844-2.9961 2.89844H144.00391"/></g><path fill="#50fcfc" fill-rule="evenodd" d="M148.4375 441.02734l-.54688-.64453L148.4375 439l2.9961 1.38281-2.9961.64453m8.8789 1.0547l-3.42187-1.69923 3.42188-2.25.82812-2.1875 3.01172-4.4375.59766-.44922v5.60547l-3.16797 3.71875 2.50781 4.4375.66016 1.1836 1.1875-1.1836 3.25-3.54297 1.9453-.89453-1.9453-1.47656-4.4375-2.24219v-5.60547l4.4375-.90625 4.4375.71485 4.4375.28906 4.4414-.86328 3.00781 1.21484 1.4297.78906 4.4375 2.3672 2.5703 1.28124 1.8672 3.54688.92187.89062-.92188.82422-1.82422 3.61328-2.61328 2.42969-3.01953 2.01172-1.41797.89453-4.4375 2.33203-4.4414.47656-4.4375.47266-4.4375-1.21484-.97657 1.47656-1.02343 4.4375-2.4375 1.91406-1.83594-1.91406-.72266-4.4375.2539-4.4375-1.4453-4.4414-.6875-2.73829"/><path fill="#00e8fc" fill-rule="evenodd" d="M161.09375 444.82031l-2.50781-4.4375 3.16797-3.71875v2.88281l-.71485.83594.71485 1.10938 1.0703-1.10938-1.0703-.83594v-2.8828l4.4375 2.24218 1.9453 1.47656-1.9453.89453-3.25 3.54297-1.1875 1.1836-.66016-1.1836"/><path fill="#00d4fc" fill-rule="evenodd" d="M161.7539 441.49219l-.71484-1.10938.71485-.83594 1.0703.83594-1.0703 1.10938"/><path fill="#50fcfc" fill-rule="evenodd" d="M201.69922 455.53906l-3.55469-1.83984 3.55469-2.15625 3.70312-2.28125.73438-2.78906 4.4375-.5586 1.30078-1.09375.90234-4.4375 2.23828-2.19922 3.53125 2.19922-.1328 4.4375 1.03905.9336 1.00391-.9336 3.4336-1.95703 1.52734 1.95703-1.52734 4.08594-.32422.35547-4.11328 1.1289-4.4375-.47656-3.64454 3.78516-.79687.47265-4.4375 1.6797-4.4375-.3125m31.0664-17.13673l-3.27734-2.45703 3.27734-2.80469 2.36329 2.8047-2.36328 2.45702m8.8789 4.72657l-3.17578-2.7461 3.17578-2.8164 3.00781 2.8164-3.0078 2.7461m142.02733 23.34375l-1.9453-3.89844 1.9453-1.9961 2.875-2.4414 1.5625-1.49219 1.55079 1.49219 1.1953 4.4375-.41015 4.4414-2.33594 2.19141-3.2539 2.2461-1.1836 1.11328-.83984-1.11329.83985-3.10156.61328-1.33594-.61329-.54296"/><g clip-path="url(#c)"><path fill="#50fcfc" fill-rule="evenodd" d="M389.55078 480.32813h2.4414l.5547-.53516.55078.53515h2.42578l-2.97656-2.89843-2.9961 2.89844"/></g><g clip-path="url(#d)"><path fill="#00e8fc" fill-rule="evenodd" d="M391.99219 480.32813l.55469-.53516.55078.53515h-1.10547"/></g><path fill="#50fcfc" fill-rule="evenodd" d="M467.9961 479.14844l-3.25782-3.25781 3.25781-3.3086v1.79297l-1.49218 1.51563 1.49218 1.49218v1.76563"/><path fill="#00e8fc" fill-rule="evenodd" d="M467.9961 477.38281l-1.4922-1.49219 1.4922-1.51562v3.00781"/><path fill="#50fcfc" fill-rule="evenodd" d="M467.9961 477.38281v1.76563l.0039.0039v-1.76562l-.0039-.0039"/><path fill="#00e8fc" fill-rule="evenodd" d="M467.9961 474.375v3.00781l.0039.0039v-3.01562l-.0039.00391"/><path fill="#50fcfc" fill-rule="evenodd" d="M467.9961 472.58203v1.79297l.0039-.0039v-1.79298l-.0039.00391"/><g clip-path="url(#e)"><path fill="#fff" fill-opacity="0" fill-rule="evenodd" d="M467.9961 311.67188H468v160.90625-160.90625h-.0039"/></g><g clip-path="url(#f)"><path fill="none" stroke="#000" stroke-linecap="round" stroke-linejoin="round" stroke-miterlimit="10" stroke-width=".5" d="M147.45703 479.70313l-6.91406 1.25"/></g><g clip-path="url(#g)"><path fill="none" stroke="#000" stroke-linecap="round" stroke-linejoin="round" stroke-miterlimit="10" stroke-width=".5" d="M147.45703 479.70313l1.51953 1.92578"/></g><g clip-path="url(#h)"><path fill="none" stroke="#000" stroke-linecap="round" stroke-linejoin="round" stroke-miterlimit="10" stroke-width=".5" d="M146.45313 479.88672l.7578.96094"/></g><g clip-path="url(#i)"><path fill="none" stroke="#000" stroke-linecap="round" stroke-linejoin="round" stroke-miterlimit="10" stroke-width=".5" d="M160.79297 479.83594l-6.95703.98437"/></g><g clip-path="url(#j)"><path fill="none" stroke="#000" stroke-linecap="round" stroke-linejoin="round" stroke-miterlimit="10" stroke-width=".5" d="M160.79297 479.83594l1.44531 1.98437"/></g><g clip-path="url(#k)"><path fill="none" stroke="#000" stroke-linecap="round" stroke-linejoin="round" stroke-miterlimit="10" stroke-width=".5" d="M159.78125 479.98047l.72266.99219"/></g><g clip-path="url(#l)"><path fill="none" stroke="#000" stroke-linecap="round" stroke-linejoin="round" stroke-miterlimit="10" stroke-width=".5" d="M174.1289 480.00781l-6.99609.64063"/></g><g clip-path="url(#m)"><path fill="none" stroke="#000" stroke-linecap="round" stroke-linejoin="round" stroke-miterlimit="10" stroke-width=".5" d="M174.1289 480.00781l1.34376 2.05078"/></g><g clip-path="url(#n)"><path fill="none" stroke="#000" stroke-linecap="round" stroke-linejoin="round" stroke-miterlimit="10" stroke-width=".5" d="M173.10938 480.10156l.67578 1.02735"/></g><g clip-path="url(#o)"><path fill="none" stroke="#000" stroke-linecap="round" stroke-linejoin="round" stroke-miterlimit="10" stroke-width=".5" d="M187.45313 480.14063l-7.01563.3789"/></g><g clip-path="url(#p)"><path fill="none" stroke="#000" stroke-linecap="round" stroke-linejoin="round" stroke-miterlimit="10" stroke-width=".5" d="M187.45313 480.14063l1.26953 2.10156"/></g><g clip-path="url(#q)"><path fill="none" stroke="#000" stroke-linecap="round" stroke-linejoin="round" stroke-miterlimit="10" stroke-width=".5" d="M200.76172 480.03516l-7.0039.58984"/></g><g clip-path="url(#r)"><path fill="none" stroke="#000" stroke-linecap="round" stroke-linejoin="round" stroke-miterlimit="10" stroke-width=".5" d="M200.76172 480.03516l1.32812 2.0625"/></g><g clip-path="url(#s)"><path fill="none" stroke="#000" stroke-linecap="round" stroke-linejoin="round" stroke-miterlimit="10" stroke-width=".5" d="M214.08594 480.15234l-7.01953.35547"/></g><g clip-path="url(#t)"><path fill="none" stroke="#000" stroke-linecap="round" stroke-linejoin="round" stroke-miterlimit="10" stroke-width=".5" d="M214.08594 480.15234l1.25781 2.10547"/></g><g clip-path="url(#u)"><path fill="none" stroke="#000" stroke-linecap="round" stroke-linejoin="round" stroke-miterlimit="10" stroke-width=".5" d="M227.39453 480.57031l-7.00781-.48437"/></g><g clip-path="url(#v)"><path fill="none" stroke="#000" stroke-linecap="round" stroke-linejoin="round" stroke-miterlimit="10" stroke-width=".5" d="M227.39453 480.57031l1 2.24219"/></g><g clip-path="url(#w)"><path fill="none" stroke="#000" stroke-linecap="round" stroke-linejoin="round" stroke-miterlimit="10" stroke-width=".5" d="M240.70313 480.64844l-6.9961-.64063"/></g><g clip-path="url(#x)"><path fill="none" stroke="#000" stroke-linecap="round" stroke-linejoin="round" stroke-miterlimit="10" stroke-width=".5" d="M240.70313 480.64844l.94921 2.26562"/></g><g clip-path="url(#y)"><path fill="none" stroke="#000" stroke-linecap="round" stroke-linejoin="round" stroke-miterlimit="10" stroke-width=".5" d="M254.02734 480.53125l-7.01562-.40625"/></g><g clip-path="url(#z)"><path fill="none" stroke="#000" stroke-linecap="round" stroke-linejoin="round" stroke-miterlimit="10" stroke-width=".5" d="M254.02734 480.53125l1.02344 2.23047"/></g><g clip-path="url(#A)"><path fill="none" stroke="#000" stroke-linecap="round" stroke-linejoin="round" stroke-miterlimit="10" stroke-width=".5" d="M267.34766 480.40234l-7.02344-.14843"/></g><g clip-path="url(#B)"><path fill="none" stroke="#000" stroke-linecap="round" stroke-linejoin="round" stroke-miterlimit="10" stroke-width=".5" d="M267.34766 480.40234l1.10547 2.19141"/></g><g clip-path="url(#C)"><path fill="none" stroke="#000" stroke-linecap="round" stroke-linejoin="round" stroke-miterlimit="10" stroke-width=".5" d="M280.64844 480.64063l-6.9961-.625"/></g><g clip-path="url(#D)"><path fill="none" stroke="#000" stroke-linecap="round" stroke-linejoin="round" stroke-miterlimit="10" stroke-width=".5" d="M279.63281 480.55078l.47656 1.1289"/></g><g clip-path="url(#E)"><path fill="none" stroke="#000" stroke-linecap="round" stroke-linejoin="round" stroke-miterlimit="10" stroke-width=".5" d="M293.77734 481.5039l-6.62109-2.35156"/></g><g clip-path="url(#F)"><path fill="none" stroke="#000" stroke-linecap="round" stroke-linejoin="round" stroke-miterlimit="10" stroke-width=".5" d="M292.8125 481.16406l.17969 1.21094"/></g><g clip-path="url(#G)"><path fill="none" stroke="#000" stroke-linecap="round" stroke-linejoin="round" stroke-miterlimit="10" stroke-width=".5" d="M306.71875 482.25781l-5.875-3.85937"/></g><g clip-path="url(#H)"><path fill="none" stroke="#000" stroke-linecap="round" stroke-linejoin="round" stroke-miterlimit="10" stroke-width=".5" d="M319.375 483.0039l-4.5586-5.34765"/></g><g clip-path="url(#I)"><path fill="none" stroke="#000" stroke-linecap="round" stroke-linejoin="round" stroke-miterlimit="10" stroke-width=".5" d="M331.5664 483.64453l-2.3125-6.63281"/></g><g clip-path="url(#J)"><path fill="none" stroke="#000" stroke-linecap="round" stroke-linejoin="round" stroke-miterlimit="10" stroke-width=".5" d="M343.78516 483.84375l-.1172-7.02734"/></g><g clip-path="url(#K)"><path fill="none" stroke="#000" stroke-linecap="round" stroke-linejoin="round" stroke-miterlimit="10" stroke-width=".5" d="M356.15625 483.73047l1.76953-6.80078"/></g><g clip-path="url(#L)"><path fill="none" stroke="#000" stroke-linecap="round" stroke-linejoin="round" stroke-miterlimit="10" stroke-width=".5" d="M370.02734 483.82813l.65625-6.9961"/></g><g clip-path="url(#M)"><path fill="none" stroke="#000" stroke-linecap="round" stroke-linejoin="round" stroke-miterlimit="10" stroke-width=".5" d="M382.66797 483.69531l2.0039-6.73437"/></g><g clip-path="url(#N)"><path fill="none" stroke="#000" stroke-linecap="round" stroke-linejoin="round" stroke-miterlimit="10" stroke-width=".5" d="M395.0664 483.26953l3.83985-5.88281"/></g><g clip-path="url(#O)"><path fill="none" stroke="#000" stroke-linecap="round" stroke-linejoin="round" stroke-miterlimit="10" stroke-width=".5" d="M409.30469 483.69922l1.99219-6.73828"/></g><g clip-path="url(#P)"><path fill="none" stroke="#000" stroke-linecap="round" stroke-linejoin="round" stroke-miterlimit="10" stroke-width=".5" d="M423.4336 483.83594l.36718-7.01563"/></g><g clip-path="url(#Q)"><path fill="none" stroke="#000" stroke-linecap="round" stroke-linejoin="round" stroke-miterlimit="10" stroke-width=".5" d="M437.76953 483.74219l-1.67578-6.82422"/></g><g clip-path="url(#R)"><path fill="none" stroke="#000" stroke-linecap="round" stroke-linejoin="round" stroke-miterlimit="10" stroke-width=".5" d="M451.48828 483.61328l-2.48437-6.57031"/></g><g clip-path="url(#S)"><path fill="none" stroke="#000" stroke-linecap="round" stroke-linejoin="round" stroke-miterlimit="10" stroke-width=".5" d="M464.625 483.67969l-2.125-6.69922"/></g><g clip-path="url(#T)"><path fill="none" stroke="#000" stroke-linecap="round" stroke-linejoin="round" stroke-miterlimit="10" stroke-width=".5" d="M147.47656 466.50781l-6.95312 1.01172"/></g><path fill="none" stroke="#000" stroke-linecap="round" stroke-linejoin="round" stroke-miterlimit="10" stroke-width=".5" d="M147.47656 466.50781l1.45313 1.97656m-2.46485-1.82812l.72657.98828m13.54297-1.44531l-6.83594 1.6289m6.83594-1.6289l1.62109 1.83984m-2.61719-1.60156l.8125.91797m13.30469-1.73438l-6.44922 2.78516m6.44922-2.78516l1.91797 1.53125m-2.85547-1.125l.95703.76563m13.33594-1.07422l-6.53125 2.58984m6.53125-2.58984l1.8711 1.58594m-2.82032-1.21094l.9336.79688m13.22265-1.41797l-6.3164 3.08203m6.3164-3.08203l1.98437 1.4453m11.32813-1.44921l-6.3125 3.08984m6.3125-3.08984l1.98828 1.4375m11.54297-.8789L220.51953 468m6.74219-1.97266l1.71484 1.75391m11.6289-1.65625l-6.80077 1.77734m6.80078-1.77734l1.66016 1.80469m11.66406-1.77344l-6.8164 1.71484m6.8164-1.71484l1.64453 1.82031m11.73828-1.46484l-6.95313 1.0039m6.95313-1.0039l1.44922 1.97656m11.85547-2.04297l-6.9336 1.13672m6.9336-1.13672l1.48828 1.95313m11.85937-1.71485l-6.99609.66016m6.9961-.66016l1.34765 2.05078m11.98047-1.65234l-7.02344-.13672m6.0039.11719l.5547 1.09375m13.66406-.23828l-6.79297-1.8086m5.80469 1.54688l.27734 1.19531m11.58984 1.54297l-1.92187-6.76172m1.64453 5.77735l-.88672.85156m11.86328-.14844l3.3125-6.19922m-2.83203 5.29688l-1.22656-.0039m14.13672.9453l3.16015-6.27734m-2.69922 5.36328l-1.22656.02735m13.51953.53125l4.28516-5.56641m-3.66406 4.75781l-1.20703-.20312m13.46484.61718L386.25 464.625m-5.15625 4.77734l-2.3164-.80468m15.28124.35547l5.85547-3.87891m-5.85547 3.8789l-2.15625-1.16796m15.94141 1.74218l4.91406-5.02734m-4.91406 5.02734l-2.35156-.6914m3.0664-.03906l-1.17578-.34766m15.1836 1.91797l2.10156-6.70703m-2.10156 6.70703l-2.41016.45312m16.4414-.3086l.66797-6.99608m-.66796 6.99609l-2.26954.9375m15.85157-.92188l.13281-7.02734m-.13281 7.02734l-2.1875 1.10938m15.57031-1.10938V463.5m0 7.02734l-2.16797 1.15235"/><g clip-path="url(#U)"><path fill="none" stroke="#000" stroke-linecap="round" stroke-linejoin="round" stroke-miterlimit="10" stroke-width=".5" d="M147.44922 453.02734l-6.89844 1.34375"/></g><path fill="none" stroke="#000" stroke-linecap="round" stroke-linejoin="round" stroke-miterlimit="10" stroke-width=".5" d="M147.44922 453.02734l1.54297 1.90235m11.7539-1.9961l-6.85937 1.53125m6.85937-1.53125l1.59375 1.86328m11.52344-2.46875l-6.46875 2.7422m6.46875-2.7422l1.90625 1.54297m11.28516-1.80859l-6.21875 3.27344m6.21875-3.27344l2.02734 1.3789m11.61719-.46484l-6.8789 1.4414m5.8789-1.23046l.78516.9414m13.02343-2.36327l-5.86719 3.86718m5.01563-3.30468l1.07422.58593m12.52734-1.8086l-4.73437 5.1875m4.73437-5.1875l2.3789.60938M240 451.56641l-5.58984 4.26172M240 451.5664l2.23047 1.02734m11.3086-.69531L247.5039 455.5m6.03515-3.60156l2.09766 1.27344m11.33984-1.05079l-6.28125 3.15625m6.28125-3.15625l2 1.41797m11.1211-1.75l-5.89453 3.82032m5.89453-3.82032l2.14453 1.1875m10.91406-1.53515l-5.38281 4.51562m5.38281-4.51562l2.27734.91797m11.09375-.85157l-5.49218 4.38281m5.49218-4.3828l2.25.97656m11.38672-.4961l-6.13672 3.41797m5.2461-2.91797l1.02734.66406m13.33203-.85937l-6.4414 2.8125m5.5039-2.40234l.96094.76171m13.5625-.16406l-6.98437.79688m5.96484-.6836l.69531 1.01172m13.35156-2.16406l-6.41015 2.875m13.75781.73437l5.52344-4.34375m7.125 2.9336l6.85937-1.52735m-6.85937 1.52735l-1.59375-1.86328m14.82812 1.25l7.01953-.29688m-7.01953.29688l-1.24218-2.1172m2.26171 2.07423l-.62109-1.0586m13.42188 2.77344l6.0078-3.64453m-6.0078 3.64453l-2.10938-1.2539m18.92969 2.91015l-1.0039-6.95312m.85937 5.9414l-.9922.72657m15.39845.0078l-2.89453-6.40234m2.47265 5.47266l-.7461.97266m11.01173-.3711l4.05078-5.74218m-4.05078 5.74218l-2.4336-.3086m16.80078.8125l1.94532-6.75m-1.94532 6.75l-2.40234.50782"/><g clip-path="url(#V)"><path fill="none" stroke="#000" stroke-linecap="round" stroke-linejoin="round" stroke-miterlimit="10" stroke-width=".5" d="M147.50781 440.17188l-7.01562.42578"/></g><path fill="none" stroke="#000" stroke-linecap="round" stroke-linejoin="round" stroke-miterlimit="10" stroke-width=".5" d="M147.50781 440.17188l1.28125 2.09375m12.02344-1.56641l-6.9961-.63281m6.9961.6328l.95313 2.26173m12.33203-3.14453l-6.9336 1.13671m5.92578-.97265l.7422.97656m13.5703.0625l-6.91406-1.26953m5.90625 1.08203l.3711 1.17188m13.99218-1.28516l-6.9961-.67188m6.9961.67188l.9414 2.26562m12.32813-3.26562l-6.90234 1.32812m6.90234-1.32812l1.53907 1.91016m-2.54297-1.71485l.76953.95313m13.3086-1.91407l-6.42188 2.85938m6.42187-2.85938l1.9336 1.51172m10.69922-2.52343l-5.0547 4.8828m5.0547-4.8828l2.33203.7578m10.58593-1.10546l-4.26562 5.58203m3.64844-4.76953l1.20703.19922m13.04297-.73828l-4.90235 5.03515m4.90235-5.03515l2.35547.6836m10.97656-.66798l-4.9336 5.0039m4.21485-4.27734l1.17578.35157m13.01953-.90625l-5.25781 4.66015m4.49219-3.98437l1.15234.42969m12.88672-1.15625l-5.17188 4.7578m5.17188-4.7578l2.3125.8164m11.13281-.66406l-5.4336 4.45312m5.4336-4.45312l2.26563.94531m11.55468-.1211l-6.4414 2.8047m6.4414-2.8047l1.92188 1.52735m11.26953-1.77734l-6.19922 3.3086m6.19922-3.3086l2.03906 1.36719m10.95703-1.86329l-5.5586 4.30079m5.5586-4.30078l2.23438 1.0078m9.53125-2.14843l-2.46094 6.58203m2.46094-6.58203l2.4336-.32031m7.30858.99219L386.01563 443m-4.6875-5.23438l.84375-2.30468m11.6211 3.46094l6.38672 2.92578m-6.38672-2.92578l-.14453-2.44922m1.07422 2.875l-.07422-1.22657m12.17187 1.78907l6.96094.9453m-6.96094-.9453l-.85156-2.30078m1.86328 2.4375l-.42578-1.14844m13.49219 3.71094l5.4336-4.45313m-5.4336 4.45313l-2.26172-.94532m15.77734 1.17188l5.03516-4.90235m-4.30078 4.1875l-1.16797-.375m16.26562 2.15235v-7.02735m11.66407 6.61328l3.30468-6.20312m-3.30468 6.20313l-2.45313-.00391"/><g clip-path="url(#W)"><path fill="none" stroke="#000" stroke-linecap="round" stroke-linejoin="round" stroke-miterlimit="10" stroke-width=".5" d="M147.44922 426.39453l-6.89844 1.34766"/></g><path fill="none" stroke="#000" stroke-linecap="round" stroke-linejoin="round" stroke-miterlimit="10" stroke-width=".5" d="M147.44922 426.39453l1.54687 1.90625m11.83203-1.35937l-7.02343.2578m7.02344-.2578l1.23046 2.12109m11.9336-.97656l-6.72656-2.03516m6.72656 2.03516l.47656 2.41015m12.89453-2.60937l-6.83594-1.63672m6.83594 1.63672l.61719 2.375m12.7539-2.66797l-6.94921-1.04687m6.94922 1.04687l.8164 2.3125m12.48828-2.25l-6.92578-1.17578m6.92578 1.17578l.77344 2.32813m12.46094-1.96875l-6.76563-1.89454m5.78125 1.6172l.26172 1.19921m13.92578-3.15625l-6.53906 2.57422m5.58594-2.19922l.9336.79688m13.40233-.97657l-6.67968 2.1836m6.67969-2.1836l1.76953 1.69922m11.65234-1.29297l-6.89063 1.375m6.89063-1.375l1.55469 1.89844m11.4375-2.82422l-6.2461 3.22266m6.2461-3.22266l2.01562 1.39453m11.6211-.48437l-6.88672 1.40234m5.88281-1.19922l.78125.94922m13.16797-2.15234l-6.14844 3.40234m6.14844-3.40234l2.05469 1.33984m11.20312-1.4375l-6.03516 3.59766m6.03516-3.59766l2.09766 1.27344m11.1914-1.3164l-5.98437 3.68359m5.98437-3.6836l2.1172 1.24219m11.5078-.60156l-6.60547 2.40234m5.64454-2.05078l.91406.82031m13.48437-.7539l-6.84765 1.5664m5.85156-1.33984l.80469.92969m12.04687-3.28516l-3.92578 5.82422m3.35547-4.97656l1.21875.125m8.85156-1.04688l3.70313 5.97266m-3.16407-5.10156l.61329-1.0625m16.47656.67187l-4.92578 5.01172m4.92578-5.01172l2.35156.69922m12.01172 1.66016l-7.02344.29296m6-.25l.6211 1.0586m13.47265-2.25l-6.53125 2.58984m6.53125-2.58984l1.8711 1.58984m7.35546-3.71094l1.64454 6.83204m-1.40625-5.83594l.91796-.8164m13.87891-.16016l-1.79687 6.79296m1.79687-6.79296l2.38672-.5625m10.89062.55078l-1.72265 6.8164"/><g clip-path="url(#X)"><path fill="none" stroke="#000" stroke-linecap="round" stroke-linejoin="round" stroke-miterlimit="10" stroke-width=".5" d="M147.22656 412.36719l-6.45312 2.77344"/></g><path fill="none" stroke="#000" stroke-linecap="round" stroke-linejoin="round" stroke-miterlimit="10" stroke-width=".5" d="M146.28906 412.76953l.95703.76953m13.53516-.35156l-6.9336 1.1289m6.9336-1.1289l1.48828 1.95313m11.78906-.625l-6.85937-1.52344m6.85937 1.52344l.65625 2.36718m12.70313-2.60156l-6.94531-1.05469m6.9453 1.05469l.81642 2.3125m12.48437-2.21875l-6.91797-1.24219m5.91016 1.0625l.375 1.16797m11.6914 1.6914l-2.40625-6.60155m2.0586 5.64062l-.82031.91406m12.8789.23438l.80469-6.98047m-.6875 5.96484l-1.14453.44922m14.08984.53125l1.3086-6.90625m-1.1172 5.89844l-1.17187.36719m18.45313-2.5625l-7.00781-.5m5.98828.42578l.5 1.125m13.76172-.53906l-6.85938-1.52344m5.85938 1.30078l.32812 1.1836m13.60938-3.46094l-6.10547 3.47265m6.10547-3.47265l2.07421 1.3164m9.44532-2.85937l-2.51172 6.5625m2.14453-5.60938l1.21875-.14844m12.21484-.89062l-2.01953 6.73047m17.1914-5.39844l-5.73046 4.07031m4.89453-3.47656l1.09766.54688m13.5-.28516l-6.6211 2.35937m5.65625-2.01562l.90625.82812m12.32031-2.68359l-4.51562 5.38281m4.51562-5.38281l2.40235.51172m11.64062.32812l-5.97265 3.70313m5.10547-3.16406l1.05859.61718m12.19922-2.14843l-4.125 5.6875m17.30469-5.78516l-3.85157 5.8789m3.85157-5.8789l2.4414.22656m-3.0039.6289l1.22265.11329m12.73828-.91016l-4.01953 5.76172m4.01953-5.76172l2.4375.29688m-3.01953.54297l1.21485.14844m12.83984-.8711l-4.33594 5.53125m4.33594-5.53125l2.41797.4336m-3.04688.37109l2.41407.4336m10.72656-1.71095l-2.72656 6.47657m2.72656-6.47657l2.4414-.22265m-2.83984 1.16406l2.44531-.21875m11.02344-.8164l-2.23828 6.66015m2.23828-6.66015l2.42188-.39844m-2.7461 1.36719l1.21094-.19922m14.02734.33984l-5.4375 4.44531m5.4375-4.44531l2.26563.94531m-3.05469-.30078l2.26172.94922m12.10937-1.22656l-5.96875 3.71094"/><g clip-path="url(#Y)"><path fill="none" stroke="#000" stroke-linecap="round" stroke-linejoin="round" stroke-miterlimit="10" stroke-width=".5" d="M466.54688 411.89844l2.12109 1.23437"/></g><g clip-path="url(#Z)"><path fill="none" stroke="#000" stroke-linecap="round" stroke-linejoin="round" stroke-miterlimit="10" stroke-width=".5" d="M465.67578 412.4375l2.125 1.23438"/></g><g clip-path="url(#aa)"><path fill="none" stroke="#000" stroke-linecap="round" stroke-linejoin="round" stroke-miterlimit="10" stroke-width=".5" d="M147.0039 398.61719l-6.0078 3.64453"/></g><path fill="none" stroke="#000" stroke-linecap="round" stroke-linejoin="round" stroke-miterlimit="10" stroke-width=".5" d="M146.1289 399.14453l1.0547.6289m13.60156.11329l-6.94141 1.10156m5.92969-.9414l.74219.98046m13.625-.46484l-7.02344-.2461m6.0039.21094l.53516 1.10157m12.08203-4.21094l-3.58594 6.04297m3.58594-6.04297l2.44922.11328m8.4375-.54688l1.26953 6.91016m-1.08594-5.90625l.96485-.76172m9.39453 2.34766l6.8125 1.72656m9.625 2.64063l.57031-7.00391m-.57031 7.0039l-2.25.97266m16.48047-1.01953l-1.25781-6.91406m1.07421 5.91015l-.96484.75782m17.25781-2.42969l-6.85156-1.5586m5.85547 1.33204l.32031 1.1836m13.51953.16796l-5.90625-3.8086m5.04688 3.25391l-.10547 1.22266m14.80469-3.07813l-6.95704 1.01172m6.95704-1.01172l1.44922 1.97657m11.74218-2.51563l-6.71094 2.08985m6.71094-2.08985l1.74219 1.72656m-2.71875-1.42187l.8711.85937m13.37109-1.30859l-6.61328 2.3789m6.61328-2.3789l1.8164 1.64844m11.65235.15234l-6.91797-1.22265m5.91406 1.04296l.375 1.16797m9.35547-4.92578l2.26172 6.65235m9.64453-5.75782l5.07813 4.85938m-4.33985-4.15235l.33203-1.17968m18.10547 4.05078l-6.64453-2.29688m20.14844 1.05469l-7.02344.1914m7.02344-.1914l1.21094 2.13281m11.18359-4.41406l-5.17969 4.75m5.17969-4.75l2.3125.82031m-3.0664-.1289l1.15624.41015m13.5625-.08594l-6.48047 2.71875m6.48047-2.71875l1.89844 1.5547m11.40234-1.58985l-6.45312 2.78906m5.51562-2.38281l.95704.76562m12.26562-2.51953l-4.39063 5.48828m4.39063-5.48828l2.41016.45313m-3.05079.34375l1.20704.22656m13.09765-.70313l-5.08984 4.84766m5.08984-4.84765l2.32813.77343m-3.07031-.07031l1.16406.38672m13.36719-.46485l-6.03907 3.59375m6.03906-3.59375l2.09766 1.27344m-2.97656-.75l1.05078.63672m13.4375-.52734l-6.6289 2.32812"/><g clip-path="url(#ab)"><path fill="none" stroke="#000" stroke-linecap="round" stroke-linejoin="round" stroke-miterlimit="10" stroke-width=".5" d="M466.875 399.27344l1.80469 1.66406"/></g><path fill="none" stroke="#000" stroke-linecap="round" stroke-linejoin="round" stroke-miterlimit="10" stroke-width=".5" d="M465.91016 399.61328l1.80859 1.66016"/><g clip-path="url(#ac)"><path fill="none" stroke="#000" stroke-linecap="round" stroke-linejoin="round" stroke-miterlimit="10" stroke-width=".5" d="M147.1289 385.52344l-6.2578 3.20312"/></g><path fill="none" stroke="#000" stroke-linecap="round" stroke-linejoin="round" stroke-miterlimit="10" stroke-width=".5" d="M147.1289 385.52344l2.01173 1.40234m11.5078-.91797l-6.66405 2.23047m6.66406-2.23047l1.77734 1.6914m10.77734-2.96874l-5.14453 4.78515m5.14453-4.78515l2.31641.80078m9.78125-1.64844l-2.71094 6.48047m2.71094-6.48047l2.44531-.22656m-2.83984 1.16797l1.22266-.11328m11.97265-1l-1.67969 6.82422m1.6797-6.82422l2.3789-.60156m13.45312 5.04687l-6.71484-2.0664m6.71484 2.0664l.46094 2.41016m13.0039-3.22266l-7.01562-.4414m7.01563.4414l1.01172 2.23438m-2.03516-2.30079l.50781 1.1172m13.71485-2.1836l-6.78516 1.82422m6.78516-1.82422l1.67578 1.79297m-2.66406-1.52735l.83984.89453m13.41406-1.33593l-6.6836 2.17578m6.6836-2.17578l1.76563 1.70312m11.65625-1.29297l-6.89844 1.35547m6.89844-1.35547l1.54687 1.90625m11.64453-2.36328l-6.65234 2.26953m6.65234-2.26953l1.78907 1.67969m11.28125-2.23438l-6.16016 3.37891m6.16016-3.3789l2.05078 1.34374m11.45703-.93359l-6.54688 2.5586m6.54688-2.5586l1.85937 1.59766m11.54688-1.32422l-6.73047 2.01562m6.73047-2.01562l1.72656 1.74219m-2.70703-1.44922l.86328.87109m13.22656-1.69531l-6.32031 3.07422m6.32031-3.07422l1.98438 1.44531m-2.90235-.9961l.9922.72266m13.48827 1.21875l-6.8164-1.70703m6.8164 1.70703l.59375 2.3789m-1.58203-2.6289l.29297 1.1914m14.03516-1.03905l-6.86328-1.51172m6.86328 1.51172l.66015 2.36328m12.5586-4.22266l-6.67188 2.20703m6.67188-2.20703l1.77343 1.69531m-2.74218-1.375l.88672.84766m13.17578-1.6914l-6.22657 3.2539m6.22657-3.2539l2.02343 1.38671m-2.92968-.91406l1.01172.69531m13.125-1.32031l-6.0586 3.5586m6.0586-3.5586l2.08984 1.28516m10.61719-2.05079l-4.84375 5.08985m4.84375-5.08985l2.36328.66016m10.64453-.92187L421.5 389.92969m4.23047-5.61328l2.42578.38671m11.61328.34766l-5.67578 4.14453m5.67578-4.14453l2.20703 1.07031m11.19532-.9414l-5.85157 3.88672m5.85157-3.88672l2.16015 1.16797m11.4961-.51563l-6.53516 2.58203"/><g clip-path="url(#ad)"><path fill="none" stroke="#000" stroke-linecap="round" stroke-linejoin="round" stroke-miterlimit="10" stroke-width=".5" d="M466.82813 385.83203l1.86718 1.58985"/></g><path fill="none" stroke="#000" stroke-linecap="round" stroke-linejoin="round" stroke-miterlimit="10" stroke-width=".5" d="M465.8789 386.20703l.9336.79688"/><g clip-path="url(#ae)"><path fill="none" stroke="#000" stroke-linecap="round" stroke-linejoin="round" stroke-miterlimit="10" stroke-width=".5" d="M147.29688 372.59375l-6.59375 2.42969"/></g><path fill="none" stroke="#000" stroke-linecap="round" stroke-linejoin="round" stroke-miterlimit="10" stroke-width=".5" d="M147.29688 372.59375l1.82812 1.63281m-2.78906-1.28125l.91797.8164m12.78906-2.16796l-5.45703 4.42578m5.45703-4.42578l2.26172.95703m11.1836-.78515l-5.71485 4.08593m5.71484-4.08594l2.19531 1.08985m10.60157-1.66797l-4.6797 5.24219m4.6797-5.24219l2.3828.58203m-3.0625.17969l2.38282.58203m12.33984-.4336l-6.13671 3.42188m6.13672-3.42187l2.0625 1.33203m-2.95313-.83203l1.03125.66406m13.58594.0664l-6.96094.96094m6.96094-.96094l1.4375 1.98829m-2.44922-1.84766l1.4375 1.98828m12.91797-1.44531l-7.01563-.40625m7.01563.40625l1.02344 2.23047m-2.04297-2.28906l1.02343 2.23046m13.30078-2.72656l-6.99218.70313m6.99219-.70313l1.36328 2.03906m-2.38282-1.9375l.6836 1.01954m13.49219-1.86329l-6.6797 2.1875m6.6797-2.1875l1.76953 1.69922m-2.7422-1.38281l.88673.85156m13.57422-.14062l-7.02344.13281m7.02344-.13281l1.1953 2.14453m-2.21483-2.125l.59375 1.07031m13.6328-.15625l-6.80859-1.73828m6.8086 1.73828l.58203 2.38672m-1.57422-2.63672l.29297 1.1914m14.11328-1.5625l-7.00781-.49218m7.00781.49219l1 2.24219m-2.01953-2.31641l.5 1.1211m13.79687-1.8711l-6.92968 1.15625m6.92968-1.15625l1.4922 1.94922m-2.5-1.78125l.74608.97265m13.54297-1.3125l-6.86328 1.5m6.86328-1.5l1.58985 1.8711m11.42578-2.71485l-6.26172 3.1875m6.26172-3.1875l2.00781 1.41016m11.6289-.45313l-6.91015 1.27344m6.91016-1.27344l1.52734 1.92188m11.84375-1.45703l-7.01953.34375m7.01953-.34375l1.25781 2.10547m-2.28125-2.05469l.62891 1.05078m13.65625-1.5625l-6.91406 1.26563m6.91406-1.26563l1.52344 1.92188m-2.53125-1.73829l.76562.96094m13.57031-1.0586l-6.9414 1.09376m6.9414-1.09375l1.47657 1.96094m11.82812-2.03516l-6.91797 1.24219m6.91797-1.24219l1.51563 1.92969m11.46875-2.91016l-6.2539 3.20313m5.34374-2.73829l1.0039.70313m12.125-2.4336l-4.0625 5.73438m3.46876-4.90234l1.21875.15625m13.35547-.375l-5.39454 4.50781m4.60938-3.85156l1.13672.46094m12.41015-1.64844l-4.28515 5.57031m3.66015-4.76172l1.21094.20703m13.76563.27344l-6.35938 2.99219"/><g clip-path="url(#af)"><path fill="none" stroke="#000" stroke-linecap="round" stroke-linejoin="round" stroke-miterlimit="10" stroke-width=".5" d="M466.74219 372.3125l1.96484 1.46875"/></g><g clip-path="url(#ag)"><path fill="none" stroke="#000" stroke-linecap="round" stroke-linejoin="round" stroke-miterlimit="10" stroke-width=".5" d="M147.22266 359.09375l-6.44532 2.79688"/></g><path fill="none" stroke="#000" stroke-linecap="round" stroke-linejoin="round" stroke-miterlimit="10" stroke-width=".5" d="M147.22266 359.09375l1.91797 1.53125m-2.85547-1.125l.96093.76563m13.33203-1.07422l-6.52734 2.60546m6.52734-2.60546l1.875 1.58203m-2.82421-1.20313l.9375.79297m13.21484-1.42187l-6.30469 3.10156m6.30469-3.10156l1.99219 1.4375m-2.90625-.98438l.99219.71875m13.17187-1.29687l-6.17188 3.35546m6.17188-3.35546l2.04688 1.35156m-2.94532-.86328l2.04688 1.35156m12.24219-1.6914l-6.32422 3.05859m6.32422-3.0586l1.98046 1.44922m-2.89843-1.0039l1.98047 1.44921M214 359.71094l-6.85156 1.5625M214 359.71094l1.60547 1.85547m-2.60156-1.62891l.80078.92969m13.48828-1.25781l-6.80469 1.76562m6.80469-1.76563l1.65625 1.8086m-2.64844-1.55078l.83203.90625m13.55469-.75781l-6.96094.95703m6.96094-.95704l1.4336 1.98829m-2.44923-1.85157l.71875.9961M254 360.0039l-6.95703.98046M254 360.00392l1.4414 1.98437m-2.45312-1.84375l.71875.99219m13.61328-1.10156l-6.96875.91406m6.96875-.91406l1.42188 2m11.79297-2.48829l-6.76953 1.89063m6.76953-1.89063l1.6914 1.77735m11.75-.67969l-7.01953-.30469m5.9961.26172l.53125 1.10938m13.80859-1.10938l-7.02344-.21484m7.02344.21484l1.08594 2.19922m12.14453-3.08203l-6.85547 1.55078m6.85547-1.55078l1.60156 1.85547m-2.59766-1.63281l.80079.92968m13.55078-.9453l-6.9336 1.13671m6.9336-1.13672l1.48828 1.94922m-2.4961-1.78516l.7422.97657m13.58593-1.10938l-6.94531 1.07031m6.9453-1.0703l1.46876 1.96483m11.79297-2.23437l-6.83985 1.61328m6.83985-1.61328l1.61719 1.84375m11.76562-1.45703l-6.97656.83984m6.97656-.83984l1.40234 2.01172m-2.41796-1.89063l.70312 1.00781m13.38672-2.05468l-6.49219 2.6875m6.49219-2.6875l1.89453 1.5625m-2.83984-1.17188l.9453.78125m12.82813-2.0039l-5.51953 4.35156m5.51953-4.35156l2.2461.98828m-3.05078-.35547l1.125.4961m12.92968-1.21094l-5.38671 4.51562m5.38671-4.51563l2.27344.92188m11.10547-.83984l-5.51563 4.35546m4.71094-3.72265l1.125.49219m12.04297-1.96094l-3.61328 6.02734m3.08984-5.15234l1.22266.0664m11.44531-1.3828l-1.27344 6.91015m1.08985-5.90625l1.16797-.3711m15.07422 1.8672l-6.76172 1.91015m5.77734-1.63281l.85156.88671"/><g clip-path="url(#ah)"><path fill="none" stroke="#000" stroke-linecap="round" stroke-linejoin="round" stroke-miterlimit="10" stroke-width=".5" d="M146.45313 344.66406l-4.90625 5.02735"/></g><path fill="none" stroke="#000" stroke-linecap="round" stroke-linejoin="round" stroke-miterlimit="10" stroke-width=".5" d="M146.45313 344.66406l2.35546.6875m11.25782-.35547l-5.50391 4.36329m5.5039-4.36329l2.25.98047m11.53126-.21094l-6.4336 2.82422m6.4336-2.82421l1.92578 1.51953m-2.86328-1.10938l.96484.76172m13.10156-1.53906l-6.0625 3.5586m6.0625-3.5586l2.08985 1.28906m-2.97266-.76953l2.08984 1.28515m12.05078-1.89843l-5.9453 3.7461m5.9453-3.7461l2.12891 1.21875m-2.9961-.67578l1.06641.60937m13.1875-1.03125l-6.09375 3.5039m6.09375-3.5039l2.07813 1.30469m-2.96484-.79297l1.03906.65234m13.29297-.91406l-6.35157 3.00781m6.35157-3.0078l1.96875 1.46483m11.53906-.95703l-6.73828 1.98829m6.73828-1.98829l1.71875 1.75m11.58984-1.77734l-6.72265 2.04297m6.72265-2.04297l1.73047 1.73828m11.49219-2.0039l-6.53906 2.57421m6.53906-2.57421l1.86328 1.59375m11.57422-1.21485l-6.78516 1.8164m6.78516-1.8164l1.67578 1.79688m-2.66016-1.53125l.83594.89843m13.51953-.9375l-6.89453 1.3672m6.89453-1.3672l1.55078 1.89844m11.82422-1.38672l-7.01953.33985m6-.28907l.625 1.0547m13.61328-.10157l-6.82422-1.66797m6.82422 1.66797l.60547 2.375m12.8086-3.30469l-7.02344.1914m7.02343-.1914l1.21094 2.13281m-2.23047-2.10546l.60547 1.0664m13.41016-2.46875l-6.38281 2.9414m6.3828-2.9414l1.95313 1.48438m11.29688-1.6172l-6.2539 3.21095m6.2539-3.21094l2.01172 1.39844m11.67968.48828l-7.0039-.5664m7.0039.5664l.97266 2.25m12.34375-2.80078l-7.00781.53515m7.00781-.53515l1.3125 2.07421m-2.33203-1.99609l.65625 1.03516m13.44922-2.11719l-6.55078 2.54297m6.55078-2.54297l1.85937 1.60547m-2.8125-1.23438l.9297.80079m12.64452-2.28125l-5.16406 4.76562m5.16406-4.76563l2.3164.8086m-3.0664-.11719l1.15625.40625m13.19531-.75l-5.73437 4.0664m5.73437-4.0664l2.19141 1.10156m-3.02734-.5078l1.09765.55077m12.63282-1.63281l-4.89454 5.04297m4.89454-5.04297l2.35546.67969m11.6836.33203l-6.34375 3.01953m5.42187-2.58203l.98438.73047m13.39844-.8164l-6.63282 2.3164"/><g clip-path="url(#ai)"><path fill="none" stroke="#000" stroke-linecap="round" stroke-linejoin="round" stroke-miterlimit="10" stroke-width=".5" d="M466.8789 346.01953l1.80079 1.66406"/></g><g clip-path="url(#aj)"><path fill="none" stroke="#000" stroke-linecap="round" stroke-linejoin="round" stroke-miterlimit="10" stroke-width=".5" d="M144.59375 330.39844l-1.1875 6.92578"/></g><path fill="none" stroke="#000" stroke-linecap="round" stroke-linejoin="round" stroke-miterlimit="10" stroke-width=".5" d="M144.59375 330.39844l2.32813-.76953m10.77734.74218l-.76953 6.98438m.76953-6.98438l2.28125-.91015m11.55469 1.00781l-1.8125 6.78906m1.8125-6.78906l2.39062-.55469m13.23438 2.53125l-6.4297 2.83594m6.4297-2.83594l1.92968 1.51563m11.45703-1.33985l-6.57421 2.48047m6.57422-2.48047l1.84375 1.6211m-2.80079-1.25781l.92188.80859m13.53516-.47266l-6.94141 1.08594m6.9414-1.08594l1.47266 1.96485m11.71484-2.4961l-6.6914 2.14844m6.6914-2.14844L228.9961 334.5m11.21875-2.44922l-6.01953 3.625m6.01953-3.625l2.10547 1.26563m11.54688-.51563l-6.69531 2.125m6.6953-2.125l1.75782 1.71485m11.60547-1.5586l-6.78906 1.8125m6.78906-1.8125l1.67187 1.79688m11.35157-2.53516l-6.20704 3.28906m6.20704-3.28906l2.03515 1.375M293.70313 332.5l-6.47657 2.72656m6.47657-2.72656l1.90234 1.55078m10.58203-2.7461l-4.8125 5.1172m4.11328-4.375l1.1836.32421m13.73437.31641l-6.6211 2.34766m5.66016-2.00391l.90235.82813m13.5.73437l-6.875-1.46094m5.875 1.25l.33593 1.17969m13.94141-2.59375l-6.79687 1.78906m6.79687-1.78906l1.66406 1.80469m10.9336-3.17969l-5.36328 4.53906m4.58203-3.8789l1.14062.45312m13.17969-.8164l-5.8125 3.9453m4.96875-3.37109l1.08594.57032m13.67187.55078l-7.00781.55469m7.00781-.5547l1.3164 2.07032m12.00391-1.60156l-7.01953-.38281m7.01953.3828l1.03125 2.22266m12.10157-3.53906l-6.65625 2.25m6.65625-2.25l1.78515 1.6836m10.84766-2.8711l-5.29297 4.6211m5.29297-4.6211l2.29297.875m11.26562-.5586l-5.77734 3.9922m5.77734-3.9922l2.17969 1.125m-3.01953-.54687l1.08984.5664m13.4336-.46874l-6.51172 2.64062m6.51172-2.64062l1.8789 1.57422m11.6289-.91406l-6.90233 1.3203"/><g clip-path="url(#ak)"><path fill="none" stroke="#000" stroke-linecap="round" stroke-linejoin="round" stroke-miterlimit="10" stroke-width=".5" d="M467.01172 333.20313l1.53906 1.91015"/></g><g clip-path="url(#al)"><path fill="none" stroke="#000" stroke-linecap="round" stroke-linejoin="round" stroke-miterlimit="10" stroke-width=".5" d="M141.32813 318.26563l5.34375 4.5625"/></g><path fill="none" stroke="#000" stroke-linecap="round" stroke-linejoin="round" stroke-miterlimit="10" stroke-width=".5" d="M154.59375 318.32422l5.4414 4.44531m-5.4414-4.44531l.47656-2.40625m13.05469 2.16797l5.01172 4.92578m-4.28516-4.21094l.35156-1.17578m14.10157-.53125l1.28125 6.91016m-1.09766-5.90625l.96094-.76172m13.99219-.09766l-2.35938 6.61719m2.01563-5.65235l1.21484-.17968m14.7539 2.1289l-6.98046.79297m6.98047-.79297l1.39062 2.02344m11.91406-2.10156l-6.96093.94531m6.96093-.94531l1.4336 1.99219m11.89844-1.8672l-6.9922.69923m6.9922-.69922l1.35937 2.03906m11.80078-2.77344l-6.6836 2.16797m6.6836-2.16797l1.76172 1.70704m11.64063-1.37891l-6.86329 1.50781m6.86328-1.50781l1.58985 1.8711m11.54297-2.45704l-6.4961 2.6836m6.4961-2.6836l1.89062 1.5625m11.55078-1.19922l-6.75 1.95703m6.75-1.95703l1.71094 1.75781m11.63281-1.65625l-6.80468 1.75391m6.80468-1.7539l1.65625 1.80859m11.6875-1.6836l-6.86328 1.5m6.86328-1.5l1.58985 1.8711m-2.58594-1.65235l.79297.9375m13.46875-1.36328l-6.76172 1.91407m6.76172-1.91407l1.69531 1.77344m-2.67969-1.49219l.84766.88282m13.36328-1.42579l-6.58984 2.4375m6.58984-2.4375l1.83203 1.63282m10.82422-2.73438l-5.26953 4.64453m4.5039-3.96875l1.14844.4297M373 318.23436l-5.28906 4.625m4.51953-3.94921l1.14844.43359m12.68359-1.3711l-4.78125 5.15235m4.78125-5.15234l2.3711.6289m10.49609-.98047l-3.88672 5.85157m3.32031-5l1.22266.12109m8.875-1.03906l3.67968 5.98828m-3.14453-5.11719l.6211-1.0586m10.67187 4.3086l6.65625-2.25781m-5.6875 1.92969l-.89453-.83985m13.58594-1.82031l5.96484 3.71875m-5.09765-3.17578l.08593-1.22656m17.04297-.53125l-3.39844 6.14843m2.90625-5.2539l1.22657.01953m14.07812.70312l-6.39453 2.91407"/><g clip-path="url(#am)"><path fill="none" stroke="#000" stroke-linecap="round" stroke-linejoin="round" stroke-miterlimit="10" stroke-width=".5" d="M466.75781 319.08984l1.94922 1.4961"/></g><path fill="none" stroke="#000" stroke-linecap="round" stroke-linejoin="round" stroke-miterlimit="10" stroke-width=".5" d="M465.82813 319.51563l.97265.74609"/><path fill="#ff3030" fill-rule="evenodd" d="M206.96094 445.45703h7.6914V435.3125h-7.6914v10.14453"/><path fill="azure" fill-rule="evenodd" d="M208.79297 437.14453h.83203v5.73828h3.19531v.74219h-4.02734v-6.48047"/><path fill="#ff3030" fill-rule="evenodd" d="M322.35938 436.57813h7.6914v-10.14454h-7.6914v10.14454"/><path fill="azure" fill-rule="evenodd" d="M324.1914 428.26563h.83204v5.74218h3.19531v.73828h-4.02734v-6.48046"/><path fill="#00f" fill-rule="evenodd" d="M383.80078 436.57813h8.61719v-10.14454h-8.61719v10.14454"/><path fill="azure" fill-rule="evenodd" d="M385.63281 428.26563h.83203v2.82421h3.28907v-2.82421h.83203v6.48046h-.83203v-2.91406h-3.28907v2.91406h-.83203v-6.48046"/><path fill="#00f" fill-rule="evenodd" d="M224.01953 418.82813h8.61719v-10.14844h-8.61719v10.14844"/><path fill="azure" fill-rule="evenodd" d="M225.85156 410.51172h.83594v2.82422h3.28516v-2.82422h.83203v6.48047h-.83203v-2.91406h-3.28516v2.91406h-.83594v-6.48047"/><path fill="#ff3030" fill-rule="evenodd" d="M451.07031 409.94922h7.6914v-10.14453h-7.6914v10.14453"/><path fill="azure" fill-rule="evenodd" d="M452.90234 401.63672h.83204v5.73828h3.1953v.74219h-4.02734v-6.48047"/><path fill="#ff3030" fill-rule="evenodd" d="M344.55078 401.07422h7.6914v-10.14844h-7.6914v10.14844"/><path fill="azure" fill-rule="evenodd" d="M346.38281 392.76172h.83203V398.5h3.19532v.73828h-4.02735v-6.47656"/><path fill="#ff3030" fill-rule="evenodd" d="M291.28906 396.63281h7.6914v-10.14453h-7.6914v10.14453"/><path fill="azure" fill-rule="evenodd" d="M293.1211 388.32031h.83593v5.74219h3.1914v.73828h-4.02734v-6.48047"/><path fill="#ff3030" fill-rule="evenodd" d="M198.08203 365.5664h7.69531v-10.14452h-7.6953v10.14453"/><path fill="azure" fill-rule="evenodd" d="M199.91797 357.2539h.83203v5.73829h3.19531v.74219h-4.02734v-6.48047"/><path fill="#ffffe0" fill-rule="evenodd" d="M328.42969 359.14063h22.17969v-10.19141h-22.1797v10.1914"/><path fill-rule="evenodd" d="M331.92969 350.78125h.50781v6.29688h-.78516v-4.48829h-1.39062v-.55859l.5586-.0625.2539-.05469.23047-.08984.20312-.14063.17188-.21093.14453-.29297.10547-.39844m4.8125 0l.23047.01953.21875.0586.20703.08593.19531.1211.1836.15234.17187.17578.30469.41797.24218.49219.1797.54687.10937.58203.03906.58985-.03906.59375-.10938.58203-.17969.55469-.24218.5039-.3047.42578-.17187.1797-.18359.15233-.19531.125-.20703.09375-.21875.0547-.23047.01952-.23047-.01953-.21875-.05469-.20703-.09375-.19531-.125-.1836-.15234-.17187-.17969-.3047-.42578-.24218-.5039-.17969-.5547-.10937-.58202-.03906-.59375h.83203l.02734.5625.08203.50781.1289.4414.16017.375.1914.30079.21094.21875.22265.13672.22657.04687.22656-.04687.22266-.13672.21093-.21875.19141-.30078.16016-.375.1289-.44141.07813-.50781.03125-.5625-.03125-.5625-.07813-.5-.1289-.4336-.16016-.36718-.1914-.29297-.21094-.21485-.22266-.1289-.22656-.04688-.22656.04688-.22266.1289-.21094.21485-.1914.29297-.16016.36718-.1289.4336-.08204.5-.02734.5625h-.83203l.03906-.58985.10937-.58203.1797-.54687.24218-.49219.30469-.41797.17187-.17578.1836-.15234.1953-.1211.20704-.08594.21875-.05859.23047-.01953m5.08984 0h.51172v6.29688h-.78906v-4.48829h-1.38672v-.55859l.5586-.0625.2539-.05469.22656-.08984.20313-.14063.17578-.21093.14062-.29297.10547-.39844m2.82422 2.17578h.78906l.01953-.3164.0586-.28516.09765-.2539.14063-.21485.17969-.17188.22656-.1289.26172-.08203.3086-.02735.23827.02344.22266.0625.20703.10156.17969.13672.14844.17188.11328.20703.0703.23828.02345.26172-.01954.26953-.0664.22656-.10938.1914-.15625.17188-.19921.16016-.25.16797-.63282.38672-.53515.3125-.4375.3164-.34766.32422-.26563.33594-.1875.35156-.125.3711-.0703.39453-.01954.41796h4.21094v-.74218h-3.33203l.08203-.28125.11328-.23828.14844-.20313.1875-.17969.23047-.17187.27734-.17578.71875-.41406.41406-.20704.34766-.23046.28125-.25.21875-.26954.16406-.27734.10938-.28125.0664-.28516.01953-.28125-.04296-.38671-.1211-.34766-.1875-.30469-.25-.26562-.30469-.21094-.34375-.16016-.3828-.09765-.40626-.03516-.4336.03516-.39843.09765-.35547.16797-.30469.23438-.24609.30468-.1875.3711-.11719.44922-.03906.51562"/><path fill="#ffffe0" fill-rule="evenodd" d="M204.15625 338.61328h22.17969v-10.1914h-22.17969v10.1914"/><path fill-rule="evenodd" d="M207.65234 330.2539h.51172v6.29688h-.78906v-4.49219h-1.38672v-.55468l.5586-.06641.2539-.05078.23047-.08985.20313-.14453.17187-.20703.14063-.29687.10546-.39453m4.81641 0l.23047.01953.21875.05469.20703.08984.19531.1211.1836.14843.17187.17578.30078.42188.2461.49218.17968.54688.10938.57812.03906.59375-.03906.58985-.10938.58594-.17968.55468-.2461.5-.30078.42969-.17187.17969-.1836.15234-.19531.125-.20703.08985-.21875.05859-.23047.01953-.23047-.01953-.21875-.0586-.20703-.08984-.19531-.125-.1875-.15234-.16797-.17969-.30469-.42969-.24219-.5-.17968-.55469-.11328-.58593-.03516-.58985h.83203l.02734.5625.08203.50391.125.4414.16407.375.1914.30079.21094.22265.22266.13672.22656.04688.22656-.04688.22266-.13672.21094-.22265.1914-.30078.16016-.375.125-.44141.08203-.5039.03125-.5625-.03125-.5625-.08203-.5-.125-.4375-.16016-.36329-.1914-.29297-.21094-.21484-.22266-.13281-.22656-.04297-.22656.04297-.22266.13281-.21094.21484-.1914.29297-.16406.36328-.125.4375-.08204.5-.02734.5625h-.83203l.03516-.59375.11328-.57812.17968-.54688.2422-.49218.30468-.42188.16797-.17578.1875-.14844.19531-.1211.20703-.08983.21875-.0547.23047-.01952m5.08984 0h.51172v6.29687h-.78906v-4.49219h-1.38672v-.55468l.5586-.06641.2539-.05078.22656-.08985.20313-.14453.17578-.20703.14063-.29687.10546-.39453m2.82422 2.17578h.78516l.01953-.3164.0625-.28517.09766-.2539.14062-.21485.17969-.17578.22266-.1289.26562-.07813.3086-.02734.23827.01953.22266.0625.20703.10156.17578.14063.15235.17187.10937.20703.07422.23438.02344.26562-.01953.26954-.0664.22265-.10938.1914-.15625.17188-.19922.16406-.25.16407-.63281.39062-.53907.3125-.4375.3164-.34375.32423-.26562.33594-.1914.35156-.125.3711-.06642.39062-.02343.42187h4.21484v-.74219H221.125l.08203-.28515.11328-.23438.14844-.20312.1875-.17969.23047-.17188.27734-.17578.71875-.41796.41406-.20313.34766-.23047.27734-.2539.22266-.26563.16406-.27734.10938-.28516.0625-.28516.02344-.28125-.04297-.3828-.1211-.34767-.1875-.30859-.25-.26172-.30468-.21484-.34375-.15625-.38282-.09766-.40625-.03515-.43359.03125-.39844.10156-.35547.16406-.30468.23438-.25.30468-.1836.375-.11719.44532-.03906.51953"/></g></defs><use xlink:href="#an"/></svg>