<svg xmlns="http://www.w3.org/2000/svg" role="img" xmlns:xlink="http://www.w3.org/1999/xlink" viewBox="142.45 309.95 326.84 171.84"><defs><clipPath id="a"><path d="M144 311.67188h1v168.65625h-1zm0 0"/></clipPath><clipPath id="b"><path d="M144 311.67188h324v168.65625H144zm0 0"/></clipPath><clipPath id="c"><path d="M389 477h7v3.32813h-7zm0 0"/></clipPath><clipPath id="d"><path d="M391 479h3v1.32813h-3zm0 0"/></clipPath><clipPath id="e"><path d="M467 311.67188h1V473h-1zm0 0"/></clipPath><clipPath id="f"><path d="M144 479h4v1.32813h-4zm0 0"/></clipPath><clipPath id="g"><path d="M147 479h3v1.32813h-3zm0 0"/></clipPath><clipPath id="h"><path d="M153 480h9v.32813h-9zm0 0"/></clipPath><clipPath id="i"><path d="M160 480h3v.32813h-3zm0 0"/></clipPath><clipPath id="j"><path d="M159 480h2v.32813h-2zm0 0"/></clipPath><clipPath id="k"><path d="M166 479h9v1.32813h-9zm0 0"/></clipPath><clipPath id="l"><path d="M173 479h3v1.32813h-3zm0 0"/></clipPath><clipPath id="m"><path d="M172 479h3v1.32813h-3zm0 0"/></clipPath><clipPath id="n"><path d="M180 479h8v1.32813h-8zm0 0"/></clipPath><clipPath id="o"><path d="M187 479h3v1.32813h-3zm0 0"/></clipPath><clipPath id="p"><path d="M186 479h2v1.32813h-2zm0 0"/></clipPath><clipPath id="q"><path d="M193 479h8v1.32813h-8zm0 0"/></clipPath><clipPath id="r"><path d="M200 479h3v1.32813h-3zm0 0"/></clipPath><clipPath id="s"><path d="M199 479h2v1.32813h-2zm0 0"/></clipPath><clipPath id="t"><path d="M206 479h9v1.32813h-9zm0 0"/></clipPath><clipPath id="u"><path d="M213 479h3v1.32813h-3zm0 0"/></clipPath><clipPath id="v"><path d="M212 479h3v1.32813h-3zm0 0"/></clipPath><clipPath id="w"><path d="M220 479h8v1.32813h-8zm0 0"/></clipPath><clipPath id="x"><path d="M227 479h3v1.32813h-3zm0 0"/></clipPath><clipPath id="y"><path d="M226 479h2v1.32813h-2zm0 0"/></clipPath><clipPath id="z"><path d="M233 479h8v1.32813h-8zm0 0"/></clipPath><clipPath id="A"><path d="M240 479h3v1.32813h-3zm0 0"/></clipPath><clipPath id="B"><path d="M239 479h2v1.32813h-2zm0 0"/></clipPath><clipPath id="C"><path d="M246 479h9v1.32813h-9zm0 0"/></clipPath><clipPath id="D"><path d="M253 479h3v1.32813h-3zm0 0"/></clipPath><clipPath id="E"><path d="M260 479h8v1.32813h-8zm0 0"/></clipPath><clipPath id="F"><path d="M266 479h4v1.32813h-4zm0 0"/></clipPath><clipPath id="G"><path d="M273 479h8v1.32813h-8zm0 0"/></clipPath><clipPath id="H"><path d="M279 479h2v1.32813h-2zm0 0"/></clipPath><clipPath id="I"><path d="M286 479h9v1.32813h-9zm0 0"/></clipPath><clipPath id="J"><path d="M292 479h2v1.32813h-2zm0 0"/></clipPath><clipPath id="K"><path d="M300 478h8v2.32813h-8zm0 0"/></clipPath><clipPath id="L"><path d="M305 479h3v1.32813h-3zm0 0"/></clipPath><clipPath id="M"><path d="M314 477h6v3.32813h-6zm0 0"/></clipPath><clipPath id="N"><path d="M326 479h9v1.32813h-9zm0 0"/></clipPath><clipPath id="O"><path d="M340 477h7v3.32813h-7zm0 0"/></clipPath><clipPath id="P"><path d="M355 476h4v4.32813h-4zm0 0"/></clipPath><clipPath id="Q"><path d="M368 476h5v4.32813h-5zm0 0"/></clipPath><clipPath id="R"><path d="M382 476h4v4.32813h-4zm0 0"/></clipPath><clipPath id="S"><path d="M394 477h6v3.32813h-6zm0 0"/></clipPath><clipPath id="T"><path d="M407 477h6v3.32813h-6zm0 0"/></clipPath><clipPath id="U"><path d="M422 476h4v4.32813h-4zm0 0"/></clipPath><clipPath id="V"><path d="M433 478h8v2.32813h-8zm0 0"/></clipPath><clipPath id="W"><path d="M447 477h7v3.32813h-7zm0 0"/></clipPath><clipPath id="X"><path d="M460 478h7v2.32813h-7zm0 0"/></clipPath><clipPath id="Y"><path d="M144 466h4v2h-4zm0 0"/></clipPath><clipPath id="Z"><path d="M144 452h4v3h-4zm0 0"/></clipPath><clipPath id="aa"><path d="M144 440h4v1h-4zm0 0"/></clipPath><clipPath id="ab"><path d="M144 426h4v2h-4zm0 0"/></clipPath><clipPath id="ac"><path d="M144 412h4v4h-4zm0 0"/></clipPath><clipPath id="ad"><path d="M144 397h3v7h-3zm0 0"/></clipPath><clipPath id="ae"><path d="M465 397h3v2h-3zm0 0"/></clipPath><clipPath id="af"><path d="M144 384h3v6h-3zm0 0"/></clipPath><clipPath id="ag"><path d="M466 385h2v4h-2zm0 0"/></clipPath><clipPath id="ah"><path d="M144 372h4v3h-4zm0 0"/></clipPath><clipPath id="ai"><path d="M144 359h4v3h-4zm0 0"/></clipPath><clipPath id="aj"><path d="M466 358h2v2h-2zm0 0"/></clipPath><clipPath id="ak"><path d="M144 345h4v4h-4zm0 0"/></clipPath><clipPath id="al"><path d="M466 346h2v3h-2zm0 0"/></clipPath><clipPath id="am"><path d="M144 330h3v8h-3zm0 0"/></clipPath><clipPath id="an"><path d="M466 332h2v4h-2zm0 0"/></clipPath><clipPath id="ao"><path d="M144 317h3v7h-3zm0 0"/></clipPath><clipPath id="ap"><path d="M466 318h2v3h-2zm0 0"/></clipPath><g id="aq" clip-path="url(#clip1)"><path fill="#fff" fill-opacity="0" fill-rule="evenodd" d="M0 0h1000v1000H0zm0 0"/><path fill="#d3d3d3" fill-opacity="0" fill-rule="evenodd" d="M162.15234 355.86719l-.23437.29297.0586.23437.11718.17188.17578.23437.29297.34766.11328.0586.11719-.17188.0586-.23438.17577-.17578.46485-.17578h.69922l.23437.29297.28906.8164.0586.17579.17578.23046.35156.23438.69922.69922.17188.17578.23437.34765.23438.41016.28906.58203.41015.46485.23047.23437.23438.17578.11719.23047.17578.29297.17187 1.16406v.23438l.0586.28906.05859.11719.11719.11719.34765.41015.11719.17188.17578.17578.17578.23437.11719.17188.17188.35156.05859.23438.23437.40625.23438-.0586-.17578.17578-.0586.92969h-.58203l-.23437-.11328-.34766.11328-.11719.11719-.05859.29297-.0586.17578-.11718.17187-.46484.29297-.0586.23438-.0586.11328v.64453l.0586.17187v.41016l.0586.0586v.40624l.05859.40625.11719.17579.05859.05859.23047.64062-.0586.29297v.69922l-.05859.58203v.23438l-.0586.23047-.05468.35156v1.92187l.05469.1172h.42578l-.36719.11718-.02344.35156.89063 1.16797 1.74219.53906 1.33984.35938v.53906l.08984.8086.53516.71484 1.51953.26953.89063-.08594.08984 1.16406.53516.1797 1.16015-.1797 2.05469-.98437 1.16016-.36328 1.8789-.17578 1.69531-.1797-.17968.71876-1.51563.08594-1.25.08984-.80469.26953-1.07421.8086.26953.71875.53515.89843-.17968.625-.26563.8086.26563 1.07812.625.89844.80468.17969 1.25-.1797-.26562.72267.09766.5039.05468.29297v.17188l.0586.29296v.40625l.17578.1172.35156.11718h.40625l.29297-.17578.11328-.11719.0586-.11719.11718-.23047.0586-.17578.35156-.46484.23047-.17578.17578-.0586.17578.0586.0586.17578.11718.98828.05469.46875.0586.17188.11718.23437.17578.0586.8164.05859h.28907l.11719.23437.05859.40625.0586.35156v1.10547l.11718.29297.11719.34766.28906.69922.17578.35156.58203.7539.35157.17579.17187.0586.46875.23437.64063.46484.34765.23438.29297.17578.29297.05468.23047.0625.8164.34766.29297.17578.11328.17188.35157.35156.11719.17578.52343.64063v.28906l.0586.35156v.34766l.05859.35156.0586.28906.11718.0586.17188.05859h.17578l.58203.23437.17578.1172.17578.28905.17578.23438.11328.23437.29297.23047.11719.11719v.41016l.0586.05468.28906.23438.23437.11719.0586.11718.11718.17188.0586.11719.23047.23437.05859.17578.23437.0586.1172.05859-.1172.11328-.05859.11719v.11719l-.11719.29296-.11719.28907v.58203l.17579.11719.11718.05859.0586.11719.11719.11719.11328.05859.17578.34765.0586.35157.05858.40625v.17578l-.05859.17578-.11719.69922v.17187l.1172.17579.29296.29296h.40625l.17578.1172.11719.17187.11719.29296v.23438h-.52735l-.23047-.23438h-.23437l-.17578.0586-.0586.69922.0586.34765.11719.17579.17578.41015.11718.23047.28907.46875.17578.05469h.52344l.23437.0586.75781.64062.0586.29296v.23438l.05859.0586.23047.34765v.35156l-.11719.17188v.29297l.29297.28906.29297.17578.17187.0586.29297.17577.29297.1172.58203.40624.28906.23438.29297.17578.21875.16015.01563.01172.23047.17579.64062.52343.17578.23438.1172.17578.17577.17578.11328.17188v.64062l.1172.17578.46874.11719.58203.11719.23438.05859.23047.11328.29297.11719.11328.0586.58593.35156.28907.17187.17578.0625.17578.05469.17578.0586.69922.35155.28906.17579.23438.05468.28906.17578.23437.1172.64063.40624.29297.11719.17187.0586.23438.05859.41015.05859.23047.0586.23438.11718.0586.17188-.41017.17578.46875.0586.0586.29296.11328.23438.17578.05468.23438.0586.17578.05859.40625.11719.64062.23437.11719.17188.0586.23437v.17578l-.0586.1172-.0586.40624.23438.23438.11719.05859.34766.11719.64062.23047.17578.11718.28906.1172.17578.17577.23438.46485.58203 1.10546.17578.17579.34766.17578.17578.11719.35156.11718 1.04688.52344.23437.0586.46485.11327.29297.0586.46484.17578.75781.58203.23438.23438.34765.46484.17578.17578.28907.23438.8164.69921.29297.17579.28906.28906.29297.17578.29297.28906.69531.64063.17578.17578.29297.23437.28907.23438.46875.28906.64062.58203.34766.23438.23437.29297.34766.34765.35156.46485.9336.99218.34765.40625.11719.17579.23437.05859.11328.11719.64454.17578.23047.11328.23437.0586.29297.17577.23047.1172.9336.69921.40624.40625.23438.17578.40625.17578.23437.11719.8164.34766.34766.23437.23438.11719.29297.28906.23047.11719.7578.35156.35157.17188.23047.05859.29297.11719.23437.0586.8711.17577h.8164l.46875.23047.17188.0586.875.69921.46484.1172.29297.05858.17578.0586.23047.0586.46875.05859.34766.05859.35156.0586.40625.05859h.29297l.17187.0586v.23046l.17578.17578h.29297l.34766.0586.35156.05859.69922.11719h.64063l.46484-.23438.29297-.17578.17187-.11719.41016-.17187.28906-.17578.9336-.46485.46875-.29297.52343-.29296.46485-.17188.46484-.17578 1.05078-.46485.28906-.11718.41016-.11719.28906-.11719.52735-.17578 1.51562-.69922.58203-.34765.28907-.0586.29297-.0586.34765-.11718.875-.23047.35156-.11719h.11329l.23437-.05859.875-.23437.23438-.0586h.8125l.35156-.0586.8164-.11718.17188-.0586.35156-.05468.29297-.0586.23047-.05859.8164-.17578.17579-.0586h.34765l.23438-.05859.46484-.11718.75781-.17188.23438-.0586h.34765l.41016-.11718.28906-.0586 1.28516-.05859h.28906l.41016-.0586.23047-.05858h.17578l.875-.1172h.40625l.41015-.11718h.34766l.35156-.11328.8711-.0586h1.75l1.04687.28907.41016.11719.28906.11718.35156.11719.28907.11719 1.05078.17187.28906.0586h.29297l.29297.05859.17187.0586.41016.05859.17187.0586.1172.05858h.11718l.11719.0586.35156.0586h.11328l.41016.0664 1.92187.39453 1.92578.39453 1.51953.44922 1.69532.71875 2.14453.80469 1.60547-.71875 1.42968-.80469 1.16016-1.07813 1.25-.44921 3.03516-.71875 1.875-.35938 2.14453-1.34765 2.23437-1.25391 2.5-1.25781 1.69531-.44922 1.78516-.17969 1.16016-.26953.625.53906 1.33984-.26953.71485-.98828.98437-1.34375.44531-.17969.80469-.35937 1.875-.53907 1.78516-.44921 1.25-.26954 1.16015-.08984 1.69922-.08984 1.96094-.26954 1.25-.08984h.53906l.625-.08984h.89063l2.14453-.17969 2.41015-.17969 2.58985-.08984 1.69531.17969 1.60938.08984 1.42968.35938 1.16016.71875 1.875.98828 1.16015 1.52734.26563.71484.6289.08985.35548.89844.53515.53906.53516 1.52734 1.07422.35938h.53515l-.80469.53515.08985 1.70703.71484 2.69532.89063.80468.89453.98829.71484 1.2578 1.78516.53907 1.51953-.17969.35547 1.34375 1.60937-.80469.98047-.53906.26953.26953.31641-.21484.21875-.14453.80078.44922.44922-.35938h.35547l.53515-.26953.53907-.71875.53515-.26953.625-.98828 1.16016.44922.83984.3711 1.39454.61718 1.6953-.17969h1.60548l1.78515.08985.17969-1.70704.53516-1.34375.80468.26954.4922.84765.40233.40625-.08984.53906v.35938l.71485.44922.71093-.26953h1.42969l.35938.98828.4453 1.25781.71485 1.34375 1.25.6289 1.69531.62891.71485-.17969.17969-.53906.98046-.08984.44922.35937.08594 1.25782-.26563.6289-.53515.17969v.53906l.71484.98438.26563.53906.98437.98828.80078 1.07813-.26562.35937-.08985.89844-.625 2.33203-.35546 2.0664-.08985 1.79298-.17969.71875-.08984.53906v1.4375l-.98047 1.88281-.35937 1.70703-.53516.89844-.80469 1.16797-.26562.53906 2.05469 1.2539.08593.35938-.35546.53906-.08985-.17968v.80859l.08985 1.4375-.44532.71484-1.07422.09375-.26562.71485.53515.89844.8047.71875 1.16015.80859 1.33984.26953.44531.35938-.35546.44921-1.78907-.08984-1.25-.44922-.71484-.71875-.625-.08984-.17578 3.58984-.1875 1.3086h89.35937V311.70313h-55.26953v49.08203l.76172.125 3.28906.54296 2.02344 2.83594v2.7539l2.35156.33204 2.34766.33203h4.05078l-1.3789 4.16016-2.02344.70703-2.02344.70312-.54297.34375-2.59375 1.6172-.1875.11718-2.02344-2.07813-.73046-2.74218-2.67188-2.07813-1.375-3.5-.0664-.08203-1.95704-2.67188 2.75-1.41796v-49.08204H294.42187v91.41407l.1172.03125.1328.01172.07422.07421.10547.04688.08985.0586.08593.05859.08985.0586.29687.29687.0586.08984.03125.11719.02734.11719.01563.13671-.03125.1172-.0586.08983-.0586.08594-.04296.10547-.04688.10156-.02734.1211v.14453l.17578.26953.14844.14844.07422.08594.07422.07421.04296.10547.0625.08985.0586.08593.04297.10547.0586.08985.04687.10156.04296.10547.0586.08594.11719.17968.07421.07422.0625.08594.0586.08984.04297.10547.0586.08985.05858.08593.0625.08985.0586.08984.04297.10156.11719.17969.07421.07422.0586.08594.07422.07421.08984.0586.10547.04687h.14844l.1328-.01562.13282.01562.10156-.04687.07422-.07422.04688-.10156-.01563-.13281v-.14844l-.04687-.10547-.02735-.11719-.04687-.10156-.02735-.1211-.04296-.10156-.0625-.08984-.04297-.10156-.04297-.10547-.03125-.11719-.01563-.13281-.01171-.13672.08593-.0586.0586-.08593.12109-.03125.04297.10547.01562.1328v.1172l.0586.10156.0586.08984.08983.0586.14844.14843.0586.08985.04296.10547-.01171.10156.08593.0586.10547.04687.08594.0586.08984.05858.07422.07422-.11719.02735-.10546.04687-.08594.0586-.07422.07421-.0586.08985-.0625.08594-.02734.12109-.04687.10156-.04297.10547-.03125.11719-.01172.13281-.01563.13281v.14844l.02735.11719.04687.10547.04297.10156.0586.08984.07421.07422.08985.0586.07422.07421.08984.0586.0586.08984.04296.10547.04688.10156.11719.03125.1328.01563h.14845l.11718-.03125.10547.04297.04297.10547.04688.10156.02734.1211L299.5 410l.02734.11719.03125.1211.02735.11718.10547.04297.10156.04687.13281-.01562.14844.14844.0625.08593.07422.07422.07031.07422.08984.0625.10547.04297.10156.04297.1172.03125.13671.01562.11719-.03125.07422-.07422.02734-.11718-.01172-.13282-.03125-.12109-.02734-.11719.04297-.10547h.11719l.08984.0625.11719.02735h.14843l.13282.01562h.14843l.13282.01563.1328-.01563h.14845l.1328-.01562.13282-.01172.13672.01172.11719-.02735.13281-.01562.1914-.0586-.05859.17579-.01562.1328-.02735.1211-.01562.13281-.0586.08594-.1328.01563-.10548.04687-.10546.04297-.1172.03125-.11718.02735-.26563.03125h-.14843l-.13281.01562-.07422.07422.05859.08594.14844.14843.11719.1797.07421.0703.08985.0625.08984.0586.08594.0586.08984.05858.10156.04297.10547.0625.10547.04297.08594.0586.10547.04687.10156.04297.17969.11719.0586.08984-.04298.10156-.04687.10547.01562.13281.22266.22266.0586.08985.04296.10156.03125.1211.04297.10155.01563.13282.03125.11718.01171.13672.03125.11719.14844.14844.10156.04297.10547.04296.1172.03125.1328.01563.13672.01563h.11719l.11719-.03125.08984-.0586.04297-.10547.04688-.10156.04296-.10547.03125-.11719.01172-.1328v-.14845l-.01172-.1328-.01562-.13282-.03125-.11719-.04297-.10547-.04688-.10547-.04296-.10156-.04297-.10547-.01563-.13281.01563-.13281.02734-.11719.03125-.11719.02735-.1211.04687-.10155.08984-.0586.08594-.0625.07422-.07422.08984-.05859.22266-.22266.0586-.08593.07421-.07422.11719-.17969.0586-.08594v-.14844l-.07423-.07421-.10156-.04688-.10547-.04297-.10156-.04297-.0586-.08984-.04687-.10547-.02734-.11719.08984-.05859.11719-.03125.10156-.04297.17969-.11719.14844-.14843.01172-.13282-.01172-.10546-.08985-.0586-.1328.01563h-.14845l-.1328.01562-.13282-.01562-.1211-.03125-.08593-.0586-.07422-.07422-.0586-.08984-.0625-.08594-.11718-.17969-.0586-.08593.03125-.1211.08594-.05859.1211-.03125.05859-.08594v-.1211l-.03125-.11718-.0586-.08984-.05859-.08594-.04687-.10547-.02735-.11719-.01562-.1328.0586-.08985.07421-.07422.08984-.0586.1172-.17968.07421-.07422.0586-.08594.14843-.14844.1211-.03125.1328-.01562.13282.01562.07422.07422.04297.10547.01562.13281-.03125.1172-.11719.03124-.1328.01172-.14844.14844-.04297.10547-.04688.10156-.02734.1211-.03125.11718v.14844l.03125.11719.04297.10546.05859.08985.07422.07031.07422.07422.11719.03125.12109.02734.11719-.02734.1328-.01563h.1172l.08984.0586.07422.07422.04687.10546.0586.08594.10156.04688.13281.01562.10547.04297.08594.0586-.01172.10546-.07422.07422-.17969.11719-.05859.08984-.08984.0586-.07032.07422-.07421.07421-.0625.08985-.02735.11719-.01562.1328.01562.13282-.01562.13281v.14844l.01562.13281.02735.1172.03125.12108.07421.07422.08985.0586.08594.0586.08984.05858.11719.03125v.08594l-.10157.04688-.08984.0586-.26563.03124-.11718.02735h-.14844l-.10547.04296-.10156.04688-.0586.08984-.0625.23438-.01171.13281-.03125.1211-.01563.1328v.29298l-.01172.1328.01172.13673.01563.1328.1328.01563.13282.01172.1211.03125.08593.0586.07422.07421.04688.10547.04296.10157.01563.1328v.44532l-.01563.13281v.44532l.03125.26562.02735.11719.01562.13281.03125.11719.08594.21094.03125.26562v.14844l-.03125.11719-.02734.11718-.03125.1211-.02735.11719-.03125.11718-.03125.1211-.01171.1328-.01563.13282.08984.0586.1172-.03125.10155.01562.04688.10547-.03125.26562v.44141l-.04297.10547-.04688.10547-.04296.10156-.04297.10547-.0586.08594-.03125.12109-.04296.11719-.03125.11719-.01563.1328.01563.13282.05859.08984.10547.04688.08594.0586.05859.08593-.01172.13672-.03125.11719-.04297.10156v.44531l-.01562.13281v.14844l-.03125.11719-.04297.10547-.02735.11719-.04687.10546-.04297.10157-.03125.12109-.02734.11719-.03125.13281-.03125.11719-.02735.11719-.04297.10546-.03125.1172-.03125.12108-.01171.13282-.01563.13281v.29688l.02734.11718v.14844l.04688.39844.02734.11719.0586.08984.12109.03125h.14844l.13281-.01563.0586.08985v.11719l-.0586.08984-.08984.0586-.10157.04296-.10546.04688-.08985.05859-.08594.0586-.13671.01562-.1172-.03125-.1328-.01563-.10157.04688-.0625.08594-.01172.13671-.01562.13282-.03125.11719-.02735.11718-.01562.13281-.03125.1211v.29687l.01563.13282.03125.11718v.14844l.01171.13281v.14844l-.02734.11719-.04688.10156-.02734.1211-.03125.11718-.0586.08985-.07421.07421-.10156.04297-.10547.04688-.11719.02734-.1211.03125-.10156-.04687.0586-.08594.10547-.04688.02734-.11718.03125-.11719.02734-.1211.03125-.11718v-.14844l.01563-.13281-.03125-.11719-.04297-.10547-.10547.01563-.07422.07422-.10156.04296-.08984.0625-.07422.07422-.04297.10157-.01563.1328-.03125.1172L304.25 426l-.03125.11719-.02734.11719-.03125.12109-.02735.11719-.03125.11718-.04297.10547-.08984.0586h-.08984l-.1172-.03125-.03124-.08594.01562-.13672-.03125-.11719v-.14844l-.01171-.1328v-.14844l-.0625-.23438-.02735-.1211-.04297-.10156-.04687-.10546-.0586-.08594-.05859-.08985-.04297-.10546-.0625-.08594-.14844-.14844-.0703-.07422-.10548-.04687-.10547-.04297-.10156-.04297-.29687-.29688-.08985-.07421-.08594-.0586-.10546-.04297-.08985-.0625-.08594-.0586-.10546-.04296-.08985-.0586-.08594-.0625-.07421-.0703-.10547-.04688-.08594-.0586-.10547-.04296-.08984-.0625-.10156-.04297-.10547-.04297-.08594-.0586-.10547-.04687-.10547-.04297-.10156-.04687-.08985-.0586-.10156-.04297-.10547-.04296-.08984-.0625-.11719-.02735-.13281-.01562-.13281.01562H299.75l-.13281.01563-.11719-.03125-.08984-.0586-.07422-.07422-.08985-.05859-.10156-.04688h-.14844l-.12109-.02734-.10156-.04297-.07422-.07422-.11719-.17968-.08984-.0586-.10156-.04297-.08985-.0625-.10547-.04296-.08984-.0586-.08594-.0586-.10547-.04687-.0586-.08594-.05858-.08984-.04297-.10547-.04688-.10156-.07422-.07422-.08594-.0586-.07421-.07421-.08985-.0586-.22265-.22265-.04297-.10547-.03125-.26563.10547-.04296h.14453l.10547.04296.07421.07422.08985.0586.08594.0586.10546.04687.08985.05859.14844.14844.0703.07422.14845.14843.0625.08594.07421.07422.08594.0586.07422.07421.08985.0625.08984.0586.08594.05859.26953.17578.10156.04688.10547.04296.10156.04297.04688-.07421.05859-.08594.07422-.07422.07031-.07422.10547.04297.07422.07422.0586.08984.04296.10156.04688.10547.04296.10547.1211.02735.11719-.02735.07421-.08984.04297-.10547.0586-.08985.07422-.07421.10546-.04297.1172-.02735.1328.01172.08985.0586.14844.14843.05859.08985.04297.10547.04687.10156.04297.10547.04297.10156.10547.04688.10547.04296.13281.01563.08594-.0586.0586-.08984.07421-.07422.10547-.04297.11719.02735.10547.04687.10156.04297.10547.04297.10156.04688.17969.11718v.11719l-.01563.13281.01563.13281.01562.13672.0586.08594.10156.04688.1211.02734.11718.03125h.14844l.11719-.03125.05859-.08984.17969-.1172.05859-.08983.07422-.07422.0586-.08594.11718-.17969.17969-.11719.11719.03125.08984.0586.04297.07422-.01563.1328v.1172l.08985.05859h.14843l.13282-.01563.1328-.01171.26563-.03125.10547-.04297.11719-.03125.1211-.02735.07421-.07421.07031-.07422.0625-.08985-.01562-.10547-.04688-.10156-.10156-.04297-.10547-.01562-.11718.02734-.26563.03125h-.14844l-.07421-.07422-.08985-.0586-.11719-.03124-.11718-.02735-.13282-.01562h-.14843l-.13282.01563h-.29687l-.10547-.04688-.14844-.14844-.04297-.10156-.05859-.08984.22266-.22266.08593-.0586.10547-.04296.11719-.03125.13281-.01563.13281.01563.13672.01562.10157.04297.1328-.01172.08985-.0625.10156-.04297.0625-.08984-.04687-.10156-.08984-.0586-.1172-.03125-.10155-.04296-.0586-.08985-.0625-.08984v-.11719l.01563-.13281.10547-.04688.07421-.07031v-.1211l-.08984-.05859-.03125-.11719.08985-.05859.07421-.07422.04297-.10547.0586-.08984.04687-.10156.01563-.13281v-.14844l-.04688-.10547-.04297-.10156-.08984-.0586-.13281-.01562-.10157-.04297-.13671-.01563-.1172-.03125h-.4453l-.13282-.01562-.13281-.01172-.13281-.01563-.11719-.03125h-.14844l-.13281-.01562-.13281-.01172-.26563-.03125-.1211-.04297-.08593-.0586-.07422-.07421v-.14844l.01172-.13281.10547-.04688.10156-.04296.13281-.01563h.15235l.13281-.01562h.29297l.1211.03125.10156.04296.08984.0586.23438.0625.12109-.04688.08984-.05859.10156-.04297.13282-.01562.10547.04296.10156.04688.13281.01172.1211-.02735h.14453l.12109-.03125.11719-.02734.10547-.04687.07421-.07422.08594-.0586.14844-.14843.0586-.08594.04687-.10547.02734-.11719.01563-.10547-.10156-.04296-.08985-.0586-.11719-.03125-.10546-.04297-.08985-.0625-.07422-.08594-.07422-.07421-.10156-.04297-.10547-.04688-.10156-.04297-.0586-.08984-.04687-.10156-.08594-.21094-.0625-.08594-.05859-.08984-.07422-.07422-.08594-.0586h-.26953l-.11719.03126-.08984.05859-.10156.04297-.13281.01562-.10547-.01562-.02735-.11719-.0625-.08984-.11718-.03125-.10157-.04297-.14843-.14844-.03125-.11719-.01563-.10546.07422-.07422.17969-.1172.11719-.02733.11718-.03125.13672.01562.10156.04297.10547.04297.10156.04687.10547.04297.1172.03125.1328.01563.1172.02734.1328.01563.10547-.01563.08985-.0586-.07422-.07421-.10547-.04297-.07422-.07422-.07422-.08984-.14844-.14844-.08593-.0586-.08985-.05859-.07422-.07422-.08984-.0586-.10156-.04687-.1211-.02734-.10156-.04688-.10547-.04296-.11719-.03125-.10156-.04297-.1211-.03125h-.14843l-.11719.03125-.10546.04297-.08594.0625-.17969.11718-.08594.0586-.08984.0586-.10547.04687-.08594.05859-.10547.04297-.10156.04297-.10547.04687-.07422.07422-.05859.08985-.0586.08593-.04687.10547-.0586.08594-.07421.07422-.13281-.01172-.1172-.03125h-.11718l-.07422.07422-.08984.0586-.07422.07421-.08984.0586-.08594.05859-.10547.04687-.10156.04297-.13672.01563-.10156-.04297-.14844-.14844-.10547-.04688h-.08594l-.10547.04688-.10156.04297-.1211.03125-.11718-.03125-.07422-.07422v-.11719l.03125-.1211.07422-.0703.0586-.08985.07421-.07422.11719-.03125.10547-.04296h.29297l.13281-.01563.13672-.01563.10156-.04296.08985-.0586.10156-.04687.08984-.0586.13281-.01171.08985.05859.13281.01172.08984-.0586.08594-.05859.10547-.04297.08984-.0586.08594-.0625.08985-.05859.14843-.14843.0586-.08594.05859-.08985.10547-.04296.13281-.01563.11719.02735.1211.03125.05859-.0586.05859-.08984.03125-.26563.02734-.11719.10547.01172.13281.01563.10157-.04297.08984-.0586.0586-.08984.07421-.07422.0586-.08984.04687-.10156.01172-.13281-.01172-.13282-.04687-.10547-.14844-.14843-.0586-.08985-.05859-.08594-.04297-.10546v-.44532l.01563-.1328v-.14845l.01172-.1328-.0586-.0586-.08984.0586-.10156-.04298-.17969-.11719-.08594-.05859-.0625-.08984-.0586-.08985-.07421-.07421-.08594-.0586-.1211.03125-.10155.01172-.10547.04688-.08594.05859-.10547.04297-.14844.14844-.08984.05859-.08594.0586-.08984.0625-.10547.04296-.13281.01563v-.1211l.10547-.04297.11718-.03125.07422-.0703.04297-.10548v-.14844l-.02734-.11718-.14844-.14844-.13281-.01563h-.14844l-.11719.03125-.10547.04297-.10156.04297-.08984.0625-.11719.02735-.07422-.07422.01172-.13281-.04297-.10157-.04297-.10547-.08984-.05859-.11719.02734-.1211.03125-.11718.03125-.10156.04297-.1211.03125-.10156.04297-.10547.04297-.08984.0586-.10156.01562v-.11719l.01562-.13281-.0586-.08985-.07421.04297-.14844.14844-.0586.08985-.07421.07421-.04688.10547-.04296.10156-.07422.07422-.0586.08985-.07422.07422-.05859.08593-.07422.07422-.08984.0625-.07422.07031-.07422.07422-.10156.01563-.13281.01562-.10547-.04296v-.1211l.14843-.14844.04297-.10156.0586-.08984.04687-.10156.04297-.10547.0586-.08985.03124-.11719.04297-.10156.03125-.1211.02735-.11718.04687-.10547.04297-.10156.04297-.10547.07422-.07031.08984-.0625.08985-.0586.10156-.04296h.29687l.26563-.03125.10547-.04297-.07422-.07422-.11719-.03125-.10547-.04297-.08984-.0586-.10156-.04687-.08985-.0586-.10156-.04296-.10547-.04297-.08984-.0625-.08594-.0586-.10547-.04296-.10156-.04297-.1211-.03125-.11718-.03125-.10157-.04297L297.5 410.25l-.10156-.04297-.08985-.0586-.04296-.10546-.01563-.13281.10156-.04297.13281-.01563.13672.01563.13282-.01563.10156-.04297.0586-.08984.01562-.10547-.08985-.0586-.07421-.07421-.10157-.04297-.08984-.0586-.14844-.14843-.04297-.10547-.01562-.13281v-.29297l-.0586-.08985-.08984-.05859-.07422-.07422-.04297-.10547-.03125-.11718-.0586-.08985-.07421-.07422-.11719-.02734-.07422-.07422-.08984-.0586-.08984-.0625-.08594-.05859-.07422-.07421-.0586-.08594-.04687-.10547-.08594-.0586-.14843-.14843-.19532-.0586-.1328.01563-.10157.04297-.07422.07422-.04688.10156-.04296.10547-.0586.08984-.0586.08594-.29687.29687-.08984.0586h-.08594l-.0625-.08594-.04297-.10547.03125-.11719.0586-.08984.02734-.11719-.01172-.13281-.08984-.0625-.10547.04688-.11719.02734-.11719.03125-.26953.17578-.10156.04688-.11719.02734-.10546.04687-.08985.0586-.10156.04297-.0586-.08594-.04687-.10547.01563-.13281.04687-.10547.07031-.07422.07422-.07031.0586-.08985v-.14843l-.04297-.10547h-.23829l-.10156.04687-.03125.11719-.02734.11719-.03125.1211-.07422.04296-.13281.01563-.07422-.04688-.04297-.10156-.04297-.10547-.04687-.10156-.04297-.10547-.1211.03125-.10156.04297-.13281.01562-.11719.03125-.10547.04297-.08984.0586-.10156.04687-.1211.02734-.13281.01563-.10156-.04297-.0586-.08985-.04687-.10546-.04297-.10157-.04297-.10546v-.1172l.0586-.08984.08593-.05859.17969-.11719.10156-.04687.10547-.04297.10547-.0586.10156-.04296.08985-.0625.10156-.04297.10547-.0586.10156-.04687.08984-.0586.10547-.04296.10156-.04297.08985-.0625.10156-.04297.13672-.01563.11719.03125.10156.04297.1211.03125.10156.04297.10546.04688.10157.04296.10547.04297.10156.04688.10547.04297.10156.04297.10547.04687.08594.0586.10546.04296.1172.03125.10546.04297.10156.04688.08985.0586.10547.04296.10156.04297.10547.04687.11719.02735.10156.04687.1211.02735h.14843l.08594-.0586.01562-.10156.0586-.08984-.02735-.1172-.07422-.07421-.11719-.17969-.07421-.07422-.08985-.07421-.17969-.1172-.08593-.05859-.10547-.04296-.10156-.04688-.26954-.17578-.05859-.08985-.07422-.07421-.0586-.08985-.04296-.10156-.03125-.11719-.01563-.13672v-.5625l-.01171-.1328-.01563-.13282-.03125-.11719-.01562-.13281-.01172-.13281-.03125-.1211-.22266-.22265-.0586-.08594-.01562-.10547.03125-.11719.13281-.01562v-91.41406H172.9922v1.45312l-.0586.23438-.35156 1.05078-.17187.52343-.1172.34766-.17577.41016-.11719.17187-.23438.29297-.23046.0586h-.35157l-.11718.05859-.23047.40625v.29297l.11719.17578.23046.23047.1172.23437.64062.75781.29297.46485.17578.23437.23047.35156.23437.34766.64063.8164.17578.46485.17187.41016.11719.69531.17578.46875.11719 1.39844.0586.46484v.875l.11718 1.04688v4.78125l-.0586.46484-.35156 1.28125-.17578.52344-.11328.41015-.35156.9297L172.93359 336l-.23437.58203-.11719.17578-.17187.34766-.17578.40625-.35157.8164-.0586.29297-.11327.29297-.11719.28906-.0586.17579-.11718.875-.0586.40625-.05859.11718-.0586.17579-.05859.17187-.23047.52734-.11718.17188v.23437l-.11719.23438-.0586.17187-.17577.58594v.28906l-.0586.17579v.29296l-.0586.11329-.05859.52734v.17187l-.05468.23438v2.6211l-.17578.8164-.1172.17578-.17577.23438-.1172.17187-.11327.23438-.58594.93359-.23047.28906-.29297.46485-.17578.23437-.28906.35156-.35156.69922-.11328.23047-.17579.41016-.17578.23046-.40625.52735-.8164.69922-.29297.17187-.28906.23438-.17579.11719-.17578.17578-.52344.40625-.52734.17578-.17187.17578-.23438.05469-.64062.17578h-.75782m12.21094 31.02344l-1.07422.44921.35938.89454 1.25-.71485.44531-.53906-.98047-.08985"/><path fill="#d3d3d3" fill-opacity="0" fill-rule="evenodd" d="M201.50781 416.59766h-.89453l.44922.6289.98047.35938.80469-.08985.4453-.98828-.17577.08985-.71485-.35547-.89453.35547m154.6211 59.0703l-.0586-.52343v-.29297l.11328-.29297.0586-.23046.46875-.46875h.11328l.11719-.11329.11718-.05859h.17579l.23437-.0586h.34766l.23437.0586.11719.0586.23047.17187.0586.17578.11718.58203v.29297l-.11719.17578-.17187.28906-.17579.17579-.52734.52343-.23047.23438-.11719.0586h-.17578l-.11718-.0586-.40625-.29297-.17579-.11719-.11718-.0586-.0586-.11327-.05468-.1172m6.64062-10.95702l-.0586-.17188v-1.10937l.0586-.17188.17578-.0586.17188-.05858h.17578l.23437-.0586.1172.0586.05858.69921-.05859.17188-.11719.17578-.11718.0586-.23438.52343-.11328.0586h-.23438l-.05859-.1172m9.61328-14.39062l-.11719-.17578v-.69922l.29297-.875.1172-.17187.17577-.35156.11328-.23047.1172-.29297.35155-.75781.1172-.23047.17187-.23438h.17578l.11719-.0586h.64062l.11719.0586.23437.23438.17188.11328.35156.29297.11719.11718.11328.17579v.11328l.11719.05859.11718.11719v.69922l-.05859.17578v.23047l-.0586.17578-.34765 1.05078-.11719.23047-.11719.23437-.11718.0586-.23047.23437-.64063.28906h-.875l-.41015-.11718-.64063-.46485"/><path fill="none" stroke="#bebebe" stroke-linecap="round" stroke-linejoin="round" stroke-miterlimit="10" stroke-width=".5" d="M467.95703 311.69531H144.02734v168.625h323.9297v-168.625"/><g clip-path="url(#a)"><path fill="#fff" fill-opacity="0" fill-rule="evenodd" d="M144 475.89063v4.4375h.0039H144V311.67188h.0039H144v164.21875"/></g><g clip-path="url(#b)"><path fill="#fff" fill-opacity="0" fill-rule="evenodd" d="M144.0039 480.32813V311.67188h17.75v119.6289l-.27734.20703-1.71094 4.4375 1.8086 4.4375.17969.26563.27343-.26563 2.91016-4.4375-1.1875-4.4375-1.9961-.20703v-119.6289h71.01173v121.5664l-3.14454 2.70703 3.14453 2.36719 2.36329-2.36719-2.36328-2.70703v-121.5664h8.8789V437.5664l-2.92969 2.8164 2.9297 2.73047 2.99218-2.73047-2.99219-2.8164V311.67187h146.46484v145.02344l-1.52734 1.4414-2.91015 2.48048-1.94532 1.95703 1.94531 3.89844.64063.54296-.64063 1.33594-.83984 3.10156.83985 1.11329 1.18359-1.11329 3.2539-2.30468 1.89454-2.13281.0625-4.44141-.40625-4.4375-1.55079-1.4414V311.67187h79.88672v160.91015l-3.2578 3.3086 3.2578 3.2578v1.1797h-72.47265l-2.97656-2.89844-2.9961 2.89844H144.00391"/></g><path fill="#50fcfc" fill-rule="evenodd" d="M161.57422 440.38281l-1.8086-4.4375 1.71094-4.4375.27735-.20703 1.99609.20703 1.1875 4.4375-2.91016 4.4375-.27343.26563-.1797-.26563m71.19142-2.07031l-3.14454-2.36719 3.14453-2.70703 2.36329 2.70703-2.36328 2.36719m8.8789 4.80078l-2.92969-2.73047 2.9297-2.8164 2.99218 2.8164-2.99219 2.73047m142.02734 23.35938l-1.9453-3.89844 1.9453-1.95703 2.91016-2.48047 1.52735-1.4414 1.55078 1.4414.40625 4.4375-.0625 4.4414-1.89454 2.13282-3.2539 2.30469-1.1836 1.11328-.83984-1.11329.83985-3.10156.64062-1.33594-.64063-.54296"/><g clip-path="url(#c)"><path fill="#50fcfc" fill-rule="evenodd" d="M389.55078 480.32813h2.4414l.5547-.53516.55078.53515h2.42578l-2.97656-2.89843-2.9961 2.89844"/></g><g clip-path="url(#d)"><path fill="#00e8fc" fill-rule="evenodd" d="M391.99219 480.32813l.55469-.53516.55078.53515h-1.10547"/></g><path fill="#50fcfc" fill-rule="evenodd" d="M467.9961 479.14844l-3.25782-3.25781 3.25781-3.3086v1.79297l-1.49218 1.51563 1.49218 1.49218v1.76563"/><path fill="#00e8fc" fill-rule="evenodd" d="M467.9961 477.38281l-1.4922-1.49219 1.4922-1.51562v3.00781"/><path fill="#50fcfc" fill-rule="evenodd" d="M467.9961 477.38281v1.76563l.0039.0039v-1.76562l-.0039-.0039"/><path fill="#00e8fc" fill-rule="evenodd" d="M467.9961 474.375v3.00781l.0039.0039v-3.01562l-.0039.00391"/><path fill="#50fcfc" fill-rule="evenodd" d="M467.9961 472.58203v1.79297l.0039-.0039v-1.79298l-.0039.00391"/><g clip-path="url(#e)"><path fill="#fff" fill-opacity="0" fill-rule="evenodd" d="M467.9961 311.67188H468v160.90625-160.90625h-.0039"/></g><g clip-path="url(#f)"><path fill="none" stroke="#000" stroke-linecap="round" stroke-linejoin="round" stroke-miterlimit="10" stroke-width=".5" d="M147.50781 480.16406l-7.01562.32813"/></g><g clip-path="url(#g)"><path fill="none" stroke="#000" stroke-linecap="round" stroke-linejoin="round" stroke-miterlimit="10" stroke-width=".5" d="M147.50781 480.16406l1.2539 2.11328"/></g><g clip-path="url(#h)"><path fill="none" stroke="#000" stroke-linecap="round" stroke-linejoin="round" stroke-miterlimit="10" stroke-width=".5" d="M160.82813 480.29688l-7.02735.0625"/></g><g clip-path="url(#i)"><path fill="none" stroke="#000" stroke-linecap="round" stroke-linejoin="round" stroke-miterlimit="10" stroke-width=".5" d="M160.82813 480.29688L162 482.45313"/></g><g clip-path="url(#j)"><path fill="none" stroke="#000" stroke-linecap="round" stroke-linejoin="round" stroke-miterlimit="10" stroke-width=".5" d="M159.80469 480.3086l.58594 1.07812"/></g><g clip-path="url(#k)"><path fill="none" stroke="#000" stroke-linecap="round" stroke-linejoin="round" stroke-miterlimit="10" stroke-width=".5" d="M174.1211 479.9414l-6.98438.77344"/></g><g clip-path="url(#l)"><path fill="none" stroke="#000" stroke-linecap="round" stroke-linejoin="round" stroke-miterlimit="10" stroke-width=".5" d="M174.1211 479.9414l1.38671 2.02735"/></g><g clip-path="url(#m)"><path fill="none" stroke="#000" stroke-linecap="round" stroke-linejoin="round" stroke-miterlimit="10" stroke-width=".5" d="M173.10547 480.05469l.6914 1.01172"/></g><g clip-path="url(#n)"><path fill="none" stroke="#000" stroke-linecap="round" stroke-linejoin="round" stroke-miterlimit="10" stroke-width=".5" d="M187.40625 479.72656l-6.92188 1.20313"/></g><g clip-path="url(#o)"><path fill="none" stroke="#000" stroke-linecap="round" stroke-linejoin="round" stroke-miterlimit="10" stroke-width=".5" d="M187.40625 479.72656l1.50781 1.9375"/></g><g clip-path="url(#p)"><path fill="none" stroke="#000" stroke-linecap="round" stroke-linejoin="round" stroke-miterlimit="10" stroke-width=".5" d="M186.39844 479.90234l.7539.96875"/></g><g clip-path="url(#q)"><path fill="none" stroke="#000" stroke-linecap="round" stroke-linejoin="round" stroke-miterlimit="10" stroke-width=".5" d="M200.6836 479.54297l-6.84766 1.57422"/></g><g clip-path="url(#r)"><path fill="none" stroke="#000" stroke-linecap="round" stroke-linejoin="round" stroke-miterlimit="10" stroke-width=".5" d="M200.6836 479.54297l1.60937 1.85156"/></g><g clip-path="url(#s)"><path fill="none" stroke="#000" stroke-linecap="round" stroke-linejoin="round" stroke-miterlimit="10" stroke-width=".5" d="M199.6875 479.76953l.80469.92969"/></g><g clip-path="url(#t)"><path fill="none" stroke="#000" stroke-linecap="round" stroke-linejoin="round" stroke-miterlimit="10" stroke-width=".5" d="M213.92969 479.28125l-6.70703 2.09766"/></g><g clip-path="url(#u)"><path fill="none" stroke="#000" stroke-linecap="round" stroke-linejoin="round" stroke-miterlimit="10" stroke-width=".5" d="M213.92969 479.28125l1.7461 1.72266"/></g><g clip-path="url(#v)"><path fill="none" stroke="#000" stroke-linecap="round" stroke-linejoin="round" stroke-miterlimit="10" stroke-width=".5" d="M212.95313 479.58594l.87109.86328"/></g><g clip-path="url(#w)"><path fill="none" stroke="#000" stroke-linecap="round" stroke-linejoin="round" stroke-miterlimit="10" stroke-width=".5" d="M227.25781 479.32813l-6.73437 2"/></g><g clip-path="url(#x)"><path fill="none" stroke="#000" stroke-linecap="round" stroke-linejoin="round" stroke-miterlimit="10" stroke-width=".5" d="M227.25781 479.32813l1.72266 1.75"/></g><g clip-path="url(#y)"><path fill="none" stroke="#000" stroke-linecap="round" stroke-linejoin="round" stroke-miterlimit="10" stroke-width=".5" d="M226.27734 479.61719l.86328.875"/></g><g clip-path="url(#z)"><path fill="none" stroke="#000" stroke-linecap="round" stroke-linejoin="round" stroke-miterlimit="10" stroke-width=".5" d="M240.60938 479.45313l-6.8047 1.75"/></g><g clip-path="url(#A)"><path fill="none" stroke="#000" stroke-linecap="round" stroke-linejoin="round" stroke-miterlimit="10" stroke-width=".5" d="M240.60938 479.45313l1.65625 1.8125"/></g><g clip-path="url(#B)"><path fill="none" stroke="#000" stroke-linecap="round" stroke-linejoin="round" stroke-miterlimit="10" stroke-width=".5" d="M239.61719 479.70703l.82812.90625"/></g><g clip-path="url(#C)"><path fill="none" stroke="#000" stroke-linecap="round" stroke-linejoin="round" stroke-miterlimit="10" stroke-width=".5" d="M253.88672 479.3164l-6.73047 2.02344"/></g><g clip-path="url(#D)"><path fill="none" stroke="#000" stroke-linecap="round" stroke-linejoin="round" stroke-miterlimit="10" stroke-width=".5" d="M253.88672 479.3164l1.72656 1.7461"/></g><g clip-path="url(#E)"><path fill="none" stroke="#000" stroke-linecap="round" stroke-linejoin="round" stroke-miterlimit="10" stroke-width=".5" d="M267.17969 479.25l-6.6875 2.15625"/></g><g clip-path="url(#F)"><path fill="none" stroke="#000" stroke-linecap="round" stroke-linejoin="round" stroke-miterlimit="10" stroke-width=".5" d="M267.17969 479.25l1.76172 1.70703"/></g><g clip-path="url(#G)"><path fill="none" stroke="#000" stroke-linecap="round" stroke-linejoin="round" stroke-miterlimit="10" stroke-width=".5" d="M280.5664 479.51172l-6.83202 1.63281"/></g><g clip-path="url(#H)"><path fill="none" stroke="#000" stroke-linecap="round" stroke-linejoin="round" stroke-miterlimit="10" stroke-width=".5" d="M279.57422 479.75l.8125.91797"/></g><g clip-path="url(#I)"><path fill="none" stroke="#000" stroke-linecap="round" stroke-linejoin="round" stroke-miterlimit="10" stroke-width=".5" d="M293.89844 479.58203l-6.86719 1.49219"/></g><g clip-path="url(#J)"><path fill="none" stroke="#000" stroke-linecap="round" stroke-linejoin="round" stroke-miterlimit="10" stroke-width=".5" d="M292.89844 479.80078l.79297.9336"/></g><g clip-path="url(#K)"><path fill="none" stroke="#000" stroke-linecap="round" stroke-linejoin="round" stroke-miterlimit="10" stroke-width=".5" d="M307.10938 479.20313l-6.65625 2.25"/></g><g clip-path="url(#L)"><path fill="none" stroke="#000" stroke-linecap="round" stroke-linejoin="round" stroke-miterlimit="10" stroke-width=".5" d="M306.14063 479.53125l.89453.83984"/></g><g clip-path="url(#M)"><path fill="none" stroke="#000" stroke-linecap="round" stroke-linejoin="round" stroke-miterlimit="10" stroke-width=".5" d="M319.60547 477.8711l-5.01953 4.91406"/></g><g clip-path="url(#N)"><path fill="none" stroke="#000" stroke-linecap="round" stroke-linejoin="round" stroke-miterlimit="10" stroke-width=".5" d="M326.89844 480.1875l7.02344.28125"/></g><g clip-path="url(#O)"><path fill="none" stroke="#000" stroke-linecap="round" stroke-linejoin="round" stroke-miterlimit="10" stroke-width=".5" d="M341.10156 482.66797l5.2461-4.67578"/></g><g clip-path="url(#P)"><path fill="none" stroke="#000" stroke-linecap="round" stroke-linejoin="round" stroke-miterlimit="10" stroke-width=".5" d="M355.35156 483.41016l3.3789-6.16407"/></g><g clip-path="url(#Q)"><path fill="none" stroke="#000" stroke-linecap="round" stroke-linejoin="round" stroke-miterlimit="10" stroke-width=".5" d="M368.9375 483.54297l2.83984-6.42969"/></g><g clip-path="url(#R)"><path fill="none" stroke="#000" stroke-linecap="round" stroke-linejoin="round" stroke-miterlimit="10" stroke-width=".5" d="M382.48047 483.63281l2.3789-6.60937"/></g><g clip-path="url(#S)"><path fill="none" stroke="#000" stroke-linecap="round" stroke-linejoin="round" stroke-miterlimit="10" stroke-width=".5" d="M394.3125 482.60938l5.34766-4.5625"/></g><g clip-path="url(#T)"><path fill="none" stroke="#000" stroke-linecap="round" stroke-linejoin="round" stroke-miterlimit="10" stroke-width=".5" d="M412.42578 483.125l-4.25-5.59375"/></g><g clip-path="url(#U)"><path fill="none" stroke="#000" stroke-linecap="round" stroke-linejoin="round" stroke-miterlimit="10" stroke-width=".5" d="M424.85156 483.61719l-2.46875-6.57813"/></g><g clip-path="url(#V)"><path fill="none" stroke="#000" stroke-linecap="round" stroke-linejoin="round" stroke-miterlimit="10" stroke-width=".5" d="M440.04688 481.94922l-6.23047-3.24219"/></g><g clip-path="url(#W)"><path fill="none" stroke="#000" stroke-linecap="round" stroke-linejoin="round" stroke-miterlimit="10" stroke-width=".5" d="M453.03516 482.46875l-5.57813-4.27734"/></g><g clip-path="url(#X)"><path fill="none" stroke="#000" stroke-linecap="round" stroke-linejoin="round" stroke-miterlimit="10" stroke-width=".5" d="M466.73828 481.83203l-6.35156-3.00781"/></g><g clip-path="url(#Y)"><path fill="none" stroke="#000" stroke-linecap="round" stroke-linejoin="round" stroke-miterlimit="10" stroke-width=".5" d="M147.47656 466.50781l-6.95312 1.01563"/></g><path fill="none" stroke="#000" stroke-linecap="round" stroke-linejoin="round" stroke-miterlimit="10" stroke-width=".5" d="M147.47656 466.50781l1.45313 1.97656m-2.46485-1.83203l.72657.98828m13.59765-1.14453l-6.94922 1.03516m6.94922-1.03516l1.46094 1.97266m-2.47266-1.82422l.73047.98828m13.58203-1.23047l-6.91797 1.22266m6.91797-1.22266l1.51172 1.9336m-2.51953-1.7539l.75781.96484m13.52735-1.33594l-6.84375 1.60547m6.84375-1.60547l1.61719 1.84375m-2.61329-1.60938l.8086.92188m13.4414-1.38281l-6.71875 2.05859m6.71875-2.0586l1.73438 1.73438m-2.71484-1.4336l.87109.8672m13.36719-1.33594l-6.60547 2.39453m6.60547-2.39453l1.8203 1.64453m-2.78124-1.29688l.91016.82422m13.4375-.95312l-6.75 1.95703m6.75-1.95703l1.70703 1.76172m-2.69141-1.47657l.85547.8789m13.44922-1.14062l-6.76172 1.91016m6.76172-1.91016l1.69922 1.76954m-2.6836-1.4922l.85156.88673m13.32813-1.51563l-6.52344 2.61328m6.52344-2.61328l1.875 1.58203m-2.82422-1.20312l.9375.79297m13.3125-1.20703l-6.49219 2.68359m6.4922-2.6836l1.89452 1.5625m11.40235-1.60937l-6.45703 2.77734m6.45703-2.77734l1.91406 1.53516m11.40625-1.52735l-6.46484 2.76172m6.46484-2.76172l1.90625 1.54297m11.10547-2.10156l-5.85938 3.8789m5.85938-3.8789l2.15625 1.16797m10.70703-1.71875l-4.95703 4.98047m4.95703-4.98047l2.34766.71094m10.89062-.78516l-4.80078 5.1289m4.10156-4.3828l1.1836.3164m10.73046-2l-.60546 7.0039m10.3164-4.70312l6.60547 2.40234m6.5625-1.86328l6.90234 1.32422m-5.89843-1.13281l-.36328-1.17188m12.90625 3.0547l6.43359-2.82423m-5.4961 2.41407l-.96484-.76172m14.13281 2.29687l4.85547-5.07422m-4.14843 4.33594l-1.1836-.33203m19.28516-3.1836l-6.1289 3.4336m5.23437-2.9336l1.03515.66016m11.52344-2.66015l-2.83203 6.43359m2.42187-5.4961l1.22266-.08984m13.78125.11719l-5.39062 4.50781m4.60937-3.85547l1.13672.46485m11.28906 1.13672l-.01953-.20313-.0586-.1914-.09374-.17579-.46094-.375-.1914-.0586-.19923-.01952-.19921.01953-.19141.0586-.45703.375-.09766.17577-.0586.19141-.01952.20313.01953.19921.0586.19141.09765.17578.45703.375.1914.0586.19922.01953.19922-.01953.1914-.0586.46095-.375.09375-.17578.05859-.1914.01953-.19922m12.5 3.5039l-.41406-7.01172m.35547 5.99219l-1.05078.64063"/><g clip-path="url(#Z)"><path fill="none" stroke="#000" stroke-linecap="round" stroke-linejoin="round" stroke-miterlimit="10" stroke-width=".5" d="M147.48047 453.22266l-6.96094.94922"/></g><path fill="none" stroke="#000" stroke-linecap="round" stroke-linejoin="round" stroke-miterlimit="10" stroke-width=".5" d="M147.48047 453.22266l1.4336 1.99218m-2.44532-1.85156l.71484.9961m13.62891-1l-6.9961.67968m6.9961-.67969l1.35547 2.04297m-2.375-1.9453l.67969 1.02343m13.51953-1.79688l-6.72656 2.03125m6.72656-2.03125l1.73047 1.7422m11.46484-2.08595l-6.48438 2.71485m6.48438-2.71485l1.89844 1.5547m11.39844-1.59376l-6.44532 2.79688m6.44531-2.79688l1.91797 1.52734m11.1875-1.93359l-6.03125 3.60938m6.03125-3.60938l2.10157 1.26563m11.27734-1.15235l-6.16016 3.38282m6.16016-3.38282l2.05469 1.34375m11.4961-.82031l-6.62892 2.33203m6.62891-2.33203l1.80469 1.66406m11.45703-1.80469l-6.52344 2.6172m6.52344-2.6172l1.875 1.58204m11.53516-1.31641l-6.71094 2.08203m6.71094-2.08203l1.74218 1.73047m11.20313-2.53906l-5.97266 3.70312m5.97266-3.70312l2.1211 1.23437m11.33984-.97266l-6.26563 3.1797m6.26563-3.1797l2.0078 1.41016m11.3047-1.42187l-6.25782 3.19922m6.25782-3.19922l2.01172 1.40625m11.24609-1.51172l-6.14453 3.41406m5.25-2.91797l1.03125.66797m12.6914-1.83594l-5.17187 4.75781m4.42187-4.0664l1.15625.41015m13.0625-.92187l-5.47656 4.39844m4.67969-3.75781l1.1289.48046m11.42188-2.23437l-2.35547 6.6211m2.01172-5.65626l1.21484-.17969m11.8125-.9453l-1.08984 6.9414m16.42188-5.8711l-5.12891 4.8047m4.38281-4.10548l1.16016.39844m10.28906 4.8164l.09375-7.02734m16.7539 3.98047l-6.96484-.92969m5.94922.79297l.42969 1.15235m12.07812 1.61328l-3.32421-6.1914m2.84375 5.29296l-.6836 1.01953m15.64453-1.1289l-5.65234-4.17579m4.82812 3.57032l-.17968 1.21484m11.70312.8125l-.42187-7.01562m14.14453 6.96484l-1.23828-6.91797M464 456.15234l-.96484.75782"/><g clip-path="url(#aa)"><path fill="none" stroke="#000" stroke-linecap="round" stroke-linejoin="round" stroke-miterlimit="10" stroke-width=".5" d="M147.51172 440.4375l-7.02344-.10938"/></g><path fill="none" stroke="#000" stroke-linecap="round" stroke-linejoin="round" stroke-miterlimit="10" stroke-width=".5" d="M147.51172 440.4375l1.1211 2.1875m-2.14063-2.20313l.5586 1.09375m13.77733-1.1328h-7.02734m7.02734 0l1.15235 2.16796m12.10937-2.78906l-6.91797 1.24219m5.91016-1.0625l.75781.96484m13.33985-1.89844l-6.46875 2.75m5.52734-2.34765l.95313.76953m13.46875-.67578l-6.80078 1.7578m5.8125-1.5l.82812.90235m13.5625-.71875l-6.97266.8789m5.95703-.75l.70704 1m13.64453-.89452l-7.01563.41015m5.9961-.35156l.63672 1.04688m12.2578-3.7422l-4.1328 5.6836m4.1328-5.6836l2.4297.33985m8.5664-1.0039l.5 7.0078m-.42578-5.98827l1.03906-.65235m15.05078.77344l-5.19922 4.72656m5.19922-4.72656l2.3125.82813m11.3711-.34375l-5.9336 3.76172m5.9336-3.76172l2.13281 1.21093M292.47656 437.5l-4.01953 5.76563m4.01953-5.76563l2.4336.29688m11.39453.14062l-5.04688 4.89063m5.04688-4.89063l2.33203.7539m11.44531-.15624l-5.97266 3.69922m5.10547-3.16016l1.0586.61719m13.45312-.46875l-6.63281 2.3203m6.63281-2.3203l1.80469 1.66797m11.07031-2.52735l-5.75 4.03906m5.75-4.03906l2.1875 1.11328m7.82422-2.58203l.85547 6.97656m-.73047-5.96093l1.00781-.70313m14.85157.46875l-4.48047 5.41406m3.82812-4.625l1.19922.2461m10.89844 5.16797l-.74219-6.98828m.74219 6.98828L382.0078 445.25m17.71094-2.66016l-5.46484-4.41406m4.67187 3.77344l-.23437 1.20312m11.71484.7422l-.21094-7.02345m.1836 6.00391l-1.06641.60547m17.28516-1.23438l-5.96094-3.72656m5.96094 3.72656l-.17188 2.44922m13.48438-2.44922l-5.95704-3.72656m5.95704 3.72656l-.17188 2.44922m13.49219-2.45312l-5.96485-3.71485m5.96485 3.71485l-.16797 2.44531m13.57422-2.60156l-6.14844-3.40625m5.2539 2.91015l-.02343 1.22657"/><g clip-path="url(#ab)"><path fill="none" stroke="#000" stroke-linecap="round" stroke-linejoin="round" stroke-miterlimit="10" stroke-width=".5" d="M147.46094 426.46875l-6.92188 1.19922"/></g><path fill="none" stroke="#000" stroke-linecap="round" stroke-linejoin="round" stroke-miterlimit="10" stroke-width=".5" d="M147.46094 426.46875l1.50781 1.9375m11.85938-1.2539l-7.02735-.16798m7.02734.16797l1.10157 2.19141M174 428.05859l-6.74219-1.98047M174 428.0586l.4961 2.40235m12.69921-2.0625l-6.5-2.66016m6.5 2.66016l.2461 2.4414m13.26953-4.4414l-6.89844 1.33984m6.89844-1.33984l1.54297 1.90625m10.77343-3.7539l-4.90234 5.03515m4.90234-5.03516l2.35547.6836m11.32031-.26954l-5.625 4.21094m4.8047-3.60156l1.11327.52344m13.63282 1.76562l-6.84766-1.58984m5.85156 1.35937l.3164 1.1836m14.02735-1.125l-6.91406-1.2461m5.91016 1.0664l.375 1.16798m14-1.6836l-7.02344.14453m6.0039-.125l.59766 1.07422m13.72656-1.29297l-7.0039.54297m5.98437-.46484l.66016 1.03906m13.53906.16406l-6.73047-2.01953m5.75 1.72657l.24219 1.20312m12.71094.95313l-4.04688-5.7461m3.45703 4.91016l-.55468 1.09375m14.84375-5.6914l-4.81641 5.12109m4.11719-4.375l1.1836.32421m13.85937.75782l-6.8711 1.46484m6.8711-1.46484l1.57812 1.8789m11.51172-2.57422l-6.42187 2.85547m6.42187-2.85547l1.9336 1.51172m11.64843.40625l-6.95703-.97656m5.94531.83203l.42188 1.15235m11.44922-1.4961l-.01953-.20312-.0586-.1914-.09375-.17579-.46094-.375-.1914-.0586-.19922-.01953-.19922.01954-.1914.05859-.45704.375-.09765.17578-.0586.1914-.01953.20313.01953.19922.0586.1914.09765.17579.45703.375.19141.0586.19922.01952.19922-.01953.1914-.0586.46094-.375.09375-.17577.0586-.1914.01953-.19923m9.30078-1.84765l5.98047 3.6914m-5.98047-3.6914l.15625-2.44922m17.38672 7.58203l-2.47266-6.57422m2.47266 6.57422l-1.6211 1.84375m17.1875-5.55469l-6.97656.84766m6.97656-.84766l1.40625 2.01172m-2.42187-1.88672l.70312 1.0039m13.1875-2.45312l-6.09375 3.4961m6.09375-3.4961l2.07813 1.30469m-2.96485-.79688l1.03907.65235m13.04687-1.34766L434 429.00391m5.86328-3.8711l2.15625 1.17188m11.73828.60547l-7.01953.3164m7.01953-.3164l1.2461 2.10937M467.0742 427l-7.02733.13672m6.0039-.11719l.59766 1.07422"/><g clip-path="url(#ac)"><path fill="none" stroke="#000" stroke-linecap="round" stroke-linejoin="round" stroke-miterlimit="10" stroke-width=".5" d="M147.17578 412.2539l-6.35156 3"/></g><path fill="none" stroke="#000" stroke-linecap="round" stroke-linejoin="round" stroke-miterlimit="10" stroke-width=".5" d="M147.17578 412.2539l1.96875 1.46485m11.49219-1.10938l-6.64453 2.28907m6.64453-2.28906l1.79687 1.67578m11.40235-1.97266l-6.41016 2.88281m5.47656-2.46484l.96875.7539m13.22657-1.28515l-6.3047 3.10937m5.38673-2.65625l.9961.71485m13.20312-1.23438l-6.23438 3.24219m6.23438-3.24219l2.01953 1.39063m9.03906-3.17578l-1.72656 6.8125m15.05078-.00391l-1.74219-6.8086m1.48828 5.82032l-.90625.82422m17.10547-2.97266l-7.0039-.53125m7.0039.53125l.98828 2.2461m12.32422-2.17188l-6.9961-.67969m6.9961.67969l.9336 2.26562m12.38671-2.36718l-7.0078-.47657m7.0078.47657l1.00391 2.23828m12.3125-2.21875l-7.00781-.51563m7.00781.51563l.98828 2.24219m12.3125-2.90235l-6.98047.80469m6.98047-.80469l1.39063 2.01953m11.9375-1.38672l-7.01172-.46093m5.99219.39453l.5039 1.11719m13.8125-.85938l-6.97265-.84375m5.96093.72266l.4414 1.14453m12.9375.98437l-5.07421-4.85937m4.33594 4.15234l-.33203 1.17969m15.21875-1.91016l-6.7422-1.98828m5.76173 1.69922l.24219 1.20313m14.1953-1.9297l-7.02734.04688m6.00391-.03906l.58594 1.07813m13.17578-2.9922l-5.875 3.85548m5.01953-3.29297l1.07813.58984m12.4414-1.89062l-4.57422 5.33593m4.57422-5.33593l2.39453.53515m-3.0586.2422l1.19532.26562m13.48438-.22657L394 415.60547m5.97266-3.70313l2.12109 1.23438m-2.98828-.69531l2.11719 1.23437m12.04687-1.80469l-5.9375 3.76172m5.9375-3.76172l2.13281 1.21485m-2.99609-.66797l1.0664.60937m13.26954-.875l-6.2539 3.20313m6.2539-3.20313l2.01562 1.40235m11.5-.92969l-6.65234 2.25781m6.65234-2.25781l1.78907 1.67969m11.4375-1.91016l-6.47657 2.71875m6.47657-2.71875l1.90234 1.55078m8.07422-3.70312l.20312 7.02343m-.17578-6.0039l1.0664-.60547"/><g clip-path="url(#ad)"><path fill="none" stroke="#000" stroke-linecap="round" stroke-linejoin="round" stroke-miterlimit="10" stroke-width=".5" d="M146.35156 397.82813l-4.70312 5.21875"/></g><path fill="none" stroke="#000" stroke-linecap="round" stroke-linejoin="round" stroke-miterlimit="10" stroke-width=".5" d="M146.35156 397.82813l2.38281.59375m11.60547.22656l-6.04687 3.58203m5.16406-3.0625l1.05078.64062m13.60938.21094l-6.97656.83594m5.96484-.71485l.69922 1.00782m13.625-.2461l-6.96875-.92578m6.96875.92578l.85547 2.30079m12-4.5547l-6.05078 3.57813m6.05078-3.57812l2.09375 1.28125m11.66015-.07031l-6.92969 1.16015m6.9297-1.16015l1.49609 1.9453m11.73828-2.3125l-6.76563 1.89063m6.76563-1.89062l1.6914 1.77734m11.73438-1.1875l-6.98828.71094m6.98828-.71094l1.36719 2.04297m11.91797-2.27344l-6.9297 1.17188m6.9297-1.17188l1.49609 1.94531m11.625-2.64453l-6.53906 2.57422m6.53906-2.57422l1.86328 1.59375m11.48438-1.5039l-6.60547 2.39453m6.60547-2.39453l1.8203 1.64453m11.32423-2.03906l-6.26563 3.17968m6.26563-3.17968l2.0078 1.41015m11.09767-1.77344l-5.84375 3.90625m4.99218-3.33593l1.08203.57812m13.65235.41016l-6.98047.79297m6.98047-.79297l1.39062 2.02344m11.77735-2.70313l-6.6875 2.15235m5.71484-1.83985l.88281.85156m12.77344 2.14844l-5.42187-4.47265m4.6328 3.8203l-.24609 1.20313m12.66016-2.78906l-.01953-.19922-.0586-.1914-.09374-.17579-.45704-.3789-.1914-.05469-.19922-.02344-.20313.02344-.1914.05469-.45703.3789-.09375.17579-.0586.1914-.01953.19922.01953.19922.0586.1914.09375.1797.45703.375.1914.05859.20313.01953.19922-.01953.1914-.0586.45704-.375.09375-.17969.05859-.1914.01953-.19922m15.8086-.02344l-7.02735.05078m7.02734-.05078l1.16407 2.15625m11.3125-4.40625l-5.35157 4.55078m5.35157-4.55078l2.28125.90235m11.5625-.07032l-6.41016 2.88672m6.41016-2.88672l1.9375 1.5m11.45703-1.30468l-6.57031 2.49218m6.5703-2.49218l1.84766 1.61718m11.03907-2.41796l-5.71094 4.09375m5.71094-4.09375l2.19922 1.08984m10.8125-1.45703l-5.10547 4.83203m5.10547-4.83203l2.32421.78125m11.73047.41015l-6.58593 2.44532m6.58593-2.44532l1.83594 1.62891m10.5-3.05078l-4.625 5.28906"/><g clip-path="url(#ae)"><path fill="none" stroke="#000" stroke-linecap="round" stroke-linejoin="round" stroke-miterlimit="10" stroke-width=".5" d="M465.875 397.79297l2.38672.5586"/></g><g clip-path="url(#af)"><path fill="none" stroke="#000" stroke-linecap="round" stroke-linejoin="round" stroke-miterlimit="10" stroke-width=".5" d="M146.57813 384.73828l-5.15625 4.76953"/></g><path fill="none" stroke="#000" stroke-linecap="round" stroke-linejoin="round" stroke-miterlimit="10" stroke-width=".5" d="M146.57813 384.73828l2.3164.8086m11.91016 2.0039l-6.97656-.85156m6.97656.85156l.8789 2.28906m12.22266-1.4453l-6.55078-2.54298m6.55078 2.54297l.28906 2.4375m13.17578-4.4961l-6.85156 1.57423m6.85156-1.57422l1.60547 1.85547m11.45703.4414l-6.34765-3.01562m5.42578 2.57422l.05469 1.22656m14.4453-1.5664l-6.875-1.45704m6.875 1.45703l.6797 2.35938m12.64453-3.77735l-6.89063 1.37891m6.89063-1.3789l1.55469 1.89843m11.53125-2.61719l-6.4336 2.82032m6.4336-2.82032l1.92578 1.51954m11.24218-1.82032l-6.14062 3.41797m6.14062-3.41797l2.0625 1.33203m11.2422-1.34765l-6.1172 3.44922m6.1172-3.44922l2.0703 1.32031m11.32032-1.1836l-6.26953 3.17579m6.26953-3.17578l2.0078 1.41015m11.41798-1.17187l-6.48828 2.69922m6.48828-2.69922l1.89453 1.5586m11.34766-1.72267l-6.34375 3.02735m6.34375-3.02735l1.97265 1.46094m11.44531-1.21875l-6.55078 2.54297m6.55078-2.54297l1.85938 1.60156m11.4961-1.48828l-6.63282 2.31641m6.63281-2.3164l1.80469 1.66796m11.53516-1.59375l-6.6836 2.16797m5.71094-1.85156l.88281.85156m13.51563-.73437l-6.90235 1.30078m6.90235-1.30078l1.53515 1.91406m11.45704-2.86328l-6.25391 3.19922m6.2539-3.19922l2.01172 1.40234m10.98438-1.91015l-5.6211 4.21484m5.6211-4.21485l2.22266 1.04297m11.01953-1.14062l-5.47266 4.41015m5.47266-4.41015l2.2539.96484m-3.05078-.32422l1.1289.48438m12.96485-1.14453l-5.4375 4.44922m5.4375-4.44922l2.26563.94531m10.76172-1.25781l-4.85938 5.07422m4.85938-5.07422l2.36328.66797m10.40625-1.09375l-3.76953 5.92578m3.76953-5.92578l2.44922.1914M453.57422 386l-6.65625 2.2461M453.57422 386l1.78516 1.6836m11.5703-1.5547l-6.73827 1.98829"/><g clip-path="url(#ag)"><path fill="none" stroke="#000" stroke-linecap="round" stroke-linejoin="round" stroke-miterlimit="10" stroke-width=".5" d="M466.92969 386.1289l1.71875 1.75"/></g><g clip-path="url(#ah)"><path fill="none" stroke="#000" stroke-linecap="round" stroke-linejoin="round" stroke-miterlimit="10" stroke-width=".5" d="M147.46094 373.21484l-6.92188 1.1875"/></g><path fill="none" stroke="#000" stroke-linecap="round" stroke-linejoin="round" stroke-miterlimit="10" stroke-width=".5" d="M147.46094 373.21484l1.5039 1.9375m-2.5078-1.76562l.75.96875m13.5039.35156l-6.79297-1.79687m6.79297 1.79687l.5586 2.39063m-1.54688-2.65235l.28125 1.19531m14.14062-1.83203h-7.02734m7.02734 0l1.15234 2.16797m12.16016-2.09375l-7.02344-.15234m7.02344.15234l1.10547 2.1914m11.83594-3.84374l-6.27735 3.15625m6.27735-3.15625l2.0039 1.41797m11.27344-1.49219l-6.19922 3.30469m6.19922-3.30469l2.03516 1.36719m11.51172-.82813l-6.66407 2.22266m6.66407-2.22266L229 374.38671m11.59375-1.51562l-6.77344 1.875m6.77344-1.875l1.6875 1.78125m11.30469-2.5625l-6.1289 3.4375m6.1289-3.4375l2.0625 1.32813m11.11328-1.55469l-5.85156 3.89063m5.85156-3.89063l2.16015 1.16797m11.4375-.65234l-6.41796 2.85937m6.41797-2.85937l1.93359 1.51171m11.51172-1.17968l-6.67578 2.19531m6.67578-2.19531l1.76953 1.69922m11.45703-1.9336l-6.5 2.66406m6.5-2.66406l1.88672 1.5664m11.42578-1.57812l-6.4961 2.6875m6.4961-2.6875l1.89062 1.5625m11.55079-1.20312l-6.7461 1.96875m6.7461-1.96875l1.71093 1.75781m11.67188-1.47265l-6.88672 1.39843m6.88672-1.39844l1.5625 1.89454m11.72656-2.01172L353.625 374.625m6.83203-1.63281l1.625 1.83984m11.54297-2.3086l-6.53906 2.57032m6.53906-2.57031l1.86719 1.59375m11.02343-2.3711l-5.6875 4.125m5.6875-4.125l2.20313 1.07422m10.98828-1.23437l-5.4414 4.4414m5.4414-4.4414l2.26563.95312m11.12109-.86328l-5.58594 4.26563m5.58594-4.26563l2.23047 1.02344m10.96484-1.17188l-5.34375 4.5625m5.34375-4.5625l2.28125.89844m10.6211-1.3086L434.67187 376.5m4.51954-5.38281l2.39843.51172m11.5625.20703l-5.8125 3.94531m5.8125-3.94531l2.17188 1.14453m10.78125-1.59375l-5.08985 4.84375m4.35157-4.14063l1.16406.38672"/><g clip-path="url(#ai)"><path fill="none" stroke="#000" stroke-linecap="round" stroke-linejoin="round" stroke-miterlimit="10" stroke-width=".5" d="M147.47656 359.98828L140.52344 361"/></g><path fill="none" stroke="#000" stroke-linecap="round" stroke-linejoin="round" stroke-miterlimit="10" stroke-width=".5" d="M147.47656 359.98828l1.45313 1.97656m-2.46485-1.83203l.72657.98828m13.59765-.11328l-6.94922-1.03125m6.94922 1.03125l.82422 2.3125m-1.83594-2.46094l.82422 2.3125m13.5-3.22265l-6.9414 1.08594m6.9414-1.08594l1.47266 1.96094m-2.48438-1.80079l.73828.98047m13.57422-1.21484l-6.91797 1.23438m6.91797-1.23438l1.51563 1.92969m11.61328-2.58985l-6.54297 2.5586m6.54297-2.5586l1.86328 1.59766m11.4961-1.48047l-6.63282 2.32031m6.63281-2.3203l1.8047 1.66405m11.5625-1.5078l-6.73438 2.0078m6.73437-2.0078l1.72266 1.74608m11.45703-2.11718l-6.46484 2.7539m6.46484-2.7539l1.91016 1.53906m11.16406-2.00781l-5.98047 3.6914m5.98047-3.6914l2.11719 1.23828m11.21093-1.21485l-6.0078 3.64063m6.0078-3.64063l2.10938 1.25782m11.3125-1.0664l-6.22266 3.26171m6.22266-3.26172l2.02734 1.38281m11.25-1.45312l-6.14844 3.40234m6.14844-3.40234l2.0586 1.33594m-2.95313-.84375l1.03125.67187m13.17969-1.16797l-6.14844 3.40625m6.14844-3.40625l2.05469 1.33985m11.43359-.98047l-6.4961 2.6875m6.4961-2.6875l1.89062 1.5625m11.58204-1.07813l-6.8125 1.71875m6.8125-1.71875l1.64843 1.82031m11.73438-1.48828l-6.94531 1.0586m6.9453-1.0586l1.46485 1.96485m11.75781-2.39063l-6.76171 1.91016m6.76171-1.91016l1.69922 1.76953m11.64844-1.64843l-6.82812 1.66796m6.82812-1.66796l1.63281 1.83203m-2.625-1.58985l.81641.91407m13.1875-1.96094l-6.21875 3.27734m6.21875-3.27734l2.02734 1.3789m-2.93359-.90234l1.01562.6875m13.21094-1.15625l-6.23047 3.25781m6.23047-3.2578L402.125 360.25m-2.92969-.91016l1.01172.69141m13.29297-.99219l-6.39844 2.90625m6.39844-2.90625l1.94531 1.4961m11.3789-1.47657l-6.41405 2.8672m6.41406-2.8672l1.9375 1.50782m11.49219-1.21485l-6.64454 2.28516m6.64454-2.28516l1.79296 1.67578m-2.7578-1.34375l.89452.83594m13.41407-1.07812l-6.70313 2.10156m6.70313-2.10156l1.75 1.72265m11.0703-2.71484l-5.71484 4.08984"/><g clip-path="url(#aj)"><path fill="none" stroke="#000" stroke-linecap="round" stroke-linejoin="round" stroke-miterlimit="10" stroke-width=".5" d="M466.41797 358.44922l2.19922 1.08984"/></g><g clip-path="url(#ak)"><path fill="none" stroke="#000" stroke-linecap="round" stroke-linejoin="round" stroke-miterlimit="10" stroke-width=".5" d="M147.36328 346.15625l-6.72656 2.04297"/></g><path fill="none" stroke="#000" stroke-linecap="round" stroke-linejoin="round" stroke-miterlimit="10" stroke-width=".5" d="M147.36328 346.15625l1.73047 1.73828m-2.71094-1.4414l.86719.87109m13.54688.32812l-6.96485-.94921m6.96484.94921l.84766 2.30079m11.96484-4.63672l-5.96093 3.72265m5.96094-3.72265l2.125 1.23046m-2.9922-.6875l1.0625.61329m12.30079-2.06641l-4.32031 5.54297m4.3203-5.54297l2.41798.42578m11.76562.5664l-6.0586 3.5625m6.0586-3.5625l2.08985 1.28126m11.33593-1.07422l-6.28125 3.14844m6.28125-3.14844l2.00391 1.41797m11.23438-1.5664l-6.125 3.4414m6.125-3.4414l2.0664 1.32421m11.40625-1.00781l-6.4414 2.8086m6.4414-2.8086l1.92188 1.52734m11.3789-1.5586l-6.41406 2.8711m6.41406-2.8711l1.9375 1.50391m11.32422-1.61718l-6.30469 3.09765m6.3047-3.09765l1.98827 1.43359m11.3125-1.46484l-6.27734 3.16015m6.27734-3.16015l2.0039 1.41796m11.35157-1.33593l-6.35547 2.9961m6.35547-2.9961l1.96485 1.46875m11.3203-1.53125l-6.29687 3.1211m6.29688-3.1211l1.99219 1.42969m11.35937-1.35547l-6.3711 2.97265m6.3711-2.97265l1.95703 1.47656m11.29297-1.60156l-6.24219 3.22656m6.24219-3.22656l2.01953 1.39453m11.47656-.98438l-6.60156 2.40235m6.60156-2.40235l1.82422 1.64453m11.60157-1.27734l-6.82422 1.66797m6.82422-1.66797l1.6328 1.83203m-2.625-1.58984l.81641.91797m13.41407-1.4336l-6.67188 2.21485m6.67188-2.21485l1.77343 1.69531m-2.74609-1.37109l.89063.84766m13.32421-1.36328l-6.52734 2.59765m6.52734-2.59765l1.875 1.58593m-2.82421-1.20703l.9375.79297m13.11718-1.61328l-6.10547 3.48047m6.10547-3.48047l2.07422 1.3125m-2.96484-.80469l1.03906.65625m13.29297-.91797l-6.35938 2.98829m6.35938-2.98829l1.96484 1.47266m-2.89062-1.03906l.98437.73828m13.28907-1.09766l-6.42579 2.84375m6.42579-2.84375l1.92968 1.51172m-2.86328-1.10156l.96485.75781m13.30468-1.1211l-6.46484 2.7461m6.46484-2.7461l1.91016 1.54298m-2.85156-1.14454l.95703.77344m13.54687-.26953l-6.96093.9414m6.96093-.9414l1.4336 1.99219m11.85937-2.13281l-6.91797 1.22656"/><g clip-path="url(#al)"><path fill="none" stroke="#000" stroke-linecap="round" stroke-linejoin="round" stroke-miterlimit="10" stroke-width=".5" d="M467.01953 346.5664l1.51563 1.9297"/></g><path fill="none" stroke="#000" stroke-linecap="round" stroke-linejoin="round" stroke-miterlimit="10" stroke-width=".5" d="M466.01563 346.74219l.7539.96875"/><g clip-path="url(#am)"><path fill="none" stroke="#000" stroke-linecap="round" stroke-linejoin="round" stroke-miterlimit="10" stroke-width=".5" d="M145.91406 330.91797l-3.82812 5.89062"/></g><path fill="none" stroke="#000" stroke-linecap="round" stroke-linejoin="round" stroke-miterlimit="10" stroke-width=".5" d="M145.91406 330.91797l2.44531.21484m-3 .64063l1.21875.10937m13.61329-.03515l-5.75391 4.03125m5.7539-4.03125l2.1875 1.11328m11.52735-.36719l-6.55078 2.53906m6.55078-2.53906l1.85547 1.60156m10.25781-3.16797l-4.15234 5.67188m4.15234-5.67188l2.42969.35157m11.26172-.03125l-4.90235 5.03125M199 332.07812l1.17578.34375m13.60938.01172l-6.41797 2.85938m6.41797-2.85938l1.93359 1.50782m11.57031-.96094l-6.80078 1.76562m6.80078-1.76562l1.66016 1.80469m11.66406-1.77344l-6.8164 1.70312m6.8164-1.70312l1.64453 1.82031m11.67578-1.8086l-6.82422 1.6797m6.82422-1.6797l1.63672 1.82813m11.61328-2.05078l-6.6953 2.125m6.6953-2.125l1.75391 1.71485m11.51563-1.85547l-6.60157 2.40625m6.60156-2.40625l1.82422 1.64062m11.32422-2.02734l-6.26953 3.17969m6.26953-3.1797l2.0039 1.41407m11.21485-1.58594l-6.08203 3.51953m6.08203-3.51953l2.08203 1.30078m11.38672-1.0039l-6.38672 2.92969m6.38672-2.9297l1.94922 1.48829m11.07422-2.0039l-5.80469 3.96093m5.80469-3.96094l2.17187 1.14063m11.42579-.64844l-6.3672 2.97656m6.3672-2.97656l1.96093 1.47266m11.23828-1.69532l-6.13671 3.42188m5.24609-2.92188l1.02734.66407m13.53516-.23829l-6.84766 1.57032m6.84766-1.57031l1.60547 1.85156m11.1836-3.05078l-5.80079 3.96875m5.80078-3.96875l2.17578 1.14062m11.3672-.76172l-6.25392 3.21094m6.25391-3.21094l2.01172 1.40235m11.44531-1.08204l-6.53906 2.57032m6.53906-2.57031l1.86719 1.59765m11.44531-1.60547l-6.53125 2.58594m6.53125-2.58594l1.86719 1.58985m-2.8164-1.21485l.93359.79688m13.02734-1.76563l-5.92578 3.77344m5.92578-3.77344l2.13672 1.20703m-3-.66015l1.07031.60547m13.40625-.57032l-6.52344 2.60938m6.52344-2.60938l1.875 1.58204m11.58985-1.125l-6.82032 1.6953"/><g clip-path="url(#an)"><path fill="none" stroke="#000" stroke-linecap="round" stroke-linejoin="round" stroke-miterlimit="10" stroke-width=".5" d="M466.97266 333.01563l1.64062 1.82812"/></g><path fill="none" stroke="#000" stroke-linecap="round" stroke-linejoin="round" stroke-miterlimit="10" stroke-width=".5" d="M465.98047 333.26172l.82031.91406"/><g clip-path="url(#ao)"><path fill="none" stroke="#000" stroke-linecap="round" stroke-linejoin="round" stroke-miterlimit="10" stroke-width=".5" d="M141.96484 317.6836l4.07032 5.72656"/></g><path fill="none" stroke="#000" stroke-linecap="round" stroke-linejoin="round" stroke-miterlimit="10" stroke-width=".5" d="M156.25 317.19922l2.1289 6.69531m-2.1289-6.69531l1.71484-1.7539m12.60547 1.58984l.1211 7.02734m-.10547-6.0039l1.07422-.59766m13.28906-.28125l-2.00781 6.73437m1.71484-5.7539l1.20313-.2422m11.84765-.85546l-.89453 6.96875m.76563-5.95313l1.14843-.43359m14.38281.46875l-5.0664 4.8711m4.32812-4.16407l1.16407.38281m13.86328 1.50391l-7.01953-.3164m7.01953.3164l1.05469 2.21485m12.24609-1.9961l-6.98828-.75781m6.98828.75781l.91016 2.27735m12.41796-2.88672l-7.01172.46484m7.01172-.46484l1.29297 2.08203m12.00781-2.2461l-6.98437.78907m6.98438-.78907l1.38671 2.02344m11.89453-2.23828l-6.91796 1.22266m6.91797-1.22266l1.51171 1.9336m11.4922-2.88282l-6.29688 3.11719m6.29687-3.11719l1.9961 1.42969m11.26562-1.53125l-6.1914 3.32422m6.1914-3.32422l2.04297 1.36328m11.54687-.69531l-6.73828 1.98828m6.73828-1.98828l1.71875 1.75m11.4922-2.0586l-6.52735 2.60157m6.52734-2.60157l1.8711 1.58985m11.53906-1.32031l-6.71875 2.0664m6.71875-2.0664l1.73828 1.73046m11.08594-2.72265l-5.73829 4.05078m5.73829-4.05078l2.1914 1.10547m11.69531.21484l-6.8828 1.40625m5.8828-1.19922l.78125.94531m11.83204-3.5l-3.47657 6.10547m2.96875-5.21875l1.22657.03516m12.61328-.91406l-3.51172 6.08593m3-5.19921l1.22656.04296m7.64844.65625l6.39062 2.91797m6.65235-2.02734l6.9336 1.13672m-5.92579-.97266l-.39063-1.16406m18.95313-.57031l-5.57422 4.27734m4.76563-3.65625l1.11328.51172m13.20312-.85547l-5.96094 3.72266m5.96094-3.72266l2.125 1.22656m11.33203-.98047l-6.24218 3.23047"/><g clip-path="url(#ap)"><path fill="none" stroke="#000" stroke-linecap="round" stroke-linejoin="round" stroke-miterlimit="10" stroke-width=".5" d="M466.6836 318.9336l2.01562 1.39452"/></g><path fill="none" stroke="#000" stroke-linecap="round" stroke-linejoin="round" stroke-miterlimit="10" stroke-width=".5" d="M465.77344 319.40234l1.01172.69922"/><path fill="#00f" fill-rule="evenodd" d="M383.80078 467.64844h8.61719V457.5039h-8.61719v10.14453"/><path fill="azure" fill-rule="evenodd" d="M385.63281 459.33594h.83203v2.82422h3.28907v-2.82422h.83203v6.48047h-.83203v-2.91797h-3.28907v2.91797h-.83203v-6.48047"/><path fill="#00f" fill-rule="evenodd" d="M312.78516 454.33203h8.62109V444.1875h-8.6211v10.14453"/><path fill="azure" fill-rule="evenodd" d="M314.6211 446.01953h.83202v2.82422h3.28516v-2.82422h.83203V452.5h-.83203v-2.91406h-3.28515V452.5h-.83204v-6.48047"/><path fill="#00f" fill-rule="evenodd" d="M383.80078 436.57813h8.61719v-10.14454h-8.61719v10.14454"/><path fill="azure" fill-rule="evenodd" d="M385.63281 428.26563h.83203v2.82421h3.28907v-2.82421h.83203v6.48046h-.83203v-2.91406h-3.28907v2.91406h-.83203v-6.48046"/><path fill="#ff3030" fill-rule="evenodd" d="M380.05469 418.82813H387.75v-10.14844h-7.69531v10.14844"/><path fill="azure" fill-rule="evenodd" d="M381.89063 410.51172h.83203v5.74219h3.1953v.73828h-4.02733v-6.48047"/><path fill="#ff3030" fill-rule="evenodd" d="M295.72656 409.94922h7.69531v-10.14453h-7.6953v10.14453"/><path fill="azure" fill-rule="evenodd" d="M297.5586 401.63672h.83593v5.73828h3.1914v.74219h-4.02734v-6.48047"/><path fill="#ff3030" fill-rule="evenodd" d="M193.64453 378.88281h7.69531v-10.14844h-7.6953v10.14844"/><path fill="azure" fill-rule="evenodd" d="M195.47656 370.5664h.83594v5.7422h3.1914v.73827h-4.02734v-6.48046"/><path fill="#ffffe0" fill-rule="evenodd" d="M338.16406 387.98828h22.17969v-10.1914h-22.17969v10.1914"/><path fill-rule="evenodd" d="M341.66406 379.6289h.50781v6.29688h-.78515v-4.49219h-1.39063v-.55468l.5625-.0625.25-.0547.23047-.08983.20313-.14063.17578-.21094.14062-.29297.10547-.39843m4.8125 0l.23047.01953.21875.05469.20703.08984.19922.1211.1836.15234.17187.17578.30078.41797.24219.49218.17969.54688.11328.57812.03906.59375-.03906.59375-.11328.58204-.1797.55468-.24218.5-.30078.42969-.17188.17969-.18359.15234-.19922.125-.20703.08985-.21875.05859-.23047.01953-.22656-.01953-.21875-.0586-.21094-.08984-.19531-.125-.1836-.15234-.17187-.17969-.30078-.42969-.24219-.5-.1836-.55469-.10937-.58203-.03906-.59375h.83203l.03125.5625.08203.50391.125.44531.16407.375.1875.30078.21093.21875.22266.13672.22656.04688.22656-.04688.22266-.13672.21094-.21875.1914-.30078.16407-.375.125-.44531.08203-.5039.02734-.5625-.02734-.5625-.08203-.5-.125-.4375-.16406-.36329-.19141-.29297-.21094-.21484-.22265-.1289-.22657-.04688-.22656.04687-.22266.12891-.21093.21484-.1875.29297-.16407.36328-.125.4375-.08203.5-.03125.5625h-.83203l.03906-.59375.10938-.57812.1836-.54688.24218-.49218.30078-.41797.17188-.17578.18359-.15235.19531-.1211.21094-.08983.21875-.0547.22656-.01952m4.95313 0l.23047.01953.21875.05469.20703.08984.19922.1211.18359.15234.17188.17578.30078.41797.24218.49218.1797.54688.11327.57812.03516.59375-.03516.59375-.11328.58204-.17969.55468-.24218.5-.30079.42969-.17187.17969-.1836.15234-.19921.125-.20703.08985-.21875.05859-.23047.01953-.22656-.01953-.22266-.0586-.20703-.08984-.19531-.125-.1836-.15234-.17187-.17969-.30079-.42969-.24609-.5-.17969-.55469-.10937-.58203-.03906-.59375h.83203l.03125.5625.08203.50391.125.44531.16406.375.1875.30078.21094.21875.22265.13672.22657.04688.22656-.04688.22266-.13672.21093-.21875.19141-.30078.16406-.375.125-.44531.08203-.5039.02735-.5625-.02735-.5625-.08203-.5-.125-.4375-.16406-.36329-.1914-.29297-.21094-.21484-.22266-.1289-.22656-.04688-.22656.04687-.22266.12891-.21094.21484-.1875.29297-.16406.36328-.125.4375-.08203.5-.03125.5625h-.83203l.03906-.59375.10937-.57812.1797-.54688.24608-.49218.30079-.41797.17187-.17578.1836-.15235.1953-.1211.20704-.08983.22265-.0547.22657-.01952m4.95312 0l.38672.02734.35938.08594.32421.13281.27735.1875.23047.23828.17187.28516.10938.33203.03906.3789-.01953.27344-.0586.23438-.08984.19922-.10937.17187-.12891.14453-.14063.1211-.28515.19921.23047.1172.20703.14452.1836.17188.15234.19531.125.21485.08984.22656.05469.2461.01953.2539-.03516.3125-.10156.32422-.17188.32421-.24218.3086-.30469.26953-.375.21484-.21094.07813-.22656.0625-.2461.03906-.26171.01172-.25781-.01172-.2422-.03906-.22265-.0625-.20703-.07813-.35938-.21484-.28906-.26953-.22265-.3086-.15625-.32421-.09375-.32422-.03125-.3125h.83203l.02734.2539.07813.23438.12109.21484.16406.1836.1914.15234.21876.11328.24219.07422.2539.02344.2539-.02344.2422-.07422.21875-.11328.1953-.15234.16017-.1836.12109-.21484.07812-.23438.02735-.2539-.02735-.25-.07812-.23828-.1211-.21094-.16015-.1836-.19531-.15234-.21875-.11719-.2422-.0703-.2539-.02735-.2539.02734-.2422.07031-.21874.1172-.1914.15233-.16407.1836-.1211.21094-.07812.23828-.02734.25h-.83203l.01953-.2539.05469-.23829.09375-.22266.12109-.21093.15234-.1875.1836-.17579.20703-.15234.23437-.1289-.28906-.19922-.14063-.1211-.1289-.14453-.10938-.17187-.08984-.19922-.05469-.23438-.02344-.27344h.78907l.02344.21485.0664.1914.10156.16407.13672.14062.16406.11328.19141.07813.20703.05078.21875.01953.22266-.01953.20703-.05078.1875-.07813.16406-.11328.13672-.14062.10547-.16406.0664-.19141.01954-.21485-.01953-.21484-.06641-.1914-.10547-.16797-.13672-.13672-.16406-.11328-.1875-.08204-.20703-.05078-.22266-.01562-.21875.01562-.20703.05079-.1914.08203-.16407.11328-.13672.13672-.10156.16796-.0664.19141-.02344.21485h-.78906l.03906-.37891.10937-.33203.17188-.28516.23047-.23828.28125-.1875.3203-.13281.35938-.08594.38672-.02734"/><path fill="#ffffe0" fill-rule="evenodd" d="M235.22266 379.90234h22.17968v-10.1914h-22.17968v10.1914"/><path fill-rule="evenodd" d="M238.72266 371.54297h.5078v6.29297h-.78515v-4.48828h-1.39062v-.5547l.5625-.0664.25-.05469.23047-.08593.20312-.14453.17578-.20704.14063-.29687.10547-.39453m4.8125 0l.23047.01953.21875.05469.20703.08984.19922.1211.18359.14843.17187.17578.30078.42188.2422.49219.17968.54687.11328.57813.03906.58984-.03906.59375-.11328.58594-.17969.55469-.24219.5-.30078.42968-.17187.17969-.1836.15234-.19921.125-.20703.08985-.21875.0586-.23047.01952-.22657-.01953-.21875-.0586-.21093-.08984-.19532-.125-.18359-.15234-.17188-.17969-.30078-.42969-.24609-.5-.17969-.55468-.10937-.58594-.03906-.59375h.83203l.03125.5664.08203.50391.125.4414.16406.375.1875.30079.21094.22266.22265.13671.22657.04688.22656-.04688.22266-.13671.21093-.22266.1914-.30078.16407-.375.125-.4414.08203-.50391.02735-.56641-.02735-.5586-.08203-.5-.125-.4375-.16406-.36718-.1914-.28906-.21095-.21485-.22265-.13281-.22656-.04297-.22657.04297-.22265.13281-.21094.21485-.1875.28906-.16406.36719-.125.4375-.08203.5-.03125.55859h-.83203l.03906-.58984.10937-.57813.17969-.54687.2461-.4922.30077-.42187.17188-.17578.1836-.14844.1953-.12109.21094-.08984.21875-.05469.22657-.01953m4.95312 0l.23047.01953.21875.05469.20703.08984.19531.1211.1875.14843.17188.17578.30078.42188.24219.49219.17969.54687.11328.57813.03515.58984-.03515.59375-.11328.58594-.1797.55469-.24218.5-.30078.42968-.17188.17969-.1875.15234-.1953.125-.20704.08985-.21875.0586-.23047.01952-.23047-.01953-.21875-.0586-.20703-.08984-.19531-.125-.1836-.15234-.17187-.17969-.30078-.42969-.2461-.5-.17968-.55468-.10938-.58594-.03906-.59375h.83203l.03125.5664.08203.50391.125.4414.16016.375.1914.30079.21094.22266.22266.13671.22656.04688.22656-.04688.22266-.13671.21094-.22266.1914-.30078.16407-.375.125-.4414.08203-.50391.02734-.56641-.02734-.5586-.08203-.5-.125-.4375-.16407-.36718-.1914-.28906-.21094-.21485-.22266-.13281-.22656-.04297-.22656.04297-.22266.13281-.21094.21485-.1914.28906-.16016.36719-.125.4375-.08203.5-.03125.55859h-.83203l.03906-.58984.10938-.57813.17969-.54687.24609-.4922.30078-.42187.17188-.17578.18359-.14844.19531-.12109.20703-.08984.21875-.05469.23047-.01953m4.95313 0l.38672.02734.35937.08203.32422.13672.27734.1875.23047.23828.17188.28516.10937.33203.03906.3789-.01953.27344-.0586.23438-.08983.19922-.10938.17187-.1289.14454-.14063.12109-.28516.19531.23047.1211.20703.14453.1836.17187.15234.19531.125.21094.08984.23047.0547.2461.01952.2539-.03515.3086-.10157.32812-.17187.32422-.24219.30469-.30469.26953-.375.21484-.21093.08203-.22657.0625-.24609.03516-.26172.01562-.25781-.01562-.24219-.03516-.22266-.0625-.20703-.08203-.35937-.21484-.28906-.26954-.22266-.30468-.15625-.32422-.09375-.32813-.03125-.30859h.83203l.02734.2539.07813.23438.1211.21094.16406.1875.1914.15234.21875.11328.24219.07422.2539.02344.25391-.02344.24219-.07422.21875-.11328.19531-.15234.16016-.1875.1211-.21094.07812-.23437.02734-.25391-.02734-.2539-.07813-.23438-.1211-.21094-.16015-.1875-.19531-.15234-.21875-.11328-.24219-.07032-.2539-.02734-.25391.02734-.24219.07032-.21875.11328-.1914.15234-.16407.1875-.12109.21094-.07813.23437-.02734.25391h-.83203l.01953-.2539.05469-.23829.08984-.22656.125-.20703.15235-.1914.18359-.17188.20703-.15235.23438-.1328-.28907-.19532-.14062-.1211-.1289-.14453-.10938-.17187-.08985-.19922-.05468-.23438-.02344-.27343h.78906l.02344.21094.0625.1914.10547.16797.13672.14063.16406.10937.1914.08203.20704.05078.21875.01563.22265-.01563.20313-.05078.1914-.08203.16407-.10938.13672-.14062.10546-.16797.06641-.1914.01953-.21094-.01953-.21485-.0664-.1914-.10548-.16797-.13671-.14063-.16407-.10937-.1914-.08203-.20313-.05078-.22265-.01563-.21875.01563-.20703.05078-.19141.08203-.16406.10937-.13672.14063-.10547.16797-.0625.1914-.02344.21485h-.78906l.03906-.3789.10938-.33204.17187-.28516.23047-.23828.28125-.1875.32031-.13672.35938-.08203.38672-.02734"/><path fill="#ffffe0" fill-rule="evenodd" d="M195.27734 418.7461h22.1797v-10.19141h-22.1797v10.1914"/><path fill-rule="evenodd" d="M198.77734 410.38672h.50782v6.29687H198.5v-4.48828h-1.39063v-.5586l.5625-.0625.25-.05468.23047-.08984.20313-.14063.17578-.21094.14063-.29296.10546-.39844m4.8125 0l.23047.01953.21875.0586.20703.08984.19922.11719.1836.15234.17187.17578.30078.41797.24219.49219.17969.54687.11328.58203.03906.58985-.03906.59375-.11328.58203-.17969.55469-.24219.5039-.30078.42578-.17187.17969-.1836.15234-.19922.125-.20703.09375-.21875.0547-.23047.01952-.22656-.01953-.21875-.05469-.21094-.09375-.1953-.125-.1836-.15234-.17188-.17969-.30078-.42578-.24219-.5039-.18359-.5547-.10938-.58202-.03906-.59375h.83203l.03125.5625.08203.5078.125.44142.16407.375.1875.30078.21094.21875.22265.13671.22656.04688.22657-.04688.22265-.13671.21094-.21875.1914-.30079.16407-.375.125-.4414.08203-.50781.02734-.5625-.02734-.5625-.08203-.5-.125-.4336-.16406-.36719-.19141-.29296-.21094-.21485-.22265-.1289-.22657-.04688-.22656.04688-.22266.1289-.21093.21485-.1875.29296-.16406.3672-.125.43359-.08204.5-.03125.5625h-.83203l.03906-.58985.10938-.58203.1836-.54687.24218-.4922.30078-.41796.17188-.17578.1836-.15235.1953-.11718.21094-.08985.21875-.05859.22656-.01953m4.95313 0l.23047.01953.21875.0586.20703.08984.19922.11719.1836.15234.17187.17578.30078.41797.24219.49219.17968.54687.11328.58203.03516.58985-.03516.59375-.11328.58203-.17969.55469-.24218.5039-.30078.42578-.17188.17969-.1836.15234-.19921.125-.20703.09375-.21875.0547-.23047.01952-.22656-.01953-.22266-.05469-.20703-.09375-.19531-.125-.1836-.15234-.17187-.17969-.30078-.42578-.2461-.5039-.17969-.5547-.10937-.58202-.03906-.59375h.83203l.03125.5625.08203.5078.125.44142.16016.375.1914.30078.21094.21875.22266.13671.22656.04688.22656-.04688.22266-.13671.21094-.21875.1914-.30079.16406-.375.125-.4414.08203-.50781.02735-.5625-.02734-.5625-.08204-.5-.125-.4336-.16406-.36719-.1914-.29296-.21094-.21485-.22266-.1289-.22656-.04688-.22656.04688-.22266.1289-.21094.21485-.1914.29296-.16016.3672-.125.43359-.08203.5-.03125.5625h-.83203l.03906-.58985.10938-.58203.17968-.54687.2461-.4922.30078-.41796.17187-.17578.1836-.15235.1953-.11718.20704-.08985.22266-.05859.22656-.01953m4.95312 0l.38672.03125.35938.08203.32422.13672.27734.1875.23047.23437.17187.28516.10938.33203.03906.3789-.01953.27344-.0586.23438-.08984.20313-.10937.16796-.1289.14454-.14063.12109-.28516.19922.23047.11719.20703.14843.1836.17188.15234.1914.125.21485.08984.23047.05469.24218.01953.25782-.03516.30859-.10156.32422-.17187.32812-.2422.3047-.30468.26952-.375.21485-.21094.08203-.22656.0586-.2461.03905-.26171.01172-.25781-.01172-.2422-.03906-.22265-.0586-.20703-.08202-.35937-.21485-.28907-.26953-.22265-.30469-.15625-.32812-.09375-.32422-.03125-.3086h.83203l.02734.25.07813.23829.1211.21094.16405.18359.19141.15234.21875.11328.24219.07422.2539.02344.25391-.02344.24219-.07422.21875-.11328.19531-.15234.16016-.1836.12109-.21093.07813-.23828.02734-.25-.02734-.25391-.07813-.23438-.1211-.21484-.16015-.1836-.19531-.15234-.21875-.11328-.24219-.07422-.2539-.02343-.25391.02343-.24219.07422-.21875.11328-.1914.15235-.16407.1836-.1211.21483-.07812.23438-.02734.2539h-.83203l.01953-.2539.05469-.24219.09375-.22265.12109-.20704.15234-.1914.1836-.17188.20703-.15234.23437-.13281-.28906-.19922-.14062-.1211-.12891-.14453-.10938-.16796-.08984-.20313-.05469-.23438-.02343-.27343h.78906l.02344.21484.0625.1914.10547.16407.13671.14063.16407.11328.1914.08203.20703.05078.21875.01562.22266-.01562.20703-.05078.1875-.08203.16406-.11329.13672-.14062.10547-.16406.0664-.1914.01954-.21485-.01953-.21485-.0664-.1914-.10548-.16406-.13672-.14063-.16406-.11328-.1875-.08203-.20703-.04688-.22266-.01953-.21875.01953-.20703.04688-.1914.08203-.16407.11328-.13672.14063-.10546.16406-.0625.1914-.02344.21485h-.78906l.03906-.3789.10937-.33204.17188-.28516.23047-.23437.28125-.1875.32031-.13672.35938-.08203.38671-.03125"/><path fill="#ffffe0" fill-rule="evenodd" d="M298.41016 432.3711h22.17968v-10.19141h-22.17968v10.1914"/><path fill-rule="evenodd" d="M301.91016 424.01172h.5078v6.29687h-.78515v-4.48828h-1.39062v-.5586l.5625-.0625.25-.05468.23047-.08984.20312-.14063.17578-.21094.14063-.29296.10547-.39844m4.8125 0l.23046.01953.21875.0586.20704.08984.19921.11719.1836.15234.17187.17578.30079.41797.24218.49219.17969.54687.11328.58203.03516.58985-.03516.59375-.11328.58203-.17969.55469-.24219.5039-.30078.42578-.17187.17969-.1836.15234-.19921.125-.20704.09375-.21875.0547-.23046.01952-.22657-.01953-.22265-.05469-.20703-.09375-.19532-.125-.18359-.15234-.17188-.17969-.30078-.42578-.24609-.5039-.17969-.5547-.10937-.58202-.03906-.59375h.83203l.03125.5625.08203.5078.125.44142.16406.375.1875.30078.21094.21875.22265.13671.22657.04688.22656-.04688.22265-.13671.21094-.21875.1914-.30079.16407-.375.125-.4414.08203-.50781.02735-.5625-.02735-.5625-.08203-.5-.125-.4336-.16406-.36719-.1914-.29296-.21094-.21485-.22266-.1289-.22656-.04688-.22657.04688-.22265.1289-.21094.21485-.1875.29296-.16406.3672-.125.43359-.08203.5-.03125.5625h-.83204l.03907-.58985.10937-.58203.17969-.54687.2461-.4922.30077-.41796.17188-.17578.1836-.15235.1953-.11718.20704-.08985.22265-.05859.22657-.01953m4.95312 0l.23047.01953.21875.0586.20703.08984.19531.11719.1875.15234.16797.17578.30469.41797.24219.49219.17969.54687.11328.58203.03515.58985-.03515.59375-.11329.58203-.17968.55469-.24219.5039-.30469.42578-.16797.17969-.1875.15234-.1953.125-.20704.09375-.21875.0547-.23047.01952-.23047-.01953-.21875-.05469-.20703-.09375-.19531-.125-.1836-.15234-.17187-.17969-.30078-.42578-.2461-.5039-.17968-.5547-.10938-.58202-.03906-.59375h.83203l.03125.5625.08203.5078.125.44142.16016.375.1914.30078.21094.21875.22266.13671.22656.04688.22656-.04688.22266-.13671.21094-.21875.1914-.30079.16016-.375.1289-.4414.08204-.50781.02734-.5625-.02734-.5625-.08203-.5-.12891-.4336-.16016-.36719-.1914-.29296-.21094-.21485-.22266-.1289-.22656-.04688-.22656.04688-.22266.1289-.21094.21485-.1914.29296-.16016.3672-.125.43359-.08203.5-.03125.5625h-.83203l.03906-.58985.10938-.58203.17969-.54687.24609-.4922.30078-.41796.17188-.17578.18359-.15235.19531-.11718.20703-.08985.21875-.05859.23047-.01953m4.95313 0l.38671.03125.35938.08203.32031.13672.28125.1875.23047.23437.17188.28516.10937.33203.03906.3789-.01953.27344-.0586.23438-.08983.20313-.10938.16796-.1289.14454-.14063.12109-.28516.19922.23047.11719.20703.14843.1836.17188.15234.1914.125.21485.08984.23047.0547.24218.01952.25782-.03515.30859-.10157.32422-.17187.32812-.24219.3047-.30469.26952-.375.21485-.21093.08203-.22657.0586-.24609.03905-.26172.01172-.25781-.01172-.24219-.03906-.22265-.0586-.20704-.08202-.35937-.21485-.28906-.26953-.22266-.30469-.15625-.32812-.09375-.32422-.03125-.3086h.83203l.02735.25.07812.23829.1211.21094.16015.18359.19531.15234.21875.11328.24219.07422.2539.02344.25391-.02344.24219-.07422.21875-.11328.19531-.15234.16016-.1836.1211-.21093.07812-.23828.02734-.25-.02734-.25391-.07813-.23438-.1211-.21484-.16015-.1836-.19531-.15234-.21875-.11328-.24219-.07422-.2539-.02343-.25391.02343-.24219.07422-.21875.11328-.19531.15235-.16016.1836-.12109.21483-.07813.23438-.02734.2539H314.5l.01953-.2539.05469-.24219.08984-.22265.125-.20704.15235-.1914.18359-.17188.20703-.15234.23047-.13281-.28516-.19922-.14062-.1211-.1289-.14453-.10938-.16796-.08985-.20313-.05859-.23438-.01953-.27343h.78906l.02344.21484.0625.1914.10547.16407.13672.14063.16406.11328.1914.08203.20704.05078.21875.01562.21875-.01562.20703-.05078.1914-.08203.16407-.11329.13671-.14062.10547-.16406.0625-.1914.02344-.21485-.02344-.21485-.0625-.1914-.10546-.16406-.13672-.14063-.16407-.11328-.1914-.08203-.20703-.04688-.21875-.01953-.21875.01953-.20704.04688-.1914.08203-.16406.11328-.13672.14063-.10547.16406-.0625.1914-.02344.21485h-.78906l.03906-.3789.10938-.33204.17187-.28516.23047-.23437.28125-.1875.32031-.13672.35938-.08203.38672-.03125"/><path fill="#ffffe0" fill-rule="evenodd" d="M315.11328 345.10156h22.17969v-10.1914h-22.17969v10.1914"/><path fill-rule="evenodd" d="M318.61328 336.74219h.50781v6.29687h-.78515v-4.48828h-1.39063v-.5586l.5625-.0625.25-.05468.23047-.08984.20313-.14063.17578-.21094.14062-.29296.10547-.39844m4.8125 0l.23047.01953.21875.0586.20703.08984.19922.11718.1836.15235.17187.17578.30078.41797.24219.49219.17969.54687.11328.58203.03515.58985-.03515.59375-.11329.58203-.17968.55468-.24219.50391-.30078.42578-.17188.17969-.18359.15234-.19922.125-.20703.09375-.21875.05469-.23047.01953-.22656-.01953-.21875-.05469-.21094-.09375-.19531-.125-.1836-.15234-.17187-.17969-.30078-.42578-.2461-.5039-.17968-.5547-.10938-.58202-.03906-.59375h.83203l.03125.5625.08203.5078.125.44141.16406.375.1875.30079.21094.21875.22266.13671.22656.04688.22656-.04688.22266-.13671.21094-.21875.1914-.30079.16407-.375.125-.4414.08203-.50781.02734-.5625-.02734-.5625-.08203-.5-.125-.4336-.16407-.36719-.1914-.29296-.21094-.21485-.22266-.1289-.22656-.04688-.22656.04688-.22266.1289-.21094.21485-.1875.29296-.16406.3672-.125.43358-.08203.5-.03125.5625h-.83203l.03906-.58984.10938-.58203.17969-.54688.24609-.49218.30078-.41797.17188-.17578.18359-.15235.19531-.11718.21094-.08985.21875-.0586.22656-.01952m5.09375 0h.50781v6.29687h-.78515v-4.48828h-1.39063v-.5586l.5586-.0625.2539-.05468.23047-.08984.20313-.14063.17187-.21094.14453-.29296.10547-.39844m2.82031 2.17578h.78907l.01953-.3164.0586-.28516.10155-.25391.13672-.21484.1836-.17188.22265-.1289.26563-.08204.3086-.02734.23827.02344.22266.0625.20312.10156.1797.13672.14843.17578.11328.20313.07031.23828.02735.26171-.02344.26954-.0664.22656-.10938.1914-.15625.17188-.19922.16016-.2461.16796-.63671.38672-.53516.3125-.4375.31641-.34766.32422-.26171.33594-.19141.35156-.125.3711-.07031.39452-.01954.41797h4.21094v-.74219h-3.33203l.08203-.28125.11328-.23828.14844-.20312.1875-.17969.23047-.17187.28125-.17579.71484-.41406.41797-.20703.34375-.23047.28125-.25.21875-.26953.16406-.27734.11329-.28125.0625-.28516.01953-.28125-.04297-.38281-.11719-.35156-.1914-.3047-.25-.26562-.30079-.21093-.34765-.16016-.3789-.09766-.40626-.03515-.4375.03515-.39844.09766-.35156.16797-.30469.23437-.25.3047-.1875.37108-.11328.44922-.04297.51563"/></g></defs><use xlink:href="#aq"/></svg>