<svg xmlns="http://www.w3.org/2000/svg" role="img" xmlns:xlink="http://www.w3.org/1999/xlink" viewBox="142.45 309.95 326.84 171.84"><defs><clipPath id="a"><path d="M144 311.67188h1v168.65625h-1zm0 0"/></clipPath><clipPath id="b"><path d="M144 311.67188h324v168.65625H144zm0 0"/></clipPath><clipPath id="c"><path d="M388 476h9v4.32813h-9zm0 0"/></clipPath><clipPath id="d"><path d="M390 478h5v2.32813h-5zm0 0"/></clipPath><clipPath id="e"><path d="M467 311.67188h1V473h-1zm0 0"/></clipPath><clipPath id="f"><path d="M144 479h4v1.32813h-4zm0 0"/></clipPath><clipPath id="g"><path d="M147 480h2v.32813h-2zm0 0"/></clipPath><clipPath id="h"><path d="M146 480h2v.32813h-2zm0 0"/></clipPath><clipPath id="i"><path d="M153 479h9v1.32813h-9zm0 0"/></clipPath><clipPath id="j"><path d="M160 480h2v.32813h-2zm0 0"/></clipPath><clipPath id="k"><path d="M159 480h2v.32813h-2zm0 0"/></clipPath><clipPath id="l"><path d="M166 479h9v1.32813h-9zm0 0"/></clipPath><clipPath id="m"><path d="M173 480h3v.32813h-3zm0 0"/></clipPath><clipPath id="n"><path d="M172 480h2v.32813h-2zm0 0"/></clipPath><clipPath id="o"><path d="M180 479h8v1.32813h-8zm0 0"/></clipPath><clipPath id="p"><path d="M187 480h2v.32813h-2zm0 0"/></clipPath><clipPath id="q"><path d="M193 479h8v1.32813h-8zm0 0"/></clipPath><clipPath id="r"><path d="M200 480h2v.32813h-2zm0 0"/></clipPath><clipPath id="s"><path d="M206 479h9v1.32813h-9zm0 0"/></clipPath><clipPath id="t"><path d="M213 480h3v.32813h-3zm0 0"/></clipPath><clipPath id="u"><path d="M220 479h8v1.32813h-8zm0 0"/></clipPath><clipPath id="v"><path d="M227 480h2v.32813h-2zm0 0"/></clipPath><clipPath id="w"><path d="M233 479h8v1.32813h-8zm0 0"/></clipPath><clipPath id="x"><path d="M239 480h2v.32813h-2zm0 0"/></clipPath><clipPath id="y"><path d="M246 478h9v2.32813h-9zm0 0"/></clipPath><clipPath id="z"><path d="M260 478h8v2.32813h-8zm0 0"/></clipPath><clipPath id="A"><path d="M273 478h8v2.32813h-8zm0 0"/></clipPath><clipPath id="B"><path d="M287 478h7v2.32813h-7zm0 0"/></clipPath><clipPath id="C"><path d="M300 477h7v3.32813h-7zm0 0"/></clipPath><clipPath id="D"><path d="M314 477h6v3.32813h-6zm0 0"/></clipPath><clipPath id="E"><path d="M327 477h6v3.32813h-6zm0 0"/></clipPath><clipPath id="F"><path d="M341 476h5v4.32813h-5zm0 0"/></clipPath><clipPath id="G"><path d="M355 477h5v3.32813h-5zm0 0"/></clipPath><clipPath id="H"><path d="M369 476h3v4.32813h-3zm0 0"/></clipPath><clipPath id="I"><path d="M382 476h3v4.32813h-3zm0 0"/></clipPath><clipPath id="J"><path d="M393 479h8v1.32813h-8zm0 0"/></clipPath><clipPath id="K"><path d="M393 479h2v1.32813h-2zm0 0"/></clipPath><clipPath id="L"><path d="M406 479h8v1.32813h-8zm0 0"/></clipPath><clipPath id="M"><path d="M407 478h2v2.32813h-2zm0 0"/></clipPath><clipPath id="N"><path d="M421 477h5v3.32813h-5zm0 0"/></clipPath><clipPath id="O"><path d="M433 478h8v2.32813h-8zm0 0"/></clipPath><clipPath id="P"><path d="M431 479h3v1.32813h-3zm0 0"/></clipPath><clipPath id="Q"><path d="M447 477h6v3.32813h-6zm0 0"/></clipPath><clipPath id="R"><path d="M462 476h3v4.32813h-3zm0 0"/></clipPath><clipPath id="S"><path d="M144 466h4v2h-4zm0 0"/></clipPath><clipPath id="T"><path d="M144 453h4v1h-4zm0 0"/></clipPath><clipPath id="U"><path d="M144 439h4v3h-4zm0 0"/></clipPath><clipPath id="V"><path d="M144 425h4v4h-4zm0 0"/></clipPath><clipPath id="W"><path d="M144 411h3v6h-3zm0 0"/></clipPath><clipPath id="X"><path d="M144 397h3v7h-3zm0 0"/></clipPath><clipPath id="Y"><path d="M144 385h4v4h-4zm0 0"/></clipPath><clipPath id="Z"><path d="M144 372h4v4h-4zm0 0"/></clipPath><clipPath id="aa"><path d="M144 358h4v5h-4zm0 0"/></clipPath><clipPath id="ab"><path d="M144 344h3v7h-3zm0 0"/></clipPath><clipPath id="ac"><path d="M144 330h2v8h-2zm0 0"/></clipPath><clipPath id="ad"><path d="M144 328h1v3h-1zm0 0"/></clipPath><clipPath id="ae"><path d="M144 318h4v5h-4zm0 0"/></clipPath><g id="af" clip-path="url(#clip1)"><path fill="#fff" fill-opacity="0" fill-rule="evenodd" d="M0 0h1000v1000H0zm0 0"/><path fill="#d3d3d3" fill-opacity="0" fill-rule="evenodd" d="M162.15234 355.86719l-.23437.29297.0586.23437.11718.17188.17578.23437.29297.34766.11328.0586.11719-.17188.0586-.23438.17577-.17578.46485-.17578h.69922l.23437.29297.28906.8164.0586.17579.17578.23046.35156.23438.69922.69922.17188.17578.23437.34765.23438.41016.28906.58203.41015.46485.23047.23437.23438.17578.11719.23047.17578.29297.17187 1.16406v.23438l.0586.28906.05859.11719.11719.11719.34765.41015.11719.17188.17578.17578.17578.23437.11719.17188.17188.35156.05859.23438.23437.40625.23438-.0586-.17578.17578-.0586.92969h-.58203l-.23437-.11328-.34766.11328-.11719.11719-.05859.29297-.0586.17578-.11718.17187-.46484.29297-.0586.23438-.0586.11328v.64453l.0586.17187v.41016l.0586.0586v.40624l.05859.40625.11719.17579.05859.05859.23047.64062-.0586.29297v.69922l-.05859.58203v.23438l-.0586.23047-.05468.35156v1.92187l.05469.1172h.42578l-.36719.11718-.02344.35156.89063 1.16797 1.74219.53906 1.33984.35938v.53906l.08984.8086.53516.71484 1.51953.26953.89063-.08594.08984 1.16406.53516.1797 1.16015-.1797 2.05469-.98437 1.16016-.36328 1.8789-.17578 1.69531-.1797-.17968.71876-1.51563.08594-1.25.08984-.80469.26953-1.07421.8086.26953.71875.53515.89843-.17968.625-.26563.8086.26563 1.07812.625.89844.80468.17969 1.25-.1797-.26562.72267.09766.5039.05468.29297v.17188l.0586.29296v.40625l.17578.1172.35156.11718h.40625l.29297-.17578.11328-.11719.0586-.11719.11718-.23047.0586-.17578.35156-.46484.23047-.17578.17578-.0586.17578.0586.0586.17578.11718.98828.05469.46875.0586.17188.11718.23437.17578.0586.8164.05859h.28907l.11719.23437.05859.40625.0586.35156v1.10547l.11718.29297.11719.34766.28906.69922.17578.35156.58203.7539.35157.17579.17187.0586.46875.23437.64063.46484.34765.23438.29297.17578.29297.05468.23047.0625.8164.34766.29297.17578.11328.17188.35157.35156.11719.17578.52343.64063v.28906l.0586.35156v.34766l.05859.35156.0586.28906.11718.0586.17188.05859h.17578l.58203.23437.17578.1172.17578.28905.17578.23438.11328.23437.29297.23047.11719.11719v.41016l.0586.05468.28906.23438.23437.11719.0586.11718.11718.17188.0586.11719.23047.23437.05859.17578.23437.0586.1172.05859-.1172.11328-.05859.11719v.11719l-.11719.29296-.11719.28907v.58203l.17579.11719.11718.05859.0586.11719.11719.11719.11328.05859.17578.34765.0586.35157.05858.40625v.17578l-.05859.17578-.11719.69922v.17187l.1172.17579.29296.29296h.40625l.17578.1172.11719.17187.11719.29296v.23438h-.52735l-.23047-.23438h-.23437l-.17578.0586-.0586.69922.0586.34765.11719.17579.17578.41015.11718.23047.28907.46875.17578.05469h.52344l.23437.0586.75781.64062.0586.29296v.23438l.05859.0586.23047.34765v.35156l-.11719.17188v.29297l.29297.28906.29297.17578.17187.0586.29297.17577.29297.1172.58203.40624.28906.23438.29297.17578.21875.16015.01563.01172.23047.17579.64062.52343.17578.23438.1172.17578.17577.17578.11328.17188v.64062l.1172.17578.46874.11719.58203.11719.23438.05859.23047.11328.29297.11719.11328.0586.58593.35156.28907.17187.17578.0625.17578.05469.17578.0586.69922.35155.28906.17579.23438.05468.28906.17578.23437.1172.64063.40624.29297.11719.17187.0586.23438.05859.41015.05859.23047.0586.23438.11718.0586.17188-.41017.17578.46875.0586.0586.29296.11328.23438.17578.05468.23438.0586.17578.05859.40625.11719.64062.23437.11719.17188.0586.23437v.17578l-.0586.1172-.0586.40624.23438.23438.11719.05859.34766.11719.64062.23047.17578.11718.28906.1172.17578.17577.23438.46485.58203 1.10546.17578.17579.34766.17578.17578.11719.35156.11718 1.04688.52344.23437.0586.46485.11327.29297.0586.46484.17578.75781.58203.23438.23438.34765.46484.17578.17578.28907.23438.8164.69921.29297.17579.28906.28906.29297.17578.29297.28906.69531.64063.17578.17578.29297.23437.28907.23438.46875.28906.64062.58203.34766.23438.23437.29297.34766.34765.35156.46485.9336.99218.34765.40625.11719.17579.23437.05859.11328.11719.64454.17578.23047.11328.23437.0586.29297.17577.23047.1172.9336.69921.40624.40625.23438.17578.40625.17578.23437.11719.8164.34766.34766.23437.23438.11719.29297.28906.23047.11719.7578.35156.35157.17188.23047.05859.29297.11719.23437.0586.8711.17577h.8164l.46875.23047.17188.0586.875.69921.46484.1172.29297.05858.17578.0586.23047.0586.46875.05859.34766.05859.35156.0586.40625.05859h.29297l.17187.0586v.23046l.17578.17578h.29297l.34766.0586.35156.05859.69922.11719h.64063l.46484-.23438.29297-.17578.17187-.11719.41016-.17187.28906-.17578.9336-.46485.46875-.29297.52343-.29296.46485-.17188.46484-.17578 1.05078-.46485.28906-.11718.41016-.11719.28906-.11719.52735-.17578 1.51562-.69922.58203-.34765.28907-.0586.29297-.0586.34765-.11718.875-.23047.35156-.11719h.11329l.23437-.05859.875-.23437.23438-.0586h.8125l.35156-.0586.8164-.11718.17188-.0586.35156-.05468.29297-.0586.23047-.05859.8164-.17578.17579-.0586h.34765l.23438-.05859.46484-.11718.75781-.17188.23438-.0586h.34765l.41016-.11718.28906-.0586 1.28516-.05859h.28906l.41016-.0586.23047-.05858h.17578l.875-.1172h.40625l.41015-.11718h.34766l.35156-.11328.8711-.0586h1.75l1.04687.28907.41016.11719.28906.11718.35156.11719.28907.11719 1.05078.17187.28906.0586h.29297l.29297.05859.17187.0586.41016.05859.17187.0586.1172.05858h.11718l.11719.0586.35156.0586h.11328l.41016.0664 1.92187.39453 1.92578.39453 1.51953.44922 1.69532.71875 2.14453.80469 1.60547-.71875 1.42968-.80469 1.16016-1.07813 1.25-.44921 3.03516-.71875 1.875-.35938 2.14453-1.34765 2.23437-1.25391 2.5-1.25781 1.69531-.44922 1.78516-.17969 1.16016-.26953.625.53906 1.33984-.26953.71485-.98828.98437-1.34375.44531-.17969.80469-.35937 1.875-.53907 1.78516-.44921 1.25-.26954 1.16015-.08984 1.69922-.08984 1.96094-.26954 1.25-.08984h.53906l.625-.08984h.89063l2.14453-.17969 2.41015-.17969 2.58985-.08984 1.69531.17969 1.60938.08984 1.42968.35938 1.16016.71875 1.875.98828 1.16015 1.52734.26563.71484.6289.08985.35548.89844.53515.53906.53516 1.52734 1.07422.35938h.53515l-.80469.53515.08985 1.70703.71484 2.69532.89063.80468.89453.98829.71484 1.2578 1.78516.53907 1.51953-.17969.35547 1.34375 1.60937-.80469.98047-.53906.26953.26953.31641-.21484.21875-.14453.80078.44922.44922-.35938h.35547l.53515-.26953.53907-.71875.53515-.26953.625-.98828 1.16016.44922.83984.3711 1.39454.61718 1.6953-.17969h1.60548l1.78515.08985.17969-1.70704.53516-1.34375.80468.26954.4922.84765.40233.40625-.08984.53906v.35938l.71485.44922.71093-.26953h1.42969l.35938.98828.4453 1.25781.71485 1.34375 1.25.6289 1.69531.62891.71485-.17969.17969-.53906.98046-.08984.44922.35937.08594 1.25782-.26563.6289-.53515.17969v.53906l.71484.98438.26563.53906.98437.98828.80078 1.07813-.26562.35937-.08985.89844-.625 2.33203-.35546 2.0664-.08985 1.79298-.17969.71875-.08984.53906v1.4375l-.98047 1.88281-.35937 1.70703-.53516.89844-.80469 1.16797-.26562.53906 2.05469 1.2539.08593.35938-.35546.53906-.08985-.17968v.80859l.08985 1.4375-.44532.71484-1.07422.09375-.26562.71485.53515.89844.8047.71875 1.16015.80859 1.33984.26953.44531.35938-.35546.44921-1.78907-.08984-1.25-.44922-.71484-.71875-.625-.08984-.17578 3.58984-.1875 1.3086h89.35937V311.70313h-55.26953v49.08203l.76172.125 3.28906.54296 2.02344 2.83594v2.7539l2.35156.33204 2.34766.33203h4.05078l-1.3789 4.16016-2.02344.70703-2.02344.70312-.54297.34375-2.59375 1.6172-.1875.11718-2.02344-2.07813-.73046-2.74218-2.67188-2.07813-1.375-3.5-.0664-.08203-1.95704-2.67188 2.75-1.41796v-49.08204H294.42187v91.41407l.1172.03125.1328.01172.07422.07421.10547.04688.08985.0586.08593.05859.08985.0586.29687.29687.0586.08984.03125.11719.02734.11719.01563.13671-.03125.1172-.0586.08983-.0586.08594-.04296.10547-.04688.10156-.02734.1211v.14453l.17578.26953.14844.14844.07422.08594.07422.07421.04296.10547.0625.08985.0586.08593.04297.10547.0586.08985.04687.10156.04296.10547.0586.08594.11719.17968.07421.07422.0625.08594.0586.08984.04297.10547.0586.08985.05858.08593.0625.08985.0586.08984.04297.10156.11719.17969.07421.07422.0586.08594.07422.07421.08984.0586.10547.04687h.14844l.1328-.01562.13282.01562.10156-.04687.07422-.07422.04688-.10156-.01563-.13281v-.14844l-.04687-.10547-.02735-.11719-.04687-.10156-.02735-.1211-.04296-.10156-.0625-.08984-.04297-.10156-.04297-.10547-.03125-.11719-.01563-.13281-.01171-.13672.08593-.0586.0586-.08593.12109-.03125.04297.10547.01562.1328v.1172l.0586.10156.0586.08984.08983.0586.14844.14843.0586.08985.04296.10547-.01171.10156.08593.0586.10547.04687.08594.0586.08984.05858.07422.07422-.11719.02735-.10546.04687-.08594.0586-.07422.07421-.0586.08985-.0625.08594-.02734.12109-.04687.10156-.04297.10547-.03125.11719-.01172.13281-.01563.13281v.14844l.02735.11719.04687.10547.04297.10156.0586.08984.07421.07422.08985.0586.07422.07421.08984.0586.0586.08984.04296.10547.04688.10156.11719.03125.1328.01563h.14845l.11718-.03125.10547.04297.04297.10547.04688.10156.02734.1211L299.5 410l.02734.11719.03125.1211.02735.11718.10547.04297.10156.04687.13281-.01562.14844.14844.0625.08593.07422.07422.07031.07422.08984.0625.10547.04297.10156.04297.1172.03125.13671.01562.11719-.03125.07422-.07422.02734-.11718-.01172-.13282-.03125-.12109-.02734-.11719.04297-.10547h.11719l.08984.0625.11719.02735h.14843l.13282.01562h.14843l.13282.01563.1328-.01563h.14845l.1328-.01562.13282-.01172.13672.01172.11719-.02735.13281-.01562.1914-.0586-.05859.17579-.01562.1328-.02735.1211-.01562.13281-.0586.08594-.1328.01563-.10548.04687-.10546.04297-.1172.03125-.11718.02735-.26563.03125h-.14843l-.13281.01562-.07422.07422.05859.08594.14844.14843.11719.1797.07421.0703.08985.0625.08984.0586.08594.0586.08984.05858.10156.04297.10547.0625.10547.04297.08594.0586.10547.04687.10156.04297.17969.11719.0586.08984-.04298.10156-.04687.10547.01562.13281.22266.22266.0586.08985.04296.10156.03125.1211.04297.10155.01563.13282.03125.11718.01171.13672.03125.11719.14844.14844.10156.04297.10547.04296.1172.03125.1328.01563.13672.01563h.11719l.11719-.03125.08984-.0586.04297-.10547.04688-.10156.04296-.10547.03125-.11719.01172-.1328v-.14845l-.01172-.1328-.01562-.13282-.03125-.11719-.04297-.10547-.04688-.10547-.04296-.10156-.04297-.10547-.01563-.13281.01563-.13281.02734-.11719.03125-.11719.02735-.1211.04687-.10155.08984-.0586.08594-.0625.07422-.07422.08984-.05859.22266-.22266.0586-.08593.07421-.07422.11719-.17969.0586-.08594v-.14844l-.07423-.07421-.10156-.04688-.10547-.04297-.10156-.04297-.0586-.08984-.04687-.10547-.02734-.11719.08984-.05859.11719-.03125.10156-.04297.17969-.11719.14844-.14843.01172-.13282-.01172-.10546-.08985-.0586-.1328.01563h-.14845l-.1328.01562-.13282-.01562-.1211-.03125-.08593-.0586-.07422-.07422-.0586-.08984-.0625-.08594-.11718-.17969-.0586-.08593.03125-.1211.08594-.05859.1211-.03125.05859-.08594v-.1211l-.03125-.11718-.0586-.08984-.05859-.08594-.04687-.10547-.02735-.11719-.01562-.1328.0586-.08985.07421-.07422.08984-.0586.1172-.17968.07421-.07422.0586-.08594.14843-.14844.1211-.03125.1328-.01562.13282.01562.07422.07422.04297.10547.01562.13281-.03125.1172-.11719.03124-.1328.01172-.14844.14844-.04297.10547-.04688.10156-.02734.1211-.03125.11718v.14844l.03125.11719.04297.10546.05859.08985.07422.07031.07422.07422.11719.03125.12109.02734.11719-.02734.1328-.01563h.1172l.08984.0586.07422.07422.04687.10546.0586.08594.10156.04688.13281.01562.10547.04297.08594.0586-.01172.10546-.07422.07422-.17969.11719-.05859.08984-.08984.0586-.07032.07422-.07421.07421-.0625.08985-.02735.11719-.01562.1328.01562.13282-.01562.13281v.14844l.01562.13281.02735.1172.03125.12108.07421.07422.08985.0586.08594.0586.08984.05858.11719.03125v.08594l-.10157.04688-.08984.0586-.26563.03124-.11718.02735h-.14844l-.10547.04296-.10156.04688-.0586.08984-.0625.23438-.01171.13281-.03125.1211-.01563.1328v.29298l-.01172.1328.01172.13673.01563.1328.1328.01563.13282.01172.1211.03125.08593.0586.07422.07421.04688.10547.04296.10157.01563.1328v.44532l-.01563.13281v.44532l.03125.26562.02735.11719.01562.13281.03125.11719.08594.21094.03125.26562v.14844l-.03125.11719-.02734.11718-.03125.1211-.02735.11719-.03125.11718-.03125.1211-.01171.1328-.01563.13282.08984.0586.1172-.03125.10155.01562.04688.10547-.03125.26562v.44141l-.04297.10547-.04688.10547-.04296.10156-.04297.10547-.0586.08594-.03125.12109-.04296.11719-.03125.11719-.01563.1328.01563.13282.05859.08984.10547.04688.08594.0586.05859.08593-.01172.13672-.03125.11719-.04297.10156v.44531l-.01562.13281v.14844l-.03125.11719-.04297.10547-.02735.11719-.04687.10546-.04297.10157-.03125.12109-.02734.11719-.03125.13281-.03125.11719-.02735.11719-.04297.10546-.03125.1172-.03125.12108-.01171.13282-.01563.13281v.29688l.02734.11718v.14844l.04688.39844.02734.11719.0586.08984.12109.03125h.14844l.13281-.01563.0586.08985v.11719l-.0586.08984-.08984.0586-.10157.04296-.10546.04688-.08985.05859-.08594.0586-.13671.01562-.1172-.03125-.1328-.01563-.10157.04688-.0625.08594-.01172.13671-.01562.13282-.03125.11719-.02735.11718-.01562.13281-.03125.1211v.29687l.01563.13282.03125.11718v.14844l.01171.13281v.14844l-.02734.11719-.04688.10156-.02734.1211-.03125.11718-.0586.08985-.07421.07421-.10156.04297-.10547.04688-.11719.02734-.1211.03125-.10156-.04687.0586-.08594.10547-.04688.02734-.11718.03125-.11719.02734-.1211.03125-.11718v-.14844l.01563-.13281-.03125-.11719-.04297-.10547-.10547.01563-.07422.07422-.10156.04296-.08984.0625-.07422.07422-.04297.10157-.01563.1328-.03125.1172L304.25 426l-.03125.11719-.02734.11719-.03125.12109-.02735.11719-.03125.11718-.04297.10547-.08984.0586h-.08984l-.1172-.03125-.03124-.08594.01562-.13672-.03125-.11719v-.14844l-.01171-.1328v-.14844l-.0625-.23438-.02735-.1211-.04297-.10156-.04687-.10546-.0586-.08594-.05859-.08985-.04297-.10546-.0625-.08594-.14844-.14844-.0703-.07422-.10548-.04687-.10547-.04297-.10156-.04297-.29687-.29688-.08985-.07421-.08594-.0586-.10546-.04297-.08985-.0625-.08594-.0586-.10546-.04296-.08985-.0586-.08594-.0625-.07421-.0703-.10547-.04688-.08594-.0586-.10547-.04296-.08984-.0625-.10156-.04297-.10547-.04297-.08594-.0586-.10547-.04687-.10547-.04297-.10156-.04687-.08985-.0586-.10156-.04297-.10547-.04296-.08984-.0625-.11719-.02735-.13281-.01562-.13281.01562H299.75l-.13281.01563-.11719-.03125-.08984-.0586-.07422-.07422-.08985-.05859-.10156-.04688h-.14844l-.12109-.02734-.10156-.04297-.07422-.07422-.11719-.17968-.08984-.0586-.10156-.04297-.08985-.0625-.10547-.04296-.08984-.0586-.08594-.0586-.10547-.04687-.0586-.08594-.05858-.08984-.04297-.10547-.04688-.10156-.07422-.07422-.08594-.0586-.07421-.07421-.08985-.0586-.22265-.22265-.04297-.10547-.03125-.26563.10547-.04296h.14453l.10547.04296.07421.07422.08985.0586.08594.0586.10546.04687.08985.05859.14844.14844.0703.07422.14845.14843.0625.08594.07421.07422.08594.0586.07422.07421.08985.0625.08984.0586.08594.05859.26953.17578.10156.04688.10547.04296.10156.04297.04688-.07421.05859-.08594.07422-.07422.07031-.07422.10547.04297.07422.07422.0586.08984.04296.10156.04688.10547.04296.10547.1211.02735.11719-.02735.07421-.08984.04297-.10547.0586-.08985.07422-.07421.10546-.04297.1172-.02735.1328.01172.08985.0586.14844.14843.05859.08985.04297.10547.04687.10156.04297.10547.04297.10156.10547.04688.10547.04296.13281.01563.08594-.0586.0586-.08984.07421-.07422.10547-.04297.11719.02735.10547.04687.10156.04297.10547.04297.10156.04688.17969.11718v.11719l-.01563.13281.01563.13281.01562.13672.0586.08594.10156.04688.1211.02734.11718.03125h.14844l.11719-.03125.05859-.08984.17969-.1172.05859-.08983.07422-.07422.0586-.08594.11718-.17969.17969-.11719.11719.03125.08984.0586.04297.07422-.01563.1328v.1172l.08985.05859h.14843l.13282-.01563.1328-.01171.26563-.03125.10547-.04297.11719-.03125.1211-.02735.07421-.07421.07031-.07422.0625-.08985-.01562-.10547-.04688-.10156-.10156-.04297-.10547-.01562-.11718.02734-.26563.03125h-.14844l-.07421-.07422-.08985-.0586-.11719-.03124-.11718-.02735-.13282-.01562h-.14843l-.13282.01563h-.29687l-.10547-.04688-.14844-.14844-.04297-.10156-.05859-.08984.22266-.22266.08593-.0586.10547-.04296.11719-.03125.13281-.01563.13281.01563.13672.01562.10157.04297.1328-.01172.08985-.0625.10156-.04297.0625-.08984-.04687-.10156-.08984-.0586-.1172-.03125-.10155-.04296-.0586-.08985-.0625-.08984v-.11719l.01563-.13281.10547-.04688.07421-.07031v-.1211l-.08984-.05859-.03125-.11719.08985-.05859.07421-.07422.04297-.10547.0586-.08984.04687-.10156.01563-.13281v-.14844l-.04688-.10547-.04297-.10156-.08984-.0586-.13281-.01562-.10157-.04297-.13671-.01563-.1172-.03125h-.4453l-.13282-.01562-.13281-.01172-.13281-.01563-.11719-.03125h-.14844l-.13281-.01562-.13281-.01172-.26563-.03125-.1211-.04297-.08593-.0586-.07422-.07421v-.14844l.01172-.13281.10547-.04688.10156-.04296.13281-.01563h.15235l.13281-.01562h.29297l.1211.03125.10156.04296.08984.0586.23438.0625.12109-.04688.08984-.05859.10156-.04297.13282-.01562.10547.04296.10156.04688.13281.01172.1211-.02735h.14453l.12109-.03125.11719-.02734.10547-.04687.07421-.07422.08594-.0586.14844-.14843.0586-.08594.04687-.10547.02734-.11719.01563-.10547-.10156-.04296-.08985-.0586-.11719-.03125-.10546-.04297-.08985-.0625-.07422-.08594-.07422-.07421-.10156-.04297-.10547-.04688-.10156-.04297-.0586-.08984-.04687-.10156-.08594-.21094-.0625-.08594-.05859-.08984-.07422-.07422-.08594-.0586h-.26953l-.11719.03126-.08984.05859-.10156.04297-.13281.01562-.10547-.01562-.02735-.11719-.0625-.08984-.11718-.03125-.10157-.04297-.14843-.14844-.03125-.11719-.01563-.10546.07422-.07422.17969-.1172.11719-.02733.11718-.03125.13672.01562.10156.04297.10547.04297.10156.04687.10547.04297.1172.03125.1328.01563.1172.02734.1328.01563.10547-.01563.08985-.0586-.07422-.07421-.10547-.04297-.07422-.07422-.07422-.08984-.14844-.14844-.08593-.0586-.08985-.05859-.07422-.07422-.08984-.0586-.10156-.04687-.1211-.02734-.10156-.04688-.10547-.04296-.11719-.03125-.10156-.04297-.1211-.03125h-.14843l-.11719.03125-.10546.04297-.08594.0625-.17969.11718-.08594.0586-.08984.0586-.10547.04687-.08594.05859-.10547.04297-.10156.04297-.10547.04687-.07422.07422-.05859.08985-.0586.08593-.04687.10547-.0586.08594-.07421.07422-.13281-.01172-.1172-.03125h-.11718l-.07422.07422-.08984.0586-.07422.07421-.08984.0586-.08594.05859-.10547.04687-.10156.04297-.13672.01563-.10156-.04297-.14844-.14844-.10547-.04688h-.08594l-.10547.04688-.10156.04297-.1211.03125-.11718-.03125-.07422-.07422v-.11719l.03125-.1211.07422-.0703.0586-.08985.07421-.07422.11719-.03125.10547-.04296h.29297l.13281-.01563.13672-.01563.10156-.04296.08985-.0586.10156-.04687.08984-.0586.13281-.01171.08985.05859.13281.01172.08984-.0586.08594-.05859.10547-.04297.08984-.0586.08594-.0625.08985-.05859.14843-.14843.0586-.08594.05859-.08985.10547-.04296.13281-.01563.11719.02735.1211.03125.05859-.0586.05859-.08984.03125-.26563.02734-.11719.10547.01172.13281.01563.10157-.04297.08984-.0586.0586-.08984.07421-.07422.0586-.08984.04687-.10156.01172-.13281-.01172-.13282-.04687-.10547-.14844-.14843-.0586-.08985-.05859-.08594-.04297-.10546v-.44532l.01563-.1328v-.14845l.01172-.1328-.0586-.0586-.08984.0586-.10156-.04298-.17969-.11719-.08594-.05859-.0625-.08984-.0586-.08985-.07421-.07421-.08594-.0586-.1211.03125-.10155.01172-.10547.04688-.08594.05859-.10547.04297-.14844.14844-.08984.05859-.08594.0586-.08984.0625-.10547.04296-.13281.01563v-.1211l.10547-.04297.11718-.03125.07422-.0703.04297-.10548v-.14844l-.02734-.11718-.14844-.14844-.13281-.01563h-.14844l-.11719.03125-.10547.04297-.10156.04297-.08984.0625-.11719.02735-.07422-.07422.01172-.13281-.04297-.10157-.04297-.10547-.08984-.05859-.11719.02734-.1211.03125-.11718.03125-.10156.04297-.1211.03125-.10156.04297-.10547.04297-.08984.0586-.10156.01562v-.11719l.01562-.13281-.0586-.08985-.07421.04297-.14844.14844-.0586.08985-.07421.07421-.04688.10547-.04296.10156-.07422.07422-.0586.08985-.07422.07422-.05859.08593-.07422.07422-.08984.0625-.07422.07031-.07422.07422-.10156.01563-.13281.01562-.10547-.04296v-.1211l.14843-.14844.04297-.10156.0586-.08984.04687-.10156.04297-.10547.0586-.08985.03124-.11719.04297-.10156.03125-.1211.02735-.11718.04687-.10547.04297-.10156.04297-.10547.07422-.07031.08984-.0625.08985-.0586.10156-.04296h.29687l.26563-.03125.10547-.04297-.07422-.07422-.11719-.03125-.10547-.04297-.08984-.0586-.10156-.04687-.08985-.0586-.10156-.04296-.10547-.04297-.08984-.0625-.08594-.0586-.10547-.04296-.10156-.04297-.1211-.03125-.11718-.03125-.10157-.04297L297.5 410.25l-.10156-.04297-.08985-.0586-.04296-.10546-.01563-.13281.10156-.04297.13281-.01563.13672.01563.13282-.01563.10156-.04297.0586-.08984.01562-.10547-.08985-.0586-.07421-.07421-.10157-.04297-.08984-.0586-.14844-.14843-.04297-.10547-.01562-.13281v-.29297l-.0586-.08985-.08984-.05859-.07422-.07422-.04297-.10547-.03125-.11718-.0586-.08985-.07421-.07422-.11719-.02734-.07422-.07422-.08984-.0586-.08984-.0625-.08594-.05859-.07422-.07421-.0586-.08594-.04687-.10547-.08594-.0586-.14843-.14843-.19532-.0586-.1328.01563-.10157.04297-.07422.07422-.04688.10156-.04296.10547-.0586.08984-.0586.08594-.29687.29687-.08984.0586h-.08594l-.0625-.08594-.04297-.10547.03125-.11719.0586-.08984.02734-.11719-.01172-.13281-.08984-.0625-.10547.04688-.11719.02734-.11719.03125-.26953.17578-.10156.04688-.11719.02734-.10546.04687-.08985.0586-.10156.04297-.0586-.08594-.04687-.10547.01563-.13281.04687-.10547.07031-.07422.07422-.07031.0586-.08985v-.14843l-.04297-.10547h-.23829l-.10156.04687-.03125.11719-.02734.11719-.03125.1211-.07422.04296-.13281.01563-.07422-.04688-.04297-.10156-.04297-.10547-.04687-.10156-.04297-.10547-.1211.03125-.10156.04297-.13281.01562-.11719.03125-.10547.04297-.08984.0586-.10156.04687-.1211.02734-.13281.01563-.10156-.04297-.0586-.08985-.04687-.10546-.04297-.10157-.04297-.10546v-.1172l.0586-.08984.08593-.05859.17969-.11719.10156-.04687.10547-.04297.10547-.0586.10156-.04296.08985-.0625.10156-.04297.10547-.0586.10156-.04687.08984-.0586.10547-.04296.10156-.04297.08985-.0625.10156-.04297.13672-.01563.11719.03125.10156.04297.1211.03125.10156.04297.10546.04688.10157.04296.10547.04297.10156.04688.10547.04297.10156.04297.10547.04687.08594.0586.10546.04296.1172.03125.10546.04297.10156.04688.08985.0586.10547.04296.10156.04297.10547.04687.11719.02735.10156.04687.1211.02735h.14843l.08594-.0586.01562-.10156.0586-.08984-.02735-.1172-.07422-.07421-.11719-.17969-.07421-.07422-.08985-.07421-.17969-.1172-.08593-.05859-.10547-.04296-.10156-.04688-.26954-.17578-.05859-.08985-.07422-.07421-.0586-.08985-.04296-.10156-.03125-.11719-.01563-.13672v-.5625l-.01171-.1328-.01563-.13282-.03125-.11719-.01562-.13281-.01172-.13281-.03125-.1211-.22266-.22265-.0586-.08594-.01562-.10547.03125-.11719.13281-.01562v-91.41406H172.9922v1.45312l-.0586.23438-.35156 1.05078-.17187.52343-.1172.34766-.17577.41016-.11719.17187-.23438.29297-.23046.0586h-.35157l-.11718.05859-.23047.40625v.29297l.11719.17578.23046.23047.1172.23437.64062.75781.29297.46485.17578.23437.23047.35156.23437.34766.64063.8164.17578.46485.17187.41016.11719.69531.17578.46875.11719 1.39844.0586.46484v.875l.11718 1.04688v4.78125l-.0586.46484-.35156 1.28125-.17578.52344-.11328.41015-.35156.9297L172.93359 336l-.23437.58203-.11719.17578-.17187.34766-.17578.40625-.35157.8164-.0586.29297-.11327.29297-.11719.28906-.0586.17579-.11718.875-.0586.40625-.05859.11718-.0586.17579-.05859.17187-.23047.52734-.11718.17188v.23437l-.11719.23438-.0586.17187-.17577.58594v.28906l-.0586.17579v.29296l-.0586.11329-.05859.52734v.17187l-.05468.23438v2.6211l-.17578.8164-.1172.17578-.17577.23438-.1172.17187-.11327.23438-.58594.93359-.23047.28906-.29297.46485-.17578.23437-.28906.35156-.35156.69922-.11328.23047-.17579.41016-.17578.23046-.40625.52735-.8164.69922-.29297.17187-.28906.23438-.17579.11719-.17578.17578-.52344.40625-.52734.17578-.17187.17578-.23438.05469-.64062.17578h-.75782m12.21094 31.02344l-1.07422.44921.35938.89454 1.25-.71485.44531-.53906-.98047-.08985"/><path fill="#d3d3d3" fill-opacity="0" fill-rule="evenodd" d="M201.50781 416.59766h-.89453l.44922.6289.98047.35938.80469-.08985.4453-.98828-.17577.08985-.71485-.35547-.89453.35547m154.6211 59.0703l-.0586-.52343v-.29297l.11328-.29297.0586-.23046.46875-.46875h.11328l.11719-.11329.11718-.05859h.17579l.23437-.0586h.34766l.23437.0586.11719.0586.23047.17187.0586.17578.11718.58203v.29297l-.11719.17578-.17187.28906-.17579.17579-.52734.52343-.23047.23438-.11719.0586h-.17578l-.11718-.0586-.40625-.29297-.17579-.11719-.11718-.0586-.0586-.11327-.05468-.1172m6.64062-10.95702l-.0586-.17188v-1.10937l.0586-.17188.17578-.0586.17188-.05858h.17578l.23437-.0586.1172.0586.05858.69921-.05859.17188-.11719.17578-.11718.0586-.23438.52343-.11328.0586h-.23438l-.05859-.1172m9.61328-14.39062l-.11719-.17578v-.69922l.29297-.875.1172-.17187.17577-.35156.11328-.23047.1172-.29297.35155-.75781.1172-.23047.17187-.23438h.17578l.11719-.0586h.64062l.11719.0586.23437.23438.17188.11328.35156.29297.11719.11718.11328.17579v.11328l.11719.05859.11718.11719v.69922l-.05859.17578v.23047l-.0586.17578-.34765 1.05078-.11719.23047-.11719.23437-.11718.0586-.23047.23437-.64063.28906h-.875l-.41015-.11718-.64063-.46485"/><path fill="none" stroke="#bebebe" stroke-linecap="round" stroke-linejoin="round" stroke-miterlimit="10" stroke-width=".5" d="M467.95703 311.69531H144.02734v168.625h323.9297v-168.625"/><g clip-path="url(#a)"><path fill="#fff" fill-opacity="0" fill-rule="evenodd" d="M144 475.89063v4.4375h.0039H144V311.67188h.0039H144v164.21875"/></g><g clip-path="url(#b)"><path fill="#fff" fill-opacity="0" fill-rule="evenodd" d="M144.0039 480.32813V311.67188h4.4336v126.99609l-.77734 1.71484.77734.97656 3.42578-.97656-3.42578-1.71484v-126.9961h84.32813v111.91797l-4.4375 1.20313-3.3125 2.27734-1.125.76172-3.19141 3.67578-1.2461 2.8164-3.60156-2.8164-.83594-.29687-2.55859.29687-1.88281.20313-.53125-.20313-3.90625-1.35547-3.03125 1.35547-1.40625 1.97266-4.4375 2.08594-4.4414-3.08204-1.88673-.97656-2.55078-1.49219-4.4375-.70703-4.4375-.0078-4.4414.59765-4.4375.52344-4.4375-.3047-4.4375.94141-.59766.44922-3.08984 4.4375-.75 1.80469-3.76563 2.63281 3.27344 4.4375.49219 1.14453.39843 3.29688-.1914 4.4375 1.19922 4.4375 3.03125 2.84375 4.4375-2.28516 4.4375-.22265 1.60156-.33594 2.83594-.64453 4.4414.14844 3.34766.49609 1.08984.16797 4.4375.22265 1.03125-.39062 3.40625-2.23828 4.4414.58203 4.4375.4375 4.4375.13281 4.4375-1.11719 3.46095-2.23437.98047-.71485 4.4375-1.19921 4.4375-2.22657.3203-.29687 4.1172-3.16016 1.67968-1.28125 2.625-4.4375.13281-.01172.1875.01172 4.25391 1.33985 4.4375 2.28125 4.4375.33984 3.7539-3.96094-3.7539-3.83984-4.4375-.29688-.82812-.30078-3.60938-3.25781-2.36328-1.17969.70313-4.4375-2.78125-3.48047V311.67188h39.9453v118.85937l-4.4375.4375-.96093.53906.96094.3164 4.4375.3711 2.01562-.6875-2.01562-.97656V311.67187h102.08203v135.1211l-2.58985 2.46875 2.58985 2.22265 2.29297-2.22265-2.29297-2.46875v-135.1211h17.7539v138.84766l-3.86328 3.17969-.57421.07031-4.4375 3.57422-.41797.79297-2.54688 4.4375 1.44531 4.4414.14844 4.4375 1.3711 2.15625 3.3125-2.15625 1.125-.42968 3.98828-4.00781.44921-.1836 4.4375-3.26562 1.22266-.9922-1.22265-1.32421-.77344-3.11328-.48828-4.4375-3.17579-3.17969V311.67188h57.69922v150.17578l-.8164.72656.8164.67969.73829-.6797-.73829-.72655V311.67187h17.75v160.90625l-3.27343 3.3125 3.27343 3.3711v1.0664h-71.83593l-3.61329-3.6953-3.96484 3.6953H144.00391"/></g><path fill="#50fcfc" fill-rule="evenodd" d="M148.4375 441.35938l-.77734-.97657.77734-1.71484 3.42578 1.71484-3.42578.97656m8.38672 3.46094l-3.27344-4.4375 3.76563-2.63281.75-1.80469 3.08984-4.4375.59766-.44922 4.4375-.9414 4.4375.30469 4.4375-.52344 4.4414-.59766v4.46875l-4.4414.48828-4.14844 1.6875-.28906.14844-4.4375-.13672-4.4375.48828-3.41016 3.9375 1.3789 4.4375 1.48048 4.4414.20703 4.4375.34375 1.71485.83593-1.71484 3.25391-4.4375.34766-.17578 4.4375-1.52344 4.4375-1.01953 2.45703-1.72266 1.98437-.8125 4.4375-2.58203 1.35156-1.04297 1.4297-4.4375-2.78126-1.67187-4.4375-.5039v-4.46876l4.4375.00781 4.4375.70704 2.55078 1.49218 1.88672.97656 4.4414 3.08204 4.4375-2.08594 1.40626-1.97266 3.03125-1.35547 3.90625 1.35547.53125.20313 1.88281-.20313 2.5586-.29687v12.19922l-.57813 1.41015.57813.71485 1.46875-.71485-1.46875-1.41015v-12.19922l.83593.29687 3.60156 2.8164 1.2461-2.8164 3.1914-3.67578v7.96875l-.57421.14453.57422.13672.17968-.13672-.17969-.14453v-7.96875l1.125-.76172 3.3125-2.27734 4.4375-1.20313v9.08204l-3.46093 3.27343 3.46094 3.03906 3.8828-3.03906-3.8828-3.27344v-9.08203l2.78125 3.48047-.70313 4.4375 2.36328 1.17969 3.60938 3.25781.82812.30078 4.4375.29688v1.39062l-4.4375.23438-2.66016 2.21484 2.66016 1.9375 4.4375.58985 2.39453-2.52735-2.39453-2.44922v-1.39062l3.7539 3.83984-3.7539 3.96094-4.4375-.33984-4.4375-2.28125-4.2539-1.33985-.1875-.01172-.13282.01172-2.625 4.4375-1.67969 1.28125-4.11718 3.16016-.32031.29687-4.4375 2.22657-4.4375 1.19921-.98047.71485-3.46094 2.23437-4.4375 1.1172-4.4375-.13282-4.4375-.4375-4.4414-.58203-3.40626 2.23828-1.03125.39062-4.4375-.22265-1.08984-.16797-3.34766-.4961-4.4414-.14843-2.83594.64453-1.60156.33594-4.4375.22265-4.4375 2.28516-3.03125-2.84375-1.19922-4.4375.1914-4.4375-.39843-3.29688-.4922-1.14453"/><path fill="#00e8fc" fill-rule="evenodd" d="M159.72266 444.82031l-1.37891-4.4375 3.41016-3.9375v2.46875l-1.27344 1.46875 1.27344 2.38281 2.74218-2.3828-2.74218-1.46876v-2.46875l4.4375-.48828 4.4375.13672.28906-.14844 4.14844-1.6875 4.4414-.48828 4.4375.5039 2.78125 1.67188-1.42969 4.4375-1.35156 1.04297-4.4375 2.58203-1.98437.8125-2.45703 1.72266-4.4375 1.01953-4.4375 1.52344-.34766.17578-3.2539 4.4375-.83594 1.71484-.34375-1.71484-.20703-4.4375-1.48047-4.4414"/><path fill="#00d4fc" fill-rule="evenodd" d="M161.7539 442.76563l-1.27343-2.38282 1.27344-1.46875 2.74218 1.46875-2.74218 2.38281"/><path fill="#00e8fc" fill-rule="evenodd" d="M215.01563 445.53516l-.57813-.71485.57813-1.41015 1.46875 1.41015-1.46875.71485"/><path fill="#fff" fill-opacity="0" fill-rule="evenodd" d="M223.89063 435.80078l-.57422.14453.57422.13672.17968-.13672-.17969-.14453"/><path fill="#00e8fc" fill-rule="evenodd" d="M232.76563 438.98438l-3.46094-3.03907 3.46094-3.27344v2.48829l-.82813.78515.82813.72656.92968-.72656-.92969-.78515v-2.48829l3.88282 3.27344-3.88281 3.03906"/><path fill="#00d4fc" fill-rule="evenodd" d="M232.76563 436.67188l-.82813-.72657.82813-.78515.92968.78515-.92969.72656"/><path fill="#00e8fc" fill-rule="evenodd" d="M241.64453 442.32031l-2.66016-1.9375 2.66016-2.21484 4.4375-.23438v2.32032l-.67969.1289.6797.13281.125-.1328-.125-.12891v-2.32032l2.39452 2.44922-2.39453 2.52735-4.4375-.58985"/><path fill="#00d4fc" fill-rule="evenodd" d="M246.08203 440.51563l-.67969-.13282.6797-.1289.125.1289-.125.13281"/><path fill="#50fcfc" fill-rule="evenodd" d="M268.27344 431.82422l-.96094-.3164.96094-.53907 4.4375-.4375 2.01562.97656-2.01562.6875-4.4375-.3711m106.51953 19.66017l-2.58985-2.22266 2.58985-2.46875 2.29297 2.46875-2.29297 2.22265m7.35937 15.53125l-1.4453-4.4414 2.54687-4.4375.41796-.79297 4.4375-3.57422v.89453l-3.55859 3.47266-.8789 3.6836-.48829.7539.48829 1.01172 4.4375 3.32422 4.4375-1.78125 2.83593-2.5547L394 458.13672l-1.45313-2.59765-4.4375-.875v-.89453l.57422-.07031 3.86329-3.17969 3.17578 3.17969.48828 4.4375.77344 3.11328 1.22265 1.32422-1.22265.99219-4.4375 3.26562-.44922.1836-3.98829 4.0078-1.125.4297-3.3125 2.15625-1.37109-2.15625-.14844-4.4375"/><path fill="#00e8fc" fill-rule="evenodd" d="M383.67188 463.58594l-.48829-1.01172.48829-.7539.8789-3.6836 3.5586-3.47266v1.48828l-2.03125 1.98438.77734 4.4375 1.2539 1.11719 3.44922-1.1172-.39843-4.4375-3.05079-1.98437v-1.48828l4.4375.875L394 458.13672l1.38281 4.4375-2.83594 2.55469-4.4375 1.78125-4.4375-3.32422"/><path fill="#00d4fc" fill-rule="evenodd" d="M386.85547 462.57422l-.77735-4.4375 2.03125-1.98438v1.4922l-.5039.49218.5039 1.4961.76172-1.4961-.76171-.49219v-1.49219l3.05078 1.98438.39843 4.4375-3.44921 1.11719-1.25391-1.1172"/><path fill="#00c4fc" fill-rule="evenodd" d="M388.10938 459.63281l-.50391-1.4961.5039-.49218.76172.49219-.76171 1.4961"/><g clip-path="url(#c)"><path fill="#50fcfc" fill-rule="evenodd" d="M388.58203 480.32813H390.25l2.29688-2.14063 2.09375 2.14063h1.51953l-3.61329-3.69532-3.96484 3.69531"/></g><g clip-path="url(#d)"><path fill="#00e8fc" fill-rule="evenodd" d="M390.25 480.32813l2.29688-2.14063 2.09375 2.14063H390.25"/></g><path fill="#50fcfc" fill-rule="evenodd" d="M450.2461 463.2539l-.81641-.67968.8164-.72656.73829.72656-.73829.67969m17.75 16.0078l-3.27343-3.37108 3.27343-3.3125v1.78515l-1.5078 1.52735 1.5078 1.55468v1.8164"/><path fill="#00e8fc" fill-rule="evenodd" d="M467.9961 477.44531l-1.50782-1.55469 1.50781-1.52734v3.08203"/><path fill="#50fcfc" fill-rule="evenodd" d="M467.9961 477.44531v1.8164H468v-1.8125l-.0039-.0039"/><path fill="#00e8fc" fill-rule="evenodd" d="M467.9961 474.36328v3.08203l.0039.0039v-3.08983l-.0039.0039"/><path fill="#50fcfc" fill-rule="evenodd" d="M467.9961 472.57813v1.78515l.0039-.0039v-1.78516l-.0039.0039"/><g clip-path="url(#e)"><path fill="#fff" fill-opacity="0" fill-rule="evenodd" d="M467.9961 311.67188H468v160.90234-160.90235h-.0039"/></g><path fill="#fff" fill-opacity="0" fill-rule="evenodd" d="M231.51953 450.75781l3.88281-4.36328-7.4414-6.625-3.88281 4.36328 7.4414 6.625"/><path fill-rule="evenodd" d="M227.77344 442.73828l.33984-.3789 4.69922 4.18359-.52344.58984-3.35156-2.98437-.92188 1.03515-.41796-.36718.32422-.46485.1289-.22265.08594-.23047.02734-.2461-.03906-.26953-.125-.30078-.22656-.34375"/><g clip-path="url(#f)"><path fill="none" stroke="#000" stroke-linecap="round" stroke-linejoin="round" stroke-miterlimit="10" stroke-width=".5" d="M147.46094 480.9336l-6.92188-1.20704"/></g><g clip-path="url(#g)"><path fill="none" stroke="#000" stroke-linecap="round" stroke-linejoin="round" stroke-miterlimit="10" stroke-width=".5" d="M147.46094 480.9336l.76172 2.33202"/></g><g clip-path="url(#h)"><path fill="none" stroke="#000" stroke-linecap="round" stroke-linejoin="round" stroke-miterlimit="10" stroke-width=".5" d="M146.45313 480.75781l.3828 1.16406"/></g><g clip-path="url(#i)"><path fill="none" stroke="#000" stroke-linecap="round" stroke-linejoin="round" stroke-miterlimit="10" stroke-width=".5" d="M160.78125 480.91016l-6.92969-1.16407"/></g><g clip-path="url(#j)"><path fill="none" stroke="#000" stroke-linecap="round" stroke-linejoin="round" stroke-miterlimit="10" stroke-width=".5" d="M160.78125 480.91016l.77344 2.32812"/></g><g clip-path="url(#k)"><path fill="none" stroke="#000" stroke-linecap="round" stroke-linejoin="round" stroke-miterlimit="10" stroke-width=".5" d="M159.77344 480.74219l.38672 1.16406"/></g><g clip-path="url(#l)"><path fill="none" stroke="#000" stroke-linecap="round" stroke-linejoin="round" stroke-miterlimit="10" stroke-width=".5" d="M174.1211 480.73828l-6.98048-.82031"/></g><g clip-path="url(#m)"><path fill="none" stroke="#000" stroke-linecap="round" stroke-linejoin="round" stroke-miterlimit="10" stroke-width=".5" d="M174.1211 480.73828l.89062 2.28906"/></g><g clip-path="url(#n)"><path fill="none" stroke="#000" stroke-linecap="round" stroke-linejoin="round" stroke-miterlimit="10" stroke-width=".5" d="M173.10547 480.6211l.44531 1.14062"/></g><g clip-path="url(#o)"><path fill="none" stroke="#000" stroke-linecap="round" stroke-linejoin="round" stroke-miterlimit="10" stroke-width=".5" d="M187.44531 480.64453l-7-.63281"/></g><g clip-path="url(#p)"><path fill="none" stroke="#000" stroke-linecap="round" stroke-linejoin="round" stroke-miterlimit="10" stroke-width=".5" d="M187.44531 480.64453l.95313 2.26172"/></g><g clip-path="url(#q)"><path fill="none" stroke="#000" stroke-linecap="round" stroke-linejoin="round" stroke-miterlimit="10" stroke-width=".5" d="M200.72656 480.90234l-6.9336-1.14843"/></g><g clip-path="url(#r)"><path fill="none" stroke="#000" stroke-linecap="round" stroke-linejoin="round" stroke-miterlimit="10" stroke-width=".5" d="M200.72656 480.90234l.78125 2.32813"/></g><g clip-path="url(#s)"><path fill="none" stroke="#000" stroke-linecap="round" stroke-linejoin="round" stroke-miterlimit="10" stroke-width=".5" d="M214.0625 480.7539l-6.97656-.85156"/></g><g clip-path="url(#t)"><path fill="none" stroke="#000" stroke-linecap="round" stroke-linejoin="round" stroke-miterlimit="10" stroke-width=".5" d="M214.0625 480.7539l.88281 2.28907"/></g><g clip-path="url(#u)"><path fill="none" stroke="#000" stroke-linecap="round" stroke-linejoin="round" stroke-miterlimit="10" stroke-width=".5" d="M227.38281 480.69531l-6.98828-.73437"/></g><g clip-path="url(#v)"><path fill="none" stroke="#000" stroke-linecap="round" stroke-linejoin="round" stroke-miterlimit="10" stroke-width=".5" d="M227.38281 480.69531l.92188 2.27735"/></g><g clip-path="url(#w)"><path fill="none" stroke="#000" stroke-linecap="round" stroke-linejoin="round" stroke-miterlimit="10" stroke-width=".5" d="M240.66406 480.95703l-6.91406-1.2539"/></g><g clip-path="url(#x)"><path fill="none" stroke="#000" stroke-linecap="round" stroke-linejoin="round" stroke-miterlimit="10" stroke-width=".5" d="M239.65625 480.77344l.375 1.16797"/></g><g clip-path="url(#y)"><path fill="none" stroke="#000" stroke-linecap="round" stroke-linejoin="round" stroke-miterlimit="10" stroke-width=".5" d="M253.83984 481.48438l-6.63672-2.3125"/></g><g clip-path="url(#z)"><path fill="none" stroke="#000" stroke-linecap="round" stroke-linejoin="round" stroke-miterlimit="10" stroke-width=".5" d="M266.92578 482.0039l-6.17969-3.35156"/></g><g clip-path="url(#A)"><path fill="none" stroke="#000" stroke-linecap="round" stroke-linejoin="round" stroke-miterlimit="10" stroke-width=".5" d="M280.27734 481.9336l-6.2539-3.20704"/></g><g clip-path="url(#B)"><path fill="none" stroke="#000" stroke-linecap="round" stroke-linejoin="round" stroke-miterlimit="10" stroke-width=".5" d="M293.41016 482.25l-5.88672-3.83984"/></g><g clip-path="url(#C)"><path fill="none" stroke="#000" stroke-linecap="round" stroke-linejoin="round" stroke-miterlimit="10" stroke-width=".5" d="M306.38672 482.6875l-5.21094-4.71484"/></g><g clip-path="url(#D)"><path fill="none" stroke="#000" stroke-linecap="round" stroke-linejoin="round" stroke-miterlimit="10" stroke-width=".5" d="M319.35547 483.01953l-4.51563-5.38281"/></g><g clip-path="url(#E)"><path fill="none" stroke="#000" stroke-linecap="round" stroke-linejoin="round" stroke-miterlimit="10" stroke-width=".5" d="M332.63281 483.05078l-4.44531-5.44531"/></g><g clip-path="url(#F)"><path fill="none" stroke="#000" stroke-linecap="round" stroke-linejoin="round" stroke-miterlimit="10" stroke-width=".5" d="M345.27344 483.48047l-3.09766-6.30469"/></g><g clip-path="url(#G)"><path fill="none" stroke="#000" stroke-linecap="round" stroke-linejoin="round" stroke-miterlimit="10" stroke-width=".5" d="M358.82813 483.35156l-3.57422-6.04687"/></g><g clip-path="url(#H)"><path fill="none" stroke="#000" stroke-linecap="round" stroke-linejoin="round" stroke-miterlimit="10" stroke-width=".5" d="M371.35938 483.69531l-2.00782-6.73437"/></g><g clip-path="url(#I)"><path fill="none" stroke="#000" stroke-linecap="round" stroke-linejoin="round" stroke-miterlimit="10" stroke-width=".5" d="M382.6211 483.6836l2.10156-6.70704"/></g><g clip-path="url(#J)"><path fill="none" stroke="#000" stroke-linecap="round" stroke-linejoin="round" stroke-miterlimit="10" stroke-width=".5" d="M393.51563 480.86719l6.9414-1.07813"/></g><g clip-path="url(#K)"><path fill="none" stroke="#000" stroke-linecap="round" stroke-linejoin="round" stroke-miterlimit="10" stroke-width=".5" d="M394.52344 480.71094l-.73438-.98047"/></g><g clip-path="url(#L)"><path fill="none" stroke="#000" stroke-linecap="round" stroke-linejoin="round" stroke-miterlimit="10" stroke-width=".5" d="M406.8711 479.5664l6.85937 1.52344"/></g><g clip-path="url(#M)"><path fill="none" stroke="#000" stroke-linecap="round" stroke-linejoin="round" stroke-miterlimit="10" stroke-width=".5" d="M407.8711 479.78906l-.32813-1.1836"/></g><g clip-path="url(#N)"><path fill="none" stroke="#000" stroke-linecap="round" stroke-linejoin="round" stroke-miterlimit="10" stroke-width=".5" d="M421.76172 477.34375l3.70703 5.96875"/></g><path fill="none" stroke="#000" stroke-linecap="round" stroke-linejoin="round" stroke-miterlimit="10" stroke-width=".5" d="M422.30078 478.21094l.61719-1.0586"/><g clip-path="url(#O)"><path fill="none" stroke="#000" stroke-linecap="round" stroke-linejoin="round" stroke-miterlimit="10" stroke-width=".5" d="M433.66406 481.6211l6.53516-2.58594"/></g><g clip-path="url(#P)"><path fill="none" stroke="#000" stroke-linecap="round" stroke-linejoin="round" stroke-miterlimit="10" stroke-width=".5" d="M433.66406 481.6211l-1.86719-1.58985"/></g><g clip-path="url(#Q)"><path fill="none" stroke="#000" stroke-linecap="round" stroke-linejoin="round" stroke-miterlimit="10" stroke-width=".5" d="M452.40625 483.10156l-4.3164-5.54687"/></g><g clip-path="url(#R)"><path fill="none" stroke="#000" stroke-linecap="round" stroke-linejoin="round" stroke-miterlimit="10" stroke-width=".5" d="M464.61719 483.67969l-2.11328-6.70313"/></g><g clip-path="url(#S)"><path fill="none" stroke="#000" stroke-linecap="round" stroke-linejoin="round" stroke-miterlimit="10" stroke-width=".5" d="M147.5039 467.28906l-7.0078-.55078"/></g><path fill="none" stroke="#000" stroke-linecap="round" stroke-linejoin="round" stroke-miterlimit="10" stroke-width=".5" d="M147.5039 467.28906l.97657 2.25m-1.9961-2.33203l.48829 1.125m13.84375-1.01562l-7-.60547m7 .60547l.96093 2.2578m12.3672-2.5078l-7.02735-.10547m7.02734.10547l1.11719 2.18359m12.1914-2.39844l-7.01953.32422m7.01953-.32422l1.25391 2.10938m-2.27344-2.0625l.625 1.05469m13.69141-1.35547l-6.97656.83203m6.97656-.83203l1.39844 2.01562m11.91406-2.01953l-6.97656.83984m6.97656-.83984l1.40234 2.01563m11.89453-2.16407l-6.9375 1.13672m6.9375-1.13672l1.48438 1.95313m11.80078-2.09766l-6.8789 1.42578m6.8789-1.42578l1.57031 1.88672m11.76563-1.77734l-6.92188 1.20703m6.92188-1.20703l1.50781 1.93359m11.84375-.98828l-6.99219-.6836m5.97657.58594l.46484 1.13281m13.67578-.18359l-6.60937-2.38672m6.60937 2.38672l.34766 2.42969m12.82422-2.09375l-6.32813-3.0586m5.40625 2.61329l.05078 1.22656m13.55469.125l-5.0625-4.8711m4.32813 4.16407l-.33594 1.17969M318.9453 470l-3.69922-5.97266m3.16016 5.10547l-.61719 1.0586m13.8164.1289l-2.38671-6.61328m2.03906 5.64844l-.82422.91015m13.52735.25391l-.46875-7.01172m.39844 5.99219l-1.03907.64453m13.7461.35547l.88672-6.97266m-.75782 5.95703l-1.14843.4336m12.1914-.52344l5.17188-4.76172m-4.41797 4.0664l-1.15625-.40624m12.96875-.17188l6.66797-2.21484m-5.69532 1.89453l-.89062-.84766m13.05469-.01953l7.02734.16016m-7.02734-.16016l-1.10157-2.1914m14.4922 1.55078l6.875 1.4414m-5.875-1.23437l-.33985-1.17578m13.02734-.02735l6.1289 3.4336m-5.23437-2.9336l.02735-1.22656m14.58984-.96094l1.73828 6.8086m-1.48437-5.8164l.90625-.82813m9.54297 2.77343l6.96484.9336m-5.95313-.79688l-.42578-1.14843m19.44922.11328l-6.47656 2.73047m5.53516-2.33204l.94921.77344"/><g clip-path="url(#T)"><path fill="none" stroke="#000" stroke-linecap="round" stroke-linejoin="round" stroke-miterlimit="10" stroke-width=".5" d="M147.51172 453.71094l-7.02344-.02344"/></g><path fill="none" stroke="#000" stroke-linecap="round" stroke-linejoin="round" stroke-miterlimit="10" stroke-width=".5" d="M147.51172 453.71094l1.14844 2.16797m12.16015-1.94532l-7.01172-.46875m7.01172.46875l1.0039 2.23829m12.20313-3.3711l-6.79297 1.79688m5.8047-1.53516l.83202.89844m13.44532-1.2539l-6.7422 1.98046m5.76173-1.6914l.85547.8789m13.42578-1.21094l-6.71485 2.07031m6.71485-2.0703l1.73828 1.73046m11.39062-2.21094l-6.33984 3.03125m5.41797-2.58984l.98437.72656m12.71875-1.97656l-5.27343 4.64844m4.5039-3.97266l1.14844.4336m13.69531.30859l-6.78906 1.8125m5.80078-1.54688l.83594.89453m13.3789-1.4414l-6.61328 2.375m6.61328-2.375l1.81641 1.64844m11.57031-1.42188l-6.7578 1.92188m5.77343-1.64454l.85156.88672m13.57813-.35547l-7.01954.30079m6-.25782l.6211 1.0586m13.70703-.6875l-7.00781-.52344m5.98828.44531l.4961 1.125m13.69921-.28906l-6.72656-2.03906m5.7461 1.74219l.23827 1.20312m13.66016-.04297l-5.9336-3.76562m5.07032 3.21875l-.09375 1.22265m12.60547.70703l-2.59766-6.53125m2.21875 5.57813l-.79297.9375m12.53906.20312l1.29297-6.90625m-1.10156 5.90235l-1.17187.36719m12.85156.0078l4.1836-5.64843m-3.57423 4.82422l-1.21484-.17969m12.5-1.78125l7.02734-.07812m-6.0078.0664l-.58595-1.07812m13.40625 2.89844l5.97657-3.69532m-5.10938 3.15625l-1.0586-.61718m13.10938-1.63672l6.76953 1.89062m-6.76953-1.89062l-.52734-2.39844m14.07812 1.78906l6.30079 3.10938m6.92578-2.92578l6.47265 2.73828m-5.52734-2.33985l-.10938-1.22265m12.23438 1.73047l6.96484.92578m-5.95312-.78907l-.42578-1.14843m12.8125.57812l6.79687 1.79297m-6.79687-1.79297l-.5586-2.38672m16.53906-.15234l1.46875 6.8711m-1.2539-5.8711l.9375-.78906"/><g clip-path="url(#U)"><path fill="none" stroke="#000" stroke-linecap="round" stroke-linejoin="round" stroke-miterlimit="10" stroke-width=".5" d="M147.4375 441.10938l-6.875-1.45313"/></g><path fill="none" stroke="#000" stroke-linecap="round" stroke-linejoin="round" stroke-miterlimit="10" stroke-width=".5" d="M146.4375 440.89844l.33984 1.17969m13.82422-.45313l-6.57422-2.48438m5.6172 2.1211l.15624 1.21875m13.8125-.23828l-5.96484-3.71485m5.09765 3.17188l-.08593 1.22656m14.6914-1.6875l-6.8125-1.71094m5.82422 1.46094l.29297 1.1914m13.8711-.5039l-6.53516-2.58203m5.58594 2.20312l.13671 1.22266m14.06641-.69922l-6.41406-2.8711m5.48047 2.45313l.08593 1.22266m13.4922.1914l-5.07032-4.86718m4.33203 4.16016l-.33594 1.17968m14.8125-4.80469l-5.91406 3.79688m5.91406-3.79688l2.13672 1.20313m11.16797-1.21484l-5.89844 3.8203m5.03906-3.26562l1.07422.59766m12.03125-2.21094l-3.7578 5.9375m3.7578-5.9375l2.44532.1875m11.3828.20703l-4.78515 5.14844m4.78516-5.14844l2.3711.63282m10.2539-1.12891l-3.40625 6.14453m2.91015-5.2539l1.22657.02343m14.2539 1.16797l-6.74218 1.98047m6.74218-1.98047l1.71485 1.7539m11.55469.3711l-6.65235-2.26953m5.6836 1.9375l.1953 1.21094m12.88673.78515l-4.25-5.59765m3.6328 4.78125l-.51562 1.11328m11.6211.34375l1.40625-6.88281m-1.20313 5.8828l-1.17578.34766m12.36719-5.125l5.2461 4.67188m-4.48438-3.99219l.28906-1.1914m12.23828.53906l5.29688 4.6211m-5.29688-4.6211l.5586-2.39063m11.89062 4.66407l7.02734.0703m-7.02734-.0703l-1.1289-2.17578m15.15234 4.32421l5.61328-4.22265m-5.61328 4.22265l-2.22266-1.03906m14.89453-.40234l6.89844-1.34375m-5.89453 1.14844l-.77344-.95313m13.58594 2.38672l5.89844-3.8164m-5.04297 3.26171l-1.07031-.59765m13.8203 1.53906l5.31641-4.59375m-5.3164 4.59375l-2.28906-.88672m14.9453-.2539l6.63282-2.3125m-5.66797 1.97655l-.90234-.83203m13.71875-2.04297l5.69922 4.11329m-4.8672-3.51563l.16407-1.21484"/><g clip-path="url(#V)"><path fill="none" stroke="#000" stroke-linecap="round" stroke-linejoin="round" stroke-miterlimit="10" stroke-width=".5" d="M147.25781 425.75l-6.51562 2.63672"/></g><path fill="none" stroke="#000" stroke-linecap="round" stroke-linejoin="round" stroke-miterlimit="10" stroke-width=".5" d="M146.3086 426.13281l.9414.78906m13.57813.1172l-7.02735.05859m6.0039-.05078l.58595 1.07812m13.08984.9961l-5.70313-4.10548m5.70313 4.10547l-.33203 2.4336M185.8828 430l-3.875-5.86328m3.875 5.86328l-1.17187 2.15625m14.51172-2.17578l-3.92578-5.82422m3.92578 5.82422l-1.15235 2.16797m16.00781-5.375l-7.0039.58984m5.98437-.5039l.66407 1.03124m12.1875-3.6953l-4.03907 5.75m3.45313-4.91407l1.21484.14844m13.375 4.1289L234.5 424.82812m4.625 3.82813l-.2461 1.20312m14.33985-.53906l-5.39453-4.5039m4.60937 3.84765l-.2539 1.20313m10.04687.32422l3.21875-6.2461m14.32031.77735l-5.23046 4.6914m4.46875-4.00781l1.15234.42187m9.47266 4.65235l1.67578-6.82422m10.6836 6.4336l3.58593-6.04298m-3.0664 5.16407l-1.22266-.0586m16.6289-5.5l-1.63672 6.83203m1.39844-5.83984l1.1875-.30469m13.14063-.40234l-3.1875 6.26172m2.72656-5.35156l1.22656-.01954m13.15235-.5039l-4.39063 5.48828m3.75-4.6875l1.20703.22656m9.00781-1.4375l3.08985 6.3086m8.66797-4.8047l6.20312 3.30079m-5.30078-2.82031l.0039-1.22656m12.53516.52734l5.95313 3.73828m-5.95313-3.73828l.17578-2.44531m.69141 2.98828l.08594-1.22266m18.78906 1.89453l-6.90234 1.3086m5.89843-1.1172l.76954.95704m13.48437.44922l-6.76953-1.88672m5.78125 1.61328l.26562 1.19531m12.9961-4.48047l-4.6875 5.23047m4.6875-5.23047l2.38281.58594m-3.0664.17578l1.1914.29297m12.82422-1.03906l-4.72266 5.19922m4.72266-5.19922l2.3789.60156m-3.0664.15235l1.1914.30468m12.5547-1.26953l-4.21094 5.6211m4.21093-5.6211l2.42578.375m12.29688 2.54297l-7.02344-.21484m6 .1836l.54297 1.10155"/><g clip-path="url(#W)"><path fill="none" stroke="#000" stroke-linecap="round" stroke-linejoin="round" stroke-miterlimit="10" stroke-width=".5" d="M146.67578 411.47656l-5.35156 4.55469"/></g><path fill="none" stroke="#000" stroke-linecap="round" stroke-linejoin="round" stroke-miterlimit="10" stroke-width=".5" d="M145.89844 412.14063l1.14062.44921m13.75781.69532l-6.96484.93359m5.95313-.79688l.71484.9961m13.53516.19922l-6.8086-1.73047m5.8164 1.48047l.29298 1.1914m14.11719-1.60937l-7.01563-.39063m5.9961.33594l.51171 1.11328m13.64063-2.39453l-6.64844 2.28125m5.67969-1.94922l.89453.83985m13.5664.21484l-7.0078-.4961m17.39452 3.71485l-1.14843-6.9336m15.20312 6.72657l-2.6289-6.51563m2.24609 5.56641l-.78906.9414m15.41797-.54687l-4.48829-5.40625m3.83594 4.6211l-.46484 1.1328m14.73437-.6289l-5.09375-4.84375m4.35156 4.13672l-.32812 1.1836m12.83203.46874l-1.98828-6.73828m14.48047 6.8789l-.34375-7.01952m15.09375 6.63672l-3.21094-6.25m2.74219 5.33984l-.69922 1.00781m15.85547-1.35937l-5.95703-3.73047m5.08984 3.1875l-.08594 1.22656m10.875.9414l.83203-6.97656m9.38672 3.64063l7.01953-.30469m12.51954 2.38672l-5.42579-4.46875m12.64454 3.1836l6.76562-1.90235m8.84766-2.38672l2.17187 6.67969m-1.85937-5.71094l.85547-.88281m12.28906-.1289l1.88672 6.76562m-1.88672-6.76563l1.77734-1.6953m14.04688 1.93358l-3.13282 6.28907m3.13282-6.28907l2.45312-.0664m11.75.69922l-4.91015 5.02343m4.91015-5.02343l2.35547.6875m11.59375.14843l-6.17578 3.35157m5.27734-2.86328l1.02344.67578m12.7539-1.79297l-5.30468 4.60937m5.30469-4.60937l2.29297.88281m8.1328-2.08594l.47657 7.01172m-.47656-7.01172l2.08203-1.29297"/><g clip-path="url(#X)"><path fill="none" stroke="#000" stroke-linecap="round" stroke-linejoin="round" stroke-miterlimit="10" stroke-width=".5" d="M146.60547 398.08203l-5.21094 4.71094"/></g><path fill="none" stroke="#000" stroke-linecap="round" stroke-linejoin="round" stroke-miterlimit="10" stroke-width=".5" d="M146.60547 398.08203l2.3086.83594m11.65624.20312l-6.51172 2.63672m5.56641-2.2539l.9414.78906m13.08985-1.64063l-6.05078 3.57422m18.73828-4.35547l-4.79688 5.13672m19.10547-3.48047l-6.78515 1.82032m5.80078-1.5547l.83594.89845m7.41015 2.03906l5.32422-4.58594m-4.55078 3.91797l-1.14453-.4414m15.3789 2.1953l1.9375-6.7539m15.85547 3.52734l-7.01953-.30468m6 .26171l.52735 1.10547m13.28906.62891l-5.98047-3.6875m5.10938 3.15234l-.07813 1.22266m14.74219-3.09766l-6.9375 1.13282m5.92578-.96875l.7461.97656m13.09765-2.42578l-5.97266 3.70312m5.10547-3.16406l1.0586.61719m13.53515-.1914l-6.79687 1.77733m5.80859-1.51953l.83203.90235m11.7539 2.8125l-3.35937-6.17188m15.51172 6.5625l-1.03516-6.94922m.88672 5.9375l-.98828.73047m13.01172.19531l1.84766-6.78125m-1.58203 5.79297l-1.19532.27344m18.23047-.94922l-6.125-3.44922m16.26953 5.23438l.21485-7.02344m-.1836 6.0039l-1.10156.53907m16.36328-.05469l-3.73828-5.94922m3.1914 5.08204l-.60937 1.0664m14.71094-5.98437L381.5625 403.25m3.60156-4.80469l1.21485.1875m10.40625-1.70312l.40234 7.01562m-.34375-5.99219l1.04687-.64062m15.1172.88672l-5.41407 4.47656m4.6289-3.82422l1.13282.46875m12.16015-1.83594l-3.80078 5.91016m3.80078-5.91015l2.44532.20312m10.01562-.60156l-2.09375 6.70703m2.09375-6.70703l2.41406-.45703m12.69141 1.73437l-5.67187 4.14844m5.67187-4.14844l2.21094 1.07031m10.00781-2.05078l-3.47656 6.10938m3.47656-6.10938l2.44922.07031"/><g clip-path="url(#Y)"><path fill="none" stroke="#000" stroke-linecap="round" stroke-linejoin="round" stroke-miterlimit="10" stroke-width=".5" d="M147.21094 385.69531l-6.42188 2.85547"/></g><path fill="none" stroke="#000" stroke-linecap="round" stroke-linejoin="round" stroke-miterlimit="10" stroke-width=".5" d="M147.21094 385.69531l1.9336 1.51172m-2.8672-1.09765l1.9336 1.51171m12.28515-1.99218l-6.35937 2.99218m6.35937-2.99218l1.96094 1.46875m-2.88672-1.03516l.98047.73438m13.41797-.77344l-6.67578 2.19922m6.67578-2.19922l1.76953 1.69922m11.27344 1.11718l-6.13281-3.43359m5.24218 2.9336l-.02734 1.22656m9.48828.64453l3.35547-6.17578m-3.35547 6.17578l-2.45312-.02344m19.65234-.32813l-4.41016-5.47265m3.76563 4.67578l-.48047 1.1289m14.41406-.3125l-4.36328-5.51171m3.73047 4.70703l-.49219 1.125m15.66016-2.1875l-6.80078-1.77735m5.8125 1.51954l.28125 1.1953M254 386.63672l-6.96094.97267m5.94922-.83204l.71875.9961m13.35938-2.02735L260.60156 388.5m5.52735-2.35156l.95312.76953m13.0039-1.72656l-5.87109 3.86328m5.01563-3.30078l1.07812.58593m13.42188-.51171l-6.53125 2.58984m5.58203-2.21485l.9336.79688m13.17968-1.5039l-6.22656 3.2539m5.32031-2.78125l1.01172.69531m12.64453-1.96094l-5.09375 4.83985m4.35156-4.13672l1.16407.39063m13.77343.5625l-6.85937 1.52734m5.86328-1.30469l.79688.9336m12.6914 1.96484l-5.21094-4.71485M360.5 387.7461L353.58203 386.5m19.58985-1.48047l-5.62891 4.20703m5.6289-4.20703l2.21876 1.04297m9.6328-2.17969l-2.70702 6.48438m2.70703-6.48438l2.44531-.23047m11.10156.33594l-3.16797 6.27344m3.16797-6.27344l2.45313-.05469m10.84765.04688l-3.14062 6.28515m3.14062-6.28515l2.45313-.0625m11.17578.23828l-3.76562 5.9336m3.76562-5.9336l2.44531.1875m9.82032-.63281l-1.66797 6.82422m1.66797-6.82422l2.375-.60547m10.67578.55078l-1.14063 6.9336m1.14063-6.9336l2.32812-.78516m-2.49219 1.79297l1.16016-.39062m12.9961-.4375l-2.4922 6.57422m2.12891-5.6172l1.21485-.15233"/><g clip-path="url(#Z)"><path fill="none" stroke="#000" stroke-linecap="round" stroke-linejoin="round" stroke-miterlimit="10" stroke-width=".5" d="M147.30469 372.61719L140.6953 375"/></g><path fill="none" stroke="#000" stroke-linecap="round" stroke-linejoin="round" stroke-miterlimit="10" stroke-width=".5" d="M147.30469 372.61719l1.82031 1.64453m-2.78125-1.30078l1.82031 1.64844m12.59766-1.48438l-6.89453 1.36719m6.89453-1.36719l1.55078 1.90234m-2.55469-1.70312l.77735.94922m13.55468-1.07813l-6.91797 1.22656m6.91797-1.22656l1.51172 1.92969m11.50781.20703l-6.32812-3.05078m5.40625 2.60938l.05078 1.22656m14.53516-2.29297l-7.02735-.03125m6.00391.02734l.57422 1.08594m13.76172-.9414l-7.01953-.3125m7.01953.3125l1.05469 2.21484m12-1.03125l-6.5-2.67969m6.5 2.67969l.23828 2.4414m13.0625-2.41015l-6.46875-2.7461m6.46875 2.7461l.21093 2.44531m13.1797-2.63672l-6.6211-2.35937m5.65625 2.01562l.17969 1.21485m14.28125-2.44532l-6.98438.78906m5.96875-.67578l.6914 1.01172m13.5586-1.5625l-6.82422 1.66406m5.83203-1.42187l.8164.91797m13.5586-.8125l-6.96093.96875m5.94921-.82813l.71875.9922m13.0547-2.59376l-5.85157 3.88672m5-3.32031l1.07812.58594m12.75782-1.57422L314.5 376.17578m4.4375-4.04687l1.15234.41015m13.375-.46875l-6.10546 3.47656m5.21484-2.97265l1.03906.65625m12.33203-2.14453l-4.4375 5.44531m3.79297-4.65234l1.20313.23828m13.19922-.60156l-5.32422 4.58593m4.55078-3.91797l1.14453.44532m13.47656-.28516l-6.38672 2.92969m5.45703-2.5039l.97266.74608m12.69531-2.05078l-5.23437 4.6875m5.23437-4.6875l2.30469.84766m10.29688-1.45703l-3.8086 5.90625m3.8086-5.90625l2.4453.20703m10.89454-.1914l-3.85938 5.87109m3.85938-5.8711l2.44531.23047m10.91406-.19922l-3.94921 5.8125m3.94921-5.8125l2.44141.26563m10.3711-.55078L435.46093 377m2.9414-6.38281l2.45313-.13672m10.24219-.08203l-1.70313 6.82031m1.70313-6.82031l2.3828-.58985m-2.6289 1.58204l1.1914-.29688m12.1836-.73438l-1.33203 6.89844m1.33203-6.89844l2.34766-.72265"/><g clip-path="url(#aa)"><path fill="none" stroke="#000" stroke-linecap="round" stroke-linejoin="round" stroke-miterlimit="10" stroke-width=".5" d="M147.14453 358.92578l-6.28906 3.13281"/></g><path fill="none" stroke="#000" stroke-linecap="round" stroke-linejoin="round" stroke-miterlimit="10" stroke-width=".5" d="M147.14453 358.92578l1.9961 1.42969m-2.91016-.97266l.9961.71485m13.59374.1289l-7.00781.53516m7.00781-.53516l1.3125 2.07031m-2.33203-1.99218l.65625 1.03515m13.10156-2.78515l-5.85937 3.8789m5.85937-3.8789l2.15625 1.16797m11.7422.72265l-7.02345.09375m6.00391-.07812l.58984 1.07422m13.69141-.4297l-6.91797-1.22655m5.91406 1.04687l.375 1.16797m13.8047-.44922l-6.63673-2.30469m5.67188 1.96875l.1875 1.21485m14.27344-1.72656l-7-.60938m5.98046.52344l.48047 1.1289m13.83985-1.80078l-6.96875.90625m5.95312-.77344l.71094 1m13.47656-1.76171l-6.6836 2.16796m5.71095-1.85156l.8828.85156m12.64845-2.46484L261.25 362.8711m4.41797-4.0625l1.16015.40625m13.23829-.68359l-5.82813 3.92578m4.97656-3.35547l1.08594.57813m13.05469-1.1875l-5.77734 4m4.9375-3.41797l1.08984.5625m13.65625.38672l-6.96484.9375m5.95312-.80078l.71484.99609m11.96485-3.66016l-3.66797 5.9922m3.13672-5.1211l1.22265.07812m13.14844-.55469l-4.71875 5.20704m4.03125-4.44922l1.1914.30078m13.14454-.71485l-5.38281 4.51563m19.1875-3.7461l-6.36328 2.97657m5.4375-2.54297l.98046.73828m13.48047-.57031l-6.80078 1.77344m6.80078-1.77344l1.66016 1.80469m11.32031-2.62891l-6.13281 3.42578m6.13281-3.42578l2.0625 1.32813m10.96875-1.75782l-5.5664 4.28516m5.5664-4.28516l2.23438 1.01563m10.89453-1.24219l-5.19531 4.73438m5.1953-4.73438l2.3125.82813m10.94923-.88282l-5.08985 4.84766m5.08985-4.84766l2.32812.77344m11.16406-.57422l-5.4414 4.44531m5.4414-4.4453l2.26172.94921m10.11328-1.7539l-3.5625 6.05859m3.5625-6.0586l2.44922.10547m10.49219-.29687l-2.8125 6.4414m2.8125-6.4414l2.44531-.1875"/><g clip-path="url(#ab)"><path fill="none" stroke="#000" stroke-linecap="round" stroke-linejoin="round" stroke-miterlimit="10" stroke-width=".5" d="M146.28516 344.50781l-4.57032 5.33985"/></g><path fill="none" stroke="#000" stroke-linecap="round" stroke-linejoin="round" stroke-miterlimit="10" stroke-width=".5" d="M146.28516 344.50781l2.39453.53516m11.91797.8789l-6.5625 2.51172m6.5625-2.51171l1.84765 1.61328m11.46094-1.625l-6.55469 2.53515m6.55469-2.53515l1.85547 1.60546m9.89062-3.41015l-3.41406 6.14453m2.91797-5.25l1.22656.02344m14.01953.58203L194.1172 348.75M214 346.38281l-6.84766 1.58985m20.25-.76563l-7.02343-.0586m6.0039.05079l.5664 1.08594m13.76954-1.02344l-7.02734-.16797m6.0039.14453l.55078 1.09375m13.71875-1.84375l-6.89062 1.3789m5.89062-1.17968l.77735.94922m13.10547-2.26953l-6.02344 3.6211m5.14453-3.09376l1.05469.6289m12.05078-2.28515l-3.84766 5.8789m3.28906-5.02343l1.22266.11328m13.82813.3164l-6.19922 3.3086m5.29687-2.82812l1.01563.68359m13.5625-.11719l-6.92188 1.21485m5.91406-1.03907l.75391.96875m13.5625-1.17578l-6.91016 1.27735m5.90625-1.08985l.76172.96094m13.27735-2.01172l-6.35157 3.0039m5.4297-2.5664l.98437.73438m13.0586-1.52735l-5.96485 3.71485m5.09765-3.17579l1.0625.6172m13.53125-.20704l-6.78515 1.8164m6.78515-1.8164l1.67578 1.79297m11.55079-2.07813l-6.60938 2.38672m6.60938-2.38671l1.8203 1.64843m11.25391-2.17578l-6.125 3.44531m6.125-3.4453l2.06641 1.3203m11.0586-1.62109l-5.7461 4.04297m5.7461-4.04297l2.1914 1.11328m-3.02734-.52344l1.09375.5547m12.83984-1.42188l-5.3125 4.60156m5.3125-4.60156l2.28906.8828m-3.0625-.21483l1.14453.4414m12.85938-1.20703l-5.14063 4.79297m5.14063-4.79297l2.3164.79688m-3.0664-.09766l1.16016.39844m12.92187-1.07813l-5.17578 4.7539m5.17578-4.7539l2.3125.82031m10.1914-1.47265l-3.55468 6.0586m3.03906-5.17579l1.22656.05078m13.95313.48828l-6.25 3.21485m5.33984-2.7461l1.00782.69922"/><g clip-path="url(#ac)"><path fill="none" stroke="#000" stroke-linecap="round" stroke-linejoin="round" stroke-miterlimit="10" stroke-width=".5" d="M142.38672 330.74219l3.22656 6.24219"/></g><g clip-path="url(#ad)"><path fill="none" stroke="#000" stroke-linecap="round" stroke-linejoin="round" stroke-miterlimit="10" stroke-width=".5" d="M142.38672 330.74219l1.39453-2.01953"/></g><path fill="none" stroke="#000" stroke-linecap="round" stroke-linejoin="round" stroke-miterlimit="10" stroke-width=".5" d="M156.71875 330.40234l1.19531 6.92188m-1.02344-5.91797l.96875-.75m16.1211 2.14063l-6.69922 2.1289m5.72266-1.8164l.8789.85546m11.19922-3.42578l-2.27344 6.64844m2.27344-6.64844l2.42188-.39062m9.0039.28125l1.5039 6.86719m16.03126-2.875l-6.9375-1.1172m5.92969.95313l.39453 1.16406m13.82812-.55468l-6.73437-2.00781m6.73437 2.0078l.48438 2.40626m12.94531-2.92969l-6.96094-.96094m6.96094.96094l.84375 2.30469m12.5039-2.84375l-7.02734.11719m6.0039-.10157l.59376 1.07422m13.66406-1.77734l-6.86719 1.49219m5.8672-1.27735l.79296.9375m13.49219-1.27734l-6.8086 1.74219m5.81641-1.48829l.82813.90625m13.36718-1.51562l-6.58594 2.45312m5.62891-2.09375l.91797.8125m13.45703-.84375l-6.79297 1.79688m5.80469-1.53516l.83594.89844m13.5625.15625l-6.98047-.83594m5.96484.71485l.4414 1.14453m13.73829-2.53516l-6.67578 2.1875m5.70312-1.8711l.88672.85157m13.57422-.07422h-7.02734m6.00781 0l.57422 1.08203m13.7539-.875l-7.01171-.41797m20.33203.07813l-7.02344.26562m6-.22656l.61719 1.0625m13.11719-2.94531l-5.8125 3.95312m5.8125-3.95312l2.16796 1.14453m10.62891-1.7461l-4.77734 5.15626m4.77734-5.15625l2.3711.6289m10.86327-.69922l-4.61718 5.29688m3.94531-4.52735l1.19531.27735m12.76953-1.0664l-4.5703 5.33593m3.90624-4.5586l1.19531.26563m13.03516-.80469l-5.07422 4.85938m5.07422-4.85938l2.33203.76563m8.97266-1.8086l-1.05469 6.94532m1.05469-6.94531l2.3164-.81641m12.28125 1.27734L461.75 336.875m3.09375-5.14844l1.22656.0664"/><g clip-path="url(#ae)"><path fill="none" stroke="#000" stroke-linecap="round" stroke-linejoin="round" stroke-miterlimit="10" stroke-width=".5" d="M140.90625 318.88281l6.1875 3.32813"/></g><path fill="none" stroke="#000" stroke-linecap="round" stroke-linejoin="round" stroke-miterlimit="10" stroke-width=".5" d="M154.10156 319.1289l6.42578 2.83985m-6.42578-2.83984l-.17969-2.44922m1.11329 2.86328l-.17578-2.44922m12.29296 2.94531l6.95313 1.01953m-6.95313-1.01953l-.82422-2.3125m14.6172.99219l6 3.65625m-5.12891-3.125l.07422-1.22266m11.96484 1.65235l6.8086 1.73828m-5.81641-1.48438l-.29297-1.1953m15.21484 5.23046l1.60938-6.83984m-1.375 5.84375l-1.1836.3125m17.35156-.06641l-4.5664-5.33984m3.90234 4.5625l-.44922 1.14062m15.40625-1.72656l-6.51953-2.61328m6.51953 2.61328l.26563 2.4375m13.00781-2.33203l-6.4336-2.82422m6.4336 2.82422l.1836 2.44531m13.38671-3.33594l-6.94922-1.04297m6.94922 1.04297l.82032 2.3125m12.5-2.34375l-6.95704-.98437m6.95704.98437l.83593 2.3086m12.44532-3.5l-6.88672 1.39843m5.88281-1.1953l.78125.94921m13.48828-1.35156l-6.79297 1.79687m5.80469-1.53515l.83594.89843m13.51172.45313l-6.87891-1.42969m5.8789 1.22266l.34376 1.17969m14.01953-2.09766l-6.97656.82422m5.96484-.70703l.69922 1.01171m13.61328-1.25l-6.94531 1.06641m6.9453-1.0664l1.46876 1.96484m11.51562-3.0039l-6.28515 3.14452m5.3711-2.6875l1 .71094M373.55468 322l-6.39844-2.90234m19.03906-.9922l-5.05078 4.88282m5.05078-4.88281l2.33594.75781m10.34375-1.27734l-3.77734 5.92578m3.77734-5.92578l2.44531.1914m9.98828-.59765l-2.01171 6.73437m2.01171-6.73437l2.40625-.48047m9.14454.41797l1.51562 6.86328m-1.51562-6.86328l1.86718-1.59375m9.6914 2.57031l5.02735 4.91016m-5.02734-4.91016l.6875-2.35547m12.23047 2.84375l5.82031 3.9336m-4.97266-3.36329l.12891-1.21875m16.8125-.53125L462 323.69531m2.66797-5.3789l1.22656-.03516"/><path fill="#00f" fill-rule="evenodd" d="M388.23828 467.64844h8.61719V457.5039h-8.61719v10.14453"/><path fill="azure" fill-rule="evenodd" d="M390.07031 459.33594h.83594v2.82422h3.28516v-2.82422h.83203v6.48047h-.83203v-2.91797h-3.28516v2.91797h-.83594v-6.48047"/><path fill="#00f" fill-rule="evenodd" d="M321.66406 454.33203h8.61719V444.1875h-8.61719v10.14453"/><path fill="azure" fill-rule="evenodd" d="M323.4961 446.01953h.83202v2.82422h3.28907v-2.82422h.83203V452.5h-.83203v-2.91406h-3.28906V452.5h-.83204v-6.48047"/><path fill="#00f" fill-rule="evenodd" d="M383.80078 436.57813h8.61719v-10.14454h-8.61719v10.14454"/><path fill="azure" fill-rule="evenodd" d="M385.63281 428.26563h.83203v2.82421h3.28907v-2.82421h.83203v6.48046h-.83203v-2.91406h-3.28907v2.91406h-.83203v-6.48046"/><path fill="#ff3030" fill-rule="evenodd" d="M291.28906 409.94922h7.6914v-10.14453h-7.6914v10.14453"/><path fill="azure" fill-rule="evenodd" d="M293.1211 401.63672h.83593v5.73828h3.1914v.74219h-4.02734v-6.48047"/><path fill="#00f" fill-rule="evenodd" d="M370.48438 401.07422h8.62109v-10.14844h-8.6211v10.14844"/><path fill="azure" fill-rule="evenodd" d="M372.3164 392.76172h.83594v2.82031h3.28516v-2.82031h.83203v6.47656h-.83203v-2.91406h-3.28516v2.91406h-.83593v-6.47656"/><path fill="#ff3030" fill-rule="evenodd" d="M193.64453 374.4414h7.69531v-10.14452h-7.6953v10.14453"/><path fill="azure" fill-rule="evenodd" d="M195.47656 366.1289h.83594v5.7422h3.1914v.73827h-4.02734v-6.48046"/><path fill="#ffffe0" fill-rule="evenodd" d="M341.74219 389.28906h22.1836v-10.19531h-22.1836v10.19531"/><path fill-rule="evenodd" d="M345.24219 380.92969h.51172v6.29297h-.78907v-4.48829h-1.38671v-.55859l.55859-.0625.2539-.05469.22657-.08984.20312-.14063.17578-.21093.14063-.29297.10547-.39453m4.8164 0l.22657.01562.21875.0586.21093.08984.19532.1211.18359.14843.17188.17578.30078.41797.24218.4961.1797.54296.11327.58204.03906.58984-.03906.59375-.11328.58203-.17969.55469-.24218.5039-.30079.42579-.17187.17968-.1836.15235-.1953.125-.21094.09375-.21875.05468-.22657.01954-.23046-.01954-.21875-.05468-.20704-.09375-.19921-.125-.1836-.15235-.17187-.17969-.30079-.42578-.24218-.5039-.17969-.55469-.11328-.58203-.03906-.59375h.83593l.02735.5625.08203.50781.125.4414.16406.375.1914.30079.21094.22265.22266.13672.22656.04688.22657-.04688.22265-.13671.21094-.22266.1875-.30078.16406-.375.125-.4414.08203-.50782.03125-.5625-.03125-.5625-.08203-.5-.125-.4336-.16406-.36718-.1875-.29297-.21094-.21485-.22265-.1289-.22657-.04688-.22656.04688-.22265.1289-.21094.21485-.1914.29297-.16407.36719-.125.43359-.08203.5-.02735.5625h-.83593l.03906-.58985.11328-.58203.17969-.54296.24219-.4961.30078-.41797.17187-.17578.1836-.14844.19921-.12109.20704-.08984.21875-.0586.23046-.01562m4.94922 0l.23047.01562.21875.0586.20703.08984.19922.1211.1836.14843.17187.17578.30078.41797.24219.4961.17969.54296.11328.58204.03906.58984-.03906.59375-.11328.58203-.1797.55469-.24218.5039-.30078.42579-.17188.17968-.18359.15235-.19922.125-.20703.09375-.21875.05468-.23047.01954-.22656-.01954-.21875-.05468-.21094-.09375-.19531-.125-.1836-.15235-.17187-.17969-.30078-.42578-.24219-.5039-.17969-.55469-.11328-.58203-.03906-.59375h.83594l.02734.5625.08203.50781.125.4414.16407.375.1914.30079.20703.22265.22266.13672.22656.04688.22656-.04688.22266-.13671.21094-.22266.1914-.30078.16407-.375.125-.4414.08203-.50782.02734-.5625-.02734-.5625-.08203-.5-.125-.4336-.16406-.36718-.19141-.29297-.21094-.21485-.22265-.1289-.22657-.04688-.22656.04688-.22266.1289-.20703.21485-.1914.29297-.16407.36719-.125.43359-.08203.5-.02734.5625h-.83594l.03906-.58985.11329-.58203.17968-.54296.24219-.4961.30078-.41797.17188-.17578.18359-.14844.19531-.12109.21094-.08984.21875-.0586.22656-.01562m4.95313 0l.38672.02734.35937.08203.32422.13672.27734.1875.23047.23438.17578.28906.10547.33203.03906.375-.01953.27344-.05859.23437-.08594.20313-.11328.16797-.1289.14453-.14063.1211-.28516.19921.23047.11719.20703.14844.1836.17187.15234.1914.125.21485.08985.23047.05468.24219.01953.2578-.03125.3086-.10546.32422-.17188.32813-.23828.30468-.3086.26954-.375.21484-.21093.08203-.22656.0586-.2461.03906-.26172.01171-.25781-.01171-.24219-.03907-.22265-.05859-.20704-.08203-.35937-.21485-.28906-.26953-.22266-.30468-.15625-.32813-.09375-.32422-.03125-.3086h.83594l.02734.25.07422.23829.125.21094.16016.1836.1914.15233.22266.1172.23828.0703.2539.02735.25782-.02735.23828-.0703.21875-.1172.19531-.15234.16016-.1836.1211-.21093.07812-.23828.02734-.25-.02734-.2539-.07813-.23438-.12109-.21485-.16016-.18359-.1953-.15234-.21876-.11329-.23828-.07421-.25781-.02344-.2539.02344-.23829.07421-.22266.11329-.1914.15234-.16016.1836-.125.21484-.07422.23437-.02734.2539h-.83594l.01953-.2539.0586-.24219.08984-.22265.1211-.20703.15624-.1914.1797-.17188.20702-.15235.23438-.13281-.28906-.19922-.13672-.1211-.12891-.14452-.11328-.16797-.08594-.20313-.0586-.23437-.01952-.27344h.78515l.02344.21484.0664.19141.10157.16797.13672.13672.16797.11328.1875.08203.20703.05078.21875.01563.22265-.01563.20704-.05078.1875-.08203.16406-.11328.13672-.13672.10546-.16797.06641-.1914.02344-.21485-.02344-.21484-.0664-.19141-.10547-.16406-.13672-.14063-.16406-.11328-.1875-.07812-.20704-.05079-.22265-.01953-.21875.01954-.20703.05078-.1875.07812-.16797.11328-.13672.14063-.10156.16406-.06641.1914-.02344.21485h-.78515l.03515-.375.10938-.33203.17187-.28906.23047-.23438.28125-.1875.32031-.13672.35938-.08203.38672-.02734"/><path fill="#ffffe0" fill-rule="evenodd" d="M227.24219 361.35938h22.17969v-10.19141h-22.1797v10.1914"/><path fill-rule="evenodd" d="M230.74219 353h.50781v6.29297h-.78516v-4.48828h-1.39062V354.25l.5586-.0664.2539-.05079.23047-.08984.20312-.14453.17188-.20703.14453-.29688.10547-.39453m4.8125 0l.23047.01953.21875.05469.20703.08984.19531.1211.1836.14843.17187.17579.30469.42187.24218.49219.1797.54687.10937.57813.03906.58984-.03906.59375-.10938.58594-.17969.55469-.24218.5-.3047.42968-.17187.1797-.18359.15233-.19531.125-.20703.08985-.21875.0586-.23047.01952-.23047-.01953-.21875-.0586-.20703-.08983-.19531-.125-.1836-.15235-.17187-.17969-.3047-.42968-.24218-.5-.17969-.5547-.10937-.58593-.03906-.59375h.83203l.02734.5664.08203.50391.1289.44141.16017.375.1914.30078.21094.22266.22266.13672.22656.04687.22656-.04687.22266-.13672.21093-.22266.19141-.30078.16016-.375.1289-.4414.07813-.50391.03125-.5664-.03125-.5586-.07813-.5-.1289-.4375-.16016-.36328-.1914-.29297-.21094-.21485-.22266-.1328-.22656-.04298-.22656.04297-.22266.13281-.21094.21485-.1914.29297-.16016.36328-.1289.4375-.08204.5-.02734.5586h-.83203l.03906-.58985.10937-.57813.1797-.54687.24218-.49219.30469-.42188.17187-.17578.1836-.14843.1953-.1211.20704-.08984.21875-.05469.23047-.01953m4.95312 0l.23047.01953.21875.05469.20703.08984.19531.1211.1836.14843.17187.17579.30078.42187.2461.49219.17969.54687.10937.57813.03906.58984-.03906.59375-.10937.58594-.1797.55469-.24608.5-.30079.42968-.17187.1797-.1836.15233-.1953.125-.20704.08985-.21875.0586-.23047.01952-.23047-.01953-.21875-.0586-.20703-.08983-.19531-.125-.1875-.15235-.16797-.17969-.30469-.42968-.24218-.5-.1797-.5547-.11327-.58593-.03516-.59375h.83203l.02735.5664.08203.50391.1289.44141.16016.375.1914.30078.21094.22266.22266.13672.22656.04687.22656-.04687.22266-.13672.21094-.22266.1914-.30078.16016-.375.125-.4414.08203-.50391.03125-.5664-.03125-.5586-.08203-.5-.125-.4375-.16016-.36328-.1914-.29297-.21094-.21485-.22266-.1328-.22656-.04298-.22656.04297-.22266.13281-.21093.21485-.19141.29297-.16016.36328-.1289.4375-.08203.5-.02735.5586h-.83203l.03516-.58985.11328-.57813.17969-.54687.24218-.49219.3047-.42188.16796-.17578.1875-.14843.19531-.1211.20703-.08984.21875-.05469.23047-.01953m4.95313 0l.38672.02734.35937.08204.32031.13671.28125.1875.23047.23829.17188.28515.10937.33203.03906.3789-.02343.27345-.05469.23437-.08984.19922-.11328.17188-.12891.14453-.13672.12109-.28906.19531.23437.1211.20703.14453.1797.17187.15624.19531.1211.21094.09375.23047.05468.2461.01953.2539-.03515.3086-.10547.32812-.17188.32422-.23828.30469-.3086.26953-.37108.21484-.21094.08203-.23047.0625-.24219.03516-.26172.01562-.26172-.01562-.24218-.03516-.22266-.0625-.20313-.08203-.35937-.21484-.29297-.26953-.22266-.3047-.15625-.32421-.09375-.32813-.02734-.30859h.83203l.02735.2539.07812.23438.1211.21094.16015.1875.19531.15234.21875.11329.23828.07421.25782.02344.2539-.02344.2422-.07421.21874-.11329.1914-.15234.16016-.1875.125-.21094.07813-.23437.02344-.2539-.02344-.25392-.07813-.23437-.125-.21094-.16015-.1875-.1914-.15234-.21876-.11328-.24219-.07031-.2539-.02735-.25781.02735-.23829.0703-.21875.11329-.1953.15234-.16017.1875-.12109.21094-.07812.23438-.02735.2539h-.83203l.01953-.2539.05469-.23829.08984-.22656.125-.20703.15235-.1914.1836-.17188.20702-.15235.23047-.1328-.28516-.19532-.14062-.1211-.1289-.14452-.11329-.17188-.08594-.19922-.05859-.23437-.01953-.27344h.78516l.02343.21094.06641.1914.10547.16797.13672.14063.16406.10937.1875.08203.20703.05078.22266.01563.21875-.01563.20703-.05078.1875-.08203.16797-.10937.13672-.14063.10156-.16797.0664-.1914.02344-.21094-.02344-.21485-.0664-.1914-.10156-.16797-.13672-.14063-.16797-.10937-.1875-.08203-.20703-.05078-.21875-.01563-.22266.01563-.20703.05078-.1875.08203-.16406.10938-.13672.14062-.10547.16797-.0664.1914-.02344.21485h-.78516l.03906-.3789.10547-.33204.17578-.28515.23047-.23829.27734-.1875.32422-.13671.35938-.08204.38672-.02734"/><path fill="#ffffe0" fill-rule="evenodd" d="M173.08594 390.79297h22.17969v-10.1914h-22.1797v10.1914"/><path fill-rule="evenodd" d="M176.58594 382.4336h.50781v6.29687h-.78516v-4.49219h-1.39062v-.55469l.5625-.0664.25-.05078.23047-.08985.20312-.14062.17578-.21094.14063-.29688.10547-.39453m4.8125 0l.23047.01954.21875.05468.20703.08985.19922.12109.18359.14844.17188.17578.30078.42187.24218.4922.1797.54687.11327.57812.03516.59375-.03516.58985-.11328.58593-.17969.55469-.24218.5-.30078.42969-.17188.17969-.1836.15234-.19921.125-.20703.08984-.21875.0586-.23047.01953-.22656-.01953-.21875-.0586-.21094-.08984-.19531-.125-.1836-.15235-.17187-.17968-.30078-.42969-.2461-.5-.17969-.55469-.10937-.58594-.03906-.58984h.83203l.03125.5625.08203.5039.125.44532.16406.3711.1875.30077.21094.22266.22266.13672.22656.04688.22656-.04688.22266-.13672.21093-.22265.19141-.30079.16406-.37109.125-.44531.08203-.5039.02735-.5625-.02735-.5625-.08203-.5-.125-.4375-.16406-.36329-.1914-.29297-.21094-.21484-.22266-.13281-.22656-.04297-.22656.04296-.22266.13282-.21094.21484-.1875.29297-.16406.36328-.125.4375-.08203.5-.03125.5625h-.83203l.03906-.59375.10937-.57812.1797-.54688.24608-.49219.30079-.42187.17187-.17578.1836-.14844.1953-.1211.21095-.08984.21875-.05469.22656-.01953m4.95312 0l.23047.01954.21875.05468.20703.08985.19531.12109.1875.14844.16797.17578.3047.42187.24218.4922.17969.54687.11328.57812.03515.59375-.03515.58985-.11328.58593-.1797.55469-.24218.5-.30469.42969-.16797.17969-.1875.15234-.1953.125-.20704.08984-.21875.0586-.23047.01953-.23047-.01953-.21875-.0586-.20703-.08984-.19531-.125-.1836-.15235-.17187-.17968-.30078-.42969-.2461-.5-.17968-.55469-.10938-.58594-.03906-.58984h.83203l.03125.5625.08203.5039.125.44532.16016.3711.1914.30077.21094.22266.22266.13672.22656.04688.22656-.04688.22266-.13672.21094-.22265.1914-.30079.16016-.37109.1289-.44531.08204-.5039.02734-.5625-.02734-.5625-.08203-.5-.1289-.4375-.16017-.36329-.1914-.29297-.21094-.21484-.22266-.13281-.22656-.04297-.22656.04296-.22266.13282-.21093.21484-.19141.29297-.16016.36328-.125.4375-.08203.5-.03125.5625h-.83203l.03906-.59375.10938-.57812.17969-.54688.24609-.49219.30078-.42187.17188-.17578.18359-.14844.19531-.1211.20703-.08984.21875-.05469.23047-.01953m4.95313 0l.38672.02735.35937.08203.32031.13672.28125.1875.23047.23828.17188.28515.10937.33204.03906.3789-.01953.27344-.05859.23438-.08984.19921-.10938.17188-.1289.14453-.14063.1211-.28516.1953.23047.1211.20703.14453.1836.17188.15234.1953.125.21095.08984.23046.0547.2461.01952.2539-.03515.3086-.10156.32812-.17188.32422-.24219.3086-.30469.26953-.375.21094-.21093.08203-.22656.0625-.2461.03906-.26172.01172-.25781-.01172-.24219-.03906-.22265-.0625-.20703-.08204-.35938-.21093-.28906-.26953-.22266-.3086-.15625-.32422-.09375-.32812-.03125-.3086h.83203l.02735.25391.07812.23438.1211.21484.16015.1836.19531.15234.21875.11328.2422.07422.2539.02344.2539-.02344.2422-.07422.21874-.11328.19531-.15235.16016-.18359.1211-.21484.07812-.23438.02734-.2539-.02734-.25391-.07813-.23438-.12109-.21093-.16016-.1836-.1953-.15234-.21876-.11719-.24219-.07031-.2539-.02735-.2539.02735-.2422.07031-.21875.11719-.1953.15234-.16017.1836-.12109.21093-.07812.23438-.02735.2539h-.83203l.01953-.2539.05469-.23828.08984-.22266.125-.21094.15235-.1914.1836-.17188.20702-.15234.23047-.13281-.28516-.19532-.14062-.12109-.1289-.14453-.10938-.17188-.08984-.19921-.0586-.23438-.01953-.27344h.78906l.02344.21485.0625.1914.10547.16406.13672.14063.16406.10938.1914.08203.20704.05078.21875.01953.21875-.01953.20703-.05078.1914-.08204.16407-.10937.13672-.14063.10547-.16406.0625-.1914.02343-.21485-.02344-.21484-.0625-.1914-.10546-.16798-.13672-.13671-.16406-.11329-.19141-.08203-.20703-.05078-.21875-.01562-.21875.01562-.20703.05078-.19141.08203-.16406.11329-.13672.13671-.10547.16797-.0625.1914-.02344.21485h-.78906l.03906-.3789.10938-.33204.17187-.28515.23047-.23828.28125-.1875.32031-.13672.35938-.08203.38672-.02735"/><path fill="#ffffe0" fill-rule="evenodd" d="M306.23828 420.74219h22.17969v-10.19531h-22.17969v10.1953"/><path fill-rule="evenodd" d="M309.73828 412.38281h.50781v6.29297h-.78906v-4.48828h-1.38672v-.55469l.5586-.0664.2539-.0547.23047-.08983.20313-.14063.17187-.21094.14063-.29297.10937-.39453m4.8125 0l.23047.01953.21875.0547.20703.08983.19531.1211.1836.14844.17187.17578.30078.41797.2461.49609.17969.54688.10937.57812.03906.58984-.03906.59375-.10938.58594-.17968.55078-.2461.5039-.30078.42579-.17187.17969-.1836.15625-.1953.1211-.20704.09374-.21875.05469-.23047.01953-.23047-.01953-.21875-.05469-.20703-.09375-.19531-.1211-.1875-.15624-.16797-.17969-.30469-.42578-.24219-.5039-.17968-.55079-.11328-.58594-.03516-.59375h.83203l.02735.5625.08203.50782.1289.4414.16016.375.1914.30078.21094.22266.22266.13672.22656.04687.22656-.04687.22266-.13672.21094-.22266.1914-.30078.16016-.375.125-.4414.08203-.50782.03125-.5625-.03125-.5625-.08203-.5-.125-.43359-.16016-.36719-.1914-.29297-.21094-.21093-.22266-.13282-.22656-.04687-.22656.04687-.22266.13282-.21094.21093-.1914.29297-.16016.36719-.1289.4336-.08204.5-.02734.5625h-.83203l.03516-.58985.11328-.57813.17969-.54687.24218-.4961.30469-.41796.16797-.17578.1875-.14844.19531-.1211.20703-.08984.21875-.05469.23047-.01953m4.95313 0l.22656.01953.21875.0547.21094.08983.1953.1211.1836.14844.17188.17578.30078.41797.2461.49609.17968.54688.10938.57812.03906.58984-.03906.59375-.10938.58594-.17969.55078-.2461.5039-.30077.42579-.17188.17969-.1836.15625-.1953.1211-.21094.09374-.21875.05469-.22656.01953-.23047-.01953-.21875-.05469-.20703-.09375-.19922-.1211-.1836-.15624-.17187-.17969-.30078-.42578-.24219-.5039-.17969-.55079-.11328-.58594-.03906-.59375h.83594l.02734.5625.08203.50782.125.4414.16406.375.19141.30078.21094.22266.22265.13672.22657.04687.22656-.04687.22265-.13672.21094-.22266.1875-.30078.16406-.375.125-.4414.08204-.50782.03125-.5625-.03125-.5625-.08204-.5-.125-.43359-.16406-.36719-.1875-.29297-.21094-.21093-.22265-.13282-.22656-.04687-.22657.04687-.22265.13282-.21094.21093-.1914.29297-.16407.36719-.125.4336-.08203.5-.02734.5625h-.83594l.03906-.58985.11328-.57813.17969-.54687.24219-.4961.30078-.41796.17187-.17578.1836-.14844.19922-.1211.20703-.08984.21875-.05469.23047-.01953m4.95312 0l.38672.02735.35547.08203.32422.13672.28125.1875.23047.23437.17187.28906.10938.33204.03515.375-.01953.27343-.0586.23828-.08593.19922-.11328.16797-.1289.14453-.14063.1211-.28516.19921.23047.1172.21094.14843.17969.17188.15625.1914.12109.21485.08984.23046.0586.2422.01953.2578-.03516.3086-.10547.32422-.17187.32812-.23828.30469-.3086.26953-.3711.21484-.21093.08204-.23047.05859-.24219.03906-.26171.01172-.26172-.01172-.24219-.03906-.22266-.0586-.20703-.08203-.35547-.21484-.29296-.26953-.22266-.30469-.15625-.32812-.09375-.32422-.02735-.3086h.83204l.02734.25.07813.23829.12109.21093.16015.1836.19141.15234.22266.11719.23828.07031.25781.02734.2539-.02734.23829-.07031.22265-.11719.19141-.15234.16016-.1836.1211-.21094.07812-.23828.02734-.25-.02734-.2539-.07813-.23438-.1211-.21484-.16015-.1836-.1914-.15234-.22266-.11328-.23828-.07422-.2539-.02344-.25782.02344-.23828.07422-.22266.11328-.1914.15235-.16016.18359-.1211.21484-.07812.23438-.02734.2539h-.83204l.01563-.2539.0586-.24219.08984-.22266.125-.20703.15234-.1914.17969-.17188.21094-.15234.23046-.13281-.28515-.19922-.14063-.1211-.1289-.14453-.11328-.16797-.08594-.19922-.0586-.23828-.01953-.27344h.78516l.02344.21485.0664.1914.10547.16797.13672.13672.16406.11328.1875.08204.20704.05078.22265.01562.21875-.01562.20703-.05079.1875-.08203.16797-.11328.13672-.13672.10156-.16796.0664-.19141.02345-.21485-.02344-.21484-.0664-.1914-.10157-.16407-.13672-.14062-.16797-.10938-.1875-.08203-.20703-.05078-.21875-.01953-.22265.01953-.20704.05078-.1875.08203-.16406.10938-.13672.14062-.10547.16406-.0664.19141-.02344.21485h-.78516l.03516-.375.10938-.33204.17578-.28906.22656-.23437.28125-.1875.32422-.13672.35547-.08203.39062-.02735"/><path fill="#ffffe0" fill-rule="evenodd" d="M413.6289 423.4961h22.1797v-10.19141h-22.1797v10.1914"/><path fill-rule="evenodd" d="M417.125 415.13672h.51172v6.29687h-.78906v-4.49218h-1.38672v-.5547l.5586-.0664.2539-.05078.22656-.08984.20313-.14453.17578-.20704.14062-.29687.10547-.39453m4.8164 0l.22657.01953.21875.05469.21094.08984.1953.1211.1836.14843.17188.17578.30078.42188.2461.49219.17968.54687.10938.57813.03906.58984-.03906.59375-.10938.58594-.17969.55469-.2461.5-.30077.42968-.17188.17969-.1836.15234-.1953.125-.21094.08985-.21875.0586-.22656.01952-.23047-.01953-.21875-.0586-.20703-.08984-.19922-.125-.1836-.15234-.17187-.17969-.30078-.42969-.24219-.5-.17969-.55468-.11328-.58594-.03906-.59375h.83594l.02734.5664.08203.50391.125.4414.16406.375.19141.30079.21094.22266.22265.13671.22657.04688.22656-.04688.22265-.13671.21094-.22266.1875-.30078.16406-.375.125-.4414.08204-.50391.03125-.56641-.03125-.5586-.08204-.5-.125-.4375-.16406-.36327-.1875-.29297-.21094-.21485-.22265-.13281-.22656-.04297-.22657.04297-.22265.13281-.21094.21485-.1914.29296-.16407.36329-.125.4375-.08203.5-.02734.55859h-.83594l.03906-.58984.11328-.57813.17969-.54687.24219-.4922.30078-.42187.17187-.17578.1836-.14844.19922-.12109.20703-.08984.21875-.05469.23047-.01953m4.95312 0l.22656.01953.21875.05469.21094.08984.19531.1211.1836.14843.17187.17578.30078.42188.2422.49219.17968.54687.11328.57813.03906.58984-.03906.59375-.11328.58594-.17969.55469-.24219.5-.30078.42968-.17187.17969-.1836.15234-.1953.125-.21095.08985-.21875.0586-.22656.01952-.23047-.01953-.21875-.0586-.20703-.08984-.19922-.125-.1836-.15234-.17187-.17969-.30078-.42969-.24219-.5-.17968-.55468-.11328-.58594-.03907-.59375h.83594l.02735.5664.08203.50391.125.4414.16406.375.1914.30079.21094.22266.22266.13671.22656.04688.22656-.04688.22266-.13671.20703-.22266.1914-.30078.16407-.375.125-.4414.08203-.50391.02735-.56641-.02735-.5586-.08203-.5-.125-.4375-.16406-.36327-.1914-.29297-.20704-.21485-.22266-.13281-.22656-.04297-.22656.04297-.22266.13281-.21094.21485-.1914.29296-.16406.36329-.125.4375-.08204.5-.02734.55859h-.83594l.03907-.58984.11328-.57813.17969-.54687.24218-.4922.30078-.42187.17188-.17578.1836-.14844.19921-.12109.20703-.08984.21875-.05469.23047-.01953m4.94922 0l.39063.02734.35546.08203.32422.13672.28125.1875.22656.23828.17579.28516.10937.33203.03516.3789-.01953.27344-.0586.23438-.08594.19922-.11328.17187-.1289.14454-.14063.12109-.28515.19531.23046.1211.21094.14453.17969.17187.15234.19531.125.21094.08985.23047.0586.2461.01562.2539-.03125.3086-.10547.32812-.17188.32422-.23828.30469-.3086.26953-.37109.21484-.21484.08203-.22656.0625-.2461.03516-.2578.01562-.26173-.01562-.24219-.03516-.22265-.0625-.20703-.08203-.35938-.21484-.28906-.26954-.22266-.30468-.15625-.32422-.09375-.32813-.03125-.30859h.83594l.02735.2539.07421.23438.125.21094.16016.1875.1914.15234.22266.11328.23828.07422.25391.02344.25781-.02344.23828-.07422.21875-.11328.19532-.15234.16015-.1875.1211-.21094.07812-.23437.02735-.25391-.02735-.2539-.07812-.23438-.1211-.21094-.16015-.1836-.19532-.15234-.21875-.11718-.23828-.07032-.25781-.02734-.2539.02734-.23829.07032-.22265.11718-.19141.15235-.16016.1836-.125.21093-.07421.23437-.02735.25391h-.83594l.01954-.2539.05859-.23829.08984-.22656.1211-.20703.15625-.1914.17968-.17188.21094-.15235.23047-.1328-.28516-.19532-.14062-.1211-.1289-.14453-.11329-.17187-.08594-.19922-.05859-.23438-.01953-.27343h.78515l.02344.21484.0664.1875.10157.16797.13672.14063.16797.10937.1875.08203.20703.05078.21875.01563.22266-.01563.20703-.05078.1875-.08203.16406-.10938.13672-.14062.10547-.16797.0664-.1875.02344-.21484-.02344-.21485-.0664-.1914-.10547-.16797-.13672-.14063-.16406-.10937-.1875-.08203-.20703-.05078-.22266-.01563-.21875.01563-.20703.05078-.1875.08203-.16797.10937-.13672.14063-.10156.16797-.0664.1914-.02344.21485h-.78516l.03515-.3789.10938-.33204.17188-.28516.23046-.23828.28125-.1875.32422-.13672.35547-.08203.38672-.02734"/><path fill="#ffffe0" fill-rule="evenodd" d="M351.0664 330.28906h22.1797v-10.1914h-22.1797v10.1914"/><path fill-rule="evenodd" d="M354.5664 321.92969h.50782v6.29687h-.78516v-4.48828h-1.39062v-.5586l.5625-.0625.25-.05468.23047-.08984.20312-.14063.17578-.21094.14063-.29296.10547-.39844m4.8125 0l.23046.01953.21875.0586.20704.08593.19921.1211.1836.15234.17187.17578.30079.41797.24218.49219.17969.54687.11328.58203.03906.58985-.03906.59375-.11328.58203-.17969.55468-.24219.50391-.30078.42578-.17187.17969-.1836.15234-.19921.125-.20704.09375-.21875.05469-.23046.01953-.22657-.01953-.21875-.05469-.21093-.09375-.19532-.125-.18359-.15234-.17188-.17969-.30078-.42578-.24218-.5039-.1836-.5547-.10937-.58202-.03906-.59375h.83203l.03125.5625.08203.5078.125.44141.16406.375.1875.30079.21094.21875.22265.13671.22657.04688.22656-.04688.22265-.13671.21094-.21875.1914-.30079.16407-.375.125-.4414.08203-.50781.02735-.5625-.02735-.5625-.08203-.5-.125-.4336-.16406-.36719-.1914-.29296-.21094-.21485-.22266-.1289-.22656-.04688-.22657.04688-.22265.1289-.21094.21485-.1875.29296-.16406.3672-.125.43358-.08203.5-.03125.5625h-.83204l.03907-.58984.10937-.58203.1836-.54688.24218-.49218.30079-.41797.17187-.17578.1836-.15235.1953-.12109.21094-.08594.21875-.0586.22657-.01952m5.09375 0h.5078v6.29687h-.78515v-4.48828h-1.39062v-.5586l.5625-.0625.25-.05468.23047-.08984.20312-.14063.17188-.21094.14453-.29296.10547-.39844m2.82421 2.17578h.78516l.01953-.3164.0586-.28516.10156-.25391.13672-.21484.1836-.17188.22265-.1289.26562-.08204.3086-.02734.23828.02344.22265.0625.20313.10156.17969.13672.14843.17187.11329.20704.0703.23828.02735.26171-.02344.26954-.0664.22656-.10938.1914-.15234.16797-.20313.16407-.24609.16796-.63281.38672-.53906.3125-.4375.31641-.34766.32422-.26172.33594-.1914.35156-.125.3711-.07032.39452-.01953.41797h4.21094v-.74219h-3.33203l.08203-.28125.11719-.23828.14843-.20312.1836-.17969.23437-.17187.27735-.17579.71484-.41406.41797-.20703.34375-.23047.28125-.25.21875-.26953.16406-.27734.11328-.28125.0625-.28516.01953-.28125-.04297-.38672-.11718-.34765-.19141-.3047-.25-.26562-.30078-.21093-.34766-.16016-.3789-.09766-.40625-.03515-.4375.03515-.39454.09766-.35546.16797-.3047.23437-.25.3047-.18358.37108-.1172.44922-.03906.51563"/></g></defs><use xlink:href="#af"/></svg>