<svg xmlns="http://www.w3.org/2000/svg" role="img" xmlns:xlink="http://www.w3.org/1999/xlink" viewBox="142.45 309.95 326.84 171.84"><defs><clipPath id="a"><path d="M144 311.67188h1v168.65625h-1zm0 0"/></clipPath><clipPath id="b"><path d="M144 311.67188h324v168.65625H144zm0 0"/></clipPath><clipPath id="c"><path d="M389 477h7v3.32813h-7zm0 0"/></clipPath><clipPath id="d"><path d="M391 479h3v1.32813h-3zm0 0"/></clipPath><clipPath id="e"><path d="M467 311.67188h1V473h-1zm0 0"/></clipPath><clipPath id="f"><path d="M144 479h4v1.32813h-4zm0 0"/></clipPath><clipPath id="g"><path d="M147 479h3v1.32813h-3zm0 0"/></clipPath><clipPath id="h"><path d="M146 479h2v1.32813h-2zm0 0"/></clipPath><clipPath id="i"><path d="M153 479h9v1.32813h-9zm0 0"/></clipPath><clipPath id="j"><path d="M160 479h3v1.32813h-3zm0 0"/></clipPath><clipPath id="k"><path d="M159 479h2v1.32813h-2zm0 0"/></clipPath><clipPath id="l"><path d="M166 479h9v1.32813h-9zm0 0"/></clipPath><clipPath id="m"><path d="M173 479h3v1.32813h-3zm0 0"/></clipPath><clipPath id="n"><path d="M172 479h3v1.32813h-3zm0 0"/></clipPath><clipPath id="o"><path d="M180 479h8v1.32813h-8zm0 0"/></clipPath><clipPath id="p"><path d="M187 479h2v1.32813h-2zm0 0"/></clipPath><clipPath id="q"><path d="M193 479h9v1.32813h-9zm0 0"/></clipPath><clipPath id="r"><path d="M200 479h3v1.32813h-3zm0 0"/></clipPath><clipPath id="s"><path d="M206 479h9v1.32813h-9zm0 0"/></clipPath><clipPath id="t"><path d="M213 479h3v1.32813h-3zm0 0"/></clipPath><clipPath id="u"><path d="M220 479h8v1.32813h-8zm0 0"/></clipPath><clipPath id="v"><path d="M227 480h2v.32813h-2zm0 0"/></clipPath><clipPath id="w"><path d="M233 479h8v1.32813h-8zm0 0"/></clipPath><clipPath id="x"><path d="M240 480h2v.32813h-2zm0 0"/></clipPath><clipPath id="y"><path d="M246 479h9v1.32813h-9zm0 0"/></clipPath><clipPath id="z"><path d="M253 480h3v.32813h-3zm0 0"/></clipPath><clipPath id="A"><path d="M260 479h8v1.32813h-8zm0 0"/></clipPath><clipPath id="B"><path d="M267 480h2v.32813h-2zm0 0"/></clipPath><clipPath id="C"><path d="M273 479h8v1.32813h-8zm0 0"/></clipPath><clipPath id="D"><path d="M279 480h2v.32813h-2zm0 0"/></clipPath><clipPath id="E"><path d="M286 478h8v2.32813h-8zm0 0"/></clipPath><clipPath id="F"><path d="M292 480h2v.32813h-2zm0 0"/></clipPath><clipPath id="G"><path d="M300 478h7v2.32813h-7zm0 0"/></clipPath><clipPath id="H"><path d="M314 477h6v3.32813h-6zm0 0"/></clipPath><clipPath id="I"><path d="M329 476h3v4.32813h-3zm0 0"/></clipPath><clipPath id="J"><path d="M343 476h2v4.32813h-2zm0 0"/></clipPath><clipPath id="K"><path d="M355 476h4v4.32813h-4zm0 0"/></clipPath><clipPath id="L"><path d="M369 476h2v4.32813h-2zm0 0"/></clipPath><clipPath id="M"><path d="M382 476h3v4.32813h-3zm0 0"/></clipPath><clipPath id="N"><path d="M394 477h6v3.32813h-6zm0 0"/></clipPath><clipPath id="O"><path d="M409 476h3v4.32813h-3zm0 0"/></clipPath><clipPath id="P"><path d="M423 476h2v4.32813h-2zm0 0"/></clipPath><clipPath id="Q"><path d="M435 476h3v4.32813h-3zm0 0"/></clipPath><clipPath id="R"><path d="M448 476h4v4.32813h-4zm0 0"/></clipPath><clipPath id="S"><path d="M462 476h3v4.32813h-3zm0 0"/></clipPath><clipPath id="T"><path d="M144 466h4v2h-4zm0 0"/></clipPath><clipPath id="U"><path d="M144 452h4v3h-4zm0 0"/></clipPath><clipPath id="V"><path d="M144 439h4v2h-4zm0 0"/></clipPath><clipPath id="W"><path d="M144 426h4v2h-4zm0 0"/></clipPath><clipPath id="X"><path d="M144 412h4v4h-4zm0 0"/></clipPath><clipPath id="Y"><path d="M466 411h2v3h-2zm0 0"/></clipPath><clipPath id="Z"><path d="M465 412h3v3h-3zm0 0"/></clipPath><clipPath id="aa"><path d="M144 398h4v5h-4zm0 0"/></clipPath><clipPath id="ab"><path d="M466 399h2v3h-2zm0 0"/></clipPath><clipPath id="ac"><path d="M144 385h4v4h-4zm0 0"/></clipPath><clipPath id="ad"><path d="M466 385h2v3h-2zm0 0"/></clipPath><clipPath id="ae"><path d="M144 372h4v4h-4zm0 0"/></clipPath><clipPath id="af"><path d="M466 372h2v3h-2zm0 0"/></clipPath><clipPath id="ag"><path d="M144 358h4v5h-4zm0 0"/></clipPath><clipPath id="ah"><path d="M144 344h3v6h-3zm0 0"/></clipPath><clipPath id="ai"><path d="M466 345h2v3h-2zm0 0"/></clipPath><clipPath id="aj"><path d="M144 330h1v8h-1zm0 0"/></clipPath><clipPath id="ak"><path d="M466 332h2v4h-2zm0 0"/></clipPath><clipPath id="al"><path d="M144 318h3v6h-3zm0 0"/></clipPath><clipPath id="am"><path d="M466 318h2v3h-2zm0 0"/></clipPath><g id="an" clip-path="url(#clip1)"><path fill="#fff" fill-opacity="0" fill-rule="evenodd" d="M0 0h1000v1000H0zm0 0"/><path fill="#d3d3d3" fill-opacity="0" fill-rule="evenodd" d="M162.15234 355.86719l-.23437.29297.0586.23437.11718.17188.17578.23437.29297.34766.11328.0586.11719-.17188.0586-.23438.17577-.17578.46485-.17578h.69922l.23437.29297.28906.8164.0586.17579.17578.23046.35156.23438.69922.69922.17188.17578.23437.34765.23438.41016.28906.58203.41015.46485.23047.23437.23438.17578.11719.23047.17578.29297.17187 1.16406v.23438l.0586.28906.05859.11719.11719.11719.34765.41015.11719.17188.17578.17578.17578.23437.11719.17188.17188.35156.05859.23438.23437.40625.23438-.0586-.17578.17578-.0586.92969h-.58203l-.23437-.11328-.34766.11328-.11719.11719-.05859.29297-.0586.17578-.11718.17187-.46484.29297-.0586.23438-.0586.11328v.64453l.0586.17187v.41016l.0586.0586v.40624l.05859.40625.11719.17579.05859.05859.23047.64062-.0586.29297v.69922l-.05859.58203v.23438l-.0586.23047-.05468.35156v1.92187l.05469.1172h.42578l-.36719.11718-.02344.35156.89063 1.16797 1.74219.53906 1.33984.35938v.53906l.08984.8086.53516.71484 1.51953.26953.89063-.08594.08984 1.16406.53516.1797 1.16015-.1797 2.05469-.98437 1.16016-.36328 1.8789-.17578 1.69531-.1797-.17968.71876-1.51563.08594-1.25.08984-.80469.26953-1.07421.8086.26953.71875.53515.89843-.17968.625-.26563.8086.26563 1.07812.625.89844.80468.17969 1.25-.1797-.26562.72267.09766.5039.05468.29297v.17188l.0586.29296v.40625l.17578.1172.35156.11718h.40625l.29297-.17578.11328-.11719.0586-.11719.11718-.23047.0586-.17578.35156-.46484.23047-.17578.17578-.0586.17578.0586.0586.17578.11718.98828.05469.46875.0586.17188.11718.23437.17578.0586.8164.05859h.28907l.11719.23437.05859.40625.0586.35156v1.10547l.11718.29297.11719.34766.28906.69922.17578.35156.58203.7539.35157.17579.17187.0586.46875.23437.64063.46484.34765.23438.29297.17578.29297.05468.23047.0625.8164.34766.29297.17578.11328.17188.35157.35156.11719.17578.52343.64063v.28906l.0586.35156v.34766l.05859.35156.0586.28906.11718.0586.17188.05859h.17578l.58203.23437.17578.1172.17578.28905.17578.23438.11328.23437.29297.23047.11719.11719v.41016l.0586.05468.28906.23438.23437.11719.0586.11718.11718.17188.0586.11719.23047.23437.05859.17578.23437.0586.1172.05859-.1172.11328-.05859.11719v.11719l-.11719.29296-.11719.28907v.58203l.17579.11719.11718.05859.0586.11719.11719.11719.11328.05859.17578.34765.0586.35157.05858.40625v.17578l-.05859.17578-.11719.69922v.17187l.1172.17579.29296.29296h.40625l.17578.1172.11719.17187.11719.29296v.23438h-.52735l-.23047-.23438h-.23437l-.17578.0586-.0586.69922.0586.34765.11719.17579.17578.41015.11718.23047.28907.46875.17578.05469h.52344l.23437.0586.75781.64062.0586.29296v.23438l.05859.0586.23047.34765v.35156l-.11719.17188v.29297l.29297.28906.29297.17578.17187.0586.29297.17577.29297.1172.58203.40624.28906.23438.29297.17578.21875.16015.01563.01172.23047.17579.64062.52343.17578.23438.1172.17578.17577.17578.11328.17188v.64062l.1172.17578.46874.11719.58203.11719.23438.05859.23047.11328.29297.11719.11328.0586.58593.35156.28907.17187.17578.0625.17578.05469.17578.0586.69922.35155.28906.17579.23438.05468.28906.17578.23437.1172.64063.40624.29297.11719.17187.0586.23438.05859.41015.05859.23047.0586.23438.11718.0586.17188-.41017.17578.46875.0586.0586.29296.11328.23438.17578.05468.23438.0586.17578.05859.40625.11719.64062.23437.11719.17188.0586.23437v.17578l-.0586.1172-.0586.40624.23438.23438.11719.05859.34766.11719.64062.23047.17578.11718.28906.1172.17578.17577.23438.46485.58203 1.10546.17578.17579.34766.17578.17578.11719.35156.11718 1.04688.52344.23437.0586.46485.11327.29297.0586.46484.17578.75781.58203.23438.23438.34765.46484.17578.17578.28907.23438.8164.69921.29297.17579.28906.28906.29297.17578.29297.28906.69531.64063.17578.17578.29297.23437.28907.23438.46875.28906.64062.58203.34766.23438.23437.29297.34766.34765.35156.46485.9336.99218.34765.40625.11719.17579.23437.05859.11328.11719.64454.17578.23047.11328.23437.0586.29297.17577.23047.1172.9336.69921.40624.40625.23438.17578.40625.17578.23437.11719.8164.34766.34766.23437.23438.11719.29297.28906.23047.11719.7578.35156.35157.17188.23047.05859.29297.11719.23437.0586.8711.17577h.8164l.46875.23047.17188.0586.875.69921.46484.1172.29297.05858.17578.0586.23047.0586.46875.05859.34766.05859.35156.0586.40625.05859h.29297l.17187.0586v.23046l.17578.17578h.29297l.34766.0586.35156.05859.69922.11719h.64063l.46484-.23438.29297-.17578.17187-.11719.41016-.17187.28906-.17578.9336-.46485.46875-.29297.52343-.29296.46485-.17188.46484-.17578 1.05078-.46485.28906-.11718.41016-.11719.28906-.11719.52735-.17578 1.51562-.69922.58203-.34765.28907-.0586.29297-.0586.34765-.11718.875-.23047.35156-.11719h.11329l.23437-.05859.875-.23437.23438-.0586h.8125l.35156-.0586.8164-.11718.17188-.0586.35156-.05468.29297-.0586.23047-.05859.8164-.17578.17579-.0586h.34765l.23438-.05859.46484-.11718.75781-.17188.23438-.0586h.34765l.41016-.11718.28906-.0586 1.28516-.05859h.28906l.41016-.0586.23047-.05858h.17578l.875-.1172h.40625l.41015-.11718h.34766l.35156-.11328.8711-.0586h1.75l1.04687.28907.41016.11719.28906.11718.35156.11719.28907.11719 1.05078.17187.28906.0586h.29297l.29297.05859.17187.0586.41016.05859.17187.0586.1172.05858h.11718l.11719.0586.35156.0586h.11328l.41016.0664 1.92187.39453 1.92578.39453 1.51953.44922 1.69532.71875 2.14453.80469 1.60547-.71875 1.42968-.80469 1.16016-1.07813 1.25-.44921 3.03516-.71875 1.875-.35938 2.14453-1.34765 2.23437-1.25391 2.5-1.25781 1.69531-.44922 1.78516-.17969 1.16016-.26953.625.53906 1.33984-.26953.71485-.98828.98437-1.34375.44531-.17969.80469-.35937 1.875-.53907 1.78516-.44921 1.25-.26954 1.16015-.08984 1.69922-.08984 1.96094-.26954 1.25-.08984h.53906l.625-.08984h.89063l2.14453-.17969 2.41015-.17969 2.58985-.08984 1.69531.17969 1.60938.08984 1.42968.35938 1.16016.71875 1.875.98828 1.16015 1.52734.26563.71484.6289.08985.35548.89844.53515.53906.53516 1.52734 1.07422.35938h.53515l-.80469.53515.08985 1.70703.71484 2.69532.89063.80468.89453.98829.71484 1.2578 1.78516.53907 1.51953-.17969.35547 1.34375 1.60937-.80469.98047-.53906.26953.26953.31641-.21484.21875-.14453.80078.44922.44922-.35938h.35547l.53515-.26953.53907-.71875.53515-.26953.625-.98828 1.16016.44922.83984.3711 1.39454.61718 1.6953-.17969h1.60548l1.78515.08985.17969-1.70704.53516-1.34375.80468.26954.4922.84765.40233.40625-.08984.53906v.35938l.71485.44922.71093-.26953h1.42969l.35938.98828.4453 1.25781.71485 1.34375 1.25.6289 1.69531.62891.71485-.17969.17969-.53906.98046-.08984.44922.35937.08594 1.25782-.26563.6289-.53515.17969v.53906l.71484.98438.26563.53906.98437.98828.80078 1.07813-.26562.35937-.08985.89844-.625 2.33203-.35546 2.0664-.08985 1.79298-.17969.71875-.08984.53906v1.4375l-.98047 1.88281-.35937 1.70703-.53516.89844-.80469 1.16797-.26562.53906 2.05469 1.2539.08593.35938-.35546.53906-.08985-.17968v.80859l.08985 1.4375-.44532.71484-1.07422.09375-.26562.71485.53515.89844.8047.71875 1.16015.80859 1.33984.26953.44531.35938-.35546.44921-1.78907-.08984-1.25-.44922-.71484-.71875-.625-.08984-.17578 3.58984-.1875 1.3086h89.35937V311.70313h-55.26953v49.08203l.76172.125 3.28906.54296 2.02344 2.83594v2.7539l2.35156.33204 2.34766.33203h4.05078l-1.3789 4.16016-2.02344.70703-2.02344.70312-.54297.34375-2.59375 1.6172-.1875.11718-2.02344-2.07813-.73046-2.74218-2.67188-2.07813-1.375-3.5-.0664-.08203-1.95704-2.67188 2.75-1.41796v-49.08204H294.42187v91.41407l.1172.03125.1328.01172.07422.07421.10547.04688.08985.0586.08593.05859.08985.0586.29687.29687.0586.08984.03125.11719.02734.11719.01563.13671-.03125.1172-.0586.08983-.0586.08594-.04296.10547-.04688.10156-.02734.1211v.14453l.17578.26953.14844.14844.07422.08594.07422.07421.04296.10547.0625.08985.0586.08593.04297.10547.0586.08985.04687.10156.04296.10547.0586.08594.11719.17968.07421.07422.0625.08594.0586.08984.04297.10547.0586.08985.05858.08593.0625.08985.0586.08984.04297.10156.11719.17969.07421.07422.0586.08594.07422.07421.08984.0586.10547.04687h.14844l.1328-.01562.13282.01562.10156-.04687.07422-.07422.04688-.10156-.01563-.13281v-.14844l-.04687-.10547-.02735-.11719-.04687-.10156-.02735-.1211-.04296-.10156-.0625-.08984-.04297-.10156-.04297-.10547-.03125-.11719-.01563-.13281-.01171-.13672.08593-.0586.0586-.08593.12109-.03125.04297.10547.01562.1328v.1172l.0586.10156.0586.08984.08983.0586.14844.14843.0586.08985.04296.10547-.01171.10156.08593.0586.10547.04687.08594.0586.08984.05858.07422.07422-.11719.02735-.10546.04687-.08594.0586-.07422.07421-.0586.08985-.0625.08594-.02734.12109-.04687.10156-.04297.10547-.03125.11719-.01172.13281-.01563.13281v.14844l.02735.11719.04687.10547.04297.10156.0586.08984.07421.07422.08985.0586.07422.07421.08984.0586.0586.08984.04296.10547.04688.10156.11719.03125.1328.01563h.14845l.11718-.03125.10547.04297.04297.10547.04688.10156.02734.1211L299.5 410l.02734.11719.03125.1211.02735.11718.10547.04297.10156.04687.13281-.01562.14844.14844.0625.08593.07422.07422.07031.07422.08984.0625.10547.04297.10156.04297.1172.03125.13671.01562.11719-.03125.07422-.07422.02734-.11718-.01172-.13282-.03125-.12109-.02734-.11719.04297-.10547h.11719l.08984.0625.11719.02735h.14843l.13282.01562h.14843l.13282.01563.1328-.01563h.14845l.1328-.01562.13282-.01172.13672.01172.11719-.02735.13281-.01562.1914-.0586-.05859.17579-.01562.1328-.02735.1211-.01562.13281-.0586.08594-.1328.01563-.10548.04687-.10546.04297-.1172.03125-.11718.02735-.26563.03125h-.14843l-.13281.01562-.07422.07422.05859.08594.14844.14843.11719.1797.07421.0703.08985.0625.08984.0586.08594.0586.08984.05858.10156.04297.10547.0625.10547.04297.08594.0586.10547.04687.10156.04297.17969.11719.0586.08984-.04298.10156-.04687.10547.01562.13281.22266.22266.0586.08985.04296.10156.03125.1211.04297.10155.01563.13282.03125.11718.01171.13672.03125.11719.14844.14844.10156.04297.10547.04296.1172.03125.1328.01563.13672.01563h.11719l.11719-.03125.08984-.0586.04297-.10547.04688-.10156.04296-.10547.03125-.11719.01172-.1328v-.14845l-.01172-.1328-.01562-.13282-.03125-.11719-.04297-.10547-.04688-.10547-.04296-.10156-.04297-.10547-.01563-.13281.01563-.13281.02734-.11719.03125-.11719.02735-.1211.04687-.10155.08984-.0586.08594-.0625.07422-.07422.08984-.05859.22266-.22266.0586-.08593.07421-.07422.11719-.17969.0586-.08594v-.14844l-.07423-.07421-.10156-.04688-.10547-.04297-.10156-.04297-.0586-.08984-.04687-.10547-.02734-.11719.08984-.05859.11719-.03125.10156-.04297.17969-.11719.14844-.14843.01172-.13282-.01172-.10546-.08985-.0586-.1328.01563h-.14845l-.1328.01562-.13282-.01562-.1211-.03125-.08593-.0586-.07422-.07422-.0586-.08984-.0625-.08594-.11718-.17969-.0586-.08593.03125-.1211.08594-.05859.1211-.03125.05859-.08594v-.1211l-.03125-.11718-.0586-.08984-.05859-.08594-.04687-.10547-.02735-.11719-.01562-.1328.0586-.08985.07421-.07422.08984-.0586.1172-.17968.07421-.07422.0586-.08594.14843-.14844.1211-.03125.1328-.01562.13282.01562.07422.07422.04297.10547.01562.13281-.03125.1172-.11719.03124-.1328.01172-.14844.14844-.04297.10547-.04688.10156-.02734.1211-.03125.11718v.14844l.03125.11719.04297.10546.05859.08985.07422.07031.07422.07422.11719.03125.12109.02734.11719-.02734.1328-.01563h.1172l.08984.0586.07422.07422.04687.10546.0586.08594.10156.04688.13281.01562.10547.04297.08594.0586-.01172.10546-.07422.07422-.17969.11719-.05859.08984-.08984.0586-.07032.07422-.07421.07421-.0625.08985-.02735.11719-.01562.1328.01562.13282-.01562.13281v.14844l.01562.13281.02735.1172.03125.12108.07421.07422.08985.0586.08594.0586.08984.05858.11719.03125v.08594l-.10157.04688-.08984.0586-.26563.03124-.11718.02735h-.14844l-.10547.04296-.10156.04688-.0586.08984-.0625.23438-.01171.13281-.03125.1211-.01563.1328v.29298l-.01172.1328.01172.13673.01563.1328.1328.01563.13282.01172.1211.03125.08593.0586.07422.07421.04688.10547.04296.10157.01563.1328v.44532l-.01563.13281v.44532l.03125.26562.02735.11719.01562.13281.03125.11719.08594.21094.03125.26562v.14844l-.03125.11719-.02734.11718-.03125.1211-.02735.11719-.03125.11718-.03125.1211-.01171.1328-.01563.13282.08984.0586.1172-.03125.10155.01562.04688.10547-.03125.26562v.44141l-.04297.10547-.04688.10547-.04296.10156-.04297.10547-.0586.08594-.03125.12109-.04296.11719-.03125.11719-.01563.1328.01563.13282.05859.08984.10547.04688.08594.0586.05859.08593-.01172.13672-.03125.11719-.04297.10156v.44531l-.01562.13281v.14844l-.03125.11719-.04297.10547-.02735.11719-.04687.10546-.04297.10157-.03125.12109-.02734.11719-.03125.13281-.03125.11719-.02735.11719-.04297.10546-.03125.1172-.03125.12108-.01171.13282-.01563.13281v.29688l.02734.11718v.14844l.04688.39844.02734.11719.0586.08984.12109.03125h.14844l.13281-.01563.0586.08985v.11719l-.0586.08984-.08984.0586-.10157.04296-.10546.04688-.08985.05859-.08594.0586-.13671.01562-.1172-.03125-.1328-.01563-.10157.04688-.0625.08594-.01172.13671-.01562.13282-.03125.11719-.02735.11718-.01562.13281-.03125.1211v.29687l.01563.13282.03125.11718v.14844l.01171.13281v.14844l-.02734.11719-.04688.10156-.02734.1211-.03125.11718-.0586.08985-.07421.07421-.10156.04297-.10547.04688-.11719.02734-.1211.03125-.10156-.04687.0586-.08594.10547-.04688.02734-.11718.03125-.11719.02734-.1211.03125-.11718v-.14844l.01563-.13281-.03125-.11719-.04297-.10547-.10547.01563-.07422.07422-.10156.04296-.08984.0625-.07422.07422-.04297.10157-.01563.1328-.03125.1172L304.25 426l-.03125.11719-.02734.11719-.03125.12109-.02735.11719-.03125.11718-.04297.10547-.08984.0586h-.08984l-.1172-.03125-.03124-.08594.01562-.13672-.03125-.11719v-.14844l-.01171-.1328v-.14844l-.0625-.23438-.02735-.1211-.04297-.10156-.04687-.10546-.0586-.08594-.05859-.08985-.04297-.10546-.0625-.08594-.14844-.14844-.0703-.07422-.10548-.04687-.10547-.04297-.10156-.04297-.29687-.29688-.08985-.07421-.08594-.0586-.10546-.04297-.08985-.0625-.08594-.0586-.10546-.04296-.08985-.0586-.08594-.0625-.07421-.0703-.10547-.04688-.08594-.0586-.10547-.04296-.08984-.0625-.10156-.04297-.10547-.04297-.08594-.0586-.10547-.04687-.10547-.04297-.10156-.04687-.08985-.0586-.10156-.04297-.10547-.04296-.08984-.0625-.11719-.02735-.13281-.01562-.13281.01562H299.75l-.13281.01563-.11719-.03125-.08984-.0586-.07422-.07422-.08985-.05859-.10156-.04688h-.14844l-.12109-.02734-.10156-.04297-.07422-.07422-.11719-.17968-.08984-.0586-.10156-.04297-.08985-.0625-.10547-.04296-.08984-.0586-.08594-.0586-.10547-.04687-.0586-.08594-.05858-.08984-.04297-.10547-.04688-.10156-.07422-.07422-.08594-.0586-.07421-.07421-.08985-.0586-.22265-.22265-.04297-.10547-.03125-.26563.10547-.04296h.14453l.10547.04296.07421.07422.08985.0586.08594.0586.10546.04687.08985.05859.14844.14844.0703.07422.14845.14843.0625.08594.07421.07422.08594.0586.07422.07421.08985.0625.08984.0586.08594.05859.26953.17578.10156.04688.10547.04296.10156.04297.04688-.07421.05859-.08594.07422-.07422.07031-.07422.10547.04297.07422.07422.0586.08984.04296.10156.04688.10547.04296.10547.1211.02735.11719-.02735.07421-.08984.04297-.10547.0586-.08985.07422-.07421.10546-.04297.1172-.02735.1328.01172.08985.0586.14844.14843.05859.08985.04297.10547.04687.10156.04297.10547.04297.10156.10547.04688.10547.04296.13281.01563.08594-.0586.0586-.08984.07421-.07422.10547-.04297.11719.02735.10547.04687.10156.04297.10547.04297.10156.04688.17969.11718v.11719l-.01563.13281.01563.13281.01562.13672.0586.08594.10156.04688.1211.02734.11718.03125h.14844l.11719-.03125.05859-.08984.17969-.1172.05859-.08983.07422-.07422.0586-.08594.11718-.17969.17969-.11719.11719.03125.08984.0586.04297.07422-.01563.1328v.1172l.08985.05859h.14843l.13282-.01563.1328-.01171.26563-.03125.10547-.04297.11719-.03125.1211-.02735.07421-.07421.07031-.07422.0625-.08985-.01562-.10547-.04688-.10156-.10156-.04297-.10547-.01562-.11718.02734-.26563.03125h-.14844l-.07421-.07422-.08985-.0586-.11719-.03124-.11718-.02735-.13282-.01562h-.14843l-.13282.01563h-.29687l-.10547-.04688-.14844-.14844-.04297-.10156-.05859-.08984.22266-.22266.08593-.0586.10547-.04296.11719-.03125.13281-.01563.13281.01563.13672.01562.10157.04297.1328-.01172.08985-.0625.10156-.04297.0625-.08984-.04687-.10156-.08984-.0586-.1172-.03125-.10155-.04296-.0586-.08985-.0625-.08984v-.11719l.01563-.13281.10547-.04688.07421-.07031v-.1211l-.08984-.05859-.03125-.11719.08985-.05859.07421-.07422.04297-.10547.0586-.08984.04687-.10156.01563-.13281v-.14844l-.04688-.10547-.04297-.10156-.08984-.0586-.13281-.01562-.10157-.04297-.13671-.01563-.1172-.03125h-.4453l-.13282-.01562-.13281-.01172-.13281-.01563-.11719-.03125h-.14844l-.13281-.01562-.13281-.01172-.26563-.03125-.1211-.04297-.08593-.0586-.07422-.07421v-.14844l.01172-.13281.10547-.04688.10156-.04296.13281-.01563h.15235l.13281-.01562h.29297l.1211.03125.10156.04296.08984.0586.23438.0625.12109-.04688.08984-.05859.10156-.04297.13282-.01562.10547.04296.10156.04688.13281.01172.1211-.02735h.14453l.12109-.03125.11719-.02734.10547-.04687.07421-.07422.08594-.0586.14844-.14843.0586-.08594.04687-.10547.02734-.11719.01563-.10547-.10156-.04296-.08985-.0586-.11719-.03125-.10546-.04297-.08985-.0625-.07422-.08594-.07422-.07421-.10156-.04297-.10547-.04688-.10156-.04297-.0586-.08984-.04687-.10156-.08594-.21094-.0625-.08594-.05859-.08984-.07422-.07422-.08594-.0586h-.26953l-.11719.03126-.08984.05859-.10156.04297-.13281.01562-.10547-.01562-.02735-.11719-.0625-.08984-.11718-.03125-.10157-.04297-.14843-.14844-.03125-.11719-.01563-.10546.07422-.07422.17969-.1172.11719-.02733.11718-.03125.13672.01562.10156.04297.10547.04297.10156.04687.10547.04297.1172.03125.1328.01563.1172.02734.1328.01563.10547-.01563.08985-.0586-.07422-.07421-.10547-.04297-.07422-.07422-.07422-.08984-.14844-.14844-.08593-.0586-.08985-.05859-.07422-.07422-.08984-.0586-.10156-.04687-.1211-.02734-.10156-.04688-.10547-.04296-.11719-.03125-.10156-.04297-.1211-.03125h-.14843l-.11719.03125-.10546.04297-.08594.0625-.17969.11718-.08594.0586-.08984.0586-.10547.04687-.08594.05859-.10547.04297-.10156.04297-.10547.04687-.07422.07422-.05859.08985-.0586.08593-.04687.10547-.0586.08594-.07421.07422-.13281-.01172-.1172-.03125h-.11718l-.07422.07422-.08984.0586-.07422.07421-.08984.0586-.08594.05859-.10547.04687-.10156.04297-.13672.01563-.10156-.04297-.14844-.14844-.10547-.04688h-.08594l-.10547.04688-.10156.04297-.1211.03125-.11718-.03125-.07422-.07422v-.11719l.03125-.1211.07422-.0703.0586-.08985.07421-.07422.11719-.03125.10547-.04296h.29297l.13281-.01563.13672-.01563.10156-.04296.08985-.0586.10156-.04687.08984-.0586.13281-.01171.08985.05859.13281.01172.08984-.0586.08594-.05859.10547-.04297.08984-.0586.08594-.0625.08985-.05859.14843-.14843.0586-.08594.05859-.08985.10547-.04296.13281-.01563.11719.02735.1211.03125.05859-.0586.05859-.08984.03125-.26563.02734-.11719.10547.01172.13281.01563.10157-.04297.08984-.0586.0586-.08984.07421-.07422.0586-.08984.04687-.10156.01172-.13281-.01172-.13282-.04687-.10547-.14844-.14843-.0586-.08985-.05859-.08594-.04297-.10546v-.44532l.01563-.1328v-.14845l.01172-.1328-.0586-.0586-.08984.0586-.10156-.04298-.17969-.11719-.08594-.05859-.0625-.08984-.0586-.08985-.07421-.07421-.08594-.0586-.1211.03125-.10155.01172-.10547.04688-.08594.05859-.10547.04297-.14844.14844-.08984.05859-.08594.0586-.08984.0625-.10547.04296-.13281.01563v-.1211l.10547-.04297.11718-.03125.07422-.0703.04297-.10548v-.14844l-.02734-.11718-.14844-.14844-.13281-.01563h-.14844l-.11719.03125-.10547.04297-.10156.04297-.08984.0625-.11719.02735-.07422-.07422.01172-.13281-.04297-.10157-.04297-.10547-.08984-.05859-.11719.02734-.1211.03125-.11718.03125-.10156.04297-.1211.03125-.10156.04297-.10547.04297-.08984.0586-.10156.01562v-.11719l.01562-.13281-.0586-.08985-.07421.04297-.14844.14844-.0586.08985-.07421.07421-.04688.10547-.04296.10156-.07422.07422-.0586.08985-.07422.07422-.05859.08593-.07422.07422-.08984.0625-.07422.07031-.07422.07422-.10156.01563-.13281.01562-.10547-.04296v-.1211l.14843-.14844.04297-.10156.0586-.08984.04687-.10156.04297-.10547.0586-.08985.03124-.11719.04297-.10156.03125-.1211.02735-.11718.04687-.10547.04297-.10156.04297-.10547.07422-.07031.08984-.0625.08985-.0586.10156-.04296h.29687l.26563-.03125.10547-.04297-.07422-.07422-.11719-.03125-.10547-.04297-.08984-.0586-.10156-.04687-.08985-.0586-.10156-.04296-.10547-.04297-.08984-.0625-.08594-.0586-.10547-.04296-.10156-.04297-.1211-.03125-.11718-.03125-.10157-.04297L297.5 410.25l-.10156-.04297-.08985-.0586-.04296-.10546-.01563-.13281.10156-.04297.13281-.01563.13672.01563.13282-.01563.10156-.04297.0586-.08984.01562-.10547-.08985-.0586-.07421-.07421-.10157-.04297-.08984-.0586-.14844-.14843-.04297-.10547-.01562-.13281v-.29297l-.0586-.08985-.08984-.05859-.07422-.07422-.04297-.10547-.03125-.11718-.0586-.08985-.07421-.07422-.11719-.02734-.07422-.07422-.08984-.0586-.08984-.0625-.08594-.05859-.07422-.07421-.0586-.08594-.04687-.10547-.08594-.0586-.14843-.14843-.19532-.0586-.1328.01563-.10157.04297-.07422.07422-.04688.10156-.04296.10547-.0586.08984-.0586.08594-.29687.29687-.08984.0586h-.08594l-.0625-.08594-.04297-.10547.03125-.11719.0586-.08984.02734-.11719-.01172-.13281-.08984-.0625-.10547.04688-.11719.02734-.11719.03125-.26953.17578-.10156.04688-.11719.02734-.10546.04687-.08985.0586-.10156.04297-.0586-.08594-.04687-.10547.01563-.13281.04687-.10547.07031-.07422.07422-.07031.0586-.08985v-.14843l-.04297-.10547h-.23829l-.10156.04687-.03125.11719-.02734.11719-.03125.1211-.07422.04296-.13281.01563-.07422-.04688-.04297-.10156-.04297-.10547-.04687-.10156-.04297-.10547-.1211.03125-.10156.04297-.13281.01562-.11719.03125-.10547.04297-.08984.0586-.10156.04687-.1211.02734-.13281.01563-.10156-.04297-.0586-.08985-.04687-.10546-.04297-.10157-.04297-.10546v-.1172l.0586-.08984.08593-.05859.17969-.11719.10156-.04687.10547-.04297.10547-.0586.10156-.04296.08985-.0625.10156-.04297.10547-.0586.10156-.04687.08984-.0586.10547-.04296.10156-.04297.08985-.0625.10156-.04297.13672-.01563.11719.03125.10156.04297.1211.03125.10156.04297.10546.04688.10157.04296.10547.04297.10156.04688.10547.04297.10156.04297.10547.04687.08594.0586.10546.04296.1172.03125.10546.04297.10156.04688.08985.0586.10547.04296.10156.04297.10547.04687.11719.02735.10156.04687.1211.02735h.14843l.08594-.0586.01562-.10156.0586-.08984-.02735-.1172-.07422-.07421-.11719-.17969-.07421-.07422-.08985-.07421-.17969-.1172-.08593-.05859-.10547-.04296-.10156-.04688-.26954-.17578-.05859-.08985-.07422-.07421-.0586-.08985-.04296-.10156-.03125-.11719-.01563-.13672v-.5625l-.01171-.1328-.01563-.13282-.03125-.11719-.01562-.13281-.01172-.13281-.03125-.1211-.22266-.22265-.0586-.08594-.01562-.10547.03125-.11719.13281-.01562v-91.41406H172.9922v1.45312l-.0586.23438-.35156 1.05078-.17187.52343-.1172.34766-.17577.41016-.11719.17187-.23438.29297-.23046.0586h-.35157l-.11718.05859-.23047.40625v.29297l.11719.17578.23046.23047.1172.23437.64062.75781.29297.46485.17578.23437.23047.35156.23437.34766.64063.8164.17578.46485.17187.41016.11719.69531.17578.46875.11719 1.39844.0586.46484v.875l.11718 1.04688v4.78125l-.0586.46484-.35156 1.28125-.17578.52344-.11328.41015-.35156.9297L172.93359 336l-.23437.58203-.11719.17578-.17187.34766-.17578.40625-.35157.8164-.0586.29297-.11327.29297-.11719.28906-.0586.17579-.11718.875-.0586.40625-.05859.11718-.0586.17579-.05859.17187-.23047.52734-.11718.17188v.23437l-.11719.23438-.0586.17187-.17577.58594v.28906l-.0586.17579v.29296l-.0586.11329-.05859.52734v.17187l-.05468.23438v2.6211l-.17578.8164-.1172.17578-.17577.23438-.1172.17187-.11327.23438-.58594.93359-.23047.28906-.29297.46485-.17578.23437-.28906.35156-.35156.69922-.11328.23047-.17579.41016-.17578.23046-.40625.52735-.8164.69922-.29297.17187-.28906.23438-.17579.11719-.17578.17578-.52344.40625-.52734.17578-.17187.17578-.23438.05469-.64062.17578h-.75782m12.21094 31.02344l-1.07422.44921.35938.89454 1.25-.71485.44531-.53906-.98047-.08985"/><path fill="#d3d3d3" fill-opacity="0" fill-rule="evenodd" d="M201.50781 416.59766h-.89453l.44922.6289.98047.35938.80469-.08985.4453-.98828-.17577.08985-.71485-.35547-.89453.35547m154.6211 59.0703l-.0586-.52343v-.29297l.11328-.29297.0586-.23046.46875-.46875h.11328l.11719-.11329.11718-.05859h.17579l.23437-.0586h.34766l.23437.0586.11719.0586.23047.17187.0586.17578.11718.58203v.29297l-.11719.17578-.17187.28906-.17579.17579-.52734.52343-.23047.23438-.11719.0586h-.17578l-.11718-.0586-.40625-.29297-.17579-.11719-.11718-.0586-.0586-.11327-.05468-.1172m6.64062-10.95702l-.0586-.17188v-1.10937l.0586-.17188.17578-.0586.17188-.05858h.17578l.23437-.0586.1172.0586.05858.69921-.05859.17188-.11719.17578-.11718.0586-.23438.52343-.11328.0586h-.23438l-.05859-.1172m9.61328-14.39062l-.11719-.17578v-.69922l.29297-.875.1172-.17187.17577-.35156.11328-.23047.1172-.29297.35155-.75781.1172-.23047.17187-.23438h.17578l.11719-.0586h.64062l.11719.0586.23437.23438.17188.11328.35156.29297.11719.11718.11328.17579v.11328l.11719.05859.11718.11719v.69922l-.05859.17578v.23047l-.0586.17578-.34765 1.05078-.11719.23047-.11719.23437-.11718.0586-.23047.23437-.64063.28906h-.875l-.41015-.11718-.64063-.46485"/><path fill="none" stroke="#bebebe" stroke-linecap="round" stroke-linejoin="round" stroke-miterlimit="10" stroke-width=".5" d="M467.95703 311.69531H144.02734v168.625h323.9297v-168.625"/><g clip-path="url(#a)"><path fill="#fff" fill-opacity="0" fill-rule="evenodd" d="M144 475.89063v4.4375h.0039H144V311.67188h.0039H144v164.21875"/></g><g clip-path="url(#b)"><path fill="#fff" fill-opacity="0" fill-rule="evenodd" d="M144.0039 480.32813V311.67188h4.4336v127.30078l-.5625 1.41015.5625.66406 3.03906-.66406-3.03906-1.41015V311.67187h17.7539v118.48047l-4.4375.90625-.59765.44922-3.01172 4.4375-.82812 2.15625-3.46094 2.28125 3.46094 1.78906.65234 2.64844 1.29688 4.4414-.14454 4.4375.7422 4.4375 1.89062 1.97267 2.57422-1.97266 1.18359-4.4375.67969-.98828 4.4375.8711 4.4375-.5 4.4414.27733 4.4375-3.10156 1.5-.9961 2.9375-1.92577 2.64453-2.51563 1.79297-3.51172 1.03906-.92578-1.03906-.9961-1.84765-3.4414-2.58985-1.28906-4.4375-2.36328-1.42578-.78516-3.01172-1.21875-4.4414.86719-4.4375-.28906-4.4375-.71485V311.67188h48.82422v126.48828l-2.25782 2.22265-.90625 4.4375-1.27734 1.07813-4.4375.5-.73828 2.86328-3.69922 2.23047-3.66797 2.20703 3.66797 1.92187 4.4375.33594 4.4375-1.59765 1.11719-.66016 3.32422-3.71875 4.4375.4375 4.20312-1.15625.23438-.26172 1.55859-4.17969-1.5586-1.98828-3.46484 1.98828-.97266.89453-1.01562-.89453.13672-4.4375-3.5586-2.22265V311.67187h17.75v121.46875l-3.30468 2.8047 3.30469 2.46484 2.36328-2.46485-2.36328-2.80469V311.67188h8.8789v125.89454l-3.1875 2.8164 3.1875 2.7461 3.00781-2.7461-3.0078-2.8164V311.67187h146.46483v144.96485l-1.57421 1.5-2.86329 2.4336-1.9453 2.0039 1.9453 3.89844.61329.54296-.61329 1.33594-.83984 3.10156.83985 1.11329 1.18359-1.11329 3.2539-2.24609 2.33594-2.1914.41016-4.44141-1.1914-4.4375-1.5547-1.5V311.67187h79.88672v160.91016l-3.2578 3.3086 3.2578 3.2578v1.1797h-72.47265l-2.97656-2.89844-2.9961 2.89844H144.00391"/></g><path fill="#50fcfc" fill-rule="evenodd" d="M148.4375 441.04688l-.5625-.66407.5625-1.41015 3.03906 1.41015-3.03906.66406m8.8789 1.125l-3.46093-1.78906 3.46094-2.28125.82812-2.15625 3.01172-4.4375.59766-.44922v5.58204l-3.20703 3.74218 2.51562 4.4375.6914 1.32422L163 444.82031l3.1914-3.46094 2.19141-.97656-2.1914-1.58984-4.4375-2.15235v-5.58203l4.4375-.90625 4.4375.71485 4.4375.28906 4.4414-.86719 3.01172 1.21875 1.42578.78516 4.4375 2.36328 2.58985 1.28906 1.84765 3.4414 1.03906.9961-1.03906.92578-1.79297 3.51172-2.64453 2.51563-2.9375 1.92578-1.5.9961-4.4375 3.10156-4.4414-.27735-4.4375.5-4.4375-.8711-.6797.98829-1.18358 4.4375-2.57422 1.97265-1.89063-1.97265-.74219-4.4375.14453-4.4375-1.29687-4.4414-.65234-2.64844"/><path fill="#00e8fc" fill-rule="evenodd" d="M161.0625 444.82031l-2.51563-4.4375 3.20704-3.74219v2.80079l-.8086.9414.8086 1.24219 1.20703-1.24219-1.20703-.9414v-2.80079l4.4375 2.15235 2.1914 1.58984-2.1914.97656L163 444.82031l-1.2461 1.32422-.6914-1.32422"/><path fill="#00d4fc" fill-rule="evenodd" d="M161.7539 441.625l-.80859-1.24219.8086-.9414 1.20703.9414-1.20703 1.24219"/><path fill="#50fcfc" fill-rule="evenodd" d="M201.69922 455.6211l-3.66797-1.92188 3.66797-2.20703 3.69922-2.23047.73828-2.86328 4.4375-.5 1.27734-1.07813.90625-4.4375 2.25781-2.22265 3.5586 2.22265-.13672 4.4375 1.01563.89453.97265-.89453 3.46484-1.98828 1.5586 1.98828L223.89062 449l-.23437.26172-4.20313 1.15625-4.4375-.4375-3.32421 3.71875-1.1172.66015-4.4375 1.59766-4.4375-.33594m31.06642-17.21093l-3.3047-2.46485 3.3047-2.80469 2.36328 2.8047-2.36328 2.46484m8.8789 4.71875l-3.1875-2.7461 3.1875-2.8164 3.00781 2.8164-3.0078 2.7461m142.02733 23.34375l-1.9453-3.89844 1.9453-2.0039 2.86329-2.4336 1.57421-1.5 1.5547 1.5 1.1914 4.4375-.41016 4.4414-2.33594 2.19141-3.2539 2.2461-1.1836 1.11328-.83984-1.11329.83985-3.10156.61328-1.33594-.61329-.54296"/><g clip-path="url(#c)"><path fill="#50fcfc" fill-rule="evenodd" d="M389.55078 480.32813h2.4414l.5547-.53516.55078.53515h2.42578l-2.97656-2.89843-2.9961 2.89844"/></g><g clip-path="url(#d)"><path fill="#00e8fc" fill-rule="evenodd" d="M391.99219 480.32813l.55469-.53516.55078.53515h-1.10547"/></g><path fill="#50fcfc" fill-rule="evenodd" d="M467.9961 479.14844l-3.25782-3.25781 3.25781-3.3086v1.79297l-1.49218 1.51563 1.49218 1.49218v1.76563"/><path fill="#00e8fc" fill-rule="evenodd" d="M467.9961 477.38281l-1.4922-1.49219 1.4922-1.51562v3.00781"/><path fill="#50fcfc" fill-rule="evenodd" d="M467.9961 477.38281v1.76563l.0039.0039v-1.76562l-.0039-.0039"/><path fill="#00e8fc" fill-rule="evenodd" d="M467.9961 474.375v3.00781l.0039.0039v-3.01562l-.0039.00391"/><path fill="#50fcfc" fill-rule="evenodd" d="M467.9961 472.58203v1.79297l.0039-.0039v-1.79298l-.0039.00391"/><g clip-path="url(#e)"><path fill="#fff" fill-opacity="0" fill-rule="evenodd" d="M467.9961 311.67188H468v160.90625-160.90625h-.0039"/></g><g clip-path="url(#f)"><path fill="none" stroke="#000" stroke-linecap="round" stroke-linejoin="round" stroke-miterlimit="10" stroke-width=".5" d="M147.45703 479.70313l-6.91406 1.25"/></g><g clip-path="url(#g)"><path fill="none" stroke="#000" stroke-linecap="round" stroke-linejoin="round" stroke-miterlimit="10" stroke-width=".5" d="M147.45703 479.70313l1.51953 1.92968"/></g><g clip-path="url(#h)"><path fill="none" stroke="#000" stroke-linecap="round" stroke-linejoin="round" stroke-miterlimit="10" stroke-width=".5" d="M146.45313 479.88672l.7578.96484"/></g><g clip-path="url(#i)"><path fill="none" stroke="#000" stroke-linecap="round" stroke-linejoin="round" stroke-miterlimit="10" stroke-width=".5" d="M160.79297 479.83984l-6.95703.97657"/></g><g clip-path="url(#j)"><path fill="none" stroke="#000" stroke-linecap="round" stroke-linejoin="round" stroke-miterlimit="10" stroke-width=".5" d="M160.79297 479.83984l1.4414 1.98828"/></g><g clip-path="url(#k)"><path fill="none" stroke="#000" stroke-linecap="round" stroke-linejoin="round" stroke-miterlimit="10" stroke-width=".5" d="M159.78125 479.98438l.72266.99218"/></g><g clip-path="url(#l)"><path fill="none" stroke="#000" stroke-linecap="round" stroke-linejoin="round" stroke-miterlimit="10" stroke-width=".5" d="M174.1289 480.0039l-6.99609.64844"/></g><g clip-path="url(#m)"><path fill="none" stroke="#000" stroke-linecap="round" stroke-linejoin="round" stroke-miterlimit="10" stroke-width=".5" d="M174.1289 480.0039l1.34766 2.05079"/></g><g clip-path="url(#n)"><path fill="none" stroke="#000" stroke-linecap="round" stroke-linejoin="round" stroke-miterlimit="10" stroke-width=".5" d="M173.10938 480.09766l.67578 1.02734"/></g><g clip-path="url(#o)"><path fill="none" stroke="#000" stroke-linecap="round" stroke-linejoin="round" stroke-miterlimit="10" stroke-width=".5" d="M187.45313 480.14844l-7.01563.35937"/></g><g clip-path="url(#p)"><path fill="none" stroke="#000" stroke-linecap="round" stroke-linejoin="round" stroke-miterlimit="10" stroke-width=".5" d="M187.45313 480.14844l1.26171 2.10547"/></g><g clip-path="url(#q)"><path fill="none" stroke="#000" stroke-linecap="round" stroke-linejoin="round" stroke-miterlimit="10" stroke-width=".5" d="M200.76172 480.0586l-7.0039.53906"/></g><g clip-path="url(#r)"><path fill="none" stroke="#000" stroke-linecap="round" stroke-linejoin="round" stroke-miterlimit="10" stroke-width=".5" d="M200.76172 480.0586l1.3164 2.07421"/></g><g clip-path="url(#s)"><path fill="none" stroke="#000" stroke-linecap="round" stroke-linejoin="round" stroke-miterlimit="10" stroke-width=".5" d="M214.08594 480.17969l-7.01953.29687"/></g><g clip-path="url(#t)"><path fill="none" stroke="#000" stroke-linecap="round" stroke-linejoin="round" stroke-miterlimit="10" stroke-width=".5" d="M214.08594 480.17969l1.24219 2.11719"/></g><g clip-path="url(#u)"><path fill="none" stroke="#000" stroke-linecap="round" stroke-linejoin="round" stroke-miterlimit="10" stroke-width=".5" d="M227.39453 480.58594l-7.00781-.51563"/></g><g clip-path="url(#v)"><path fill="none" stroke="#000" stroke-linecap="round" stroke-linejoin="round" stroke-miterlimit="10" stroke-width=".5" d="M227.39453 480.58594l.98828 2.2461"/></g><g clip-path="url(#w)"><path fill="none" stroke="#000" stroke-linecap="round" stroke-linejoin="round" stroke-miterlimit="10" stroke-width=".5" d="M240.70313 480.67188l-6.9961-.6875"/></g><g clip-path="url(#x)"><path fill="none" stroke="#000" stroke-linecap="round" stroke-linejoin="round" stroke-miterlimit="10" stroke-width=".5" d="M240.70313 480.67188l.93359 2.26953"/></g><g clip-path="url(#y)"><path fill="none" stroke="#000" stroke-linecap="round" stroke-linejoin="round" stroke-miterlimit="10" stroke-width=".5" d="M254.02344 480.57813l-7.00781-.5"/></g><g clip-path="url(#z)"><path fill="none" stroke="#000" stroke-linecap="round" stroke-linejoin="round" stroke-miterlimit="10" stroke-width=".5" d="M254.02344 480.57813l.9961 2.24218"/></g><g clip-path="url(#A)"><path fill="none" stroke="#000" stroke-linecap="round" stroke-linejoin="round" stroke-miterlimit="10" stroke-width=".5" d="M267.34766 480.4336l-7.02344-.21094"/></g><g clip-path="url(#B)"><path fill="none" stroke="#000" stroke-linecap="round" stroke-linejoin="round" stroke-miterlimit="10" stroke-width=".5" d="M267.34766 480.4336l1.08593 2.19921"/></g><g clip-path="url(#C)"><path fill="none" stroke="#000" stroke-linecap="round" stroke-linejoin="round" stroke-miterlimit="10" stroke-width=".5" d="M280.64844 480.66797l-6.9961-.67578"/></g><g clip-path="url(#D)"><path fill="none" stroke="#000" stroke-linecap="round" stroke-linejoin="round" stroke-miterlimit="10" stroke-width=".5" d="M279.6289 480.57031l.46876 1.13281"/></g><g clip-path="url(#E)"><path fill="none" stroke="#000" stroke-linecap="round" stroke-linejoin="round" stroke-miterlimit="10" stroke-width=".5" d="M293.75 481.57813l-6.57031-2.4961"/></g><g clip-path="url(#F)"><path fill="none" stroke="#000" stroke-linecap="round" stroke-linejoin="round" stroke-miterlimit="10" stroke-width=".5" d="M292.79297 481.21484l.15625 1.21485"/></g><g clip-path="url(#G)"><path fill="none" stroke="#000" stroke-linecap="round" stroke-linejoin="round" stroke-miterlimit="10" stroke-width=".5" d="M306.67188 482.32813l-5.78125-4"/></g><g clip-path="url(#H)"><path fill="none" stroke="#000" stroke-linecap="round" stroke-linejoin="round" stroke-miterlimit="10" stroke-width=".5" d="M319.36719 483.00781l-4.54297-5.35937"/></g><g clip-path="url(#I)"><path fill="none" stroke="#000" stroke-linecap="round" stroke-linejoin="round" stroke-miterlimit="10" stroke-width=".5" d="M331.5664 483.64844l-2.3125-6.63672"/></g><g clip-path="url(#J)"><path fill="none" stroke="#000" stroke-linecap="round" stroke-linejoin="round" stroke-miterlimit="10" stroke-width=".5" d="M343.83594 483.83984l-.21875-7.02343"/></g><g clip-path="url(#K)"><path fill="none" stroke="#000" stroke-linecap="round" stroke-linejoin="round" stroke-miterlimit="10" stroke-width=".5" d="M356.19922 483.73828l1.6836-6.82031"/></g><g clip-path="url(#L)"><path fill="none" stroke="#000" stroke-linecap="round" stroke-linejoin="round" stroke-miterlimit="10" stroke-width=".5" d="M370.07422 483.83203l.5625-7.0039"/></g><g clip-path="url(#M)"><path fill="none" stroke="#000" stroke-linecap="round" stroke-linejoin="round" stroke-miterlimit="10" stroke-width=".5" d="M382.69531 483.70313l1.95313-6.75"/></g><g clip-path="url(#N)"><path fill="none" stroke="#000" stroke-linecap="round" stroke-linejoin="round" stroke-miterlimit="10" stroke-width=".5" d="M395.13672 483.3164l3.69922-5.97656"/></g><g clip-path="url(#O)"><path fill="none" stroke="#000" stroke-linecap="round" stroke-linejoin="round" stroke-miterlimit="10" stroke-width=".5" d="M409.375 483.71875l1.85156-6.77734"/></g><g clip-path="url(#P)"><path fill="none" stroke="#000" stroke-linecap="round" stroke-linejoin="round" stroke-miterlimit="10" stroke-width=".5" d="M423.45703 483.83984l.32031-7.01953"/></g><g clip-path="url(#Q)"><path fill="none" stroke="#000" stroke-linecap="round" stroke-linejoin="round" stroke-miterlimit="10" stroke-width=".5" d="M437.74219 483.7461l-1.6211-6.83594"/></g><g clip-path="url(#R)"><path fill="none" stroke="#000" stroke-linecap="round" stroke-linejoin="round" stroke-miterlimit="10" stroke-width=".5" d="M451.47266 483.6211l-2.45313-6.58594"/></g><g clip-path="url(#S)"><path fill="none" stroke="#000" stroke-linecap="round" stroke-linejoin="round" stroke-miterlimit="10" stroke-width=".5" d="M464.63672 483.67188l-2.15235-6.6875"/></g><g clip-path="url(#T)"><path fill="none" stroke="#000" stroke-linecap="round" stroke-linejoin="round" stroke-miterlimit="10" stroke-width=".5" d="M147.48047 466.51953l-6.96094.98828"/></g><path fill="none" stroke="#000" stroke-linecap="round" stroke-linejoin="round" stroke-miterlimit="10" stroke-width=".5" d="M147.48047 466.51953l1.4414 1.98438m-2.45703-1.83985l.72266.99219m13.54688-1.45703l-6.83594 1.6289m6.83594-1.6289l1.62109 1.83984m-2.61719-1.60156l.8125.91797m13.30078-1.73828l-6.44531 2.79687m6.44531-2.79687l1.92188 1.52734m-2.85938-1.1211l.96094.76173m13.34375-1.05078l-6.54688 2.55859m6.54688-2.5586l1.85938 1.59766m-2.8125-1.22656l.92968.80078m13.23047-1.41797l-6.33203 3.05078m6.33203-3.05078l1.97656 1.45313m11.33594-1.45703l-6.32422 3.05859m6.32422-3.0586l1.98047 1.44922m11.54688-.89843l-6.75 1.95703m6.75-1.95703l1.71093 1.7578m11.63672-1.63671l-6.8164 1.71484m6.8164-1.71484l1.64453 1.8164m11.67188-1.8164l-6.8164 1.71484m6.8164-1.71484l1.64453 1.82031m11.74219-1.44531l-6.96094.96484m6.96094-.96484l1.4375 1.98828m11.87109-2.02734l-6.94922 1.04297m6.94922-1.04297l1.46094 1.96875m11.8789-1.76172l-7 .6289m7-.6289l1.34375 2.05469m11.98438-1.62891l-7.02344-.22266m6 .19141l.54297 1.10156m13.64453-.15234l-6.72266-2.0586m5.7422 1.75782l.23437 1.20312m11.67187 1.44531l-1.94531-6.7539m1.66406 5.76953l-.88281.85547m11.9414-.10156l3.13282-6.29297m-2.67578 5.375l-1.22657.03515m14.25782.96094l2.78515-6.44922m-2.3789 5.51172l-1.22266.10156m13.48828.47266l4.07422-5.72266m-3.48047 4.89063l-1.21875-.15625m13.42578.54297l5.10157-4.83203m-5.10157 4.83203l-2.32812-.78125m15.29687.35547l5.79297-3.98047m-5.79297 3.98047l-2.17578-1.13672m15.96485 1.6914l4.84765-5.08984m-4.84765 5.08984l-2.36329-.66015m3.06641-.08203l-1.17969-.32813m15.14453 1.8711l2.14063-6.69141m-2.14063 6.6914l-2.41406.4375m16.45703-.28515l.6836-6.9961m-.6836 6.9961l-2.26953.9336m15.91016-.91798l.03125-7.02734m-.03125 7.02734l-2.17188 1.14063m15.46094-1.14063l.08594-7.02734m-.08594 7.02734l-2.17969 1.125"/><g clip-path="url(#U)"><path fill="none" stroke="#000" stroke-linecap="round" stroke-linejoin="round" stroke-miterlimit="10" stroke-width=".5" d="M147.44922 453.03125l-6.89844 1.33594"/></g><path fill="none" stroke="#000" stroke-linecap="round" stroke-linejoin="round" stroke-miterlimit="10" stroke-width=".5" d="M147.44922 453.03125l1.54297 1.90625m11.75781-1.98438l-6.86719 1.4922m6.86719-1.4922l1.58594 1.8711m11.51562-2.53125l-6.4414 2.8125m6.4414-2.8125l1.92188 1.52344m11.28515-1.7422l-6.22656 3.25m6.22656-3.25l2.02344 1.38673m11.625-.45313l-6.89062 1.3789m5.88672-1.17577l.77734.94922m13.05469-2.35938l-5.91797 3.79297m5.05469-3.23828l1.0703.60156m12.5547-1.82031l-4.8125 5.1211m4.8125-5.1211l2.36718.64453m11.32813-.22266l-5.57422 4.28125m5.57422-4.28125l2.23437 1.01563m11.3164-.66797L247.5 455.49219m6.04297-3.58594l2.09375 1.27344m11.32422-1.08594l-6.25 3.21094m6.25-3.21094l2.01562 1.39844m11.10547-1.73047l-5.86328 3.875m5.86328-3.875l2.15625 1.17187m10.92578-1.48437l-5.39453 4.5m5.39453-4.5l2.27344.92187m11.09766-.85547l-5.50782 4.36329m5.50782-4.36329l2.25.98438m11.3828-.50781l-6.14452 3.41015m5.25-2.91406l1.03125.66797m13.3711-.75781L327.14843 455m5.57812-2.22266l.9336.79297m13.55859-.2461l-6.98437.75m5.96875-.64062l.6875 1.01172m13.375-2.14062l-6.44922 2.78906m13.57812.49219l5.92578-3.77344m6.91797 2.625l6.86719-1.48047m-6.86719 1.48047l-1.58594-1.8711m14.82422 1.2461l7.01953-.22656m-7.01953.22656l-1.22265-2.1289m2.24218 2.09765l-.60937-1.0664m13.32422 2.65234l6.1836-3.33594m-6.1836 3.33594l-2.04297-1.35938m17.67578 3.11719l1.54297-6.85547m-1.54297 6.85547l-2.36328.64844m17.54297-.73438l-2.1836-6.67969m1.8672 5.70704l-.85157.8828m11.36328-.3789l4.05469-5.74219m-4.05469 5.7422l-2.4336-.3086m16.75391.79687l2.04688-6.72265m-2.04688 6.72265l-2.40625.47266"/><g clip-path="url(#V)"><path fill="none" stroke="#000" stroke-linecap="round" stroke-linejoin="round" stroke-miterlimit="10" stroke-width=".5" d="M147.50781 440.16797l-7.01562.42969"/></g><path fill="none" stroke="#000" stroke-linecap="round" stroke-linejoin="round" stroke-miterlimit="10" stroke-width=".5" d="M147.50781 440.16797l1.28125 2.09375m12.02344-1.55078l-6.9961-.65235m6.9961.65235l.94531 2.26172m12.34766-3.09766l-6.95313 1.01562m5.94141-.86718l.72656.98828m13.5625.09375l-6.875-1.44531m5.875 1.23437l.33985 1.17969m14.03515-1.35547l-6.9961-.67188m6.9961.67188l.9375 2.26953m12.33594-3.2461l-6.91016 1.28516m6.91016-1.28515l1.52734 1.91797m-2.53515-1.73047l.76562.95703m13.3125-1.92578l-6.42187 2.84765m6.42187-2.84765l1.9336 1.51172m10.72656-2.5l-5.11328 4.8203m5.11328-4.8203l2.32422.78515m10.67578-1.07812l-4.48438 5.41015m3.83203-4.625l1.20313.25m13.01563-.80859l-4.98438 4.95313m4.98438-4.95313l2.34375.72266m11.02734-.66407l-5.09375 4.83985m4.35156-4.13672l1.16406.38672m12.9922-.98047l-5.29688 4.61719m4.52734-3.94532l1.14453.4375m12.90625-1.14843l-5.22656 4.6953m5.22656-4.6953l2.30469.83984m11.14062-.6836l-5.48828 4.38673m5.48828-4.38672l2.25391.97265m11.54687-.16015l-6.46093 2.76172m6.46093-2.76172l1.91016 1.53906m11.29297-1.78125l-6.23438 3.2461m6.23438-3.2461l2.01953 1.39062m10.97656-1.89062l-5.59765 4.2461m5.59765-4.2461l2.22657 1.03125m9.61328-2.16406l-2.64844 6.5078m2.64844-6.5078l2.4414-.25m7.17188.91797l4.75781 5.17187m-4.0664-4.41797l.40624-1.15625m11.46875 1.38672l6.25391 3.20313m-6.2539-3.20313l-.03907-2.45312m.94922 2.91796l-.01953-1.22656m12.08203 1.80469l6.9375 1.11719m-6.9375-1.1172l-.79297-2.32421m1.80469 2.48828l-.39844-1.16406m13.40625 3.72656l5.53125-4.33594m-5.53125 4.33594l-2.24219-.99219m15.6172 1.06641l5.41015-4.48437m-4.625 3.83203l-1.13281-.46485m16.0664 2.375l.60156-7m11.33985 6.58985l3.34765-6.1797m-3.34765 6.1797l-2.45313-.01953"/><g clip-path="url(#W)"><path fill="none" stroke="#000" stroke-linecap="round" stroke-linejoin="round" stroke-miterlimit="10" stroke-width=".5" d="M147.45313 426.42578l-6.90625 1.28906"/></g><path fill="none" stroke="#000" stroke-linecap="round" stroke-linejoin="round" stroke-miterlimit="10" stroke-width=".5" d="M147.45313 426.42578l1.53125 1.91797m11.84375-1.35938l-7.02735.16797m7.02734-.16797l1.20313 2.13672m11.96094-1.02734l-6.72266-2.05078m6.72266 2.05078l.46875 2.40625m12.90625-2.6289l-6.84375-1.60548m6.84375 1.60547l.625 2.3711m12.74219-2.65625l-6.94922-1.03516m6.94922 1.03516l.8203 2.3125m12.48048-2.21875l-6.92188-1.22266m6.92188 1.22266l.7578 2.33203m12.42579-1.8125l-6.65625-2.26172m5.6875 1.9336l.19531 1.21093m14.03906-3.28125l-6.55468 2.53516m5.59765-2.16797l.9297.80469m13.43358-.89844l-6.73828 1.98828m6.73828-1.98828l1.71875 1.75m11.67579-1.42578l-6.89844 1.33984m6.89844-1.33984l1.54297 1.90625m11.4453-2.85157l-6.24218 3.23047m6.24219-3.23047l2.01562 1.39844m11.60938-.52734l-6.86719 1.48828m5.8711-1.27344l.78906.9375m13.16406-2.10937l-6.14844 3.40625m6.14844-3.40625l2.05469 1.33594m11.23046-1.39063l-6.08984 3.51172m6.08985-3.51172l2.07812 1.30078m11.21094-1.34375l-6.03906 3.59766m6.03906-3.59766l2.09765 1.27344m11.51563-.63281l-6.63281 2.3164m5.66796-1.98047l.90235.83204m13.48828-.78907l-6.85547 1.5586m5.85547-1.33203l.80469.92968m12.11719-3.24218l-4.06641 5.73046m3.47265-4.89843l1.21875.16015m9.0547-1.2539l3.20312 6.2539m-2.73828-5.34375l.69921-1.00781m16.28125.78516l-5.05859 4.8789m5.0586-4.8789l2.33203.7578m-3.07032-.04687l1.16797.37891m13.86719 1.25781l-7.02344.1836m6.0039-.15625l.60157 1.0664m13.38672-2.52734l-6.32813 3.05078m6.32813-3.05078l1.98047 1.45312m7.10156-3.27343L438 430.41796m-1.82422-5.72265l.85547-.8789m14.19531-.1211l-1.95703 6.7461m1.95703-6.7461l2.40235-.5039m11.33203.65625l-2.80078 6.4453"/><g clip-path="url(#X)"><path fill="none" stroke="#000" stroke-linecap="round" stroke-linejoin="round" stroke-miterlimit="10" stroke-width=".5" d="M147.24219 412.39844l-6.48438 2.71094"/></g><path fill="none" stroke="#000" stroke-linecap="round" stroke-linejoin="round" stroke-miterlimit="10" stroke-width=".5" d="M146.29688 412.79297l.94921.77734m13.54297-.34765l-6.94922 1.05859m6.94922-1.0586l1.46485 1.96876m11.79687-.63282l-6.83984-1.60937m6.83984 1.60937l.625 2.375m12.72656-2.55859l-6.91406-1.2461m6.91406 1.2461l.75 2.33594m12.53125-2.16407l-6.84765-1.58984m5.85156 1.35938l.3164 1.1875m11.78126 1.54687l-2.41797-6.59766m2.0664 5.64063l-.8203.91406m12.87108.23438l.8125-6.98047m-.6953 5.96484l-1.14063.44922m14.00781.51172l1.47266-6.8711m-1.25782 5.8711l-1.17968.33594m18.52734-2.64844l-7.02344-.24219m6.0039.20703l.53517 1.10157m13.72265-.4375l-6.86719-1.5m5.8672 1.28125l.33202 1.18359m13.57422-3.5l-6.05078 3.57031m6.05078-3.57031l2.09375 1.28125m9.35156-2.8164l-2.30859 6.63671m1.97266-5.66797l1.21093-.1875m12.09766-.8789l-1.6289 6.83593m16.99218-5.46093l-5.72265 4.08203m4.89062-3.48828l1.09766.54687m13.47656-.33203l-6.57813 2.46875m5.6211-2.10937l.92187.80859m12.375-2.57813l-4.625 5.28907m4.625-5.28907l2.39063.5586m11.42969-.01172l-5.63672 4.19531m4.8164-3.58594l1.10938.52735m12.23437-1.91016l-4.05468 5.74219m3.46484-4.90625l1.21875.15234m12.61719-1.03515l-3.91407 5.83593m3.91407-5.83593l2.4414.25m-3.01172.59765l1.21875.125m12.66797-.97265l-3.91797 5.83593m3.91797-5.83593l2.4414.25m-3.01171.59765l1.21875.12891m12.88672-.8164l-4.35938 5.51562m4.35938-5.51563l2.41406.44141m-3.04687.36328l2.41406.4375m10.76562-1.70312l-2.82421 6.43359m2.82421-6.4336l2.44922-.18359m-2.85937 1.1211l2.44922-.1836m11.03906-.84765l-2.34766 6.625m2.34766-6.625l2.42578-.36329m-2.76953 1.32813l1.21484-.1836m14.0664.40626l-5.59374 4.25m5.59375-4.25l2.23047 1.02734m-3.04297-.41016l2.22656 1.02735m12.13281-1.30469l-6.05468 3.57031"/><g clip-path="url(#Y)"><path fill="none" stroke="#000" stroke-linecap="round" stroke-linejoin="round" stroke-miterlimit="10" stroke-width=".5" d="M466.58984 411.96875l2.08985 1.28125"/></g><g clip-path="url(#Z)"><path fill="none" stroke="#000" stroke-linecap="round" stroke-linejoin="round" stroke-miterlimit="10" stroke-width=".5" d="M465.70703 412.48828l2.09375 1.28125"/></g><g clip-path="url(#aa)"><path fill="none" stroke="#000" stroke-linecap="round" stroke-linejoin="round" stroke-miterlimit="10" stroke-width=".5" d="M147.01953 398.64063l-6.03906 3.59375"/></g><path fill="none" stroke="#000" stroke-linecap="round" stroke-linejoin="round" stroke-miterlimit="10" stroke-width=".5" d="M147.01953 398.64063l2.09766 1.27343m11.66406-.04297l-6.9336 1.13282m5.92579-.96875l.74219.97656m13.6289-.5586l-7.02734-.03125m6.0039.02735l.57032 1.08594m11.95703-4.17188l-3.40625 6.14844m3.40625-6.14844l2.45312.04297m8.15235-.33594l2.01172 6.73438m-1.71875-5.7539l.87109-.86329m9.67969 2.7539l6.95703.9922m9.32422 2.98046l1.02343-6.95312m-1.02343 6.95312l-2.3125.82422m16.625-.82031l-.97266-6.96094m.83203 5.94922l-.99219.71875m17.32422-2.16797l-6.72656-2.03515m5.75 1.73828l.23828 1.20312m13.63281-.00781l-5.88672-3.83594m5.03125 3.28125l-.10937 1.21875m14.80078-3.17578l-6.92578 1.1875m6.92578-1.1875l1.5 1.9414m11.70703-2.39452l-6.70703 2.09765m6.70703-2.09765l1.7461 1.72265m-2.72266-1.41797l.8711.86328m13.36328-1.33593l-6.59375 2.43359m6.59375-2.4336l1.82812 1.63282m11.67578.01562l-6.97265-.86718m5.95703.74218l.4375 1.14454m9.24218-4.76563l2.33204 6.6289m-1.9961-5.66406l.83203-.90234m10.6914.91016l5.2422 4.67968m-4.48047-4l.29297-1.1914m18.05859 4.34765l-6.35547-2.99218m20.00781 1.54687l-7.02734-.10156m7.02734.10156l1.1172 2.1836m11.29687-4.58204l-5.22657 4.69532m5.22657-4.69532l2.30468.84375m-3.0664-.16015l1.15234.42187m13.58594-.02344l-6.55078 2.53516m6.55078-2.53515l1.85547 1.60546m11.41797-1.71484l-6.46485 2.7539m5.52344-2.35546l.95313.77344m12.34765-2.47266l-4.55469 5.35156m4.5547-5.35156l2.39452.52734m-3.0586.25l1.19923.26563m13.07812-.75781l-5.15234 4.78125m5.15234-4.78125l2.3164.80468m-3.0664-.10937l1.16016.40234m13.38672-.4375l-6.11719 3.46094m6.11719-3.46094l2.07031 1.32031m-2.96094-.8164l2.07032 1.32031m12.40625-1.21484l-6.66016 2.24218"/><g clip-path="url(#ab)"><path fill="none" stroke="#000" stroke-linecap="round" stroke-linejoin="round" stroke-miterlimit="10" stroke-width=".5" d="M466.89063 399.3164l1.78515 1.6875"/></g><path fill="none" stroke="#000" stroke-linecap="round" stroke-linejoin="round" stroke-miterlimit="10" stroke-width=".5" d="M465.92188 399.64453l1.78515 1.6836"/><g clip-path="url(#ac)"><path fill="none" stroke="#000" stroke-linecap="round" stroke-linejoin="round" stroke-miterlimit="10" stroke-width=".5" d="M147.11328 385.4961l-6.22656 3.2539"/></g><path fill="none" stroke="#000" stroke-linecap="round" stroke-linejoin="round" stroke-miterlimit="10" stroke-width=".5" d="M147.11328 385.4961l2.02344 1.38671m11.48047-.96484l-6.60156 2.41015m6.60156-2.41015l1.82422 1.64062m10.73437-2.85937l-5.08984 4.84765m5.08984-4.84765l2.32813.77734m9.78906-1.59765l-2.69531 6.48828m2.6953-6.48828l2.44142-.23438m-2.83594 1.17969l1.22265-.11719m12.0586-.97656l-1.83985 6.78515m1.83985-6.78515l2.39062-.54297m13.35547 5l-6.69922-2.1289m6.69922 2.1289l.4414 2.41406m13.03126-3.28515l-7.01563-.38672m7.01563.38672l1.03125 2.22656m-2.05078-2.28516l.51562 1.11328m13.71875-2.10156l-6.8164 1.70703m6.8164-1.70703l1.64453 1.82031m-2.63672-1.57421l.82422.91015m13.44922-1.28125l-6.75 1.95703m6.75-1.95703l1.71094 1.75781m11.6875-1.41406l-6.91406 1.26953m6.91406-1.26953l1.52344 1.92578m11.6875-2.33984l-6.70704 2.09765m6.70704-2.09765l1.74609 1.72656m11.32031-2.32031l-6.21094 3.28515m6.21094-3.28515l2.03125 1.375m11.49219-.89844l-6.6289 2.33203m6.6289-2.33203l1.8086 1.66016m11.53124-1.59375l-6.67578 2.19922m6.67578-2.19922l1.76954 1.69922m-2.7422-1.37891l.88673.84766m13.27734-1.48829l-6.42969 2.83985m6.42969-2.83985l1.92969 1.51954m-2.86328-1.10547l.96484.75781m13.4414 1.23438l-6.74218-1.97266m6.74219 1.97265l.5 2.40235m-1.48047-2.6875l.25 1.19922m14.07812-1.03516l-6.8086-1.73047m6.8086 1.73047l.58203 2.38672m12.66797-4.33984l-6.67969 2.17578m6.6797-2.17578l1.76952 1.70312m-2.73828-1.38672l.88281.85156m13.1797-1.69921l-6.23438 3.24218m6.23437-3.24218l2.01953 1.39062m-2.92578-.92187l1.00781.6953M400 385.31642l-6.02734 3.61328M400 385.3164l2.10156 1.26953m10.6211-2.00781l-4.84375 5.08984m4.84375-5.08985l2.36328.66016m10.67969-.89453l-4.30079 5.5586m4.30079-5.5586l2.42187.41797m11.59375.3086l-5.70313 4.10546m5.70313-4.10547l2.20313 1.08594m11.20703-.94922l-5.89063 3.83203m5.89063-3.83203l2.14843 1.1875m11.55079-.39844l-6.65625 2.25391"/><g clip-path="url(#ad)"><path fill="none" stroke="#000" stroke-linecap="round" stroke-linejoin="round" stroke-miterlimit="10" stroke-width=".5" d="M466.89063 385.9961l1.78515 1.68359"/></g><path fill="none" stroke="#000" stroke-linecap="round" stroke-linejoin="round" stroke-miterlimit="10" stroke-width=".5" d="M465.92188 386.32422l.89062.83984"/><g clip-path="url(#ae)"><path fill="none" stroke="#000" stroke-linecap="round" stroke-linejoin="round" stroke-miterlimit="10" stroke-width=".5" d="M147.26953 372.52344l-6.53906 2.57031"/></g><path fill="none" stroke="#000" stroke-linecap="round" stroke-linejoin="round" stroke-miterlimit="10" stroke-width=".5" d="M147.26953 372.52344l1.86328 1.59375m-2.8164-1.22266l.93359.79688m12.75-2.14844l-5.3711 4.53125M160 371.54297l2.27734.91406m11.15625-.76562l-5.60937 4.23046m5.60937-4.23046l2.22657 1.03906m10.67187-1.5039l-4.77344 5.16015m4.77344-5.16016l2.3711.625m-3.06641.1289l2.3711.625m12.3828-.39062l-6.26171 3.1875m6.26172-3.1875l2.01171 1.41016m-2.92187-.94531l2.00781 1.41015m12.58203-.65234l-6.98828.74219m6.98828-.74219l1.3711 2.03516m-2.39063-1.92579l1.375 2.03125m12.96875-1.52343l-7.00781-.49219m7.00781.49219l1 2.23828m-2.01953-2.3125l1 2.24219m13.32422-2.78125l-6.98828.73437m6.98828-.73437l1.3711 2.03515m-2.38673-1.92969l.6836 1.01954m13.52734-1.7461l-6.7461 1.97266m6.7461-1.97266l1.71094 1.75781m-2.69531-1.46875l.85937.87891m13.57813-.13281l-7.02344-.09375m7.02344.09375l1.125 2.17969m-2.14453-2.19532l.55859 1.08985m13.66797-.24219l-6.80469-1.75781m6.80469 1.75781l.57031 2.38281m-1.5625-2.64062l.28906 1.19531m14.11719-1.5664l-7.00781-.5m7.00781.5l.9961 2.24218m-2.01563-2.3164l.5 1.12109m13.80078-1.84375l-6.9414 1.08984m6.9414-1.08984l1.47656 1.96094m-2.48437-1.80079l.73828.98047m13.55078-1.33203l-6.8711 1.47656m6.8711-1.47656l1.58203 1.875m11.47266-2.64062l-6.35157 3.0039m6.35157-3.0039l1.96875 1.46875m11.625-.60156l-6.91016 1.27343m6.91016-1.27344l1.52734 1.92188m11.84375-1.45703l-7.01953.34375m7.01953-.34375l1.2539 2.10937m-2.27343-2.05859l.625 1.05469m13.66016-1.54297l-6.92188 1.21875m6.92188-1.21875l1.51171 1.9336m-2.51953-1.75782l.75782.96875m13.58203-1.04688l-6.95313 1.02344m6.95313-1.02344l1.45312 1.97657m11.82422-2.1836l-6.8789 1.4375m6.8789-1.4375l1.57031 1.88672m11.4336-2.76953l-6.2539 3.20313m5.34374-2.73829l1.0039.70313m12.03126-2.4961l-3.875 5.85938m3.3125-5.00781l1.21875.11719m13.39843-.3125l-5.35937 4.54687m4.58203-3.88672l1.14063.45703m12.39062-1.64843l-4.23437 5.60937m3.62109-4.79297l1.21094.19531m13.83984.4297l-6.47656 2.72656"/><g clip-path="url(#af)"><path fill="none" stroke="#000" stroke-linecap="round" stroke-linejoin="round" stroke-miterlimit="10" stroke-width=".5" d="M466.80078 372.44531l1.90235 1.55078"/></g><g clip-path="url(#ag)"><path fill="none" stroke="#000" stroke-linecap="round" stroke-linejoin="round" stroke-miterlimit="10" stroke-width=".5" d="M147.17188 358.98438L140.82813 362"/></g><path fill="none" stroke="#000" stroke-linecap="round" stroke-linejoin="round" stroke-miterlimit="10" stroke-width=".5" d="M147.17188 358.98438l1.97265 1.46484m-2.89453-1.02344l.98438.73047m13.32812-1.00781l-6.49219 2.6875m6.49219-2.6875l1.89063 1.5625m-2.83594-1.17188l.94531.78125m13.20313-1.41015l-6.26954 3.16796m6.26953-3.16796l2.00391 1.41406m-2.91797-.95313l1.0039.70704m13.16407-1.28907l-6.14844 3.40625m6.14844-3.40625l2.05469 1.33985m-2.94922-.84375l2.0586 1.33593m12.26562-1.59765l-6.3789 2.9414m6.3789-2.9414l1.95312 1.48437m-2.8789-1.0586l1.95312 1.48438M214 359.70703l-6.84766 1.57031M214 359.70704l1.60547 1.85546m-2.60156-1.625l.80468.92578m13.48828-1.23047l-6.8125 1.71875m6.8125-1.71875l1.64844 1.82031m-2.64062-1.5703l.82422.91015m13.55859-.76172l-6.96484.92188m6.96484-.92188l1.42578 2m-2.4375-1.86328l.71094.9961m13.61719-1.125l-6.96875.90624m6.96875-.90625l1.42187 2m-2.4336-1.86719l.71095 1m13.61718-1.1328l-6.96875.90624m6.96875-.90625l1.42188 2m11.79297-2.48437l-6.76953 1.8789m6.76953-1.8789l1.6914 1.77734m11.74219-.5625l-7.0039-.55469m5.98437.47657l.48828 1.125m13.85547-1.17579l-7.02344-.29296m7.02344.29296l1.0586 2.21094m12.16796-3.14453l-6.84765 1.57031m6.84765-1.5703l1.60938 1.85546m-2.60547-1.625l.80469.92578m13.55859-.88672l-6.94922 1.03516m6.94922-1.03516l1.45703 1.97266M332.875 360.125l.73047.98828m13.59375-1.15234l-6.94531 1.0664m6.9453-1.0664l1.46876 1.96484m11.78516-2.26953l-6.82422 1.67188m6.82422-1.67188l1.63671 1.83203m11.76172-1.36719l-6.98828.7461m6.98828-.7461l1.375 2.03125m-2.39453-1.92578l.6875 1.01563m13.41797-2.04297l-6.53125 2.58594m6.53125-2.58594l1.86719 1.58984m-2.8164-1.21094l.93359.79297m12.83203-2.04296l-5.53516 4.33203m5.53516-4.33204l2.24218.9961m-3.04687-.36719l1.1211.5m12.9453-1.1914l-5.42968 4.45703m5.42969-4.45704l2.26562.94141m11.0586-.92969l-5.44922 4.4336m4.65625-3.78906l1.1328.47656m12.08204-1.90625l-3.66016 6m3.1289-5.125l1.22267.07031m11.4375-1.39844l-1.28907 6.90625m1.10157-5.90234l1.17187-.36719m15.08594 1.92578l-6.79688 1.78125m5.8086-1.51953l.83203.90235"/><g clip-path="url(#ah)"><path fill="none" stroke="#000" stroke-linecap="round" stroke-linejoin="round" stroke-miterlimit="10" stroke-width=".5" d="M146.40625 344.6211l-4.8125 5.11718"/></g><path fill="none" stroke="#000" stroke-linecap="round" stroke-linejoin="round" stroke-miterlimit="10" stroke-width=".5" d="M146.40625 344.6211l2.36719.64452m11.21094-.37109l-5.33985 4.5664m5.33984-4.5664l2.28516.89844m11.58984.0039l-6.46093 2.76172m6.46094-2.76171l1.91406 1.53906m-2.85156-1.13672l.95312.76953m13.11719-1.54297l-6.09375 3.5039m6.09375-3.5039l2.07812 1.30469m-2.96484-.79297l2.07812 1.30469m12.0625-1.91797l-5.97265 3.70703m5.97265-3.70703l2.1211 1.23437m-2.99219-.6953l1.0625.61718m13.1836-1.05078l-6.09376 3.5m6.09375-3.5l2.07813 1.30469m-2.96484-.79688l1.03906.65234m13.3125-.87109l-6.39063 2.91797m6.39063-2.91797l1.94922 1.4961m-2.87891-1.07032l.97266.7461m13.44922-.70313l-6.7422 1.98047m6.7422-1.98047l1.71484 1.7539m11.58984-1.78515l-6.72265 2.04297m6.72265-2.04297l1.73047 1.74219m11.5-1.98438l-6.55469 2.52735m6.5547-2.52735l1.85546 1.60547m11.58203-1.23047l-6.80078 1.77735m6.80078-1.77735l1.66016 1.80469m-2.64844-1.54688l.82813.90235m13.52734-.92969l-6.90234 1.3164m6.90234-1.3164l1.53516 1.91016m11.83984-1.32031l-7.02344.13671m6.0039-.11718l.59376 1.0703m13.65625-.25l-6.85547-1.54296m6.85547 1.54297l.64844 2.36719m12.75-3.26563l-7.02344.2539m7.02344-.2539l1.23046 2.125m-2.25-2.08594l.61329 1.0586m13.41015-2.42188l-6.39844 2.90235m6.39844-2.90235l1.94531 1.4961m11.33204-1.57422l-6.32422 3.0625m6.32422-3.0625l1.98046 1.44531m11.67188.39063l-7-.60938m7 .60938l.96094 2.2578m12.35937-2.78906l-7.01172.44922m7.01172-.44921l1.28906 2.08984m-2.30859-2.02344l.64453 1.04297M400.25 345.875l-6.52734 2.60938M400.25 345.875l1.8711 1.58203m-2.82032-1.20312l.9375.78906m12.67969-2.21094l-5.23047 4.6914m5.23047-4.6914l2.30469.84375m-3.06641-.16015l1.15234.42187m13.1875-.77344l-5.7578 4.02735m5.7578-4.02735l2.1836 1.11328m-3.02344-.52734l1.09375.55469m12.64063-1.63672l-4.91797 5.01953m4.91797-5.01953l2.35546.69531m11.66797.28906l-6.33203 3.05079m5.41016-2.60547l.98828.72656m13.38672-.83203l-6.61328 2.3711"/><g clip-path="url(#ai)"><path fill="none" stroke="#000" stroke-linecap="round" stroke-linejoin="round" stroke-miterlimit="10" stroke-width=".5" d="M466.86719 345.99219l1.8164 1.64844"/></g><g clip-path="url(#aj)"><path fill="none" stroke="#000" stroke-linecap="round" stroke-linejoin="round" stroke-miterlimit="10" stroke-width=".5" d="M144.53125 330.39063l-1.0625 6.9453"/></g><path fill="none" stroke="#000" stroke-linecap="round" stroke-linejoin="round" stroke-miterlimit="10" stroke-width=".5" d="M144.53125 330.39063l2.3164-.8125m10.76954.78515l-.60547 7m.60547-7l2.25781-.96094m11.69922 1.07422l-1.88672 6.76953m1.88672-6.76953l2.39453-.52734m13.17969 2.46875l-6.40625 2.89062m6.40625-2.89062l1.9414 1.5039m-2.875-1.08203l.97266.75m13.36719-.9453l-6.58985 2.4375m6.58985-2.4375l1.83203 1.6289m-2.78906-1.27735l.91406.81641m13.54297-.45313l-6.95703 1.00391m6.95703-1.0039l1.44922 1.98046m11.74609-2.5078l-6.71875 2.0625m6.71875-2.0625l1.73438 1.73437m11.25-2.48438l-6.0586 3.5625m6.0586-3.5625l2.08984 1.28516m11.54687-.5625l-6.69922 2.11719m6.69922-2.1172l1.75 1.71485m11.60547-1.57422l-6.78125 1.83594m6.78125-1.83594l1.67969 1.78906m11.34766-2.51562l-6.20703 3.28906m6.20703-3.28906l2.03515 1.375m11.41797-1.08984l-6.48047 2.71875m6.48047-2.71875l1.89844 1.55468m10.5664-2.76953l-4.78124 5.14844m4.08593-4.39844l1.1875.3164m13.77735.4336L313.75 334.9336m5.71875-1.83203l.8789.85547m13.4922.66406l-6.85938-1.51562m5.86328 1.29687l.32813 1.1797m13.92187-2.71876l-6.73437 2m6.73437-2l1.72266 1.75M359.75 331.625l-5.41797 4.47656m4.6289-3.82422l1.13282.46875m13.23828-.75l-5.95312 3.73438m5.08593-3.1914l1.06641.61327m13.64453.44141l-7.00781.53906m7.00781-.53906l1.3125 2.07031m12.00781-1.60937l-7.01953-.38281m7.01953.3828l1.03125 2.22266m12.07032-3.6328l-6.58985 2.4375m6.58985-2.4375l1.83203 1.6289m10.875-2.67188l-5.375 4.52344m5.375-4.52344l2.27734.91406m11.25-.63671l-5.80078 3.96875m5.80078-3.96875l2.17188 1.13671m-3.01563-.55859l1.08594.5664m13.4336-.46484l-6.52344 2.60938m6.52343-2.60938l1.875 1.58204m11.625-.95704l-6.89453 1.35938"/><g clip-path="url(#ak)"><path fill="none" stroke="#000" stroke-linecap="round" stroke-linejoin="round" stroke-miterlimit="10" stroke-width=".5" d="M467.00781 333.1836l1.55078 1.90234"/></g><g clip-path="url(#al)"><path fill="none" stroke="#000" stroke-linecap="round" stroke-linejoin="round" stroke-miterlimit="10" stroke-width=".5" d="M141.28906 318.3125l5.42188 4.47266"/></g><path fill="none" stroke="#000" stroke-linecap="round" stroke-linejoin="round" stroke-miterlimit="10" stroke-width=".5" d="M154.54297 318.38672l5.54297 4.32031m-5.54297-4.32031l.42187-2.41406m13.06641 2.21093l5.19922 4.72657m-5.19922-4.72657l.60156-2.375m14.69922 1.28125l1.22656 6.91797m-1.04687-5.91406l.96484-.7539m14.03125-.07813l-2.49219 6.57031m2.12891-5.61328l1.21484-.15625m14.71875 2.20703l-7.0039.5586m7.0039-.5586l1.32032 2.0664m11.98828-2.14062l-6.99219.70703m6.99219-.70703l1.36328 2.03906m11.95313-2.02343l-6.9961.67187m6.9961-.67187l1.35546 2.04687m11.8086-2.78515l-6.6914 2.14843m6.6914-2.14843l1.75781 1.71484m11.64453-1.38672l-6.86719 1.49219m6.8672-1.49219l1.58593 1.875m11.55078-2.45312l-6.51172 2.64843m6.51172-2.64843l1.88281 1.57421m11.5625-1.1953l-6.76953 1.89062m6.76953-1.89063l1.6914 1.77735m11.6211-1.78125L300.39844 321.5m6.76562-1.90234l1.69532 1.77343m11.67968-1.53125l-6.88281 1.41797m6.88281-1.41797l1.5625 1.89063m-2.5664-1.6836l.78515.94532m13.48047-1.3711l-6.77734 1.85547m6.77734-1.85547l1.6836 1.78516m-2.67188-1.51563l.84375.89063m13.3711-1.4336l-6.60157 2.40235m6.60156-2.40234l1.82422 1.64062m10.89063-2.6875l-5.40235 4.4961m4.6172-3.84375l1.1328.46484m12.9336-1.15625l-5.33594 4.57422m4.5586-3.91016l1.14453.44922m12.70703-1.36719l-4.85547 5.08203m4.85547-5.08203l2.36328.66406m10.46484-1.05468l-3.8789 5.85937m3.3125-5.00781l1.22265.1211m8.9375-1.07032l3.5664 6.05469m-3.05077-5.17188l.64062-1.04687m10.60156 4.28515l6.6797-2.1875m-5.70704 1.8711l-.88672-.85156m13.5586-1.73438l6.01953 3.6211m-5.14453-3.09375l.0664-1.22657m17.03906-.58984l-3.3125 6.19531m2.83204-5.29297l1.22656.0039m14.09765.71095l-6.37109 2.96484"/><g clip-path="url(#am)"><path fill="none" stroke="#000" stroke-linecap="round" stroke-linejoin="round" stroke-miterlimit="10" stroke-width=".5" d="M466.7461 319.0664l1.96093 1.47657"/></g><path fill="none" stroke="#000" stroke-linecap="round" stroke-linejoin="round" stroke-miterlimit="10" stroke-width=".5" d="M465.82031 319.4961l.98047.74218"/><path fill="#00f" fill-rule="evenodd" d="M392.67578 454.33203h8.6211V444.1875h-8.6211v10.14453"/><path fill="azure" fill-rule="evenodd" d="M394.51172 446.01953h.83203v2.82422h3.28516v-2.82422h.83203V452.5h-.83203v-2.91406h-3.28516V452.5h-.83203v-6.48047"/><path fill="#ff3030" fill-rule="evenodd" d="M322.35938 436.57813h7.6914v-10.14454h-7.6914v10.14454"/><path fill="azure" fill-rule="evenodd" d="M324.1914 428.26563h.83204v5.74218h3.19531v.73828h-4.02734v-6.48046"/><path fill="#00f" fill-rule="evenodd" d="M224.01953 418.82813h8.61719v-10.14844h-8.61719v10.14844"/><path fill="azure" fill-rule="evenodd" d="M225.85156 410.51172h.83594v2.82422h3.28516v-2.82422h.83203v6.48047h-.83203v-2.91406h-3.28516v2.91406h-.83594v-6.48047"/><path fill="#ff3030" fill-rule="evenodd" d="M451.07031 409.94922h7.6914v-10.14453h-7.6914v10.14453"/><path fill="azure" fill-rule="evenodd" d="M452.90234 401.63672h.83204v5.73828h3.1953v.74219h-4.02734v-6.48047"/><path fill="#ff3030" fill-rule="evenodd" d="M344.55078 401.07422h7.6914v-10.14844h-7.6914v10.14844"/><path fill="azure" fill-rule="evenodd" d="M346.38281 392.76172h.83203V398.5h3.19532v.73828h-4.02735v-6.47656"/><path fill="#ff3030" fill-rule="evenodd" d="M291.28906 396.63281h7.6914v-10.14453h-7.6914v10.14453"/><path fill="azure" fill-rule="evenodd" d="M293.1211 388.32031h.83593v5.74219h3.1914v.73828h-4.02734v-6.48047"/><path fill="#ff3030" fill-rule="evenodd" d="M198.08203 365.5664h7.69531v-10.14452h-7.6953v10.14453"/><path fill="azure" fill-rule="evenodd" d="M199.91797 357.2539h.83203v5.73829h3.19531v.74219h-4.02734v-6.48047"/><path fill="#ffffe0" fill-rule="evenodd" d="M341.74219 366.48047h22.1836v-10.1914h-22.1836v10.1914"/><path fill-rule="evenodd" d="M345.24219 358.1211h.51172v6.29687h-.78907v-4.49219h-1.38671v-.55469l.55859-.0664.2539-.05078.22657-.08985.20312-.14062.17578-.21094.14063-.29688.10547-.39453m4.8164 0l.22657.01954.21875.05468.21093.08985.19532.12109.18359.14844.17188.17578.30078.42187.24218.4922.1797.54687.11327.57812.03906.59375-.03906.58985-.11328.58593-.17969.55469-.24218.5-.30079.42969-.17187.17969-.1836.15234-.1953.125-.21094.08984-.21875.0586-.22657.01953-.23046-.01953-.21875-.0586-.20704-.08984-.19921-.125-.1836-.15235-.17187-.17968-.30079-.42969-.24218-.5-.17969-.55469-.11328-.58594-.03906-.58984h.83593l.02735.5625.08203.5039.125.44532.16406.3711.1914.30077.21094.22266.22266.13672.22656.04688.22657-.04688.22265-.13672.21094-.22265.1875-.30079.16406-.37109.125-.44531.08203-.5039.03125-.5625-.03125-.5625-.08203-.5-.125-.4375-.16406-.36329-.1875-.29297-.21094-.21484-.22265-.13281-.22657-.04297-.22656.04296-.22265.13282-.21094.21484-.1914.29297-.16407.36328-.125.4375-.08203.5-.02735.5625h-.83593l.03906-.59375.11328-.57812.17969-.54688.24219-.49219.30078-.42187.17187-.17578.1836-.14844.19921-.1211.20704-.08984.21875-.05469.23046-.01953m5.08985 0h.50781v6.29688h-.78516v-4.49219h-1.39062v-.55469l.5625-.0664.25-.05078.23047-.08985.20312-.14062.17578-.21094.14063-.29688.10547-.39453m2.82422 2.17579h.78515l.01953-.31641.0586-.28516.10156-.2539.14063-.21485.17968-.17578.22266-.1289.26562-.07813.3086-.02734.23828.01953.22265.0625.20313.10156.17969.14063.14844.17187.11328.20703.07421.23438.02344.26562-.01953.26953-.0664.22266-.10938.1914-.15625.17188-.20313.16406-.24609.16406-.63281.39063-.53906.3125-.4375.3164-.34375.32423-.26563.33593-.1914.35156-.125.3711-.06641.39062-.02344.42188h4.21485v-.74219h-3.33594l.08594-.28515.11328-.23438.14843-.20313.1875-.17968.23047-.17188.27735-.17578.71875-.41797.41406-.20312.34375-.23047.28125-.2539.22265-.26563.16016-.27735.11328-.28515.0625-.28516.01953-.28125-.03906-.38281-.1211-.34766-.1914-.3086-.25-.26171-.30078-.21484-.34766-.15625-.3789-.09766-.40625-.03516-.4336.03516-.39843.09766-.35547.16406-.30469.23437-.25.3047-.1836.375-.11718.4453-.03906.51954"/><path fill="#ffffe0" fill-rule="evenodd" d="M199.71484 336.98438h22.1836v-10.19532h-22.1836v10.19531"/><path fill-rule="evenodd" d="M203.21484 328.625h.51172v6.29297h-.78906v-4.48828h-1.38672v-.55469l.5586-.0664.2539-.0547.22656-.08984.20313-.14062.17578-.21094.14063-.29297.10546-.39453m4.81641 0l.22656.01953.21875.05469.21094.08984.19531.1211.1836.14843.17187.17579.30078.41796.24219.4961.17969.54687.11328.57813.03906.58984-.03906.59375-.11328.58203-.17969.55469-.24219.5039-.30078.42579-.17187.17969-.1836.15625-.19531.12109-.21094.09375-.21875.05469-.22656.01953-.23047-.01953-.21875-.0547-.20703-.09374-.19922-.1211-.1836-.15625-.17187-.17968-.30078-.42578-.24219-.50391-.17968-.55469-.11328-.58203-.03907-.59375h.83594l.02734.5625.08203.50781.125.44141.16407.375.1914.30078.21094.22266.22266.13672.22656.04687.22656-.04687.22266-.13672.21094-.22266.1875-.30078.16406-.375.125-.4414.08203-.50782.03125-.5625-.03125-.5625-.08203-.5-.125-.4336L208.8789 330l-.1875-.29297-.21094-.21094-.22266-.1328-.22656-.04688-.22656.04687-.22266.13281-.21094.21094-.1914.29297-.16406.36719-.125.4336-.08204.5-.02734.5625h-.83594l.03906-.58985.11329-.57813.17968-.54687.2422-.4961.30077-.41796.17188-.17579.1836-.14843.19921-.1211.20703-.08984.21875-.05469.23047-.01953m5.08984 0h.50782v6.29297h-.78516v-4.48828h-1.39063v-.55469l.5625-.0664.25-.0547.23047-.08984.20313-.14062.17578-.21094.14063-.29297.10546-.39453m2.82422 2.17578h.78516l.01953-.3164.0586-.28907.10156-.25.14062-.21484.17969-.17578.22266-.1289.26562-.08204.3086-.02734.23827.02343.22266.0625.20313.10157.17968.13671.14844.17579.11328.20312.07422.23828.02344.26172-.02344.26953-.0625.22656-.11328.19141-.15234.17188-.20313.16015-.2461.16797-.6328.38672-.53907.3125-.4375.32031-.34765.32422-.26172.33594-.1914.34765-.125.3711-.06642.39453-.02343.41797h4.21484v-.73828h-3.33594l.08594-.28516.11328-.23828.14844-.19922.1875-.1836.23047-.16796.27734-.17578.71875-.41797.41406-.20703.34375-.23047.28125-.25.22266-.26563.16016-.28125.11328-.28125.0625-.28515.01953-.28125-.03906-.38281-.1211-.34766-.1914-.3086-.25-.26562-.30078-.21094-.34766-.15625-.3789-.10156-.40626-.03125-.43359.03125-.39844.09766-.35547.16796-.30468.23438-.25.30469-.1836.375-.11719.44531-.03906.51953"/></g></defs><use xlink:href="#an"/></svg>