<svg xmlns="http://www.w3.org/2000/svg" role="img" xmlns:xlink="http://www.w3.org/1999/xlink" viewBox="142.45 309.95 326.84 171.84"><defs><clipPath id="a"><path d="M144 311.67188h1v168.65625h-1zm0 0"/></clipPath><clipPath id="b"><path d="M144 311.67188h324v168.65625H144zm0 0"/></clipPath><clipPath id="c"><path d="M389 477h7v3.32813h-7zm0 0"/></clipPath><clipPath id="d"><path d="M391 479h3v1.32813h-3zm0 0"/></clipPath><clipPath id="e"><path d="M467 311.67188h1V473h-1zm0 0"/></clipPath><clipPath id="f"><path d="M144 479h4v1.32813h-4zm0 0"/></clipPath><clipPath id="g"><path d="M147 479h3v1.32813h-3zm0 0"/></clipPath><clipPath id="h"><path d="M146 479h2v1.32813h-2zm0 0"/></clipPath><clipPath id="i"><path d="M153 480h9v.32813h-9zm0 0"/></clipPath><clipPath id="j"><path d="M160 480h3v.32813h-3zm0 0"/></clipPath><clipPath id="k"><path d="M159 480h2v.32813h-2zm0 0"/></clipPath><clipPath id="l"><path d="M166 479h9v1.32813h-9zm0 0"/></clipPath><clipPath id="m"><path d="M173 479h3v1.32813h-3zm0 0"/></clipPath><clipPath id="n"><path d="M172 479h3v1.32813h-3zm0 0"/></clipPath><clipPath id="o"><path d="M180 479h8v1.32813h-8zm0 0"/></clipPath><clipPath id="p"><path d="M187 479h3v1.32813h-3zm0 0"/></clipPath><clipPath id="q"><path d="M186 479h2v1.32813h-2zm0 0"/></clipPath><clipPath id="r"><path d="M193 479h8v1.32813h-8zm0 0"/></clipPath><clipPath id="s"><path d="M200 479h3v1.32813h-3zm0 0"/></clipPath><clipPath id="t"><path d="M199 479h2v1.32813h-2zm0 0"/></clipPath><clipPath id="u"><path d="M206 479h9v1.32813h-9zm0 0"/></clipPath><clipPath id="v"><path d="M213 479h3v1.32813h-3zm0 0"/></clipPath><clipPath id="w"><path d="M212 479h3v1.32813h-3zm0 0"/></clipPath><clipPath id="x"><path d="M220 479h8v1.32813h-8zm0 0"/></clipPath><clipPath id="y"><path d="M226 479h4v1.32813h-4zm0 0"/></clipPath><clipPath id="z"><path d="M226 479h2v1.32813h-2zm0 0"/></clipPath><clipPath id="A"><path d="M233 479h8v1.32813h-8zm0 0"/></clipPath><clipPath id="B"><path d="M240 479h3v1.32813h-3zm0 0"/></clipPath><clipPath id="C"><path d="M239 479h2v1.32813h-2zm0 0"/></clipPath><clipPath id="D"><path d="M246 479h9v1.32813h-9zm0 0"/></clipPath><clipPath id="E"><path d="M253 479h3v1.32813h-3zm0 0"/></clipPath><clipPath id="F"><path d="M260 478h8v2.32813h-8zm0 0"/></clipPath><clipPath id="G"><path d="M266 478h4v2.32813h-4zm0 0"/></clipPath><clipPath id="H"><path d="M273 479h8v1.32813h-8zm0 0"/></clipPath><clipPath id="I"><path d="M279 479h2v1.32813h-2zm0 0"/></clipPath><clipPath id="J"><path d="M286 479h9v1.32813h-9zm0 0"/></clipPath><clipPath id="K"><path d="M292 479h2v1.32813h-2zm0 0"/></clipPath><clipPath id="L"><path d="M300 478h8v2.32813h-8zm0 0"/></clipPath><clipPath id="M"><path d="M305 479h3v1.32813h-3zm0 0"/></clipPath><clipPath id="N"><path d="M314 477h7v3.32813h-7zm0 0"/></clipPath><clipPath id="O"><path d="M329 479h3v1.32813h-3zm0 0"/></clipPath><clipPath id="P"><path d="M341 477h6v3.32813h-6zm0 0"/></clipPath><clipPath id="Q"><path d="M355 476h4v4.32813h-4zm0 0"/></clipPath><clipPath id="R"><path d="M368 476h5v4.32813h-5zm0 0"/></clipPath><clipPath id="S"><path d="M382 476h4v4.32813h-4zm0 0"/></clipPath><clipPath id="T"><path d="M394 477h6v3.32813h-6zm0 0"/></clipPath><clipPath id="U"><path d="M407 477h7v3.32813h-7zm0 0"/></clipPath><clipPath id="V"><path d="M421 476h5v4.32813h-5zm0 0"/></clipPath><clipPath id="W"><path d="M433 478h8v2.32813h-8zm0 0"/></clipPath><clipPath id="X"><path d="M447 477h7v3.32813h-7zm0 0"/></clipPath><clipPath id="Y"><path d="M460 478h8v2.32813h-8zm0 0"/></clipPath><clipPath id="Z"><path d="M144 466h4v2h-4zm0 0"/></clipPath><clipPath id="aa"><path d="M144 453h4v2h-4zm0 0"/></clipPath><clipPath id="ab"><path d="M144 440h4v1h-4zm0 0"/></clipPath><clipPath id="ac"><path d="M144 426h4v2h-4zm0 0"/></clipPath><clipPath id="ad"><path d="M144 412h4v4h-4zm0 0"/></clipPath><clipPath id="ae"><path d="M144 397h3v7h-3zm0 0"/></clipPath><clipPath id="af"><path d="M466 397h2v3h-2zm0 0"/></clipPath><clipPath id="ag"><path d="M144 384h3v6h-3zm0 0"/></clipPath><clipPath id="ah"><path d="M466 386h2v3h-2zm0 0"/></clipPath><clipPath id="ai"><path d="M144 372h4v4h-4zm0 0"/></clipPath><clipPath id="aj"><path d="M144 359h4v3h-4zm0 0"/></clipPath><clipPath id="ak"><path d="M466 358h2v3h-2zm0 0"/></clipPath><clipPath id="al"><path d="M144 345h4v4h-4zm0 0"/></clipPath><clipPath id="am"><path d="M466 346h2v3h-2zm0 0"/></clipPath><clipPath id="an"><path d="M144 330h3v7h-3zm0 0"/></clipPath><clipPath id="ao"><path d="M466 332h2v3h-2zm0 0"/></clipPath><clipPath id="ap"><path d="M144 317h3v7h-3zm0 0"/></clipPath><clipPath id="aq"><path d="M466 318h2v3h-2zm0 0"/></clipPath><clipPath id="ar"><path d="M465 319h3v2h-3zm0 0"/></clipPath><g id="as" clip-path="url(#clip1)"><path fill="#fff" fill-opacity="0" fill-rule="evenodd" d="M0 0h1000v1000H0zm0 0"/><path fill="#d3d3d3" fill-opacity="0" fill-rule="evenodd" d="M162.15234 355.86719l-.23437.29297.0586.23437.11718.17188.17578.23437.29297.34766.11328.0586.11719-.17188.0586-.23438.17577-.17578.46485-.17578h.69922l.23437.29297.28906.8164.0586.17579.17578.23046.35156.23438.69922.69922.17188.17578.23437.34765.23438.41016.28906.58203.41015.46485.23047.23437.23438.17578.11719.23047.17578.29297.17187 1.16406v.23438l.0586.28906.05859.11719.11719.11719.34765.41015.11719.17188.17578.17578.17578.23437.11719.17188.17188.35156.05859.23438.23437.40625.23438-.0586-.17578.17578-.0586.92969h-.58203l-.23437-.11328-.34766.11328-.11719.11719-.05859.29297-.0586.17578-.11718.17187-.46484.29297-.0586.23438-.0586.11328v.64453l.0586.17187v.41016l.0586.0586v.40624l.05859.40625.11719.17579.05859.05859.23047.64062-.0586.29297v.69922l-.05859.58203v.23438l-.0586.23047-.05468.35156v1.92187l.05469.1172h.42578l-.36719.11718-.02344.35156.89063 1.16797 1.74219.53906 1.33984.35938v.53906l.08984.8086.53516.71484 1.51953.26953.89063-.08594.08984 1.16406.53516.1797 1.16015-.1797 2.05469-.98437 1.16016-.36328 1.8789-.17578 1.69531-.1797-.17968.71876-1.51563.08594-1.25.08984-.80469.26953-1.07421.8086.26953.71875.53515.89843-.17968.625-.26563.8086.26563 1.07812.625.89844.80468.17969 1.25-.1797-.26562.72267.09766.5039.05468.29297v.17188l.0586.29296v.40625l.17578.1172.35156.11718h.40625l.29297-.17578.11328-.11719.0586-.11719.11718-.23047.0586-.17578.35156-.46484.23047-.17578.17578-.0586.17578.0586.0586.17578.11718.98828.05469.46875.0586.17188.11718.23437.17578.0586.8164.05859h.28907l.11719.23437.05859.40625.0586.35156v1.10547l.11718.29297.11719.34766.28906.69922.17578.35156.58203.7539.35157.17579.17187.0586.46875.23437.64063.46484.34765.23438.29297.17578.29297.05468.23047.0625.8164.34766.29297.17578.11328.17188.35157.35156.11719.17578.52343.64063v.28906l.0586.35156v.34766l.05859.35156.0586.28906.11718.0586.17188.05859h.17578l.58203.23437.17578.1172.17578.28905.17578.23438.11328.23437.29297.23047.11719.11719v.41016l.0586.05468.28906.23438.23437.11719.0586.11718.11718.17188.0586.11719.23047.23437.05859.17578.23437.0586.1172.05859-.1172.11328-.05859.11719v.11719l-.11719.29296-.11719.28907v.58203l.17579.11719.11718.05859.0586.11719.11719.11719.11328.05859.17578.34765.0586.35157.05858.40625v.17578l-.05859.17578-.11719.69922v.17187l.1172.17579.29296.29296h.40625l.17578.1172.11719.17187.11719.29296v.23438h-.52735l-.23047-.23438h-.23437l-.17578.0586-.0586.69922.0586.34765.11719.17579.17578.41015.11718.23047.28907.46875.17578.05469h.52344l.23437.0586.75781.64062.0586.29296v.23438l.05859.0586.23047.34765v.35156l-.11719.17188v.29297l.29297.28906.29297.17578.17187.0586.29297.17577.29297.1172.58203.40624.28906.23438.29297.17578.21875.16015.01563.01172.23047.17579.64062.52343.17578.23438.1172.17578.17577.17578.11328.17188v.64062l.1172.17578.46874.11719.58203.11719.23438.05859.23047.11328.29297.11719.11328.0586.58593.35156.28907.17187.17578.0625.17578.05469.17578.0586.69922.35155.28906.17579.23438.05468.28906.17578.23437.1172.64063.40624.29297.11719.17187.0586.23438.05859.41015.05859.23047.0586.23438.11718.0586.17188-.41017.17578.46875.0586.0586.29296.11328.23438.17578.05468.23438.0586.17578.05859.40625.11719.64062.23437.11719.17188.0586.23437v.17578l-.0586.1172-.0586.40624.23438.23438.11719.05859.34766.11719.64062.23047.17578.11718.28906.1172.17578.17577.23438.46485.58203 1.10546.17578.17579.34766.17578.17578.11719.35156.11718 1.04688.52344.23437.0586.46485.11327.29297.0586.46484.17578.75781.58203.23438.23438.34765.46484.17578.17578.28907.23438.8164.69921.29297.17579.28906.28906.29297.17578.29297.28906.69531.64063.17578.17578.29297.23437.28907.23438.46875.28906.64062.58203.34766.23438.23437.29297.34766.34765.35156.46485.9336.99218.34765.40625.11719.17579.23437.05859.11328.11719.64454.17578.23047.11328.23437.0586.29297.17577.23047.1172.9336.69921.40624.40625.23438.17578.40625.17578.23437.11719.8164.34766.34766.23437.23438.11719.29297.28906.23047.11719.7578.35156.35157.17188.23047.05859.29297.11719.23437.0586.8711.17577h.8164l.46875.23047.17188.0586.875.69921.46484.1172.29297.05858.17578.0586.23047.0586.46875.05859.34766.05859.35156.0586.40625.05859h.29297l.17187.0586v.23046l.17578.17578h.29297l.34766.0586.35156.05859.69922.11719h.64063l.46484-.23438.29297-.17578.17187-.11719.41016-.17187.28906-.17578.9336-.46485.46875-.29297.52343-.29296.46485-.17188.46484-.17578 1.05078-.46485.28906-.11718.41016-.11719.28906-.11719.52735-.17578 1.51562-.69922.58203-.34765.28907-.0586.29297-.0586.34765-.11718.875-.23047.35156-.11719h.11329l.23437-.05859.875-.23437.23438-.0586h.8125l.35156-.0586.8164-.11718.17188-.0586.35156-.05468.29297-.0586.23047-.05859.8164-.17578.17579-.0586h.34765l.23438-.05859.46484-.11718.75781-.17188.23438-.0586h.34765l.41016-.11718.28906-.0586 1.28516-.05859h.28906l.41016-.0586.23047-.05858h.17578l.875-.1172h.40625l.41015-.11718h.34766l.35156-.11328.8711-.0586h1.75l1.04687.28907.41016.11719.28906.11718.35156.11719.28907.11719 1.05078.17187.28906.0586h.29297l.29297.05859.17187.0586.41016.05859.17187.0586.1172.05858h.11718l.11719.0586.35156.0586h.11328l.41016.0664 1.92187.39453 1.92578.39453 1.51953.44922 1.69532.71875 2.14453.80469 1.60547-.71875 1.42968-.80469 1.16016-1.07813 1.25-.44921 3.03516-.71875 1.875-.35938 2.14453-1.34765 2.23437-1.25391 2.5-1.25781 1.69531-.44922 1.78516-.17969 1.16016-.26953.625.53906 1.33984-.26953.71485-.98828.98437-1.34375.44531-.17969.80469-.35937 1.875-.53907 1.78516-.44921 1.25-.26954 1.16015-.08984 1.69922-.08984 1.96094-.26954 1.25-.08984h.53906l.625-.08984h.89063l2.14453-.17969 2.41015-.17969 2.58985-.08984 1.69531.17969 1.60938.08984 1.42968.35938 1.16016.71875 1.875.98828 1.16015 1.52734.26563.71484.6289.08985.35548.89844.53515.53906.53516 1.52734 1.07422.35938h.53515l-.80469.53515.08985 1.70703.71484 2.69532.89063.80468.89453.98829.71484 1.2578 1.78516.53907 1.51953-.17969.35547 1.34375 1.60937-.80469.98047-.53906.26953.26953.31641-.21484.21875-.14453.80078.44922.44922-.35938h.35547l.53515-.26953.53907-.71875.53515-.26953.625-.98828 1.16016.44922.83984.3711 1.39454.61718 1.6953-.17969h1.60548l1.78515.08985.17969-1.70704.53516-1.34375.80468.26954.4922.84765.40233.40625-.08984.53906v.35938l.71485.44922.71093-.26953h1.42969l.35938.98828.4453 1.25781.71485 1.34375 1.25.6289 1.69531.62891.71485-.17969.17969-.53906.98046-.08984.44922.35937.08594 1.25782-.26563.6289-.53515.17969v.53906l.71484.98438.26563.53906.98437.98828.80078 1.07813-.26562.35937-.08985.89844-.625 2.33203-.35546 2.0664-.08985 1.79298-.17969.71875-.08984.53906v1.4375l-.98047 1.88281-.35937 1.70703-.53516.89844-.80469 1.16797-.26562.53906 2.05469 1.2539.08593.35938-.35546.53906-.08985-.17968v.80859l.08985 1.4375-.44532.71484-1.07422.09375-.26562.71485.53515.89844.8047.71875 1.16015.80859 1.33984.26953.44531.35938-.35546.44921-1.78907-.08984-1.25-.44922-.71484-.71875-.625-.08984-.17578 3.58984-.1875 1.3086h89.35937V311.70313h-55.26953v49.08203l.76172.125 3.28906.54296 2.02344 2.83594v2.7539l2.35156.33204 2.34766.33203h4.05078l-1.3789 4.16016-2.02344.70703-2.02344.70312-.54297.34375-2.59375 1.6172-.1875.11718-2.02344-2.07813-.73046-2.74218-2.67188-2.07813-1.375-3.5-.0664-.08203-1.95704-2.67188 2.75-1.41796v-49.08204H294.42187v91.41407l.1172.03125.1328.01172.07422.07421.10547.04688.08985.0586.08593.05859.08985.0586.29687.29687.0586.08984.03125.11719.02734.11719.01563.13671-.03125.1172-.0586.08983-.0586.08594-.04296.10547-.04688.10156-.02734.1211v.14453l.17578.26953.14844.14844.07422.08594.07422.07421.04296.10547.0625.08985.0586.08593.04297.10547.0586.08985.04687.10156.04296.10547.0586.08594.11719.17968.07421.07422.0625.08594.0586.08984.04297.10547.0586.08985.05858.08593.0625.08985.0586.08984.04297.10156.11719.17969.07421.07422.0586.08594.07422.07421.08984.0586.10547.04687h.14844l.1328-.01562.13282.01562.10156-.04687.07422-.07422.04688-.10156-.01563-.13281v-.14844l-.04687-.10547-.02735-.11719-.04687-.10156-.02735-.1211-.04296-.10156-.0625-.08984-.04297-.10156-.04297-.10547-.03125-.11719-.01563-.13281-.01171-.13672.08593-.0586.0586-.08593.12109-.03125.04297.10547.01562.1328v.1172l.0586.10156.0586.08984.08983.0586.14844.14843.0586.08985.04296.10547-.01171.10156.08593.0586.10547.04687.08594.0586.08984.05858.07422.07422-.11719.02735-.10546.04687-.08594.0586-.07422.07421-.0586.08985-.0625.08594-.02734.12109-.04687.10156-.04297.10547-.03125.11719-.01172.13281-.01563.13281v.14844l.02735.11719.04687.10547.04297.10156.0586.08984.07421.07422.08985.0586.07422.07421.08984.0586.0586.08984.04296.10547.04688.10156.11719.03125.1328.01563h.14845l.11718-.03125.10547.04297.04297.10547.04688.10156.02734.1211L299.5 410l.02734.11719.03125.1211.02735.11718.10547.04297.10156.04687.13281-.01562.14844.14844.0625.08593.07422.07422.07031.07422.08984.0625.10547.04297.10156.04297.1172.03125.13671.01562.11719-.03125.07422-.07422.02734-.11718-.01172-.13282-.03125-.12109-.02734-.11719.04297-.10547h.11719l.08984.0625.11719.02735h.14843l.13282.01562h.14843l.13282.01563.1328-.01563h.14845l.1328-.01562.13282-.01172.13672.01172.11719-.02735.13281-.01562.1914-.0586-.05859.17579-.01562.1328-.02735.1211-.01562.13281-.0586.08594-.1328.01563-.10548.04687-.10546.04297-.1172.03125-.11718.02735-.26563.03125h-.14843l-.13281.01562-.07422.07422.05859.08594.14844.14843.11719.1797.07421.0703.08985.0625.08984.0586.08594.0586.08984.05858.10156.04297.10547.0625.10547.04297.08594.0586.10547.04687.10156.04297.17969.11719.0586.08984-.04298.10156-.04687.10547.01562.13281.22266.22266.0586.08985.04296.10156.03125.1211.04297.10155.01563.13282.03125.11718.01171.13672.03125.11719.14844.14844.10156.04297.10547.04296.1172.03125.1328.01563.13672.01563h.11719l.11719-.03125.08984-.0586.04297-.10547.04688-.10156.04296-.10547.03125-.11719.01172-.1328v-.14845l-.01172-.1328-.01562-.13282-.03125-.11719-.04297-.10547-.04688-.10547-.04296-.10156-.04297-.10547-.01563-.13281.01563-.13281.02734-.11719.03125-.11719.02735-.1211.04687-.10155.08984-.0586.08594-.0625.07422-.07422.08984-.05859.22266-.22266.0586-.08593.07421-.07422.11719-.17969.0586-.08594v-.14844l-.07423-.07421-.10156-.04688-.10547-.04297-.10156-.04297-.0586-.08984-.04687-.10547-.02734-.11719.08984-.05859.11719-.03125.10156-.04297.17969-.11719.14844-.14843.01172-.13282-.01172-.10546-.08985-.0586-.1328.01563h-.14845l-.1328.01562-.13282-.01562-.1211-.03125-.08593-.0586-.07422-.07422-.0586-.08984-.0625-.08594-.11718-.17969-.0586-.08593.03125-.1211.08594-.05859.1211-.03125.05859-.08594v-.1211l-.03125-.11718-.0586-.08984-.05859-.08594-.04687-.10547-.02735-.11719-.01562-.1328.0586-.08985.07421-.07422.08984-.0586.1172-.17968.07421-.07422.0586-.08594.14843-.14844.1211-.03125.1328-.01562.13282.01562.07422.07422.04297.10547.01562.13281-.03125.1172-.11719.03124-.1328.01172-.14844.14844-.04297.10547-.04688.10156-.02734.1211-.03125.11718v.14844l.03125.11719.04297.10546.05859.08985.07422.07031.07422.07422.11719.03125.12109.02734.11719-.02734.1328-.01563h.1172l.08984.0586.07422.07422.04687.10546.0586.08594.10156.04688.13281.01562.10547.04297.08594.0586-.01172.10546-.07422.07422-.17969.11719-.05859.08984-.08984.0586-.07032.07422-.07421.07421-.0625.08985-.02735.11719-.01562.1328.01562.13282-.01562.13281v.14844l.01562.13281.02735.1172.03125.12108.07421.07422.08985.0586.08594.0586.08984.05858.11719.03125v.08594l-.10157.04688-.08984.0586-.26563.03124-.11718.02735h-.14844l-.10547.04296-.10156.04688-.0586.08984-.0625.23438-.01171.13281-.03125.1211-.01563.1328v.29298l-.01172.1328.01172.13673.01563.1328.1328.01563.13282.01172.1211.03125.08593.0586.07422.07421.04688.10547.04296.10157.01563.1328v.44532l-.01563.13281v.44532l.03125.26562.02735.11719.01562.13281.03125.11719.08594.21094.03125.26562v.14844l-.03125.11719-.02734.11718-.03125.1211-.02735.11719-.03125.11718-.03125.1211-.01171.1328-.01563.13282.08984.0586.1172-.03125.10155.01562.04688.10547-.03125.26562v.44141l-.04297.10547-.04688.10547-.04296.10156-.04297.10547-.0586.08594-.03125.12109-.04296.11719-.03125.11719-.01563.1328.01563.13282.05859.08984.10547.04688.08594.0586.05859.08593-.01172.13672-.03125.11719-.04297.10156v.44531l-.01562.13281v.14844l-.03125.11719-.04297.10547-.02735.11719-.04687.10546-.04297.10157-.03125.12109-.02734.11719-.03125.13281-.03125.11719-.02735.11719-.04297.10546-.03125.1172-.03125.12108-.01171.13282-.01563.13281v.29688l.02734.11718v.14844l.04688.39844.02734.11719.0586.08984.12109.03125h.14844l.13281-.01563.0586.08985v.11719l-.0586.08984-.08984.0586-.10157.04296-.10546.04688-.08985.05859-.08594.0586-.13671.01562-.1172-.03125-.1328-.01563-.10157.04688-.0625.08594-.01172.13671-.01562.13282-.03125.11719-.02735.11718-.01562.13281-.03125.1211v.29687l.01563.13282.03125.11718v.14844l.01171.13281v.14844l-.02734.11719-.04688.10156-.02734.1211-.03125.11718-.0586.08985-.07421.07421-.10156.04297-.10547.04688-.11719.02734-.1211.03125-.10156-.04687.0586-.08594.10547-.04688.02734-.11718.03125-.11719.02734-.1211.03125-.11718v-.14844l.01563-.13281-.03125-.11719-.04297-.10547-.10547.01563-.07422.07422-.10156.04296-.08984.0625-.07422.07422-.04297.10157-.01563.1328-.03125.1172L304.25 426l-.03125.11719-.02734.11719-.03125.12109-.02735.11719-.03125.11718-.04297.10547-.08984.0586h-.08984l-.1172-.03125-.03124-.08594.01562-.13672-.03125-.11719v-.14844l-.01171-.1328v-.14844l-.0625-.23438-.02735-.1211-.04297-.10156-.04687-.10546-.0586-.08594-.05859-.08985-.04297-.10546-.0625-.08594-.14844-.14844-.0703-.07422-.10548-.04687-.10547-.04297-.10156-.04297-.29687-.29688-.08985-.07421-.08594-.0586-.10546-.04297-.08985-.0625-.08594-.0586-.10546-.04296-.08985-.0586-.08594-.0625-.07421-.0703-.10547-.04688-.08594-.0586-.10547-.04296-.08984-.0625-.10156-.04297-.10547-.04297-.08594-.0586-.10547-.04687-.10547-.04297-.10156-.04687-.08985-.0586-.10156-.04297-.10547-.04296-.08984-.0625-.11719-.02735-.13281-.01562-.13281.01562H299.75l-.13281.01563-.11719-.03125-.08984-.0586-.07422-.07422-.08985-.05859-.10156-.04688h-.14844l-.12109-.02734-.10156-.04297-.07422-.07422-.11719-.17968-.08984-.0586-.10156-.04297-.08985-.0625-.10547-.04296-.08984-.0586-.08594-.0586-.10547-.04687-.0586-.08594-.05858-.08984-.04297-.10547-.04688-.10156-.07422-.07422-.08594-.0586-.07421-.07421-.08985-.0586-.22265-.22265-.04297-.10547-.03125-.26563.10547-.04296h.14453l.10547.04296.07421.07422.08985.0586.08594.0586.10546.04687.08985.05859.14844.14844.0703.07422.14845.14843.0625.08594.07421.07422.08594.0586.07422.07421.08985.0625.08984.0586.08594.05859.26953.17578.10156.04688.10547.04296.10156.04297.04688-.07421.05859-.08594.07422-.07422.07031-.07422.10547.04297.07422.07422.0586.08984.04296.10156.04688.10547.04296.10547.1211.02735.11719-.02735.07421-.08984.04297-.10547.0586-.08985.07422-.07421.10546-.04297.1172-.02735.1328.01172.08985.0586.14844.14843.05859.08985.04297.10547.04687.10156.04297.10547.04297.10156.10547.04688.10547.04296.13281.01563.08594-.0586.0586-.08984.07421-.07422.10547-.04297.11719.02735.10547.04687.10156.04297.10547.04297.10156.04688.17969.11718v.11719l-.01563.13281.01563.13281.01562.13672.0586.08594.10156.04688.1211.02734.11718.03125h.14844l.11719-.03125.05859-.08984.17969-.1172.05859-.08983.07422-.07422.0586-.08594.11718-.17969.17969-.11719.11719.03125.08984.0586.04297.07422-.01563.1328v.1172l.08985.05859h.14843l.13282-.01563.1328-.01171.26563-.03125.10547-.04297.11719-.03125.1211-.02735.07421-.07421.07031-.07422.0625-.08985-.01562-.10547-.04688-.10156-.10156-.04297-.10547-.01562-.11718.02734-.26563.03125h-.14844l-.07421-.07422-.08985-.0586-.11719-.03124-.11718-.02735-.13282-.01562h-.14843l-.13282.01563h-.29687l-.10547-.04688-.14844-.14844-.04297-.10156-.05859-.08984.22266-.22266.08593-.0586.10547-.04296.11719-.03125.13281-.01563.13281.01563.13672.01562.10157.04297.1328-.01172.08985-.0625.10156-.04297.0625-.08984-.04687-.10156-.08984-.0586-.1172-.03125-.10155-.04296-.0586-.08985-.0625-.08984v-.11719l.01563-.13281.10547-.04688.07421-.07031v-.1211l-.08984-.05859-.03125-.11719.08985-.05859.07421-.07422.04297-.10547.0586-.08984.04687-.10156.01563-.13281v-.14844l-.04688-.10547-.04297-.10156-.08984-.0586-.13281-.01562-.10157-.04297-.13671-.01563-.1172-.03125h-.4453l-.13282-.01562-.13281-.01172-.13281-.01563-.11719-.03125h-.14844l-.13281-.01562-.13281-.01172-.26563-.03125-.1211-.04297-.08593-.0586-.07422-.07421v-.14844l.01172-.13281.10547-.04688.10156-.04296.13281-.01563h.15235l.13281-.01562h.29297l.1211.03125.10156.04296.08984.0586.23438.0625.12109-.04688.08984-.05859.10156-.04297.13282-.01562.10547.04296.10156.04688.13281.01172.1211-.02735h.14453l.12109-.03125.11719-.02734.10547-.04687.07421-.07422.08594-.0586.14844-.14843.0586-.08594.04687-.10547.02734-.11719.01563-.10547-.10156-.04296-.08985-.0586-.11719-.03125-.10546-.04297-.08985-.0625-.07422-.08594-.07422-.07421-.10156-.04297-.10547-.04688-.10156-.04297-.0586-.08984-.04687-.10156-.08594-.21094-.0625-.08594-.05859-.08984-.07422-.07422-.08594-.0586h-.26953l-.11719.03126-.08984.05859-.10156.04297-.13281.01562-.10547-.01562-.02735-.11719-.0625-.08984-.11718-.03125-.10157-.04297-.14843-.14844-.03125-.11719-.01563-.10546.07422-.07422.17969-.1172.11719-.02733.11718-.03125.13672.01562.10156.04297.10547.04297.10156.04687.10547.04297.1172.03125.1328.01563.1172.02734.1328.01563.10547-.01563.08985-.0586-.07422-.07421-.10547-.04297-.07422-.07422-.07422-.08984-.14844-.14844-.08593-.0586-.08985-.05859-.07422-.07422-.08984-.0586-.10156-.04687-.1211-.02734-.10156-.04688-.10547-.04296-.11719-.03125-.10156-.04297-.1211-.03125h-.14843l-.11719.03125-.10546.04297-.08594.0625-.17969.11718-.08594.0586-.08984.0586-.10547.04687-.08594.05859-.10547.04297-.10156.04297-.10547.04687-.07422.07422-.05859.08985-.0586.08593-.04687.10547-.0586.08594-.07421.07422-.13281-.01172-.1172-.03125h-.11718l-.07422.07422-.08984.0586-.07422.07421-.08984.0586-.08594.05859-.10547.04687-.10156.04297-.13672.01563-.10156-.04297-.14844-.14844-.10547-.04688h-.08594l-.10547.04688-.10156.04297-.1211.03125-.11718-.03125-.07422-.07422v-.11719l.03125-.1211.07422-.0703.0586-.08985.07421-.07422.11719-.03125.10547-.04296h.29297l.13281-.01563.13672-.01563.10156-.04296.08985-.0586.10156-.04687.08984-.0586.13281-.01171.08985.05859.13281.01172.08984-.0586.08594-.05859.10547-.04297.08984-.0586.08594-.0625.08985-.05859.14843-.14843.0586-.08594.05859-.08985.10547-.04296.13281-.01563.11719.02735.1211.03125.05859-.0586.05859-.08984.03125-.26563.02734-.11719.10547.01172.13281.01563.10157-.04297.08984-.0586.0586-.08984.07421-.07422.0586-.08984.04687-.10156.01172-.13281-.01172-.13282-.04687-.10547-.14844-.14843-.0586-.08985-.05859-.08594-.04297-.10546v-.44532l.01563-.1328v-.14845l.01172-.1328-.0586-.0586-.08984.0586-.10156-.04298-.17969-.11719-.08594-.05859-.0625-.08984-.0586-.08985-.07421-.07421-.08594-.0586-.1211.03125-.10155.01172-.10547.04688-.08594.05859-.10547.04297-.14844.14844-.08984.05859-.08594.0586-.08984.0625-.10547.04296-.13281.01563v-.1211l.10547-.04297.11718-.03125.07422-.0703.04297-.10548v-.14844l-.02734-.11718-.14844-.14844-.13281-.01563h-.14844l-.11719.03125-.10547.04297-.10156.04297-.08984.0625-.11719.02735-.07422-.07422.01172-.13281-.04297-.10157-.04297-.10547-.08984-.05859-.11719.02734-.1211.03125-.11718.03125-.10156.04297-.1211.03125-.10156.04297-.10547.04297-.08984.0586-.10156.01562v-.11719l.01562-.13281-.0586-.08985-.07421.04297-.14844.14844-.0586.08985-.07421.07421-.04688.10547-.04296.10156-.07422.07422-.0586.08985-.07422.07422-.05859.08593-.07422.07422-.08984.0625-.07422.07031-.07422.07422-.10156.01563-.13281.01562-.10547-.04296v-.1211l.14843-.14844.04297-.10156.0586-.08984.04687-.10156.04297-.10547.0586-.08985.03124-.11719.04297-.10156.03125-.1211.02735-.11718.04687-.10547.04297-.10156.04297-.10547.07422-.07031.08984-.0625.08985-.0586.10156-.04296h.29687l.26563-.03125.10547-.04297-.07422-.07422-.11719-.03125-.10547-.04297-.08984-.0586-.10156-.04687-.08985-.0586-.10156-.04296-.10547-.04297-.08984-.0625-.08594-.0586-.10547-.04296-.10156-.04297-.1211-.03125-.11718-.03125-.10157-.04297L297.5 410.25l-.10156-.04297-.08985-.0586-.04296-.10546-.01563-.13281.10156-.04297.13281-.01563.13672.01563.13282-.01563.10156-.04297.0586-.08984.01562-.10547-.08985-.0586-.07421-.07421-.10157-.04297-.08984-.0586-.14844-.14843-.04297-.10547-.01562-.13281v-.29297l-.0586-.08985-.08984-.05859-.07422-.07422-.04297-.10547-.03125-.11718-.0586-.08985-.07421-.07422-.11719-.02734-.07422-.07422-.08984-.0586-.08984-.0625-.08594-.05859-.07422-.07421-.0586-.08594-.04687-.10547-.08594-.0586-.14843-.14843-.19532-.0586-.1328.01563-.10157.04297-.07422.07422-.04688.10156-.04296.10547-.0586.08984-.0586.08594-.29687.29687-.08984.0586h-.08594l-.0625-.08594-.04297-.10547.03125-.11719.0586-.08984.02734-.11719-.01172-.13281-.08984-.0625-.10547.04688-.11719.02734-.11719.03125-.26953.17578-.10156.04688-.11719.02734-.10546.04687-.08985.0586-.10156.04297-.0586-.08594-.04687-.10547.01563-.13281.04687-.10547.07031-.07422.07422-.07031.0586-.08985v-.14843l-.04297-.10547h-.23829l-.10156.04687-.03125.11719-.02734.11719-.03125.1211-.07422.04296-.13281.01563-.07422-.04688-.04297-.10156-.04297-.10547-.04687-.10156-.04297-.10547-.1211.03125-.10156.04297-.13281.01562-.11719.03125-.10547.04297-.08984.0586-.10156.04687-.1211.02734-.13281.01563-.10156-.04297-.0586-.08985-.04687-.10546-.04297-.10157-.04297-.10546v-.1172l.0586-.08984.08593-.05859.17969-.11719.10156-.04687.10547-.04297.10547-.0586.10156-.04296.08985-.0625.10156-.04297.10547-.0586.10156-.04687.08984-.0586.10547-.04296.10156-.04297.08985-.0625.10156-.04297.13672-.01563.11719.03125.10156.04297.1211.03125.10156.04297.10546.04688.10157.04296.10547.04297.10156.04688.10547.04297.10156.04297.10547.04687.08594.0586.10546.04296.1172.03125.10546.04297.10156.04688.08985.0586.10547.04296.10156.04297.10547.04687.11719.02735.10156.04687.1211.02735h.14843l.08594-.0586.01562-.10156.0586-.08984-.02735-.1172-.07422-.07421-.11719-.17969-.07421-.07422-.08985-.07421-.17969-.1172-.08593-.05859-.10547-.04296-.10156-.04688-.26954-.17578-.05859-.08985-.07422-.07421-.0586-.08985-.04296-.10156-.03125-.11719-.01563-.13672v-.5625l-.01171-.1328-.01563-.13282-.03125-.11719-.01562-.13281-.01172-.13281-.03125-.1211-.22266-.22265-.0586-.08594-.01562-.10547.03125-.11719.13281-.01562v-91.41406H172.9922v1.45312l-.0586.23438-.35156 1.05078-.17187.52343-.1172.34766-.17577.41016-.11719.17187-.23438.29297-.23046.0586h-.35157l-.11718.05859-.23047.40625v.29297l.11719.17578.23046.23047.1172.23437.64062.75781.29297.46485.17578.23437.23047.35156.23437.34766.64063.8164.17578.46485.17187.41016.11719.69531.17578.46875.11719 1.39844.0586.46484v.875l.11718 1.04688v4.78125l-.0586.46484-.35156 1.28125-.17578.52344-.11328.41015-.35156.9297L172.93359 336l-.23437.58203-.11719.17578-.17187.34766-.17578.40625-.35157.8164-.0586.29297-.11327.29297-.11719.28906-.0586.17579-.11718.875-.0586.40625-.05859.11718-.0586.17579-.05859.17187-.23047.52734-.11718.17188v.23437l-.11719.23438-.0586.17187-.17577.58594v.28906l-.0586.17579v.29296l-.0586.11329-.05859.52734v.17187l-.05468.23438v2.6211l-.17578.8164-.1172.17578-.17577.23438-.1172.17187-.11327.23438-.58594.93359-.23047.28906-.29297.46485-.17578.23437-.28906.35156-.35156.69922-.11328.23047-.17579.41016-.17578.23046-.40625.52735-.8164.69922-.29297.17187-.28906.23438-.17579.11719-.17578.17578-.52344.40625-.52734.17578-.17187.17578-.23438.05469-.64062.17578h-.75782m12.21094 31.02344l-1.07422.44921.35938.89454 1.25-.71485.44531-.53906-.98047-.08985"/><path fill="#d3d3d3" fill-opacity="0" fill-rule="evenodd" d="M201.50781 416.59766h-.89453l.44922.6289.98047.35938.80469-.08985.4453-.98828-.17577.08985-.71485-.35547-.89453.35547m154.6211 59.0703l-.0586-.52343v-.29297l.11328-.29297.0586-.23046.46875-.46875h.11328l.11719-.11329.11718-.05859h.17579l.23437-.0586h.34766l.23437.0586.11719.0586.23047.17187.0586.17578.11718.58203v.29297l-.11719.17578-.17187.28906-.17579.17579-.52734.52343-.23047.23438-.11719.0586h-.17578l-.11718-.0586-.40625-.29297-.17579-.11719-.11718-.0586-.0586-.11327-.05468-.1172m6.64062-10.95702l-.0586-.17188v-1.10937l.0586-.17188.17578-.0586.17188-.05858h.17578l.23437-.0586.1172.0586.05858.69921-.05859.17188-.11719.17578-.11718.0586-.23438.52343-.11328.0586h-.23438l-.05859-.1172m9.61328-14.39062l-.11719-.17578v-.69922l.29297-.875.1172-.17187.17577-.35156.11328-.23047.1172-.29297.35155-.75781.1172-.23047.17187-.23438h.17578l.11719-.0586h.64062l.11719.0586.23437.23438.17188.11328.35156.29297.11719.11718.11328.17579v.11328l.11719.05859.11718.11719v.69922l-.05859.17578v.23047l-.0586.17578-.34765 1.05078-.11719.23047-.11719.23437-.11718.0586-.23047.23437-.64063.28906h-.875l-.41015-.11718-.64063-.46485"/><path fill="none" stroke="#bebebe" stroke-linecap="round" stroke-linejoin="round" stroke-miterlimit="10" stroke-width=".5" d="M467.95703 311.69531H144.02734v168.625h323.9297v-168.625"/><g clip-path="url(#a)"><path fill="#fff" fill-opacity="0" fill-rule="evenodd" d="M144 475.89063v4.4375h.0039H144V311.67188h.0039H144v164.21875"/></g><g clip-path="url(#b)"><path fill="#fff" fill-opacity="0" fill-rule="evenodd" d="M144.0039 480.32813V311.67188h17.75v119.7539l-.11327.08203-1.03907 4.4375 1.15235 2.63672 1.49609-2.63672-.99219-4.4375-.5039-.08203v-119.7539h71.01172v121.65625l-3.13672 2.61718 3.13672 2.35547 2.35546-2.35547-2.35547-2.61719V311.67188h8.87891V437.6836l-2.8164 2.69922 2.8164 2.60938 2.67969-2.60938-2.67969-2.69922V311.67188h146.46484v145.05859l-1.48828 1.40625-2.94921 2.48047-1.94532 1.95703 1.94531 3.89844.64063.54296-.64063 1.33594-.83984 3.10156.83985 1.11329 1.18359-1.11329 3.2539-2.30468 1.8086-2.13281-.82813-4.44141.53125-4.4375-1.51171-1.40625v-145.0586h79.88671v160.91016l-3.2578 3.3086 3.2578 3.2578v1.1797h-72.47265l-2.97656-2.89844-2.9961 2.89844H144.00391"/></g><path fill="#50fcfc" fill-rule="evenodd" d="M161.7539 438.58203l-1.15234-2.63672 1.03906-4.4375.11329-.08203.5039.08203.99219 4.4375-1.4961 2.63672m71.01173-.28125l-3.13672-2.35547 3.13672-2.61719 2.35546 2.6172-2.35547 2.35546m8.87891 4.6914l-2.8164-2.60937 2.8164-2.69922 2.67969 2.69922-2.67969 2.60938m142.02734 23.48047l-1.9453-3.89844 1.9453-1.95703 2.94922-2.48047 1.48829-1.40625 1.51171 1.40625-.53125 4.4375.82813 4.4414-1.8086 2.13282-3.2539 2.30469-1.1836 1.11328-.83984-1.11329.83985-3.10156.64062-1.33594-.64063-.54296"/><g clip-path="url(#c)"><path fill="#50fcfc" fill-rule="evenodd" d="M389.55078 480.32813h2.4414l.5547-.53516.55078.53515h2.42578l-2.97656-2.89843-2.9961 2.89844"/></g><g clip-path="url(#d)"><path fill="#00e8fc" fill-rule="evenodd" d="M391.99219 480.32813l.55469-.53516.55078.53515h-1.10547"/></g><path fill="#50fcfc" fill-rule="evenodd" d="M467.9961 479.14844l-3.25782-3.25781 3.25781-3.3086v1.79297l-1.49218 1.51563 1.49218 1.49218v1.76563"/><path fill="#00e8fc" fill-rule="evenodd" d="M467.9961 477.38281l-1.4922-1.49219 1.4922-1.51562v3.00781"/><path fill="#50fcfc" fill-rule="evenodd" d="M467.9961 477.38281v1.76563l.0039.0039v-1.76562l-.0039-.0039"/><path fill="#00e8fc" fill-rule="evenodd" d="M467.9961 474.375v3.00781l.0039.0039v-3.01562l-.0039.00391"/><path fill="#50fcfc" fill-rule="evenodd" d="M467.9961 472.58203v1.79297l.0039-.0039v-1.79298l-.0039.00391"/><g clip-path="url(#e)"><path fill="#fff" fill-opacity="0" fill-rule="evenodd" d="M467.9961 311.67188H468v160.90625-160.90625h-.0039"/></g><g clip-path="url(#f)"><path fill="none" stroke="#000" stroke-linecap="round" stroke-linejoin="round" stroke-miterlimit="10" stroke-width=".5" d="M147.50781 480.10156l-7.01562.45313"/></g><g clip-path="url(#g)"><path fill="none" stroke="#000" stroke-linecap="round" stroke-linejoin="round" stroke-miterlimit="10" stroke-width=".5" d="M147.50781 480.10156l1.28906 2.08594"/></g><g clip-path="url(#h)"><path fill="none" stroke="#000" stroke-linecap="round" stroke-linejoin="round" stroke-miterlimit="10" stroke-width=".5" d="M146.48438 480.16797l.64453 1.04297"/></g><g clip-path="url(#i)"><path fill="none" stroke="#000" stroke-linecap="round" stroke-linejoin="round" stroke-miterlimit="10" stroke-width=".5" d="M160.82813 480.3086l-7.02735.03906"/></g><g clip-path="url(#j)"><path fill="none" stroke="#000" stroke-linecap="round" stroke-linejoin="round" stroke-miterlimit="10" stroke-width=".5" d="M160.82813 480.3086l1.16406 2.16015"/></g><g clip-path="url(#k)"><path fill="none" stroke="#000" stroke-linecap="round" stroke-linejoin="round" stroke-miterlimit="10" stroke-width=".5" d="M159.80469 480.3164l.58203 1.07813"/></g><g clip-path="url(#l)"><path fill="none" stroke="#000" stroke-linecap="round" stroke-linejoin="round" stroke-miterlimit="10" stroke-width=".5" d="M174.125 479.96875l-6.98828.71875"/></g><g clip-path="url(#m)"><path fill="none" stroke="#000" stroke-linecap="round" stroke-linejoin="round" stroke-miterlimit="10" stroke-width=".5" d="M174.125 479.96875l1.36719 2.03906"/></g><g clip-path="url(#n)"><path fill="none" stroke="#000" stroke-linecap="round" stroke-linejoin="round" stroke-miterlimit="10" stroke-width=".5" d="M173.10938 480.07422l.68359 1.01953"/></g><g clip-path="url(#o)"><path fill="none" stroke="#000" stroke-linecap="round" stroke-linejoin="round" stroke-miterlimit="10" stroke-width=".5" d="M187.40625 479.72656l-6.92188 1.20313"/></g><g clip-path="url(#p)"><path fill="none" stroke="#000" stroke-linecap="round" stroke-linejoin="round" stroke-miterlimit="10" stroke-width=".5" d="M187.40625 479.72656l1.50781 1.9375"/></g><g clip-path="url(#q)"><path fill="none" stroke="#000" stroke-linecap="round" stroke-linejoin="round" stroke-miterlimit="10" stroke-width=".5" d="M186.39844 479.90234l.7539.96875"/></g><g clip-path="url(#r)"><path fill="none" stroke="#000" stroke-linecap="round" stroke-linejoin="round" stroke-miterlimit="10" stroke-width=".5" d="M200.67969 479.52344l-6.83985 1.60937"/></g><g clip-path="url(#s)"><path fill="none" stroke="#000" stroke-linecap="round" stroke-linejoin="round" stroke-miterlimit="10" stroke-width=".5" d="M200.67969 479.52344l1.61719 1.84765"/></g><g clip-path="url(#t)"><path fill="none" stroke="#000" stroke-linecap="round" stroke-linejoin="round" stroke-miterlimit="10" stroke-width=".5" d="M199.6836 479.75781l.80859.92578"/></g><g clip-path="url(#u)"><path fill="none" stroke="#000" stroke-linecap="round" stroke-linejoin="round" stroke-miterlimit="10" stroke-width=".5" d="M213.92969 479.28516l-6.71094 2.08984"/></g><g clip-path="url(#v)"><path fill="none" stroke="#000" stroke-linecap="round" stroke-linejoin="round" stroke-miterlimit="10" stroke-width=".5" d="M213.92969 479.28516l1.7461 1.72656"/></g><g clip-path="url(#w)"><path fill="none" stroke="#000" stroke-linecap="round" stroke-linejoin="round" stroke-miterlimit="10" stroke-width=".5" d="M212.95313 479.58984l.87109.85938"/></g><g clip-path="url(#x)"><path fill="none" stroke="#000" stroke-linecap="round" stroke-linejoin="round" stroke-miterlimit="10" stroke-width=".5" d="M227.23828 479.25781l-6.69531 2.14063"/></g><g clip-path="url(#y)"><path fill="none" stroke="#000" stroke-linecap="round" stroke-linejoin="round" stroke-miterlimit="10" stroke-width=".5" d="M227.23828 479.25781l1.7539 1.71485"/></g><g clip-path="url(#z)"><path fill="none" stroke="#000" stroke-linecap="round" stroke-linejoin="round" stroke-miterlimit="10" stroke-width=".5" d="M226.26172 479.57031l.8789.85547"/></g><g clip-path="url(#A)"><path fill="none" stroke="#000" stroke-linecap="round" stroke-linejoin="round" stroke-miterlimit="10" stroke-width=".5" d="M240.57813 479.35156l-6.7461 1.95703"/></g><g clip-path="url(#B)"><path fill="none" stroke="#000" stroke-linecap="round" stroke-linejoin="round" stroke-miterlimit="10" stroke-width=".5" d="M240.57813 479.35156l1.71093 1.75781"/></g><g clip-path="url(#C)"><path fill="none" stroke="#000" stroke-linecap="round" stroke-linejoin="round" stroke-miterlimit="10" stroke-width=".5" d="M239.59766 479.63672l.85547.8789"/></g><g clip-path="url(#D)"><path fill="none" stroke="#000" stroke-linecap="round" stroke-linejoin="round" stroke-miterlimit="10" stroke-width=".5" d="M253.86719 479.25781l-6.6914 2.14453"/></g><g clip-path="url(#E)"><path fill="none" stroke="#000" stroke-linecap="round" stroke-linejoin="round" stroke-miterlimit="10" stroke-width=".5" d="M253.86719 479.25781l1.75781 1.71094"/></g><g clip-path="url(#F)"><path fill="none" stroke="#000" stroke-linecap="round" stroke-linejoin="round" stroke-miterlimit="10" stroke-width=".5" d="M267.14063 479.14063l-6.60938 2.3789"/></g><g clip-path="url(#G)"><path fill="none" stroke="#000" stroke-linecap="round" stroke-linejoin="round" stroke-miterlimit="10" stroke-width=".5" d="M267.14063 479.14063l1.8203 1.64453"/></g><g clip-path="url(#H)"><path fill="none" stroke="#000" stroke-linecap="round" stroke-linejoin="round" stroke-miterlimit="10" stroke-width=".5" d="M280.50781 479.29688l-6.71484 2.0664"/></g><g clip-path="url(#I)"><path fill="none" stroke="#000" stroke-linecap="round" stroke-linejoin="round" stroke-miterlimit="10" stroke-width=".5" d="M279.53125 479.59766l.8711.86328"/></g><g clip-path="url(#J)"><path fill="none" stroke="#000" stroke-linecap="round" stroke-linejoin="round" stroke-miterlimit="10" stroke-width=".5" d="M293.83203 479.32031l-6.73047 2.01953"/></g><g clip-path="url(#K)"><path fill="none" stroke="#000" stroke-linecap="round" stroke-linejoin="round" stroke-miterlimit="10" stroke-width=".5" d="M292.85156 479.61328l.86328.8711"/></g><g clip-path="url(#L)"><path fill="none" stroke="#000" stroke-linecap="round" stroke-linejoin="round" stroke-miterlimit="10" stroke-width=".5" d="M306.98828 478.89844l-6.41797 2.85937"/></g><g clip-path="url(#M)"><path fill="none" stroke="#000" stroke-linecap="round" stroke-linejoin="round" stroke-miterlimit="10" stroke-width=".5" d="M306.05469 479.3125l.96875.75781"/></g><g clip-path="url(#N)"><path fill="none" stroke="#000" stroke-linecap="round" stroke-linejoin="round" stroke-miterlimit="10" stroke-width=".5" d="M319.8086 478.09375l-5.42579 4.46875"/></g><path fill="none" stroke="#000" stroke-linecap="round" stroke-linejoin="round" stroke-miterlimit="10" stroke-width=".5" d="M319.01953 478.7461l1.13281.46874"/><g clip-path="url(#O)"><path fill="none" stroke="#000" stroke-linecap="round" stroke-linejoin="round" stroke-miterlimit="10" stroke-width=".5" d="M331.4336 480.32813l-.01954-.19922-.0586-.19141-.09374-.17578-.46094-.3789-.1914-.0586-.19922-.01953-.19922.01953-.1914.0586-.45704.3789-.09766.17578-.05859.1914-.01953.19923.01953.19921.0586.19141.09765.17969.45703.375.1914.0586.19923.01952.19921-.01953.19141-.0586.46094-.375.09375-.17968.0586-.1914.01952-.19922"/></g><g clip-path="url(#P)"><path fill="none" stroke="#000" stroke-linecap="round" stroke-linejoin="round" stroke-miterlimit="10" stroke-width=".5" d="M341.60156 483.1289l4.25-5.59765"/></g><g clip-path="url(#Q)"><path fill="none" stroke="#000" stroke-linecap="round" stroke-linejoin="round" stroke-miterlimit="10" stroke-width=".5" d="M355.97656 483.67578l2.13281-6.69531"/></g><g clip-path="url(#R)"><path fill="none" stroke="#000" stroke-linecap="round" stroke-linejoin="round" stroke-miterlimit="10" stroke-width=".5" d="M368.88281 483.51953l2.94531-6.3789"/></g><g clip-path="url(#S)"><path fill="none" stroke="#000" stroke-linecap="round" stroke-linejoin="round" stroke-miterlimit="10" stroke-width=".5" d="M382.48438 483.63672l2.37109-6.61719"/></g><g clip-path="url(#T)"><path fill="none" stroke="#000" stroke-linecap="round" stroke-linejoin="round" stroke-miterlimit="10" stroke-width=".5" d="M394.36328 482.66406l5.2461-4.67187"/></g><g clip-path="url(#U)"><path fill="none" stroke="#000" stroke-linecap="round" stroke-linejoin="round" stroke-miterlimit="10" stroke-width=".5" d="M412.79297 482.8086l-4.98047-4.95704"/></g><g clip-path="url(#V)"><path fill="none" stroke="#000" stroke-linecap="round" stroke-linejoin="round" stroke-miterlimit="10" stroke-width=".5" d="M425.1836 483.47266l-3.13282-6.28907"/></g><g clip-path="url(#W)"><path fill="none" stroke="#000" stroke-linecap="round" stroke-linejoin="round" stroke-miterlimit="10" stroke-width=".5" d="M439.98828 482.0625l-6.11328-3.46875"/></g><g clip-path="url(#X)"><path fill="none" stroke="#000" stroke-linecap="round" stroke-linejoin="round" stroke-miterlimit="10" stroke-width=".5" d="M452.98828 482.52734l-5.48437-4.39453"/></g><g clip-path="url(#Y)"><path fill="none" stroke="#000" stroke-linecap="round" stroke-linejoin="round" stroke-miterlimit="10" stroke-width=".5" d="M466.7539 481.80078l-6.3828-2.94531"/></g><g clip-path="url(#Z)"><path fill="none" stroke="#000" stroke-linecap="round" stroke-linejoin="round" stroke-miterlimit="10" stroke-width=".5" d="M147.48047 466.53516l-6.96094.95703"/></g><path fill="none" stroke="#000" stroke-linecap="round" stroke-linejoin="round" stroke-miterlimit="10" stroke-width=".5" d="M147.48047 466.53516l1.4375 1.98828m-2.44922-1.85156l.71875.99609m13.6211-1.01563l-6.98829.72266m6.98828-.72266l1.3711 2.03516m-2.38672-1.92969l.6836 1.01563m13.6289-1.28516l-6.94922 1.05078m6.94922-1.05078l1.46094 1.96875m-2.47266-1.8164l.73047.98437m13.53516-1.4336l-6.82813 1.64454m6.82813-1.64453l1.6289 1.83593m-2.6211-1.59765l.8125.91797m13.4336-1.38282l-6.70703 2.09766m6.70703-2.09766l1.7461 1.72657m-2.72266-1.42188l.875.86328m13.36719-1.32031l-6.60547 2.40234m6.60547-2.40234l1.8203 1.64453m-2.78124-1.29297l.91016.82032m13.41406-1.03125l-6.70313 2.12109m6.70313-2.1211l1.75 1.71876m-2.72656-1.41016l.875.85937m13.42968-1.125l-6.72656 2.03516m6.72656-2.03516l1.72656 1.7422m-2.70703-1.44532l.86328.8711m13.3125-1.5l-6.48828 2.69921m6.48828-2.69922l1.89454 1.5625m-2.83985-1.16797l.94922.77735m13.26172-1.27735l-6.39453 2.91016m6.39453-2.91016l1.94922 1.4922m11.35547-1.52345l-6.3711 2.97266m6.3711-2.97266l1.95703 1.47657m11.25-1.6875l-6.15235 3.39453m6.15235-3.39453l2.05469 1.33984m10.92187-1.84375l-5.47656 4.40234m5.47656-4.40234l2.2539.96484m10.72266-1.33203l-4.79687 5.13672m4.79687-5.13672l2.3672.63672m10.875-.69922l-4.65626 5.26172m3.98047-4.4961l1.1914.28516m11.47657-1.78515l-2.00781 6.73047m1.71484-5.75391l1.20312-.24219m9.07422-.0039l4.65235 5.26953m7.52343-3.21094l6.9297 1.15234m-5.92188-.98437l-.39063-1.16406m13.41797 3.76562l5.49219-4.38672m-4.69531 3.7461l-1.125-.48438m16.60546 2.4375l-.43359-7.01172m16.86719 2.40235l-6.67188 2.20703m5.70313-1.88672l.88672.84766m11.95703-3.02344l-3.78906 5.91797m3.23828-5.0586l1.22265.10157m13.32422-.39063l-5.15234 4.77734m4.40234-4.08203l1.16016.40235m13.16797-.78125l-5.67969 4.14453m17.14453 1.30078l-1.97656-6.7461m1.6875 5.76563l-.8789.85547"/><g clip-path="url(#aa)"><path fill="none" stroke="#000" stroke-linecap="round" stroke-linejoin="round" stroke-miterlimit="10" stroke-width=".5" d="M147.48828 453.28906l-6.97656.8164"/></g><path fill="none" stroke="#000" stroke-linecap="round" stroke-linejoin="round" stroke-miterlimit="10" stroke-width=".5" d="M147.48828 453.28906l1.39844 2.01953m-2.41406-1.89843l.69922 1.0078m13.63671-1.07421l-6.98828.71094m6.98828-.71094l1.3672 2.03906m-2.38282-1.9375l.6836 1.01953m13.53515-1.72265l-6.76172 1.91406m6.76172-1.91406l1.69922 1.76953m11.55469-1.95703l-6.64063 2.28906m6.64063-2.28906l1.79687 1.67187m11.44531-1.8711l-6.49219 2.6875m6.4922-2.6875l1.89062 1.5625m11.21875-1.98046l-6.08203 3.52344m6.08203-3.52344l2.08203 1.29688m11.23047-1.30079l-6.07813 3.52735m6.07813-3.52735l2.08203 1.29688m11.48047-.77344l-6.57422 2.48438m6.57422-2.48438l1.84375 1.6211M253.75 452.3164l-6.46094 2.76562m6.46094-2.76562l1.91406 1.53906m11.46485-1.3789l-6.58594 2.4453m6.58594-2.4453l1.83593 1.6289m11.1172-2.33984l-5.86329 3.86718m5.86328-3.86718l2.15625 1.17187m11.26953-1l-6.08203 3.52344m6.08203-3.52344l2.08203 1.29688m11.19922-1.35157l-6.01562 3.63282m6.01562-3.63282l2.10547 1.26172m11.15235-1.35156l-5.90235 3.8125m5.04297-3.25781l1.07031.59375m12.57422-1.78907l-4.84375 5.09375m4.14063-4.35156l1.17968.32813m13.09766-.79297l-5.36328 4.53906m4.58594-3.8789l1.13672.45312m11.6289-2.08594l-2.70703 6.48438m2.3164-5.54297l1.21876-.11328m11.9453-1.00391l-1.62108 6.83594m15.89062-6.45703l-3.53125 6.07812m3.01563-5.19531l1.22656.04687m14.23047 3.01563l-6.78516-1.8125m20.22266.90625h-7.02735m6.0039 0l.57423 1.08203m12.95703 1.15625l-5.41797-4.47656m4.6289 3.82422l-.24609 1.20312m13.5.1914l-3.71484-5.96484m3.17578 5.09766l-.61719 1.0625m13.39844.25l-1.57031-6.85156m15.15625 6.77734l-2.10938-6.70312m1.80078 5.72656l-.85937.875"/><g clip-path="url(#ab)"><path fill="none" stroke="#000" stroke-linecap="round" stroke-linejoin="round" stroke-miterlimit="10" stroke-width=".5" d="M147.51172 440.42578l-7.02344-.08594"/></g><path fill="none" stroke="#000" stroke-linecap="round" stroke-linejoin="round" stroke-miterlimit="10" stroke-width=".5" d="M147.51172 440.42578l1.125 2.1836m-2.14453-2.19532l.5625 1.08985m13.77344-1.09766l-7.02735-.04688m7.02734.04688l1.13672 2.17578M174.1211 440l-6.98437.76563M174.12109 440l1.38282 2.02734m11.71484-2.91406l-6.54688 2.54297m5.59375-2.17578l.9297.80078m13.46093-.79297l-6.79297 1.78906m5.80469-1.52734l.83594.90234m13.54687-.78125l-6.95312 1.02344m5.9414-.875l.72656.98828m13.63672-.54687l-7.02343-.15235m6.0039.12891l.55078 1.09375m12.09766-4.14844l-3.65234 6.0039m3.65234-6.0039l2.44922.14063m8.91016-.65235l.26171 7.02344m-.22656-6l1.0625-.61719m14.98438.78516l-5.27735 4.64063m5.27735-4.64063l2.29687.86719m11.40625-.33203l-6.05078 3.5703m6.05078-3.5703l2.09375 1.28125m10.1836-2.39453l-3.97266 5.79687m3.97265-5.79688l2.4375.27735m11.4961.26562l-5.21485 4.71094m5.21485-4.71094l2.3086.83594m11.45312-.22266l-6.10547 3.48438m5.21484-2.97656l1.03906.65625m13.48829-.40235l-6.7461 1.96485m5.76563-1.67969l.85547.8789m12.99609-2.12109l-5.85938 3.8789m5.85938-3.8789l2.15625 1.17188m6.78516-2.4375l2.88671 6.40625m-2.46875-5.47266l.75391-.97266m14.64063-.10937l-2.10938 6.70312m1.80469-5.72656l1.20703-.22265m11.42969 6.10937l-.14063-7.02344m.1211 6.00391l-1.07032.59766m17.41407-1.39844l-6.16016-3.38281m5.26563 2.89062l-.01954 1.22656m13.07422.51172l-3.85156-5.875m3.29297 5.01953l-.58985 1.07813m15.98047-2.46094l-6.88671-1.39453m6.88671 1.39453l.69922 2.35156m12.4375-1.74609l-6.52734-2.60938m6.52734 2.60938l.26172 2.4414M453.3672 442l-6.23828-3.23438M453.36719 442l.02344 2.45703m13.2578-2.39453l-6.17187-3.35938m6.17188 3.35938l-.02344 2.45313"/><g clip-path="url(#ac)"><path fill="none" stroke="#000" stroke-linecap="round" stroke-linejoin="round" stroke-miterlimit="10" stroke-width=".5" d="M147.48047 426.58594l-6.96094.96484"/></g><path fill="none" stroke="#000" stroke-linecap="round" stroke-linejoin="round" stroke-miterlimit="10" stroke-width=".5" d="M147.48047 426.58594l1.4375 1.98828m11.90625-1.32813l-7.01953-.35547m7.01953.35547l1.03906 2.22266m12.125-1.3711l-6.71875-2.05859m6.71875 2.0586l.46484 2.41015m12.69141-1.98437l-6.39844-2.91016m5.46875 2.48438l.07422 1.22656m14.44922-2.74219l-6.95703.97266m5.94531-.82813l.72266.99219m12.64844-3.09766l-5.04297 4.89454m5.04297-4.89454l2.33593.75391m11.30078-.36719l-5.6875 4.125m4.85938-3.52734l1.10156.53906m13.69531 1.2461l-6.99609-.64454m5.98047.55079l.47266 1.1328m13.83593-.84374l-6.94922-1.03125m5.9375.8789l.41016 1.15625m13.92578-1.0625l-6.96875-.91796m5.95313.78515l.42969 1.14844m13.91015-1.08594l-6.98437-.77734m5.96484.66406l.45313 1.14063m13.76562-.45313l-6.75781-1.92578m5.77734 1.64453l.2539 1.19922m13.21094.53906l-5.09375-4.83984m4.35157 4.13672l-.32813 1.18359m14.03516-5.64062l-4.39453 5.48046m3.7539-4.68359l1.20704.22656m14.05859 1.53516l-7.01563.36328m7.01563-.36328l1.26172 2.10547m11.76953-3.32422l-6.44531 2.80078m6.4453-2.80078l1.91798 1.52734m11.65625.35547l-6.96094-.96484m5.94531.82422l.42188 1.15234m13.91015-1.03906l-6.96875-.91016m14.39063-2.10156l4.8164 5.11719m-4.11328-4.375l.39454-1.16016m16.86328 5.6836l-4.47266-5.41798m4.47266 5.41797l-.94141 2.26953m15.53516-4.97656h-7.02735m7.02735 0l1.15234 2.16406m-2.17578-2.16406l.57422 1.08203m13.40625-2.62109l-6.3164 3.07422m6.3164-3.07422l1.98437 1.4414m-2.90234-.99609l.99219.72266m13.29687-1.05469l-6.42578 2.84766m6.42578-2.84766l1.92969 1.51172m11.6875-.04297l-7.02735-.08984m7.02735.08984l1.1211 2.1836m12.17968-1.92188l-7-.61328m5.98047.52344l.48047 1.1289"/><g clip-path="url(#ad)"><path fill="none" stroke="#000" stroke-linecap="round" stroke-linejoin="round" stroke-miterlimit="10" stroke-width=".5" d="M147.26953 412.46875l-6.53906 2.57031"/></g><path fill="none" stroke="#000" stroke-linecap="round" stroke-linejoin="round" stroke-miterlimit="10" stroke-width=".5" d="M147.26953 412.46875l1.86328 1.59375m11.55078-1.3125l-6.73437 2.00781m6.73437-2.00781l1.72266 1.75m11.46875-2.08984l-6.49219 2.6875m5.55078-2.29688l.94532.78125m13.1914-1.4375l-6.25 3.21875m5.33985-2.75l1.0078.69922m13-1.52734l-5.8164 3.9375m5.8164-3.9375l2.17188 1.14843m9.83203-2.30859l-3.1953 6.25781m17.23046-.48828l-4.63281-5.28515m19.14453 2.71484l-7.02734-.14063m7.02734.14063l1.10547 2.1914m12.20703-2.17578l-7.02344-.17578m7.02344.17578l1.09766 2.19532m12.21875-2.40625l-7.02344.25m7.02344-.25l1.22656 2.125m12.08984-2.11329l-7.02343.22657m7.02343-.22656l1.21875 2.1289m12.03907-2.64844l-6.91407 1.26563m6.91407-1.26563l1.52343 1.92188M307.28516 413.5l-7.00782.50781m5.98829-.4336l.65234 1.03907m13.6914-.90625l-7.02734.09375m6.0039-.08203l.58985 1.07813m12.95703 1.17968l-5.4414-4.44531m4.64843 3.80078l-.23828 1.20313m14.95703-1.66797l-6.66406-2.22656m5.69531 1.90234l.20313 1.21094m14.25781-2.125l-7.01953.25m6-.21485l.61328 1.0625m13.5039-2.20312l-6.58202 2.46094m5.625-2.10157l.91797.8125m12.58984-2.3789l-5.0586 4.875m5.0586-4.875l2.33594.7578m11.5039-.05858l-6.10547 3.47656m6.10547-3.47656l2.07422 1.3125m-2.96094-.8086l1.03516.65625m13.20703-1.09375l-6.1836 3.33985m6.1836-3.33985l2.04297 1.35938m-2.94531-.8711l1.02344.67969m13.28515-.98047l-6.3711 2.96485m6.3711-2.96485l1.96094 1.48047m11.57812-.84375l-6.8164 1.69531m6.8164-1.69531l1.64063 1.82422m11.60937-2.0586l-6.6875 2.16407m6.6875-2.16406l1.76172 1.70703m9.7539-3.78125l-3.08983 6.3125m2.64062-5.39453l1.22656-.03907"/><g clip-path="url(#ae)"><path fill="none" stroke="#000" stroke-linecap="round" stroke-linejoin="round" stroke-miterlimit="10" stroke-width=".5" d="M146.46484 397.9336l-4.92968 5.0078"/></g><path fill="none" stroke="#000" stroke-linecap="round" stroke-linejoin="round" stroke-miterlimit="10" stroke-width=".5" d="M146.46484 397.9336l2.35157.69921m11.35156-.2461l-5.70703 4.10157m4.875-3.5039l1.10156.54296m13.64453.25782l-6.90234 1.30468m5.89844-1.11328l.76562.95703m13.59766-.15625l-6.9922-.67578m6.9922.67578l.9375 2.26563m11.94922-4.3125l-6.13672 3.41797m6.13672-3.41797l2.0625 1.33203m11.64843-.21484l-6.92578 1.18359m6.92578-1.1836l1.5 1.94141m11.71094-2.3789l-6.71875 2.05859m6.71875-2.0586l1.73438 1.73438m11.71093-1.1289l-6.97656.84765m6.97656-.84765l1.40235 2.01171m11.8828-2.19921l-6.91796 1.22265m6.91797-1.22265l1.51172 1.92968m11.59375-2.65625l-6.5 2.67188m6.5-2.67188l1.88672 1.5664m11.42187-1.58202l-6.48828 2.70312m6.48828-2.70312l1.89453 1.5586m11.27344-1.8672l-6.1914 3.32032m6.1914-3.32032l2.03906 1.36329m11.05469-1.72266l-5.75 4.03906m4.91406-3.44922l1.09375.55469m13.64844.29688l-6.9336 1.15625m6.9336-1.15625l1.49219 1.94921m11.69531-2.46875l-6.67578 2.19922m5.70312-1.8789l.88672.84765m13.14844 1.60938l-6.17187-3.35938m5.27343 2.8711l-.01172 1.22656m14.15235-.61328l-6.02735-3.60938m19.83985 1.96094l-7.01953-.3125m5.99609.26563l.52734 1.10937m13.15625-3.26172l-5.71484 4.08985m5.71484-4.08985l2.19922 1.08985m11.54297-.30079l-6.5664 2.51172m6.5664-2.51172l1.84766 1.60938m11.53125-1.42578l-6.6914 2.14453m6.6914-2.14453l1.75781 1.71094m11.28906-2.33594l-6.15625 3.39062m6.15625-3.39062l2.05469 1.34375m11.08203-1.6289l-5.80078 3.96093m5.80078-3.96094l2.17578 1.14063m11.53125-.38282l-6.58593 2.44532m6.58593-2.44532l1.83594 1.62891m10.90234-2.63281l-5.43359 4.45703"/><g clip-path="url(#af)"><path fill="none" stroke="#000" stroke-linecap="round" stroke-linejoin="round" stroke-miterlimit="10" stroke-width=".5" d="M466.27734 398.21094l2.26563.9414"/></g><g clip-path="url(#ag)"><path fill="none" stroke="#000" stroke-linecap="round" stroke-linejoin="round" stroke-miterlimit="10" stroke-width=".5" d="M146.41797 384.57422l-4.83594 5.09765"/></g><path fill="none" stroke="#000" stroke-linecap="round" stroke-linejoin="round" stroke-miterlimit="10" stroke-width=".5" d="M146.41797 384.57422l2.36328.65234m12.04688 2.01172l-7.02344-.22656m7.02344.22656l1.08203 2.19922m12.03125-1.13672l-6.6211-2.35547m6.6211 2.35547l.35547 2.42969m13.15625-3.42188l-7.01563-.37109m7.01563.3711l1.03906 2.22265m12.07031-1.20703l-6.60547-2.40235m6.60547 2.40235l.34375 2.42969m13.14453-3.11329l-6.94922-1.03515m6.94922 1.03515l.82031 2.3125m12.48438-3.42187l-6.92969 1.1836m6.92969-1.1836l1.5 1.9414m11.6289-2.61327l-6.55859 2.52734m6.5586-2.52735l1.85546 1.60938m11.3125-1.9375l-6.26172 3.1836m6.26172-3.1836l2.00782 1.40625m11.28906-1.4414l-6.22656 3.2539m6.22656-3.2539l2.02344 1.38671m11.29687-1.3789l-6.23828 3.23828m6.23828-3.23828l2.01953 1.39062m11.42578-1.11328l-6.49609 2.6836m6.4961-2.6836l1.89062 1.5625m11.35156-1.72656l-6.35156 3.01172m6.35156-3.01172l1.96875 1.46484m11.39844-1.34765l-6.45703 2.77734m6.45703-2.77735l1.91406 1.53516m11.44531-1.42969l-6.54296 2.56641m6.54296-2.5664l1.86329 1.59765m11.60937-1.07813l-6.85937 1.52735m5.85937-1.30469l.80078.9336m13.58203-.70704l-6.9961.62891m6.9961-.6289l1.34375 2.05468M373.5 385.5586l-6.28906 3.12891m6.28906-3.1289l2 1.42577m10.89063-2.08593l-5.4375 4.45312m5.4375-4.45312l2.26171.94531m11.125-.85547l-5.58203 4.26953m5.58203-4.26953l2.23047 1.01953m11.03907-1.07812l-5.48829 4.38672m5.48829-4.38672l2.25.97265m10.8125-1.2578l-4.98438 4.95702m4.98438-4.95703l2.34375.72656m10.76953-.91406l-4.58203 5.33203m4.58203-5.33203l2.39453.53906m11.91406.88672l-6.57031 2.48438m6.57031-2.48438L455.375 387.5m11.61719-1.14063l-6.85938 1.53125"/><g clip-path="url(#ah)"><path fill="none" stroke="#000" stroke-linecap="round" stroke-linejoin="round" stroke-miterlimit="10" stroke-width=".5" d="M466.99219 386.35938l1.59375 1.86328"/></g><g clip-path="url(#ai)"><path fill="none" stroke="#000" stroke-linecap="round" stroke-linejoin="round" stroke-miterlimit="10" stroke-width=".5" d="M147.3711 372.82422l-6.7422 1.96875"/></g><path fill="none" stroke="#000" stroke-linecap="round" stroke-linejoin="round" stroke-miterlimit="10" stroke-width=".5" d="M147.3711 372.82422l1.71484 1.75781m-2.69531-1.47265l.85546.8789m13.42188.86719l-6.70703-2.09375m6.70703 2.09375l.45312 2.41406m-1.42968-2.71875l.22656 1.20703m14.22656-1.8789l-7.02734-.14454m7.02734.14454l1.10547 2.1914m12.1875-1.86719l-6.98438-.79296m6.98438.79296l.89844 2.28516m12.22656-3.88672l-6.60156 2.41406m6.60156-2.41406l1.82422 1.64063m11.3789-1.90625l-6.3789 2.94531m6.3789-2.94531l1.95313 1.48437m11.51953-1.07812l-6.69531 2.13281m6.69531-2.13281l1.7539 1.71484m11.59376-1.60156l-6.76172 1.90625m6.76172-1.90625l1.69922 1.76953m11.33203-2.48047l-6.1914 3.32813m6.1914-3.32813l2.03906 1.36328m11.13672-1.59765l-5.91406 3.79687m5.91406-3.79687l2.13672 1.19921m11.41406-.76953l-6.38672 2.9375m6.38672-2.9375l1.94922 1.48829m11.51562-1.10157l-6.6875 2.16406m6.6875-2.16406l1.76172 1.70703m11.48047-1.91015l-6.53906 2.57031m6.53906-2.57031l1.86328 1.59375m11.47656-1.52735l-6.58984 2.4375m6.58984-2.4375l1.83204 1.63282m11.57812-1.33594l-6.78125 1.84375m6.78125-1.84375l1.67969 1.78906m11.67187-1.64453l-6.85156 1.55469m6.85156-1.55469l1.60157 1.85547m11.70312-1.90235l-6.83203 1.64844m6.83203-1.64844l1.6289 1.83594m11.5625-2.23437l-6.58593 2.44531m6.58594-2.44531l1.83593 1.6289m10.98829-2.52343l-5.60547 4.23437m5.60547-4.23437l2.22656 1.03125m10.78515-1.38672l-4.99609 4.94531m4.9961-4.94531l2.33984.73047m11.03515-.66797l-5.11718 4.8164m5.11718-4.8164l2.32422.78906m10.95703-.82422l-5.04687 4.89063m5.04687-4.89063l2.33204.7539m10.6328-1.0703l-4.34765 5.52343m4.34766-5.52344l2.41406.4336m11.59766.30469l-5.74219 4.04687m5.74219-4.04687l2.1914 1.10546m11.15625-1.05859l-5.80859 3.95313m4.96484-3.37891l1.08594.57031"/><g clip-path="url(#aj)"><path fill="none" stroke="#000" stroke-linecap="round" stroke-linejoin="round" stroke-miterlimit="10" stroke-width=".5" d="M147.45313 359.83594l-6.90625 1.3164"/></g><path fill="none" stroke="#000" stroke-linecap="round" stroke-linejoin="round" stroke-miterlimit="10" stroke-width=".5" d="M147.45313 359.83594l1.53515 1.91015m-2.54297-1.71875l.76953.95313m13.53125.27734l-6.85937-1.52734m6.85937 1.52734l.65235 2.36328m-1.65235-2.58593l.65625 2.36328m13.71875-3.28516l-6.98437.76172m6.98437-.76172l1.38282 2.02735m-2.39844-1.91797l.6914 1.01562m13.64063-1.125l-6.98438.75781m6.98438-.7578l1.3789 2.03124m11.8047-2.67969l-6.71876 2.0586m6.71875-2.0586l1.73438 1.73438m11.57031-1.76563l-6.69922 2.1172m6.69922-2.1172l1.75 1.71875m11.60938-1.5703l-6.78907 1.82421m6.78907-1.82422l1.67187 1.79297m11.53125-2.13672l-6.5625 2.51172m6.5625-2.51172l1.84766 1.60938m11.23828-2.08985l-6.10938 3.46875m6.10938-3.46875l2.07422 1.3164m11.2539-1.29296l-6.13672 3.42578m6.13672-3.42578l2.0625 1.33203m11.38282-1.07812l-6.39454 2.91796m6.39454-2.91796l1.9453 1.49218m11.32813-1.57812l-6.3125 3.08594m6.3125-3.08594l1.98829 1.4414m11.28906-1.51953l-6.23438 3.2461m6.23438-3.2461l2.01953 1.39063m11.42969-1.09766l-6.50391 2.66016m6.5039-2.66016l1.88673 1.5664m11.5625-1.16796l-6.77344 1.86328m6.77344-1.86328l1.6875 1.78516m11.73437-1.25l-6.98437.78906m6.98437-.78906l1.38672 2.02343m11.82031-2.5664l-6.76953 1.875m6.76953-1.875l1.6914 1.78125m11.57032-1.96094l-6.66406 2.23438m6.66406-2.23438l1.78125 1.6875m11.28125-2.26172l-6.15625 3.38672m6.15625-3.38672l2.05469 1.34375m-2.94922-.85156l1.02734.67187m13.19532-1.14062l-6.1836 3.33594m6.1836-3.33594l2.04296 1.35937m-2.9414-.875l1.01953.6797m13.2461-1.06642l-6.28516 3.14454m6.28515-3.14454l1.9961 1.42188m11.28906-1.47656l-6.22656 3.2539m6.22656-3.2539l2.02344 1.38281m11.40625-1.14063l-6.45703 2.76563m6.45703-2.76563l1.91406 1.53907m-2.85156-1.13672l.95312.76953m13.25781-1.26953l-6.375 2.96094m6.375-2.96094l1.95704 1.48047m11.14843-1.86328l-5.95703 3.72656"/><g clip-path="url(#ak)"><path fill="none" stroke="#000" stroke-linecap="round" stroke-linejoin="round" stroke-miterlimit="10" stroke-width=".5" d="M466.53906 358.6289l2.125 1.22657"/></g><g clip-path="url(#al)"><path fill="none" stroke="#000" stroke-linecap="round" stroke-linejoin="round" stroke-miterlimit="10" stroke-width=".5" d="M147.34375 346.09766l-6.6875 2.16015"/></g><path fill="none" stroke="#000" stroke-linecap="round" stroke-linejoin="round" stroke-miterlimit="10" stroke-width=".5" d="M147.34375 346.09766l1.76172 1.70703m-2.73438-1.39453l.87891.85546m13.54297.41407l-6.95703-1.0039m6.95703 1.0039l.83203 2.3086m12.01172-4.62892l-6.01563 3.63672m6.01563-3.63671l2.10547 1.26171m-2.98047-.73046l1.05469.6289m12.75-1.6836l-5.2422 4.6836m4.48048-4l1.14844.42188m13.51171-.20313l-6.41015 2.8789m6.41015-2.8789l1.9375 1.5039m11.44141-1.35156l-6.53906 2.57422m6.53906-2.57421l1.86719 1.59375m11.3789-1.75782l-6.39843 2.90235m6.39843-2.90235l1.94532 1.5m11.42187-1.3789l-6.5039 2.66015m6.5039-2.66015l1.88672 1.5703m11.41406-1.60546l-6.47656 2.73047m6.47656-2.73047l1.90235 1.55078m11.33203-1.72656l-6.3125 3.08203m6.3125-3.08203l1.98828 1.4414m11.28125-1.53125l-6.22266 3.26172m6.22266-3.26171l2.02734 1.38671m11.38672-1.17968l-6.42187 2.84765m6.42187-2.84765l1.9336 1.51171m11.35546-1.57812l-6.36718 2.98047m6.36718-2.98047l1.96094 1.47656m11.41406-1.33203l-6.48828 2.69531m6.48828-2.6953l1.89453 1.55858m11.21094-1.98046l-6.07031 3.53515m6.07031-3.53515l2.08594 1.29296m11.4961-.72656l-6.60157 2.40625m6.60156-2.40625l1.82422 1.64063m11.66016-.99219l-6.9414 1.10547m6.9414-1.10547l1.47656 1.96094m11.75-2.36328l-6.76172 1.91015m6.76172-1.91015l1.69531 1.77343M372.75391 346.5l.84765.88672m13.30469-1.57813l-6.46875 2.7422m6.46875-2.7422l1.90625 1.54297m-2.84766-1.14453l.95313.77344m13.14844-1.49219l-6.16016 3.3789m6.16016-3.3789l2.05078 1.34375m-2.94532-.85156l1.02344.67187m13.32031-.89843l-6.42578 2.84765m6.42578-2.84765l1.9297 1.51562m-2.8672-1.10156l.96485.75781m13.33594-1.05078l-6.52344 2.60938m6.52344-2.60938l1.875 1.58203m-2.82422-1.20312l.9375.78906m13.30468-1.22266l-6.48046 2.71485m6.48046-2.71485l1.89844 1.55469m-2.83984-1.16016l.94922.77735m13.48828-.61328l-6.84375 1.59765m6.84375-1.59765l1.61328 1.84765m11.71094-1.80078l-6.86328 1.5039"/><g clip-path="url(#am)"><path fill="none" stroke="#000" stroke-linecap="round" stroke-linejoin="round" stroke-miterlimit="10" stroke-width=".5" d="M466.99219 346.42578l1.58984 1.8711"/></g><path fill="none" stroke="#000" stroke-linecap="round" stroke-linejoin="round" stroke-miterlimit="10" stroke-width=".5" d="M465.9961 346.64453l.79296.9375"/><g clip-path="url(#an)"><path fill="none" stroke="#000" stroke-linecap="round" stroke-linejoin="round" stroke-miterlimit="10" stroke-width=".5" d="M146.01953 330.98828l-4.03906 5.75"/></g><path fill="none" stroke="#000" stroke-linecap="round" stroke-linejoin="round" stroke-miterlimit="10" stroke-width=".5" d="M146.01953 330.98828l2.4336.30078m-3.02344.53516l1.21875.15234m13.65234.03516l-5.97266 3.70312m5.97266-3.70312l2.1211 1.23437m11.62109-.22265l-6.82422 1.67969m6.82422-1.6797l1.63672 1.82813m10.32422-3.83594l-4.1172 5.69532m4.1172-5.69531l2.42968.33593m11.71485.50781l-5.77344 4.00782m4.9336-3.42578l1.08984.5625m13.50781-.26172l-6.66016 2.24219m6.66016-2.2422l1.78125 1.6836m11.64063-1.29297l-6.875 1.45703m6.875-1.45703l1.57421 1.88281m11.73828-1.89062l-6.87109 1.47656m6.8711-1.47656l1.58203 1.875m11.72265-1.92188l-6.84765 1.57032m6.84765-1.57031l1.60547 1.85156m11.63672-2.11328l-6.70703 2.09375m6.70703-2.09375l1.7461 1.72265m11.51562-1.88281l-6.59766 2.41406m6.59766-2.41406l1.82812 1.64063m11.3125-2.04297l-6.24609 3.21875m6.2461-3.21875l2.01562 1.39843m11.1875-1.60156l-6.02344 3.6211m6.02344-3.6211l2.10156 1.26563m11.38281-.94532l-6.36328 2.98438m6.36328-2.98438l1.96094 1.47266m11.09766-1.92969l-5.84766 3.89844m5.84766-3.89844l2.16015 1.16406m11.28125-.95703l-6.10156 3.48438m5.21484-2.97656l1.03516.65234m13.20703-1.08984l-6.1836 3.34375m5.28126-2.85938l1.02344.67969m13.53906-.23047l-6.8711 1.47656m6.8711-1.47656l1.57812 1.8789m11.04688-3.33202l-5.4961 4.3789m5.4961-4.3789l2.2539.97656m11.16016-.84766l-5.6914 4.125m4.86328-3.52734l1.10156.53906m13.45703-.3789l-6.52344 2.60937m6.52344-2.60938l1.875 1.58204m11.45703-1.53907l-6.5586 2.52344m6.5586-2.52344l1.85547 1.60938m-2.8086-1.24219l.92579.80469m13.16797-1.55469l-6.20704 3.28906m6.20704-3.28906l2.03515 1.375m-2.9375-.89453l1.01563.6875m13.34765-.85938l-6.5 2.67188m6.5-2.67188l1.89063 1.5625m-2.83594-1.17578l.94531.78516m13.42578-.86719l-6.71875 2.0625"/><g clip-path="url(#ao)"><path fill="none" stroke="#000" stroke-linecap="round" stroke-linejoin="round" stroke-miterlimit="10" stroke-width=".5" d="M466.92188 332.83203l1.73437 1.73047"/></g><path fill="none" stroke="#000" stroke-linecap="round" stroke-linejoin="round" stroke-miterlimit="10" stroke-width=".5" d="M465.9414 333.13281l.8711.86719"/><g clip-path="url(#ap)"><path fill="none" stroke="#000" stroke-linecap="round" stroke-linejoin="round" stroke-miterlimit="10" stroke-width=".5" d="M142.05078 317.625l3.89844 5.84766"/></g><path fill="none" stroke="#000" stroke-linecap="round" stroke-linejoin="round" stroke-miterlimit="10" stroke-width=".5" d="M156.24219 317.20313l2.14453 6.6914m-2.14453-6.6914l1.71484-1.75782m12.79297 1.58985l-.24219 7.02343m.20703-6l1.10157-.53906m13.51562-.19922l-2.77344 6.45703m2.3672-5.51953l1.22265-.10156m11.7461-1.0625l-1.26954 6.91016m1.08594-5.90625l1.16797-.3711m15.1875 2.42969l-6.98438.78516m5.96875-.67188l.69531 1.01172m13.63282-.3164l-6.97657-.83204m6.97657.83203l.88672 2.28516m12.42968-2.28516l-6.97656-.83593m6.97656.83593l.88281 2.28907m12.44141-3.00782l-7 .60547m7-.60547l1.33594 2.0586m11.96094-2.24219l-6.96094.96875m6.96094-.96875l1.4375 1.98828m11.85547-2.1289l-6.91407 1.2539m6.91406-1.2539l1.51954 1.92578m11.51953-2.78516l-6.36719 2.96875m6.36719-2.96875l1.96094 1.47656m11.24609-1.6875l-6.15234 3.39453m6.15234-3.39453l2.0586 1.33985m11.5664-.58594l-6.76953 1.88672m6.76953-1.88672l1.6914 1.77734m11.5-2.14062l-6.52343 2.60937m6.52344-2.60937l1.875 1.58594m11.48046-1.48047l-6.60546 2.39843m6.60546-2.39843l1.82422 1.64453m10.94532-2.6211l-5.51172 4.35547m5.51172-4.35547l2.25.98438m11.58984-.07031l-6.5586 2.52343m5.60157-2.15625l.92969.8047m11.875-2.91798l-3.625 6.01953m3.09765-5.14453l1.22266.0664m12.72265-.8789l-3.83203 5.89063m3.27344-5.03125l1.22266.10547m7.42187.80859l6.625 2.34766m6.50781-1.53516l6.9922.71875m-5.97657-.61328l-.46094-1.13672m19.24219-.45703l-5.97266 3.69531m5.10547-3.15625l1.0586.61719m13.20703-1.01563l-6.14063 3.41797m6.14063-3.41797l2.05859 1.33204m-2.95312-.83594l1.03125.66406m13.15625-1.19922l-6.09766 3.49219"/><g clip-path="url(#aq)"><path fill="none" stroke="#000" stroke-linecap="round" stroke-linejoin="round" stroke-miterlimit="10" stroke-width=".5" d="M466.60938 318.80078l2.07812 1.3086"/></g><g clip-path="url(#ar)"><path fill="none" stroke="#000" stroke-linecap="round" stroke-linejoin="round" stroke-miterlimit="10" stroke-width=".5" d="M465.72266 319.3086l2.07812 1.30859"/></g><path fill="#00f" fill-rule="evenodd" d="M317.22656 454.33203h8.61719V444.1875h-8.61719v10.14453"/><path fill="azure" fill-rule="evenodd" d="M319.0586 446.01953h.83202v2.82422h3.28516v-2.82422h.83594V452.5h-.83594v-2.91406h-3.28515V452.5h-.83204v-6.48047"/><path fill="#ff3030" fill-rule="evenodd" d="M380.05469 418.82813H387.75v-10.14844h-7.69531v10.14844"/><path fill="azure" fill-rule="evenodd" d="M381.89063 410.51172h.83203v5.74219h3.1953v.73828h-4.02733v-6.48047"/><path fill="#ff3030" fill-rule="evenodd" d="M295.72656 409.94922h7.69531v-10.14453h-7.6953v10.14453"/><path fill="azure" fill-rule="evenodd" d="M297.5586 401.63672h.83593v5.73828h3.1914v.74219h-4.02734v-6.48047"/><path fill="#ff3030" fill-rule="evenodd" d="M193.64453 378.88281h7.69531v-10.14844h-7.6953v10.14844"/><path fill="azure" fill-rule="evenodd" d="M195.47656 370.5664h.83594v5.7422h3.1914v.73827h-4.02734v-6.48046"/><path fill="#ffffe0" fill-rule="evenodd" d="M342.66406 392.42578h22.17969v-10.1914h-22.17969v10.1914"/><path fill-rule="evenodd" d="M346.16406 384.07031h.51172v6.29297h-.78906V385.875H344.5v-.5586l.5586-.0625.25-.05468.23046-.08985.20313-.14062.17578-.21094.14062-.29297.10547-.39453m4.8125 0l.23047.01563.21875.0586.20703.08983.19922.1172.1836.15234.17187.17578.30078.41797.24219.49218.17969.54688.11328.58203.03906.58984-.03906.59375-.11328.58204-.1797.55468-.24218.5039-.30078.42579-.17188.17969-.18359.15234-.19922.125-.20703.09375-.21875.05469-.23047.01953-.22656-.01953-.21875-.05469-.21094-.09375-.19531-.125-.1836-.15234-.17187-.17969-.30078-.42578-.24219-.5039-.17969-.5547-.11328-.58203-.03906-.59375h.83594l.02734.5625.08203.50782.125.4414.16407.375.1914.30078.20703.21875.22657.14063.22265.04687.22656-.04687.22266-.14063.21094-.21875.1914-.30078.16407-.375.125-.4414.08203-.50782.02734-.5625-.02734-.5625-.08203-.5-.125-.43359-.16406-.36719-.19141-.29297-.21094-.21484-.22265-.1289-.22657-.04688-.22265.04687-.22657.12891-.20703.21484-.1914.29297-.16407.36719-.125.4336-.08203.5-.02734.5625h-.83594l.03906-.58985.11329-.58203.17968-.54688.24219-.49218.30078-.41797.17188-.17578.18359-.15235.19531-.11719.21094-.08984.21875-.0586.22656-.01562m4.95313 0l.23047.01563.21875.0586.20703.08983.19922.1172.18359.15234.17188.17578.30078.41797.24218.49218.1797.54688.11327.58203.03906.58984-.03906.59375-.11328.58204-.17969.55468-.24218.5039-.30079.42579-.17187.17969-.1836.15234-.19921.125-.20703.09375-.21875.05469-.23047.01953-.22656-.01953-.21875-.05469-.21094-.09375-.19531-.125-.1836-.15234-.17187-.17969-.30079-.42578-.24609-.5039-.17969-.5547-.10937-.58203-.03906-.59375h.83203l.03125.5625.08203.50782.125.4414.16406.375.1875.30078.21094.21875.22265.14063.22657.04687.22656-.04687.22266-.14063.21093-.21875.19141-.30078.16406-.375.125-.4414.08203-.50782.02735-.5625-.02735-.5625-.08203-.5-.125-.43359-.16406-.36719-.1914-.29297-.21094-.21484-.22266-.1289-.22656-.04688-.22656.04687-.22266.12891-.21094.21484-.1875.29297-.16406.36719-.125.4336-.08203.5-.03125.5625h-.83203l.03906-.58985.10937-.58203.1797-.54688.24608-.49218.30079-.41797.17187-.17578.1836-.15235.1953-.11719.21094-.08984.21875-.0586.22657-.01562m4.95312 0l.38672.02735.35938.08203.32421.13672.27735.1875.23047.23437.17187.28516.10938.33594.03906.375-.01953.27343-.0586.23438-.08593.20312-.11328.16797-.12891.14453-.14063.1211-.28515.19921.23047.1172.20703.14843.1836.17188.15234.1914.125.21485.08984.23046.05469.2422.01953.2578-.03516.3086-.10156.32422-.17188.32812-.23828.30469-.30859.26953-.375.21484-.21094.08204-.22656.05859-.2461.03906-.26171.01172-.25781-.01172-.2422-.03906-.22265-.0586-.20703-.08203-.35938-.21484-.28906-.26953-.22265-.30469-.15625-.32812-.09375-.32422-.03125-.3086h.83203l.02734.25.07813.23829.125.21093.16015.1836.1914.15234.21876.11719.24219.07031.2539.02734.2539-.02734.2422-.07031.21875-.11719.1953-.15234.16017-.1836.12109-.21094.07812-.23828.02735-.25-.02735-.2539-.07812-.23438-.1211-.21484-.16015-.1836-.19531-.15234-.21875-.11328-.2422-.07422-.2539-.02344-.2539.02344-.2422.07422-.21874.11328-.1914.15235-.16016.18359-.125.21484-.07813.23438-.02734.2539h-.83203l.01953-.2539.05469-.24219.09375-.22266.12109-.20703.15625-.1914.17969-.17188.20703-.15234.23437-.13281-.28906-.19922-.13672-.1211-.13281-.14453-.10938-.16797-.08984-.20312-.05469-.23438-.02344-.27344h.78907l.02344.21485.0664.1914.10156.16797.13672.13672.16797.11328.1875.08204.20703.05078.21875.01562.22266-.01562.20703-.05079.1875-.08203.16406-.11328.13672-.13672.10547-.16796.0664-.19141.02344-.21485-.02343-.21484-.06641-.1914-.10547-.16407-.13672-.14062-.16406-.11328-.1875-.08204-.20703-.04687-.22266-.01953-.21875.01953-.20703.04688-.1875.08203-.16797.11328-.13672.14062-.10156.16406-.0664.19141-.02344.21485h-.78906l.03906-.375.10937-.33594.17188-.28516.23047-.23437.28125-.1875.3203-.13672.35938-.08203.38672-.02735"/><path fill="#ffffe0" fill-rule="evenodd" d="M204.15625 358.9961h22.17969v-10.19141h-22.17969v10.1914"/><path fill-rule="evenodd" d="M207.65234 350.63672h.51172v6.29297h-.78906v-4.48828h-1.38672v-.5547l.5586-.0664.2539-.05469.23047-.08984.20313-.14062.17187-.21094.14063-.29297.10546-.39453m4.81641 0l.23047.01953.21875.05469.20703.08984.19531.1211.1836.14843.17187.17578.30078.41797.2461.4961.17968.54687.10938.57813.03906.58984-.03906.59375-.10938.58594-.17968.55469-.2461.5-.30078.42968-.17187.17969-.1836.15234-.19531.1211-.20703.09375-.21875.0586-.23047.01952-.23047-.01953-.21875-.0586-.20703-.09374-.19531-.1211-.1875-.15234-.16797-.17969-.30469-.42969-.24219-.5-.17968-.55468-.11328-.58594-.03516-.59375h.83203l.02734.5625.08203.50781.125.4414.16407.375.1914.30079.21094.22266.22266.13671.22656.04688.22656-.04688.22266-.13671.21094-.22266.1914-.30078.16016-.375.125-.4414.08203-.50782.03125-.5625-.03125-.5586-.08203-.5039-.125-.4336-.16016-.36718-.1914-.28906-.21094-.21485-.22266-.13281-.22656-.04297-.22656.04297-.22266.13281-.21094.21485-.1914.28906-.16406.36719-.125.43359-.08204.5039-.02734.5586h-.83203l.03516-.58984.11328-.57813.17968-.54687.2422-.4961.30468-.41797.16797-.17578.1875-.14844.19531-.12109.20703-.08984.21875-.05469.23047-.01953m4.95313 0l.22656.01953.21875.05469.21094.08984.1953.1211.1836.14843.17188.17578.30078.41797.2461.4961.17968.54687.10937.57813.03907.58984-.03907.59375-.10937.58594-.17969.55469-.2461.5-.30077.42968-.17188.17969-.1836.15234-.1953.1211-.21094.09375-.21875.0586-.22656.01952-.23047-.01953-.21875-.0586-.20703-.09374-.19922-.1211-.1836-.15234-.17187-.17969-.30078-.42969-.2422-.5-.17968-.55468-.11328-.58594-.03906-.59375h.83594l.02734.5625.08203.50781.125.4414.16406.375.1914.30079.21095.22266.22265.13671.22656.04688.22657-.04688.22265-.13671.21094-.22266.1875-.30078.16406-.375.125-.4414.08203-.50782.03125-.5625-.03125-.5586-.08203-.5039-.125-.4336-.16406-.36718-.1875-.28906-.21094-.21485-.22265-.13281-.22656-.04297-.22657.04297-.22265.13281-.21094.21485-.1914.28906-.16407.36719-.125.43359-.08203.5039-.02734.5586h-.83594l.03906-.58984.11328-.57813.17969-.54687.24219-.4961.30078-.41797.17187-.17578.1836-.14844.19922-.12109.20703-.08984.21875-.05469.23047-.01953m4.95312 0l.38672.02734.35547.08203.32422.13672.28125.1875.22656.23828.17578.28516.10938.33203.03515.375-.01953.27735-.0586.23437-.08593.19922-.11328.17187-.1289.14063-.14063.125-.28516.19531.23047.11719.21094.14844.17968.17187.15625.1914.1211.21485.08984.23047.0586.24219.01953.25781-.03516.3086-.10547.32812-.17187.32422-.23828.30469-.3086.26953-.3711.21484-.21484.08203-.22656.0586-.2461.03906-.2578.01562-.26172-.01562-.2422-.03906-.22265-.0586-.20703-.08203-.35547-.21484-.29297-.26954-.22265-.30468-.15625-.32422-.09375-.32813-.03125-.30859h.83594l.02734.2539.07812.23438.1211.21094.16015.1875.19141.14844.22266.11718.23828.07032.25781.02734.2539-.02734.23829-.07032.22265-.11718.19141-.14844.16016-.1875.12109-.21094.07813-.23437.02734-.25391-.02734-.2539-.07813-.23438-.1211-.21094-.16015-.1875-.1914-.15234-.22266-.11328-.23828-.07422-.25391-.02344-.25781.02344-.23828.07422-.22266.11328-.1914.15234-.16016.1875-.1211.21094-.07812.23437-.02734.25391h-.83594l.01953-.2539.0586-.23829.08984-.22656.125-.20703.15234-.1914.17969-.17188.21094-.15235.23046-.1328-.28515-.19532-.14063-.125-.1289-.14063-.11328-.17187-.08594-.19922-.0586-.23438-.01953-.27734h.78516l.02344.21485.0664.1914.10547.16797.13672.14063.16406.10937.1875.08203.20703.05078.22266.01563.21875-.01563.20703-.05078.1875-.08203.16406-.10938.14063-.14062.10156-.16797.0664-.1914.02345-.21485-.02344-.21484-.0664-.1875-.10157-.16797-.14063-.14063-.16406-.10937-.1875-.08203-.20703-.05078-.21875-.01563-.22266.01563-.20703.05078-.1875.08203-.16406.10937-.13672.14063-.10547.16797-.0664.1875-.02344.21484h-.78516l.03516-.375.10937-.33203.17578-.28516.22657-.23828.28125-.1875.32422-.13672.35547-.08203.39062-.02734"/><path fill="#ffffe0" fill-rule="evenodd" d="M186.40234 396.38672h22.1797v-10.1914h-22.1797v10.1914"/><path fill-rule="evenodd" d="M189.90234 388.02734h.50782v6.29688h-.78516v-4.49219h-1.39063v-.55469l.5586-.0625.2539-.05468.23047-.08985.20313-.14062.17187-.21094.14453-.29297.10547-.39844m4.8125 0l.23047.01954.21875.05468.20703.08985.19532.12109.18359.15234.17188.17188.30468.42187.24219.4922.17969.54687.10937.57812.03906.59375-.03906.59375-.10937.58203-.17969.55469-.24219.5-.30469.42969-.17187.17969-.1836.15234-.1953.125-.20704.08984-.21875.0586-.23047.01953-.23047-.01953-.21875-.0586-.20703-.08984-.1953-.125-.1875-.15235-.16798-.17968-.30469-.42969-.24218-.5-.17969-.55469-.10938-.58203-.03906-.59375h.83203l.02735.5625.08203.5039.1289.44532.16016.375.1914.30078.21095.21875.22265.13672.22656.04688.22657-.04688.22265-.13672.21094-.21875.1914-.30078.16016-.375.1289-.44531.07813-.5039.03125-.5625-.03125-.5625-.07812-.5-.1289-.4375-.16016-.36329-.19141-.29297-.21094-.21484-.22265-.13281-.22657-.04297-.22656.04296-.22266.13282-.21093.21484-.1914.29297-.16017.36328-.1289.4375-.08203.5-.02735.5625h-.83203l.03906-.59375.10938-.57812.17969-.54688.24219-.49219.30468-.42187.16797-.17188.1875-.15234.19531-.1211.20703-.08984.21875-.05469.23047-.01953m4.95313 0l.22656.01954.22266.05468.20703.08985.19531.12109.1836.15234.17187.17188.30078.42187.2461.4922.17968.54687.10938.57812.03906.59375-.03906.59375-.10938.58203-.17969.55469-.24609.5-.30078.42969-.17188.17969-.18359.15234-.19531.125-.20703.08984-.22266.0586-.22656.01953-.23047-.01953-.21875-.0586-.20703-.08984-.19531-.125-.1875-.15235-.17188-.17968-.30078-.42969-.24219-.5-.17969-.55469-.11328-.58203-.03515-.59375h.83203l.02734.5625.08203.5039.125.44532.16407.375.1914.30078.21094.21875.22266.13672.22656.04688.22656-.04688.22266-.13672.21094-.21875.1914-.30078.16016-.375.125-.44531.08203-.5039.03125-.5625-.03125-.5625-.08203-.5-.125-.4375-.16016-.36329-.1914-.29297-.21094-.21484-.22266-.13281-.22656-.04297-.22656.04296-.22266.13282-.21094.21484-.1914.29297-.16407.36328-.125.4375-.08203.5-.02734.5625h-.83203l.03515-.59375.11328-.57812.1797-.54688.24218-.49219.30078-.42187.17188-.17188.1875-.15234.1953-.1211.20704-.08984.21875-.05469.23047-.01953m4.95312 0l.38672.02735.35938.08594.32031.1328.28125.1875.23047.23829.17187.28515.10938.33204.03516.3789-.01954.27344-.05859.23438-.08594.19921-.11328.17188-.1289.14453-.14063.1211-.28516.1953.23438.1211.20703.14453.17969.17188.15625.1953.1211.21485.08983.22656.0586.2461.01953.2539-.03516.3125-.10547.32422-.17187.32422-.23828.3086-.3086.26953-.37109.21484-.21094.07813-.23047.0625-.24218.03906-.26172.01172-.26172-.01172-.24219-.03906-.22265-.0625-.20313-.07813-.35937-.21484-.29297-.26953-.22266-.3086-.15625-.32422-.09375-.32421-.02734-.3125h.83203l.02734.2539.07813.23438.1211.21484.16015.1836.19531.15234.21875.11328.23828.07422.25781.02344.25391-.02344.23828-.07422.22266-.11328.1914-.15235.16016-.18359.125-.21484.07422-.23438.02734-.2539-.02734-.25-.07422-.23829-.125-.21093-.16016-.1836-.1914-.15234-.22266-.11719-.23828-.07031-.2539-.02735-.25782.02735-.23828.07031-.21875.11719-.19531.15234-.16016.1836-.1211.21093-.07812.23829-.02734.25h-.83203l.01562-.25391.0586-.23828.08984-.22266.125-.21094.15234-.1875.1836-.17578.20703-.15234.23047-.13281-.28516-.19532-.14062-.12109-.12891-.14453-.11328-.17188-.08594-.19921-.0586-.23438-.01952-.27344h.78515l.02344.21485.0664.1914.10548.16406.13671.14063.16407.11328.1875.07813.20703.05078.22265.01953.21875-.01953.20703-.05078.1875-.07813.16797-.11328.13672-.14063.10156-.16406.06641-.1914.02344-.21485-.02344-.21484-.0664-.1914-.10157-.16798-.13672-.13671-.16797-.11329-.1875-.08203-.20703-.05078-.21875-.01562-.22265.01562-.20703.05078-.1875.08203-.16407.11329-.13672.13671-.10546.16797-.06641.1914-.02344.21485h-.78515l.03906-.3789.10547-.33204.17578-.28515.23047-.23828.27734-.1875.32422-.13281.35938-.08594.38671-.02735"/><path fill="#ffffe0" fill-rule="evenodd" d="M298.88672 432.3711h22.1836v-10.19141h-22.1836v10.1914"/><path fill-rule="evenodd" d="M302.38672 424.01172h.51172v6.29687h-.78906v-4.48828h-1.38672v-.5586l.55859-.0625.25-.05468.23047-.08984.20312-.14063.17579-.21094.14062-.29296.10547-.39844m4.8164 0l.22657.01953.21875.0586.21094.08984.1953.11719.1836.15234.17188.17578.30078.41797.24219.49219.17968.54687.11328.58203.03907.58985-.03907.59375-.11328.58203-.17969.55469-.24218.5039-.30078.42578-.17188.17969-.1836.15234-.1953.125-.21094.09375-.21875.0547-.22656.01952-.23047-.01953-.21875-.05469-.20704-.09375-.19921-.125-.1836-.15234-.17187-.17969-.30078-.42578-.2422-.5039-.17968-.5547-.11328-.58202-.03906-.59375h.83594l.02734.5625.08203.5078.125.44142.16406.375.1914.30078.21095.21875.22265.13671.22656.04688.22266-.04688.22266-.13671.21094-.21875.1914-.30079.16406-.375.125-.4414.08204-.50781.02734-.5625-.02735-.5625-.08203-.5-.125-.4336-.16406-.36719-.1914-.29296-.21094-.21485-.22266-.1289-.22265-.04688-.22657.04688-.22265.1289-.21094.21485-.1914.29296-.16407.3672-.125.43359-.08203.5-.02735.5625h-.83593l.03906-.58985.11328-.58203.17969-.54687.24219-.4922.30078-.41796.17187-.17578.1836-.15235.19921-.11718.20704-.08985.21875-.05859.23046-.01953m4.94922 0l.23047.01953.21875.0586.20703.08984.19922.11719.1836.15234.17187.17578.30078.41797.24219.49219.17969.54687.11328.58203.03906.58985-.03906.59375-.11328.58203-.17969.55469-.24219.5039-.30078.42578-.17187.17969-.1836.15234-.19922.125-.20703.09375-.21875.0547-.23047.01952-.22656-.01953-.21875-.05469-.21094-.09375-.1953-.125-.1836-.15234-.17188-.17969-.30078-.42578-.24219-.5039-.18359-.5547-.10938-.58202-.03906-.59375h.83203l.03125.5625.08204.5078.125.44142.16406.375.1875.30078.21094.21875.22265.13671.22656.04688.22657-.04688.22265-.13671.21094-.21875.1914-.30079.16407-.375.125-.4414.08203-.50781.02734-.5625-.02734-.5625-.08203-.5-.125-.4336-.16406-.36719-.19141-.29296-.21094-.21485-.22265-.1289-.22657-.04688-.22656.04688-.22265.1289-.21094.21485-.1875.29296-.16406.3672-.125.43359-.08204.5-.03125.5625h-.83203l.03906-.58985.10938-.58203.1836-.54687.24218-.4922.30078-.41796.17188-.17578.1836-.15235.1953-.11718.21094-.08985.21875-.05859.22656-.01953m4.95313 0l.38672.03125.35937.08203.32422.13672.27735.1875.23046.23437.17188.28516.10937.33203.03907.3789-.01954.27344-.05859.23438-.08594.20313-.11328.16796-.1289.14454-.14063.12109-.28515.19922.23046.11719.20704.14843.18359.17188.15234.1914.125.21485.08985.23047.05468.24218.01954.25782-.03516.30859-.10156.32422-.17188.32812-.23828.3047-.3086.26952-.375.21485-.21093.08203-.22656.0586-.2461.03905-.26172.01172-.2578-.01172-.2422-.03906-.22265-.0586-.20703-.08202-.35938-.21485-.28906-.26953-.22266-.30469-.15625-.32812-.09375-.32422-.03125-.3086h.83203l.02735.25.07812.23829.125.21094.16016.18359.1914.15234.21875.11328.2422.07422.2539.02344.25781-.02344.23828-.07422.21875-.11328.19531-.15234.16016-.1836.1211-.21093.07812-.23828.02734-.25-.02734-.25391-.07813-.23438-.12109-.21484-.16015-.1836-.19532-.15234-.21875-.11328-.23828-.07422-.25781-.02343-.2539.02343-.2422.07422-.21875.11328-.1914.15235-.16016.1836-.125.21483-.07812.23438-.02735.2539h-.83203l.01953-.2539.0547-.24219.09374-.22265.1211-.20704.15625-.1914.17968-.17188.20703-.15234.23438-.13281-.28906-.19922-.13672-.1211-.1289-.14453-.11329-.16796-.08984-.20313-.0547-.23438-.02343-.27343h.78906l.02344.21484.0664.1914.10157.16407.13672.14063.16797.11328.1875.08203.20703.05078.21875.01562.22265-.01562.20704-.05078.1875-.08203.16406-.11329.13672-.14062.10547-.16406.0664-.1914.02344-.21485-.02344-.21485-.0664-.1914-.10547-.16406-.13672-.14063-.16406-.11328-.1875-.08203-.20704-.04688-.22265-.01953-.21875.01953-.20703.04688-.1875.08203-.16797.11328-.13672.14063-.10156.16406-.0664.1914-.02345.21485h-.78906l.03906-.3789.10938-.33204.17187-.28516.23047-.23437.28125-.1875.32031-.13672.35938-.08203.38672-.03125"/><path fill="#ffffe0" fill-rule="evenodd" d="M332.86719 343.94922h22.17969v-10.1914h-22.1797v10.1914"/><path fill-rule="evenodd" d="M336.36719 335.58984h.50781v6.29688h-.78516v-4.49219h-1.39062v-.55469l.5625-.0664.25-.05078.23047-.08985.20312-.14062.17578-.21094.14063-.29688.10547-.39453m4.8125 0l.23047.01954.21875.05468.20703.08985.19531.12109.1875.14844.16797.17578.30469.42187.24218.4922.1797.54687.11327.57812.03516.59375-.03516.58985-.11328.58593-.17969.55469-.24218.5-.3047.42969-.16796.17969-.1875.15234-.19531.125-.20703.08984-.21875.0586-.23047.01953-.23047-.01953-.21875-.0586-.20703-.08984-.19531-.125-.1836-.15235-.17187-.17968-.30079-.42969-.24609-.5-.17969-.55469-.10937-.58594-.03906-.58984h.83203l.03125.5625.08203.5039.125.44532.16015.375.19141.29688.21094.22265.22265.13672.22657.04688.22656-.04688.22266-.13672.21093-.22265.19141-.29688.16016-.375.1289-.44531.08203-.5039.02735-.5625-.02735-.5625-.08203-.5-.1289-.4375-.16016-.36329-.1914-.29297-.21094-.21484-.22266-.13281-.22656-.04297-.22656.04296-.22266.13282-.21094.21484-.1914.29297-.16016.36328-.125.4375-.08203.5-.03125.5625h-.83203l.03906-.59375.10937-.57812.1797-.54688.24608-.49219.30079-.42187.17187-.17578.1836-.14844.1953-.1211.20704-.08984.21875-.05469.23047-.01953m5.09375 0h.50781v6.29688h-.78906v-4.49219h-1.38672v-.55469l.5586-.0664.2539-.05078.23047-.08985.20312-.14062.17188-.21094.14062-.29688.10938-.39453m2.82031 2.17579h.78906l.01953-.31641.0586-.28516.09765-.2539.14063-.21485.1836-.17187.22265-.1289.26562-.08204.3086-.02734.23437.01953.22656.0625.20313.10156.17969.14063.14844.17187.11328.20703.0703.23438.02735.26562-.02344.26953-.0664.22266-.10938.1914-.15625.17188-.19921.16406-.2461.16406-.63672.39063-.53515.3125-.4375.3164-.34766.32423-.26172.33593-.1914.35156-.125.3711-.07032.39062-.01953.42188h4.21094v-.74219h-3.33203l.08203-.28515.11328-.23438.14844-.20313.1875-.17968.23047-.17188.28125-.17578.71484-.41406.41797-.20703.34375-.23047.28125-.25.21875-.26953.16406-.27735.10938-.28515.0664-.28516.01953-.28125-.04296-.38281-.1211-.34766-.1875-.3086-.25-.26171-.30078-.21094-.34766-.16015-.3789-.09766-.40625-.03516-.4375.03516-.39844.09766-.35547.16406-.30469.23437-.24609.3047-.1875.375-.11328.4453-.04297.51954"/><path fill="#ffffe0" fill-rule="evenodd" d="M177.52344 325.13672h22.1836v-10.1914h-22.1836v10.1914"/><path fill-rule="evenodd" d="M181.02344 316.77734h.51172v6.29688h-.78907v-4.49219h-1.38672v-.55469l.5586-.0625.25-.05468.23047-.08985.20312-.14062.17578-.21094.14063-.29297.10547-.39844m4.8125 0l.23047.01954.21875.05468.20703.08985.19922.12109.18359.15234.17188.17579.30078.41796.24218.4922.1797.54687.11327.57812.03906.59375-.03906.59375-.11328.58203-.17969.55469-.24218.5-.30078.42969-.17188.17969-.1836.15234-.19921.125-.20703.08984-.21875.0586-.23047.01953-.22656-.01953-.21875-.0586-.21094-.08984-.19531-.125-.1836-.15235-.17187-.17968-.30078-.42969-.2422-.5-.17968-.55469-.11328-.58203-.03906-.59375h.83593l.02735.5625.08203.5039.125.44532.16406.375.1914.30078.21095.21875.22265.13672.22266.04688.22656-.04688.22266-.13672.21093-.21875.19141-.30078.16406-.375.125-.44531.08203-.5039.02735-.5625-.02735-.5625-.08203-.5-.125-.4336-.16406-.36719-.1914-.29297-.21094-.21484-.22266-.1289-.22656-.04688-.22266.04687-.22266.1289-.21093.21485-.1914.29297-.16407.36719-.125.4336-.08203.5-.02735.5625h-.83593l.03906-.59376.11328-.57812.17969-.54688.24219-.49219.30078-.41796.17187-.17579.1836-.15234.1953-.1211.21095-.08984.21875-.05469.22656-.01953m5.09375 0h.50781v6.29688h-.78516v-4.49219h-1.39062v-.55469l.5625-.0625.25-.05468.23047-.08985.20312-.14062.17578-.21094.14063-.29297.10547-.39844m2.82422 2.17579h.78515l.01953-.31641.0586-.28516.10156-.2539.14063-.21485.17968-.17187.22266-.1289.26562-.08204.3086-.02734.23828.02343.22266.0625.20312.10157.17969.13671.14844.17188.11328.20703.07422.23438.02343.26562-.02344.26953-.0625.22266-.11328.19531-.15234.16797-.20313.16406-.24609.16406-.63281.39063-.53906.3125-.4375.3164-.34766.32423-.26172.33593-.1914.35156-.125.3711-.06641.39062-.02344.42188h4.21094v-.74219h-3.33203l.08594-.28515.11328-.23438.14843-.20313.1875-.17968.23047-.17188.27735-.17578.71875-.41406.41406-.20703.34375-.23047.28125-.25.21875-.26953.16406-.27735.11328-.28515.0625-.28516.01953-.28125-.03906-.38281-.1211-.34766-.1914-.3086-.25-.26171-.30078-.21094-.34766-.16015-.3789-.09766-.40625-.03516-.4336.03516-.39843.09766-.35547.16796-.30469.23438-.25.30078-.1836.375-.11718.44531-.03906.51954"/></g></defs><use xlink:href="#as"/></svg>