<svg xmlns="http://www.w3.org/2000/svg" role="img" xmlns:xlink="http://www.w3.org/1999/xlink" viewBox="142.45 309.95 326.84 171.84"><defs><clipPath id="a"><path d="M144 311.67188h324v168.65625H144zm0 0"/></clipPath><clipPath id="b"><path d="M144 479h4v1.32813h-4zm0 0"/></clipPath><clipPath id="c"><path d="M147 479h3v1.32813h-3zm0 0"/></clipPath><clipPath id="d"><path d="M146 479h2v1.32813h-2zm0 0"/></clipPath><clipPath id="e"><path d="M153 479h8v1.32813h-8zm0 0"/></clipPath><clipPath id="f"><path d="M160 479h3v1.32813h-3zm0 0"/></clipPath><clipPath id="g"><path d="M159 479h2v1.32813h-2zm0 0"/></clipPath><clipPath id="h"><path d="M166 479h9v1.32813h-9zm0 0"/></clipPath><clipPath id="i"><path d="M173 479h3v1.32813h-3zm0 0"/></clipPath><clipPath id="j"><path d="M180 479h8v1.32813h-8zm0 0"/></clipPath><clipPath id="k"><path d="M187 479h3v1.32813h-3zm0 0"/></clipPath><clipPath id="l"><path d="M186 479h2v1.32813h-2zm0 0"/></clipPath><clipPath id="m"><path d="M193 479h8v1.32813h-8zm0 0"/></clipPath><clipPath id="n"><path d="M200 479h3v1.32813h-3zm0 0"/></clipPath><clipPath id="o"><path d="M207 478h8v2.32813h-8zm0 0"/></clipPath><clipPath id="p"><path d="M213 478h3v2.32813h-3zm0 0"/></clipPath><clipPath id="q"><path d="M212 479h3v1.32813h-3zm0 0"/></clipPath><clipPath id="r"><path d="M220 479h8v1.32813h-8zm0 0"/></clipPath><clipPath id="s"><path d="M226 479h4v1.32813h-4zm0 0"/></clipPath><clipPath id="t"><path d="M226 479h2v1.32813h-2zm0 0"/></clipPath><clipPath id="u"><path d="M233 478h8v2.32813h-8zm0 0"/></clipPath><clipPath id="v"><path d="M240 478h3v2.32813h-3zm0 0"/></clipPath><clipPath id="w"><path d="M239 479h2v1.32813h-2zm0 0"/></clipPath><clipPath id="x"><path d="M246 478h9v2.32813h-9zm0 0"/></clipPath><clipPath id="y"><path d="M253 478h3v2.32813h-3zm0 0"/></clipPath><clipPath id="z"><path d="M260 478h8v2.32813h-8zm0 0"/></clipPath><clipPath id="A"><path d="M266 478h4v2.32813h-4zm0 0"/></clipPath><clipPath id="B"><path d="M273 478h8v2.32813h-8zm0 0"/></clipPath><clipPath id="C"><path d="M279 479h2v1.32813h-2zm0 0"/></clipPath><clipPath id="D"><path d="M287 478h7v2.32813h-7zm0 0"/></clipPath><clipPath id="E"><path d="M292 478h2v2.32813h-2zm0 0"/></clipPath><clipPath id="F"><path d="M300 478h8v2.32813h-8zm0 0"/></clipPath><clipPath id="G"><path d="M314 477h6v3.32813h-6zm0 0"/></clipPath><clipPath id="H"><path d="M328 476h5v4.32813h-5zm0 0"/></clipPath><clipPath id="I"><path d="M342 476h4v4.32813h-4zm0 0"/></clipPath><clipPath id="J"><path d="M356 476h2v4.32813h-2zm0 0"/></clipPath><clipPath id="K"><path d="M367 478h7v2.32813h-7zm0 0"/></clipPath><clipPath id="L"><path d="M382 479h3v1.32813h-3zm0 0"/></clipPath><clipPath id="M"><path d="M393 478h8v2.32813h-8zm0 0"/></clipPath><clipPath id="N"><path d="M409 476h3v4.32813h-3zm0 0"/></clipPath><clipPath id="O"><path d="M420 477h7v3.32813h-7zm0 0"/></clipPath><clipPath id="P"><path d="M434 477h6v3.32813h-6zm0 0"/></clipPath><clipPath id="Q"><path d="M449 476h2v4.32813h-2zm0 0"/></clipPath><clipPath id="R"><path d="M462 476h3v4.32813h-3zm0 0"/></clipPath><clipPath id="S"><path d="M144 466h4v2h-4zm0 0"/></clipPath><clipPath id="T"><path d="M144 453h4v2h-4zm0 0"/></clipPath><clipPath id="U"><path d="M144 439h4v2h-4zm0 0"/></clipPath><clipPath id="V"><path d="M144 426h4v2h-4zm0 0"/></clipPath><clipPath id="W"><path d="M466 425h2v2h-2zm0 0"/></clipPath><clipPath id="X"><path d="M144 413h4v2h-4zm0 0"/></clipPath><clipPath id="Y"><path d="M466 411h2v3h-2zm0 0"/></clipPath><clipPath id="Z"><path d="M465 412h3v3h-3zm0 0"/></clipPath><clipPath id="aa"><path d="M144 399h4v3h-4zm0 0"/></clipPath><clipPath id="ab"><path d="M466 398h2v3h-2zm0 0"/></clipPath><clipPath id="ac"><path d="M465 398h3v3h-3zm0 0"/></clipPath><clipPath id="ad"><path d="M144 386h4v2h-4zm0 0"/></clipPath><clipPath id="ae"><path d="M466 384h2v3h-2zm0 0"/></clipPath><clipPath id="af"><path d="M144 372h4v3h-4zm0 0"/></clipPath><clipPath id="ag"><path d="M466 371h2v3h-2zm0 0"/></clipPath><clipPath id="ah"><path d="M144 360h4v1h-4zm0 0"/></clipPath><clipPath id="ai"><path d="M466 359h2v3h-2zm0 0"/></clipPath><clipPath id="aj"><path d="M144 346h4v2h-4zm0 0"/></clipPath><clipPath id="ak"><path d="M466 346h2v3h-2zm0 0"/></clipPath><clipPath id="al"><path d="M144 331h3v6h-3zm0 0"/></clipPath><clipPath id="am"><path d="M466 332h2v3h-2zm0 0"/></clipPath><clipPath id="an"><path d="M144 316h2v9h-2zm0 0"/></clipPath><clipPath id="ao"><path d="M466 318h2v2h-2zm0 0"/></clipPath><clipPath id="ap"><path d="M465 318h3v3h-3zm0 0"/></clipPath><g id="aq" clip-path="url(#clip1)"><path fill="#fff" fill-opacity="0" fill-rule="evenodd" d="M0 0h1000v1000H0zm0 0"/><path fill="#d3d3d3" fill-opacity="0" fill-rule="evenodd" d="M162.15234 355.86719l-.23437.29297.0586.23437.11718.17188.17578.23437.29297.34766.11328.0586.11719-.17188.0586-.23438.17577-.17578.46485-.17578h.69922l.23437.29297.28906.8164.0586.17579.17578.23046.35156.23438.69922.69922.17188.17578.23437.34765.23438.41016.28906.58203.41015.46485.23047.23437.23438.17578.11719.23047.17578.29297.17187 1.16406v.23438l.0586.28906.05859.11719.11719.11719.34765.41015.11719.17188.17578.17578.17578.23437.11719.17188.17188.35156.05859.23438.23437.40625.23438-.0586-.17578.17578-.0586.92969h-.58203l-.23437-.11328-.34766.11328-.11719.11719-.05859.29297-.0586.17578-.11718.17187-.46484.29297-.0586.23438-.0586.11328v.64453l.0586.17187v.41016l.0586.0586v.40624l.05859.40625.11719.17579.05859.05859.23047.64062-.0586.29297v.69922l-.05859.58203v.23438l-.0586.23047-.05468.35156v1.92187l.05469.1172h.42578l-.36719.11718-.02344.35156.89063 1.16797 1.74219.53906 1.33984.35938v.53906l.08984.8086.53516.71484 1.51953.26953.89063-.08594.08984 1.16406.53516.1797 1.16015-.1797 2.05469-.98437 1.16016-.36328 1.8789-.17578 1.69531-.1797-.17968.71876-1.51563.08594-1.25.08984-.80469.26953-1.07421.8086.26953.71875.53515.89843-.17968.625-.26563.8086.26563 1.07812.625.89844.80468.17969 1.25-.1797-.26562.72267.09766.5039.05468.29297v.17188l.0586.29296v.40625l.17578.1172.35156.11718h.40625l.29297-.17578.11328-.11719.0586-.11719.11718-.23047.0586-.17578.35156-.46484.23047-.17578.17578-.0586.17578.0586.0586.17578.11718.98828.05469.46875.0586.17188.11718.23437.17578.0586.8164.05859h.28907l.11719.23437.05859.40625.0586.35156v1.10547l.11718.29297.11719.34766.28906.69922.17578.35156.58203.7539.35157.17579.17187.0586.46875.23437.64063.46484.34765.23438.29297.17578.29297.05468.23047.0625.8164.34766.29297.17578.11328.17188.35157.35156.11719.17578.52343.64063v.28906l.0586.35156v.34766l.05859.35156.0586.28906.11718.0586.17188.05859h.17578l.58203.23437.17578.1172.17578.28905.17578.23438.11328.23437.29297.23047.11719.11719v.41016l.0586.05468.28906.23438.23437.11719.0586.11718.11718.17188.0586.11719.23047.23437.05859.17578.23437.0586.1172.05859-.1172.11328-.05859.11719v.11719l-.11719.29296-.11719.28907v.58203l.17579.11719.11718.05859.0586.11719.11719.11719.11328.05859.17578.34765.0586.35157.05858.40625v.17578l-.05859.17578-.11719.69922v.17187l.1172.17579.29296.29296h.40625l.17578.1172.11719.17187.11719.29296v.23438h-.52735l-.23047-.23438h-.23437l-.17578.0586-.0586.69922.0586.34765.11719.17579.17578.41015.11718.23047.28907.46875.17578.05469h.52344l.23437.0586.75781.64062.0586.29296v.23438l.05859.0586.23047.34765v.35156l-.11719.17188v.29297l.29297.28906.29297.17578.17187.0586.29297.17577.29297.1172.58203.40624.28906.23438.29297.17578.21875.16015.01563.01172.23047.17579.64062.52343.17578.23438.1172.17578.17577.17578.11328.17188v.64062l.1172.17578.46874.11719.58203.11719.23438.05859.23047.11328.29297.11719.11328.0586.58593.35156.28907.17187.17578.0625.17578.05469.17578.0586.69922.35155.28906.17579.23438.05468.28906.17578.23437.1172.64063.40624.29297.11719.17187.0586.23438.05859.41015.05859.23047.0586.23438.11718.0586.17188-.41017.17578.46875.0586.0586.29296.11328.23438.17578.05468.23438.0586.17578.05859.40625.11719.64062.23437.11719.17188.0586.23437v.17578l-.0586.1172-.0586.40624.23438.23438.11719.05859.34766.11719.64062.23047.17578.11718.28906.1172.17578.17577.23438.46485.58203 1.10546.17578.17579.34766.17578.17578.11719.35156.11718 1.04688.52344.23437.0586.46485.11327.29297.0586.46484.17578.75781.58203.23438.23438.34765.46484.17578.17578.28907.23438.8164.69921.29297.17579.28906.28906.29297.17578.29297.28906.69531.64063.17578.17578.29297.23437.28907.23438.46875.28906.64062.58203.34766.23438.23437.29297.34766.34765.35156.46485.9336.99218.34765.40625.11719.17579.23437.05859.11328.11719.64454.17578.23047.11328.23437.0586.29297.17577.23047.1172.9336.69921.40624.40625.23438.17578.40625.17578.23437.11719.8164.34766.34766.23437.23438.11719.29297.28906.23047.11719.7578.35156.35157.17188.23047.05859.29297.11719.23437.0586.8711.17577h.8164l.46875.23047.17188.0586.875.69921.46484.1172.29297.05858.17578.0586.23047.0586.46875.05859.34766.05859.35156.0586.40625.05859h.29297l.17187.0586v.23046l.17578.17578h.29297l.34766.0586.35156.05859.69922.11719h.64063l.46484-.23438.29297-.17578.17187-.11719.41016-.17187.28906-.17578.9336-.46485.46875-.29297.52343-.29296.46485-.17188.46484-.17578 1.05078-.46485.28906-.11718.41016-.11719.28906-.11719.52735-.17578 1.51562-.69922.58203-.34765.28907-.0586.29297-.0586.34765-.11718.875-.23047.35156-.11719h.11329l.23437-.05859.875-.23437.23438-.0586h.8125l.35156-.0586.8164-.11718.17188-.0586.35156-.05468.29297-.0586.23047-.05859.8164-.17578.17579-.0586h.34765l.23438-.05859.46484-.11718.75781-.17188.23438-.0586h.34765l.41016-.11718.28906-.0586 1.28516-.05859h.28906l.41016-.0586.23047-.05858h.17578l.875-.1172h.40625l.41015-.11718h.34766l.35156-.11328.8711-.0586h1.75l1.04687.28907.41016.11719.28906.11718.35156.11719.28907.11719 1.05078.17187.28906.0586h.29297l.29297.05859.17187.0586.41016.05859.17187.0586.1172.05858h.11718l.11719.0586.35156.0586h.11328l.41016.0664 1.92187.39453 1.92578.39453 1.51953.44922 1.69532.71875 2.14453.80469 1.60547-.71875 1.42968-.80469 1.16016-1.07813 1.25-.44921 3.03516-.71875 1.875-.35938 2.14453-1.34765 2.23437-1.25391 2.5-1.25781 1.69531-.44922 1.78516-.17969 1.16016-.26953.625.53906 1.33984-.26953.71485-.98828.98437-1.34375.44531-.17969.80469-.35937 1.875-.53907 1.78516-.44921 1.25-.26954 1.16015-.08984 1.69922-.08984 1.96094-.26954 1.25-.08984h.53906l.625-.08984h.89063l2.14453-.17969 2.41015-.17969 2.58985-.08984 1.69531.17969 1.60938.08984 1.42968.35938 1.16016.71875 1.875.98828 1.16015 1.52734.26563.71484.6289.08985.35548.89844.53515.53906.53516 1.52734 1.07422.35938h.53515l-.80469.53515.08985 1.70703.71484 2.69532.89063.80468.89453.98829.71484 1.2578 1.78516.53907 1.51953-.17969.35547 1.34375 1.60937-.80469.98047-.53906.26953.26953.31641-.21484.21875-.14453.80078.44922.44922-.35938h.35547l.53515-.26953.53907-.71875.53515-.26953.625-.98828 1.16016.44922.83984.3711 1.39454.61718 1.6953-.17969h1.60548l1.78515.08985.17969-1.70704.53516-1.34375.80468.26954.4922.84765.40233.40625-.08984.53906v.35938l.71485.44922.71093-.26953h1.42969l.35938.98828.4453 1.25781.71485 1.34375 1.25.6289 1.69531.62891.71485-.17969.17969-.53906.98046-.08984.44922.35937.08594 1.25782-.26563.6289-.53515.17969v.53906l.71484.98438.26563.53906.98437.98828.80078 1.07813-.26562.35937-.08985.89844-.625 2.33203-.35546 2.0664-.08985 1.79298-.17969.71875-.08984.53906v1.4375l-.98047 1.88281-.35937 1.70703-.53516.89844-.80469 1.16797-.26562.53906 2.05469 1.2539.08593.35938-.35546.53906-.08985-.17968v.80859l.08985 1.4375-.44532.71484-1.07422.09375-.26562.71485.53515.89844.8047.71875 1.16015.80859 1.33984.26953.44531.35938-.35546.44921-1.78907-.08984-1.25-.44922-.71484-.71875-.625-.08984-.17578 3.58984-.1875 1.3086h89.35937V311.70313h-55.26953v49.08203l.76172.125 3.28906.54296 2.02344 2.83594v2.7539l2.35156.33204 2.34766.33203h4.05078l-1.3789 4.16016-2.02344.70703-2.02344.70312-.54297.34375-2.59375 1.6172-.1875.11718-2.02344-2.07813-.73046-2.74218-2.67188-2.07813-1.375-3.5-.0664-.08203-1.95704-2.67188 2.75-1.41796v-49.08204H294.42187v91.41407l.1172.03125.1328.01172.07422.07421.10547.04688.08985.0586.08593.05859.08985.0586.29687.29687.0586.08984.03125.11719.02734.11719.01563.13671-.03125.1172-.0586.08983-.0586.08594-.04296.10547-.04688.10156-.02734.1211v.14453l.17578.26953.14844.14844.07422.08594.07422.07421.04296.10547.0625.08985.0586.08593.04297.10547.0586.08985.04687.10156.04296.10547.0586.08594.11719.17968.07421.07422.0625.08594.0586.08984.04297.10547.0586.08985.05858.08593.0625.08985.0586.08984.04297.10156.11719.17969.07421.07422.0586.08594.07422.07421.08984.0586.10547.04687h.14844l.1328-.01562.13282.01562.10156-.04687.07422-.07422.04688-.10156-.01563-.13281v-.14844l-.04687-.10547-.02735-.11719-.04687-.10156-.02735-.1211-.04296-.10156-.0625-.08984-.04297-.10156-.04297-.10547-.03125-.11719-.01563-.13281-.01171-.13672.08593-.0586.0586-.08593.12109-.03125.04297.10547.01562.1328v.1172l.0586.10156.0586.08984.08983.0586.14844.14843.0586.08985.04296.10547-.01171.10156.08593.0586.10547.04687.08594.0586.08984.05858.07422.07422-.11719.02735-.10546.04687-.08594.0586-.07422.07421-.0586.08985-.0625.08594-.02734.12109-.04687.10156-.04297.10547-.03125.11719-.01172.13281-.01563.13281v.14844l.02735.11719.04687.10547.04297.10156.0586.08984.07421.07422.08985.0586.07422.07421.08984.0586.0586.08984.04296.10547.04688.10156.11719.03125.1328.01563h.14845l.11718-.03125.10547.04297.04297.10547.04688.10156.02734.1211L299.5 410l.02734.11719.03125.1211.02735.11718.10547.04297.10156.04687.13281-.01562.14844.14844.0625.08593.07422.07422.07031.07422.08984.0625.10547.04297.10156.04297.1172.03125.13671.01562.11719-.03125.07422-.07422.02734-.11718-.01172-.13282-.03125-.12109-.02734-.11719.04297-.10547h.11719l.08984.0625.11719.02735h.14843l.13282.01562h.14843l.13282.01563.1328-.01563h.14845l.1328-.01562.13282-.01172.13672.01172.11719-.02735.13281-.01562.1914-.0586-.05859.17579-.01562.1328-.02735.1211-.01562.13281-.0586.08594-.1328.01563-.10548.04687-.10546.04297-.1172.03125-.11718.02735-.26563.03125h-.14843l-.13281.01562-.07422.07422.05859.08594.14844.14843.11719.1797.07421.0703.08985.0625.08984.0586.08594.0586.08984.05858.10156.04297.10547.0625.10547.04297.08594.0586.10547.04687.10156.04297.17969.11719.0586.08984-.04298.10156-.04687.10547.01562.13281.22266.22266.0586.08985.04296.10156.03125.1211.04297.10155.01563.13282.03125.11718.01171.13672.03125.11719.14844.14844.10156.04297.10547.04296.1172.03125.1328.01563.13672.01563h.11719l.11719-.03125.08984-.0586.04297-.10547.04688-.10156.04296-.10547.03125-.11719.01172-.1328v-.14845l-.01172-.1328-.01562-.13282-.03125-.11719-.04297-.10547-.04688-.10547-.04296-.10156-.04297-.10547-.01563-.13281.01563-.13281.02734-.11719.03125-.11719.02735-.1211.04687-.10155.08984-.0586.08594-.0625.07422-.07422.08984-.05859.22266-.22266.0586-.08593.07421-.07422.11719-.17969.0586-.08594v-.14844l-.07423-.07421-.10156-.04688-.10547-.04297-.10156-.04297-.0586-.08984-.04687-.10547-.02734-.11719.08984-.05859.11719-.03125.10156-.04297.17969-.11719.14844-.14843.01172-.13282-.01172-.10546-.08985-.0586-.1328.01563h-.14845l-.1328.01562-.13282-.01562-.1211-.03125-.08593-.0586-.07422-.07422-.0586-.08984-.0625-.08594-.11718-.17969-.0586-.08593.03125-.1211.08594-.05859.1211-.03125.05859-.08594v-.1211l-.03125-.11718-.0586-.08984-.05859-.08594-.04687-.10547-.02735-.11719-.01562-.1328.0586-.08985.07421-.07422.08984-.0586.1172-.17968.07421-.07422.0586-.08594.14843-.14844.1211-.03125.1328-.01562.13282.01562.07422.07422.04297.10547.01562.13281-.03125.1172-.11719.03124-.1328.01172-.14844.14844-.04297.10547-.04688.10156-.02734.1211-.03125.11718v.14844l.03125.11719.04297.10546.05859.08985.07422.07031.07422.07422.11719.03125.12109.02734.11719-.02734.1328-.01563h.1172l.08984.0586.07422.07422.04687.10546.0586.08594.10156.04688.13281.01562.10547.04297.08594.0586-.01172.10546-.07422.07422-.17969.11719-.05859.08984-.08984.0586-.07032.07422-.07421.07421-.0625.08985-.02735.11719-.01562.1328.01562.13282-.01562.13281v.14844l.01562.13281.02735.1172.03125.12108.07421.07422.08985.0586.08594.0586.08984.05858.11719.03125v.08594l-.10157.04688-.08984.0586-.26563.03124-.11718.02735h-.14844l-.10547.04296-.10156.04688-.0586.08984-.0625.23438-.01171.13281-.03125.1211-.01563.1328v.29298l-.01172.1328.01172.13673.01563.1328.1328.01563.13282.01172.1211.03125.08593.0586.07422.07421.04688.10547.04296.10157.01563.1328v.44532l-.01563.13281v.44532l.03125.26562.02735.11719.01562.13281.03125.11719.08594.21094.03125.26562v.14844l-.03125.11719-.02734.11718-.03125.1211-.02735.11719-.03125.11718-.03125.1211-.01171.1328-.01563.13282.08984.0586.1172-.03125.10155.01562.04688.10547-.03125.26562v.44141l-.04297.10547-.04688.10547-.04296.10156-.04297.10547-.0586.08594-.03125.12109-.04296.11719-.03125.11719-.01563.1328.01563.13282.05859.08984.10547.04688.08594.0586.05859.08593-.01172.13672-.03125.11719-.04297.10156v.44531l-.01562.13281v.14844l-.03125.11719-.04297.10547-.02735.11719-.04687.10546-.04297.10157-.03125.12109-.02734.11719-.03125.13281-.03125.11719-.02735.11719-.04297.10546-.03125.1172-.03125.12108-.01171.13282-.01563.13281v.29688l.02734.11718v.14844l.04688.39844.02734.11719.0586.08984.12109.03125h.14844l.13281-.01563.0586.08985v.11719l-.0586.08984-.08984.0586-.10157.04296-.10546.04688-.08985.05859-.08594.0586-.13671.01562-.1172-.03125-.1328-.01563-.10157.04688-.0625.08594-.01172.13671-.01562.13282-.03125.11719-.02735.11718-.01562.13281-.03125.1211v.29687l.01563.13282.03125.11718v.14844l.01171.13281v.14844l-.02734.11719-.04688.10156-.02734.1211-.03125.11718-.0586.08985-.07421.07421-.10156.04297-.10547.04688-.11719.02734-.1211.03125-.10156-.04687.0586-.08594.10547-.04688.02734-.11718.03125-.11719.02734-.1211.03125-.11718v-.14844l.01563-.13281-.03125-.11719-.04297-.10547-.10547.01563-.07422.07422-.10156.04296-.08984.0625-.07422.07422-.04297.10157-.01563.1328-.03125.1172L304.25 426l-.03125.11719-.02734.11719-.03125.12109-.02735.11719-.03125.11718-.04297.10547-.08984.0586h-.08984l-.1172-.03125-.03124-.08594.01562-.13672-.03125-.11719v-.14844l-.01171-.1328v-.14844l-.0625-.23438-.02735-.1211-.04297-.10156-.04687-.10546-.0586-.08594-.05859-.08985-.04297-.10546-.0625-.08594-.14844-.14844-.0703-.07422-.10548-.04687-.10547-.04297-.10156-.04297-.29687-.29688-.08985-.07421-.08594-.0586-.10546-.04297-.08985-.0625-.08594-.0586-.10546-.04296-.08985-.0586-.08594-.0625-.07421-.0703-.10547-.04688-.08594-.0586-.10547-.04296-.08984-.0625-.10156-.04297-.10547-.04297-.08594-.0586-.10547-.04687-.10547-.04297-.10156-.04687-.08985-.0586-.10156-.04297-.10547-.04296-.08984-.0625-.11719-.02735-.13281-.01562-.13281.01562H299.75l-.13281.01563-.11719-.03125-.08984-.0586-.07422-.07422-.08985-.05859-.10156-.04688h-.14844l-.12109-.02734-.10156-.04297-.07422-.07422-.11719-.17968-.08984-.0586-.10156-.04297-.08985-.0625-.10547-.04296-.08984-.0586-.08594-.0586-.10547-.04687-.0586-.08594-.05858-.08984-.04297-.10547-.04688-.10156-.07422-.07422-.08594-.0586-.07421-.07421-.08985-.0586-.22265-.22265-.04297-.10547-.03125-.26563.10547-.04296h.14453l.10547.04296.07421.07422.08985.0586.08594.0586.10546.04687.08985.05859.14844.14844.0703.07422.14845.14843.0625.08594.07421.07422.08594.0586.07422.07421.08985.0625.08984.0586.08594.05859.26953.17578.10156.04688.10547.04296.10156.04297.04688-.07421.05859-.08594.07422-.07422.07031-.07422.10547.04297.07422.07422.0586.08984.04296.10156.04688.10547.04296.10547.1211.02735.11719-.02735.07421-.08984.04297-.10547.0586-.08985.07422-.07421.10546-.04297.1172-.02735.1328.01172.08985.0586.14844.14843.05859.08985.04297.10547.04687.10156.04297.10547.04297.10156.10547.04688.10547.04296.13281.01563.08594-.0586.0586-.08984.07421-.07422.10547-.04297.11719.02735.10547.04687.10156.04297.10547.04297.10156.04688.17969.11718v.11719l-.01563.13281.01563.13281.01562.13672.0586.08594.10156.04688.1211.02734.11718.03125h.14844l.11719-.03125.05859-.08984.17969-.1172.05859-.08983.07422-.07422.0586-.08594.11718-.17969.17969-.11719.11719.03125.08984.0586.04297.07422-.01563.1328v.1172l.08985.05859h.14843l.13282-.01563.1328-.01171.26563-.03125.10547-.04297.11719-.03125.1211-.02735.07421-.07421.07031-.07422.0625-.08985-.01562-.10547-.04688-.10156-.10156-.04297-.10547-.01562-.11718.02734-.26563.03125h-.14844l-.07421-.07422-.08985-.0586-.11719-.03124-.11718-.02735-.13282-.01562h-.14843l-.13282.01563h-.29687l-.10547-.04688-.14844-.14844-.04297-.10156-.05859-.08984.22266-.22266.08593-.0586.10547-.04296.11719-.03125.13281-.01563.13281.01563.13672.01562.10157.04297.1328-.01172.08985-.0625.10156-.04297.0625-.08984-.04687-.10156-.08984-.0586-.1172-.03125-.10155-.04296-.0586-.08985-.0625-.08984v-.11719l.01563-.13281.10547-.04688.07421-.07031v-.1211l-.08984-.05859-.03125-.11719.08985-.05859.07421-.07422.04297-.10547.0586-.08984.04687-.10156.01563-.13281v-.14844l-.04688-.10547-.04297-.10156-.08984-.0586-.13281-.01562-.10157-.04297-.13671-.01563-.1172-.03125h-.4453l-.13282-.01562-.13281-.01172-.13281-.01563-.11719-.03125h-.14844l-.13281-.01562-.13281-.01172-.26563-.03125-.1211-.04297-.08593-.0586-.07422-.07421v-.14844l.01172-.13281.10547-.04688.10156-.04296.13281-.01563h.15235l.13281-.01562h.29297l.1211.03125.10156.04296.08984.0586.23438.0625.12109-.04688.08984-.05859.10156-.04297.13282-.01562.10547.04296.10156.04688.13281.01172.1211-.02735h.14453l.12109-.03125.11719-.02734.10547-.04687.07421-.07422.08594-.0586.14844-.14843.0586-.08594.04687-.10547.02734-.11719.01563-.10547-.10156-.04296-.08985-.0586-.11719-.03125-.10546-.04297-.08985-.0625-.07422-.08594-.07422-.07421-.10156-.04297-.10547-.04688-.10156-.04297-.0586-.08984-.04687-.10156-.08594-.21094-.0625-.08594-.05859-.08984-.07422-.07422-.08594-.0586h-.26953l-.11719.03126-.08984.05859-.10156.04297-.13281.01562-.10547-.01562-.02735-.11719-.0625-.08984-.11718-.03125-.10157-.04297-.14843-.14844-.03125-.11719-.01563-.10546.07422-.07422.17969-.1172.11719-.02733.11718-.03125.13672.01562.10156.04297.10547.04297.10156.04687.10547.04297.1172.03125.1328.01563.1172.02734.1328.01563.10547-.01563.08985-.0586-.07422-.07421-.10547-.04297-.07422-.07422-.07422-.08984-.14844-.14844-.08593-.0586-.08985-.05859-.07422-.07422-.08984-.0586-.10156-.04687-.1211-.02734-.10156-.04688-.10547-.04296-.11719-.03125-.10156-.04297-.1211-.03125h-.14843l-.11719.03125-.10546.04297-.08594.0625-.17969.11718-.08594.0586-.08984.0586-.10547.04687-.08594.05859-.10547.04297-.10156.04297-.10547.04687-.07422.07422-.05859.08985-.0586.08593-.04687.10547-.0586.08594-.07421.07422-.13281-.01172-.1172-.03125h-.11718l-.07422.07422-.08984.0586-.07422.07421-.08984.0586-.08594.05859-.10547.04687-.10156.04297-.13672.01563-.10156-.04297-.14844-.14844-.10547-.04688h-.08594l-.10547.04688-.10156.04297-.1211.03125-.11718-.03125-.07422-.07422v-.11719l.03125-.1211.07422-.0703.0586-.08985.07421-.07422.11719-.03125.10547-.04296h.29297l.13281-.01563.13672-.01563.10156-.04296.08985-.0586.10156-.04687.08984-.0586.13281-.01171.08985.05859.13281.01172.08984-.0586.08594-.05859.10547-.04297.08984-.0586.08594-.0625.08985-.05859.14843-.14843.0586-.08594.05859-.08985.10547-.04296.13281-.01563.11719.02735.1211.03125.05859-.0586.05859-.08984.03125-.26563.02734-.11719.10547.01172.13281.01563.10157-.04297.08984-.0586.0586-.08984.07421-.07422.0586-.08984.04687-.10156.01172-.13281-.01172-.13282-.04687-.10547-.14844-.14843-.0586-.08985-.05859-.08594-.04297-.10546v-.44532l.01563-.1328v-.14845l.01172-.1328-.0586-.0586-.08984.0586-.10156-.04298-.17969-.11719-.08594-.05859-.0625-.08984-.0586-.08985-.07421-.07421-.08594-.0586-.1211.03125-.10155.01172-.10547.04688-.08594.05859-.10547.04297-.14844.14844-.08984.05859-.08594.0586-.08984.0625-.10547.04296-.13281.01563v-.1211l.10547-.04297.11718-.03125.07422-.0703.04297-.10548v-.14844l-.02734-.11718-.14844-.14844-.13281-.01563h-.14844l-.11719.03125-.10547.04297-.10156.04297-.08984.0625-.11719.02735-.07422-.07422.01172-.13281-.04297-.10157-.04297-.10547-.08984-.05859-.11719.02734-.1211.03125-.11718.03125-.10156.04297-.1211.03125-.10156.04297-.10547.04297-.08984.0586-.10156.01562v-.11719l.01562-.13281-.0586-.08985-.07421.04297-.14844.14844-.0586.08985-.07421.07421-.04688.10547-.04296.10156-.07422.07422-.0586.08985-.07422.07422-.05859.08593-.07422.07422-.08984.0625-.07422.07031-.07422.07422-.10156.01563-.13281.01562-.10547-.04296v-.1211l.14843-.14844.04297-.10156.0586-.08984.04687-.10156.04297-.10547.0586-.08985.03124-.11719.04297-.10156.03125-.1211.02735-.11718.04687-.10547.04297-.10156.04297-.10547.07422-.07031.08984-.0625.08985-.0586.10156-.04296h.29687l.26563-.03125.10547-.04297-.07422-.07422-.11719-.03125-.10547-.04297-.08984-.0586-.10156-.04687-.08985-.0586-.10156-.04296-.10547-.04297-.08984-.0625-.08594-.0586-.10547-.04296-.10156-.04297-.1211-.03125-.11718-.03125-.10157-.04297L297.5 410.25l-.10156-.04297-.08985-.0586-.04296-.10546-.01563-.13281.10156-.04297.13281-.01563.13672.01563.13282-.01563.10156-.04297.0586-.08984.01562-.10547-.08985-.0586-.07421-.07421-.10157-.04297-.08984-.0586-.14844-.14843-.04297-.10547-.01562-.13281v-.29297l-.0586-.08985-.08984-.05859-.07422-.07422-.04297-.10547-.03125-.11718-.0586-.08985-.07421-.07422-.11719-.02734-.07422-.07422-.08984-.0586-.08984-.0625-.08594-.05859-.07422-.07421-.0586-.08594-.04687-.10547-.08594-.0586-.14843-.14843-.19532-.0586-.1328.01563-.10157.04297-.07422.07422-.04688.10156-.04296.10547-.0586.08984-.0586.08594-.29687.29687-.08984.0586h-.08594l-.0625-.08594-.04297-.10547.03125-.11719.0586-.08984.02734-.11719-.01172-.13281-.08984-.0625-.10547.04688-.11719.02734-.11719.03125-.26953.17578-.10156.04688-.11719.02734-.10546.04687-.08985.0586-.10156.04297-.0586-.08594-.04687-.10547.01563-.13281.04687-.10547.07031-.07422.07422-.07031.0586-.08985v-.14843l-.04297-.10547h-.23829l-.10156.04687-.03125.11719-.02734.11719-.03125.1211-.07422.04296-.13281.01563-.07422-.04688-.04297-.10156-.04297-.10547-.04687-.10156-.04297-.10547-.1211.03125-.10156.04297-.13281.01562-.11719.03125-.10547.04297-.08984.0586-.10156.04687-.1211.02734-.13281.01563-.10156-.04297-.0586-.08985-.04687-.10546-.04297-.10157-.04297-.10546v-.1172l.0586-.08984.08593-.05859.17969-.11719.10156-.04687.10547-.04297.10547-.0586.10156-.04296.08985-.0625.10156-.04297.10547-.0586.10156-.04687.08984-.0586.10547-.04296.10156-.04297.08985-.0625.10156-.04297.13672-.01563.11719.03125.10156.04297.1211.03125.10156.04297.10546.04688.10157.04296.10547.04297.10156.04688.10547.04297.10156.04297.10547.04687.08594.0586.10546.04296.1172.03125.10546.04297.10156.04688.08985.0586.10547.04296.10156.04297.10547.04687.11719.02735.10156.04687.1211.02735h.14843l.08594-.0586.01562-.10156.0586-.08984-.02735-.1172-.07422-.07421-.11719-.17969-.07421-.07422-.08985-.07421-.17969-.1172-.08593-.05859-.10547-.04296-.10156-.04688-.26954-.17578-.05859-.08985-.07422-.07421-.0586-.08985-.04296-.10156-.03125-.11719-.01563-.13672v-.5625l-.01171-.1328-.01563-.13282-.03125-.11719-.01562-.13281-.01172-.13281-.03125-.1211-.22266-.22265-.0586-.08594-.01562-.10547.03125-.11719.13281-.01562v-91.41406H172.9922v1.45312l-.0586.23438-.35156 1.05078-.17187.52343-.1172.34766-.17577.41016-.11719.17187-.23438.29297-.23046.0586h-.35157l-.11718.05859-.23047.40625v.29297l.11719.17578.23046.23047.1172.23437.64062.75781.29297.46485.17578.23437.23047.35156.23437.34766.64063.8164.17578.46485.17187.41016.11719.69531.17578.46875.11719 1.39844.0586.46484v.875l.11718 1.04688v4.78125l-.0586.46484-.35156 1.28125-.17578.52344-.11328.41015-.35156.9297L172.93359 336l-.23437.58203-.11719.17578-.17187.34766-.17578.40625-.35157.8164-.0586.29297-.11327.29297-.11719.28906-.0586.17579-.11718.875-.0586.40625-.05859.11718-.0586.17579-.05859.17187-.23047.52734-.11718.17188v.23437l-.11719.23438-.0586.17187-.17577.58594v.28906l-.0586.17579v.29296l-.0586.11329-.05859.52734v.17187l-.05468.23438v2.6211l-.17578.8164-.1172.17578-.17577.23438-.1172.17187-.11327.23438-.58594.93359-.23047.28906-.29297.46485-.17578.23437-.28906.35156-.35156.69922-.11328.23047-.17579.41016-.17578.23046-.40625.52735-.8164.69922-.29297.17187-.28906.23438-.17579.11719-.17578.17578-.52344.40625-.52734.17578-.17187.17578-.23438.05469-.64062.17578h-.75782m12.21094 31.02344l-1.07422.44921.35938.89454 1.25-.71485.44531-.53906-.98047-.08985"/><path fill="#d3d3d3" fill-opacity="0" fill-rule="evenodd" d="M201.50781 416.59766h-.89453l.44922.6289.98047.35938.80469-.08985.4453-.98828-.17577.08985-.71485-.35547-.89453.35547m154.6211 59.0703l-.0586-.52343v-.29297l.11328-.29297.0586-.23046.46875-.46875h.11328l.11719-.11329.11718-.05859h.17579l.23437-.0586h.34766l.23437.0586.11719.0586.23047.17187.0586.17578.11718.58203v.29297l-.11719.17578-.17187.28906-.17579.17579-.52734.52343-.23047.23438-.11719.0586h-.17578l-.11718-.0586-.40625-.29297-.17579-.11719-.11718-.0586-.0586-.11327-.05468-.1172m6.64062-10.95702l-.0586-.17188v-1.10937l.0586-.17188.17578-.0586.17188-.05858h.17578l.23437-.0586.1172.0586.05858.69921-.05859.17188-.11719.17578-.11718.0586-.23438.52343-.11328.0586h-.23438l-.05859-.1172m9.61328-14.39062l-.11719-.17578v-.69922l.29297-.875.1172-.17187.17577-.35156.11328-.23047.1172-.29297.35155-.75781.1172-.23047.17187-.23438h.17578l.11719-.0586h.64062l.11719.0586.23437.23438.17188.11328.35156.29297.11719.11718.11328.17579v.11328l.11719.05859.11718.11719v.69922l-.05859.17578v.23047l-.0586.17578-.34765 1.05078-.11719.23047-.11719.23437-.11718.0586-.23047.23437-.64063.28906h-.875l-.41015-.11718-.64063-.46485"/><path fill="none" stroke="#bebebe" stroke-linecap="round" stroke-linejoin="round" stroke-miterlimit="10" stroke-width=".5" d="M467.95703 311.69531H144.02734v168.625h323.9297v-168.625"/><g clip-path="url(#a)"><path fill="#fff" fill-opacity="0" fill-rule="evenodd" d="M144 311.67188v168.65625h324V311.67188H144"/></g><g clip-path="url(#b)"><path fill="none" stroke="#000" stroke-linecap="round" stroke-linejoin="round" stroke-miterlimit="10" stroke-width=".5" d="M147.48047 479.84766l-6.96094.96093"/></g><g clip-path="url(#c)"><path fill="none" stroke="#000" stroke-linecap="round" stroke-linejoin="round" stroke-miterlimit="10" stroke-width=".5" d="M147.48047 479.84766l1.4375 1.98828"/></g><g clip-path="url(#d)"><path fill="none" stroke="#000" stroke-linecap="round" stroke-linejoin="round" stroke-miterlimit="10" stroke-width=".5" d="M146.46875 479.98828l.71875.9961"/></g><g clip-path="url(#e)"><path fill="none" stroke="#000" stroke-linecap="round" stroke-linejoin="round" stroke-miterlimit="10" stroke-width=".5" d="M160.69531 479.3711l-6.76172 1.91796"/></g><g clip-path="url(#f)"><path fill="none" stroke="#000" stroke-linecap="round" stroke-linejoin="round" stroke-miterlimit="10" stroke-width=".5" d="M160.69531 479.3711l1.69922 1.76952"/></g><g clip-path="url(#g)"><path fill="none" stroke="#000" stroke-linecap="round" stroke-linejoin="round" stroke-miterlimit="10" stroke-width=".5" d="M159.71094 479.64844l.85156.88672"/></g><g clip-path="url(#h)"><path fill="none" stroke="#000" stroke-linecap="round" stroke-linejoin="round" stroke-miterlimit="10" stroke-width=".5" d="M174.08203 479.67969l-6.90625 1.29687"/></g><g clip-path="url(#i)"><path fill="none" stroke="#000" stroke-linecap="round" stroke-linejoin="round" stroke-miterlimit="10" stroke-width=".5" d="M174.08203 479.67969l1.53516 1.91797"/></g><g clip-path="url(#j)"><path fill="none" stroke="#000" stroke-linecap="round" stroke-linejoin="round" stroke-miterlimit="10" stroke-width=".5" d="M187.41406 479.76953l-6.9375 1.1211"/></g><g clip-path="url(#k)"><path fill="none" stroke="#000" stroke-linecap="round" stroke-linejoin="round" stroke-miterlimit="10" stroke-width=".5" d="M187.41406 479.76953l1.48438 1.95313"/></g><g clip-path="url(#l)"><path fill="none" stroke="#000" stroke-linecap="round" stroke-linejoin="round" stroke-miterlimit="10" stroke-width=".5" d="M186.40625 479.92969l.73828.98047"/></g><g clip-path="url(#m)"><path fill="none" stroke="#000" stroke-linecap="round" stroke-linejoin="round" stroke-miterlimit="10" stroke-width=".5" d="M200.64063 479.36719l-6.75782 1.92578"/></g><g clip-path="url(#n)"><path fill="none" stroke="#000" stroke-linecap="round" stroke-linejoin="round" stroke-miterlimit="10" stroke-width=".5" d="M200.64063 479.36719l1.69921 1.76562"/></g><g clip-path="url(#o)"><path fill="none" stroke="#000" stroke-linecap="round" stroke-linejoin="round" stroke-miterlimit="10" stroke-width=".5" d="M213.90234 479.19531l-6.65234 2.26563"/></g><g clip-path="url(#p)"><path fill="none" stroke="#000" stroke-linecap="round" stroke-linejoin="round" stroke-miterlimit="10" stroke-width=".5" d="M213.90234 479.19531l1.78907 1.67969"/></g><g clip-path="url(#q)"><path fill="none" stroke="#000" stroke-linecap="round" stroke-linejoin="round" stroke-miterlimit="10" stroke-width=".5" d="M212.9336 479.52344l.89452.83984"/></g><g clip-path="url(#r)"><path fill="none" stroke="#000" stroke-linecap="round" stroke-linejoin="round" stroke-miterlimit="10" stroke-width=".5" d="M227.24219 479.27344l-6.70313 2.10937"/></g><g clip-path="url(#s)"><path fill="none" stroke="#000" stroke-linecap="round" stroke-linejoin="round" stroke-miterlimit="10" stroke-width=".5" d="M227.24219 479.27344l1.75 1.71875"/></g><g clip-path="url(#t)"><path fill="none" stroke="#000" stroke-linecap="round" stroke-linejoin="round" stroke-miterlimit="10" stroke-width=".5" d="M226.26563 479.58203l.875.85938"/></g><g clip-path="url(#u)"><path fill="none" stroke="#000" stroke-linecap="round" stroke-linejoin="round" stroke-miterlimit="10" stroke-width=".5" d="M240.51172 479.14063l-6.61328 2.375"/></g><g clip-path="url(#v)"><path fill="none" stroke="#000" stroke-linecap="round" stroke-linejoin="round" stroke-miterlimit="10" stroke-width=".5" d="M240.51172 479.14063l1.8164 1.64843"/></g><g clip-path="url(#w)"><path fill="none" stroke="#000" stroke-linecap="round" stroke-linejoin="round" stroke-miterlimit="10" stroke-width=".5" d="M239.55078 479.48438l.90625.82812"/></g><g clip-path="url(#x)"><path fill="none" stroke="#000" stroke-linecap="round" stroke-linejoin="round" stroke-miterlimit="10" stroke-width=".5" d="M253.8164 479.10938l-6.58984 2.4375"/></g><g clip-path="url(#y)"><path fill="none" stroke="#000" stroke-linecap="round" stroke-linejoin="round" stroke-miterlimit="10" stroke-width=".5" d="M253.8164 479.10938l1.83204 1.6328"/></g><g clip-path="url(#z)"><path fill="none" stroke="#000" stroke-linecap="round" stroke-linejoin="round" stroke-miterlimit="10" stroke-width=".5" d="M267.15625 479.17969l-6.64063 2.30078"/></g><g clip-path="url(#A)"><path fill="none" stroke="#000" stroke-linecap="round" stroke-linejoin="round" stroke-miterlimit="10" stroke-width=".5" d="M267.15625 479.17969l1.79688 1.66797"/></g><g clip-path="url(#B)"><path fill="none" stroke="#000" stroke-linecap="round" stroke-linejoin="round" stroke-miterlimit="10" stroke-width=".5" d="M280.46875 479.17578l-6.63672 2.3086"/></g><g clip-path="url(#C)"><path fill="none" stroke="#000" stroke-linecap="round" stroke-linejoin="round" stroke-miterlimit="10" stroke-width=".5" d="M279.5039 479.51172l.89844.83203"/></g><g clip-path="url(#D)"><path fill="none" stroke="#000" stroke-linecap="round" stroke-linejoin="round" stroke-miterlimit="10" stroke-width=".5" d="M293.58203 478.70703l-6.23437 3.24219"/></g><g clip-path="url(#E)"><path fill="none" stroke="#000" stroke-linecap="round" stroke-linejoin="round" stroke-miterlimit="10" stroke-width=".5" d="M292.67578 479.17969l1.01172.69531"/></g><g clip-path="url(#F)"><path fill="none" stroke="#000" stroke-linecap="round" stroke-linejoin="round" stroke-miterlimit="10" stroke-width=".5" d="M306.79688 478.52734l-6.03125 3.60157"/></g><path fill="none" stroke="#000" stroke-linecap="round" stroke-linejoin="round" stroke-miterlimit="10" stroke-width=".5" d="M305.91797 479.05078l1.05078.63672"/><g clip-path="url(#G)"><path fill="none" stroke="#000" stroke-linecap="round" stroke-linejoin="round" stroke-miterlimit="10" stroke-width=".5" d="M319.48438 477.7539l-4.77735 5.15235"/></g><path fill="none" stroke="#000" stroke-linecap="round" stroke-linejoin="round" stroke-miterlimit="10" stroke-width=".5" d="M318.78906 478.5039l1.1875.3125"/><g clip-path="url(#H)"><path fill="none" stroke="#000" stroke-linecap="round" stroke-linejoin="round" stroke-miterlimit="10" stroke-width=".5" d="M332.00781 477.19922l-3.19531 6.25781"/></g><path fill="none" stroke="#000" stroke-linecap="round" stroke-linejoin="round" stroke-miterlimit="10" stroke-width=".5" d="M331.54297 478.10938l1.22656-.01954"/><g clip-path="url(#I)"><path fill="none" stroke="#000" stroke-linecap="round" stroke-linejoin="round" stroke-miterlimit="10" stroke-width=".5" d="M344.76172 476.97266l-2.07031 6.71484"/></g><path fill="none" stroke="#000" stroke-linecap="round" stroke-linejoin="round" stroke-miterlimit="10" stroke-width=".5" d="M344.46094 477.94922l1.20312-.23047"/><g clip-path="url(#J)"><path fill="none" stroke="#000" stroke-linecap="round" stroke-linejoin="round" stroke-miterlimit="10" stroke-width=".5" d="M357.07031 476.8164l-.0586 7.02735"/></g><g clip-path="url(#K)"><path fill="none" stroke="#000" stroke-linecap="round" stroke-linejoin="round" stroke-miterlimit="10" stroke-width=".5" d="M367.51172 478.26953l5.6914 4.1211"/></g><g clip-path="url(#L)"><path fill="none" stroke="#000" stroke-linecap="round" stroke-linejoin="round" stroke-miterlimit="10" stroke-width=".5" d="M384.69531 480.32813l-.01953-.19922-.0586-.19141-.09765-.17578-.45703-.3789-.1914-.0586-.19923-.01953-.19921.01953-.19141.0586-.46094.3789-.09375.17578-.0586.1914-.01952.19923.01953.19921.0586.19141.09374.17969.46094.375.1914.0586.19923.01952.19921-.01953.19141-.0586.45703-.375.09766-.17968.0586-.1914.01952-.19922"/></g><g clip-path="url(#M)"><path fill="none" stroke="#000" stroke-linecap="round" stroke-linejoin="round" stroke-miterlimit="10" stroke-width=".5" d="M393.74219 481.67188l6.48828-2.6875"/></g><g clip-path="url(#N)"><path fill="none" stroke="#000" stroke-linecap="round" stroke-linejoin="round" stroke-miterlimit="10" stroke-width=".5" d="M411.19531 476.92969l-1.78515 6.79687"/></g><path fill="none" stroke="#000" stroke-linecap="round" stroke-linejoin="round" stroke-miterlimit="10" stroke-width=".5" d="M410.9336 477.91797l1.1953-.28125"/><g clip-path="url(#O)"><path fill="none" stroke="#000" stroke-linecap="round" stroke-linejoin="round" stroke-miterlimit="10" stroke-width=".5" d="M421.07813 477.90234l5.07812 4.85547"/></g><g clip-path="url(#P)"><path fill="none" stroke="#000" stroke-linecap="round" stroke-linejoin="round" stroke-miterlimit="10" stroke-width=".5" d="M434.28125 482.63281l5.30078-4.60937"/></g><g clip-path="url(#Q)"><path fill="none" stroke="#000" stroke-linecap="round" stroke-linejoin="round" stroke-miterlimit="10" stroke-width=".5" d="M449.9375 483.82813l.61719-7"/></g><g clip-path="url(#R)"><path fill="none" stroke="#000" stroke-linecap="round" stroke-linejoin="round" stroke-miterlimit="10" stroke-width=".5" d="M464.03906 483.8086l-.95312-6.96094"/></g><g clip-path="url(#S)"><path fill="none" stroke="#000" stroke-linecap="round" stroke-linejoin="round" stroke-miterlimit="10" stroke-width=".5" d="M147.51172 466.86328l-7.02344.30078"/></g><path fill="none" stroke="#000" stroke-linecap="round" stroke-linejoin="round" stroke-miterlimit="10" stroke-width=".5" d="M147.51172 466.86328l1.24219 2.11719m-2.26563-2.07422l.6211 1.0586m13.70703-1.25391l-7 .60547m7-.60547l1.33203 2.0586m-2.35156-1.97267l.66796 1.03125m13.66797-1.10546l-7.0039.58203m7.0039-.58203l1.32422 2.0625m-2.34375-1.97657l.66406 1.03125m13.6797-.86328l-7.02345.07422m7.02344-.07422l1.17578 2.15625m-2.19531-2.14453l.58594 1.07813m13.72656-1.45704l-6.98047.8086m6.98047-.8086l1.39453 2.01954m-2.41016-1.90235l.69922 1.01172m13.58985-1.39844l-6.89844 1.34766m6.89844-1.34766l1.54687 1.90625m-2.55078-1.71093l.77344.95312m13.48828-1.39062L220.5 467.92969m6.78125-1.83203l1.67969 1.78906m-2.66406-1.52344l.83593.89453m13.1836-1.8789l-6.22266 3.26953m6.22266-3.26953l2.02734 1.3828m-2.9336-.90624l1.01563.6914m13.11328-1.33203L247.5 468.8125m6.03906-3.59766l2.09766 1.27344m-2.97656-.75l1.05078.63672m13.26172-.9414l-6.27344 3.16015m6.27344-3.16016l2.0039 1.41797m-2.91797-.95703l1.00391.70703m13.20313-1.21484l-6.22657 3.2539m6.22657-3.2539l2.02343 1.38281m11.2461-1.46875l-6.13672 3.42578m6.13672-3.42578l2.05859 1.33203m11.11328-1.5664l-5.85156 3.89453m5.85156-3.89453l2.15625 1.16406m10.86328-1.54297l-5.26172 4.65234m4.4961-3.97656l1.14844.42969m12.40625-1.59375l-4.21094 5.6289m3.59765-4.80859l1.21485.1875m13.14453-.625l-5.07031 4.86328m4.33203-4.15625l1.16797.38281m13.3203-.53125l-5.9414 3.7461m5.07813-3.20313l1.0664.60938m13.65235.84375l-7.02344-.2461m6.0039.21094l.53516 1.10156m12.8711 1.19532l-5.16407-4.76953m4.41016 4.07421l-.3086 1.1875m13.67188.09375l-3.7539-5.9414m3.20703 5.07812l-.60938 1.0625m16.04297-3.84765l-6.89453 1.35547m6.89453-1.35547l1.54688 1.90625m11.625-2.41407l-6.61329 2.3711m6.61329-2.3711l1.8164 1.64844m10.84375-2.76953l-5.30078 4.61328m4.52734-3.9414l1.14844.4375m12.84766-1.21094l-5.11719 4.8164m15.39453 1.07032l.96094-6.95703m-.82422 5.9453l-1.14844.42188"/><g clip-path="url(#T)"><path fill="none" stroke="#000" stroke-linecap="round" stroke-linejoin="round" stroke-miterlimit="10" stroke-width=".5" d="M147.51172 453.78906l-7.02344-.1836"/></g><path fill="none" stroke="#000" stroke-linecap="round" stroke-linejoin="round" stroke-miterlimit="10" stroke-width=".5" d="M147.51172 453.78906l1.09375 2.19531m-2.11328-2.21875l.54687 1.09766m13.78906-1.21875l-7.02734.10547m7.02734-.10547l1.1836 2.14844m-2.20703-2.13281l.59375 1.07422m13.73437-1.33204l-7.0039.59375m7.0039-.59375l1.32813 2.0625m-2.34766-1.97656l.66406 1.03125m13.66407-1.15625l-6.9922.67188m6.9922-.67188l1.35547 2.04688m11.95703-2.08985l-6.98828.75781m6.98828-.7578l1.3789 2.03124m-2.39453-1.92187l.6875 1.01562m13.4961-1.8125l-6.69532 2.13281m6.69531-2.1328l1.75782 1.71484m-2.73047-1.40625l1.7539 1.71484m12.20704-2.75l-6.03907 3.58594m6.03907-3.58594l2.09765 1.27344m-2.97656-.7539l1.05078.63671m12.76172-1.6836l-5.27734 4.64063m5.27734-4.64062l2.29688.86328m-3.06641-.1914l1.14844.43358m12.89843-1.14843l-5.20312 4.72265m5.20312-4.72265l2.3086.83203m-3.0625-.14453l2.3086.83203m11.90233-1.35156l-5.48437 4.39062m5.48438-4.39062l2.2539.96875m-3.05078-.33204l2.2539.97266m11.89844-1.5586l-5.5664 4.28907m5.5664-4.28906l2.23438 1.01562m-3.04297-.39062l1.11719.50781m12.875-1.29297l-5.30469 4.60938m5.30469-4.60938l2.29297.8789m-3.0625-.21093l1.14453.4414m12.59765-1.45312l-4.61718 5.29688m4.61718-5.29688l2.39063.55469m-3.0625.21484l1.19531.27735m12.41406-1.33204l-3.86328 5.8672m3.86328-5.8672l2.44532.22657m-3.00782.625l1.22266.11718m12.96484-.73828l-4.48437 5.40625m4.48437-5.40625l2.40625.4961M332 451.78125l1.20313.25m12.9453-.8789l-4.84374 5.08984m4.84375-5.08985l2.36328.66016m-3.07031.08203l1.18359.32813m12.82031-1.08594l-4.8086 5.125m4.8086-5.125l2.36719.64062m9.07813-1.55078l-1.06641 6.94531m1.0664-6.9453l2.31641-.8125m8.27735 1.53515l4.37109 5.5m-3.73438-4.69922l.48829-1.125m11.17968 1.6211l6.39453 2.90624m-5.46484-2.48437l-.07812-1.22266m18.3125 4.5586l-5.3047-4.60938m19.19532.91797l-6.45703 2.77344m6.45703-2.77344l1.91406 1.53906m11.6875-.20312l-7.02734.09765m7.02734-.09765l1.17969 2.15234m12.10938-2.53906l-6.97266.8711m6.97266-.8711l1.41015 2.00781m11.92188-1.82031l-7.00782.5m5.98829-.42578l.65234 1.03906"/><g clip-path="url(#U)"><path fill="none" stroke="#000" stroke-linecap="round" stroke-linejoin="round" stroke-miterlimit="10" stroke-width=".5" d="M147.5 440.6914l-7-.61718"/></g><path fill="none" stroke="#000" stroke-linecap="round" stroke-linejoin="round" stroke-miterlimit="10" stroke-width=".5" d="M147.5 440.6914l.95703 2.26173m-1.97656-2.35157l.48047 1.13281m13.86719-1.30078l-7.02735-.09765m7.02734.09765l1.1211 2.1797m-2.14453-2.19532l.5625 1.08984m13.77734-1.07422l-7.02734-.09765m7.02734.09765l1.1211 2.1836m12.1914-2.38672l-7.02344.3086m7.02344-.3086l1.2461 2.11328m-2.26954-2.07031l.625 1.0586m13.625-1.7422l-6.84765 1.58594m6.84765-1.58594l1.60938 1.85157m-2.60547-1.6211l1.60938 1.85157m12.35156-2.9922L207.5 442.08595m6.14844-3.40625l2.0586 1.33984m-2.95313-.84375l1.02734.66797m12.82422-1.6914l-5.42969 4.46093m5.42969-4.46094l2.26562.94141m-3.05468-.29297l1.1328.47266m12.60548-1.5039l-4.69922 5.22655m4.69922-5.22656l2.38281.59375m10.92188-.60156l-4.6797 5.24219m4.6797-5.2422l2.3828.58595m-3.0625.17578l1.19141.29297m12.0625-1.5625l-3.1953 6.2578m3.1953-6.2578l2.45313-.04297m-2.91797.95312l1.22656-.01953m12.32422-.9961l-2.73437 6.47266m2.73437-6.47265l2.4414-.21875m12.1875 1.1836l-5.36327 4.53905m5.36328-4.53906l2.27734.91016m9.75781-1.85938l-2.80468 6.4414m2.80468-6.4414l2.44532-.1914m-2.85547 1.125L306 438.0039m12.53516-.82813l-2.87891 6.41406m2.8789-6.41406l2.44532-.16406m-2.86328 1.09766l1.22265-.08204m13.16797-.46484l-4.1914 5.64063m4.1914-5.64063l2.42578.36719m-3.03515.45312l1.21094.1836m12.74218-.98047l-4.25 5.59765m4.25-5.59765l2.42188.39062m-3.03906.42188l1.21093.19922m12.80078-.94922l-4.41015 5.46875m4.41015-5.46875l2.41016.46484m-3.05078.33203l1.20312.23047m11.02735-1.77344l-.96094 6.96094m.96094-6.96094l2.30469-.84375m-2.44532 1.85547l1.15235-.42187m9.76562.04297l4.11719 5.6953m-4.11719-5.6953l1.07813-2.20313m14.5039 1.54297l-.41797 7.01563m.35547-5.9922l1.11719-.51171m14.32031.3125l-4.53906 5.36719m4.53906-5.3672l2.39844.51954M427 439.42969l-6.76562 1.90625M427 439.42969l1.69531 1.77344m10.50782-3.5l-4.54297 5.36328m4.54297-5.36328l2.39843.51953m9.26563-1.29688l-1.24219 6.91797m1.0625-5.91406l1.16797-.375m15.07812 1.84765l-6.74609 1.96485m5.76563-1.67969l.85546.8789"/><g clip-path="url(#V)"><path fill="none" stroke="#000" stroke-linecap="round" stroke-linejoin="round" stroke-miterlimit="10" stroke-width=".5" d="M147.4961 427.41797l-6.9922-.69922"/></g><path fill="none" stroke="#000" stroke-linecap="round" stroke-linejoin="round" stroke-miterlimit="10" stroke-width=".5" d="M147.4961 427.41797l.92968 2.26953m-1.94531-2.3711l.46484 1.13282m13.86328-.99219l-6.98437-.77734m6.98437.77734l.90235 2.28125m-1.92188-2.39453l.45313 1.14063m13.89453-1.62891l-7.01172.42578m7.01172-.42578l1.28125 2.09375m-2.30078-2.03125l.64062 1.04687m13.625-1.61718l-6.875 1.4414m6.875-1.4414l1.57422 1.8828m-2.57422-1.67577l.78516.94531m13.54687-1.08203l-6.90625 1.30078m6.90625-1.30078l1.53125 1.91797m-2.53906-1.72657l.76953.95704M214 426.28125l-6.84766 1.57422M214 426.28125l1.60938 1.85156m-2.60547-1.625l.80468.92969m13.26172-1.85938l-6.35937 2.98047m6.35937-2.98047l1.96485 1.47266m-2.89063-1.03906l.98438.73437m13.05859-1.53515l-5.96484 3.71484m5.96484-3.71484l2.125 1.23047m-2.99219-.69141l1.0625.61719m11.97266-2.29688l-3.66797 5.9961m3.66797-5.9961l2.44922.15235m-2.98438.72265l1.22656.07422m12.64454-.9336l-3.71094 5.96485m3.71094-5.96484l2.44922.16406m-2.98829.70312l1.22266.08204m12.82813-.82032l-4.10547 5.70703m4.10547-5.70703l2.42968.33203m-3.02734.5l1.21484.16407m12.8789-.85547l-4.46874 5.42578m4.46875-5.42578l2.40625.48828m10.6875-.65625l-4.02344 5.76172m4.02344-5.76172l2.4336.29297m-3.01954.54687l1.21875.14453m11.97656-1.36328l-2.61328 6.51953m2.61328-6.51953l2.44141-.26562m-2.82031 1.21484l1.21875-.13281m12.49218-.8125l-2.64453 6.51172m2.64453-6.51172l2.44141-.25m-2.82812 1.19922l1.22265-.1289m14.14063.58202l-5.97266 3.70703m5.97266-3.70703l2.1211 1.23438m11.33593-.98047l-6.2539 3.19922m6.2539-3.19922l2.01172 1.40234m-2.92188-.9375l1.00781.70313m12.66407-1.96094l-5.14844 4.78516m5.14844-4.78516l2.32031.80469m-3.0664-.10547l1.15624.39844m12.92188-1.07813l-5.17969 4.7461m5.17969-4.7461l2.3125.8164m-3.0664-.125l2.3125.81641m12.3789-.55859l-6.42578 2.84766m6.42578-2.84766l1.92969 1.51563m-2.86329-1.10157l1.9297 1.51563m12.26171-2.05469l-6.3086 3.09766m6.3086-3.09766l1.98828 1.4375m-2.90625-.98437l1.98828 1.4375m10.85547-3.37891l-3.53515 6.07422m3.53515-6.07422l2.45313.09375m-2.96485.78906l2.44922.09766m10.75-1.26953l-2.27734 6.65234m2.27734-6.65234l2.42188-.38672m-2.7539 1.35547l2.42187-.38672m-2.75391 1.35547l1.21094-.19532m13.64453-1.29296l-4.03125 5.7539m4.03125-5.7539l2.4336.29687m-3.01954.53906l2.4336.30078m12.47656-.04296l-6.05078 3.5703"/><g clip-path="url(#W)"><path fill="none" stroke="#000" stroke-linecap="round" stroke-linejoin="round" stroke-miterlimit="10" stroke-width=".5" d="M466.58594 425.28516l2.09375 1.27734"/></g><path fill="none" stroke="#000" stroke-linecap="round" stroke-linejoin="round" stroke-miterlimit="10" stroke-width=".5" d="M465.70703 425.80469l1.04688.63672"/><g clip-path="url(#X)"><path fill="none" stroke="#000" stroke-linecap="round" stroke-linejoin="round" stroke-miterlimit="10" stroke-width=".5" d="M147.51172 413.8789l-7.02344-.2539"/></g><path fill="none" stroke="#000" stroke-linecap="round" stroke-linejoin="round" stroke-miterlimit="10" stroke-width=".5" d="M147.51172 413.8789l1.07422 2.20704m12.21875-2.73828l-6.98047.8125m6.98047-.8125l1.39453 2.01953m11.9375-1.3711l-7.01172-.48828m7.01172.48828l.9961 2.2422m-2.01563-2.3125l.4961 1.12109m13.82812-1.64063l-6.9922.69531m6.9922-.69531l1.35937 2.04297m-2.375-1.9414l.67969 1.01952m13.61719-1.36718l-6.92578 1.1875m6.92578-1.1875l1.5039 1.9375m11.23047-3.35547l-5.76172 4.02344m4.92188-3.4375l1.09375.55859m13.59375.04297l-6.82813 1.64844m6.82813-1.64844l1.6289 1.83203m11.77344-1.27344l-7.0039.53125m7.0039-.53125l1.3164 2.07031m11.71485-3.21484l-6.4375 2.8164m6.4375-2.8164l1.92578 1.52344m-2.85937-1.11328l.96094.76172m13.30078-1.14454l-6.46094 2.76172m6.46094-2.76172l1.91015 1.54297m-2.85156-1.14062l.95703.76953m12.82422-1.96875l-5.51172 4.35937m5.51172-4.35937l2.2461.98437m10.49218-1.5625l-4.35547 5.51563m4.35547-5.51563l2.41406.4375m-3.04687.36329l1.20703.22265m13.13281-.66015l-5.14062 4.78906m5.14062-4.78906l2.32031.80078m10.80079-.9922l-4.75391 5.17188m4.7539-5.17187l2.375.61719m10.8125-.73047l-4.5 5.39844m4.5-5.39844l2.40235.5039m11.11328-.32421l-4.89844 5.03906m4.89844-5.03906l2.35547.68359m12.01953 2.01953l-7.01953-.36719m5.9961.3125l.51952 1.11328m13.63672-2.37109l-6.65625 2.25781m6.65625-2.25781l1.78516 1.6836m-2.7539-1.35547l.89452.84375m13.26563-1.48438l-6.41016 2.88281m6.41016-2.88281l1.9414 1.5039m-2.875-1.08593l1.94141 1.5039m-2.8711-1.08203l.96876.75m14.16015-1.6953l-6.30859 3.09374m6.3086-3.09375l1.98828 1.4375m-2.90625-.98828l1.98828 1.4414m11.91015-2.4414l-5.64062 4.19531m5.64062-4.19531l2.21875 1.05078m-3.03906-.4414l1.10938.52734m11.08593-2.4414l-1.7578 6.80468m1.7578-6.80469l2.38672-.57422m-2.64062 1.5625l1.1914-.28515m12.20703-.74219l-1.41796 6.88281m1.41796-6.88281l2.35547-.6914m-2.5625 1.6914l2.35547-.6875m12.85547.5625l-4.79687 5.13281m4.79687-5.13281l2.3711.63672m-3.06641.10937l2.36719.63672m12.3203-.51562l-6.15234 3.39453"/><g clip-path="url(#Y)"><path fill="none" stroke="#000" stroke-linecap="round" stroke-linejoin="round" stroke-miterlimit="10" stroke-width=".5" d="M466.63672 412.05469l2.05469 1.34375"/></g><g clip-path="url(#Z)"><path fill="none" stroke="#000" stroke-linecap="round" stroke-linejoin="round" stroke-miterlimit="10" stroke-width=".5" d="M465.74219 412.55078l2.05469 1.33985"/></g><g clip-path="url(#aa)"><path fill="none" stroke="#000" stroke-linecap="round" stroke-linejoin="round" stroke-miterlimit="10" stroke-width=".5" d="M147.46484 399.85547l-6.92968 1.16797"/></g><path fill="none" stroke="#000" stroke-linecap="round" stroke-linejoin="round" stroke-miterlimit="10" stroke-width=".5" d="M147.46484 399.85547l1.4961 1.94531m11.85547-1.63672l-7.00391.54688m7.0039-.54688l1.31641 2.07422m11.84375-2.86719l-6.69531 2.13672m6.69531-2.13672l1.75781 1.71485m11.34766-2.23047l-6.27344 3.16406m6.27344-3.16406l2.0039 1.41797m11.47266-1.05078l-6.59375 2.42968m6.59375-2.42968l1.82813 1.6328m11.49219-1.61327l-6.60547 2.39453m6.60547-2.39453l1.8203 1.64062m-2.78124-1.29297l.91016.82032m13.2539-1.4375l-6.38281 2.93359m6.38281-2.9336l1.95313 1.48829m-2.87891-1.0625l.97266.7461m13.4453-.69923l-6.73827 1.98828m6.73828-1.98828l1.71875 1.75m-2.69922-1.46094l.85938.875m13.28515-1.58203l-6.4336 2.82422m6.4336-2.82422l1.92578 1.51954m-2.86328-1.10938l.96484.76172m13.22657-1.30469l-6.3125 3.08985m6.3125-3.08985l1.98437 1.4414m-2.90234-.99218l.99219.71875m13.42578-.71094l-6.6836 2.17578m6.6836-2.17578l1.76562 1.70313m11.58203-1.60156l-6.74609 1.97265m6.7461-1.97265l1.71093 1.7539m11.58594-1.80469l-6.71485 2.07032m5.73829-1.76954l.87109.8672m13.40625-1.21485l-6.6836 2.16797m6.6836-2.16797l1.76562 1.70703m11.44922-1.98047l-6.48047 2.71485m6.48047-2.71485l1.89844 1.55469m11.4961-1.34766l-6.64063 2.30078m6.64062-2.30078l1.79688 1.66797m11.64453.15625l-6.89453-1.34765m5.89062 1.15234l.35938 1.17187m13.96875-1.01953l-6.91406-1.26562m6.91406 1.26562l.74219 2.33985m-1.75-2.52344l.3711 1.17187m13.76171-2.91406l-6.53125 2.58985m6.53125-2.58985l1.8711 1.58985m-2.82032-1.21485l1.86719 1.58985m12.53125-1.5547l-6.80078 1.76954m6.80078-1.76953l1.66015 1.80469m-2.64843-1.54688l.82812.90234m13.58594-.20312l-7.02344-.14844m7.02344.14844l1.10547 2.1914m11.07031-4.85546l-4.7461 5.18359m4.7461-5.1836l2.375.61329m-3.0625.14062l1.1875.30469m12.76172-1.10938l-4.63672 5.28125m4.63672-5.28125l2.38672.5625m-3.0625.20704l1.19531.28125m13.16016-.67579l-5.36719 4.53516m5.36719-4.53515l2.27734.91015m-3.0586-.25l1.14063.45313m13.30469-.625l-6.0625 3.55468"/><g clip-path="url(#ab)"><path fill="none" stroke="#000" stroke-linecap="round" stroke-linejoin="round" stroke-miterlimit="10" stroke-width=".5" d="M466.59375 398.66016l2.08984 1.28515"/></g><g clip-path="url(#ac)"><path fill="none" stroke="#000" stroke-linecap="round" stroke-linejoin="round" stroke-miterlimit="10" stroke-width=".5" d="M465.71094 399.17578l2.08984 1.28906"/></g><g clip-path="url(#ad)"><path fill="none" stroke="#000" stroke-linecap="round" stroke-linejoin="round" stroke-miterlimit="10" stroke-width=".5" d="M147.48438 386.6875l-6.96875.8711"/></g><path fill="none" stroke="#000" stroke-linecap="round" stroke-linejoin="round" stroke-miterlimit="10" stroke-width=".5" d="M147.48438 386.6875l1.41406 2.0039m11.92969-1.5664h-7.02735m7.02734 0l1.15235 2.16406m11.64844-4l-5.9961 3.66797m5.9961-3.66797l2.11328 1.25m11.23047-1.19922l-6.0547 3.56641m6.0547-3.5664l2.09375 1.28124m-2.97657-.76171l1.04688.64062m13.4414-.53125l-6.63671 2.3086m6.63672-2.3086l1.80078 1.67188m-2.76563-1.33594l.89844.83594m13.52344.58984l-6.92188-1.21485m6.92188 1.21485l.76172 2.33203m-1.76954-2.50781l.38282 1.16406m13.99218-1.48828l-7.02343-.21485m7.02343.21485l1.08594 2.20312m12.17578-2.92187l-6.91797 1.22265m6.91797-1.22265l1.51172 1.9336m-2.51562-1.75391l.7539.96484m13.5586-1.1875l-6.90235 1.3086m6.90235-1.3086l1.53515 1.91406m-2.53906-1.72265l.76563.95703m13.39062-1.73047l-6.57813 2.47265m6.57813-2.47265l1.83984 1.625m11.41016-1.78516l-6.44922 2.79688m6.44922-2.79688l1.91797 1.52735m-2.85547-1.1211l.95703.76172m13.47266-.65625l-6.80078 1.77344m6.80078-1.77344l1.66015 1.80469m-2.65234-1.54688l.83203.90235m13.32813-1.60156l-6.50782 2.65234m6.50782-2.65235l1.8828 1.57422m-2.83202-1.1875l.94531.78516m13.45703-.76172l-6.78515 1.83203m6.78515-1.83203L322.16406 388m11.66016-1.70313l-6.82813 1.65235m6.82813-1.65235l1.63281 1.83594m11.66406-1.91015l-6.79296 1.80078m5.80468-1.53906l.83594.89843m13.55469.19531l-6.96485-.91015m6.96485.91015l.86328 2.30079m-1.875-2.4336l.42969 1.15235m13.90234-1.89454l-6.97656.83985m6.97656-.83985l1.40234 2.01172m-2.41796-1.89062l1.40625 2.01562m12.59375-3.2578l-6.31641 3.08202m6.3164-3.08203l1.98438 1.4414m-2.90234-.99218l.99218.71875m13.54688-.21875l-6.92578 1.1836m6.92578-1.1836l1.5 1.9414m-2.50781-1.76952l.75.97265m13.57812-1.11719l-6.9375 1.12891m6.9375-1.1289l1.48438 1.94921m-2.4922-1.78515l.7422.97656m13.07812-2.45703l-5.9336 3.76172m5.9336-3.76172l2.13281 1.21094m11.60547-.25782l-6.77734 1.85547m6.77734-1.85547l1.6836 1.78516m11.53515-2.07813l-6.58593 2.44141m6.58593-2.4414l1.83594 1.6289m11.0664-2.41797l-5.76171 4.01953"/><g clip-path="url(#ae)"><path fill="none" stroke="#000" stroke-linecap="round" stroke-linejoin="round" stroke-miterlimit="10" stroke-width=".5" d="M466.4414 385.11328l2.1875 1.11719"/></g><path fill="none" stroke="#000" stroke-linecap="round" stroke-linejoin="round" stroke-miterlimit="10" stroke-width=".5" d="M465.60547 385.69922l1.08984.55469"/><g clip-path="url(#af)"><path fill="none" stroke="#000" stroke-linecap="round" stroke-linejoin="round" stroke-miterlimit="10" stroke-width=".5" d="M147.39453 372.89453l-6.78906 1.82813"/></g><path fill="none" stroke="#000" stroke-linecap="round" stroke-linejoin="round" stroke-miterlimit="10" stroke-width=".5" d="M147.39453 372.89453l1.67188 1.79297m10.95703-3.1211l-5.41406 4.48048m5.41406-4.48047l2.26562.9375m11.6875.23437l-6.6914 2.14063m6.6914-2.14063l1.75781 1.71094m11.6211-1.48047l-6.82031 1.67969m6.8203-1.67969l1.63673 1.82813m-2.6289-1.58594L188 375.03906m12.6836-2.01562l-6.84766 1.57031m6.84765-1.57031l1.60938 1.85156m-2.60547-1.625l1.60938 1.85547m12.7578-1.79688l-6.95702.9961m6.95703-.9961l1.44531 1.98438m-2.45703-1.83594l1.44531 1.98047m12.86328-2.23828l-6.92187 1.21875m6.92187-1.21875l1.50781 1.9336m-2.51562-1.75782l.7539.96875m13.60548-.86719l-6.9961.66406m6.9961-.66406l1.35156 2.04688m-2.3711-1.94922l.67578 1.02344m13.51172-1.84375l-6.70312 2.10937m6.70312-2.10937l1.75 1.72265m-2.72265-1.41406l.8711.85938m13.46093-1.02735l-6.78906 1.82422m6.78906-1.82422l1.67187 1.79688m11.66407-1.70704l-6.83204 1.64844m6.83204-1.64844l1.6289 1.83594m-2.6211-1.59375l.8125.91797m13.46485-1.27344l-6.77343 1.875m6.77343-1.875l1.6875 1.78125m-2.67187-1.5078l.84375.89062m13.45312-1.17579l-6.76562 1.89844m6.76562-1.89844l1.69532 1.77735m-2.6797-1.5l.84766.88672m13.41407-1.28906L313.75 374.8828m6.6914-2.14844l1.75782 1.71094m-2.73047-1.39844l1.75781 1.71094m12.57813-1.85937l-6.78906 1.8164m6.78906-1.8164l1.67187 1.79687m-2.66015-1.53125l.83593.89844m13.51563-.96094l-6.88281 1.41406m6.8828-1.41406l1.5625 1.89063m-2.5625-1.6836l.78126.94532m13.60156-.60938l-7.01953.32813m7.01953-.32813l1.2539 2.10938m-2.27343-2.0625l1.25 2.10937m13.07031-2.34765l-6.99218.71093m6.99218-.71094l1.36328 2.03907m-2.3789-1.9375l1.36328 2.03906m12.9375-2.3711l-6.92969 1.17188m6.92969-1.17187l1.4961 1.9453m-2.50391-1.77343l1.49609 1.9414m12.75-2.44921l-6.77734 1.84375m6.77734-1.84375l1.6836 1.78515m-2.66797-1.51953l.83984.89454m13.50781-.96094l-6.875 1.44531m6.875-1.44531l1.57422 1.88281m11.75-1.84375l-6.89062 1.36719m6.89062-1.36719l1.55078 1.89844m11.82031-.94531l-7.0039-.54297m7.0039.54296l.98047 2.25m12.26953-3.2539l-6.87109 1.46875m6.8711-1.46875l1.57812 1.8789m11.23437-3.07812l-5.86718 3.86719"/><g clip-path="url(#ag)"><path fill="none" stroke="#000" stroke-linecap="round" stroke-linejoin="round" stroke-miterlimit="10" stroke-width=".5" d="M466.4961 371.875l2.15234 1.17188"/></g><g clip-path="url(#ah)"><path fill="none" stroke="#000" stroke-linecap="round" stroke-linejoin="round" stroke-miterlimit="10" stroke-width=".5" d="M147.51172 360.38281l-7.02344.21875"/></g><path fill="none" stroke="#000" stroke-linecap="round" stroke-linejoin="round" stroke-miterlimit="10" stroke-width=".5" d="M147.51172 360.38281l1.21875 2.1289m11.61328-3.80077l-6.05469 3.5664m6.05469-3.5664l2.08984 1.28125m-2.97265-.76172l1.04687.64062m13.63672.54688l-7.02734.14844m7.02734-.14844l1.19531 2.14062m-2.21875-2.11718l1.19922 2.14062m13.1211-1.75781l-6.9961-.66016m6.9961.66016l.9453 2.26562m-1.96093-2.36328l.9414 2.26563m13.40626-2.3789l-7.02344-.2422m7.02344.2422l1.07422 2.20702m-2.09766-2.24219l.53906 1.10157m13.79688-1.03516l-7.01953-.30078m7.01953.30078l1.0586 2.21094m12.25-2.6289l-7.00782.53515m7.00781-.53516l1.3125 2.07422m11.9336-2.55078l-6.8672 1.48828m6.8672-1.48828l1.58203 1.8711m-2.58203-1.65626l.79296.9375m13.58985-.66015l-7.00781.5m7.0078-.5l1.3047 2.07812m-2.32422-2.0039l.65234 1.03906m13.59375-1.69531l-6.82813 1.66406m6.82813-1.66406l1.63281 1.83203m-2.6289-1.58985l.8164.91797m13.39063-1.5039l-6.6211 2.35546m6.6211-2.35546l1.8125 1.65234m-2.77735-1.3125l.90625.82813m13.5-.71485l-6.875 1.44922m6.875-1.44922l1.57422 1.8789m-2.57422-1.66796l.78907.9414m13.59765-.63671l-7.01562.41796m7.01562-.41796l1.27735 2.09375m-2.29688-2.03516l1.27735 2.09766m13.01562-2.51563l-6.9336 1.13281m6.9336-1.1328l1.48828 1.95312m-2.4961-1.78907l1.48438 1.95313m12.78125-2.39453L327 361.33984m6.82031-1.6914l1.64063 1.82422m-2.63281-1.57813l.8203.91016m13.58595-.52344l-7.01563.42578m7.01563-.42578l1.28125 2.09375m-2.3047-2.03125l.64063 1.04688m13.6875-1.22657l-6.9961.65625m6.9961-.65625l1.35157 2.05078m-2.3711-1.95312l1.35156 2.04687m12.9922-2.03125l-7.01563.4336m7.01562-.4336l1.28516 2.08985m-2.30469-2.02735l1.28125 2.08985m12.92188-2.91406l-6.75 1.95312m6.75-1.95313l1.70703 1.76172m-2.69141-1.47656l1.71094 1.76172m12.34765-2.65625l-6.26953 3.17188m6.26953-3.17188l2.00782 1.41406m-2.91797-.95312l2.0039 1.41406m12.06641-2.14844l-5.96094 3.72266m5.96094-3.72266l2.125 1.22656m-2.99219-.6875l1.0625.61329m13.3711-.67188l-6.46094 2.75781m6.46094-2.7578l1.91015 1.53905m-2.85156-1.13671l.95703.76953m13.42578-.82422l-6.71484 2.0664m6.71484-2.0664l1.73828 1.73047m11.69141-1.23047l-6.94531 1.0664m6.94531-1.0664l1.46875 1.96875m11.82422-2.09375l-6.90234 1.3164"/><g clip-path="url(#ai)"><path fill="none" stroke="#000" stroke-linecap="round" stroke-linejoin="round" stroke-miterlimit="10" stroke-width=".5" d="M467.01172 359.83594l1.53906 1.91406"/></g><g clip-path="url(#aj)"><path fill="none" stroke="#000" stroke-linecap="round" stroke-linejoin="round" stroke-miterlimit="10" stroke-width=".5" d="M147.49219 346.80078l-6.98438.75781"/></g><path fill="none" stroke="#000" stroke-linecap="round" stroke-linejoin="round" stroke-miterlimit="10" stroke-width=".5" d="M147.49219 346.80078l1.3789 2.02735m11.89063-2.33204l-6.89453 1.36329m6.89453-1.36329l1.55078 1.90235m11.78906-1.77344l-6.9414 1.10547m6.9414-1.10547l1.47656 1.95703m-2.48828-1.79687l1.48047 1.95703m12.88672-1.53906l-7.02344-.05079m7.02344.05079l1.13672 2.17578m-2.15625-2.1836l.5664 1.08594m13.76954-.97656l-7.02344-.2539m7.02344.2539l1.07031 2.20703m12.21094-2.8125l-6.96094.95703m6.96094-.95703l1.4375 1.98828m-2.44922-1.84766l.71875.9922m13.60156-1.19532l-6.94531 1.08203m6.94531-1.08203l1.46875 1.96484m-2.48047-1.8086l.73438.98438m13.61719-.91796l-6.9961.63671m6.9961-.63671l1.34375 2.05468m-2.35938-1.96094l.67188 1.02735m13.66796-.98828l-7.01562.3711m7.01562-.3711l1.26563 2.10547m-2.28516-2.05079l.63281 1.05079m13.70704-.86329l-7.02344-.11328m7.02344.11329l1.11718 2.1875m-2.13671-2.20313l.55468 1.09375m13.78125-1.13281h-7.02734m7.02734 0l1.15235 2.16406m-2.17579-2.16406l.57813 1.08203m13.7461-1.38281l-7 .59765m7-.59765l1.33202 2.0625m-2.34765-1.97266l.66406 1.02734m13.66016-.42578l-6.98438-.78515m6.98438.78515l.90234 2.28125m-1.91797-2.39453l.44922 1.14063m13.83984-.75782l-6.90234-1.32421m6.90234 1.32421l.72266 2.34375m-1.72656-2.53515l.72265 2.34375m13.65625-2.88672l-7.02343.14453m7.02343-.14453l1.19922 2.14453m-2.21875-2.1211l1.19532 2.14063m12.8828-3.41406l-6.5078 2.64453m6.5078-2.64453l1.88282 1.57031m-2.82812-1.1875l.9414.78906m13.5664-.1328l-7.0039.5664m7.0039-.5664l1.32423 2.0664m-2.34375-1.98438l.66406 1.03516m13.60156-.08203l-6.86328-1.5039m6.86328 1.5039l.66016 2.36328m-1.66016-2.58203l.66406 2.36328m13.72266-3.14844l-7.00781.5039m7.00781-.5039l1.30469 2.07813M386.15625 347l1.30469 2.07813m12.91015-2.84375l-6.76953 1.88671m6.76953-1.88671l1.69141 1.77734m-2.67578-1.5039l1.6914 1.77734m12.1172-3.09766l-5.78907 3.98438m5.78906-3.98438l2.17578 1.1289m-3.01953-.55077l2.17969 1.1328m12.07031-1.57421l-5.97265 3.70703m5.97265-3.70703l2.1211 1.23437m-2.98829-.6953l2.1211 1.23437m12.33984-1.21485l-6.53125 2.59375m6.53125-2.59375l1.8711 1.58594m-2.82032-1.21094l.9375.79688m13.48828-.66797l-6.84765 1.58203m6.84765-1.58203l1.60938 1.85156m-2.60547-1.6211l.80469.92579M467 346.45703l-6.875 1.4414"/><g clip-path="url(#ak)"><path fill="none" stroke="#000" stroke-linecap="round" stroke-linejoin="round" stroke-miterlimit="10" stroke-width=".5" d="M467 346.45703l1.57422 1.88281"/></g><path fill="none" stroke="#000" stroke-linecap="round" stroke-linejoin="round" stroke-miterlimit="10" stroke-width=".5" d="M466 346.66797l1.57031 1.88281"/><g clip-path="url(#al)"><path fill="none" stroke="#000" stroke-linecap="round" stroke-linejoin="round" stroke-miterlimit="10" stroke-width=".5" d="M146.63281 331.53906l-5.26562 4.64844"/></g><path fill="none" stroke="#000" stroke-linecap="round" stroke-linejoin="round" stroke-miterlimit="10" stroke-width=".5" d="M146.63281 331.53906l2.29688.85938m11.89844 1.35937l-7.02344.21094m7.02344-.21094l1.21484 2.1289m12.0039-1.20702l-6.83593-1.63281m6.83594 1.6328l.61718 2.375m12.79297-3.10937l-7.02344-.16797m7.02344.16797l1.10156 2.19531m12.12891-3.04296l-6.85547 1.53125m6.85547-1.53125l1.59766 1.86328m11.79687-.89844l-7.01562-.39844m7.01562.39844l1.03125 2.22656m12.03906-3.73047l-6.52343 2.60938m6.52343-2.60938l1.875 1.58204m-2.82422-1.20313l.9375.79297m13.53516-.41016l-6.9414 1.08594m6.9414-1.08594l1.47266 1.96485m11.88672-1.5l-7.02735.15625m7.02735-.15625l1.1953 2.14062m-2.21874-2.11719l.59766 1.07032m13.54296-2.17579l-6.6328 2.32032m6.6328-2.32031l1.80078 1.66406m-2.76562-1.32813l.90234.83203m13.35157-1.23437l-6.58204 2.45312m6.58204-2.45312l1.83593 1.625m-2.79296-1.26953l.91796.8125m13.4297-.95313l-6.73048 2.01953m6.73047-2.01953l1.72656 1.7461m11.28516-2.45704l-6.125 3.44532m6.125-3.44531l2.0664 1.3203m11.6836.0547l-6.9961.6953m6.9961-.6953l1.35937 2.04296m11.875-.875l-6.83203-1.64062m6.83203 1.64062l.61329 2.375m12.78125-3.52734l-6.9961.66406m6.9961-.66406l1.35156 2.04688m11.97656-1.59375l-7.01953-.2422m6 .20704l.53906 1.10156m13.63281-2.25781l-6.6953 2.14062m6.6953-2.14062l1.75782 1.71484m11.41406-2.08984l-6.40625 2.89062m6.40625-2.89062l1.9414 1.5039m11.55079-1.01171l-6.76172 1.90625m6.76172-1.90625l1.69531 1.77343m11.7461-1.05468l-7.01173.46484m7.01172-.46484l1.29297 2.08593m-2.3164-2.01562l.64843 1.04297m13.17578-2.71485l-5.98828 3.67188m5.98828-3.67188l2.1172 1.2422m-2.98829-.71095l1.0586.625m13.40624-.59765l-6.54296 2.55469m6.54296-2.5547l1.86329 1.60157m-2.8125-1.23047l1.85937 1.60156m12.53906-1.55468l-6.8125 1.71875m6.8125-1.71875l1.64844 1.8203m-2.63672-1.5703l1.64453 1.8203m-2.63672-1.5703l.82032.91015m14.44922-1.51172l-6.76172 1.91797"/><g clip-path="url(#am)"><path fill="none" stroke="#000" stroke-linecap="round" stroke-linejoin="round" stroke-miterlimit="10" stroke-width=".5" d="M466.9414 332.90234l1.69923 1.76954"/></g><path fill="none" stroke="#000" stroke-linecap="round" stroke-linejoin="round" stroke-miterlimit="10" stroke-width=".5" d="M465.95703 333.1836l1.69922 1.76952m-2.67969-1.49218l.84766.88672"/><g clip-path="url(#an)"><path fill="none" stroke="#000" stroke-linecap="round" stroke-linejoin="round" stroke-miterlimit="10" stroke-width=".5" d="M144.91797 317.15625l-1.83594 6.78125"/></g><path fill="none" stroke="#000" stroke-linecap="round" stroke-linejoin="round" stroke-miterlimit="10" stroke-width=".5" d="M144.91797 317.15625l2.39453-.54688m10.0586.42579l-.11329 7.02734m.11328-7.02734l2.1836-1.1172m13.41406 2.00782l-4.67969 5.24219m18.01172-.01172l-4.71094-5.21484m4.02344 4.45703l-.41797 1.15234m15.38281-1.83984l-6.6328-2.32422m5.66796 1.98437l.1836 1.21094m14.07812-.82031l-6.59766-2.42578m6.59766 2.42578l.33203 2.42969m13.19531-3.73438l-7.02343.17969m7.02343-.17969l1.20703 2.13672m12.10938-2.15625l-7.02344.21875m7.02344-.21875l1.21875 2.13281m12.08594-1.76562l-7.00781-.51172m7.0078.51172l.9922 2.2461m12.30468-2.95704L260.35156 321m6.96875-.90625l1.42188 2m11.70312-2.76172l-6.58984 2.4336m6.58984-2.4336l1.83203 1.63281m11.63282-1.10937l-6.89063 1.38281m6.89063-1.38281l1.55468 1.89844m11.75782-1.91797l-6.88282 1.42578m6.88282-1.42578l1.5664 1.88672m11.60156-2.39454l-6.58984 2.44141m6.58984-2.4414l1.83204 1.6328m11.51562-1.54687l-6.65234 2.26953m6.65234-2.26953l1.78906 1.67969m11.6797-1.02344l-6.96095.95313m5.94922-.8125l.71485.99219m13.57421.03906l-6.88671-1.38672m5.88671 1.1836l.35157 1.17577m13.8711-2.71875l-6.70313 2.10547m5.73046-1.80078l.8711.85938m13-2.04688l-5.86719 3.8711m5.86719-3.8711l2.15234 1.17188m-3.00781-.60938l1.07812.58594m12.58204-1.75781l-4.84766 5.08593m4.84766-5.08593l2.36328.66406m11.84765 3.03125l-6.64062-2.30078m5.67578 1.96484l.1875 1.21094m10.16406 1.4336l1.21875-6.92188M423.1836 323l-1.16797.3789m13.37891-5.99218l3.07031 6.32031m-2.62109-5.39844l.72266-.99218m15.76562.40234l-4.16797 5.65625m4.16797-5.65625l2.42578.35938m11.51953.24218l-5.42968 4.45703"/><g clip-path="url(#ao)"><path fill="none" stroke="#000" stroke-linecap="round" stroke-linejoin="round" stroke-miterlimit="10" stroke-width=".5" d="M466.27734 318.32031l2.26563.9414"/></g><g clip-path="url(#ap)"><path fill="none" stroke="#000" stroke-linecap="round" stroke-linejoin="round" stroke-miterlimit="10" stroke-width=".5" d="M465.48828 318.96875l2.26563.9414"/></g><path fill="none" stroke="#000" stroke-linecap="round" stroke-linejoin="round" stroke-miterlimit="10" stroke-width=".5" d="M464.69531 319.61719l1.13281.46875"/><path fill="#ff3030" fill-rule="evenodd" d="M366.74219 472.08594h7.6914V461.9414h-7.6914v10.14453"/><path fill="azure" fill-rule="evenodd" d="M368.57422 463.77344h.83203v5.73828h3.19531v.74219h-4.02734v-6.48047"/><path fill="#ff3030" fill-rule="evenodd" d="M451.07031 458.77344h7.6914V448.625h-7.6914v10.14844"/><path fill="azure" fill-rule="evenodd" d="M452.90234 450.45703h.83204v5.74219h3.1953v.73828h-4.02734v-6.48047"/><path fill="#ff3030" fill-rule="evenodd" d="M264.66016 449.89453h7.6914V439.75h-7.6914v10.14453"/><path fill="azure" fill-rule="evenodd" d="M266.49219 441.58203h.83203v5.73828h3.19531v.74219h-4.02734v-6.48047"/><path fill="#ff3030" fill-rule="evenodd" d="M317.91797 441.01953h7.69531V430.8711h-7.69531v10.14844"/><path fill="azure" fill-rule="evenodd" d="M319.7539 432.70703h.83204v5.73828h3.1914v.73828h-4.02343v-6.47656"/><path fill="#00f" fill-rule="evenodd" d="M388.23828 436.57813h8.61719v-10.14454h-8.61719v10.14454"/><path fill="azure" fill-rule="evenodd" d="M390.07031 428.26563h.83594v2.82421h3.28516v-2.82421h.83203v6.48046h-.83203v-2.91406h-3.28516v2.91406h-.83594v-6.48046"/><path fill="#00f" fill-rule="evenodd" d="M219.58203 414.38672h8.61719v-10.14453h-8.61719v10.14453"/><path fill="azure" fill-rule="evenodd" d="M221.41406 406.07422h.83203v2.82422h3.28907v-2.82422h.83203v6.48047h-.83203v-2.91406h-3.28907v2.91406h-.83203v-6.48047"/><path fill="#ff3030" fill-rule="evenodd" d="M189.20703 370.0039h7.6914v-10.14452h-7.6914v10.14453"/><path fill="azure" fill-rule="evenodd" d="M191.03906 361.6914h.83594v5.73829h3.1914v.74219h-4.02734v-6.48047"/><path fill="#ffffe0" fill-rule="evenodd" d="M319.55078 378.55469h22.1836v-10.1914h-22.1836v10.1914"/><path fill-rule="evenodd" d="M323.05078 370.19531h.51172v6.29297h-.78906V372h-1.38672v-.55469l.5586-.0664.25-.0547.23046-.08593.20313-.14453.17578-.20703.14062-.29688.10547-.39453m4.8125 0l.23047.01953.21875.0547.21094.08983.19531.1211.1836.14844.17187.17578.30078.42187.24219.49219.17969.54688.11328.57812.03906.58984-.03906.59375-.11329.58594-.17968.55469-.24219.5-.30078.42969-.17188.17968-.18359.15235-.19531.125-.21094.08984-.21875.0586-.23047.01953-.22656-.01954-.21875-.05859-.21094-.08984-.19531-.125-.1836-.15235-.17187-.17968-.30078-.4297-.24219-.5-.17969-.55468-.11328-.58594-.03906-.59375h.83594l.02734.56641.08203.5039.125.44141.16406.375.19141.30078.21094.22266.22265.13672.22266.04687.22656-.04687.22266-.13672.21094-.22266.1914-.30078.16407-.375.125-.4414.08203-.50391.02734-.5664-.02734-.5586-.08203-.5-.125-.4375-.16407-.36719-.1914-.28906-.21094-.21484-.22266-.13282-.22656-.04296-.22265.04296-.22266.13282-.21094.21484-.1914.28906-.16407.36719-.125.4375-.08203.5-.02734.5586h-.83594l.03906-.58985.11328-.57813.1797-.54687.24218-.49219.30078-.42187.17188-.17578.18359-.14844.19531-.1211.21094-.08984.21875-.05469.22656-.01953m5.09375 0h.50781v6.29297h-.78515V372h-1.39063v-.55469l.5625-.0664.25-.0547.23047-.08593.20313-.14453.17578-.20703.14062-.29688.10547-.39453m2.82422 2.17578h.78516l.01953-.3164.0586-.28516.10155-.2539.14063-.21485.17969-.17578.22265-.1289.26563-.07813.3086-.02735.23827.01954.22266.0625.20312.10156.1797.14062.14843.17188.11328.20703.07422.23438.02344.26562-.02344.26953-.0625.22266-.11328.1914-.15235.17188-.20312.16406-.2461.16406-.6328.39063-.53907.3125-.4375.3164-.34766.32422-.26171.33594-.19141.35156-.125.3672-.0664.39452-.02344.41797h4.21093V375.75h-3.33203l.08594-.28516.11328-.23437.14844-.20313.1875-.17968.23047-.17188.27734-.17578.71875-.41797.41406-.20312.34375-.23047.28125-.2539.21875-.26563.16406-.27735.11329-.28515.0625-.28516.01953-.28125-.03906-.38281-.1211-.34766-.1914-.3086-.25-.26171-.30079-.21485-.34765-.15625-.3789-.09765-.40626-.03516-.4336.03125-.39843.10156-.35547.16407-.30469.23437-.25.30469-.18359.375-.11719.44531-.03906.51953"/><path fill="#ffffe0" fill-rule="evenodd" d="M197.20313 339.16797h22.17968v-10.1914h-22.17969v10.1914"/><path fill-rule="evenodd" d="M200.70313 330.8086h.5078v6.29296h-.78515v-4.48828h-1.39062v-.55469l.55859-.0664.2539-.05469.23048-.08594.20312-.14453.17188-.20703.14453-.29688.10547-.39453m4.8125 0l.23046.01954.21875.05468.20703.08985.19532.12109.1836.14844.17187.17578.30468.42187.2422.4922.17968.54687.10937.57812.03907.58985-.03907.59375-.10937.58593-.17969.55469-.24219.5-.30468.42969-.17188.17969-.1836.15234-.1953.125-.20704.08984-.21875.0586-.23047.01953-.23046-.01953-.21875-.0586-.20703-.08984-.19532-.125-.1836-.15235-.17187-.17968-.30468-.42969-.2422-.5-.17968-.55469-.10937-.58594-.03907-.59375h.83203l.03125.56641.07813.5039.1289.44141.16016.375.1914.30079.21095.22265.22265.13672.22656.04688.22657-.04688.22265-.13672.21094-.22265.1914-.30079.16016-.375.12891-.4414.08203-.5039.02734-.56642-.02734-.55859-.08203-.5-.1289-.4375-.16016-.36719-.1914-.28906-.21095-.21484-.22265-.13281-.22656-.04297-.22657.04296-.22265.13282-.21094.21484-.1914.28906-.16016.3672-.12891.4375-.07813.5-.03125.55858h-.83203l.03907-.58984.10937-.57812.17969-.54688.24219-.49219.30468-.42187.17188-.17578.1836-.14844.1953-.1211.20704-.08984.21875-.05469.23047-.01953m5.08984 0h.51172v6.29297h-.78906v-4.48828h-1.38672v-.55469l.55859-.0664.2539-.05469.22657-.08594.20703-.14453.17188-.20703.14062-.29688.10547-.39453m2.82422 2.17579h.78906l.01953-.31641.0586-.28516.09765-.2539.14063-.21485.18359-.17578.22266-.1289.26562-.07813.30469-.02734.23828.01953.22656.0625.20313.10156.17969.14063.14843.17187.11328.20703.07032.23438.02734.26562-.02344.26953-.0664.22266-.10938.1914-.15625.17188-.19922.16406-.2461.16406-.63671.39063-.53516.3125-.4375.3164-.34765.32423-.26563.33593-.1875.35156-.125.3672-.07031.39452-.01953.41797h4.21094v-.73828h-3.33203l.08203-.28515.11328-.23829.14844-.19921.1875-.1797.23046-.17187.27735-.17578.71875-.41797.41406-.20312.34766-.23047.28125-.2539.21875-.26563.16406-.27735.10937-.28515.06641-.28516.01953-.28125-.04297-.38281-.1211-.34766-.1875-.3086-.25-.26171-.30468-.21484-.34375-.15625-.3789-.09766-.41016-.03516-.4336.03125-.39843.10157-.35547.16406-.30469.23437-.2461.3047-.1875.375-.11327.4453-.04297.51954"/><path fill="#ffffe0" fill-rule="evenodd" d="M351.32422 325.85156h22.17969v-10.1914h-22.1797v10.1914"/><path fill-rule="evenodd" d="M354.82031 317.49219h.51172v6.29687h-.78906v-4.49219h-1.38672v-.55468l.5586-.0664.2539-.05079.23047-.08984.20312-.14063.17188-.21094.14062-.29687.10547-.39453m4.8164 0l.22657.01953.22266.05469.20703.08984.19531.1211.1836.14843.17187.17578.30078.42188.2461.49219.17968.54687.10938.57813.03906.59375-.03906.58984-.10938.58594-.17969.55468-.24609.5-.30078.4297-.17188.17968-.18359.15234-.19531.125-.20703.08985-.22266.05859-.22656.01953-.23047-.01953-.21875-.0586-.20703-.08984-.19922-.125-.1836-.15234-.17187-.17969-.30078-.42969-.24219-.5-.17969-.55468-.11328-.58594-.03515-.58985h.83203l.02734.5625.08203.50391.125.44531.16407.375.1914.29688.21094.22265.22266.13672.22656.04688.22656-.04688.22266-.13671.21094-.22266.1914-.29688.16016-.375.125-.4453.08203-.50392.03125-.5625-.03125-.5625-.08203-.5-.125-.4375-.16016-.36328-.1914-.29296-.21094-.21485-.22266-.13281-.22656-.04297-.22656.04297-.22266.13281-.21094.21485-.1914.29296-.16407.36329-.125.4375-.08203.5-.02734.5625h-.83203l.03515-.59375.11329-.57813.17968-.54688.24219-.49218.30078-.42188.17188-.17578.18359-.14844.19922-.12109.20703-.08984.21875-.0547.23047-.01952m5.08984 0h.51172v6.29687h-.78906v-4.49219h-1.38672v-.55468l.5586-.0664.2539-.05079.22656-.08984.20313-.14063.17578-.21094.14062-.29687.10547-.39453m6.80469 1.6211h-.78516l-.05468-.21095-.07813-.1875-.10937-.16015-.12891-.1289-.14844-.10548-.16015-.07422-.16797-.04296-.17188-.01563-.32812.03906-.28516.1211-.2461.1953-.20702.26954-.16016.33594-.11328.40625-.07031.46484-.02344.52735.1875-.20313.1875-.15625.1836-.125.1875-.08594.1875-.0625.1914-.03515.40234-.02344.30469.02734.32031.09375.3164.15625.29688.21875.25391.28516.19922.34765.07422.20313.05078.21484.02734.23438.00781.2539-.78906.04688-.02734-.26172-.07813-.25-.12109-.23437-.16016-.21094-.1953-.17578-.21876-.13672-.23828-.08985-.25781-.03125-.2539.03125-.23829.08985-.22266.13672-.1914.17578-.16016.21094-.125.23437-.07422.25-.02734.26172.02734.25781.07422.25.125.23438.16016.21094.1914.17968.22266.13672.23828.08594.2539.03125.25782-.03125.23828-.08594.21875-.13672.19531-.17969.16016-.21093.1211-.23438.07812-.25.02734-.25781.78906-.04688-.03125.3711-.09375.3711-.15625.35937-.22265.32812-.28906.28125-.17188.1211-.1875.10156-.20703.08203-.22266.0625-.24218.03906-.26172.01172-.28125-.01562-.26172-.04688-.23828-.07812-.21485-.10547-.1953-.1289-.17188-.15626-.15625-.17969-.13282-.20312-.11718-.22266-.09766-.24219-.14844-.53515-.08594-.59375-.02734-.64063.03906-.74218.11329-.66407.1875-.57812.12109-.2539.13672-.23048.15234-.20703.17188-.1836.18359-.15624.20313-.1289.21875-.10157.23437-.07031.2461-.04688.26171-.01562.36719.03515.33203.09375.29297.15235.25781.19922.21094.24218.16406.27344.11719.30078.0625.32422"/></g></defs><use xlink:href="#aq"/></svg>