<svg xmlns="http://www.w3.org/2000/svg" role="img" xmlns:xlink="http://www.w3.org/1999/xlink" viewBox="142.45 309.95 326.84 171.84"><defs><clipPath id="a"><path d="M144 311.67188h1v168.65625h-1zm0 0"/></clipPath><clipPath id="b"><path d="M144 311.67188h324v168.65625H144zm0 0"/></clipPath><clipPath id="c"><path d="M467 311.67188h1v168.65625h-1zm0 0"/></clipPath><clipPath id="d"><path d="M144 479h4v1.32813h-4zm0 0"/></clipPath><clipPath id="e"><path d="M147 480h2v.32813h-2zm0 0"/></clipPath><clipPath id="f"><path d="M153 479h9v1.32813h-9zm0 0"/></clipPath><clipPath id="g"><path d="M160 480h2v.32813h-2zm0 0"/></clipPath><clipPath id="h"><path d="M166 479h9v1.32813h-9zm0 0"/></clipPath><clipPath id="i"><path d="M173 480h3v.32813h-3zm0 0"/></clipPath><clipPath id="j"><path d="M172 480h2v.32813h-2zm0 0"/></clipPath><clipPath id="k"><path d="M180 479h8v1.32813h-8zm0 0"/></clipPath><clipPath id="l"><path d="M187 480h2v.32813h-2zm0 0"/></clipPath><clipPath id="m"><path d="M186 480h2v.32813h-2zm0 0"/></clipPath><clipPath id="n"><path d="M193 479h8v1.32813h-8zm0 0"/></clipPath><clipPath id="o"><path d="M200 480h2v.32813h-2zm0 0"/></clipPath><clipPath id="p"><path d="M199 480h2v.32813h-2zm0 0"/></clipPath><clipPath id="q"><path d="M206 479h9v1.32813h-9zm0 0"/></clipPath><clipPath id="r"><path d="M213 480h3v.32813h-3zm0 0"/></clipPath><clipPath id="s"><path d="M212 480h2v.32813h-2zm0 0"/></clipPath><clipPath id="t"><path d="M220 479h8v1.32813h-8zm0 0"/></clipPath><clipPath id="u"><path d="M227 480h2v.32813h-2zm0 0"/></clipPath><clipPath id="v"><path d="M233 479h8v1.32813h-8zm0 0"/></clipPath><clipPath id="w"><path d="M240 480h2v.32813h-2zm0 0"/></clipPath><clipPath id="x"><path d="M246 479h9v1.32813h-9zm0 0"/></clipPath><clipPath id="y"><path d="M253 480h3v.32813h-3zm0 0"/></clipPath><clipPath id="z"><path d="M260 479h8v1.32813h-8zm0 0"/></clipPath><clipPath id="A"><path d="M266 480h1v.32813h-1zm0 0"/></clipPath><clipPath id="B"><path d="M273 479h8v1.32813h-8zm0 0"/></clipPath><clipPath id="C"><path d="M279 480h2v.32813h-2zm0 0"/></clipPath><clipPath id="D"><path d="M286 479h9v1.32813h-9zm0 0"/></clipPath><clipPath id="E"><path d="M292 480h2v.32813h-2zm0 0"/></clipPath><clipPath id="F"><path d="M302 479h4v1.32813h-4zm0 0"/></clipPath><clipPath id="G"><path d="M314 477h6v3.32813h-6zm0 0"/></clipPath><clipPath id="H"><path d="M327 478h7v2.32813h-7zm0 0"/></clipPath><clipPath id="I"><path d="M340 478h7v2.32813h-7zm0 0"/></clipPath><clipPath id="J"><path d="M353 478h8v2.32813h-8zm0 0"/></clipPath><clipPath id="K"><path d="M366 478h8v2.32813h-8zm0 0"/></clipPath><clipPath id="L"><path d="M380 478h8v2.32813h-8zm0 0"/></clipPath><clipPath id="M"><path d="M393 480h8v.32813h-8zm0 0"/></clipPath><clipPath id="N"><path d="M392 477h2v3.32813h-2zm0 0"/></clipPath><clipPath id="O"><path d="M393 479h2v1.32813h-2zm0 0"/></clipPath><clipPath id="P"><path d="M406 479h9v1.32813h-9zm0 0"/></clipPath><clipPath id="Q"><path d="M405 478h3v2.32813h-3zm0 0"/></clipPath><clipPath id="R"><path d="M406 479h3v1.32813h-3zm0 0"/></clipPath><clipPath id="S"><path d="M420 478h8v2.32813h-8zm0 0"/></clipPath><clipPath id="T"><path d="M434 477h5v3.32813h-5zm0 0"/></clipPath><clipPath id="U"><path d="M448 476h4v4.32813h-4zm0 0"/></clipPath><clipPath id="V"><path d="M461 477h5v3.32813h-5zm0 0"/></clipPath><clipPath id="W"><path d="M144 465h4v4h-4zm0 0"/></clipPath><clipPath id="X"><path d="M144 452h4v3h-4zm0 0"/></clipPath><clipPath id="Y"><path d="M144 440h4v1h-4zm0 0"/></clipPath><clipPath id="Z"><path d="M144 426h4v2h-4zm0 0"/></clipPath><clipPath id="aa"><path d="M144 412h4v3h-4zm0 0"/></clipPath><clipPath id="ab"><path d="M465 410h3v2h-3zm0 0"/></clipPath><clipPath id="ac"><path d="M144 398h4v4h-4zm0 0"/></clipPath><clipPath id="ad"><path d="M465 397h3v3h-3zm0 0"/></clipPath><clipPath id="ae"><path d="M144 385h4v4h-4zm0 0"/></clipPath><clipPath id="af"><path d="M466 384h2v3h-2zm0 0"/></clipPath><clipPath id="ag"><path d="M144 371h4v5h-4zm0 0"/></clipPath><clipPath id="ah"><path d="M466 371h2v2h-2zm0 0"/></clipPath><clipPath id="ai"><path d="M144 358h4v5h-4zm0 0"/></clipPath><clipPath id="aj"><path d="M466 358h2v3h-2zm0 0"/></clipPath><clipPath id="ak"><path d="M465 358h3v3h-3zm0 0"/></clipPath><clipPath id="al"><path d="M144 344h3v6h-3zm0 0"/></clipPath><clipPath id="am"><path d="M466 345h2v3h-2zm0 0"/></clipPath><clipPath id="an"><path d="M465 345h3v3h-3zm0 0"/></clipPath><clipPath id="ao"><path d="M144 330h2v8h-2zm0 0"/></clipPath><clipPath id="ap"><path d="M466 331h2v2h-2zm0 0"/></clipPath><clipPath id="aq"><path d="M465 332h3v2h-3zm0 0"/></clipPath><clipPath id="ar"><path d="M144 317h3v7h-3zm0 0"/></clipPath><clipPath id="as"><path d="M465 317h3v2h-3zm0 0"/></clipPath><g id="at" clip-path="url(#clip1)"><path fill="#fff" fill-opacity="0" fill-rule="evenodd" d="M0 0h1000v1000H0zm0 0"/><path fill="#d3d3d3" fill-opacity="0" fill-rule="evenodd" d="M162.15234 355.86719l-.23437.29297.0586.23437.11718.17188.17578.23437.29297.34766.11328.0586.11719-.17188.0586-.23438.17577-.17578.46485-.17578h.69922l.23437.29297.28906.8164.0586.17579.17578.23046.35156.23438.69922.69922.17188.17578.23437.34765.23438.41016.28906.58203.41015.46485.23047.23437.23438.17578.11719.23047.17578.29297.17187 1.16406v.23438l.0586.28906.05859.11719.11719.11719.34765.41015.11719.17188.17578.17578.17578.23437.11719.17188.17188.35156.05859.23438.23437.40625.23438-.0586-.17578.17578-.0586.92969h-.58203l-.23437-.11328-.34766.11328-.11719.11719-.05859.29297-.0586.17578-.11718.17187-.46484.29297-.0586.23438-.0586.11328v.64453l.0586.17187v.41016l.0586.0586v.40624l.05859.40625.11719.17579.05859.05859.23047.64062-.0586.29297v.69922l-.05859.58203v.23438l-.0586.23047-.05468.35156v1.92187l.05469.1172h.42578l-.36719.11718-.02344.35156.89063 1.16797 1.74219.53906 1.33984.35938v.53906l.08984.8086.53516.71484 1.51953.26953.89063-.08594.08984 1.16406.53516.1797 1.16015-.1797 2.05469-.98437 1.16016-.36328 1.8789-.17578 1.69531-.1797-.17968.71876-1.51563.08594-1.25.08984-.80469.26953-1.07421.8086.26953.71875.53515.89843-.17968.625-.26563.8086.26563 1.07812.625.89844.80468.17969 1.25-.1797-.26562.72267.09766.5039.05468.29297v.17188l.0586.29296v.40625l.17578.1172.35156.11718h.40625l.29297-.17578.11328-.11719.0586-.11719.11718-.23047.0586-.17578.35156-.46484.23047-.17578.17578-.0586.17578.0586.0586.17578.11718.98828.05469.46875.0586.17188.11718.23437.17578.0586.8164.05859h.28907l.11719.23437.05859.40625.0586.35156v1.10547l.11718.29297.11719.34766.28906.69922.17578.35156.58203.7539.35157.17579.17187.0586.46875.23437.64063.46484.34765.23438.29297.17578.29297.05468.23047.0625.8164.34766.29297.17578.11328.17188.35157.35156.11719.17578.52343.64063v.28906l.0586.35156v.34766l.05859.35156.0586.28906.11718.0586.17188.05859h.17578l.58203.23437.17578.1172.17578.28905.17578.23438.11328.23437.29297.23047.11719.11719v.41016l.0586.05468.28906.23438.23437.11719.0586.11718.11718.17188.0586.11719.23047.23437.05859.17578.23437.0586.1172.05859-.1172.11328-.05859.11719v.11719l-.11719.29296-.11719.28907v.58203l.17579.11719.11718.05859.0586.11719.11719.11719.11328.05859.17578.34765.0586.35157.05858.40625v.17578l-.05859.17578-.11719.69922v.17187l.1172.17579.29296.29296h.40625l.17578.1172.11719.17187.11719.29296v.23438h-.52735l-.23047-.23438h-.23437l-.17578.0586-.0586.69922.0586.34765.11719.17579.17578.41015.11718.23047.28907.46875.17578.05469h.52344l.23437.0586.75781.64062.0586.29296v.23438l.05859.0586.23047.34765v.35156l-.11719.17188v.29297l.29297.28906.29297.17578.17187.0586.29297.17577.29297.1172.58203.40624.28906.23438.29297.17578.21875.16015.01563.01172.23047.17579.64062.52343.17578.23438.1172.17578.17577.17578.11328.17188v.64062l.1172.17578.46874.11719.58203.11719.23438.05859.23047.11328.29297.11719.11328.0586.58593.35156.28907.17187.17578.0625.17578.05469.17578.0586.69922.35155.28906.17579.23438.05468.28906.17578.23437.1172.64063.40624.29297.11719.17187.0586.23438.05859.41015.05859.23047.0586.23438.11718.0586.17188-.41017.17578.46875.0586.0586.29296.11328.23438.17578.05468.23438.0586.17578.05859.40625.11719.64062.23437.11719.17188.0586.23437v.17578l-.0586.1172-.0586.40624.23438.23438.11719.05859.34766.11719.64062.23047.17578.11718.28906.1172.17578.17577.23438.46485.58203 1.10546.17578.17579.34766.17578.17578.11719.35156.11718 1.04688.52344.23437.0586.46485.11327.29297.0586.46484.17578.75781.58203.23438.23438.34765.46484.17578.17578.28907.23438.8164.69921.29297.17579.28906.28906.29297.17578.29297.28906.69531.64063.17578.17578.29297.23437.28907.23438.46875.28906.64062.58203.34766.23438.23437.29297.34766.34765.35156.46485.9336.99218.34765.40625.11719.17579.23437.05859.11328.11719.64454.17578.23047.11328.23437.0586.29297.17577.23047.1172.9336.69921.40624.40625.23438.17578.40625.17578.23437.11719.8164.34766.34766.23437.23438.11719.29297.28906.23047.11719.7578.35156.35157.17188.23047.05859.29297.11719.23437.0586.8711.17577h.8164l.46875.23047.17188.0586.875.69921.46484.1172.29297.05858.17578.0586.23047.0586.46875.05859.34766.05859.35156.0586.40625.05859h.29297l.17187.0586v.23046l.17578.17578h.29297l.34766.0586.35156.05859.69922.11719h.64063l.46484-.23438.29297-.17578.17187-.11719.41016-.17187.28906-.17578.9336-.46485.46875-.29297.52343-.29296.46485-.17188.46484-.17578 1.05078-.46485.28906-.11718.41016-.11719.28906-.11719.52735-.17578 1.51562-.69922.58203-.34765.28907-.0586.29297-.0586.34765-.11718.875-.23047.35156-.11719h.11329l.23437-.05859.875-.23437.23438-.0586h.8125l.35156-.0586.8164-.11718.17188-.0586.35156-.05468.29297-.0586.23047-.05859.8164-.17578.17579-.0586h.34765l.23438-.05859.46484-.11718.75781-.17188.23438-.0586h.34765l.41016-.11718.28906-.0586 1.28516-.05859h.28906l.41016-.0586.23047-.05858h.17578l.875-.1172h.40625l.41015-.11718h.34766l.35156-.11328.8711-.0586h1.75l1.04687.28907.41016.11719.28906.11718.35156.11719.28907.11719 1.05078.17187.28906.0586h.29297l.29297.05859.17187.0586.41016.05859.17187.0586.1172.05858h.11718l.11719.0586.35156.0586h.11328l.41016.0664 1.92187.39453 1.92578.39453 1.51953.44922 1.69532.71875 2.14453.80469 1.60547-.71875 1.42968-.80469 1.16016-1.07813 1.25-.44921 3.03516-.71875 1.875-.35938 2.14453-1.34765 2.23437-1.25391 2.5-1.25781 1.69531-.44922 1.78516-.17969 1.16016-.26953.625.53906 1.33984-.26953.71485-.98828.98437-1.34375.44531-.17969.80469-.35937 1.875-.53907 1.78516-.44921 1.25-.26954 1.16015-.08984 1.69922-.08984 1.96094-.26954 1.25-.08984h.53906l.625-.08984h.89063l2.14453-.17969 2.41015-.17969 2.58985-.08984 1.69531.17969 1.60938.08984 1.42968.35938 1.16016.71875 1.875.98828 1.16015 1.52734.26563.71484.6289.08985.35548.89844.53515.53906.53516 1.52734 1.07422.35938h.53515l-.80469.53515.08985 1.70703.71484 2.69532.89063.80468.89453.98829.71484 1.2578 1.78516.53907 1.51953-.17969.35547 1.34375 1.60937-.80469.98047-.53906.26953.26953.31641-.21484.21875-.14453.80078.44922.44922-.35938h.35547l.53515-.26953.53907-.71875.53515-.26953.625-.98828 1.16016.44922.83984.3711 1.39454.61718 1.6953-.17969h1.60548l1.78515.08985.17969-1.70704.53516-1.34375.80468.26954.4922.84765.40233.40625-.08984.53906v.35938l.71485.44922.71093-.26953h1.42969l.35938.98828.4453 1.25781.71485 1.34375 1.25.6289 1.69531.62891.71485-.17969.17969-.53906.98046-.08984.44922.35937.08594 1.25782-.26563.6289-.53515.17969v.53906l.71484.98438.26563.53906.98437.98828.80078 1.07813-.26562.35937-.08985.89844-.625 2.33203-.35546 2.0664-.08985 1.79298-.17969.71875-.08984.53906v1.4375l-.98047 1.88281-.35937 1.70703-.53516.89844-.80469 1.16797-.26562.53906 2.05469 1.2539.08593.35938-.35546.53906-.08985-.17968v.80859l.08985 1.4375-.44532.71484-1.07422.09375-.26562.71485.53515.89844.8047.71875 1.16015.80859 1.33984.26953.44531.35938-.35546.44921-1.78907-.08984-1.25-.44922-.71484-.71875-.625-.08984-.17578 3.58984-.1875 1.3086h89.35937V311.70313h-55.26953v49.08203l.76172.125 3.28906.54296 2.02344 2.83594v2.7539l2.35156.33204 2.34766.33203h4.05078l-1.3789 4.16016-2.02344.70703-2.02344.70312-.54297.34375-2.59375 1.6172-.1875.11718-2.02344-2.07813-.73046-2.74218-2.67188-2.07813-1.375-3.5-.0664-.08203-1.95704-2.67188 2.75-1.41796v-49.08204H294.42187v91.41407l.1172.03125.1328.01172.07422.07421.10547.04688.08985.0586.08593.05859.08985.0586.29687.29687.0586.08984.03125.11719.02734.11719.01563.13671-.03125.1172-.0586.08983-.0586.08594-.04296.10547-.04688.10156-.02734.1211v.14453l.17578.26953.14844.14844.07422.08594.07422.07421.04296.10547.0625.08985.0586.08593.04297.10547.0586.08985.04687.10156.04296.10547.0586.08594.11719.17968.07421.07422.0625.08594.0586.08984.04297.10547.0586.08985.05858.08593.0625.08985.0586.08984.04297.10156.11719.17969.07421.07422.0586.08594.07422.07421.08984.0586.10547.04687h.14844l.1328-.01562.13282.01562.10156-.04687.07422-.07422.04688-.10156-.01563-.13281v-.14844l-.04687-.10547-.02735-.11719-.04687-.10156-.02735-.1211-.04296-.10156-.0625-.08984-.04297-.10156-.04297-.10547-.03125-.11719-.01563-.13281-.01171-.13672.08593-.0586.0586-.08593.12109-.03125.04297.10547.01562.1328v.1172l.0586.10156.0586.08984.08983.0586.14844.14843.0586.08985.04296.10547-.01171.10156.08593.0586.10547.04687.08594.0586.08984.05858.07422.07422-.11719.02735-.10546.04687-.08594.0586-.07422.07421-.0586.08985-.0625.08594-.02734.12109-.04687.10156-.04297.10547-.03125.11719-.01172.13281-.01563.13281v.14844l.02735.11719.04687.10547.04297.10156.0586.08984.07421.07422.08985.0586.07422.07421.08984.0586.0586.08984.04296.10547.04688.10156.11719.03125.1328.01563h.14845l.11718-.03125.10547.04297.04297.10547.04688.10156.02734.1211L299.5 410l.02734.11719.03125.1211.02735.11718.10547.04297.10156.04687.13281-.01562.14844.14844.0625.08593.07422.07422.07031.07422.08984.0625.10547.04297.10156.04297.1172.03125.13671.01562.11719-.03125.07422-.07422.02734-.11718-.01172-.13282-.03125-.12109-.02734-.11719.04297-.10547h.11719l.08984.0625.11719.02735h.14843l.13282.01562h.14843l.13282.01563.1328-.01563h.14845l.1328-.01562.13282-.01172.13672.01172.11719-.02735.13281-.01562.1914-.0586-.05859.17579-.01562.1328-.02735.1211-.01562.13281-.0586.08594-.1328.01563-.10548.04687-.10546.04297-.1172.03125-.11718.02735-.26563.03125h-.14843l-.13281.01562-.07422.07422.05859.08594.14844.14843.11719.1797.07421.0703.08985.0625.08984.0586.08594.0586.08984.05858.10156.04297.10547.0625.10547.04297.08594.0586.10547.04687.10156.04297.17969.11719.0586.08984-.04298.10156-.04687.10547.01562.13281.22266.22266.0586.08985.04296.10156.03125.1211.04297.10155.01563.13282.03125.11718.01171.13672.03125.11719.14844.14844.10156.04297.10547.04296.1172.03125.1328.01563.13672.01563h.11719l.11719-.03125.08984-.0586.04297-.10547.04688-.10156.04296-.10547.03125-.11719.01172-.1328v-.14845l-.01172-.1328-.01562-.13282-.03125-.11719-.04297-.10547-.04688-.10547-.04296-.10156-.04297-.10547-.01563-.13281.01563-.13281.02734-.11719.03125-.11719.02735-.1211.04687-.10155.08984-.0586.08594-.0625.07422-.07422.08984-.05859.22266-.22266.0586-.08593.07421-.07422.11719-.17969.0586-.08594v-.14844l-.07423-.07421-.10156-.04688-.10547-.04297-.10156-.04297-.0586-.08984-.04687-.10547-.02734-.11719.08984-.05859.11719-.03125.10156-.04297.17969-.11719.14844-.14843.01172-.13282-.01172-.10546-.08985-.0586-.1328.01563h-.14845l-.1328.01562-.13282-.01562-.1211-.03125-.08593-.0586-.07422-.07422-.0586-.08984-.0625-.08594-.11718-.17969-.0586-.08593.03125-.1211.08594-.05859.1211-.03125.05859-.08594v-.1211l-.03125-.11718-.0586-.08984-.05859-.08594-.04687-.10547-.02735-.11719-.01562-.1328.0586-.08985.07421-.07422.08984-.0586.1172-.17968.07421-.07422.0586-.08594.14843-.14844.1211-.03125.1328-.01562.13282.01562.07422.07422.04297.10547.01562.13281-.03125.1172-.11719.03124-.1328.01172-.14844.14844-.04297.10547-.04688.10156-.02734.1211-.03125.11718v.14844l.03125.11719.04297.10546.05859.08985.07422.07031.07422.07422.11719.03125.12109.02734.11719-.02734.1328-.01563h.1172l.08984.0586.07422.07422.04687.10546.0586.08594.10156.04688.13281.01562.10547.04297.08594.0586-.01172.10546-.07422.07422-.17969.11719-.05859.08984-.08984.0586-.07032.07422-.07421.07421-.0625.08985-.02735.11719-.01562.1328.01562.13282-.01562.13281v.14844l.01562.13281.02735.1172.03125.12108.07421.07422.08985.0586.08594.0586.08984.05858.11719.03125v.08594l-.10157.04688-.08984.0586-.26563.03124-.11718.02735h-.14844l-.10547.04296-.10156.04688-.0586.08984-.0625.23438-.01171.13281-.03125.1211-.01563.1328v.29298l-.01172.1328.01172.13673.01563.1328.1328.01563.13282.01172.1211.03125.08593.0586.07422.07421.04688.10547.04296.10157.01563.1328v.44532l-.01563.13281v.44532l.03125.26562.02735.11719.01562.13281.03125.11719.08594.21094.03125.26562v.14844l-.03125.11719-.02734.11718-.03125.1211-.02735.11719-.03125.11718-.03125.1211-.01171.1328-.01563.13282.08984.0586.1172-.03125.10155.01562.04688.10547-.03125.26562v.44141l-.04297.10547-.04688.10547-.04296.10156-.04297.10547-.0586.08594-.03125.12109-.04296.11719-.03125.11719-.01563.1328.01563.13282.05859.08984.10547.04688.08594.0586.05859.08593-.01172.13672-.03125.11719-.04297.10156v.44531l-.01562.13281v.14844l-.03125.11719-.04297.10547-.02735.11719-.04687.10546-.04297.10157-.03125.12109-.02734.11719-.03125.13281-.03125.11719-.02735.11719-.04297.10546-.03125.1172-.03125.12108-.01171.13282-.01563.13281v.29688l.02734.11718v.14844l.04688.39844.02734.11719.0586.08984.12109.03125h.14844l.13281-.01563.0586.08985v.11719l-.0586.08984-.08984.0586-.10157.04296-.10546.04688-.08985.05859-.08594.0586-.13671.01562-.1172-.03125-.1328-.01563-.10157.04688-.0625.08594-.01172.13671-.01562.13282-.03125.11719-.02735.11718-.01562.13281-.03125.1211v.29687l.01563.13282.03125.11718v.14844l.01171.13281v.14844l-.02734.11719-.04688.10156-.02734.1211-.03125.11718-.0586.08985-.07421.07421-.10156.04297-.10547.04688-.11719.02734-.1211.03125-.10156-.04687.0586-.08594.10547-.04688.02734-.11718.03125-.11719.02734-.1211.03125-.11718v-.14844l.01563-.13281-.03125-.11719-.04297-.10547-.10547.01563-.07422.07422-.10156.04296-.08984.0625-.07422.07422-.04297.10157-.01563.1328-.03125.1172L304.25 426l-.03125.11719-.02734.11719-.03125.12109-.02735.11719-.03125.11718-.04297.10547-.08984.0586h-.08984l-.1172-.03125-.03124-.08594.01562-.13672-.03125-.11719v-.14844l-.01171-.1328v-.14844l-.0625-.23438-.02735-.1211-.04297-.10156-.04687-.10546-.0586-.08594-.05859-.08985-.04297-.10546-.0625-.08594-.14844-.14844-.0703-.07422-.10548-.04687-.10547-.04297-.10156-.04297-.29687-.29688-.08985-.07421-.08594-.0586-.10546-.04297-.08985-.0625-.08594-.0586-.10546-.04296-.08985-.0586-.08594-.0625-.07421-.0703-.10547-.04688-.08594-.0586-.10547-.04296-.08984-.0625-.10156-.04297-.10547-.04297-.08594-.0586-.10547-.04687-.10547-.04297-.10156-.04687-.08985-.0586-.10156-.04297-.10547-.04296-.08984-.0625-.11719-.02735-.13281-.01562-.13281.01562H299.75l-.13281.01563-.11719-.03125-.08984-.0586-.07422-.07422-.08985-.05859-.10156-.04688h-.14844l-.12109-.02734-.10156-.04297-.07422-.07422-.11719-.17968-.08984-.0586-.10156-.04297-.08985-.0625-.10547-.04296-.08984-.0586-.08594-.0586-.10547-.04687-.0586-.08594-.05858-.08984-.04297-.10547-.04688-.10156-.07422-.07422-.08594-.0586-.07421-.07421-.08985-.0586-.22265-.22265-.04297-.10547-.03125-.26563.10547-.04296h.14453l.10547.04296.07421.07422.08985.0586.08594.0586.10546.04687.08985.05859.14844.14844.0703.07422.14845.14843.0625.08594.07421.07422.08594.0586.07422.07421.08985.0625.08984.0586.08594.05859.26953.17578.10156.04688.10547.04296.10156.04297.04688-.07421.05859-.08594.07422-.07422.07031-.07422.10547.04297.07422.07422.0586.08984.04296.10156.04688.10547.04296.10547.1211.02735.11719-.02735.07421-.08984.04297-.10547.0586-.08985.07422-.07421.10546-.04297.1172-.02735.1328.01172.08985.0586.14844.14843.05859.08985.04297.10547.04687.10156.04297.10547.04297.10156.10547.04688.10547.04296.13281.01563.08594-.0586.0586-.08984.07421-.07422.10547-.04297.11719.02735.10547.04687.10156.04297.10547.04297.10156.04688.17969.11718v.11719l-.01563.13281.01563.13281.01562.13672.0586.08594.10156.04688.1211.02734.11718.03125h.14844l.11719-.03125.05859-.08984.17969-.1172.05859-.08983.07422-.07422.0586-.08594.11718-.17969.17969-.11719.11719.03125.08984.0586.04297.07422-.01563.1328v.1172l.08985.05859h.14843l.13282-.01563.1328-.01171.26563-.03125.10547-.04297.11719-.03125.1211-.02735.07421-.07421.07031-.07422.0625-.08985-.01562-.10547-.04688-.10156-.10156-.04297-.10547-.01562-.11718.02734-.26563.03125h-.14844l-.07421-.07422-.08985-.0586-.11719-.03124-.11718-.02735-.13282-.01562h-.14843l-.13282.01563h-.29687l-.10547-.04688-.14844-.14844-.04297-.10156-.05859-.08984.22266-.22266.08593-.0586.10547-.04296.11719-.03125.13281-.01563.13281.01563.13672.01562.10157.04297.1328-.01172.08985-.0625.10156-.04297.0625-.08984-.04687-.10156-.08984-.0586-.1172-.03125-.10155-.04296-.0586-.08985-.0625-.08984v-.11719l.01563-.13281.10547-.04688.07421-.07031v-.1211l-.08984-.05859-.03125-.11719.08985-.05859.07421-.07422.04297-.10547.0586-.08984.04687-.10156.01563-.13281v-.14844l-.04688-.10547-.04297-.10156-.08984-.0586-.13281-.01562-.10157-.04297-.13671-.01563-.1172-.03125h-.4453l-.13282-.01562-.13281-.01172-.13281-.01563-.11719-.03125h-.14844l-.13281-.01562-.13281-.01172-.26563-.03125-.1211-.04297-.08593-.0586-.07422-.07421v-.14844l.01172-.13281.10547-.04688.10156-.04296.13281-.01563h.15235l.13281-.01562h.29297l.1211.03125.10156.04296.08984.0586.23438.0625.12109-.04688.08984-.05859.10156-.04297.13282-.01562.10547.04296.10156.04688.13281.01172.1211-.02735h.14453l.12109-.03125.11719-.02734.10547-.04687.07421-.07422.08594-.0586.14844-.14843.0586-.08594.04687-.10547.02734-.11719.01563-.10547-.10156-.04296-.08985-.0586-.11719-.03125-.10546-.04297-.08985-.0625-.07422-.08594-.07422-.07421-.10156-.04297-.10547-.04688-.10156-.04297-.0586-.08984-.04687-.10156-.08594-.21094-.0625-.08594-.05859-.08984-.07422-.07422-.08594-.0586h-.26953l-.11719.03126-.08984.05859-.10156.04297-.13281.01562-.10547-.01562-.02735-.11719-.0625-.08984-.11718-.03125-.10157-.04297-.14843-.14844-.03125-.11719-.01563-.10546.07422-.07422.17969-.1172.11719-.02733.11718-.03125.13672.01562.10156.04297.10547.04297.10156.04687.10547.04297.1172.03125.1328.01563.1172.02734.1328.01563.10547-.01563.08985-.0586-.07422-.07421-.10547-.04297-.07422-.07422-.07422-.08984-.14844-.14844-.08593-.0586-.08985-.05859-.07422-.07422-.08984-.0586-.10156-.04687-.1211-.02734-.10156-.04688-.10547-.04296-.11719-.03125-.10156-.04297-.1211-.03125h-.14843l-.11719.03125-.10546.04297-.08594.0625-.17969.11718-.08594.0586-.08984.0586-.10547.04687-.08594.05859-.10547.04297-.10156.04297-.10547.04687-.07422.07422-.05859.08985-.0586.08593-.04687.10547-.0586.08594-.07421.07422-.13281-.01172-.1172-.03125h-.11718l-.07422.07422-.08984.0586-.07422.07421-.08984.0586-.08594.05859-.10547.04687-.10156.04297-.13672.01563-.10156-.04297-.14844-.14844-.10547-.04688h-.08594l-.10547.04688-.10156.04297-.1211.03125-.11718-.03125-.07422-.07422v-.11719l.03125-.1211.07422-.0703.0586-.08985.07421-.07422.11719-.03125.10547-.04296h.29297l.13281-.01563.13672-.01563.10156-.04296.08985-.0586.10156-.04687.08984-.0586.13281-.01171.08985.05859.13281.01172.08984-.0586.08594-.05859.10547-.04297.08984-.0586.08594-.0625.08985-.05859.14843-.14843.0586-.08594.05859-.08985.10547-.04296.13281-.01563.11719.02735.1211.03125.05859-.0586.05859-.08984.03125-.26563.02734-.11719.10547.01172.13281.01563.10157-.04297.08984-.0586.0586-.08984.07421-.07422.0586-.08984.04687-.10156.01172-.13281-.01172-.13282-.04687-.10547-.14844-.14843-.0586-.08985-.05859-.08594-.04297-.10546v-.44532l.01563-.1328v-.14845l.01172-.1328-.0586-.0586-.08984.0586-.10156-.04298-.17969-.11719-.08594-.05859-.0625-.08984-.0586-.08985-.07421-.07421-.08594-.0586-.1211.03125-.10155.01172-.10547.04688-.08594.05859-.10547.04297-.14844.14844-.08984.05859-.08594.0586-.08984.0625-.10547.04296-.13281.01563v-.1211l.10547-.04297.11718-.03125.07422-.0703.04297-.10548v-.14844l-.02734-.11718-.14844-.14844-.13281-.01563h-.14844l-.11719.03125-.10547.04297-.10156.04297-.08984.0625-.11719.02735-.07422-.07422.01172-.13281-.04297-.10157-.04297-.10547-.08984-.05859-.11719.02734-.1211.03125-.11718.03125-.10156.04297-.1211.03125-.10156.04297-.10547.04297-.08984.0586-.10156.01562v-.11719l.01562-.13281-.0586-.08985-.07421.04297-.14844.14844-.0586.08985-.07421.07421-.04688.10547-.04296.10156-.07422.07422-.0586.08985-.07422.07422-.05859.08593-.07422.07422-.08984.0625-.07422.07031-.07422.07422-.10156.01563-.13281.01562-.10547-.04296v-.1211l.14843-.14844.04297-.10156.0586-.08984.04687-.10156.04297-.10547.0586-.08985.03124-.11719.04297-.10156.03125-.1211.02735-.11718.04687-.10547.04297-.10156.04297-.10547.07422-.07031.08984-.0625.08985-.0586.10156-.04296h.29687l.26563-.03125.10547-.04297-.07422-.07422-.11719-.03125-.10547-.04297-.08984-.0586-.10156-.04687-.08985-.0586-.10156-.04296-.10547-.04297-.08984-.0625-.08594-.0586-.10547-.04296-.10156-.04297-.1211-.03125-.11718-.03125-.10157-.04297L297.5 410.25l-.10156-.04297-.08985-.0586-.04296-.10546-.01563-.13281.10156-.04297.13281-.01563.13672.01563.13282-.01563.10156-.04297.0586-.08984.01562-.10547-.08985-.0586-.07421-.07421-.10157-.04297-.08984-.0586-.14844-.14843-.04297-.10547-.01562-.13281v-.29297l-.0586-.08985-.08984-.05859-.07422-.07422-.04297-.10547-.03125-.11718-.0586-.08985-.07421-.07422-.11719-.02734-.07422-.07422-.08984-.0586-.08984-.0625-.08594-.05859-.07422-.07421-.0586-.08594-.04687-.10547-.08594-.0586-.14843-.14843-.19532-.0586-.1328.01563-.10157.04297-.07422.07422-.04688.10156-.04296.10547-.0586.08984-.0586.08594-.29687.29687-.08984.0586h-.08594l-.0625-.08594-.04297-.10547.03125-.11719.0586-.08984.02734-.11719-.01172-.13281-.08984-.0625-.10547.04688-.11719.02734-.11719.03125-.26953.17578-.10156.04688-.11719.02734-.10546.04687-.08985.0586-.10156.04297-.0586-.08594-.04687-.10547.01563-.13281.04687-.10547.07031-.07422.07422-.07031.0586-.08985v-.14843l-.04297-.10547h-.23829l-.10156.04687-.03125.11719-.02734.11719-.03125.1211-.07422.04296-.13281.01563-.07422-.04688-.04297-.10156-.04297-.10547-.04687-.10156-.04297-.10547-.1211.03125-.10156.04297-.13281.01562-.11719.03125-.10547.04297-.08984.0586-.10156.04687-.1211.02734-.13281.01563-.10156-.04297-.0586-.08985-.04687-.10546-.04297-.10157-.04297-.10546v-.1172l.0586-.08984.08593-.05859.17969-.11719.10156-.04687.10547-.04297.10547-.0586.10156-.04296.08985-.0625.10156-.04297.10547-.0586.10156-.04687.08984-.0586.10547-.04296.10156-.04297.08985-.0625.10156-.04297.13672-.01563.11719.03125.10156.04297.1211.03125.10156.04297.10546.04688.10157.04296.10547.04297.10156.04688.10547.04297.10156.04297.10547.04687.08594.0586.10546.04296.1172.03125.10546.04297.10156.04688.08985.0586.10547.04296.10156.04297.10547.04687.11719.02735.10156.04687.1211.02735h.14843l.08594-.0586.01562-.10156.0586-.08984-.02735-.1172-.07422-.07421-.11719-.17969-.07421-.07422-.08985-.07421-.17969-.1172-.08593-.05859-.10547-.04296-.10156-.04688-.26954-.17578-.05859-.08985-.07422-.07421-.0586-.08985-.04296-.10156-.03125-.11719-.01563-.13672v-.5625l-.01171-.1328-.01563-.13282-.03125-.11719-.01562-.13281-.01172-.13281-.03125-.1211-.22266-.22265-.0586-.08594-.01562-.10547.03125-.11719.13281-.01562v-91.41406H172.9922v1.45312l-.0586.23438-.35156 1.05078-.17187.52343-.1172.34766-.17577.41016-.11719.17187-.23438.29297-.23046.0586h-.35157l-.11718.05859-.23047.40625v.29297l.11719.17578.23046.23047.1172.23437.64062.75781.29297.46485.17578.23437.23047.35156.23437.34766.64063.8164.17578.46485.17187.41016.11719.69531.17578.46875.11719 1.39844.0586.46484v.875l.11718 1.04688v4.78125l-.0586.46484-.35156 1.28125-.17578.52344-.11328.41015-.35156.9297L172.93359 336l-.23437.58203-.11719.17578-.17187.34766-.17578.40625-.35157.8164-.0586.29297-.11327.29297-.11719.28906-.0586.17579-.11718.875-.0586.40625-.05859.11718-.0586.17579-.05859.17187-.23047.52734-.11718.17188v.23437l-.11719.23438-.0586.17187-.17577.58594v.28906l-.0586.17579v.29296l-.0586.11329-.05859.52734v.17187l-.05468.23438v2.6211l-.17578.8164-.1172.17578-.17577.23438-.1172.17187-.11327.23438-.58594.93359-.23047.28906-.29297.46485-.17578.23437-.28906.35156-.35156.69922-.11328.23047-.17579.41016-.17578.23046-.40625.52735-.8164.69922-.29297.17187-.28906.23438-.17579.11719-.17578.17578-.52344.40625-.52734.17578-.17187.17578-.23438.05469-.64062.17578h-.75782m12.21094 31.02344l-1.07422.44921.35938.89454 1.25-.71485.44531-.53906-.98047-.08985"/><path fill="#d3d3d3" fill-opacity="0" fill-rule="evenodd" d="M201.50781 416.59766h-.89453l.44922.6289.98047.35938.80469-.08985.4453-.98828-.17577.08985-.71485-.35547-.89453.35547m154.6211 59.0703l-.0586-.52343v-.29297l.11328-.29297.0586-.23046.46875-.46875h.11328l.11719-.11329.11718-.05859h.17579l.23437-.0586h.34766l.23437.0586.11719.0586.23047.17187.0586.17578.11718.58203v.29297l-.11719.17578-.17187.28906-.17579.17579-.52734.52343-.23047.23438-.11719.0586h-.17578l-.11718-.0586-.40625-.29297-.17579-.11719-.11718-.0586-.0586-.11327-.05468-.1172m6.64062-10.95702l-.0586-.17188v-1.10937l.0586-.17188.17578-.0586.17188-.05858h.17578l.23437-.0586.1172.0586.05858.69921-.05859.17188-.11719.17578-.11718.0586-.23438.52343-.11328.0586h-.23438l-.05859-.1172m9.61328-14.39062l-.11719-.17578v-.69922l.29297-.875.1172-.17187.17577-.35156.11328-.23047.1172-.29297.35155-.75781.1172-.23047.17187-.23438h.17578l.11719-.0586h.64062l.11719.0586.23437.23438.17188.11328.35156.29297.11719.11718.11328.17579v.11328l.11719.05859.11718.11719v.69922l-.05859.17578v.23047l-.0586.17578-.34765 1.05078-.11719.23047-.11719.23437-.11718.0586-.23047.23437-.64063.28906h-.875l-.41015-.11718-.64063-.46485"/><path fill="none" stroke="#bebebe" stroke-linecap="round" stroke-linejoin="round" stroke-miterlimit="10" stroke-width=".5" d="M467.95703 311.69531H144.02734v168.625h323.9297v-168.625"/><g clip-path="url(#a)"><path fill="#fff" fill-opacity="0" fill-rule="evenodd" d="M144 475.89063v4.4375h.0039H144V311.67188h.0039H144v164.21875"/></g><g clip-path="url(#b)"><path fill="#fff" fill-opacity="0" fill-rule="evenodd" d="M144.0039 480.32813V311.67188h48.81641v144.62109l-4.4375.83203-1.1914 1.01172 1.1914 1.64453 4.4375.0586 2.52735-1.70313-2.52735-1.84375v-144.6211H467.9961v168.65625H144.00391"/></g><path fill="#50fcfc" fill-rule="evenodd" d="M188.38281 459.78125l-1.1914-1.64453 1.1914-1.01172 4.4375-.83203 2.52735 1.84375-2.52735 1.70312-4.4375-.05859"/><g clip-path="url(#c)"><path fill="#fff" fill-opacity="0" fill-rule="evenodd" d="M467.9961 480.32813H468V311.67188h-.0039H468v168.65625h-.0039"/></g><g clip-path="url(#d)"><path fill="none" stroke="#000" stroke-linecap="round" stroke-linejoin="round" stroke-miterlimit="10" stroke-width=".5" d="M147.47266 480.875l-6.94532-1.08984"/></g><g clip-path="url(#e)"><path fill="none" stroke="#000" stroke-linecap="round" stroke-linejoin="round" stroke-miterlimit="10" stroke-width=".5" d="M147.47266 480.875l.80078 2.3164"/></g><g clip-path="url(#f)"><path fill="none" stroke="#000" stroke-linecap="round" stroke-linejoin="round" stroke-miterlimit="10" stroke-width=".5" d="M160.76563 480.98438l-6.90235-1.3086"/></g><g clip-path="url(#g)"><path fill="none" stroke="#000" stroke-linecap="round" stroke-linejoin="round" stroke-miterlimit="10" stroke-width=".5" d="M160.76563 480.98438l.73046 2.34375"/></g><g clip-path="url(#h)"><path fill="none" stroke="#000" stroke-linecap="round" stroke-linejoin="round" stroke-miterlimit="10" stroke-width=".5" d="M174.07813 480.9961l-6.89844-1.33594"/></g><g clip-path="url(#i)"><path fill="none" stroke="#000" stroke-linecap="round" stroke-linejoin="round" stroke-miterlimit="10" stroke-width=".5" d="M174.07813 480.9961l.72265 2.34765"/></g><g clip-path="url(#j)"><path fill="none" stroke="#000" stroke-linecap="round" stroke-linejoin="round" stroke-miterlimit="10" stroke-width=".5" d="M173.07422 480.80078l.36328 1.17578"/></g><g clip-path="url(#k)"><path fill="none" stroke="#000" stroke-linecap="round" stroke-linejoin="round" stroke-miterlimit="10" stroke-width=".5" d="M187.39844 480.97656l-6.90625-1.29297"/></g><g clip-path="url(#l)"><path fill="none" stroke="#000" stroke-linecap="round" stroke-linejoin="round" stroke-miterlimit="10" stroke-width=".5" d="M187.39844 480.97656l.73437 2.33985"/></g><g clip-path="url(#m)"><path fill="none" stroke="#000" stroke-linecap="round" stroke-linejoin="round" stroke-miterlimit="10" stroke-width=".5" d="M186.39453 480.78906l.36719 1.16797"/></g><g clip-path="url(#n)"><path fill="none" stroke="#000" stroke-linecap="round" stroke-linejoin="round" stroke-miterlimit="10" stroke-width=".5" d="M200.75 480.72266l-6.98047-.78907"/></g><g clip-path="url(#o)"><path fill="none" stroke="#000" stroke-linecap="round" stroke-linejoin="round" stroke-miterlimit="10" stroke-width=".5" d="M200.75 480.72266l.90234 2.28125"/></g><g clip-path="url(#p)"><path fill="none" stroke="#000" stroke-linecap="round" stroke-linejoin="round" stroke-miterlimit="10" stroke-width=".5" d="M199.73438 480.60938l.45312 1.14062"/></g><g clip-path="url(#q)"><path fill="none" stroke="#000" stroke-linecap="round" stroke-linejoin="round" stroke-miterlimit="10" stroke-width=".5" d="M214.08203 480.52734l-7.01562-.39843"/></g><g clip-path="url(#r)"><path fill="none" stroke="#000" stroke-linecap="round" stroke-linejoin="round" stroke-miterlimit="10" stroke-width=".5" d="M214.08203 480.52734l1.02734 2.22657"/></g><g clip-path="url(#s)"><path fill="none" stroke="#000" stroke-linecap="round" stroke-linejoin="round" stroke-miterlimit="10" stroke-width=".5" d="M213.0625 480.46875l.51563 1.11328"/></g><g clip-path="url(#t)"><path fill="none" stroke="#000" stroke-linecap="round" stroke-linejoin="round" stroke-miterlimit="10" stroke-width=".5" d="M227.3125 481.125l-6.84375-1.59375"/></g><g clip-path="url(#u)"><path fill="none" stroke="#000" stroke-linecap="round" stroke-linejoin="round" stroke-miterlimit="10" stroke-width=".5" d="M227.3125 481.125l.6289 2.3711"/></g><g clip-path="url(#v)"><path fill="none" stroke="#000" stroke-linecap="round" stroke-linejoin="round" stroke-miterlimit="10" stroke-width=".5" d="M240.6914 480.75781l-6.97265-.85937"/></g><g clip-path="url(#w)"><path fill="none" stroke="#000" stroke-linecap="round" stroke-linejoin="round" stroke-miterlimit="10" stroke-width=".5" d="M240.6914 480.75781l.87891 2.29297"/></g><g clip-path="url(#x)"><path fill="none" stroke="#000" stroke-linecap="round" stroke-linejoin="round" stroke-miterlimit="10" stroke-width=".5" d="M253.98828 480.89844l-6.9336-1.13672"/></g><g clip-path="url(#y)"><path fill="none" stroke="#000" stroke-linecap="round" stroke-linejoin="round" stroke-miterlimit="10" stroke-width=".5" d="M253.98828 480.89844l.78516 2.32422"/></g><g clip-path="url(#z)"><path fill="none" stroke="#000" stroke-linecap="round" stroke-linejoin="round" stroke-miterlimit="10" stroke-width=".5" d="M267.30078 480.91406l-6.92969-1.17187"/></g><g clip-path="url(#A)"><path fill="none" stroke="#000" stroke-linecap="round" stroke-linejoin="round" stroke-miterlimit="10" stroke-width=".5" d="M266.29297 480.74219l.38672 1.16406"/></g><g clip-path="url(#B)"><path fill="none" stroke="#000" stroke-linecap="round" stroke-linejoin="round" stroke-miterlimit="10" stroke-width=".5" d="M280.64453 480.69531l-6.98828-.73437"/></g><g clip-path="url(#C)"><path fill="none" stroke="#000" stroke-linecap="round" stroke-linejoin="round" stroke-miterlimit="10" stroke-width=".5" d="M279.6289 480.58984l.45704 1.13672"/></g><g clip-path="url(#D)"><path fill="none" stroke="#000" stroke-linecap="round" stroke-linejoin="round" stroke-miterlimit="10" stroke-width=".5" d="M293.88672 481.125l-6.84375-1.59375"/></g><g clip-path="url(#E)"><path fill="none" stroke="#000" stroke-linecap="round" stroke-linejoin="round" stroke-miterlimit="10" stroke-width=".5" d="M292.89063 480.89453l.3164 1.1836"/></g><g clip-path="url(#F)"><path fill="none" stroke="#000" stroke-linecap="round" stroke-linejoin="round" stroke-miterlimit="10" stroke-width=".5" d="M304.80469 480.32813l-.01953-.19922-.0586-.19141-.09375-.17578-.46094-.3789-.1914-.0586-.19922-.01953-.19922.01953-.1914.0586-.46094.3789-.09375.17578-.0586.1914-.01953.19923.01953.19921.0586.19141.09375.17969.46094.375.1914.0586.19922.01952.19922-.01953.1914-.0586.46094-.375.09375-.17968.0586-.1914.01953-.19922"/></g><g clip-path="url(#G)"><path fill="none" stroke="#000" stroke-linecap="round" stroke-linejoin="round" stroke-miterlimit="10" stroke-width=".5" d="M314.48828 477.97266l5.21485 4.71093"/></g><path fill="none" stroke="#000" stroke-linecap="round" stroke-linejoin="round" stroke-miterlimit="10" stroke-width=".5" d="M315.25 478.65625l.29688-1.1875"/><g clip-path="url(#H)"><path fill="none" stroke="#000" stroke-linecap="round" stroke-linejoin="round" stroke-miterlimit="10" stroke-width=".5" d="M327.40625 478.50781l6.01172 3.64063"/></g><path fill="none" stroke="#000" stroke-linecap="round" stroke-linejoin="round" stroke-miterlimit="10" stroke-width=".5" d="M328.28125 479.03906l.0664-1.22656"/><g clip-path="url(#I)"><path fill="none" stroke="#000" stroke-linecap="round" stroke-linejoin="round" stroke-miterlimit="10" stroke-width=".5" d="M340.79688 478.39063l5.85937 3.875"/></g><path fill="none" stroke="#000" stroke-linecap="round" stroke-linejoin="round" stroke-miterlimit="10" stroke-width=".5" d="M340.79688 478.39063l.23046-2.44141"/><g clip-path="url(#J)"><path fill="none" stroke="#000" stroke-linecap="round" stroke-linejoin="round" stroke-miterlimit="10" stroke-width=".5" d="M354.1875 478.27734l5.70703 4.10157"/></g><path fill="none" stroke="#000" stroke-linecap="round" stroke-linejoin="round" stroke-miterlimit="10" stroke-width=".5" d="M354.1875 478.27734l.32813-2.42968"/><g clip-path="url(#K)"><path fill="none" stroke="#000" stroke-linecap="round" stroke-linejoin="round" stroke-miterlimit="10" stroke-width=".5" d="M367.19531 478.79297l6.32031 3.07031"/></g><path fill="none" stroke="#000" stroke-linecap="round" stroke-linejoin="round" stroke-miterlimit="10" stroke-width=".5" d="M367.19531 478.79297l-.08984-2.44922"/><g clip-path="url(#L)"><path fill="none" stroke="#000" stroke-linecap="round" stroke-linejoin="round" stroke-miterlimit="10" stroke-width=".5" d="M380.39063 479.07031l6.5625 2.51563"/></g><path fill="none" stroke="#000" stroke-linecap="round" stroke-linejoin="round" stroke-miterlimit="10" stroke-width=".5" d="M380.39063 479.07031l-.30079-2.4336"/><g clip-path="url(#M)"><path fill="none" stroke="#000" stroke-linecap="round" stroke-linejoin="round" stroke-miterlimit="10" stroke-width=".5" d="M393.47266 480.3789l7.02734-.10156"/></g><g clip-path="url(#N)"><path fill="none" stroke="#000" stroke-linecap="round" stroke-linejoin="round" stroke-miterlimit="10" stroke-width=".5" d="M393.47266 480.3789l-1.1836-2.14843"/></g><g clip-path="url(#O)"><path fill="none" stroke="#000" stroke-linecap="round" stroke-linejoin="round" stroke-miterlimit="10" stroke-width=".5" d="M394.4961 480.36719l-.59376-1.07813"/></g><g clip-path="url(#P)"><path fill="none" stroke="#000" stroke-linecap="round" stroke-linejoin="round" stroke-miterlimit="10" stroke-width=".5" d="M406.79297 480.50781l7.01562-.35937"/></g><g clip-path="url(#Q)"><path fill="none" stroke="#000" stroke-linecap="round" stroke-linejoin="round" stroke-miterlimit="10" stroke-width=".5" d="M406.79297 480.50781l-1.26172-2.10547"/></g><g clip-path="url(#R)"><path fill="none" stroke="#000" stroke-linecap="round" stroke-linejoin="round" stroke-miterlimit="10" stroke-width=".5" d="M407.8125 480.45703l-.6289-1.05469"/></g><g clip-path="url(#S)"><path fill="none" stroke="#000" stroke-linecap="round" stroke-linejoin="round" stroke-miterlimit="10" stroke-width=".5" d="M420.39844 478.92188l6.4375 2.8164"/></g><path fill="none" stroke="#000" stroke-linecap="round" stroke-linejoin="round" stroke-miterlimit="10" stroke-width=".5" d="M420.39844 478.92188l-.1875-2.44922"/><g clip-path="url(#T)"><path fill="none" stroke="#000" stroke-linecap="round" stroke-linejoin="round" stroke-miterlimit="10" stroke-width=".5" d="M435.11328 477.32422l3.63672 6.01172"/></g><path fill="none" stroke="#000" stroke-linecap="round" stroke-linejoin="round" stroke-miterlimit="10" stroke-width=".5" d="M435.11328 477.32422l1.25781-2.10938"/><g clip-path="url(#U)"><path fill="none" stroke="#000" stroke-linecap="round" stroke-linejoin="round" stroke-miterlimit="10" stroke-width=".5" d="M449.0039 477.04297l2.48438 6.57031"/></g><path fill="none" stroke="#000" stroke-linecap="round" stroke-linejoin="round" stroke-miterlimit="10" stroke-width=".5" d="M449.0039 477.04297l1.6172-1.84375"/><g clip-path="url(#V)"><path fill="none" stroke="#000" stroke-linecap="round" stroke-linejoin="round" stroke-miterlimit="10" stroke-width=".5" d="M461.70703 477.34375l3.71094 5.96875"/></g><path fill="none" stroke="#000" stroke-linecap="round" stroke-linejoin="round" stroke-miterlimit="10" stroke-width=".5" d="M461.70703 477.34375l1.23047-2.1211"/><g clip-path="url(#W)"><path fill="none" stroke="#000" stroke-linecap="round" stroke-linejoin="round" stroke-miterlimit="10" stroke-width=".5" d="M147.42578 467.78906l-6.85156-1.55078"/></g><path fill="none" stroke="#000" stroke-linecap="round" stroke-linejoin="round" stroke-miterlimit="10" stroke-width=".5" d="M147.42578 467.78906l.64453 2.36719m12.65625-2.29688l-6.82031-1.6914m6.82031 1.6914l.59375 2.38282M174 468.0078l-6.73828-1.98828M174 468.00781l.49219 2.40235m12.82422-2.41407l-6.7422-1.96484m6.7422 1.96484l.5 2.40625m12.8203-2.41406l-6.75-1.94922m6.75 1.94922l.50392 2.40234m12.89453-2.76171l-6.91797-1.23047m6.91797 1.23047l.7539 2.33593m12.51172-2.10156l-6.82031-1.69922m6.82031 1.69922l.59375 2.3789m12.80078-2.83202l-6.98047-.79297m6.98047.79297l.89844 2.28515m12.39844-3.22656l-6.9414 1.08984m5.92968-.93359l.73828.98047m13.55469-1.3086l-6.8789 1.4336m5.8789-1.22656l.78515.9453m13.4336-1.52734l-6.67969 2.1836m5.70703-1.86719l.88281.85156m12.95704-2.0703l-5.78907 3.98827m5.78906-3.98828l2.17579 1.13281m10.4453-1.8789l-4.40233 5.48047m4.40234-5.48047l2.41015.46093m9.60547-1.11718l-1.80078 6.79297m1.53906-5.8047l1.19532-.28124m11-.79297l.96094 6.96484m-.82032-5.94922l.9961-.71875m12.05859-.27734l1.20313 6.92578m-1.02735-5.91797l.96875-.7539m12.32031-.27735l.90235 6.97266m-.90235-6.97266l2.00391-1.41797m10.08203 1.82032l3.35938 6.16797m-3.35938-6.16797l1.35156-2.05078m10.51172 3.54297l6.26563 3.18359m-6.26563-3.1836l-.04687-2.45312m13.11328 3.08594l6.76172 1.91797m-6.76172-1.91797l-.51563-2.39844m13.69922 3.21094l7.02344.29297m-7.02344-.29297l-1.0586-2.21094m14.39845 2.78125l6.97656-.84766m-6.97656.84766l-1.40625-2.01172m16.72265-1.59375l2.97266 6.36719m-2.97266-6.36719l1.47656-1.96094M450.30079 463.5l-.10937 7.02734m.10937-7.02734l2.1875-1.11719m-2.20312 2.14063l1.09375-.5586m11.32421-.35937l1.71875 6.8164m-1.71875-6.8164l1.82032-1.64453m-1.57031 2.63672l.91015-.82422"/><g clip-path="url(#X)"><path fill="none" stroke="#000" stroke-linecap="round" stroke-linejoin="round" stroke-miterlimit="10" stroke-width=".5" d="M147.4375 454.42188l-6.875-1.44532"/></g><path fill="none" stroke="#000" stroke-linecap="round" stroke-linejoin="round" stroke-miterlimit="10" stroke-width=".5" d="M147.4375 454.42188l.6836 2.35546m12.39062-1.62109l-6.39453-2.91406m6.39453 2.91406l.15234 2.44922m13.17188-2.46875l-6.41406-2.875m6.41406 2.875L174 457.58203m13.10156-2.33984l-6.3125-3.08985m6.3125 3.08985l.08203 2.45312m13.28907-2.57812l-6.42578-2.83985m6.42578 2.83985l.17968 2.44922m13.41016-3.45313l-6.97656-.83203m6.97656.83203l.88672 2.28906m12.45312-2.59765l-7.02343-.21094m7.02343.21094l1.08594 2.19922m12.1914-2.82422l-6.94921 1.03906m6.94922-1.03906l1.46094 1.97265m11.33203-3.35547l-5.90625 3.8047m5.90625-3.8047l2.14453 1.19532m11.05469-1.36719L261 455.77344m5.67188-4.14844l2.20703 1.0664m11.21093-.91796l-5.8789 3.84765m5.8789-3.84765l2.15235 1.1836m11.20312-1.1211l-5.96093 3.72265m5.96093-3.72265l2.125 1.23047m10.59375-1.94922l-4.76562 5.16406m4.76562-5.16406l2.375.6211m10.6836-.83595l-4.25391 5.59375m4.2539-5.59375l2.42188.39454m-3.03906.41796l1.21094.19922m13.04297-.73828l-4.89454 5.04297m4.89454-5.04297l2.35546.6836m-3.0703.05078l1.17968.33984m12.41797-1.42969l-4.03125 5.75781m4.03125-5.7578l2.4336.29687m9.6875-.83594l-1.64454 6.83203m1.64453-6.83203l2.375-.61328m-2.61719 1.60937l1.19141-.30859m10.875-.71875l1.33594 6.89844M369.6875 450.25l1.90625-1.54297m-1.71094 2.54688l.95313-.77344m10.0664 1.05469l5.53907 4.32421m-5.53907-4.32421l.42579-2.41407m13.01562 2.26563l5.28516 4.625m-5.28516-4.625l.5586-2.39063m.21093 3.0625l.27735-1.1953m14.7539-.67579l.3164 7.01953m-.3164-7.01953l2.11328-1.2461m-2.07031 2.26954l2.11328-1.25m10.66016.28515l1.3125 6.90235m-1.3125-6.90235l1.91015-1.53515m12.90235 1.57422l-1.6836 6.82421m1.6836-6.82421l2.3789-.59766m-2.625 1.59375l1.19141-.30078m13.04297-.45313l-3.03125 6.33985m3.03125-6.33985l2.45312-.10156m10.22657-.1289l-1.75782 6.80468m1.75782-6.80469l2.3828-.57421m-2.64062 1.5625L465.37891 451"/><g clip-path="url(#Y)"><path fill="none" stroke="#000" stroke-linecap="round" stroke-linejoin="round" stroke-miterlimit="10" stroke-width=".5" d="M147.51172 440.41797l-7.02344-.07031"/></g><path fill="none" stroke="#000" stroke-linecap="round" stroke-linejoin="round" stroke-miterlimit="10" stroke-width=".5" d="M147.51172 440.41797l1.13281 2.17969m12.11328-1.51563l-6.88672-1.39844m6.88672 1.39844l.69922 2.35547m11.71875-.63281l-5.08984-4.84375m5.08984 4.84375l-.66016 2.36328m14.14063-2.54688l-5.42188-4.47265m5.42188 4.47265l-.49219 2.40235m14.55469-4.02735l-6.91797-1.22265m6.91797 1.22265l.75781 2.33203m12.51953-2.14843l-6.84375-1.59375m6.84375 1.59375l.63282 2.3711m12.7539-3.56641l-6.98437.80078m6.98437-.80078l1.39063 2.01953m11.80078-2.6211l-6.73828 2m6.73828-2l1.71875 1.75m10.83594-3.10156l-5.21875 4.70313m5.21875-4.70313l2.30859.83984m11.44922-.22656l-6.10547 3.47656M266 439.14844l1.03516.65625m12.03125-2.36719l-3.82813 5.89063m3.26953-5.03516l1.22266.10937m13.6211-.01953l-5.77344 4.0039m4.93359-3.42187l1.09375.5625M306 437.66016l-4.4414 5.4453m4.4414-5.4453l2.41016.47656m10.04297-.9961l-2.71485 6.48438m2.71485-6.48437l2.4414-.22657m-2.83594 1.17188l2.44141-.22656m11.8125-.4297l-3.80469 5.90626m3.80469-5.90625l2.44531.20312m-3 .65625l1.22266.10157m12.91797-.76954l-4.34375 5.52344m4.34375-5.52344l2.41406.4336m-3.04687.3711l1.20703.21874m12.85156-.9336l-4.5625 5.34376m4.5625-5.34375l2.39453.53125m-3.0586.2461l2.39454.53124m11.02344-1.69922l-3.44532 6.125m3.44532-6.125l2.45312.0586m-2.95312.83203l2.45312.0586m9.64063-1.39845v7.02735m0-7.02735l2.16406-1.15234m12.8125 1.57031l-3.32422 6.1914m3.32422-6.1914l2.45312.00782m-2.9375.89062l1.22657.00781m12.53515-.92578l-3.25 6.23047m3.25-6.23047l2.45313-.01953m-2.92578.92578l2.45312-.01953m-2.92578.92578l1.22656-.01172m14.23828-.76953l-5.66015 4.16406m5.66015-4.16406l2.21485 1.0625m-3.03516-.45703l2.21094 1.0664m10.35937-2.86718l-2.52734 6.5586m2.52734-6.5586l2.4336-.29688m-2.80078 1.25l2.43359-.29687m-2.80078 1.25l1.21484-.14844m13.125-1.6289l-3.10937 6.30078m3.10937-6.30078l2.45313-.07813m-2.90625.99219l2.45312-.07422m11.38281-.8086L461.94141 443.5m3.24218-6.23437l2.45313-.01954m-2.92578.92579l1.22656-.00782"/><g clip-path="url(#Z)"><path fill="none" stroke="#000" stroke-linecap="round" stroke-linejoin="round" stroke-miterlimit="10" stroke-width=".5" d="M147.51172 427l-7.02344.13672"/></g><path fill="none" stroke="#000" stroke-linecap="round" stroke-linejoin="round" stroke-miterlimit="10" stroke-width=".5" d="M147.51172 427l1.19531 2.14453m-2.21484-2.125l.59375 1.07031m13.71875-1.41406l-6.98047.78516m6.98047-.78516l1.39062 2.02344m11.9375-1.92578l-7.0039.58984m7.0039-.58984l1.32813 2.0625m11.94531-1.15625l-6.92188-1.22266m6.92188 1.22266l.7539 2.33594m12.32813-1.5547l-6.45312-2.78124m6.45312 2.78125l.19922 2.44531m12.82031-1.90234l-5.86719-3.8711m5.8672 3.8711l-.23048 2.4414m14.02735-3.55078l-6.82813-1.65234m5.83594 1.41015l.30469 1.19141m14.07422-2.22266l-6.97266.89454m6.97266-.89454l1.41797 2m11.03515-3.88671l-5.25 4.66796m5.25-4.66796l2.30078.85156m10.29297-1.46875l-3.80469 5.90625m3.25-5.04688l1.22266.10157m13.77344.21093l-6.0586 3.5586m5.1797-3.03907l1.04296.64063m11.15234-2.73828l-2.05859 6.71875m1.75781-5.74219l1.20313-.23437m13.58984-.1172l-4.41406 5.46485m4.41406-5.46484l2.41016.46484m10.8164-.53515l-4.23828 5.60546m4.23828-5.60546l2.42579.39062m-3.04297.42578l2.42578.39063m10.75781-1.64063l-2.74219 6.47266m2.74219-6.47266l2.44531-.21484m-2.84375 1.15625l1.22266-.10547m13.51172-.17578l-4.78125 5.15234m4.78125-5.15234l2.3711.6289m11.70702.40235l-6.3086 3.08984m6.3086-3.08984l1.98828 1.4375m-2.90625-.98828l1.98829 1.4414m-2.90625-.99218l1.98828 1.4414m12.83984-2.875l-5.66016 4.16016m5.66016-4.16016l2.21094 1.0625m-3.03516-.45703l2.21094 1.0625m-3.03516-.45703l1.10547.53125m13.57031-2.08594l-5.08593 4.84766m5.08593-4.84766l2.32813.77344m-3.07031-.0664l2.33203.77343m-3.07031-.07031l2.32812.77344m11.8789-2.6797l-3.91015 5.83985m3.91016-5.83984l2.4414.25M398.375 425l2.4375.25m-3.00781.59766l2.4414.25m12.1875-1.82032l-4.26562 5.58204m4.26562-5.58204l2.42188.39844m-3.04297.41406l2.42188.39844m-3.04297.41406l1.21093.19922m12.44532-2.32422l-2.46485 6.58203m2.46485-6.58203l2.43359-.3164m-2.78906 1.27343l2.42969-.3164m-2.78907 1.27344l2.4336-.31641m10.41406-1.82031l-.09766 7.02734m.09766-7.02734l2.1836-1.1211m-2.19923 2.14454l2.1836-1.1211m-2.19531 2.14453l2.17968-1.125m11.6914-.875l-1.15624 6.9336m1.15625-6.9336l2.32812-.77734m-2.49609 1.78516l2.32813-.77735m11.96484.00781l-2.77735 6.45704m2.77735-6.45704l2.44531-.19921m-2.84765 1.14062l1.22265-.10156"/><g clip-path="url(#aa)"><path fill="none" stroke="#000" stroke-linecap="round" stroke-linejoin="round" stroke-miterlimit="10" stroke-width=".5" d="M147.47266 413.21094l-6.94532 1.08594"/></g><path fill="none" stroke="#000" stroke-linecap="round" stroke-linejoin="round" stroke-miterlimit="10" stroke-width=".5" d="M147.47266 413.21094l1.47265 1.96094m-2.48437-1.8047l.73828.98438m13.57422-1.22656l-6.91406 1.25781m6.91406-1.25781l1.51953 1.92578m11.84375-1.52734l-7.01172.46094m7.01172-.46094l1.28906 2.08594m11.74219-.45704l-6.44531-2.80078m5.5078 2.39453l.09767 1.22266m14.39843-1.64844l-6.9336-1.13281m5.92579.96484l.39453 1.16407m13.64844-.08203l-6.3711-2.96485m5.44532 2.53516l.0625 1.22656m11.61328 1.17969l-1.24219-6.91406m17.42188 3.89453l-6.97266-.875m6.97266.875l.875 2.29297m12.42578-3.26563l-6.94531 1.07031m6.9453-1.07031l1.46876 1.96484m11.86719-1.79687l-6.98829.73437m6.98828-.73437l1.375 2.03125m-2.39062-1.92578L267 414.5078m13.3125-2.28906l-6.32422 3.0664m6.32422-3.0664l1.98047 1.44922m10.6836-2.3711l-5.02345 4.91407m5.02344-4.91406l2.33985.74218m-3.07032-.02734l1.16797.3711m13.80469.64452l-6.875 1.45313m6.875-1.45313l1.57422 1.87891m11.38672-2.83594l-6.16797 3.36328m6.16797-3.36328l2.05078 1.35156m-2.94922-.85937l1.02734.67578m13.07032-1.36328l-5.9375 3.75781m5.9375-3.75781l2.1328 1.21094m-2.99609-.66407l2.13282 1.21094m12.47265-.78125l-6.79297 1.80469m6.79297-1.80469l1.67188 1.80078m-2.66016-1.53906l1.67188 1.80078m12.53125-2.38281l-6.58985 2.4414m6.58985-2.4414l1.83203 1.63281m-2.78906-1.27734l.91406.8164m13.49219-.71484l-6.85938 1.52734m6.85938-1.52734l1.59765 1.86719m-2.59375-1.64453l1.59375 1.86328m12.32813-3.08203l-6.07813 3.52343m6.07813-3.52343l2.08203 1.29687m-2.96485-.78515l2.08204 1.29687m-2.96875-.78516l1.04296.64844m13.89063-1.91015l-5.77734 4m5.77734-4l2.17969 1.125m-3.01953-.54297l2.17968 1.125m11.17188-2.53516l-4.17188 5.65625m4.17188-5.65625l2.42578.35938m-3.03125.46484l2.42578.35937m10.40234-1.72656l-1.98828 6.74219m1.98828-6.74219l2.40625-.49219m-2.6953 1.47266l2.40624-.49219m10.83203-.57422l-1.2539 6.91407m1.2539-6.91407l2.33985-.74609m-2.51953 1.75l2.33593-.74219m12.45313.25391l-3.83985 5.88281m3.83985-5.88281l2.4414.21875m-3 .63672l2.44141.21875m11.54297-1l-4.0664 5.73047"/><g clip-path="url(#ab)"><path fill="none" stroke="#000" stroke-linecap="round" stroke-linejoin="round" stroke-miterlimit="10" stroke-width=".5" d="M465.59375 410.88672l2.4336.3164"/></g><path fill="none" stroke="#000" stroke-linecap="round" stroke-linejoin="round" stroke-miterlimit="10" stroke-width=".5" d="M465.0039 411.72266l1.21485.15625"/><g clip-path="url(#ac)"><path fill="none" stroke="#000" stroke-linecap="round" stroke-linejoin="round" stroke-miterlimit="10" stroke-width=".5" d="M147.28906 399.20703l-6.57812 2.46485"/></g><path fill="none" stroke="#000" stroke-linecap="round" stroke-linejoin="round" stroke-miterlimit="10" stroke-width=".5" d="M147.28906 399.20703l1.83985 1.625m-2.79688-1.26562l.92188.8125m13.20312-1.51172l-6.28516 3.14062m6.28516-3.14062l2 1.42578m11.6836.05469l-7.02344.18359m6.0039-.16016l.60547 1.07032m13.125.96875l-5.8125-3.94532m4.96875 3.3711l-.13281 1.21875m9.67969.45312l3.41406-6.14062m8.16016 3.75781l6.89062-1.3711m-5.88672 1.17188l-.77734-.95312m19.03125 2.9414l-4.99219-4.94922m4.26563 4.22657l-.35547 1.17578m15.33203-2.17578l-6.86328-1.50391m6.86328 1.5039l.66406 2.36329m-1.66016-2.58203l.32813 1.17968m14.0586-1.52734l-7.01563-.3711m7.01562.3711l1.03907 2.22266m-2.0586-2.27735l.51953 1.11328m13.8125-1.48046l-7.01172.46875m7.01172-.46875l1.29688 2.08593m-2.3164-2.01562l.64843 1.03906m13.6914-1.05469l-7.01953.35938m7.01954-.35938l1.26171 2.10547M293.5 398.66406l-6.0664 3.54688m6.0664-3.54688l2.08594 1.28906m11.20312-1.33203l-6.01562 3.63282m6.01562-3.63282l2.10547 1.26172m11.53125-.5586l-6.66016 2.23048m6.66016-2.23047l1.78125 1.6875m11.38672-2.0586l-6.36719 2.96875m6.36719-2.96875l1.96094 1.47657m-2.88672-1.04297l.98047.73828m13.375-.89844l-6.59375 2.42578m6.59375-2.42578l1.82812 1.63281m11.65625-1l-6.9336 1.15625m5.92579-.98828l.7461.97657m13.03124-2.51954l-5.83984 3.91016m5.83984-3.91015l2.16016 1.16015m-3.01172-.59375l1.08203.58203m12.46485-1.84765l-4.60157 5.30859m4.60157-5.3086l2.39062.54688m-3.0586.22266l2.39063.55078m-3.0625.22265l1.19531.27344m13.96875-1.27344l-5.62109 4.22266m5.6211-4.22265l2.21874 1.03906m-3.03906-.42578l1.11328.51953m13.4375-.41016l-6.45312 2.77735m6.45312-2.77735l1.91407 1.53516m10.42187-2.84766l-4.49219 5.40235m4.4922-5.40235l2.40233.5m-3.05468.28516l1.19922.25m12.39062-1.3086l-3.73828 5.94922m3.73828-5.94922l2.44922.1797m-2.99219.68358l1.22266.08985m12.9414-.73828l-4.35156 5.51562m4.35156-5.51562l2.41407.4375m-3.04688.36719l1.20703.21875m13.13672-.66016l-5.14062 4.79297"/><g clip-path="url(#ad)"><path fill="none" stroke="#000" stroke-linecap="round" stroke-linejoin="round" stroke-miterlimit="10" stroke-width=".5" d="M466.13281 398.04297l2.3164.79687"/></g><path fill="none" stroke="#000" stroke-linecap="round" stroke-linejoin="round" stroke-miterlimit="10" stroke-width=".5" d="M465.38281 398.73828l1.16016.39844"/><g clip-path="url(#ae)"><path fill="none" stroke="#000" stroke-linecap="round" stroke-linejoin="round" stroke-miterlimit="10" stroke-width=".5" d="M147.27734 385.85547l-6.55468 2.53515"/></g><path fill="none" stroke="#000" stroke-linecap="round" stroke-linejoin="round" stroke-miterlimit="10" stroke-width=".5" d="M147.27734 385.85547l1.85547 1.60156m-2.8086-1.23437l.92579.80468m13.08594-1.69921l-6.04297 3.58984m6.04297-3.58985l2.09765 1.27344m10.71485-1.92969l-5.03516 4.90235m5.03516-4.90235l2.33594.75m-3.07032-.03515l1.16797.375m13.11328-.82813l-5.5 4.37891m4.69922-3.74219l1.125.49219m10.65234-2.42969l-.82421 6.98047m.70703-5.96484l1.14062-.44531m14.78906 4.89062l-5.8164-3.9414m5.8164 3.9414l-.26562 2.4414m-.58203-3.01171l-.13281 1.21875m14.82422-1.89063l-6.875-1.45703m6.875 1.45703l.67578 2.35938m-1.67578-2.57031l.33984 1.17968m13.8789-.61328l-6.68359-2.16797m6.6836 2.16797l.42968 2.41797m-1.40234-2.73438l.42969 2.41797m13.82422-2l-6.61329-2.37109m6.61328 2.3711l.35157 2.42968m-1.3125-2.77344l.35156 2.42579m14.07422-2.63672l-6.91406-1.26172m6.91406 1.26172l.74219 2.33984m-1.75-2.52344l.74609 2.33985m13.60547-2.35157l-6.97266-.87109m6.97266.8711l.875 2.29296m-1.89063-2.41797l.875 2.29297m13.45313-3.0586l-6.96875.91017m6.96875-.91016l1.42578 1.9961m-2.4375-1.86329l1.42187 1.9961m12.79297-2.66797l-6.74218 1.98828m6.74218-1.98828l1.71485 1.7539m-2.69532-1.46484l1.71485 1.7539m12.58594-2.01562l-6.75391 1.9336m6.7539-1.9336l1.70313 1.76953m-2.6836-1.48828l.85157.88281m13.27734-1.625l-6.41797 2.85547m6.41797-2.85547l1.9336 1.50781m-2.86719-1.09375l.96484.75391m13.28516-1.16797l-6.42188 2.85547m6.42188-2.85547l1.9336 1.51172m-2.8672-1.09375l.96485.7539m13.48437-.57421l-6.82421 1.66406m6.82421-1.66406l1.63282 1.83203m-2.625-1.58984l1.63281 1.83203m12.51172-2.58594l-6.4961 2.6836m6.4961-2.6836l1.89062 1.5625m-2.83593-1.17188l1.89062 1.5625m-2.83594-1.17187l.94532.78125m13.82812-2.32031l-5.63281 4.19922m5.63281-4.19922l2.21875 1.05078m-3.03906-.4375l2.21875 1.04687m12.05469-1.46093l-5.91016 3.80078m5.91016-3.80078l2.14062 1.19921m-3-.64453l2.14063 1.19532m11.64453-2.25l-5.1289 4.80078m5.1289-4.80078l2.32031.79296m-3.0664-.09375l1.16015.39454m12.16016-1.69532l-3.64844 6.00391m3.64844-6.0039l2.44921.13671m11-.05078l-3.91796 5.83203m3.91796-5.83203l2.44141.25M453 384.94141l-5.50781 4.36328M453 384.9414l2.25.98437m11.08203-.96484l-5.53906 4.32422"/><g clip-path="url(#af)"><path fill="none" stroke="#000" stroke-linecap="round" stroke-linejoin="round" stroke-miterlimit="10" stroke-width=".5" d="M466.33203 384.96094l2.24219 1"/></g><path fill="none" stroke="#000" stroke-linecap="round" stroke-linejoin="round" stroke-miterlimit="10" stroke-width=".5" d="M465.52734 385.58984l1.1172.5"/><g clip-path="url(#ag)"><path fill="none" stroke="#000" stroke-linecap="round" stroke-linejoin="round" stroke-miterlimit="10" stroke-width=".5" d="M147.125 372.19922l-6.25 3.21484"/></g><path fill="none" stroke="#000" stroke-linecap="round" stroke-linejoin="round" stroke-miterlimit="10" stroke-width=".5" d="M147.125 372.19922l2.01563 1.40234m-2.92579-.9336l1.00782.69923m13.54687-.19922l-6.91016 1.28125m6.91016-1.28125l1.52734 1.91797m11.62891-2.4961l-6.58984 2.4336m6.58984-2.4336l1.83203 1.63672m11.36328-1.92187l-6.35156 3.00781m6.35156-3.00781l1.96875 1.46484m-2.89453-1.02734l.98438.73437m13.4961-.49219l-6.83204 1.64844m6.83203-1.64844l1.6289 1.83594M214.08204 374l-7.01562-.38281m7.01562.38281l1.03516 2.22266m11.75-.54688l-5.95313-3.73437m5.95313 3.73437l-.17578 2.44531M226 375.13281l-.17578 2.44531m14.6836-2.5703l-6.60548-2.39844m6.60547 2.39843l.34375 2.42969m-1.30469-2.77734l.34375 2.42968m13.94141-2.10546l-6.6211-2.35157m6.6211 2.35156l.35938 2.42579m-1.32422-2.76954l.36328 2.42579m-1.32422-2.76563l.17969 1.21094m15.16015-.85547l-6.8203-1.69531m6.8203 1.69531l.59375 2.3789m-1.58593-2.625l.59375 2.37891m-1.58594-2.625l.29687 1.1875m15.07422-1.08984l-6.96484-.91016m6.96484.91016l.86328 2.30078m-1.875-2.42969l.86328 2.29688m13.48438-2.91406l-7.0039.58593m7.0039-.58594l1.32813 2.0625m-2.34766-1.97656l1.32812 2.0625m-2.34765-1.98047l.66406 1.03125m14.53516-1.97656l-6.69532 2.14063m6.69532-2.14063l1.7539 1.71094m-2.73047-1.39844l1.75782 1.71094m12.42187-2.3164l-6.47265 2.72656m6.47265-2.72657l1.90625 1.54688m-2.84765-1.15235l1.90234 1.55079m12.17578-2.3125l-6.11719 3.46093m6.11719-3.46094l2.07031 1.32032m-2.96094-.8164l2.07032 1.3203m12.17187-1.7578l-6.1875 3.32812m6.1875-3.32813l2.03906 1.35938m-2.9414-.875l2.04297 1.35937m12.34375-1.48437l-6.52735 2.60937m6.52735-2.60937l1.8711 1.58203m-2.82032-1.20313l1.8711 1.58203m12.55468-1.4414l-6.85156 1.57031m6.85156-1.57031l1.60547 1.85547m-2.60156-1.625l1.60546 1.85156m12.46875-2.77344l-6.375 2.95313m6.375-2.95313l1.95704 1.48047m-2.88672-1.05078l1.95703 1.48047m11.9414-2.5l-5.68359 4.13281m5.6836-4.13281l2.20703 1.07812M399 372.34375l2.20703 1.07422m11.46485-2.20313l-4.7422 5.1836m4.7422-5.1836l2.3789.61329m-3.0664.14062l1.1875.3086m12.39062-1.39454l-3.89063 5.85156m3.89063-5.85156l2.4414.24219m11.35157.14063l-4.84766 5.08593m4.84766-5.08594l2.36328.66016m11.0039-.60937l-4.95312 4.98437m4.95313-4.98437l2.34765.70703M452 372.03906l1.17578.35547m13.07813-.84375l-5.38672 4.51563"/><g clip-path="url(#ah)"><path fill="none" stroke="#000" stroke-linecap="round" stroke-linejoin="round" stroke-miterlimit="10" stroke-width=".5" d="M466.2539 371.55078l2.27344.92188"/></g><path fill="none" stroke="#000" stroke-linecap="round" stroke-linejoin="round" stroke-miterlimit="10" stroke-width=".5" d="M465.47266 372.20703l1.13671.46094"/><g clip-path="url(#ai)"><path fill="none" stroke="#000" stroke-linecap="round" stroke-linejoin="round" stroke-miterlimit="10" stroke-width=".5" d="M147.10156 358.84375l-6.20312 3.30078"/></g><path fill="none" stroke="#000" stroke-linecap="round" stroke-linejoin="round" stroke-miterlimit="10" stroke-width=".5" d="M147.10156 358.84375l2.03516 1.3711m-2.9375-.89063l2.03516 1.3711m12.3164-1.57032l-6.47266 2.73438m6.47266-2.73438l1.90625 1.55078m-2.84766-1.15234l.95313.77344m13.58203.1953h-7.02734m7.02734 0l1.15234 2.16798m-2.17578-2.16797l.57422 1.08594m13.7539-1.32422l-7.0078.48046m7.0078-.48046l1.29688 2.08203m-2.3164-2.01172l.64844 1.03906m13.6914-.69531l-7.01953-.35156m7.01953.35156l1.04297 2.22265m12.13672-3.37109l-6.75 1.94922m6.75-1.94922l1.71094 1.75781m-2.69141-1.47656l.85547.88281m12.94922 1.82032l-5.76563-4.01954m5.76563 4.01954l-.29688 2.4375m-.54297-3.02344l-.29687 2.4375m-.54297-3.02344l-.14453 1.21875m15.46875-.6289l-6.42188-2.85547m6.42188 2.85546l.17187 2.44532m-1.10937-2.86328l.17578 2.44921m-1.10938-2.86328l.08594 1.22266m15.27344-.8789l-6.76953-1.87891m6.76953 1.8789l.53125 2.39454m-1.51563-2.66797l.53125 2.39453m13.85938-2.5625l-6.95313-1m6.95313 1l.83203 2.3086m-1.84375-2.45313l.83203 2.30859m13.53125-2.58984l-7.02734-.14844m7.02734.14844l1.10547 2.1914m-2.1289-2.21094l1.10546 2.1875m-2.1289-2.21093l.55468 1.09375m14.80079-.92188l-7.01563-.40234m7.01563.40234L295 362.92578m-2.04688-2.28906l1.02344 2.23047m-2.04297-2.28906l.51172 1.11328m14.84766-1.33985l-7.02344.28516m7.02344-.28516l1.23828 2.11719m-2.26172-2.07813l1.23828 2.1211m-2.25781-2.07813l.61719 1.0586m14.27343-2.7539l-6.08984 3.51171m6.08984-3.51172l2.07813 1.30078m-2.96484-.78906l2.08203 1.30078m11.92578-2.10937l-5.70313 4.10546m5.70313-4.10546l2.19922 1.08203m-3.02735-.48438l2.19922 1.08203m-3.03125-.48828l1.10156.54297m13.92188-1.66797l-5.79688 3.96875m5.79688-3.96875l2.17578 1.13672m-3.01953-.5586l2.17578 1.13673m12.21484-1.32813l-6.26171 3.19531m6.26171-3.1953l2.00782 1.40624m-2.91797-.9414l2.00781 1.40625m-2.92187-.94141l1.0078.70312m14.23048-1.42187l-6.45703 2.77344m6.45703-2.77344l1.91015 1.53515m-2.85156-1.1328l1.91406 1.53906m-2.85156-1.13282l.95703.76563m14.20703-1.64063l-6.39843 2.90625m6.39843-2.90625l1.94532 1.4961m-2.87891-1.07422l1.94531 1.4961m12.11328-2.28126l-6.01953 3.63281m6.01953-3.6328l2.10547 1.26171m-2.98437-.73047l2.10937 1.25781m11.49219-2.51953l-4.83594 5.09766m4.83594-5.09766l2.36719.65625m-3.07032.08594l2.36329.65234m11.6914-1.35937l-4.91015 5.02734m4.91015-5.02734l2.35547.6875m-3.07031.04297l2.35547.6875m11.82031-1.26953l-5.19922 4.73046m5.19922-4.73046l2.3086.82421m-3.06641-.13671l2.3086.82421m11.8789-1.3789l-5.42969 4.46094m5.42969-4.46094l2.26562.94531m-3.05469-.29297l1.13282.46875m13.21093-.79297l-5.90625 3.8086"/><g clip-path="url(#aj)"><path fill="none" stroke="#000" stroke-linecap="round" stroke-linejoin="round" stroke-miterlimit="10" stroke-width=".5" d="M466.51563 358.58984l2.14062 1.19532"/></g><g clip-path="url(#ak)"><path fill="none" stroke="#000" stroke-linecap="round" stroke-linejoin="round" stroke-miterlimit="10" stroke-width=".5" d="M465.65625 359.14063l2.14063 1.19921"/></g><g clip-path="url(#al)"><path fill="none" stroke="#000" stroke-linecap="round" stroke-linejoin="round" stroke-miterlimit="10" stroke-width=".5" d="M146.64844 344.8711l-5.29688 4.61718"/></g><path fill="none" stroke="#000" stroke-linecap="round" stroke-linejoin="round" stroke-miterlimit="10" stroke-width=".5" d="M145.8789 345.54297l1.14454.4375m13.08984-.92969l-5.59375 4.2539m5.59375-4.2539l2.22656 1.02735m-3.04297-.40625l1.1172.51171m13.42968-.42578l-6.42578 2.83985m6.42578-2.83985l1.92969 1.51563m-2.86328-1.10156l.96484.7578m13.52734-.39062l-6.91406 1.27735m6.91406-1.27735l1.52344 1.92188m-2.53125-1.73438l.76172.96094m13.55078.16797l-6.89453-1.35156m6.89453 1.35156l.71484 2.34765m12.66407-2.8789l-7.01953-.29297m7.01953.29297l1.0625 2.21094m-2.08594-2.25391l1.0625 2.21094m12.67188-.33985l-5.8125-3.94921m5.8125 3.94921l-.26172 2.4375m-.58203-3.01171l-.26563 2.4375m-.58203-3.01172l-.13281 1.21875m15.23437-.21485l-6.0039-3.65625m6.0039 3.65625l-.14453 2.44922m-.73047-2.98437l-.14453 2.44921m-.72656-2.98046l-.07422 1.22656m15.53516-1.10938l-6.8047-1.7578m6.8047 1.7578l.57421 2.38282m-1.5625-2.64063l.57032 2.38672m-1.5625-2.64063l.28906 1.19141m15.01562-.71484l-6.8203-1.6914m6.8203 1.6914l.59766 2.3789m-1.58984-2.625l.59765 2.37891m-1.58984-2.625l.29687 1.1914m15.04688-.90624l-6.91016-1.27735m6.91016 1.27735l.74219 2.33984m-1.7461-2.52734l.73828 2.33984m-1.74609-2.52344l.3711 1.16797m15.01171-1.33594l-7.02343-.19921m7.02343.19921l1.09375 2.19532m-2.11328-2.22657l1.08985 2.19922m13.24609-2.2539l-7.02734-.02735m7.02734.02735l1.14453 2.17187m-2.16406-2.17578l1.14062 2.17188m13.11328-2.9336l-6.86328 1.5039m6.86328-1.5039l1.58985 1.8711m-2.58594-1.65235l1.58594 1.8711m12.15625-3.375l-5.72656 4.07421m5.72656-4.07421l2.19531 1.09765m-3.02734-.5039l2.1953 1.09765m11.73438-1.96484l-5.29296 4.6211m5.29296-4.6211l2.29297.875m-3.0625-.20313l2.29297.875m11.7461-1.59765l-5.19922 4.72656m5.19922-4.72656l2.30859.82812m-3.0664-.14062l2.3125.82812m12.24218-.83984l-6.16406 3.3711m6.16406-3.3711l2.05078 1.34765m-2.94531-.85546l2.05078 1.34765m-2.94922-.85937l1.02735.67578m14-1.79688l-6 3.65625m6-3.65625l2.10937 1.25m-2.98437-.71875l2.11328 1.25m-2.98438-.71875l2.10938 1.25m13.35547-1.34765l-6.8086 1.72656m6.8086-1.72656l1.64843 1.8164m-2.63672-1.5664l1.64844 1.8164m12.11719-3.23437l-5.73438 4.0586m5.73438-4.0586l2.1914 1.10156m-3.02343-.51172l2.1914 1.10156m12.09375-1.48046L420.60938 349m6.01171-3.64063l2.10938 1.25391m-2.98438-.72656l2.10938 1.25781m12.15625-1.66015l-6.16016 3.38671m6.16016-3.38671l2.05078 1.34375m-2.94922-.85157l2.05469 1.34375m-2.94922-.85156l1.02734.67188m14.0586-1.69532l-6.11719 3.46485m6.11719-3.46485l2.07031 1.32031m-2.96094-.8164l2.07032 1.32031m-2.96094-.8164l1.03515.66015m14.14063-1.51562l-6.27734 3.16015"/><g clip-path="url(#am)"><path fill="none" stroke="#000" stroke-linecap="round" stroke-linejoin="round" stroke-miterlimit="10" stroke-width=".5" d="M466.69922 345.59766l2.0039 1.41796"/></g><g clip-path="url(#an)"><path fill="none" stroke="#000" stroke-linecap="round" stroke-linejoin="round" stroke-miterlimit="10" stroke-width=".5" d="M465.78516 346.0586l2.0039 1.41796"/></g><path fill="none" stroke="#000" stroke-linecap="round" stroke-linejoin="round" stroke-miterlimit="10" stroke-width=".5" d="M464.875 346.51953l1 .70703"/><g clip-path="url(#ao)"><path fill="none" stroke="#000" stroke-linecap="round" stroke-linejoin="round" stroke-miterlimit="10" stroke-width=".5" d="M145.05078 330.51172l-2.10156 6.70312"/></g><path fill="none" stroke="#000" stroke-linecap="round" stroke-linejoin="round" stroke-miterlimit="10" stroke-width=".5" d="M144.7461 331.48438l1.20702-.22266m8.72266.28515l5.28125 4.63282m13.9414-3.60938l-6.53515 2.58594m6.53516-2.58594l1.86719 1.58985m11.52734-1.35938l-6.69531 2.125m6.6953-2.125l1.75392 1.71485m-2.72657-1.40625l.875.85937m13.47656-.94531l-6.82421 1.67969m6.82422-1.6797l1.63671 1.82813m11.71094-1.6836l-6.88672 1.39063m6.88672-1.39062l1.5586 1.89453m-2.5625-1.6914l.78125.9453m13.14062 1.29688l-6.09375-3.5m6.09375 3.5l-.07813 2.44922m-.80859-2.96094l-.07812 2.45313m-.8086-2.96094l-.03906 1.22656m14.91406.11719l-5.66797-4.14844m5.66797 4.14844l-.34765 2.42969m-.47657-3.03125l-.34765 2.42578m-.47656-3.03125l-.17579 1.21484m15.41407-.44531l-6.21875-3.27344M253.6289 335.5l.01172 2.45313m-.91407-2.9297l.01172 2.45313m-.91797-2.92969l.0039 1.22657m15.25782-.5664l-6.49219-2.6875m6.4922 2.6875l.23437 2.4414m-1.1797-2.83203l.23438 2.4414m14.23438-2.7539l-6.91016-1.28125m6.91016 1.28125l.73828 2.33984m-1.74219-2.52734l.36719 1.17187m14.01172-1.64453l-7.02734.03516m7.02734-.03516l1.16016 2.16406m-2.1836-2.15625l.58203 1.07813m13.7461-1.32813l-7.00782.52344m7.00782-.52344l1.30859 2.07422m-2.32812-2l.65625 1.03906m13.65625-1.3203l-6.96485.9375m6.96485-.9375l1.42968 1.99218m-2.4414-1.85547l1.42968 1.99219m12.85547-2.3711l-6.88281 1.42188m6.88281-1.42188l1.5664 1.89063m-2.5664-1.6836l.78125.94532m12.92188-2.52344l-5.66016 4.16406m5.66016-4.16406l2.21484 1.0625m-3.03515-.45703l1.10546.53125m12.6211-1.60156l-4.83985 5.09375m4.83985-5.09375l2.36328.65234m11.5586.11328l-6.0547 3.5625m6.0547-3.5625l2.09374 1.28125m-2.97265-.76562l2.08984 1.28515m11.45703-2.60547l-4.75781 5.17188m4.75781-5.17188l2.3711.6172m-3.06641.1328l2.375.6211m-3.0664.13281l2.375.61719m13.01171-1.25781l-6.1289 3.4453m6.1289-3.4453l2.0625 1.32421m-2.95703-.82421l2.0664 1.32421m12.57423.2422l-6.9922-.6875m6.9922.6875l.93359 2.26952m-1.94922-2.3711l.46484 1.13673m13.85938-1.79297l-6.97656.82812m6.97656-.82812l1.39844 2.01172m-2.41407-1.89063l.69922 1.0039m13.29297-2.26562l-6.30078 3.10938m6.30078-3.10938l1.99219 1.4336m-2.91016-.98047l.9961.71875m13.05078-1.5039l-5.92969 3.77343m5.92969-3.77344l2.13672 1.21094m-3-.66016l2.13672 1.20704m-3-.66016l2.13671 1.21094m12.66797-2.64063l-5.45312 4.4375"/><g clip-path="url(#ap)"><path fill="none" stroke="#000" stroke-linecap="round" stroke-linejoin="round" stroke-miterlimit="10" stroke-width=".5" d="M466.28906 331.64453l2.25781.95313"/></g><g clip-path="url(#aq)"><path fill="none" stroke="#000" stroke-linecap="round" stroke-linejoin="round" stroke-miterlimit="10" stroke-width=".5" d="M465.49219 332.28906l2.26172.95703"/></g><path fill="none" stroke="#000" stroke-linecap="round" stroke-linejoin="round" stroke-miterlimit="10" stroke-width=".5" d="M464.69922 332.9375l2.26172.95313m-3.05469-.3086l1.13281.47656"/><g clip-path="url(#ar)"><path fill="none" stroke="#000" stroke-linecap="round" stroke-linejoin="round" stroke-miterlimit="10" stroke-width=".5" d="M146.46094 318.04297l-4.92188 5.01172"/></g><path fill="none" stroke="#000" stroke-linecap="round" stroke-linejoin="round" stroke-miterlimit="10" stroke-width=".5" d="M146.46094 318.04297l2.35547.69531m-3.07032.03125l1.17578.35156m13.63672 2.77735l-6.48828-2.69922m5.54297 2.30469l.11719 1.22265m14.17969-.92187l-6.5625-2.51172m5.60937 2.14453l.15234 1.21875m14.33594-1.8086l-7-.59765m7 .59766l.96485 2.2539m11.96484-4.17969l-6.23047 3.25391m6.23047-3.2539l2.02344 1.38671m11.6836.01563l-7.01173.44922m7.01172-.44922l1.28906 2.08984m-2.30859-2.02344l.64453 1.04297m13.63672-.23437l-6.90625-1.30078m6.90625 1.30078l.73047 2.33984m-1.73438-2.53125l.73047 2.34375m13.40235-1.51562l-6.53516-2.57813m6.53516 2.57813l.27734 2.4375m-1.22656-2.8125l.27734 2.4375m-1.23047-2.8125l.14063 1.21875m14.875-.04297l-6.13281-3.42969m6.1328 3.42969l-.05077 2.45312m-.83985-2.94921l-.05469 2.45312m14.28516-2l-6.17969-3.33984m6.1797 3.33984l-.01563 2.45313m-.88282-2.94141l-.01562 2.45703m14.28125-2.0664l-6.28516-3.14454m6.28516 3.14453l.0625 2.44922m-.97656-2.91015l.03125 1.22656m14.40625-1.27735l-6.69922-2.12109m6.69922 2.1211l.4414 2.41406m-1.41797-2.72266l.22266 1.20703m14.21875-1.65625l-7-.60547m7 .60547l.96094 2.2539m-1.98047-2.34374l.48047 1.1289m13.8125-1.95703l-6.91797 1.23047m6.91797-1.23047l1.51562 1.9297m-2.52343-1.75l1.51562 1.92968m12.78516-2.22266l-6.875 1.45703m6.875-1.45703l1.57812 1.8789m-2.57812-1.66796l1.57812 1.8789m12.53906-2.72656l-6.47656 2.73047m6.47656-2.73047l1.90235 1.54688m-2.84766-1.15235l1.90625 1.55079m12.08594-2.45704l-5.9414 3.75391m5.9414-3.7539l2.1289 1.21484m-2.99218-.66797l2.1289 1.21484m12.22657-1.4453l-6.29688 3.11718m6.29688-3.11719l1.99609 1.42969m-2.91016-.97656l1.9922 1.43359m11.67577-2.70703l-5.17187 4.75781m5.17187-4.75781l2.3125.8125m-3.0664-.1211l2.3164.81641m-3.07031-.1211l1.16016.40626m13.79687-1.63672l-5.4414 4.44922m5.4414-4.44922l2.26172.94922m-3.05469-.30078l2.26563.9453m-3.05469-.30077l1.1289.47656m14.31641-.83203l-6.53906 2.57031m6.53906-2.57031l1.86719 1.59375m8.95703 3.1211l-1.55469-6.85548m1.32813 5.85547l-.92969.80078m12.53125-6.54687l2.32422 6.63281m-1.98437-5.66797l.82812-.89844m15.48438.4922l-4.35157 5.51562m4.35157-5.51563l2.41406.4375m-3.04688.36719l2.41407.4375M465.6875 317.75l-4.25 5.59766"/><g clip-path="url(#as)"><path fill="none" stroke="#000" stroke-linecap="round" stroke-linejoin="round" stroke-miterlimit="10" stroke-width=".5" d="M465.6875 317.75l2.42188.39453"/></g><path fill="none" stroke="#000" stroke-linecap="round" stroke-linejoin="round" stroke-miterlimit="10" stroke-width=".5" d="M465.07031 318.5625l2.42188.39453m-3.04297.42188l2.42187.39062m-3.03906.42188l2.42188.39453"/><path fill="#00f" fill-rule="evenodd" d="M397.11719 458.77344h8.61719V448.625h-8.6172v10.14844"/><path fill="azure" fill-rule="evenodd" d="M398.94922 450.45703h.83203v2.82422h3.28516v-2.82422h.83593v6.48047h-.83593v-2.91406h-3.28516v2.91406h-.83203v-6.48047"/><path fill="#ff3030" fill-rule="evenodd" d="M242.46875 449.89453h7.6914V439.75h-7.6914v10.14453"/><path fill="azure" fill-rule="evenodd" d="M244.30078 441.58203h.83203v5.73828h3.19531v.74219h-4.02734v-6.48047"/><path fill="#ff3030" fill-rule="evenodd" d="M317.91797 445.45703h7.69531V435.3125h-7.69531v10.14453"/><path fill="azure" fill-rule="evenodd" d="M319.7539 437.14453h.83204v5.73828h3.1914v.74219h-4.02343v-6.48047"/><path fill="#00f" fill-rule="evenodd" d="M215.14453 409.94922h8.61719v-10.14453h-8.61719v10.14453"/><path fill="azure" fill-rule="evenodd" d="M216.97656 401.63672h.83203v2.82422h3.28516v-2.82422h.83594v6.48047h-.83594v-2.91797h-3.28516v2.91797h-.83203v-6.48047"/><path fill="#ff3030" fill-rule="evenodd" d="M202.52344 370.0039h7.6914v-10.14452h-7.6914v10.14453"/><path fill="azure" fill-rule="evenodd" d="M204.35547 361.6914h.83203v5.73829h3.19531v.74219h-4.02734v-6.48047"/><path fill="#ffffe0" fill-rule="evenodd" d="M346.1836 392.46094h22.17968v-10.1914H346.1836v10.1914"/><path fill-rule="evenodd" d="M349.6836 384.10156h.5078v6.29297h-.78906v-4.48828h-1.38671v-.55469l.55859-.0664.2539-.0547.23047-.08983.20313-.14063.17187-.21094.14063-.29297.10937-.39453m4.8125 0l.23047.01953.21875.0547.20703.08983.19532.1211.18359.14844.17188.17578.30078.41797.24609.49609.17969.54688.10937.57812.03906.58984-.03906.59375-.10937.58594-.17969.55078-.2461.5039-.30077.4297-.17188.17578-.1836.15625-.1953.1211-.20704.09374-.21875.05469-.23047.01953-.23046-.01953-.21875-.05469-.20704-.09375-.1953-.1211-.1875-.15624-.16798-.17578-.30469-.4297-.24218-.5039-.17969-.55078-.11328-.58594-.03516-.59375h.83203l.02735.5625.08203.50782.1289.4414.16016.375.1914.30078.21094.22266.22266.13672.22656.04687.22657-.04687.22265-.13672.21094-.22266.1914-.30078.16016-.375.125-.4414.08203-.50782.03125-.5625-.03125-.55859-.08203-.5039-.125-.4336-.16015-.36719-.19141-.29297-.21094-.21093-.22265-.13282-.22657-.04687-.22656.04687-.22265.13282-.21094.21093-.1914.29297-.16017.36719-.1289.4336-.08203.5039-.02735.5586h-.83203l.03516-.58985.11328-.57813.17969-.54687.24219-.4961.30468-.41796.16797-.17578.1875-.14844.19531-.1211.20704-.08984.21875-.05469.23046-.01953m5.08985 0h.51172v6.29297h-.78907v-4.48828h-1.38671v-.55469l.55859-.0664.2539-.0547.22657-.08983.20312-.14063.17578-.21094.14063-.29297.10547-.39453m2.82422 2.17578h.78515l.02344-.3164.0586-.28906.09765-.25.14063-.21485.17968-.17578.22266-.1289.26562-.07813.3086-.03125.23828.02344.22265.0625.20704.10156.17578.13672.15234.17578.11328.20312.07031.23829.02344.26562-.01953.26563-.0664.22656-.10938.1914-.15625.17188-.19922.16015-.25.16797-.63281.38672-.53906.3164-.4375.31642-.34375.32421-.26563.33594-.1914.35156-.125.3672-.06641.39452-.02344.41797h4.21485v-.73828h-3.33204l.08204-.28516.11328-.23828.14843-.19922.1875-.17968.23047-.17188.27735-.17578.71875-.41797.41406-.20312.34765-.23438.28125-.25.21875-.26562.16407-.27735.10937-.28515.0625-.28516.02344-.28125-.04297-.38281-.1211-.34766-.1875-.3086-.25-.26171-.30468-.21485-.34375-.15625-.38281-.10156-.40625-.03125-.4336.03125-.39843.09766-.35547.16797-.30469.23437-.2461.30469-.1875.375-.11718.44531-.03906.51953"/><path fill="#ffffe0" fill-rule="evenodd" d="M227.28125 334.73047h22.17969v-10.19531h-22.17969v10.1953"/><path fill-rule="evenodd" d="M230.78125 326.3711h.50781v6.29296h-.78515v-4.48828h-1.39063v-.55469l.5625-.0664.25-.05469.23047-.08984.20313-.14063.17578-.21094.14062-.29296.10547-.39454m4.8125 0l.23047.01954.21875.05468.20703.08985.19531.12109.1875.14844.16797.17578.30469.41797.24219.4961.17968.54687.11328.57812.03516.58985-.03516.59375-.11328.58593-.17968.55078-.2422.50391-.30468.42578-.16797.17969-.1875.15625-.19531.1211-.20703.09374-.21875.05469-.23047.01953-.23047-.01953-.21875-.05469-.20703-.09375-.19531-.1211-.1836-.15624-.17187-.17969-.30078-.42578-.2461-.5039-.17968-.55079-.10938-.58594-.03906-.59375h.83203l.03125.5625.08203.50782.125.4414.16016.375.1914.30079.21094.22265.22266.13672.22656.04688.22656-.04688.22266-.13672.21094-.22265.1914-.30079.16016-.375.1289-.4414.08204-.50781.02734-.5625-.02734-.5625-.08203-.5-.12891-.4336-.16016-.36719-.1914-.29296-.21094-.21094-.22266-.13281-.22656-.04688-.22656.04688-.22266.1328-.21094.21094-.1914.29297-.16016.3672-.125.43358-.08203.5-.03125.5625h-.83203l.03906-.58984.10938-.57812.17968-.54688.2461-.4961.30078-.41796.17187-.17578.1836-.14844.19531-.1211.20703-.08984.21875-.05469.23047-.01953m5.09375 0h.50781v6.29297h-.78906v-4.48828h-1.38672v-.55469l.5586-.0664.2539-.05469.23047-.08984.20313-.14063.17187-.21094.14063-.29296.10937-.39454m2.82031 2.17579h.78906l.01954-.31641.05859-.28906.09766-.25.14062-.21485.1836-.17578.22265-.1289.26563-.08204.30859-.02734.23438.02344.22656.0625.20312.10156.17969.13672.14844.17578.11328.20313.07031.23828.02734.26171-.02343.26954-.0664.22656-.10938.1914-.15625.17188-.19922.16016-.2461.16796-.63672.38672-.53515.3125-.4375.32032-.34766.32421-.26562.33594-.1875.35156-.125.3672-.07031.39452-.01954.41797h4.21094v-.73828H244.25l.08203-.28515.11328-.23829.14844-.19921.1875-.1797.23047-.17187.28125-.17578.71484-.41797.41406-.20703.34766-.23047.28125-.25.21875-.26562.16406-.28125.10938-.28125.0664-.28516.01954-.28125-.04297-.38281-.1211-.34766-.1875-.3086-.25-.26171-.30468-.21484-.34375-.15625-.37891-.10157-.40625-.03125-.4375.03125-.39844.09766-.35547.16797-.30468.23437-.2461.3047-.1875.375-.11328.4453-.04297.51954"/><path fill="#ffffe0" fill-rule="evenodd" d="M310.67578 345.3164h22.17969V335.125h-22.17969v10.1914"/><path fill-rule="evenodd" d="M314.17578 336.95703h.50781V343.25h-.78515v-4.48828h-1.39063v-.55469l.5586-.0664.2539-.0547.23047-.08984.20313-.14062.17187-.21094.14453-.29297.10547-.39453m4.8125 0l.23047.01953.21875.05469.20703.08984.19531.1211.1836.14844.17187.17578.30469.41796.24219.4961.17969.54687.10937.57813.03906.58984-.03906.59375-.10938.58594-.17968.55078-.24219.5039-.30469.4297-.17187.17578-.1836.15625-.1953.12109-.20704.09375-.21875.05469-.23047.01953-.23047-.01953-.21875-.05469-.20703-.09375-.19531-.1211-.1836-.15624-.17187-.17579-.30469-.42968-.24219-.5039-.17968-.55079-.10938-.58594-.03906-.59375h.83203l.03125.5625.07813.50781.1289.44141.16016.375.1914.30078.21094.22266.22266.13672.22656.04687.22656-.04687.22266-.13672.21094-.22266.1914-.30078.16016-.375.1289-.4414.08204-.50782.02734-.5625-.02734-.5586-.08203-.5039-.12891-.4336-.16016-.36718-.1914-.29297-.21094-.21094-.22266-.1328-.22656-.04688-.22656.04687-.22266.13281-.21094.21094-.1914.29297-.16016.36719-.1289.4336-.07813.5039-.03125.5586h-.83203l.03906-.58985.10938-.57813.17969-.54687.24218-.4961.30469-.41796.17188-.17579.18359-.14843.19531-.1211.20703-.08984.21875-.05469.23047-.01953m5.08985 0h.51171V343.25h-.78906v-4.48828h-1.38672v-.55469l.5586-.0664.2539-.0547.23047-.08984.20313-.14062.17187-.21094.14063-.29297.10546-.39453m6.8047 1.61719h-.78516l-.05079-.21094-.08203-.1875-.10937-.15625-.1289-.13281-.14844-.10156-.15625-.07422-.17188-.04688-.17188-.01562-.32812.04297-.28516.12109-.24609.19531-.20313.26563-.16015.33984-.11719.40235-.07031.46875-.02344.52734.1875-.20313.1875-.16015.1836-.1211.1875-.08984.1875-.0586.1914-.03906.40235-.02343.30859.03125.32031.09375.3125.15234.29688.21875.2539.28516.19922.35156.07422.19922.05078.21875.03125.23437.0039.25-.78906.04688-.02734-.25781-.07422-.25-.125-.23438-.16015-.21094-.19141-.17969-.22266-.13671-.23828-.08594-.2539-.03125-.25782.03125-.23828.08594-.21875.13671-.19531.1797-.16016.21093-.12109.23438-.07813.25-.02734.2578.02735.26173.07812.25.1211.23437.16015.21094.19531.17578.21875.13672.23828.08984.25782.03125.2539-.03125.23828-.08984.22266-.13672.1914-.17578.16016-.21094.125-.23437.07422-.25.02735-.26172.78906-.04688-.03125.3711-.09375.375-.15625.35546-.22266.32813-.28906.28516-.17188.11718-.1875.10157-.20703.08203-.22265.0625-.2422.03906-.2578.01172-.28516-.01563-.25781-.04687-.23828-.07422-.21485-.10547-.19531-.13281-.17578-.15625-.15235-.17969-.13671-.20312-.1172-.22266-.09765-.23828-.14844-.53516-.08593-.59375-.02344-.64062.03516-.7461.11718-.66015.1836-.57813.1211-.25781.13671-.23047.15234-.20703.17188-.17969.1875-.15625.20312-.1289.21485-.10157.23437-.07421.2461-.04297.26171-.01563.3672.03125.33202.09766.29688.15234.2539.19922.21094.23828.16797.27735.11328.30078.0625.3203"/></g></defs><use xlink:href="#at"/></svg>