<svg xmlns="http://www.w3.org/2000/svg" role="img" xmlns:xlink="http://www.w3.org/1999/xlink" viewBox="142.45 309.95 326.84 171.84"><defs><clipPath id="a"><path d="M144 444h1v36.32813h-1zm0 0"/></clipPath><clipPath id="b"><path d="M144 311.67188h1V438h-1zm0 0"/></clipPath><clipPath id="c"><path d="M144 311.67188h324v168.65625H144zm0 0"/></clipPath><clipPath id="d"><path d="M382 477h8v3.32813h-8zm0 0"/></clipPath><clipPath id="e"><path d="M467 311.67188h1v168.65625h-1zm0 0"/></clipPath><clipPath id="f"><path d="M144 479h4v1.32813h-4zm0 0"/></clipPath><clipPath id="g"><path d="M153 479h9v1.32813h-9zm0 0"/></clipPath><clipPath id="h"><path d="M160 480h2v.32813h-2zm0 0"/></clipPath><clipPath id="i"><path d="M167 479h8v1.32813h-8zm0 0"/></clipPath><clipPath id="j"><path d="M180 478h8v2.32813h-8zm0 0"/></clipPath><clipPath id="k"><path d="M194 478h7v2.32813h-7zm0 0"/></clipPath><clipPath id="l"><path d="M207 478h8v2.32813h-8zm0 0"/></clipPath><clipPath id="m"><path d="M220 479h8v1.32813h-8zm0 0"/></clipPath><clipPath id="n"><path d="M233 480h8v.32813h-8zm0 0"/></clipPath><clipPath id="o"><path d="M239 480h2v.32813h-2zm0 0"/></clipPath><clipPath id="p"><path d="M246 478h9v2.32813h-9zm0 0"/></clipPath><clipPath id="q"><path d="M252 479h3v1.32813h-3zm0 0"/></clipPath><clipPath id="r"><path d="M260 479h8v1.32813h-8zm0 0"/></clipPath><clipPath id="s"><path d="M265 479h3v1.32813h-3zm0 0"/></clipPath><clipPath id="t"><path d="M273 478h8v2.32813h-8zm0 0"/></clipPath><clipPath id="u"><path d="M279 479h2v1.32813h-2zm0 0"/></clipPath><clipPath id="v"><path d="M286 478h9v2.32813h-9zm0 0"/></clipPath><clipPath id="w"><path d="M292 479h2v1.32813h-2zm0 0"/></clipPath><clipPath id="x"><path d="M300 478h8v2.32813h-8zm0 0"/></clipPath><clipPath id="y"><path d="M315 476h4v4.32813h-4zm0 0"/></clipPath><clipPath id="z"><path d="M327 477h7v3.32813h-7zm0 0"/></clipPath><clipPath id="A"><path d="M340 478h8v2.32813h-8zm0 0"/></clipPath><clipPath id="B"><path d="M353 478h8v2.32813h-8zm0 0"/></clipPath><clipPath id="C"><path d="M366 479h9v1.32813h-9zm0 0"/></clipPath><clipPath id="D"><path d="M379 480h9v.32813h-9zm0 0"/></clipPath><clipPath id="E"><path d="M380 478h2v2.32813h-2zm0 0"/></clipPath><clipPath id="F"><path d="M393 480h8v.32813h-8zm0 0"/></clipPath><clipPath id="G"><path d="M392 477h2v3.32813h-2zm0 0"/></clipPath><clipPath id="H"><path d="M406 479h8v1.32813h-8zm0 0"/></clipPath><clipPath id="I"><path d="M405 479h3v1.32813h-3zm0 0"/></clipPath><clipPath id="J"><path d="M419 479h9v1.32813h-9zm0 0"/></clipPath><clipPath id="K"><path d="M418 478h3v2.32813h-3zm0 0"/></clipPath><clipPath id="L"><path d="M433 479h8v1.32813h-8zm0 0"/></clipPath><clipPath id="M"><path d="M433 479h2v1.32813h-2zm0 0"/></clipPath><clipPath id="N"><path d="M446 478h8v2.32813h-8zm0 0"/></clipPath><clipPath id="O"><path d="M460 478h8v2.32813h-8zm0 0"/></clipPath><clipPath id="P"><path d="M144 465h4v4h-4zm0 0"/></clipPath><clipPath id="Q"><path d="M144 451h4v5h-4zm0 0"/></clipPath><clipPath id="R"><path d="M144 438h4v5h-4zm0 0"/></clipPath><clipPath id="S"><path d="M144 426h4v2h-4zm0 0"/></clipPath><clipPath id="T"><path d="M144 413h4v2h-4zm0 0"/></clipPath><clipPath id="U"><path d="M465 410h3v2h-3zm0 0"/></clipPath><clipPath id="V"><path d="M144 398h4v5h-4zm0 0"/></clipPath><clipPath id="W"><path d="M466 397h2v3h-2zm0 0"/></clipPath><clipPath id="X"><path d="M465 398h3v3h-3zm0 0"/></clipPath><clipPath id="Y"><path d="M144 385h4v4h-4zm0 0"/></clipPath><clipPath id="Z"><path d="M466 384h2v3h-2zm0 0"/></clipPath><clipPath id="aa"><path d="M465 385h3v3h-3zm0 0"/></clipPath><clipPath id="ab"><path d="M144 371h4v5h-4zm0 0"/></clipPath><clipPath id="ac"><path d="M466 371h2v3h-2zm0 0"/></clipPath><clipPath id="ad"><path d="M465 372h3v2h-3zm0 0"/></clipPath><clipPath id="ae"><path d="M144 358h4v5h-4zm0 0"/></clipPath><clipPath id="af"><path d="M466 358h2v2h-2zm0 0"/></clipPath><clipPath id="ag"><path d="M465 358h3v3h-3zm0 0"/></clipPath><clipPath id="ah"><path d="M144 344h3v7h-3zm0 0"/></clipPath><clipPath id="ai"><path d="M466 345h2v3h-2zm0 0"/></clipPath><clipPath id="aj"><path d="M465 345h3v3h-3zm0 0"/></clipPath><clipPath id="ak"><path d="M144 332h4v3h-4zm0 0"/></clipPath><clipPath id="al"><path d="M466 331h2v3h-2zm0 0"/></clipPath><clipPath id="am"><path d="M465 332h3v3h-3zm0 0"/></clipPath><clipPath id="an"><path d="M144 318h4v5h-4zm0 0"/></clipPath><clipPath id="ao"><path d="M465 317h3v2h-3zm0 0"/></clipPath><g id="ap" clip-path="url(#clip1)"><path fill="#fff" fill-opacity="0" fill-rule="evenodd" d="M0 0h1000v1000H0zm0 0"/><path fill="#d3d3d3" fill-opacity="0" fill-rule="evenodd" d="M162.15234 355.86719l-.23437.29297.0586.23437.11718.17188.17578.23437.29297.34766.11328.0586.11719-.17188.0586-.23438.17577-.17578.46485-.17578h.69922l.23437.29297.28906.8164.0586.17579.17578.23046.35156.23438.69922.69922.17188.17578.23437.34765.23438.41016.28906.58203.41015.46485.23047.23437.23438.17578.11719.23047.17578.29297.17187 1.16406v.23438l.0586.28906.05859.11719.11719.11719.34765.41015.11719.17188.17578.17578.17578.23437.11719.17188.17188.35156.05859.23438.23437.40625.23438-.0586-.17578.17578-.0586.92969h-.58203l-.23437-.11328-.34766.11328-.11719.11719-.05859.29297-.0586.17578-.11718.17187-.46484.29297-.0586.23438-.0586.11328v.64453l.0586.17187v.41016l.0586.0586v.40624l.05859.40625.11719.17579.05859.05859.23047.64062-.0586.29297v.69922l-.05859.58203v.23438l-.0586.23047-.05468.35156v1.92187l.05469.1172h.42578l-.36719.11718-.02344.35156.89063 1.16797 1.74219.53906 1.33984.35938v.53906l.08984.8086.53516.71484 1.51953.26953.89063-.08594.08984 1.16406.53516.1797 1.16015-.1797 2.05469-.98437 1.16016-.36328 1.8789-.17578 1.69531-.1797-.17968.71876-1.51563.08594-1.25.08984-.80469.26953-1.07421.8086.26953.71875.53515.89843-.17968.625-.26563.8086.26563 1.07812.625.89844.80468.17969 1.25-.1797-.26562.72267.09766.5039.05468.29297v.17188l.0586.29296v.40625l.17578.1172.35156.11718h.40625l.29297-.17578.11328-.11719.0586-.11719.11718-.23047.0586-.17578.35156-.46484.23047-.17578.17578-.0586.17578.0586.0586.17578.11718.98828.05469.46875.0586.17188.11718.23437.17578.0586.8164.05859h.28907l.11719.23437.05859.40625.0586.35156v1.10547l.11718.29297.11719.34766.28906.69922.17578.35156.58203.7539.35157.17579.17187.0586.46875.23437.64063.46484.34765.23438.29297.17578.29297.05468.23047.0625.8164.34766.29297.17578.11328.17188.35157.35156.11719.17578.52343.64063v.28906l.0586.35156v.34766l.05859.35156.0586.28906.11718.0586.17188.05859h.17578l.58203.23437.17578.1172.17578.28905.17578.23438.11328.23437.29297.23047.11719.11719v.41016l.0586.05468.28906.23438.23437.11719.0586.11718.11718.17188.0586.11719.23047.23437.05859.17578.23437.0586.1172.05859-.1172.11328-.05859.11719v.11719l-.11719.29296-.11719.28907v.58203l.17579.11719.11718.05859.0586.11719.11719.11719.11328.05859.17578.34765.0586.35157.05858.40625v.17578l-.05859.17578-.11719.69922v.17187l.1172.17579.29296.29296h.40625l.17578.1172.11719.17187.11719.29296v.23438h-.52735l-.23047-.23438h-.23437l-.17578.0586-.0586.69922.0586.34765.11719.17579.17578.41015.11718.23047.28907.46875.17578.05469h.52344l.23437.0586.75781.64062.0586.29296v.23438l.05859.0586.23047.34765v.35156l-.11719.17188v.29297l.29297.28906.29297.17578.17187.0586.29297.17577.29297.1172.58203.40624.28906.23438.29297.17578.21875.16015.01563.01172.23047.17579.64062.52343.17578.23438.1172.17578.17577.17578.11328.17188v.64062l.1172.17578.46874.11719.58203.11719.23438.05859.23047.11328.29297.11719.11328.0586.58593.35156.28907.17187.17578.0625.17578.05469.17578.0586.69922.35155.28906.17579.23438.05468.28906.17578.23437.1172.64063.40624.29297.11719.17187.0586.23438.05859.41015.05859.23047.0586.23438.11718.0586.17188-.41017.17578.46875.0586.0586.29296.11328.23438.17578.05468.23438.0586.17578.05859.40625.11719.64062.23437.11719.17188.0586.23437v.17578l-.0586.1172-.0586.40624.23438.23438.11719.05859.34766.11719.64062.23047.17578.11718.28906.1172.17578.17577.23438.46485.58203 1.10546.17578.17579.34766.17578.17578.11719.35156.11718 1.04688.52344.23437.0586.46485.11327.29297.0586.46484.17578.75781.58203.23438.23438.34765.46484.17578.17578.28907.23438.8164.69921.29297.17579.28906.28906.29297.17578.29297.28906.69531.64063.17578.17578.29297.23437.28907.23438.46875.28906.64062.58203.34766.23438.23437.29297.34766.34765.35156.46485.9336.99218.34765.40625.11719.17579.23437.05859.11328.11719.64454.17578.23047.11328.23437.0586.29297.17577.23047.1172.9336.69921.40624.40625.23438.17578.40625.17578.23437.11719.8164.34766.34766.23437.23438.11719.29297.28906.23047.11719.7578.35156.35157.17188.23047.05859.29297.11719.23437.0586.8711.17577h.8164l.46875.23047.17188.0586.875.69921.46484.1172.29297.05858.17578.0586.23047.0586.46875.05859.34766.05859.35156.0586.40625.05859h.29297l.17187.0586v.23046l.17578.17578h.29297l.34766.0586.35156.05859.69922.11719h.64063l.46484-.23438.29297-.17578.17187-.11719.41016-.17187.28906-.17578.9336-.46485.46875-.29297.52343-.29296.46485-.17188.46484-.17578 1.05078-.46485.28906-.11718.41016-.11719.28906-.11719.52735-.17578 1.51562-.69922.58203-.34765.28907-.0586.29297-.0586.34765-.11718.875-.23047.35156-.11719h.11329l.23437-.05859.875-.23437.23438-.0586h.8125l.35156-.0586.8164-.11718.17188-.0586.35156-.05468.29297-.0586.23047-.05859.8164-.17578.17579-.0586h.34765l.23438-.05859.46484-.11718.75781-.17188.23438-.0586h.34765l.41016-.11718.28906-.0586 1.28516-.05859h.28906l.41016-.0586.23047-.05858h.17578l.875-.1172h.40625l.41015-.11718h.34766l.35156-.11328.8711-.0586h1.75l1.04687.28907.41016.11719.28906.11718.35156.11719.28907.11719 1.05078.17187.28906.0586h.29297l.29297.05859.17187.0586.41016.05859.17187.0586.1172.05858h.11718l.11719.0586.35156.0586h.11328l.41016.0664 1.92187.39453 1.92578.39453 1.51953.44922 1.69532.71875 2.14453.80469 1.60547-.71875 1.42968-.80469 1.16016-1.07813 1.25-.44921 3.03516-.71875 1.875-.35938 2.14453-1.34765 2.23437-1.25391 2.5-1.25781 1.69531-.44922 1.78516-.17969 1.16016-.26953.625.53906 1.33984-.26953.71485-.98828.98437-1.34375.44531-.17969.80469-.35937 1.875-.53907 1.78516-.44921 1.25-.26954 1.16015-.08984 1.69922-.08984 1.96094-.26954 1.25-.08984h.53906l.625-.08984h.89063l2.14453-.17969 2.41015-.17969 2.58985-.08984 1.69531.17969 1.60938.08984 1.42968.35938 1.16016.71875 1.875.98828 1.16015 1.52734.26563.71484.6289.08985.35548.89844.53515.53906.53516 1.52734 1.07422.35938h.53515l-.80469.53515.08985 1.70703.71484 2.69532.89063.80468.89453.98829.71484 1.2578 1.78516.53907 1.51953-.17969.35547 1.34375 1.60937-.80469.98047-.53906.26953.26953.31641-.21484.21875-.14453.80078.44922.44922-.35938h.35547l.53515-.26953.53907-.71875.53515-.26953.625-.98828 1.16016.44922.83984.3711 1.39454.61718 1.6953-.17969h1.60548l1.78515.08985.17969-1.70704.53516-1.34375.80468.26954.4922.84765.40233.40625-.08984.53906v.35938l.71485.44922.71093-.26953h1.42969l.35938.98828.4453 1.25781.71485 1.34375 1.25.6289 1.69531.62891.71485-.17969.17969-.53906.98046-.08984.44922.35937.08594 1.25782-.26563.6289-.53515.17969v.53906l.71484.98438.26563.53906.98437.98828.80078 1.07813-.26562.35937-.08985.89844-.625 2.33203-.35546 2.0664-.08985 1.79298-.17969.71875-.08984.53906v1.4375l-.98047 1.88281-.35937 1.70703-.53516.89844-.80469 1.16797-.26562.53906 2.05469 1.2539.08593.35938-.35546.53906-.08985-.17968v.80859l.08985 1.4375-.44532.71484-1.07422.09375-.26562.71485.53515.89844.8047.71875 1.16015.80859 1.33984.26953.44531.35938-.35546.44921-1.78907-.08984-1.25-.44922-.71484-.71875-.625-.08984-.17578 3.58984-.1875 1.3086h89.35937V311.70313h-55.26953v49.08203l.76172.125 3.28906.54296 2.02344 2.83594v2.7539l2.35156.33204 2.34766.33203h4.05078l-1.3789 4.16016-2.02344.70703-2.02344.70312-.54297.34375-2.59375 1.6172-.1875.11718-2.02344-2.07813-.73046-2.74218-2.67188-2.07813-1.375-3.5-.0664-.08203-1.95704-2.67188 2.75-1.41796v-49.08204H294.42187v91.41407l.1172.03125.1328.01172.07422.07421.10547.04688.08985.0586.08593.05859.08985.0586.29687.29687.0586.08984.03125.11719.02734.11719.01563.13671-.03125.1172-.0586.08983-.0586.08594-.04296.10547-.04688.10156-.02734.1211v.14453l.17578.26953.14844.14844.07422.08594.07422.07421.04296.10547.0625.08985.0586.08593.04297.10547.0586.08985.04687.10156.04296.10547.0586.08594.11719.17968.07421.07422.0625.08594.0586.08984.04297.10547.0586.08985.05858.08593.0625.08985.0586.08984.04297.10156.11719.17969.07421.07422.0586.08594.07422.07421.08984.0586.10547.04687h.14844l.1328-.01562.13282.01562.10156-.04687.07422-.07422.04688-.10156-.01563-.13281v-.14844l-.04687-.10547-.02735-.11719-.04687-.10156-.02735-.1211-.04296-.10156-.0625-.08984-.04297-.10156-.04297-.10547-.03125-.11719-.01563-.13281-.01171-.13672.08593-.0586.0586-.08593.12109-.03125.04297.10547.01562.1328v.1172l.0586.10156.0586.08984.08983.0586.14844.14843.0586.08985.04296.10547-.01171.10156.08593.0586.10547.04687.08594.0586.08984.05858.07422.07422-.11719.02735-.10546.04687-.08594.0586-.07422.07421-.0586.08985-.0625.08594-.02734.12109-.04687.10156-.04297.10547-.03125.11719-.01172.13281-.01563.13281v.14844l.02735.11719.04687.10547.04297.10156.0586.08984.07421.07422.08985.0586.07422.07421.08984.0586.0586.08984.04296.10547.04688.10156.11719.03125.1328.01563h.14845l.11718-.03125.10547.04297.04297.10547.04688.10156.02734.1211L299.5 410l.02734.11719.03125.1211.02735.11718.10547.04297.10156.04687.13281-.01562.14844.14844.0625.08593.07422.07422.07031.07422.08984.0625.10547.04297.10156.04297.1172.03125.13671.01562.11719-.03125.07422-.07422.02734-.11718-.01172-.13282-.03125-.12109-.02734-.11719.04297-.10547h.11719l.08984.0625.11719.02735h.14843l.13282.01562h.14843l.13282.01563.1328-.01563h.14845l.1328-.01562.13282-.01172.13672.01172.11719-.02735.13281-.01562.1914-.0586-.05859.17579-.01562.1328-.02735.1211-.01562.13281-.0586.08594-.1328.01563-.10548.04687-.10546.04297-.1172.03125-.11718.02735-.26563.03125h-.14843l-.13281.01562-.07422.07422.05859.08594.14844.14843.11719.1797.07421.0703.08985.0625.08984.0586.08594.0586.08984.05858.10156.04297.10547.0625.10547.04297.08594.0586.10547.04687.10156.04297.17969.11719.0586.08984-.04298.10156-.04687.10547.01562.13281.22266.22266.0586.08985.04296.10156.03125.1211.04297.10155.01563.13282.03125.11718.01171.13672.03125.11719.14844.14844.10156.04297.10547.04296.1172.03125.1328.01563.13672.01563h.11719l.11719-.03125.08984-.0586.04297-.10547.04688-.10156.04296-.10547.03125-.11719.01172-.1328v-.14845l-.01172-.1328-.01562-.13282-.03125-.11719-.04297-.10547-.04688-.10547-.04296-.10156-.04297-.10547-.01563-.13281.01563-.13281.02734-.11719.03125-.11719.02735-.1211.04687-.10155.08984-.0586.08594-.0625.07422-.07422.08984-.05859.22266-.22266.0586-.08593.07421-.07422.11719-.17969.0586-.08594v-.14844l-.07423-.07421-.10156-.04688-.10547-.04297-.10156-.04297-.0586-.08984-.04687-.10547-.02734-.11719.08984-.05859.11719-.03125.10156-.04297.17969-.11719.14844-.14843.01172-.13282-.01172-.10546-.08985-.0586-.1328.01563h-.14845l-.1328.01562-.13282-.01562-.1211-.03125-.08593-.0586-.07422-.07422-.0586-.08984-.0625-.08594-.11718-.17969-.0586-.08593.03125-.1211.08594-.05859.1211-.03125.05859-.08594v-.1211l-.03125-.11718-.0586-.08984-.05859-.08594-.04687-.10547-.02735-.11719-.01562-.1328.0586-.08985.07421-.07422.08984-.0586.1172-.17968.07421-.07422.0586-.08594.14843-.14844.1211-.03125.1328-.01562.13282.01562.07422.07422.04297.10547.01562.13281-.03125.1172-.11719.03124-.1328.01172-.14844.14844-.04297.10547-.04688.10156-.02734.1211-.03125.11718v.14844l.03125.11719.04297.10546.05859.08985.07422.07031.07422.07422.11719.03125.12109.02734.11719-.02734.1328-.01563h.1172l.08984.0586.07422.07422.04687.10546.0586.08594.10156.04688.13281.01562.10547.04297.08594.0586-.01172.10546-.07422.07422-.17969.11719-.05859.08984-.08984.0586-.07032.07422-.07421.07421-.0625.08985-.02735.11719-.01562.1328.01562.13282-.01562.13281v.14844l.01562.13281.02735.1172.03125.12108.07421.07422.08985.0586.08594.0586.08984.05858.11719.03125v.08594l-.10157.04688-.08984.0586-.26563.03124-.11718.02735h-.14844l-.10547.04296-.10156.04688-.0586.08984-.0625.23438-.01171.13281-.03125.1211-.01563.1328v.29298l-.01172.1328.01172.13673.01563.1328.1328.01563.13282.01172.1211.03125.08593.0586.07422.07421.04688.10547.04296.10157.01563.1328v.44532l-.01563.13281v.44532l.03125.26562.02735.11719.01562.13281.03125.11719.08594.21094.03125.26562v.14844l-.03125.11719-.02734.11718-.03125.1211-.02735.11719-.03125.11718-.03125.1211-.01171.1328-.01563.13282.08984.0586.1172-.03125.10155.01562.04688.10547-.03125.26562v.44141l-.04297.10547-.04688.10547-.04296.10156-.04297.10547-.0586.08594-.03125.12109-.04296.11719-.03125.11719-.01563.1328.01563.13282.05859.08984.10547.04688.08594.0586.05859.08593-.01172.13672-.03125.11719-.04297.10156v.44531l-.01562.13281v.14844l-.03125.11719-.04297.10547-.02735.11719-.04687.10546-.04297.10157-.03125.12109-.02734.11719-.03125.13281-.03125.11719-.02735.11719-.04297.10546-.03125.1172-.03125.12108-.01171.13282-.01563.13281v.29688l.02734.11718v.14844l.04688.39844.02734.11719.0586.08984.12109.03125h.14844l.13281-.01563.0586.08985v.11719l-.0586.08984-.08984.0586-.10157.04296-.10546.04688-.08985.05859-.08594.0586-.13671.01562-.1172-.03125-.1328-.01563-.10157.04688-.0625.08594-.01172.13671-.01562.13282-.03125.11719-.02735.11718-.01562.13281-.03125.1211v.29687l.01563.13282.03125.11718v.14844l.01171.13281v.14844l-.02734.11719-.04688.10156-.02734.1211-.03125.11718-.0586.08985-.07421.07421-.10156.04297-.10547.04688-.11719.02734-.1211.03125-.10156-.04687.0586-.08594.10547-.04688.02734-.11718.03125-.11719.02734-.1211.03125-.11718v-.14844l.01563-.13281-.03125-.11719-.04297-.10547-.10547.01563-.07422.07422-.10156.04296-.08984.0625-.07422.07422-.04297.10157-.01563.1328-.03125.1172L304.25 426l-.03125.11719-.02734.11719-.03125.12109-.02735.11719-.03125.11718-.04297.10547-.08984.0586h-.08984l-.1172-.03125-.03124-.08594.01562-.13672-.03125-.11719v-.14844l-.01171-.1328v-.14844l-.0625-.23438-.02735-.1211-.04297-.10156-.04687-.10546-.0586-.08594-.05859-.08985-.04297-.10546-.0625-.08594-.14844-.14844-.0703-.07422-.10548-.04687-.10547-.04297-.10156-.04297-.29687-.29688-.08985-.07421-.08594-.0586-.10546-.04297-.08985-.0625-.08594-.0586-.10546-.04296-.08985-.0586-.08594-.0625-.07421-.0703-.10547-.04688-.08594-.0586-.10547-.04296-.08984-.0625-.10156-.04297-.10547-.04297-.08594-.0586-.10547-.04687-.10547-.04297-.10156-.04687-.08985-.0586-.10156-.04297-.10547-.04296-.08984-.0625-.11719-.02735-.13281-.01562-.13281.01562H299.75l-.13281.01563-.11719-.03125-.08984-.0586-.07422-.07422-.08985-.05859-.10156-.04688h-.14844l-.12109-.02734-.10156-.04297-.07422-.07422-.11719-.17968-.08984-.0586-.10156-.04297-.08985-.0625-.10547-.04296-.08984-.0586-.08594-.0586-.10547-.04687-.0586-.08594-.05858-.08984-.04297-.10547-.04688-.10156-.07422-.07422-.08594-.0586-.07421-.07421-.08985-.0586-.22265-.22265-.04297-.10547-.03125-.26563.10547-.04296h.14453l.10547.04296.07421.07422.08985.0586.08594.0586.10546.04687.08985.05859.14844.14844.0703.07422.14845.14843.0625.08594.07421.07422.08594.0586.07422.07421.08985.0625.08984.0586.08594.05859.26953.17578.10156.04688.10547.04296.10156.04297.04688-.07421.05859-.08594.07422-.07422.07031-.07422.10547.04297.07422.07422.0586.08984.04296.10156.04688.10547.04296.10547.1211.02735.11719-.02735.07421-.08984.04297-.10547.0586-.08985.07422-.07421.10546-.04297.1172-.02735.1328.01172.08985.0586.14844.14843.05859.08985.04297.10547.04687.10156.04297.10547.04297.10156.10547.04688.10547.04296.13281.01563.08594-.0586.0586-.08984.07421-.07422.10547-.04297.11719.02735.10547.04687.10156.04297.10547.04297.10156.04688.17969.11718v.11719l-.01563.13281.01563.13281.01562.13672.0586.08594.10156.04688.1211.02734.11718.03125h.14844l.11719-.03125.05859-.08984.17969-.1172.05859-.08983.07422-.07422.0586-.08594.11718-.17969.17969-.11719.11719.03125.08984.0586.04297.07422-.01563.1328v.1172l.08985.05859h.14843l.13282-.01563.1328-.01171.26563-.03125.10547-.04297.11719-.03125.1211-.02735.07421-.07421.07031-.07422.0625-.08985-.01562-.10547-.04688-.10156-.10156-.04297-.10547-.01562-.11718.02734-.26563.03125h-.14844l-.07421-.07422-.08985-.0586-.11719-.03124-.11718-.02735-.13282-.01562h-.14843l-.13282.01563h-.29687l-.10547-.04688-.14844-.14844-.04297-.10156-.05859-.08984.22266-.22266.08593-.0586.10547-.04296.11719-.03125.13281-.01563.13281.01563.13672.01562.10157.04297.1328-.01172.08985-.0625.10156-.04297.0625-.08984-.04687-.10156-.08984-.0586-.1172-.03125-.10155-.04296-.0586-.08985-.0625-.08984v-.11719l.01563-.13281.10547-.04688.07421-.07031v-.1211l-.08984-.05859-.03125-.11719.08985-.05859.07421-.07422.04297-.10547.0586-.08984.04687-.10156.01563-.13281v-.14844l-.04688-.10547-.04297-.10156-.08984-.0586-.13281-.01562-.10157-.04297-.13671-.01563-.1172-.03125h-.4453l-.13282-.01562-.13281-.01172-.13281-.01563-.11719-.03125h-.14844l-.13281-.01562-.13281-.01172-.26563-.03125-.1211-.04297-.08593-.0586-.07422-.07421v-.14844l.01172-.13281.10547-.04688.10156-.04296.13281-.01563h.15235l.13281-.01562h.29297l.1211.03125.10156.04296.08984.0586.23438.0625.12109-.04688.08984-.05859.10156-.04297.13282-.01562.10547.04296.10156.04688.13281.01172.1211-.02735h.14453l.12109-.03125.11719-.02734.10547-.04687.07421-.07422.08594-.0586.14844-.14843.0586-.08594.04687-.10547.02734-.11719.01563-.10547-.10156-.04296-.08985-.0586-.11719-.03125-.10546-.04297-.08985-.0625-.07422-.08594-.07422-.07421-.10156-.04297-.10547-.04688-.10156-.04297-.0586-.08984-.04687-.10156-.08594-.21094-.0625-.08594-.05859-.08984-.07422-.07422-.08594-.0586h-.26953l-.11719.03126-.08984.05859-.10156.04297-.13281.01562-.10547-.01562-.02735-.11719-.0625-.08984-.11718-.03125-.10157-.04297-.14843-.14844-.03125-.11719-.01563-.10546.07422-.07422.17969-.1172.11719-.02733.11718-.03125.13672.01562.10156.04297.10547.04297.10156.04687.10547.04297.1172.03125.1328.01563.1172.02734.1328.01563.10547-.01563.08985-.0586-.07422-.07421-.10547-.04297-.07422-.07422-.07422-.08984-.14844-.14844-.08593-.0586-.08985-.05859-.07422-.07422-.08984-.0586-.10156-.04687-.1211-.02734-.10156-.04688-.10547-.04296-.11719-.03125-.10156-.04297-.1211-.03125h-.14843l-.11719.03125-.10546.04297-.08594.0625-.17969.11718-.08594.0586-.08984.0586-.10547.04687-.08594.05859-.10547.04297-.10156.04297-.10547.04687-.07422.07422-.05859.08985-.0586.08593-.04687.10547-.0586.08594-.07421.07422-.13281-.01172-.1172-.03125h-.11718l-.07422.07422-.08984.0586-.07422.07421-.08984.0586-.08594.05859-.10547.04687-.10156.04297-.13672.01563-.10156-.04297-.14844-.14844-.10547-.04688h-.08594l-.10547.04688-.10156.04297-.1211.03125-.11718-.03125-.07422-.07422v-.11719l.03125-.1211.07422-.0703.0586-.08985.07421-.07422.11719-.03125.10547-.04296h.29297l.13281-.01563.13672-.01563.10156-.04296.08985-.0586.10156-.04687.08984-.0586.13281-.01171.08985.05859.13281.01172.08984-.0586.08594-.05859.10547-.04297.08984-.0586.08594-.0625.08985-.05859.14843-.14843.0586-.08594.05859-.08985.10547-.04296.13281-.01563.11719.02735.1211.03125.05859-.0586.05859-.08984.03125-.26563.02734-.11719.10547.01172.13281.01563.10157-.04297.08984-.0586.0586-.08984.07421-.07422.0586-.08984.04687-.10156.01172-.13281-.01172-.13282-.04687-.10547-.14844-.14843-.0586-.08985-.05859-.08594-.04297-.10546v-.44532l.01563-.1328v-.14845l.01172-.1328-.0586-.0586-.08984.0586-.10156-.04298-.17969-.11719-.08594-.05859-.0625-.08984-.0586-.08985-.07421-.07421-.08594-.0586-.1211.03125-.10155.01172-.10547.04688-.08594.05859-.10547.04297-.14844.14844-.08984.05859-.08594.0586-.08984.0625-.10547.04296-.13281.01563v-.1211l.10547-.04297.11718-.03125.07422-.0703.04297-.10548v-.14844l-.02734-.11718-.14844-.14844-.13281-.01563h-.14844l-.11719.03125-.10547.04297-.10156.04297-.08984.0625-.11719.02735-.07422-.07422.01172-.13281-.04297-.10157-.04297-.10547-.08984-.05859-.11719.02734-.1211.03125-.11718.03125-.10156.04297-.1211.03125-.10156.04297-.10547.04297-.08984.0586-.10156.01562v-.11719l.01562-.13281-.0586-.08985-.07421.04297-.14844.14844-.0586.08985-.07421.07421-.04688.10547-.04296.10156-.07422.07422-.0586.08985-.07422.07422-.05859.08593-.07422.07422-.08984.0625-.07422.07031-.07422.07422-.10156.01563-.13281.01562-.10547-.04296v-.1211l.14843-.14844.04297-.10156.0586-.08984.04687-.10156.04297-.10547.0586-.08985.03124-.11719.04297-.10156.03125-.1211.02735-.11718.04687-.10547.04297-.10156.04297-.10547.07422-.07031.08984-.0625.08985-.0586.10156-.04296h.29687l.26563-.03125.10547-.04297-.07422-.07422-.11719-.03125-.10547-.04297-.08984-.0586-.10156-.04687-.08985-.0586-.10156-.04296-.10547-.04297-.08984-.0625-.08594-.0586-.10547-.04296-.10156-.04297-.1211-.03125-.11718-.03125-.10157-.04297L297.5 410.25l-.10156-.04297-.08985-.0586-.04296-.10546-.01563-.13281.10156-.04297.13281-.01563.13672.01563.13282-.01563.10156-.04297.0586-.08984.01562-.10547-.08985-.0586-.07421-.07421-.10157-.04297-.08984-.0586-.14844-.14843-.04297-.10547-.01562-.13281v-.29297l-.0586-.08985-.08984-.05859-.07422-.07422-.04297-.10547-.03125-.11718-.0586-.08985-.07421-.07422-.11719-.02734-.07422-.07422-.08984-.0586-.08984-.0625-.08594-.05859-.07422-.07421-.0586-.08594-.04687-.10547-.08594-.0586-.14843-.14843-.19532-.0586-.1328.01563-.10157.04297-.07422.07422-.04688.10156-.04296.10547-.0586.08984-.0586.08594-.29687.29687-.08984.0586h-.08594l-.0625-.08594-.04297-.10547.03125-.11719.0586-.08984.02734-.11719-.01172-.13281-.08984-.0625-.10547.04688-.11719.02734-.11719.03125-.26953.17578-.10156.04688-.11719.02734-.10546.04687-.08985.0586-.10156.04297-.0586-.08594-.04687-.10547.01563-.13281.04687-.10547.07031-.07422.07422-.07031.0586-.08985v-.14843l-.04297-.10547h-.23829l-.10156.04687-.03125.11719-.02734.11719-.03125.1211-.07422.04296-.13281.01563-.07422-.04688-.04297-.10156-.04297-.10547-.04687-.10156-.04297-.10547-.1211.03125-.10156.04297-.13281.01562-.11719.03125-.10547.04297-.08984.0586-.10156.04687-.1211.02734-.13281.01563-.10156-.04297-.0586-.08985-.04687-.10546-.04297-.10157-.04297-.10546v-.1172l.0586-.08984.08593-.05859.17969-.11719.10156-.04687.10547-.04297.10547-.0586.10156-.04296.08985-.0625.10156-.04297.10547-.0586.10156-.04687.08984-.0586.10547-.04296.10156-.04297.08985-.0625.10156-.04297.13672-.01563.11719.03125.10156.04297.1211.03125.10156.04297.10546.04688.10157.04296.10547.04297.10156.04688.10547.04297.10156.04297.10547.04687.08594.0586.10546.04296.1172.03125.10546.04297.10156.04688.08985.0586.10547.04296.10156.04297.10547.04687.11719.02735.10156.04687.1211.02735h.14843l.08594-.0586.01562-.10156.0586-.08984-.02735-.1172-.07422-.07421-.11719-.17969-.07421-.07422-.08985-.07421-.17969-.1172-.08593-.05859-.10547-.04296-.10156-.04688-.26954-.17578-.05859-.08985-.07422-.07421-.0586-.08985-.04296-.10156-.03125-.11719-.01563-.13672v-.5625l-.01171-.1328-.01563-.13282-.03125-.11719-.01562-.13281-.01172-.13281-.03125-.1211-.22266-.22265-.0586-.08594-.01562-.10547.03125-.11719.13281-.01562v-91.41406H172.9922v1.45312l-.0586.23438-.35156 1.05078-.17187.52343-.1172.34766-.17577.41016-.11719.17187-.23438.29297-.23046.0586h-.35157l-.11718.05859-.23047.40625v.29297l.11719.17578.23046.23047.1172.23437.64062.75781.29297.46485.17578.23437.23047.35156.23437.34766.64063.8164.17578.46485.17187.41016.11719.69531.17578.46875.11719 1.39844.0586.46484v.875l.11718 1.04688v4.78125l-.0586.46484-.35156 1.28125-.17578.52344-.11328.41015-.35156.9297L172.93359 336l-.23437.58203-.11719.17578-.17187.34766-.17578.40625-.35157.8164-.0586.29297-.11327.29297-.11719.28906-.0586.17579-.11718.875-.0586.40625-.05859.11718-.0586.17579-.05859.17187-.23047.52734-.11718.17188v.23437l-.11719.23438-.0586.17187-.17577.58594v.28906l-.0586.17579v.29296l-.0586.11329-.05859.52734v.17187l-.05468.23438v2.6211l-.17578.8164-.1172.17578-.17577.23438-.1172.17187-.11327.23438-.58594.93359-.23047.28906-.29297.46485-.17578.23437-.28906.35156-.35156.69922-.11328.23047-.17579.41016-.17578.23046-.40625.52735-.8164.69922-.29297.17187-.28906.23438-.17579.11719-.17578.17578-.52344.40625-.52734.17578-.17187.17578-.23438.05469-.64062.17578h-.75782m12.21094 31.02344l-1.07422.44921.35938.89454 1.25-.71485.44531-.53906-.98047-.08985"/><path fill="#d3d3d3" fill-opacity="0" fill-rule="evenodd" d="M201.50781 416.59766h-.89453l.44922.6289.98047.35938.80469-.08985.4453-.98828-.17577.08985-.71485-.35547-.89453.35547m154.6211 59.0703l-.0586-.52343v-.29297l.11328-.29297.0586-.23046.46875-.46875h.11328l.11719-.11329.11718-.05859h.17579l.23437-.0586h.34766l.23437.0586.11719.0586.23047.17187.0586.17578.11718.58203v.29297l-.11719.17578-.17187.28906-.17579.17579-.52734.52343-.23047.23438-.11719.0586h-.17578l-.11718-.0586-.40625-.29297-.17579-.11719-.11718-.0586-.0586-.11327-.05468-.1172m6.64062-10.95702l-.0586-.17188v-1.10937l.0586-.17188.17578-.0586.17188-.05858h.17578l.23437-.0586.1172.0586.05858.69921-.05859.17188-.11719.17578-.11718.0586-.23438.52343-.11328.0586h-.23438l-.05859-.1172m9.61328-14.39062l-.11719-.17578v-.69922l.29297-.875.1172-.17187.17577-.35156.11328-.23047.1172-.29297.35155-.75781.1172-.23047.17187-.23438h.17578l.11719-.0586h.64062l.11719.0586.23437.23438.17188.11328.35156.29297.11719.11718.11328.17579v.11328l.11719.05859.11718.11719v.69922l-.05859.17578v.23047l-.0586.17578-.34765 1.05078-.11719.23047-.11719.23437-.11718.0586-.23047.23437-.64063.28906h-.875l-.41015-.11718-.64063-.46485"/><path fill="none" stroke="#bebebe" stroke-linecap="round" stroke-linejoin="round" stroke-miterlimit="10" stroke-width=".5" d="M467.95703 311.69531H144.02734v168.625h323.9297v-168.625"/><g clip-path="url(#a)"><path fill="#fff" fill-opacity="0" fill-rule="evenodd" d="M144 475.89063v4.4375h.0039H144v-36.08985 31.65235"/></g><g clip-path="url(#b)"><path fill="#fff" fill-opacity="0" fill-rule="evenodd" d="M144 435.94531v1.24219-125.51563h.0039H144v124.27344"/></g><path fill="#50fcfc" fill-rule="evenodd" d="M144 437.1875v7.05078l.0039-.0039v-7.04297L144 437.1875"/><g clip-path="url(#c)"><path fill="#fff" fill-opacity="0" fill-rule="evenodd" d="M144.0039 480.32813v-36.09375l2.26173-3.85157-2.26172-3.1914V311.67187h62.1328v98.84766l-3.55077 3.23438 3.55078 4.36328.26562.07422 4.17188 1.7539 3.3164 2.6836 1.125 1.0664 1.66797 3.375 2.76953 2.76953 4.4375.84375.69141.82422 3.7461 4.01953.49218.41797-.49219 2.09375-4.4375.50781-4.4375 1.14844-4.4375-3.44531-.2539-.30469-3.88672-4.4375-.30078-.39453-4.4375-3.94531-.17188-.09766-4.26562-1.82812-4.4375-1.04688-2.42969-1.5664-2.01172-1.64063-4.4375.04297-3.6836 1.59766-.7539.23437-4.4375 2.29297-3.9961 1.91406-.4453.875-3.44922 3.5625-.98828.21094-4.4375 2.6289-1.4336 1.59766-2.41015 4.4375-.59375 2.10156-1.20313 2.33594.72266 4.4414-3.51172 4.4375-.30469 4.4375 2.71484 4.4375 1.58204.51563 4.4375.73829 3.15234-1.25391 1.28516-.1836 4.4375-4.2539v-.0039l4.4414-.31641 3.21875.3203 1.21875 1.07813 4.4375 2.9922 4.4375-.03126 4.4414-.0625 4.4375-1.28515 4.4375-.02344 4.4375-.03125 2.66017-2.63672 1.78125-2 2.67578-2.4375 1.76172-.52344 4.4375-2.9375 4.4375.46875 3.57421-1.44531.86328-1.70313 4.44141.98438 1.65625.71875 2.78125 1.36719 3.17969-1.3672.96875-4.4414.28906-.24219 3.1875-4.1953 1.10938-4.4375-4.29688-4.14454-4.4375.33594-3.41406-.6289-1.02344-.73048-4.4414-2.8164-3.32813-.89063-1.10938-.8789-4.4375-3.08204-.8828-.48046-3.5547-3.25-4.13671-1.1875-.30078-.2461-4.44141-2.67969-.53516-1.51171-3.90234-3.23438v-98.84765h53.26172v117.47265l-4.4414.63281-2.11329 1.73047-1.82813 4.4375 3.94141 3.51172 4.4414-2.28125 1.22657-1.23047 1.96094-4.4375-3.1875-2.36328V311.67188h13.3125v116.17968l-3.67578 3.65625 3.67578 3.09375 4.23437-3.09375-4.23437-3.65625V311.67187h8.8789v120.29297l-3.83203 3.98047-.60547 2.7539-2.97656 1.6836 2.97656 1.5 1.6211-1.5 2.8164-.64062 4.4375.36719 4.4375-2.17188 2.01172-1.99219-2.01172-2.77734-4.4375-.91016-4.4375-.29297V311.67188h39.94532V431.1289l-1.20704.3789 1.20704 3.45313.1289.98437-.1289 1.47656-4.4375 2.875-.10157.08594.10157.01953v5.1875l-4.44141 2.29297-1.03516 1.3789-3.40234 3.4375-.98828 1 .98828 1.94923 2.71875-1.94922 1.71875-1.67578 4.4414.78906 3.5586-3.55078-3.5586-3.67188v-5.1875l4.4375 1.40235v13.39844l-2.97656 2.93359 2.97657 1.5039 2.23828-1.5039-2.23828-2.9336V441.8047l1.82812-1.42188 2.60938-.35547 4.4375-2.35156 1.73046-1.73047-1.73046-1.0039-4.4375-2.6875-2.89844-.7461-1.53906-.3789V311.67187h53.2578V444.125l-.87108.69531-3.56641 4.1289-1.08594.3125-.22265 4.4375 1.30859 1.40626 4.4375 1.67969 1.73047 1.35156 1.8086 4.4375.90233.89844 4.4375-.70313 3.4375 4.2461-2.54687 4.4375 3.54688 3.8125 2.66406-3.8125-1.05078-4.4375 1.98046-4.44141-.26953-4.4375-2.29296-4.4375-1.03125-.97656-2.3047-3.46094-2.1328-1.39063-4.4375.29297-2.875-3.34375-1.56641-.69531V311.67187h22.1914v163.80079l-.79296.41796.79296 1.26172 1.20704-1.26171-1.20704-.41797V311.67187h71.01172v168.65625h-78.8203l-1.06642-2.30859-4.4375-.70703-1.59375 3.01563H144.00392"/></g><path fill="#50fcfc" fill-rule="evenodd" d="M146.26563 440.38281l-2.26172 3.85156v-7.04296l2.26172 3.1914m13.90625 22.1914l-2.71485-4.4375.30469-4.4375 3.51172-4.4375-.72266-4.4414 1.20313-2.33594.59375-2.10156 2.41015-4.4375 1.4336-1.59765 4.4375-2.62891.98828-.21094 3.44922-3.5625.4453-.875 3.9961-1.91406 4.4375-2.29297v3.04688l-1.82812 1.16015-2.25781 4.4375-.35157.32031-4.4414 2.52344-4.4375.96875-.79297.625-3.64453 3.04688-1.02735 1.39062-1.15625 4.4375-1.30078 4.4414-.95312 1.3125-2.75 3.125-.76953 4.4375 3.51953 3.69142 4.4375.27734 4.4375-1.46485 2.61328-2.5039 1.82422-1.27344 4.4414-.70703 4.4375.2461 4.4375 1.44921.61328.28516 3.82422 2.16797 4.4414-1.1211 2.44532-1.04687 1.99219-.42578 4.4375-.04297 4.4375-1.76953 2.11328-2.19922 2.32813-1.125 4.4375-2.58594.90234-.72656-.90234-1.07813-1.21094-3.36328-3.22656-3.7539-.3047-.6836-4.13671-4.2539-.35547-.1836-4.08203-3.96484-1.21875-.47266-3.21875-2.46875-4.4375-.08594-4.4414-.96484-3.08595-.91797-1.35156-.76562-4.4375-.39453v-3.04688l.7539-.23437 3.6836-1.59766 4.4375-.04297 2.01172 1.64063 2.42969 1.5664 4.4375 1.04688 4.26562 1.82812.17188.09766 4.4375 3.94531.30078.39453 3.88672 4.4375.2539.30469 4.4375 3.44531 4.4375-1.14844 4.4375-.5078.4922-2.09376-.4922-.41797-3.74609-4.01953-.6914-.82422-4.4375-.84375-2.76954-2.76953-1.66797-3.375-1.125-1.0664-3.3164-2.6836-4.17188-1.7539-.26562-.07422-3.55078-4.36328 3.55078-3.23438v2.16797l-1.17188 1.0664 1.17188 1.4375 1.28516-1.4375-1.28516-1.0664v-2.16797l3.90234 3.23438.53516 1.51171 4.4414 2.6797.30079.24609 4.13672 1.1875v3l-.42188.25.21875 4.4414.20313.19922 4.4375 1.78516 2.05078 2.45312 2.38672 2.5586 2.19921 1.8789 1.0586 4.4375 1.17969.95703 4.4414.90235 3.8164 2.57812.6211.33985.25781-.33985 4.1797-3.48437.72265-.95313 2.98047-4.4375-3.70313-3.57031-4.4375 1.71875-4.4375-.08984-2.72656-2.4961-1.71484-1.28515-4.4375-1.6836-1.84766-1.46875-2.58984-2.17578-4.16407-2.26562-.27344-.25v-3l3.5547 3.25.8828.48046 4.4375 3.08204 1.10938.8789 3.32813.89063 4.4414 2.8164 1.02344.73047 3.41406.6289 4.4375-.33593 4.29688 4.14453-1.10938 4.4375-3.1875 4.19531-.28906.2422-.96875 4.4414-3.17969 1.36719-2.78125-1.3672-1.65625-.71874-4.4414-.98438-.86329 1.70313-3.57422 1.44531-4.4375-.46875-4.4375 2.9375-1.76171.52344-2.67578 2.4375-1.78125 2-2.66016 2.63672-4.4375.03125-4.4375.02344-4.4375 1.28515-4.4414.0625-4.4375.03125-4.4375-2.99219-1.21876-1.07812-3.21875-.32031-4.4414.3164v.0039l-4.4375 4.25392-1.28516.18359-3.15234 1.2539-4.4375-.73828-1.58203-.51562"/><path fill="#00e8fc" fill-rule="evenodd" d="M161.7539 461.82813l-3.51952-3.69141.76953-4.4375 2.75-3.125.95312-1.3125 1.30078-4.4414 1.15625-4.4375 1.02735-1.39063 3.64453-3.04688.79297-.625 4.4375-.96875 4.4414-2.52344.35156-.3203 2.25782-4.4375 1.82812-1.16016v6.21875l-4.08594 3.8164-.35156.39063-4.13672 4.04687-.30468.19922-4.4375.30078-3.29688 3.9375-1.14062 1.54297-1.77735 2.89844-2.66015 3.66015-.6836.77735-1.54297 4.4375 2.22657 2.33203 4.4375.58203 4.22656-2.91406.21094-.21094 4.4375-3.17969 3.625-1.04687.8164-.36719 4.4375-.15625.79688.52344 3.64062 1.5664 4.4375 1.6797 4.4414-1.64063 4.4375-.03906 4.4375-.76172 1.33204-.8047 3.10547-1.3203 4.4414-2.29688 1.22266-.82031-.8125-4.4414-.41016-.47657-1.7578-3.96094-2.6836-2.75781-3.23047-1.67969-1.20703-1.17187-4.4375-1.91406-4.4375-.16016-4.4414-.53516-4.4375-.03125-4.4375-.0039v-6.21875l4.4375.39453 1.35155.76562 3.08594.91797 4.4414.96485 4.4375.08593 3.21876 2.46875 1.21875.47266 4.08203 3.96484.35547.1836 4.13672 4.2539.30469.6836 3.22656 3.7539 1.21094 3.36328.90234 1.07813-.90234.72656-4.4375 2.58594-2.32813 1.125-2.11328 2.19922-4.4375 1.76953-4.4375.04297-1.99219.42578-2.44531 1.04687-4.4414 1.1211-3.82423-2.16797-.61328-.28516-4.4375-1.44922-4.4375-.24609-4.4414.70703-1.82422 1.27344-2.61328 2.5039-4.4375 1.46485-4.4375-.27735"/><path fill="#00d4fc" fill-rule="evenodd" d="M161.7539 460.46875l-2.22656-2.33203 1.54297-4.4375.6836-.77735 2.66015-3.66015 1.77735-2.89844 1.14062-1.54297 3.29688-3.9375 4.4375-.30078.30468-.19922 4.13672-4.04687.35156-.39063 4.08594-3.8164 4.4375.0039v1.64063l-4.4375 1.45703-.76172.71484-3.67578 4.08594-.36328.35156-4.07812 2.6875-4.4375.26953-1.2422 1.48047-3.1953 4.32031-.07422.1211-3.0039 4.4375-1.35938 2.14062-.9297 2.29688.9297.97656 4.4375.88281 2.6953-1.85937 1.7422-1.73828 3.45312-2.69922.98438-1.3086 4.4414-2.3828 4.27735-.7461.16015-.03906.07813.03906 4.35937 2.40234 4.4375 1.08203 4.4414-.7578 4.4375.67577 4.4375-1.04687 4.4375-1.47656 1.64063-.87891 1.85157-4.4414-2.26172-4.4375-1.23047-1.26173-4.4375-2.43359-3.08594-.74219-1.35156-.625-4.4375-.55469-4.4414-.51562-4.4375-.47656v-1.64063l4.4375.03125 4.4414.53516 4.4375.16015 4.4375 1.91407 1.20703 1.17187 3.23047 1.67969 2.6836 2.75781 1.7578 3.96094.41016.47656.8125 4.4414-1.22266.82032-4.4414 2.29688-3.10547 1.3203-1.33203.8047-4.4375.76171-4.4375.03907-4.4414 1.64062-4.4375-1.67969-3.64063-1.5664-.79688-.52344-4.4375.15625-.8164.36719-3.625 1.04687-4.4375 3.1797-.21094.21093-4.22656 2.91406-4.4375-.58203"/><path fill="#00c4fc" fill-rule="evenodd" d="M161.7539 459.11328l-.92968-.97656.92969-2.29688 1.35937-2.14062 3.0039-4.4375.07423-.1211 3.1953-4.3203 1.2422-1.48048v2.57422l-2.48047 3.34766-1.95703 2.88672-1.04688 1.55078-2.1914 4.4375 3.23828.80469 1.16406-.8047 3.27344-3.26171 1.5039-1.17578 2.9336-3.88672.96093-.55078-.96093-1.86719-4.4375-1.48047v-2.57422l4.4375-.26953 4.07812-2.6875.36328-.35156 3.67578-4.08594.76172-.71484 4.4375-1.45703v1.64062l-1.3125.53125-3.125 2.94922-1.33594 1.48828.35547 4.4375.98047.11328 4.4375 2.39063 4.4375 1.1836 4.4414.45312 1.69142.30078 2.74609.53125 2.41016-.53125 2.02734-.1836 4.4375-.79296 2.38672-3.46485-2.38672-4.14062-.33203-.29688-4.10547-2.41797-4.4375-.8203-4.4375-.19142-4.4414-.54296-1.62891-.46485-2.8086-.53125v-1.64062l4.4375.47656 4.4414.51563 4.4375.55468 1.35157.625 3.08594.74219 4.4375 2.4336 1.23047 1.26171 2.26172 4.4375-1.85157 4.4414-1.64062.87892-4.4375 1.47656-4.4375 1.04687-4.4375-.67578-4.4414.75781-4.4375-1.08203-4.35938-2.40234-.07813-.03906-.16015.03906-4.27735.7461-4.4414 2.3828-.98438 1.3086-3.45312 2.69922-1.7422 1.73828-2.6953 1.85937-4.4375-.8828"/><path fill="#00b8fc" fill-rule="evenodd" d="M166.1914 458.9414l-3.23827-.80468 2.1914-4.4375 1.04688-1.55078 1.95703-2.88672 2.48047-3.34766v2.75781l-.4336.58985.4336 2.13672.94922-2.13672-.94922-.58985v-2.7578l4.4375 1.48046.96093 1.86719-.96093.55078-2.9336 3.88672-1.5039 1.17578-3.27344 3.26172-1.16406.80469"/><path fill="#00a8fc" fill-rule="evenodd" d="M170.6289 451.39844l-.43359-2.13672.4336-.58985.94922.58985-.94922 2.13672"/><path fill="#00b8fc" fill-rule="evenodd" d="M182.96484 444.82031l-.35547-4.4375 1.33594-1.48828 3.125-2.94922 1.3125-.53125 2.8086.53125 1.6289.46485 4.4414.54296 4.4375.19141v1.61328l-4.4375.53516-4.4414-.42578-4.4375.55078-1.04297.96484 1.04297 1.66797 1.22266 2.76953 3.21484 1.66016 4.4414-.14063 4.4375 1.6211 4.4375-.05078 4.4375-1.23047 1.28126-1.85938-1.28125-2.21875-2.5-2.21875-1.9375-1.14062-4.4375-.48438v-1.61328l4.4375.82031 4.10547 2.41797.33203.29688 2.38672 4.14062-2.38672 3.46485-4.4375.79296-2.02734.1836-2.41016.53125-2.7461-.53125-1.6914-.30078-4.4414-.45313-4.4375-1.1836-4.4375-2.39062-.98048-.11328"/><path fill="#00a8fc" fill-rule="evenodd" d="M188.38281 442.05078l-1.04297-1.66797 1.04297-.96484 4.4375-.55078 4.4414.42578 4.4375-.53516v1.60938l-.07421.01562-3.02734 4.4375 3.10156 1.55078 4.4375.3672 4.4375-1.66407.17578-.2539-.17578-.29688-4.4375-3.8711-4.08594-.26953-.35156-.01562v-1.60938l4.4375.48438 1.9375 1.14062 2.5 2.21875 1.28125 2.21875-1.28125 1.85938-4.4375 1.23047-4.4375.05078-4.4375-1.6211-4.4414.14063-3.21485-1.66016-1.22266-2.76953"/><path fill="#009800" fill-rule="evenodd" d="M201.69922 446.3711l-3.10156-1.55079 3.02734-4.4375.07422-.01562.35156.01562 4.08594.26953v2.54297l-4.2539 1.625 4.2539.75 1.91406-.75-1.91406-1.625v-2.54297l4.4375 3.8711.17578.29687-.17578.2539-4.4375 1.66407-4.4375-.36719"/><path fill="#00ac00" fill-rule="evenodd" d="M206.13672 445.57031l-4.2539-.75 4.2539-1.625 1.91406 1.625-1.91406.75"/><path fill="#00e8fc" fill-rule="evenodd" d="M206.13672 415.1914l-1.17188-1.4375 1.17188-1.0664 1.28516 1.0664-1.28516 1.4375M219.25 427.07032l-.21875-4.4414.42188-.25.27343.25 4.16406 2.26562 2.58985 2.17578 1.84766 1.46875v2.82031l-.1172.14844.1172.125.32421-.125-.32422-.14844v-2.8203l4.4375 1.68359 1.71485 1.28515 2.72656 2.4961 4.4375.08984 4.4375-1.71875v.95313L242.25 435.9453l-.60547 1.1211-2.70312 3.3164 2.70312 2.53906 2.70313-2.53906 1.73437-1.02344 2.71484-3.41406-2.71484-2.61719v-.95312l3.70313 3.57031-2.98047 4.4375-.72266.95313-4.17969 3.48437-.2578.33985-.6211-.33985-3.8164-2.57812-4.44142-.90235-1.17968-.95703-1.0586-4.4375-2.19922-1.8789-2.38671-2.5586-2.05078-2.45312-4.4375-1.78516-.20313-.19922"/><path fill="#00d4fc" fill-rule="evenodd" d="M228.32813 431.63281l-.1172-.125.1172-.14844.32421.14844-.32422.125m13.31641 11.28906l-2.70312-2.53906 2.70312-3.3164.60547-1.1211 3.83203-2.61719v.95313l-2.4375 1.66406-2 3.70703-.59766.73047.59766.5586.59375-.5586 3.84375-2.26562 1.72656-2.17188-1.72656-1.66406v-.95313l2.71484 2.6172-2.71484 3.41406-1.73437 1.02343-2.70313 2.53906"/><path fill="#00c4fc" fill-rule="evenodd" d="M241.64453 440.9414l-.59766-.55859.59766-.73047 2-3.70703 2.4375-1.66406v.95313l-1.04297.71093 1.04297.92578.73828-.92578-.73828-.71094v-.95312l1.72656 1.66406-1.72656 2.17188-3.84375 2.26562-.59375.5586"/><path fill="#00b8fc" fill-rule="evenodd" d="M246.08203 436.8711l-1.04297-.92579 1.04297-.71094.73828.71094-.73828.92578"/><path fill="#50fcfc" fill-rule="evenodd" d="M254.95703 439.45703l-3.9414-3.51172 1.82812-4.4375 2.11328-1.73047v3.48829l-1.8789 2.67968 1.8789 1.67578 2.42578-1.67578-2.42578-2.67969v-3.48828l4.4414-.6328 3.1875 2.36327-1.96093 4.4375-1.22656 1.23047-4.4414 2.28125"/><path fill="#00e8fc" fill-rule="evenodd" d="M254.95703 437.6211l-1.8789-1.67579 1.8789-2.67969 2.42578 2.6797-2.42578 1.67577"/><path fill="#50fcfc" fill-rule="evenodd" d="M272.71094 434.60156l-3.67578-3.09375 3.67578-3.65625v2.625l-1.03516 1.03125 1.03516.8711 1.19531-.8711-1.19531-1.03125v-2.625l4.23437 3.65625-4.23437 3.09375"/><path fill="#00e8fc" fill-rule="evenodd" d="M272.71094 432.3789l-1.03516-.87109 1.03516-1.03125 1.19531 1.03125-1.19531.8711"/><path fill="#50fcfc" fill-rule="evenodd" d="M277.15234 441.88281l-2.97656-1.5 2.97656-1.6836.60547-2.7539 3.83203-3.98047v1.14063l-2.73046 2.83984 2.73046 2.70703 4.4375-.59765 3.02344-2.10938-3.02344-1.86719-4.4375-.97265v-1.14063l4.4375.29297 4.4375.91016 2.01172 2.77734-2.01172 1.99219-4.4375 2.17188-4.4375-.3672-2.8164.64063-1.6211 1.5"/><path fill="#00e8fc" fill-rule="evenodd" d="M281.58984 438.65234l-2.73046-2.70703 2.73046-2.83984v1.90625l-.89843.9336.89843.89062 2.48438-.89063-2.48438-.9336v-1.90624l4.4375.97265 3.02344 1.8672-3.02344 2.10937-4.4375.59765"/><path fill="#00d4fc" fill-rule="evenodd" d="M281.58984 436.83594l-.89843-.89063.89843-.9336 2.48438.9336-2.48438.89063"/><path fill="#50fcfc" fill-rule="evenodd" d="M308.21875 455.64844l-.98828-1.94922.98828-1 3.40234-3.4375 1.03516-1.3789 4.4414-2.29298 3.5586 3.67188-3.5586 3.55078-4.4414-.78906-1.71875 1.67578-2.71875 1.94922m8.8789-15.2461l-.10156-.01953.10157-.08594 4.4375-2.875.1289-1.47656-.1289-.98437-1.20704-3.45313 1.20704-.3789 1.53906.3789 2.89844.7461 4.4375 2.6875 1.73046 1.0039-1.73046 1.73047-4.4375 2.35156-2.60938.35547-1.82812 1.42188-4.4375-1.40235m4.4375 19.23829l-2.97657-1.50391 2.97657-2.9336 2.23828 2.9336-2.23828 1.5039m48.8203-4.53515l-1.30858-1.40625.22265-4.4375 1.08594-.3125 3.5664-4.1289.8711-.69532 1.5664.69531 2.875 3.34375 4.4375-.29297 2.13282 1.39063 2.30469 3.46094v5.08984l-.35938.32422-1.60938 4.4375 1.96875 2.10937 1.57422-2.10937-1.35156-4.4375-.22265-.32422v-5.08984l1.03125.97656 2.29296 4.4375.26954 4.4375-1.98047 4.4414 1.05078 4.4375-2.66406 3.8125-3.54688-3.8125 2.54688-4.4375-3.4375-4.24609-4.4375.70313-.90235-.89844-1.8086-4.4375-1.73046-1.35156-4.4375-1.6797"/><g clip-path="url(#d)"><path fill="#50fcfc" fill-rule="evenodd" d="M382.07813 480.32813l1.59375-3.01563 4.4375.70703 1.0664 2.3086h-7.09765"/></g><path fill="#00e8fc" fill-rule="evenodd" d="M388.10938 464.6836l-1.96875-2.10938 1.60937-4.4375.35938-.32422.22265.32422 1.35156 4.4375-1.57421 2.10937"/><path fill="#50fcfc" fill-rule="evenodd" d="M396.98438 477.15234l-.79297-1.26171.79296-.41797 1.20704.41796-1.20704 1.26172"/><g clip-path="url(#e)"><path fill="#fff" fill-opacity="0" fill-rule="evenodd" d="M467.9961 480.32813H468V311.67188h-.0039H468v168.65625h-.0039"/></g><path fill="#fff" fill-opacity="0" fill-rule="evenodd" d="M210.5625 427.23828l3.40234 4.7461 8.09375-5.8047-3.40625-4.74609-8.08984 5.8047"/><path fill-rule="evenodd" d="M219.20313 425.34375l.29687.41406-5.11328 3.66797-.45703-.63672 3.64453-2.61719-.8086-1.1289.45313-.32422.3789.41797.19141.17187.20703.13672.23047.08203.27344.01954.32031-.0586.38281-.14453"/><path fill="#fff" fill-opacity="0" fill-rule="evenodd" d="M217.1914 459.80078l5.08985-2.86719-4.89063-8.67578-5.08984 2.86719 4.89063 8.67578"/><path fill-rule="evenodd" d="M216.25 451.0039l.4414-.25 3.09376 5.48438-.6875.38672-2.20313-3.91406-1.21094.6836-.27343-.48438.45703-.33204.19531-.16796.15234-.19141.10938-.22266.04687-.26953-.01953-.32812-.10156-.39453"/><g clip-path="url(#f)"><path fill="none" stroke="#000" stroke-linecap="round" stroke-linejoin="round" stroke-miterlimit="10" stroke-width=".5" d="M147.3789 481.29297l-6.7578-1.92969"/></g><g clip-path="url(#g)"><path fill="none" stroke="#000" stroke-linecap="round" stroke-linejoin="round" stroke-miterlimit="10" stroke-width=".5" d="M160.75781 481.03125l-6.88672-1.40625"/></g><g clip-path="url(#h)"><path fill="none" stroke="#000" stroke-linecap="round" stroke-linejoin="round" stroke-miterlimit="10" stroke-width=".5" d="M160.75781 481.03125l.69531 2.35547"/></g><g clip-path="url(#i)"><path fill="none" stroke="#000" stroke-linecap="round" stroke-linejoin="round" stroke-miterlimit="10" stroke-width=".5" d="M174.00781 481.28906L167.25 479.3672"/></g><g clip-path="url(#j)"><path fill="none" stroke="#000" stroke-linecap="round" stroke-linejoin="round" stroke-miterlimit="10" stroke-width=".5" d="M186.94922 482.15234l-6.00781-3.64843"/></g><g clip-path="url(#k)"><path fill="none" stroke="#000" stroke-linecap="round" stroke-linejoin="round" stroke-miterlimit="10" stroke-width=".5" d="M200.17188 482.29688l-5.82422-3.9336"/></g><g clip-path="url(#l)"><path fill="none" stroke="#000" stroke-linecap="round" stroke-linejoin="round" stroke-miterlimit="10" stroke-width=".5" d="M213.80078 481.72656l-6.44922-2.79297"/></g><g clip-path="url(#m)"><path fill="none" stroke="#000" stroke-linecap="round" stroke-linejoin="round" stroke-miterlimit="10" stroke-width=".5" d="M227.25781 481.33203l-6.73437-2.00781"/></g><g clip-path="url(#n)"><path fill="none" stroke="#000" stroke-linecap="round" stroke-linejoin="round" stroke-miterlimit="10" stroke-width=".5" d="M240.71875 480.26953l-7.02734.1211"/></g><g clip-path="url(#o)"><path fill="none" stroke="#000" stroke-linecap="round" stroke-linejoin="round" stroke-miterlimit="10" stroke-width=".5" d="M239.69531 480.28516l.59375 1.07422"/></g><g clip-path="url(#p)"><path fill="none" stroke="#000" stroke-linecap="round" stroke-linejoin="round" stroke-miterlimit="10" stroke-width=".5" d="M253.85547 479.21875l-6.66797 2.21875"/></g><g clip-path="url(#q)"><path fill="none" stroke="#000" stroke-linecap="round" stroke-linejoin="round" stroke-miterlimit="10" stroke-width=".5" d="M252.88281 479.54297l.89063.84765"/></g><g clip-path="url(#r)"><path fill="none" stroke="#000" stroke-linecap="round" stroke-linejoin="round" stroke-miterlimit="10" stroke-width=".5" d="M267.20313 479.33203l-6.73829 1.99219"/></g><g clip-path="url(#s)"><path fill="none" stroke="#000" stroke-linecap="round" stroke-linejoin="round" stroke-miterlimit="10" stroke-width=".5" d="M266.22266 479.6211l.86328.875"/></g><g clip-path="url(#t)"><path fill="none" stroke="#000" stroke-linecap="round" stroke-linejoin="round" stroke-miterlimit="10" stroke-width=".5" d="M280.44531 479.10547l-6.58984 2.44531"/></g><g clip-path="url(#u)"><path fill="none" stroke="#000" stroke-linecap="round" stroke-linejoin="round" stroke-miterlimit="10" stroke-width=".5" d="M279.48828 479.46094l.91406.8164"/></g><g clip-path="url(#v)"><path fill="none" stroke="#000" stroke-linecap="round" stroke-linejoin="round" stroke-miterlimit="10" stroke-width=".5" d="M293.78906 479.1836l-6.64453 2.28906"/></g><g clip-path="url(#w)"><path fill="none" stroke="#000" stroke-linecap="round" stroke-linejoin="round" stroke-miterlimit="10" stroke-width=".5" d="M292.82031 479.51953l.89844.83594"/></g><g clip-path="url(#x)"><path fill="none" stroke="#000" stroke-linecap="round" stroke-linejoin="round" stroke-miterlimit="10" stroke-width=".5" d="M306.80078 478.53125l-6.03906 3.59375"/></g><path fill="none" stroke="#000" stroke-linecap="round" stroke-linejoin="round" stroke-miterlimit="10" stroke-width=".5" d="M305.92188 479.05469l1.04687.63672"/><g clip-path="url(#y)"><path fill="none" stroke="#000" stroke-linecap="round" stroke-linejoin="round" stroke-miterlimit="10" stroke-width=".5" d="M318.14453 476.97656l-2.09765 6.70703"/></g><g clip-path="url(#z)"><path fill="none" stroke="#000" stroke-linecap="round" stroke-linejoin="round" stroke-miterlimit="10" stroke-width=".5" d="M328.01953 477.7539l4.78516 5.14844"/></g><g clip-path="url(#A)"><path fill="none" stroke="#000" stroke-linecap="round" stroke-linejoin="round" stroke-miterlimit="10" stroke-width=".5" d="M340.5039 478.92578l6.44532 2.80469"/></g><path fill="none" stroke="#000" stroke-linecap="round" stroke-linejoin="round" stroke-miterlimit="10" stroke-width=".5" d="M341.4414 479.33594l-.09374-1.22656"/><g clip-path="url(#B)"><path fill="none" stroke="#000" stroke-linecap="round" stroke-linejoin="round" stroke-miterlimit="10" stroke-width=".5" d="M353.88281 478.78906l6.3164 3.07813"/></g><path fill="none" stroke="#000" stroke-linecap="round" stroke-linejoin="round" stroke-miterlimit="10" stroke-width=".5" d="M354.80078 479.23828l-.04297-1.22656"/><g clip-path="url(#C)"><path fill="none" stroke="#000" stroke-linecap="round" stroke-linejoin="round" stroke-miterlimit="10" stroke-width=".5" d="M366.95703 479.4414l6.79688 1.77735"/></g><path fill="none" stroke="#000" stroke-linecap="round" stroke-linejoin="round" stroke-miterlimit="10" stroke-width=".5" d="M367.94531 479.69922l-.28125-1.19531"/><g clip-path="url(#D)"><path fill="none" stroke="#000" stroke-linecap="round" stroke-linejoin="round" stroke-miterlimit="10" stroke-width=".5" d="M380.15625 480.29688l7.02734.0625"/></g><g clip-path="url(#E)"><path fill="none" stroke="#000" stroke-linecap="round" stroke-linejoin="round" stroke-miterlimit="10" stroke-width=".5" d="M381.17969 480.3086l-.5664-1.08985"/></g><g clip-path="url(#F)"><path fill="none" stroke="#000" stroke-linecap="round" stroke-linejoin="round" stroke-miterlimit="10" stroke-width=".5" d="M393.47266 480.26953l7.02734.11719"/></g><g clip-path="url(#G)"><path fill="none" stroke="#000" stroke-linecap="round" stroke-linejoin="round" stroke-miterlimit="10" stroke-width=".5" d="M393.47266 480.26953l-1.11329-2.1836"/></g><g clip-path="url(#H)"><path fill="none" stroke="#000" stroke-linecap="round" stroke-linejoin="round" stroke-miterlimit="10" stroke-width=".5" d="M406.88672 481.15625l6.82812-1.65625"/></g><g clip-path="url(#I)"><path fill="none" stroke="#000" stroke-linecap="round" stroke-linejoin="round" stroke-miterlimit="10" stroke-width=".5" d="M406.88672 481.15625l-1.6289-1.83203"/></g><g clip-path="url(#J)"><path fill="none" stroke="#000" stroke-linecap="round" stroke-linejoin="round" stroke-miterlimit="10" stroke-width=".5" d="M420.1289 480.76563l6.97266-.875"/></g><g clip-path="url(#K)"><path fill="none" stroke="#000" stroke-linecap="round" stroke-linejoin="round" stroke-miterlimit="10" stroke-width=".5" d="M420.1289 480.76563l-1.41015-2.00391"/></g><g clip-path="url(#L)"><path fill="none" stroke="#000" stroke-linecap="round" stroke-linejoin="round" stroke-miterlimit="10" stroke-width=".5" d="M433.48438 481.0039l6.89453-1.34765"/></g><g clip-path="url(#M)"><path fill="none" stroke="#000" stroke-linecap="round" stroke-linejoin="round" stroke-miterlimit="10" stroke-width=".5" d="M434.48828 480.80469l-.77344-.94922"/></g><g clip-path="url(#N)"><path fill="none" stroke="#000" stroke-linecap="round" stroke-linejoin="round" stroke-miterlimit="10" stroke-width=".5" d="M447.0664 478.83984l6.36329 2.98047"/></g><path fill="none" stroke="#000" stroke-linecap="round" stroke-linejoin="round" stroke-miterlimit="10" stroke-width=".5" d="M447.0664 478.83984l-.125-2.45312"/><g clip-path="url(#O)"><path fill="none" stroke="#000" stroke-linecap="round" stroke-linejoin="round" stroke-miterlimit="10" stroke-width=".5" d="M460.29297 479.03906l6.53906 2.57813"/></g><path fill="none" stroke="#000" stroke-linecap="round" stroke-linejoin="round" stroke-miterlimit="10" stroke-width=".5" d="M460.29297 479.03906l-.27735-2.4375"/><g clip-path="url(#P)"><path fill="none" stroke="#000" stroke-linecap="round" stroke-linejoin="round" stroke-miterlimit="10" stroke-width=".5" d="M147.375 467.98438l-6.75-1.94141"/></g><path fill="none" stroke="#000" stroke-linecap="round" stroke-linejoin="round" stroke-miterlimit="10" stroke-width=".5" d="M147.375 467.98438l.50781 2.40234m12.53516-1.72656l-6.20703-3.29297m6.20703 3.29297v2.45312m12.98437-1.9414l-5.54687-4.3125m5.54687 4.3125l-.41797 2.41406m13.91016-2.66407l-5.89844-3.8164m5.89844 3.8164l-.20703 2.44532m13.5039-2.41407l-5.85937-3.8789m5.85938 3.8789l-.23828 2.44141m13.91015-3.14844l-6.57812-2.46484m6.57812 2.46484l.32031 2.4336m13.08594-2.69922l-6.75781-1.9336m5.77344 1.65235l.2539 1.19922m14.16797-2.15625l-7.0039.54297m5.98437-.46485l.66016 1.03516m13.42187-2.17578l-6.5 2.66797m5.55469-2.28125l.94531.78125m13.25-1.31641l-6.3711 2.96484m5.44532-2.53515l.98047.74218m13.02734-1.59765l-5.90234 3.8164m5.04297-3.26171l1.07422.59765m12.8828-1.44922l-5.46874 4.41016m4.67578-3.76953l1.125.48047m13.51172-.21485l-6.52734 2.59766m5.57812-2.22266l.9375.79297m12.88281-1.96484l-5.63672 4.1914m4.81641-3.58203l1.10938.52344m11.22265-2.40234l-2.03125 6.73047m1.73828-5.75l1.20313-.23829m9.83594-.52734l3.10937 6.30078m-2.65625-5.38281l.71484-.9961M353.56641 466.5l6.94922 1.02734m-5.9375-.8789l-.41407-1.15235m12.71485 1.01172l6.95312 1.01172m-5.9414-.86328l-.41407-1.15625m12.6836 1.57812l7.02343-.1289m-6.0039.11328l-.59375-1.07422m12.89062 1.21094l7.01953-.36719m-7.01953.36719l-1.26172-2.10547M407 465.81641l6.60547 2.39453m-5.64453-2.04688l-.17188-1.21484m13.51172-.57813l4.6289 5.28516m-3.95312-4.51563l.4336-1.14843m11.80468.79687l5.4336 4.44922m-4.64453-3.80469l.24218-1.19922m11.66016 3.8672l6.6836-2.17579m-5.71094 1.85938l-.88282-.85547m14.35157-2.64453l4.42578 5.45703m-3.78125-4.66407l.48047-1.1289"/><g clip-path="url(#Q)"><path fill="none" stroke="#000" stroke-linecap="round" stroke-linejoin="round" stroke-miterlimit="10" stroke-width=".5" d="M147.10938 455.33203l-6.21875-3.26562"/></g><path fill="none" stroke="#000" stroke-linecap="round" stroke-linejoin="round" stroke-miterlimit="10" stroke-width=".5" d="M147.10938 455.33203l.01171 2.45313M160 455.96094l-5.3711-4.52735m4.58985 3.8711l-.25781 1.19922m13.66406.08593l-3.98828-5.78515m3.40625 4.94531l-.5625 1.08984m14.69531-.42578l-4.46094-5.42968m3.8125 4.63671l-.47265 1.13282m14.35937-.28125l-4.3086-5.55078m3.6836 4.74609l-.5039 1.11719m14.42968-.29688l-4.27734-5.57812m3.65234 4.76562l-.5078 1.11719m14.9414-.76953l-5.26563-4.64844m4.5 3.97266l-.28515 1.1914m15.03906-1.65625l-6.61328-2.3711m5.65234 2.02735l.17578 1.21485m13.97656-3.53907l-6.36718 2.96875m6.36719-2.96875l1.96093 1.47657m11.0586-1.9922l-5.77735 4m5.77735-4l2.18359 1.125m11.0625-1.22655l-5.63281 4.20312m5.63281-4.20312l2.21875 1.04687m10.75781-1.4375l-4.95703 4.98047m4.95703-4.98047l2.34766.71485m10.74219-.91797l-4.50782 5.39062m4.50782-5.39062l2.39843.5039m11.32032-.10937L314.4375 456m4.54297-3.9336l1.14453.44532m13.47656-.28516l-6.3789 2.94532m6.3789-2.94532l1.95313 1.48438m10.85547-2.28125l-5.3672 4.53515m5.3672-4.53515l2.27734.91406m9.90625-1.79687l-3.10547 6.30468m3.10547-6.30468l2.45313-.07422m11.73828 5.76562l-4.85547-5.07812m19.25 2.32422l-7.01563.42968m5.99219-.36719l.64063 1.04688m6.6875-1.19922l7.0039.60547m-5.98437-.51563l-.48047-1.1289m13.73828 3.76953l5.08203-4.85156M408.5 455.41797l-1.16406-.38281m19.46875.14062l-6.375-2.95703m18.94531-1.04688l-4.88672 5.0547m4.17578-4.32032l1.17969.33984m10.23047-2.05859l.34766 7.01953m-.34766-7.01953l2.10547-1.2539m13.33984 1.84765l-3.91406 5.83594m3.34375-4.98828l1.21875.125"/><g clip-path="url(#R)"><path fill="none" stroke="#000" stroke-linecap="round" stroke-linejoin="round" stroke-miterlimit="10" stroke-width=".5" d="M146.91016 442.35156l-5.82032-3.9375"/></g><path fill="none" stroke="#000" stroke-linecap="round" stroke-linejoin="round" stroke-miterlimit="10" stroke-width=".5" d="M146.91016 442.35156l-.26172 2.4414m13.19922-1.97655l-5.06641-4.8672m4.33203 4.16016l-.33594 1.1797m14.84766-1.07032l-5.99219-3.67188M187 442.1211l-6.10938-3.47265m14.9922 4.96875l2.7539-6.46485m15.1289 1.75782l-6.3789 2.9453m19.83594-2.58593l-6.66407 2.22656m5.69532-1.90234l.89062.84375m11.50781-3.2539l-2.89453 6.40234m2.47266-5.47266l1.22656-.07812m13.1289-.4961l-4.1289 5.6875m3.52734-4.85937l1.21485.17187m12.99219-.76172l-4.71094 5.21094m4.71094-5.21094l2.3789.59766m10.59766-.8711l-4.03125 5.75782m3.4414-4.91797l1.21876.14844m12.55859-1.07031l-3.78125 5.92187m3.78125-5.92188l2.44531.19532m11.0625-.0625l-4.16406 5.66015m4.16406-5.66015l2.42969.35547m-3.03516.46875l1.21485.17578m13.96875.75781l-6.69141 2.14453m6.6914-2.14453l1.75782 1.71094m11.39453-2.1289l-6.36328 2.97655m6.36328-2.97656l1.96094 1.47266m-2.88672-1.03907l.98047.73829m13.02344-1.59766l-5.89063 3.82812m5.89063-3.82812l2.14843 1.1875m-3.0039-.6289l1.0703.59374m11.48048-2.49218l-2.65235 6.5078m2.65235-6.5078l2.4414-.2461m10.21485.05078l-1.33203 6.89844m1.33203-6.89844l2.34375-.71875m7.32812 2.29688l5.94922 3.74219m-5.08203-3.19532l.08984-1.22265m12.73047 4.90625l5.20703-4.71875m-5.20703 4.71875l-2.3086-.82813m15.07813.03125l6.29688-3.1211m-5.3789 2.66407l-1-.71094m18.71093-3.16406l-4.32812 5.53906m4.32812-5.53906l2.41406.42969m-3.04297.3789l1.20704.21094m12.14453-1.39062l-3.14453 6.28515m3.14453-6.28515l2.45312-.0625m-2.91015.97656l1.22656-.03125m10.78515-1.25l.37891 7.01562m-.3789-7.01562l2.09765-1.26563m12.77344 1.53907l-2.73438 6.47265m2.73438-6.47265l2.4414-.21875m-2.83984 1.16015l1.22266-.10937"/><g clip-path="url(#S)"><path fill="none" stroke="#000" stroke-linecap="round" stroke-linejoin="round" stroke-miterlimit="10" stroke-width=".5" d="M147.47266 427.59375l-6.94532-1.05078"/></g><path fill="none" stroke="#000" stroke-linecap="round" stroke-linejoin="round" stroke-miterlimit="10" stroke-width=".5" d="M146.46484 427.4414l.40625 1.15626m13.22266.62109l-5.5586-4.30078m4.75 3.67578l-.20702 1.20703m13.84765-.07031l-4.58984-5.32422m4.58984 5.32422l-.89062 2.28515m13.76172-1.96093l-3.70313-5.97266m3.16406 5.10156l-.61719 1.0625m15.40235-1.03125l-5.5625-4.29296m4.75 3.66796l-.20313 1.21094m14.96875-3.54297l-6.83984 1.6211M213 426.49609l.8086.92188m13.23046-1.91016l-6.29687 3.1211m5.3789-2.66797l1 .71484m13.59375.51953l-7.01953-.2539m7.01953.2539l1.07422 2.20703m11.03516-4.98828l-4.60547 5.3086m3.9336-4.53516l1.1953.27344m13.7461.29297l-6.51563 2.6289m6.51563-2.6289l1.8789 1.57812m10.80079-2.60156l-5.2461 4.67578m5.2461-4.67578l2.30078.85156m11.14844-.6914l-5.51563 4.35546m5.51563-4.35547l2.24609.98829m10.92578-1.15625l-5.22656 4.6953m5.22656-4.6953l2.30469.83984m10.78125-1.07422l-4.76953 5.16016m4.76953-5.16016l2.3711.6211m11.1953-.36329l-5.27343 4.64453m5.27344-4.64453l2.29687.86328m-3.0625-.1875l1.14844.4297m13.21094-.7461l-5.82813 3.92578m5.82813-3.92578l2.16406 1.15625m-3.01172-.58594l1.08203.57813m13.20703-.94141L354 428.82812m6.08203-3.51562l2.08203 1.29687m10.60938-2.08984l-4.83594 5.09766m4.83594-5.09766l2.36719.65625m10.10937-1.2461l-3.16016 6.27735m3.16016-6.27734l2.45313-.05469m-2.91016.96875l2.45312-.05469m12.36329-.0586l-5.2461 4.67579m5.2461-4.67578l2.30078.85156m-3.0625-.17187l2.30078.85546m-3.0664-.17578l1.15234.4297m13.30468-2.16017l-4.47656 5.41797m4.47656-5.41797l2.40625.4922m-3.0586.29687l2.40626.49219m-3.05469.29687l2.40235.49219m11.60156-2.47656l-3.25 6.23046m3.25-6.23047l2.45312-.01953m-2.92578.92578l2.45313-.01953m-2.92578.92578l1.22656-.0078m11.80469-2.1797l-.79688 6.98047m.79688-6.98047l2.28515-.89843m-2.39844 1.91406l2.28125-.89844m11.22657-.10937l-.95313 6.96484m.95313-6.96484l2.30078-.84766m-2.4375 1.86328l2.30078-.84765m12.08984.09765l-2.83203 6.4336m2.83203-6.4336l2.44532-.17968m-2.85547 1.11718l2.4453-.1836"/><g clip-path="url(#T)"><path fill="none" stroke="#000" stroke-linecap="round" stroke-linejoin="round" stroke-miterlimit="10" stroke-width=".5" d="M147.51172 413.67578l-7.02344.15625"/></g><path fill="none" stroke="#000" stroke-linecap="round" stroke-linejoin="round" stroke-miterlimit="10" stroke-width=".5" d="M146.49219 413.69922l.59765 1.07031m13.54297.14063l-6.63672-2.3125m5.67188 1.97656l.1875 1.21094m13.88672-.40235l-6.22656-3.25781m5.3203 2.78125l.00782 1.23047m14.11328-.57813l-6.02734-3.61328m5.15234 3.08985l-.0625 1.22265m14.71875-1.9961l-6.95312-1.01952m5.9414.8711l.41016 1.15624m13.92578-1.95312l-6.97266.87109m5.95703-.74219l.70704 1.0039m10.71093 2.76954l-1.14843-6.9336m.98047 5.92579l-.97657.7461m16.70313-1.10548l-5.63672-4.19531m5.63672 4.19531l-.3711 2.42578m14.3711-4.8125l-7.0039.57422m7.0039-.57422l1.32422 2.06641m11.99609-1.98438l-7.01563.41016m7.01563-.41015l1.27734 2.09765m11.9922-2.48828l-6.92579 1.19531m6.92578-1.19531l1.5039 1.9375m11.58595-2.70313l-6.47657 2.72657m6.47657-2.72656l1.90234 1.54687m11.54297-1.17969l-6.73828 1.99219m6.73828-1.99219l1.72265 1.75m11.1211-2.74219l-5.79297 3.97657m5.79297-3.97656l2.17578 1.13671m11.15234-1.11718l-5.82031 3.9375m5.82031-3.9375l2.16797 1.15234m10.29297-2.03125l-4.11328 5.69531m4.11328-5.69531l2.4336.33203m11.92187.85547l-6.1914 3.32031m5.28906-2.83984l1.02343.6836m12.77344-1.78126l-5.35156 4.55469m5.35156-4.55469l2.28125.90625m-3.0586-.24219l1.14063.44922m12.91797-1.15234l-5.28516 4.63281m5.28516-4.63281l2.29688.8711m-3.0625-.19532l2.29296.8711m-3.0625-.19922l1.14454.4375m13.53906-1.96485l-4.94922 4.99219m4.94922-4.99219l2.34765.70703m-3.0703.01954l2.35155.70703m-3.0703.01953l1.17577.35156m13.21094-2.1211l-4.21094 5.625m4.21094-5.625l2.42578.375m-3.03906.44141l2.42578.3789m-3.03516.44142l1.21094.1875m12.4375-2.3086l-2.4336 6.59375m2.4336-6.59375l2.4336-.32812m-2.78516 1.28906l2.42969-.33203m10.6914-.78125l-1.33984 6.89844m1.33984-6.89844l2.34766-.71875m-2.54297 1.72265l2.34766-.71875m-2.54297 1.72266l1.17578-.35937m13.80078-1.12891l-3.88281 5.85547m3.88281-5.85547l2.44531.23828m-3.00781.61328l1.21875.1211m12.58594-1.01954l-3.73828 5.94922"/><g clip-path="url(#U)"><path fill="none" stroke="#000" stroke-linecap="round" stroke-linejoin="round" stroke-miterlimit="10" stroke-width=".5" d="M465.42969 410.77734l2.44922.1797"/></g><path fill="none" stroke="#000" stroke-linecap="round" stroke-linejoin="round" stroke-miterlimit="10" stroke-width=".5" d="M464.88672 411.64453l2.44922.17578"/><g clip-path="url(#V)"><path fill="none" stroke="#000" stroke-linecap="round" stroke-linejoin="round" stroke-miterlimit="10" stroke-width=".5" d="M147.14453 398.86719l-6.28906 3.14062"/></g><path fill="none" stroke="#000" stroke-linecap="round" stroke-linejoin="round" stroke-miterlimit="10" stroke-width=".5" d="M147.14453 398.86719l1.9961 1.42187m11.66015-.30078l-6.96875.89844m5.95313-.76563l.71093 1m13.38282.65235l-6.5-2.67188m19.90625.2461l-6.6797 2.17968m20.09767-.3828l-6.88672-1.41017m5.8828 1.20313l.34767 1.17578m7.21875-.5l6.62109-2.35156m-5.66016 2.00781l-.90234-.82812m19.80078-1.375l-6.46875 2.74218m6.46875-2.74218l1.90625 1.54687m11.6875-.07812l-7.02734-.19532m7.02734.19532l1.08984 2.19921m12.21485-2.55078l-7.00781.51172m7.0078-.51172l1.3086 2.07422m-2.32812-2l.65625 1.03516m13.66797-1.22266l-6.98829.73438m6.98828-.73438l1.375 2.03516m11.91016-2.25781l-6.92578 1.17968m6.92578-1.17968l1.5 1.9414m11.17188-3.44922l-5.63672 4.19532m5.63672-4.19532l2.21484 1.05079m11.23438-.85547l-5.90625 3.80468m5.90625-3.80468l2.14062 1.19921m-3-.64453l1.07031.59766m13.4414-.48438l-6.57812 2.47266m6.57813-2.47265l1.83984 1.62109m-2.79687-1.26172l.91797.8125m13.12109-1.66797l-6.11328 3.46094m6.11328-3.46094l2.07031 1.3164m10.14453-2.5l-3.91796 5.83204m3.91796-5.83203l2.44141.25m12.09375 1.16406l-6.35547 3m6.35547-3l1.96484 1.46875m11.15625-1.82031l-5.96875 3.70703m5.96875-3.70703l2.1211 1.23047m-2.98828-.69141l2.12109 1.23047m11.22656-2.69531l-4.29687 5.55859m4.29687-5.5586l2.41797.41407m-3.04297.39453l2.41797.41406m-3.04297.39453l1.20703.20704m13.73438-1.48829l-5.05078 4.88672m5.05078-4.88672l2.33203.75391m-3.0664-.04297l1.16406.375m13.5039-.21484l-6.28515 3.14062m6.28515-3.14062l1.9961 1.42187m-2.91016-.96484l.9961.71094m12.75-1.89063l-5.32032 4.58985m5.32031-4.58985l2.28516.88672m-3.0586-.21875l2.28516.88672m10.85938-2.32422l-3.4336 6.1289m3.4336-6.1289l2.45312.05078m-2.95312.83985l2.45312.05468m-2.95312.83594l1.22656.02734m14.1875-.84765l-5.63281 4.20312m5.63281-4.20312l2.21875 1.05078m-3.03906-.4375l2.21875 1.04687m11.83594-1.76562l-5.46875 4.41406"/><g clip-path="url(#W)"><path fill="none" stroke="#000" stroke-linecap="round" stroke-linejoin="round" stroke-miterlimit="10" stroke-width=".5" d="M466.29688 398.23047l2.2539.96094"/></g><g clip-path="url(#X)"><path fill="none" stroke="#000" stroke-linecap="round" stroke-linejoin="round" stroke-miterlimit="10" stroke-width=".5" d="M465.5 398.875l2.25781.96094"/></g><g clip-path="url(#Y)"><path fill="none" stroke="#000" stroke-linecap="round" stroke-linejoin="round" stroke-miterlimit="10" stroke-width=".5" d="M147.15234 385.57422l-6.30468 3.10156"/></g><path fill="none" stroke="#000" stroke-linecap="round" stroke-linejoin="round" stroke-miterlimit="10" stroke-width=".5" d="M147.15234 385.57422l1.9922 1.4336m-2.91017-.98438l.9961.71875m13.14844-1.33594l-6.12891 3.4336m6.1289-3.4336l2.06641 1.32813m11.2461-1.33594l-6.1211 3.44922m6.1211-3.44922l2.0664 1.32031m11.46875-.85156l-6.5625 2.51172m5.60938-2.14844l.92187.8086m7.85938 2.8203l4.41015-5.47265m-3.76562 4.67578l-1.20703-.23047m17.99219 1.24219l-3.81641-5.90235m3.8164 5.90235l-1.1953 2.14453m15.90234-3.89063l-6.60157-2.40625m6.60157 2.40625l.33984 2.4297M240.5 388.34765l-6.58594-2.44922m6.58594 2.44922l.32422 2.43359m13.20312-3.42578l-7.01172-.46485m7.01172.46485l1.00391 2.23828m-2.02344-2.30469l.5 1.11719m13.83594-1.49219l-7.01563.42188m7.01563-.42188l1.27734 2.08985m-2.30078-2.03125l.64063 1.04687m13.67968-1.3164l-6.97656.83984m6.97656-.83985l1.40235 2.01563m-2.41797-1.89453l1.40234 2.01562m12.7422-2.91406l-6.60548 2.39453m6.60547-2.39453l1.82031 1.64453m-2.78125-1.29687l1.82032 1.64453m12.3164-2.32031l-6.32812 3.05468m6.32812-3.05468l1.98047 1.44921m-2.90234-1.0078l.99218.72656m13.26172-1.13672l-6.36328 2.98828m6.36328-2.98828l1.96094 1.47265m-2.88672-1.03906l1.96094 1.47266m12.26172-1.94141l-6.32422 3.0625m6.32422-3.0625l1.98047 1.44531m-2.90235-1l.9922.72266m13.32421-.99219l-6.48438 2.70703m6.48438-2.70703l1.89844 1.5586m-2.84375-1.16407l.94922.77735m13.42578-.85157l-6.71485 2.06641m6.71485-2.0664l1.73828 1.73046m-2.71485-1.42969l.8711.8672m13.21094-1.69532l-6.29688 3.1211m6.29688-3.1211l1.99609 1.42969m-2.91016-.97656l1.9922 1.42968m12.09374-2.14062l-6.01172 3.63672m6.01172-3.63672l2.10938 1.25781m-2.98438-.73047l2.10938 1.25781m11.97265-1.95312l-5.79687 3.97265m5.79687-3.97265l2.17578 1.13672m-3.01562-.5586l2.17187 1.13672m11.82032-1.9336l-5.46875 4.41407m5.46875-4.41406l2.2578.96094m-3.05468-.32032l2.25781.96094m12.01563-1.38281l-5.79297 3.97656m5.79297-3.97656l2.17578 1.13281m-3.01563-.55469l2.17579 1.13282m11.76562-1.9961l-5.36328 4.54297m5.36328-4.54297l2.27734.91016m-3.05859-.25l2.28125.91015m12.1289-1.1328l-5.99218 3.66796m5.99219-3.66797l2.11328 1.2461m-2.98438-.71094l1.0586.6211m13.0586-1.26563l-5.85548 3.88672"/><g clip-path="url(#Z)"><path fill="none" stroke="#000" stroke-linecap="round" stroke-linejoin="round" stroke-miterlimit="10" stroke-width=".5" d="M466.48828 385.17969l2.16016 1.17187"/></g><g clip-path="url(#aa)"><path fill="none" stroke="#000" stroke-linecap="round" stroke-linejoin="round" stroke-miterlimit="10" stroke-width=".5" d="M465.63672 385.7461l2.16015 1.16796"/></g><g clip-path="url(#ab)"><path fill="none" stroke="#000" stroke-linecap="round" stroke-linejoin="round" stroke-miterlimit="10" stroke-width=".5" d="M147.02344 372.01953l-6.04688 3.57813"/></g><path fill="none" stroke="#000" stroke-linecap="round" stroke-linejoin="round" stroke-miterlimit="10" stroke-width=".5" d="M147.02344 372.01953l2.09375 1.27735m-2.97266-.75782l1.04688.64063m13.10937-1.22656l-5.96875 3.71093m5.96875-3.71094l2.1211 1.23438m10.91796-1.61719l-5.41797 4.47656m5.41797-4.47656l2.26563.9375m9.69922-1.9414l-2.71875 6.48046m2.32422-5.53515l1.21875-.11328m8.30859.3164l5.64453 4.1875m-4.82422-3.57812l.1836-1.21485m18.39453 4.00391l-6.52344-2.60937m6.52344 2.60937l.26562 2.4375m12.4336-1.42969l-5.28907-4.625m5.28907 4.625l-.5586 2.38672m14.64453-3.8789l-6.83203-1.64063m6.83203 1.64063l.6172 2.375m-1.60938-2.61329l.30468 1.1875M254 374.29298l-6.96094-.96875m6.96094.96875l.84375 2.30469m-1.85547-2.44532l.83984 2.3047m13.51563-2.82032l-7.01563.34375m7.01563-.34375l1.25781 2.10547m-2.27734-2.0586l1.25781 2.10938m13.08203-2.02735l-7.02734.08204m7.02734-.08204l1.17578 2.15625m-2.19922-2.14453l1.1797 2.15625m13.14843-2.41406l-7.0039.57813m7.0039-.57813l1.32422 2.0664m-2.34375-1.98046l1.32422 2.0625m12.91797-2.70703l-6.82032 1.69531m6.82032-1.69531l1.64062 1.82422m-2.63281-1.57813l1.64062 1.82422m12.51563-2.53516l-6.51953 2.6211m6.51953-2.6211l1.8789 1.58204m-2.82812-1.19922l1.8789 1.58203m12.23829-2.28125l-6.22656 3.25781m6.22656-3.25781l2.02734 1.38672m-2.9336-.91407l2.02735 1.38672m12.5625-.71875l-6.96094.97266m6.96094-.97266l1.4414 1.98828m-2.45702-1.84375l1.4414 1.98438m12.85938-2.30469l-6.90235 1.32813m6.90235-1.32813l1.53906 1.90625m-2.54297-1.71484l1.53906 1.91015m-2.54296-1.71484l.76953.95313m14.5-1.57422l-6.79297 1.79687m6.79297-1.79687l1.66796 1.79687m-2.65625-1.53515l1.66797 1.79687m-2.65625-1.53516l.83204.89844m14.36328-1.72265l-6.60547 2.39843m6.60547-2.39844l1.82421 1.64454m-2.78515-1.29688l1.82422 1.64453m12.4961-1.86328l-6.69142 2.13672m6.69141-2.13672l1.75781 1.71485m-2.73046-1.40235l1.7578 1.71485m12.44923-2.25782l-6.52735 2.60156m6.52735-2.60156l1.87109 1.58594m-2.82031-1.20703l1.8711 1.58594m12.53905-1.51172l-6.8203 1.6914m6.8203-1.6914l1.64063 1.82812m-2.63281-1.58203l.8203.91406m13.36329-1.55859l-6.57422 2.48828m6.57422-2.48828l1.84375 1.6211m-2.80078-1.25782l.92187.8086m13.28516-1.32813l-6.44531 2.80469m6.44531-2.80469l1.92188 1.52734m-2.85938-1.12109l.96094.76563m12.91406-1.83594l-5.6875 4.1289"/><g clip-path="url(#ac)"><path fill="none" stroke="#000" stroke-linecap="round" stroke-linejoin="round" stroke-miterlimit="10" stroke-width=".5" d="M466.40625 371.74219l2.20313 1.07812"/></g><g clip-path="url(#ad)"><path fill="none" stroke="#000" stroke-linecap="round" stroke-linejoin="round" stroke-miterlimit="10" stroke-width=".5" d="M465.57813 372.34375l2.20312 1.07813"/></g><g clip-path="url(#ae)"><path fill="none" stroke="#000" stroke-linecap="round" stroke-linejoin="round" stroke-miterlimit="10" stroke-width=".5" d="M146.79688 358.36719l-5.59375 4.2539"/></g><path fill="none" stroke="#000" stroke-linecap="round" stroke-linejoin="round" stroke-miterlimit="10" stroke-width=".5" d="M146.79688 358.36719l2.22656 1.02734m-3.03906-.41015l1.11328.51562m13.48047-.3086l-6.52735 2.60548m6.52734-2.60547l1.875 1.58203m11.07422-2.26563l-5.79687 3.97266m5.79687-3.97266l2.17578 1.13281m10.27735-2.01171l-4.07031 5.73046m3.47656-4.89843l1.21875.16015m14.10937 2.50391l-6.91015-1.26563m5.90625 1.08204l.3711 1.16796m12.96093.88282l-4.9375-5m4.9375 5l-.73047 2.34375m14.41797-2.77735l-5.67969-4.1328m5.67969 4.1328l-.33984 2.4297m14.1875-3.50782l-6.7461-1.97656m6.7461 1.97656l.49609 2.40234m-1.47656-2.6875l.49609 2.40235m13.84766-2.29688l-6.83985-1.61328m6.83985 1.61328l.62109 2.375m-1.61719-2.60937l.6211 2.37109m13.78125-2.91016l-7.02735-.0664m7.02735.0664l1.1328 2.17579m-2.15233-2.1875l1.1289 2.17968m13.15625-2.80078l-6.92578 1.19922m6.92578-1.19922l1.5039 1.9375m-2.51171-1.76172l1.5039 1.9375m12.76954-2.35547l-6.82422 1.6797m6.82422-1.6797l1.6328 1.83204m-2.625-1.58594l1.63282 1.82812m12.64063-2.1914l-6.75782 1.91796m6.75782-1.91796l1.69922 1.76953m-2.6836-1.49219l1.69922 1.77344m12.6914-1.63672l-6.9414 1.08594m6.9414-1.08594l1.47266 1.96094m-2.48047-1.80079l1.47266 1.96094m12.78125-2.45703l-6.80469 1.75781m6.80469-1.7578l1.65625 1.8125m-2.64453-1.5547l1.65625 1.8086m12.71484-1.74219l-6.9375 1.10938m6.9375-1.10938l1.48047 1.95703m-2.48828-1.79687l1.47656 1.96093m12.89063-1.61328l-7.02735.09375m7.02735-.09375l1.17969 2.15235m-2.20313-2.13672l1.17969 2.15234m-2.20313-2.14062l.59375 1.07812m14.71094-1.67969l-6.91406 1.2461m6.91406-1.2461l1.51953 1.9297m-2.52344-1.75l1.51563 1.92968m-2.52344-1.7461l1.51953 1.92579m13.60547-2.9961l-6.50781 2.65625m6.50781-2.65625l1.88281 1.57031m-2.83203-1.18359l1.88672 1.57031m-2.83203-1.18359l1.88672 1.57031m13.30078-2.39453l-6.46484 2.76172m6.46484-2.76172l1.91016 1.53906m-2.85157-1.13671l1.91016 1.53906m-2.85156-1.13672l1.91015 1.53906m13.33985-2.21094l-6.57031 2.4922m6.5703-2.4922l1.84766 1.6211m-2.80468-1.25781l1.84765 1.61718m12.45703-1.88672l-6.63671 2.3086m6.63671-2.3086l1.80079 1.66797m-2.76563-1.33203l1.80078 1.66797m12.53125-1.84766l-6.73828 1.9922m6.73828-1.9922l1.71875 1.75m-2.69922-1.46093l1.71875 1.7539m12.49219-2.29687l-6.5664 2.5039m6.5664-2.5039l1.84766 1.61328m-2.8047-1.25l1.84767 1.61328m-2.8047-1.25l.92579.8086m13.86719-2.33985l-5.69922 4.10938"/><g clip-path="url(#af)"><path fill="none" stroke="#000" stroke-linecap="round" stroke-linejoin="round" stroke-miterlimit="10" stroke-width=".5" d="M466.41016 358.4375l2.20312 1.08203"/></g><g clip-path="url(#ag)"><path fill="none" stroke="#000" stroke-linecap="round" stroke-linejoin="round" stroke-miterlimit="10" stroke-width=".5" d="M465.58203 359.03516l2.20313 1.08203"/></g><path fill="none" stroke="#000" stroke-linecap="round" stroke-linejoin="round" stroke-miterlimit="10" stroke-width=".5" d="M464.7539 359.63281l1.10157.54297"/><g clip-path="url(#ah)"><path fill="none" stroke="#000" stroke-linecap="round" stroke-linejoin="round" stroke-miterlimit="10" stroke-width=".5" d="M146.05078 344.32422l-4.10156 5.70703"/></g><path fill="none" stroke="#000" stroke-linecap="round" stroke-linejoin="round" stroke-miterlimit="10" stroke-width=".5" d="M145.45313 345.15625l1.21875.16406m13.54687-.1211l-5.80469 3.95704m5.80469-3.95703l2.17188 1.14062m11.52343-.41406l-6.5664 2.5039m6.5664-2.5039l1.84766 1.61328m10.40625-3.08203l-4.44531 5.4414m4.4453-5.4414l2.40626.47656m10.8164 5.03516l-4.26171-5.58203m4.26172 5.58203l-1.01954 2.23047m14.4375-2.3086l-4.46875-5.42578m3.82032 4.63672l-.47266 1.13281m15.63281-2.28906l-6.85937-1.53515m6.85937 1.53515l.64844 2.36719m-1.64844-2.58984l.32813 1.18359m13.83203-.45703l-6.55078-2.54297m6.55078 2.54297l.28906 2.4375m-1.24219-2.8086l.28907 2.4375m14.0625-2.30078l-6.71485-2.07421m6.71485 2.07421l.46093 2.41016m-1.4375-2.71094l.46094 2.41016m13.91016-2.41797l-6.875-1.45703m6.875 1.45703l.67578 2.35938m-1.67578-2.57032l.67578 2.35938m-1.67578-2.57031l.33984 1.17578m15.04688-1.66797l-7.01954.3711m7.01954-.3711l1.26562 2.10547m-2.28906-2.05079l1.26562 2.10157m12.98438-2.77344l-6.83985 1.60547m6.83985-1.60547l1.61719 1.84375m-2.61329-1.60938l1.6172 1.84375m12.55859-2.51953l-6.57032 2.48829m6.57032-2.48829l1.84375 1.6211m-2.80079-1.25781l1.84375 1.61718m-2.79687-1.2539l.92187.80859m14.47266-.9336l-6.91016 1.28516m6.91016-1.28515l1.52734 1.91796m-2.53125-1.73046l1.52735 1.91796m-2.53516-1.73046l.76563.95703m14.5039-1.58985l-6.79297 1.80079m6.79297-1.80079l1.66797 1.79688m-2.65625-1.53516l1.66797 1.79688m-2.65625-1.53516l.83203.89844m14.35938-1.73438l-6.59375 2.42579m6.59375-2.42579l1.82812 1.63672m-2.78906-1.28125l1.83203 1.63281m-2.78906-1.28125l.91406.81641m14.51953-.6211l-6.9961.6211m6.9961-.6211l1.33985 2.0586m-2.35547-1.96875l1.33593 2.0586m-2.35546-1.96875l.66796 1.03125m14.6875-1.14844l-7.0078.5m7.0078-.5l1.3047 2.07812M372.83983 347l1.3047 2.07813m-2.32423-2.00391l.65235 1.03906m14.64453-1.6289l-6.89063 1.39062m6.89063-1.39063l1.55468 1.89454m-2.55859-1.69532l1.5586 1.89844m-2.5625-1.69531l1.55859 1.89453m13.51172-3.07031l-6.38672 2.9336m6.38672-2.9336l1.94922 1.49219m-2.87891-1.0625l1.94922 1.48828m-2.8789-1.0625l.97655.74218m14.15625-1.6875l-6.30078 3.11329m6.30078-3.11329l1.9922 1.4336m-2.91016-.98047l1.99218 1.4336m-2.91015-.98048l.9961.71485m14.26952-1.35938l-6.53125 2.59375m6.53125-2.59375l1.8711 1.58594m-2.82422-1.21094l1.8711 1.58985m-2.82032-1.21094l1.8711 1.58594m13.40624-2.1836l-6.65234 2.27735m6.65234-2.27735l1.78906 1.67969m-2.7578-1.34766l1.78905 1.67579m-2.7578-1.34375l.89843.83984m14.32812-1.57031l-6.60156 2.41015m6.60156-2.41015l1.82422 1.64062m-2.78515-1.28906l1.82422 1.64062m-2.78516-1.28906l.91406.82031m14.16406-1.89062l-6.28515 3.14453"/><g clip-path="url(#ai)"><path fill="none" stroke="#000" stroke-linecap="round" stroke-linejoin="round" stroke-miterlimit="10" stroke-width=".5" d="M466.70313 345.60547l2 1.42578"/></g><g clip-path="url(#aj)"><path fill="none" stroke="#000" stroke-linecap="round" stroke-linejoin="round" stroke-miterlimit="10" stroke-width=".5" d="M465.78906 346.0625l2 1.42578"/></g><path fill="none" stroke="#000" stroke-linecap="round" stroke-linejoin="round" stroke-miterlimit="10" stroke-width=".5" d="M464.875 346.51953l2 1.42578"/><g clip-path="url(#ak)"><path fill="none" stroke="#000" stroke-linecap="round" stroke-linejoin="round" stroke-miterlimit="10" stroke-width=".5" d="M147.41406 333.03906l-6.82812 1.64844"/></g><path fill="none" stroke="#000" stroke-linecap="round" stroke-linejoin="round" stroke-miterlimit="10" stroke-width=".5" d="M160.66016 332.79297l-6.69141 2.14062m5.71875-1.82812l.8789.85547m13.50782-.79297l-6.88672 1.39062m6.88672-1.39062l1.5586 1.89453m-2.5625-1.6914l.78124.9453m13.16406-2.16015l-6.14062 3.41406m6.14063-3.41406l2.05859 1.33203m8.98828 3.79688l-1.60547-6.84375m1.3711 5.84765l-.92188.8086m15.11328-.03125l-2.88672-6.40625m2.88672 6.40625l-1.5039 1.9414m16.30468-3.20703l-5.86328-3.875m5.86328 3.875l-.23047 2.4414m-.62109-3.0078l-.23438 2.4453m14.72266-2.48827l-6.5039-2.65625m6.5039 2.65625l.25 2.4414m-1.19531-2.82812l.2461 2.4414m14.1953-2.6289l-6.86328-1.50781m6.86328 1.5078l.65625 2.36329m-1.65625-2.58203l.66016 2.36328m13.71094-2.48438l-6.97656-.82812m6.97656.82812l.89062 2.28907m-1.90625-2.41016l.44532 1.14453m13.91015-1.33203l-7.02344-.21094m7.02344.21094l1.08594 2.19922m-2.10938-2.23047l1.08594 2.19922m13.20703-2.83203l-6.9375 1.11719m6.9375-1.1172l1.48438 1.95313m-2.49219-1.79297l1.48047 1.95704m12.80469-2.32813l-6.85938 1.53906m6.85938-1.53906l1.59765 1.86328m-2.59765-1.64062l1.59765 1.86328m12.76563-1.82031l-6.95703 1.0078m6.95703-1.0078l1.44922 1.98046m-2.46094-1.83203l1.44922 1.97656m-2.46094-1.83203l.72266.98829m14.64843-.9297l-7.01953.3047m7.01953-.3047l1.2461 2.11329m-2.26953-2.07031l1.2461 2.11328m-2.26563-2.07031l.62109 1.05859m14.73828-1.13672l-7.02344.28906m7.02344-.28906l1.23828 2.11719m-2.26172-2.07422l1.2422 2.11719m13.0664-2.47266l-6.96485.91406m6.96485-.91406l1.42578 1.9961m-2.4375-1.86329l.71094 1m13.57812-1.36719l-6.89062 1.38282m6.89062-1.38281l1.55469 1.89453m-2.5586-1.69532l1.5586 1.89844m-2.5586-1.69531l1.5547 1.89844m13.53515-3.02344l-6.4336 2.82812m6.4336-2.82812l1.92578 1.52344m-2.85938-1.10938l1.92579 1.51953m12.59765-.10156l-6.98047-.83594m6.98047.83594l.88672 2.28516m-1.90234-2.40625l.88672 2.28515m13.4453-2.98437l-6.98046.80469m6.98047-.8047l1.39062 2.01954m-2.40625-1.90235l1.39063 2.01954m12.79687-2.79688l-6.6953 2.125m6.6953-2.125l1.75391 1.71485m-2.72656-1.40625l1.7539 1.71484m12.29297-2.59766L433.82422 335.5m6.21484-3.27344l2.03125 1.3789m-2.9336-.90233l2.02735 1.3789m-2.9336-.90234l1.01563.6875m14.01563-1.80469l-6.03125 3.60156m6.03125-3.60156l2.10156 1.26953m-2.97656-.7461l2.09765 1.26954m-2.97656-.7461l2.09766 1.26954m-2.97656-.7461l1.05078.63672m14.91406-2.17969l-6.0664 3.54688"/><g clip-path="url(#al)"><path fill="none" stroke="#000" stroke-linecap="round" stroke-linejoin="round" stroke-miterlimit="10" stroke-width=".5" d="M466.59375 332.08984l2.08984 1.29297"/></g><g clip-path="url(#am)"><path fill="none" stroke="#000" stroke-linecap="round" stroke-linejoin="round" stroke-miterlimit="10" stroke-width=".5" d="M465.71094 332.60547l2.08984 1.29297"/></g><path fill="none" stroke="#000" stroke-linecap="round" stroke-linejoin="round" stroke-miterlimit="10" stroke-width=".5" d="M464.82813 333.1211l2.08984 1.29296m-2.97266-.77734l1.04688.64453"/><g clip-path="url(#an)"><path fill="none" stroke="#000" stroke-linecap="round" stroke-linejoin="round" stroke-miterlimit="10" stroke-width=".5" d="M147.11328 318.91406l-6.22656 3.26563"/></g><path fill="none" stroke="#000" stroke-linecap="round" stroke-linejoin="round" stroke-miterlimit="10" stroke-width=".5" d="M147.11328 318.91406l2.02344 1.38672m11.6914.375l-7.02343-.25781m6 .22265l.53515 1.10157m13.6797-2.11328l-6.78126 1.83984m5.79688-1.57422l.83984.89453m13.32031-1.57812l-6.5 2.67578m6.5-2.67578l1.89063 1.5664m9.70312 2.9336l-3.0586-6.32813m2.61329 5.40625l-.72266.99219m14.4336-.04688l-2.95703-6.375m2.95703 6.375l-1.48438 1.95704m1.05078-2.88282l-.73828.97657m15.20313-.4922l-4.39063-5.48827m4.39063 5.48828l-.97266 2.25m.33203-3.05078l-.48437 1.1289m14.86719-.73437l-5.2461-4.67578m5.2461 4.67578l-.58204 2.38281m-.17968-3.0625l-.58594 2.38281m14.9414-2.05859l-5.80078-3.96484m5.80078 3.96484l-.26953 2.4375m-.57422-3.01563l-.27343 2.4375m14.95703-3.0664l-6.85156-1.55078m6.85156 1.55078l.64453 2.36719m-1.64063-2.59375l.32032 1.18359m14.07422-1.58594l-7.01953-.29297m7.01953.29297l1.0625 2.21094m-2.08203-2.2539l1.05859 2.21093m13.24219-2.82422l-6.95313 1.01953m6.95313-1.01953l1.45312 1.97656m-2.46484-1.82812l1.45312 1.97656m12.77344-2.59375l-6.75 1.95313m6.75-1.95313l1.70703 1.76172m-2.6914-1.47656l1.71093 1.76172m12.61328-1.94922l-6.80078 1.76172m6.80078-1.76172l1.66016 1.8086m-2.64844-1.5547l1.65625 1.8086m-2.64453-1.55078l.82813.90234m14.41015-1.60156l-6.69531 2.13672m6.69531-2.13672l1.75781 1.71484m-2.73046-1.40625l1.7539 1.71485m-2.73047-1.40235l.87891.85547m14.45312-1.24219l-6.82812 1.66797m6.82812-1.66797l1.63282 1.82813m-2.6289-1.58594l1.63671 1.82813m-2.6289-1.58594l.8164.91406m14.48437-1.40234l-6.82421 1.67187m6.82421-1.67187l1.63672 1.83203m-2.6289-1.58594l.8164.91406m13.34766-1.61718l-6.53516 2.58593m6.53516-2.58593l1.86719 1.59375m-2.82032-1.21485l.9336.79297m13.03515-1.7539l-5.9414 3.7539m5.9414-3.7539l2.13282 1.21484m-2.9961-.66797l2.13282 1.21484m12.39062-1.05468l-6.6289 2.33984m6.6289-2.33984l1.80469 1.66015m11.05469 1.55469l-5.71485-4.08984m5.71485 4.08984l-.32422 2.42969m14.26953-4.0625l-6.97656-.82813m5.96093.71094l.44532 1.14063m10.96093-4.90625l-1.1289 6.9375m1.1289-6.9375l2.32422-.78907m12.79297 1.66016l-4.73047 5.19531m4.73047-5.19531l2.375.60547m-3.0664.15234l2.3789.60547m11.60156-1.38281l-4.68359 5.23828"/><g clip-path="url(#ao)"><path fill="none" stroke="#000" stroke-linecap="round" stroke-linejoin="round" stroke-miterlimit="10" stroke-width=".5" d="M465.90234 317.92969l2.38282.58594"/></g><path fill="none" stroke="#000" stroke-linecap="round" stroke-linejoin="round" stroke-miterlimit="10" stroke-width=".5" d="M465.22266 318.6914l2.3828.58594m-3.0664.17579l2.38281.58593m-3.0625.17578l1.19141.29297"/><path fill="#00f" fill-rule="evenodd" d="M383.80078 472.08594h8.61719V461.9414h-8.61719v10.14453"/><path fill="azure" fill-rule="evenodd" d="M385.63281 463.77344h.83203v2.82422h3.28907v-2.82422h.83203v6.48047h-.83203v-2.91797h-3.28907v2.91797h-.83203v-6.48047"/><path fill="#00f" fill-rule="evenodd" d="M197.39063 458.77344h8.61718V448.625h-8.61719v10.14844"/><path fill="azure" fill-rule="evenodd" d="M199.22266 450.45703h.83203v2.82422h3.28515v-2.82422h.83594v6.48047h-.83594v-2.91406h-3.28515v2.91406h-.83203v-6.48047"/><path fill="#00f" fill-rule="evenodd" d="M383.80078 436.57813h8.61719v-10.14454h-8.61719v10.14454"/><path fill="azure" fill-rule="evenodd" d="M385.63281 428.26563h.83203v2.82421h3.28907v-2.82421h.83203v6.48046h-.83203v-2.91406h-3.28907v2.91406h-.83203v-6.48046"/><path fill="#ff3030" fill-rule="evenodd" d="M371.17969 423.26563h7.6914v-10.14844h-7.6914v10.14844"/><path fill="azure" fill-rule="evenodd" d="M373.01172 414.95313h.83594v5.73828h3.1914v.74218h-4.02734v-6.48046"/><path fill="#ff3030" fill-rule="evenodd" d="M295.72656 414.38672h7.69531v-10.14453h-7.6953v10.14453"/><path fill="azure" fill-rule="evenodd" d="M297.5586 406.07422h.83593v5.74219h3.1914v.73828h-4.02734v-6.48047"/><path fill="#ff3030" fill-rule="evenodd" d="M193.64453 370.0039h7.69531v-10.14452h-7.6953v10.14453"/><path fill="azure" fill-rule="evenodd" d="M195.47656 361.6914h.83594v5.73829h3.1914v.74219h-4.02734v-6.48047"/><path fill="#ffffe0" fill-rule="evenodd" d="M161.07031 379.11328H183.25v-10.1914h-22.17969v10.1914"/><path fill-rule="evenodd" d="M164.57031 370.7539h.50781v6.29298h-.78906v-4.48829h-1.38672v-.55468l.5586-.06641.2539-.05469.23047-.08984.20313-.14063.17187-.21093.14063-.29297.10937-.39453m4.8125 0l.23047.01953.21875.05469.20703.08984.19531.1211.1836.14843.17187.17578.30078.42188.2461.49218.17969.54688.10937.57812.03906.58985-.03906.59375-.10937.58594-.1797.55468-.24608.5-.30079.42969-.17187.17969-.1836.15234-.1953.1211-.20704.09375-.21875.05859-.23047.01953-.23047-.01953-.21875-.0586-.20703-.09375-.19531-.12109-.1875-.15234-.16797-.17969-.30469-.42969-.24218-.5-.1797-.55469-.11327-.58593-.03516-.59375h.83203l.02735.5625.08203.50781.1289.4414.16016.375.1914.30079.21094.22265.22266.13672.22656.04688.22656-.04688.22266-.13672.21094-.22265.1914-.30078.16016-.375.125-.44141.08203-.50781.03125-.5625-.03125-.5586-.08203-.5-.125-.4375-.16016-.36718-.1914-.28907-.21094-.21484-.22266-.13281-.22656-.04297-.22656.04297-.22266.13281-.21093.21484-.19141.28907-.16016.36718-.1289.4375-.08203.5-.02735.5586h-.83203l.03516-.58985.11328-.57812.17969-.54688.24218-.49218.3047-.42188.16796-.17578.1875-.14844.19531-.1211.20703-.08983.21875-.0547.23047-.01952m4.95313 0l.22656.01953.21875.05469.21094.08984.19531.1211.1836.14843.17187.17578.30078.42188.2461.49218.17968.54688.10938.57812.03906.58985-.03906.59375-.10938.58594-.17969.55468-.24609.5-.30078.42969-.17188.17969-.18359.15234-.19531.1211-.21094.09375-.21875.05859-.22656.01953-.23047-.01953-.21875-.0586-.20703-.09375-.19922-.12109-.1836-.15234-.17187-.17969-.30078-.42969-.24219-.5-.17969-.55469-.11328-.58593-.03906-.59375h.83594l.02734.5625.08203.50781.125.4414.16406.375.19141.30079.21094.22265.22266.13672.22656.04688.22656-.04688.22266-.13672.21093-.22265.1875-.30078.16407-.375.125-.44141.08203-.50781.03125-.5625-.03125-.5586-.08203-.5-.125-.4375-.16407-.36718-.1875-.28907-.21093-.21484-.22266-.13281-.22656-.04297-.22656.04297-.22266.13281-.21094.21484-.1914.28907-.16407.36718-.125.4375-.08203.5-.02734.5586H172.25l.03906-.58985.11328-.57812.1797-.54688.24218-.49218.30078-.42188.17188-.17578.18359-.14844.19922-.1211.20703-.08983.21875-.0547.23047-.01952m4.95312 0l.38672.02734.35547.08203.32422.13672.28125.1875.23047.23828.17187.28516.10938.33203.03515.375-.01953.27734-.0586.23438-.08593.19922-.11328.17187-.1289.14063-.14063.125-.28516.1953.23047.1172.21094.14843.17969.17188.15625.19531.12109.21094.08984.23047.0586.2461.01953.2539-.03516.3086-.10547.32812-.17187.32421-.23828.3047-.3086.26952-.37109.21485-.21094.08203-.23047.0586-.24218.03906-.26172.01562-.26172-.01563-.24219-.03906-.22266-.0586-.20703-.08202-.35547-.21485-.29296-.26953-.22266-.30469-.15625-.32421-.09375-.32813-.02734-.3086h.83203l.02734.25391.07813.23438.12109.21094.16016.1875.1914.14843.22266.1172.23828.0703.25781.02735.2539-.02735.23829-.0703.22266-.1172.1914-.14843.16016-.1875.1211-.21094.07812-.23438.02734-.2539-.02734-.2539-.07813-.23438-.1211-.21094-.16015-.1875-.1914-.15235-.22266-.11328-.23828-.07421-.2539-.02344-.25782.02344-.23828.07421-.22266.11329-.1914.15234-.16016.1875-.1211.21094-.07812.23437-.02734.2539h-.83203l.01562-.2539.0586-.23828.08984-.22656.125-.20703.15234-.19141.17969-.17188.21094-.15234.23047-.13281-.28516-.19531-.14063-.125-.1289-.14063-.11328-.17187-.08594-.19922-.0586-.23438-.01952-.27734h.78515l.02344.21484.0664.1914.10547.16798.13672.14062.16406.10938.1875.08203.20704.05078.22265.01563.21875-.01563.20703-.05078.1875-.08203.16797-.10938.13672-.14062.10156-.16797.06641-.1914.02344-.21485-.02344-.21094-.0664-.1914-.10157-.16797-.13672-.14063-.16797-.10937-.1875-.08204-.20703-.05078-.21875-.01562-.22265.01562-.20703.05079-.1875.08203-.16407.10937-.13672.14063-.10547.16796-.0664.19141-.02344.21094h-.78516l.03516-.375.10938-.33203.17578-.28516.22656-.23828.28125-.1875.32422-.13672.35547-.08203.39062-.02734"/><path fill="#ffffe0" fill-rule="evenodd" d="M341.74219 380.5625h22.1836v-10.1914h-22.1836v10.1914"/><path fill-rule="evenodd" d="M345.24219 372.20313h.51172V378.5h-.78907v-4.49219h-1.38671v-.55469l.55859-.0664.2539-.05078.22657-.08985.20312-.14062.17578-.21094.14063-.29687.10547-.39454m4.8164 0l.22657.01954.21875.05468.21093.08985.19532.1211.18359.14843.17188.17578.30078.42188.24218.49218.1797.54688.11327.57812.03906.59375-.03906.58985-.11328.58593-.17969.5547-.24218.5-.30079.42968-.17187.17969-.1836.15234-.1953.125-.21094.08984-.21875.0586-.22657.01953-.23046-.01953-.21875-.0586-.20704-.08984-.19921-.125-.1836-.15234-.17187-.1797-.30079-.42968-.24218-.5-.17969-.55469-.11328-.58593-.03906-.58985h.83593l.02735.5625.08203.5039.125.44532.16406.3711.1914.30078.21094.22265.22266.13672.22656.04688.22657-.04688.22265-.13672.21094-.22265.1875-.30079.16406-.37109.125-.44531.08203-.5039.03125-.5625-.03125-.5625-.08203-.5-.125-.4375-.16406-.36329-.1875-.29297-.21094-.21484-.22265-.13281-.22657-.04297-.22656.04297-.22265.1328-.21094.21485-.1914.29297-.16407.36328-.125.4375-.08203.5-.02735.5625h-.83593l.03906-.59375.11328-.57812.17969-.54688.24219-.49219.30078-.42187.17187-.17578.1836-.14844.19921-.1211.20704-.08984.21875-.05468.23046-.01954m5.08985 0h.50781V378.5h-.78516v-4.49219h-1.39062v-.55469l.5625-.0664.25-.05078.23047-.08985.20312-.14062.17578-.21094.14063-.29687.10547-.39454m2.82422 2.17579h.78515l.01953-.31641.0586-.28516.10156-.2539.14063-.21485.17968-.17187.22266-.13281.26562-.07813.3086-.02734.23828.01953.22265.0625.20313.10156.17969.14063.14844.17187.11328.20703.07421.23438.02344.26562-.01953.26953-.0664.22266-.10938.1914-.15625.17188-.20313.16406-.24609.16407-.63281.39062-.53906.3125-.4375.3164-.34375.32423-.26563.33593-.1914.35157-.125.37109-.06641.39063-.02344.42187h4.21485v-.74219h-3.33594l.08594-.28515.11328-.23438.14843-.20312.1875-.1797.23047-.17187.27735-.17578.71875-.41797.41406-.20312.34375-.23047.28125-.2539.22265-.26563.16016-.27735.11328-.28515.0625-.28516.01953-.28125-.03906-.38281-.1211-.34766-.1914-.30859-.25-.26172-.30078-.21094-.34766-.16015-.3789-.09766-.40625-.03515-.4336.03515-.39843.09766-.35547.16406-.30469.23438-.25.30468-.1836.375-.11718.44531-.03906.51954"/><path fill="#ffffe0" fill-rule="evenodd" d="M310.67578 338.19922h22.17969v-10.1914h-22.17969v10.1914"/><path fill-rule="evenodd" d="M314.17578 329.83984h.50781v6.29688h-.78515v-4.49219h-1.39063v-.55469l.5586-.0664.2539-.05078.23047-.08985.20313-.14062.17187-.21094.14453-.29688.10547-.39453m4.8125 0l.23047.01954.21875.05468.20703.08985.19531.12109.1836.14844.17187.17578.30469.42187.24219.4922.17969.54687.10937.57812.03906.59375-.03906.58985-.10938.58593-.17968.55469-.24219.5-.30469.42969-.17187.17969-.1836.15234-.1953.125-.20704.08984-.21875.0586-.23047.01953-.23047-.01953-.21875-.0586-.20703-.08984-.19531-.125-.1836-.15235-.17187-.17968-.30469-.42969-.24219-.5-.17968-.55469-.10938-.58594-.03906-.58984h.83203l.03125.5625.07813.5039.1289.44532.16016.3711.1914.30077.21094.22266.22266.13672.22656.04688.22656-.04688.22266-.13672.21094-.22265.1914-.30079.16016-.37109.1289-.44531.08204-.5039.02734-.5625-.02734-.5625-.08203-.5-.12891-.4375-.16016-.36329-.1914-.29297-.21094-.21484-.22266-.13281-.22656-.04297-.22656.04296-.22266.13282-.21094.21484-.1914.29297-.16016.36328-.1289.4375-.07813.5-.03125.5625h-.83203l.03906-.59375.10938-.57812.17969-.54688.24218-.49219.30469-.42187.17188-.17578.18359-.14844.19531-.1211.20703-.08984.21875-.05469.23047-.01953m5.08985 0h.51171v6.29688h-.78906v-4.49219h-1.38672v-.55469l.5586-.0664.2539-.05078.23047-.08985.20313-.14062.17187-.21094.14063-.29688.10546-.39453m6.8047 1.6211h-.78516l-.05079-.21094-.08203-.1875-.10937-.16016-.1289-.1289-.14844-.10547-.15625-.07422-.17188-.04297-.17188-.01562-.32812.03906-.28516.1211-.24609.1953-.20313.26954-.16015.33593-.11719.40625-.07031.46485-.02344.52734.1875-.20312.1875-.16016.1836-.1211.1875-.08593.1875-.0625.1914-.03516.40235-.02734.30859.03125.32031.09375.3125.15625.29688.21875.2539.28515.19922.34766.07422.20313.05078.21484.03125.23438.0039.2539-.78906.04688-.02734-.26172-.07422-.25-.125-.23438-.16015-.21094-.19141-.17578-.22266-.13671-.23828-.08985-.2539-.03125-.25782.03125-.23828.08985-.21875.13671-.19531.17579-.16016.21093-.12109.23438-.07813.25-.02734.26172.02735.2578.07812.25.1211.23438.16015.21094.19531.17969.21875.13672.23828.08594.25782.03125.2539-.03125.23828-.08594.22266-.13672.1914-.17969.16016-.21094.125-.23437.07422-.25.02735-.25781.78906-.04688-.03125.3711-.09375.37109-.15625.35937-.22266.32813-.28906.28125-.17188.1211-.1875.10156-.20703.08203-.22265.0625-.2422.03906-.2578.01172-.28516-.01563-.25781-.04687-.23828-.07813-.21485-.10547-.19531-.1289-.17578-.15625-.15235-.17969-.13671-.20313-.1172-.22265-.09765-.24219-.14844-.53515-.08593-.59375-.02344-.64063.03516-.74219.11718-.66406.1836-.57813.1211-.2539.13671-.23047.15234-.20703.17188-.1836.1875-.15625.20312-.1289.21485-.10156.23437-.07422.2461-.04297.26171-.01563.3672.03516.33202.09375.29688.15234.2539.19922.21094.24219.16797.27344.11328.30078.0625.32422"/></g></defs><use xlink:href="#ap"/></svg>