<svg xmlns="http://www.w3.org/2000/svg" role="img" xmlns:xlink="http://www.w3.org/1999/xlink" viewBox="142.45 309.95 326.84 171.84"><defs><clipPath id="a"><path d="M144 311.67188h1v168.65625h-1zm0 0"/></clipPath><clipPath id="b"><path d="M144 311.67188h324v168.65625H144zm0 0"/></clipPath><clipPath id="c"><path d="M467 311.67188h1v168.65625h-1zm0 0"/></clipPath><clipPath id="d"><path d="M144 479h4v1.32813h-4zm0 0"/></clipPath><clipPath id="e"><path d="M147 480h2v.32813h-2zm0 0"/></clipPath><clipPath id="f"><path d="M153 479h9v1.32813h-9zm0 0"/></clipPath><clipPath id="g"><path d="M160 480h2v.32813h-2zm0 0"/></clipPath><clipPath id="h"><path d="M166 479h9v1.32813h-9zm0 0"/></clipPath><clipPath id="i"><path d="M173 480h3v.32813h-3zm0 0"/></clipPath><clipPath id="j"><path d="M172 480h2v.32813h-2zm0 0"/></clipPath><clipPath id="k"><path d="M180 479h8v1.32813h-8zm0 0"/></clipPath><clipPath id="l"><path d="M187 480h2v.32813h-2zm0 0"/></clipPath><clipPath id="m"><path d="M186 480h1v.32813h-1zm0 0"/></clipPath><clipPath id="n"><path d="M193 479h8v1.32813h-8zm0 0"/></clipPath><clipPath id="o"><path d="M200 480h2v.32813h-2zm0 0"/></clipPath><clipPath id="p"><path d="M199 480h2v.32813h-2zm0 0"/></clipPath><clipPath id="q"><path d="M206 479h9v1.32813h-9zm0 0"/></clipPath><clipPath id="r"><path d="M213 480h3v.32813h-3zm0 0"/></clipPath><clipPath id="s"><path d="M212 480h2v.32813h-2zm0 0"/></clipPath><clipPath id="t"><path d="M220 479h8v1.32813h-8zm0 0"/></clipPath><clipPath id="u"><path d="M233 479h8v1.32813h-8zm0 0"/></clipPath><clipPath id="v"><path d="M240 480h2v.32813h-2zm0 0"/></clipPath><clipPath id="w"><path d="M246 479h9v1.32813h-9zm0 0"/></clipPath><clipPath id="x"><path d="M253 480h2v.32813h-2zm0 0"/></clipPath><clipPath id="y"><path d="M260 479h8v1.32813h-8zm0 0"/></clipPath><clipPath id="z"><path d="M266 480h1v.32813h-1zm0 0"/></clipPath><clipPath id="A"><path d="M273 479h8v1.32813h-8zm0 0"/></clipPath><clipPath id="B"><path d="M279 480h2v.32813h-2zm0 0"/></clipPath><clipPath id="C"><path d="M286 478h8v2.32813h-8zm0 0"/></clipPath><clipPath id="D"><path d="M292 480h2v.32813h-2zm0 0"/></clipPath><clipPath id="E"><path d="M302 479h4v1.32813h-4zm0 0"/></clipPath><clipPath id="F"><path d="M315 476h4v4.32813h-4zm0 0"/></clipPath><clipPath id="G"><path d="M327 478h7v2.32813h-7zm0 0"/></clipPath><clipPath id="H"><path d="M340 478h7v2.32813h-7zm0 0"/></clipPath><clipPath id="I"><path d="M353 478h8v2.32813h-8zm0 0"/></clipPath><clipPath id="J"><path d="M367 478h7v2.32813h-7zm0 0"/></clipPath><clipPath id="K"><path d="M380 478h7v2.32813h-7zm0 0"/></clipPath><clipPath id="L"><path d="M393 479h8v1.32813h-8zm0 0"/></clipPath><clipPath id="M"><path d="M392 477h2v3.32813h-2zm0 0"/></clipPath><clipPath id="N"><path d="M393 478h2v2.32813h-2zm0 0"/></clipPath><clipPath id="O"><path d="M406 480h9v.32813h-9zm0 0"/></clipPath><clipPath id="P"><path d="M405 478h3v2.32813h-3zm0 0"/></clipPath><clipPath id="Q"><path d="M420 477h7v3.32813h-7zm0 0"/></clipPath><clipPath id="R"><path d="M435 476h4v4.32813h-4zm0 0"/></clipPath><clipPath id="S"><path d="M449 476h3v4.32813h-3zm0 0"/></clipPath><clipPath id="T"><path d="M461 476h5v4.32813h-5zm0 0"/></clipPath><clipPath id="U"><path d="M144 466h4v2h-4zm0 0"/></clipPath><clipPath id="V"><path d="M144 452h4v3h-4zm0 0"/></clipPath><clipPath id="W"><path d="M144 440h4v1h-4zm0 0"/></clipPath><clipPath id="X"><path d="M465 437h3v1h-3zm0 0"/></clipPath><clipPath id="Y"><path d="M144 426h4v2h-4zm0 0"/></clipPath><clipPath id="Z"><path d="M144 413h4v2h-4zm0 0"/></clipPath><clipPath id="aa"><path d="M144 399h4v3h-4zm0 0"/></clipPath><clipPath id="ab"><path d="M144 385h4v4h-4zm0 0"/></clipPath><clipPath id="ac"><path d="M144 371h4v5h-4zm0 0"/></clipPath><clipPath id="ad"><path d="M465 370h3v2h-3zm0 0"/></clipPath><clipPath id="ae"><path d="M144 358h4v5h-4zm0 0"/></clipPath><clipPath id="af"><path d="M466 357h2v3h-2zm0 0"/></clipPath><clipPath id="ag"><path d="M144 345h4v5h-4zm0 0"/></clipPath><clipPath id="ah"><path d="M466 345h2v3h-2zm0 0"/></clipPath><clipPath id="ai"><path d="M465 345h3v3h-3zm0 0"/></clipPath><clipPath id="aj"><path d="M144 330h2v8h-2zm0 0"/></clipPath><clipPath id="ak"><path d="M465 331h3v2h-3zm0 0"/></clipPath><clipPath id="al"><path d="M144 317h3v7h-3zm0 0"/></clipPath><clipPath id="am"><path d="M465 317h3v2h-3zm0 0"/></clipPath><g id="an" clip-path="url(#clip1)"><path fill="#fff" fill-opacity="0" fill-rule="evenodd" d="M0 0h1000v1000H0zm0 0"/><path fill="#d3d3d3" fill-opacity="0" fill-rule="evenodd" d="M162.15234 355.86719l-.23437.29297.0586.23437.11718.17188.17578.23437.29297.34766.11328.0586.11719-.17188.0586-.23438.17577-.17578.46485-.17578h.69922l.23437.29297.28906.8164.0586.17579.17578.23046.35156.23438.69922.69922.17188.17578.23437.34765.23438.41016.28906.58203.41015.46485.23047.23437.23438.17578.11719.23047.17578.29297.17187 1.16406v.23438l.0586.28906.05859.11719.11719.11719.34765.41015.11719.17188.17578.17578.17578.23437.11719.17188.17188.35156.05859.23438.23437.40625.23438-.0586-.17578.17578-.0586.92969h-.58203l-.23437-.11328-.34766.11328-.11719.11719-.05859.29297-.0586.17578-.11718.17187-.46484.29297-.0586.23438-.0586.11328v.64453l.0586.17187v.41016l.0586.0586v.40624l.05859.40625.11719.17579.05859.05859.23047.64062-.0586.29297v.69922l-.05859.58203v.23438l-.0586.23047-.05468.35156v1.92187l.05469.1172h.42578l-.36719.11718-.02344.35156.89063 1.16797 1.74219.53906 1.33984.35938v.53906l.08984.8086.53516.71484 1.51953.26953.89063-.08594.08984 1.16406.53516.1797 1.16015-.1797 2.05469-.98437 1.16016-.36328 1.8789-.17578 1.69531-.1797-.17968.71876-1.51563.08594-1.25.08984-.80469.26953-1.07421.8086.26953.71875.53515.89843-.17968.625-.26563.8086.26563 1.07812.625.89844.80468.17969 1.25-.1797-.26562.72267.09766.5039.05468.29297v.17188l.0586.29296v.40625l.17578.1172.35156.11718h.40625l.29297-.17578.11328-.11719.0586-.11719.11718-.23047.0586-.17578.35156-.46484.23047-.17578.17578-.0586.17578.0586.0586.17578.11718.98828.05469.46875.0586.17188.11718.23437.17578.0586.8164.05859h.28907l.11719.23437.05859.40625.0586.35156v1.10547l.11718.29297.11719.34766.28906.69922.17578.35156.58203.7539.35157.17579.17187.0586.46875.23437.64063.46484.34765.23438.29297.17578.29297.05468.23047.0625.8164.34766.29297.17578.11328.17188.35157.35156.11719.17578.52343.64063v.28906l.0586.35156v.34766l.05859.35156.0586.28906.11718.0586.17188.05859h.17578l.58203.23437.17578.1172.17578.28905.17578.23438.11328.23437.29297.23047.11719.11719v.41016l.0586.05468.28906.23438.23437.11719.0586.11718.11718.17188.0586.11719.23047.23437.05859.17578.23437.0586.1172.05859-.1172.11328-.05859.11719v.11719l-.11719.29296-.11719.28907v.58203l.17579.11719.11718.05859.0586.11719.11719.11719.11328.05859.17578.34765.0586.35157.05858.40625v.17578l-.05859.17578-.11719.69922v.17187l.1172.17579.29296.29296h.40625l.17578.1172.11719.17187.11719.29296v.23438h-.52735l-.23047-.23438h-.23437l-.17578.0586-.0586.69922.0586.34765.11719.17579.17578.41015.11718.23047.28907.46875.17578.05469h.52344l.23437.0586.75781.64062.0586.29296v.23438l.05859.0586.23047.34765v.35156l-.11719.17188v.29297l.29297.28906.29297.17578.17187.0586.29297.17577.29297.1172.58203.40624.28906.23438.29297.17578.21875.16015.01563.01172.23047.17579.64062.52343.17578.23438.1172.17578.17577.17578.11328.17188v.64062l.1172.17578.46874.11719.58203.11719.23438.05859.23047.11328.29297.11719.11328.0586.58593.35156.28907.17187.17578.0625.17578.05469.17578.0586.69922.35155.28906.17579.23438.05468.28906.17578.23437.1172.64063.40624.29297.11719.17187.0586.23438.05859.41015.05859.23047.0586.23438.11718.0586.17188-.41017.17578.46875.0586.0586.29296.11328.23438.17578.05468.23438.0586.17578.05859.40625.11719.64062.23437.11719.17188.0586.23437v.17578l-.0586.1172-.0586.40624.23438.23438.11719.05859.34766.11719.64062.23047.17578.11718.28906.1172.17578.17577.23438.46485.58203 1.10546.17578.17579.34766.17578.17578.11719.35156.11718 1.04688.52344.23437.0586.46485.11327.29297.0586.46484.17578.75781.58203.23438.23438.34765.46484.17578.17578.28907.23438.8164.69921.29297.17579.28906.28906.29297.17578.29297.28906.69531.64063.17578.17578.29297.23437.28907.23438.46875.28906.64062.58203.34766.23438.23437.29297.34766.34765.35156.46485.9336.99218.34765.40625.11719.17579.23437.05859.11328.11719.64454.17578.23047.11328.23437.0586.29297.17577.23047.1172.9336.69921.40624.40625.23438.17578.40625.17578.23437.11719.8164.34766.34766.23437.23438.11719.29297.28906.23047.11719.7578.35156.35157.17188.23047.05859.29297.11719.23437.0586.8711.17577h.8164l.46875.23047.17188.0586.875.69921.46484.1172.29297.05858.17578.0586.23047.0586.46875.05859.34766.05859.35156.0586.40625.05859h.29297l.17187.0586v.23046l.17578.17578h.29297l.34766.0586.35156.05859.69922.11719h.64063l.46484-.23438.29297-.17578.17187-.11719.41016-.17187.28906-.17578.9336-.46485.46875-.29297.52343-.29296.46485-.17188.46484-.17578 1.05078-.46485.28906-.11718.41016-.11719.28906-.11719.52735-.17578 1.51562-.69922.58203-.34765.28907-.0586.29297-.0586.34765-.11718.875-.23047.35156-.11719h.11329l.23437-.05859.875-.23437.23438-.0586h.8125l.35156-.0586.8164-.11718.17188-.0586.35156-.05468.29297-.0586.23047-.05859.8164-.17578.17579-.0586h.34765l.23438-.05859.46484-.11718.75781-.17188.23438-.0586h.34765l.41016-.11718.28906-.0586 1.28516-.05859h.28906l.41016-.0586.23047-.05858h.17578l.875-.1172h.40625l.41015-.11718h.34766l.35156-.11328.8711-.0586h1.75l1.04687.28907.41016.11719.28906.11718.35156.11719.28907.11719 1.05078.17187.28906.0586h.29297l.29297.05859.17187.0586.41016.05859.17187.0586.1172.05858h.11718l.11719.0586.35156.0586h.11328l.41016.0664 1.92187.39453 1.92578.39453 1.51953.44922 1.69532.71875 2.14453.80469 1.60547-.71875 1.42968-.80469 1.16016-1.07813 1.25-.44921 3.03516-.71875 1.875-.35938 2.14453-1.34765 2.23437-1.25391 2.5-1.25781 1.69531-.44922 1.78516-.17969 1.16016-.26953.625.53906 1.33984-.26953.71485-.98828.98437-1.34375.44531-.17969.80469-.35937 1.875-.53907 1.78516-.44921 1.25-.26954 1.16015-.08984 1.69922-.08984 1.96094-.26954 1.25-.08984h.53906l.625-.08984h.89063l2.14453-.17969 2.41015-.17969 2.58985-.08984 1.69531.17969 1.60938.08984 1.42968.35938 1.16016.71875 1.875.98828 1.16015 1.52734.26563.71484.6289.08985.35548.89844.53515.53906.53516 1.52734 1.07422.35938h.53515l-.80469.53515.08985 1.70703.71484 2.69532.89063.80468.89453.98829.71484 1.2578 1.78516.53907 1.51953-.17969.35547 1.34375 1.60937-.80469.98047-.53906.26953.26953.31641-.21484.21875-.14453.80078.44922.44922-.35938h.35547l.53515-.26953.53907-.71875.53515-.26953.625-.98828 1.16016.44922.83984.3711 1.39454.61718 1.6953-.17969h1.60548l1.78515.08985.17969-1.70704.53516-1.34375.80468.26954.4922.84765.40233.40625-.08984.53906v.35938l.71485.44922.71093-.26953h1.42969l.35938.98828.4453 1.25781.71485 1.34375 1.25.6289 1.69531.62891.71485-.17969.17969-.53906.98046-.08984.44922.35937.08594 1.25782-.26563.6289-.53515.17969v.53906l.71484.98438.26563.53906.98437.98828.80078 1.07813-.26562.35937-.08985.89844-.625 2.33203-.35546 2.0664-.08985 1.79298-.17969.71875-.08984.53906v1.4375l-.98047 1.88281-.35937 1.70703-.53516.89844-.80469 1.16797-.26562.53906 2.05469 1.2539.08593.35938-.35546.53906-.08985-.17968v.80859l.08985 1.4375-.44532.71484-1.07422.09375-.26562.71485.53515.89844.8047.71875 1.16015.80859 1.33984.26953.44531.35938-.35546.44921-1.78907-.08984-1.25-.44922-.71484-.71875-.625-.08984-.17578 3.58984-.1875 1.3086h89.35937V311.70313h-55.26953v49.08203l.76172.125 3.28906.54296 2.02344 2.83594v2.7539l2.35156.33204 2.34766.33203h4.05078l-1.3789 4.16016-2.02344.70703-2.02344.70312-.54297.34375-2.59375 1.6172-.1875.11718-2.02344-2.07813-.73046-2.74218-2.67188-2.07813-1.375-3.5-.0664-.08203-1.95704-2.67188 2.75-1.41796v-49.08204H294.42187v91.41407l.1172.03125.1328.01172.07422.07421.10547.04688.08985.0586.08593.05859.08985.0586.29687.29687.0586.08984.03125.11719.02734.11719.01563.13671-.03125.1172-.0586.08983-.0586.08594-.04296.10547-.04688.10156-.02734.1211v.14453l.17578.26953.14844.14844.07422.08594.07422.07421.04296.10547.0625.08985.0586.08593.04297.10547.0586.08985.04687.10156.04296.10547.0586.08594.11719.17968.07421.07422.0625.08594.0586.08984.04297.10547.0586.08985.05858.08593.0625.08985.0586.08984.04297.10156.11719.17969.07421.07422.0586.08594.07422.07421.08984.0586.10547.04687h.14844l.1328-.01562.13282.01562.10156-.04687.07422-.07422.04688-.10156-.01563-.13281v-.14844l-.04687-.10547-.02735-.11719-.04687-.10156-.02735-.1211-.04296-.10156-.0625-.08984-.04297-.10156-.04297-.10547-.03125-.11719-.01563-.13281-.01171-.13672.08593-.0586.0586-.08593.12109-.03125.04297.10547.01562.1328v.1172l.0586.10156.0586.08984.08983.0586.14844.14843.0586.08985.04296.10547-.01171.10156.08593.0586.10547.04687.08594.0586.08984.05858.07422.07422-.11719.02735-.10546.04687-.08594.0586-.07422.07421-.0586.08985-.0625.08594-.02734.12109-.04687.10156-.04297.10547-.03125.11719-.01172.13281-.01563.13281v.14844l.02735.11719.04687.10547.04297.10156.0586.08984.07421.07422.08985.0586.07422.07421.08984.0586.0586.08984.04296.10547.04688.10156.11719.03125.1328.01563h.14845l.11718-.03125.10547.04297.04297.10547.04688.10156.02734.1211L299.5 410l.02734.11719.03125.1211.02735.11718.10547.04297.10156.04687.13281-.01562.14844.14844.0625.08593.07422.07422.07031.07422.08984.0625.10547.04297.10156.04297.1172.03125.13671.01562.11719-.03125.07422-.07422.02734-.11718-.01172-.13282-.03125-.12109-.02734-.11719.04297-.10547h.11719l.08984.0625.11719.02735h.14843l.13282.01562h.14843l.13282.01563.1328-.01563h.14845l.1328-.01562.13282-.01172.13672.01172.11719-.02735.13281-.01562.1914-.0586-.05859.17579-.01562.1328-.02735.1211-.01562.13281-.0586.08594-.1328.01563-.10548.04687-.10546.04297-.1172.03125-.11718.02735-.26563.03125h-.14843l-.13281.01562-.07422.07422.05859.08594.14844.14843.11719.1797.07421.0703.08985.0625.08984.0586.08594.0586.08984.05858.10156.04297.10547.0625.10547.04297.08594.0586.10547.04687.10156.04297.17969.11719.0586.08984-.04298.10156-.04687.10547.01562.13281.22266.22266.0586.08985.04296.10156.03125.1211.04297.10155.01563.13282.03125.11718.01171.13672.03125.11719.14844.14844.10156.04297.10547.04296.1172.03125.1328.01563.13672.01563h.11719l.11719-.03125.08984-.0586.04297-.10547.04688-.10156.04296-.10547.03125-.11719.01172-.1328v-.14845l-.01172-.1328-.01562-.13282-.03125-.11719-.04297-.10547-.04688-.10547-.04296-.10156-.04297-.10547-.01563-.13281.01563-.13281.02734-.11719.03125-.11719.02735-.1211.04687-.10155.08984-.0586.08594-.0625.07422-.07422.08984-.05859.22266-.22266.0586-.08593.07421-.07422.11719-.17969.0586-.08594v-.14844l-.07423-.07421-.10156-.04688-.10547-.04297-.10156-.04297-.0586-.08984-.04687-.10547-.02734-.11719.08984-.05859.11719-.03125.10156-.04297.17969-.11719.14844-.14843.01172-.13282-.01172-.10546-.08985-.0586-.1328.01563h-.14845l-.1328.01562-.13282-.01562-.1211-.03125-.08593-.0586-.07422-.07422-.0586-.08984-.0625-.08594-.11718-.17969-.0586-.08593.03125-.1211.08594-.05859.1211-.03125.05859-.08594v-.1211l-.03125-.11718-.0586-.08984-.05859-.08594-.04687-.10547-.02735-.11719-.01562-.1328.0586-.08985.07421-.07422.08984-.0586.1172-.17968.07421-.07422.0586-.08594.14843-.14844.1211-.03125.1328-.01562.13282.01562.07422.07422.04297.10547.01562.13281-.03125.1172-.11719.03124-.1328.01172-.14844.14844-.04297.10547-.04688.10156-.02734.1211-.03125.11718v.14844l.03125.11719.04297.10546.05859.08985.07422.07031.07422.07422.11719.03125.12109.02734.11719-.02734.1328-.01563h.1172l.08984.0586.07422.07422.04687.10546.0586.08594.10156.04688.13281.01562.10547.04297.08594.0586-.01172.10546-.07422.07422-.17969.11719-.05859.08984-.08984.0586-.07032.07422-.07421.07421-.0625.08985-.02735.11719-.01562.1328.01562.13282-.01562.13281v.14844l.01562.13281.02735.1172.03125.12108.07421.07422.08985.0586.08594.0586.08984.05858.11719.03125v.08594l-.10157.04688-.08984.0586-.26563.03124-.11718.02735h-.14844l-.10547.04296-.10156.04688-.0586.08984-.0625.23438-.01171.13281-.03125.1211-.01563.1328v.29298l-.01172.1328.01172.13673.01563.1328.1328.01563.13282.01172.1211.03125.08593.0586.07422.07421.04688.10547.04296.10157.01563.1328v.44532l-.01563.13281v.44532l.03125.26562.02735.11719.01562.13281.03125.11719.08594.21094.03125.26562v.14844l-.03125.11719-.02734.11718-.03125.1211-.02735.11719-.03125.11718-.03125.1211-.01171.1328-.01563.13282.08984.0586.1172-.03125.10155.01562.04688.10547-.03125.26562v.44141l-.04297.10547-.04688.10547-.04296.10156-.04297.10547-.0586.08594-.03125.12109-.04296.11719-.03125.11719-.01563.1328.01563.13282.05859.08984.10547.04688.08594.0586.05859.08593-.01172.13672-.03125.11719-.04297.10156v.44531l-.01562.13281v.14844l-.03125.11719-.04297.10547-.02735.11719-.04687.10546-.04297.10157-.03125.12109-.02734.11719-.03125.13281-.03125.11719-.02735.11719-.04297.10546-.03125.1172-.03125.12108-.01171.13282-.01563.13281v.29688l.02734.11718v.14844l.04688.39844.02734.11719.0586.08984.12109.03125h.14844l.13281-.01563.0586.08985v.11719l-.0586.08984-.08984.0586-.10157.04296-.10546.04688-.08985.05859-.08594.0586-.13671.01562-.1172-.03125-.1328-.01563-.10157.04688-.0625.08594-.01172.13671-.01562.13282-.03125.11719-.02735.11718-.01562.13281-.03125.1211v.29687l.01563.13282.03125.11718v.14844l.01171.13281v.14844l-.02734.11719-.04688.10156-.02734.1211-.03125.11718-.0586.08985-.07421.07421-.10156.04297-.10547.04688-.11719.02734-.1211.03125-.10156-.04687.0586-.08594.10547-.04688.02734-.11718.03125-.11719.02734-.1211.03125-.11718v-.14844l.01563-.13281-.03125-.11719-.04297-.10547-.10547.01563-.07422.07422-.10156.04296-.08984.0625-.07422.07422-.04297.10157-.01563.1328-.03125.1172L304.25 426l-.03125.11719-.02734.11719-.03125.12109-.02735.11719-.03125.11718-.04297.10547-.08984.0586h-.08984l-.1172-.03125-.03124-.08594.01562-.13672-.03125-.11719v-.14844l-.01171-.1328v-.14844l-.0625-.23438-.02735-.1211-.04297-.10156-.04687-.10546-.0586-.08594-.05859-.08985-.04297-.10546-.0625-.08594-.14844-.14844-.0703-.07422-.10548-.04687-.10547-.04297-.10156-.04297-.29687-.29688-.08985-.07421-.08594-.0586-.10546-.04297-.08985-.0625-.08594-.0586-.10546-.04296-.08985-.0586-.08594-.0625-.07421-.0703-.10547-.04688-.08594-.0586-.10547-.04296-.08984-.0625-.10156-.04297-.10547-.04297-.08594-.0586-.10547-.04687-.10547-.04297-.10156-.04687-.08985-.0586-.10156-.04297-.10547-.04296-.08984-.0625-.11719-.02735-.13281-.01562-.13281.01562H299.75l-.13281.01563-.11719-.03125-.08984-.0586-.07422-.07422-.08985-.05859-.10156-.04688h-.14844l-.12109-.02734-.10156-.04297-.07422-.07422-.11719-.17968-.08984-.0586-.10156-.04297-.08985-.0625-.10547-.04296-.08984-.0586-.08594-.0586-.10547-.04687-.0586-.08594-.05858-.08984-.04297-.10547-.04688-.10156-.07422-.07422-.08594-.0586-.07421-.07421-.08985-.0586-.22265-.22265-.04297-.10547-.03125-.26563.10547-.04296h.14453l.10547.04296.07421.07422.08985.0586.08594.0586.10546.04687.08985.05859.14844.14844.0703.07422.14845.14843.0625.08594.07421.07422.08594.0586.07422.07421.08985.0625.08984.0586.08594.05859.26953.17578.10156.04688.10547.04296.10156.04297.04688-.07421.05859-.08594.07422-.07422.07031-.07422.10547.04297.07422.07422.0586.08984.04296.10156.04688.10547.04296.10547.1211.02735.11719-.02735.07421-.08984.04297-.10547.0586-.08985.07422-.07421.10546-.04297.1172-.02735.1328.01172.08985.0586.14844.14843.05859.08985.04297.10547.04687.10156.04297.10547.04297.10156.10547.04688.10547.04296.13281.01563.08594-.0586.0586-.08984.07421-.07422.10547-.04297.11719.02735.10547.04687.10156.04297.10547.04297.10156.04688.17969.11718v.11719l-.01563.13281.01563.13281.01562.13672.0586.08594.10156.04688.1211.02734.11718.03125h.14844l.11719-.03125.05859-.08984.17969-.1172.05859-.08983.07422-.07422.0586-.08594.11718-.17969.17969-.11719.11719.03125.08984.0586.04297.07422-.01563.1328v.1172l.08985.05859h.14843l.13282-.01563.1328-.01171.26563-.03125.10547-.04297.11719-.03125.1211-.02735.07421-.07421.07031-.07422.0625-.08985-.01562-.10547-.04688-.10156-.10156-.04297-.10547-.01562-.11718.02734-.26563.03125h-.14844l-.07421-.07422-.08985-.0586-.11719-.03124-.11718-.02735-.13282-.01562h-.14843l-.13282.01563h-.29687l-.10547-.04688-.14844-.14844-.04297-.10156-.05859-.08984.22266-.22266.08593-.0586.10547-.04296.11719-.03125.13281-.01563.13281.01563.13672.01562.10157.04297.1328-.01172.08985-.0625.10156-.04297.0625-.08984-.04687-.10156-.08984-.0586-.1172-.03125-.10155-.04296-.0586-.08985-.0625-.08984v-.11719l.01563-.13281.10547-.04688.07421-.07031v-.1211l-.08984-.05859-.03125-.11719.08985-.05859.07421-.07422.04297-.10547.0586-.08984.04687-.10156.01563-.13281v-.14844l-.04688-.10547-.04297-.10156-.08984-.0586-.13281-.01562-.10157-.04297-.13671-.01563-.1172-.03125h-.4453l-.13282-.01562-.13281-.01172-.13281-.01563-.11719-.03125h-.14844l-.13281-.01562-.13281-.01172-.26563-.03125-.1211-.04297-.08593-.0586-.07422-.07421v-.14844l.01172-.13281.10547-.04688.10156-.04296.13281-.01563h.15235l.13281-.01562h.29297l.1211.03125.10156.04296.08984.0586.23438.0625.12109-.04688.08984-.05859.10156-.04297.13282-.01562.10547.04296.10156.04688.13281.01172.1211-.02735h.14453l.12109-.03125.11719-.02734.10547-.04687.07421-.07422.08594-.0586.14844-.14843.0586-.08594.04687-.10547.02734-.11719.01563-.10547-.10156-.04296-.08985-.0586-.11719-.03125-.10546-.04297-.08985-.0625-.07422-.08594-.07422-.07421-.10156-.04297-.10547-.04688-.10156-.04297-.0586-.08984-.04687-.10156-.08594-.21094-.0625-.08594-.05859-.08984-.07422-.07422-.08594-.0586h-.26953l-.11719.03126-.08984.05859-.10156.04297-.13281.01562-.10547-.01562-.02735-.11719-.0625-.08984-.11718-.03125-.10157-.04297-.14843-.14844-.03125-.11719-.01563-.10546.07422-.07422.17969-.1172.11719-.02733.11718-.03125.13672.01562.10156.04297.10547.04297.10156.04687.10547.04297.1172.03125.1328.01563.1172.02734.1328.01563.10547-.01563.08985-.0586-.07422-.07421-.10547-.04297-.07422-.07422-.07422-.08984-.14844-.14844-.08593-.0586-.08985-.05859-.07422-.07422-.08984-.0586-.10156-.04687-.1211-.02734-.10156-.04688-.10547-.04296-.11719-.03125-.10156-.04297-.1211-.03125h-.14843l-.11719.03125-.10546.04297-.08594.0625-.17969.11718-.08594.0586-.08984.0586-.10547.04687-.08594.05859-.10547.04297-.10156.04297-.10547.04687-.07422.07422-.05859.08985-.0586.08593-.04687.10547-.0586.08594-.07421.07422-.13281-.01172-.1172-.03125h-.11718l-.07422.07422-.08984.0586-.07422.07421-.08984.0586-.08594.05859-.10547.04687-.10156.04297-.13672.01563-.10156-.04297-.14844-.14844-.10547-.04688h-.08594l-.10547.04688-.10156.04297-.1211.03125-.11718-.03125-.07422-.07422v-.11719l.03125-.1211.07422-.0703.0586-.08985.07421-.07422.11719-.03125.10547-.04296h.29297l.13281-.01563.13672-.01563.10156-.04296.08985-.0586.10156-.04687.08984-.0586.13281-.01171.08985.05859.13281.01172.08984-.0586.08594-.05859.10547-.04297.08984-.0586.08594-.0625.08985-.05859.14843-.14843.0586-.08594.05859-.08985.10547-.04296.13281-.01563.11719.02735.1211.03125.05859-.0586.05859-.08984.03125-.26563.02734-.11719.10547.01172.13281.01563.10157-.04297.08984-.0586.0586-.08984.07421-.07422.0586-.08984.04687-.10156.01172-.13281-.01172-.13282-.04687-.10547-.14844-.14843-.0586-.08985-.05859-.08594-.04297-.10546v-.44532l.01563-.1328v-.14845l.01172-.1328-.0586-.0586-.08984.0586-.10156-.04298-.17969-.11719-.08594-.05859-.0625-.08984-.0586-.08985-.07421-.07421-.08594-.0586-.1211.03125-.10155.01172-.10547.04688-.08594.05859-.10547.04297-.14844.14844-.08984.05859-.08594.0586-.08984.0625-.10547.04296-.13281.01563v-.1211l.10547-.04297.11718-.03125.07422-.0703.04297-.10548v-.14844l-.02734-.11718-.14844-.14844-.13281-.01563h-.14844l-.11719.03125-.10547.04297-.10156.04297-.08984.0625-.11719.02735-.07422-.07422.01172-.13281-.04297-.10157-.04297-.10547-.08984-.05859-.11719.02734-.1211.03125-.11718.03125-.10156.04297-.1211.03125-.10156.04297-.10547.04297-.08984.0586-.10156.01562v-.11719l.01562-.13281-.0586-.08985-.07421.04297-.14844.14844-.0586.08985-.07421.07421-.04688.10547-.04296.10156-.07422.07422-.0586.08985-.07422.07422-.05859.08593-.07422.07422-.08984.0625-.07422.07031-.07422.07422-.10156.01563-.13281.01562-.10547-.04296v-.1211l.14843-.14844.04297-.10156.0586-.08984.04687-.10156.04297-.10547.0586-.08985.03124-.11719.04297-.10156.03125-.1211.02735-.11718.04687-.10547.04297-.10156.04297-.10547.07422-.07031.08984-.0625.08985-.0586.10156-.04296h.29687l.26563-.03125.10547-.04297-.07422-.07422-.11719-.03125-.10547-.04297-.08984-.0586-.10156-.04687-.08985-.0586-.10156-.04296-.10547-.04297-.08984-.0625-.08594-.0586-.10547-.04296-.10156-.04297-.1211-.03125-.11718-.03125-.10157-.04297L297.5 410.25l-.10156-.04297-.08985-.0586-.04296-.10546-.01563-.13281.10156-.04297.13281-.01563.13672.01563.13282-.01563.10156-.04297.0586-.08984.01562-.10547-.08985-.0586-.07421-.07421-.10157-.04297-.08984-.0586-.14844-.14843-.04297-.10547-.01562-.13281v-.29297l-.0586-.08985-.08984-.05859-.07422-.07422-.04297-.10547-.03125-.11718-.0586-.08985-.07421-.07422-.11719-.02734-.07422-.07422-.08984-.0586-.08984-.0625-.08594-.05859-.07422-.07421-.0586-.08594-.04687-.10547-.08594-.0586-.14843-.14843-.19532-.0586-.1328.01563-.10157.04297-.07422.07422-.04688.10156-.04296.10547-.0586.08984-.0586.08594-.29687.29687-.08984.0586h-.08594l-.0625-.08594-.04297-.10547.03125-.11719.0586-.08984.02734-.11719-.01172-.13281-.08984-.0625-.10547.04688-.11719.02734-.11719.03125-.26953.17578-.10156.04688-.11719.02734-.10546.04687-.08985.0586-.10156.04297-.0586-.08594-.04687-.10547.01563-.13281.04687-.10547.07031-.07422.07422-.07031.0586-.08985v-.14843l-.04297-.10547h-.23829l-.10156.04687-.03125.11719-.02734.11719-.03125.1211-.07422.04296-.13281.01563-.07422-.04688-.04297-.10156-.04297-.10547-.04687-.10156-.04297-.10547-.1211.03125-.10156.04297-.13281.01562-.11719.03125-.10547.04297-.08984.0586-.10156.04687-.1211.02734-.13281.01563-.10156-.04297-.0586-.08985-.04687-.10546-.04297-.10157-.04297-.10546v-.1172l.0586-.08984.08593-.05859.17969-.11719.10156-.04687.10547-.04297.10547-.0586.10156-.04296.08985-.0625.10156-.04297.10547-.0586.10156-.04687.08984-.0586.10547-.04296.10156-.04297.08985-.0625.10156-.04297.13672-.01563.11719.03125.10156.04297.1211.03125.10156.04297.10546.04688.10157.04296.10547.04297.10156.04688.10547.04297.10156.04297.10547.04687.08594.0586.10546.04296.1172.03125.10546.04297.10156.04688.08985.0586.10547.04296.10156.04297.10547.04687.11719.02735.10156.04687.1211.02735h.14843l.08594-.0586.01562-.10156.0586-.08984-.02735-.1172-.07422-.07421-.11719-.17969-.07421-.07422-.08985-.07421-.17969-.1172-.08593-.05859-.10547-.04296-.10156-.04688-.26954-.17578-.05859-.08985-.07422-.07421-.0586-.08985-.04296-.10156-.03125-.11719-.01563-.13672v-.5625l-.01171-.1328-.01563-.13282-.03125-.11719-.01562-.13281-.01172-.13281-.03125-.1211-.22266-.22265-.0586-.08594-.01562-.10547.03125-.11719.13281-.01562v-91.41406H172.9922v1.45312l-.0586.23438-.35156 1.05078-.17187.52343-.1172.34766-.17577.41016-.11719.17187-.23438.29297-.23046.0586h-.35157l-.11718.05859-.23047.40625v.29297l.11719.17578.23046.23047.1172.23437.64062.75781.29297.46485.17578.23437.23047.35156.23437.34766.64063.8164.17578.46485.17187.41016.11719.69531.17578.46875.11719 1.39844.0586.46484v.875l.11718 1.04688v4.78125l-.0586.46484-.35156 1.28125-.17578.52344-.11328.41015-.35156.9297L172.93359 336l-.23437.58203-.11719.17578-.17187.34766-.17578.40625-.35157.8164-.0586.29297-.11327.29297-.11719.28906-.0586.17579-.11718.875-.0586.40625-.05859.11718-.0586.17579-.05859.17187-.23047.52734-.11718.17188v.23437l-.11719.23438-.0586.17187-.17577.58594v.28906l-.0586.17579v.29296l-.0586.11329-.05859.52734v.17187l-.05468.23438v2.6211l-.17578.8164-.1172.17578-.17577.23438-.1172.17187-.11327.23438-.58594.93359-.23047.28906-.29297.46485-.17578.23437-.28906.35156-.35156.69922-.11328.23047-.17579.41016-.17578.23046-.40625.52735-.8164.69922-.29297.17187-.28906.23438-.17579.11719-.17578.17578-.52344.40625-.52734.17578-.17187.17578-.23438.05469-.64062.17578h-.75782m12.21094 31.02344l-1.07422.44921.35938.89454 1.25-.71485.44531-.53906-.98047-.08985"/><path fill="#d3d3d3" fill-opacity="0" fill-rule="evenodd" d="M201.50781 416.59766h-.89453l.44922.6289.98047.35938.80469-.08985.4453-.98828-.17577.08985-.71485-.35547-.89453.35547m154.6211 59.0703l-.0586-.52343v-.29297l.11328-.29297.0586-.23046.46875-.46875h.11328l.11719-.11329.11718-.05859h.17579l.23437-.0586h.34766l.23437.0586.11719.0586.23047.17187.0586.17578.11718.58203v.29297l-.11719.17578-.17187.28906-.17579.17579-.52734.52343-.23047.23438-.11719.0586h-.17578l-.11718-.0586-.40625-.29297-.17579-.11719-.11718-.0586-.0586-.11327-.05468-.1172m6.64062-10.95702l-.0586-.17188v-1.10937l.0586-.17188.17578-.0586.17188-.05858h.17578l.23437-.0586.1172.0586.05858.69921-.05859.17188-.11719.17578-.11718.0586-.23438.52343-.11328.0586h-.23438l-.05859-.1172m9.61328-14.39062l-.11719-.17578v-.69922l.29297-.875.1172-.17187.17577-.35156.11328-.23047.1172-.29297.35155-.75781.1172-.23047.17187-.23438h.17578l.11719-.0586h.64062l.11719.0586.23437.23438.17188.11328.35156.29297.11719.11718.11328.17579v.11328l.11719.05859.11718.11719v.69922l-.05859.17578v.23047l-.0586.17578-.34765 1.05078-.11719.23047-.11719.23437-.11718.0586-.23047.23437-.64063.28906h-.875l-.41015-.11718-.64063-.46485"/><path fill="none" stroke="#bebebe" stroke-linecap="round" stroke-linejoin="round" stroke-miterlimit="10" stroke-width=".5" d="M467.95703 311.69531H144.02734v168.625h323.9297v-168.625"/><g clip-path="url(#a)"><path fill="#fff" fill-opacity="0" fill-rule="evenodd" d="M144 475.89063v4.4375h.0039H144V311.67188h.0039H144v164.21875"/></g><g clip-path="url(#b)"><path fill="#fff" fill-opacity="0" fill-rule="evenodd" d="M144.0039 480.32813V311.67188h48.81641V456.3203l-2.39453 1.8164 2.39453 1.32032 2.34375-1.32031-2.34375-1.8164V311.67187H467.9961v168.65625H144.00391"/></g><path fill="#50fcfc" fill-rule="evenodd" d="M192.82031 459.45703l-2.39453-1.32031 2.39453-1.8164 2.34375 1.8164-2.34375 1.32031"/><g clip-path="url(#c)"><path fill="#fff" fill-opacity="0" fill-rule="evenodd" d="M467.9961 480.32813H468V311.67188h-.0039H468v168.65625h-.0039"/></g><g clip-path="url(#d)"><path fill="none" stroke="#000" stroke-linecap="round" stroke-linejoin="round" stroke-miterlimit="10" stroke-width=".5" d="M147.4414 481.04688l-6.8828-1.4336"/></g><g clip-path="url(#e)"><path fill="none" stroke="#000" stroke-linecap="round" stroke-linejoin="round" stroke-miterlimit="10" stroke-width=".5" d="M147.4414 481.04688l.6836 2.35546"/></g><g clip-path="url(#f)"><path fill="none" stroke="#000" stroke-linecap="round" stroke-linejoin="round" stroke-miterlimit="10" stroke-width=".5" d="M160.78906 480.86719l-6.94531-1.07813"/></g><g clip-path="url(#g)"><path fill="none" stroke="#000" stroke-linecap="round" stroke-linejoin="round" stroke-miterlimit="10" stroke-width=".5" d="M160.78906 480.86719l.80469 2.3164"/></g><g clip-path="url(#h)"><path fill="none" stroke="#000" stroke-linecap="round" stroke-linejoin="round" stroke-miterlimit="10" stroke-width=".5" d="M174.09766 480.90625l-6.9336-1.15625"/></g><g clip-path="url(#i)"><path fill="none" stroke="#000" stroke-linecap="round" stroke-linejoin="round" stroke-miterlimit="10" stroke-width=".5" d="M174.09766 480.90625l.77734 2.32813"/></g><g clip-path="url(#j)"><path fill="none" stroke="#000" stroke-linecap="round" stroke-linejoin="round" stroke-miterlimit="10" stroke-width=".5" d="M173.08594 480.73828l.39062 1.16406"/></g><g clip-path="url(#k)"><path fill="none" stroke="#000" stroke-linecap="round" stroke-linejoin="round" stroke-miterlimit="10" stroke-width=".5" d="M187.35547 481.17188l-6.82031-1.6875"/></g><g clip-path="url(#l)"><path fill="none" stroke="#000" stroke-linecap="round" stroke-linejoin="round" stroke-miterlimit="10" stroke-width=".5" d="M187.35547 481.17188l.59766 2.3789"/></g><g clip-path="url(#m)"><path fill="none" stroke="#000" stroke-linecap="round" stroke-linejoin="round" stroke-miterlimit="10" stroke-width=".5" d="M186.36328 480.92578l.30078 1.1914"/></g><g clip-path="url(#n)"><path fill="none" stroke="#000" stroke-linecap="round" stroke-linejoin="round" stroke-miterlimit="10" stroke-width=".5" d="M200.73828 480.83594l-6.95312-1.01563"/></g><g clip-path="url(#o)"><path fill="none" stroke="#000" stroke-linecap="round" stroke-linejoin="round" stroke-miterlimit="10" stroke-width=".5" d="M200.73828 480.83594l.82422 2.3125"/></g><g clip-path="url(#p)"><path fill="none" stroke="#000" stroke-linecap="round" stroke-linejoin="round" stroke-miterlimit="10" stroke-width=".5" d="M199.72656 480.6875l.41016 1.15625"/></g><g clip-path="url(#q)"><path fill="none" stroke="#000" stroke-linecap="round" stroke-linejoin="round" stroke-miterlimit="10" stroke-width=".5" d="M214.08203 480.52344l-7.01562-.39063"/></g><g clip-path="url(#r)"><path fill="none" stroke="#000" stroke-linecap="round" stroke-linejoin="round" stroke-miterlimit="10" stroke-width=".5" d="M214.08203 480.52344l1.03125 2.22656"/></g><g clip-path="url(#s)"><path fill="none" stroke="#000" stroke-linecap="round" stroke-linejoin="round" stroke-miterlimit="10" stroke-width=".5" d="M213.0625 480.46484l.51563 1.1172"/></g><g clip-path="url(#t)"><path fill="none" stroke="#000" stroke-linecap="round" stroke-linejoin="round" stroke-miterlimit="10" stroke-width=".5" d="M227.25 481.35938l-6.71875-2.0625"/></g><g clip-path="url(#u)"><path fill="none" stroke="#000" stroke-linecap="round" stroke-linejoin="round" stroke-miterlimit="10" stroke-width=".5" d="M240.64063 481.0586l-6.8711-1.46094"/></g><g clip-path="url(#v)"><path fill="none" stroke="#000" stroke-linecap="round" stroke-linejoin="round" stroke-miterlimit="10" stroke-width=".5" d="M240.64063 481.0586l.67968 2.35937"/></g><g clip-path="url(#w)"><path fill="none" stroke="#000" stroke-linecap="round" stroke-linejoin="round" stroke-miterlimit="10" stroke-width=".5" d="M253.91406 481.2461l-6.78515-1.83204"/></g><g clip-path="url(#x)"><path fill="none" stroke="#000" stroke-linecap="round" stroke-linejoin="round" stroke-miterlimit="10" stroke-width=".5" d="M253.91406 481.2461l.54688 2.39062"/></g><g clip-path="url(#y)"><path fill="none" stroke="#000" stroke-linecap="round" stroke-linejoin="round" stroke-miterlimit="10" stroke-width=".5" d="M267.24219 481.1836l-6.8164-1.70704"/></g><g clip-path="url(#z)"><path fill="none" stroke="#000" stroke-linecap="round" stroke-linejoin="round" stroke-miterlimit="10" stroke-width=".5" d="M266.2539 480.9336l.29298 1.1914"/></g><g clip-path="url(#A)"><path fill="none" stroke="#000" stroke-linecap="round" stroke-linejoin="round" stroke-miterlimit="10" stroke-width=".5" d="M280.64063 480.73047l-6.98047-.80469"/></g><g clip-path="url(#B)"><path fill="none" stroke="#000" stroke-linecap="round" stroke-linejoin="round" stroke-miterlimit="10" stroke-width=".5" d="M279.625 480.61328l.44922 1.14453"/></g><g clip-path="url(#C)"><path fill="none" stroke="#000" stroke-linecap="round" stroke-linejoin="round" stroke-miterlimit="10" stroke-width=".5" d="M293.73438 481.6211l-6.53516-2.58204"/></g><g clip-path="url(#D)"><path fill="none" stroke="#000" stroke-linecap="round" stroke-linejoin="round" stroke-miterlimit="10" stroke-width=".5" d="M292.78125 481.2461l.14063 1.21874"/></g><g clip-path="url(#E)"><path fill="none" stroke="#000" stroke-linecap="round" stroke-linejoin="round" stroke-miterlimit="10" stroke-width=".5" d="M304.80469 480.32813l-.01953-.19922-.0586-.19141-.09375-.17578-.46094-.3789-.1914-.0586-.19922-.01953-.19922.01953-.1914.0586-.46094.3789-.09375.17578-.0586.1914-.01953.19923.01953.19921.0586.19141.09375.17969.46094.375.1914.0586.19922.01952.19922-.01953.1914-.0586.46094-.375.09375-.17968.0586-.1914.01953-.19922"/></g><g clip-path="url(#F)"><path fill="none" stroke="#000" stroke-linecap="round" stroke-linejoin="round" stroke-miterlimit="10" stroke-width=".5" d="M315.85938 477.03906l2.47265 6.57813"/></g><g clip-path="url(#G)"><path fill="none" stroke="#000" stroke-linecap="round" stroke-linejoin="round" stroke-miterlimit="10" stroke-width=".5" d="M327.49219 478.3711l5.83594 3.91406"/></g><path fill="none" stroke="#000" stroke-linecap="round" stroke-linejoin="round" stroke-miterlimit="10" stroke-width=".5" d="M328.34375 478.9414l.125-1.21874"/><g clip-path="url(#H)"><path fill="none" stroke="#000" stroke-linecap="round" stroke-linejoin="round" stroke-miterlimit="10" stroke-width=".5" d="M340.83594 478.33203l5.78125 3.99219"/></g><path fill="none" stroke="#000" stroke-linecap="round" stroke-linejoin="round" stroke-miterlimit="10" stroke-width=".5" d="M340.83594 478.33203l.28125-2.4375"/><g clip-path="url(#I)"><path fill="none" stroke="#000" stroke-linecap="round" stroke-linejoin="round" stroke-miterlimit="10" stroke-width=".5" d="M354.16406 478.3125l5.7539 4.03516"/></g><path fill="none" stroke="#000" stroke-linecap="round" stroke-linejoin="round" stroke-miterlimit="10" stroke-width=".5" d="M354.16406 478.3125l.30078-2.4375"/><g clip-path="url(#J)"><path fill="none" stroke="#000" stroke-linecap="round" stroke-linejoin="round" stroke-miterlimit="10" stroke-width=".5" d="M367.41016 478.41797l5.89453 3.82422"/></g><path fill="none" stroke="#000" stroke-linecap="round" stroke-linejoin="round" stroke-miterlimit="10" stroke-width=".5" d="M367.41016 478.41797l.21093-2.44531"/><g clip-path="url(#K)"><path fill="none" stroke="#000" stroke-linecap="round" stroke-linejoin="round" stroke-miterlimit="10" stroke-width=".5" d="M380.63281 478.5664l6.07813 3.52735"/></g><path fill="none" stroke="#000" stroke-linecap="round" stroke-linejoin="round" stroke-miterlimit="10" stroke-width=".5" d="M380.63281 478.5664l.08985-2.45312"/><g clip-path="url(#L)"><path fill="none" stroke="#000" stroke-linecap="round" stroke-linejoin="round" stroke-miterlimit="10" stroke-width=".5" d="M393.48438 480.0664l7.0039.52735"/></g><g clip-path="url(#M)"><path fill="none" stroke="#000" stroke-linecap="round" stroke-linejoin="round" stroke-miterlimit="10" stroke-width=".5" d="M393.48438 480.0664l-.98829-2.25"/></g><g clip-path="url(#N)"><path fill="none" stroke="#000" stroke-linecap="round" stroke-linejoin="round" stroke-miterlimit="10" stroke-width=".5" d="M394.5039 480.14063l-.49609-1.1211"/></g><g clip-path="url(#O)"><path fill="none" stroke="#000" stroke-linecap="round" stroke-linejoin="round" stroke-miterlimit="10" stroke-width=".5" d="M406.78906 480.40625l7.02344-.15625"/></g><g clip-path="url(#P)"><path fill="none" stroke="#000" stroke-linecap="round" stroke-linejoin="round" stroke-miterlimit="10" stroke-width=".5" d="M406.78906 480.40625l-1.19922-2.14063"/></g><g clip-path="url(#Q)"><path fill="none" stroke="#000" stroke-linecap="round" stroke-linejoin="round" stroke-miterlimit="10" stroke-width=".5" d="M420.9414 478.05078l5.35157 4.55469"/></g><path fill="none" stroke="#000" stroke-linecap="round" stroke-linejoin="round" stroke-miterlimit="10" stroke-width=".5" d="M420.9414 478.05078l.52735-2.39453"/><g clip-path="url(#R)"><path fill="none" stroke="#000" stroke-linecap="round" stroke-linejoin="round" stroke-miterlimit="10" stroke-width=".5" d="M435.9375 476.96094l1.98828 6.73828"/></g><path fill="none" stroke="#000" stroke-linecap="round" stroke-linejoin="round" stroke-miterlimit="10" stroke-width=".5" d="M435.9375 476.96094l1.75-1.71875"/><g clip-path="url(#S)"><path fill="none" stroke="#000" stroke-linecap="round" stroke-linejoin="round" stroke-miterlimit="10" stroke-width=".5" d="M449.33594 476.9375l1.82422 6.78516"/></g><path fill="none" stroke="#000" stroke-linecap="round" stroke-linejoin="round" stroke-miterlimit="10" stroke-width=".5" d="M449.33594 476.9375l1.78906-1.67578"/><g clip-path="url(#T)"><path fill="none" stroke="#000" stroke-linecap="round" stroke-linejoin="round" stroke-miterlimit="10" stroke-width=".5" d="M462.07813 477.14453l2.96484 6.3711"/></g><path fill="none" stroke="#000" stroke-linecap="round" stroke-linejoin="round" stroke-miterlimit="10" stroke-width=".5" d="M462.07813 477.14453l1.47656-1.96094"/><g clip-path="url(#U)"><path fill="none" stroke="#000" stroke-linecap="round" stroke-linejoin="round" stroke-miterlimit="10" stroke-width=".5" d="M147.48438 467.46484l-6.96875-.90234"/></g><path fill="none" stroke="#000" stroke-linecap="round" stroke-linejoin="round" stroke-miterlimit="10" stroke-width=".5" d="M147.48438 467.46484l.86328 2.29688m12.4375-2.20313l-6.94141-1.08984m6.9414 1.08984l.80079 2.32032m12.5-2.23829l-6.91406-1.2539m6.91406 1.2539l.75 2.33594m12.5039-2.05469l-6.78906-1.8164m6.78906 1.8164l.55078 2.39063m12.82813-2.6836l-6.91797-1.23046m6.91797 1.23047l.7539 2.33593m12.53516-2.20703l-6.86719-1.48828m6.8672 1.48828l.66796 2.35938m12.66797-2.46094l-6.90625-1.28516m6.90625 1.28516L228.07813 470m12.64062-2.96484l-7.02734-.04297m6.0039.03906l.57031 1.08594m13.50782-2.42969l-6.50781 2.65234m5.5625-2.26562l.9414.78516m13.46094-.7461l-6.79297 1.80078m5.80469-1.53906l.83594.89844m13.21093-1.84375l-6.27734 3.16797m5.36328-2.70703l1.0039.71093m12.9961-1.5586l-5.82031 3.94142m4.97265-3.3672l1.08594.57423m12.0586-2.14063l-3.78125 5.92578m3.23046-5.0625l1.22266.09766m11.26172-1.47266l-1.01953 6.94922m.8711-5.9414l1.15624-.41016m10.07422-.1836l3.44531 6.1211m-2.94531-5.23047l.66406-1.03516m11.79297.375l4.16406 5.66016m-3.55859-4.83594l.53125-1.10547m13.70703-.35937l1.10547 6.9414m-1.10547-6.9414l1.96094-1.47656m10.13672 1.91406l3.54297 6.0664m-3.54297-6.0664l1.28906-2.08984m10.89844 3.13671L386.5664 469m-4.94922-3.39453l.13672-1.21875m11.89453 1.53125l6.67578 2.1914m-6.67578-2.1914l-.41797-2.41797m13.5625 3.70703l7.01562-.38672m-7.01562.38672l-1.26953-2.10156m14.58984 2.19922l7.0039-.58203m-7.0039.58203l-1.32422-2.0625m17.5586-1.6914l1.16796 6.92577m-1.16796-6.92578l1.9453-1.4961M450.20704 463.5l.07813 7.02734m-.07813-7.02734l2.15625-1.17578m-2.14453 2.19922l1.07813-.58985m11.25-.28515l2.02734 6.73047m-2.02735-6.73047l1.7422-1.72656m-1.44532 2.70703l.8711-.86328"/><g clip-path="url(#V)"><path fill="none" stroke="#000" stroke-linecap="round" stroke-linejoin="round" stroke-miterlimit="10" stroke-width=".5" d="M147.47266 454.23047l-6.94532-1.0664"/></g><path fill="none" stroke="#000" stroke-linecap="round" stroke-linejoin="round" stroke-miterlimit="10" stroke-width=".5" d="M147.47266 454.23047l.80859 2.3164m12.30078-1.55468l-6.53125-2.58985m6.53125 2.58985l.26953 2.4414m13.19531-2.91406l-6.83203-1.64453m6.83203 1.64453l.61329 2.3789m12.65625-2.20702l-6.7422-1.98438m6.7422 1.98438l.49218 2.40625m12.71875-2.10938l-6.53515-2.58203m6.53515 2.58203l.27735 2.4414m13.22656-3.10155l-6.91406-1.25782m6.91406 1.25782l.7461 2.33593m12.59765-2.52343l-6.96875-.88672m6.96875.88672l.8711 2.29687m12.47265-2.64844l-7.02734-.17969m6.0039.15235l.54688 1.09765m13.60156-2.29687l-6.64844 2.27344m5.6836-1.9414l.89453.83593m12.96094-2.01563l-5.79688 3.96875m4.95313-3.39453l1.08593.57032m13.09766-1.10938l-5.84766 3.89844m5.84766-3.89844l2.16015 1.16406m11.10157-1.23828l-5.74219 4.04688m5.74219-4.04688l2.1914 1.10547m10.54297-1.75l-4.57812 5.33203m4.57812-5.33203l2.39453.53906m10.76563-.66015l-4.26953 5.57812m4.26953-5.57812l2.42187.40234m10.96094-.35156l-4.40625 5.47265m4.40625-5.47265l2.41016.46093m-3.05078.33594l1.20703.23047m12.39844-1.27344l-3.70704 5.96875m3.70704-5.96875l2.44921.16407m9.8047-.60547l-1.58204 6.84765m1.58203-6.84765l2.3711-.63282m9.59765.58985l1.11328 6.9375m-1.11328-6.9375l1.95703-1.48047m-1.79687 2.48828l.98047-.73828m10.15234.8125l5.15625 4.77344m-5.15625-4.77344l.625-2.3711m12.48438 2.61329l5.5664 4.28906m-5.5664-4.28906l.41015-2.41797m.39844 3.04297l.20703-1.21094m13.34375-.32422l3.47656 6.10938m-3.47656-6.10938l1.3164-2.07422m-.80859 2.96094l.65625-1.03516m13.57422-.29687l.6289 7m-.6289-7l2.05469-1.33984m12.63281 1.48828l-2.11328 6.70312m2.11328-6.70312l2.41406-.44532m11.7461.84375l-3.80469 5.90625m3.80469-5.90625l2.44531.20313m-3 .65625l1.22266.10156m11.64062-1.40625l-1.78906 6.79688m1.78906-6.79688l2.38672-.5625m-2.64844 1.55078l1.19531-.28125"/><g clip-path="url(#W)"><path fill="none" stroke="#000" stroke-linecap="round" stroke-linejoin="round" stroke-miterlimit="10" stroke-width=".5" d="M147.51172 440.44922l-7.02344-.1289"/></g><path fill="none" stroke="#000" stroke-linecap="round" stroke-linejoin="round" stroke-miterlimit="10" stroke-width=".5" d="M147.51172 440.44922l1.11328 2.1875m12.14063-1.59375l-6.90235-1.32031m6.90234 1.3203l.72657 2.34376m11.96094-.91016l-5.64454-4.1836m5.64453 4.1836l-.36328 2.42578m13.8711-2.71484l-6.03125-3.60547m6.03125 3.60547l-.125 2.44922m13.91015-3.82422l-6.97265-.85938m6.97265.85938l.87891 2.29297m12.4375-2.30469l-6.97656-.83594m6.97656.83594l.88672 2.28906m-1.90234-2.41015l.4453 1.14453m13.91016-1.3125l-7.02343-.2539m7.02343.2539l1.07032 2.20703m12.17578-3.02734l-6.88672 1.38672m6.88672-1.38672l1.5586 1.89453m10.96483-3.50781l-5.30468 4.60937m5.30469-4.60937l2.29296.8828m11.22266-.6289l-5.70313 4.10547m4.8711-3.50781l1.10156.53906m11.76172-2.23047l-3.13672 6.28906m2.67969-5.375l1.22656-.03125m13.97656.4297l-5.99609 3.66796m5.1211-3.13672l1.05859.625m12.66797-1.75781l-5.07032 4.86719m5.07032-4.8672l2.33203.76563m9.86328-1.54687l-2.83203 6.42969m2.83203-6.4297l2.44531-.17968m-2.85547 1.11719l2.44532-.1836m12.3164-.05468l-4.90625 5.03125m4.90625-5.03125l2.35547.6875m-3.07031.04687l2.35547.6875m11.48437-1.59375l-4.52734 5.375m4.52734-5.375l2.40235.51563m-3.0586.26562l1.19922.25781m12.77344-1.03906l-4.52735 5.375m4.52735-5.375l2.39844.51563m-3.0586.26562l2.39844.51563m10.32812-1.97266l-2.03125 6.72656m2.03125-6.72656l2.41016-.47656M371.07813 438l2.40625-.47656m8.48046-.21094l3.41407 6.14063m-3.41407-6.14063l1.33594-2.0586m13.32031 1.63673l.73047 6.98828m-.73047-6.98828l2.03516-1.3711m-1.92969 2.38672l1.01953-.6875m14.11329.01563l-3.1172 6.29687m3.1172-6.29688l2.45312-.0703m-2.90625.98827l2.45313-.0703m-2.90625.98437l1.22656-.03516m13.96094-1.08984l-5.05079 4.88672m5.05079-4.88672l2.33593.7539m-3.07031-.04297l2.33594.75391m10.48437-2.28906l-2.58984 6.53125m2.58984-6.53125l2.4375-.27344m-2.8125 1.22266l2.4375-.26953m11.65235-.4922l-3.39063 6.15626m3.39063-6.15625l2.45312.03906m-2.94531.85938l1.22656.01562m12.71485-.83594l-3.66016 6"/><g clip-path="url(#X)"><path fill="none" stroke="#000" stroke-linecap="round" stroke-linejoin="round" stroke-miterlimit="10" stroke-width=".5" d="M465.39063 437.38281l2.44921.14453"/></g><g clip-path="url(#Y)"><path fill="none" stroke="#000" stroke-linecap="round" stroke-linejoin="round" stroke-miterlimit="10" stroke-width=".5" d="M147.50781 426.88672l-7.01562.36328"/></g><path fill="none" stroke="#000" stroke-linecap="round" stroke-linejoin="round" stroke-miterlimit="10" stroke-width=".5" d="M147.50781 426.88672l1.26172 2.10547m12.00781-2.51953l-6.92578 1.1914m6.92578-1.1914l1.50391 1.9414m11.85938-1.45312l-7.02344.21484m7.02344-.21484l1.21875 2.1289m12.03906-1.36328l-6.90625-1.3164m6.90625 1.3164l.72656 2.34375m12.39844-1.69531L194 425.76172m6.52344 2.61328l.26562 2.4375m-1.21484-2.82031l.13281 1.22265m14.33203-1.55078l-6.92578-1.1914m6.92578 1.1914l.76563 2.33203m12.36719-1.67187l-6.5625-2.51172m6.5625 2.51172l.30078 2.4375m13.22656-3.32031l-6.98828-.7461m6.98828.7461l.91406 2.27734m11.6836-4.80469l-5.55079 4.3086m4.7422-3.6797l1.12108.5m12.26172-1.83593l-4.07422 5.72266m3.48438-4.89063l1.21484.16016m14.16407 2.0664l-7.01563-.39453m5.99219.33594l.51562 1.11719m12.46875-4.03125l-4.3125 5.55078m3.6875-4.74219l1.20703.21094m12.90235-.8789l-4.64844 5.26952m4.64844-5.26953l2.38672.57032m10.73437-.73047l-4.26172 5.58984m4.26172-5.58984l2.42188.39843m-3.04297.41797l2.42187.39453m10.94922-1.5625l-3.13281 6.29297m3.13281-6.29297l2.45313-.0625m-2.90625.98047l1.22656-.03515m13-.60547l-4.05078 5.73828m4.05078-5.73828l2.4375.30469m-3.02344.52734l1.21485.15625m13.92968.58984l-6.53515 2.58203m6.53515-2.58203l1.8672 1.59375m-2.81642-1.21875l1.8672 1.59375m-2.82032-1.21484l.9336.79297m13.76562-2.44531l-5.4961 4.3789m5.4961-4.3789l2.25.97656m-3.05078-.33985l2.25.97657m11.2539-2.21094l-4.27734 5.57422m4.27734-5.57422l2.42188.40234m-3.04297.40625l2.42188.40625m-3.04297.40625l2.41796.40625m11.64454-2.34765l-3.28516 6.21484m3.28516-6.21484l2.45312-.0039m-2.92969.91015l2.45313-.00782m-2.9336.91016l1.22657-.0039m13.26953-1.67579l-3.73047 5.95703m3.73047-5.95703l2.44531.17578m-2.98828.69141l2.44531.17578m-2.98828.6914l2.44531.17188m11.35157-2.20703l-2.52344 6.5586m2.52344-6.5586l2.43359-.29687m-2.80078 1.25l2.4336-.29688m-2.80079 1.2539l1.21875-.14843m11.6211-1.9961l-.10547 7.02735m.10546-7.02734l2.1836-1.11719m-2.19922 2.14062l2.1836-1.12109m-2.19923 2.14453l1.09375-.5625m12.92579-1.40625l-1.45313 6.875m1.45313-6.875l2.35937-.67969m-2.57031 1.6797l2.35937-.6797m-2.5703 1.6797l1.17968-.33985m13.07031-1.51172l-2.48047 6.57422m2.48047-6.57422l2.4336-.3125m-2.79297 1.26953l1.21484-.15625"/><g clip-path="url(#Z)"><path fill="none" stroke="#000" stroke-linecap="round" stroke-linejoin="round" stroke-miterlimit="10" stroke-width=".5" d="M147.4961 413.39063l-6.9922.72656"/></g><path fill="none" stroke="#000" stroke-linecap="round" stroke-linejoin="round" stroke-miterlimit="10" stroke-width=".5" d="M147.4961 413.39063l1.36718 2.03515m-2.38672-1.92969l.6875 1.01954m13.60156-1.41797l-6.90234 1.30859m6.90234-1.3086l1.53516 1.91407m11.57031-2.60938l-6.48437 2.70313m6.48437-2.70313l1.89844 1.5547m11.6211.48827L180.5 413.0625m6.89063 1.38281l.70312 2.34766m12.64063-2.51953l-6.94922-1.03906m6.94922 1.03906l.8203 2.3125m12.51173-2.44922l-6.98438-.76563m6.98438.76563l.91015 2.27734m7.4375-5.84765l2.95313 6.375m14.20312-.58985l-4.73047-5.19922m4.73047 5.19922l-.82812 2.3125m15.07812-6.11718l-6.59765 2.41406m6.59765-2.41406l1.82813 1.63671m-2.78906-1.28515l.91406.8164m13.51953-.58203l-6.91406 1.23828m6.91406-1.23828l1.51562 1.92969m-2.51953-1.7461l.75781.96485m13.35938-1.85156l-6.51172 2.64844m6.51172-2.64844l1.88281 1.57422m-2.83203-1.1875l1.88281 1.57422m11.27735-3.41797l-4.30078 5.55859m4.30078-5.5586l2.41797.41798m-3.04688.39062l1.21094.21094m13.91406.64844l-6.66406 2.22656m6.66406-2.22656l1.77734 1.6875m10.98829-2.71875l-5.56641 4.28906m5.5664-4.28906l2.23438 1.01171m-3.04297-.39062l1.11719.50781m12.54297-1.625l-4.63672 5.28125m4.63672-5.28125l2.38672.5664m-3.0625.20313l2.38672.5625m11.72265-1.22265l-4.875 5.05859m4.875-5.0586l2.35938.67579m-3.0664.0625l2.35546.67578m12.6211.20703l-6.78516 1.82031m6.78515-1.82031l1.67578 1.79297m-2.66015-1.52735l.83594.89844m13.38671-1.41797l-6.6328 2.32813m6.6328-2.32813l1.8047 1.66407m-2.76954-1.32422l1.80469 1.66406m12.1914-2.61328l-6.0664 3.54687m6.0664-3.54687l2.08985 1.28906m-2.97266-.77344l2.08985 1.28907m-2.97266-.77344l1.04687.64453m13.71485-2.13672l-5.42578 4.46875m5.42578-4.46875l2.26562.9375m-3.05468-.28906l2.26562.9414m11.17188-2.21093l-4.09375 5.71094m4.09375-5.71094l2.43359.32422m-3.02734.5039l2.42968.32813M424 410.26172l-.76953 6.98437M424 410.26172l2.28125-.91016m-2.39063 1.92578l2.27735-.90625m10.57812-.125l.3711 7.01563m-.3711-7.01563l2.10157-1.26562m-2.04688 2.28516L438.90234 410m12.3125.375l-1.9375 6.7539m1.9375-6.7539l2.40235-.50781m-2.6836 1.49219l2.40235-.50782m11.88672-.19531l-3.32032 6.19531m3.32032-6.19531l2.45312.00781m-2.9375.89453l1.22656.00391"/><g clip-path="url(#aa)"><path fill="none" stroke="#000" stroke-linecap="round" stroke-linejoin="round" stroke-miterlimit="10" stroke-width=".5" d="M147.39063 399.52344l-6.78125 1.82812"/></g><path fill="none" stroke="#000" stroke-linecap="round" stroke-linejoin="round" stroke-miterlimit="10" stroke-width=".5" d="M147.39063 399.52344l1.67968 1.79297m-2.66406-1.52735l.83594.89844m13.46875-1.15234l-6.79297 1.80468m6.79297-1.80468l1.66797 1.80078m11.76172-1.03906l-7.01954.28125m7.01953-.28125l1.23829 2.11718m11.83593-.6914l-6.53906-2.56641m5.58984 2.1914l.14063 1.21876m10.83984 1.38671l.02735-7.02734m12.83984 6.9961l.92578-6.96485m16.32031 2.91016l-6.9375 1.14062m6.9375-1.14062l1.48438 1.95312m11.86719-1.11719l-7.00781-.52734m7.0078.52735l.98438 2.24609m-2.0039-2.32422l.49218 1.125m13.73828-2.1914l-6.80078 1.76171m6.80078-1.76172l1.66016 1.8086m-2.64844-1.55469l.82813.90625M267.22266 399.5l-6.77344 1.875m6.77344-1.875l1.6875 1.78125m-2.67578-1.50781l.84765.89062m13.57031-.5l-7.0039.54688m7.0039-.54688l1.31641 2.07031m-2.33594-1.98828l.66016 1.03516m12.98437-2.94922l-5.625 4.21094m5.625-4.21094l2.22266 1.04688m-3.03906-.4336l1.10937.52344m13.38672-.53516l-6.35156 3.01172m6.35156-3.01172l1.96875 1.46485m-2.89453-1.02735l.98438.73047m13.28515-1.10547l-6.41015 2.88282m6.41015-2.88282l1.9375 1.50391m11.125-1.96875l-5.90234 3.8125m5.90234-3.8125l2.14063 1.19531m-3-.64062l1.0703.59765m12.88282-1.45703l-5.46094 4.42188m5.46094-4.42188l2.25781.95703m10.5586-1.46093l-4.46485 5.42968m3.81641-4.63671l1.19922.24218m13.21484-.58984l-5.36718 4.53906m5.36718-4.53906l2.27735.91406m-3.0586-.2539l2.27735.91406m11.08984-2.22266l-3.91016 5.83985m3.91016-5.83985l2.4414.2461m-3.0078.60156l2.4414.25m-3.01172.60156l1.21875.125m13.66797-1.48438l-4.77734 5.15625m4.77734-5.15625l2.3711.62891m-3.06641.1211l1.1875.3164m13.40625-.35937l-5.94531 3.74609m5.9453-3.7461l2.12891 1.21876m10.35157-2.13672l-4.27735 5.57812m4.27735-5.57812l2.42187.40625m-3.04297.40625l2.41797.40625m10.58594-1.73047l-2.41016 6.60156m2.41016-6.60156l2.42969-.33985m-2.78125 1.30079L439 397.92969m12.90625-.58985l-3.3164 6.19532m3.3164-6.19532l2.45313.00782m-2.9375.89453l1.22656.0039m12.52344-.92968l-3.21875 6.24609m3.21875-6.2461l2.45312-.03515m-2.92187.9414l1.22656-.01562"/><g clip-path="url(#ab)"><path fill="none" stroke="#000" stroke-linecap="round" stroke-linejoin="round" stroke-miterlimit="10" stroke-width=".5" d="M147.26172 385.82031l-6.52344 2.60547"/></g><path fill="none" stroke="#000" stroke-linecap="round" stroke-linejoin="round" stroke-miterlimit="10" stroke-width=".5" d="M147.26172 385.82031l1.875 1.58594m-2.82422-1.20703l.9375.79297m13.22656-1.40235l-6.32422 3.06641m6.32422-3.0664l1.98047 1.4453m10.46094-2.58202l-4.57422 5.33984m4.57422-5.33985l2.39453.53516m9.71484-1.20703l-2.16797 6.6836m2.16797-6.6836l2.41797-.42578m10.82813.40234l-2.02344 6.73047m1.72656-5.75l1.20313-.24219m14.64844 3.95313l-6.50782-2.65235m6.50781 2.65235l.25 2.4414m-1.1953-2.82812l.125 1.22266m14.36718-1.72266l-6.96875-.8789m6.96875.8789l.875 2.29297m-1.88672-2.42188l.4336 1.14844m13.8789-.89844l-6.9375-1.12109m6.9375 1.1211l.79297 2.3203m-1.80469-2.48437l.79297 2.32031m13.48828-1.92968l-6.84765-1.57422m6.84765 1.57422l.63672 2.37109m-1.63281-2.59766l.63672 2.3672m13.7461-2.57032l-6.9922-.71485m6.9922.71485l.92577 2.27344m-1.94531-2.37891l.92578 2.27344m13.42188-2.66016l-7.01953.26953m7.01953-.26953l1.23437 2.1211m-2.2539-2.08204l1.23437 2.1211m13.0586-2.58985l-6.9375 1.12891m6.9375-1.1289l1.48437 1.95702m-2.49219-1.79296l1.48438 1.95312m12.8125-2.25781l-6.88282 1.41015m6.88282-1.41015l1.5625 1.89062m-2.5625-1.6875l1.5625 1.89063m12.70312-2.3086l-6.78516 1.83985m6.78516-1.83985l1.67578 1.78907M319.5 386.47266l1.67969 1.78906m12.49218-2.44531l-6.52343 2.61328m6.52343-2.61328l1.875 1.58203m-2.82421-1.20313l1.875 1.58203m12.39062-1.95703l-6.52344 2.60938m6.52344-2.60938l1.875 1.58203m-2.82422-1.20312l.9375.78906m13.34375-1.125l-6.5586 2.51953m6.5586-2.51953l1.85156 1.60547m-2.80468-1.23828l1.85156 1.60547m-2.8086-1.23828l.9297.80078m14.11718-1.92578l-6.20312 3.30078m6.20312-3.30078l2.03516 1.37109m-2.9375-.89063l2.03515 1.3711m-2.9375-.89063l1.01953.6875m13.51172-2.45703l-5.02343 4.91797m5.02343-4.91797l2.33594.7461m-3.0664-.03125l2.33593.74609m11.92578-1.21484l-5.45703 4.42578m5.45703-4.42578l2.26172.95703m-3.05469-.3125l2.25782.95703m11.6836-1.79297l-5.1211 4.8086m5.1211-4.8086l2.3203.78906m-3.0664-.08984l2.32422.78906m11.01562-2.07812l-3.67969 5.98828m3.6797-5.98828l2.44921.15625M424.92187 385l1.22266.07813m12.83203-.8125l-4.08984 5.71484m4.08984-5.71485l2.4336.32422m10.86328-.33593l-4.05469 5.73828m4.05469-5.73828l2.4336.30859m10.33983-.625l-2.97265 6.3711m2.97265-6.3711l2.44922-.125m-2.8828 1.05469l1.22655-.0664"/><g clip-path="url(#ac)"><path fill="none" stroke="#000" stroke-linecap="round" stroke-linejoin="round" stroke-miterlimit="10" stroke-width=".5" d="M147.10156 372.15625l-6.20312 3.30469"/></g><path fill="none" stroke="#000" stroke-linecap="round" stroke-linejoin="round" stroke-miterlimit="10" stroke-width=".5" d="M147.10156 372.15625l2.03516 1.3711m-2.9375-.89063l1.01562.6836m13.52344-.3086l-6.84375 1.59375m6.84375-1.59375l1.61328 1.84765m11.54688-2.34375l-6.53516 2.58594m6.53516-2.58594l1.86719 1.58594m11.39062-1.71875l-6.42188 2.85156m6.42188-2.85156l1.9336 1.51172m-2.8672-1.09765l.96485.7539m13.50781-.48047l-6.8711 1.47656m6.8711-1.47656l1.58203 1.875m11.73438-1.8711l-6.8711 1.46876m6.8711-1.46875l1.57812 1.8789m11.33985.6172l-6.07813-3.52344m6.07813 3.52343l-.08985 2.45313m-.79297-2.96485l-.09375 2.45313m14.65235-2.82031l-6.80078-1.76563m6.80078 1.76563l.57031 2.38671m-1.5586-2.64453l.28516 1.19532m13.94922-.70704l-6.66406-2.22656m6.66406 2.22656l.40625 2.41797m-1.375-2.74218l.40625 2.41796m13.94922-2.33593l-6.80469-1.74219m6.8047 1.74219l.57812 2.38672m-1.56641-2.64063l.57813 2.38672m-1.57032-2.64063l.28906 1.19532m15.07813-1.04688l-6.94922-1.02344m6.94922 1.02344l.82422 2.3125m-1.83203-2.46094l.82422 2.3086m-1.83594-2.45703l.41015 1.15234m14.95704-1.58203l-7.01563.42578m7.01563-.42578l1.28125 2.09375m-2.30079-2.03125l1.28125 2.09375m12.95704-2.78906l-6.82032 1.69531m6.82032-1.69531l1.64062 1.82422m-2.63281-1.57813l1.64062 1.82422m-2.6328-1.57813l.8203.91407m14.42578-1.59766l-6.71484 2.07813m6.71484-2.07813l1.73829 1.73047m-2.71485-1.42969l1.73828 1.73047M318.5 373.375l.8711.86328m14.33984-1.63281l-6.60157 2.40625m6.60157-2.40625l1.82422 1.64062m-2.78516-1.28906l1.82422 1.64063m12.48047-1.91407l-6.65625 2.2461m6.65625-2.2461l1.78515 1.6875m-2.7539-1.35937l1.78515 1.6836m12.53516-1.90235l-6.73047 2.03125m6.73047-2.03125l1.72656 1.73828m-2.70703-1.44531l1.73047 1.74219m12.47656-2.29297l-6.55078 2.54296m6.55078-2.54296l1.85547 1.60546m-2.8086-1.23437l1.85548 1.60156m12.20312-2.41406l-6.13281 3.42969m6.13281-3.42969l2.0625 1.32422m-2.95703-.82813l2.0664 1.32813m11.82032-2.30469l-5.48828 4.39063m5.48828-4.39063l2.2539.97266m-3.05468-.33203l2.2539.96875m11.50782-1.9922l-4.77735 5.15235m4.77735-5.15234l2.37109.6289m-3.0664.1211l1.18359.3164m12.57422-1.27734l-4.27735 5.57813m4.27735-5.57813l2.42187.40625m11.2539-.08984l-4.99609 4.94531m4.9961-4.94531l2.34375.73047m10.8789-.82032l-4.80859 5.125m4.8086-5.125l2.36718.64063m-3.0664.10547l1.18359.32031m12.39062-1.41406l-3.93359 5.82031"/><g clip-path="url(#ad)"><path fill="none" stroke="#000" stroke-linecap="round" stroke-linejoin="round" stroke-miterlimit="10" stroke-width=".5" d="M465.52734 370.89844l2.44141.25781"/></g><path fill="none" stroke="#000" stroke-linecap="round" stroke-linejoin="round" stroke-miterlimit="10" stroke-width=".5" d="M464.95703 371.7461l1.21875.1289"/><g clip-path="url(#ae)"><path fill="none" stroke="#000" stroke-linecap="round" stroke-linejoin="round" stroke-miterlimit="10" stroke-width=".5" d="M147.08594 358.8125l-6.17188 3.36328"/></g><path fill="none" stroke="#000" stroke-linecap="round" stroke-linejoin="round" stroke-miterlimit="10" stroke-width=".5" d="M147.08594 358.8125l2.04687 1.34766m-2.94531-.85938l2.04688 1.35156m12.23437-1.70312l-6.3086 3.08984m6.3086-3.08984l1.98828 1.4375m-2.90625-.98828l.9961.71875m13.59765.32422l-7.02734.10156m7.02734-.10156l1.1836 2.15234m-2.20704-2.13672l.58985 1.07422m13.64844-1.86719l-6.82813 1.66016m6.82813-1.66016l1.6328 1.83203m-2.625-1.59375l.8125.91797m13.57423.0625l-6.98438-.78125m6.98438.78125l.90234 2.28125m12.21094-3.89844l-6.58203 2.45704m6.58203-2.45704l1.83594 1.625m-2.79297-1.26953l.91797.8125m13.03906 1.92579l-5.95313-3.73047m5.95313 3.73046l-.17188 2.44532M226 361.8164l-.17188 2.4453m-.6914-2.98827l-.08984 1.22265m15.3828-.60937l-6.44921-2.78906m6.44922 2.78906l.19531 2.44922m-1.13281-2.85156l.19531 2.4453m14.23438-2.55077l-6.80079-1.76954m6.80078 1.76954l.57032 2.3828m-1.5625-2.64062l.57031 2.38672m13.8125-2.51562l-6.95313-1m6.95313 1l.83203 2.3086m-1.84375-2.45313l.83203 2.30859m13.53125-2.63672l-7.02734-.05078m7.02734.05078l1.13672 2.17578m-2.16015-2.1836l1.13671 2.17579m13.19532-2.38281l-7.01563.375m7.01563-.375l1.26562 2.10547m-2.28516-2.05079l1.26563 2.10157m-2.28516-2.04688l.63282 1.05078m14.71875-1.23437l-7.00782.52734m7.00782-.52734l1.30859 2.07422m-2.32813-1.9961l1.3086 2.07422m-2.32813-2l.65625 1.03906m14.60547-1.77343l-6.82031 1.6914m6.82031-1.6914l1.63672 1.82422m-2.6289-1.57813l1.63671 1.82422m12.17578-3.1836l-5.83593 3.91798m5.83593-3.91797l2.16407 1.15625m-3.01172-.58594l2.16406 1.15625m12.10938-1.55078l-6.0547 3.5664m6.0547-3.5664l2.08984 1.28125m-2.97266-.76563l2.09375 1.28516m12.0625-1.8711l-5.97265 3.70704m5.97265-3.70704l2.1211 1.23047m-2.99219-.6914l2.1211 1.23047m-2.98829-.69141l1.0586.61719m14.05078-1.59766L367.3125 362.25m6.08594-3.51172l2.08203 1.29688m-2.96875-.78907l2.08203 1.30079m12.11328-1.82032l-6.07422 3.53516m6.07422-3.53516l2.08594 1.29297m-2.96875-.78125l2.08594 1.29297m-2.96875-.77734l1.04296.64843m14.00391-1.73437l-6.0039 3.64844m6.0039-3.64844l2.10938 1.2539m-2.98047-.72265l2.10937 1.2539m11.16016-2.78515l-4.17188 5.65234m4.17188-5.65234l2.42969.35937m-3.03516.46094l2.42578.35938m11.72266-1l-4.625 5.28906m4.625-5.28906l2.39062.5625m-3.0625.20703l1.19531.28125m12.67579-1.14844l-4.39454 5.48438m4.39454-5.48438l2.41015.45703m-3.05078.34375l1.20703.22656m13.07422-.73046l-5.04297 4.89453m5.04297-4.89454l2.33594.75391m-3.07031-.04297l1.16796.375m13.0586-.88672l-5.40235 4.4961"/><g clip-path="url(#af)"><path fill="none" stroke="#000" stroke-linecap="round" stroke-linejoin="round" stroke-miterlimit="10" stroke-width=".5" d="M466.26172 358.2461l2.27344.92968"/></g><path fill="none" stroke="#000" stroke-linecap="round" stroke-linejoin="round" stroke-miterlimit="10" stroke-width=".5" d="M465.47656 358.89844l2.26953.92969"/><g clip-path="url(#ag)"><path fill="none" stroke="#000" stroke-linecap="round" stroke-linejoin="round" stroke-miterlimit="10" stroke-width=".5" d="M147.07813 345.48438l-6.15625 3.38671"/></g><path fill="none" stroke="#000" stroke-linecap="round" stroke-linejoin="round" stroke-miterlimit="10" stroke-width=".5" d="M146.1836 345.97656l1.02734.67188m12.94922-1.53125l-5.69141 4.1211m5.6914-4.1211l2.20313 1.07812m-3.03125-.47656l1.10156.53906m13.1211-1.02734l-5.84766 3.89453m5.84766-3.89453l2.16015 1.16797m-3.01172-.60156l2.16016 1.16796m12.48438-.66406l-6.8047 1.7539m6.8047-1.7539l1.65625 1.8086m-2.64844-1.5547l.83203.90626m13.5664.10547l-6.98437-.77735m6.98438.77735l.90625 2.27734m12.41797-2.38672l-7.00391-.5586m7.0039.5586l.97657 2.25m12.14844-1.35937l-6.625-2.33594m6.625 2.33594l.36718 2.42578m-1.33203-2.76563l.36719 2.42578m-1.32813-2.76562l.1797 1.21094m14.6914.21484l-5.88672-3.83203m5.88672 3.83203l-.21485 2.44531m-.64062-3l-.21484 2.4414m-.64063-3l-.10938 1.22267m15.58204-1.09375l-6.77735-1.86329m6.77735 1.86329l.53515 2.39453m-1.52344-2.66407l.53907 2.39454m-1.52344-2.66797l.26563 1.19921m15.10156-1.02343l-6.9375-1.1289m6.9375 1.1289l.78906 2.32031m-1.80078-2.48438l.79297 2.32032m-1.80078-2.48438l.39453 1.16016m14.96484-1.01172l-6.98828-.76563m6.98828.76563l.90625 2.27734m-1.92187-2.39062l.90625 2.28125m-1.92579-2.39063l.45704 1.13672m14.91406-1.36719l-7.02735.13672m7.02735-.13671l1.1914 2.14453m-2.21484-2.125l1.19531 2.14453m13.12891-2.39844l-7 .60547m7-.60547l1.33594 2.0586m-2.35547-1.96876l1.33594 2.0586m12.86718-2.84375l-6.73828 1.9961m6.73828-1.9961l1.71875 1.75m-2.69922-1.46094l1.71875 1.75m12.23829-2.82031l-6.0586 3.5586m6.0586-3.5586l2.08984 1.28125m-2.97266-.76563l2.08985 1.28516m11.39843-2.66016l-4.64062 5.27735m4.64062-5.27735l2.38672.5664m-3.0625.20313l2.38672.56641m11.5586-1.3711l-4.55079 5.35157m4.55079-5.35156l2.39843.52343m-3.05859.25391l1.19922.26172m13.35547-.41406l-5.70703 4.09765m5.70703-4.09765l2.19922 1.08593m-3.03125-.48828l2.19921 1.08594m11.75391-1.92578l-5.32422 4.58203m5.32422-4.58203l2.28906.89062m-3.0625-.22265l2.28516.88672m-3.0586-.22266l1.14063.44531m14.21484-1.03125l-6.30859 3.08985m6.3086-3.08985l1.98828 1.4375m-2.90625-.98828l1.98828 1.4375m11.90234-2.44531l-5.625 4.20703m5.625-4.20703l2.22266 1.04297m-3.03907-.42969l2.21875 1.04297m11.45313-2.16406l-4.70313 5.22265m4.70313-5.22265l2.3789.59765m-3.0625.16406l2.37891.59375m11.91406-1.05468l-5.29296 4.6211m5.29296-4.6211l2.29297.875m-3.0625-.20313l2.29297.875m11.89453-1.42187l-5.5 4.375m5.5-4.375l2.25.97656m-3.05078-.33984l2.25.97656m12.19922-1.11328l-6.16406 3.3711"/><g clip-path="url(#ah)"><path fill="none" stroke="#000" stroke-linecap="round" stroke-linejoin="round" stroke-miterlimit="10" stroke-width=".5" d="M466.64453 345.49219l2.05078 1.34765"/></g><g clip-path="url(#ai)"><path fill="none" stroke="#000" stroke-linecap="round" stroke-linejoin="round" stroke-miterlimit="10" stroke-width=".5" d="M465.7461 345.98438l2.05077 1.34765"/></g><path fill="none" stroke="#000" stroke-linecap="round" stroke-linejoin="round" stroke-miterlimit="10" stroke-width=".5" d="M464.85156 346.47266l1.02344.67578"/><g clip-path="url(#aj)"><path fill="none" stroke="#000" stroke-linecap="round" stroke-linejoin="round" stroke-miterlimit="10" stroke-width=".5" d="M144.85938 330.45703l-1.71875 6.8125"/></g><path fill="none" stroke="#000" stroke-linecap="round" stroke-linejoin="round" stroke-miterlimit="10" stroke-width=".5" d="M144.60938 331.44922l1.1914-.29297m8.20313 1.52734l6.62109 2.35938m13.1289-2.78516l-6.25 3.21094m6.25-3.21094l2.01563 1.39844m11.1836-1.60547l-6.01563 3.625m6.01563-3.625l2.10546 1.25781m-2.98047-.73046l2.10547 1.2578m12.57422-.28906l-6.9961.63282m6.9961-.63281l1.34375 2.05468M214.08594 334l-7.02344-.27344m7.02344.27344l1.0664 2.20703m12.07813-1.25781l-6.6836-2.17188m6.6836 2.17188l.42969 2.41406m-1.39844-2.73047l.21094 1.20703m13.73047-.14453l-5.9961-3.66406m5.9961 3.66406l-.14844 2.44922m-.72266-2.98047l-.14844 2.44922m-.72656-2.98437l-.07422 1.22656m15.40625-.70703l-6.53906-2.57031m6.53906 2.5703l.28125 2.4375m-1.23047-2.8125l.28125 2.4375m-1.23437-2.8125l.14062 1.21876m15.19141-.80469l-6.76563-1.89844m6.76563 1.89844l.52344 2.39844m-1.50781-2.67188l.52343 2.39453m13.88281-2.66406l-6.98046-.8125m6.98047.8125l.89453 2.28516m-1.91016-2.40235l.44531 1.14063m13.91016-1.42969h-7.02735m7.02735 0l1.15234 2.16797m-2.17578-2.16797l.57422 1.08203m13.75781-1.23828l-7.01953.3125m7.01953-.3125l1.25 2.11328m-2.26953-2.0664l.625 1.05468m13.6875-1.3789l-6.97265.86719m6.97265-.8672l1.41016 2.00782m-2.42578-1.88281l1.41015 2.00781m12.90235-2.2539l-6.9375 1.10937m6.9375-1.10938l1.48046 1.95704m-2.48828-1.79688l.73829.98047m13.37109-1.91016l-6.50781 2.64453m6.5078-2.64453l1.88282 1.57422m-2.82812-1.1875l.9414.78516m12.65625-2.22266l-5.1836 4.7461m5.1836-4.7461l2.3125.82031m11.16797-.625l-5.51172 4.35938m5.51172-4.35938l2.2461.98438m-3.05079-.35156l2.25.98437m11.32422-2.16797l-4.42578 5.46094m4.42578-5.46094l2.41016.46875m-3.05469.32813l2.41016.46875m-3.05078.32422l2.40625.46875m12.66796-1.59375l-5.37109 4.53125m5.3711-4.53125l2.27734.91406m-3.0586-.2539l2.27735.91406m12.63672.40625l-7.0039.5664m7.0039-.5664l1.32031 2.0664m-2.33984-1.98047l.66015 1.03125m13.61328-1.53515l-6.8828 1.40625m6.8828-1.40625l1.5625 1.89453M440 332.15625l-6.13672 3.41406M440 332.15625l2.0625 1.33203m-2.95313-.83594l1.02735.66407m12.96875-1.4961l-5.71875 4.08594m5.71875-4.08594l2.19531 1.08985m-3.02734-.4961l2.19531 1.09375m-3.02734-.5l2.1953 1.09375m12.53907-2.58594l-5.23047 4.69532"/><g clip-path="url(#ak)"><path fill="none" stroke="#000" stroke-linecap="round" stroke-linejoin="round" stroke-miterlimit="10" stroke-width=".5" d="M466.17578 331.51563l2.30469.84375"/></g><path fill="none" stroke="#000" stroke-linecap="round" stroke-linejoin="round" stroke-miterlimit="10" stroke-width=".5" d="M465.41797 332.19922l2.30078.84375m-3.0625-.16016l2.30469.84375"/><g clip-path="url(#al)"><path fill="none" stroke="#000" stroke-linecap="round" stroke-linejoin="round" stroke-miterlimit="10" stroke-width=".5" d="M146.2539 317.85156l-4.5078 5.39453"/></g><path fill="none" stroke="#000" stroke-linecap="round" stroke-linejoin="round" stroke-miterlimit="10" stroke-width=".5" d="M146.2539 317.85156l2.39844.5039m-3.05468.28126l1.19922.2539m13.96093 2.36329l-6.88672-1.41016m20.10938 1.76172l-6.69922-2.11719m5.72266 1.8086l.22265 1.20703m14.23047-2.07813l-7.02344.24219m7.02344-.24219l1.22656 2.125m-2.25-2.08984l.61328 1.0625m12.76954-3.38672l-5.11328 4.82031m5.11328-4.82031l2.32422.78906m11.92578 1.21485l-6.98047.8125m6.98047-.8125l1.39453 2.01953m-2.41016-1.89844l.69531 1.00781m13.65235-.89062l-7.01563.33984m7.01563-.33984l1.25781 2.10937m-2.27734-2.0586l1.2539 2.10548m12.95313-1.02735l-6.76172-1.92187m6.76172 1.92187l.51562 2.39844m-1.5-2.67578l.51563 2.39844m13.57812-1.57813l-6.35156-3.0039m6.35156 3.0039l.11719 2.44922m-1.03906-2.88672l.11328 2.45313m14.1914-2.16407l-6.48437-2.71093m6.48438 2.71093l.22656 2.44532m-1.17188-2.83985l.22656 2.44531m14.12891-2.30859l-6.67578-2.1914m6.67578 2.1914l.42188 2.41406m-1.39063-2.73437l.20703 1.20703m14.16407-1.1914l-6.84766-1.58204m6.84766 1.58203l.6328 2.3672m-1.6289-2.59767l.3164 1.1836m14.00391-.9961l-6.86718-1.5m6.86718 1.5l.66016 2.36329m-1.66016-2.58204l.33204 1.1836m14.05468-1.92969l-7.01172.42969m7.01172-.42969l1.28516 2.09375m-2.30469-2.03125l.64063 1.04688m13.61718-1.66016l-6.85546 1.53516m6.85546-1.53516l1.59766 1.85938m-2.59766-1.63672l1.60157 1.85937M347 319.27344l-6.54687 2.54687M347 319.27344l1.85938 1.60156m-2.8125-1.23047l1.85937 1.60156m12.11719-2.55468l-5.96485 3.71093m5.96485-3.71093l2.125 1.23437m-2.99219-.6914l2.1211 1.23046m12.22656-1.48046l-6.29297 3.1289m6.29297-3.1289l1.99609 1.42578m-2.91406-.97266l1.9961 1.42969m11.58593-2.79297l-4.99219 4.94922m4.99219-4.94922l2.33984.72656m-3.0664-.00781l2.34375.72656m-3.07032-.0039l1.17188.36328m13.60547-1.79297l-5.01172 4.92578m5.01172-4.92578l2.33984.73437m-3.07031-.01953l2.33984.73828m-3.0664-.01953l1.16797.36719m14.11328-1.14063l-6.03125 3.60547m6.03125-3.60547l2.10156 1.26563m-2.98047-.74219l1.05078.63281m11.57813 3.84766l-2.89844-6.40234m2.47656 5.46875l-.75.97265m10.46485-5.63281l5.14453 4.78516m-4.39844-4.08985l.3164-1.1836m16.67188-.10937l-3.6914 5.98047m3.6914-5.98047l2.44531.15625m-2.98437.71485l2.44922.15625m11.45312-.9961l-3.79297 5.91797"/><g clip-path="url(#am)"><path fill="none" stroke="#000" stroke-linecap="round" stroke-linejoin="round" stroke-miterlimit="10" stroke-width=".5" d="M465.45703 317.58984l2.44531.19922"/></g><path fill="none" stroke="#000" stroke-linecap="round" stroke-linejoin="round" stroke-miterlimit="10" stroke-width=".5" d="M464.90625 318.44922l2.44531.19922m-2.9961.66406l2.44532.19922m-3 .66015l1.22266.10157"/><path fill="#ff3030" fill-rule="evenodd" d="M371.17969 463.21094h7.6914V453.0625h-7.6914v10.14844"/><path fill="azure" fill-rule="evenodd" d="M373.01172 454.89844h.83594v5.73828h3.1914v.74219h-4.02734v-6.48047"/><path fill="#ff3030" fill-rule="evenodd" d="M322.35938 441.01953h7.6914V430.8711h-7.6914v10.14844"/><path fill="azure" fill-rule="evenodd" d="M324.1914 432.70703h.83204v5.73828h3.19531v.73828h-4.02734v-6.47656"/><path fill="#ff3030" fill-rule="evenodd" d="M189.20703 418.82813h7.6914v-10.14844h-7.6914v10.14844"/><path fill="azure" fill-rule="evenodd" d="M191.03906 410.51172h.83594v5.74219h3.1914v.73828h-4.02734v-6.48047"/><path fill="#00f" fill-rule="evenodd" d="M224.01953 414.38672h8.61719v-10.14453h-8.61719v10.14453"/><path fill="azure" fill-rule="evenodd" d="M225.85156 406.07422h.83594v2.82422h3.28516v-2.82422h.83203v6.48047h-.83203v-2.91406h-3.28516v2.91406h-.83594v-6.48047"/><path fill="#ff3030" fill-rule="evenodd" d="M198.08203 374.4414h7.69531v-10.14452h-7.6953v10.14453"/><path fill="azure" fill-rule="evenodd" d="M199.91797 366.1289h.83203v5.7422h3.19531v.73827h-4.02734v-6.48046"/><path fill="#ffffe0" fill-rule="evenodd" d="M341.74219 395.41797h22.1836v-10.1914h-22.1836v10.1914"/><path fill-rule="evenodd" d="M345.24219 387.0586h.51172v6.29296h-.78907v-4.48828h-1.38671v-.55469l.55859-.0664.2539-.05469.22657-.08984.20312-.14063.17578-.21094.14063-.29296.10547-.39454m4.8164 0l.22657.01954.21875.05468.21093.08985.19532.12109.18359.14844.17188.17578.30078.41797.24218.4961.1797.54687.11327.57812.03906.58985-.03906.59375-.11328.58593-.17969.55078-.24218.50391-.30079.42969-.17187.17578-.1836.15625-.1953.1211-.21094.09374-.21875.05469-.22657.01953-.23046-.01953-.21875-.05469-.20704-.09375-.19921-.1211-.1836-.15624-.17187-.17578-.30079-.42969-.24218-.5039-.17969-.55079-.11328-.58594-.03906-.59375h.83593l.02735.5625.08203.50782.125.4414.16406.375.1914.30079.21094.22265.22266.13672.22656.04688.22657-.04688.22265-.13672.21094-.22265.1875-.30079.16406-.375.125-.4414.08203-.50781.03125-.5625-.03125-.5586-.08203-.5039-.125-.4336-.16406-.36719-.1875-.29296-.21094-.21094-.22265-.13281-.22657-.04688-.22656.04688-.22265.1328-.21094.21094-.1914.29297-.16407.3672-.125.43358-.08203.50391-.02735.5586h-.83593l.03906-.58985.11328-.57812.17969-.54688.24219-.4961.30078-.41796.17187-.17578.1836-.14844.19921-.1211.20704-.08984.21875-.05469.23046-.01953m5.08985 0h.50781v6.29297h-.78516v-4.48828h-1.39062v-.55469l.5625-.0664.25-.05469.23047-.08984.20312-.14063.17578-.21094.14063-.29296.10547-.39454m2.82422 2.17579h.78515l.01953-.31641.0586-.28906.10156-.25.14063-.21485.17968-.17578.22266-.1289.26562-.07813.3086-.03125.23828.02344.22265.0625.20313.10156.17969.13672.14844.17578.11328.20313.07421.23828.02344.26562-.01953.26563-.0664.22656-.10938.1914-.15625.17188-.20313.16016-.24609.16796-.63281.38672-.53906.31641-.4375.3164-.34375.32423-.26563.33593-.1914.35156-.125.3672-.06641.39452-.02344.41797h4.21485v-.73828h-3.33594l.08594-.28515.11328-.23829.14843-.19921.1875-.1797.23047-.17187.27735-.17578.71875-.41797.41406-.20312.34375-.23438.28125-.25.22265-.26562.16016-.27735.11328-.28515.0625-.28516.01953-.28125-.03906-.38281-.1211-.34766-.1914-.3086-.25-.26171-.30078-.21484-.34766-.15625-.3789-.10157-.40625-.03125-.4336.03125-.39843.09766-.35547.16797-.30469.23437-.25.3047-.1836.375-.11718.4453-.03906.51954"/><path fill="#ffffe0" fill-rule="evenodd" d="M217.46875 336.89453h22.17969v-10.19531h-22.17969v10.19531"/><path fill-rule="evenodd" d="M220.96875 328.53516h.50781v6.29296h-.78515v-4.48828h-1.38672v-.55468l.5586-.06641.25-.05469.23046-.08984.20313-.14063.17578-.21093.14062-.29297.10547-.39453m4.8125 0l.23047.01562.21875.0586.20703.08984.19922.1211.1836.14843.17187.17578.30078.41797.24219.4961.17968.54296.11328.58203.03907.58985-.03906.59375-.11329.58203-.17968.55469-.2422.5039-.30077.42578-.17188.1797-.1836.15624-.19921.1211-.20703.09375-.21875.05468-.23047.01953-.22656-.01953-.21875-.05469-.21094-.09375-.19531-.12109-.1836-.15625-.17187-.17969-.30078-.42578-.24219-.5039-.17969-.5547-.11328-.58202-.03906-.59375h.83594l.02734.5625.08203.50781.125.4414.16406.375.19141.30079.20703.22265.22266.13672.22656.04688.22656-.04688.22266-.13672.21094-.22265.1914-.30078.16406-.375.125-.44141.08204-.50781.02734-.5625-.02734-.5625-.08203-.5-.125-.4336-.16407-.36718-.1914-.29297-.21094-.21094-.22266-.13281-.22656-.04688-.22656.04688-.22266.13281-.20703.21094-.1914.29297-.16407.36718-.125.4336-.08203.5-.02734.5625h-.83594l.03906-.58985.11328-.58203.17969-.54297.24219-.49609.30078-.41797.17187-.17578.1836-.14844.19531-.1211.21094-.08983.21875-.0586.22656-.01562m5.09375 0h.50781v6.29296h-.78515v-4.48828h-1.39063v-.55468l.5625-.06641.25-.05469.23047-.08984.20313-.14063.17578-.21093.14062-.29297.10547-.39453m2.82422 2.17578h.78516l.01953-.3164.05859-.28907.10156-.25.14063-.21875.17969-.17188.22265-.1289.26563-.08203.30859-.02735.23828.02344.22266.0625.20312.10156.17969.13672.14844.17578.11328.20313.07422.23828.02344.26172-.02344.26953-.0625.22656-.11328.1914-.15235.17188-.20312.16016-.2461.16797-.6328.38672-.53907.3125-.4375.3203-.34766.32423-.26172.33594-.1914.34765-.125.3711-.07031.39453-.01954.41796h4.21094v-.73828h-3.33203l.08594-.28515.11328-.23828.14844-.19922.1875-.1836.23047-.16796.27734-.17579.71875-.41796.41406-.20704.34375-.23046.28125-.25.21875-.26563.16406-.28125.11328-.28125.0625-.28516.01954-.28125-.03907-.3828-.12109-.34767-.1914-.30859-.25-.26562-.30079-.21094-.34765-.16016-.37891-.09765-.40625-.03125-.4336.03125-.39843.09765-.35547.16797-.30469.23438-.25.30468-.1836.375-.11718.44532-.03906.51953"/><path fill="#ffffe0" fill-rule="evenodd" d="M321.51563 343.60547h22.17968v-10.1914h-22.17969v10.1914"/><path fill-rule="evenodd" d="M325.01563 335.2461h.5078v6.29687h-.78515v-4.49219h-1.39062v-.55469l.5625-.0664.25-.05078.23046-.08985.20313-.14453.17578-.20703.14063-.29688.10546-.39453m4.8125 0l.23047.01954.21875.05468.20704.08985.19921.12109.1836.14844.17187.17578.30078.42187.2422.4922.17968.54687.11328.57812.03516.59375-.03516.58985-.11328.58593-.17969.55469-.24219.5-.30078.42969-.17187.17969-.1836.15234-.19921.125-.20704.08984-.21875.0586-.23046.01953-.22657-.01953-.22265-.0586-.20704-.08984-.1953-.125-.1836-.15235-.17188-.17968-.30078-.42969-.2461-.5-.17968-.55469-.10937-.58594-.03907-.58984h.83204l.03125.5625.08203.5039.125.44532.16406.3711.1875.30077.21094.22266.22265.13672.22656.04688.22657-.04688.22265-.13672.21094-.22265.1914-.30079.16407-.37109.125-.44531.08203-.5039.02735-.5625-.02735-.5625-.08203-.5-.125-.4375-.16406-.36329-.1914-.29297-.21095-.21484-.22265-.13281-.22656-.04297-.22657.04296-.22265.13282-.21094.21484-.1875.29297-.16406.36328-.125.4375-.08204.5-.03125.5625h-.83203l.03907-.59375.10937-.57812.17969-.54688.2461-.49219.30077-.42187.17188-.17578.1836-.14844.1953-.1211.20704-.08984.22265-.05469.22656-.01953m5.09375 0h.50782v6.29688h-.78516v-4.49219h-1.39062v-.55469l.55859-.0664.2539-.05078.23048-.08985.20312-.14453.17188-.20703.14453-.29688.10546-.39453m6.80079 1.6211h-.78516l-.05078-.21485-.08203-.18359-.10938-.16016-.1289-.1289-.14454-.10547-.16015-.07422-.16797-.04297-.17578-.01562-.32422.03906-.28906.1211-.2461.1953-.20312.26954-.16016.33593-.11719.40625-.0703.46485-.02344.52734.1875-.20312.1875-.16016.1875-.1211.18359-.08593.1875-.0625.1914-.03516.40235-.02734.3086.03125.3203.09375.31641.15625.29297.21875.2539.28515.19923.34766.07421.20313.05079.21484.03125.23438.0039.2539-.78515.04688-.02735-.26172-.07812-.25-.125-.23438-.16016-.21094-.1914-.17578-.21876-.13671-.24218-.08985-.25391-.03125-.2539.03125-.2422.08985-.21874.13671-.19532.17579-.16015.21093-.1211.23438-.07812.25-.02735.26172.02735.2578.07812.25.1211.23438.16015.21094.19532.17578.21875.14063.24218.08594.25391.03125.2539-.03125.2422-.08594.21874-.14063.19141-.17578.16016-.21094.125-.23437.07812-.25.02735-.25781.78515-.04688-.03125.3711-.09375.37109-.15625.35937-.22265.32813-.28907.28125-.17187.1211-.1875.10156-.20703.08203-.22266.0625-.24219.03515-.25781.01563-.28516-.01563-.2578-.04687L339 341.6328l-.21484-.10547-.19532-.1289-.17578-.15625-.15234-.17969-.13672-.20313-.11719-.22265-.09765-.24219-.14844-.53515-.08203-.59375-.02735-.64063.03907-.74219.11328-.66406.1875-.57813.11719-.2539.13671-.23047.15625-.20703.16797-.1836.1875-.15625.20313-.1289.21484-.10156.23438-.07422.24609-.04297.26172-.01563.36719.03516.33203.09375.29687.15234.2539.19922.21485.24219.16406.27344.1172.30078.05859.32422"/></g></defs><use xlink:href="#an"/></svg>