<svg xmlns="http://www.w3.org/2000/svg" role="img" xmlns:xlink="http://www.w3.org/1999/xlink" viewBox="142.45 309.95 326.84 171.84"><defs><clipPath id="a"><path d="M144 311.67188h324v168.65625H144zm0 0"/></clipPath><clipPath id="b"><path d="M144 479h4v1.32813h-4zm0 0"/></clipPath><clipPath id="c"><path d="M147 479h3v1.32813h-3zm0 0"/></clipPath><clipPath id="d"><path d="M153 479h9v1.32813h-9zm0 0"/></clipPath><clipPath id="e"><path d="M160 479h3v1.32813h-3zm0 0"/></clipPath><clipPath id="f"><path d="M159 479h2v1.32813h-2zm0 0"/></clipPath><clipPath id="g"><path d="M166 479h9v1.32813h-9zm0 0"/></clipPath><clipPath id="h"><path d="M173 479h3v1.32813h-3zm0 0"/></clipPath><clipPath id="i"><path d="M172 479h3v1.32813h-3zm0 0"/></clipPath><clipPath id="j"><path d="M180 480h8v.32813h-8zm0 0"/></clipPath><clipPath id="k"><path d="M187 480h2v.32813h-2zm0 0"/></clipPath><clipPath id="l"><path d="M186 480h2v.32813h-2zm0 0"/></clipPath><clipPath id="m"><path d="M193 479h9v1.32813h-9zm0 0"/></clipPath><clipPath id="n"><path d="M200 480h3v.32813h-3zm0 0"/></clipPath><clipPath id="o"><path d="M206 479h9v1.32813h-9zm0 0"/></clipPath><clipPath id="p"><path d="M213 480h3v.32813h-3zm0 0"/></clipPath><clipPath id="q"><path d="M220 479h8v1.32813h-8zm0 0"/></clipPath><clipPath id="r"><path d="M227 480h2v.32813h-2zm0 0"/></clipPath><clipPath id="s"><path d="M233 479h8v1.32813h-8zm0 0"/></clipPath><clipPath id="t"><path d="M240 480h2v.32813h-2zm0 0"/></clipPath><clipPath id="u"><path d="M246 479h9v1.32813h-9zm0 0"/></clipPath><clipPath id="v"><path d="M253 480h3v.32813h-3zm0 0"/></clipPath><clipPath id="w"><path d="M260 479h8v1.32813h-8zm0 0"/></clipPath><clipPath id="x"><path d="M267 480h2v.32813h-2zm0 0"/></clipPath><clipPath id="y"><path d="M273 479h8v1.32813h-8zm0 0"/></clipPath><clipPath id="z"><path d="M279 480h2v.32813h-2zm0 0"/></clipPath><clipPath id="A"><path d="M286 479h9v1.32813h-9zm0 0"/></clipPath><clipPath id="B"><path d="M292 480h2v.32813h-2zm0 0"/></clipPath><clipPath id="C"><path d="M300 478h8v2.32813h-8zm0 0"/></clipPath><clipPath id="D"><path d="M313 478h8v2.32813h-8zm0 0"/></clipPath><clipPath id="E"><path d="M327 477h7v3.32813h-7zm0 0"/></clipPath><clipPath id="F"><path d="M343 476h2v4.32813h-2zm0 0"/></clipPath><clipPath id="G"><path d="M356 476h2v4.32813h-2zm0 0"/></clipPath><clipPath id="H"><path d="M369 476h3v4.32813h-3zm0 0"/></clipPath><clipPath id="I"><path d="M381 477h6v3.32813h-6zm0 0"/></clipPath><clipPath id="J"><path d="M393 478h8v2.32813h-8zm0 0"/></clipPath><clipPath id="K"><path d="M391 480h4v.32813h-4zm0 0"/></clipPath><clipPath id="L"><path d="M407 477h6v3.32813h-6zm0 0"/></clipPath><clipPath id="M"><path d="M422 476h3v4.32813h-3zm0 0"/></clipPath><clipPath id="N"><path d="M434 477h5v3.32813h-5zm0 0"/></clipPath><clipPath id="O"><path d="M449 476h3v4.32813h-3zm0 0"/></clipPath><clipPath id="P"><path d="M462 476h3v4.32813h-3zm0 0"/></clipPath><clipPath id="Q"><path d="M144 466h4v2h-4zm0 0"/></clipPath><clipPath id="R"><path d="M144 453h4v2h-4zm0 0"/></clipPath><clipPath id="S"><path d="M144 439h4v3h-4zm0 0"/></clipPath><clipPath id="T"><path d="M144 426h4v2h-4zm0 0"/></clipPath><clipPath id="U"><path d="M144 412h4v4h-4zm0 0"/></clipPath><clipPath id="V"><path d="M144 398h4v5h-4zm0 0"/></clipPath><clipPath id="W"><path d="M465 397h3v3h-3zm0 0"/></clipPath><clipPath id="X"><path d="M144 384h4v6h-4zm0 0"/></clipPath><clipPath id="Y"><path d="M465 384h3v1h-3zm0 0"/></clipPath><clipPath id="Z"><path d="M144 372h4v4h-4zm0 0"/></clipPath><clipPath id="aa"><path d="M144 359h4v3h-4zm0 0"/></clipPath><clipPath id="ab"><path d="M144 345h4v5h-4zm0 0"/></clipPath><clipPath id="ac"><path d="M144 330h2v8h-2zm0 0"/></clipPath><clipPath id="ad"><path d="M466 333h2v3h-2zm0 0"/></clipPath><clipPath id="ae"><path d="M144 317h3v7h-3zm0 0"/></clipPath><clipPath id="af"><path d="M466 318h2v3h-2zm0 0"/></clipPath><g id="ag" clip-path="url(#clip1)"><path fill="#fff" fill-opacity="0" fill-rule="evenodd" d="M0 0h1000v1000H0zm0 0"/><path fill="#d3d3d3" fill-opacity="0" fill-rule="evenodd" d="M162.15234 355.86719l-.23437.29297.0586.23437.11718.17188.17578.23437.29297.34766.11328.0586.11719-.17188.0586-.23438.17577-.17578.46485-.17578h.69922l.23437.29297.28906.8164.0586.17579.17578.23046.35156.23438.69922.69922.17188.17578.23437.34765.23438.41016.28906.58203.41015.46485.23047.23437.23438.17578.11719.23047.17578.29297.17187 1.16406v.23438l.0586.28906.05859.11719.11719.11719.34765.41015.11719.17188.17578.17578.17578.23437.11719.17188.17188.35156.05859.23438.23437.40625.23438-.0586-.17578.17578-.0586.92969h-.58203l-.23437-.11328-.34766.11328-.11719.11719-.05859.29297-.0586.17578-.11718.17187-.46484.29297-.0586.23438-.0586.11328v.64453l.0586.17187v.41016l.0586.0586v.40624l.05859.40625.11719.17579.05859.05859.23047.64062-.0586.29297v.69922l-.05859.58203v.23438l-.0586.23047-.05468.35156v1.92187l.05469.1172h.42578l-.36719.11718-.02344.35156.89063 1.16797 1.74219.53906 1.33984.35938v.53906l.08984.8086.53516.71484 1.51953.26953.89063-.08594.08984 1.16406.53516.1797 1.16015-.1797 2.05469-.98437 1.16016-.36328 1.8789-.17578 1.69531-.1797-.17968.71876-1.51563.08594-1.25.08984-.80469.26953-1.07421.8086.26953.71875.53515.89843-.17968.625-.26563.8086.26563 1.07812.625.89844.80468.17969 1.25-.1797-.26562.72267.09766.5039.05468.29297v.17188l.0586.29296v.40625l.17578.1172.35156.11718h.40625l.29297-.17578.11328-.11719.0586-.11719.11718-.23047.0586-.17578.35156-.46484.23047-.17578.17578-.0586.17578.0586.0586.17578.11718.98828.05469.46875.0586.17188.11718.23437.17578.0586.8164.05859h.28907l.11719.23437.05859.40625.0586.35156v1.10547l.11718.29297.11719.34766.28906.69922.17578.35156.58203.7539.35157.17579.17187.0586.46875.23437.64063.46484.34765.23438.29297.17578.29297.05468.23047.0625.8164.34766.29297.17578.11328.17188.35157.35156.11719.17578.52343.64063v.28906l.0586.35156v.34766l.05859.35156.0586.28906.11718.0586.17188.05859h.17578l.58203.23437.17578.1172.17578.28905.17578.23438.11328.23437.29297.23047.11719.11719v.41016l.0586.05468.28906.23438.23437.11719.0586.11718.11718.17188.0586.11719.23047.23437.05859.17578.23437.0586.1172.05859-.1172.11328-.05859.11719v.11719l-.11719.29296-.11719.28907v.58203l.17579.11719.11718.05859.0586.11719.11719.11719.11328.05859.17578.34765.0586.35157.05858.40625v.17578l-.05859.17578-.11719.69922v.17187l.1172.17579.29296.29296h.40625l.17578.1172.11719.17187.11719.29296v.23438h-.52735l-.23047-.23438h-.23437l-.17578.0586-.0586.69922.0586.34765.11719.17579.17578.41015.11718.23047.28907.46875.17578.05469h.52344l.23437.0586.75781.64062.0586.29296v.23438l.05859.0586.23047.34765v.35156l-.11719.17188v.29297l.29297.28906.29297.17578.17187.0586.29297.17577.29297.1172.58203.40624.28906.23438.29297.17578.21875.16015.01563.01172.23047.17579.64062.52343.17578.23438.1172.17578.17577.17578.11328.17188v.64062l.1172.17578.46874.11719.58203.11719.23438.05859.23047.11328.29297.11719.11328.0586.58593.35156.28907.17187.17578.0625.17578.05469.17578.0586.69922.35155.28906.17579.23438.05468.28906.17578.23437.1172.64063.40624.29297.11719.17187.0586.23438.05859.41015.05859.23047.0586.23438.11718.0586.17188-.41017.17578.46875.0586.0586.29296.11328.23438.17578.05468.23438.0586.17578.05859.40625.11719.64062.23437.11719.17188.0586.23437v.17578l-.0586.1172-.0586.40624.23438.23438.11719.05859.34766.11719.64062.23047.17578.11718.28906.1172.17578.17577.23438.46485.58203 1.10546.17578.17579.34766.17578.17578.11719.35156.11718 1.04688.52344.23437.0586.46485.11327.29297.0586.46484.17578.75781.58203.23438.23438.34765.46484.17578.17578.28907.23438.8164.69921.29297.17579.28906.28906.29297.17578.29297.28906.69531.64063.17578.17578.29297.23437.28907.23438.46875.28906.64062.58203.34766.23438.23437.29297.34766.34765.35156.46485.9336.99218.34765.40625.11719.17579.23437.05859.11328.11719.64454.17578.23047.11328.23437.0586.29297.17577.23047.1172.9336.69921.40624.40625.23438.17578.40625.17578.23437.11719.8164.34766.34766.23437.23438.11719.29297.28906.23047.11719.7578.35156.35157.17188.23047.05859.29297.11719.23437.0586.8711.17577h.8164l.46875.23047.17188.0586.875.69921.46484.1172.29297.05858.17578.0586.23047.0586.46875.05859.34766.05859.35156.0586.40625.05859h.29297l.17187.0586v.23046l.17578.17578h.29297l.34766.0586.35156.05859.69922.11719h.64063l.46484-.23438.29297-.17578.17187-.11719.41016-.17187.28906-.17578.9336-.46485.46875-.29297.52343-.29296.46485-.17188.46484-.17578 1.05078-.46485.28906-.11718.41016-.11719.28906-.11719.52735-.17578 1.51562-.69922.58203-.34765.28907-.0586.29297-.0586.34765-.11718.875-.23047.35156-.11719h.11329l.23437-.05859.875-.23437.23438-.0586h.8125l.35156-.0586.8164-.11718.17188-.0586.35156-.05468.29297-.0586.23047-.05859.8164-.17578.17579-.0586h.34765l.23438-.05859.46484-.11718.75781-.17188.23438-.0586h.34765l.41016-.11718.28906-.0586 1.28516-.05859h.28906l.41016-.0586.23047-.05858h.17578l.875-.1172h.40625l.41015-.11718h.34766l.35156-.11328.8711-.0586h1.75l1.04687.28907.41016.11719.28906.11718.35156.11719.28907.11719 1.05078.17187.28906.0586h.29297l.29297.05859.17187.0586.41016.05859.17187.0586.1172.05858h.11718l.11719.0586.35156.0586h.11328l.41016.0664 1.92187.39453 1.92578.39453 1.51953.44922 1.69532.71875 2.14453.80469 1.60547-.71875 1.42968-.80469 1.16016-1.07813 1.25-.44921 3.03516-.71875 1.875-.35938 2.14453-1.34765 2.23437-1.25391 2.5-1.25781 1.69531-.44922 1.78516-.17969 1.16016-.26953.625.53906 1.33984-.26953.71485-.98828.98437-1.34375.44531-.17969.80469-.35937 1.875-.53907 1.78516-.44921 1.25-.26954 1.16015-.08984 1.69922-.08984 1.96094-.26954 1.25-.08984h.53906l.625-.08984h.89063l2.14453-.17969 2.41015-.17969 2.58985-.08984 1.69531.17969 1.60938.08984 1.42968.35938 1.16016.71875 1.875.98828 1.16015 1.52734.26563.71484.6289.08985.35548.89844.53515.53906.53516 1.52734 1.07422.35938h.53515l-.80469.53515.08985 1.70703.71484 2.69532.89063.80468.89453.98829.71484 1.2578 1.78516.53907 1.51953-.17969.35547 1.34375 1.60937-.80469.98047-.53906.26953.26953.31641-.21484.21875-.14453.80078.44922.44922-.35938h.35547l.53515-.26953.53907-.71875.53515-.26953.625-.98828 1.16016.44922.83984.3711 1.39454.61718 1.6953-.17969h1.60548l1.78515.08985.17969-1.70704.53516-1.34375.80468.26954.4922.84765.40233.40625-.08984.53906v.35938l.71485.44922.71093-.26953h1.42969l.35938.98828.4453 1.25781.71485 1.34375 1.25.6289 1.69531.62891.71485-.17969.17969-.53906.98046-.08984.44922.35937.08594 1.25782-.26563.6289-.53515.17969v.53906l.71484.98438.26563.53906.98437.98828.80078 1.07813-.26562.35937-.08985.89844-.625 2.33203-.35546 2.0664-.08985 1.79298-.17969.71875-.08984.53906v1.4375l-.98047 1.88281-.35937 1.70703-.53516.89844-.80469 1.16797-.26562.53906 2.05469 1.2539.08593.35938-.35546.53906-.08985-.17968v.80859l.08985 1.4375-.44532.71484-1.07422.09375-.26562.71485.53515.89844.8047.71875 1.16015.80859 1.33984.26953.44531.35938-.35546.44921-1.78907-.08984-1.25-.44922-.71484-.71875-.625-.08984-.17578 3.58984-.1875 1.3086h89.35937V311.70313h-55.26953v49.08203l.76172.125 3.28906.54296 2.02344 2.83594v2.7539l2.35156.33204 2.34766.33203h4.05078l-1.3789 4.16016-2.02344.70703-2.02344.70312-.54297.34375-2.59375 1.6172-.1875.11718-2.02344-2.07813-.73046-2.74218-2.67188-2.07813-1.375-3.5-.0664-.08203-1.95704-2.67188 2.75-1.41796v-49.08204H294.42187v91.41407l.1172.03125.1328.01172.07422.07421.10547.04688.08985.0586.08593.05859.08985.0586.29687.29687.0586.08984.03125.11719.02734.11719.01563.13671-.03125.1172-.0586.08983-.0586.08594-.04296.10547-.04688.10156-.02734.1211v.14453l.17578.26953.14844.14844.07422.08594.07422.07421.04296.10547.0625.08985.0586.08593.04297.10547.0586.08985.04687.10156.04296.10547.0586.08594.11719.17968.07421.07422.0625.08594.0586.08984.04297.10547.0586.08985.05858.08593.0625.08985.0586.08984.04297.10156.11719.17969.07421.07422.0586.08594.07422.07421.08984.0586.10547.04687h.14844l.1328-.01562.13282.01562.10156-.04687.07422-.07422.04688-.10156-.01563-.13281v-.14844l-.04687-.10547-.02735-.11719-.04687-.10156-.02735-.1211-.04296-.10156-.0625-.08984-.04297-.10156-.04297-.10547-.03125-.11719-.01563-.13281-.01171-.13672.08593-.0586.0586-.08593.12109-.03125.04297.10547.01562.1328v.1172l.0586.10156.0586.08984.08983.0586.14844.14843.0586.08985.04296.10547-.01171.10156.08593.0586.10547.04687.08594.0586.08984.05858.07422.07422-.11719.02735-.10546.04687-.08594.0586-.07422.07421-.0586.08985-.0625.08594-.02734.12109-.04687.10156-.04297.10547-.03125.11719-.01172.13281-.01563.13281v.14844l.02735.11719.04687.10547.04297.10156.0586.08984.07421.07422.08985.0586.07422.07421.08984.0586.0586.08984.04296.10547.04688.10156.11719.03125.1328.01563h.14845l.11718-.03125.10547.04297.04297.10547.04688.10156.02734.1211L299.5 410l.02734.11719.03125.1211.02735.11718.10547.04297.10156.04687.13281-.01562.14844.14844.0625.08593.07422.07422.07031.07422.08984.0625.10547.04297.10156.04297.1172.03125.13671.01562.11719-.03125.07422-.07422.02734-.11718-.01172-.13282-.03125-.12109-.02734-.11719.04297-.10547h.11719l.08984.0625.11719.02735h.14843l.13282.01562h.14843l.13282.01563.1328-.01563h.14845l.1328-.01562.13282-.01172.13672.01172.11719-.02735.13281-.01562.1914-.0586-.05859.17579-.01562.1328-.02735.1211-.01562.13281-.0586.08594-.1328.01563-.10548.04687-.10546.04297-.1172.03125-.11718.02735-.26563.03125h-.14843l-.13281.01562-.07422.07422.05859.08594.14844.14843.11719.1797.07421.0703.08985.0625.08984.0586.08594.0586.08984.05858.10156.04297.10547.0625.10547.04297.08594.0586.10547.04687.10156.04297.17969.11719.0586.08984-.04298.10156-.04687.10547.01562.13281.22266.22266.0586.08985.04296.10156.03125.1211.04297.10155.01563.13282.03125.11718.01171.13672.03125.11719.14844.14844.10156.04297.10547.04296.1172.03125.1328.01563.13672.01563h.11719l.11719-.03125.08984-.0586.04297-.10547.04688-.10156.04296-.10547.03125-.11719.01172-.1328v-.14845l-.01172-.1328-.01562-.13282-.03125-.11719-.04297-.10547-.04688-.10547-.04296-.10156-.04297-.10547-.01563-.13281.01563-.13281.02734-.11719.03125-.11719.02735-.1211.04687-.10155.08984-.0586.08594-.0625.07422-.07422.08984-.05859.22266-.22266.0586-.08593.07421-.07422.11719-.17969.0586-.08594v-.14844l-.07423-.07421-.10156-.04688-.10547-.04297-.10156-.04297-.0586-.08984-.04687-.10547-.02734-.11719.08984-.05859.11719-.03125.10156-.04297.17969-.11719.14844-.14843.01172-.13282-.01172-.10546-.08985-.0586-.1328.01563h-.14845l-.1328.01562-.13282-.01562-.1211-.03125-.08593-.0586-.07422-.07422-.0586-.08984-.0625-.08594-.11718-.17969-.0586-.08593.03125-.1211.08594-.05859.1211-.03125.05859-.08594v-.1211l-.03125-.11718-.0586-.08984-.05859-.08594-.04687-.10547-.02735-.11719-.01562-.1328.0586-.08985.07421-.07422.08984-.0586.1172-.17968.07421-.07422.0586-.08594.14843-.14844.1211-.03125.1328-.01562.13282.01562.07422.07422.04297.10547.01562.13281-.03125.1172-.11719.03124-.1328.01172-.14844.14844-.04297.10547-.04688.10156-.02734.1211-.03125.11718v.14844l.03125.11719.04297.10546.05859.08985.07422.07031.07422.07422.11719.03125.12109.02734.11719-.02734.1328-.01563h.1172l.08984.0586.07422.07422.04687.10546.0586.08594.10156.04688.13281.01562.10547.04297.08594.0586-.01172.10546-.07422.07422-.17969.11719-.05859.08984-.08984.0586-.07032.07422-.07421.07421-.0625.08985-.02735.11719-.01562.1328.01562.13282-.01562.13281v.14844l.01562.13281.02735.1172.03125.12108.07421.07422.08985.0586.08594.0586.08984.05858.11719.03125v.08594l-.10157.04688-.08984.0586-.26563.03124-.11718.02735h-.14844l-.10547.04296-.10156.04688-.0586.08984-.0625.23438-.01171.13281-.03125.1211-.01563.1328v.29298l-.01172.1328.01172.13673.01563.1328.1328.01563.13282.01172.1211.03125.08593.0586.07422.07421.04688.10547.04296.10157.01563.1328v.44532l-.01563.13281v.44532l.03125.26562.02735.11719.01562.13281.03125.11719.08594.21094.03125.26562v.14844l-.03125.11719-.02734.11718-.03125.1211-.02735.11719-.03125.11718-.03125.1211-.01171.1328-.01563.13282.08984.0586.1172-.03125.10155.01562.04688.10547-.03125.26562v.44141l-.04297.10547-.04688.10547-.04296.10156-.04297.10547-.0586.08594-.03125.12109-.04296.11719-.03125.11719-.01563.1328.01563.13282.05859.08984.10547.04688.08594.0586.05859.08593-.01172.13672-.03125.11719-.04297.10156v.44531l-.01562.13281v.14844l-.03125.11719-.04297.10547-.02735.11719-.04687.10546-.04297.10157-.03125.12109-.02734.11719-.03125.13281-.03125.11719-.02735.11719-.04297.10546-.03125.1172-.03125.12108-.01171.13282-.01563.13281v.29688l.02734.11718v.14844l.04688.39844.02734.11719.0586.08984.12109.03125h.14844l.13281-.01563.0586.08985v.11719l-.0586.08984-.08984.0586-.10157.04296-.10546.04688-.08985.05859-.08594.0586-.13671.01562-.1172-.03125-.1328-.01563-.10157.04688-.0625.08594-.01172.13671-.01562.13282-.03125.11719-.02735.11718-.01562.13281-.03125.1211v.29687l.01563.13282.03125.11718v.14844l.01171.13281v.14844l-.02734.11719-.04688.10156-.02734.1211-.03125.11718-.0586.08985-.07421.07421-.10156.04297-.10547.04688-.11719.02734-.1211.03125-.10156-.04687.0586-.08594.10547-.04688.02734-.11718.03125-.11719.02734-.1211.03125-.11718v-.14844l.01563-.13281-.03125-.11719-.04297-.10547-.10547.01563-.07422.07422-.10156.04296-.08984.0625-.07422.07422-.04297.10157-.01563.1328-.03125.1172L304.25 426l-.03125.11719-.02734.11719-.03125.12109-.02735.11719-.03125.11718-.04297.10547-.08984.0586h-.08984l-.1172-.03125-.03124-.08594.01562-.13672-.03125-.11719v-.14844l-.01171-.1328v-.14844l-.0625-.23438-.02735-.1211-.04297-.10156-.04687-.10546-.0586-.08594-.05859-.08985-.04297-.10546-.0625-.08594-.14844-.14844-.0703-.07422-.10548-.04687-.10547-.04297-.10156-.04297-.29687-.29688-.08985-.07421-.08594-.0586-.10546-.04297-.08985-.0625-.08594-.0586-.10546-.04296-.08985-.0586-.08594-.0625-.07421-.0703-.10547-.04688-.08594-.0586-.10547-.04296-.08984-.0625-.10156-.04297-.10547-.04297-.08594-.0586-.10547-.04687-.10547-.04297-.10156-.04687-.08985-.0586-.10156-.04297-.10547-.04296-.08984-.0625-.11719-.02735-.13281-.01562-.13281.01562H299.75l-.13281.01563-.11719-.03125-.08984-.0586-.07422-.07422-.08985-.05859-.10156-.04688h-.14844l-.12109-.02734-.10156-.04297-.07422-.07422-.11719-.17968-.08984-.0586-.10156-.04297-.08985-.0625-.10547-.04296-.08984-.0586-.08594-.0586-.10547-.04687-.0586-.08594-.05858-.08984-.04297-.10547-.04688-.10156-.07422-.07422-.08594-.0586-.07421-.07421-.08985-.0586-.22265-.22265-.04297-.10547-.03125-.26563.10547-.04296h.14453l.10547.04296.07421.07422.08985.0586.08594.0586.10546.04687.08985.05859.14844.14844.0703.07422.14845.14843.0625.08594.07421.07422.08594.0586.07422.07421.08985.0625.08984.0586.08594.05859.26953.17578.10156.04688.10547.04296.10156.04297.04688-.07421.05859-.08594.07422-.07422.07031-.07422.10547.04297.07422.07422.0586.08984.04296.10156.04688.10547.04296.10547.1211.02735.11719-.02735.07421-.08984.04297-.10547.0586-.08985.07422-.07421.10546-.04297.1172-.02735.1328.01172.08985.0586.14844.14843.05859.08985.04297.10547.04687.10156.04297.10547.04297.10156.10547.04688.10547.04296.13281.01563.08594-.0586.0586-.08984.07421-.07422.10547-.04297.11719.02735.10547.04687.10156.04297.10547.04297.10156.04688.17969.11718v.11719l-.01563.13281.01563.13281.01562.13672.0586.08594.10156.04688.1211.02734.11718.03125h.14844l.11719-.03125.05859-.08984.17969-.1172.05859-.08983.07422-.07422.0586-.08594.11718-.17969.17969-.11719.11719.03125.08984.0586.04297.07422-.01563.1328v.1172l.08985.05859h.14843l.13282-.01563.1328-.01171.26563-.03125.10547-.04297.11719-.03125.1211-.02735.07421-.07421.07031-.07422.0625-.08985-.01562-.10547-.04688-.10156-.10156-.04297-.10547-.01562-.11718.02734-.26563.03125h-.14844l-.07421-.07422-.08985-.0586-.11719-.03124-.11718-.02735-.13282-.01562h-.14843l-.13282.01563h-.29687l-.10547-.04688-.14844-.14844-.04297-.10156-.05859-.08984.22266-.22266.08593-.0586.10547-.04296.11719-.03125.13281-.01563.13281.01563.13672.01562.10157.04297.1328-.01172.08985-.0625.10156-.04297.0625-.08984-.04687-.10156-.08984-.0586-.1172-.03125-.10155-.04296-.0586-.08985-.0625-.08984v-.11719l.01563-.13281.10547-.04688.07421-.07031v-.1211l-.08984-.05859-.03125-.11719.08985-.05859.07421-.07422.04297-.10547.0586-.08984.04687-.10156.01563-.13281v-.14844l-.04688-.10547-.04297-.10156-.08984-.0586-.13281-.01562-.10157-.04297-.13671-.01563-.1172-.03125h-.4453l-.13282-.01562-.13281-.01172-.13281-.01563-.11719-.03125h-.14844l-.13281-.01562-.13281-.01172-.26563-.03125-.1211-.04297-.08593-.0586-.07422-.07421v-.14844l.01172-.13281.10547-.04688.10156-.04296.13281-.01563h.15235l.13281-.01562h.29297l.1211.03125.10156.04296.08984.0586.23438.0625.12109-.04688.08984-.05859.10156-.04297.13282-.01562.10547.04296.10156.04688.13281.01172.1211-.02735h.14453l.12109-.03125.11719-.02734.10547-.04687.07421-.07422.08594-.0586.14844-.14843.0586-.08594.04687-.10547.02734-.11719.01563-.10547-.10156-.04296-.08985-.0586-.11719-.03125-.10546-.04297-.08985-.0625-.07422-.08594-.07422-.07421-.10156-.04297-.10547-.04688-.10156-.04297-.0586-.08984-.04687-.10156-.08594-.21094-.0625-.08594-.05859-.08984-.07422-.07422-.08594-.0586h-.26953l-.11719.03126-.08984.05859-.10156.04297-.13281.01562-.10547-.01562-.02735-.11719-.0625-.08984-.11718-.03125-.10157-.04297-.14843-.14844-.03125-.11719-.01563-.10546.07422-.07422.17969-.1172.11719-.02733.11718-.03125.13672.01562.10156.04297.10547.04297.10156.04687.10547.04297.1172.03125.1328.01563.1172.02734.1328.01563.10547-.01563.08985-.0586-.07422-.07421-.10547-.04297-.07422-.07422-.07422-.08984-.14844-.14844-.08593-.0586-.08985-.05859-.07422-.07422-.08984-.0586-.10156-.04687-.1211-.02734-.10156-.04688-.10547-.04296-.11719-.03125-.10156-.04297-.1211-.03125h-.14843l-.11719.03125-.10546.04297-.08594.0625-.17969.11718-.08594.0586-.08984.0586-.10547.04687-.08594.05859-.10547.04297-.10156.04297-.10547.04687-.07422.07422-.05859.08985-.0586.08593-.04687.10547-.0586.08594-.07421.07422-.13281-.01172-.1172-.03125h-.11718l-.07422.07422-.08984.0586-.07422.07421-.08984.0586-.08594.05859-.10547.04687-.10156.04297-.13672.01563-.10156-.04297-.14844-.14844-.10547-.04688h-.08594l-.10547.04688-.10156.04297-.1211.03125-.11718-.03125-.07422-.07422v-.11719l.03125-.1211.07422-.0703.0586-.08985.07421-.07422.11719-.03125.10547-.04296h.29297l.13281-.01563.13672-.01563.10156-.04296.08985-.0586.10156-.04687.08984-.0586.13281-.01171.08985.05859.13281.01172.08984-.0586.08594-.05859.10547-.04297.08984-.0586.08594-.0625.08985-.05859.14843-.14843.0586-.08594.05859-.08985.10547-.04296.13281-.01563.11719.02735.1211.03125.05859-.0586.05859-.08984.03125-.26563.02734-.11719.10547.01172.13281.01563.10157-.04297.08984-.0586.0586-.08984.07421-.07422.0586-.08984.04687-.10156.01172-.13281-.01172-.13282-.04687-.10547-.14844-.14843-.0586-.08985-.05859-.08594-.04297-.10546v-.44532l.01563-.1328v-.14845l.01172-.1328-.0586-.0586-.08984.0586-.10156-.04298-.17969-.11719-.08594-.05859-.0625-.08984-.0586-.08985-.07421-.07421-.08594-.0586-.1211.03125-.10155.01172-.10547.04688-.08594.05859-.10547.04297-.14844.14844-.08984.05859-.08594.0586-.08984.0625-.10547.04296-.13281.01563v-.1211l.10547-.04297.11718-.03125.07422-.0703.04297-.10548v-.14844l-.02734-.11718-.14844-.14844-.13281-.01563h-.14844l-.11719.03125-.10547.04297-.10156.04297-.08984.0625-.11719.02735-.07422-.07422.01172-.13281-.04297-.10157-.04297-.10547-.08984-.05859-.11719.02734-.1211.03125-.11718.03125-.10156.04297-.1211.03125-.10156.04297-.10547.04297-.08984.0586-.10156.01562v-.11719l.01562-.13281-.0586-.08985-.07421.04297-.14844.14844-.0586.08985-.07421.07421-.04688.10547-.04296.10156-.07422.07422-.0586.08985-.07422.07422-.05859.08593-.07422.07422-.08984.0625-.07422.07031-.07422.07422-.10156.01563-.13281.01562-.10547-.04296v-.1211l.14843-.14844.04297-.10156.0586-.08984.04687-.10156.04297-.10547.0586-.08985.03124-.11719.04297-.10156.03125-.1211.02735-.11718.04687-.10547.04297-.10156.04297-.10547.07422-.07031.08984-.0625.08985-.0586.10156-.04296h.29687l.26563-.03125.10547-.04297-.07422-.07422-.11719-.03125-.10547-.04297-.08984-.0586-.10156-.04687-.08985-.0586-.10156-.04296-.10547-.04297-.08984-.0625-.08594-.0586-.10547-.04296-.10156-.04297-.1211-.03125-.11718-.03125-.10157-.04297L297.5 410.25l-.10156-.04297-.08985-.0586-.04296-.10546-.01563-.13281.10156-.04297.13281-.01563.13672.01563.13282-.01563.10156-.04297.0586-.08984.01562-.10547-.08985-.0586-.07421-.07421-.10157-.04297-.08984-.0586-.14844-.14843-.04297-.10547-.01562-.13281v-.29297l-.0586-.08985-.08984-.05859-.07422-.07422-.04297-.10547-.03125-.11718-.0586-.08985-.07421-.07422-.11719-.02734-.07422-.07422-.08984-.0586-.08984-.0625-.08594-.05859-.07422-.07421-.0586-.08594-.04687-.10547-.08594-.0586-.14843-.14843-.19532-.0586-.1328.01563-.10157.04297-.07422.07422-.04688.10156-.04296.10547-.0586.08984-.0586.08594-.29687.29687-.08984.0586h-.08594l-.0625-.08594-.04297-.10547.03125-.11719.0586-.08984.02734-.11719-.01172-.13281-.08984-.0625-.10547.04688-.11719.02734-.11719.03125-.26953.17578-.10156.04688-.11719.02734-.10546.04687-.08985.0586-.10156.04297-.0586-.08594-.04687-.10547.01563-.13281.04687-.10547.07031-.07422.07422-.07031.0586-.08985v-.14843l-.04297-.10547h-.23829l-.10156.04687-.03125.11719-.02734.11719-.03125.1211-.07422.04296-.13281.01563-.07422-.04688-.04297-.10156-.04297-.10547-.04687-.10156-.04297-.10547-.1211.03125-.10156.04297-.13281.01562-.11719.03125-.10547.04297-.08984.0586-.10156.04687-.1211.02734-.13281.01563-.10156-.04297-.0586-.08985-.04687-.10546-.04297-.10157-.04297-.10546v-.1172l.0586-.08984.08593-.05859.17969-.11719.10156-.04687.10547-.04297.10547-.0586.10156-.04296.08985-.0625.10156-.04297.10547-.0586.10156-.04687.08984-.0586.10547-.04296.10156-.04297.08985-.0625.10156-.04297.13672-.01563.11719.03125.10156.04297.1211.03125.10156.04297.10546.04688.10157.04296.10547.04297.10156.04688.10547.04297.10156.04297.10547.04687.08594.0586.10546.04296.1172.03125.10546.04297.10156.04688.08985.0586.10547.04296.10156.04297.10547.04687.11719.02735.10156.04687.1211.02735h.14843l.08594-.0586.01562-.10156.0586-.08984-.02735-.1172-.07422-.07421-.11719-.17969-.07421-.07422-.08985-.07421-.17969-.1172-.08593-.05859-.10547-.04296-.10156-.04688-.26954-.17578-.05859-.08985-.07422-.07421-.0586-.08985-.04296-.10156-.03125-.11719-.01563-.13672v-.5625l-.01171-.1328-.01563-.13282-.03125-.11719-.01562-.13281-.01172-.13281-.03125-.1211-.22266-.22265-.0586-.08594-.01562-.10547.03125-.11719.13281-.01562v-91.41406H172.9922v1.45312l-.0586.23438-.35156 1.05078-.17187.52343-.1172.34766-.17577.41016-.11719.17187-.23438.29297-.23046.0586h-.35157l-.11718.05859-.23047.40625v.29297l.11719.17578.23046.23047.1172.23437.64062.75781.29297.46485.17578.23437.23047.35156.23437.34766.64063.8164.17578.46485.17187.41016.11719.69531.17578.46875.11719 1.39844.0586.46484v.875l.11718 1.04688v4.78125l-.0586.46484-.35156 1.28125-.17578.52344-.11328.41015-.35156.9297L172.93359 336l-.23437.58203-.11719.17578-.17187.34766-.17578.40625-.35157.8164-.0586.29297-.11327.29297-.11719.28906-.0586.17579-.11718.875-.0586.40625-.05859.11718-.0586.17579-.05859.17187-.23047.52734-.11718.17188v.23437l-.11719.23438-.0586.17187-.17577.58594v.28906l-.0586.17579v.29296l-.0586.11329-.05859.52734v.17187l-.05468.23438v2.6211l-.17578.8164-.1172.17578-.17577.23438-.1172.17187-.11327.23438-.58594.93359-.23047.28906-.29297.46485-.17578.23437-.28906.35156-.35156.69922-.11328.23047-.17579.41016-.17578.23046-.40625.52735-.8164.69922-.29297.17187-.28906.23438-.17579.11719-.17578.17578-.52344.40625-.52734.17578-.17187.17578-.23438.05469-.64062.17578h-.75782m12.21094 31.02344l-1.07422.44921.35938.89454 1.25-.71485.44531-.53906-.98047-.08985"/><path fill="#d3d3d3" fill-opacity="0" fill-rule="evenodd" d="M201.50781 416.59766h-.89453l.44922.6289.98047.35938.80469-.08985.4453-.98828-.17577.08985-.71485-.35547-.89453.35547m154.6211 59.0703l-.0586-.52343v-.29297l.11328-.29297.0586-.23046.46875-.46875h.11328l.11719-.11329.11718-.05859h.17579l.23437-.0586h.34766l.23437.0586.11719.0586.23047.17187.0586.17578.11718.58203v.29297l-.11719.17578-.17187.28906-.17579.17579-.52734.52343-.23047.23438-.11719.0586h-.17578l-.11718-.0586-.40625-.29297-.17579-.11719-.11718-.0586-.0586-.11327-.05468-.1172m6.64062-10.95702l-.0586-.17188v-1.10937l.0586-.17188.17578-.0586.17188-.05858h.17578l.23437-.0586.1172.0586.05858.69921-.05859.17188-.11719.17578-.11718.0586-.23438.52343-.11328.0586h-.23438l-.05859-.1172m9.61328-14.39062l-.11719-.17578v-.69922l.29297-.875.1172-.17187.17577-.35156.11328-.23047.1172-.29297.35155-.75781.1172-.23047.17187-.23438h.17578l.11719-.0586h.64062l.11719.0586.23437.23438.17188.11328.35156.29297.11719.11718.11328.17579v.11328l.11719.05859.11718.11719v.69922l-.05859.17578v.23047l-.0586.17578-.34765 1.05078-.11719.23047-.11719.23437-.11718.0586-.23047.23437-.64063.28906h-.875l-.41015-.11718-.64063-.46485"/><path fill="none" stroke="#bebebe" stroke-linecap="round" stroke-linejoin="round" stroke-miterlimit="10" stroke-width=".5" d="M467.95703 311.69531H144.02734v168.625h323.9297v-168.625"/><g clip-path="url(#a)"><path fill="#fff" fill-opacity="0" fill-rule="evenodd" d="M144 311.67188v168.65625h324V311.67188H144"/></g><g clip-path="url(#b)"><path fill="none" stroke="#000" stroke-linecap="round" stroke-linejoin="round" stroke-miterlimit="10" stroke-width=".5" d="M147.46094 479.71484l-6.92188 1.23047"/></g><g clip-path="url(#c)"><path fill="none" stroke="#000" stroke-linecap="round" stroke-linejoin="round" stroke-miterlimit="10" stroke-width=".5" d="M147.46094 479.71484l1.51172 1.9297"/></g><g clip-path="url(#d)"><path fill="none" stroke="#000" stroke-linecap="round" stroke-linejoin="round" stroke-miterlimit="10" stroke-width=".5" d="M160.77344 479.70313l-6.91406 1.25"/></g><g clip-path="url(#e)"><path fill="none" stroke="#000" stroke-linecap="round" stroke-linejoin="round" stroke-miterlimit="10" stroke-width=".5" d="M160.77344 479.70313l1.51953 1.92968"/></g><g clip-path="url(#f)"><path fill="none" stroke="#000" stroke-linecap="round" stroke-linejoin="round" stroke-miterlimit="10" stroke-width=".5" d="M159.76563 479.88672l.76171.96094"/></g><g clip-path="url(#g)"><path fill="none" stroke="#000" stroke-linecap="round" stroke-linejoin="round" stroke-miterlimit="10" stroke-width=".5" d="M174.13672 480.11719l-7.01563.42187"/></g><g clip-path="url(#h)"><path fill="none" stroke="#000" stroke-linecap="round" stroke-linejoin="round" stroke-miterlimit="10" stroke-width=".5" d="M174.13672 480.11719l1.28125 2.09375"/></g><g clip-path="url(#i)"><path fill="none" stroke="#000" stroke-linecap="round" stroke-linejoin="round" stroke-miterlimit="10" stroke-width=".5" d="M173.11719 480.17969l.64062 1.04687"/></g><g clip-path="url(#j)"><path fill="none" stroke="#000" stroke-linecap="round" stroke-linejoin="round" stroke-miterlimit="10" stroke-width=".5" d="M187.45703 480.35938l-7.02344-.0586"/></g><g clip-path="url(#k)"><path fill="none" stroke="#000" stroke-linecap="round" stroke-linejoin="round" stroke-miterlimit="10" stroke-width=".5" d="M187.45703 480.35938l1.13672 2.17578"/></g><g clip-path="url(#l)"><path fill="none" stroke="#000" stroke-linecap="round" stroke-linejoin="round" stroke-miterlimit="10" stroke-width=".5" d="M186.4375 480.34766l.5664 1.08984"/></g><g clip-path="url(#m)"><path fill="none" stroke="#000" stroke-linecap="round" stroke-linejoin="round" stroke-miterlimit="10" stroke-width=".5" d="M200.76953 480.47266l-7.01953-.28907"/></g><g clip-path="url(#n)"><path fill="none" stroke="#000" stroke-linecap="round" stroke-linejoin="round" stroke-miterlimit="10" stroke-width=".5" d="M200.76953 480.47266l1.0625 2.21484"/></g><g clip-path="url(#o)"><path fill="none" stroke="#000" stroke-linecap="round" stroke-linejoin="round" stroke-miterlimit="10" stroke-width=".5" d="M214.08203 480.57422l-7.01172-.48828"/></g><g clip-path="url(#p)"><path fill="none" stroke="#000" stroke-linecap="round" stroke-linejoin="round" stroke-miterlimit="10" stroke-width=".5" d="M214.08203 480.57422l.9961 2.24219"/></g><g clip-path="url(#q)"><path fill="none" stroke="#000" stroke-linecap="round" stroke-linejoin="round" stroke-miterlimit="10" stroke-width=".5" d="M227.35547 480.91016l-6.92969-1.16016"/></g><g clip-path="url(#r)"><path fill="none" stroke="#000" stroke-linecap="round" stroke-linejoin="round" stroke-miterlimit="10" stroke-width=".5" d="M227.35547 480.91016l.77734 2.32422"/></g><g clip-path="url(#s)"><path fill="none" stroke="#000" stroke-linecap="round" stroke-linejoin="round" stroke-miterlimit="10" stroke-width=".5" d="M240.70313 480.65234l-6.9961-.64843"/></g><g clip-path="url(#t)"><path fill="none" stroke="#000" stroke-linecap="round" stroke-linejoin="round" stroke-miterlimit="10" stroke-width=".5" d="M240.70313 480.65234l.94921 2.26563"/></g><g clip-path="url(#u)"><path fill="none" stroke="#000" stroke-linecap="round" stroke-linejoin="round" stroke-miterlimit="10" stroke-width=".5" d="M253.99219 480.8711l-6.9414-1.08594"/></g><g clip-path="url(#v)"><path fill="none" stroke="#000" stroke-linecap="round" stroke-linejoin="round" stroke-miterlimit="10" stroke-width=".5" d="M253.99219 480.8711l.80078 2.3203"/></g><g clip-path="url(#w)"><path fill="none" stroke="#000" stroke-linecap="round" stroke-linejoin="round" stroke-miterlimit="10" stroke-width=".5" d="M267.3086 480.85547l-6.94532-1.05469"/></g><g clip-path="url(#x)"><path fill="none" stroke="#000" stroke-linecap="round" stroke-linejoin="round" stroke-miterlimit="10" stroke-width=".5" d="M267.3086 480.85547l.8164 2.3125"/></g><g clip-path="url(#y)"><path fill="none" stroke="#000" stroke-linecap="round" stroke-linejoin="round" stroke-miterlimit="10" stroke-width=".5" d="M280.61719 480.91406l-6.92969-1.16797"/></g><g clip-path="url(#z)"><path fill="none" stroke="#000" stroke-linecap="round" stroke-linejoin="round" stroke-miterlimit="10" stroke-width=".5" d="M279.60547 480.74219l.39062 1.16406"/></g><g clip-path="url(#A)"><path fill="none" stroke="#000" stroke-linecap="round" stroke-linejoin="round" stroke-miterlimit="10" stroke-width=".5" d="M293.94531 480.82422l-6.95703-.99219"/></g><g clip-path="url(#B)"><path fill="none" stroke="#000" stroke-linecap="round" stroke-linejoin="round" stroke-miterlimit="10" stroke-width=".5" d="M292.9336 480.67969l.41406 1.15625"/></g><g clip-path="url(#C)"><path fill="none" stroke="#000" stroke-linecap="round" stroke-linejoin="round" stroke-miterlimit="10" stroke-width=".5" d="M306.99219 481.75781l-6.42188-2.85937"/></g><g clip-path="url(#D)"><path fill="none" stroke="#000" stroke-linecap="round" stroke-linejoin="round" stroke-miterlimit="10" stroke-width=".5" d="M319.94922 482.3789l-5.70703-4.09765"/></g><g clip-path="url(#E)"><path fill="none" stroke="#000" stroke-linecap="round" stroke-linejoin="round" stroke-miterlimit="10" stroke-width=".5" d="M332.89453 482.8125l-4.96875-4.96875"/></g><g clip-path="url(#F)"><path fill="none" stroke="#000" stroke-linecap="round" stroke-linejoin="round" stroke-miterlimit="10" stroke-width=".5" d="M343.92578 483.83594l-.39844-7.01563"/></g><g clip-path="url(#G)"><path fill="none" stroke="#000" stroke-linecap="round" stroke-linejoin="round" stroke-miterlimit="10" stroke-width=".5" d="M356.34375 483.77344l1.39453-6.88672"/></g><g clip-path="url(#H)"><path fill="none" stroke="#000" stroke-linecap="round" stroke-linejoin="round" stroke-miterlimit="10" stroke-width=".5" d="M369.50781 483.73828l1.69922-6.82031"/></g><g clip-path="url(#I)"><path fill="none" stroke="#000" stroke-linecap="round" stroke-linejoin="round" stroke-miterlimit="10" stroke-width=".5" d="M381.45703 483.0586l4.42969-5.45704"/></g><g clip-path="url(#J)"><path fill="none" stroke="#000" stroke-linecap="round" stroke-linejoin="round" stroke-miterlimit="10" stroke-width=".5" d="M393.92578 482.05469l6.1211-3.45313"/></g><g clip-path="url(#K)"><path fill="none" stroke="#000" stroke-linecap="round" stroke-linejoin="round" stroke-miterlimit="10" stroke-width=".5" d="M393.92578 482.05469l-2.0664-1.32031"/></g><g clip-path="url(#L)"><path fill="none" stroke="#000" stroke-linecap="round" stroke-linejoin="round" stroke-miterlimit="10" stroke-width=".5" d="M408.10156 483.0664l4.40235-5.47656"/></g><g clip-path="url(#M)"><path fill="none" stroke="#000" stroke-linecap="round" stroke-linejoin="round" stroke-miterlimit="10" stroke-width=".5" d="M422.8789 483.76563l1.47657-6.8711"/></g><g clip-path="url(#N)"><path fill="none" stroke="#000" stroke-linecap="round" stroke-linejoin="round" stroke-miterlimit="10" stroke-width=".5" d="M438.71875 483.35156l-3.57422-6.04687"/></g><g clip-path="url(#O)"><path fill="none" stroke="#000" stroke-linecap="round" stroke-linejoin="round" stroke-miterlimit="10" stroke-width=".5" d="M450.9336 483.77344l-1.375-6.89063"/></g><g clip-path="url(#P)"><path fill="none" stroke="#000" stroke-linecap="round" stroke-linejoin="round" stroke-miterlimit="10" stroke-width=".5" d="M464.45313 483.72656l-1.78125-6.79687"/></g><g clip-path="url(#Q)"><path fill="none" stroke="#000" stroke-linecap="round" stroke-linejoin="round" stroke-miterlimit="10" stroke-width=".5" d="M147.48828 466.57813l-6.97656.87109"/></g><path fill="none" stroke="#000" stroke-linecap="round" stroke-linejoin="round" stroke-miterlimit="10" stroke-width=".5" d="M147.48828 466.57813l1.41016 2.0078m11.91015-1.94921l-6.98828.7539m6.98828-.7539l1.37891 2.03125m11.92969-2.07813l-6.97656.84766m6.97656-.84766l1.40625 2.01172m11.86328-2.28906l-6.88281 1.40234m6.8828-1.40234l1.5625 1.89453m11.82032-1.40234l-7.01562.41797m7.01562-.41797l1.27734 2.09375m12.03907-1.69922l-7.01953-.3711m7.01953.3711l1.03515 2.22266m12.26953-2.10938l-7-.59766m7 .59766l.96485 2.25781m12.35547-2.32031l-7.01172-.47266m7.01172.47266l1.0039 2.23828m12.26563-1.86328l-6.92188-1.22266m6.92188 1.22266l.75781 2.33203m12.5-2.07422l-6.8086-1.73828m6.8086 1.73828l.58203 2.38672m12.59375-1.95312l-6.52734-2.60547m5.57812 2.22656l.13282 1.21875m14.27734-1.28516l-6.8164-1.71484m5.82421 1.46484l.29297 1.19141m13.875-.51172l-6.53906-2.57422m5.58594 2.19922l.14062 1.21875m13.8789-.33984l-6.04296-3.58203m5.16406 3.0625l-.05469 1.22265m13.40625.26172l-4.35546-5.51172m3.72265 4.71094l-.4961 1.1211m11.51954.35546l1.49219-6.86328m-1.27735 5.86719l-1.17968.33203m15.26171.73828l-.47265-7.01172m.40234 5.99219l-1.03906.64844m14.5039.36328l-.6328-6.9961m.54296 5.98047l-1.02734.67188m11.48828-.82422l5.25781-4.66016m-4.49219 3.98438l-1.15234-.42969m12.9961-.10937l6.66796-2.23047m-6.66797 2.23047l-1.77734-1.69141m15.45703 2.45703l5.9375-3.76172m-5.9375 3.76172l-2.13281-1.21484m21.73828-1.8086l-6.64453 2.28907m18.52344-4.11328l-3.76953 5.93359m11.76562-3.71094l6.86719 1.48828m-5.86719-1.27343l-.33203-1.1797m13.29687 3.85548l5.56641-4.29297m-4.7539 3.66797l-1.1172-.50782"/><g clip-path="url(#R)"><path fill="none" stroke="#000" stroke-linecap="round" stroke-linejoin="round" stroke-miterlimit="10" stroke-width=".5" d="M147.50781 453.52344l-7.01562.35156"/></g><path fill="none" stroke="#000" stroke-linecap="round" stroke-linejoin="round" stroke-miterlimit="10" stroke-width=".5" d="M147.50781 453.52344l1.26172 2.10547m12.0586-2.0586l-7.02344.2539m7.02344-.2539l1.22656 2.125m12.08594-2.08593l-7.02344.17968m7.02344-.17968l1.20703 2.13671m12.05859-1.45312l-6.92188-1.1914m5.91407 1.01952l.38672 1.16407m13.98047-1.3711l-7.01172-.4336m7.01172.4336l1.01562 2.23438m12.3086-2.46485l-7.02735.03125m7.02734-.03125l1.16016 2.16016m12.14063-2.46094l-7 .6289m7-.6289l1.33984 2.05469m11.67187-3.19531l-6.39453 2.91406m6.39453-2.91406l1.94532 1.49219m11.23437-1.75782l-6.125 3.44532m6.125-3.44532l2.0664 1.32422m11.61329-.3789l-6.85156 1.55468m6.85156-1.55469l1.60156 1.85547m11.67188-2.01953l-6.76954 1.88281m6.76954-1.8828l1.6914 1.77734m11.42188-2.32422l-6.36328 2.97656m5.4375-2.54297l.98047.73438m12.95703-1.69141l-5.76172 4.02344m4.92578-3.4375l1.08984.5586m13.10547-1.07813l-5.84765 3.89062m5-3.32422l1.07812.58203m11.66797-2.3789l-3.01172 6.35156m2.57422-5.42578l1.22266-.0586m14.53515 2.21485l-7.02344.1836m18.9336 2.72265l-4.21485-5.625m3.60157 4.80469l-.52344 1.11328m12.5586.40234l-.42579-7.01562m10.07813 4.17578l6.89843-1.33985m-5.89453 1.14453l-.77343-.95312m13.02734.22266l7.01172.51562m-7.01172-.51562l-.98828-2.2461m14.39844 3.34375l6.8203-1.6836m-5.82812 1.44142l-.82031-.91407m17.52734 3.6914l-1.9453-6.75m17.30468 1.57032L433.91406 455.5m6.03516-3.60547l2.09766 1.26953m11.17578-1.33203l-5.95313 3.73047m5.08985-3.1875l1.0625.61328m13.64843.55078l-7.01953.32032m6-.27344l.625 1.05469"/><g clip-path="url(#S)"><path fill="none" stroke="#000" stroke-linecap="round" stroke-linejoin="round" stroke-miterlimit="10" stroke-width=".5" d="M147.48828 440.8164l-6.97656-.86718"/></g><path fill="none" stroke="#000" stroke-linecap="round" stroke-linejoin="round" stroke-miterlimit="10" stroke-width=".5" d="M147.48828 440.8164l.875 2.29298m12.32422-1.73438l-6.74219-1.98438m6.74219 1.98438l.49219 2.40234m12.84765-2.49218l-6.79297-1.8047m5.8047 1.54298l.27734 1.19531m14.08203-1.19531l-6.90625-1.28125m6.90625 1.28125l.73828 2.33984m12.63672-2.99219l-7.02735.02344m7.02735-.02344l1.16015 2.16407M199.75 440.375l.58203 1.08203m13.71875-1.60156l-6.94922 1.0586m6.94922-1.0586l1.46484 1.96875m-2.47656-1.8164l.73047.98437m13.32813-2.04688l-6.41407 2.875m6.41407-2.875l1.9375 1.50781m-2.8711-1.08984l.96875.7539m13.02735-1.63671l-5.91016 3.80469m5.91016-3.8047l2.14062 1.19923m11.02734-1.40625l-5.61718 4.22265m5.61719-4.22265l2.22265 1.03906m11.05469-1.08984l-5.54297 4.3203m5.54297-4.3203l2.24219 1m11.30859-.66016l-6.01172 3.64062m5.13672-3.10937l1.05469.6289m13.23047-.99218l-6.19922 3.30469m5.29687-2.82422l1.01953.6875m12.90235-1.6289l-5.60938 4.22655m5.60938-4.22656l2.22656 1.03516m10.36328-1.7539l-4.16015 5.66405m4.16015-5.66406l2.42578.35547m11.8086.64453l-5.9961 3.66406m5.9961-3.66406l2.11328 1.25m-2.98828-.71484l1.05859.6211m13.08203-1.23048l-5.90234 3.8125m5.90234-3.8125l2.14453 1.19531m10.83594-1.6328l-5.23047 4.6875m5.23047-4.6875l2.30469.84374m7.75-1.95312L371 443.83594m-1.10156-5.90235l.96094-.76562m10.59375.49219l4.4375 5.44921m-4.4375-5.44921l.95312-2.26172m11.70313 2.96875l5.7539 4.03125m-5.7539-4.03125l.29687-2.4336m.53906 3.01954l.14844-1.21485m13.01172-.09765l4.39062 5.48828m-4.39062-5.48828l.97265-2.25391m18.05079 4.86328l-7.02344.26563m7.02344-.26563l1.23046 2.1211m12.08594-1.90626l-7.02734-.16015m6.0039.13672l.55079 1.09375m13.69921-.375l-6.85156-1.55078m5.85547 1.32421L453 442.1172m8.625-4.66407l3.875 5.86329m-3.3125-5.01172l.58594-1.07813"/><g clip-path="url(#T)"><path fill="none" stroke="#000" stroke-linecap="round" stroke-linejoin="round" stroke-miterlimit="10" stroke-width=".5" d="M147.49219 426.67188l-6.98438.79296"/></g><path fill="none" stroke="#000" stroke-linecap="round" stroke-linejoin="round" stroke-miterlimit="10" stroke-width=".5" d="M147.49219 426.67188l1.38672 2.02343m11.94922-1.5625l-7.02735-.1289m7.02734.1289l1.11329 2.1875m12.1289-1.52734l-6.8789-1.44922m6.8789 1.44922l.67969 2.35547m12.67188-2.57422l-6.95313-1.01172m6.95313 1.01172l.82812 2.3086m-1.83984-2.45704l.41406 1.15625m13.94531-1.36328l-7.01953-.30078m7.01953.30078l1.0586 2.21484m12.26171-2.28906l-7.02734-.15234m7.02734.15234l1.10157 2.1914m12.17578-1.76562l-6.95313-1.0039m5.9414.85937l.41407 1.15234m13.92578-1.90625l-6.98047.79688m6.98047-.79688l1.39063 2.01954m11.54297-3.25782l-6.21875 3.26953m5.3164-2.79296l1.01172.6875m13.14453-1.28125l-6.09375 3.5039m5.20703-2.99219l1.03907.65235m12.83203-1.64063l-5.4336 4.45703m4.64453-3.80859l1.12891.47266m13.48438-.28125l-6.45313 2.77734m5.51563-2.375l.95703.76953m12.79687-1.9961l-5.45312 4.42579m5.45312-4.42578l2.26172.95312m10.40235-1.57421l-4.15235 5.66796m4.15235-5.66796l2.42578.34765m10.14453-.76562l-2.66016 6.5039m2.27344-5.5586l1.21875-.12108m13.51562-.17188l-4.73046 5.19922m4.04296-4.4414l1.19141.30468m13.67188.13672l-6.44922 2.80078m5.51172-2.39062l.95703.76171m12.03125-2.6875l-3.92188 5.83204m3.92188-5.83204l2.4414.25391m7.5586-.57812l2.71093 6.48046m-2.71093-6.48046l1.55468-1.89844m16.58594 5.67969l-6.9414-1.08204m5.93359.92579l.40234 1.16015m13.8789-2.3086l-6.85937 1.52735m6.85938-1.52734l1.59375 1.86719m-2.58984-1.64454l.79687.9336m13.47656-1.3086l-6.78125 1.83204m6.78125-1.83204l1.67969 1.78907m9.55078-4.13282l-2.61328 6.51954m2.61328-6.51954l2.4414-.26562m-2.8203 1.21484l1.21875-.13281m13.10546-.48828L448.3086 430m3.875-5.86328l2.44141.23437m9.88672-.68359l-1.90234 6.76172m1.90234-6.76172l2.39844-.52344"/><g clip-path="url(#U)"><path fill="none" stroke="#000" stroke-linecap="round" stroke-linejoin="round" stroke-miterlimit="10" stroke-width=".5" d="M147.28906 412.51953l-6.57812 2.46875"/></g><path fill="none" stroke="#000" stroke-linecap="round" stroke-linejoin="round" stroke-miterlimit="10" stroke-width=".5" d="M146.33203 412.8789l.92188.8125m13.54687-.3828l-6.97266.89062m6.97266-.89063l1.41797 2m11.89063-1.05468l-6.95704-1m6.95703 1l.83204 2.30859m12.48828-2.34766l-6.96875-.92187m6.96875.92187l.85547 2.30078m12.08593-1.1289l-6.22265-3.26563m5.3164 2.78907l.00782 1.22656m14.5664-1.79688l-6.92969-1.17187m16.92579 4.09765l-.28907-7.02343m.2461 6l-1.0586.6211m14.08594.39843l.3711-7.01563m-.31641 5.9961l-1.11328.51562m17.92187-4.01953l-6.72656 2.03125m5.75-1.73828l.86328.8711m13.2461 1.34374l-6.36329-2.98437m5.4375 2.55078l.0625 1.22266m14.33594-3.38282l-6.67187 2.20313m6.67187-2.20313l1.77344 1.69532m10.46484-3.28516l-4.51953 5.38281m4.51953-5.38281l2.39844.51172m11.1875-.25781l-5.0625 4.875m4.32422-4.16797l1.16797.38281m11.52343-1.96484l-2.33984 6.625m2-5.66407l1.21094-.17968m13.09765-.47266l-3.64453 6.00781m3.11328-5.13281l1.22266.0664m13.60156-.0625l-5.60156 4.2461m5.60156-4.2461l2.22657 1.03126m11.78906.78515l-7.0039.61719m7.0039-.61719l1.33594 2.0586m11.98046-2.02344l-7.0078.54687m7.0078-.54687l1.31641 2.0664m-2.33594-1.98828l.66016 1.03516m13.39062-2.25l-6.4375 2.82031m6.4375-2.82031l1.92188 1.52344m-2.85938-1.11328l.96094.76171m13.4414-.7578L393.6172 414.75m6.73828-1.99219l1.71875 1.75m-2.69922-1.46094l.85937.875m13.5-.91406l-6.86718 1.48828m6.86718-1.48828l1.58594 1.875m-2.58594-1.65625l.79297.9375m12.60157-2.86328l-5.02735 4.90625m4.29688-4.19531l1.16797.375m10.5078-2.14453l-.28515 7.02343m.28516-7.02343l2.21094-1.0625m-2.25 2.08593l1.10546-.53125m13.78125-.0703l-3.35156 6.17968m3.35156-6.17969l2.45313.01953m10.70312-.10156l-3.03125 6.33984m3.03125-6.33984l2.44922-.10547"/><g clip-path="url(#V)"><path fill="none" stroke="#000" stroke-linecap="round" stroke-linejoin="round" stroke-miterlimit="10" stroke-width=".5" d="M146.76172 398.26953l-5.52344 4.33985"/></g><path fill="none" stroke="#000" stroke-linecap="round" stroke-linejoin="round" stroke-miterlimit="10" stroke-width=".5" d="M145.96094 398.89844l1.1211.4961m13.53515-.15235l-6.60547 2.39453m5.64453-2.04688l.91016.82422m13.38672-1.1211l-6.64454 2.29298m6.64453-2.29297l1.79297 1.67187m10.3086-3.33593l-4.21875 5.62109m3.60547-4.80469l1.21093.1875m12.59375-1.09375l-3.97265 5.79688m3.39453-4.95313l1.21875.13672m14.1211 1.16016l-6.86329 1.51562m5.86328-1.29297l.79688.9297m13.32031-1.76173l-6.46875 2.73828m6.46875-2.73828l1.90625 1.54688M240.5 399.22266l-6.58984 2.43359m6.58984-2.4336l1.83203 1.63282m-2.78906-1.28125l.91406.8164m13.50781-.64843l-6.88672 1.39062m6.88672-1.39062l1.5586 1.89844m-2.5625-1.69532l.78125.94922m13.60547-.41015l-7.02344-.09375m7.02344.09375l1.125 2.17968m-2.14453-2.1914l.55859 1.08984m13.75-.67188l-6.96875-.90234m6.96875.90235l.86328 2.29687m12.45703-3.15625l-6.98047.8164m6.98047-.8164l1.39453 2.01563m11.91016-1.13282l-6.96094-.94922m6.96094.94922l.84765 2.30078m12.5-2.75l-7.02734-.05078m6.0039.04297l.57032 1.08594m13.76172-.875l-7.01172-.45703m5.99219.39062l.5039 1.11719m12.70313-3.86719l-4.75781 5.17188m18.19921-.125l-5.01171-4.92188m4.28515 4.20703l-.34765 1.17579m15.16015-1.65235l-6.55469-2.53906m6.5547 2.53906l.29296 2.4375M387 399.32031l-6.66016 2.23828M387 399.32031l1.78516 1.6875m-2.75391-1.36328l.89063.84375m13.53125-.625l-6.9336 1.14844m6.9336-1.14844l1.48828 1.94922m-2.4961-1.78125l.74219.97266m13.54688.17578l-6.8672-1.48438m6.8672 1.48438l.66796 2.36328m12.58985-4.07813l-6.75 1.94922m5.76562-1.66797l.85547.88282m10.40625-3.6875l-.67578 6.99609m.67578-6.9961l2.26953-.9375m12.01953 1.17579l-2.625 6.51953m2.2422-5.57031l1.22265-.13282m13.82031.14454l-5.3125 4.59765"/><g clip-path="url(#W)"><path fill="none" stroke="#000" stroke-linecap="round" stroke-linejoin="round" stroke-miterlimit="10" stroke-width=".5" d="M466.21875 398.14063l2.28906.8828"/></g><g clip-path="url(#X)"><path fill="none" stroke="#000" stroke-linecap="round" stroke-linejoin="round" stroke-miterlimit="10" stroke-width=".5" d="M146.96094 385.23047l-5.92188 3.78515"/></g><path fill="none" stroke="#000" stroke-linecap="round" stroke-linejoin="round" stroke-miterlimit="10" stroke-width=".5" d="M146.96094 385.23047l2.13672 1.20703m-3-.65625l1.0703.60156m13.22267-.95703l-6.15235 3.39453m6.15234-3.39453l2.0547 1.33985m10.7578-2.03516l-5.14453 4.78515m5.14453-4.78515l2.32032.80469m10.3164-1.3711l-3.78906 5.91797m3.78906-5.91797l2.44532.19922m-2.9961.66406l1.22266.09766m12.47266-1.0625l-3.44922 6.1211m3.44922-6.1211l2.45312.0586m12.64844 3.14843l-7.01953-.29297m7.01953.29297l1.0625 2.21094m-2.08594-2.2539l1.0625 2.21484m13.17188-3.17579l-6.8125 1.71485m6.8125-1.71485l1.64453 1.82032m11.53906-2.23047l-6.55078 2.53515m6.55078-2.53515l1.85937 1.60547m-2.8125-1.23828l.9297.80468m13.36327-1.11328l-6.59765 2.41797m6.59765-2.41797l1.82813 1.63672m-2.78906-1.28515l1.82812 1.63671m12.5-1.83593l-6.70313 2.11328m6.70313-2.11328l1.75 1.71875m-2.72656-1.41016l.875.85938m13.40234-1.20313l-6.67578 2.1875m6.67578-2.1875l1.76953 1.69922m-2.73828-1.38281l.88281.85156m13.4961-.82031l-6.86719 1.48828m6.86719-1.48828l1.58594 1.875m-2.58204-1.65625l.78907.9375m13.47265-1.35938l-6.76562 1.89453m6.76562-1.89453l1.69532 1.77735m11.64453-1.6875l-6.81641 1.71484m6.8164-1.71485l1.64454 1.82032m11.45703-2.42969l-6.38672 2.9336m6.38672-2.9336l1.94922 1.48828m11.6836.0625l-7.02345-.16797m6 .14453l.55079 1.09766m13.4414.36719l-6.33203-3.05078m6.33203 3.05078l.09766 2.45312m13.5586-4.1875l-7.01563.42188m7.01562-.42188l1.28125 2.08985m-2.30078-2.03125l.64063 1.04687m13.54687-1.91797l-6.72266 2.04297m6.72266-2.04297l1.73438 1.73438m11.62109-1.59375l-6.80078 1.76172m6.80078-1.76172l1.66016 1.8086m11.76562-1.02345l-7.02344.19141m7.02344-.1914l1.21094 2.1328m11.4375-4.09765l-5.6914 4.1211m4.86327-3.51954l1.10157.53906m13.0078-1.1875l-5.62109 4.21485m5.6211-4.21485l2.22265 1.04297m11.76172 1.5586l-6.95703-.98828m5.94531.84375l.41407 1.15625m12.51562-4.33594l-4.16797 5.66015"/><g clip-path="url(#Y)"><path fill="none" stroke="#000" stroke-linecap="round" stroke-linejoin="round" stroke-miterlimit="10" stroke-width=".5" d="M465.64453 384.29297l2.42969.35937"/></g><g clip-path="url(#Z)"><path fill="none" stroke="#000" stroke-linecap="round" stroke-linejoin="round" stroke-miterlimit="10" stroke-width=".5" d="M147.27734 372.54688l-6.55468 2.52343"/></g><path fill="none" stroke="#000" stroke-linecap="round" stroke-linejoin="round" stroke-miterlimit="10" stroke-width=".5" d="M147.27734 372.54688l1.85547 1.60937m-2.8086-1.24219l1.85548 1.60938m11.4414-3.36719l-4.60937 5.30469m4.60937-5.30469l2.39063.55078m-3.0625.21875l1.19531.27735m13.4414-.29688l-5.91015 3.80469m5.91016-3.80469l2.14062 1.19922m-3-.64453l1.07031.59765m13.37891-.6328l-6.46094 2.76562m6.46094-2.76563l1.91016 1.53516m-2.85156-1.13281l1.91406 1.53515m-2.85156-1.13281L186.25 374m14.3789-1.1914l-6.73827 2m6.73828-2l1.71875 1.75m-2.69922-1.46094l1.72265 1.75m-2.70312-1.45704l.85937.875m14.53125-.92968l-6.96484.9414m6.96484-.9414l1.4297 1.9961m-2.44532-1.85548l1.4336 1.99219m12.82812-2.4961l-6.82813 1.67188m6.82813-1.67187l1.63281 1.83203m-2.6289-1.58985l.8203.91797m13.46094-1.26953l-6.76953 1.88672m6.76953-1.88672l1.69141 1.77735m-2.67578-1.5l.84375.88671m13.375-1.41015L247.21484 375m6.60938-2.38281l1.82031 1.64844m-2.78125-1.30079l.91016.82422m13.45703-.8789l-6.79297 1.79687m6.79297-1.79687l1.66797 1.79687m-2.65625-1.53515l.83593.89843m13.47657-1.13281l-6.8086 1.74219m6.8086-1.74219l1.65234 1.8125m-2.64453-1.5586l.82812.90626m13.47657-1.17188l-6.80078 1.76563m6.80078-1.76563l1.66015 1.8086m-2.64843-1.55079l.82812.90235m13.40625-1.39453l-6.66406 2.23437m6.66406-2.23437l1.78125 1.6914m-2.75-1.36719l.89063.84766m13.32812-1.34375l-6.53516 2.57813m6.53516-2.57813l1.86719 1.58985m-2.8164-1.21485l.93359.79688m13.46093-.78125l-6.79297 1.79687m6.79297-1.79687l1.66797 1.80078m11.66406-1.72266l-6.83203 1.64063m6.83203-1.64063l1.62891 1.83594m-2.6211-1.59766l.8125.91797m13.58985-.5039l-7.01953.33593m7.01953-.33594l1.2539 2.10938m-2.27343-2.0625l.625 1.05469m13.6875-1.34375l-6.97656.82031m6.97656-.82031l1.39844 2.01562m-2.41016-1.89844l.69531 1.01172m13.64453-1.0078l-7.0039.57812m7.0039-.57813l1.32813 2.0664m-2.34766-1.98046l.66407 1.03125m13.67578-.61719l-7.01172-.42578m7.01172.42578l1.01953 2.23438m-2.03906-2.29688l.5078 1.11719m13.60938-.02344l-6.57422-2.48437m6.57422 2.48437l.3125 2.4336m13.01563-2.47657l-6.60547-2.39844m5.64453 2.05079l.17188 1.21484m14.30859-1.86719l-7.01563-.39844m5.9961.33985l.51562 1.11328m13.6836-.26953l-6.74219-1.96875m5.76172 1.6836l.25 1.19921m12.78125-4.71094l-4.21485 5.6211m3.60157-4.80078l1.21484.1875"/><g clip-path="url(#aa)"><path fill="none" stroke="#000" stroke-linecap="round" stroke-linejoin="round" stroke-miterlimit="10" stroke-width=".5" d="M147.3086 359.30469l-6.6172 2.375"/></g><path fill="none" stroke="#000" stroke-linecap="round" stroke-linejoin="round" stroke-miterlimit="10" stroke-width=".5" d="M147.3086 359.30469l1.8164 1.65234m-2.78125-1.30469l.91016.82422m13.13672-1.67969l-6.15235 3.39454m6.15234-3.39454l2.0547 1.33985m-2.94923-.84766l2.0547 1.33985m12.42577-1.21094l-6.6914 2.15234m6.6914-2.15234l1.75781 1.70703M173 359.73047l1.76172 1.71094m-2.73438-1.39844l.88282.85547m14.22656-1.8711l-6.38281 2.9336m6.3828-2.9336l1.95313 1.48438m-2.8828-1.0586l1.95312 1.48829m-2.87891-1.0625l.97266.74609m14.25-1.48438l-6.48828 2.70313m6.48828-2.70313l1.89453 1.5586m-2.83985-1.16406l1.89844 1.55468m12.60547-1.01562l-6.97656.83984m6.97656-.83984l1.40234 2.01172m-2.41797-1.89063l.70313 1.00781m13.57813-1.4414l-6.875 1.46484m6.875-1.46484l1.57812 1.8789m-2.57813-1.66796l.78907.9414m13.54687-1.04687l-6.91797 1.25m6.91797-1.25l1.51953 1.92969m-2.52734-1.7461l.76172.96485m13.57812-1.03907l-6.94922 1.03516m6.94922-1.03516l1.45703 1.97266m-2.46875-1.82422l.73047.98828m13.48438-1.63672l-6.72656 2.03516m6.72656-2.03516l1.73047 1.73828m-2.71094-1.4414l.86719.86719m13.46484-1.03125L273.75 361.375m6.80078-1.76563l1.66016 1.8086m-2.64844-1.55078l.82812.90234m13.41797-1.35547l-6.6875 2.16016m6.6875-2.16016l1.76172 1.70703m-2.73437-1.39453l.88281.85547m13.53516-.6289l-6.94532 1.08203m6.94532-1.08204l1.46875 1.96094m-2.48047-1.80469l.73437.98047m13.57422-1.23828l-6.91016 1.28516m6.91016-1.28516l1.52734 1.91797m-2.53125-1.73047l.76172.95703m13.35938-1.8203l-6.51172 2.63671m6.51172-2.63672l1.8789 1.57422m-2.82812-1.1914l.9414.78906m13.51954-.50782l-6.90625 1.3086m6.90625-1.3086l1.53515 1.91407m-2.54297-1.72657l.76954.95704m13.60156-.77344l-7.0039.5664m7.0039-.5664l1.32422 2.0664m-2.34375-1.98437l.66406 1.03125m13.64453-1.35547l-6.94922 1.05078m6.94922-1.05078l1.46094 1.96875m-2.47266-1.8164l.73047.98437m13.48828-1.61719l-6.73437 2.00781m6.73437-2.0078l1.72266 1.75m-2.70313-1.45704l.86328.875m13.35547-1.39844l-6.58203 2.46875m6.58203-2.46875l1.83985 1.625m11.39453-1.8125l-6.42188 2.84766m5.48828-2.4336l.96485.75391m13.58203.47266l-7.01563-.4336m5.9922.3672l.5078 1.11718m13.75391-2.03125L433.5 361.2539m5.86328-1.30079l.79688.9336m13.02734-2.3125l-5.88281 3.83984m5.02734-3.28125l1.07422.58985m13.22656-.9375l-6.14062 3.41406m5.2461-2.91797l1.03124.66797"/><g clip-path="url(#ab)"><path fill="none" stroke="#000" stroke-linecap="round" stroke-linejoin="round" stroke-miterlimit="10" stroke-width=".5" d="M147.13672 345.59766l-6.27344 3.16406"/></g><path fill="none" stroke="#000" stroke-linecap="round" stroke-linejoin="round" stroke-miterlimit="10" stroke-width=".5" d="M147.13672 345.59766l2.0039 1.41406m11.08985-1.79297l-5.83203 3.92188m5.83203-3.92188l2.16406 1.15234m-3.01172-.58203l1.08203.57813M174 346.1875l-6.74219 1.98047M174 346.1875l1.71875 1.7539m-2.69922-1.46484l.85938.875m13.27734-1.60156l-6.42188 2.85547m6.42188-2.85547l1.9336 1.51172m-2.8672-1.09766l1.9336 1.51172m12.35156-1.84375l-6.49219 2.6914m6.4922-2.6914l1.89062 1.5625m-2.83594-1.16797l1.89453 1.5586m12.40625-1.83985l-6.57812 2.46485m6.57812-2.46485l1.83984 1.625m-2.79687-1.26562l.92188.8125m13.48828-.71875l-6.85157 1.5586m6.85157-1.5586l1.60547 1.85547m11.76953-1.51172l-6.97266.8711m6.97266-.8711l1.41406 2.00781m11.86328-2.23828l-6.89844 1.33203m6.89844-1.33203l1.54297 1.90625m-2.54688-1.71485l.77344.95704m13.5625-1.06641l-6.92969 1.16797m6.9297-1.16797l1.49609 1.94531m11.8164-1.95703l-6.92578 1.1914m6.92578-1.1914l1.5039 1.9414m11.84766-1.65234l-7 .6172m7-.6172l1.33985 2.0547m11.98437-1.54688l-7.01562-.40235m7.01562.40235l1.02344 2.23046m12.26563-1.96484l-6.96485-.9336m6.96485.9336l.85546 2.30078m-1.86718-2.4375l.42578 1.14844m13.92578-1.27344l-7.01563-.40625m7.01563.40625l1.02734 2.22656m-2.04687-2.28906l1.02344 2.23047m13.05468-3.70703l-6.5 2.66797m6.5-2.66797l1.88672 1.5664m-2.83203-1.17577l.94531.78125m13.13672-1.53907l-6.14453 3.40625m6.14453-3.40625l2.0586 1.33594m-2.95313-.83984l1.03125.66796m13.55078-.15234l-6.89062 1.3789m6.89062-1.3789l1.55469 1.89844m11.82422-1.35938l-7.01953.30079m7.01953-.30079l1.2461 2.11329m-2.26563-2.07032l.62109 1.0586m13.57422-1.95313l-6.73828 2.0039m6.73828-2.0039l1.71875 1.7461m-2.69922-1.45313l1.72266 1.7461m12.21875-2.83985l-6.03125 3.60547m6.03125-3.60547l2.10156 1.26953m-2.97656-.74219l1.04687.63282m13.27344-.92188l-6.29297 3.1289m6.29297-3.1289l1.9961 1.42969m-2.91016-.97266l.99609.71485m12.98047-1.60157l-5.78516 3.98829m4.94532-3.40625l1.08593.5625m13.60938.09765l-6.86719 1.5039m5.86719-1.28515l.79297.9375m13.53515-1.09765l-6.89062 1.38671m5.88672-1.18359l.77734.94922"/><g clip-path="url(#ac)"><path fill="none" stroke="#000" stroke-linecap="round" stroke-linejoin="round" stroke-miterlimit="10" stroke-width=".5" d="M145.07031 330.51563l-2.14062 6.6953"/></g><path fill="none" stroke="#000" stroke-linecap="round" stroke-linejoin="round" stroke-miterlimit="10" stroke-width=".5" d="M145.07031 330.51563l2.41406-.4375m11.36329.625l-3.06641 6.3203m3.0664-6.3203l2.45313-.09375m11.30469.34765l-3.95313 5.8125m3.95313-5.8125l2.4414.26563m11.4297.20312l-5.0625 4.8711m5.0625-4.8711l2.33202.76563m11.64844.21875l-6.39453 2.90625m6.39453-2.90625l1.94531 1.49218m-2.875-1.0703l.97266.74608m13.52734-.375l-6.90234 1.32032m6.90234-1.32031l1.53907 1.91406m11.73437-2.10156l-6.82031 1.6953m6.82031-1.6953l1.64063 1.82421m11.53906-2.24609l-6.55078 2.53906m6.55078-2.53906l1.85937 1.60156m11.6797-.65625l-6.9961.64844m6.9961-.64844l1.34765 2.05078m11.85547-2.66406l-6.77344 1.875m6.77344-1.875l1.6875 1.78125m11.39843-2.38281l-6.3164 3.07812m6.3164-3.07812l1.98438 1.44531m-2.90234-.9961l.99218.72266m13.52344-.34765l-6.8789 1.42969m6.8789-1.4297l1.57031 1.88673m11.4961-2.64063l-6.38282 2.9375m5.45313-2.51172l.97656.7461m13.23047 1.83984l-6.3086-3.08984m5.39063 2.64062l.04297 1.22656m14.34766-1.15234l-6.625-2.33984m5.66406 2l.17969 1.21484m14.28515-2.33594l-7 .58594m5.98047-.5l.66406 1.03125m11.82813-3.92188l-3.3164 6.19532m2.83202-5.29297h1.22657m13.70312.05469l-5.57422 4.28125m4.76172-3.66016l1.11719.51172m13.6914 1.57031l-6.9375-1.125m6.9375 1.125l.78907 2.32422m12.45312-1.9961l-6.79297-1.78124m6.79297 1.78125l.5664 2.39062m12.8125-3.89453l-6.92187 1.22656m6.92188-1.22656l1.51172 1.9336m11.1836-3.38673l-5.6836 4.13282m5.6836-4.13281l2.20702 1.07421m-3.03125-.47265l1.10157.53515m13.13671-.99609l-5.8789 3.85156m5.8789-3.85156l2.15235 1.1836m-3.00781-.6211l1.07421.58984m13.39844-.58593l-6.48047 2.71875m6.48047-2.71875l1.89844 1.55078m11.64062-.75781l-6.93359 1.1328"/><g clip-path="url(#ad)"><path fill="none" stroke="#000" stroke-linecap="round" stroke-linejoin="round" stroke-miterlimit="10" stroke-width=".5" d="M467.02734 333.29688l1.48829 1.95312"/></g><g clip-path="url(#ae)"><path fill="none" stroke="#000" stroke-linecap="round" stroke-linejoin="round" stroke-miterlimit="10" stroke-width=".5" d="M141.8164 317.79688l4.3672 5.5039"/></g><path fill="none" stroke="#000" stroke-linecap="round" stroke-linejoin="round" stroke-miterlimit="10" stroke-width=".5" d="M154.82422 318.07031l4.98047 4.95703m-4.98047-4.95703l.71094-2.34765m12.55468 2.39843l5.07813 4.85547m-5.07813-4.85547l.66797-2.36328m15.34375 1.28125l-.3125 7.01953m.26953-6l1.10547-.52734m13.54297-.1875l-2.89062 6.40625m2.46875-5.47266l1.22265-.07812m14.08594.55078l-6.03516 3.59766m5.15625-3.07422l1.05078.63672m13.60547.15234l-6.96093.96875m6.96093-.96875l1.4375 1.98828m11.87891-1.02734l-6.96484-.95313m6.96484.95313l.84766 2.30078m12.49609-2.95313l-7.01953.35157m7.01953-.35157l1.25781 2.10938m12.0586-1.9961l-7.02344.125m7.02344-.125l1.1914 2.14454m-2.21093-2.125l.59375 1.0703m13.66015-1.78905l-6.85937 1.52343m6.85937-1.52343l1.59375 1.86718m-2.59375-1.64453l.79688.9336m13.41797-1.51172l-6.66016 2.23828m6.66015-2.23828l1.78125 1.6875m11.69532-.94531l-6.98438.7539m6.98438-.7539l1.3789 2.03125m11.90235-2.26563l-6.91797 1.22266m6.91797-1.22266l1.51172 1.9336m11.76953-2.11329l-6.84766 1.58203m6.84766-1.58203l1.60937 1.84766m11.32031-2.82422l-6.07812 3.53125m6.07813-3.53125l2.08203 1.29688m10.47656-2.19922l-4.5664 5.33984m3.90234-4.5625l1.19921.26563M372.77735 318l-4.84375 5.09375m4.14063-4.35156l1.17969.32812m12.8789-1.02734l-4.92578 5.01172m4.92578-5.01172l2.35547.69531m11.1211-.52734l-5.2461 4.67187m4.48438-3.99219l1.14843.42579m7.33594-.64454l5.9414 3.75391m-5.07812-3.20703l.08985-1.22266m12.72265 4.90625l5.21875-4.70703m-4.46094 4.01953l-1.15234-.41796m13.70313-3.59766l5.23046 4.69531m-4.46875-4.01172l.29688-1.1914m15.47266-.60547l-1.20313 6.92187m1.03125-5.91406l1.16406-.38281m14.9336 1.40625l-6.42188 2.85937"/><g clip-path="url(#af)"><path fill="none" stroke="#000" stroke-linecap="round" stroke-linejoin="round" stroke-miterlimit="10" stroke-width=".5" d="M466.77344 319.11719l1.92969 1.51172"/></g><path fill="none" stroke="#000" stroke-linecap="round" stroke-linejoin="round" stroke-miterlimit="10" stroke-width=".5" d="M465.83594 319.53516l.96875.7539"/><path fill="#ff3030" fill-rule="evenodd" d="M260.21875 445.45703h7.69531V435.3125h-7.69531v10.14453"/><path fill="azure" fill-rule="evenodd" d="M262.05469 437.14453h.83203v5.73828h3.19531v.74219h-4.02734v-6.48047"/><path fill="#ff3030" fill-rule="evenodd" d="M335.67188 441.01953h7.6953V430.8711h-7.6953v10.14844"/><path fill="azure" fill-rule="evenodd" d="M337.5039 432.70703h.83594v5.73828h3.19141v.73828h-4.02734v-6.47656"/><path fill="#00f" fill-rule="evenodd" d="M388.23828 436.57813h8.61719v-10.14454h-8.61719v10.14454"/><path fill="azure" fill-rule="evenodd" d="M390.07031 428.26563h.83594v2.82421h3.28516v-2.82421h.83203v6.48046h-.83203v-2.91406h-3.28516v2.91406h-.83594v-6.48046"/><path fill="#00f" fill-rule="evenodd" d="M286.15625 432.14063h8.61719v-10.14454h-8.61719v10.14454"/><path fill="azure" fill-rule="evenodd" d="M287.98828 423.82813h.83594v2.82421h3.28515v-2.82421h.83204v6.48046h-.83204v-2.91796h-3.28515v2.91796h-.83594v-6.48046"/><path fill="#00f" fill-rule="evenodd" d="M215.14453 414.38672h8.61719v-10.14453h-8.61719v10.14453"/><path fill="azure" fill-rule="evenodd" d="M216.97656 406.07422h.83203v2.82422h3.28516v-2.82422h.83594v6.48047h-.83594v-2.91406h-3.28516v2.91406h-.83203v-6.48047"/><path fill="#ff3030" fill-rule="evenodd" d="M348.98828 405.51172h7.6914v-10.14453h-7.6914v10.14453"/><path fill="azure" fill-rule="evenodd" d="M350.82031 397.19922h.83203v5.73828h3.19532v.74219h-4.02735v-6.48047"/><path fill="#ff3030" fill-rule="evenodd" d="M198.08203 370.0039h7.69531v-10.14452h-7.6953v10.14453"/><path fill="azure" fill-rule="evenodd" d="M199.91797 361.6914h.83203v5.73829h3.19531v.74219h-4.02734v-6.48047"/><path fill="#ffffe0" fill-rule="evenodd" d="M350.6211 381.61719h22.17968v-10.1914H350.6211v10.1914"/><path fill-rule="evenodd" d="M354.1211 373.25781h.5078v6.29688h-.78515v-4.49219h-1.39063v-.55469l.5586-.0625.2539-.05469.23047-.08984.20313-.14062.17187-.21094.14454-.29297.10546-.39844m4.8125 0l.23047.01953.21875.0547.20703.08983.19532.1211.18359.15234.17188.17578.30468.41797.24219.49219.17969.54688.10937.58203.03906.58984-.03906.59375-.10937.58203-.17969.55469-.24219.5039-.30469.42579-.17187.17968-.1836.15235-.1953.125-.20704.08984-.21875.0586-.23047.01953-.23046-.01954-.21875-.05859-.20704-.08984-.1953-.125-.1836-.15235-.17188-.17968-.30469-.42579-.24218-.5039-.17969-.55469-.10938-.58203-.03906-.59375h.83203l.03125.5625.07813.5039.1289.44532.16016.375.1914.30078.21094.21875.22266.13672.22656.04687.22657-.04687.22265-.13672.21094-.21875.1914-.30078.16016-.375.1289-.44531.08204-.50391.02734-.5625-.02734-.5625-.08203-.5-.1289-.4336-.16016-.36718-.19141-.29297-.21094-.21484-.22265-.12891-.22657-.04688-.22656.04688-.22265.1289-.21094.21485-.1914.29297-.16017.36719-.1289.43359-.07813.5-.03125.5625h-.83203l.03906-.58984.10938-.58204.17969-.54687.24219-.49219.30468-.41797.17188-.17578.1836-.15234.1953-.1211.20704-.08984.21875-.05469.23046-.01953m5.08985 0h.51172v6.29688h-.78907v-4.49219h-1.38671v-.55469l.55859-.0625.2539-.05469.22657-.08984.20703-.14062.17187-.21094.14063-.29297.10547-.39844m2.82422 2.17578h.78906l.01953-.3164.0586-.28516.09765-.2539.14063-.21485.18359-.17187.22265-.12891.26563-.08203.30469-.02735.23828.02344.22656.0625.20313.10156.17968.13672.14844.17188.11328.20703.07031.23828.02735.26172-.02344.26953-.0664.22266-.10938.19531-.15625.16797-.19922.16406-.2461.16406-.63671.39063-.53516.3125-.4375.3164-.34765.32422-.26563.33594-.1875.35156-.125.3711-.07031.39062-.01953.42188h4.21094v-.74219h-3.33204l.08204-.28125.11328-.23828.14843-.20313.1875-.17968.23047-.17188.27735-.17578.71875-.41406.41406-.20703.34765-.23047.28125-.25.21875-.26953.16407-.27735.10937-.28515.0664-.28516.01954-.28125-.04297-.38281-.1211-.34766-.1875-.30469-.25-.26562-.30468-.21094-.34375-.16015-.3789-.09766-.41016-.03516-.4336.03516-.39843.09765-.35547.16797-.30469.23438-.2461.30078-.1875.375-.11327.44531-.04297.51953"/><path fill="#ffffe0" fill-rule="evenodd" d="M217.46875 344.94922h22.17969v-10.1914h-22.17969v10.1914"/><path fill-rule="evenodd" d="M220.96875 336.58984h.50781v6.29688h-.78515v-4.49219h-1.38672v-.55469l.5586-.0625.25-.05468.23046-.08985.20313-.14062.17578-.21094.14062-.29297.10547-.39844m4.8125 0l.23047.01954.21875.05468.20703.08985.19922.12109.1836.15234.17187.17579.30078.41796.24219.4922.17968.54687.11328.57812.03907.59375-.03906.59375-.11329.58203-.17968.55469-.2422.5-.30077.42969-.17188.17969-.1836.15234-.19921.125-.20703.08984-.21875.0586-.23047.01953-.22656-.01953-.21875-.0586-.21094-.08984-.19531-.125-.1836-.15235-.17187-.17968-.30078-.42969-.24219-.5-.17969-.55469-.11328-.58203-.03906-.59375h.83594l.02734.5625.08203.5039.125.44532.16406.375.19141.30078.20703.21875.22266.13672.22656.04688.22656-.04688.22266-.13672.21094-.21875.1914-.30078.16406-.375.125-.44531.08204-.5039.02734-.5625-.02734-.5625-.08203-.5-.125-.4336-.16407-.36719-.1914-.29297-.21094-.21484-.22266-.1289-.22656-.04688-.22656.04687-.22266.1289-.20703.21485-.1914.29297-.16407.36719-.125.4336-.08203.5-.02734.5625h-.83594l.03906-.59376.11328-.57812.17969-.54688.24219-.49219.30078-.41796.17187-.17579.1836-.15234.19531-.1211.21094-.08984.21875-.05469.22656-.01953m5.09375 0h.50781v6.29688h-.78515v-4.49219h-1.39063v-.55469l.5625-.0625.25-.05468.23047-.08985.20313-.14062.17578-.21094.14062-.29297.10547-.39844m2.82422 2.17579h.78516l.01953-.31641.05859-.28516.10156-.2539.14063-.21485.17969-.17187.22265-.1289.26563-.08204.30859-.02734.23828.02343.22266.0625.20312.10157.17969.13671.14844.17188.11328.20703.07422.23438.02344.26562-.02344.26953-.0625.22266-.11328.19531-.15235.16797-.20312.16406-.2461.16406-.6328.39063-.53907.3125-.4375.3164-.34766.32423-.26172.33593-.1914.35156-.125.3711-.07031.39062-.01954.42188h4.21094v-.74219h-3.33203l.08594-.28515.11328-.23438.14844-.20313.1875-.17968.23047-.17188.27734-.17578.71875-.41406.41406-.20703.34375-.23047.28125-.25.21875-.26953.16406-.27735.11328-.28515.0625-.28516.01954-.28125-.03907-.38281-.12109-.34766-.1914-.3086-.25-.26171-.30079-.21094-.34765-.16015-.37891-.09766-.40625-.03516-.4336.03516-.39843.09766-.35547.16796-.30469.23438-.25.30078-.1836.375-.11718.44531-.03906.51954"/></g></defs><use xlink:href="#ag"/></svg>