<svg xmlns="http://www.w3.org/2000/svg" role="img" xmlns:xlink="http://www.w3.org/1999/xlink" viewBox="142.45 309.95 326.84 171.84"><defs><clipPath id="a"><path d="M144 450h1v30.32813h-1zm0 0"/></clipPath><clipPath id="b"><path d="M144 311.67188h1V448h-1zm0 0"/></clipPath><clipPath id="c"><path d="M144 311.67188h324v168.65625H144zm0 0"/></clipPath><clipPath id="d"><path d="M467 463h1v17.32813h-1zm0 0"/></clipPath><clipPath id="e"><path d="M467 311.67188h1V463h-1zm0 0"/></clipPath><clipPath id="f"><path d="M144 479h4v1.32813h-4zm0 0"/></clipPath><clipPath id="g"><path d="M147 480h2v.32813h-2zm0 0"/></clipPath><clipPath id="h"><path d="M153 479h9v1.32813h-9zm0 0"/></clipPath><clipPath id="i"><path d="M160 480h2v.32813h-2zm0 0"/></clipPath><clipPath id="j"><path d="M166 479h9v1.32813h-9zm0 0"/></clipPath><clipPath id="k"><path d="M173 480h3v.32813h-3zm0 0"/></clipPath><clipPath id="l"><path d="M180 479h8v1.32813h-8zm0 0"/></clipPath><clipPath id="m"><path d="M187 480h2v.32813h-2zm0 0"/></clipPath><clipPath id="n"><path d="M193 480h9v.32813h-9zm0 0"/></clipPath><clipPath id="o"><path d="M200 480h3v.32813h-3zm0 0"/></clipPath><clipPath id="p"><path d="M206 479h9v1.32813h-9zm0 0"/></clipPath><clipPath id="q"><path d="M213 479h3v1.32813h-3zm0 0"/></clipPath><clipPath id="r"><path d="M220 479h8v1.32813h-8zm0 0"/></clipPath><clipPath id="s"><path d="M227 479h2v1.32813h-2zm0 0"/></clipPath><clipPath id="t"><path d="M233 480h8v.32813h-8zm0 0"/></clipPath><clipPath id="u"><path d="M239 480h2v.32813h-2zm0 0"/></clipPath><clipPath id="v"><path d="M246 480h9v.32813h-9zm0 0"/></clipPath><clipPath id="w"><path d="M253 480h3v.32813h-3zm0 0"/></clipPath><clipPath id="x"><path d="M260 479h8v1.32813h-8zm0 0"/></clipPath><clipPath id="y"><path d="M266 480h2v.32813h-2zm0 0"/></clipPath><clipPath id="z"><path d="M273 479h8v1.32813h-8zm0 0"/></clipPath><clipPath id="A"><path d="M279 480h2v.32813h-2zm0 0"/></clipPath><clipPath id="B"><path d="M286 478h9v2.32813h-9zm0 0"/></clipPath><clipPath id="C"><path d="M292 480h2v.32813h-2zm0 0"/></clipPath><clipPath id="D"><path d="M300 478h7v2.32813h-7zm0 0"/></clipPath><clipPath id="E"><path d="M314 477h7v3.32813h-7zm0 0"/></clipPath><clipPath id="F"><path d="M328 476h5v4.32813h-5zm0 0"/></clipPath><clipPath id="G"><path d="M342 476h4v4.32813h-4zm0 0"/></clipPath><clipPath id="H"><path d="M355 476h4v4.32813h-4zm0 0"/></clipPath><clipPath id="I"><path d="M368 476h4v4.32813h-4zm0 0"/></clipPath><clipPath id="J"><path d="M381 476h5v4.32813h-5zm0 0"/></clipPath><clipPath id="K"><path d="M393 479h8v1.32813h-8zm0 0"/></clipPath><clipPath id="L"><path d="M393 479h2v1.32813h-2zm0 0"/></clipPath><clipPath id="M"><path d="M407 477h7v3.32813h-7zm0 0"/></clipPath><clipPath id="N"><path d="M421 477h6v3.32813h-6zm0 0"/></clipPath><clipPath id="O"><path d="M434 477h6v3.32813h-6zm0 0"/></clipPath><clipPath id="P"><path d="M446 478h8v2.32813h-8zm0 0"/></clipPath><clipPath id="Q"><path d="M462 476h3v4.32813h-3zm0 0"/></clipPath><clipPath id="R"><path d="M144 466h4v2h-4zm0 0"/></clipPath><clipPath id="S"><path d="M144 453h4v2h-4zm0 0"/></clipPath><clipPath id="T"><path d="M144 440h4v1h-4zm0 0"/></clipPath><clipPath id="U"><path d="M144 426h4v3h-4zm0 0"/></clipPath><clipPath id="V"><path d="M144 411h4v5h-4zm0 0"/></clipPath><clipPath id="W"><path d="M144 397h3v6h-3zm0 0"/></clipPath><clipPath id="X"><path d="M144 385h4v4h-4zm0 0"/></clipPath><clipPath id="Y"><path d="M144 373h4v2h-4zm0 0"/></clipPath><clipPath id="Z"><path d="M144 359h4v3h-4zm0 0"/></clipPath><clipPath id="aa"><path d="M144 345h4v4h-4zm0 0"/></clipPath><clipPath id="ab"><path d="M144 330h1v8h-1zm0 0"/></clipPath><clipPath id="ac"><path d="M144 328h2v3h-2zm0 0"/></clipPath><clipPath id="ad"><path d="M144 318h4v5h-4zm0 0"/></clipPath><g id="ae" clip-path="url(#clip1)"><path fill="#fff" fill-opacity="0" fill-rule="evenodd" d="M0 0h1000v1000H0zm0 0"/><path fill="#d3d3d3" fill-opacity="0" fill-rule="evenodd" d="M162.15234 355.86719l-.23437.29297.0586.23437.11718.17188.17578.23437.29297.34766.11328.0586.11719-.17188.0586-.23438.17577-.17578.46485-.17578h.69922l.23437.29297.28906.8164.0586.17579.17578.23046.35156.23438.69922.69922.17188.17578.23437.34765.23438.41016.28906.58203.41015.46485.23047.23437.23438.17578.11719.23047.17578.29297.17187 1.16406v.23438l.0586.28906.05859.11719.11719.11719.34765.41015.11719.17188.17578.17578.17578.23437.11719.17188.17188.35156.05859.23438.23437.40625.23438-.0586-.17578.17578-.0586.92969h-.58203l-.23437-.11328-.34766.11328-.11719.11719-.05859.29297-.0586.17578-.11718.17187-.46484.29297-.0586.23438-.0586.11328v.64453l.0586.17187v.41016l.0586.0586v.40624l.05859.40625.11719.17579.05859.05859.23047.64062-.0586.29297v.69922l-.05859.58203v.23438l-.0586.23047-.05468.35156v1.92187l.05469.1172h.42578l-.36719.11718-.02344.35156.89063 1.16797 1.74219.53906 1.33984.35938v.53906l.08984.8086.53516.71484 1.51953.26953.89063-.08594.08984 1.16406.53516.1797 1.16015-.1797 2.05469-.98437 1.16016-.36328 1.8789-.17578 1.69531-.1797-.17968.71876-1.51563.08594-1.25.08984-.80469.26953-1.07421.8086.26953.71875.53515.89843-.17968.625-.26563.8086.26563 1.07812.625.89844.80468.17969 1.25-.1797-.26562.72267.09766.5039.05468.29297v.17188l.0586.29296v.40625l.17578.1172.35156.11718h.40625l.29297-.17578.11328-.11719.0586-.11719.11718-.23047.0586-.17578.35156-.46484.23047-.17578.17578-.0586.17578.0586.0586.17578.11718.98828.05469.46875.0586.17188.11718.23437.17578.0586.8164.05859h.28907l.11719.23437.05859.40625.0586.35156v1.10547l.11718.29297.11719.34766.28906.69922.17578.35156.58203.7539.35157.17579.17187.0586.46875.23437.64063.46484.34765.23438.29297.17578.29297.05468.23047.0625.8164.34766.29297.17578.11328.17188.35157.35156.11719.17578.52343.64063v.28906l.0586.35156v.34766l.05859.35156.0586.28906.11718.0586.17188.05859h.17578l.58203.23437.17578.1172.17578.28905.17578.23438.11328.23437.29297.23047.11719.11719v.41016l.0586.05468.28906.23438.23437.11719.0586.11718.11718.17188.0586.11719.23047.23437.05859.17578.23437.0586.1172.05859-.1172.11328-.05859.11719v.11719l-.11719.29296-.11719.28907v.58203l.17579.11719.11718.05859.0586.11719.11719.11719.11328.05859.17578.34765.0586.35157.05858.40625v.17578l-.05859.17578-.11719.69922v.17187l.1172.17579.29296.29296h.40625l.17578.1172.11719.17187.11719.29296v.23438h-.52735l-.23047-.23438h-.23437l-.17578.0586-.0586.69922.0586.34765.11719.17579.17578.41015.11718.23047.28907.46875.17578.05469h.52344l.23437.0586.75781.64062.0586.29296v.23438l.05859.0586.23047.34765v.35156l-.11719.17188v.29297l.29297.28906.29297.17578.17187.0586.29297.17577.29297.1172.58203.40624.28906.23438.29297.17578.21875.16015.01563.01172.23047.17579.64062.52343.17578.23438.1172.17578.17577.17578.11328.17188v.64062l.1172.17578.46874.11719.58203.11719.23438.05859.23047.11328.29297.11719.11328.0586.58593.35156.28907.17187.17578.0625.17578.05469.17578.0586.69922.35155.28906.17579.23438.05468.28906.17578.23437.1172.64063.40624.29297.11719.17187.0586.23438.05859.41015.05859.23047.0586.23438.11718.0586.17188-.41017.17578.46875.0586.0586.29296.11328.23438.17578.05468.23438.0586.17578.05859.40625.11719.64062.23437.11719.17188.0586.23437v.17578l-.0586.1172-.0586.40624.23438.23438.11719.05859.34766.11719.64062.23047.17578.11718.28906.1172.17578.17577.23438.46485.58203 1.10546.17578.17579.34766.17578.17578.11719.35156.11718 1.04688.52344.23437.0586.46485.11327.29297.0586.46484.17578.75781.58203.23438.23438.34765.46484.17578.17578.28907.23438.8164.69921.29297.17579.28906.28906.29297.17578.29297.28906.69531.64063.17578.17578.29297.23437.28907.23438.46875.28906.64062.58203.34766.23438.23437.29297.34766.34765.35156.46485.9336.99218.34765.40625.11719.17579.23437.05859.11328.11719.64454.17578.23047.11328.23437.0586.29297.17577.23047.1172.9336.69921.40624.40625.23438.17578.40625.17578.23437.11719.8164.34766.34766.23437.23438.11719.29297.28906.23047.11719.7578.35156.35157.17188.23047.05859.29297.11719.23437.0586.8711.17577h.8164l.46875.23047.17188.0586.875.69921.46484.1172.29297.05858.17578.0586.23047.0586.46875.05859.34766.05859.35156.0586.40625.05859h.29297l.17187.0586v.23046l.17578.17578h.29297l.34766.0586.35156.05859.69922.11719h.64063l.46484-.23438.29297-.17578.17187-.11719.41016-.17187.28906-.17578.9336-.46485.46875-.29297.52343-.29296.46485-.17188.46484-.17578 1.05078-.46485.28906-.11718.41016-.11719.28906-.11719.52735-.17578 1.51562-.69922.58203-.34765.28907-.0586.29297-.0586.34765-.11718.875-.23047.35156-.11719h.11329l.23437-.05859.875-.23437.23438-.0586h.8125l.35156-.0586.8164-.11718.17188-.0586.35156-.05468.29297-.0586.23047-.05859.8164-.17578.17579-.0586h.34765l.23438-.05859.46484-.11718.75781-.17188.23438-.0586h.34765l.41016-.11718.28906-.0586 1.28516-.05859h.28906l.41016-.0586.23047-.05858h.17578l.875-.1172h.40625l.41015-.11718h.34766l.35156-.11328.8711-.0586h1.75l1.04687.28907.41016.11719.28906.11718.35156.11719.28907.11719 1.05078.17187.28906.0586h.29297l.29297.05859.17187.0586.41016.05859.17187.0586.1172.05858h.11718l.11719.0586.35156.0586h.11328l.41016.0664 1.92187.39453 1.92578.39453 1.51953.44922 1.69532.71875 2.14453.80469 1.60547-.71875 1.42968-.80469 1.16016-1.07813 1.25-.44921 3.03516-.71875 1.875-.35938 2.14453-1.34765 2.23437-1.25391 2.5-1.25781 1.69531-.44922 1.78516-.17969 1.16016-.26953.625.53906 1.33984-.26953.71485-.98828.98437-1.34375.44531-.17969.80469-.35937 1.875-.53907 1.78516-.44921 1.25-.26954 1.16015-.08984 1.69922-.08984 1.96094-.26954 1.25-.08984h.53906l.625-.08984h.89063l2.14453-.17969 2.41015-.17969 2.58985-.08984 1.69531.17969 1.60938.08984 1.42968.35938 1.16016.71875 1.875.98828 1.16015 1.52734.26563.71484.6289.08985.35548.89844.53515.53906.53516 1.52734 1.07422.35938h.53515l-.80469.53515.08985 1.70703.71484 2.69532.89063.80468.89453.98829.71484 1.2578 1.78516.53907 1.51953-.17969.35547 1.34375 1.60937-.80469.98047-.53906.26953.26953.31641-.21484.21875-.14453.80078.44922.44922-.35938h.35547l.53515-.26953.53907-.71875.53515-.26953.625-.98828 1.16016.44922.83984.3711 1.39454.61718 1.6953-.17969h1.60548l1.78515.08985.17969-1.70704.53516-1.34375.80468.26954.4922.84765.40233.40625-.08984.53906v.35938l.71485.44922.71093-.26953h1.42969l.35938.98828.4453 1.25781.71485 1.34375 1.25.6289 1.69531.62891.71485-.17969.17969-.53906.98046-.08984.44922.35937.08594 1.25782-.26563.6289-.53515.17969v.53906l.71484.98438.26563.53906.98437.98828.80078 1.07813-.26562.35937-.08985.89844-.625 2.33203-.35546 2.0664-.08985 1.79298-.17969.71875-.08984.53906v1.4375l-.98047 1.88281-.35937 1.70703-.53516.89844-.80469 1.16797-.26562.53906 2.05469 1.2539.08593.35938-.35546.53906-.08985-.17968v.80859l.08985 1.4375-.44532.71484-1.07422.09375-.26562.71485.53515.89844.8047.71875 1.16015.80859 1.33984.26953.44531.35938-.35546.44921-1.78907-.08984-1.25-.44922-.71484-.71875-.625-.08984-.17578 3.58984-.1875 1.3086h89.35937V311.70313h-55.26953v49.08203l.76172.125 3.28906.54296 2.02344 2.83594v2.7539l2.35156.33204 2.34766.33203h4.05078l-1.3789 4.16016-2.02344.70703-2.02344.70312-.54297.34375-2.59375 1.6172-.1875.11718-2.02344-2.07813-.73046-2.74218-2.67188-2.07813-1.375-3.5-.0664-.08203-1.95704-2.67188 2.75-1.41796v-49.08204H294.42187v91.41407l.1172.03125.1328.01172.07422.07421.10547.04688.08985.0586.08593.05859.08985.0586.29687.29687.0586.08984.03125.11719.02734.11719.01563.13671-.03125.1172-.0586.08983-.0586.08594-.04296.10547-.04688.10156-.02734.1211v.14453l.17578.26953.14844.14844.07422.08594.07422.07421.04296.10547.0625.08985.0586.08593.04297.10547.0586.08985.04687.10156.04296.10547.0586.08594.11719.17968.07421.07422.0625.08594.0586.08984.04297.10547.0586.08985.05858.08593.0625.08985.0586.08984.04297.10156.11719.17969.07421.07422.0586.08594.07422.07421.08984.0586.10547.04687h.14844l.1328-.01562.13282.01562.10156-.04687.07422-.07422.04688-.10156-.01563-.13281v-.14844l-.04687-.10547-.02735-.11719-.04687-.10156-.02735-.1211-.04296-.10156-.0625-.08984-.04297-.10156-.04297-.10547-.03125-.11719-.01563-.13281-.01171-.13672.08593-.0586.0586-.08593.12109-.03125.04297.10547.01562.1328v.1172l.0586.10156.0586.08984.08983.0586.14844.14843.0586.08985.04296.10547-.01171.10156.08593.0586.10547.04687.08594.0586.08984.05858.07422.07422-.11719.02735-.10546.04687-.08594.0586-.07422.07421-.0586.08985-.0625.08594-.02734.12109-.04687.10156-.04297.10547-.03125.11719-.01172.13281-.01563.13281v.14844l.02735.11719.04687.10547.04297.10156.0586.08984.07421.07422.08985.0586.07422.07421.08984.0586.0586.08984.04296.10547.04688.10156.11719.03125.1328.01563h.14845l.11718-.03125.10547.04297.04297.10547.04688.10156.02734.1211L299.5 410l.02734.11719.03125.1211.02735.11718.10547.04297.10156.04687.13281-.01562.14844.14844.0625.08593.07422.07422.07031.07422.08984.0625.10547.04297.10156.04297.1172.03125.13671.01562.11719-.03125.07422-.07422.02734-.11718-.01172-.13282-.03125-.12109-.02734-.11719.04297-.10547h.11719l.08984.0625.11719.02735h.14843l.13282.01562h.14843l.13282.01563.1328-.01563h.14845l.1328-.01562.13282-.01172.13672.01172.11719-.02735.13281-.01562.1914-.0586-.05859.17579-.01562.1328-.02735.1211-.01562.13281-.0586.08594-.1328.01563-.10548.04687-.10546.04297-.1172.03125-.11718.02735-.26563.03125h-.14843l-.13281.01562-.07422.07422.05859.08594.14844.14843.11719.1797.07421.0703.08985.0625.08984.0586.08594.0586.08984.05858.10156.04297.10547.0625.10547.04297.08594.0586.10547.04687.10156.04297.17969.11719.0586.08984-.04298.10156-.04687.10547.01562.13281.22266.22266.0586.08985.04296.10156.03125.1211.04297.10155.01563.13282.03125.11718.01171.13672.03125.11719.14844.14844.10156.04297.10547.04296.1172.03125.1328.01563.13672.01563h.11719l.11719-.03125.08984-.0586.04297-.10547.04688-.10156.04296-.10547.03125-.11719.01172-.1328v-.14845l-.01172-.1328-.01562-.13282-.03125-.11719-.04297-.10547-.04688-.10547-.04296-.10156-.04297-.10547-.01563-.13281.01563-.13281.02734-.11719.03125-.11719.02735-.1211.04687-.10155.08984-.0586.08594-.0625.07422-.07422.08984-.05859.22266-.22266.0586-.08593.07421-.07422.11719-.17969.0586-.08594v-.14844l-.07423-.07421-.10156-.04688-.10547-.04297-.10156-.04297-.0586-.08984-.04687-.10547-.02734-.11719.08984-.05859.11719-.03125.10156-.04297.17969-.11719.14844-.14843.01172-.13282-.01172-.10546-.08985-.0586-.1328.01563h-.14845l-.1328.01562-.13282-.01562-.1211-.03125-.08593-.0586-.07422-.07422-.0586-.08984-.0625-.08594-.11718-.17969-.0586-.08593.03125-.1211.08594-.05859.1211-.03125.05859-.08594v-.1211l-.03125-.11718-.0586-.08984-.05859-.08594-.04687-.10547-.02735-.11719-.01562-.1328.0586-.08985.07421-.07422.08984-.0586.1172-.17968.07421-.07422.0586-.08594.14843-.14844.1211-.03125.1328-.01562.13282.01562.07422.07422.04297.10547.01562.13281-.03125.1172-.11719.03124-.1328.01172-.14844.14844-.04297.10547-.04688.10156-.02734.1211-.03125.11718v.14844l.03125.11719.04297.10546.05859.08985.07422.07031.07422.07422.11719.03125.12109.02734.11719-.02734.1328-.01563h.1172l.08984.0586.07422.07422.04687.10546.0586.08594.10156.04688.13281.01562.10547.04297.08594.0586-.01172.10546-.07422.07422-.17969.11719-.05859.08984-.08984.0586-.07032.07422-.07421.07421-.0625.08985-.02735.11719-.01562.1328.01562.13282-.01562.13281v.14844l.01562.13281.02735.1172.03125.12108.07421.07422.08985.0586.08594.0586.08984.05858.11719.03125v.08594l-.10157.04688-.08984.0586-.26563.03124-.11718.02735h-.14844l-.10547.04296-.10156.04688-.0586.08984-.0625.23438-.01171.13281-.03125.1211-.01563.1328v.29298l-.01172.1328.01172.13673.01563.1328.1328.01563.13282.01172.1211.03125.08593.0586.07422.07421.04688.10547.04296.10157.01563.1328v.44532l-.01563.13281v.44532l.03125.26562.02735.11719.01562.13281.03125.11719.08594.21094.03125.26562v.14844l-.03125.11719-.02734.11718-.03125.1211-.02735.11719-.03125.11718-.03125.1211-.01171.1328-.01563.13282.08984.0586.1172-.03125.10155.01562.04688.10547-.03125.26562v.44141l-.04297.10547-.04688.10547-.04296.10156-.04297.10547-.0586.08594-.03125.12109-.04296.11719-.03125.11719-.01563.1328.01563.13282.05859.08984.10547.04688.08594.0586.05859.08593-.01172.13672-.03125.11719-.04297.10156v.44531l-.01562.13281v.14844l-.03125.11719-.04297.10547-.02735.11719-.04687.10546-.04297.10157-.03125.12109-.02734.11719-.03125.13281-.03125.11719-.02735.11719-.04297.10546-.03125.1172-.03125.12108-.01171.13282-.01563.13281v.29688l.02734.11718v.14844l.04688.39844.02734.11719.0586.08984.12109.03125h.14844l.13281-.01563.0586.08985v.11719l-.0586.08984-.08984.0586-.10157.04296-.10546.04688-.08985.05859-.08594.0586-.13671.01562-.1172-.03125-.1328-.01563-.10157.04688-.0625.08594-.01172.13671-.01562.13282-.03125.11719-.02735.11718-.01562.13281-.03125.1211v.29687l.01563.13282.03125.11718v.14844l.01171.13281v.14844l-.02734.11719-.04688.10156-.02734.1211-.03125.11718-.0586.08985-.07421.07421-.10156.04297-.10547.04688-.11719.02734-.1211.03125-.10156-.04687.0586-.08594.10547-.04688.02734-.11718.03125-.11719.02734-.1211.03125-.11718v-.14844l.01563-.13281-.03125-.11719-.04297-.10547-.10547.01563-.07422.07422-.10156.04296-.08984.0625-.07422.07422-.04297.10157-.01563.1328-.03125.1172L304.25 426l-.03125.11719-.02734.11719-.03125.12109-.02735.11719-.03125.11718-.04297.10547-.08984.0586h-.08984l-.1172-.03125-.03124-.08594.01562-.13672-.03125-.11719v-.14844l-.01171-.1328v-.14844l-.0625-.23438-.02735-.1211-.04297-.10156-.04687-.10546-.0586-.08594-.05859-.08985-.04297-.10546-.0625-.08594-.14844-.14844-.0703-.07422-.10548-.04687-.10547-.04297-.10156-.04297-.29687-.29688-.08985-.07421-.08594-.0586-.10546-.04297-.08985-.0625-.08594-.0586-.10546-.04296-.08985-.0586-.08594-.0625-.07421-.0703-.10547-.04688-.08594-.0586-.10547-.04296-.08984-.0625-.10156-.04297-.10547-.04297-.08594-.0586-.10547-.04687-.10547-.04297-.10156-.04687-.08985-.0586-.10156-.04297-.10547-.04296-.08984-.0625-.11719-.02735-.13281-.01562-.13281.01562H299.75l-.13281.01563-.11719-.03125-.08984-.0586-.07422-.07422-.08985-.05859-.10156-.04688h-.14844l-.12109-.02734-.10156-.04297-.07422-.07422-.11719-.17968-.08984-.0586-.10156-.04297-.08985-.0625-.10547-.04296-.08984-.0586-.08594-.0586-.10547-.04687-.0586-.08594-.05858-.08984-.04297-.10547-.04688-.10156-.07422-.07422-.08594-.0586-.07421-.07421-.08985-.0586-.22265-.22265-.04297-.10547-.03125-.26563.10547-.04296h.14453l.10547.04296.07421.07422.08985.0586.08594.0586.10546.04687.08985.05859.14844.14844.0703.07422.14845.14843.0625.08594.07421.07422.08594.0586.07422.07421.08985.0625.08984.0586.08594.05859.26953.17578.10156.04688.10547.04296.10156.04297.04688-.07421.05859-.08594.07422-.07422.07031-.07422.10547.04297.07422.07422.0586.08984.04296.10156.04688.10547.04296.10547.1211.02735.11719-.02735.07421-.08984.04297-.10547.0586-.08985.07422-.07421.10546-.04297.1172-.02735.1328.01172.08985.0586.14844.14843.05859.08985.04297.10547.04687.10156.04297.10547.04297.10156.10547.04688.10547.04296.13281.01563.08594-.0586.0586-.08984.07421-.07422.10547-.04297.11719.02735.10547.04687.10156.04297.10547.04297.10156.04688.17969.11718v.11719l-.01563.13281.01563.13281.01562.13672.0586.08594.10156.04688.1211.02734.11718.03125h.14844l.11719-.03125.05859-.08984.17969-.1172.05859-.08983.07422-.07422.0586-.08594.11718-.17969.17969-.11719.11719.03125.08984.0586.04297.07422-.01563.1328v.1172l.08985.05859h.14843l.13282-.01563.1328-.01171.26563-.03125.10547-.04297.11719-.03125.1211-.02735.07421-.07421.07031-.07422.0625-.08985-.01562-.10547-.04688-.10156-.10156-.04297-.10547-.01562-.11718.02734-.26563.03125h-.14844l-.07421-.07422-.08985-.0586-.11719-.03124-.11718-.02735-.13282-.01562h-.14843l-.13282.01563h-.29687l-.10547-.04688-.14844-.14844-.04297-.10156-.05859-.08984.22266-.22266.08593-.0586.10547-.04296.11719-.03125.13281-.01563.13281.01563.13672.01562.10157.04297.1328-.01172.08985-.0625.10156-.04297.0625-.08984-.04687-.10156-.08984-.0586-.1172-.03125-.10155-.04296-.0586-.08985-.0625-.08984v-.11719l.01563-.13281.10547-.04688.07421-.07031v-.1211l-.08984-.05859-.03125-.11719.08985-.05859.07421-.07422.04297-.10547.0586-.08984.04687-.10156.01563-.13281v-.14844l-.04688-.10547-.04297-.10156-.08984-.0586-.13281-.01562-.10157-.04297-.13671-.01563-.1172-.03125h-.4453l-.13282-.01562-.13281-.01172-.13281-.01563-.11719-.03125h-.14844l-.13281-.01562-.13281-.01172-.26563-.03125-.1211-.04297-.08593-.0586-.07422-.07421v-.14844l.01172-.13281.10547-.04688.10156-.04296.13281-.01563h.15235l.13281-.01562h.29297l.1211.03125.10156.04296.08984.0586.23438.0625.12109-.04688.08984-.05859.10156-.04297.13282-.01562.10547.04296.10156.04688.13281.01172.1211-.02735h.14453l.12109-.03125.11719-.02734.10547-.04687.07421-.07422.08594-.0586.14844-.14843.0586-.08594.04687-.10547.02734-.11719.01563-.10547-.10156-.04296-.08985-.0586-.11719-.03125-.10546-.04297-.08985-.0625-.07422-.08594-.07422-.07421-.10156-.04297-.10547-.04688-.10156-.04297-.0586-.08984-.04687-.10156-.08594-.21094-.0625-.08594-.05859-.08984-.07422-.07422-.08594-.0586h-.26953l-.11719.03126-.08984.05859-.10156.04297-.13281.01562-.10547-.01562-.02735-.11719-.0625-.08984-.11718-.03125-.10157-.04297-.14843-.14844-.03125-.11719-.01563-.10546.07422-.07422.17969-.1172.11719-.02733.11718-.03125.13672.01562.10156.04297.10547.04297.10156.04687.10547.04297.1172.03125.1328.01563.1172.02734.1328.01563.10547-.01563.08985-.0586-.07422-.07421-.10547-.04297-.07422-.07422-.07422-.08984-.14844-.14844-.08593-.0586-.08985-.05859-.07422-.07422-.08984-.0586-.10156-.04687-.1211-.02734-.10156-.04688-.10547-.04296-.11719-.03125-.10156-.04297-.1211-.03125h-.14843l-.11719.03125-.10546.04297-.08594.0625-.17969.11718-.08594.0586-.08984.0586-.10547.04687-.08594.05859-.10547.04297-.10156.04297-.10547.04687-.07422.07422-.05859.08985-.0586.08593-.04687.10547-.0586.08594-.07421.07422-.13281-.01172-.1172-.03125h-.11718l-.07422.07422-.08984.0586-.07422.07421-.08984.0586-.08594.05859-.10547.04687-.10156.04297-.13672.01563-.10156-.04297-.14844-.14844-.10547-.04688h-.08594l-.10547.04688-.10156.04297-.1211.03125-.11718-.03125-.07422-.07422v-.11719l.03125-.1211.07422-.0703.0586-.08985.07421-.07422.11719-.03125.10547-.04296h.29297l.13281-.01563.13672-.01563.10156-.04296.08985-.0586.10156-.04687.08984-.0586.13281-.01171.08985.05859.13281.01172.08984-.0586.08594-.05859.10547-.04297.08984-.0586.08594-.0625.08985-.05859.14843-.14843.0586-.08594.05859-.08985.10547-.04296.13281-.01563.11719.02735.1211.03125.05859-.0586.05859-.08984.03125-.26563.02734-.11719.10547.01172.13281.01563.10157-.04297.08984-.0586.0586-.08984.07421-.07422.0586-.08984.04687-.10156.01172-.13281-.01172-.13282-.04687-.10547-.14844-.14843-.0586-.08985-.05859-.08594-.04297-.10546v-.44532l.01563-.1328v-.14845l.01172-.1328-.0586-.0586-.08984.0586-.10156-.04298-.17969-.11719-.08594-.05859-.0625-.08984-.0586-.08985-.07421-.07421-.08594-.0586-.1211.03125-.10155.01172-.10547.04688-.08594.05859-.10547.04297-.14844.14844-.08984.05859-.08594.0586-.08984.0625-.10547.04296-.13281.01563v-.1211l.10547-.04297.11718-.03125.07422-.0703.04297-.10548v-.14844l-.02734-.11718-.14844-.14844-.13281-.01563h-.14844l-.11719.03125-.10547.04297-.10156.04297-.08984.0625-.11719.02735-.07422-.07422.01172-.13281-.04297-.10157-.04297-.10547-.08984-.05859-.11719.02734-.1211.03125-.11718.03125-.10156.04297-.1211.03125-.10156.04297-.10547.04297-.08984.0586-.10156.01562v-.11719l.01562-.13281-.0586-.08985-.07421.04297-.14844.14844-.0586.08985-.07421.07421-.04688.10547-.04296.10156-.07422.07422-.0586.08985-.07422.07422-.05859.08593-.07422.07422-.08984.0625-.07422.07031-.07422.07422-.10156.01563-.13281.01562-.10547-.04296v-.1211l.14843-.14844.04297-.10156.0586-.08984.04687-.10156.04297-.10547.0586-.08985.03124-.11719.04297-.10156.03125-.1211.02735-.11718.04687-.10547.04297-.10156.04297-.10547.07422-.07031.08984-.0625.08985-.0586.10156-.04296h.29687l.26563-.03125.10547-.04297-.07422-.07422-.11719-.03125-.10547-.04297-.08984-.0586-.10156-.04687-.08985-.0586-.10156-.04296-.10547-.04297-.08984-.0625-.08594-.0586-.10547-.04296-.10156-.04297-.1211-.03125-.11718-.03125-.10157-.04297L297.5 410.25l-.10156-.04297-.08985-.0586-.04296-.10546-.01563-.13281.10156-.04297.13281-.01563.13672.01563.13282-.01563.10156-.04297.0586-.08984.01562-.10547-.08985-.0586-.07421-.07421-.10157-.04297-.08984-.0586-.14844-.14843-.04297-.10547-.01562-.13281v-.29297l-.0586-.08985-.08984-.05859-.07422-.07422-.04297-.10547-.03125-.11718-.0586-.08985-.07421-.07422-.11719-.02734-.07422-.07422-.08984-.0586-.08984-.0625-.08594-.05859-.07422-.07421-.0586-.08594-.04687-.10547-.08594-.0586-.14843-.14843-.19532-.0586-.1328.01563-.10157.04297-.07422.07422-.04688.10156-.04296.10547-.0586.08984-.0586.08594-.29687.29687-.08984.0586h-.08594l-.0625-.08594-.04297-.10547.03125-.11719.0586-.08984.02734-.11719-.01172-.13281-.08984-.0625-.10547.04688-.11719.02734-.11719.03125-.26953.17578-.10156.04688-.11719.02734-.10546.04687-.08985.0586-.10156.04297-.0586-.08594-.04687-.10547.01563-.13281.04687-.10547.07031-.07422.07422-.07031.0586-.08985v-.14843l-.04297-.10547h-.23829l-.10156.04687-.03125.11719-.02734.11719-.03125.1211-.07422.04296-.13281.01563-.07422-.04688-.04297-.10156-.04297-.10547-.04687-.10156-.04297-.10547-.1211.03125-.10156.04297-.13281.01562-.11719.03125-.10547.04297-.08984.0586-.10156.04687-.1211.02734-.13281.01563-.10156-.04297-.0586-.08985-.04687-.10546-.04297-.10157-.04297-.10546v-.1172l.0586-.08984.08593-.05859.17969-.11719.10156-.04687.10547-.04297.10547-.0586.10156-.04296.08985-.0625.10156-.04297.10547-.0586.10156-.04687.08984-.0586.10547-.04296.10156-.04297.08985-.0625.10156-.04297.13672-.01563.11719.03125.10156.04297.1211.03125.10156.04297.10546.04688.10157.04296.10547.04297.10156.04688.10547.04297.10156.04297.10547.04687.08594.0586.10546.04296.1172.03125.10546.04297.10156.04688.08985.0586.10547.04296.10156.04297.10547.04687.11719.02735.10156.04687.1211.02735h.14843l.08594-.0586.01562-.10156.0586-.08984-.02735-.1172-.07422-.07421-.11719-.17969-.07421-.07422-.08985-.07421-.17969-.1172-.08593-.05859-.10547-.04296-.10156-.04688-.26954-.17578-.05859-.08985-.07422-.07421-.0586-.08985-.04296-.10156-.03125-.11719-.01563-.13672v-.5625l-.01171-.1328-.01563-.13282-.03125-.11719-.01562-.13281-.01172-.13281-.03125-.1211-.22266-.22265-.0586-.08594-.01562-.10547.03125-.11719.13281-.01562v-91.41406H172.9922v1.45312l-.0586.23438-.35156 1.05078-.17187.52343-.1172.34766-.17577.41016-.11719.17187-.23438.29297-.23046.0586h-.35157l-.11718.05859-.23047.40625v.29297l.11719.17578.23046.23047.1172.23437.64062.75781.29297.46485.17578.23437.23047.35156.23437.34766.64063.8164.17578.46485.17187.41016.11719.69531.17578.46875.11719 1.39844.0586.46484v.875l.11718 1.04688v4.78125l-.0586.46484-.35156 1.28125-.17578.52344-.11328.41015-.35156.9297L172.93359 336l-.23437.58203-.11719.17578-.17187.34766-.17578.40625-.35157.8164-.0586.29297-.11327.29297-.11719.28906-.0586.17579-.11718.875-.0586.40625-.05859.11718-.0586.17579-.05859.17187-.23047.52734-.11718.17188v.23437l-.11719.23438-.0586.17187-.17577.58594v.28906l-.0586.17579v.29296l-.0586.11329-.05859.52734v.17187l-.05468.23438v2.6211l-.17578.8164-.1172.17578-.17577.23438-.1172.17187-.11327.23438-.58594.93359-.23047.28906-.29297.46485-.17578.23437-.28906.35156-.35156.69922-.11328.23047-.17579.41016-.17578.23046-.40625.52735-.8164.69922-.29297.17187-.28906.23438-.17579.11719-.17578.17578-.52344.40625-.52734.17578-.17187.17578-.23438.05469-.64062.17578h-.75782m12.21094 31.02344l-1.07422.44921.35938.89454 1.25-.71485.44531-.53906-.98047-.08985"/><path fill="#d3d3d3" fill-opacity="0" fill-rule="evenodd" d="M201.50781 416.59766h-.89453l.44922.6289.98047.35938.80469-.08985.4453-.98828-.17577.08985-.71485-.35547-.89453.35547m154.6211 59.0703l-.0586-.52343v-.29297l.11328-.29297.0586-.23046.46875-.46875h.11328l.11719-.11329.11718-.05859h.17579l.23437-.0586h.34766l.23437.0586.11719.0586.23047.17187.0586.17578.11718.58203v.29297l-.11719.17578-.17187.28906-.17579.17579-.52734.52343-.23047.23438-.11719.0586h-.17578l-.11718-.0586-.40625-.29297-.17579-.11719-.11718-.0586-.0586-.11327-.05468-.1172m6.64062-10.95702l-.0586-.17188v-1.10937l.0586-.17188.17578-.0586.17188-.05858h.17578l.23437-.0586.1172.0586.05858.69921-.05859.17188-.11719.17578-.11718.0586-.23438.52343-.11328.0586h-.23438l-.05859-.1172m9.61328-14.39062l-.11719-.17578v-.69922l.29297-.875.1172-.17187.17577-.35156.11328-.23047.1172-.29297.35155-.75781.1172-.23047.17187-.23438h.17578l.11719-.0586h.64062l.11719.0586.23437.23438.17188.11328.35156.29297.11719.11718.11328.17579v.11328l.11719.05859.11718.11719v.69922l-.05859.17578v.23047l-.0586.17578-.34765 1.05078-.11719.23047-.11719.23437-.11718.0586-.23047.23437-.64063.28906h-.875l-.41015-.11718-.64063-.46485"/><path fill="none" stroke="#bebebe" stroke-linecap="round" stroke-linejoin="round" stroke-miterlimit="10" stroke-width=".5" d="M467.95703 311.69531H144.02734v168.625h323.9297v-168.625"/><g clip-path="url(#a)"><path fill="#fff" fill-opacity="0" fill-rule="evenodd" d="M144 475.89063v4.4375h.0039H144v-29.9375 25.5"/></g><g clip-path="url(#b)"><path fill="#fff" fill-opacity="0" fill-rule="evenodd" d="M144 444.82031v3.17188-136.32031h.0039H144V444.8203"/></g><path fill="#50fcfc" fill-rule="evenodd" d="M144 447.99219v2.39844l.0039-.00391v-2.39063l-.0039-.0039"/><g clip-path="url(#c)"><path fill="#fff" fill-opacity="0" fill-rule="evenodd" d="M144.0039 480.32813v-29.94141l.83204-1.125-.83203-1.26563V311.67188h26.625v125.47265l-4.4375.20703-4.4375 1.64453-3.59375 1.38672 3.33203 4.4375.26172.51563.49218-.51563 3.94532-1.27734 4.4375-1.3711 2.66015-1.78906-2.66015-3.23828V311.67188h13.3164v140.9453l-1.58594 1.08204-2.85156 3.4961-4.4414-2.6875-4.4375 2.77343-4.4375-.35547-4.4375-.23047-.23828 1.4414-2.36329 4.4375 2.60157 2.50392 4.4375-1.05079 2.55078-1.45312 1.88672-3.0039 4.4375 1.29687 4.4414.44922 4.4375-.69922 4.4375-1.5625 3.49219-.91797-3.49219-.84375-3.64062-3.59375-.79688-1.08203V311.67188h48.82031v116.40234l-4.4375.10156-3.25 3.33203-1.1875 3.60156-4.4375.125-3.21484.71094-1.22266.97656-4.4414.3047-4.4375 1.66796-4.4375.96485-3.98047.52343-.45703.25781-1.08984 4.1797 1.08984 3.25 3.66016-3.25.77734-1.26173 4.4375.71094 1.1211.55078 3.3164.76953 2.14844-.76953 2.29297-1.5586 4.4375-.9375 4.4375-.66405 3.05078-1.27735-1.90625-4.4375 3.29297-.8711.375.8711 4.0625 3.98828 4.4414-1.40625 1.65234 1.85547 2.78516 2.71875 4.4375-.71875 1.8164-2-1.8164-2.30469-3.79687-2.1328-.64063-1.07813-4.4375-2-2.25-1.35938-2.1914-3.4336V311.67189h26.6328v121.28906l-4.4414 1-1.60547 1.98437 1.60547 1.71485 4.4414.93359 2.34766-2.64844-2.34765-2.98437V311.67188h8.875v116.1953l-3.73828 3.64063 3.73828 2.86328 4.4375-1.05859 4.4414.44922 4.4375 1.10937.98829 1.07422 3.44921 2.42188 4.4375-.79297 1.66407-1.6289-1.66407-1.84376-4.4375-1.05078-1.65625-1.54297-2.78125-2.41015-4.4375-.26954-4.4414-.1914-4.4375-.76953V311.67188h79.89062v123.23046l-1.0625 1.04297 1.0625 1.09766 2.74219-1.09766-2.74219-1.04297V311.67188h26.6289v127.46875l-1.39843 1.24218 1.39844 1.75781 3.4336 2.6797-3.4336 1.7539-1.73438 2.6875 1.73438 1.61328 1.79297-1.61328 2.64844-3.92969.57421-.51172-.57421-.63672-3.22657-3.80078-1.21484-1.24219V311.67188h17.7539V453.8047l-4.4375.8086-4.4375 1.5664-1.96484 1.95703-1.57031 4.4375 3.53515 3.64062.5547.80079 3.8828 3.71484 4.4375-1.3711 3.83985-2.34375-.05078-4.4414-.125-4.4375-3.66406-4.33203V311.67188h75.44921v150.43359l-.46484.46875.46484.46094v17.29296H144.00391"/></g><path fill="#50fcfc" fill-rule="evenodd" d="M144.83594 449.26172l-.83203 1.125v-2.39063l.83203 1.26563m16.65625-4.4414l-3.33203-4.4375 3.59375-1.38673 4.4375-1.64453 4.4375-.20703 2.66015 3.23828-2.66015 1.78906-4.4375 1.3711-3.94532 1.27734-.49218.51563-.26172-.51563m.26172 20.25781l-2.60157-2.5039 2.36328-4.4375.23829-1.4414 4.4375.23046 4.4375.35547 4.4375-2.77344 4.4414 2.6875 2.85156-3.4961 1.58594-1.08202.79688 1.08203 3.64062 3.59375 3.49219.84375-3.49219.91797-4.4375 1.5625-4.4375.69922-4.4414-.44922-4.4375-1.29688-1.88672 3.0039-2.55078 1.45313-4.4375 1.05079m35.5078-17.00782l-1.08983-3.25 1.08984-4.17969.45703-.2578 3.98047-.52344 4.4375-.96485 4.4375-1.66797 4.4414-.30469 1.22266-.97656 3.21484-.71094 4.4375-.125 1.1875-3.60156 3.25-3.33203 4.4375-.10156v5.1836l-2.09375 2.6875L232.76563 438l3.5-2.05469-3.5-2.6875v-5.1836l2.19141 3.4336 2.25 1.35938 4.4375 2 .64063 1.07812 3.79687 2.13281 1.8164 2.3047-1.8164 2-4.4375.71874-2.78516-2.71875-1.65234-1.85547-4.4414 1.40625-4.0625-3.98828-.375-.8711-3.29297.8711 1.90625 4.4375-3.05078 1.27735-4.4375.66406-4.4375.9375-2.29297 1.5586-2.14844.76952-3.3164-.76953-1.1211-.55078-4.4375-.71094-.77734 1.26172-3.66016 3.25"/><path fill="#00e8fc" fill-rule="evenodd" d="M232.76563 438l-2.09375-2.05469 2.09375-2.6875 3.5 2.6875-3.5 2.05469"/><path fill="#50fcfc" fill-rule="evenodd" d="M254.95703 437.66016l-1.60547-1.71485 1.60547-1.98437 4.4414-1 2.34766 2.98437-2.34765 2.64844-4.4414-.9336m13.3164-3.28906l-3.73828-2.86328 3.73828-3.64062v3.47656l-.16797.16406.16797.1289.34375-.1289-.34375-.16406v-3.47656l4.4375.76953 4.4414.1914 4.4375.26954 2.78125 2.41015 1.65625 1.54297 4.4375 1.05078 1.66407 1.84375-1.66407 1.6289-4.4375.79298-3.44921-2.42188-.98829-1.07422-4.4375-1.10937-4.4414-.44922-4.4375 1.0586"/><path fill="#00e8fc" fill-rule="evenodd" d="M268.27344 431.63672l-.16797-.1289.16797-.16407.34375.16406-.34375.1289"/><path fill="#50fcfc" fill-rule="evenodd" d="M348.16406 437.04297l-1.0625-1.09766 1.0625-1.04297 2.74219 1.04297-2.74219 1.09766m26.6289 13.83203l-1.73437-1.61328 1.73438-2.6875 3.4336-1.7539-3.4336-2.6797-1.39844-1.7578 1.39844-1.2422 1.21484 1.2422 3.22656 3.80077.57422.63672-.57421.51172-2.64844 3.92969-1.79297 1.61328m8.8789 15.33984l-3.53515-3.64062 1.57031-4.4375 1.96485-1.95703 4.4375-1.5664 4.4375-.8086v3l-4.4375.16015-2.0547 1.17188-2.3828 3.89453-.26563.54297.26563.27344 2.90625 4.16796 1.53125 1.46094 2.92578-1.46094 1.51171-1.44921 1.5547-2.9922-.42579-4.4375-1.1289-1.33202v-3l3.66406 4.33203.125 4.4375.05078 4.4414-3.83985 2.34375-4.4375 1.3711-3.8828-3.71485-.5547-.80078"/><path fill="#00e8fc" fill-rule="evenodd" d="M383.67188 462.84766l-.26563-.27344.26563-.54297 2.3828-3.89453 2.0547-1.17188v3.89844l-1.40625 1.71094 1.40625 1.86328 1.91015-1.86328-1.91015-1.71094v-3.89844l4.4375-.16015 1.1289 1.33203.42578 4.4375-1.55469 2.99219-1.51171 1.44921-2.92579 1.46094-1.53125-1.46094-2.90625-4.16796"/><path fill="#00d4fc" fill-rule="evenodd" d="M388.10938 464.4375l-1.40625-1.86328 1.40625-1.71094 1.91015 1.71094-1.91015 1.86328"/><path fill="#50fcfc" fill-rule="evenodd" d="M467.9961 463.03516l-.46485-.46094.46484-.46875v.92969"/><g clip-path="url(#d)"><path fill="#fff" fill-opacity="0" fill-rule="evenodd" d="M467.9961 480.32813H468v-17.29297 17.29296h-.0039"/></g><path fill="#50fcfc" fill-rule="evenodd" d="M467.9961 462.10547v.92969H468v-.9297h-.0039"/><g clip-path="url(#e)"><path fill="#fff" fill-opacity="0" fill-rule="evenodd" d="M467.9961 311.67188H468v150.43359-150.4336h-.0039"/></g><g clip-path="url(#f)"><path fill="none" stroke="#000" stroke-linecap="round" stroke-linejoin="round" stroke-miterlimit="10" stroke-width=".5" d="M147.47266 480.8711l-6.94532-1.08594"/></g><g clip-path="url(#g)"><path fill="none" stroke="#000" stroke-linecap="round" stroke-linejoin="round" stroke-miterlimit="10" stroke-width=".5" d="M147.47266 480.8711l.80078 2.3203"/></g><g clip-path="url(#h)"><path fill="none" stroke="#000" stroke-linecap="round" stroke-linejoin="round" stroke-miterlimit="10" stroke-width=".5" d="M160.79297 480.82422l-6.95703-.98828"/></g><g clip-path="url(#i)"><path fill="none" stroke="#000" stroke-linecap="round" stroke-linejoin="round" stroke-miterlimit="10" stroke-width=".5" d="M160.79297 480.82422l.83594 2.30469"/></g><g clip-path="url(#j)"><path fill="none" stroke="#000" stroke-linecap="round" stroke-linejoin="round" stroke-miterlimit="10" stroke-width=".5" d="M174.10938 480.82422l-6.95704-.99219"/></g><g clip-path="url(#k)"><path fill="none" stroke="#000" stroke-linecap="round" stroke-linejoin="round" stroke-miterlimit="10" stroke-width=".5" d="M174.10938 480.82422l.83593 2.30469"/></g><g clip-path="url(#l)"><path fill="none" stroke="#000" stroke-linecap="round" stroke-linejoin="round" stroke-miterlimit="10" stroke-width=".5" d="M187.4414 480.66406l-6.99218-.67187"/></g><g clip-path="url(#m)"><path fill="none" stroke="#000" stroke-linecap="round" stroke-linejoin="round" stroke-miterlimit="10" stroke-width=".5" d="M187.4414 480.66406l.94141 2.26563"/></g><g clip-path="url(#n)"><path fill="none" stroke="#000" stroke-linecap="round" stroke-linejoin="round" stroke-miterlimit="10" stroke-width=".5" d="M200.77344 480.41016l-7.02735-.16016"/></g><g clip-path="url(#o)"><path fill="none" stroke="#000" stroke-linecap="round" stroke-linejoin="round" stroke-miterlimit="10" stroke-width=".5" d="M200.77344 480.41016l1.10156 2.1914"/></g><g clip-path="url(#p)"><path fill="none" stroke="#000" stroke-linecap="round" stroke-linejoin="round" stroke-miterlimit="10" stroke-width=".5" d="M214.08594 480.1914l-7.02344.27344"/></g><g clip-path="url(#q)"><path fill="none" stroke="#000" stroke-linecap="round" stroke-linejoin="round" stroke-miterlimit="10" stroke-width=".5" d="M214.08594 480.1914l1.23437 2.1211"/></g><g clip-path="url(#r)"><path fill="none" stroke="#000" stroke-linecap="round" stroke-linejoin="round" stroke-miterlimit="10" stroke-width=".5" d="M227.39063 480.03516l-7 .58593"/></g><g clip-path="url(#s)"><path fill="none" stroke="#000" stroke-linecap="round" stroke-linejoin="round" stroke-miterlimit="10" stroke-width=".5" d="M227.39063 480.03516l1.33203 2.0625"/></g><g clip-path="url(#t)"><path fill="none" stroke="#000" stroke-linecap="round" stroke-linejoin="round" stroke-miterlimit="10" stroke-width=".5" d="M240.71875 480.375l-7.02734-.08984"/></g><g clip-path="url(#u)"><path fill="none" stroke="#000" stroke-linecap="round" stroke-linejoin="round" stroke-miterlimit="10" stroke-width=".5" d="M239.69531 480.35938l.5625 1.09375"/></g><g clip-path="url(#v)"><path fill="none" stroke="#000" stroke-linecap="round" stroke-linejoin="round" stroke-miterlimit="10" stroke-width=".5" d="M254.03516 480.36328l-7.02735-.07031"/></g><g clip-path="url(#w)"><path fill="none" stroke="#000" stroke-linecap="round" stroke-linejoin="round" stroke-miterlimit="10" stroke-width=".5" d="M254.03516 480.36328l1.1289 2.17969"/></g><g clip-path="url(#x)"><path fill="none" stroke="#000" stroke-linecap="round" stroke-linejoin="round" stroke-miterlimit="10" stroke-width=".5" d="M267.33203 480.67188l-6.99219-.6875"/></g><g clip-path="url(#y)"><path fill="none" stroke="#000" stroke-linecap="round" stroke-linejoin="round" stroke-miterlimit="10" stroke-width=".5" d="M266.3164 480.57031l.46485 1.13672"/></g><g clip-path="url(#z)"><path fill="none" stroke="#000" stroke-linecap="round" stroke-linejoin="round" stroke-miterlimit="10" stroke-width=".5" d="M280.66016 480.51172l-7.01953-.36719"/></g><g clip-path="url(#A)"><path fill="none" stroke="#000" stroke-linecap="round" stroke-linejoin="round" stroke-miterlimit="10" stroke-width=".5" d="M279.63672 480.46094l.51953 1.10937"/></g><g clip-path="url(#B)"><path fill="none" stroke="#000" stroke-linecap="round" stroke-linejoin="round" stroke-miterlimit="10" stroke-width=".5" d="M293.77734 481.50781l-6.62109-2.35937"/></g><g clip-path="url(#C)"><path fill="none" stroke="#000" stroke-linecap="round" stroke-linejoin="round" stroke-miterlimit="10" stroke-width=".5" d="M292.8125 481.16406l.17969 1.21485"/></g><g clip-path="url(#D)"><path fill="none" stroke="#000" stroke-linecap="round" stroke-linejoin="round" stroke-miterlimit="10" stroke-width=".5" d="M306.7461 482.21484l-5.9297-3.77343"/></g><g clip-path="url(#E)"><path fill="none" stroke="#000" stroke-linecap="round" stroke-linejoin="round" stroke-miterlimit="10" stroke-width=".5" d="M319.76953 482.60938l-5.34765-4.5586"/></g><g clip-path="url(#F)"><path fill="none" stroke="#000" stroke-linecap="round" stroke-linejoin="round" stroke-miterlimit="10" stroke-width=".5" d="M332.09766 483.41016l-3.3711-6.16407"/></g><g clip-path="url(#G)"><path fill="none" stroke="#000" stroke-linecap="round" stroke-linejoin="round" stroke-miterlimit="10" stroke-width=".5" d="M345.05078 483.58203l-2.64844-6.50781"/></g><g clip-path="url(#H)"><path fill="none" stroke="#000" stroke-linecap="round" stroke-linejoin="round" stroke-miterlimit="10" stroke-width=".5" d="M358.32813 483.59766l-2.57422-6.53907"/></g><g clip-path="url(#I)"><path fill="none" stroke="#000" stroke-linecap="round" stroke-linejoin="round" stroke-miterlimit="10" stroke-width=".5" d="M371.57422 483.625l-2.4336-6.59375"/></g><g clip-path="url(#J)"><path fill="none" stroke="#000" stroke-linecap="round" stroke-linejoin="round" stroke-miterlimit="10" stroke-width=".5" d="M382.11719 483.48047l3.10547-6.30469"/></g><g clip-path="url(#K)"><path fill="none" stroke="#000" stroke-linecap="round" stroke-linejoin="round" stroke-miterlimit="10" stroke-width=".5" d="M393.60938 481.29688l6.7539-1.9336"/></g><g clip-path="url(#L)"><path fill="none" stroke="#000" stroke-linecap="round" stroke-linejoin="round" stroke-miterlimit="10" stroke-width=".5" d="M394.58984 481.01563l-.85156-.88282"/></g><g clip-path="url(#M)"><path fill="none" stroke="#000" stroke-linecap="round" stroke-linejoin="round" stroke-miterlimit="10" stroke-width=".5" d="M407.57422 482.54297l5.45312-4.42969"/></g><g clip-path="url(#N)"><path fill="none" stroke="#000" stroke-linecap="round" stroke-linejoin="round" stroke-miterlimit="10" stroke-width=".5" d="M421.28906 482.96094l4.65625-5.26563"/></g><g clip-path="url(#O)"><path fill="none" stroke="#000" stroke-linecap="round" stroke-linejoin="round" stroke-miterlimit="10" stroke-width=".5" d="M438.83984 483.27734l-3.8164-5.89843"/></g><g clip-path="url(#P)"><path fill="none" stroke="#000" stroke-linecap="round" stroke-linejoin="round" stroke-miterlimit="10" stroke-width=".5" d="M453.28516 482.08984l-6.07813-3.52343"/></g><g clip-path="url(#Q)"><path fill="none" stroke="#000" stroke-linecap="round" stroke-linejoin="round" stroke-miterlimit="10" stroke-width=".5" d="M463.98047 483.8164l-.83594-6.97656"/></g><g clip-path="url(#R)"><path fill="none" stroke="#000" stroke-linecap="round" stroke-linejoin="round" stroke-miterlimit="10" stroke-width=".5" d="M147.49219 467.40234l-6.98438-.77734"/></g><path fill="none" stroke="#000" stroke-linecap="round" stroke-linejoin="round" stroke-miterlimit="10" stroke-width=".5" d="M147.49219 467.40234l.90625 2.28125m12.375-2.04297l-6.91406-1.2539m6.91406 1.2539l.7461 2.33985m12.58202-2.42188l-6.9414-1.08984m6.9414 1.08984l.80078 2.32032m12.54297-2.57422l-7-.58203m7 .58203l.96875 2.2539m12.35547-2.73828l-7.01562.38672m7.01562-.38672l1.26953 2.09766m12.03516-2.20313l-7 .59766m7-.59766l1.33594 2.0586m11.94922-2.32813l-6.9375 1.13672m6.9375-1.13672l1.48437 1.95313m11.82031-2.0039l-6.91797 1.23827m5.91016-1.0586l.75781.96485m13.58203-1.04687l-6.94922 1.04297m5.9375-.89063l.73047.98438m13.62891-.78125l-7.01953.33203m6-.28516l.625 1.05469m13.6914-1.34766l-6.98046.82422m5.96484-.70312l.69922 1.0078m13.5586-1.53905l-6.83204 1.64453m5.83594-1.40625l.8164.91797m13.5547-.82813l-6.95704.98828m5.94531-.84375l.72266.99219m13.59375-1.20313l-6.9336 1.1211m5.92579-.95703l.74218.97656m12.39844 2.08984l-4.57031-5.33984m3.90625 4.5625l-.44922 1.14063m12.07031.48046l.14844-7.02734m-.1289 6.0039l-1.09376.5547m12.34766-.2422l4.23047-5.60546M355.53906 469l-1.21094-.1914m12.76954-.47657l6.51562-2.63672m-5.5664 2.2539l-.94141-.78905m13.16797.74218l6.79687-1.77734m-5.8086 1.51953l-.83202-.90234m13.27343 1.52344l6.56641-2.50391m-5.60937 2.14062l-.92579-.80468m13.20313-1.09375l6.73047 2.01953m-5.7539-1.72656l-.23829-1.20313m17.55078-1.20312l-3.21875 6.24609m2.75-5.33594l1.22656-.01953m14.13282 3.71484l-6.3711-2.96484m14.54688-1.4375l3.90625 5.83984m11.03515.57813l.65625-6.9961m-.5625 5.97657l-1.1328.47265"/><g clip-path="url(#S)"><path fill="none" stroke="#000" stroke-linecap="round" stroke-linejoin="round" stroke-miterlimit="10" stroke-width=".5" d="M147.51172 453.58594l-7.02344.22265"/></g><path fill="none" stroke="#000" stroke-linecap="round" stroke-linejoin="round" stroke-miterlimit="10" stroke-width=".5" d="M147.51172 453.58594l1.21875 2.1289m12.04687-1.41797l-6.92578-1.19921m6.92578 1.19922l.76563 2.33203m12.4961-2.08203l-6.82032-1.69532m5.82813 1.44922l.29687 1.1875m13.96875-.78906l-6.73438-2m5.75391 1.71094l.2461 1.19922m14.1875-2.17188l-7.00782.52344m5.98828-.44922l.65235 1.03906m13.28515-2.49219l-6.21484 3.27735m5.3086-2.80078l1.01562.6914m12.72266-1.86328l-5.25 4.66797m4.48828-3.98828l1.14843.42578m13.71875.41016l-6.83203 1.64062m5.83985-1.40234l.8125.91797m13.5078-1.10157l-6.85937 1.53125m5.86328-1.30859l.79688.92969m13.42188-1.49219L260.5 454.80469m5.69922-1.89063l.88672.84766m12.92968-2.09375l-5.73046 4.0625m4.89843-3.47266l1.09375.55078m12.56641-1.6953l-4.75781 5.17187m4.0664-4.41797l1.1875.3086m13.72266.26562l-6.5625 2.51171m16.85937-4.7578l-.52734 7.0078m10.91797-5.79687l5.32031 4.58594m8.79297.6836l3.72656-5.95704m-3.1875 5.08984l-1.22265-.08593m13.91797.90234l3.88671-5.85547m-3.3203 5.0039l-1.22266-.11718m13.19921-4.1875l5.4336 4.45703m-4.64453-3.8086l.24218-1.20312m12.25782.58594l5.48437 4.39453m-4.6875-3.7539l.22656-1.20313m11.77735 1.44531l6.51172 2.63281m-5.5664-2.25l-.12892-1.21875m16.77735 2.15235l-.01953-.19922-.0586-.1914-.09375-.1797-.46093-.375-.19141-.05859-.19922-.01953-.19922.01953-.1914.0586-.45704.375-.09765.17968-.0586.19141-.01953.19922.01953.19922.0586.1914.09765.17578.45704.37891.1914.0586.19922.01953.19922-.01954.1914-.05859.46094-.3789.09375-.17579.0586-.1914.01953-.19922m15.73828.6875l-6.89063-1.375m14.16797 3.0586l5.1836-4.7422m-4.42969 4.05079l-1.15625-.41016m13.66406-3.58203l5.28906 4.625m-4.51953-3.95313l.27735-1.1953m18.29297 1.87108l-6.75782 1.9297m5.77344-1.64845l.85156.88282"/><g clip-path="url(#T)"><path fill="none" stroke="#000" stroke-linecap="round" stroke-linejoin="round" stroke-miterlimit="10" stroke-width=".5" d="M147.51172 440.35547l-7.02344.05469"/></g><path fill="none" stroke="#000" stroke-linecap="round" stroke-linejoin="round" stroke-miterlimit="10" stroke-width=".5" d="M147.51172 440.35547l1.17187 2.16015m11.97266-1.04687l-6.6836-2.17188m6.6836 2.17188l.42578 2.41797m12.63672-1.82813l-6.17969-3.34765m5.28125 2.85937l-.00781 1.22656m14.10547-.53906l-5.94531-3.75m5.07812 3.20313l-.08984 1.22656m12.5586.72656L196 437.10546m2.15234 5.60548l-.80468.92578m12.70703.22265l1.04297-6.94921m10.74609 6.32812l4.09375-5.71094m9.44922-.14843l3.63672 6.01172m9.35156-5.78907l4.28906 5.5664M249 438.41017l.50781-1.1172m15.21094-.30859l-1.76563 6.80079m1.50782-5.8125l1.19531-.28516m12.25781-.73438l-1.52734 6.85938m13.67578-6.91797l.80469 6.98047m-.6875-5.96484l1.01172-.69922m14.59765.28906l-4.01562 5.76563m3.42969-4.92579l1.21875.14454m13.14843-.59375l-4.94922 4.98437m13.23047-4.89844l5.1211 4.8125m9.23437-5.57422l3.03906 6.33594m9.32032-5.66015l4.94922 4.98437m-4.23047-4.25781l.36328-1.17188m12.29297.38672l4.83203 5.10156m-4.83203-5.10156l.78125-2.32422m11.47656 5.41797l6.94531-1.08203m-5.9336.92188l-.73827-.98047m14.53906 3.5039l3.94922-5.8125m-3.375 4.96875l-1.21875-.13281m19.28125-.86328l-6.69531-2.13281m5.72265 1.82422l.21875 1.20703m10.89063 1.54687l-.33594-7.01953m.28516 5.9961l-1.0547.6289m16.89063-.79687l-5.27734-4.63672m5.27734 4.63672l-.5625 2.38671m14.73828-5.0039l-7 .59375m5.98438-.50781l.66406 1.03125m11.92578-3.85938l-3.51953 6.08203"/><g clip-path="url(#U)"><path fill="none" stroke="#000" stroke-linecap="round" stroke-linejoin="round" stroke-miterlimit="10" stroke-width=".5" d="M147.4375 426.34766l-6.875 1.4414"/></g><path fill="none" stroke="#000" stroke-linecap="round" stroke-linejoin="round" stroke-miterlimit="10" stroke-width=".5" d="M146.4375 426.5586l.78516.9414m13.58593-.0586l-6.98828-.74609m5.97266.63672l.45703 1.13672m13.69531-.23828l-6.6289-2.32422m5.66406 1.98828l.1836 1.21094m13.34765.36328l-5.13281-4.80078m4.38672 4.10156l-.32032 1.1836m14.21094-.3125l-4.78906-5.14454m4.08984 4.39453l-.39844 1.16016m15.46875-2.3164l-6.90234-1.33204m5.89844 1.13672l.35937 1.17188m10.47656-5.15625l.0625 7.02734m-.05468-6.0039l1.07812-.58594m15.35547 4.73828l-6.1914-3.32422m18.6914 4.33594l-4.5625-5.34375m13.78516 5.67968l3.625-6.01953m10.0039-.16797l2.9961 6.35547m10.1289-6.2578l3.375 6.16015m10.13282.10156l2.98828-6.35938m-2.55078 5.4336l-1.22657.0586m14.16016-5.51954l2.8789 6.41016m-2.8789-6.41016l1.5039-1.9375m13.09376 1.63281l.3125 7.01953m-.3125-7.01953l2.11328-1.24609m11.83984 1.27734l-.96094 6.96094m.82032-5.94922l1.15234-.42187m8.51953 4.08593l6.60547-2.39453m6.5039 1.35938l7.01954-.32422m6.89843-1.8164l5.8086 3.95702m-5.8086-3.95703l.26954-2.4375m18.42968 6.90625l-4.95703-4.98047m4.95703 4.98047l-.72265 2.34375m11.8086-1.32812l-.5-7.01172m.5 7.01172l-2.07813 1.30078m18.21875-6.50781l-6.14844 3.40234m6.14844-3.40234l2.05468 1.33593m10.96485-1.78515l-5.5586 4.30078m5.5586-4.30078l2.23437 1.00781M451.96094 424l-3.42578 6.13672M451.96094 424l2.45312.05078m11.46875.38281l-4.64453 5.26953m3.96875-4.5039l1.19531.28515"/><g clip-path="url(#V)"><path fill="none" stroke="#000" stroke-linecap="round" stroke-linejoin="round" stroke-miterlimit="10" stroke-width=".5" d="M147.15625 412.20703l-6.3125 3.09375"/></g><path fill="none" stroke="#000" stroke-linecap="round" stroke-linejoin="round" stroke-miterlimit="10" stroke-width=".5" d="M146.23828 412.65625l.99219.71875m13.57422.78906l-6.98047-.82031m5.96484.69922l.44531 1.14453m13.28907.5586l-5.78516-3.98829m19.69922 2.38281l-6.98438-.77343m19.41016-1.97266l-5.20703 4.71875m4.44922-4.03125l1.15625.41406m6.80078 1.3711l7.02344-.23047m-6 .19922l-.61328-1.0625m12.90625 1.125l7.02343-.28907m-6 .2461l-.62109-1.0586M235.85938 417l2.6914-6.49219m-2.29687 5.54688l-1.22266.11719m17.4414.5039l-3.90234-5.84375m3.33594 4.99219l-.58203 1.08203m14.83203-.51563l-4.64063-5.27343m16.65625 2.63672l-.01953-.19922-.05859-.1914-.09375-.1797-.45703-.375-.1914-.05859-.19923-.01953-.19922.01953-.1953.0586-.45704.375-.09375.17968-.0586.1914-.01952.19923.01953.19921.0586.19141.09374.17578.45703.3789.19532.0586.19921.01953.19922-.01953.1914-.0586.45704-.3789.09375-.17578.0586-.1914.01953-.19922m8.8125-.48438l6.96093.96875m7.88672 2.4375l3.89844-5.84766m14.78906 3.71485l-6.84765-1.57813m17.58593 4.19922l-1.69531-6.82031m17.5664 4.28516l-6.80468-1.75m20.15234 1.61328l-6.8711-1.47657m5.8711 1.26172l.33594 1.1797m13.92578-.75l-6.76562-1.90626m5.78125 1.6289l.26172 1.19923m10.86328-5.38282l-.41797 7.01563m.35937-5.9961l1.11328-.5078m11.01172-.35938l2.07813 6.71093m-2.07813-6.71093l1.73047-1.74219m14.70313 2.26172l-4.15625 5.66797m4.15625-5.66797l2.42968.35156m11.42188.13672l-5.22656 4.69531m4.46484-4.01172l1.15234.41797m13.06641-.9336l-5.51172 4.35938m4.71094-3.72656l1.1211.49219m12.72656-1.42578l-4.97657 4.96093m4.97657-4.96093l2.34765.72265m9.50781-1.60156l-2.05468 6.71875m1.7539-5.74219l1.20703-.23437"/><g clip-path="url(#W)"><path fill="none" stroke="#000" stroke-linecap="round" stroke-linejoin="round" stroke-miterlimit="10" stroke-width=".5" d="M146.71484 398.20703l-5.42968 4.46094"/></g><path fill="none" stroke="#000" stroke-linecap="round" stroke-linejoin="round" stroke-miterlimit="10" stroke-width=".5" d="M145.92578 398.85547l1.13281.47265M159.84375 398l-5.0586 4.875m15.89063 1.07813l-.08984-7.02735m16.83203 2.96485l-6.94531 1.09375m19.9414-2.09766l-6.3086 3.10156m5.39063-2.64844l.9961.71875m6.58594.03907l6.99609.68359m13.1914-1.3125l-6.7539 1.9414m5.77344-1.66015l.85156.88281m13.57422.05078l-7.01172-.48828m5.99219.41797l.5 1.1211m13.75-.5l-6.84375-1.59375m5.84765 1.36328l.3164 1.18359m14.07032-2.08594l-6.99219.67578m5.97657-.57812l.67578 1.02344m13.4961-1.88282l-6.67579 2.19532m5.70313-1.875l.88671.84765m13.52344-.67578l-6.92187 1.21485m5.91406-1.03907l.75781.96875m13.21875-2.16406l-6.22656 3.2539m19.88281-2.26952l-6.91016 1.28515m5.90625-1.09765l.76172.95703m13.57422-1.03907l-6.94531 1.07422m5.9336-.91797l.73827.98047m12.83594 1.625l-5.4375-4.45312m4.64453 3.80469l-.23828 1.20312m12.89844.4961l-2.54297-6.55079m2.17188 5.59766l-.80079.92969m15.57422-.64844l-4.71875-5.21094m4.03125 4.45313l-.41406 1.15234m14.92188-5.03516l-5.73047 4.07032m4.89843-3.47657l1.09766.55079m11.76172-2.2461l-3.15234 6.27735m2.6953-5.3672l1.22657-.02734m14.47656 2.02344l-7.01172.46094m5.9922-.39453l.64452 1.04687m12.45313-3.5625l-4.53906 5.36328m3.8789-4.58593l1.19922.26171m11.76172-1.64062l-2.51172 6.5625m2.14453-5.60547l1.21875-.15234m13.66016-.03906l-4.90625 5.03125m4.90625-5.03125l2.35547.6914m9.94922-1.3789l-2.88282 6.41015m2.46094-5.47656l1.22656-.08203"/><g clip-path="url(#X)"><path fill="none" stroke="#000" stroke-linecap="round" stroke-linejoin="round" stroke-miterlimit="10" stroke-width=".5" d="M147.32031 385.97266l-6.64062 2.30078"/></g><path fill="none" stroke="#000" stroke-linecap="round" stroke-linejoin="round" stroke-miterlimit="10" stroke-width=".5" d="M147.32031 385.97266l1.79688 1.67187m-2.76172-1.33594l.89844.83204m13.48437-.81641l-6.84375 1.59765m6.84375-1.59765l1.61328 1.84765m11.54297.25391l-6.52734-2.60547m6.52734 2.60547l.26563 2.4375m12.73828-1.83594l-5.90625-3.80468m5.90625 3.80468l-.20313 2.44532m11.4414-.94532l-1.75-6.80859m1.4922 5.8164l-.90235.82813m16.85547-1.91797l-6.51172-2.64453m6.51172 2.64453l.25 2.4414m13.27344-3.17577l-6.92969-1.17578m6.92969 1.17578l.77344 2.32812m12.58984-2.91406h-7.02734m7.02734 0l1.15234 2.16406m12.14063-2.55078l-6.98438.76953m6.98438-.76953l1.38281 2.03125m11.64844-3.08203l-6.41406 2.8711m5.48046-2.45313l.96875.7539m12.9961-1.68359l-5.84766 3.89453m4.9961-3.32812l1.08203.58203m13.5-.29688l-6.67578 2.19141m5.70312-1.875l.88672.85156m12.83984-2.22265l-5.55468 4.30078m4.74609-3.67578l1.11719.5039m12.90234-1.25781l-5.34766 4.5586m4.57032-3.89454l1.14062.44922m13.33203-.57031l-6.10937 3.47265m5.22265-2.96484l1.03516.65625m13.48438 1.5664l-6.7422-1.98827m5.75782 1.69921l.2461 1.20313m12.94921.77734l-4.53515-5.37109m3.875 4.58984l-.45703 1.13672m15.21484-4.78515l-6.10156 3.48828m5.21484-2.98047l1.03516.65625m12.32422-2.15235l-4.41407 5.46485m3.76953-4.67188l1.20704.23438m12.86718-.9336l-4.64453 5.27735m3.96875-4.50781l1.1914.28125m12.88673-.96875l-4.82032 5.11328m4.82032-5.11328l2.36718.64843m10.26563-1.15234l-3.45313 6.1211m3.45313-6.1211l2.44922.0625m10.23828-.33984l-2.20313 6.67578m1.88282-5.70313l1.21093-.20703m12.71094-.65625l-2.77344 6.45703m2.77344-6.45703l2.44531-.20312m12.63672 1.8828l-6.30468 3.10157m5.38671-2.65234l.9961.71875"/><g clip-path="url(#Y)"><path fill="none" stroke="#000" stroke-linecap="round" stroke-linejoin="round" stroke-miterlimit="10" stroke-width=".5" d="M147.47656 373.29297l-6.95312 1.03125"/></g><path fill="none" stroke="#000" stroke-linecap="round" stroke-linejoin="round" stroke-miterlimit="10" stroke-width=".5" d="M147.47656 373.29297l1.45703 1.97656m-2.46875-1.82422l1.45703 1.97266m12.90235-1.4336l-7.01953-.35156m7.01953.35156l1.04297 2.21875m-2.0625-2.26953l1.03906 2.21875m13.29688-2.18359l-7.01954-.32031m7.01953.32031l1.05079 2.21484m11.76172-.5625l-6.01563-3.6289m6.01563 3.6289l-.13282 2.45313m13.94531-4.04297l-7.01171-.44531m5.99218.38281l.50782 1.11719m13.82422-1.02344l-7.00782-.50781m5.98828.4336l.4961 1.12108m13.76953-.55859l-6.86719-1.48437m5.86719 1.26562l.33594 1.1836m14.02734-1.2422l-6.96484-.92968m5.95312.79297l.42578 1.14844m13.89063-2.00782l-6.94531 1.0625m5.9375-.91015l.73046.98437m13.37891-1.92187l-6.51563 2.6289m5.56641-2.24609l.9414.78906m13.34376-1.11719l-6.5586 2.52344m5.60547-2.15625l.92578.80469m13.48047-.72656l-6.83593 1.63281m5.84375-1.39453l.80859.91797m13.3711-1.57422l-6.57813 2.46875m5.6211-2.10938l.91796.8086m13.26172-1.39063l-6.39453 2.91406m5.46484-2.48828l.97266.7461m13.25781-1.19922l-6.36719 2.96875m5.4414-2.53906l.98048.73828m12.88281-1.80078l-5.60937 4.23046m4.79296-3.61328l1.11329.51954m13.59375.01953l-6.76172 1.91796m5.77734-1.63671l.85156.8828m13.51953-.85155l-6.90625 1.29687m5.90235-1.10937l.76562.96093m12.96094-2.54296l-5.71875 4.08203m5.71875-4.08204l2.19531 1.09766m10.42188-1.82422l-4.32422 5.53906m4.32422-5.53906l2.41797.42578m10.85547-.45703l-4.2422 5.60156m4.2422-5.60156l2.42187.39063m10.52734-.63281l-3.5078 6.08593m3.5078-6.08594l2.45313.08204M438 370.46094l-2.13672 6.69531M438 370.46094l2.41406-.4414m11.55078.72265l-3.4375 6.1289m3.4375-6.1289l2.45313.0586m10.01953-.39454l-1.75 6.80469m1.4961-5.8164l1.1914-.28907"/><g clip-path="url(#Z)"><path fill="none" stroke="#000" stroke-linecap="round" stroke-linejoin="round" stroke-miterlimit="10" stroke-width=".5" d="M147.46875 359.9375l-6.9375 1.10938"/></g><path fill="none" stroke="#000" stroke-linecap="round" stroke-linejoin="round" stroke-miterlimit="10" stroke-width=".5" d="M147.46875 359.9375l1.48047 1.95703m-2.48828-1.79687l1.48047 1.96093m12.83203-.9453l-6.91797-1.2422m6.91797 1.2422l.75 2.33593m-1.75781-2.51563l.7539 2.33594m13.59766-3.19531l-6.97656.83984m6.97656-.83984l1.40234 2.01172m11.82422-.70313l-6.79688-1.77734m6.79688 1.77734l.5664 2.38672m12.76954-2.46875l-6.83985-1.61719m5.84375 1.38282l.3125 1.1875m14.07422-1.41797l-6.99219-.6836m5.97657.58204l.46875 1.13671m13.85547-.95703l-6.97657-.83984m5.96094.71484l.4414 1.14453m13.89845-1.76171l-6.9961.64062m6.9961-.64063l1.34765 2.0547m11.73828-3.01954l-6.53906 2.57422m6.53906-2.57422l1.86719 1.59375m11.3789-1.75781l-6.39843 2.90234m5.46875-2.48047l.97266.75m13.34765-.99218l-6.55078 2.54296m5.59766-2.17578l.92968.8047m13.33594-1.1836l-6.54297 2.5625m5.58985-2.1875l.92968.79687m13.4375-.8789l-6.74218 1.97656m6.74218-1.97656l1.71485 1.7578m11.46875-2.125l-6.48047 2.71095m5.53906-2.31641l.94922.77734m13.39844-.93359l-6.66406 2.23438m5.6953-1.91016l.89063.84375m13.53907-.55469L340.25 361m5.9414-.86719l.72657.98828m13.58203-1.25l-6.91797 1.2422m6.91797-1.2422l1.51563 1.9297m11.65625-2.47267l-6.63282 2.32813m6.63282-2.32813l1.80468 1.66407m11.20313-2.3125l-6.01953 3.625m6.01953-3.625l2.10547 1.26172m11.10156-1.4336l-5.80078 3.96875m5.80078-3.96875l2.17187 1.14063m11.05079-1.26953l-5.61329 4.23046m5.61329-4.23046l2.22265 1.03515m10.85156-1.32031l-5.13671 4.79688m5.13671-4.79688l2.32032.79688m10.5703-1.1797l-4.28515 5.56641m4.28516-5.5664l2.42187.40625m10.5625-.63281l-3.625 6.01953m3.625-6.01954l2.45313.13282m10.14453-.46094l-2.1914 6.67578m1.875-5.70703l1.20703-.20703"/><g clip-path="url(#aa)"><path fill="none" stroke="#000" stroke-linecap="round" stroke-linejoin="round" stroke-miterlimit="10" stroke-width=".5" d="M147.19531 345.71484l-6.39062 2.92579"/></g><path fill="none" stroke="#000" stroke-linecap="round" stroke-linejoin="round" stroke-miterlimit="10" stroke-width=".5" d="M147.19531 345.71484l1.94922 1.48829m11.6836-.0586l-7.02735.0664m7.02734-.0664L162 349.30078m-2.19531-2.14453l.58594 1.07813m13.5664-2.19141l-6.65234 2.26953m6.65234-2.26953l1.78906 1.67969m11.71094-.57032l-7.02344.05079m6.00391-.04297l.58203 1.07812m13.66797-.28906l-6.85547-1.53906m5.85938 1.3125l.32422 1.18359M213.99219 348l-6.83203-1.64063m5.83593 1.40235l.3086 1.1875m14.09375-1.55078l-7.01563-.4414m7.01563.4414l1.01172 2.23437m12.24218-3.14453l-6.89062 1.3789m6.89062-1.3789l1.5547 1.89844m11.5-2.6914l-6.3711 2.96484m6.3711-2.96485l1.95702 1.47656m11.17969-1.80468l-6.01953 3.625m5.14453-3.09766l1.05469.6289m13.20703-1.03124l-6.16016 3.375m5.26563-2.88672l1.02343.67578m13.57422-.04688L287 347.7461m5.92578-.97265l.74219.97656m13.61328-.85938l-7.0039.57422m7.0039-.57421l1.32812 2.0664m11.875-2.70312l-6.77734 1.85156m5.79297-1.58203l.83984.89062m13.05078-2.09765l-5.96093 3.72265m5.09375-3.17969l1.0625.61329m13.35156-.71875l-6.42188 2.84765m5.48829-2.4336l.96484.75782m13.5625-.16797l-6.97656.83985m6.97656-.83985l1.40234 2.01172m11.8711-2.25781l-6.89844 1.33594m6.89844-1.33594l1.54297 1.90625m11.5078-2.73047l-6.36718 2.98047m6.36719-2.98047l1.96094 1.47656m10.99609-2.07031l-5.65234 4.17188m5.65234-4.17188l2.21484 1.0586m11.14063-1.00782l-5.73047 4.0664m5.73047-4.0664l2.1914 1.09766m-3.02734-.50781l1.09766.55078m13.15234-.9922l-5.92969 3.76954m5.9297-3.76953l2.1328 1.21094m11.02344-1.4375l-5.61328 4.22656m5.61328-4.22656l2.22266 1.03515m10.50781-1.64453l-4.44531 5.4414m3.80078-4.64843l1.20312.23828m13.625.01563l-6.17968 3.34765m5.28125-2.85937l1.01953.67969"/><g clip-path="url(#ab)"><path fill="none" stroke="#000" stroke-linecap="round" stroke-linejoin="round" stroke-miterlimit="10" stroke-width=".5" d="M143.39063 330.40234l1.21875 6.92188"/></g><g clip-path="url(#ac)"><path fill="none" stroke="#000" stroke-linecap="round" stroke-linejoin="round" stroke-miterlimit="10" stroke-width=".5" d="M143.39063 330.40234l1.93359-1.51171"/></g><path fill="none" stroke="#000" stroke-linecap="round" stroke-linejoin="round" stroke-miterlimit="10" stroke-width=".5" d="M157.92969 330.40234l-1.22656 6.92188m1.04687-5.91406l1.16797-.37891m15.21875 2.61328l-7.01172.4375m7.01172-.4375l1.28516 2.08985m11.10546-4.25391l-5.16406 4.76562m4.41406-4.0703l1.15625.40624m12.97266 3.58985l-5.29297-4.6172m19.07422 3.94141l-6.22266-3.26562m5.31641 2.78906l.00781 1.22656m14.46875-1.3828l-6.73437-2m6.73437 2l.48828 2.40233m12.96875-3.5703l-7.01953.33593m7.01953-.33594l1.25391 2.10938m11.83594-3.19531l-6.5664 2.5078m6.5664-2.5078l1.84765 1.61328m11.60547-1.15625l-6.84375 1.59375m5.84766-1.36329l.8086.92579m13.46874-1.28907l-6.77734 1.85547m5.79297-1.58203l.83984.89063m13.30078-1.6211l-6.45703 2.77344m5.51563-2.3711l.95703.76954m13.47265 1.09375l-6.80468-1.75781m20.1914.35156l-6.94922 1.05469m5.9375-.90235l.73438.98438m13.17578-2.34375l-6.11328 3.46875m5.22265-2.96485l1.03516.66016m12.96094-1.48828l-5.69531 4.11719m4.86718-3.51563l1.10157.53906m13.64062.23047l-6.89062 1.375m5.88671-1.17578l.77735.94922m13.57422.03515l-6.95703-.99218m5.9453.84765l.41798 1.15235m13.22656-3.6289l-5.59375 4.25m5.59375-4.25l2.22656 1.02733m10.57422-1.5703l-4.5664 5.33593m4.5664-5.33594l2.39453.53125m10.66016-.73828l-4.04688 5.7461m3.45703-4.91016l1.21875.15234m12.9375-.79297l-4.54687 5.35938m4.54687-5.35938l2.39844.52344m11.19922-.2539l-5.11328 4.8203m5.11328-4.8203l2.32422.78515m10.1289-1.45312l-3.38671 6.15625m3.38672-6.15625l2.45312.03515m11.51172.42578l-4.6875 5.23438m4.0039-4.47266l1.19141.29297"/><g clip-path="url(#ad)"><path fill="none" stroke="#000" stroke-linecap="round" stroke-linejoin="round" stroke-miterlimit="10" stroke-width=".5" d="M141.16797 318.46484l5.66406 4.16407"/></g><path fill="none" stroke="#000" stroke-linecap="round" stroke-linejoin="round" stroke-miterlimit="10" stroke-width=".5" d="M154.17188 318.97656l6.28515 3.14453m-6.28516-3.14453l-.0625-2.45312m.97657 2.91015l-.03125-1.22656m12.33203.98828l6.48437 2.70703m-6.48437-2.70703l-.22656-2.4414m13.49609 2.55468l6.57813 2.47657m-5.6211-2.11329l-.15625-1.21875m12.48047.95704l6.64844 2.27343m-5.6836-1.9414l-.1953-1.21094m14.61718 5.30078l2.5-6.5664m-2.13672 5.60937l-1.21484.15234m16.73047.78125l-2.625-6.51953m2.24218 5.57031l-.78906.9375m16.10156-1.30859l-5.85547-3.88281m5.00391 3.32031l-.11719 1.21875m14.3086-.6875l-5.90235-3.8164m5.04297 3.2578l-.10547 1.22266m14.78125-1.92578l-6.90625-1.29687m5.90235 1.10937l.36328 1.17188m13.98437-2.09375l-6.96484.92187m5.95312-.78515l.71094.99609m13.54297-1.52344l-6.8164 1.70313m5.82421-1.45313l.82032.91016m13.58984-.44531l-7.02344.27734m6-.23828l.61719 1.0625m13.69531-.53125l-6.97265-.86719m5.95703.74219L320.0078 322m13.86719-2.05078l-6.92578 1.19531m6.92578-1.19531l1.5039 1.9414m11.58204-2.71093l-6.47266 2.73828m6.47266-2.73828l1.90625 1.54687m11.33203-1.71875l-6.3164 3.08203m5.39843-2.63671l.99219.72265m13.33594-.96094l-6.50391 2.66407m5.55469-2.27344l.9453.78125m12.625-2.2461l-5.12108 4.8125m4.3789-4.10937l1.16016.39453m12.78906-1.21094l-4.90234 5.03907m4.90234-5.03907l2.35547.6875m9.69922-1.47265l-2.38281 6.60937m2.03515-5.64844l1.21485-.17187m9.70703-.63672l3.10156 6.30469m-3.10156-6.30469l1.43359-1.98828m10.65625 2.98828l5.55078 4.3086m-5.55078-4.3086l.41797-2.41797m12.7539 2.61328l5.83594 3.91797m-4.98437-3.34765l.125-1.22266m16.60156-.63672l-2.6875 6.49219m2.29688-5.54688l1.21875-.11718"/><path fill="#00f" fill-rule="evenodd" d="M321.66406 454.33203h8.61719V444.1875h-8.61719v10.14453"/><path fill="azure" fill-rule="evenodd" d="M323.4961 446.01953h.83202v2.82422h3.28907v-2.82422h.83203V452.5h-.83203v-2.91406h-3.28906V452.5h-.83204v-6.48047"/><path fill="#00f" fill-rule="evenodd" d="M197.39063 441.01953h8.61718V430.8711h-8.61719v10.14844"/><path fill="azure" fill-rule="evenodd" d="M199.22266 432.70703h.83203v2.82031h3.28515v-2.8203h.83594v6.47655h-.83594v-2.91406h-3.28515v2.91406h-.83203v-6.47656"/><path fill="#ff3030" fill-rule="evenodd" d="M295.72656 409.94922h7.69531v-10.14453h-7.6953v10.14453"/><path fill="azure" fill-rule="evenodd" d="M297.5586 401.63672h.83593v5.73828h3.1914v.74219h-4.02734v-6.48047"/><path fill="#00f" fill-rule="evenodd" d="M370.48438 396.63281h8.62109v-10.14453h-8.6211v10.14453"/><path fill="azure" fill-rule="evenodd" d="M372.3164 388.32031h.83594v2.82422h3.28516v-2.82422h.83203v6.48047h-.83203v-2.91406h-3.28516v2.91406h-.83593v-6.48047"/><path fill="#ff3030" fill-rule="evenodd" d="M189.20703 378.88281h7.6914v-10.14844h-7.6914v10.14844"/><path fill="azure" fill-rule="evenodd" d="M191.03906 370.5664h.83594v5.7422h3.1914v.73827h-4.02734v-6.48046"/><path fill="#ffffe0" fill-rule="evenodd" d="M349.7539 432.3711h22.1836v-10.19141h-22.1836v10.1914"/><path fill-rule="evenodd" d="M353.2539 424.01172h.51173v6.29687h-.78907v-4.48828h-1.38672v-.5586l.5586-.0625.2539-.05468.22657-.08984.20312-.14063.17578-.21094.14063-.29296.10547-.39844m4.8164 0l.22656.01953.21875.0586.21094.08984.19531.11719.1836.15234.17187.17578.30079.41797.24218.49219.17969.54687.11328.58203.03906.58985-.03906.59375-.11328.58203-.17969.55469-.24219.5039-.30078.42578-.17187.17969-.1836.15234-.1953.125-.21094.09375-.21875.0547-.22657.01952-.23047-.01953-.21875-.05469-.20703-.09375-.19922-.125-.18359-.15234-.17188-.17969-.30078-.42578-.24218-.5039-.1797-.5547-.11327-.58202-.03906-.59375h.83593l.02735.5625.08203.5078.125.44142.16406.375.1914.30078.21094.21875.22266.13671.22656.04688.22656-.04688.22266-.13671.20703-.21875.1914-.30079.16407-.375.125-.4414.08203-.50781.02735-.5625-.02735-.5625-.08203-.5-.125-.4336-.16406-.36719-.1914-.29296-.20704-.21485-.22265-.1289-.22657-.04688-.22656.04688-.22266.1289-.21093.21485-.19141.29296-.16406.3672-.125.43359-.08203.5-.02735.5625h-.83594l.03907-.58985.11328-.58203.17969-.54687.24218-.4922.30079-.41796.17187-.17578.1836-.15235.19921-.11718.20703-.08985.21875-.05859.23047-.01953m4.94922 0l.23047.01953.21875.0586.20703.08984.19922.11719.1836.15234.17187.17578.30078.41797.24219.49219.17969.54687.11328.58203.03906.58985-.03906.59375-.11329.58203-.17968.55469-.24219.5039-.30078.42578-.17188.17969-.18359.15234-.19922.125-.20703.09375-.21875.0547-.23047.01952-.22656-.01953-.21875-.05469-.21094-.09375-.19531-.125-.1836-.15234-.17187-.17969-.30078-.42578-.24219-.5039-.17969-.5547-.11328-.58202-.03906-.59375h.83594l.02734.5625.08203.5078.125.44142.16406.375.19141.30078.20703.21875.22266.13671.22656.04688.22656-.04688.22266-.13671.21094-.21875.1914-.30079.16407-.375.125-.4414.08203-.50781.02734-.5625-.02734-.5625-.08203-.5-.125-.4336-.16407-.36719-.1914-.29296-.21094-.21485-.22266-.1289-.22656-.04688-.22656.04688-.22266.1289-.20703.21485-.1914.29296-.16407.3672-.125.43359-.08203.5-.02734.5625h-.83594l.03906-.58985.11328-.58203.1797-.54687.24218-.4922.30078-.41796.17188-.17578.18359-.15235.19531-.11718.21094-.08985.21875-.05859.22656-.01953m4.95313 0l.38671.03125.35938.08203.32422.13672.27734.1875.23047.23437.17578.28516.10547.33203.03906.3789-.01953.27344-.0586.23438-.08593.20313-.11328.16796-.1289.14454-.14063.12109-.28516.19922.23047.11719.20703.14843.1836.17188.15234.1914.125.21485.08984.23047.0547.24218.01952.25782-.03515.30859-.10157.32422-.17187.32812-.23828.3047-.3086.26952-.375.21485-.21093.08203-.22657.0586-.24609.03905-.26172.01172-.25781-.01172-.24219-.03906-.22265-.0586-.20704-.08202-.35937-.21485-.28906-.26953-.22266-.30469-.15625-.32812-.09375-.32422-.03125-.3086h.83594l.02344.25.07812.23829.125.21094.16016.18359.1914.15234.21875.11328.24219.07422.2539.02344.25782-.02344.23828-.07422.21875-.11328.19531-.15234.16016-.1836.1211-.21093.07812-.23828.02734-.25-.02734-.25391-.07813-.23438-.1211-.21484-.16015-.1836-.19531-.15234-.21875-.11328-.23828-.07422-.25781-.02343-.25391.02343-.24219.07422-.21875.11328-.1914.15235-.16016.1836-.125.21483-.07813.23438-.02343.2539h-.83594l.01953-.2539.05469-.24219.09375-.22265.1211-.20704.15624-.1914.17969-.17188.20703-.15234.23438-.13281-.28907-.19922-.13671-.1211-.12891-.14453-.11328-.16796-.08985-.20313-.05468-.23438-.02344-.27343h.78906l.02344.21484.0664.1914.10157.16407.13672.14063.16796.11328.1875.08203.20704.05078.21875.01562.22265-.01562.20703-.05078.1875-.08203.16407-.11329.13671-.14062.10547-.16406.06641-.1914.02344-.21485-.02344-.21485-.0664-.1914-.10548-.16406-.13671-.14063-.16407-.11328-.1875-.08203-.20703-.04688-.22265-.01953-.21875.01953-.20704.04688-.1875.08203-.16796.11328-.13672.14063-.10156.16406-.06641.1914-.02344.21485h-.78906l.03906-.3789.10938-.33204.17187-.28516.23047-.23437.28125-.1875.32031-.13672.35938-.08203.38672-.03125"/><path fill="#ffffe0" fill-rule="evenodd" d="M402.34766 463.4414h22.17968V453.25h-22.17968v10.1914"/><path fill-rule="evenodd" d="M405.84766 455.08203h.5078v6.29688h-.78515v-4.4922h-1.39062v-.55468l.5625-.0664.25-.05079.23047-.08984.20312-.14453.17578-.20703.14063-.29688.10547-.39453m4.8125 0l.23046.01953.21875.05469.20704.08984.19921.1211.1836.14844.17187.17578.30079.42187.24218.49219.17969.54687.11328.57813.03906.58984-.03906.59375-.11328.58594-.17969.55469-.24219.5-.30078.42969-.17187.17968-.1836.15235-.19921.125-.20704.08984-.21875.0586-.23046.01952-.22657-.01953-.21875-.05859-.21093-.08984-.19532-.125-.18359-.15235-.17188-.17969-.30078-.42968-.24609-.5-.17969-.55469-.10937-.58594-.03906-.59375h.83203l.03125.5664.08203.50392.125.4414.16406.375.1875.30078.21094.22266.22265.13672.22657.04687.22656-.04687.22265-.13672.21094-.22266.1914-.30078.16407-.375.125-.4414.08203-.50391.02735-.5664-.02735-.5586-.08203-.5-.125-.4375-.16406-.36328-.1914-.29297-.21094-.21485-.22266-.1328-.22656-.04298-.22657.04297-.22265.13281-.21094.21485-.1875.29297-.16406.36328-.125.4375-.08203.5-.03125.5586h-.83204l.03907-.58985.10937-.57813.17969-.54687.2461-.49219.30077-.42187.17188-.17579.1836-.14843.1953-.1211.21094-.08984.21875-.05469.22657-.01953m4.95312 0l.23047.01953.21875.05469.20703.08984.19531.1211.1875.14844.17188.17578.30078.42187.24219.49219.17969.54687.11328.57813.03515.58984-.03515.59375-.11329.58594-.17968.55469-.24219.5-.30078.42969-.17188.17968-.1875.15235-.1953.125-.20704.08984-.21875.0586-.23047.01952-.23047-.01953-.21875-.05859-.20703-.08984-.19531-.125-.1836-.15235-.17187-.17969-.30078-.42968-.2461-.5-.17968-.55469-.10938-.58594-.03906-.59375h.83203l.03125.5664.08203.50392.125.4414.16016.375.1914.30078.21094.22266.22266.13672.22656.04687.22656-.04687.22266-.13672.21094-.22266.1914-.30078.16407-.375.125-.4414.08203-.50391.02734-.5664-.02734-.5586-.08203-.5-.125-.4375-.16407-.36328-.1914-.29297-.21094-.21485-.22266-.1328-.22656-.04298-.22656.04297-.22266.13281-.21094.21485-.1914.29297-.16016.36328-.125.4375-.08203.5-.03125.5586h-.83203l.03906-.58985.10938-.57813.17969-.54687.24609-.49219.30078-.42187.17188-.17579.18359-.14843.19531-.1211.20703-.08984.21875-.05469.23047-.01953m4.95313 0l.38671.02735.35938.08203.32422.13671.27734.1875.23047.23829.17188.28515.10937.33203.03906.37891-.01953.27344-.0586.23437-.08983.19922-.10938.17188-.1289.14453-.14063.1211-.28516.1953.23047.1211.20703.14453.1836.17187.15234.19532.125.21093.08984.23047.0547.2461.01952.2539-.03515.3086-.10157.32812-.17187.32422-.24219.30469-.30469.26953-.375.21484-.21093.08203-.22657.0625-.24609.03516-.26172.01563-.25781-.01563-.24219-.03516-.22265-.0625-.20704-.08203-.35937-.21484-.28906-.26953-.22266-.30469-.15625-.32422-.09375-.32812-.03125-.3086h.83203l.02735.2539.07812.23438.1211.21094.16406.1875.1914.15235.21875.11328.24219.07421.2539.02344.25391-.02344.24219-.07421.21875-.11329.19531-.15234.16016-.1875.1211-.21094.07812-.23437.02734-.2539-.02734-.25391-.07813-.23438-.1211-.21094-.16015-.1875-.19531-.14843-.21875-.1172-.24219-.0703-.2539-.02735-.25391.02735-.24219.0703-.21875.1172-.1914.14843-.16407.1875-.12109.21094-.07813.23438-.02734.2539h-.83203l.01953-.2539.05469-.23829.09375-.22656.1211-.20703.15234-.1914.18359-.17188.20703-.15234.23438-.13282-.28907-.1953-.14062-.1211-.1289-.14453-.10938-.17188-.08985-.19922-.05468-.23437-.02344-.27344h.78906l.02344.21484.0625.1875.10547.16797.13672.14063.16406.10937.1914.08203.20704.05079.21875.01562.22265-.01563.20313-.05078.1914-.08203.16407-.10937.13671-.14063.10547-.16797.06641-.1875.01953-.21484-.01953-.21484-.0664-.19141-.10548-.16797-.13671-.14062-.16407-.10938-.1914-.08203-.20313-.05078-.22265-.01563-.21875.01563-.20704.05078-.1914.08203-.16406.10938-.13672.14062-.10547.16797-.0625.1914-.02344.21485h-.78906l.03906-.3789.10938-.33204.17187-.28515.23047-.23829.28125-.1875.32031-.13671.35938-.08204.38672-.02734"/><path fill="#ffffe0" fill-rule="evenodd" d="M332.86719 342.22266h22.17969v-10.19141h-22.1797v10.1914"/><path fill-rule="evenodd" d="M336.36719 333.86328h.50781v6.29297h-.78516v-4.48828h-1.39062v-.55469l.5625-.0664.25-.0547.23047-.08984.20312-.14062.17578-.21094.14063-.29297.10547-.39453m4.8125 0l.23047.01953.21875.05469.20703.08984.19531.1211.1875.14844.16797.17578.30469.41796.24218.4961.1797.54687.11327.57813.03516.58984-.03516.59375-.11328.58594-.17969.55078-.24218.5039-.3047.4297-.16796.17968-.1875.15235-.19531.12109-.20703.09375-.21875.05469-.23047.02344-.23047-.02344-.21875-.05469-.20703-.09375-.19531-.1211-.1836-.15234-.17187-.17969-.30079-.42968-.24609-.5039-.17969-.55079-.10937-.58594-.03906-.59375h.83203l.03125.5625.08203.50781.125.44141.16015.375.19141.30078.21094.22266.22265.13672.22657.04687.22656-.04687.22266-.13672.21093-.22266.19141-.30078.16016-.375.1289-.4414.08203-.50782.02735-.5625-.02735-.5586-.08203-.5039-.1289-.4336-.16016-.36718-.1914-.29297-.21094-.21094-.22266-.1328-.22656-.04298-.22656.04297-.22266.13281-.21094.21094-.1914.29297-.16016.36719-.125.4336-.08203.5039-.03125.5586h-.83203l.03906-.58985.10937-.57813.1797-.54687.24608-.4961.30079-.41796.17187-.17579.1836-.14843.1953-.1211.20704-.08984.21875-.05469.23047-.01953m5.09375 0h.50781v6.29297h-.78906v-4.48828h-1.38672v-.55469l.5586-.0664.2539-.0547.23047-.08984.20312-.14062.17188-.21094.14062-.29297.10938-.39453m2.82031 2.17578h.78906l.01953-.3164.0586-.28907.09765-.25.14063-.21484.1836-.17578.22265-.1289.26562-.07813.3086-.02735.23437.01954.22656.0625.20313.10156.17969.13672.14844.17578.11328.20312.0703.23828.02735.26563-.02344.26562-.0664.22657-.10938.1914-.15625.17188-.19921.16015-.2461.16797-.63672.38672-.53515.3164-.4375.31641-.34766.32422-.26172.33594-.1914.35156-.125.36719-.07032.39453-.01953.41797h4.21094v-.73828h-3.33203l.08203-.28516.11328-.23828.14844-.19922.1875-.17969.23047-.17187.28125-.17578.71484-.41797.41797-.20313.34375-.23437.28125-.25.21875-.26563.16406-.27734.10938-.28515.0664-.28516.01953-.28125-.04296-.38281-.1211-.34766-.1875-.3086-.25-.26171-.30078-.21485-.34766-.15625-.3789-.10156-.40625-.03125-.4375.03125-.39844.09766-.35547.16797-.30469.23437-.24609.30469-.1875.375-.11328.44531-.04297.51953"/></g></defs><use xlink:href="#ae"/></svg>