<svg xmlns="http://www.w3.org/2000/svg" role="img" xmlns:xlink="http://www.w3.org/1999/xlink" viewBox="142.45 309.95 326.84 171.84"><defs><clipPath id="a"><path d="M144 451h1v29.32813h-1zm0 0"/></clipPath><clipPath id="b"><path d="M144 311.67188h1V447h-1zm0 0"/></clipPath><clipPath id="c"><path d="M144 311.67188h324v168.65625H144zm0 0"/></clipPath><clipPath id="d"><path d="M467 463h1v17.32813h-1zm0 0"/></clipPath><clipPath id="e"><path d="M467 311.67188h1V463h-1zm0 0"/></clipPath><clipPath id="f"><path d="M144 479h4v1.32813h-4zm0 0"/></clipPath><clipPath id="g"><path d="M147 480h2v.32813h-2zm0 0"/></clipPath><clipPath id="h"><path d="M153 479h9v1.32813h-9zm0 0"/></clipPath><clipPath id="i"><path d="M160 480h2v.32813h-2zm0 0"/></clipPath><clipPath id="j"><path d="M166 479h9v1.32813h-9zm0 0"/></clipPath><clipPath id="k"><path d="M173 480h2v.32813h-2zm0 0"/></clipPath><clipPath id="l"><path d="M180 479h8v1.32813h-8zm0 0"/></clipPath><clipPath id="m"><path d="M187 480h2v.32813h-2zm0 0"/></clipPath><clipPath id="n"><path d="M193 479h9v1.32813h-9zm0 0"/></clipPath><clipPath id="o"><path d="M200 480h3v.32813h-3zm0 0"/></clipPath><clipPath id="p"><path d="M206 479h9v1.32813h-9zm0 0"/></clipPath><clipPath id="q"><path d="M213 480h3v.32813h-3zm0 0"/></clipPath><clipPath id="r"><path d="M220 479h8v1.32813h-8zm0 0"/></clipPath><clipPath id="s"><path d="M227 480h2v.32813h-2zm0 0"/></clipPath><clipPath id="t"><path d="M233 479h8v1.32813h-8zm0 0"/></clipPath><clipPath id="u"><path d="M240 480h2v.32813h-2zm0 0"/></clipPath><clipPath id="v"><path d="M246 479h9v1.32813h-9zm0 0"/></clipPath><clipPath id="w"><path d="M253 480h3v.32813h-3zm0 0"/></clipPath><clipPath id="x"><path d="M260 479h8v1.32813h-8zm0 0"/></clipPath><clipPath id="y"><path d="M266 480h1v.32813h-1zm0 0"/></clipPath><clipPath id="z"><path d="M273 479h8v1.32813h-8zm0 0"/></clipPath><clipPath id="A"><path d="M279 480h2v.32813h-2zm0 0"/></clipPath><clipPath id="B"><path d="M287 478h7v2.32813h-7zm0 0"/></clipPath><clipPath id="C"><path d="M300 479h8v1.32813h-8zm0 0"/></clipPath><clipPath id="D"><path d="M305 480h2v.32813h-2zm0 0"/></clipPath><clipPath id="E"><path d="M314 478h7v2.32813h-7zm0 0"/></clipPath><clipPath id="F"><path d="M328 477h5v3.32813h-5zm0 0"/></clipPath><clipPath id="G"><path d="M342 479h3v1.32813h-3zm0 0"/></clipPath><clipPath id="H"><path d="M354 477h6v3.32813h-6zm0 0"/></clipPath><clipPath id="I"><path d="M369 476h3v4.32813h-3zm0 0"/></clipPath><clipPath id="J"><path d="M381 477h6v3.32813h-6zm0 0"/></clipPath><clipPath id="K"><path d="M394 477h6v3.32813h-6zm0 0"/></clipPath><clipPath id="L"><path d="M407 477h6v3.32813h-6zm0 0"/></clipPath><clipPath id="M"><path d="M421 476h5v4.32813h-5zm0 0"/></clipPath><clipPath id="N"><path d="M436 476h2v4.32813h-2zm0 0"/></clipPath><clipPath id="O"><path d="M448 476h4v4.32813h-4zm0 0"/></clipPath><clipPath id="P"><path d="M462 476h4v4.32813h-4zm0 0"/></clipPath><clipPath id="Q"><path d="M144 466h4v3h-4zm0 0"/></clipPath><clipPath id="R"><path d="M144 452h4v4h-4zm0 0"/></clipPath><clipPath id="S"><path d="M144 438h4v5h-4zm0 0"/></clipPath><clipPath id="T"><path d="M144 425h4v4h-4zm0 0"/></clipPath><clipPath id="U"><path d="M144 412h4v4h-4zm0 0"/></clipPath><clipPath id="V"><path d="M144 399h4v2h-4zm0 0"/></clipPath><clipPath id="W"><path d="M465 397h3v1h-3zm0 0"/></clipPath><clipPath id="X"><path d="M144 385h4v4h-4zm0 0"/></clipPath><clipPath id="Y"><path d="M465 384h3v1h-3zm0 0"/></clipPath><clipPath id="Z"><path d="M144 372h4v3h-4zm0 0"/></clipPath><clipPath id="aa"><path d="M144 359h4v3h-4zm0 0"/></clipPath><clipPath id="ab"><path d="M144 343h2v8h-2zm0 0"/></clipPath><clipPath id="ac"><path d="M465 344h3v1h-3zm0 0"/></clipPath><clipPath id="ad"><path d="M144 331h3v6h-3zm0 0"/></clipPath><clipPath id="ae"><path d="M465 330h3v2h-3zm0 0"/></clipPath><clipPath id="af"><path d="M144 318h4v5h-4zm0 0"/></clipPath><clipPath id="ag"><path d="M465 317h3v3h-3zm0 0"/></clipPath><g id="ah" clip-path="url(#clip1)"><path fill="#fff" fill-opacity="0" fill-rule="evenodd" d="M0 0h1000v1000H0zm0 0"/><path fill="#d3d3d3" fill-opacity="0" fill-rule="evenodd" d="M162.15234 355.86719l-.23437.29297.0586.23437.11718.17188.17578.23437.29297.34766.11328.0586.11719-.17188.0586-.23438.17577-.17578.46485-.17578h.69922l.23437.29297.28906.8164.0586.17579.17578.23046.35156.23438.69922.69922.17188.17578.23437.34765.23438.41016.28906.58203.41015.46485.23047.23437.23438.17578.11719.23047.17578.29297.17187 1.16406v.23438l.0586.28906.05859.11719.11719.11719.34765.41015.11719.17188.17578.17578.17578.23437.11719.17188.17188.35156.05859.23438.23437.40625.23438-.0586-.17578.17578-.0586.92969h-.58203l-.23437-.11328-.34766.11328-.11719.11719-.05859.29297-.0586.17578-.11718.17187-.46484.29297-.0586.23438-.0586.11328v.64453l.0586.17187v.41016l.0586.0586v.40624l.05859.40625.11719.17579.05859.05859.23047.64062-.0586.29297v.69922l-.05859.58203v.23438l-.0586.23047-.05468.35156v1.92187l.05469.1172h.42578l-.36719.11718-.02344.35156.89063 1.16797 1.74219.53906 1.33984.35938v.53906l.08984.8086.53516.71484 1.51953.26953.89063-.08594.08984 1.16406.53516.1797 1.16015-.1797 2.05469-.98437 1.16016-.36328 1.8789-.17578 1.69531-.1797-.17968.71876-1.51563.08594-1.25.08984-.80469.26953-1.07421.8086.26953.71875.53515.89843-.17968.625-.26563.8086.26563 1.07812.625.89844.80468.17969 1.25-.1797-.26562.72267.09766.5039.05468.29297v.17188l.0586.29296v.40625l.17578.1172.35156.11718h.40625l.29297-.17578.11328-.11719.0586-.11719.11718-.23047.0586-.17578.35156-.46484.23047-.17578.17578-.0586.17578.0586.0586.17578.11718.98828.05469.46875.0586.17188.11718.23437.17578.0586.8164.05859h.28907l.11719.23437.05859.40625.0586.35156v1.10547l.11718.29297.11719.34766.28906.69922.17578.35156.58203.7539.35157.17579.17187.0586.46875.23437.64063.46484.34765.23438.29297.17578.29297.05468.23047.0625.8164.34766.29297.17578.11328.17188.35157.35156.11719.17578.52343.64063v.28906l.0586.35156v.34766l.05859.35156.0586.28906.11718.0586.17188.05859h.17578l.58203.23437.17578.1172.17578.28905.17578.23438.11328.23437.29297.23047.11719.11719v.41016l.0586.05468.28906.23438.23437.11719.0586.11718.11718.17188.0586.11719.23047.23437.05859.17578.23437.0586.1172.05859-.1172.11328-.05859.11719v.11719l-.11719.29296-.11719.28907v.58203l.17579.11719.11718.05859.0586.11719.11719.11719.11328.05859.17578.34765.0586.35157.05858.40625v.17578l-.05859.17578-.11719.69922v.17187l.1172.17579.29296.29296h.40625l.17578.1172.11719.17187.11719.29296v.23438h-.52735l-.23047-.23438h-.23437l-.17578.0586-.0586.69922.0586.34765.11719.17579.17578.41015.11718.23047.28907.46875.17578.05469h.52344l.23437.0586.75781.64062.0586.29296v.23438l.05859.0586.23047.34765v.35156l-.11719.17188v.29297l.29297.28906.29297.17578.17187.0586.29297.17577.29297.1172.58203.40624.28906.23438.29297.17578.21875.16015.01563.01172.23047.17579.64062.52343.17578.23438.1172.17578.17577.17578.11328.17188v.64062l.1172.17578.46874.11719.58203.11719.23438.05859.23047.11328.29297.11719.11328.0586.58593.35156.28907.17187.17578.0625.17578.05469.17578.0586.69922.35155.28906.17579.23438.05468.28906.17578.23437.1172.64063.40624.29297.11719.17187.0586.23438.05859.41015.05859.23047.0586.23438.11718.0586.17188-.41017.17578.46875.0586.0586.29296.11328.23438.17578.05468.23438.0586.17578.05859.40625.11719.64062.23437.11719.17188.0586.23437v.17578l-.0586.1172-.0586.40624.23438.23438.11719.05859.34766.11719.64062.23047.17578.11718.28906.1172.17578.17577.23438.46485.58203 1.10546.17578.17579.34766.17578.17578.11719.35156.11718 1.04688.52344.23437.0586.46485.11327.29297.0586.46484.17578.75781.58203.23438.23438.34765.46484.17578.17578.28907.23438.8164.69921.29297.17579.28906.28906.29297.17578.29297.28906.69531.64063.17578.17578.29297.23437.28907.23438.46875.28906.64062.58203.34766.23438.23437.29297.34766.34765.35156.46485.9336.99218.34765.40625.11719.17579.23437.05859.11328.11719.64454.17578.23047.11328.23437.0586.29297.17577.23047.1172.9336.69921.40624.40625.23438.17578.40625.17578.23437.11719.8164.34766.34766.23437.23438.11719.29297.28906.23047.11719.7578.35156.35157.17188.23047.05859.29297.11719.23437.0586.8711.17577h.8164l.46875.23047.17188.0586.875.69921.46484.1172.29297.05858.17578.0586.23047.0586.46875.05859.34766.05859.35156.0586.40625.05859h.29297l.17187.0586v.23046l.17578.17578h.29297l.34766.0586.35156.05859.69922.11719h.64063l.46484-.23438.29297-.17578.17187-.11719.41016-.17187.28906-.17578.9336-.46485.46875-.29297.52343-.29296.46485-.17188.46484-.17578 1.05078-.46485.28906-.11718.41016-.11719.28906-.11719.52735-.17578 1.51562-.69922.58203-.34765.28907-.0586.29297-.0586.34765-.11718.875-.23047.35156-.11719h.11329l.23437-.05859.875-.23437.23438-.0586h.8125l.35156-.0586.8164-.11718.17188-.0586.35156-.05468.29297-.0586.23047-.05859.8164-.17578.17579-.0586h.34765l.23438-.05859.46484-.11718.75781-.17188.23438-.0586h.34765l.41016-.11718.28906-.0586 1.28516-.05859h.28906l.41016-.0586.23047-.05858h.17578l.875-.1172h.40625l.41015-.11718h.34766l.35156-.11328.8711-.0586h1.75l1.04687.28907.41016.11719.28906.11718.35156.11719.28907.11719 1.05078.17187.28906.0586h.29297l.29297.05859.17187.0586.41016.05859.17187.0586.1172.05858h.11718l.11719.0586.35156.0586h.11328l.41016.0664 1.92187.39453 1.92578.39453 1.51953.44922 1.69532.71875 2.14453.80469 1.60547-.71875 1.42968-.80469 1.16016-1.07813 1.25-.44921 3.03516-.71875 1.875-.35938 2.14453-1.34765 2.23437-1.25391 2.5-1.25781 1.69531-.44922 1.78516-.17969 1.16016-.26953.625.53906 1.33984-.26953.71485-.98828.98437-1.34375.44531-.17969.80469-.35937 1.875-.53907 1.78516-.44921 1.25-.26954 1.16015-.08984 1.69922-.08984 1.96094-.26954 1.25-.08984h.53906l.625-.08984h.89063l2.14453-.17969 2.41015-.17969 2.58985-.08984 1.69531.17969 1.60938.08984 1.42968.35938 1.16016.71875 1.875.98828 1.16015 1.52734.26563.71484.6289.08985.35548.89844.53515.53906.53516 1.52734 1.07422.35938h.53515l-.80469.53515.08985 1.70703.71484 2.69532.89063.80468.89453.98829.71484 1.2578 1.78516.53907 1.51953-.17969.35547 1.34375 1.60937-.80469.98047-.53906.26953.26953.31641-.21484.21875-.14453.80078.44922.44922-.35938h.35547l.53515-.26953.53907-.71875.53515-.26953.625-.98828 1.16016.44922.83984.3711 1.39454.61718 1.6953-.17969h1.60548l1.78515.08985.17969-1.70704.53516-1.34375.80468.26954.4922.84765.40233.40625-.08984.53906v.35938l.71485.44922.71093-.26953h1.42969l.35938.98828.4453 1.25781.71485 1.34375 1.25.6289 1.69531.62891.71485-.17969.17969-.53906.98046-.08984.44922.35937.08594 1.25782-.26563.6289-.53515.17969v.53906l.71484.98438.26563.53906.98437.98828.80078 1.07813-.26562.35937-.08985.89844-.625 2.33203-.35546 2.0664-.08985 1.79298-.17969.71875-.08984.53906v1.4375l-.98047 1.88281-.35937 1.70703-.53516.89844-.80469 1.16797-.26562.53906 2.05469 1.2539.08593.35938-.35546.53906-.08985-.17968v.80859l.08985 1.4375-.44532.71484-1.07422.09375-.26562.71485.53515.89844.8047.71875 1.16015.80859 1.33984.26953.44531.35938-.35546.44921-1.78907-.08984-1.25-.44922-.71484-.71875-.625-.08984-.17578 3.58984-.1875 1.3086h89.35937V311.70313h-55.26953v49.08203l.76172.125 3.28906.54296 2.02344 2.83594v2.7539l2.35156.33204 2.34766.33203h4.05078l-1.3789 4.16016-2.02344.70703-2.02344.70312-.54297.34375-2.59375 1.6172-.1875.11718-2.02344-2.07813-.73046-2.74218-2.67188-2.07813-1.375-3.5-.0664-.08203-1.95704-2.67188 2.75-1.41796v-49.08204H294.42187v91.41407l.1172.03125.1328.01172.07422.07421.10547.04688.08985.0586.08593.05859.08985.0586.29687.29687.0586.08984.03125.11719.02734.11719.01563.13671-.03125.1172-.0586.08983-.0586.08594-.04296.10547-.04688.10156-.02734.1211v.14453l.17578.26953.14844.14844.07422.08594.07422.07421.04296.10547.0625.08985.0586.08593.04297.10547.0586.08985.04687.10156.04296.10547.0586.08594.11719.17968.07421.07422.0625.08594.0586.08984.04297.10547.0586.08985.05858.08593.0625.08985.0586.08984.04297.10156.11719.17969.07421.07422.0586.08594.07422.07421.08984.0586.10547.04687h.14844l.1328-.01562.13282.01562.10156-.04687.07422-.07422.04688-.10156-.01563-.13281v-.14844l-.04687-.10547-.02735-.11719-.04687-.10156-.02735-.1211-.04296-.10156-.0625-.08984-.04297-.10156-.04297-.10547-.03125-.11719-.01563-.13281-.01171-.13672.08593-.0586.0586-.08593.12109-.03125.04297.10547.01562.1328v.1172l.0586.10156.0586.08984.08983.0586.14844.14843.0586.08985.04296.10547-.01171.10156.08593.0586.10547.04687.08594.0586.08984.05858.07422.07422-.11719.02735-.10546.04687-.08594.0586-.07422.07421-.0586.08985-.0625.08594-.02734.12109-.04687.10156-.04297.10547-.03125.11719-.01172.13281-.01563.13281v.14844l.02735.11719.04687.10547.04297.10156.0586.08984.07421.07422.08985.0586.07422.07421.08984.0586.0586.08984.04296.10547.04688.10156.11719.03125.1328.01563h.14845l.11718-.03125.10547.04297.04297.10547.04688.10156.02734.1211L299.5 410l.02734.11719.03125.1211.02735.11718.10547.04297.10156.04687.13281-.01562.14844.14844.0625.08593.07422.07422.07031.07422.08984.0625.10547.04297.10156.04297.1172.03125.13671.01562.11719-.03125.07422-.07422.02734-.11718-.01172-.13282-.03125-.12109-.02734-.11719.04297-.10547h.11719l.08984.0625.11719.02735h.14843l.13282.01562h.14843l.13282.01563.1328-.01563h.14845l.1328-.01562.13282-.01172.13672.01172.11719-.02735.13281-.01562.1914-.0586-.05859.17579-.01562.1328-.02735.1211-.01562.13281-.0586.08594-.1328.01563-.10548.04687-.10546.04297-.1172.03125-.11718.02735-.26563.03125h-.14843l-.13281.01562-.07422.07422.05859.08594.14844.14843.11719.1797.07421.0703.08985.0625.08984.0586.08594.0586.08984.05858.10156.04297.10547.0625.10547.04297.08594.0586.10547.04687.10156.04297.17969.11719.0586.08984-.04298.10156-.04687.10547.01562.13281.22266.22266.0586.08985.04296.10156.03125.1211.04297.10155.01563.13282.03125.11718.01171.13672.03125.11719.14844.14844.10156.04297.10547.04296.1172.03125.1328.01563.13672.01563h.11719l.11719-.03125.08984-.0586.04297-.10547.04688-.10156.04296-.10547.03125-.11719.01172-.1328v-.14845l-.01172-.1328-.01562-.13282-.03125-.11719-.04297-.10547-.04688-.10547-.04296-.10156-.04297-.10547-.01563-.13281.01563-.13281.02734-.11719.03125-.11719.02735-.1211.04687-.10155.08984-.0586.08594-.0625.07422-.07422.08984-.05859.22266-.22266.0586-.08593.07421-.07422.11719-.17969.0586-.08594v-.14844l-.07423-.07421-.10156-.04688-.10547-.04297-.10156-.04297-.0586-.08984-.04687-.10547-.02734-.11719.08984-.05859.11719-.03125.10156-.04297.17969-.11719.14844-.14843.01172-.13282-.01172-.10546-.08985-.0586-.1328.01563h-.14845l-.1328.01562-.13282-.01562-.1211-.03125-.08593-.0586-.07422-.07422-.0586-.08984-.0625-.08594-.11718-.17969-.0586-.08593.03125-.1211.08594-.05859.1211-.03125.05859-.08594v-.1211l-.03125-.11718-.0586-.08984-.05859-.08594-.04687-.10547-.02735-.11719-.01562-.1328.0586-.08985.07421-.07422.08984-.0586.1172-.17968.07421-.07422.0586-.08594.14843-.14844.1211-.03125.1328-.01562.13282.01562.07422.07422.04297.10547.01562.13281-.03125.1172-.11719.03124-.1328.01172-.14844.14844-.04297.10547-.04688.10156-.02734.1211-.03125.11718v.14844l.03125.11719.04297.10546.05859.08985.07422.07031.07422.07422.11719.03125.12109.02734.11719-.02734.1328-.01563h.1172l.08984.0586.07422.07422.04687.10546.0586.08594.10156.04688.13281.01562.10547.04297.08594.0586-.01172.10546-.07422.07422-.17969.11719-.05859.08984-.08984.0586-.07032.07422-.07421.07421-.0625.08985-.02735.11719-.01562.1328.01562.13282-.01562.13281v.14844l.01562.13281.02735.1172.03125.12108.07421.07422.08985.0586.08594.0586.08984.05858.11719.03125v.08594l-.10157.04688-.08984.0586-.26563.03124-.11718.02735h-.14844l-.10547.04296-.10156.04688-.0586.08984-.0625.23438-.01171.13281-.03125.1211-.01563.1328v.29298l-.01172.1328.01172.13673.01563.1328.1328.01563.13282.01172.1211.03125.08593.0586.07422.07421.04688.10547.04296.10157.01563.1328v.44532l-.01563.13281v.44532l.03125.26562.02735.11719.01562.13281.03125.11719.08594.21094.03125.26562v.14844l-.03125.11719-.02734.11718-.03125.1211-.02735.11719-.03125.11718-.03125.1211-.01171.1328-.01563.13282.08984.0586.1172-.03125.10155.01562.04688.10547-.03125.26562v.44141l-.04297.10547-.04688.10547-.04296.10156-.04297.10547-.0586.08594-.03125.12109-.04296.11719-.03125.11719-.01563.1328.01563.13282.05859.08984.10547.04688.08594.0586.05859.08593-.01172.13672-.03125.11719-.04297.10156v.44531l-.01562.13281v.14844l-.03125.11719-.04297.10547-.02735.11719-.04687.10546-.04297.10157-.03125.12109-.02734.11719-.03125.13281-.03125.11719-.02735.11719-.04297.10546-.03125.1172-.03125.12108-.01171.13282-.01563.13281v.29688l.02734.11718v.14844l.04688.39844.02734.11719.0586.08984.12109.03125h.14844l.13281-.01563.0586.08985v.11719l-.0586.08984-.08984.0586-.10157.04296-.10546.04688-.08985.05859-.08594.0586-.13671.01562-.1172-.03125-.1328-.01563-.10157.04688-.0625.08594-.01172.13671-.01562.13282-.03125.11719-.02735.11718-.01562.13281-.03125.1211v.29687l.01563.13282.03125.11718v.14844l.01171.13281v.14844l-.02734.11719-.04688.10156-.02734.1211-.03125.11718-.0586.08985-.07421.07421-.10156.04297-.10547.04688-.11719.02734-.1211.03125-.10156-.04687.0586-.08594.10547-.04688.02734-.11718.03125-.11719.02734-.1211.03125-.11718v-.14844l.01563-.13281-.03125-.11719-.04297-.10547-.10547.01563-.07422.07422-.10156.04296-.08984.0625-.07422.07422-.04297.10157-.01563.1328-.03125.1172L304.25 426l-.03125.11719-.02734.11719-.03125.12109-.02735.11719-.03125.11718-.04297.10547-.08984.0586h-.08984l-.1172-.03125-.03124-.08594.01562-.13672-.03125-.11719v-.14844l-.01171-.1328v-.14844l-.0625-.23438-.02735-.1211-.04297-.10156-.04687-.10546-.0586-.08594-.05859-.08985-.04297-.10546-.0625-.08594-.14844-.14844-.0703-.07422-.10548-.04687-.10547-.04297-.10156-.04297-.29687-.29688-.08985-.07421-.08594-.0586-.10546-.04297-.08985-.0625-.08594-.0586-.10546-.04296-.08985-.0586-.08594-.0625-.07421-.0703-.10547-.04688-.08594-.0586-.10547-.04296-.08984-.0625-.10156-.04297-.10547-.04297-.08594-.0586-.10547-.04687-.10547-.04297-.10156-.04687-.08985-.0586-.10156-.04297-.10547-.04296-.08984-.0625-.11719-.02735-.13281-.01562-.13281.01562H299.75l-.13281.01563-.11719-.03125-.08984-.0586-.07422-.07422-.08985-.05859-.10156-.04688h-.14844l-.12109-.02734-.10156-.04297-.07422-.07422-.11719-.17968-.08984-.0586-.10156-.04297-.08985-.0625-.10547-.04296-.08984-.0586-.08594-.0586-.10547-.04687-.0586-.08594-.05858-.08984-.04297-.10547-.04688-.10156-.07422-.07422-.08594-.0586-.07421-.07421-.08985-.0586-.22265-.22265-.04297-.10547-.03125-.26563.10547-.04296h.14453l.10547.04296.07421.07422.08985.0586.08594.0586.10546.04687.08985.05859.14844.14844.0703.07422.14845.14843.0625.08594.07421.07422.08594.0586.07422.07421.08985.0625.08984.0586.08594.05859.26953.17578.10156.04688.10547.04296.10156.04297.04688-.07421.05859-.08594.07422-.07422.07031-.07422.10547.04297.07422.07422.0586.08984.04296.10156.04688.10547.04296.10547.1211.02735.11719-.02735.07421-.08984.04297-.10547.0586-.08985.07422-.07421.10546-.04297.1172-.02735.1328.01172.08985.0586.14844.14843.05859.08985.04297.10547.04687.10156.04297.10547.04297.10156.10547.04688.10547.04296.13281.01563.08594-.0586.0586-.08984.07421-.07422.10547-.04297.11719.02735.10547.04687.10156.04297.10547.04297.10156.04688.17969.11718v.11719l-.01563.13281.01563.13281.01562.13672.0586.08594.10156.04688.1211.02734.11718.03125h.14844l.11719-.03125.05859-.08984.17969-.1172.05859-.08983.07422-.07422.0586-.08594.11718-.17969.17969-.11719.11719.03125.08984.0586.04297.07422-.01563.1328v.1172l.08985.05859h.14843l.13282-.01563.1328-.01171.26563-.03125.10547-.04297.11719-.03125.1211-.02735.07421-.07421.07031-.07422.0625-.08985-.01562-.10547-.04688-.10156-.10156-.04297-.10547-.01562-.11718.02734-.26563.03125h-.14844l-.07421-.07422-.08985-.0586-.11719-.03124-.11718-.02735-.13282-.01562h-.14843l-.13282.01563h-.29687l-.10547-.04688-.14844-.14844-.04297-.10156-.05859-.08984.22266-.22266.08593-.0586.10547-.04296.11719-.03125.13281-.01563.13281.01563.13672.01562.10157.04297.1328-.01172.08985-.0625.10156-.04297.0625-.08984-.04687-.10156-.08984-.0586-.1172-.03125-.10155-.04296-.0586-.08985-.0625-.08984v-.11719l.01563-.13281.10547-.04688.07421-.07031v-.1211l-.08984-.05859-.03125-.11719.08985-.05859.07421-.07422.04297-.10547.0586-.08984.04687-.10156.01563-.13281v-.14844l-.04688-.10547-.04297-.10156-.08984-.0586-.13281-.01562-.10157-.04297-.13671-.01563-.1172-.03125h-.4453l-.13282-.01562-.13281-.01172-.13281-.01563-.11719-.03125h-.14844l-.13281-.01562-.13281-.01172-.26563-.03125-.1211-.04297-.08593-.0586-.07422-.07421v-.14844l.01172-.13281.10547-.04688.10156-.04296.13281-.01563h.15235l.13281-.01562h.29297l.1211.03125.10156.04296.08984.0586.23438.0625.12109-.04688.08984-.05859.10156-.04297.13282-.01562.10547.04296.10156.04688.13281.01172.1211-.02735h.14453l.12109-.03125.11719-.02734.10547-.04687.07421-.07422.08594-.0586.14844-.14843.0586-.08594.04687-.10547.02734-.11719.01563-.10547-.10156-.04296-.08985-.0586-.11719-.03125-.10546-.04297-.08985-.0625-.07422-.08594-.07422-.07421-.10156-.04297-.10547-.04688-.10156-.04297-.0586-.08984-.04687-.10156-.08594-.21094-.0625-.08594-.05859-.08984-.07422-.07422-.08594-.0586h-.26953l-.11719.03126-.08984.05859-.10156.04297-.13281.01562-.10547-.01562-.02735-.11719-.0625-.08984-.11718-.03125-.10157-.04297-.14843-.14844-.03125-.11719-.01563-.10546.07422-.07422.17969-.1172.11719-.02733.11718-.03125.13672.01562.10156.04297.10547.04297.10156.04687.10547.04297.1172.03125.1328.01563.1172.02734.1328.01563.10547-.01563.08985-.0586-.07422-.07421-.10547-.04297-.07422-.07422-.07422-.08984-.14844-.14844-.08593-.0586-.08985-.05859-.07422-.07422-.08984-.0586-.10156-.04687-.1211-.02734-.10156-.04688-.10547-.04296-.11719-.03125-.10156-.04297-.1211-.03125h-.14843l-.11719.03125-.10546.04297-.08594.0625-.17969.11718-.08594.0586-.08984.0586-.10547.04687-.08594.05859-.10547.04297-.10156.04297-.10547.04687-.07422.07422-.05859.08985-.0586.08593-.04687.10547-.0586.08594-.07421.07422-.13281-.01172-.1172-.03125h-.11718l-.07422.07422-.08984.0586-.07422.07421-.08984.0586-.08594.05859-.10547.04687-.10156.04297-.13672.01563-.10156-.04297-.14844-.14844-.10547-.04688h-.08594l-.10547.04688-.10156.04297-.1211.03125-.11718-.03125-.07422-.07422v-.11719l.03125-.1211.07422-.0703.0586-.08985.07421-.07422.11719-.03125.10547-.04296h.29297l.13281-.01563.13672-.01563.10156-.04296.08985-.0586.10156-.04687.08984-.0586.13281-.01171.08985.05859.13281.01172.08984-.0586.08594-.05859.10547-.04297.08984-.0586.08594-.0625.08985-.05859.14843-.14843.0586-.08594.05859-.08985.10547-.04296.13281-.01563.11719.02735.1211.03125.05859-.0586.05859-.08984.03125-.26563.02734-.11719.10547.01172.13281.01563.10157-.04297.08984-.0586.0586-.08984.07421-.07422.0586-.08984.04687-.10156.01172-.13281-.01172-.13282-.04687-.10547-.14844-.14843-.0586-.08985-.05859-.08594-.04297-.10546v-.44532l.01563-.1328v-.14845l.01172-.1328-.0586-.0586-.08984.0586-.10156-.04298-.17969-.11719-.08594-.05859-.0625-.08984-.0586-.08985-.07421-.07421-.08594-.0586-.1211.03125-.10155.01172-.10547.04688-.08594.05859-.10547.04297-.14844.14844-.08984.05859-.08594.0586-.08984.0625-.10547.04296-.13281.01563v-.1211l.10547-.04297.11718-.03125.07422-.0703.04297-.10548v-.14844l-.02734-.11718-.14844-.14844-.13281-.01563h-.14844l-.11719.03125-.10547.04297-.10156.04297-.08984.0625-.11719.02735-.07422-.07422.01172-.13281-.04297-.10157-.04297-.10547-.08984-.05859-.11719.02734-.1211.03125-.11718.03125-.10156.04297-.1211.03125-.10156.04297-.10547.04297-.08984.0586-.10156.01562v-.11719l.01562-.13281-.0586-.08985-.07421.04297-.14844.14844-.0586.08985-.07421.07421-.04688.10547-.04296.10156-.07422.07422-.0586.08985-.07422.07422-.05859.08593-.07422.07422-.08984.0625-.07422.07031-.07422.07422-.10156.01563-.13281.01562-.10547-.04296v-.1211l.14843-.14844.04297-.10156.0586-.08984.04687-.10156.04297-.10547.0586-.08985.03124-.11719.04297-.10156.03125-.1211.02735-.11718.04687-.10547.04297-.10156.04297-.10547.07422-.07031.08984-.0625.08985-.0586.10156-.04296h.29687l.26563-.03125.10547-.04297-.07422-.07422-.11719-.03125-.10547-.04297-.08984-.0586-.10156-.04687-.08985-.0586-.10156-.04296-.10547-.04297-.08984-.0625-.08594-.0586-.10547-.04296-.10156-.04297-.1211-.03125-.11718-.03125-.10157-.04297L297.5 410.25l-.10156-.04297-.08985-.0586-.04296-.10546-.01563-.13281.10156-.04297.13281-.01563.13672.01563.13282-.01563.10156-.04297.0586-.08984.01562-.10547-.08985-.0586-.07421-.07421-.10157-.04297-.08984-.0586-.14844-.14843-.04297-.10547-.01562-.13281v-.29297l-.0586-.08985-.08984-.05859-.07422-.07422-.04297-.10547-.03125-.11718-.0586-.08985-.07421-.07422-.11719-.02734-.07422-.07422-.08984-.0586-.08984-.0625-.08594-.05859-.07422-.07421-.0586-.08594-.04687-.10547-.08594-.0586-.14843-.14843-.19532-.0586-.1328.01563-.10157.04297-.07422.07422-.04688.10156-.04296.10547-.0586.08984-.0586.08594-.29687.29687-.08984.0586h-.08594l-.0625-.08594-.04297-.10547.03125-.11719.0586-.08984.02734-.11719-.01172-.13281-.08984-.0625-.10547.04688-.11719.02734-.11719.03125-.26953.17578-.10156.04688-.11719.02734-.10546.04687-.08985.0586-.10156.04297-.0586-.08594-.04687-.10547.01563-.13281.04687-.10547.07031-.07422.07422-.07031.0586-.08985v-.14843l-.04297-.10547h-.23829l-.10156.04687-.03125.11719-.02734.11719-.03125.1211-.07422.04296-.13281.01563-.07422-.04688-.04297-.10156-.04297-.10547-.04687-.10156-.04297-.10547-.1211.03125-.10156.04297-.13281.01562-.11719.03125-.10547.04297-.08984.0586-.10156.04687-.1211.02734-.13281.01563-.10156-.04297-.0586-.08985-.04687-.10546-.04297-.10157-.04297-.10546v-.1172l.0586-.08984.08593-.05859.17969-.11719.10156-.04687.10547-.04297.10547-.0586.10156-.04296.08985-.0625.10156-.04297.10547-.0586.10156-.04687.08984-.0586.10547-.04296.10156-.04297.08985-.0625.10156-.04297.13672-.01563.11719.03125.10156.04297.1211.03125.10156.04297.10546.04688.10157.04296.10547.04297.10156.04688.10547.04297.10156.04297.10547.04687.08594.0586.10546.04296.1172.03125.10546.04297.10156.04688.08985.0586.10547.04296.10156.04297.10547.04687.11719.02735.10156.04687.1211.02735h.14843l.08594-.0586.01562-.10156.0586-.08984-.02735-.1172-.07422-.07421-.11719-.17969-.07421-.07422-.08985-.07421-.17969-.1172-.08593-.05859-.10547-.04296-.10156-.04688-.26954-.17578-.05859-.08985-.07422-.07421-.0586-.08985-.04296-.10156-.03125-.11719-.01563-.13672v-.5625l-.01171-.1328-.01563-.13282-.03125-.11719-.01562-.13281-.01172-.13281-.03125-.1211-.22266-.22265-.0586-.08594-.01562-.10547.03125-.11719.13281-.01562v-91.41406H172.9922v1.45312l-.0586.23438-.35156 1.05078-.17187.52343-.1172.34766-.17577.41016-.11719.17187-.23438.29297-.23046.0586h-.35157l-.11718.05859-.23047.40625v.29297l.11719.17578.23046.23047.1172.23437.64062.75781.29297.46485.17578.23437.23047.35156.23437.34766.64063.8164.17578.46485.17187.41016.11719.69531.17578.46875.11719 1.39844.0586.46484v.875l.11718 1.04688v4.78125l-.0586.46484-.35156 1.28125-.17578.52344-.11328.41015-.35156.9297L172.93359 336l-.23437.58203-.11719.17578-.17187.34766-.17578.40625-.35157.8164-.0586.29297-.11327.29297-.11719.28906-.0586.17579-.11718.875-.0586.40625-.05859.11718-.0586.17579-.05859.17187-.23047.52734-.11718.17188v.23437l-.11719.23438-.0586.17187-.17577.58594v.28906l-.0586.17579v.29296l-.0586.11329-.05859.52734v.17187l-.05468.23438v2.6211l-.17578.8164-.1172.17578-.17577.23438-.1172.17187-.11327.23438-.58594.93359-.23047.28906-.29297.46485-.17578.23437-.28906.35156-.35156.69922-.11328.23047-.17579.41016-.17578.23046-.40625.52735-.8164.69922-.29297.17187-.28906.23438-.17579.11719-.17578.17578-.52344.40625-.52734.17578-.17187.17578-.23438.05469-.64062.17578h-.75782m12.21094 31.02344l-1.07422.44921.35938.89454 1.25-.71485.44531-.53906-.98047-.08985"/><path fill="#d3d3d3" fill-opacity="0" fill-rule="evenodd" d="M201.50781 416.59766h-.89453l.44922.6289.98047.35938.80469-.08985.4453-.98828-.17577.08985-.71485-.35547-.89453.35547m154.6211 59.0703l-.0586-.52343v-.29297l.11328-.29297.0586-.23046.46875-.46875h.11328l.11719-.11329.11718-.05859h.17579l.23437-.0586h.34766l.23437.0586.11719.0586.23047.17187.0586.17578.11718.58203v.29297l-.11719.17578-.17187.28906-.17579.17579-.52734.52343-.23047.23438-.11719.0586h-.17578l-.11718-.0586-.40625-.29297-.17579-.11719-.11718-.0586-.0586-.11327-.05468-.1172m6.64062-10.95702l-.0586-.17188v-1.10937l.0586-.17188.17578-.0586.17188-.05858h.17578l.23437-.0586.1172.0586.05858.69921-.05859.17188-.11719.17578-.11718.0586-.23438.52343-.11328.0586h-.23438l-.05859-.1172m9.61328-14.39062l-.11719-.17578v-.69922l.29297-.875.1172-.17187.17577-.35156.11328-.23047.1172-.29297.35155-.75781.1172-.23047.17187-.23438h.17578l.11719-.0586h.64062l.11719.0586.23437.23438.17188.11328.35156.29297.11719.11718.11328.17579v.11328l.11719.05859.11718.11719v.69922l-.05859.17578v.23047l-.0586.17578-.34765 1.05078-.11719.23047-.11719.23437-.11718.0586-.23047.23437-.64063.28906h-.875l-.41015-.11718-.64063-.46485"/><path fill="none" stroke="#bebebe" stroke-linecap="round" stroke-linejoin="round" stroke-miterlimit="10" stroke-width=".5" d="M467.95703 311.69531H144.02734v168.625h323.9297v-168.625"/><g clip-path="url(#a)"><path fill="#fff" fill-opacity="0" fill-rule="evenodd" d="M144 475.89063v4.4375h.0039H144v-28.50391 24.0664"/></g><g clip-path="url(#b)"><path fill="#fff" fill-opacity="0" fill-rule="evenodd" d="M144 444.82031v1.70313-134.85156h.0039H144V444.8203"/></g><path fill="#50fcfc" fill-rule="evenodd" d="M144 446.52344v5.30078l.0039-.0039v-5.29298l-.0039-.0039"/><g clip-path="url(#c)"><path fill="#fff" fill-opacity="0" fill-rule="evenodd" d="M144.0039 480.32813V451.8203l1.52344-2.5586-1.52343-2.73437V311.67188h88.76172v115.8125l-4.4375.59375-3.35547 3.42968-1.08203 2.91797-4.4375.4961-4.4375.51562-4.44141-.26172-3.73828.76953-.69922.10938-1.92188-.10938-2.51562-.30078-4.4375-.04687-4.4414.0039-4.4375-1.42969-4.4375.04688-4.4375-.0586-4.44141-.2578-4.4375.48046-4.4375 1.07422-.57813.48828-3.85937 2.17188-4.03907 2.26562 1 4.4375.41797 4.4414.1211 4.4375-.16016 4.4375-.45313 4.4375 3.11329 2.96876 4.4375-1.28125 2.83593-1.6875 1.60157-.73438 4.4375.03516 4.4414.61719 4.4375-.67578 4.4375-.44922 4.4375-1.03516 1.96094-2.19531 2.48047-.47656 4.4375-1.90625 4.4375-1.06641 1.60937-.98828 2.82813-1.64453 4.4414.2461 4.4375-.58985 3.28125-2.44922 1.15625-.6836 4.4375-.83984 4.4375-2.8789.04297-.03907 3.83985-4.4375.5586-.29687.5625.29687 3.875 2.82813 4.4375-.61328 2.01171-2.21485-2.01172-4.16797-.125-.26953-4.3125-3.75-4.4375-.64453-.11328-.04297-4.32813-4.02344v-115.8125h26.63282v120.1172l-4.4414 1.39062-2.00392 2.76562 2.00391 2.13672 4.4414.53125 2.35548-2.66797-2.35547-4.15625V311.67187h8.875v116.1875l-3.97656 3.64844 3.97656 2.86328 4.4375-.8125 4.4414.34375 4.4375 1.47266.98829.57031 3.44921 2.42578 4.4375-.78906 1.66797-1.63672-1.66797-1.85156-1.93359-2.58594-2.5039-2.34765-4.4375-.84766-4.4375.38281-4.44141-.58594-4.4375-.25v-116.1875h84.32812v123.1836l-4.4375.04687-1.0625 1.04297 1.0625 1.10547 4.4375 1.36719 1.35938-2.47266-1.35938-1.08984v-123.1836h22.1914v127.46875l-1.39843 1.2422 1.39844 1.79296 3.40625 2.64453-3.40625 1.72266-1.73438 2.71875 1.73438 1.61328 1.79297-1.61328 2.64844-3.92969.57421-.51172-.57421-.63672-3.22657-3.80078-1.21484-1.24219V311.67188h17.7539v141.89454l-.125.1328-4.3125.60157-4.4375 1.23828-2.39843 2.59766-1.13672 4.4375 3.53515 3.64062.5547.80079 3.8828 3.71484 4.4375-.82422 4.4375-2.89063-.59375-4.4414.17579-4.4375-3.91797-4.4375-.10156-.13281V311.67187h75.44921v150.4336l-.46484.46875.46484.46094v17.29296H144.00391"/></g><path fill="#50fcfc" fill-rule="evenodd" d="M145.52734 449.26172l-1.52343 2.5586v-5.29298l1.52343 2.73438m13.1875-4.4414l-1-4.4375 4.03907-2.26563 3.85937-2.17188.57813-.48828 4.4375-1.07422 4.4375-.48047 4.4414.25782 4.4375.05859 4.4375-.04688 4.4375 1.4297 4.4414-.00391 4.4375.04687 2.51563.30078 1.92188.10938.69922-.10938 3.73828-.76953 4.4414.26172 4.4375-.51563 4.4375-.49609 1.08204-2.91797 3.35547-3.42969v7.26954l-2.13672.59765 2.13672.375.14843-.375-.14844-.59765v-7.26954l4.4375-.59375v4.38282l-3.125 4.07812-1.3125 3.34766-4.4375-.01953-2.92968 1.10937-1.50781 1.35547-4.4375-.86719-1.3711-.48828-3.07031-.57812-2.98438.57812-1.45312.53906-2.16406-.53906-2.27344-.28515-1.11719.28515-3.32031.94531-4.07422 3.4922-.36719.40624-1.05078-.40625-3.38672-1.41406-3.90234 1.41406-.53516.14063-4.4375 2.00781-4.4414.46484-4.4375.09766-2.64453-2.71094 2.64453-3.42578 1.03906-1.01172-1.03906-.84765-4.4375-.83985-2.47266 1.6875-.69922 4.4375 3.17188 3.42578 1.0625 1.01563-1.0625 2.29687-1.41797 2.14063-.76563 4.4375-2.2539 1.21094-.6172 3.22656.6172.58984 1.20312-.58984 3.23438-3.90625 3.05859-.53125-1.65625-4.4375 3.03516-1.72656 1.92968 1.72656 2.50782 3.16406 3.375-3.16406 1.0664-.64453.5586.64453 3.8789 3.08594 4.4375-.76172 3.46485-2.32422.97265-.73047 1.48047.73047 2.96094.82031 1.3789-.82031 3.0586-1.5625 4.4375-.59766 2.82031-2.27734 1.61719-2.84766 4.4414 2.57422 4.4375-2.15625 4.4375-1.51953 4.4375-.15625.51172-.33594 3.5625-4.4375.36328-.05078 4.44141-2.3789 4.4375 1.51171.625-3.51953-.625-.54297-4.4375-1.58984-4.4414-1.94531v-4.38281l4.32812 4.02343.11328.04297 4.4375.64453 4.3125 3.75.125.26953 2.01172 4.16797-2.01172 2.21485-4.4375.61328-3.875-2.82813-.5625-.29687-.5586.29687-3.83984 4.4375-.04297.03906-4.4375 2.87891-4.4375.83985-1.15625.68359-3.28125 2.44922-4.4375.58984-4.4414-.2461-2.82813 1.64454-1.60937.98828-4.4375 1.0664-4.4375 1.90626-2.48047.47656-1.96094 2.19531-4.4375 1.03516-4.4375.44922-4.4375.67578-4.4414-.61719-4.4375-.03516-1.60157.73438-2.83593 1.6875-4.4375 1.28125-3.11328-2.96875.45312-4.4375.16016-4.4375-.1211-4.4375-.41797-4.4414"/><path fill="#00e8fc" fill-rule="evenodd" d="M161.7539 463.16406l-.61718-.58984.61719-3.22656 2.2539-1.21094.76563-4.4375 1.41797-2.14063 1.0625-2.29687-1.0625-1.01563-3.17188-3.42578.69922-4.4375 2.47266-1.6875 4.4375.83985 1.03906.84765-1.03906 1.01172-2.64453 3.42578 2.64453 2.71094 4.4375-.09766 4.4414-.46484 4.4375-2.00781.53516-.14063 3.90234-1.41406 3.38672 1.41406 1.05078.40625.36719-.40625 4.07422-3.49219 3.32031-.9453 1.11719-.28516 2.27344.28515 2.16406.53906 1.45312-.53906 2.98438-.57812 3.07031.57812 1.3711.48828 4.4375.8672 1.5078-1.35548 2.9297-1.10937 4.4375.01953 1.3125-3.34766 3.125-4.07812v2.53515l-1.1836 1.54297 1.1836 1.66016 2.58984-1.66016-2.58984-1.54297v-2.53515l4.4414 1.94531 4.4375 1.58984.625.54297-.625 3.51953-4.4375-1.51171-4.4414 2.3789-.36329.05078-3.5625 4.4375-.51172.33594-4.4375.15625-4.4375 1.51953-4.4375 2.15625-4.4414-2.57422-1.61719 2.84766-2.82031 2.27734-4.4375.59766-3.0586 1.5625-1.3789.82031-2.96094-.82031-1.48047-.73047-.97265.73047-3.46485 2.32422-4.4375.76172-3.8789-3.08594-.5586-.64453-1.0664.64453-3.375 3.16406-2.50782-3.16406-1.92968-1.72656-3.03516 1.72656 1.65625 4.4375-3.0586.53125-3.23437 3.90625-1.20312.58984"/><path fill="#fff" fill-opacity="0" fill-rule="evenodd" d="M228.32813 435.34766l-2.13672.59765 2.13672.375.14843-.375-.14844-.59765"/><path fill="#00d4fc" fill-rule="evenodd" d="M232.76563 437.60547l-1.1836-1.66016 1.1836-1.54297 2.58984 1.54297-2.58984 1.66016"/><path fill="#50fcfc" fill-rule="evenodd" d="M254.95703 438.08203l-2.0039-2.13672 2.0039-2.76562 4.4414-1.39063 2.35548 4.15625-2.35547 2.66797-4.4414-.53125m13.3164-3.71094l-3.97656-2.86328 3.97656-3.64844v3.48438l-.17969.16406.17969.1289.42187-.1289-.42187-.16406v-3.48438l4.4375.25 4.4414.58594 4.4375-.38281v2.10156l-2.76171 1.09375 2.76171 1.32031 2.8125-1.3203-2.8125-1.09376v-2.10156l4.4375.84766 2.50391 2.34765 1.9336 2.58594 1.66796 1.85156-1.66797 1.63672-4.4375.78906-3.44921-2.42578-.98829-.57031-4.4375-1.47266-4.4414-.34375-4.4375.8125"/><path fill="#00e8fc" fill-rule="evenodd" d="M268.27344 431.63672l-.17969-.1289.17969-.16407.42187.16406-.42187.1289m13.3164 1.19142l-2.76171-1.32032 2.76171-1.09375 2.8125 1.09375-2.8125 1.32031"/><path fill="#50fcfc" fill-rule="evenodd" d="M348.16406 437.05078l-1.0625-1.10547 1.0625-1.04297 4.4375-.04687 1.35938 1.08984-1.35938 2.47266-4.4375-1.36719m26.6289 13.82422l-1.73437-1.61328 1.73438-2.71875 3.40625-1.72266-3.40625-2.64453-1.39844-1.79297 1.39844-1.24219 1.21484 1.2422 3.22656 3.80077.57422.63672-.57421.51172-2.64844 3.92969-1.79297 1.61328m8.8789 15.33984l-3.53515-3.64062 1.13672-4.4375 2.39844-2.59766 4.4375-1.23828 4.3125-.60156.125-.13281v1.65234l-4.4375.63672-3.48047 2.28125-.95704 3.69531-.26562.74219.26563.27344 2.90625 4.16796 1.53125 1.46094 4.4375-1.26953.29687-.1914 1.5-4.44141.83594-4.4375-2.63281-2.91797v-1.65234l.10156.1328 3.91797 4.4375-.17579 4.4375.59375 4.44142-4.4375 2.89062-4.4375.82422-3.8828-3.71485-.5547-.80078"/><path fill="#00e8fc" fill-rule="evenodd" d="M383.67188 462.84766l-.26563-.27344.26563-.74219.95703-3.69531 3.48046-2.28125 4.4375-.63672v2.5586l-2.3828.35937-2.0547.95312-1.40625 3.48438 1.40625 1.86328 2.14063-1.86328 2.29688-3.42578.32421-1.01172-.32421-.35938v-2.55859l2.6328 2.91797-.83593 4.4375-1.5 4.4414-.29688.19141-4.4375 1.26953-1.53125-1.46094-2.90625-4.16796"/><path fill="#00d4fc" fill-rule="evenodd" d="M388.10938 464.4375l-1.40625-1.86328 1.40625-3.48438 2.05468-.95312 2.38281-.35938.32422.35938-.32421 1.01172-2.29688 3.42578-2.14063 1.86328"/><path fill="#50fcfc" fill-rule="evenodd" d="M467.9961 463.03516l-.46485-.46094.46484-.46875v.92969"/><g clip-path="url(#d)"><path fill="#fff" fill-opacity="0" fill-rule="evenodd" d="M467.9961 480.32813H468v-17.29297 17.29296h-.0039"/></g><path fill="#50fcfc" fill-rule="evenodd" d="M467.9961 462.10547v.92969H468v-.9297h-.0039"/><g clip-path="url(#e)"><path fill="#fff" fill-opacity="0" fill-rule="evenodd" d="M467.9961 311.67188H468v150.43359-150.4336h-.0039"/></g><path fill="#fff" fill-opacity="0" fill-rule="evenodd" d="M222.46484 454.53516l5.46875-2.0547-3.5078-9.32421-5.46485 2.05469 3.5039 9.32422"/><path fill-rule="evenodd" d="M222.8789 445.69531l.47657-.17969 2.21875 5.89454-.73828.27734-1.58203-4.20313-1.29688.48829-.19531-.51954.5-.2578.21484-.14063.1836-.16406.14062-.20313.08984-.25781.03125-.32422-.04296-.41016"/><g clip-path="url(#f)"><path fill="none" stroke="#000" stroke-linecap="round" stroke-linejoin="round" stroke-miterlimit="10" stroke-width=".5" d="M147.46875 480.89844l-6.9375-1.13672"/></g><g clip-path="url(#g)"><path fill="none" stroke="#000" stroke-linecap="round" stroke-linejoin="round" stroke-miterlimit="10" stroke-width=".5" d="M147.46875 480.89844l.78516 2.32422"/></g><g clip-path="url(#h)"><path fill="none" stroke="#000" stroke-linecap="round" stroke-linejoin="round" stroke-miterlimit="10" stroke-width=".5" d="M160.7539 481.04688l-6.8789-1.4375"/></g><g clip-path="url(#i)"><path fill="none" stroke="#000" stroke-linecap="round" stroke-linejoin="round" stroke-miterlimit="10" stroke-width=".5" d="M160.7539 481.04688l.6836 2.35546"/></g><g clip-path="url(#j)"><path fill="none" stroke="#000" stroke-linecap="round" stroke-linejoin="round" stroke-miterlimit="10" stroke-width=".5" d="M174.0586 481.09375l-6.85938-1.52734"/></g><g clip-path="url(#k)"><path fill="none" stroke="#000" stroke-linecap="round" stroke-linejoin="round" stroke-miterlimit="10" stroke-width=".5" d="M174.0586 481.09375l.65234 2.36328"/></g><g clip-path="url(#l)"><path fill="none" stroke="#000" stroke-linecap="round" stroke-linejoin="round" stroke-miterlimit="10" stroke-width=".5" d="M187.41406 480.8789l-6.9375-1.10156"/></g><g clip-path="url(#m)"><path fill="none" stroke="#000" stroke-linecap="round" stroke-linejoin="round" stroke-miterlimit="10" stroke-width=".5" d="M187.41406 480.8789l.80078 2.32032"/></g><g clip-path="url(#n)"><path fill="none" stroke="#000" stroke-linecap="round" stroke-linejoin="round" stroke-miterlimit="10" stroke-width=".5" d="M200.76953 480.53125l-7.01562-.40625"/></g><g clip-path="url(#o)"><path fill="none" stroke="#000" stroke-linecap="round" stroke-linejoin="round" stroke-miterlimit="10" stroke-width=".5" d="M200.76953 480.53125l1.02344 2.23047"/></g><g clip-path="url(#p)"><path fill="none" stroke="#000" stroke-linecap="round" stroke-linejoin="round" stroke-miterlimit="10" stroke-width=".5" d="M214.08594 480.5039l-7.01953-.35156"/></g><g clip-path="url(#q)"><path fill="none" stroke="#000" stroke-linecap="round" stroke-linejoin="round" stroke-miterlimit="10" stroke-width=".5" d="M214.08594 480.5039l1.03906 2.22266"/></g><g clip-path="url(#r)"><path fill="none" stroke="#000" stroke-linecap="round" stroke-linejoin="round" stroke-miterlimit="10" stroke-width=".5" d="M227.40234 480.48438l-7.02343-.3125"/></g><g clip-path="url(#s)"><path fill="none" stroke="#000" stroke-linecap="round" stroke-linejoin="round" stroke-miterlimit="10" stroke-width=".5" d="M227.40234 480.48438l1.0547 2.21484"/></g><g clip-path="url(#t)"><path fill="none" stroke="#000" stroke-linecap="round" stroke-linejoin="round" stroke-miterlimit="10" stroke-width=".5" d="M240.70703 480.59375l-7.0039-.53125"/></g><g clip-path="url(#u)"><path fill="none" stroke="#000" stroke-linecap="round" stroke-linejoin="round" stroke-miterlimit="10" stroke-width=".5" d="M240.70703 480.59375l.98828 2.2461"/></g><g clip-path="url(#v)"><path fill="none" stroke="#000" stroke-linecap="round" stroke-linejoin="round" stroke-miterlimit="10" stroke-width=".5" d="M254.02734 480.5586l-7.01172-.46094"/></g><g clip-path="url(#w)"><path fill="none" stroke="#000" stroke-linecap="round" stroke-linejoin="round" stroke-miterlimit="10" stroke-width=".5" d="M254.02734 480.5586l1.00782 2.23827"/></g><g clip-path="url(#x)"><path fill="none" stroke="#000" stroke-linecap="round" stroke-linejoin="round" stroke-miterlimit="10" stroke-width=".5" d="M267.28125 481.02344l-6.89063-1.39063"/></g><g clip-path="url(#y)"><path fill="none" stroke="#000" stroke-linecap="round" stroke-linejoin="round" stroke-miterlimit="10" stroke-width=".5" d="M266.27734 480.82031l.35157 1.17578"/></g><g clip-path="url(#z)"><path fill="none" stroke="#000" stroke-linecap="round" stroke-linejoin="round" stroke-miterlimit="10" stroke-width=".5" d="M280.58203 481.07422l-6.86328-1.49219"/></g><g clip-path="url(#A)"><path fill="none" stroke="#000" stroke-linecap="round" stroke-linejoin="round" stroke-miterlimit="10" stroke-width=".5" d="M279.58594 480.85938l.33203 1.17968"/></g><g clip-path="url(#B)"><path fill="none" stroke="#000" stroke-linecap="round" stroke-linejoin="round" stroke-miterlimit="10" stroke-width=".5" d="M293.53125 482.04297l-6.13281-3.42969"/></g><g clip-path="url(#C)"><path fill="none" stroke="#000" stroke-linecap="round" stroke-linejoin="round" stroke-miterlimit="10" stroke-width=".5" d="M307.13281 481.38281l-6.70312-2.10547"/></g><g clip-path="url(#D)"><path fill="none" stroke="#000" stroke-linecap="round" stroke-linejoin="round" stroke-miterlimit="10" stroke-width=".5" d="M306.15625 481.07422l.22656 1.20703"/></g><g clip-path="url(#E)"><path fill="none" stroke="#000" stroke-linecap="round" stroke-linejoin="round" stroke-miterlimit="10" stroke-width=".5" d="M319.9336 482.40234l-5.67579-4.14843"/></g><g clip-path="url(#F)"><path fill="none" stroke="#000" stroke-linecap="round" stroke-linejoin="round" stroke-miterlimit="10" stroke-width=".5" d="M332.10156 483.40625l-3.38281-6.15625"/></g><g clip-path="url(#G)"><path fill="none" stroke="#000" stroke-linecap="round" stroke-linejoin="round" stroke-miterlimit="10" stroke-width=".5" d="M344.75 480.32813l-.01953-.19922-.0586-.19141-.09765-.17578-.45703-.3789-.1914-.0586-.19923-.01953-.19922.01953-.1914.0586-.46094.3789-.09375.17578-.0586.1914-.01952.19923.01953.19921.05859.19141.09375.17969.46094.375.1914.0586.19922.01952.19922-.01953.1914-.0586.45704-.375.09765-.17968.0586-.1914.01953-.19922"/></g><g clip-path="url(#H)"><path fill="none" stroke="#000" stroke-linecap="round" stroke-linejoin="round" stroke-miterlimit="10" stroke-width=".5" d="M359.10156 483.17578l-4.1211-5.6914"/></g><g clip-path="url(#I)"><path fill="none" stroke="#000" stroke-linecap="round" stroke-linejoin="round" stroke-miterlimit="10" stroke-width=".5" d="M371.38672 483.6875l-2.0625-6.71875"/></g><g clip-path="url(#J)"><path fill="none" stroke="#000" stroke-linecap="round" stroke-linejoin="round" stroke-miterlimit="10" stroke-width=".5" d="M381.35938 482.97266l4.625-5.28907"/></g><g clip-path="url(#K)"><path fill="none" stroke="#000" stroke-linecap="round" stroke-linejoin="round" stroke-miterlimit="10" stroke-width=".5" d="M394.26953 482.55469l5.4336-4.45313"/></g><g clip-path="url(#L)"><path fill="none" stroke="#000" stroke-linecap="round" stroke-linejoin="round" stroke-miterlimit="10" stroke-width=".5" d="M407.96094 482.94922l4.67969-5.24219"/></g><g clip-path="url(#M)"><path fill="none" stroke="#000" stroke-linecap="round" stroke-linejoin="round" stroke-miterlimit="10" stroke-width=".5" d="M422.11719 483.50781l2.9961-6.35547"/></g><g clip-path="url(#N)"><path fill="none" stroke="#000" stroke-linecap="round" stroke-linejoin="round" stroke-miterlimit="10" stroke-width=".5" d="M436.69922 483.83594l.46484-7.01172"/></g><g clip-path="url(#O)"><path fill="none" stroke="#000" stroke-linecap="round" stroke-linejoin="round" stroke-miterlimit="10" stroke-width=".5" d="M448.98047 483.60547l2.53125-6.55469"/></g><g clip-path="url(#P)"><path fill="none" stroke="#000" stroke-linecap="round" stroke-linejoin="round" stroke-miterlimit="10" stroke-width=".5" d="M464.85547 483.59375l-2.58594-6.53125"/></g><g clip-path="url(#Q)"><path fill="none" stroke="#000" stroke-linecap="round" stroke-linejoin="round" stroke-miterlimit="10" stroke-width=".5" d="M147.42969 467.77344l-6.85938-1.51953"/></g><path fill="none" stroke="#000" stroke-linecap="round" stroke-linejoin="round" stroke-miterlimit="10" stroke-width=".5" d="M147.42969 467.77344l.65625 2.36719M160.75 467.7578l-6.86719-1.48828m6.86719 1.48828l.66797 2.35938m12.71484-2.80469l-7.0039-.59766m7.0039.59766l.96094 2.25781m12.36328-2.6289l-7.02344.14453m7.02344-.14453l1.19531 2.14453m12.0547-2.7539l-6.89454 1.36327m6.89453-1.36328l1.55078 1.90235m11.7539-1.96094l-6.87108 1.48047m6.87109-1.48047l1.58203 1.875m11.76563-1.6875l-6.9375 1.10547m6.9375-1.10547l1.47656 1.96094m11.88281-1.39454L233.69141 467m6.0039.02344l.57422 1.08594m13.74219-1.4922l-6.98438.79298m5.96875-.67578l.69532 1.01171m13.65234-.91406l-7.01563.36328m5.9961-.3125l.6289 1.05469m13.70704-1.1289l-7.01563.41015m5.99219-.35156l.64062 1.05078m13.60938-1.71094l-6.83984 1.61328m5.84375-1.3789l.80859.92187m13.45703.6211l-6.75-1.94141m5.76953 1.66016l.2539 1.19921m14.0625-.98437l-6.79296-1.8086m13.20312.7461l7.01954.3164m6.30859.21094l6.98828-.73828m-5.96875.63281l-.6875-1.01562m12.97266 1.00781l7.01172-.51172m-5.9922.4375l-.65234-1.03906m12.9961 1.48828l6.91406-1.26172m-5.90625 1.07813l-.76172-.96094m13.01563.60156l7.02343-.17578m-7.02343.17578l-1.20703-2.13672m14.52734 2.26563l7.01172-.4336m-7.01172.4336l-1.28516-2.08984m15.04297 3.59375l6.125-3.44141m-6.125 3.4414l-2.0664-1.32421m2.95703.82422l-2.06641-1.32422m14.78906 2.26953l5.53125-4.33203m-5.53125 4.33203l-2.24218-.99219m3.04687.36328l-1.1211-.4961m14.22657 1.72266l4.33984-5.52734m-3.70703 4.72266l-1.20703-.21485m15.3789 1.70313l1.35938-6.89453m-1.16015 5.89062l-1.17579.35547m15.19532.70703l-.44532-7.01172m.37891 5.99219l-1.04297.64453"/><g clip-path="url(#R)"><path fill="none" stroke="#000" stroke-linecap="round" stroke-linejoin="round" stroke-miterlimit="10" stroke-width=".5" d="M147.21484 455.11719l-6.42968-2.83985"/></g><path fill="none" stroke="#000" stroke-linecap="round" stroke-linejoin="round" stroke-miterlimit="10" stroke-width=".5" d="M147.21484 455.11719l.17578 2.44922m12.46094-1.4375l-5.07422-4.85938m4.33594 4.15235l-.33203 1.17968m14.35938-.44531l-5.01954-4.91797m4.28907 4.20313l-.34766 1.17968m14.24219-.3203l-4.71875-5.20313m4.03125 4.4453l-.41406 1.15626m15.52734-2.45703l-6.9414-1.08594m5.93359.92969l.39843 1.15625m13.8672-2.38281l-6.82423 1.67968m5.82813-1.4375l.82031.91407m12.58594-2.77735l-5.01953 4.91797m4.28906-4.19922l1.17187.36719m13.21875-.67578l-5.70703 4.10156m4.875-3.5039l1.10156.54296m12.78516-1.46093l-5.1836 4.74218m4.4297-4.05468l1.15625.41015m12.3203-1.61719l-4 5.77735m3.41798-4.9375l1.21875.14453m12.8789-.83203l-4.40234 5.47656m3.76172-4.67969l1.20312.22657m12.86719-.9297l-4.6289 5.28907m3.95312-4.51953l1.19531.28125m13.02344-.82813l-5.08984 4.84375m5.08984-4.84375l2.32812.77344m10.01563-1.4961l-3.14453 6.28516m2.6875-5.37109l1.22656-.02734m9.17969-.76563l3.58594 6.04297m-3.0625-5.16406l.63671-1.04688m10.5547 2.28125l6.78905 1.8164m-5.80078-1.55077l-.27734-1.19531m12.48437 1.73828l7.02735.20312m-6.0039-.17187l-.54298-1.10157m13.16797-.32421l6.35938 2.99218m-5.4336-2.5586l-.0586-1.22655m12.19532 1.54687l6.86719 1.48047m-6.86719-1.48047l-.67187-2.35937m13.92187 2.7539l6.9961.69532m-6.9961-.69532l-.92969-2.26953m1.94922 2.3711l-.46484-1.13672m13.2461 3.1914l6.02343-3.61718m-6.02344 3.61718l-2.10156-1.26562m15.78125 1.76562l5.29688-4.61718m-5.29688 4.61718l-2.29297-.8789m3.0625.20703l-1.14453-.4414m13.01953-.03907l6.63672-2.3125m-6.63672 2.3125l-1.80078-1.66797m15.70313 2.72266l5.46093-4.42188m-5.46093 4.42188l-2.25782-.96094m16.7461 1.89844l3.11718-6.29688m-2.66406 5.3789l-1.22656.03516"/><g clip-path="url(#S)"><path fill="none" stroke="#000" stroke-linecap="round" stroke-linejoin="round" stroke-miterlimit="10" stroke-width=".5" d="M147.11328 442.01172l-6.22656-3.25781"/></g><path fill="none" stroke="#000" stroke-linecap="round" stroke-linejoin="round" stroke-miterlimit="10" stroke-width=".5" d="M147.11328 442.01172l.01563 2.45312m13.26172-2.3828l-6.15235-3.39454m6.15234 3.39453l-.03906 2.45313m13-1.9297l-5.4414-4.4453m4.64843 3.79687l-.23828 1.20703m13.40235.25l-3.5547-6.0625m3.03907 5.17969l-.64453 1.04688m13.52734.21875l-1.65625-6.82813m1.41407 5.83594l-.91797.8164m14.90625.04297l-2.52344-6.5586m2.15625 5.60157l-.80469.92969m16.55469-4.38281l-6.65625 2.2578m18.625-4.02733l-3.96484 5.80078m17.13672-5.89453l-3.67579 5.98828m3.14063-5.1172l1.22266.07423m12.55078-.99219l-3.52344 6.07813m3.01172-5.19141l1.22656.04297m11.89844-1.23828l-2.1211 6.69922m1.8125-5.72657l1.20704-.22265m11.89843-.8711l-1.08593 6.9414m.92968-5.93358l1.16016-.40235m12.70703-.52344l-1.875 6.77344m1.60156-5.78515l1.19922-.26954m12.54297-.67187l-2.1836 6.67969m2.1836-6.6797l2.41406-.42187M331.35938 437l-1.89454 6.76563M331.35938 437l2.39453-.52344m9.1914.48047l1.5625 6.85156m-1.33593-5.85546l.92968-.80079m11.8086-.09375l2.26172 6.65235m-1.9336-5.6875l.83985-.89063m11.3164.33594l3.92188 5.83203m-3.35157-4.98437l.57813-1.08203m11.22266 1.17187l5.80859 3.95313m-5.8086-3.95313l.26954-2.4375m13.03515 2.45313l5.83203 3.92187m-5.83203-3.92187l.2539-2.44141m.59376 3.01172l.2539-2.4414M407 439.18358l6.60156 2.40235M407 439.18359l-.34375-2.42968m1.30469 2.77734l-.34375-2.42969m12.73828 4.58985l6.52344-2.61328m-6.52344 2.61328l-1.875-1.58203m2.82422 1.19921l-.9375-.78906m13.05078-.13672h7.02734m-7.02734 0l-1.15234-2.16406m14.76171.75781l6.4375 2.8125m-5.5-2.40234l-.09375-1.22266m13.48829 4.95703l4.40234-5.47656m-4.40234 5.47656l-2.41016-.45703"/><g clip-path="url(#T)"><path fill="none" stroke="#000" stroke-linecap="round" stroke-linejoin="round" stroke-miterlimit="10" stroke-width=".5" d="M147.3711 428.0664l-6.7422-1.99609"/></g><path fill="none" stroke="#000" stroke-linecap="round" stroke-linejoin="round" stroke-miterlimit="10" stroke-width=".5" d="M146.39063 427.77344l.24218 1.20312m13.95313-.6211l-6.53906-2.57421m6.53906 2.57422l.27734 2.4375m12.71484-1.8125l-5.89843-3.82422m5.89844 3.82422l-.21094 2.4414m13.25-2.0703l-5.34375-4.56641m5.34375 4.5664l-.53125 2.39453m14.28906-3.05078l-6.23047-3.2539m6.23047 3.2539l.01953 2.45313m13.27344-2.41016l-6.1836-3.33984m5.28125 2.85547l-.0078 1.22656m14.05468-.45703l-5.84375-3.91016m4.99219 3.33985l-.125 1.22265m14.64062-1.32422l-6.54297-2.5664m5.58985 2.1953l.14062 1.21876m13.57422-4.35547l-5.4375 4.44922m4.64844-3.80469l1.1289.47656m12.39844-1.67968l-4.28125 5.5664m3.66016-4.75781l1.20703.20312m11.96875-1.46093l-2.75781 6.46484m2.35547-5.52344l1.22265-.10547m10.79688-1.10156l.63281 6.9961m-.53906-5.98047l1.02734-.66797m14.70313.40625l-4.38282 5.48828m16.9336-5.95313l-2.85547 6.41797m2.4414-5.48437l1.22266-.08594m10.77735-1.14062l.60546 7.0039m-.60546-7.0039l2.05859-1.33204m10.98437 1.3672l1.14844 6.93359m-.98437-5.92579l.97656-.74218m12.11328-.2539l1.26953 6.91015m-1.08203-5.90625l.96094-.76172m9.35937 2.51172l6.88282 1.40234m-5.88282-1.19922l-.34765-1.17578m12.60547 2.00781l6.99609-.66797m-6.9961.66797l-1.35156-2.04687m16.38282-1.3164l3.5664 6.05859m-3.5664-6.0586l1.28125-2.08984m-.76172 2.97265l1.28125-2.09375m13.1328.73047l.32813 7.01953m-.27734-6l1.05469-.625m15.01172.79297l-5.27344 4.64453m4.5039-3.96875l1.14844.4297m12.16016-1.76563l-3.72266 5.96484m3.72266-5.96484l2.44531.17187m-2.98828.69922l1.22266.08203m10.26562-1.44531l1.01563 6.95312m-1.01563-6.95312l1.97656-1.45313m-1.82812 2.46485l.98828-.72656m12.73047-.32422l-.08594 7.02734m.07422-6.0039l1.08984-.5625"/><g clip-path="url(#U)"><path fill="none" stroke="#000" stroke-linecap="round" stroke-linejoin="round" stroke-miterlimit="10" stroke-width=".5" d="M147.32813 414.8789l-6.65625-2.25"/></g><path fill="none" stroke="#000" stroke-linecap="round" stroke-linejoin="round" stroke-miterlimit="10" stroke-width=".5" d="M146.35938 414.55078l.19921 1.21094m13.85547-.35156l-6.19531-3.3125m5.29297 2.83203l-.0039 1.22656m14.52734-1.53906l-6.8125-1.72656m5.8203 1.47656l.29298 1.1914m13.94531-.70703l-6.67188-2.19531m5.70313 1.875l.20703 1.21094m14.16016-1.1875l-6.83985-1.60156m5.84766 1.36718l.3125 1.1875m12.72656 1.02344l-4.30078-5.5586m13.32031 5.56641l4.28907-5.57031m-3.66407 4.75781l-1.21093-.20312m14.27734 1.26562l3.53516-6.07422m-3.53516 6.07422l-2.45313-.09375m20.89063-1.89843l-6.71094-2.08594m5.73438 1.78125l.23047 1.20703m14.21093-2.1875l-7.0078.48437m16.0078-3.66015l1.6211 6.83594m-1.38672-5.84375l.92187-.8086m11.58985.0039l2.76172 6.46095m-2.35938-5.52344l.76953-.95313m10.15625 4.25l6.73438-2.00781m-5.7539 1.71484l-.86329-.875m15.95312-3.29687l1.22266 6.92187m-1.04297-5.91406l.96485-.75781m9.97265 1.09766l5.61719 4.22265m-4.80078-3.60547l.1914-1.21484m15.96875-.69922l-1.70312 6.8164m1.45703-5.82421l1.1875-.29688m11.69531-.79297l-.34765 7.01563m.29687-5.9961l1.10938-.52343m8.60547 3.51172l6.95312-1m7.33984-1.97266l4.9961 4.94531m-4.9961-4.94531l.70704-2.34766m14.08984 1.45704l2.03516 6.72656m-2.03516-6.72656l1.73828-1.73047m-1.4414 2.71093l1.73828-1.73046m13.875.97265l-3.15235 6.28125m3.15235-6.28125l2.45312-.0586m-2.91406.97266l1.22656-.02734m12.76172-.76953l-3.58203 6.04687m3.58203-6.04687l2.45312.11328m-2.97265.76563l2.44922.11328m11.08984-1.14844l-2.98828 6.35937m2.98828-6.35937l2.45313-.1211M437.99219 411.5l1.22656-.0625m11.78516-1.11328l-1.51563 6.85937m1.51563-6.85937l2.36328-.66016m11.91797 1.02735l-3.44532 6.125m3.44532-6.125l2.45312.05859m-2.95703.83203l1.22656.02735"/><g clip-path="url(#V)"><path fill="none" stroke="#000" stroke-linecap="round" stroke-linejoin="round" stroke-miterlimit="10" stroke-width=".5" d="M147.50781 400.66406l-7.01562-.44922"/></g><path fill="none" stroke="#000" stroke-linecap="round" stroke-linejoin="round" stroke-miterlimit="10" stroke-width=".5" d="M146.48438 400.59766l.5078 1.11718m13.72266-.39062l-6.80078-1.76953m5.8125 1.51172l.28516 1.1914m14.10156-1.34765l-6.96484-.94141m5.94922.80469l.42578 1.14844m13.48047.24218l-6.1172-3.45312m5.22657 2.95312l-.03125 1.22656m14.39453-1.03906l-6.4336-2.82812m13.22267.23047l6.61718 2.36718m-5.65234-2.01953l-.17969-1.21484m12.42969 2.89062l6.82031-1.67968m-5.82812 1.4375l-.82032-.91407m15.8125 3.75391l1.48047-6.8711m-1.48047 6.8711l-2.35937.66797m17.70703-.83594l-2.58203-6.53515m2.20703 5.58203l-.79688.93359m11.69532-.07031l3-6.35547m-2.5625 5.42969l-1.22656.05859m19.05468-2.97266l-6.90234 1.32032m5.89844-1.125l.76953.95312m13.57031-1.02344l-6.94531 1.07422m5.9336-.91797l.73827.98047m10.39453-4.10156l-.55859 7.0039m.48047-5.98437l1.125-.48828m8.47656 3.04688l7.02734-.15625m-6.0039.13671l-.60156-1.0703m13.71484-1.2461l5.38281 4.51953m8.83594-5.28516l3.57812 6.04688m-3.05859-5.16797l.64063-1.04688m10.5664 2.22266l6.7539 1.9375m-5.76952-1.65625l-.25782-1.19922m14.48829-1.30078l2.95312 6.375m-2.52344-5.44531l.7422-.98047m15.10937.0586l-2.97657 6.36327m2.97657-6.36328l2.44921-.125m-2.8828 1.05078l1.22655-.0625m12.75391-.74609l-3.4414 6.1289m3.4414-6.1289l2.45313.05469m-2.95313.83594l1.22656.02734m12.8125-.78125l-3.89062 5.85156m3.89062-5.85156l2.44141.23828m-3.00781.61328l1.22265.1211m12.75782-.90625l-4.08594 5.71875m4.08594-5.71875l2.43359.32421m-3.02734.50782l1.21484.16406m12.01562-1.3711l-2.73046 6.47266m2.73046-6.47265l2.44532-.21875m-2.83985 1.16015l1.21875-.10937m12.64844-.76563l-3.04297 6.33594m3.04297-6.33594l2.44922-.09765m-2.89453 1.01953l1.22656-.04688m12.875-.6836l-3.73047 5.95313"/><g clip-path="url(#W)"><path fill="none" stroke="#000" stroke-linecap="round" stroke-linejoin="round" stroke-miterlimit="10" stroke-width=".5" d="M465.42578 397.46094l2.44922.17578"/></g><path fill="none" stroke="#000" stroke-linecap="round" stroke-linejoin="round" stroke-miterlimit="10" stroke-width=".5" d="M464.88281 398.32813l1.22656.08593"/><g clip-path="url(#X)"><path fill="none" stroke="#000" stroke-linecap="round" stroke-linejoin="round" stroke-miterlimit="10" stroke-width=".5" d="M147.3711 386.1289l-6.7422 1.9922"/></g><path fill="none" stroke="#000" stroke-linecap="round" stroke-linejoin="round" stroke-miterlimit="10" stroke-width=".5" d="M147.3711 386.1289l1.71874 1.75m11.60157.21094l-6.75391-1.93359m5.77344 1.65234l.2539 1.19922m13.07813.66797l-4.82422-5.10547m4.1211 4.36328l-.39063 1.16407m15.4414-2.28125L180.5 386.43359m14.79297-2.22265l3.9336 5.82422m-3.35938-4.97657l.57422-1.08203m17.41797 4.39844l-6.56641-2.5039m5.60937 2.14062l.15235 1.21875m14.33984-1.82813l-7.00781-.55859m7.00781.5586l.97266 2.2539m12.33984-2.24219l-7.0039-.58203m7.0039.58203l.96875 2.2539m-1.98828-2.33983l.48438 1.1289m13.86328-1.38672l-7.02735.10938m7.02735-.10938l1.18359 2.14453m11.77344-3.63671l-6.3125 3.08984m5.39453-2.64063l.99219.71875m13.59765.46875l-7.02734-.18359m7.02734.1836l1.09375 2.1953m12.04688-3.3789l-6.67969 2.1836m5.70703-1.86329l.88672.84766m12.21094-2.85547l-4.29688 5.5586m3.67188-4.75l1.20703.20702m13.8789.54688l-6.58984 2.4336m5.63281-2.07813l.91407.8164m13.27734-1.37109l-6.42969 2.83203m5.4961-2.42187l.96484.76172m9.76953-3.25782l.60156 7.00391m-.51562-5.98438l1.03125-.66796m15.02344 5.59375l-5.05079-4.88672m4.31641 4.17578l-.33984 1.17969m14.90234-4.67579l-6.07812 3.52735m6.07812-3.52735l2.08594 1.29688m9.9414-2.57813l-3.5 6.09375m3.5-6.09375l2.45313.07813m11.35937.26563l-4.49609 5.40234m4.4961-5.40235l2.40234.5m-3.0586.28516l1.20313.25m12.79687-1.00781l-4.55468 5.34765m4.55468-5.34765l2.39844.52734m-3.0586.25l1.19532.26563m11.92578-1.58203l-2.84765 6.42578m2.84765-6.42578l2.44922-.17579m11.11328.29688l-3.33984 6.1836m3.33984-6.1836l2.45703.01953m-2.9414.88281l1.22656.00782m12.20703-1.08204l-2.60937 6.52735m2.60937-6.52735l2.4414-.26171m-2.8203 1.21093l1.21874-.1289m13.22266-.41016l-4.10156 5.70703"/><g clip-path="url(#Y)"><path fill="none" stroke="#000" stroke-linecap="round" stroke-linejoin="round" stroke-miterlimit="10" stroke-width=".5" d="M465.61328 384.26953l2.42969.32813"/></g><path fill="none" stroke="#000" stroke-linecap="round" stroke-linejoin="round" stroke-miterlimit="10" stroke-width=".5" d="M465.01563 385.10156l1.21484.16406"/><g clip-path="url(#Z)"><path fill="none" stroke="#000" stroke-linecap="round" stroke-linejoin="round" stroke-miterlimit="10" stroke-width=".5" d="M147.4414 373.10547l-6.8828 1.40625"/></g><path fill="none" stroke="#000" stroke-linecap="round" stroke-linejoin="round" stroke-miterlimit="10" stroke-width=".5" d="M147.4414 373.10547l1.5625 1.89062m11.72657-2.01171l-6.83203 1.64843m5.83984-1.41015l.8125.91796m13.33203.9922l-6.50781-2.64844m5.5625 2.26171l.125 1.22266m12.14844-5.4375l-2.53125 6.55469m2.16406-5.60156l1.21875-.14454m12.1211-.92187l-1.84376 6.78125m1.57422-5.79297l1.19531-.27344m13.625-.09375l-4.3203 5.53906m4.3203-5.53906l2.41797.42188m11.02735 5.01562l-4.57813-5.33594m4.57813 5.33594l-.89453 2.28516m15.30078-3.99219l-6.75781-1.92187m6.7578 1.92187l.51173 2.39844m12.88672-3.9414l-6.9297 1.16015m6.9297-1.16016l1.49609 1.94922m11.86719-1.46484l-7.02344.19531m7.02344-.19531l1.21093 2.13672m12.01172-2.85157l-6.83984 1.625m6.83984-1.625l1.6211 1.84375m11.60156.09375l-6.65625-2.25m5.6875 1.92188l.19922 1.21094m14.24219-1.55079l-6.96875-.91406m6.96875.91406l.85937 2.29688m12.39844-3.53125l-6.85547 1.55078m5.85937-1.32422l.80079.92969m13.13671-2.11719l-6.10937 3.47266m5.22266-2.96485l1.03515.65625m13.1289-1.23046l-6.03124 3.60937m6.03125-3.60937l2.10156 1.26562m11.70703.39453l-7.01953.28906m7.01953-.28906l1.24219 2.11719m12.0586-2.32422l-6.9922.70313m5.97657-.60157l.67969 1.01954m12.96093-2.88672l-5.60937 4.23437m4.79297-3.61719l1.11328.51563m12.66015-1.53516l-4.89453 5.03906m4.89453-5.03906l2.35938.6836m11.13672-.4922l-5.25781 4.65626m5.2578-4.65625l2.30079.85547m10.82031-1.0625l-4.86719 5.07031m4.15625-4.33203l1.1836.33203m12.55078-1.32031l-4.28516 5.57031m4.28516-5.57031l2.41797.40625m10.0039-.90625L449 377.09375m2.4961-6.57031l2.43359-.3086m11.21484.45704l-3.16797 6.27343m3.16797-6.27344l2.45313-.05078m-2.91407.96485l1.22657-.02735"/><g clip-path="url(#aa)"><path fill="none" stroke="#000" stroke-linecap="round" stroke-linejoin="round" stroke-miterlimit="10" stroke-width=".5" d="M147.30469 359.30469l-6.60938 2.3789"/></g><path fill="none" stroke="#000" stroke-linecap="round" stroke-linejoin="round" stroke-miterlimit="10" stroke-width=".5" d="M147.30469 359.30469l1.82031 1.64844m11.5039-1.625L154 361.66015m6.6289-2.33204l1.8047 1.66016m11.65234.1289l-6.91406-1.25m6.91406 1.25l.75 2.33985m12.40234-4.19531l-6.58594 2.46094m6.58594-2.46094l1.83594 1.6289m10.35547-3.16015l-4.33594 5.52734m3.70313-4.72656l1.20703.21875m13.42187-.3125l-5.69922 4.10938m4.8711-3.51172l1.09765.54296m13.4961 2.1172l-6.60157-2.40235m6.60157 2.40234l.33984 2.42969m-1.30078-2.78125l.17187 1.21484m13.96875-.53906l-6.33203-3.05078m6.33203 3.05078l.09766 2.44922m-1.01953-2.89453l.05078 1.22656m14.50781-2.73828l-6.97265.85938m6.97265-.85938l1.41016 2.00781m11.7539-2.6836L260.5 361.59767m6.67188-2.21094l1.77343 1.69531m11.33985-2.17578l-6.26953 3.17188m5.35937-2.70704l1 .70704m13.55469-.17579l-6.92578 1.1836m5.91797-1.01172l.75.96875m13.62109-.4375l-7.02344-.22266m6 .1875l.54297 1.10156m13.77734-.80468l-6.98828-.7461m5.97266.63672l.45703 1.13672m13.71875-2.4961l-6.67578 2.1875m6.67578-2.1875l1.76953 1.69923m11 1.52734l-5.58594-4.26172m4.77344 3.64063l-.19922 1.21093m14.98438-2.0625l-6.90235-1.3203m6.90235 1.3203l.72656 2.34375m12.64063-3.24609l-7.00782.48828m7.00781-.48828l1.30079 2.07813m11.5039-3.67579l-5.98437 3.6836m5.98437-3.6836l2.11719 1.23829m10.4961-2.0625l-4.58204 5.32812m4.58203-5.32813l2.39454.53907m10.30078-.96485l-3.33985 6.1836m3.33985-6.1836l2.45312.01563m10.38281-.23047l-2.3828 6.60938m2.3828-6.60938l2.4297-.34766m10.5703.25l-1.7539 6.8047m1.7539-6.8047l2.38672-.5703m9.73438.47265l.63672 7m-.63672-7l2.05078-1.33985m13.05078 1.64844l-2.9414 6.38281m2.9414-6.3828l2.45313-.13673"/><g clip-path="url(#ab)"><path fill="none" stroke="#000" stroke-linecap="round" stroke-linejoin="round" stroke-miterlimit="10" stroke-width=".5" d="M144.77734 343.75l-1.55468 6.85547"/></g><path fill="none" stroke="#000" stroke-linecap="round" stroke-linejoin="round" stroke-miterlimit="10" stroke-width=".5" d="M144.55078 344.75l1.1836-.32422m13.86328.08203l-4.56641 5.33985m3.90234-4.5625l1.19922.26562m13.90235.75781l-6.8086 1.73829m6.8086-1.73829l1.65234 1.81641m11.7539-.61328l-6.99218-.66797m6.99219.66797l.9414 2.26562m11.97656-4.2578l-6.1953 3.3164m6.1953-3.3164l2.03516 1.36718m11.59766 1.11719l-6.83203-1.65235m6.83203 1.65235l.60937 2.375m12.51563-1.8086l-6.45313-2.78515m6.45313 2.78515l.19922 2.44531m13.0703-2.35156l-6.36327-2.97265m6.36328 2.97265l.1289 2.45313m12.82813-1.84766l-5.64844-4.1836m4.82813 3.57423l-.1836 1.21484m14.5547-.96875l-6.1172-3.45703m5.22657 2.95312l-.03125 1.22657m14.6875-2.65625l-7.01563.41015m5.99219-.35156l.64062 1.05078m12.92579-3.10547l-5.47657 4.40235m4.67969-3.76172l1.1289.48437m13.45704-.35156l-6.42188 2.85547m5.48828-2.4375l.96485.7539m13.58203.44532l-7.01953-.3789m20.1914-.82032l-6.73046 2.02344m6.73046-2.02344l1.72657 1.74219m11.53515-1.90625l-6.625 2.34765m6.625-2.34765l1.8086 1.65625m10.42578-3.19532l-4.46485 5.42579m3.81641-4.63672l1.20313.24609m13.98828 1.0586l-6.91797 1.23827m5.91015-1.05859l.75782.96875m13.61718-.40234l-7.02343-.2539m7.02343.2539l1.07032 2.20703m12.07421-3.42188l-6.68359 2.17579m6.6836-2.17579l1.76562 1.70313m11.47656-1.90235l-6.53906 2.57813m6.53906-2.57813l1.86719 1.58985m10.89844-2.52344l-5.4414 4.44531m5.4414-4.4453l2.26562.94921m10.23828-1.67578l-3.8164 5.89844m3.8164-5.89844l2.44532.20703m-3 .64844l1.22265.10547m12.03125-1.28125l-2.58594 6.53515m2.58594-6.53515l2.4414-.27344m11.61329.67578l-4.0625 5.73047"/><g clip-path="url(#ac)"><path fill="none" stroke="#000" stroke-linecap="round" stroke-linejoin="round" stroke-miterlimit="10" stroke-width=".5" d="M465.59375 344.3125l2.4336.3125"/></g><g clip-path="url(#ad)"><path fill="none" stroke="#000" stroke-linecap="round" stroke-linejoin="round" stroke-miterlimit="10" stroke-width=".5" d="M141.26953 331.65234l5.46094 4.42188"/></g><path fill="none" stroke="#000" stroke-linecap="round" stroke-linejoin="round" stroke-miterlimit="10" stroke-width=".5" d="M154.58984 331.64453l5.44922 4.4375m-5.44922-4.4375l.47266-2.40625m13.35938 1.89453l4.41796 5.46094m-3.77734-4.66797l.48047-1.1289m14.84766 6.55078L183.5 330.3789m17.1289 2.48046l-6.73437 2.00782m5.7539-1.71485l.85938.8711m13.57813-.3125l-7.01953.30078m5.99609-.2539l.625 1.05468m12.80078 1.41406L221.28906 331.5m4.44531 4.03906l-.30468 1.1875m15.09375-1.71094l-6.63672-2.30468m5.67187 1.96875l.1875 1.21484m14.17578-1.14844l-6.80078-1.76562m5.8125 1.50781l.28516 1.19531m14.05078-1.08593l-6.8711-1.47266m5.8711 1.26172l.33985 1.17969m13.94921-.85157l-6.8164-1.70312m5.82422 1.45703l.29687 1.1875m14.10156-1.48047l-7-.625m5.98047.53516l.48047 1.1289m12.24219-4.3164l-3.77344 5.92969m14.22266-6.33985l1.95703 6.75m-1.67188-5.76953l.87891-.85156m12.58984-.22656l1.08203 6.9453m-.92578-5.93359l.98047-.73828m15.57813 5.23828l-5.71875-4.08203m4.88672 3.48828l-.16016 1.21875m14.82031-3.64843l-6.7461 1.96875m5.76563-1.6836l.85547.8789m13.11719 1.56642l-6.10156-3.4922m5.21484 2.98438l-.03906 1.22656m14.28125-4.13671l-6.17969 3.34375m5.28125-2.85938l1.01953.67969m10.89063-2.91797l-1.57422 6.85156m15.75781-6.52344l-3.3125 6.19532m2.83203-5.29297h1.22656m13.61329-.05469l-5.39844 4.5m4.61328-3.84375l1.13672.46094m11.69922-2.07422l-2.8711 6.41406m2.8711-6.41406l2.44922-.16797m10.4414.01172l-2.02344 6.72656m2.02344-6.72656l2.40625-.48047m11.79297.88281l-3.78906 5.92188"/><g clip-path="url(#ae)"><path fill="none" stroke="#000" stroke-linecap="round" stroke-linejoin="round" stroke-miterlimit="10" stroke-width=".5" d="M465.45703 330.90234l2.44531.19922"/></g><g clip-path="url(#af)"><path fill="none" stroke="#000" stroke-linecap="round" stroke-linejoin="round" stroke-miterlimit="10" stroke-width=".5" d="M140.83594 319.02344l6.32812 3.04687"/></g><path fill="none" stroke="#000" stroke-linecap="round" stroke-linejoin="round" stroke-miterlimit="10" stroke-width=".5" d="M153.84375 320.01172l6.94531 1.07422m-6.94531-1.07422l-.8086-2.3164m1.81641 2.47265l-.80469-2.3164m13.13672 2.0078l6.89063 1.375m-6.89063-1.375l-.70312-2.34765m1.70703 2.55078l-.70703-2.35156m12.97656 2.42578l6.97656.82422m-6.97656-.82422l-.89062-2.28516m1.90625 2.40625l-.44532-1.14453m12.75782 1.95703l6.94922-1.04687m-6.94922 1.04687l-1.46094-1.96875m15.01172.08203l6.47656 2.72657m10.375 2.14062l-.59375-7.0039m.59375 7.0039l-2.0625 1.32813m15.13672-1.31641l-.11328-7.02734m.11328 7.02734l-2.14844 1.1836m16.97266-1.55079l-3.1289-6.29297m2.67187 5.375l-.71485 1m15.61328-.97265l-5.3828-4.51563m4.59765 3.85938l-.2539 1.19922m14.85546-1.33204l-6.38672-2.93359m5.45703 2.50781l.07031 1.22266m14.48438-2.51172l-7.00781.49219m5.98828-.42188l.65234 1.04297m12.86719-3.13281l-5.375 4.53125m4.58984-3.8711l1.14063.45704m13.71875 1.82422l-6.89453-1.34766m5.89062 1.15234l.35938 1.17188m13.92578-2.47656l-6.82813 1.65234m5.83594-1.41406l.8164.91797m13.29298-1.75l-6.4297 2.83984m5.4922-2.42578l.96484.75781m12.38281-2.40234l-4.6211 5.29687m3.94923-4.52344l1.19531.27735m13.875 2.50781l-6.78906-1.8164m19.54687-1.16797l-5.67187 4.14843m4.84765-3.54296l1.10157.53515m11.6914-2.2461l-2.98047 6.36329m2.54688-5.4375l1.22265-.0625m10.8047-1.1875l.46484 7.01172m-.46485-7.01172l2.08594-1.29297m10.39844 1.44922l2.1211 6.69922m-1.8125-5.72656l.85937-.875m12.34765-.15625l1.72266 6.8125m12.78906-6.90235l-.67187 6.9961m.57421-5.98047l1.13282-.46875m14.42968.46484l-4.96875 4.96875"/><g clip-path="url(#ag)"><path fill="none" stroke="#000" stroke-linecap="round" stroke-linejoin="round" stroke-miterlimit="10" stroke-width=".5" d="M466.04688 318.0625l2.34375.71875"/></g><path fill="#00f" fill-rule="evenodd" d="M388.23828 472.08594h8.61719V461.9414h-8.61719v10.14453"/><path fill="azure" fill-rule="evenodd" d="M390.07031 463.77344h.83594v2.82422h3.28516v-2.82422h.83203v6.48047h-.83203v-2.91797h-3.28516v2.91797h-.83594v-6.48047"/><path fill="#00f" fill-rule="evenodd" d="M383.80078 436.57813h8.61719v-10.14454h-8.61719v10.14454"/><path fill="azure" fill-rule="evenodd" d="M385.63281 428.26563h.83203v2.82421h3.28907v-2.82421h.83203v6.48046h-.83203v-2.91406h-3.28907v2.91406h-.83203v-6.48046"/><path fill="#00f" fill-rule="evenodd" d="M224.01953 418.82813h8.61719v-10.14844h-8.61719v10.14844"/><path fill="azure" fill-rule="evenodd" d="M225.85156 410.51172h.83594v2.82422h3.28516v-2.82422h.83203v6.48047h-.83203v-2.91406h-3.28516v2.91406h-.83594v-6.48047"/><path fill="#ff3030" fill-rule="evenodd" d="M291.28906 401.07422h7.6914v-10.14844h-7.6914v10.14844"/><path fill="azure" fill-rule="evenodd" d="M293.1211 392.76172h.83593V398.5h3.1914v.73828h-4.02734v-6.47656"/><path fill="#00f" fill-rule="evenodd" d="M370.48438 401.07422h8.62109v-10.14844h-8.6211v10.14844"/><path fill="azure" fill-rule="evenodd" d="M372.3164 392.76172h.83594v2.82031h3.28516v-2.82031h.83203v6.47656h-.83203v-2.91406h-3.28516v2.91406h-.83593v-6.47656"/><path fill="#ff3030" fill-rule="evenodd" d="M202.52344 365.5664h7.6914v-10.14452h-7.6914v10.14453"/><path fill="azure" fill-rule="evenodd" d="M204.35547 357.2539h.83203v5.73829h3.19531v.74219h-4.02734v-6.48047"/><path fill="#ffffe0" fill-rule="evenodd" d="M328.42969 348.50781h22.17969V338.3125h-22.1797v10.19531"/><path fill-rule="evenodd" d="M331.92969 340.14844h.50781v6.29297h-.78516v-4.48829h-1.39062v-.55468l.5586-.0664.2539-.0547.23047-.08984.20312-.14063.17188-.21093.14453-.29297.10547-.39453m4.8125 0l.23047.01562.21875.0586.20703.08984.19531.1211.1836.14843.17187.17578.30469.41797.24218.4961.1797.54296.10937.58204.03906.58984-.03906.59375-.10938.58203-.17969.55469-.24218.5039-.3047.42579-.17187.17968-.18359.15625-.19531.1211-.20703.09375-.21875.05468-.23047.01954-.23047-.01954-.21875-.05468-.20703-.09375-.19531-.1211-.1836-.15625-.17187-.17969-.3047-.42578-.24218-.5039-.17969-.55469-.10937-.58203-.03906-.59375h.83203l.02734.5625.08203.50781.1289.4414.16017.375.1914.30079.21094.22265.22265.13672.22657.04688.22656-.04688.22266-.13671.21093-.22266.19141-.30078.16016-.375.1289-.4414.07813-.50782.03125-.5625-.03125-.5625-.07813-.5-.1289-.4336-.16016-.36718-.1914-.29297-.21094-.21094-.22266-.13281-.22656-.04688-.22656.04688-.22266.13281-.21094.21094-.1914.29297-.16016.36719-.1289.43359-.08204.5-.02734.5625h-.83203l.03906-.58985.10937-.58203.1797-.54296.24218-.4961.30469-.41797.17187-.17578.1836-.14844.1953-.12109.20704-.08984.21875-.0586.23047-.01562m5.08984 0h.51172v6.29297h-.78906v-4.48829h-1.38672v-.55468l.5586-.0664.2539-.0547.22656-.08984.20313-.14063.17578-.21093.14062-.29297.10547-.39453m2.82422 2.17578h.78906l.01953-.3164.0586-.28907.09765-.25.14063-.21484.17969-.17579.22656-.1289.26172-.08203.3086-.02735.23827.02344.22266.0625.20703.10156.17969.13672.14844.17578.11328.20313.0703.23828.02345.26172-.01954.26953-.0664.22656-.10938.1914-.15625.17188-.19921.16016-.25.16797-.63282.38672-.53515.3125-.4375.32031-.34766.32422-.26563.33594-.1875.34765-.125.3711-.0703.39453-.01954.41797h4.21094v-.73829h-3.33203l.08203-.28515.11328-.23828.14844-.19922.1875-.1836.23047-.16796.27734-.17579.71875-.41796.41406-.20704.34766-.23046.28125-.25.21875-.26563.16406-.28125.10938-.28125.0664-.28515.01953-.28125-.04296-.38282-.1211-.34765-.1875-.3086-.25-.26562-.30469-.21094-.34375-.16016-.3828-.09765-.40626-.03125-.4336.03125-.39843.09765-.35547.16797-.30469.23438-.24609.30469-.1875.375-.11719.4453-.03906.51954"/></g></defs><use xlink:href="#ah"/></svg>