<svg xmlns="http://www.w3.org/2000/svg" role="img" xmlns:xlink="http://www.w3.org/1999/xlink" viewBox="142.45 309.95 326.84 171.84"><defs><clipPath id="a"><path d="M144 311.67188h1v168.65625h-1zm0 0"/></clipPath><clipPath id="b"><path d="M144 311.67188h324v168.65625H144zm0 0"/></clipPath><clipPath id="c"><path d="M467 311.67188h1v168.65625h-1zm0 0"/></clipPath><clipPath id="d"><path d="M144 479h4v1.32813h-4zm0 0"/></clipPath><clipPath id="e"><path d="M147 479h3v1.32813h-3zm0 0"/></clipPath><clipPath id="f"><path d="M146 479h2v1.32813h-2zm0 0"/></clipPath><clipPath id="g"><path d="M153 479h9v1.32813h-9zm0 0"/></clipPath><clipPath id="h"><path d="M160 479h3v1.32813h-3zm0 0"/></clipPath><clipPath id="i"><path d="M166 479h9v1.32813h-9zm0 0"/></clipPath><clipPath id="j"><path d="M173 479h3v1.32813h-3zm0 0"/></clipPath><clipPath id="k"><path d="M180 479h8v1.32813h-8zm0 0"/></clipPath><clipPath id="l"><path d="M187 479h2v1.32813h-2zm0 0"/></clipPath><clipPath id="m"><path d="M193 479h9v1.32813h-9zm0 0"/></clipPath><clipPath id="n"><path d="M200 479h3v1.32813h-3zm0 0"/></clipPath><clipPath id="o"><path d="M206 480h9v.32813h-9zm0 0"/></clipPath><clipPath id="p"><path d="M213 480h3v.32813h-3zm0 0"/></clipPath><clipPath id="q"><path d="M220 479h8v1.32813h-8zm0 0"/></clipPath><clipPath id="r"><path d="M227 480h2v.32813h-2zm0 0"/></clipPath><clipPath id="s"><path d="M233 479h8v1.32813h-8zm0 0"/></clipPath><clipPath id="t"><path d="M240 480h2v.32813h-2zm0 0"/></clipPath><clipPath id="u"><path d="M246 479h9v1.32813h-9zm0 0"/></clipPath><clipPath id="v"><path d="M253 480h3v.32813h-3zm0 0"/></clipPath><clipPath id="w"><path d="M260 479h8v1.32813h-8zm0 0"/></clipPath><clipPath id="x"><path d="M267 480h2v.32813h-2zm0 0"/></clipPath><clipPath id="y"><path d="M273 479h8v1.32813h-8zm0 0"/></clipPath><clipPath id="z"><path d="M280 480h2v.32813h-2zm0 0"/></clipPath><clipPath id="A"><path d="M286 478h8v2.32813h-8zm0 0"/></clipPath><clipPath id="B"><path d="M300 478h7v2.32813h-7zm0 0"/></clipPath><clipPath id="C"><path d="M314 477h6v3.32813h-6zm0 0"/></clipPath><clipPath id="D"><path d="M328 477h5v3.32813h-5zm0 0"/></clipPath><clipPath id="E"><path d="M341 477h5v3.32813h-5zm0 0"/></clipPath><clipPath id="F"><path d="M355 476h4v4.32813h-4zm0 0"/></clipPath><clipPath id="G"><path d="M368 476h5v4.32813h-5zm0 0"/></clipPath><clipPath id="H"><path d="M383 476h2v4.32813h-2zm0 0"/></clipPath><clipPath id="I"><path d="M395 476h4v4.32813h-4zm0 0"/></clipPath><clipPath id="J"><path d="M407 477h6v3.32813h-6zm0 0"/></clipPath><clipPath id="K"><path d="M422 476h3v4.32813h-3zm0 0"/></clipPath><clipPath id="L"><path d="M436 476h2v4.32813h-2zm0 0"/></clipPath><clipPath id="M"><path d="M449 476h2v4.32813h-2zm0 0"/></clipPath><clipPath id="N"><path d="M463 476h1v4.32813h-1zm0 0"/></clipPath><clipPath id="O"><path d="M144 466h4v2h-4zm0 0"/></clipPath><clipPath id="P"><path d="M144 453h4v2h-4zm0 0"/></clipPath><clipPath id="Q"><path d="M144 439h4v2h-4zm0 0"/></clipPath><clipPath id="R"><path d="M144 426h4v2h-4zm0 0"/></clipPath><clipPath id="S"><path d="M144 412h4v4h-4zm0 0"/></clipPath><clipPath id="T"><path d="M144 397h3v7h-3zm0 0"/></clipPath><clipPath id="U"><path d="M144 384h4v6h-4zm0 0"/></clipPath><clipPath id="V"><path d="M466 387h2v4h-2zm0 0"/></clipPath><clipPath id="W"><path d="M144 372h4v4h-4zm0 0"/></clipPath><clipPath id="X"><path d="M144 359h4v3h-4zm0 0"/></clipPath><clipPath id="Y"><path d="M144 345h4v4h-4zm0 0"/></clipPath><clipPath id="Z"><path d="M466 345h2v3h-2zm0 0"/></clipPath><clipPath id="aa"><path d="M144 330h1v8h-1zm0 0"/></clipPath><clipPath id="ab"><path d="M144 330h2v2h-2zm0 0"/></clipPath><clipPath id="ac"><path d="M466 332h2v2h-2zm0 0"/></clipPath><clipPath id="ad"><path d="M144 318h4v5h-4zm0 0"/></clipPath><g id="ae" clip-path="url(#clip1)"><path fill="#fff" fill-opacity="0" fill-rule="evenodd" d="M0 0h1000v1000H0zm0 0"/><path fill="#d3d3d3" fill-opacity="0" fill-rule="evenodd" d="M162.15234 355.86719l-.23437.29297.0586.23437.11718.17188.17578.23437.29297.34766.11328.0586.11719-.17188.0586-.23438.17577-.17578.46485-.17578h.69922l.23437.29297.28906.8164.0586.17579.17578.23046.35156.23438.69922.69922.17188.17578.23437.34765.23438.41016.28906.58203.41015.46485.23047.23437.23438.17578.11719.23047.17578.29297.17187 1.16406v.23438l.0586.28906.05859.11719.11719.11719.34765.41015.11719.17188.17578.17578.17578.23437.11719.17188.17188.35156.05859.23438.23437.40625.23438-.0586-.17578.17578-.0586.92969h-.58203l-.23437-.11328-.34766.11328-.11719.11719-.05859.29297-.0586.17578-.11718.17187-.46484.29297-.0586.23438-.0586.11328v.64453l.0586.17187v.41016l.0586.0586v.40624l.05859.40625.11719.17579.05859.05859.23047.64062-.0586.29297v.69922l-.05859.58203v.23438l-.0586.23047-.05468.35156v1.92187l.05469.1172h.42578l-.36719.11718-.02344.35156.89063 1.16797 1.74219.53906 1.33984.35938v.53906l.08984.8086.53516.71484 1.51953.26953.89063-.08594.08984 1.16406.53516.1797 1.16015-.1797 2.05469-.98437 1.16016-.36328 1.8789-.17578 1.69531-.1797-.17968.71876-1.51563.08594-1.25.08984-.80469.26953-1.07421.8086.26953.71875.53515.89843-.17968.625-.26563.8086.26563 1.07812.625.89844.80468.17969 1.25-.1797-.26562.72267.09766.5039.05468.29297v.17188l.0586.29296v.40625l.17578.1172.35156.11718h.40625l.29297-.17578.11328-.11719.0586-.11719.11718-.23047.0586-.17578.35156-.46484.23047-.17578.17578-.0586.17578.0586.0586.17578.11718.98828.05469.46875.0586.17188.11718.23437.17578.0586.8164.05859h.28907l.11719.23437.05859.40625.0586.35156v1.10547l.11718.29297.11719.34766.28906.69922.17578.35156.58203.7539.35157.17579.17187.0586.46875.23437.64063.46484.34765.23438.29297.17578.29297.05468.23047.0625.8164.34766.29297.17578.11328.17188.35157.35156.11719.17578.52343.64063v.28906l.0586.35156v.34766l.05859.35156.0586.28906.11718.0586.17188.05859h.17578l.58203.23437.17578.1172.17578.28905.17578.23438.11328.23437.29297.23047.11719.11719v.41016l.0586.05468.28906.23438.23437.11719.0586.11718.11718.17188.0586.11719.23047.23437.05859.17578.23437.0586.1172.05859-.1172.11328-.05859.11719v.11719l-.11719.29296-.11719.28907v.58203l.17579.11719.11718.05859.0586.11719.11719.11719.11328.05859.17578.34765.0586.35157.05858.40625v.17578l-.05859.17578-.11719.69922v.17187l.1172.17579.29296.29296h.40625l.17578.1172.11719.17187.11719.29296v.23438h-.52735l-.23047-.23438h-.23437l-.17578.0586-.0586.69922.0586.34765.11719.17579.17578.41015.11718.23047.28907.46875.17578.05469h.52344l.23437.0586.75781.64062.0586.29296v.23438l.05859.0586.23047.34765v.35156l-.11719.17188v.29297l.29297.28906.29297.17578.17187.0586.29297.17577.29297.1172.58203.40624.28906.23438.29297.17578.21875.16015.01563.01172.23047.17579.64062.52343.17578.23438.1172.17578.17577.17578.11328.17188v.64062l.1172.17578.46874.11719.58203.11719.23438.05859.23047.11328.29297.11719.11328.0586.58593.35156.28907.17187.17578.0625.17578.05469.17578.0586.69922.35155.28906.17579.23438.05468.28906.17578.23437.1172.64063.40624.29297.11719.17187.0586.23438.05859.41015.05859.23047.0586.23438.11718.0586.17188-.41017.17578.46875.0586.0586.29296.11328.23438.17578.05468.23438.0586.17578.05859.40625.11719.64062.23437.11719.17188.0586.23437v.17578l-.0586.1172-.0586.40624.23438.23438.11719.05859.34766.11719.64062.23047.17578.11718.28906.1172.17578.17577.23438.46485.58203 1.10546.17578.17579.34766.17578.17578.11719.35156.11718 1.04688.52344.23437.0586.46485.11327.29297.0586.46484.17578.75781.58203.23438.23438.34765.46484.17578.17578.28907.23438.8164.69921.29297.17579.28906.28906.29297.17578.29297.28906.69531.64063.17578.17578.29297.23437.28907.23438.46875.28906.64062.58203.34766.23438.23437.29297.34766.34765.35156.46485.9336.99218.34765.40625.11719.17579.23437.05859.11328.11719.64454.17578.23047.11328.23437.0586.29297.17577.23047.1172.9336.69921.40624.40625.23438.17578.40625.17578.23437.11719.8164.34766.34766.23437.23438.11719.29297.28906.23047.11719.7578.35156.35157.17188.23047.05859.29297.11719.23437.0586.8711.17577h.8164l.46875.23047.17188.0586.875.69921.46484.1172.29297.05858.17578.0586.23047.0586.46875.05859.34766.05859.35156.0586.40625.05859h.29297l.17187.0586v.23046l.17578.17578h.29297l.34766.0586.35156.05859.69922.11719h.64063l.46484-.23438.29297-.17578.17187-.11719.41016-.17187.28906-.17578.9336-.46485.46875-.29297.52343-.29296.46485-.17188.46484-.17578 1.05078-.46485.28906-.11718.41016-.11719.28906-.11719.52735-.17578 1.51562-.69922.58203-.34765.28907-.0586.29297-.0586.34765-.11718.875-.23047.35156-.11719h.11329l.23437-.05859.875-.23437.23438-.0586h.8125l.35156-.0586.8164-.11718.17188-.0586.35156-.05468.29297-.0586.23047-.05859.8164-.17578.17579-.0586h.34765l.23438-.05859.46484-.11718.75781-.17188.23438-.0586h.34765l.41016-.11718.28906-.0586 1.28516-.05859h.28906l.41016-.0586.23047-.05858h.17578l.875-.1172h.40625l.41015-.11718h.34766l.35156-.11328.8711-.0586h1.75l1.04687.28907.41016.11719.28906.11718.35156.11719.28907.11719 1.05078.17187.28906.0586h.29297l.29297.05859.17187.0586.41016.05859.17187.0586.1172.05858h.11718l.11719.0586.35156.0586h.11328l.41016.0664 1.92187.39453 1.92578.39453 1.51953.44922 1.69532.71875 2.14453.80469 1.60547-.71875 1.42968-.80469 1.16016-1.07813 1.25-.44921 3.03516-.71875 1.875-.35938 2.14453-1.34765 2.23437-1.25391 2.5-1.25781 1.69531-.44922 1.78516-.17969 1.16016-.26953.625.53906 1.33984-.26953.71485-.98828.98437-1.34375.44531-.17969.80469-.35937 1.875-.53907 1.78516-.44921 1.25-.26954 1.16015-.08984 1.69922-.08984 1.96094-.26954 1.25-.08984h.53906l.625-.08984h.89063l2.14453-.17969 2.41015-.17969 2.58985-.08984 1.69531.17969 1.60938.08984 1.42968.35938 1.16016.71875 1.875.98828 1.16015 1.52734.26563.71484.6289.08985.35548.89844.53515.53906.53516 1.52734 1.07422.35938h.53515l-.80469.53515.08985 1.70703.71484 2.69532.89063.80468.89453.98829.71484 1.2578 1.78516.53907 1.51953-.17969.35547 1.34375 1.60937-.80469.98047-.53906.26953.26953.31641-.21484.21875-.14453.80078.44922.44922-.35938h.35547l.53515-.26953.53907-.71875.53515-.26953.625-.98828 1.16016.44922.83984.3711 1.39454.61718 1.6953-.17969h1.60548l1.78515.08985.17969-1.70704.53516-1.34375.80468.26954.4922.84765.40233.40625-.08984.53906v.35938l.71485.44922.71093-.26953h1.42969l.35938.98828.4453 1.25781.71485 1.34375 1.25.6289 1.69531.62891.71485-.17969.17969-.53906.98046-.08984.44922.35937.08594 1.25782-.26563.6289-.53515.17969v.53906l.71484.98438.26563.53906.98437.98828.80078 1.07813-.26562.35937-.08985.89844-.625 2.33203-.35546 2.0664-.08985 1.79298-.17969.71875-.08984.53906v1.4375l-.98047 1.88281-.35937 1.70703-.53516.89844-.80469 1.16797-.26562.53906 2.05469 1.2539.08593.35938-.35546.53906-.08985-.17968v.80859l.08985 1.4375-.44532.71484-1.07422.09375-.26562.71485.53515.89844.8047.71875 1.16015.80859 1.33984.26953.44531.35938-.35546.44921-1.78907-.08984-1.25-.44922-.71484-.71875-.625-.08984-.17578 3.58984-.1875 1.3086h89.35937V311.70313h-55.26953v49.08203l.76172.125 3.28906.54296 2.02344 2.83594v2.7539l2.35156.33204 2.34766.33203h4.05078l-1.3789 4.16016-2.02344.70703-2.02344.70312-.54297.34375-2.59375 1.6172-.1875.11718-2.02344-2.07813-.73046-2.74218-2.67188-2.07813-1.375-3.5-.0664-.08203-1.95704-2.67188 2.75-1.41796v-49.08204H294.42187v91.41407l.1172.03125.1328.01172.07422.07421.10547.04688.08985.0586.08593.05859.08985.0586.29687.29687.0586.08984.03125.11719.02734.11719.01563.13671-.03125.1172-.0586.08983-.0586.08594-.04296.10547-.04688.10156-.02734.1211v.14453l.17578.26953.14844.14844.07422.08594.07422.07421.04296.10547.0625.08985.0586.08593.04297.10547.0586.08985.04687.10156.04296.10547.0586.08594.11719.17968.07421.07422.0625.08594.0586.08984.04297.10547.0586.08985.05858.08593.0625.08985.0586.08984.04297.10156.11719.17969.07421.07422.0586.08594.07422.07421.08984.0586.10547.04687h.14844l.1328-.01562.13282.01562.10156-.04687.07422-.07422.04688-.10156-.01563-.13281v-.14844l-.04687-.10547-.02735-.11719-.04687-.10156-.02735-.1211-.04296-.10156-.0625-.08984-.04297-.10156-.04297-.10547-.03125-.11719-.01563-.13281-.01171-.13672.08593-.0586.0586-.08593.12109-.03125.04297.10547.01562.1328v.1172l.0586.10156.0586.08984.08983.0586.14844.14843.0586.08985.04296.10547-.01171.10156.08593.0586.10547.04687.08594.0586.08984.05858.07422.07422-.11719.02735-.10546.04687-.08594.0586-.07422.07421-.0586.08985-.0625.08594-.02734.12109-.04687.10156-.04297.10547-.03125.11719-.01172.13281-.01563.13281v.14844l.02735.11719.04687.10547.04297.10156.0586.08984.07421.07422.08985.0586.07422.07421.08984.0586.0586.08984.04296.10547.04688.10156.11719.03125.1328.01563h.14845l.11718-.03125.10547.04297.04297.10547.04688.10156.02734.1211L299.5 410l.02734.11719.03125.1211.02735.11718.10547.04297.10156.04687.13281-.01562.14844.14844.0625.08593.07422.07422.07031.07422.08984.0625.10547.04297.10156.04297.1172.03125.13671.01562.11719-.03125.07422-.07422.02734-.11718-.01172-.13282-.03125-.12109-.02734-.11719.04297-.10547h.11719l.08984.0625.11719.02735h.14843l.13282.01562h.14843l.13282.01563.1328-.01563h.14845l.1328-.01562.13282-.01172.13672.01172.11719-.02735.13281-.01562.1914-.0586-.05859.17579-.01562.1328-.02735.1211-.01562.13281-.0586.08594-.1328.01563-.10548.04687-.10546.04297-.1172.03125-.11718.02735-.26563.03125h-.14843l-.13281.01562-.07422.07422.05859.08594.14844.14843.11719.1797.07421.0703.08985.0625.08984.0586.08594.0586.08984.05858.10156.04297.10547.0625.10547.04297.08594.0586.10547.04687.10156.04297.17969.11719.0586.08984-.04298.10156-.04687.10547.01562.13281.22266.22266.0586.08985.04296.10156.03125.1211.04297.10155.01563.13282.03125.11718.01171.13672.03125.11719.14844.14844.10156.04297.10547.04296.1172.03125.1328.01563.13672.01563h.11719l.11719-.03125.08984-.0586.04297-.10547.04688-.10156.04296-.10547.03125-.11719.01172-.1328v-.14845l-.01172-.1328-.01562-.13282-.03125-.11719-.04297-.10547-.04688-.10547-.04296-.10156-.04297-.10547-.01563-.13281.01563-.13281.02734-.11719.03125-.11719.02735-.1211.04687-.10155.08984-.0586.08594-.0625.07422-.07422.08984-.05859.22266-.22266.0586-.08593.07421-.07422.11719-.17969.0586-.08594v-.14844l-.07423-.07421-.10156-.04688-.10547-.04297-.10156-.04297-.0586-.08984-.04687-.10547-.02734-.11719.08984-.05859.11719-.03125.10156-.04297.17969-.11719.14844-.14843.01172-.13282-.01172-.10546-.08985-.0586-.1328.01563h-.14845l-.1328.01562-.13282-.01562-.1211-.03125-.08593-.0586-.07422-.07422-.0586-.08984-.0625-.08594-.11718-.17969-.0586-.08593.03125-.1211.08594-.05859.1211-.03125.05859-.08594v-.1211l-.03125-.11718-.0586-.08984-.05859-.08594-.04687-.10547-.02735-.11719-.01562-.1328.0586-.08985.07421-.07422.08984-.0586.1172-.17968.07421-.07422.0586-.08594.14843-.14844.1211-.03125.1328-.01562.13282.01562.07422.07422.04297.10547.01562.13281-.03125.1172-.11719.03124-.1328.01172-.14844.14844-.04297.10547-.04688.10156-.02734.1211-.03125.11718v.14844l.03125.11719.04297.10546.05859.08985.07422.07031.07422.07422.11719.03125.12109.02734.11719-.02734.1328-.01563h.1172l.08984.0586.07422.07422.04687.10546.0586.08594.10156.04688.13281.01562.10547.04297.08594.0586-.01172.10546-.07422.07422-.17969.11719-.05859.08984-.08984.0586-.07032.07422-.07421.07421-.0625.08985-.02735.11719-.01562.1328.01562.13282-.01562.13281v.14844l.01562.13281.02735.1172.03125.12108.07421.07422.08985.0586.08594.0586.08984.05858.11719.03125v.08594l-.10157.04688-.08984.0586-.26563.03124-.11718.02735h-.14844l-.10547.04296-.10156.04688-.0586.08984-.0625.23438-.01171.13281-.03125.1211-.01563.1328v.29298l-.01172.1328.01172.13673.01563.1328.1328.01563.13282.01172.1211.03125.08593.0586.07422.07421.04688.10547.04296.10157.01563.1328v.44532l-.01563.13281v.44532l.03125.26562.02735.11719.01562.13281.03125.11719.08594.21094.03125.26562v.14844l-.03125.11719-.02734.11718-.03125.1211-.02735.11719-.03125.11718-.03125.1211-.01171.1328-.01563.13282.08984.0586.1172-.03125.10155.01562.04688.10547-.03125.26562v.44141l-.04297.10547-.04688.10547-.04296.10156-.04297.10547-.0586.08594-.03125.12109-.04296.11719-.03125.11719-.01563.1328.01563.13282.05859.08984.10547.04688.08594.0586.05859.08593-.01172.13672-.03125.11719-.04297.10156v.44531l-.01562.13281v.14844l-.03125.11719-.04297.10547-.02735.11719-.04687.10546-.04297.10157-.03125.12109-.02734.11719-.03125.13281-.03125.11719-.02735.11719-.04297.10546-.03125.1172-.03125.12108-.01171.13282-.01563.13281v.29688l.02734.11718v.14844l.04688.39844.02734.11719.0586.08984.12109.03125h.14844l.13281-.01563.0586.08985v.11719l-.0586.08984-.08984.0586-.10157.04296-.10546.04688-.08985.05859-.08594.0586-.13671.01562-.1172-.03125-.1328-.01563-.10157.04688-.0625.08594-.01172.13671-.01562.13282-.03125.11719-.02735.11718-.01562.13281-.03125.1211v.29687l.01563.13282.03125.11718v.14844l.01171.13281v.14844l-.02734.11719-.04688.10156-.02734.1211-.03125.11718-.0586.08985-.07421.07421-.10156.04297-.10547.04688-.11719.02734-.1211.03125-.10156-.04687.0586-.08594.10547-.04688.02734-.11718.03125-.11719.02734-.1211.03125-.11718v-.14844l.01563-.13281-.03125-.11719-.04297-.10547-.10547.01563-.07422.07422-.10156.04296-.08984.0625-.07422.07422-.04297.10157-.01563.1328-.03125.1172L304.25 426l-.03125.11719-.02734.11719-.03125.12109-.02735.11719-.03125.11718-.04297.10547-.08984.0586h-.08984l-.1172-.03125-.03124-.08594.01562-.13672-.03125-.11719v-.14844l-.01171-.1328v-.14844l-.0625-.23438-.02735-.1211-.04297-.10156-.04687-.10546-.0586-.08594-.05859-.08985-.04297-.10546-.0625-.08594-.14844-.14844-.0703-.07422-.10548-.04687-.10547-.04297-.10156-.04297-.29687-.29688-.08985-.07421-.08594-.0586-.10546-.04297-.08985-.0625-.08594-.0586-.10546-.04296-.08985-.0586-.08594-.0625-.07421-.0703-.10547-.04688-.08594-.0586-.10547-.04296-.08984-.0625-.10156-.04297-.10547-.04297-.08594-.0586-.10547-.04687-.10547-.04297-.10156-.04687-.08985-.0586-.10156-.04297-.10547-.04296-.08984-.0625-.11719-.02735-.13281-.01562-.13281.01562H299.75l-.13281.01563-.11719-.03125-.08984-.0586-.07422-.07422-.08985-.05859-.10156-.04688h-.14844l-.12109-.02734-.10156-.04297-.07422-.07422-.11719-.17968-.08984-.0586-.10156-.04297-.08985-.0625-.10547-.04296-.08984-.0586-.08594-.0586-.10547-.04687-.0586-.08594-.05858-.08984-.04297-.10547-.04688-.10156-.07422-.07422-.08594-.0586-.07421-.07421-.08985-.0586-.22265-.22265-.04297-.10547-.03125-.26563.10547-.04296h.14453l.10547.04296.07421.07422.08985.0586.08594.0586.10546.04687.08985.05859.14844.14844.0703.07422.14845.14843.0625.08594.07421.07422.08594.0586.07422.07421.08985.0625.08984.0586.08594.05859.26953.17578.10156.04688.10547.04296.10156.04297.04688-.07421.05859-.08594.07422-.07422.07031-.07422.10547.04297.07422.07422.0586.08984.04296.10156.04688.10547.04296.10547.1211.02735.11719-.02735.07421-.08984.04297-.10547.0586-.08985.07422-.07421.10546-.04297.1172-.02735.1328.01172.08985.0586.14844.14843.05859.08985.04297.10547.04687.10156.04297.10547.04297.10156.10547.04688.10547.04296.13281.01563.08594-.0586.0586-.08984.07421-.07422.10547-.04297.11719.02735.10547.04687.10156.04297.10547.04297.10156.04688.17969.11718v.11719l-.01563.13281.01563.13281.01562.13672.0586.08594.10156.04688.1211.02734.11718.03125h.14844l.11719-.03125.05859-.08984.17969-.1172.05859-.08983.07422-.07422.0586-.08594.11718-.17969.17969-.11719.11719.03125.08984.0586.04297.07422-.01563.1328v.1172l.08985.05859h.14843l.13282-.01563.1328-.01171.26563-.03125.10547-.04297.11719-.03125.1211-.02735.07421-.07421.07031-.07422.0625-.08985-.01562-.10547-.04688-.10156-.10156-.04297-.10547-.01562-.11718.02734-.26563.03125h-.14844l-.07421-.07422-.08985-.0586-.11719-.03124-.11718-.02735-.13282-.01562h-.14843l-.13282.01563h-.29687l-.10547-.04688-.14844-.14844-.04297-.10156-.05859-.08984.22266-.22266.08593-.0586.10547-.04296.11719-.03125.13281-.01563.13281.01563.13672.01562.10157.04297.1328-.01172.08985-.0625.10156-.04297.0625-.08984-.04687-.10156-.08984-.0586-.1172-.03125-.10155-.04296-.0586-.08985-.0625-.08984v-.11719l.01563-.13281.10547-.04688.07421-.07031v-.1211l-.08984-.05859-.03125-.11719.08985-.05859.07421-.07422.04297-.10547.0586-.08984.04687-.10156.01563-.13281v-.14844l-.04688-.10547-.04297-.10156-.08984-.0586-.13281-.01562-.10157-.04297-.13671-.01563-.1172-.03125h-.4453l-.13282-.01562-.13281-.01172-.13281-.01563-.11719-.03125h-.14844l-.13281-.01562-.13281-.01172-.26563-.03125-.1211-.04297-.08593-.0586-.07422-.07421v-.14844l.01172-.13281.10547-.04688.10156-.04296.13281-.01563h.15235l.13281-.01562h.29297l.1211.03125.10156.04296.08984.0586.23438.0625.12109-.04688.08984-.05859.10156-.04297.13282-.01562.10547.04296.10156.04688.13281.01172.1211-.02735h.14453l.12109-.03125.11719-.02734.10547-.04687.07421-.07422.08594-.0586.14844-.14843.0586-.08594.04687-.10547.02734-.11719.01563-.10547-.10156-.04296-.08985-.0586-.11719-.03125-.10546-.04297-.08985-.0625-.07422-.08594-.07422-.07421-.10156-.04297-.10547-.04688-.10156-.04297-.0586-.08984-.04687-.10156-.08594-.21094-.0625-.08594-.05859-.08984-.07422-.07422-.08594-.0586h-.26953l-.11719.03126-.08984.05859-.10156.04297-.13281.01562-.10547-.01562-.02735-.11719-.0625-.08984-.11718-.03125-.10157-.04297-.14843-.14844-.03125-.11719-.01563-.10546.07422-.07422.17969-.1172.11719-.02733.11718-.03125.13672.01562.10156.04297.10547.04297.10156.04687.10547.04297.1172.03125.1328.01563.1172.02734.1328.01563.10547-.01563.08985-.0586-.07422-.07421-.10547-.04297-.07422-.07422-.07422-.08984-.14844-.14844-.08593-.0586-.08985-.05859-.07422-.07422-.08984-.0586-.10156-.04687-.1211-.02734-.10156-.04688-.10547-.04296-.11719-.03125-.10156-.04297-.1211-.03125h-.14843l-.11719.03125-.10546.04297-.08594.0625-.17969.11718-.08594.0586-.08984.0586-.10547.04687-.08594.05859-.10547.04297-.10156.04297-.10547.04687-.07422.07422-.05859.08985-.0586.08593-.04687.10547-.0586.08594-.07421.07422-.13281-.01172-.1172-.03125h-.11718l-.07422.07422-.08984.0586-.07422.07421-.08984.0586-.08594.05859-.10547.04687-.10156.04297-.13672.01563-.10156-.04297-.14844-.14844-.10547-.04688h-.08594l-.10547.04688-.10156.04297-.1211.03125-.11718-.03125-.07422-.07422v-.11719l.03125-.1211.07422-.0703.0586-.08985.07421-.07422.11719-.03125.10547-.04296h.29297l.13281-.01563.13672-.01563.10156-.04296.08985-.0586.10156-.04687.08984-.0586.13281-.01171.08985.05859.13281.01172.08984-.0586.08594-.05859.10547-.04297.08984-.0586.08594-.0625.08985-.05859.14843-.14843.0586-.08594.05859-.08985.10547-.04296.13281-.01563.11719.02735.1211.03125.05859-.0586.05859-.08984.03125-.26563.02734-.11719.10547.01172.13281.01563.10157-.04297.08984-.0586.0586-.08984.07421-.07422.0586-.08984.04687-.10156.01172-.13281-.01172-.13282-.04687-.10547-.14844-.14843-.0586-.08985-.05859-.08594-.04297-.10546v-.44532l.01563-.1328v-.14845l.01172-.1328-.0586-.0586-.08984.0586-.10156-.04298-.17969-.11719-.08594-.05859-.0625-.08984-.0586-.08985-.07421-.07421-.08594-.0586-.1211.03125-.10155.01172-.10547.04688-.08594.05859-.10547.04297-.14844.14844-.08984.05859-.08594.0586-.08984.0625-.10547.04296-.13281.01563v-.1211l.10547-.04297.11718-.03125.07422-.0703.04297-.10548v-.14844l-.02734-.11718-.14844-.14844-.13281-.01563h-.14844l-.11719.03125-.10547.04297-.10156.04297-.08984.0625-.11719.02735-.07422-.07422.01172-.13281-.04297-.10157-.04297-.10547-.08984-.05859-.11719.02734-.1211.03125-.11718.03125-.10156.04297-.1211.03125-.10156.04297-.10547.04297-.08984.0586-.10156.01562v-.11719l.01562-.13281-.0586-.08985-.07421.04297-.14844.14844-.0586.08985-.07421.07421-.04688.10547-.04296.10156-.07422.07422-.0586.08985-.07422.07422-.05859.08593-.07422.07422-.08984.0625-.07422.07031-.07422.07422-.10156.01563-.13281.01562-.10547-.04296v-.1211l.14843-.14844.04297-.10156.0586-.08984.04687-.10156.04297-.10547.0586-.08985.03124-.11719.04297-.10156.03125-.1211.02735-.11718.04687-.10547.04297-.10156.04297-.10547.07422-.07031.08984-.0625.08985-.0586.10156-.04296h.29687l.26563-.03125.10547-.04297-.07422-.07422-.11719-.03125-.10547-.04297-.08984-.0586-.10156-.04687-.08985-.0586-.10156-.04296-.10547-.04297-.08984-.0625-.08594-.0586-.10547-.04296-.10156-.04297-.1211-.03125-.11718-.03125-.10157-.04297L297.5 410.25l-.10156-.04297-.08985-.0586-.04296-.10546-.01563-.13281.10156-.04297.13281-.01563.13672.01563.13282-.01563.10156-.04297.0586-.08984.01562-.10547-.08985-.0586-.07421-.07421-.10157-.04297-.08984-.0586-.14844-.14843-.04297-.10547-.01562-.13281v-.29297l-.0586-.08985-.08984-.05859-.07422-.07422-.04297-.10547-.03125-.11718-.0586-.08985-.07421-.07422-.11719-.02734-.07422-.07422-.08984-.0586-.08984-.0625-.08594-.05859-.07422-.07421-.0586-.08594-.04687-.10547-.08594-.0586-.14843-.14843-.19532-.0586-.1328.01563-.10157.04297-.07422.07422-.04688.10156-.04296.10547-.0586.08984-.0586.08594-.29687.29687-.08984.0586h-.08594l-.0625-.08594-.04297-.10547.03125-.11719.0586-.08984.02734-.11719-.01172-.13281-.08984-.0625-.10547.04688-.11719.02734-.11719.03125-.26953.17578-.10156.04688-.11719.02734-.10546.04687-.08985.0586-.10156.04297-.0586-.08594-.04687-.10547.01563-.13281.04687-.10547.07031-.07422.07422-.07031.0586-.08985v-.14843l-.04297-.10547h-.23829l-.10156.04687-.03125.11719-.02734.11719-.03125.1211-.07422.04296-.13281.01563-.07422-.04688-.04297-.10156-.04297-.10547-.04687-.10156-.04297-.10547-.1211.03125-.10156.04297-.13281.01562-.11719.03125-.10547.04297-.08984.0586-.10156.04687-.1211.02734-.13281.01563-.10156-.04297-.0586-.08985-.04687-.10546-.04297-.10157-.04297-.10546v-.1172l.0586-.08984.08593-.05859.17969-.11719.10156-.04687.10547-.04297.10547-.0586.10156-.04296.08985-.0625.10156-.04297.10547-.0586.10156-.04687.08984-.0586.10547-.04296.10156-.04297.08985-.0625.10156-.04297.13672-.01563.11719.03125.10156.04297.1211.03125.10156.04297.10546.04688.10157.04296.10547.04297.10156.04688.10547.04297.10156.04297.10547.04687.08594.0586.10546.04296.1172.03125.10546.04297.10156.04688.08985.0586.10547.04296.10156.04297.10547.04687.11719.02735.10156.04687.1211.02735h.14843l.08594-.0586.01562-.10156.0586-.08984-.02735-.1172-.07422-.07421-.11719-.17969-.07421-.07422-.08985-.07421-.17969-.1172-.08593-.05859-.10547-.04296-.10156-.04688-.26954-.17578-.05859-.08985-.07422-.07421-.0586-.08985-.04296-.10156-.03125-.11719-.01563-.13672v-.5625l-.01171-.1328-.01563-.13282-.03125-.11719-.01562-.13281-.01172-.13281-.03125-.1211-.22266-.22265-.0586-.08594-.01562-.10547.03125-.11719.13281-.01562v-91.41406H172.9922v1.45312l-.0586.23438-.35156 1.05078-.17187.52343-.1172.34766-.17577.41016-.11719.17187-.23438.29297-.23046.0586h-.35157l-.11718.05859-.23047.40625v.29297l.11719.17578.23046.23047.1172.23437.64062.75781.29297.46485.17578.23437.23047.35156.23437.34766.64063.8164.17578.46485.17187.41016.11719.69531.17578.46875.11719 1.39844.0586.46484v.875l.11718 1.04688v4.78125l-.0586.46484-.35156 1.28125-.17578.52344-.11328.41015-.35156.9297L172.93359 336l-.23437.58203-.11719.17578-.17187.34766-.17578.40625-.35157.8164-.0586.29297-.11327.29297-.11719.28906-.0586.17579-.11718.875-.0586.40625-.05859.11718-.0586.17579-.05859.17187-.23047.52734-.11718.17188v.23437l-.11719.23438-.0586.17187-.17577.58594v.28906l-.0586.17579v.29296l-.0586.11329-.05859.52734v.17187l-.05468.23438v2.6211l-.17578.8164-.1172.17578-.17577.23438-.1172.17187-.11327.23438-.58594.93359-.23047.28906-.29297.46485-.17578.23437-.28906.35156-.35156.69922-.11328.23047-.17579.41016-.17578.23046-.40625.52735-.8164.69922-.29297.17187-.28906.23438-.17579.11719-.17578.17578-.52344.40625-.52734.17578-.17187.17578-.23438.05469-.64062.17578h-.75782m12.21094 31.02344l-1.07422.44921.35938.89454 1.25-.71485.44531-.53906-.98047-.08985"/><path fill="#d3d3d3" fill-opacity="0" fill-rule="evenodd" d="M201.50781 416.59766h-.89453l.44922.6289.98047.35938.80469-.08985.4453-.98828-.17577.08985-.71485-.35547-.89453.35547m154.6211 59.0703l-.0586-.52343v-.29297l.11328-.29297.0586-.23046.46875-.46875h.11328l.11719-.11329.11718-.05859h.17579l.23437-.0586h.34766l.23437.0586.11719.0586.23047.17187.0586.17578.11718.58203v.29297l-.11719.17578-.17187.28906-.17579.17579-.52734.52343-.23047.23438-.11719.0586h-.17578l-.11718-.0586-.40625-.29297-.17579-.11719-.11718-.0586-.0586-.11327-.05468-.1172m6.64062-10.95702l-.0586-.17188v-1.10937l.0586-.17188.17578-.0586.17188-.05858h.17578l.23437-.0586.1172.0586.05858.69921-.05859.17188-.11719.17578-.11718.0586-.23438.52343-.11328.0586h-.23438l-.05859-.1172m9.61328-14.39062l-.11719-.17578v-.69922l.29297-.875.1172-.17187.17577-.35156.11328-.23047.1172-.29297.35155-.75781.1172-.23047.17187-.23438h.17578l.11719-.0586h.64062l.11719.0586.23437.23438.17188.11328.35156.29297.11719.11718.11328.17579v.11328l.11719.05859.11718.11719v.69922l-.05859.17578v.23047l-.0586.17578-.34765 1.05078-.11719.23047-.11719.23437-.11718.0586-.23047.23437-.64063.28906h-.875l-.41015-.11718-.64063-.46485"/><path fill="none" stroke="#bebebe" stroke-linecap="round" stroke-linejoin="round" stroke-miterlimit="10" stroke-width=".5" d="M467.95703 311.69531H144.02734v168.625h323.9297v-168.625"/><g clip-path="url(#a)"><path fill="#fff" fill-opacity="0" fill-rule="evenodd" d="M144 475.89063v4.4375h.0039H144V311.67188h.0039H144v164.21875"/></g><g clip-path="url(#b)"><path fill="#fff" fill-opacity="0" fill-rule="evenodd" d="M144.0039 480.32813V311.67188h22.1875v127.09375l-4.4375 1.05468-2.58202.5625 2.58203 1.39063 4.4375.26562 4.4375-1 1.10547-.65625-1.10547-.91015-4.4375-.70704V311.67188h8.875v144.69141l-4.4375 1.34766-4.4375-.04297-1.42188.46875-3.01562.73437-2.40625 3.70313 2.40625 2.3125 4.4375-1.02735 2.24609-1.28515 2.1914-3.61719 4.4375 1.75 3.81641-2.57031-3.8164-1.77344v-144.6914h8.8789v145.3164l-3.25781 1.14844 3.25781 1.83594 4.4375-1.71485.65625-.1211-.65625-.0664-4.4375-1.08203v-145.3164h190.84766v128.16796l-.63281.54297.6328.85547.53126-.85547-.53125-.54297V311.67188h93.20312v168.65625H144.00391"/></g><path fill="#50fcfc" fill-rule="evenodd" d="M161.7539 441.77344l-2.58202-1.39063 2.58203-.5625 4.4375-1.05469 4.4375.70704 1.10547.91015-1.10547.65625-4.4375 1-4.4375-.26562m0 23.11328l-2.40625-2.3125 2.40625-3.70313 3.01562-.73437 1.42188-.46875 4.4375.04297 4.4375-1.34766 3.8164 1.77344-3.8164 2.57031-4.4375-1.75-2.19141 3.61719-2.2461 1.28515-4.4375 1.02735m22.19141-4.91406l-3.25781-1.83594 3.25781-1.14844 4.4375 1.08203.65625.0664-.65625.1211-4.4375 1.71485m190.84766-18.73438l-.63281-.85547.6328-.54297.53126.54297-.53125.85547"/><g clip-path="url(#c)"><path fill="#fff" fill-opacity="0" fill-rule="evenodd" d="M467.9961 480.32813H468V311.67188h-.0039H468v168.65625h-.0039"/></g><g clip-path="url(#d)"><path fill="none" stroke="#000" stroke-linecap="round" stroke-linejoin="round" stroke-miterlimit="10" stroke-width=".5" d="M147.49219 479.9336l-6.98438.78906"/></g><g clip-path="url(#e)"><path fill="none" stroke="#000" stroke-linecap="round" stroke-linejoin="round" stroke-miterlimit="10" stroke-width=".5" d="M147.49219 479.9336l1.38672 2.02343"/></g><g clip-path="url(#f)"><path fill="none" stroke="#000" stroke-linecap="round" stroke-linejoin="round" stroke-miterlimit="10" stroke-width=".5" d="M146.47656 480.04688l.6914 1.01171"/></g><g clip-path="url(#g)"><path fill="none" stroke="#000" stroke-linecap="round" stroke-linejoin="round" stroke-miterlimit="10" stroke-width=".5" d="M160.82031 480.10547l-7.01172.44531"/></g><g clip-path="url(#h)"><path fill="none" stroke="#000" stroke-linecap="round" stroke-linejoin="round" stroke-miterlimit="10" stroke-width=".5" d="M160.82031 480.10547l1.28906 2.08984"/></g><g clip-path="url(#i)"><path fill="none" stroke="#000" stroke-linecap="round" stroke-linejoin="round" stroke-miterlimit="10" stroke-width=".5" d="M174.14063 480.1875l-7.01954.28125"/></g><g clip-path="url(#j)"><path fill="none" stroke="#000" stroke-linecap="round" stroke-linejoin="round" stroke-miterlimit="10" stroke-width=".5" d="M174.14063 480.1875l1.23828 2.11719"/></g><g clip-path="url(#k)"><path fill="none" stroke="#000" stroke-linecap="round" stroke-linejoin="round" stroke-miterlimit="10" stroke-width=".5" d="M187.45703 480.2461l-7.02344.16796"/></g><g clip-path="url(#l)"><path fill="none" stroke="#000" stroke-linecap="round" stroke-linejoin="round" stroke-miterlimit="10" stroke-width=".5" d="M187.45703 480.2461l1.20313 2.13671"/></g><g clip-path="url(#m)"><path fill="none" stroke="#000" stroke-linecap="round" stroke-linejoin="round" stroke-miterlimit="10" stroke-width=".5" d="M200.76953 480.13281l-7.01562.39063"/></g><g clip-path="url(#n)"><path fill="none" stroke="#000" stroke-linecap="round" stroke-linejoin="round" stroke-miterlimit="10" stroke-width=".5" d="M200.76953 480.13281l1.26953 2.10156"/></g><g clip-path="url(#o)"><path fill="none" stroke="#000" stroke-linecap="round" stroke-linejoin="round" stroke-miterlimit="10" stroke-width=".5" d="M214.08984 480.35938l-7.02734-.0625"/></g><g clip-path="url(#p)"><path fill="none" stroke="#000" stroke-linecap="round" stroke-linejoin="round" stroke-miterlimit="10" stroke-width=".5" d="M214.08984 480.35938l1.13282 2.17968"/></g><g clip-path="url(#q)"><path fill="none" stroke="#000" stroke-linecap="round" stroke-linejoin="round" stroke-miterlimit="10" stroke-width=".5" d="M227.39063 480.625l-7-.59375"/></g><g clip-path="url(#r)"><path fill="none" stroke="#000" stroke-linecap="round" stroke-linejoin="round" stroke-miterlimit="10" stroke-width=".5" d="M227.39063 480.625l.96484 2.2539"/></g><g clip-path="url(#s)"><path fill="none" stroke="#000" stroke-linecap="round" stroke-linejoin="round" stroke-miterlimit="10" stroke-width=".5" d="M240.67578 480.8789l-6.9414-1.09765"/></g><g clip-path="url(#t)"><path fill="none" stroke="#000" stroke-linecap="round" stroke-linejoin="round" stroke-miterlimit="10" stroke-width=".5" d="M240.67578 480.8789l.80078 2.32032"/></g><g clip-path="url(#u)"><path fill="none" stroke="#000" stroke-linecap="round" stroke-linejoin="round" stroke-miterlimit="10" stroke-width=".5" d="M253.9961 480.84375l-6.95313-1.03125"/></g><g clip-path="url(#v)"><path fill="none" stroke="#000" stroke-linecap="round" stroke-linejoin="round" stroke-miterlimit="10" stroke-width=".5" d="M253.9961 480.84375l.82421 2.3125"/></g><g clip-path="url(#w)"><path fill="none" stroke="#000" stroke-linecap="round" stroke-linejoin="round" stroke-miterlimit="10" stroke-width=".5" d="M267.32031 480.77734l-6.96875-.89843"/></g><g clip-path="url(#x)"><path fill="none" stroke="#000" stroke-linecap="round" stroke-linejoin="round" stroke-miterlimit="10" stroke-width=".5" d="M267.32031 480.77734l.86328 2.29688"/></g><g clip-path="url(#y)"><path fill="none" stroke="#000" stroke-linecap="round" stroke-linejoin="round" stroke-miterlimit="10" stroke-width=".5" d="M280.63281 480.79688l-6.96484-.9375"/></g><g clip-path="url(#z)"><path fill="none" stroke="#000" stroke-linecap="round" stroke-linejoin="round" stroke-miterlimit="10" stroke-width=".5" d="M280.63281 480.79688l.85156 2.30078"/></g><g clip-path="url(#A)"><path fill="none" stroke="#000" stroke-linecap="round" stroke-linejoin="round" stroke-miterlimit="10" stroke-width=".5" d="M293.71484 481.67188l-6.49609-2.6836"/></g><g clip-path="url(#B)"><path fill="none" stroke="#000" stroke-linecap="round" stroke-linejoin="round" stroke-miterlimit="10" stroke-width=".5" d="M306.6211 482.39453l-5.6836-4.13281"/></g><g clip-path="url(#C)"><path fill="none" stroke="#000" stroke-linecap="round" stroke-linejoin="round" stroke-miterlimit="10" stroke-width=".5" d="M319.73047 482.65625l-5.26953-4.65234"/></g><g clip-path="url(#D)"><path fill="none" stroke="#000" stroke-linecap="round" stroke-linejoin="round" stroke-miterlimit="10" stroke-width=".5" d="M332.2539 483.32031l-3.6875-5.98047"/></g><g clip-path="url(#E)"><path fill="none" stroke="#000" stroke-linecap="round" stroke-linejoin="round" stroke-miterlimit="10" stroke-width=".5" d="M345.58594 483.3086l-3.71875-5.96094"/></g><g clip-path="url(#F)"><path fill="none" stroke="#000" stroke-linecap="round" stroke-linejoin="round" stroke-miterlimit="10" stroke-width=".5" d="M358.54297 483.50781l-3.0039-6.35547"/></g><g clip-path="url(#G)"><path fill="none" stroke="#000" stroke-linecap="round" stroke-linejoin="round" stroke-miterlimit="10" stroke-width=".5" d="M371.8164 483.52344l-2.92187-6.39063"/></g><g clip-path="url(#H)"><path fill="none" stroke="#000" stroke-linecap="round" stroke-linejoin="round" stroke-miterlimit="10" stroke-width=".5" d="M383.2539 483.8164l.83594-6.97656"/></g><g clip-path="url(#I)"><path fill="none" stroke="#000" stroke-linecap="round" stroke-linejoin="round" stroke-miterlimit="10" stroke-width=".5" d="M395.45703 483.49219l3.0586-6.32813"/></g><g clip-path="url(#J)"><path fill="none" stroke="#000" stroke-linecap="round" stroke-linejoin="round" stroke-miterlimit="10" stroke-width=".5" d="M412.41406 483.13672l-4.22265-5.61719"/></g><g clip-path="url(#K)"><path fill="none" stroke="#000" stroke-linecap="round" stroke-linejoin="round" stroke-miterlimit="10" stroke-width=".5" d="M423.07813 483.80078l1.07421-6.94531"/></g><g clip-path="url(#L)"><path fill="none" stroke="#000" stroke-linecap="round" stroke-linejoin="round" stroke-miterlimit="10" stroke-width=".5" d="M436.84766 483.83984l.16796-7.02343"/></g><g clip-path="url(#M)"><path fill="none" stroke="#000" stroke-linecap="round" stroke-linejoin="round" stroke-miterlimit="10" stroke-width=".5" d="M450.60938 483.82422l-.72657-6.98828"/></g><g clip-path="url(#N)"><path fill="none" stroke="#000" stroke-linecap="round" stroke-linejoin="round" stroke-miterlimit="10" stroke-width=".5" d="M463.38281 483.83594l.35547-7.01563"/></g><g clip-path="url(#O)"><path fill="none" stroke="#000" stroke-linecap="round" stroke-linejoin="round" stroke-miterlimit="10" stroke-width=".5" d="M147.49219 467.38281l-6.98438-.73828"/></g><path fill="none" stroke="#000" stroke-linecap="round" stroke-linejoin="round" stroke-miterlimit="10" stroke-width=".5" d="M147.49219 467.38281l.91797 2.27735m12.39843-2.27344l-6.98828-.7461m6.98828.7461l.91797 2.27344m12.41016-2.39844l-7.01172-.4961m7.01172.4961l.9961 2.24219m12.32421-2.45313l-7.02344-.07422m7.02344.07422l1.13281 2.17969m12.17188-2.52344l-7 .61328m7-.61328l1.33594 2.0586m11.99218-1.70313l-7.02734-.09766m7.02734.09766l1.1211 2.17969m12.15625-2.7461l-6.95313 1.03516m6.95313-1.03516l1.45703 1.97266m11.89453-1.52734l-7.02734.14453m6.0039-.125l.59766 1.07031m13.71094-.57031l-6.96875-.89453m6.96875.89453l.86718 2.29687m12.47657-2.625l-7.02344-.23828m7.02344.23828l1.07812 2.20703m12.21094-2.75l-6.97266.84766m6.97266-.84766l1.40625 2.00782m11.89453-2.13282l-6.9414 1.09766m6.9414-1.09766l1.47656 1.96094m11.875-1.58594l-7.01562.34766m5.9961-.29688l.6289 1.05079m13.69531-.59375l-6.9961-.66797m5.97657.57031l.47266 1.13281m12.625 1.32032l-4.51954-5.37891m3.85938 4.59766l-.45703 1.13671m12.25781.46875l-.17578-7.02734m.15234 6.0039l-1.07031.60157m14.6875.40234l-.73047-6.98828m.625 5.97266l-1.01562.6836m12.99609.18359l2.15234-6.69141m-1.83984 5.71875l-1.20703.21484m13.07812.14844l4.41407-5.47266m-3.77344 4.67579l-1.20313-.23438m13.44141.61328l5.28516-4.63672m7.43359 3.67578l6.48047-2.71484m-5.53906 2.32031l-.94922-.77734m13.08984.36328l6.9414-1.09766m-5.92968.9375l-.73828-.98046m14.69531 3.59765l3.63672-6.01172m-3.10547 5.13672l-1.22656-.0664m12.8086-.26954l6.04296-3.58984m-5.16406 3.0664l-1.05078-.63671m15.23437 2.64062l2.54688-6.55078m-2.17578 5.59766l-1.21875.14453"/><g clip-path="url(#P)"><path fill="none" stroke="#000" stroke-linecap="round" stroke-linejoin="round" stroke-miterlimit="10" stroke-width=".5" d="M147.5 454.00781l-7-.61719"/></g><path fill="none" stroke="#000" stroke-linecap="round" stroke-linejoin="round" stroke-miterlimit="10" stroke-width=".5" d="M147.5 454.00781l.95703 2.25781m12.28516-1.78515l-6.85156-1.5625m6.85156 1.5625l.64062 2.36719m12.60938-2.1211l-6.72266-2.05469m6.72266 2.0547l.46875 2.40624m12.76172-2.16797l-6.5547-2.53125m6.5547 2.53125l.29687 2.4336m13.23438-3.32813l-6.98828-.74219m5.97265.63282l.45703 1.13672m13.64063-2.71094l-6.51953 2.6211m5.5703-2.23829l.9375.78906m12.39063-2.49609l-4.64843 5.26953m3.97265-4.5l1.1914.28125m13.25392-.5664l-5.5586 4.30078m4.75-3.67188l1.11719.5039m13.33984-.61327l-6.22265 3.26171m5.3164-2.78515l1.01172.6914m13.58984.85938l-6.98437-.78906m5.96875.67187l.44922 1.14063m13.72265-2.53125l-6.66406 2.22656m5.6914-1.90234l.89063.84375M293.54297 452l-6.15235 3.39453M293.54297 452l2.05469 1.34375m10.90625-1.86328l-5.44532 4.4375m5.44532-4.4375l2.26171.94922m10.96485-1.05469l-5.26953 4.64844m5.26953-4.64844l2.29687.86328m11.21485-.61719l-5.66407 4.15625m4.83985-3.55468l1.10547.53515m13.59375.02344l-6.78125 1.83594m20.07031.09375l-6.73047-2.02344m13.17969 1.30469l7-.58594m6.78906-1.49219l6.05469 3.57031m6.90625-2.73828l6.76172 1.90625m-5.77735-1.6289l-.26172-1.19922m12.52344 2.53515l6.90235-1.3203m-5.89844 1.1289l-.76953-.95703m13.36328 2.00781l6.33594-3.03906m-5.41407 2.59765l-.98828-.73047m13.26953.91407l6.5586-2.52344m-5.60547 2.15625l-.92578-.80469m13.14062.6875l6.85156-1.55469m-5.85546 1.32813l-.80079-.92969m19.48829-1.54687l-5.88282 3.84765"/><g clip-path="url(#Q)"><path fill="none" stroke="#000" stroke-linecap="round" stroke-linejoin="round" stroke-miterlimit="10" stroke-width=".5" d="M147.50781 440.57813l-7.01562-.39063"/></g><path fill="none" stroke="#000" stroke-linecap="round" stroke-linejoin="round" stroke-miterlimit="10" stroke-width=".5" d="M147.50781 440.57813l1.02735 2.23046m12.19922-1.61328l-6.83594-1.625m6.83594 1.625l.61718 2.375m12.49219-1.76172l-6.42578-2.84765m6.42578 2.84765l.17578 2.44532m13.07031-2.3047l-6.28906-3.1328m6.28906 3.1328l.06641 2.45313m13.08984-2.16797l-5.97265-3.69921m5.97265 3.69922l-.16015 2.4453m13.71094-2.89062l-6.44141-2.8125m5.5039 2.40235l.09375 1.22656m13.75-4.32813l-5.625 4.21485m15.39454-5.54297l1.46484 6.8711m9.61328-1.5586l5.9414-3.7539m9.33985-1.4922l2.00781 6.73438m9.47266-5.4375l5.67578 4.14063m12.4336-4.98829l-3.91016 5.83985m3.33984-4.99219l1.21875.125m13.52344-.16016l-5.625 4.21094m5.625-4.21094l2.21875 1.04297m11.17969-.92578l-5.79297 3.98047m5.79297-3.98047l2.17578 1.13281m10.875-1.46875l-5.26563 4.65235m4.5-3.97656l1.14844.42968m12.72656-1.32031l-4.85547 5.07813m12.2422-2.8125l7.0039.54687m7.92187-3.23437l3.78125 5.92187m-3.23047-5.0586l.60157-1.0703m10.71093 2.08984l6.6875 2.16015m-5.71484-1.84765l-.21484-1.20703m12.48047 2.76953l6.83984-1.59375m-5.84766 1.36328l-.80468-.92578m13.47265 2.0586l6.14844-3.39845m13.53516 2.92188l-6.58985-2.4414m5.63281 2.08593l.16407 1.21484m14.32422-1.88671l-7.01954-.39063m7.01954.39063l1.02734 2.23046m12.01953-3.78125l-6.48437 2.71094m5.54296-2.3164l.94922.77734m12.48438-2.36719l-4.83594 5.10156m4.1289-4.35937l1.1836.32812"/><g clip-path="url(#R)"><path fill="none" stroke="#000" stroke-linecap="round" stroke-linejoin="round" stroke-miterlimit="10" stroke-width=".5" d="M147.51172 426.95703l-7.02344.22266"/></g><path fill="none" stroke="#000" stroke-linecap="round" stroke-linejoin="round" stroke-miterlimit="10" stroke-width=".5" d="M147.51172 426.95703l1.21875 2.1289m11.98047-1.10937l-6.78906-1.8164m6.78906 1.8164l.55078 2.39063m12.60156-1.92578l-6.46875-2.7461m6.46875 2.7461l.21484 2.4453m12.92579-2.08983l-6.1172-3.45704m6.1172 3.45703l-.0625 2.45313m13.01953-1.9336l-5.40235-4.49609m5.40235 4.4961l-.5 2.40234m13.46484-2.03906l-4.69922-5.22266m4.01563 4.46485l-.42188 1.15234m12.79688.42969l-1.45703-6.8711m14.29297 6.9414l-.4961-7.01171m.42578 5.99219l-1.04297.64844m12.14063-.27344l4.07812-5.72266m-3.48437 4.89063l-1.21484-.16016m13.8164.90234l4.32031-5.54297m-3.6914 4.73829l-1.21094-.21485m13.02734.02735l6.0586-3.5586m9.55078-1.65625l1.47266 6.8711m13.46093-6.83594l-1.76953 6.80078m14.6914-6.8789l-.98046 6.95702m.83984-5.9453l1.15235-.41798m13.20312-.34375l-2.78125 6.45703m2.375-5.51562l1.22266-.10156m11.125-1.125l-.03125 7.02734m.02734-6.0039l1.08594-.57032m13.23828 3.0625l-.01953-.20312-.0586-.1914-.09374-.17579-.45704-.375-.1914-.0586-.19922-.01952-.20313.01953-.1914.05859-.45703.375-.09375.17578-.0586.1914-.01953.20313.01953.19922.0586.1914.09375.17579.45703.375.1914.0586.20313.01952.19922-.01953.1914-.0586.45704-.375.09375-.17577.05859-.1914.01953-.19923m8.79688-.32422l6.99609.64454m7.72656-3.14844l4.17969 5.65234m-3.57031-4.82812l.52734-1.10938m17.6211 4.15625l-6.70704-2.08984m6.70703 2.08984l.45704 2.41016m11.58984-.625l-4.16797-5.66016m4.16797 5.66016l-1.0625 2.21094m15.77344-4.55079l-6.96094-.97656m6.96094.97656l.83593 2.3047m12.37891-3.75782l-6.76172 1.92578m6.76172-1.92578l1.69922 1.76953m10.54687-3.45312l-4.62109 5.29296m3.94922-4.52343l1.1914.27734m12.7461-1.08594l-4.52734 5.375m3.87109-4.59375l1.19922.25782"/><g clip-path="url(#S)"><path fill="none" stroke="#000" stroke-linecap="round" stroke-linejoin="round" stroke-miterlimit="10" stroke-width=".5" d="M147.1914 412.28125l-6.3828 2.94531"/></g><path fill="none" stroke="#000" stroke-linecap="round" stroke-linejoin="round" stroke-miterlimit="10" stroke-width=".5" d="M146.26172 412.70703l.97656.74219m13.58984.33594l-7.02734-.0625m6.0039.05078l.56641 1.08984m13.41407.4336l-6.3125-3.08594m5.39453 2.63672l.04297 1.22656m12.58984.82812l-3.10938-6.30078m15.69532 6.5664l-1.65235-6.82812m1.41016 5.83594l-.91797.8125m10.13672-3.29687l7.02734.125m6.6172-1.55078l6.36718 2.97656m-5.4414-2.54297l-.0625-1.22656m12.12109 2.18359l7.02734.19531m-6.0039-.16797l-.54688-1.09765m12.96484 2.09765l6.77735-1.86328m-5.79297 1.59375l-.83985-.89062m13.80078 2.40625l5.51563-4.35156m12.4961-.75391l-3.87891 5.85937m16.27734-2.92968l-.01953-.19922-.0586-.1914-.09374-.1797-.46094-.375-.1914-.05859-.19923-.01953-.19922.01953-.1914.0586-.45703.375-.09766.17968-.05469.1914-.01953.19923.01953.19921.0547.19141.09765.17578.45703.3789.1914.0586.19922.01953.19922-.01953.1914-.0586.46095-.3789.09375-.17578.05859-.1914.01953-.19922m12.92188-3.45704l-1.25782 6.91407m14.02735-6.96875l-.16797 7.02343m.14453-6.0039l1.09375-.54688m13-.375l-1.67969 6.82422m1.4375-5.82812l1.1875-.30078m13.07032-.44141l-3.07813 6.3164m18.13281-1.89453l-6.5586-2.52343m5.60548 2.15625l.14844 1.21875m14.32812-1.70313l-6.97656-.82031m5.96484.69922l.44531 1.14453m13.69141-2.64844l-6.59375 2.42969m5.63281-2.07813l.91407.82032m12.36328-2.61328l-4.59766 5.3125m3.92969-4.53907l1.19531.27344m13.6875.16016l-6.39844 2.89843M413.5 412.3047l1.94531 1.4961m11.17969-1.85938l-6.01953 3.625m6.01953-3.625l2.10547 1.26171m11.0625-1.48828l-5.72266 4.07813m4.89063-3.48438l1.09765.54688m13.28516-.75781l-6.19531 3.3125m6.19531-3.3125l2.03906 1.36718m11.65625-.20312l-6.95703.98437m5.94531-.84375l.72266.9922"/><g clip-path="url(#T)"><path fill="none" stroke="#000" stroke-linecap="round" stroke-linejoin="round" stroke-miterlimit="10" stroke-width=".5" d="M146.04297 397.57813l-4.08594 5.71875"/></g><path fill="none" stroke="#000" stroke-linecap="round" stroke-linejoin="round" stroke-miterlimit="10" stroke-width=".5" d="M146.04297 397.57813l2.42969.3203m10.39062-.61327l-3.09766 6.30859m2.64844-5.39063l1.22656-.03906m11.83985 5.6836l-1.70313-6.81641m10.92188 2.0625l6.49219 2.6914m9.39062-4.79296l1.35938 6.89453m16.125-3.85938l-6.98047.82032m5.96484-.69922l.69531 1.00781m13.62891-.26172l-6.96875-.91406m5.95313.78125l.42968 1.15234m13.70703-.2461l-6.58203-2.45702m6.58203 2.45703l.32422 2.42969m12.82031-2.03907l-6.23828-3.23828m6.23828 3.23828l.02344 2.45313m13.36719-2.60938l-6.39063-2.92968m6.39063 2.92968l.14063 2.44922m13.49218-3.8789l-7.02734-.07032m7.02734.07032l1.1289 2.17968m12.1797-2.4453l-7.01172.46483m7.01172-.46484l1.29296 2.08594M307.29297 400.5l-7.02344-.125m7.02344.125l1.11328 2.1875m12.13281-2.94922l-6.88672 1.40235m5.88282-1.19922l.78125.9453m13.49609-1.32421l-6.80469 1.75m6.80469-1.75l1.65625 1.8125m11.57422.22266l-6.63281-2.32032m5.66796 1.98438l.1836 1.21094m13.48047.21484l-5.40235-4.4961m5.40235 4.4961l-.5 2.39844m14.46875-3.60547L367 399.39453m5.73437 1.78516l.23047 1.20312m13.26563-4.35156l-5.1211 4.8125m5.1211-4.8125l2.32422.79297m11.67968.27734l-6.49609 2.67188m5.55078-2.28125l.94531.78125m13.5547-.27735l-6.97266.88282m6.97265-.88282l1.41406 2.00782m11.56641-3.1172l-6.30469 3.10157m6.3047-3.10156l1.98827 1.4375m10.97656-2.0039l-5.60546 4.23437m5.60546-4.23438l2.22657 1.03516m11.64843.0625l-6.72656 2.03906m5.7461-1.74219l.86718.8711m13.57032-.38281l-7.01172.46875m5.99218-.39844l.64844 1.03906"/><g clip-path="url(#U)"><path fill="none" stroke="#000" stroke-linecap="round" stroke-linejoin="round" stroke-miterlimit="10" stroke-width=".5" d="M146.84766 385.0625l-5.69532 4.1211"/></g><path fill="none" stroke="#000" stroke-linecap="round" stroke-linejoin="round" stroke-miterlimit="10" stroke-width=".5" d="M146.84766 385.0625l2.20312 1.08203m-3.03125-.48047l2.20313 1.07813m11.60547-2.07422l-5.02735 4.91015m5.02734-4.91015l2.33594.74219m11.86328.8164l-6.79297 1.79297m6.79297-1.79297l1.66797 1.80469m11.69531-.22656L180.5 386.4414m6.89063 1.36328l.71093 2.34765m12.35547-1.57421l-6.39453-2.91016m6.39453 2.91015l.15234 2.44922m13.17579-2.47656l-6.41797-2.85547m6.41797 2.85547L213.95703 391m-1.10547-2.86328l.08594 1.22265m14.42969-1.72265l-6.95313-1.02344m6.95313 1.02344l.82422 2.3086m-1.83594-2.46094l.82422 2.3125m-1.83594-2.46094l.41016 1.15625m14.85156-.48438l-6.80078-1.76953m6.80078 1.76953l.57031 2.38672m-1.5586-2.64453l.56641 2.38672m-1.55859-2.64453l.28516 1.19531m14.89843-.32422l-6.57422-2.48047m6.57422 2.48047l.3125 2.4336m-1.26953-2.79297l.15625 1.21484m14.22656-1.20313l-6.79687-1.78515m6.79688 1.78515l.5625 2.39063m-1.55079-2.64844l.28125 1.19531m14.10938-1.3789l-6.96875-.90235m6.96875.90235l.86328 2.29687m12.48047-2.72265l-7.02735-.05078m7.02735.05078l1.13672 2.17578m12.15625-1.8125l-6.98438-.77735m6.98438.77735l.90625 2.28125m12.40625-2.26953l-6.98047-.79688m6.98047.79688l.89844 2.28125m12.35937-1.9414l-6.86719-1.48048m6.86719 1.48047l.67188 2.35938m12.41406-1.65625l-6.40625-2.88672m6.40625 2.88672l.15625 2.44921m12.8164-1.85156l-5.72265-4.08203m5.72265 4.08203l-.3203 2.42969m14.27733-4.73047l-7.0078.51953m7.0078-.51953l1.3125 2.07422m11.65235-3.36328l-6.30469 3.09765m6.30469-3.09765l1.98828 1.4375m11.39453-1.29688l-6.4414 2.81641m6.4414-2.8164l1.92188 1.52343m11.45312-1.3711l-6.5625 2.51173m6.5625-2.51172l1.85156 1.61328m10.79688-2.70313l-5.22656 4.69532m5.22656-4.69532l2.30469.83985m10.9414-.91406l-5.08984 4.83984m5.08984-4.83985l2.32813.77735m11.78515.5664l-6.6875 2.15235m5.71485-1.83985l.88281.85547m13.53125.46875l-6.9375-1.12109"/><g clip-path="url(#V)"><path fill="none" stroke="#000" stroke-linecap="round" stroke-linejoin="round" stroke-miterlimit="10" stroke-width=".5" d="M467.03125 387.6836l.79297 2.3203"/></g><g clip-path="url(#W)"><path fill="none" stroke="#000" stroke-linecap="round" stroke-linejoin="round" stroke-miterlimit="10" stroke-width=".5" d="M147.33594 372.70703l-6.67188 2.19922"/></g><path fill="none" stroke="#000" stroke-linecap="round" stroke-linejoin="round" stroke-miterlimit="10" stroke-width=".5" d="M147.33594 372.70703l1.77344 1.69922m-2.7422-1.3789l1.76954 1.69921m-2.74219-1.3789l.88672.85156m14.50781-.91406l-6.94922 1.04687m6.94922-1.04687l1.46094 1.97265m-2.47266-1.82031l1.46094 1.97266m-2.47266-1.82032l.73438.98438m14.63281-1.0625l-7.0039.59375m7.0039-.59375l1.32813 2.0625m-2.34766-1.97656l1.32813 2.0625m-2.34766-1.97657l.66406 1.03125m14.66406-.39453l-6.95312-1.02344m6.95313 1.02344l.82421 2.3086m-1.83593-2.45704l.82422 2.3086m-1.83594-2.45703l.41406 1.15234m14.83594-.4375l-6.77735-1.85937m6.77735 1.85937l.53906 2.39453m-1.52344-2.66797l.53516 2.39454m-1.52344-2.66407l.26953 1.19922m15.04297-.75l-6.82422-1.67187m6.82422 1.67187l.60156 2.3789m-1.59375-2.62109l.60157 2.37891m13.74218-2.3086l-6.89843-1.32812m6.89843 1.32813l.72266 2.34375m-1.72656-2.53907l.36328 1.17579m14.01172-1.42188l-7.01172-.44922m7.01172.44922l1.01172 2.23828m-2.03125-2.30078l.5039 1.11719m13.83203-1.46094l-7.01562.36719m7.01562-.36719l1.26563 2.10156m-2.28516-2.04687l.63281 1.05078m13.69141-1.27344l-6.99219.69922m6.9922-.69922L268.6953 375.5m-2.38281-1.9414l.6836 1.02343m13.63671-1.23828l-6.96484.92969m6.96484-.92969l1.42969 1.9961m11.91406-1.66016l-7.02343.25781m7.02343-.25781l1.23047 2.1211m12.08203-2.19923l-7.01562.41406m7.01562-.41406l1.27735 2.09375m-2.29688-2.03515l.63672 1.04687m13.6914-1.1914l-7.0039.58593m7.0039-.58594l1.32813 2.0625m11.9961-1.65234l-7.02344-.23437m7.02344.23437L335 376.12891m12.09766-1.33204l-6.7422-1.98046m6.7422 1.98046l.49609 2.40625m12.82031-2.41406l-6.7461-1.96094m6.7461 1.96094l.5039 2.39844m-1.48437-2.6836l.25 1.19923m14.16797-1.52344l-6.98828-.74219m6.98828.74219l.91797 2.27344m-1.9375-2.38282l.46094 1.13672m13.86328-1.85156l-6.96875.90625m6.96875-.90625l1.42188 2m11.79296-2.49219l-6.76953 1.89063m6.76953-1.89063l1.69141 1.77735m11.23828-2.66016l-6 3.65625m6-3.65625l2.11328 1.25m9.72266-2.58985l-3.04297 6.33594m2.60156-5.41406l1.22657-.05078m12.61328-.82813l-3.20703 6.25m2.74218-5.34375l1.22657-.01562m13.8203.20703l-5.73827 4.05469m4.90234-3.46485l1.09375.55079m13.63281.19921l-6.89062 1.375m5.88672-1.17578l.77734.94922"/><g clip-path="url(#X)"><path fill="none" stroke="#000" stroke-linecap="round" stroke-linejoin="round" stroke-miterlimit="10" stroke-width=".5" d="M147.33984 359.39844l-6.67968 2.1914"/></g><path fill="none" stroke="#000" stroke-linecap="round" stroke-linejoin="round" stroke-miterlimit="10" stroke-width=".5" d="M147.33984 359.39844l1.76953 1.69922m-2.74218-1.38282l1.76953 1.69922m12.66016-1.39062l-6.96485.9414m6.96484-.9414l1.4336 1.99219m-2.44531-1.85547l1.42968 1.99218m-2.4453-1.85546l.71874.99609m14.65234-.95313l-7.01953.3047m7.01953-.3047l1.2461 2.11329m-2.26953-2.07032l1.2461 2.11719m-2.26563-2.07031l.62109 1.05469m14.73828-.83594l-7.02344-.3125m7.02344.3125l1.05469 2.21484m-2.07813-2.26172l1.0547 2.21875m13.26952-2.0039l-6.9961-.64844m6.9961.64844l.94922 2.26562m-1.96484-2.35937l.94531 2.26562m13.40234-2.57422l-7.02734.15625m7.02734-.15625l1.19922 2.14063m-2.22265-2.11719l.59765 1.07031m13.73828-.96484l-7.02343-.09766m7.02343.09766l1.1211 2.1836m-2.14063-2.19923l.5586 1.09375m13.77343-.98046l-7.01953-.29688m7.01953.29688l1.0586 2.21484m-2.07813-2.25781l.52735 1.10937m13.80468-1.44922l-7.01172.46875m7.01172-.46875l1.29297 2.08594m-2.3125-2.01563l.64453 1.04297m13.67578-1.27734l-6.98437.79688m6.98438-.79688l1.39062 2.02344m-2.40625-1.90625l.69531 1.01172m13.65625-.82422l-7.02734.1875m7.02734-.1875l1.20703 2.13281m-2.23047-2.10547l.60547 1.0664m13.73047-1.14452l-7.01953.29296m7.01953-.29296l1.24219 2.11718m-2.26563-2.07421l.6211 1.05859m13.67969-.41797l-6.94532-1.07813m6.94532 1.07813l.80468 2.32031m12.55078-2.89453l-7.02734.07031m7.02734-.0703l1.17579 2.15624m-2.19922-2.14453l.58984 1.07422m13.7461-1.16797l-7.02344.23828m7.02343-.23828l1.22657 2.125m12.08984-2.14844l-7.02344.28125m7.02344-.28125l1.23438 2.1211m-2.25782-2.07813l.6211 1.0586m13.71875-.96094h-7.02735m7.02735 0l1.15234 2.16797m-2.17578-2.16797l.57812 1.08594m13.73829-.6797l-6.98047-.8125m6.98047.8125l.89062 2.28516m12.35938-3.46093l-6.85547 1.54296m6.85547-1.54296l1.60156 1.85937m11.53515-2.42578l-6.49609 2.67578m6.4961-2.67578l1.89062 1.5625m11.2539-1.92188l-6.15234 3.39454m5.25781-2.90235l1.02735.67188m12.89062-1.60938l-5.5703 4.28516m4.7578-3.66406l1.1172.5078m11.45702-2.27733l-2.46484 6.58203m2.10547-5.625L439.01953 358m13.84766.15234l-5.24219 4.6797m5.24219-4.6797l2.30468.85157m11.28516-.5l-5.78906 3.98046m4.94531-3.40234l1.08984.5664"/><g clip-path="url(#Y)"><path fill="none" stroke="#000" stroke-linecap="round" stroke-linejoin="round" stroke-miterlimit="10" stroke-width=".5" d="M147.16797 345.65625l-6.33594 3.04297"/></g><path fill="none" stroke="#000" stroke-linecap="round" stroke-linejoin="round" stroke-miterlimit="10" stroke-width=".5" d="M147.16797 345.65625l1.97656 1.45313m11.51563-1.00391l-6.69141 2.14453m6.6914-2.14453l1.75782 1.71094m-2.73047-1.39844l.8789.85547m13.5625-.42188l-6.99609.65235m6.9961-.65235l1.34765 2.05078m-2.36719-1.95703l1.34766 2.05078m12.98828-1.53125l-7.0039-.57421m7.0039.57421l.97266 2.25391m-1.98828-2.33984l.48437 1.1289m13.85156-1.54297l-7.01171.42579m7.01172-.42579l1.28125 2.09375m-2.30079-2.03125l.64063 1.04688m13.67969-1.30469l-6.98047.8164m6.98047-.8164l1.39453 2.01563m-2.41016-1.89844l.69531 1.01172m13.63282-1.13281l-6.97657.82812m6.97657-.82813l1.39843 2.01563m-2.41406-1.89844l.69922 1.00781m13.65625-.71093h-7.02734m7.02734 0l1.15234 2.16406m12.16016-2.03125l-7.02344-.26953m7.02344.26953l1.0664 2.21094m12.23829-2.64063l-7 .58985m7-.58985l1.33203 2.0625m11.97265-1.375l-6.98046-.78125m6.98047.78125l.90625 2.28125m12.42187-2.40234l-7.00781-.53906m7.00781.53906l.98438 2.2461m12.30468-2.00391l-6.95312-1.02735m6.95312 1.02735l.82031 2.3125m12.52735-2.63672l-7.01953-.3789m7.01953.3789l1.03515 2.22265m-2.05859-2.27734l.51953 1.11328m13.8164-1.46094l-7.01562.4297m7.01563-.4297l1.28125 2.08985m11.96875-2.58203l-6.88281 1.41015m6.8828-1.41015l1.5625 1.89062m11.78517-1.69922l-6.94922 1.02735m6.94921-1.02735l1.45704 1.97656m-2.46875-1.82812l.73046.98828m13.625-.91015l-7.0039.57421m7.0039-.57421l1.32422 2.0625m-2.34375-1.98047l.66016 1.03125m13.64453-1.36329l-6.94531 1.07422m6.94531-1.07421l1.46875 1.96484m-2.48047-1.8086l.73438.98438m13.40234-1.85156l-6.5664 2.4961m6.5664-2.4961l1.84766 1.61328m-2.80078-1.25l.92187.8086m13.30078-1.28907l-6.47656 2.73047m6.47656-2.73047l1.90235 1.54688M426.92578 346l-6.6211 2.35547M426.92579 346l1.8125 1.65625m11.27344-2.16797l-6.16016 3.3789m5.26563-2.88671l1.02344.67187m13.0039-1.46093l-5.79687 3.97265m4.95312-3.39453l1.08985.57031m13.46875-.375l-6.59375 2.4297"/><g clip-path="url(#Z)"><path fill="none" stroke="#000" stroke-linecap="round" stroke-linejoin="round" stroke-miterlimit="10" stroke-width=".5" d="M466.85938 345.96484l1.82812 1.63282"/></g><g clip-path="url(#aa)"><path fill="none" stroke="#000" stroke-linecap="round" stroke-linejoin="round" stroke-miterlimit="10" stroke-width=".5" d="M144.21484 330.35547l-.42968 7.01562"/></g><g clip-path="url(#ab)"><path fill="none" stroke="#000" stroke-linecap="round" stroke-linejoin="round" stroke-miterlimit="10" stroke-width=".5" d="M144.15234 331.375l1.1172-.50781"/></g><path fill="none" stroke="#000" stroke-linecap="round" stroke-linejoin="round" stroke-miterlimit="10" stroke-width=".5" d="M158.48828 330.55078l-2.34766 6.625m2.00782-5.66015l1.21094-.1797m14.5625 1.30079l-6.58594 2.45312m6.58594-2.45312l1.83593 1.6289m11.67969-.02343l-6.98438-.75781m6.98438.7578l.91016 2.28126m-1.92578-2.39063l.45703 1.14063m13.89453-1.29297l-7.02344-.23438m7.02344.23438l1.07812 2.20312m12.1875-1.72265l-6.92578-1.19531m6.92578 1.1953l.76563 2.33204m-1.77344-2.5039l.38281 1.16406m13.96485-2l-6.97657.8203m6.97657-.8203l1.39843 2.01562m11.76563-2.70313l-6.67578 2.19532m6.67578-2.19531l1.76953 1.69921m11.69922-.99609l-6.98438.78906m6.98438-.78906l1.38672 2.02344m11.94531-1.4336l-7.01563-.39062m7.01563.39062l1.03125 2.22657m12.28125-2.21094l-7.01172-.42188m7.01172.42188l1.01953 2.23437m12.29297-2.18359l-7.00781-.52344m7.00781.52344l.98828 2.2461m12.24219-1.6875l-6.83594-1.64063m5.83985 1.40234l.30859 1.1875m13.83984-.45312l-6.51172-2.63672m5.56641 2.2539l.125 1.22266m13.94922-3.86328l-6.14063 3.41406m5.25-2.91797l1.02735.66797m12.8125-1.70312l-5.40625 4.48828m5.40625-4.48828l2.26953.9336m11.85547 1.34374l-7.02735-.0625m6.00391.05078l.5664 1.08985m13.76954-1.27344l-7.01953.32422m7.01953-.32422l1.25 2.11328m11.8164-3.2539l-6.52343 2.60937m6.52343-2.60938l1.875 1.58204m11.33594-1.8125l-6.3164 3.0703m5.39843-2.625l.99219.72266m13.36328-.88671l-6.5625 2.5078m5.60938-2.14452l.92578.80859m13.13281-1.6289l-6.14063 3.42187m6.14063-3.42188l2.0586 1.33204m10.98437-1.7422l-5.59766 4.2422m5.59766-4.2422l2.22656 1.03126m11.17188-.91797l-5.76563 4.01562m5.76563-4.01562l2.18359 1.11719m11.38672-.6875l-6.27735 3.15625"/><g clip-path="url(#ac)"><path fill="none" stroke="#000" stroke-linecap="round" stroke-linejoin="round" stroke-miterlimit="10" stroke-width=".5" d="M466.69922 332.28516l2.0039 1.41796"/></g><g clip-path="url(#ad)"><path fill="none" stroke="#000" stroke-linecap="round" stroke-linejoin="round" stroke-miterlimit="10" stroke-width=".5" d="M141.16406 318.47656l5.67188 4.14453"/></g><path fill="none" stroke="#000" stroke-linecap="round" stroke-linejoin="round" stroke-miterlimit="10" stroke-width=".5" d="M154.28125 318.77734l6.0664 3.54297m-6.0664-3.54297l.09766-2.45312m.78515 2.96875l.05078-1.22656m12.08203 1.36328l6.66407 2.23437m-6.66406-2.23437l-.40235-2.41797m13.53906 3.5l7.02344.07422m12.71484 1.92969l-5.82421-3.9336m4.97656 3.35938l-.1289 1.22265m14.24609-.58594l-5.73438-4.0625m5.73438 4.0625l-.3125 2.4336m13.52734-2.29688l-5.53125-4.33593m5.53125 4.33593l-.4336 2.41797m14.2422-3.27344l-6.51954-2.625m6.51953 2.625l.25782 2.44141m13.17968-2.79687l-6.76172-1.91016m6.76172 1.91016l.51953 2.39843m12.79297-2.39453l-6.7578-1.91797m6.7578 1.91797l.51563 2.39844m12.92969-3.5586l-7.01563.39844m7.01563-.39843l1.26953 2.10156m11.95703-1.09375l-6.83985-1.61328m5.84375 1.3789l.3125 1.1836m14.08204-1.48828l-7.00782-.53907m7.00782.53907l.98046 2.25m12.26172-1.76563l-6.86328-1.50781m6.86328 1.50781l.66016 2.36328m12.71875-3.46875l-6.99219.70313m6.99219-.70313l1.36328 2.03906m11.76953-2.85156l-6.6289 2.33203m6.6289-2.33203l1.8086 1.66016m11.55468-1.51563l-6.72265 2.03907m5.7461-1.7422l.86327.8711m13.54688-.64453l-6.95703.99219m5.9414-.84766l.72656.99219m12.73047-2.9961l-5.21093 4.71485m4.45312-4.03125l1.15234.41797m12.98438-1.02735l-5.33984 4.56641m4.5625-3.90234l1.14062.44922m10.78906-2.3086l-1.01562 6.95313m.86719-5.9414l1.15625-.41407m8.34375 2.23828l6.91015 1.28125m-5.90234-1.09375l-.3711-1.17188m13.17188-.26562l5.92578 3.78125m-5.0625-3.23047l.09766-1.22265m16.83203-.60547l-3.03125 6.33984m2.58984-5.41797l1.22656-.05469m13.46875-.21093l-4.91015 5.02734m4.19531-4.29688l1.17969.34375"/><path fill="#00f" fill-rule="evenodd" d="M383.80078 432.14063h8.61719v-10.14454h-8.61719v10.14454"/><path fill="azure" fill-rule="evenodd" d="M385.63281 423.82813h.83203v2.82421h3.28907v-2.82421h.83203v6.48046h-.83203v-2.91796h-3.28907v2.91796h-.83203v-6.48046"/><path fill="#00f" fill-rule="evenodd" d="M206.26563 396.63281h8.61718v-10.14453h-8.61719v10.14453"/><path fill="azure" fill-rule="evenodd" d="M208.09766 388.32031h.83593v2.82422h3.28516v-2.82422h.83203v6.48047h-.83203v-2.91406h-3.28516v2.91406h-.83593v-6.48047"/><path fill="#00f" fill-rule="evenodd" d="M370.48438 396.63281h8.62109v-10.14453h-8.6211v10.14453"/><path fill="azure" fill-rule="evenodd" d="M372.3164 388.32031h.83594v2.82422h3.28516v-2.82422h.83203v6.48047h-.83203v-2.91406h-3.28516v2.91406h-.83593v-6.48047"/><path fill="#ff3030" fill-rule="evenodd" d="M171.45313 378.88281h7.6914v-10.14844h-7.6914v10.14844"/><path fill="azure" fill-rule="evenodd" d="M173.28516 370.5664h.83593v5.7422h3.19141v.73827h-4.02734v-6.48046"/><path fill="#ffffe0" fill-rule="evenodd" d="M430.51172 457.20703h22.17969v-10.1914h-22.1797v10.1914"/><path fill-rule="evenodd" d="M434.01172 448.84766h.50781v6.29687h-.78515v-4.48828h-1.39063v-.5586l.5586-.0625.2539-.05468.23047-.08985.20312-.14062.17188-.21094.14453-.29297.10547-.39843m4.8125 0l.23047.01953.21875.0586.20703.08593.19531.1211.1836.15234.17187.17578.30469.41797.24219.49218.17968.54688.10938.58203.03906.58984-.03906.59375-.10938.58204-.17969.55468-.24218.5039-.30469.42579-.17188.17969-.18359.15234-.19531.125-.20703.09375-.21875.05469-.23047.01953-.23047-.01953-.21875-.05469-.20703-.09375-.19531-.125-.1836-.15234-.17187-.17969-.30469-.42578-.24219-.5039-.17969-.5547-.10937-.58203-.03906-.59375h.83203l.02734.5625.08203.50782.12891.4414.16016.375.1914.30078.21094.21875.22266.13672.22656.04688.22656-.04688.22266-.13672.21094-.21875.1914-.30078.16016-.375.1289-.4414.07813-.50782.03125-.5625-.03125-.5625-.07813-.5-.1289-.43359-.16016-.36719-.1914-.29297-.21094-.21484-.22266-.1289-.22656-.04688-.22656.04687-.22266.12891-.21094.21484-.1914.29297-.16016.36719-.1289.4336-.08204.5-.02734.5625h-.83203l.03906-.58985.10938-.58203.17968-.54688.24219-.49218.30469-.41797.17187-.17578.1836-.15235.1953-.1211.20704-.08593.21875-.0586.23047-.01952m4.95312 0l.23047.01953.21875.0586.20703.08593.19532.1211.18359.15234.17188.17578.30078.41797.24609.49218.17969.54688.10937.58203.03906.58984-.03906.59375-.10937.58204-.17969.55468-.2461.5039-.30077.42579-.17188.17969-.1836.15234-.1953.125-.20704.09375-.21875.05469-.23047.01953-.23046-.01953-.21875-.05469-.20704-.09375-.1953-.125-.1875-.15234-.16798-.17969-.30469-.42578-.24218-.5039-.17969-.5547-.11328-.58203-.03516-.59375h.83203l.02735.5625.08203.50782.1289.4414.16016.375.1914.30078.21094.21875.22266.13672.22656.04688.22657-.04688.22265-.13672.21094-.21875.1914-.30078.16016-.375.125-.4414.08203-.50782.03125-.5625-.03125-.5625-.08203-.5-.125-.43359-.16015-.36719-.19141-.29297-.21094-.21484-.22265-.1289-.22657-.04688-.22656.04687-.22265.12891-.21094.21484-.1914.29297-.16017.36719-.1289.4336-.08203.5-.02735.5625h-.83203l.03516-.58985.11328-.58203.17969-.54688.24219-.49218.30468-.41797.16797-.17578.1875-.15235.19531-.1211.20704-.08593.21875-.0586.23046-.01952m4.95313 0l.38672.03125.35937.08203.32031.13672.28125.1875.23047.23437.17188.28516.10937.33203.03907.3789-.02344.27344-.05469.23438-.08984.20312-.11328.16797-.12891.14453-.13672.1211-.28906.19921.23437.1172.20704.14843.17968.16797.15625.19531.1211.21485.09375.23046.05468.2422.01954.2578-.03516.3086-.10547.32422-.17188.32812-.23828.30469-.30468.26953-.375.21484-.21094.08204-.23047.05859-.24219.03906-.26172.01172-.26171-.01172-.2422-.03906-.22265-.0586-.20312-.08203-.35938-.21484-.28906-.26953-.22266-.30469-.16015-.32812-.08985-.32422-.03125-.3086h.83203l.02735.25.07812.23438.1211.21484.16015.1836.19531.15234.21875.11328.23829.07422.2578.02344.25392-.02344.24218-.07422.21875-.11328.1914-.15234.16017-.1836.125-.21484.07812-.23438.02344-.25-.02344-.2539-.07813-.23438-.125-.21484-.16015-.1836-.1914-.15234-.21876-.11328-.24219-.07422-.2539-.02344-.25781.02344-.23829.07422-.21875.11328-.1953.15235-.16016.18359-.1211.21484-.07812.23438-.02735.2539h-.83203l.01953-.2539.0547-.24219.08983-.22266.125-.20703.15235-.1914.1836-.17188.20702-.15625.23047-.1289-.28515-.19922-.14063-.1211-.1289-.14453-.11329-.16797-.08593-.20312-.0586-.23438-.01953-.27344h.78516l.02344.21485.0664.1914.10547.16407.13672.14062.16406.11328.1875.08204.20703.04687.22266.01953.21875-.01953.20703-.04688.1875-.08203.16797-.11328.13672-.14062.10156-.16406.0664-.19141.02344-.21485-.02343-.21484-.06641-.1914-.10156-.16407-.13672-.14062-.16797-.11328-.1875-.08204-.20703-.04687-.21875-.01953-.22266.01953-.20703.04688-.1875.08203-.16406.11328-.13672.14062-.10547.16406-.0664.19141-.02344.21485h-.78516l.03906-.37891.10547-.33203.17578-.28516.23047-.23437.27735-.1875.32421-.13672.35938-.08203.38672-.03125"/><path fill="#ffffe0" fill-rule="evenodd" d="M346.1836 366.94922h22.17968v-10.1914H346.1836v10.1914"/><path fill-rule="evenodd" d="M349.6836 358.58984h.5078v6.29688h-.78906v-4.48828h-1.38671v-.5586l.55859-.0625.2539-.05468.23047-.08985.20313-.14062.17187-.21094.14063-.29297.10937-.39844m4.8125 0l.23047.01954.21875.05859.20703.08594.19532.12109.18359.15234.17188.17579.30078.41796.24609.4922.17969.54687.10937.58203.03906.58984-.03906.59375-.10937.58203-.17969.55469-.2461.5039-.30077.42579-.17188.17969-.1836.15234-.1953.125-.20704.09375-.21875.05469-.23047.01953-.23046-.01953-.21875-.0547-.20704-.09374-.1953-.125-.1875-.15235-.16798-.17968-.30469-.42578-.24218-.50391-.17969-.55469-.11328-.58203-.03516-.59375h.83203l.02735.5625.08203.50781.1289.44141.16016.375.1914.30078.21094.21875.22266.13672.22656.04688.22657-.04688.22265-.13672.21094-.21875.1914-.30078.16016-.375.125-.4414.08203-.50782.03125-.5625-.03125-.5625-.08203-.5-.125-.4336-.16015-.36718-.19141-.29297-.21094-.21484-.22265-.1289-.22657-.04688-.22656.04687-.22265.1289-.21094.21485-.1914.29297-.16017.36719-.1289.4336-.08203.5-.02735.5625h-.83203l.03516-.58985.11328-.58203.17969-.54688.24219-.49219.30468-.41796.16797-.17579.1875-.15234.19531-.1211.20704-.08593.21875-.0586.23046-.01953m5.08985 0h.51172v6.29688h-.78907v-4.48828h-1.38671v-.5586l.55859-.0625.2539-.05468.22657-.08985.20312-.14062.17578-.21094.14063-.29297.10547-.39844m2.82422 2.17579h.78515l.02344-.31641.0586-.28516.09765-.2539.14063-.21485.17968-.17187.22266-.1289.26562-.08204.3086-.02734.23828.02343.22265.0625.20704.10157.17578.13671.15234.17188.11328.20703.07031.23828.02344.26172-.01953.26953-.0664.22656-.10938.19141-.15625.16797-.19922.16406-.25.16797-.63281.38672-.53906.3125-.4375.3164-.34375.32423-.26563.33593-.1914.35156-.125.3711-.06641.39453-.02344.41797h4.21485v-.74219h-3.33204l.08204-.28125.11328-.23828.14843-.20313.1875-.17968.23047-.17188.27735-.17578.71875-.41406.41406-.20703.34765-.23047.28125-.25.21875-.26953.16407-.27735.10937-.28125.0625-.28515.02344-.28125-.04297-.38672-.1211-.34766-.1875-.30469-.25-.26562-.30468-.21094-.34375-.16015-.38281-.09766-.40625-.03516-.4336.03516-.39843.09766-.35547.16796L363 359.125l-.2461.30078-.1875.375-.11718.44922-.03906.51563"/><path fill="#ffffe0" fill-rule="evenodd" d="M190.83984 344.4414h22.1797V334.25h-22.1797v10.1914"/><path fill-rule="evenodd" d="M194.33984 336.08203h.50782v6.29688h-.78516v-4.4922h-1.39063v-.55468l.5625-.0664.25-.05079.23047-.08984.20313-.14453.17578-.20703.14063-.29688.10546-.39453m4.8125 0l.23047.01953.21875.05469.20703.08984.19532.1211.1875.14844.16797.17578.30468.42187.24219.49219.17969.54687.11328.57813.03516.59375-.03516.58984-.11328.58594-.17969.55469-.24219.5-.30469.42969-.16796.17968-.1875.15235-.19532.125-.20703.08984-.21875.0586-.23047.01952-.23047-.01953-.21875-.05859-.20703-.08984-.1953-.125-.1836-.15235-.17188-.17969-.30078-.42968-.2461-.5-.17968-.55469-.10938-.58594-.03906-.58984h.83203l.03125.5625.08203.5039.125.44532.16016.3711.1914.30077.21095.22266.22265.13672.22656.04687.22657-.04687.22265-.13672.21094-.22266.1914-.30078.16016-.3711.1289-.4453.08204-.50391.02734-.5625-.02734-.5625-.08203-.5-.1289-.4375-.16016-.36328-.19141-.29297-.21094-.21485-.22265-.1328-.22657-.04298-.22656.04297-.22266.13281-.21093.21485-.1914.29297-.16017.36328-.125.4375-.08203.5-.03125.5625h-.83203l.03906-.59375.10938-.57813.17969-.54687.2461-.49219.30077-.42187.17188-.17579.1836-.14843.1953-.1211.20703-.08984.21875-.05469.23047-.01953m5.09375 0h.50782v6.29688h-.78907v-4.4922h-1.38672v-.55468l.5586-.0664.2539-.05079.23047-.08984.20313-.14453.17187-.20703.14063-.29688.10937-.39453m2.82032 2.17578h.78906l.01953-.3164.0586-.28516.09765-.2539.14063-.21485.18359-.17578.22266-.1289.26562-.07813.3086-.02735.23437.01954.22656.0625.20313.10156.17968.14062.14844.17188.11328.20703.07031.23437.02735.26563-.02344.26953-.0664.22266-.10938.1914-.15625.17188-.19922.16406-.2461.16406-.63671.39063-.53516.3125-.4375.3164-.34765.32422-.26563.33594-.1875.35156-.125.3711-.07031.39062-.01953.42188h4.21094v-.7422h-3.33204l.08203-.28515.11329-.23437.14843-.20313.1875-.17969.23047-.17187.28125-.17578.71485-.41797.41406-.20313.34766-.23046.28125-.25391.21875-.26563.16406-.27734.10937-.28515.0664-.28516.01954-.28125-.04297-.38281-.1211-.34766-.1875-.3086-.25-.26171-.30468-.21485-.34375-.15625-.3789-.09765-.40626-.03516-.4375.03125-.39843.10156-.35547.16407-.30469.23437-.2461.30469-.1875.375-.11327.44531-.04297.51953"/><path fill="#ffffe0" fill-rule="evenodd" d="M221.16016 410.17969h22.17968v-10.1914h-22.17968v10.1914"/><path fill-rule="evenodd" d="M224.65625 401.82031h.51172v6.29688h-.78906v-4.48828h-1.38672v-.5586l.5586-.0625.2539-.05469.22656-.08984.20703-.14062.17188-.21094.14062-.29297.10547-.39844m4.8164 0l.22657.01953.21875.0586.21094.08594.1953.12109.1836.15234.17188.17578.30078.41797.2461.49219.17968.54688.10938.58203.03906.58984-.03906.59375-.10938.58203-.17969.55469-.2461.5039-.30077.42579-.17188.17968-.1836.15235-.1953.125-.21094.09375-.21875.05469-.22656.01953-.23047-.01954-.21875-.05468-.20703-.09375-.19922-.125-.1836-.15235-.17187-.17968-.30078-.42579-.24219-.5039-.17969-.55469-.11328-.58203-.03516-.59375h.83204l.02734.5625.08203.5039.125.44532.16406.375.19141.30078.21094.21875.22265.13672.22657.04687.22656-.04687.22266-.13672.21093-.21875.1875-.30078.16406-.375.125-.44531.08204-.50391.03125-.5625-.03125-.5625-.08203-.5-.125-.4336-.16407-.36718-.1875-.29297-.21094-.21484-.22265-.12891-.22656-.04688-.22657.04688-.22265.1289-.21094.21485-.1914.29297-.16407.36719-.125.43359-.08203.5-.02734.5625h-.83203l.03515-.58984.11328-.58204.17969-.54687.24219-.49219.30078-.41797.17187-.17578.1836-.15234.19922-.1211.20703-.08593.21875-.0586.23047-.01953m5.08984 0h.50781v6.29688h-.78515v-4.48828h-1.38672v-.5586l.5586-.0625.25-.05469.23046-.08984.20313-.14062.17578-.21094.14062-.29297.10547-.39844m2.82422 2.17578h.78516l.01953-.3164.0625-.28516.09765-.2539.14063-.21485.17969-.17187.22265-.12891.26563-.08203.30859-.02735.23828.02344.22266.0625.20703.10156.17578.13672.14844.17188.11328.20703.07422.23828.02344.26172-.01954.26953-.0664.22266-.10938.19531-.15625.16797-.20312.16406-.2461.16406-.6328.39063-.53907.3125-.4375.3164-.34375.32422-.26563.33594-.1914.35156-.125.3711-.0664.39453-.02345.41797h4.21485v-.74219h-3.33203l.08203-.28125.11328-.23828.14844-.20313.1875-.17968.23047-.17188.27734-.17578.71875-.41406.41406-.20703.34766-.23047.27734-.25.22266-.26953.16406-.27735.10938-.28515.0625-.28125.01953-.28125-.03907-.38672-.12109-.34766-.1875-.30469-.2539-.26562-.30079-.21094-.34375-.16015-.38281-.09766-.40625-.03516-.4336.03516-.39843.09765-.35547.16797-.30469.23438-.25.30078-.1836.375-.11718.44922-.03906.51562"/><path fill="#ffffe0" fill-rule="evenodd" d="M151.28125 454.5664h22.17969v-10.1953h-22.17969v10.1953"/><path fill-rule="evenodd" d="M154.78125 446.20703h.50781V452.5h-.78515v-4.48828h-1.39063v-.55469l.5586-.0664.2539-.0547.23047-.08984.20313-.14062.17187-.21094.14453-.29297.10547-.39453m4.8125 0l.23047.01563.21875.05859.20703.08984.19531.1211.1836.14844.17187.17578.30469.41796.24219.4961.17968.54297.10938.58203.03906.58984-.03906.59375-.10938.58203-.17968.5547-.2422.5039-.30468.42578-.17187.17969-.1836.15625-.19531.12109-.20703.09375-.21875.05469-.23047.01953-.23047-.01953-.21875-.05469-.20703-.09375-.19531-.1211-.1836-.15624-.17187-.1797-.30469-.42577-.24219-.5039-.17968-.5547-.10938-.58203-.03906-.59375h.83203l.02734.5625.08203.50781.12891.44141.16016.375.1914.30078.21094.22266.22266.13672.22656.04687.22656-.04687.22266-.13672.21094-.22266.1914-.30078.16016-.375.1289-.4414.07813-.50782.03125-.5625-.03125-.5625-.07813-.5-.1289-.4336-.16016-.36718-.1914-.29297-.21094-.21484-.22266-.1289-.22656-.04688-.22656.04687-.22266.1289-.21094.21485-.1914.29297-.16016.36719-.1289.4336-.08204.5-.02734.5625h-.83203l.03906-.58985.10938-.58203.17968-.54297.2422-.4961.30468-.41796.17187-.17579.1836-.14843.19531-.1211.20703-.08984.21875-.0586.23047-.01562m5.08984 0h.51172V452.5h-.78906v-4.48828h-1.38672v-.55469l.5586-.0664.2539-.0547.22656-.08984.20313-.14062.17578-.21094.14063-.29297.10546-.39453m2.82422 2.17188h.78906l.01954-.3125.05859-.28907.09766-.25.14062-.21875.17969-.17187.22656-.1289.26172-.08204.3086-.02734.23827.02344.22266.0625.20703.10156.17969.13672.14844.17578.11328.20312.07031.23828.02344.26172-.01953.26953-.0664.22657-.10938.1914-.15625.17188-.19922.16015-.25.16797-.63281.38672-.53516.3125-.4375.32031-.34766.32422-.26562.33594-.1875.34766-.125.37109-.07031.39453-.01954.41797h4.21094v-.74219H168.25l.08203-.28125.11328-.23828.14844-.19922.1875-.1836.23047-.16796.27734-.17578.71875-.41797.41406-.20703.34766-.23047.28125-.25.21875-.26563.16406-.28125.10938-.28125.0664-.28515.01954-.28125-.04297-.38281-.1211-.34766-.1875-.3086-.25-.26562-.30468-.21094-.34375-.16015-.38282-.09766-.40625-.03125-.43359.03125-.39844.09766-.35547.16797-.30468.23437-.2461.30469-.1875.375-.11719.44531-.03906.51563"/></g></defs><use xlink:href="#ae"/></svg>