<svg xmlns="http://www.w3.org/2000/svg" role="img" xmlns:xlink="http://www.w3.org/1999/xlink" viewBox="142.45 309.95 326.84 171.84"><defs><clipPath id="a"><path d="M144 451h1v29.32813h-1zm0 0"/></clipPath><clipPath id="b"><path d="M144 311.67188h1V447h-1zm0 0"/></clipPath><clipPath id="c"><path d="M144 311.67188h324v168.65625H144zm0 0"/></clipPath><clipPath id="d"><path d="M467 463h1v17.32813h-1zm0 0"/></clipPath><clipPath id="e"><path d="M467 311.67188h1V463h-1zm0 0"/></clipPath><clipPath id="f"><path d="M144 479h4v1.32813h-4zm0 0"/></clipPath><clipPath id="g"><path d="M147 480h2v.32813h-2zm0 0"/></clipPath><clipPath id="h"><path d="M153 479h8v1.32813h-8zm0 0"/></clipPath><clipPath id="i"><path d="M160 480h2v.32813h-2zm0 0"/></clipPath><clipPath id="j"><path d="M166 479h9v1.32813h-9zm0 0"/></clipPath><clipPath id="k"><path d="M173 480h2v.32813h-2zm0 0"/></clipPath><clipPath id="l"><path d="M180 479h8v1.32813h-8zm0 0"/></clipPath><clipPath id="m"><path d="M187 480h2v.32813h-2zm0 0"/></clipPath><clipPath id="n"><path d="M193 479h9v1.32813h-9zm0 0"/></clipPath><clipPath id="o"><path d="M200 480h3v.32813h-3zm0 0"/></clipPath><clipPath id="p"><path d="M206 479h9v1.32813h-9zm0 0"/></clipPath><clipPath id="q"><path d="M213 480h3v.32813h-3zm0 0"/></clipPath><clipPath id="r"><path d="M220 479h8v1.32813h-8zm0 0"/></clipPath><clipPath id="s"><path d="M227 480h2v.32813h-2zm0 0"/></clipPath><clipPath id="t"><path d="M233 479h8v1.32813h-8zm0 0"/></clipPath><clipPath id="u"><path d="M240 480h2v.32813h-2zm0 0"/></clipPath><clipPath id="v"><path d="M246 479h9v1.32813h-9zm0 0"/></clipPath><clipPath id="w"><path d="M252 480h2v.32813h-2zm0 0"/></clipPath><clipPath id="x"><path d="M260 479h8v1.32813h-8zm0 0"/></clipPath><clipPath id="y"><path d="M266 480h1v.32813h-1zm0 0"/></clipPath><clipPath id="z"><path d="M273 478h8v2.32813h-8zm0 0"/></clipPath><clipPath id="A"><path d="M287 477h7v3.32813h-7zm0 0"/></clipPath><clipPath id="B"><path d="M300 478h8v2.32813h-8zm0 0"/></clipPath><clipPath id="C"><path d="M305 480h2v.32813h-2zm0 0"/></clipPath><clipPath id="D"><path d="M314 477h6v3.32813h-6zm0 0"/></clipPath><clipPath id="E"><path d="M329 476h3v4.32813h-3zm0 0"/></clipPath><clipPath id="F"><path d="M341 477h6v3.32813h-6zm0 0"/></clipPath><clipPath id="G"><path d="M354 477h6v3.32813h-6zm0 0"/></clipPath><clipPath id="H"><path d="M367 477h6v3.32813h-6zm0 0"/></clipPath><clipPath id="I"><path d="M381 477h5v3.32813h-5zm0 0"/></clipPath><clipPath id="J"><path d="M394 477h6v3.32813h-6zm0 0"/></clipPath><clipPath id="K"><path d="M407 477h7v3.32813h-7zm0 0"/></clipPath><clipPath id="L"><path d="M421 477h6v3.32813h-6zm0 0"/></clipPath><clipPath id="M"><path d="M436 476h2v4.32813h-2zm0 0"/></clipPath><clipPath id="N"><path d="M449 476h2v4.32813h-2zm0 0"/></clipPath><clipPath id="O"><path d="M463 476h1v4.32813h-1zm0 0"/></clipPath><clipPath id="P"><path d="M144 466h4v2h-4zm0 0"/></clipPath><clipPath id="Q"><path d="M144 451h4v5h-4zm0 0"/></clipPath><clipPath id="R"><path d="M144 438h4v5h-4zm0 0"/></clipPath><clipPath id="S"><path d="M144 425h4v4h-4zm0 0"/></clipPath><clipPath id="T"><path d="M144 412h4v4h-4zm0 0"/></clipPath><clipPath id="U"><path d="M466 411h2v2h-2zm0 0"/></clipPath><clipPath id="V"><path d="M144 399h4v3h-4zm0 0"/></clipPath><clipPath id="W"><path d="M465 397h3v2h-3zm0 0"/></clipPath><clipPath id="X"><path d="M144 385h4v4h-4zm0 0"/></clipPath><clipPath id="Y"><path d="M466 384h2v3h-2zm0 0"/></clipPath><clipPath id="Z"><path d="M465 385h3v3h-3zm0 0"/></clipPath><clipPath id="aa"><path d="M144 372h4v4h-4zm0 0"/></clipPath><clipPath id="ab"><path d="M465 370h3v2h-3zm0 0"/></clipPath><clipPath id="ac"><path d="M144 357h3v7h-3zm0 0"/></clipPath><clipPath id="ad"><path d="M465 357h3v2h-3zm0 0"/></clipPath><clipPath id="ae"><path d="M144 343h1v8h-1zm0 0"/></clipPath><clipPath id="af"><path d="M144 343h2v2h-2zm0 0"/></clipPath><clipPath id="ag"><path d="M465 344h3v2h-3zm0 0"/></clipPath><clipPath id="ah"><path d="M144 331h4v6h-4zm0 0"/></clipPath><clipPath id="ai"><path d="M465 330h3v2h-3zm0 0"/></clipPath><clipPath id="aj"><path d="M144 318h4v5h-4zm0 0"/></clipPath><clipPath id="ak"><path d="M466 318h2v2h-2zm0 0"/></clipPath><g id="al" clip-path="url(#clip1)"><path fill="#fff" fill-opacity="0" fill-rule="evenodd" d="M0 0h1000v1000H0zm0 0"/><path fill="#d3d3d3" fill-opacity="0" fill-rule="evenodd" d="M162.15234 355.86719l-.23437.29297.0586.23437.11718.17188.17578.23437.29297.34766.11328.0586.11719-.17188.0586-.23438.17577-.17578.46485-.17578h.69922l.23437.29297.28906.8164.0586.17579.17578.23046.35156.23438.69922.69922.17188.17578.23437.34765.23438.41016.28906.58203.41015.46485.23047.23437.23438.17578.11719.23047.17578.29297.17187 1.16406v.23438l.0586.28906.05859.11719.11719.11719.34765.41015.11719.17188.17578.17578.17578.23437.11719.17188.17188.35156.05859.23438.23437.40625.23438-.0586-.17578.17578-.0586.92969h-.58203l-.23437-.11328-.34766.11328-.11719.11719-.05859.29297-.0586.17578-.11718.17187-.46484.29297-.0586.23438-.0586.11328v.64453l.0586.17187v.41016l.0586.0586v.40624l.05859.40625.11719.17579.05859.05859.23047.64062-.0586.29297v.69922l-.05859.58203v.23438l-.0586.23047-.05468.35156v1.92187l.05469.1172h.42578l-.36719.11718-.02344.35156.89063 1.16797 1.74219.53906 1.33984.35938v.53906l.08984.8086.53516.71484 1.51953.26953.89063-.08594.08984 1.16406.53516.1797 1.16015-.1797 2.05469-.98437 1.16016-.36328 1.8789-.17578 1.69531-.1797-.17968.71876-1.51563.08594-1.25.08984-.80469.26953-1.07421.8086.26953.71875.53515.89843-.17968.625-.26563.8086.26563 1.07812.625.89844.80468.17969 1.25-.1797-.26562.72267.09766.5039.05468.29297v.17188l.0586.29296v.40625l.17578.1172.35156.11718h.40625l.29297-.17578.11328-.11719.0586-.11719.11718-.23047.0586-.17578.35156-.46484.23047-.17578.17578-.0586.17578.0586.0586.17578.11718.98828.05469.46875.0586.17188.11718.23437.17578.0586.8164.05859h.28907l.11719.23437.05859.40625.0586.35156v1.10547l.11718.29297.11719.34766.28906.69922.17578.35156.58203.7539.35157.17579.17187.0586.46875.23437.64063.46484.34765.23438.29297.17578.29297.05468.23047.0625.8164.34766.29297.17578.11328.17188.35157.35156.11719.17578.52343.64063v.28906l.0586.35156v.34766l.05859.35156.0586.28906.11718.0586.17188.05859h.17578l.58203.23437.17578.1172.17578.28905.17578.23438.11328.23437.29297.23047.11719.11719v.41016l.0586.05468.28906.23438.23437.11719.0586.11718.11718.17188.0586.11719.23047.23437.05859.17578.23437.0586.1172.05859-.1172.11328-.05859.11719v.11719l-.11719.29296-.11719.28907v.58203l.17579.11719.11718.05859.0586.11719.11719.11719.11328.05859.17578.34765.0586.35157.05858.40625v.17578l-.05859.17578-.11719.69922v.17187l.1172.17579.29296.29296h.40625l.17578.1172.11719.17187.11719.29296v.23438h-.52735l-.23047-.23438h-.23437l-.17578.0586-.0586.69922.0586.34765.11719.17579.17578.41015.11718.23047.28907.46875.17578.05469h.52344l.23437.0586.75781.64062.0586.29296v.23438l.05859.0586.23047.34765v.35156l-.11719.17188v.29297l.29297.28906.29297.17578.17187.0586.29297.17577.29297.1172.58203.40624.28906.23438.29297.17578.21875.16015.01563.01172.23047.17579.64062.52343.17578.23438.1172.17578.17577.17578.11328.17188v.64062l.1172.17578.46874.11719.58203.11719.23438.05859.23047.11328.29297.11719.11328.0586.58593.35156.28907.17187.17578.0625.17578.05469.17578.0586.69922.35155.28906.17579.23438.05468.28906.17578.23437.1172.64063.40624.29297.11719.17187.0586.23438.05859.41015.05859.23047.0586.23438.11718.0586.17188-.41017.17578.46875.0586.0586.29296.11328.23438.17578.05468.23438.0586.17578.05859.40625.11719.64062.23437.11719.17188.0586.23437v.17578l-.0586.1172-.0586.40624.23438.23438.11719.05859.34766.11719.64062.23047.17578.11718.28906.1172.17578.17577.23438.46485.58203 1.10546.17578.17579.34766.17578.17578.11719.35156.11718 1.04688.52344.23437.0586.46485.11327.29297.0586.46484.17578.75781.58203.23438.23438.34765.46484.17578.17578.28907.23438.8164.69921.29297.17579.28906.28906.29297.17578.29297.28906.69531.64063.17578.17578.29297.23437.28907.23438.46875.28906.64062.58203.34766.23438.23437.29297.34766.34765.35156.46485.9336.99218.34765.40625.11719.17579.23437.05859.11328.11719.64454.17578.23047.11328.23437.0586.29297.17577.23047.1172.9336.69921.40624.40625.23438.17578.40625.17578.23437.11719.8164.34766.34766.23437.23438.11719.29297.28906.23047.11719.7578.35156.35157.17188.23047.05859.29297.11719.23437.0586.8711.17577h.8164l.46875.23047.17188.0586.875.69921.46484.1172.29297.05858.17578.0586.23047.0586.46875.05859.34766.05859.35156.0586.40625.05859h.29297l.17187.0586v.23046l.17578.17578h.29297l.34766.0586.35156.05859.69922.11719h.64063l.46484-.23438.29297-.17578.17187-.11719.41016-.17187.28906-.17578.9336-.46485.46875-.29297.52343-.29296.46485-.17188.46484-.17578 1.05078-.46485.28906-.11718.41016-.11719.28906-.11719.52735-.17578 1.51562-.69922.58203-.34765.28907-.0586.29297-.0586.34765-.11718.875-.23047.35156-.11719h.11329l.23437-.05859.875-.23437.23438-.0586h.8125l.35156-.0586.8164-.11718.17188-.0586.35156-.05468.29297-.0586.23047-.05859.8164-.17578.17579-.0586h.34765l.23438-.05859.46484-.11718.75781-.17188.23438-.0586h.34765l.41016-.11718.28906-.0586 1.28516-.05859h.28906l.41016-.0586.23047-.05858h.17578l.875-.1172h.40625l.41015-.11718h.34766l.35156-.11328.8711-.0586h1.75l1.04687.28907.41016.11719.28906.11718.35156.11719.28907.11719 1.05078.17187.28906.0586h.29297l.29297.05859.17187.0586.41016.05859.17187.0586.1172.05858h.11718l.11719.0586.35156.0586h.11328l.41016.0664 1.92187.39453 1.92578.39453 1.51953.44922 1.69532.71875 2.14453.80469 1.60547-.71875 1.42968-.80469 1.16016-1.07813 1.25-.44921 3.03516-.71875 1.875-.35938 2.14453-1.34765 2.23437-1.25391 2.5-1.25781 1.69531-.44922 1.78516-.17969 1.16016-.26953.625.53906 1.33984-.26953.71485-.98828.98437-1.34375.44531-.17969.80469-.35937 1.875-.53907 1.78516-.44921 1.25-.26954 1.16015-.08984 1.69922-.08984 1.96094-.26954 1.25-.08984h.53906l.625-.08984h.89063l2.14453-.17969 2.41015-.17969 2.58985-.08984 1.69531.17969 1.60938.08984 1.42968.35938 1.16016.71875 1.875.98828 1.16015 1.52734.26563.71484.6289.08985.35548.89844.53515.53906.53516 1.52734 1.07422.35938h.53515l-.80469.53515.08985 1.70703.71484 2.69532.89063.80468.89453.98829.71484 1.2578 1.78516.53907 1.51953-.17969.35547 1.34375 1.60937-.80469.98047-.53906.26953.26953.31641-.21484.21875-.14453.80078.44922.44922-.35938h.35547l.53515-.26953.53907-.71875.53515-.26953.625-.98828 1.16016.44922.83984.3711 1.39454.61718 1.6953-.17969h1.60548l1.78515.08985.17969-1.70704.53516-1.34375.80468.26954.4922.84765.40233.40625-.08984.53906v.35938l.71485.44922.71093-.26953h1.42969l.35938.98828.4453 1.25781.71485 1.34375 1.25.6289 1.69531.62891.71485-.17969.17969-.53906.98046-.08984.44922.35937.08594 1.25782-.26563.6289-.53515.17969v.53906l.71484.98438.26563.53906.98437.98828.80078 1.07813-.26562.35937-.08985.89844-.625 2.33203-.35546 2.0664-.08985 1.79298-.17969.71875-.08984.53906v1.4375l-.98047 1.88281-.35937 1.70703-.53516.89844-.80469 1.16797-.26562.53906 2.05469 1.2539.08593.35938-.35546.53906-.08985-.17968v.80859l.08985 1.4375-.44532.71484-1.07422.09375-.26562.71485.53515.89844.8047.71875 1.16015.80859 1.33984.26953.44531.35938-.35546.44921-1.78907-.08984-1.25-.44922-.71484-.71875-.625-.08984-.17578 3.58984-.1875 1.3086h89.35937V311.70313h-55.26953v49.08203l.76172.125 3.28906.54296 2.02344 2.83594v2.7539l2.35156.33204 2.34766.33203h4.05078l-1.3789 4.16016-2.02344.70703-2.02344.70312-.54297.34375-2.59375 1.6172-.1875.11718-2.02344-2.07813-.73046-2.74218-2.67188-2.07813-1.375-3.5-.0664-.08203-1.95704-2.67188 2.75-1.41796v-49.08204H294.42187v91.41407l.1172.03125.1328.01172.07422.07421.10547.04688.08985.0586.08593.05859.08985.0586.29687.29687.0586.08984.03125.11719.02734.11719.01563.13671-.03125.1172-.0586.08983-.0586.08594-.04296.10547-.04688.10156-.02734.1211v.14453l.17578.26953.14844.14844.07422.08594.07422.07421.04296.10547.0625.08985.0586.08593.04297.10547.0586.08985.04687.10156.04296.10547.0586.08594.11719.17968.07421.07422.0625.08594.0586.08984.04297.10547.0586.08985.05858.08593.0625.08985.0586.08984.04297.10156.11719.17969.07421.07422.0586.08594.07422.07421.08984.0586.10547.04687h.14844l.1328-.01562.13282.01562.10156-.04687.07422-.07422.04688-.10156-.01563-.13281v-.14844l-.04687-.10547-.02735-.11719-.04687-.10156-.02735-.1211-.04296-.10156-.0625-.08984-.04297-.10156-.04297-.10547-.03125-.11719-.01563-.13281-.01171-.13672.08593-.0586.0586-.08593.12109-.03125.04297.10547.01562.1328v.1172l.0586.10156.0586.08984.08983.0586.14844.14843.0586.08985.04296.10547-.01171.10156.08593.0586.10547.04687.08594.0586.08984.05858.07422.07422-.11719.02735-.10546.04687-.08594.0586-.07422.07421-.0586.08985-.0625.08594-.02734.12109-.04687.10156-.04297.10547-.03125.11719-.01172.13281-.01563.13281v.14844l.02735.11719.04687.10547.04297.10156.0586.08984.07421.07422.08985.0586.07422.07421.08984.0586.0586.08984.04296.10547.04688.10156.11719.03125.1328.01563h.14845l.11718-.03125.10547.04297.04297.10547.04688.10156.02734.1211L299.5 410l.02734.11719.03125.1211.02735.11718.10547.04297.10156.04687.13281-.01562.14844.14844.0625.08593.07422.07422.07031.07422.08984.0625.10547.04297.10156.04297.1172.03125.13671.01562.11719-.03125.07422-.07422.02734-.11718-.01172-.13282-.03125-.12109-.02734-.11719.04297-.10547h.11719l.08984.0625.11719.02735h.14843l.13282.01562h.14843l.13282.01563.1328-.01563h.14845l.1328-.01562.13282-.01172.13672.01172.11719-.02735.13281-.01562.1914-.0586-.05859.17579-.01562.1328-.02735.1211-.01562.13281-.0586.08594-.1328.01563-.10548.04687-.10546.04297-.1172.03125-.11718.02735-.26563.03125h-.14843l-.13281.01562-.07422.07422.05859.08594.14844.14843.11719.1797.07421.0703.08985.0625.08984.0586.08594.0586.08984.05858.10156.04297.10547.0625.10547.04297.08594.0586.10547.04687.10156.04297.17969.11719.0586.08984-.04298.10156-.04687.10547.01562.13281.22266.22266.0586.08985.04296.10156.03125.1211.04297.10155.01563.13282.03125.11718.01171.13672.03125.11719.14844.14844.10156.04297.10547.04296.1172.03125.1328.01563.13672.01563h.11719l.11719-.03125.08984-.0586.04297-.10547.04688-.10156.04296-.10547.03125-.11719.01172-.1328v-.14845l-.01172-.1328-.01562-.13282-.03125-.11719-.04297-.10547-.04688-.10547-.04296-.10156-.04297-.10547-.01563-.13281.01563-.13281.02734-.11719.03125-.11719.02735-.1211.04687-.10155.08984-.0586.08594-.0625.07422-.07422.08984-.05859.22266-.22266.0586-.08593.07421-.07422.11719-.17969.0586-.08594v-.14844l-.07423-.07421-.10156-.04688-.10547-.04297-.10156-.04297-.0586-.08984-.04687-.10547-.02734-.11719.08984-.05859.11719-.03125.10156-.04297.17969-.11719.14844-.14843.01172-.13282-.01172-.10546-.08985-.0586-.1328.01563h-.14845l-.1328.01562-.13282-.01562-.1211-.03125-.08593-.0586-.07422-.07422-.0586-.08984-.0625-.08594-.11718-.17969-.0586-.08593.03125-.1211.08594-.05859.1211-.03125.05859-.08594v-.1211l-.03125-.11718-.0586-.08984-.05859-.08594-.04687-.10547-.02735-.11719-.01562-.1328.0586-.08985.07421-.07422.08984-.0586.1172-.17968.07421-.07422.0586-.08594.14843-.14844.1211-.03125.1328-.01562.13282.01562.07422.07422.04297.10547.01562.13281-.03125.1172-.11719.03124-.1328.01172-.14844.14844-.04297.10547-.04688.10156-.02734.1211-.03125.11718v.14844l.03125.11719.04297.10546.05859.08985.07422.07031.07422.07422.11719.03125.12109.02734.11719-.02734.1328-.01563h.1172l.08984.0586.07422.07422.04687.10546.0586.08594.10156.04688.13281.01562.10547.04297.08594.0586-.01172.10546-.07422.07422-.17969.11719-.05859.08984-.08984.0586-.07032.07422-.07421.07421-.0625.08985-.02735.11719-.01562.1328.01562.13282-.01562.13281v.14844l.01562.13281.02735.1172.03125.12108.07421.07422.08985.0586.08594.0586.08984.05858.11719.03125v.08594l-.10157.04688-.08984.0586-.26563.03124-.11718.02735h-.14844l-.10547.04296-.10156.04688-.0586.08984-.0625.23438-.01171.13281-.03125.1211-.01563.1328v.29298l-.01172.1328.01172.13673.01563.1328.1328.01563.13282.01172.1211.03125.08593.0586.07422.07421.04688.10547.04296.10157.01563.1328v.44532l-.01563.13281v.44532l.03125.26562.02735.11719.01562.13281.03125.11719.08594.21094.03125.26562v.14844l-.03125.11719-.02734.11718-.03125.1211-.02735.11719-.03125.11718-.03125.1211-.01171.1328-.01563.13282.08984.0586.1172-.03125.10155.01562.04688.10547-.03125.26562v.44141l-.04297.10547-.04688.10547-.04296.10156-.04297.10547-.0586.08594-.03125.12109-.04296.11719-.03125.11719-.01563.1328.01563.13282.05859.08984.10547.04688.08594.0586.05859.08593-.01172.13672-.03125.11719-.04297.10156v.44531l-.01562.13281v.14844l-.03125.11719-.04297.10547-.02735.11719-.04687.10546-.04297.10157-.03125.12109-.02734.11719-.03125.13281-.03125.11719-.02735.11719-.04297.10546-.03125.1172-.03125.12108-.01171.13282-.01563.13281v.29688l.02734.11718v.14844l.04688.39844.02734.11719.0586.08984.12109.03125h.14844l.13281-.01563.0586.08985v.11719l-.0586.08984-.08984.0586-.10157.04296-.10546.04688-.08985.05859-.08594.0586-.13671.01562-.1172-.03125-.1328-.01563-.10157.04688-.0625.08594-.01172.13671-.01562.13282-.03125.11719-.02735.11718-.01562.13281-.03125.1211v.29687l.01563.13282.03125.11718v.14844l.01171.13281v.14844l-.02734.11719-.04688.10156-.02734.1211-.03125.11718-.0586.08985-.07421.07421-.10156.04297-.10547.04688-.11719.02734-.1211.03125-.10156-.04687.0586-.08594.10547-.04688.02734-.11718.03125-.11719.02734-.1211.03125-.11718v-.14844l.01563-.13281-.03125-.11719-.04297-.10547-.10547.01563-.07422.07422-.10156.04296-.08984.0625-.07422.07422-.04297.10157-.01563.1328-.03125.1172L304.25 426l-.03125.11719-.02734.11719-.03125.12109-.02735.11719-.03125.11718-.04297.10547-.08984.0586h-.08984l-.1172-.03125-.03124-.08594.01562-.13672-.03125-.11719v-.14844l-.01171-.1328v-.14844l-.0625-.23438-.02735-.1211-.04297-.10156-.04687-.10546-.0586-.08594-.05859-.08985-.04297-.10546-.0625-.08594-.14844-.14844-.0703-.07422-.10548-.04687-.10547-.04297-.10156-.04297-.29687-.29688-.08985-.07421-.08594-.0586-.10546-.04297-.08985-.0625-.08594-.0586-.10546-.04296-.08985-.0586-.08594-.0625-.07421-.0703-.10547-.04688-.08594-.0586-.10547-.04296-.08984-.0625-.10156-.04297-.10547-.04297-.08594-.0586-.10547-.04687-.10547-.04297-.10156-.04687-.08985-.0586-.10156-.04297-.10547-.04296-.08984-.0625-.11719-.02735-.13281-.01562-.13281.01562H299.75l-.13281.01563-.11719-.03125-.08984-.0586-.07422-.07422-.08985-.05859-.10156-.04688h-.14844l-.12109-.02734-.10156-.04297-.07422-.07422-.11719-.17968-.08984-.0586-.10156-.04297-.08985-.0625-.10547-.04296-.08984-.0586-.08594-.0586-.10547-.04687-.0586-.08594-.05858-.08984-.04297-.10547-.04688-.10156-.07422-.07422-.08594-.0586-.07421-.07421-.08985-.0586-.22265-.22265-.04297-.10547-.03125-.26563.10547-.04296h.14453l.10547.04296.07421.07422.08985.0586.08594.0586.10546.04687.08985.05859.14844.14844.0703.07422.14845.14843.0625.08594.07421.07422.08594.0586.07422.07421.08985.0625.08984.0586.08594.05859.26953.17578.10156.04688.10547.04296.10156.04297.04688-.07421.05859-.08594.07422-.07422.07031-.07422.10547.04297.07422.07422.0586.08984.04296.10156.04688.10547.04296.10547.1211.02735.11719-.02735.07421-.08984.04297-.10547.0586-.08985.07422-.07421.10546-.04297.1172-.02735.1328.01172.08985.0586.14844.14843.05859.08985.04297.10547.04687.10156.04297.10547.04297.10156.10547.04688.10547.04296.13281.01563.08594-.0586.0586-.08984.07421-.07422.10547-.04297.11719.02735.10547.04687.10156.04297.10547.04297.10156.04688.17969.11718v.11719l-.01563.13281.01563.13281.01562.13672.0586.08594.10156.04688.1211.02734.11718.03125h.14844l.11719-.03125.05859-.08984.17969-.1172.05859-.08983.07422-.07422.0586-.08594.11718-.17969.17969-.11719.11719.03125.08984.0586.04297.07422-.01563.1328v.1172l.08985.05859h.14843l.13282-.01563.1328-.01171.26563-.03125.10547-.04297.11719-.03125.1211-.02735.07421-.07421.07031-.07422.0625-.08985-.01562-.10547-.04688-.10156-.10156-.04297-.10547-.01562-.11718.02734-.26563.03125h-.14844l-.07421-.07422-.08985-.0586-.11719-.03124-.11718-.02735-.13282-.01562h-.14843l-.13282.01563h-.29687l-.10547-.04688-.14844-.14844-.04297-.10156-.05859-.08984.22266-.22266.08593-.0586.10547-.04296.11719-.03125.13281-.01563.13281.01563.13672.01562.10157.04297.1328-.01172.08985-.0625.10156-.04297.0625-.08984-.04687-.10156-.08984-.0586-.1172-.03125-.10155-.04296-.0586-.08985-.0625-.08984v-.11719l.01563-.13281.10547-.04688.07421-.07031v-.1211l-.08984-.05859-.03125-.11719.08985-.05859.07421-.07422.04297-.10547.0586-.08984.04687-.10156.01563-.13281v-.14844l-.04688-.10547-.04297-.10156-.08984-.0586-.13281-.01562-.10157-.04297-.13671-.01563-.1172-.03125h-.4453l-.13282-.01562-.13281-.01172-.13281-.01563-.11719-.03125h-.14844l-.13281-.01562-.13281-.01172-.26563-.03125-.1211-.04297-.08593-.0586-.07422-.07421v-.14844l.01172-.13281.10547-.04688.10156-.04296.13281-.01563h.15235l.13281-.01562h.29297l.1211.03125.10156.04296.08984.0586.23438.0625.12109-.04688.08984-.05859.10156-.04297.13282-.01562.10547.04296.10156.04688.13281.01172.1211-.02735h.14453l.12109-.03125.11719-.02734.10547-.04687.07421-.07422.08594-.0586.14844-.14843.0586-.08594.04687-.10547.02734-.11719.01563-.10547-.10156-.04296-.08985-.0586-.11719-.03125-.10546-.04297-.08985-.0625-.07422-.08594-.07422-.07421-.10156-.04297-.10547-.04688-.10156-.04297-.0586-.08984-.04687-.10156-.08594-.21094-.0625-.08594-.05859-.08984-.07422-.07422-.08594-.0586h-.26953l-.11719.03126-.08984.05859-.10156.04297-.13281.01562-.10547-.01562-.02735-.11719-.0625-.08984-.11718-.03125-.10157-.04297-.14843-.14844-.03125-.11719-.01563-.10546.07422-.07422.17969-.1172.11719-.02733.11718-.03125.13672.01562.10156.04297.10547.04297.10156.04687.10547.04297.1172.03125.1328.01563.1172.02734.1328.01563.10547-.01563.08985-.0586-.07422-.07421-.10547-.04297-.07422-.07422-.07422-.08984-.14844-.14844-.08593-.0586-.08985-.05859-.07422-.07422-.08984-.0586-.10156-.04687-.1211-.02734-.10156-.04688-.10547-.04296-.11719-.03125-.10156-.04297-.1211-.03125h-.14843l-.11719.03125-.10546.04297-.08594.0625-.17969.11718-.08594.0586-.08984.0586-.10547.04687-.08594.05859-.10547.04297-.10156.04297-.10547.04687-.07422.07422-.05859.08985-.0586.08593-.04687.10547-.0586.08594-.07421.07422-.13281-.01172-.1172-.03125h-.11718l-.07422.07422-.08984.0586-.07422.07421-.08984.0586-.08594.05859-.10547.04687-.10156.04297-.13672.01563-.10156-.04297-.14844-.14844-.10547-.04688h-.08594l-.10547.04688-.10156.04297-.1211.03125-.11718-.03125-.07422-.07422v-.11719l.03125-.1211.07422-.0703.0586-.08985.07421-.07422.11719-.03125.10547-.04296h.29297l.13281-.01563.13672-.01563.10156-.04296.08985-.0586.10156-.04687.08984-.0586.13281-.01171.08985.05859.13281.01172.08984-.0586.08594-.05859.10547-.04297.08984-.0586.08594-.0625.08985-.05859.14843-.14843.0586-.08594.05859-.08985.10547-.04296.13281-.01563.11719.02735.1211.03125.05859-.0586.05859-.08984.03125-.26563.02734-.11719.10547.01172.13281.01563.10157-.04297.08984-.0586.0586-.08984.07421-.07422.0586-.08984.04687-.10156.01172-.13281-.01172-.13282-.04687-.10547-.14844-.14843-.0586-.08985-.05859-.08594-.04297-.10546v-.44532l.01563-.1328v-.14845l.01172-.1328-.0586-.0586-.08984.0586-.10156-.04298-.17969-.11719-.08594-.05859-.0625-.08984-.0586-.08985-.07421-.07421-.08594-.0586-.1211.03125-.10155.01172-.10547.04688-.08594.05859-.10547.04297-.14844.14844-.08984.05859-.08594.0586-.08984.0625-.10547.04296-.13281.01563v-.1211l.10547-.04297.11718-.03125.07422-.0703.04297-.10548v-.14844l-.02734-.11718-.14844-.14844-.13281-.01563h-.14844l-.11719.03125-.10547.04297-.10156.04297-.08984.0625-.11719.02735-.07422-.07422.01172-.13281-.04297-.10157-.04297-.10547-.08984-.05859-.11719.02734-.1211.03125-.11718.03125-.10156.04297-.1211.03125-.10156.04297-.10547.04297-.08984.0586-.10156.01562v-.11719l.01562-.13281-.0586-.08985-.07421.04297-.14844.14844-.0586.08985-.07421.07421-.04688.10547-.04296.10156-.07422.07422-.0586.08985-.07422.07422-.05859.08593-.07422.07422-.08984.0625-.07422.07031-.07422.07422-.10156.01563-.13281.01562-.10547-.04296v-.1211l.14843-.14844.04297-.10156.0586-.08984.04687-.10156.04297-.10547.0586-.08985.03124-.11719.04297-.10156.03125-.1211.02735-.11718.04687-.10547.04297-.10156.04297-.10547.07422-.07031.08984-.0625.08985-.0586.10156-.04296h.29687l.26563-.03125.10547-.04297-.07422-.07422-.11719-.03125-.10547-.04297-.08984-.0586-.10156-.04687-.08985-.0586-.10156-.04296-.10547-.04297-.08984-.0625-.08594-.0586-.10547-.04296-.10156-.04297-.1211-.03125-.11718-.03125-.10157-.04297L297.5 410.25l-.10156-.04297-.08985-.0586-.04296-.10546-.01563-.13281.10156-.04297.13281-.01563.13672.01563.13282-.01563.10156-.04297.0586-.08984.01562-.10547-.08985-.0586-.07421-.07421-.10157-.04297-.08984-.0586-.14844-.14843-.04297-.10547-.01562-.13281v-.29297l-.0586-.08985-.08984-.05859-.07422-.07422-.04297-.10547-.03125-.11718-.0586-.08985-.07421-.07422-.11719-.02734-.07422-.07422-.08984-.0586-.08984-.0625-.08594-.05859-.07422-.07421-.0586-.08594-.04687-.10547-.08594-.0586-.14843-.14843-.19532-.0586-.1328.01563-.10157.04297-.07422.07422-.04688.10156-.04296.10547-.0586.08984-.0586.08594-.29687.29687-.08984.0586h-.08594l-.0625-.08594-.04297-.10547.03125-.11719.0586-.08984.02734-.11719-.01172-.13281-.08984-.0625-.10547.04688-.11719.02734-.11719.03125-.26953.17578-.10156.04688-.11719.02734-.10546.04687-.08985.0586-.10156.04297-.0586-.08594-.04687-.10547.01563-.13281.04687-.10547.07031-.07422.07422-.07031.0586-.08985v-.14843l-.04297-.10547h-.23829l-.10156.04687-.03125.11719-.02734.11719-.03125.1211-.07422.04296-.13281.01563-.07422-.04688-.04297-.10156-.04297-.10547-.04687-.10156-.04297-.10547-.1211.03125-.10156.04297-.13281.01562-.11719.03125-.10547.04297-.08984.0586-.10156.04687-.1211.02734-.13281.01563-.10156-.04297-.0586-.08985-.04687-.10546-.04297-.10157-.04297-.10546v-.1172l.0586-.08984.08593-.05859.17969-.11719.10156-.04687.10547-.04297.10547-.0586.10156-.04296.08985-.0625.10156-.04297.10547-.0586.10156-.04687.08984-.0586.10547-.04296.10156-.04297.08985-.0625.10156-.04297.13672-.01563.11719.03125.10156.04297.1211.03125.10156.04297.10546.04688.10157.04296.10547.04297.10156.04688.10547.04297.10156.04297.10547.04687.08594.0586.10546.04296.1172.03125.10546.04297.10156.04688.08985.0586.10547.04296.10156.04297.10547.04687.11719.02735.10156.04687.1211.02735h.14843l.08594-.0586.01562-.10156.0586-.08984-.02735-.1172-.07422-.07421-.11719-.17969-.07421-.07422-.08985-.07421-.17969-.1172-.08593-.05859-.10547-.04296-.10156-.04688-.26954-.17578-.05859-.08985-.07422-.07421-.0586-.08985-.04296-.10156-.03125-.11719-.01563-.13672v-.5625l-.01171-.1328-.01563-.13282-.03125-.11719-.01562-.13281-.01172-.13281-.03125-.1211-.22266-.22265-.0586-.08594-.01562-.10547.03125-.11719.13281-.01562v-91.41406H172.9922v1.45312l-.0586.23438-.35156 1.05078-.17187.52343-.1172.34766-.17577.41016-.11719.17187-.23438.29297-.23046.0586h-.35157l-.11718.05859-.23047.40625v.29297l.11719.17578.23046.23047.1172.23437.64062.75781.29297.46485.17578.23437.23047.35156.23437.34766.64063.8164.17578.46485.17187.41016.11719.69531.17578.46875.11719 1.39844.0586.46484v.875l.11718 1.04688v4.78125l-.0586.46484-.35156 1.28125-.17578.52344-.11328.41015-.35156.9297L172.93359 336l-.23437.58203-.11719.17578-.17187.34766-.17578.40625-.35157.8164-.0586.29297-.11327.29297-.11719.28906-.0586.17579-.11718.875-.0586.40625-.05859.11718-.0586.17579-.05859.17187-.23047.52734-.11718.17188v.23437l-.11719.23438-.0586.17187-.17577.58594v.28906l-.0586.17579v.29296l-.0586.11329-.05859.52734v.17187l-.05468.23438v2.6211l-.17578.8164-.1172.17578-.17577.23438-.1172.17187-.11327.23438-.58594.93359-.23047.28906-.29297.46485-.17578.23437-.28906.35156-.35156.69922-.11328.23047-.17579.41016-.17578.23046-.40625.52735-.8164.69922-.29297.17187-.28906.23438-.17579.11719-.17578.17578-.52344.40625-.52734.17578-.17187.17578-.23438.05469-.64062.17578h-.75782m12.21094 31.02344l-1.07422.44921.35938.89454 1.25-.71485.44531-.53906-.98047-.08985"/><path fill="#d3d3d3" fill-opacity="0" fill-rule="evenodd" d="M201.50781 416.59766h-.89453l.44922.6289.98047.35938.80469-.08985.4453-.98828-.17577.08985-.71485-.35547-.89453.35547m154.6211 59.0703l-.0586-.52343v-.29297l.11328-.29297.0586-.23046.46875-.46875h.11328l.11719-.11329.11718-.05859h.17579l.23437-.0586h.34766l.23437.0586.11719.0586.23047.17187.0586.17578.11718.58203v.29297l-.11719.17578-.17187.28906-.17579.17579-.52734.52343-.23047.23438-.11719.0586h-.17578l-.11718-.0586-.40625-.29297-.17579-.11719-.11718-.0586-.0586-.11327-.05468-.1172m6.64062-10.95702l-.0586-.17188v-1.10937l.0586-.17188.17578-.0586.17188-.05858h.17578l.23437-.0586.1172.0586.05858.69921-.05859.17188-.11719.17578-.11718.0586-.23438.52343-.11328.0586h-.23438l-.05859-.1172m9.61328-14.39062l-.11719-.17578v-.69922l.29297-.875.1172-.17187.17577-.35156.11328-.23047.1172-.29297.35155-.75781.1172-.23047.17187-.23438h.17578l.11719-.0586h.64062l.11719.0586.23437.23438.17188.11328.35156.29297.11719.11718.11328.17579v.11328l.11719.05859.11718.11719v.69922l-.05859.17578v.23047l-.0586.17578-.34765 1.05078-.11719.23047-.11719.23437-.11718.0586-.23047.23437-.64063.28906h-.875l-.41015-.11718-.64063-.46485"/><path fill="none" stroke="#bebebe" stroke-linecap="round" stroke-linejoin="round" stroke-miterlimit="10" stroke-width=".5" d="M467.95703 311.69531H144.02734v168.625h323.9297v-168.625"/><g clip-path="url(#a)"><path fill="#fff" fill-opacity="0" fill-rule="evenodd" d="M144 475.89063v4.4375h.0039H144v-28.50391 24.0664"/></g><g clip-path="url(#b)"><path fill="#fff" fill-opacity="0" fill-rule="evenodd" d="M144 444.82031v1.70313-134.85156h.0039H144V444.8203"/></g><path fill="#50fcfc" fill-rule="evenodd" d="M144 446.52344v5.30078l.0039-.0039v-5.29298l-.0039-.0039"/><g clip-path="url(#c)"><path fill="#fff" fill-opacity="0" fill-rule="evenodd" d="M144.0039 480.32813V451.8203l1.52735-2.5586-1.52734-2.73437V311.67188h88.76172v115.30468l-.29688.09375-4.14063.73047-3.7578 3.70703-.6797 2.23047-4.4375 1.11719-4.4375.51172-4.4414-.35156-4.4375.48437-4.4375-.11328-4.4375-.10938-4.4414-.29687-4.4375-1.59375-4.4375-.02344-4.4375-.00781-4.44141.01562-4.4375.64844-4.4375.875-1.23828 1.05078-3.19922 1.71485-4.26563 2.72265.83594 4.4375.38672 4.4414.19922 4.4375-.16797 4.4375-.19922 4.4375 3.21094 3.0547 4.4375-1.03125 3.54297-2.02344.89453-.39453 4.4375-.15625 4.26172.55078.17968.03906.17578-.03906 4.26172-.65625 4.4375-.47266 4.4375-.09765 3.08203-3.21094 1.35938-.40235 4.4375-1.60156 4.4375-.66015 4.4375-1.67188.1914-.10156 4.25-1.01953 4.4375-.58594 3.90235-2.83203.53516-.35547 4.4375-1.16797 4.4375-2.8789.04296-.03907 4.13282-4.4375.26562-.13672.26953.13672 4.16797 2.83203 4.4375-.58593 2.01953-2.2461-2.01953-4.16797-.125-.26953-4.3125-3.75-3.85547-.6875-.58203-1.53515-3.7461-2.90235-.6953-.09375V311.67187h26.6328v120.1172l-4.4414 1.39062-2.0039 2.76562 2.0039 2.16406 4.4414.52344 2.36329-2.6875-2.36328-4.15625V311.67187h8.875v116.1875l-3.97656 3.64844 3.97656 2.86328 4.4375-.8125 4.4414.34375 4.4375 1.47266.98829.57031 3.44921 2.42578 4.4375-.78515 1.66797-1.64063-1.66797-1.85156-1.93359-2.58594-2.5039-2.34765-4.4375-.84766-4.4375.38281-4.44141-.58594-4.4375-.25v-116.1875h84.32812v123.1836l-4.4375.04687-1.0625 1.04297 1.0625 1.10547 4.4375 1.36719 1.35938-2.47266-1.35938-1.08984v-123.1836h22.1914V439.1211l-1.43358 1.26172 1.43359 1.91406 3.27344 2.52344-3.27344 1.6289-1.73438 2.8125 1.73438 1.61329 1.79297-1.61328 2.64844-3.89453.6328-.54688-.6328-.69531-3.1797-3.74219-1.26171-1.26172V311.67188h17.7539v140.72656l-1.20703 1.30078-3.23046.59375-4.17188-.59375-.26563-.51563-.16015.51563-2.30469 4.4375-1.07422 4.4375 3.53906 3.64844.5547.79296 3.8828 3.71485 4.4375-.82422 4.4375-2.89063-.59375-4.4414.33985-4.4375-2.9375-4.4375-1.2461-1.30078V311.67188h75.44922v150.43359l-.46484.46875.46484.46094v17.29296H144.00391"/></g><path fill="#50fcfc" fill-rule="evenodd" d="M145.53125 449.26172l-1.52734 2.5586v-5.29298l1.52734 2.73438m12.79297-4.4414l-.83594-4.4375 4.26563-2.72266 3.19922-1.71485 1.23828-1.05078 4.4375-.875 4.4375-.64844 4.4414-.01562 4.4375.00781 4.4375.02344 4.4375 1.59375 4.4414.29687 4.4375.10938 4.4375.11328 4.4375-.48438 4.44142.35157 4.4375-.51172 4.4375-1.11719.67968-2.23047 3.75781-3.70703v7.88281l-1.14453.26172 1.14453.15235.0586-.15235-.0586-.26172v-7.8828l4.14063-.73048.29688-.09375v4.89063l-3.1875 4.07812-1.25 3.1914-4.4375.03126-3.19141 1.21484-1.2461 1.07813-4.4375-.75781-.80468-.32032-3.63672-.80078-4.4375.30469-4.4375-.28516-2.8125.78125-1.625.46875-4.4414 1.86328-4.4375-.40234-4.4375-1.3789-2.22266 3.88671-2.21485 1.2461-4.4414.53515-4.4375.23828-2.05078-2.01953 2.05078-2.57422 1.98828-1.86328-1.98828-1.55469-4.4375-.62109-3.58985 2.17578-.84765 3.1211-.2422 1.3164.2422 2.84766 4.4375 1.26953.3125.32422-.3125.3711-4.4375 3.71093-.01172.35547-.46094 4.4375-.38281 4.4375.85547.8164 1.78906-.8164 2.64844-2.44922 4.4375-1.33203 3.92578-.65625.51172-.1211 4.4414-1.64453 4.4375 1.13672 4.4375-.97656 4.4375-2.45703 4.4414.80469 2.13673-1.1797 2.30078-.9453 4.4375-.55079 3.17969-2.9414 1.2578-2.67578 4.1836 2.67578.25781.09765.58985-.09765 3.84766-1.45703 4.4375-2.07813 4.4375-.57031.51171-.33594 3.875-4.4375.05078-.00781 4.44141-2.34375 4.4375 1.4336.625-3.51954-.625-.54297-4.4375-1.64843-4.4414-1.88672v-4.89063l.6953.09375 3.7461 2.90235.58203 1.53515 3.85547.6875 4.3125 3.75.125.26953 2.01953 4.16797-2.01953 2.2461-4.4375.58593-4.16797-2.83203-.26953-.13672-.26562.13672-4.13282 4.4375-.04297.03906-4.4375 2.87891-4.4375 1.16797-.53515.35547-3.90234 2.83203-4.4375.58594-4.25 1.01953-.19141.10156-4.4375 1.67188-4.4375.66015-4.4375 1.60156-1.35938.40235-3.08203 3.21094-4.4375.09765-4.4375.47266-4.26172.65625-.17578.03906-.17969-.03906-4.26171-.55078-4.4375.15625-.89453.39453-3.54297 2.02344-4.4375 1.03125-3.21094-3.0547.19922-4.4375.16797-4.4375-.19922-4.4375-.38672-4.4414"/><path fill="#00e8fc" fill-rule="evenodd" d="M161.7539 463.39063l-.85546-.81641.38281-4.4375.46094-4.4375.01172-.35547 4.4375-3.71094.3125-.3711-.3125-.32421-4.4375-1.26953-.2422-2.84766.2422-1.3164.84765-3.1211 3.58985-2.17578 4.4375.6211 1.98828 1.55468-1.98828 1.86328-2.05078 2.57422 2.05078 2.01953 4.4375-.23828 4.4414-.53515 2.21485-1.2461 2.22265-3.88672 4.4375 1.37891 4.4375.40234 4.4414-1.86328 1.625-.46875 2.8125-.78125 4.4375.28516 4.4375-.30469 3.63673.80078.80469.32031 4.4375.75782 1.24609-1.07813 3.1914-1.21484 4.4375-.03125 1.25-3.1914 3.1875-4.07813v2.53515l-1.20703 1.54297 1.20703 1.67578 2.58985-1.67578-2.58984-1.54297v-2.53515l4.4414 1.88672 4.4375 1.64843.625.54297-.625 3.51953-4.4375-1.43359-4.4414 2.34375-.05079.00781-3.875 4.4375-.51172.33594-4.4375.57031-4.4375 2.07813-3.84765 1.45703-.58984.09765-.25782-.09765-4.1836-2.67578-1.2578 2.67578-3.1797 2.9414-4.4375.55079-2.30077.9453-2.13672 1.1797-4.4414-.8047-4.4375 2.45704-4.4375.97656-4.4375-1.13672-4.44141 1.64454-.51172.12109-3.92578.65625-4.4375 1.33203-2.64844 2.44922-1.78906.8164"/><path fill="#fff" fill-opacity="0" fill-rule="evenodd" d="M228.32813 435.6836l-1.14454.26171 1.14453.15235.0586-.15235-.0586-.26172"/><path fill="#00d4fc" fill-rule="evenodd" d="M232.76563 437.6211l-1.20704-1.67579 1.20703-1.54297 2.58985 1.54297-2.58984 1.67578"/><path fill="#50fcfc" fill-rule="evenodd" d="M254.95703 438.10938l-2.0039-2.16407 2.0039-2.76562 4.4414-1.39063 2.36329 4.15625-2.36328 2.6875-4.4414-.52344m13.3164-3.73828l-3.97656-2.86328 3.97656-3.64844v3.48438l-.17969.16406.17969.1289.42187-.1289-.42187-.16406v-3.48438l4.4375.25 4.4414.58594 4.4375-.38281v2.10156l-2.76171 1.09375 2.76171 1.32031 2.8125-1.3203-2.8125-1.09376v-2.10156l4.4375.84766 2.50391 2.34765 1.9336 2.58594 1.66796 1.85156-1.66797 1.64063-4.4375.78515-3.44921-2.42578-.98829-.57031-4.4375-1.47266-4.4414-.34375-4.4375.8125"/><path fill="#00e8fc" fill-rule="evenodd" d="M268.27344 431.63672l-.17969-.1289.17969-.16407.42187.16406-.42187.1289m13.3164 1.19142l-2.76171-1.32032 2.76171-1.09375 2.8125 1.09375-2.8125 1.32031"/><path fill="#50fcfc" fill-rule="evenodd" d="M348.16406 437.05078l-1.0625-1.10547 1.0625-1.04297 4.4375-.04687 1.35938 1.08984-1.35938 2.47266-4.4375-1.36719m26.6289 13.82422l-1.73437-1.61328 1.73438-2.8125 3.27344-1.6289-3.27344-2.52344-1.4336-1.91407 1.4336-1.26172 1.26172 1.26172 3.17969 3.74219.6328.69531-.6328.54688-2.64844 3.89453-1.79297 1.61328m8.8789 15.34766l-3.53906-3.64844 1.07422-4.4375 2.30469-4.4375.16015-.51563.26563.51563 4.17188.59375 3.23046-.59375 1.20704-1.30078v2.6289l-4.4375.82032-3.51563 2.28906-.92188 3.60547-.29296.83203.29296.30078 2.90625 4.14063 1.53125 1.46093 4.4375-1.26953.29688-.1914 1.5-4.44141.99219-4.4375-2.78906-3.10938v-2.6289l1.24609 1.30078 2.9375 4.4375-.33985 4.4375.59375 4.4414-4.4375 2.89063-4.4375.82422-3.8828-3.71485-.5547-.79296"/><path fill="#00e8fc" fill-rule="evenodd" d="M383.67188 462.875l-.29297-.30078.29296-.83203.92188-3.60547 3.51563-2.28906 4.4375-.82032v2.58594l-2.82422.52344-1.61329.91406-1.42187 3.52344 1.42188 1.8789 2.15234-1.8789 2.28515-3.10938.46875-1.32812-.46875-.52344v-2.58594l2.78907 3.10938-.99219 4.4375-1.5 4.4414-.29688.19141-4.4375 1.26953-1.53125-1.46094-2.90625-4.14062"/><path fill="#00d4fc" fill-rule="evenodd" d="M388.10938 464.45313l-1.42188-1.87891 1.42188-3.52344 1.61328-.91406 2.82421-.52344.46875.52344-.46875 1.32812-2.28515 3.10938-2.15235 1.8789"/><path fill="#50fcfc" fill-rule="evenodd" d="M467.9961 463.03516l-.46485-.46094.46484-.46875v.92969"/><g clip-path="url(#d)"><path fill="#fff" fill-opacity="0" fill-rule="evenodd" d="M467.9961 480.32813H468v-17.29297 17.29296h-.0039"/></g><path fill="#50fcfc" fill-rule="evenodd" d="M467.9961 462.10547v.92969H468v-.9297h-.0039"/><g clip-path="url(#e)"><path fill="#fff" fill-opacity="0" fill-rule="evenodd" d="M467.9961 311.67188H468v150.43359-150.4336h-.0039"/></g><path fill="#fff" fill-opacity="0" fill-rule="evenodd" d="M218.14453 458.07813l5.42578-2.16407-3.6875-9.2539-5.42578 2.16406 3.6875 9.2539"/><path fill-rule="evenodd" d="M218.38281 449.23047l.47656-.1875 2.33204 5.84765-.73047.28907-1.66406-4.16797-1.29297.51172-.20313-.51563.4961-.26562.21484-.14453.17969-.16797.13672-.20703.08203-.25782.02343-.32812-.05078-.40625"/><g clip-path="url(#f)"><path fill="none" stroke="#000" stroke-linecap="round" stroke-linejoin="round" stroke-miterlimit="10" stroke-width=".5" d="M147.44531 481.02344l-6.89062-1.39063"/></g><g clip-path="url(#g)"><path fill="none" stroke="#000" stroke-linecap="round" stroke-linejoin="round" stroke-miterlimit="10" stroke-width=".5" d="M147.44531 481.02344l.69922 2.35156"/></g><g clip-path="url(#h)"><path fill="none" stroke="#000" stroke-linecap="round" stroke-linejoin="round" stroke-miterlimit="10" stroke-width=".5" d="M160.73438 481.13672l-6.83985-1.61328"/></g><g clip-path="url(#i)"><path fill="none" stroke="#000" stroke-linecap="round" stroke-linejoin="round" stroke-miterlimit="10" stroke-width=".5" d="M160.73438 481.13672l.625 2.3711"/></g><g clip-path="url(#j)"><path fill="none" stroke="#000" stroke-linecap="round" stroke-linejoin="round" stroke-miterlimit="10" stroke-width=".5" d="M174.0664 481.0586l-6.875-1.45704"/></g><g clip-path="url(#k)"><path fill="none" stroke="#000" stroke-linecap="round" stroke-linejoin="round" stroke-miterlimit="10" stroke-width=".5" d="M174.0664 481.0586l.6797 2.35546"/></g><g clip-path="url(#l)"><path fill="none" stroke="#000" stroke-linecap="round" stroke-linejoin="round" stroke-miterlimit="10" stroke-width=".5" d="M187.42188 480.84766l-6.95313-1.03516"/></g><g clip-path="url(#m)"><path fill="none" stroke="#000" stroke-linecap="round" stroke-linejoin="round" stroke-miterlimit="10" stroke-width=".5" d="M187.42188 480.84766l.8203 2.3125"/></g><g clip-path="url(#n)"><path fill="none" stroke="#000" stroke-linecap="round" stroke-linejoin="round" stroke-miterlimit="10" stroke-width=".5" d="M200.76563 480.58984l-7.00782-.51953"/></g><g clip-path="url(#o)"><path fill="none" stroke="#000" stroke-linecap="round" stroke-linejoin="round" stroke-miterlimit="10" stroke-width=".5" d="M200.76563 480.58984l.98828 2.2461"/></g><g clip-path="url(#p)"><path fill="none" stroke="#000" stroke-linecap="round" stroke-linejoin="round" stroke-miterlimit="10" stroke-width=".5" d="M214.07031 480.70313l-6.98828-.75"/></g><g clip-path="url(#q)"><path fill="none" stroke="#000" stroke-linecap="round" stroke-linejoin="round" stroke-miterlimit="10" stroke-width=".5" d="M214.07031 480.70313l.91406 2.27734"/></g><g clip-path="url(#r)"><path fill="none" stroke="#000" stroke-linecap="round" stroke-linejoin="round" stroke-miterlimit="10" stroke-width=".5" d="M227.39453 480.60156l-7.00781-.54687"/></g><g clip-path="url(#s)"><path fill="none" stroke="#000" stroke-linecap="round" stroke-linejoin="round" stroke-miterlimit="10" stroke-width=".5" d="M227.39453 480.60156l.97656 2.25"/></g><g clip-path="url(#t)"><path fill="none" stroke="#000" stroke-linecap="round" stroke-linejoin="round" stroke-miterlimit="10" stroke-width=".5" d="M240.6875 480.78906l-6.96484-.91797"/></g><g clip-path="url(#u)"><path fill="none" stroke="#000" stroke-linecap="round" stroke-linejoin="round" stroke-miterlimit="10" stroke-width=".5" d="M240.6875 480.78906l.85938 2.29688"/></g><g clip-path="url(#v)"><path fill="none" stroke="#000" stroke-linecap="round" stroke-linejoin="round" stroke-miterlimit="10" stroke-width=".5" d="M253.9961 480.83594l-6.95313-1.01563"/></g><g clip-path="url(#w)"><path fill="none" stroke="#000" stroke-linecap="round" stroke-linejoin="round" stroke-miterlimit="10" stroke-width=".5" d="M252.98438 480.6875l.41406 1.15625"/></g><g clip-path="url(#x)"><path fill="none" stroke="#000" stroke-linecap="round" stroke-linejoin="round" stroke-miterlimit="10" stroke-width=".5" d="M267.24219 481.19531l-6.8125-1.73437"/></g><g clip-path="url(#y)"><path fill="none" stroke="#000" stroke-linecap="round" stroke-linejoin="round" stroke-miterlimit="10" stroke-width=".5" d="M266.25 480.9414l.29297 1.19141"/></g><g clip-path="url(#z)"><path fill="none" stroke="#000" stroke-linecap="round" stroke-linejoin="round" stroke-miterlimit="10" stroke-width=".5" d="M280.30078 481.88672L274 478.77344"/></g><g clip-path="url(#A)"><path fill="none" stroke="#000" stroke-linecap="round" stroke-linejoin="round" stroke-miterlimit="10" stroke-width=".5" d="M293.26172 482.45313l-5.59375-4.25"/></g><g clip-path="url(#B)"><path fill="none" stroke="#000" stroke-linecap="round" stroke-linejoin="round" stroke-miterlimit="10" stroke-width=".5" d="M307.05078 481.61328l-6.53906-2.57031"/></g><g clip-path="url(#C)"><path fill="none" stroke="#000" stroke-linecap="round" stroke-linejoin="round" stroke-miterlimit="10" stroke-width=".5" d="M306.09766 481.24219l.14062 1.21875"/></g><g clip-path="url(#D)"><path fill="none" stroke="#000" stroke-linecap="round" stroke-linejoin="round" stroke-miterlimit="10" stroke-width=".5" d="M319.53906 482.85156l-4.88672-5.04687"/></g><g clip-path="url(#E)"><path fill="none" stroke="#000" stroke-linecap="round" stroke-linejoin="round" stroke-miterlimit="10" stroke-width=".5" d="M331.3711 483.70703l-1.92188-6.75781"/></g><g clip-path="url(#F)"><path fill="none" stroke="#000" stroke-linecap="round" stroke-linejoin="round" stroke-miterlimit="10" stroke-width=".5" d="M346.04688 482.96484l-4.64063-5.27343"/></g><g clip-path="url(#G)"><path fill="none" stroke="#000" stroke-linecap="round" stroke-linejoin="round" stroke-miterlimit="10" stroke-width=".5" d="M359.07031 483.19531l-4.0586-5.73437"/></g><g clip-path="url(#H)"><path fill="none" stroke="#000" stroke-linecap="round" stroke-linejoin="round" stroke-miterlimit="10" stroke-width=".5" d="M372.74219 482.91016l-4.76953-5.16016"/></g><g clip-path="url(#I)"><path fill="none" stroke="#000" stroke-linecap="round" stroke-linejoin="round" stroke-miterlimit="10" stroke-width=".5" d="M381.82031 483.3125l3.70313-5.96875"/></g><g clip-path="url(#J)"><path fill="none" stroke="#000" stroke-linecap="round" stroke-linejoin="round" stroke-miterlimit="10" stroke-width=".5" d="M394.73047 483.02344l4.51172-5.39063"/></g><g clip-path="url(#K)"><path fill="none" stroke="#000" stroke-linecap="round" stroke-linejoin="round" stroke-miterlimit="10" stroke-width=".5" d="M407.61328 482.58984l5.375-4.52343"/></g><g clip-path="url(#L)"><path fill="none" stroke="#000" stroke-linecap="round" stroke-linejoin="round" stroke-miterlimit="10" stroke-width=".5" d="M421.25 482.92578l4.73047-5.19531"/></g><g clip-path="url(#M)"><path fill="none" stroke="#000" stroke-linecap="round" stroke-linejoin="round" stroke-miterlimit="10" stroke-width=".5" d="M436.41016 483.80469l1.04296-6.94922"/></g><g clip-path="url(#N)"><path fill="none" stroke="#000" stroke-linecap="round" stroke-linejoin="round" stroke-miterlimit="10" stroke-width=".5" d="M449.8086 483.8164l.875-6.97265"/></g><g clip-path="url(#O)"><path fill="none" stroke="#000" stroke-linecap="round" stroke-linejoin="round" stroke-miterlimit="10" stroke-width=".5" d="M463.74219 483.83594l-.35938-7.01563"/></g><g clip-path="url(#P)"><path fill="none" stroke="#000" stroke-linecap="round" stroke-linejoin="round" stroke-miterlimit="10" stroke-width=".5" d="M147.45313 467.66797l-6.90625-1.3086"/></g><path fill="none" stroke="#000" stroke-linecap="round" stroke-linejoin="round" stroke-miterlimit="10" stroke-width=".5" d="M147.45313 467.66797l.72656 2.34375m12.5664-2.2461l-6.86328-1.5m6.86328 1.5l.66407 2.35938m12.72265-2.85156l-7.00781-.51953m7.00781.51953l.98828 2.2461m12.33594-2.46485l-7.02344-.08203m7.02344.08203l1.1289 2.17578m12.1172-2.91797l-6.88672 1.40234m6.88672-1.40234l1.5625 1.89063m11.78515-1.71485l-6.94922 1.05078m6.94922-1.05078l1.46094 1.97266m11.875-1.8125l-6.99219.73047m6.99219-.73047l1.3711 2.03515m11.96093-1.62109l-7.02734-.09766m7.02734.09766l1.1211 2.1836m12.16796-2.66016l-6.97656.85547m5.96094-.73047l.70312 1.0039m13.625-1.14453l-6.96875.88672m5.95703-.75781l.70703 1.0039m13.64844-.60546l-7.02734-.16797m6.0039.14453l.55079 1.09766m13.7578-1.6211l-6.96483.92578m5.94921-.78906l.71485.9961m13.55078.14453l-6.83594-1.62891m5.83985 1.39062l.30859 1.1875m14.08594-1.45703l-7-.61328m13.42968-.64062l6.76563 1.89453m6.48828-.26172l6.89063-1.3711M341.28125 467.5l-.77344-.95312m13.11328 1.26562l6.83985-1.59766m-5.84375 1.3672l-.8086-.92579m13.04688.66797l7-.6211m-5.98047.53126l-.66797-1.02735m13.03516 1.58203l6.85547-1.55078m-6.85547 1.55078l-1.59766-1.85937m14.89844 1.78906l6.88672-1.41016m-6.88672 1.41016l-1.5625-1.89062m15.22266 2.83984l6.1953-3.3086m-6.1953 3.3086l-2.03907-1.36719m2.9414.88672l-2.03905-1.36719m14.5664 2.04688l5.96875-3.70703m-5.96875 3.70703l-2.1211-1.23438m2.98829.69532l-1.0625-.6172m14.77344 2.36329l3.4414-6.1211m-3.4414 6.1211l-2.45313-.05469m16.64453.40235l1.69141-6.81641m-1.44531 5.82422l-1.1914.30078m14.30859.70703l1.59375-6.84766m-1.36329 5.85157l-1.18359.3125"/><g clip-path="url(#Q)"><path fill="none" stroke="#000" stroke-linecap="round" stroke-linejoin="round" stroke-miterlimit="10" stroke-width=".5" d="M147.16797 455.21875l-6.33594-3.03906"/></g><path fill="none" stroke="#000" stroke-linecap="round" stroke-linejoin="round" stroke-miterlimit="10" stroke-width=".5" d="M146.2461 454.77344L146.29686 456m13.5547.1289l-5.07423-4.85937m4.33594 4.15235l-.33203 1.17968m14.53125-.63281l-5.36328-4.54297m4.58203 3.88281l-.26172 1.19922m15.08984-1.98047l-6.82812-1.65625m5.83594 1.41407l.30469 1.1914m14.07421-2.22656l-6.97265.89453m20.21875-1.26953l-6.83203 1.64844m5.83593-1.41016l.81641.91797m12.98047-2.3164l-5.80469 3.96484m4.96094-3.38672l1.08594.57031m13.37109-.60937l-6.40234 2.89062m5.47265-2.47266l.96875.75m12.85938-1.86718l-5.5664 4.28906m4.7539-3.66797l1.11719.50781m12.6875-1.49218l-4.92188 5.01172m4.20703-4.28125l1.17578.34765m12.73047-1.19531l-4.67578 5.2461m3.9961-4.48048l1.1914.28907m12.8125-1.04297l-4.69531 5.22656m4.01172-4.46875l1.1914.29688m12.8164-1.04688l-4.71093 5.21094m4.71094-5.21094l2.3789.59766m10.10157-1.16016l-3.04297 6.33594m3.04297-6.33594l2.45312-.09766m8.89844-.21875l.88281 6.96875m-.7539-5.95703l1.0039-.70703m9.8711.99219l5.5039 4.3711m-4.70312-3.73438l.22265-1.20703m11.8047 1.40234l6.48046 2.71094m-5.53906-2.3164l-.11328-1.22267m12.84375.17579l5.76562 4.01562m-4.92578-3.42969l.14453-1.21875m11.9336 1.38282l6.5625 2.51562m-6.5625-2.51562l-.30079-2.4336m13.5547 2.60547l6.68358 2.17188m-6.68359-2.17188l-.42578-2.41406m1.39844 2.73047l-.42578-2.41797m12.61328 2.84375l6.99219.6875m-6.9922-.6875l-.93359-2.26953m1.94922 2.3711l-.46484-1.13673m12.91015 2.4375l6.69922-2.1211m-6.69921 2.1211l-1.75-1.71484m2.72656 1.40625l-1.7539-1.71485m14.10546 2.0586l6.67578-2.1875m-6.67578 2.1875l-1.76953-1.69922m2.73828 1.38281l-.88281-.85156m13.29687 1.35547l6.54297-2.5625m-6.54297 2.5625l-1.86328-1.59766m15.77344 2.59375l5.34765-4.55469m-5.34765 4.5547l-2.28125-.90235"/><g clip-path="url(#R)"><path fill="none" stroke="#000" stroke-linecap="round" stroke-linejoin="round" stroke-miterlimit="10" stroke-width=".5" d="M146.89453 442.375l-5.78906-3.98438"/></g><path fill="none" stroke="#000" stroke-linecap="round" stroke-linejoin="round" stroke-miterlimit="10" stroke-width=".5" d="M146.05078 441.79688l-.13672 1.21875m14.27344-.60938l-5.74219-4.04688m4.90625 3.46094l-.15234 1.21485m14.13281-.40625l-5.40625-4.4922m4.6211 3.83985l-.25 1.19922m13.28125.32031l-3.26563-6.22265m2.78906 5.3164l-.6914 1.01172m14.04687.08594l-2.39453-6.60547m2.04688 5.64453l-.82032.91016m15.86328-.86328L208 437.99219m4.40234 4.08594l-.3164 1.1875m15.3164-2.96094l-7.02343.16015m6.0039-.13671l.59766 1.0664m13.03516-3.11719l-5.6211 4.21485m4.80469-3.60156l1.10937.51953m12.36328-1.8047l-4.30078 5.5547m3.67578-4.7461l1.20704.20703m12.73047-1.01953l-4.29688 5.5625m3.67188-4.75l1.20703.20313m12.52734-1.16016l-3.88672 5.85156m3.32031-5l1.22266.1211m11.96094-1.33203l-2.48828 6.5703m2.125-5.61327l1.21875-.15625m12.6289-.73047l-2.82812 6.4336m2.41406-5.5l1.22656-.08985m12.61719-.79297l-3.0586 6.32813m3.0586-6.32813l2.44922-.09375m10.64844 0l-2.625 6.51953m2.625-6.51953l2.4414-.25781m9.97657.02734l-.82813 6.97656m.82813-6.97656l2.28515-.89062m9.86328.94922l1.5039 6.86328m-1.28515-5.8672l.9336-.79296m10.73437.47266l4.35938 5.5078m-3.72657-4.70702l.4922-1.125m11.32812 1.32031l6.08593 3.51563m-6.08593-3.51563l.08593-2.45312m13.51563 2.03125l5.51172 4.35937m-5.51172-4.35937l.4414-2.41407m.35938 3.05078l.4414-2.41406m11.89454 2.02735l5.8711 3.86328m-5.8711-3.86328l.22656-2.44532m.625 3.00782l.23047-2.44532m11.65234 3.75l7.02735.1289m-7.02735-.1289l-1.10937-2.1875m2.13281 2.20313l-.55469-1.09375m12.91797 1.83594l6.88672-1.39063m-6.88672 1.39063l-1.5586-1.89454m2.5586 1.69141l-.77734-.94531m13.08984 1.14062l6.89063-1.375m-6.89063 1.375l-1.55469-1.89843m15.21875 2.87109l6.19141-3.32031m-6.1914 3.3203l-2.03907-1.36327"/><g clip-path="url(#S)"><path fill="none" stroke="#000" stroke-linecap="round" stroke-linejoin="round" stroke-miterlimit="10" stroke-width=".5" d="M147.22266 428.46875l-6.44532-2.80078"/></g><path fill="none" stroke="#000" stroke-linecap="round" stroke-linejoin="round" stroke-miterlimit="10" stroke-width=".5" d="M147.22266 428.46875l.1914 2.44531m13.07031-2.33203l-6.33984-3.02734m6.33984 3.02734l.10938 2.45313m12.82031-1.82422l-5.5664-4.28516m5.5664 4.28516l-.41015 2.42187m13.6953-2.38281l-5.5078-4.36328m5.5078 4.36328l-.4453 2.41406m13.8828-2.57812l-5.7539-4.03125m5.7539 4.03125l-.29687 2.4336m13.35157-2.10548l-5.23047-4.6914m4.46875 4.01172l-.29688 1.1875m13.58203.14843l-3.65234-6.0039m3.1211 5.1289l-.625 1.05469m15.6328-1.33203l-5.97265-3.69922m5.10547 3.16016l-.08203 1.22656m14.5039-3.92969l-6.44922 2.78516m5.51172-2.3789l.95703.76562m12.5625-2.25782l-4.98437 4.95704m4.25781-4.23438l1.17188.35938m11.74219-1.83985l-2.73047 6.47266m2.33593-5.53125l1.21875-.10938m11.75391-1.05078l-1.25781 6.91016m1.07422-5.90625l1.17187-.3711m13.44531-.22656l-3.49218 6.09766m2.98437-5.21094l1.22656.03906m12.15235-1.14062l-2.60547 6.52734m2.22656-5.57812l1.21875-.13282m11.39453-1.05859l-.4414 7.01172m.375-5.99219l1.11718-.50781m11.9961-.51953l.09375 7.02734m-.08203-6.0039l1.07812-.58985m11.14063-.2461l2.26172 6.65235m-1.9336-5.6836l.83985-.89452m9.76953 3.03515l7.01562.4336m-5.99219-.3711l-.51171-1.11328m12.90234 2.11328l6.82031-1.6914m-6.82031 1.6914l-1.64063-1.82422m17.48829-2.42578l1.75 6.8086m-1.75-6.8086l1.8125-1.65234m-1.5547 2.64453L398.17579 423m11.28125.65625l1.6875 6.82422m-1.6875-6.82422l1.82813-1.63672m11.4375 1.65235l1.78906 6.79296m13.27344-6.80468l-1.70703 6.8164m1.70703-6.8164l2.3828-.58985m-2.6289 1.58203l1.1875-.29687m13-.47266l-2.95703 6.3711m2.95703-6.3711l2.44922-.13672m-2.88281 1.0625l1.22656-.0664m13.17578-.46485l-4.26562 5.58204m3.64453-4.76954l1.21094.19922"/><g clip-path="url(#T)"><path fill="none" stroke="#000" stroke-linecap="round" stroke-linejoin="round" stroke-miterlimit="10" stroke-width=".5" d="M147.24219 415.10547l-6.48438-2.70313"/></g><path fill="none" stroke="#000" stroke-linecap="round" stroke-linejoin="round" stroke-miterlimit="10" stroke-width=".5" d="M146.30078 414.71094l.11328 1.22265m13.88672-.32812l-5.97266-3.70313m5.10547 3.16407l-.08203 1.22265m14.28906-.72265l-6.01953-3.625m5.14453 3.09765l-.0664 1.22266m14.05078-.39453l-5.60938-4.22657m4.79297 3.61329l-.1914 1.21093m14.51172-.87109l-5.98438-3.6836m5.11328 3.14844l-.07812 1.22657m9.57031.54296l3.40234-6.14843m-2.90625 5.2539l-1.22656-.01953m13.64844.66016l4.19531-5.64063m-3.58594 4.82032l-1.21093-.1875m13.90234.99609l4.22266-5.61719m-4.22266 5.61719l-2.42188-.3789m20.91797-.71876l-6.14062-3.42187m5.2461 2.92187l-.02345 1.22657m13.79688-4.76172l-5.26563 4.64843m15.9297-5.83984l.03515 7.02734m-.03125-6.0039l1.08203-.58203m11.6875-.39453l1.11719 6.9375m-.95313-5.9297l.97656-.73827m9.25 2.73047l6.96485.9375m-5.94922-.80079l-.42578-1.15234m14.92969-1.78906l2.55859 6.54687m-2.1875-5.59375l.80078-.92968m11.16016.5625l4.52344 5.375m-3.86329-4.59375l.45704-1.14063m14.67187-.46094l-.42188 7.01563m.35938-5.9961l1.11719-.5078m13.21094-.32032l-2.32422 6.63281m1.98437-5.66797l1.21485-.18359m9.36328-.41016l3.82812 5.89063M369 411.66406l.59375-1.07422M380.62891 412l6.08593 3.50781M380.62891 412l.08203-2.45313m15.58594.76172l1.3789 6.89063m-1.3789-6.89063l1.90234-1.55468M396.5 411.30859l.94922-.77343m14.95703.40234l-4.20703 5.6289m4.20703-5.6289l2.42578.375m-3.03906.44531l2.42578.375m11.21484-1.38672l-3.63671 6.01563m3.63671-6.01563l2.44922.13672m-2.97656.73828l2.44922.13672m-2.98047.73828l1.22656.06641m13.25781-1.7461l-3.85546 5.875m3.85546-5.875l2.44141.22266m-3.0039.63281l1.22265.10938m12.1875-1.22266l-2.91797 6.39063m2.91797-6.39063l2.44922-.14843m-2.875 1.07812l1.22266-.07422m13.86718.22656l-5.61718 4.22266"/><g clip-path="url(#U)"><path fill="none" stroke="#000" stroke-linecap="round" stroke-linejoin="round" stroke-miterlimit="10" stroke-width=".5" d="M466.3711 411.64063l2.22265 1.03906"/></g><path fill="none" stroke="#000" stroke-linecap="round" stroke-linejoin="round" stroke-miterlimit="10" stroke-width=".5" d="M465.55078 412.25781l1.11328.51953"/><g clip-path="url(#V)"><path fill="none" stroke="#000" stroke-linecap="round" stroke-linejoin="round" stroke-miterlimit="10" stroke-width=".5" d="M147.46094 401.04297l-6.92188-1.20703"/></g><path fill="none" stroke="#000" stroke-linecap="round" stroke-linejoin="round" stroke-miterlimit="10" stroke-width=".5" d="M146.45313 400.86719l.3828 1.16406m13.50391.19531l-6.05078-3.57812m19.6289 3.03125l-6.57421-2.48438m5.61719 2.125l.15625 1.21485m13.70703-.08204l-5.75781-4.02734m4.92187 3.4414l-.14844 1.21485m9.03907-.0586l4.76172-5.16796m7.42578 2.42969l7.01953.30859m-6-.26563l-.52735-1.10546m12.91407 2.03515l6.83593-1.64062m-5.83984 1.40234l-.8125-.91797m14.33203 3.0625l4.4336-5.45312m-4.4336 5.45312l-2.40625-.47265m17.1875 1.17968l1.5039-6.86328m-1.28515 5.86328l-1.1836.33204m11.51954-2.65235l7.02344-.22656m12.68359-1.89844l-5.76172 4.02735m4.92188-3.44141l1.09375.5586m12.28906-1.94532l-4.21484 5.625m3.60156-4.80469l1.21094.1875m11.01953-1.6836l-.82032 6.97657m.70313-5.96094l1.14062-.4453m8.40235 2.42187l6.95703.99218m-5.94531-.84765l-.41797-1.15235m15.97265-2l.45704 7.01172m-.39063-5.99219l1.04297-.64453m10.69922.07422l3.46875 6.10938m-2.96485-5.21875l.65625-1.03906m12.47266-.01172l2.83203 6.42968m13.58985-6.29296l-3.38282 6.16015m2.89063-5.26562l1.22656.01562m13.26563-.42187l-4.75 5.17968m4.75-5.17968l2.375.61718m-3.06641.13672l1.1875.3086m12.55078-1.28125l-4.21484 5.62109m4.21484-5.6211l2.42578.37891m-3.03906.4375l1.21094.1875m13.29687-.46094l-5.3711 4.53125m5.3711-4.53125l2.27735.91407m10.28125-1.58203l-3.86329 5.87109m3.86329-5.8711l2.4453.22657m-3.0078.625l1.22265.11719m12.67188-.95704l-3.89453 5.84766m3.89453-5.84765l2.4414.24218m-3.00781.60938l1.22266.1211m12.5703-1.03126l-3.71874 5.96094m3.71875-5.96094l2.44922.17188m-2.98828.6953l1.22265.08595m13.11328-.59375l-4.67968 5.24218"/><g clip-path="url(#W)"><path fill="none" stroke="#000" stroke-linecap="round" stroke-linejoin="round" stroke-miterlimit="10" stroke-width=".5" d="M465.90234 397.8164l2.38282.58594"/></g><path fill="none" stroke="#000" stroke-linecap="round" stroke-linejoin="round" stroke-miterlimit="10" stroke-width=".5" d="M465.22266 398.58203l2.3828.58203"/><g clip-path="url(#X)"><path fill="none" stroke="#000" stroke-linecap="round" stroke-linejoin="round" stroke-miterlimit="10" stroke-width=".5" d="M147.16406 385.59375l-6.32812 3.0586"/></g><path fill="none" stroke="#000" stroke-linecap="round" stroke-linejoin="round" stroke-miterlimit="10" stroke-width=".5" d="M147.16406 385.59375l1.98047 1.44531m11.26953 1.73828l-6.19922-3.30859m5.29688 2.82813v1.22656m12.83203.66797l-3.42578-6.13672m2.92578 5.24219l-.66406 1.03125m16.03906-1.92579l-6.54688-2.55859m14.5-1.54688l4.17579 5.65235m-3.57032-4.82813l.53125-1.10937m15.28907 3.11328l-.01953-.20313-.0586-.1914-.09375-.17578-.46094-.375-.1914-.0586-.19922-.01953-.19922.01953-.1914.0586-.45704.375-.09765.17578-.0547.1914-.01952.20313.01953.19922.05469.1914.09765.17579.45703.375.19141.05859.19922.01953.19922-.01953.1914-.0586.46094-.375.09375-.17577.0586-.19141.01953-.19922m15.78515.39063l-6.98437-.78516m6.98437.78515l.90235 2.28516m-1.91797-2.39844l.44922 1.14063m13.82812-.69531l-6.8789-1.44922m6.8789 1.44922l.67969 2.35546m-1.67969-2.5664l.33984 1.17969m14.04297-1.46094l-7.01172-.46485m7.01172.46485l1.00782 2.23437m12.29297-2.83984l-6.98438.7461m6.98438-.7461l1.375 2.03516m11.7578-.48829l-6.62109-2.34765m6.6211 2.34765l.36328 2.4297m13.15234-3.75391l-7.01953.30078m5.9961-.25781l.625 1.05859m13.25-2.69922l-6.09766 3.4961m5.21094-2.98438l1.03906.65234m13.46875-.46484l-6.70703 2.10156m5.73047-1.79687l.875.85937m11.72265-3.21094l-3.3164 6.19532m3.3164-6.19532l2.45313.00391m10.59375-.13281l-2.78125 6.45312m2.375-5.51562l1.22265-.10156M359.5 389.6328l-4.91797-5.01953m4.20313 4.28906l-.3711 1.16797m15.16406-4.35156l-6.4414 2.8086m6.4414-2.8086l1.92188 1.52344m9.85156-3.20313l-3.35937 6.17188m3.35937-6.17188l2.45313.02344m11.46875.39453l-4.57422 5.33203m4.57422-5.33203l2.39453.53516m-3.0586.23828l1.19532.26953m12.77734-1.05078l-4.5586 5.34765m4.5586-5.34765l2.39453.53125m-3.0586.2461l1.19923.26562m12.19531-1.44531l-3.39063 6.15234m3.39063-6.15235l2.45312.03516m10.98438.03516l-3.63672 6.01172m3.63672-6.01172l2.44922.13281m10.57422-.29297l-3.05078 6.33203m3.05078-6.33203l2.44922-.09375m-2.89454 1.01563l1.22657-.04688m13.90234.30078l-5.78906 3.98438"/><g clip-path="url(#Y)"><path fill="none" stroke="#000" stroke-linecap="round" stroke-linejoin="round" stroke-miterlimit="10" stroke-width=".5" d="M466.45703 385.13281l2.17578 1.1289"/></g><g clip-path="url(#Z)"><path fill="none" stroke="#000" stroke-linecap="round" stroke-linejoin="round" stroke-miterlimit="10" stroke-width=".5" d="M465.61328 385.71094l2.17578 1.13281"/></g><g clip-path="url(#aa)"><path fill="none" stroke="#000" stroke-linecap="round" stroke-linejoin="round" stroke-miterlimit="10" stroke-width=".5" d="M147.16016 372.27344l-6.32032 3.0664"/></g><path fill="none" stroke="#000" stroke-linecap="round" stroke-linejoin="round" stroke-miterlimit="10" stroke-width=".5" d="M147.16016 372.27344l1.98437 1.44922m-2.90234-1l.99219.72265m13.09765-1.4375l-6.03516 3.60156m6.03516-3.60156l2.10156 1.26953m10.76953 2.92579l-5.14453-4.78907m4.39453 4.08985l-.3164 1.1875m11.71094-6.39454l.1953 7.02344m-.16796-6.0039l1.0664-.60547m11.96485-.39844l.70703 6.99219m-.60547-5.97656l1.01953-.6797m15.01172.65626l-4.92969 5.00781m4.21485-4.27734l1.17578.34765m12.61719 4.14453l-4.45313-5.4375m4.45313 5.4375l-.94922 2.26172m15.3711-3.8711l-6.66798-2.22265m6.66797 2.22266l.40625 2.42187m-1.375-2.74218l.20313 1.20703m14.25781-1.83594l-7.01953-.32031m7.01953.32031l1.05078 2.21875m-2.07422-2.26563l.52735 1.10938m13.8125-1.125l-7.02344-.19922m7.02344.19922l1.08984 2.19922m12.22266-2.14453l-7.01953-.3086m7.01953.3086l1.05468 2.21875m12.03125-1.11719l-6.5625-2.50781m5.60938 2.14453l.15234 1.21484m14.33203-1.74219l-6.99218-.72656m6.99218.72656l.91797 2.27344m12.34375-3.33984l-6.88672 1.40625m5.88282-1.20313l.78125.94532m13.35156-1.76563l-6.51172 2.64063m5.5625-2.25391l.9414.78516m13.55079-.29297l-6.97266.8789m6.97266-.8789l1.41406 2.00781m11.83594-.75781l-6.83985-1.6211m6.83985 1.6211l.6211 2.375m12.76562-3.58985l-6.98047.8086m6.98047-.8086l1.39062 2.01954m11.27344-3.6836l-5.67969 4.14063m4.85156-3.53907l1.10547.53907m12.55469-1.67579l-4.71875 5.20704m4.71875-5.20704l2.3789.60157m10.96876-.57031l-4.78125 5.14843m4.78125-5.14844l2.37109.62891m10.41016-1.03906l-3.71485 5.96484m3.17578-5.09375l1.22266.08203m12.76172-.86718l-3.97266 5.79687m3.97266-5.79687l2.4414.27734m10.0625-.6914l-2.35156 6.625m2.35157-6.625l2.42578-.35938m11.97265.98047L461.3047 376.5"/><g clip-path="url(#ab)"><path fill="none" stroke="#000" stroke-linecap="round" stroke-linejoin="round" stroke-miterlimit="10" stroke-width=".5" d="M465.82031 371.11719l2.39844.50781"/></g><path fill="none" stroke="#000" stroke-linecap="round" stroke-linejoin="round" stroke-miterlimit="10" stroke-width=".5" d="M465.16406 371.89844l1.19922.25781"/><g clip-path="url(#ac)"><path fill="none" stroke="#000" stroke-linecap="round" stroke-linejoin="round" stroke-miterlimit="10" stroke-width=".5" d="M146.66797 358.20703l-5.33594 4.57031"/></g><path fill="none" stroke="#000" stroke-linecap="round" stroke-linejoin="round" stroke-miterlimit="10" stroke-width=".5" d="M146.66797 358.20703l2.28516.89844M160.5 359.0078l-6.36719 2.97266M160.5 359.0078l1.96094 1.47266m11.67969.16797l-7.01954-.3086m7.01953.3086l1.0547 2.21484m12.1953-3.05469L180.5 361.1797m6.89063-1.3711l1.55468 1.90235m10.61328-3.875l-4.59375 5.3164m4.59375-5.3164l2.39063.54297m-3.0625.23046l1.19922.26954m13.96094 2.14843l-6.94532-1.0664m6.94531 1.0664l.8125 2.31641m11.84766-.75l-5.63281-4.20313m5.63281 4.20313l-.375 2.42578m-.44531-3.03515l-.375 2.42578m14.51172-1.81641l-5.63281-4.20313m5.6328 4.20313l-.375 2.42578m-.4453-3.03515l-.1875 1.21093m15.01562-2.58594l-7.02344-.23437m7.02344.23438l1.08203 2.20312m12.20313-2.80078l-6.96094.96484m5.94922-.82422l.71875.9922m13.48437-1.6875l-6.71484 2.0703m5.73828-1.76953l.8711.86719m13.52343-.73828l-6.92187 1.21094m5.91406-1.03516l.7539.96875m13.51954.3125l-6.82032-1.70313m5.82813 1.45704l.29297 1.1914m14.03125-2.5625l-6.85547 1.53125m5.85937-1.3086l.79688.9336m13.46875-1.33984l-6.76563 1.89844m6.76563-1.89844l1.69531 1.77344m11.67969-.11329l-6.88281-1.42187m5.8789 1.21484l.34766 1.1797m14.01562-1.25782l-6.97265-.84766m6.97265.84766l.88282 2.28906m12.45312-2.95312l-7.01172.48046m7.01172-.48046l1.29688 2.08203m11.63672-3.44531l-6.25391 3.20312m6.2539-3.20313l2.01563 1.40625m10.85156-2.07812l-5.35547 4.54688m5.35547-4.54688l2.28125.90625m10.50782-1.41016l-4.3047 5.5547m4.3047-5.5547l2.41796.41797m10.5547-.65234l-3.6172 6.02734m3.6172-6.02734l2.44921.125m10.23438-.42188l-2.35547 6.6211m2.35547-6.6211l2.42578-.35937m9.78906.15625l-.15625 7.02344m.15625-7.02344l2.1914-1.10547m13.41407 2.02344l-4.73828 5.1875"/><g clip-path="url(#ad)"><path fill="none" stroke="#000" stroke-linecap="round" stroke-linejoin="round" stroke-miterlimit="10" stroke-width=".5" d="M465.92969 357.89844l2.3789.61328"/></g><g clip-path="url(#ae)"><path fill="none" stroke="#000" stroke-linecap="round" stroke-linejoin="round" stroke-miterlimit="10" stroke-width=".5" d="M143.66016 343.67969l.67968 6.9961"/></g><g clip-path="url(#af)"><path fill="none" stroke="#000" stroke-linecap="round" stroke-linejoin="round" stroke-miterlimit="10" stroke-width=".5" d="M143.76172 344.69922l1.01953-.67969"/></g><path fill="none" stroke="#000" stroke-linecap="round" stroke-linejoin="round" stroke-miterlimit="10" stroke-width=".5" d="M158.3125 343.8086l-1.99219 6.73827m1.69922-5.7578l1.20313-.2461m14.58593 1.14062l-6.35937 2.9922m6.35937-2.9922l1.96485 1.46875m11.67969-.17968l-7.01563.41015m7.01563-.41015l1.27734 2.09375m11.75781-3.27735l-6.45703 2.77735m6.45703-2.77735l1.91406 1.53516m-2.85547-1.13281l.95704.76953m13.41406 1.29687l-6.6875-2.16015m6.6875 2.16015l.42969 2.41797m12.42578-1.48828l-5.76563-4.01953m5.76563 4.01953l-.29297 2.4336m13.72266-2.60938l-5.9922-3.66797m5.9922 3.66797l-.15235 2.44922m13.6914-2.88281l-6.4453-2.80079m5.5078 2.39454l.09766 1.22265m14.16797-.84375l-6.46875-2.7461m5.52735 2.34766l.10547 1.22266m14.42968-2.27734l-7.02734.16015m6.0039-.13672l.60157 1.07032m12.49219-3.69532l-4.53516 5.3672m3.875-4.58595l1.19922.25782m12.07031-1.50391l-3.125 6.29297m2.66797-5.3789l1.22656-.03126m14.26953 1.02344l-6.57422 2.48047m20.00391-2.11328l-6.80469 1.7461m6.80469-1.7461l1.65625 1.8086m11.5664-2.1211l-6.61718 2.3711m6.61719-2.3711l1.8125 1.65234m10.8789-2.73047l-5.3711 4.52735m4.58985-3.8672l1.14063.45704m13.73828.57031l-6.9336 1.15235m5.92188-.98438l.7461.97656m13.625-.51562l-7.02735-.10547m7.02734.10547l1.1211 2.1836m12.03515-3.28907l-6.70703 2.10547m6.70703-2.10547l1.7461 1.72266m11.50781-1.89063l-6.58594 2.4414m6.58594-2.4414l1.83594 1.6289m10.98047-2.53906l-5.58594 4.26172m5.58594-4.26171l2.23046 1.02343m10.58985-1.54687l-4.59766 5.3125m4.59766-5.3125l2.39453.54687m-3.0625.22266l1.19531.27344m12.32422-1.38282l-3.67187 5.98829m3.67187-5.98829l2.44922.14844m11.30078.16406l-4.53906 5.36329"/><g clip-path="url(#ag)"><path fill="none" stroke="#000" stroke-linecap="round" stroke-linejoin="round" stroke-miterlimit="10" stroke-width=".5" d="M465.83203 344.4961l2.39453.51952"/></g><g clip-path="url(#ah)"><path fill="none" stroke="#000" stroke-linecap="round" stroke-linejoin="round" stroke-miterlimit="10" stroke-width=".5" d="M141.14453 331.8125l5.71094 4.10156"/></g><path fill="none" stroke="#000" stroke-linecap="round" stroke-linejoin="round" stroke-miterlimit="10" stroke-width=".5" d="M154.4961 331.76563l5.64062 4.1914m-5.64063-4.1914l.3672-2.42579m.45312 3.03907l.18359-1.21485m12.52344.34375l5.21484 4.71094m-5.21484-4.71094l.59375-2.3789m13.5586 1.69921l3.53905 6.07032m14.7422-4.49219l-6.39454 2.91016m5.46484-2.48438l.97266.7461m13.29688 1.6875l-6.44141-2.8047m5.5039 2.39844l.09375 1.22266m13.69532-.03906l-5.51563-4.35938m4.71094 3.72266l-.21875 1.20703m14.8789-1.54297l-6.59765-2.41406m5.64063 2.0625l.16796 1.21484m14.31641-1.97265l-7.02344-.19531m6.0039.16406l.54688 1.10156m13.52735.16406l-6.5-2.66406m5.55469 2.27734l.12109 1.21875m14.11719-.77343l-6.45704-2.78125m20.03125.97265l-6.97656.83594m5.96094-.71484l.70313 1.0078m11.2578-4.04296l-2.23437 6.66406m13.5664-6.73828l1.73048 6.8125m-1.47656-5.82031l.90625-.82422m12.71875-.26172l.60156 7m-.51172-5.98047l1.02734-.66797m15.84766 2.08594l-6.69531 2.125m5.72265-1.8164l.875.85937m12.72656-2.40234l-5.32421 4.58984m4.54687-3.92188l1.14453.44532m13.78516 1.48828l-7-.60938m19.71484-1.68359l-5.79687 3.97656m4.95312-3.39844l1.08594.56641m10.40234-2.66406l-.45703 7.01562m.39063-5.99218l1.11719-.50782m12.35937-.5078l-.64453 7m.55078-5.98048l1.1289-.47656m14.69141.75l-5.46875 4.41406m4.67188-3.77344l1.1289.48047m11.625-2.14843l-2.7539 6.46875m2.7539-6.46875l2.44532-.21094m11.16796.35547l-3.35156 6.17969m3.35156-6.1797l2.45313.01954m11.42578.36328l-4.48047 5.41406"/><g clip-path="url(#ai)"><path fill="none" stroke="#000" stroke-linecap="round" stroke-linejoin="round" stroke-miterlimit="10" stroke-width=".5" d="M465.80078 331.15625l2.40625.4961"/></g><g clip-path="url(#aj)"><path fill="none" stroke="#000" stroke-linecap="round" stroke-linejoin="round" stroke-miterlimit="10" stroke-width=".5" d="M140.79297 319.11328l6.41406 2.8711"/></g><path fill="none" stroke="#000" stroke-linecap="round" stroke-linejoin="round" stroke-miterlimit="10" stroke-width=".5" d="M153.82031 320.19531l6.99219.70703m-6.99219-.70703l-.92969-2.26953m1.94532 2.3711l-.92969-2.26954m13.27344 1.86329l6.90234 1.3125m-6.90234-1.3125l-.72656-2.34375m1.73046 2.53515l-.72656-2.34375m13.01172 2.28906l6.95313 1.03907m-6.95313-1.03907l-.8164-2.3125m1.82812 2.46485l-.41016-1.15625m12.74219.85547l6.89844 1.33984m-6.89844-1.33984l-.71875-2.34766m14.35938 1.41016l6.24609 3.21484m-5.33984-2.75l-.01563-1.22656m15.61719 5.88281l-.14063-7.02734m.1211 6.0039l-1.07422.59766m13.9961.41015l.68358-6.99609m-.58203 5.97656l-1.1328.46875m15.9414.33594l-2.50781-6.5664m2.14453 5.60937l-.8086.92578m15.82031-.875l-5.17187-4.75781m4.41797 4.0664l-.3086 1.1875m14.875-1.1914l-6.16796-3.36328m5.26953 2.875l-.01172 1.22656m14.65234-2.29688l-7.02343-.24609m6.0039.21094l.53516 1.10156m13.25781-3.07031l-5.9375 3.76172m5.07422-3.21485l1.0664.60547m13.63672 1.10547l-6.98828-.75781m5.97266.64844l.45312 1.14062m13.80079-2.22656l-6.83594 1.63281m5.83984-1.39453l.8125.91797m13.14453-2.0625l-6.125 3.44531m5.23438-2.94531l1.03125.66406m12.52734-1.99219l-4.83203 5.10157m4.1289-4.35938l1.1836.32813m13.875 2.125l-6.91016-1.28516m19.60547-1.4336l-5.67187 4.14844m4.84765-3.54296l1.10157.53515m11.1914-2.4375l-1.98047 6.74219m1.69141-5.76172l1.20313-.2461m11.08593-.85937l.64844 6.9961m-.64844-6.9961l2.05078-1.34765m10.69922 1.4453l1.77735 6.80079m-1.51563-5.8125l.90235-.83203m11.67968.0039l2.72266 6.48047m13.85547-6.19531L448.34375 323.5m3.2539-5.04688l1.22266.10547m13.64063.00391l-5.79688 3.96875"/><g clip-path="url(#ak)"><path fill="none" stroke="#000" stroke-linecap="round" stroke-linejoin="round" stroke-miterlimit="10" stroke-width=".5" d="M466.46094 318.5625l2.17578 1.13672"/></g><path fill="none" stroke="#000" stroke-linecap="round" stroke-linejoin="round" stroke-miterlimit="10" stroke-width=".5" d="M465.61719 319.14063l1.08594.5703"/><path fill="#00f" fill-rule="evenodd" d="M397.11719 458.77344h8.61719V448.625h-8.6172v10.14844"/><path fill="azure" fill-rule="evenodd" d="M398.94922 450.45703h.83203v2.82422h3.28516v-2.82422h.83593v6.48047h-.83593v-2.91406h-3.28516v2.91406h-.83203v-6.48047"/><path fill="#ff3030" fill-rule="evenodd" d="M331.23438 441.01953h7.6914V430.8711h-7.6914v10.14844"/><path fill="azure" fill-rule="evenodd" d="M333.0664 432.70703h.83594v5.73828h3.19141v.73828h-4.02734v-6.47656"/><path fill="#ff3030" fill-rule="evenodd" d="M184.76953 418.82813h7.6914v-10.14844h-7.6914v10.14844"/><path fill="azure" fill-rule="evenodd" d="M186.60156 410.51172h.83203v5.74219h3.19532v.73828h-4.02735v-6.48047"/><path fill="#00f" fill-rule="evenodd" d="M224.01953 418.82813h8.61719v-10.14844h-8.61719v10.14844"/><path fill="azure" fill-rule="evenodd" d="M225.85156 410.51172h.83594v2.82422h3.28516v-2.82422h.83203v6.48047h-.83203v-2.91406h-3.28516v2.91406h-.83594v-6.48047"/><path fill="#00f" fill-rule="evenodd" d="M370.48438 401.07422h8.62109v-10.14844h-8.6211v10.14844"/><path fill="azure" fill-rule="evenodd" d="M372.3164 392.76172h.83594v2.82031h3.28516v-2.82031h.83203v6.47656h-.83203v-2.91406h-3.28516v2.91406h-.83593v-6.47656"/><path fill="#ff3030" fill-rule="evenodd" d="M206.96094 361.1289h7.6914v-10.14843h-7.6914v10.14844"/><path fill="azure" fill-rule="evenodd" d="M208.79297 352.8164h.83203v5.73829h3.19531v.73828h-4.02734v-6.47656"/><path fill="#ffffe0" fill-rule="evenodd" d="M303.25781 348.04297h22.17969v-10.1914h-22.17969v10.1914"/><path fill-rule="evenodd" d="M306.7539 339.6836h.51173v6.29687h-.78907v-4.49219h-1.38672v-.55469l.5586-.0625.2539-.05468.22657-.08985.20312-.14062.17578-.21094.14063-.29297.10547-.39844m4.8164 0l.22656.01954.21875.05468.21094.08985.19531.12109.1836.15234.17187.17579.30079.41796.24609.4922.17969.54687.10937.57812.03906.59375-.03906.59375-.10937.58203-.1797.55469-.24608.5-.30079.42969-.17187.17969-.1836.15234-.1953.125-.21094.08984-.21875.0586-.22657.01953-.23047-.01953-.21875-.0586-.20703-.08984-.19922-.125-.18359-.15235-.17188-.17968-.30078-.42969-.24218-.5-.1797-.55469-.11327-.58203-.03906-.59375h.83593l.02735.5625.08203.5039.125.44532.16406.375.1914.30078.21094.21875.22266.13672.22656.04688.22656-.04688.22266-.13672.21094-.21875.1875-.30078.16406-.375.125-.44531.08203-.5039.03125-.5625-.03125-.5625-.08203-.5-.125-.4336-.16406-.36719-.1875-.29297-.21094-.21484-.22265-.1289-.22657-.04688-.22656.04687-.22266.1289-.21093.21485-.19141.29297-.16406.36719-.125.4336-.08203.5-.02735.5625h-.83594l.03907-.59376.11328-.57812.17969-.54688.24218-.49219.30079-.41796.17187-.17579.1836-.15234.19921-.1211.20703-.08984.21875-.05469.23047-.01953m5.08985 0h.5078v6.29688h-.78515v-4.49219h-1.38672v-.55469l.5586-.0625.25-.05468.23047-.08985.20312-.14062.17578-.21094.14063-.29297.10547-.39844m2.82421 2.17579h.78516l.01953-.31641.0625-.28516.09766-.2539.14062-.21485.1797-.17187.22265-.1289.26562-.08204.3086-.02734.23828.02343.22265.0625.20313.10157.17969.13671.14843.17188.11329.20703.07421.23438.02344.26562-.01953.26953-.0664.22266-.10938.19531-.15625.16797-.20313.16406-.24609.16406-.63281.39063-.53906.3125-.4375.3164-.34375.32423-.26563.33593-.1914.35156-.125.3711-.06641.39062-.02344.42188h4.21484v-.74219h-3.33593l.08593-.28515.11329-.23438.14843-.20313.1875-.17968.23047-.17188.27735-.17578.71875-.41406.41406-.20703.34765-.23047.27735-.25.22265-.26953.16016-.27735.11328-.28515.0625-.28516.01953-.28125-.03906-.38281-.1211-.34766-.1914-.3086-.25-.26171-.30078-.21094-.34375-.16015-.38281-.09766-.40625-.03516-.4336.03516-.39844.09766-.35546.16796-.3047.23438-.25.30078-.18358.375-.1172.44531-.03906.51954"/></g></defs><use xlink:href="#al"/></svg>