<svg xmlns="http://www.w3.org/2000/svg" role="img" xmlns:xlink="http://www.w3.org/1999/xlink" viewBox="142.45 309.95 326.84 171.84"><defs><clipPath id="a"><path d="M144 449h1v31.32813h-1zm0 0"/></clipPath><clipPath id="b"><path d="M144 311.67188h1V449h-1zm0 0"/></clipPath><clipPath id="c"><path d="M144 311.67188h324v168.65625H144zm0 0"/></clipPath><clipPath id="d"><path d="M467 463h1v17.32813h-1zm0 0"/></clipPath><clipPath id="e"><path d="M467 311.67188h1V463h-1zm0 0"/></clipPath><clipPath id="f"><path d="M144 479h4v1.32813h-4zm0 0"/></clipPath><clipPath id="g"><path d="M147 480h2v.32813h-2zm0 0"/></clipPath><clipPath id="h"><path d="M153 479h9v1.32813h-9zm0 0"/></clipPath><clipPath id="i"><path d="M160 480h2v.32813h-2zm0 0"/></clipPath><clipPath id="j"><path d="M166 479h9v1.32813h-9zm0 0"/></clipPath><clipPath id="k"><path d="M173 480h3v.32813h-3zm0 0"/></clipPath><clipPath id="l"><path d="M180 479h8v1.32813h-8zm0 0"/></clipPath><clipPath id="m"><path d="M187 480h2v.32813h-2zm0 0"/></clipPath><clipPath id="n"><path d="M193 480h9v.32813h-9zm0 0"/></clipPath><clipPath id="o"><path d="M200 480h3v.32813h-3zm0 0"/></clipPath><clipPath id="p"><path d="M206 479h9v1.32813h-9zm0 0"/></clipPath><clipPath id="q"><path d="M213 479h3v1.32813h-3zm0 0"/></clipPath><clipPath id="r"><path d="M220 479h8v1.32813h-8zm0 0"/></clipPath><clipPath id="s"><path d="M227 479h2v1.32813h-2zm0 0"/></clipPath><clipPath id="t"><path d="M233 479h8v1.32813h-8zm0 0"/></clipPath><clipPath id="u"><path d="M239 480h2v.32813h-2zm0 0"/></clipPath><clipPath id="v"><path d="M246 479h9v1.32813h-9zm0 0"/></clipPath><clipPath id="w"><path d="M253 480h3v.32813h-3zm0 0"/></clipPath><clipPath id="x"><path d="M260 479h8v1.32813h-8zm0 0"/></clipPath><clipPath id="y"><path d="M267 480h2v.32813h-2zm0 0"/></clipPath><clipPath id="z"><path d="M273 479h8v1.32813h-8zm0 0"/></clipPath><clipPath id="A"><path d="M279 480h2v.32813h-2zm0 0"/></clipPath><clipPath id="B"><path d="M286 478h8v2.32813h-8zm0 0"/></clipPath><clipPath id="C"><path d="M292 480h2v.32813h-2zm0 0"/></clipPath><clipPath id="D"><path d="M300 478h7v2.32813h-7zm0 0"/></clipPath><clipPath id="E"><path d="M314 477h6v3.32813h-6zm0 0"/></clipPath><clipPath id="F"><path d="M328 477h5v3.32813h-5zm0 0"/></clipPath><clipPath id="G"><path d="M342 476h4v4.32813h-4zm0 0"/></clipPath><clipPath id="H"><path d="M355 476h4v4.32813h-4zm0 0"/></clipPath><clipPath id="I"><path d="M368 476h4v4.32813h-4zm0 0"/></clipPath><clipPath id="J"><path d="M382 476h4v4.32813h-4zm0 0"/></clipPath><clipPath id="K"><path d="M393 478h8v2.32813h-8zm0 0"/></clipPath><clipPath id="L"><path d="M393 480h2v.32813h-2zm0 0"/></clipPath><clipPath id="M"><path d="M408 476h5v4.32813h-5zm0 0"/></clipPath><clipPath id="N"><path d="M421 477h6v3.32813h-6zm0 0"/></clipPath><clipPath id="O"><path d="M434 477h5v3.32813h-5zm0 0"/></clipPath><clipPath id="P"><path d="M447 477h6v3.32813h-6zm0 0"/></clipPath><clipPath id="Q"><path d="M462 476h3v4.32813h-3zm0 0"/></clipPath><clipPath id="R"><path d="M144 466h4v2h-4zm0 0"/></clipPath><clipPath id="S"><path d="M144 453h4v1h-4zm0 0"/></clipPath><clipPath id="T"><path d="M144 440h4v1h-4zm0 0"/></clipPath><clipPath id="U"><path d="M144 426h4v2h-4zm0 0"/></clipPath><clipPath id="V"><path d="M144 411h4v5h-4zm0 0"/></clipPath><clipPath id="W"><path d="M144 397h3v7h-3zm0 0"/></clipPath><clipPath id="X"><path d="M144 385h4v4h-4zm0 0"/></clipPath><clipPath id="Y"><path d="M144 372h4v3h-4zm0 0"/></clipPath><clipPath id="Z"><path d="M144 359h4v3h-4zm0 0"/></clipPath><clipPath id="aa"><path d="M144 345h4v4h-4zm0 0"/></clipPath><clipPath id="ab"><path d="M144 330h1v8h-1zm0 0"/></clipPath><clipPath id="ac"><path d="M144 328h2v3h-2zm0 0"/></clipPath><clipPath id="ad"><path d="M144 318h4v5h-4zm0 0"/></clipPath><g id="ae" clip-path="url(#clip1)"><path fill="#fff" fill-opacity="0" fill-rule="evenodd" d="M0 0h1000v1000H0zm0 0"/><path fill="#d3d3d3" fill-opacity="0" fill-rule="evenodd" d="M162.15234 355.86719l-.23437.29297.0586.23437.11718.17188.17578.23437.29297.34766.11328.0586.11719-.17188.0586-.23438.17577-.17578.46485-.17578h.69922l.23437.29297.28906.8164.0586.17579.17578.23046.35156.23438.69922.69922.17188.17578.23437.34765.23438.41016.28906.58203.41015.46485.23047.23437.23438.17578.11719.23047.17578.29297.17187 1.16406v.23438l.0586.28906.05859.11719.11719.11719.34765.41015.11719.17188.17578.17578.17578.23437.11719.17188.17188.35156.05859.23438.23437.40625.23438-.0586-.17578.17578-.0586.92969h-.58203l-.23437-.11328-.34766.11328-.11719.11719-.05859.29297-.0586.17578-.11718.17187-.46484.29297-.0586.23438-.0586.11328v.64453l.0586.17187v.41016l.0586.0586v.40624l.05859.40625.11719.17579.05859.05859.23047.64062-.0586.29297v.69922l-.05859.58203v.23438l-.0586.23047-.05468.35156v1.92187l.05469.1172h.42578l-.36719.11718-.02344.35156.89063 1.16797 1.74219.53906 1.33984.35938v.53906l.08984.8086.53516.71484 1.51953.26953.89063-.08594.08984 1.16406.53516.1797 1.16015-.1797 2.05469-.98437 1.16016-.36328 1.8789-.17578 1.69531-.1797-.17968.71876-1.51563.08594-1.25.08984-.80469.26953-1.07421.8086.26953.71875.53515.89843-.17968.625-.26563.8086.26563 1.07812.625.89844.80468.17969 1.25-.1797-.26562.72267.09766.5039.05468.29297v.17188l.0586.29296v.40625l.17578.1172.35156.11718h.40625l.29297-.17578.11328-.11719.0586-.11719.11718-.23047.0586-.17578.35156-.46484.23047-.17578.17578-.0586.17578.0586.0586.17578.11718.98828.05469.46875.0586.17188.11718.23437.17578.0586.8164.05859h.28907l.11719.23437.05859.40625.0586.35156v1.10547l.11718.29297.11719.34766.28906.69922.17578.35156.58203.7539.35157.17579.17187.0586.46875.23437.64063.46484.34765.23438.29297.17578.29297.05468.23047.0625.8164.34766.29297.17578.11328.17188.35157.35156.11719.17578.52343.64063v.28906l.0586.35156v.34766l.05859.35156.0586.28906.11718.0586.17188.05859h.17578l.58203.23437.17578.1172.17578.28905.17578.23438.11328.23437.29297.23047.11719.11719v.41016l.0586.05468.28906.23438.23437.11719.0586.11718.11718.17188.0586.11719.23047.23437.05859.17578.23437.0586.1172.05859-.1172.11328-.05859.11719v.11719l-.11719.29296-.11719.28907v.58203l.17579.11719.11718.05859.0586.11719.11719.11719.11328.05859.17578.34765.0586.35157.05858.40625v.17578l-.05859.17578-.11719.69922v.17187l.1172.17579.29296.29296h.40625l.17578.1172.11719.17187.11719.29296v.23438h-.52735l-.23047-.23438h-.23437l-.17578.0586-.0586.69922.0586.34765.11719.17579.17578.41015.11718.23047.28907.46875.17578.05469h.52344l.23437.0586.75781.64062.0586.29296v.23438l.05859.0586.23047.34765v.35156l-.11719.17188v.29297l.29297.28906.29297.17578.17187.0586.29297.17577.29297.1172.58203.40624.28906.23438.29297.17578.21875.16015.01563.01172.23047.17579.64062.52343.17578.23438.1172.17578.17577.17578.11328.17188v.64062l.1172.17578.46874.11719.58203.11719.23438.05859.23047.11328.29297.11719.11328.0586.58593.35156.28907.17187.17578.0625.17578.05469.17578.0586.69922.35155.28906.17579.23438.05468.28906.17578.23437.1172.64063.40624.29297.11719.17187.0586.23438.05859.41015.05859.23047.0586.23438.11718.0586.17188-.41017.17578.46875.0586.0586.29296.11328.23438.17578.05468.23438.0586.17578.05859.40625.11719.64062.23437.11719.17188.0586.23437v.17578l-.0586.1172-.0586.40624.23438.23438.11719.05859.34766.11719.64062.23047.17578.11718.28906.1172.17578.17577.23438.46485.58203 1.10546.17578.17579.34766.17578.17578.11719.35156.11718 1.04688.52344.23437.0586.46485.11327.29297.0586.46484.17578.75781.58203.23438.23438.34765.46484.17578.17578.28907.23438.8164.69921.29297.17579.28906.28906.29297.17578.29297.28906.69531.64063.17578.17578.29297.23437.28907.23438.46875.28906.64062.58203.34766.23438.23437.29297.34766.34765.35156.46485.9336.99218.34765.40625.11719.17579.23437.05859.11328.11719.64454.17578.23047.11328.23437.0586.29297.17577.23047.1172.9336.69921.40624.40625.23438.17578.40625.17578.23437.11719.8164.34766.34766.23437.23438.11719.29297.28906.23047.11719.7578.35156.35157.17188.23047.05859.29297.11719.23437.0586.8711.17577h.8164l.46875.23047.17188.0586.875.69921.46484.1172.29297.05858.17578.0586.23047.0586.46875.05859.34766.05859.35156.0586.40625.05859h.29297l.17187.0586v.23046l.17578.17578h.29297l.34766.0586.35156.05859.69922.11719h.64063l.46484-.23438.29297-.17578.17187-.11719.41016-.17187.28906-.17578.9336-.46485.46875-.29297.52343-.29296.46485-.17188.46484-.17578 1.05078-.46485.28906-.11718.41016-.11719.28906-.11719.52735-.17578 1.51562-.69922.58203-.34765.28907-.0586.29297-.0586.34765-.11718.875-.23047.35156-.11719h.11329l.23437-.05859.875-.23437.23438-.0586h.8125l.35156-.0586.8164-.11718.17188-.0586.35156-.05468.29297-.0586.23047-.05859.8164-.17578.17579-.0586h.34765l.23438-.05859.46484-.11718.75781-.17188.23438-.0586h.34765l.41016-.11718.28906-.0586 1.28516-.05859h.28906l.41016-.0586.23047-.05858h.17578l.875-.1172h.40625l.41015-.11718h.34766l.35156-.11328.8711-.0586h1.75l1.04687.28907.41016.11719.28906.11718.35156.11719.28907.11719 1.05078.17187.28906.0586h.29297l.29297.05859.17187.0586.41016.05859.17187.0586.1172.05858h.11718l.11719.0586.35156.0586h.11328l.41016.0664 1.92187.39453 1.92578.39453 1.51953.44922 1.69532.71875 2.14453.80469 1.60547-.71875 1.42968-.80469 1.16016-1.07813 1.25-.44921 3.03516-.71875 1.875-.35938 2.14453-1.34765 2.23437-1.25391 2.5-1.25781 1.69531-.44922 1.78516-.17969 1.16016-.26953.625.53906 1.33984-.26953.71485-.98828.98437-1.34375.44531-.17969.80469-.35937 1.875-.53907 1.78516-.44921 1.25-.26954 1.16015-.08984 1.69922-.08984 1.96094-.26954 1.25-.08984h.53906l.625-.08984h.89063l2.14453-.17969 2.41015-.17969 2.58985-.08984 1.69531.17969 1.60938.08984 1.42968.35938 1.16016.71875 1.875.98828 1.16015 1.52734.26563.71484.6289.08985.35548.89844.53515.53906.53516 1.52734 1.07422.35938h.53515l-.80469.53515.08985 1.70703.71484 2.69532.89063.80468.89453.98829.71484 1.2578 1.78516.53907 1.51953-.17969.35547 1.34375 1.60937-.80469.98047-.53906.26953.26953.31641-.21484.21875-.14453.80078.44922.44922-.35938h.35547l.53515-.26953.53907-.71875.53515-.26953.625-.98828 1.16016.44922.83984.3711 1.39454.61718 1.6953-.17969h1.60548l1.78515.08985.17969-1.70704.53516-1.34375.80468.26954.4922.84765.40233.40625-.08984.53906v.35938l.71485.44922.71093-.26953h1.42969l.35938.98828.4453 1.25781.71485 1.34375 1.25.6289 1.69531.62891.71485-.17969.17969-.53906.98046-.08984.44922.35937.08594 1.25782-.26563.6289-.53515.17969v.53906l.71484.98438.26563.53906.98437.98828.80078 1.07813-.26562.35937-.08985.89844-.625 2.33203-.35546 2.0664-.08985 1.79298-.17969.71875-.08984.53906v1.4375l-.98047 1.88281-.35937 1.70703-.53516.89844-.80469 1.16797-.26562.53906 2.05469 1.2539.08593.35938-.35546.53906-.08985-.17968v.80859l.08985 1.4375-.44532.71484-1.07422.09375-.26562.71485.53515.89844.8047.71875 1.16015.80859 1.33984.26953.44531.35938-.35546.44921-1.78907-.08984-1.25-.44922-.71484-.71875-.625-.08984-.17578 3.58984-.1875 1.3086h89.35937V311.70313h-55.26953v49.08203l.76172.125 3.28906.54296 2.02344 2.83594v2.7539l2.35156.33204 2.34766.33203h4.05078l-1.3789 4.16016-2.02344.70703-2.02344.70312-.54297.34375-2.59375 1.6172-.1875.11718-2.02344-2.07813-.73046-2.74218-2.67188-2.07813-1.375-3.5-.0664-.08203-1.95704-2.67188 2.75-1.41796v-49.08204H294.42187v91.41407l.1172.03125.1328.01172.07422.07421.10547.04688.08985.0586.08593.05859.08985.0586.29687.29687.0586.08984.03125.11719.02734.11719.01563.13671-.03125.1172-.0586.08983-.0586.08594-.04296.10547-.04688.10156-.02734.1211v.14453l.17578.26953.14844.14844.07422.08594.07422.07421.04296.10547.0625.08985.0586.08593.04297.10547.0586.08985.04687.10156.04296.10547.0586.08594.11719.17968.07421.07422.0625.08594.0586.08984.04297.10547.0586.08985.05858.08593.0625.08985.0586.08984.04297.10156.11719.17969.07421.07422.0586.08594.07422.07421.08984.0586.10547.04687h.14844l.1328-.01562.13282.01562.10156-.04687.07422-.07422.04688-.10156-.01563-.13281v-.14844l-.04687-.10547-.02735-.11719-.04687-.10156-.02735-.1211-.04296-.10156-.0625-.08984-.04297-.10156-.04297-.10547-.03125-.11719-.01563-.13281-.01171-.13672.08593-.0586.0586-.08593.12109-.03125.04297.10547.01562.1328v.1172l.0586.10156.0586.08984.08983.0586.14844.14843.0586.08985.04296.10547-.01171.10156.08593.0586.10547.04687.08594.0586.08984.05858.07422.07422-.11719.02735-.10546.04687-.08594.0586-.07422.07421-.0586.08985-.0625.08594-.02734.12109-.04687.10156-.04297.10547-.03125.11719-.01172.13281-.01563.13281v.14844l.02735.11719.04687.10547.04297.10156.0586.08984.07421.07422.08985.0586.07422.07421.08984.0586.0586.08984.04296.10547.04688.10156.11719.03125.1328.01563h.14845l.11718-.03125.10547.04297.04297.10547.04688.10156.02734.1211L299.5 410l.02734.11719.03125.1211.02735.11718.10547.04297.10156.04687.13281-.01562.14844.14844.0625.08593.07422.07422.07031.07422.08984.0625.10547.04297.10156.04297.1172.03125.13671.01562.11719-.03125.07422-.07422.02734-.11718-.01172-.13282-.03125-.12109-.02734-.11719.04297-.10547h.11719l.08984.0625.11719.02735h.14843l.13282.01562h.14843l.13282.01563.1328-.01563h.14845l.1328-.01562.13282-.01172.13672.01172.11719-.02735.13281-.01562.1914-.0586-.05859.17579-.01562.1328-.02735.1211-.01562.13281-.0586.08594-.1328.01563-.10548.04687-.10546.04297-.1172.03125-.11718.02735-.26563.03125h-.14843l-.13281.01562-.07422.07422.05859.08594.14844.14843.11719.1797.07421.0703.08985.0625.08984.0586.08594.0586.08984.05858.10156.04297.10547.0625.10547.04297.08594.0586.10547.04687.10156.04297.17969.11719.0586.08984-.04298.10156-.04687.10547.01562.13281.22266.22266.0586.08985.04296.10156.03125.1211.04297.10155.01563.13282.03125.11718.01171.13672.03125.11719.14844.14844.10156.04297.10547.04296.1172.03125.1328.01563.13672.01563h.11719l.11719-.03125.08984-.0586.04297-.10547.04688-.10156.04296-.10547.03125-.11719.01172-.1328v-.14845l-.01172-.1328-.01562-.13282-.03125-.11719-.04297-.10547-.04688-.10547-.04296-.10156-.04297-.10547-.01563-.13281.01563-.13281.02734-.11719.03125-.11719.02735-.1211.04687-.10155.08984-.0586.08594-.0625.07422-.07422.08984-.05859.22266-.22266.0586-.08593.07421-.07422.11719-.17969.0586-.08594v-.14844l-.07423-.07421-.10156-.04688-.10547-.04297-.10156-.04297-.0586-.08984-.04687-.10547-.02734-.11719.08984-.05859.11719-.03125.10156-.04297.17969-.11719.14844-.14843.01172-.13282-.01172-.10546-.08985-.0586-.1328.01563h-.14845l-.1328.01562-.13282-.01562-.1211-.03125-.08593-.0586-.07422-.07422-.0586-.08984-.0625-.08594-.11718-.17969-.0586-.08593.03125-.1211.08594-.05859.1211-.03125.05859-.08594v-.1211l-.03125-.11718-.0586-.08984-.05859-.08594-.04687-.10547-.02735-.11719-.01562-.1328.0586-.08985.07421-.07422.08984-.0586.1172-.17968.07421-.07422.0586-.08594.14843-.14844.1211-.03125.1328-.01562.13282.01562.07422.07422.04297.10547.01562.13281-.03125.1172-.11719.03124-.1328.01172-.14844.14844-.04297.10547-.04688.10156-.02734.1211-.03125.11718v.14844l.03125.11719.04297.10546.05859.08985.07422.07031.07422.07422.11719.03125.12109.02734.11719-.02734.1328-.01563h.1172l.08984.0586.07422.07422.04687.10546.0586.08594.10156.04688.13281.01562.10547.04297.08594.0586-.01172.10546-.07422.07422-.17969.11719-.05859.08984-.08984.0586-.07032.07422-.07421.07421-.0625.08985-.02735.11719-.01562.1328.01562.13282-.01562.13281v.14844l.01562.13281.02735.1172.03125.12108.07421.07422.08985.0586.08594.0586.08984.05858.11719.03125v.08594l-.10157.04688-.08984.0586-.26563.03124-.11718.02735h-.14844l-.10547.04296-.10156.04688-.0586.08984-.0625.23438-.01171.13281-.03125.1211-.01563.1328v.29298l-.01172.1328.01172.13673.01563.1328.1328.01563.13282.01172.1211.03125.08593.0586.07422.07421.04688.10547.04296.10157.01563.1328v.44532l-.01563.13281v.44532l.03125.26562.02735.11719.01562.13281.03125.11719.08594.21094.03125.26562v.14844l-.03125.11719-.02734.11718-.03125.1211-.02735.11719-.03125.11718-.03125.1211-.01171.1328-.01563.13282.08984.0586.1172-.03125.10155.01562.04688.10547-.03125.26562v.44141l-.04297.10547-.04688.10547-.04296.10156-.04297.10547-.0586.08594-.03125.12109-.04296.11719-.03125.11719-.01563.1328.01563.13282.05859.08984.10547.04688.08594.0586.05859.08593-.01172.13672-.03125.11719-.04297.10156v.44531l-.01562.13281v.14844l-.03125.11719-.04297.10547-.02735.11719-.04687.10546-.04297.10157-.03125.12109-.02734.11719-.03125.13281-.03125.11719-.02735.11719-.04297.10546-.03125.1172-.03125.12108-.01171.13282-.01563.13281v.29688l.02734.11718v.14844l.04688.39844.02734.11719.0586.08984.12109.03125h.14844l.13281-.01563.0586.08985v.11719l-.0586.08984-.08984.0586-.10157.04296-.10546.04688-.08985.05859-.08594.0586-.13671.01562-.1172-.03125-.1328-.01563-.10157.04688-.0625.08594-.01172.13671-.01562.13282-.03125.11719-.02735.11718-.01562.13281-.03125.1211v.29687l.01563.13282.03125.11718v.14844l.01171.13281v.14844l-.02734.11719-.04688.10156-.02734.1211-.03125.11718-.0586.08985-.07421.07421-.10156.04297-.10547.04688-.11719.02734-.1211.03125-.10156-.04687.0586-.08594.10547-.04688.02734-.11718.03125-.11719.02734-.1211.03125-.11718v-.14844l.01563-.13281-.03125-.11719-.04297-.10547-.10547.01563-.07422.07422-.10156.04296-.08984.0625-.07422.07422-.04297.10157-.01563.1328-.03125.1172L304.25 426l-.03125.11719-.02734.11719-.03125.12109-.02735.11719-.03125.11718-.04297.10547-.08984.0586h-.08984l-.1172-.03125-.03124-.08594.01562-.13672-.03125-.11719v-.14844l-.01171-.1328v-.14844l-.0625-.23438-.02735-.1211-.04297-.10156-.04687-.10546-.0586-.08594-.05859-.08985-.04297-.10546-.0625-.08594-.14844-.14844-.0703-.07422-.10548-.04687-.10547-.04297-.10156-.04297-.29687-.29688-.08985-.07421-.08594-.0586-.10546-.04297-.08985-.0625-.08594-.0586-.10546-.04296-.08985-.0586-.08594-.0625-.07421-.0703-.10547-.04688-.08594-.0586-.10547-.04296-.08984-.0625-.10156-.04297-.10547-.04297-.08594-.0586-.10547-.04687-.10547-.04297-.10156-.04687-.08985-.0586-.10156-.04297-.10547-.04296-.08984-.0625-.11719-.02735-.13281-.01562-.13281.01562H299.75l-.13281.01563-.11719-.03125-.08984-.0586-.07422-.07422-.08985-.05859-.10156-.04688h-.14844l-.12109-.02734-.10156-.04297-.07422-.07422-.11719-.17968-.08984-.0586-.10156-.04297-.08985-.0625-.10547-.04296-.08984-.0586-.08594-.0586-.10547-.04687-.0586-.08594-.05858-.08984-.04297-.10547-.04688-.10156-.07422-.07422-.08594-.0586-.07421-.07421-.08985-.0586-.22265-.22265-.04297-.10547-.03125-.26563.10547-.04296h.14453l.10547.04296.07421.07422.08985.0586.08594.0586.10546.04687.08985.05859.14844.14844.0703.07422.14845.14843.0625.08594.07421.07422.08594.0586.07422.07421.08985.0625.08984.0586.08594.05859.26953.17578.10156.04688.10547.04296.10156.04297.04688-.07421.05859-.08594.07422-.07422.07031-.07422.10547.04297.07422.07422.0586.08984.04296.10156.04688.10547.04296.10547.1211.02735.11719-.02735.07421-.08984.04297-.10547.0586-.08985.07422-.07421.10546-.04297.1172-.02735.1328.01172.08985.0586.14844.14843.05859.08985.04297.10547.04687.10156.04297.10547.04297.10156.10547.04688.10547.04296.13281.01563.08594-.0586.0586-.08984.07421-.07422.10547-.04297.11719.02735.10547.04687.10156.04297.10547.04297.10156.04688.17969.11718v.11719l-.01563.13281.01563.13281.01562.13672.0586.08594.10156.04688.1211.02734.11718.03125h.14844l.11719-.03125.05859-.08984.17969-.1172.05859-.08983.07422-.07422.0586-.08594.11718-.17969.17969-.11719.11719.03125.08984.0586.04297.07422-.01563.1328v.1172l.08985.05859h.14843l.13282-.01563.1328-.01171.26563-.03125.10547-.04297.11719-.03125.1211-.02735.07421-.07421.07031-.07422.0625-.08985-.01562-.10547-.04688-.10156-.10156-.04297-.10547-.01562-.11718.02734-.26563.03125h-.14844l-.07421-.07422-.08985-.0586-.11719-.03124-.11718-.02735-.13282-.01562h-.14843l-.13282.01563h-.29687l-.10547-.04688-.14844-.14844-.04297-.10156-.05859-.08984.22266-.22266.08593-.0586.10547-.04296.11719-.03125.13281-.01563.13281.01563.13672.01562.10157.04297.1328-.01172.08985-.0625.10156-.04297.0625-.08984-.04687-.10156-.08984-.0586-.1172-.03125-.10155-.04296-.0586-.08985-.0625-.08984v-.11719l.01563-.13281.10547-.04688.07421-.07031v-.1211l-.08984-.05859-.03125-.11719.08985-.05859.07421-.07422.04297-.10547.0586-.08984.04687-.10156.01563-.13281v-.14844l-.04688-.10547-.04297-.10156-.08984-.0586-.13281-.01562-.10157-.04297-.13671-.01563-.1172-.03125h-.4453l-.13282-.01562-.13281-.01172-.13281-.01563-.11719-.03125h-.14844l-.13281-.01562-.13281-.01172-.26563-.03125-.1211-.04297-.08593-.0586-.07422-.07421v-.14844l.01172-.13281.10547-.04688.10156-.04296.13281-.01563h.15235l.13281-.01562h.29297l.1211.03125.10156.04296.08984.0586.23438.0625.12109-.04688.08984-.05859.10156-.04297.13282-.01562.10547.04296.10156.04688.13281.01172.1211-.02735h.14453l.12109-.03125.11719-.02734.10547-.04687.07421-.07422.08594-.0586.14844-.14843.0586-.08594.04687-.10547.02734-.11719.01563-.10547-.10156-.04296-.08985-.0586-.11719-.03125-.10546-.04297-.08985-.0625-.07422-.08594-.07422-.07421-.10156-.04297-.10547-.04688-.10156-.04297-.0586-.08984-.04687-.10156-.08594-.21094-.0625-.08594-.05859-.08984-.07422-.07422-.08594-.0586h-.26953l-.11719.03126-.08984.05859-.10156.04297-.13281.01562-.10547-.01562-.02735-.11719-.0625-.08984-.11718-.03125-.10157-.04297-.14843-.14844-.03125-.11719-.01563-.10546.07422-.07422.17969-.1172.11719-.02733.11718-.03125.13672.01562.10156.04297.10547.04297.10156.04687.10547.04297.1172.03125.1328.01563.1172.02734.1328.01563.10547-.01563.08985-.0586-.07422-.07421-.10547-.04297-.07422-.07422-.07422-.08984-.14844-.14844-.08593-.0586-.08985-.05859-.07422-.07422-.08984-.0586-.10156-.04687-.1211-.02734-.10156-.04688-.10547-.04296-.11719-.03125-.10156-.04297-.1211-.03125h-.14843l-.11719.03125-.10546.04297-.08594.0625-.17969.11718-.08594.0586-.08984.0586-.10547.04687-.08594.05859-.10547.04297-.10156.04297-.10547.04687-.07422.07422-.05859.08985-.0586.08593-.04687.10547-.0586.08594-.07421.07422-.13281-.01172-.1172-.03125h-.11718l-.07422.07422-.08984.0586-.07422.07421-.08984.0586-.08594.05859-.10547.04687-.10156.04297-.13672.01563-.10156-.04297-.14844-.14844-.10547-.04688h-.08594l-.10547.04688-.10156.04297-.1211.03125-.11718-.03125-.07422-.07422v-.11719l.03125-.1211.07422-.0703.0586-.08985.07421-.07422.11719-.03125.10547-.04296h.29297l.13281-.01563.13672-.01563.10156-.04296.08985-.0586.10156-.04687.08984-.0586.13281-.01171.08985.05859.13281.01172.08984-.0586.08594-.05859.10547-.04297.08984-.0586.08594-.0625.08985-.05859.14843-.14843.0586-.08594.05859-.08985.10547-.04296.13281-.01563.11719.02735.1211.03125.05859-.0586.05859-.08984.03125-.26563.02734-.11719.10547.01172.13281.01563.10157-.04297.08984-.0586.0586-.08984.07421-.07422.0586-.08984.04687-.10156.01172-.13281-.01172-.13282-.04687-.10547-.14844-.14843-.0586-.08985-.05859-.08594-.04297-.10546v-.44532l.01563-.1328v-.14845l.01172-.1328-.0586-.0586-.08984.0586-.10156-.04298-.17969-.11719-.08594-.05859-.0625-.08984-.0586-.08985-.07421-.07421-.08594-.0586-.1211.03125-.10155.01172-.10547.04688-.08594.05859-.10547.04297-.14844.14844-.08984.05859-.08594.0586-.08984.0625-.10547.04296-.13281.01563v-.1211l.10547-.04297.11718-.03125.07422-.0703.04297-.10548v-.14844l-.02734-.11718-.14844-.14844-.13281-.01563h-.14844l-.11719.03125-.10547.04297-.10156.04297-.08984.0625-.11719.02735-.07422-.07422.01172-.13281-.04297-.10157-.04297-.10547-.08984-.05859-.11719.02734-.1211.03125-.11718.03125-.10156.04297-.1211.03125-.10156.04297-.10547.04297-.08984.0586-.10156.01562v-.11719l.01562-.13281-.0586-.08985-.07421.04297-.14844.14844-.0586.08985-.07421.07421-.04688.10547-.04296.10156-.07422.07422-.0586.08985-.07422.07422-.05859.08593-.07422.07422-.08984.0625-.07422.07031-.07422.07422-.10156.01563-.13281.01562-.10547-.04296v-.1211l.14843-.14844.04297-.10156.0586-.08984.04687-.10156.04297-.10547.0586-.08985.03124-.11719.04297-.10156.03125-.1211.02735-.11718.04687-.10547.04297-.10156.04297-.10547.07422-.07031.08984-.0625.08985-.0586.10156-.04296h.29687l.26563-.03125.10547-.04297-.07422-.07422-.11719-.03125-.10547-.04297-.08984-.0586-.10156-.04687-.08985-.0586-.10156-.04296-.10547-.04297-.08984-.0625-.08594-.0586-.10547-.04296-.10156-.04297-.1211-.03125-.11718-.03125-.10157-.04297L297.5 410.25l-.10156-.04297-.08985-.0586-.04296-.10546-.01563-.13281.10156-.04297.13281-.01563.13672.01563.13282-.01563.10156-.04297.0586-.08984.01562-.10547-.08985-.0586-.07421-.07421-.10157-.04297-.08984-.0586-.14844-.14843-.04297-.10547-.01562-.13281v-.29297l-.0586-.08985-.08984-.05859-.07422-.07422-.04297-.10547-.03125-.11718-.0586-.08985-.07421-.07422-.11719-.02734-.07422-.07422-.08984-.0586-.08984-.0625-.08594-.05859-.07422-.07421-.0586-.08594-.04687-.10547-.08594-.0586-.14843-.14843-.19532-.0586-.1328.01563-.10157.04297-.07422.07422-.04688.10156-.04296.10547-.0586.08984-.0586.08594-.29687.29687-.08984.0586h-.08594l-.0625-.08594-.04297-.10547.03125-.11719.0586-.08984.02734-.11719-.01172-.13281-.08984-.0625-.10547.04688-.11719.02734-.11719.03125-.26953.17578-.10156.04688-.11719.02734-.10546.04687-.08985.0586-.10156.04297-.0586-.08594-.04687-.10547.01563-.13281.04687-.10547.07031-.07422.07422-.07031.0586-.08985v-.14843l-.04297-.10547h-.23829l-.10156.04687-.03125.11719-.02734.11719-.03125.1211-.07422.04296-.13281.01563-.07422-.04688-.04297-.10156-.04297-.10547-.04687-.10156-.04297-.10547-.1211.03125-.10156.04297-.13281.01562-.11719.03125-.10547.04297-.08984.0586-.10156.04687-.1211.02734-.13281.01563-.10156-.04297-.0586-.08985-.04687-.10546-.04297-.10157-.04297-.10546v-.1172l.0586-.08984.08593-.05859.17969-.11719.10156-.04687.10547-.04297.10547-.0586.10156-.04296.08985-.0625.10156-.04297.10547-.0586.10156-.04687.08984-.0586.10547-.04296.10156-.04297.08985-.0625.10156-.04297.13672-.01563.11719.03125.10156.04297.1211.03125.10156.04297.10546.04688.10157.04296.10547.04297.10156.04688.10547.04297.10156.04297.10547.04687.08594.0586.10546.04296.1172.03125.10546.04297.10156.04688.08985.0586.10547.04296.10156.04297.10547.04687.11719.02735.10156.04687.1211.02735h.14843l.08594-.0586.01562-.10156.0586-.08984-.02735-.1172-.07422-.07421-.11719-.17969-.07421-.07422-.08985-.07421-.17969-.1172-.08593-.05859-.10547-.04296-.10156-.04688-.26954-.17578-.05859-.08985-.07422-.07421-.0586-.08985-.04296-.10156-.03125-.11719-.01563-.13672v-.5625l-.01171-.1328-.01563-.13282-.03125-.11719-.01562-.13281-.01172-.13281-.03125-.1211-.22266-.22265-.0586-.08594-.01562-.10547.03125-.11719.13281-.01562v-91.41406H172.9922v1.45312l-.0586.23438-.35156 1.05078-.17187.52343-.1172.34766-.17577.41016-.11719.17187-.23438.29297-.23046.0586h-.35157l-.11718.05859-.23047.40625v.29297l.11719.17578.23046.23047.1172.23437.64062.75781.29297.46485.17578.23437.23047.35156.23437.34766.64063.8164.17578.46485.17187.41016.11719.69531.17578.46875.11719 1.39844.0586.46484v.875l.11718 1.04688v4.78125l-.0586.46484-.35156 1.28125-.17578.52344-.11328.41015-.35156.9297L172.93359 336l-.23437.58203-.11719.17578-.17187.34766-.17578.40625-.35157.8164-.0586.29297-.11327.29297-.11719.28906-.0586.17579-.11718.875-.0586.40625-.05859.11718-.0586.17579-.05859.17187-.23047.52734-.11718.17188v.23437l-.11719.23438-.0586.17187-.17577.58594v.28906l-.0586.17579v.29296l-.0586.11329-.05859.52734v.17187l-.05468.23438v2.6211l-.17578.8164-.1172.17578-.17577.23438-.1172.17187-.11327.23438-.58594.93359-.23047.28906-.29297.46485-.17578.23437-.28906.35156-.35156.69922-.11328.23047-.17579.41016-.17578.23046-.40625.52735-.8164.69922-.29297.17187-.28906.23438-.17579.11719-.17578.17578-.52344.40625-.52734.17578-.17187.17578-.23438.05469-.64062.17578h-.75782m12.21094 31.02344l-1.07422.44921.35938.89454 1.25-.71485.44531-.53906-.98047-.08985"/><path fill="#d3d3d3" fill-opacity="0" fill-rule="evenodd" d="M201.50781 416.59766h-.89453l.44922.6289.98047.35938.80469-.08985.4453-.98828-.17577.08985-.71485-.35547-.89453.35547m154.6211 59.0703l-.0586-.52343v-.29297l.11328-.29297.0586-.23046.46875-.46875h.11328l.11719-.11329.11718-.05859h.17579l.23437-.0586h.34766l.23437.0586.11719.0586.23047.17187.0586.17578.11718.58203v.29297l-.11719.17578-.17187.28906-.17579.17579-.52734.52343-.23047.23438-.11719.0586h-.17578l-.11718-.0586-.40625-.29297-.17579-.11719-.11718-.0586-.0586-.11327-.05468-.1172m6.64062-10.95702l-.0586-.17188v-1.10937l.0586-.17188.17578-.0586.17188-.05858h.17578l.23437-.0586.1172.0586.05858.69921-.05859.17188-.11719.17578-.11718.0586-.23438.52343-.11328.0586h-.23438l-.05859-.1172m9.61328-14.39062l-.11719-.17578v-.69922l.29297-.875.1172-.17187.17577-.35156.11328-.23047.1172-.29297.35155-.75781.1172-.23047.17187-.23438h.17578l.11719-.0586h.64062l.11719.0586.23437.23438.17188.11328.35156.29297.11719.11718.11328.17579v.11328l.11719.05859.11718.11719v.69922l-.05859.17578v.23047l-.0586.17578-.34765 1.05078-.11719.23047-.11719.23437-.11718.0586-.23047.23437-.64063.28906h-.875l-.41015-.11718-.64063-.46485"/><path fill="none" stroke="#bebebe" stroke-linecap="round" stroke-linejoin="round" stroke-miterlimit="10" stroke-width=".5" d="M467.95703 311.69531H144.02734v168.625h323.9297v-168.625"/><g clip-path="url(#a)"><path fill="#fff" fill-opacity="0" fill-rule="evenodd" d="M144 475.89063v4.4375h.0039H144v-30.37891 25.9414"/></g><g clip-path="url(#b)"><path fill="#fff" fill-opacity="0" fill-rule="evenodd" d="M144 444.82031v3.7539-136.90233h.0039H144V444.8203"/></g><path fill="#50fcfc" fill-rule="evenodd" d="M144 448.57422v1.375h.0039v-1.3711l-.0039-.0039"/><g clip-path="url(#c)"><path fill="#fff" fill-opacity="0" fill-rule="evenodd" d="M144.0039 480.32813v-30.37891l.53126-.6875-.53125-.6836V311.67188h26.625v125.8711l-4.4375.14062-4.4375 1.47266-3.46485 1.22656 3.46485 3.83594 4.4375-1.04297 4.4375-1.3086 2.27734-1.48437-2.27734-2.83984v-125.8711h13.3164v141.79688l-.46875.23047-3.96875 4.33203-4.4414-2.04688-4.4375 1.50391-4.4375-.1836-3.91797.83204-.51953.07422-2.52735 4.36328 2.52735 2.4336 4.4375-1 2.51172-1.4336 1.92578-3.26953 4.4375 1.4961 4.4414-1.75 4.4375 1.41405 4.4375-1.60546 3.03516-.72266-3.03516-.65625-4.21875-3.78125-.21875-.23047V311.67187h44.38281v116.85938l-2.8828 2.97656-1.5547 4.07813-4.4375-.29688-2.55468.65625-1.88281 2.70313-4.44141.82812-1.54688.90625 1.54688 1.88281 4.4414-.76562 4.4375-.92188 1.78125-.1953 2.65625-1.90235.51563-2.53516 3.92188-1.17578.46875 1.17578 3.96875 3.76953 4.4414-1.83593 2.01172 2.5039 2.42578 2.35547 4.4375-.86719 1.32813-1.48828-1.32813-1.55078-4.4375-1.3125-2.04687-1.57422-2.39063-2.3789-4.4414-1.58985-1.1797-.46875-3.2578-2.97656V311.67187h31.0703v121.94141l-3.14843 2.33203 3.14844 2.45703 2.15234-2.45703-2.15234-2.33203v-121.9414h8.875v116.29687l-3.58203 3.53906 3.58203 2.85547 4.4375-1.1914 4.4414-1.375.71485-.28907-.71485-.41797-4.4414-1.79296-4.4375-1.32813V311.67187h22.1914v122.6211l-4.4375.03125-2.29296 1.6211 2.29296 1.49609 4.4375.1328 1.66407-1.6289-1.66407-1.65234v-122.6211h84.32813v127.46875l-1.39844 1.2422 1.39844 1.7578 3.4336 2.6797-3.4336 1.7539-1.73438 2.6875 1.73438 1.61328 1.79297-1.61328 2.64844-3.92969.5703-.51172-.5703-.63672-3.22657-3.80078-1.21484-1.24219V311.67188h13.3164V454.9336l-4.4375 1.6211-1.58984 1.58203-1.8789 4.4375 3.46875 3.01172 1.15234 1.42969 3.28515 3.29296 4.4375-1.13671 3.7461-2.15625-1.02735-4.44141-1.125-4.4375-1.59375-2.58594-4.4375-.61719V311.67188h79.88672v150.43359l-.46484.46875.46484.46094v17.29296H144.00391"/></g><path fill="#50fcfc" fill-rule="evenodd" d="M144.53516 449.26172l-.53125.6875v-1.3711l.53125.6836m17.21875-5.04297l-3.46485-3.83594 3.46485-1.22656 4.4375-1.47266 4.4375-.14062 2.27734 2.83984-2.27734 1.48438-4.4375 1.3086-4.4375 1.04296m0 20.78906l-2.52735-2.4336 2.52735-4.36327.51953-.07422 3.91797-.83203 4.4375.1836 4.4375-1.50392 4.4414 2.04688 3.96875-4.33203.46875-.23047.21875.23047 4.21875 3.78125 3.03516.65625-3.03516.72265-4.4375 1.60547-4.4375-1.41406-4.4414 1.75-4.4375-1.4961-1.92578 3.26954-2.51172 1.4336-4.4375 1m48.8203-22.7422l-1.54687-1.8828 1.54688-.90626 4.4414-.82812 1.88282-2.70313 2.55469-.65625 4.4375.29688 1.55468-4.07813 2.88281-2.97656 3.25782 2.97656 1.17969.46875v2.46875l-1.5 1.5 1.5 1.42578 2.23046-1.42578-2.23047-1.5v-2.46875l4.44141 1.58985 2.39063 2.3789 2.04687 1.57422 4.4375 1.3125 1.32813 1.55078-1.32813 1.48828-4.4375.8672-2.42578-2.35548-2.01172-2.5039-4.4414 1.83593-3.96875-3.76953-.46875-1.17578-3.92188 1.17578-.51563 2.53516-2.65625 1.90234-1.78125.19531-4.4375.92188-4.4414.76563"/><path fill="#00e8fc" fill-rule="evenodd" d="M232.76563 437.3711l-1.5-1.42579 1.5-1.5 2.23046 1.5-2.23047 1.42578"/><path fill="#50fcfc" fill-rule="evenodd" d="M259.39844 438.40234l-3.14844-2.45703 3.14844-2.33203 2.15234 2.33203-2.15234 2.45703m8.875-4.03906l-3.58203-2.85547 3.58203-3.53906v3.39453l-.14453.14453.14453.11719.28515-.11719-.28515-.14453v-3.39453l4.4375 1.32813 4.4414 1.79296.71485.41797-.71485.28906-4.4414 1.375-4.4375 1.19141"/><path fill="#00e8fc" fill-rule="evenodd" d="M268.27344 431.625l-.14453-.11719.14453-.14453.28515.14453-.28515.11719"/><path fill="#50fcfc" fill-rule="evenodd" d="M286.02734 437.4414l-2.29296-1.49609 2.29296-1.6211 4.4375-.03124 1.66407 1.65234-1.66407 1.6289-4.4375-.1328m88.76563 13.43359l-1.73438-1.61328 1.73438-2.6875 3.4336-1.7539-3.4336-2.6797-1.39844-1.7578 1.39844-1.2422 1.21484 1.2422 3.22656 3.80077.57032.63672-.57031.51172-2.64844 3.92969-1.79297 1.61328m8.8789 14.71094l-3.46875-3.01172 1.87891-4.4375 1.58985-1.58203 4.4375-1.6211v3.17188l-.06641.03125-4.35547 4.4375 3.58203 4.4414.83985.83985 1.9414-.83985 1.75781-4.4414-3.64453-4.4375-.05469-.03125v-3.17188l4.4375.6172 1.59375 2.58593 1.125 4.4375 1.02735 4.4414-3.7461 2.15625-4.4375 1.13672-3.28515-3.29296-1.15235-1.4297"/><path fill="#00e8fc" fill-rule="evenodd" d="M387.26953 467.01563l-3.58203-4.44141 4.35547-4.4375.0664-.03125v3.10547l-1.35156 1.36328 1.35156 1.58594 1.13282-1.58594-1.13281-1.36328v-3.10547l.05468.03125 3.64453 4.4375-1.7578 4.4414-1.94142.83985-.83984-.83985"/><path fill="#00d4fc" fill-rule="evenodd" d="M388.10938 464.16016l-1.35157-1.58594 1.35156-1.36328 1.13282 1.36328-1.13281 1.58594"/><path fill="#50fcfc" fill-rule="evenodd" d="M467.9961 463.03516l-.46485-.46094.46484-.46875v.92969"/><g clip-path="url(#d)"><path fill="#fff" fill-opacity="0" fill-rule="evenodd" d="M467.9961 480.32813H468v-17.29297 17.29296h-.0039"/></g><path fill="#50fcfc" fill-rule="evenodd" d="M467.9961 462.10547v.92969H468v-.9297h-.0039"/><g clip-path="url(#e)"><path fill="#fff" fill-opacity="0" fill-rule="evenodd" d="M467.9961 311.67188H468v150.43359-150.4336h-.0039"/></g><g clip-path="url(#f)"><path fill="none" stroke="#000" stroke-linecap="round" stroke-linejoin="round" stroke-miterlimit="10" stroke-width=".5" d="M147.5 480.64844l-7-.64063"/></g><g clip-path="url(#g)"><path fill="none" stroke="#000" stroke-linecap="round" stroke-linejoin="round" stroke-miterlimit="10" stroke-width=".5" d="M147.5 480.64844l.94922 2.26562"/></g><g clip-path="url(#h)"><path fill="none" stroke="#000" stroke-linecap="round" stroke-linejoin="round" stroke-miterlimit="10" stroke-width=".5" d="M160.8086 480.6914l-6.98829-.72656"/></g><g clip-path="url(#i)"><path fill="none" stroke="#000" stroke-linecap="round" stroke-linejoin="round" stroke-miterlimit="10" stroke-width=".5" d="M160.8086 480.6914l.92187 2.27344"/></g><g clip-path="url(#j)"><path fill="none" stroke="#000" stroke-linecap="round" stroke-linejoin="round" stroke-miterlimit="10" stroke-width=".5" d="M174.1211 480.71484l-6.98438-.76953"/></g><g clip-path="url(#k)"><path fill="none" stroke="#000" stroke-linecap="round" stroke-linejoin="round" stroke-miterlimit="10" stroke-width=".5" d="M174.1211 480.71484l.91015 2.27735"/></g><g clip-path="url(#l)"><path fill="none" stroke="#000" stroke-linecap="round" stroke-linejoin="round" stroke-miterlimit="10" stroke-width=".5" d="M187.44922 480.60156l-7.00781-.54687"/></g><g clip-path="url(#m)"><path fill="none" stroke="#000" stroke-linecap="round" stroke-linejoin="round" stroke-miterlimit="10" stroke-width=".5" d="M187.44922 480.60156l.97656 2.25"/></g><g clip-path="url(#n)"><path fill="none" stroke="#000" stroke-linecap="round" stroke-linejoin="round" stroke-miterlimit="10" stroke-width=".5" d="M200.77344 480.34766l-7.02735-.03907"/></g><g clip-path="url(#o)"><path fill="none" stroke="#000" stroke-linecap="round" stroke-linejoin="round" stroke-miterlimit="10" stroke-width=".5" d="M200.77344 480.34766l1.14062 2.17578"/></g><g clip-path="url(#p)"><path fill="none" stroke="#000" stroke-linecap="round" stroke-linejoin="round" stroke-miterlimit="10" stroke-width=".5" d="M214.08594 480.22266l-7.02344.21484"/></g><g clip-path="url(#q)"><path fill="none" stroke="#000" stroke-linecap="round" stroke-linejoin="round" stroke-miterlimit="10" stroke-width=".5" d="M214.08594 480.22266l1.21875 2.1289"/></g><g clip-path="url(#r)"><path fill="none" stroke="#000" stroke-linecap="round" stroke-linejoin="round" stroke-miterlimit="10" stroke-width=".5" d="M227.39844 480.16797l-7.01953.32031"/></g><g clip-path="url(#s)"><path fill="none" stroke="#000" stroke-linecap="round" stroke-linejoin="round" stroke-miterlimit="10" stroke-width=".5" d="M227.39844 480.16797l1.25 2.11328"/></g><g clip-path="url(#t)"><path fill="none" stroke="#000" stroke-linecap="round" stroke-linejoin="round" stroke-miterlimit="10" stroke-width=".5" d="M240.71484 480.5039l-7.01953-.35156"/></g><g clip-path="url(#u)"><path fill="none" stroke="#000" stroke-linecap="round" stroke-linejoin="round" stroke-miterlimit="10" stroke-width=".5" d="M239.69531 480.45313l.51953 1.10937"/></g><g clip-path="url(#v)"><path fill="none" stroke="#000" stroke-linecap="round" stroke-linejoin="round" stroke-miterlimit="10" stroke-width=".5" d="M254.03125 480.48438l-7.01953-.3125"/></g><g clip-path="url(#w)"><path fill="none" stroke="#000" stroke-linecap="round" stroke-linejoin="round" stroke-miterlimit="10" stroke-width=".5" d="M254.03125 480.48438l1.05469 2.21484"/></g><g clip-path="url(#x)"><path fill="none" stroke="#000" stroke-linecap="round" stroke-linejoin="round" stroke-miterlimit="10" stroke-width=".5" d="M267.32813 480.71484l-6.98438-.77343"/></g><g clip-path="url(#y)"><path fill="none" stroke="#000" stroke-linecap="round" stroke-linejoin="round" stroke-miterlimit="10" stroke-width=".5" d="M267.32813 480.71484l.90625 2.28125"/></g><g clip-path="url(#z)"><path fill="none" stroke="#000" stroke-linecap="round" stroke-linejoin="round" stroke-miterlimit="10" stroke-width=".5" d="M280.65234 480.6289l-7.0039-.60156"/></g><g clip-path="url(#A)"><path fill="none" stroke="#000" stroke-linecap="round" stroke-linejoin="round" stroke-miterlimit="10" stroke-width=".5" d="M279.63281 480.54297l.48047 1.1289"/></g><g clip-path="url(#B)"><path fill="none" stroke="#000" stroke-linecap="round" stroke-linejoin="round" stroke-miterlimit="10" stroke-width=".5" d="M293.73438 481.6211l-6.53516-2.58204"/></g><g clip-path="url(#C)"><path fill="none" stroke="#000" stroke-linecap="round" stroke-linejoin="round" stroke-miterlimit="10" stroke-width=".5" d="M292.78125 481.2461l.14063 1.21874"/></g><g clip-path="url(#D)"><path fill="none" stroke="#000" stroke-linecap="round" stroke-linejoin="round" stroke-miterlimit="10" stroke-width=".5" d="M306.67578 482.32031l-5.78906-3.98437"/></g><g clip-path="url(#E)"><path fill="none" stroke="#000" stroke-linecap="round" stroke-linejoin="round" stroke-miterlimit="10" stroke-width=".5" d="M319.72266 482.66406l-5.25391-4.66797"/></g><g clip-path="url(#F)"><path fill="none" stroke="#000" stroke-linecap="round" stroke-linejoin="round" stroke-miterlimit="10" stroke-width=".5" d="M332.10156 483.40625l-3.38281-6.15625"/></g><g clip-path="url(#G)"><path fill="none" stroke="#000" stroke-linecap="round" stroke-linejoin="round" stroke-miterlimit="10" stroke-width=".5" d="M345.17969 483.52734l-2.91016-6.39843"/></g><g clip-path="url(#H)"><path fill="none" stroke="#000" stroke-linecap="round" stroke-linejoin="round" stroke-miterlimit="10" stroke-width=".5" d="M358.375 483.57813l-2.66797-6.5"/></g><g clip-path="url(#I)"><path fill="none" stroke="#000" stroke-linecap="round" stroke-linejoin="round" stroke-miterlimit="10" stroke-width=".5" d="M371.6289 483.60547l-2.54296-6.55078"/></g><g clip-path="url(#J)"><path fill="none" stroke="#000" stroke-linecap="round" stroke-linejoin="round" stroke-miterlimit="10" stroke-width=".5" d="M382.51953 483.64844l2.30469-6.63672"/></g><g clip-path="url(#K)"><path fill="none" stroke="#000" stroke-linecap="round" stroke-linejoin="round" stroke-miterlimit="10" stroke-width=".5" d="M393.8125 481.83594l6.34766-3.01563"/></g><g clip-path="url(#L)"><path fill="none" stroke="#000" stroke-linecap="round" stroke-linejoin="round" stroke-miterlimit="10" stroke-width=".5" d="M394.73828 481.39844l-.98828-.73047"/></g><g clip-path="url(#M)"><path fill="none" stroke="#000" stroke-linecap="round" stroke-linejoin="round" stroke-miterlimit="10" stroke-width=".5" d="M408.77344 483.49219l3.05469-6.32813"/></g><g clip-path="url(#N)"><path fill="none" stroke="#000" stroke-linecap="round" stroke-linejoin="round" stroke-miterlimit="10" stroke-width=".5" d="M421.47656 483.11719l4.27735-5.57422"/></g><g clip-path="url(#O)"><path fill="none" stroke="#000" stroke-linecap="round" stroke-linejoin="round" stroke-miterlimit="10" stroke-width=".5" d="M438.66406 483.38672l-3.46484-6.11328"/></g><g clip-path="url(#P)"><path fill="none" stroke="#000" stroke-linecap="round" stroke-linejoin="round" stroke-miterlimit="10" stroke-width=".5" d="M452.70703 482.83984l-4.91797-5.01953"/></g><g clip-path="url(#Q)"><path fill="none" stroke="#000" stroke-linecap="round" stroke-linejoin="round" stroke-miterlimit="10" stroke-width=".5" d="M463.8789 483.82813l-.63671-7"/></g><g clip-path="url(#R)"><path fill="none" stroke="#000" stroke-linecap="round" stroke-linejoin="round" stroke-miterlimit="10" stroke-width=".5" d="M147.49219 467.41406l-6.98438-.80078"/></g><path fill="none" stroke="#000" stroke-linecap="round" stroke-linejoin="round" stroke-miterlimit="10" stroke-width=".5" d="M147.49219 467.41406l.89453 2.28516m12.375-2l-6.89453-1.3711m6.89453 1.3711l.70703 2.35156m12.625-2.45703l-6.92969-1.16016m6.92969 1.16016l.78125 2.32422m12.57422-2.66016l-7.00781-.48828m7.0078.48828l1 2.24219m12.3125-2.79688l-7 .6211m7-.6211l1.33595 2.0586m11.98047-2.02735l-7.00391.5586m7.0039-.5586l1.32032 2.06641m11.95312-2.38672l-6.92187 1.19922m6.92187-1.19922l1.5039 1.9375m11.8047-1.98828l-6.90625 1.30078m5.89843-1.10937l.76953.95703m13.57032-1.04688l-6.9414 1.09766m5.92968-.9375l.73828.98047m13.625-.76563l-7.01563.34766m5.9961-.29687l.6289 1.05468m13.69922-1.23047l-7.0039.59766m5.98437-.51172l.66406 1.03125m13.57422-1.67578l-6.8125 1.71484m5.82422-1.46484l.82031.91016m13.56641-.71875l-6.97656.83203m5.96094-.71094l.69921 1.00781m13.64844-.95703l-7.01172.48828m5.9922-.41797l.64843 1.04297m12.63281 1.64844l-4.90625-5.03516m4.1914 4.30079l-.37109 1.16796m12.19532.5547l-.4961-7.01173m.42578 5.99219l-1.03906.64844m12.88672.13281l2.58203-6.53516m-2.20703 5.58594l-1.21875.13672m12.5-.54687l5.89844-3.81641m-5.03907 3.26172l-1.07421-.59766m13.20703.52735l6.54297-2.56641m-5.58985 2.1914l-.92969-.79687m13.36329 1.33984l6.40234-2.90234m-5.46875 2.48047l-.97266-.75m13.04297-.38672l7.02344.21484m-6-.18359l-.54297-1.09766m17.78906-2.03125l-2.8828 6.41016m17.71093-1.30078l-5.91016-3.8086m14.60156-1.1875l3.33594 6.1836m11.47656.41797l.34375-7.01953M463.4375 469.5l-1.10938.52344"/><g clip-path="url(#S)"><path fill="none" stroke="#000" stroke-linecap="round" stroke-linejoin="round" stroke-miterlimit="10" stroke-width=".5" d="M147.51172 453.69922h-7.02344"/></g><path fill="none" stroke="#000" stroke-linecap="round" stroke-linejoin="round" stroke-miterlimit="10" stroke-width=".5" d="M147.51172 453.69922l1.15234 2.16406m12.09766-1.48437l-6.89453-1.35938m6.89453 1.35938l.71094 2.34765m12.53125-2.04687l-6.7461-1.96094m5.76563 1.67578l.25 1.19922m14.02734-.85156l-6.71094-2.08594m5.73438 1.78125l.23047 1.20312m14.21875-1.84765l-7.02344-.1914m6 .16405l.54688 1.09766m13.52734-2.5039l-6.4961 2.67968m5.55079-2.29297l.9453.78516m12.76173-2.08594l-5.39063 4.50781m4.60547-3.85156l1.13672.46094m13.6836.32031l-6.83204 1.63281m5.83985-1.39453l.8125.91797m13.53125-1l-6.90235 1.32031m5.89844-1.1289l.76953.95312m13.46484-1.49218l-6.73437 2.01562m5.7539-1.72266l.86329.8711m12.96094-2.14844l-5.79297 3.98047m4.94922-3.39844l1.08984.5664m12.57422-1.72265l-4.80078 5.13281m4.10156-4.38671l1.1836.3203m13.32812-.48827l-5.79688 3.97265m4.95313-3.39453l1.08593.57031m11.98829-2.17187l-3.62891 6.01953m17.35937-5.72266l-4.46093 5.4297m14.57812.66405l1.9375-6.7578m10.66406 6.46484l3.36329-6.17188m-2.875 5.27344l-1.22657-.01172m12.90235-4.2539l5.66797 4.15624m-4.84375-3.55078l.17578-1.21484m12.8125.0625l4.66797 5.25m-3.98829-4.48828l.42579-1.14844m11.48437 1.28125l6.1211 3.45703m-5.23047-2.95312l.03125-1.22657m16.47656 2.45313l-.01953-.19922-.0586-.1914-.09375-.1797-.46093-.375-.19141-.05859-.19922-.01953-.19922.01953-.1914.0586-.45704.375-.09765.17968-.0586.19141-.01953.19922.01953.19922.0586.1914.09765.17578.45704.37891.1914.0586.19922.01953.19922-.01954.1914-.05859.46094-.3789.09375-.17579.0586-.1914.01953-.19922m15.80078.21484l-7.01563-.4336M434.27734 456l5.3086-4.60547m-4.53516 3.9375l-1.14453-.4414m12.91016-1.96094l6.85937 1.53906m-5.85937-1.3164l-.32422-1.1797m19.33984.44141l-6.54297 2.5664m5.58985-2.1914l.93359.79688"/><g clip-path="url(#T)"><path fill="none" stroke="#000" stroke-linecap="round" stroke-linejoin="round" stroke-miterlimit="10" stroke-width=".5" d="M147.51172 440.41016l-7.02344-.05078"/></g><path fill="none" stroke="#000" stroke-linecap="round" stroke-linejoin="round" stroke-miterlimit="10" stroke-width=".5" d="M147.51172 440.41016l1.13672 2.17187m12.00781-1.11719l-6.6836-2.16406m6.6836 2.16406l.42969 2.41797m12.5625-1.69922l-6.03516-3.59765m5.15625 3.07422l-.0586 1.22265m14.21485-.63672l-5.96094-3.72656m5.09375 3.1836l-.08593 1.22656m12.5625.72656l-2.55078-6.54687m2.17968 5.59765l-.80078.92578m14.09375.15235l-1.76562-6.80078m12.95312 6.68359l2.49219-6.57031m11.04297-.07422l2.05078 6.71875M236.47657 438l.87109-.86719m10.66797.78516l5.0078 4.92969m-4.27734-4.21094l.34766-1.17578m15.44922-.51953l-1.41797 6.8828m1.21484-5.8789l1.17578-.34765m12.32813-.66016l-1.38281 6.89063m1.17969-5.88672l1.17578-.35157m11.40625-.71093l.48828 7.0078m-.41797-5.98827l1.03906-.64844m14.70313.4375l-4.50782 5.39063m3.85157-4.60547l1.19922.2539m12.57421-1.1914l-4.11328 5.69922m3.51563-4.8711l1.21484.16797m8.5625-.98047l4.15625 5.66797m11.69531-6.32031l-.91796 6.96875m10.51562-4.79297l6.51953 2.61719m-5.57031-2.23438l-.13281-1.22266m13.1953-.2539l5.125 4.80469m-5.125-4.8047l.64063-2.36718m11.83594 5.65234l6.80078-1.76562m-5.8086 1.50781l-.83202-.90234m16.97265 3.76562l-.83203-6.97656m17.10938 4.45703l-6.7539-1.9375m5.76952 1.65625l.2539 1.19922m12.0625 1.33984l-2.79296-6.44921m2.38672 5.5078l-.76563.96095m16.16407-1.53907l-6.14453-3.41406m6.14453 3.41406l-.04688 2.45313m13.77344-4.60938l-6.96875.89844m5.95703-.76562l.70703 1m12.34375-3.41797l-4.41406 5.46875m3.76953-4.67188l1.20703.23047"/><g clip-path="url(#U)"><path fill="none" stroke="#000" stroke-linecap="round" stroke-linejoin="round" stroke-miterlimit="10" stroke-width=".5" d="M147.46484 426.47656l-6.92968 1.1836"/></g><path fill="none" stroke="#000" stroke-linecap="round" stroke-linejoin="round" stroke-miterlimit="10" stroke-width=".5" d="M147.46484 426.47656l1.5 1.94531m11.82422-.83984l-6.94922-1.02734m5.94141.8789l.41016 1.15625m13.75-.35156l-6.625-2.33984m5.66406 2l.17969 1.21484m13.34765.35938l-5.125-4.8086m4.3789 4.10938l-.3203 1.1836m13.87109-.03516l-4.10547-5.70313m3.50781 4.8711l-.54297 1.10156m15.48438-1.4336l-6.16016-3.3789m5.26172 2.88671l-.01562 1.22657m10.71094-5.91016l.875 6.97266m15.53906-1.19532l-5.32422-4.58203m17.50781 5.45313l-3.0625-6.32422m13.2461 6.28906l3.20312-6.2539m9.40625.47656l4.61328 5.30078m8.0625-4.5664l5.89063 3.83202m-5.03125-3.27343l.10937-1.22266m14.10547 5.88672l2.375-6.61328m10.54688.16797l3.16015 6.27734m-3.16015-6.27734l1.41796-2.0039m13.16797 1.64452l.61719 7m-.61719-7l2.0586-1.33984m10.5 1.48828l2.1289 6.69922m-1.8164-5.72266l.85546-.8789m10.23829 5.12109l5.94921-3.73828m6.87891 2.46484l6.92578-1.1914m7.28125-1.79688l5.14063 4.78906m-4.39453-4.09375l.3164-1.1875m17.55078 5.10157l-5.45703-4.4297m5.45703 4.4297l-.47265 2.40625m12.33203-1.34766l-2.54688-6.55078m2.54688 6.55078l-1.60156 1.85937m16.9414-6.34375l-6.59765 2.41797m6.59765-2.41797l1.82813 1.63672m11.1836-2.26953l-5.98829 3.6836m5.98828-3.6836l2.11328 1.2461m10.23828-2.27344l-4.0625 5.73828m4.0625-5.73828l2.4336.3125m11.2461-.01172l-4.79298 5.13672m4.09766-4.39063l1.1836.32032"/><g clip-path="url(#V)"><path fill="none" stroke="#000" stroke-linecap="round" stroke-linejoin="round" stroke-miterlimit="10" stroke-width=".5" d="M147.15234 412.20313l-6.30468 3.10156"/></g><path fill="none" stroke="#000" stroke-linecap="round" stroke-linejoin="round" stroke-miterlimit="10" stroke-width=".5" d="M146.23438 412.65625l.99609.71484m13.57031.83203l-6.96875-.90234m5.95313.77344l.43359 1.14844m13.16406.71484l-5.5039-4.3711m4.70312 3.73829l-.22266 1.20312m14.64844-1.03125l-6.125-3.44531m18.875-.75l-4.9961 4.94531m12.30079-2.5586l7.02344.17188m-6-.14843l-.55078-1.09766m12.875.6875l6.96093.9414m-5.94922-.80468l-.42578-1.14844m14.625 4.6211l3.16797-6.27344m-2.70703 5.35937l-1.22656.02735m17.49219.75L248.6953 410.75m3.1211 5.13281l-.62891 1.05469m14.6875-.32422l-4.08203-5.71875m11.91797 3.57422l6.8789-1.4336m6.4336.00782l6.88281 1.42187m7 1.3086l5.75-4.03906m13.82812 1.08984l-6.77734 1.85937m18.08984 2.29688l-2.77343-6.45313m17.52734 5.3125l-5.65234-4.17578m19.58984 2.77735l-6.89062-1.37891m5.88671 1.17969l.35157 1.17578m13.96875-.99219l-6.89844-1.34375m5.89453 1.14844l.35938 1.17187m11.05078-5.12109l-1.08203 6.94531m.92578-5.9336l1.16015-.40233m11.19532-.60157l1.15234 6.92969m-.98438-5.92187l.97657-.7461m15.40234.90235l-5.3125 4.59765m5.3125-4.59765l2.28906.88671m11.48828-.20703L420.5 415.375m5.32812-2.76953l1.00782.69531m12.98828-1.54297l-5.78516 3.99219m4.9414-3.41016l1.08985.5625m12.6836-1.60937l-5.01563 4.92187m5.01563-4.92187l2.33984.74219m11.25781-.41407l-5.58203 4.26563m4.77344-3.64453l1.11328.51172"/><g clip-path="url(#W)"><path fill="none" stroke="#000" stroke-linecap="round" stroke-linejoin="round" stroke-miterlimit="10" stroke-width=".5" d="M146.51563 397.98438l-5.03125 4.90625"/></g><path fill="none" stroke="#000" stroke-linecap="round" stroke-linejoin="round" stroke-miterlimit="10" stroke-width=".5" d="M145.78125 398.69922l1.17188.3711m12.1914-1.63282l-3.66016 6m14.1875.3789l1.91797-6.7578m13.37891 3.3789l-.01953-.19922-.0586-.1914-.09375-.17579-.46093-.3789-.1914-.05469-.19923-.02344-.19922.02344-.1914.05469-.46094.3789-.09375.17579-.0586.1914-.01952.19922.01953.19922.05859.1914.09375.1797.46094.375.1914.05859.19922.01953.19922-.01953.1914-.0586.46095-.375.09375-.17969.05859-.1914.01953-.19922m15.20313-1.96875l-5.82422 3.9375m17.25-1.96875l-.01953-.19922-.0586-.1914-.09375-.17579-.46094-.3789-.1914-.05469-.19922-.02344-.19922.02344-.1914.05469-.45704.3789-.09765.17579-.0547.1914-.01952.19922.01953.19922.05469.1914.09765.1797.45703.375.19141.05859.19922.01953.19922-.01953.1914-.0586.46094-.375.09375-.17969.0586-.1914.01953-.19922m15.71093-.8164l-6.83593 1.63671m5.83984-1.39844l.8125.91797m13.58203-.04687l-7.0039-.58594m5.98437.5l.48438 1.1289m13.75-.44921l-6.80079-1.77344m5.8086 1.51563l.28515 1.1953m14.13282-1.94921l-7.02344.2539m6-.21874l.61719 1.0625m13.60547-1.875l-6.79297 1.80468m5.80468-1.54296l.83594.89843m13.57422-.51562l-7.00781.51953m5.98828-.44531l.65625 1.03906m13.28906-2.48438l-6.22656 3.25782m19.92969-1.92188l-7.00391.58985m5.98438-.50391l.66406 1.03125m13.6836-.85156l-7.02735.05468m6.0039-.04687l.58594 1.07812m12.98438 1.13672l-5.4922-4.38672m4.69142 3.7461l-.22657 1.20703m13.45703.21875l-3.72265-5.96094m3.17969 5.09375l-.61329 1.0625m15.23047-.83594l-5.24219-4.67968m4.48047 4l-.29296 1.1914m14.63671-4.85156l-5.77734 4m4.9375-3.41797l1.08984.5625m12.27344-1.96484l-4.1914 5.64062m18.89062-2.32422l-6.95703-.98828m5.94531.84375l.41406 1.15235m13.33594-3.48438l-5.80469 3.96094m4.95704-3.38281l1.08984.5664m12.20703-2.02344l-4.07422 5.72266m3.48047-4.89062l1.21875.15625m13.10547-.64454l-4.90625 5.03125m4.1914-4.29687l1.1797.34375m12.72265-1.19531l-4.65235 5.26562m3.97657-4.5l1.1914.28516"/><g clip-path="url(#X)"><path fill="none" stroke="#000" stroke-linecap="round" stroke-linejoin="round" stroke-miterlimit="10" stroke-width=".5" d="M147.22266 385.72266l-6.44532 2.80078"/></g><path fill="none" stroke="#000" stroke-linecap="round" stroke-linejoin="round" stroke-miterlimit="10" stroke-width=".5" d="M147.22266 385.72266l1.91797 1.52734m-2.85547-1.1211l.96093.76563m13.4336-.78125l-6.73047 2.02344m6.73047-2.02344l1.72656 1.74219m11.61328.1875l-6.78125-1.83985m6.78125 1.83985l.54688 2.39453m12.27343-1.32031l-5.78906-3.98828m5.78906 3.98828l-.28125 2.4375m12.1797-1.2461l-2.95704-6.37109m2.52734 5.44531l-.73828.97656m16.27735-1.95312l-6.54297-2.5664m6.54297 2.5664l.28125 2.4375m13.21875-3.08984l-6.91407-1.26172m6.91407 1.26172l.74218 2.33984m12.6211-2.71875l-7.01172-.5039m7.01172.5039l.99219 2.24219m12.33203-2.51953l-7.02735.05078m7.02735-.05078l1.16797 2.15625m12.02734-3.03516l-6.78906 1.8086m5.80078-1.54688l.83593.89844m13.21875-1.81641l-6.29296 3.125m5.3789-2.67188l.9961.71485m13.48437-.4961l-6.79687 1.77735m5.80859-1.51953l.83203.90234m12.97266-2.25781l-5.79688 3.97265m4.95313-3.39453l1.08593.56641m12.88282-1.39453l-5.41797 4.47265m4.6289-3.82421l1.13282.46875m13.58593-.01563l-6.64843 2.26953m5.6836-1.9414l.89452.83984m13.27735 1.38672l-6.4297-2.83985m5.4922 2.42579l.08984 1.22265m13.2539.42188l-4.61328-5.30078M358.6797 389l-.4414 1.14844m15.36718-4.35938l-6.5 2.66797m5.55469-2.28125l.9453.78516m12.60938-2.26172l-5.08593 4.85156m4.34375-4.14844l1.16406.38672m12.90625-1.07422l-5.11328 4.81641m4.3711-4.11719l1.16015.39453m12.88281-1.10937l-5.08594 4.84765m4.34766-4.14453l1.16406.38672m12.21875-1.64062l-3.74219 5.94922m3.7422-5.94922l2.4453.17969m11.01953-.07813l-4.04296 5.75m3.45312-4.91406l1.21875.15234m12.08594-1.32812l-2.84375 6.42578m2.42969-5.49219l1.22265-.08594m14.49219 1.5l-6.8125 1.73047m5.82031-1.48047l.82422.91016"/><g clip-path="url(#Y)"><path fill="none" stroke="#000" stroke-linecap="round" stroke-linejoin="round" stroke-miterlimit="10" stroke-width=".5" d="M147.44922 373.14844l-6.89844 1.32031"/></g><path fill="none" stroke="#000" stroke-linecap="round" stroke-linejoin="round" stroke-miterlimit="10" stroke-width=".5" d="M147.44922 373.14844l1.53906 1.91015m-2.54297-1.71875l1.53906 1.91016m12.84375-1.3164l-7.02343-.25m7.02344.25l1.0703 2.20702m-2.09374-2.24218l1.07422 2.20312m13.26172-2.17969l-7.02344-.23046m7.02344.23046l1.08203 2.20313m11.87109-.75781l-6.29688-3.1211m6.29688 3.1211l.07031 2.45312m13.53516-3.28515l-6.875-1.45313m5.875 1.24219l.33594 1.17969m14.01172-1.15235l-6.94141-1.08594m5.92969.92579l.40234 1.16015m13.85547-.66406l-6.80469-1.75781m5.8125 1.5039l.28906 1.19141m14.07813-1.22656l-6.92578-1.1836m5.91797 1.01172l.38672 1.16797m13.96484-1.99219l-6.98047.8125m5.96484-.6953l.69532 1.01171m13.46093-1.88281l-6.6328 2.32031m5.66796-1.98047l.90234.83203m13.39453-1.11719l-6.66796 2.21094m5.69922-1.89062l.88671.84765m13.53125-.61718l-6.9375 1.10937m5.9297-.94922l.73827.98047m13.50781-1.5039l-6.78125 1.83593m5.79297-1.57031l.83985.89453m13.46875-1.14844l-6.79297 1.8125m5.80469-1.54687l.83593.89844m13.4922-1.0625l-6.83985 1.60546m5.84375-1.37109l.8086.92188m13.39843-1.51563l-6.63281 2.32813m5.66796-1.98829l.90235.82813m13.57031-.17578l-7.01953.34375m6-.29297l.625 1.05469m13.70312-1.20313l-7.0078.53906m5.98827-.46093l.65625 1.03515m13.25391-2.53906l-6.15625 3.39063m5.26172-2.89844l1.02344.67187m12.49218-2.05078l-4.76953 5.16406m4.07422-4.41406l1.1875.3125m12.64844-1.21094l-4.42188 5.46094m3.77735-4.66797l1.20703.23438m12.13672-1.42969l-3.1875 6.26172m3.1875-6.26172l2.45312-.04297m10.30469-.17969l-2.07422 6.71094m2.07422-6.71094l2.41016-.46093m11.67968.80469l-3.625 6.01953m3.09766-5.14063l1.22656.0625M464.7422 370.5l-2.35938 6.61719m2.01563-5.65625l1.21484-.17969"/><g clip-path="url(#Z)"><path fill="none" stroke="#000" stroke-linecap="round" stroke-linejoin="round" stroke-miterlimit="10" stroke-width=".5" d="M147.44922 359.82813l-6.89844 1.32812"/></g><path fill="none" stroke="#000" stroke-linecap="round" stroke-linejoin="round" stroke-miterlimit="10" stroke-width=".5" d="M147.44922 359.82813l1.54297 1.91015m-2.54688-1.71484l1.54297 1.91015m12.8125-.99609l-6.97266-.88672m6.97266.88672l.86719 2.29297m-1.88281-2.42188l.87109 2.29297m13.47656-2.875l-7.00781.53125m7.00781-.53125l1.3125 2.07422m11.90625-.94922l-6.8125-1.71484m6.8125 1.71484l.58985 2.38281m12.71484-2.34375l-6.79297-1.79687m6.79297 1.79688l.5586 2.39062m12.83984-2.78516l-6.95703-1.0039m5.9414.85547l.41797 1.15625m13.92188-1.09375l-6.97657-.83594m6.97657.83594l.88672 2.28906m12.4414-2.97266l-7.0039.53516m7.0039-.53516l1.3164 2.07031m11.82032-2.9453l-6.64453 2.28515m6.64453-2.28516l1.79297 1.67188m11.44922-1.86719l-6.5 2.67188m5.55469-2.28125l.9453.78125m13.375-1.01172l-6.62109 2.35156m5.65625-2.00781l.90625.82812m13.3672-1.1875l-6.60938 2.38281m5.64843-2.03515l.91016.82422m13.48828-.76172l-6.85156 1.5625m6.85156-1.5625l1.60547 1.85547m11.57031-2.3125l-6.57422 2.47656m5.6172-2.11719l.92187.8125m13.41796-.98047l-6.70703 2.09766m5.73047-1.79297l.8711.86328m13.54296-.61719l-6.95703.9922m5.94532-.84767l.72265.9922m13.60547-1.14454l-6.95703 1.00781m6.95703-1.0078l1.44922 1.98046m11.73828-2.53516l-6.69922 2.1172m6.69922-2.1172l1.75 1.71875m11.32813-2.28515l-6.23047 3.25m6.23047-3.25l2.02343 1.39062m11.1836-1.58594l-6.01172 3.64063m6.01172-3.64063l2.10547 1.25782m10.97265-1.59766l-5.53906 4.32422m5.53906-4.32422l2.24219 1m10.85156-1.25781l-5.09375 4.83984m5.09375-4.83984l2.32813.77734m10.52734-1.1836l-4.17578 5.65235m4.17578-5.65234l2.42578.35937m10.46485-.6289l-3.32813 6.1875m3.32813-6.1875l2.45312.01172m10.4414-.20313l-2.48827 6.57422m2.125-5.61719l1.21875-.15625"/><g clip-path="url(#aa)"><path fill="none" stroke="#000" stroke-linecap="round" stroke-linejoin="round" stroke-miterlimit="10" stroke-width=".5" d="M147.1914 345.70703l-6.3828 2.9414"/></g><path fill="none" stroke="#000" stroke-linecap="round" stroke-linejoin="round" stroke-miterlimit="10" stroke-width=".5" d="M147.1914 345.70703l1.95313 1.48828m11.67188-.28515l-7.00391.53515m7.0039-.53515l1.31641 2.0703m-2.33203-1.99218l.65625 1.03516m13.46094-2.08203l-6.57422 2.47656m6.57422-2.47656l1.84375 1.62109m11.6836-.09375l-7-.58203m5.98046.5l.48438 1.125m13.69922-.26953l-6.69922-2.125m5.72265 1.8164l.22266 1.20313m14.1211-1.08203l-6.8047-1.75m5.81641 1.49219l.28906 1.1953m14.1211-1.58984l-7.01563-.4453m7.01563.4453l1.01172 2.23438m12.25-3.09766l-6.91016 1.27735m6.91016-1.27735l1.52734 1.92188m11.6211-2.51953l-6.57813 2.47265m6.57812-2.47265l1.83985 1.625m11.30469-2.00391l-6.23829 3.23438m5.33203-2.76563l1.01172.69531m13.35938-.83594l-6.53516 2.57813m5.58594-2.20313l.9336.79297m13.55468-.27343l-6.98437.78515m5.96875-.67187l.6914 1.01562m13.66016-.8711l-7.02344.26954m7.02344-.26953l1.23437 2.1211m12.01172-2.6797l-6.88672 1.38672m5.88672-1.1875l.77735.94922m13.24218-2.01172l-6.29687 3.1172m5.38281-2.66407l.9961.71484m13.35156-.91015l-6.53125 2.59765m5.57812-2.21875l.9375.79297m13.54688-.35156l-6.96485.95703m6.96485-.95703l1.4336 1.99219m11.84765-2.19532l-6.89453 1.36329m6.89453-1.36329l1.54687 1.90235m11.45703-2.80078l-6.27343 3.16015m6.27343-3.16015l2.00391 1.41406m11.03906-1.86719l-5.73047 4.07031m5.73047-4.0703l2.1914 1.09765m11.26563-.88281l-6.01562 3.63671m6.01562-3.63671l2.10547 1.26171m11.26172-1.17187l-6.11719 3.45703m6.1172-3.45703l2.0703 1.32031m10.98438-1.71484l-5.59766 4.25m5.59766-4.25l2.22656 1.02734m10.79688-1.36719l-5.01172 4.92579m5.01172-4.92579l2.33984.73829m11.58203.10156l-6.23047 3.25m5.32422-2.77735l1.01172.69141"/><g clip-path="url(#ab)"><path fill="none" stroke="#000" stroke-linecap="round" stroke-linejoin="round" stroke-miterlimit="10" stroke-width=".5" d="M143.51563 330.38281l.96875 6.96094"/></g><g clip-path="url(#ac)"><path fill="none" stroke="#000" stroke-linecap="round" stroke-linejoin="round" stroke-miterlimit="10" stroke-width=".5" d="M143.51563 330.38281l1.98437-1.4414"/></g><path fill="none" stroke="#000" stroke-linecap="round" stroke-linejoin="round" stroke-miterlimit="10" stroke-width=".5" d="M158.10938 330.4414l-1.58594 6.84376m1.35547-5.84766l1.18359-.3164m15.07813 2.65624l-7.02344.17188m7.02344-.17188l1.20703 2.13672m11.60937-3.85937l-6.02734 3.61328m5.15234-3.08594l1.05078.63281m12.94922 2.7422l-5.64062-4.19142m4.8164 3.58204l-.1836 1.21484m14.65626-1.15625l-6.3125-3.08594m6.3125 3.08594l.08594 2.45313m13.46875-3.09375l-6.78907-1.8047m6.78907 1.8047l.55859 2.39062m12.86328-3.57422l-7.0039.5625m7.0039-.5625l1.32031 2.07031m11.83594-2.87109l-6.6875 2.16406m5.71484-1.84765l.88282.85156m13.55078-.5l-6.97656.82422m5.96093-.70313l.69922 1.00781m13.60938-1.27734l-6.9336 1.125m5.92578-.96094l.7422.97657m13.55859-1.27344l-6.89063 1.39062m5.88672-1.1875l.78125.94922m13.30078.97656l-6.41406-2.86718m20.03515 1.41015l-7.02734.04688m6.0039-.03906l.58204 1.07812m13.39453-2.61328l-6.30469 3.10156m5.39063-2.64844l.99219.71875m13.08593-1.4453l-6.0039 3.64843m5.1328-3.11719l1.0547.625m13.625.28906l-6.98829.75782m5.97266-.64844l.6875 1.01563m13.66406-.70313l-7.02734-.08594m6.0039.07422l.5625 1.08985m13.03516-3.28125l-5.54687 4.3164m5.54687-4.3164l2.23828 1.0039m10.45704-1.61719l-4.3086 5.54688m3.6836-4.74219l1.20703.21094m12.49218-1.1914l-3.82421 5.89452m3.26562-5.03515l1.22266.10547m13.16796-.5547l-4.85937 5.07813m4.85938-5.07812l2.35937.66797m11.16406-.44922l-5.27734 4.64062m5.27734-4.64062l2.29688.86719m10.71094-1.17579l-4.66407 5.25782m4.66406-5.25781l2.38672.57812m11.1875-.32031l-5.18359 4.74219m4.42969-4.0547l1.15625.41016"/><g clip-path="url(#ad)"><path fill="none" stroke="#000" stroke-linecap="round" stroke-linejoin="round" stroke-miterlimit="10" stroke-width=".5" d="M141.16406 318.47266l5.67188 4.14843"/></g><path fill="none" stroke="#000" stroke-linecap="round" stroke-linejoin="round" stroke-miterlimit="10" stroke-width=".5" d="M154.1875 318.94531l6.2539 3.20313m-6.2539-3.20313l-.03906-2.45312m.94922 2.92187l-.01953-1.22656m12.27734 1.08594l6.55078 2.54687m-6.55078-2.54687l-.28906-2.4375m13.54687 2.59765l6.66406 2.22657m-5.6953-1.90235l-.20313-1.21094m12.39843 1.53516l6.96485.92969m9.52344 3.03515l.62109-7m-.53125 5.98438l-1.13281.47656m16.46875.05469l-3.60547-6.03125m3.08203 5.15625l-.63281 1.04688m15.7539-1.50391l-6.16797-3.36719m5.26953 2.8789l-.01171 1.22657m14.32422-.92969l-6.36329-2.98047m5.4375 2.54688l.0625 1.22265m14.44532-1.61718l-6.89844-1.32813m6.89844 1.32813l.72265 2.34765m12.625-3.48437l-6.96484.94531m5.95312-.80469l.71485.9961m13.58203-1.32422l-6.90234 1.32422m5.89843-1.13281l.76953.95703m13.60938-.57032l-7.02344.16407m6-.14063l.60156 1.07031m13.69922-.5l-6.94922-1.01953m5.94141.8711l.41016 1.15625m13.90234-2.10157l-6.92969 1.16797m6.92969-1.16797l1.4961 1.94141m11.55078-2.8164l-6.39063 2.91796m6.39063-2.91797l1.94921 1.48829m11.28907-1.65235l-6.23438 3.24219m5.32422-2.76953l1.01172.69531m13.17969-1.23047l-6.16797 3.36719m5.26953-2.875l1.02344.67187m12.58203-1.97265l-4.95313 4.98437m4.23047-4.25781l1.17578.35547m12.77735-1.16016l-4.78516 5.14453m4.78516-5.14453l2.37109.6289m9.66797-1.39062l-2.23438 6.66407m1.91016-5.69141l1.20703-.20313m9.32422-.33203l3.98438 5.78907m-3.98438-5.78907l1.13281-2.17578m11.34766 2.98438l5.65234 4.17187m-5.65234-4.17187l.35937-2.42578m13.16797 2.16796l5.23047 4.69141m-4.47265-4.01172l.29687-1.1875m16.58594-.21484l-3.42188 6.13672m2.92188-5.2461l1.22656.02344"/><path fill="#ff3030" fill-rule="evenodd" d="M295.72656 409.94922h7.69531v-10.14453h-7.6953v10.14453"/><path fill="azure" fill-rule="evenodd" d="M297.5586 401.63672h.83593v5.73828h3.1914v.74219h-4.02734v-6.48047"/><path fill="#00f" fill-rule="evenodd" d="M370.48438 396.63281h8.62109v-10.14453h-8.6211v10.14453"/><path fill="azure" fill-rule="evenodd" d="M372.3164 388.32031h.83594v2.82422h3.28516v-2.82422h.83203v6.48047h-.83203v-2.91406h-3.28516v2.91406h-.83593v-6.48047"/><path fill="#ff3030" fill-rule="evenodd" d="M193.64453 378.88281h7.69531v-10.14844h-7.6953v10.14844"/><path fill="azure" fill-rule="evenodd" d="M195.47656 370.5664h.83594v5.7422h3.1914v.73827h-4.02734v-6.48046"/><path fill="#ffffe0" fill-rule="evenodd" d="M342.5586 401.30469h22.17968v-10.1914H342.5586v10.1914"/><path fill-rule="evenodd" d="M346.0586 392.94531h.5078v6.29297h-.78515V394.75h-1.39063v-.55469l.5625-.0664.25-.0547.23047-.08593.20313-.14453.17578-.20703.14063-.29688.10546-.39453m4.8125 0l.23047.01953.21875.0547.20703.08983.19922.1211.1836.14844.17187.17578.30078.42187.24219.49219.17969.54688.11328.57812.03515.58984-.03515.59375-.11328.58594-.17969.55469-.24219.5-.30078.42969-.17187.17968-.1836.15235-.19922.125-.20703.08984-.21875.0586-.23047.01953-.22656-.01954-.22265-.05859-.20704-.08984-.1953-.125-.1836-.15235-.17188-.17968-.30078-.4297-.2461-.5-.17968-.55468-.10938-.58594-.03906-.59375h.83203l.03125.56641.08204.5039.125.44141.16406.375.1875.30078.21094.22266.22265.13672.22656.04687.22657-.04687.22265-.13672.21094-.22266.1914-.30078.16407-.375.125-.4414.08203-.50391.02734-.5664-.02734-.5586-.08203-.5-.125-.4375-.16406-.36719-.19141-.28906-.21094-.21484-.22265-.13282-.22657-.04296-.22656.04296-.22265.13282-.21094.21484-.1875.28906-.16406.36719-.125.4375-.08204.5-.03125.5586h-.83203l.03906-.58985.10938-.57813.17969-.54687.2461-.49219.30077-.42187.17188-.17578.1836-.14844.1953-.1211.20704-.08984.22265-.05469.22656-.01953m4.95313 0l.23047.01953.21875.0547.20703.08983.19531.1211.1875.14844.16797.17578.30469.42187.24219.49219.17968.54688.11328.57812.03516.58984-.03516.59375-.11328.58594-.17969.55469-.24218.5-.30469.42969-.16797.17968-.1875.15235-.19531.125-.20703.08984-.21875.0586-.23047.01953-.23047-.01954-.21875-.05859-.20703-.08984-.19531-.125-.1836-.15235-.17187-.17968-.30078-.4297-.2461-.5-.17969-.55468-.10937-.58594-.03906-.59375h.83203l.03125.56641.08203.5039.125.44141.16016.375.1914.30078.21094.22266.22266.13672.22656.04687.22656-.04687.22266-.13672.21094-.22266.1914-.30078.16016-.375.1289-.4414.08204-.50391.02734-.5664-.02735-.5586-.08203-.5-.1289-.4375-.16016-.36719-.1914-.28906-.21094-.21484-.22266-.13282-.22656-.04296-.22656.04296-.22266.13282-.21094.21484-.1914.28906-.16016.36719-.125.4375-.08203.5-.03125.5586h-.83203l.03906-.58985.10938-.57813.17968-.54687.2461-.49219.30078-.42187.17187-.17578.1836-.14844.1953-.1211.20704-.08984.21875-.05469.23047-.01953m4.95312 0l.38672.02735.35938.08203.32031.13672.28125.1875.23047.23828.17187.28515.10938.33204.03906.3789-.01953.27344-.0586.23437-.08984.19922-.10937.17188-.1289.14453-.14063.1211-.28516.1953.23047.1211.20703.14453.1836.17188.15234.1953.125.21094.08984.23047.05469.2461.01953.2539-.03516.3086-.10156.32812-.17187.32422-.2422.30469-.30468.26953-.375.21484-.21094.08204-.22656.0625-.2461.03515-.26171.01563-.25781-.01563-.2422-.03515-.22265-.0625-.20703-.08204-.35937-.21484-.28907-.26953-.22265-.30469-.15625-.32422-.09375-.32812-.03125-.3086h.83203l.02734.25391.07813.23438.1211.21093.16015.1875.19531.15235.21875.11328.24219.07031.2539.02734.25391-.02734.24219-.07031.21875-.11328.19531-.15235.16016-.1875.12109-.21094.07813-.23437.02734-.2539-.02735-.25391-.07812-.23438-.1211-.21094-.16015-.1875-.19531-.15234-.21875-.11328-.24219-.07031-.2539-.02735-.25391.02735-.24219.07031-.21875.11328-.19531.15235-.16016.1875-.1211.21093-.07812.23438-.02734.2539h-.83203l.01953-.2539.05469-.23828.08984-.22657.125-.20703.15234-.1914.1836-.17188.20703-.15234.23047-.13281-.28516-.19532-.14062-.1211-.12891-.14452-.10938-.17188-.08984-.19922-.0586-.23437-.01952-.27344h.78906l.01953.21094.0664.1914.10548.16797.13671.14063.16407.10937.1914.08204.20703.05078.21875.01562.21875-.01562.20704-.05079.1914-.08203.16406-.10937.13672-.14063.10547-.16796.0625-.19141.02344-.21094-.02344-.21484-.0625-.1914-.10547-.16798-.13672-.14062-.16406-.10938-.1914-.08203-.20704-.05078-.21875-.01563-.21875.01563-.20703.05078-.1914.08203-.16407.10938-.13671.14062-.10547.16797-.06641.1914-.01953.21485h-.78906l.03906-.3789.10937-.33204.17188-.28515.23047-.23828.27734-.1875.32422-.13672.35938-.08203.38671-.02735"/><path fill="#ffffe0" fill-rule="evenodd" d="M390.5664 421.27734h22.1797v-10.1914h-22.1797v10.1914"/><path fill-rule="evenodd" d="M394.0664 412.91797h.50782v6.29687h-.78516v-4.49218h-1.39062v-.5547l.5586-.0625.2539-.05468.23047-.08984.20312-.14063.17188-.21094.14453-.29687.10547-.39453m4.8125 0l.23046.01953.21875.05469.20704.08984.1953.1211.1836.14843.17188.17578.30469.42188.24218.49219.17969.54687.10938.57813.03906.59375-.03906.59375-.10938.58203-.17969.55469-.24219.5-.30468.42968-.17188.17969-.1836.15234-.1953.125-.20704.08985-.21875.0586-.23046.01952-.23047-.01953-.21875-.0586-.20703-.08984-.19532-.125-.18359-.15234-.17188-.17969-.30468-.42969-.24219-.5-.17969-.55468-.10937-.58203-.03906-.59375h.83203l.03125.5625.07812.5039.1289.44531.16016.375.19141.30079.21094.21875.22265.13671.22657.04688.22656-.04688.22265-.13671.21094-.21875.1914-.30079.16017-.375.1289-.4453.08203-.50391.02735-.5625-.02735-.5625-.08203-.5-.1289-.4375-.16016-.36329-.1914-.29296-.21094-.21485-.22266-.13281-.22656-.04297-.22657.04297-.22265.13281-.21094.21485-.1914.29296-.16016.36329-.1289.4375-.07813.5-.03125.5625h-.83204l.03907-.59375.10937-.57813.17969-.54687.24219-.4922.30469-.42187.17187-.17578.1836-.14844.1953-.12109.20704-.08984.21875-.05469.23047-.01953m4.95312 0l.23047.01953.21875.05469.20703.08984.19531.1211.1836.14843.17187.17578.30078.42188.2461.49219.17969.54687.10937.57813.03906.59375-.03906.59375-.10938.58203-.17968.55469-.2461.5-.30078.42968-.17187.17969-.1836.15234-.1953.125-.20704.08985-.21875.0586-.23047.01952-.23047-.01953-.21875-.0586-.20703-.08984-.19531-.125-.1875-.15234-.16797-.17969-.30469-.42969-.24219-.5-.17968-.55468-.11328-.58203-.03516-.59375h.83203l.02735.5625.08203.5039.1289.44531.16016.375.1914.30079.21094.21875.22266.13671.22656.04688.22656-.04688.22266-.13671.21094-.21875.1914-.30079.16016-.375.125-.4453.08203-.50391.03125-.5625-.03125-.5625-.08203-.5-.125-.4375-.16016-.36329-.1914-.29296-.21094-.21485-.22266-.13281-.22656-.04297-.22656.04297-.22266.13281-.21094.21485-.1914.29296-.16016.36329-.1289.4375-.08204.5-.02734.5625H401.75l.03516-.59375.11328-.57813.17969-.54687.24218-.4922.30469-.42187.16797-.17578.1875-.14844.19531-.12109.20703-.08984.21875-.05469.23047-.01953m4.95313 0l.38671.02734.35938.08594.32031.13281.28125.1875.23047.23828.17188.28516.10937.33203.03906.3789-.02343.27344-.0547.23438-.08983.19922-.11329.17187-.1289.14454-.13672.12109-.28906.19531.23437.1211.20703.14453.17969.17187.15625.19531.1211.21094.09374.23047.0547.2461.01952.2539-.03515.3125-.10547.32422-.17188.32422-.23828.3086-.30469.26952-.375.21485-.21093.07812-.23047.0625-.24219.03906-.26172.01172-.26172-.01172-.23828-.03906-.22656-.0625-.20313-.07812-.35937-.21485-.28906-.26953-.22266-.3086-.16016-.32421-.08984-.32422-.03125-.3125h.83203l.02735.2539.07812.23438.1211.21485.16015.18359.19531.15234.21875.11328.23828.07422.25782.02344.2539-.02344.24219-.07422.21875-.11328.1914-.15234.16016-.1836.125-.21484.07813-.23437.02734-.25391-.02734-.25-.07813-.23828-.125-.21094-.16015-.1836-.19141-.15234-.21875-.11718-.24219-.07032-.2539-.02734-.25782.02734-.23828.07032-.21875.11718-.19531.15235-.16016.1836-.12109.21093-.07813.23828-.02734.25h-.83203l.01953-.2539.05469-.23829.08984-.22265.125-.21094.15235-.1875.18359-.17578.20703-.15235.23047-.1328-.28516-.19532-.14062-.1211-.1289-.14453-.11329-.17187-.08594-.19922-.05859-.23438-.01953-.27343h.78515l.02344.21484.0664.1914.10548.16407.13672.14063.16406.11328.1875.07812.20703.05078.22266.01953.21875-.01953.20703-.05078.1875-.07812.16797-.11329.13671-.14062.10157-.16406.0664-.1914.02344-.21485-.02344-.21485-.0664-.1914-.10156-.16797-.13672-.13672-.16797-.11328-.1875-.08203-.20703-.05078-.21875-.01563-.22266.01563-.20703.05078-.1875.08203-.16406.11328-.13672.13672-.10547.16797-.0664.1914-.02344.21485h-.78516l.03906-.3789.10938-.33204.17187-.28516.23047-.23828.27734-.1875.32422-.13281.35938-.08594.38672-.02734"/><path fill="#ffffe0" fill-rule="evenodd" d="M346.1836 340.59766h22.17968v-10.19141H346.1836v10.1914"/><path fill-rule="evenodd" d="M349.6836 332.24219h.5078v6.29297h-.78906v-4.48829h-1.38671v-.55859l.55859-.0625.2539-.05469.23047-.08984.20313-.14063.17187-.21093.14063-.29297.10937-.39453m4.8125 0l.23047.01562.21875.0586.20703.08984.19532.11719.18359.15234.17188.17578.30078.41797.24609.49219.17969.54687.10937.58204.03906.58984-.03906.59375-.10937.58203-.17969.55469-.2461.5039-.30077.42579-.17188.17968-.1836.15235-.1953.125-.20704.09375-.21875.05468-.23047.01954-.23046-.01954-.21875-.05468-.20704-.09375-.1953-.125-.1875-.15235-.16798-.17969-.30469-.42578-.24218-.5039-.17969-.55469-.11328-.58203-.03516-.59375h.83203l.02735.5625.08203.50781.1289.4414.16016.375.1914.30079.21094.21875.22266.14062.22656.04688.22657-.04688.22265-.14062.21094-.21875.1914-.30078.16016-.375.125-.4414.08203-.50782.03125-.5625-.03125-.5625-.08203-.5-.125-.4336-.16015-.36718-.19141-.29297-.21094-.21485-.22265-.1289-.22657-.04688-.22656.04688-.22265.1289-.21094.21485-.1914.29297-.16017.36719-.1289.43359-.08203.5-.02735.5625h-.83203l.03516-.58985.11328-.58203.17969-.54687.24219-.49219.30468-.41797.16797-.17578.1875-.15234.19531-.11719.20704-.08984.21875-.0586.23046-.01562m5.08985 0h.51172v6.29297h-.78907v-4.48829h-1.38671v-.55859l.55859-.0625.2539-.05469.22657-.08984.20312-.14063.17578-.21093.14063-.29297.10547-.39453m2.82422 2.17187h.78515l.02344-.3164.0586-.28516.09765-.25.14063-.21875.17968-.17188.22266-.1289.26562-.08203.3086-.02735.23828.02344.22265.0625.20704.10156.17578.13672.15234.17578.11328.20313.07031.23828.02344.26172-.01953.26953-.0664.22656-.10938.1914-.15625.17188-.19922.16016-.25.16797-.63281.38672-.53906.3125-.4375.3164-.34375.32813-.26563.33203-.1914.35156-.125.3711-.06641.39453-.02344.41797h4.21485v-.7422h-3.33204l.08204-.28124.11328-.23828.14843-.20313.1875-.17969.23047-.17187.27735-.17578.71875-.41406.41406-.20704.34765-.23046.28125-.25.21875-.26954.16407-.27734.10937-.28125.0625-.28515.02344-.28125-.04297-.38282-.1211-.35156-.1875-.30469-.25-.26562-.30468-.21094-.34375-.16016-.38281-.09765-.40625-.03125-.4336.03125-.39843.09765-.35547.16797-.30469.23438-.2461.30469-.1875.37109-.11718.44922-.03906.51562"/></g></defs><use xlink:href="#ae"/></svg>