<svg xmlns="http://www.w3.org/2000/svg" role="img" xmlns:xlink="http://www.w3.org/1999/xlink" viewBox="142.45 309.95 326.84 171.84"><defs><clipPath id="a"><path d="M144 451h1v29.32813h-1zm0 0"/></clipPath><clipPath id="b"><path d="M144 311.67188h1V447h-1zm0 0"/></clipPath><clipPath id="c"><path d="M144 311.67188h324v168.65625H144zm0 0"/></clipPath><clipPath id="d"><path d="M467 463h1v17.32813h-1zm0 0"/></clipPath><clipPath id="e"><path d="M467 311.67188h1V463h-1zm0 0"/></clipPath><clipPath id="f"><path d="M144 479h4v1.32813h-4zm0 0"/></clipPath><clipPath id="g"><path d="M147 480h2v.32813h-2zm0 0"/></clipPath><clipPath id="h"><path d="M153 479h9v1.32813h-9zm0 0"/></clipPath><clipPath id="i"><path d="M160 480h2v.32813h-2zm0 0"/></clipPath><clipPath id="j"><path d="M166 479h9v1.32813h-9zm0 0"/></clipPath><clipPath id="k"><path d="M173 480h2v.32813h-2zm0 0"/></clipPath><clipPath id="l"><path d="M180 479h8v1.32813h-8zm0 0"/></clipPath><clipPath id="m"><path d="M187 480h2v.32813h-2zm0 0"/></clipPath><clipPath id="n"><path d="M193 479h9v1.32813h-9zm0 0"/></clipPath><clipPath id="o"><path d="M200 480h3v.32813h-3zm0 0"/></clipPath><clipPath id="p"><path d="M206 480h9v.32813h-9zm0 0"/></clipPath><clipPath id="q"><path d="M213 480h3v.32813h-3zm0 0"/></clipPath><clipPath id="r"><path d="M220 480h8v.32813h-8zm0 0"/></clipPath><clipPath id="s"><path d="M227 480h2v.32813h-2zm0 0"/></clipPath><clipPath id="t"><path d="M233 479h8v1.32813h-8zm0 0"/></clipPath><clipPath id="u"><path d="M240 480h3v.32813h-3zm0 0"/></clipPath><clipPath id="v"><path d="M246 480h9v.32813h-9zm0 0"/></clipPath><clipPath id="w"><path d="M253 480h3v.32813h-3zm0 0"/></clipPath><clipPath id="x"><path d="M260 479h8v1.32813h-8zm0 0"/></clipPath><clipPath id="y"><path d="M266 480h1v.32813h-1zm0 0"/></clipPath><clipPath id="z"><path d="M273 479h8v1.32813h-8zm0 0"/></clipPath><clipPath id="A"><path d="M279 480h2v.32813h-2zm0 0"/></clipPath><clipPath id="B"><path d="M286 478h8v2.32813h-8zm0 0"/></clipPath><clipPath id="C"><path d="M300 479h8v1.32813h-8zm0 0"/></clipPath><clipPath id="D"><path d="M305 480h2v.32813h-2zm0 0"/></clipPath><clipPath id="E"><path d="M313 478h8v2.32813h-8zm0 0"/></clipPath><clipPath id="F"><path d="M328 477h5v3.32813h-5zm0 0"/></clipPath><clipPath id="G"><path d="M340 478h7v2.32813h-7zm0 0"/></clipPath><clipPath id="H"><path d="M354 477h6v3.32813h-6zm0 0"/></clipPath><clipPath id="I"><path d="M369 476h2v4.32813h-2zm0 0"/></clipPath><clipPath id="J"><path d="M380 477h7v3.32813h-7zm0 0"/></clipPath><clipPath id="K"><path d="M393 478h8v2.32813h-8zm0 0"/></clipPath><clipPath id="L"><path d="M391 480h4v.32813h-4zm0 0"/></clipPath><clipPath id="M"><path d="M407 477h6v3.32813h-6zm0 0"/></clipPath><clipPath id="N"><path d="M422 476h3v4.32813h-3zm0 0"/></clipPath><clipPath id="O"><path d="M436 476h2v4.32813h-2zm0 0"/></clipPath><clipPath id="P"><path d="M448 477h5v3.32813h-5zm0 0"/></clipPath><clipPath id="Q"><path d="M461 476h5v4.32813h-5zm0 0"/></clipPath><clipPath id="R"><path d="M144 465h4v4h-4zm0 0"/></clipPath><clipPath id="S"><path d="M144 452h4v4h-4zm0 0"/></clipPath><clipPath id="T"><path d="M144 438h4v5h-4zm0 0"/></clipPath><clipPath id="U"><path d="M144 426h4v3h-4zm0 0"/></clipPath><clipPath id="V"><path d="M144 412h4v4h-4zm0 0"/></clipPath><clipPath id="W"><path d="M144 400h4v1h-4zm0 0"/></clipPath><clipPath id="X"><path d="M144 386h4v3h-4zm0 0"/></clipPath><clipPath id="Y"><path d="M144 373h4v2h-4zm0 0"/></clipPath><clipPath id="Z"><path d="M144 359h4v3h-4zm0 0"/></clipPath><clipPath id="aa"><path d="M144 343h2v8h-2zm0 0"/></clipPath><clipPath id="ab"><path d="M144 331h3v6h-3zm0 0"/></clipPath><clipPath id="ac"><path d="M144 318h4v5h-4zm0 0"/></clipPath><clipPath id="ad"><path d="M465 317h3v2h-3zm0 0"/></clipPath><g id="ae" clip-path="url(#clip1)"><path fill="#fff" fill-opacity="0" fill-rule="evenodd" d="M0 0h1000v1000H0zm0 0"/><path fill="#d3d3d3" fill-opacity="0" fill-rule="evenodd" d="M162.15234 355.86719l-.23437.29297.0586.23437.11718.17188.17578.23437.29297.34766.11328.0586.11719-.17188.0586-.23438.17577-.17578.46485-.17578h.69922l.23437.29297.28906.8164.0586.17579.17578.23046.35156.23438.69922.69922.17188.17578.23437.34765.23438.41016.28906.58203.41015.46485.23047.23437.23438.17578.11719.23047.17578.29297.17187 1.16406v.23438l.0586.28906.05859.11719.11719.11719.34765.41015.11719.17188.17578.17578.17578.23437.11719.17188.17188.35156.05859.23438.23437.40625.23438-.0586-.17578.17578-.0586.92969h-.58203l-.23437-.11328-.34766.11328-.11719.11719-.05859.29297-.0586.17578-.11718.17187-.46484.29297-.0586.23438-.0586.11328v.64453l.0586.17187v.41016l.0586.0586v.40624l.05859.40625.11719.17579.05859.05859.23047.64062-.0586.29297v.69922l-.05859.58203v.23438l-.0586.23047-.05468.35156v1.92187l.05469.1172h.42578l-.36719.11718-.02344.35156.89063 1.16797 1.74219.53906 1.33984.35938v.53906l.08984.8086.53516.71484 1.51953.26953.89063-.08594.08984 1.16406.53516.1797 1.16015-.1797 2.05469-.98437 1.16016-.36328 1.8789-.17578 1.69531-.1797-.17968.71876-1.51563.08594-1.25.08984-.80469.26953-1.07421.8086.26953.71875.53515.89843-.17968.625-.26563.8086.26563 1.07812.625.89844.80468.17969 1.25-.1797-.26562.72267.09766.5039.05468.29297v.17188l.0586.29296v.40625l.17578.1172.35156.11718h.40625l.29297-.17578.11328-.11719.0586-.11719.11718-.23047.0586-.17578.35156-.46484.23047-.17578.17578-.0586.17578.0586.0586.17578.11718.98828.05469.46875.0586.17188.11718.23437.17578.0586.8164.05859h.28907l.11719.23437.05859.40625.0586.35156v1.10547l.11718.29297.11719.34766.28906.69922.17578.35156.58203.7539.35157.17579.17187.0586.46875.23437.64063.46484.34765.23438.29297.17578.29297.05468.23047.0625.8164.34766.29297.17578.11328.17188.35157.35156.11719.17578.52343.64063v.28906l.0586.35156v.34766l.05859.35156.0586.28906.11718.0586.17188.05859h.17578l.58203.23437.17578.1172.17578.28905.17578.23438.11328.23437.29297.23047.11719.11719v.41016l.0586.05468.28906.23438.23437.11719.0586.11718.11718.17188.0586.11719.23047.23437.05859.17578.23437.0586.1172.05859-.1172.11328-.05859.11719v.11719l-.11719.29296-.11719.28907v.58203l.17579.11719.11718.05859.0586.11719.11719.11719.11328.05859.17578.34765.0586.35157.05858.40625v.17578l-.05859.17578-.11719.69922v.17187l.1172.17579.29296.29296h.40625l.17578.1172.11719.17187.11719.29296v.23438h-.52735l-.23047-.23438h-.23437l-.17578.0586-.0586.69922.0586.34765.11719.17579.17578.41015.11718.23047.28907.46875.17578.05469h.52344l.23437.0586.75781.64062.0586.29296v.23438l.05859.0586.23047.34765v.35156l-.11719.17188v.29297l.29297.28906.29297.17578.17187.0586.29297.17577.29297.1172.58203.40624.28906.23438.29297.17578.21875.16015.01563.01172.23047.17579.64062.52343.17578.23438.1172.17578.17577.17578.11328.17188v.64062l.1172.17578.46874.11719.58203.11719.23438.05859.23047.11328.29297.11719.11328.0586.58593.35156.28907.17187.17578.0625.17578.05469.17578.0586.69922.35155.28906.17579.23438.05468.28906.17578.23437.1172.64063.40624.29297.11719.17187.0586.23438.05859.41015.05859.23047.0586.23438.11718.0586.17188-.41017.17578.46875.0586.0586.29296.11328.23438.17578.05468.23438.0586.17578.05859.40625.11719.64062.23437.11719.17188.0586.23437v.17578l-.0586.1172-.0586.40624.23438.23438.11719.05859.34766.11719.64062.23047.17578.11718.28906.1172.17578.17577.23438.46485.58203 1.10546.17578.17579.34766.17578.17578.11719.35156.11718 1.04688.52344.23437.0586.46485.11327.29297.0586.46484.17578.75781.58203.23438.23438.34765.46484.17578.17578.28907.23438.8164.69921.29297.17579.28906.28906.29297.17578.29297.28906.69531.64063.17578.17578.29297.23437.28907.23438.46875.28906.64062.58203.34766.23438.23437.29297.34766.34765.35156.46485.9336.99218.34765.40625.11719.17579.23437.05859.11328.11719.64454.17578.23047.11328.23437.0586.29297.17577.23047.1172.9336.69921.40624.40625.23438.17578.40625.17578.23437.11719.8164.34766.34766.23437.23438.11719.29297.28906.23047.11719.7578.35156.35157.17188.23047.05859.29297.11719.23437.0586.8711.17577h.8164l.46875.23047.17188.0586.875.69921.46484.1172.29297.05858.17578.0586.23047.0586.46875.05859.34766.05859.35156.0586.40625.05859h.29297l.17187.0586v.23046l.17578.17578h.29297l.34766.0586.35156.05859.69922.11719h.64063l.46484-.23438.29297-.17578.17187-.11719.41016-.17187.28906-.17578.9336-.46485.46875-.29297.52343-.29296.46485-.17188.46484-.17578 1.05078-.46485.28906-.11718.41016-.11719.28906-.11719.52735-.17578 1.51562-.69922.58203-.34765.28907-.0586.29297-.0586.34765-.11718.875-.23047.35156-.11719h.11329l.23437-.05859.875-.23437.23438-.0586h.8125l.35156-.0586.8164-.11718.17188-.0586.35156-.05468.29297-.0586.23047-.05859.8164-.17578.17579-.0586h.34765l.23438-.05859.46484-.11718.75781-.17188.23438-.0586h.34765l.41016-.11718.28906-.0586 1.28516-.05859h.28906l.41016-.0586.23047-.05858h.17578l.875-.1172h.40625l.41015-.11718h.34766l.35156-.11328.8711-.0586h1.75l1.04687.28907.41016.11719.28906.11718.35156.11719.28907.11719 1.05078.17187.28906.0586h.29297l.29297.05859.17187.0586.41016.05859.17187.0586.1172.05858h.11718l.11719.0586.35156.0586h.11328l.41016.0664 1.92187.39453 1.92578.39453 1.51953.44922 1.69532.71875 2.14453.80469 1.60547-.71875 1.42968-.80469 1.16016-1.07813 1.25-.44921 3.03516-.71875 1.875-.35938 2.14453-1.34765 2.23437-1.25391 2.5-1.25781 1.69531-.44922 1.78516-.17969 1.16016-.26953.625.53906 1.33984-.26953.71485-.98828.98437-1.34375.44531-.17969.80469-.35937 1.875-.53907 1.78516-.44921 1.25-.26954 1.16015-.08984 1.69922-.08984 1.96094-.26954 1.25-.08984h.53906l.625-.08984h.89063l2.14453-.17969 2.41015-.17969 2.58985-.08984 1.69531.17969 1.60938.08984 1.42968.35938 1.16016.71875 1.875.98828 1.16015 1.52734.26563.71484.6289.08985.35548.89844.53515.53906.53516 1.52734 1.07422.35938h.53515l-.80469.53515.08985 1.70703.71484 2.69532.89063.80468.89453.98829.71484 1.2578 1.78516.53907 1.51953-.17969.35547 1.34375 1.60937-.80469.98047-.53906.26953.26953.31641-.21484.21875-.14453.80078.44922.44922-.35938h.35547l.53515-.26953.53907-.71875.53515-.26953.625-.98828 1.16016.44922.83984.3711 1.39454.61718 1.6953-.17969h1.60548l1.78515.08985.17969-1.70704.53516-1.34375.80468.26954.4922.84765.40233.40625-.08984.53906v.35938l.71485.44922.71093-.26953h1.42969l.35938.98828.4453 1.25781.71485 1.34375 1.25.6289 1.69531.62891.71485-.17969.17969-.53906.98046-.08984.44922.35937.08594 1.25782-.26563.6289-.53515.17969v.53906l.71484.98438.26563.53906.98437.98828.80078 1.07813-.26562.35937-.08985.89844-.625 2.33203-.35546 2.0664-.08985 1.79298-.17969.71875-.08984.53906v1.4375l-.98047 1.88281-.35937 1.70703-.53516.89844-.80469 1.16797-.26562.53906 2.05469 1.2539.08593.35938-.35546.53906-.08985-.17968v.80859l.08985 1.4375-.44532.71484-1.07422.09375-.26562.71485.53515.89844.8047.71875 1.16015.80859 1.33984.26953.44531.35938-.35546.44921-1.78907-.08984-1.25-.44922-.71484-.71875-.625-.08984-.17578 3.58984-.1875 1.3086h89.35937V311.70313h-55.26953v49.08203l.76172.125 3.28906.54296 2.02344 2.83594v2.7539l2.35156.33204 2.34766.33203h4.05078l-1.3789 4.16016-2.02344.70703-2.02344.70312-.54297.34375-2.59375 1.6172-.1875.11718-2.02344-2.07813-.73046-2.74218-2.67188-2.07813-1.375-3.5-.0664-.08203-1.95704-2.67188 2.75-1.41796v-49.08204H294.42187v91.41407l.1172.03125.1328.01172.07422.07421.10547.04688.08985.0586.08593.05859.08985.0586.29687.29687.0586.08984.03125.11719.02734.11719.01563.13671-.03125.1172-.0586.08983-.0586.08594-.04296.10547-.04688.10156-.02734.1211v.14453l.17578.26953.14844.14844.07422.08594.07422.07421.04296.10547.0625.08985.0586.08593.04297.10547.0586.08985.04687.10156.04296.10547.0586.08594.11719.17968.07421.07422.0625.08594.0586.08984.04297.10547.0586.08985.05858.08593.0625.08985.0586.08984.04297.10156.11719.17969.07421.07422.0586.08594.07422.07421.08984.0586.10547.04687h.14844l.1328-.01562.13282.01562.10156-.04687.07422-.07422.04688-.10156-.01563-.13281v-.14844l-.04687-.10547-.02735-.11719-.04687-.10156-.02735-.1211-.04296-.10156-.0625-.08984-.04297-.10156-.04297-.10547-.03125-.11719-.01563-.13281-.01171-.13672.08593-.0586.0586-.08593.12109-.03125.04297.10547.01562.1328v.1172l.0586.10156.0586.08984.08983.0586.14844.14843.0586.08985.04296.10547-.01171.10156.08593.0586.10547.04687.08594.0586.08984.05858.07422.07422-.11719.02735-.10546.04687-.08594.0586-.07422.07421-.0586.08985-.0625.08594-.02734.12109-.04687.10156-.04297.10547-.03125.11719-.01172.13281-.01563.13281v.14844l.02735.11719.04687.10547.04297.10156.0586.08984.07421.07422.08985.0586.07422.07421.08984.0586.0586.08984.04296.10547.04688.10156.11719.03125.1328.01563h.14845l.11718-.03125.10547.04297.04297.10547.04688.10156.02734.1211L299.5 410l.02734.11719.03125.1211.02735.11718.10547.04297.10156.04687.13281-.01562.14844.14844.0625.08593.07422.07422.07031.07422.08984.0625.10547.04297.10156.04297.1172.03125.13671.01562.11719-.03125.07422-.07422.02734-.11718-.01172-.13282-.03125-.12109-.02734-.11719.04297-.10547h.11719l.08984.0625.11719.02735h.14843l.13282.01562h.14843l.13282.01563.1328-.01563h.14845l.1328-.01562.13282-.01172.13672.01172.11719-.02735.13281-.01562.1914-.0586-.05859.17579-.01562.1328-.02735.1211-.01562.13281-.0586.08594-.1328.01563-.10548.04687-.10546.04297-.1172.03125-.11718.02735-.26563.03125h-.14843l-.13281.01562-.07422.07422.05859.08594.14844.14843.11719.1797.07421.0703.08985.0625.08984.0586.08594.0586.08984.05858.10156.04297.10547.0625.10547.04297.08594.0586.10547.04687.10156.04297.17969.11719.0586.08984-.04298.10156-.04687.10547.01562.13281.22266.22266.0586.08985.04296.10156.03125.1211.04297.10155.01563.13282.03125.11718.01171.13672.03125.11719.14844.14844.10156.04297.10547.04296.1172.03125.1328.01563.13672.01563h.11719l.11719-.03125.08984-.0586.04297-.10547.04688-.10156.04296-.10547.03125-.11719.01172-.1328v-.14845l-.01172-.1328-.01562-.13282-.03125-.11719-.04297-.10547-.04688-.10547-.04296-.10156-.04297-.10547-.01563-.13281.01563-.13281.02734-.11719.03125-.11719.02735-.1211.04687-.10155.08984-.0586.08594-.0625.07422-.07422.08984-.05859.22266-.22266.0586-.08593.07421-.07422.11719-.17969.0586-.08594v-.14844l-.07423-.07421-.10156-.04688-.10547-.04297-.10156-.04297-.0586-.08984-.04687-.10547-.02734-.11719.08984-.05859.11719-.03125.10156-.04297.17969-.11719.14844-.14843.01172-.13282-.01172-.10546-.08985-.0586-.1328.01563h-.14845l-.1328.01562-.13282-.01562-.1211-.03125-.08593-.0586-.07422-.07422-.0586-.08984-.0625-.08594-.11718-.17969-.0586-.08593.03125-.1211.08594-.05859.1211-.03125.05859-.08594v-.1211l-.03125-.11718-.0586-.08984-.05859-.08594-.04687-.10547-.02735-.11719-.01562-.1328.0586-.08985.07421-.07422.08984-.0586.1172-.17968.07421-.07422.0586-.08594.14843-.14844.1211-.03125.1328-.01562.13282.01562.07422.07422.04297.10547.01562.13281-.03125.1172-.11719.03124-.1328.01172-.14844.14844-.04297.10547-.04688.10156-.02734.1211-.03125.11718v.14844l.03125.11719.04297.10546.05859.08985.07422.07031.07422.07422.11719.03125.12109.02734.11719-.02734.1328-.01563h.1172l.08984.0586.07422.07422.04687.10546.0586.08594.10156.04688.13281.01562.10547.04297.08594.0586-.01172.10546-.07422.07422-.17969.11719-.05859.08984-.08984.0586-.07032.07422-.07421.07421-.0625.08985-.02735.11719-.01562.1328.01562.13282-.01562.13281v.14844l.01562.13281.02735.1172.03125.12108.07421.07422.08985.0586.08594.0586.08984.05858.11719.03125v.08594l-.10157.04688-.08984.0586-.26563.03124-.11718.02735h-.14844l-.10547.04296-.10156.04688-.0586.08984-.0625.23438-.01171.13281-.03125.1211-.01563.1328v.29298l-.01172.1328.01172.13673.01563.1328.1328.01563.13282.01172.1211.03125.08593.0586.07422.07421.04688.10547.04296.10157.01563.1328v.44532l-.01563.13281v.44532l.03125.26562.02735.11719.01562.13281.03125.11719.08594.21094.03125.26562v.14844l-.03125.11719-.02734.11718-.03125.1211-.02735.11719-.03125.11718-.03125.1211-.01171.1328-.01563.13282.08984.0586.1172-.03125.10155.01562.04688.10547-.03125.26562v.44141l-.04297.10547-.04688.10547-.04296.10156-.04297.10547-.0586.08594-.03125.12109-.04296.11719-.03125.11719-.01563.1328.01563.13282.05859.08984.10547.04688.08594.0586.05859.08593-.01172.13672-.03125.11719-.04297.10156v.44531l-.01562.13281v.14844l-.03125.11719-.04297.10547-.02735.11719-.04687.10546-.04297.10157-.03125.12109-.02734.11719-.03125.13281-.03125.11719-.02735.11719-.04297.10546-.03125.1172-.03125.12108-.01171.13282-.01563.13281v.29688l.02734.11718v.14844l.04688.39844.02734.11719.0586.08984.12109.03125h.14844l.13281-.01563.0586.08985v.11719l-.0586.08984-.08984.0586-.10157.04296-.10546.04688-.08985.05859-.08594.0586-.13671.01562-.1172-.03125-.1328-.01563-.10157.04688-.0625.08594-.01172.13671-.01562.13282-.03125.11719-.02735.11718-.01562.13281-.03125.1211v.29687l.01563.13282.03125.11718v.14844l.01171.13281v.14844l-.02734.11719-.04688.10156-.02734.1211-.03125.11718-.0586.08985-.07421.07421-.10156.04297-.10547.04688-.11719.02734-.1211.03125-.10156-.04687.0586-.08594.10547-.04688.02734-.11718.03125-.11719.02734-.1211.03125-.11718v-.14844l.01563-.13281-.03125-.11719-.04297-.10547-.10547.01563-.07422.07422-.10156.04296-.08984.0625-.07422.07422-.04297.10157-.01563.1328-.03125.1172L304.25 426l-.03125.11719-.02734.11719-.03125.12109-.02735.11719-.03125.11718-.04297.10547-.08984.0586h-.08984l-.1172-.03125-.03124-.08594.01562-.13672-.03125-.11719v-.14844l-.01171-.1328v-.14844l-.0625-.23438-.02735-.1211-.04297-.10156-.04687-.10546-.0586-.08594-.05859-.08985-.04297-.10546-.0625-.08594-.14844-.14844-.0703-.07422-.10548-.04687-.10547-.04297-.10156-.04297-.29687-.29688-.08985-.07421-.08594-.0586-.10546-.04297-.08985-.0625-.08594-.0586-.10546-.04296-.08985-.0586-.08594-.0625-.07421-.0703-.10547-.04688-.08594-.0586-.10547-.04296-.08984-.0625-.10156-.04297-.10547-.04297-.08594-.0586-.10547-.04687-.10547-.04297-.10156-.04687-.08985-.0586-.10156-.04297-.10547-.04296-.08984-.0625-.11719-.02735-.13281-.01562-.13281.01562H299.75l-.13281.01563-.11719-.03125-.08984-.0586-.07422-.07422-.08985-.05859-.10156-.04688h-.14844l-.12109-.02734-.10156-.04297-.07422-.07422-.11719-.17968-.08984-.0586-.10156-.04297-.08985-.0625-.10547-.04296-.08984-.0586-.08594-.0586-.10547-.04687-.0586-.08594-.05858-.08984-.04297-.10547-.04688-.10156-.07422-.07422-.08594-.0586-.07421-.07421-.08985-.0586-.22265-.22265-.04297-.10547-.03125-.26563.10547-.04296h.14453l.10547.04296.07421.07422.08985.0586.08594.0586.10546.04687.08985.05859.14844.14844.0703.07422.14845.14843.0625.08594.07421.07422.08594.0586.07422.07421.08985.0625.08984.0586.08594.05859.26953.17578.10156.04688.10547.04296.10156.04297.04688-.07421.05859-.08594.07422-.07422.07031-.07422.10547.04297.07422.07422.0586.08984.04296.10156.04688.10547.04296.10547.1211.02735.11719-.02735.07421-.08984.04297-.10547.0586-.08985.07422-.07421.10546-.04297.1172-.02735.1328.01172.08985.0586.14844.14843.05859.08985.04297.10547.04687.10156.04297.10547.04297.10156.10547.04688.10547.04296.13281.01563.08594-.0586.0586-.08984.07421-.07422.10547-.04297.11719.02735.10547.04687.10156.04297.10547.04297.10156.04688.17969.11718v.11719l-.01563.13281.01563.13281.01562.13672.0586.08594.10156.04688.1211.02734.11718.03125h.14844l.11719-.03125.05859-.08984.17969-.1172.05859-.08983.07422-.07422.0586-.08594.11718-.17969.17969-.11719.11719.03125.08984.0586.04297.07422-.01563.1328v.1172l.08985.05859h.14843l.13282-.01563.1328-.01171.26563-.03125.10547-.04297.11719-.03125.1211-.02735.07421-.07421.07031-.07422.0625-.08985-.01562-.10547-.04688-.10156-.10156-.04297-.10547-.01562-.11718.02734-.26563.03125h-.14844l-.07421-.07422-.08985-.0586-.11719-.03124-.11718-.02735-.13282-.01562h-.14843l-.13282.01563h-.29687l-.10547-.04688-.14844-.14844-.04297-.10156-.05859-.08984.22266-.22266.08593-.0586.10547-.04296.11719-.03125.13281-.01563.13281.01563.13672.01562.10157.04297.1328-.01172.08985-.0625.10156-.04297.0625-.08984-.04687-.10156-.08984-.0586-.1172-.03125-.10155-.04296-.0586-.08985-.0625-.08984v-.11719l.01563-.13281.10547-.04688.07421-.07031v-.1211l-.08984-.05859-.03125-.11719.08985-.05859.07421-.07422.04297-.10547.0586-.08984.04687-.10156.01563-.13281v-.14844l-.04688-.10547-.04297-.10156-.08984-.0586-.13281-.01562-.10157-.04297-.13671-.01563-.1172-.03125h-.4453l-.13282-.01562-.13281-.01172-.13281-.01563-.11719-.03125h-.14844l-.13281-.01562-.13281-.01172-.26563-.03125-.1211-.04297-.08593-.0586-.07422-.07421v-.14844l.01172-.13281.10547-.04688.10156-.04296.13281-.01563h.15235l.13281-.01562h.29297l.1211.03125.10156.04296.08984.0586.23438.0625.12109-.04688.08984-.05859.10156-.04297.13282-.01562.10547.04296.10156.04688.13281.01172.1211-.02735h.14453l.12109-.03125.11719-.02734.10547-.04687.07421-.07422.08594-.0586.14844-.14843.0586-.08594.04687-.10547.02734-.11719.01563-.10547-.10156-.04296-.08985-.0586-.11719-.03125-.10546-.04297-.08985-.0625-.07422-.08594-.07422-.07421-.10156-.04297-.10547-.04688-.10156-.04297-.0586-.08984-.04687-.10156-.08594-.21094-.0625-.08594-.05859-.08984-.07422-.07422-.08594-.0586h-.26953l-.11719.03126-.08984.05859-.10156.04297-.13281.01562-.10547-.01562-.02735-.11719-.0625-.08984-.11718-.03125-.10157-.04297-.14843-.14844-.03125-.11719-.01563-.10546.07422-.07422.17969-.1172.11719-.02733.11718-.03125.13672.01562.10156.04297.10547.04297.10156.04687.10547.04297.1172.03125.1328.01563.1172.02734.1328.01563.10547-.01563.08985-.0586-.07422-.07421-.10547-.04297-.07422-.07422-.07422-.08984-.14844-.14844-.08593-.0586-.08985-.05859-.07422-.07422-.08984-.0586-.10156-.04687-.1211-.02734-.10156-.04688-.10547-.04296-.11719-.03125-.10156-.04297-.1211-.03125h-.14843l-.11719.03125-.10546.04297-.08594.0625-.17969.11718-.08594.0586-.08984.0586-.10547.04687-.08594.05859-.10547.04297-.10156.04297-.10547.04687-.07422.07422-.05859.08985-.0586.08593-.04687.10547-.0586.08594-.07421.07422-.13281-.01172-.1172-.03125h-.11718l-.07422.07422-.08984.0586-.07422.07421-.08984.0586-.08594.05859-.10547.04687-.10156.04297-.13672.01563-.10156-.04297-.14844-.14844-.10547-.04688h-.08594l-.10547.04688-.10156.04297-.1211.03125-.11718-.03125-.07422-.07422v-.11719l.03125-.1211.07422-.0703.0586-.08985.07421-.07422.11719-.03125.10547-.04296h.29297l.13281-.01563.13672-.01563.10156-.04296.08985-.0586.10156-.04687.08984-.0586.13281-.01171.08985.05859.13281.01172.08984-.0586.08594-.05859.10547-.04297.08984-.0586.08594-.0625.08985-.05859.14843-.14843.0586-.08594.05859-.08985.10547-.04296.13281-.01563.11719.02735.1211.03125.05859-.0586.05859-.08984.03125-.26563.02734-.11719.10547.01172.13281.01563.10157-.04297.08984-.0586.0586-.08984.07421-.07422.0586-.08984.04687-.10156.01172-.13281-.01172-.13282-.04687-.10547-.14844-.14843-.0586-.08985-.05859-.08594-.04297-.10546v-.44532l.01563-.1328v-.14845l.01172-.1328-.0586-.0586-.08984.0586-.10156-.04298-.17969-.11719-.08594-.05859-.0625-.08984-.0586-.08985-.07421-.07421-.08594-.0586-.1211.03125-.10155.01172-.10547.04688-.08594.05859-.10547.04297-.14844.14844-.08984.05859-.08594.0586-.08984.0625-.10547.04296-.13281.01563v-.1211l.10547-.04297.11718-.03125.07422-.0703.04297-.10548v-.14844l-.02734-.11718-.14844-.14844-.13281-.01563h-.14844l-.11719.03125-.10547.04297-.10156.04297-.08984.0625-.11719.02735-.07422-.07422.01172-.13281-.04297-.10157-.04297-.10547-.08984-.05859-.11719.02734-.1211.03125-.11718.03125-.10156.04297-.1211.03125-.10156.04297-.10547.04297-.08984.0586-.10156.01562v-.11719l.01562-.13281-.0586-.08985-.07421.04297-.14844.14844-.0586.08985-.07421.07421-.04688.10547-.04296.10156-.07422.07422-.0586.08985-.07422.07422-.05859.08593-.07422.07422-.08984.0625-.07422.07031-.07422.07422-.10156.01563-.13281.01562-.10547-.04296v-.1211l.14843-.14844.04297-.10156.0586-.08984.04687-.10156.04297-.10547.0586-.08985.03124-.11719.04297-.10156.03125-.1211.02735-.11718.04687-.10547.04297-.10156.04297-.10547.07422-.07031.08984-.0625.08985-.0586.10156-.04296h.29687l.26563-.03125.10547-.04297-.07422-.07422-.11719-.03125-.10547-.04297-.08984-.0586-.10156-.04687-.08985-.0586-.10156-.04296-.10547-.04297-.08984-.0625-.08594-.0586-.10547-.04296-.10156-.04297-.1211-.03125-.11718-.03125-.10157-.04297L297.5 410.25l-.10156-.04297-.08985-.0586-.04296-.10546-.01563-.13281.10156-.04297.13281-.01563.13672.01563.13282-.01563.10156-.04297.0586-.08984.01562-.10547-.08985-.0586-.07421-.07421-.10157-.04297-.08984-.0586-.14844-.14843-.04297-.10547-.01562-.13281v-.29297l-.0586-.08985-.08984-.05859-.07422-.07422-.04297-.10547-.03125-.11718-.0586-.08985-.07421-.07422-.11719-.02734-.07422-.07422-.08984-.0586-.08984-.0625-.08594-.05859-.07422-.07421-.0586-.08594-.04687-.10547-.08594-.0586-.14843-.14843-.19532-.0586-.1328.01563-.10157.04297-.07422.07422-.04688.10156-.04296.10547-.0586.08984-.0586.08594-.29687.29687-.08984.0586h-.08594l-.0625-.08594-.04297-.10547.03125-.11719.0586-.08984.02734-.11719-.01172-.13281-.08984-.0625-.10547.04688-.11719.02734-.11719.03125-.26953.17578-.10156.04688-.11719.02734-.10546.04687-.08985.0586-.10156.04297-.0586-.08594-.04687-.10547.01563-.13281.04687-.10547.07031-.07422.07422-.07031.0586-.08985v-.14843l-.04297-.10547h-.23829l-.10156.04687-.03125.11719-.02734.11719-.03125.1211-.07422.04296-.13281.01563-.07422-.04688-.04297-.10156-.04297-.10547-.04687-.10156-.04297-.10547-.1211.03125-.10156.04297-.13281.01562-.11719.03125-.10547.04297-.08984.0586-.10156.04687-.1211.02734-.13281.01563-.10156-.04297-.0586-.08985-.04687-.10546-.04297-.10157-.04297-.10546v-.1172l.0586-.08984.08593-.05859.17969-.11719.10156-.04687.10547-.04297.10547-.0586.10156-.04296.08985-.0625.10156-.04297.10547-.0586.10156-.04687.08984-.0586.10547-.04296.10156-.04297.08985-.0625.10156-.04297.13672-.01563.11719.03125.10156.04297.1211.03125.10156.04297.10546.04688.10157.04296.10547.04297.10156.04688.10547.04297.10156.04297.10547.04687.08594.0586.10546.04296.1172.03125.10546.04297.10156.04688.08985.0586.10547.04296.10156.04297.10547.04687.11719.02735.10156.04687.1211.02735h.14843l.08594-.0586.01562-.10156.0586-.08984-.02735-.1172-.07422-.07421-.11719-.17969-.07421-.07422-.08985-.07421-.17969-.1172-.08593-.05859-.10547-.04296-.10156-.04688-.26954-.17578-.05859-.08985-.07422-.07421-.0586-.08985-.04296-.10156-.03125-.11719-.01563-.13672v-.5625l-.01171-.1328-.01563-.13282-.03125-.11719-.01562-.13281-.01172-.13281-.03125-.1211-.22266-.22265-.0586-.08594-.01562-.10547.03125-.11719.13281-.01562v-91.41406H172.9922v1.45312l-.0586.23438-.35156 1.05078-.17187.52343-.1172.34766-.17577.41016-.11719.17187-.23438.29297-.23046.0586h-.35157l-.11718.05859-.23047.40625v.29297l.11719.17578.23046.23047.1172.23437.64062.75781.29297.46485.17578.23437.23047.35156.23437.34766.64063.8164.17578.46485.17187.41016.11719.69531.17578.46875.11719 1.39844.0586.46484v.875l.11718 1.04688v4.78125l-.0586.46484-.35156 1.28125-.17578.52344-.11328.41015-.35156.9297L172.93359 336l-.23437.58203-.11719.17578-.17187.34766-.17578.40625-.35157.8164-.0586.29297-.11327.29297-.11719.28906-.0586.17579-.11718.875-.0586.40625-.05859.11718-.0586.17579-.05859.17187-.23047.52734-.11718.17188v.23437l-.11719.23438-.0586.17187-.17577.58594v.28906l-.0586.17579v.29296l-.0586.11329-.05859.52734v.17187l-.05468.23438v2.6211l-.17578.8164-.1172.17578-.17577.23438-.1172.17187-.11327.23438-.58594.93359-.23047.28906-.29297.46485-.17578.23437-.28906.35156-.35156.69922-.11328.23047-.17579.41016-.17578.23046-.40625.52735-.8164.69922-.29297.17187-.28906.23438-.17579.11719-.17578.17578-.52344.40625-.52734.17578-.17187.17578-.23438.05469-.64062.17578h-.75782m12.21094 31.02344l-1.07422.44921.35938.89454 1.25-.71485.44531-.53906-.98047-.08985"/><path fill="#d3d3d3" fill-opacity="0" fill-rule="evenodd" d="M201.50781 416.59766h-.89453l.44922.6289.98047.35938.80469-.08985.4453-.98828-.17577.08985-.71485-.35547-.89453.35547m154.6211 59.0703l-.0586-.52343v-.29297l.11328-.29297.0586-.23046.46875-.46875h.11328l.11719-.11329.11718-.05859h.17579l.23437-.0586h.34766l.23437.0586.11719.0586.23047.17187.0586.17578.11718.58203v.29297l-.11719.17578-.17187.28906-.17579.17579-.52734.52343-.23047.23438-.11719.0586h-.17578l-.11718-.0586-.40625-.29297-.17579-.11719-.11718-.0586-.0586-.11327-.05468-.1172m6.64062-10.95702l-.0586-.17188v-1.10937l.0586-.17188.17578-.0586.17188-.05858h.17578l.23437-.0586.1172.0586.05858.69921-.05859.17188-.11719.17578-.11718.0586-.23438.52343-.11328.0586h-.23438l-.05859-.1172m9.61328-14.39062l-.11719-.17578v-.69922l.29297-.875.1172-.17187.17577-.35156.11328-.23047.1172-.29297.35155-.75781.1172-.23047.17187-.23438h.17578l.11719-.0586h.64062l.11719.0586.23437.23438.17188.11328.35156.29297.11719.11718.11328.17579v.11328l.11719.05859.11718.11719v.69922l-.05859.17578v.23047l-.0586.17578-.34765 1.05078-.11719.23047-.11719.23437-.11718.0586-.23047.23437-.64063.28906h-.875l-.41015-.11718-.64063-.46485"/><path fill="none" stroke="#bebebe" stroke-linecap="round" stroke-linejoin="round" stroke-miterlimit="10" stroke-width=".5" d="M467.95703 311.69531H144.02734v168.625h323.9297v-168.625"/><g clip-path="url(#a)"><path fill="#fff" fill-opacity="0" fill-rule="evenodd" d="M144 475.89063v4.4375h.0039H144v-28.50391 24.0664"/></g><g clip-path="url(#b)"><path fill="#fff" fill-opacity="0" fill-rule="evenodd" d="M144 444.82031v1.70313-134.85156h.0039H144V444.8203"/></g><path fill="#50fcfc" fill-rule="evenodd" d="M144 446.52344v5.30078l.0039-.0039v-5.29298l-.0039-.0039"/><g clip-path="url(#c)"><path fill="#fff" fill-opacity="0" fill-rule="evenodd" d="M144.0039 480.32813V451.8203l1.52344-2.5586-1.52343-2.73437V311.67188h88.76172v115.87109l-4.4375.55078-3.3086 3.41406-1.1289 2.98828-4.4375.44922-4.4375.63672-4.44141-.32812-2.95703.6914-1.48047.27344-3.39063-.27344-1.04687-.17187-4.4375.09375-1.60547.07812-2.83594.08203-.28906-.08203-4.14844-1.38672-4.4375.06641-4.4375.01172-4.4414-.4414-4.4375.48437-4.4375.97265-.34766.29297-4.08984 2.26953-3.9961 2.16797 1.2539 4.4375.42579 4.4414.20703 4.4375-.3086 4.4375-.64062 4.4375 3.0586 2.91798 4.4375-1.32422 2.70312-1.59375 1.73438-1.01953 4.4375.26562 4.4414.65235 4.4375-.6836 4.4375-.76172 4.4375-1.8203.8789-1.07032 3.5625-.61328 4.4375-1.82422 4.4375-1.39063.92579-.60937 3.51172-2.20313 4.4414.625 4.4375-.59765 2.8672-2.26172 1.5703-.89453 4.4375-.64063 4.4375-2.8711.03907-.03515 3.76172-4.4375.64062-.33984.64063.33984 3.79687 2.82813 4.4375-.6211 2.01172-2.20703-2.01172-4.16797-.125-.26953-4.3125-3.75-4.4375-.64453-.1211-.04297-4.3203-3.96484v-115.8711h26.6328v120.1172l-4.4414 1.39062-2.0039 2.76562 2.0039 2.1289 4.4414.53517 2.35548-2.66407-2.35547-4.15625V311.67187h8.875v116.1875l-3.97656 3.64844 3.97656 2.86328 4.4375-.8125 4.4414.34375 4.4375 1.47266.98829.57031 3.44921 2.42578 4.4375-.78906 1.66797-1.63672-1.66797-1.85156-1.93359-2.58594-2.5039-2.34765-4.4375-.84766-4.4375.38281-4.44141-.58594-4.4375-.25v-116.1875h84.32812v123.1836l-4.4375.04687-1.0625 1.04297 1.0625 1.10547 4.4375 1.36719 1.35938-2.47266-1.35938-1.08984v-123.1836h22.1914v127.46875l-1.39843 1.2422 1.39844 1.76952 3.42578 2.66797-3.42578 1.7461-1.73438 2.6953 1.73438 1.61329 1.79297-1.61328 2.64844-3.92969.57421-.51172-.57421-.63672-3.22657-3.80078-1.21484-1.24219V311.67188h17.7539V453.75l-4.4375.55469-4.4375 1.41406-2.3828 2.41797-1.15235 4.4375 3.53515 3.64062.5547.80079 3.8828 3.71484 4.4375-.82422 4.4375-2.89063-.59375-4.4414.17188-4.4375-4.01563-4.38672V311.67187h75.44922v150.4336l-.46484.46875.46484.46094v17.29296H144.00391"/></g><path fill="#50fcfc" fill-rule="evenodd" d="M145.52734 449.26172l-1.52343 2.5586v-5.29298l1.52343 2.73438m13.48438-4.4414l-1.2539-4.4375 3.99609-2.16798v22.50782l-.47657 1.85156.47657.45703.93359-.45703-.9336-1.85156v-22.50782l4.08985-2.26953.34766-.29297 4.4375-.97265v5.15625l-4.4375.03125-.89453.51562-1.03907 4.4375 1.9336 1.72656 1.23047-1.72656 3.20703-3.77344.67187-.66406-.67187-.54687v-5.15625l4.4375-.48438 4.4414.4414 4.4375-.01171 4.4375-.0664 4.14844 1.38671.28906.08203 2.83594-.08203 1.60547-.07812 4.4375-.09375 1.04687.17187 3.39063.27344 1.48047-.27344 2.95703-.6914 4.4414.32812 4.4375-.63672 4.4375-.44922 1.12891-2.98828 3.3086-3.41406v7.17969l-2.29688.67187 2.29688.42578.16796-.42578-.16797-.67187v-7.17969l4.4375-.55078v4.41015l-3.10937 3.9922-1.32813 3.38671-4.4375-.03515-2.82812 1.08593-1.60938 1.4414-4.4375-.66796-2.17187-.77344-2.26953-.40625-1.70703.40625-2.73047 1.16016-4.4375-.25781-4.4375.36718-2.36328 3.16797-2.07813 2.46485-3.39453-2.46485-1.04297-1.19922-2.46484 1.19922-1.97266.67969-4.4375 1.86719L175.06641 449l-1.46094.26172.28125 4.4375 1.17969 2.04297 2.0703-2.04297 2.3711-1.28516 3.29297 1.28516 1.14453.73828 4.4375.42969 1.7461-1.16797 2.6914-1.80469 4.4414 1.67188 4.4375-2.36329 4.4375-.58593 1.69532-1.35547 2.74219-3.28125 4.4414 2.36328 4.4375-1.72656 4.4375-1.44531 4.4375-.03516.48047-.3164 3.50391-4.4375.45313-.06641 4.4414-2.38282 4.4375 1.53125.625-3.51953-.625-.54297-4.4375-1.58984-4.4414-1.85938v-4.41015l4.3203 3.96484.1211.04297 4.4375.64453 4.3125 3.75.125.26953 2.01172 4.16797-2.01172 2.20703-4.4375.6211-3.79687-2.82813-.64063-.33984-.64062.33984-3.76172 4.4375-.03906.03516-4.4375 2.8711-4.4375.64062-1.57032.89453-2.86719 2.26172-4.4375.59765-4.4414-.625-3.51172 2.20313-.92578.60937-4.4375 1.39063-4.4375 1.82422-3.5625.61328-.8789 1.07031-4.4375 1.82031-4.4375.76172-4.4375.6836-4.44141-.65235-4.4375-.26562-1.73438 1.01953-2.70312 1.59375-4.4375 1.32422-3.0586-2.91797.64063-4.4375.3086-4.4375-.20704-4.4375-.42578-4.4414"/><path fill="#00e8fc" fill-rule="evenodd" d="M161.7539 463.03125l-.47656-.45703.47657-1.85156.93359 1.85156-.9336.45703m4.4375-16.48438l-1.93359-1.72656 1.03906-4.4375.89454-.51562 4.4375-.03125.67187.54687-.67187.66406-3.20703 3.77344-1.23047 1.72656m7.6953 7.15235l-.28124-4.4375L175.0664 449l4.4414-1.63281 4.4375-1.86719 1.97266-.67969 2.46484-1.19922 1.04297 1.19922 3.39453 2.46485 2.07813-2.46485 2.36328-3.16797 4.4375-.36718 4.4375.2578 2.73047-1.16015 1.70703-.40625 2.26953.40625 2.17188.77344 4.4375.66797 1.60937-1.4414 2.82813-1.08594 4.4375.03515 1.32812-3.38672 3.10938-3.99219v2.48047l-1.17579 1.51172 1.17578 1.65625 2.58985-1.65625-2.58984-1.51172v-2.48046l4.4414 1.85937 4.4375 1.58984.625.54297-.625 3.51953-4.4375-1.53125-4.4414 2.38282-.45313.0664-3.5039 4.4375-.48048.3164-4.4375.03517-4.4375 1.4453-4.4375 1.72657-4.4414-2.36328-2.74219 3.28125-1.69531 1.35547-4.4375.58594-4.4375 2.36328-4.4414-1.67188-2.69141 1.80469-1.7461 1.16797-4.4375-.42969-1.14453-.73828-3.29297-1.28516-2.3711 1.28516-2.0703 2.04297-1.1797-2.04297"/><path fill="#fff" fill-opacity="0" fill-rule="evenodd" d="M228.32813 435.27344l-2.29688.67187 2.29688.42578.16796-.42578-.16797-.67187"/><path fill="#00d4fc" fill-rule="evenodd" d="M232.76563 437.60156l-1.17579-1.65625 1.17578-1.51172 2.58985 1.51172-2.58984 1.65625"/><path fill="#50fcfc" fill-rule="evenodd" d="M254.95703 438.07422l-2.0039-2.1289 2.0039-2.76563 4.4414-1.39063 2.35548 4.15625-2.35547 2.66406-4.4414-.53515m13.3164-3.70313l-3.97656-2.86328 3.97656-3.64844v3.48438l-.17969.16406.17969.1289.42187-.1289-.42187-.16406v-3.48438l4.4375.25 4.4414.58594 4.4375-.38281v2.10156l-2.76171 1.09375 2.76171 1.32031 2.8125-1.3203-2.8125-1.09376v-2.10156l4.4375.84766 2.50391 2.34765 1.9336 2.58594 1.66796 1.85156-1.66797 1.63672-4.4375.78906-3.44921-2.42578-.98829-.57031-4.4375-1.47266-4.4414-.34375-4.4375.8125"/><path fill="#00e8fc" fill-rule="evenodd" d="M268.27344 431.63672l-.17969-.1289.17969-.16407.42187.16406-.42187.1289m13.3164 1.19142l-2.76171-1.32032 2.76171-1.09375 2.8125 1.09375-2.8125 1.32031"/><path fill="#50fcfc" fill-rule="evenodd" d="M348.16406 437.05078l-1.0625-1.10547 1.0625-1.04297 4.4375-.04687 1.35938 1.08984-1.35938 2.47266-4.4375-1.36719m26.6289 13.82422l-1.73437-1.61328 1.73438-2.69531 3.42578-1.7461-3.42578-2.66797-1.39844-1.76953 1.39844-1.24219 1.21484 1.2422 3.22656 3.80077.57422.63672-.57421.51172-2.64844 3.92969-1.79297 1.61328m8.8789 15.33984l-3.53515-3.64062 1.15234-4.4375 2.38281-2.41797 4.4375-1.41406 4.4375-.55469v1.51172l-4.4375.59765-3.47656 2.27735-.96094 3.69531-.26562.74219.26563.27344 2.90625 4.16796 1.53125 1.46094 4.4375-1.26953.29687-.1914 1.5-4.44141.83203-4.4375-2.6289-2.875V453.75l4.01562 4.38672-.17188 4.4375.59375 4.4414-4.4375 2.89063-4.4375.82422-3.8828-3.71485-.5547-.80078"/><path fill="#00e8fc" fill-rule="evenodd" d="M383.67188 462.84766l-.26563-.27344.26563-.74219.96093-3.69531 3.47656-2.27735 4.4375-.59765v2.52344l-2.35156.35156-2.08594.96875-1.40625 3.46875 1.40625 1.86328 2.14063-1.86328 2.29688-3.42969.3203-1.00781-.3203-.35156v-2.52344l2.6289 2.875-.83203 4.4375-1.5 4.4414-.29688.19141-4.4375 1.26953-1.53125-1.46094-2.90625-4.16796"/><path fill="#00d4fc" fill-rule="evenodd" d="M388.10938 464.4375l-1.40625-1.86328 1.40625-3.46875 2.08593-.96875 2.35156-.35156.32032.35156-.32031 1.00781-2.29688 3.42969-2.14063 1.86328"/><path fill="#50fcfc" fill-rule="evenodd" d="M467.9961 463.03516l-.46485-.46094.46484-.46875v.92969"/><g clip-path="url(#d)"><path fill="#fff" fill-opacity="0" fill-rule="evenodd" d="M467.9961 480.32813H468v-17.29297 17.29296h-.0039"/></g><path fill="#50fcfc" fill-rule="evenodd" d="M467.9961 462.10547v.92969H468v-.9297h-.0039"/><g clip-path="url(#e)"><path fill="#fff" fill-opacity="0" fill-rule="evenodd" d="M467.9961 311.67188H468v150.43359-150.4336h-.0039"/></g><path fill="#fff" fill-opacity="0" fill-rule="evenodd" d="M252.61719 444.50781l.84375-5.77734-9.85938-1.4375-.83984 5.77734 9.85547 1.4375"/><path fill-rule="evenodd" d="M245.07813 439.875l.07421-.5039 6.23047.90624-.11328.78125-4.44531-.64843-.19922 1.375-.55078-.08204.01562-.5625-.01562-.2578-.05469-.23829-.10937-.22265-.1836-.20313-.26953-.1836-.3789-.16015"/><g clip-path="url(#f)"><path fill="none" stroke="#000" stroke-linecap="round" stroke-linejoin="round" stroke-miterlimit="10" stroke-width=".5" d="M147.48047 480.82031l-6.96094-.98437"/></g><g clip-path="url(#g)"><path fill="none" stroke="#000" stroke-linecap="round" stroke-linejoin="round" stroke-miterlimit="10" stroke-width=".5" d="M147.48047 480.82031l.83594 2.3086"/></g><g clip-path="url(#h)"><path fill="none" stroke="#000" stroke-linecap="round" stroke-linejoin="round" stroke-miterlimit="10" stroke-width=".5" d="M160.76563 480.9961l-6.89844-1.33204"/></g><g clip-path="url(#i)"><path fill="none" stroke="#000" stroke-linecap="round" stroke-linejoin="round" stroke-miterlimit="10" stroke-width=".5" d="M160.76563 480.9961l.71875 2.34374"/></g><g clip-path="url(#j)"><path fill="none" stroke="#000" stroke-linecap="round" stroke-linejoin="round" stroke-miterlimit="10" stroke-width=".5" d="M174.0586 481.10547l-6.85548-1.55078"/></g><g clip-path="url(#k)"><path fill="none" stroke="#000" stroke-linecap="round" stroke-linejoin="round" stroke-miterlimit="10" stroke-width=".5" d="M174.0586 481.10547l.64452 2.36719"/></g><g clip-path="url(#l)"><path fill="none" stroke="#000" stroke-linecap="round" stroke-linejoin="round" stroke-miterlimit="10" stroke-width=".5" d="M187.41406 480.88281l-6.9375-1.10937"/></g><g clip-path="url(#m)"><path fill="none" stroke="#000" stroke-linecap="round" stroke-linejoin="round" stroke-miterlimit="10" stroke-width=".5" d="M187.41406 480.88281l.79688 2.32031"/></g><g clip-path="url(#n)"><path fill="none" stroke="#000" stroke-linecap="round" stroke-linejoin="round" stroke-miterlimit="10" stroke-width=".5" d="M200.76953 480.49219l-7.01953-.32813"/></g><g clip-path="url(#o)"><path fill="none" stroke="#000" stroke-linecap="round" stroke-linejoin="round" stroke-miterlimit="10" stroke-width=".5" d="M200.76953 480.49219l1.05078 2.21875"/></g><g clip-path="url(#p)"><path fill="none" stroke="#000" stroke-linecap="round" stroke-linejoin="round" stroke-miterlimit="10" stroke-width=".5" d="M214.08984 480.3711l-7.02734-.08204"/></g><g clip-path="url(#q)"><path fill="none" stroke="#000" stroke-linecap="round" stroke-linejoin="round" stroke-miterlimit="10" stroke-width=".5" d="M214.08984 480.3711l1.125 2.17968"/></g><g clip-path="url(#r)"><path fill="none" stroke="#000" stroke-linecap="round" stroke-linejoin="round" stroke-miterlimit="10" stroke-width=".5" d="M227.40234 480.3789l-7.02343-.09765"/></g><g clip-path="url(#s)"><path fill="none" stroke="#000" stroke-linecap="round" stroke-linejoin="round" stroke-miterlimit="10" stroke-width=".5" d="M227.40234 480.3789l1.1211 2.1797"/></g><g clip-path="url(#t)"><path fill="none" stroke="#000" stroke-linecap="round" stroke-linejoin="round" stroke-miterlimit="10" stroke-width=".5" d="M240.71875 480.42578l-7.02734-.19531"/></g><g clip-path="url(#u)"><path fill="none" stroke="#000" stroke-linecap="round" stroke-linejoin="round" stroke-miterlimit="10" stroke-width=".5" d="M240.71875 480.42578l1.08984 2.19922"/></g><g clip-path="url(#v)"><path fill="none" stroke="#000" stroke-linecap="round" stroke-linejoin="round" stroke-miterlimit="10" stroke-width=".5" d="M254.03516 480.3789l-7.02735-.09765"/></g><g clip-path="url(#w)"><path fill="none" stroke="#000" stroke-linecap="round" stroke-linejoin="round" stroke-miterlimit="10" stroke-width=".5" d="M254.03516 480.3789l1.12109 2.1797"/></g><g clip-path="url(#x)"><path fill="none" stroke="#000" stroke-linecap="round" stroke-linejoin="round" stroke-miterlimit="10" stroke-width=".5" d="M267.30078 480.90234l-6.92969-1.14843"/></g><g clip-path="url(#y)"><path fill="none" stroke="#000" stroke-linecap="round" stroke-linejoin="round" stroke-miterlimit="10" stroke-width=".5" d="M266.29297 480.73438l.39062 1.16406"/></g><g clip-path="url(#z)"><path fill="none" stroke="#000" stroke-linecap="round" stroke-linejoin="round" stroke-miterlimit="10" stroke-width=".5" d="M280.65625 480.5586l-7.01172-.46094"/></g><g clip-path="url(#A)"><path fill="none" stroke="#000" stroke-linecap="round" stroke-linejoin="round" stroke-miterlimit="10" stroke-width=".5" d="M279.63672 480.49219l.5039 1.11719"/></g><g clip-path="url(#B)"><path fill="none" stroke="#000" stroke-linecap="round" stroke-linejoin="round" stroke-miterlimit="10" stroke-width=".5" d="M293.6914 481.72266l-6.44921-2.78907"/></g><g clip-path="url(#C)"><path fill="none" stroke="#000" stroke-linecap="round" stroke-linejoin="round" stroke-miterlimit="10" stroke-width=".5" d="M307.1836 481.19922l-6.8086-1.73828"/></g><g clip-path="url(#D)"><path fill="none" stroke="#000" stroke-linecap="round" stroke-linejoin="round" stroke-miterlimit="10" stroke-width=".5" d="M306.19531 480.94531l.28906 1.1914"/></g><g clip-path="url(#E)"><path fill="none" stroke="#000" stroke-linecap="round" stroke-linejoin="round" stroke-miterlimit="10" stroke-width=".5" d="M320.125 482.10938l-6.0586-3.5586"/></g><g clip-path="url(#F)"><path fill="none" stroke="#000" stroke-linecap="round" stroke-linejoin="round" stroke-miterlimit="10" stroke-width=".5" d="M332.46484 483.17969l-4.10937-5.69922"/></g><g clip-path="url(#G)"><path fill="none" stroke="#000" stroke-linecap="round" stroke-linejoin="round" stroke-miterlimit="10" stroke-width=".5" d="M346.66797 478.40625l-5.88281 3.84375"/></g><g clip-path="url(#H)"><path fill="none" stroke="#000" stroke-linecap="round" stroke-linejoin="round" stroke-miterlimit="10" stroke-width=".5" d="M359.14453 483.14453l-4.20703-5.6289"/></g><g clip-path="url(#I)"><path fill="none" stroke="#000" stroke-linecap="round" stroke-linejoin="round" stroke-miterlimit="10" stroke-width=".5" d="M370.69531 483.82422l-.67578-6.99219"/></g><g clip-path="url(#J)"><path fill="none" stroke="#000" stroke-linecap="round" stroke-linejoin="round" stroke-miterlimit="10" stroke-width=".5" d="M381.10547 482.72656l5.13281-4.79687"/></g><g clip-path="url(#K)"><path fill="none" stroke="#000" stroke-linecap="round" stroke-linejoin="round" stroke-miterlimit="10" stroke-width=".5" d="M394.07813 482.30078l5.8164-3.94531"/></g><g clip-path="url(#L)"><path fill="none" stroke="#000" stroke-linecap="round" stroke-linejoin="round" stroke-miterlimit="10" stroke-width=".5" d="M394.07813 482.30078l-2.16797-1.14844"/></g><g clip-path="url(#M)"><path fill="none" stroke="#000" stroke-linecap="round" stroke-linejoin="round" stroke-miterlimit="10" stroke-width=".5" d="M408.1914 483.14063l4.21876-5.6211"/></g><g clip-path="url(#N)"><path fill="none" stroke="#000" stroke-linecap="round" stroke-linejoin="round" stroke-miterlimit="10" stroke-width=".5" d="M422.72656 483.72656l1.78125-6.79687"/></g><g clip-path="url(#O)"><path fill="none" stroke="#000" stroke-linecap="round" stroke-linejoin="round" stroke-miterlimit="10" stroke-width=".5" d="M436.90625 483.84375l.05078-7.02734"/></g><g clip-path="url(#P)"><path fill="none" stroke="#000" stroke-linecap="round" stroke-linejoin="round" stroke-miterlimit="10" stroke-width=".5" d="M448.26172 483.22656l3.97265-5.79687"/></g><g clip-path="url(#Q)"><path fill="none" stroke="#000" stroke-linecap="round" stroke-linejoin="round" stroke-miterlimit="10" stroke-width=".5" d="M465.22656 483.42188l-3.32812-6.1875"/></g><g clip-path="url(#R)"><path fill="none" stroke="#000" stroke-linecap="round" stroke-linejoin="round" stroke-miterlimit="10" stroke-width=".5" d="M147.41797 467.82422l-6.83594-1.6211"/></g><path fill="none" stroke="#000" stroke-linecap="round" stroke-linejoin="round" stroke-miterlimit="10" stroke-width=".5" d="M147.41797 467.82422l.6211 2.3711m12.71484-2.46095l-6.87891-1.4414m6.8789 1.4414l.6836 2.35547m12.69922-2.82812l-7.01172-.4961m7.01172.4961l.99219 2.24219m12.32812-2.56641l-7.02344.15234m7.02344-.15234l1.19922 2.14063m12.0625-2.6836l-6.91797 1.23828m6.91797-1.23828l1.51563 1.92969m11.77734-2.03906l-6.875 1.45703m6.875-1.45703l1.57812 1.8789m11.75782-1.77734l-6.91407 1.2539m6.91407-1.2539l1.51953 1.92969m11.85156-1.3711l-7.02734.13672m6.0039-.11719l.59766 1.07032m13.71484-1.44141l-6.97656.83984m5.96094-.71875l.70312 1.00782m13.64453-.9375l-7.01172.45703m5.9922-.39063l.64452 1.04297m13.64063-1.51562l-6.91016 1.26953m5.90625-1.08594l.76172.96094m13.4414-1.59766l-6.67968 2.17578m5.71094-1.85937l.88281.85156m13.49219.67969l-6.85938-1.51953m5.86328 1.30078l.32422 1.17968m13.97656-.91406l-6.83984-1.61328m13.22266.76563l7.02734.08203m6.28906.1289l7.01953-.33984m-5.99609.28906l-.6289-1.05469m12.92187 1.1211l7.01953-.3711m-5.9961.31641l-.6328-1.05078m13.01953 1.7539l6.82812-1.66796m-5.83203 1.42578l-.8164-.91797m13.03906.1836l7.02343.28515m-7.02343-.28516l-1.0625-2.21093m14.375 2.28906l7.02734.1289m-7.02734-.1289l-1.10938-2.1875m14.82031 3.86719l6.23828-3.23047m-6.23828 3.23047l-2.01953-1.39063m2.92578.92188l-2.01953-1.39453m14.8125 2.45312l5.46875-4.41016m-5.46875 4.41016l-2.25781-.96094m15.67187 1.08203l5.26954-4.65234m-4.50391 3.97266l-1.14844-.4297m15.59375 2.21876l1.48047-6.8711m-1.26562 5.8711l-1.1797.33594m15.58985.6953l-1.14062-6.93359m.97265 5.92579l-.97265.74218"/><g clip-path="url(#S)"><path fill="none" stroke="#000" stroke-linecap="round" stroke-linejoin="round" stroke-miterlimit="10" stroke-width=".5" d="M147.23828 455.0625l-6.47656-2.72656"/></g><path fill="none" stroke="#000" stroke-linecap="round" stroke-linejoin="round" stroke-miterlimit="10" stroke-width=".5" d="M147.23828 455.0625l.21875 2.44531m12.61328-1.6289l-5.51172-4.35938m4.71094 3.72266l-.21875 1.20703m14.01953-.22266l-4.8789-5.05468m4.16797 4.3203l-.37891 1.16407m13.7461.07031l-3.5625-6.05468m3.04687 5.17187l-.64453 1.04688m15.98437-1.95704l-6.57812-2.46875m5.62109 2.10938l.15625 1.21484m14.10547-3.35156l-6.5586 2.52344m5.60547-2.15625l.92578.80469m12.375-2.5547l-4.625 5.28907m3.95313-4.51953l1.19531.27734m13.22266-.59765l-5.48828 4.38672m4.6914-3.7461l1.125.48438m12.69922-1.44141l-4.91406 5.02344m4.19922-4.29297l1.17578.34375m12.3711-1.46875l-3.94532 5.8125m3.3711-4.96875l1.21875.13281m13-.72266l-4.60547 5.3047m3.9375-4.53516l1.1953.27734m12.83595-1.00781l-4.70313 5.22265m4.01953-4.46093l1.1914.29687m13.14845-.70312l-5.38672 4.51562m5.38672-4.51562l2.27734.92187m9.8164-1.85547l-2.9414 6.38281m2.51172-5.45312l1.22656-.07031M328 451.14062l4.82031 5.1172m-4.11718-4.3711l.39453-1.16406m11.1289 2.67187l7 .60547m-5.98437-.51563l-.48047-1.1289m12.76953 1.48828l7.01953-.28906m-6 .2461l-.61719-1.0586m13.1836-.40235l6.48047 2.71875m-5.53907-2.32421l-.11328-1.21875m12.28125 1.49609l6.89063 1.3711m-6.89063-1.3711l-.70703-2.34766m13.98438 2.57813l6.96484.91406m-6.96484-.91406l-.86328-2.29688m15.12109 5.17969l5.08203-4.85156m-5.08203 4.85156l-2.33203-.76953m15.76562.88672l4.84375-5.08985m-4.84375 5.08985l-2.36328-.65625m15.36328.3164l5.47266-4.40625m-4.67578 3.76563l-1.1289-.48438m13.90234 1.41016l4.96093-4.97656m-4.23828 4.25l-1.17578-.35547m15.33594 1.98437l1.82812-6.78515m-1.82812 6.78515l-2.39063.55079"/><g clip-path="url(#T)"><path fill="none" stroke="#000" stroke-linecap="round" stroke-linejoin="round" stroke-miterlimit="10" stroke-width=".5" d="M147.20703 441.8164l-6.41406-2.86718"/></g><path fill="none" stroke="#000" stroke-linecap="round" stroke-linejoin="round" stroke-miterlimit="10" stroke-width=".5" d="M147.20703 441.8164l.16797 2.44923m13.09766-2.34375l-6.31641-3.07813m6.3164 3.07813l.08594 2.45312m12.84375-1.83594l-5.54687-4.3125m4.74219 3.6875l-.21094 1.20703m13.9414-.15625l-4.76562-5.16015m16.46484 6.00781l-1.53515-6.85938m1.3125 5.86329l-.9336.79687m14.5625.17578l-1.71875-6.8125m1.46875 5.82422l-.91015.82031m16.5625-5.15625l-5.89063 3.83594m17.41406-5.23437l-2.30859 6.63671m15.92578-6.51562l-2.91015 6.39453m2.48437-5.46484l1.22656-.07813m12.44532-.88281l-2.77344 6.45703m2.3711-5.51953l1.22265-.10156m11.88672-1.03516l-1.5586 6.85156m1.33204-5.85547l1.18359-.3203m11.9336-.7461l-.71094 6.99219m.60937-5.97266l1.13281-.46484m12.60547-.50391l-1.35547 6.89453m1.16016-5.89453l1.17187-.35547m12.4922-.61328l-1.66016 6.82812m1.66015-6.82812l2.3789-.60547m10.57032.53906l-.92969 6.96485m.92969-6.96485l2.30078-.85547m9.35938 1.03125l2.3828 6.60938m-2.03515-5.64844l.82422-.91015m11.59375.20312l3.48047 6.10547m-2.97266-5.21875l.65625-1.03516m11.73829.42188l4.30468 5.55469m-3.67968-4.7461l.5039-1.11719m11.46485 1.06641l5.74609 4.04297m-5.7461-4.04297l.3047-2.4375m.53124 3.02344l.15235-1.21485m12.02343 1.14844l6.35547 3.0039m-6.35547-3.0039l-.11328-2.45312m1.03907 2.89062l-.1172-2.45312m1.04298 2.88672l-.0586-1.22266m11.22657 1.3125l6.9453 1.07812m-6.9453-1.07812l-.8047-2.3164M407.83985 440l-.40234-1.15625m13.21875 3.4336l5.92188-3.78516m-5.92188 3.78515l-2.13672-1.20703m14.91797-.30078l6.98438-.77344m-6.98438.77344l-1.38281-2.02734m16.02734-1.125l4.33203 5.53125m-3.70312-4.72657l.4961-1.12109m13.18359 6.39453l2.34375-6.625m-2.00391 5.66016l-1.21094.1836"/><g clip-path="url(#U)"><path fill="none" stroke="#000" stroke-linecap="round" stroke-linejoin="round" stroke-miterlimit="10" stroke-width=".5" d="M147.4336 427.8125l-6.8672-1.48828"/></g><path fill="none" stroke="#000" stroke-linecap="round" stroke-linejoin="round" stroke-miterlimit="10" stroke-width=".5" d="M146.4336 427.59375l.33593 1.1836m13.85938-.53907L154 425.89844m6.6289 2.33984l.3672 2.42578m12.6914-1.86328l-6.11328-3.46484m6.11328 3.46484l-.0664 2.45313m13.05468-1.97266l-5.46094-4.42188m5.46094 4.42188l-.46875 2.40625m14.33984-3.375l-6.57421-2.48438m6.57422 2.48438l.3125 2.4336m13.1875-3.14844l-6.94532-1.0586m5.9375.90625l.40625 1.15625m13.91406-.96875l-6.9375-1.125m5.92579.96094l.39843 1.16016m13.91797-.9336l-6.91406-1.2539m5.90625 1.0703l.375 1.16798m12.86719-4.19922l-4.7539 5.17578m4.0625-4.42188l1.1875.3086m11.87108-1.6836l-2.85937 6.41797m2.4414-5.48437l1.22657-.08594m12.54687-.83203l-2.9375 6.38672m2.50782-5.45703l1.22656-.07032m10.19922-1.07421l1.69922 6.8164m-1.45313-5.82422l.91016-.8203m14.57031.08983l-3.125 6.29297m16.25-6.3789l-2.7461 6.46875m2.34766-5.53125l1.22266-.10547M330 423.57812l.82422 6.98047M330 423.57812l2.01563-1.39843m10.97656 1.45312l1.46484 6.8711m-1.25-5.8711l.9375-.78906m13.38672-.2539l-.98047 6.95702m.83985-5.9453l1.15234-.41798m8.89453.9297l5.83594 3.91015m-4.98438-3.34375l.1211-1.21875m11.7539 2.42187l7.01563.3711m-7.01563-.3711l-1.03515-2.22656m16.16406-.66406l3.38672 6.15625m-3.38672-6.15625l1.34375-2.05469m-.85156 2.94922l1.34375-2.05469m11.34375 1.23828l3.66015 5.9961m-3.1289-5.125l.625-1.0547m16.59375.82813l-5.21485 4.70703m5.21485-4.70703l2.30859.83594M439 424.22656l-4.13672 5.6836M439 424.22656l2.42969.34375m-3.03125.48438l1.21484.17187m9.85156-1.58203l1.56641 6.84766m-1.5664-6.84766l1.85546-1.60547m-1.6289 2.60156l.92968-.80468m12.55079-.25782l.78125 6.98047m-.78125-6.98047l2.02734-1.38671"/><g clip-path="url(#V)"><path fill="none" stroke="#000" stroke-linecap="round" stroke-linejoin="round" stroke-miterlimit="10" stroke-width=".5" d="M147.36719 414.75781L140.6328 412.75"/></g><path fill="none" stroke="#000" stroke-linecap="round" stroke-linejoin="round" stroke-miterlimit="10" stroke-width=".5" d="M146.38672 414.46484l.24219 1.20313m13.94922-.60938l-6.52344-2.60937m5.57422 2.23047l.1328 1.21875m14.35938-1.75l-6.98047-.78907m5.96485.67579l.44922 1.14062m13.88672-1.0586l-6.9922-.72656m5.97267.6211l.46093 1.13672m13.88281-1.17969l-7.01171-.42969m5.99218.36719l.50782 1.11719m13.72265-2.14844l-6.80469 1.75781m14.50391 1.84766l4.42969-5.45703m-3.78516 4.66406l-1.20312-.23438m14.57812 1.47266l3.01953-6.34375m-3.01953 6.34375l-2.44922.10938m20.72266-2.61329l-6.89844-1.33593m5.89453 1.14062l.35938 1.17578m12.98047.84766l-4.9414-4.9961m14.25-.66015l3.07421 6.32031m-2.625-5.40234l.72266-.99219m11.66406.35547l4.03125 5.75781m-3.4414-4.92187l.55468-1.08985m10.8125 4.10547l6.75-1.94531m-5.76953 1.66016l-.85156-.87891m16.57812-3.32422l-.03125 7.02734m.02344-6.0039l1.08594-.57031m9.3203 1.07812l5.80079 3.96875m-4.95703-3.39062l.13672-1.21875m16.5039-.65235l-2.54296 6.55078m2.17578-5.59765l1.21484-.14453m11.4336-1.03907l-.47266 7.01172m.40234-5.98828l1.1211-.5039m10.92187 6.3203l2.21484-6.66796m-1.89453 5.69922l-1.21093.20703m14.0039-5.83203l2.61719 6.52343m-2.23438-5.57421l.78907-.9375m12.125-.00391l2.65234 6.50781M395.66016 410.5l1.5703-1.88281m-1.18358 2.82812l1.5703-1.88281m13.5547.78906l-1.7422 6.80469m1.7422-6.80469l2.38671-.58203m-2.64062 1.57031l1.19531-.28906m13.26953-.33594l-3.53125 6.07422m3.53125-6.07422l2.45313.09375m-2.96875.79297l1.22656.04688m12-1.21094l-2.32422 6.63281m2.32422-6.63281l2.42578-.3711m-2.76562 1.33594l1.21484-.18359m12.14844-.8711l-1.73828 6.8086m1.73828-6.8086l2.38281-.57812m11.1914.65625l-2.2578 6.65625m2.2578-6.65625l2.42188-.39453m-2.75 1.36328L466.78516 411"/><g clip-path="url(#W)"><path fill="none" stroke="#000" stroke-linecap="round" stroke-linejoin="round" stroke-miterlimit="10" stroke-width=".5" d="M147.51172 400.53516l-7.02344-.19141"/></g><path fill="none" stroke="#000" stroke-linecap="round" stroke-linejoin="round" stroke-miterlimit="10" stroke-width=".5" d="M146.48828 400.50781l.54688 1.09766m13.7578-.67188l-6.95702-.99218m5.94531.84765l.41797 1.15625m13.9375-1.30469l-7.01563-.40234m5.9961.34375l.51172 1.11328m13.5078.21485l-6.3828-2.94141m5.45312 2.51172l.07031 1.22656m14.4922-2.47265l-7.01563.40625m5.99218-.34766l.63672 1.05078m7.03906-2.45313l6.3086 3.09766m-5.39063-2.64844l-.03906-1.22656m12.16016 3.08985l6.85937-1.52735m-5.86328 1.30469l-.79687-.9336m17.08984 3.86329l-1.08984-6.94141m1.08984 6.9414l-1.96094 1.47266m17.52735-2.8164l-5.59375-4.25391m4.78125 3.63281l-.19922 1.21094m11.9375.77344l-.8125-6.98047m.69531 5.96484l-1.01172.69531m17.55078-3.24609l-7.02734.15235m6.0039-.12891l.60157 1.07031m13.60547-.07031l-6.76563-1.89453m5.78125 1.61719l.26172 1.19921m10.41016-5.375l.49218 7.00782m-.42187-5.98829l1.03906-.64843m8.94531 2.89062l7.01172.48438m-5.99218-.41406l-.5-1.1211m13.70703-1.07422l5.1914 4.73828m8.20703-4.82421l5.02344 4.91015m7.30078-2.7539l7.0039.59375m-5.98437-.50782l-.48046-1.125m14.67578-1.78906l3.20312 6.2539m-2.73828-5.34374l.70313-1.00782m14.92578-.08593l-2.35157 6.62109m2.35157-6.6211l2.42578-.36327m-2.76953 1.32421l1.21484-.17968m12.64844-.70313l-2.76563 6.46094m2.76563-6.46094l2.44531-.20312m-2.84766 1.14453l2.44532-.20703m11.71875-.50391l-3.65625 6m3.65625-6l2.44922.14453m-2.98047.73047l1.22656.07031m12.8086-.82031l-4.03516 5.7539m4.03515-5.7539l2.4375.30078m-3.02343.53516l1.21875.15234m11.6953-1.47265l-2.05859 6.71875m2.0586-6.71875l2.41015-.46485m-2.71093 1.4414l1.20703-.23046m12.71484-.63672l-2.67187 6.5m2.67187-6.5l2.4414-.24219m-2.83202 1.1875l1.22265-.1211m12.6914-.73046l-3.08983 6.3125m3.08984-6.3125l2.45312-.08203m-2.90234 1l1.22656-.03906"/><g clip-path="url(#X)"><path fill="none" stroke="#000" stroke-linecap="round" stroke-linejoin="round" stroke-miterlimit="10" stroke-width=".5" d="M147.44531 386.4336l-6.89062 1.3789"/></g><path fill="none" stroke="#000" stroke-linecap="round" stroke-linejoin="round" stroke-miterlimit="10" stroke-width=".5" d="M147.44531 386.4336L149 388.33202m11.78125-.63672l-6.9336-1.14453m5.92579.97656l.39062 1.16407m13.08594.77343l-5.23828-4.68359m4.47656 4.0039l-.29297 1.19141m15.23828-2.42187l-6.97656-.85938m5.96094.73438l.4375 1.14453m8.55469-4.4375l3.69922 5.97656m14.70312-1.6211l-6.47266-2.73827m6.47266 2.73828l.21484 2.44531m13.35938-3.48438l-6.9961-.66015m6.9961.66015l.94531 2.26563m12.38281-2.41797l-7.01953-.35547m7.01953.35547l1.03907 2.22266m12.27734-2.5664l-7.01953.33202m7.01953-.33203l1.25 2.11328m11.50781-3.85156l-5.90625 3.8086m5.04688-3.25391l1.07031.59765m13.61719.1875l-6.9336 1.12891m6.9336-1.1289l1.48437 1.95312m11.69922-2.49219l-6.67187 2.20703m6.67187-2.20703l1.77344 1.69531m10.44531-3.30078l-4.47656 5.41797m3.82422-4.6289l1.20312.24609m13.78906.3789l-6.52734 2.59375m5.57813-2.21875l.9375.79297m13.45703-.77734l-6.78907 1.8086m5.80079-1.54688l.83593.89844m9.125-3.63672l1.89844 6.76562m-1.6211-5.78125l.88673-.84765m15.85546 5.42578l-5.51171-4.36328m4.70703 3.72656l-.21875 1.20703m14.51953-4.67969l-5.875 3.85547m5.875-3.85547l2.15234 1.17969m10.1211-2.21094l-3.78907 5.91797m3.78907-5.91797l2.4453.19922m11.22657.0625l-4.5039 5.39453m4.5039-5.39453l2.40234.5039m-3.05859.28126l1.20313.2539m12.625-1.15234l-4.21875 5.6211m4.21875-5.6211l2.42187.3789m-3.03516.4375l1.21094.19141m12.14453-1.35937l-3.0703 6.32422m3.0703-6.32422l2.44922-.08985m10.73438.03125l-2.8086 6.44141m2.8086-6.4414l2.44531-.1875m-2.85547 1.125l1.22656-.09376m12.34375-.90625l-2.5 6.56641m2.5-6.5664l2.4375-.3047m-2.80078 1.26173l1.21875-.15235m12.69922-.70312l-2.98047 6.36328m2.98047-6.36328l2.45313-.125m-2.88672 1.05078l1.22656-.0625"/><g clip-path="url(#Y)"><path fill="none" stroke="#000" stroke-linecap="round" stroke-linejoin="round" stroke-miterlimit="10" stroke-width=".5" d="M147.51172 373.65625l-7.02344.30469"/></g><path fill="none" stroke="#000" stroke-linecap="round" stroke-linejoin="round" stroke-miterlimit="10" stroke-width=".5" d="M147.51172 373.65625l1.24219 2.11719m12.0703-2.16016l-7.01562.39063m7.01563-.39063l1.26953 2.09766m11.8789-.82422l-6.6875-2.15625m6.6875 2.15625l.4297 2.41797m10.89062-6.74219l-2.69922 6.48828m2.69922-6.48828l2.44531-.23047m10.98047.28125l-2.91797 6.39063m2.4961-5.46094l1.22265-.07422m13.58594-.09766l-5.0586 4.875m4.32032-4.16796l1.16797.3828m13.04687 3.60157l-5.38672-4.51172m5.38672 4.51172l-.50781 2.40234m14.54297-3.8164l-6.82422-1.67969m6.82422 1.67969l.60156 2.3789m12.75-3.90234l-6.89453 1.36719m6.89453-1.36719l1.55078 1.90234m11.8164-1.51953l-7 .60156m7-.60156l1.33204 2.0625m11.78906-2.94531l-6.61328 2.36719m6.61328-2.36719l1.8164 1.65234m11.59376.41797l-6.80078-1.77344m5.80859 1.51563l.28516 1.1914m14.125-1.55077l-7.00782-.53907m7.00782.53906l.98046 2.25m12.23047-3.40625l-6.80078 1.77344m5.8125-1.51562l.82813.90234m12.70703-2.60156l-5.26172 4.65625m4.4961-3.98047l1.14843.42969m12.90235-1.13672l-5.20704 4.71875m5.20704-4.71875l2.30859.83203m11.82812.73828l-6.84765 1.57813m6.84765-1.57813l1.60938 1.85156m11.77734-1.42187l-6.99219.71875m6.9922-.71875l1.36718 2.03515m11.38281-3.61718L380.7422 375.75m5.0039-3.3164l1.08204.58202m12.68359-1.65234l-5.05078 4.89063m4.3164-4.1797l1.16407.37892m13.01562-.94532l-5.3086 4.60156m5.3086-4.60156l2.28906.8789m11.13282-.75l-5.52344 4.34376m4.71875-3.71094l1.125.4961m12.23828-1.83985l-4.01172 5.76563m4.01172-5.76563l2.4375.28906m10.27734-.625l-2.8125 6.4375m2.8125-6.4375l2.44532-.1914m10.6953.1211l-2.46483 6.57812m2.46484-6.57813l2.4336-.32031m-2.79298 1.27734l1.21875-.16015"/><g clip-path="url(#Z)"><path fill="none" stroke="#000" stroke-linecap="round" stroke-linejoin="round" stroke-miterlimit="10" stroke-width=".5" d="M147.48438 360.05078l-6.96875.88672"/></g><path fill="none" stroke="#000" stroke-linecap="round" stroke-linejoin="round" stroke-miterlimit="10" stroke-width=".5" d="M147.48438 360.05078l1.41796 2.0039m11.7461-2.67577l-6.66406 2.23046m6.66406-2.23046l1.77734 1.6875m11.65625.07421l-6.90625-1.29296m6.90625 1.29296l.73438 2.33985m12.21484-4.66406l-6.17188 3.35546m5.27344-2.86718l1.02344.67578m12.94531-1.55469l-5.67969 4.13672m4.85157-3.53516l1.10547.53516m12.8125-1.41797l-5.23047 4.69531m4.46875-4.01171l1.15234.42187m13.69922 2.16016L220.5 359.57422m6.78125 1.83594l.54688 2.39453m12.73437-2.27735l-6.71484-2.0703m6.71484 2.0703l.46094 2.41016m-1.4375-2.71094l.23047 1.20703m14.15234-2.62109l-6.89453 1.35938m6.89453-1.35938l1.54688 1.90234m11.5-2.71484l-6.35938 2.98828M267.01563 359l1.96484 1.46875m11.14062-1.85156l-5.9414 3.75m5.07812-3.20313l1.0664.60938m13.6211.22656l-6.95703.98828m5.94531-.84765l.72266.99218m13.63672-.60937l-7.02735-.0586m6.00782.05079l.5664 1.08593m13.76172-.86719l-7.01172-.48046m5.9922.41015l.5 1.11719m13.70702-2.2539l-6.7539 1.93359m6.7539-1.9336l1.70313 1.76172m10.67968 1.72656l-4.89453-5.04296m4.1836 4.30859l-.375 1.16797m15.35547-2.07813l-6.80079-1.7578m5.8125 1.5039l.28516 1.1914m14.1289-1.91015l-7.02343.1914m7.02344-.1914l1.21093 2.13281m11.6172-3.82813l-6.04688 3.57813m6.04687-3.57813l2.09375 1.27735m10.35938-2.25781l-4.32422 5.53906m4.32422-5.53906l2.41797.42968m10.15234-.875l-2.83203 6.4297m2.83203-6.4297l2.44531-.17968m10.90235.1953l-2.89844 6.40235m2.89844-6.40234l2.44921-.15625m10.15235-.07813l-1.47266 6.8711m1.25781-5.8711l1.1797-.33984m11.15624-.71094l.91797 6.96875m-.91797-6.96875l1.9961-1.42187m12.66406 1.50781l-1.77344 6.80078m1.77344-6.80078l2.38672-.5664"/><g clip-path="url(#aa)"><path fill="none" stroke="#000" stroke-linecap="round" stroke-linejoin="round" stroke-miterlimit="10" stroke-width=".5" d="M145.4375 343.97266l-2.875 6.41015"/></g><path fill="none" stroke="#000" stroke-linecap="round" stroke-linejoin="round" stroke-miterlimit="10" stroke-width=".5" d="M145.01953 344.90625l1.22656-.08203m13.91016.28515l-5.6836 4.13672m4.85548-3.53515l1.10546.53906m13.6875.52344l-6.98047.8086m6.98047-.8086l1.39063 2.02344m11.9375-1.38282l-7.00781-.47265m7.0078.47265l1.00392 2.24219m11.77734-4.35547l-5.9414 3.7539m5.07812-3.20702l1.0625.60546m13.65234.97266l-7.01172-.4961m7.01172.4961l.9961 2.24219m12.1953-1.53906l-6.76562-1.89844m6.76563 1.89844l.52344 2.39453m-1.50782-2.67188l.26172 1.19922m13.89844-.51953l-6.48828-2.70313m6.48828 2.70313l.23047 2.4414m12.65625-1.6953l-5.63281-4.19923m4.8164 3.58985l-.1875 1.21094m14.4336-.76172l-5.85938-3.8789m5.00781 3.3164l-.11719 1.21875m14.84375-3.00781l-6.98046.82812m5.96484-.71094l.69922 1.00781m13.1836-2.47265l-6.08204 3.51953m5.19531-3.00781l1.04297.64844m13.625.38671l-7.01562.42579m5.99218-.36329l.64063 1.04688m13.66797-.40625l-6.95703-.98047m20.21484-.3086l-6.84375 1.59766m6.84375-1.59765l1.61328 1.84765m11.66406-1.98828l-6.76953 1.88281m6.76953-1.8828l1.69141 1.77733m10.7539-3.29296l-5.02734 4.91015m4.29688-4.19531l1.16797.375m13.86718 1.07422l-7.0039.58203m5.98437-.4961l.66407 1.03126m13.67187-.60157l-7.01172-.44921m7.01172.44921l1.01172 2.23438m12.16406-3.47266l-6.73047 2.02735m6.73047-2.02735l1.72656 1.74219m11.41016-2.21094l-6.3711 2.96485m6.3711-2.96485l1.95703 1.47656m-2.88672-1.04296l.98047.73828m12.77735-1.9375l-5.39844 4.4961m5.39844-4.4961l2.26953.92578m-3.05469-.27344l1.13672.46485m11.8086-2.02344l-3.08985 6.3086m3.08984-6.3086l2.45313-.08203m10.29687-.13672l-1.96094 6.7461m1.96094-6.7461l2.40235-.5039m11.80468.90624l-3.74609 5.94531m3.20312-5.08203l1.22266.08985"/><g clip-path="url(#ab)"><path fill="none" stroke="#000" stroke-linecap="round" stroke-linejoin="round" stroke-miterlimit="10" stroke-width=".5" d="M141.39453 331.5039l5.21094 4.71876"/></g><path fill="none" stroke="#000" stroke-linecap="round" stroke-linejoin="round" stroke-miterlimit="10" stroke-width=".5" d="M154.72266 331.48828l5.18359 4.75m-5.1836-4.75l.6172-2.375m13.73046 1.60156l3.1211 6.29688m-2.66797-5.3789l.71484-1m14.75 6.58593l-2.08594-6.71094m17.82032 2.76172l-6.92578 1.1875m5.91796-1.01562l.75.97265m13.13672-2.33594l-6.05078 3.57032m5.16797-3.05078l1.04688.63671m12.1289 3.51563l-4.00781-5.77344m3.42578 4.9336L224.75 337m15.66406-1.69922L234 332.42578m5.48047 2.45703l.08203 1.22266m14.3086-1.17969l-6.69923-2.125m5.72266 1.8164l.22266 1.20704m14.1914-1.42578l-6.9453-1.07031m5.93358.91406l.40625 1.15625m13.9297-1.05469l-6.96094-.96094m5.9453.82031l.42579 1.15235m13.88281-.88672l-6.92187-1.21094m5.91406 1.03516l.38281 1.16406m13.04688-3.9961l-5.13282 4.8047m15.59766-5.90625l.5664 7.0039m-.48437-5.98437l1.03125-.66016m12.53516-.36719l-.10157 7.02344m.08594-6.0039l1.09375-.5586m14.48828 5.70703l-4.60156-5.3125m3.92969 4.53906l-.4414 1.14454m15.54687-3.83594l-6.83985 1.61719m5.84375-1.38282l.8086.92188m13.0664 1.5039l-5.96875-3.70312m5.10157 3.16406l-.08204 1.22656m14.53907-3.85546l-6.51563 2.6328m5.5664-2.25l.94141.78907m12.29688-2.57031l-4.46484 5.42578m18.34765-4.83203L407.5 335.98438m4.78906-3.625l1.11328.51562m13.125-.97656l-5.82422 3.92969m4.97657-3.35938l1.08593.57813m11.58204-2.39844l-2.83204 6.42969m2.83204-6.4297l2.44921-.17968m10.17579-.04297l-1.44922 6.875m1.44922-6.875l2.35546-.67969m-2.5664 1.6797l1.17578-.33985m13.29687-.3125l-3.34765 6.17969m3.34765-6.1797l2.45313.01954"/><g clip-path="url(#ac)"><path fill="none" stroke="#000" stroke-linecap="round" stroke-linejoin="round" stroke-miterlimit="10" stroke-width=".5" d="M140.85938 318.97656l6.28125 3.14453"/></g><path fill="none" stroke="#000" stroke-linecap="round" stroke-linejoin="round" stroke-miterlimit="10" stroke-width=".5" d="M153.875 319.83203l6.8789 1.4336m-6.8789-1.4336l-.6836-2.35547m1.6836 2.5625l-.6836-2.35547m12.9961 2.15625l6.88281 1.41797m-6.88281-1.41797l-.6914-2.35546m1.6953 2.5625l-.6914-2.35547m12.94922 2.51171l6.99219.6875m-6.9922-.6875l-.93358-2.26953m1.94921 2.3711L181 319.16797m12.96094 2.58984l6.59765-2.41797m-6.59765 2.41797l-1.82813-1.64062m14.98438-.1914l6.91797 1.24608m10.29297 2.86329l-.875-6.97266m.875 6.97266l-2.00782 1.41015M237.5 324.05078l-.58984-7.0039m.58984 7.0039l-2.0625 1.32813m16.8164-1.77735l-3.46874-6.10937m2.96484 5.22265l-.65625 1.03516m15.45703-.96875l-5.42969-4.46484m4.63672 3.8125l-.24218 1.20312m14.85156-1.36719l-6.4336-2.83203m5.4961 2.41797l.08984 1.22266m14.4414-2.57031l-6.99218.6875m5.97656-.58594l.67969 1.02344m12.80078-3.09375l-5.28906 4.625m4.51953-3.94922l1.14844.43359m13.6836 2.1211l-6.78516-1.83204m5.79687 1.5625l.27344 1.19922m14.05469-2.66015l-6.83594 1.6289m5.84375-1.39062l.8086.91796m13.32812-1.68359l-6.4922 2.6836m5.54688-2.29297l.94532.78125m12.51562-2.35157l-4.89453 5.04297m4.1836-4.3086l1.17578.33985m13.82812 2.23047l-6.85156-1.57031m5.85547 1.34375l.3203 1.1836M386.52735 318.5l-5.71093 4.09375m4.8789-3.4961l1.10157.54298m11.92968-2.14454l-3.48047 6.10157m2.97657-5.21485l1.22656.03906m10.73828-1.38671l.22656 7.02343m-.22656-7.02343l2.1289-1.21875m10.16798 1.40625l2.26171 6.65234m-1.92968-5.6875l.83984-.89063m12.44922-.16406l1.65234 6.83203m11.8711-6.875l1.23437 6.91797m-1.05469-5.91406l.96485-.7539m14.97265.45702l-4.37109 5.5"/><g clip-path="url(#ad)"><path fill="none" stroke="#000" stroke-linecap="round" stroke-linejoin="round" stroke-miterlimit="10" stroke-width=".5" d="M465.7461 317.79688l2.41406.4453"/></g><path fill="#00f" fill-rule="evenodd" d="M388.23828 472.08594h8.61719V461.9414h-8.61719v10.14453"/><path fill="azure" fill-rule="evenodd" d="M390.07031 463.77344h.83594v2.82422h3.28516v-2.82422h.83203v6.48047h-.83203v-2.91797h-3.28516v2.91797h-.83594v-6.48047"/><path fill="#00f" fill-rule="evenodd" d="M383.80078 436.57813h8.61719v-10.14454h-8.61719v10.14454"/><path fill="azure" fill-rule="evenodd" d="M385.63281 428.26563h.83203v2.82421h3.28907v-2.82421h.83203v6.48046h-.83203v-2.91406h-3.28907v2.91406h-.83203v-6.48046"/><path fill="#00f" fill-rule="evenodd" d="M228.45703 418.82813h8.6211v-10.14844h-8.6211v10.14844"/><path fill="azure" fill-rule="evenodd" d="M230.28906 410.51172h.83594v2.82422h3.28516v-2.82422h.83203v6.48047h-.83203v-2.91406H231.125v2.91406h-.83594v-6.48047"/><path fill="#ff3030" fill-rule="evenodd" d="M291.28906 401.07422h7.6914v-10.14844h-7.6914v10.14844"/><path fill="azure" fill-rule="evenodd" d="M293.1211 392.76172h.83593V398.5h3.1914v.73828h-4.02734v-6.47656"/><path fill="#00f" fill-rule="evenodd" d="M366.04688 396.63281h8.61718v-10.14453h-8.61719v10.14453"/><path fill="azure" fill-rule="evenodd" d="M367.8789 388.32031h.83594v2.82422H372v-2.82422h.83203v6.48047H372v-2.91406h-3.28516v2.91406h-.83593v-6.48047"/><path fill="#ff3030" fill-rule="evenodd" d="M202.52344 365.5664h7.6914v-10.14452h-7.6914v10.14453"/><path fill="azure" fill-rule="evenodd" d="M204.35547 357.2539h.83203v5.73829h3.19531v.74219h-4.02734v-6.48047"/><path fill="#ffffe0" fill-rule="evenodd" d="M315.11328 350.01172h22.17969v-10.1914h-22.17969v10.1914"/><path fill-rule="evenodd" d="M318.61328 341.65234h.50781v6.29688h-.78515v-4.49219h-1.39063v-.55469l.5625-.0625.25-.05468.23047-.08985.20313-.14062.17578-.21094.14062-.29688.10547-.39453m4.8125 0l.23047.01954.21875.05468.20703.08985.19922.12109.1836.14844.17187.17578.30078.42187.24219.4922.17969.54687.11328.57812.03515.59375-.03515.59375-.11329.58203-.17968.55469-.24219.5-.30078.42969-.17188.17969-.18359.15234-.19922.125-.20703.08984-.21875.0586-.23047.01953-.22656-.01953-.21875-.0586-.21094-.08984-.19531-.125-.1836-.15235-.17187-.17968-.30078-.42969-.2461-.5-.17968-.55469-.10938-.58203-.03906-.59375h.83203l.03125.5625.08203.5039.125.44532.16406.375.1875.30078.21094.21875.22266.13672.22656.04688.22656-.04688.22266-.13672.21094-.21875.1914-.30078.16407-.375.125-.44531.08203-.5039.02734-.5625-.02734-.5625-.08203-.5-.125-.4375-.16407-.36329-.1914-.29297-.21094-.21484-.22266-.13281-.22656-.04297-.22656.04296-.22266.13282-.21094.21484-.1875.29297-.16406.36328-.125.4375-.08203.5-.03125.5625h-.83203l.03906-.59375.10938-.57812.17969-.54688.24609-.49219.30078-.42187.17188-.17578.18359-.14844.19531-.1211.21094-.08984.21875-.05469.22656-.01953m5.09375 0h.50781v6.29688h-.78515v-4.49219h-1.39063v-.55469l.5586-.0625.2539-.05468.23047-.08985.20313-.14062.17187-.21094.14453-.29688.10547-.39453m2.82031 2.17579h.78907l.01953-.31641.0586-.28516.10155-.2539.13672-.21485.1836-.17187.22265-.1289.26563-.08204.3086-.02734.23827.01953.22266.0625.20312.10156.1797.14063.14843.17187.11328.20703.07031.23438.02735.26562-.02344.26953-.0664.22266-.10938.1914-.15625.17188-.19922.16406-.2461.16406-.63671.39063-.53516.3125-.4375.3164-.34766.32423-.26171.33593-.19141.35156-.125.3711-.07031.39062-.01954.42188h4.21094v-.74219h-3.33203l.08203-.28515.11328-.23438.14844-.20313.1875-.17968.23047-.17188.28125-.17578.71484-.41406.41797-.20703.34375-.23047.28125-.25.21875-.26953.16406-.27735.11329-.28515.0625-.28516.01953-.28125-.04297-.38281-.11719-.34766-.1914-.3086-.25-.26171-.30079-.21094-.34765-.16015-.3789-.09766-.40626-.03516-.4375.03516-.39844.09766-.35156.16406-.30469.23828-.25.30078-.1875.375-.11328.44531-.04297.51954"/><path fill="#ffffe0" fill-rule="evenodd" d="M147.00781 432.3711h22.17969v-10.19141h-22.17969v10.1914"/><path fill-rule="evenodd" d="M150.50781 424.01172h.50781v6.29687h-.78906v-4.48828h-1.38672v-.5586l.5586-.0625.2539-.05468.23047-.08984.20313-.14063.17187-.21094.14063-.29296.10937-.39844m4.8125 0l.23047.01953.21875.0586.20703.08984.19531.11719.1836.15234.17187.17578.30078.41797.2461.49219.17969.54687.10937.58203.03906.58985-.03906.59375-.10937.58203-.1797.55469-.24608.5039-.30079.42578-.17187.17969-.1836.15234-.1953.125-.20704.09375-.21875.0547-.23047.01952-.23047-.01953-.21875-.05469-.20703-.09375-.19531-.125-.1875-.15234-.16797-.17969-.30469-.42578-.24218-.5039-.1797-.5547-.11327-.58202-.03516-.59375h.83203l.02735.5625.08203.5078.1289.44142.16016.375.1914.30078.21094.21875.22266.13671.22656.04688.22656-.04688.22266-.13671.21094-.21875.1914-.30079.16016-.375.125-.4414.08203-.50781.03125-.5625-.03125-.5625-.08203-.5-.125-.4336-.16016-.36719-.1914-.29296-.21094-.21485-.22266-.1289-.22656-.04688-.22656.04688-.22266.1289-.21093.21485-.19141.29296-.16016.3672-.1289.43359-.08203.5-.02735.5625h-.83203l.03516-.58985.11328-.58203.17969-.54687.24218-.4922.3047-.41796.16796-.17578.1875-.15235.19531-.11718.20703-.08985.21875-.05859.23047-.01953m5.08985 0h.51172v6.29687h-.78907v-4.48828h-1.38672v-.5586l.5586-.0625.2539-.05468.22657-.08984.20312-.14063.17578-.21094.14063-.29296.10547-.39844m2.82422 2.17578h.78515l.02344-.3164.0586-.28516.09765-.2539.14062-.21485.1797-.17188.22265-.1289.26562-.08204.3086-.02734.23828.02344.22265.0625.20703.10156.1797.13672.14843.17578.11328.20313.07031.23828.02344.26172-.01953.26953-.0664.22656-.10938.1914-.15625.17188-.19922.16016-.25.16797-.63281.38671-.53906.3125-.4375.31641-.34375.32422-.26563.33594-.1914.35156-.125.3711-.06641.39452-.01953.41797h4.21093v-.74218h-3.33203l.08203-.28125.11328-.23829.14844-.20312.1875-.17969.23047-.17187.27734-.17578.71875-.41407.41407-.20703.34765-.23047.28125-.25.21875-.26953.16407-.27734.10937-.28125.0625-.28516.02344-.28125-.04297-.38281-.1211-.35156-.1875-.30469-.25-.26563-.30468-.21093-.34375-.16016-.38281-.09765-.40625-.03516-.4336.03515-.39844.09766-.35546.16797-.3047.23438-.24608.30468-.1875.3711-.1172.44921-.03905.51563"/></g></defs><use xlink:href="#ae"/></svg>