<svg xmlns="http://www.w3.org/2000/svg" role="img" xmlns:xlink="http://www.w3.org/1999/xlink" viewBox="158.29 315.29 241.92 162.17"><defs><clipPath id="a"><path d="M144 311.67188h1v168.65625h-1zm0 0"/></clipPath><clipPath id="b"><path d="M144 311.67188h324v168.65625H144zm0 0"/></clipPath><clipPath id="c"><path d="M467 311.67188h1v168.65625h-1zm0 0"/></clipPath><clipPath id="d"><path d="M144 479h4v1.32813h-4zm0 0"/></clipPath><clipPath id="e"><path d="M147 479h3v1.32813h-3zm0 0"/></clipPath><clipPath id="f"><path d="M146 479h3v1.32813h-3zm0 0"/></clipPath><clipPath id="g"><path d="M153 479h8v1.32813h-8zm0 0"/></clipPath><clipPath id="h"><path d="M160 479h3v1.32813h-3zm0 0"/></clipPath><clipPath id="i"><path d="M159 479h3v1.32813h-3zm0 0"/></clipPath><clipPath id="j"><path d="M166 479h9v1.32813h-9zm0 0"/></clipPath><clipPath id="k"><path d="M173 479h3v1.32813h-3zm0 0"/></clipPath><clipPath id="l"><path d="M172 479h3v1.32813h-3zm0 0"/></clipPath><clipPath id="m"><path d="M180 479h8v1.32813h-8zm0 0"/></clipPath><clipPath id="n"><path d="M187 479h3v1.32813h-3zm0 0"/></clipPath><clipPath id="o"><path d="M186 479h2v1.32813h-2zm0 0"/></clipPath><clipPath id="p"><path d="M193 478h8v2.32813h-8zm0 0"/></clipPath><clipPath id="q"><path d="M200 478h3v2.32813h-3zm0 0"/></clipPath><clipPath id="r"><path d="M199 479h2v1.32813h-2zm0 0"/></clipPath><clipPath id="s"><path d="M206 478h9v2.32813h-9zm0 0"/></clipPath><clipPath id="t"><path d="M213 478h3v2.32813h-3zm0 0"/></clipPath><clipPath id="u"><path d="M212 479h3v1.32813h-3zm0 0"/></clipPath><clipPath id="v"><path d="M220 478h8v2.32813h-8zm0 0"/></clipPath><clipPath id="w"><path d="M226 478h4v2.32813h-4zm0 0"/></clipPath><clipPath id="x"><path d="M225 479h3v1.32813h-3zm0 0"/></clipPath><clipPath id="y"><path d="M233 478h8v2.32813h-8zm0 0"/></clipPath><clipPath id="z"><path d="M240 478h3v2.32813h-3zm0 0"/></clipPath><clipPath id="A"><path d="M239 479h2v1.32813h-2zm0 0"/></clipPath><clipPath id="B"><path d="M247 478h7v2.32813h-7zm0 0"/></clipPath><clipPath id="C"><path d="M253 478h3v2.32813h-3zm0 0"/></clipPath><clipPath id="D"><path d="M260 478h8v2.32813h-8zm0 0"/></clipPath><clipPath id="E"><path d="M266 478h4v2.32813h-4zm0 0"/></clipPath><clipPath id="F"><path d="M273 478h8v2.32813h-8zm0 0"/></clipPath><clipPath id="G"><path d="M279 479h2v1.32813h-2zm0 0"/></clipPath><clipPath id="H"><path d="M287 477h6v3.32813h-6zm0 0"/></clipPath><clipPath id="I"><path d="M301 477h6v3.32813h-6zm0 0"/></clipPath><clipPath id="J"><path d="M314 477h6v3.32813h-6zm0 0"/></clipPath><clipPath id="K"><path d="M327 477h7v3.32813h-7zm0 0"/></clipPath><clipPath id="L"><path d="M340 477h7v3.32813h-7zm0 0"/></clipPath><clipPath id="M"><path d="M354 477h6v3.32813h-6zm0 0"/></clipPath><clipPath id="N"><path d="M366 479h8v1.32813h-8zm0 0"/></clipPath><clipPath id="O"><path d="M372 479h2v1.32813h-2zm0 0"/></clipPath><clipPath id="P"><path d="M380 478h8v2.32813h-8zm0 0"/></clipPath><clipPath id="Q"><path d="M395 479h4v1.32813h-4zm0 0"/></clipPath><clipPath id="R"><path d="M407 477h6v3.32813h-6zm0 0"/></clipPath><clipPath id="S"><path d="M419 480h9v.32813h-9zm0 0"/></clipPath><clipPath id="T"><path d="M426 480h3v.32813h-3zm0 0"/></clipPath><clipPath id="U"><path d="M434 477h6v3.32813h-6zm0 0"/></clipPath><clipPath id="V"><path d="M447 478h7v2.32813h-7zm0 0"/></clipPath><clipPath id="W"><path d="M460 478h8v2.32813h-8zm0 0"/></clipPath><clipPath id="X"><path d="M466 478h2v2.32813h-2zm0 0"/></clipPath><clipPath id="Y"><path d="M144 466h4v2h-4zm0 0"/></clipPath><clipPath id="Z"><path d="M144 453h4v2h-4zm0 0"/></clipPath><clipPath id="aa"><path d="M466 451h2v3h-2zm0 0"/></clipPath><clipPath id="ab"><path d="M144 439h4v3h-4zm0 0"/></clipPath><clipPath id="ac"><path d="M466 438h2v4h-2zm0 0"/></clipPath><clipPath id="ad"><path d="M144 426h4v3h-4zm0 0"/></clipPath><clipPath id="ae"><path d="M144 412h4v3h-4zm0 0"/></clipPath><clipPath id="af"><path d="M465 410h3v2h-3zm0 0"/></clipPath><clipPath id="ag"><path d="M144 399h4v3h-4zm0 0"/></clipPath><clipPath id="ah"><path d="M466 397h2v3h-2zm0 0"/></clipPath><clipPath id="ai"><path d="M144 384h3v7h-3zm0 0"/></clipPath><clipPath id="aj"><path d="M466 385h2v4h-2zm0 0"/></clipPath><clipPath id="ak"><path d="M144 370h3v7h-3zm0 0"/></clipPath><clipPath id="al"><path d="M144 356h2v9h-2zm0 0"/></clipPath><clipPath id="am"><path d="M144 363h2v3h-2zm0 0"/></clipPath><clipPath id="an"><path d="M144 362h1v3h-1zm0 0"/></clipPath><clipPath id="ao"><path d="M144 343h1v8h-1zm0 0"/></clipPath><clipPath id="ap"><path d="M144 350h1v3h-1zm0 0"/></clipPath><clipPath id="aq"><path d="M144 349h1v3h-1zm0 0"/></clipPath><clipPath id="ar"><path d="M466 346h2v3h-2zm0 0"/></clipPath><clipPath id="as"><path d="M144 330h1v8h-1zm0 0"/></clipPath><clipPath id="at"><path d="M144 337h1v3h-1zm0 0"/></clipPath><clipPath id="au"><path d="M144 336h1v2h-1zm0 0"/></clipPath><clipPath id="av"><path d="M466 332h2v3h-2zm0 0"/></clipPath><clipPath id="aw"><path d="M144 317h2v8h-2zm0 0"/></clipPath><clipPath id="ax"><path d="M144 323h2v3h-2zm0 0"/></clipPath><clipPath id="ay"><path d="M144 322h2v3h-2zm0 0"/></clipPath><clipPath id="az"><path d="M466 318h2v3h-2zm0 0"/></clipPath><clipPath id="aA"><path d="M465 318h3v3h-3zm0 0"/></clipPath><g id="aB" clip-path="url(#clip1)"><path fill="#fff" fill-opacity="0" fill-rule="evenodd" d="M.05469 0h1000v1000h-1000zm0 0"/><path fill="#d3d3d3" fill-opacity="0" fill-rule="evenodd" d="M162.20703 355.86719l-.23437.29297.05859.23437.11719.17188.17578.23437.29297.34766.11328.0586.11719-.17188.05859-.23438.17578-.17578.46484-.17578h.69922l.23438.29297.28906.8164.0586.17579.17578.23046.35156.23438.69922.69922.17187.17578.23438.34765.23437.41016.28906.58203.41016.46485.23047.23437.23438.17578.11718.23047.17578.29297.17188 1.16406v.23438l.0586.28906.05859.11719.11718.11719.34766.41015.11719.17188.17578.17578.17578.23437.11719.17188.17187.35156.0586.23438.23437.40625.23438-.0586-.17578.17578-.0586.92969h-.58203l-.23438-.11328-.34765.11328-.11719.11719-.0586.29297-.05859.17578-.11718.17187-.46485.29297-.0586.23438-.05858.11328v.64453l.05859.17187v.41016l.0586.0586v.40624l.05859.40625.11718.17579.0586.05859.23047.64062-.0586.29297v.69922l-.0586.58203v.23438l-.05858.23047-.0547.35156v1.92187l.0547.1172h.42578l-.3672.11718-.02343.35156.89063 1.16797 1.74218.53906 1.33985.35938v.53906l.08984.8086.53516.71484 1.51953.26953.89062-.08594.08985 1.16406.53515.1797 1.16016-.1797 2.05469-.98437 1.16015-.36328 1.87891-.17578 1.69531-.1797-.17969.71876-1.51562.08594-1.25.08984-.80469.26953-1.07422.8086.26953.71875.53516.89843-.17969.625-.26562.8086.26562 1.07812.625.89844.8047.17969 1.25-.1797-.26563.72267.09765.5039.05469.29297v.17188l.0586.29296v.40625l.17577.1172.35157.11718h.40625l.29297-.17578.11328-.11719.0586-.11719.11718-.23047.0586-.17578.35155-.46484.23047-.17578.17578-.0586.17579.0586.05859.17578.11719.98828.05469.46875.05859.17188.11719.23437.17578.0586.8164.05859h.28907l.11718.23437.0586.40625.0586.35156v1.10547l.11718.29297.11719.34766.28906.69922.17578.35156.58203.7539.35156.17579.17188.0586.46875.23437.64062.46484.34766.23438.29297.17578.29297.05468.23047.0625.8164.34766.29297.17578.11328.17188.35156.35156.1172.17578.52343.64063v.28906l.0586.35156v.34766l.05859.35156.0586.28906.11718.0586.17187.05859h.17578l.58204.23437.17578.1172.17578.28905.17578.23438.11328.23437.29297.23047.11719.11719v.41016l.0586.05468.28905.23438.23438.11719.0586.11718.11718.17188.0586.11719.23046.23437.0586.17578.23437.0586.11719.05859-.11719.11328-.0586.11719v.11719l-.11718.29296-.11719.28907v.58203l.17578.11719.1172.05859.05858.11719.1172.11719.11327.05859.17578.34765.0586.35157.0586.40625v.17578l-.0586.17578-.11719.69922v.17187l.11719.17579.29297.29296h.40625l.17578.1172.11719.17187.11718.29296v.23438H197.75l-.23047-.23438h-.23437l-.17578.0586-.0586.69922.0586.34765.11718.17579.17578.41015.1172.23047.28905.46875.17578.05469h.52344l.23438.0586.75781.64062.0586.29296v.23438l.05859.0586.23047.34765v.35156l-.1172.17188v.29297l.29298.28906.29297.17578.17187.0586.29297.17577.29297.1172.58203.40624.28906.23438.29297.17578.21875.16015.01563.01172.23047.17579.64062.52343.17578.23438.11719.17578.17578.17578.11328.17188v.64062l.11719.17578.46875.11719.58203.11719.23438.05859.23046.11328.29297.11719.11328.0586.58594.35156.28906.17187.17578.0625.17579.05469.17578.0586.69922.35155.28906.17579.23437.05468.28907.17578.23437.1172.64063.40624.29297.11719.17187.0586.23438.05859.41015.05859.23047.0586.23438.11718.05859.17188-.41016.17578.46875.0586.0586.29296.11328.23438.17578.05468.23437.0586.17578.05859.40625.11719.64063.23437.11719.17188.0586.23437v.17578l-.0586.1172-.0586.40624.23438.23438.11719.05859.34765.11719.64063.23047.17578.11718.28906.1172.17578.17577.23438.46485.58203 1.10546.17578.17579.34766.17578.17578.11719.35156.11718 1.04688.52344.23437.0586.46484.11327.29297.0586.46485.17578.7578.58203.23438.23438.34766.46484.17578.17578.28906.23438.81641.69921.29297.17579.28906.28906.29297.17578.29297.28906.69531.64063.17578.17578.29297.23437.28906.23438.46875.28906.64063.58203.34766.23438.23437.29297.34766.34765.35156.46485.9336.99218.34765.40625.11719.17579.23437.05859.11328.11719.64453.17578.23047.11328.23438.0586.29297.17577.23047.1172.93359.69921.40625.40625.23437.17578.40625.17578.23438.11719.8164.34766.34766.23437.23438.11719.29297.28906.23046.11719.75782.35156.35156.17188.23047.05859.29297.11719.23437.0586.8711.17577h.8164l.46875.23047.17188.0586.875.69921.46484.1172.29297.05858.17578.0586.23047.0586.46875.05859.34766.05859.35156.0586.40625.05859h.29297l.17187.0586v.23046l.17578.17578h.29297l.34766.0586.35156.05859.69922.11719h.64062l.46485-.23438.29297-.17578.17187-.11719.41016-.17187.28906-.17578.9336-.46485.46874-.29297.52344-.29296.46484-.17188.46485-.17578 1.05078-.46485.28906-.11718.41016-.11719.28906-.11719.52734-.17578 1.51563-.69922.58203-.34765.28906-.0586.29297-.0586.34766-.11718.875-.23047.35156-.11719h.11328l.23438-.05859.875-.23437.23437-.0586h.8125l.35156-.0586.81641-.11718.17188-.0586.35156-.05468.29297-.0586.23047-.05859.8164-.17578.17578-.0586h.34766l.23438-.05859.46484-.11718.75781-.17188.23438-.0586h.34765l.41016-.11718.28906-.0586 1.28516-.05859h.28906l.41016-.0586.23046-.05858h.17579l.875-.1172h.40625l.41015-.11718h.34766l.35156-.11328.8711-.0586h1.75l1.04687.28907.41016.11719.28906.11718.35156.11719.28906.11719 1.05079.17187.28906.0586h.29297l.29296.05859.17188.0586.41016.05859.17187.0586.11719.05858h.11719l.11718.0586.35157.0586h.11328l.41015.0664 1.92188.39453 1.92578.39453 1.51953.44922 1.69531.71875 2.14454.80469 1.60546-.71875 1.4297-.80469 1.16015-1.07813 1.25-.44921 3.03515-.71875 1.875-.35938 2.14454-1.34765 2.23437-1.25391 2.5-1.25781 1.69531-.44922 1.78516-.17969 1.16015-.26953.625.53906 1.33985-.26953.71484-.98828.98438-1.34375.44531-.17969.80469-.35937 1.875-.53907 1.78515-.44921 1.25-.26954 1.16016-.08984 1.69922-.08984 1.96094-.26954 1.25-.08984h.53906l.625-.08984h.89062l2.14454-.17969 2.41015-.17969 2.58985-.08984 1.6953.17969 1.60938.08984 1.42969.35938 1.16016.71875 1.875.98828 1.16015 1.52734.26563.71484.6289.08985.35547.89844.53516.53906.53515 1.52734 1.07422.35938h.53516l-.80469.53515.08985 1.70703.71484 2.69532.89063.80468.89453.98829.71484 1.2578 1.78516.53907 1.51953-.17969.35547 1.34375 1.60937-.80469.98047-.53906.26953.26953.3164-.21484.21876-.14453.80078.44922.44922-.35938h.35547l.53515-.26953.53906-.71875.53516-.26953.625-.98828 1.16016.44922.83984.3711 1.39453.61718 1.69531-.17969h1.60547l1.78516.08985.17969-1.70704.53515-1.34375.8047.26954.49218.84765.40234.40625-.08984.53906v.35938l.71484.44922.71094-.26953h1.42969l.35937.98828.44531 1.25781.71485 1.34375 1.25.6289 1.69531.62891.71485-.17969.17968-.53906.98047-.08984.44922.35937.08594 1.25782-.26563.6289-.53515.17969v.53906l.71484.98438.26563.53906.98437.98828.80078 1.07813-.26562.35937-.08985.89844-.625 2.33203-.35547 2.0664-.08984 1.79298-.17969.71875-.08984.53906v1.4375l-.98047 1.88281-.35938 1.70703-.53515.89844-.80469 1.16797-.26562.53906 2.05468 1.2539.08594.35938-.35547.53906-.08984-.17968v.80859l.08984 1.4375-.44531.71484-1.07422.09375-.26562.71485.53515.89844.80469.71875 1.16016.80859 1.33984.26953.44531.35938-.35547.44921-1.78906-.08984-1.25-.44922-.71484-.71875-.625-.08984-.17578 3.58984-.1875 1.3086h89.35937V311.70313h-55.26953v49.08203l.76172.125 3.28906.54296 2.02344 2.83594v2.7539l2.35156.33204 2.34766.33203h4.05078l-1.3789 4.16016-2.02344.70703-2.02344.70312-.54297.34375-2.59375 1.6172-.1875.11718-2.02344-2.07813-.73047-2.74218-2.67187-2.07813-1.375-3.5-.0664-.08203-1.95704-2.67188 2.75-1.41796v-49.08204H294.47656v91.41407l.11719.03125.13281.01172.07422.07421.10547.04688.08984.0586.08594.05859.08985.0586.29687.29687.0586.08984.03124.11719.02735.11719.01562.13671-.03125.1172-.0586.08983-.05858.08594-.04297.10547-.04688.10156-.02734.1211v.14453l.17578.26953.14844.14844.07421.08594.07422.07421.04297.10547.0625.08985.0586.08593.04296.10547.0586.08985.04687.10156.04297.10547.0586.08594.11718.17968.07422.07422.0625.08594.0586.08984.04296.10547.0586.08985.0586.08593.0625.08985.05859.08984.04296.10156.1172.17969.07421.07422.0586.08594.07421.07421.08985.0586.10547.04687h.14843l.13282-.01562.1328.01562.10157-.04687.07422-.07422.04688-.10156-.01563-.13281v-.14844l-.04688-.10547-.02734-.11719-.04687-.10156-.02735-.1211-.04297-.10156-.0625-.08984-.04296-.10156-.04297-.10547-.03125-.11719-.01563-.13281-.01172-.13672.08594-.0586.0586-.08593.12109-.03125.04297.10547.01562.1328v.1172l.0586.10156.05859.08984.08984.0586.14844.14843.0586.08985.04296.10547-.01172.10156.08594.0586.10547.04687.08594.0586.08984.05858.07422.07422-.11719.02735-.10547.04687-.08593.0586-.07422.07421-.0586.08985-.0625.08594-.02734.12109-.04688.10156-.04296.10547-.03125.11719-.01172.13281-.01563.13281v.14844l.02735.11719.04687.10547.04297.10156.0586.08984.07421.07422.08985.0586.07421.07421.08985.0586.0586.08984.04296.10547.04688.10156.11718.03125.13282.01563h.14843l.1172-.03125.10546.04297.04297.10547.04687.10156.02735.1211.03125.11718.02734.11719.03125.1211.02735.11718.10546.04297.10157.04687.1328-.01562.14845.14844.0625.08593.07421.07422.07032.07422.08984.0625.10547.04297.10156.04297.11719.03125.13672.01562.11719-.03125.07421-.07422.02735-.11718-.01172-.13282-.03125-.12109-.02734-.11719.04296-.10547h.1172l.08984.0625.11718.02735h.14844l.13281.01562h.14844l.13281.01563.13282-.01563h.14843l.13282-.01562.1328-.01172.13673.01172.11719-.02735.1328-.01562.19141-.0586-.05859.17579-.01563.1328-.02734.1211-.01562.13281-.0586.08594-.13281.01563-.10547.04687-.10547.04297-.11719.03125-.11718.02735-.26563.03125h-.14844l-.1328.01562-.07423.07422.0586.08594.14844.14843.11718.1797.07422.0703.08985.0625.08984.0586.08594.0586.08984.05858.10156.04297.10547.0625.10547.04297.08594.0586.10547.04687.10156.04297.17969.11719.05859.08984-.04297.10156-.04687.10547.01562.13281.22266.22266.0586.08985.04296.10156.03125.1211.04297.10155.01562.13282.03125.11718.01172.13672.03125.11719.14844.14844.10156.04297.10547.04296.11719.03125.13281.01563.13672.01563h.11719l.11719-.03125.08984-.0586.04297-.10547.04687-.10156.04297-.10547.03125-.11719.01172-.1328v-.14845l-.01172-.1328-.01562-.13282-.03125-.11719-.04297-.10547-.04688-.10547-.04297-.10156-.04296-.10547-.01563-.13281.01563-.13281.02734-.11719.03125-.11719.02734-.1211.04688-.10155.08984-.0586.08594-.0625.07422-.07422.08984-.05859.22266-.22266.0586-.08593.07421-.07422.11719-.17969.0586-.08594v-.14844l-.07423-.07421-.10156-.04688-.10547-.04297-.10156-.04297-.0586-.08984-.04687-.10547-.02734-.11719.08984-.05859.11719-.03125.10156-.04297.17969-.11719.14844-.14843.01171-.13282-.01171-.10546-.08985-.0586-.13281.01563h-.14844l-.13281.01562-.13281-.01562-.1211-.03125-.08594-.0586-.07421-.07422-.0586-.08984-.0625-.08594-.11719-.17969-.05859-.08593.03125-.1211.08594-.05859.1211-.03125.05859-.08594v-.1211l-.03125-.11718-.0586-.08984-.0586-.08594-.04687-.10547-.02734-.11719-.01563-.1328.0586-.08985.07422-.07422.08984-.0586.11719-.17968.07422-.07422.0586-.08594.14843-.14844.1211-.03125.1328-.01562.13282.01562.07422.07422.04296.10547.01563.13281-.03125.1172-.11719.03124-.13281.01172-.14844.14844-.04297.10547-.04687.10156-.02735.1211-.03125.11718v.14844l.03125.11719.04297.10546.0586.08985.07422.07031.07421.07422.1172.03125.12109.02734.11718-.02734.13282-.01563h.11718l.08985.0586.07422.07422.04687.10546.0586.08594.10156.04688.13281.01562.10547.04297.08594.0586-.01172.10546-.07422.07422-.17969.11719-.0586.08984-.08984.0586-.0703.07422-.07423.07421-.0625.08985-.02734.11719-.01563.1328.01563.13282-.01563.13281v.14844l.01563.13281.02734.1172.03125.12108.07422.07422.08985.0586.08593.0586.08985.05858.11718.03125v.08594l-.10156.04688-.08984.0586-.26563.03124-.11719.02735h-.14843l-.10547.04296-.10156.04688-.0586.08984-.0625.23438-.01172.13281-.03125.1211-.01562.1328v.29298l-.01172.1328.01172.13673.01562.1328.13282.01563.1328.01172.1211.03125.08594.0586.07422.07421.04687.10547.04297.10157.01563.1328v.44532l-.01563.13281v.44532l.03125.26562.02735.11719.01562.13281.03125.11719.08594.21094.03125.26562v.14844l-.03125.11719-.02735.11718-.03125.1211-.02734.11719-.03125.11718-.03125.1211-.01172.1328-.01562.13282.08984.0586.11719-.03125.10156.01562.04688.10547-.03125.26562v.44141l-.04297.10547-.04688.10547-.04297.10156-.04296.10547-.0586.08594-.03125.12109-.04297.11719-.03125.11719-.01562.1328.01562.13282.0586.08984.10546.04688.08594.0586.0586.08593-.01172.13672-.03125.11719-.04297.10156v.44531l-.01563.13281v.14844l-.03125.11719-.04296.10547-.02735.11719-.04687.10546-.04297.10157-.03125.12109-.02735.11719-.03125.13281-.03125.11719-.02734.11719-.04297.10546-.03125.1172-.03125.12108-.01172.13282-.01562.13281v.29688l.02734.11718v.14844l.04688.39844.02734.11719.0586.08984.12109.03125h.14844l.1328-.01563.0586.08985v.11719l-.0586.08984-.08984.0586-.10156.04296-.10547.04688-.08984.05859-.08594.0586-.13672.01562-.11719-.03125-.1328-.01563-.10157.04688-.0625.08594-.01172.13671-.01562.13282-.03125.11719-.02735.11718-.01562.13281-.03125.1211v.29687l.01562.13282.03125.11718v.14844l.01172.13281v.14844l-.02734.11719-.04688.10156-.02734.1211-.03125.11718-.0586.08985-.07421.07421-.10157.04297-.10546.04688-.1172.02734-.12109.03125-.10156-.04687.0586-.08594.10546-.04688.02735-.11718.03125-.11719.02734-.1211.03125-.11718v-.14844l.01563-.13281-.03125-.11719-.04297-.10547-.10547.01563-.07422.07422-.10156.04296-.08985.0625-.07421.07422-.04297.10157-.01563.1328-.03125.1172-.02734.12109-.03125.11719-.02735.11719-.03125.12109-.02734.11719-.03125.11718-.04297.10547-.08984.0586h-.08985l-.11718-.03125-.03125-.08594.01562-.13672-.03125-.11719v-.14844l-.01172-.1328v-.14844l-.0625-.23438-.02734-.1211-.04297-.10156-.04688-.10546-.05859-.08594-.0586-.08985-.04296-.10546-.0625-.08594-.14844-.14844-.07031-.07422-.10547-.04687-.10547-.04297-.10156-.04297-.29688-.29688-.08984-.07421-.08594-.0586-.10547-.04297-.08984-.0625-.08594-.0586-.10547-.04296-.08984-.0586-.08594-.0625-.07422-.0703-.10546-.04688-.08594-.0586-.10547-.04296-.08985-.0625-.10156-.04297-.10547-.04297-.08593-.0586-.10547-.04687-.10547-.04297-.10156-.04687-.08985-.0586-.10156-.04297-.10547-.04296-.08984-.0625-.11719-.02735-.13281-.01562-.13281.01562h-.14844l-.13281.01563-.1172-.03125-.08984-.0586-.07421-.07422-.08985-.05859-.10156-.04688h-.14844l-.1211-.02734-.10156-.04297-.07421-.07422-.1172-.17968-.08983-.0586-.10157-.04297-.08984-.0625-.10547-.04296-.08984-.0586-.08594-.0586-.10547-.04687-.0586-.08594-.05859-.08984-.04297-.10547-.04687-.10156-.07422-.07422-.08594-.0586-.07422-.07421-.08984-.0586-.22266-.22265-.04296-.10547-.03125-.26563.10546-.04296h.14454l.10546.04296.07422.07422.08985.0586.08593.0586.10547.04687.08985.05859.14843.14844.07032.07422.14843.14843.0625.08594.07422.07422.08594.0586.07422.07421.08984.0625.08985.0586.08593.05859.26954.17578.10156.04688.10547.04296.10156.04297.04687-.07421.0586-.08594.07422-.07422.0703-.07422.10548.04297.07422.07422.05859.08984.04297.10156.04687.10547.04297.10547.1211.02735.11718-.02735.07422-.08984.04297-.10547.0586-.08985.07421-.07421.10547-.04297.11719-.02735.13281.01172.08985.0586.14843.14843.0586.08985.04297.10547.04687.10156.04297.10547.04297.10156.10547.04688.10547.04296.1328.01563.08595-.0586.05859-.08984.07422-.07422.10547-.04297.11719.02735.10546.04687.10157.04297.10546.04297.10157.04688.17969.11718v.11719l-.01563.13281.01563.13281.01562.13672.0586.08594.10156.04688.12109.02734.11719.03125h.14844l.11718-.03125.0586-.08984.17968-.1172.0586-.08983.07422-.07422.05859-.08594.11719-.17969.17969-.11719.11718.03125.08985.0586.04296.07422-.01562.1328v.1172l.08984.05859h.14844l.13281-.01563.13282-.01171.26562-.03125.10547-.04297.11719-.03125.1211-.02735.07421-.07421.07031-.07422.0625-.08985-.01562-.10547-.04688-.10156-.10156-.04297-.10547-.01562-.11719.02734-.26562.03125h-.14844l-.07422-.07422-.08984-.0586-.11719-.03124-.11719-.02735-.1328-.01562h-.14845l-.1328.01563h-.29688l-.10547-.04688-.14844-.14844-.04297-.10156-.0586-.08984.22266-.22266.08594-.0586.10547-.04296.11719-.03125.13281-.01563.13281.01563.13672.01562.10156.04297.13282-.01172.08984-.0625.10156-.04297.0625-.08984-.04687-.10156-.08985-.0586-.11718-.03125-.10157-.04296-.05859-.08985-.0625-.08984v-.11719l.01563-.13281.10546-.04688.07422-.07031v-.1211l-.08984-.05859-.03125-.11719.08984-.05859.07422-.07422.04297-.10547.0586-.08984.04687-.10156.01562-.13281v-.14844l-.04687-.10547-.04297-.10156-.08984-.0586-.13282-.01562-.10156-.04297-.13672-.01563-.11719-.03125h-.4453l-.13282-.01562-.13281-.01172-.13281-.01563-.1172-.03125h-.14843l-.13281-.01562-.13281-.01172-.26563-.03125-.1211-.04297-.08593-.0586-.07422-.07421v-.14844l.01172-.13281.10547-.04688.10156-.04296.13281-.01563h.15235l.1328-.01562h.29298l.1211.03125.10155.04296.08985.0586.23437.0625.1211-.04688.08984-.05859.10156-.04297.13281-.01562.10547.04296.10157.04688.1328.01172.1211-.02735h.14453l.1211-.03125.11719-.02734.10546-.04687.07422-.07422.08594-.0586.14844-.14843.0586-.08594.04687-.10547.02734-.11719.01563-.10547-.10157-.04296-.08984-.0586-.11719-.03125-.10547-.04297-.08984-.0625-.07422-.08594-.07422-.07421-.10156-.04297-.10547-.04688-.10156-.04297-.0586-.08984-.04687-.10156-.08594-.21094-.0625-.08594-.0586-.08984-.07421-.07422-.08594-.0586h-.26953l-.11719.03126-.08984.05859-.10156.04297-.13282.01562-.10546-.01562-.02735-.11719-.0625-.08984-.11719-.03125-.10156-.04297-.14844-.14844-.03125-.11719-.01562-.10546.07422-.07422.17969-.1172.11718-.02733.11719-.03125.13672.01562.10156.04297.10547.04297.10156.04687.10547.04297.11719.03125.13281.01563.11719.02734.13281.01563.10547-.01563.08984-.0586-.07421-.07421-.10547-.04297-.07422-.07422-.07422-.08984-.14844-.14844-.08594-.0586-.08984-.05859-.07422-.07422-.08984-.0586-.10156-.04687-.1211-.02734-.10156-.04688-.10547-.04296-.11719-.03125-.10156-.04297-.1211-.03125h-.14843l-.11719.03125-.10547.04297-.08594.0625-.17968.11718-.08594.0586-.08984.0586-.10547.04687-.08594.05859-.10547.04297-.10156.04297-.10547.04687-.07422.07422-.0586.08985-.05859.08593-.04687.10547-.0586.08594-.07421.07422-.13282-.01172-.11718-.03125h-.1172l-.07421.07422-.08984.0586-.07422.07421-.08985.0586-.08593.05859-.10547.04687-.10156.04297-.13672.01563-.10157-.04297-.14843-.14844-.10547-.04688h-.08594l-.10547.04688-.10156.04297-.1211.03125-.11718-.03125-.07422-.07422v-.11719l.03125-.1211.07422-.0703.0586-.08985.07421-.07422.11719-.03125.10547-.04296h.29296l.13282-.01563.13672-.01563.10156-.04296.08984-.0586.10156-.04687.08985-.0586.13281-.01171.08985.05859.1328.01172.08985-.0586.08594-.05859.10547-.04297.08984-.0586.08594-.0625.08984-.05859.14844-.14843.0586-.08594.05859-.08985.10547-.04296.1328-.01563.1172.02735.12109.03125.0586-.0586.05859-.08984.03125-.26563.02734-.11719.10547.01172.13281.01563.10156-.04297.08985-.0586.0586-.08984.07421-.07422.0586-.08984.04687-.10156.01172-.13281-.01172-.13282-.04688-.10547-.14843-.14843-.0586-.08985-.05859-.08594-.04297-.10546v-.44532l.01563-.1328v-.14845l.01171-.1328-.05859-.0586-.08984.0586-.10156-.04298-.1797-.11719-.08593-.05859-.0625-.08984-.0586-.08985-.07421-.07421-.08594-.0586-.1211.03125-.10156.01172-.10546.04688-.08594.05859-.10547.04297-.14844.14844-.08984.05859-.08594.0586-.08984.0625-.10547.04296-.13281.01563v-.1211l.10546-.04297.1172-.03125.07421-.0703.04297-.10548v-.14844l-.02735-.11718-.14843-.14844-.13281-.01563h-.14844l-.11719.03125-.10547.04297-.10156.04297-.08985.0625-.11718.02735-.07422-.07422.01172-.13281-.04297-.10157-.04297-.10547-.08984-.05859-.1172.02734-.12108.03125-.1172.03125-.10156.04297-.12109.03125-.10156.04297-.10547.04297-.08984.0586-.10157.01562v-.11719l.01563-.13281-.0586-.08985-.07421.04297-.14844.14844-.0586.08985-.07421.07421-.04688.10547-.04297.10156-.07422.07422-.05859.08985-.07422.07422-.0586.08593-.07421.07422-.08985.0625-.07421.07031-.07422.07422-.10156.01563-.13282.01562-.10547-.04296v-.1211l.14844-.14844.04297-.10156.0586-.08984.04687-.10156.04297-.10547.0586-.08985.03124-.11719.04297-.10156.03125-.1211.02734-.11718.04688-.10547.04297-.10156.04297-.10547.07421-.07031.08985-.0625.08984-.0586.10156-.04296h.29688l.26563-.03125.10546-.04297-.07421-.07422-.1172-.03125-.10546-.04297-.08985-.0586-.10156-.04687-.08984-.0586-.10156-.04296-.10547-.04297-.08985-.0625-.08593-.0586-.10547-.04296-.10156-.04297-.1211-.03125-.11719-.03125-.10156-.04297-.1211-.03125-.10156-.04297-.08984-.0586-.04297-.10546-.01562-.13281.10156-.04297.13281-.01563.13672.01563.13281-.01563.10157-.04297.05859-.08984.01563-.10547-.08985-.0586-.07422-.07421-.10156-.04297-.08984-.0586-.14844-.14843-.04297-.10547-.01563-.13281v-.29297l-.05859-.08985-.08984-.05859-.07422-.07422-.04297-.10547-.03125-.11718-.0586-.08985-.07421-.07422-.11719-.02734-.07422-.07422-.08984-.0586-.08985-.0625-.08593-.05859-.07422-.07421-.0586-.08594-.04687-.10547-.08594-.0586-.14844-.14843-.1953-.0586-.13282.01563-.10156.04297-.07422.07422-.04688.10156-.04297.10547-.05859.08984-.0586.08594-.29687.29687-.08984.0586h-.08594l-.0625-.08594-.04297-.10547.03125-.11719.0586-.08984.02734-.11719-.01172-.13281-.08984-.0625-.10547.04688-.11719.02734-.11719.03125-.26953.17578-.10156.04688-.11719.02734-.10547.04687-.08984.0586-.10156.04297-.0586-.08594-.04687-.10547.01562-.13281.04688-.10547.07031-.07422.07422-.07031.0586-.08985v-.14843l-.04298-.10547h-.23828l-.10156.04687-.03125.11719-.02734.11719-.03125.1211-.07422.04296-.13281.01563-.07422-.04688-.04297-.10156-.04297-.10547-.04688-.10156-.04296-.10547-.1211.03125-.10156.04297-.13281.01562-.1172.03125-.10546.04297-.08984.0586-.10157.04687-.12109.02734-.13281.01563-.10156-.04297-.0586-.08985-.04687-.10546-.04297-.10157-.04297-.10546v-.1172l.0586-.08984.08593-.05859.17969-.11719.10156-.04687.10547-.04297.10547-.0586.10156-.04296.08984-.0625.10157-.04297.10546-.0586.10157-.04687.08984-.0586.10547-.04296.10156-.04297.08985-.0625.10156-.04297.13672-.01563.11719.03125.10156.04297.1211.03125.10155.04297.10547.04688.10156.04296.10547.04297.10157.04688.10546.04297.10157.04297.10547.04687.08593.0586.10547.04296.11719.03125.10547.04297.10156.04688.08985.0586.10546.04296.10157.04297.10546.04687.1172.02735.10156.04687.12109.02735h.14844l.08593-.0586.01563-.10156.0586-.08984-.02735-.1172-.07422-.07421-.11719-.17969-.07422-.07422-.08984-.07421-.17969-.1172-.08594-.05859-.10546-.04296-.10157-.04688-.26953-.17578-.0586-.08985-.07421-.07421-.0586-.08985-.04296-.10156-.03125-.11719-.01563-.13672v-.5625l-.01172-.1328-.01562-.13282-.03125-.11719-.01563-.13281-.01171-.13281-.03125-.1211-.22266-.22265-.0586-.08594-.01562-.10547.03125-.11719.13281-.01562v-91.41406H173.04687v1.45312l-.05859.23438-.35156 1.05078-.17188.52343-.11718.34766-.17578.41016-.1172.17187-.23437.29297-.23047.0586h-.35156l-.11719.05859-.23047.40625v.29297l.1172.17578.23046.23047.11719.23437.64062.75781.29297.46485.17578.23437.23047.35156.23438.34766.64062.8164.17578.46485.17188.41016.11719.69531.17578.46875.11719 1.39844.05859.46484v.875l.11719 1.04688v4.78125l-.0586.46484-.35156 1.28125-.17578.52344-.11328.41015-.35156.9297L172.98827 336l-.23437.58203-.1172.17578-.17187.34766-.17578.40625-.35156.8164-.0586.29297-.11327.29297-.1172.28906-.05859.17579-.11718.875-.0586.40625-.0586.11718-.05858.17579-.0586.17187-.23047.52734-.11719.17188v.23437l-.11718.23438-.0586.17187-.17578.58594v.28906l-.0586.17579v.29296l-.05858.11329-.0586.52734v.17187l-.05469.23438v2.6211l-.17578.8164-.11719.17578-.17578.23438-.11718.17187-.11328.23438-.58594.93359-.23047.28906-.29297.46485-.17578.23437-.28906.35156-.35157.69922-.11328.23047-.17578.41016-.17578.23046-.40625.52735-.8164.69922-.29298.17187-.28906.23438-.17578.11719-.17578.17578-.52344.40625-.52734.17578-.17188.17578-.23437.05469-.64063.17578h-.7578m12.21093 31.02344l-1.07422.44921.35938.89454 1.25-.71485.4453-.53906-.98046-.08985"/><path fill="#d3d3d3" fill-opacity="0" fill-rule="evenodd" d="M201.5625 416.59766h-.89453l.44922.6289.98047.35938.80468-.08985.44532-.98828-.17578.08985-.71485-.35547-.89453.35547m154.6211 59.0703l-.0586-.52343v-.29297l.11328-.29297.0586-.23046.46875-.46875h.11328l.11718-.11329.1172-.05859h.17577l.23438-.0586h.34765l.23438.0586.11719.0586.23046.17187.0586.17578.11719.58203v.29297l-.1172.17578-.17187.28906-.17578.17579-.52734.52343-.23047.23438-.11719.0586h-.17578l-.11719-.0586-.40625-.29297-.17578-.11719-.11719-.0586-.05859-.11327-.05469-.1172m6.64063-10.95702l-.0586-.17188v-1.10937l.0586-.17188.17578-.0586.17188-.05858h.17578l.23437-.0586.11719.0586.0586.69921-.0586.17188-.11719.17578-.11719.0586-.23437.52343-.11328.0586h-.23438l-.0586-.1172m9.61329-14.39062l-.11719-.17578v-.69922l.29297-.875.11719-.17187.17578-.35156.11328-.23047.11719-.29297.35156-.75781.11719-.23047.17187-.23438h.17579l.11718-.0586h.64063l.11719.0586.23437.23438.17188.11328.35156.29297.11719.11718.11328.17579v.11328l.11718.05859.1172.11719v.69922l-.0586.17578v.23047l-.0586.17578-.34765 1.05078-.11719.23047-.11719.23437-.11719.0586-.23046.23437-.64063.28906h-.875l-.41015-.11718-.64063-.46485"/><path fill="none" stroke="#bebebe" stroke-linecap="round" stroke-linejoin="round" stroke-miterlimit="10" stroke-width=".5" d="M0 311.69531h0v168.625h0v-168.625"/><g clip-path="url(#a)"><path fill="#fff" fill-opacity="0" fill-rule="evenodd" d="M144.05469 475.89063v4.4375h.0039-.0039V311.67188h.0039-.0039v164.21875"/></g><g clip-path="url(#b)"><path fill="#fff" fill-opacity="0" fill-rule="evenodd" d="M144.0586 480.32813V311.67188h17.75V432.875l-2.55079 3.07031 1.09766 4.4375 1.45312 1.69922 1.65625-1.69922.50782-4.4375-2.16407-3.07031V311.67187h8.875v131.83594l-2.20312 1.3125-2.23438 1.79688-1.95703 2.64453-2.48047 3.11328-.72265 1.32422-.86328 4.4375 1.58593 2.85156 4.4375.08594 4.4375 1.17969 4.4375-.4961 3.1172-3.6211-.40626-4.4375-2.71094-2.99218-1.3164-1.44531-2.09375-4.4414-1.02735-1.3125V311.67187h297.3672v168.65625h-323.9922"/></g><path fill="#50fcfc" fill-rule="evenodd" d="M160.35547 440.38281l-1.09766-4.4375 2.55078-3.07031 2.16407 3.07031-.50782 4.4375-1.65625 1.69922-1.45312-1.69922m1.45312 20.60547l-1.58593-2.85156.86328-4.4375.72265-1.32422 2.48047-3.11328 1.95703-2.64453 2.23438-1.79688 2.20312-1.3125 1.02735 1.3125 2.09375 4.4414 1.3164 1.44532 2.71094 2.99219.40625 4.4375-3.11719 3.6211-4.4375.49609-4.4375-1.1797-4.4375-.08593"/><g clip-path="url(#c)"><path fill="#fff" fill-opacity="0" fill-rule="evenodd" d="M468.05078 480.32813h.0039V311.67188h-.0039.0039v168.65625h-.0039"/></g><g clip-path="url(#d)"><path fill="none" stroke="#000" stroke-linecap="round" stroke-linejoin="round" stroke-miterlimit="10" stroke-width=".5" d="M0 479.53516v1.58593"/></g><g clip-path="url(#e)"><path fill="none" stroke="#000" stroke-linecap="round" stroke-linejoin="round" stroke-miterlimit="10" stroke-width=".5" d="M0 479.53516v1.85156"/></g><g clip-path="url(#f)"><path fill="none" stroke="#000" stroke-linecap="round" stroke-linejoin="round" stroke-miterlimit="10" stroke-width=".5" d="M0 479.76563v1.85156"/></g><g clip-path="url(#g)"><path fill="none" stroke="#000" stroke-linecap="round" stroke-linejoin="round" stroke-miterlimit="10" stroke-width=".5" d="M0 479.40625V481.25"/></g><g clip-path="url(#h)"><path fill="none" stroke="#000" stroke-linecap="round" stroke-linejoin="round" stroke-miterlimit="10" stroke-width=".5" d="M0 479.40625v1.78906"/></g><g clip-path="url(#i)"><path fill="none" stroke="#000" stroke-linecap="round" stroke-linejoin="round" stroke-miterlimit="10" stroke-width=".5" d="M0 479.67578v1.78516"/></g><g clip-path="url(#j)"><path fill="none" stroke="#000" stroke-linecap="round" stroke-linejoin="round" stroke-miterlimit="10" stroke-width=".5" d="M0 479.57813v1.5"/></g><g clip-path="url(#k)"><path fill="none" stroke="#000" stroke-linecap="round" stroke-linejoin="round" stroke-miterlimit="10" stroke-width=".5" d="M0 479.57813v1.87109"/></g><g clip-path="url(#l)"><path fill="none" stroke="#000" stroke-linecap="round" stroke-linejoin="round" stroke-miterlimit="10" stroke-width=".5" d="M0 479.79688v.93359"/></g><g clip-path="url(#m)"><path fill="none" stroke="#000" stroke-linecap="round" stroke-linejoin="round" stroke-miterlimit="10" stroke-width=".5" d="M0 479.47266v1.71093"/></g><g clip-path="url(#n)"><path fill="none" stroke="#000" stroke-linecap="round" stroke-linejoin="round" stroke-miterlimit="10" stroke-width=".5" d="M0 479.47266v1.8203"/></g><g clip-path="url(#o)"><path fill="none" stroke="#000" stroke-linecap="round" stroke-linejoin="round" stroke-miterlimit="10" stroke-width=".5" d="M0 479.72266v.91015"/></g><g clip-path="url(#p)"><path fill="none" stroke="#000" stroke-linecap="round" stroke-linejoin="round" stroke-miterlimit="10" stroke-width=".5" d="M0 479.14063v2.375"/></g><g clip-path="url(#q)"><path fill="none" stroke="#000" stroke-linecap="round" stroke-linejoin="round" stroke-miterlimit="10" stroke-width=".5" d="M0 479.14063v1.65234"/></g><g clip-path="url(#r)"><path fill="none" stroke="#000" stroke-linecap="round" stroke-linejoin="round" stroke-miterlimit="10" stroke-width=".5" d="M0 479.48828v.82422"/></g><g clip-path="url(#s)"><path fill="none" stroke="#000" stroke-linecap="round" stroke-linejoin="round" stroke-miterlimit="10" stroke-width=".5" d="M0 479.21875v2.21875"/></g><g clip-path="url(#t)"><path fill="none" stroke="#000" stroke-linecap="round" stroke-linejoin="round" stroke-miterlimit="10" stroke-width=".5" d="M0 479.21875v1.69531"/></g><g clip-path="url(#u)"><path fill="none" stroke="#000" stroke-linecap="round" stroke-linejoin="round" stroke-miterlimit="10" stroke-width=".5" d="M0 479.54297v.84765"/></g><g clip-path="url(#v)"><path fill="none" stroke="#000" stroke-linecap="round" stroke-linejoin="round" stroke-miterlimit="10" stroke-width=".5" d="M0 479.09766v2.46093"/></g><g clip-path="url(#w)"><path fill="none" stroke="#000" stroke-linecap="round" stroke-linejoin="round" stroke-miterlimit="10" stroke-width=".5" d="M0 479.09766v1.625"/></g><g clip-path="url(#x)"><path fill="none" stroke="#000" stroke-linecap="round" stroke-linejoin="round" stroke-miterlimit="10" stroke-width=".5" d="M0 479.45703v.8125"/></g><g clip-path="url(#y)"><path fill="none" stroke="#000" stroke-linecap="round" stroke-linejoin="round" stroke-miterlimit="10" stroke-width=".5" d="M0 478.96484v2.72657"/></g><g clip-path="url(#z)"><path fill="none" stroke="#000" stroke-linecap="round" stroke-linejoin="round" stroke-miterlimit="10" stroke-width=".5" d="M0 478.96484v1.54688"/></g><g clip-path="url(#A)"><path fill="none" stroke="#000" stroke-linecap="round" stroke-linejoin="round" stroke-miterlimit="10" stroke-width=".5" d="M0 479.36328v.77344"/></g><g clip-path="url(#B)"><path fill="none" stroke="#000" stroke-linecap="round" stroke-linejoin="round" stroke-miterlimit="10" stroke-width=".5" d="M0 478.57422v3.50781"/></g><g clip-path="url(#C)"><path fill="none" stroke="#000" stroke-linecap="round" stroke-linejoin="round" stroke-miterlimit="10" stroke-width=".5" d="M0 478.57422v1.30078"/></g><path fill="none" stroke="#000" stroke-linecap="round" stroke-linejoin="round" stroke-miterlimit="10" stroke-width=".5" d="M0 479.08594v.64844"/><g clip-path="url(#D)"><path fill="none" stroke="#000" stroke-linecap="round" stroke-linejoin="round" stroke-miterlimit="10" stroke-width=".5" d="M0 478.63281v3.39063"/></g><g clip-path="url(#E)"><path fill="none" stroke="#000" stroke-linecap="round" stroke-linejoin="round" stroke-miterlimit="10" stroke-width=".5" d="M0 478.63281v1.34375"/></g><g clip-path="url(#F)"><path fill="none" stroke="#000" stroke-linecap="round" stroke-linejoin="round" stroke-miterlimit="10" stroke-width=".5" d="M0 478.83594v2.98437"/></g><g clip-path="url(#G)"><path fill="none" stroke="#000" stroke-linecap="round" stroke-linejoin="round" stroke-miterlimit="10" stroke-width=".5" d="M0 479.26953v.73828"/></g><g clip-path="url(#H)"><path fill="none" stroke="#000" stroke-linecap="round" stroke-linejoin="round" stroke-miterlimit="10" stroke-width=".5" d="M0 477.64063v5.375"/></g><path fill="none" stroke="#000" stroke-linecap="round" stroke-linejoin="round" stroke-miterlimit="10" stroke-width=".5" d="M0 478.42578v.25781"/><g clip-path="url(#I)"><path fill="none" stroke="#000" stroke-linecap="round" stroke-linejoin="round" stroke-miterlimit="10" stroke-width=".5" d="M0 477.8164v5.02735"/></g><path fill="none" stroke="#000" stroke-linecap="round" stroke-linejoin="round" stroke-miterlimit="10" stroke-width=".5" d="M0 478.54688v.34375"/><g clip-path="url(#J)"><path fill="none" stroke="#000" stroke-linecap="round" stroke-linejoin="round" stroke-miterlimit="10" stroke-width=".5" d="M0 477.72656v5.20313"/></g><path fill="none" stroke="#000" stroke-linecap="round" stroke-linejoin="round" stroke-miterlimit="10" stroke-width=".5" d="M0 478.48438v.30078"/><g clip-path="url(#K)"><path fill="none" stroke="#000" stroke-linecap="round" stroke-linejoin="round" stroke-miterlimit="10" stroke-width=".5" d="M0 477.92578v4.8086"/></g><path fill="none" stroke="#000" stroke-linecap="round" stroke-linejoin="round" stroke-miterlimit="10" stroke-width=".5" d="M0 478.625v.39453"/><g clip-path="url(#L)"><path fill="none" stroke="#000" stroke-linecap="round" stroke-linejoin="round" stroke-miterlimit="10" stroke-width=".5" d="M0 477.95703v4.7461"/></g><path fill="none" stroke="#000" stroke-linecap="round" stroke-linejoin="round" stroke-miterlimit="10" stroke-width=".5" d="M0 478.64453v.41016"/><g clip-path="url(#M)"><path fill="none" stroke="#000" stroke-linecap="round" stroke-linejoin="round" stroke-miterlimit="10" stroke-width=".5" d="M0 477.86328v4.92969"/></g><path fill="none" stroke="#000" stroke-linecap="round" stroke-linejoin="round" stroke-miterlimit="10" stroke-width=".5" d="M0 478.58203v.36719"/><g clip-path="url(#N)"><path fill="none" stroke="#000" stroke-linecap="round" stroke-linejoin="round" stroke-miterlimit="10" stroke-width=".5" d="M0 479.34766v1.96093"/></g><g clip-path="url(#O)"><path fill="none" stroke="#000" stroke-linecap="round" stroke-linejoin="round" stroke-miterlimit="10" stroke-width=".5" d="M0 479.63281v.8789"/></g><g clip-path="url(#P)"><path fill="none" stroke="#000" stroke-linecap="round" stroke-linejoin="round" stroke-miterlimit="10" stroke-width=".5" d="M0 481.88672v-3.11328"/></g><g clip-path="url(#Q)"><path fill="none" stroke="#000" stroke-linecap="round" stroke-linejoin="round" stroke-miterlimit="10" stroke-width=".5" d="M0 480.32813V479.30469v2.04687-1.02343"/></g><g clip-path="url(#R)"><path fill="none" stroke="#000" stroke-linecap="round" stroke-linejoin="round" stroke-miterlimit="10" stroke-width=".5" d="M0 483.15234v-5.64453"/></g><g clip-path="url(#S)"><path fill="none" stroke="#000" stroke-linecap="round" stroke-linejoin="round" stroke-miterlimit="10" stroke-width=".5" d="M0 480.30469v.04687"/></g><g clip-path="url(#T)"><path fill="none" stroke="#000" stroke-linecap="round" stroke-linejoin="round" stroke-miterlimit="10" stroke-width=".5" d="M0 480.30469v2.16015"/></g><g clip-path="url(#U)"><path fill="none" stroke="#000" stroke-linecap="round" stroke-linejoin="round" stroke-miterlimit="10" stroke-width=".5" d="M0 477.69531v5.26563"/></g><path fill="none" stroke="#000" stroke-linecap="round" stroke-linejoin="round" stroke-miterlimit="10" stroke-width=".5" d="M0 477.69531v.57031"/><g clip-path="url(#V)"><path fill="none" stroke="#000" stroke-linecap="round" stroke-linejoin="round" stroke-miterlimit="10" stroke-width=".5" d="M0 478.38672v3.88281"/></g><path fill="none" stroke="#000" stroke-linecap="round" stroke-linejoin="round" stroke-miterlimit="10" stroke-width=".5" d="M0 478.38672v1.17187"/><g clip-path="url(#W)"><path fill="none" stroke="#000" stroke-linecap="round" stroke-linejoin="round" stroke-miterlimit="10" stroke-width=".5" d="M0 478.98438v2.6875"/></g><g clip-path="url(#X)"><path fill="none" stroke="#000" stroke-linecap="round" stroke-linejoin="round" stroke-miterlimit="10" stroke-width=".5" d="M0 478.98438v1.5625"/></g><g clip-path="url(#Y)"><path fill="none" stroke="#000" stroke-linecap="round" stroke-linejoin="round" stroke-miterlimit="10" stroke-width=".5" d="M0 466.91016v.20703"/></g><path fill="none" stroke="#000" stroke-linecap="round" stroke-linejoin="round" stroke-miterlimit="10" stroke-width=".5" d="M0 466.91016v2.1289m0-2.09765v1.0625m0-1.78516v1.58984m0-1.58984v1.85156m0-1.6211v.92579m0-1.28516v1.84766m0-1.84766v1.78907m0-1.51954v1.78516m0-2.22265v2.18359m0-2.1836v1.69922m0-1.3828v1.70312m0-2.22657v2.59766m0-2.59766v1.58594m0-1.20703v.79297m0-1.11719v2.48828m0-2.48828v1.61719m0-1.2539v.80859m0-1.26954v2.6836m0-2.6836v1.5625m0-1.17187v.78125m0-1.0664V468.25m0-2.47266v1.6211m0-1.26172v.8125m0-1.46094v3.05078m0-3.05078v1.44922m0-1.00781v.72656m0-1.08984v2.89453m0-2.89453v1.49609m0-2.10938v4.1211m0-4.1211v1.07813m0-.9336v3.83204m0-3.27344v.59375m0-1.26953v4.0664m0-3.47656v.55078m0-2.18359v6.15234m0-5.2578v.02343m0-.63281v5.58203m0-4.76953v.19921m0-1.0703v5.69921m0-4.8711v.16798M0 465v4.02734m0-3.4414v.55468m0-.30859v2.36328m0-2.36328v1.65234m0 .1875v-1.3164m0 1.125v1.17187m0 .46485v-4.20703m0 3.59375v1.21484m0-3.92578v2.4414m0-1.85546v1.26953m0-1.26953v1.92187m0-2.82422v3.07422m0-2.6289v.72265m0-1.14844v3.03516m0-3.03516v1.45703m0-.92578V468m0-1.6875v.8789"/><g clip-path="url(#Z)"><path fill="none" stroke="#000" stroke-linecap="round" stroke-linejoin="round" stroke-miterlimit="10" stroke-width=".5" d="M0 453.30469v.78906"/></g><path fill="none" stroke="#000" stroke-linecap="round" stroke-linejoin="round" stroke-miterlimit="10" stroke-width=".5" d="M0 453.30469v2.02344m0-1.91016v1.01172m0-1.91016v2.35938m0-2.35938v1.65234m0-1.30859v.82422m0-1.10156v2.22656m0-2.22656v1.6875m0-1.36328v.84375m0-1.64844v3.1875m0-3.1875v1.41015m0-.9453v.70312m0-1.1914v3.23046m0-3.23047v1.39453m0-.92187v.69531m0-1.08594v3.07031m0-3.0703v1.4453m0-1v1.44532m0-2.13672v3.5586m0-3.5586v1.28515m0-.76562v.64063m0-1.83985v4.92188m0-4.92188v.73828m0-.02343v.73828m0-1.21094v4.4336m0-4.4336v.95703m0-.3086v.47657m0-1.09766v4.3789m0-4.3789v.97657m0-.33985v.48828m0-1.41797v4.96875m0-4.96875v.71485m0-1.10938v5.75782m0-5.75782v.29688m0-.3789v5.91796m0-5.91797v.19922m0 .25v5.02344m0-4.29297v.34375m0 .47266v1.92578m0-1.64453v.8828m0-1.95312v3.50782m0-3.50782v1.30078m0-2.03515v4.97656m0-4.97656v.71094m0 .60937v2.33594m0-2.33594v1.66016m0-3.51953v6.05078m0-6.05078v.10937m0-.59375v7.01953m0-5.9961v-.52343m0 3.84375v-1.66406m0 1.42187v1.1875m0-1.6836v-.1914m0 .1914v2.19923m0-2.84375V454.25m0-1.10156v1.95703m0-3.59375v4.375m0-3.73828v.48828m0-.88281v3.89062"/><g clip-path="url(#aa)"><path fill="none" stroke="#000" stroke-linecap="round" stroke-linejoin="round" stroke-miterlimit="10" stroke-width=".5" d="M0 451.7539v1.16407"/></g><g clip-path="url(#ab)"><path fill="none" stroke="#000" stroke-linecap="round" stroke-linejoin="round" stroke-miterlimit="10" stroke-width=".5" d="M0 439.625v1.51953"/></g><path fill="none" stroke="#000" stroke-linecap="round" stroke-linejoin="round" stroke-miterlimit="10" stroke-width=".5" d="M0 439.625v1.86328m0-1.64453v.9336m0-1.90626v3.02344m0-3.02344v1.46094m0-1.01953v.73047m0-1.1289v2.9375m0-2.9375v1.48437m0-1.0586v.7461m0-.92969v2.45312m0-2.45312v1.6289m0-1.27343v.8164m0-1.67968v3.46875m0-3.46875v1.3164m0-.8125v1.31641m0-2.61719v5.0664m0-5.0664v.67188m0 .0625v.33593m0-.49609v3.91797m0-3.91797v1.15625m0-1.97266v5.54688m0-5.54688v.42188m0 .38672v.20703m0-1.23047v5.97656m0-5.97656v.16016m0 .71093v.07813m0-1.23828v6.55469m0-6.5547v-.29296m0 1.2461v-.14454m0-.97265v6.8828m0-6.8828v-.69532m0 1.69532v-.34375m0-.44922v6.46875m0-6.46875v-.21485m0 .07813v6.7461m0-6.7461v-.5m0 1.48047v-.25m0-.58203v6.4453m0-6.4453v-.19532m0 .97266v4.89062m0-4.89062v.7539m0-.04296v.3789m0-.85547v4.42188m0-4.42188v.95704m0-.3125v.47656m0-1.96875v6.11719m0-6.1172v.06641m0-.4414v6.8711m0-5.8711v-.79297m0 4.41406v-2.375m0 2.03125v1.21485m0-4.32422v4.53125m0-3.8711v.45703m0 1.33204v-.3672m0 .3672v2.22656m0-3.16406v1.51172m0-1.51172v1.86718m0-1.64843v.93359m0-1.39453v1.9961m0-1.9961v1.75m0-1.46094v.875m0-1.58203v2.82813m0-2.41407v.75781m0-.94921v2.38672"/><g clip-path="url(#ac)"><path fill="none" stroke="#000" stroke-linecap="round" stroke-linejoin="round" stroke-miterlimit="10" stroke-width=".5" d="M0 439.1914v1.64454"/></g><g clip-path="url(#ad)"><path fill="none" stroke="#000" stroke-linecap="round" stroke-linejoin="round" stroke-miterlimit="10" stroke-width=".5" d="M0 426.35547v1.42578"/></g><path fill="none" stroke="#000" stroke-linecap="round" stroke-linejoin="round" stroke-miterlimit="10" stroke-width=".5" d="M0 426.35547v1.88672m0-1.67969v.94531m0-1.39844v1.91797m0-1.91797v1.76954m0-1.4922v1.76954m0-2.28125v2.38672m0-2.38672v1.64844m0-1.30078v1.64843m0-2.3203v3.03515m0-3.03516v1.45703m0-1.01562v1.45703m0-2.40625v4.05078m0-4.05078v1.10937m0-.51953v1.10938m0-1.75781v4.16796m0-4.16796v1.0625m0-.45704v1.0625m0-2.2539v5.33984m0-5.33984v.53125m0 .2461v.26562m0-1.14063v5.53516m0-5.53516v.42578m0 .3789v.21095m0-.77344v5.05078m0-5.05078v.67578m0-.98047v5.66016m0-5.66016v.35547m0-.59766v6.14454m0-6.14454v.04297m0 .85157v.01953m0-1.07813v6.47266m0-6.47266v-.21484m0-.04688v6.9961m0-6.9961v-.94922m0 1.96485v-.47266m0-.53125v6.97266m0-6.97266v-.875m0 1.89063v-.4375m0-.57422v6.96484m0-6.96484v-.85156m0 2.05468v4.5586m0-4.5586v.89844m0-1.41016v5.58204m0-4.76954v.19922m0-.00781v3.57422m0-3.05469v.64063m0-.70313v2.66016m0-2.66016v1.57031m0-3.6289v6.77734m0-5.79297v-.26953m0 1.16016v3.02734m0-3.02734v1.45703m0-1.01563v.72657m0-1.34766v3.38672m0-3.38672v1.34375m0-.85156v1.34375m0-1.01172v1.73828m0-1.73828v1.8125m0-4.38672v6.88672m0-6.88672v-.6914m0 2.80859v2.65234"/><g clip-path="url(#ae)"><path fill="none" stroke="#000" stroke-linecap="round" stroke-linejoin="round" stroke-miterlimit="10" stroke-width=".5" d="M0 414.46484v-1.42187"/></g><path fill="none" stroke="#000" stroke-linecap="round" stroke-linejoin="round" stroke-miterlimit="10" stroke-width=".5" d="M0 414.46484v2.35157m0-2.89454v-.33593m0 .33594v2.21875m0-2.26954v2.21875m0-3.35937v2.04687m0-2.04687v1.73828m0-1.4414v1.73827m0-1.4414v.8711m0-2.00782v3.13281m0-3.13281v1.42578m0-.96875v1.42578m0-.97265v.71484m0-2.14844v4.17969m0-4.17969v1.0586m0-.44922v1.05468m0-.44921v.53125m0-1.83204v4.35157m0-4.35157v.98829m0-.35547v.98828m0-1.29688v3.70313m0-3.70313v1.23438m0-.69531v1.23437m0-2.5039v5.16406m0-5.16406v.62109m0 .1289v.3125m0-1.18359v5.40625m0-5.40625v.4961m0 .28906v.25m0-.72266v4.78125m0-4.78125v.80469m0-.10938v.40235m0-1.17969v4.94531m0-4.94531v.72656M0 412v.36328m0-.8164v4.41015m0-4.41015v.96484m0-.32031v.48046m0-2.04296v6.25m0-6.25v-.03516m0-.23438v6.78907m0-5.80078v-.27735m0-.78906v6.94531m0-5.9375v-.40625m0-.28906v6.3164m0-5.39452v-.04688m0-1.19531v6.96094m0-5.94922v-.71875m0 .64453v5.08594m0-4.34766v.33203m0 1.28906v.36719m0-.36719v2.10157m0-3.0586v2.27735m0-2.27735v1.67578m0-2.19922v3.32813m0-3.32813v1.35938m0-.875v.67969m0-2.0625v5.125m0-5.125v.64453m0 .10156v.32031m0-.98828v4.96875m0-4.2461v.35938m0-1.78906v6.38281m0-6.38281v-.14062m0 .42968v5.80469"/><g clip-path="url(#af)"><path fill="none" stroke="#000" stroke-linecap="round" stroke-linejoin="round" stroke-miterlimit="10" stroke-width=".5" d="M0 410.85156v.26953"/></g><path fill="none" stroke="#000" stroke-linecap="round" stroke-linejoin="round" stroke-miterlimit="10" stroke-width=".5" d="M0 411.69531v.13672"/><g clip-path="url(#ag)"><path fill="none" stroke="#000" stroke-linecap="round" stroke-linejoin="round" stroke-miterlimit="10" stroke-width=".5" d="M0 401.5039v-2.1328"/></g><path fill="none" stroke="#000" stroke-linecap="round" stroke-linejoin="round" stroke-miterlimit="10" stroke-width=".5" d="M0 401.5039v2.41407m0-2.72266v2.41406m0-2.42187v-1.5m0 1.5v2.36328m0-2.58203v2.36328M0 400.75v1.1836m0-.62891v-1.73438m0 1.73438v2.38672m0-2.63672v2.38281m0-2.85156v-.29297m0 .29297v2.21094m0-2.25391v2.21094m0-2.9961v1.35938m0-1.35938v1.90625m0-1.70703v1.90235M0 398.25v4.3789m0-4.3789v.97656m0-.33984v.97656m0-.33984V400.5m0-2.58984v5.05859m0-5.0586v.67579m0 .0586v.67577m0 .0625v.33594m0-1.97266v5.38672m0-5.38672v.50782m0 .27343v.50782m0-1.28125v5.36718m0-5.36718v.51953m0 .26172v.51953m0-1.10156v4.96875m0-4.96875v.71875m0 .0039v.71875m0-1.15234v4.39062m0-4.39062v.97265m0-.33203v.48438m0-.65235v3.44532m0-3.44532v1.32422m0-1.09765v2.99609m0-2.9961v1.46876m0-2.07813v4.21094m0-4.21094v1.04688m0-1.41797v4.95312m0-4.95312v.72265m0-1.71093v6.93359m0-5.92578v-.39453m0 3.07812v-.44922m0 .38282v-1.04297m0 .88281v-1.02344V401.46094 400.4375m0-1.91406v3.82812m0-3.82812v1.1914m0 1.73829v-2.03125m0 2.03125v2.41015m0-1.88281v-3.08594m0 2.63672v1.22656m0-2.26562v-.10938m0 .10938v2.1875m0-3.5586v2.63282m0-2.25v.78906m0-2.5v5.28906m0-4.51953v.28125m0-.66406v4.51562"/><g clip-path="url(#ah)"><path fill="none" stroke="#000" stroke-linecap="round" stroke-linejoin="round" stroke-miterlimit="10" stroke-width=".5" d="M0 398.17969v.92187"/></g><g clip-path="url(#ai)"><path fill="none" stroke="#000" stroke-linecap="round" stroke-linejoin="round" stroke-miterlimit="10" stroke-width=".5" d="M0 389.78906v-5.33203"/></g><path fill="none" stroke="#000" stroke-linecap="round" stroke-linejoin="round" stroke-miterlimit="10" stroke-width=".5" d="M0 389.78906v2.28516m0-3.0625v1.14453m0-1.89453v-2.27735m0 2.27735v2.42187m0-2.7539v2.42187m0-2.25781v-1.9414m0 1.9414v2.39844m0-2.67969v1.19922M0 388.5v-2.7539M0 388.5v2.44531m0-2.84765v1.22265m0-.3125v-3.76953m0 3.76953v2.44531m0-2.99218v1.22265m0-2.05859v-1.0039m0 1.0039v2.3086m0-2.45313v2.3086m0-2.45704v1.15625m0-3.50781v4.28515m0-4.28515v1.01562m0-.39062v1.01562m0-1.88671v4.77734m0-4.77735v.8086m0-.11328v.80469m0-1.29688v4.3711m0-4.3711v.98047m0-.34375v.98047m0-1.73438v4.60547m0-4.60547v.8789m0-.21093v.88281m0-1.34765v4.19922m0-4.19922v1.05078m0-.4375v1.04687m0-1.5078v3.89452m0-3.89453v1.16406m0-.59765v1.16406m0-1.4961v3.42579m0-3.42578v1.32812m0-.83203v.66797m0-.70313v2.50782m0-2.50782v1.60938m0-1.2461v.8047m0-2.10938v4.38672m0-4.38672v.97265m0-1.22265v4.88672m0-4.17579v.37891m0 .65625v1.39844m0-1.39844v1.89063m0-2.28907v2.19141m0-2.1914v1.69921m0-1.3789v1.6953m0-3.05858v4.27734m0-4.27735V386m0 .32031v1.60938m0-1.3789v.92577m0 .32422v-1.35156m0 1.35156v2.34375m0-2.78906v-.46485m0 .39844v1.11719m0-2.86328v3.16015m0-1.78906v.42188m0-.42188v2.09375m0-2.80078v1.83594"/><g clip-path="url(#aj)"><path fill="none" stroke="#000" stroke-linecap="round" stroke-linejoin="round" stroke-miterlimit="10" stroke-width=".5" d="M0 386.20703v1.78906"/></g><g clip-path="url(#ak)"><path fill="none" stroke="#000" stroke-linecap="round" stroke-linejoin="round" stroke-miterlimit="10" stroke-width=".5" d="M0 376.5664v-5.51562"/></g><path fill="none" stroke="#000" stroke-linecap="round" stroke-linejoin="round" stroke-miterlimit="10" stroke-width=".5" d="M0 376.5664v2.2461m0-3.05078v1.125m0-1.17969v-3.79687m0 3.79687v2.44531m0-3v2.44532m0-2.9961v1.22266m0-.60547v-2.82031m0 2.82031v2.44531m0-2.85547v2.44532m0-3.28907v-.3125m0 .3125v2.21485m0-2.26172v2.21875m0-1.79688v-1.0625m0 1.0625v2.31641m0-2.47266v1.16016m0-1.32813v-.41406m0 .41406v2.23047m0-2.29296v1.11718m0-.88281v-.75781m0 .75781v2.27734m0-2.38671v1.13671m0-2.01953v1.22656m0-1.22656v1.9336m0-1.75391v1.92969m0-3.3086v3.625m0-3.625v1.26172m0-.73437v1.26172m0-1.75391v3.55469m0-3.55469v1.28516m0-.76954v1.28516m0-1.71484V375.5m0-3.38281v1.34375m0-.85156v1.34375m0-2.06641v3.84375m0-3.84375v1.1836m0-.625v1.18359m0-1.78516v3.92578m0-3.92578V373m0-.58203v1.15234m0-1.72265v3.92187m0-3.92187v1.15625m0-.58594v1.15625m0-.58594v.57813m0-1.46875v3.42187m0-3.42187v1.33203m0-.83203v1.33203m0-1.6289v3.01562m0-3.01563v1.46094m0-1.02344v1.46094m0-1.50781v2.23437m0-2.23437v1.6875m0-1.36329v1.69141m0-1.78906v1.78125m0-1.78125v1.80469m0-1.54688v.90235m0-1.64454v2.75m0-2.75v1.54297m0-1.14453v.77344m0-.45703v1.32031m0-1.32031v1.91015m0-1.71875V375.25m0-1.26172v-.35937m0 .35937v2.22266m0-.94922v-2.90625m0 2.48047v1.22656m0-1.48828v-1.53125m0 1.3086v1.18359m0-1.16407v-1.125m0 1.125v2.32422m0-2.05078v-1.67187m0 1.67187v2.3789"/><g clip-path="url(#al)"><path fill="none" stroke="#000" stroke-linecap="round" stroke-linejoin="round" stroke-miterlimit="10" stroke-width=".5" d="M0 363.86328V357.125"/></g><g clip-path="url(#am)"><path fill="none" stroke="#000" stroke-linecap="round" stroke-linejoin="round" stroke-miterlimit="10" stroke-width=".5" d="M0 363.86328v1.71875"/></g><g clip-path="url(#an)"><path fill="none" stroke="#000" stroke-linecap="round" stroke-linejoin="round" stroke-miterlimit="10" stroke-width=".5" d="M0 362.88281v1.71875"/></g><path fill="none" stroke="#000" stroke-linecap="round" stroke-linejoin="round" stroke-miterlimit="10" stroke-width=".5" d="M0 363.48438V357.5m0 5.98438v2.11718m0-2.98828v2.11719m0-2.125v-4.22656m0 4.22656v2.42578m0-3.03906v1.21094m0-1.76563v-1.88672m0 1.88672v2.39453m0-2.66797v2.39453m0-2.55078v-1.03125m0 1.03125v2.3125m0-2.46094v2.3125m0-2.46484v1.15625m0-.08984v-2.5625m0 2.5625v2.4375m0-2.8086v2.4375m0-3.29687v-.10156m0 .10156v2.1836m0-2.19923v2.1836m0-1.32813v-1.78125m0 1.78125v2.38672m0-2.64453v2.38672m0-2.48828v-1.0586m0 1.0586v2.3164m0-2.47265v2.3164m0-3.55078v1.72266m0-1.72266v1.8164m0-1.5664v1.8164m0-2.89452v3.3789m0-3.3789v1.34375m0-.85547v1.34765m0-1.51953v2.7461m0-2.7461v1.54297m0-1.14453v1.54297m0-1.73828v2.33594m0-2.33594v1.66015m0-1.3203v.83202m0-1.09375v2.1797m0-2.1797v1.70313m0-1.38672v1.70313m0-2.98438v4.10938m0-4.10938v1.08594m0-.48828v.54296m0-.61328v3.0547m0-3.0547v1.44922m0-1.0039v.72265m0-.34765v1.41796m0-1.41796v1.89062m0-1.6836v1.88673m0-1.9961v1.22266m0-1.22266v1.9336m0-1.75782v1.9336m0-2.80469v2.60938m0-2.60938v1.58594m0-1.20703v1.58593m0-2.25v3.1797m0-3.1797v1.41407m0-.94922v1.41015m0-1.39453v2.22266m0-2.22266v1.6914m0-1.36718v.84375m0-.16406v.21094m0-.21094v2.13281m0-1.70312v-.64844m0 .55469v1.1328m0 .58204v-3.88672m0 3.32031v1.21875m0-2.68359v.17188m0-.14454V361.5"/><g clip-path="url(#ao)"><path fill="none" stroke="#000" stroke-linecap="round" stroke-linejoin="round" stroke-miterlimit="10" stroke-width=".5" d="M0 350.67969v-7.0039"/></g><g clip-path="url(#ap)"><path fill="none" stroke="#000" stroke-linecap="round" stroke-linejoin="round" stroke-miterlimit="10" stroke-width=".5" d="M0 350.67969v1.3164"/></g><g clip-path="url(#aq)"><path fill="none" stroke="#000" stroke-linecap="round" stroke-linejoin="round" stroke-miterlimit="10" stroke-width=".5" d="M0 349.66016v1.3164"/></g><path fill="none" stroke="#000" stroke-linecap="round" stroke-linejoin="round" stroke-miterlimit="10" stroke-width=".5" d="M0 350.66406v-6.97265m0 6.97265v1.41016m0-2.42578v1.41015m0-1.125v-5.51171m0 5.51171v2.2461m0-3.04688v1.125m0 .17188v-6.5039m0 6.5039v1.88672m0-2.83204v.94141m0-.04687v-6.40235m0 6.40235v1.9414m0-2.8711v.96876m0-.73828v-5.0039m0 5.0039v2.33984m0-3.0664v1.16796m0-2.42578v-1.03515m0 1.03515v2.3125m0-2.46484v2.3125m0-2.10156v-1.15235m0 1.15235v2.32812m0-2.4961v2.32813m0-1.6875v-2.09765m0 2.09765v2.41016m0-2.71485v2.41016M0 346.75v.85547m0-.85547v2.00781m0-1.88281v2.00781m0-2.55078v1.69531m0-1.6953v1.82421m0-1.57813v1.82422m0-2.85937v3.27344m0-3.27344v1.3789m0-.90234v1.3789m0-1.8125v3.1836m0-3.1836v1.41016m0-.9453v.70312m0 .96484v-1.08203m0 1.08203v2.32031m0-2.47656v1.16016m0-2.14454v1.19922m0-1.19921v1.9375m0-1.76172v.96875m0-2.65235v4.21485m0-4.21485v1.04297m0-.42969v.51954m0-.28125v2.51171m0-2.51171v1.61328m0-1.2461v1.61328m0-.99218v.53515m0-.53515v2.07421m0-1.99609v2.07422m0-1.9961v1.03516m0-1.73437v1.6211m0-1.6211v1.84375m0-1.60938v1.84375m0-1.60547v1.83985m0-3.11328v3.22265m0-3.22265v1.39453m0-.92578v1.39453m0-.92578v1.39453m0-2.34766v3.2539m0-3.2539v1.38672m0-.91406v1.38672M0 346.5v.6914m0-1.26952v2.51171m0-2.51171v1.61328m0-1.2461v1.60938m0-1.32422v1.20703m0-1.20703v1.9375M0 346.75v.96875m0-.85938v.63672m0-.63671v2.05468m0-1.96094v1.02735m0-1.45703v1.3086"/><g clip-path="url(#ar)"><path fill="none" stroke="#000" stroke-linecap="round" stroke-linejoin="round" stroke-miterlimit="10" stroke-width=".5" d="M0 346.52344v1.91406"/></g><g clip-path="url(#as)"><path fill="none" stroke="#000" stroke-linecap="round" stroke-linejoin="round" stroke-miterlimit="10" stroke-width=".5" d="M0 337.35156V330.375"/></g><g clip-path="url(#at)"><path fill="none" stroke="#000" stroke-linecap="round" stroke-linejoin="round" stroke-miterlimit="10" stroke-width=".5" d="M0 337.35156v1.40625"/></g><g clip-path="url(#au)"><path fill="none" stroke="#000" stroke-linecap="round" stroke-linejoin="round" stroke-miterlimit="10" stroke-width=".5" d="M0 336.33594v.70312"/></g><path fill="none" stroke="#000" stroke-linecap="round" stroke-linejoin="round" stroke-miterlimit="10" stroke-width=".5" d="M0 337.34375v-6.96094m0 6.96094v1.4375m0-2.44922v1.4336m0-.70704v-6.39453m0 6.39453v1.94922m0-2.8789v1.94921m0-.8125v-6.80468m0 6.80469v1.65625m0-2.64844v1.66015m0-2.64843v.82812m0 1.24219v-6.98828m0 6.98828v1.375m0-2.39063v1.375m0-2.39062v.6875m0 .72656v-5.75m0 5.75v2.1875m0-3.02344v2.1875m0-3.02343v1.09375m0-1.70313v-1.1875m0 1.1875v2.32813m0-2.5v2.32812m0-2.5039v1.16796m0-1.68359v.53906m0-.53906v2.07031m0-1.99219v2.07032m0-2.54297v1.32422m0-1.32422v1.91406m0-1.71875v1.91016m0-1.71875v.95703m0-1.40625v1.45312m0-1.45312v1.88281m0-1.67187v1.8828m0-2.03124v1.32812m0-1.32812v1.91015m0-1.71484v1.91016m0-2.80078v2.71875m0-2.71875v1.55078m0-1.15625v1.55469m0-2.37891v3.57812m0-3.57812v1.27734m0-.75781v1.27734m0-1.08203v2.14844m0-2.14844V334.5m0-1.39844v1.71094m0-.64063v-.61718m0 .61719v2.2578m0-2.34765v1.1289m0-1.80077v.90625m0-.90625v2m0-3.29297v3.49219m0-3.4922v1.3086m0-.35547v1.58594m0-1.58594v1.85156m0-1.62109v.92578m0-1.60937v2.49219m0-2.4922v1.6211m0-1.25781v.8086m0-1.33204v2.8125m0-2.8125v1.52344m0-1.11328v.76172m0-.72657v1.91797m0-1.91797v1.77344m0-1.49219v1.76954m0-2.01954v1.85938m0-1.85938v1.78516m0-1.51563v1.78516m0-1.51172v.89063m0-1.38672v1.76562m0-1.76562v1.80469m0-1.54688v1.80469m0-1.55078v.90625m0-1.1836v1.29688m0-1.29688v1.91407m0-1.72657v1.91797m0-1.72656v.95703m0-1.9414v2.5078"/><g clip-path="url(#av)"><path fill="none" stroke="#000" stroke-linecap="round" stroke-linejoin="round" stroke-miterlimit="10" stroke-width=".5" d="M0 332.60938v1.60937"/></g><path fill="none" stroke="#000" stroke-linecap="round" stroke-linejoin="round" stroke-miterlimit="10" stroke-width=".5" d="M0 332.97266v1.61328m0-1.2461v.8047"/><g clip-path="url(#aw)"><path fill="none" stroke="#000" stroke-linecap="round" stroke-linejoin="round" stroke-miterlimit="10" stroke-width=".5" d="M0 323.8125v-6.52734"/></g><g clip-path="url(#ax)"><path fill="none" stroke="#000" stroke-linecap="round" stroke-linejoin="round" stroke-miterlimit="10" stroke-width=".5" d="M0 323.8125v1.8711"/></g><g clip-path="url(#ay)"><path fill="none" stroke="#000" stroke-linecap="round" stroke-linejoin="round" stroke-miterlimit="10" stroke-width=".5" d="M0 322.86328v.9336"/></g><path fill="none" stroke="#000" stroke-linecap="round" stroke-linejoin="round" stroke-miterlimit="10" stroke-width=".5" d="M0 323.75v-6.40625M0 323.75v1.9414m0-2.87109v1.9375m0-2.8711v.96876m0 .78125v-6.17578m0 6.17578v2.04687m0-2.9453v2.04687m0-2.94532v1.02344m0 1.10547V317.125m0 6.84375v1.61328m0-2.60547v1.60938m0-2.60547v.80469m0 .61718v-5.71093m0 5.71093v2.19922m0-3.03125v2.19922m0-3.02734v1.09765m0-.55468v-3.47266m0 3.47266v2.45312m0-2.96094v2.45313m0-2.95703V322.5m0-1.4414v-1.02344m0 1.02343v2.3125m0-2.46093v2.3125m0-2.46094v1.15625m0-2.14844v1.5586m0-1.5586v1.85547m0-1.6289v1.85546m0-2.41797v2.22657m0-2.22657v1.69141m0-1.36719v1.6914m0-2.49218v3.1836m0-3.1836v1.41016m0-.94922v.70703m0-.5664v1.98046m0-1.98047v1.75391m0-1.46484v1.7539m0-1.80078v1.49219m0-1.49219v1.875m0-1.65625v.9375m0-1.66015v2.5039m0-2.5039v1.61328m0-1.25v.80468m0-1.42968v3.02734m0-3.02734v1.46093m0-1.01953v1.45703m0-1.80859v2.84766m0-2.84766v1.51172m0-1.09766v1.51172m0-1.65625v2.30469m0-2.30469v1.67188m0-1.33594v.83594m0-.63672v1.23437m0-1.05469v.96875m0-2.05468v3.05078m0-3.05078v1.45312m0-2.35547v4.85157m0-4.85157v.77344m0-1.04297v5.39063m0-5.39063v.50781m0 .27735v.2539m0 .26954v2.77734m0-2.375v.76953m0 2.38281v-4.33203m0 3.69922v1.21094m0-6.25v7.01172m0-7.01172v-1.00781m0 1.67187v5.6836m0-5.6836v.33985m0 .48437v.17188m0 .0039v3.6836"/><g clip-path="url(#az)"><path fill="none" stroke="#000" stroke-linecap="round" stroke-linejoin="round" stroke-miterlimit="10" stroke-width=".5" d="M0 318.70703v1.24219"/></g><g clip-path="url(#aA)"><path fill="none" stroke="#000" stroke-linecap="round" stroke-linejoin="round" stroke-miterlimit="10" stroke-width=".5" d="M0 319.24219v1.24219"/></g><path fill="none" stroke="#000" stroke-linecap="round" stroke-linejoin="round" stroke-miterlimit="10" stroke-width=".5" d="M0 319.77734v.6211"/><path fill="#00f" fill-rule="evenodd" d="M321.71875 458.77344h8.61719V448.625h-8.61719v10.14844"/><path fill="azure" fill-rule="evenodd" d="M323.55078 450.45703h.83203v2.82422h3.28906v-2.82422h.83204v6.48047h-.83204v-2.91406h-3.28906v2.91406h-.83203v-6.48047"/><path fill="#ff3030" fill-rule="evenodd" d="M362.35938 458.77344h7.6914V448.625h-7.6914v10.14844"/><path fill="azure" fill-rule="evenodd" d="M364.1914 450.45703h.83204v5.74219h3.19531v.73828h-4.02734v-6.48047"/><path fill="#00f" fill-rule="evenodd" d="M175.2539 454.33203h8.6172V444.1875h-8.6172v10.14453"/><path fill="azure" fill-rule="evenodd" d="M177.08594 446.01953h.83203v2.82422h3.28516v-2.82422h.83593V452.5h-.83594v-2.91406h-3.28515V452.5h-.83203v-6.48047"/><path fill="#ff3030" fill-rule="evenodd" d="M260.27344 445.45703h7.69531V435.3125h-7.69531v10.14453"/><path fill="azure" fill-rule="evenodd" d="M262.10938 437.14453h.83203v5.73828h3.1953v.74219h-4.02733v-6.48047"/><path fill="#ff3030" fill-rule="evenodd" d="M175.94531 409.94922h7.69531v-10.14453h-7.6953v10.14453"/><path fill="azure" fill-rule="evenodd" d="M177.78125 401.63672h.83203v5.73828h3.1914v.74219h-4.02343v-6.48047"/><path fill="#ffffe0" fill-rule="evenodd" d="M377.30469 451.0586h22.17969v-10.19532h-22.1797v10.19531"/><path fill-rule="evenodd" d="M380.80469 442.69922h.50781v6.29297h-.78516v-4.48828h-1.39062v-.5547l.5625-.0664.25-.05469.23047-.08984.20312-.14062.17578-.21094.14063-.29297.10547-.39453m4.8125 0l.23047.01953.21875.05469.20703.08984.19922.1211.18359.14843.17188.17578.30078.41797.24218.4961.1797.54687.11327.57813.03906.58984-.03906.59375-.11328.58203-.17969.55469-.24218.5039-.30079.42579-.17187.17968-.1836.15625-.19921.1211-.20703.09375-.21875.05469-.23047.01953-.22656-.01954-.21875-.05468-.21094-.09375-.19531-.1211-.1836-.15625-.17187-.17968-.30079-.42579-.24609-.5039-.17969-.55469-.10937-.58203-.03906-.59375h.83203l.03125.5625.08203.50781.125.4414.16406.375.1875.30079.21094.22266.22265.13671.22657.04688.22656-.04688.22266-.13671.21093-.22266.19141-.30078.16406-.375.125-.4414.08203-.50782.02735-.5625-.02735-.5625-.08203-.5-.125-.4336-.16406-.36718-.1914-.29297-.21094-.21094-.22266-.13281-.22656-.04688-.22656.04688-.22266.13281-.21094.21094-.1875.29297-.16406.36719-.125.43359-.08203.5-.03125.5625h-.83203l.03906-.58984.10937-.57813.1797-.54687.24608-.4961.30079-.41797.17187-.17578.1836-.14844.1953-.12109.21094-.08984.21875-.05469.22657-.01953m5.09375 0h.50781v6.29297h-.78516v-4.48828h-1.39062v-.5547l.5586-.0664.2539-.05469.23047-.08984.20312-.14062.17188-.21094.14453-.29297.10547-.39453m2.82422 2.17578h.78515l.01953-.3164.0586-.28907.10156-.25.13672-.21484.1836-.17578.22265-.12891.26562-.08203.3086-.02735.23828.02344.22265.0625.20313.10156.17969.13672.14844.17579.11328.20312.0703.23828.02735.26172-.02344.26953-.0664.22656-.10938.19141-.15234.17188-.20313.16015-.24609.16797-.63281.38672-.53906.3125-.4375.32031-.34766.32422-.26172.33594-.1914.34765-.125.3711-.07032.39453-.01953.41797h4.21094v-.73828h-3.33203l.08203-.28516.11719-.23828.14453-.19922.1875-.1836.23047-.16796.28125-.17578.71484-.41797.41797-.20703.34375-.23047.28125-.25.21875-.26563.16406-.28125.11328-.28125.0625-.28515.01953-.28125-.04296-.38282-.1172-.34765-.1914-.3086-.25-.26562-.30078-.21094-.34766-.15625-.3789-.10156-.40625-.03125-.4375.03125-.39844.09765-.35156.16797-.30469.23438-.25.30469-.1836.375-.11718.4453-.03906.51954"/><path fill="#ffffe0" fill-rule="evenodd" d="M325.6836 476.75781h22.17968V466.5625H325.6836v10.19531"/><path fill-rule="evenodd" d="M329.17969 468.39844h.51172v6.29297h-.78907v-4.48829h-1.38671v-.55468l.55859-.0664.2539-.0547.23047-.08984.20313-.14063.17187-.21093.14063-.29297.10547-.39453m4.8164 0l.23047.01953.21875.05469.20703.08984.19532.1211.18359.14843.17188.17578.30078.41797.24609.4961.17969.54687.10937.57813.03906.58984-.03906.59375-.10937.58594-.17969.55078-.2461.5039-.30077.42579-.17188.17968-.1836.15625-.1953.1211-.20704.09375-.21875.05468-.23047.01954-.23046-.01954-.21875-.05468-.20704-.09375-.1953-.1211-.1875-.15625-.17188-.17969-.30079-.42578-.24218-.5039-.17969-.55078-.11328-.58594-.03516-.59375h.83203l.02735.5625.08203.50781.125.4414.16406.375.1914.30079.21094.22265.22266.13672.22656.04688.22657-.04688.22265-.13671.21094-.22266.1914-.30078.16016-.375.125-.4414.08203-.50782.03125-.5625-.03125-.5625-.08203-.5-.125-.4336-.16015-.36718-.19141-.29297-.21094-.21094-.22265-.13281-.22657-.04688-.22656.04688-.22265.13281-.21094.21094-.1914.29297-.16407.36719-.125.43359-.08203.5-.02735.5625h-.83203l.03516-.58985.11328-.57812.17969-.54688.24219-.49609.30078-.41797.17187-.17578.1875-.14844.19531-.12109.20704-.08984.21875-.0547.23046-.01952m5.08985 0h.51172v6.29297h-.78907v-4.48829h-1.38671v-.55468l.55859-.0664.2539-.0547.22657-.08984.20312-.14063.17578-.21093.14063-.29297.10547-.39453m2.82422 2.17578h.78515l.01953-.3164.0625-.28907.09766-.25.14063-.21484.17968-.17579.22266-.1289.26562-.08203.3086-.02735.23828.02344.22265.0625.20704.10156.17578.13672.15234.17578.10938.20313.07421.23828.02344.26172-.01953.26953-.0664.22656-.10938.1914-.15625.17188-.19922.16016-.25.16797-.63281.38672-.53906.3164-.4375.31641-.34375.32422-.26563.33594-.1914.35156-.125.36719-.06641.39453-.02344.41797h4.21485v-.73829h-3.33204l.08204-.28515.11328-.23828.14843-.19922.1875-.17969.23047-.17187.27735-.17579.71875-.41796.41406-.20704.34765-.23046.27735-.25.22265-.26563.16407-.28125.10937-.28125.0625-.28515.02344-.28125-.04297-.38282-.1211-.34765-.1875-.3086-.25-.26172-.30468-.21484-.34375-.15625-.38281-.10156-.40625-.03125-.4336.03125-.39843.09765-.35547.16797-.30469.23438-.2461.30469-.1875.375-.11718.4453-.03906.51954"/><path fill="#ffffe0" fill-rule="evenodd" d="M310.73047 375.9961h22.17969v-10.19141h-22.1797v10.1914"/><path fill-rule="evenodd" d="M314.23047 367.63672h.50781v6.29687h-.78515v-4.49218h-1.39063v-.5547l.5586-.0664.2539-.05078.23047-.08984.20312-.14453.17188-.20704.14453-.29687.10547-.39453m4.8125 0l.23047.01953.21875.05469.20703.08984.19531.1211.1836.14843.17187.17578.30469.42188.24219.49219.17968.54687.10938.57813.03906.59375-.03906.58984-.10938.58594-.17969.55469-.24218.5-.30469.42968-.17188.17969-.18359.15234-.19531.125-.20703.08985-.21875.0586-.23047.01952-.23047-.01953-.21875-.0586-.20703-.08984-.19531-.125-.1836-.15234-.17187-.17969-.30469-.42969-.24219-.5-.17969-.55468-.10937-.58594-.03906-.58984h.83203l.03125.5625.07812.5039.12891.44531.16016.3711.1914.30078.21094.22266.22266.13671.22656.04688.22656-.04688.22266-.13671.21094-.22266.1914-.30078.16016-.3711.1289-.4453.08204-.50391.02734-.5625-.02735-.5625-.08203-.5-.1289-.4375-.16016-.36329-.1914-.29296-.21094-.21485-.22266-.13281-.22656-.04297-.22656.04297-.22266.13281-.21094.21485-.1914.29296-.16016.36329-.1289.4375-.07813.5-.03125.5625h-.83203l.03906-.59375.10938-.57813.17968-.54687.24219-.4922.30469-.42187.17187-.17578.1836-.14844.1953-.12109.20704-.08984.21875-.05469.23047-.01953m5.08984 0h.51172v6.29687h-.78906v-4.49218h-1.38672v-.5547l.5586-.0664.2539-.05078.23047-.08984.20312-.14453.17188-.20704.14062-.29687.10547-.39453m6.80469 1.6211h-.78516l-.05078-.21485-.08203-.1836-.10937-.16015-.12891-.1289-.14844-.10548-.15625-.07421-.17187-.04297-.17188-.01563-.32812.03906-.28516.1211-.2461.19531-.20312.26953-.16015.33594-.1172.40625-.0703.46484-.02344.52735.1875-.20313.1875-.16015.1836-.1211.1875-.08984.1875-.0586.1914-.03906.40234-.02344.3086.03125.3203.09375.3125.15625.29688.21875.25391.28516.19922.34766.07422.20312.05078.21485.03125.23437.0039.2539-.78906.04688-.02734-.26172-.07422-.25-.125-.23437-.16016-.21094-.1914-.17578-.22266-.13672-.23828-.08984-.2539-.03125-.25782.03125-.23828.08984-.21875.13672-.19531.17578-.16016.21094-.1211.23437-.07812.25-.02734.26172.02734.25781.07813.25.1211.23438.16015.21094.19531.17578.21875.14062.23828.08594.25781.03125.25391-.03125.23828-.08594.22266-.14062.1914-.17578.16016-.21094.125-.23438.07422-.25.02734-.2578.78906-.04688-.03125.37109-.09375.3711-.15625.35937-.22265.32812-.28906.28125-.17188.1211-.1875.10156-.20703.08203-.22266.0625-.24218.03516-.25782.01562-.28515-.01562-.25781-.04688-.23829-.07812-.21484-.10547-.19531-.1289-.17578-.15626-.15235-.17969-.13672-.20312-.11718-.22266-.09766-.24218-.14844-.53516-.08594-.59375-.02343-.64063.03515-.74218.1172-.66406.18358-.57813.1211-.2539.13672-.23048.15234-.20703.17188-.18359.1875-.15625.20312-.1289.21485-.10157.23437-.07422.2461-.04297.26171-.01562.36719.03515.33203.09375.29688.15235.2539.19922.21094.24219.16797.27343.11328.30078.0625.32422"/><path fill="#ffffe0" fill-rule="evenodd" d="M190.89453 356.96094h22.17969v-10.1914h-22.17969v10.1914"/><path fill-rule="evenodd" d="M194.39453 348.60156h.50781v6.29297h-.78515v-4.48828h-1.39063v-.55469l.5625-.0664.25-.05079.23047-.08984.20313-.14453.17578-.20703.14062-.29688.10547-.39453m4.8125 0l.23047.01953.21875.0547.20703.08983.19531.1211.1875.14844.16797.17578.30469.42187.24219.49219.17969.54688.11328.57812.03515.58984-.03515.59375-.11328.58594-.1797.55469-.24218.5-.30469.42969-.16797.17968-.1875.15235-.1953.125-.20704.08984-.21875.0586-.23047.01953-.23047-.01954-.21875-.05859-.20703-.08984-.19531-.125-.1836-.15235-.17187-.17968-.30078-.4297-.2461-.5-.17968-.55468-.10938-.58594-.03906-.59375h.83203l.03125.56641.08203.5039.125.44141.16016.375.1914.30078.21094.22266.22266.13672.22656.04687.22656-.04687.22266-.13672.21094-.22266.1914-.30078.16016-.375.1289-.4414.08204-.50391.02734-.5664-.02734-.5586-.08203-.5-.12891-.4375-.16016-.36328-.1914-.29297-.21094-.21484-.22266-.13282-.22656-.04296-.22656.04296-.22266.13282-.21094.21484-.1914.29297-.16016.36328-.125.4375-.08203.5-.03125.5586h-.83203l.03906-.58985.10938-.57813.17969-.54687.24609-.49219.30078-.42187.17188-.17578.18359-.14844.19531-.1211.20703-.08984.21875-.05469.23047-.01953m5.09375 0h.50781v6.29297h-.78906v-4.48828h-1.38672v-.55469l.5586-.0664.2539-.05079.23047-.08984.20313-.14453.17187-.20703.14063-.29688.10937-.39453m6.80078 1.6211h-.78515l-.05078-.21485-.08204-.1836-.10937-.16015-.1289-.13281-.14454-.10156-.16016-.07422-.16796-.04297-.17578-.01563-.32813.03907-.28516.1211-.24609.1953-.20313.26954-.16015.33593-.11719.40625-.07031.46485-.02344.52734.1875-.20313.1875-.16015.1836-.1211.1875-.08984.1875-.0586.1914-.03906.40234-.02343.3086.03125.32031.09375.3164.15625.29298.21875.2539.28125.19922.35156.07422.20313.05078.21484.03125.23437.0039.25391-.78905.04688-.02344-.26172-.07813-.25-.125-.23438-.16015-.21094-.19141-.17578-.21875-.13672-.24219-.08984-.2539-.03125-.25782.03125-.23828.08984-.21875.13672-.19531.17578-.16016.21094-.12109.23438-.07813.25-.02734.26171.02734.25782.07813.25.1211.23437L208.25 354l.19531.17578.21875.13672.23828.08984.25782.03125.2539-.03125.24219-.08984.21875-.13672.1914-.17578.16016-.21094.125-.23437.07813-.25.02344-.25781.78906-.04688-.03125.3711-.09375.37109-.15625.35547-.22266.33203-.28906.28125-.17188.11719-.1875.10546-.20703.08204-.22265.0625-.2422.03515-.2578.01563-.28516-.01563-.25781-.04687-.23828-.07813-.21485-.10547-.19531-.1289-.17578-.15625-.15234-.1836-.13672-.19922-.1172-.22265-.09765-.24219-.14844-.53516-.08203-.59375-.02734-.64062.03906-.74219.11328-.66406.1875-.57813.1172-.2539.13671-.23047.15625-.20703.16797-.1836.1875-.15625.20312-.1289.21485-.10156.23437-.07422.2461-.04297.26172-.01563.36718.03516.33203.09375.29688.15234.2539.19922.21094.24219.16797.27344.11328.30078.0625.32422"/><path fill="#ffffe0" fill-rule="evenodd" d="M355.11328 326.42578h22.13281v-10.19531h-22.1328v10.19531"/><path fill-rule="evenodd" d="M358.61328 318.0664h.50781v6.29298h-.78515v-4.48829h-1.39063v-.55468l.5625-.06641.25-.05469.23047-.08984.20313-.14063.17578-.21093.14062-.29297.10547-.39453m4.8125 0l.23047.01953.21875.05469.20703.08984.19922.1211.1836.14843.17187.17578.30078.41797.24219.4961.17969.54687.11328.57812.03515.58985-.03515.59375-.11329.58203-.17968.55469-.24219.5039-.30078.42578-.17188.1797-.18359.15624-.19922.1211-.20703.09375-.21875.05468-.23047.01953-.22656-.01953-.21875-.05469-.21094-.09375-.19531-.12109-.1836-.15625-.17187-.17969-.30078-.42578-.2461-.5039-.17968-.5547-.10938-.58202-.03906-.59375h.83203l.03125.5625.08203.50781.125.4414.16406.375.1875.30079.21094.22265.22266.13672.22656.04688.22656-.04688.22266-.13672.21094-.22265.1914-.30078.16407-.375.125-.44141.08203-.50781.02734-.5625-.02734-.5625-.08203-.5-.125-.4336-.16407-.36718-.1914-.29297-.21094-.21094-.22266-.13281-.22656-.04688-.22656.04688-.22266.13281-.21094.21094-.1875.29297-.16406.36718-.125.4336-.08203.5-.03125.5625h-.83203l.03906-.58985.10938-.57812.17969-.54688.24609-.49609.30078-.41797.17188-.17578.18359-.14844.19531-.1211.21094-.08983.21875-.0547.22656-.01952m2.96485 2.17578h.78515l.01953-.3164.0586-.28907.10156-.25.14062-.21485.1797-.17578.22265-.1289.26562-.08203.3086-.02735.23828.02344.22265.0625.20313.10156.17969.13672.14843.17578.11329.20313.0703.23828.02735.26172-.02344.26953-.0625.22656-.11328.1914-.15234.17188-.20313.16016-.24609.16797-.63281.38672-.53906.3125-.4375.3203-.34766.32423-.26172.33594-.1914.34765-.125.3711-.07032.39453-.01953.41796h4.21094v-.73828h-3.33203l.08203-.28515.11719-.23828.14843-.19922.1836-.1836.23437-.16796.27735-.17579.71484-.41796.41797-.20704.34375-.23046.28125-.25.21875-.26563.16406-.28125.11328-.28125.0625-.28516.01953-.28125-.04297-.3828-.11718-.34767-.19141-.30859-.25-.26562-.30078-.21094-.34766-.15625-.3789-.10156-.40625-.03125-.4375.03125-.39454.09765-.35546.16797-.3047.23438-.25.30468-.18358.375-.1172.44532-.03906.51953m6.94141-2.17578l.23047.01953.21875.05469.20703.08984.19531.1211.1836.14843.17187.17578.30469.41797.24219.4961.17969.54687.10937.57812.03906.58985-.03906.59375-.10938.58203-.17968.55469-.24219.5039-.30469.42578-.17187.1797-.1836.15624-.1953.1211-.20704.09375-.21875.05468-.23047.01953-.23047-.01953-.21875-.05469-.20703-.09375-.19531-.12109-.1836-.15625-.17187-.17969-.30469-.42578-.24219-.5039-.17968-.5547-.10938-.58202-.03906-.59375h.83203l.02735.5625.08203.50781.1289.4414.16016.375.1914.30079.21094.22265.22266.13672.22656.04688.22656-.04688.22266-.13672.21094-.22265.1914-.30078.16016-.375.1289-.44141.07813-.50781.03125-.5625-.03125-.5625-.07812-.5-.12891-.4336-.16016-.36718-.1914-.29297-.21094-.21094-.22266-.13281-.22656-.04688-.22656.04688-.22266.13281-.21094.21094-.1914.29297-.16016.36718-.1289.4336-.08204.5-.02734.5625H371.25l.03906-.58985.10938-.57812.17969-.54688.24218-.49609.30469-.41797.17188-.17578.18359-.14844.19531-.1211.20703-.08983.21875-.0547.23047-.01952"/></g></defs><use xlink:href="#aB"/></svg>