<svg xmlns="http://www.w3.org/2000/svg" role="img" xmlns:xlink="http://www.w3.org/1999/xlink" viewBox="142.45 309.95 326.84 171.84"><defs><clipPath id="a"><path d="M144 311.67188h1v168.65625h-1zm0 0"/></clipPath><clipPath id="b"><path d="M144 311.67188h324v168.65625H144zm0 0"/></clipPath><clipPath id="c"><path d="M467 311.67188h1v168.65625h-1zm0 0"/></clipPath><clipPath id="d"><path d="M144 479h4v1.32813h-4zm0 0"/></clipPath><clipPath id="e"><path d="M147 479h3v1.32813h-3zm0 0"/></clipPath><clipPath id="f"><path d="M146 479h3v1.32813h-3zm0 0"/></clipPath><clipPath id="g"><path d="M153 479h8v1.32813h-8zm0 0"/></clipPath><clipPath id="h"><path d="M160 479h3v1.32813h-3zm0 0"/></clipPath><clipPath id="i"><path d="M159 479h3v1.32813h-3zm0 0"/></clipPath><clipPath id="j"><path d="M166 479h9v1.32813h-9zm0 0"/></clipPath><clipPath id="k"><path d="M173 479h3v1.32813h-3zm0 0"/></clipPath><clipPath id="l"><path d="M172 479h3v1.32813h-3zm0 0"/></clipPath><clipPath id="m"><path d="M180 479h8v1.32813h-8zm0 0"/></clipPath><clipPath id="n"><path d="M187 479h3v1.32813h-3zm0 0"/></clipPath><clipPath id="o"><path d="M186 479h2v1.32813h-2zm0 0"/></clipPath><clipPath id="p"><path d="M193 478h8v2.32813h-8zm0 0"/></clipPath><clipPath id="q"><path d="M200 478h3v2.32813h-3zm0 0"/></clipPath><clipPath id="r"><path d="M199 479h2v1.32813h-2zm0 0"/></clipPath><clipPath id="s"><path d="M207 478h8v2.32813h-8zm0 0"/></clipPath><clipPath id="t"><path d="M213 478h3v2.32813h-3zm0 0"/></clipPath><clipPath id="u"><path d="M212 479h3v1.32813h-3zm0 0"/></clipPath><clipPath id="v"><path d="M220 478h8v2.32813h-8zm0 0"/></clipPath><clipPath id="w"><path d="M226 478h4v2.32813h-4zm0 0"/></clipPath><clipPath id="x"><path d="M225 479h3v1.32813h-3zm0 0"/></clipPath><clipPath id="y"><path d="M233 478h8v2.32813h-8zm0 0"/></clipPath><clipPath id="z"><path d="M240 478h3v2.32813h-3zm0 0"/></clipPath><clipPath id="A"><path d="M239 479h2v1.32813h-2zm0 0"/></clipPath><clipPath id="B"><path d="M247 478h7v2.32813h-7zm0 0"/></clipPath><clipPath id="C"><path d="M253 478h3v2.32813h-3zm0 0"/></clipPath><clipPath id="D"><path d="M260 478h8v2.32813h-8zm0 0"/></clipPath><clipPath id="E"><path d="M266 478h4v2.32813h-4zm0 0"/></clipPath><clipPath id="F"><path d="M273 478h8v2.32813h-8zm0 0"/></clipPath><clipPath id="G"><path d="M279 478h2v2.32813h-2zm0 0"/></clipPath><clipPath id="H"><path d="M288 477h5v3.32813h-5zm0 0"/></clipPath><clipPath id="I"><path d="M301 477h6v3.32813h-6zm0 0"/></clipPath><clipPath id="J"><path d="M314 477h6v3.32813h-6zm0 0"/></clipPath><clipPath id="K"><path d="M327 477h7v3.32813h-7zm0 0"/></clipPath><clipPath id="L"><path d="M340 477h7v3.32813h-7zm0 0"/></clipPath><clipPath id="M"><path d="M354 477h6v3.32813h-6zm0 0"/></clipPath><clipPath id="N"><path d="M366 479h8v1.32813h-8zm0 0"/></clipPath><clipPath id="O"><path d="M372 479h2v1.32813h-2zm0 0"/></clipPath><clipPath id="P"><path d="M380 478h8v2.32813h-8zm0 0"/></clipPath><clipPath id="Q"><path d="M395 479h4v1.32813h-4zm0 0"/></clipPath><clipPath id="R"><path d="M409 476h2v4.32813h-2zm0 0"/></clipPath><clipPath id="S"><path d="M419 479h9v1.32813h-9zm0 0"/></clipPath><clipPath id="T"><path d="M426 479h3v1.32813h-3zm0 0"/></clipPath><clipPath id="U"><path d="M434 477h6v3.32813h-6zm0 0"/></clipPath><clipPath id="V"><path d="M447 478h7v2.32813h-7zm0 0"/></clipPath><clipPath id="W"><path d="M460 478h8v2.32813h-8zm0 0"/></clipPath><clipPath id="X"><path d="M466 478h2v2.32813h-2zm0 0"/></clipPath><clipPath id="Y"><path d="M144 466h4v2h-4zm0 0"/></clipPath><clipPath id="Z"><path d="M144 452h4v3h-4zm0 0"/></clipPath><clipPath id="aa"><path d="M466 451h2v3h-2zm0 0"/></clipPath><clipPath id="ab"><path d="M144 439h4v3h-4zm0 0"/></clipPath><clipPath id="ac"><path d="M466 438h2v3h-2zm0 0"/></clipPath><clipPath id="ad"><path d="M144 426h4v2h-4zm0 0"/></clipPath><clipPath id="ae"><path d="M144 412h4v3h-4zm0 0"/></clipPath><clipPath id="af"><path d="M465 410h3v2h-3zm0 0"/></clipPath><clipPath id="ag"><path d="M144 399h4v3h-4zm0 0"/></clipPath><clipPath id="ah"><path d="M466 398h2v2h-2zm0 0"/></clipPath><clipPath id="ai"><path d="M144 384h3v6h-3zm0 0"/></clipPath><clipPath id="aj"><path d="M466 386h2v3h-2zm0 0"/></clipPath><clipPath id="ak"><path d="M144 370h3v7h-3zm0 0"/></clipPath><clipPath id="al"><path d="M144 356h2v9h-2zm0 0"/></clipPath><clipPath id="am"><path d="M144 363h2v3h-2zm0 0"/></clipPath><clipPath id="an"><path d="M144 362h2v3h-2zm0 0"/></clipPath><clipPath id="ao"><path d="M144 343h1v8h-1zm0 0"/></clipPath><clipPath id="ap"><path d="M144 350h1v3h-1zm0 0"/></clipPath><clipPath id="aq"><path d="M144 349h1v3h-1zm0 0"/></clipPath><clipPath id="ar"><path d="M466 346h2v3h-2zm0 0"/></clipPath><clipPath id="as"><path d="M144 330h1v8h-1zm0 0"/></clipPath><clipPath id="at"><path d="M144 337h1v2h-1zm0 0"/></clipPath><clipPath id="au"><path d="M144 336h1v2h-1zm0 0"/></clipPath><clipPath id="av"><path d="M466 332h2v3h-2zm0 0"/></clipPath><clipPath id="aw"><path d="M144 317h2v8h-2zm0 0"/></clipPath><clipPath id="ax"><path d="M144 323h2v3h-2zm0 0"/></clipPath><clipPath id="ay"><path d="M144 322h2v3h-2zm0 0"/></clipPath><clipPath id="az"><path d="M466 318h2v3h-2zm0 0"/></clipPath><clipPath id="aA"><path d="M465 318h3v3h-3zm0 0"/></clipPath><clipPath id="aB"><path d="M433 470h9v10.32813h-9zm0 0"/></clipPath><g id="aC" clip-path="url(#clip1)"><path fill="#fff" fill-opacity="0" fill-rule="evenodd" d="M0 0h1000v1000H0zm0 0"/><path fill="#d3d3d3" fill-opacity="0" fill-rule="evenodd" d="M162.15234 355.86719l-.23437.29297.0586.23437.11718.17188.17578.23437.29297.34766.11328.0586.11719-.17188.0586-.23438.17577-.17578.46485-.17578h.69922l.23437.29297.28906.8164.0586.17579.17578.23046.35156.23438.69922.69922.17188.17578.23437.34765.23438.41016.28906.58203.41015.46485.23047.23437.23438.17578.11719.23047.17578.29297.17187 1.16406v.23438l.0586.28906.05859.11719.11719.11719.34765.41015.11719.17188.17578.17578.17578.23437.11719.17188.17188.35156.05859.23438.23437.40625.23438-.0586-.17578.17578-.0586.92969h-.58203l-.23437-.11328-.34766.11328-.11719.11719-.05859.29297-.0586.17578-.11718.17187-.46484.29297-.0586.23438-.0586.11328v.64453l.0586.17187v.41016l.0586.0586v.40624l.05859.40625.11719.17579.05859.05859.23047.64062-.0586.29297v.69922l-.05859.58203v.23438l-.0586.23047-.05468.35156v1.92187l.05469.1172h.42578l-.36719.11718-.02344.35156.89063 1.16797 1.74219.53906 1.33984.35938v.53906l.08984.8086.53516.71484 1.51953.26953.89063-.08594.08984 1.16406.53516.1797 1.16015-.1797 2.05469-.98437 1.16016-.36328 1.8789-.17578 1.69531-.1797-.17968.71876-1.51563.08594-1.25.08984-.80469.26953-1.07421.8086.26953.71875.53515.89843-.17968.625-.26563.8086.26563 1.07812.625.89844.80468.17969 1.25-.1797-.26562.72267.09766.5039.05468.29297v.17188l.0586.29296v.40625l.17578.1172.35156.11718h.40625l.29297-.17578.11328-.11719.0586-.11719.11718-.23047.0586-.17578.35156-.46484.23047-.17578.17578-.0586.17578.0586.0586.17578.11718.98828.05469.46875.0586.17188.11718.23437.17578.0586.8164.05859h.28907l.11719.23437.05859.40625.0586.35156v1.10547l.11718.29297.11719.34766.28906.69922.17578.35156.58203.7539.35157.17579.17187.0586.46875.23437.64063.46484.34765.23438.29297.17578.29297.05468.23047.0625.8164.34766.29297.17578.11328.17188.35157.35156.11719.17578.52343.64063v.28906l.0586.35156v.34766l.05859.35156.0586.28906.11718.0586.17188.05859h.17578l.58203.23437.17578.1172.17578.28905.17578.23438.11328.23437.29297.23047.11719.11719v.41016l.0586.05468.28906.23438.23437.11719.0586.11718.11718.17188.0586.11719.23047.23437.05859.17578.23437.0586.1172.05859-.1172.11328-.05859.11719v.11719l-.11719.29296-.11719.28907v.58203l.17579.11719.11718.05859.0586.11719.11719.11719.11328.05859.17578.34765.0586.35157.05858.40625v.17578l-.05859.17578-.11719.69922v.17187l.1172.17579.29296.29296h.40625l.17578.1172.11719.17187.11719.29296v.23438h-.52735l-.23047-.23438h-.23437l-.17578.0586-.0586.69922.0586.34765.11719.17579.17578.41015.11718.23047.28907.46875.17578.05469h.52344l.23437.0586.75781.64062.0586.29296v.23438l.05859.0586.23047.34765v.35156l-.11719.17188v.29297l.29297.28906.29297.17578.17187.0586.29297.17577.29297.1172.58203.40624.28906.23438.29297.17578.21875.16015.01563.01172.23047.17579.64062.52343.17578.23438.1172.17578.17577.17578.11328.17188v.64062l.1172.17578.46874.11719.58203.11719.23438.05859.23047.11328.29297.11719.11328.0586.58593.35156.28907.17187.17578.0625.17578.05469.17578.0586.69922.35155.28906.17579.23438.05468.28906.17578.23437.1172.64063.40624.29297.11719.17187.0586.23438.05859.41015.05859.23047.0586.23438.11718.0586.17188-.41017.17578.46875.0586.0586.29296.11328.23438.17578.05468.23438.0586.17578.05859.40625.11719.64062.23437.11719.17188.0586.23437v.17578l-.0586.1172-.0586.40624.23438.23438.11719.05859.34766.11719.64062.23047.17578.11718.28906.1172.17578.17577.23438.46485.58203 1.10546.17578.17579.34766.17578.17578.11719.35156.11718 1.04688.52344.23437.0586.46485.11327.29297.0586.46484.17578.75781.58203.23438.23438.34765.46484.17578.17578.28907.23438.8164.69921.29297.17579.28906.28906.29297.17578.29297.28906.69531.64063.17578.17578.29297.23437.28907.23438.46875.28906.64062.58203.34766.23438.23437.29297.34766.34765.35156.46485.9336.99218.34765.40625.11719.17579.23437.05859.11328.11719.64454.17578.23047.11328.23437.0586.29297.17577.23047.1172.9336.69921.40624.40625.23438.17578.40625.17578.23437.11719.8164.34766.34766.23437.23438.11719.29297.28906.23047.11719.7578.35156.35157.17188.23047.05859.29297.11719.23437.0586.8711.17577h.8164l.46875.23047.17188.0586.875.69921.46484.1172.29297.05858.17578.0586.23047.0586.46875.05859.34766.05859.35156.0586.40625.05859h.29297l.17187.0586v.23046l.17578.17578h.29297l.34766.0586.35156.05859.69922.11719h.64063l.46484-.23438.29297-.17578.17187-.11719.41016-.17187.28906-.17578.9336-.46485.46875-.29297.52343-.29296.46485-.17188.46484-.17578 1.05078-.46485.28906-.11718.41016-.11719.28906-.11719.52735-.17578 1.51562-.69922.58203-.34765.28907-.0586.29297-.0586.34765-.11718.875-.23047.35156-.11719h.11329l.23437-.05859.875-.23437.23438-.0586h.8125l.35156-.0586.8164-.11718.17188-.0586.35156-.05468.29297-.0586.23047-.05859.8164-.17578.17579-.0586h.34765l.23438-.05859.46484-.11718.75781-.17188.23438-.0586h.34765l.41016-.11718.28906-.0586 1.28516-.05859h.28906l.41016-.0586.23047-.05858h.17578l.875-.1172h.40625l.41015-.11718h.34766l.35156-.11328.8711-.0586h1.75l1.04687.28907.41016.11719.28906.11718.35156.11719.28907.11719 1.05078.17187.28906.0586h.29297l.29297.05859.17187.0586.41016.05859.17187.0586.1172.05858h.11718l.11719.0586.35156.0586h.11328l.41016.0664 1.92187.39453 1.92578.39453 1.51953.44922 1.69532.71875 2.14453.80469 1.60547-.71875 1.42968-.80469 1.16016-1.07813 1.25-.44921 3.03516-.71875 1.875-.35938 2.14453-1.34765 2.23437-1.25391 2.5-1.25781 1.69531-.44922 1.78516-.17969 1.16016-.26953.625.53906 1.33984-.26953.71485-.98828.98437-1.34375.44531-.17969.80469-.35937 1.875-.53907 1.78516-.44921 1.25-.26954 1.16015-.08984 1.69922-.08984 1.96094-.26954 1.25-.08984h.53906l.625-.08984h.89063l2.14453-.17969 2.41015-.17969 2.58985-.08984 1.69531.17969 1.60938.08984 1.42968.35938 1.16016.71875 1.875.98828 1.16015 1.52734.26563.71484.6289.08985.35548.89844.53515.53906.53516 1.52734 1.07422.35938h.53515l-.80469.53515.08985 1.70703.71484 2.69532.89063.80468.89453.98829.71484 1.2578 1.78516.53907 1.51953-.17969.35547 1.34375 1.60937-.80469.98047-.53906.26953.26953.31641-.21484.21875-.14453.80078.44922.44922-.35938h.35547l.53515-.26953.53907-.71875.53515-.26953.625-.98828 1.16016.44922.83984.3711 1.39454.61718 1.6953-.17969h1.60548l1.78515.08985.17969-1.70704.53516-1.34375.80468.26954.4922.84765.40233.40625-.08984.53906v.35938l.71485.44922.71093-.26953h1.42969l.35938.98828.4453 1.25781.71485 1.34375 1.25.6289 1.69531.62891.71485-.17969.17969-.53906.98046-.08984.44922.35937.08594 1.25782-.26563.6289-.53515.17969v.53906l.71484.98438.26563.53906.98437.98828.80078 1.07813-.26562.35937-.08985.89844-.625 2.33203-.35546 2.0664-.08985 1.79298-.17969.71875-.08984.53906v1.4375l-.98047 1.88281-.35937 1.70703-.53516.89844-.80469 1.16797-.26562.53906 2.05469 1.2539.08593.35938-.35546.53906-.08985-.17968v.80859l.08985 1.4375-.44532.71484-1.07422.09375-.26562.71485.53515.89844.8047.71875 1.16015.80859 1.33984.26953.44531.35938-.35546.44921-1.78907-.08984-1.25-.44922-.71484-.71875-.625-.08984-.17578 3.58984-.1875 1.3086h89.35937V311.70313h-55.26953v49.08203l.76172.125 3.28906.54296 2.02344 2.83594v2.7539l2.35156.33204 2.34766.33203h4.05078l-1.3789 4.16016-2.02344.70703-2.02344.70312-.54297.34375-2.59375 1.6172-.1875.11718-2.02344-2.07813-.73046-2.74218-2.67188-2.07813-1.375-3.5-.0664-.08203-1.95704-2.67188 2.75-1.41796v-49.08204H294.42187v91.41407l.1172.03125.1328.01172.07422.07421.10547.04688.08985.0586.08593.05859.08985.0586.29687.29687.0586.08984.03125.11719.02734.11719.01563.13671-.03125.1172-.0586.08983-.0586.08594-.04296.10547-.04688.10156-.02734.1211v.14453l.17578.26953.14844.14844.07422.08594.07422.07421.04296.10547.0625.08985.0586.08593.04297.10547.0586.08985.04687.10156.04296.10547.0586.08594.11719.17968.07421.07422.0625.08594.0586.08984.04297.10547.0586.08985.05858.08593.0625.08985.0586.08984.04297.10156.11719.17969.07421.07422.0586.08594.07422.07421.08984.0586.10547.04687h.14844l.1328-.01562.13282.01562.10156-.04687.07422-.07422.04688-.10156-.01563-.13281v-.14844l-.04687-.10547-.02735-.11719-.04687-.10156-.02735-.1211-.04296-.10156-.0625-.08984-.04297-.10156-.04297-.10547-.03125-.11719-.01563-.13281-.01171-.13672.08593-.0586.0586-.08593.12109-.03125.04297.10547.01562.1328v.1172l.0586.10156.0586.08984.08983.0586.14844.14843.0586.08985.04296.10547-.01171.10156.08593.0586.10547.04687.08594.0586.08984.05858.07422.07422-.11719.02735-.10546.04687-.08594.0586-.07422.07421-.0586.08985-.0625.08594-.02734.12109-.04687.10156-.04297.10547-.03125.11719-.01172.13281-.01563.13281v.14844l.02735.11719.04687.10547.04297.10156.0586.08984.07421.07422.08985.0586.07422.07421.08984.0586.0586.08984.04296.10547.04688.10156.11719.03125.1328.01563h.14845l.11718-.03125.10547.04297.04297.10547.04688.10156.02734.1211L299.5 410l.02734.11719.03125.1211.02735.11718.10547.04297.10156.04687.13281-.01562.14844.14844.0625.08593.07422.07422.07031.07422.08984.0625.10547.04297.10156.04297.1172.03125.13671.01562.11719-.03125.07422-.07422.02734-.11718-.01172-.13282-.03125-.12109-.02734-.11719.04297-.10547h.11719l.08984.0625.11719.02735h.14843l.13282.01562h.14843l.13282.01563.1328-.01563h.14845l.1328-.01562.13282-.01172.13672.01172.11719-.02735.13281-.01562.1914-.0586-.05859.17579-.01562.1328-.02735.1211-.01562.13281-.0586.08594-.1328.01563-.10548.04687-.10546.04297-.1172.03125-.11718.02735-.26563.03125h-.14843l-.13281.01562-.07422.07422.05859.08594.14844.14843.11719.1797.07421.0703.08985.0625.08984.0586.08594.0586.08984.05858.10156.04297.10547.0625.10547.04297.08594.0586.10547.04687.10156.04297.17969.11719.0586.08984-.04298.10156-.04687.10547.01562.13281.22266.22266.0586.08985.04296.10156.03125.1211.04297.10155.01563.13282.03125.11718.01171.13672.03125.11719.14844.14844.10156.04297.10547.04296.1172.03125.1328.01563.13672.01563h.11719l.11719-.03125.08984-.0586.04297-.10547.04688-.10156.04296-.10547.03125-.11719.01172-.1328v-.14845l-.01172-.1328-.01562-.13282-.03125-.11719-.04297-.10547-.04688-.10547-.04296-.10156-.04297-.10547-.01563-.13281.01563-.13281.02734-.11719.03125-.11719.02735-.1211.04687-.10155.08984-.0586.08594-.0625.07422-.07422.08984-.05859.22266-.22266.0586-.08593.07421-.07422.11719-.17969.0586-.08594v-.14844l-.07423-.07421-.10156-.04688-.10547-.04297-.10156-.04297-.0586-.08984-.04687-.10547-.02734-.11719.08984-.05859.11719-.03125.10156-.04297.17969-.11719.14844-.14843.01172-.13282-.01172-.10546-.08985-.0586-.1328.01563h-.14845l-.1328.01562-.13282-.01562-.1211-.03125-.08593-.0586-.07422-.07422-.0586-.08984-.0625-.08594-.11718-.17969-.0586-.08593.03125-.1211.08594-.05859.1211-.03125.05859-.08594v-.1211l-.03125-.11718-.0586-.08984-.05859-.08594-.04687-.10547-.02735-.11719-.01562-.1328.0586-.08985.07421-.07422.08984-.0586.1172-.17968.07421-.07422.0586-.08594.14843-.14844.1211-.03125.1328-.01562.13282.01562.07422.07422.04297.10547.01562.13281-.03125.1172-.11719.03124-.1328.01172-.14844.14844-.04297.10547-.04688.10156-.02734.1211-.03125.11718v.14844l.03125.11719.04297.10546.05859.08985.07422.07031.07422.07422.11719.03125.12109.02734.11719-.02734.1328-.01563h.1172l.08984.0586.07422.07422.04687.10546.0586.08594.10156.04688.13281.01562.10547.04297.08594.0586-.01172.10546-.07422.07422-.17969.11719-.05859.08984-.08984.0586-.07032.07422-.07421.07421-.0625.08985-.02735.11719-.01562.1328.01562.13282-.01562.13281v.14844l.01562.13281.02735.1172.03125.12108.07421.07422.08985.0586.08594.0586.08984.05858.11719.03125v.08594l-.10157.04688-.08984.0586-.26563.03124-.11718.02735h-.14844l-.10547.04296-.10156.04688-.0586.08984-.0625.23438-.01171.13281-.03125.1211-.01563.1328v.29298l-.01172.1328.01172.13673.01563.1328.1328.01563.13282.01172.1211.03125.08593.0586.07422.07421.04688.10547.04296.10157.01563.1328v.44532l-.01563.13281v.44532l.03125.26562.02735.11719.01562.13281.03125.11719.08594.21094.03125.26562v.14844l-.03125.11719-.02734.11718-.03125.1211-.02735.11719-.03125.11718-.03125.1211-.01171.1328-.01563.13282.08984.0586.1172-.03125.10155.01562.04688.10547-.03125.26562v.44141l-.04297.10547-.04688.10547-.04296.10156-.04297.10547-.0586.08594-.03125.12109-.04296.11719-.03125.11719-.01563.1328.01563.13282.05859.08984.10547.04688.08594.0586.05859.08593-.01172.13672-.03125.11719-.04297.10156v.44531l-.01562.13281v.14844l-.03125.11719-.04297.10547-.02735.11719-.04687.10546-.04297.10157-.03125.12109-.02734.11719-.03125.13281-.03125.11719-.02735.11719-.04297.10546-.03125.1172-.03125.12108-.01171.13282-.01563.13281v.29688l.02734.11718v.14844l.04688.39844.02734.11719.0586.08984.12109.03125h.14844l.13281-.01563.0586.08985v.11719l-.0586.08984-.08984.0586-.10157.04296-.10546.04688-.08985.05859-.08594.0586-.13671.01562-.1172-.03125-.1328-.01563-.10157.04688-.0625.08594-.01172.13671-.01562.13282-.03125.11719-.02735.11718-.01562.13281-.03125.1211v.29687l.01563.13282.03125.11718v.14844l.01171.13281v.14844l-.02734.11719-.04688.10156-.02734.1211-.03125.11718-.0586.08985-.07421.07421-.10156.04297-.10547.04688-.11719.02734-.1211.03125-.10156-.04687.0586-.08594.10547-.04688.02734-.11718.03125-.11719.02734-.1211.03125-.11718v-.14844l.01563-.13281-.03125-.11719-.04297-.10547-.10547.01563-.07422.07422-.10156.04296-.08984.0625-.07422.07422-.04297.10157-.01563.1328-.03125.1172L304.25 426l-.03125.11719-.02734.11719-.03125.12109-.02735.11719-.03125.11718-.04297.10547-.08984.0586h-.08984l-.1172-.03125-.03124-.08594.01562-.13672-.03125-.11719v-.14844l-.01171-.1328v-.14844l-.0625-.23438-.02735-.1211-.04297-.10156-.04687-.10546-.0586-.08594-.05859-.08985-.04297-.10546-.0625-.08594-.14844-.14844-.0703-.07422-.10548-.04687-.10547-.04297-.10156-.04297-.29687-.29688-.08985-.07421-.08594-.0586-.10546-.04297-.08985-.0625-.08594-.0586-.10546-.04296-.08985-.0586-.08594-.0625-.07421-.0703-.10547-.04688-.08594-.0586-.10547-.04296-.08984-.0625-.10156-.04297-.10547-.04297-.08594-.0586-.10547-.04687-.10547-.04297-.10156-.04687-.08985-.0586-.10156-.04297-.10547-.04296-.08984-.0625-.11719-.02735-.13281-.01562-.13281.01562H299.75l-.13281.01563-.11719-.03125-.08984-.0586-.07422-.07422-.08985-.05859-.10156-.04688h-.14844l-.12109-.02734-.10156-.04297-.07422-.07422-.11719-.17968-.08984-.0586-.10156-.04297-.08985-.0625-.10547-.04296-.08984-.0586-.08594-.0586-.10547-.04687-.0586-.08594-.05858-.08984-.04297-.10547-.04688-.10156-.07422-.07422-.08594-.0586-.07421-.07421-.08985-.0586-.22265-.22265-.04297-.10547-.03125-.26563.10547-.04296h.14453l.10547.04296.07421.07422.08985.0586.08594.0586.10546.04687.08985.05859.14844.14844.0703.07422.14845.14843.0625.08594.07421.07422.08594.0586.07422.07421.08985.0625.08984.0586.08594.05859.26953.17578.10156.04688.10547.04296.10156.04297.04688-.07421.05859-.08594.07422-.07422.07031-.07422.10547.04297.07422.07422.0586.08984.04296.10156.04688.10547.04296.10547.1211.02735.11719-.02735.07421-.08984.04297-.10547.0586-.08985.07422-.07421.10546-.04297.1172-.02735.1328.01172.08985.0586.14844.14843.05859.08985.04297.10547.04687.10156.04297.10547.04297.10156.10547.04688.10547.04296.13281.01563.08594-.0586.0586-.08984.07421-.07422.10547-.04297.11719.02735.10547.04687.10156.04297.10547.04297.10156.04688.17969.11718v.11719l-.01563.13281.01563.13281.01562.13672.0586.08594.10156.04688.1211.02734.11718.03125h.14844l.11719-.03125.05859-.08984.17969-.1172.05859-.08983.07422-.07422.0586-.08594.11718-.17969.17969-.11719.11719.03125.08984.0586.04297.07422-.01563.1328v.1172l.08985.05859h.14843l.13282-.01563.1328-.01171.26563-.03125.10547-.04297.11719-.03125.1211-.02735.07421-.07421.07031-.07422.0625-.08985-.01562-.10547-.04688-.10156-.10156-.04297-.10547-.01562-.11718.02734-.26563.03125h-.14844l-.07421-.07422-.08985-.0586-.11719-.03124-.11718-.02735-.13282-.01562h-.14843l-.13282.01563h-.29687l-.10547-.04688-.14844-.14844-.04297-.10156-.05859-.08984.22266-.22266.08593-.0586.10547-.04296.11719-.03125.13281-.01563.13281.01563.13672.01562.10157.04297.1328-.01172.08985-.0625.10156-.04297.0625-.08984-.04687-.10156-.08984-.0586-.1172-.03125-.10155-.04296-.0586-.08985-.0625-.08984v-.11719l.01563-.13281.10547-.04688.07421-.07031v-.1211l-.08984-.05859-.03125-.11719.08985-.05859.07421-.07422.04297-.10547.0586-.08984.04687-.10156.01563-.13281v-.14844l-.04688-.10547-.04297-.10156-.08984-.0586-.13281-.01562-.10157-.04297-.13671-.01563-.1172-.03125h-.4453l-.13282-.01562-.13281-.01172-.13281-.01563-.11719-.03125h-.14844l-.13281-.01562-.13281-.01172-.26563-.03125-.1211-.04297-.08593-.0586-.07422-.07421v-.14844l.01172-.13281.10547-.04688.10156-.04296.13281-.01563h.15235l.13281-.01562h.29297l.1211.03125.10156.04296.08984.0586.23438.0625.12109-.04688.08984-.05859.10156-.04297.13282-.01562.10547.04296.10156.04688.13281.01172.1211-.02735h.14453l.12109-.03125.11719-.02734.10547-.04687.07421-.07422.08594-.0586.14844-.14843.0586-.08594.04687-.10547.02734-.11719.01563-.10547-.10156-.04296-.08985-.0586-.11719-.03125-.10546-.04297-.08985-.0625-.07422-.08594-.07422-.07421-.10156-.04297-.10547-.04688-.10156-.04297-.0586-.08984-.04687-.10156-.08594-.21094-.0625-.08594-.05859-.08984-.07422-.07422-.08594-.0586h-.26953l-.11719.03126-.08984.05859-.10156.04297-.13281.01562-.10547-.01562-.02735-.11719-.0625-.08984-.11718-.03125-.10157-.04297-.14843-.14844-.03125-.11719-.01563-.10546.07422-.07422.17969-.1172.11719-.02733.11718-.03125.13672.01562.10156.04297.10547.04297.10156.04687.10547.04297.1172.03125.1328.01563.1172.02734.1328.01563.10547-.01563.08985-.0586-.07422-.07421-.10547-.04297-.07422-.07422-.07422-.08984-.14844-.14844-.08593-.0586-.08985-.05859-.07422-.07422-.08984-.0586-.10156-.04687-.1211-.02734-.10156-.04688-.10547-.04296-.11719-.03125-.10156-.04297-.1211-.03125h-.14843l-.11719.03125-.10546.04297-.08594.0625-.17969.11718-.08594.0586-.08984.0586-.10547.04687-.08594.05859-.10547.04297-.10156.04297-.10547.04687-.07422.07422-.05859.08985-.0586.08593-.04687.10547-.0586.08594-.07421.07422-.13281-.01172-.1172-.03125h-.11718l-.07422.07422-.08984.0586-.07422.07421-.08984.0586-.08594.05859-.10547.04687-.10156.04297-.13672.01563-.10156-.04297-.14844-.14844-.10547-.04688h-.08594l-.10547.04688-.10156.04297-.1211.03125-.11718-.03125-.07422-.07422v-.11719l.03125-.1211.07422-.0703.0586-.08985.07421-.07422.11719-.03125.10547-.04296h.29297l.13281-.01563.13672-.01563.10156-.04296.08985-.0586.10156-.04687.08984-.0586.13281-.01171.08985.05859.13281.01172.08984-.0586.08594-.05859.10547-.04297.08984-.0586.08594-.0625.08985-.05859.14843-.14843.0586-.08594.05859-.08985.10547-.04296.13281-.01563.11719.02735.1211.03125.05859-.0586.05859-.08984.03125-.26563.02734-.11719.10547.01172.13281.01563.10157-.04297.08984-.0586.0586-.08984.07421-.07422.0586-.08984.04687-.10156.01172-.13281-.01172-.13282-.04687-.10547-.14844-.14843-.0586-.08985-.05859-.08594-.04297-.10546v-.44532l.01563-.1328v-.14845l.01172-.1328-.0586-.0586-.08984.0586-.10156-.04298-.17969-.11719-.08594-.05859-.0625-.08984-.0586-.08985-.07421-.07421-.08594-.0586-.1211.03125-.10155.01172-.10547.04688-.08594.05859-.10547.04297-.14844.14844-.08984.05859-.08594.0586-.08984.0625-.10547.04296-.13281.01563v-.1211l.10547-.04297.11718-.03125.07422-.0703.04297-.10548v-.14844l-.02734-.11718-.14844-.14844-.13281-.01563h-.14844l-.11719.03125-.10547.04297-.10156.04297-.08984.0625-.11719.02735-.07422-.07422.01172-.13281-.04297-.10157-.04297-.10547-.08984-.05859-.11719.02734-.1211.03125-.11718.03125-.10156.04297-.1211.03125-.10156.04297-.10547.04297-.08984.0586-.10156.01562v-.11719l.01562-.13281-.0586-.08985-.07421.04297-.14844.14844-.0586.08985-.07421.07421-.04688.10547-.04296.10156-.07422.07422-.0586.08985-.07422.07422-.05859.08593-.07422.07422-.08984.0625-.07422.07031-.07422.07422-.10156.01563-.13281.01562-.10547-.04296v-.1211l.14843-.14844.04297-.10156.0586-.08984.04687-.10156.04297-.10547.0586-.08985.03124-.11719.04297-.10156.03125-.1211.02735-.11718.04687-.10547.04297-.10156.04297-.10547.07422-.07031.08984-.0625.08985-.0586.10156-.04296h.29687l.26563-.03125.10547-.04297-.07422-.07422-.11719-.03125-.10547-.04297-.08984-.0586-.10156-.04687-.08985-.0586-.10156-.04296-.10547-.04297-.08984-.0625-.08594-.0586-.10547-.04296-.10156-.04297-.1211-.03125-.11718-.03125-.10157-.04297L297.5 410.25l-.10156-.04297-.08985-.0586-.04296-.10546-.01563-.13281.10156-.04297.13281-.01563.13672.01563.13282-.01563.10156-.04297.0586-.08984.01562-.10547-.08985-.0586-.07421-.07421-.10157-.04297-.08984-.0586-.14844-.14843-.04297-.10547-.01562-.13281v-.29297l-.0586-.08985-.08984-.05859-.07422-.07422-.04297-.10547-.03125-.11718-.0586-.08985-.07421-.07422-.11719-.02734-.07422-.07422-.08984-.0586-.08984-.0625-.08594-.05859-.07422-.07421-.0586-.08594-.04687-.10547-.08594-.0586-.14843-.14843-.19532-.0586-.1328.01563-.10157.04297-.07422.07422-.04688.10156-.04296.10547-.0586.08984-.0586.08594-.29687.29687-.08984.0586h-.08594l-.0625-.08594-.04297-.10547.03125-.11719.0586-.08984.02734-.11719-.01172-.13281-.08984-.0625-.10547.04688-.11719.02734-.11719.03125-.26953.17578-.10156.04688-.11719.02734-.10546.04687-.08985.0586-.10156.04297-.0586-.08594-.04687-.10547.01563-.13281.04687-.10547.07031-.07422.07422-.07031.0586-.08985v-.14843l-.04297-.10547h-.23829l-.10156.04687-.03125.11719-.02734.11719-.03125.1211-.07422.04296-.13281.01563-.07422-.04688-.04297-.10156-.04297-.10547-.04687-.10156-.04297-.10547-.1211.03125-.10156.04297-.13281.01562-.11719.03125-.10547.04297-.08984.0586-.10156.04687-.1211.02734-.13281.01563-.10156-.04297-.0586-.08985-.04687-.10546-.04297-.10157-.04297-.10546v-.1172l.0586-.08984.08593-.05859.17969-.11719.10156-.04687.10547-.04297.10547-.0586.10156-.04296.08985-.0625.10156-.04297.10547-.0586.10156-.04687.08984-.0586.10547-.04296.10156-.04297.08985-.0625.10156-.04297.13672-.01563.11719.03125.10156.04297.1211.03125.10156.04297.10546.04688.10157.04296.10547.04297.10156.04688.10547.04297.10156.04297.10547.04687.08594.0586.10546.04296.1172.03125.10546.04297.10156.04688.08985.0586.10547.04296.10156.04297.10547.04687.11719.02735.10156.04687.1211.02735h.14843l.08594-.0586.01562-.10156.0586-.08984-.02735-.1172-.07422-.07421-.11719-.17969-.07421-.07422-.08985-.07421-.17969-.1172-.08593-.05859-.10547-.04296-.10156-.04688-.26954-.17578-.05859-.08985-.07422-.07421-.0586-.08985-.04296-.10156-.03125-.11719-.01563-.13672v-.5625l-.01171-.1328-.01563-.13282-.03125-.11719-.01562-.13281-.01172-.13281-.03125-.1211-.22266-.22265-.0586-.08594-.01562-.10547.03125-.11719.13281-.01562v-91.41406H172.9922v1.45312l-.0586.23438-.35156 1.05078-.17187.52343-.1172.34766-.17577.41016-.11719.17187-.23438.29297-.23046.0586h-.35157l-.11718.05859-.23047.40625v.29297l.11719.17578.23046.23047.1172.23437.64062.75781.29297.46485.17578.23437.23047.35156.23437.34766.64063.8164.17578.46485.17187.41016.11719.69531.17578.46875.11719 1.39844.0586.46484v.875l.11718 1.04688v4.78125l-.0586.46484-.35156 1.28125-.17578.52344-.11328.41015-.35156.9297L172.93359 336l-.23437.58203-.11719.17578-.17187.34766-.17578.40625-.35157.8164-.0586.29297-.11327.29297-.11719.28906-.0586.17579-.11718.875-.0586.40625-.05859.11718-.0586.17579-.05859.17187-.23047.52734-.11718.17188v.23437l-.11719.23438-.0586.17187-.17577.58594v.28906l-.0586.17579v.29296l-.0586.11329-.05859.52734v.17187l-.05468.23438v2.6211l-.17578.8164-.1172.17578-.17577.23438-.1172.17187-.11327.23438-.58594.93359-.23047.28906-.29297.46485-.17578.23437-.28906.35156-.35156.69922-.11328.23047-.17579.41016-.17578.23046-.40625.52735-.8164.69922-.29297.17187-.28906.23438-.17579.11719-.17578.17578-.52344.40625-.52734.17578-.17187.17578-.23438.05469-.64062.17578h-.75782m12.21094 31.02344l-1.07422.44921.35938.89454 1.25-.71485.44531-.53906-.98047-.08985"/><path fill="#d3d3d3" fill-opacity="0" fill-rule="evenodd" d="M201.50781 416.59766h-.89453l.44922.6289.98047.35938.80469-.08985.4453-.98828-.17577.08985-.71485-.35547-.89453.35547m154.6211 59.0703l-.0586-.52343v-.29297l.11328-.29297.0586-.23046.46875-.46875h.11328l.11719-.11329.11718-.05859h.17579l.23437-.0586h.34766l.23437.0586.11719.0586.23047.17187.0586.17578.11718.58203v.29297l-.11719.17578-.17187.28906-.17579.17579-.52734.52343-.23047.23438-.11719.0586h-.17578l-.11718-.0586-.40625-.29297-.17579-.11719-.11718-.0586-.0586-.11327-.05468-.1172m6.64062-10.95702l-.0586-.17188v-1.10937l.0586-.17188.17578-.0586.17188-.05858h.17578l.23437-.0586.1172.0586.05858.69921-.05859.17188-.11719.17578-.11718.0586-.23438.52343-.11328.0586h-.23438l-.05859-.1172m9.61328-14.39062l-.11719-.17578v-.69922l.29297-.875.1172-.17187.17577-.35156.11328-.23047.1172-.29297.35155-.75781.1172-.23047.17187-.23438h.17578l.11719-.0586h.64062l.11719.0586.23437.23438.17188.11328.35156.29297.11719.11718.11328.17579v.11328l.11719.05859.11718.11719v.69922l-.05859.17578v.23047l-.0586.17578-.34765 1.05078-.11719.23047-.11719.23437-.11718.0586-.23047.23437-.64063.28906h-.875l-.41015-.11718-.64063-.46485"/><path fill="none" stroke="#bebebe" stroke-linecap="round" stroke-linejoin="round" stroke-miterlimit="10" stroke-width=".5" d="M467.95703 311.69531H144.02734v168.625h323.9297v-168.625"/><g clip-path="url(#a)"><path fill="#fff" fill-opacity="0" fill-rule="evenodd" d="M144 475.89063v4.4375h.0039H144V311.67188h.0039H144v164.21875"/></g><g clip-path="url(#b)"><path fill="#fff" fill-opacity="0" fill-rule="evenodd" d="M144.0039 480.32813V311.67188h17.75v121.16015l-2.60546 3.11328-.5586 4.4375 2.4336 4.4375-.42578 4.4414-.81641 4.4375-.67578 4.4375 1.34375 4.4375 1.30469.83204 4.4375-.48438 4.4375.6836 4.4375-.40235 1.86718-.6289 1.69532-4.4375-.60938-4.4375-2.95312-3.3086-.7422-1.1289-2.66405-4.4414-1.03125-1.31641-4.26953-3.1211-.16797-.08594-2.21875-4.35156-2.21875-3.11328V311.67188h306.24218v168.65625H144.00391"/></g><path fill="#50fcfc" fill-rule="evenodd" d="M161.02344 444.82031l-2.4336-4.4375.5586-4.4375 2.60547-3.11328v6.89844l-.1836.65234.1836.28906.2578-.28906-.2578-.65234v-6.89844l2.21875 3.11328 2.21875 4.35156v7.08985l-1.39844 1.875 1.39844 3.67187.98828.76563 1.73047 4.4375 1.71875.53125 1.24609-.53125 1.23828-4.4375-1.54687-4.4375-.9375-1.25781-4.4375-.6172v-7.08983l.16797.08593 4.26953 3.1211 1.03125 1.3164 2.66406 4.4414.74219 1.12892 2.95312 3.30859.60938 4.4375-1.69532 4.4375-1.86718.6289-4.4375.40235-4.4375-.6836-4.4375.48438-1.3047-.83203-1.34374-4.4375.67578-4.4375.8164-4.4375.42579-4.4414"/><path fill="#00e8fc" fill-rule="evenodd" d="M161.7539 440.67188l-.18359-.28907.1836-.65234.2578.65234-.2578.28906m4.4375 12.26172l-1.39844-3.67187 1.39844-1.875 4.4375.61719.9375 1.2578 1.54687 4.4375-1.23828 4.4375-1.2461.53126-1.71874-.53125-1.73047-4.4375-.98828-.76563"/><g clip-path="url(#c)"><path fill="#fff" fill-opacity="0" fill-rule="evenodd" d="M467.9961 480.32813H468V311.67188h-.0039H468v168.65625h-.0039"/></g><g clip-path="url(#d)"><path fill="none" stroke="#000" stroke-linecap="round" stroke-linejoin="round" stroke-miterlimit="10" stroke-width=".5" d="M147.41797 479.51563l-6.83594 1.6289"/></g><g clip-path="url(#e)"><path fill="none" stroke="#000" stroke-linecap="round" stroke-linejoin="round" stroke-miterlimit="10" stroke-width=".5" d="M147.41797 479.51563l1.6211 1.83984"/></g><g clip-path="url(#f)"><path fill="none" stroke="#000" stroke-linecap="round" stroke-linejoin="round" stroke-miterlimit="10" stroke-width=".5" d="M146.42188 479.75l1.625 1.83984"/></g><g clip-path="url(#g)"><path fill="none" stroke="#000" stroke-linecap="round" stroke-linejoin="round" stroke-miterlimit="10" stroke-width=".5" d="M160.69922 479.38281l-6.76953 1.89453"/></g><g clip-path="url(#h)"><path fill="none" stroke="#000" stroke-linecap="round" stroke-linejoin="round" stroke-miterlimit="10" stroke-width=".5" d="M160.69922 479.38281l1.6914 1.77344"/></g><g clip-path="url(#i)"><path fill="none" stroke="#000" stroke-linecap="round" stroke-linejoin="round" stroke-miterlimit="10" stroke-width=".5" d="M159.71484 479.65625l1.69141 1.77734"/></g><g clip-path="url(#j)"><path fill="none" stroke="#000" stroke-linecap="round" stroke-linejoin="round" stroke-miterlimit="10" stroke-width=".5" d="M174.03906 479.48047l-6.82031 1.69531"/></g><g clip-path="url(#k)"><path fill="none" stroke="#000" stroke-linecap="round" stroke-linejoin="round" stroke-miterlimit="10" stroke-width=".5" d="M174.03906 479.48047l1.64063 1.82422"/></g><g clip-path="url(#l)"><path fill="none" stroke="#000" stroke-linecap="round" stroke-linejoin="round" stroke-miterlimit="10" stroke-width=".5" d="M173.04688 479.72656l1.64062 1.82422"/></g><g clip-path="url(#m)"><path fill="none" stroke="#000" stroke-linecap="round" stroke-linejoin="round" stroke-miterlimit="10" stroke-width=".5" d="M187.3125 479.32422l-6.73438 2.00781"/></g><g clip-path="url(#n)"><path fill="none" stroke="#000" stroke-linecap="round" stroke-linejoin="round" stroke-miterlimit="10" stroke-width=".5" d="M187.3125 479.32422l1.72266 1.7461"/></g><g clip-path="url(#o)"><path fill="none" stroke="#000" stroke-linecap="round" stroke-linejoin="round" stroke-miterlimit="10" stroke-width=".5" d="M186.33203 479.61719l.86328.875"/></g><g clip-path="url(#p)"><path fill="none" stroke="#000" stroke-linecap="round" stroke-linejoin="round" stroke-miterlimit="10" stroke-width=".5" d="M200.52344 479.02734l-6.52735 2.60157"/></g><g clip-path="url(#q)"><path fill="none" stroke="#000" stroke-linecap="round" stroke-linejoin="round" stroke-miterlimit="10" stroke-width=".5" d="M200.52344 479.02734l1.8711 1.58594"/></g><g clip-path="url(#r)"><path fill="none" stroke="#000" stroke-linecap="round" stroke-linejoin="round" stroke-miterlimit="10" stroke-width=".5" d="M199.57422 479.40625l.9375.79297"/></g><g clip-path="url(#s)"><path fill="none" stroke="#000" stroke-linecap="round" stroke-linejoin="round" stroke-miterlimit="10" stroke-width=".5" d="M213.88281 479.14453l-6.61719 2.36719"/></g><g clip-path="url(#t)"><path fill="none" stroke="#000" stroke-linecap="round" stroke-linejoin="round" stroke-miterlimit="10" stroke-width=".5" d="M213.88281 479.14453l1.8164 1.65235"/></g><g clip-path="url(#u)"><path fill="none" stroke="#000" stroke-linecap="round" stroke-linejoin="round" stroke-miterlimit="10" stroke-width=".5" d="M212.92188 479.48828l.90625.82422"/></g><g clip-path="url(#v)"><path fill="none" stroke="#000" stroke-linecap="round" stroke-linejoin="round" stroke-miterlimit="10" stroke-width=".5" d="M227.15625 479.02734l-6.53125 2.60157"/></g><g clip-path="url(#w)"><path fill="none" stroke="#000" stroke-linecap="round" stroke-linejoin="round" stroke-miterlimit="10" stroke-width=".5" d="M227.15625 479.02734l1.8711 1.58594"/></g><g clip-path="url(#x)"><path fill="none" stroke="#000" stroke-linecap="round" stroke-linejoin="round" stroke-miterlimit="10" stroke-width=".5" d="M226.20313 479.40625l.9375.79297"/></g><g clip-path="url(#y)"><path fill="none" stroke="#000" stroke-linecap="round" stroke-linejoin="round" stroke-miterlimit="10" stroke-width=".5" d="M240.39453 478.85547l-6.3789 2.94922"/></g><g clip-path="url(#z)"><path fill="none" stroke="#000" stroke-linecap="round" stroke-linejoin="round" stroke-miterlimit="10" stroke-width=".5" d="M240.39453 478.85547l1.95313 1.48047"/></g><g clip-path="url(#A)"><path fill="none" stroke="#000" stroke-linecap="round" stroke-linejoin="round" stroke-miterlimit="10" stroke-width=".5" d="M239.46484 479.28125l.98047.74219"/></g><g clip-path="url(#B)"><path fill="none" stroke="#000" stroke-linecap="round" stroke-linejoin="round" stroke-miterlimit="10" stroke-width=".5" d="M253.52344 478.5039l-6.0039 3.64844"/></g><g clip-path="url(#C)"><path fill="none" stroke="#000" stroke-linecap="round" stroke-linejoin="round" stroke-miterlimit="10" stroke-width=".5" d="M253.52344 478.5039l2.10937 1.25391"/></g><path fill="none" stroke="#000" stroke-linecap="round" stroke-linejoin="round" stroke-miterlimit="10" stroke-width=".5" d="M252.64844 479.03516l1.05469.625"/><g clip-path="url(#D)"><path fill="none" stroke="#000" stroke-linecap="round" stroke-linejoin="round" stroke-miterlimit="10" stroke-width=".5" d="M266.91797 478.64453l-6.16406 3.36719"/></g><g clip-path="url(#E)"><path fill="none" stroke="#000" stroke-linecap="round" stroke-linejoin="round" stroke-miterlimit="10" stroke-width=".5" d="M266.91797 478.64453l2.05078 1.34766"/></g><g clip-path="url(#F)"><path fill="none" stroke="#000" stroke-linecap="round" stroke-linejoin="round" stroke-miterlimit="10" stroke-width=".5" d="M280.23828 478.65625l-6.17578 3.34766"/></g><g clip-path="url(#G)"><path fill="none" stroke="#000" stroke-linecap="round" stroke-linejoin="round" stroke-miterlimit="10" stroke-width=".5" d="M279.33984 479.14063l1.02344.67968"/></g><g clip-path="url(#H)"><path fill="none" stroke="#000" stroke-linecap="round" stroke-linejoin="round" stroke-miterlimit="10" stroke-width=".5" d="M292.65234 477.57813l-4.37109 5.5"/></g><path fill="none" stroke="#000" stroke-linecap="round" stroke-linejoin="round" stroke-miterlimit="10" stroke-width=".5" d="M292.01563 478.3789l1.20703.22266"/><g clip-path="url(#I)"><path fill="none" stroke="#000" stroke-linecap="round" stroke-linejoin="round" stroke-miterlimit="10" stroke-width=".5" d="M306.21484 477.79297l-4.86718 5.07031"/></g><path fill="none" stroke="#000" stroke-linecap="round" stroke-linejoin="round" stroke-miterlimit="10" stroke-width=".5" d="M305.5039 478.53125l1.1836.33203"/><g clip-path="url(#J)"><path fill="none" stroke="#000" stroke-linecap="round" stroke-linejoin="round" stroke-miterlimit="10" stroke-width=".5" d="M319.48438 477.75l-4.77735 5.15625"/></g><path fill="none" stroke="#000" stroke-linecap="round" stroke-linejoin="round" stroke-miterlimit="10" stroke-width=".5" d="M318.78906 478.5l1.1875.3164"/><g clip-path="url(#K)"><path fill="none" stroke="#000" stroke-linecap="round" stroke-linejoin="round" stroke-miterlimit="10" stroke-width=".5" d="M332.96484 477.91797l-5.10937 4.82422"/></g><path fill="none" stroke="#000" stroke-linecap="round" stroke-linejoin="round" stroke-miterlimit="10" stroke-width=".5" d="M332.22266 478.61719l1.16406.39453"/><g clip-path="url(#L)"><path fill="none" stroke="#000" stroke-linecap="round" stroke-linejoin="round" stroke-miterlimit="10" stroke-width=".5" d="M346.3711 478.01563l-5.28907 4.625"/></g><path fill="none" stroke="#000" stroke-linecap="round" stroke-linejoin="round" stroke-miterlimit="10" stroke-width=".5" d="M345.60156 478.6875l1.14844.4375"/><g clip-path="url(#M)"><path fill="none" stroke="#000" stroke-linecap="round" stroke-linejoin="round" stroke-miterlimit="10" stroke-width=".5" d="M359.71484 478.04688l-5.34765 4.5625"/></g><path fill="none" stroke="#000" stroke-linecap="round" stroke-linejoin="round" stroke-miterlimit="10" stroke-width=".5" d="M358.9375 478.71094l1.14063.44922"/><g clip-path="url(#N)"><path fill="none" stroke="#000" stroke-linecap="round" stroke-linejoin="round" stroke-miterlimit="10" stroke-width=".5" d="M373.7461 479.40625l-6.78126 1.84375"/></g><g clip-path="url(#O)"><path fill="none" stroke="#000" stroke-linecap="round" stroke-linejoin="round" stroke-miterlimit="10" stroke-width=".5" d="M372.76172 479.67578l.83984.89453"/></g><g clip-path="url(#P)"><path fill="none" stroke="#000" stroke-linecap="round" stroke-linejoin="round" stroke-miterlimit="10" stroke-width=".5" d="M386.92188 481.66406l-6.5-2.67187"/></g><g clip-path="url(#Q)"><path fill="none" stroke="#000" stroke-linecap="round" stroke-linejoin="round" stroke-miterlimit="10" stroke-width=".5" d="M398.00781 480.32813l-.01953-.19922-.0586-.19141-.09374-.17578-.45703-.3789-.19141-.0586-.20313-.01953-.19921.01953-.19141.0586-.45703.3789-.09375.17578-.0586.1914-.01953.19923.01954.19921.05859.19141.09375.17969.45703.375.1914.0586.19923.01952.20312-.01953.1914-.0586.45704-.375.09375-.17968.0586-.1914.01952-.19922"/></g><g clip-path="url(#R)"><path fill="none" stroke="#000" stroke-linecap="round" stroke-linejoin="round" stroke-miterlimit="10" stroke-width=".5" d="M410.4375 483.83984l-.27344-7.02343"/></g><g clip-path="url(#S)"><path fill="none" stroke="#000" stroke-linecap="round" stroke-linejoin="round" stroke-miterlimit="10" stroke-width=".5" d="M427.1289 480.1914l-7.02343.27344"/></g><g clip-path="url(#T)"><path fill="none" stroke="#000" stroke-linecap="round" stroke-linejoin="round" stroke-miterlimit="10" stroke-width=".5" d="M427.1289 480.1914l1.23438 2.1211"/></g><g clip-path="url(#U)"><path fill="none" stroke="#000" stroke-linecap="round" stroke-linejoin="round" stroke-miterlimit="10" stroke-width=".5" d="M439.41406 477.84375l-4.96875 4.96875"/></g><path fill="none" stroke="#000" stroke-linecap="round" stroke-linejoin="round" stroke-miterlimit="10" stroke-width=".5" d="M439.41406 477.84375l2.34766.71875"/><g clip-path="url(#V)"><path fill="none" stroke="#000" stroke-linecap="round" stroke-linejoin="round" stroke-miterlimit="10" stroke-width=".5" d="M453.22656 478.46875l-5.96094 3.71875"/></g><path fill="none" stroke="#000" stroke-linecap="round" stroke-linejoin="round" stroke-miterlimit="10" stroke-width=".5" d="M453.22656 478.46875l2.125 1.23047"/><g clip-path="url(#W)"><path fill="none" stroke="#000" stroke-linecap="round" stroke-linejoin="round" stroke-miterlimit="10" stroke-width=".5" d="M466.82813 479.03906l-6.53516 2.58203"/></g><g clip-path="url(#X)"><path fill="none" stroke="#000" stroke-linecap="round" stroke-linejoin="round" stroke-miterlimit="10" stroke-width=".5" d="M466.82813 479.03906l1.86718 1.58985"/></g><g clip-path="url(#Y)"><path fill="none" stroke="#000" stroke-linecap="round" stroke-linejoin="round" stroke-miterlimit="10" stroke-width=".5" d="M147.5 466.71875l-7 .58984"/></g><path fill="none" stroke="#000" stroke-linecap="round" stroke-linejoin="round" stroke-miterlimit="10" stroke-width=".5" d="M147.5 466.71875l1.33203 2.0625m-2.35156-1.97656l.66797 1.03125m13.58984-1.6211l-6.84375 1.59766m6.84375-1.59766l1.61328 1.84766m-2.60937-1.61719l.80469.92578m13.47265-1.28515l-6.77734 1.85547m6.77734-1.85547l1.6836 1.78515m-2.67188-1.51562l1.6836 1.78515m12.51562-2.37109l-6.57031 2.48828m6.5703-2.48828l1.84376 1.6211m-2.80078-1.25782l1.84375 1.61719m12.35156-2.16797l-6.41797 2.86328m6.41797-2.86328l1.9336 1.50781m-2.8672-1.09375l.96876.75391m13.3203-1.07422l-6.5 2.67578m6.5-2.67578l1.89063 1.5664m-2.83593-1.17577l.9453.78125m13.22657-1.3672l-6.32031 3.06642m6.32031-3.06641l1.98438 1.44922m-2.90235-1.0039l.98828.72655m13.30078-1.05078l-6.43359 2.82422m6.4336-2.82422l1.92578 1.51953m-2.86328-1.10937l.96484.75781m13.1875-1.3789l-6.23438 3.24609m6.23438-3.2461l2.02344 1.39063m-2.9297-.91797l1.01173.69531m13.21094-1.16406l-6.23438 3.23828m6.23438-3.23828l2.01953 1.39063m10.80468-2.10547l-5.2539 4.66797m5.2539-4.66797l2.30079.85547m11.14453-.69922l-5.51172 4.35547m4.71094-3.72266l1.12109.49219m13.02344-1.08594l-5.57422 4.27734m4.76562-3.65625l1.11719.50782m12.01563-2.01172l-3.58985 6.04297m3.0664-5.16407l1.22657.0586m12.39844-1.05469l-3.16406 6.27734m2.70312-5.36328l1.22656-.02734M345.53516 464l-3.6172 6.02734m3.08985-5.14843l1.22657.0625m13.61328-.04297l-5.61328 4.23047m4.79687-3.61329l1.10938.51563m13.49609-.27344l-6.5625 2.51172m5.60937-2.14453l.92579.80469m13.57421.21875l-7.02343-.26953m6 .23046l.53515 1.10547m13.61719-.0703l-6.65234-2.26173m5.68359 1.9336l.19922 1.21093m14.04297-3.2578l-6.57031 2.48827m20.03125-2l-6.86329 1.51172m6.86329-1.51172l1.58984 1.86719m11.53516-2.47266l-6.48047 2.72266m5.53515-2.32813l.95313.77735m13.19922-1.39844l-6.26563 3.17578m6.26563-3.17578l2.0078 1.41016m11.55079-.80078l-6.75 1.95703m5.76563-1.67188l.85546.8789"/><g clip-path="url(#Z)"><path fill="none" stroke="#000" stroke-linecap="round" stroke-linejoin="round" stroke-miterlimit="10" stroke-width=".5" d="M147.47266 453.15234l-6.94532 1.08985"/></g><path fill="none" stroke="#000" stroke-linecap="round" stroke-linejoin="round" stroke-miterlimit="10" stroke-width=".5" d="M147.47266 453.15234l1.47265 1.96485m-2.48437-1.80469l.73828.98047m13.3789-1.89453L154.05078 455m6.52734-2.60156l1.8711 1.58593m-2.82031-1.20703l.9375.79297m13.36718-1.0664l-6.60937 2.39062m6.60937-2.39062l1.82032 1.64843m-2.78125-1.30078l.91015.82422m13.1914-1.57812l-6.2578 3.19921m6.2578-3.19921l2.01173 1.40625m-2.92188-.94141l1.0039.70312m13.19532-1.21484l-6.20703 3.29688m6.20703-3.29688l2.03516 1.3711m-2.9375-.89454l2.03125 1.375m12.1914-1.83984l-6.21875 3.27344m6.21875-3.27344l2.03125 1.38281m-2.93359-.90625l1.01172.6914m13.08203-1.3828l-5.96875 3.70312m5.96875-3.70312l2.1211 1.23046m-2.98829-.6914l1.0586.61719m12.5078-1.90235l-4.73827 5.1914m4.73828-5.1914l2.375.60938m-3.0664.14843l2.3789.60938m11.75781-1.24219l-4.9961 4.9414m4.9961-4.9414l2.33984.73047m-3.0664-.01172l1.17187.36719m12.8125-1.14063l-4.8828 5.05079m4.8828-5.05079l2.35938.6797m-3.07031.05468l1.17968.33984m12.54297-1.33593l-4.27734 5.57421m4.27734-5.57421l2.42188.40625m-3.04297.40625l1.21094.20312m12.28515-1.30469l-3.39844 6.15235m3.39844-6.15235l2.45313.03907m10.70312-.1211l-3.07812 6.3164m3.07812-6.3164l2.45313-.08594m11.66406.625l-4.6836 5.23829m4.00391-4.47657l1.1914.29297m13.57423-.0664l-6.22266 3.26562m5.3164-2.79297l1.01173.69531m12.98828-1.53125l-5.78516 3.9922m5.78516-3.9922l2.17968 1.12891m10.76172-1.58594l-5.03515 4.90235m5.03515-4.90235l2.33594.75m11.6211.16016l-6.31641 3.08203m6.3164-3.08203l1.98438 1.44531m10.07812-2.85547l-3.8125 5.90235m3.8125-5.90235l2.44532.21094m9.60156-.71484l-1.27734 6.91015m1.09375-5.90234l1.16796-.3711m15.20704 2.79688l-7.02735.04688m6.0039-.03907l.58204 1.07813m13.7539-1.11719l-7.02734.10938m7.02735-.10938l1.1875 2.14453m12.0703-2.72265l-6.91015 1.26171m6.91016-1.26171l1.52344 1.92578m11.16015-3.38282l-5.64844 4.1797m4.82813-3.57032l1.10547.52734m13.1836-.91406l-5.95313 3.73438"/><g clip-path="url(#aa)"><path fill="none" stroke="#000" stroke-linecap="round" stroke-linejoin="round" stroke-miterlimit="10" stroke-width=".5" d="M466.53906 451.83203l2.125 1.22266"/></g><g clip-path="url(#ab)"><path fill="none" stroke="#000" stroke-linecap="round" stroke-linejoin="round" stroke-miterlimit="10" stroke-width=".5" d="M147.39063 439.46875l-6.78125 1.83203"/></g><path fill="none" stroke="#000" stroke-linecap="round" stroke-linejoin="round" stroke-miterlimit="10" stroke-width=".5" d="M147.39063 439.46875l1.67968 1.78906m-2.66406-1.52344l.83594.89454m13.24219-1.76172l-6.33985 3.03515m6.33984-3.03515l1.97266 1.45312m-2.89453-1.01172l.98828.72657M173.85938 439l-6.46094 2.76563M173.85938 439l1.91406 1.53906m-2.85156-1.13672l.95312.76954m13.33984-1.07813l-6.53906 2.57813m6.53906-2.57813l1.8672 1.59375m-2.82032-1.21875l1.86719 1.59375m12.14062-2.48828l-6.01953 3.6211m6.01953-3.6211l2.10547 1.26172m-2.98047-.73438l2.10547 1.26172m11.54297-2.48047l-4.9375 5m4.9375-5l2.35156.70313m-3.07031.02344l2.35156.70312m11.88281-1.21484l-5.33984 4.5703m5.33984-4.5703l2.28516.89843m-3.0586-.23046l1.14063.4453m12.26563-1.72656l-3.97266 5.79688m3.97266-5.79688l2.4414.27735m-3.01953.5664l1.21875.14063m12.44922-1.125l-3.51953 6.08203m3.51953-6.08203l2.44922.08594m-2.96094.79687l1.22266.04297m12.17969-1.13672l-2.67188 6.5m2.67188-6.5l2.4414-.23828m-2.82812 1.1836l1.21875-.1172m11.85547-1.01952l-1.41797 6.8828m1.41797-6.8828l2.35546-.69141m-2.5625 1.69531l1.1797-.34765m13.1875-.3672l-3.10548 6.3047m3.10547-6.3047l2.45313-.07421m10.27734-.14844l-1.9375 6.7539m1.9375-6.7539l2.39844-.51172m-2.67969 1.4922l1.19922-.25392m12.82422-.57421l-2.79297 6.44922m2.79297-6.44922l2.44531-.19532m-2.85156 1.13282L319.30859 438m13.56641-.1211l-4.92969 5.00782m4.92969-5.00781l2.35156.70312m-3.0664.02735l1.17578.34765m12.98047-.94531l-5.1836 4.7461m5.1836-4.7461l2.3125.82031m-3.06641-.1289l1.15625.41015m11.84766-1.89453l-3.05079 6.32813m3.05079-6.32813l2.45312-.09766m8.5-.14843l1.67578 6.82422m-1.4336-5.83204l.91407-.8164m15.13281 6.02344l-4.27343-5.57813m17.89843.26953l-4.89453 5.03906m4.1836-4.30468l1.17968.33984m13.82032 2.2539l-6.83985-1.61718m6.83985 1.61719l.62109 2.375m12.65234-4.14844l-6.7578 1.92969m6.7578-1.9297l1.70313 1.76563m-2.6875-1.48437l.85156.88281m13.48438-1.01953l-6.83204 1.64063m6.83204-1.64063l1.625 1.83984m-2.6172-1.60156l.8125.91797m13.23048-1.88672l-6.30469 3.10156m6.30469-3.10156l1.99218 1.4375m11.4336-1.1875l-6.52735 2.60156"/><g clip-path="url(#ac)"><path fill="none" stroke="#000" stroke-linecap="round" stroke-linejoin="round" stroke-miterlimit="10" stroke-width=".5" d="M466.82422 439.08203l1.875 1.58594"/></g><g clip-path="url(#ad)"><path fill="none" stroke="#000" stroke-linecap="round" stroke-linejoin="round" stroke-miterlimit="10" stroke-width=".5" d="M147.45703 426.4414l-6.91406 1.25391"/></g><path fill="none" stroke="#000" stroke-linecap="round" stroke-linejoin="round" stroke-miterlimit="10" stroke-width=".5" d="M147.45703 426.4414l1.51953 1.92579m-2.52344-1.74219l.75782.96094m13.44531-1.60156l-6.6836 2.16796m6.6836-2.16796l1.76563 1.70703m-2.73829-1.39063l1.76563 1.70703m-2.73828-1.39062l.88281.85156m14.39453-1.42969l-6.71875 2.0586m6.71875-2.0586l1.73828 1.73438m-2.71484-1.4336l1.73437 1.73438m-2.71093-1.4375l.86718.86719M187 425.33594l-6.10938 3.46484M187 425.33594l2.07422 1.3164m-2.96094-.8125l2.07031 1.31641m11.89844-2.1836l-5.64062 4.19141m5.64062-4.1914l2.21484 1.05468m-3.03515-.4453l2.21484 1.05468m11.89844-1.6914l-5.60156 4.24609m5.60156-4.2461l2.22656 1.03125m-3.03906-.41406l2.22656 1.03125m11.53125-2.0625l-4.85937 5.07422m4.85937-5.07422l2.36328.66797m-3.0703.07031l1.17968.33594m12.35547-1.46484l-3.88672 5.85546m3.88672-5.85546l2.4414.23828m-3.0078.61328l1.22265.11719m12.76172-.89844l-4.08985 5.71484m4.08985-5.71484l2.43359.32422m-3.02734.5078l1.21484.16407m12.41406-1.17578l-3.53125 6.07422m3.53125-6.07422l2.44922.08984m-2.96484.79297l1.22656.04688m12.67969-.88672l-3.6836 5.98828m3.6836-5.98828l2.44922.15625m-2.98438.71484l1.22266.07813m12.05469-1.23047l-2.53907 6.55078m2.53907-6.55078l2.4375-.29297m9.93359.07031l-.64844 6.9961m.64844-6.9961l2.26172-.94922m-2.35547 1.96875l1.13281-.47656m12.3711-.53515l-.83985 6.98046m.83985-6.98046l2.28906-.88282m-2.41016 1.89844l1.14453-.4414m11.8711-.59766v7.02734m0-7.02734l2.16797-1.15235m13.51171 2.06641l-4.72656 5.19922m4.03906-4.4414l1.1875.30077m13.31641-.49218l-5.73047 4.0664m4.89453-3.47656l1.09766.55078m13.1836-.94531l-5.98829 3.67578m5.11719-3.14062l1.05469.62109m13.58984.03516l-6.90625 1.29296m5.90234-1.10546l.76563.96093m11.63672-3.66015l-3.07422 6.3164m2.625-5.39843l1.22656-.04297m14.32813 1.15625l-6.65625 2.2539m6.65625-2.2539l1.78515 1.67968m-2.7539-1.35156l.89453.83985m13.22656-1.57032l-6.32812 3.0586m6.32812-3.0586l1.98047 1.44922m-2.90234-1.0039l1.98046 1.44921m12.51563-1.14843l-6.84766 1.5664m6.84766-1.5664l1.60937 1.85156m9.14063-4.47656l-1.71875 6.8164m1.71875-6.8164l2.38281-.58594m12.69531 1.65625l-5.24218 4.67578"/><g clip-path="url(#ae)"><path fill="none" stroke="#000" stroke-linecap="round" stroke-linejoin="round" stroke-miterlimit="10" stroke-width=".5" d="M147.46875 414.32031l-6.9375-1.13281"/></g><path fill="none" stroke="#000" stroke-linecap="round" stroke-linejoin="round" stroke-miterlimit="10" stroke-width=".5" d="M147.46875 414.32031l.78906 2.32031m12.52344-2.3203l-6.9336-1.13282m6.9336 1.13281l.78906 2.32422m-1.79687-2.48828l.39453 1.16016m13.78906-2.69532l-6.65234 2.26563m6.65234-2.26563l1.78906 1.67579m-2.7578-1.34766l1.78905 1.67969m-2.7578-1.34766l.89452.83594m14.15235-1.97266l-6.2422 3.21875m6.2422-3.21875l2.01953 1.39453m-2.92578-.92578l2.01562 1.39453m11.88672-2.3711l-5.60547 4.23438m5.60547-4.23437l2.22656 1.03516M199.25 412.25l2.22266 1.03516m-3.03907-.41797l1.10938.51953m13.9414-1.60547l-5.8164 3.94531m5.8164-3.94531l2.16797 1.14453m-3.01562-.57031l2.16797 1.14453m12.14453-1.47266l-6.11719 3.45313m6.11719-3.45313l2.07031 1.32032m-2.96094-.82032l2.07032 1.32032m11.59375-2.54297l-5.03516 4.89844m5.03516-4.89844l2.33593.7461m-3.0664-.03516l2.33594.75m11.4375-1.71485l-4.4922 5.40625m4.4922-5.40625l2.40234.5m-3.05469.28516l2.40234.5m11.85938-1.00781l-5.07813 4.85156m5.07813-4.85156l2.33203.76953m-3.07031-.06641l2.32812.77344m11.89063-1.29688l-5.40625 4.48828m5.40625-4.48828l2.26953.9336m-3.0586-.27735l1.13673.46485m12.87109-1.23047l-5.21485 4.71094m5.21485-4.71094l2.30469.83594m-3.06641-.15235l1.15625.41797m12.42969-1.55078l-4.23438 5.60937m4.23438-5.60937l2.42187.38672m10.44922-.67188l-3.34765 6.17969m2.85937-5.28125l1.22656.01172m12.07813-1.13281l-2.35156 6.62109m2.01171-5.65625l1.21094-.17969m12.85156-.60937l-3.16406 6.27344m2.70313-5.36329l1.22656-.02734m9.57422-.97266l2.78515 6.44922m-2.3828-5.50781l.76952-.96094m16.17969.9336l-5.28906 4.625m4.51953-3.95313l1.14844.4375m13.80468 1.0664l-7.02343.26954m7.02343-.26953l1.23438 2.1211m12.01953-2.64845l-6.90234 1.32422m6.90234-1.32422l1.53906 1.91407m11.40625-2.9375l-6.16406 3.375m6.16406-3.375l2.05078 1.34375m-2.94921-.85547l1.02734.67578m12.58984-1.96094l-4.96875 4.96875m4.96875-4.96875l2.34766.71875m-3.07031.0039l1.17187.35938m13.0039-.9336l-5.24609 4.67188m5.2461-4.67187l2.30078.85156m9.96094-1.66016l-3.14063 6.28516m3.14063-6.28515l2.45312-.0586m11.4961.46485l-4.40625 5.47265"/><g clip-path="url(#af)"><path fill="none" stroke="#000" stroke-linecap="round" stroke-linejoin="round" stroke-miterlimit="10" stroke-width=".5" d="M465.76563 411.01563l2.41015.46484"/></g><path fill="none" stroke="#000" stroke-linecap="round" stroke-linejoin="round" stroke-miterlimit="10" stroke-width=".5" d="M465.125 411.8125l1.20313.23047"/><g clip-path="url(#ag)"><path fill="none" stroke="#000" stroke-linecap="round" stroke-linejoin="round" stroke-miterlimit="10" stroke-width=".5" d="M147.36328 401.44922l-6.72656-2.01953"/></g><path fill="none" stroke="#000" stroke-linecap="round" stroke-linejoin="round" stroke-miterlimit="10" stroke-width=".5" d="M147.36328 401.44922l.48047 2.40625m-1.45703-2.69922l.48047 2.40625m13.84375-2.21875l-6.78906-1.8125m6.78906 1.8125l.55469 2.39063m-1.54297-2.65235l.55468 2.38672m-1.54297-2.65234l.27735 1.1953m15.03516-.75l-6.83204-1.64452m6.83203 1.64453l.61329 2.375m-1.60938-2.61719l.61328 2.3789m13.75-2.39062l-6.9375-1.13672m6.9375 1.13672l.78516 2.32422m-1.79688-2.49219l.78907 2.32422m13.47265-3.60156l-6.80469 1.75m6.8047-1.75l1.65624 1.8125m-2.64844-1.5586l.82813.90626m12.8164-2.48047l-5.48437 4.39453m5.48438-4.39453l2.2539.96875m-3.05078-.33203l2.2539.97265m-3.05077-.33203l1.125.48438m13.5625-2.01172l-5.03907 4.89453m5.03907-4.89453l2.33593.75m-3.0664-.03906l2.33203.7539m-3.0664-.04297l1.16796.3789m13.57031-1.84374l-4.95703 4.98047m4.95703-4.98047l2.34766.71094m-3.07031.01171l2.35156.71094m-3.07031.01563l1.17187.35547m13.58985-1.80079l-4.96875 4.96875m4.96875-4.96875l2.34765.71875m-3.07031.00391l2.34766.71875m11.76562-1.36328l-5.11719 4.8125m5.1172-4.8125l2.32421.78906m-3.07031-.08984l2.32422.78906m11.85156-1.35937l-5.34766 4.55468m5.34766-4.55468l2.28125.90234m-3.0586-.23828l1.14063.44922m13.1211-.90235l-5.6836 4.13282m5.6836-4.13282l2.20312 1.07813m11.4336-.53906l-6.32813 3.05468m5.40625-2.60937l.99219.72656m12.70703-1.97656l-5.25391 4.66406m5.2539-4.66406l2.30079.85937m11.08203-.78125l-5.39063 4.50782m5.39063-4.50782l2.27344.92188m9.3125-2.04688l-1.9297 6.75782m1.64845-5.77344l1.19922-.25781m7.93359 2.3164l6.9961.67578m-5.97657-.57812l-.46875-1.13281m14.58594-1.71485l3.35547 6.17188m14.5703-5.01953l-5.86718 3.87109m5.86719-3.8711l2.15234 1.17188m-3.00781-.60937l1.07813.58593m13.3203 2.31641l-6.32421-3.0625m6.32422 3.0625l.09375 2.45313m13.13281-2.28125l-6.14844-3.40235m6.14844 3.40235l-.03906 2.45312m13.7461-3.5664l-6.9297-1.1797m6.9297 1.1797l.76952 2.32812m11.89844-5.01563l-5.63672 4.19922m4.8164-3.58984l1.10938.52344m13.09375-1.03516l-5.77343 4.0039m4.93359-3.42187l1.08984.5625m13.03907-1.1875l-5.71875 4.08594"/><g clip-path="url(#ah)"><path fill="none" stroke="#000" stroke-linecap="round" stroke-linejoin="round" stroke-miterlimit="10" stroke-width=".5" d="M466.42188 398.39453l2.1953 1.09375"/></g><path fill="none" stroke="#000" stroke-linecap="round" stroke-linejoin="round" stroke-miterlimit="10" stroke-width=".5" d="M465.58984 398.99219l1.09766.54687"/><g clip-path="url(#ai)"><path fill="none" stroke="#000" stroke-linecap="round" stroke-linejoin="round" stroke-miterlimit="10" stroke-width=".5" d="M146.52344 389.5664l-5.04688-4.88671"/></g><path fill="none" stroke="#000" stroke-linecap="round" stroke-linejoin="round" stroke-miterlimit="10" stroke-width=".5" d="M146.52344 389.5664l-.67578 2.35938m-.0586-3.07031l-.33984 1.17969m15.19531-1.79297l-6.66016-2.23438m6.66016 2.23438l.40625 2.41797m-1.375-2.7461l.40625 2.42188m13.83984-1.98047l-6.58203-2.46485m6.58203 2.46485l.31641 2.4336m-1.27344-2.79298l.15625 1.21875m14.12891-.89453l-6.60938-2.39062m6.60938 2.39062l.34375 2.42578m-1.30469-2.77343l.17188 1.21093m13.72656-.11718l-5.85547-3.88672m5.85547 3.88672l-.23828 2.4414m-.61328-3.00781l-.11719 1.22266m14.8086-1.95313l-6.90626-1.29297m6.90625 1.29297l.73438 2.33985m-1.73828-2.52735l.73437 2.33985m-1.73828-2.52735l.36719 1.16797m14.64453-3.01172l-6.28516 3.14453m6.28516-3.14453l2 1.42188m-2.91406-.96485l1 .71094m12.88672-1.72266l-5.59766 4.25391m5.59766-4.2539l2.22656 1.03124m-3.04297-.41015l2.23047 1.02734m11.875-1.67969l-5.54688 4.31641m5.54688-4.3164l2.23828 1.0039m-3.04297-.375l2.23828 1m11.85156-1.66797l-5.48437 4.39453m5.48438-4.39453l2.2539.96875m-3.05469-.32812l2.25391.96875m12.09766-1.27344l-5.95703 3.72265m5.95703-3.72265l2.125 1.22656m-2.9922-.6836l2.125 1.22657m11.90235-2l-5.64453 4.1836m5.64453-4.1836l2.21485 1.05469m-3.03516-.44531l2.21484 1.05468m12.00391-1.54297l-5.8125 3.94141m5.8125-3.9414l2.17188 1.14452m-3.01563-.5703l2.16797 1.14452m12.28906-1.1875l-6.41015 2.87891m6.41015-2.8789l1.9375 1.5039m-2.8711-1.08594l.96876.7539m12.94922-1.7539l-5.7461 4.04297m5.7461-4.04297l2.1875 1.10938m10.80859-1.5l-5.10937 4.82422m4.36718-4.1211l1.16016.39063m13.8164.8086l-6.94921 1.01952m6.94922-1.01953l1.45703 1.97656m11.78125-2.36328l-6.79297 1.79297m6.79297-1.79297l1.66797 1.80078m-2.65625-1.53906l1.66796 1.79688m11.82422-3.54297l-5.17187 4.76172m5.17187-4.76172l2.3125.8164m11.76953.51954l-6.70703 2.08984m6.70703-2.08985l1.7461 1.72657m11.71094-.33985l-6.9922-.68359m6.9922.6836l.9375 2.26952m12.05078-1.08984l-6.33594-3.03906m6.33594 3.03906l.10156 2.44922m12.375-6.59766l-4.66406 5.25391m19.1289-2.14453l-6.96093-.96485m6.96093.96485l.84375 2.30078M467 386.40235l-6.8789 1.4414"/><g clip-path="url(#aj)"><path fill="none" stroke="#000" stroke-linecap="round" stroke-linejoin="round" stroke-miterlimit="10" stroke-width=".5" d="M467 386.40234l1.57031 1.88672"/></g><g clip-path="url(#ak)"><path fill="none" stroke="#000" stroke-linecap="round" stroke-linejoin="round" stroke-miterlimit="10" stroke-width=".5" d="M146.23828 376.51563l-4.47656-5.41407"/></g><path fill="none" stroke="#000" stroke-linecap="round" stroke-linejoin="round" stroke-miterlimit="10" stroke-width=".5" d="M146.23828 376.51563l-.9336 2.26953m.28516-3.0586l-.46875 1.13672m15.14453-1.14844l-5.90234-3.8125m5.90234 3.8125l-.20703 2.44532m-.65234-3l-.20703 2.4453m-.65234-3l-.10157 1.22267m15.44922-.71485l-6.52734-2.60937m6.52734 2.60937l.26563 2.4375m-1.21485-2.8164l.26563 2.4375m14.23047-3.01563l-6.9922-.69531m6.9922.69531l.93359 2.26953m-1.94922-2.3711l.46484 1.13282m13.8086-.66406l-6.8789-1.42969m6.8789 1.42969l.6875 2.35547m-1.6875-2.56641l.34375 1.17969m14.04297-1.51563l-7.01953-.33984m7.01953.33984l1.04297 2.22266m-2.06641-2.26953l1.04688 2.21875m13.26171-1.8711l-6.96093-.9375m6.96093.9375l.85547 2.30079m-1.86719-2.4375l.42579 1.15234m13.92578-1.26563l-7.01172-.4375m7.01172.4375l1.01562 2.23438m-2.03515-2.29688l1.01562 2.23438m13.08594-3.67188l-6.54297 2.5586m6.54297-2.5586l1.86328 1.60157m-2.8164-1.22657l1.86327 1.59766m12.2461-2.32031l-6.22656 3.25781m6.22656-3.25781l2.02344 1.38281m-2.9297-.91016l2.02345 1.38282m12.17968-1.88672l-6.1914 3.32031m6.1914-3.32031l2.03907 1.36719m-2.9375-.88282l2.03906 1.36328m12.13672-1.91796l-6.11719 3.46093m6.11719-3.46094l2.07031 1.31641m-2.96094-.8125l2.07031 1.3164m11.98438-2.0625l-5.8125 3.94532m5.8125-3.94531l2.17187 1.14453m-3.01953-.57031l2.17188 1.14453m11.82031-1.94922l-5.47266 4.40625m5.47266-4.40625l2.25781.96484m-3.05468-.32422l2.2578.96485m-3.05468-.32422l1.1289.48047m14.07032-1.34375l-6.05078 3.57031m6.05078-3.57031l2.09375 1.27734m-2.97656-.75781l2.09375 1.27734M346.98828 372.5l-6.52344 2.61719m6.52344-2.61719l1.875 1.58203m-2.82422-1.20312l1.875 1.58203m12.52735-1.53125l-6.80079 1.75781m6.80079-1.75781l1.66015 1.8125m-2.64844-1.55469l1.65625 1.8086m12.60547-2.21485l-6.71875 2.05469m6.71875-2.05469l1.73438 1.73438m-2.71094-1.4336l.86719.86719m13.33984-1.41797l-6.54687 2.55469m6.54687-2.55469l1.85938 1.60156m-2.8125-1.23047l.92968.80079m13.48438-.69532l-6.83984 1.60156m6.83984-1.60156l1.61719 1.84766m-2.61328-1.61328l.80859.92187m13.58984-.1211l-7.01172-.47265m7.01172.47266l1.00391 2.23828m12.01562-1.04688l-6.42187-2.85156m5.48828 2.4375l.08594 1.22266m13.96094-.41797l-6.01954-3.63281m5.14063 3.10156l-.0664 1.22656m14.73827-2.10156l-6.97656-.82422m6.97656.82422l.89063 2.28906m12.33594-1.8125l-6.80078-1.77344m6.80078 1.77344l.5664 2.38672"/><g clip-path="url(#al)"><path fill="none" stroke="#000" stroke-linecap="round" stroke-linejoin="round" stroke-miterlimit="10" stroke-width=".5" d="M145.13672 363.8164l-2.27344-6.64843"/></g><g clip-path="url(#am)"><path fill="none" stroke="#000" stroke-linecap="round" stroke-linejoin="round" stroke-miterlimit="10" stroke-width=".5" d="M145.13672 363.8164l-1.67578 1.79298"/></g><g clip-path="url(#an)"><path fill="none" stroke="#000" stroke-linecap="round" stroke-linejoin="round" stroke-miterlimit="10" stroke-width=".5" d="M144.8086 362.85156l-1.6797 1.78906"/></g><path fill="none" stroke="#000" stroke-linecap="round" stroke-linejoin="round" stroke-miterlimit="10" stroke-width=".5" d="M159.41797 363.3086l-4.20703-5.62891m4.20703 5.6289l-1.04688 2.21875m.4336-3.03906l-1.04297 2.21875m15.50781-1.89453l-5.27734-4.64063m5.27734 4.64063l-.5664 2.38672m-.20313-3.0625l-.28125 1.19531m15.15234-2.0664l-6.85156-1.54688m6.85156 1.54688l.64844 2.36718m-1.64453-2.58984l.64453 2.36719m13.65625-2.08985l-6.83203-1.65625m6.83203 1.65625l.60938 2.3789m-1.60547-2.62108l.60937 2.3789m-1.60156-2.61719l.30469 1.1875m14.80469-.1328l-6.44141-2.8047m6.4414 2.8047l.19141 2.44921m-1.1289-2.85547l.1914 2.44531m14.35156-3.51562l-7.02343.15234m7.02343-.15234l1.19922 2.14062m-2.21875-2.11718l1.19531 2.14062m13.03516-1.23828l-6.8164-1.69922m6.8164 1.69922l.59766 2.3789m-1.58985-2.6289l.59766 2.38281m13.76172-2.375l-6.92188-1.21484m6.92188 1.21484l.76172 2.33203m-1.76953-2.5078l.76172 2.33202m13.5703-3.3086l-6.9414 1.08985m6.9414-1.08984l1.47657 1.96094m-2.48437-1.8047l1.47265 1.96095m12.50781-3.1797l-6.2539 3.21095m6.2539-3.21094l2.01172 1.40234m-2.92187-.9336l2.01562 1.40235m12.34375-1.57422l-6.52343 2.6172m6.52343-2.6172l1.875 1.58204m-2.82422-1.19922l1.875 1.58203m12.51954-1.57813l-6.78125 1.84375m6.78125-1.84375l1.67968 1.78906m-2.66797-1.51953l.83985.89454m13.42969-1.27735l-6.71485 2.07031m6.71485-2.0703l1.73828 1.73437m-2.71485-1.4336l1.73828 1.73438m11.82813-3.32813l-5.26172 4.65625m5.26172-4.65625l2.29687.85938m-3.0625-.17969l1.14844.42969m13.4414-.35156l-6.28515 3.14062m6.28516-3.14063l2 1.42188m-2.91406-.96484l2 1.42187m12.52343-1.05078l-6.8711 1.48438m6.8711-1.48438l1.58203 1.875m-2.58203-1.66016l1.58203 1.875m12.76563-1.92187l-6.9336 1.15234m6.9336-1.15234l1.48828 1.94922m-2.5-1.78125l1.49219 1.94922m12.58594-2.94922l-6.4375 2.8125m6.4375-2.8125l1.92187 1.52344m-2.85937-1.11329l1.92578 1.52344m-2.86328-1.11328l.96484.76172m14.1914-1.65235l-6.37109 2.95704m6.3711-2.95704l1.95703 1.48047m-2.88282-1.05078l1.95704 1.48047m12.42968-1.54297l-6.66406 2.22266m6.66406-2.22266l1.78125 1.6914m-2.75-1.36718l.89063.84375m13.57422.01172l-7.02344-.14063m7.02344.14063l1.10937 2.1875m12.1914-1.9414l-6.99609-.63282m5.98047.54297l.47657 1.1289m12.77343 1.19532l-4.83203-5.10156m4.1289 4.35937l-.39062 1.16406m15.5-3.11718l-7.01953.28906m6-.2461l.6211 1.0586"/><g clip-path="url(#ao)"><path fill="none" stroke="#000" stroke-linecap="round" stroke-linejoin="round" stroke-miterlimit="10" stroke-width=".5" d="M144.29688 350.67969l-.59375-7.0039"/></g><g clip-path="url(#ap)"><path fill="none" stroke="#000" stroke-linecap="round" stroke-linejoin="round" stroke-miterlimit="10" stroke-width=".5" d="M144.29688 350.67969l-2.0625 1.33203"/></g><g clip-path="url(#aq)"><path fill="none" stroke="#000" stroke-linecap="round" stroke-linejoin="round" stroke-miterlimit="10" stroke-width=".5" d="M144.21094 349.66016l-2.0625 1.33203"/></g><path fill="none" stroke="#000" stroke-linecap="round" stroke-linejoin="round" stroke-miterlimit="10" stroke-width=".5" d="M157.9336 350.63672l-1.23829-6.91797m1.23828 6.91797l-1.92968 1.51562m1.75-2.52343l-1.9297 1.51562m16.88282-1.13281l-4.15234-5.66797m4.15234 5.66797l-1.0664 2.21094m.46093-3.03516l-.53125 1.10547m13.63281.16797l-2.51562-6.5625m2.51563 6.5625l-1.61329 1.84765m1.2461-2.80468l-.80469.92578m14.78125-.09766l-3.10547-6.30469m3.10547 6.3047l-1.4336 1.98827m.98048-2.90625l-.71485.9961m15.39844-.73438l-4.9375-4.9961m4.9375 4.9961l-.73047 2.34375m.01563-3.07031l-.3672 1.17187m15.33985-2.09765l-6.82031-1.6875m6.82031 1.6875l.59766 2.3789m-1.58985-2.625l.59766 2.37891m13.78516-2.53516l-6.97266-.88671m6.97266.88671l.87109 2.29297m-1.88672-2.42187l.8711 2.29297m13.40625-1.84766l-6.86329-1.51563m6.86328 1.51563l.65625 2.36328m-1.65625-2.58594l.65625 2.36329m13.73829-2.95704l-7.02344.1172m7.02344-.1172l1.1875 2.14454m-2.20703-2.12891l1.1875 2.14844m13.10937-2.64063l-6.94531 1.07031m6.94531-1.0703l1.46484 1.96483m-2.47656-1.8125l1.46875 1.96875m12.46875-3.26953l-6.16797 3.36329m6.16797-3.36329l2.04688 1.35157m-2.94532-.86329l2.05078 1.35157m12.2461-1.67969l-6.33594 3.04297m6.33594-3.04297l1.97656 1.45313m-2.89844-1.01172l.98828.72656m13.51172 1.10547l-6.86328-1.5039m6.86328 1.5039l.66016 2.36328m-1.66016-2.58203l.33203 1.1836m13.8672-2.875l-6.63282 2.3164m6.63281-2.3164l1.80469 1.66796m-2.76953-1.32813l.90234.83204m12.79297-2.22266l-5.46484 4.41797m5.46484-4.41797l2.25781.96094m-3.05078-.3164l1.1289.47655m13.51954-.19921l-6.54297 2.57421m6.54297-2.57421l1.86328 1.59765m-2.8164-1.22265l1.86328 1.59375m12.64453-.81641l-7.02344.26953m7.02344-.26953l1.23437 2.1211m-2.25781-2.08204l1.23437 2.1211m-2.2539-2.08204l.61719 1.0625m14.64843-1.82421l-6.83593 1.63671m6.83593-1.63671l1.625 1.83984m-2.62109-1.60156l1.625 1.83984m-2.6211-1.60156l1.62891 1.83984m13.36328-3.14453l-6.20703 3.29297m6.20703-3.29297l2.03516 1.375m-2.9375-.89453l2.03125 1.375m-2.9336-.89844l2.03126 1.375m13.08203-2.34375l-6.19532 3.3164m6.19532-3.3164l2.03906 1.36719m-2.9375-.88281l2.03516 1.36718m-2.9375-.88671l1.01953.68359m14.25-1.32031l-6.5039 2.66015m6.5039-2.66015l1.88672 1.5664m-2.83204-1.17969l1.88672 1.57032m12.58985-1.1914l-6.9336 1.1328m6.9336-1.1328l1.48828 1.94921m-2.4961-1.78516l.7422.97657m13.59765-1.02344l-6.96875.89453m6.96875-.89453l1.42187 2m-2.43359-1.8711l.70703 1m13.58984-1.33203l-6.90625 1.30079"/><g clip-path="url(#ar)"><path fill="none" stroke="#000" stroke-linecap="round" stroke-linejoin="round" stroke-miterlimit="10" stroke-width=".5" d="M467.01563 346.52734l1.53125 1.91407"/></g><g clip-path="url(#as)"><path fill="none" stroke="#000" stroke-linecap="round" stroke-linejoin="round" stroke-miterlimit="10" stroke-width=".5" d="M144.30469 337.36328l-.60938-7"/></g><g clip-path="url(#at)"><path fill="none" stroke="#000" stroke-linecap="round" stroke-linejoin="round" stroke-miterlimit="10" stroke-width=".5" d="M144.30469 337.36328l-2.0586 1.33594"/></g><g clip-path="url(#au)"><path fill="none" stroke="#000" stroke-linecap="round" stroke-linejoin="round" stroke-miterlimit="10" stroke-width=".5" d="M144.21484 336.34375l-1.02734.66797"/></g><path fill="none" stroke="#000" stroke-linecap="round" stroke-linejoin="round" stroke-miterlimit="10" stroke-width=".5" d="M157.69531 337.35547l-.76172-6.98438m.76172 6.98438l-2.02734 1.3789m1.91797-2.39453l-2.02735 1.37891m16.27735-.55469l-2.41406-6.60156m2.41406 6.60156l-1.63672 1.82422m1.28516-2.78515l-1.63672 1.82421m14.61328-.6875l-1.03125-6.95312m1.03125 6.95312l-1.97656 1.45704m1.82421-2.46875l-1.97265 1.45703m1.82422-2.46875l-.98828.72656m14.10937 1.33203l-.04297-7.02344m.04297 7.02344l-2.15625 1.16797m2.15234-2.1875l-2.16015 1.16406m2.15234-2.1875l-1.07812.58203m16.35156.85938l-3.9375-5.82031m3.9375 5.8203l-1.14844 2.16798m.57813-3.01563l-1.14844 2.16797m.57422-3.01563l-.57422 1.08594m16.5-1.55469l-6.86719-1.49218m6.86719 1.49219l.66406 2.35937m-1.66406-2.57813l.66797 2.36329m-1.66797-2.57813l.33594 1.17969m15.05859-1.5664l-7.02734.14843m7.02734-.14844l1.19531 2.14063m-2.21875-2.1211l1.19922 2.14454m-2.21875-2.1211l.59766 1.07031m14.6875-1.74609l-6.88281 1.41406m6.8828-1.41406l1.56641 1.89063m-2.5664-1.6836l1.5625 1.88672m-2.5625-1.6836l.78125.94532m14.4336-1.74219l-6.6797 2.1875m6.6797-2.1875l1.76952 1.69922m-2.74218-1.38281l1.76953 1.69922m12.63672-1.53516l-6.91797 1.22656m6.91797-1.22656l1.51562 1.92969m-2.52344-1.7539l1.51563 1.93358m-2.51953-1.7539l.7539.96484m14.40235-1.9414l-6.57813 2.46875m6.57813-2.46875l1.83984 1.625m-2.79687-1.26563l1.83984 1.625m12.21484-2.45703l-6.14062 3.41406m6.14062-3.41406l2.0586 1.33203m-2.95313-.83594l2.0625 1.33204m12.52344-.80079l-6.89453 1.35938m6.89453-1.35938l1.55078 1.90235m-2.55469-1.70313l1.55078 1.90235m12.8086-.98438l-6.97266-.875m6.97266.875l.8711 2.29297m-1.88673-2.42188l.4375 1.14844m13.77344-2.45703l-6.73828 1.9961m6.73828-1.9961l1.72266 1.75m11.0625-2.82031l-5.67578 4.14062m5.67578-4.14062l2.20703 1.07031m11.74219.45703l-6.94141 1.08594m6.9414-1.08594l1.47266 1.96094m-2.48437-1.80469l.73828.98047m13.27344-2.13672l-6.3125 3.08594m6.3125-3.08594l1.98437 1.4375m-2.90234-.98828l.99218.71875m13.41016-.7539l-6.65234 2.2578m6.65234-2.2578l1.78906 1.67968m-2.75781-1.35156l.89453.83984m13.41797-1.08593l-6.70703 2.09375m6.70703-2.09375l1.7461 1.72265m-2.72266-1.41797l1.7461 1.72266m12.5625-1.96094l-6.7461 1.96094m6.7461-1.96094l1.71484 1.75781m-2.69532-1.47265l1.71094 1.75781m-2.6914-1.47265l.85546.8789m14.46094-1.3125l-6.82422 1.6836m6.82422-1.6836l1.63672 1.82813m-2.6289-1.58204l1.63671 1.82813m-2.6289-1.58203l.8164.91406m14.5039-1.3086l-6.86718 1.4922m6.86719-1.4922l1.58594 1.875m-2.58594-1.65624l1.58594 1.8711m-2.58204-1.65626l.78907.9375m14.36328-1.89453l-6.55078 2.53906"/><g clip-path="url(#av)"><path fill="none" stroke="#000" stroke-linecap="round" stroke-linejoin="round" stroke-miterlimit="10" stroke-width=".5" d="M466.83594 332.59375l1.85937 1.60156"/></g><path fill="none" stroke="#000" stroke-linecap="round" stroke-linejoin="round" stroke-miterlimit="10" stroke-width=".5" d="M465.88281 332.96094l1.85938 1.60547m-2.8125-1.23438l.92969.80078"/><g clip-path="url(#aw)"><path fill="none" stroke="#000" stroke-linecap="round" stroke-linejoin="round" stroke-miterlimit="10" stroke-width=".5" d="M145.23438 323.83594l-2.46875-6.57813"/></g><g clip-path="url(#ax)"><path fill="none" stroke="#000" stroke-linecap="round" stroke-linejoin="round" stroke-miterlimit="10" stroke-width=".5" d="M145.23438 323.83594l-1.625 1.83984"/></g><g clip-path="url(#ay)"><path fill="none" stroke="#000" stroke-linecap="round" stroke-linejoin="round" stroke-miterlimit="10" stroke-width=".5" d="M144.875 322.8789l-.8125.92188"/></g><path fill="none" stroke="#000" stroke-linecap="round" stroke-linejoin="round" stroke-miterlimit="10" stroke-width=".5" d="M158.78125 323.74219l-2.9336-6.38672m2.9336 6.38672l-1.48828 1.94922m1.0625-2.87891l-1.48828 1.94922m15.30469-1.05469l-3.08204-6.3164m3.08203 6.3164l-1.4414 1.98438m.99219-2.90625l-1.44141 1.98828m.99219-2.90625l-.71875.99219m14.09765 1.1289l-1.41797-6.88281m1.41797 6.88281l-1.88672 1.5664m1.6836-2.5664l-1.89063 1.5664m1.6836-2.5664l-.94531.78125m16.1289.54688l-4.33203-5.53516m4.33203 5.53516l-.9961 2.24218m.3672-3.05078l-.9961 2.2461m.36328-3.05079l-.4961 1.1211m16.08595-.77735l-6.35547-2.99609m6.35547 2.9961l.11718 2.44921m-1.04297-2.88671l.1172 2.45312m-1.04298-2.88672l.0625 1.22266m15.39844-1.32422l-6.94531-1.05078m6.94531 1.05078l.8164 2.3125m-1.82421-2.46485l.8125 2.3125m-1.82422-2.46875l.8125 2.31641m14.49219-3.23828l-6.88672 1.40625m6.88672-1.40625l1.5625 1.89453m-2.5664-1.6875l1.5625 1.89063m-2.5625-1.6875l.78124.9453m14.42578-1.76952l-6.66015 2.23828m6.66015-2.23828l1.78125 1.6875m-2.75-1.36328l1.78125 1.6875M267 319.01953l-6.32813 3.0586M267 319.01952l1.98047 1.44531m-2.90235-1.0039l.98829.72656m13.5-.46094l-6.83203 1.64063m6.83203-1.64063l1.625 1.83985m-2.6172-1.60157l1.625 1.83985m12.73829-1.79688l-6.94531 1.07813m6.94531-1.07813l1.46875 1.96485m-2.48047-1.8047l.73828.98048m13.38672-1.88672l-6.53906 2.57422m6.53906-2.57422l1.86328 1.59375m-2.8164-1.21875l.93359.79687m13.30469-1.24609l-6.48047 2.72266m6.48047-2.72266l1.89844 1.55078m-2.83985-1.15625l1.89844 1.55469m12.36719-1.92188l-6.5 2.66797m6.5-2.66797l1.89062 1.56641m-2.83594-1.17969l1.89063 1.5664m12.46484-1.69921l-6.6875 2.15625m6.6875-2.15625l1.76172 1.71094m-2.73437-1.39453l.8789.85156m13.46485-.97266l-6.80079 1.76563m5.8125-1.50781l.82813.90234m13.20313-1.8789l-6.25391 3.20312m6.2539-3.20313l2.01172 1.40235m10.67579-2.26563l-5.00391 4.9336m5.0039-4.9336l2.34375.73438m-3.0703-.01563l1.17187.36328m12.65625-1.28515l-4.57422 5.33593m4.57422-5.33593l2.39453.53515m-3.0586.24219l1.19532.26953m13.74219.27344l-6.48829 2.69922m5.54297-2.3086l.94922.78125m13.05078 2.03125l-5.96875-3.71093m5.09766 3.17187l-.08203 1.22266m11.28125-6.05078v7.02734m0-7.02734l2.16797-1.15235m13.18359 1.80078l-4.0664 5.73047m4.0664-5.73047l2.4336.3125m-3.02735.51954l1.21875.15625m13.6289 0l-5.9453 3.75"/><g clip-path="url(#az)"><path fill="none" stroke="#000" stroke-linecap="round" stroke-linejoin="round" stroke-miterlimit="10" stroke-width=".5" d="M466.53516 318.67188l2.1289 1.21875"/></g><g clip-path="url(#aA)"><path fill="none" stroke="#000" stroke-linecap="round" stroke-linejoin="round" stroke-miterlimit="10" stroke-width=".5" d="M465.66797 319.21875l2.1289 1.21875"/></g><path fill="none" stroke="#000" stroke-linecap="round" stroke-linejoin="round" stroke-miterlimit="10" stroke-width=".5" d="M464.80469 319.76563l1.0625.60937"/><g clip-path="url(#aB)"><path fill="#ff3030" fill-rule="evenodd" d="M433.3164 480.96484h7.69141v-10.14843h-7.6914v10.14843"/></g><path fill="azure" fill-rule="evenodd" d="M435.14844 472.65234h.83594v5.73829h3.1914v.73828h-4.02734v-6.47657"/><path fill="#ff3030" fill-rule="evenodd" d="M362.30469 463.21094h7.6914V453.0625h-7.6914v10.14844"/><path fill="azure" fill-rule="evenodd" d="M364.13672 454.89844h.83203v5.73828h3.19531v.74219h-4.02734v-6.48047"/><path fill="#00f" fill-rule="evenodd" d="M161.88281 458.77344H170.5V448.625h-8.61719v10.14844"/><path fill="azure" fill-rule="evenodd" d="M163.71484 450.45703h.83203v2.82422h3.28907v-2.82422h.83203v6.48047h-.83203v-2.91406h-3.28906v2.91406h-.83204v-6.48047"/><path fill="#ff3030" fill-rule="evenodd" d="M264.66016 449.89453h7.6914V439.75h-7.6914v10.14453"/><path fill="azure" fill-rule="evenodd" d="M266.49219 441.58203h.83203v5.73828h3.19531v.74219h-4.02734v-6.48047"/><path fill="#ff3030" fill-rule="evenodd" d="M198.08203 436.57813h7.69531v-10.14454h-7.6953v10.14454"/><path fill="azure" fill-rule="evenodd" d="M199.91797 428.26563h.83203v5.74218h3.19531v.73828h-4.02734v-6.48046"/><path fill="#ffffe0" fill-rule="evenodd" d="M369.09766 445.6875h22.17968v-10.1914h-22.17968v10.1914"/><path fill-rule="evenodd" d="M372.59766 437.32813h.5078v6.29687h-.78515v-4.49219h-1.38672v-.55469l.5586-.0664.25-.05078.23047-.08985.20312-.14062.17578-.21094.14063-.29687.10547-.39454m4.8125 0l.23046.01954.21875.05468.20704.08985.19921.1211.1836.14843.17187.17578.30079.42188.24218.49218.17969.54688.11328.57812.03906.59375-.03906.58985-.11328.58593-.17969.5547-.24219.5-.30078.42968-.17187.17969-.1836.15234-.19921.125-.20704.08984-.21875.0586-.23046.01953-.22657-.01953-.21875-.0586-.21093-.08984-.19532-.125-.18359-.15234-.17188-.1797-.30078-.42968-.24218-.5-.1797-.55469-.11327-.58593-.03906-.58985h.83593l.02735.5625.08203.5039.125.44532.16406.3711.1914.30078.20704.22265.22265.13672.22657.04688.22656-.04688.22265-.13672.21094-.22265.1914-.30079.16407-.37109.125-.44531.08203-.5039.02735-.5625-.02735-.5625-.08203-.5-.125-.4375-.16406-.36329-.1914-.29297-.21094-.21484-.22266-.13281-.22656-.04297-.22657.04297-.22265.1328-.20703.21485-.19141.29297-.16406.36328-.125.4375-.08203.5-.02735.5625h-.83594l.03907-.59375.11328-.57812.17969-.54688.24218-.49219.30079-.42187.17187-.17578.1836-.14844.1953-.1211.21094-.08984.21875-.05468.22657-.01954m5.09375 0h.5078v6.29688h-.78515v-4.49219h-1.39062v-.55469l.5625-.0664.25-.05078.23047-.08985.20312-.14062.17578-.21094.14063-.29687.10547-.39454m2.82421 2.17579h.78516l.01953-.31641.0586-.28516.10156-.2539.14062-.21485.1797-.17578.22265-.1289.26562-.07813.3086-.02734.23828.01953.22265.0625.20313.10156.17969.14063.14843.17187.11329.20703.07421.23438.02344.26562-.02344.26953-.0625.22266-.11328.1914-.15234.17188-.20313.16406-.24609.16407-.63281.39062-.53906.3125-.4375.3164-.34766.32423-.26172.33593-.1914.35157-.125.37109-.07032.39063-.01953.42187h4.21094v-.74219h-3.33203l.08593-.28515.11329-.23438.14843-.20312.1875-.1797.23047-.17187.27735-.17578.71875-.41797.41406-.20312.34375-.23047.28125-.2539.21875-.26563.16406-.27735.11328-.28515.0625-.28516.01953-.28125-.04297-.38281-.11718-.34766-.19141-.30859-.25-.26172-.30078-.21094-.34766-.16015-.3789-.09766-.40625-.03515-.4336.03515-.39844.09766-.35546.16406-.3047.23438-.25.30468-.18358.375-.1172.44531-.03906.51954"/><path fill="#ffffe0" fill-rule="evenodd" d="M324.59375 472.3164h22.1836V462.125h-22.1836v10.1914"/><path fill-rule="evenodd" d="M328.09375 463.95703h.51172v6.29688h-.78906v-4.48829h-1.38672v-.55859l.5586-.0625.25-.05469.23046-.08984.20313-.14063.17578-.21093.14062-.29297.10547-.39844m4.8164 0l.22657.01953.21875.0586.21094.08593.1953.1211.1836.15234.17188.17578.30078.41797.24219.49219.17968.54687.11329.58204.03906.58984-.03906.59375-.11329.58203-.17968.55469-.2422.5039-.30077.42579-.17188.17968-.1836.15235-.1953.125-.21094.09375-.21875.05468-.22656.01954-.23047-.01954-.21875-.05468-.21094-.09375-.19531-.125-.1836-.15235-.17187-.17969-.30078-.42578-.24219-.5039-.17969-.55469-.11328-.58203-.03906-.59375h.83594l.02734.5625.08203.50781.125.4414.16406.375.19141.30079.21094.21875.22265.13672.22657.04687.22265-.04687.22266-.13672.21094-.21875.1914-.30078.16406-.375.125-.4414.08204-.50782.02734-.5625-.02734-.5625-.08204-.5-.125-.4336-.16406-.36718-.1914-.29297-.21094-.21485-.22266-.1289-.22265-.04688-.22657.04688-.22265.1289-.21094.21485-.1914.29297-.16407.36719-.125.43359-.08203.5-.02734.5625h-.83594l.03906-.58985.11328-.58203.17969-.54687.24219-.49219.30078-.41797.17187-.17578.1836-.15234.19531-.1211.21094-.08593.21875-.0586.23047-.01953m5.08984 0h.50781v6.29688h-.78515v-4.48829h-1.39063v-.55859l.5625-.0625.25-.05469L337.375 465l.20313-.14063.17578-.21093.14062-.29297.10547-.39844m2.82422 2.17578h.78515l.01954-.3164.05859-.28516.10156-.2539.14063-.21485.17969-.17188.22265-.1289.26563-.08203.30859-.02735.23828.02344.22266.0625.20312.10156.17969.13672.14844.17188.11328.20703.07422.23828.02344.26172-.02344.26953-.0625.22656-.11328.1914-.15235.16798-.20312.16406-.2461.16797-.6328.38672-.53907.3125-.4375.3164-.34766.32422-.26172.33594-.1914.35156-.125.3711-.0664.39453-.02345.41797h4.21094v-.7422h-3.33203l.08594-.28124.11328-.23828.14844-.20313.1875-.17969.23046-.17187.27735-.17578.71875-.41406.41406-.20704.34375-.23046.28125-.25.21875-.26954.16406-.27734.11329-.28125.0625-.28515.01953-.28125-.03907-.38672-.12109-.34766-.1914-.30469-.25-.26562-.30079-.21094-.34765-.16016-.37891-.09765-.40625-.03516-.4336.03516-.39843.09765-.35547.16797-.30469.23438-.25.30469-.1836.37109-.11718.44922-.03906.51562"/><path fill="#ffffe0" fill-rule="evenodd" d="M319.55078 375.00781h22.1836v-10.1914h-22.1836v10.1914"/><path fill-rule="evenodd" d="M323.05078 366.64844h.51172v6.29687h-.78906v-4.49219h-1.38672v-.55468l.5586-.0664.25-.05079.23046-.08984.20313-.14063.17578-.21094.14062-.29687.10547-.39453m4.8125 0l.23047.01953.21875.05469.21094.08984.19531.1211.1836.14843.17187.17578.30078.42188.24219.49219.17969.54687.11328.57813.03906.59375-.03906.58984-.11329.58594-.17968.55468-.24219.5-.30078.4297-.17188.17968-.18359.15234-.19531.125-.21094.08985-.21875.05859-.23047.01953-.22656-.01953-.21875-.0586-.21094-.08984-.19531-.125-.1836-.15234-.17187-.17969-.30078-.42969-.24219-.5-.17969-.55468-.11328-.58594-.03906-.58985h.83594l.02734.5625.08203.50391.125.44531.16406.3711.19141.30078.21094.22265.22265.13672.22266.04688.22656-.04688.22266-.13671.21094-.22266.1914-.30078.16407-.3711.125-.4453.08203-.50392.02734-.5625-.02734-.5625-.08203-.5-.125-.4375-.16407-.36328-.1914-.29296-.21094-.21485-.22266-.13281-.22656-.04297-.22265.04297-.22266.13281-.21094.21485-.1914.29296-.16407.36329-.125.4375-.08203.5-.02734.5625h-.83594l.03906-.59375.11328-.57813.1797-.54688.24218-.49218.30078-.42188.17188-.17578.18359-.14844.19531-.12109.21094-.08984.21875-.0547.22656-.01952m5.09375 0h.50781v6.29687h-.78515v-4.49219h-1.39063v-.55468l.5625-.0664.25-.05079.23047-.08984.20313-.14063.17578-.21094.14062-.29687.10547-.39453m6.80469 1.6211h-.78906l-.05079-.21095-.08203-.1875-.10546-.16015-.12891-.1289-.14844-.10548-.16015-.07422-.16797-.04296-.17188-.01563-.32812.03906-.28907.1211-.24609.1953-.20313.26954-.16015.33594-.11719.40625-.07031.46484-.02344.52735.1914-.20313.1836-.16016.1875-.12109.1836-.08594.1875-.0625.1953-.03515.39844-.02344.3086.02734.32031.09375.3164.15625.29298.21875.2578.28516.19923.34765.07031.20313.05469.21484.02734.23438.0039.2539-.78515.04688-.02734-.26172-.07813-.25-.1211-.23437-.16015-.21094-.19531-.17578-.21875-.13672-.24219-.08985-.2539-.03125-.25391.03125-.24219.08985-.21875.13672-.1914.17578-.16407.21094-.12109.23437-.07813.25-.02734.26172.02735.25781.07812.25.1211.23438.16406.21094.1914.17968.21875.13672.24219.08594.2539.03125.25391-.03125.24219-.08594.21875-.13672.19531-.17969.16016-.21093.1211-.23438.07812-.25.02734-.25781.78516-.04688-.03125.3711-.08985.3711-.16015.35937-.22266.32812-.28906.28125-.16797.1211-.1914.10156-.20313.08203-.22656.0625-.23829.03906-.26171.01172-.28125-.01562-.26172-.04688-.23828-.07812-.21485-.10547-.19531-.1289-.17188-.15626-.15625-.17969-.13671-.20312-.11329-.22266-.10156-.24219-.14453-.53515-.08594-.59375-.02734-.64063.03906-.74218.11328-.66407.1875-.57812.1211-.2539.13672-.23048.15234-.20703.16797-.1836.1875-.15624.20312-.1289.21875-.10157.23047-.07422.25-.04297.26172-.01562.36328.03515.33203.09375.29688.15235.25781.19922.21094.24218.16406.27344.11719.30078.0625.32422"/><path fill="#ffffe0" fill-rule="evenodd" d="M204.15625 366.03516h22.17969v-10.19141h-22.17969v10.1914"/><path fill-rule="evenodd" d="M207.65234 357.67578h.51172v6.29297h-.78906v-4.48828h-1.38672v-.55469l.5586-.0664.2539-.0547.23047-.08984.20313-.14062.17187-.21094.14063-.29297.10546-.39453m4.81641 0l.23047.01953.21875.05469.20703.08984.19531.1211.1836.14844.17187.17578.30078.41796.2461.4961.17968.54687.10938.57813.03906.58984-.03906.59375-.10938.58594-.17968.55078-.2461.5039-.30078.4297-.17187.17968-.1836.15235-.19531.12109-.20703.09375-.21875.05469-.23047.02344-.23047-.02344-.21875-.05469-.20703-.09375-.19531-.1211-.1875-.15234-.16797-.17969-.30469-.42968-.24219-.5039-.17968-.55079-.11328-.58594-.03516-.59375h.83203l.02734.5625.08203.50781.125.44141.16407.375.1914.30078.21094.22266.22266.13672.22656.04687.22656-.04687.22266-.13672.21094-.22266.1914-.30078.16016-.375.125-.4414.08203-.50782.03125-.5625-.03125-.5586-.08203-.5039-.125-.4336-.16016-.36718-.1914-.29297-.21094-.21094-.22266-.1328-.22656-.04298-.22656.04297-.22266.13281-.21094.21094-.1914.29297-.16406.36719-.125.4336-.08204.5039-.02734.5586h-.83203l.03516-.58985.11328-.57813.17968-.54687.2422-.4961.30468-.41796.16797-.17579.1875-.14843.19531-.1211.20703-.08984.21875-.05469.23047-.01953m5.08984 0h.51172v6.29297h-.78906v-4.48828h-1.38672v-.55469l.5586-.0664.2539-.0547.22656-.08984.20313-.14062.17578-.21094.14063-.29297.10546-.39453m6.8047 1.6211h-.78517l-.05468-.21485-.07813-.1875-.10937-.15625-.1289-.13281-.14845-.10156-.16015-.07422-.16797-.04688-.17188-.01172-.32812.03907-.28516.12109-.2461.19531-.20702.26563-.16016.33984-.11328.40235-.07031.46875-.02344.52734.1875-.20313.1875-.16015.1836-.1211.1875-.08984.1875-.0586.1914-.03906.40234-.02343.3047.03125.3203.09375.31641.15234.29688.21875.2539.28516.19922.35156.07422.19922.05078.21875.02734.23437.00782.25-.78907.04688-.02734-.25781-.07813-.25-.12109-.23438-.16016-.21094-.1953-.17969-.21876-.13671-.23828-.08594-.25781-.03125-.2539.03125-.23829.08594-.22266.13671-.1914.1797-.16016.21093-.125.23438-.07422.25-.02734.2578.02734.26173.07422.25.125.23437.16016.21094.1914.17578.22266.13672.23828.08984.2539.03125.25782-.03125.23828-.08984.21875-.13672.19531-.17578.16016-.21094.1211-.23437.07812-.25.02734-.26172.78907-.04688-.03125.3711-.09375.375-.15625.35546L224 363.5l-.28906.28516-.17188.11718-.1875.10157-.20703.08593-.22266.0586-.24218.03906-.26172.01563-.28125-.01954-.26172-.04687-.23828-.07422-.21484-.10547-.19532-.13281-.17187-.15625-.15625-.17969-.13281-.20312-.1172-.22266-.09765-.23828-.14844-.53516-.08593-.59375-.02735-.64062.03906-.74219.11329-.66406.1875-.57813.12109-.2539.13672-.23438.15234-.20703.17188-.17969.1836-.15625.20312-.1289.21875-.10157.23437-.07421.2461-.04297.26171-.01563.3672.03125.33202.09766.29297.15234.25781.19922.21094.23828.16406.27735.1172.30078.0625.32421"/><path fill="#ffffe0" fill-rule="evenodd" d="M346.1836 327.4375h22.1328v-10.19531h-22.1328v10.19531"/><path fill-rule="evenodd" d="M349.6836 319.07813h.5078v6.29296h-.78906v-4.48828h-1.38671v-.55469l.55859-.0664.2539-.05469.23047-.08984.20313-.14063.17187-.21094.14063-.29296.10937-.39454m4.8125 0l.23047.01563.21875.0586.20703.08984.19532.1211.18359.14843.17188.17578.30078.41797.24609.4961.17969.54296.10937.58203.03906.58985-.03906.59375-.10937.58203-.17969.55469-.2461.5039-.30077.42578-.17188.17969-.1836.15625-.1953.1211-.20704.09374-.21875.0547-.23047.01952-.23046-.01953-.21875-.05469-.20704-.09375-.1953-.12109-.1875-.15625-.16798-.17969-.30469-.42578-.24218-.5039-.17969-.5547-.11328-.58202-.03516-.59375h.83203l.02735.5625.08203.5078.1289.44142.16016.375.1914.30078.21094.22265.22266.13672.22656.04688.22657-.04688.22265-.13672.21094-.22265.1914-.30079.16016-.375.125-.4414.08203-.50781.03125-.5625-.03125-.5625-.08203-.5-.125-.4336-.16015-.36719-.19141-.29296-.21094-.21485-.22265-.1289-.22657-.04688-.22656.04688-.22265.1289-.21094.21485-.1914.29296-.16017.3672-.1289.43359-.08203.5-.02735.5625h-.83203l.03516-.58985.11328-.58203.17969-.54297.24219-.4961.30468-.41796.16797-.17578.1875-.14844.19531-.1211.20704-.08984.21875-.05859.23046-.01563m2.96094 2.17188h.78906l.01954-.3125.05859-.28906.09765-.25.14063-.21875.17969-.17188.22656-.1289.26172-.08204.3086-.02734.23827.02344.22657.0625.20312.10156.17969.13672.14844.17578.11328.20313.07031.23828.02344.26172-.01953.26953-.06641.22656-.10938.1914-.15625.17188-.19921.16016-.2461.16797-.63672.38671-.53515.3125-.4375.32032-.34766.32422-.26562.33593-.1875.34766-.125.3711-.07032.39452-.01953.41797h4.21094v-.74218h-3.33203l.08203-.28125.11328-.23829.14844-.19921.1875-.1836.23047-.16797.27734-.17578.71875-.41797.41406-.20703.34766-.23047.28125-.25.21875-.26562.16406-.28125.10938-.28125.0664-.28516.01954-.28125-.04297-.38281-.1211-.34766-.1875-.30859-.25-.26563-.30469-.21093-.34375-.16016-.3828-.09765-.40626-.03125-.4336.03125-.39843.09765-.35547.16797-.30469.23438-.24609.30468-.1875.375-.11719.44531-.03906.51563m6.94531-2.17188l.22657.01563.21875.0586.21093.08984.19532.1211.18359.14843.17188.17578.30078.41797.24218.4961.1797.54296.11327.58203.03906.58985-.03906.59375-.11328.58203-.17969.55469-.24218.5039-.30079.42578-.17187.17969-.1836.15625-.1953.1211-.21094.09374-.21875.0547-.22657.01952-.23046-.01953-.21875-.05469-.20704-.09375-.19921-.12109-.1836-.15625-.17187-.17969-.30079-.42578-.24218-.5039-.17969-.5547-.11328-.58202-.03906-.59375h.83593l.02735.5625.08203.5078.125.44142.16406.375.1914.30078.21094.22265.22266.13672.22656.04688.22657-.04688.22265-.13672.20703-.22265.19141-.30079.16406-.375.125-.4414.08203-.50781.02735-.5625-.02735-.5625-.08203-.5-.125-.4336-.16406-.36719-.1914-.29296-.20704-.21485-.22265-.1289-.22657-.04688-.22656.04688-.22265.1289-.21094.21485-.1914.29296-.16407.3672-.125.43359-.08203.5-.02735.5625h-.83593l.03906-.58985.11328-.58203.17969-.54297.24219-.4961.30078-.41796.17187-.17578.1836-.14844.19921-.1211.20704-.08984.21875-.05859.23046-.01563"/></g></defs><use xlink:href="#aC"/></svg>