<svg xmlns="http://www.w3.org/2000/svg" role="img" xmlns:xlink="http://www.w3.org/1999/xlink" viewBox="142.45 309.95 326.84 171.84"><defs><clipPath id="a"><path d="M144 311.67188h1v168.65625h-1zm0 0"/></clipPath><clipPath id="b"><path d="M144 311.67188h324v168.65625H144zm0 0"/></clipPath><clipPath id="c"><path d="M467 311.67188h1v168.65625h-1zm0 0"/></clipPath><clipPath id="d"><path d="M144 479h4v1.32813h-4zm0 0"/></clipPath><clipPath id="e"><path d="M147 479h3v1.32813h-3zm0 0"/></clipPath><clipPath id="f"><path d="M146 479h3v1.32813h-3zm0 0"/></clipPath><clipPath id="g"><path d="M153 479h8v1.32813h-8zm0 0"/></clipPath><clipPath id="h"><path d="M160 479h3v1.32813h-3zm0 0"/></clipPath><clipPath id="i"><path d="M159 479h3v1.32813h-3zm0 0"/></clipPath><clipPath id="j"><path d="M167 478h8v2.32813h-8zm0 0"/></clipPath><clipPath id="k"><path d="M173 478h4v2.32813h-4zm0 0"/></clipPath><clipPath id="l"><path d="M172 479h4v1.32813h-4zm0 0"/></clipPath><clipPath id="m"><path d="M180 478h8v2.32813h-8zm0 0"/></clipPath><clipPath id="n"><path d="M186 478h4v2.32813h-4zm0 0"/></clipPath><clipPath id="o"><path d="M185 479h3v1.32813h-3zm0 0"/></clipPath><clipPath id="p"><path d="M193 478h8v2.32813h-8zm0 0"/></clipPath><clipPath id="q"><path d="M200 478h3v2.32813h-3zm0 0"/></clipPath><clipPath id="r"><path d="M199 478h2v2.32813h-2zm0 0"/></clipPath><clipPath id="s"><path d="M207 478h8v2.32813h-8zm0 0"/></clipPath><clipPath id="t"><path d="M213 478h3v2.32813h-3zm0 0"/></clipPath><clipPath id="u"><path d="M212 479h3v1.32813h-3zm0 0"/></clipPath><clipPath id="v"><path d="M220 478h8v2.32813h-8zm0 0"/></clipPath><clipPath id="w"><path d="M226 478h4v2.32813h-4zm0 0"/></clipPath><clipPath id="x"><path d="M225 479h3v1.32813h-3zm0 0"/></clipPath><clipPath id="y"><path d="M233 478h8v2.32813h-8zm0 0"/></clipPath><clipPath id="z"><path d="M240 478h3v2.32813h-3zm0 0"/></clipPath><clipPath id="A"><path d="M247 478h7v2.32813h-7zm0 0"/></clipPath><clipPath id="B"><path d="M260 478h8v2.32813h-8zm0 0"/></clipPath><clipPath id="C"><path d="M274 477h6v3.32813h-6zm0 0"/></clipPath><clipPath id="D"><path d="M287 477h7v3.32813h-7zm0 0"/></clipPath><clipPath id="E"><path d="M301 477h6v3.32813h-6zm0 0"/></clipPath><clipPath id="F"><path d="M314 477h6v3.32813h-6zm0 0"/></clipPath><clipPath id="G"><path d="M328 477h5v3.32813h-5zm0 0"/></clipPath><clipPath id="H"><path d="M341 477h6v3.32813h-6zm0 0"/></clipPath><clipPath id="I"><path d="M354 477h6v3.32813h-6zm0 0"/></clipPath><clipPath id="J"><path d="M367 477h7v3.32813h-7zm0 0"/></clipPath><clipPath id="K"><path d="M380 478h8v2.32813h-8zm0 0"/></clipPath><clipPath id="L"><path d="M385 478h3v2.32813h-3zm0 0"/></clipPath><clipPath id="M"><path d="M393 478h8v2.32813h-8zm0 0"/></clipPath><clipPath id="N"><path d="M407 477h7v3.32813h-7zm0 0"/></clipPath><clipPath id="O"><path d="M420 478h8v2.32813h-8zm0 0"/></clipPath><clipPath id="P"><path d="M425 479h3v1.32813h-3zm0 0"/></clipPath><clipPath id="Q"><path d="M433 478h8v2.32813h-8zm0 0"/></clipPath><clipPath id="R"><path d="M438 478h3v2.32813h-3zm0 0"/></clipPath><clipPath id="S"><path d="M447 478h7v2.32813h-7zm0 0"/></clipPath><clipPath id="T"><path d="M460 478h7v2.32813h-7zm0 0"/></clipPath><clipPath id="U"><path d="M466 478h2v2.32813h-2zm0 0"/></clipPath><clipPath id="V"><path d="M144 465h4v4h-4zm0 0"/></clipPath><clipPath id="W"><path d="M466 466h2v4h-2zm0 0"/></clipPath><clipPath id="X"><path d="M144 452h4v4h-4zm0 0"/></clipPath><clipPath id="Y"><path d="M465 451h3v2h-3zm0 0"/></clipPath><clipPath id="Z"><path d="M144 439h4v3h-4zm0 0"/></clipPath><clipPath id="aa"><path d="M144 426h4v2h-4zm0 0"/></clipPath><clipPath id="ab"><path d="M144 413h4v2h-4zm0 0"/></clipPath><clipPath id="ac"><path d="M466 412h2v3h-2zm0 0"/></clipPath><clipPath id="ad"><path d="M144 399h4v3h-4zm0 0"/></clipPath><clipPath id="ae"><path d="M466 398h2v3h-2zm0 0"/></clipPath><clipPath id="af"><path d="M144 385h4v4h-4zm0 0"/></clipPath><clipPath id="ag"><path d="M466 386h2v4h-2zm0 0"/></clipPath><clipPath id="ah"><path d="M144 371h4v6h-4zm0 0"/></clipPath><clipPath id="ai"><path d="M466 373h2v3h-2zm0 0"/></clipPath><clipPath id="aj"><path d="M144 357h3v7h-3zm0 0"/></clipPath><clipPath id="ak"><path d="M144 343h2v8h-2zm0 0"/></clipPath><clipPath id="al"><path d="M144 350h2v3h-2zm0 0"/></clipPath><clipPath id="am"><path d="M144 349h2v2h-2zm0 0"/></clipPath><clipPath id="an"><path d="M466 346h2v3h-2zm0 0"/></clipPath><clipPath id="ao"><path d="M144 330h1v8h-1zm0 0"/></clipPath><clipPath id="ap"><path d="M144 337h1v2h-1zm0 0"/></clipPath><clipPath id="aq"><path d="M144 336h1v2h-1zm0 0"/></clipPath><clipPath id="ar"><path d="M466 332h2v3h-2zm0 0"/></clipPath><clipPath id="as"><path d="M144 316h1v9h-1zm0 0"/></clipPath><clipPath id="at"><path d="M144 323h1v3h-1zm0 0"/></clipPath><clipPath id="au"><path d="M144 322h1v2h-1zm0 0"/></clipPath><clipPath id="av"><path d="M466 318h2v2h-2zm0 0"/></clipPath><g id="aw" clip-path="url(#clip1)"><path fill="#fff" fill-opacity="0" fill-rule="evenodd" d="M0 0h1000v1000H0zm0 0"/><path fill="#d3d3d3" fill-opacity="0" fill-rule="evenodd" d="M162.15234 355.86719l-.23437.29297.0586.23437.11718.17188.17578.23437.29297.34766.11328.0586.11719-.17188.0586-.23438.17577-.17578.46485-.17578h.69922l.23437.29297.28906.8164.0586.17579.17578.23046.35156.23438.69922.69922.17188.17578.23437.34765.23438.41016.28906.58203.41015.46485.23047.23437.23438.17578.11719.23047.17578.29297.17187 1.16406v.23438l.0586.28906.05859.11719.11719.11719.34765.41015.11719.17188.17578.17578.17578.23437.11719.17188.17188.35156.05859.23438.23437.40625.23438-.0586-.17578.17578-.0586.92969h-.58203l-.23437-.11328-.34766.11328-.11719.11719-.05859.29297-.0586.17578-.11718.17187-.46484.29297-.0586.23438-.0586.11328v.64453l.0586.17187v.41016l.0586.0586v.40624l.05859.40625.11719.17579.05859.05859.23047.64062-.0586.29297v.69922l-.05859.58203v.23438l-.0586.23047-.05468.35156v1.92187l.05469.1172h.42578l-.36719.11718-.02344.35156.89063 1.16797 1.74219.53906 1.33984.35938v.53906l.08984.8086.53516.71484 1.51953.26953.89063-.08594.08984 1.16406.53516.1797 1.16015-.1797 2.05469-.98437 1.16016-.36328 1.8789-.17578 1.69531-.1797-.17968.71876-1.51563.08594-1.25.08984-.80469.26953-1.07421.8086.26953.71875.53515.89843-.17968.625-.26563.8086.26563 1.07812.625.89844.80468.17969 1.25-.1797-.26562.72267.09766.5039.05468.29297v.17188l.0586.29296v.40625l.17578.1172.35156.11718h.40625l.29297-.17578.11328-.11719.0586-.11719.11718-.23047.0586-.17578.35156-.46484.23047-.17578.17578-.0586.17578.0586.0586.17578.11718.98828.05469.46875.0586.17188.11718.23437.17578.0586.8164.05859h.28907l.11719.23437.05859.40625.0586.35156v1.10547l.11718.29297.11719.34766.28906.69922.17578.35156.58203.7539.35157.17579.17187.0586.46875.23437.64063.46484.34765.23438.29297.17578.29297.05468.23047.0625.8164.34766.29297.17578.11328.17188.35157.35156.11719.17578.52343.64063v.28906l.0586.35156v.34766l.05859.35156.0586.28906.11718.0586.17188.05859h.17578l.58203.23437.17578.1172.17578.28905.17578.23438.11328.23437.29297.23047.11719.11719v.41016l.0586.05468.28906.23438.23437.11719.0586.11718.11718.17188.0586.11719.23047.23437.05859.17578.23437.0586.1172.05859-.1172.11328-.05859.11719v.11719l-.11719.29296-.11719.28907v.58203l.17579.11719.11718.05859.0586.11719.11719.11719.11328.05859.17578.34765.0586.35157.05858.40625v.17578l-.05859.17578-.11719.69922v.17187l.1172.17579.29296.29296h.40625l.17578.1172.11719.17187.11719.29296v.23438h-.52735l-.23047-.23438h-.23437l-.17578.0586-.0586.69922.0586.34765.11719.17579.17578.41015.11718.23047.28907.46875.17578.05469h.52344l.23437.0586.75781.64062.0586.29296v.23438l.05859.0586.23047.34765v.35156l-.11719.17188v.29297l.29297.28906.29297.17578.17187.0586.29297.17577.29297.1172.58203.40624.28906.23438.29297.17578.21875.16015.01563.01172.23047.17579.64062.52343.17578.23438.1172.17578.17577.17578.11328.17188v.64062l.1172.17578.46874.11719.58203.11719.23438.05859.23047.11328.29297.11719.11328.0586.58593.35156.28907.17187.17578.0625.17578.05469.17578.0586.69922.35155.28906.17579.23438.05468.28906.17578.23437.1172.64063.40624.29297.11719.17187.0586.23438.05859.41015.05859.23047.0586.23438.11718.0586.17188-.41017.17578.46875.0586.0586.29296.11328.23438.17578.05468.23438.0586.17578.05859.40625.11719.64062.23437.11719.17188.0586.23437v.17578l-.0586.1172-.0586.40624.23438.23438.11719.05859.34766.11719.64062.23047.17578.11718.28906.1172.17578.17577.23438.46485.58203 1.10546.17578.17579.34766.17578.17578.11719.35156.11718 1.04688.52344.23437.0586.46485.11327.29297.0586.46484.17578.75781.58203.23438.23438.34765.46484.17578.17578.28907.23438.8164.69921.29297.17579.28906.28906.29297.17578.29297.28906.69531.64063.17578.17578.29297.23437.28907.23438.46875.28906.64062.58203.34766.23438.23437.29297.34766.34765.35156.46485.9336.99218.34765.40625.11719.17579.23437.05859.11328.11719.64454.17578.23047.11328.23437.0586.29297.17577.23047.1172.9336.69921.40624.40625.23438.17578.40625.17578.23437.11719.8164.34766.34766.23437.23438.11719.29297.28906.23047.11719.7578.35156.35157.17188.23047.05859.29297.11719.23437.0586.8711.17577h.8164l.46875.23047.17188.0586.875.69921.46484.1172.29297.05858.17578.0586.23047.0586.46875.05859.34766.05859.35156.0586.40625.05859h.29297l.17187.0586v.23046l.17578.17578h.29297l.34766.0586.35156.05859.69922.11719h.64063l.46484-.23438.29297-.17578.17187-.11719.41016-.17187.28906-.17578.9336-.46485.46875-.29297.52343-.29296.46485-.17188.46484-.17578 1.05078-.46485.28906-.11718.41016-.11719.28906-.11719.52735-.17578 1.51562-.69922.58203-.34765.28907-.0586.29297-.0586.34765-.11718.875-.23047.35156-.11719h.11329l.23437-.05859.875-.23437.23438-.0586h.8125l.35156-.0586.8164-.11718.17188-.0586.35156-.05468.29297-.0586.23047-.05859.8164-.17578.17579-.0586h.34765l.23438-.05859.46484-.11718.75781-.17188.23438-.0586h.34765l.41016-.11718.28906-.0586 1.28516-.05859h.28906l.41016-.0586.23047-.05858h.17578l.875-.1172h.40625l.41015-.11718h.34766l.35156-.11328.8711-.0586h1.75l1.04687.28907.41016.11719.28906.11718.35156.11719.28907.11719 1.05078.17187.28906.0586h.29297l.29297.05859.17187.0586.41016.05859.17187.0586.1172.05858h.11718l.11719.0586.35156.0586h.11328l.41016.0664 1.92187.39453 1.92578.39453 1.51953.44922 1.69532.71875 2.14453.80469 1.60547-.71875 1.42968-.80469 1.16016-1.07813 1.25-.44921 3.03516-.71875 1.875-.35938 2.14453-1.34765 2.23437-1.25391 2.5-1.25781 1.69531-.44922 1.78516-.17969 1.16016-.26953.625.53906 1.33984-.26953.71485-.98828.98437-1.34375.44531-.17969.80469-.35937 1.875-.53907 1.78516-.44921 1.25-.26954 1.16015-.08984 1.69922-.08984 1.96094-.26954 1.25-.08984h.53906l.625-.08984h.89063l2.14453-.17969 2.41015-.17969 2.58985-.08984 1.69531.17969 1.60938.08984 1.42968.35938 1.16016.71875 1.875.98828 1.16015 1.52734.26563.71484.6289.08985.35548.89844.53515.53906.53516 1.52734 1.07422.35938h.53515l-.80469.53515.08985 1.70703.71484 2.69532.89063.80468.89453.98829.71484 1.2578 1.78516.53907 1.51953-.17969.35547 1.34375 1.60937-.80469.98047-.53906.26953.26953.31641-.21484.21875-.14453.80078.44922.44922-.35938h.35547l.53515-.26953.53907-.71875.53515-.26953.625-.98828 1.16016.44922.83984.3711 1.39454.61718 1.6953-.17969h1.60548l1.78515.08985.17969-1.70704.53516-1.34375.80468.26954.4922.84765.40233.40625-.08984.53906v.35938l.71485.44922.71093-.26953h1.42969l.35938.98828.4453 1.25781.71485 1.34375 1.25.6289 1.69531.62891.71485-.17969.17969-.53906.98046-.08984.44922.35937.08594 1.25782-.26563.6289-.53515.17969v.53906l.71484.98438.26563.53906.98437.98828.80078 1.07813-.26562.35937-.08985.89844-.625 2.33203-.35546 2.0664-.08985 1.79298-.17969.71875-.08984.53906v1.4375l-.98047 1.88281-.35937 1.70703-.53516.89844-.80469 1.16797-.26562.53906 2.05469 1.2539.08593.35938-.35546.53906-.08985-.17968v.80859l.08985 1.4375-.44532.71484-1.07422.09375-.26562.71485.53515.89844.8047.71875 1.16015.80859 1.33984.26953.44531.35938-.35546.44921-1.78907-.08984-1.25-.44922-.71484-.71875-.625-.08984-.17578 3.58984-.1875 1.3086h89.35937V311.70313h-55.26953v49.08203l.76172.125 3.28906.54296 2.02344 2.83594v2.7539l2.35156.33204 2.34766.33203h4.05078l-1.3789 4.16016-2.02344.70703-2.02344.70312-.54297.34375-2.59375 1.6172-.1875.11718-2.02344-2.07813-.73046-2.74218-2.67188-2.07813-1.375-3.5-.0664-.08203-1.95704-2.67188 2.75-1.41796v-49.08204H294.42187v91.41407l.1172.03125.1328.01172.07422.07421.10547.04688.08985.0586.08593.05859.08985.0586.29687.29687.0586.08984.03125.11719.02734.11719.01563.13671-.03125.1172-.0586.08983-.0586.08594-.04296.10547-.04688.10156-.02734.1211v.14453l.17578.26953.14844.14844.07422.08594.07422.07421.04296.10547.0625.08985.0586.08593.04297.10547.0586.08985.04687.10156.04296.10547.0586.08594.11719.17968.07421.07422.0625.08594.0586.08984.04297.10547.0586.08985.05858.08593.0625.08985.0586.08984.04297.10156.11719.17969.07421.07422.0586.08594.07422.07421.08984.0586.10547.04687h.14844l.1328-.01562.13282.01562.10156-.04687.07422-.07422.04688-.10156-.01563-.13281v-.14844l-.04687-.10547-.02735-.11719-.04687-.10156-.02735-.1211-.04296-.10156-.0625-.08984-.04297-.10156-.04297-.10547-.03125-.11719-.01563-.13281-.01171-.13672.08593-.0586.0586-.08593.12109-.03125.04297.10547.01562.1328v.1172l.0586.10156.0586.08984.08983.0586.14844.14843.0586.08985.04296.10547-.01171.10156.08593.0586.10547.04687.08594.0586.08984.05858.07422.07422-.11719.02735-.10546.04687-.08594.0586-.07422.07421-.0586.08985-.0625.08594-.02734.12109-.04687.10156-.04297.10547-.03125.11719-.01172.13281-.01563.13281v.14844l.02735.11719.04687.10547.04297.10156.0586.08984.07421.07422.08985.0586.07422.07421.08984.0586.0586.08984.04296.10547.04688.10156.11719.03125.1328.01563h.14845l.11718-.03125.10547.04297.04297.10547.04688.10156.02734.1211L299.5 410l.02734.11719.03125.1211.02735.11718.10547.04297.10156.04687.13281-.01562.14844.14844.0625.08593.07422.07422.07031.07422.08984.0625.10547.04297.10156.04297.1172.03125.13671.01562.11719-.03125.07422-.07422.02734-.11718-.01172-.13282-.03125-.12109-.02734-.11719.04297-.10547h.11719l.08984.0625.11719.02735h.14843l.13282.01562h.14843l.13282.01563.1328-.01563h.14845l.1328-.01562.13282-.01172.13672.01172.11719-.02735.13281-.01562.1914-.0586-.05859.17579-.01562.1328-.02735.1211-.01562.13281-.0586.08594-.1328.01563-.10548.04687-.10546.04297-.1172.03125-.11718.02735-.26563.03125h-.14843l-.13281.01562-.07422.07422.05859.08594.14844.14843.11719.1797.07421.0703.08985.0625.08984.0586.08594.0586.08984.05858.10156.04297.10547.0625.10547.04297.08594.0586.10547.04687.10156.04297.17969.11719.0586.08984-.04298.10156-.04687.10547.01562.13281.22266.22266.0586.08985.04296.10156.03125.1211.04297.10155.01563.13282.03125.11718.01171.13672.03125.11719.14844.14844.10156.04297.10547.04296.1172.03125.1328.01563.13672.01563h.11719l.11719-.03125.08984-.0586.04297-.10547.04688-.10156.04296-.10547.03125-.11719.01172-.1328v-.14845l-.01172-.1328-.01562-.13282-.03125-.11719-.04297-.10547-.04688-.10547-.04296-.10156-.04297-.10547-.01563-.13281.01563-.13281.02734-.11719.03125-.11719.02735-.1211.04687-.10155.08984-.0586.08594-.0625.07422-.07422.08984-.05859.22266-.22266.0586-.08593.07421-.07422.11719-.17969.0586-.08594v-.14844l-.07423-.07421-.10156-.04688-.10547-.04297-.10156-.04297-.0586-.08984-.04687-.10547-.02734-.11719.08984-.05859.11719-.03125.10156-.04297.17969-.11719.14844-.14843.01172-.13282-.01172-.10546-.08985-.0586-.1328.01563h-.14845l-.1328.01562-.13282-.01562-.1211-.03125-.08593-.0586-.07422-.07422-.0586-.08984-.0625-.08594-.11718-.17969-.0586-.08593.03125-.1211.08594-.05859.1211-.03125.05859-.08594v-.1211l-.03125-.11718-.0586-.08984-.05859-.08594-.04687-.10547-.02735-.11719-.01562-.1328.0586-.08985.07421-.07422.08984-.0586.1172-.17968.07421-.07422.0586-.08594.14843-.14844.1211-.03125.1328-.01562.13282.01562.07422.07422.04297.10547.01562.13281-.03125.1172-.11719.03124-.1328.01172-.14844.14844-.04297.10547-.04688.10156-.02734.1211-.03125.11718v.14844l.03125.11719.04297.10546.05859.08985.07422.07031.07422.07422.11719.03125.12109.02734.11719-.02734.1328-.01563h.1172l.08984.0586.07422.07422.04687.10546.0586.08594.10156.04688.13281.01562.10547.04297.08594.0586-.01172.10546-.07422.07422-.17969.11719-.05859.08984-.08984.0586-.07032.07422-.07421.07421-.0625.08985-.02735.11719-.01562.1328.01562.13282-.01562.13281v.14844l.01562.13281.02735.1172.03125.12108.07421.07422.08985.0586.08594.0586.08984.05858.11719.03125v.08594l-.10157.04688-.08984.0586-.26563.03124-.11718.02735h-.14844l-.10547.04296-.10156.04688-.0586.08984-.0625.23438-.01171.13281-.03125.1211-.01563.1328v.29298l-.01172.1328.01172.13673.01563.1328.1328.01563.13282.01172.1211.03125.08593.0586.07422.07421.04688.10547.04296.10157.01563.1328v.44532l-.01563.13281v.44532l.03125.26562.02735.11719.01562.13281.03125.11719.08594.21094.03125.26562v.14844l-.03125.11719-.02734.11718-.03125.1211-.02735.11719-.03125.11718-.03125.1211-.01171.1328-.01563.13282.08984.0586.1172-.03125.10155.01562.04688.10547-.03125.26562v.44141l-.04297.10547-.04688.10547-.04296.10156-.04297.10547-.0586.08594-.03125.12109-.04296.11719-.03125.11719-.01563.1328.01563.13282.05859.08984.10547.04688.08594.0586.05859.08593-.01172.13672-.03125.11719-.04297.10156v.44531l-.01562.13281v.14844l-.03125.11719-.04297.10547-.02735.11719-.04687.10546-.04297.10157-.03125.12109-.02734.11719-.03125.13281-.03125.11719-.02735.11719-.04297.10546-.03125.1172-.03125.12108-.01171.13282-.01563.13281v.29688l.02734.11718v.14844l.04688.39844.02734.11719.0586.08984.12109.03125h.14844l.13281-.01563.0586.08985v.11719l-.0586.08984-.08984.0586-.10157.04296-.10546.04688-.08985.05859-.08594.0586-.13671.01562-.1172-.03125-.1328-.01563-.10157.04688-.0625.08594-.01172.13671-.01562.13282-.03125.11719-.02735.11718-.01562.13281-.03125.1211v.29687l.01563.13282.03125.11718v.14844l.01171.13281v.14844l-.02734.11719-.04688.10156-.02734.1211-.03125.11718-.0586.08985-.07421.07421-.10156.04297-.10547.04688-.11719.02734-.1211.03125-.10156-.04687.0586-.08594.10547-.04688.02734-.11718.03125-.11719.02734-.1211.03125-.11718v-.14844l.01563-.13281-.03125-.11719-.04297-.10547-.10547.01563-.07422.07422-.10156.04296-.08984.0625-.07422.07422-.04297.10157-.01563.1328-.03125.1172L304.25 426l-.03125.11719-.02734.11719-.03125.12109-.02735.11719-.03125.11718-.04297.10547-.08984.0586h-.08984l-.1172-.03125-.03124-.08594.01562-.13672-.03125-.11719v-.14844l-.01171-.1328v-.14844l-.0625-.23438-.02735-.1211-.04297-.10156-.04687-.10546-.0586-.08594-.05859-.08985-.04297-.10546-.0625-.08594-.14844-.14844-.0703-.07422-.10548-.04687-.10547-.04297-.10156-.04297-.29687-.29688-.08985-.07421-.08594-.0586-.10546-.04297-.08985-.0625-.08594-.0586-.10546-.04296-.08985-.0586-.08594-.0625-.07421-.0703-.10547-.04688-.08594-.0586-.10547-.04296-.08984-.0625-.10156-.04297-.10547-.04297-.08594-.0586-.10547-.04687-.10547-.04297-.10156-.04687-.08985-.0586-.10156-.04297-.10547-.04296-.08984-.0625-.11719-.02735-.13281-.01562-.13281.01562H299.75l-.13281.01563-.11719-.03125-.08984-.0586-.07422-.07422-.08985-.05859-.10156-.04688h-.14844l-.12109-.02734-.10156-.04297-.07422-.07422-.11719-.17968-.08984-.0586-.10156-.04297-.08985-.0625-.10547-.04296-.08984-.0586-.08594-.0586-.10547-.04687-.0586-.08594-.05858-.08984-.04297-.10547-.04688-.10156-.07422-.07422-.08594-.0586-.07421-.07421-.08985-.0586-.22265-.22265-.04297-.10547-.03125-.26563.10547-.04296h.14453l.10547.04296.07421.07422.08985.0586.08594.0586.10546.04687.08985.05859.14844.14844.0703.07422.14845.14843.0625.08594.07421.07422.08594.0586.07422.07421.08985.0625.08984.0586.08594.05859.26953.17578.10156.04688.10547.04296.10156.04297.04688-.07421.05859-.08594.07422-.07422.07031-.07422.10547.04297.07422.07422.0586.08984.04296.10156.04688.10547.04296.10547.1211.02735.11719-.02735.07421-.08984.04297-.10547.0586-.08985.07422-.07421.10546-.04297.1172-.02735.1328.01172.08985.0586.14844.14843.05859.08985.04297.10547.04687.10156.04297.10547.04297.10156.10547.04688.10547.04296.13281.01563.08594-.0586.0586-.08984.07421-.07422.10547-.04297.11719.02735.10547.04687.10156.04297.10547.04297.10156.04688.17969.11718v.11719l-.01563.13281.01563.13281.01562.13672.0586.08594.10156.04688.1211.02734.11718.03125h.14844l.11719-.03125.05859-.08984.17969-.1172.05859-.08983.07422-.07422.0586-.08594.11718-.17969.17969-.11719.11719.03125.08984.0586.04297.07422-.01563.1328v.1172l.08985.05859h.14843l.13282-.01563.1328-.01171.26563-.03125.10547-.04297.11719-.03125.1211-.02735.07421-.07421.07031-.07422.0625-.08985-.01562-.10547-.04688-.10156-.10156-.04297-.10547-.01562-.11718.02734-.26563.03125h-.14844l-.07421-.07422-.08985-.0586-.11719-.03124-.11718-.02735-.13282-.01562h-.14843l-.13282.01563h-.29687l-.10547-.04688-.14844-.14844-.04297-.10156-.05859-.08984.22266-.22266.08593-.0586.10547-.04296.11719-.03125.13281-.01563.13281.01563.13672.01562.10157.04297.1328-.01172.08985-.0625.10156-.04297.0625-.08984-.04687-.10156-.08984-.0586-.1172-.03125-.10155-.04296-.0586-.08985-.0625-.08984v-.11719l.01563-.13281.10547-.04688.07421-.07031v-.1211l-.08984-.05859-.03125-.11719.08985-.05859.07421-.07422.04297-.10547.0586-.08984.04687-.10156.01563-.13281v-.14844l-.04688-.10547-.04297-.10156-.08984-.0586-.13281-.01562-.10157-.04297-.13671-.01563-.1172-.03125h-.4453l-.13282-.01562-.13281-.01172-.13281-.01563-.11719-.03125h-.14844l-.13281-.01562-.13281-.01172-.26563-.03125-.1211-.04297-.08593-.0586-.07422-.07421v-.14844l.01172-.13281.10547-.04688.10156-.04296.13281-.01563h.15235l.13281-.01562h.29297l.1211.03125.10156.04296.08984.0586.23438.0625.12109-.04688.08984-.05859.10156-.04297.13282-.01562.10547.04296.10156.04688.13281.01172.1211-.02735h.14453l.12109-.03125.11719-.02734.10547-.04687.07421-.07422.08594-.0586.14844-.14843.0586-.08594.04687-.10547.02734-.11719.01563-.10547-.10156-.04296-.08985-.0586-.11719-.03125-.10546-.04297-.08985-.0625-.07422-.08594-.07422-.07421-.10156-.04297-.10547-.04688-.10156-.04297-.0586-.08984-.04687-.10156-.08594-.21094-.0625-.08594-.05859-.08984-.07422-.07422-.08594-.0586h-.26953l-.11719.03126-.08984.05859-.10156.04297-.13281.01562-.10547-.01562-.02735-.11719-.0625-.08984-.11718-.03125-.10157-.04297-.14843-.14844-.03125-.11719-.01563-.10546.07422-.07422.17969-.1172.11719-.02733.11718-.03125.13672.01562.10156.04297.10547.04297.10156.04687.10547.04297.1172.03125.1328.01563.1172.02734.1328.01563.10547-.01563.08985-.0586-.07422-.07421-.10547-.04297-.07422-.07422-.07422-.08984-.14844-.14844-.08593-.0586-.08985-.05859-.07422-.07422-.08984-.0586-.10156-.04687-.1211-.02734-.10156-.04688-.10547-.04296-.11719-.03125-.10156-.04297-.1211-.03125h-.14843l-.11719.03125-.10546.04297-.08594.0625-.17969.11718-.08594.0586-.08984.0586-.10547.04687-.08594.05859-.10547.04297-.10156.04297-.10547.04687-.07422.07422-.05859.08985-.0586.08593-.04687.10547-.0586.08594-.07421.07422-.13281-.01172-.1172-.03125h-.11718l-.07422.07422-.08984.0586-.07422.07421-.08984.0586-.08594.05859-.10547.04687-.10156.04297-.13672.01563-.10156-.04297-.14844-.14844-.10547-.04688h-.08594l-.10547.04688-.10156.04297-.1211.03125-.11718-.03125-.07422-.07422v-.11719l.03125-.1211.07422-.0703.0586-.08985.07421-.07422.11719-.03125.10547-.04296h.29297l.13281-.01563.13672-.01563.10156-.04296.08985-.0586.10156-.04687.08984-.0586.13281-.01171.08985.05859.13281.01172.08984-.0586.08594-.05859.10547-.04297.08984-.0586.08594-.0625.08985-.05859.14843-.14843.0586-.08594.05859-.08985.10547-.04296.13281-.01563.11719.02735.1211.03125.05859-.0586.05859-.08984.03125-.26563.02734-.11719.10547.01172.13281.01563.10157-.04297.08984-.0586.0586-.08984.07421-.07422.0586-.08984.04687-.10156.01172-.13281-.01172-.13282-.04687-.10547-.14844-.14843-.0586-.08985-.05859-.08594-.04297-.10546v-.44532l.01563-.1328v-.14845l.01172-.1328-.0586-.0586-.08984.0586-.10156-.04298-.17969-.11719-.08594-.05859-.0625-.08984-.0586-.08985-.07421-.07421-.08594-.0586-.1211.03125-.10155.01172-.10547.04688-.08594.05859-.10547.04297-.14844.14844-.08984.05859-.08594.0586-.08984.0625-.10547.04296-.13281.01563v-.1211l.10547-.04297.11718-.03125.07422-.0703.04297-.10548v-.14844l-.02734-.11718-.14844-.14844-.13281-.01563h-.14844l-.11719.03125-.10547.04297-.10156.04297-.08984.0625-.11719.02735-.07422-.07422.01172-.13281-.04297-.10157-.04297-.10547-.08984-.05859-.11719.02734-.1211.03125-.11718.03125-.10156.04297-.1211.03125-.10156.04297-.10547.04297-.08984.0586-.10156.01562v-.11719l.01562-.13281-.0586-.08985-.07421.04297-.14844.14844-.0586.08985-.07421.07421-.04688.10547-.04296.10156-.07422.07422-.0586.08985-.07422.07422-.05859.08593-.07422.07422-.08984.0625-.07422.07031-.07422.07422-.10156.01563-.13281.01562-.10547-.04296v-.1211l.14843-.14844.04297-.10156.0586-.08984.04687-.10156.04297-.10547.0586-.08985.03124-.11719.04297-.10156.03125-.1211.02735-.11718.04687-.10547.04297-.10156.04297-.10547.07422-.07031.08984-.0625.08985-.0586.10156-.04296h.29687l.26563-.03125.10547-.04297-.07422-.07422-.11719-.03125-.10547-.04297-.08984-.0586-.10156-.04687-.08985-.0586-.10156-.04296-.10547-.04297-.08984-.0625-.08594-.0586-.10547-.04296-.10156-.04297-.1211-.03125-.11718-.03125-.10157-.04297L297.5 410.25l-.10156-.04297-.08985-.0586-.04296-.10546-.01563-.13281.10156-.04297.13281-.01563.13672.01563.13282-.01563.10156-.04297.0586-.08984.01562-.10547-.08985-.0586-.07421-.07421-.10157-.04297-.08984-.0586-.14844-.14843-.04297-.10547-.01562-.13281v-.29297l-.0586-.08985-.08984-.05859-.07422-.07422-.04297-.10547-.03125-.11718-.0586-.08985-.07421-.07422-.11719-.02734-.07422-.07422-.08984-.0586-.08984-.0625-.08594-.05859-.07422-.07421-.0586-.08594-.04687-.10547-.08594-.0586-.14843-.14843-.19532-.0586-.1328.01563-.10157.04297-.07422.07422-.04688.10156-.04296.10547-.0586.08984-.0586.08594-.29687.29687-.08984.0586h-.08594l-.0625-.08594-.04297-.10547.03125-.11719.0586-.08984.02734-.11719-.01172-.13281-.08984-.0625-.10547.04688-.11719.02734-.11719.03125-.26953.17578-.10156.04688-.11719.02734-.10546.04687-.08985.0586-.10156.04297-.0586-.08594-.04687-.10547.01563-.13281.04687-.10547.07031-.07422.07422-.07031.0586-.08985v-.14843l-.04297-.10547h-.23829l-.10156.04687-.03125.11719-.02734.11719-.03125.1211-.07422.04296-.13281.01563-.07422-.04688-.04297-.10156-.04297-.10547-.04687-.10156-.04297-.10547-.1211.03125-.10156.04297-.13281.01562-.11719.03125-.10547.04297-.08984.0586-.10156.04687-.1211.02734-.13281.01563-.10156-.04297-.0586-.08985-.04687-.10546-.04297-.10157-.04297-.10546v-.1172l.0586-.08984.08593-.05859.17969-.11719.10156-.04687.10547-.04297.10547-.0586.10156-.04296.08985-.0625.10156-.04297.10547-.0586.10156-.04687.08984-.0586.10547-.04296.10156-.04297.08985-.0625.10156-.04297.13672-.01563.11719.03125.10156.04297.1211.03125.10156.04297.10546.04688.10157.04296.10547.04297.10156.04688.10547.04297.10156.04297.10547.04687.08594.0586.10546.04296.1172.03125.10546.04297.10156.04688.08985.0586.10547.04296.10156.04297.10547.04687.11719.02735.10156.04687.1211.02735h.14843l.08594-.0586.01562-.10156.0586-.08984-.02735-.1172-.07422-.07421-.11719-.17969-.07421-.07422-.08985-.07421-.17969-.1172-.08593-.05859-.10547-.04296-.10156-.04688-.26954-.17578-.05859-.08985-.07422-.07421-.0586-.08985-.04296-.10156-.03125-.11719-.01563-.13672v-.5625l-.01171-.1328-.01563-.13282-.03125-.11719-.01562-.13281-.01172-.13281-.03125-.1211-.22266-.22265-.0586-.08594-.01562-.10547.03125-.11719.13281-.01562v-91.41406H172.9922v1.45312l-.0586.23438-.35156 1.05078-.17187.52343-.1172.34766-.17577.41016-.11719.17187-.23438.29297-.23046.0586h-.35157l-.11718.05859-.23047.40625v.29297l.11719.17578.23046.23047.1172.23437.64062.75781.29297.46485.17578.23437.23047.35156.23437.34766.64063.8164.17578.46485.17187.41016.11719.69531.17578.46875.11719 1.39844.0586.46484v.875l.11718 1.04688v4.78125l-.0586.46484-.35156 1.28125-.17578.52344-.11328.41015-.35156.9297L172.93359 336l-.23437.58203-.11719.17578-.17187.34766-.17578.40625-.35157.8164-.0586.29297-.11327.29297-.11719.28906-.0586.17579-.11718.875-.0586.40625-.05859.11718-.0586.17579-.05859.17187-.23047.52734-.11718.17188v.23437l-.11719.23438-.0586.17187-.17577.58594v.28906l-.0586.17579v.29296l-.0586.11329-.05859.52734v.17187l-.05468.23438v2.6211l-.17578.8164-.1172.17578-.17577.23438-.1172.17187-.11327.23438-.58594.93359-.23047.28906-.29297.46485-.17578.23437-.28906.35156-.35156.69922-.11328.23047-.17579.41016-.17578.23046-.40625.52735-.8164.69922-.29297.17187-.28906.23438-.17579.11719-.17578.17578-.52344.40625-.52734.17578-.17187.17578-.23438.05469-.64062.17578h-.75782m12.21094 31.02344l-1.07422.44921.35938.89454 1.25-.71485.44531-.53906-.98047-.08985"/><path fill="#d3d3d3" fill-opacity="0" fill-rule="evenodd" d="M201.50781 416.59766h-.89453l.44922.6289.98047.35938.80469-.08985.4453-.98828-.17577.08985-.71485-.35547-.89453.35547m154.6211 59.0703l-.0586-.52343v-.29297l.11328-.29297.0586-.23046.46875-.46875h.11328l.11719-.11329.11718-.05859h.17579l.23437-.0586h.34766l.23437.0586.11719.0586.23047.17187.0586.17578.11718.58203v.29297l-.11719.17578-.17187.28906-.17579.17579-.52734.52343-.23047.23438-.11719.0586h-.17578l-.11718-.0586-.40625-.29297-.17579-.11719-.11718-.0586-.0586-.11327-.05468-.1172m6.64062-10.95702l-.0586-.17188v-1.10937l.0586-.17188.17578-.0586.17188-.05858h.17578l.23437-.0586.1172.0586.05858.69921-.05859.17188-.11719.17578-.11718.0586-.23438.52343-.11328.0586h-.23438l-.05859-.1172m9.61328-14.39062l-.11719-.17578v-.69922l.29297-.875.1172-.17187.17577-.35156.11328-.23047.1172-.29297.35155-.75781.1172-.23047.17187-.23438h.17578l.11719-.0586h.64062l.11719.0586.23437.23438.17188.11328.35156.29297.11719.11718.11328.17579v.11328l.11719.05859.11718.11719v.69922l-.05859.17578v.23047l-.0586.17578-.34765 1.05078-.11719.23047-.11719.23437-.11718.0586-.23047.23437-.64063.28906h-.875l-.41015-.11718-.64063-.46485"/><path fill="none" stroke="#bebebe" stroke-linecap="round" stroke-linejoin="round" stroke-miterlimit="10" stroke-width=".5" d="M467.95703 311.69531H144.02734v168.625h323.9297v-168.625"/><g clip-path="url(#a)"><path fill="#fff" fill-opacity="0" fill-rule="evenodd" d="M144 475.89063v4.4375h.0039H144V311.67188h.0039H144v164.21875"/></g><g clip-path="url(#b)"><path fill="#fff" fill-opacity="0" fill-rule="evenodd" d="M144.0039 480.32813V311.67188h17.75V432.8125l-2.625 3.13281-.91796 4.4375.1289 4.4375-.35156 4.4414.1289 4.4375-.33984 4.4375-.03515 4.4375 4.01172 3.82032 3.35937.6211 1.07813.53515.64062-.53515 3.79688-1.39454 4.4375-1.07812 4.4414-1.92578.08203-.04297.21094-4.4375-.29297-.26563-1.23437-4.17187-3.20703-3.5039-.36328-.9336-2.98438-4.4414-1.08984-1.37891-4.03125-3.0586-.40625-.21484-2.19532-4.22266-2.24218-3.13281V311.67187h217.48047v142.6875l-2.08204 3.77735 2.08204 2.39062 2.26953-2.39062-2.26954-3.77735v-142.6875h8.875v146.15235l-.20312.3125.20313 1.20703.125-1.20703-.125-.3125V311.67187h79.88671v168.65625H144.00391"/></g><path fill="#50fcfc" fill-rule="evenodd" d="M161.7539 466.39453l-4.01171-3.82031.03515-4.4375.33985-4.4375-.1289-4.4375.35155-4.4414-.1289-4.4375.91797-4.4375 2.625-3.13282v4.59375l-1.45703 2.97656-.30079 4.4375-.73047 4.4414.69922 4.4375.21094 4.4375 1.57813 3.46485 2.71093.97266 1.72657.48828.92187-.48828 3.51563-1.3164 4.4375-1.48438 1.23828-1.63672-1.23828-3.82813-.15625-.60937-1.65625-4.4375-2.625-3.01953-1.81641-1.42188-2.6211-2.48047-2.57812-1.95703-1.85937-2.97656v-4.59375l2.24218 3.13281 2.19532 4.22266.40625.21484 4.03125 3.0586 1.08984 1.3789 2.98438 4.4414.36328.9336 3.20703 3.5039 1.23437 4.17188.29297.26563-.21094 4.4375-.08203.04297-4.4414 1.92578-4.4375 1.07812-3.79688 1.39454-.64062.53515-1.07813-.53515-3.35937-.6211"/><path fill="#00e8fc" fill-rule="evenodd" d="M159.96484 453.69922l-.69922-4.4375.73047-4.4414.30078-4.4375 1.45704-2.97657 1.85937 2.97656 2.57813 1.95703v3.72266l-4.4375 1.77734-.36328 1.42188.36328 1.27734 2.01172 3.16016 2.42578 2.07422 4.14453-2.07422.29297-1.32813.20703-3.10937-.20703-.23828-4.4375-2.96094v-3.72266l2.62109 2.48047 1.8164 1.42188 2.625 3.01953 1.65626 4.4375.15625.60937 1.23828 3.82813-1.23828 1.63672-4.4375 1.48437-3.51563 1.3164-.92187.48829-1.72657-.48828-2.71093-.97266-1.57813-3.46484-.21094-4.4375"/><path fill="#00d4fc" fill-rule="evenodd" d="M161.7539 450.53906l-.36327-1.27734.36328-1.42188 4.4375-1.77734 4.4375 2.96094.20703.23828-.20703 3.10937-.29297 1.32813-4.14453 2.07422-2.42578-2.07422-2.01172-3.16016"/><path fill="#50fcfc" fill-rule="evenodd" d="M379.23438 460.52734l-2.08204-2.39062 2.08204-3.77735 2.26953 3.77735-2.26954 2.39062m8.875-1.18359l-.20312-1.20703.20313-.3125.125.3125-.125 1.20703"/><g clip-path="url(#c)"><path fill="#fff" fill-opacity="0" fill-rule="evenodd" d="M467.9961 480.32813H468V311.67188h-.0039H468v168.65625h-.0039"/></g><g clip-path="url(#d)"><path fill="none" stroke="#000" stroke-linecap="round" stroke-linejoin="round" stroke-miterlimit="10" stroke-width=".5" d="M147.3711 479.33594l-6.7422 1.98828"/></g><g clip-path="url(#e)"><path fill="none" stroke="#000" stroke-linecap="round" stroke-linejoin="round" stroke-miterlimit="10" stroke-width=".5" d="M147.3711 479.33594l1.71874 1.75"/></g><g clip-path="url(#f)"><path fill="none" stroke="#000" stroke-linecap="round" stroke-linejoin="round" stroke-miterlimit="10" stroke-width=".5" d="M146.39063 479.625l1.71484 1.75"/></g><g clip-path="url(#g)"><path fill="none" stroke="#000" stroke-linecap="round" stroke-linejoin="round" stroke-miterlimit="10" stroke-width=".5" d="M160.6914 479.35938l-6.7539 1.9414"/></g><g clip-path="url(#h)"><path fill="none" stroke="#000" stroke-linecap="round" stroke-linejoin="round" stroke-miterlimit="10" stroke-width=".5" d="M160.6914 479.35938l1.70704 1.76171"/></g><g clip-path="url(#i)"><path fill="none" stroke="#000" stroke-linecap="round" stroke-linejoin="round" stroke-miterlimit="10" stroke-width=".5" d="M159.71094 479.64063l1.70312 1.76562"/></g><g clip-path="url(#j)"><path fill="none" stroke="#000" stroke-linecap="round" stroke-linejoin="round" stroke-miterlimit="10" stroke-width=".5" d="M173.91797 479.08594l-6.57422 2.48437"/></g><g clip-path="url(#k)"><path fill="none" stroke="#000" stroke-linecap="round" stroke-linejoin="round" stroke-miterlimit="10" stroke-width=".5" d="M173.91797 479.08594l1.84375 1.61719"/></g><g clip-path="url(#l)"><path fill="none" stroke="#000" stroke-linecap="round" stroke-linejoin="round" stroke-miterlimit="10" stroke-width=".5" d="M172.96094 479.44922l1.84375 1.61719"/></g><g clip-path="url(#m)"><path fill="none" stroke="#000" stroke-linecap="round" stroke-linejoin="round" stroke-miterlimit="10" stroke-width=".5" d="M187.16016 478.91016l-6.4297 2.83984"/></g><g clip-path="url(#n)"><path fill="none" stroke="#000" stroke-linecap="round" stroke-linejoin="round" stroke-miterlimit="10" stroke-width=".5" d="M187.16016 478.91016l1.92968 1.51562"/></g><g clip-path="url(#o)"><path fill="none" stroke="#000" stroke-linecap="round" stroke-linejoin="round" stroke-miterlimit="10" stroke-width=".5" d="M186.22266 479.32031l.96484.75781"/></g><g clip-path="url(#p)"><path fill="none" stroke="#000" stroke-linecap="round" stroke-linejoin="round" stroke-miterlimit="10" stroke-width=".5" d="M200.42578 478.80078l-6.32812 3.05469"/></g><g clip-path="url(#q)"><path fill="none" stroke="#000" stroke-linecap="round" stroke-linejoin="round" stroke-miterlimit="10" stroke-width=".5" d="M200.42578 478.80078l1.97656 1.45313"/></g><g clip-path="url(#r)"><path fill="none" stroke="#000" stroke-linecap="round" stroke-linejoin="round" stroke-miterlimit="10" stroke-width=".5" d="M199.5039 479.2461l.98829.72656"/></g><g clip-path="url(#s)"><path fill="none" stroke="#000" stroke-linecap="round" stroke-linejoin="round" stroke-miterlimit="10" stroke-width=".5" d="M213.78906 478.90625l-6.42578 2.84375"/></g><g clip-path="url(#t)"><path fill="none" stroke="#000" stroke-linecap="round" stroke-linejoin="round" stroke-miterlimit="10" stroke-width=".5" d="M213.78906 478.90625l1.92969 1.51563"/></g><g clip-path="url(#u)"><path fill="none" stroke="#000" stroke-linecap="round" stroke-linejoin="round" stroke-miterlimit="10" stroke-width=".5" d="M212.85156 479.32031l.96875.75781"/></g><g clip-path="url(#v)"><path fill="none" stroke="#000" stroke-linecap="round" stroke-linejoin="round" stroke-miterlimit="10" stroke-width=".5" d="M227.0664 478.82422l-6.35156 3.00781"/></g><g clip-path="url(#w)"><path fill="none" stroke="#000" stroke-linecap="round" stroke-linejoin="round" stroke-miterlimit="10" stroke-width=".5" d="M227.0664 478.82422l1.96876 1.46484"/></g><g clip-path="url(#x)"><path fill="none" stroke="#000" stroke-linecap="round" stroke-linejoin="round" stroke-miterlimit="10" stroke-width=".5" d="M226.14063 479.26172l.98437.73437"/></g><g clip-path="url(#y)"><path fill="none" stroke="#000" stroke-linecap="round" stroke-linejoin="round" stroke-miterlimit="10" stroke-width=".5" d="M240.2539 478.58203l-6.09765 3.49219"/></g><g clip-path="url(#z)"><path fill="none" stroke="#000" stroke-linecap="round" stroke-linejoin="round" stroke-miterlimit="10" stroke-width=".5" d="M240.2539 478.58203l2.07813 1.3086"/></g><path fill="none" stroke="#000" stroke-linecap="round" stroke-linejoin="round" stroke-miterlimit="10" stroke-width=".5" d="M239.36719 479.08984l1.03906.65625"/><g clip-path="url(#A)"><path fill="none" stroke="#000" stroke-linecap="round" stroke-linejoin="round" stroke-miterlimit="10" stroke-width=".5" d="M253.42969 478.35938l-5.8164 3.9414"/></g><path fill="none" stroke="#000" stroke-linecap="round" stroke-linejoin="round" stroke-miterlimit="10" stroke-width=".5" d="M253.42969 478.35938l2.16797 1.14453m-3.01563-.57422l1.08594.57422"/><g clip-path="url(#B)"><path fill="none" stroke="#000" stroke-linecap="round" stroke-linejoin="round" stroke-miterlimit="10" stroke-width=".5" d="M266.79688 478.4375l-5.92188 3.78125"/></g><path fill="none" stroke="#000" stroke-linecap="round" stroke-linejoin="round" stroke-miterlimit="10" stroke-width=".5" d="M266.79688 478.4375l2.13671 1.20703"/><g clip-path="url(#C)"><path fill="none" stroke="#000" stroke-linecap="round" stroke-linejoin="round" stroke-miterlimit="10" stroke-width=".5" d="M279.6875 477.89844l-5.07422 4.85937"/></g><path fill="none" stroke="#000" stroke-linecap="round" stroke-linejoin="round" stroke-miterlimit="10" stroke-width=".5" d="M279.6875 477.89844l2.33203.76562"/><g clip-path="url(#D)"><path fill="none" stroke="#000" stroke-linecap="round" stroke-linejoin="round" stroke-miterlimit="10" stroke-width=".5" d="M292.76563 477.67188l-4.59766 5.3164"/></g><path fill="none" stroke="#000" stroke-linecap="round" stroke-linejoin="round" stroke-miterlimit="10" stroke-width=".5" d="M292.09375 478.44531l1.19922.27344"/><g clip-path="url(#E)"><path fill="none" stroke="#000" stroke-linecap="round" stroke-linejoin="round" stroke-miterlimit="10" stroke-width=".5" d="M305.92188 477.54297l-4.28125 5.57031"/></g><path fill="none" stroke="#000" stroke-linecap="round" stroke-linejoin="round" stroke-miterlimit="10" stroke-width=".5" d="M305.30078 478.35547l1.20703.20312"/><g clip-path="url(#F)"><path fill="none" stroke="#000" stroke-linecap="round" stroke-linejoin="round" stroke-miterlimit="10" stroke-width=".5" d="M319.1836 477.5039l-4.17579 5.64844"/></g><path fill="none" stroke="#000" stroke-linecap="round" stroke-linejoin="round" stroke-miterlimit="10" stroke-width=".5" d="M318.57813 478.32422l1.21093.1836"/><g clip-path="url(#G)"><path fill="none" stroke="#000" stroke-linecap="round" stroke-linejoin="round" stroke-miterlimit="10" stroke-width=".5" d="M332.55078 477.54297l-4.28125 5.57422"/></g><path fill="none" stroke="#000" stroke-linecap="round" stroke-linejoin="round" stroke-miterlimit="10" stroke-width=".5" d="M331.92969 478.35156l1.20703.20313"/><g clip-path="url(#H)"><path fill="none" stroke="#000" stroke-linecap="round" stroke-linejoin="round" stroke-miterlimit="10" stroke-width=".5" d="M346.13672 477.77344l-4.82031 5.11328"/></g><path fill="none" stroke="#000" stroke-linecap="round" stroke-linejoin="round" stroke-miterlimit="10" stroke-width=".5" d="M345.4336 478.51563l1.18359.32421"/><g clip-path="url(#I)"><path fill="none" stroke="#000" stroke-linecap="round" stroke-linejoin="round" stroke-miterlimit="10" stroke-width=".5" d="M359.26172 477.60547l-4.4414 5.44531"/></g><path fill="none" stroke="#000" stroke-linecap="round" stroke-linejoin="round" stroke-miterlimit="10" stroke-width=".5" d="M358.61328 478.39844l1.20703.23828"/><g clip-path="url(#J)"><path fill="none" stroke="#000" stroke-linecap="round" stroke-linejoin="round" stroke-miterlimit="10" stroke-width=".5" d="M372.8125 477.8164l-4.91016 5.02735"/></g><path fill="none" stroke="#000" stroke-linecap="round" stroke-linejoin="round" stroke-miterlimit="10" stroke-width=".5" d="M372.09766 478.54688l1.17578.34375"/><g clip-path="url(#K)"><path fill="none" stroke="#000" stroke-linecap="round" stroke-linejoin="round" stroke-miterlimit="10" stroke-width=".5" d="M386.78516 478.69922l-6.22657 3.25781"/></g><g clip-path="url(#L)"><path fill="none" stroke="#000" stroke-linecap="round" stroke-linejoin="round" stroke-miterlimit="10" stroke-width=".5" d="M385.8789 479.17578l1.01173.6914"/></g><g clip-path="url(#M)"><path fill="none" stroke="#000" stroke-linecap="round" stroke-linejoin="round" stroke-miterlimit="10" stroke-width=".5" d="M394.08203 478.35156l5.8086 3.95703"/></g><g clip-path="url(#N)"><path fill="none" stroke="#000" stroke-linecap="round" stroke-linejoin="round" stroke-miterlimit="10" stroke-width=".5" d="M413.05078 482.51563l-5.5-4.375"/></g><g clip-path="url(#O)"><path fill="none" stroke="#000" stroke-linecap="round" stroke-linejoin="round" stroke-miterlimit="10" stroke-width=".5" d="M426.86719 479l-6.5039 2.66016"/></g><g clip-path="url(#P)"><path fill="none" stroke="#000" stroke-linecap="round" stroke-linejoin="round" stroke-miterlimit="10" stroke-width=".5" d="M425.92188 479.38672l.9453.78515"/></g><g clip-path="url(#Q)"><path fill="none" stroke="#000" stroke-linecap="round" stroke-linejoin="round" stroke-miterlimit="10" stroke-width=".5" d="M440.07422 478.75781l-6.28516 3.14063"/></g><g clip-path="url(#R)"><path fill="none" stroke="#000" stroke-linecap="round" stroke-linejoin="round" stroke-miterlimit="10" stroke-width=".5" d="M439.16016 479.21484l1 .71094"/></g><g clip-path="url(#S)"><path fill="none" stroke="#000" stroke-linecap="round" stroke-linejoin="round" stroke-miterlimit="10" stroke-width=".5" d="M453.10938 478.29297l-5.72657 4.07422"/></g><path fill="none" stroke="#000" stroke-linecap="round" stroke-linejoin="round" stroke-miterlimit="10" stroke-width=".5" d="M452.27734 478.88281l1.09766.55078"/><g clip-path="url(#T)"><path fill="none" stroke="#000" stroke-linecap="round" stroke-linejoin="round" stroke-miterlimit="10" stroke-width=".5" d="M466.66406 478.6836l-6.20703 3.29296"/></g><g clip-path="url(#U)"><path fill="none" stroke="#000" stroke-linecap="round" stroke-linejoin="round" stroke-miterlimit="10" stroke-width=".5" d="M466.66406 478.6836l2.03516 1.37109"/></g><g clip-path="url(#V)"><path fill="none" stroke="#000" stroke-linecap="round" stroke-linejoin="round" stroke-miterlimit="10" stroke-width=".5" d="M147.33594 465.91406l-6.67188 2.19922"/></g><path fill="none" stroke="#000" stroke-linecap="round" stroke-linejoin="round" stroke-miterlimit="10" stroke-width=".5" d="M147.33594 465.91406l1.77344 1.69531m-2.7422-1.375l1.76954 1.69532m12.41797-2.27735l-6.47656 2.72266m6.47656-2.72266l1.90234 1.54688m-2.84766-1.15235l1.90235 1.55079m12.29297-2.09375l-6.34766 3.01953m6.34766-3.01953l1.96875 1.46484m-2.89453-1.02344l1.97265 1.46094m-2.89453-1.02344l.98438.73047m14.07422-1.8086l-6.14063 3.41798m6.14063-3.41797l2.05859 1.33203m-2.95313-.83594l2.0625 1.33594m-2.95312-.83594l1.02734.66406m13.9375-1.8828l-5.8711 3.86327m5.8711-3.86328l2.15235 1.17578m-3.00782-.61328l2.15625 1.17578m12.08985-1.61718l-6.01953 3.62109m6.01953-3.6211l2.10547 1.26172m-2.98047-.73437l2.10156 1.26172m12.01172-1.91406l-5.86719 3.87109m5.86719-3.8711l2.15234 1.17579m-3.00781-.61328l2.15625 1.17578m11.64063-2.20703l-5.1211 4.80859m5.1211-4.8086l2.32421.78907m-3.0703-.08985l2.32421.78907m11.3164-1.8711l-4.28124 5.57422m4.28125-5.57422l2.42187.41016m-3.04297.40234l2.41797.40625m11.25781-1.39843l-3.7578 5.93359m3.7578-5.9336l2.44532.1836m-2.9922.67969l2.44532.18359m11.46094-1.01953l-3.84766 5.8789m3.84766-5.8789l2.44531.22266m-3.0039.6328l1.22265.10938m12.875-.8086l-4.29297 5.56642m4.29297-5.56641l2.41797.41016m-3.04297.40234l1.20703.20312m12.27344-1.3125l-3.375 6.16016m3.375-6.16016l2.45313.03125m-2.94532.86329l1.23047.01562m12.80469-.77344l-3.83203 5.88672m3.83203-5.88672l2.44531.21485m10.86328-.22266l-3.8164 5.90234m3.8164-5.90234l2.44532.21094m10.625-.35547l-3.32813 6.1914m3.32813-6.1914l2.45312.01172m10.5-.17969l-2.60547 6.52734m2.22656-5.57812l1.21875-.13281m12.75-.69141l-3.15234 6.27734m2.6914-5.36328l1.22657-.03125m11.0664-1.25781l-.1914 7.02734m.16406-6.0039l1.09766-.54688m11.0625-.30468l2.17578 6.68359m-1.85938-5.71094l.85157-.88281m13.21484-.26172l.03906 7.02734m16.39063-5.17578l-6.1914 3.32422m5.29296-2.83984l1.01953.6836m12.72266-1.84376l-5.2461 4.67578m5.2461-4.67578l2.30078.85156m10.9336-.9375l-5.08594 4.84766m5.08593-4.84766l2.32813.76953m11.95312 1.44922l-7.01562.41016"/><g clip-path="url(#W)"><path fill="none" stroke="#000" stroke-linecap="round" stroke-linejoin="round" stroke-miterlimit="10" stroke-width=".5" d="M467.07031 466.8086l1.27344 2.09765"/></g><g clip-path="url(#X)"><path fill="none" stroke="#000" stroke-linecap="round" stroke-linejoin="round" stroke-miterlimit="10" stroke-width=".5" d="M147.32813 452.57031l-6.65625 2.25781"/></g><path fill="none" stroke="#000" stroke-linecap="round" stroke-linejoin="round" stroke-miterlimit="10" stroke-width=".5" d="M147.32813 452.57031l1.78515 1.67969m-2.7539-1.35156l1.78515 1.6836m12.53516-1.89063l-6.73047 2.01562m6.73047-2.01562l1.72656 1.74609m-2.70313-1.45313l1.72266 1.7461m-2.70312-1.45313l.86328.8711m14.27734-1.82422l-6.46875 2.7461m6.46875-2.7461l1.90625 1.54687m-2.84766-1.14453l1.90625 1.54297m-2.84765-1.14453l.95703.77344m14.08984-1.88672l-6.16406 3.375m6.16406-3.375l2.05078 1.34375m-2.94921-.85547l2.05078 1.34766m-2.94531-.85547l1.02343.67187m13.95703-1.86719l-5.90625 3.8047m5.90625-3.8047l2.14063 1.19532m-3-.64453l2.14062 1.19921m11.71485-2.17187l-5.27344 4.64453m5.27344-4.64453l2.29687.86719m-3.0625-.1914l2.29688.86718m11.79297-1.53516l-5.28907 4.63281m5.28907-4.6328l2.29297.87109m-3.0625-.19532l2.29296.8711m11.67188-1.67188l-5.05078 4.88281m5.05078-4.8828l2.33594.7578m-3.07032-.04687l2.33594.75781m11.35938-1.78906l-4.34375 5.52344m4.34375-5.52344l2.41797.4336m-3.04688.37109l1.20703.21484m12.33203-1.29687l-3.53125 6.07812m3.53125-6.07812l2.44922.08984m-2.96484.79297l1.22656.04687m12.5664-.94922l-3.45702 6.1172m3.45703-6.1172l2.45312.0625m-2.95703.82813l1.22656.03125m13.3164-.3789l-4.90624 5.03124m4.90625-5.03125l2.35547.6875m-3.0664.04297l1.17577.34375m13.01563-.90234l-5.23438 4.6875m5.23438-4.6875l2.30468.84375m-3.0664-.16406l2.30469.84765m11.2578-1.9961l-4.20702 5.625m4.20703-5.625l2.42578.375m-3.03906.44141l1.21484.1875m12.41406-1.20703l-3.60547 6.03125m3.60547-6.03125l2.44922.1211m10.61719-.25782l-3.10938 6.30079m3.10938-6.30079l2.45312-.0703m10.44532-.10157l-2.27735 6.64844m1.94532-5.6836l1.21093-.1914m10.71485-.91407l1.16797 6.9297m12.76562-6.98048l-.07422 7.02735m15.83203-6.0039l-4.95703 4.98437m4.23438-4.25782l1.17578.35547m13.7539.41797l-6.74218 1.98438m5.76172-1.69532l.85937.875m13.5664.14063l-7-.625m7 .625l.95313 2.25781m12.1914-3.69531l-6.66015 2.2461m6.66016-2.2461l1.78125 1.6875m10.48437-3.23828l-4.55859 5.34765m3.89453-4.5664l1.19922.26172m13.16406-.65625l-5.33203 4.57812"/><g clip-path="url(#Y)"><path fill="none" stroke="#000" stroke-linecap="round" stroke-linejoin="round" stroke-miterlimit="10" stroke-width=".5" d="M466.22656 451.41016l2.28516.89453"/></g><g clip-path="url(#Z)"><path fill="none" stroke="#000" stroke-linecap="round" stroke-linejoin="round" stroke-miterlimit="10" stroke-width=".5" d="M147.375 439.41016l-6.75 1.94922"/></g><path fill="none" stroke="#000" stroke-linecap="round" stroke-linejoin="round" stroke-miterlimit="10" stroke-width=".5" d="M147.375 439.41016l1.70703 1.76172m-2.6875-1.48047l1.70703 1.76172m12.46485-2.40625l-6.5 2.67187m6.5-2.67188l1.88672 1.56641m-2.83594-1.17578l1.89062 1.5664m-2.83594-1.17968l.94532.78516m14.09765-1.90625l-6.16797 3.36328m6.16797-3.36328l2.04688 1.35156m-2.94531-.86328l2.05078 1.35156m-2.94922-.86328l1.02734.67578m14-1.79688l-6 3.65235m6-3.65235l2.11328 1.25m-2.98437-.71875l2.10937 1.25m12.10157-1.74218l-6.05078 3.57422m6.05078-3.57422l2.09375 1.27734m-2.97266-.75781l2.09375 1.27734m12.08203-1.82812l-6.01562 3.6328m6.01562-3.6328l2.10547 1.26172m-2.98047-.73047l1.05469.6289m12.9336-1.46093L221.08593 442.5m5.60937-4.23437l2.22266 1.03515m-3.03906-.41797l2.22265 1.03516m11.73828-1.85547l-5.26953 4.64453m5.26953-4.64453l2.29688.86328m-3.0625-.1875l2.29687.86328m11.80078-1.52343l-5.30468 4.60937m5.30469-4.60937l2.29296.8828m-3.0625-.21093l2.28907.8789m11.89843-1.42968l-5.5078 4.36719m5.5078-4.3672l2.2461.98438m-3.04688-.34765l1.1211.49219m12.5664-1.57813l-4.65234 5.26563m4.65234-5.26563l2.38672.57031m10.28125-1.02343l-3.35937 6.17187m3.35937-6.17187l2.45703.02734m11.66406.57422l-4.96875 4.96875m4.96875-4.96875l2.34766.71875m11.33594-.28516l-5.70703 4.10156m5.70703-4.10156l2.19922 1.08594m10.83203-1.4336l-5.13672 4.79688m4.38672-4.09766l1.16015.39844m13.16407-.78515l-5.65625 4.17187m5.65625-4.17187l2.21093 1.0625m10.35157-1.8125l-4.15235 5.67187m4.15235-5.67187l2.42578.35156m10.07422-.79297l-2.51953 6.5586m2.15234-5.60548l1.21875-.14843m13.61328-.08203l-4.82031 5.11328m4.11719-4.3711l1.18359.32422m13.53125-.15234l-6.21484 3.28515m5.30859-2.80859l1.01562.6875m13.44532 1.54688l-6.69532-2.14063m6.69532 2.14063l.4375 2.41406m12.9375-2.63281l-6.8164-1.70313m6.8164 1.70313l.59375 2.3828m12.8086-3.60937l-6.98829.7539m6.98828-.7539l1.375 2.03125m11.20313-3.83593l-5.51563 4.35937m5.51563-4.35937l2.24609.98828m10.49219-1.5625l-4.35938 5.51172m3.72656-4.71094l1.20313.22265"/><g clip-path="url(#aa)"><path fill="none" stroke="#000" stroke-linecap="round" stroke-linejoin="round" stroke-miterlimit="10" stroke-width=".5" d="M147.48438 426.61328l-6.96875.91016"/></g><path fill="none" stroke="#000" stroke-linecap="round" stroke-linejoin="round" stroke-miterlimit="10" stroke-width=".5" d="M147.48438 426.61328l1.42187 1.9961m-2.4375-1.86329l1.42578 1.9961m-2.4375-1.86328l.71094 1m14.53125-1.75l-6.76953 1.8789m6.76953-1.8789l1.6914 1.78125m-2.67578-1.50782l1.69141 1.78125m-2.67578-1.5078l.84375.89062m14.39844-1.57422l-6.6875 2.15234m6.6875-2.15234l1.76172 1.70703M173 426.30469l1.76172 1.70703m-2.73438-1.39453l1.76172 1.71093m13.4961-2.34765l-6.6797 2.17578m6.6797-2.17578l1.76562 1.70703m-2.73828-1.39063l1.76563 1.70704m-2.73438-1.39063l.88281.85156m14.30469-1.68359l-6.53906 2.57422m6.53906-2.57422l1.86328 1.59375m-2.8164-1.21875l1.86718 1.59375m-2.8164-1.21875l.92968.79688m14.38282-1.26172l-6.73438 2.0039m6.73438-2.0039l1.72265 1.75m-2.69922-1.45703l1.71875 1.74609m-2.69922-1.45703l.85938.875m14.4336-1.39453l-6.77344 1.8789m6.77343-1.8789l1.6875 1.77734m-2.67578-1.5039l1.6914 1.77734m-2.67577-1.5039l.84765.89062m14.39453-1.58594l-6.68359 2.17578m6.6836-2.17578l1.76562 1.70703m-2.73828-1.39063L241.33984 428m-2.73828-1.38672l.88281.85156m14.31641-1.65234l-6.5625 2.51172m6.5625-2.51172l1.85156 1.61328m-2.80468-1.2461l1.84765 1.61329m12.24219-2.375l-6.20313 3.30078m6.20313-3.30078l2.03516 1.375m-2.9375-.89453l1.01562.6875m12.89063-1.64844l-5.58203 4.26172m5.58203-4.26172l2.23047 1.01953m-3.04297-.40234l1.11718.51172m13.03125-1.10157l-5.625 4.20703m5.625-4.20703l2.22266 1.04297m-3.03906-.4336l1.10937.52345m13.13672-.97657l-5.85156 3.89453m5.85156-3.89453l2.15625 1.16407M319.9375 425l-5.6836 4.13672M319.9375 425l2.20703 1.07422m11.26563-.83594l-6 3.66016m5.1289-3.1289l1.05469.625m13.46875-.42579l-6.67187 2.19922m6.67187-2.19922l1.77344 1.69531m10.80078-2.96484l-5.1914 4.73828m5.1914-4.73828l2.3125.82422m10.89062-.9375l-4.96875 4.96875m4.2461-4.2461l1.17187.35547m13.8125.64844l-6.85937 1.51172m5.86328-1.29297l.79297.9336m13.1289 1.36327l-6.08203-3.51953m6.08203 3.51953l-.08593 2.45313m13.20703-2.15234l-5.69531-4.1172m5.6953 4.1172l-.33593 2.42968m14.17188-3.48437L420.25 426.0625m6.73438 2.01172l.48046 2.40625M440 425.35547l-6.13672 3.42578M440 425.35547l2.0625 1.33203m10.30469-2.42188l-4.24219 5.60547m4.24219-5.60547l2.42187.39063m10.52344-.63281l-3.5039 6.08984m2.99609-5.20312l1.22656.03906"/><g clip-path="url(#ab)"><path fill="none" stroke="#000" stroke-linecap="round" stroke-linejoin="round" stroke-miterlimit="10" stroke-width=".5" d="M147.51172 413.70703l-7.02344.08985"/></g><path fill="none" stroke="#000" stroke-linecap="round" stroke-linejoin="round" stroke-miterlimit="10" stroke-width=".5" d="M147.51172 413.70703l1.17969 2.15235m-2.19922-2.13672l.58984 1.07422m13.74219-1.23047l-7.01953.375m7.01953-.375l1.26562 2.10156m-2.28906-2.04688l1.26563 2.10157m13.0664-1.6836l-7.0039-.57031m7.0039.57031l.97266 2.2539m-1.99219-2.33593l.97266 2.25m-1.99219-2.33594L172.58203 415m14.83984-.75l-6.95312-.9961m6.95313.9961l.83593 2.3086m-1.84765-2.45313l.83203 2.3086m-1.84375-2.45313l.41797 1.15625m14.95703-1.26953l-7.02344-.1875m7.02344.1875l1.09375 2.19922M199.75 413.8203l1.09375 2.19922m13.23828-2.0586l-7.01562-.41405m7.01562.41406l1.02344 2.23047m-2.04297-2.29297l.51172 1.11719m13.82812-1.40235l-7.02343.28125m7.02343-.28125l1.23828 2.11719m-2.26171-2.07813l.62109 1.0586m13.59766-1.875l-6.78516 1.83594m6.78516-1.83594l1.67578 1.78906m-2.66406-1.52344l1.67968 1.79297m12.53125-2.34765l-6.59765 2.41406m6.59765-2.41406l1.82422 1.63671m-2.78516-1.28515l.91407.8164m13.23047-1.48047l-6.33594 3.03907m6.33594-3.03906l1.97656 1.45703m-2.89844-1.01563l.98828.72656m13.21875-1.22656l-6.27734 3.15235m6.27734-3.15235l2.0039 1.42188m11.20704-1.6172l-6.0664 3.54688m6.0664-3.54687l2.08594 1.28906m-2.96875-.77344l1.04297.64454m13.375-.71094l-6.50782 2.64453m6.50782-2.64453l1.8828 1.57422m11.27735-1.90625l-6.19922 3.30859m5.29688-2.82422l1.01953.6836m13.50781 1.33593L327 412.90625m5.82813 1.44922l.29687 1.1914m14.09766-1.4453l-6.9922-.69532m6.9922.69531l.93359 2.26953m12.03516-4.17187l-6.30078 3.10937m5.38671-2.65625l.9922.71485m13-1.57422l-5.82813 3.92187m5.82812-3.92187l2.16797 1.15234m11.7461.86719l-7.02344-.1211m7.02343.1211L388.29688 416m12.05468-3.26172l-6.73047 2.02734m6.73047-2.02734l1.72657 1.74219m11.26562-2.48438l-6.08203 3.51563m6.08203-3.51563l2.08203 1.29688m11.23828-1.28516L420.56641 415.5m6.09765-3.49219l2.07813 1.3086m11.5-.7461l-6.6211 2.36328m6.6211-2.36328l1.8125 1.65235m11.28906-2.13282l-6.1914 3.32813m6.1914-3.32813l2.03906 1.36328m11.38282-1.14062l-6.41016 2.88281"/><g clip-path="url(#ac)"><path fill="none" stroke="#000" stroke-linecap="round" stroke-linejoin="round" stroke-miterlimit="10" stroke-width=".5" d="M466.76563 412.3125l1.9414 1.5039"/></g><g clip-path="url(#ad)"><path fill="none" stroke="#000" stroke-linecap="round" stroke-linejoin="round" stroke-miterlimit="10" stroke-width=".5" d="M147.39063 401.36328l-6.78125-1.85156"/></g><path fill="none" stroke="#000" stroke-linecap="round" stroke-linejoin="round" stroke-miterlimit="10" stroke-width=".5" d="M147.39063 401.36328l.53906 2.39453m-1.52735-2.66406l.27344 1.19531m14.0586-1.04687l-6.83985-1.60547m6.83984 1.60547l.62891 2.3711m-1.6211-2.60548l.3125 1.1836m14.08595-1.85157l-7.02344.19532m7.02344-.19532l1.21484 2.13282m-2.23438-2.10547l.60547 1.0664m13.72656-1.21093l-7.01562.42968m7.01563-.42968l1.28125 2.09375m11.95312-1.10547l-6.85547-1.54297m6.85547 1.54297l.64844 2.36328m12.7539-3.13672h-7.02734m7.02734 0l1.15235 2.16797m-2.17578-2.16797l.57422 1.08594m13.76171-1.1875l-7.02343.20312m7.02343-.20312l1.21485 2.13281m-2.23828-2.10156l.60937 1.0664m13.72656-.85156l-7.01953-.28515m7.01953.28515l1.06641 2.21094m-2.08594-2.2539l.53125 1.10546m13.72266-1.97265l-6.85938 1.53125m6.85938-1.53125l1.59766 1.86328m-2.59375-1.64063l.79687.9336m13.47656-1.3047l-6.78515 1.82813m6.78515-1.82812l1.67578 1.79297m-2.66015-1.52735l.83594.89844m13.375-1.45313l-6.60157 2.40625m6.60157-2.40625l1.82421 1.64063m-2.78515-1.28906l.91015.82031m13.17579-1.59766l-6.22266 3.26172m6.22266-3.26172l2.02734 1.38282m11.45703-1.00391l-6.5664 2.5m6.5664-2.5l1.84766 1.61328m11.61718-1.1211l-6.86328 1.51563m6.86328-1.51562l1.58985 1.86719m11.80469-1l-7.02344-.21485m7.02344.21485l1.08593 2.19921m12.16407-2.98828l-6.89454 1.36328m5.89454-1.16406l.77343.94922m13.20703 1.16406l-6.22265-3.26172m5.3164 2.78516l.00782 1.22656m14.59375-1.98047l-6.98047-.80468m5.96484.6875l.44922 1.14062m13.40625-3.23047l-6.03125 3.60938m6.03125-3.60938l2.10156 1.26953m11.63282-.20312l-6.8711 1.48047m6.8711-1.48047l1.58203 1.875m11.52734-2.51953l-6.46094 2.76562m6.46094-2.76562l1.91016 1.53906m11.21093-1.92578l-6.0703 3.53906m6.0703-3.53906l2.08594 1.29297m11.5625-.51953l-6.73828 1.99218m6.73828-1.99218l1.71875 1.7539m11.67188-1.45312l-6.89063 1.39062m6.89063-1.39062l1.55859 1.89844m11.50781-2.66407l-6.39062 2.92578"/><g clip-path="url(#ae)"><path fill="none" stroke="#000" stroke-linecap="round" stroke-linejoin="round" stroke-miterlimit="10" stroke-width=".5" d="M466.75781 398.97656l1.94922 1.48828"/></g><path fill="none" stroke="#000" stroke-linecap="round" stroke-linejoin="round" stroke-miterlimit="10" stroke-width=".5" d="M465.82813 399.40234l.97265.7422"/><g clip-path="url(#af)"><path fill="none" stroke="#000" stroke-linecap="round" stroke-linejoin="round" stroke-miterlimit="10" stroke-width=".5" d="M147.30078 388.32813l-6.60156-2.41016"/></g><path fill="none" stroke="#000" stroke-linecap="round" stroke-linejoin="round" stroke-miterlimit="10" stroke-width=".5" d="M147.30078 388.32813l.33594 2.43359m-1.29688-2.78125l.16797 1.21484m14.25781-1.41406l-6.90234-1.3164m6.90234 1.3164l.72657 2.34375m12.45703-1.85156l-6.64063-2.29688m6.64063 2.29688l.38281 2.42187m13.0586-2.875L180.5 386.4297m5.88672 1.1875l.35156 1.17578m13.14453.66797l-5.2461-4.67578m4.48438 3.99609l-.28906 1.1914m15.2539-2.74609l-7.02343-.20312m7.02344.20312l1.08984 2.19922m-2.10937-2.23047l1.08593 2.19922m13.25-2.20703l-7.02343-.1289m7.02343.1289l1.11328 2.1836m-2.1328-2.20313l1.11327 2.1875m13.22266-2.20313l-7.02734-.05859m7.02734.0586l1.13281 2.17577m-2.15625-2.18359l1.13281 2.17578m13.19922-2.00781l-7.01562-.3789m7.01562.3789l1.03516 2.22656m-2.05469-2.28125l1.03516 2.22656m13.30469-2.5039l-7.02344.28515m7.02344-.28515l1.23828 2.11719m-2.26172-2.07422l1.23828 2.11719m-2.25781-2.07813l.61719 1.0586m14.72265-1.3711l-6.98828.7461m6.98828-.7461l1.375 2.03125m-2.39062-1.92188l1.375 2.03125m12.85156-2.6914l-6.78125 1.84765m6.78125-1.84765l1.67969 1.78906m-2.66407-1.51953l1.6797 1.78906m-2.66798-1.51953l.83985.89453m14.33593-1.77344l-6.55468 2.52735m6.55468-2.52735l1.85547 1.60547m-2.8086-1.23828l1.85548 1.60547m-2.8086-1.23828l.92579.80469m14.29687-1.53906l-6.5586 2.52734m6.5586-2.52735l1.85156 1.60938m-2.80468-1.24219l1.85156 1.60938m-2.8086-1.24219l.9297.80469m14.46874-.92578l-6.90625 1.30078m6.90625-1.30078l1.53516 1.91406m-2.53906-1.72656l.76562.95703m13.46094.52734l-6.72266-2.04297m6.72266 2.04297l.47265 2.41016m12.91016-2.66797l-6.85547-1.52735m6.85547 1.52735l.65625 2.36719m12.73828-3.33985l-7.01562.41797m7.01562-.41797l1.27735 2.09375m-2.29688-2.03125l.63672 1.04688m13.60937-1.71875l-6.83593 1.63672m6.83593-1.63672l1.6211 1.83984m11.78125-.80469l-7.01172-.43359m7.01172.4336l1.01953 2.23046m12.17969-1.52344l-6.78125-1.84765m6.78125 1.84765l.54297 2.39063m12.88671-3.04688l-7.0078-.53515m7.0078.53515l.98438 2.2461m12.3125-2.9375l-6.97266.84765m6.97266-.84765l1.40625 2.01172m11.89844-2.09375l-6.95313 1.01172m6.95313-1.01172l1.45312 1.97656m11.89844-1.5625l-7.02344.1836"/><g clip-path="url(#ag)"><path fill="none" stroke="#000" stroke-linecap="round" stroke-linejoin="round" stroke-miterlimit="10" stroke-width=".5" d="M467.07422 387.03125l1.20703 2.13672"/></g><g clip-path="url(#ah)"><path fill="none" stroke="#000" stroke-linecap="round" stroke-linejoin="round" stroke-miterlimit="10" stroke-width=".5" d="M146.83203 375.89063l-5.66406-4.16407"/></g><path fill="none" stroke="#000" stroke-linecap="round" stroke-linejoin="round" stroke-miterlimit="10" stroke-width=".5" d="M146.83203 375.89063l-.35547 2.42578m13.88281-2.75391l-6.08984-3.50781m6.08984 3.50781l-.08593 2.45313m13.53125-2.70313l-6.35156-3.00781m6.35156 3.00781l.11328 2.44922m-1.03516-2.88672l.05469 1.22656m14.49219-1.83203l-6.96875-.92187m6.96875.92187l.85937 2.29688m12.47656-2.9922l-7.01171.46876m7.01172-.46875l1.29296 2.08594m-2.3125-2.01954l.64844 1.04297M214 374.59766l-6.84766-1.57813M214 374.59766l.63281 2.37109m-1.6289-2.60156l.6328 2.3711m13.73829-2.47267l-6.96875-.91406m6.96875.91406l.85938 2.29688m-1.875-2.42969l.85937 2.29688m13.48438-2.94922l-6.9961.65625m6.9961-.65625l1.34765 2.05078m-2.36328-1.95703l1.34766 2.05078m12.98828-2.08203l-7.00781.53125m7.0078-.53125l1.3125 2.07422m-2.33202-1.9961l1.3125 2.07422m13.03125-1.96875l-7.02344.16406m7.02344-.16406l1.20312 2.13672m-2.22656-2.11328l1.20312 2.13672m13.11329-2.5l-6.97657.84375m6.97656-.84375l1.40235 2.01172m-2.41797-1.89063l1.40234 2.01563m12.83985-2.59766l-6.80078 1.76563m6.80078-1.76563l1.66015 1.80469m-2.65234-1.54688l1.66016 1.8047m12.57812-2.29688l-6.66406 2.23437m6.66406-2.23437l1.78125 1.6875m-2.75-1.36329l1.77734 1.6875m-2.75-1.36328l.89063.84375m14.34375-1.55859l-6.6211 2.36328m6.6211-2.36328l1.8125 1.65625m-2.77734-1.3125l1.8125 1.65625m-2.77344-1.3125l.90625.82813m14.34375-1.48438l-6.63672 2.30469m6.63672-2.30469l1.79687 1.66797m-2.76172-1.33203l1.79688 1.66797m-2.76563-1.33204l.90235.83204m14.50781-.82422l-6.96094.94531m6.96094-.94531l1.4336 1.98828m-2.44532-1.85156l1.4336 1.99218m-2.44922-1.85546l.71875.99609m14.65234-.92188l-7.01953.2461m7.01953-.2461l1.23047 2.125m-2.25-2.08593l1.22656 2.125m-2.25-2.08985l.61328 1.0625m14.69532-1.61328l-6.92188 1.20313m6.92188-1.20313l1.5078 1.9375m-2.51171-1.76172l1.5039 1.9375m12.70313-2.57031l-6.69922 2.11719m6.69922-2.11719l1.7539 1.71484m-2.72656-1.41015l1.75 1.71875m12.62891-1.6836l-6.8789 1.4375m6.8789-1.4375l1.57031 1.88282m-2.5703-1.67579l.78515.94141m13.5586-.9961l-6.9375 1.13282m6.9375-1.13281l1.48437 1.94922m11.85156-.97657l-6.98047-.8125m5.96484.69532l.44922 1.14062m13.89063-1.10156l-6.9961-.66016m6.9961.66016l.9414 2.26562m12.25391-3.55859l-6.75781 1.92578m6.75781-1.92578l1.70312 1.76953m11.73829-1.0625l-7.00782.51563"/><g clip-path="url(#ai)"><path fill="none" stroke="#000" stroke-linecap="round" stroke-linejoin="round" stroke-miterlimit="10" stroke-width=".5" d="M467.0664 373.55078l1.3086 2.07422"/></g><g clip-path="url(#aj)"><path fill="none" stroke="#000" stroke-linecap="round" stroke-linejoin="round" stroke-miterlimit="10" stroke-width=".5" d="M146.09375 363.3125l-4.1875-5.64063"/></g><path fill="none" stroke="#000" stroke-linecap="round" stroke-linejoin="round" stroke-miterlimit="10" stroke-width=".5" d="M146.09375 363.3125l-1.05078 2.21875m.4414-3.03906l-.52343 1.10937m14.89062-.67578l-5.07422-4.86328m5.07422 4.86328l-.66797 2.35938m-.0703-3.07032l-.33204 1.1836m14.6914-.83985l-5.68359-4.1289m5.6836 4.1289l-.33985 2.4297m14.01172-3.04688l-6.40234-2.89454m6.40234 2.89454l.16016 2.44921m13.30469-2.83593l-6.69922-2.125m6.69922 2.125l.4414 2.41406m-1.41406-2.72266l.21875 1.20704m14.0625-.875l-6.6836-2.16797m6.6836 2.16796l.42578 2.41407m-1.39844-2.73047l.42578 2.41797m13.9922-2.64453l-6.94532-1.08594m6.94531 1.08594l.80078 2.3203m-1.8125-2.47655l.80469 2.3164m-1.8164-2.47656l.40234 1.16016m14.97265-1.59375l-7.01562.41406m7.01562-.41406l1.27344 2.09765m-2.29687-2.03515l1.27734 2.09375m12.97656-2.72657l-6.85156 1.5547m6.85156-1.5547l1.60547 1.85938m-2.60156-1.63281l1.60547 1.85937m-2.60156-1.63281l.80078.92969m14.48828-1.46875l-6.8125 1.73046m6.8125-1.73046l1.64844 1.8164m-2.64063-1.5664l1.64844 1.8164m12.63672-2.14453l-6.76953 1.88672m6.76953-1.88672l1.6914 1.77735m-2.67578-1.50391l1.6914 1.77734m12.69532-1.65234l-6.9414 1.08594m6.9414-1.08594l1.47266 1.96484m-2.48438-1.80469l1.47266 1.96094m12.82812-2.26562l-6.89062 1.3789m6.89062-1.3789l1.55469 1.89844m-2.5586-1.69922l1.5547 1.89843m12.78124-2.01562l-6.92578 1.21094m6.92578-1.21094l1.50782 1.9375m-2.51563-1.76172L321.0586 362m-2.51562-1.75781l.7539.96484m14.52735-1.54297l-6.82813 1.66016m6.82813-1.66016l1.63281 1.83203m-2.625-1.58984l1.6289 1.83203m-2.62109-1.59375l.8125.91797m14.57032-.91406l-6.9922.6914m6.9922-.6914l1.35937 2.04297m-2.375-1.94141l1.35547 2.04297m-2.375-1.94531l.67969 1.02343m14.66015-1.32421l-6.97265.89062m6.97265-.89063l1.41797 2.00391m-2.4336-1.875l1.41798 2.0039M358.5 360.3086l.70703 1m14.59375-1.5039l-6.89062 1.3789m6.89062-1.3789l1.55469 1.89844m-2.55469-1.69922l1.55078 1.89843m-2.55468-1.6953l.77734.94921m14.38672-1.89453l-6.58203 2.46094m6.58203-2.46094l1.83984 1.625m-2.79687-1.26563l1.83984 1.625m-2.79687-1.26562l.91796.8125m14.3711-1.35547l-6.69922 2.10938m6.69922-2.10938l1.75 1.72266m-2.72266-1.41407l1.75 1.71875m12.67969-1.3789l-6.98047.8125m6.98047-.8125l1.39453 2.01953m-2.41016-1.89844l.69532 1.00781m13.65625-.6914l-7.02735-.0586m7.02735.0586l1.1328 2.17578m12.17579-2.4414l-7.01172.46874m7.01172-.46875l1.29297 2.08594m11.92578-2.70313l-6.8164 1.70313m6.8164-1.70313l1.64063 1.82422m11.6914-1.73828l-6.85547 1.53516m5.85938-1.3125l.80078.92969"/><g clip-path="url(#ak)"><path fill="none" stroke="#000" stroke-linecap="round" stroke-linejoin="round" stroke-miterlimit="10" stroke-width=".5" d="M145.07422 350.52344l-2.14844-6.6914"/></g><g clip-path="url(#al)"><path fill="none" stroke="#000" stroke-linecap="round" stroke-linejoin="round" stroke-miterlimit="10" stroke-width=".5" d="M145.07422 350.52344l-1.71094 1.75781"/></g><g clip-path="url(#am)"><path fill="none" stroke="#000" stroke-linecap="round" stroke-linejoin="round" stroke-miterlimit="10" stroke-width=".5" d="M144.76172 349.55078l-.85547.8789"/></g><path fill="none" stroke="#000" stroke-linecap="round" stroke-linejoin="round" stroke-miterlimit="10" stroke-width=".5" d="M159.47266 349.94922l-4.31641-5.54297m4.3164 5.54297l-1 2.24219m.3711-3.04688l-.5 1.11719m14.73438-.5625l-4.89454-5.04297m4.89453 5.04297l-.7539 2.33594m.03906-3.07032l-.375 1.16797m15.10938-1.40625l-6.3047-3.09765m6.3047 3.09765l.07812 2.45313m-.9961-2.90235l.03907 1.22657m14.1875-.75782l-6.28906-3.13671m6.28906 3.13671l.0625 2.45313m-.98047-2.91016l.03125 1.22656m14.4375-1.3789l-6.76172-1.91406m6.76172 1.91406l.51563 2.39453m-1.5-2.67578l.51953 2.39844m13.875-2.5586l-6.95313-1.03515m6.95313 1.03515l.8164 2.3125m-1.82812-2.46094l.8164 2.3125m13.54688-2.6289l-7.02734-.10547m7.02734.10547l1.11719 2.1875m-2.14063-2.20313l1.1211 2.1836m13.21093-2.42188l-7.01562.40625m7.01562-.40625l1.27735 2.09375m-2.29688-2.03515l1.27344 2.09375m-2.29297-2.03516l.63672 1.04688m14.6211-1.80079l-6.82423 1.67579m6.82422-1.67579l1.63672 1.83204m-2.6289-1.58594l1.63671 1.82812m-2.6289-1.58594l.8164.91407m14.4375-1.57422l-6.73046 2.02344m6.73046-2.02344l1.72657 1.74219m-2.70703-1.44922l1.72656 1.74219m-2.70313-1.44922l.86328.87109m14.3711-1.57813l-6.65235 2.26563m6.65235-2.26563l1.78906 1.6797m-2.75781-1.35157l.89453.83984m13.48047-.84765l-6.83594 1.625m6.83594-1.625l1.6211 1.83984m-2.6172-1.60547l.8125.92188m13.5625-.82813l-6.96093.96485m6.96093-.96485l1.4375 1.98828m-2.45312-1.84765L321 348.82422m12.88672-2.14844l-6.95313 1.00781m6.95313-1.0078l1.45312 1.97655m-2.46484-1.83203l1.45312 1.98047m-2.46484-1.83203l.72656.98828m14.63282-1.11719l-6.9922.67579m6.9922-.67579l1.35546 2.04688m-2.37109-1.94922l1.35156 2.04688m12.9922-1.95313l-7.01954.29297m7.01953-.29297l1.24219 2.11328m-2.26172-2.07031l1.24219 2.11328m-2.26563-2.07031l.6211 1.0586m14.66406-1.72657l-6.875 1.45703m6.875-1.45703l1.57422 1.88281m-2.57422-1.66797l1.57422 1.8789m-2.57422-1.66796l1.57422 1.8789m13.64843-2.64843l-6.6914 2.14453m6.6914-2.14453l1.75782 1.71484m-2.73047-1.40234l1.75781 1.71484m-2.73047-1.40234l1.75781 1.71094m13.5-2.35157l-6.68359 2.17579m6.6836-2.17579l1.76562 1.70313m-2.73828-1.38672l1.76562 1.70313m-2.73828-1.38672l.88281.85156m14.44922-1.22656l-6.82812 1.66015m6.82812-1.66015l1.63282 1.83593m-2.625-1.59375l1.6289 1.83594m-2.6211-1.59375l1.62891 1.83203m13.67188-2.30469l-6.83203 1.63672m6.83203-1.63671l1.6289 1.83593m-2.62109-1.59765l1.625 1.83984m-2.6211-1.60156l.81641.91797m14.52344-1.22657l-6.90234 1.30079m6.90234-1.30079l1.53516 1.91797m-2.53906-1.72656l.76562.95703m13.5039-1.38281l-6.80077 1.76953m6.80078-1.76953l1.66015 1.8086m11.66407-1.76954l-6.82032 1.6914"/><g clip-path="url(#an)"><path fill="none" stroke="#000" stroke-linecap="round" stroke-linejoin="round" stroke-miterlimit="10" stroke-width=".5" d="M466.97266 346.33203l1.63671 1.82813"/></g><g clip-path="url(#ao)"><path fill="none" stroke="#000" stroke-linecap="round" stroke-linejoin="round" stroke-miterlimit="10" stroke-width=".5" d="M144.07422 337.375l-.14844-7.02344"/></g><g clip-path="url(#ap)"><path fill="none" stroke="#000" stroke-linecap="round" stroke-linejoin="round" stroke-miterlimit="10" stroke-width=".5" d="M144.07422 337.375l-2.14063 1.19922"/></g><g clip-path="url(#aq)"><path fill="none" stroke="#000" stroke-linecap="round" stroke-linejoin="round" stroke-miterlimit="10" stroke-width=".5" d="M144.05469 336.35547l-1.07422.59765"/></g><path fill="none" stroke="#000" stroke-linecap="round" stroke-linejoin="round" stroke-miterlimit="10" stroke-width=".5" d="M158.5586 337.14844l-2.48829-6.57031m2.48828 6.5703l-1.61718 1.84376m1.2578-2.80078l-.8125.92187m14.35157.08594l-2.21484-6.67188m2.21484 6.67188l-1.69531 1.77344m1.3711-2.7461l-.84766.89063m16.01172-.92578l-5.26563-4.65625m5.26563 4.65625l-.57032 2.3828m14.44922-3.25l-6.39062-2.92187m6.39062 2.92188l.14453 2.44922m13.40625-3.15235l-6.86328-1.51562m6.86328 1.51562l.65625 2.36329m-1.65625-2.58594l.65625 2.36719m13.6875-2.29297l-6.92187-1.21875m6.92187 1.21875l.75781 2.33203m-1.76562-2.51172l.75781 2.33594m-1.76562-2.51172l.3789 1.16797m14.9922-1.125l-7.00392-.59375m7.00391.59375l.96484 2.2539m-1.98437-2.33984l.96484 2.2539m-1.98437-2.33984l.48437 1.125m14.8672-1.55469l-7 .60938m7-.60938l1.33593 2.0586m-2.35156-1.96875l1.33593 2.05469m-2.35547-1.96875l.66797 1.03125m14.5586-1.87891l-6.75 1.95312m6.75-1.95312l1.70703 1.76172m-2.6875-1.47656l1.70703 1.76171m-2.6914-1.47656l.85546.8789m14.35938-1.64843l-6.6211 2.35156m6.6211-2.35156l1.8125 1.65234m-2.77735-1.3125l1.8125 1.65625m-2.77343-1.3125l.90625.82813m14.2539-1.71875l-6.46094 2.76172m6.46094-2.76172l1.91016 1.53906m-2.84766-1.13672l1.91016 1.53906m-2.85156-1.13671l.95703.76953m14.4336-.96094l-6.85548 1.53906m6.85547-1.53906l1.60156 1.85938m-2.59765-1.63672l.80078.92968m13.58594-.6875l-7 .60938m7-.60938l1.33593 2.0547m-2.35547-1.96876l.66797 1.03125m13.65235-1.24219l-6.97657.85938m6.97657-.85938l1.40625 2.01172m-2.42188-1.88672l1.40625 2.01172m12.9336-2.0625l-6.9922.71094m6.9922-.71094l1.36328 2.03906m-2.38282-1.93359l.6836 1.01953m13.66015-.53515l-7.01171-.46875m7.01171.46875l1.00391 2.23828m-2.02344-2.30469l.5 1.11719m13.75391-2.07031l-6.85156 1.5703m6.85156-1.5703l1.60547 1.85546m-2.60156-1.625l1.60546 1.85157m-2.60156-1.625l.80078.92578m14.23828-2.13672l-6.3164 3.07812m6.3164-3.07812l1.98438 1.4414m-2.90234-.99609l1.98437 1.44531m12.4414-1.40625l-6.69921 2.10938m6.69922-2.10938l1.75 1.71875m-2.72266-1.41406l.875.85938m13.39844-1.21485l-6.67188 2.21094m6.67188-2.21094l1.77344 1.69531m-2.7422-1.37109l.88673.84375m13.40625-1.14062l-6.6875 2.15625m6.6875-2.15625l1.76172 1.70703m-2.73438-1.39453l1.76172 1.70703m12.52344-2.01953l-6.6875 2.15625m6.6875-2.15625l1.76172 1.70703m-2.73438-1.39453l1.76172 1.70703m-2.73438-1.39453l.88282.85546m14.39843-1.42578l-6.72656 2.04297m6.72656-2.04297l1.73047 1.73829m-2.71093-1.4375l1.73437 1.73828m-2.71094-1.44141l.8672.86719m14.32812-1.6836l-6.57422 2.48438"/><g clip-path="url(#ar)"><path fill="none" stroke="#000" stroke-linecap="round" stroke-linejoin="round" stroke-miterlimit="10" stroke-width=".5" d="M466.84766 332.6211l1.84375 1.62109"/></g><path fill="none" stroke="#000" stroke-linecap="round" stroke-linejoin="round" stroke-miterlimit="10" stroke-width=".5" d="M465.89063 332.98438l1.84375 1.61718"/><g clip-path="url(#as)"><path fill="none" stroke="#000" stroke-linecap="round" stroke-linejoin="round" stroke-miterlimit="10" stroke-width=".5" d="M144.51953 324.02344l-1.03906-6.94922"/></g><g clip-path="url(#at)"><path fill="none" stroke="#000" stroke-linecap="round" stroke-linejoin="round" stroke-miterlimit="10" stroke-width=".5" d="M144.51953 324.02344l-1.97266 1.45703"/></g><g clip-path="url(#au)"><path fill="none" stroke="#000" stroke-linecap="round" stroke-linejoin="round" stroke-miterlimit="10" stroke-width=".5" d="M144.36719 323.01172l-.98438.73047"/></g><path fill="none" stroke="#000" stroke-linecap="round" stroke-linejoin="round" stroke-miterlimit="10" stroke-width=".5" d="M158.34375 323.90625l-2.0586-6.71875m2.0586 6.71875l-1.73438 1.73828m1.4336-2.71484l-.86719.86719m14.83594-.01954l-2.76172-6.46093m2.76172 6.46093l-1.53906 1.91407m1.13672-2.85157l-.76954.95313m15.2461-.45703l-4.28125-5.57422m4.28125 5.57422l-1.01953 2.23047m15.12109-3.07422l-5.85547-3.88672m5.85547 3.88672l-.23828 2.4414m-.61328-3.0078l-.1211 1.22265m14.72657-1.58594l-6.73047-2.02734m6.73047 2.02734l.47656 2.40625m-1.45703-2.70313l.47656 2.40625m13.96484-3.01953l-7.02343-.21093m7.02343.21093l1.08594 2.20313m-2.10937-2.23047l1.08593 2.19922m13.25391-2.27735h-7.02734m7.02734 0l1.15234 2.16797m-2.17578-2.16796l1.15235 2.16796m-2.17188-2.16796l.57422 1.08593m14.73047-1.69922l-6.91797 1.23047m6.91797-1.23047l1.51172 1.9297m-2.51953-1.75392l1.51562 1.9336m12.67578-2.61719l-6.66015 2.24219m6.66015-2.24219l1.78516 1.6875m-2.7539-1.35937l1.78515 1.68359m12.57812-1.75l-6.8164 1.71875m6.8164-1.71875l1.64454 1.82031m-2.63672-1.57031l1.64453 1.82031m12.57422-2.36328l-6.63672 2.3086m6.63672-2.3086l1.80078 1.66406m-2.76563-1.32812l1.79688 1.66797m12.61328-1.51563l-6.89844 1.33203m6.89844-1.33203l1.54297 1.90625m-2.54688-1.71484l1.54297 1.91015m12.83594-1.61328l-7.01953.35157m7.01953-.35157l1.25781 2.10547m-2.28125-2.05469l1.26172 2.10547m-2.28125-2.05468l.6289 1.05468m14.71485-1.33593l-6.99219.71093m6.99219-.71093l1.36328 2.04296m-2.3789-1.9375l1.36328 2.03907m-2.38282-1.9375l.6836 1.01953m14.64844-1.36328l-6.95704.98437m6.95704-.98437l1.4453 1.98437m-2.45702-1.83984l1.4453 1.98437m12.91798-1.73828l-7.02735.20703m7.02735-.20703l1.21484 2.13281m11.95313-3.03515l-6.73438 2.01172m6.73438-2.01172l1.72265 1.7461m-2.70312-1.45313l.86328.8711m13.02734-2.05079l-5.92187 3.78125m5.92187-3.78125l2.13672 1.20703m-3-.65625l2.13672 1.20703m11.95703-1.88281l-5.7539 4.03516m5.7539-4.03516l2.1875 1.10938m11.03516-1.23438l-5.57031 4.28516m4.7578-3.66407l1.1172.50782m11.28906-2.33594l-2.125 6.69922m1.8164-5.72656l1.20704-.21875m14.12109.42968l-5.53516 4.32813m4.73047-3.69531l1.1211.49609m13.33593-.60938l-6.20703 3.29297m6.20703-3.29297l2.03125 1.3711m-2.9375-.89453l1.01953.6875m12.8047-1.75391l-5.41798 4.47266"/><g clip-path="url(#av)"><path fill="none" stroke="#000" stroke-linecap="round" stroke-linejoin="round" stroke-miterlimit="10" stroke-width=".5" d="M466.26953 318.3125l2.26953.9336"/></g><path fill="none" stroke="#000" stroke-linecap="round" stroke-linejoin="round" stroke-miterlimit="10" stroke-width=".5" d="M465.48438 318.96094l2.26562.9375m-3.05469-.28516l1.13281.46875"/><path fill="#ff3030" fill-rule="evenodd" d="M446.63281 467.64844h7.6914V457.5039h-7.6914v10.14453"/><path fill="azure" fill-rule="evenodd" d="M448.46484 459.33594h.83204v5.73828h3.1953v.74219h-4.02734v-6.48047"/><path fill="#ff3030" fill-rule="evenodd" d="M309.04297 463.21094h7.6914V453.0625h-7.6914v10.14844"/><path fill="azure" fill-rule="evenodd" d="M310.875 454.89844h.83203v5.73828h3.19531v.74219H310.875v-6.48047"/><path fill="#ff3030" fill-rule="evenodd" d="M158.13672 458.77344h7.69531V448.625h-7.69531v10.14844"/><path fill="azure" fill-rule="evenodd" d="M159.97266 450.45703h.83203v5.74219H164v.73828h-4.02734v-6.48047"/><path fill="#ff3030" fill-rule="evenodd" d="M202.52344 418.82813h7.6914v-10.14844h-7.6914v10.14844"/><path fill="azure" fill-rule="evenodd" d="M204.35547 410.51172h.83203v5.74219h3.19531v.73828h-4.02734v-6.48047"/><path fill="#ffffe0" fill-rule="evenodd" d="M368.375 429.82031h22.17969v-10.1914H368.375v10.1914"/><path fill-rule="evenodd" d="M371.875 421.46484h.50781v6.29297h-.78906v-4.48828h-1.38672v-.5586l.5586-.0625.2539-.05468.23047-.08984.20313-.14063.17187-.21094.14453-.29296.10547-.39454m4.8125 0l.23047.01563.21875.0586.20703.08984.19531.11718.1836.15235.17187.17578.30078.41797.2461.49219.17968.54687.10938.58203.03906.58985-.03906.59375-.10938.58203-.17968.55468-.2461.50391-.30078.42578-.17187.17969-.1836.15234-.19531.125-.20703.09375-.21875.05469-.23047.01953-.23047-.01953-.21875-.05469-.20703-.09375-.19531-.125-.1875-.15234-.16797-.17969-.30469-.42578-.24219-.5039-.17968-.5547-.11329-.58202-.03515-.59375h.83203l.02734.5625.08204.5078.1289.44141.16016.375.1914.30079.21094.21875.22266.14062.22656.04688.22656-.04688.22266-.14063.21094-.21875.1914-.30078.16016-.375.1289-.4414.07813-.50781.03125-.5625-.03125-.5625-.07813-.5-.1289-.4336-.16016-.36719-.1914-.29296-.21094-.21485-.22266-.1289-.22656-.04688-.22656.04688-.22266.1289-.21094.21485-.1914.29296-.16016.3672-.1289.43358-.08204.5-.02734.5625h-.83203l.03515-.58984.11329-.58203.17968-.54688.2422-.49218.30468-.41797.16797-.17578.1875-.15235.19531-.11718.20703-.08985.21875-.0586.23047-.01562m5.08984 0h.51172v6.29297H381.5v-4.48828h-1.38672v-.5586l.5586-.0625.2539-.05468.22656-.08984.20313-.14063.17578-.21094.14063-.29296.10546-.39454m2.82422 2.17188h.78906l.01954-.3125.05859-.28906.09766-.25.14062-.21875.17969-.17188.22656-.1289.26172-.08204.3086-.02734.23827.02344.22266.0625.20703.10156.17969.13672.14844.17578.11328.20313.07031.23828.02344.26171-.01953.26954-.0664.22656-.10938.1914-.15625.17188-.19922.16016-.25.16796-.63281.38672-.53516.3125-.4375.31641-.34766.32813-.26562.33593-.1875.34766-.125.3711-.07031.39452-.01954.41797h4.21094v-.74219h-3.33203l.08203-.28125.11328-.23828.14844-.20312.1875-.17969.23047-.17187.27734-.17188.71875-.41797.41406-.20703.34766-.23047.28125-.25.21875-.26953.16406-.27734.10938-.28125.0664-.28516.01954-.28125-.04297-.38281-.1211-.35156-.1875-.3047-.25-.26562-.30468-.21093-.34375-.16016-.38282-.09766-.40625-.03125-.43359.03125-.39844.09766-.35547.16797-.30468.23437-.2461.3047-.1875.37108-.11719.44922-.03906.51563"/><path fill="#ffffe0" fill-rule="evenodd" d="M257.41406 436.57813h22.17969v-10.19141h-22.17969v10.1914"/><path fill-rule="evenodd" d="M260.91406 428.21875h.50781v6.29297h-.78515v-4.48828H259.25v-.55469l.5586-.0664.25-.0547.23046-.08593.20313-.14453.17578-.20703.14062-.29688.10547-.39453m4.8125 0l.23047.01953.21875.05469.20703.08984.19922.1211.1836.14843.17187.17579.30078.42187.24219.49219.17969.54687.11328.57813.03906.58984-.03906.59375-.11328.58594-.1797.55469-.24218.5-.30078.42968-.17188.1797-.18359.15233-.19922.125-.20703.08985-.21875.0586-.23047.01952-.22656-.01953-.21875-.0586-.21094-.08983-.19531-.125-.1836-.15235-.17187-.17969-.30078-.42968-.24219-.5-.17969-.5547-.11328-.58593-.03906-.59375h.83594l.02734.5664.08203.50391.125.44141.16407.375.1914.30078.20703.22266.22266.13672.22656.04687.22656-.04687.22266-.13672.21094-.22266.1914-.30078.16407-.375.125-.4414.08203-.50391.02734-.5664-.02734-.5586-.08203-.5-.125-.4375-.16406-.36719-.19141-.28906-.21094-.21485-.22265-.1328-.22657-.04298-.22656.04297-.22266.13281-.20703.21485-.1914.28906-.16407.36719-.125.4375-.08203.5-.02734.5586h-.83594l.03906-.58985.11329-.57813.17968-.54687.24219-.49219.30078-.42188.17188-.17578.18359-.14843.19531-.1211.21094-.08984.21875-.05469.22656-.01953m5.09375 0h.50781v6.29297h-.78515v-4.48828h-1.39063v-.55469l.5625-.0664.25-.0547.23047-.08593.20313-.14453.17578-.20703.14062-.29688.10547-.39453m2.82422 2.17578h.78516l.01953-.3164.0586-.28516.10156-.2539.14062-.21485.17969-.17578.22265-.1289.26563-.07813.3086-.02735.23827.01953.22266.0625.20313.10157.17968.14062.14844.17188.11328.20703.07031.23437.02735.26563-.02344.26953-.0625.22265-.11328.19141-.15235.17188-.20312.16406-.2461.16406-.6328.39063-.53907.3125-.4375.3164-.34765.32422-.26172.33594-.19141.35156-.125.3711-.07031.39062-.01953.41797h4.21093v-.73828h-3.33203l.08594-.28516.11328-.23437.14844-.20313.1836-.17969.23437-.17187.27734-.17578.71485-.41797.41796-.20313.34375-.23046.28125-.25391.21875-.26563.16407-.27734.11328-.28516.0625-.28515.01953-.28125-.04297-.38281-.11719-.34766-.1914-.3086-.25-.26171-.30079-.21485-.34765-.15625-.3789-.09765-.40626-.03516-.4375.03125-.39453.10156-.35547.16406-.30469.23438-.25.30469-.18359.375-.11719.44531-.03906.51953"/><path fill="#ffffe0" fill-rule="evenodd" d="M173.08594 377.83984h22.17969v-10.1914h-22.1797v10.1914"/><path fill-rule="evenodd" d="M176.58594 369.48047h.50781v6.29297h-.78516v-4.48828h-1.39062v-.5547l.5625-.0664.25-.05469.23047-.08984.20312-.14062.17578-.21094.14063-.29297.10547-.39453m4.8125 0l.23047.01953.21875.05469.20703.08984.19922.1211.18359.14843.17188.17578.30078.41797.24218.4961.1797.54687.11327.57813.03516.58984-.03516.59375-.11328.58594-.17969.55078-.24218.5039-.30078.4297-.17188.17968-.1836.15234-.19921.1211-.20703.09375-.21875.0586-.23047.01952-.22656-.01953-.21875-.0586-.21094-.09374-.19531-.1211-.1836-.15234-.17187-.17969-.30078-.42969-.2461-.5039-.17969-.55078-.10937-.58594-.03906-.59375h.83203l.03125.5625.08203.50781.125.4414.16406.375.1875.30079.21094.22266.22266.13671.22656.04688.22656-.04688.22266-.13671.21093-.22266.19141-.30078.16406-.375.125-.4414.08203-.50782.02735-.5625-.02735-.5586-.08203-.5039-.125-.4336-.16406-.36718-.1914-.28906-.21094-.21485-.22266-.13281-.22656-.04297-.22656.04297-.22266.13281-.21094.21485-.1875.28906-.16406.36719-.125.43359-.08203.5039-.03125.5586h-.83203l.03906-.58984.10937-.57813.1797-.54687.24608-.4961.30079-.41797.17187-.17578.1836-.14844.1953-.12109.21095-.08984.21875-.05469.22656-.01953m5.09375 0H187v6.29297h-.78516v-4.48828h-1.39062v-.5547l.5586-.0664.2539-.05469.23047-.08984.20312-.14062.17188-.21094.14453-.29297.10547-.39453m2.82031 2.17578h.78906l.01953-.3164.0586-.28907.10156-.25.13672-.21484.1836-.17578.22265-.12891.26562-.07813.3086-.02734.23828.01953.22266.0625.20312.10156.17969.13672.14844.17579.11328.20312.0703.23828.02735.26563-.02344.26562-.0664.22656-.10938.19141-.15625.17188-.19922.16015-.24609.16797-.63672.38672-.53515.3164-.4375.31641-.34766.32422-.26172.33594-.1914.35156-.125.36719-.07032.39453-.01953.41797h4.21094v-.73828h-3.33203l.08203-.28516.11328-.23828.14844-.19922.1875-.17969.23047-.17187.28125-.17578.71484-.41797.41797-.20313.34375-.23437.28125-.25.21875-.26563.16406-.27734.11328-.28516.0625-.28515.01953-.28125-.04297-.38282-.11718-.34765-.1914-.3086-.25-.26171-.30079-.21485-.34766-.15625-.3789-.10156-.40625-.03125-.4375.03125-.39844.09765-.35156.16797-.30469.23438-.25.30469-.1875.375-.11328.4453-.04297.51954"/><path fill="#ffffe0" fill-rule="evenodd" d="M301.80078 361.875h22.17969v-10.1914h-22.17969v10.1914"/><path fill-rule="evenodd" d="M305.29688 353.51563h.51171v6.29687h-.78906v-4.49219h-1.38672v-.55469l.5586-.0625.2539-.05468.22656-.08985.20313-.14062.17578-.21094.14063-.29297.10546-.39844m4.81641 0l.22656.01954.21875.05468.21094.08985.19531.1211.1836.15233.17187.17579.30078.41796.2422.4922.18358.54687.10938.57812.03906.59375-.03906.59375-.10938.58203-.18359.5547-.24219.5-.30078.42968-.17187.17969-.1836.15234-.1953.125-.21095.08984-.21875.0586-.22656.01953-.23047-.01953-.21875-.0586-.20703-.08984-.19922-.125-.1836-.15234-.17187-.1797-.30078-.42968-.24219-.5-.17968-.55469-.11328-.58203-.03907-.59375h.83594l.02735.5625.08203.5039.125.44532.16406.375.1914.30078.21094.21875.22266.13672.22656.04688.22656-.04688.22266-.13672.21094-.21875.1875-.30078.16406-.375.125-.44531.08203-.5039.03125-.5625-.03125-.5625-.08203-.5-.125-.4336-.16406-.36719-.1875-.29297-.21094-.21484-.22266-.1289-.22656-.04688-.22656.04687-.22266.1289-.21094.21485-.1914.29297-.16406.36719-.125.4336-.08204.5-.02734.5625h-.83594l.03907-.59376.11328-.57812.17969-.54688.24218-.49219.30078-.41796.17188-.17579.1836-.15234.19921-.1211.20703-.08984.21875-.05468.23047-.01954m5.08985 0h.5078v6.29688h-.78515v-4.49219h-1.39062v-.55469l.5625-.0625.25-.05468.23046-.08985.20313-.14062.17578-.21094.14063-.29297.10546-.39844m6.8047 1.6211h-.78907l-.05078-.21094-.08203-.1875-.10547-.16015-.1289-.12891-.14844-.10547-.16016-.07422-.16797-.04297-.17188-.01562-.32812.03906-.28906.1211-.2461.1953-.20312.26954-.16016.33984-.11719.40235-.0703.46875-.02344.52343.1914-.20312.1875-.15625.1836-.125.18359-.08594.1914-.0625.19141-.03516.39844-.02343.3086.02734.3203.09375.31641.15625.29297.21875.25781.28516.19922.35156.07031.19922.0547.21875.02733.23437.00391.25-.78515.04688-.02735-.25781-.07812-.25391-.1211-.23438-.16015-.21093-.19532-.17579-.21875-.13671-.24218-.08985-.25391-.03125-.2539.03125-.2422.08985-.21874.13671-.19141.17579-.16016.21093-.125.23438-.07812.2539-.02735.25782.02735.25781.07812.25.125.23438.16016.21093.1914.17969.21876.13672.24218.08594.25391.03125.2539-.03125.2422-.08594.21874-.13672.19532-.17969.16015-.21094.1211-.23437.07812-.25.02735-.25781.78515-.04688-.02734.3711-.09375.37109-.15625.35938-.22266.32812-.29297.28125-.16797.1211-.1914.10156-.20313.08203-.22265.0625-.2422.03906-.26171.01172-.28125-.01563-.26172-.04687-.23828-.07813-.21484-.10546-.19532-.12891-.17187-.15625-.15625-.17969-.13281-.20312-.1172-.22266-.10155-.24219-.14454-.53515-.08593-.59375-.02735-.64063.03907-.74219.11328-.66406.1875-.57812.1211-.25391.13671-.23047.15234-.20703.17188-.1836.1836-.15234.20312-.13281.21875-.10156.23047-.07031.25-.04688.26171-.01563.36329.03516.33593.09375.29297.15235.25781.19921.21094.2422.16406.27343.1172.30469.0625.3203"/><path fill="#ffffe0" fill-rule="evenodd" d="M190.83984 338.10547h22.1797v-10.19531h-22.1797v10.1953"/><path fill-rule="evenodd" d="M194.33984 329.7461h.50782v6.29296h-.78516v-4.48828h-1.39063v-.55469l.5625-.0664.25-.05469.23047-.08984.20313-.14063.17578-.21094.14063-.29296.10546-.39454m4.8125 0l.23047.01954.21875.05468.20703.08985.19532.12109.1875.14844.16797.17578.30468.41797.24219.4961.17969.54687.11328.57812.03516.58985-.03516.59375-.11328.58593-.17969.55078-.24219.50391-.30469.42578-.16796.17969-.1875.15625-.19532.1211-.20703.09374-.21875.05469-.23047.01953-.23047-.01953-.21875-.05469-.20703-.09375-.1953-.1211-.1836-.15624-.17188-.17969-.30078-.42578-.2461-.5039-.17968-.55079-.10938-.58594-.03906-.59375h.83203l.03125.5625.08203.50782.125.4414.16016.375.1914.30079.21095.22265.22265.13672.22656.04688.22657-.04688.22265-.13672.21094-.22265.1914-.30079.16016-.375.1289-.4414.08204-.50781.02734-.5625-.02734-.5625-.08203-.5-.1289-.4336-.16016-.36719-.19141-.29296-.21094-.21094-.22265-.13281-.22657-.04688-.22656.04688-.22266.1328-.21093.21094-.1914.29297-.16017.3672-.125.43358-.08203.5-.03125.5625h-.83203l.03906-.58984.10938-.57812.17969-.54688.2461-.4961.30077-.41796.17188-.17578.1836-.14844.1953-.1211.20703-.08984.21875-.05469.23047-.01953m5.09375 0h.50782v6.29297h-.78907v-4.48828h-1.38672v-.55469l.5586-.0664.2539-.05469.23047-.08984.20313-.14063.17187-.21094.14063-.29296.10937-.39454m6.80078 1.6172h-.78515l-.05078-.21095-.08203-.1875-.10938-.15625-.1289-.1328-.14454-.10157-.16015-.07422-.16797-.04688-.17578-.01562-.32813.04297-.28515.11719-.2461.19921-.20312.26563-.16016.33984-.11719.40235-.0703.46875-.02345.52734.1875-.20312.1875-.16016.1836-.1211.1875-.08984.1875-.0586.1914-.03905.40235-.02344.3086.03125.3203.08984.31641.15625.29297.21875.2539.28516.19922.35156.07422.19922.05078.21875.03125.23438.00391.25-.78906.04687-.02344-.25781-.07813-.25-.125-.23438-.16015-.21094-.1914-.17968-.21876-.13672-.24219-.08594-.2539-.03125-.25781.03125-.23828.08594-.21875.13672-.19532.17969-.16015.21093-.1211.23438-.07812.25-.02735.25781.02735.25781.07812.2539.1211.23438.16015.21094.19531.17578.21875.13672.23829.08985.2578.03125.25392-.03125.24218-.08985.21875-.13672.1914-.17578.16017-.21094.125-.23437.07812-.2539.02344-.25782.78906-.04688-.03125.3711-.09375.3711-.15625.35937-.22266.32812-.28906.28516-.17187.11719-.1875.10156-.20703.08203-.22266.0625-.24219.03906-.25781.01172-.28516-.01562-.25781-.04688-.23828-.07422-.21484-.10547-.19532-.1328-.17578-.15626-.15234-.17969-.13672-.20312-.11719-.22266-.09766-.24219-.14843-.53515-.08203-.58985-.02735-.64062.03906-.7461.11329-.66015.1875-.57813.11718-.2578.13672-.23048.15625-.20703.16797-.17969.1875-.15625.20313-.1289.21484-.10156.23438-.07422.24609-.04297.26172-.01563.36719.03125.33203.09766.29687.15234.2539.19922.21095.23828.16796.27735.11328.30078.0625.32031"/><path fill="#ffffe0" fill-rule="evenodd" d="M341.74219 327.89844h22.13672v-10.1914h-22.13672v10.1914"/><path fill-rule="evenodd" d="M345.24219 319.53906h.51172v6.29688h-.78907v-4.49219h-1.38671v-.55469l.55859-.0625.2539-.05469.22657-.08984.20312-.14062.17578-.21094.14063-.29297.10547-.39844m4.8164 0l.22657.01953.21875.0547.21093.08983.19532.1211.18359.15234.17188.17578.30078.41797.24218.49219.1797.54688.11327.57812.03906.59375-.03906.59375-.11328.58203-.17969.55469-.24218.5-.30079.42969-.17187.17968-.1836.15235-.1953.125-.21094.08984-.21875.0586-.22657.01953-.23046-.01954-.21875-.05859-.20704-.08984-.19921-.125-.1836-.15235-.17187-.17968-.30079-.4297-.24218-.5-.17969-.55468-.11328-.58203-.03906-.59375h.83593l.02735.5625.08203.5039.125.44532.16406.375.1914.30078.21094.21875.22266.13672.22656.04687.22657-.04687.22265-.13672.21094-.21875.1875-.30078.16406-.375.125-.44531.08203-.50391.03125-.5625-.03125-.5625-.08203-.5-.125-.4375-.16406-.36328-.1875-.29297-.21094-.21484-.22265-.12891-.22657-.04688-.22656.04688-.22265.1289-.21094.21485-.1914.29297-.16407.36328-.125.4375-.08203.5-.02735.5625h-.83593l.03906-.59375.11328-.57813.17969-.54687.24219-.49219.30078-.41797.17187-.17578.1836-.15234.19921-.1211.20704-.08984.21875-.05469.23046-.01953m2.96094 2.17578h.78516l.01953-.3164.0625-.28516.09765-.2539.14063-.21485.17969-.17187.22265-.12891.26563-.08203.3086-.02735.23827.01954.22266.0664.20703.10156.17578.13672.15235.17188.10937.20703.07422.23438.02344.26562-.01953.26953-.06641.22266-.10938.1914-.15625.17188-.20312.16406-.2461.16406-.6328.39063-.53907.3125-.4375.3164-.34375.32422-.26562.33594-.19141.35156-.125.3711-.0664.39062-.02344.42188h4.21484v-.74219h-3.33203l.08203-.28516.11328-.23437.14844-.20313.1875-.17968.23047-.17188.27734-.17578.71875-.41406.41406-.20703.34766-.23047.27734-.25.22266-.26953.16406-.27735.10938-.28515.0625-.28516.02344-.28125-.04297-.38281-.1211-.34766-.1875-.3086-.2539-.26171-.30079-.21094-.34375-.16015-.3828-.09766-.40626-.03516-.4336.03516-.39843.09765-.35547.16797-.30469.23438-.25.30078-.18359.375-.11719.44531-.03906.51953m6.9414-2.17578l.23048.01953.21875.0547.20703.08983.19922.1211.18359.15234.17188.17578.30078.41797.24218.49219.1797.54688.11327.57812.03906.59375-.03906.59375-.11328.58203-.17969.55469-.24218.5-.30079.42969-.17187.17968-.1836.15235-.19921.125-.20703.08984-.21875.0586-.23047.01953-.22656-.01954-.21875-.05859-.21094-.08984-.19531-.125-.1836-.15235-.17187-.17968-.30079-.4297-.24609-.5-.17969-.55468-.10937-.58203-.03906-.59375h.83203l.03125.5625.08203.5039.125.44532.16406.375.1875.30078.21094.21875.22265.13672.22657.04687.22656-.04687.22266-.13672.21093-.21875.19141-.30078.16406-.375.125-.44531.08203-.50391.02735-.5625-.02735-.5625-.08203-.5-.125-.4375-.16406-.36328-.1914-.29297-.21094-.21484-.22266-.12891-.22656-.04688-.22656.04688-.22266.1289-.21094.21485-.1875.29297-.16406.36328-.125.4375-.08203.5-.03125.5625h-.83203l.03906-.59375.10937-.57813.1797-.54687.24608-.49219.30079-.41797.17187-.17578.1836-.15234.1953-.1211.21094-.08984.21875-.05469.22657-.01953"/></g></defs><use xlink:href="#aw"/></svg>