<svg xmlns="http://www.w3.org/2000/svg" role="img" xmlns:xlink="http://www.w3.org/1999/xlink" viewBox="142.45 309.95 326.84 171.84"><defs><clipPath id="a"><path d="M144 311.67188h1v168.65625h-1zm0 0"/></clipPath><clipPath id="b"><path d="M144 311.67188h324v168.65625H144zm0 0"/></clipPath><clipPath id="c"><path d="M467 311.67188h1v168.65625h-1zm0 0"/></clipPath><clipPath id="d"><path d="M144 479h4v1.32813h-4zm0 0"/></clipPath><clipPath id="e"><path d="M147 479h3v1.32813h-3zm0 0"/></clipPath><clipPath id="f"><path d="M146 479h3v1.32813h-3zm0 0"/></clipPath><clipPath id="g"><path d="M153 479h8v1.32813h-8zm0 0"/></clipPath><clipPath id="h"><path d="M160 479h3v1.32813h-3zm0 0"/></clipPath><clipPath id="i"><path d="M159 479h3v1.32813h-3zm0 0"/></clipPath><clipPath id="j"><path d="M167 478h8v2.32813h-8zm0 0"/></clipPath><clipPath id="k"><path d="M173 478h4v2.32813h-4zm0 0"/></clipPath><clipPath id="l"><path d="M172 479h4v1.32813h-4zm0 0"/></clipPath><clipPath id="m"><path d="M180 478h8v2.32813h-8zm0 0"/></clipPath><clipPath id="n"><path d="M186 478h4v2.32813h-4zm0 0"/></clipPath><clipPath id="o"><path d="M185 479h3v1.32813h-3zm0 0"/></clipPath><clipPath id="p"><path d="M193 478h8v2.32813h-8zm0 0"/></clipPath><clipPath id="q"><path d="M200 478h3v2.32813h-3zm0 0"/></clipPath><clipPath id="r"><path d="M199 478h2v2.32813h-2zm0 0"/></clipPath><clipPath id="s"><path d="M207 478h8v2.32813h-8zm0 0"/></clipPath><clipPath id="t"><path d="M213 478h3v2.32813h-3zm0 0"/></clipPath><clipPath id="u"><path d="M212 479h3v1.32813h-3zm0 0"/></clipPath><clipPath id="v"><path d="M220 478h8v2.32813h-8zm0 0"/></clipPath><clipPath id="w"><path d="M226 478h4v2.32813h-4zm0 0"/></clipPath><clipPath id="x"><path d="M225 479h3v1.32813h-3zm0 0"/></clipPath><clipPath id="y"><path d="M233 478h8v2.32813h-8zm0 0"/></clipPath><clipPath id="z"><path d="M239 478h4v2.32813h-4zm0 0"/></clipPath><clipPath id="A"><path d="M247 478h7v2.32813h-7zm0 0"/></clipPath><clipPath id="B"><path d="M260 478h8v2.32813h-8zm0 0"/></clipPath><clipPath id="C"><path d="M274 477h6v3.32813h-6zm0 0"/></clipPath><clipPath id="D"><path d="M287 477h6v3.32813h-6zm0 0"/></clipPath><clipPath id="E"><path d="M301 477h6v3.32813h-6zm0 0"/></clipPath><clipPath id="F"><path d="M314 477h6v3.32813h-6zm0 0"/></clipPath><clipPath id="G"><path d="M327 477h6v3.32813h-6zm0 0"/></clipPath><clipPath id="H"><path d="M341 477h6v3.32813h-6zm0 0"/></clipPath><clipPath id="I"><path d="M354 477h6v3.32813h-6zm0 0"/></clipPath><clipPath id="J"><path d="M367 477h7v3.32813h-7zm0 0"/></clipPath><clipPath id="K"><path d="M380 478h8v2.32813h-8zm0 0"/></clipPath><clipPath id="L"><path d="M385 479h3v1.32813h-3zm0 0"/></clipPath><clipPath id="M"><path d="M393 478h8v2.32813h-8zm0 0"/></clipPath><clipPath id="N"><path d="M407 478h7v2.32813h-7zm0 0"/></clipPath><clipPath id="O"><path d="M420 478h8v2.32813h-8zm0 0"/></clipPath><clipPath id="P"><path d="M425 479h3v1.32813h-3zm0 0"/></clipPath><clipPath id="Q"><path d="M433 478h8v2.32813h-8zm0 0"/></clipPath><clipPath id="R"><path d="M438 478h3v2.32813h-3zm0 0"/></clipPath><clipPath id="S"><path d="M447 478h7v2.32813h-7zm0 0"/></clipPath><clipPath id="T"><path d="M460 478h7v2.32813h-7zm0 0"/></clipPath><clipPath id="U"><path d="M466 478h2v2.32813h-2zm0 0"/></clipPath><clipPath id="V"><path d="M144 465h4v4h-4zm0 0"/></clipPath><clipPath id="W"><path d="M466 466h2v4h-2zm0 0"/></clipPath><clipPath id="X"><path d="M144 452h4v4h-4zm0 0"/></clipPath><clipPath id="Y"><path d="M466 451h2v2h-2zm0 0"/></clipPath><clipPath id="Z"><path d="M144 439h4v3h-4zm0 0"/></clipPath><clipPath id="aa"><path d="M144 426h4v2h-4zm0 0"/></clipPath><clipPath id="ab"><path d="M465 423h3v2h-3zm0 0"/></clipPath><clipPath id="ac"><path d="M144 413h4v2h-4zm0 0"/></clipPath><clipPath id="ad"><path d="M466 412h2v3h-2zm0 0"/></clipPath><clipPath id="ae"><path d="M144 399h4v3h-4zm0 0"/></clipPath><clipPath id="af"><path d="M466 398h2v3h-2zm0 0"/></clipPath><clipPath id="ag"><path d="M144 385h4v4h-4zm0 0"/></clipPath><clipPath id="ah"><path d="M466 386h2v4h-2zm0 0"/></clipPath><clipPath id="ai"><path d="M144 371h4v6h-4zm0 0"/></clipPath><clipPath id="aj"><path d="M466 373h2v4h-2zm0 0"/></clipPath><clipPath id="ak"><path d="M144 357h3v7h-3zm0 0"/></clipPath><clipPath id="al"><path d="M144 343h2v8h-2zm0 0"/></clipPath><clipPath id="am"><path d="M144 350h2v3h-2zm0 0"/></clipPath><clipPath id="an"><path d="M144 349h1v2h-1zm0 0"/></clipPath><clipPath id="ao"><path d="M466 346h2v3h-2zm0 0"/></clipPath><clipPath id="ap"><path d="M144 330h1v8h-1zm0 0"/></clipPath><clipPath id="aq"><path d="M144 337h1v2h-1zm0 0"/></clipPath><clipPath id="ar"><path d="M144 336h1v2h-1zm0 0"/></clipPath><clipPath id="as"><path d="M466 332h2v3h-2zm0 0"/></clipPath><clipPath id="at"><path d="M144 316h1v9h-1zm0 0"/></clipPath><clipPath id="au"><path d="M144 323h1v3h-1zm0 0"/></clipPath><clipPath id="av"><path d="M144 322h1v2h-1zm0 0"/></clipPath><clipPath id="aw"><path d="M466 318h2v2h-2zm0 0"/></clipPath><clipPath id="ax"><path d="M465 318h3v3h-3zm0 0"/></clipPath><g id="ay" clip-path="url(#clip1)"><path fill="#fff" fill-opacity="0" fill-rule="evenodd" d="M0 0h1000v1000H0zm0 0"/><path fill="#d3d3d3" fill-opacity="0" fill-rule="evenodd" d="M162.15234 355.86719l-.23437.29297.0586.23437.11718.17188.17578.23437.29297.34766.11328.0586.11719-.17188.0586-.23438.17577-.17578.46485-.17578h.69922l.23437.29297.28906.8164.0586.17579.17578.23046.35156.23438.69922.69922.17188.17578.23437.34765.23438.41016.28906.58203.41015.46485.23047.23437.23438.17578.11719.23047.17578.29297.17187 1.16406v.23438l.0586.28906.05859.11719.11719.11719.34765.41015.11719.17188.17578.17578.17578.23437.11719.17188.17188.35156.05859.23438.23437.40625.23438-.0586-.17578.17578-.0586.92969h-.58203l-.23437-.11328-.34766.11328-.11719.11719-.05859.29297-.0586.17578-.11718.17187-.46484.29297-.0586.23438-.0586.11328v.64453l.0586.17187v.41016l.0586.0586v.40624l.05859.40625.11719.17579.05859.05859.23047.64062-.0586.29297v.69922l-.05859.58203v.23438l-.0586.23047-.05468.35156v1.92187l.05469.1172h.42578l-.36719.11718-.02344.35156.89063 1.16797 1.74219.53906 1.33984.35938v.53906l.08984.8086.53516.71484 1.51953.26953.89063-.08594.08984 1.16406.53516.1797 1.16015-.1797 2.05469-.98437 1.16016-.36328 1.8789-.17578 1.69531-.1797-.17968.71876-1.51563.08594-1.25.08984-.80469.26953-1.07421.8086.26953.71875.53515.89843-.17968.625-.26563.8086.26563 1.07812.625.89844.80468.17969 1.25-.1797-.26562.72267.09766.5039.05468.29297v.17188l.0586.29296v.40625l.17578.1172.35156.11718h.40625l.29297-.17578.11328-.11719.0586-.11719.11718-.23047.0586-.17578.35156-.46484.23047-.17578.17578-.0586.17578.0586.0586.17578.11718.98828.05469.46875.0586.17188.11718.23437.17578.0586.8164.05859h.28907l.11719.23437.05859.40625.0586.35156v1.10547l.11718.29297.11719.34766.28906.69922.17578.35156.58203.7539.35157.17579.17187.0586.46875.23437.64063.46484.34765.23438.29297.17578.29297.05468.23047.0625.8164.34766.29297.17578.11328.17188.35157.35156.11719.17578.52343.64063v.28906l.0586.35156v.34766l.05859.35156.0586.28906.11718.0586.17188.05859h.17578l.58203.23437.17578.1172.17578.28905.17578.23438.11328.23437.29297.23047.11719.11719v.41016l.0586.05468.28906.23438.23437.11719.0586.11718.11718.17188.0586.11719.23047.23437.05859.17578.23437.0586.1172.05859-.1172.11328-.05859.11719v.11719l-.11719.29296-.11719.28907v.58203l.17579.11719.11718.05859.0586.11719.11719.11719.11328.05859.17578.34765.0586.35157.05858.40625v.17578l-.05859.17578-.11719.69922v.17187l.1172.17579.29296.29296h.40625l.17578.1172.11719.17187.11719.29296v.23438h-.52735l-.23047-.23438h-.23437l-.17578.0586-.0586.69922.0586.34765.11719.17579.17578.41015.11718.23047.28907.46875.17578.05469h.52344l.23437.0586.75781.64062.0586.29296v.23438l.05859.0586.23047.34765v.35156l-.11719.17188v.29297l.29297.28906.29297.17578.17187.0586.29297.17577.29297.1172.58203.40624.28906.23438.29297.17578.21875.16015.01563.01172.23047.17579.64062.52343.17578.23438.1172.17578.17577.17578.11328.17188v.64062l.1172.17578.46874.11719.58203.11719.23438.05859.23047.11328.29297.11719.11328.0586.58593.35156.28907.17187.17578.0625.17578.05469.17578.0586.69922.35155.28906.17579.23438.05468.28906.17578.23437.1172.64063.40624.29297.11719.17187.0586.23438.05859.41015.05859.23047.0586.23438.11718.0586.17188-.41017.17578.46875.0586.0586.29296.11328.23438.17578.05468.23438.0586.17578.05859.40625.11719.64062.23437.11719.17188.0586.23437v.17578l-.0586.1172-.0586.40624.23438.23438.11719.05859.34766.11719.64062.23047.17578.11718.28906.1172.17578.17577.23438.46485.58203 1.10546.17578.17579.34766.17578.17578.11719.35156.11718 1.04688.52344.23437.0586.46485.11327.29297.0586.46484.17578.75781.58203.23438.23438.34765.46484.17578.17578.28907.23438.8164.69921.29297.17579.28906.28906.29297.17578.29297.28906.69531.64063.17578.17578.29297.23437.28907.23438.46875.28906.64062.58203.34766.23438.23437.29297.34766.34765.35156.46485.9336.99218.34765.40625.11719.17579.23437.05859.11328.11719.64454.17578.23047.11328.23437.0586.29297.17577.23047.1172.9336.69921.40624.40625.23438.17578.40625.17578.23437.11719.8164.34766.34766.23437.23438.11719.29297.28906.23047.11719.7578.35156.35157.17188.23047.05859.29297.11719.23437.0586.8711.17577h.8164l.46875.23047.17188.0586.875.69921.46484.1172.29297.05858.17578.0586.23047.0586.46875.05859.34766.05859.35156.0586.40625.05859h.29297l.17187.0586v.23046l.17578.17578h.29297l.34766.0586.35156.05859.69922.11719h.64063l.46484-.23438.29297-.17578.17187-.11719.41016-.17187.28906-.17578.9336-.46485.46875-.29297.52343-.29296.46485-.17188.46484-.17578 1.05078-.46485.28906-.11718.41016-.11719.28906-.11719.52735-.17578 1.51562-.69922.58203-.34765.28907-.0586.29297-.0586.34765-.11718.875-.23047.35156-.11719h.11329l.23437-.05859.875-.23437.23438-.0586h.8125l.35156-.0586.8164-.11718.17188-.0586.35156-.05468.29297-.0586.23047-.05859.8164-.17578.17579-.0586h.34765l.23438-.05859.46484-.11718.75781-.17188.23438-.0586h.34765l.41016-.11718.28906-.0586 1.28516-.05859h.28906l.41016-.0586.23047-.05858h.17578l.875-.1172h.40625l.41015-.11718h.34766l.35156-.11328.8711-.0586h1.75l1.04687.28907.41016.11719.28906.11718.35156.11719.28907.11719 1.05078.17187.28906.0586h.29297l.29297.05859.17187.0586.41016.05859.17187.0586.1172.05858h.11718l.11719.0586.35156.0586h.11328l.41016.0664 1.92187.39453 1.92578.39453 1.51953.44922 1.69532.71875 2.14453.80469 1.60547-.71875 1.42968-.80469 1.16016-1.07813 1.25-.44921 3.03516-.71875 1.875-.35938 2.14453-1.34765 2.23437-1.25391 2.5-1.25781 1.69531-.44922 1.78516-.17969 1.16016-.26953.625.53906 1.33984-.26953.71485-.98828.98437-1.34375.44531-.17969.80469-.35937 1.875-.53907 1.78516-.44921 1.25-.26954 1.16015-.08984 1.69922-.08984 1.96094-.26954 1.25-.08984h.53906l.625-.08984h.89063l2.14453-.17969 2.41015-.17969 2.58985-.08984 1.69531.17969 1.60938.08984 1.42968.35938 1.16016.71875 1.875.98828 1.16015 1.52734.26563.71484.6289.08985.35548.89844.53515.53906.53516 1.52734 1.07422.35938h.53515l-.80469.53515.08985 1.70703.71484 2.69532.89063.80468.89453.98829.71484 1.2578 1.78516.53907 1.51953-.17969.35547 1.34375 1.60937-.80469.98047-.53906.26953.26953.31641-.21484.21875-.14453.80078.44922.44922-.35938h.35547l.53515-.26953.53907-.71875.53515-.26953.625-.98828 1.16016.44922.83984.3711 1.39454.61718 1.6953-.17969h1.60548l1.78515.08985.17969-1.70704.53516-1.34375.80468.26954.4922.84765.40233.40625-.08984.53906v.35938l.71485.44922.71093-.26953h1.42969l.35938.98828.4453 1.25781.71485 1.34375 1.25.6289 1.69531.62891.71485-.17969.17969-.53906.98046-.08984.44922.35937.08594 1.25782-.26563.6289-.53515.17969v.53906l.71484.98438.26563.53906.98437.98828.80078 1.07813-.26562.35937-.08985.89844-.625 2.33203-.35546 2.0664-.08985 1.79298-.17969.71875-.08984.53906v1.4375l-.98047 1.88281-.35937 1.70703-.53516.89844-.80469 1.16797-.26562.53906 2.05469 1.2539.08593.35938-.35546.53906-.08985-.17968v.80859l.08985 1.4375-.44532.71484-1.07422.09375-.26562.71485.53515.89844.8047.71875 1.16015.80859 1.33984.26953.44531.35938-.35546.44921-1.78907-.08984-1.25-.44922-.71484-.71875-.625-.08984-.17578 3.58984-.1875 1.3086h89.35937V311.70313h-55.26953v49.08203l.76172.125 3.28906.54296 2.02344 2.83594v2.7539l2.35156.33204 2.34766.33203h4.05078l-1.3789 4.16016-2.02344.70703-2.02344.70312-.54297.34375-2.59375 1.6172-.1875.11718-2.02344-2.07813-.73046-2.74218-2.67188-2.07813-1.375-3.5-.0664-.08203-1.95704-2.67188 2.75-1.41796v-49.08204H294.42187v91.41407l.1172.03125.1328.01172.07422.07421.10547.04688.08985.0586.08593.05859.08985.0586.29687.29687.0586.08984.03125.11719.02734.11719.01563.13671-.03125.1172-.0586.08983-.0586.08594-.04296.10547-.04688.10156-.02734.1211v.14453l.17578.26953.14844.14844.07422.08594.07422.07421.04296.10547.0625.08985.0586.08593.04297.10547.0586.08985.04687.10156.04296.10547.0586.08594.11719.17968.07421.07422.0625.08594.0586.08984.04297.10547.0586.08985.05858.08593.0625.08985.0586.08984.04297.10156.11719.17969.07421.07422.0586.08594.07422.07421.08984.0586.10547.04687h.14844l.1328-.01562.13282.01562.10156-.04687.07422-.07422.04688-.10156-.01563-.13281v-.14844l-.04687-.10547-.02735-.11719-.04687-.10156-.02735-.1211-.04296-.10156-.0625-.08984-.04297-.10156-.04297-.10547-.03125-.11719-.01563-.13281-.01171-.13672.08593-.0586.0586-.08593.12109-.03125.04297.10547.01562.1328v.1172l.0586.10156.0586.08984.08983.0586.14844.14843.0586.08985.04296.10547-.01171.10156.08593.0586.10547.04687.08594.0586.08984.05858.07422.07422-.11719.02735-.10546.04687-.08594.0586-.07422.07421-.0586.08985-.0625.08594-.02734.12109-.04687.10156-.04297.10547-.03125.11719-.01172.13281-.01563.13281v.14844l.02735.11719.04687.10547.04297.10156.0586.08984.07421.07422.08985.0586.07422.07421.08984.0586.0586.08984.04296.10547.04688.10156.11719.03125.1328.01563h.14845l.11718-.03125.10547.04297.04297.10547.04688.10156.02734.1211L299.5 410l.02734.11719.03125.1211.02735.11718.10547.04297.10156.04687.13281-.01562.14844.14844.0625.08593.07422.07422.07031.07422.08984.0625.10547.04297.10156.04297.1172.03125.13671.01562.11719-.03125.07422-.07422.02734-.11718-.01172-.13282-.03125-.12109-.02734-.11719.04297-.10547h.11719l.08984.0625.11719.02735h.14843l.13282.01562h.14843l.13282.01563.1328-.01563h.14845l.1328-.01562.13282-.01172.13672.01172.11719-.02735.13281-.01562.1914-.0586-.05859.17579-.01562.1328-.02735.1211-.01562.13281-.0586.08594-.1328.01563-.10548.04687-.10546.04297-.1172.03125-.11718.02735-.26563.03125h-.14843l-.13281.01562-.07422.07422.05859.08594.14844.14843.11719.1797.07421.0703.08985.0625.08984.0586.08594.0586.08984.05858.10156.04297.10547.0625.10547.04297.08594.0586.10547.04687.10156.04297.17969.11719.0586.08984-.04298.10156-.04687.10547.01562.13281.22266.22266.0586.08985.04296.10156.03125.1211.04297.10155.01563.13282.03125.11718.01171.13672.03125.11719.14844.14844.10156.04297.10547.04296.1172.03125.1328.01563.13672.01563h.11719l.11719-.03125.08984-.0586.04297-.10547.04688-.10156.04296-.10547.03125-.11719.01172-.1328v-.14845l-.01172-.1328-.01562-.13282-.03125-.11719-.04297-.10547-.04688-.10547-.04296-.10156-.04297-.10547-.01563-.13281.01563-.13281.02734-.11719.03125-.11719.02735-.1211.04687-.10155.08984-.0586.08594-.0625.07422-.07422.08984-.05859.22266-.22266.0586-.08593.07421-.07422.11719-.17969.0586-.08594v-.14844l-.07423-.07421-.10156-.04688-.10547-.04297-.10156-.04297-.0586-.08984-.04687-.10547-.02734-.11719.08984-.05859.11719-.03125.10156-.04297.17969-.11719.14844-.14843.01172-.13282-.01172-.10546-.08985-.0586-.1328.01563h-.14845l-.1328.01562-.13282-.01562-.1211-.03125-.08593-.0586-.07422-.07422-.0586-.08984-.0625-.08594-.11718-.17969-.0586-.08593.03125-.1211.08594-.05859.1211-.03125.05859-.08594v-.1211l-.03125-.11718-.0586-.08984-.05859-.08594-.04687-.10547-.02735-.11719-.01562-.1328.0586-.08985.07421-.07422.08984-.0586.1172-.17968.07421-.07422.0586-.08594.14843-.14844.1211-.03125.1328-.01562.13282.01562.07422.07422.04297.10547.01562.13281-.03125.1172-.11719.03124-.1328.01172-.14844.14844-.04297.10547-.04688.10156-.02734.1211-.03125.11718v.14844l.03125.11719.04297.10546.05859.08985.07422.07031.07422.07422.11719.03125.12109.02734.11719-.02734.1328-.01563h.1172l.08984.0586.07422.07422.04687.10546.0586.08594.10156.04688.13281.01562.10547.04297.08594.0586-.01172.10546-.07422.07422-.17969.11719-.05859.08984-.08984.0586-.07032.07422-.07421.07421-.0625.08985-.02735.11719-.01562.1328.01562.13282-.01562.13281v.14844l.01562.13281.02735.1172.03125.12108.07421.07422.08985.0586.08594.0586.08984.05858.11719.03125v.08594l-.10157.04688-.08984.0586-.26563.03124-.11718.02735h-.14844l-.10547.04296-.10156.04688-.0586.08984-.0625.23438-.01171.13281-.03125.1211-.01563.1328v.29298l-.01172.1328.01172.13673.01563.1328.1328.01563.13282.01172.1211.03125.08593.0586.07422.07421.04688.10547.04296.10157.01563.1328v.44532l-.01563.13281v.44532l.03125.26562.02735.11719.01562.13281.03125.11719.08594.21094.03125.26562v.14844l-.03125.11719-.02734.11718-.03125.1211-.02735.11719-.03125.11718-.03125.1211-.01171.1328-.01563.13282.08984.0586.1172-.03125.10155.01562.04688.10547-.03125.26562v.44141l-.04297.10547-.04688.10547-.04296.10156-.04297.10547-.0586.08594-.03125.12109-.04296.11719-.03125.11719-.01563.1328.01563.13282.05859.08984.10547.04688.08594.0586.05859.08593-.01172.13672-.03125.11719-.04297.10156v.44531l-.01562.13281v.14844l-.03125.11719-.04297.10547-.02735.11719-.04687.10546-.04297.10157-.03125.12109-.02734.11719-.03125.13281-.03125.11719-.02735.11719-.04297.10546-.03125.1172-.03125.12108-.01171.13282-.01563.13281v.29688l.02734.11718v.14844l.04688.39844.02734.11719.0586.08984.12109.03125h.14844l.13281-.01563.0586.08985v.11719l-.0586.08984-.08984.0586-.10157.04296-.10546.04688-.08985.05859-.08594.0586-.13671.01562-.1172-.03125-.1328-.01563-.10157.04688-.0625.08594-.01172.13671-.01562.13282-.03125.11719-.02735.11718-.01562.13281-.03125.1211v.29687l.01563.13282.03125.11718v.14844l.01171.13281v.14844l-.02734.11719-.04688.10156-.02734.1211-.03125.11718-.0586.08985-.07421.07421-.10156.04297-.10547.04688-.11719.02734-.1211.03125-.10156-.04687.0586-.08594.10547-.04688.02734-.11718.03125-.11719.02734-.1211.03125-.11718v-.14844l.01563-.13281-.03125-.11719-.04297-.10547-.10547.01563-.07422.07422-.10156.04296-.08984.0625-.07422.07422-.04297.10157-.01563.1328-.03125.1172L304.25 426l-.03125.11719-.02734.11719-.03125.12109-.02735.11719-.03125.11718-.04297.10547-.08984.0586h-.08984l-.1172-.03125-.03124-.08594.01562-.13672-.03125-.11719v-.14844l-.01171-.1328v-.14844l-.0625-.23438-.02735-.1211-.04297-.10156-.04687-.10546-.0586-.08594-.05859-.08985-.04297-.10546-.0625-.08594-.14844-.14844-.0703-.07422-.10548-.04687-.10547-.04297-.10156-.04297-.29687-.29688-.08985-.07421-.08594-.0586-.10546-.04297-.08985-.0625-.08594-.0586-.10546-.04296-.08985-.0586-.08594-.0625-.07421-.0703-.10547-.04688-.08594-.0586-.10547-.04296-.08984-.0625-.10156-.04297-.10547-.04297-.08594-.0586-.10547-.04687-.10547-.04297-.10156-.04687-.08985-.0586-.10156-.04297-.10547-.04296-.08984-.0625-.11719-.02735-.13281-.01562-.13281.01562H299.75l-.13281.01563-.11719-.03125-.08984-.0586-.07422-.07422-.08985-.05859-.10156-.04688h-.14844l-.12109-.02734-.10156-.04297-.07422-.07422-.11719-.17968-.08984-.0586-.10156-.04297-.08985-.0625-.10547-.04296-.08984-.0586-.08594-.0586-.10547-.04687-.0586-.08594-.05858-.08984-.04297-.10547-.04688-.10156-.07422-.07422-.08594-.0586-.07421-.07421-.08985-.0586-.22265-.22265-.04297-.10547-.03125-.26563.10547-.04296h.14453l.10547.04296.07421.07422.08985.0586.08594.0586.10546.04687.08985.05859.14844.14844.0703.07422.14845.14843.0625.08594.07421.07422.08594.0586.07422.07421.08985.0625.08984.0586.08594.05859.26953.17578.10156.04688.10547.04296.10156.04297.04688-.07421.05859-.08594.07422-.07422.07031-.07422.10547.04297.07422.07422.0586.08984.04296.10156.04688.10547.04296.10547.1211.02735.11719-.02735.07421-.08984.04297-.10547.0586-.08985.07422-.07421.10546-.04297.1172-.02735.1328.01172.08985.0586.14844.14843.05859.08985.04297.10547.04687.10156.04297.10547.04297.10156.10547.04688.10547.04296.13281.01563.08594-.0586.0586-.08984.07421-.07422.10547-.04297.11719.02735.10547.04687.10156.04297.10547.04297.10156.04688.17969.11718v.11719l-.01563.13281.01563.13281.01562.13672.0586.08594.10156.04688.1211.02734.11718.03125h.14844l.11719-.03125.05859-.08984.17969-.1172.05859-.08983.07422-.07422.0586-.08594.11718-.17969.17969-.11719.11719.03125.08984.0586.04297.07422-.01563.1328v.1172l.08985.05859h.14843l.13282-.01563.1328-.01171.26563-.03125.10547-.04297.11719-.03125.1211-.02735.07421-.07421.07031-.07422.0625-.08985-.01562-.10547-.04688-.10156-.10156-.04297-.10547-.01562-.11718.02734-.26563.03125h-.14844l-.07421-.07422-.08985-.0586-.11719-.03124-.11718-.02735-.13282-.01562h-.14843l-.13282.01563h-.29687l-.10547-.04688-.14844-.14844-.04297-.10156-.05859-.08984.22266-.22266.08593-.0586.10547-.04296.11719-.03125.13281-.01563.13281.01563.13672.01562.10157.04297.1328-.01172.08985-.0625.10156-.04297.0625-.08984-.04687-.10156-.08984-.0586-.1172-.03125-.10155-.04296-.0586-.08985-.0625-.08984v-.11719l.01563-.13281.10547-.04688.07421-.07031v-.1211l-.08984-.05859-.03125-.11719.08985-.05859.07421-.07422.04297-.10547.0586-.08984.04687-.10156.01563-.13281v-.14844l-.04688-.10547-.04297-.10156-.08984-.0586-.13281-.01562-.10157-.04297-.13671-.01563-.1172-.03125h-.4453l-.13282-.01562-.13281-.01172-.13281-.01563-.11719-.03125h-.14844l-.13281-.01562-.13281-.01172-.26563-.03125-.1211-.04297-.08593-.0586-.07422-.07421v-.14844l.01172-.13281.10547-.04688.10156-.04296.13281-.01563h.15235l.13281-.01562h.29297l.1211.03125.10156.04296.08984.0586.23438.0625.12109-.04688.08984-.05859.10156-.04297.13282-.01562.10547.04296.10156.04688.13281.01172.1211-.02735h.14453l.12109-.03125.11719-.02734.10547-.04687.07421-.07422.08594-.0586.14844-.14843.0586-.08594.04687-.10547.02734-.11719.01563-.10547-.10156-.04296-.08985-.0586-.11719-.03125-.10546-.04297-.08985-.0625-.07422-.08594-.07422-.07421-.10156-.04297-.10547-.04688-.10156-.04297-.0586-.08984-.04687-.10156-.08594-.21094-.0625-.08594-.05859-.08984-.07422-.07422-.08594-.0586h-.26953l-.11719.03126-.08984.05859-.10156.04297-.13281.01562-.10547-.01562-.02735-.11719-.0625-.08984-.11718-.03125-.10157-.04297-.14843-.14844-.03125-.11719-.01563-.10546.07422-.07422.17969-.1172.11719-.02733.11718-.03125.13672.01562.10156.04297.10547.04297.10156.04687.10547.04297.1172.03125.1328.01563.1172.02734.1328.01563.10547-.01563.08985-.0586-.07422-.07421-.10547-.04297-.07422-.07422-.07422-.08984-.14844-.14844-.08593-.0586-.08985-.05859-.07422-.07422-.08984-.0586-.10156-.04687-.1211-.02734-.10156-.04688-.10547-.04296-.11719-.03125-.10156-.04297-.1211-.03125h-.14843l-.11719.03125-.10546.04297-.08594.0625-.17969.11718-.08594.0586-.08984.0586-.10547.04687-.08594.05859-.10547.04297-.10156.04297-.10547.04687-.07422.07422-.05859.08985-.0586.08593-.04687.10547-.0586.08594-.07421.07422-.13281-.01172-.1172-.03125h-.11718l-.07422.07422-.08984.0586-.07422.07421-.08984.0586-.08594.05859-.10547.04687-.10156.04297-.13672.01563-.10156-.04297-.14844-.14844-.10547-.04688h-.08594l-.10547.04688-.10156.04297-.1211.03125-.11718-.03125-.07422-.07422v-.11719l.03125-.1211.07422-.0703.0586-.08985.07421-.07422.11719-.03125.10547-.04296h.29297l.13281-.01563.13672-.01563.10156-.04296.08985-.0586.10156-.04687.08984-.0586.13281-.01171.08985.05859.13281.01172.08984-.0586.08594-.05859.10547-.04297.08984-.0586.08594-.0625.08985-.05859.14843-.14843.0586-.08594.05859-.08985.10547-.04296.13281-.01563.11719.02735.1211.03125.05859-.0586.05859-.08984.03125-.26563.02734-.11719.10547.01172.13281.01563.10157-.04297.08984-.0586.0586-.08984.07421-.07422.0586-.08984.04687-.10156.01172-.13281-.01172-.13282-.04687-.10547-.14844-.14843-.0586-.08985-.05859-.08594-.04297-.10546v-.44532l.01563-.1328v-.14845l.01172-.1328-.0586-.0586-.08984.0586-.10156-.04298-.17969-.11719-.08594-.05859-.0625-.08984-.0586-.08985-.07421-.07421-.08594-.0586-.1211.03125-.10155.01172-.10547.04688-.08594.05859-.10547.04297-.14844.14844-.08984.05859-.08594.0586-.08984.0625-.10547.04296-.13281.01563v-.1211l.10547-.04297.11718-.03125.07422-.0703.04297-.10548v-.14844l-.02734-.11718-.14844-.14844-.13281-.01563h-.14844l-.11719.03125-.10547.04297-.10156.04297-.08984.0625-.11719.02735-.07422-.07422.01172-.13281-.04297-.10157-.04297-.10547-.08984-.05859-.11719.02734-.1211.03125-.11718.03125-.10156.04297-.1211.03125-.10156.04297-.10547.04297-.08984.0586-.10156.01562v-.11719l.01562-.13281-.0586-.08985-.07421.04297-.14844.14844-.0586.08985-.07421.07421-.04688.10547-.04296.10156-.07422.07422-.0586.08985-.07422.07422-.05859.08593-.07422.07422-.08984.0625-.07422.07031-.07422.07422-.10156.01563-.13281.01562-.10547-.04296v-.1211l.14843-.14844.04297-.10156.0586-.08984.04687-.10156.04297-.10547.0586-.08985.03124-.11719.04297-.10156.03125-.1211.02735-.11718.04687-.10547.04297-.10156.04297-.10547.07422-.07031.08984-.0625.08985-.0586.10156-.04296h.29687l.26563-.03125.10547-.04297-.07422-.07422-.11719-.03125-.10547-.04297-.08984-.0586-.10156-.04687-.08985-.0586-.10156-.04296-.10547-.04297-.08984-.0625-.08594-.0586-.10547-.04296-.10156-.04297-.1211-.03125-.11718-.03125-.10157-.04297L297.5 410.25l-.10156-.04297-.08985-.0586-.04296-.10546-.01563-.13281.10156-.04297.13281-.01563.13672.01563.13282-.01563.10156-.04297.0586-.08984.01562-.10547-.08985-.0586-.07421-.07421-.10157-.04297-.08984-.0586-.14844-.14843-.04297-.10547-.01562-.13281v-.29297l-.0586-.08985-.08984-.05859-.07422-.07422-.04297-.10547-.03125-.11718-.0586-.08985-.07421-.07422-.11719-.02734-.07422-.07422-.08984-.0586-.08984-.0625-.08594-.05859-.07422-.07421-.0586-.08594-.04687-.10547-.08594-.0586-.14843-.14843-.19532-.0586-.1328.01563-.10157.04297-.07422.07422-.04688.10156-.04296.10547-.0586.08984-.0586.08594-.29687.29687-.08984.0586h-.08594l-.0625-.08594-.04297-.10547.03125-.11719.0586-.08984.02734-.11719-.01172-.13281-.08984-.0625-.10547.04688-.11719.02734-.11719.03125-.26953.17578-.10156.04688-.11719.02734-.10546.04687-.08985.0586-.10156.04297-.0586-.08594-.04687-.10547.01563-.13281.04687-.10547.07031-.07422.07422-.07031.0586-.08985v-.14843l-.04297-.10547h-.23829l-.10156.04687-.03125.11719-.02734.11719-.03125.1211-.07422.04296-.13281.01563-.07422-.04688-.04297-.10156-.04297-.10547-.04687-.10156-.04297-.10547-.1211.03125-.10156.04297-.13281.01562-.11719.03125-.10547.04297-.08984.0586-.10156.04687-.1211.02734-.13281.01563-.10156-.04297-.0586-.08985-.04687-.10546-.04297-.10157-.04297-.10546v-.1172l.0586-.08984.08593-.05859.17969-.11719.10156-.04687.10547-.04297.10547-.0586.10156-.04296.08985-.0625.10156-.04297.10547-.0586.10156-.04687.08984-.0586.10547-.04296.10156-.04297.08985-.0625.10156-.04297.13672-.01563.11719.03125.10156.04297.1211.03125.10156.04297.10546.04688.10157.04296.10547.04297.10156.04688.10547.04297.10156.04297.10547.04687.08594.0586.10546.04296.1172.03125.10546.04297.10156.04688.08985.0586.10547.04296.10156.04297.10547.04687.11719.02735.10156.04687.1211.02735h.14843l.08594-.0586.01562-.10156.0586-.08984-.02735-.1172-.07422-.07421-.11719-.17969-.07421-.07422-.08985-.07421-.17969-.1172-.08593-.05859-.10547-.04296-.10156-.04688-.26954-.17578-.05859-.08985-.07422-.07421-.0586-.08985-.04296-.10156-.03125-.11719-.01563-.13672v-.5625l-.01171-.1328-.01563-.13282-.03125-.11719-.01562-.13281-.01172-.13281-.03125-.1211-.22266-.22265-.0586-.08594-.01562-.10547.03125-.11719.13281-.01562v-91.41406H172.9922v1.45312l-.0586.23438-.35156 1.05078-.17187.52343-.1172.34766-.17577.41016-.11719.17187-.23438.29297-.23046.0586h-.35157l-.11718.05859-.23047.40625v.29297l.11719.17578.23046.23047.1172.23437.64062.75781.29297.46485.17578.23437.23047.35156.23437.34766.64063.8164.17578.46485.17187.41016.11719.69531.17578.46875.11719 1.39844.0586.46484v.875l.11718 1.04688v4.78125l-.0586.46484-.35156 1.28125-.17578.52344-.11328.41015-.35156.9297L172.93359 336l-.23437.58203-.11719.17578-.17187.34766-.17578.40625-.35157.8164-.0586.29297-.11327.29297-.11719.28906-.0586.17579-.11718.875-.0586.40625-.05859.11718-.0586.17579-.05859.17187-.23047.52734-.11718.17188v.23437l-.11719.23438-.0586.17187-.17577.58594v.28906l-.0586.17579v.29296l-.0586.11329-.05859.52734v.17187l-.05468.23438v2.6211l-.17578.8164-.1172.17578-.17577.23438-.1172.17187-.11327.23438-.58594.93359-.23047.28906-.29297.46485-.17578.23437-.28906.35156-.35156.69922-.11328.23047-.17579.41016-.17578.23046-.40625.52735-.8164.69922-.29297.17187-.28906.23438-.17579.11719-.17578.17578-.52344.40625-.52734.17578-.17187.17578-.23438.05469-.64062.17578h-.75782m12.21094 31.02344l-1.07422.44921.35938.89454 1.25-.71485.44531-.53906-.98047-.08985"/><path fill="#d3d3d3" fill-opacity="0" fill-rule="evenodd" d="M201.50781 416.59766h-.89453l.44922.6289.98047.35938.80469-.08985.4453-.98828-.17577.08985-.71485-.35547-.89453.35547m154.6211 59.0703l-.0586-.52343v-.29297l.11328-.29297.0586-.23046.46875-.46875h.11328l.11719-.11329.11718-.05859h.17579l.23437-.0586h.34766l.23437.0586.11719.0586.23047.17187.0586.17578.11718.58203v.29297l-.11719.17578-.17187.28906-.17579.17579-.52734.52343-.23047.23438-.11719.0586h-.17578l-.11718-.0586-.40625-.29297-.17579-.11719-.11718-.0586-.0586-.11327-.05468-.1172m6.64062-10.95702l-.0586-.17188v-1.10937l.0586-.17188.17578-.0586.17188-.05858h.17578l.23437-.0586.1172.0586.05858.69921-.05859.17188-.11719.17578-.11718.0586-.23438.52343-.11328.0586h-.23438l-.05859-.1172m9.61328-14.39062l-.11719-.17578v-.69922l.29297-.875.1172-.17187.17577-.35156.11328-.23047.1172-.29297.35155-.75781.1172-.23047.17187-.23438h.17578l.11719-.0586h.64062l.11719.0586.23437.23438.17188.11328.35156.29297.11719.11718.11328.17579v.11328l.11719.05859.11718.11719v.69922l-.05859.17578v.23047l-.0586.17578-.34765 1.05078-.11719.23047-.11719.23437-.11718.0586-.23047.23437-.64063.28906h-.875l-.41015-.11718-.64063-.46485"/><path fill="none" stroke="#bebebe" stroke-linecap="round" stroke-linejoin="round" stroke-miterlimit="10" stroke-width=".5" d="M467.95703 311.69531H144.02734v168.625h323.9297v-168.625"/><g clip-path="url(#a)"><path fill="#fff" fill-opacity="0" fill-rule="evenodd" d="M144 475.89063v4.4375h.0039H144V311.67188h.0039H144v164.21875"/></g><g clip-path="url(#b)"><path fill="#fff" fill-opacity="0" fill-rule="evenodd" d="M144.0039 480.32813V311.67188h17.75V432.8125l-2.625 3.13281-.91796 4.4375.13281 4.4375-.35547 4.4414.1289 4.4375-.33984 4.4375-.03515 4.4375 4.01172 3.82032 3.35937.6211 1.07813.53125.64062-.53125 3.79688-1.39454 4.4375-1.07812 4.4414-1.92578.08203-.04297.20313-4.4375-.28516-.25781-1.24219-4.1797-3.19921-3.49218-.3672-.94531-2.98827-4.4414-1.08203-1.375-4.03125-3.0625-.40625-.21485-2.19532-4.22266-2.24218-3.13281V311.67187h217.48047v143.125l-1.57813 3.33985 1.57813 1.8164 1.7578-1.8164-1.7578-3.33985v-143.125h88.76171v168.65625H144.00391"/></g><path fill="#50fcfc" fill-rule="evenodd" d="M161.7539 466.39453l-4.01171-3.82031.03515-4.4375.33985-4.4375-.1289-4.4375.35546-4.4414-.13281-4.4375.91797-4.4375 2.625-3.13282v4.59375l-1.45703 2.97656-.30079 4.4375-.73047 4.4414.69922 4.4375.21094 4.4375 1.57813 3.46485 2.71093.97266 1.72657.48828.92187-.48828 3.51563-1.3164 4.4375-1.48438 1.23437-1.63672-1.23437-3.82422-.16016-.61328-1.65625-4.4375-2.6211-3.01563-1.8203-1.42578-2.6172-2.48047-2.57812-1.95703-1.85937-2.97656v-4.59375l2.24218 3.13281 2.19532 4.22266.40625.21484 4.03125 3.0625 1.08203 1.375 2.98828 4.4414.36719.94532 3.19922 3.49219 1.24218 4.17969.28516.2578-.20313 4.4375-.08203.04298-4.4414 1.92578-4.4375 1.07812-3.79688 1.39454-.64062.53125-1.07813-.53125-3.35937-.6211"/><path fill="#00e8fc" fill-rule="evenodd" d="M159.96484 453.69922l-.69922-4.4375.73047-4.4414.30078-4.4375 1.45704-2.97657 1.85937 2.97656 2.57813 1.95703v3.72266l-4.4375 1.78516-.35938 1.41406.35938 1.27344 2.01172 3.16406 2.42578 2.07422 4.14062-2.07422.29688-1.34375.20312-3.09375-.20312-.23438-4.4375-2.96484v-3.72266l2.61718 2.48047 1.82032 1.42578 2.62109 3.01563 1.65625 4.4375.16016.61328 1.23437 3.82422-1.23437 1.63672-4.4375 1.48437-3.51563 1.3164-.92187.48829-1.72657-.48828-2.71093-.97266-1.57813-3.46484-.21094-4.4375"/><path fill="#00d4fc" fill-rule="evenodd" d="M161.7539 450.53516l-.35937-1.27344.35938-1.41406 4.4375-1.78516 4.4375 2.96484.20312.23438-.20312 3.09375-.29688 1.34375-4.14062 2.07422-2.42578-2.07422-2.01172-3.16406"/><path fill="#50fcfc" fill-rule="evenodd" d="M379.23438 459.95313l-1.57813-1.81641 1.57813-3.33985 1.7578 3.33985-1.7578 1.8164"/><g clip-path="url(#c)"><path fill="#fff" fill-opacity="0" fill-rule="evenodd" d="M467.9961 480.32813H468V311.67188h-.0039H468v168.65625h-.0039"/></g><g clip-path="url(#d)"><path fill="none" stroke="#000" stroke-linecap="round" stroke-linejoin="round" stroke-miterlimit="10" stroke-width=".5" d="M147.375 479.34375l-6.75 1.96875"/></g><g clip-path="url(#e)"><path fill="none" stroke="#000" stroke-linecap="round" stroke-linejoin="round" stroke-miterlimit="10" stroke-width=".5" d="M147.375 479.34375l1.71094 1.75781"/></g><g clip-path="url(#f)"><path fill="none" stroke="#000" stroke-linecap="round" stroke-linejoin="round" stroke-miterlimit="10" stroke-width=".5" d="M146.39063 479.63281l1.71484 1.75781"/></g><g clip-path="url(#g)"><path fill="none" stroke="#000" stroke-linecap="round" stroke-linejoin="round" stroke-miterlimit="10" stroke-width=".5" d="M160.6914 479.36328l-6.7539 1.9336"/></g><g clip-path="url(#h)"><path fill="none" stroke="#000" stroke-linecap="round" stroke-linejoin="round" stroke-miterlimit="10" stroke-width=".5" d="M160.6914 479.36328l1.70313 1.76563"/></g><g clip-path="url(#i)"><path fill="none" stroke="#000" stroke-linecap="round" stroke-linejoin="round" stroke-miterlimit="10" stroke-width=".5" d="M159.71094 479.64453l1.70312 1.76563"/></g><g clip-path="url(#j)"><path fill="none" stroke="#000" stroke-linecap="round" stroke-linejoin="round" stroke-miterlimit="10" stroke-width=".5" d="M173.91797 479.08984l-6.57422 2.48047"/></g><g clip-path="url(#k)"><path fill="none" stroke="#000" stroke-linecap="round" stroke-linejoin="round" stroke-miterlimit="10" stroke-width=".5" d="M173.91797 479.08984l1.84375 1.6211"/></g><g clip-path="url(#l)"><path fill="none" stroke="#000" stroke-linecap="round" stroke-linejoin="round" stroke-miterlimit="10" stroke-width=".5" d="M172.96094 479.44922l1.84375 1.6211"/></g><g clip-path="url(#m)"><path fill="none" stroke="#000" stroke-linecap="round" stroke-linejoin="round" stroke-miterlimit="10" stroke-width=".5" d="M187.15234 478.89844l-6.41406 2.86328"/></g><g clip-path="url(#n)"><path fill="none" stroke="#000" stroke-linecap="round" stroke-linejoin="round" stroke-miterlimit="10" stroke-width=".5" d="M187.15234 478.89844l1.9375 1.50781"/></g><g clip-path="url(#o)"><path fill="none" stroke="#000" stroke-linecap="round" stroke-linejoin="round" stroke-miterlimit="10" stroke-width=".5" d="M186.21875 479.3125l.96875.7539"/></g><g clip-path="url(#p)"><path fill="none" stroke="#000" stroke-linecap="round" stroke-linejoin="round" stroke-miterlimit="10" stroke-width=".5" d="M200.41797 478.78906l-6.3164 3.07813"/></g><g clip-path="url(#q)"><path fill="none" stroke="#000" stroke-linecap="round" stroke-linejoin="round" stroke-miterlimit="10" stroke-width=".5" d="M200.41797 478.78906l1.98437 1.4414"/></g><g clip-path="url(#r)"><path fill="none" stroke="#000" stroke-linecap="round" stroke-linejoin="round" stroke-miterlimit="10" stroke-width=".5" d="M199.5 479.23828l.99219.71875"/></g><g clip-path="url(#s)"><path fill="none" stroke="#000" stroke-linecap="round" stroke-linejoin="round" stroke-miterlimit="10" stroke-width=".5" d="M213.78906 478.90625l-6.42578 2.84375"/></g><g clip-path="url(#t)"><path fill="none" stroke="#000" stroke-linecap="round" stroke-linejoin="round" stroke-miterlimit="10" stroke-width=".5" d="M213.78906 478.90625l1.92969 1.51563"/></g><g clip-path="url(#u)"><path fill="none" stroke="#000" stroke-linecap="round" stroke-linejoin="round" stroke-miterlimit="10" stroke-width=".5" d="M212.85156 479.32031l.96875.75781"/></g><g clip-path="url(#v)"><path fill="none" stroke="#000" stroke-linecap="round" stroke-linejoin="round" stroke-miterlimit="10" stroke-width=".5" d="M227.0664 478.82031l-6.35156 3.01563"/></g><g clip-path="url(#w)"><path fill="none" stroke="#000" stroke-linecap="round" stroke-linejoin="round" stroke-miterlimit="10" stroke-width=".5" d="M227.0664 478.82031l1.96876 1.46485"/></g><g clip-path="url(#x)"><path fill="none" stroke="#000" stroke-linecap="round" stroke-linejoin="round" stroke-miterlimit="10" stroke-width=".5" d="M226.14063 479.26172l.98437.73047"/></g><g clip-path="url(#y)"><path fill="none" stroke="#000" stroke-linecap="round" stroke-linejoin="round" stroke-miterlimit="10" stroke-width=".5" d="M240.24219 478.5625l-6.07422 3.53516"/></g><g clip-path="url(#z)"><path fill="none" stroke="#000" stroke-linecap="round" stroke-linejoin="round" stroke-miterlimit="10" stroke-width=".5" d="M240.24219 478.5625l2.08594 1.29297"/></g><path fill="none" stroke="#000" stroke-linecap="round" stroke-linejoin="round" stroke-miterlimit="10" stroke-width=".5" d="M239.35938 479.07422l1.04296.64844"/><g clip-path="url(#A)"><path fill="none" stroke="#000" stroke-linecap="round" stroke-linejoin="round" stroke-miterlimit="10" stroke-width=".5" d="M253.42188 478.34766l-5.8047 3.96093"/></g><path fill="none" stroke="#000" stroke-linecap="round" stroke-linejoin="round" stroke-miterlimit="10" stroke-width=".5" d="M253.42188 478.34766l2.17187 1.14062m-3.01563-.5625l1.08594.57031"/><g clip-path="url(#B)"><path fill="none" stroke="#000" stroke-linecap="round" stroke-linejoin="round" stroke-miterlimit="10" stroke-width=".5" d="M266.8125 478.46484l-5.95313 3.72657"/></g><path fill="none" stroke="#000" stroke-linecap="round" stroke-linejoin="round" stroke-miterlimit="10" stroke-width=".5" d="M266.8125 478.46484l2.1289 1.22266"/><g clip-path="url(#C)"><path fill="none" stroke="#000" stroke-linecap="round" stroke-linejoin="round" stroke-miterlimit="10" stroke-width=".5" d="M279.6875 477.89844l-5.07422 4.85937"/></g><path fill="none" stroke="#000" stroke-linecap="round" stroke-linejoin="round" stroke-miterlimit="10" stroke-width=".5" d="M279.6875 477.89844l2.33203.76953"/><g clip-path="url(#D)"><path fill="none" stroke="#000" stroke-linecap="round" stroke-linejoin="round" stroke-miterlimit="10" stroke-width=".5" d="M292.72656 477.63672l-4.51953 5.38281"/></g><path fill="none" stroke="#000" stroke-linecap="round" stroke-linejoin="round" stroke-miterlimit="10" stroke-width=".5" d="M292.0664 478.42188l1.19923.2539"/><g clip-path="url(#E)"><path fill="none" stroke="#000" stroke-linecap="round" stroke-linejoin="round" stroke-miterlimit="10" stroke-width=".5" d="M305.9336 477.55078l-4.3047 5.55469"/></g><path fill="none" stroke="#000" stroke-linecap="round" stroke-linejoin="round" stroke-miterlimit="10" stroke-width=".5" d="M305.3086 478.35938l1.20702.21093"/><g clip-path="url(#F)"><path fill="none" stroke="#000" stroke-linecap="round" stroke-linejoin="round" stroke-miterlimit="10" stroke-width=".5" d="M319.20703 477.51953l-4.22265 5.61719"/></g><path fill="none" stroke="#000" stroke-linecap="round" stroke-linejoin="round" stroke-miterlimit="10" stroke-width=".5" d="M318.58984 478.33594l1.21485.1914"/><g clip-path="url(#G)"><path fill="none" stroke="#000" stroke-linecap="round" stroke-linejoin="round" stroke-miterlimit="10" stroke-width=".5" d="M332.58984 477.57031l-4.35546 5.51563"/></g><path fill="none" stroke="#000" stroke-linecap="round" stroke-linejoin="round" stroke-miterlimit="10" stroke-width=".5" d="M331.95313 478.375l1.20703.21875"/><g clip-path="url(#H)"><path fill="none" stroke="#000" stroke-linecap="round" stroke-linejoin="round" stroke-miterlimit="10" stroke-width=".5" d="M346.1875 477.82031l-4.92188 5.01563"/></g><path fill="none" stroke="#000" stroke-linecap="round" stroke-linejoin="round" stroke-miterlimit="10" stroke-width=".5" d="M345.46875 478.55078l1.17969.34766"/><g clip-path="url(#I)"><path fill="none" stroke="#000" stroke-linecap="round" stroke-linejoin="round" stroke-miterlimit="10" stroke-width=".5" d="M359.38281 477.71094l-4.6836 5.23828"/></g><path fill="none" stroke="#000" stroke-linecap="round" stroke-linejoin="round" stroke-miterlimit="10" stroke-width=".5" d="M358.70313 478.47266l1.1914.29297"/><g clip-path="url(#J)"><path fill="none" stroke="#000" stroke-linecap="round" stroke-linejoin="round" stroke-miterlimit="10" stroke-width=".5" d="M372.91797 477.92578l-5.125 4.8086"/></g><path fill="none" stroke="#000" stroke-linecap="round" stroke-linejoin="round" stroke-miterlimit="10" stroke-width=".5" d="M372.17188 478.625l1.16406.39453"/><g clip-path="url(#K)"><path fill="none" stroke="#000" stroke-linecap="round" stroke-linejoin="round" stroke-miterlimit="10" stroke-width=".5" d="M386.84375 478.82422l-6.34766 3.01172"/></g><g clip-path="url(#L)"><path fill="none" stroke="#000" stroke-linecap="round" stroke-linejoin="round" stroke-miterlimit="10" stroke-width=".5" d="M385.92188 479.26172l.98437.73047"/></g><g clip-path="url(#M)"><path fill="none" stroke="#000" stroke-linecap="round" stroke-linejoin="round" stroke-miterlimit="10" stroke-width=".5" d="M394.08203 478.34766l5.8086 3.96093"/></g><g clip-path="url(#N)"><path fill="none" stroke="#000" stroke-linecap="round" stroke-linejoin="round" stroke-miterlimit="10" stroke-width=".5" d="M413.15625 482.375l-5.71094-4.09375"/></g><g clip-path="url(#O)"><path fill="none" stroke="#000" stroke-linecap="round" stroke-linejoin="round" stroke-miterlimit="10" stroke-width=".5" d="M426.84375 478.9414l-6.45703 2.77344"/></g><g clip-path="url(#P)"><path fill="none" stroke="#000" stroke-linecap="round" stroke-linejoin="round" stroke-miterlimit="10" stroke-width=".5" d="M425.90625 479.34766l.95703.76562"/></g><g clip-path="url(#Q)"><path fill="none" stroke="#000" stroke-linecap="round" stroke-linejoin="round" stroke-miterlimit="10" stroke-width=".5" d="M440.0586 478.72656l-6.25391 3.20703"/></g><g clip-path="url(#R)"><path fill="none" stroke="#000" stroke-linecap="round" stroke-linejoin="round" stroke-miterlimit="10" stroke-width=".5" d="M439.14844 479.1914l1.00781.69923"/></g><g clip-path="url(#S)"><path fill="none" stroke="#000" stroke-linecap="round" stroke-linejoin="round" stroke-miterlimit="10" stroke-width=".5" d="M453.15234 478.35547l-5.8125 3.94531"/></g><path fill="none" stroke="#000" stroke-linecap="round" stroke-linejoin="round" stroke-miterlimit="10" stroke-width=".5" d="M452.3086 478.92969l1.08593.57422"/><g clip-path="url(#T)"><path fill="none" stroke="#000" stroke-linecap="round" stroke-linejoin="round" stroke-miterlimit="10" stroke-width=".5" d="M466.69922 478.75l-6.27735 3.16016"/></g><g clip-path="url(#U)"><path fill="none" stroke="#000" stroke-linecap="round" stroke-linejoin="round" stroke-miterlimit="10" stroke-width=".5" d="M466.69922 478.75l2.0039 1.41406"/></g><g clip-path="url(#V)"><path fill="none" stroke="#000" stroke-linecap="round" stroke-linejoin="round" stroke-miterlimit="10" stroke-width=".5" d="M147.33594 465.91016l-6.67188 2.20703"/></g><path fill="none" stroke="#000" stroke-linecap="round" stroke-linejoin="round" stroke-miterlimit="10" stroke-width=".5" d="M147.33594 465.91016l1.77344 1.6953m-2.7461-1.375l1.77734 1.69532m12.41407-2.26953l-6.48047 2.71484m6.48047-2.71484l1.90234 1.55469m-2.84375-1.16016l1.89844 1.55469m12.29687-2.08984l-6.35547 2.99609m6.35547-2.9961l1.96485 1.46875m-2.89063-1.03515l1.96485 1.46875m-2.89063-1.03125l.98438.73437m14.07812-1.80859l-6.14844 3.40234m6.14844-3.40234l2.0586 1.33984m-2.95313-.84375l2.0586 1.33985m12.0078-2.07032l-5.86327 3.8711m5.86328-3.8711l2.15625 1.17188m-3.00782-.60938l2.15625 1.17188m12.10157-1.59375l-6.04297 3.58984m6.04297-3.58984l2.09375 1.27344m-2.97266-.75l2.09375 1.27344m12.02734-1.91407l-5.89843 3.82422m5.89843-3.82422l2.14453 1.1914m-3.0039-.6328l2.14453 1.1914m11.63281-2.2539l-5.10156 4.83203m5.10156-4.83203l2.32422.78125m-3.0664-.07813l2.32421.78125m11.29297-1.875l-4.22265 5.61328m4.22265-5.61328l2.42188.3789m-3.03516.4375l2.42188.38282m11.28125-1.35547l-3.77344 5.92578m3.77344-5.92578l2.4453.1914m-2.99608.67188l2.44921.1914m11.46094-1.02733l-3.86328 5.87109m3.86328-5.8711l2.4414.22657m-3.0039.6289l1.22266.11329m12.83594-.83985l-4.22657 5.61328m4.22657-5.61328l2.42578.38281m-3.03907.4336l1.21094.1914m12.23438-1.3125l-3.26172 6.22266m3.26172-6.22266l2.45703-.01562m-2.92969.92187l1.22656-.0078m12.89063-.70313l-3.91797 5.83203m3.91797-5.83203l2.4414.25m10.92579-.21485l-4.01954 5.76172m4.01954-5.76172l2.43359.29297m10.66406-.4336l-3.58594 6.04298m3.58594-6.04297l2.45313.11719m10.59375-.26172l-3.05078 6.33203m2.60937-5.41016l1.22656-.04687m12.77344-.7461l-3.53516 6.07422m3.01954-5.1914l1.22656.05078m11.03515-1.40235l-.39843 7.01563m.33984-5.9961l1.11328-.51562m10.8086-.28125l2.5039 6.5664m-2.14062-5.60937l.80468-.92578m13.23438-.25781l.33203 7.01953m16.26953-5.1211l-6.2461 3.22266m5.33985-2.7539l1.00781.69921m12.7461-1.85937l-5.3086 4.60547m5.3086-4.60547l2.28906.8789m10.89453-1.01953l-5.04687 4.88672m5.04687-4.88672l2.33594.7539m11.96094 1.4375l-7.00782.50392"/><g clip-path="url(#W)"><path fill="none" stroke="#000" stroke-linecap="round" stroke-linejoin="round" stroke-miterlimit="10" stroke-width=".5" d="M467.0664 466.76172l1.3047 2.08203"/></g><g clip-path="url(#X)"><path fill="none" stroke="#000" stroke-linecap="round" stroke-linejoin="round" stroke-miterlimit="10" stroke-width=".5" d="M147.32422 452.5664l-6.64844 2.26563"/></g><path fill="none" stroke="#000" stroke-linecap="round" stroke-linejoin="round" stroke-miterlimit="10" stroke-width=".5" d="M147.32422 452.5664l1.78906 1.6797m-2.7539-1.35157l1.78906 1.67969m12.52734-1.90234l-6.72266 2.05468m6.72266-2.05469l1.73438 1.73438m-2.71094-1.4375l1.73437 1.73828m-2.71484-1.4375l.86719.86719m14.28515-1.79297l-6.48047 2.71094m6.48047-2.71094l1.89844 1.55469m-2.83984-1.16016l1.89844 1.55469m-2.84375-1.16016l.94921.77735m14.08203-1.92188l-6.14062 3.42188m6.14063-3.42188l2.05859 1.33203m-2.95313-.83593l2.0625 1.33203m-2.95703-.83203l1.03125.66406m13.92969-1.89453l-5.85156 3.89062m5.85156-3.89062l2.15625 1.16797m-3.00781-.60157l2.15625 1.16406m11.6836-2.14843l-5.19923 4.72656m5.19922-4.72656l2.3086.82422m-3.06641-.13672l2.3086.82422m11.78124-1.4961l-5.23437 4.6914m5.23437-4.6914l2.30078.84375m-3.0625-.16015l2.3047.84375m11.67577-1.62891l-5.04297 4.89453m5.04297-4.89453l2.33594.7539m-3.07031-.03906l2.33594.75m11.39453-1.7539l-4.40625 5.47656m4.40625-5.47656l2.41015.46094m-3.05078.33593l1.20703.23047m12.2461-1.36328l-3.39844 6.14844m3.39844-6.14844l2.45312.03906m-2.94922.85547l1.22657.01953m12.53515-.9414L275.5 456.80078m3.30078-6.20312h2.45313m-2.9336.90234h1.22657m13.41406-.27344l-4.99219 4.94531m4.99219-4.9453l2.34375.73046m-3.07031-.01172l1.17187.36328m12.91797-1.03125l-5.08984 4.84375m5.08984-4.84375l2.32812.77344m-3.0664-.07031l2.32812.77344m11.32422-1.83985l-4.28515 5.57032m4.28515-5.57032l2.41797.40625m-3.04297.40235l1.21094.20312m12.39062-1.24219l-3.60546 6.03125m3.60546-6.03125l2.44922.1211m10.7539-.1875l-3.3828 6.16015m3.3828-6.16015l2.45313.03515m10.30079-.28125l-2.26172 6.65235m1.93359-5.6836l1.21094-.1953m10.00781-.71485l2.58594 6.53515m11.46875-6.73437l1.10547 6.9375m14.3125-6.6211l-3.09766 6.3047m2.64844-5.39063l1.22656-.03906m14.22266.90234l-6.46875 2.7461m5.52734-2.34376l.95313.76953m13.58203.28125l-7.02344-.15625m7.02344.15625l1.10156 2.19141m11.88672-3.75l-6.3711 2.96094m6.3711-2.96094l1.95703 1.47656m10.47266-2.65234l-4.59766 5.3125m4.59766-5.3125l2.39062.54687m11.34375-.11718l-5.4375 4.45312"/><g clip-path="url(#Y)"><path fill="none" stroke="#000" stroke-linecap="round" stroke-linejoin="round" stroke-miterlimit="10" stroke-width=".5" d="M466.28125 451.47266l2.26172.9453"/></g><g clip-path="url(#Z)"><path fill="none" stroke="#000" stroke-linecap="round" stroke-linejoin="round" stroke-miterlimit="10" stroke-width=".5" d="M147.36719 439.3789l-6.73438 2.00782"/></g><path fill="none" stroke="#000" stroke-linecap="round" stroke-linejoin="round" stroke-miterlimit="10" stroke-width=".5" d="M147.36719 439.3789l1.72265 1.75m-2.70312-1.45702l1.72266 1.74609m12.47265-2.32813l-6.53516 2.58985m6.53516-2.58985l1.86719 1.58985m-2.8164-1.21485L161.5 441.0547m-2.82031-1.21094l.9336.79297m14.10937-1.91797l-6.1875 3.33203m6.1875-3.33203l2.04297 1.35938m-2.94141-.875l2.03906 1.35937m-2.9414-.875l1.02343.67969m14-1.8086l-6 3.65235m6-3.65235l2.11328 1.25m-2.98437-.71875l2.10937 1.25m12.0586-1.8164l-5.96485 3.71875m5.96485-3.71875l2.125 1.23047m-2.99219-.6875l2.1211 1.22656m12.02734-1.82031l-5.89844 3.8203m5.89844-3.8203l2.14453 1.1914m-3.0039-.63672l1.07421.59766m12.82813-1.51953l-5.35157 4.55469m5.35157-4.5547l2.28125.90626m-3.0586-.24219l1.14063.45313m12.79297-1.29297l-5.03516 4.90625m5.03516-4.90625l2.33593.75m-3.0703-.03516l2.33983.7461m11.70313-1.46485l-5.02344 4.91406m5.02344-4.91406l2.33984.7461m-3.0703-.03126l1.16796.3711m13.03906-.91016l-5.34375 4.5625m5.34375-4.5625l2.28516.90235m-3.0625-.23829l1.14062.45313m12.47657-1.57813l-4.39454 5.48438m4.39454-5.48438l2.41015.45704m10.34766-.82032l-3.28125 6.21485m3.28125-6.21485l2.45312-.0078m11.73438.65624l-5.02344 4.91406m5.02344-4.91406l2.33594.74219m11.16015-.54297l-5.38281 4.51562m5.38281-4.51562l2.27344.91797m10.80469-1.17188l-4.91406 5.02344m4.19921-4.29297l1.17579.34766m13.13671-.76953l-5.47656 4.40625m5.47656-4.40625l2.25391.96484m10.57031-1.46094l-4.4961 5.40235m4.4961-5.40235l2.40235.5m9.75-1.14062l-2.17188 6.6836m1.85547-5.71095l1.20703-.21484m13.47656-.20703l-4.27734 5.57812m3.65625-4.76562l1.21094.20312m13.08984-.6914l-5.0039 4.92969m4.27734-4.21094l1.16797.36719m13.82031 2.05078l-6.89844-1.33985m6.89844 1.33985l.71875 2.34765m12.58203-2.28125l-6.8711-1.47656m6.8711 1.47656l.67188 2.35938m12.65625-3.76953l-6.89453 1.34375m6.89453-1.34375l1.54687 1.90625m10.72266-3.80078l-4.80078 5.1328m4.80078-5.1328l2.36719.64062m10.6875-.85937l-4.28125 5.57421m3.65625-4.76562l1.21093.20312"/><g clip-path="url(#aa)"><path fill="none" stroke="#000" stroke-linecap="round" stroke-linejoin="round" stroke-miterlimit="10" stroke-width=".5" d="M147.48438 426.60938l-6.96875.91796"/></g><path fill="none" stroke="#000" stroke-linecap="round" stroke-linejoin="round" stroke-miterlimit="10" stroke-width=".5" d="M147.48438 426.60938l1.42187 2m-2.4375-1.8672l1.42578 2m-2.4375-1.86327l.71094.99609m14.5039-1.84766l-6.71093 2.08203m6.71094-2.08203l1.74218 1.72657m-2.71875-1.42579l1.74219 1.72657m-2.71875-1.42188l.8711.86328m14.33593-1.64843l-6.58984 2.4414m6.58984-2.4414l1.83203 1.6328m-2.79297-1.27734l1.83594 1.63282m-2.79297-1.27735l1.83203 1.63282m13.4297-2.25391l-6.65235 2.26172m6.65234-2.26172l1.78906 1.67969m-2.7539-1.35157l1.78906 1.6797m-2.75781-1.35157l.89453.83984m14.25-1.76953l-6.4414 2.8086m6.4414-2.8086l1.92187 1.52735m-2.85937-1.1172l1.92187 1.52345m-2.85937-1.1172l.96094.76563m14.35547-1.24218l-6.69532 2.1289m6.69531-2.1289l1.75782 1.71484m-2.73047-1.40625l1.7539 1.71484m-2.72656-1.40234l.875.85547m14.39453-1.45313l-6.71093 2.08203m6.71093-2.08203l1.7422 1.72657m-2.71876-1.42188l1.74219 1.72656m-2.71875-1.42578l.8711.86328m14.36718-1.55859l-6.65234 2.26172m6.65234-2.26172l1.78906 1.6836m-2.75781-1.35548l1.78906 1.6836m-2.7539-1.35156l.89062.83984m14.30078-1.65625l-6.53906 2.57422m6.53906-2.57422l1.86719 1.59766m-2.8164-1.22266l1.86327 1.59375m12.2422-2.32031l-6.21876 3.27734m6.21875-3.27734l2.02735 1.38281m-2.9336-.90625l1.01563.6914m12.88281-1.66796l-5.57422 4.27734m5.57422-4.27734l2.23438 1.01562m-3.04297-.39453l1.11328.51172m12.99219-1.15625l-5.53907 4.32422m5.53907-4.32422l2.24218.9961m-3.04687-.3672l1.1211.5m13.12109-.96484l-5.78125 3.9961m5.78125-3.9961l2.17968 1.125m11.1211-1.14062l-5.75391 4.02734m5.7539-4.02734l2.1875 1.11328m11.29298-.85938l-6.08204 3.51953m5.19532-3.0078l1.04297.64843m13.53125-.22656l-6.82813 1.65234m6.82813-1.65234l1.6289 1.83203m10.92578-3.3086l-5.3086 4.60547m5.3086-4.60547l2.28907.88282m10.83203-1.08594l-4.92188 5.01172m4.20703-4.28516l1.17578.34766m13.8711.91797l-6.95313 1.02734m5.9414-.875l.72657.98438m13.24219.99218l-6.23828-3.23047m6.23828 3.23047l.02734 2.45313m13.09766-2.1289l-5.85938-3.87891m5.85938 3.8789l-.23438 2.4414m13.9961-3.39843l-6.75-1.96484m6.75 1.96484l.5 2.40234m12.28906-5.4414l-5.69922 4.11328m5.69922-4.11328l2.20313 1.08203m10.12109-2.00781l-3.71875 5.96484m3.71875-5.96484l2.44922.16797m10.7539-.23438l-3.49609 6.09766"/><g clip-path="url(#ab)"><path fill="none" stroke="#000" stroke-linecap="round" stroke-linejoin="round" stroke-miterlimit="10" stroke-width=".5" d="M465.3086 424.01953l2.45312.07813"/></g><g clip-path="url(#ac)"><path fill="none" stroke="#000" stroke-linecap="round" stroke-linejoin="round" stroke-miterlimit="10" stroke-width=".5" d="M147.51172 413.72266l-7.02344.0625"/></g><path fill="none" stroke="#000" stroke-linecap="round" stroke-linejoin="round" stroke-miterlimit="10" stroke-width=".5" d="M147.51172 413.72266l1.17187 2.15625m-2.1914-2.14844l.58594 1.07812m13.75-1.18359l-7.02344.2539m7.02344-.2539l1.22656 2.125m-2.25-2.08594l1.23047 2.1211m-2.25391-2.08594l.61719 1.0625m14.73828-.76953l-7.01172-.48047m7.01172.48047l1 2.24219m-2.01953-2.3125l1 2.24218m-2.02344-2.3086l.5039 1.1172m14.83985-.83594l-6.98438-.76563m6.98438.76563l.91016 2.27734m-1.92578-2.39062l.91015 2.28125m-1.92578-2.39063l.45313 1.13672m14.91406-1.23047l-7.02735-.13281m7.02735.13281l1.10937 2.1875m-2.13281-2.20703l1.11328 2.1875m13.21484-1.9414l-7.0039-.58594m7.0039.58594l.96485 2.2539m-1.98438-2.33984l.48438 1.1289m13.85156-1.5703l-7.01172.46874m7.01172-.46875l1.29688 2.08203m-2.31641-2.01562l.64844 1.04297m13.51953-1.97266l-6.67578 2.19531m6.67578-2.19531l1.76953 1.69922m-2.74219-1.3789l1.77344 1.6953m12.46875-2.15234l-6.58203 2.46875m6.58203-2.46875l1.83594 1.625m-2.79688-1.26562l.92188.8125m13.21875-1.47657l-6.3125 3.07813m6.3125-3.07813l1.98828 1.44141m-2.90625-.9961l.99219.72266m13.25-1.15234l-6.33204 3.04687m6.33204-3.04687l1.97656 1.44922m11.1875-1.73438l-6.02734 3.61328m6.02734-3.61328l2.10156 1.26953m-2.98047-.74218l1.05078.6328m13.375-.69921l-6.49218 2.69531m6.49218-2.69531l1.89454 1.5586m11.26562-1.88282l-6.1836 3.34375m5.28516-2.85547l1.01953.67969m13.3086 1.9375l-6.41406-2.8711m5.48046 2.45313l.08594 1.22656m14.44531-1.83203l-6.97656-.82422m6.97656.82422l.89063 2.28906m12.16406-4.08984l-6.45703 2.78125m5.51563-2.375l.95703.76563m13.08203-1.58985l-6.02344 3.61719m6.02344-3.61719l2.10547 1.26172m11.71093.5039l-7.02734.08204m7.02734-.08203l1.1797 2.15625m12.07812-2.74219l-6.91016 1.25781m6.91016-1.25781l1.52343 1.92578m-2.52734-1.74219l.76172.96094m13.23828-2.09766l-6.27344 3.16407m6.27344-3.16407l2.0039 1.41407m11.40626-1.20703l-6.46485 2.75m6.46485-2.75l1.91015 1.53906m11.39063-1.57422l-6.4336 2.82031m6.4336-2.82031l1.92578 1.52344m11.2461-1.8164l-6.14844 3.40624m6.14843-3.40625l2.0586 1.33984m11.44922-.93359l-6.53125 2.59375"/><g clip-path="url(#ad)"><path fill="none" stroke="#000" stroke-linecap="round" stroke-linejoin="round" stroke-miterlimit="10" stroke-width=".5" d="M466.82813 412.45703l1.86718 1.58985"/></g><g clip-path="url(#ae)"><path fill="none" stroke="#000" stroke-linecap="round" stroke-linejoin="round" stroke-miterlimit="10" stroke-width=".5" d="M147.39063 401.35938l-6.78125-1.83985"/></g><path fill="none" stroke="#000" stroke-linecap="round" stroke-linejoin="round" stroke-miterlimit="10" stroke-width=".5" d="M147.39063 401.35938l.54687 2.39062m-1.53125-2.66016l.26953 1.19532m14.0625-1.0586l-6.84766-1.57812m6.84766 1.57812l.63672 2.3711m-1.63281-2.60157l.3164 1.1875m14.08594-1.78125l-7.02734.07032m7.02734-.07032l1.17188 2.15625m-2.19532-2.14453l.58594 1.07813m13.7461-1.2539l-7.01563.40233m7.01563-.40234l1.27343 2.09375m11.94531-1.05469l-6.82421-1.67578m6.82422 1.67578l.60156 2.37891m12.8125-3.34375l-7.02344.2539m7.02344-.2539l1.23047 2.1211m-2.25-2.08594l.61328 1.0625m13.72265-1.01954l-7.02343.09766m7.02343-.09765l1.1836 2.14843m-2.20313-2.13672l.58985 1.07813m13.74218-.875l-7.01953-.33594m7.01953.33594l1.04688 2.21875m-2.0664-2.26563l.52343 1.10938m13.6836-2.17578l-6.76563 1.89453m6.76562-1.89453l1.69532 1.77734m-2.6797-1.5039l.84767.89062m13.43359-1.23828l-6.72656 2.03906m6.72656-2.03906l1.73047 1.73828m-2.71094-1.4414l.86719.87109m13.3125-1.49219l-6.49219 2.6875m6.49219-2.6875l1.89062 1.5625m-2.83594-1.17188l.94532.78125m13.125-1.55468l-6.11719 3.45703m6.11719-3.45703l2.07031 1.3164m11.375-1.0664l-6.375 2.95703m6.375-2.95703l1.95703 1.48047m11.59375-.78907l-6.84766 1.57422m6.84766-1.57422l1.60938 1.85157m11.79296-1.15625l-7.02343.17968m7.02343-.17968l1.20704 2.13671m12.0078-2.88671l-6.8203 1.68359m5.82812-1.4414l.82031.91406m12.75 1.96484l-5.34765-4.5586m4.57031 3.89454l-.26563 1.19922m15.16797-2.36329l-6.96875-.90625m5.95703.77344l.4297 1.14844m13.54687-3.0586l-6.26563 3.1836m6.26563-3.1836l2.00781 1.41016m11.65625-.27344l-6.96484.91016m6.96484-.91015l1.42578 2m11.77344-2.55079l-6.73438 2.00782m6.73438-2.00782l1.72265 1.7461m11.51563-1.97656l-6.57813 2.46875m6.57813-2.46875l1.83984 1.62109m11.58985-1.25781l-6.8086 1.74609m6.8086-1.7461l1.65234 1.8125m11.72656-1.5078l-6.9375 1.1328m6.9375-1.1328l1.48438 1.95312m11.6211-2.70313l-6.51563 2.63672"/><g clip-path="url(#af)"><path fill="none" stroke="#000" stroke-linecap="round" stroke-linejoin="round" stroke-miterlimit="10" stroke-width=".5" d="M466.82031 399.1211l1.8789 1.57421"/></g><path fill="none" stroke="#000" stroke-linecap="round" stroke-linejoin="round" stroke-miterlimit="10" stroke-width=".5" d="M465.8711 399.5039l.9414.78907"/><g clip-path="url(#ag)"><path fill="none" stroke="#000" stroke-linecap="round" stroke-linejoin="round" stroke-miterlimit="10" stroke-width=".5" d="M147.30078 388.33203l-6.60156-2.41797"/></g><path fill="none" stroke="#000" stroke-linecap="round" stroke-linejoin="round" stroke-miterlimit="10" stroke-width=".5" d="M147.30078 388.33203l.33594 2.42969m-1.29688-2.78125l.16797 1.21484m14.25781-1.40625l-6.89843-1.33203m6.89844 1.33203l.71875 2.34766m-1.72266-2.54297l.35937 1.17578m13.82422-.48828l-6.63281-2.3164m6.63281 2.3164l.375 2.42578m12.95313-2.45703l-6.65625-2.2539m5.6875 1.92577l.19922 1.21094m12.57422.9961l-3.63282-6.01172m3.10156 5.13672l-.6289 1.05468m16.16016-2.91796l-7.00782-.53125m7.00781.53125l.98438 2.24609m-2.0039-2.32422l.98437 2.2461m13.35547-2.2422l-7.01563-.38671m7.01563.38672l1.03125 2.22656m-2.05078-2.28125l1.03125 2.22656m13.30859-2.36328h-7.02734m7.02734 0l1.15234 2.16406m-2.17578-2.16406l1.15235 2.16406m13.18359-2.0586l-7.02344-.21483m7.02344.21484l1.08594 2.20312m-2.10547-2.23437l1.08203 2.20312m13.25-2.49218l-7.01563.42578m7.01563-.42578l1.28125 2.09375m-2.30469-2.03125l1.28125 2.09375m-2.30078-2.03125l.64063 1.04687m14.6914-1.41406l-6.96484.91015m6.96484-.91015l1.42578 1.9961m-2.4375-1.86329l1.42188 1.9961m12.78906-2.67579l-6.73437 2.00391m6.73437-2.0039l1.72266 1.74609m-2.70313-1.45313l1.72266 1.7461m-2.69922-1.45704l.85938.875m14.30078-1.78125l-6.50782 2.65235m6.50782-2.65235l1.8828 1.57032m-2.83202-1.1836l1.88672 1.57032m-2.83203-1.1875l.9414.78906m14.22656-1.65235l-6.42578 2.83985m6.42578-2.83985l1.9297 1.51954m-2.86329-1.10547l1.92969 1.51953m-2.86328-1.10547l.96093.75781M333.8125 386.25l-6.80469 1.7461m6.80469-1.7461l1.65625 1.8125m-2.64453-1.5586l.82812.90626m13.42579.76171l-6.70704-2.09765m6.70704 2.09765l.45312 2.41016m12.82422-2.29687l-6.6289-2.32422m6.6289 2.32422l.3711 2.42578m13.13671-3.80078l-7.01562.42578m7.01562-.42578l1.28125 2.09375m-2.30078-2.03125l.64063 1.04687m13.61328-1.66797l-6.85547 1.54297m6.85547-1.54297l1.60156 1.86328m11.75-.5039l-6.92578-1.17578m6.92578 1.17578l.77734 2.32812m12.38672-1.73828l-6.6211-2.35156m6.6211 2.35156l.35938 2.42578m13.0703-2.82812l-6.85155-1.55078m6.85156 1.55078l.64453 2.36719m12.7539-3.3125l-7.01952.33984m7.01953-.33985l1.2539 2.10938m12.05078-2.23438l-7 .58985m7-.58985l1.33204 2.0625m11.99609-1.76562h-7.02734"/><g clip-path="url(#ah)"><path fill="none" stroke="#000" stroke-linecap="round" stroke-linejoin="round" stroke-miterlimit="10" stroke-width=".5" d="M467.07422 387.125l1.15234 2.16406"/></g><path fill="none" stroke="#000" stroke-linecap="round" stroke-linejoin="round" stroke-miterlimit="10" stroke-width=".5" d="M466.05469 387.125l.57422 1.08203"/><g clip-path="url(#ai)"><path fill="none" stroke="#000" stroke-linecap="round" stroke-linejoin="round" stroke-miterlimit="10" stroke-width=".5" d="M146.8086 375.91797l-5.6172-4.21875"/></g><path fill="none" stroke="#000" stroke-linecap="round" stroke-linejoin="round" stroke-miterlimit="10" stroke-width=".5" d="M146.8086 375.91797l-.37891 2.42578m-.4375-3.03906l-.1914 1.21094m14.54687-.9375l-6.06641-3.54297m6.0664 3.54296l-.09374 2.45313m-.78907-2.96875l-.04687 1.22656m14.41016-1.02734l-6.39844-2.90625m6.39844 2.90625l.15234 2.44922m-1.08203-2.8711l.07812 1.22266m14.41797-1.57813l-6.89844-1.35156m6.89844 1.35156l.71484 2.34375m12.66016-3.22656l-7.01562.41406m7.01562-.41406l1.27734 2.09375m-2.30078-2.03515l.64063 1.04687m13.60937-.08984L207.15625 373m6.83984 1.61719l.6211 2.375M213 374.3828l.6211 2.3711m13.7539-2.50782l-6.96875-.8789m6.96875.8789l.875 2.29688m-1.88672-2.42188l.8711 2.29297m13.48437-2.71094l-7.02344.21094m7.02344-.21094l1.21484 2.12891m-2.23828-2.09765l1.21875 2.1289m13.11719-2.23828l-7.01953.36328m7.01953-.36328l1.26172 2.10547m-2.28516-2.05078l1.26172 2.10156m13.07813-1.97266h-7.02735m7.02735 0l1.15234 2.16797m-2.17188-2.16797l1.15235 2.16797m-2.17578-2.16797l.57422 1.08204m14.76562-1.45313l-6.98828.74219m6.98828-.74219l1.375 2.03125m-2.39062-1.92188l1.375 2.03125m12.83203-2.76171l-6.74219 1.98437m6.74219-1.98437l1.71875 1.75m-2.69922-1.46094l1.71875 1.75m12.50781-2.25l-6.60156 2.40625m6.60156-2.40625l1.82422 1.64062m-2.78516-1.28906l1.82422 1.64063m-2.78515-1.29297l.91406.82031m14.26953-1.65625l-6.4961 2.67969m6.4961-2.67969l1.89062 1.5625m-2.83593-1.17578l1.89062 1.5625m-2.83594-1.17188l.94532.78125m14.25-1.58593l-6.47266 2.73437m6.47266-2.73437l1.90234 1.54687m-2.84375-1.14844l1.90234 1.54688m-2.84375-1.14844l.94922.77344m14.47266-.80078l-6.92578 1.19531m6.92578-1.19531l1.5039 1.9414m-2.51171-1.76562l1.5039 1.9375m-2.51172-1.76563l.75391.96875m14.6289-.80859l-7.02734.17969m7.02735-.17969l1.20703 2.13672m-2.23047-2.10938l1.20703 2.13672m-2.23047-2.11328l.60547 1.07031m14.71484-1.57421l-6.9453 1.08203m6.9453-1.08204l1.47266 1.96485m-2.48437-1.80469l1.47265 1.96094m12.79688-2.41016l-6.82813 1.66406m6.82813-1.66406l1.63281 1.82813m-2.6289-1.58594l1.6328 1.82813m12.7422-1.72657l-6.95704.97266m6.95703-.97266l1.44141 1.98828m-2.45313-1.84375l.71875.9922m13.64063-.76563l-7.02344.23437m7.02344-.23437l1.22266 2.1289m11.98437-1.14453l-6.8086-1.73437m5.82032 1.48046l.28906 1.19532m14.10547-1.42578l-6.98828-.76563m6.98828.76563l.91016 2.27734m12.3789-3.21484l-6.9375 1.10937m6.9375-1.10937l1.48047 1.95703m11.8789-1.52344l-7.02343.24219"/><g clip-path="url(#aj)"><path fill="none" stroke="#000" stroke-linecap="round" stroke-linejoin="round" stroke-miterlimit="10" stroke-width=".5" d="M467.07422 373.6875l1.22265 2.1289"/></g><g clip-path="url(#ak)"><path fill="none" stroke="#000" stroke-linecap="round" stroke-linejoin="round" stroke-miterlimit="10" stroke-width=".5" d="M146.0625 363.33984l-4.125-5.6914"/></g><path fill="none" stroke="#000" stroke-linecap="round" stroke-linejoin="round" stroke-miterlimit="10" stroke-width=".5" d="M146.0625 363.33984l-1.08203 2.20313m.48047-3.03125l-.53906 1.10156m14.91406-.67187l-5.04297-4.89454m5.04297 4.89454l-.6836 2.35546m-.05078-3.0703l-.33984 1.17968m14.71094-.84766l-5.6875-4.1289m5.6875 4.1289l-.33985 2.4297m13.97266-2.95704l-6.32031-3.07813m6.3203 3.07813l.08595 2.45313m13.39062-2.84375l-6.64062-2.29688m6.64062 2.29688l.3789 2.42578m-1.34765-2.75782l.1914 1.21094m14.09376-.88281l-6.64453-2.28516m6.64453 2.28516l.38281 2.42187m-1.35156-2.7539l.38672 2.42187m14.03515-2.63281l-6.92187-1.20313m6.92187 1.20313l.76563 2.33203m-1.77344-2.50781l.76563 2.33203m-1.77344-2.5039l.38281 1.16406m14.9961-1.60157l-7.01954.3672m7.01953-.3672l1.26172 2.10547m-2.28515-2.05078l1.26562 2.10156m12.98438-2.78125l-6.83985 1.6172m6.83985-1.6172l1.61718 1.84375m-2.61328-1.60937l1.6211 1.84375m12.67968-2.10938l-6.82422 1.6797m6.82422-1.6797l1.63672 1.82813m-2.6289-1.58203l1.63671 1.82812m12.64844-2.16406l-6.77734 1.86328m6.77734-1.86328l1.6836 1.78125m-2.67188-1.51172l1.6875 1.78125m12.6875-1.73828l-6.91797 1.23438m6.91797-1.23438l1.51172 1.9336m-2.51953-1.75391l1.51562 1.92969m12.76953-2.28516l-6.84375 1.58594m6.84375-1.58594l1.61329 1.85156m-2.60938-1.6211l1.61328 1.85157m12.71485-2.00781l-6.87891 1.4414m6.8789-1.4414l1.57032 1.88281m-2.57031-1.67578l1.5703 1.88672m-2.5703-1.67578l.78515.9414m14.44922-1.67187l-6.71484 2.0664m6.71484-2.0664l1.73828 1.73047m-2.71484-1.4297l1.73828 1.73048m-2.71484-1.42969l.86718.86328m14.53516-.82031l-6.98438.77734m6.98438-.77734l1.38281 2.02734m-2.39844-1.91406l1.38282 2.02344m-2.39844-1.91016l.6914 1.01172m14.66016-1.17578l-6.9961.65234m6.9961-.65234l1.34766 2.05078m-2.36328-1.95703l1.34765 2.05078m-2.36718-1.95703l1.34765 2.05078m13.95703-2.5625l-6.90625 1.30078m6.90625-1.30078l1.53125 1.91406m-2.53515-1.72656l1.53125 1.91797m-2.53516-1.72656l1.53125 1.91406m13.63281-2.86719l-6.58593 2.44531m6.58593-2.4453l1.83594 1.6328m-2.79297-1.27734l1.83203 1.63281m-2.79297-1.27734l.91797.8164m14.36328-1.39062l-6.68359 2.17188m6.6836-2.17188l1.76562 1.70703m-2.73828-1.39062l1.76562 1.70703m12.67188-1.33203l-6.98438.78906m6.98438-.78906l1.38672 2.02734m-2.40235-1.91016l.69141 1.01172m13.65234-.45703l-7.0078-.55078m7.0078.55078l.97657 2.25m12.34375-2.6875l-7.01954.32031m7.01954-.3203l1.25 2.11327m12.01562-2.57031l-6.91797 1.23828m6.91797-1.23828l1.51172 1.92969m11.78906-1.9961l-6.89453 1.3672m5.89063-1.16798l.77734.95313"/><g clip-path="url(#al)"><path fill="none" stroke="#000" stroke-linecap="round" stroke-linejoin="round" stroke-miterlimit="10" stroke-width=".5" d="M145.0039 350.54688l-2.0078-6.73438"/></g><g clip-path="url(#am)"><path fill="none" stroke="#000" stroke-linecap="round" stroke-linejoin="round" stroke-miterlimit="10" stroke-width=".5" d="M145.0039 350.54688l-1.74609 1.72265"/></g><g clip-path="url(#an)"><path fill="none" stroke="#000" stroke-linecap="round" stroke-linejoin="round" stroke-miterlimit="10" stroke-width=".5" d="M144.71094 349.5664l-.8711.85938"/></g><path fill="none" stroke="#000" stroke-linecap="round" stroke-linejoin="round" stroke-miterlimit="10" stroke-width=".5" d="M159.44531 349.97266l-4.26172-5.58594m4.26172 5.58594l-1.02344 2.23046m.40625-3.04296l-.51562 1.11328m14.70703-.51953l-4.77734-5.15235m4.77734 5.15235l-.8086 2.3203m.11329-3.0703l-.40234 1.16015m15.10546-1.29687l-6.16406-3.375m6.16406 3.375l-.03125 2.45312m-.86718-2.94531l-.01563 1.22656m14.26953-.8125l-6.2461-3.22265m6.2461 3.22265l.03125 2.45313m-.9414-2.92188l.01562 1.22656m14.46484-1.39843l-6.7539-1.9414m6.7539 1.9414l.50782 2.39844m-1.49219-2.6797l.51172 2.39844m13.88281-2.55859l-6.94531-1.0586m6.94531 1.0586l.8125 2.3164m-1.82422-2.46874l.8125 2.3164m13.55469-2.625l-7.02734-.13671m7.02734.13671l1.10938 2.19141m-2.13282-2.21094l1.10938 2.1914m13.22656-2.40233l-7.01953.32421m7.01953-.32421l1.25 2.10937m-2.27344-2.0625l1.2539 2.10938m-2.27343-2.0625l.625 1.05468m14.63281-1.83984l-6.8203 1.70703m6.8203-1.70703l1.64063 1.82422m-2.63281-1.57422l1.64062 1.82031m-2.63281-1.57422l.82031.91406m14.41016-1.64453l-6.6836 2.17579m6.6836-2.17579l1.76562 1.70313m-2.73828-1.38672l1.76563 1.70313m-2.73829-1.38672l.88282.85156m14.39453-1.42578l-6.71875 2.0586m6.71875-2.0586l1.73828 1.73437m-2.71484-1.4336l.86718.86329m13.47657-.97266l-6.82032 1.6797m6.82032-1.6797l1.63671 1.82813m-2.6289-1.58594l.82031.91406m13.54297-.89062l-6.9336 1.14453m6.9336-1.14453l1.48828 1.94922m-2.4961-1.78125l1.48829 1.94922m12.8086-2.26172l-6.87891 1.4336m6.8789-1.4336l1.57031 1.88672m-2.5703-1.67579l1.5664 1.88282m-2.57031-1.67578l.78515.9414m14.57031-1.16015L340.25 347.6953m6.95312-1.03515l1.45704 1.97265m-2.46875-1.82031l1.45703 1.97266m-2.46875-1.82422l.72656.98828m14.64844-.875l-7.02735.20703m7.02735-.20703l1.21093 2.13281m-2.23437-2.10156l1.21484 2.13281m-2.23828-2.10156l.60938 1.0664m14.6836-1.71875l-6.89063 1.39063m6.89062-1.39063l1.5586 1.89454m-2.5625-1.69532l1.55859 1.89844m-2.5586-1.69531l1.5586 1.89844m13.64844-2.72266l-6.66407 2.23047m6.66407-2.23047l1.77734 1.6875m-2.7461-1.36328l1.77735 1.6875m-2.75-1.36328l1.78125 1.6875m13.48047-2.32031l-6.67578 2.20312m6.67578-2.20313l1.77344 1.69532m-2.7461-1.375l1.77344 1.69531m-2.74219-1.375l1.76953 1.69531m13.57422-2.02734l-6.84765 1.58203m6.84765-1.58203l1.60938 1.85156m-2.60547-1.6211l1.60937 1.85157m-2.60547-1.6211l1.60938 1.85157m13.69922-2.29688l-6.85156 1.5547m6.85156-1.5547l1.60156 1.85547m-2.59766-1.63281l1.60157 1.85938m-2.60157-1.63282l.8047.92969m14.54296-1.19531l-6.92578 1.1836m6.92578-1.1836l1.5 1.9414m-2.50781-1.76953l.75.96875m13.51953-1.40234l-6.8164 1.70703m6.8164-1.70703l1.64062 1.82422m11.67579-1.80469l-6.82422 1.66797"/><g clip-path="url(#ao)"><path fill="none" stroke="#000" stroke-linecap="round" stroke-linejoin="round" stroke-miterlimit="10" stroke-width=".5" d="M466.97266 346.34375l1.63671 1.82813"/></g><g clip-path="url(#ap)"><path fill="none" stroke="#000" stroke-linecap="round" stroke-linejoin="round" stroke-miterlimit="10" stroke-width=".5" d="M144 337.375v-7.02734"/></g><g clip-path="url(#aq)"><path fill="none" stroke="#000" stroke-linecap="round" stroke-linejoin="round" stroke-miterlimit="10" stroke-width=".5" d="M144 337.375l-2.16797 1.15234"/></g><g clip-path="url(#ar)"><path fill="none" stroke="#000" stroke-linecap="round" stroke-linejoin="round" stroke-miterlimit="10" stroke-width=".5" d="M144 336.35547l-1.08203.57422"/></g><path fill="none" stroke="#000" stroke-linecap="round" stroke-linejoin="round" stroke-miterlimit="10" stroke-width=".5" d="M158.5 337.17188l-2.3711-6.6172m2.3711 6.6172l-1.65234 1.8125m1.30859-2.77735l-.82813.91016m14.26563.125l-1.92969-6.75781m1.92969 6.7578l-1.76563 1.70313m1.48438-2.6875l-.88281.85156m15.86328-.6328l-4.69531-5.22657m4.6953 5.22656l-.83983 2.30469m14.95703-3.36328l-6.30078-3.11328m6.30078 3.11328l.07422 2.45312M214 334.64844l-6.84766-1.57031M214 334.64842l.63672 2.3711m-1.63281-2.59765l.63672 2.36718m13.70703-2.3086l-6.91797-1.23437m6.91797 1.23438l.7539 2.33594m-1.75781-2.51563l.7539 2.33594m-1.76171-2.51563l.375 1.16797m14.9961-1.15234l-7.00392-.54688m7.00391.54688l.98047 2.25m-2-2.32813l.98047 2.25m-2-2.33203l.49219 1.125m14.86328-1.52344l-7.0039.57032m7.0039-.57031l1.32422 2.0664m-2.34375-1.98437l1.32422 2.0664m-2.34375-1.98437l.66406 1.03515m14.57812-1.83593l-6.78125 1.84375m6.78125-1.84375l1.67969 1.78515m-2.66797-1.51953l1.6836 1.78906m-2.66797-1.51953l.83984.89453m14.3711-1.67578l-6.62891 2.33594m6.6289-2.33594l1.8047 1.66016M279.5 333.03516l1.8086 1.66015m-2.77344-1.32031l.90234.82813m14.24219-1.76172l-6.42578 2.84375m6.42578-2.84375l1.92969 1.51562m-2.8672-1.10156l1.9336 1.51562m-2.86719-1.10156l.96485.75781m14.4414-.89843l-6.87109 1.46875m6.8711-1.46875l1.58203 1.8789m-2.57813-1.66406l.78906.9375m13.58203-.80469l-6.98437.77344m6.98437-.77344l1.38282 2.02735m-2.40235-1.91407l.6914 1.01172m13.63673-1.17969l-6.97266.88282m6.97266-.88281l1.41406 2.0039m-2.42969-1.875l1.41407 2.0039m12.91406-2.1328l-6.96875.8828m6.96875-.8828l1.41406 2.0039m-2.42578-1.875l.70703 1m13.6289-.32812l-6.98827-.71875m6.98828.71875l.92578 2.26953m-1.9414-2.375l.92577 2.27344m13.35938-3.19922l-6.89844 1.33984m6.89844-1.33984l1.54297 1.91015m-2.54688-1.71484l1.54297 1.91015m-2.54687-1.71484l.77343.95313m14.35547-2l-6.50781 2.65625m6.50781-2.65625l1.88281 1.5703m-2.83203-1.18358l1.88672 1.5703m12.5-1.59765l-6.7539 1.9375m6.7539-1.9375l1.70703 1.76172m-2.6914-1.48047l.85547.88281m13.41796-1.2539l-6.69921 2.11719m6.69921-2.1172l1.75 1.71485m-2.72656-1.40625l1.7539 1.71485m12.48829-2.16407l-6.60156 2.39844m6.60156-2.39844l1.82422 1.64063m-2.78516-1.29297l1.82422 1.64062m-2.78516-1.29296l.91407.82421m14.3789-1.35546l-6.71484 2.0703m6.71484-2.0703l1.73828 1.73046m-2.71484-1.42968l1.73828 1.73046m-2.71484-1.42968l.86719.86719m14.42968-1.3672l-6.77343 1.86329m6.77343-1.86328l1.6875 1.78515m-2.67187-1.51171l1.6836 1.78125m-2.66798-1.51172l.83985.89453m14.35156-1.73047l-6.58594 2.45312"/><g clip-path="url(#as)"><path fill="none" stroke="#000" stroke-linecap="round" stroke-linejoin="round" stroke-miterlimit="10" stroke-width=".5" d="M466.85547 332.63672l1.83594 1.6289"/></g><path fill="none" stroke="#000" stroke-linecap="round" stroke-linejoin="round" stroke-miterlimit="10" stroke-width=".5" d="M465.89453 332.99219l1.83594 1.6289"/><g clip-path="url(#at)"><path fill="none" stroke="#000" stroke-linecap="round" stroke-linejoin="round" stroke-miterlimit="10" stroke-width=".5" d="M144.52734 324.02344l-1.05468-6.94922"/></g><g clip-path="url(#au)"><path fill="none" stroke="#000" stroke-linecap="round" stroke-linejoin="round" stroke-miterlimit="10" stroke-width=".5" d="M144.52734 324.02344l-1.96875 1.46094"/></g><g clip-path="url(#av)"><path fill="none" stroke="#000" stroke-linecap="round" stroke-linejoin="round" stroke-miterlimit="10" stroke-width=".5" d="M144.375 323.01172l-.98438.73047"/></g><path fill="none" stroke="#000" stroke-linecap="round" stroke-linejoin="round" stroke-miterlimit="10" stroke-width=".5" d="M158.22266 323.9414l-1.81641-6.78906m1.8164 6.78907l-1.79296 1.67187m1.53125-2.66015l-.89844.83593m14.73047.07422l-2.32422-6.63281m2.32422 6.63281l-1.66406 1.80469m1.32422-2.76953l-.83204.90234m15.27344-.33203l-3.89844-5.84375m3.89844 5.84375l-1.16016 2.16406m15.41797-3.09375l-5.78515-3.98437m5.78515 3.98437l-.27734 2.4375m14.04688-3.36328l-6.69532-2.13281m6.69531 2.13281l.44141 2.41406m-1.41406-2.72265l.4414 2.41406m14.01172-3.04688l-7.02343-.24609m7.02343.2461l1.07422 2.20312m-2.09765-2.23828l1.07812 2.20312m13.26172-2.29296h-7.02734m7.02734 0l1.15234 2.16796m-2.17578-2.16796l1.15235 2.16796m-2.17188-2.16796l.57422 1.08593m14.73047-1.69922l-6.91797 1.23047m6.91797-1.23047l1.51172 1.9297m-2.51953-1.75l1.51562 1.92968m12.67969-2.60938l-6.66406 2.23047m6.66406-2.23047l1.78125 1.6875m-2.75-1.36328l1.77734 1.6875m12.57813-1.76172l-6.8086 1.73047m6.8086-1.73047l1.65234 1.81641m-2.64062-1.5664l1.64843 1.8164m12.55078-2.41406l-6.59765 2.42187m6.59765-2.42187l1.82813 1.63672m-2.78906-1.28516l1.82812 1.63672m12.58594-1.51172l-6.875 1.46875m6.875-1.46875l1.57812 1.8789m-2.57812-1.66406l1.57812 1.87891m12.8086-1.53125l-7.01953.34375m7.01953-.34375l1.25781 2.10938m-2.27734-2.0586l1.2539 2.10547m-2.27734-2.05469l.6289 1.05469m14.71485-1.33984l-6.99219.71093m6.99219-.71093l1.36328 2.04296m-2.3789-1.9375l1.36328 2.03907m-2.38282-1.9375l.6836 1.01953m14.64843-1.3711l-6.95312 1m6.95312-1l1.44922 1.98438m-2.46093-1.83594l1.44921 1.98047m12.91016-1.79687l-7.01953.33593m7.01953-.33593l1.2539 2.10937m11.92188-2.92578l-6.74219 1.97266m6.7422-1.97266l1.71484 1.7539m-2.69532-1.46874l.85938.8789m13.03515-2.05469l-5.9414 3.75m5.9414-3.75l2.13282 1.21875m-2.9961-.67187l2.13282 1.21484m12.0078-1.8203l-5.86327 3.87108m5.86328-3.87109l2.15625 1.17188m11.125-1.22657l-5.79297 3.97657m4.94922-3.39844l1.08594.5664m11.125-2.53906l-1.89844 6.76563m1.6211-5.78125l1.19921-.26172m14.0586.3164l-5.23047 4.69141m4.46875-4.01172l1.15234.42188m13.42187-.38672l-6.22656 3.25781m6.22656-3.25781l2.02735 1.38672m-2.9336-.91016l1.01172.6914m12.82422-1.7539l-5.45312 4.4336"/><g clip-path="url(#aw)"><path fill="none" stroke="#000" stroke-linecap="round" stroke-linejoin="round" stroke-miterlimit="10" stroke-width=".5" d="M466.28906 318.33203l2.25781.95313"/></g><g clip-path="url(#ax)"><path fill="none" stroke="#000" stroke-linecap="round" stroke-linejoin="round" stroke-miterlimit="10" stroke-width=".5" d="M465.4961 318.97656l2.2578.95313"/></g><path fill="none" stroke="#000" stroke-linecap="round" stroke-linejoin="round" stroke-miterlimit="10" stroke-width=".5" d="M464.70313 319.6211l1.1289.47656"/><path fill="#ff3030" fill-rule="evenodd" d="M446.63281 472.08594h7.6914V461.9414h-7.6914v10.14453"/><path fill="azure" fill-rule="evenodd" d="M448.46484 463.77344h.83204v5.73828h3.1953v.74219h-4.02734v-6.48047"/><path fill="#ff3030" fill-rule="evenodd" d="M309.04297 463.21094h7.6914V453.0625h-7.6914v10.14844"/><path fill="azure" fill-rule="evenodd" d="M310.875 454.89844h.83203v5.73828h3.19531v.74219H310.875v-6.48047"/><path fill="#ff3030" fill-rule="evenodd" d="M158.13672 458.77344h7.69531V448.625h-7.69531v10.14844"/><path fill="azure" fill-rule="evenodd" d="M159.97266 450.45703h.83203v5.74219H164v.73828h-4.02734v-6.48047"/><path fill="#ff3030" fill-rule="evenodd" d="M180.33203 427.70313h7.6914v-10.14454h-7.6914v10.14454"/><path fill="azure" fill-rule="evenodd" d="M182.16406 419.39063h.83203v5.73828h3.19532v.74218h-4.02735v-6.48046"/><path fill="#ffffe0" fill-rule="evenodd" d="M359.4961 430.19922h22.17968v-10.1914H359.4961v10.1914"/><path fill-rule="evenodd" d="M362.9961 421.83984h.51171v6.29688h-.78906v-4.48828h-1.38672v-.5586l.5586-.0625.25-.05468.23046-.08985.20313-.14062.17578-.21094.14063-.29297.10546-.39844m4.8125 0l.23047.01954.21875.05859.20703.08594.19922.12109.1836.15234.17187.17579.30078.41796.24219.4922.17969.54687.11328.58203.03906.58984-.03906.59375-.11328.58203-.17969.55469-.24219.5039-.30078.42579-.17187.17969-.1836.15234-.19922.125-.20703.09375-.21875.05469-.23047.01953-.22656-.01953-.21875-.0547-.21094-.09374-.1953-.125-.1836-.15235-.17188-.17968-.30078-.42578-.24219-.50391-.17968-.55469-.11329-.58203-.03906-.59375h.83594l.02734.5625.08204.50781.125.44141.16406.375.1914.30078.21094.21875.22266.13672.22265.04688.22657-.04688.22265-.13672.21094-.21875.1914-.30078.16407-.375.125-.4414.08203-.50782.02734-.5625-.02734-.5625-.08203-.5-.125-.4336-.16406-.36718-.19141-.29297-.21094-.21484-.22265-.1289-.22657-.04688-.22265.04687-.22266.1289-.21094.21485-.1914.29297-.16406.36719-.125.4336-.08204.5-.02734.5625h-.83594l.03906-.58985.11329-.58203.17968-.54688.2422-.49219.30077-.41796.17188-.17579.1836-.15234.1953-.1211.21094-.08593.21875-.0586.22656-.01953m5.09375 0h.50782v6.29688h-.78516v-4.48828h-1.39063v-.5586l.5625-.0625.25-.05468.23047-.08985.20313-.14062.17578-.21094.14063-.29297.10546-.39844m2.82422 2.17579h.78516l.01953-.31641.0586-.28516.10156-.2539.14062-.21485.17969-.17187.22265-.1289.26563-.08204.3086-.02734.23827.02343.22266.0625.20313.10157.17968.13671.14844.17188.11328.20703.07422.23828.02344.26172-.02344.26953-.0625.22656-.11328.19141-.15234.16797-.20313.16406-.2461.16797-.6328.38672-.53907.3125-.4375.3164-.34765.32423-.26172.33593-.1914.35156-.125.3711-.06642.39453-.02343.41797h4.21094v-.74219h-3.33204l.08594-.28125.11328-.23828.14844-.20313.1875-.17968.23047-.17188.27734-.17578.71875-.41406.41406-.20703.34375-.23047.28125-.25.21875-.26953.16407-.27735.11328-.28125.0625-.28515.01953-.28125-.03906-.38672-.1211-.34766-.1914-.30469-.25-.26562-.30078-.21094-.34766-.16015-.3789-.09766-.40626-.03516-.43359.03516-.39844.09766-.35547.16796-.30468.23438-.25.30469-.1836.3711-.11719.44921-.03906.51563"/><path fill="#ffffe0" fill-rule="evenodd" d="M239.66016 439.72656h22.18359v-10.1914h-22.1836v10.1914"/><path fill-rule="evenodd" d="M243.16016 431.3711h.51172v6.29296h-.78907v-4.48828h-1.38672v-.5586l.5586-.0625.2539-.05468.22657-.08984.20312-.14063.17578-.21094.14063-.29296.10547-.39454m4.8164 0l.22656.01563.21875.0586.21094.08984.19531.11718.1836.15235.17187.17578.30078.41797.2422.49219.17968.54687.11328.58203.03906.58985-.03906.59375-.11328.58203-.17969.55468-.24219.50391-.30078.42578-.17187.17969-.1836.15234-.1953.125-.21095.09375-.21875.05469-.22656.01953-.23047-.01953-.21875-.05469-.20703-.09375-.19922-.125-.18359-.15234-.17188-.17969-.30078-.42578-.24218-.5039-.1797-.5547-.11327-.58202-.03906-.59375h.83593l.02735.5625.08203.5078.125.44141.16406.375.1914.30079.21094.21875.22266.14062.22656.04688.22656-.04688.22266-.14063.20703-.21875.1914-.30078.16407-.375.125-.4414.08203-.50781.02735-.5625-.02735-.5625-.08203-.5-.125-.4336-.16406-.36719-.1914-.29296-.20704-.21485-.22266-.1289-.22656-.04688-.22656.04688-.22266.1289-.21093.21485-.19141.29296-.16406.3672-.125.43358-.08203.5-.02735.5625h-.83594l.03907-.58984.11328-.58203.17969-.54688.24218-.49218.30078-.41797.17188-.17578.1836-.15235.19921-.11718.20703-.08985.21875-.0586.23047-.01562m5.08985 0h.5078v6.29297h-.78515v-4.48828h-1.39062v-.5586l.5625-.0625.25-.05468.23047-.08984.20312-.14063.17578-.21094.14063-.29296.10547-.39454m2.82422 2.17188h.78515l.01953-.3164.0586-.28516.10156-.25.14062-.21875.1797-.17188.22265-.1289.26562-.08204.3086-.02734.23828.02344.22265.0625.20313.10156.17969.13672.14843.17578.11329.20313.07421.23828.02344.26171-.02344.26954-.0625.22656-.11328.1914-.15234.17188-.20313.16016-.24609.16796-.63281.38672-.53906.3125-.4375.31641-.34766.32813-.26172.33203-.1914.35156-.125.3711-.06641.39452-.02344.41797h4.21094v-.74219h-3.33203l.08593-.28125.11329-.23828.14843-.20312.1875-.17969.23047-.17187.27735-.17579.71875-.41406.41406-.20703.34375-.23047.28125-.25.22265-.26953.16016-.27734.11328-.28125.0625-.28516.01953-.28125-.03906-.38281-.1211-.35156-.1914-.3047-.25-.26562-.30078-.21093-.34766-.16016-.3789-.09766-.40625-.03125-.4336.03125-.39844.09766-.35546.16797-.3047.23437-.25.3047-.18358.37108-.1172.44922-.03905.51563"/><path fill="#ffffe0" fill-rule="evenodd" d="M156.30078 387.98828h22.17969v-10.1914h-22.17969v10.1914"/><path fill-rule="evenodd" d="M159.79688 379.6289h.51171v6.29688h-.78906v-4.49219h-1.38672v-.55468l.5586-.0625.2539-.0547.22656-.08983.20313-.14063.17578-.21094.14063-.29297.10547-.39843m4.8164 0l.22656.01953.21875.05469.21094.08984.19531.1211.1836.15234.17187.17578.30078.41797.2422.49218.18358.54688.10938.57812.03906.59375-.03906.59375-.10938.58204-.18359.55468-.24219.5-.30078.42969-.17187.17969-.1836.15234-.1953.125-.21095.08985-.21875.05859-.22656.01953-.23047-.01953-.21875-.0586-.20703-.08984-.19922-.125-.1836-.15234-.17187-.17969-.30078-.42969-.24219-.5-.17968-.55469-.11328-.58203-.03907-.59375h.83594l.02734.5625.08204.50391.125.44531.16406.375.1914.30078.21094.21875.22266.13672.22656.04688.22656-.04688.22266-.13672.21094-.21875.1875-.30078.16406-.375.125-.44531.08203-.5039.03125-.5625-.03125-.5625-.08203-.5-.125-.4375-.16406-.36329-.1875-.29297-.21094-.21484-.22266-.1289-.22656-.04688-.22656.04687-.22266.12891-.21094.21484-.1914.29297-.16406.36328-.125.4375-.08203.5-.02735.5625h-.83594l.03907-.59375.11328-.57812.17969-.54688.24218-.49218.30078-.41797.17188-.17578.1836-.15235.19921-.1211.20703-.08983.21875-.0547.23047-.01952m5.08984 0h.50782v6.29687h-.78516v-4.49219h-1.39062v-.55468l.5625-.0625.25-.0547.23047-.08983.20312-.14063.17578-.21094.14063-.29297.10547-.39843m2.82421 2.17578h.78516l.01953-.3164.0586-.28517.10156-.2539.14062-.21485.17969-.17187.22266-.1289.26562-.08204.3086-.02734.23828.02344.22265.0625.20313.10156.17969.13672.14843.17187.11328.20703.07422.23438.02344.26562-.01953.26954-.0664.22265-.10938.1914-.15625.17188-.20313.16406-.2461.16407-.6328.39062-.53907.3125-.4375.3164-.34375.32423-.26562.33594-.1914.35156-.125.3711-.06641.39062-.02344.42187h4.21484v-.74219h-3.33594l.08594-.28515.11328-.23438.14844-.20312.1875-.17969.23047-.17188.27734-.17578.71875-.41406.41407-.20703.34375-.23047.28125-.25.22265-.26953.16016-.27734.11328-.28516.0625-.28516.01953-.28125-.03906-.3828-.1211-.34767-.1914-.30859-.25-.26172-.30078-.21094-.34766-.16015-.3789-.09766-.40625-.03515-.4336.03515-.39844.09766-.35547.16797-.30468.23437-.25.30078-.1836.375-.11718.44532-.03907.51953"/><path fill="#ffffe0" fill-rule="evenodd" d="M350.6211 380.7461h22.17968v-10.19141H350.6211v10.1914"/><path fill-rule="evenodd" d="M354.1211 372.38672h.5078v6.29687h-.78515v-4.49218h-1.39063v-.5547l.5586-.0625.2539-.05468.23047-.08984.20313-.14063.17187-.21094.14454-.29296.10546-.39844m4.8125 0l.23047.01953.21875.05469.20703.08984.19532.1211.18359.15234.17188.17578.30468.41797.24219.49219.17969.54687.10937.57813.03906.59375-.03906.59375-.10937.58203-.17969.55469-.24219.5-.30469.42968-.17187.17969-.1836.15234-.1953.125-.20704.08985-.21875.0586-.23047.01952-.23046-.01953-.21875-.0586-.20704-.08984-.1953-.125-.1836-.15234-.17188-.17969-.30469-.42969-.24218-.5L357 376.8047l-.10938-.58203-.03906-.59375h.83203l.03125.5625.07813.5039.1289.44531.16016.375.1914.30079.21094.21875.22266.13671.22656.04688.22657-.04688.22265-.13671.21094-.21875.1914-.30079.16016-.375.1289-.4453.08204-.50391.02734-.5625-.02734-.5625-.08203-.5-.1289-.4336-.16016-.36719-.19141-.29296-.21094-.21485-.22265-.1289-.22657-.04688-.22656.04688-.22265.1289-.21094.21485-.1914.29296-.16017.3672-.1289.43359-.07813.5-.03125.5625h-.83203l.03906-.59375.10938-.57813.17969-.54687.24219-.4922.30468-.41796.17188-.17578.1836-.15235.1953-.12109.20704-.08984.21875-.05469.23046-.01953m5.08985 0h.51172v6.29687h-.78907v-4.49218h-1.38671v-.5547l.55859-.0625.2539-.05468.22657-.08984.20703-.14063.17187-.21094.14063-.29296.10547-.39844m6.80469 1.6211h-.78516l-.05078-.21094-.08203-.1875-.10938-.16016-.1289-.1289-.14844-.10548-.15625-.07421-.17188-.04297-.17187-.01563-.32813.03906-.28515.1211-.2461.19531-.20312.26953-.16016.33985-.11719.40234-.0703.46875-.02345.52344.1875-.20313.1875-.15625.1836-.125.1875-.08594.1875-.0625.1914-.03515.40235-.02344.3086.02734.3203.09375.3125.15625.29688.21875.2539.28516.19922.35156.07422.19922.05078.21875.03125.23438.00391.25-.78906.04687-.02735-.25781-.07421-.2539-.125-.23438-.16016-.21094-.1914-.17578-.22266-.13672-.23829-.08984-.2539-.03125-.25781.03125-.23829.08984-.21875.13672-.1953.17578-.16016.21094-.1211.23437-.07812.2539-.02735.25782.02735.25781.07812.25.1211.23438.16015.21094.19531.17968.21875.13672.23829.08594.2578.03125.25392-.03125.23828-.08594.22265-.13672.1914-.17968.16017-.21094.125-.23438.07421-.25.02735-.2578.78906-.04688-.03125.37109-.09375.3711-.15625.35937-.22266.32812-.28906.28125-.17187.1211-.1875.10156-.20704.08203-.22265.0625-.24219.03906-.25781.01172-.28516-.01562-.25781-.04688-.23828-.07812-.21875-.10547-.1914-.1289-.17579-.15626-.15234-.17969-.13672-.20312-.11719-.22266-.09765-.24218-.14844-.53516-.08594-.59375-.02344-.64063.03516-.74218.11719-.66406.18359-.57813.1211-.2539.13671-.23048.15235-.20703.17187-.18359.1875-.15234.19922-.13282.21875-.10156.23438-.07031.24609-.04688.26172-.01562.36719.03515.33203.09375.29687.15235.2539.19922.21094.24219.16797.27343.11329.30469.0625.32031"/><path fill="#ffffe0" fill-rule="evenodd" d="M213.03125 349.6914h22.17969v-10.1953h-22.17969v10.1953"/><path fill-rule="evenodd" d="M216.53125 341.33203h.50781v6.29297h-.78515v-4.48828h-1.39063v-.55469l.5625-.0664.25-.0547.23047-.08984.20313-.14062.17578-.21094.14062-.29297.10547-.39453m4.8125 0l.23047.01953.21875.05469.20703.08984.19922.1211.1836.14844.17187.17578.30078.41796.24219.4961.17968.54687.11328.57813.03516.58984-.03516.59375-.11328.58594-.17968.55078-.2422.5039-.30077.42579-.17188.17969-.1836.15625-.19921.12109-.20703.09375-.21875.05469-.23047.01953-.22656-.01953-.22266-.05469-.20703-.09375-.19531-.1211-.1836-.15624-.17187-.1797-.30078-.42577-.2461-.5039-.17968-.55079-.10938-.58594-.03906-.59375h.83203l.03125.5625.08203.50781.125.44141.16406.375.1875.30078.21094.22266.22266.13672.22656.04687.22656-.04687.22266-.13672.21094-.22266.1914-.30078.16406-.375.125-.4414.08204-.50782.02734-.5625-.02734-.5625-.08203-.5-.125-.4336-.16407-.36718-.1914-.29297-.21094-.21094-.22266-.1328-.22656-.04688-.22656.04687-.22266.13281-.21094.21094-.1875.29297-.16406.36719-.125.4336-.08203.5-.03125.5625h-.83203l.03906-.58985.10938-.57813.17968-.54687.2461-.4961.30078-.41796.17187-.17579.1836-.14843.19531-.1211.20703-.08984.22266-.05469.22656-.01953m5.09375 0h.50781v6.29297h-.78515v-4.48828h-1.39063v-.55469l.5586-.0664.2539-.0547.23047-.08984.20313-.14062.17187-.21094.14453-.29297.10547-.39453m6.80078 1.61719h-.78516l-.05078-.21094-.08203-.1875-.10937-.15625-.1289-.13281-.14454-.10156-.16016-.07422-.16797-.04688-.17578-.01562-.32422.04297-.28906.12109-.2461.19531-.20312.26563-.16015.33984-.11719.40235-.07031.46875-.02344.52734.1875-.20313.1875-.16015.1875-.1211.1836-.08984.1875-.0586.1914-.03906.40234-.02343.3086.03125.32031.08984.3164.15625.29298.21875.2539.28516.19922.35156.07422.19922.05078.21875.03125.23437.0039.25-.78515.04688-.02734-.25781-.07813-.25-.125-.23438-.16016-.21094-.1914-.17969-.21875-.13671-.24219-.08594-.2539-.03125-.25391.03125-.24219.08594-.21875.13671-.19531.1797-.16016.21093-.1211.23438-.07812.25-.02734.2578.02734.25782.07813.2539.1211.23438.16015.21094.19531.17578.21875.13672.24219.08984.2539.03125.25391-.03125.24219-.08984.21875-.13672.1914-.17578.16016-.21094.125-.23437.07813-.25391.02734-.25781.78516-.04688-.03125.3711-.09375.37109-.15625.35938-.22266.32812-.28906.28516-.17188.11718-.1875.10157-.20703.08203-.22266.0625-.24218.03906-.25781.01172-.28516-.01563-.25781-.04687-.23828-.07422-.21485-.10547-.19531-.13281-.17578-.15625-.15235-.17969-.13672-.20312-.11718-.22266-.09766-.24219-.14844-.53125-.08203-.59375-.02734-.64062.03906-.7461.11328-.66015.1875-.57813.11719-.25781.13672-.23047.15625-.20703.16797-.17969.1875-.15625.20312-.1289.21485-.10157.23437-.07421.2461-.04297.26171-.01563.3672.03125.33202.09766.29688.15234.2539.19922.21485.23828.16406.27735.11719.30078.0586.3203"/><path fill="#ffffe0" fill-rule="evenodd" d="M356.375 330.28906h22.13281v-10.1914H356.375v10.1914"/><path fill-rule="evenodd" d="M359.8711 321.92969h.51171v6.29687h-.78906v-4.48828h-1.38672v-.5586l.5586-.0625.2539-.05468.22656-.08984.20704-.14063.17187-.21094.14063-.29296.10546-.39844m4.81641 0l.22656.01953.21875.0586.21094.08593.19531.1211.1836.15234.17187.17578.30078.41797.2461.49219.17968.54687.10938.58203.03906.58985-.03906.59375-.10938.58203-.17968.55468-.2461.50391-.30078.42578-.17187.17969-.1836.15234-.19531.125-.21094.09375-.21875.05469-.22656.01953-.23047-.01953-.21875-.05469-.20703-.09375-.19922-.125-.1836-.15234-.17187-.17969-.30078-.42578-.24219-.5039-.17968-.5547-.11329-.58202-.03515-.59375h.83203l.02734.5625.08204.5078.125.44141.16406.375.1914.30079.21094.21875.22266.13671.22656.04688.22656-.04688.22266-.13671.21094-.21875.1875-.30079.16406-.375.125-.4414.08203-.50781.03125-.5625-.03125-.5625-.08203-.5-.125-.4336-.16406-.36719-.1875-.29296-.21094-.21485-.22266-.1289-.22656-.04688-.22656.04688-.22266.1289-.21094.21485-.1914.29296-.16406.3672-.125.43358-.08204.5-.02734.5625h-.83203l.03515-.58984.11329-.58203.17968-.54688.2422-.49218.30077-.41797.17188-.17578.1836-.15235.19921-.12109.20703-.08594.21875-.0586.23047-.01952m2.96094 2.17578h.78906l.01953-.3164.0586-.28516.09765-.25391.14063-.21484.17968-.17188.22266-.1289.26563-.08204.30859-.02734.23828.02344.22266.0625.20703.10156.17969.13672.14843.17187.11328.20704.07032.23828.02343.26171-.01953.26954-.0664.22656-.10938.1914-.15625.16797-.19922.16407-.25.16796-.63281.38672-.53906.3125-.4375.31641-.34375.32422-.26563.33594-.1875.35156-.1289.3711-.06641.39452-.01953.41797h4.21094v-.74219h-3.33204l.08204-.28125.11328-.23828.14844-.20312.1875-.17969.23046-.17187.27735-.17579.71875-.41406.41406-.20703.34766-.23047.28125-.25.21875-.26953.16406-.27734.10937-.28125.0625-.28516.02344-.28125-.04297-.38672-.1211-.34765-.1875-.3047-.25-.26562-.30468-.21093-.34375-.16016-.38281-.09766-.40625-.03515-.4336.03515-.39843.09766-.35547.16797-.30469.23437-.2461.3047-.1875.37108-.11718.44922-.03906.51563m6.9414-2.17578l.23047.01953.21875.0586.20703.08593.19922.1211.1836.15234.17187.17578.30078.41797.24219.49219.17969.54687.11328.58203.03906.58985-.03906.59375-.11328.58203-.17969.55468-.24219.50391-.30078.42578-.17187.17969-.1836.15234-.19922.125-.20703.09375-.21875.05469-.23047.01953-.22656-.01953-.21875-.05469-.21094-.09375-.1953-.125-.1836-.15234-.17188-.17969-.30078-.42578-.24219-.5039-.17968-.5547-.11329-.58202-.03906-.59375h.83594l.02734.5625.08204.5078.125.44141.16406.375.1914.30079.20704.21875.22265.13671.22656.04688.22657-.04688.22265-.13671.21094-.21875.1914-.30079.16407-.375.125-.4414.08203-.50781.02734-.5625-.02734-.5625-.08203-.5-.125-.4336-.16406-.36719-.19141-.29296-.21094-.21485-.22265-.1289-.22657-.04688-.22656.04688-.22265.1289-.20704.21485-.1914.29296-.16406.3672-.125.43358-.08204.5-.02734.5625h-.83594l.03906-.58984.11329-.58203.17968-.54688.2422-.49218.30077-.41797.17188-.17578.1836-.15235.1953-.12109.21094-.08594.21875-.0586.22656-.01952"/></g></defs><use xlink:href="#ay"/></svg>