<svg xmlns="http://www.w3.org/2000/svg" role="img" xmlns:xlink="http://www.w3.org/1999/xlink" viewBox="142.45 309.95 326.84 171.84"><defs><clipPath id="a"><path d="M144 311.67188h1v168.65625h-1zm0 0"/></clipPath><clipPath id="b"><path d="M144 311.67188h324v168.65625H144zm0 0"/></clipPath><clipPath id="c"><path d="M467 311.67188h1v168.65625h-1zm0 0"/></clipPath><clipPath id="d"><path d="M144 479h4v1.32813h-4zm0 0"/></clipPath><clipPath id="e"><path d="M147 479h3v1.32813h-3zm0 0"/></clipPath><clipPath id="f"><path d="M146 479h3v1.32813h-3zm0 0"/></clipPath><clipPath id="g"><path d="M153 479h8v1.32813h-8zm0 0"/></clipPath><clipPath id="h"><path d="M160 479h3v1.32813h-3zm0 0"/></clipPath><clipPath id="i"><path d="M159 479h3v1.32813h-3zm0 0"/></clipPath><clipPath id="j"><path d="M167 479h8v1.32813h-8zm0 0"/></clipPath><clipPath id="k"><path d="M173 479h3v1.32813h-3zm0 0"/></clipPath><clipPath id="l"><path d="M172 479h4v1.32813h-4zm0 0"/></clipPath><clipPath id="m"><path d="M180 478h8v2.32813h-8zm0 0"/></clipPath><clipPath id="n"><path d="M187 478h3v2.32813h-3zm0 0"/></clipPath><clipPath id="o"><path d="M186 479h3v1.32813h-3zm0 0"/></clipPath><clipPath id="p"><path d="M193 478h8v2.32813h-8zm0 0"/></clipPath><clipPath id="q"><path d="M200 478h3v2.32813h-3zm0 0"/></clipPath><clipPath id="r"><path d="M199 479h2v1.32813h-2zm0 0"/></clipPath><clipPath id="s"><path d="M206 478h9v2.32813h-9zm0 0"/></clipPath><clipPath id="t"><path d="M213 478h3v2.32813h-3zm0 0"/></clipPath><clipPath id="u"><path d="M212 479h3v1.32813h-3zm0 0"/></clipPath><clipPath id="v"><path d="M220 478h8v2.32813h-8zm0 0"/></clipPath><clipPath id="w"><path d="M226 478h4v2.32813h-4zm0 0"/></clipPath><clipPath id="x"><path d="M225 479h3v1.32813h-3zm0 0"/></clipPath><clipPath id="y"><path d="M233 478h8v2.32813h-8zm0 0"/></clipPath><clipPath id="z"><path d="M240 478h3v2.32813h-3zm0 0"/></clipPath><clipPath id="A"><path d="M239 479h2v1.32813h-2zm0 0"/></clipPath><clipPath id="B"><path d="M247 478h7v2.32813h-7zm0 0"/></clipPath><clipPath id="C"><path d="M253 478h3v2.32813h-3zm0 0"/></clipPath><clipPath id="D"><path d="M260 478h7v2.32813h-7zm0 0"/></clipPath><clipPath id="E"><path d="M274 477h7v3.32813h-7zm0 0"/></clipPath><clipPath id="F"><path d="M287 477h7v3.32813h-7zm0 0"/></clipPath><clipPath id="G"><path d="M301 477h6v3.32813h-6zm0 0"/></clipPath><clipPath id="H"><path d="M315 476h4v4.32813h-4zm0 0"/></clipPath><clipPath id="I"><path d="M329 476h3v4.32813h-3zm0 0"/></clipPath><clipPath id="J"><path d="M342 476h3v4.32813h-3zm0 0"/></clipPath><clipPath id="K"><path d="M356 476h3v4.32813h-3zm0 0"/></clipPath><clipPath id="L"><path d="M369 476h2v4.32813h-2zm0 0"/></clipPath><clipPath id="M"><path d="M383 476h2v4.32813h-2zm0 0"/></clipPath><clipPath id="N"><path d="M393 479h8v1.32813h-8zm0 0"/></clipPath><clipPath id="O"><path d="M408 477h5v3.32813h-5zm0 0"/></clipPath><clipPath id="P"><path d="M420 478h8v2.32813h-8zm0 0"/></clipPath><clipPath id="Q"><path d="M425 479h3v1.32813h-3zm0 0"/></clipPath><clipPath id="R"><path d="M433 478h8v2.32813h-8zm0 0"/></clipPath><clipPath id="S"><path d="M438 479h3v1.32813h-3zm0 0"/></clipPath><clipPath id="T"><path d="M447 477h6v3.32813h-6zm0 0"/></clipPath><clipPath id="U"><path d="M460 478h7v2.32813h-7zm0 0"/></clipPath><clipPath id="V"><path d="M465 479h3v1.32813h-3zm0 0"/></clipPath><clipPath id="W"><path d="M144 465h4v4h-4zm0 0"/></clipPath><clipPath id="X"><path d="M144 452h4v3h-4zm0 0"/></clipPath><clipPath id="Y"><path d="M465 450h3v3h-3zm0 0"/></clipPath><clipPath id="Z"><path d="M144 439h4v3h-4zm0 0"/></clipPath><clipPath id="aa"><path d="M144 426h4v2h-4zm0 0"/></clipPath><clipPath id="ab"><path d="M144 413h4v2h-4zm0 0"/></clipPath><clipPath id="ac"><path d="M144 399h4v3h-4zm0 0"/></clipPath><clipPath id="ad"><path d="M465 397h3v1h-3zm0 0"/></clipPath><clipPath id="ae"><path d="M144 386h4v2h-4zm0 0"/></clipPath><clipPath id="af"><path d="M465 384h3v2h-3zm0 0"/></clipPath><clipPath id="ag"><path d="M144 372h4v3h-4zm0 0"/></clipPath><clipPath id="ah"><path d="M465 371h3v2h-3zm0 0"/></clipPath><clipPath id="ai"><path d="M144 358h4v5h-4zm0 0"/></clipPath><clipPath id="aj"><path d="M466 358h2v3h-2zm0 0"/></clipPath><clipPath id="ak"><path d="M144 345h4v5h-4zm0 0"/></clipPath><clipPath id="al"><path d="M466 345h2v3h-2zm0 0"/></clipPath><clipPath id="am"><path d="M144 330h3v7h-3zm0 0"/></clipPath><clipPath id="an"><path d="M466 331h2v3h-2zm0 0"/></clipPath><clipPath id="ao"><path d="M465 332h3v3h-3zm0 0"/></clipPath><clipPath id="ap"><path d="M144 317h2v8h-2zm0 0"/></clipPath><clipPath id="aq"><path d="M144 323h2v3h-2zm0 0"/></clipPath><clipPath id="ar"><path d="M465 317h3v2h-3zm0 0"/></clipPath><g id="as" clip-path="url(#clip1)"><path fill="#fff" fill-opacity="0" fill-rule="evenodd" d="M0 0h1000v1000H0zm0 0"/><path fill="#d3d3d3" fill-opacity="0" fill-rule="evenodd" d="M162.15234 355.86719l-.23437.29297.0586.23437.11718.17188.17578.23437.29297.34766.11328.0586.11719-.17188.0586-.23438.17577-.17578.46485-.17578h.69922l.23437.29297.28906.8164.0586.17579.17578.23046.35156.23438.69922.69922.17188.17578.23437.34765.23438.41016.28906.58203.41015.46485.23047.23437.23438.17578.11719.23047.17578.29297.17187 1.16406v.23438l.0586.28906.05859.11719.11719.11719.34765.41015.11719.17188.17578.17578.17578.23437.11719.17188.17188.35156.05859.23438.23437.40625.23438-.0586-.17578.17578-.0586.92969h-.58203l-.23437-.11328-.34766.11328-.11719.11719-.05859.29297-.0586.17578-.11718.17187-.46484.29297-.0586.23438-.0586.11328v.64453l.0586.17187v.41016l.0586.0586v.40624l.05859.40625.11719.17579.05859.05859.23047.64062-.0586.29297v.69922l-.05859.58203v.23438l-.0586.23047-.05468.35156v1.92187l.05469.1172h.42578l-.36719.11718-.02344.35156.89063 1.16797 1.74219.53906 1.33984.35938v.53906l.08984.8086.53516.71484 1.51953.26953.89063-.08594.08984 1.16406.53516.1797 1.16015-.1797 2.05469-.98437 1.16016-.36328 1.8789-.17578 1.69531-.1797-.17968.71876-1.51563.08594-1.25.08984-.80469.26953-1.07421.8086.26953.71875.53515.89843-.17968.625-.26563.8086.26563 1.07812.625.89844.80468.17969 1.25-.1797-.26562.72267.09766.5039.05468.29297v.17188l.0586.29296v.40625l.17578.1172.35156.11718h.40625l.29297-.17578.11328-.11719.0586-.11719.11718-.23047.0586-.17578.35156-.46484.23047-.17578.17578-.0586.17578.0586.0586.17578.11718.98828.05469.46875.0586.17188.11718.23437.17578.0586.8164.05859h.28907l.11719.23437.05859.40625.0586.35156v1.10547l.11718.29297.11719.34766.28906.69922.17578.35156.58203.7539.35157.17579.17187.0586.46875.23437.64063.46484.34765.23438.29297.17578.29297.05468.23047.0625.8164.34766.29297.17578.11328.17188.35157.35156.11719.17578.52343.64063v.28906l.0586.35156v.34766l.05859.35156.0586.28906.11718.0586.17188.05859h.17578l.58203.23437.17578.1172.17578.28905.17578.23438.11328.23437.29297.23047.11719.11719v.41016l.0586.05468.28906.23438.23437.11719.0586.11718.11718.17188.0586.11719.23047.23437.05859.17578.23437.0586.1172.05859-.1172.11328-.05859.11719v.11719l-.11719.29296-.11719.28907v.58203l.17579.11719.11718.05859.0586.11719.11719.11719.11328.05859.17578.34765.0586.35157.05858.40625v.17578l-.05859.17578-.11719.69922v.17187l.1172.17579.29296.29296h.40625l.17578.1172.11719.17187.11719.29296v.23438h-.52735l-.23047-.23438h-.23437l-.17578.0586-.0586.69922.0586.34765.11719.17579.17578.41015.11718.23047.28907.46875.17578.05469h.52344l.23437.0586.75781.64062.0586.29296v.23438l.05859.0586.23047.34765v.35156l-.11719.17188v.29297l.29297.28906.29297.17578.17187.0586.29297.17577.29297.1172.58203.40624.28906.23438.29297.17578.21875.16015.01563.01172.23047.17579.64062.52343.17578.23438.1172.17578.17577.17578.11328.17188v.64062l.1172.17578.46874.11719.58203.11719.23438.05859.23047.11328.29297.11719.11328.0586.58593.35156.28907.17187.17578.0625.17578.05469.17578.0586.69922.35155.28906.17579.23438.05468.28906.17578.23437.1172.64063.40624.29297.11719.17187.0586.23438.05859.41015.05859.23047.0586.23438.11718.0586.17188-.41017.17578.46875.0586.0586.29296.11328.23438.17578.05468.23438.0586.17578.05859.40625.11719.64062.23437.11719.17188.0586.23437v.17578l-.0586.1172-.0586.40624.23438.23438.11719.05859.34766.11719.64062.23047.17578.11718.28906.1172.17578.17577.23438.46485.58203 1.10546.17578.17579.34766.17578.17578.11719.35156.11718 1.04688.52344.23437.0586.46485.11327.29297.0586.46484.17578.75781.58203.23438.23438.34765.46484.17578.17578.28907.23438.8164.69921.29297.17579.28906.28906.29297.17578.29297.28906.69531.64063.17578.17578.29297.23437.28907.23438.46875.28906.64062.58203.34766.23438.23437.29297.34766.34765.35156.46485.9336.99218.34765.40625.11719.17579.23437.05859.11328.11719.64454.17578.23047.11328.23437.0586.29297.17577.23047.1172.9336.69921.40624.40625.23438.17578.40625.17578.23437.11719.8164.34766.34766.23437.23438.11719.29297.28906.23047.11719.7578.35156.35157.17188.23047.05859.29297.11719.23437.0586.8711.17577h.8164l.46875.23047.17188.0586.875.69921.46484.1172.29297.05858.17578.0586.23047.0586.46875.05859.34766.05859.35156.0586.40625.05859h.29297l.17187.0586v.23046l.17578.17578h.29297l.34766.0586.35156.05859.69922.11719h.64063l.46484-.23438.29297-.17578.17187-.11719.41016-.17187.28906-.17578.9336-.46485.46875-.29297.52343-.29296.46485-.17188.46484-.17578 1.05078-.46485.28906-.11718.41016-.11719.28906-.11719.52735-.17578 1.51562-.69922.58203-.34765.28907-.0586.29297-.0586.34765-.11718.875-.23047.35156-.11719h.11329l.23437-.05859.875-.23437.23438-.0586h.8125l.35156-.0586.8164-.11718.17188-.0586.35156-.05468.29297-.0586.23047-.05859.8164-.17578.17579-.0586h.34765l.23438-.05859.46484-.11718.75781-.17188.23438-.0586h.34765l.41016-.11718.28906-.0586 1.28516-.05859h.28906l.41016-.0586.23047-.05858h.17578l.875-.1172h.40625l.41015-.11718h.34766l.35156-.11328.8711-.0586h1.75l1.04687.28907.41016.11719.28906.11718.35156.11719.28907.11719 1.05078.17187.28906.0586h.29297l.29297.05859.17187.0586.41016.05859.17187.0586.1172.05858h.11718l.11719.0586.35156.0586h.11328l.41016.0664 1.92187.39453 1.92578.39453 1.51953.44922 1.69532.71875 2.14453.80469 1.60547-.71875 1.42968-.80469 1.16016-1.07813 1.25-.44921 3.03516-.71875 1.875-.35938 2.14453-1.34765 2.23437-1.25391 2.5-1.25781 1.69531-.44922 1.78516-.17969 1.16016-.26953.625.53906 1.33984-.26953.71485-.98828.98437-1.34375.44531-.17969.80469-.35937 1.875-.53907 1.78516-.44921 1.25-.26954 1.16015-.08984 1.69922-.08984 1.96094-.26954 1.25-.08984h.53906l.625-.08984h.89063l2.14453-.17969 2.41015-.17969 2.58985-.08984 1.69531.17969 1.60938.08984 1.42968.35938 1.16016.71875 1.875.98828 1.16015 1.52734.26563.71484.6289.08985.35548.89844.53515.53906.53516 1.52734 1.07422.35938h.53515l-.80469.53515.08985 1.70703.71484 2.69532.89063.80468.89453.98829.71484 1.2578 1.78516.53907 1.51953-.17969.35547 1.34375 1.60937-.80469.98047-.53906.26953.26953.31641-.21484.21875-.14453.80078.44922.44922-.35938h.35547l.53515-.26953.53907-.71875.53515-.26953.625-.98828 1.16016.44922.83984.3711 1.39454.61718 1.6953-.17969h1.60548l1.78515.08985.17969-1.70704.53516-1.34375.80468.26954.4922.84765.40233.40625-.08984.53906v.35938l.71485.44922.71093-.26953h1.42969l.35938.98828.4453 1.25781.71485 1.34375 1.25.6289 1.69531.62891.71485-.17969.17969-.53906.98046-.08984.44922.35937.08594 1.25782-.26563.6289-.53515.17969v.53906l.71484.98438.26563.53906.98437.98828.80078 1.07813-.26562.35937-.08985.89844-.625 2.33203-.35546 2.0664-.08985 1.79298-.17969.71875-.08984.53906v1.4375l-.98047 1.88281-.35937 1.70703-.53516.89844-.80469 1.16797-.26562.53906 2.05469 1.2539.08593.35938-.35546.53906-.08985-.17968v.80859l.08985 1.4375-.44532.71484-1.07422.09375-.26562.71485.53515.89844.8047.71875 1.16015.80859 1.33984.26953.44531.35938-.35546.44921-1.78907-.08984-1.25-.44922-.71484-.71875-.625-.08984-.17578 3.58984-.1875 1.3086h89.35937V311.70313h-55.26953v49.08203l.76172.125 3.28906.54296 2.02344 2.83594v2.7539l2.35156.33204 2.34766.33203h4.05078l-1.3789 4.16016-2.02344.70703-2.02344.70312-.54297.34375-2.59375 1.6172-.1875.11718-2.02344-2.07813-.73046-2.74218-2.67188-2.07813-1.375-3.5-.0664-.08203-1.95704-2.67188 2.75-1.41796v-49.08204H294.42187v91.41407l.1172.03125.1328.01172.07422.07421.10547.04688.08985.0586.08593.05859.08985.0586.29687.29687.0586.08984.03125.11719.02734.11719.01563.13671-.03125.1172-.0586.08983-.0586.08594-.04296.10547-.04688.10156-.02734.1211v.14453l.17578.26953.14844.14844.07422.08594.07422.07421.04296.10547.0625.08985.0586.08593.04297.10547.0586.08985.04687.10156.04296.10547.0586.08594.11719.17968.07421.07422.0625.08594.0586.08984.04297.10547.0586.08985.05858.08593.0625.08985.0586.08984.04297.10156.11719.17969.07421.07422.0586.08594.07422.07421.08984.0586.10547.04687h.14844l.1328-.01562.13282.01562.10156-.04687.07422-.07422.04688-.10156-.01563-.13281v-.14844l-.04687-.10547-.02735-.11719-.04687-.10156-.02735-.1211-.04296-.10156-.0625-.08984-.04297-.10156-.04297-.10547-.03125-.11719-.01563-.13281-.01171-.13672.08593-.0586.0586-.08593.12109-.03125.04297.10547.01562.1328v.1172l.0586.10156.0586.08984.08983.0586.14844.14843.0586.08985.04296.10547-.01171.10156.08593.0586.10547.04687.08594.0586.08984.05858.07422.07422-.11719.02735-.10546.04687-.08594.0586-.07422.07421-.0586.08985-.0625.08594-.02734.12109-.04687.10156-.04297.10547-.03125.11719-.01172.13281-.01563.13281v.14844l.02735.11719.04687.10547.04297.10156.0586.08984.07421.07422.08985.0586.07422.07421.08984.0586.0586.08984.04296.10547.04688.10156.11719.03125.1328.01563h.14845l.11718-.03125.10547.04297.04297.10547.04688.10156.02734.1211L299.5 410l.02734.11719.03125.1211.02735.11718.10547.04297.10156.04687.13281-.01562.14844.14844.0625.08593.07422.07422.07031.07422.08984.0625.10547.04297.10156.04297.1172.03125.13671.01562.11719-.03125.07422-.07422.02734-.11718-.01172-.13282-.03125-.12109-.02734-.11719.04297-.10547h.11719l.08984.0625.11719.02735h.14843l.13282.01562h.14843l.13282.01563.1328-.01563h.14845l.1328-.01562.13282-.01172.13672.01172.11719-.02735.13281-.01562.1914-.0586-.05859.17579-.01562.1328-.02735.1211-.01562.13281-.0586.08594-.1328.01563-.10548.04687-.10546.04297-.1172.03125-.11718.02735-.26563.03125h-.14843l-.13281.01562-.07422.07422.05859.08594.14844.14843.11719.1797.07421.0703.08985.0625.08984.0586.08594.0586.08984.05858.10156.04297.10547.0625.10547.04297.08594.0586.10547.04687.10156.04297.17969.11719.0586.08984-.04298.10156-.04687.10547.01562.13281.22266.22266.0586.08985.04296.10156.03125.1211.04297.10155.01563.13282.03125.11718.01171.13672.03125.11719.14844.14844.10156.04297.10547.04296.1172.03125.1328.01563.13672.01563h.11719l.11719-.03125.08984-.0586.04297-.10547.04688-.10156.04296-.10547.03125-.11719.01172-.1328v-.14845l-.01172-.1328-.01562-.13282-.03125-.11719-.04297-.10547-.04688-.10547-.04296-.10156-.04297-.10547-.01563-.13281.01563-.13281.02734-.11719.03125-.11719.02735-.1211.04687-.10155.08984-.0586.08594-.0625.07422-.07422.08984-.05859.22266-.22266.0586-.08593.07421-.07422.11719-.17969.0586-.08594v-.14844l-.07423-.07421-.10156-.04688-.10547-.04297-.10156-.04297-.0586-.08984-.04687-.10547-.02734-.11719.08984-.05859.11719-.03125.10156-.04297.17969-.11719.14844-.14843.01172-.13282-.01172-.10546-.08985-.0586-.1328.01563h-.14845l-.1328.01562-.13282-.01562-.1211-.03125-.08593-.0586-.07422-.07422-.0586-.08984-.0625-.08594-.11718-.17969-.0586-.08593.03125-.1211.08594-.05859.1211-.03125.05859-.08594v-.1211l-.03125-.11718-.0586-.08984-.05859-.08594-.04687-.10547-.02735-.11719-.01562-.1328.0586-.08985.07421-.07422.08984-.0586.1172-.17968.07421-.07422.0586-.08594.14843-.14844.1211-.03125.1328-.01562.13282.01562.07422.07422.04297.10547.01562.13281-.03125.1172-.11719.03124-.1328.01172-.14844.14844-.04297.10547-.04688.10156-.02734.1211-.03125.11718v.14844l.03125.11719.04297.10546.05859.08985.07422.07031.07422.07422.11719.03125.12109.02734.11719-.02734.1328-.01563h.1172l.08984.0586.07422.07422.04687.10546.0586.08594.10156.04688.13281.01562.10547.04297.08594.0586-.01172.10546-.07422.07422-.17969.11719-.05859.08984-.08984.0586-.07032.07422-.07421.07421-.0625.08985-.02735.11719-.01562.1328.01562.13282-.01562.13281v.14844l.01562.13281.02735.1172.03125.12108.07421.07422.08985.0586.08594.0586.08984.05858.11719.03125v.08594l-.10157.04688-.08984.0586-.26563.03124-.11718.02735h-.14844l-.10547.04296-.10156.04688-.0586.08984-.0625.23438-.01171.13281-.03125.1211-.01563.1328v.29298l-.01172.1328.01172.13673.01563.1328.1328.01563.13282.01172.1211.03125.08593.0586.07422.07421.04688.10547.04296.10157.01563.1328v.44532l-.01563.13281v.44532l.03125.26562.02735.11719.01562.13281.03125.11719.08594.21094.03125.26562v.14844l-.03125.11719-.02734.11718-.03125.1211-.02735.11719-.03125.11718-.03125.1211-.01171.1328-.01563.13282.08984.0586.1172-.03125.10155.01562.04688.10547-.03125.26562v.44141l-.04297.10547-.04688.10547-.04296.10156-.04297.10547-.0586.08594-.03125.12109-.04296.11719-.03125.11719-.01563.1328.01563.13282.05859.08984.10547.04688.08594.0586.05859.08593-.01172.13672-.03125.11719-.04297.10156v.44531l-.01562.13281v.14844l-.03125.11719-.04297.10547-.02735.11719-.04687.10546-.04297.10157-.03125.12109-.02734.11719-.03125.13281-.03125.11719-.02735.11719-.04297.10546-.03125.1172-.03125.12108-.01171.13282-.01563.13281v.29688l.02734.11718v.14844l.04688.39844.02734.11719.0586.08984.12109.03125h.14844l.13281-.01563.0586.08985v.11719l-.0586.08984-.08984.0586-.10157.04296-.10546.04688-.08985.05859-.08594.0586-.13671.01562-.1172-.03125-.1328-.01563-.10157.04688-.0625.08594-.01172.13671-.01562.13282-.03125.11719-.02735.11718-.01562.13281-.03125.1211v.29687l.01563.13282.03125.11718v.14844l.01171.13281v.14844l-.02734.11719-.04688.10156-.02734.1211-.03125.11718-.0586.08985-.07421.07421-.10156.04297-.10547.04688-.11719.02734-.1211.03125-.10156-.04687.0586-.08594.10547-.04688.02734-.11718.03125-.11719.02734-.1211.03125-.11718v-.14844l.01563-.13281-.03125-.11719-.04297-.10547-.10547.01563-.07422.07422-.10156.04296-.08984.0625-.07422.07422-.04297.10157-.01563.1328-.03125.1172L304.25 426l-.03125.11719-.02734.11719-.03125.12109-.02735.11719-.03125.11718-.04297.10547-.08984.0586h-.08984l-.1172-.03125-.03124-.08594.01562-.13672-.03125-.11719v-.14844l-.01171-.1328v-.14844l-.0625-.23438-.02735-.1211-.04297-.10156-.04687-.10546-.0586-.08594-.05859-.08985-.04297-.10546-.0625-.08594-.14844-.14844-.0703-.07422-.10548-.04687-.10547-.04297-.10156-.04297-.29687-.29688-.08985-.07421-.08594-.0586-.10546-.04297-.08985-.0625-.08594-.0586-.10546-.04296-.08985-.0586-.08594-.0625-.07421-.0703-.10547-.04688-.08594-.0586-.10547-.04296-.08984-.0625-.10156-.04297-.10547-.04297-.08594-.0586-.10547-.04687-.10547-.04297-.10156-.04687-.08985-.0586-.10156-.04297-.10547-.04296-.08984-.0625-.11719-.02735-.13281-.01562-.13281.01562H299.75l-.13281.01563-.11719-.03125-.08984-.0586-.07422-.07422-.08985-.05859-.10156-.04688h-.14844l-.12109-.02734-.10156-.04297-.07422-.07422-.11719-.17968-.08984-.0586-.10156-.04297-.08985-.0625-.10547-.04296-.08984-.0586-.08594-.0586-.10547-.04687-.0586-.08594-.05858-.08984-.04297-.10547-.04688-.10156-.07422-.07422-.08594-.0586-.07421-.07421-.08985-.0586-.22265-.22265-.04297-.10547-.03125-.26563.10547-.04296h.14453l.10547.04296.07421.07422.08985.0586.08594.0586.10546.04687.08985.05859.14844.14844.0703.07422.14845.14843.0625.08594.07421.07422.08594.0586.07422.07421.08985.0625.08984.0586.08594.05859.26953.17578.10156.04688.10547.04296.10156.04297.04688-.07421.05859-.08594.07422-.07422.07031-.07422.10547.04297.07422.07422.0586.08984.04296.10156.04688.10547.04296.10547.1211.02735.11719-.02735.07421-.08984.04297-.10547.0586-.08985.07422-.07421.10546-.04297.1172-.02735.1328.01172.08985.0586.14844.14843.05859.08985.04297.10547.04687.10156.04297.10547.04297.10156.10547.04688.10547.04296.13281.01563.08594-.0586.0586-.08984.07421-.07422.10547-.04297.11719.02735.10547.04687.10156.04297.10547.04297.10156.04688.17969.11718v.11719l-.01563.13281.01563.13281.01562.13672.0586.08594.10156.04688.1211.02734.11718.03125h.14844l.11719-.03125.05859-.08984.17969-.1172.05859-.08983.07422-.07422.0586-.08594.11718-.17969.17969-.11719.11719.03125.08984.0586.04297.07422-.01563.1328v.1172l.08985.05859h.14843l.13282-.01563.1328-.01171.26563-.03125.10547-.04297.11719-.03125.1211-.02735.07421-.07421.07031-.07422.0625-.08985-.01562-.10547-.04688-.10156-.10156-.04297-.10547-.01562-.11718.02734-.26563.03125h-.14844l-.07421-.07422-.08985-.0586-.11719-.03124-.11718-.02735-.13282-.01562h-.14843l-.13282.01563h-.29687l-.10547-.04688-.14844-.14844-.04297-.10156-.05859-.08984.22266-.22266.08593-.0586.10547-.04296.11719-.03125.13281-.01563.13281.01563.13672.01562.10157.04297.1328-.01172.08985-.0625.10156-.04297.0625-.08984-.04687-.10156-.08984-.0586-.1172-.03125-.10155-.04296-.0586-.08985-.0625-.08984v-.11719l.01563-.13281.10547-.04688.07421-.07031v-.1211l-.08984-.05859-.03125-.11719.08985-.05859.07421-.07422.04297-.10547.0586-.08984.04687-.10156.01563-.13281v-.14844l-.04688-.10547-.04297-.10156-.08984-.0586-.13281-.01562-.10157-.04297-.13671-.01563-.1172-.03125h-.4453l-.13282-.01562-.13281-.01172-.13281-.01563-.11719-.03125h-.14844l-.13281-.01562-.13281-.01172-.26563-.03125-.1211-.04297-.08593-.0586-.07422-.07421v-.14844l.01172-.13281.10547-.04688.10156-.04296.13281-.01563h.15235l.13281-.01562h.29297l.1211.03125.10156.04296.08984.0586.23438.0625.12109-.04688.08984-.05859.10156-.04297.13282-.01562.10547.04296.10156.04688.13281.01172.1211-.02735h.14453l.12109-.03125.11719-.02734.10547-.04687.07421-.07422.08594-.0586.14844-.14843.0586-.08594.04687-.10547.02734-.11719.01563-.10547-.10156-.04296-.08985-.0586-.11719-.03125-.10546-.04297-.08985-.0625-.07422-.08594-.07422-.07421-.10156-.04297-.10547-.04688-.10156-.04297-.0586-.08984-.04687-.10156-.08594-.21094-.0625-.08594-.05859-.08984-.07422-.07422-.08594-.0586h-.26953l-.11719.03126-.08984.05859-.10156.04297-.13281.01562-.10547-.01562-.02735-.11719-.0625-.08984-.11718-.03125-.10157-.04297-.14843-.14844-.03125-.11719-.01563-.10546.07422-.07422.17969-.1172.11719-.02733.11718-.03125.13672.01562.10156.04297.10547.04297.10156.04687.10547.04297.1172.03125.1328.01563.1172.02734.1328.01563.10547-.01563.08985-.0586-.07422-.07421-.10547-.04297-.07422-.07422-.07422-.08984-.14844-.14844-.08593-.0586-.08985-.05859-.07422-.07422-.08984-.0586-.10156-.04687-.1211-.02734-.10156-.04688-.10547-.04296-.11719-.03125-.10156-.04297-.1211-.03125h-.14843l-.11719.03125-.10546.04297-.08594.0625-.17969.11718-.08594.0586-.08984.0586-.10547.04687-.08594.05859-.10547.04297-.10156.04297-.10547.04687-.07422.07422-.05859.08985-.0586.08593-.04687.10547-.0586.08594-.07421.07422-.13281-.01172-.1172-.03125h-.11718l-.07422.07422-.08984.0586-.07422.07421-.08984.0586-.08594.05859-.10547.04687-.10156.04297-.13672.01563-.10156-.04297-.14844-.14844-.10547-.04688h-.08594l-.10547.04688-.10156.04297-.1211.03125-.11718-.03125-.07422-.07422v-.11719l.03125-.1211.07422-.0703.0586-.08985.07421-.07422.11719-.03125.10547-.04296h.29297l.13281-.01563.13672-.01563.10156-.04296.08985-.0586.10156-.04687.08984-.0586.13281-.01171.08985.05859.13281.01172.08984-.0586.08594-.05859.10547-.04297.08984-.0586.08594-.0625.08985-.05859.14843-.14843.0586-.08594.05859-.08985.10547-.04296.13281-.01563.11719.02735.1211.03125.05859-.0586.05859-.08984.03125-.26563.02734-.11719.10547.01172.13281.01563.10157-.04297.08984-.0586.0586-.08984.07421-.07422.0586-.08984.04687-.10156.01172-.13281-.01172-.13282-.04687-.10547-.14844-.14843-.0586-.08985-.05859-.08594-.04297-.10546v-.44532l.01563-.1328v-.14845l.01172-.1328-.0586-.0586-.08984.0586-.10156-.04298-.17969-.11719-.08594-.05859-.0625-.08984-.0586-.08985-.07421-.07421-.08594-.0586-.1211.03125-.10155.01172-.10547.04688-.08594.05859-.10547.04297-.14844.14844-.08984.05859-.08594.0586-.08984.0625-.10547.04296-.13281.01563v-.1211l.10547-.04297.11718-.03125.07422-.0703.04297-.10548v-.14844l-.02734-.11718-.14844-.14844-.13281-.01563h-.14844l-.11719.03125-.10547.04297-.10156.04297-.08984.0625-.11719.02735-.07422-.07422.01172-.13281-.04297-.10157-.04297-.10547-.08984-.05859-.11719.02734-.1211.03125-.11718.03125-.10156.04297-.1211.03125-.10156.04297-.10547.04297-.08984.0586-.10156.01562v-.11719l.01562-.13281-.0586-.08985-.07421.04297-.14844.14844-.0586.08985-.07421.07421-.04688.10547-.04296.10156-.07422.07422-.0586.08985-.07422.07422-.05859.08593-.07422.07422-.08984.0625-.07422.07031-.07422.07422-.10156.01563-.13281.01562-.10547-.04296v-.1211l.14843-.14844.04297-.10156.0586-.08984.04687-.10156.04297-.10547.0586-.08985.03124-.11719.04297-.10156.03125-.1211.02735-.11718.04687-.10547.04297-.10156.04297-.10547.07422-.07031.08984-.0625.08985-.0586.10156-.04296h.29687l.26563-.03125.10547-.04297-.07422-.07422-.11719-.03125-.10547-.04297-.08984-.0586-.10156-.04687-.08985-.0586-.10156-.04296-.10547-.04297-.08984-.0625-.08594-.0586-.10547-.04296-.10156-.04297-.1211-.03125-.11718-.03125-.10157-.04297L297.5 410.25l-.10156-.04297-.08985-.0586-.04296-.10546-.01563-.13281.10156-.04297.13281-.01563.13672.01563.13282-.01563.10156-.04297.0586-.08984.01562-.10547-.08985-.0586-.07421-.07421-.10157-.04297-.08984-.0586-.14844-.14843-.04297-.10547-.01562-.13281v-.29297l-.0586-.08985-.08984-.05859-.07422-.07422-.04297-.10547-.03125-.11718-.0586-.08985-.07421-.07422-.11719-.02734-.07422-.07422-.08984-.0586-.08984-.0625-.08594-.05859-.07422-.07421-.0586-.08594-.04687-.10547-.08594-.0586-.14843-.14843-.19532-.0586-.1328.01563-.10157.04297-.07422.07422-.04688.10156-.04296.10547-.0586.08984-.0586.08594-.29687.29687-.08984.0586h-.08594l-.0625-.08594-.04297-.10547.03125-.11719.0586-.08984.02734-.11719-.01172-.13281-.08984-.0625-.10547.04688-.11719.02734-.11719.03125-.26953.17578-.10156.04688-.11719.02734-.10546.04687-.08985.0586-.10156.04297-.0586-.08594-.04687-.10547.01563-.13281.04687-.10547.07031-.07422.07422-.07031.0586-.08985v-.14843l-.04297-.10547h-.23829l-.10156.04687-.03125.11719-.02734.11719-.03125.1211-.07422.04296-.13281.01563-.07422-.04688-.04297-.10156-.04297-.10547-.04687-.10156-.04297-.10547-.1211.03125-.10156.04297-.13281.01562-.11719.03125-.10547.04297-.08984.0586-.10156.04687-.1211.02734-.13281.01563-.10156-.04297-.0586-.08985-.04687-.10546-.04297-.10157-.04297-.10546v-.1172l.0586-.08984.08593-.05859.17969-.11719.10156-.04687.10547-.04297.10547-.0586.10156-.04296.08985-.0625.10156-.04297.10547-.0586.10156-.04687.08984-.0586.10547-.04296.10156-.04297.08985-.0625.10156-.04297.13672-.01563.11719.03125.10156.04297.1211.03125.10156.04297.10546.04688.10157.04296.10547.04297.10156.04688.10547.04297.10156.04297.10547.04687.08594.0586.10546.04296.1172.03125.10546.04297.10156.04688.08985.0586.10547.04296.10156.04297.10547.04687.11719.02735.10156.04687.1211.02735h.14843l.08594-.0586.01562-.10156.0586-.08984-.02735-.1172-.07422-.07421-.11719-.17969-.07421-.07422-.08985-.07421-.17969-.1172-.08593-.05859-.10547-.04296-.10156-.04688-.26954-.17578-.05859-.08985-.07422-.07421-.0586-.08985-.04296-.10156-.03125-.11719-.01563-.13672v-.5625l-.01171-.1328-.01563-.13282-.03125-.11719-.01562-.13281-.01172-.13281-.03125-.1211-.22266-.22265-.0586-.08594-.01562-.10547.03125-.11719.13281-.01562v-91.41406H172.9922v1.45312l-.0586.23438-.35156 1.05078-.17187.52343-.1172.34766-.17577.41016-.11719.17187-.23438.29297-.23046.0586h-.35157l-.11718.05859-.23047.40625v.29297l.11719.17578.23046.23047.1172.23437.64062.75781.29297.46485.17578.23437.23047.35156.23437.34766.64063.8164.17578.46485.17187.41016.11719.69531.17578.46875.11719 1.39844.0586.46484v.875l.11718 1.04688v4.78125l-.0586.46484-.35156 1.28125-.17578.52344-.11328.41015-.35156.9297L172.93359 336l-.23437.58203-.11719.17578-.17187.34766-.17578.40625-.35157.8164-.0586.29297-.11327.29297-.11719.28906-.0586.17579-.11718.875-.0586.40625-.05859.11718-.0586.17579-.05859.17187-.23047.52734-.11718.17188v.23437l-.11719.23438-.0586.17187-.17577.58594v.28906l-.0586.17579v.29296l-.0586.11329-.05859.52734v.17187l-.05468.23438v2.6211l-.17578.8164-.1172.17578-.17577.23438-.1172.17187-.11327.23438-.58594.93359-.23047.28906-.29297.46485-.17578.23437-.28906.35156-.35156.69922-.11328.23047-.17579.41016-.17578.23046-.40625.52735-.8164.69922-.29297.17187-.28906.23438-.17579.11719-.17578.17578-.52344.40625-.52734.17578-.17187.17578-.23438.05469-.64062.17578h-.75782m12.21094 31.02344l-1.07422.44921.35938.89454 1.25-.71485.44531-.53906-.98047-.08985"/><path fill="#d3d3d3" fill-opacity="0" fill-rule="evenodd" d="M201.50781 416.59766h-.89453l.44922.6289.98047.35938.80469-.08985.4453-.98828-.17577.08985-.71485-.35547-.89453.35547m154.6211 59.0703l-.0586-.52343v-.29297l.11328-.29297.0586-.23046.46875-.46875h.11328l.11719-.11329.11718-.05859h.17579l.23437-.0586h.34766l.23437.0586.11719.0586.23047.17187.0586.17578.11718.58203v.29297l-.11719.17578-.17187.28906-.17579.17579-.52734.52343-.23047.23438-.11719.0586h-.17578l-.11718-.0586-.40625-.29297-.17579-.11719-.11718-.0586-.0586-.11327-.05468-.1172m6.64062-10.95702l-.0586-.17188v-1.10937l.0586-.17188.17578-.0586.17188-.05858h.17578l.23437-.0586.1172.0586.05858.69921-.05859.17188-.11719.17578-.11718.0586-.23438.52343-.11328.0586h-.23438l-.05859-.1172m9.61328-14.39062l-.11719-.17578v-.69922l.29297-.875.1172-.17187.17577-.35156.11328-.23047.1172-.29297.35155-.75781.1172-.23047.17187-.23438h.17578l.11719-.0586h.64062l.11719.0586.23437.23438.17188.11328.35156.29297.11719.11718.11328.17579v.11328l.11719.05859.11718.11719v.69922l-.05859.17578v.23047l-.0586.17578-.34765 1.05078-.11719.23047-.11719.23437-.11718.0586-.23047.23437-.64063.28906h-.875l-.41015-.11718-.64063-.46485"/><path fill="none" stroke="#bebebe" stroke-linecap="round" stroke-linejoin="round" stroke-miterlimit="10" stroke-width=".5" d="M467.95703 311.69531H144.02734v168.625h323.9297v-168.625"/><g clip-path="url(#a)"><path fill="#fff" fill-opacity="0" fill-rule="evenodd" d="M144 475.89063v4.4375h.0039H144V311.67188h.0039H144v164.21875"/></g><g clip-path="url(#b)"><path fill="#fff" fill-opacity="0" fill-rule="evenodd" d="M144.0039 480.32813V311.67188h17.75v121.1289l-2.64452 3.14453-.91016 4.4375.125 4.4375-.34375 4.4414.08984 4.4375-.33984 4.4375-.08594 4.4375 4.10938 4.03517 2.30468.40625 2.13282 1.22656 1.40625-1.22656 3.03125-1.02344 4.4375-1.125 4.4414-2.04297.48438-.25 2.78515-4.4375-3.26953-2.33203-.84765-2.10547-3.59375-3.66406-.31641-.77344-2.99219-4.4414-1.1289-1.41798-4.01563-3.01953-.42187-.22656-2.1797-4.21094-2.2578-3.14453v-121.1289h190.84765v148.0039l-4.4375 2.1914-4.4375-.67187-3.75 1.3789 3.75 1.44142 4.4375-.71094 4.4375 1.41015 4.4414-1.77343.57813-.3672-.57812-.78905-4.4414-2.10938v-148.0039h35.5078v142.23437l-4.4375 3.9961-4.4375-3.64063-2.45703 3.875 2.45704 2.42187 1.18359 2.01563 3.2539 3.08203 2.1836 1.35938-2.1836 2.07421-1.78125 2.36329 1.78125 2.21484 2.13672-2.21485 2.30079-2.41015 3.42578-2.02735-.61329-4.4414-.3203-4.4375-2.4922-4.23047V311.67187h79.88672v168.65625H144.00391"/></g><path fill="#50fcfc" fill-rule="evenodd" d="M161.7539 466.60938l-4.10937-4.03516.08594-4.4375.33984-4.4375-.08984-4.4375.34375-4.4414-.125-4.4375.91016-4.4375 2.64453-3.14454v4.55469l-1.48438 3.02734-.3125 4.4375-.71484 4.4414.5625 4.4375.09375 4.4375 1.63281 4.4375.22266.21876 4.4375.71484 1.98047-.9336 2.45703-.84765 4.4375-1.26953 1.98047-2.32031-1.87891-4.4375-.10156-.10156-1.77344-4.33594-2.66406-3.03516-1.8086-1.40625-2.6289-2.48047-2.55078-1.95703-1.88672-3.02734v-4.55469l2.2578 3.14453 2.1797 4.21094.42187.22656 4.01563 3.01953 1.1289 1.41797 2.99219 4.4414.3164.77345 3.59376 3.66406.84765 2.10547 3.26953 2.33203-2.78515 4.4375-.48438.25-4.4414 2.04297-4.4375 1.125-3.03125 1.02344-1.40625 1.22656-2.13282-1.22656-2.30468-.40625"/><path fill="#00e8fc" fill-rule="evenodd" d="M159.80469 453.69922l-.5625-4.4375.71484-4.4414.3125-4.4375 1.48438-3.02735 1.88672 3.02734 2.55078 1.95703v3.71094l-4.4375 1.59375-.41016 1.61719.41016 1.65234 1.6875 2.78516 2.75 2.2539 4.4375-.9375.42578-1.3164-.19531-4.4375L170.6289 449l-4.4375-2.94922v-3.71094l2.6289 2.48047 1.8086 1.40625 2.66406 3.03516 1.77344 4.33594.10156.10156 1.8789 4.4375-1.98046 2.32031-4.4375 1.26953-2.45703.84766-1.98047.9336-4.4375-.71485-.22266-.21875-1.63281-4.4375-.09375-4.4375"/><path fill="#00d4fc" fill-rule="evenodd" d="M161.7539 450.91406l-.41015-1.65234.41016-1.61719 4.4375-1.59375L170.6289 449l.23047.26172.1953 4.4375-.42577 1.3164-4.4375.9375-2.75-2.2539-1.6875-2.78516"/><path fill="#50fcfc" fill-rule="evenodd" d="M343.72656 464.01563l-3.75-1.44141 3.75-1.3789 4.4375.67187 4.4375-2.1914 4.4414 2.10937.57813.78906-.57812.36719-4.4414 1.77343-4.4375-1.41015-4.4375.71094m35.5078-3.45704l-2.45703-2.42187 2.45704-3.875 4.4375 3.64062 4.4375-3.99609 2.49218 4.23047.32031 4.4375.61329 4.4414-3.42579 2.02735-2.30078 2.41015-2.13671 2.21485-1.78125-2.21485 1.78125-2.36328 2.18359-2.07421-2.1836-1.35938-3.2539-3.08203-1.1836-2.01563"/><g clip-path="url(#c)"><path fill="#fff" fill-opacity="0" fill-rule="evenodd" d="M467.9961 480.32813H468V311.67188h-.0039H468v168.65625h-.0039"/></g><g clip-path="url(#d)"><path fill="none" stroke="#000" stroke-linecap="round" stroke-linejoin="round" stroke-miterlimit="10" stroke-width=".5" d="M147.36719 479.32813l-6.73438 2"/></g><g clip-path="url(#e)"><path fill="none" stroke="#000" stroke-linecap="round" stroke-linejoin="round" stroke-miterlimit="10" stroke-width=".5" d="M147.36719 479.32813l1.72265 1.74609"/></g><g clip-path="url(#f)"><path fill="none" stroke="#000" stroke-linecap="round" stroke-linejoin="round" stroke-miterlimit="10" stroke-width=".5" d="M146.38672 479.61719l1.72266 1.75"/></g><g clip-path="url(#g)"><path fill="none" stroke="#000" stroke-linecap="round" stroke-linejoin="round" stroke-miterlimit="10" stroke-width=".5" d="M160.69531 479.3711l-6.76172 1.91406"/></g><g clip-path="url(#h)"><path fill="none" stroke="#000" stroke-linecap="round" stroke-linejoin="round" stroke-miterlimit="10" stroke-width=".5" d="M160.69531 479.3711l1.69922 1.77343"/></g><g clip-path="url(#i)"><path fill="none" stroke="#000" stroke-linecap="round" stroke-linejoin="round" stroke-miterlimit="10" stroke-width=".5" d="M159.71094 479.65234l1.69922 1.76953"/></g><g clip-path="url(#j)"><path fill="none" stroke="#000" stroke-linecap="round" stroke-linejoin="round" stroke-miterlimit="10" stroke-width=".5" d="M173.98047 479.26953l-6.69922 2.11719"/></g><g clip-path="url(#k)"><path fill="none" stroke="#000" stroke-linecap="round" stroke-linejoin="round" stroke-miterlimit="10" stroke-width=".5" d="M173.98047 479.26953l1.75 1.71875"/></g><g clip-path="url(#l)"><path fill="none" stroke="#000" stroke-linecap="round" stroke-linejoin="round" stroke-miterlimit="10" stroke-width=".5" d="M173.0039 479.57813l1.75391 1.71875"/></g><g clip-path="url(#m)"><path fill="none" stroke="#000" stroke-linecap="round" stroke-linejoin="round" stroke-miterlimit="10" stroke-width=".5" d="M187.26953 479.1875l-6.64844 2.28125"/></g><g clip-path="url(#n)"><path fill="none" stroke="#000" stroke-linecap="round" stroke-linejoin="round" stroke-miterlimit="10" stroke-width=".5" d="M187.26953 479.1875l1.79297 1.67578"/></g><g clip-path="url(#o)"><path fill="none" stroke="#000" stroke-linecap="round" stroke-linejoin="round" stroke-miterlimit="10" stroke-width=".5" d="M186.30078 479.51953l1.79297 1.67578"/></g><g clip-path="url(#p)"><path fill="none" stroke="#000" stroke-linecap="round" stroke-linejoin="round" stroke-miterlimit="10" stroke-width=".5" d="M200.58594 479.19531l-6.65235 2.26953"/></g><g clip-path="url(#q)"><path fill="none" stroke="#000" stroke-linecap="round" stroke-linejoin="round" stroke-miterlimit="10" stroke-width=".5" d="M200.58594 479.19531l1.78906 1.67578"/></g><g clip-path="url(#r)"><path fill="none" stroke="#000" stroke-linecap="round" stroke-linejoin="round" stroke-miterlimit="10" stroke-width=".5" d="M199.61719 479.52344l.89453.83984"/></g><g clip-path="url(#s)"><path fill="none" stroke="#000" stroke-linecap="round" stroke-linejoin="round" stroke-miterlimit="10" stroke-width=".5" d="M213.91016 479.21875l-6.66797 2.22266"/></g><g clip-path="url(#t)"><path fill="none" stroke="#000" stroke-linecap="round" stroke-linejoin="round" stroke-miterlimit="10" stroke-width=".5" d="M213.91016 479.21875l1.77734 1.6914"/></g><g clip-path="url(#u)"><path fill="none" stroke="#000" stroke-linecap="round" stroke-linejoin="round" stroke-miterlimit="10" stroke-width=".5" d="M212.9375 479.53906l.89063.84766"/></g><g clip-path="url(#v)"><path fill="none" stroke="#000" stroke-linecap="round" stroke-linejoin="round" stroke-miterlimit="10" stroke-width=".5" d="M227.19922 479.15234l-6.61719 2.35547"/></g><g clip-path="url(#w)"><path fill="none" stroke="#000" stroke-linecap="round" stroke-linejoin="round" stroke-miterlimit="10" stroke-width=".5" d="M227.19922 479.15234l1.8125 1.65235"/></g><g clip-path="url(#x)"><path fill="none" stroke="#000" stroke-linecap="round" stroke-linejoin="round" stroke-miterlimit="10" stroke-width=".5" d="M226.23828 479.49219l.90625.82812"/></g><g clip-path="url(#y)"><path fill="none" stroke="#000" stroke-linecap="round" stroke-linejoin="round" stroke-miterlimit="10" stroke-width=".5" d="M240.52734 479.1836l-6.64453 2.28906"/></g><g clip-path="url(#z)"><path fill="none" stroke="#000" stroke-linecap="round" stroke-linejoin="round" stroke-miterlimit="10" stroke-width=".5" d="M240.52734 479.1836l1.79297 1.67187"/></g><g clip-path="url(#A)"><path fill="none" stroke="#000" stroke-linecap="round" stroke-linejoin="round" stroke-miterlimit="10" stroke-width=".5" d="M239.5625 479.51563l.89453.83984"/></g><g clip-path="url(#B)"><path fill="none" stroke="#000" stroke-linecap="round" stroke-linejoin="round" stroke-miterlimit="10" stroke-width=".5" d="M253.73047 478.90234l-6.42188 2.85157"/></g><g clip-path="url(#C)"><path fill="none" stroke="#000" stroke-linecap="round" stroke-linejoin="round" stroke-miterlimit="10" stroke-width=".5" d="M253.73047 478.90234l1.9336 1.51172"/></g><g clip-path="url(#D)"><path fill="none" stroke="#000" stroke-linecap="round" stroke-linejoin="round" stroke-miterlimit="10" stroke-width=".5" d="M266.75 478.36719l-5.82813 3.92187"/></g><path fill="none" stroke="#000" stroke-linecap="round" stroke-linejoin="round" stroke-miterlimit="10" stroke-width=".5" d="M266.75 478.36719l2.16406 1.15625"/><g clip-path="url(#E)"><path fill="none" stroke="#000" stroke-linecap="round" stroke-linejoin="round" stroke-miterlimit="10" stroke-width=".5" d="M279.8164 478.03906l-5.33202 4.57813"/></g><path fill="none" stroke="#000" stroke-linecap="round" stroke-linejoin="round" stroke-miterlimit="10" stroke-width=".5" d="M279.8164 478.03906l2.28516.89453"/><g clip-path="url(#F)"><path fill="none" stroke="#000" stroke-linecap="round" stroke-linejoin="round" stroke-miterlimit="10" stroke-width=".5" d="M293.23828 478.17188l-5.54297 4.3164"/></g><path fill="none" stroke="#000" stroke-linecap="round" stroke-linejoin="round" stroke-miterlimit="10" stroke-width=".5" d="M292.42969 478.79688l1.1211.5039"/><g clip-path="url(#G)"><path fill="none" stroke="#000" stroke-linecap="round" stroke-linejoin="round" stroke-miterlimit="10" stroke-width=".5" d="M305.88281 477.51563l-4.20703 5.6289"/></g><path fill="none" stroke="#000" stroke-linecap="round" stroke-linejoin="round" stroke-miterlimit="10" stroke-width=".5" d="M305.27344 478.33203l1.21094.1875"/><g clip-path="url(#H)"><path fill="none" stroke="#000" stroke-linecap="round" stroke-linejoin="round" stroke-miterlimit="10" stroke-width=".5" d="M318.36328 477.05078l-2.53515 6.55469"/></g><path fill="none" stroke="#000" stroke-linecap="round" stroke-linejoin="round" stroke-miterlimit="10" stroke-width=".5" d="M317.9961 478.0039l1.21874-.14452"/><g clip-path="url(#I)"><path fill="none" stroke="#000" stroke-linecap="round" stroke-linejoin="round" stroke-miterlimit="10" stroke-width=".5" d="M331.16406 476.89844l-1.50781 6.86328"/></g><path fill="none" stroke="#000" stroke-linecap="round" stroke-linejoin="round" stroke-miterlimit="10" stroke-width=".5" d="M330.94531 477.89453l1.1836-.32812"/><g clip-path="url(#J)"><path fill="none" stroke="#000" stroke-linecap="round" stroke-linejoin="round" stroke-miterlimit="10" stroke-width=".5" d="M344.33984 476.8711l-1.22656 6.91796"/></g><path fill="none" stroke="#000" stroke-linecap="round" stroke-linejoin="round" stroke-miterlimit="10" stroke-width=".5" d="M344.16016 477.875l1.16796-.375"/><g clip-path="url(#K)"><path fill="none" stroke="#000" stroke-linecap="round" stroke-linejoin="round" stroke-miterlimit="10" stroke-width=".5" d="M356.29297 476.89453l1.4961 6.86719"/></g><path fill="none" stroke="#000" stroke-linecap="round" stroke-linejoin="round" stroke-miterlimit="10" stroke-width=".5" d="M356.51172 477.89453l.9336-.79297"/><g clip-path="url(#L)"><path fill="none" stroke="#000" stroke-linecap="round" stroke-linejoin="round" stroke-miterlimit="10" stroke-width=".5" d="M370.6875 476.83203l-.66016 6.9961"/></g><path fill="none" stroke="#000" stroke-linecap="round" stroke-linejoin="round" stroke-miterlimit="10" stroke-width=".5" d="M370.58984 477.84766l1.13282-.46875"/><g clip-path="url(#M)"><path fill="none" stroke="#000" stroke-linecap="round" stroke-linejoin="round" stroke-miterlimit="10" stroke-width=".5" d="M383.28906 476.83594l.76172 6.98437"/></g><g clip-path="url(#N)"><path fill="none" stroke="#000" stroke-linecap="round" stroke-linejoin="round" stroke-miterlimit="10" stroke-width=".5" d="M393.60547 479.36719l6.76172 1.92187"/></g><path fill="none" stroke="#000" stroke-linecap="round" stroke-linejoin="round" stroke-miterlimit="10" stroke-width=".5" d="M394.58984 479.64844l-.2578-1.19922"/><g clip-path="url(#O)"><path fill="none" stroke="#000" stroke-linecap="round" stroke-linejoin="round" stroke-miterlimit="10" stroke-width=".5" d="M408.46875 483.32813l3.66406-5.9961"/></g><g clip-path="url(#P)"><path fill="none" stroke="#000" stroke-linecap="round" stroke-linejoin="round" stroke-miterlimit="10" stroke-width=".5" d="M426.82422 478.89453l-6.41406 2.86719"/></g><g clip-path="url(#Q)"><path fill="none" stroke="#000" stroke-linecap="round" stroke-linejoin="round" stroke-miterlimit="10" stroke-width=".5" d="M425.89063 479.3125l.96875.7539"/></g><g clip-path="url(#R)"><path fill="none" stroke="#000" stroke-linecap="round" stroke-linejoin="round" stroke-miterlimit="10" stroke-width=".5" d="M440.17969 478.98828l-6.4961 2.6836"/></g><g clip-path="url(#S)"><path fill="none" stroke="#000" stroke-linecap="round" stroke-linejoin="round" stroke-miterlimit="10" stroke-width=".5" d="M439.23438 479.3789l.9453.78126"/></g><g clip-path="url(#T)"><path fill="none" stroke="#000" stroke-linecap="round" stroke-linejoin="round" stroke-miterlimit="10" stroke-width=".5" d="M452.38281 477.53906l-4.26953 5.58203"/></g><path fill="none" stroke="#000" stroke-linecap="round" stroke-linejoin="round" stroke-miterlimit="10" stroke-width=".5" d="M451.76172 478.35156l1.20703.19922"/><g clip-path="url(#U)"><path fill="none" stroke="#000" stroke-linecap="round" stroke-linejoin="round" stroke-miterlimit="10" stroke-width=".5" d="M466.73438 478.82031l-6.34375 3.01953"/></g><g clip-path="url(#V)"><path fill="none" stroke="#000" stroke-linecap="round" stroke-linejoin="round" stroke-miterlimit="10" stroke-width=".5" d="M465.8125 479.25781l.98438.73047"/></g><g clip-path="url(#W)"><path fill="none" stroke="#000" stroke-linecap="round" stroke-linejoin="round" stroke-miterlimit="10" stroke-width=".5" d="M147.3711 466.02734L140.6289 468"/></g><path fill="none" stroke="#000" stroke-linecap="round" stroke-linejoin="round" stroke-miterlimit="10" stroke-width=".5" d="M147.3711 466.02734l1.71484 1.75391m-2.69531-1.46875l1.71484 1.75781m12.57812-2.0586l-6.73828 2.00391m6.73828-2.0039l1.72266 1.75m-2.70313-1.45703l1.72266 1.75m12.55469-2.09766l-6.69922 2.11328m6.69922-2.11328l1.75 1.71875m-2.72266-1.41016l1.75 1.71875m12.54297-2.01171l-6.71094 2.08203m6.71094-2.08203l1.74219 1.73046m-2.71875-1.42578l1.74219 1.72657m12.51172-2.14063l-6.63672 2.30078m6.63672-2.30078l1.80078 1.66797m-2.76563-1.33203l1.80078 1.66797m12.5586-1.7461l-6.79688 1.78516m6.79688-1.78516l1.66406 1.8047m-2.65234-1.54298l1.66406 1.80078m12.6289-2.11328l-6.77343 1.88672m6.77343-1.88672l1.6875 1.78125m-2.67578-1.5039l.84766.88671m13.29297-1.61718l-6.44922 2.79297m6.44922-2.79297l1.91797 1.53125m-2.85547-1.125l.95703.76562m13.13672-1.49219l-6.1289 3.4336m6.1289-3.4336l2.0625 1.32422m-2.95703-.82422l1.03515.66016m12.78516-1.72266l-5.35156 4.5586m5.35156-4.5586l2.28125.90235m-3.0625-.23828l1.14062.45312m12.70703-1.3789l-4.85546 5.08203m4.85547-5.08203l2.35937.66406m11.02344-.59766l-4.98828 4.94922m4.98828-4.94922l2.34375.72656m10.96875-.72656l-4.98828 4.94922m4.98828-4.94922l2.34375.72656m10-1.41796l-3.04297 6.33203m3.04297-6.33203l2.44922-.10157m9.83203-.21093l-.97656 6.95703m.83593-5.94532l1.15235-.42187m11.03125-.53516l1.5703 6.84766m-1.34374-5.85156l.92969-.80469m12.28515-.21875l1.3164 6.90234m-1.125-5.89843l.95704-.76954m11.73047-.12109l2.1875 6.67578m-1.86719-5.70703l.84766-.88281m12.1875-.10156l2.10547 6.70703m-1.79688-5.73047l.85938-.875m10.72265.76172l4.95703 4.98047m-4.23437-4.25782l.36328-1.17187m15.07813-.55469l-.7422 6.98828m.63673-5.97265l1.13672-.45704m14.60546.6797l-5.38671 4.51171m5.38671-4.51172l2.27344.91797m11-.96484l-5.30469 4.60547m5.3047-4.60547l2.29296.8789m10.34766-1.48047l-3.95313 5.8086m3.3789-4.96485l1.21876.13282m14.19531 2.23047l-7-.60547m5.98047.51562l.48047 1.1289"/><g clip-path="url(#X)"><path fill="none" stroke="#000" stroke-linecap="round" stroke-linejoin="round" stroke-miterlimit="10" stroke-width=".5" d="M147.39063 452.77344l-6.78125 1.85156"/></g><path fill="none" stroke="#000" stroke-linecap="round" stroke-linejoin="round" stroke-miterlimit="10" stroke-width=".5" d="M147.39063 452.77344l1.67968 1.78515m-2.66797-1.51562l1.6836 1.78515m12.60547-2.09765l-6.75391 1.9336m6.7539-1.9336l1.70704 1.76562m-2.6875-1.48437l1.70312 1.76562m12.66406-1.7578l-6.89453 1.35546m6.89453-1.35547l1.54688 1.90625m-2.55078-1.70703l1.54687 1.90234m12.81641-1.82422l-6.98438.8047m6.98438-.8047l1.39063 2.01954m-2.40625-1.90235l1.39062 2.01953m12.92188-2.26953l-6.94532 1.07032m6.94531-1.07032l1.46485 1.96485m-2.47656-1.8086l.73437.98438m13.5625-1.30078l-6.88672 1.39062m6.88672-1.39062l1.5586 1.89453m-2.5625-1.6914l1.55859 1.89452m12.625-2.58593l-6.61719 2.36718m6.61719-2.36718l1.8125 1.64843m-2.77734-1.30468l1.8164 1.65234m12.21875-2.53125l-6.1289 3.4375m6.1289-3.4375l2.0664 1.32812m-2.95702-.82812l2.0625 1.32812m12.2578-1.60937l-6.35546 3m6.35547-3l1.96484 1.46875m-2.89062-1.03125l1.96484 1.46484m12.27734-1.89843l-6.35937 2.98828m6.35938-2.98828l1.96484 1.47265m-2.89063-1.03515l.98047.73437m13.11328-1.44922l-6.0664 3.54688m6.0664-3.54688l2.08985 1.28906m-2.97266-.77343l1.04297.64453m12.84375-1.60938l-5.44531 4.4414m5.44531-4.4414l2.26172.95313m11.69922.26953l-6.73438 2m6.73438-2l1.72265 1.7461m11.33203-2.38673l-6.21484 3.28125m6.21484-3.28125l2.03125 1.37891m10.6172-2.26953l-4.87891 5.0586m4.8789-5.0586l2.35938.67578m10.89453-.73047l-4.75781 5.17188m4.7578-5.17188l2.375.6211m10.2422-1.1211l-3.36329 6.17188m3.36329-6.17188l2.45312.02344m10.33203-.25781l-2.30469 6.64062m2.3047-6.64062L373.93358 450m11.1797.4961l-2.88282 6.40624m2.88281-6.40625l2.44922-.16406m9.28516-.14453l.27734 7.02344m-.23438-6l1.0586-.6211M413.8164 453.75l-7.02735-.10156m6.0039.08594l.5586 1.08984m13.6875-1.91797l-6.84375 1.58594m5.84766-1.35547l.80469.92578m13.35156-1.65625l-6.53516 2.58594m6.53516-2.58594l1.86719 1.58984m9.55859-3.52734l-2.75781 6.46094m2.75781-6.46094l2.44531-.21094m11.92188.90235l-4.85938 5.07422"/><g clip-path="url(#Y)"><path fill="none" stroke="#000" stroke-linecap="round" stroke-linejoin="round" stroke-miterlimit="10" stroke-width=".5" d="M465.99219 451.16016l2.36328.66797"/></g><g clip-path="url(#Z)"><path fill="none" stroke="#000" stroke-linecap="round" stroke-linejoin="round" stroke-miterlimit="10" stroke-width=".5" d="M147.48438 439.92578l-6.96875.91797"/></g><path fill="none" stroke="#000" stroke-linecap="round" stroke-linejoin="round" stroke-miterlimit="10" stroke-width=".5" d="M147.48438 439.92578l1.42578 1.9961m-2.44141-1.86329l1.42578 1.9961m12.8789-2.29688l-6.91405 1.2539m6.91406-1.2539l1.51953 1.92578m-2.52734-1.74609l1.51953 1.92969m12.83984-1.83985l-6.99219.71094m6.99219-.71094l1.36719 2.03907m-2.38281-1.9336l1.36328 2.03906m12.9375-2.3789l-6.9297 1.17969m6.9297-1.1797l1.49609 1.94532m-2.5039-1.77344l1.49609 1.94532m12.82422-2.13282l-6.92188 1.21094m6.92188-1.21094l1.5078 1.9336m-2.51562-1.75782l1.50782 1.9375m-2.51563-1.76171l.7539.96875m14.57813-1.29688l-6.92969 1.16406m6.9297-1.16406l1.49609 1.94531m-2.50391-1.77343l1.4961 1.9453m-2.50391-1.77734l.7461.97266m14.48827-1.73047l-6.73437 2m6.73437-2l1.72266 1.75m-2.70313-1.45703l1.72266 1.75m-2.70313-1.46094l.86329.875m14.28906-1.80468l-6.48828 2.6953m6.48828-2.6953l1.89453 1.55859m-2.83594-1.16406l.94531.77734m13.23829-1.33594l-6.33985 3.02735m6.33985-3.02735l1.97265 1.45703m-2.89453-1.01953l.98438.73047m13.32812-1l-6.49219 2.6914m6.4922-2.6914l1.89452 1.5586m-2.83984-1.16797l.94531.78125M280 438.32812l-5.69922 4.11329M280 438.32812l2.20313 1.08204m11.04296-1.17579l-5.55859 4.30079m5.5586-4.30079l2.23437 1.00782m11.07422-1.01563l-5.54688 4.3164m5.54688-4.3164l2.23828 1m11.32031-.64062l-6.03515 3.59375m6.03515-3.59375l2.10156 1.27343m11.19141-1.3125l-5.99219 3.67188m5.99219-3.67188l2.11328 1.2461m11.2461-1.17188l-6.07813 3.52344m6.07813-3.52344l2.08203 1.29688m9.9453-2.58203l-3.5039 6.09375m3.5039-6.09375l2.45313.08203m12.01954.9961l-5.82032 3.9375m5.82032-3.9375l2.16796 1.14843m11.51563-.44922l-6.55469 2.53906m5.60156-2.16797l.92579.80079m11.8828-2.90625l-3.63671 6.01171m15.60937.47266l-.95312-6.96094m.8164 5.94922l-.99609.71875m17.4375-2.60547l-6.92969-1.16406m6.9297 1.16406l.77734 2.32813m12.11718-4.66406l-6.08984 3.5078m6.08984-3.5078l2.07813 1.30468m-2.96485-.79297l1.03907.65235m11.89453-2.4414l-3.55078 6.0625m3.55078-6.0625l2.44922.10155m10.42968-.3164l-2.68359 6.49219m2.6836-6.4922l2.4414-.23827"/><g clip-path="url(#aa)"><path fill="none" stroke="#000" stroke-linecap="round" stroke-linejoin="round" stroke-miterlimit="10" stroke-width=".5" d="M147.5 426.76172l-7 .61328"/></g><path fill="none" stroke="#000" stroke-linecap="round" stroke-linejoin="round" stroke-miterlimit="10" stroke-width=".5" d="M147.5 426.76172l1.33594 2.0586m-2.35547-1.96876l1.33594 2.0586m13.01172-1.72266l-7.02344-.23828m7.02344.23828l1.07421 2.20703m-2.09765-2.24219l.53906 1.10547m13.75781-.63672l-6.9414-1.10547m6.9414 1.10547l.79297 2.32422m-1.80469-2.48437l.39844 1.16015m13.95703-1.24218l-7-.6211m7 .6211l.95703 2.26171m-1.97656-2.35156l.95703 2.25781m13.35938-2.9375l-6.96485.91797m6.96485-.91797l1.42578 2m-2.4375-1.86718l1.42578 2m12.78516-2.6875l-6.73047 2.02734m6.73047-2.02734l1.72656 1.74218m-2.70703-1.4453l1.72656 1.74218m-2.70703-1.44922l.86328.8711m14.54688-.75782l-7 .6211m7-.6211l1.33984 2.05469m-2.35938-1.96484l1.33985 2.05859m12.90625-2.67188l-6.82422 1.66797m6.82422-1.66797l1.63672 1.83204m-2.62891-1.58985l.8164.91406m13.20704-1.92187l-6.2539 3.19922m6.2539-3.19922l2.01172 1.40234m-2.92188-.9375l2.01172 1.40235m12.16016-1.96485l-6.14844 3.39453m6.14844-3.39453l2.05859 1.33985m-2.95313-.84766l1.02735.67188m13.32422-.88282l-6.4336 2.83203m6.4336-2.83203l1.92578 1.51563m-2.86328-1.10547l.96484.76172m13.1875-1.3789l-6.23437 3.24609m6.23437-3.2461l2.02344 1.39063m-2.92969-.91797l1.01172.69531m12.50781-2.09766l-4.82812 5.10547m4.82812-5.10547l2.36719.65235m-3.07031.08984l1.1836.32813m12.77733-1.1211l-4.71484 5.20703m4.71484-5.20703l2.37891.59766m11.35938-.14453l-5.5586 4.30078m5.5586-4.30078l2.23437 1.00781m11.23047-.79687l-5.85938 3.8789m5.85938-3.8789l2.15625 1.16796m-3.01172-.60546l1.08203.58593m12.35938-1.9453l-4.40235 5.47655m4.40235-5.47656l2.41015.45703m10.52735-.72656l-3.64453 6.01172m3.11328-5.13672l1.22265.07031m12.75391-.85937l-3.90625 5.83984m3.90625-5.83984l2.4414.2461m-3.01171.60155l2.4414.2461m10.57813-1.51563l-2.17578 6.6836m1.85937-5.71094l1.20703-.21094m13.8086.08203l-4.9414 4.9961m4.9414-4.9961l2.34765.70313m-3.0664.02343l1.17187.35157m13.05078-.875l-5.32422 4.58984m5.32422-4.58984l2.28907.89062m-3.0625-.22265l2.28515.89062m-3.0586-.22266l1.14063.44532m13.09766-2.34766l-4.07422 5.72266m4.07422-5.72266l2.4336.3164m-3.02735.51563l1.21875.16016m11.28125-1.58594l-1.25781 6.91016m1.25781-6.91016l2.33594-.7461m11.65625.9375l-2.60938 6.52735m2.60938-6.52734l2.4375-.26172"/><g clip-path="url(#ab)"><path fill="none" stroke="#000" stroke-linecap="round" stroke-linejoin="round" stroke-miterlimit="10" stroke-width=".5" d="M147.5039 413.51172l-7.0078.48437"/></g><path fill="none" stroke="#000" stroke-linecap="round" stroke-linejoin="round" stroke-miterlimit="10" stroke-width=".5" d="M147.5039 413.51172l1.30079 2.08203m-2.32031-2.01172l.64843 1.03906m13.69531-.85546l-7.02734-.02344m7.02734.02344l1.14454 2.16796m-2.16797-2.17187l.57422 1.08594m13.74609-1.44141l-6.99219.69531m6.99219-.69531l1.36328 2.04297m-2.3789-1.9414l1.35937 2.04296m12.58203-3.4414l-6.21094 3.28515m6.21094-3.28516l2.03125 1.37891m-2.9336-.89844l2.03126 1.375m12.375-1.42968l-6.58985 2.43359m6.58985-2.4336l1.83203 1.63282m-2.78906-1.27735l.91406.81641m13.44922-.89844l-6.76953 1.89063m6.76953-1.89063l1.6914 1.77735m11.66016-1.6289l-6.84375 1.59374m6.84375-1.59375l1.61328 1.84766m11.42578-2.61328l-6.29297 3.12109m6.29297-3.1211l1.9961 1.4297m-2.91016-.97266l.9961.71484m13.5-.4414l-6.82813 1.66406m6.82812-1.66407l1.63282 1.83204m-2.625-1.58985l.8164.91797m13.1875-1.96484l-6.21875 3.27343m6.21875-3.27343l2.02735 1.3789m-2.9336-.90234l1.01563.6875m13.15625-1.25781l-6.11719 3.45703m6.11719-3.45703l2.0664 1.32031m-2.95703-.8164l1.03516.66015m13.11719-1.2539l-6.01172 3.63671m6.01172-3.63672l2.10547 1.25782m10.51953-2.08204l-4.63282 5.28516m4.63282-5.28515l2.38672.5625m11.5078.09375l-5.79296 3.97656m5.79297-3.97656l2.17578 1.1328m10.91016-1.42968l-5.33594 4.57031m5.33594-4.57031l2.28515.89453m11.52344-.14453l-6.32031 3.07031m5.40234-2.625l.98828.72656m12.15625-2.47656l-4.14453 5.67578m4.14453-5.67578l2.42969.34766m9.3711-.97656l-1.1172 6.9375m1.1172-6.9375l2.32421-.79297m12.80469 1.66797l-4.74219 5.1875m4.74219-5.1875l2.375.60937m10.98437-.5664l-4.83203 5.10156m4.83203-5.10157l2.36329.65235m-3.06641.08984l2.36328.65235m11.76563-1.28516l-5.0547 4.8789m5.0547-4.8789l2.33593.76172m-3.07031-.05078l2.33203.75781m11.26172-1.86328l-4.14453 5.67187m4.14453-5.67187l2.42969.34765m-3.03125.47657l1.21484.17187m12.61719-1.0586l-3.97266 5.79688m3.97266-5.79687l2.4414.27734m10.21094-.63281l-2.64843 6.50781M451.5703 410.5l2.4414-.2539m11.00782.30859l-2.91406 6.39453m2.91406-6.39453l2.44922-.14844m-2.875 1.07812l1.22656-.07421"/><g clip-path="url(#ac)"><path fill="none" stroke="#000" stroke-linecap="round" stroke-linejoin="round" stroke-miterlimit="10" stroke-width=".5" d="M147.4414 401.15234l-6.8828-1.42968"/></g><path fill="none" stroke="#000" stroke-linecap="round" stroke-linejoin="round" stroke-miterlimit="10" stroke-width=".5" d="M147.4414 401.15234l.6836 2.35547m12.69531-3.3125l-7.01172.48438m7.01172-.48438l1.29688 2.08594m11.45312-3.76172l-5.88281 3.83985m5.88281-3.83985l2.15235 1.1836m11.29687-.96485l-6.14844 3.39844m6.14844-3.39844l2.0586 1.33985m-2.95313-.84375l1.02734.66796m13.3125-.90625l-6.41015 2.88282m6.41015-2.88282l1.9375 1.50391m-2.87109-1.08203l.96875.75m13.36328-.96875l-6.57422 2.47656m6.57422-2.47656l1.83984 1.6211m-2.79687-1.26173l1.84375 1.625m12.48047-1.83984l-6.67969 2.1914m6.67969-2.1914L229 401.04297m-2.74219-1.38281l1.76953 1.69921m12.60157-1.71093l-6.84766 1.57812m6.84766-1.57812l1.60937 1.85156m-2.60547-1.6211l.80469.92579m13.51953-1.09375l-6.875 1.45703m6.875-1.45703l1.57813 1.8789m-2.57813-1.66796l.78906.9414m13.53907-1.08594l-6.89844 1.32422m6.89844-1.32422l1.53906 1.91016m-2.54297-1.71875l.76953.95703m13.4336-1.60156l-6.66797 2.22656m6.66797-2.22656l1.77734 1.6914m-2.75-1.36718l.89062.84375m13.5625-.375l-6.99609.64062m6.9961-.64062l1.34374 2.05469m-2.36328-1.96094l.67188 1.02734m13.66015-1.16406l-6.99218.72656m6.99218-.72656l1.3672 2.03515m-2.38673-1.92968l.6875 1.01953m13.63281-1.21485l-6.96484.91016m6.96484-.91015l1.42579 1.99609m11.78515-2.5039l-6.75781 1.92577m6.75781-1.92578l1.70313 1.76563m10.86718-3.1289l-5.26562 4.65233m5.26562-4.65234l2.29688.85938m11.52734-.10547l-6.28515 3.14062m5.3711-2.6836l1 .71095m12.8828-1.72266l-5.59375 4.2539m5.59375-4.2539l2.23047 1.02734m10.94531-1.19921l-5.3164 4.59375m5.3164-4.59375l2.28907.88671m-3.0625-.21875l1.14453.44141m12.91015-1.14844l-5.25 4.67188m5.25-4.67188l2.30079.85547m-3.0625-.17578l1.14843.42578m13.35547-.51172L407.25 402.1797m6.10156-3.48438l2.07422 1.3086m10.6914-2.03516l-5 4.9375m5-4.9375l2.33985.73047m-3.0664-.01172l1.16796.36719m12.64453-1.29688l-4.54296 5.35938m4.54296-5.35938l2.39844.52344m-3.0586.25781l1.19923.26172m12.84375-.98437l-4.67969 5.24218m4.67969-5.24218l2.38281.58203m10.44922-.9414l-3.71485 5.96483"/><g clip-path="url(#ad)"><path fill="none" stroke="#000" stroke-linecap="round" stroke-linejoin="round" stroke-miterlimit="10" stroke-width=".5" d="M465.41797 397.45703l2.44922.16406"/></g><path fill="none" stroke="#000" stroke-linecap="round" stroke-linejoin="round" stroke-miterlimit="10" stroke-width=".5" d="M464.8789 398.32422l1.22266.08203"/><g clip-path="url(#ae)"><path fill="none" stroke="#000" stroke-linecap="round" stroke-linejoin="round" stroke-miterlimit="10" stroke-width=".5" d="M147.48438 387.57813l-6.96875-.91016"/></g><path fill="none" stroke="#000" stroke-linecap="round" stroke-linejoin="round" stroke-miterlimit="10" stroke-width=".5" d="M147.48438 387.57813l.86328 2.29687m12.37109-3.6289L153.91406 388m6.80469-1.7539l1.65625 1.8125m11.30078-2.69141l-6.08984 3.51172m6.08984-3.51172l2.07813 1.30469m-2.96485-.79297l2.07813 1.30078m10.98828-3.0039l-3.82031 5.89452m3.8203-5.89453l2.44532.21094m-3 .64453l1.22266.10547m14.11719 1.02734l-6.76172 1.91797m6.76172-1.91797l1.69921 1.76953m11.63282-1.70312l-6.79688 1.78515m6.79688-1.78515l1.66406 1.80078m-2.65234-1.54297l.83203.90235m13.33593-1.57422l-6.52343 2.61718m6.52343-2.61718l1.875 1.57812m11.52344-1.33984l-6.6914 2.13672m6.6914-2.13672l1.75781 1.71094m-2.73047-1.40235l1.75782 1.71485m12.48437-2.16797l-6.59765 2.42578m6.59765-2.42578l1.82813 1.63671m-2.78906-1.28125l1.82812 1.63282m12.4414-2l-6.58593 2.44922m6.58594-2.44922l1.83593 1.6289m-2.79296-1.27343l1.83203 1.6328m12.5-1.8125l-6.70703 2.09767m6.70703-2.09766l1.74609 1.72265m-2.72266-1.41796l1.7461 1.72265m12.44531-2.30469l-6.50781 2.65235m6.50781-2.65235l1.88672 1.57422m-2.83203-1.1875l1.88281 1.57422m12.53125-1.4961l-6.8125 1.72657m6.8125-1.72656l1.64844 1.8164m-2.64063-1.5664l.82422.90625m13.57813-.58985l-7.00391.58985m7.0039-.58985l1.32813 2.0625m-2.34766-1.97656l.66407 1.03125M333.73829 386l-6.65626 2.2461M333.73828 386l1.78516 1.6836m-2.7539-1.35938l.89452.84375m13.45703-.95313l-6.78906 1.81641m6.78906-1.8164l1.67188 1.79687m11.70312-1.51953l-6.91015 1.26172m6.91015-1.26172l1.52344 1.92187m-2.52734-1.73828l.76172.96094m13.48046-1.47656l-6.7578 1.92578m6.7578-1.92578l1.70313 1.76953m-2.6836-1.48828l.84766.8828m13.36328-1.42187l-6.58593 2.44141m6.58593-2.4414l1.83594 1.6289m-2.79297-1.27344l.91406.8125m13.00391-1.875l-5.8789 3.85547m5.8789-3.85547l2.14844 1.17969m-3.0039-.61719l1.07421.58985m12.92969-1.38282l-5.54688 4.31641m5.54688-4.3164l2.23828 1.0039m-3.04297-.375l1.11719.5m13.33203-.6211l-6.20313 3.30079m6.20313-3.30078l2.03516 1.37109m-2.9375-.89063l1.01562.6875m12.03125-2.45312L435 390.0586m3.86328-5.8711l2.4414.23047m-3.0039.625l1.22266.11328m14.07812.91797l-6.70703 2.09765m6.70703-2.09765l1.7461 1.72656m10.8164-3.03906l-5.20703 4.72265"/><g clip-path="url(#af)"><path fill="none" stroke="#000" stroke-linecap="round" stroke-linejoin="round" stroke-miterlimit="10" stroke-width=".5" d="M466.16406 384.76172l2.3086.83203"/></g><g clip-path="url(#ag)"><path fill="none" stroke="#000" stroke-linecap="round" stroke-linejoin="round" stroke-miterlimit="10" stroke-width=".5" d="M147.46094 374.40625l-6.92188-1.19531"/></g><path fill="none" stroke="#000" stroke-linecap="round" stroke-linejoin="round" stroke-miterlimit="10" stroke-width=".5" d="M147.46094 374.40625l.76562 2.33203m12.60156-2.89062l-7.02734-.07813m7.02734.07813l1.12891 2.17968m-2.15234-2.1914l.5664 1.08984m13.6836-1.89453l-6.85156 1.55469m6.85156-1.55469l1.60547 1.85547m11.72656-1.78125l-6.88281 1.40625m6.8828-1.40625l1.5625 1.89062m-2.5625-1.6875l.78126.94532m13.46094-1.44141l-6.73828 1.99219m6.73828-1.99219l1.71875 1.7539m-2.69922-1.46484l.85937.8789m13.57422-.41796l-7.01172.48828m7.01172-.48828l1.29688 2.08203m-2.32032-2.00781l.65235 1.03906m13.6914-.96484l-7.02343.19531m7.02343-.19531l1.21094 2.13281m-2.23437-2.10547l1.21093 2.13672m13.06641-2.72656l-6.90234 1.32031m6.90234-1.32031l1.53906 1.91015m-2.54297-1.71875l1.53907 1.91016m12.71875-2.36719l-6.78125 1.85156m6.78125-1.85156l1.67968 1.78906m-2.66406-1.51953l1.67969 1.78907m12.67969-1.8086l-6.89844 1.34766m6.89844-1.34766l1.54297 1.90625m-2.54688-1.70703l1.54688 1.90235m12.54687-2.82813l-6.44531 2.80078m6.44531-2.80078l1.91797 1.53125m-2.85938-1.1211l1.92188 1.52735m12.375-1.83203l-6.53125 2.59375m6.53125-2.59375l1.8711 1.58984m-2.82032-1.21094l1.8711 1.58594m12.26952-2.23828l-6.28515 3.14063m6.28515-3.14063l2 1.42188m-2.91406-.96485l2 1.42188m12.23438-1.875l-6.29297 3.13281m6.29297-3.13281l1.9961 1.42969m-2.91017-.97266l1.9961 1.42578m12.5586-.85547l-6.94532 1.07813m6.94531-1.07813l1.47266 1.96094m-2.48438-1.80469l1.47266 1.96094m12.88281-1.89063l-7 .625m7-.625l1.33985 2.0547m-2.35938-1.96485l1.33984 2.05469m12.89063-2.72657l-6.79297 1.78906m6.79297-1.78906l1.66797 1.80469m-2.65625-1.54297l1.66797 1.80078m12.59765-2.19531l-6.71875 2.05469m6.71875-2.05469l1.73828 1.73438m-2.71484-1.4375l1.73438 1.73437m12.63671-1.72656l-6.875 1.4414m6.875-1.4414l1.57422 1.88672m-2.57422-1.67579l.78516.94141m13.57813-.8789l-6.97266.89843m6.97266-.89844l1.41796 2m-2.43359-1.87109l.71094 1.0039m13.46484-1.80468l-6.66015 2.24219m6.66015-2.24219l1.78125 1.6875m-2.75-1.35938l.89063.83985m13.53906-.55078l-6.95313 1.00781m6.95313-1.00781l1.44922 1.98047m11.44531-3.21094l-6.11328 3.46875m6.11328-3.46875l2.07031 1.3125m11.6875.11719l-7 .60937m7-.60937l1.33594 2.05859M466 371.27734l-4.875 5.0586"/><g clip-path="url(#ah)"><path fill="none" stroke="#000" stroke-linecap="round" stroke-linejoin="round" stroke-miterlimit="10" stroke-width=".5" d="M466 371.27734l2.35938.67579"/></g><g clip-path="url(#ai)"><path fill="none" stroke="#000" stroke-linecap="round" stroke-linejoin="round" stroke-miterlimit="10" stroke-width=".5" d="M147.25 361.82813l-6.5-2.67188"/></g><path fill="none" stroke="#000" stroke-linecap="round" stroke-linejoin="round" stroke-miterlimit="10" stroke-width=".5" d="M147.25 361.82813l.24219 2.4414m13.16015-2.67578l-6.67187-2.20313m6.67187 2.20313l.41407 2.42188m12.6914-5.1211L167.5 362.09375m6.25781-3.19922l2.01172 1.40235m11.65625-.26954l-6.96484.9336m6.96484-.9336l1.42969 1.9922m-2.4414-1.85938l.71484 1m13.625-.3125l-6.98828-.71094m6.98828.71094l.92968 2.27343m-1.9453-2.375l.92577 2.27344m13.42578-2.60547l-7.02734.15625m7.02734-.15625l1.19922 2.14063m-2.22265-2.11719l1.19922 2.14063m13.13671-2.04297l-7.02343-.08204m7.02343.08204l1.12891 2.17968m-2.14844-2.1914l1.125 2.17969m13.19922-1.9375l-7.0039-.54688m7.0039.54688l.98047 2.25m-2-2.32813l.98047 2.25m13.35937-2.63281l-7.01562.375m7.01562-.375l1.26953 2.10156m-2.28906-2.04688l1.26563 2.10157m12.92187-2.99219l-6.72265 2.04688m6.72265-2.04688l1.73438 1.73828m-2.71094-1.4414l1.73438 1.73828m12.68359-1.4336l-6.97266.84766m6.97266-.84766l1.40625 2.01172m-2.41797-1.89062l1.40234 2.01171m12.88672-2.375l-6.89843 1.33204m6.89843-1.33204l1.54297 1.90625m-2.54687-1.71484l1.54297 1.91016m12.78906-2.03516l-6.92188 1.19531m6.92188-1.1953l1.5039 1.9414m-2.51171-1.76563l1.5039 1.9375m12.82422-2.08203l-6.9336 1.13672m6.9336-1.13672l1.48828 1.94922m-2.4961-1.78516l1.48829 1.94922m12.71094-2.6211l-6.6875 2.15235m6.6875-2.15234l1.76172 1.70703m-2.73438-1.39453l1.76172 1.71094m12.67187-1.3672l-6.97656.83595m6.97656-.83594l1.40235 2.01562m-2.41797-1.89062l1.40234 2.01172m12.9414-1.98828l-7.0039.53906m7.0039-.53906l1.31642 2.07421m-2.33594-1.99609l1.3164 2.07422m-2.33593-1.9961l.66015 1.03907m14.58594-1.83203l-6.78906 1.8164m6.78906-1.8164l1.67188 1.79297m-2.66016-1.53125l1.67578 1.79687m-2.66406-1.53125l1.67578 1.79688m13.46875-2.75782l-6.4961 2.6797m6.4961-2.6797l1.89062 1.5625m-2.83593-1.17187l1.89453 1.5625m-2.83985-1.17188l1.89454 1.5625m13.30859-2.34765l-6.48828 2.6914m6.48828-2.6914l1.89453 1.5586m-2.83594-1.16798l1.89063 1.5586m12.44922-1.73047l-6.65625 2.2539m6.65625-2.2539l1.78515 1.67969m-2.7539-1.35157l.89453.83985m13.44922-.98047l-6.77344 1.875m6.77344-1.875l1.6875 1.78125m11.6328-1.75l-6.78515 1.8164m5.80078-1.55468l.83594.89843m13.50781-.98046l-6.875 1.45312m5.875-1.24219l.78907.9414m13.24218-1.97655l-6.30468 3.10156"/><g clip-path="url(#aj)"><path fill="none" stroke="#000" stroke-linecap="round" stroke-linejoin="round" stroke-miterlimit="10" stroke-width=".5" d="M466.71484 358.9414l1.98829 1.4375"/></g><g clip-path="url(#ak)"><path fill="none" stroke="#000" stroke-linecap="round" stroke-linejoin="round" stroke-miterlimit="10" stroke-width=".5" d="M146.98828 349.02344l-5.97656-3.6914"/></g><path fill="none" stroke="#000" stroke-linecap="round" stroke-linejoin="round" stroke-miterlimit="10" stroke-width=".5" d="M146.98828 349.02344l-.16016 2.44922m13.76954-3.04297l-6.56641-2.5039m6.5664 2.5039l.3047 2.4375m-1.26173-2.80078l.15235 1.21875m14.34375-1.91797l-7.01563-.3789m7.01563.3789l1.03516 2.22656m-2.0547-2.28125l.51563 1.11328m13.79297-.77344l-6.96094-.94921m6.96094.94921l.85156 2.30079m-1.86328-2.4375l.42578 1.14843M200.75781 347.5l-6.9961-.64453m6.9961.64453l.94922 2.26172m-1.96484-2.35547l.94922 2.26172m13.39453-2.66016l-7.01953.33985m7.01953-.33985l1.2539 2.10938m-2.27734-2.0586l1.25781 2.10547m13.03516-2.5625l-6.92969 1.15235m6.92969-1.15235l1.49219 1.94531m-2.5-1.77734l1.49218 1.94531m12.84375-2.04296l-6.95312 1.01171m6.95312-1.01171l1.44922 1.97656m-2.46094-1.82813l1.44922 1.97656m-2.46093-1.83203l.72656.9922m14.64453-.91407l-7.02344.26953m7.02344-.26953l1.23438 2.1211m-2.25391-2.08204l1.23047 2.1211m-2.2539-2.08204l.61718 1.0625m14.73047-.70312l-7-.60547m7 .60547l.96094 2.25781m-1.98047-2.34765l.96484 2.2578m13.3789-2.60546l-7.01952.26953m7.01953-.26953l1.23437 2.1211m-2.2539-2.08204l1.23437 2.1211m13.09375-2.3125l-7.0039.57421m7.0039-.57421l1.32422 2.0664m-2.34375-1.98047l1.32422 2.0625m13.01953-1.90625l-7.02735.08985m7.02735-.08985l1.17969 2.15235m-2.19922-2.13672l.58594 1.07422m13.73437-.71875l-6.9961-.65235m6.9961.65235l.94531 2.26562m-1.96094-2.35937l.94141 2.26562m-1.96094-2.35937l.47266 1.1289m14.86719-1.6914l-6.97656.84765m6.97656-.84765l1.40625 2.01171m-2.42188-1.88671l1.40625 2.01171M331.8672 347l.70312 1.00781m14.52344-1.83203l-6.73438 2.0039m6.73438-2.0039l1.72266 1.7461m-2.70313-1.45704l1.72266 1.75m-2.70313-1.45703l.86328.875m14.54688-.73047l-7.0039.55079m7.0039-.55079l1.32031 2.07032m-2.33984-1.98829l1.32031 2.07032m-2.33984-1.99219l.66015 1.03516m14.66406-1.46875l-6.9414 1.09765m6.9414-1.09765l1.47657 1.96093m-2.48828-1.80078l1.47656 1.96094m-2.48438-1.80078l1.47266 1.96094m13.69531-2.92579l-6.60937 2.38672m6.60937-2.38671l1.82031 1.64843m-2.78125-1.30078l1.81641 1.64844m-2.77734-1.30078l1.8164 1.64844m13.29297-2.65235l-6.35547 3.0039m6.35547-3.0039l1.96485 1.46485m-2.89063-1.02735l1.96875 1.46485m-2.89453-1.02735l1.96875 1.46485m13.03125-2.64844l-6.02344 3.6211m6.02344-3.6211l2.10547 1.26172m-2.98047-.73438l2.10156 1.26172m-2.98047-.73438l1.0547.62891m13.99608-1.71484l-5.98437 3.6875m5.98438-3.6875l2.11718 1.23828m-2.98828-.70313l2.11719 1.23829m12.10937-1.70313l-6.0664 3.54297m6.0664-3.54297l2.08985 1.29297m11.23437-1.27735l-6.08594 3.51172m6.08594-3.51171l2.08203 1.30078m11.47266-.80079l-6.5625 2.51172"/><g clip-path="url(#al)"><path fill="none" stroke="#000" stroke-linecap="round" stroke-linejoin="round" stroke-miterlimit="10" stroke-width=".5" d="M466.84375 345.92188l1.85156 1.60937"/></g><g clip-path="url(#am)"><path fill="none" stroke="#000" stroke-linecap="round" stroke-linejoin="round" stroke-miterlimit="10" stroke-width=".5" d="M146.16797 336.6289l-4.33594-5.53124"/></g><path fill="none" stroke="#000" stroke-linecap="round" stroke-linejoin="round" stroke-miterlimit="10" stroke-width=".5" d="M146.16797 336.6289l-.9961 2.2422m15.22266-3.31641l-6.16016-3.38281m6.16016 3.3828l-.03125 2.45313M159.5 335.0625l-.01953 1.22656m14.58203-1.66797l-6.86328-1.51562m6.86328 1.51562l.65625 2.36329m-1.65625-2.58204l.32813 1.1797m14.0664-1.65235l-7.02344-.13281m7.02344.1328l1.11328 2.1836m-2.13281-2.20312l1.10938 2.1875m13.22265-2.03516l-7.01562-.39844m7.01562.39844l1.02734 2.23047m-2.05078-2.28906l1.02735 2.23046m13.28906-1.94921l-6.97656-.84766m6.97656.84766l.88281 2.29296m-1.89844-2.41406l.88282 2.28906m-1.89453-2.41406l.4375 1.14453m14.91406-.97265l-6.99219-.69531m6.99219.6953l.9336 2.26954m-1.94923-2.3711l.9297 2.26954m-1.94923-2.3711l.46485 1.13672m14.90234-1.22656l-7.02734-.10938m7.02734.10938l1.11719 2.1836m-2.14063-2.19923l1.1211 2.1836m13.1914-2.64063l-6.97656.83594m6.97656-.83594l1.40235 2.01563m-2.41797-1.89453l1.40234 2.01562m12.8711-2.47656l-6.85938 1.51562m6.85938-1.51562l1.59375 1.8711m-2.58985-1.64844l1.58985 1.86718m12.78906-1.65234l-6.9961.64062m6.9961-.64062l1.34765 2.05078m-2.36328-1.95703l1.34375 2.05078m-2.36328-1.95703l.67188 1.02344m14.6914-.9922l-7.02344.20313m7.02344-.20312l1.21485 2.1289m-2.23438-2.10156l1.21484 2.13281m13.1172-2.22265l-7.01954.32812m7.01953-.32812l1.2539 2.10937m-2.27343-2.0625l1.2539 2.10938m13.08204-1.82031l-7.01953-.34375m7.01953.34375l1.04297 2.22265m-2.0625-2.27344l1.04297 2.22266m13.24609-1.7539l-6.92578-1.1797m6.92578 1.1797l.76953 2.33203m-1.77734-2.50391l.76953 2.33203m13.59375-2.47656l-7.00781-.54688m7.0078.54688l.98048 2.25m-2-2.33203l.98047 2.25m13.35937-2.28125l-7.01953-.32031m7.01953.3203l1.05078 2.21485m-2.07031-2.26172l.52344 1.10938m13.77343-1.77344l-6.9414 1.10156m6.9414-1.10156l1.47657 1.96094m-2.48828-1.80078l1.47656 1.96093m-2.48438-1.80078l.73828.98047m14.20313-2.4414l-6.16016 3.3828m6.16016-3.3828l2.05469 1.34765m-2.94922-.85547l2.05078 1.34766m12.36328-1.39453l-6.57031 2.49219m6.57031-2.4922l1.84766 1.6172m-2.80078-1.25391l.92187.8086m13.53125-.48829l-6.9375 1.125m6.9375-1.125l1.48438 1.95313m-2.4922-1.78907l.7422.97657m13.11328-2.40235l-6.0039 3.64844m6.0039-3.64844l2.10937 1.25m-2.98047-.71875l1.0547.625m13.15624-1.11719l-6.05078 3.57032m6.05078-3.57031l2.09375 1.28125m-2.97266-.76172l2.09375 1.28125m-2.97656-.76172l1.04688.64062m14.10156-1.55469l-6.19531 3.32032m6.19531-3.32031l2.03906 1.36718m-2.9414-.88281l2.03906 1.36719m-2.9375-.88672l1.01562.6836m14.1211-1.60548l-6.23828 3.23438"/><g clip-path="url(#an)"><path fill="none" stroke="#000" stroke-linecap="round" stroke-linejoin="round" stroke-miterlimit="10" stroke-width=".5" d="M466.67969 332.2461l2.01953 1.39452"/></g><g clip-path="url(#ao)"><path fill="none" stroke="#000" stroke-linecap="round" stroke-linejoin="round" stroke-miterlimit="10" stroke-width=".5" d="M465.77344 332.71484l2.01953 1.39454"/></g><g clip-path="url(#ap)"><path fill="none" stroke="#000" stroke-linecap="round" stroke-linejoin="round" stroke-miterlimit="10" stroke-width=".5" d="M145.36328 323.78516l-2.72656-6.47657"/></g><g clip-path="url(#aq)"><path fill="none" stroke="#000" stroke-linecap="round" stroke-linejoin="round" stroke-miterlimit="10" stroke-width=".5" d="M145.36328 323.78516l-1.54687 1.90234"/></g><path fill="none" stroke="#000" stroke-linecap="round" stroke-linejoin="round" stroke-miterlimit="10" stroke-width=".5" d="M160.46875 322.09766L154.16015 319m6.3086 3.09766l.07813 2.45312m13.58203-3.67187l-6.9961-.66016m6.9961.66016l.9414 2.26562m12.3086-1.84765l-6.8672-1.5m6.8672 1.5l.66406 2.36328m12.57031-2.06641l-6.70703-2.08984m6.70703 2.08984l.45703 2.41016m-1.42969-2.71485l.22657 1.20703M214 321.33594l-6.84766-1.57422M214 321.33594l.63672 2.36719m-1.63281-2.59766l.63672 2.3711m13.7578-2.76173l-7.01562-.33593m7.01563.33593l1.04687 2.22266m-2.0664-2.26953l1.04687 2.21875m13.29297-2.4336l-7.02734.19141m7.02734-.1914l1.21094 2.1328m-2.23438-2.10546l1.21094 2.13281m13.08984-2.57422l-6.95312 1.01953m6.95312-1.01953l1.45313 1.97656m-2.46484-1.82812l1.45312 1.97656m12.79688-2.50781l-6.79688 1.78516m6.79688-1.78516l1.66406 1.80078m-2.65235-1.54297l1.66407 1.80469m12.72265-1.63281l-6.96484.92578m6.96484-.92578l1.42969 1.9961m-2.4414-1.86329l1.42577 1.9961m12.84766-2.44141l-6.85547 1.54687m6.85547-1.54687l1.59766 1.86328M292.89453 320l1.60156 1.85938m12.77344-1.71485l-6.98047.8086m6.98047-.8086l1.39453 2.01563m-2.41015-1.89844l.69921 1.00781m13.65625-.77734l-7.02734.11328m7.02735-.11328l1.1875 2.14453m-2.21094-2.1289l1.1875 2.14843m13.14844-2.19531l-7.02344.17578m7.02344-.17578l1.20703 2.13672m-2.22657-2.11329l1.20313 2.14063m13.10547-2.51563l-6.96875.87891m6.96875-.8789l1.41406 2.0039m-2.42578-1.8789l1.41406 2.0078m12.9414-1.67968l-7.02734-.03125m6.00391.02734l.57422 1.08594m13.45703-2.53125l-6.41406 2.86719m6.41406-2.86719l1.9375 1.50781m-2.8711-1.08984l.96876.7539m12.89453-1.83202l-5.64063 4.1875m5.64063-4.1875l2.21484 1.05468m-3.03515-.44531l2.21484 1.05469m11.64453-1.99219l-5.08984 4.84766m5.08984-4.84766l2.32813.77344m-3.07032-.07031l2.32813.77343m11.76562-1.4375l-5.16406 4.76953m5.16406-4.76953l2.3164.8086m10.60548 4.32421l-4.375-5.5m16.67969-.55859l-2.35547 6.6211m2.01171-5.66016l1.21485-.17969m13.67187-.03125l-4.8125 5.1211m4.8125-5.1211l2.3672.64453m-3.06642.09766l1.1836.32422m12.82422-1.07422l-4.79688 5.13672"/><g clip-path="url(#ar)"><path fill="none" stroke="#000" stroke-linecap="round" stroke-linejoin="round" stroke-miterlimit="10" stroke-width=".5" d="M465.96094 317.98047l2.36719.63672"/></g><path fill="none" stroke="#000" stroke-linecap="round" stroke-linejoin="round" stroke-miterlimit="10" stroke-width=".5" d="M465.26172 318.72656l2.3711.63672m-3.07032.10938l2.3711.63671"/><path fill="#ff3030" fill-rule="evenodd" d="M442.1914 476.52344h7.69532V466.3789h-7.69531v10.14453"/><path fill="azure" fill-rule="evenodd" d="M444.02734 468.21094h.83204v5.74219h3.1953v.73828h-4.02734v-6.48047"/><path fill="#ff3030" fill-rule="evenodd" d="M269.09766 445.45703h7.6914V435.3125h-7.6914v10.14453"/><path fill="azure" fill-rule="evenodd" d="M270.92969 437.14453h.83203v5.73828h3.19531v.74219h-4.02734v-6.48047"/><path fill="#ff3030" fill-rule="evenodd" d="M357.86328 441.01953h7.69531V430.8711h-7.6953v10.14844"/><path fill="azure" fill-rule="evenodd" d="M359.69922 432.70703h.83203v5.73828h3.1914v.73828h-4.02343v-6.47656"/><path fill="#00f" fill-rule="evenodd" d="M383.80078 432.14063h8.61719v-10.14454h-8.61719v10.14454"/><path fill="azure" fill-rule="evenodd" d="M385.63281 423.82813h.83203v2.82421h3.28907v-2.82421h.83203v6.48046h-.83203v-2.91796h-3.28907v2.91796h-.83203v-6.48046"/><path fill="#ff3030" fill-rule="evenodd" d="M193.64453 409.94922h7.69531v-10.14453h-7.6953v10.14453"/><path fill="azure" fill-rule="evenodd" d="M195.47656 401.63672h.83594v5.73828h3.1914v.74219h-4.02734v-6.48047"/><path fill="#ffffe0" fill-rule="evenodd" d="M306.23828 406.48438h22.17969v-10.19141h-22.17969v10.1914"/><path fill-rule="evenodd" d="M309.73828 398.125h.50781v6.29297h-.78906v-4.48828h-1.38672v-.55469l.5586-.0664.2539-.0547.23047-.08593.20313-.14453.17187-.20703.14063-.29688.10937-.39453m4.8125 0l.23047.01953.21875.05469.20703.08984.19531.1211.1836.14843.17187.17579.30078.42187.2461.49219.17969.54687.10937.57813.03906.58984-.03906.59375-.10938.58594-.17968.55469-.2461.5-.30078.42968-.17187.1797-.1836.15233-.1953.125-.20704.08985-.21875.0586-.23047.01952-.23047-.01953-.21875-.0586-.20703-.08983-.19531-.125-.1875-.15235-.16797-.17969-.30469-.42968-.24219-.5-.17968-.5547-.11328-.58593-.03516-.59375h.83203l.02735.5664.08203.50391.1289.44141.16016.375.1914.30078.21094.22266.22266.13672.22656.04687.22656-.04687.22266-.13672.21094-.22266.1914-.30078.16016-.375.125-.4414.08203-.50391.03125-.5664-.03125-.5586-.08203-.5-.125-.4375-.16016-.36719-.1914-.28906-.21094-.21485-.22266-.1328-.22656-.04298-.22656.04297-.22266.13281-.21094.21485-.1914.28906-.16016.36719-.1289.4375-.08204.5-.02734.5586h-.83203l.03516-.58985.11328-.57813.17969-.54687.24218-.49219.30469-.42188.16797-.17578.1875-.14843.19531-.1211.20703-.08984.21875-.05469.23047-.01953m5.08985 0h.51171v6.29297h-.78906v-4.48828h-1.38672v-.55469l.5586-.0664.2539-.0547.22656-.08593.20313-.14453.17578-.20703.14063-.29688.10546-.39453m2.82422 2.17578h.78516l.02344-.3164.0586-.28516.09765-.2539.14062-.21485.17969-.17578.22266-.1289.26562-.07813.3086-.02735.23828.01953.22265.0625.20703.10157.1797.14062.14843.17188.11328.20703.07031.23437.02344.26563-.01953.26953-.0664.22265-.10938.19141-.15625.17188-.19922.16406-.25.16406-.63281.39063-.53907.3125-.4375.3164-.34375.32422-.26562.33594-.1914.35156-.125.3711-.06641.39062-.01954.41797h4.21094v-.73828h-3.33203l.08203-.28516.11328-.23437.14844-.20313.1875-.17969.23047-.17187.27734-.17578.71875-.41797.41407-.20313.34765-.23046.28125-.25391.21875-.26563.16406-.27734.10938-.28516.0625-.28515.02344-.28125-.04297-.38281-.1211-.34766-.1875-.3086-.25-.26171-.30468-.21485-.34375-.15625-.38281-.09765-.40625-.03516-.4336.03125-.39844.10156-.35546.16406-.3047.23438-.24609.30469-.1875.375-.11718.44531-.03907.51953"/><path fill="#ffffe0" fill-rule="evenodd" d="M189.1875 392.42578h22.17969v-10.1914H189.1875v10.1914"/><path fill-rule="evenodd" d="M192.6875 384.07031h.50781v6.29297h-.78515V385.875h-1.39063v-.5586l.5586-.0625.2539-.05468.23047-.08985.20313-.14062.17187-.21094.14453-.29297.10547-.39453m4.8125 0l.23047.01563.21875.0586.20703.08983.19531.1172.1836.15234.17187.17578.30469.41797.24219.49218.17968.54688.10938.58203.03906.58984-.03906.59375-.10938.58204-.17968.55468-.2422.5039-.30468.42579-.17187.17969-.1836.15234-.19531.125-.20703.09375-.21875.05469-.23047.01953-.23047-.01953-.21875-.05469-.20703-.09375-.19531-.125-.1836-.15234-.17187-.17969-.30469-.42578-.24219-.5039-.17968-.5547-.10938-.58203-.03906-.59375h.83203l.03125.5625.07813.50782.1289.4414.16016.375.1914.30078.21094.21875.22266.14063.22656.04687.22656-.04687.22266-.14063.21094-.21875.1914-.30078.16016-.375.1289-.4414.08204-.50782.02734-.5625-.02734-.5625-.08203-.5-.12891-.43359-.16016-.36719-.1914-.29297-.21094-.21484-.22266-.1289-.22656-.04688-.22656.04687-.22266.12891-.21094.21484-.1914.29297-.16016.36719-.1289.4336-.07813.5-.03125.5625h-.83203l.03906-.58985.10938-.58203.17968-.54688.2422-.49218.30468-.41797.17187-.17578.1836-.15235.19531-.11719.20703-.08984.21875-.0586.23047-.01562m5.08984 0h.51172v6.29297h-.78906V385.875h-1.38672v-.5586l.5586-.0625.2539-.05468.22656-.08985.20703-.14062.17188-.21094.14063-.29297.10546-.39453m2.82422 2.17188h.78906l.01954-.3164.05859-.28517.09766-.25.14062-.21875.1836-.17187.22265-.1289.26563-.08204.30468-.02734.23828.02344.22657.0625.20312.10156.17969.13672.14844.17578.11328.20312.07031.23829.02734.26171-.02343.26954-.0664.22656-.10938.1914-.15625.17188-.19922.16015-.2461.16797-.63672.38672-.53515.3125-.4375.3164-.34766.32813-.26562.33204-.1875.35156-.125.3711-.07031.39452-.01954.41797h4.21094v-.74219h-3.33203l.08203-.28125.11328-.23828.14844-.20312.1875-.17969.23047-.17188.27734-.17578.71875-.41406.41406-.20703.34766-.23047.28125-.25.21875-.26953.16406-.27734.10938-.28125.0664-.28516.01954-.28125-.04297-.38281-.1211-.35156-.1875-.3047-.25-.26562-.30468-.21094-.34375-.16015-.38282-.09766-.40625-.03125-.43359.03125-.39844.09766-.35547.16797-.30468.23437-.2461.30469-.1875.3711-.11719.44921-.03906.51563"/><path fill="#ffffe0" fill-rule="evenodd" d="M337.35938 370.23438h22.17968v-10.19141h-22.17969v10.1914"/><path fill-rule="evenodd" d="M340.85547 361.875h.51172v6.29688h-.78906v-4.48829h-1.38672v-.55859l.55859-.0625.2539-.05469.22657-.08984.20312-.14063.17579-.21093.14062-.29297.10547-.39844m4.8164 0l.22657.01953.21875.0586.21094.08593.1953.1211.1836.15234.17188.17578.30078.41797.2461.49219.17968.54687.10937.58203.03907.58985-.03907.59375-.10937.58203-.17969.55469-.2461.5039-.30077.42578-.17188.1797-.1836.15233-.1953.125-.21094.09375-.21875.0547-.22656.01952-.23047-.01953-.21875-.05469-.20704-.09375-.19921-.125-.1836-.15234-.17187-.17969-.30078-.42578-.2422-.5039-.17968-.5547-.11328-.58202-.03906-.59375h.83594l.02734.5625.08203.50781.125.4414.16406.375.1914.30079.21095.21875.22265.13672.22656.04687.22657-.04687.22265-.13672.21094-.21875.1875-.30078.16406-.375.125-.44141.08204-.50781.03125-.5625-.03125-.5625-.08204-.5-.125-.4336-.16406-.36718-.1875-.29297-.21094-.21485-.22265-.1289-.22656-.04688-.22657.04688-.22265.1289-.21094.21485-.1914.29297-.16407.36718-.125.4336-.08203.5-.02735.5625h-.83593l.03906-.58985.11328-.58203.17969-.54687.24219-.49219.30078-.41797.17187-.17578.1836-.15234.19921-.1211.20704-.08594.21875-.05859.23046-.01953m5.08985 0h.50781v6.29688h-.78515v-4.48829h-1.38672v-.55859l.55859-.0625.25-.05469.23047-.08984.20312-.14063.17579-.21093.14062-.29297.10547-.39844m6.80469 1.6211h-.78907l-.05078-.21094-.08203-.1875-.10547-.16016-.1289-.1289-.14844-.10157-.16016-.07422-.16797-.04687-.17187-.01563-.32813.04297-.28906.11719-.2461.19531-.20312.26953-.16015.33985-.11329.40234-.0703.46875-.02735.52344.1914-.19922.1875-.16016.1836-.1211.1875-.08983.1875-.0625.1914-.03516.39844-.02344.3086.03125.3203.08985.31642.15625.29296.21875.25782.28515.19921.35156.07032.19922.05469.21875.02734.23438.0039.25-.78515.04687-.02735-.25781-.07812-.2539-.1211-.23438-.16015-.20703-.19531-.17969-.21875-.13672-.23828-.08984-.25782-.03125-.2539.03125-.24219.08984-.21875.13672-.1914.17969-.16016.20703-.125.23437-.07813.25391-.02734.25781.02734.25781.07813.25.125.23829.16015.20703.19141.17969.21875.13671.24219.08594.2539.03125.25782-.03125.23828-.08594.21875-.13671.19531-.1797.16016-.20702.12109-.23829.07813-.25.02734-.2578.78515-.04688-.02734.3711-.09375.37108-.15625.35938-.22265.32813-.29297.28125-.16797.12109-.1875.10156-.20703.08203-.22266.0625-.24219.03906-.26172.01172-.28125-.01562-.26171-.04688-.23829-.07812-.21484-.10156-.19531-.13282-.17188-.15625-.15625-.17968-.13281-.20313-.11719-.22265-.10156-.2422-.14453-.53515-.08594-.59375-.02734-.64062.03906-.7422.11328-.66405.1875-.57813.1211-.2539.13671-.23047.15235-.20704.17187-.17968.1836-.15625.20312-.1289.21875-.10157.23047-.07422.25-.04688.26172-.01562.36719.03516.33203.09765.29297.14844.2578.19922.21095.24219.16406.27343.11719.3047.0625.3203"/><path fill="#ffffe0" fill-rule="evenodd" d="M208.59375 342.57031h22.17969v-10.1914h-22.17969v10.1914"/><path fill-rule="evenodd" d="M212.09375 334.21094h.50781v6.29687h-.78515v-4.49219h-1.39063v-.55468l.5586-.0664.2539-.05079.23047-.08984.20313-.14454.17187-.20703.14453-.29687.10547-.39453m4.8125 0l.23047.01953.21875.05469.20703.08984.19531.1211.1836.14843.17187.17578.30469.42188.24219.49219.17968.54687.10938.57813.03906.59375-.03906.58984-.10938.58594-.17968.55468-.2422.5-.30468.4297-.17187.17968-.1836.15234-.19531.125-.20703.08985-.21875.05859-.23047.01953-.23047-.01953-.21875-.0586-.20703-.08984-.19531-.125-.1836-.15234-.17187-.17969-.30469-.42969-.24219-.5-.17968-.55468-.10938-.58594-.03906-.58985h.83203l.03125.5625.07813.50391.1289.44531.16016.3711.1914.30078.21094.22265.22266.13672.22656.04688.22656-.04688.22266-.13671.21094-.22266.1914-.30078.16016-.3711.1289-.4453.08204-.50392.02734-.5625-.02734-.5625-.08203-.5-.12891-.4375-.16016-.36328-.1914-.29296-.21094-.21485-.22266-.13281-.22656-.04297-.22656.04297-.22266.13281-.21094.21485-.1914.29296-.16016.36329-.1289.4375-.07813.5-.03125.5625h-.83203l.03906-.59375.10938-.57813.17968-.54688.2422-.49218.30468-.42188.17187-.17578.1836-.14844.19531-.12109.20703-.08984.21875-.0547.23047-.01952m5.08984 0h.51172v6.29687h-.78906v-4.49219h-1.38672v-.55468l.5586-.0664.2539-.05079.22656-.08984.20703-.14454.17188-.20703.14063-.29687.10546-.39453m6.8047 1.6211h-.78517l-.05078-.21485-.08203-.1836-.10937-.16015-.1289-.1289-.14845-.10548-.15625-.07422-.17187-.04296-.17188-.01563-.32812.03906-.28516.1211-.2461.1953-.20312.26954-.16015.33594-.11719.40625-.07031.46484-.02344.52735.1875-.20313.1875-.16016.1836-.12109.1875-.08984.1875-.0586.1914-.03906.40234-.02344.3086.03125.32031.09375.3125.15625.29688.21875.2539.28516.19922.34765.07422.20313.05078.21484.03125.23438.0039.2539-.78906.04688-.02734-.26172-.07422-.25-.125-.23437-.16016-.21094-.1914-.17578-.22266-.13672-.23828-.08985-.2539-.03125-.25782.03125-.23828.08985-.21875.13672-.19531.17578-.16016.21094-.1211.23437-.07812.25-.02734.26172.02734.25781.07813.25.1211.23438.16015.21094.19531.17578.21875.14062.23828.08594.25781.03125.25391-.03125.23828-.08594.22266-.14062.1914-.17579.16016-.21093.125-.23438.07422-.25.02734-.25781.78907-.04688-.03125.3711-.09375.3711-.15625.35937-.22266.32812-.28906.28125-.17188.1211-.1875.10156-.20703.08203-.22266.0625-.24218.03516-.25781.01562-.28516-.01562-.25781-.04688-.23828-.07812-.21875-.10547-.19141-.1289-.17578-.15626-.15235-.17969-.13672-.20312-.11718-.22266-.09766-.24219-.14844-.53515-.08593-.59375-.02344-.64063.03516-.74218.11718-.66407.1836-.57812.12109-.2539.13672-.23048.15234-.20703.17188-.1836.1875-.15624.19922-.1289.21875-.10157.23437-.07422.2461-.04297.26171-.01562.3672.03515.33202.09375.29688.15235.2539.19922.21094.24218.16797.27344.11328.30078.0625.32422"/><path fill="#ffffe0" fill-rule="evenodd" d="M346.1836 326.89063h22.1328V316.6953h-22.1328v10.19531"/><path fill-rule="evenodd" d="M349.6836 318.53125h.5078v6.29297h-.78906v-4.48828h-1.38671v-.55469l.55859-.0664.2539-.0547.23047-.08984.20313-.14062.17187-.21094.14063-.29297.10937-.39453m4.8125 0l.23047.01563.21875.05859.20703.08984.19532.1211.18359.14843.17188.17579.30078.41796.24609.4961.17969.54297.10937.58203.03906.58984-.03906.59375-.10937.58203-.17969.55469-.2461.5039-.30077.42579-.17188.17969-.1836.15625-.1953.12109-.20704.09375-.21875.05469-.23047.01953-.23046-.01953-.21875-.0547-.20704-.09374-.1953-.1211-.1875-.15625-.16798-.17968-.30469-.42578-.24218-.50391-.17969-.55469-.11328-.58203-.03516-.59375h.83203l.02735.5625.08203.50781.1289.44141.16016.375.1914.30078.21094.22266.22266.13672.22656.04687.22657-.04687.22265-.13672.21094-.22266.1914-.30078.16016-.375.125-.4414.08203-.50782.03125-.5625-.03125-.5625-.08203-.5-.125-.4336-.16015-.36718-.19141-.29297-.21094-.21094-.22265-.1328-.22657-.04688-.22656.04687-.22265.13281-.21094.21094-.1914.29297-.16017.36719-.1289.4336-.08203.5-.02735.5625h-.83203l.03516-.58985.11328-.58203.17969-.54297.24219-.4961.30468-.41796.16797-.17579.1875-.14843.19531-.1211.20704-.08984.21875-.0586.23046-.01562m2.96094 2.17578h.78906l.01954-.3164.05859-.28907.09765-.25.14063-.21875.17969-.17187.22656-.1289.26172-.08204.3086-.02734.23827.02343.22657.0625.20312.10157.17969.13671.14844.17579.11328.20312.07031.23828.02344.26172-.01953.26953-.06641.22656-.10938.19141-.15625.17188-.19921.16015-.2461.16797-.63672.38672-.53515.3125-.4375.32031-.34766.32422-.26562.33594-.1875.34765-.125.3711-.07032.39453-.01953.41797h4.21094v-.74219h-3.33203l.08203-.28125.11328-.23828.14844-.19922.1875-.1836.23047-.16796.27734-.17578.71875-.41797.41406-.20703.34766-.23047.28125-.25.21875-.26563.16406-.28125.10938-.28125.0664-.28515.01954-.28125-.04297-.38281-.1211-.34766-.1875-.3086-.25-.26562-.30469-.21094-.34375-.16015-.3828-.09766-.40626-.03125-.4336.03125-.39843.09766-.35547.16796-.30469.23438-.24609.30469-.1875.375-.11719.44531-.03906.51953m6.94531-2.17578l.22657.01563.21875.05859.21093.08984.19532.1211.18359.14843.17188.17579.30078.41796.24218.4961.1797.54297.11327.58203.03906.58984-.03906.59375-.11328.58203-.17969.55469-.24218.5039-.30079.42579-.17187.17969-.1836.15625-.1953.12109-.21094.09375-.21875.05469-.22657.01953-.23046-.01953-.21875-.0547-.20704-.09374-.19921-.1211-.1836-.15625-.17187-.17968-.30079-.42578-.24218-.50391-.17969-.55469-.11328-.58203-.03906-.59375h.83593l.02735.5625.08203.50781.125.44141.16406.375.1914.30078.21094.22266.22266.13672.22656.04687.22657-.04687.22265-.13672.20703-.22266.19141-.30078.16406-.375.125-.4414.08203-.50782.02735-.5625-.02735-.5625-.08203-.5-.125-.4336-.16406-.36718-.1914-.29297-.20704-.21094-.22265-.1328-.22657-.04688-.22656.04687-.22265.13281-.21094.21094-.1914.29297-.16407.36719-.125.4336-.08203.5-.02735.5625h-.83593l.03906-.58985.11328-.58203.17969-.54297.24219-.4961.30078-.41796.17187-.17579.1836-.14843.19921-.1211.20704-.08984.21875-.0586.23046-.01562"/></g></defs><use xlink:href="#as"/></svg>