<svg xmlns="http://www.w3.org/2000/svg" role="img" xmlns:xlink="http://www.w3.org/1999/xlink" viewBox="142.45 309.95 326.84 171.84"><defs><clipPath id="a"><path d="M144 311.67188h1v168.65625h-1zm0 0"/></clipPath><clipPath id="b"><path d="M144 311.67188h324v168.65625H144zm0 0"/></clipPath><clipPath id="c"><path d="M467 311.67188h1v168.65625h-1zm0 0"/></clipPath><clipPath id="d"><path d="M144 479h4v1.32813h-4zm0 0"/></clipPath><clipPath id="e"><path d="M147 479h3v1.32813h-3zm0 0"/></clipPath><clipPath id="f"><path d="M146 479h3v1.32813h-3zm0 0"/></clipPath><clipPath id="g"><path d="M153 479h8v1.32813h-8zm0 0"/></clipPath><clipPath id="h"><path d="M160 479h3v1.32813h-3zm0 0"/></clipPath><clipPath id="i"><path d="M159 479h3v1.32813h-3zm0 0"/></clipPath><clipPath id="j"><path d="M167 478h8v2.32813h-8zm0 0"/></clipPath><clipPath id="k"><path d="M173 478h4v2.32813h-4zm0 0"/></clipPath><clipPath id="l"><path d="M172 479h4v1.32813h-4zm0 0"/></clipPath><clipPath id="m"><path d="M180 478h8v2.32813h-8zm0 0"/></clipPath><clipPath id="n"><path d="M186 478h4v2.32813h-4zm0 0"/></clipPath><clipPath id="o"><path d="M185 479h3v1.32813h-3zm0 0"/></clipPath><clipPath id="p"><path d="M193 478h8v2.32813h-8zm0 0"/></clipPath><clipPath id="q"><path d="M200 478h3v2.32813h-3zm0 0"/></clipPath><clipPath id="r"><path d="M199 478h2v2.32813h-2zm0 0"/></clipPath><clipPath id="s"><path d="M207 478h8v2.32813h-8zm0 0"/></clipPath><clipPath id="t"><path d="M213 478h3v2.32813h-3zm0 0"/></clipPath><clipPath id="u"><path d="M212 479h3v1.32813h-3zm0 0"/></clipPath><clipPath id="v"><path d="M220 478h8v2.32813h-8zm0 0"/></clipPath><clipPath id="w"><path d="M226 478h4v2.32813h-4zm0 0"/></clipPath><clipPath id="x"><path d="M225 479h3v1.32813h-3zm0 0"/></clipPath><clipPath id="y"><path d="M233 478h8v2.32813h-8zm0 0"/></clipPath><clipPath id="z"><path d="M247 478h7v2.32813h-7zm0 0"/></clipPath><clipPath id="A"><path d="M260 478h8v2.32813h-8zm0 0"/></clipPath><clipPath id="B"><path d="M266 478h4v2.32813h-4zm0 0"/></clipPath><clipPath id="C"><path d="M274 477h6v3.32813h-6zm0 0"/></clipPath><clipPath id="D"><path d="M288 477h5v3.32813h-5zm0 0"/></clipPath><clipPath id="E"><path d="M301 477h6v3.32813h-6zm0 0"/></clipPath><clipPath id="F"><path d="M314 477h6v3.32813h-6zm0 0"/></clipPath><clipPath id="G"><path d="M327 477h7v3.32813h-7zm0 0"/></clipPath><clipPath id="H"><path d="M340 477h7v3.32813h-7zm0 0"/></clipPath><clipPath id="I"><path d="M353 478h8v2.32813h-8zm0 0"/></clipPath><clipPath id="J"><path d="M367 478h7v2.32813h-7zm0 0"/></clipPath><clipPath id="K"><path d="M372 478h2v2.32813h-2zm0 0"/></clipPath><clipPath id="L"><path d="M380 478h8v2.32813h-8zm0 0"/></clipPath><clipPath id="M"><path d="M385 479h3v1.32813h-3zm0 0"/></clipPath><clipPath id="N"><path d="M395 479h4v1.32813h-4zm0 0"/></clipPath><clipPath id="O"><path d="M406 478h8v2.32813h-8zm0 0"/></clipPath><clipPath id="P"><path d="M412 480h2v.32813h-2zm0 0"/></clipPath><clipPath id="Q"><path d="M420 478h7v2.32813h-7zm0 0"/></clipPath><clipPath id="R"><path d="M425 478h3v2.32813h-3zm0 0"/></clipPath><clipPath id="S"><path d="M433 478h8v2.32813h-8zm0 0"/></clipPath><clipPath id="T"><path d="M439 478h4v2.32813h-4zm0 0"/></clipPath><clipPath id="U"><path d="M446 478h8v2.32813h-8zm0 0"/></clipPath><clipPath id="V"><path d="M452 478h2v2.32813h-2zm0 0"/></clipPath><clipPath id="W"><path d="M460 478h8v2.32813h-8zm0 0"/></clipPath><clipPath id="X"><path d="M466 478h2v2.32813h-2zm0 0"/></clipPath><clipPath id="Y"><path d="M144 465h4v4h-4zm0 0"/></clipPath><clipPath id="Z"><path d="M466 466h2v3h-2zm0 0"/></clipPath><clipPath id="aa"><path d="M144 452h4v4h-4zm0 0"/></clipPath><clipPath id="ab"><path d="M466 451h2v3h-2zm0 0"/></clipPath><clipPath id="ac"><path d="M144 438h4v4h-4zm0 0"/></clipPath><clipPath id="ad"><path d="M144 426h4v2h-4zm0 0"/></clipPath><clipPath id="ae"><path d="M144 413h4v2h-4zm0 0"/></clipPath><clipPath id="af"><path d="M466 412h2v4h-2zm0 0"/></clipPath><clipPath id="ag"><path d="M144 399h4v3h-4zm0 0"/></clipPath><clipPath id="ah"><path d="M466 399h2v3h-2zm0 0"/></clipPath><clipPath id="ai"><path d="M144 385h4v4h-4zm0 0"/></clipPath><clipPath id="aj"><path d="M466 387h2v3h-2zm0 0"/></clipPath><clipPath id="ak"><path d="M144 371h3v6h-3zm0 0"/></clipPath><clipPath id="al"><path d="M466 374h2v3h-2zm0 0"/></clipPath><clipPath id="am"><path d="M144 357h3v7h-3zm0 0"/></clipPath><clipPath id="an"><path d="M144 362h2v3h-2zm0 0"/></clipPath><clipPath id="ao"><path d="M466 360h2v3h-2zm0 0"/></clipPath><clipPath id="ap"><path d="M144 343h1v8h-1zm0 0"/></clipPath><clipPath id="aq"><path d="M144 350h1v3h-1zm0 0"/></clipPath><clipPath id="ar"><path d="M144 349h1v3h-1zm0 0"/></clipPath><clipPath id="as"><path d="M466 346h2v3h-2zm0 0"/></clipPath><clipPath id="at"><path d="M144 330h1v8h-1zm0 0"/></clipPath><clipPath id="au"><path d="M466 332h2v3h-2zm0 0"/></clipPath><clipPath id="av"><path d="M144 316h1v9h-1zm0 0"/></clipPath><clipPath id="aw"><path d="M144 323h1v3h-1zm0 0"/></clipPath><clipPath id="ax"><path d="M144 322h1v2h-1zm0 0"/></clipPath><clipPath id="ay"><path d="M466 318h2v2h-2zm0 0"/></clipPath><clipPath id="az"><path d="M465 318h3v3h-3zm0 0"/></clipPath><g id="aA" clip-path="url(#clip1)"><path fill="#fff" fill-opacity="0" fill-rule="evenodd" d="M0 0h1000v1000H0zm0 0"/><path fill="#d3d3d3" fill-opacity="0" fill-rule="evenodd" d="M162.15234 355.86719l-.23437.29297.0586.23437.11718.17188.17578.23437.29297.34766.11328.0586.11719-.17188.0586-.23438.17577-.17578.46485-.17578h.69922l.23437.29297.28906.8164.0586.17579.17578.23046.35156.23438.69922.69922.17188.17578.23437.34765.23438.41016.28906.58203.41015.46485.23047.23437.23438.17578.11719.23047.17578.29297.17187 1.16406v.23438l.0586.28906.05859.11719.11719.11719.34765.41015.11719.17188.17578.17578.17578.23437.11719.17188.17188.35156.05859.23438.23437.40625.23438-.0586-.17578.17578-.0586.92969h-.58203l-.23437-.11328-.34766.11328-.11719.11719-.05859.29297-.0586.17578-.11718.17187-.46484.29297-.0586.23438-.0586.11328v.64453l.0586.17187v.41016l.0586.0586v.40624l.05859.40625.11719.17579.05859.05859.23047.64062-.0586.29297v.69922l-.05859.58203v.23438l-.0586.23047-.05468.35156v1.92187l.05469.1172h.42578l-.36719.11718-.02344.35156.89063 1.16797 1.74219.53906 1.33984.35938v.53906l.08984.8086.53516.71484 1.51953.26953.89063-.08594.08984 1.16406.53516.1797 1.16015-.1797 2.05469-.98437 1.16016-.36328 1.8789-.17578 1.69531-.1797-.17968.71876-1.51563.08594-1.25.08984-.80469.26953-1.07421.8086.26953.71875.53515.89843-.17968.625-.26563.8086.26563 1.07812.625.89844.80468.17969 1.25-.1797-.26562.72267.09766.5039.05468.29297v.17188l.0586.29296v.40625l.17578.1172.35156.11718h.40625l.29297-.17578.11328-.11719.0586-.11719.11718-.23047.0586-.17578.35156-.46484.23047-.17578.17578-.0586.17578.0586.0586.17578.11718.98828.05469.46875.0586.17188.11718.23437.17578.0586.8164.05859h.28907l.11719.23437.05859.40625.0586.35156v1.10547l.11718.29297.11719.34766.28906.69922.17578.35156.58203.7539.35157.17579.17187.0586.46875.23437.64063.46484.34765.23438.29297.17578.29297.05468.23047.0625.8164.34766.29297.17578.11328.17188.35157.35156.11719.17578.52343.64063v.28906l.0586.35156v.34766l.05859.35156.0586.28906.11718.0586.17188.05859h.17578l.58203.23437.17578.1172.17578.28905.17578.23438.11328.23437.29297.23047.11719.11719v.41016l.0586.05468.28906.23438.23437.11719.0586.11718.11718.17188.0586.11719.23047.23437.05859.17578.23437.0586.1172.05859-.1172.11328-.05859.11719v.11719l-.11719.29296-.11719.28907v.58203l.17579.11719.11718.05859.0586.11719.11719.11719.11328.05859.17578.34765.0586.35157.05858.40625v.17578l-.05859.17578-.11719.69922v.17187l.1172.17579.29296.29296h.40625l.17578.1172.11719.17187.11719.29296v.23438h-.52735l-.23047-.23438h-.23437l-.17578.0586-.0586.69922.0586.34765.11719.17579.17578.41015.11718.23047.28907.46875.17578.05469h.52344l.23437.0586.75781.64062.0586.29296v.23438l.05859.0586.23047.34765v.35156l-.11719.17188v.29297l.29297.28906.29297.17578.17187.0586.29297.17577.29297.1172.58203.40624.28906.23438.29297.17578.21875.16015.01563.01172.23047.17579.64062.52343.17578.23438.1172.17578.17577.17578.11328.17188v.64062l.1172.17578.46874.11719.58203.11719.23438.05859.23047.11328.29297.11719.11328.0586.58593.35156.28907.17187.17578.0625.17578.05469.17578.0586.69922.35155.28906.17579.23438.05468.28906.17578.23437.1172.64063.40624.29297.11719.17187.0586.23438.05859.41015.05859.23047.0586.23438.11718.0586.17188-.41017.17578.46875.0586.0586.29296.11328.23438.17578.05468.23438.0586.17578.05859.40625.11719.64062.23437.11719.17188.0586.23437v.17578l-.0586.1172-.0586.40624.23438.23438.11719.05859.34766.11719.64062.23047.17578.11718.28906.1172.17578.17577.23438.46485.58203 1.10546.17578.17579.34766.17578.17578.11719.35156.11718 1.04688.52344.23437.0586.46485.11327.29297.0586.46484.17578.75781.58203.23438.23438.34765.46484.17578.17578.28907.23438.8164.69921.29297.17579.28906.28906.29297.17578.29297.28906.69531.64063.17578.17578.29297.23437.28907.23438.46875.28906.64062.58203.34766.23438.23437.29297.34766.34765.35156.46485.9336.99218.34765.40625.11719.17579.23437.05859.11328.11719.64454.17578.23047.11328.23437.0586.29297.17577.23047.1172.9336.69921.40624.40625.23438.17578.40625.17578.23437.11719.8164.34766.34766.23437.23438.11719.29297.28906.23047.11719.7578.35156.35157.17188.23047.05859.29297.11719.23437.0586.8711.17577h.8164l.46875.23047.17188.0586.875.69921.46484.1172.29297.05858.17578.0586.23047.0586.46875.05859.34766.05859.35156.0586.40625.05859h.29297l.17187.0586v.23046l.17578.17578h.29297l.34766.0586.35156.05859.69922.11719h.64063l.46484-.23438.29297-.17578.17187-.11719.41016-.17187.28906-.17578.9336-.46485.46875-.29297.52343-.29296.46485-.17188.46484-.17578 1.05078-.46485.28906-.11718.41016-.11719.28906-.11719.52735-.17578 1.51562-.69922.58203-.34765.28907-.0586.29297-.0586.34765-.11718.875-.23047.35156-.11719h.11329l.23437-.05859.875-.23437.23438-.0586h.8125l.35156-.0586.8164-.11718.17188-.0586.35156-.05468.29297-.0586.23047-.05859.8164-.17578.17579-.0586h.34765l.23438-.05859.46484-.11718.75781-.17188.23438-.0586h.34765l.41016-.11718.28906-.0586 1.28516-.05859h.28906l.41016-.0586.23047-.05858h.17578l.875-.1172h.40625l.41015-.11718h.34766l.35156-.11328.8711-.0586h1.75l1.04687.28907.41016.11719.28906.11718.35156.11719.28907.11719 1.05078.17187.28906.0586h.29297l.29297.05859.17187.0586.41016.05859.17187.0586.1172.05858h.11718l.11719.0586.35156.0586h.11328l.41016.0664 1.92187.39453 1.92578.39453 1.51953.44922 1.69532.71875 2.14453.80469 1.60547-.71875 1.42968-.80469 1.16016-1.07813 1.25-.44921 3.03516-.71875 1.875-.35938 2.14453-1.34765 2.23437-1.25391 2.5-1.25781 1.69531-.44922 1.78516-.17969 1.16016-.26953.625.53906 1.33984-.26953.71485-.98828.98437-1.34375.44531-.17969.80469-.35937 1.875-.53907 1.78516-.44921 1.25-.26954 1.16015-.08984 1.69922-.08984 1.96094-.26954 1.25-.08984h.53906l.625-.08984h.89063l2.14453-.17969 2.41015-.17969 2.58985-.08984 1.69531.17969 1.60938.08984 1.42968.35938 1.16016.71875 1.875.98828 1.16015 1.52734.26563.71484.6289.08985.35548.89844.53515.53906.53516 1.52734 1.07422.35938h.53515l-.80469.53515.08985 1.70703.71484 2.69532.89063.80468.89453.98829.71484 1.2578 1.78516.53907 1.51953-.17969.35547 1.34375 1.60937-.80469.98047-.53906.26953.26953.31641-.21484.21875-.14453.80078.44922.44922-.35938h.35547l.53515-.26953.53907-.71875.53515-.26953.625-.98828 1.16016.44922.83984.3711 1.39454.61718 1.6953-.17969h1.60548l1.78515.08985.17969-1.70704.53516-1.34375.80468.26954.4922.84765.40233.40625-.08984.53906v.35938l.71485.44922.71093-.26953h1.42969l.35938.98828.4453 1.25781.71485 1.34375 1.25.6289 1.69531.62891.71485-.17969.17969-.53906.98046-.08984.44922.35937.08594 1.25782-.26563.6289-.53515.17969v.53906l.71484.98438.26563.53906.98437.98828.80078 1.07813-.26562.35937-.08985.89844-.625 2.33203-.35546 2.0664-.08985 1.79298-.17969.71875-.08984.53906v1.4375l-.98047 1.88281-.35937 1.70703-.53516.89844-.80469 1.16797-.26562.53906 2.05469 1.2539.08593.35938-.35546.53906-.08985-.17968v.80859l.08985 1.4375-.44532.71484-1.07422.09375-.26562.71485.53515.89844.8047.71875 1.16015.80859 1.33984.26953.44531.35938-.35546.44921-1.78907-.08984-1.25-.44922-.71484-.71875-.625-.08984-.17578 3.58984-.1875 1.3086h89.35937V311.70313h-55.26953v49.08203l.76172.125 3.28906.54296 2.02344 2.83594v2.7539l2.35156.33204 2.34766.33203h4.05078l-1.3789 4.16016-2.02344.70703-2.02344.70312-.54297.34375-2.59375 1.6172-.1875.11718-2.02344-2.07813-.73046-2.74218-2.67188-2.07813-1.375-3.5-.0664-.08203-1.95704-2.67188 2.75-1.41796v-49.08204H294.42187v91.41407l.1172.03125.1328.01172.07422.07421.10547.04688.08985.0586.08593.05859.08985.0586.29687.29687.0586.08984.03125.11719.02734.11719.01563.13671-.03125.1172-.0586.08983-.0586.08594-.04296.10547-.04688.10156-.02734.1211v.14453l.17578.26953.14844.14844.07422.08594.07422.07421.04296.10547.0625.08985.0586.08593.04297.10547.0586.08985.04687.10156.04296.10547.0586.08594.11719.17968.07421.07422.0625.08594.0586.08984.04297.10547.0586.08985.05858.08593.0625.08985.0586.08984.04297.10156.11719.17969.07421.07422.0586.08594.07422.07421.08984.0586.10547.04687h.14844l.1328-.01562.13282.01562.10156-.04687.07422-.07422.04688-.10156-.01563-.13281v-.14844l-.04687-.10547-.02735-.11719-.04687-.10156-.02735-.1211-.04296-.10156-.0625-.08984-.04297-.10156-.04297-.10547-.03125-.11719-.01563-.13281-.01171-.13672.08593-.0586.0586-.08593.12109-.03125.04297.10547.01562.1328v.1172l.0586.10156.0586.08984.08983.0586.14844.14843.0586.08985.04296.10547-.01171.10156.08593.0586.10547.04687.08594.0586.08984.05858.07422.07422-.11719.02735-.10546.04687-.08594.0586-.07422.07421-.0586.08985-.0625.08594-.02734.12109-.04687.10156-.04297.10547-.03125.11719-.01172.13281-.01563.13281v.14844l.02735.11719.04687.10547.04297.10156.0586.08984.07421.07422.08985.0586.07422.07421.08984.0586.0586.08984.04296.10547.04688.10156.11719.03125.1328.01563h.14845l.11718-.03125.10547.04297.04297.10547.04688.10156.02734.1211L299.5 410l.02734.11719.03125.1211.02735.11718.10547.04297.10156.04687.13281-.01562.14844.14844.0625.08593.07422.07422.07031.07422.08984.0625.10547.04297.10156.04297.1172.03125.13671.01562.11719-.03125.07422-.07422.02734-.11718-.01172-.13282-.03125-.12109-.02734-.11719.04297-.10547h.11719l.08984.0625.11719.02735h.14843l.13282.01562h.14843l.13282.01563.1328-.01563h.14845l.1328-.01562.13282-.01172.13672.01172.11719-.02735.13281-.01562.1914-.0586-.05859.17579-.01562.1328-.02735.1211-.01562.13281-.0586.08594-.1328.01563-.10548.04687-.10546.04297-.1172.03125-.11718.02735-.26563.03125h-.14843l-.13281.01562-.07422.07422.05859.08594.14844.14843.11719.1797.07421.0703.08985.0625.08984.0586.08594.0586.08984.05858.10156.04297.10547.0625.10547.04297.08594.0586.10547.04687.10156.04297.17969.11719.0586.08984-.04298.10156-.04687.10547.01562.13281.22266.22266.0586.08985.04296.10156.03125.1211.04297.10155.01563.13282.03125.11718.01171.13672.03125.11719.14844.14844.10156.04297.10547.04296.1172.03125.1328.01563.13672.01563h.11719l.11719-.03125.08984-.0586.04297-.10547.04688-.10156.04296-.10547.03125-.11719.01172-.1328v-.14845l-.01172-.1328-.01562-.13282-.03125-.11719-.04297-.10547-.04688-.10547-.04296-.10156-.04297-.10547-.01563-.13281.01563-.13281.02734-.11719.03125-.11719.02735-.1211.04687-.10155.08984-.0586.08594-.0625.07422-.07422.08984-.05859.22266-.22266.0586-.08593.07421-.07422.11719-.17969.0586-.08594v-.14844l-.07423-.07421-.10156-.04688-.10547-.04297-.10156-.04297-.0586-.08984-.04687-.10547-.02734-.11719.08984-.05859.11719-.03125.10156-.04297.17969-.11719.14844-.14843.01172-.13282-.01172-.10546-.08985-.0586-.1328.01563h-.14845l-.1328.01562-.13282-.01562-.1211-.03125-.08593-.0586-.07422-.07422-.0586-.08984-.0625-.08594-.11718-.17969-.0586-.08593.03125-.1211.08594-.05859.1211-.03125.05859-.08594v-.1211l-.03125-.11718-.0586-.08984-.05859-.08594-.04687-.10547-.02735-.11719-.01562-.1328.0586-.08985.07421-.07422.08984-.0586.1172-.17968.07421-.07422.0586-.08594.14843-.14844.1211-.03125.1328-.01562.13282.01562.07422.07422.04297.10547.01562.13281-.03125.1172-.11719.03124-.1328.01172-.14844.14844-.04297.10547-.04688.10156-.02734.1211-.03125.11718v.14844l.03125.11719.04297.10546.05859.08985.07422.07031.07422.07422.11719.03125.12109.02734.11719-.02734.1328-.01563h.1172l.08984.0586.07422.07422.04687.10546.0586.08594.10156.04688.13281.01562.10547.04297.08594.0586-.01172.10546-.07422.07422-.17969.11719-.05859.08984-.08984.0586-.07032.07422-.07421.07421-.0625.08985-.02735.11719-.01562.1328.01562.13282-.01562.13281v.14844l.01562.13281.02735.1172.03125.12108.07421.07422.08985.0586.08594.0586.08984.05858.11719.03125v.08594l-.10157.04688-.08984.0586-.26563.03124-.11718.02735h-.14844l-.10547.04296-.10156.04688-.0586.08984-.0625.23438-.01171.13281-.03125.1211-.01563.1328v.29298l-.01172.1328.01172.13673.01563.1328.1328.01563.13282.01172.1211.03125.08593.0586.07422.07421.04688.10547.04296.10157.01563.1328v.44532l-.01563.13281v.44532l.03125.26562.02735.11719.01562.13281.03125.11719.08594.21094.03125.26562v.14844l-.03125.11719-.02734.11718-.03125.1211-.02735.11719-.03125.11718-.03125.1211-.01171.1328-.01563.13282.08984.0586.1172-.03125.10155.01562.04688.10547-.03125.26562v.44141l-.04297.10547-.04688.10547-.04296.10156-.04297.10547-.0586.08594-.03125.12109-.04296.11719-.03125.11719-.01563.1328.01563.13282.05859.08984.10547.04688.08594.0586.05859.08593-.01172.13672-.03125.11719-.04297.10156v.44531l-.01562.13281v.14844l-.03125.11719-.04297.10547-.02735.11719-.04687.10546-.04297.10157-.03125.12109-.02734.11719-.03125.13281-.03125.11719-.02735.11719-.04297.10546-.03125.1172-.03125.12108-.01171.13282-.01563.13281v.29688l.02734.11718v.14844l.04688.39844.02734.11719.0586.08984.12109.03125h.14844l.13281-.01563.0586.08985v.11719l-.0586.08984-.08984.0586-.10157.04296-.10546.04688-.08985.05859-.08594.0586-.13671.01562-.1172-.03125-.1328-.01563-.10157.04688-.0625.08594-.01172.13671-.01562.13282-.03125.11719-.02735.11718-.01562.13281-.03125.1211v.29687l.01563.13282.03125.11718v.14844l.01171.13281v.14844l-.02734.11719-.04688.10156-.02734.1211-.03125.11718-.0586.08985-.07421.07421-.10156.04297-.10547.04688-.11719.02734-.1211.03125-.10156-.04687.0586-.08594.10547-.04688.02734-.11718.03125-.11719.02734-.1211.03125-.11718v-.14844l.01563-.13281-.03125-.11719-.04297-.10547-.10547.01563-.07422.07422-.10156.04296-.08984.0625-.07422.07422-.04297.10157-.01563.1328-.03125.1172L304.25 426l-.03125.11719-.02734.11719-.03125.12109-.02735.11719-.03125.11718-.04297.10547-.08984.0586h-.08984l-.1172-.03125-.03124-.08594.01562-.13672-.03125-.11719v-.14844l-.01171-.1328v-.14844l-.0625-.23438-.02735-.1211-.04297-.10156-.04687-.10546-.0586-.08594-.05859-.08985-.04297-.10546-.0625-.08594-.14844-.14844-.0703-.07422-.10548-.04687-.10547-.04297-.10156-.04297-.29687-.29688-.08985-.07421-.08594-.0586-.10546-.04297-.08985-.0625-.08594-.0586-.10546-.04296-.08985-.0586-.08594-.0625-.07421-.0703-.10547-.04688-.08594-.0586-.10547-.04296-.08984-.0625-.10156-.04297-.10547-.04297-.08594-.0586-.10547-.04687-.10547-.04297-.10156-.04687-.08985-.0586-.10156-.04297-.10547-.04296-.08984-.0625-.11719-.02735-.13281-.01562-.13281.01562H299.75l-.13281.01563-.11719-.03125-.08984-.0586-.07422-.07422-.08985-.05859-.10156-.04688h-.14844l-.12109-.02734-.10156-.04297-.07422-.07422-.11719-.17968-.08984-.0586-.10156-.04297-.08985-.0625-.10547-.04296-.08984-.0586-.08594-.0586-.10547-.04687-.0586-.08594-.05858-.08984-.04297-.10547-.04688-.10156-.07422-.07422-.08594-.0586-.07421-.07421-.08985-.0586-.22265-.22265-.04297-.10547-.03125-.26563.10547-.04296h.14453l.10547.04296.07421.07422.08985.0586.08594.0586.10546.04687.08985.05859.14844.14844.0703.07422.14845.14843.0625.08594.07421.07422.08594.0586.07422.07421.08985.0625.08984.0586.08594.05859.26953.17578.10156.04688.10547.04296.10156.04297.04688-.07421.05859-.08594.07422-.07422.07031-.07422.10547.04297.07422.07422.0586.08984.04296.10156.04688.10547.04296.10547.1211.02735.11719-.02735.07421-.08984.04297-.10547.0586-.08985.07422-.07421.10546-.04297.1172-.02735.1328.01172.08985.0586.14844.14843.05859.08985.04297.10547.04687.10156.04297.10547.04297.10156.10547.04688.10547.04296.13281.01563.08594-.0586.0586-.08984.07421-.07422.10547-.04297.11719.02735.10547.04687.10156.04297.10547.04297.10156.04688.17969.11718v.11719l-.01563.13281.01563.13281.01562.13672.0586.08594.10156.04688.1211.02734.11718.03125h.14844l.11719-.03125.05859-.08984.17969-.1172.05859-.08983.07422-.07422.0586-.08594.11718-.17969.17969-.11719.11719.03125.08984.0586.04297.07422-.01563.1328v.1172l.08985.05859h.14843l.13282-.01563.1328-.01171.26563-.03125.10547-.04297.11719-.03125.1211-.02735.07421-.07421.07031-.07422.0625-.08985-.01562-.10547-.04688-.10156-.10156-.04297-.10547-.01562-.11718.02734-.26563.03125h-.14844l-.07421-.07422-.08985-.0586-.11719-.03124-.11718-.02735-.13282-.01562h-.14843l-.13282.01563h-.29687l-.10547-.04688-.14844-.14844-.04297-.10156-.05859-.08984.22266-.22266.08593-.0586.10547-.04296.11719-.03125.13281-.01563.13281.01563.13672.01562.10157.04297.1328-.01172.08985-.0625.10156-.04297.0625-.08984-.04687-.10156-.08984-.0586-.1172-.03125-.10155-.04296-.0586-.08985-.0625-.08984v-.11719l.01563-.13281.10547-.04688.07421-.07031v-.1211l-.08984-.05859-.03125-.11719.08985-.05859.07421-.07422.04297-.10547.0586-.08984.04687-.10156.01563-.13281v-.14844l-.04688-.10547-.04297-.10156-.08984-.0586-.13281-.01562-.10157-.04297-.13671-.01563-.1172-.03125h-.4453l-.13282-.01562-.13281-.01172-.13281-.01563-.11719-.03125h-.14844l-.13281-.01562-.13281-.01172-.26563-.03125-.1211-.04297-.08593-.0586-.07422-.07421v-.14844l.01172-.13281.10547-.04688.10156-.04296.13281-.01563h.15235l.13281-.01562h.29297l.1211.03125.10156.04296.08984.0586.23438.0625.12109-.04688.08984-.05859.10156-.04297.13282-.01562.10547.04296.10156.04688.13281.01172.1211-.02735h.14453l.12109-.03125.11719-.02734.10547-.04687.07421-.07422.08594-.0586.14844-.14843.0586-.08594.04687-.10547.02734-.11719.01563-.10547-.10156-.04296-.08985-.0586-.11719-.03125-.10546-.04297-.08985-.0625-.07422-.08594-.07422-.07421-.10156-.04297-.10547-.04688-.10156-.04297-.0586-.08984-.04687-.10156-.08594-.21094-.0625-.08594-.05859-.08984-.07422-.07422-.08594-.0586h-.26953l-.11719.03126-.08984.05859-.10156.04297-.13281.01562-.10547-.01562-.02735-.11719-.0625-.08984-.11718-.03125-.10157-.04297-.14843-.14844-.03125-.11719-.01563-.10546.07422-.07422.17969-.1172.11719-.02733.11718-.03125.13672.01562.10156.04297.10547.04297.10156.04687.10547.04297.1172.03125.1328.01563.1172.02734.1328.01563.10547-.01563.08985-.0586-.07422-.07421-.10547-.04297-.07422-.07422-.07422-.08984-.14844-.14844-.08593-.0586-.08985-.05859-.07422-.07422-.08984-.0586-.10156-.04687-.1211-.02734-.10156-.04688-.10547-.04296-.11719-.03125-.10156-.04297-.1211-.03125h-.14843l-.11719.03125-.10546.04297-.08594.0625-.17969.11718-.08594.0586-.08984.0586-.10547.04687-.08594.05859-.10547.04297-.10156.04297-.10547.04687-.07422.07422-.05859.08985-.0586.08593-.04687.10547-.0586.08594-.07421.07422-.13281-.01172-.1172-.03125h-.11718l-.07422.07422-.08984.0586-.07422.07421-.08984.0586-.08594.05859-.10547.04687-.10156.04297-.13672.01563-.10156-.04297-.14844-.14844-.10547-.04688h-.08594l-.10547.04688-.10156.04297-.1211.03125-.11718-.03125-.07422-.07422v-.11719l.03125-.1211.07422-.0703.0586-.08985.07421-.07422.11719-.03125.10547-.04296h.29297l.13281-.01563.13672-.01563.10156-.04296.08985-.0586.10156-.04687.08984-.0586.13281-.01171.08985.05859.13281.01172.08984-.0586.08594-.05859.10547-.04297.08984-.0586.08594-.0625.08985-.05859.14843-.14843.0586-.08594.05859-.08985.10547-.04296.13281-.01563.11719.02735.1211.03125.05859-.0586.05859-.08984.03125-.26563.02734-.11719.10547.01172.13281.01563.10157-.04297.08984-.0586.0586-.08984.07421-.07422.0586-.08984.04687-.10156.01172-.13281-.01172-.13282-.04687-.10547-.14844-.14843-.0586-.08985-.05859-.08594-.04297-.10546v-.44532l.01563-.1328v-.14845l.01172-.1328-.0586-.0586-.08984.0586-.10156-.04298-.17969-.11719-.08594-.05859-.0625-.08984-.0586-.08985-.07421-.07421-.08594-.0586-.1211.03125-.10155.01172-.10547.04688-.08594.05859-.10547.04297-.14844.14844-.08984.05859-.08594.0586-.08984.0625-.10547.04296-.13281.01563v-.1211l.10547-.04297.11718-.03125.07422-.0703.04297-.10548v-.14844l-.02734-.11718-.14844-.14844-.13281-.01563h-.14844l-.11719.03125-.10547.04297-.10156.04297-.08984.0625-.11719.02735-.07422-.07422.01172-.13281-.04297-.10157-.04297-.10547-.08984-.05859-.11719.02734-.1211.03125-.11718.03125-.10156.04297-.1211.03125-.10156.04297-.10547.04297-.08984.0586-.10156.01562v-.11719l.01562-.13281-.0586-.08985-.07421.04297-.14844.14844-.0586.08985-.07421.07421-.04688.10547-.04296.10156-.07422.07422-.0586.08985-.07422.07422-.05859.08593-.07422.07422-.08984.0625-.07422.07031-.07422.07422-.10156.01563-.13281.01562-.10547-.04296v-.1211l.14843-.14844.04297-.10156.0586-.08984.04687-.10156.04297-.10547.0586-.08985.03124-.11719.04297-.10156.03125-.1211.02735-.11718.04687-.10547.04297-.10156.04297-.10547.07422-.07031.08984-.0625.08985-.0586.10156-.04296h.29687l.26563-.03125.10547-.04297-.07422-.07422-.11719-.03125-.10547-.04297-.08984-.0586-.10156-.04687-.08985-.0586-.10156-.04296-.10547-.04297-.08984-.0625-.08594-.0586-.10547-.04296-.10156-.04297-.1211-.03125-.11718-.03125-.10157-.04297L297.5 410.25l-.10156-.04297-.08985-.0586-.04296-.10546-.01563-.13281.10156-.04297.13281-.01563.13672.01563.13282-.01563.10156-.04297.0586-.08984.01562-.10547-.08985-.0586-.07421-.07421-.10157-.04297-.08984-.0586-.14844-.14843-.04297-.10547-.01562-.13281v-.29297l-.0586-.08985-.08984-.05859-.07422-.07422-.04297-.10547-.03125-.11718-.0586-.08985-.07421-.07422-.11719-.02734-.07422-.07422-.08984-.0586-.08984-.0625-.08594-.05859-.07422-.07421-.0586-.08594-.04687-.10547-.08594-.0586-.14843-.14843-.19532-.0586-.1328.01563-.10157.04297-.07422.07422-.04688.10156-.04296.10547-.0586.08984-.0586.08594-.29687.29687-.08984.0586h-.08594l-.0625-.08594-.04297-.10547.03125-.11719.0586-.08984.02734-.11719-.01172-.13281-.08984-.0625-.10547.04688-.11719.02734-.11719.03125-.26953.17578-.10156.04688-.11719.02734-.10546.04687-.08985.0586-.10156.04297-.0586-.08594-.04687-.10547.01563-.13281.04687-.10547.07031-.07422.07422-.07031.0586-.08985v-.14843l-.04297-.10547h-.23829l-.10156.04687-.03125.11719-.02734.11719-.03125.1211-.07422.04296-.13281.01563-.07422-.04688-.04297-.10156-.04297-.10547-.04687-.10156-.04297-.10547-.1211.03125-.10156.04297-.13281.01562-.11719.03125-.10547.04297-.08984.0586-.10156.04687-.1211.02734-.13281.01563-.10156-.04297-.0586-.08985-.04687-.10546-.04297-.10157-.04297-.10546v-.1172l.0586-.08984.08593-.05859.17969-.11719.10156-.04687.10547-.04297.10547-.0586.10156-.04296.08985-.0625.10156-.04297.10547-.0586.10156-.04687.08984-.0586.10547-.04296.10156-.04297.08985-.0625.10156-.04297.13672-.01563.11719.03125.10156.04297.1211.03125.10156.04297.10546.04688.10157.04296.10547.04297.10156.04688.10547.04297.10156.04297.10547.04687.08594.0586.10546.04296.1172.03125.10546.04297.10156.04688.08985.0586.10547.04296.10156.04297.10547.04687.11719.02735.10156.04687.1211.02735h.14843l.08594-.0586.01562-.10156.0586-.08984-.02735-.1172-.07422-.07421-.11719-.17969-.07421-.07422-.08985-.07421-.17969-.1172-.08593-.05859-.10547-.04296-.10156-.04688-.26954-.17578-.05859-.08985-.07422-.07421-.0586-.08985-.04296-.10156-.03125-.11719-.01563-.13672v-.5625l-.01171-.1328-.01563-.13282-.03125-.11719-.01562-.13281-.01172-.13281-.03125-.1211-.22266-.22265-.0586-.08594-.01562-.10547.03125-.11719.13281-.01562v-91.41406H172.9922v1.45312l-.0586.23438-.35156 1.05078-.17187.52343-.1172.34766-.17577.41016-.11719.17187-.23438.29297-.23046.0586h-.35157l-.11718.05859-.23047.40625v.29297l.11719.17578.23046.23047.1172.23437.64062.75781.29297.46485.17578.23437.23047.35156.23437.34766.64063.8164.17578.46485.17187.41016.11719.69531.17578.46875.11719 1.39844.0586.46484v.875l.11718 1.04688v4.78125l-.0586.46484-.35156 1.28125-.17578.52344-.11328.41015-.35156.9297L172.93359 336l-.23437.58203-.11719.17578-.17187.34766-.17578.40625-.35157.8164-.0586.29297-.11327.29297-.11719.28906-.0586.17579-.11718.875-.0586.40625-.05859.11718-.0586.17579-.05859.17187-.23047.52734-.11718.17188v.23437l-.11719.23438-.0586.17187-.17577.58594v.28906l-.0586.17579v.29296l-.0586.11329-.05859.52734v.17187l-.05468.23438v2.6211l-.17578.8164-.1172.17578-.17577.23438-.1172.17187-.11327.23438-.58594.93359-.23047.28906-.29297.46485-.17578.23437-.28906.35156-.35156.69922-.11328.23047-.17579.41016-.17578.23046-.40625.52735-.8164.69922-.29297.17187-.28906.23438-.17579.11719-.17578.17578-.52344.40625-.52734.17578-.17187.17578-.23438.05469-.64062.17578h-.75782m12.21094 31.02344l-1.07422.44921.35938.89454 1.25-.71485.44531-.53906-.98047-.08985"/><path fill="#d3d3d3" fill-opacity="0" fill-rule="evenodd" d="M201.50781 416.59766h-.89453l.44922.6289.98047.35938.80469-.08985.4453-.98828-.17577.08985-.71485-.35547-.89453.35547m154.6211 59.0703l-.0586-.52343v-.29297l.11328-.29297.0586-.23046.46875-.46875h.11328l.11719-.11329.11718-.05859h.17579l.23437-.0586h.34766l.23437.0586.11719.0586.23047.17187.0586.17578.11718.58203v.29297l-.11719.17578-.17187.28906-.17579.17579-.52734.52343-.23047.23438-.11719.0586h-.17578l-.11718-.0586-.40625-.29297-.17579-.11719-.11718-.0586-.0586-.11327-.05468-.1172m6.64062-10.95702l-.0586-.17188v-1.10937l.0586-.17188.17578-.0586.17188-.05858h.17578l.23437-.0586.1172.0586.05858.69921-.05859.17188-.11719.17578-.11718.0586-.23438.52343-.11328.0586h-.23438l-.05859-.1172m9.61328-14.39062l-.11719-.17578v-.69922l.29297-.875.1172-.17187.17577-.35156.11328-.23047.1172-.29297.35155-.75781.1172-.23047.17187-.23438h.17578l.11719-.0586h.64062l.11719.0586.23437.23438.17188.11328.35156.29297.11719.11718.11328.17579v.11328l.11719.05859.11718.11719v.69922l-.05859.17578v.23047l-.0586.17578-.34765 1.05078-.11719.23047-.11719.23437-.11718.0586-.23047.23437-.64063.28906h-.875l-.41015-.11718-.64063-.46485"/><path fill="none" stroke="#bebebe" stroke-linecap="round" stroke-linejoin="round" stroke-miterlimit="10" stroke-width=".5" d="M467.95703 311.69531H144.02734v168.625h323.9297v-168.625"/><g clip-path="url(#a)"><path fill="#fff" fill-opacity="0" fill-rule="evenodd" d="M144 475.89063v4.4375h.0039H144V311.67188h.0039H144v164.21875"/></g><g clip-path="url(#b)"><path fill="#fff" fill-opacity="0" fill-rule="evenodd" d="M144.0039 480.32813V311.67188h17.75V432.8125l-2.625 3.13281-.91796 4.4375.13281 4.4375-.35547 4.4414.1289 4.4375-.33984 4.4375-.03515 4.4375 4.01172 3.81642 3.39453.625 1.04297.47265.62109-.47265 3.8164-1.39454 4.4375-1.07812 4.44141-1.92578.08203-.04297.19922-4.4375-.28125-.25-1.2461-4.1875-3.1953-3.48828-.3711-.94922-2.98828-4.4414-1.07812-1.3711-4.03125-3.0664-.40625-.21485-2.19532-4.22266-2.24218-3.13281V311.67187h306.24218v168.65625H144.00391"/></g><path fill="#50fcfc" fill-rule="evenodd" d="M161.7539 466.39063l-4.01171-3.81641.03515-4.4375.33985-4.4375-.1289-4.4375.35546-4.4414-.13281-4.4375.91797-4.4375 2.625-3.13282v4.59375l-1.45703 2.97656-.30079 4.4375-.73047 4.4414.69922 4.4375.21094 4.4375 1.57813 3.46485 2.71093.97266 1.72657.48828.92187-.48828 3.51563-1.3164 4.4375-1.48438 1.23437-1.63672-1.23437-3.8164-.16016-.6211-1.66016-4.4375-2.61718-3.01563-1.82032-1.42578-2.61718-2.48047-2.57813-1.95703-1.85937-2.97656v-4.59375l2.24218 3.13281 2.19532 4.22266.40625.21484 4.03125 3.0664 1.07812 1.3711 2.98828 4.4414.3711.94923 3.1953 3.48828 1.2461 4.1875.28125.25-.19922 4.4375-.08203.04297-4.4414 1.92578-4.4375 1.07812-3.81641 1.39454-.6211.47265-1.04296-.47265-3.39453-.625"/><path fill="#00e8fc" fill-rule="evenodd" d="M159.96484 453.69922l-.69922-4.4375.73047-4.4414.30078-4.4375 1.45704-2.97657 1.85937 2.97656 2.57813 1.95703v3.72266l-4.4375 1.78516-.35938 1.41406.35938 1.27344 2.01172 3.16406 2.42578 2.07422 4.14062-2.07422.29688-1.35156.20312-3.08594-.20312-.23438-4.4375-2.96484v-3.72266l2.61718 2.48047 1.82032 1.42578 2.61718 3.01563 1.66016 4.4375.16016.6211 1.23437 3.8164-1.23437 1.63672-4.4375 1.48437-3.51563 1.3164-.92187.48829-1.72657-.48828-2.71093-.97266-1.57813-3.46484-.21094-4.4375"/><path fill="#00d4fc" fill-rule="evenodd" d="M161.7539 450.53516l-.35937-1.27344.35938-1.41406 4.4375-1.78516 4.4375 2.96484.20312.23438-.20312 3.08594-.29688 1.35156-4.14062 2.07422-2.42578-2.07422-2.01172-3.16406"/><g clip-path="url(#c)"><path fill="#fff" fill-opacity="0" fill-rule="evenodd" d="M467.9961 480.32813H468V311.67188h-.0039H468v168.65625h-.0039"/></g><g clip-path="url(#d)"><path fill="none" stroke="#000" stroke-linecap="round" stroke-linejoin="round" stroke-miterlimit="10" stroke-width=".5" d="M147.38281 479.375l-6.76562 1.90625"/></g><g clip-path="url(#e)"><path fill="none" stroke="#000" stroke-linecap="round" stroke-linejoin="round" stroke-miterlimit="10" stroke-width=".5" d="M147.38281 479.375l1.69531 1.77344"/></g><g clip-path="url(#f)"><path fill="none" stroke="#000" stroke-linecap="round" stroke-linejoin="round" stroke-miterlimit="10" stroke-width=".5" d="M146.39844 479.65234l1.69531 1.77344"/></g><g clip-path="url(#g)"><path fill="none" stroke="#000" stroke-linecap="round" stroke-linejoin="round" stroke-miterlimit="10" stroke-width=".5" d="M160.69531 479.36328l-6.75781 1.92969"/></g><g clip-path="url(#h)"><path fill="none" stroke="#000" stroke-linecap="round" stroke-linejoin="round" stroke-miterlimit="10" stroke-width=".5" d="M160.69531 479.36328l1.69922 1.76953"/></g><g clip-path="url(#i)"><path fill="none" stroke="#000" stroke-linecap="round" stroke-linejoin="round" stroke-miterlimit="10" stroke-width=".5" d="M159.71094 479.64453l1.70312 1.76953"/></g><g clip-path="url(#j)"><path fill="none" stroke="#000" stroke-linecap="round" stroke-linejoin="round" stroke-miterlimit="10" stroke-width=".5" d="M173.91797 479.09375l-6.57813 2.46875"/></g><g clip-path="url(#k)"><path fill="none" stroke="#000" stroke-linecap="round" stroke-linejoin="round" stroke-miterlimit="10" stroke-width=".5" d="M173.91797 479.09375l1.83984 1.6211"/></g><g clip-path="url(#l)"><path fill="none" stroke="#000" stroke-linecap="round" stroke-linejoin="round" stroke-miterlimit="10" stroke-width=".5" d="M172.96094 479.45313l1.83984 1.62109"/></g><g clip-path="url(#m)"><path fill="none" stroke="#000" stroke-linecap="round" stroke-linejoin="round" stroke-miterlimit="10" stroke-width=".5" d="M187.1289 478.84375l-6.36718 2.97266"/></g><g clip-path="url(#n)"><path fill="none" stroke="#000" stroke-linecap="round" stroke-linejoin="round" stroke-miterlimit="10" stroke-width=".5" d="M187.1289 478.84375l1.96094 1.47656"/></g><g clip-path="url(#o)"><path fill="none" stroke="#000" stroke-linecap="round" stroke-linejoin="round" stroke-miterlimit="10" stroke-width=".5" d="M186.20313 479.27344l.98046.73828"/></g><g clip-path="url(#p)"><path fill="none" stroke="#000" stroke-linecap="round" stroke-linejoin="round" stroke-miterlimit="10" stroke-width=".5" d="M200.39063 478.73438l-6.26172 3.1875"/></g><g clip-path="url(#q)"><path fill="none" stroke="#000" stroke-linecap="round" stroke-linejoin="round" stroke-miterlimit="10" stroke-width=".5" d="M200.39063 478.73438l2.01171 1.41015"/></g><g clip-path="url(#r)"><path fill="none" stroke="#000" stroke-linecap="round" stroke-linejoin="round" stroke-miterlimit="10" stroke-width=".5" d="M199.48047 479.19922l1.0039.70312"/></g><g clip-path="url(#s)"><path fill="none" stroke="#000" stroke-linecap="round" stroke-linejoin="round" stroke-miterlimit="10" stroke-width=".5" d="M213.79297 478.91797l-6.4375 2.82031"/></g><g clip-path="url(#t)"><path fill="none" stroke="#000" stroke-linecap="round" stroke-linejoin="round" stroke-miterlimit="10" stroke-width=".5" d="M213.79297 478.91797l1.92578 1.52344"/></g><g clip-path="url(#u)"><path fill="none" stroke="#000" stroke-linecap="round" stroke-linejoin="round" stroke-miterlimit="10" stroke-width=".5" d="M212.85547 479.32813l.96484.76171"/></g><g clip-path="url(#v)"><path fill="none" stroke="#000" stroke-linecap="round" stroke-linejoin="round" stroke-miterlimit="10" stroke-width=".5" d="M227.08984 478.8711l-6.39843 2.91406"/></g><g clip-path="url(#w)"><path fill="none" stroke="#000" stroke-linecap="round" stroke-linejoin="round" stroke-miterlimit="10" stroke-width=".5" d="M227.08984 478.8711l1.94532 1.49609"/></g><g clip-path="url(#x)"><path fill="none" stroke="#000" stroke-linecap="round" stroke-linejoin="round" stroke-miterlimit="10" stroke-width=".5" d="M226.15625 479.29688l.97266.74609"/></g><g clip-path="url(#y)"><path fill="none" stroke="#000" stroke-linecap="round" stroke-linejoin="round" stroke-miterlimit="10" stroke-width=".5" d="M240.20313 478.5l-5.9961 3.66016"/></g><path fill="none" stroke="#000" stroke-linecap="round" stroke-linejoin="round" stroke-miterlimit="10" stroke-width=".5" d="M240.20313 478.5l2.11328 1.2461m-2.98438-.71485l1.05469.625"/><g clip-path="url(#z)"><path fill="none" stroke="#000" stroke-linecap="round" stroke-linejoin="round" stroke-miterlimit="10" stroke-width=".5" d="M253.4375 478.3711l-5.83594 3.91406"/></g><path fill="none" stroke="#000" stroke-linecap="round" stroke-linejoin="round" stroke-miterlimit="10" stroke-width=".5" d="M253.4375 478.3711l2.16406 1.16015m-3.01172-.58984l1.08203.57812"/><g clip-path="url(#A)"><path fill="none" stroke="#000" stroke-linecap="round" stroke-linejoin="round" stroke-miterlimit="10" stroke-width=".5" d="M266.90625 478.6211l-6.14063 3.41406"/></g><g clip-path="url(#B)"><path fill="none" stroke="#000" stroke-linecap="round" stroke-linejoin="round" stroke-miterlimit="10" stroke-width=".5" d="M266.90625 478.6211l2.0586 1.33593"/></g><g clip-path="url(#C)"><path fill="none" stroke="#000" stroke-linecap="round" stroke-linejoin="round" stroke-miterlimit="10" stroke-width=".5" d="M279.6836 477.89063l-5.0625 4.875"/></g><path fill="none" stroke="#000" stroke-linecap="round" stroke-linejoin="round" stroke-miterlimit="10" stroke-width=".5" d="M279.6836 477.89063l2.33202.76171"/><g clip-path="url(#D)"><path fill="none" stroke="#000" stroke-linecap="round" stroke-linejoin="round" stroke-miterlimit="10" stroke-width=".5" d="M292.55469 477.5039l-4.17578 5.65235"/></g><path fill="none" stroke="#000" stroke-linecap="round" stroke-linejoin="round" stroke-miterlimit="10" stroke-width=".5" d="M291.94531 478.32422l1.21485.17969"/><g clip-path="url(#E)"><path fill="none" stroke="#000" stroke-linecap="round" stroke-linejoin="round" stroke-miterlimit="10" stroke-width=".5" d="M305.96484 477.57422l-4.36718 5.50781"/></g><path fill="none" stroke="#000" stroke-linecap="round" stroke-linejoin="round" stroke-miterlimit="10" stroke-width=".5" d="M305.32813 478.3789l1.20703.21876"/><g clip-path="url(#F)"><path fill="none" stroke="#000" stroke-linecap="round" stroke-linejoin="round" stroke-miterlimit="10" stroke-width=".5" d="M319.34375 477.6289l-4.4961 5.40235"/></g><path fill="none" stroke="#000" stroke-linecap="round" stroke-linejoin="round" stroke-miterlimit="10" stroke-width=".5" d="M318.6875 478.41406l1.20313.25"/><g clip-path="url(#G)"><path fill="none" stroke="#000" stroke-linecap="round" stroke-linejoin="round" stroke-miterlimit="10" stroke-width=".5" d="M332.8125 477.76563l-4.80469 5.125"/></g><path fill="none" stroke="#000" stroke-linecap="round" stroke-linejoin="round" stroke-miterlimit="10" stroke-width=".5" d="M332.11328 478.51172l1.1875.32031"/><g clip-path="url(#H)"><path fill="none" stroke="#000" stroke-linecap="round" stroke-linejoin="round" stroke-miterlimit="10" stroke-width=".5" d="M346.49219 478.16016l-5.53125 4.33593"/></g><path fill="none" stroke="#000" stroke-linecap="round" stroke-linejoin="round" stroke-miterlimit="10" stroke-width=".5" d="M345.6875 478.79297l1.1211.4961"/><g clip-path="url(#I)"><path fill="none" stroke="#000" stroke-linecap="round" stroke-linejoin="round" stroke-miterlimit="10" stroke-width=".5" d="M359.98047 478.40625l-5.8789 3.84375"/></g><path fill="none" stroke="#000" stroke-linecap="round" stroke-linejoin="round" stroke-miterlimit="10" stroke-width=".5" d="M359.125 478.96484l1.07813.59375"/><g clip-path="url(#J)"><path fill="none" stroke="#000" stroke-linecap="round" stroke-linejoin="round" stroke-miterlimit="10" stroke-width=".5" d="M373.4414 478.65234l-6.17187 3.35547"/></g><g clip-path="url(#K)"><path fill="none" stroke="#000" stroke-linecap="round" stroke-linejoin="round" stroke-miterlimit="10" stroke-width=".5" d="M372.54688 479.14063l1.01953.67578"/></g><g clip-path="url(#L)"><path fill="none" stroke="#000" stroke-linecap="round" stroke-linejoin="round" stroke-miterlimit="10" stroke-width=".5" d="M386.9961 479.19922l-6.65235 2.26172"/></g><g clip-path="url(#M)"><path fill="none" stroke="#000" stroke-linecap="round" stroke-linejoin="round" stroke-miterlimit="10" stroke-width=".5" d="M386.03125 479.52734l.89063.83985"/></g><g clip-path="url(#N)"><path fill="none" stroke="#000" stroke-linecap="round" stroke-linejoin="round" stroke-miterlimit="10" stroke-width=".5" d="M398.00781 480.32813l-.01953-.19922-.0586-.19141-.09374-.17578-.45703-.3789-.19141-.0586-.20313-.01953-.19921.01953-.19141.0586-.45703.3789-.09375.17578-.0586.1914-.01953.19923.01954.19921.05859.19141.09375.17969.45703.375.1914.0586.19923.01952.20312-.01953.1914-.0586.45704-.375.09375-.17968.0586-.1914.01952-.19922"/></g><g clip-path="url(#O)"><path fill="none" stroke="#000" stroke-linecap="round" stroke-linejoin="round" stroke-miterlimit="10" stroke-width=".5" d="M413.61328 481.5039l-6.6211-2.35156"/></g><g clip-path="url(#P)"><path fill="none" stroke="#000" stroke-linecap="round" stroke-linejoin="round" stroke-miterlimit="10" stroke-width=".5" d="M412.64844 481.16406l.17969 1.21094"/></g><g clip-path="url(#Q)"><path fill="none" stroke="#000" stroke-linecap="round" stroke-linejoin="round" stroke-miterlimit="10" stroke-width=".5" d="M426.72266 478.6836l-6.21094 3.28906"/></g><g clip-path="url(#R)"><path fill="none" stroke="#000" stroke-linecap="round" stroke-linejoin="round" stroke-miterlimit="10" stroke-width=".5" d="M425.8164 479.16406l1.01563.6875"/></g><g clip-path="url(#S)"><path fill="none" stroke="#000" stroke-linecap="round" stroke-linejoin="round" stroke-miterlimit="10" stroke-width=".5" d="M439.98828 478.59766l-6.11328 3.46093"/></g><g clip-path="url(#T)"><path fill="none" stroke="#000" stroke-linecap="round" stroke-linejoin="round" stroke-miterlimit="10" stroke-width=".5" d="M439.98828 478.59766l2.07031 1.3164"/></g><g clip-path="url(#U)"><path fill="none" stroke="#000" stroke-linecap="round" stroke-linejoin="round" stroke-miterlimit="10" stroke-width=".5" d="M453.38672 478.75l-6.28125 3.15625"/></g><g clip-path="url(#V)"><path fill="none" stroke="#000" stroke-linecap="round" stroke-linejoin="round" stroke-miterlimit="10" stroke-width=".5" d="M452.47266 479.21094l1 .70703"/></g><g clip-path="url(#W)"><path fill="none" stroke="#000" stroke-linecap="round" stroke-linejoin="round" stroke-miterlimit="10" stroke-width=".5" d="M466.82813 479.03516l-6.53125 2.58984"/></g><g clip-path="url(#X)"><path fill="none" stroke="#000" stroke-linecap="round" stroke-linejoin="round" stroke-miterlimit="10" stroke-width=".5" d="M466.82813 479.03516l1.86718 1.58593"/></g><g clip-path="url(#Y)"><path fill="none" stroke="#000" stroke-linecap="round" stroke-linejoin="round" stroke-miterlimit="10" stroke-width=".5" d="M147.32422 465.8789l-6.64844 2.26954"/></g><path fill="none" stroke="#000" stroke-linecap="round" stroke-linejoin="round" stroke-miterlimit="10" stroke-width=".5" d="M147.32422 465.8789l1.79297 1.67579m-2.76172-1.34766l1.79297 1.67969m12.46875-2.07422l-6.60547 2.40234m6.60547-2.40234l1.82422 1.64063m-2.78516-1.29297l1.82422 1.64453m12.33984-2.26563l-6.3789 2.94922m6.3789-2.94922l1.95313 1.48438m-2.88281-1.05469l1.95703 1.48047m12.20703-2.07031l-6.21875 3.26953m6.21875-3.26953l2.02734 1.3828m-2.92969-.90624l2.02735 1.38281m12.03906-2.11719l-5.91797 3.78516m5.91797-3.78516l2.14063 1.20313m-3-.65235l2.13671 1.20313m12.1211-1.6211l-6.08203 3.51954m6.08203-3.51953l2.08203 1.29687m-2.96875-.78515l2.08203 1.29687m12.03906-1.9414l-5.92187 3.78515m5.92187-3.78516l2.13672 1.20703m-3-.65625l2.13672 1.20313m11.58984-2.32031l-5.01953 4.91797m5.01953-4.91797l2.33985.73828m-3.07031-.02344l2.33984.74219m11.58984-1.57031l-4.78906 5.14453m4.78906-5.14453l2.3711.6328m-3.06641.1172l2.3711.6328m11.4375-1.55468l-4.38282 5.48828m4.38281-5.48828l2.41407.44922m-3.05079.34766l2.41016.45312m11.40235-1.35937l-4.10157 5.70703m4.10156-5.70703l2.4297.33203m-3.02735.5l1.21484.16406m12.66406-1.01953l-4.03515 5.7539m4.03515-5.7539l2.4336.30078m-3.02344.53516l1.21875.15234m12.29297-1.22656l-3.25 6.23047m3.25-6.23047l2.45313-.01953m11.48046.43359l-4.48828 5.40234m4.48828-5.40234l2.40235.4961m11-.42579l-4.66016 5.26172m4.66016-5.26172l2.38281.57422m11-.50781l-4.80078 5.1289m4.80078-5.1289l2.3711.63672m10.80468-.76563l-4.51562 5.38672m4.51562-5.38672l2.39844.51172m11.6914.41016l-6.0664 3.54297m5.1836-3.02735l1.04296.64453m10.96875-2.79687l-1.69531 6.8164m1.44922-5.82421l1.1875-.30078m11-.75782l1.05078 6.94922m-.89844-5.9375l.98438-.73047m15.97656 1.92188l-6.54688 2.54687m5.59766-2.17968l.92578.80078m13.26172-1.35547l-6.39453 2.91797m6.39453-2.91797l1.94922 1.4961m10.9375-2.19923l-5.53516 4.32422m5.53516-4.32422l2.24219.9961m10.78906-1.32032L447.76172 469.5m4.96875-4.97266l2.34766.71875m11.96875 1.33594l-6.97266.86328"/><g clip-path="url(#Z)"><path fill="none" stroke="#000" stroke-linecap="round" stroke-linejoin="round" stroke-miterlimit="10" stroke-width=".5" d="M467.04688 466.58203l1.41015 2.00781"/></g><g clip-path="url(#aa)"><path fill="none" stroke="#000" stroke-linecap="round" stroke-linejoin="round" stroke-miterlimit="10" stroke-width=".5" d="M147.32031 452.54688l-6.64062 2.30468"/></g><path fill="none" stroke="#000" stroke-linecap="round" stroke-linejoin="round" stroke-miterlimit="10" stroke-width=".5" d="M147.32031 452.54688l1.79688 1.66796m-2.76172-1.33203l1.79687 1.66797m12.47266-2.03516l-6.61719 2.3672m6.61719-2.3672l1.8125 1.65235m-2.77734-1.3086l1.8164 1.65235m12.44922-2.03516l-6.58984 2.4414m6.58984-2.4414l1.83203 1.63281m-2.79297-1.27734l1.83594 1.63281m-2.79297-1.27734l.91797.8164m14.1289-1.9414l-6.21874 3.26953m6.21875-3.26953l2.02734 1.38281m-2.9336-.90625l2.03126 1.38281m-2.9336-.90625l1.01172.69141m13.82422-2.10156l-5.64453 4.1875m5.64453-4.1875l2.21484 1.05469m-3.03515-.44532l2.21484 1.0547m11.72656-1.90626l-5.2539 4.66797m5.2539-4.66797l2.29688.85547m-3.0625-.17578l2.30078.85547m11.78906-1.52344l-5.27343 4.64453m5.27343-4.64453l2.29688.86719m-3.0664-.1914l2.29687.86718m11.66406-1.67578l-5.02734 4.91015m5.02734-4.91015l2.33984.7461m-3.0703-.03126l2.33593.7461m11.24219-1.85938l-4.09375 5.71094m4.09375-5.71094l2.43359.32422m-3.02734.5039l1.21484.16407m12.02734-1.36719l-2.7578 6.46094m2.7578-6.46094l2.44532-.21094m-2.84766 1.14844l1.22266-.10156m12.62109-.78125l-3.01172 6.35156m3.01172-6.35156l2.44922-.11328m-2.88672 1.03906l1.22266-.0586m13.54687-.14062l-5.04297 4.89453m5.04297-4.89453l2.33594.7539m-3.07031-.03906l1.16797.375m12.3125-1.5625l-3.90625 5.83985m3.90625-5.83985l2.4414.25m-3.00781.60157l2.4375.24609m11.76172-.85938l-4.54297 5.36329m4.54297-5.36329l2.39844.52344m-3.0586.25781l1.19922.26172m12.63281-1.15625l-4.25781 5.59375m4.25781-5.59375l2.42188.39453m10.8711-.41406l-4.21095 5.6289m4.21094-5.6289l2.42188.375m10.375-.69531l-3.17578 6.26953m3.17578-6.26953l2.45312-.04688m8.23047-.17187l2.08984 6.71094m-1.78515-5.73438l.86328-.8711m14.60937.03516l-2.83593 6.4297m17.24218-5.67188l-5.01953 4.91406m4.28907-4.19922l1.17187.3711m13.8164.72656l-6.90624 1.28906m6.90625-1.28906l1.53125 1.91797m11.84375-1.21875l-7.02735-.11329m7.02735.11329l1.11718 2.1875m-2.14062-2.20313l.5586 1.09375m13.37109-2.77734l-6.20703 3.28906m6.20703-3.28906l2.03125 1.3711m10.78515-2.08204l-5.21093 4.71094m5.21093-4.71094l2.3086.83203m11.36328-.3711l-5.92188 3.78516"/><g clip-path="url(#ab)"><path fill="none" stroke="#000" stroke-linecap="round" stroke-linejoin="round" stroke-miterlimit="10" stroke-width=".5" d="M466.52344 451.80469l2.13672 1.20703"/></g><g clip-path="url(#ac)"><path fill="none" stroke="#000" stroke-linecap="round" stroke-linejoin="round" stroke-miterlimit="10" stroke-width=".5" d="M147.3125 439.21094l-6.625 2.34765"/></g><path fill="none" stroke="#000" stroke-linecap="round" stroke-linejoin="round" stroke-miterlimit="10" stroke-width=".5" d="M147.3125 439.21094l1.8086 1.65625m-2.77344-1.3164l1.80859 1.65624m12.53516-1.80078l-6.75 1.95313m6.75-1.95313l1.70703 1.76172m-2.6914-1.47656l1.71093 1.7578m-2.6914-1.47265l1.70702 1.75781m13.38672-2.82421l-6.3789 2.9453m6.3789-2.9453l1.95313 1.48437m-2.88281-1.05469l1.95703 1.48047m-2.88282-1.05469l.97657.7422m14.04297-1.88673l-6.07813 3.52344m6.07813-3.52344l2.08203 1.29688m-2.96485-.78516l2.08203 1.30078m-2.96875-.78515l1.04297.64843m13.83203-1.99609l-5.66015 4.16797m5.66015-4.16797l2.21094 1.0625m-3.03516-.45703l2.21094 1.0625m11.92969-1.66406l-5.66406 4.15625m5.66406-4.15625l2.21094 1.0664m-3.03516-.46093l1.10547.53125m12.61328-1.61329l-4.82031 5.10938m4.82031-5.10938l2.36719.64844m-3.0664.09375l2.36327.64844m11.41407-1.59375l-4.34766 5.51953m4.34766-5.51953l2.41406.4336m-3.04688.36718l2.41407.4375m10.86718-1.65234l-3.01172 6.34765m3.01172-6.34765l2.44922-.11328m-2.88672 1.03515l1.22266-.05469m12.98828-.60937l-3.92969 5.82812m3.9297-5.82812l2.4375.25781m10.89452-.24219l-3.96484 5.80079m3.96484-5.80079l2.4375.26954m-3.01562.57421l1.22265.13282m12.57032-1.04297l-3.76172 5.9336m3.76172-5.9336l2.4453.1836m-2.99218.67968l1.22266.09375m13.0625-.64453l-4.60938 5.30469m4.60938-5.3047l2.39062.55079m-3.0625.22266l1.19532.27343m11.9453-1.58984l-2.91796 6.39062m2.91797-6.39062l2.44922-.14844m10.93359.17969l-3.05469 6.32812m3.05469-6.32812l2.45313-.09375m11.67578.63672l-4.6797 5.24219m4.6797-5.2422l2.3828.58204m10.96095-.55469l-4.73828 5.1914m4.73828-5.1914l2.375.60938m8.51172-1.52735l.12109 7.02735m-.10547-6.0039l1.07422-.59767m10.125.31641l4.32031 5.53906m-3.6914-4.73437l.5-1.11719m16.5664.35938l-4.4414 5.4453m3.79687-4.65234l1.20313.23829m14.05078 1.65234l-7.02735.08203m7.02735-.08203l1.17578 2.15234m-2.19922-2.14062l.58594 1.07422m13.73047-.66407L420.125 440m6.98438.76562l.91015 2.28125m-1.92578-2.39062l.45313 1.13672m13.58203-2.8711l-6.39453 2.92188m6.39453-2.92188l1.9453 1.4922m10.45704-2.69923l-4.57031 5.33594m3.90625-4.5586l1.19922.26954m12.8164-1.01563l-4.64062 5.27735m3.96484-4.51172l1.1914.28125"/><g clip-path="url(#ad)"><path fill="none" stroke="#000" stroke-linecap="round" stroke-linejoin="round" stroke-miterlimit="10" stroke-width=".5" d="M147.48047 426.59766l-6.96094.9414"/></g><path fill="none" stroke="#000" stroke-linecap="round" stroke-linejoin="round" stroke-miterlimit="10" stroke-width=".5" d="M147.48047 426.59766l1.4336 1.99218m-2.44532-1.85546l1.4336 1.99218m-2.44532-1.85547l1.42969 1.9922m13.71875-3.02735l-6.58203 2.46484m6.58203-2.46484l1.83984 1.625m-2.79687-1.26563l1.83984 1.625m-2.79687-1.26562l.91797.8125m13.99609-2.16797l-5.94922 3.73828m5.94922-3.73828l2.1289 1.22265m-2.99609-.67968l2.1289 1.22265m-2.99218-.67578l1.0625.60938m14.09375-1.50782l-6.17578 3.35547m6.17578-3.35547l2.04688 1.35547m-2.94532-.86718l2.04688 1.35546m-2.94531-.86718l1.02343.67969m13.96875-1.86329l-5.92969 3.76953m5.9297-3.76953l2.1328 1.21094m-2.99609-.66406l2.13281 1.21094m12.10938-1.65235l-6.0625 3.5586m6.0625-3.5586l2.08984 1.28906m-2.97265-.76953l2.08984 1.28516m12.1211-1.78125l-6.08594 3.51172m6.08593-3.51172l2.08203 1.30078m-2.96875-.78906l2.08204 1.30078m12.07422-1.89063l-5.9922 3.66797m5.9922-3.66797l2.11328 1.2461m-2.98828-.71485l2.11718 1.2461m-2.98828-.71094l1.0586.625m14.0664-1.57812l-6.125 3.4414m6.125-3.4414l2.0664 1.32421m-2.95702-.82421l2.0664 1.32421m12.07422-1.9375l-5.9961 3.66797m5.9961-3.66797l2.11328 1.25m-2.98437-.71484l2.11328 1.2461m11.80469-2.16016l-5.45703 4.42578m5.45703-4.42578l2.26172.95703m-3.0547-.3125l1.12891.47656m12.47266-1.6289l-4.44531 5.4414m4.44531-5.4414l2.40625.48046m-3.05078.3125l1.20312.23829m13.0547-.75782l-5.03907 4.89453m5.03906-4.89453l2.33594.75m11.29687-.375l-5.67578 4.14453m5.67578-4.14453l2.20704 1.07032m11.3125-.75782l-6.08594 3.51953m5.19922-3.0078l1.04297.65234m13.5625-.08204l-6.89454 1.35938m6.89454-1.35938l1.55078 1.90235m11.40234-2.91016l-6.16797 3.3711m6.16797-3.3711l2.05078 1.34766m10.80469-1.9961l-5.25 4.66797m19.42969-1.90625l-6.97657-.85547m6.97657.85547l.8789 2.28907m12.45313-2.47657l-7.01172-.48047m7.01172.48047l1 2.23828m-2.01953-2.30859l.5 1.11719m13.7539-.50781l-6.85156-1.5586m6.85156 1.5586l.64453 2.36718m-1.64062-2.59375l.64453 2.3672m13.71094-2.3711l-6.9414-1.09766m6.9414 1.09766l.80078 2.3164m-1.8086-2.47656l.80079 2.32031m12.77343-4.93359l-5.4414 4.44922m5.4414-4.44922l2.26172.94922m10.17969-1.71485l-3.69531 5.98047m3.69531-5.98047l2.44922.16016m-2.98828.71094l1.22656.07812m12.46094-1.04687l-3.35938 6.17578m3.35938-6.17578l2.45312.02344"/><g clip-path="url(#ae)"><path fill="none" stroke="#000" stroke-linecap="round" stroke-linejoin="round" stroke-miterlimit="10" stroke-width=".5" d="M147.51172 413.78906l-7.02344-.07031"/></g><path fill="none" stroke="#000" stroke-linecap="round" stroke-linejoin="round" stroke-miterlimit="10" stroke-width=".5" d="M147.51172 413.78906l1.13281 2.17578m-2.15234-2.1875l.5625 1.08985m13.76562-.89844l-7.01172-.42969m7.01172.42969l1.01953 2.23047m-2.03906-2.29297l1.01953 2.23047m-2.03906-2.29297l.50781 1.11719m14.82813-1.64453l-6.97266.875m6.97266-.875l1.41015 2.0078m-2.42578-1.8789l1.41406 2.0039m-2.42968-1.8789l.70703 1.0039m14.59766-1.51562L180.5 414.44922m6.89063-1.39063l1.55859 1.89454m-2.5625-1.69532l1.5586 1.89844m12.82421-1.5586l-7.01953.3125m7.01953-.3125l1.2461 2.11329m-2.26563-2.0664l1.2461 2.11327m13.09374-1.94531l-7.02734-.11719m7.02734.11719l1.11328 2.1836m-2.13671-2.19922l1.11328 2.18359m13.0625-3.28125l-6.70313 2.10547m6.70313-2.10547l1.75 1.72266m-2.72656-1.41407l1.75 1.71875m12.24609-2.71093l-6.10938 3.47265m6.10938-3.47265l2.07031 1.3164m-2.96094-.8086l2.07032 1.3125m12.1875-1.71874l-6.21875 3.27344m6.21875-3.27344l2.02734 1.3789m-2.92969-.90234l1.01172.6875m13.23047-1.11719l-6.26563 3.17969m6.26563-3.17969l2.00781 1.41016m11.03516-1.85938l-5.72266 4.07422m5.72266-4.07422l2.19531 1.09766m11.1289-1.08594l-5.74218 4.05078m5.74219-4.05078l2.1914 1.10938M292.5 412.3164l1.09766.55468m13.58593 0l-6.80468 1.76563m5.8125-1.50781l.83203.90234m13.32812-1.59766l-6.51172 2.64063m5.56641-2.25781l.9375.78906m12.51172 2.67187l-4.88672-5.04687m4.17578 4.3125l-.3789 1.16797m15.29296-1.83985l-6.66406-2.23437m5.6914 1.91016l.20313 1.21093m14.26563-1.89843l-7.02735-.21485m6.00391.1836l.54297 1.10156m13.61328-2.29297l-6.66406 2.23437m6.66406-2.23437l1.78125 1.6875m11.67969-1.07813l-6.95313 1.01563m6.95313-1.01563l1.45312 1.97657m-2.46484-1.82813l.72656.98828m13.63672-.61718l-7.02734-.02344m7.02734.02344l1.14453 2.17187m-2.16797-2.17578l.57422 1.08594m13.75781-1.3125l-7.01562.4375m7.01562-.4375l1.28516 2.08984m-2.30469-2.02734l.64063 1.04687m13.69531-1.04687l-7.01953.3125m7.01953-.3125l1.25 2.11328m-2.26953-2.07031l.625 1.05859m13.61719-1.77344l-6.83204 1.65625m6.83204-1.65625l1.6289 1.83203m11.5-2.39062l-6.45703 2.77344m6.45703-2.77344l1.91016 1.53515m11.60937-.89453L460.12891 414.5"/><g clip-path="url(#af)"><path fill="none" stroke="#000" stroke-linecap="round" stroke-linejoin="round" stroke-miterlimit="10" stroke-width=".5" d="M466.9961 413.00781l1.58593 1.8711"/></g><g clip-path="url(#ag)"><path fill="none" stroke="#000" stroke-linecap="round" stroke-linejoin="round" stroke-miterlimit="10" stroke-width=".5" d="M147.38281 401.39063l-6.76562-1.90235"/></g><path fill="none" stroke="#000" stroke-linecap="round" stroke-linejoin="round" stroke-miterlimit="10" stroke-width=".5" d="M147.38281 401.39063l.52344 2.39453m-1.50781-2.67188l.26172 1.19922m14.09375-1.15625l-6.87891-1.4375m6.8789 1.4375l.6836 2.35938m-1.6836-2.56641l.6836 2.35547m13.6289-2.13672l-6.875-1.46094m6.875 1.46094l.67579 2.35937m-1.67578-2.5703l.33984 1.17968m14.03906-1.41016l-7-.57812m7 .57812l.97266 2.2539m12.23047-1.61327l-6.77735-1.85547m6.77735 1.85547l.53906 2.39062m-1.52344-2.66015l.26953 1.1953m14.10157-2.46093l-6.92188 1.21094m6.92188-1.21094l1.5078 1.9375m11.85548-1.125l-7.01563-.41406m7.01563.41406l1.01953 2.23438m-2.03906-2.29297l.5078 1.11719m13.79298-1.77735l-6.94922 1.02735m6.94922-1.02735l1.45703 1.97266m-2.46875-1.82422l.73047.98828m13.14453-2.41406l-6.04688 3.57812m6.04688-3.57812l2.09766 1.27734m-2.97657-.75781l1.04688.64062m13.27344-.92968L260.6875 402m6.29688-3.1211l1.99218 1.4297m-2.91015-.97657l1 .71485m13.23828-1.16016L274 401.98828m6.30469-3.10156l1.98828 1.4375m-2.90625-.98438l.9961.71485m12.78124-1.86719l-5.39453 4.5039m5.39453-4.5039l2.27344.92188m10.52734-1.42188l-4.37109 5.5039m3.73828-4.70312l1.20313.22266m13.61718-.0039l-6.11328 3.46483m6.11328-3.46484l2.07032 1.3125m11.39453-1.01562l-6.41406 2.86718m6.41406-2.86718l1.9375 1.5078m11.41015-1.4375l-6.47656 2.72657m5.53516-2.32812l.94922.77343m11.1875 3.52344l-2.23828-6.66406m1.91015 5.69531l-.84375.89063m14.29297.13671l-1.85156-6.77734m1.58203 5.78906l-.89453.84375m16.78906-4.61718l-6.46875 2.74218m6.46875-2.74218l1.90625 1.54687m11.6875-.19922l-7.02734.05078m7.02734-.05078l1.16797 2.15625m12.07031-1.40234l-6.875-1.45703m6.875 1.45703l.67969 2.35547m12.40234-1.64453l-6.40625-2.88282m6.40625 2.88282l.16016 2.44921m13.38672-3.16015l-6.8711-1.45703m6.8711 1.45703l.67969 2.35547m12.71484-3.10938l-7.02734.05078m7.02734-.05078l1.16797 2.15625m-2.1914-2.14844l.58202 1.07813m13.6836-1.76172l-6.88672 1.39844"/><g clip-path="url(#ah)"><path fill="none" stroke="#000" stroke-linecap="round" stroke-linejoin="round" stroke-miterlimit="10" stroke-width=".5" d="M467.0039 399.73828l1.5625 1.89453"/></g><path fill="none" stroke="#000" stroke-linecap="round" stroke-linejoin="round" stroke-miterlimit="10" stroke-width=".5" d="M466.0039 399.9414l.77735.94532"/><g clip-path="url(#ai)"><path fill="none" stroke="#000" stroke-linecap="round" stroke-linejoin="round" stroke-miterlimit="10" stroke-width=".5" d="M147.26563 388.41797l-6.53125-2.58985"/></g><path fill="none" stroke="#000" stroke-linecap="round" stroke-linejoin="round" stroke-miterlimit="10" stroke-width=".5" d="M147.26563 388.41797l.27343 2.4414m-1.22265-2.8164l.13672 1.21875m14.24609-1.1914l-6.76563-1.89454m6.76563 1.89453l.52344 2.39844m-1.50782-2.67188l.26172 1.19532m14.09766-1.17578l-6.88672-1.38672m6.88672 1.38672l.70312 2.35156m-1.70703-2.55078l.35156 1.17187m13.54688.125l-6.04688-3.58203m6.04688 3.58203l-.11328 2.45313m11.53125-.91797l-2.2539-6.65235m1.92577 5.6875l-.83984.89063m16.86328-3.01563l-7.01172-.47265m7.01172.47265l1 2.2422m-2.01953-2.3086l1 2.23828m13.30078-1.88281l-6.94531-1.05078m6.94531 1.05078l.8164 2.3164m-1.82812-2.46875l.8164 2.31641m13.54688-2.8164l-7.01953.2539m7.01953-.2539l1.23047 2.12109m-2.25-2.08594l1.23047 2.125m13.10156-2.28125l-7.01172.4961m7.01172-.4961l1.30078 2.08203m-2.32421-2.00781l1.30468 2.07812m12.97266-2.58984l-6.89063 1.3711m6.89063-1.3711l1.55469 1.89844m-2.5586-1.69922l1.5547 1.89844m12.66015-2.4961l-6.6836 2.16797m6.6836-2.16797l1.76562 1.70703m-2.73828-1.39062l1.76563 1.70703m12.45703-2.20703l-6.55469 2.53515m6.55469-2.53515l1.85547 1.60547m-2.8086-1.23828l1.85547 1.60546m12.1914-2.4375l-6.11327 3.46485m6.11328-3.46485l2.07031 1.31641m-2.95703-.8125l2.07031 1.3164m-2.96094-.8125l1.03516.66016m14.03516-1.71093l-6.06641 3.55078m6.0664-3.55078l2.08594 1.28906m-2.96875-.77344l2.08985 1.28906m12.11718-1.78515l-6.08593 3.51172m6.08593-3.51172l2.08204 1.30078m-2.96485-.78906l1.03906.65234m13.50391-.33984l-6.77344 1.86328m6.77344-1.86328l1.6875 1.78515m11.64844.0039l-6.8164-1.71483m6.8164 1.71484l.58984 2.3789m12.74219-4.02734l-6.84766 1.58203m6.84766-1.58203l1.60937 1.85156m-2.60546-1.62109l1.60937 1.85156m12.5664-2.52734l-6.57812 2.47656m6.57813-2.47656l1.83984 1.6211m-2.79687-1.26173l.91796.8086m13.5586.42187l-6.98828-.70703m6.98828.70703l.92969 2.27344m12.33203-1.91406l-6.88282-1.42578m6.88282 1.42578l.6875 2.35547m12.6289-2.3711l-6.88672-1.39453m5.88672 1.1914l.34766 1.17579m13.89844-.6836l-6.7461-1.97265m6.7461 1.97265l.4961 2.40235m12.8125-2.3789l-6.73048-2.01954m6.73047 2.01953l.47656 2.40625m-1.45703-2.69922l.23828 1.20313m14.1875-1.58985l-6.99609-.66015"/><g clip-path="url(#aj)"><path fill="none" stroke="#000" stroke-linecap="round" stroke-linejoin="round" stroke-miterlimit="10" stroke-width=".5" d="M467.0586 387.45313l.9453 2.26562"/></g><path fill="none" stroke="#000" stroke-linecap="round" stroke-linejoin="round" stroke-miterlimit="10" stroke-width=".5" d="M466.04297 387.35938l.46875 1.1289"/><g clip-path="url(#ak)"><path fill="none" stroke="#000" stroke-linecap="round" stroke-linejoin="round" stroke-miterlimit="10" stroke-width=".5" d="M146.63281 376.13281l-5.26562-4.64844"/></g><path fill="none" stroke="#000" stroke-linecap="round" stroke-linejoin="round" stroke-miterlimit="10" stroke-width=".5" d="M146.63281 376.13281l-.57031 2.38672m-.19531-3.0625l-.28516 1.1914m14.58203-.78515l-5.69922-4.11328m5.69922 4.11328l-.33594 2.4336m-.49218-3.03125l-.16797 1.21484m14.64062-1.17578l-6.35547-2.9961m6.35547 2.9961l.1172 2.45312m13.33983-2.80469l-6.64062-2.28906m6.64063 2.28906l.3828 2.42579m13.1172-3.3086l-7.00782-.52344m7.00781.52344l.98438 2.2461m-2.0039-2.32422l.49218 1.125m13.7539-.49219l-6.83593-1.63281m6.83594 1.63281l.61719 2.375M213 374.38672l.61328 2.375m13.73438-2.32813l-6.91407-1.25m6.91407 1.25l.74609 2.33594m-1.7539-2.51562l.75 2.33593m13.625-2.60156l-7.01954-.35937m7.01953.35937l1.03907 2.22266m-2.0625-2.27344l1.03906 2.22266m-2.0586-2.27735l.51954 1.11328m14.83984-1.26953l-7.02344.16406m7.02344-.16406l1.20313 2.13672m-2.22266-2.11328l1.20312 2.13672m13.12891-2.26953L260.32812 374m7.01563-.38281l1.26953 2.10156m-2.28906-2.04688l1.26562 2.10157m-2.28906-2.04688l.63672 1.05078m14.6875-1.49218l-6.94922 1.04687m6.94922-1.04687l1.46094 1.97265m-2.47266-1.82031l1.46094 1.97266m12.71875-2.73047l-6.65625 2.25781m6.65625-2.25781l1.78516 1.6836m-2.75391-1.35548l1.78906 1.6836m12.27735-2.51563l-6.21875 3.26563m6.21875-3.26563l2.02734 1.3789m-2.9336-.90624l2.02735 1.38281m12.01562-2.15625l-5.86328 3.86719m5.86328-3.86719l2.15625 1.17188m-3.0078-.60938l2.15234 1.17188M318.3203 373l1.07813.58594m13.9414-1.72266l-5.85546 3.88672m5.85546-3.88672l2.15625 1.16797m-3.0078-.60156l2.15624 1.16797m-3.01172-.60157l1.08203.58204m14.1875-1.26954l-6.35546 3m6.35546-3l1.96875 1.46875m-2.89062-1.03125l1.96484 1.46485m12.57813-.8789l-6.96485.94921m6.96485-.94922l1.4336 1.99219m-2.44923-1.85156l1.4375 1.98828M373.85547 373.5l-7 .61328m7-.61328l1.33594 2.0586m-2.35547-1.96876l1.33984 2.0586m-2.35547-1.96875l.66797 1.03125m14.60938-1.67578l-6.85547 1.54296m6.85547-1.54296l1.60156 1.86328m-2.59766-1.63672l.80078.92969m13.52344-1.10157l-6.8789 1.4375m6.8789-1.4375l1.57031 1.88282m11.81641-1.00391l-7.01953-.32031m7.01953.32031l1.05078 2.21875m12.04688-1.16016l-6.58985-2.4375m5.63282 2.08204l.16406 1.21484m14.26953-1.4336l-6.91016-1.28906m6.91016 1.28906l.73437 2.33985m12.57813-2.32813l-6.90234-1.3125m6.90234 1.3125l.72656 2.34375m12.61328-2.48828l-6.95312-1.02344"/><g clip-path="url(#al)"><path fill="none" stroke="#000" stroke-linecap="round" stroke-linejoin="round" stroke-miterlimit="10" stroke-width=".5" d="M467.03906 374.32031l.82031 2.3125"/></g><g clip-path="url(#am)"><path fill="none" stroke="#000" stroke-linecap="round" stroke-linejoin="round" stroke-miterlimit="10" stroke-width=".5" d="M145.8125 363.5039l-3.625-6.01952"/></g><path fill="none" stroke="#000" stroke-linecap="round" stroke-linejoin="round" stroke-miterlimit="10" stroke-width=".5" d="M145.8125 363.5039l-1.26172 2.10548"/><g clip-path="url(#an)"><path fill="none" stroke="#000" stroke-linecap="round" stroke-linejoin="round" stroke-miterlimit="10" stroke-width=".5" d="M145.28516 362.6289l-1.26172 2.10157"/></g><path fill="none" stroke="#000" stroke-linecap="round" stroke-linejoin="round" stroke-miterlimit="10" stroke-width=".5" d="M159.8789 362.89844l-5.125-4.8086m5.125 4.8086l-.64452 2.36719m-.10157-3.06641l-.64453 2.36719m14.80078-1.77344l-5.3164-4.59766m5.3164 4.59766l-.54687 2.39062m-.22656-3.0625l-.27344 1.19922m14.66015-.92578l-5.91406-3.80078m5.91406 3.80078l-.20312 2.44531M200.43359 362l-6.34765-3.01172M200.43359 362l.11328 2.44922m13.44532-3.13281l-6.83203-1.64454m6.83203 1.64454l.61328 2.375m-1.60938-2.6172l.3086 1.19142m14.0586-1.23047l-6.94532-1.08594m6.94531 1.08594l.80078 2.3203m-1.8125-2.47655l.80469 2.3203m13.5625-2.73437l-7.02734.0547m7.02734-.0547l1.16797 2.16016m-2.1914-2.15234l1.17187 2.16015m13.1289-2.64844L247.04297 361m6.95312-1.01563l1.45313 1.97657m-2.46484-1.82813l1.45312 1.97656m12.83203-2.35156l-6.8711 1.46875m6.8711-1.46875l1.58203 1.8789m-2.57812-1.66405l1.57812 1.8789M280.62891 360l-6.95703.98438M280.6289 360l1.4453 1.98438m-2.45702-1.83985l1.44531 1.98438m12.82422-2.44532l-6.83984 1.6172m6.83984-1.6172l1.61719 1.84375m-2.61328-1.60937l.80859.92187m13.40234-1.49218l-6.64062 2.29296m6.64062-2.29296l1.79688 1.66796m-2.76172-1.33593l1.79687 1.67187m12.38672-2.2539l-6.44922 2.79296m6.44922-2.79296l1.91797 1.53125m-2.85547-1.125l1.91797 1.53125m-2.85547-1.125l.95703.76562m14.1797-1.69531l-6.34376 3.02344m6.34375-3.02344l1.97266 1.46094m-2.89453-1.01954l1.97265 1.46094m-2.89453-1.01953l.98438.72656m14.32422-1.25l-6.64063 2.3047m6.64063-2.3047l1.79687 1.67188m-2.76562-1.33594l1.80078 1.66797m12.65625-1.21875l-6.98828.73438m6.98828-.73438l1.37109 2.03516m-2.38672-1.92579l1.3711 2.03125M358.5 360.33985l.6875 1.01563m14.60547-1.58594l-6.875 1.44922m6.875-1.44922l1.57422 1.88281m-2.57422-1.67187l1.57422 1.88281m-2.57422-1.67187l1.57422 1.8828m13.54297-2.9414l-6.47657 2.72266m6.47657-2.72266l1.90234 1.55078m-2.84375-1.15625l1.90234 1.55079m-2.84765-1.15235l1.90234 1.55078m13.27735-2.39844l-6.4336 2.82813m6.4336-2.82813l1.92578 1.51954m-2.86328-1.10547l1.92578 1.51953m12.5078-1.41406l-6.79296 1.79296m6.79297-1.79296l1.66797 1.80078m-2.65625-1.54297l.83203.90234m13.58594-.21484l-7.02735-.10156m7.02735.10156l1.12109 2.1836m12.19531-2.23438h-7.02734m6.0039 0L440 361.57813m13.75-1.34766l-7.00781.52344m5.98828-.44532l.65625 1.03516m13.6875-.98047l-7.02344.25781"/><g clip-path="url(#ao)"><path fill="none" stroke="#000" stroke-linecap="round" stroke-linejoin="round" stroke-miterlimit="10" stroke-width=".5" d="M467.07422 360.36328l1.23047 2.125"/></g><g clip-path="url(#ap)"><path fill="none" stroke="#000" stroke-linecap="round" stroke-linejoin="round" stroke-miterlimit="10" stroke-width=".5" d="M144.58984 350.64063l-1.17968-6.92579"/></g><g clip-path="url(#aq)"><path fill="none" stroke="#000" stroke-linecap="round" stroke-linejoin="round" stroke-miterlimit="10" stroke-width=".5" d="M144.58984 350.64063l-1.9414 1.5"/></g><g clip-path="url(#ar)"><path fill="none" stroke="#000" stroke-linecap="round" stroke-linejoin="round" stroke-miterlimit="10" stroke-width=".5" d="M144.41797 349.63281l-1.9414 1.5"/></g><path fill="none" stroke="#000" stroke-linecap="round" stroke-linejoin="round" stroke-miterlimit="10" stroke-width=".5" d="M159.09375 350.21094l-3.55469-6.0625m3.55469 6.0625l-1.28906 2.08594m.76953-2.96875l-1.28516 2.08984m15.47656-1.44922l-4.27343-5.57813m4.27344 5.57813l-1.01954 2.23047m.39844-3.04297l-1.01953 2.23047m15.40234-1.82422l-5.16406-4.76563m5.16406 4.76563l-.625 2.3711m-.125-3.06641l-.3125 1.1875m14.6836-.875l-5.77344-4.0039m5.77344 4.0039l-.28906 2.4375m-.55079-3.01953l-.14453 1.21875m14.82031-1.79297l-6.8203-1.6914m6.8203 1.6914l.59766 2.3789m-1.58984-2.625l.30078 1.1875m14.08984-1.40625l-6.98437-.76171m6.98437.76171l.91016 2.28125m-1.92578-2.39062l.91015 2.27734m13.44141-2.54687h-7.02734m7.02734 0l1.15234 2.16406m-2.17578-2.16406l1.15235 2.16406m13.16406-2.57813l-6.98047.82422m6.98047-.82421l1.39453 2.01562m-2.41016-1.89453l1.39844 2.01562m12.85156-2.57812l-6.8203 1.70703m6.8203-1.70703l1.64063 1.82422m-2.63281-1.57422l1.64062 1.82031m-2.63281-1.57422l.82031.91406m14.41406-1.6289l-6.6914 2.14453m6.6914-2.14453l1.75782 1.71094m-2.73047-1.39844l1.75781 1.71094m-2.73047-1.39844l.8789.85547m14.47266-1.13672l-6.875 1.46094m6.875-1.46094l1.57813 1.8789m-2.57813-1.66796l1.57813 1.8789m12.80469-1.64062l-7.00782.5586m7.00782-.5586l1.3164 2.07031m-2.33594-1.98828l.66016 1.03515m13.51563-1.91015L313.75 348.25m6.6914-2.14453l1.75782 1.71094m-2.73047-1.39844l.8789.85547m13.41407-1.15235l-6.69922 2.1172m6.69922-2.1172l1.75 1.71485m-2.72656-1.41016l1.7539 1.71875M347 345.90625l-6.54688 2.54688M347 345.90625l1.85937 1.60156m-2.8125-1.23437l1.85938 1.60156m-2.8125-1.23047l.92969.80078m14.53125-.38281l-7.02344.23047m7.02344-.23047l1.22265 2.125m-2.24609-2.09375l1.22266 2.1289m-2.2461-2.09374l.61328 1.0625m14.72657-1.39844l-6.98438.76953m6.98438-.76953l1.3828 2.03125m-2.39843-1.91797l1.38281 2.02734m-2.39843-1.91406l1.3828 2.02735m13.76173-3.10547l-6.57813 2.47656m6.57813-2.47656l1.83984 1.62109m-2.79687-1.26172l1.83984 1.6211m-2.79688-1.26172l1.83985 1.62109m13.29297-2.57031l-6.38672 2.9336m6.38672-2.9336l1.94922 1.48828m-2.87891-1.0625l1.95312 1.48828m-2.8828-1.0586l1.95312 1.48438m13.38672-1.90234l-6.71875 2.0586m6.71875-2.0586l1.73828 1.73437m-2.71485-1.4336l1.73438 1.73438m-2.71094-1.43359l1.73438 1.73438m13.61328-2.02735l-6.875 1.4414m6.875-1.4414l1.57422 1.88281m-2.57422-1.67187l1.57031 1.88281m-2.57031-1.67578l.78515.94531m14.57032-1.14062l-6.95704.9961m6.95704-.9961l1.4453 1.98437m-2.45702-1.83984l.72265.99219m13.57032-1.33594l-6.88672 1.39453m6.88672-1.39453L455.25 348.375m11.7539-1.90625l-6.8828 1.41797"/><g clip-path="url(#as)"><path fill="none" stroke="#000" stroke-linecap="round" stroke-linejoin="round" stroke-miterlimit="10" stroke-width=".5" d="M467.0039 346.46875l1.56641 1.89063"/></g><g clip-path="url(#at)"><path fill="none" stroke="#000" stroke-linecap="round" stroke-linejoin="round" stroke-miterlimit="10" stroke-width=".5" d="M143.58203 337.35156l.83594-6.97656"/></g><path fill="none" stroke="#000" stroke-linecap="round" stroke-linejoin="round" stroke-miterlimit="10" stroke-width=".5" d="M157.79688 337.34375l-.96485-6.96094m.96484 6.96094l-1.98437 1.4375m1.84375-2.44922l-.99219.71875m14.53516.27735l-1.14063-6.9336m1.14063 6.9336L169.25 338.8164m1.78516-2.4961l-.97657.7461m13.82032.30859l.1328-7.02344m-.1328 7.02344l-2.1875 1.11328m17.72656-1.85156l-4.3164-5.54688m3.6875 4.73829l-.5 1.12109m15.60155-1.92578l-6.6328-2.32031m6.6328 2.3203l.375 2.42188m-1.33984-2.76172l.375 2.42579m13.98828-2.35157l-6.79687-1.78906m6.79687 1.78906l.5625 2.38672m-1.55078-2.64844l.5625 2.39063m-1.55078-2.64844l.28125 1.1914m15.11719-1.33593l-7.01172-.46094m7.01172.46094l1.00781 2.23438m-2.02734-2.30079l1.0078 2.23438m-2.02733-2.30469l.5039 1.1211m14.83984-1.5586l-6.99218.6875m6.99219-.6875l1.35937 2.04297M253 333.61719l1.35938 2.04687m-2.37891-1.94531l.67969 1.02344m14.61328-1.60938l-6.875 1.46094m6.875-1.46094l1.57812 1.8789m-2.57812-1.66796l1.57812 1.8789m-2.57812-1.66406l.78906.9375M280.39063 332.5l-6.47657 2.72656m6.47656-2.72656l1.90235 1.55078m-2.84766-1.15625l1.90235 1.55078m12.29687-2.07812l-6.35937 2.98828m6.35937-2.98828l1.96484 1.47265m-2.89062-1.03515l1.96484 1.46875m-2.88672-1.03516l.98047.73438m14.4375-.85938l-6.86718 1.5m6.86718-1.5l1.58594 1.8711m-2.58594-1.65235l.79297.9336m13.60156-.5l-7.02734.1953m7.02734-.1953l1.21094 2.1328m-2.23437-2.10546l.60547 1.07031m13.6953-1.51562l-6.94921 1.03125m6.94922-1.03125l1.45703 1.97265m-2.46875-1.82422l.73047.98829m13.53125-1.46875l-6.82031 1.6953m6.8203-1.6953l1.64063 1.82421m-2.6328-1.57812l.8203.91406m13.58594-.4961l-7.01953.36329m7.01953-.36328l1.26172 2.10547m-2.28516-2.05079l.63282 1.05079m13.6875-1.3047l-6.98438.76563m6.98438-.76562l1.3828 2.03125m-2.39843-1.91797l1.38281 2.02734m12.80078-2.83984l-6.6875 2.16406m6.6875-2.16406l1.76172 1.70703m-2.73437-1.39062l1.76172 1.70703m12.5586-1.91016l-6.75392 1.9375m6.75391-1.9375l1.70313 1.76563m-2.6836-1.48438l.85156.88281m13.4375-1.1875l-6.74218 1.98438m6.74218-1.98438l1.71875 1.75m-2.69921-1.46093l1.71875 1.75m12.47656-2.32813l-6.54297 2.5625m6.54297-2.5625l1.86328 1.59766m-2.8125-1.22266l1.85937 1.59766m-2.8125-1.22656l.9297.79687m14.35937-1.34766l-6.6836 2.17188m6.6836-2.17188l1.76562 1.70704m-2.73828-1.39063l1.76563 1.70313m-2.73829-1.38672l.88282.85156m14.48047-1.08985l-6.89063 1.38282m6.89063-1.38281l1.55468 1.89453m-2.55859-1.69532l1.5586 1.89844m-2.5586-1.69531l.77734.94922m14.4336-1.76563l-6.67188 2.20703"/><g clip-path="url(#au)"><path fill="none" stroke="#000" stroke-linecap="round" stroke-linejoin="round" stroke-miterlimit="10" stroke-width=".5" d="M466.89844 332.75781l1.77344 1.69531"/></g><path fill="none" stroke="#000" stroke-linecap="round" stroke-linejoin="round" stroke-miterlimit="10" stroke-width=".5" d="M465.92578 333.08203l1.77344 1.69531m-2.74219-1.375l.88672.84766"/><g clip-path="url(#av)"><path fill="none" stroke="#000" stroke-linecap="round" stroke-linejoin="round" stroke-miterlimit="10" stroke-width=".5" d="M144.5586 324.01563l-1.1172-6.9375"/></g><g clip-path="url(#aw)"><path fill="none" stroke="#000" stroke-linecap="round" stroke-linejoin="round" stroke-miterlimit="10" stroke-width=".5" d="M144.5586 324.01563L142.60155 325.5"/></g><g clip-path="url(#ax)"><path fill="none" stroke="#000" stroke-linecap="round" stroke-linejoin="round" stroke-miterlimit="10" stroke-width=".5" d="M144.39453 323.00781l-.97656.74219"/></g><path fill="none" stroke="#000" stroke-linecap="round" stroke-linejoin="round" stroke-miterlimit="10" stroke-width=".5" d="M157.73047 324.03516l-.83203-6.97657m.83203 6.97657l-2.01563 1.40234m1.89453-2.41406l-1.0078.69922m14.48827.30859l-.92187-6.96484m.92187 6.96484l-1.99609 1.42578m1.86328-2.4414l-1 .71484m14.91406.20703l-1.85156-6.77734m1.85156 6.77734l-1.78515 1.6836m16.66406-2.59376l-4.98047-4.95703m4.98047 4.95703l-.71094 2.34766m14.83985-3.625l-6.60547-2.40234m6.60547 2.40234l.33984 2.42969m-1.30078-2.78125l.33984 2.42969m14.14453-3.26172l-7.02734-.03516m7.02734.03516l1.14453 2.17187m-2.16406-2.17969l1.14063 2.17188m13.19531-2.25781l-7.02734.14843m7.02734-.14843l1.19531 2.14453m-2.21875-2.1211l1.19922 2.14063m-2.21875-2.1211l.59766 1.07032m14.67187-1.82422l-6.85156 1.57031m6.85156-1.57031l1.60547 1.85547m-2.60156-1.625l1.60547 1.85547m12.58594-2.4961l-6.60938 2.39453m6.60938-2.39453l1.8203 1.64453m-2.78124-1.29687L268 321.34375m12.47656-1.92969l-6.65234 2.26953m6.65234-2.26953l1.78906 1.67969m-2.7578-1.35156l1.78905 1.67969M293.6172 319l-6.30469 3.09766M293.61719 319l1.99218 1.4336m-2.90625-.98438l1.98829 1.4375m12.45312-1.35938l-6.72656 2.04297m6.72656-2.04297l1.73047 1.73829m-2.71094-1.44141l1.73047 1.73828m12.71484-1.05469l-7.02734.08203m7.02734-.08203l1.17579 2.15235m-2.19922-2.14063l1.17968 2.15235m-2.19921-2.14063l.58593 1.07422m14.75782-1.375l-7 .63281m7-.63281l1.34375 2.05469m-2.36329-1.96094l1.34375 2.05469m12.95704-2.41797l-6.9297 1.17187m6.9297-1.17187l1.49609 1.94531m-2.5039-1.77344l1.49609 1.9414m12.83984-2.03124l-6.95703 1.00781m6.95703-1.00781l1.44922 1.98047m11.76562-2.4414l-6.7578 1.92968m6.7578-1.92969l1.70313 1.76563m11.16406-2.73829l-5.85937 3.87891m5.85937-3.8789l2.15625 1.17187m-3.00781-.60938l1.07812.58594m13.25391-.8711l-6.1914 3.32423m6.1914-3.32422l2.03906 1.36328m11.63282-.35547l-6.90625 1.30469m5.90234-1.11328l.76562.95703m10.71485-3.95313l-1.22656 6.91797m1.04687-5.91406l1.16797-.3789m13.60547-.125l-3.78906 5.91796m3.23828-5.0586l1.22265.10157m13.91016.46485l-6.32031 3.0664m6.32031-3.0664l1.98437 1.4453m-2.90234-1l.99219.72266m12.91797-1.71093l-5.67188 4.14843"/><g clip-path="url(#ay)"><path fill="none" stroke="#000" stroke-linecap="round" stroke-linejoin="round" stroke-miterlimit="10" stroke-width=".5" d="M466.39844 318.47266l2.20703 1.0703"/></g><g clip-path="url(#az)"><path fill="none" stroke="#000" stroke-linecap="round" stroke-linejoin="round" stroke-miterlimit="10" stroke-width=".5" d="M465.57422 319.07813l2.20703 1.0664"/></g><path fill="none" stroke="#000" stroke-linecap="round" stroke-linejoin="round" stroke-miterlimit="10" stroke-width=".5" d="M464.7461 319.67969l1.10546.53515"/><path fill="#ff3030" fill-rule="evenodd" d="M167.01563 454.33203h7.6914V444.1875h-7.6914v10.14453"/><path fill="azure" fill-rule="evenodd" d="M168.84766 446.01953h.83203v5.73828h3.19531V452.5h-4.02734v-6.48047"/><path fill="#ffffe0" fill-rule="evenodd" d="M330.55078 454.5664h22.17969v-10.1953h-22.17969v10.1953"/><path fill-rule="evenodd" d="M334.05078 446.20703h.50781V452.5h-.78515v-4.48828h-1.39063v-.55469l.5625-.0664.25-.0547.23047-.08984.20313-.14062.17578-.21094.14062-.29297.10547-.39453m4.8125 0l.23047.01563.21875.05859.20703.08984.19922.1211.1836.14844.17187.17578.30078.41796.24219.4961.17969.54297.11328.58203.03906.58984-.03906.59375-.11329.58203-.17968.5547-.24219.5039-.30078.42578-.17188.17969-.18359.15625-.19922.12109-.20703.09375-.21875.05469-.23047.01953-.22656-.01953-.21875-.05469-.21094-.09375-.19531-.1211-.1836-.15624-.17187-.1797-.30078-.42577-.2461-.5039-.17968-.5547-.10938-.58203-.03906-.59375h.83203l.03125.5625.08203.50781.125.44141.16406.375.1875.30078.21094.22266.22266.13672.22656.04687.22656-.04687.22266-.13672.21094-.22266.1914-.30078.16407-.375.125-.4414.08203-.50782.02734-.5625-.02734-.5625-.08203-.5-.125-.4336-.16407-.36718-.1914-.29297-.21094-.21484-.22266-.1289-.22656-.04688-.22656.04687-.22266.1289-.21094.21485-.1875.29297-.16406.36719-.125.4336-.08203.5-.03125.5625h-.83203l.03906-.58985.10938-.58203.17969-.54297.24609-.4961.30078-.41796.17188-.17579.18359-.14843.19531-.1211.21094-.08984.21875-.0586.22656-.01562m5.09375 0h.50781V452.5h-.78515v-4.48828h-1.39063v-.55469l.5586-.0664.2539-.0547.23047-.08984.20313-.14062.17187-.21094.14453-.29297.10547-.39453m2.82422 2.17188h.78516l.01953-.3125.0586-.28907.10155-.25.13672-.21875.1836-.17187.22265-.1289.26563-.08204.3086-.02734.23827.02344.22266.0625.20312.10156.1797.13672.14843.17578.11328.20312.07031.23828.02735.26172-.02344.26953-.0664.22657-.10938.1914-.15625.17188-.19922.16015-.2461.16797-.6328.38672-.53907.3125-.4375.32031-.34766.32422-.26171.33594-.19141.34766-.125.37109-.07031.39453-.01954.41797h4.21094v-.74219h-3.33203l.08203-.28125.11328-.23828.14844-.19922.1875-.1836.23047-.16796.28125-.17578.71484-.41797.41797-.20703.34375-.23047.28125-.25.21875-.26563.16406-.28125.11329-.28125.0625-.28515.01953-.28125-.04297-.38281-.11719-.34766-.1914-.3086-.25-.26562-.30079-.21094-.34765-.16015-.3789-.09766-.40626-.03125-.4375.03125-.39844.09766-.35156.16797-.30469.23437-.25.30469-.18359.375-.11719.44531-.03906.51563"/><path fill="#ffffe0" fill-rule="evenodd" d="M244.10156 452.19922h22.17969v-10.1914h-22.17969v10.1914"/><path fill-rule="evenodd" d="M247.59766 443.83984h.51172v6.29688h-.78907v-4.49219h-1.38672v-.55469l.5586-.0625.2539-.05468.23047-.08985.20313-.14062.17187-.21094.14063-.29297.10547-.39844m4.8164 0l.22656.01954.22266.05468.20703.08985.19531.12109.1836.15234.17187.17579.30078.41796.2461.4922.17969.54687.10937.57812.03906.59375-.03906.59375-.10937.58203-.1797.55469-.24608.5-.30079.42969-.17187.17969-.1836.15234-.1953.125-.20704.08984-.22266.0586-.22656.01953-.23047-.01953-.21875-.0586-.20703-.08984-.19922-.125-.18359-.15235-.17188-.17968-.30078-.42969-.24218-.5-.1797-.55469-.11327-.58203-.03516-.59375h.83203l.02735.5625.08203.5039.125.44532.16406.375.1914.30078.21094.21875.22266.13672.22656.04688.22656-.04688.22266-.13672.21094-.21875.1914-.30078.16016-.375.125-.44531.08203-.5039.03125-.5625-.03125-.5625-.08203-.5-.125-.4336-.16016-.36719-.1914-.29297-.21094-.21484-.22266-.1289-.22656-.04688-.22656.04687-.22266.1289-.21093.21485-.19141.29297-.16406.36719-.125.4336-.08203.5-.02735.5625h-.83203l.03516-.59376.11328-.57812.17969-.54688.24218-.49219.30078-.41796.17188-.17579.1836-.15234.19921-.1211.20703-.08984.21875-.05469.23047-.01953m5.08985 0h.51171v6.29688h-.78906v-4.49219h-1.38672v-.55469l.5586-.0625.25-.05468.23047-.08985.20312-.14062.17578-.21094.14063-.29297.10547-.39844m2.82421 2.17579h.78516l.01953-.31641.0625-.28516.09766-.2539.14062-.21485.1797-.17187.22265-.1289.26562-.08204.3086-.02734.23828.02343.22265.0625.20704.10157.17578.13671.15234.17188.10938.20703.07421.23438.02344.26562-.01953.26953-.0664.22266-.10938.19531-.15625.16797-.19922.16406-.25.16406-.63281.39063-.53906.3125-.4375.3164-.34375.32423-.26563.33593-.1914.35156-.125.3711-.06641.39062-.02344.42188h4.21484v-.74219h-3.33203l.08203-.28515.11329-.23438.14843-.20313.1875-.17968.23047-.17188.27735-.17578.71875-.41406.41406-.20703.34765-.23047.27735-.25.22265-.26953.16407-.27735.10937-.28515.0625-.28516.02344-.28125-.04297-.38281-.1211-.34766-.1875-.3086-.25-.26171-.30468-.21094-.34375-.16015-.38281-.09766-.40625-.03516-.4336.03516-.39844.09766-.35546.16796-.3047.23438-.25.30078-.18358.375-.1172.44531-.03906.51954"/><path fill="#ffffe0" fill-rule="evenodd" d="M352.34375 392.42578h22.17969v-10.1914h-22.17969v10.1914"/><path fill-rule="evenodd" d="M355.84375 384.07031h.50781v6.29297h-.78515V385.875h-1.39063v-.5586l.5586-.0625.2539-.05468.23047-.08985.20313-.14062.17187-.21094.14453-.29297.10547-.39453m4.8125 0l.23047.01563.21875.0586.20703.08983.19531.1172.1836.15234.17187.17578.30078.41797.2461.49218.17968.54688.10938.58203.03906.58984-.03906.59375-.10938.58204-.17968.55468-.2461.5039-.30078.42579-.17187.17969-.1836.15234-.19531.125-.20703.09375-.21875.05469-.23047.01953-.23047-.01953-.21875-.05469-.20703-.09375-.19531-.125-.1875-.15234-.16797-.17969-.30469-.42578-.24219-.5039-.17968-.5547-.11329-.58203-.03515-.59375h.83203l.02734.5625.08204.50782.1289.4414.16016.375.1914.30078.21094.21875.22266.14063.22656.04687.22656-.04687.22266-.14063.21094-.21875.1914-.30078.16016-.375.1289-.4414.07813-.50782.03125-.5625-.03125-.5625-.07813-.5-.1289-.43359-.16016-.36719-.1914-.29297-.21094-.21484-.22266-.1289-.22656-.04688-.22656.04687-.22266.12891-.21094.21484-.1914.29297-.16016.36719-.1289.4336-.08204.5-.02734.5625h-.83203l.03515-.58985.11329-.58203.17968-.54688.2422-.49218.30468-.41797.16797-.17578.1875-.15235.19531-.11719.20703-.08984.21875-.0586.23047-.01562m5.08984 0h.51172v6.29297h-.78906V385.875h-1.38672v-.5586l.5586-.0625.2539-.05468.22656-.08985.20313-.14062.17578-.21094.14063-.29297.10546-.39453m6.8047 1.61719h-.78517l-.05078-.21094-.08203-.1875-.10937-.15625-.1289-.13281-.14845-.10156-.16015-.07422-.16797-.04688-.17188-.01562-.32812.04297-.28516.11719-.2461.1953-.20312.26954-.16406.33984-.11328.40235-.07031.46875-.02344.52734.1875-.20313.1875-.16015.1836-.1211.1875-.08984.1875-.0625.1914-.03515.40234-.02344.3047.03125.3203.08984.31641.15625.29688.21875.2539.28516.19922.35156.07422.19922.05078.21875.03125.23437.0039.25-.78906.04688-.02734-.25781-.07813-.25-.12109-.23829-.16015-.20703-.19141-.17968-.22266-.13672-.23828-.08594-.25781-.03125-.2539.03125-.23829.08594-.22265.13672-.19141.17968-.16016.20704-.1211.23828-.07812.25-.02734.2578.02734.25782.07813.2539.1211.23438.16015.20703.1914.1797.22266.13671.23828.08984.2539.03125.25782-.03125.23828-.08984.22266-.13672.1914-.17969.16016-.20703.1211-.23437.07812-.2539.02734-.25782.78907-.04688-.03125.3711-.09375.3711-.15625.35937-.22266.32812-.28906.28125-.17188.1211-.1875.10156-.20703.08203-.22265.0625-.2422.03906-.26171.01172-.28125-.01563-.26172-.04687-.23438-.07813-.21875-.10156-.1914-.13281-.17578-.15625-.15625-.17969-.13281-.20312-.1172-.22266-.09765-.24219-.14844-.53515-.08593-.59375-.02735-.63672.03906-.7461.11329-.66406.1875-.57812.12109-.2539.13672-.23048.15234-.20703.17188-.17969.1875-.15625.19922-.1289.21875-.10156.23437-.07422.2461-.04688.26171-.01172.3672.03125.33202.09766.29688.14844.2539.19921.21094.2422.16797.27343.11328.30469.0625.32031"/><path fill="#ffffe0" fill-rule="evenodd" d="M230.78516 366.23047h22.17968v-10.1914h-22.17968v10.1914"/><path fill-rule="evenodd" d="M234.28516 357.8711h.5078v6.29296h-.78515v-4.48828h-1.39062v-.55469l.5625-.0664.25-.05469.23047-.08594.20312-.14453.17188-.20703.14453-.29688.10547-.39453m4.8125 0l.23047.01954.21875.05468.20703.08985.1953.12109.1875.14844.16798.17578.30469.42187.24218.4922.17969.54687.11328.57812.03516.58985-.03516.59375-.11328.58593-.17969.55469-.24219.5-.30468.42969-.16797.17969-.1875.15234-.19531.125-.20703.08984-.21875.0586-.23047.01953-.23047-.01953-.21875-.0586-.20703-.08984-.19532-.125-.18359-.15235-.17188-.17968-.30078-.42969-.24609-.5-.17969-.55469-.10937-.58594-.03906-.59375h.83203l.03125.56641.08203.5039.125.44141.16015.375.19141.30079.21094.22265.22265.13672.22657.04688.22656-.04688.22266-.13672.21093-.22265.1914-.30079.16017-.375.1289-.4414.08203-.5039.02735-.56642-.02735-.55859-.08203-.5-.1289-.4375-.16016-.36719-.1914-.28906-.21095-.21484-.22265-.13281-.22656-.04297-.22657.04296-.22265.13282-.21094.21484-.1914.28906-.16016.3672-.125.4375-.08203.5-.03125.55858h-.83203l.03906-.58984.10937-.57812.17969-.54688.2461-.49219.30077-.42187.17188-.17578.1836-.14844.1953-.1211.20704-.08984.21875-.05469.23047-.01953m5.09375 0h.5078v6.29297h-.78905v-4.48828h-1.38672v-.55469l.5586-.0664.2539-.05469.23047-.08594.20312-.14453.17188-.20703.14062-.29688.10938-.39453m6.80078 1.6211h-.78516l-.05078-.21485-.08203-.18359-.10938-.16016-.1289-.1328-.14453-.10157-.16016-.07422-.17188-.04297-.17187-.01562-.32813.03906-.28515.1211-.2461.1953-.20312.26954-.16016.33593-.11718.40625-.07032.46485-.02343.52734.1875-.20312.1875-.16016.18359-.1211.1875-.08984.1875-.0586.1914-.03905.40235-.02344.3086.03125.3203.09375.31641.15234.29297.22266.2539.28125.19923.35156.07422.20313.05078.21484.03125.23438.0039.2539-.78906.04297-.02734-.25781-.07422-.25-.125-.23438-.16016-.21094-.1914-.17578-.21875-.13671-.2422-.08985-.2539-.03125-.25781.03125-.23828.08985-.21875.13671-.19531.17579-.16016.21093-.1211.23438-.07812.25-.02734.25781.02734.26172.07813.25.12109.23437.16016.21094.1953.17578.21876.13672.23828.08985.25781.03125.2539-.03125.2422-.08985.21875-.13672.1914-.17578.16016-.21094.125-.23437.07422-.25.02734-.26172.78906-.04297-.03125.36719-.09375.375-.15625.35547-.22265.32812-.28907.28516-.17187.11719-.1875.10546-.20703.08204-.22266.05859-.24219.03906-.2578.01563-.28517-.01563-.2578-.04687-.23829-.07813-.21484-.10547-.19531-.1328-.17579-.15626-.15234-.17969-.13672-.19921-.11719-.22266-.09765-.24219-.14844-.53515-.08203-.59375-.02734-.64063.03906-.74219.11328-.66406.1836-.57813.12109-.2539.13672-.23438.15625-.20312.16796-.1836.1875-.15625.20313-.1289.21484-.10156.23438-.07422.2461-.04297.26171-.01563.36719.03516.33203.09375.29687.15234.25391.19922.21094.24219.16797.27344.11328.30078.0625.32422"/><path fill="#ffffe0" fill-rule="evenodd" d="M325.78125 334.73047h22.13281v-10.19531h-22.13281v10.1953"/><path fill-rule="evenodd" d="M329.28125 326.3711h.50781v6.29296h-.78515v-4.48828h-1.39063v-.55469l.5625-.0664.25-.05469.23047-.08984.20313-.14063.17578-.21094.14062-.29296.10547-.39454m4.8125 0l.23047.01954.21875.05468.20703.08985.19531.12109.1875.14844.16797.17578.30469.41797.24219.4961.17968.54687.11329.57812.03515.58985-.03515.59375-.11329.58593-.17968.55078-.2422.50391-.30468.42578-.16797.17969-.1875.15625-.19531.1211-.20703.09374-.21875.05469-.23047.01953-.23047-.01953-.21875-.05469-.20703-.09375-.19531-.1211-.1836-.15624-.17187-.17969-.30078-.42578-.2461-.5039-.17968-.55079-.10938-.58594-.03906-.59375h.83203l.03125.5625.08203.50782.125.4414.16016.375.1914.30079.21094.22265.22266.13672.22656.04688.22656-.04688.22266-.13672.21094-.22265.1914-.30079.16016-.375.1289-.4414.08204-.50781.02734-.5625-.02734-.5625-.08204-.5-.1289-.4336-.16016-.36719-.1914-.29296-.21094-.21094-.22266-.13281-.22656-.04688-.22656.04688-.22266.1328-.21094.21094-.1914.29297-.16016.3672-.125.43358-.08203.5-.03125.5625h-.83203l.03906-.58984.10938-.57812.17968-.54688.2461-.4961.30078-.41796.17187-.17578.1836-.14844.19531-.1211.20703-.08984.21875-.05469.23047-.01953m2.96484 2.17579h.78516l.01953-.31641.0586-.28906.10156-.25.13672-.21485.18359-.17578.22266-.1289.26562-.08204.3086-.02734.23828.02344.22265.0625.20313.10156.17969.13672.14843.17578.11328.20313.07032.23828.02734.26171-.02344.26954-.0664.22656-.10938.1914-.15625.17188-.19922.16016-.2461.16796-.63671.38672-.53516.3125-.4375.32032-.34765.32421-.26172.33594-.1914.35156-.125.3672-.07032.39452-.01953.41797h4.21094v-.73828h-3.33204l.08204-.28515.11328-.23829.14844-.19921.1875-.1797.23046-.17187.28125-.17578.71485-.41797.41797-.20703.34375-.23047.28125-.25.21875-.26562.16406-.28125.11328-.28125.0625-.28516.01953-.28125-.04297-.38281-.11719-.34766-.1914-.3086-.25-.26171-.30078-.21484-.34766-.15625-.3789-.10157-.40625-.03125-.4375.03125-.39844.09766-.35156.16797-.3047.23437-.25.3047-.1875.375-.11327.4453-.03907.51954M344 326.37108l.23047.01954.21875.05468.20703.08985.19531.12109.1836.14844.17187.17578.30078.41797.2461.4961.17968.54687.10938.57812.03906.58985-.03906.59375-.10938.58593-.17968.55078-.2461.50391-.30078.42578-.17187.17969-.1836.15625-.19531.1211-.20703.09374-.21875.05469-.23047.01953-.23047-.01953-.21875-.05469-.20703-.09375-.19531-.1211-.1875-.15624-.16797-.17969-.30469-.42578-.24219-.5039-.17968-.55079-.11329-.58594-.03515-.59375h.83203l.02734.5625.08204.50782.1289.4414.16016.375.1914.30079.21094.22265.22266.13672.22656.04688.22656-.04688.22266-.13672.21094-.22265.1914-.30079.16016-.375.125-.4414.08203-.50781.03125-.5625-.03125-.5625-.08203-.5-.125-.4336-.16016-.36719-.1914-.29296-.21094-.21094-.22266-.13281L344 327.0625l-.22656.04688-.22266.1328-.21094.21094-.1914.29297-.16016.3672-.1289.43358-.08204.5-.02734.5625h-.83203l.03515-.58984.11329-.57812.17968-.54688.2422-.4961.30468-.41796.16797-.17578.1875-.14844.19531-.1211.20703-.08984.21875-.05469.23047-.01953"/></g></defs><use xlink:href="#aA"/></svg>