<svg xmlns="http://www.w3.org/2000/svg" role="img" xmlns:xlink="http://www.w3.org/1999/xlink" viewBox="142.45 309.95 326.84 171.84"><defs><clipPath id="a"><path d="M144 311.67188h1v168.65625h-1zm0 0"/></clipPath><clipPath id="b"><path d="M144 311.67188h324v168.65625H144zm0 0"/></clipPath><clipPath id="c"><path d="M467 311.67188h1v168.65625h-1zm0 0"/></clipPath><clipPath id="d"><path d="M144 479h4v1.32813h-4zm0 0"/></clipPath><clipPath id="e"><path d="M147 479h3v1.32813h-3zm0 0"/></clipPath><clipPath id="f"><path d="M146 479h3v1.32813h-3zm0 0"/></clipPath><clipPath id="g"><path d="M153 479h8v1.32813h-8zm0 0"/></clipPath><clipPath id="h"><path d="M160 479h3v1.32813h-3zm0 0"/></clipPath><clipPath id="i"><path d="M159 479h3v1.32813h-3zm0 0"/></clipPath><clipPath id="j"><path d="M167 478h8v2.32813h-8zm0 0"/></clipPath><clipPath id="k"><path d="M173 478h4v2.32813h-4zm0 0"/></clipPath><clipPath id="l"><path d="M172 479h4v1.32813h-4zm0 0"/></clipPath><clipPath id="m"><path d="M180 478h8v2.32813h-8zm0 0"/></clipPath><clipPath id="n"><path d="M186 478h4v2.32813h-4zm0 0"/></clipPath><clipPath id="o"><path d="M185 479h4v1.32813h-4zm0 0"/></clipPath><clipPath id="p"><path d="M193 478h8v2.32813h-8zm0 0"/></clipPath><clipPath id="q"><path d="M200 478h3v2.32813h-3zm0 0"/></clipPath><clipPath id="r"><path d="M199 479h2v1.32813h-2zm0 0"/></clipPath><clipPath id="s"><path d="M207 478h8v2.32813h-8zm0 0"/></clipPath><clipPath id="t"><path d="M213 478h3v2.32813h-3zm0 0"/></clipPath><clipPath id="u"><path d="M212 479h3v1.32813h-3zm0 0"/></clipPath><clipPath id="v"><path d="M220 478h8v2.32813h-8zm0 0"/></clipPath><clipPath id="w"><path d="M226 478h4v2.32813h-4zm0 0"/></clipPath><clipPath id="x"><path d="M225 479h3v1.32813h-3zm0 0"/></clipPath><clipPath id="y"><path d="M233 478h8v2.32813h-8zm0 0"/></clipPath><clipPath id="z"><path d="M240 478h3v2.32813h-3zm0 0"/></clipPath><clipPath id="A"><path d="M239 478h2v2.32813h-2zm0 0"/></clipPath><clipPath id="B"><path d="M247 478h7v2.32813h-7zm0 0"/></clipPath><clipPath id="C"><path d="M260 478h7v2.32813h-7zm0 0"/></clipPath><clipPath id="D"><path d="M274 477h6v3.32813h-6zm0 0"/></clipPath><clipPath id="E"><path d="M287 477h7v3.32813h-7zm0 0"/></clipPath><clipPath id="F"><path d="M301 477h6v3.32813h-6zm0 0"/></clipPath><clipPath id="G"><path d="M314 477h6v3.32813h-6zm0 0"/></clipPath><clipPath id="H"><path d="M328 477h5v3.32813h-5zm0 0"/></clipPath><clipPath id="I"><path d="M341 477h5v3.32813h-5zm0 0"/></clipPath><clipPath id="J"><path d="M356 476h2v4.32813h-2zm0 0"/></clipPath><clipPath id="K"><path d="M368 476h4v4.32813h-4zm0 0"/></clipPath><clipPath id="L"><path d="M380 478h7v2.32813h-7zm0 0"/></clipPath><clipPath id="M"><path d="M393 477h8v3.32813h-8zm0 0"/></clipPath><clipPath id="N"><path d="M408 477h5v3.32813h-5zm0 0"/></clipPath><clipPath id="O"><path d="M420 478h8v2.32813h-8zm0 0"/></clipPath><clipPath id="P"><path d="M425 479h3v1.32813h-3zm0 0"/></clipPath><clipPath id="Q"><path d="M433 478h8v2.32813h-8zm0 0"/></clipPath><clipPath id="R"><path d="M438 478h3v2.32813h-3zm0 0"/></clipPath><clipPath id="S"><path d="M447 477h6v3.32813h-6zm0 0"/></clipPath><clipPath id="T"><path d="M460 478h7v2.32813h-7zm0 0"/></clipPath><clipPath id="U"><path d="M466 478h2v2h-2zm0 0"/></clipPath><clipPath id="V"><path d="M144 465h4v4h-4zm0 0"/></clipPath><clipPath id="W"><path d="M144 452h4v4h-4zm0 0"/></clipPath><clipPath id="X"><path d="M465 450h3v2h-3zm0 0"/></clipPath><clipPath id="Y"><path d="M144 439h4v3h-4zm0 0"/></clipPath><clipPath id="Z"><path d="M144 426h4v2h-4zm0 0"/></clipPath><clipPath id="aa"><path d="M144 413h4v2h-4zm0 0"/></clipPath><clipPath id="ab"><path d="M144 399h4v3h-4zm0 0"/></clipPath><clipPath id="ac"><path d="M465 397h3v3h-3zm0 0"/></clipPath><clipPath id="ad"><path d="M144 385h4v4h-4zm0 0"/></clipPath><clipPath id="ae"><path d="M466 386h2v3h-2zm0 0"/></clipPath><clipPath id="af"><path d="M144 371h4v5h-4zm0 0"/></clipPath><clipPath id="ag"><path d="M466 372h2v3h-2zm0 0"/></clipPath><clipPath id="ah"><path d="M144 357h3v7h-3zm0 0"/></clipPath><clipPath id="ai"><path d="M466 359h2v3h-2zm0 0"/></clipPath><clipPath id="aj"><path d="M144 343h2v8h-2zm0 0"/></clipPath><clipPath id="ak"><path d="M466 346h2v3h-2zm0 0"/></clipPath><clipPath id="al"><path d="M144 330h1v8h-1zm0 0"/></clipPath><clipPath id="am"><path d="M144 337h1v3h-1zm0 0"/></clipPath><clipPath id="an"><path d="M144 336h1v2h-1zm0 0"/></clipPath><clipPath id="ao"><path d="M466 332h2v3h-2zm0 0"/></clipPath><clipPath id="ap"><path d="M465 332h3v3h-3zm0 0"/></clipPath><clipPath id="aq"><path d="M144 316h1v9h-1zm0 0"/></clipPath><clipPath id="ar"><path d="M144 323h1v3h-1zm0 0"/></clipPath><clipPath id="as"><path d="M144 322h1v2h-1zm0 0"/></clipPath><clipPath id="at"><path d="M465 317h3v3h-3zm0 0"/></clipPath><g id="au" clip-path="url(#clip1)"><path fill="#fff" fill-opacity="0" fill-rule="evenodd" d="M0 0h1000v1000H0zm0 0"/><path fill="#d3d3d3" fill-opacity="0" fill-rule="evenodd" d="M162.15234 355.86719l-.23437.29297.0586.23437.11718.17188.17578.23437.29297.34766.11328.0586.11719-.17188.0586-.23438.17577-.17578.46485-.17578h.69922l.23437.29297.28906.8164.0586.17579.17578.23046.35156.23438.69922.69922.17188.17578.23437.34765.23438.41016.28906.58203.41015.46485.23047.23437.23438.17578.11719.23047.17578.29297.17187 1.16406v.23438l.0586.28906.05859.11719.11719.11719.34765.41015.11719.17188.17578.17578.17578.23437.11719.17188.17188.35156.05859.23438.23437.40625.23438-.0586-.17578.17578-.0586.92969h-.58203l-.23437-.11328-.34766.11328-.11719.11719-.05859.29297-.0586.17578-.11718.17187-.46484.29297-.0586.23438-.0586.11328v.64453l.0586.17187v.41016l.0586.0586v.40624l.05859.40625.11719.17579.05859.05859.23047.64062-.0586.29297v.69922l-.05859.58203v.23438l-.0586.23047-.05468.35156v1.92187l.05469.1172h.42578l-.36719.11718-.02344.35156.89063 1.16797 1.74219.53906 1.33984.35938v.53906l.08984.8086.53516.71484 1.51953.26953.89063-.08594.08984 1.16406.53516.1797 1.16015-.1797 2.05469-.98437 1.16016-.36328 1.8789-.17578 1.69531-.1797-.17968.71876-1.51563.08594-1.25.08984-.80469.26953-1.07421.8086.26953.71875.53515.89843-.17968.625-.26563.8086.26563 1.07812.625.89844.80468.17969 1.25-.1797-.26562.72267.09766.5039.05468.29297v.17188l.0586.29296v.40625l.17578.1172.35156.11718h.40625l.29297-.17578.11328-.11719.0586-.11719.11718-.23047.0586-.17578.35156-.46484.23047-.17578.17578-.0586.17578.0586.0586.17578.11718.98828.05469.46875.0586.17188.11718.23437.17578.0586.8164.05859h.28907l.11719.23437.05859.40625.0586.35156v1.10547l.11718.29297.11719.34766.28906.69922.17578.35156.58203.7539.35157.17579.17187.0586.46875.23437.64063.46484.34765.23438.29297.17578.29297.05468.23047.0625.8164.34766.29297.17578.11328.17188.35157.35156.11719.17578.52343.64063v.28906l.0586.35156v.34766l.05859.35156.0586.28906.11718.0586.17188.05859h.17578l.58203.23437.17578.1172.17578.28905.17578.23438.11328.23437.29297.23047.11719.11719v.41016l.0586.05468.28906.23438.23437.11719.0586.11718.11718.17188.0586.11719.23047.23437.05859.17578.23437.0586.1172.05859-.1172.11328-.05859.11719v.11719l-.11719.29296-.11719.28907v.58203l.17579.11719.11718.05859.0586.11719.11719.11719.11328.05859.17578.34765.0586.35157.05858.40625v.17578l-.05859.17578-.11719.69922v.17187l.1172.17579.29296.29296h.40625l.17578.1172.11719.17187.11719.29296v.23438h-.52735l-.23047-.23438h-.23437l-.17578.0586-.0586.69922.0586.34765.11719.17579.17578.41015.11718.23047.28907.46875.17578.05469h.52344l.23437.0586.75781.64062.0586.29296v.23438l.05859.0586.23047.34765v.35156l-.11719.17188v.29297l.29297.28906.29297.17578.17187.0586.29297.17577.29297.1172.58203.40624.28906.23438.29297.17578.21875.16015.01563.01172.23047.17579.64062.52343.17578.23438.1172.17578.17577.17578.11328.17188v.64062l.1172.17578.46874.11719.58203.11719.23438.05859.23047.11328.29297.11719.11328.0586.58593.35156.28907.17187.17578.0625.17578.05469.17578.0586.69922.35155.28906.17579.23438.05468.28906.17578.23437.1172.64063.40624.29297.11719.17187.0586.23438.05859.41015.05859.23047.0586.23438.11718.0586.17188-.41017.17578.46875.0586.0586.29296.11328.23438.17578.05468.23438.0586.17578.05859.40625.11719.64062.23437.11719.17188.0586.23437v.17578l-.0586.1172-.0586.40624.23438.23438.11719.05859.34766.11719.64062.23047.17578.11718.28906.1172.17578.17577.23438.46485.58203 1.10546.17578.17579.34766.17578.17578.11719.35156.11718 1.04688.52344.23437.0586.46485.11327.29297.0586.46484.17578.75781.58203.23438.23438.34765.46484.17578.17578.28907.23438.8164.69921.29297.17579.28906.28906.29297.17578.29297.28906.69531.64063.17578.17578.29297.23437.28907.23438.46875.28906.64062.58203.34766.23438.23437.29297.34766.34765.35156.46485.9336.99218.34765.40625.11719.17579.23437.05859.11328.11719.64454.17578.23047.11328.23437.0586.29297.17577.23047.1172.9336.69921.40624.40625.23438.17578.40625.17578.23437.11719.8164.34766.34766.23437.23438.11719.29297.28906.23047.11719.7578.35156.35157.17188.23047.05859.29297.11719.23437.0586.8711.17577h.8164l.46875.23047.17188.0586.875.69921.46484.1172.29297.05858.17578.0586.23047.0586.46875.05859.34766.05859.35156.0586.40625.05859h.29297l.17187.0586v.23046l.17578.17578h.29297l.34766.0586.35156.05859.69922.11719h.64063l.46484-.23438.29297-.17578.17187-.11719.41016-.17187.28906-.17578.9336-.46485.46875-.29297.52343-.29296.46485-.17188.46484-.17578 1.05078-.46485.28906-.11718.41016-.11719.28906-.11719.52735-.17578 1.51562-.69922.58203-.34765.28907-.0586.29297-.0586.34765-.11718.875-.23047.35156-.11719h.11329l.23437-.05859.875-.23437.23438-.0586h.8125l.35156-.0586.8164-.11718.17188-.0586.35156-.05468.29297-.0586.23047-.05859.8164-.17578.17579-.0586h.34765l.23438-.05859.46484-.11718.75781-.17188.23438-.0586h.34765l.41016-.11718.28906-.0586 1.28516-.05859h.28906l.41016-.0586.23047-.05858h.17578l.875-.1172h.40625l.41015-.11718h.34766l.35156-.11328.8711-.0586h1.75l1.04687.28907.41016.11719.28906.11718.35156.11719.28907.11719 1.05078.17187.28906.0586h.29297l.29297.05859.17187.0586.41016.05859.17187.0586.1172.05858h.11718l.11719.0586.35156.0586h.11328l.41016.0664 1.92187.39453 1.92578.39453 1.51953.44922 1.69532.71875 2.14453.80469 1.60547-.71875 1.42968-.80469 1.16016-1.07813 1.25-.44921 3.03516-.71875 1.875-.35938 2.14453-1.34765 2.23437-1.25391 2.5-1.25781 1.69531-.44922 1.78516-.17969 1.16016-.26953.625.53906 1.33984-.26953.71485-.98828.98437-1.34375.44531-.17969.80469-.35937 1.875-.53907 1.78516-.44921 1.25-.26954 1.16015-.08984 1.69922-.08984 1.96094-.26954 1.25-.08984h.53906l.625-.08984h.89063l2.14453-.17969 2.41015-.17969 2.58985-.08984 1.69531.17969 1.60938.08984 1.42968.35938 1.16016.71875 1.875.98828 1.16015 1.52734.26563.71484.6289.08985.35548.89844.53515.53906.53516 1.52734 1.07422.35938h.53515l-.80469.53515.08985 1.70703.71484 2.69532.89063.80468.89453.98829.71484 1.2578 1.78516.53907 1.51953-.17969.35547 1.34375 1.60937-.80469.98047-.53906.26953.26953.31641-.21484.21875-.14453.80078.44922.44922-.35938h.35547l.53515-.26953.53907-.71875.53515-.26953.625-.98828 1.16016.44922.83984.3711 1.39454.61718 1.6953-.17969h1.60548l1.78515.08985.17969-1.70704.53516-1.34375.80468.26954.4922.84765.40233.40625-.08984.53906v.35938l.71485.44922.71093-.26953h1.42969l.35938.98828.4453 1.25781.71485 1.34375 1.25.6289 1.69531.62891.71485-.17969.17969-.53906.98046-.08984.44922.35937.08594 1.25782-.26563.6289-.53515.17969v.53906l.71484.98438.26563.53906.98437.98828.80078 1.07813-.26562.35937-.08985.89844-.625 2.33203-.35546 2.0664-.08985 1.79298-.17969.71875-.08984.53906v1.4375l-.98047 1.88281-.35937 1.70703-.53516.89844-.80469 1.16797-.26562.53906 2.05469 1.2539.08593.35938-.35546.53906-.08985-.17968v.80859l.08985 1.4375-.44532.71484-1.07422.09375-.26562.71485.53515.89844.8047.71875 1.16015.80859 1.33984.26953.44531.35938-.35546.44921-1.78907-.08984-1.25-.44922-.71484-.71875-.625-.08984-.17578 3.58984-.1875 1.3086h89.35937V311.70313h-55.26953v49.08203l.76172.125 3.28906.54296 2.02344 2.83594v2.7539l2.35156.33204 2.34766.33203h4.05078l-1.3789 4.16016-2.02344.70703-2.02344.70312-.54297.34375-2.59375 1.6172-.1875.11718-2.02344-2.07813-.73046-2.74218-2.67188-2.07813-1.375-3.5-.0664-.08203-1.95704-2.67188 2.75-1.41796v-49.08204H294.42187v91.41407l.1172.03125.1328.01172.07422.07421.10547.04688.08985.0586.08593.05859.08985.0586.29687.29687.0586.08984.03125.11719.02734.11719.01563.13671-.03125.1172-.0586.08983-.0586.08594-.04296.10547-.04688.10156-.02734.1211v.14453l.17578.26953.14844.14844.07422.08594.07422.07421.04296.10547.0625.08985.0586.08593.04297.10547.0586.08985.04687.10156.04296.10547.0586.08594.11719.17968.07421.07422.0625.08594.0586.08984.04297.10547.0586.08985.05858.08593.0625.08985.0586.08984.04297.10156.11719.17969.07421.07422.0586.08594.07422.07421.08984.0586.10547.04687h.14844l.1328-.01562.13282.01562.10156-.04687.07422-.07422.04688-.10156-.01563-.13281v-.14844l-.04687-.10547-.02735-.11719-.04687-.10156-.02735-.1211-.04296-.10156-.0625-.08984-.04297-.10156-.04297-.10547-.03125-.11719-.01563-.13281-.01171-.13672.08593-.0586.0586-.08593.12109-.03125.04297.10547.01562.1328v.1172l.0586.10156.0586.08984.08983.0586.14844.14843.0586.08985.04296.10547-.01171.10156.08593.0586.10547.04687.08594.0586.08984.05858.07422.07422-.11719.02735-.10546.04687-.08594.0586-.07422.07421-.0586.08985-.0625.08594-.02734.12109-.04687.10156-.04297.10547-.03125.11719-.01172.13281-.01563.13281v.14844l.02735.11719.04687.10547.04297.10156.0586.08984.07421.07422.08985.0586.07422.07421.08984.0586.0586.08984.04296.10547.04688.10156.11719.03125.1328.01563h.14845l.11718-.03125.10547.04297.04297.10547.04688.10156.02734.1211L299.5 410l.02734.11719.03125.1211.02735.11718.10547.04297.10156.04687.13281-.01562.14844.14844.0625.08593.07422.07422.07031.07422.08984.0625.10547.04297.10156.04297.1172.03125.13671.01562.11719-.03125.07422-.07422.02734-.11718-.01172-.13282-.03125-.12109-.02734-.11719.04297-.10547h.11719l.08984.0625.11719.02735h.14843l.13282.01562h.14843l.13282.01563.1328-.01563h.14845l.1328-.01562.13282-.01172.13672.01172.11719-.02735.13281-.01562.1914-.0586-.05859.17579-.01562.1328-.02735.1211-.01562.13281-.0586.08594-.1328.01563-.10548.04687-.10546.04297-.1172.03125-.11718.02735-.26563.03125h-.14843l-.13281.01562-.07422.07422.05859.08594.14844.14843.11719.1797.07421.0703.08985.0625.08984.0586.08594.0586.08984.05858.10156.04297.10547.0625.10547.04297.08594.0586.10547.04687.10156.04297.17969.11719.0586.08984-.04298.10156-.04687.10547.01562.13281.22266.22266.0586.08985.04296.10156.03125.1211.04297.10155.01563.13282.03125.11718.01171.13672.03125.11719.14844.14844.10156.04297.10547.04296.1172.03125.1328.01563.13672.01563h.11719l.11719-.03125.08984-.0586.04297-.10547.04688-.10156.04296-.10547.03125-.11719.01172-.1328v-.14845l-.01172-.1328-.01562-.13282-.03125-.11719-.04297-.10547-.04688-.10547-.04296-.10156-.04297-.10547-.01563-.13281.01563-.13281.02734-.11719.03125-.11719.02735-.1211.04687-.10155.08984-.0586.08594-.0625.07422-.07422.08984-.05859.22266-.22266.0586-.08593.07421-.07422.11719-.17969.0586-.08594v-.14844l-.07423-.07421-.10156-.04688-.10547-.04297-.10156-.04297-.0586-.08984-.04687-.10547-.02734-.11719.08984-.05859.11719-.03125.10156-.04297.17969-.11719.14844-.14843.01172-.13282-.01172-.10546-.08985-.0586-.1328.01563h-.14845l-.1328.01562-.13282-.01562-.1211-.03125-.08593-.0586-.07422-.07422-.0586-.08984-.0625-.08594-.11718-.17969-.0586-.08593.03125-.1211.08594-.05859.1211-.03125.05859-.08594v-.1211l-.03125-.11718-.0586-.08984-.05859-.08594-.04687-.10547-.02735-.11719-.01562-.1328.0586-.08985.07421-.07422.08984-.0586.1172-.17968.07421-.07422.0586-.08594.14843-.14844.1211-.03125.1328-.01562.13282.01562.07422.07422.04297.10547.01562.13281-.03125.1172-.11719.03124-.1328.01172-.14844.14844-.04297.10547-.04688.10156-.02734.1211-.03125.11718v.14844l.03125.11719.04297.10546.05859.08985.07422.07031.07422.07422.11719.03125.12109.02734.11719-.02734.1328-.01563h.1172l.08984.0586.07422.07422.04687.10546.0586.08594.10156.04688.13281.01562.10547.04297.08594.0586-.01172.10546-.07422.07422-.17969.11719-.05859.08984-.08984.0586-.07032.07422-.07421.07421-.0625.08985-.02735.11719-.01562.1328.01562.13282-.01562.13281v.14844l.01562.13281.02735.1172.03125.12108.07421.07422.08985.0586.08594.0586.08984.05858.11719.03125v.08594l-.10157.04688-.08984.0586-.26563.03124-.11718.02735h-.14844l-.10547.04296-.10156.04688-.0586.08984-.0625.23438-.01171.13281-.03125.1211-.01563.1328v.29298l-.01172.1328.01172.13673.01563.1328.1328.01563.13282.01172.1211.03125.08593.0586.07422.07421.04688.10547.04296.10157.01563.1328v.44532l-.01563.13281v.44532l.03125.26562.02735.11719.01562.13281.03125.11719.08594.21094.03125.26562v.14844l-.03125.11719-.02734.11718-.03125.1211-.02735.11719-.03125.11718-.03125.1211-.01171.1328-.01563.13282.08984.0586.1172-.03125.10155.01562.04688.10547-.03125.26562v.44141l-.04297.10547-.04688.10547-.04296.10156-.04297.10547-.0586.08594-.03125.12109-.04296.11719-.03125.11719-.01563.1328.01563.13282.05859.08984.10547.04688.08594.0586.05859.08593-.01172.13672-.03125.11719-.04297.10156v.44531l-.01562.13281v.14844l-.03125.11719-.04297.10547-.02735.11719-.04687.10546-.04297.10157-.03125.12109-.02734.11719-.03125.13281-.03125.11719-.02735.11719-.04297.10546-.03125.1172-.03125.12108-.01171.13282-.01563.13281v.29688l.02734.11718v.14844l.04688.39844.02734.11719.0586.08984.12109.03125h.14844l.13281-.01563.0586.08985v.11719l-.0586.08984-.08984.0586-.10157.04296-.10546.04688-.08985.05859-.08594.0586-.13671.01562-.1172-.03125-.1328-.01563-.10157.04688-.0625.08594-.01172.13671-.01562.13282-.03125.11719-.02735.11718-.01562.13281-.03125.1211v.29687l.01563.13282.03125.11718v.14844l.01171.13281v.14844l-.02734.11719-.04688.10156-.02734.1211-.03125.11718-.0586.08985-.07421.07421-.10156.04297-.10547.04688-.11719.02734-.1211.03125-.10156-.04687.0586-.08594.10547-.04688.02734-.11718.03125-.11719.02734-.1211.03125-.11718v-.14844l.01563-.13281-.03125-.11719-.04297-.10547-.10547.01563-.07422.07422-.10156.04296-.08984.0625-.07422.07422-.04297.10157-.01563.1328-.03125.1172L304.25 426l-.03125.11719-.02734.11719-.03125.12109-.02735.11719-.03125.11718-.04297.10547-.08984.0586h-.08984l-.1172-.03125-.03124-.08594.01562-.13672-.03125-.11719v-.14844l-.01171-.1328v-.14844l-.0625-.23438-.02735-.1211-.04297-.10156-.04687-.10546-.0586-.08594-.05859-.08985-.04297-.10546-.0625-.08594-.14844-.14844-.0703-.07422-.10548-.04687-.10547-.04297-.10156-.04297-.29687-.29688-.08985-.07421-.08594-.0586-.10546-.04297-.08985-.0625-.08594-.0586-.10546-.04296-.08985-.0586-.08594-.0625-.07421-.0703-.10547-.04688-.08594-.0586-.10547-.04296-.08984-.0625-.10156-.04297-.10547-.04297-.08594-.0586-.10547-.04687-.10547-.04297-.10156-.04687-.08985-.0586-.10156-.04297-.10547-.04296-.08984-.0625-.11719-.02735-.13281-.01562-.13281.01562H299.75l-.13281.01563-.11719-.03125-.08984-.0586-.07422-.07422-.08985-.05859-.10156-.04688h-.14844l-.12109-.02734-.10156-.04297-.07422-.07422-.11719-.17968-.08984-.0586-.10156-.04297-.08985-.0625-.10547-.04296-.08984-.0586-.08594-.0586-.10547-.04687-.0586-.08594-.05858-.08984-.04297-.10547-.04688-.10156-.07422-.07422-.08594-.0586-.07421-.07421-.08985-.0586-.22265-.22265-.04297-.10547-.03125-.26563.10547-.04296h.14453l.10547.04296.07421.07422.08985.0586.08594.0586.10546.04687.08985.05859.14844.14844.0703.07422.14845.14843.0625.08594.07421.07422.08594.0586.07422.07421.08985.0625.08984.0586.08594.05859.26953.17578.10156.04688.10547.04296.10156.04297.04688-.07421.05859-.08594.07422-.07422.07031-.07422.10547.04297.07422.07422.0586.08984.04296.10156.04688.10547.04296.10547.1211.02735.11719-.02735.07421-.08984.04297-.10547.0586-.08985.07422-.07421.10546-.04297.1172-.02735.1328.01172.08985.0586.14844.14843.05859.08985.04297.10547.04687.10156.04297.10547.04297.10156.10547.04688.10547.04296.13281.01563.08594-.0586.0586-.08984.07421-.07422.10547-.04297.11719.02735.10547.04687.10156.04297.10547.04297.10156.04688.17969.11718v.11719l-.01563.13281.01563.13281.01562.13672.0586.08594.10156.04688.1211.02734.11718.03125h.14844l.11719-.03125.05859-.08984.17969-.1172.05859-.08983.07422-.07422.0586-.08594.11718-.17969.17969-.11719.11719.03125.08984.0586.04297.07422-.01563.1328v.1172l.08985.05859h.14843l.13282-.01563.1328-.01171.26563-.03125.10547-.04297.11719-.03125.1211-.02735.07421-.07421.07031-.07422.0625-.08985-.01562-.10547-.04688-.10156-.10156-.04297-.10547-.01562-.11718.02734-.26563.03125h-.14844l-.07421-.07422-.08985-.0586-.11719-.03124-.11718-.02735-.13282-.01562h-.14843l-.13282.01563h-.29687l-.10547-.04688-.14844-.14844-.04297-.10156-.05859-.08984.22266-.22266.08593-.0586.10547-.04296.11719-.03125.13281-.01563.13281.01563.13672.01562.10157.04297.1328-.01172.08985-.0625.10156-.04297.0625-.08984-.04687-.10156-.08984-.0586-.1172-.03125-.10155-.04296-.0586-.08985-.0625-.08984v-.11719l.01563-.13281.10547-.04688.07421-.07031v-.1211l-.08984-.05859-.03125-.11719.08985-.05859.07421-.07422.04297-.10547.0586-.08984.04687-.10156.01563-.13281v-.14844l-.04688-.10547-.04297-.10156-.08984-.0586-.13281-.01562-.10157-.04297-.13671-.01563-.1172-.03125h-.4453l-.13282-.01562-.13281-.01172-.13281-.01563-.11719-.03125h-.14844l-.13281-.01562-.13281-.01172-.26563-.03125-.1211-.04297-.08593-.0586-.07422-.07421v-.14844l.01172-.13281.10547-.04688.10156-.04296.13281-.01563h.15235l.13281-.01562h.29297l.1211.03125.10156.04296.08984.0586.23438.0625.12109-.04688.08984-.05859.10156-.04297.13282-.01562.10547.04296.10156.04688.13281.01172.1211-.02735h.14453l.12109-.03125.11719-.02734.10547-.04687.07421-.07422.08594-.0586.14844-.14843.0586-.08594.04687-.10547.02734-.11719.01563-.10547-.10156-.04296-.08985-.0586-.11719-.03125-.10546-.04297-.08985-.0625-.07422-.08594-.07422-.07421-.10156-.04297-.10547-.04688-.10156-.04297-.0586-.08984-.04687-.10156-.08594-.21094-.0625-.08594-.05859-.08984-.07422-.07422-.08594-.0586h-.26953l-.11719.03126-.08984.05859-.10156.04297-.13281.01562-.10547-.01562-.02735-.11719-.0625-.08984-.11718-.03125-.10157-.04297-.14843-.14844-.03125-.11719-.01563-.10546.07422-.07422.17969-.1172.11719-.02733.11718-.03125.13672.01562.10156.04297.10547.04297.10156.04687.10547.04297.1172.03125.1328.01563.1172.02734.1328.01563.10547-.01563.08985-.0586-.07422-.07421-.10547-.04297-.07422-.07422-.07422-.08984-.14844-.14844-.08593-.0586-.08985-.05859-.07422-.07422-.08984-.0586-.10156-.04687-.1211-.02734-.10156-.04688-.10547-.04296-.11719-.03125-.10156-.04297-.1211-.03125h-.14843l-.11719.03125-.10546.04297-.08594.0625-.17969.11718-.08594.0586-.08984.0586-.10547.04687-.08594.05859-.10547.04297-.10156.04297-.10547.04687-.07422.07422-.05859.08985-.0586.08593-.04687.10547-.0586.08594-.07421.07422-.13281-.01172-.1172-.03125h-.11718l-.07422.07422-.08984.0586-.07422.07421-.08984.0586-.08594.05859-.10547.04687-.10156.04297-.13672.01563-.10156-.04297-.14844-.14844-.10547-.04688h-.08594l-.10547.04688-.10156.04297-.1211.03125-.11718-.03125-.07422-.07422v-.11719l.03125-.1211.07422-.0703.0586-.08985.07421-.07422.11719-.03125.10547-.04296h.29297l.13281-.01563.13672-.01563.10156-.04296.08985-.0586.10156-.04687.08984-.0586.13281-.01171.08985.05859.13281.01172.08984-.0586.08594-.05859.10547-.04297.08984-.0586.08594-.0625.08985-.05859.14843-.14843.0586-.08594.05859-.08985.10547-.04296.13281-.01563.11719.02735.1211.03125.05859-.0586.05859-.08984.03125-.26563.02734-.11719.10547.01172.13281.01563.10157-.04297.08984-.0586.0586-.08984.07421-.07422.0586-.08984.04687-.10156.01172-.13281-.01172-.13282-.04687-.10547-.14844-.14843-.0586-.08985-.05859-.08594-.04297-.10546v-.44532l.01563-.1328v-.14845l.01172-.1328-.0586-.0586-.08984.0586-.10156-.04298-.17969-.11719-.08594-.05859-.0625-.08984-.0586-.08985-.07421-.07421-.08594-.0586-.1211.03125-.10155.01172-.10547.04688-.08594.05859-.10547.04297-.14844.14844-.08984.05859-.08594.0586-.08984.0625-.10547.04296-.13281.01563v-.1211l.10547-.04297.11718-.03125.07422-.0703.04297-.10548v-.14844l-.02734-.11718-.14844-.14844-.13281-.01563h-.14844l-.11719.03125-.10547.04297-.10156.04297-.08984.0625-.11719.02735-.07422-.07422.01172-.13281-.04297-.10157-.04297-.10547-.08984-.05859-.11719.02734-.1211.03125-.11718.03125-.10156.04297-.1211.03125-.10156.04297-.10547.04297-.08984.0586-.10156.01562v-.11719l.01562-.13281-.0586-.08985-.07421.04297-.14844.14844-.0586.08985-.07421.07421-.04688.10547-.04296.10156-.07422.07422-.0586.08985-.07422.07422-.05859.08593-.07422.07422-.08984.0625-.07422.07031-.07422.07422-.10156.01563-.13281.01562-.10547-.04296v-.1211l.14843-.14844.04297-.10156.0586-.08984.04687-.10156.04297-.10547.0586-.08985.03124-.11719.04297-.10156.03125-.1211.02735-.11718.04687-.10547.04297-.10156.04297-.10547.07422-.07031.08984-.0625.08985-.0586.10156-.04296h.29687l.26563-.03125.10547-.04297-.07422-.07422-.11719-.03125-.10547-.04297-.08984-.0586-.10156-.04687-.08985-.0586-.10156-.04296-.10547-.04297-.08984-.0625-.08594-.0586-.10547-.04296-.10156-.04297-.1211-.03125-.11718-.03125-.10157-.04297L297.5 410.25l-.10156-.04297-.08985-.0586-.04296-.10546-.01563-.13281.10156-.04297.13281-.01563.13672.01563.13282-.01563.10156-.04297.0586-.08984.01562-.10547-.08985-.0586-.07421-.07421-.10157-.04297-.08984-.0586-.14844-.14843-.04297-.10547-.01562-.13281v-.29297l-.0586-.08985-.08984-.05859-.07422-.07422-.04297-.10547-.03125-.11718-.0586-.08985-.07421-.07422-.11719-.02734-.07422-.07422-.08984-.0586-.08984-.0625-.08594-.05859-.07422-.07421-.0586-.08594-.04687-.10547-.08594-.0586-.14843-.14843-.19532-.0586-.1328.01563-.10157.04297-.07422.07422-.04688.10156-.04296.10547-.0586.08984-.0586.08594-.29687.29687-.08984.0586h-.08594l-.0625-.08594-.04297-.10547.03125-.11719.0586-.08984.02734-.11719-.01172-.13281-.08984-.0625-.10547.04688-.11719.02734-.11719.03125-.26953.17578-.10156.04688-.11719.02734-.10546.04687-.08985.0586-.10156.04297-.0586-.08594-.04687-.10547.01563-.13281.04687-.10547.07031-.07422.07422-.07031.0586-.08985v-.14843l-.04297-.10547h-.23829l-.10156.04687-.03125.11719-.02734.11719-.03125.1211-.07422.04296-.13281.01563-.07422-.04688-.04297-.10156-.04297-.10547-.04687-.10156-.04297-.10547-.1211.03125-.10156.04297-.13281.01562-.11719.03125-.10547.04297-.08984.0586-.10156.04687-.1211.02734-.13281.01563-.10156-.04297-.0586-.08985-.04687-.10546-.04297-.10157-.04297-.10546v-.1172l.0586-.08984.08593-.05859.17969-.11719.10156-.04687.10547-.04297.10547-.0586.10156-.04296.08985-.0625.10156-.04297.10547-.0586.10156-.04687.08984-.0586.10547-.04296.10156-.04297.08985-.0625.10156-.04297.13672-.01563.11719.03125.10156.04297.1211.03125.10156.04297.10546.04688.10157.04296.10547.04297.10156.04688.10547.04297.10156.04297.10547.04687.08594.0586.10546.04296.1172.03125.10546.04297.10156.04688.08985.0586.10547.04296.10156.04297.10547.04687.11719.02735.10156.04687.1211.02735h.14843l.08594-.0586.01562-.10156.0586-.08984-.02735-.1172-.07422-.07421-.11719-.17969-.07421-.07422-.08985-.07421-.17969-.1172-.08593-.05859-.10547-.04296-.10156-.04688-.26954-.17578-.05859-.08985-.07422-.07421-.0586-.08985-.04296-.10156-.03125-.11719-.01563-.13672v-.5625l-.01171-.1328-.01563-.13282-.03125-.11719-.01562-.13281-.01172-.13281-.03125-.1211-.22266-.22265-.0586-.08594-.01562-.10547.03125-.11719.13281-.01562v-91.41406H172.9922v1.45312l-.0586.23438-.35156 1.05078-.17187.52343-.1172.34766-.17577.41016-.11719.17187-.23438.29297-.23046.0586h-.35157l-.11718.05859-.23047.40625v.29297l.11719.17578.23046.23047.1172.23437.64062.75781.29297.46485.17578.23437.23047.35156.23437.34766.64063.8164.17578.46485.17187.41016.11719.69531.17578.46875.11719 1.39844.0586.46484v.875l.11718 1.04688v4.78125l-.0586.46484-.35156 1.28125-.17578.52344-.11328.41015-.35156.9297L172.93359 336l-.23437.58203-.11719.17578-.17187.34766-.17578.40625-.35157.8164-.0586.29297-.11327.29297-.11719.28906-.0586.17579-.11718.875-.0586.40625-.05859.11718-.0586.17579-.05859.17187-.23047.52734-.11718.17188v.23437l-.11719.23438-.0586.17187-.17577.58594v.28906l-.0586.17579v.29296l-.0586.11329-.05859.52734v.17187l-.05468.23438v2.6211l-.17578.8164-.1172.17578-.17577.23438-.1172.17187-.11327.23438-.58594.93359-.23047.28906-.29297.46485-.17578.23437-.28906.35156-.35156.69922-.11328.23047-.17579.41016-.17578.23046-.40625.52735-.8164.69922-.29297.17187-.28906.23438-.17579.11719-.17578.17578-.52344.40625-.52734.17578-.17187.17578-.23438.05469-.64062.17578h-.75782m12.21094 31.02344l-1.07422.44921.35938.89454 1.25-.71485.44531-.53906-.98047-.08985"/><path fill="#d3d3d3" fill-opacity="0" fill-rule="evenodd" d="M201.50781 416.59766h-.89453l.44922.6289.98047.35938.80469-.08985.4453-.98828-.17577.08985-.71485-.35547-.89453.35547m154.6211 59.0703l-.0586-.52343v-.29297l.11328-.29297.0586-.23046.46875-.46875h.11328l.11719-.11329.11718-.05859h.17579l.23437-.0586h.34766l.23437.0586.11719.0586.23047.17187.0586.17578.11718.58203v.29297l-.11719.17578-.17187.28906-.17579.17579-.52734.52343-.23047.23438-.11719.0586h-.17578l-.11718-.0586-.40625-.29297-.17579-.11719-.11718-.0586-.0586-.11327-.05468-.1172m6.64062-10.95702l-.0586-.17188v-1.10937l.0586-.17188.17578-.0586.17188-.05858h.17578l.23437-.0586.1172.0586.05858.69921-.05859.17188-.11719.17578-.11718.0586-.23438.52343-.11328.0586h-.23438l-.05859-.1172m9.61328-14.39062l-.11719-.17578v-.69922l.29297-.875.1172-.17187.17577-.35156.11328-.23047.1172-.29297.35155-.75781.1172-.23047.17187-.23438h.17578l.11719-.0586h.64062l.11719.0586.23437.23438.17188.11328.35156.29297.11719.11718.11328.17579v.11328l.11719.05859.11718.11719v.69922l-.05859.17578v.23047l-.0586.17578-.34765 1.05078-.11719.23047-.11719.23437-.11718.0586-.23047.23437-.64063.28906h-.875l-.41015-.11718-.64063-.46485"/><path fill="none" stroke="#bebebe" stroke-linecap="round" stroke-linejoin="round" stroke-miterlimit="10" stroke-width=".5" d="M467.95703 311.69531H144.02734v168.625h323.9297v-168.625"/><g clip-path="url(#a)"><path fill="#fff" fill-opacity="0" fill-rule="evenodd" d="M144 475.89063v4.4375h.0039H144V311.67188h.0039H144v164.21875"/></g><g clip-path="url(#b)"><path fill="#fff" fill-opacity="0" fill-rule="evenodd" d="M144.0039 480.32813V311.67188h17.75V432.8125l-2.625 3.13281-.91796 4.4375.125 4.4375-.35156 4.4414.11718 4.4375-.33594 4.4375-.03125 4.4375 4.01954 3.82423 3.35937.61719 1.07813.55859.64453-.5586 3.79297-1.37109 4.4375-1.02734 4.4414-1.90625.27344-.13672.47266-4.4375-.7461-.67578-1.1211-3.76172-3.3203-3.6211-.32032-.8164-3-4.4414-1.11718-1.40235-4.03125-3.03516-.40625-.21484-2.19532-4.22266-2.24218-3.13281V311.67187h226.35547v142.28907l-4.01172 4.17578-.42579.38281-.6328-.38281-3.8047-3.875-2.15625 3.875 2.15625 2.42187 1.42188 2.01563 3.01563 2.55078 2.58984 1.89063-2.58985 2.67578-1.47265 1.76171 1.47265 1.89844 1.82032-1.89844 2.61719-2.52734 3.33593-1.91015-1.66015-4.44141.55468-4.4375-2.23046-4.17578V311.67188h79.88671v168.65625H144.00391"/></g><path fill="#50fcfc" fill-rule="evenodd" d="M161.7539 466.39844l-4.01952-3.82422.03125-4.4375.33593-4.4375-.11719-4.4375.35157-4.4414-.125-4.4375.91797-4.4375 2.625-3.13282v4.59375l-1.45703 2.97656-.31641 4.4375-.73438 4.4414.67188 4.4375.20703 4.4375 1.6289 3.54688 2.58985.89063 1.84766.51172.98047-.51172 3.45703-1.27735 4.4375-1.40234 1.34375-1.75781-1.34375-4.23438-.05078-.20312-1.73047-4.4375-2.65625-3.03125-1.8125-1.41016-2.625-2.48047-2.57813-1.95703-1.85937-2.97656v-4.59375l2.24218 3.13281 2.19532 4.22266.40625.21484 4.03125 3.03516 1.11718 1.40234 3 4.4414.32032.81642 3.3203 3.62109 1.1211 3.76172.7461.67578-.47266 4.4375-.27344.13672-4.4414 1.90625-4.4375 1.02734-3.79297 1.3711-.64453.55859-1.07813-.5586-3.35937-.61718"/><path fill="#00e8fc" fill-rule="evenodd" d="M159.91797 453.69922l-.67188-4.4375.73438-4.4414.3164-4.4375 1.45704-2.97657 1.85937 2.97656 2.57813 1.95703v3.71485l-4.4375 1.66015-.39844 1.54688.39844 1.4375 1.91797 3 2.51953 2.09765 4.4375-2.07421.01172-.02344.21484-4.4375-.22656-.25781-4.4375-2.94922v-3.71485l2.625 2.48047 1.8125 1.41016 2.65625 3.03125 1.73047 4.4375.05078.20312 1.34375 4.23438-1.34375 1.75781-4.4375 1.40235-3.45703 1.27734-.98047.51172-1.84766-.51172-2.58984-.89063-1.62891-3.54687-.20703-4.4375"/><path fill="#00d4fc" fill-rule="evenodd" d="M161.7539 450.69922l-.39843-1.4375.39844-1.54688 4.4375-1.66015 4.4375 2.94922.22656.2578-.21484 4.4375-.01172.02345-4.4375 2.07421-2.51953-2.09765-1.91797-3"/><path fill="#50fcfc" fill-rule="evenodd" d="M379.23438 460.5586l-2.15625-2.42188 2.15625-3.875 3.80468 3.875.63281.38281.42579-.38281 4.01171-4.17578 2.23047 4.17578-.55468 4.4375 1.66015 4.4414-3.33594 1.91016-2.61718 2.52735-1.82031 1.89843-1.47266-1.89844 1.47265-1.76171 2.58985-2.67579-2.58985-1.89062-3.01562-2.55078-1.42188-2.01563"/><g clip-path="url(#c)"><path fill="#fff" fill-opacity="0" fill-rule="evenodd" d="M467.9961 480.32813H468V311.67188h-.0039H468v168.65625h-.0039"/></g><g clip-path="url(#d)"><path fill="none" stroke="#000" stroke-linecap="round" stroke-linejoin="round" stroke-miterlimit="10" stroke-width=".5" d="M147.35938 479.29688l-6.71875 2.0625"/></g><g clip-path="url(#e)"><path fill="none" stroke="#000" stroke-linecap="round" stroke-linejoin="round" stroke-miterlimit="10" stroke-width=".5" d="M147.35938 479.29688l1.73828 1.73437"/></g><g clip-path="url(#f)"><path fill="none" stroke="#000" stroke-linecap="round" stroke-linejoin="round" stroke-miterlimit="10" stroke-width=".5" d="M146.38281 479.59766l1.73438 1.73437"/></g><g clip-path="url(#g)"><path fill="none" stroke="#000" stroke-linecap="round" stroke-linejoin="round" stroke-miterlimit="10" stroke-width=".5" d="M160.6914 479.35156l-6.75 1.95313"/></g><g clip-path="url(#h)"><path fill="none" stroke="#000" stroke-linecap="round" stroke-linejoin="round" stroke-miterlimit="10" stroke-width=".5" d="M160.6914 479.35156l1.70704 1.76172"/></g><g clip-path="url(#i)"><path fill="none" stroke="#000" stroke-linecap="round" stroke-linejoin="round" stroke-miterlimit="10" stroke-width=".5" d="M159.70703 479.63672l1.71094 1.76172"/></g><g clip-path="url(#j)"><path fill="none" stroke="#000" stroke-linecap="round" stroke-linejoin="round" stroke-miterlimit="10" stroke-width=".5" d="M173.91016 479.07422l-6.5625 2.51172"/></g><g clip-path="url(#k)"><path fill="none" stroke="#000" stroke-linecap="round" stroke-linejoin="round" stroke-miterlimit="10" stroke-width=".5" d="M173.91016 479.07422l1.85156 1.60937"/></g><g clip-path="url(#l)"><path fill="none" stroke="#000" stroke-linecap="round" stroke-linejoin="round" stroke-miterlimit="10" stroke-width=".5" d="M172.95703 479.4375l1.85156 1.61328"/></g><g clip-path="url(#m)"><path fill="none" stroke="#000" stroke-linecap="round" stroke-linejoin="round" stroke-miterlimit="10" stroke-width=".5" d="M187.1836 478.96094l-6.47657 2.73437"/></g><g clip-path="url(#n)"><path fill="none" stroke="#000" stroke-linecap="round" stroke-linejoin="round" stroke-miterlimit="10" stroke-width=".5" d="M187.1836 478.96094l1.90234 1.55078"/></g><g clip-path="url(#o)"><path fill="none" stroke="#000" stroke-linecap="round" stroke-linejoin="round" stroke-miterlimit="10" stroke-width=".5" d="M186.23828 479.35938l1.90625 1.54687"/></g><g clip-path="url(#p)"><path fill="none" stroke="#000" stroke-linecap="round" stroke-linejoin="round" stroke-miterlimit="10" stroke-width=".5" d="M200.46094 478.875l-6.39844 2.90625"/></g><g clip-path="url(#q)"><path fill="none" stroke="#000" stroke-linecap="round" stroke-linejoin="round" stroke-miterlimit="10" stroke-width=".5" d="M200.46094 478.875l1.9414 1.5"/></g><g clip-path="url(#r)"><path fill="none" stroke="#000" stroke-linecap="round" stroke-linejoin="round" stroke-miterlimit="10" stroke-width=".5" d="M199.52734 479.30078l.97266.7461"/></g><g clip-path="url(#s)"><path fill="none" stroke="#000" stroke-linecap="round" stroke-linejoin="round" stroke-miterlimit="10" stroke-width=".5" d="M213.79297 478.91797l-6.4336 2.82422"/></g><g clip-path="url(#t)"><path fill="none" stroke="#000" stroke-linecap="round" stroke-linejoin="round" stroke-miterlimit="10" stroke-width=".5" d="M213.79297 478.91797l1.92578 1.51953"/></g><g clip-path="url(#u)"><path fill="none" stroke="#000" stroke-linecap="round" stroke-linejoin="round" stroke-miterlimit="10" stroke-width=".5" d="M212.85547 479.32813l.96484.7578"/></g><g clip-path="url(#v)"><path fill="none" stroke="#000" stroke-linecap="round" stroke-linejoin="round" stroke-miterlimit="10" stroke-width=".5" d="M227.0586 478.8086l-6.33594 3.04296"/></g><g clip-path="url(#w)"><path fill="none" stroke="#000" stroke-linecap="round" stroke-linejoin="round" stroke-miterlimit="10" stroke-width=".5" d="M227.0586 478.8086l1.97656 1.45312"/></g><g clip-path="url(#x)"><path fill="none" stroke="#000" stroke-linecap="round" stroke-linejoin="round" stroke-miterlimit="10" stroke-width=".5" d="M226.13672 479.25l.98828.72656"/></g><g clip-path="url(#y)"><path fill="none" stroke="#000" stroke-linecap="round" stroke-linejoin="round" stroke-miterlimit="10" stroke-width=".5" d="M240.32422 478.71094l-6.23828 3.23437"/></g><g clip-path="url(#z)"><path fill="none" stroke="#000" stroke-linecap="round" stroke-linejoin="round" stroke-miterlimit="10" stroke-width=".5" d="M240.32422 478.71094l2.01953 1.39453"/></g><g clip-path="url(#A)"><path fill="none" stroke="#000" stroke-linecap="round" stroke-linejoin="round" stroke-miterlimit="10" stroke-width=".5" d="M239.41797 479.1836l1.00781.6953"/></g><g clip-path="url(#B)"><path fill="none" stroke="#000" stroke-linecap="round" stroke-linejoin="round" stroke-miterlimit="10" stroke-width=".5" d="M253.47266 478.42578l-5.90625 3.80469"/></g><path fill="none" stroke="#000" stroke-linecap="round" stroke-linejoin="round" stroke-miterlimit="10" stroke-width=".5" d="M253.47266 478.42578l2.14453 1.19531m-3.0039-.64062l1.0703.59766"/><g clip-path="url(#C)"><path fill="none" stroke="#000" stroke-linecap="round" stroke-linejoin="round" stroke-miterlimit="10" stroke-width=".5" d="M266.74219 478.35547l-5.8125 3.94922"/></g><path fill="none" stroke="#000" stroke-linecap="round" stroke-linejoin="round" stroke-miterlimit="10" stroke-width=".5" d="M266.74219 478.35547l2.17187 1.14453"/><g clip-path="url(#D)"><path fill="none" stroke="#000" stroke-linecap="round" stroke-linejoin="round" stroke-miterlimit="10" stroke-width=".5" d="M279.7461 477.96094l-5.19141 4.73437"/></g><path fill="none" stroke="#000" stroke-linecap="round" stroke-linejoin="round" stroke-miterlimit="10" stroke-width=".5" d="M279.7461 477.96094l2.3125.82422"/><g clip-path="url(#E)"><path fill="none" stroke="#000" stroke-linecap="round" stroke-linejoin="round" stroke-miterlimit="10" stroke-width=".5" d="M292.98047 477.875l-5.03125 4.90625"/></g><path fill="none" stroke="#000" stroke-linecap="round" stroke-linejoin="round" stroke-miterlimit="10" stroke-width=".5" d="M292.25 478.58984l1.16797.3711"/><g clip-path="url(#F)"><path fill="none" stroke="#000" stroke-linecap="round" stroke-linejoin="round" stroke-miterlimit="10" stroke-width=".5" d="M305.88672 477.51563l-4.21094 5.625"/></g><path fill="none" stroke="#000" stroke-linecap="round" stroke-linejoin="round" stroke-miterlimit="10" stroke-width=".5" d="M305.27344 478.33594l1.21094.1875"/><g clip-path="url(#G)"><path fill="none" stroke="#000" stroke-linecap="round" stroke-linejoin="round" stroke-miterlimit="10" stroke-width=".5" d="M318.97656 477.36328l-3.76172 5.9336"/></g><path fill="none" stroke="#000" stroke-linecap="round" stroke-linejoin="round" stroke-miterlimit="10" stroke-width=".5" d="M318.42969 478.22656l1.22265.09375"/><g clip-path="url(#H)"><path fill="none" stroke="#000" stroke-linecap="round" stroke-linejoin="round" stroke-miterlimit="10" stroke-width=".5" d="M332.14453 477.27344l-3.46875 6.10937"/></g><path fill="none" stroke="#000" stroke-linecap="round" stroke-linejoin="round" stroke-miterlimit="10" stroke-width=".5" d="M331.64063 478.16406l1.22656.03125"/><g clip-path="url(#I)"><path fill="none" stroke="#000" stroke-linecap="round" stroke-linejoin="round" stroke-miterlimit="10" stroke-width=".5" d="M345.66406 477.39844l-3.875 5.85937"/></g><path fill="none" stroke="#000" stroke-linecap="round" stroke-linejoin="round" stroke-miterlimit="10" stroke-width=".5" d="M345.10156 478.25l1.21875.11719"/><g clip-path="url(#J)"><path fill="none" stroke="#000" stroke-linecap="round" stroke-linejoin="round" stroke-miterlimit="10" stroke-width=".5" d="M357.74219 476.88672l-1.40235 6.88672"/></g><g clip-path="url(#K)"><path fill="none" stroke="#000" stroke-linecap="round" stroke-linejoin="round" stroke-miterlimit="10" stroke-width=".5" d="M371.70313 477.08594l-2.69532 6.48828"/></g><path fill="none" stroke="#000" stroke-linecap="round" stroke-linejoin="round" stroke-miterlimit="10" stroke-width=".5" d="M371.3125 478.02734l1.21875-.11718"/><g clip-path="url(#L)"><path fill="none" stroke="#000" stroke-linecap="round" stroke-linejoin="round" stroke-miterlimit="10" stroke-width=".5" d="M386.57031 478.34375l-5.79687 3.97266"/></g><path fill="none" stroke="#000" stroke-linecap="round" stroke-linejoin="round" stroke-miterlimit="10" stroke-width=".5" d="M385.72656 478.92188l1.08594.5664"/><g clip-path="url(#M)"><path fill="none" stroke="#000" stroke-linecap="round" stroke-linejoin="round" stroke-miterlimit="10" stroke-width=".5" d="M394.19922 478.1875l5.57422 4.28125"/></g><path fill="none" stroke="#000" stroke-linecap="round" stroke-linejoin="round" stroke-miterlimit="10" stroke-width=".5" d="M395.01172 478.8125l.20312-1.21094"/><g clip-path="url(#N)"><path fill="none" stroke="#000" stroke-linecap="round" stroke-linejoin="round" stroke-miterlimit="10" stroke-width=".5" d="M412.3086 483.21484l-4.01563-5.76953"/></g><g clip-path="url(#O)"><path fill="none" stroke="#000" stroke-linecap="round" stroke-linejoin="round" stroke-miterlimit="10" stroke-width=".5" d="M426.89453 479.0664l-6.5586 2.52344"/></g><g clip-path="url(#P)"><path fill="none" stroke="#000" stroke-linecap="round" stroke-linejoin="round" stroke-miterlimit="10" stroke-width=".5" d="M425.9414 479.4336l.92579.80468"/></g><g clip-path="url(#Q)"><path fill="none" stroke="#000" stroke-linecap="round" stroke-linejoin="round" stroke-miterlimit="10" stroke-width=".5" d="M440.09375 478.79688l-6.32422 3.0664"/></g><g clip-path="url(#R)"><path fill="none" stroke="#000" stroke-linecap="round" stroke-linejoin="round" stroke-miterlimit="10" stroke-width=".5" d="M439.17188 479.24219l.99218.72265"/></g><g clip-path="url(#S)"><path fill="none" stroke="#000" stroke-linecap="round" stroke-linejoin="round" stroke-miterlimit="10" stroke-width=".5" d="M452.58984 477.71094l-4.6875 5.23828"/></g><path fill="none" stroke="#000" stroke-linecap="round" stroke-linejoin="round" stroke-miterlimit="10" stroke-width=".5" d="M451.90625 478.47266l1.1914.29297"/><g clip-path="url(#T)"><path fill="none" stroke="#000" stroke-linecap="round" stroke-linejoin="round" stroke-miterlimit="10" stroke-width=".5" d="M466.45313 478.33203l-5.78516 3.99219"/></g><g clip-path="url(#U)"><path fill="none" stroke="#000" stroke-linecap="round" stroke-linejoin="round" stroke-miterlimit="10" stroke-width=".5" d="M466.45313 478.33203l2.17968 1.1289"/></g><g clip-path="url(#V)"><path fill="none" stroke="#000" stroke-linecap="round" stroke-linejoin="round" stroke-miterlimit="10" stroke-width=".5" d="M147.34766 465.94531l-6.69532 2.13672"/></g><path fill="none" stroke="#000" stroke-linecap="round" stroke-linejoin="round" stroke-miterlimit="10" stroke-width=".5" d="M147.34766 465.94531l1.7578 1.71094m-2.73437-1.40234l1.75782 1.71484m12.47656-2.1875l-6.57813 2.46484m6.57813-2.46484l1.83984 1.6211m-2.79687-1.26173l1.83984 1.6211m12.3086-2.26953l-6.33204 3.04297m6.33203-3.04297l1.97657 1.45312m-2.89844-1.01172l1.97656 1.45313m-2.89844-1.00781l.98829.72656m14.14453-1.66406l-6.28125 3.14453m6.28125-3.14453l2 1.41796m-2.91406-.96093l2 1.41797m12.11718-2.08204l-6.0586 3.5586m6.0586-3.5586l2.08985 1.28516m-2.96875-.76562l2.08984 1.28125m12.04688-1.89454l-5.94532 3.7461m5.94531-3.7461l2.12891 1.21875m-2.99219-.67578l2.12891 1.21875m12.05469-1.7578l-5.95313 3.73827m5.95313-3.73828l2.125 1.22266M226 465.6875l2.1289 1.22266m11.85548-2.04297l-5.5586 4.29297m5.5586-4.29297l2.23828 1.00781m-3.04688-.38281l1.11719.5039m12.61328-1.5625l-4.77344 5.16016m4.77344-5.16016l2.375.62891m-3.07031.1211l1.1875.3164m12.42969-1.3789l-3.98438 5.78515m3.98438-5.78516l2.4375.27735m-3.01563.5625l1.21875.14062m12.79297-.89844l-4.22266 5.6211m4.22266-5.6211l2.42187.38282m-3.03515.4375l1.21093.1875m12.9922-.77735l-4.77345 5.16016m4.77344-5.16016l2.375.62891m-3.07031.1211l1.1875.3164m12.61328-1.2461l-4.35156 5.51954m4.35156-5.51953l2.41406.4375m-3.04687.36718l1.20703.21875m12.15625-1.39453l-3.1836 6.26563m3.1836-6.26563l2.45312-.04687m-2.91796.95703l1.22656-.02344m12.1914-1.04687l-2.46093 6.58203m2.46093-6.58203l2.4336-.32032m10.4414.1875l-1.57812 6.84766m1.34766-5.85156l1.18359-.3164m11.9961-.7422l-.84766 6.97266m.72265-5.96094l1.14844-.4375m11.86719-.60156v7.02734m10.4336-5.52343l5.76562 4.01953m9.52343-5.40235l1.81641 6.78516m15.5-5.0625l-6.1836 3.33984m19.91016-1.91406l-7.0078.48828m5.98827-.41797l.64844 1.04297m13.16406-2.72265l-5.96484 3.70703m5.96484-3.70703l2.125 1.23046m10.9414-1.58593l-5.46484 4.41797m4.66797-3.77344l1.12891.47656m13.76172 1.14063l-7.02735-.10547m6.00391.08984l.5625 1.08984"/><g clip-path="url(#W)"><path fill="none" stroke="#000" stroke-linecap="round" stroke-linejoin="round" stroke-miterlimit="10" stroke-width=".5" d="M147.32031 452.54688l-6.64062 2.30468"/></g><path fill="none" stroke="#000" stroke-linecap="round" stroke-linejoin="round" stroke-miterlimit="10" stroke-width=".5" d="M147.32031 452.54688l1.79688 1.66796m-2.76563-1.33203l1.80078 1.66797m12.4961-1.95703l-6.66797 2.21094m6.66797-2.21094l1.77734 1.6914m-2.7461-1.37109l1.77345 1.69531m-2.7422-1.37109l.88673.84375m14.33203-1.58594l-6.60156 2.40625m6.60156-2.40625l1.82422 1.64063m-2.78125-1.28906l1.8203 1.64062m12.4297-2.05078l-6.5547 2.52344m6.5547-2.52344l1.85547 1.60547m-2.8086-1.23828l1.85547 1.60547m12.36719-2.08985l-6.46485 2.75781m6.46485-2.7578l1.91015 1.53905m-2.85156-1.14062l1.91016 1.54297m12.17187-2.29297l-6.11719 3.46094m6.1172-3.46094l2.0703 1.3164m-2.96093-.8125l2.07031 1.31641m12.08984-1.89844l-6.02343 3.6172m6.02343-3.6172l2.10157 1.26563m-2.97657-.73828l2.10157 1.26562m11.92578-2.03906l-5.69922 4.10938m5.69922-4.10938l2.20312 1.08203m-3.03125-.48437l2.19922 1.08203m11.59766-2.08985l-5.00781 4.9297m5.0078-4.9297l2.33985.73438m-3.0664-.01953l1.16796.36719m12.8047-1.14844l-4.8711 5.0625m4.8711-5.0625l2.36327.66797m10.64453-.9336l-4.25 5.59375m4.25-5.59375l2.42188.39063m11.1211-.20313l-4.70704 5.21875m4.70703-5.21875l2.3789.59766m-3.0664.16016l1.1914.30078m13.25-.58203l-5.58593 4.26562m5.58594-4.26562l2.23047 1.02343m10.61719-1.52734l-4.65235 5.26953m4.65235-5.26953l2.38671.57031m10.25-1.03906l-3.29687 6.20703m3.29687-6.20703h2.45313m10.22656-.26172l-2.02344 6.73047m1.72657-5.75l1.20312-.23828m13.21875-.3789l-3.64453 6.0078m3.11328-5.1328l1.22656.0703m14.21485 1.2422l-6.83594 1.6289m5.84375-1.39063l.8086.92188m12.3789-3l-4.59766 5.3125m3.9297-4.53906l1.1953.27343m14 1.46485l-7.01953.28906m6-.25l.61719 1.0586m13.61719-.10938l-6.82031-1.6875m5.82812 1.4414l.30078 1.19141m14.03125-1.04297l-6.86719-1.49218m6.8672 1.49218l.66405 2.35938m12.73047-3.14844l-7.02734.08594m7.02734-.08594l1.17578 2.15234m11.52344-4.09765l-5.79687 3.97656m4.95312-3.39844l1.08985.57032m12.5-1.78907l-4.66016 5.25782"/><g clip-path="url(#X)"><path fill="none" stroke="#000" stroke-linecap="round" stroke-linejoin="round" stroke-miterlimit="10" stroke-width=".5" d="M465.89063 451.07031l2.38671.57422"/></g><g clip-path="url(#Y)"><path fill="none" stroke="#000" stroke-linecap="round" stroke-linejoin="round" stroke-miterlimit="10" stroke-width=".5" d="M147.42578 439.60938l-6.85156 1.55078"/></g><path fill="none" stroke="#000" stroke-linecap="round" stroke-linejoin="round" stroke-miterlimit="10" stroke-width=".5" d="M147.42578 439.60938l1.60156 1.85937m-2.59765-1.63281l1.60156 1.85547m12.55078-2.59766l-6.53516 2.57813m6.53516-2.57813l1.86719 1.59375m-2.8164-1.21875L161.5 441.0625m-2.82031-1.21875l.9336.79688m14.21093-1.71875l-6.38672 2.92578m6.38672-2.92578l1.94922 1.48828m-2.8789-1.0625l1.94921 1.48828m-2.8789-1.0625l.97656.74219m14.22265-1.54688l-6.4375 2.82813m6.4375-2.82813l1.92578 1.52344m-2.86328-1.10938l1.92578 1.51953m12.42578-1.67187l-6.63671 2.30469m6.63672-2.3047l1.80078 1.67188m-2.76563-1.33593l.89844.83593m13.38281-1.17578l-6.63672 2.3125m6.63672-2.3125l1.80078 1.66797m-2.76562-1.32812l1.79687 1.66406m12.44922-2.09766l-6.57031 2.5m6.57031-2.5l1.84375 1.61719m-2.80078-1.25l1.84766 1.61328m12.32812-2.20703l-6.375 2.95313m6.375-2.95313l1.95313 1.48047m-2.88282-1.05078l.98047.74218m13.10156-1.48046l-6.05078 3.57421m6.05078-3.57421l2.09375 1.27734m-2.97656-.75781l1.04688.64062m13.03906-1.33984l-5.82813 3.92969m5.82813-3.9297l2.16406 1.15235m-3.01172-.57812l1.08203.57422m12.85938-1.4375l-5.38672 4.51171m5.38672-4.51171l2.27344.91796m-3.0586-.26171l1.14063.45703m11.53125-2.13672l-2.52735 6.5586m2.52735-6.5586l2.4336-.29688m12.02343 1.01563l-4.8164 5.11719m4.8164-5.1172l2.36719.64845m11.65234.27734l-6.22266 3.26562m6.22266-3.26562l2.02734 1.38281m10.88282-1.99219l-5.41016 4.48438m4.6211-3.83203l1.13671.46875m13.34766-.55469l-6.17578 3.35156m6.17578-3.35156l2.04687 1.35547m9.91797-2.73438l-3.47265 6.10938m3.47265-6.10938l2.45313.07032m10.60156-.20313l-2.94922 6.3789m2.94922-6.3789l2.44922-.13672m12.7539 4.33594l-6.73046-2.01953m19.79687 2.63281l-6.23047-3.25m5.32422 2.77735l.00781 1.22656m14.09375-.54297l-5.99218-3.67188m5.99218 3.67188l-.14843 2.44922m13.78906-3.13672l-6.64063-2.29688m6.64063 2.29688l.3789 2.42578m13.10938-3.21875l-6.98828-.71094m6.98828.71094l.92969 2.26953m12.21094-3.77734l-6.64063 2.30469m6.64063-2.3047l1.79687 1.66798m10.3789-3.26953l-4.35937 5.51171m3.72266-4.71093l1.20703.21875"/><g clip-path="url(#Z)"><path fill="none" stroke="#000" stroke-linecap="round" stroke-linejoin="round" stroke-miterlimit="10" stroke-width=".5" d="M147.48828 426.63281l-6.97656.8711"/></g><path fill="none" stroke="#000" stroke-linecap="round" stroke-linejoin="round" stroke-miterlimit="10" stroke-width=".5" d="M147.48828 426.63281l1.41016 2.00781m-2.42578-1.8828l1.41015 2.0078m-2.42578-1.8789l.70703 1.0039m14.65235-1.09765l-7.00391.55078m7.0039-.55078l1.32032 2.07031m-2.33984-1.98828l1.3203 2.07031m13.01954-2.07812l-7.01563.40234m7.01563-.40234l1.27344 2.09765m-2.29297-2.03906l1.27344 2.09766m13.02343-2.5l-6.9414 1.08984m6.9414-1.08984l1.47656 1.96094m-2.48437-1.8047l1.47656 1.96095m12.79688-2.38282l-6.83985 1.6211m6.83985-1.6211l1.6211 1.84375m-2.6172-1.60547l1.6211 1.83985m12.71094-1.97656l-6.88282 1.41796m6.88281-1.41796l1.56641 1.89062m-2.5664-1.6836l1.5664 1.89063m-2.5664-1.6836l.78125.94532m14.55468-1.25781l-6.92187 1.21484m6.92187-1.21484l1.50781 1.9336m-2.51562-1.75782l1.50781 1.9336m12.82422-2.0586l-6.9414 1.11328m6.9414-1.11328l1.48047 1.95703m-2.49219-1.79297l1.48047 1.95703m12.60156-2.95703l-6.44922 2.78516m6.44922-2.78516l1.91797 1.53125m-2.85547-1.125l.95703.76563m13.23829-1.29688l-6.33594 3.03516m6.33594-3.03516l1.97656 1.45703m-2.89844-1.01562l.98828.72656m13.08985-1.46094l-6.01953 3.6211m6.01953-3.6211l2.10547 1.26172m-2.98047-.73437l1.05078.6289m13.21484-1.02734l-6.16797 3.36328m6.16797-3.36328l2.04688 1.34766m11.47656-.89454l-6.58594 2.45704m6.58594-2.45704l1.83594 1.62891m10.75-2.80078l-5.12891 4.80469m5.1289-4.8047l2.32032.79298m10.69922-1.07422l-4.53516 5.36719m3.875-4.58985l1.19922.26172m13.42578-.3125l-5.83984 3.91016m5.83984-3.91016l2.16406 1.16016m11.05079-1.30078l-5.63672 4.1914m5.63672-4.1914l2.21875 1.05078m10.84375-1.35547l-5.13282 4.80078m4.38672-4.10156l1.16016.39844m11.6875-1.94141l-2.70313 6.48828m2.3086-5.54297l1.22265-.11719m13.9961 4.45704l-5.72266-4.08204m5.72266 4.08204l-.32032 2.43359m13.5586-2.33203l-5.57031-4.28516m5.5703 4.28516l-.41015 2.41797m14.4375-4.20703l-6.99219-.70704m6.9922.70704l.92968 2.26953m12.33984-3.27735l-6.90234 1.3086m6.90234-1.3086l1.53516 1.91407m11.26562-3.1875l-5.875 3.85546m5.875-3.85546l2.15235 1.17968m10.3164-2.07422l-4.18359 5.64454m3.57813-4.82422l1.21093.18359"/><g clip-path="url(#aa)"><path fill="none" stroke="#000" stroke-linecap="round" stroke-linejoin="round" stroke-miterlimit="10" stroke-width=".5" d="M147.51172 413.64453l-7.02344.21875"/></g><path fill="none" stroke="#000" stroke-linecap="round" stroke-linejoin="round" stroke-miterlimit="10" stroke-width=".5" d="M147.51172 413.64453l1.21875 2.1289m-2.24219-2.09765l.60938 1.0625m13.73047-1.05078l-7.02735.1289m7.02734-.1289l1.19141 2.14453m-2.21484-2.125l1.1914 2.14453m13.10938-1.57422l-6.94922-1.04687m6.94922 1.04687l.8125 2.31641m-1.82422-2.46875l.8164 2.3164m13.46876-1.94921l-6.8672-1.48047m6.8672 1.48047l.67187 2.36328m-1.67187-2.57813l.67187 2.36329m-1.66797-2.57813l.33203 1.17969m15.0586-1.45313l-7.02735-.07031m7.02735.07031l1.1289 2.17969m-2.15234-2.1914l1.13281 2.17968m13.20313-2.35937l-7.01953.30859m7.01953-.3086l1.2461 2.1172m12.0664-1.76172l-7.01563-.39844m7.01563.39844l1.02734 2.22656m-2.04687-2.28516l.51172 1.11328m13.82812-1.20703l-7.02734-.09375m7.02734.09375l1.1211 2.1836m-2.14454-2.19922l.5625 1.09375m13.7539-1.53125l-6.98046.8125m6.98047-.8125l1.39453 2.01562m-2.41016-1.89844l.69532 1.00782m13.57422-1.47657l-6.85938 1.51563m6.85938-1.51563l1.59375 1.8672m-2.58985-1.64454l.79297.9336m13.3125-1.78907l-6.44922 2.78125m6.44922-2.78125l1.91797 1.53125m11.36719-1.60156l-6.39063 2.92187m6.39063-2.92187l1.94921 1.49219m11.41407-1.38282l-6.48438 2.70313m6.48438-2.70313l1.89843 1.5547m11.48438-1.38282l-6.6211 2.35937m6.6211-2.35937l1.8125 1.65234m11.70312-.58984l-7.02343.23437m6.0039-.19921l.60938 1.0625m13.71484-1.27344l-7 .58594m5.98047-.5l.66406 1.03125m13.40625-2.19532l-6.47265 2.74219m5.53125-2.34375l.95312.77344m12.90625-1.8711l-5.67578 4.14063m5.67578-4.14063l2.20703 1.07032m11.69532.22656l-6.85547 1.54297m5.85937-1.3164l.80078.92968m12.79297-2.6211l-5.41797 4.47657m5.41797-4.47656l2.26953.9375m11.0586-.91797l-5.44532 4.4375m5.44532-4.4375l2.26172.94922m11.3203-.57813l-5.97655 3.69531m5.97656-3.69531l2.11719 1.23828m11.5625-.44531l-6.70704 2.10547m5.73047-1.79688l.875.85938m12.89063-2.19531l-5.65625 4.16406m5.65625-4.16406l2.21484 1.05859m10.86328-1.35156l-5.17968 4.74609m4.42578-4.05469l1.15625.41016"/><g clip-path="url(#ab)"><path fill="none" stroke="#000" stroke-linecap="round" stroke-linejoin="round" stroke-miterlimit="10" stroke-width=".5" d="M147.38281 401.38281l-6.76562-1.89062"/></g><path fill="none" stroke="#000" stroke-linecap="round" stroke-linejoin="round" stroke-miterlimit="10" stroke-width=".5" d="M147.38281 401.38281l.52735 2.39844m-1.51172-2.67188l.26562 1.19922m14.07031-1.0664l-6.83984-1.60547m6.83984 1.60547l.62891 2.3711m12.77344-2.95704l-7.01172-.4375m7.01172.4375l1.01562 2.23438m12.25782-3.02735l-6.9297 1.14844m6.9297-1.14844l1.49218 1.95313m11.8672-1.5586l-7.01954.35938m7.01953-.35938l1.26172 2.10547m11.98047-2.66015l-6.8711 1.46875m6.8711-1.46875l1.57812 1.8789m-2.57812-1.66406l.78906.9375m13.54297-1.0625l-6.90625 1.28906m6.90625-1.28906l1.53125 1.92187m-2.53516-1.73437l.76563.96094m13.60547-.71875l-7.01172.42968m7.01172-.42968l1.28515 2.09375m-2.30468-2.03125l.64062 1.04687m13.69531-1.09765l-7.01562.41015m7.01562-.41015l1.27735 2.09375m-2.29688-2.03516l.63672 1.04687m13.67969-1.32812l-6.97656.85156m6.97656-.85156l1.40625 2.01172m-2.42188-1.88672l.70313 1.0039m13.51953-1.65625l-6.76172 1.91016m6.76172-1.91015l1.69922 1.76953m-2.6836-1.4922l.85157.88673m13.25-1.69531l-6.36719 2.97265m6.36719-2.97265l1.96094 1.47656m11.33203-1.52344l-6.32032 3.0664m6.32032-3.0664l1.98437 1.44531m11.48828-1.07031l-6.63672 2.3164m6.63672-2.3164l1.80078 1.66406m11.63282-1.2461l-6.8711 1.47657m5.8711-1.26172l.78906.9375m13.54297-1.0664l-6.90625 1.30468m5.89844-1.11328l.76953.95703m13.60546-.28906l-7.01171-.41015m5.99218.34765l.51172 1.11719m13.8164-1.57422l-7 .625m19.39454-2.69922l-5.15625 4.77344m5.15625-4.77344l2.3164.8086m11.125-.66407l-5.41015 4.48438m5.41016-4.48438l2.26953.9336m11.58203-.04297l-6.48438 2.70703m6.48438-2.70703l1.89844 1.55469m11.28906-1.83204l-6.22656 3.26172m6.22656-3.26172l2.02344 1.38282m11.44921-1.03125l-6.54296 2.55468m5.59375-2.18359l.92968.80078m13.0547-1.73828l-5.98438 3.6875m5.98437-3.6875l2.11719 1.24219m10.8711-1.6875l-5.32813 4.57812"/><g clip-path="url(#ac)"><path fill="none" stroke="#000" stroke-linecap="round" stroke-linejoin="round" stroke-miterlimit="10" stroke-width=".5" d="M466.22656 398.14844l2.28516.89453"/></g><g clip-path="url(#ad)"><path fill="none" stroke="#000" stroke-linecap="round" stroke-linejoin="round" stroke-miterlimit="10" stroke-width=".5" d="M147.3125 388.30078l-6.625-2.35547"/></g><path fill="none" stroke="#000" stroke-linecap="round" stroke-linejoin="round" stroke-miterlimit="10" stroke-width=".5" d="M147.3125 388.30078l.35938 2.42578m13.07812-2.8711l-6.8711-1.46483m6.8711 1.46484l.67578 2.35937m12.71875-3.07421l-7.02734-.03125m6.0039.02343l.57032 1.08594m13.66015-1.96094l-6.8125 1.73047m6.8125-1.73047L189 388.07421m11.55078-2.17968l-6.58203 2.45703m5.625-2.09765l.91797.8125m13.51953-.58204l-6.91016 1.27735m6.91016-1.27735l1.52734 1.91797m-2.53515-1.73437l.76562.96094m13.48047-1.47266l-6.75781 1.9336m6.75781-1.9336l1.70313 1.76953m-2.6875-1.48828l.85156.88281m13.50781-.91015l-6.8789 1.42578m6.8789-1.42578l1.57031 1.88671m-2.5703-1.67968l.78515.94531m13.55469-1.02734l-6.9297 1.17578m6.9297-1.17578l1.5 1.9414m-2.50782-1.76953l.75.97266m13.6211-.70313l-7.02344.29297m7.02344-.29297l1.23828 2.11719m-2.26172-2.07422l1.24219 2.11719m13.08593-2.28906l-7.0039.55078m7.0039-.55078l1.32032 2.0664m-2.33985-1.98828l.66016 1.03516m13.61719-1.53125l-6.89063 1.38672m6.89063-1.38672l1.55859 1.89844m-2.5625-1.69532l.78125.94531m13.45703-1.46484l-6.72656 2.01953m6.72656-2.01953l1.72656 1.74219m-2.70312-1.44922l1.72656 1.74219m12.63672-1.75781l-6.8711 1.46875m6.8711-1.46875l1.57813 1.875m-2.57813-1.66407l.78906.9414m13.52344-1.17577l-6.86328 1.51562m6.86328-1.51562l1.58984 1.86719m11.75782-1.69922l-6.9297 1.17578m6.9297-1.17578l1.49609 1.9414m11.85938-1.58594l-7.01172.46485m7.01172-.46485l1.29296 2.08594m11.89844-2.80078l-6.76562 1.89453m6.76562-1.89453l1.69531 1.77735m11.4297-2.29688l-6.38282 2.9375m6.38281-2.9375l1.95313 1.48438m11.28515-1.64454L393.8711 388.75m6.23047-3.2539l2.02344 1.38671m11.16406-1.60547l-5.97656 3.69532m5.97656-3.69532l2.1211 1.23438m11.0625-1.4375l-5.71094 4.09765m5.71094-4.09765l2.19922 1.08984m11.55859-.2461l-6.59766 2.41017m6.59766-2.41016l1.82812 1.63672m11.40235-1.85547l-6.42578 2.84765m6.42578-2.84765l1.92969 1.51562m11.60546-.82421l-6.87109 1.46484"/><g clip-path="url(#ae)"><path fill="none" stroke="#000" stroke-linecap="round" stroke-linejoin="round" stroke-miterlimit="10" stroke-width=".5" d="M466.9961 386.39063l1.58202 1.8789"/></g><g clip-path="url(#af)"><path fill="none" stroke="#000" stroke-linecap="round" stroke-linejoin="round" stroke-miterlimit="10" stroke-width=".5" d="M146.98438 375.66016l-5.96875-3.70313"/></g><path fill="none" stroke="#000" stroke-linecap="round" stroke-linejoin="round" stroke-miterlimit="10" stroke-width=".5" d="M146.98438 375.66016l-.16407 2.44921m13.6211-2.69921l-6.25391-3.20704m6.2539 3.20704l.03516 2.45312m13.63281-4.54687l-6.95703.98437m6.95703-.98437l1.44532 1.98437m11.82812-2.21094l-6.875 1.4375m6.875-1.4375l1.57422 1.88282m11.77344-1.71875l-6.9414 1.10937m6.9414-1.10937l1.48047 1.95703m-2.49219-1.79688l.74219.98047m13.6289-.58594h-7.02734m7.02734 0l1.15235 2.16797m-2.17578-2.16797l.57422 1.08204m13.7578-1.29688l-7.01562.42969m7.01563-.42969l1.28125 2.09375m-2.30469-2.03125l.64453 1.04688m13.57031-1.84375l-6.76562 1.89843m6.76562-1.89844l1.69141 1.77344m-2.67578-1.4961l1.6914 1.77345m12.58985-2.10938l-6.73047 2.01563m6.73047-2.01563l1.72656 1.74219m-2.70703-1.44922l.86328.8711m13.4336-1.16016l-6.73438 2.00781m6.73438-2.00781l1.72265 1.7461m-2.70312-1.45704l.86328.875m13.5039-.875l-6.8789 1.42969m6.8789-1.42969l1.57032 1.88672m-2.57032-1.67969l.78516.94531m13.48047-1.36328l-6.78125 1.85156m6.78125-1.85156l1.67969 1.78906m-2.66797-1.51953l.84375.89454m13.4336-1.25l-6.72657 2.02343m6.72656-2.02344l1.72656 1.7422m-2.70312-1.44923l1.72656 1.7422m12.5625-2.05079l-6.72265 2.05469m6.72265-2.05469l1.73438 1.73438m-2.71485-1.4336l1.73438 1.73438m12.65234-1.65235l-6.90625 1.28516m6.90625-1.28516l1.53125 1.92188m-2.53515-1.73438l1.53125 1.92188m12.83593-1.75781l-7 .58593m7-.58594l1.32813 2.0625m-2.34766-1.97656l1.32813 2.0625m12.98828-2.33203l-6.96485.95313m6.96485-.95313l1.4336 1.98828m-2.44923-1.85156l1.4375 1.99219m12.8086-2.55078l-6.79297 1.79687m6.79297-1.79687l1.66797 1.79687m-2.65625-1.53515l.83203.89843m13.13672-1.98437l-6.125 3.4414m6.125-3.4414l2.0664 1.32422m-2.95703-.82032l1.03125.66016m13.17578-1.15625l-6.1289 3.42969m6.1289-3.42969l2.0664 1.32813m11.10938-1.5586l-5.85156 3.89063m5.85156-3.89063l2.16016 1.16797m11.17578-1.13672l-5.89062 3.82813m5.89062-3.82813l2.14453 1.1875m11.21094-1.125l-5.97266 3.69922m5.97266-3.69922l2.1211 1.23828m11.03906-1.46875l-5.66407 4.16016m5.66407-4.16016l2.21093 1.0664m11.54297-.26562l-6.54297 2.5625"/><g clip-path="url(#ag)"><path fill="none" stroke="#000" stroke-linecap="round" stroke-linejoin="round" stroke-miterlimit="10" stroke-width=".5" d="M466.83203 372.52734l1.86328 1.59766"/></g><g clip-path="url(#ah)"><path fill="none" stroke="#000" stroke-linecap="round" stroke-linejoin="round" stroke-miterlimit="10" stroke-width=".5" d="M146.42188 363.03906l-4.84375-5.09375"/></g><path fill="none" stroke="#000" stroke-linecap="round" stroke-linejoin="round" stroke-miterlimit="10" stroke-width=".5" d="M146.42188 363.03906l-.77735 2.32813m14.23047-2.46875l-5.1211-4.8086m5.1211 4.8086l-.64063 2.36719m14.28907-2.78125L167.73438 358.5m4.94921 3.40625l-.14062 1.21875m14.91406-2.77734l-7.02344.28906m7.02344-.28906l1.23828 2.11718m12.07031-1.70703l-7.0078-.53125m7.0078.53125l.98438 2.25m-2.0039-2.32422l.49218 1.1211m13.84375-1.11719l-7.01562-.39063m7.01562.39063l1.03125 2.22656m-2.05078-2.28125l.51563 1.11328m13.8203-1.46484l-7.01562.42578m7.01563-.42578l1.28125 2.09375m-2.30078-2.03125l1.27734 2.09375m13.01172-2.53125l-6.92578 1.17188m6.92578-1.17188l1.5 1.94531m-2.50781-1.77344l1.5 1.94141m12.78125-2.32422l-6.84375 1.59766m6.84375-1.59766l1.61328 1.84766m-2.60938-1.61719l1.61328 1.85156m12.52344-2.625l-6.49219 2.6836m6.4922-2.6836l1.89452 1.5625m-2.83984-1.17187l.94531.78125m13.38672-.98438l-6.63672 2.3047m6.63672-2.3047l1.80078 1.67188m-2.76562-1.33594l.89843.83594m13.42579-1.03906l-6.72657 2.03906m6.72657-2.03906l1.73046 1.74218m-2.70703-1.4453l.86328.87108m13.38672-1.30078l-6.64062 2.3086m6.64062-2.3086l1.79688 1.66797m-2.76563-1.33203l.90235.83203m13.5-.73047l-6.87891 1.4297m6.8789-1.4297l1.57032 1.89063m-2.57031-1.67969l.78515.9414m13.55078-1.03515l-6.92187 1.19922m6.92187-1.19922l1.50782 1.9375m-2.51172-1.76562l.75.96875m13.59375-1l-6.96875.91796m6.96875-.91796l1.42187 1.99609m-2.4375-1.86328l1.42578 1.9961m12.85157-2.4297l-6.86328 1.51954m6.86328-1.51954l1.59375 1.8672m-2.59375-1.64844l1.59375 1.86718m12.6914-2.21094l-6.80078 1.76954m6.80078-1.76954l1.66016 1.8047m-2.65234-1.54688l1.66015 1.80469m12.51172-2.46875l-6.53516 2.58203m6.53516-2.58204l1.86719 1.59375m-2.8164-1.21875l1.86718 1.59375m12.375-2.03125l-6.48828 2.70313m6.48828-2.70313l1.89453 1.5586m-2.83984-1.16406l1.89843 1.55859m12.41016-1.83203l-6.58203 2.46094m6.58203-2.46094l1.83594 1.625m-2.79688-1.26563l.92188.8125m13.34765-1.18359l-6.5703 2.48828m6.5703-2.48828l1.84375 1.61719m-2.80078-1.25781l.92188.8125m13.36328-1.13672l-6.59766 2.41406m6.59766-2.41406l1.82812 1.63671m-2.78906-1.28515l.91406.82031m13.1875-1.57031l-6.25 3.21094m6.25-3.21094l2.01563 1.40234m11.48047-.98828l-6.60938 2.38281"/><g clip-path="url(#ai)"><path fill="none" stroke="#000" stroke-linecap="round" stroke-linejoin="round" stroke-miterlimit="10" stroke-width=".5" d="M466.86719 359.30078l1.8164 1.64844"/></g><g clip-path="url(#aj)"><path fill="none" stroke="#000" stroke-linecap="round" stroke-linejoin="round" stroke-miterlimit="10" stroke-width=".5" d="M145.65234 350.28125l-3.30468-6.20313"/></g><path fill="none" stroke="#000" stroke-linecap="round" stroke-linejoin="round" stroke-miterlimit="10" stroke-width=".5" d="M145.65234 350.28125l-1.37109 2.03125m.89063-2.9336l-.6875 1.01563m15.3125-.73047l-4.96485-4.97265m4.96484 4.97265l-.71875 2.34766m-.0039-3.07031l-.35938 1.17187m15.27344-1.90625l-6.71875-2.0586m6.71875 2.0586l.46484 2.41016m-1.4414-2.70703l.23437 1.20312m14.15625-1.3086l-6.91406-1.2539m6.91406 1.2539l.7461 2.33594m-1.75-2.51953l.3711 1.16797m13.89843-.75781l-6.8164-1.70703m6.8164 1.70703l.59375 2.3789m-1.58594-2.6289l.29688 1.1914m14.11718-1.83593l-7.02734.08203m7.02734-.08203l1.17578 2.15625m-2.19921-2.14453l1.17578 2.15625m13.14062-2.51172l-6.98437.76953m6.98437-.76953l1.38281 2.02734m-2.39843-1.91406l1.38281 2.02734m12.94922-2.125l-6.98828.73829m6.98828-.73829l1.375 2.03125m-2.39063-1.92578l1.375 2.03516m12.92578-2.36328l-6.92578 1.1836m6.92578-1.1836l1.5 1.9414m-2.5078-1.76953l1.5 1.9414m-2.50782-1.76952l.75.97265m14.57422-1.34375l-6.91797 1.23829m6.91797-1.23829l1.51562 1.9297m-2.51953-1.75l1.51563 1.92968m-2.52344-1.75l.75781.96484m14.53125-1.51562l-6.83984 1.6211m6.83984-1.6211l1.6211 1.84375m-2.6172-1.60547l1.6211 1.83984m12.6914-2.0625l-6.84374 1.58985m6.84375-1.58985l1.61328 1.85156m-2.60938-1.61718l.8086.92187m13.5664-.82422l-6.96875.92579m6.96875-.92579l1.42579 2m-2.44141-1.86328l.71484.9961m13.59766-1.25l-6.9336 1.16015m6.9336-1.16015l1.49219 1.9453m-2.5-1.77733l1.49218 1.9453m12.79688-2.28124l-6.86719 1.4961m6.86719-1.4961l1.58594 1.875m-2.58594-1.65625l1.58594 1.8711m12.78125-1.79688l-6.96875.91015m6.96875-.91015l1.42187 2m-2.4375-1.8672l1.42188 2m12.92187-2.01171l-6.9961.66797m6.9961-.66797l1.35156 2.04688m-2.37109-1.94922l1.35547 2.04687m-2.3711-1.94922l.67579 1.02344m14.625-1.5586l-6.89844 1.34766m6.89844-1.34765l1.54687 1.90625m-2.55078-1.70704l1.54688 1.90235m-2.55079-1.70703l.77344.95312m14.4414-1.75781l-6.68359 2.16797m6.6836-2.16797l1.76562 1.70703m-2.73828-1.39062l1.76563 1.70703m-2.73438-1.39063l.8789.85156m14.33595-1.61328l-6.59766 2.42579m6.59766-2.42579l1.82812 1.63672m-2.78906-1.28125l1.82812 1.63281m-2.78906-1.28125l.91406.81641m14.29688-1.58984l-6.54688 2.5586m6.54688-2.5586l1.85937 1.60156m-2.8125-1.22656l1.86328 1.59765m-2.8164-1.22656l.9336.79688m14.27734-1.56641l-6.52344 2.60938m6.52344-2.60938l1.875 1.58203m-2.82422-1.20312l1.875 1.58203m12.3711-2.0039l-6.48829 2.6914m6.48828-2.6914l1.89453 1.5625m-2.83594-1.17188l1.89063 1.5625m12.44922-1.73438l-6.65625 2.2539m6.65625-2.2539l1.78515 1.6836m11.6172-1.375l-6.83204 1.63671"/><g clip-path="url(#ak)"><path fill="none" stroke="#000" stroke-linecap="round" stroke-linejoin="round" stroke-miterlimit="10" stroke-width=".5" d="M466.97656 346.35938l1.6289 1.83984"/></g><g clip-path="url(#al)"><path fill="none" stroke="#000" stroke-linecap="round" stroke-linejoin="round" stroke-miterlimit="10" stroke-width=".5" d="M144.60938 337.32422l-1.21875-6.92188"/></g><g clip-path="url(#am)"><path fill="none" stroke="#000" stroke-linecap="round" stroke-linejoin="round" stroke-miterlimit="10" stroke-width=".5" d="M144.60938 337.32422l-1.9297 1.51172"/></g><g clip-path="url(#an)"><path fill="none" stroke="#000" stroke-linecap="round" stroke-linejoin="round" stroke-miterlimit="10" stroke-width=".5" d="M144.4336 336.3164l-.96485.75391"/></g><path fill="none" stroke="#000" stroke-linecap="round" stroke-linejoin="round" stroke-miterlimit="10" stroke-width=".5" d="M158.92578 336.98438l-3.22266-6.2422m3.22266 6.2422l-1.39844 2.01953m15.61328-2.6836l-5.02343-4.91406m5.02344 4.91406l-.69141 2.35547m14.8164-3.66015l-6.64062-2.3047m6.64063 2.3047l.3789 2.42187m-1.34375-2.75781l.1875 1.21094m14.28125-1.82032l-7.01562-.41406m7.01562.41406l1.01953 2.23047m-2.04297-2.28906l.51172 1.11328m13.82422-1.0664l-7.01562-.39063m7.01562.39062l1.03125 2.22657m-2.05078-2.28125l1.02734 2.22656m-2.04687-2.28516l.51172 1.11328m14.84765-1.29687l-7.02343.20312m7.02343-.20312l1.21485 2.1289m-2.23828-2.10156l1.21484 2.13281m-2.23438-2.10156l.60547 1.0664m14.72657-1.46874l-6.97266.89062m6.97266-.89062l1.41797 2.0039m-2.4336-1.875l1.41797 2.00391m12.83984-2.52344l-6.82422 1.67188m6.82422-1.67188l1.63282 1.83204m-2.625-1.58985l1.6328 1.83203m12.57813-2.40234l-6.6328 2.32812m6.6328-2.32812l1.8047 1.66406m-2.76954-1.32422l1.80469 1.66406m12.52734-1.84375l-6.73437 2.00782m6.73437-2.00781l1.72266 1.74609m-2.70313-1.45313l1.72266 1.7461m12.58594-1.98047l-6.76563 1.89062m6.76563-1.89062l1.6953 1.77734m-2.67968-1.5039l1.69531 1.77734m12.72266-1.39063l-7.0039.57032m7.0039-.57031l1.32422 2.0664m-2.33984-1.98437l.66015 1.03125m13.67578-1.03516l-7.01172.41406m7.01172-.41406l1.28125 2.09375m-2.30078-2.03516l.64063 1.04688m13.64062-1.54297l-6.90625 1.28906m6.90625-1.28906l1.53125 1.91797m-2.53515-1.73047l.76562.95703m13.58594-.95312l-6.96875.90625m6.96875-.90625l1.42187 1.99609m-2.4375-1.86719l.71094 1m13.625-1.08594l-6.98047.82032m6.98047-.82031l1.39453 2.01953m-2.41015-1.89844l.69921 1.00781m13.52344-1.67187l-6.76562 1.90625m6.76562-1.90625l1.69531 1.77343m-2.67968-1.49609l1.6953 1.77344m-2.67968-1.4961l.84766.88672m13.97656-2.4375l-5.84766 3.89844m5.84766-3.89844l2.16016 1.16406m-3.01172-.59765l2.16015 1.16406m12.03125-1.69531l-5.89453 3.82812m5.89453-3.82812l2.14454 1.1875m-3.00391-.63281l1.07422.59375m13.3086-.77735l-6.3125 3.08594m6.3125-3.08594l1.98827 1.4414m-2.90625-.99218l.99219.71875m13.42188-.72656l-6.67188 2.20312m6.67188-2.20312l1.77343 1.69531m-2.7461-1.375l1.77345 1.69531m12.46875-2.14843l-6.58203 2.46875m6.58203-2.46875l1.83984 1.625m-2.79687-1.26563l1.83593 1.625m-2.79297-1.26562l.91797.8125m14.28125-1.60157l-6.52343 2.60938m6.52343-2.60938l1.875 1.58204m-2.82422-1.20313l1.875 1.58594m-2.82421-1.20703l.9375.79296m14.26171-1.58593l-6.49609 2.67969"/><g clip-path="url(#ao)"><path fill="none" stroke="#000" stroke-linecap="round" stroke-linejoin="round" stroke-miterlimit="10" stroke-width=".5" d="M466.8086 332.52344l1.89062 1.5625"/></g><g clip-path="url(#ap)"><path fill="none" stroke="#000" stroke-linecap="round" stroke-linejoin="round" stroke-miterlimit="10" stroke-width=".5" d="M465.86328 332.91016l1.89453 1.5664"/></g><g clip-path="url(#aq)"><path fill="none" stroke="#000" stroke-linecap="round" stroke-linejoin="round" stroke-miterlimit="10" stroke-width=".5" d="M144.41406 324.03516l-.82812-6.97657"/></g><g clip-path="url(#ar)"><path fill="none" stroke="#000" stroke-linecap="round" stroke-linejoin="round" stroke-miterlimit="10" stroke-width=".5" d="M144.41406 324.03516l-2.01562 1.40234"/></g><g clip-path="url(#as)"><path fill="none" stroke="#000" stroke-linecap="round" stroke-linejoin="round" stroke-miterlimit="10" stroke-width=".5" d="M144.29297 323.02344l-1.00781.69922"/></g><path fill="none" stroke="#000" stroke-linecap="round" stroke-linejoin="round" stroke-miterlimit="10" stroke-width=".5" d="M159.15625 323.54297l-3.67969-5.98828m3.67969 5.98828l-1.24219 2.11328m15.46875-2.92578l-5.5039-4.36719m5.5039 4.36719l-.44531 2.41406m14-2.75781l-5.98438-3.67969m5.98438 3.67969l-.15234 2.44922m13.60937-2.69922l-6.26953-3.17578m6.26953 3.17578l.04688 2.45312m-.96094-2.91406l.02734 1.22656m14.52735-1.73828l-6.91797-1.23047m6.91797 1.23047l.7539 2.33594m-1.76172-2.51563l.75391 2.33594m13.61328-3.02344l-7.00781.50391m7.00781-.5039l1.30469 2.07812m-2.32422-2.00781l1.30469 2.07812m13.02344-2.21484l-6.9961.63672m6.9961-.63672l1.34375 2.05078m-2.35938-1.95703l1.34375 2.05078m12.92188-2.57422l-6.8672 1.4961m6.8672-1.4961l1.58593 1.8711m-2.58594-1.65625l1.58985 1.87109m12.5625-2.6289l-6.53906 2.57812m6.53906-2.57813l1.86328 1.59375m-2.8164-1.21875l1.86718 1.59375m12.57422-1.3711l-6.88672 1.38673m6.88672-1.38672l1.5586 1.89844m-2.5586-1.69532l1.55469 1.89454m12.70312-2.33985l-6.77344 1.86719m6.77344-1.86719l1.6875 1.78516m-2.67187-1.51172l1.6875 1.78125m12.70312-1.6211l-6.95312 1m6.95312-1l1.44922 1.98047m-2.46094-1.83203l1.44922 1.98047m12.90625-1.83984l-7.01172.42187m7.01172-.42187l1.28125 2.09375m-2.30078-2.03125l1.28125 2.09375m13.03516-2.3789l-6.97266.87108m6.97266-.87109l1.41015 2.0039m-2.42578-1.8789l1.41016 2.00781m12.88281-2.35937l-6.90234 1.32422m6.90234-1.32422l1.53906 1.91015m-2.54296-1.71875l1.53906 1.91016m12.84375-1.51172l-7.02735.14453m7.02735-.14453l1.19531 2.14063m11.91797-3.24219l-6.625 2.34766m6.625-2.34766l1.8086 1.65625m-2.77344-1.3164l.90625.82812m12.89453-2.07422l-5.66797 4.15625m5.66797-4.15625l2.21093 1.0664m-3.03515-.46093l2.21094 1.0664m11.68359-1.96875l-5.17578 4.75391m5.17578-4.7539l2.3125.8125m-3.0664-.1211l1.15624.40625m12.6289-1.375L408 323.20313m4.60547-5.3086l2.39062.55078m10.5586-.82812l-3.875 5.86328m18.57422-4.07813l-6.64454 2.29297m19.625-2.9961l-5.97656 3.69923m5.97656-3.69922l2.1211 1.23437m-2.99219-.69921l1.0625.62109m12.73438-1.67188l-5.19922 4.72657"/><g clip-path="url(#at)"><path fill="none" stroke="#000" stroke-linecap="round" stroke-linejoin="round" stroke-miterlimit="10" stroke-width=".5" d="M466.16016 318.1836l2.3125.82812"/></g><path fill="none" stroke="#000" stroke-linecap="round" stroke-linejoin="round" stroke-miterlimit="10" stroke-width=".5" d="M465.40625 318.8711l2.3086.82812m-3.06641-.14063l2.3086.82813"/><path fill="#ff3030" fill-rule="evenodd" d="M446.63281 467.64844h7.6914V457.5039h-7.6914v10.14453"/><path fill="azure" fill-rule="evenodd" d="M448.46484 459.33594h.83204v5.73828h3.1953v.74219h-4.02734v-6.48047"/><path fill="#00f" fill-rule="evenodd" d="M308.34766 449.89453h8.61718V439.75h-8.61718v10.14453"/><path fill="azure" fill-rule="evenodd" d="M310.17969 441.58203h.83594v2.82422h3.28515v-2.82422h.83203v6.48047h-.83203v-2.91797h-3.28515v2.91797h-.83594v-6.48047"/><path fill="#ff3030" fill-rule="evenodd" d="M202.52344 414.38672h7.6914v-10.14453h-7.6914v10.14453"/><path fill="azure" fill-rule="evenodd" d="M204.35547 406.07422h.83203v5.74219h3.19531v.73828h-4.02734v-6.48047"/><path fill="#ffffe0" fill-rule="evenodd" d="M328.42969 392.2461h22.17969v-10.19141h-22.1797v10.1914"/><path fill-rule="evenodd" d="M331.92969 383.88672h.50781v6.29297h-.78516v-4.48828h-1.39062v-.5547l.5586-.0664.2539-.05469.23047-.08984.20312-.14062.17188-.21094.14453-.29297.10547-.39453m4.8125 0l.23047.01953.21875.05469.20703.08984.19531.1211.1836.14843.17187.17578.30469.41797.24218.4961.1797.54687.10937.57813.03906.58984-.03906.59375-.10938.58594-.17969.55078-.24218.5039-.3047.4297-.17187.17968-.18359.15234-.19531.1211-.20703.09375-.21875.05469-.23047.02343-.23047-.02344-.21875-.05468-.20703-.09375-.19531-.1211-.1836-.15234-.17187-.17969-.3047-.42969-.24218-.5039-.17969-.55078-.10937-.58594-.03906-.59375h.83203l.02734.5625.08203.50781.1289.4414.16017.375.1914.30079.21094.22266.22265.13671.22657.04688.22656-.04688.22266-.13671.21093-.22266.19141-.30078.16016-.375.1289-.4414.07813-.50782.03125-.5625-.03125-.5586-.07813-.5039-.1289-.4336-.16016-.36718-.1914-.29297-.21094-.21094-.22266-.13281-.22656-.04297-.22656.04297-.22266.13281-.21094.21094-.1914.29297-.16016.36719-.1289.43359-.08204.5039-.02734.5586h-.83203l.03906-.58984.10937-.57813.1797-.54687.24218-.4961.30469-.41797.17187-.17578.1836-.14844.1953-.12109.20704-.08984.21875-.05469.23047-.01953m5.08984 0h.51172v6.29297h-.78906v-4.48828h-1.38672v-.5547l.5586-.0664.2539-.05469.22656-.08984.20313-.14062.17578-.21094.14062-.29297.10547-.39453m2.82422 2.17578h.78906l.01953-.3164.0586-.28907.09765-.25.14063-.21484.17969-.17578.22656-.12891.26172-.07813.3086-.02734.23827.01953.22266.0625.20703.10156.17969.13672.14844.17579.11328.20312.0703.23828.02345.26563-.01954.26562-.0664.22656-.10938.19141-.15625.17188-.19921.16015-.25.16797-.63282.38672-.53515.3164-.4375.31641-.34766.32422-.26563.33594-.1875.35156-.125.36719-.0703.39453-.01954.41797h4.21094v-.73828h-3.33203l.08203-.28516.11328-.23828.14844-.19922.1875-.17969.23047-.17187.27734-.17578.71875-.41797.41406-.20313.34766-.23437.28125-.25.21875-.26563.16406-.27734.10938-.28516.0664-.28515.01953-.28125-.04296-.38282-.1211-.34765-.1875-.3086-.25-.26171-.30469-.21485-.34375-.15625-.3828-.10156-.40626-.03125-.4336.03125-.39843.09765-.35547.16797-.30469.23438-.24609.30469-.1875.375-.11719.4453-.03906.51954"/><path fill="#ffffe0" fill-rule="evenodd" d="M224.4961 383.55078h22.17968v-10.1914H224.4961v10.1914"/><path fill-rule="evenodd" d="M227.99219 375.1914h.51172v6.29688h-.78907v-4.49219h-1.38672v-.55468l.5586-.06641.2539-.05078.22657-.08985.20312-.14453.17578-.20703.14063-.29687.10547-.39453m4.8164 0l.22657.01953.21875.05469.21093.08984.19532.1211.18359.14843.17188.17578.30078.42188.24609.49218.17969.54688.10937.57812.03906.59375-.03906.58985-.10937.58594-.17969.55468-.2461.5-.30077.42969-.17188.17969-.1836.15234-.1953.125-.21094.08985-.21875.05859-.22657.01953-.23047-.01953-.21875-.0586-.20703-.08984-.19922-.125-.18359-.15234-.17187-.17969-.30078-.42969-.2422-.5-.17968-.55469-.11328-.58593-.03906-.58985h.83593l.02735.5625.08203.50391.125.44531.16406.3711.1914.30078.21095.22265.22265.13672.22656.04688.22657-.04688.22265-.13672.21094-.22265.1875-.30078.16406-.3711.125-.44531.08203-.5039.03125-.5625-.03125-.5625-.08203-.5-.125-.4375-.16406-.36329-.1875-.29297-.21094-.21484-.22265-.13281-.22657-.04297-.22656.04297-.22266.13281-.21093.21484-.1914.29297-.16407.36328-.125.4375-.08203.5-.02735.5625h-.83593l.03906-.59375.11328-.57812.17969-.54688.24219-.49218.30078-.42188.17187-.17578.1836-.14844.19921-.1211.20703-.08983.21875-.0547.23047-.01952m5.08985 0h.50781v6.29687h-.78516v-4.49219h-1.39062v-.55468l.5625-.06641.25-.05078.23047-.08985.20312-.14453.17578-.20703.14063-.29687.10547-.39453m2.82422 2.17578h.78515l.01953-.3164.0586-.28517.10156-.2539.14063-.21485.17968-.17578.22266-.1289.26562-.07813.3086-.02734.23828.01953.22266.0625.20312.10156.17969.14063.14844.17187.11328.20703.07422.23438.02343.26562-.01953.26954-.0664.22265-.10938.1914-.15625.17188-.20313.16406-.24609.16407-.63281.39062-.53906.3125-.4375.3164-.34375.32423-.26563.33594-.1914.35156-.125.3711-.06641.39062-.02344.42187h4.21484v-.74219h-3.33593l.08594-.28515.11328-.23438.14843-.20312.1875-.17969.23047-.17188.27735-.17578.71875-.41796.41406-.20313.34375-.23047.28125-.2539.22266-.26563.16015-.27734.11328-.28516.0625-.28516.01953-.28125-.03906-.3828-.1211-.34767-.1914-.30859-.25-.26172-.30078-.21484-.34766-.15625-.3789-.09766-.40625-.03515-.4336.03125-.39843.10156-.35547.16406-.30469.23438-.25.30468-.1836.375-.11718.44532-.03906.51953"/><path fill="#ffffe0" fill-rule="evenodd" d="M337.30469 357.98828h22.17969v-10.19531h-22.1797v10.19531"/><path fill-rule="evenodd" d="M340.80469 349.6289h.50781v6.29298h-.78516v-4.48829h-1.39062v-.55468l.5625-.06641.25-.05469.23047-.08984.20312-.14063.17578-.21093.14063-.29297.10547-.39453m4.8125 0l.23047.01953.21875.05469.20703.08984.19922.1211.18359.14843.17188.17578.30078.41797.24218.4961.1797.54687.11327.57812.03906.58985-.03906.59375-.11328.58594-.17969.55078-.24218.5039-.30079.42578-.17187.1797-.1836.15624-.19921.1211-.20703.09375-.21875.05468-.23047.01953-.22656-.01953-.21875-.05469-.21094-.09375-.19531-.12109-.1836-.15625-.17187-.17969-.30079-.42578-.24218-.5039-.1836-.55079-.10937-.58593-.03906-.59375h.83203l.03125.5625.08203.50781.125.4414.16406.375.1875.30079.21094.22265.22265.13672.22657.04688.22656-.04688.22266-.13672.21093-.22265.19141-.30078.16406-.375.125-.44141.08203-.50781.02735-.5625-.02735-.5625-.08203-.5-.125-.4336-.16406-.36718-.1914-.29297-.21094-.21094-.22266-.13281-.22656-.04688-.22656.04688-.22266.13281-.21094.21094-.1875.29297-.16406.36718-.125.4336-.08203.5-.03125.5625h-.83203l.03906-.58985.10937-.57812.1836-.54688.24219-.49609.30078-.41797.17187-.17578.1836-.14844.1953-.1211.21094-.08983.21875-.0547.22657-.01952m5.09375 0h.50781v6.29296h-.78516v-4.48828h-1.39062v-.55468l.5625-.06641.25-.05469.23047-.08984.20312-.14063.17188-.21093.14453-.29297.10547-.39453m6.80469 1.61718h-.78907l-.05078-.21093-.08203-.1875-.10547-.15625-.13281-.13282-.14453-.10156-.16016-.07422-.16797-.04687-.17187-.01563-.32813.04297-.28906.1211-.2461.1953-.20312.26563-.16015.33985-.1172.40234-.0703.46875-.02344.52734.1914-.20312.1836-.16016.1875-.1211.1836-.08983.1875-.0586.1914-.03906.40234-.02344.3086.03125.3203.08985.31641.15625.29297.21875.25781.28515.19532.35156.07422.19922.05078.21875.03125.23438.0039.25-.78515.04687-.02735-.25781-.07812-.25-.1211-.23438-.16015-.21093-.19531-.17969-.21875-.13672-.2422-.08594-.2539-.03125-.2539.03125-.2422.08594-.21874.13672-.19531.17969-.16016.21094-.1211.23437-.07812.25-.02734.25781.02734.26172.07813.25.12109.23438.16016.21093.1953.17579.21876.13671.24219.08985.2539.03125.2539-.03125.2422-.08985.21875-.13671.1953-.17579.16017-.21093.12109-.23438.07812-.25.02735-.26172.78515-.04687-.03125.3711-.08984.375-.16016.35546-.22265.32813-.28906.28515-.17188.11719-.1875.10156-.20313.08203-.22656.0625-.24219.03906-.2578.01172-.28516-.01562-.25782-.04688-.23828-.07421-.21484-.10547-.19531-.13282-.17579-.15625-.15234-.17968-.13672-.20313-.11719-.22265-.09765-.2422-.14844-.53124-.08203-.59375-.02734-.64063.03906-.7461.11328-.66015.1875-.57812.11719-.25781.13672-.23047.15625-.20704.16796-.17968.1875-.15625.20313-.1289.21875-.10157.23047-.07422.2461-.04297.26562-.01562.36328.03125.33203.09765.29688.15235.2539.19921.21485.23829.16406.27734.11719.30078.0625.32031"/><path fill="#ffffe0" fill-rule="evenodd" d="M217.46875 338.08984h22.17969v-10.1914h-22.17969v10.1914"/><path fill-rule="evenodd" d="M220.96875 329.73047h.50781v6.29687h-.78515v-4.49218h-1.38672v-.5547l.5586-.0664.25-.05078.23046-.08984.20313-.14453.17578-.20704.14062-.29687.10547-.39453m4.8125 0l.23047.01953.21875.05469.20703.08984.19922.1211.1836.14843.17187.17578.30078.42188.24219.49219.17968.54687.11328.57813.03907.59375-.03906.58984-.11329.58594-.17968.55469-.2422.5-.30077.42968-.17188.17969-.1836.15234-.19921.125-.20703.08985-.21875.0586-.23047.01952-.22656-.01953-.21875-.0586-.21094-.08984-.19531-.125-.1836-.15234-.17187-.17969-.30078-.42969-.24219-.5-.17969-.55468-.11328-.58594-.03906-.58984h.83594l.02734.5625.08203.5039.125.44531.16406.3711.19141.30078.20703.22266.22266.13671.22656.04688.22656-.04688.22266-.13671.21094-.22266.1914-.30078.16406-.3711.125-.4453.08204-.50391.02734-.5625-.02734-.5625-.08203-.5-.125-.4375-.16407-.36329-.1914-.29296-.21094-.21485-.22266-.13281-.22656-.04297-.22656.04297-.22266.13281-.20703.21485-.1914.29296-.16407.36329-.125.4375-.08203.5-.02734.5625h-.83594l.03906-.59375.11328-.57813.17969-.54687.24219-.4922.30078-.42187.17187-.17578.1836-.14844.19531-.12109.21094-.08984.21875-.05469.22656-.01953m5.09375 0h.50781v6.29687h-.78515v-4.49218h-1.39063v-.5547l.5625-.0664.25-.05078.23047-.08984.20313-.14453.17578-.20704.14062-.29687.10547-.39453m6.80469 1.6211h-.78906l-.05079-.21485-.08203-.1836-.10547-.16015-.1328-.1289-.14454-.10548-.16016-.07421-.16797-.04297-.17187-.01563-.32813.03906-.28906.1211-.2461.19531-.20312.26953-.16015.33594-.11719.40625-.07031.46484-.02344.52735.1914-.20313.1836-.16015.1875-.1211.1836-.08594.1875-.0625.1953-.03515.39844-.02735.3086.03125.32031.09375.3164.15625.29298.21875.2578.28516.19923.34766.0703.20312.0547.21485.02734.23437.0039.2539-.78515.04688-.02734-.26172-.07813-.25-.1211-.23437-.16015-.21094-.19531-.17578-.21875-.13672-.24219-.08984-.2539-.03125-.25391.03125-.24219.08984-.21875.13672-.19531.17578-.16016.21094-.1211.23437-.07812.25-.02734.26172.02734.25781.07813.25.1211.23438.16015.21094.19531.17578.21875.14062.24219.08594.2539.03125.25391-.03125.24219-.08594.21875-.14062.19531-.17578.16016-.21094.1211-.23438.07812-.25.02734-.2578.78516-.04688-.03125.37109-.08985.3711-.16015.35937-.22266.32812-.28906.28125-.17188.1211-.1875.10156-.20312.08203-.22656.0625-.23829.03516-.26172.01562-.28125-.01562-.26171-.04688-.23828-.07812-.21485-.10547-.19531-.1289-.17188-.15626-.15625-.17969-.13672-.20312-.11328-.22266-.10156-.24218-.14844-.53516-.08203-.59375-.02734-.64063.03906-.74218.11328-.66406.1875-.57813.11719-.2539.14063-.23048.15234-.20703.16797-.18359.1875-.15625.20312-.1289.21875-.10157.23047-.07422.25-.04297.26172-.01562.36328.03515.33203.09375.29688.15235.25781.19922.21094.24219.16406.27343.11719.30078.0625.32422"/><path fill="#ffffe0" fill-rule="evenodd" d="M319.55078 325.1875h22.13672v-10.1914h-22.13672v10.1914"/><path fill-rule="evenodd" d="M323.05078 316.82813h.51172v6.29687h-.78906v-4.49219h-1.38672v-.55469l.5586-.0625.25-.05468.23046-.08985.20313-.14062.17578-.21094.14062-.29297.10547-.39844m4.8125 0l.23047.01954.21875.05468.21094.08985.19531.1211.1836.15233.17187.17579.30078.41796.24219.4922.17969.54687.11328.57812.03906.59375-.03906.59375-.11329.58203-.17968.5547-.24219.5-.30078.42968-.17188.17969-.18359.15234-.19531.125-.21094.08984-.21875.0586-.23047.01953-.22656-.01953-.21875-.0586-.21094-.08984-.19531-.125-.1836-.15234-.17187-.1797-.30078-.42968-.24219-.5-.17969-.55469-.11328-.58203-.03906-.59375h.83594l.02734.5625.08203.5039.125.44532.16406.375.19141.30078.21094.21875.22265.13672.22266.04688.22656-.04688.22266-.13672.21094-.21875.1914-.30078.16407-.375.125-.44531.08203-.5039.02734-.5625-.02734-.5625-.08203-.5-.125-.4336-.16407-.36719-.1914-.29297-.21094-.21484-.22266-.1289-.22656-.04688-.22265.04687-.22266.1289-.21094.21485-.1914.29297-.16407.36719-.125.4336-.08203.5-.02734.5625h-.83594l.03906-.59376.11328-.57812.1797-.54688.24218-.49219.30078-.41796.17188-.17579.18359-.15234.19531-.1211.21094-.08984.21875-.05468.22656-.01954m2.96485 2.17579h.78515l.01953-.31641.0586-.28516.10156-.2539.14062-.21485.1797-.17187.22265-.1289.26562-.08204.3086-.02734.23828.02344.22265.0625.20313.10156.17969.13672.14843.17187.11329.20703.07421.23438.02344.26562-.01953.26953-.0664.22266-.10938.19531-.15625.16797-.20313.16406-.24609.16407-.63281.39062-.53906.3125-.4375.3164-.34375.32423-.26563.33593-.1914.35157-.125.37109-.06641.39063-.02344.42187h4.21484v-.74219h-3.33593l.08593-.28515.11329-.23438.14843-.20312.1875-.1797.23047-.17187.27735-.17578.71875-.41406.41406-.20703.34375-.23047.28125-.25.22265-.26953.16016-.27735.11328-.28515.0625-.28516.01953-.28125-.03906-.38281-.1211-.34766-.1914-.30859-.25-.26172-.30078-.21094-.34766-.16015-.3789-.09766-.40625-.03515-.4336.03515-.39844.09766-.35546.16797-.3047.23437-.25.30078-.18358.375-.1172.44531-.03906.51954m6.94141-2.17579l.23047.01954.21875.05468.20703.08985.19922.1211.1836.15233.17187.17579.30078.41796.24219.4922.17969.54687.11328.57812.03515.59375-.03515.59375-.11329.58203-.17968.5547-.24219.5-.30078.42968-.17188.17969-.18359.15234-.19922.125-.20703.08984-.21875.0586-.23047.01953-.22656-.01953-.22266-.0586-.20703-.08984-.19531-.125-.1836-.15234-.17187-.1797-.30078-.42968-.2461-.5-.17968-.55469-.10938-.58203-.03906-.59375h.83203l.03125.5625.08203.5039.125.44532.16406.375.1875.30078.21094.21875.22266.13672.22656.04688.22656-.04688.22266-.13672.21094-.21875.1914-.30078.16407-.375.125-.44531.08203-.5039.02734-.5625-.02734-.5625-.08203-.5-.125-.4336-.16407-.36719-.1914-.29297-.21094-.21484-.22266-.1289-.22656-.04688-.22656.04687-.22266.1289-.21094.21485-.1875.29297-.16406.36719-.125.4336-.08203.5-.03125.5625h-.83203l.03906-.59376.10938-.57812.17969-.54688.24609-.49219.30078-.41796.17188-.17579.18359-.15234.19531-.1211.20703-.08984.22266-.05468.22656-.01954"/></g></defs><use xlink:href="#au"/></svg>