<svg xmlns="http://www.w3.org/2000/svg" role="img" xmlns:xlink="http://www.w3.org/1999/xlink" viewBox="142.45 309.95 326.84 171.84"><defs><clipPath id="a"><path d="M144 311.67188h1v168.65625h-1zm0 0"/></clipPath><clipPath id="b"><path d="M144 311.67188h324v168.65625H144zm0 0"/></clipPath><clipPath id="c"><path d="M467 311.67188h1v168.65625h-1zm0 0"/></clipPath><clipPath id="d"><path d="M144 479h4v1.32813h-4zm0 0"/></clipPath><clipPath id="e"><path d="M147 479h3v1.32813h-3zm0 0"/></clipPath><clipPath id="f"><path d="M146 479h3v1.32813h-3zm0 0"/></clipPath><clipPath id="g"><path d="M153 479h8v1.32813h-8zm0 0"/></clipPath><clipPath id="h"><path d="M160 479h3v1.32813h-3zm0 0"/></clipPath><clipPath id="i"><path d="M159 479h3v1.32813h-3zm0 0"/></clipPath><clipPath id="j"><path d="M167 478h8v2.32813h-8zm0 0"/></clipPath><clipPath id="k"><path d="M173 478h4v2.32813h-4zm0 0"/></clipPath><clipPath id="l"><path d="M172 479h4v1.32813h-4zm0 0"/></clipPath><clipPath id="m"><path d="M180 478h8v2.32813h-8zm0 0"/></clipPath><clipPath id="n"><path d="M186 478h4v2.32813h-4zm0 0"/></clipPath><clipPath id="o"><path d="M185 479h3v1.32813h-3zm0 0"/></clipPath><clipPath id="p"><path d="M193 478h8v2.32813h-8zm0 0"/></clipPath><clipPath id="q"><path d="M200 478h3v2.32813h-3zm0 0"/></clipPath><clipPath id="r"><path d="M199 478h2v2.32813h-2zm0 0"/></clipPath><clipPath id="s"><path d="M207 478h8v2.32813h-8zm0 0"/></clipPath><clipPath id="t"><path d="M213 478h3v2.32813h-3zm0 0"/></clipPath><clipPath id="u"><path d="M212 479h3v1.32813h-3zm0 0"/></clipPath><clipPath id="v"><path d="M220 478h8v2.32813h-8zm0 0"/></clipPath><clipPath id="w"><path d="M226 478h4v2.32813h-4zm0 0"/></clipPath><clipPath id="x"><path d="M225 479h3v1.32813h-3zm0 0"/></clipPath><clipPath id="y"><path d="M233 478h8v2.32813h-8zm0 0"/></clipPath><clipPath id="z"><path d="M247 478h7v2.32813h-7zm0 0"/></clipPath><clipPath id="A"><path d="M260 478h8v2.32813h-8zm0 0"/></clipPath><clipPath id="B"><path d="M266 478h4v2.32813h-4zm0 0"/></clipPath><clipPath id="C"><path d="M274 477h6v3.32813h-6zm0 0"/></clipPath><clipPath id="D"><path d="M288 477h5v3.32813h-5zm0 0"/></clipPath><clipPath id="E"><path d="M301 477h6v3.32813h-6zm0 0"/></clipPath><clipPath id="F"><path d="M314 477h6v3.32813h-6zm0 0"/></clipPath><clipPath id="G"><path d="M327 477h7v3.32813h-7zm0 0"/></clipPath><clipPath id="H"><path d="M340 478h7v2.32813h-7zm0 0"/></clipPath><clipPath id="I"><path d="M353 478h8v2.32813h-8zm0 0"/></clipPath><clipPath id="J"><path d="M359 478h2v2.32813h-2zm0 0"/></clipPath><clipPath id="K"><path d="M366 478h8v2.32813h-8zm0 0"/></clipPath><clipPath id="L"><path d="M372 479h2v1.32813h-2zm0 0"/></clipPath><clipPath id="M"><path d="M380 479h8v1.32813h-8zm0 0"/></clipPath><clipPath id="N"><path d="M385 479h3v1.32813h-3zm0 0"/></clipPath><clipPath id="O"><path d="M394 477h6v3.32813h-6zm0 0"/></clipPath><clipPath id="P"><path d="M406 479h8v1.32813h-8zm0 0"/></clipPath><clipPath id="Q"><path d="M412 480h2v.32813h-2zm0 0"/></clipPath><clipPath id="R"><path d="M420 478h7v2.32813h-7zm0 0"/></clipPath><clipPath id="S"><path d="M425 478h3v2.32813h-3zm0 0"/></clipPath><clipPath id="T"><path d="M433 478h8v2.32813h-8zm0 0"/></clipPath><clipPath id="U"><path d="M439 478h4v2.32813h-4zm0 0"/></clipPath><clipPath id="V"><path d="M446 478h8v2.32813h-8zm0 0"/></clipPath><clipPath id="W"><path d="M453 478h3v2.32813h-3zm0 0"/></clipPath><clipPath id="X"><path d="M459 478h9v2.32813h-9zm0 0"/></clipPath><clipPath id="Y"><path d="M466 478h2v2.32813h-2zm0 0"/></clipPath><clipPath id="Z"><path d="M144 465h4v4h-4zm0 0"/></clipPath><clipPath id="aa"><path d="M466 466h2v3h-2zm0 0"/></clipPath><clipPath id="ab"><path d="M144 452h4v4h-4zm0 0"/></clipPath><clipPath id="ac"><path d="M466 451h2v3h-2zm0 0"/></clipPath><clipPath id="ad"><path d="M144 438h4v4h-4zm0 0"/></clipPath><clipPath id="ae"><path d="M144 426h4v2h-4zm0 0"/></clipPath><clipPath id="af"><path d="M144 413h4v2h-4zm0 0"/></clipPath><clipPath id="ag"><path d="M466 412h2v4h-2zm0 0"/></clipPath><clipPath id="ah"><path d="M144 399h4v3h-4zm0 0"/></clipPath><clipPath id="ai"><path d="M466 399h2v4h-2zm0 0"/></clipPath><clipPath id="aj"><path d="M144 385h4v4h-4zm0 0"/></clipPath><clipPath id="ak"><path d="M466 387h2v4h-2zm0 0"/></clipPath><clipPath id="al"><path d="M144 371h3v6h-3zm0 0"/></clipPath><clipPath id="am"><path d="M144 357h2v7h-2zm0 0"/></clipPath><clipPath id="an"><path d="M144 362h2v3h-2zm0 0"/></clipPath><clipPath id="ao"><path d="M144 343h1v8h-1zm0 0"/></clipPath><clipPath id="ap"><path d="M144 350h1v3h-1zm0 0"/></clipPath><clipPath id="aq"><path d="M144 349h1v3h-1zm0 0"/></clipPath><clipPath id="ar"><path d="M466 346h2v3h-2zm0 0"/></clipPath><clipPath id="as"><path d="M144 330h1v8h-1zm0 0"/></clipPath><clipPath id="at"><path d="M466 332h2v3h-2zm0 0"/></clipPath><clipPath id="au"><path d="M144 316h1v9h-1zm0 0"/></clipPath><clipPath id="av"><path d="M144 323h1v3h-1zm0 0"/></clipPath><clipPath id="aw"><path d="M144 322h1v3h-1zm0 0"/></clipPath><clipPath id="ax"><path d="M466 318h2v2h-2zm0 0"/></clipPath><clipPath id="ay"><path d="M465 318h3v3h-3zm0 0"/></clipPath><g id="az" clip-path="url(#clip1)"><path fill="#fff" fill-opacity="0" fill-rule="evenodd" d="M0 0h1000v1000H0zm0 0"/><path fill="#d3d3d3" fill-opacity="0" fill-rule="evenodd" d="M162.15234 355.86719l-.23437.29297.0586.23437.11718.17188.17578.23437.29297.34766.11328.0586.11719-.17188.0586-.23438.17577-.17578.46485-.17578h.69922l.23437.29297.28906.8164.0586.17579.17578.23046.35156.23438.69922.69922.17188.17578.23437.34765.23438.41016.28906.58203.41015.46485.23047.23437.23438.17578.11719.23047.17578.29297.17187 1.16406v.23438l.0586.28906.05859.11719.11719.11719.34765.41015.11719.17188.17578.17578.17578.23437.11719.17188.17188.35156.05859.23438.23437.40625.23438-.0586-.17578.17578-.0586.92969h-.58203l-.23437-.11328-.34766.11328-.11719.11719-.05859.29297-.0586.17578-.11718.17187-.46484.29297-.0586.23438-.0586.11328v.64453l.0586.17187v.41016l.0586.0586v.40624l.05859.40625.11719.17579.05859.05859.23047.64062-.0586.29297v.69922l-.05859.58203v.23438l-.0586.23047-.05468.35156v1.92187l.05469.1172h.42578l-.36719.11718-.02344.35156.89063 1.16797 1.74219.53906 1.33984.35938v.53906l.08984.8086.53516.71484 1.51953.26953.89063-.08594.08984 1.16406.53516.1797 1.16015-.1797 2.05469-.98437 1.16016-.36328 1.8789-.17578 1.69531-.1797-.17968.71876-1.51563.08594-1.25.08984-.80469.26953-1.07421.8086.26953.71875.53515.89843-.17968.625-.26563.8086.26563 1.07812.625.89844.80468.17969 1.25-.1797-.26562.72267.09766.5039.05468.29297v.17188l.0586.29296v.40625l.17578.1172.35156.11718h.40625l.29297-.17578.11328-.11719.0586-.11719.11718-.23047.0586-.17578.35156-.46484.23047-.17578.17578-.0586.17578.0586.0586.17578.11718.98828.05469.46875.0586.17188.11718.23437.17578.0586.8164.05859h.28907l.11719.23437.05859.40625.0586.35156v1.10547l.11718.29297.11719.34766.28906.69922.17578.35156.58203.7539.35157.17579.17187.0586.46875.23437.64063.46484.34765.23438.29297.17578.29297.05468.23047.0625.8164.34766.29297.17578.11328.17188.35157.35156.11719.17578.52343.64063v.28906l.0586.35156v.34766l.05859.35156.0586.28906.11718.0586.17188.05859h.17578l.58203.23437.17578.1172.17578.28905.17578.23438.11328.23437.29297.23047.11719.11719v.41016l.0586.05468.28906.23438.23437.11719.0586.11718.11718.17188.0586.11719.23047.23437.05859.17578.23437.0586.1172.05859-.1172.11328-.05859.11719v.11719l-.11719.29296-.11719.28907v.58203l.17579.11719.11718.05859.0586.11719.11719.11719.11328.05859.17578.34765.0586.35157.05858.40625v.17578l-.05859.17578-.11719.69922v.17187l.1172.17579.29296.29296h.40625l.17578.1172.11719.17187.11719.29296v.23438h-.52735l-.23047-.23438h-.23437l-.17578.0586-.0586.69922.0586.34765.11719.17579.17578.41015.11718.23047.28907.46875.17578.05469h.52344l.23437.0586.75781.64062.0586.29296v.23438l.05859.0586.23047.34765v.35156l-.11719.17188v.29297l.29297.28906.29297.17578.17187.0586.29297.17577.29297.1172.58203.40624.28906.23438.29297.17578.21875.16015.01563.01172.23047.17579.64062.52343.17578.23438.1172.17578.17577.17578.11328.17188v.64062l.1172.17578.46874.11719.58203.11719.23438.05859.23047.11328.29297.11719.11328.0586.58593.35156.28907.17187.17578.0625.17578.05469.17578.0586.69922.35155.28906.17579.23438.05468.28906.17578.23437.1172.64063.40624.29297.11719.17187.0586.23438.05859.41015.05859.23047.0586.23438.11718.0586.17188-.41017.17578.46875.0586.0586.29296.11328.23438.17578.05468.23438.0586.17578.05859.40625.11719.64062.23437.11719.17188.0586.23437v.17578l-.0586.1172-.0586.40624.23438.23438.11719.05859.34766.11719.64062.23047.17578.11718.28906.1172.17578.17577.23438.46485.58203 1.10546.17578.17579.34766.17578.17578.11719.35156.11718 1.04688.52344.23437.0586.46485.11327.29297.0586.46484.17578.75781.58203.23438.23438.34765.46484.17578.17578.28907.23438.8164.69921.29297.17579.28906.28906.29297.17578.29297.28906.69531.64063.17578.17578.29297.23437.28907.23438.46875.28906.64062.58203.34766.23438.23437.29297.34766.34765.35156.46485.9336.99218.34765.40625.11719.17579.23437.05859.11328.11719.64454.17578.23047.11328.23437.0586.29297.17577.23047.1172.9336.69921.40624.40625.23438.17578.40625.17578.23437.11719.8164.34766.34766.23437.23438.11719.29297.28906.23047.11719.7578.35156.35157.17188.23047.05859.29297.11719.23437.0586.8711.17577h.8164l.46875.23047.17188.0586.875.69921.46484.1172.29297.05858.17578.0586.23047.0586.46875.05859.34766.05859.35156.0586.40625.05859h.29297l.17187.0586v.23046l.17578.17578h.29297l.34766.0586.35156.05859.69922.11719h.64063l.46484-.23438.29297-.17578.17187-.11719.41016-.17187.28906-.17578.9336-.46485.46875-.29297.52343-.29296.46485-.17188.46484-.17578 1.05078-.46485.28906-.11718.41016-.11719.28906-.11719.52735-.17578 1.51562-.69922.58203-.34765.28907-.0586.29297-.0586.34765-.11718.875-.23047.35156-.11719h.11329l.23437-.05859.875-.23437.23438-.0586h.8125l.35156-.0586.8164-.11718.17188-.0586.35156-.05468.29297-.0586.23047-.05859.8164-.17578.17579-.0586h.34765l.23438-.05859.46484-.11718.75781-.17188.23438-.0586h.34765l.41016-.11718.28906-.0586 1.28516-.05859h.28906l.41016-.0586.23047-.05858h.17578l.875-.1172h.40625l.41015-.11718h.34766l.35156-.11328.8711-.0586h1.75l1.04687.28907.41016.11719.28906.11718.35156.11719.28907.11719 1.05078.17187.28906.0586h.29297l.29297.05859.17187.0586.41016.05859.17187.0586.1172.05858h.11718l.11719.0586.35156.0586h.11328l.41016.0664 1.92187.39453 1.92578.39453 1.51953.44922 1.69532.71875 2.14453.80469 1.60547-.71875 1.42968-.80469 1.16016-1.07813 1.25-.44921 3.03516-.71875 1.875-.35938 2.14453-1.34765 2.23437-1.25391 2.5-1.25781 1.69531-.44922 1.78516-.17969 1.16016-.26953.625.53906 1.33984-.26953.71485-.98828.98437-1.34375.44531-.17969.80469-.35937 1.875-.53907 1.78516-.44921 1.25-.26954 1.16015-.08984 1.69922-.08984 1.96094-.26954 1.25-.08984h.53906l.625-.08984h.89063l2.14453-.17969 2.41015-.17969 2.58985-.08984 1.69531.17969 1.60938.08984 1.42968.35938 1.16016.71875 1.875.98828 1.16015 1.52734.26563.71484.6289.08985.35548.89844.53515.53906.53516 1.52734 1.07422.35938h.53515l-.80469.53515.08985 1.70703.71484 2.69532.89063.80468.89453.98829.71484 1.2578 1.78516.53907 1.51953-.17969.35547 1.34375 1.60937-.80469.98047-.53906.26953.26953.31641-.21484.21875-.14453.80078.44922.44922-.35938h.35547l.53515-.26953.53907-.71875.53515-.26953.625-.98828 1.16016.44922.83984.3711 1.39454.61718 1.6953-.17969h1.60548l1.78515.08985.17969-1.70704.53516-1.34375.80468.26954.4922.84765.40233.40625-.08984.53906v.35938l.71485.44922.71093-.26953h1.42969l.35938.98828.4453 1.25781.71485 1.34375 1.25.6289 1.69531.62891.71485-.17969.17969-.53906.98046-.08984.44922.35937.08594 1.25782-.26563.6289-.53515.17969v.53906l.71484.98438.26563.53906.98437.98828.80078 1.07813-.26562.35937-.08985.89844-.625 2.33203-.35546 2.0664-.08985 1.79298-.17969.71875-.08984.53906v1.4375l-.98047 1.88281-.35937 1.70703-.53516.89844-.80469 1.16797-.26562.53906 2.05469 1.2539.08593.35938-.35546.53906-.08985-.17968v.80859l.08985 1.4375-.44532.71484-1.07422.09375-.26562.71485.53515.89844.8047.71875 1.16015.80859 1.33984.26953.44531.35938-.35546.44921-1.78907-.08984-1.25-.44922-.71484-.71875-.625-.08984-.17578 3.58984-.1875 1.3086h89.35937V311.70313h-55.26953v49.08203l.76172.125 3.28906.54296 2.02344 2.83594v2.7539l2.35156.33204 2.34766.33203h4.05078l-1.3789 4.16016-2.02344.70703-2.02344.70312-.54297.34375-2.59375 1.6172-.1875.11718-2.02344-2.07813-.73046-2.74218-2.67188-2.07813-1.375-3.5-.0664-.08203-1.95704-2.67188 2.75-1.41796v-49.08204H294.42187v91.41407l.1172.03125.1328.01172.07422.07421.10547.04688.08985.0586.08593.05859.08985.0586.29687.29687.0586.08984.03125.11719.02734.11719.01563.13671-.03125.1172-.0586.08983-.0586.08594-.04296.10547-.04688.10156-.02734.1211v.14453l.17578.26953.14844.14844.07422.08594.07422.07421.04296.10547.0625.08985.0586.08593.04297.10547.0586.08985.04687.10156.04296.10547.0586.08594.11719.17968.07421.07422.0625.08594.0586.08984.04297.10547.0586.08985.05858.08593.0625.08985.0586.08984.04297.10156.11719.17969.07421.07422.0586.08594.07422.07421.08984.0586.10547.04687h.14844l.1328-.01562.13282.01562.10156-.04687.07422-.07422.04688-.10156-.01563-.13281v-.14844l-.04687-.10547-.02735-.11719-.04687-.10156-.02735-.1211-.04296-.10156-.0625-.08984-.04297-.10156-.04297-.10547-.03125-.11719-.01563-.13281-.01171-.13672.08593-.0586.0586-.08593.12109-.03125.04297.10547.01562.1328v.1172l.0586.10156.0586.08984.08983.0586.14844.14843.0586.08985.04296.10547-.01171.10156.08593.0586.10547.04687.08594.0586.08984.05858.07422.07422-.11719.02735-.10546.04687-.08594.0586-.07422.07421-.0586.08985-.0625.08594-.02734.12109-.04687.10156-.04297.10547-.03125.11719-.01172.13281-.01563.13281v.14844l.02735.11719.04687.10547.04297.10156.0586.08984.07421.07422.08985.0586.07422.07421.08984.0586.0586.08984.04296.10547.04688.10156.11719.03125.1328.01563h.14845l.11718-.03125.10547.04297.04297.10547.04688.10156.02734.1211L299.5 410l.02734.11719.03125.1211.02735.11718.10547.04297.10156.04687.13281-.01562.14844.14844.0625.08593.07422.07422.07031.07422.08984.0625.10547.04297.10156.04297.1172.03125.13671.01562.11719-.03125.07422-.07422.02734-.11718-.01172-.13282-.03125-.12109-.02734-.11719.04297-.10547h.11719l.08984.0625.11719.02735h.14843l.13282.01562h.14843l.13282.01563.1328-.01563h.14845l.1328-.01562.13282-.01172.13672.01172.11719-.02735.13281-.01562.1914-.0586-.05859.17579-.01562.1328-.02735.1211-.01562.13281-.0586.08594-.1328.01563-.10548.04687-.10546.04297-.1172.03125-.11718.02735-.26563.03125h-.14843l-.13281.01562-.07422.07422.05859.08594.14844.14843.11719.1797.07421.0703.08985.0625.08984.0586.08594.0586.08984.05858.10156.04297.10547.0625.10547.04297.08594.0586.10547.04687.10156.04297.17969.11719.0586.08984-.04298.10156-.04687.10547.01562.13281.22266.22266.0586.08985.04296.10156.03125.1211.04297.10155.01563.13282.03125.11718.01171.13672.03125.11719.14844.14844.10156.04297.10547.04296.1172.03125.1328.01563.13672.01563h.11719l.11719-.03125.08984-.0586.04297-.10547.04688-.10156.04296-.10547.03125-.11719.01172-.1328v-.14845l-.01172-.1328-.01562-.13282-.03125-.11719-.04297-.10547-.04688-.10547-.04296-.10156-.04297-.10547-.01563-.13281.01563-.13281.02734-.11719.03125-.11719.02735-.1211.04687-.10155.08984-.0586.08594-.0625.07422-.07422.08984-.05859.22266-.22266.0586-.08593.07421-.07422.11719-.17969.0586-.08594v-.14844l-.07423-.07421-.10156-.04688-.10547-.04297-.10156-.04297-.0586-.08984-.04687-.10547-.02734-.11719.08984-.05859.11719-.03125.10156-.04297.17969-.11719.14844-.14843.01172-.13282-.01172-.10546-.08985-.0586-.1328.01563h-.14845l-.1328.01562-.13282-.01562-.1211-.03125-.08593-.0586-.07422-.07422-.0586-.08984-.0625-.08594-.11718-.17969-.0586-.08593.03125-.1211.08594-.05859.1211-.03125.05859-.08594v-.1211l-.03125-.11718-.0586-.08984-.05859-.08594-.04687-.10547-.02735-.11719-.01562-.1328.0586-.08985.07421-.07422.08984-.0586.1172-.17968.07421-.07422.0586-.08594.14843-.14844.1211-.03125.1328-.01562.13282.01562.07422.07422.04297.10547.01562.13281-.03125.1172-.11719.03124-.1328.01172-.14844.14844-.04297.10547-.04688.10156-.02734.1211-.03125.11718v.14844l.03125.11719.04297.10546.05859.08985.07422.07031.07422.07422.11719.03125.12109.02734.11719-.02734.1328-.01563h.1172l.08984.0586.07422.07422.04687.10546.0586.08594.10156.04688.13281.01562.10547.04297.08594.0586-.01172.10546-.07422.07422-.17969.11719-.05859.08984-.08984.0586-.07032.07422-.07421.07421-.0625.08985-.02735.11719-.01562.1328.01562.13282-.01562.13281v.14844l.01562.13281.02735.1172.03125.12108.07421.07422.08985.0586.08594.0586.08984.05858.11719.03125v.08594l-.10157.04688-.08984.0586-.26563.03124-.11718.02735h-.14844l-.10547.04296-.10156.04688-.0586.08984-.0625.23438-.01171.13281-.03125.1211-.01563.1328v.29298l-.01172.1328.01172.13673.01563.1328.1328.01563.13282.01172.1211.03125.08593.0586.07422.07421.04688.10547.04296.10157.01563.1328v.44532l-.01563.13281v.44532l.03125.26562.02735.11719.01562.13281.03125.11719.08594.21094.03125.26562v.14844l-.03125.11719-.02734.11718-.03125.1211-.02735.11719-.03125.11718-.03125.1211-.01171.1328-.01563.13282.08984.0586.1172-.03125.10155.01562.04688.10547-.03125.26562v.44141l-.04297.10547-.04688.10547-.04296.10156-.04297.10547-.0586.08594-.03125.12109-.04296.11719-.03125.11719-.01563.1328.01563.13282.05859.08984.10547.04688.08594.0586.05859.08593-.01172.13672-.03125.11719-.04297.10156v.44531l-.01562.13281v.14844l-.03125.11719-.04297.10547-.02735.11719-.04687.10546-.04297.10157-.03125.12109-.02734.11719-.03125.13281-.03125.11719-.02735.11719-.04297.10546-.03125.1172-.03125.12108-.01171.13282-.01563.13281v.29688l.02734.11718v.14844l.04688.39844.02734.11719.0586.08984.12109.03125h.14844l.13281-.01563.0586.08985v.11719l-.0586.08984-.08984.0586-.10157.04296-.10546.04688-.08985.05859-.08594.0586-.13671.01562-.1172-.03125-.1328-.01563-.10157.04688-.0625.08594-.01172.13671-.01562.13282-.03125.11719-.02735.11718-.01562.13281-.03125.1211v.29687l.01563.13282.03125.11718v.14844l.01171.13281v.14844l-.02734.11719-.04688.10156-.02734.1211-.03125.11718-.0586.08985-.07421.07421-.10156.04297-.10547.04688-.11719.02734-.1211.03125-.10156-.04687.0586-.08594.10547-.04688.02734-.11718.03125-.11719.02734-.1211.03125-.11718v-.14844l.01563-.13281-.03125-.11719-.04297-.10547-.10547.01563-.07422.07422-.10156.04296-.08984.0625-.07422.07422-.04297.10157-.01563.1328-.03125.1172L304.25 426l-.03125.11719-.02734.11719-.03125.12109-.02735.11719-.03125.11718-.04297.10547-.08984.0586h-.08984l-.1172-.03125-.03124-.08594.01562-.13672-.03125-.11719v-.14844l-.01171-.1328v-.14844l-.0625-.23438-.02735-.1211-.04297-.10156-.04687-.10546-.0586-.08594-.05859-.08985-.04297-.10546-.0625-.08594-.14844-.14844-.0703-.07422-.10548-.04687-.10547-.04297-.10156-.04297-.29687-.29688-.08985-.07421-.08594-.0586-.10546-.04297-.08985-.0625-.08594-.0586-.10546-.04296-.08985-.0586-.08594-.0625-.07421-.0703-.10547-.04688-.08594-.0586-.10547-.04296-.08984-.0625-.10156-.04297-.10547-.04297-.08594-.0586-.10547-.04687-.10547-.04297-.10156-.04687-.08985-.0586-.10156-.04297-.10547-.04296-.08984-.0625-.11719-.02735-.13281-.01562-.13281.01562H299.75l-.13281.01563-.11719-.03125-.08984-.0586-.07422-.07422-.08985-.05859-.10156-.04688h-.14844l-.12109-.02734-.10156-.04297-.07422-.07422-.11719-.17968-.08984-.0586-.10156-.04297-.08985-.0625-.10547-.04296-.08984-.0586-.08594-.0586-.10547-.04687-.0586-.08594-.05858-.08984-.04297-.10547-.04688-.10156-.07422-.07422-.08594-.0586-.07421-.07421-.08985-.0586-.22265-.22265-.04297-.10547-.03125-.26563.10547-.04296h.14453l.10547.04296.07421.07422.08985.0586.08594.0586.10546.04687.08985.05859.14844.14844.0703.07422.14845.14843.0625.08594.07421.07422.08594.0586.07422.07421.08985.0625.08984.0586.08594.05859.26953.17578.10156.04688.10547.04296.10156.04297.04688-.07421.05859-.08594.07422-.07422.07031-.07422.10547.04297.07422.07422.0586.08984.04296.10156.04688.10547.04296.10547.1211.02735.11719-.02735.07421-.08984.04297-.10547.0586-.08985.07422-.07421.10546-.04297.1172-.02735.1328.01172.08985.0586.14844.14843.05859.08985.04297.10547.04687.10156.04297.10547.04297.10156.10547.04688.10547.04296.13281.01563.08594-.0586.0586-.08984.07421-.07422.10547-.04297.11719.02735.10547.04687.10156.04297.10547.04297.10156.04688.17969.11718v.11719l-.01563.13281.01563.13281.01562.13672.0586.08594.10156.04688.1211.02734.11718.03125h.14844l.11719-.03125.05859-.08984.17969-.1172.05859-.08983.07422-.07422.0586-.08594.11718-.17969.17969-.11719.11719.03125.08984.0586.04297.07422-.01563.1328v.1172l.08985.05859h.14843l.13282-.01563.1328-.01171.26563-.03125.10547-.04297.11719-.03125.1211-.02735.07421-.07421.07031-.07422.0625-.08985-.01562-.10547-.04688-.10156-.10156-.04297-.10547-.01562-.11718.02734-.26563.03125h-.14844l-.07421-.07422-.08985-.0586-.11719-.03124-.11718-.02735-.13282-.01562h-.14843l-.13282.01563h-.29687l-.10547-.04688-.14844-.14844-.04297-.10156-.05859-.08984.22266-.22266.08593-.0586.10547-.04296.11719-.03125.13281-.01563.13281.01563.13672.01562.10157.04297.1328-.01172.08985-.0625.10156-.04297.0625-.08984-.04687-.10156-.08984-.0586-.1172-.03125-.10155-.04296-.0586-.08985-.0625-.08984v-.11719l.01563-.13281.10547-.04688.07421-.07031v-.1211l-.08984-.05859-.03125-.11719.08985-.05859.07421-.07422.04297-.10547.0586-.08984.04687-.10156.01563-.13281v-.14844l-.04688-.10547-.04297-.10156-.08984-.0586-.13281-.01562-.10157-.04297-.13671-.01563-.1172-.03125h-.4453l-.13282-.01562-.13281-.01172-.13281-.01563-.11719-.03125h-.14844l-.13281-.01562-.13281-.01172-.26563-.03125-.1211-.04297-.08593-.0586-.07422-.07421v-.14844l.01172-.13281.10547-.04688.10156-.04296.13281-.01563h.15235l.13281-.01562h.29297l.1211.03125.10156.04296.08984.0586.23438.0625.12109-.04688.08984-.05859.10156-.04297.13282-.01562.10547.04296.10156.04688.13281.01172.1211-.02735h.14453l.12109-.03125.11719-.02734.10547-.04687.07421-.07422.08594-.0586.14844-.14843.0586-.08594.04687-.10547.02734-.11719.01563-.10547-.10156-.04296-.08985-.0586-.11719-.03125-.10546-.04297-.08985-.0625-.07422-.08594-.07422-.07421-.10156-.04297-.10547-.04688-.10156-.04297-.0586-.08984-.04687-.10156-.08594-.21094-.0625-.08594-.05859-.08984-.07422-.07422-.08594-.0586h-.26953l-.11719.03126-.08984.05859-.10156.04297-.13281.01562-.10547-.01562-.02735-.11719-.0625-.08984-.11718-.03125-.10157-.04297-.14843-.14844-.03125-.11719-.01563-.10546.07422-.07422.17969-.1172.11719-.02733.11718-.03125.13672.01562.10156.04297.10547.04297.10156.04687.10547.04297.1172.03125.1328.01563.1172.02734.1328.01563.10547-.01563.08985-.0586-.07422-.07421-.10547-.04297-.07422-.07422-.07422-.08984-.14844-.14844-.08593-.0586-.08985-.05859-.07422-.07422-.08984-.0586-.10156-.04687-.1211-.02734-.10156-.04688-.10547-.04296-.11719-.03125-.10156-.04297-.1211-.03125h-.14843l-.11719.03125-.10546.04297-.08594.0625-.17969.11718-.08594.0586-.08984.0586-.10547.04687-.08594.05859-.10547.04297-.10156.04297-.10547.04687-.07422.07422-.05859.08985-.0586.08593-.04687.10547-.0586.08594-.07421.07422-.13281-.01172-.1172-.03125h-.11718l-.07422.07422-.08984.0586-.07422.07421-.08984.0586-.08594.05859-.10547.04687-.10156.04297-.13672.01563-.10156-.04297-.14844-.14844-.10547-.04688h-.08594l-.10547.04688-.10156.04297-.1211.03125-.11718-.03125-.07422-.07422v-.11719l.03125-.1211.07422-.0703.0586-.08985.07421-.07422.11719-.03125.10547-.04296h.29297l.13281-.01563.13672-.01563.10156-.04296.08985-.0586.10156-.04687.08984-.0586.13281-.01171.08985.05859.13281.01172.08984-.0586.08594-.05859.10547-.04297.08984-.0586.08594-.0625.08985-.05859.14843-.14843.0586-.08594.05859-.08985.10547-.04296.13281-.01563.11719.02735.1211.03125.05859-.0586.05859-.08984.03125-.26563.02734-.11719.10547.01172.13281.01563.10157-.04297.08984-.0586.0586-.08984.07421-.07422.0586-.08984.04687-.10156.01172-.13281-.01172-.13282-.04687-.10547-.14844-.14843-.0586-.08985-.05859-.08594-.04297-.10546v-.44532l.01563-.1328v-.14845l.01172-.1328-.0586-.0586-.08984.0586-.10156-.04298-.17969-.11719-.08594-.05859-.0625-.08984-.0586-.08985-.07421-.07421-.08594-.0586-.1211.03125-.10155.01172-.10547.04688-.08594.05859-.10547.04297-.14844.14844-.08984.05859-.08594.0586-.08984.0625-.10547.04296-.13281.01563v-.1211l.10547-.04297.11718-.03125.07422-.0703.04297-.10548v-.14844l-.02734-.11718-.14844-.14844-.13281-.01563h-.14844l-.11719.03125-.10547.04297-.10156.04297-.08984.0625-.11719.02735-.07422-.07422.01172-.13281-.04297-.10157-.04297-.10547-.08984-.05859-.11719.02734-.1211.03125-.11718.03125-.10156.04297-.1211.03125-.10156.04297-.10547.04297-.08984.0586-.10156.01562v-.11719l.01562-.13281-.0586-.08985-.07421.04297-.14844.14844-.0586.08985-.07421.07421-.04688.10547-.04296.10156-.07422.07422-.0586.08985-.07422.07422-.05859.08593-.07422.07422-.08984.0625-.07422.07031-.07422.07422-.10156.01563-.13281.01562-.10547-.04296v-.1211l.14843-.14844.04297-.10156.0586-.08984.04687-.10156.04297-.10547.0586-.08985.03124-.11719.04297-.10156.03125-.1211.02735-.11718.04687-.10547.04297-.10156.04297-.10547.07422-.07031.08984-.0625.08985-.0586.10156-.04296h.29687l.26563-.03125.10547-.04297-.07422-.07422-.11719-.03125-.10547-.04297-.08984-.0586-.10156-.04687-.08985-.0586-.10156-.04296-.10547-.04297-.08984-.0625-.08594-.0586-.10547-.04296-.10156-.04297-.1211-.03125-.11718-.03125-.10157-.04297L297.5 410.25l-.10156-.04297-.08985-.0586-.04296-.10546-.01563-.13281.10156-.04297.13281-.01563.13672.01563.13282-.01563.10156-.04297.0586-.08984.01562-.10547-.08985-.0586-.07421-.07421-.10157-.04297-.08984-.0586-.14844-.14843-.04297-.10547-.01562-.13281v-.29297l-.0586-.08985-.08984-.05859-.07422-.07422-.04297-.10547-.03125-.11718-.0586-.08985-.07421-.07422-.11719-.02734-.07422-.07422-.08984-.0586-.08984-.0625-.08594-.05859-.07422-.07421-.0586-.08594-.04687-.10547-.08594-.0586-.14843-.14843-.19532-.0586-.1328.01563-.10157.04297-.07422.07422-.04688.10156-.04296.10547-.0586.08984-.0586.08594-.29687.29687-.08984.0586h-.08594l-.0625-.08594-.04297-.10547.03125-.11719.0586-.08984.02734-.11719-.01172-.13281-.08984-.0625-.10547.04688-.11719.02734-.11719.03125-.26953.17578-.10156.04688-.11719.02734-.10546.04687-.08985.0586-.10156.04297-.0586-.08594-.04687-.10547.01563-.13281.04687-.10547.07031-.07422.07422-.07031.0586-.08985v-.14843l-.04297-.10547h-.23829l-.10156.04687-.03125.11719-.02734.11719-.03125.1211-.07422.04296-.13281.01563-.07422-.04688-.04297-.10156-.04297-.10547-.04687-.10156-.04297-.10547-.1211.03125-.10156.04297-.13281.01562-.11719.03125-.10547.04297-.08984.0586-.10156.04687-.1211.02734-.13281.01563-.10156-.04297-.0586-.08985-.04687-.10546-.04297-.10157-.04297-.10546v-.1172l.0586-.08984.08593-.05859.17969-.11719.10156-.04687.10547-.04297.10547-.0586.10156-.04296.08985-.0625.10156-.04297.10547-.0586.10156-.04687.08984-.0586.10547-.04296.10156-.04297.08985-.0625.10156-.04297.13672-.01563.11719.03125.10156.04297.1211.03125.10156.04297.10546.04688.10157.04296.10547.04297.10156.04688.10547.04297.10156.04297.10547.04687.08594.0586.10546.04296.1172.03125.10546.04297.10156.04688.08985.0586.10547.04296.10156.04297.10547.04687.11719.02735.10156.04687.1211.02735h.14843l.08594-.0586.01562-.10156.0586-.08984-.02735-.1172-.07422-.07421-.11719-.17969-.07421-.07422-.08985-.07421-.17969-.1172-.08593-.05859-.10547-.04296-.10156-.04688-.26954-.17578-.05859-.08985-.07422-.07421-.0586-.08985-.04296-.10156-.03125-.11719-.01563-.13672v-.5625l-.01171-.1328-.01563-.13282-.03125-.11719-.01562-.13281-.01172-.13281-.03125-.1211-.22266-.22265-.0586-.08594-.01562-.10547.03125-.11719.13281-.01562v-91.41406H172.9922v1.45312l-.0586.23438-.35156 1.05078-.17187.52343-.1172.34766-.17577.41016-.11719.17187-.23438.29297-.23046.0586h-.35157l-.11718.05859-.23047.40625v.29297l.11719.17578.23046.23047.1172.23437.64062.75781.29297.46485.17578.23437.23047.35156.23437.34766.64063.8164.17578.46485.17187.41016.11719.69531.17578.46875.11719 1.39844.0586.46484v.875l.11718 1.04688v4.78125l-.0586.46484-.35156 1.28125-.17578.52344-.11328.41015-.35156.9297L172.93359 336l-.23437.58203-.11719.17578-.17187.34766-.17578.40625-.35157.8164-.0586.29297-.11327.29297-.11719.28906-.0586.17579-.11718.875-.0586.40625-.05859.11718-.0586.17579-.05859.17187-.23047.52734-.11718.17188v.23437l-.11719.23438-.0586.17187-.17577.58594v.28906l-.0586.17579v.29296l-.0586.11329-.05859.52734v.17187l-.05468.23438v2.6211l-.17578.8164-.1172.17578-.17577.23438-.1172.17187-.11327.23438-.58594.93359-.23047.28906-.29297.46485-.17578.23437-.28906.35156-.35156.69922-.11328.23047-.17579.41016-.17578.23046-.40625.52735-.8164.69922-.29297.17187-.28906.23438-.17579.11719-.17578.17578-.52344.40625-.52734.17578-.17187.17578-.23438.05469-.64062.17578h-.75782m12.21094 31.02344l-1.07422.44921.35938.89454 1.25-.71485.44531-.53906-.98047-.08985"/><path fill="#d3d3d3" fill-opacity="0" fill-rule="evenodd" d="M201.50781 416.59766h-.89453l.44922.6289.98047.35938.80469-.08985.4453-.98828-.17577.08985-.71485-.35547-.89453.35547m154.6211 59.0703l-.0586-.52343v-.29297l.11328-.29297.0586-.23046.46875-.46875h.11328l.11719-.11329.11718-.05859h.17579l.23437-.0586h.34766l.23437.0586.11719.0586.23047.17187.0586.17578.11718.58203v.29297l-.11719.17578-.17187.28906-.17579.17579-.52734.52343-.23047.23438-.11719.0586h-.17578l-.11718-.0586-.40625-.29297-.17579-.11719-.11718-.0586-.0586-.11327-.05468-.1172m6.64062-10.95702l-.0586-.17188v-1.10937l.0586-.17188.17578-.0586.17188-.05858h.17578l.23437-.0586.1172.0586.05858.69921-.05859.17188-.11719.17578-.11718.0586-.23438.52343-.11328.0586h-.23438l-.05859-.1172m9.61328-14.39062l-.11719-.17578v-.69922l.29297-.875.1172-.17187.17577-.35156.11328-.23047.1172-.29297.35155-.75781.1172-.23047.17187-.23438h.17578l.11719-.0586h.64062l.11719.0586.23437.23438.17188.11328.35156.29297.11719.11718.11328.17579v.11328l.11719.05859.11718.11719v.69922l-.05859.17578v.23047l-.0586.17578-.34765 1.05078-.11719.23047-.11719.23437-.11718.0586-.23047.23437-.64063.28906h-.875l-.41015-.11718-.64063-.46485"/><path fill="none" stroke="#bebebe" stroke-linecap="round" stroke-linejoin="round" stroke-miterlimit="10" stroke-width=".5" d="M467.95703 311.69531H144.02734v168.625h323.9297v-168.625"/><g clip-path="url(#a)"><path fill="#fff" fill-opacity="0" fill-rule="evenodd" d="M144 475.89063v4.4375h.0039H144V311.67188h.0039H144v164.21875"/></g><g clip-path="url(#b)"><path fill="#fff" fill-opacity="0" fill-rule="evenodd" d="M144.0039 480.32813V311.67188h17.75V432.8125l-2.625 3.13281-.91796 4.4375.13281 4.4375-.35547 4.4414.1289 4.4375-.33984 4.4375-.03515 4.4375 4.01172 3.59767 3.95312.84375.48438.2578.33984-.2578 4.09766-1.51954 4.4375-.98437 4.4414-1.89453.07813-.04297.20312-4.4375-.28125-.25-1.2461-4.1875-3.1953-3.48828-.3711-.94922-2.98828-4.4414-1.07812-1.3711-4.03125-3.0664-.40625-.21485-2.19532-4.22266-2.24218-3.13281V311.67187h306.24218v168.65625H144.00391"/></g><path fill="#50fcfc" fill-rule="evenodd" d="M161.7539 466.17188l-4.01171-3.59766.03515-4.4375.33985-4.4375-.1289-4.4375.35546-4.4414-.13281-4.4375.91797-4.4375 2.625-3.13282v4.59375l-1.45703 2.97656-.30079 4.4375-.73047 4.4414.69922 4.4375.21485 4.4375 1.57422 3.45704 2.71484.98047 1.72266.48047.91797-.48047 3.51953-1.3164 4.4375-1.48438 1.23437-1.63672-1.23437-3.8164-.16016-.6211-1.66016-4.4375-2.61718-3.01563-1.82032-1.42578-2.61718-2.48047-2.57813-1.95703-1.85937-2.97656v-4.59375l2.24218 3.13281 2.19532 4.22266.40625.21484 4.03125 3.0664 1.07812 1.3711 2.98828 4.4414.3711.94923 3.1953 3.48828 1.2461 4.1875.28125.25-.20312 4.4375-.07813.04297-4.4414 1.89453-4.4375.98437-4.09766 1.51954-.33984.2578-.48438-.2578-3.95312-.84375"/><path fill="#00e8fc" fill-rule="evenodd" d="M159.96484 453.69922l-.69922-4.4375.73047-4.4414.30078-4.4375 1.45704-2.97657 1.85937 2.97656 2.57813 1.95703v3.72266l-4.4375 1.78516-.35938 1.41406.35938 1.27344 2.01172 3.16406 2.42578 2.07422 4.14062-2.07422.29688-1.35156.20312-3.08594-.20312-.23438-4.4375-2.96484v-3.72266l2.61718 2.48047 1.82032 1.42578 2.61718 3.01563 1.66016 4.4375.16016.6211 1.23437 3.8164-1.23437 1.63672-4.4375 1.48437-3.51953 1.3164-.91797.48048-1.72266-.48047-2.71484-.98047-1.57422-3.45703-.21485-4.4375"/><path fill="#00d4fc" fill-rule="evenodd" d="M161.7539 450.53516l-.35937-1.27344.35938-1.41406 4.4375-1.78516 4.4375 2.96484.20312.23438-.20312 3.08594-.29688 1.35156-4.14062 2.07422-2.42578-2.07422-2.01172-3.16406"/><g clip-path="url(#c)"><path fill="#fff" fill-opacity="0" fill-rule="evenodd" d="M467.9961 480.32813H468V311.67188h-.0039H468v168.65625h-.0039"/></g><g clip-path="url(#d)"><path fill="none" stroke="#000" stroke-linecap="round" stroke-linejoin="round" stroke-miterlimit="10" stroke-width=".5" d="M147.38672 479.39063l-6.77344 1.875"/></g><g clip-path="url(#e)"><path fill="none" stroke="#000" stroke-linecap="round" stroke-linejoin="round" stroke-miterlimit="10" stroke-width=".5" d="M147.38672 479.39063l1.6875 1.78125"/></g><g clip-path="url(#f)"><path fill="none" stroke="#000" stroke-linecap="round" stroke-linejoin="round" stroke-miterlimit="10" stroke-width=".5" d="M146.40234 479.66406l1.6875 1.78125"/></g><g clip-path="url(#g)"><path fill="none" stroke="#000" stroke-linecap="round" stroke-linejoin="round" stroke-miterlimit="10" stroke-width=".5" d="M160.69922 479.38672l-6.76953 1.88281"/></g><g clip-path="url(#h)"><path fill="none" stroke="#000" stroke-linecap="round" stroke-linejoin="round" stroke-miterlimit="10" stroke-width=".5" d="M160.69922 479.38672l1.6914 1.78125"/></g><g clip-path="url(#i)"><path fill="none" stroke="#000" stroke-linecap="round" stroke-linejoin="round" stroke-miterlimit="10" stroke-width=".5" d="M159.71484 479.66016l1.69141 1.78125"/></g><g clip-path="url(#j)"><path fill="none" stroke="#000" stroke-linecap="round" stroke-linejoin="round" stroke-miterlimit="10" stroke-width=".5" d="M173.92969 479.1211l-6.59766 2.41796"/></g><g clip-path="url(#k)"><path fill="none" stroke="#000" stroke-linecap="round" stroke-linejoin="round" stroke-miterlimit="10" stroke-width=".5" d="M173.92969 479.1211l1.82812 1.63671"/></g><g clip-path="url(#l)"><path fill="none" stroke="#000" stroke-linecap="round" stroke-linejoin="round" stroke-miterlimit="10" stroke-width=".5" d="M172.96875 479.47266l1.82813 1.63672"/></g><g clip-path="url(#m)"><path fill="none" stroke="#000" stroke-linecap="round" stroke-linejoin="round" stroke-miterlimit="10" stroke-width=".5" d="M187.1289 478.84375l-6.36718 2.96875"/></g><g clip-path="url(#n)"><path fill="none" stroke="#000" stroke-linecap="round" stroke-linejoin="round" stroke-miterlimit="10" stroke-width=".5" d="M187.1289 478.84375l1.96094 1.48047"/></g><g clip-path="url(#o)"><path fill="none" stroke="#000" stroke-linecap="round" stroke-linejoin="round" stroke-miterlimit="10" stroke-width=".5" d="M186.20313 479.27734l.98046.73828"/></g><g clip-path="url(#p)"><path fill="none" stroke="#000" stroke-linecap="round" stroke-linejoin="round" stroke-miterlimit="10" stroke-width=".5" d="M200.38672 478.72656l-6.2539 3.20703"/></g><g clip-path="url(#q)"><path fill="none" stroke="#000" stroke-linecap="round" stroke-linejoin="round" stroke-miterlimit="10" stroke-width=".5" d="M200.38672 478.72656l2.01172 1.39844"/></g><g clip-path="url(#r)"><path fill="none" stroke="#000" stroke-linecap="round" stroke-linejoin="round" stroke-miterlimit="10" stroke-width=".5" d="M199.47656 479.1914l1.00781.69923"/></g><g clip-path="url(#s)"><path fill="none" stroke="#000" stroke-linecap="round" stroke-linejoin="round" stroke-miterlimit="10" stroke-width=".5" d="M213.80469 478.94922l-6.46094 2.76172"/></g><g clip-path="url(#t)"><path fill="none" stroke="#000" stroke-linecap="round" stroke-linejoin="round" stroke-miterlimit="10" stroke-width=".5" d="M213.80469 478.94922l1.91406 1.53906"/></g><g clip-path="url(#u)"><path fill="none" stroke="#000" stroke-linecap="round" stroke-linejoin="round" stroke-miterlimit="10" stroke-width=".5" d="M212.86719 479.35156l.95312.76953"/></g><g clip-path="url(#v)"><path fill="none" stroke="#000" stroke-linecap="round" stroke-linejoin="round" stroke-miterlimit="10" stroke-width=".5" d="M227.10938 478.91797l-6.4375 2.82031"/></g><g clip-path="url(#w)"><path fill="none" stroke="#000" stroke-linecap="round" stroke-linejoin="round" stroke-miterlimit="10" stroke-width=".5" d="M227.10938 478.91797l1.92187 1.52344"/></g><g clip-path="url(#x)"><path fill="none" stroke="#000" stroke-linecap="round" stroke-linejoin="round" stroke-miterlimit="10" stroke-width=".5" d="M226.17188 479.32813l.96093.76171"/></g><g clip-path="url(#y)"><path fill="none" stroke="#000" stroke-linecap="round" stroke-linejoin="round" stroke-miterlimit="10" stroke-width=".5" d="M240.1836 478.46094l-5.95313 3.73437"/></g><path fill="none" stroke="#000" stroke-linecap="round" stroke-linejoin="round" stroke-miterlimit="10" stroke-width=".5" d="M240.1836 478.46094l2.125 1.22265m-2.9922-.67968l1.0625.61328"/><g clip-path="url(#z)"><path fill="none" stroke="#000" stroke-linecap="round" stroke-linejoin="round" stroke-miterlimit="10" stroke-width=".5" d="M253.4336 478.36328l-5.82423 3.92969"/></g><path fill="none" stroke="#000" stroke-linecap="round" stroke-linejoin="round" stroke-miterlimit="10" stroke-width=".5" d="M253.4336 478.36328l2.16796 1.15235m-3.01562-.58204l1.08203.57813"/><g clip-path="url(#A)"><path fill="none" stroke="#000" stroke-linecap="round" stroke-linejoin="round" stroke-miterlimit="10" stroke-width=".5" d="M266.95703 478.71484l-6.24219 3.22657"/></g><g clip-path="url(#B)"><path fill="none" stroke="#000" stroke-linecap="round" stroke-linejoin="round" stroke-miterlimit="10" stroke-width=".5" d="M266.95703 478.71484l2.01953 1.39453"/></g><g clip-path="url(#C)"><path fill="none" stroke="#000" stroke-linecap="round" stroke-linejoin="round" stroke-miterlimit="10" stroke-width=".5" d="M279.67969 477.88672l-5.0586 4.88281"/></g><path fill="none" stroke="#000" stroke-linecap="round" stroke-linejoin="round" stroke-miterlimit="10" stroke-width=".5" d="M278.9414 478.59766l1.16798.3789"/><g clip-path="url(#D)"><path fill="none" stroke="#000" stroke-linecap="round" stroke-linejoin="round" stroke-miterlimit="10" stroke-width=".5" d="M292.45703 477.4336l-3.98437 5.78906"/></g><path fill="none" stroke="#000" stroke-linecap="round" stroke-linejoin="round" stroke-miterlimit="10" stroke-width=".5" d="M291.8789 478.27734l1.21876.14063"/><g clip-path="url(#E)"><path fill="none" stroke="#000" stroke-linecap="round" stroke-linejoin="round" stroke-miterlimit="10" stroke-width=".5" d="M306.01172 477.61719l-4.46485 5.42578"/></g><path fill="none" stroke="#000" stroke-linecap="round" stroke-linejoin="round" stroke-miterlimit="10" stroke-width=".5" d="M305.36328 478.40625l1.20313.24219"/><g clip-path="url(#F)"><path fill="none" stroke="#000" stroke-linecap="round" stroke-linejoin="round" stroke-miterlimit="10" stroke-width=".5" d="M319.47656 477.74219l-4.75781 5.17187"/></g><path fill="none" stroke="#000" stroke-linecap="round" stroke-linejoin="round" stroke-miterlimit="10" stroke-width=".5" d="M318.78125 478.4961l1.1875.30859"/><g clip-path="url(#G)"><path fill="none" stroke="#000" stroke-linecap="round" stroke-linejoin="round" stroke-miterlimit="10" stroke-width=".5" d="M332.95703 477.91016l-5.09375 4.83984"/></g><path fill="none" stroke="#000" stroke-linecap="round" stroke-linejoin="round" stroke-miterlimit="10" stroke-width=".5" d="M332.21484 478.61328l1.16407.38672"/><g clip-path="url(#H)"><path fill="none" stroke="#000" stroke-linecap="round" stroke-linejoin="round" stroke-miterlimit="10" stroke-width=".5" d="M346.625 478.33984l-5.79688 3.97657"/></g><path fill="none" stroke="#000" stroke-linecap="round" stroke-linejoin="round" stroke-miterlimit="10" stroke-width=".5" d="M345.78125 478.91797l1.08594.57031"/><g clip-path="url(#I)"><path fill="none" stroke="#000" stroke-linecap="round" stroke-linejoin="round" stroke-miterlimit="10" stroke-width=".5" d="M360.17578 478.74219l-6.26953 3.17187"/></g><g clip-path="url(#J)"><path fill="none" stroke="#000" stroke-linecap="round" stroke-linejoin="round" stroke-miterlimit="10" stroke-width=".5" d="M359.26563 479.20313l1 .70703"/></g><g clip-path="url(#K)"><path fill="none" stroke="#000" stroke-linecap="round" stroke-linejoin="round" stroke-miterlimit="10" stroke-width=".5" d="M373.61719 479.01563l-6.51953 2.625"/></g><g clip-path="url(#L)"><path fill="none" stroke="#000" stroke-linecap="round" stroke-linejoin="round" stroke-miterlimit="10" stroke-width=".5" d="M372.66797 479.39844l.9375.78906"/></g><g clip-path="url(#M)"><path fill="none" stroke="#000" stroke-linecap="round" stroke-linejoin="round" stroke-miterlimit="10" stroke-width=".5" d="M387.07031 479.4375l-6.79687 1.78516"/></g><g clip-path="url(#N)"><path fill="none" stroke="#000" stroke-linecap="round" stroke-linejoin="round" stroke-miterlimit="10" stroke-width=".5" d="M386.08203 479.69531l.83203.90235"/></g><g clip-path="url(#O)"><path fill="none" stroke="#000" stroke-linecap="round" stroke-linejoin="round" stroke-miterlimit="10" stroke-width=".5" d="M399.52344 482.75781l-5.07422-4.85937"/></g><g clip-path="url(#P)"><path fill="none" stroke="#000" stroke-linecap="round" stroke-linejoin="round" stroke-miterlimit="10" stroke-width=".5" d="M413.70703 481.1875l-6.8125-1.71875"/></g><g clip-path="url(#Q)"><path fill="none" stroke="#000" stroke-linecap="round" stroke-linejoin="round" stroke-miterlimit="10" stroke-width=".5" d="M412.71484 480.9375l.29297 1.1914"/></g><g clip-path="url(#R)"><path fill="none" stroke="#000" stroke-linecap="round" stroke-linejoin="round" stroke-miterlimit="10" stroke-width=".5" d="M426.6914 478.63281l-6.15234 3.39453"/></g><g clip-path="url(#S)"><path fill="none" stroke="#000" stroke-linecap="round" stroke-linejoin="round" stroke-miterlimit="10" stroke-width=".5" d="M425.79688 479.125l1.02734.67188"/></g><g clip-path="url(#T)"><path fill="none" stroke="#000" stroke-linecap="round" stroke-linejoin="round" stroke-miterlimit="10" stroke-width=".5" d="M439.97266 478.5664l-6.08204 3.52344"/></g><g clip-path="url(#U)"><path fill="none" stroke="#000" stroke-linecap="round" stroke-linejoin="round" stroke-miterlimit="10" stroke-width=".5" d="M439.97266 478.5664l2.08203 1.29688"/></g><g clip-path="url(#V)"><path fill="none" stroke="#000" stroke-linecap="round" stroke-linejoin="round" stroke-miterlimit="10" stroke-width=".5" d="M453.49219 478.98438L447 481.67188"/></g><g clip-path="url(#W)"><path fill="none" stroke="#000" stroke-linecap="round" stroke-linejoin="round" stroke-miterlimit="10" stroke-width=".5" d="M453.49219 478.98438l1.89453 1.5625"/></g><g clip-path="url(#X)"><path fill="none" stroke="#000" stroke-linecap="round" stroke-linejoin="round" stroke-miterlimit="10" stroke-width=".5" d="M466.89844 479.22266l-6.67188 2.21093"/></g><g clip-path="url(#Y)"><path fill="none" stroke="#000" stroke-linecap="round" stroke-linejoin="round" stroke-miterlimit="10" stroke-width=".5" d="M466.89844 479.22266l1.77344 1.6953"/></g><g clip-path="url(#Z)"><path fill="none" stroke="#000" stroke-linecap="round" stroke-linejoin="round" stroke-miterlimit="10" stroke-width=".5" d="M147.32031 465.86328l-6.64062 2.30078"/></g><path fill="none" stroke="#000" stroke-linecap="round" stroke-linejoin="round" stroke-miterlimit="10" stroke-width=".5" d="M147.32031 465.86328l1.79688 1.66797m-2.76172-1.33203l.89844.83203m13.38672-1.15234l-6.65235 2.26953m6.65234-2.26953l1.78907 1.67968m-2.75781-1.35156l.89453.83985m13.29687-1.40625l-6.46875 2.74609m6.46875-2.7461l1.90625 1.54297m-2.84766-1.14453l1.91016 1.54297m12.26563-2.11719l-6.3047 3.09766m6.3047-3.09766l1.99218 1.4375m-2.91015-.98828l1.99219 1.4375m12.12109-2.11719l-6.0625 3.5586m6.0625-3.5586l2.08594 1.28907m-2.96875-.76953l2.08984 1.28515m12.14844-1.73047l-6.14453 3.41016m6.14453-3.41016l2.0586 1.33594m-2.95313-.83984l2.05859 1.33593m12-2.07812l-5.84375 3.90234m5.84375-3.90234l2.16016 1.16406m-3.01172-.59765l2.16406 1.16406m11.6289-2.19922l-5.09374 4.83984m5.09375-4.83984l2.32422.77734m-3.06641-.07422l2.32812.77735m11.90625-1.27735l-5.45312 4.4336m5.45312-4.4336l2.26172.95704m-3.05469-.3125l1.12891.47656m12.70313-1.42188l-4.89844 5.03516m4.89844-5.03516l2.35547.6836m-3.06641.04687l1.17578.34375m12.58594-1.3086l-4.36719 5.50391m4.36719-5.5039l2.41015.4414m-3.04687.35938l1.20703.22266m12.6211-1.1172l-4.125 5.69142m4.125-5.69141l2.42968.33984m10.64453-.5l-3.64062 6.01172m3.64062-6.01172l2.44922.13672m11.48828.34375l-4.88672 5.05078m4.17578-4.3164l1.1797.33984m13.0664-.83984l-5.32813 4.58203m4.5547-3.91407l1.14062.44532m12.98828-1.0664l-5.40625 4.48827m5.40625-4.48828l2.26953.92969m11.1211-.83594l-5.5586 4.30078m5.5586-4.30078l2.23827 1.00781m11.48828-.32812l-6.3828 2.9414m6.3828-2.9414l1.95313 1.48437m9.82031-3.11718l-3.29687 6.20703m2.8164-5.30469h1.22657m11.48046-1.26563l-1.125 6.9336m.96485-5.92578l1.16015-.39453m15.15235 1.95312l-6.79297 1.80078m19.89062-2.39062l-6.36328 2.98047m6.36328-2.98047l1.96485 1.47265m11.21875-1.73047l-6.09766 3.4961m6.09766-3.4961l2.07422 1.3047m10.76172-1.94923l-5.14063 4.78516m5.14063-4.78516l2.3203.80078m11.90235 1.08985l-6.95312 1.0039"/><g clip-path="url(#aa)"><path fill="none" stroke="#000" stroke-linecap="round" stroke-linejoin="round" stroke-miterlimit="10" stroke-width=".5" d="M467.03906 466.51172l1.44922 1.98047"/></g><g clip-path="url(#ab)"><path fill="none" stroke="#000" stroke-linecap="round" stroke-linejoin="round" stroke-miterlimit="10" stroke-width=".5" d="M147.32031 452.54297l-6.64062 2.3086"/></g><path fill="none" stroke="#000" stroke-linecap="round" stroke-linejoin="round" stroke-miterlimit="10" stroke-width=".5" d="M147.32031 452.54297l1.79688 1.66797m-2.76563-1.33203l1.80078 1.66796m12.46094-2.05468l-6.59766 2.41406m6.59766-2.41406l1.82813 1.64062m-2.78516-1.28906l.91016.82031m13.33203-1.25781l-6.53516 2.58594m6.53516-2.58594l1.86719 1.58984m-2.82032-1.21484l1.8711 1.58984m12.29687-2.1914l-6.33594 3.03906m6.33594-3.03906l1.97656 1.45312m-2.89843-1.01172l1.97656 1.45313m-2.89844-1.01172l.98828.72656m13.83985-2.16406l-5.67188 4.14844m5.67188-4.14844l2.20703 1.07031m-3.03516-.46875l2.21094 1.07031m11.82812-1.80468l-5.46875 4.41406m5.46875-4.41406l2.25782.96484m-3.05078-.32422l2.2539.96485m12.0039-1.41016l-5.76562 4.02344m5.76563-4.02344l2.1836 1.11719m-3.02345-.53125l2.1836 1.11718m11.69922-2.04296l-5.22266 4.69921m5.22266-4.69921l2.30859.84375m-3.0664-.16016l1.15234.42187m12.125-1.76171l-3.63281 6.01562m3.6328-6.01562l2.44923.1328m-2.97657.7422l1.22266.0664m12.14063-1.1836l-2.67579 6.5m2.67578-6.5l2.44532-.23827m-2.83203 1.1836l2.4414-.23829m11.3164-.6836l-2.78124 6.45313m2.78125-6.45312l2.44531-.19922m-2.85156 1.13672l1.22266-.09766m13.38671-.28516l-4.5625 5.34375m4.5625-5.34375l2.39454.52735m-3.0586.25l1.19922.26562m12.0039-1.54687l-3.0078 6.35156m3.0078-6.35156l2.45313-.11328m-2.89062 1.03906l1.22656-.0586m13.07031-.54687l-4.09765 5.71094m4.09765-5.71094l2.42969.32812m-3.02734.50391l1.21875.16406m13.17187-.58593l-5.05078 4.88671m5.05078-4.88671l2.33203.7578m10.90625-.83202l-4.89844 5.03906m4.89844-5.03906l2.35547.6836m10.60547-.98438l-4.1914 5.64062m4.1914-5.64062l2.42578.36718m9.17188-1.03906l-.75782 6.98438m.64844-5.96875l1.14063-.45704m14.58984.66407l-5.36719 4.53906m18.83594-4.34375l-5.67578 4.14453m4.84765-3.53906l1.10547.53515m13.66407.34766l-6.9297 1.17188m6.9297-1.17188l1.49609 1.9414m11.86328-1.52343l-7.01953.33203m7.01953-.33203l1.2539 2.10937m11.66407-3.57421l-6.22266 3.26562m6.22266-3.26562l2.02734 1.3828m10.77344-2.11718l-5.19531 4.73438m5.19531-4.73438l2.3086.82422M466.63671 452l-6.14844 3.39844"/><g clip-path="url(#ac)"><path fill="none" stroke="#000" stroke-linecap="round" stroke-linejoin="round" stroke-miterlimit="10" stroke-width=".5" d="M466.63672 452l2.05469 1.33984"/></g><g clip-path="url(#ad)"><path fill="none" stroke="#000" stroke-linecap="round" stroke-linejoin="round" stroke-miterlimit="10" stroke-width=".5" d="M147.25781 439.0664l-6.51562 2.63282"/></g><path fill="none" stroke="#000" stroke-linecap="round" stroke-linejoin="round" stroke-miterlimit="10" stroke-width=".5" d="M147.25781 439.0664l1.8789 1.57813m-2.82812-1.19531l1.87891 1.57812m12.5039-1.61718l-6.7539 1.9453m6.7539-1.9453l1.70704 1.76172m-2.6914-1.47657l1.70702 1.76172m-2.6875-1.48047l.85156.88282m14.3125-1.78125l-6.52343 2.61328m6.52344-2.61328l1.875 1.58203m-2.82422-1.20313l1.875 1.58203m-2.82422-1.20312l.9375.79297m14.10156-1.92578l-6.17188 3.36328m6.17188-3.36328l2.04688 1.34765m-2.94532-.85937l2.04688 1.35156m-2.94531-.86328l1.02343.67578m13.8789-1.99219l-5.7539 4.03906m5.7539-4.03906l2.1875 1.11328m-3.02343-.52343l2.1875 1.10937m11.80469-1.90625l-5.4336 4.45703m5.4336-4.45703l2.26172.94531M212.5 438.8047l1.13281.47265m12.5586-1.54687l-4.60157 5.3086m4.60157-5.3086l2.39062.54687m-3.0586.22266l2.39063.55078m11.5664-1.34765l-4.54687 5.35937m4.54688-5.35938l2.39453.52735m-3.0586.2539l2.39844.52344m10.95703-1.72656l-3.30078 6.20313m3.30078-6.20313h2.45313m-2.9336.90234h2.45313m10.96094-1.07422l-2.53906 6.55079m2.53906-6.55078l2.4375-.29297m-2.8086 1.24609l1.21875-.14844m12.81641-.64844l-3.23828 6.23829m3.23828-6.23828l2.45313-.02735m-2.92578.9336l1.22656-.01172m12.91015-.6875l-3.93359 5.8203m3.9336-5.8203l2.4414.2578m-3.01563.58985l1.22266.1289m12.60938-1.01562l-3.82032 5.89844m3.82032-5.89844l2.4453.21485m-3 .64453l1.22267.10547m11.84765-1.34766l-2.22265 6.66406m2.22265-6.66406l2.41797-.40625m-2.74219 1.375l1.21094-.20312m12.71484-.65625l-2.79296 6.44922m2.79296-6.44922l2.44532-.19922m11.60937.63281l-4.27734 5.57813m4.27734-5.57813l2.42188.40625m10.98046-.33594l-4.44921 5.4414m4.44921-5.4414l2.40625.48047m8.4922-1.26953l.3828 7.01563m-.32812-5.9961l1.05078-.63281m9.16406 1.7539l6.47266 2.73438m-5.53125-2.33594l-.10547-1.22265m17.9414-.52735l-4.44921 5.4414m3.80078-4.65233l1.20313.24218m14.04687 1.52344l-7.01953.33203m7.01953-.33203l1.25 2.10938m-2.27344-2.0625l.6289 1.05468m13.71095-.85547l-7.02344-.16406m7.02344.16406l1.10156 2.19141m-2.125-2.21484l.55078 1.09765m13.65625-2.11328l-6.76172 1.91406m6.76172-1.91406l1.69922 1.77344m10.9961-2.98828l-5.52344 4.34375m5.52343-4.34375l2.2461.99219m10.83203-1.26563l-5.04688 4.89063m4.3125-4.1797l1.16797.37891"/><g clip-path="url(#ae)"><path fill="none" stroke="#000" stroke-linecap="round" stroke-linejoin="round" stroke-miterlimit="10" stroke-width=".5" d="M147.48047 426.58984l-6.96094.96094"/></g><path fill="none" stroke="#000" stroke-linecap="round" stroke-linejoin="round" stroke-miterlimit="10" stroke-width=".5" d="M147.48047 426.58984l1.4375 1.98828m-2.44922-1.85156l1.4375 1.98828m-2.45313-1.84765l1.4375 1.98828m13.77344-2.85156l-6.69922 2.1289m6.69922-2.1289l1.7539 1.71484m-2.73046-1.40625l1.7539 1.71875m-2.72656-1.40625l.87891.85547m14.05469-2.21094l-6.03516 3.59766m6.03516-3.59766l2.09765 1.27344m-2.97656-.75l2.09766 1.27344m-2.97656-.75l1.05078.63671m13.84375-1.94921l-5.6836 4.1289m5.6836-4.1289l2.20703 1.07421m-3.03125-.47265l2.20312 1.07422m11.95703-1.64844l-5.72265 4.07422m5.72265-4.07422l2.19532 1.09766m-3.02735-.50391l2.19531 1.09766m11.79688-1.89454l-5.41406 4.48047m5.41406-4.48047l2.26953.9375m-3.05469-.28515l2.26563.9375m11.96484-1.42188l-5.67578 4.14453m5.67578-4.14453l2.21094 1.07032m-3.03516-.46485l2.20703 1.07031m11.58594-2.08203l-4.97656 4.96094m4.97656-4.96094l2.34375.71875m-3.07031 0l2.34766.72266m11.6289-1.50781l-4.84765 5.08984m4.84765-5.08984l2.36328.66406m-3.0703.07812l2.36327.66016m12.01953-1l-5.5703 4.28516m5.5703-4.28516l2.23438 1.01172m-3.04688-.39063l2.23438 1.01563m11.60156-1.96875l-4.98828 4.94922m4.98828-4.94922l2.34375.72656m-3.07031-.00781l2.34375.73047m10.8164-2.09375l-3.22656 6.23828m3.22656-6.23828l2.45704-.03125m-2.92579.9375l1.22657-.01172m12.67578-.83203l-3.46485 6.11328m3.46485-6.11328l2.45312.0664m11.01172.02344l-3.76172 5.9336m3.76172-5.9336l2.44531.1836m11.16797.02734l-4.35546 5.51172m4.35546-5.51172l2.41407.4375m11.74609.52734l-6.04688 3.58203m5.16797-3.05859l1.04688.63672m13.28125-.91016l-6.3164 3.08203m6.3164-3.08203l1.98437 1.4375m11.14844-1.76172l-5.95312 3.73438m19.80468-1.76953l-7.02343-.19922m7.02343.19922l1.08985 2.19922m12.21875-2.07813l-7.01172-.4414m7.01172.4414l1.01562 2.23438m-2.03515-2.29688l.5078 1.11719m13.78517-.6836l-6.92579-1.18359m6.92579 1.1836l.76953 2.33203m-1.77735-2.5039l.76953 2.33202m13.60157-2.60547l-7.02344-.29297m7.02344.29297l1.05859 2.21094m-2.08203-2.2539l1.0625 2.21093m12.26953-4.77734l-5.01172 4.92578m5.01172-4.92578l2.33984.73437m-3.0703-.01953l1.17187.3711m12.0625-1.69922l-3.39063 6.15234m3.39063-6.15234l2.45312.03515m-2.94531.85938l1.22656.01953m12.38281-1.01563l-2.99609 6.35547m2.9961-6.35547l2.44921-.12109"/><g clip-path="url(#af)"><path fill="none" stroke="#000" stroke-linecap="round" stroke-linejoin="round" stroke-miterlimit="10" stroke-width=".5" d="M147.51172 413.82813l-7.02344-.14844"/></g><path fill="none" stroke="#000" stroke-linecap="round" stroke-linejoin="round" stroke-miterlimit="10" stroke-width=".5" d="M147.51172 413.82813l1.10547 2.1875m-2.125-2.21094l.55078 1.09765m13.77344-.85156l-7.00391-.59375m7.0039.59375l.96485 2.25781m-1.98438-2.34375l.96485 2.25782m-1.98438-2.34375l.48438 1.1289m14.73047-2.27344l-6.72266 2.03907m6.72266-2.03907l1.73047 1.73829m-2.70703-1.44141l1.73046 1.73828m-2.71093-1.4414l.86718.86718m14.35157-1.625l-6.6172 2.36719m6.6172-2.36719l1.8125 1.65235m-2.77735-1.3086l1.8164 1.65235m-2.77733-1.3086l.90625.82813m14.45703-1.08203l-6.86328 1.5m6.86328-1.5l1.58984 1.87109m-2.58594-1.65234l1.58594 1.87109m-2.58594-1.65234l.79297.93359m14.5625-1.13672l-6.94922 1.02734m6.94922-1.02734l1.45703 1.97656m-2.46875-1.82422l1.45703 1.97266m-2.46875-1.82422l.73047.98828m14.3711-2.13672l-6.47657 2.72657m6.47657-2.72656l1.90234 1.55078m-2.84375-1.15235l1.90234 1.55078m12.06641-2.49609l-5.90234 3.8164m5.90234-3.8164l2.14453 1.19531m-3.0039-.63672l2.14453 1.19141m12.0039-1.78516l-5.85156 3.89063m5.85156-3.89063l2.16016 1.16407m-3.01172-.59766l1.08203.58203m12.91406-1.38672l-5.5078 4.36328m5.5078-4.36328l2.2461.98438m-3.04688-.34766l1.125.49219m13.20703-.82422l-5.9375 3.75781m5.9375-3.75781l2.12891 1.21484m10.84766-1.66406l-5.26563 4.65625m5.26563-4.65625l2.29687.85938m-3.0625-.1797l1.14844.4297m13.7461.53515l-6.89063 1.36328m6.89062-1.36328l1.55078 1.90235m11.8086-1.63672l-6.97656.83594m5.96093-.71485l.69922 1.00781m12.15235 2.17188l-4.01954-5.76563m18.57813 4.21094l-6.50781-2.65625m5.55859 2.26953l.125 1.22266m14.39844-2.14844l-7.02735-.03125m6.00391.02735l.57031 1.08593m13.6836-1.85937l-6.85938 1.52344m6.85938-1.52344l1.59375 1.86719m11.80468-1.19141l-7.02343.17187m7.02343-.17187l1.20704 2.13672M400.5 413.70313l-7.02734.10156m7.02734-.10156l1.1836 2.14843m-2.20704-2.13281l.59375 1.07422m13.72266-1.42578l-6.98438.77344m6.98438-.77344l1.38281 2.02734m-2.39844-1.91406l.69141 1.01172m13.625-1.24219l-6.95312 1.0039m6.95312-1.0039l1.44922 1.98047m-2.46094-1.83203l.72656.98828m13.53125-1.49219l-6.8164 1.71484m6.8164-1.71484l1.64454 1.82031m11.16796-2.9375l-5.80859 3.95313m5.8086-3.95313l2.17187 1.14063m11.6875.16016l-6.89844 1.35156"/><g clip-path="url(#ag)"><path fill="none" stroke="#000" stroke-linecap="round" stroke-linejoin="round" stroke-miterlimit="10" stroke-width=".5" d="M467.01172 413.07813l1.54297 1.90625"/></g><path fill="none" stroke="#000" stroke-linecap="round" stroke-linejoin="round" stroke-miterlimit="10" stroke-width=".5" d="M466.00781 413.27344l.77344.95312"/><g clip-path="url(#ah)"><path fill="none" stroke="#000" stroke-linecap="round" stroke-linejoin="round" stroke-miterlimit="10" stroke-width=".5" d="M147.38281 401.39453l-6.76562-1.91015"/></g><path fill="none" stroke="#000" stroke-linecap="round" stroke-linejoin="round" stroke-miterlimit="10" stroke-width=".5" d="M147.38281 401.39453l.51953 2.39844m-1.5039-2.67578l.25781 1.19922m14.08203-1.09375l-6.84766-1.57032m6.84766 1.57032l.64063 2.37109m-1.63672-2.59766l.64062 2.3672m13.55078-1.73048l-6.60937-2.38672m6.60937 2.38672l.34766 2.42969m-1.3086-2.77734l.34766 2.42968m14.07813-2.6328l-6.90625-1.28907m6.90625 1.28906l.73437 2.34375m-1.73828-2.53125l.36719 1.17188m13.83594-.52735l-6.67578-2.19922m6.67578 2.19922l.41406 2.41797m13.07031-3.73828l-7.01172.4414m7.01172-.4414l1.28516 2.08984m12.01562-2.2539l-6.98437.76562m6.98437-.76562l1.38281 2.02734m-2.39843-1.91406l.6914 1.01172m13.35938-2.16406l-6.42578 2.84375m6.42578-2.84375l1.92969 1.51562m-2.86328-1.10156l.96484.75781m13.01172-1.67578l-5.8789 3.85156m5.8789-3.85156l2.14844 1.17969m-3.00391-.6172l1.07422.58985m13.14453-1.07422l-5.97656 3.69922m5.97656-3.69922l2.11719 1.23438m-2.98829-.69531l1.0586.61718m13.20312-1.02734l-6.1289 3.4375m6.1289-3.4375l2.06641 1.32813m10.7539-2.00391l-5.14062 4.78906m5.14063-4.78906l2.3203.80078m10.32423-1.35938l-3.80078 5.91016m3.80078-5.91015l2.44531.20312m11.64844.47266l-5.35156 4.55468m5.35156-4.55468l2.28125.90625m11.375-.42579l-6.03906 3.59766m6.03906-3.59765l2.09765 1.26953m11.09766-1.46094l-5.79687 3.97656m4.95312-3.39844l1.08594.57032m7.44922 3.05859l5.44922-4.4375m11.98437 5.44531l-2.78906-6.44922m17.83594 1.6211l-6.25391 3.20312m6.2539-3.20312l2.01563 1.40234m11.6836.33203l-7.01954-.26562m7.01953.26562l1.07032 2.20703m11.99609-1.03515l-6.52344-2.60938m6.52344 2.60938l.26563 2.4414m12.90234-2.11718l-6.22656-3.25782m6.22656 3.25782l.01562 2.45703m13.40235-2.66797l-6.4336-2.83203m6.4336 2.83203l.17969 2.44531m13.41015-4.2461l-6.98437.76563m6.98437-.76562l1.38281 2.02734m11.91797-2.13672l-6.95703.98438"/><g clip-path="url(#ai)"><path fill="none" stroke="#000" stroke-linecap="round" stroke-linejoin="round" stroke-miterlimit="10" stroke-width=".5" d="M467.03906 399.94531l1.44531 1.98438"/></g><path fill="none" stroke="#000" stroke-linecap="round" stroke-linejoin="round" stroke-miterlimit="10" stroke-width=".5" d="M466.02734 400.08984l.72266.9922"/><g clip-path="url(#aj)"><path fill="none" stroke="#000" stroke-linecap="round" stroke-linejoin="round" stroke-miterlimit="10" stroke-width=".5" d="M147.2539 388.44531l-6.5078-2.64453"/></g><path fill="none" stroke="#000" stroke-linecap="round" stroke-linejoin="round" stroke-miterlimit="10" stroke-width=".5" d="M147.2539 388.44531l.25 2.4414m-1.1953-2.82421l.125 1.21875m14.26171-1.1914l-6.75781-1.9336m6.75781 1.9336l.51172 2.39843m-1.4961-2.67969l.25391 1.19922m14.10547-1.16797l-6.8789-1.43359m6.8789 1.4336l.6875 2.35546m-1.6875-2.5625l.34375 1.17578m13.6289-.02734l-6.1953-3.3164m6.1953 3.3164l-.0078 2.45703m12.1328-1.16406l-3.8164-5.89844m3.26172 5.03906l-.59375 1.07032m16.07031-3.09375l-7.02734-.13672m7.02734.13672l1.10547 2.1914m-2.1289-2.21094l1.10937 2.19141m13.1875-1.69531l-6.94531-1.08985m6.94531 1.08985l.80078 2.3164m-1.8125-2.47656l.80469 2.32031m13.54688-2.38671l-6.9961-.63672m6.9961.63672l.95312 2.26171m-1.96875-2.35546l.47266 1.1328m13.79687-2.08593l-6.875 1.45703m6.875-1.45703l1.57813 1.88281m-2.57813-1.66796l1.57422 1.8789m12.6875-2.3164l-6.76563 1.90234m6.76563-1.90235l1.69531 1.77344m-2.67969-1.4961l1.69532 1.77345m12.4336-2.52344l-6.42579 2.84765m6.42578-2.84765l1.92969 1.51172m-2.86719-1.09766l1.9336 1.51172m12.29687-1.97656l-6.3789 2.94922m6.3789-2.94922l1.95313 1.48047m-2.88282-1.05079l1.95703 1.48047m12.10938-2.24218l-6.02344 3.61328m6.02344-3.61328l2.10156 1.26562m-2.97656-.74219l2.10156 1.26563m11.9414-2.01953l-5.72656 4.07422m5.72657-4.07422l2.1914 1.09765m-3.02734-.5039l2.19531 1.09765m11.9414-1.71093l-5.69921 4.11328m5.69922-4.11328l2.19922 1.08593m-3.03125-.48828l1.10156.54297m13.21094-.88672l-6.03125 3.60938m6.03125-3.60938l2.10156 1.26563m11.66406 1.10937l-6.9336-1.14453m6.9336 1.14453l.78516 2.32422m12.48828-3.67578l-6.85156 1.5586m6.85156-1.5586l1.60547 1.85547m-2.60156-1.6289l1.60546 1.85546m12.57422-2.53125l-6.58593 2.45703m6.58593-2.45703l1.83594 1.6289m-2.79687-1.26952l.91796.8125m13.5586-.29688l-6.98828.70703m6.98828-.70703l1.36328 2.04297m11.90234-1.0039l-6.89062-1.3711m6.89062 1.3711l.70704 2.35156m12.4414-1.76954l-6.55469-2.53515m6.5547 2.53515l.29296 2.4375m12.83984-2.04296l-6.1914-3.32422m6.1914 3.32422l-.01171 2.45312m13.60937-3.14844l-6.75781-1.93359m6.75781 1.9336l.51172 2.39843m-1.4961-2.67969l.25782 1.19922m14.14453-1.40625l-6.96094-.95703"/><g clip-path="url(#ak)"><path fill="none" stroke="#000" stroke-linecap="round" stroke-linejoin="round" stroke-miterlimit="10" stroke-width=".5" d="M467.04297 387.60156l.84375 2.30469"/></g><path fill="none" stroke="#000" stroke-linecap="round" stroke-linejoin="round" stroke-miterlimit="10" stroke-width=".5" d="M466.03125 387.46484l.42188 1.15235"/><g clip-path="url(#al)"><path fill="none" stroke="#000" stroke-linecap="round" stroke-linejoin="round" stroke-miterlimit="10" stroke-width=".5" d="M146.55078 376.22656l-5.10156-4.83594"/></g><path fill="none" stroke="#000" stroke-linecap="round" stroke-linejoin="round" stroke-miterlimit="10" stroke-width=".5" d="M146.55078 376.22656l-.65625 2.36328m-.08594-3.0664l-.32812 1.17969m14.67187-.82422l-5.67578-4.14454m5.67578 4.14454l-.34765 2.42968m-.47656-3.03125l-.17579 1.21485m14.32032-.6211l-5.6875-4.125m5.6875 4.125l-.33985 2.4297m-.48828-3.03126l-.16797 1.21875m14.84766-1.72265l-6.75781-1.91797m6.7578 1.91796l.51954 2.39844m12.88672-2.8086l-6.9414-1.09374m6.9414 1.09375l.80078 2.3164m-1.8086-2.47656l.39844 1.16016m13.89844-.84375l-6.88672-1.40625m6.88672 1.40625l.6914 2.35156m-1.6953-2.55469l.6953 2.35157m13.62891-2.1875l-6.89843-1.32813m6.89843 1.32813l.72266 2.34375m-1.72656-2.53516l.72265 2.34375m-1.72656-2.53906l.36328 1.17187m15.01563-1.21484l-7.01172-.46875m7.01172.46875l1.00781 2.23437m-2.02734-2.30468l1.0039 2.23828m-2.02344-2.30469l.50391 1.11719m14.85156-1.0039l-7.01562-.42188m7.01562.42187l1.01953 2.23047m-2.03906-2.29297l1.01953 2.23047m-2.03906-2.29297l.50781 1.11719m14.82813-1.61719l-6.97656.82422m6.97656-.82422l1.39844 2.01953m-2.41407-1.89844l1.39844 2.01563m-2.41406-1.89453l.69922 1.00781m14.58203-1.63281l-6.84375 1.59375m6.84375-1.59375l1.61328 1.84765m-2.60938-1.61718l1.61329 1.85156m12.58203-2.47266l-6.61719 2.3711m6.61719-2.3711l1.8164 1.65235m-2.77734-1.30469l1.8125 1.64844m12.1836-2.58985l-6.0547 3.5625m6.0547-3.5625l2.09374 1.28516m-2.97265-.76563l2.08984 1.28125m11.97266-2.01171l-5.79297 3.98046m5.79297-3.98046l2.17578 1.1328m-3.01953-.55077l2.17578 1.13281m-3.01953-.55469l1.08984.5664m13.76563-1.92187l-5.5 4.375m5.5-4.375l2.25.98047m-3.05078-.34375l2.25.98047m12.15234-1.19922l-6.07031 3.53906m6.0703-3.53906l2.08595 1.29297m-2.96875-.77734l2.08593 1.28906m12.50782-.78906l-6.86328 1.50781m6.86328-1.50781l1.58984 1.8711m-2.58984-1.65235l1.58984 1.8711m12.75-1.96876l-6.91406 1.26172m6.91406-1.26172l1.52344 1.92578m-2.52735-1.74219l1.51954 1.92579m12.65234-2.66016l-6.61719 2.36328m6.61719-2.36328l1.8125 1.65625m-2.77734-1.3125l1.8164 1.65625m12.54297-1.75l-6.77734 1.86719m6.77734-1.86719l1.6836 1.78125m-2.67188-1.51172l.84375.89063m13.58594-.25391l-7.02735.05078m7.02735-.05078l1.16406 2.16016m11.96094-1l-6.65235-2.26563m5.6836 1.9375l.19922 1.21094m14.08203-.8711l-6.64453-2.28906m6.64453 2.28906l.3828 2.42579m12.96095-2.51563l-6.70313-2.10937m6.70313 2.10937l.44922 2.41406m12.9453-2.70312l-6.85937-1.53516m6.85938 1.53516l.64844 2.36719"/><g clip-path="url(#am)"><path fill="none" stroke="#000" stroke-linecap="round" stroke-linejoin="round" stroke-miterlimit="10" stroke-width=".5" d="M145.66016 363.58984l-3.32032-6.1914"/></g><path fill="none" stroke="#000" stroke-linecap="round" stroke-linejoin="round" stroke-miterlimit="10" stroke-width=".5" d="M145.66016 363.58984l-1.3672 2.03907"/><g clip-path="url(#an)"><path fill="none" stroke="#000" stroke-linecap="round" stroke-linejoin="round" stroke-miterlimit="10" stroke-width=".5" d="M145.17578 362.6875l-1.36328 2.03906"/></g><path fill="none" stroke="#000" stroke-linecap="round" stroke-linejoin="round" stroke-miterlimit="10" stroke-width=".5" d="M159.8125 362.96484l-4.9961-4.9414m4.9961 4.9414l-.70313 2.34766m-.02343-3.0664l-.70313 2.34765m14.96094-1.86719l-5.42578-4.46875m5.42578 4.46875l-.48828 2.40625m-.30078-3.05469l-.2461 1.19922m14.53516-.79687l-5.79688-3.97656m5.79688 3.97656l-.27734 2.4375m13.54687-2.375l-5.70703-4.10156m5.70703 4.10156l-.32812 2.4336m14.25-3.86329l-6.91797-1.23828m6.91797 1.23828l.75 2.33594m-1.75782-2.51563l.375 1.16797m13.95313-1.01953l-6.92969-1.17969m6.92969 1.1797l.76953 2.33202m-1.77734-2.5039l.76953 2.33203m13.59765-2.5625l-7.01953-.3711m7.01953.3711l1.03516 2.22265m-2.0586-2.27734l1.03907 2.22266m13.29687-2.5625l-7.01562.41796m7.01562-.41796l1.28125 2.09375m-2.30078-2.03516l1.27735 2.09375m13.05859-2.14453l-7.01563.40234m7.01563-.40234l1.27344 2.09375m-2.29297-2.03516l1.27344 2.09375m-2.29688-2.03515l.63672 1.04687m14.67188-1.58594l-6.91797 1.2422m6.91797-1.2422l1.51562 1.9297m-2.52344-1.75l1.51953 1.92968m12.76563-2.28906l-6.84375 1.60156m6.84375-1.60156l1.61719 1.84765m-2.61329-1.61328l1.6172 1.84766m12.58593-2.44531l-6.6289 2.32812m6.6289-2.32813l1.8086 1.66407m-2.76954-1.32422l.90235.83203m13.16015-1.66016l-6.19922 3.3086m6.19922-3.3086l2.03516 1.3672m-2.9375-.88673l2.03515 1.36719m12.16797-1.8789l-6.16797 3.36718m6.16797-3.36719l2.04688 1.35157m-2.94531-.85938l2.05078 1.34766m-2.94922-.85938l1.02734.67578m14.1875-1.44921l-6.375 2.95312m6.375-2.95313L348.8711 360.5m-2.8828-1.05469l1.95312 1.48438m12.58203-.90625l-6.96485.9375m6.96485-.9375l1.42968 1.99219m-2.4414-1.85547l1.42969 1.99218m-2.44532-1.85546l.71485.99609m14.58593-1.51563l-6.8789 1.4297m6.8789-1.4297l1.56641 1.88672m-2.5664-1.67578l1.5664 1.88672m-2.57031-1.67969l1.57031 1.88672m13.53516-2.98047l-6.45313 2.78516m6.45313-2.78516l1.91406 1.53125m-2.85547-1.125l1.91797 1.53125m-2.85547-1.1289l1.91797 1.53515m13.16406-2.57422l-6.23047 3.2461m6.23047-3.2461l2.02344 1.38672m-2.92969-.91406l2.02344 1.38672m12.35547-1.51953l-6.54297 2.5625m6.54297-2.5625l1.86328 1.60156m-2.8164-1.22656l.92968.79687m13.57813.01172l-7.02344.19531m6-.16406l.60547 1.0664m13.72656-.75l-7.01172-.5m5.99219.4297l.4961 1.12109m13.84374-1.22656l-7.02344-.14844m6.00391.1289l.55078 1.09375m13.78516-1.02734l-7.02344-.24219m6 .20704l.53906 1.10156"/><g clip-path="url(#ao)"><path fill="none" stroke="#000" stroke-linecap="round" stroke-linejoin="round" stroke-miterlimit="10" stroke-width=".5" d="M144.3711 350.67188l-.7422-6.98829"/></g><g clip-path="url(#ap)"><path fill="none" stroke="#000" stroke-linecap="round" stroke-linejoin="round" stroke-miterlimit="10" stroke-width=".5" d="M144.3711 350.67188l-2.03126 1.375"/></g><g clip-path="url(#aq)"><path fill="none" stroke="#000" stroke-linecap="round" stroke-linejoin="round" stroke-miterlimit="10" stroke-width=".5" d="M144.26172 349.65625l-2.03125 1.375"/></g><path fill="none" stroke="#000" stroke-linecap="round" stroke-linejoin="round" stroke-miterlimit="10" stroke-width=".5" d="M158.76172 350.3789l-2.89063-6.40234m2.89063 6.40235l-1.5039 1.9414m1.08202-2.8711l-1.5 1.94142m15.67188-1.2461l-3.76172-5.9336m3.76172 5.9336l-1.21484 2.13281m.66796-2.99609l-.60937 1.0664m14.92578-.54687l-4.67188-5.2461m4.67188 5.2461l-.85156 2.30078m.17187-3.0625l-.42578 1.14844m14.80469-.78516l-5.4414-4.4453m5.4414 4.4453l-.47656 2.40625m-.3125-3.05468l-.2422 1.20312m14.97267-1.71484l-6.69532-2.1289m6.69531 2.1289l.44532 2.41406m-1.41797-2.72266l.22266 1.20704m14.20703-1.55079l-6.97657-.82421m6.97657.82421l.89062 2.28907m-1.90625-2.41016l.89063 2.28906m13.46484-2.49219l-7.02734-.17578m7.02734.17579l1.09766 2.1953m-2.1211-2.21874l1.09766 2.1914m13.1875-2.86328l-6.92188 1.21485m6.92188-1.21485l1.51172 1.9336m-2.51953-1.75782l1.51172 1.9375m12.78906-2.23046l-6.875 1.45312m6.875-1.45313l1.57422 1.87891m-2.57422-1.66797l1.57422 1.8789m12.71093-2.21093l-6.8164 1.69531m6.8164-1.6953l1.64063 1.82421m-2.63281-1.57813l1.64062 1.82422m-2.63281-1.57812l.82031.91015m14.44531-1.53906l-6.74609 1.96875m6.7461-1.96875l1.71093 1.7539m-2.69531-1.46874l1.71484 1.75781m-2.69531-1.47265l.85547.8789m14.55078-.1875l-7.0039-.5586m7.0039.5586l.97656 2.2539m-1.99218-2.33593l.48437 1.1289m13.65625-2.5l-6.6211 2.34766m6.6211-2.34765l1.8125 1.65625m-2.77344-1.31641l.90235.82813m13.33984-1.26563l-6.55078 2.54297m6.55078-2.54297l1.85547 1.60547m-2.8086-1.23438l1.85547 1.60157m12.32422-2.1797l-6.375 2.95704m6.375-2.95703l1.95703 1.48437m-2.88671-1.05468l1.95703 1.48437m12.59765-.76172l-6.9961.65625m6.9961-.65625l1.34766 2.04688m-2.36719-1.95313l1.35156 2.05078m12.9922-2.05078l-7.01173.46875m7.01172-.46875l1.29297 2.08203m-2.3164-2.01562l1.29687 2.08594m-2.3164-2.01954l1.29687 2.08594m13.91015-3.03125l-6.71093 2.08985m6.71093-2.08985l1.7422 1.72656m-2.71876-1.42187l1.74219 1.72656m-2.71875-1.42187l1.74219 1.72265M400.0742 345.5l-6.17577 3.35547m6.17578-3.35547l2.04687 1.35547m-2.9453-.86719l2.04687 1.35547m-2.94532-.86719l2.04688 1.35547m13.2539-1.92187l-6.55468 2.53515m6.55469-2.53515l1.85546 1.60546m-2.80859-1.23437l1.85547 1.60547m-2.8086-1.23828l.92579.80469m14.4414-1.07032l-6.84375 1.58985m6.84375-1.58985l1.61328 1.85156m-2.60937-1.61718l1.61328 1.84765m-2.60937-1.61718l.80468.92187m14.57032-.9961l-6.98047.8086m6.98047-.8086l1.39453 2.01954m-2.41016-1.90235l.69531 1.00782m13.61328-1.27344l-6.9375 1.10547m6.9375-1.10547l1.48047 1.95703m11.8164-2.07031l-6.89843 1.33203"/><g clip-path="url(#ar)"><path fill="none" stroke="#000" stroke-linecap="round" stroke-linejoin="round" stroke-miterlimit="10" stroke-width=".5" d="M467.01172 346.51172l1.54297 1.91015"/></g><g clip-path="url(#as)"><path fill="none" stroke="#000" stroke-linecap="round" stroke-linejoin="round" stroke-miterlimit="10" stroke-width=".5" d="M143.42969 337.33203l1.14062-6.9375"/></g><path fill="none" stroke="#000" stroke-linecap="round" stroke-linejoin="round" stroke-miterlimit="10" stroke-width=".5" d="M157.48828 337.3711l-.34375-7.01563m.34375 7.01562l-2.10937 1.25782m2.05859-2.27735l-2.10938 1.25781m15.84375-.27343l-1.08203-6.94531m1.08203 6.9453l-1.96484 1.46876m1.80469-2.48047l-.98047.73437m13.29297.26172l1.24219-6.91406m-1.2422 6.91406l-2.33593.75m15.70313-.73828l1.13672-6.9375m-.97266 5.92578l-1.16016.39453m18.14063-1.54687l-6.52344-2.60938m6.52344 2.60938l.26562 2.4375m-1.21484-2.8164l.13281 1.21874m14.23047-1.11328l-6.71875-2.0625m6.71875 2.0625l.46484 2.40625m-1.4414-2.70703l.46484 2.41016m-1.44531-2.71094l.23437 1.20703m15.19141-1.53516l-7.02344-.20312m7.02344.20312l1.08984 2.19922m-2.11328-2.23047l1.08985 2.19922m-2.11328-2.22656l.54687 1.09766m14.75-1.82032l-6.89453 1.35938m6.89453-1.35938l1.54688 1.90235m-2.55079-1.70313l1.55078 1.90235m-2.55468-1.70704l.77344.95313m14.5-1.5625l-6.79688 1.78906m6.79688-1.78906l1.66406 1.80078m-2.65235-1.54297l1.66407 1.80078m-2.65625-1.53906l.83593.90235m14.38282-1.66797L273.82812 335m6.64454-2.27734l1.79297 1.67578m-2.75782-1.34375l1.79297 1.67578m12.2539-2.53906l-6.17968 3.34375m6.17969-3.34375l2.04687 1.35937m-2.94531-.8711l2.04297 1.35548m-2.9414-.8711l1.02343.67969m14.3086-1.16406l-6.6172 2.36328m6.6172-2.36328l1.8125 1.65625m-2.77735-1.3125l1.8164 1.65625m12.61329-.1875l-6.91406-1.25781m6.91406 1.2578l.74219 2.33594m-1.75-2.51953l.37109 1.16797m13.90234-2.46484l-6.8164 1.70312m6.8164-1.70312l1.64063 1.82031m-2.63281-1.57422l.8203.91406m13.46095-1.25l-6.76954 1.88282m6.76954-1.88281l1.6914 1.77734m11.66406-1.61719l-6.84765 1.5625m6.84765-1.5625l1.60547 1.85547m11.77344-1.5039l-6.97656.85546m6.97656-.85547l1.40625 2.01172m-2.42187-1.88672l.70312 1.00782m13.32422-2.1836l-6.3711 2.96094m6.3711-2.96094l1.96094 1.47656m-2.88672-1.04687l1.95703 1.48047m12.52344-1.22656l-6.84766 1.59375m6.84766-1.59375l1.61328 1.84765m-2.60938-1.61719l.80469.92579m13.40625-1.5l-6.64844 2.28125m6.64844-2.28125l1.79297 1.67578m-2.76172-1.34375l1.79297 1.67578m12.51562-1.92969l-6.6953 2.125m6.6953-2.125l1.75391 1.71485m-2.72656-1.40625l1.7539 1.71484m-2.73046-1.40625l.8789.85937m14.33203-1.6328l-6.58984 2.4375m6.58984-2.4375l1.83203 1.6328M439.26953 333l1.83203 1.63281m-2.79297-1.27734l.91797.8164m14.45313-1.05859l-6.86719 1.5m6.86719-1.5l1.58594 1.86719m-2.58594-1.64844l1.58984 1.86719m-2.58984-1.64844l.79687.9336m14.42578-1.70313l-6.68359 2.16406"/><g clip-path="url(#at)"><path fill="none" stroke="#000" stroke-linecap="round" stroke-linejoin="round" stroke-miterlimit="10" stroke-width=".5" d="M466.90234 332.78125l1.76563 1.70313"/></g><path fill="none" stroke="#000" stroke-linecap="round" stroke-linejoin="round" stroke-miterlimit="10" stroke-width=".5" d="M465.92969 333.09375l1.76562 1.70703m-2.73828-1.39062l.88281.85156"/><g clip-path="url(#au)"><path fill="none" stroke="#000" stroke-linecap="round" stroke-linejoin="round" stroke-miterlimit="10" stroke-width=".5" d="M144.60938 324.00781l-1.21875-6.92187"/></g><g clip-path="url(#av)"><path fill="none" stroke="#000" stroke-linecap="round" stroke-linejoin="round" stroke-miterlimit="10" stroke-width=".5" d="M144.60938 324.00781l-1.9336 1.51172"/></g><g clip-path="url(#aw)"><path fill="none" stroke="#000" stroke-linecap="round" stroke-linejoin="round" stroke-miterlimit="10" stroke-width=".5" d="M144.4336 323l-.96876.75781"/></g><path fill="none" stroke="#000" stroke-linecap="round" stroke-linejoin="round" stroke-miterlimit="10" stroke-width=".5" d="M157.73828 324.03516l-.84766-6.97657m.84766 6.97657l-2.01172 1.40625m1.89063-2.42188l-1.00781.70313m14.39453.3203l-.75-6.98827m.75 6.98828l-2.03125 1.375m1.92187-2.39453l-2.03125 1.3789M184.60547 324l-1.32031-6.90234M184.60546 324l-1.91015 1.53906m1.71875-2.54297l-.95703.76954m16.01563-.48829l-4.42188-5.46093m4.42188 5.46093l-.96094 2.26172m.3164-3.05469l-.48046 1.12891m15.44922-1.66406l-6.44141-2.80469m6.4414 2.80469l.19141 2.44922m-1.1289-2.85547l.1914 2.44531m14.35156-3.30469l-7.02343-.27343m7.02343.27343l1.06641 2.21094m-2.08984-2.25l1.0664 2.21094m13.27344-2.38281l-7.02734.14843m7.02734-.14843l1.19531 2.14453m-2.21875-2.1211l1.19922 2.14063m-2.21875-2.1211l.59766 1.07422m14.63672-1.96875l-6.77735 1.85547m6.77735-1.85547l1.68359 1.78516m-2.67188-1.51563l1.6836 1.78516m12.51172-2.3789l-6.5625 2.5039m6.5625-2.5039l1.85156 1.61328m-2.80469-1.25l1.84766 1.61328m12.42187-1.97656l-6.5664 2.5039m6.5664-2.5039l1.84766 1.61328m-2.80469-1.25l1.85156 1.61328m12.33985-2.17578l-6.40235 2.89843m6.40235-2.89843l1.9414 1.5m-2.875-1.07813l1.94532 1.5m12.42578-1.60937l-6.64844 2.27734m6.64844-2.27734l1.79297 1.67578m-2.76172-1.34375l1.79297 1.67578m12.67578-.99219l-7.01953.2461m7.01953-.2461l1.23047 2.1211m-2.25-2.08594l1.22656 2.125m-2.25-2.08985l.61328 1.0625m14.72266-1.4414l-6.97656.85937m6.97656-.85937l1.40625 2.01172m-2.42188-1.88672l1.41016 2.01172m12.89844-2.28125l-6.9336 1.14843m6.9336-1.14843l1.49218 1.94921m-2.5-1.78125l1.4922 1.94922m12.8125-2.21875l-6.89454 1.35547m6.89453-1.35547l1.54688 1.90235m11.6914-2.21875l-6.74219 1.98437m6.7422-1.98437l1.71874 1.7539m11.10156-2.78125l-5.75 4.03907m5.75-4.03907l2.1875 1.11329m-3.02343-.52344l1.09375.55469m13.23437-.86329l-6.10547 3.48047m6.10547-3.48047l2.07422 1.3125m11.69922.58985l-7.01953-.32422m5.9961.27734l.52734 1.10938m10.84765-4.69531l-1.09765 6.9414m.9375-5.9336l1.16015-.39843m13.1875-.35547l-2.83984 6.42969m2.83984-6.42969l2.44531-.17578m12.58204 1.80078l-6.26563 3.17969m6.26563-3.17969l2.0078 1.41016m-2.91796-.94531l1.0039.70312m12.98438-1.5664l-5.79297 3.98046"/><g clip-path="url(#ax)"><path fill="none" stroke="#000" stroke-linecap="round" stroke-linejoin="round" stroke-miterlimit="10" stroke-width=".5" d="M466.45703 318.5586l2.17578 1.1328"/></g><g clip-path="url(#ay)"><path fill="none" stroke="#000" stroke-linecap="round" stroke-linejoin="round" stroke-miterlimit="10" stroke-width=".5" d="M465.61328 319.13672l2.17969 1.13281"/></g><path fill="none" stroke="#000" stroke-linecap="round" stroke-linejoin="round" stroke-miterlimit="10" stroke-width=".5" d="M464.77344 319.71484l1.08594.56641"/><path fill="#00f" fill-rule="evenodd" d="M303.91016 476.52344h8.61718V466.3789h-8.61718v10.14453"/><path fill="azure" fill-rule="evenodd" d="M305.74219 468.21094h.83203v2.82422h3.28906v-2.82422h.83203v6.48047h-.83203v-2.91407h-3.28906v2.91407h-.83203v-6.48047"/><path fill="#ff3030" fill-rule="evenodd" d="M255.78125 463.21094h7.69531V453.0625h-7.69531v10.14844"/><path fill="azure" fill-rule="evenodd" d="M257.61719 454.89844h.83203v5.73828h3.1914v.74219h-4.02343v-6.48047"/><path fill="#ff3030" fill-rule="evenodd" d="M335.67188 463.21094h7.6953V453.0625h-7.6953v10.14844"/><path fill="azure" fill-rule="evenodd" d="M337.5039 454.89844h.83594v5.73828h3.19141v.74219h-4.02734v-6.48047"/><path fill="#ff3030" fill-rule="evenodd" d="M175.89063 449.89453h7.6953V439.75h-7.6953v10.14453"/><path fill="azure" fill-rule="evenodd" d="M177.72656 441.58203h.83203v5.73828H181.75v.74219h-4.02344v-6.48047"/><path fill="#ffffe0" fill-rule="evenodd" d="M275.16797 441.67188h22.17969v-10.19141h-22.1797v10.1914"/><path fill-rule="evenodd" d="M278.66797 433.3125h.50781v6.29688h-.78515v-4.4922H277v-.55468l.5625-.0664.25-.05079.23047-.08984.20312-.14453.17579-.20703.14062-.29688.10547-.39453m4.8125 0l.23047.01953.21875.05469.20703.08984.19922.1211.1836.14843.17187.17579.30078.42187.24219.49219.17968.54687.11328.57813.03907.59375-.03907.58984-.11328.58594-.17969.55469-.24218.5-.30078.42968-.17188.1797-.1836.15233-.19921.125-.20703.08985-.21875.0586-.23047.01952-.22656-.01953-.21875-.0586-.21094-.08983-.19531-.125-.1836-.15235-.17187-.17969-.30078-.42968-.2461-.5-.17969-.5547-.10937-.58593-.03906-.58984h.83203l.03125.5625.08203.5039.125.44532.16406.37109.1875.30078.21094.22266.22266.13672.22656.04687.22656-.04687.22266-.13672.21094-.22266.1914-.30078.16406-.3711.125-.4453.08204-.50391.02734-.5625-.02735-.5625-.08203-.5-.125-.4375-.16406-.36328-.1914-.29297-.21094-.21485-.22266-.1328-.22656-.04298-.22656.04297-.22266.13281-.21094.21485-.1875.29297-.16406.36328-.125.4375-.08203.5-.03125.5625h-.83203l.03906-.59375.10938-.57813.17968-.54687.2461-.49219.30078-.42188.17187-.17578.1836-.14843.1953-.1211.21095-.08984.21875-.05469.22656-.01953m5.09375 0h.50781v6.29688h-.78515v-4.4922h-1.39063v-.55468l.5586-.0664.2539-.05079.23047-.08984.20312-.14453.17188-.20703.14453-.29688.10547-.39453m2.82422 2.17578h.78515l.01954-.3164.05859-.28516.10156-.2539.13672-.21485.1836-.17578.22265-.1289.26563-.07813.30859-.02735.23828.01953.22266.0625.20312.10157.17969.14062.14844.17188.11328.20703.07031.23437.02734.26563-.02343.26953-.06641.22265-.10938.19141-.15625.17188-.19921.16406-.2461.16406-.63672.39063-.53515.3125-.4375.3164-.34766.32422-.26172.33594-.1914.35156-.125.3711-.07032.39062-.01953.42188h4.21094v-.7422h-3.33203l.08203-.28515.11328-.23437.14844-.20313.1875-.17969.23047-.17187.28125-.17578.71484-.41797.41797-.20313.34375-.23046.28125-.25391.21875-.26563.16406-.27734.11328-.28516.0625-.28515.01954-.28125-.04297-.38281-.1172-.34766-.1914-.3086-.25-.26171-.30078-.21485-.34765-.15625-.37891-.09765-.40625-.03516-.4375.03125-.39844.10156-.35156.16406-.30469.23438-.25.30469-.1836.375-.11718.44531-.03906.51953"/><path fill="#ffffe0" fill-rule="evenodd" d="M150.89453 396.85938h22.17969v-10.19141h-22.17969v10.1914"/><path fill-rule="evenodd" d="M154.39453 388.5h.50781v6.29688h-.78515v-4.4922h-1.39063V389.75l.5625-.0664.25-.05079.23047-.08984.20313-.14453.17578-.20703.14062-.29688.10547-.39453m4.8125 0l.23047.01953.21875.05469.20703.08984.19531.1211.1875.14843.16797.17579.30469.42187.24219.49219.17969.54687.11328.57813.03515.59375-.03515.58984-.11328.58594-.1797.55469-.24218.5-.30469.42968-.16797.1797-.1875.15233-.1953.125-.20704.08985-.21875.0586-.23047.01952-.23047-.01953-.21875-.0586-.20703-.08983-.19531-.125-.1836-.15235-.17187-.17969-.30078-.42968-.2461-.5-.17968-.5547-.10938-.58593-.03906-.58984h.83203l.03125.5625.08203.5039.125.44532.16016.37109.1914.30078.21094.22266.22266.13672.22656.04687.22656-.04687.22266-.13672.21094-.22266.1914-.30078.16016-.3711.1289-.4453.08204-.50391.02734-.5625-.02734-.5625-.08203-.5-.12891-.4375-.16016-.36328-.1914-.29297-.21094-.21485-.22266-.1328-.22656-.04298-.22656.04297-.22266.13281-.21094.21485-.1914.29297-.16016.36328-.125.4375-.08203.5-.03125.5625h-.83203l.03906-.59375.10938-.57813.17969-.54687.24609-.49219.30078-.42188.17188-.17578.18359-.14843.19531-.1211.20703-.08984.21875-.05469.23047-.01953m5.09375 0h.50781v6.29688h-.78906v-4.4922h-1.38672V389.75l.5586-.0664.2539-.05079.23047-.08984.20313-.14453.17187-.20703.14453-.29688.10547-.39453m2.82031 2.17578h.78907l.01953-.3164.0586-.28516.09765-.2539.14062-.21485.1836-.17578.22265-.1289.26563-.07813.3086-.02735.23437.01953.22656.0625.20312.10157.1797.14062.14843.17188.11328.20703.07031.23437.02735.26563-.02344.26953-.0664.22265-.10938.19141-.15625.17188-.19922.16406-.2461.16406-.63671.39063-.53516.3125-.4375.3164-.34766.32422-.26172.33594-.1914.35156-.125.3711-.07031.39062-.01953.42188h4.21093v-.7422h-3.33203l.08203-.28515.11328-.23437.14844-.20313.1875-.17969.23047-.17187.28125-.17578.71484-.41797.41797-.20313.34375-.23046.28125-.25391.21875-.26563.16406-.27734.10938-.28516.0664-.28515.01954-.28125-.04297-.38281-.1211-.34766-.1875-.3086-.25-.26171-.30078-.21485-.34765-.15625-.3789-.09765-.40626-.03516-.4375.03516-.39844.09765-.35547.16406-.30468.23438-.2461.30469-.1875.375-.11328.44531-.04297.51953"/><path fill="#ffffe0" fill-rule="evenodd" d="M346.1836 384.52344h22.17968v-10.1914H346.1836v10.1914"/><path fill-rule="evenodd" d="M349.6836 376.16406h.5078v6.29688h-.78906v-4.49219h-1.38671v-.55469l.55859-.0664.2539-.05079.23047-.08984.20313-.14453.17187-.20703.14063-.29688.10937-.39453m4.8125 0l.23047.01953.21875.0547.20703.08983.19532.1211.18359.14844.17188.17578.30078.42187.24609.49219.17969.54688.10937.57812.03906.59375-.03906.58984-.10937.58594-.17969.55469-.2461.5-.30077.42969-.17188.17968-.1836.15235-.1953.125-.20704.08984-.21875.0586-.23047.01953-.23046-.01954-.21875-.05859-.20704-.08984-.1953-.125-.1875-.15235-.16798-.17968-.30469-.4297-.24218-.5-.17969-.55468-.11328-.58594-.03516-.58984h.83203l.02735.5625.08203.5039.1289.44532.16016.3711.1914.30077.21094.22266.22266.13672.22656.04687.22657-.04687.22265-.13672.21094-.22266.1914-.30078.16016-.3711.125-.4453.08203-.50391.03125-.5625-.03125-.5625-.08203-.5-.125-.4375-.16015-.36328-.19141-.29297-.21094-.21484-.22265-.13282-.22657-.04296-.22656.04296-.22265.13282-.21094.21484-.1914.29297-.16017.36328-.1289.4375-.08203.5-.02735.5625h-.83203l.03516-.59375.11328-.57813.17969-.54687.24219-.49219.30468-.42187.16797-.17578.1875-.14844.19531-.1211.20704-.08984.21875-.05469.23046-.01953m5.08985 0h.51172v6.29688h-.78907v-4.49219h-1.38671v-.55469l.55859-.0664.2539-.05079.22657-.08984.20312-.14453.17578-.20703.14063-.29688.10547-.39453m6.80469 1.6211h-.78516l-.05469-.21485-.07812-.1836-.10938-.16015-.1289-.1289-.14844-.10547-.16016-.07422-.16797-.04297-.17187-.01563-.32813.03907-.28515.1211-.2461.1953-.20703.26954-.16015.33593-.11329.40625-.0703.46485-.02345.52734.1875-.20313.1875-.16015.1836-.1211.1875-.08984.1875-.0586.1914-.03515.40235-.02734.30469.03125.3203.09375.31641.15625.29688.21875.2539.28515.19922.34766.07422.20313.05078.21484.02735.23437.00781.25391-.78906.04688-.02735-.26172-.07812-.25-.1211-.23438-.16015-.21094-.19531-.17578-.21875-.13672-.23829-.08984-.2578-.03125-.25391.03125-.23829.08984-.22265.13672-.1914.17578-.16016.21094-.125.23438-.07422.25-.02735.26171.02735.25782.07422.25.125.23437.16015.21094.1914.17578.22267.14063.23828.08593.2539.03125.25781-.03125.23829-.08593.21875-.14063.1953-.17578.16017-.21094.12109-.23437.07812-.25.02735-.25781.78906-.04688-.03125.3711-.09375.37109-.15625.35937-.22266.32813-.28906.28125-.17187.1211-.1875.10155-.20704.08204-.22265.0625-.24219.03515-.26172.01563-.28125-.01563-.26172-.04687-.23437-.07813-.21875-.10547-.19531-.1289-.17188-.15625-.15625-.1797-.13281-.20312-.11719-.22265-.09765-.24219-.14844-.53516-.08594-.59375-.02734-.64062.03906-.74219.11328-.66406.1875-.57813.1211-.2539.13671-.23047.15235-.20703.17187-.1836.1875-.15625.19922-.1289.21875-.10156.23438-.07422.24609-.04297.26172-.01563.36719.03516.33203.09375.29296.15234.25782.19922.21094.24219.16796.27344.11329.30078.0625.32422"/><path fill="#ffffe0" fill-rule="evenodd" d="M204.15625 350.60156h22.17969v-10.19531h-22.17969v10.19531"/><path fill-rule="evenodd" d="M207.65234 342.24219h.51172v6.29297h-.78906v-4.48829h-1.38672v-.55468l.5586-.0664.2539-.0547.23047-.08984.20313-.14063.17187-.21093.14063-.29297.10546-.39453m4.81641 0l.23047.01953.21875.05469.20703.08984.19531.1211.1836.14843.17187.17578.30078.41797.2461.4961.17968.54687.10938.57813.03906.58984-.03906.59375-.10938.58594-.17968.55078-.2461.5039-.30078.42579-.17187.17968-.1836.15625-.19531.1211-.20703.09375-.21875.05468-.23047.01954-.23047-.01954-.21875-.05468-.20703-.09375-.19531-.1211-.1875-.15625-.16797-.17969-.30469-.42578-.24219-.5039-.17968-.55078-.11328-.58594-.03516-.59375h.83203l.02734.5625.08203.50781.125.4414.16407.375.1914.30079.21094.22265.22266.13672.22656.04688.22656-.04688.22266-.13671.21094-.22266.1914-.30078.16016-.375.125-.4414.08203-.50782.03125-.5625-.03125-.5625-.08203-.5-.125-.4336-.16016-.36718-.1914-.29297-.21094-.21094-.22266-.13281-.22656-.04688-.22656.04688-.22266.13281-.21094.21094-.1914.29297-.16406.36719-.125.43359-.08204.5-.02734.5625h-.83203l.03516-.58985.11328-.57812.17968-.54688.2422-.49609.30468-.41797.16797-.17578.1875-.14844.19531-.12109.20703-.08984.21875-.0547.23047-.01952m5.08984 0h.51172v6.29297h-.78906v-4.48829h-1.38672v-.55468l.5586-.0664.2539-.0547.22656-.08984.20313-.14063.17578-.21093.14063-.29297.10546-.39453m6.8047 1.61719h-.78517l-.05468-.21094-.07813-.1875-.10937-.15625-.1289-.13281-.14845-.10157-.16015-.07422-.16797-.04687-.17188-.01563-.32812.04297-.28516.1211-.2461.1953-.20702.26563-.16016.33985-.11328.40234-.07031.46875-.02344.52735.1875-.20313.1875-.16016.1836-.12109.1875-.08984.1875-.0586.1914-.03906.40234-.02344.3047.03125.3203.08985.31641.15625.29688.21875.2539.28515.19922.35156.07422.19922.05078.21875.02734.23438.00782.25-.78907.04687-.02734-.2578-.07813-.25-.12109-.23438-.16016-.21094-.1953-.17969-.21876-.13672-.23828-.08594-.25781-.03125-.2539.03125-.23829.08594-.22266.13672-.1914.17969-.16016.21094-.125.23437-.07422.25-.02734.25781.02734.26172.07422.25.125.23438.16016.21094.1914.17578.22266.13671.23828.08985.2539.03125.25782-.03125.23828-.08985.21875-.13671.19531-.17579.16016-.21093.1211-.23438.07812-.25.02734-.26172.78907-.04687-.03125.3711-.09375.375-.15625.35546-.22266.32813-.28906.28515-.17188.11719-.1875.10156-.20703.08203-.22266.0625-.24218.03907-.26172.01171-.28125-.01562-.26172-.04688-.23828-.07421-.21484-.10547-.19532-.13281-.17187-.15625-.15625-.1797-.13281-.20312-.1172-.22265-.09765-.23829-.14844-.53515-.08593-.59375-.02735-.64063.03906-.74609.11329-.66016.1875-.57812.12109-.25781.13672-.23047.15234-.20703.17188-.1797.1836-.15624.20312-.1289.21875-.10157.23437-.07422.2461-.04297.26171-.01562.3672.03125.33202.09765.29297.15235.25781.19922.21094.23828.16406.27734.1172.30078.0625.32031"/><path fill="#ffffe0" fill-rule="evenodd" d="M355.0586 332.4375h22.1328v-10.19531h-22.1328v10.19531"/><path fill-rule="evenodd" d="M358.5586 324.07813h.5078v6.29296h-.78515v-4.48828h-1.39063v-.55469l.5625-.0664.25-.05469.23047-.08984.20313-.14063.17578-.21094.14063-.29296.10546-.39454m4.8125 0l.23047.01563.21875.0586.20703.08984.19922.1211.1836.14843.17187.17578.30078.41797.24219.4961.17969.54296.11328.58203.03515.58985-.03515.59375-.11328.58203-.17969.55469-.24219.5039-.30078.42578-.17187.17969-.1836.15625-.19922.1211-.20703.09374-.21875.0547-.23047.01952-.22656-.01953-.21875-.05469-.21094-.09375-.1953-.12109-.1836-.15625-.17188-.17969-.30078-.42578-.2461-.5039-.17968-.5547-.10938-.58202-.03906-.59375h.83203l.03125.5625.08204.5078.125.44142.16406.375.1875.30078.21094.22265.22265.13672.22656.04688.22657-.04688.22265-.13672.21094-.22265.1914-.30079.16407-.375.125-.4414.08203-.50781.02734-.5625-.02734-.5625-.08203-.5-.125-.4336-.16406-.36719-.19141-.29296-.21094-.21485-.22265-.1289-.22657-.04688-.22656.04688-.22265.1289-.21094.21485-.1875.29296-.16406.3672-.125.43359-.08204.5-.03125.5625h-.83203l.03906-.58985.10938-.58203.17969-.54297.2461-.4961.30077-.41796.17188-.17578.1836-.14844.1953-.1211.21094-.08984.21875-.05859.22656-.01563m2.96485 2.17188h.78515l.01954-.3125.05859-.28906.10156-.25.14063-.21875.17968-.17188.22266-.1289.26563-.08204.30859-.02734.23828.02344.22266.0625.20312.10156.17969.13672.14844.17578.11328.20313.07031.23828.02734.26172-.02343.26953-.0625.22656-.11329.1914-.15234.17188-.20312.16016-.2461.16797-.63281.38671-.53906.3125-.4375.32032-.34766.32422-.26172.33593-.1914.34766-.125.3711-.07032.39452-.01953.41797h4.21094v-.74218h-3.33203l.08203-.28125.11719-.23829.14844-.19921.18359-.1836.23437-.16797.27735-.17578.71484-.41797.41797-.20703.34375-.23047.28125-.25.21875-.26562.16406-.28125.11328-.28125.0625-.28516.01954-.28125-.04297-.38281-.1172-.34766-.1914-.30859-.25-.26563-.30078-.21093-.34765-.16016-.37891-.09765-.40625-.03125-.4375.03125-.39453.09765-.35547.16797-.30469.23438-.25.30468-.1836.375-.11718.44531-.03906.51563m6.9414-2.17188l.23047.01563.21875.0586.20703.08984.19532.1211.18359.14843.17188.17578.30468.41797.24219.4961.17969.54296.10937.58203.03906.58985-.03906.59375-.10937.58203-.17969.55469-.24219.5039-.30469.42578-.17187.17969-.1836.15625-.1953.1211-.20704.09374-.21875.0547-.23047.01952-.23046-.01953-.21875-.05469-.20704-.09375-.1953-.12109-.1836-.15625-.17188-.17969-.30469-.42578-.24218-.5039-.17969-.5547-.10938-.58202-.03906-.59375h.83203l.02735.5625.08203.5078.1289.44142.16016.375.1914.30078.21094.22265.22266.13672.22656.04688.22657-.04688.22265-.13672.21094-.22265.1914-.30079.16016-.375.1289-.4414.07813-.50781.03125-.5625-.03125-.5625-.07812-.5-.1289-.4336-.16016-.36719-.19141-.29296-.21094-.21485-.22265-.1289-.22657-.04688-.22656.04688-.22265.1289-.21094.21485-.1914.29296-.16017.3672-.1289.43359-.08203.5-.02735.5625h-.83203l.03906-.58985.10938-.58203.17969-.54297.24219-.4961.30468-.41796.17188-.17578.1836-.14844.1953-.1211.20704-.08984.21875-.05859.23046-.01563"/></g></defs><use xlink:href="#az"/></svg>