<svg xmlns="http://www.w3.org/2000/svg" role="img" xmlns:xlink="http://www.w3.org/1999/xlink" viewBox="142.45 309.95 326.84 171.84"><defs><clipPath id="a"><path d="M144 311.67188h1v168.65625h-1zm0 0"/></clipPath><clipPath id="b"><path d="M144 311.67188h324v168.65625H144zm0 0"/></clipPath><clipPath id="c"><path d="M467 311.67188h1v168.65625h-1zm0 0"/></clipPath><clipPath id="d"><path d="M144 479h4v1.32813h-4zm0 0"/></clipPath><clipPath id="e"><path d="M147 479h3v1.32813h-3zm0 0"/></clipPath><clipPath id="f"><path d="M146 479h3v1.32813h-3zm0 0"/></clipPath><clipPath id="g"><path d="M153 479h8v1.32813h-8zm0 0"/></clipPath><clipPath id="h"><path d="M160 479h3v1.32813h-3zm0 0"/></clipPath><clipPath id="i"><path d="M159 479h3v1.32813h-3zm0 0"/></clipPath><clipPath id="j"><path d="M167 478h8v2.32813h-8zm0 0"/></clipPath><clipPath id="k"><path d="M173 478h4v2.32813h-4zm0 0"/></clipPath><clipPath id="l"><path d="M172 479h4v1.32813h-4zm0 0"/></clipPath><clipPath id="m"><path d="M180 478h8v2.32813h-8zm0 0"/></clipPath><clipPath id="n"><path d="M186 478h4v2.32813h-4zm0 0"/></clipPath><clipPath id="o"><path d="M185 479h3v1.32813h-3zm0 0"/></clipPath><clipPath id="p"><path d="M193 478h8v2.32813h-8zm0 0"/></clipPath><clipPath id="q"><path d="M200 478h3v2.32813h-3zm0 0"/></clipPath><clipPath id="r"><path d="M199 478h2v2.32813h-2zm0 0"/></clipPath><clipPath id="s"><path d="M207 478h8v2.32813h-8zm0 0"/></clipPath><clipPath id="t"><path d="M213 478h3v2.32813h-3zm0 0"/></clipPath><clipPath id="u"><path d="M212 479h3v1.32813h-3zm0 0"/></clipPath><clipPath id="v"><path d="M220 478h8v2.32813h-8zm0 0"/></clipPath><clipPath id="w"><path d="M226 478h4v2.32813h-4zm0 0"/></clipPath><clipPath id="x"><path d="M225 479h3v1.32813h-3zm0 0"/></clipPath><clipPath id="y"><path d="M233 478h8v2.32813h-8zm0 0"/></clipPath><clipPath id="z"><path d="M247 478h7v2.32813h-7zm0 0"/></clipPath><clipPath id="A"><path d="M260 478h8v2.32813h-8zm0 0"/></clipPath><clipPath id="B"><path d="M266 478h4v2.32813h-4zm0 0"/></clipPath><clipPath id="C"><path d="M274 477h6v3.32813h-6zm0 0"/></clipPath><clipPath id="D"><path d="M288 477h5v3.32813h-5zm0 0"/></clipPath><clipPath id="E"><path d="M301 477h6v3.32813h-6zm0 0"/></clipPath><clipPath id="F"><path d="M314 477h6v3.32813h-6zm0 0"/></clipPath><clipPath id="G"><path d="M327 477h6v3.32813h-6zm0 0"/></clipPath><clipPath id="H"><path d="M340 477h7v3.32813h-7zm0 0"/></clipPath><clipPath id="I"><path d="M354 477h7v3.32813h-7zm0 0"/></clipPath><clipPath id="J"><path d="M367 478h7v2.32813h-7zm0 0"/></clipPath><clipPath id="K"><path d="M380 478h8v2.32813h-8zm0 0"/></clipPath><clipPath id="L"><path d="M385 479h3v1.32813h-3zm0 0"/></clipPath><clipPath id="M"><path d="M395 479h4v1.32813h-4zm0 0"/></clipPath><clipPath id="N"><path d="M406 478h8v2.32813h-8zm0 0"/></clipPath><clipPath id="O"><path d="M420 478h7v2.32813h-7zm0 0"/></clipPath><clipPath id="P"><path d="M425 478h3v2.32813h-3zm0 0"/></clipPath><clipPath id="Q"><path d="M433 478h8v2.32813h-8zm0 0"/></clipPath><clipPath id="R"><path d="M439 478h4v2.32813h-4zm0 0"/></clipPath><clipPath id="S"><path d="M446 478h8v2.32813h-8zm0 0"/></clipPath><clipPath id="T"><path d="M452 478h2v2.32813h-2zm0 0"/></clipPath><clipPath id="U"><path d="M460 478h8v2.32813h-8zm0 0"/></clipPath><clipPath id="V"><path d="M466 478h2v2.32813h-2zm0 0"/></clipPath><clipPath id="W"><path d="M144 465h4v4h-4zm0 0"/></clipPath><clipPath id="X"><path d="M466 466h2v3h-2zm0 0"/></clipPath><clipPath id="Y"><path d="M144 452h4v4h-4zm0 0"/></clipPath><clipPath id="Z"><path d="M466 451h2v3h-2zm0 0"/></clipPath><clipPath id="aa"><path d="M144 439h4v3h-4zm0 0"/></clipPath><clipPath id="ab"><path d="M144 426h4v2h-4zm0 0"/></clipPath><clipPath id="ac"><path d="M465 423h3v2h-3zm0 0"/></clipPath><clipPath id="ad"><path d="M144 413h4v2h-4zm0 0"/></clipPath><clipPath id="ae"><path d="M466 412h2v3h-2zm0 0"/></clipPath><clipPath id="af"><path d="M144 399h4v3h-4zm0 0"/></clipPath><clipPath id="ag"><path d="M466 399h2v3h-2zm0 0"/></clipPath><clipPath id="ah"><path d="M144 385h4v4h-4zm0 0"/></clipPath><clipPath id="ai"><path d="M466 387h2v3h-2zm0 0"/></clipPath><clipPath id="aj"><path d="M144 371h3v6h-3zm0 0"/></clipPath><clipPath id="ak"><path d="M466 373h2v4h-2zm0 0"/></clipPath><clipPath id="al"><path d="M144 357h3v7h-3zm0 0"/></clipPath><clipPath id="am"><path d="M144 362h2v3h-2zm0 0"/></clipPath><clipPath id="an"><path d="M144 343h1v8h-1zm0 0"/></clipPath><clipPath id="ao"><path d="M144 350h1v3h-1zm0 0"/></clipPath><clipPath id="ap"><path d="M144 349h1v3h-1zm0 0"/></clipPath><clipPath id="aq"><path d="M466 346h2v3h-2zm0 0"/></clipPath><clipPath id="ar"><path d="M144 330h1v8h-1zm0 0"/></clipPath><clipPath id="as"><path d="M144 336h1v2h-1zm0 0"/></clipPath><clipPath id="at"><path d="M466 332h2v3h-2zm0 0"/></clipPath><clipPath id="au"><path d="M144 316h1v9h-1zm0 0"/></clipPath><clipPath id="av"><path d="M144 323h1v3h-1zm0 0"/></clipPath><clipPath id="aw"><path d="M144 322h1v2h-1zm0 0"/></clipPath><clipPath id="ax"><path d="M466 318h2v2h-2zm0 0"/></clipPath><clipPath id="ay"><path d="M465 318h3v3h-3zm0 0"/></clipPath><g id="az" clip-path="url(#clip1)"><path fill="#fff" fill-opacity="0" fill-rule="evenodd" d="M0 0h1000v1000H0zm0 0"/><path fill="#d3d3d3" fill-opacity="0" fill-rule="evenodd" d="M162.15234 355.86719l-.23437.29297.0586.23437.11718.17188.17578.23437.29297.34766.11328.0586.11719-.17188.0586-.23438.17577-.17578.46485-.17578h.69922l.23437.29297.28906.8164.0586.17579.17578.23046.35156.23438.69922.69922.17188.17578.23437.34765.23438.41016.28906.58203.41015.46485.23047.23437.23438.17578.11719.23047.17578.29297.17187 1.16406v.23438l.0586.28906.05859.11719.11719.11719.34765.41015.11719.17188.17578.17578.17578.23437.11719.17188.17188.35156.05859.23438.23437.40625.23438-.0586-.17578.17578-.0586.92969h-.58203l-.23437-.11328-.34766.11328-.11719.11719-.05859.29297-.0586.17578-.11718.17187-.46484.29297-.0586.23438-.0586.11328v.64453l.0586.17187v.41016l.0586.0586v.40624l.05859.40625.11719.17579.05859.05859.23047.64062-.0586.29297v.69922l-.05859.58203v.23438l-.0586.23047-.05468.35156v1.92187l.05469.1172h.42578l-.36719.11718-.02344.35156.89063 1.16797 1.74219.53906 1.33984.35938v.53906l.08984.8086.53516.71484 1.51953.26953.89063-.08594.08984 1.16406.53516.1797 1.16015-.1797 2.05469-.98437 1.16016-.36328 1.8789-.17578 1.69531-.1797-.17968.71876-1.51563.08594-1.25.08984-.80469.26953-1.07421.8086.26953.71875.53515.89843-.17968.625-.26563.8086.26563 1.07812.625.89844.80468.17969 1.25-.1797-.26562.72267.09766.5039.05468.29297v.17188l.0586.29296v.40625l.17578.1172.35156.11718h.40625l.29297-.17578.11328-.11719.0586-.11719.11718-.23047.0586-.17578.35156-.46484.23047-.17578.17578-.0586.17578.0586.0586.17578.11718.98828.05469.46875.0586.17188.11718.23437.17578.0586.8164.05859h.28907l.11719.23437.05859.40625.0586.35156v1.10547l.11718.29297.11719.34766.28906.69922.17578.35156.58203.7539.35157.17579.17187.0586.46875.23437.64063.46484.34765.23438.29297.17578.29297.05468.23047.0625.8164.34766.29297.17578.11328.17188.35157.35156.11719.17578.52343.64063v.28906l.0586.35156v.34766l.05859.35156.0586.28906.11718.0586.17188.05859h.17578l.58203.23437.17578.1172.17578.28905.17578.23438.11328.23437.29297.23047.11719.11719v.41016l.0586.05468.28906.23438.23437.11719.0586.11718.11718.17188.0586.11719.23047.23437.05859.17578.23437.0586.1172.05859-.1172.11328-.05859.11719v.11719l-.11719.29296-.11719.28907v.58203l.17579.11719.11718.05859.0586.11719.11719.11719.11328.05859.17578.34765.0586.35157.05858.40625v.17578l-.05859.17578-.11719.69922v.17187l.1172.17579.29296.29296h.40625l.17578.1172.11719.17187.11719.29296v.23438h-.52735l-.23047-.23438h-.23437l-.17578.0586-.0586.69922.0586.34765.11719.17579.17578.41015.11718.23047.28907.46875.17578.05469h.52344l.23437.0586.75781.64062.0586.29296v.23438l.05859.0586.23047.34765v.35156l-.11719.17188v.29297l.29297.28906.29297.17578.17187.0586.29297.17577.29297.1172.58203.40624.28906.23438.29297.17578.21875.16015.01563.01172.23047.17579.64062.52343.17578.23438.1172.17578.17577.17578.11328.17188v.64062l.1172.17578.46874.11719.58203.11719.23438.05859.23047.11328.29297.11719.11328.0586.58593.35156.28907.17187.17578.0625.17578.05469.17578.0586.69922.35155.28906.17579.23438.05468.28906.17578.23437.1172.64063.40624.29297.11719.17187.0586.23438.05859.41015.05859.23047.0586.23438.11718.0586.17188-.41017.17578.46875.0586.0586.29296.11328.23438.17578.05468.23438.0586.17578.05859.40625.11719.64062.23437.11719.17188.0586.23437v.17578l-.0586.1172-.0586.40624.23438.23438.11719.05859.34766.11719.64062.23047.17578.11718.28906.1172.17578.17577.23438.46485.58203 1.10546.17578.17579.34766.17578.17578.11719.35156.11718 1.04688.52344.23437.0586.46485.11327.29297.0586.46484.17578.75781.58203.23438.23438.34765.46484.17578.17578.28907.23438.8164.69921.29297.17579.28906.28906.29297.17578.29297.28906.69531.64063.17578.17578.29297.23437.28907.23438.46875.28906.64062.58203.34766.23438.23437.29297.34766.34765.35156.46485.9336.99218.34765.40625.11719.17579.23437.05859.11328.11719.64454.17578.23047.11328.23437.0586.29297.17577.23047.1172.9336.69921.40624.40625.23438.17578.40625.17578.23437.11719.8164.34766.34766.23437.23438.11719.29297.28906.23047.11719.7578.35156.35157.17188.23047.05859.29297.11719.23437.0586.8711.17577h.8164l.46875.23047.17188.0586.875.69921.46484.1172.29297.05858.17578.0586.23047.0586.46875.05859.34766.05859.35156.0586.40625.05859h.29297l.17187.0586v.23046l.17578.17578h.29297l.34766.0586.35156.05859.69922.11719h.64063l.46484-.23438.29297-.17578.17187-.11719.41016-.17187.28906-.17578.9336-.46485.46875-.29297.52343-.29296.46485-.17188.46484-.17578 1.05078-.46485.28906-.11718.41016-.11719.28906-.11719.52735-.17578 1.51562-.69922.58203-.34765.28907-.0586.29297-.0586.34765-.11718.875-.23047.35156-.11719h.11329l.23437-.05859.875-.23437.23438-.0586h.8125l.35156-.0586.8164-.11718.17188-.0586.35156-.05468.29297-.0586.23047-.05859.8164-.17578.17579-.0586h.34765l.23438-.05859.46484-.11718.75781-.17188.23438-.0586h.34765l.41016-.11718.28906-.0586 1.28516-.05859h.28906l.41016-.0586.23047-.05858h.17578l.875-.1172h.40625l.41015-.11718h.34766l.35156-.11328.8711-.0586h1.75l1.04687.28907.41016.11719.28906.11718.35156.11719.28907.11719 1.05078.17187.28906.0586h.29297l.29297.05859.17187.0586.41016.05859.17187.0586.1172.05858h.11718l.11719.0586.35156.0586h.11328l.41016.0664 1.92187.39453 1.92578.39453 1.51953.44922 1.69532.71875 2.14453.80469 1.60547-.71875 1.42968-.80469 1.16016-1.07813 1.25-.44921 3.03516-.71875 1.875-.35938 2.14453-1.34765 2.23437-1.25391 2.5-1.25781 1.69531-.44922 1.78516-.17969 1.16016-.26953.625.53906 1.33984-.26953.71485-.98828.98437-1.34375.44531-.17969.80469-.35937 1.875-.53907 1.78516-.44921 1.25-.26954 1.16015-.08984 1.69922-.08984 1.96094-.26954 1.25-.08984h.53906l.625-.08984h.89063l2.14453-.17969 2.41015-.17969 2.58985-.08984 1.69531.17969 1.60938.08984 1.42968.35938 1.16016.71875 1.875.98828 1.16015 1.52734.26563.71484.6289.08985.35548.89844.53515.53906.53516 1.52734 1.07422.35938h.53515l-.80469.53515.08985 1.70703.71484 2.69532.89063.80468.89453.98829.71484 1.2578 1.78516.53907 1.51953-.17969.35547 1.34375 1.60937-.80469.98047-.53906.26953.26953.31641-.21484.21875-.14453.80078.44922.44922-.35938h.35547l.53515-.26953.53907-.71875.53515-.26953.625-.98828 1.16016.44922.83984.3711 1.39454.61718 1.6953-.17969h1.60548l1.78515.08985.17969-1.70704.53516-1.34375.80468.26954.4922.84765.40233.40625-.08984.53906v.35938l.71485.44922.71093-.26953h1.42969l.35938.98828.4453 1.25781.71485 1.34375 1.25.6289 1.69531.62891.71485-.17969.17969-.53906.98046-.08984.44922.35937.08594 1.25782-.26563.6289-.53515.17969v.53906l.71484.98438.26563.53906.98437.98828.80078 1.07813-.26562.35937-.08985.89844-.625 2.33203-.35546 2.0664-.08985 1.79298-.17969.71875-.08984.53906v1.4375l-.98047 1.88281-.35937 1.70703-.53516.89844-.80469 1.16797-.26562.53906 2.05469 1.2539.08593.35938-.35546.53906-.08985-.17968v.80859l.08985 1.4375-.44532.71484-1.07422.09375-.26562.71485.53515.89844.8047.71875 1.16015.80859 1.33984.26953.44531.35938-.35546.44921-1.78907-.08984-1.25-.44922-.71484-.71875-.625-.08984-.17578 3.58984-.1875 1.3086h89.35937V311.70313h-55.26953v49.08203l.76172.125 3.28906.54296 2.02344 2.83594v2.7539l2.35156.33204 2.34766.33203h4.05078l-1.3789 4.16016-2.02344.70703-2.02344.70312-.54297.34375-2.59375 1.6172-.1875.11718-2.02344-2.07813-.73046-2.74218-2.67188-2.07813-1.375-3.5-.0664-.08203-1.95704-2.67188 2.75-1.41796v-49.08204H294.42187v91.41407l.1172.03125.1328.01172.07422.07421.10547.04688.08985.0586.08593.05859.08985.0586.29687.29687.0586.08984.03125.11719.02734.11719.01563.13671-.03125.1172-.0586.08983-.0586.08594-.04296.10547-.04688.10156-.02734.1211v.14453l.17578.26953.14844.14844.07422.08594.07422.07421.04296.10547.0625.08985.0586.08593.04297.10547.0586.08985.04687.10156.04296.10547.0586.08594.11719.17968.07421.07422.0625.08594.0586.08984.04297.10547.0586.08985.05858.08593.0625.08985.0586.08984.04297.10156.11719.17969.07421.07422.0586.08594.07422.07421.08984.0586.10547.04687h.14844l.1328-.01562.13282.01562.10156-.04687.07422-.07422.04688-.10156-.01563-.13281v-.14844l-.04687-.10547-.02735-.11719-.04687-.10156-.02735-.1211-.04296-.10156-.0625-.08984-.04297-.10156-.04297-.10547-.03125-.11719-.01563-.13281-.01171-.13672.08593-.0586.0586-.08593.12109-.03125.04297.10547.01562.1328v.1172l.0586.10156.0586.08984.08983.0586.14844.14843.0586.08985.04296.10547-.01171.10156.08593.0586.10547.04687.08594.0586.08984.05858.07422.07422-.11719.02735-.10546.04687-.08594.0586-.07422.07421-.0586.08985-.0625.08594-.02734.12109-.04687.10156-.04297.10547-.03125.11719-.01172.13281-.01563.13281v.14844l.02735.11719.04687.10547.04297.10156.0586.08984.07421.07422.08985.0586.07422.07421.08984.0586.0586.08984.04296.10547.04688.10156.11719.03125.1328.01563h.14845l.11718-.03125.10547.04297.04297.10547.04688.10156.02734.1211L299.5 410l.02734.11719.03125.1211.02735.11718.10547.04297.10156.04687.13281-.01562.14844.14844.0625.08593.07422.07422.07031.07422.08984.0625.10547.04297.10156.04297.1172.03125.13671.01562.11719-.03125.07422-.07422.02734-.11718-.01172-.13282-.03125-.12109-.02734-.11719.04297-.10547h.11719l.08984.0625.11719.02735h.14843l.13282.01562h.14843l.13282.01563.1328-.01563h.14845l.1328-.01562.13282-.01172.13672.01172.11719-.02735.13281-.01562.1914-.0586-.05859.17579-.01562.1328-.02735.1211-.01562.13281-.0586.08594-.1328.01563-.10548.04687-.10546.04297-.1172.03125-.11718.02735-.26563.03125h-.14843l-.13281.01562-.07422.07422.05859.08594.14844.14843.11719.1797.07421.0703.08985.0625.08984.0586.08594.0586.08984.05858.10156.04297.10547.0625.10547.04297.08594.0586.10547.04687.10156.04297.17969.11719.0586.08984-.04298.10156-.04687.10547.01562.13281.22266.22266.0586.08985.04296.10156.03125.1211.04297.10155.01563.13282.03125.11718.01171.13672.03125.11719.14844.14844.10156.04297.10547.04296.1172.03125.1328.01563.13672.01563h.11719l.11719-.03125.08984-.0586.04297-.10547.04688-.10156.04296-.10547.03125-.11719.01172-.1328v-.14845l-.01172-.1328-.01562-.13282-.03125-.11719-.04297-.10547-.04688-.10547-.04296-.10156-.04297-.10547-.01563-.13281.01563-.13281.02734-.11719.03125-.11719.02735-.1211.04687-.10155.08984-.0586.08594-.0625.07422-.07422.08984-.05859.22266-.22266.0586-.08593.07421-.07422.11719-.17969.0586-.08594v-.14844l-.07423-.07421-.10156-.04688-.10547-.04297-.10156-.04297-.0586-.08984-.04687-.10547-.02734-.11719.08984-.05859.11719-.03125.10156-.04297.17969-.11719.14844-.14843.01172-.13282-.01172-.10546-.08985-.0586-.1328.01563h-.14845l-.1328.01562-.13282-.01562-.1211-.03125-.08593-.0586-.07422-.07422-.0586-.08984-.0625-.08594-.11718-.17969-.0586-.08593.03125-.1211.08594-.05859.1211-.03125.05859-.08594v-.1211l-.03125-.11718-.0586-.08984-.05859-.08594-.04687-.10547-.02735-.11719-.01562-.1328.0586-.08985.07421-.07422.08984-.0586.1172-.17968.07421-.07422.0586-.08594.14843-.14844.1211-.03125.1328-.01562.13282.01562.07422.07422.04297.10547.01562.13281-.03125.1172-.11719.03124-.1328.01172-.14844.14844-.04297.10547-.04688.10156-.02734.1211-.03125.11718v.14844l.03125.11719.04297.10546.05859.08985.07422.07031.07422.07422.11719.03125.12109.02734.11719-.02734.1328-.01563h.1172l.08984.0586.07422.07422.04687.10546.0586.08594.10156.04688.13281.01562.10547.04297.08594.0586-.01172.10546-.07422.07422-.17969.11719-.05859.08984-.08984.0586-.07032.07422-.07421.07421-.0625.08985-.02735.11719-.01562.1328.01562.13282-.01562.13281v.14844l.01562.13281.02735.1172.03125.12108.07421.07422.08985.0586.08594.0586.08984.05858.11719.03125v.08594l-.10157.04688-.08984.0586-.26563.03124-.11718.02735h-.14844l-.10547.04296-.10156.04688-.0586.08984-.0625.23438-.01171.13281-.03125.1211-.01563.1328v.29298l-.01172.1328.01172.13673.01563.1328.1328.01563.13282.01172.1211.03125.08593.0586.07422.07421.04688.10547.04296.10157.01563.1328v.44532l-.01563.13281v.44532l.03125.26562.02735.11719.01562.13281.03125.11719.08594.21094.03125.26562v.14844l-.03125.11719-.02734.11718-.03125.1211-.02735.11719-.03125.11718-.03125.1211-.01171.1328-.01563.13282.08984.0586.1172-.03125.10155.01562.04688.10547-.03125.26562v.44141l-.04297.10547-.04688.10547-.04296.10156-.04297.10547-.0586.08594-.03125.12109-.04296.11719-.03125.11719-.01563.1328.01563.13282.05859.08984.10547.04688.08594.0586.05859.08593-.01172.13672-.03125.11719-.04297.10156v.44531l-.01562.13281v.14844l-.03125.11719-.04297.10547-.02735.11719-.04687.10546-.04297.10157-.03125.12109-.02734.11719-.03125.13281-.03125.11719-.02735.11719-.04297.10546-.03125.1172-.03125.12108-.01171.13282-.01563.13281v.29688l.02734.11718v.14844l.04688.39844.02734.11719.0586.08984.12109.03125h.14844l.13281-.01563.0586.08985v.11719l-.0586.08984-.08984.0586-.10157.04296-.10546.04688-.08985.05859-.08594.0586-.13671.01562-.1172-.03125-.1328-.01563-.10157.04688-.0625.08594-.01172.13671-.01562.13282-.03125.11719-.02735.11718-.01562.13281-.03125.1211v.29687l.01563.13282.03125.11718v.14844l.01171.13281v.14844l-.02734.11719-.04688.10156-.02734.1211-.03125.11718-.0586.08985-.07421.07421-.10156.04297-.10547.04688-.11719.02734-.1211.03125-.10156-.04687.0586-.08594.10547-.04688.02734-.11718.03125-.11719.02734-.1211.03125-.11718v-.14844l.01563-.13281-.03125-.11719-.04297-.10547-.10547.01563-.07422.07422-.10156.04296-.08984.0625-.07422.07422-.04297.10157-.01563.1328-.03125.1172L304.25 426l-.03125.11719-.02734.11719-.03125.12109-.02735.11719-.03125.11718-.04297.10547-.08984.0586h-.08984l-.1172-.03125-.03124-.08594.01562-.13672-.03125-.11719v-.14844l-.01171-.1328v-.14844l-.0625-.23438-.02735-.1211-.04297-.10156-.04687-.10546-.0586-.08594-.05859-.08985-.04297-.10546-.0625-.08594-.14844-.14844-.0703-.07422-.10548-.04687-.10547-.04297-.10156-.04297-.29687-.29688-.08985-.07421-.08594-.0586-.10546-.04297-.08985-.0625-.08594-.0586-.10546-.04296-.08985-.0586-.08594-.0625-.07421-.0703-.10547-.04688-.08594-.0586-.10547-.04296-.08984-.0625-.10156-.04297-.10547-.04297-.08594-.0586-.10547-.04687-.10547-.04297-.10156-.04687-.08985-.0586-.10156-.04297-.10547-.04296-.08984-.0625-.11719-.02735-.13281-.01562-.13281.01562H299.75l-.13281.01563-.11719-.03125-.08984-.0586-.07422-.07422-.08985-.05859-.10156-.04688h-.14844l-.12109-.02734-.10156-.04297-.07422-.07422-.11719-.17968-.08984-.0586-.10156-.04297-.08985-.0625-.10547-.04296-.08984-.0586-.08594-.0586-.10547-.04687-.0586-.08594-.05858-.08984-.04297-.10547-.04688-.10156-.07422-.07422-.08594-.0586-.07421-.07421-.08985-.0586-.22265-.22265-.04297-.10547-.03125-.26563.10547-.04296h.14453l.10547.04296.07421.07422.08985.0586.08594.0586.10546.04687.08985.05859.14844.14844.0703.07422.14845.14843.0625.08594.07421.07422.08594.0586.07422.07421.08985.0625.08984.0586.08594.05859.26953.17578.10156.04688.10547.04296.10156.04297.04688-.07421.05859-.08594.07422-.07422.07031-.07422.10547.04297.07422.07422.0586.08984.04296.10156.04688.10547.04296.10547.1211.02735.11719-.02735.07421-.08984.04297-.10547.0586-.08985.07422-.07421.10546-.04297.1172-.02735.1328.01172.08985.0586.14844.14843.05859.08985.04297.10547.04687.10156.04297.10547.04297.10156.10547.04688.10547.04296.13281.01563.08594-.0586.0586-.08984.07421-.07422.10547-.04297.11719.02735.10547.04687.10156.04297.10547.04297.10156.04688.17969.11718v.11719l-.01563.13281.01563.13281.01562.13672.0586.08594.10156.04688.1211.02734.11718.03125h.14844l.11719-.03125.05859-.08984.17969-.1172.05859-.08983.07422-.07422.0586-.08594.11718-.17969.17969-.11719.11719.03125.08984.0586.04297.07422-.01563.1328v.1172l.08985.05859h.14843l.13282-.01563.1328-.01171.26563-.03125.10547-.04297.11719-.03125.1211-.02735.07421-.07421.07031-.07422.0625-.08985-.01562-.10547-.04688-.10156-.10156-.04297-.10547-.01562-.11718.02734-.26563.03125h-.14844l-.07421-.07422-.08985-.0586-.11719-.03124-.11718-.02735-.13282-.01562h-.14843l-.13282.01563h-.29687l-.10547-.04688-.14844-.14844-.04297-.10156-.05859-.08984.22266-.22266.08593-.0586.10547-.04296.11719-.03125.13281-.01563.13281.01563.13672.01562.10157.04297.1328-.01172.08985-.0625.10156-.04297.0625-.08984-.04687-.10156-.08984-.0586-.1172-.03125-.10155-.04296-.0586-.08985-.0625-.08984v-.11719l.01563-.13281.10547-.04688.07421-.07031v-.1211l-.08984-.05859-.03125-.11719.08985-.05859.07421-.07422.04297-.10547.0586-.08984.04687-.10156.01563-.13281v-.14844l-.04688-.10547-.04297-.10156-.08984-.0586-.13281-.01562-.10157-.04297-.13671-.01563-.1172-.03125h-.4453l-.13282-.01562-.13281-.01172-.13281-.01563-.11719-.03125h-.14844l-.13281-.01562-.13281-.01172-.26563-.03125-.1211-.04297-.08593-.0586-.07422-.07421v-.14844l.01172-.13281.10547-.04688.10156-.04296.13281-.01563h.15235l.13281-.01562h.29297l.1211.03125.10156.04296.08984.0586.23438.0625.12109-.04688.08984-.05859.10156-.04297.13282-.01562.10547.04296.10156.04688.13281.01172.1211-.02735h.14453l.12109-.03125.11719-.02734.10547-.04687.07421-.07422.08594-.0586.14844-.14843.0586-.08594.04687-.10547.02734-.11719.01563-.10547-.10156-.04296-.08985-.0586-.11719-.03125-.10546-.04297-.08985-.0625-.07422-.08594-.07422-.07421-.10156-.04297-.10547-.04688-.10156-.04297-.0586-.08984-.04687-.10156-.08594-.21094-.0625-.08594-.05859-.08984-.07422-.07422-.08594-.0586h-.26953l-.11719.03126-.08984.05859-.10156.04297-.13281.01562-.10547-.01562-.02735-.11719-.0625-.08984-.11718-.03125-.10157-.04297-.14843-.14844-.03125-.11719-.01563-.10546.07422-.07422.17969-.1172.11719-.02733.11718-.03125.13672.01562.10156.04297.10547.04297.10156.04687.10547.04297.1172.03125.1328.01563.1172.02734.1328.01563.10547-.01563.08985-.0586-.07422-.07421-.10547-.04297-.07422-.07422-.07422-.08984-.14844-.14844-.08593-.0586-.08985-.05859-.07422-.07422-.08984-.0586-.10156-.04687-.1211-.02734-.10156-.04688-.10547-.04296-.11719-.03125-.10156-.04297-.1211-.03125h-.14843l-.11719.03125-.10546.04297-.08594.0625-.17969.11718-.08594.0586-.08984.0586-.10547.04687-.08594.05859-.10547.04297-.10156.04297-.10547.04687-.07422.07422-.05859.08985-.0586.08593-.04687.10547-.0586.08594-.07421.07422-.13281-.01172-.1172-.03125h-.11718l-.07422.07422-.08984.0586-.07422.07421-.08984.0586-.08594.05859-.10547.04687-.10156.04297-.13672.01563-.10156-.04297-.14844-.14844-.10547-.04688h-.08594l-.10547.04688-.10156.04297-.1211.03125-.11718-.03125-.07422-.07422v-.11719l.03125-.1211.07422-.0703.0586-.08985.07421-.07422.11719-.03125.10547-.04296h.29297l.13281-.01563.13672-.01563.10156-.04296.08985-.0586.10156-.04687.08984-.0586.13281-.01171.08985.05859.13281.01172.08984-.0586.08594-.05859.10547-.04297.08984-.0586.08594-.0625.08985-.05859.14843-.14843.0586-.08594.05859-.08985.10547-.04296.13281-.01563.11719.02735.1211.03125.05859-.0586.05859-.08984.03125-.26563.02734-.11719.10547.01172.13281.01563.10157-.04297.08984-.0586.0586-.08984.07421-.07422.0586-.08984.04687-.10156.01172-.13281-.01172-.13282-.04687-.10547-.14844-.14843-.0586-.08985-.05859-.08594-.04297-.10546v-.44532l.01563-.1328v-.14845l.01172-.1328-.0586-.0586-.08984.0586-.10156-.04298-.17969-.11719-.08594-.05859-.0625-.08984-.0586-.08985-.07421-.07421-.08594-.0586-.1211.03125-.10155.01172-.10547.04688-.08594.05859-.10547.04297-.14844.14844-.08984.05859-.08594.0586-.08984.0625-.10547.04296-.13281.01563v-.1211l.10547-.04297.11718-.03125.07422-.0703.04297-.10548v-.14844l-.02734-.11718-.14844-.14844-.13281-.01563h-.14844l-.11719.03125-.10547.04297-.10156.04297-.08984.0625-.11719.02735-.07422-.07422.01172-.13281-.04297-.10157-.04297-.10547-.08984-.05859-.11719.02734-.1211.03125-.11718.03125-.10156.04297-.1211.03125-.10156.04297-.10547.04297-.08984.0586-.10156.01562v-.11719l.01562-.13281-.0586-.08985-.07421.04297-.14844.14844-.0586.08985-.07421.07421-.04688.10547-.04296.10156-.07422.07422-.0586.08985-.07422.07422-.05859.08593-.07422.07422-.08984.0625-.07422.07031-.07422.07422-.10156.01563-.13281.01562-.10547-.04296v-.1211l.14843-.14844.04297-.10156.0586-.08984.04687-.10156.04297-.10547.0586-.08985.03124-.11719.04297-.10156.03125-.1211.02735-.11718.04687-.10547.04297-.10156.04297-.10547.07422-.07031.08984-.0625.08985-.0586.10156-.04296h.29687l.26563-.03125.10547-.04297-.07422-.07422-.11719-.03125-.10547-.04297-.08984-.0586-.10156-.04687-.08985-.0586-.10156-.04296-.10547-.04297-.08984-.0625-.08594-.0586-.10547-.04296-.10156-.04297-.1211-.03125-.11718-.03125-.10157-.04297L297.5 410.25l-.10156-.04297-.08985-.0586-.04296-.10546-.01563-.13281.10156-.04297.13281-.01563.13672.01563.13282-.01563.10156-.04297.0586-.08984.01562-.10547-.08985-.0586-.07421-.07421-.10157-.04297-.08984-.0586-.14844-.14843-.04297-.10547-.01562-.13281v-.29297l-.0586-.08985-.08984-.05859-.07422-.07422-.04297-.10547-.03125-.11718-.0586-.08985-.07421-.07422-.11719-.02734-.07422-.07422-.08984-.0586-.08984-.0625-.08594-.05859-.07422-.07421-.0586-.08594-.04687-.10547-.08594-.0586-.14843-.14843-.19532-.0586-.1328.01563-.10157.04297-.07422.07422-.04688.10156-.04296.10547-.0586.08984-.0586.08594-.29687.29687-.08984.0586h-.08594l-.0625-.08594-.04297-.10547.03125-.11719.0586-.08984.02734-.11719-.01172-.13281-.08984-.0625-.10547.04688-.11719.02734-.11719.03125-.26953.17578-.10156.04688-.11719.02734-.10546.04687-.08985.0586-.10156.04297-.0586-.08594-.04687-.10547.01563-.13281.04687-.10547.07031-.07422.07422-.07031.0586-.08985v-.14843l-.04297-.10547h-.23829l-.10156.04687-.03125.11719-.02734.11719-.03125.1211-.07422.04296-.13281.01563-.07422-.04688-.04297-.10156-.04297-.10547-.04687-.10156-.04297-.10547-.1211.03125-.10156.04297-.13281.01562-.11719.03125-.10547.04297-.08984.0586-.10156.04687-.1211.02734-.13281.01563-.10156-.04297-.0586-.08985-.04687-.10546-.04297-.10157-.04297-.10546v-.1172l.0586-.08984.08593-.05859.17969-.11719.10156-.04687.10547-.04297.10547-.0586.10156-.04296.08985-.0625.10156-.04297.10547-.0586.10156-.04687.08984-.0586.10547-.04296.10156-.04297.08985-.0625.10156-.04297.13672-.01563.11719.03125.10156.04297.1211.03125.10156.04297.10546.04688.10157.04296.10547.04297.10156.04688.10547.04297.10156.04297.10547.04687.08594.0586.10546.04296.1172.03125.10546.04297.10156.04688.08985.0586.10547.04296.10156.04297.10547.04687.11719.02735.10156.04687.1211.02735h.14843l.08594-.0586.01562-.10156.0586-.08984-.02735-.1172-.07422-.07421-.11719-.17969-.07421-.07422-.08985-.07421-.17969-.1172-.08593-.05859-.10547-.04296-.10156-.04688-.26954-.17578-.05859-.08985-.07422-.07421-.0586-.08985-.04296-.10156-.03125-.11719-.01563-.13672v-.5625l-.01171-.1328-.01563-.13282-.03125-.11719-.01562-.13281-.01172-.13281-.03125-.1211-.22266-.22265-.0586-.08594-.01562-.10547.03125-.11719.13281-.01562v-91.41406H172.9922v1.45312l-.0586.23438-.35156 1.05078-.17187.52343-.1172.34766-.17577.41016-.11719.17187-.23438.29297-.23046.0586h-.35157l-.11718.05859-.23047.40625v.29297l.11719.17578.23046.23047.1172.23437.64062.75781.29297.46485.17578.23437.23047.35156.23437.34766.64063.8164.17578.46485.17187.41016.11719.69531.17578.46875.11719 1.39844.0586.46484v.875l.11718 1.04688v4.78125l-.0586.46484-.35156 1.28125-.17578.52344-.11328.41015-.35156.9297L172.93359 336l-.23437.58203-.11719.17578-.17187.34766-.17578.40625-.35157.8164-.0586.29297-.11327.29297-.11719.28906-.0586.17579-.11718.875-.0586.40625-.05859.11718-.0586.17579-.05859.17187-.23047.52734-.11718.17188v.23437l-.11719.23438-.0586.17187-.17577.58594v.28906l-.0586.17579v.29296l-.0586.11329-.05859.52734v.17187l-.05468.23438v2.6211l-.17578.8164-.1172.17578-.17577.23438-.1172.17187-.11327.23438-.58594.93359-.23047.28906-.29297.46485-.17578.23437-.28906.35156-.35156.69922-.11328.23047-.17579.41016-.17578.23046-.40625.52735-.8164.69922-.29297.17187-.28906.23438-.17579.11719-.17578.17578-.52344.40625-.52734.17578-.17187.17578-.23438.05469-.64062.17578h-.75782m12.21094 31.02344l-1.07422.44921.35938.89454 1.25-.71485.44531-.53906-.98047-.08985"/><path fill="#d3d3d3" fill-opacity="0" fill-rule="evenodd" d="M201.50781 416.59766h-.89453l.44922.6289.98047.35938.80469-.08985.4453-.98828-.17577.08985-.71485-.35547-.89453.35547m154.6211 59.0703l-.0586-.52343v-.29297l.11328-.29297.0586-.23046.46875-.46875h.11328l.11719-.11329.11718-.05859h.17579l.23437-.0586h.34766l.23437.0586.11719.0586.23047.17187.0586.17578.11718.58203v.29297l-.11719.17578-.17187.28906-.17579.17579-.52734.52343-.23047.23438-.11719.0586h-.17578l-.11718-.0586-.40625-.29297-.17579-.11719-.11718-.0586-.0586-.11327-.05468-.1172m6.64062-10.95702l-.0586-.17188v-1.10937l.0586-.17188.17578-.0586.17188-.05858h.17578l.23437-.0586.1172.0586.05858.69921-.05859.17188-.11719.17578-.11718.0586-.23438.52343-.11328.0586h-.23438l-.05859-.1172m9.61328-14.39062l-.11719-.17578v-.69922l.29297-.875.1172-.17187.17577-.35156.11328-.23047.1172-.29297.35155-.75781.1172-.23047.17187-.23438h.17578l.11719-.0586h.64062l.11719.0586.23437.23438.17188.11328.35156.29297.11719.11718.11328.17579v.11328l.11719.05859.11718.11719v.69922l-.05859.17578v.23047l-.0586.17578-.34765 1.05078-.11719.23047-.11719.23437-.11718.0586-.23047.23437-.64063.28906h-.875l-.41015-.11718-.64063-.46485"/><path fill="none" stroke="#bebebe" stroke-linecap="round" stroke-linejoin="round" stroke-miterlimit="10" stroke-width=".5" d="M467.95703 311.69531H144.02734v168.625h323.9297v-168.625"/><g clip-path="url(#a)"><path fill="#fff" fill-opacity="0" fill-rule="evenodd" d="M144 475.89063v4.4375h.0039H144V311.67188h.0039H144v164.21875"/></g><g clip-path="url(#b)"><path fill="#fff" fill-opacity="0" fill-rule="evenodd" d="M144.0039 480.32813V311.67188h17.75V432.8125l-2.625 3.13281-.91796 4.4375.13281 4.4375-.35547 4.4414.1289 4.4375-.33984 4.4375-.03515 4.4375 4.01172 3.81642 3.375.625 1.0625.5.63672-.5 3.80078-1.39454 4.4375-1.07812 4.4414-1.92578.08203-.04297.19922-4.4375-.28125-.25-1.2461-4.1875-3.1953-3.48828-.3711-.94922-2.98828-4.4414-1.07812-1.3711-4.03125-3.0664-.40625-.21485-2.19532-4.22266-2.24218-3.13281V311.67187h306.24218v168.65625H144.00391"/></g><path fill="#50fcfc" fill-rule="evenodd" d="M161.7539 466.39063l-4.01171-3.81641.03515-4.4375.33985-4.4375-.1289-4.4375.35546-4.4414-.13281-4.4375.91797-4.4375 2.625-3.13282v4.59375l-1.45703 2.97656-.30079 4.4375-.73047 4.4414.69922 4.4375.21094 4.4375 1.57813 3.46485 2.71093.97266 1.72657.48828.92187-.48828 3.51563-1.3164 4.4375-1.48438 1.23437-1.63672-1.23437-3.8164-.16016-.6211-1.66016-4.4375-2.61718-3.01563-1.82032-1.42578-2.61718-2.48047-2.57813-1.95703-1.85937-2.97656v-4.59375l2.24218 3.13281 2.19532 4.22266.40625.21484 4.03125 3.0664 1.07812 1.3711 2.98828 4.4414.3711.94923 3.1953 3.48828 1.2461 4.1875.28125.25-.19922 4.4375-.08203.04297-4.4414 1.92578-4.4375 1.07812-3.80078 1.39454-.63672.5-1.0625-.5-3.375-.625"/><path fill="#00e8fc" fill-rule="evenodd" d="M159.96484 453.69922l-.69922-4.4375.73047-4.4414.30078-4.4375 1.45704-2.97657 1.85937 2.97656 2.57813 1.95703v3.72266l-4.4375 1.78516-.35938 1.41406.35938 1.27344 2.01172 3.16406 2.42578 2.07422 4.14062-2.07422.29688-1.35156.20312-3.08594-.20312-.23438-4.4375-2.96484v-3.72266l2.61718 2.48047 1.82032 1.42578 2.61718 3.01563 1.66016 4.4375.16016.6211 1.23437 3.8164-1.23437 1.63672-4.4375 1.48437-3.51563 1.3164-.92187.48829-1.72657-.48828-2.71093-.97266-1.57813-3.46484-.21094-4.4375"/><path fill="#00d4fc" fill-rule="evenodd" d="M161.7539 450.53516l-.35937-1.27344.35938-1.41406 4.4375-1.78516 4.4375 2.96484.20312.23438-.20312 3.08594-.29688 1.35156-4.14062 2.07422-2.42578-2.07422-2.01172-3.16406"/><g clip-path="url(#c)"><path fill="#fff" fill-opacity="0" fill-rule="evenodd" d="M467.9961 480.32813H468V311.67188h-.0039H468v168.65625h-.0039"/></g><g clip-path="url(#d)"><path fill="none" stroke="#000" stroke-linecap="round" stroke-linejoin="round" stroke-miterlimit="10" stroke-width=".5" d="M147.3789 479.36719l-6.7578 1.92578"/></g><g clip-path="url(#e)"><path fill="none" stroke="#000" stroke-linecap="round" stroke-linejoin="round" stroke-miterlimit="10" stroke-width=".5" d="M147.3789 479.36719l1.70313 1.76562"/></g><g clip-path="url(#f)"><path fill="none" stroke="#000" stroke-linecap="round" stroke-linejoin="round" stroke-miterlimit="10" stroke-width=".5" d="M146.39453 479.64453l1.70313 1.76953"/></g><g clip-path="url(#g)"><path fill="none" stroke="#000" stroke-linecap="round" stroke-linejoin="round" stroke-miterlimit="10" stroke-width=".5" d="M160.6914 479.36328l-6.7539 1.9336"/></g><g clip-path="url(#h)"><path fill="none" stroke="#000" stroke-linecap="round" stroke-linejoin="round" stroke-miterlimit="10" stroke-width=".5" d="M160.6914 479.36328l1.70313 1.76563"/></g><g clip-path="url(#i)"><path fill="none" stroke="#000" stroke-linecap="round" stroke-linejoin="round" stroke-miterlimit="10" stroke-width=".5" d="M159.71094 479.64453l1.70312 1.76563"/></g><g clip-path="url(#j)"><path fill="none" stroke="#000" stroke-linecap="round" stroke-linejoin="round" stroke-miterlimit="10" stroke-width=".5" d="M173.91406 479.07813l-6.5664 2.5"/></g><g clip-path="url(#k)"><path fill="none" stroke="#000" stroke-linecap="round" stroke-linejoin="round" stroke-miterlimit="10" stroke-width=".5" d="M173.91406 479.07813l1.84766 1.61718"/></g><g clip-path="url(#l)"><path fill="none" stroke="#000" stroke-linecap="round" stroke-linejoin="round" stroke-miterlimit="10" stroke-width=".5" d="M172.95703 479.4414l1.84766 1.6172"/></g><g clip-path="url(#m)"><path fill="none" stroke="#000" stroke-linecap="round" stroke-linejoin="round" stroke-miterlimit="10" stroke-width=".5" d="M187.13281 478.85156l-6.375 2.95703"/></g><g clip-path="url(#n)"><path fill="none" stroke="#000" stroke-linecap="round" stroke-linejoin="round" stroke-miterlimit="10" stroke-width=".5" d="M187.13281 478.85156l1.95703 1.48047"/></g><g clip-path="url(#o)"><path fill="none" stroke="#000" stroke-linecap="round" stroke-linejoin="round" stroke-miterlimit="10" stroke-width=".5" d="M186.20703 479.28125l.97656.73828"/></g><g clip-path="url(#p)"><path fill="none" stroke="#000" stroke-linecap="round" stroke-linejoin="round" stroke-miterlimit="10" stroke-width=".5" d="M200.39063 478.73438l-6.26172 3.1875"/></g><g clip-path="url(#q)"><path fill="none" stroke="#000" stroke-linecap="round" stroke-linejoin="round" stroke-miterlimit="10" stroke-width=".5" d="M200.39063 478.73438l2.01171 1.41015"/></g><g clip-path="url(#r)"><path fill="none" stroke="#000" stroke-linecap="round" stroke-linejoin="round" stroke-miterlimit="10" stroke-width=".5" d="M199.48047 479.19922l1.0039.70312"/></g><g clip-path="url(#s)"><path fill="none" stroke="#000" stroke-linecap="round" stroke-linejoin="round" stroke-miterlimit="10" stroke-width=".5" d="M213.78906 478.90625l-6.42578 2.84375"/></g><g clip-path="url(#t)"><path fill="none" stroke="#000" stroke-linecap="round" stroke-linejoin="round" stroke-miterlimit="10" stroke-width=".5" d="M213.78906 478.90625l1.92969 1.51563"/></g><g clip-path="url(#u)"><path fill="none" stroke="#000" stroke-linecap="round" stroke-linejoin="round" stroke-miterlimit="10" stroke-width=".5" d="M212.85156 479.32031l.96875.75781"/></g><g clip-path="url(#v)"><path fill="none" stroke="#000" stroke-linecap="round" stroke-linejoin="round" stroke-miterlimit="10" stroke-width=".5" d="M227.07031 478.83594l-6.35937 2.98437"/></g><g clip-path="url(#w)"><path fill="none" stroke="#000" stroke-linecap="round" stroke-linejoin="round" stroke-miterlimit="10" stroke-width=".5" d="M227.07031 478.83594l1.96485 1.47265"/></g><g clip-path="url(#x)"><path fill="none" stroke="#000" stroke-linecap="round" stroke-linejoin="round" stroke-miterlimit="10" stroke-width=".5" d="M226.14453 479.26953l.98438.73828"/></g><g clip-path="url(#y)"><path fill="none" stroke="#000" stroke-linecap="round" stroke-linejoin="round" stroke-miterlimit="10" stroke-width=".5" d="M240.19922 478.49219l-5.98828 3.67187"/></g><path fill="none" stroke="#000" stroke-linecap="round" stroke-linejoin="round" stroke-miterlimit="10" stroke-width=".5" d="M240.19922 478.49219l2.11719 1.2461m-2.98828-.71095l1.05859.6211"/><g clip-path="url(#z)"><path fill="none" stroke="#000" stroke-linecap="round" stroke-linejoin="round" stroke-miterlimit="10" stroke-width=".5" d="M253.42188 478.34766l-5.8047 3.96093"/></g><path fill="none" stroke="#000" stroke-linecap="round" stroke-linejoin="round" stroke-miterlimit="10" stroke-width=".5" d="M253.42188 478.34766l2.17187 1.14062m-3.01563-.5625l1.08594.57031"/><g clip-path="url(#A)"><path fill="none" stroke="#000" stroke-linecap="round" stroke-linejoin="round" stroke-miterlimit="10" stroke-width=".5" d="M266.86719 478.55469l-6.0664 3.54687"/></g><g clip-path="url(#B)"><path fill="none" stroke="#000" stroke-linecap="round" stroke-linejoin="round" stroke-miterlimit="10" stroke-width=".5" d="M266.86719 478.55469l2.08984 1.28906"/></g><g clip-path="url(#C)"><path fill="none" stroke="#000" stroke-linecap="round" stroke-linejoin="round" stroke-miterlimit="10" stroke-width=".5" d="M279.66016 477.8711l-5.01953 4.91796"/></g><path fill="none" stroke="#000" stroke-linecap="round" stroke-linejoin="round" stroke-miterlimit="10" stroke-width=".5" d="M279.66016 477.8711l2.33984.74218"/><g clip-path="url(#D)"><path fill="none" stroke="#000" stroke-linecap="round" stroke-linejoin="round" stroke-miterlimit="10" stroke-width=".5" d="M292.58594 477.52734l-4.24219 5.60157"/></g><path fill="none" stroke="#000" stroke-linecap="round" stroke-linejoin="round" stroke-miterlimit="10" stroke-width=".5" d="M291.96875 478.34375l1.21094.19531"/><g clip-path="url(#E)"><path fill="none" stroke="#000" stroke-linecap="round" stroke-linejoin="round" stroke-miterlimit="10" stroke-width=".5" d="M305.9336 477.55469l-4.3086 5.55078"/></g><path fill="none" stroke="#000" stroke-linecap="round" stroke-linejoin="round" stroke-miterlimit="10" stroke-width=".5" d="M305.3086 478.35938l1.20702.21093"/><g clip-path="url(#F)"><path fill="none" stroke="#000" stroke-linecap="round" stroke-linejoin="round" stroke-miterlimit="10" stroke-width=".5" d="M319.27734 477.57422l-4.36328 5.50781"/></g><path fill="none" stroke="#000" stroke-linecap="round" stroke-linejoin="round" stroke-miterlimit="10" stroke-width=".5" d="M318.64063 478.375l1.20703.22266"/><g clip-path="url(#G)"><path fill="none" stroke="#000" stroke-linecap="round" stroke-linejoin="round" stroke-miterlimit="10" stroke-width=".5" d="M332.71484 477.67578l-4.60937 5.30469"/></g><path fill="none" stroke="#000" stroke-linecap="round" stroke-linejoin="round" stroke-miterlimit="10" stroke-width=".5" d="M332.04297 478.44922l1.19531.27344"/><g clip-path="url(#H)"><path fill="none" stroke="#000" stroke-linecap="round" stroke-linejoin="round" stroke-miterlimit="10" stroke-width=".5" d="M346.38672 478.03125l-5.32031 4.59375"/></g><path fill="none" stroke="#000" stroke-linecap="round" stroke-linejoin="round" stroke-miterlimit="10" stroke-width=".5" d="M345.61328 478.69922l1.14063.44531"/><g clip-path="url(#I)"><path fill="none" stroke="#000" stroke-linecap="round" stroke-linejoin="round" stroke-miterlimit="10" stroke-width=".5" d="M359.83203 478.1914l-5.58203 4.27344"/></g><path fill="none" stroke="#000" stroke-linecap="round" stroke-linejoin="round" stroke-miterlimit="10" stroke-width=".5" d="M359.01953 478.8125l1.11328.51172"/><g clip-path="url(#J)"><path fill="none" stroke="#000" stroke-linecap="round" stroke-linejoin="round" stroke-miterlimit="10" stroke-width=".5" d="M373.30078 478.41406l-5.89062 3.82813"/></g><path fill="none" stroke="#000" stroke-linecap="round" stroke-linejoin="round" stroke-miterlimit="10" stroke-width=".5" d="M372.44531 478.97266l1.07422.59375"/><g clip-path="url(#K)"><path fill="none" stroke="#000" stroke-linecap="round" stroke-linejoin="round" stroke-miterlimit="10" stroke-width=".5" d="M386.9375 479.03125l-6.53125 2.59375"/></g><g clip-path="url(#L)"><path fill="none" stroke="#000" stroke-linecap="round" stroke-linejoin="round" stroke-miterlimit="10" stroke-width=".5" d="M385.98828 479.41016l.9336.79297"/></g><g clip-path="url(#M)"><path fill="none" stroke="#000" stroke-linecap="round" stroke-linejoin="round" stroke-miterlimit="10" stroke-width=".5" d="M398.00781 480.32813l-.01953-.19922-.0586-.19141-.09374-.17578-.45703-.3789-.19141-.0586-.20313-.01953-.19921.01953-.19141.0586-.45703.3789-.09375.17578-.0586.1914-.01953.19923.01954.19921.05859.19141.09375.17969.45703.375.1914.0586.19923.01952.20312-.01953.1914-.0586.45704-.375.09375-.17968.0586-.1914.01952-.19922"/></g><g clip-path="url(#N)"><path fill="none" stroke="#000" stroke-linecap="round" stroke-linejoin="round" stroke-miterlimit="10" stroke-width=".5" d="M413.52344 481.73047l-6.44531-2.80078"/></g><g clip-path="url(#O)"><path fill="none" stroke="#000" stroke-linecap="round" stroke-linejoin="round" stroke-miterlimit="10" stroke-width=".5" d="M426.74219 478.72656l-6.2539 3.20313"/></g><g clip-path="url(#P)"><path fill="none" stroke="#000" stroke-linecap="round" stroke-linejoin="round" stroke-miterlimit="10" stroke-width=".5" d="M425.83203 479.1914l1.00781.70313"/></g><g clip-path="url(#Q)"><path fill="none" stroke="#000" stroke-linecap="round" stroke-linejoin="round" stroke-miterlimit="10" stroke-width=".5" d="M439.9961 478.60938l-6.12891 3.4375"/></g><g clip-path="url(#R)"><path fill="none" stroke="#000" stroke-linecap="round" stroke-linejoin="round" stroke-miterlimit="10" stroke-width=".5" d="M439.9961 478.60938l2.0625 1.32421"/></g><g clip-path="url(#S)"><path fill="none" stroke="#000" stroke-linecap="round" stroke-linejoin="round" stroke-miterlimit="10" stroke-width=".5" d="M453.32813 478.64453l-6.16407 3.3711"/></g><g clip-path="url(#T)"><path fill="none" stroke="#000" stroke-linecap="round" stroke-linejoin="round" stroke-miterlimit="10" stroke-width=".5" d="M452.4336 479.13281l1.02343.67578"/></g><g clip-path="url(#U)"><path fill="none" stroke="#000" stroke-linecap="round" stroke-linejoin="round" stroke-miterlimit="10" stroke-width=".5" d="M466.79688 478.96094l-6.47266 2.73437"/></g><g clip-path="url(#V)"><path fill="none" stroke="#000" stroke-linecap="round" stroke-linejoin="round" stroke-miterlimit="10" stroke-width=".5" d="M466.79688 478.96094l1.90625 1.54687"/></g><g clip-path="url(#W)"><path fill="none" stroke="#000" stroke-linecap="round" stroke-linejoin="round" stroke-miterlimit="10" stroke-width=".5" d="M147.32813 465.89063l-6.65625 2.24609"/></g><path fill="none" stroke="#000" stroke-linecap="round" stroke-linejoin="round" stroke-miterlimit="10" stroke-width=".5" d="M147.32813 465.89063l1.78515 1.68359m-2.7539-1.35547l1.78515 1.6836m12.45703-2.13282l-6.57422 2.48828m6.57422-2.48828l1.84375 1.61719m-2.80078-1.2539l1.84375 1.61718m12.3164-2.24219l-6.34765 3.01172m6.34766-3.01172l1.96875 1.46485m-2.89063-1.02735l1.96875 1.46485m12.1875-2.0625l-6.1875 3.33203m6.1875-3.33203l2.04297 1.36328m-2.9414-.8789l2.03906 1.36327m12.01953-2.10937l-5.875 3.85547m5.875-3.85547l2.15234 1.17968m-3.00781-.61718l2.15234 1.17968m12.10157-1.60546l-6.04688 3.58203m6.04688-3.58203L215.6953 466.5m-2.97656-.7539l2.09375 1.27734m12.04688-1.88672l-5.9375 3.7539m5.9375-3.7539l2.1328 1.21484m-2.99609-.66797l2.13282 1.21485m11.58593-2.34375l-5.01562 4.91797m5.01562-4.91797l2.33985.73828m-3.07031-.02344l2.33984.73828m11.4375-1.69922l-4.48047 5.41016m4.48047-5.41016l2.40234.4922m-3.05469.29296l2.40235.4961m11.39453-1.41407l-4.14063 5.67578m4.14063-5.67578l2.42969.34375M265.30469 465l2.42578.34766m11.40234-1.23438l-3.96484 5.80078m3.96484-5.80078l2.4414.27344m-3.01562.57031l1.21875.13672m12.69141-.96875l-4.0039 5.77734m4.0039-5.77734l2.4336.28906m-3.01954.55078l1.21875.14453m12.2539-1.23437l-3.15233 6.27734m3.15234-6.27734l2.45312-.0586m11.45704.4336l-4.33985 5.52734m4.33985-5.52734l2.41406.42969m10.95312-.38672l-4.44531 5.4414m4.44531-5.4414l2.40625.48047m10.89063-.4961l-4.40625 5.47266m4.40625-5.47266l2.41015.46094m10.58985-.6875l-3.77735 5.92578m3.77735-5.92578l2.44531.1914m11.85156.7422l-5.73828 4.05859m4.90235-3.46875l1.09375.55469m10.4453-2.6172l-.51952 7.00782m.4453-5.98828l1.125-.4961m10.82423-.32812l2.36328 6.61328m-2.01953-5.65234l.82422-.90625m16.33593 1.4336l-6.01171 3.63671m5.13671-3.10937l1.05079.6289m13.37109-.70312l-6.47656 2.73047m6.47656-2.73047l1.90234 1.55078m10.85156-2.46094l-5.35546 4.55078m5.35546-4.55078l2.28125.90234m10.81641-1.13671l-4.91797 5.01953m4.91797-5.01953l2.35156.6953m11.9961 1.42579l-6.98438.77734"/><g clip-path="url(#X)"><path fill="none" stroke="#000" stroke-linecap="round" stroke-linejoin="round" stroke-miterlimit="10" stroke-width=".5" d="M467.05469 466.625l1.38281 2.02344"/></g><g clip-path="url(#Y)"><path fill="none" stroke="#000" stroke-linecap="round" stroke-linejoin="round" stroke-miterlimit="10" stroke-width=".5" d="M147.32422 452.55469l-6.64844 2.28515"/></g><path fill="none" stroke="#000" stroke-linecap="round" stroke-linejoin="round" stroke-miterlimit="10" stroke-width=".5" d="M147.32422 452.55469l1.79297 1.67578m-2.76172-1.34375l1.79297 1.67578m12.48437-2.01563l-6.63672 2.3047m6.63672-2.3047l1.80078 1.66797m-2.76562-1.33203l1.80078 1.66797m12.44922-2.08984l-6.57813 2.47265m6.57813-2.47265l1.83984 1.625m-2.79687-1.26563l1.83984 1.625m-2.79687-1.26172l.92187.8086M187.01953 452l-6.14844 3.39844M187.01953 452l2.0586 1.33594m-2.95313-.84375l2.0586 1.33984m-2.95313-.84375l1.02734.66797m13.84375-2.02344l-5.6836 4.13281m5.6836-4.1328l2.20703 1.07421m-3.03125-.47266l2.20313 1.07422m11.66016-2.01172l-5.13282 4.80079m5.13281-4.80079l2.32032.79688m-3.0664-.09766l2.3203.79688m11.73828-1.4961l-5.1289 4.8047m5.1289-4.8047l2.32422.79297m-3.0703-.09375l2.32421.79297m11.66016-1.57422l-4.96875 4.96875m4.96875-4.96875l2.34375.71485m-3.06641.00781l2.34375.71875m11.33203-1.75781l-4.2461 5.60156m4.2461-5.60156l2.42188.39062m-3.04297.42578l1.21484.19532m12.02734-1.42188l-2.85937 6.41797m2.85938-6.41797l2.44921-.16797m-2.86328 1.10156l1.22266-.08203m12.5625-.82422l-2.96875 6.3672m2.96875-6.3672l2.44922-.1289m-2.88282 1.05469l1.22657-.06641m13.54687-.13281l-5.02344 4.91406m5.02344-4.91406l2.33985.74219m-3.07032-.02735l1.16797.3711m12.49219-1.4297l-4.25 5.59766m4.25-5.59765l2.42187.39453m-3.04296.42187l2.42578.39063m11.65625-1.08985l-4.54297 5.36329m4.54297-5.36328l2.39843.52343m-3.05859.25781l1.19922.26172m12.47266-1.26953l-3.9375 5.82031m3.9375-5.8203l2.4414.2578m10.89844-.24218l-3.98438 5.78906m3.98438-5.78906l2.4375.28125m10.21484-.63672l-2.66015 6.5m2.27343-5.55469l1.22266-.125m9.8711-.84375l2.55468 6.54688m12.23047-6.78125l-.38672 7.01562m15.33594-6.50781l-3.65234 6m3.12109-5.1289l1.22656.0703m14.23828 1.3672l-6.89062 1.3828m6.89062-1.3828l1.5547 1.89843m11.82812-1.1914l-7.02735-.03516m7.02735.03515l1.14062 2.17188m-2.16016-2.17578l.57032 1.08593m13.35156-2.75l-6.19922 3.3047m6.19922-3.3047l2.03516 1.3672m10.79296-2.0625l-5.22656 4.6953m5.22656-4.6953l2.3047.83984m11.29296-.48438l-5.78906 3.98438"/><g clip-path="url(#Z)"><path fill="none" stroke="#000" stroke-linecap="round" stroke-linejoin="round" stroke-miterlimit="10" stroke-width=".5" d="M466.45703 451.70703l2.17578 1.13281"/></g><g clip-path="url(#aa)"><path fill="none" stroke="#000" stroke-linecap="round" stroke-linejoin="round" stroke-miterlimit="10" stroke-width=".5" d="M147.32813 439.26172l-6.65625 2.2461"/></g><path fill="none" stroke="#000" stroke-linecap="round" stroke-linejoin="round" stroke-miterlimit="10" stroke-width=".5" d="M147.32813 439.26172l1.78515 1.6836m-2.7539-1.35938l1.78515 1.6875m12.52344-1.9414l-6.70313 2.10546m6.70313-2.10547l1.7461 1.71875m-2.72266-1.41406l1.75 1.72265m-2.72657-1.41796l.875.86328m14.20313-1.95313l-6.32422 3.0625m6.32422-3.0625l1.98047 1.44922m-2.90235-1.0039l1.98047 1.44921m-2.89844-1.0039l.98829.72656m14.01953-1.89063l-6.03125 3.60938m6.03125-3.60938l2.10156 1.26954m-2.98047-.7422l2.10156 1.26563m11.92578-2.04687l-5.6953 4.11719m5.6953-4.1172l2.19922 1.08204m-3.03125-.48047l2.20313 1.07813m11.92187-1.70704l-5.65234 4.17579m5.65234-4.17579l2.21094 1.0547m-3.03516-.44923l1.10938.52735m12.6211-1.59766l-4.83594 5.10156m4.83593-5.10156l2.36328.65625m-3.0664.08594l2.36328.65625m11.375-1.63281l-4.27734 5.57421m4.27734-5.57421l2.42188.40625m-3.04297.40234l2.42187.40625m11.01563-1.53516l-3.28125 6.21094m3.28125-6.21094l2.45703-.0078m-2.9336.91015l1.22657-.0039m13.14062-.51954l-4.42969 5.45703m4.4297-5.45703l2.40624.46875m-3.05078.32422l1.20313.23437m12.51562-1.20703l-3.94922 5.8125m3.94922-5.8125l2.4414.26563m-3.01562.58203l1.21875.13281m12.42578-1.13281l-3.46093 6.11719m3.46093-6.1172l2.45313.06641m-2.95703.82422l1.22656.03125m13.26953-.42187l-4.8125 5.11719m4.8125-5.1172l2.36719.64454m-3.0664.10156l1.18359.32031m12.1914-1.54296l-3.53515 6.0703m3.53515-6.0703l2.45313.09375m10.87109-.08985l-3.55469 6.0625m3.03907-5.17969l1.22656.05079m13.26172-.4336l-4.8711 5.0625m4.8711-5.0625l2.36328.67188m10.92578-.69532l-4.8164 5.11329m4.8164-5.11329l2.36719.64454m8.74218-1.59766l-.40625 7.01562m.34766-5.99218l1.11719-.51563m10.84375-.29687l2.41797 6.59765m-2.06641-5.64062l.82031-.91016m15.5625.51953l-4.41797 5.46485m3.77344-4.67188l1.20703.23438m14.0586 1.70312h-7.02735m7.02735 0l1.15234 2.16797m-2.17578-2.16797l.57422 1.08594m13.7539-.85156l-7.01171-.46875m7.01171.46875l1.00391 2.24218m-2.02344-2.30859l.5039 1.11719m13.01173-3.55078l-5.3711 4.53515m5.3711-4.53515l2.27734.91015m10.03906-1.72656l-3.37109 6.16406m3.3711-6.16406l2.45312.02734m11.51953.4375L461.21485 443m4.01171-4.47266l1.1875.29688"/><g clip-path="url(#ab)"><path fill="none" stroke="#000" stroke-linecap="round" stroke-linejoin="round" stroke-miterlimit="10" stroke-width=".5" d="M147.48047 426.60156l-6.96094.9336"/></g><path fill="none" stroke="#000" stroke-linecap="round" stroke-linejoin="round" stroke-miterlimit="10" stroke-width=".5" d="M147.48047 426.60156l1.4336 1.99219m-2.44532-1.85547l1.42969 1.99219m-2.4414-1.85938l1.42968 1.9961m13.71484-3.04297l-6.57031 2.48828m6.57031-2.48828l1.84375 1.61719m-2.80078-1.25391l1.84375 1.61719m-2.80078-1.25781l.92188.80859m14.08203-2.01172l-6.125 3.44922m6.125-3.44922l2.0664 1.32422m-2.95703-.82031l2.0664 1.3203m-2.95702-.8203l1.03515.66015m14.17578-1.4375l-6.35156 2.9961m6.35156-2.9961l1.96875 1.46485m-2.89062-1.03125l1.96484 1.46875m-2.89062-1.03125l.98437.73437m14.01953-1.91015l-6.03515 3.60546m6.03515-3.60547l2.09766 1.27344m-2.97656-.7461L201.5 427.0625m-2.98047-.7461l1.05078.63282m14.17578-1.39844l-6.33984 3.03516m6.33984-3.03516l1.97266 1.45703m-2.89453-1.01562l1.97266 1.45703m12.23437-1.95313l-6.28516 3.14454m6.28516-3.14454l2 1.42188m-2.91406-.96484l2 1.42578m12.23828-1.86328l-6.30078 3.10546m6.30078-3.10546l1.99219 1.43359m-2.90625-.98438l1.98828 1.4336m-2.90625-.98047l.9961.71875m14.16796-1.59375l-6.33203 3.05078m6.33203-3.05078l1.97656 1.45312m-2.89844-1.0078l1.97657 1.45312m12.15234-2.10157l-6.11719 3.45704m6.1172-3.45704l2.0703 1.31641m-2.96093-.8164l2.0703 1.3203m11.85938-2.23827l-5.5664 4.29296m5.5664-4.29296l2.23438 1.01562m-3.04297-.39062l1.11719.5078m12.64844-1.53124l-4.84766 5.08984m4.84766-5.08984l2.36328.66015m-3.07032.08204l1.1836.32812m13.09765-.79297l-5.36718 4.53516m5.36718-4.53516l2.27735.91406m11.3086-.54687l-5.91016 3.80078m5.91015-3.80078l2.14063 1.19922m11.35156-.89453l-6.26172 3.1914m5.34766-2.72656l1.0078.70313m13.57813.01562l-6.97656.82422m6.97656-.82422l1.39844 2.01953m11.39453-3.48828l-5.9336 3.76172m5.9336-3.76172l2.13282 1.21094m10.57812-1.92969l-4.72656 5.19922m4.03906-4.4414l1.1914.30077m13.96094 1.66016l-7.02343-.23828m7.02343.23828l1.07813 2.20313m12.23047-2.10938l-7.01172-.42578m7.01172.42578l1.01953 2.23047m-2.03906-2.29297l.51172 1.11719m13.8164-.96875l-7-.59766m7 .59766l.96485 2.25781m-1.98047-2.34375l.48047 1.1289m13.85937-1.13671l-7.01562-.41016m7.01562.41016l1.02344 2.23047m-2.04688-2.28907l.51172 1.11329m12.94922-3.58594l-5.26562 4.65234m5.26562-4.65234l2.30078.85937m10.33985-1.45312l-3.91407 5.83984m3.91407-5.83984l2.4414.25M451.63281 425l1.22266.125m12.47656-1.08984l-3.54297 6.0664"/><g clip-path="url(#ac)"><path fill="none" stroke="#000" stroke-linecap="round" stroke-linejoin="round" stroke-miterlimit="10" stroke-width=".5" d="M465.33203 424.03516l2.45313.09765"/></g><g clip-path="url(#ad)"><path fill="none" stroke="#000" stroke-linecap="round" stroke-linejoin="round" stroke-miterlimit="10" stroke-width=".5" d="M147.51172 413.76953l-7.02344-.03125"/></g><path fill="none" stroke="#000" stroke-linecap="round" stroke-linejoin="round" stroke-miterlimit="10" stroke-width=".5" d="M147.51172 413.76953l1.14453 2.17188m-2.16406-2.17578l.57031 1.08593m13.76172-.94531l-7.01953-.30469m7.01953.30469l1.0586 2.21094m-2.07813-2.25781l1.0586 2.21484m-2.08204-2.25781l.53125 1.10937m14.82813-1.30078l-7.02344.25781m7.02344-.25781l1.23046 2.1211m-2.25-2.08594l1.23047 2.125m-2.2539-2.08594l.61718 1.0625m14.73438-1.28906l-7.00781.5625m7.0078-.5625l1.32032 2.0664m-2.33984-1.98437l1.32031 2.0664m-2.33984-1.98437l.66015 1.03125m14.70313-.95703l-7.02735.08593m7.02735-.08593l1.17578 2.15234m-2.19922-2.14062l1.17969 2.15234m13.14844-1.86719L207.0703 413.5m7.00781.50781l.9961 2.24219m-2.01563-2.3164l.4961 1.12109m13.73437-2.1875l-6.79687 1.77343m6.79687-1.77343l1.66406 1.80468m-2.65234-1.54687l.83203.90234m13.21485-1.84765l-6.28125 3.14843m6.28125-3.14843l2 1.41797m-2.91407-.96094l2 1.42187m12.26172-1.8125l-6.34765 3.01172m6.34765-3.01172l1.96875 1.46485m-2.89453-1.02735l.98828.73438M267 412.22657l-6.32813 3.05468M267 412.22656l1.98047 1.44922m11.09765-1.86719l-5.85546 3.89063m5.85547-3.89063l2.15625 1.16797m11.15625-1.17187l-5.84766 3.89453m5.84765-3.89453l2.16016 1.16797m-3.01172-.60157l1.07813.58594m13.5-.3086l-6.67188 2.21094m6.67188-2.21093l1.77344 1.6914m11.30859-2.23047l-6.20703 3.28907m5.30469-2.8125l1.01562.6875m12.79297 2.73437l-5.38672-4.51172m4.60156 3.85547l-.2539 1.20313m15.03125-1.82032l-6.7461-1.96484m5.76563 1.67969l.25 1.20312m14.1875-1.83203l-7.02735-.13281m6.00391.11328l.55469 1.09375m13.54687-2.41016l-6.55469 2.53907m6.5547-2.53907l1.85546 1.60547m11.66406-.80859l-6.96093.94531m6.96093-.94531l1.4336 1.98828m-2.44531-1.85156l.71484.9961m13.64453-.57032l-7.02734-.17969m7.02734.17969l1.09766 2.1914m-2.1211-2.21874l.54688 1.09765m13.78515-1.39453l-7.01171.46875m7.01171-.46875l1.29297 2.08203m-2.3164-2.01562l.64843 1.04297m13.69141-1.09375l-7.01563.43359m7.01563-.4336l1.28125 2.09376m-2.30469-2.02735l.64453 1.04297m13.59375-1.7461l-6.8164 1.71094m6.8164-1.71093l1.64454 1.82031m11.53906-2.23047l-6.55469 2.53125m6.55469-2.53125l1.85547 1.60547m-2.8086-1.23828l.92578.80078m13.47266-.76563l-6.8125 1.72657"/><g clip-path="url(#ae)"><path fill="none" stroke="#000" stroke-linecap="round" stroke-linejoin="round" stroke-miterlimit="10" stroke-width=".5" d="M466.96875 412.89063l1.64844 1.8164"/></g><g clip-path="url(#af)"><path fill="none" stroke="#000" stroke-linecap="round" stroke-linejoin="round" stroke-miterlimit="10" stroke-width=".5" d="M147.39063 401.35938l-6.78125-1.84375"/></g><path fill="none" stroke="#000" stroke-linecap="round" stroke-linejoin="round" stroke-miterlimit="10" stroke-width=".5" d="M147.39063 401.35938l.54296 2.39453m-1.53125-2.66016l.27344 1.19531m14.07813-1.13672l-6.87891-1.42968m6.8789 1.42968l.6875 2.35547m-1.6875-2.5625l.6875 2.35547m13.66798-2.36328l-6.95704-.9961m6.95703.9961l.83204 2.3086m-1.84375-2.45313l.41406 1.15234m13.94531-1.39844l-7.02344-.21875m7.02344.21875l1.08594 2.19922m12.125-1.4453l-6.8125-1.72657m6.8125 1.72656l.58203 2.38281m-1.57422-2.6328l.29297 1.1914m14.0625-2.4336l-6.91406 1.25782m6.91406-1.25782l1.52344 1.92579M227.40234 400.5l-7.02343-.125m7.02343.125l1.11328 2.1875m-2.1328-2.20313l.55468 1.09375m13.77734-1.29296l-7.01953.30859m7.01953-.3086l1.2461 2.11329m-2.26563-2.07031l.6211 1.05859m13.30859-2.58985l-6.21094 3.28516m6.21094-3.28515l2.03125 1.375m-2.9336-.89844l1.01563.6875m13.30469-.95703l-6.41406 2.86718m6.41406-2.86718l1.9375 1.5078m-2.8711-1.08983l.96875.7539m13.23047-1.27734l-6.3164 3.08203m6.3164-3.08203l1.98438 1.4414m-2.90235-.99609l.9922.72266m12.8828-1.75391l-5.59765 4.25m5.59765-4.25l2.22657 1.03125m10.78906-1.375l-5 4.9375m4.27344-4.21875l1.17187.36719m13.57031-.0625l-6.40234 2.89453m6.40235-2.89453l1.9414 1.5m11.4961-1.19922l-6.64454 2.28906m6.64454-2.28906l1.79296 1.67578m11.4375-1.89063l-6.47656 2.72266m5.53516-2.32812l.94922.77734m11.61328 3.34375l-3.08594-6.3125m2.63672 5.39453l-.72266.99219m14.32031.0039l-2.7578-6.46484m2.35937 5.52344l-.77344.95312m16.36328-4.5703l-6.50781 2.64843m6.50781-2.64844l1.88281 1.57422m11.69141-.27344l-7.02734.04688m7.02734-.04688l1.16797 2.16016m12.125-1.75l-6.98438-.76953m6.98438.76953l.91015 2.27734m12.23829-1.52344l-6.64844-2.28125m6.64844 2.28125l.3828 2.42579m13.10157-3.19922l-6.98828-.73047m6.98828.73047l.92188 2.27344m12.41015-2.58985l-7.02344-.09765m7.02344.09765l1.125 2.17969m-2.14453-2.19531l.5586 1.08984m13.67578-1.96094l-6.82422 1.67578"/><g clip-path="url(#ag)"><path fill="none" stroke="#000" stroke-linecap="round" stroke-linejoin="round" stroke-miterlimit="10" stroke-width=".5" d="M466.97266 399.60156l1.63671 1.82813"/></g><path fill="none" stroke="#000" stroke-linecap="round" stroke-linejoin="round" stroke-miterlimit="10" stroke-width=".5" d="M465.98047 399.84375l.8164.91406"/><g clip-path="url(#ah)"><path fill="none" stroke="#000" stroke-linecap="round" stroke-linejoin="round" stroke-miterlimit="10" stroke-width=".5" d="M147.28125 388.3789l-6.5625-2.51171"/></g><path fill="none" stroke="#000" stroke-linecap="round" stroke-linejoin="round" stroke-miterlimit="10" stroke-width=".5" d="M147.28125 388.3789l.30078 2.4375m-1.2539-2.80077l.14843 1.21484m14.23828-1.22266l-6.80078-1.76953m6.80078 1.76953l.57032 2.38672m-1.5586-2.64453l.28516 1.1914m14.05078-1.05859l-6.86328-1.51953m6.86328 1.51953l.65625 2.36328m12.26563-1.35937l-6.07813-3.52735m6.07813 3.52735l-.09375 2.45312m11.27343-.8203l-1.80469-6.79298m1.53907 5.80469l-.89844.83594m17.07422-2.9336l-7-.62109m7 .6211l.95703 2.26171m-1.97266-2.35156l.95313 2.26172m13.36328-2.04297l-6.96875-.8789m6.96875.8789l.875 2.29297m-1.88672-2.42188l.8711 2.29297m13.48046-2.80469l-7.01562.40235m7.01562-.40235l1.27344 2.09766m-2.29687-2.03906l1.27343 2.09765m13.06641-2.12109l-7.01953.33203m7.01953-.33203l1.25 2.10938m-2.27344-2.0586l1.2539 2.10938m13.03517-2.59766l-6.92188 1.20703m6.92188-1.20703l1.5078 1.9375m-2.51562-1.76172l1.50781 1.9375m12.75782-2.3789l-6.8086 1.73828m6.8086-1.73828l1.65234 1.8164m-2.64062-1.5625l1.64843 1.8125m12.54688-2.41406l-6.59375 2.4336m6.59375-2.4336l1.83203 1.63672m-2.78906-1.28125l1.82812 1.63281m12.26563-2.39062l-6.23438 3.23828m6.23438-3.23828l2.01953 1.39062m-2.92578-.92187l2.01953 1.39453m-2.92578-.92188l1.00781.69531m14.07422-1.72265l-6.14453 3.41015m6.14453-3.41015l2.0586 1.33594m-2.95313-.83985l2.0586 1.33594m12.20702-1.72266l-6.25781 3.19532m6.25781-3.19532l2.01172 1.40235m-2.92187-.9375l1.0078.69922m13.58595.10937l-6.9961.64844m6.9961-.64844l1.34765 2.05078m11.78516-.5625l-6.6289-2.33203m6.6289 2.33203l.36719 2.42969m13.09375-4.21484l-6.91797 1.23828m6.91797-1.23828l1.51562 1.92968m-2.52344-1.75l1.51563 1.9297m12.6875-2.57423l-6.6836 2.16797m6.6836-2.16797l1.76562 1.70313m11.69532-.17188l-6.97266-.89453m6.97266.89453l.86718 2.29688m12.35938-1.84766l-6.79297-1.79297m6.79297 1.79297l.5586 2.39063m12.82421-2.71875l-6.9336-1.13672m5.92579.97265l.39453 1.16016m13.9414-1.0664l-6.95703-.9961m6.95704.9961l.83203 2.30859m12.39843-1.90235l-6.78906-1.80859m6.78906 1.8086l.5547 2.39062m-1.54298-2.65235l.27735 1.19532m14.13281-1.55469l-7.0039-.5664"/><g clip-path="url(#ai)"><path fill="none" stroke="#000" stroke-linecap="round" stroke-linejoin="round" stroke-miterlimit="10" stroke-width=".5" d="M467.0625 387.40625l.97656 2.2539"/></g><path fill="none" stroke="#000" stroke-linecap="round" stroke-linejoin="round" stroke-miterlimit="10" stroke-width=".5" d="M466.04297 387.32422l.48828 1.125"/><g clip-path="url(#aj)"><path fill="none" stroke="#000" stroke-linecap="round" stroke-linejoin="round" stroke-miterlimit="10" stroke-width=".5" d="M146.67969 376.08203l-5.35938-4.54687"/></g><path fill="none" stroke="#000" stroke-linecap="round" stroke-linejoin="round" stroke-miterlimit="10" stroke-width=".5" d="M146.67969 376.08203l-.52344 2.39453m-.25781-3.0586l-.25781 1.19923m14.58593-.84375l-5.82422-3.92969m5.82422 3.92969l-.2539 2.4414m-.59375-3.01171l-.12891 1.21875m14.64453-1.31641l-6.53125-2.59375m6.53125 2.59375l.27344 2.4375m13.10547-2.60938l-6.65625-2.25m6.65625 2.25l.39844 2.42188m13.10156-3.44922l-7.02344-.19531m7.02344.19531l1.08984 2.19531M199.75 373.875l.54688 1.10156m13.69921-.3711l-6.84375-1.59374m6.84375 1.59375l.63282 2.3711M213 374.375l.63281 2.3711m13.71875-2.33204l-6.92187-1.21094m6.92187 1.21094l.76172 2.33203m-1.76953-2.5078l.76172 2.33202m13.60937-2.6211l-7.01953-.28124m7.01953.28125l1.06641 2.21094m-2.08594-2.25391l1.0625 2.21094m-2.08594-2.25l.53516 1.10547m14.82422-1.2422l-7.02344.15626m7.02344-.15625l1.20313 2.13672m-2.22266-2.11719l1.19922 2.14063m13.13672-2.1797l-7.02344.19532m7.02344-.19531l1.21093 2.13281m-2.23437-2.10547l1.21484 2.13281m-2.23437-2.10546l.60547 1.0664m14.72265-1.48828l-6.96484.92969m6.96484-.92969l1.42969 1.99219m-2.4414-1.85938l1.42968 1.9961m12.75-2.77735l-6.66797 2.22266m6.66797-2.22266l1.77735 1.6914m-2.75-1.36718l1.77734 1.6914m12.35156-2.40624l-6.35156 3.0039m6.35156-3.0039l1.96875 1.46875m-2.89453-1.03125L308 374.21094m-2.89062-1.03125l.98437.73437m14.01953-1.90625l-6.03515 3.60156m6.03515-3.60156l2.09766 1.26563m-2.97656-.74219l2.10156 1.26953m-2.98047-.7461l1.05078.63673m13.9961-1.72266l-5.98438 3.67969m5.98437-3.67969l2.1172 1.24219m-2.98829-.70703l2.11719 1.24218m-2.98438-.70703l1.05469.6211m14.26953-1.15625l-6.52344 2.60937m6.52344-2.60937l1.875 1.58203m-2.82422-1.20313l1.875 1.58203m12.6211-1.02734l-6.98828.74219m6.98828-.74219l1.375 2.03516m-2.39063-1.92579l1.3711 2.03125M358.5 373.65235l.6875 1.01954m14.67188-1.15235l-7.00391.57813m7.0039-.57813l1.32422 2.0625m-2.34375-1.98047l1.32422 2.0664m-2.34375-1.98046l.66407 1.03125m14.64453-1.54297l-6.91407 1.26563m6.91407-1.26563l1.52343 1.92188m-2.53125-1.73829l.76172.96094m13.57422-1.05078l-6.9414 1.07813m6.9414-1.07813l1.47266 1.96485m11.875-1.14063l-7.0039-.57031m7.0039.57031l.96875 2.2539m12.08203-1.17577l-6.47656-2.72657m5.53515 2.32813l.10938 1.22265m14.39453-1.74218l-6.97266-.89063m6.97266.89063l.86719 2.29296m12.4414-2.24218l-6.95703-.99219m6.95703.99219l.83203 2.3086m12.4961-2.44532l-6.98828-.72266"/><g clip-path="url(#ak)"><path fill="none" stroke="#000" stroke-linecap="round" stroke-linejoin="round" stroke-miterlimit="10" stroke-width=".5" d="M467.05469 374.16797l.92578 2.27344"/></g><g clip-path="url(#al)"><path fill="none" stroke="#000" stroke-linecap="round" stroke-linejoin="round" stroke-miterlimit="10" stroke-width=".5" d="M145.8789 363.46094l-3.7578-5.9375"/></g><path fill="none" stroke="#000" stroke-linecap="round" stroke-linejoin="round" stroke-miterlimit="10" stroke-width=".5" d="M145.8789 363.46094l-1.21484 2.13281"/><g clip-path="url(#am)"><path fill="none" stroke="#000" stroke-linecap="round" stroke-linejoin="round" stroke-miterlimit="10" stroke-width=".5" d="M145.33203 362.59766l-1.21484 2.1328"/></g><path fill="none" stroke="#000" stroke-linecap="round" stroke-linejoin="round" stroke-miterlimit="10" stroke-width=".5" d="M159.8711 362.90234l-5.11329-4.8203m5.11328 4.8203l-.64843 2.3672m-.09375-3.06642l-.64844 2.3672m14.85547-1.83594l-5.41406-4.48047m5.41406 4.48046l-.49219 2.40235m-.29297-3.05469l-.25 1.19922m14.64453-.96094l-6-3.65234m6 3.65234l-.14062 2.44922m13.70312-2.92969l-6.49219-2.6914m6.4922 2.6914l.23437 2.44141m13.20312-2.79688L207.20312 359.5m6.7422 1.98438l.49609 2.40234m-1.47657-2.6914l.2461 1.20312m14.14844-1.35156l-6.9375-1.10938m6.9375 1.10938l.79687 2.3203m-1.80469-2.48046l.79297 2.32031m13.57422-2.79687l-7.02734.16406m7.02734-.16406l1.20313 2.14062m-2.22657-2.11719l1.20313 2.14063m13.08203-2.6836l-6.92188 1.20313m6.92188-1.20313l1.50781 1.9375m-2.51172-1.76171l1.5039 1.9375m12.76954-2.33985l-6.82813 1.66016m6.82813-1.66016l1.63281 1.83203m-2.625-1.59375l1.6289 1.83594m12.73048-1.8125l-6.9336 1.13672m6.9336-1.13672l1.48828 1.95313m-2.4961-1.78907l1.48829 1.95313m12.78906-2.34766l-6.84375 1.59375m6.84375-1.59375l1.61328 1.85156m-2.60937-1.61718l.80859.92187m13.42969-1.42969l-6.69532 2.14063m6.69532-2.14063l1.7539 1.71094m-2.73047-1.39844l1.75782 1.71094m12.48828-2.14844l-6.60547 2.39454m6.60547-2.39454l1.82031 1.64454m-2.78125-1.29688l1.82031 1.64453m-2.78125-1.29687l.91016.82422m14.23047-1.75782l-6.41406 2.8711m6.41406-2.8711l1.9375 1.50391m-2.8711-1.08594l1.9375 1.5039m-2.87109-1.08593l.96875.75m14.39063-1.09765l-6.76563 1.89453m6.76563-1.89454l1.6953 1.77344m-2.67968-1.5l1.69531 1.77735m12.72657-1.35547l-7.01172.5039m7.01172-.5039l1.30468 2.07812m-2.32422-2.0039l1.30079 2.07812m-2.32032-2.00781l.64844 1.03906m14.64453-1.6211l-6.89062 1.37891m6.89062-1.3789l1.55469 1.89844m-2.55469-1.69922l1.55078 1.89843m-2.55468-1.6953l1.55468 1.89843m13.5664-2.94922l-6.49608 2.67578m6.49609-2.67578l1.89062 1.5625m-2.83593-1.17578l1.89062 1.5664m-2.83594-1.17578l1.89063 1.5625m13.32422-2.32421l-6.51172 2.64062m6.51172-2.64063L402.125 360.75m-2.82812-1.1914l1.8789 1.57421m12.5625-1.36719l-6.875 1.45313m6.875-1.45313l1.57422 1.88282m-2.57422-1.67188l.78906.9414m13.59766-.27733l-7.01953-.29688m7.01953.29688l1.0625 2.21484m12.25781-2.41016l-7.02734.09766m6.0039-.08594l.58985 1.07813m13.72656-1.44532l-6.98047.8047m6.98047-.8047l1.39063 2.01954m11.93359-1.90625l-7.0039.58203m5.98437-.4961l.66406 1.03125"/><g clip-path="url(#an)"><path fill="none" stroke="#000" stroke-linecap="round" stroke-linejoin="round" stroke-miterlimit="10" stroke-width=".5" d="M144.70313 350.6211l-1.40625-6.88673"/></g><g clip-path="url(#ao)"><path fill="none" stroke="#000" stroke-linecap="round" stroke-linejoin="round" stroke-miterlimit="10" stroke-width=".5" d="M144.70313 350.6211l-1.89063 1.5625"/></g><g clip-path="url(#ap)"><path fill="none" stroke="#000" stroke-linecap="round" stroke-linejoin="round" stroke-miterlimit="10" stroke-width=".5" d="M144.5 349.61719l-1.89453 1.5625"/></g><path fill="none" stroke="#000" stroke-linecap="round" stroke-linejoin="round" stroke-miterlimit="10" stroke-width=".5" d="M159.23438 350.1211l-3.83985-5.88673m3.83984 5.88672l-1.18359 2.14844m.625-3.0039l-.59375 1.07421m14.76953-.4414l-4.4414-5.4414m4.4414 5.4414l-.94922 2.26562m.3047-3.05469l-.95313 2.26172m15.40625-1.96484l-5.4336-4.45703m5.4336 4.45703l-.48047 2.40625m-.3086-3.05469l-.24218 1.20313m14.58984-.88281l-5.91406-3.79688m5.91406 3.79688l-.20313 2.4453m-.66015-3l-.09766 1.22266m14.70313-1.63671l-6.77344-1.86329m6.77344 1.86329l.53515 2.39453m-1.51953-2.66407l.53516 2.39454m13.86719-2.63282l-6.97657-.84765m6.97657.84765l.8828 2.28906m-1.89843-2.41406l.88281 2.28906m13.47266-2.58593h-7.02734m7.02734 0l1.15234 2.16406m-2.17578-2.16406l1.15235 2.16406m13.17578-2.42188l-7.00781.51563m7.0078-.51563l1.3086 2.07422m-2.32812-2l1.30859 2.07422m-2.32813-2l.65625 1.03906m14.61329-1.74609l-6.83594 1.63281m6.83594-1.6328l1.62109 1.83593m-2.61719-1.60156l1.625 1.83984m-2.61719-1.60156l.8086.92187m14.40234-1.71875l-6.64844 2.27735m6.64844-2.27735l1.78906 1.67969m-2.7578-1.34766l1.79296 1.67579m-2.76172-1.34375l.89844.83984m14.48047-1.00781l-6.90625 1.28515m6.90625-1.28515l1.53125 1.91796m-2.53516-1.73046l1.53125 1.91796m12.8086-1.99218l-6.94532 1.0586m6.94532-1.0586l1.46484 1.96875m-2.47656-1.8125l.73437.98437m13.51172-1.51953l-6.78516 1.82031m6.78516-1.8203l1.67578 1.79296m-2.66015-1.53125l1.67187 1.79688m12.60938-2.12891l-6.75 1.95703m6.75-1.95703l1.71093 1.76172m-2.6914-1.47656l1.70703 1.76171m12.53125-2.22656l-6.63281 2.3164m6.6328-2.3164l1.80079 1.66797m-2.76563-1.33203l1.80079 1.66797m-2.76563-1.32813l.89844.83203m14.54297-.39453l-7.02735.08985m7.02735-.08985l1.17968 2.15235m-2.20312-2.13672l1.17969 2.15234m-2.20313-2.14062l.58985 1.07421m14.74609-1.49609l-6.97266.8789m6.97266-.8789l1.41406 2.00781m-2.42969-1.8789l1.41407 2.0039m-2.42969-1.875L373.22656 349m13.72266-3.08203l-6.5586 2.51953m6.5586-2.51953l1.85547 1.60547m-2.8086-1.23828l1.85157 1.60546m-2.8047-1.23828l1.85157 1.60547m13.3164-2.47265l-6.44921 2.78906m6.44922-2.78906l1.91797 1.53125m-2.85547-1.12891l1.91797 1.53125m-2.85547-1.125L400.25 348.125m13.4414-1.8711l-6.78124 1.84766m6.78125-1.84765l1.67968 1.78906m-2.66797-1.51953l1.6836 1.78906m-2.66797-1.51953l1.67969 1.78515m13.65625-2.1328l-6.875 1.46484m6.875-1.46485l1.57422 1.88281m-2.57422-1.66796l1.57422 1.8789m-2.57422-1.66797l.78906.94141m14.5625-1.14844l-6.94922 1.02735m6.94922-1.02735l1.45703 1.97266m-2.46875-1.82422l.73047.98828m13.5586-1.34765l-6.875 1.44921m6.875-1.44921l1.57421 1.8828m11.73438-1.92577l-6.85938 1.53515"/><g clip-path="url(#aq)"><path fill="none" stroke="#000" stroke-linecap="round" stroke-linejoin="round" stroke-miterlimit="10" stroke-width=".5" d="M466.99219 346.41016l1.59375 1.86328"/></g><g clip-path="url(#ar)"><path fill="none" stroke="#000" stroke-linecap="round" stroke-linejoin="round" stroke-miterlimit="10" stroke-width=".5" d="M143.6875 337.36328l.625-7"/></g><g clip-path="url(#as)"><path fill="none" stroke="#000" stroke-linecap="round" stroke-linejoin="round" stroke-miterlimit="10" stroke-width=".5" d="M143.78125 336.34375l-1.13281.48047"/></g><path fill="none" stroke="#000" stroke-linecap="round" stroke-linejoin="round" stroke-miterlimit="10" stroke-width=".5" d="M158.01953 337.30469l-1.41016-6.88281m1.41016 6.8828l-1.89062 1.5625m1.6875-2.5625l-.94922.78126m14.39062.23437l-1.2539-6.91406m1.2539 6.91406l-1.92578 1.51953m1.74219-2.52734l-.96094.76172m14.36328.26172l-1.0625-6.94531m1.0625 6.9453l-1.96875 1.46485m17.4961-2.7461l-5.48828-4.3828m4.6914 3.74609l-.22656 1.20703m14.94922-1.71484l-6.70703-2.09766m6.70703 2.09766l.45312 2.41406m-1.42969-2.71875l.45313 2.41406m13.89844-2.32422l-6.82813-1.66406m6.82813 1.66406l.60547 2.375m-1.59766-2.61719l.60547 2.37891m-1.60156-2.6211l.30468 1.1875m15.08985-1.27343l-7.00781-.52344m7.0078.52344l.98829 2.2461m-2.00781-2.32423l.98828 2.2461m-2.00781-2.32031l.49218 1.12109m14.86328-1.44531l-7.01562.42969m7.01562-.4297l1.28125 2.09376m-2.30078-2.03125l1.28125 2.09375m-2.30078-2.03125l.64063 1.04687m14.64062-1.69922l-6.86719 1.48438m6.8672-1.48438l1.58593 1.8711m-2.58594-1.65625l1.58594 1.875m-2.58594-1.66016l.79297.9375m14.34766-1.9414l-6.51953 2.6289m6.51953-2.6289l1.8789 1.58203m-2.82812-1.19922l1.8789 1.57812m12.28516-2.17969l-6.32031 3.07032m6.32031-3.07031l1.98438 1.4453m-2.90235-1l1.98047 1.44532m-2.90234-.9961l.99218.72266m14.46875-.66406l-6.92968 1.16406m6.92968-1.16406l1.4961 1.94531m-2.5039-1.77734l.74609.97265m13.61328-.83984l-7.00391.5586m7.0039-.5586l1.32032 2.07031m-2.33984-1.98828l.66015 1.03516m13.66406-1.2461l-6.98046.82032m6.98046-.82031l1.39454 2.01953m-2.41016-1.89844l.69531 1.00781m13.57031-1.5l-6.85156 1.5625m6.85156-1.5625l1.60547 1.85156m-2.60156-1.625l.80078.92579m13.59766-.33985l-7.02735-.0664m7.02735.0664l1.13281 2.17969m-2.15625-2.1875l.5664 1.08984m13.75391-1.45703l-6.99218.6875m6.99218-.6875l1.35938 2.04688m-2.375-1.94532l1.35547 2.04297m-2.375-1.94531l.67968 1.02344m14.5547-1.83594l-6.76173 1.91406m6.76172-1.91406l1.69922 1.76953m-2.6836-1.49219l1.69923 1.76954m12.58593-2.10547l-6.73047 2.03125m6.73047-2.03125l1.72657 1.73828m-2.70704-1.44531l.86329.87109m13.4453-1.10938l-6.7578 1.92188m6.7578-1.92188l1.70313 1.76954m-2.6836-1.48829l1.69923 1.76563m12.46875-2.42578l-6.5 2.67578m6.5-2.67578l1.88672 1.5664m-2.83203-1.17578l1.88671 1.5664m-2.83203-1.17577l.9414.78125m14.3672-1.26563l-6.70703 2.08594m6.70703-2.08594l1.74609 1.72656m-2.72266-1.42578l1.7461 1.72657m-2.72266-1.42188l.875.86328m14.48047-1.1289l-6.88281 1.40234m6.88281-1.40234l1.5625 1.89453m-2.5625-1.6875l1.5625 1.89062m-2.5625-1.6875l.77734.94531m14.41797-1.79687l-6.64453 2.28906"/><g clip-path="url(#at)"><path fill="none" stroke="#000" stroke-linecap="round" stroke-linejoin="round" stroke-miterlimit="10" stroke-width=".5" d="M466.88281 332.71875l1.79688 1.67578"/></g><path fill="none" stroke="#000" stroke-linecap="round" stroke-linejoin="round" stroke-miterlimit="10" stroke-width=".5" d="M465.91797 333.05078l1.79297 1.67578"/><g clip-path="url(#au)"><path fill="none" stroke="#000" stroke-linecap="round" stroke-linejoin="round" stroke-miterlimit="10" stroke-width=".5" d="M144.54688 324.01953l-1.09375-6.9414"/></g><g clip-path="url(#av)"><path fill="none" stroke="#000" stroke-linecap="round" stroke-linejoin="round" stroke-miterlimit="10" stroke-width=".5" d="M144.54688 324.01953l-1.96094 1.47266"/></g><g clip-path="url(#aw)"><path fill="none" stroke="#000" stroke-linecap="round" stroke-linejoin="round" stroke-miterlimit="10" stroke-width=".5" d="M144.38672 323.00781l-.98047.73828"/></g><path fill="none" stroke="#000" stroke-linecap="round" stroke-linejoin="round" stroke-miterlimit="10" stroke-width=".5" d="M157.83984 324.02344l-1.04687-6.94922m1.04687 6.94922l-1.97265 1.46094m1.82031-2.47266l-.98828.73047m14.5039.27344l-1.14453-6.9336m1.14453 6.9336l-1.94921 1.48828m1.78125-2.5l-.97266.74609m15.01563.125l-2.26563-6.65234m2.26563 6.65234l-1.6797 1.78906m16.47266-2.76562l-5.22265-4.70313m5.22265 4.70313l-.59375 2.38281m14.6172-3.58203l-6.63673-2.30469m6.63672 2.30469l.3789 2.42578m-1.34374-2.75781l.375 2.42187m14.09765-3.17578l-7.02343-.1289m7.02343.1289l1.11328 2.1875m-2.1328-2.20703l1.10937 2.1875m13.22656-2.23438h-7.02734m7.02734 0l1.15234 2.16797m-2.17578-2.16796l1.15235 2.16796m-2.17188-2.16796l.57422 1.08593m14.71484-1.78515l-6.88672 1.39843m6.88672-1.39843l1.5586 1.89453m-2.5625-1.6914l1.5625 1.89452m12.63672-2.53906l-6.64844 2.28125m6.64844-2.28125l1.79297 1.67578m-2.76172-1.34375l1.79297 1.67578m12.53125-1.8711l-6.73047 2.01173m6.73047-2.01172l1.72656 1.7461m-2.70313-1.45313l1.72266 1.7461m12.40234-2.4922l-6.39453 2.91797m6.39453-2.91797l1.94531 1.4922m-2.8789-1.06642l1.94922 1.4922m12.48047-1.42188l-6.75782 1.92187m6.75782-1.92187l1.69921 1.76953m-2.68359-1.48828l1.70313 1.76953m12.73046-1.17188l-7.02734.16797m7.02734-.16797l1.20313 2.13672m-2.22656-2.11328l1.20312 2.14063m-2.22656-2.1172l.60156 1.07032m14.75-1.29687l-7.00781.52734m7.00781-.52734l1.3125 2.07421m-2.33203-2l1.3125 2.07422m12.99219-2.42968l-6.94531 1.08593m6.9453-1.08593l1.47266 1.96484m-2.48437-1.80469l1.47266 1.96094m12.87109-1.97656l-6.98047.79687m6.98047-.79687l1.39062 2.02344m11.8086-2.60547l-6.7461 1.96484m6.7461-1.96484l1.71094 1.7578m11.17187-2.6953l-5.88672 3.83984m5.88672-3.83984l2.14844 1.18359m-3.0039-.625l2.14843 1.1836m12.16016-1.51173l-6.16016 3.37891m6.16016-3.3789l2.05078 1.34375m11.52734-.73829l-6.6875 2.16407m5.71484-1.84766l.88282.85156m10.75781-3.52734l-1.39453 6.88672m1.1914-5.88672l1.1797-.34766m13.70702-.05078l-4.1289 5.6836m3.52734-4.85938l1.21484.17188m13.79688.3125l-6.32031 3.0664m6.32031-3.0664l1.98437 1.4453m-2.90234-1l.99219.72266m12.89453-1.74218l-5.625 4.21093"/><g clip-path="url(#ax)"><path fill="none" stroke="#000" stroke-linecap="round" stroke-linejoin="round" stroke-miterlimit="10" stroke-width=".5" d="M466.375 318.4414l2.21875 1.04688"/></g><g clip-path="url(#ay)"><path fill="none" stroke="#000" stroke-linecap="round" stroke-linejoin="round" stroke-miterlimit="10" stroke-width=".5" d="M465.55469 319.05469l2.22265 1.04297"/></g><path fill="none" stroke="#000" stroke-linecap="round" stroke-linejoin="round" stroke-miterlimit="10" stroke-width=".5" d="M464.73828 319.66797l1.10938.52344"/><path fill="#ff3030" fill-rule="evenodd" d="M322.35938 463.21094h7.6914V453.0625h-7.6914v10.14844"/><path fill="azure" fill-rule="evenodd" d="M324.1914 454.89844h.83204v5.73828h3.19531v.74219h-4.02734v-6.48047"/><path fill="#ff3030" fill-rule="evenodd" d="M162.57813 454.33203h7.6914V444.1875h-7.6914v10.14453"/><path fill="azure" fill-rule="evenodd" d="M164.41016 446.01953h.83203v5.73828h3.19531V452.5h-4.02734v-6.48047"/><path fill="#ffffe0" fill-rule="evenodd" d="M368.375 461.32813h22.17969V451.1328H368.375v10.19531"/><path fill-rule="evenodd" d="M371.875 452.96875h.50781v6.29297h-.78906v-4.48828h-1.38672v-.55469l.5586-.0664.2539-.0547.23047-.08984.20313-.14062.17187-.21094.14453-.29297.10547-.39453m4.8125 0l.23047.01953.21875.05469.20703.08984.19531.1211.1836.14843.17187.17579.30078.41796.2461.4961.17968.54687.10938.57813.03906.58984-.03906.59375-.10938.58203-.17968.55469-.2461.5039-.30078.42579-.17187.17969-.1836.15625-.19531.12109-.20703.09375-.21875.05469-.23047.01953-.23047-.01953-.21875-.0547-.20703-.09374-.19531-.1211-.1875-.15625-.16797-.17968-.30469-.42578-.24219-.50391-.17968-.55469-.11329-.58203-.03515-.59375h.83203l.02734.5625.08204.50781.1289.44141.16016.375.1914.30078.21094.22266.22266.13672.22656.04687.22656-.04687.22266-.13672.21094-.22266.1914-.30078.16016-.375.1289-.4414.07813-.50782.03125-.5625-.03125-.5625-.07813-.5-.1289-.4336-.16016-.36718-.1914-.29297-.21094-.21094-.22266-.1328-.22656-.04688-.22656.04687-.22266.13281-.21094.21094-.1914.29297-.16016.36719-.1289.4336-.08204.5-.02734.5625h-.83203l.03515-.58985.11329-.57813.17968-.54687.2422-.4961.30468-.41796.16797-.17579.1875-.14843.19531-.1211.20703-.08984.21875-.05469.23047-.01953m5.08984 0h.51172v6.29297H381.5v-4.48828h-1.38672v-.55469l.5586-.0664.2539-.0547.22656-.08984.20313-.14062.17578-.21094.14063-.29297.10546-.39453m2.82422 2.17578h.78906l.01954-.3164.05859-.28907.09766-.25.14062-.21484.17969-.17578.22656-.1289.26172-.08204.3086-.02734.23827.02343.22266.0625.20703.10157.17969.13671.14844.17579.11328.20312.07031.23828.02344.26172-.01953.26953-.0664.22656-.10938.19141-.15625.17188-.19922.16015-.25.16797-.63281.38672-.53516.3125-.4375.32031-.34766.32422-.26562.33594-.1875.34765-.125.3711-.07031.39453-.01954.41797h4.21094v-.73828h-3.33203l.08203-.28516.11328-.23828.14844-.19922.1875-.1836.23047-.16796.27734-.17578.71875-.41797.41406-.20703.34766-.23047.28125-.25.21875-.26563.16406-.28125.10938-.28125.0664-.28515.01954-.28125-.04297-.38281-.1211-.34766-.1875-.3086-.25-.26562-.30468-.21094-.34375-.15625-.38282-.10156-.40625-.03125L386.25 453l-.39844.09766-.35547.16796-.30468.23438-.2461.30469-.1875.375-.11719.44531-.03906.51953"/><path fill="#ffffe0" fill-rule="evenodd" d="M252.97656 454.0039h22.17969v-10.1953h-22.17969v10.1953"/><path fill-rule="evenodd" d="M256.47656 445.64453h.50781v6.29297h-.78515v-4.48828h-1.39063v-.55469l.5625-.0664.25-.0547.23047-.08984.20313-.14062.17578-.21094.14062-.29297.10547-.39453m4.8125 0l.23047.01953.21875.05469.20703.08984.19531.1211.1875.14844.17188.17578.30078.41796.24219.4961.17969.54687.11328.57813.03515.58984-.03515.59375-.11328.58594-.1797.55078-.24218.5039-.30078.42579-.17188.17969-.1875.15625-.1953.12109-.20704.09375-.21875.05469-.23047.01953-.22656-.01953-.22266-.05469-.20703-.09375-.19531-.1211-.1836-.15624-.17187-.1797-.30078-.42577-.2461-.5039-.17968-.55079-.10938-.58594-.03906-.59375h.83203l.03125.5625.08203.50781.125.44141.16016.375.1914.30078.21094.22266.22266.13672.22656.04687.22656-.04687.22266-.13672.21094-.22266.1914-.30078.16407-.375.125-.4414.08203-.50782.02734-.5625-.02734-.5625-.08203-.5-.125-.4336-.16406-.36718-.19141-.29297-.21094-.21094-.22265-.1328-.22657-.04688-.22656.04687-.22266.13281-.21093.21094-.19141.29297-.16016.36719-.125.4336-.08203.5-.03125.5625h-.83203l.03906-.58985.10938-.57813.17969-.54687.24609-.4961.30078-.41796.17188-.17579.18359-.14843.19531-.1211.20703-.08984.22266-.05469.22656-.01953m5.09375 0h.50781v6.29297h-.78515v-4.48828h-1.39063v-.55469l.5586-.0664.2539-.0547.23047-.08984.20313-.14062.17187-.21094.14453-.29297.10547-.39453m2.82031 2.17578h.78907l.01953-.3164.0586-.28907.09765-.25.14062-.21484.1836-.17578.22265-.1289.26563-.08204.3086-.02734.23437.02344.22656.0625.20313.10156.17968.13672.14844.17578.11328.20312.07031.23828.02735.26172-.02344.26953-.0664.22657-.10938.1914-.15625.17188-.19922.16015-.2461.16797-.63671.38672-.53516.3125-.4375.32031-.34765.32422-.26172.33594-.19141.35156-.125.36719-.07031.39453-.01953.41797h4.21093v-.73828h-3.33203l.08203-.28516.11329-.23828.14843-.19922.1875-.1836.23047-.16796.28125-.17578.71485-.41797.41796-.20703.34375-.23047.28125-.25.21875-.26563.16407-.28125.11328-.28125.0625-.28515.01953-.28125-.04297-.38281-.11719-.34766-.1914-.3086-.25-.26171-.30079-.21485-.34765-.15625-.3789-.10156-.40626-.03125-.4375.03125-.39844.09766-.35156.16797-.3086.23437-.24608.30469-.1875.375-.11329.44531-.04296.51953"/><path fill="#ffffe0" fill-rule="evenodd" d="M346.1836 384.69922h22.17968V374.5039H346.1836v10.1953"/><path fill-rule="evenodd" d="M349.6836 376.33984h.5078v6.29297h-.78906v-4.48828h-1.38671v-.55469l.55859-.0664.2539-.05469.23047-.08984.20313-.14063.17187-.21094.14063-.29296.10937-.39454m4.8125 0l.23047.01563.21875.0586.20703.08984.19532.12109.18359.14844.17188.17578.30078.41797.24609.4961.17969.54296.10937.58203.03906.58985-.03906.59375-.10937.58203-.17969.55468-.2461.50391-.30077.42578-.17188.17969-.1836.15625-.1953.1211-.20704.09374-.21875.05469-.23047.01953-.23046-.01953-.21875-.05469-.20704-.09375-.1953-.1211-.1875-.15624-.16798-.17969-.30469-.42578-.24218-.5039-.17969-.5547-.11328-.58202-.03516-.59375h.83203l.02735.5625.08203.5078.1289.44141.16016.375.1914.30079.21094.22265.22266.13672.22656.04688.22657-.04688.22265-.13672.21094-.22265.1914-.30079.16016-.375.125-.4414.08203-.50781.03125-.5625-.03125-.5625-.08203-.5-.125-.4336-.16015-.36719-.19141-.29296-.21094-.21485-.22265-.1289-.22657-.04688-.22656.04688-.22265.1289-.21094.21485-.1914.29296-.16017.3672-.1289.43358-.08203.5-.02735.5625h-.83203l.03516-.58984.11328-.58203.17969-.54297.24219-.4961.30468-.41796.16797-.17578.1875-.14844.19531-.1211.20704-.08984.21875-.0586.23046-.01562m5.08985 0h.51172v6.29297h-.78907v-4.48828h-1.38671v-.55469l.55859-.0664.2539-.05469.22657-.08984.20312-.14063.17578-.21094.14063-.29296.10547-.39454m6.80469 1.6172h-.78516l-.05469-.21095-.07812-.1875-.10938-.15625-.1289-.1328-.14844-.10157-.16016-.07422-.16797-.04688-.17187-.01562-.32813.04297-.28515.11719-.2461.19921-.20703.26563-.16015.33984-.11329.40235-.0703.46875-.02345.52734.1875-.20312.1875-.16016.1836-.1211.1875-.08984.1875-.0586.1914-.03905.40235-.02344.30469.03125.3203.08984.31641.15625.29688.21875.2539.28516.19922.35156.07422.19922.05078.21875.02735.23438.00781.25-.78906.04687-.02735-.25781-.07812-.25-.1211-.23438-.16015-.21094-.19531-.17968-.21875-.13672-.23829-.08594-.2578-.03125-.25391.03125-.23829.08594-.22265.13672-.1914.17969-.16016.21093-.125.23438-.07422.25-.02735.25781.02735.25781.07422.2539.125.23438.16015.20704.1914.17968.22267.13672.23828.08985.2539.03125.25781-.03125.23829-.08985.21875-.13672.1953-.17969.16017-.20703.12109-.23437.07812-.2539.02735-.25782.78906-.04688-.03125.3711-.09375.3711-.15625.35937-.22266.32812-.28906.28125-.17187.1211-.1875.10156-.20704.08203-.22265.0625-.24219.03906-.26172.01172-.28125-.01562-.26172-.04688-.23437-.07422-.21875-.10547-.19531-.1328-.17188-.15626-.15625-.17969-.13281-.20312-.11719-.22266-.09765-.24219-.14844-.53515-.08594-.59375-.02734-.63672.03906-.7461.11328-.66406.1875-.57421.1211-.25782.13671-.23047.15235-.20703.17187-.17969.1875-.15625.19922-.1289.21875-.10156.23438-.07422.24609-.04688.26172-.01172.36719.03125.33203.09766.29296.14844.25782.20312.21094.23828.16796.27735.11329.30078.0625.32031"/><path fill="#ffffe0" fill-rule="evenodd" d="M201.69531 352.48438H223.875v-10.19532h-22.17969v10.19531"/><path fill-rule="evenodd" d="M205.19531 344.125h.50781v6.29297h-.78515v-4.48828h-1.39063v-.5586l.5586-.0625.2539-.05468.23047-.08985.20313-.14062.17187-.21094.14453-.29297.10547-.39453m4.8125 0l.23047.01563.21875.05859.20703.08984.19531.11719.1836.15234.17187.17579.3047.41796.24218.4961.17969.54297.10937.58203.03906.58984-.03906.59375-.10937.58203-.1797.55469-.24218.5039-.30469.42579-.17187.17969-.1836.15234-.1953.125-.20704.09375-.21875.05469-.23047.01953-.23047-.01953-.21875-.0547-.20703-.09374-.19531-.125-.1836-.15235-.17187-.17968-.30469-.42578-.24218-.50391-.1797-.55469-.10937-.58203-.03906-.59375h.83203l.03125.5625.07813.50781.1289.44141.16016.375.1914.30078.21094.22266.22266.13672.22656.04687.22656-.04687.22266-.13672.21094-.22266.1914-.30078.16016-.375.1289-.4414.08204-.50782.02734-.5625-.02734-.5625-.08203-.5-.1289-.4336-.16017-.36718-.1914-.29297-.21094-.21484-.22266-.1289-.22656-.04688-.22656.04687-.22266.1289-.21093.21485-.19141.29297-.16016.36719-.1289.4336-.07813.5-.03125.5625h-.83203l.03906-.58985.10938-.58203.17969-.54297.24218-.4961.3047-.41796.17187-.17579.18359-.15234.19531-.11719.20703-.08984.21875-.0586.23047-.01562m5.08985 0h.51172v6.29297h-.78907v-4.48828h-1.38672v-.5586l.5586-.0625.2539-.05468.22657-.08985.20703-.14062.17187-.21094.14063-.29297.10547-.39453m6.80468 1.61719h-.78515l-.05078-.21094-.08203-.1875-.10938-.15625-.1289-.13281-.14844-.10156-.15625-.07422-.17188-.04688-.17187-.01562-.32813.04296-.28516.1172-.24609.19921-.20312.26563-.16016.33984-.11719.40234-.07031.46875-.02344.52735.1875-.20313.1875-.16015.1836-.1211.1875-.08984.1875-.0625.1914-.03516.40235-.02344.30859.03125.32031.08985.3125.15625.29688.21875.2539.28515.19922.35157.07422.19922.05078.21875.03125.23437.0039.25-.78905.04688-.02735-.25782-.07422-.25-.125-.23828-.16015-.20703-.1914-.17969-.22267-.13671-.23828-.08594-.2539-.03125-.25781.03125-.23829.08594-.21875.13671-.1953.1797-.16017.20702-.12109.23828-.07812.25-.02735.25782.02735.2578.07812.25392.1211.23437.16015.20703.19531.17969.21875.13672.23828.08984.25782.03125.2539-.03125.23828-.08984.22266-.13672.1914-.17969.16016-.20703.125-.23438.07422-.2539.02735-.25781.78906-.04688-.03125.3711-.09375.37109-.15625.35937-.22266.32813-.28906.28125-.17188.1211-.1875.10156-.20703.08203-.22265.0625-.24219.03906-.25781.01172-.28516-.01563-.25781-.04687-.23828-.07422-.21875-.10547-.1914-.13281-.17579-.15625-.15234-.17969-.13672-.20313-.11719-.22265-.09766-.24219-.14843-.53515-.08594-.59375-.02344-.63672.03516-.7461.11719-.66406.18359-.57422.1211-.25781.13671-.23047.15234-.20703.17188-.17969.1875-.15625.19922-.1289.21875-.10157.23437-.07422.2461-.04687.26172-.01172.36718.03125.33203.09766.29688.14843.2539.19922.21094.24219.16797.27344.11328.30469.0625.3203"/><path fill="#ffffe0" fill-rule="evenodd" d="M312.69922 325.85156h22.13672v-10.1914h-22.13672v10.1914"/><path fill-rule="evenodd" d="M316.19922 317.49219h.51172v6.29687h-.78906v-4.49219h-1.38672v-.55468l.55859-.0664.25-.05079.23047-.08984.20312-.14063.17579-.21094.14062-.29687.10547-.39453m4.8164 0l.22657.01953.21875.05469.21094.08984.1953.1211.1836.14843.17188.17578.30078.42188.24219.49219.17968.54687.11328.57813.03907.59375-.03907.58984-.11328.58594-.17969.55468-.24218.5-.30078.4297-.17188.17968-.1836.15234-.1953.125-.21094.08985-.21875.05859-.22656.01953-.23047-.01953-.21875-.0586-.20704-.08984-.19921-.125-.1836-.15234-.17187-.17969-.30078-.42969-.2422-.5-.17968-.55468-.11328-.58594-.03906-.58985h.83594l.02734.5625.08203.50391.125.44531.16406.375.1914.29688.21095.22265.22265.13672.22656.04688.22266-.04688.22266-.13671.21094-.22266.1914-.29688.16406-.375.125-.4453.08204-.50392.02734-.5625-.02735-.5625-.08203-.5-.125-.4375-.16406-.36328-.1914-.29296-.21094-.21485-.22266-.13281-.22265-.04297-.22657.04297-.22265.13281-.21094.21485-.1914.29296-.16407.36329-.125.4375-.08203.5-.02735.5625h-.83593l.03906-.59375.11328-.57813.17969-.54688.24219-.49218.30078-.42188.17187-.17578.1836-.14844.19921-.12109.20704-.08984.21875-.0547.23046-.01952m2.96094 2.17578h.78516l.01953-.3164.0586-.28516.10156-.25391.14062-.21484.17969-.17188.22265-.1289.26563-.08204.3086-.02734.23827.01953.22266.0625.20313.10156.17968.14063.14844.17187.11328.20704.07422.23437.02344.26563-.01953.26953-.0664.22265-.10938.1914-.15625.17188-.20313.16407-.2461.16406-.6328.39062-.53907.3125-.4375.31641-.34375.32422-.26562.33594-.1914.35156-.125.3711-.06642.39062-.02343.42187h4.21484v-.74219h-3.33594l.08594-.28515.11328-.23438.14844-.20312.1875-.17969.23047-.17187.27734-.17579.71875-.41406.41406-.20703.34375-.23047.28125-.25.22266-.26953.16016-.27734.11328-.28516.0625-.28515.01953-.28125-.03906-.38282-.1211-.34765-.1914-.3086-.25-.26172-.30078-.21093-.34375-.16016-.38282-.09766-.40625-.03515-.43359.03515-.39844.09766-.35547.16406-.30468.23438-.25.30469-.1836.375-.11719.4453-.03906.51954m6.9414-2.17578l.23048.01953.21875.05469.20703.08984.19922.1211.1836.14843.17187.17578.30078.42188.24219.49219.17968.54687.11328.57813.03516.59375-.03516.58984-.11328.58594-.17969.55468-.24218.5-.30078.4297-.17188.17968-.1836.15234-.19921.125-.20703.08985-.21875.05859-.23047.01953L330.6914 324l-.22266-.0586-.20703-.08984-.19531-.125-.1836-.15234-.17187-.17969-.30078-.42969-.2461-.5-.17969-.55468-.10937-.58594-.03906-.58985h.83203l.03125.5625.08203.50391.125.44531.16406.375.1875.29688.21094.22265.22266.13672.22656.04688.22656-.04688.22266-.13671.21094-.22266.1914-.29688.16406-.375.125-.4453.08204-.50392.02734-.5625-.02735-.5625-.08203-.5-.125-.4375-.16406-.36328-.1914-.29296-.21094-.21485-.22266-.13281-.22656-.04297-.22656.04297-.22266.13281-.21094.21485-.1875.29296-.16406.36329-.125.4375-.08203.5-.03125.5625h-.83203l.03906-.59375.10938-.57813.17968-.54688.2461-.49218.30078-.42188.17187-.17578.1836-.14844.1953-.12109.20704-.08984.22266-.0547.22656-.01952"/></g></defs><use xlink:href="#az"/></svg>