<svg xmlns="http://www.w3.org/2000/svg" role="img" xmlns:xlink="http://www.w3.org/1999/xlink" viewBox="142.45 309.95 326.84 171.84"><defs><clipPath id="a"><path d="M144 311.67188h1v168.65625h-1zm0 0"/></clipPath><clipPath id="b"><path d="M144 311.67188h324v168.65625H144zm0 0"/></clipPath><clipPath id="c"><path d="M467 311.67188h1v168.65625h-1zm0 0"/></clipPath><clipPath id="d"><path d="M144 480h4v.32813h-4zm0 0"/></clipPath><clipPath id="e"><path d="M147 480h2v.32813h-2zm0 0"/></clipPath><clipPath id="f"><path d="M153 479h9v1.32813h-9zm0 0"/></clipPath><clipPath id="g"><path d="M160 480h3v.32813h-3zm0 0"/></clipPath><clipPath id="h"><path d="M166 479h9v1.32813h-9zm0 0"/></clipPath><clipPath id="i"><path d="M172 480h2v.32813h-2zm0 0"/></clipPath><clipPath id="j"><path d="M180 479h8v1.32813h-8zm0 0"/></clipPath><clipPath id="k"><path d="M187 480h2v.32813h-2zm0 0"/></clipPath><clipPath id="l"><path d="M193 479h9v1.32813h-9zm0 0"/></clipPath><clipPath id="m"><path d="M200 480h3v.32813h-3zm0 0"/></clipPath><clipPath id="n"><path d="M206 479h9v1.32813h-9zm0 0"/></clipPath><clipPath id="o"><path d="M213 479h3v1.32813h-3zm0 0"/></clipPath><clipPath id="p"><path d="M220 479h8v1.32813h-8zm0 0"/></clipPath><clipPath id="q"><path d="M227 479h3v1.32813h-3zm0 0"/></clipPath><clipPath id="r"><path d="M233 479h8v1.32813h-8zm0 0"/></clipPath><clipPath id="s"><path d="M240 479h3v1.32813h-3zm0 0"/></clipPath><clipPath id="t"><path d="M246 478h9v2.32813h-9zm0 0"/></clipPath><clipPath id="u"><path d="M253 478h3v2.32813h-3zm0 0"/></clipPath><clipPath id="v"><path d="M260 478h8v2.32813h-8zm0 0"/></clipPath><clipPath id="w"><path d="M265 479h3v1.32813h-3zm0 0"/></clipPath><clipPath id="x"><path d="M273 479h8v1.32813h-8zm0 0"/></clipPath><clipPath id="y"><path d="M279 479h2v1.32813h-2zm0 0"/></clipPath><clipPath id="z"><path d="M286 479h9v1.32813h-9zm0 0"/></clipPath><clipPath id="A"><path d="M292 479h2v1.32813h-2zm0 0"/></clipPath><clipPath id="B"><path d="M300 479h8v1.32813h-8zm0 0"/></clipPath><clipPath id="C"><path d="M305 479h3v1.32813h-3zm0 0"/></clipPath><clipPath id="D"><path d="M313 479h8v1.32813h-8zm0 0"/></clipPath><clipPath id="E"><path d="M319 479h2v1.32813h-2zm0 0"/></clipPath><clipPath id="F"><path d="M327 478h7v2.32813h-7zm0 0"/></clipPath><clipPath id="G"><path d="M342 476h3v4.32813h-3zm0 0"/></clipPath><clipPath id="H"><path d="M354 477h6v3.32813h-6zm0 0"/></clipPath><clipPath id="I"><path d="M366 480h9v.32813h-9zm0 0"/></clipPath><clipPath id="J"><path d="M367 478h2v2.32813h-2zm0 0"/></clipPath><clipPath id="K"><path d="M379 480h9v.32813h-9zm0 0"/></clipPath><clipPath id="L"><path d="M380 478h2v2.32813h-2zm0 0"/></clipPath><clipPath id="M"><path d="M393 480h8v.32813h-8zm0 0"/></clipPath><clipPath id="N"><path d="M393 479h2v1.32813h-2zm0 0"/></clipPath><clipPath id="O"><path d="M406 479h9v1.32813h-9zm0 0"/></clipPath><clipPath id="P"><path d="M406 479h3v1.32813h-3zm0 0"/></clipPath><clipPath id="Q"><path d="M419 479h9v1.32813h-9zm0 0"/></clipPath><clipPath id="R"><path d="M420 479h2v1.32813h-2zm0 0"/></clipPath><clipPath id="S"><path d="M433 479h8v1.32813h-8zm0 0"/></clipPath><clipPath id="T"><path d="M433 478h2v2.32813h-2zm0 0"/></clipPath><clipPath id="U"><path d="M446 478h8v2.32813h-8zm0 0"/></clipPath><clipPath id="V"><path d="M460 477h7v3.32813h-7zm0 0"/></clipPath><clipPath id="W"><path d="M144 466h4v2h-4zm0 0"/></clipPath><clipPath id="X"><path d="M144 452h4v3h-4zm0 0"/></clipPath><clipPath id="Y"><path d="M144 439h4v3h-4zm0 0"/></clipPath><clipPath id="Z"><path d="M144 425h4v4h-4zm0 0"/></clipPath><clipPath id="aa"><path d="M465 424h3v2h-3zm0 0"/></clipPath><clipPath id="ab"><path d="M144 411h3v6h-3zm0 0"/></clipPath><clipPath id="ac"><path d="M465 410h3v3h-3zm0 0"/></clipPath><clipPath id="ad"><path d="M144 398h4v5h-4zm0 0"/></clipPath><clipPath id="ae"><path d="M465 397h3v2h-3zm0 0"/></clipPath><clipPath id="af"><path d="M144 384h4v6h-4zm0 0"/></clipPath><clipPath id="ag"><path d="M465 384h3v2h-3zm0 0"/></clipPath><clipPath id="ah"><path d="M144 370h3v7h-3zm0 0"/></clipPath><clipPath id="ai"><path d="M144 356h1v9h-1zm0 0"/></clipPath><clipPath id="aj"><path d="M144 355h2v3h-2zm0 0"/></clipPath><clipPath id="ak"><path d="M144 344h3v6h-3zm0 0"/></clipPath><clipPath id="al"><path d="M144 331h3v6h-3zm0 0"/></clipPath><clipPath id="am"><path d="M144 316h1v9h-1zm0 0"/></clipPath><clipPath id="an"><path d="M144 317h2v2h-2zm0 0"/></clipPath><clipPath id="ao"><path d="M465 317h3v2h-3zm0 0"/></clipPath><g id="ap" clip-path="url(#clip1)"><path fill="#fff" fill-opacity="0" fill-rule="evenodd" d="M0 0h1000v1000H0zm0 0"/><path fill="#d3d3d3" fill-opacity="0" fill-rule="evenodd" d="M162.15234 355.86719l-.23437.29297.0586.23437.11718.17188.17578.23437.29297.34766.11328.0586.11719-.17188.0586-.23438.17577-.17578.46485-.17578h.69922l.23437.29297.28906.8164.0586.17579.17578.23046.35156.23438.69922.69922.17188.17578.23437.34765.23438.41016.28906.58203.41015.46485.23047.23437.23438.17578.11719.23047.17578.29297.17187 1.16406v.23438l.0586.28906.05859.11719.11719.11719.34765.41015.11719.17188.17578.17578.17578.23437.11719.17188.17188.35156.05859.23438.23437.40625.23438-.0586-.17578.17578-.0586.92969h-.58203l-.23437-.11328-.34766.11328-.11719.11719-.05859.29297-.0586.17578-.11718.17187-.46484.29297-.0586.23438-.0586.11328v.64453l.0586.17187v.41016l.0586.0586v.40624l.05859.40625.11719.17579.05859.05859.23047.64062-.0586.29297v.69922l-.05859.58203v.23438l-.0586.23047-.05468.35156v1.92187l.05469.1172h.42578l-.36719.11718-.02344.35156.89063 1.16797 1.74219.53906 1.33984.35938v.53906l.08984.8086.53516.71484 1.51953.26953.89063-.08594.08984 1.16406.53516.1797 1.16015-.1797 2.05469-.98437 1.16016-.36328 1.8789-.17578 1.69531-.1797-.17968.71876-1.51563.08594-1.25.08984-.80469.26953-1.07421.8086.26953.71875.53515.89843-.17968.625-.26563.8086.26563 1.07812.625.89844.80468.17969 1.25-.1797-.26562.72267.09766.5039.05468.29297v.17188l.0586.29296v.40625l.17578.1172.35156.11718h.40625l.29297-.17578.11328-.11719.0586-.11719.11718-.23047.0586-.17578.35156-.46484.23047-.17578.17578-.0586.17578.0586.0586.17578.11718.98828.05469.46875.0586.17188.11718.23437.17578.0586.8164.05859h.28907l.11719.23437.05859.40625.0586.35156v1.10547l.11718.29297.11719.34766.28906.69922.17578.35156.58203.7539.35157.17579.17187.0586.46875.23437.64063.46484.34765.23438.29297.17578.29297.05468.23047.0625.8164.34766.29297.17578.11328.17188.35157.35156.11719.17578.52343.64063v.28906l.0586.35156v.34766l.05859.35156.0586.28906.11718.0586.17188.05859h.17578l.58203.23437.17578.1172.17578.28905.17578.23438.11328.23437.29297.23047.11719.11719v.41016l.0586.05468.28906.23438.23437.11719.0586.11718.11718.17188.0586.11719.23047.23437.05859.17578.23437.0586.1172.05859-.1172.11328-.05859.11719v.11719l-.11719.29296-.11719.28907v.58203l.17579.11719.11718.05859.0586.11719.11719.11719.11328.05859.17578.34765.0586.35157.05858.40625v.17578l-.05859.17578-.11719.69922v.17187l.1172.17579.29296.29296h.40625l.17578.1172.11719.17187.11719.29296v.23438h-.52735l-.23047-.23438h-.23437l-.17578.0586-.0586.69922.0586.34765.11719.17579.17578.41015.11718.23047.28907.46875.17578.05469h.52344l.23437.0586.75781.64062.0586.29296v.23438l.05859.0586.23047.34765v.35156l-.11719.17188v.29297l.29297.28906.29297.17578.17187.0586.29297.17577.29297.1172.58203.40624.28906.23438.29297.17578.21875.16015.01563.01172.23047.17579.64062.52343.17578.23438.1172.17578.17577.17578.11328.17188v.64062l.1172.17578.46874.11719.58203.11719.23438.05859.23047.11328.29297.11719.11328.0586.58593.35156.28907.17187.17578.0625.17578.05469.17578.0586.69922.35155.28906.17579.23438.05468.28906.17578.23437.1172.64063.40624.29297.11719.17187.0586.23438.05859.41015.05859.23047.0586.23438.11718.0586.17188-.41017.17578.46875.0586.0586.29296.11328.23438.17578.05468.23438.0586.17578.05859.40625.11719.64062.23437.11719.17188.0586.23437v.17578l-.0586.1172-.0586.40624.23438.23438.11719.05859.34766.11719.64062.23047.17578.11718.28906.1172.17578.17577.23438.46485.58203 1.10546.17578.17579.34766.17578.17578.11719.35156.11718 1.04688.52344.23437.0586.46485.11327.29297.0586.46484.17578.75781.58203.23438.23438.34765.46484.17578.17578.28907.23438.8164.69921.29297.17579.28906.28906.29297.17578.29297.28906.69531.64063.17578.17578.29297.23437.28907.23438.46875.28906.64062.58203.34766.23438.23437.29297.34766.34765.35156.46485.9336.99218.34765.40625.11719.17579.23437.05859.11328.11719.64454.17578.23047.11328.23437.0586.29297.17577.23047.1172.9336.69921.40624.40625.23438.17578.40625.17578.23437.11719.8164.34766.34766.23437.23438.11719.29297.28906.23047.11719.7578.35156.35157.17188.23047.05859.29297.11719.23437.0586.8711.17577h.8164l.46875.23047.17188.0586.875.69921.46484.1172.29297.05858.17578.0586.23047.0586.46875.05859.34766.05859.35156.0586.40625.05859h.29297l.17187.0586v.23046l.17578.17578h.29297l.34766.0586.35156.05859.69922.11719h.64063l.46484-.23438.29297-.17578.17187-.11719.41016-.17187.28906-.17578.9336-.46485.46875-.29297.52343-.29296.46485-.17188.46484-.17578 1.05078-.46485.28906-.11718.41016-.11719.28906-.11719.52735-.17578 1.51562-.69922.58203-.34765.28907-.0586.29297-.0586.34765-.11718.875-.23047.35156-.11719h.11329l.23437-.05859.875-.23437.23438-.0586h.8125l.35156-.0586.8164-.11718.17188-.0586.35156-.05468.29297-.0586.23047-.05859.8164-.17578.17579-.0586h.34765l.23438-.05859.46484-.11718.75781-.17188.23438-.0586h.34765l.41016-.11718.28906-.0586 1.28516-.05859h.28906l.41016-.0586.23047-.05858h.17578l.875-.1172h.40625l.41015-.11718h.34766l.35156-.11328.8711-.0586h1.75l1.04687.28907.41016.11719.28906.11718.35156.11719.28907.11719 1.05078.17187.28906.0586h.29297l.29297.05859.17187.0586.41016.05859.17187.0586.1172.05858h.11718l.11719.0586.35156.0586h.11328l.41016.0664 1.92187.39453 1.92578.39453 1.51953.44922 1.69532.71875 2.14453.80469 1.60547-.71875 1.42968-.80469 1.16016-1.07813 1.25-.44921 3.03516-.71875 1.875-.35938 2.14453-1.34765 2.23437-1.25391 2.5-1.25781 1.69531-.44922 1.78516-.17969 1.16016-.26953.625.53906 1.33984-.26953.71485-.98828.98437-1.34375.44531-.17969.80469-.35937 1.875-.53907 1.78516-.44921 1.25-.26954 1.16015-.08984 1.69922-.08984 1.96094-.26954 1.25-.08984h.53906l.625-.08984h.89063l2.14453-.17969 2.41015-.17969 2.58985-.08984 1.69531.17969 1.60938.08984 1.42968.35938 1.16016.71875 1.875.98828 1.16015 1.52734.26563.71484.6289.08985.35548.89844.53515.53906.53516 1.52734 1.07422.35938h.53515l-.80469.53515.08985 1.70703.71484 2.69532.89063.80468.89453.98829.71484 1.2578 1.78516.53907 1.51953-.17969.35547 1.34375 1.60937-.80469.98047-.53906.26953.26953.31641-.21484.21875-.14453.80078.44922.44922-.35938h.35547l.53515-.26953.53907-.71875.53515-.26953.625-.98828 1.16016.44922.83984.3711 1.39454.61718 1.6953-.17969h1.60548l1.78515.08985.17969-1.70704.53516-1.34375.80468.26954.4922.84765.40233.40625-.08984.53906v.35938l.71485.44922.71093-.26953h1.42969l.35938.98828.4453 1.25781.71485 1.34375 1.25.6289 1.69531.62891.71485-.17969.17969-.53906.98046-.08984.44922.35937.08594 1.25782-.26563.6289-.53515.17969v.53906l.71484.98438.26563.53906.98437.98828.80078 1.07813-.26562.35937-.08985.89844-.625 2.33203-.35546 2.0664-.08985 1.79298-.17969.71875-.08984.53906v1.4375l-.98047 1.88281-.35937 1.70703-.53516.89844-.80469 1.16797-.26562.53906 2.05469 1.2539.08593.35938-.35546.53906-.08985-.17968v.80859l.08985 1.4375-.44532.71484-1.07422.09375-.26562.71485.53515.89844.8047.71875 1.16015.80859 1.33984.26953.44531.35938-.35546.44921-1.78907-.08984-1.25-.44922-.71484-.71875-.625-.08984-.17578 3.58984-.1875 1.3086h89.35937V311.70313h-55.26953v49.08203l.76172.125 3.28906.54296 2.02344 2.83594v2.7539l2.35156.33204 2.34766.33203h4.05078l-1.3789 4.16016-2.02344.70703-2.02344.70312-.54297.34375-2.59375 1.6172-.1875.11718-2.02344-2.07813-.73046-2.74218-2.67188-2.07813-1.375-3.5-.0664-.08203-1.95704-2.67188 2.75-1.41796v-49.08204H294.42187v91.41407l.1172.03125.1328.01172.07422.07421.10547.04688.08985.0586.08593.05859.08985.0586.29687.29687.0586.08984.03125.11719.02734.11719.01563.13671-.03125.1172-.0586.08983-.0586.08594-.04296.10547-.04688.10156-.02734.1211v.14453l.17578.26953.14844.14844.07422.08594.07422.07421.04296.10547.0625.08985.0586.08593.04297.10547.0586.08985.04687.10156.04296.10547.0586.08594.11719.17968.07421.07422.0625.08594.0586.08984.04297.10547.0586.08985.05858.08593.0625.08985.0586.08984.04297.10156.11719.17969.07421.07422.0586.08594.07422.07421.08984.0586.10547.04687h.14844l.1328-.01562.13282.01562.10156-.04687.07422-.07422.04688-.10156-.01563-.13281v-.14844l-.04687-.10547-.02735-.11719-.04687-.10156-.02735-.1211-.04296-.10156-.0625-.08984-.04297-.10156-.04297-.10547-.03125-.11719-.01563-.13281-.01171-.13672.08593-.0586.0586-.08593.12109-.03125.04297.10547.01562.1328v.1172l.0586.10156.0586.08984.08983.0586.14844.14843.0586.08985.04296.10547-.01171.10156.08593.0586.10547.04687.08594.0586.08984.05858.07422.07422-.11719.02735-.10546.04687-.08594.0586-.07422.07421-.0586.08985-.0625.08594-.02734.12109-.04687.10156-.04297.10547-.03125.11719-.01172.13281-.01563.13281v.14844l.02735.11719.04687.10547.04297.10156.0586.08984.07421.07422.08985.0586.07422.07421.08984.0586.0586.08984.04296.10547.04688.10156.11719.03125.1328.01563h.14845l.11718-.03125.10547.04297.04297.10547.04688.10156.02734.1211L299.5 410l.02734.11719.03125.1211.02735.11718.10547.04297.10156.04687.13281-.01562.14844.14844.0625.08593.07422.07422.07031.07422.08984.0625.10547.04297.10156.04297.1172.03125.13671.01562.11719-.03125.07422-.07422.02734-.11718-.01172-.13282-.03125-.12109-.02734-.11719.04297-.10547h.11719l.08984.0625.11719.02735h.14843l.13282.01562h.14843l.13282.01563.1328-.01563h.14845l.1328-.01562.13282-.01172.13672.01172.11719-.02735.13281-.01562.1914-.0586-.05859.17579-.01562.1328-.02735.1211-.01562.13281-.0586.08594-.1328.01563-.10548.04687-.10546.04297-.1172.03125-.11718.02735-.26563.03125h-.14843l-.13281.01562-.07422.07422.05859.08594.14844.14843.11719.1797.07421.0703.08985.0625.08984.0586.08594.0586.08984.05858.10156.04297.10547.0625.10547.04297.08594.0586.10547.04687.10156.04297.17969.11719.0586.08984-.04298.10156-.04687.10547.01562.13281.22266.22266.0586.08985.04296.10156.03125.1211.04297.10155.01563.13282.03125.11718.01171.13672.03125.11719.14844.14844.10156.04297.10547.04296.1172.03125.1328.01563.13672.01563h.11719l.11719-.03125.08984-.0586.04297-.10547.04688-.10156.04296-.10547.03125-.11719.01172-.1328v-.14845l-.01172-.1328-.01562-.13282-.03125-.11719-.04297-.10547-.04688-.10547-.04296-.10156-.04297-.10547-.01563-.13281.01563-.13281.02734-.11719.03125-.11719.02735-.1211.04687-.10155.08984-.0586.08594-.0625.07422-.07422.08984-.05859.22266-.22266.0586-.08593.07421-.07422.11719-.17969.0586-.08594v-.14844l-.07423-.07421-.10156-.04688-.10547-.04297-.10156-.04297-.0586-.08984-.04687-.10547-.02734-.11719.08984-.05859.11719-.03125.10156-.04297.17969-.11719.14844-.14843.01172-.13282-.01172-.10546-.08985-.0586-.1328.01563h-.14845l-.1328.01562-.13282-.01562-.1211-.03125-.08593-.0586-.07422-.07422-.0586-.08984-.0625-.08594-.11718-.17969-.0586-.08593.03125-.1211.08594-.05859.1211-.03125.05859-.08594v-.1211l-.03125-.11718-.0586-.08984-.05859-.08594-.04687-.10547-.02735-.11719-.01562-.1328.0586-.08985.07421-.07422.08984-.0586.1172-.17968.07421-.07422.0586-.08594.14843-.14844.1211-.03125.1328-.01562.13282.01562.07422.07422.04297.10547.01562.13281-.03125.1172-.11719.03124-.1328.01172-.14844.14844-.04297.10547-.04688.10156-.02734.1211-.03125.11718v.14844l.03125.11719.04297.10546.05859.08985.07422.07031.07422.07422.11719.03125.12109.02734.11719-.02734.1328-.01563h.1172l.08984.0586.07422.07422.04687.10546.0586.08594.10156.04688.13281.01562.10547.04297.08594.0586-.01172.10546-.07422.07422-.17969.11719-.05859.08984-.08984.0586-.07032.07422-.07421.07421-.0625.08985-.02735.11719-.01562.1328.01562.13282-.01562.13281v.14844l.01562.13281.02735.1172.03125.12108.07421.07422.08985.0586.08594.0586.08984.05858.11719.03125v.08594l-.10157.04688-.08984.0586-.26563.03124-.11718.02735h-.14844l-.10547.04296-.10156.04688-.0586.08984-.0625.23438-.01171.13281-.03125.1211-.01563.1328v.29298l-.01172.1328.01172.13673.01563.1328.1328.01563.13282.01172.1211.03125.08593.0586.07422.07421.04688.10547.04296.10157.01563.1328v.44532l-.01563.13281v.44532l.03125.26562.02735.11719.01562.13281.03125.11719.08594.21094.03125.26562v.14844l-.03125.11719-.02734.11718-.03125.1211-.02735.11719-.03125.11718-.03125.1211-.01171.1328-.01563.13282.08984.0586.1172-.03125.10155.01562.04688.10547-.03125.26562v.44141l-.04297.10547-.04688.10547-.04296.10156-.04297.10547-.0586.08594-.03125.12109-.04296.11719-.03125.11719-.01563.1328.01563.13282.05859.08984.10547.04688.08594.0586.05859.08593-.01172.13672-.03125.11719-.04297.10156v.44531l-.01562.13281v.14844l-.03125.11719-.04297.10547-.02735.11719-.04687.10546-.04297.10157-.03125.12109-.02734.11719-.03125.13281-.03125.11719-.02735.11719-.04297.10546-.03125.1172-.03125.12108-.01171.13282-.01563.13281v.29688l.02734.11718v.14844l.04688.39844.02734.11719.0586.08984.12109.03125h.14844l.13281-.01563.0586.08985v.11719l-.0586.08984-.08984.0586-.10157.04296-.10546.04688-.08985.05859-.08594.0586-.13671.01562-.1172-.03125-.1328-.01563-.10157.04688-.0625.08594-.01172.13671-.01562.13282-.03125.11719-.02735.11718-.01562.13281-.03125.1211v.29687l.01563.13282.03125.11718v.14844l.01171.13281v.14844l-.02734.11719-.04688.10156-.02734.1211-.03125.11718-.0586.08985-.07421.07421-.10156.04297-.10547.04688-.11719.02734-.1211.03125-.10156-.04687.0586-.08594.10547-.04688.02734-.11718.03125-.11719.02734-.1211.03125-.11718v-.14844l.01563-.13281-.03125-.11719-.04297-.10547-.10547.01563-.07422.07422-.10156.04296-.08984.0625-.07422.07422-.04297.10157-.01563.1328-.03125.1172L304.25 426l-.03125.11719-.02734.11719-.03125.12109-.02735.11719-.03125.11718-.04297.10547-.08984.0586h-.08984l-.1172-.03125-.03124-.08594.01562-.13672-.03125-.11719v-.14844l-.01171-.1328v-.14844l-.0625-.23438-.02735-.1211-.04297-.10156-.04687-.10546-.0586-.08594-.05859-.08985-.04297-.10546-.0625-.08594-.14844-.14844-.0703-.07422-.10548-.04687-.10547-.04297-.10156-.04297-.29687-.29688-.08985-.07421-.08594-.0586-.10546-.04297-.08985-.0625-.08594-.0586-.10546-.04296-.08985-.0586-.08594-.0625-.07421-.0703-.10547-.04688-.08594-.0586-.10547-.04296-.08984-.0625-.10156-.04297-.10547-.04297-.08594-.0586-.10547-.04687-.10547-.04297-.10156-.04687-.08985-.0586-.10156-.04297-.10547-.04296-.08984-.0625-.11719-.02735-.13281-.01562-.13281.01562H299.75l-.13281.01563-.11719-.03125-.08984-.0586-.07422-.07422-.08985-.05859-.10156-.04688h-.14844l-.12109-.02734-.10156-.04297-.07422-.07422-.11719-.17968-.08984-.0586-.10156-.04297-.08985-.0625-.10547-.04296-.08984-.0586-.08594-.0586-.10547-.04687-.0586-.08594-.05858-.08984-.04297-.10547-.04688-.10156-.07422-.07422-.08594-.0586-.07421-.07421-.08985-.0586-.22265-.22265-.04297-.10547-.03125-.26563.10547-.04296h.14453l.10547.04296.07421.07422.08985.0586.08594.0586.10546.04687.08985.05859.14844.14844.0703.07422.14845.14843.0625.08594.07421.07422.08594.0586.07422.07421.08985.0625.08984.0586.08594.05859.26953.17578.10156.04688.10547.04296.10156.04297.04688-.07421.05859-.08594.07422-.07422.07031-.07422.10547.04297.07422.07422.0586.08984.04296.10156.04688.10547.04296.10547.1211.02735.11719-.02735.07421-.08984.04297-.10547.0586-.08985.07422-.07421.10546-.04297.1172-.02735.1328.01172.08985.0586.14844.14843.05859.08985.04297.10547.04687.10156.04297.10547.04297.10156.10547.04688.10547.04296.13281.01563.08594-.0586.0586-.08984.07421-.07422.10547-.04297.11719.02735.10547.04687.10156.04297.10547.04297.10156.04688.17969.11718v.11719l-.01563.13281.01563.13281.01562.13672.0586.08594.10156.04688.1211.02734.11718.03125h.14844l.11719-.03125.05859-.08984.17969-.1172.05859-.08983.07422-.07422.0586-.08594.11718-.17969.17969-.11719.11719.03125.08984.0586.04297.07422-.01563.1328v.1172l.08985.05859h.14843l.13282-.01563.1328-.01171.26563-.03125.10547-.04297.11719-.03125.1211-.02735.07421-.07421.07031-.07422.0625-.08985-.01562-.10547-.04688-.10156-.10156-.04297-.10547-.01562-.11718.02734-.26563.03125h-.14844l-.07421-.07422-.08985-.0586-.11719-.03124-.11718-.02735-.13282-.01562h-.14843l-.13282.01563h-.29687l-.10547-.04688-.14844-.14844-.04297-.10156-.05859-.08984.22266-.22266.08593-.0586.10547-.04296.11719-.03125.13281-.01563.13281.01563.13672.01562.10157.04297.1328-.01172.08985-.0625.10156-.04297.0625-.08984-.04687-.10156-.08984-.0586-.1172-.03125-.10155-.04296-.0586-.08985-.0625-.08984v-.11719l.01563-.13281.10547-.04688.07421-.07031v-.1211l-.08984-.05859-.03125-.11719.08985-.05859.07421-.07422.04297-.10547.0586-.08984.04687-.10156.01563-.13281v-.14844l-.04688-.10547-.04297-.10156-.08984-.0586-.13281-.01562-.10157-.04297-.13671-.01563-.1172-.03125h-.4453l-.13282-.01562-.13281-.01172-.13281-.01563-.11719-.03125h-.14844l-.13281-.01562-.13281-.01172-.26563-.03125-.1211-.04297-.08593-.0586-.07422-.07421v-.14844l.01172-.13281.10547-.04688.10156-.04296.13281-.01563h.15235l.13281-.01562h.29297l.1211.03125.10156.04296.08984.0586.23438.0625.12109-.04688.08984-.05859.10156-.04297.13282-.01562.10547.04296.10156.04688.13281.01172.1211-.02735h.14453l.12109-.03125.11719-.02734.10547-.04687.07421-.07422.08594-.0586.14844-.14843.0586-.08594.04687-.10547.02734-.11719.01563-.10547-.10156-.04296-.08985-.0586-.11719-.03125-.10546-.04297-.08985-.0625-.07422-.08594-.07422-.07421-.10156-.04297-.10547-.04688-.10156-.04297-.0586-.08984-.04687-.10156-.08594-.21094-.0625-.08594-.05859-.08984-.07422-.07422-.08594-.0586h-.26953l-.11719.03126-.08984.05859-.10156.04297-.13281.01562-.10547-.01562-.02735-.11719-.0625-.08984-.11718-.03125-.10157-.04297-.14843-.14844-.03125-.11719-.01563-.10546.07422-.07422.17969-.1172.11719-.02733.11718-.03125.13672.01562.10156.04297.10547.04297.10156.04687.10547.04297.1172.03125.1328.01563.1172.02734.1328.01563.10547-.01563.08985-.0586-.07422-.07421-.10547-.04297-.07422-.07422-.07422-.08984-.14844-.14844-.08593-.0586-.08985-.05859-.07422-.07422-.08984-.0586-.10156-.04687-.1211-.02734-.10156-.04688-.10547-.04296-.11719-.03125-.10156-.04297-.1211-.03125h-.14843l-.11719.03125-.10546.04297-.08594.0625-.17969.11718-.08594.0586-.08984.0586-.10547.04687-.08594.05859-.10547.04297-.10156.04297-.10547.04687-.07422.07422-.05859.08985-.0586.08593-.04687.10547-.0586.08594-.07421.07422-.13281-.01172-.1172-.03125h-.11718l-.07422.07422-.08984.0586-.07422.07421-.08984.0586-.08594.05859-.10547.04687-.10156.04297-.13672.01563-.10156-.04297-.14844-.14844-.10547-.04688h-.08594l-.10547.04688-.10156.04297-.1211.03125-.11718-.03125-.07422-.07422v-.11719l.03125-.1211.07422-.0703.0586-.08985.07421-.07422.11719-.03125.10547-.04296h.29297l.13281-.01563.13672-.01563.10156-.04296.08985-.0586.10156-.04687.08984-.0586.13281-.01171.08985.05859.13281.01172.08984-.0586.08594-.05859.10547-.04297.08984-.0586.08594-.0625.08985-.05859.14843-.14843.0586-.08594.05859-.08985.10547-.04296.13281-.01563.11719.02735.1211.03125.05859-.0586.05859-.08984.03125-.26563.02734-.11719.10547.01172.13281.01563.10157-.04297.08984-.0586.0586-.08984.07421-.07422.0586-.08984.04687-.10156.01172-.13281-.01172-.13282-.04687-.10547-.14844-.14843-.0586-.08985-.05859-.08594-.04297-.10546v-.44532l.01563-.1328v-.14845l.01172-.1328-.0586-.0586-.08984.0586-.10156-.04298-.17969-.11719-.08594-.05859-.0625-.08984-.0586-.08985-.07421-.07421-.08594-.0586-.1211.03125-.10155.01172-.10547.04688-.08594.05859-.10547.04297-.14844.14844-.08984.05859-.08594.0586-.08984.0625-.10547.04296-.13281.01563v-.1211l.10547-.04297.11718-.03125.07422-.0703.04297-.10548v-.14844l-.02734-.11718-.14844-.14844-.13281-.01563h-.14844l-.11719.03125-.10547.04297-.10156.04297-.08984.0625-.11719.02735-.07422-.07422.01172-.13281-.04297-.10157-.04297-.10547-.08984-.05859-.11719.02734-.1211.03125-.11718.03125-.10156.04297-.1211.03125-.10156.04297-.10547.04297-.08984.0586-.10156.01562v-.11719l.01562-.13281-.0586-.08985-.07421.04297-.14844.14844-.0586.08985-.07421.07421-.04688.10547-.04296.10156-.07422.07422-.0586.08985-.07422.07422-.05859.08593-.07422.07422-.08984.0625-.07422.07031-.07422.07422-.10156.01563-.13281.01562-.10547-.04296v-.1211l.14843-.14844.04297-.10156.0586-.08984.04687-.10156.04297-.10547.0586-.08985.03124-.11719.04297-.10156.03125-.1211.02735-.11718.04687-.10547.04297-.10156.04297-.10547.07422-.07031.08984-.0625.08985-.0586.10156-.04296h.29687l.26563-.03125.10547-.04297-.07422-.07422-.11719-.03125-.10547-.04297-.08984-.0586-.10156-.04687-.08985-.0586-.10156-.04296-.10547-.04297-.08984-.0625-.08594-.0586-.10547-.04296-.10156-.04297-.1211-.03125-.11718-.03125-.10157-.04297L297.5 410.25l-.10156-.04297-.08985-.0586-.04296-.10546-.01563-.13281.10156-.04297.13281-.01563.13672.01563.13282-.01563.10156-.04297.0586-.08984.01562-.10547-.08985-.0586-.07421-.07421-.10157-.04297-.08984-.0586-.14844-.14843-.04297-.10547-.01562-.13281v-.29297l-.0586-.08985-.08984-.05859-.07422-.07422-.04297-.10547-.03125-.11718-.0586-.08985-.07421-.07422-.11719-.02734-.07422-.07422-.08984-.0586-.08984-.0625-.08594-.05859-.07422-.07421-.0586-.08594-.04687-.10547-.08594-.0586-.14843-.14843-.19532-.0586-.1328.01563-.10157.04297-.07422.07422-.04688.10156-.04296.10547-.0586.08984-.0586.08594-.29687.29687-.08984.0586h-.08594l-.0625-.08594-.04297-.10547.03125-.11719.0586-.08984.02734-.11719-.01172-.13281-.08984-.0625-.10547.04688-.11719.02734-.11719.03125-.26953.17578-.10156.04688-.11719.02734-.10546.04687-.08985.0586-.10156.04297-.0586-.08594-.04687-.10547.01563-.13281.04687-.10547.07031-.07422.07422-.07031.0586-.08985v-.14843l-.04297-.10547h-.23829l-.10156.04687-.03125.11719-.02734.11719-.03125.1211-.07422.04296-.13281.01563-.07422-.04688-.04297-.10156-.04297-.10547-.04687-.10156-.04297-.10547-.1211.03125-.10156.04297-.13281.01562-.11719.03125-.10547.04297-.08984.0586-.10156.04687-.1211.02734-.13281.01563-.10156-.04297-.0586-.08985-.04687-.10546-.04297-.10157-.04297-.10546v-.1172l.0586-.08984.08593-.05859.17969-.11719.10156-.04687.10547-.04297.10547-.0586.10156-.04296.08985-.0625.10156-.04297.10547-.0586.10156-.04687.08984-.0586.10547-.04296.10156-.04297.08985-.0625.10156-.04297.13672-.01563.11719.03125.10156.04297.1211.03125.10156.04297.10546.04688.10157.04296.10547.04297.10156.04688.10547.04297.10156.04297.10547.04687.08594.0586.10546.04296.1172.03125.10546.04297.10156.04688.08985.0586.10547.04296.10156.04297.10547.04687.11719.02735.10156.04687.1211.02735h.14843l.08594-.0586.01562-.10156.0586-.08984-.02735-.1172-.07422-.07421-.11719-.17969-.07421-.07422-.08985-.07421-.17969-.1172-.08593-.05859-.10547-.04296-.10156-.04688-.26954-.17578-.05859-.08985-.07422-.07421-.0586-.08985-.04296-.10156-.03125-.11719-.01563-.13672v-.5625l-.01171-.1328-.01563-.13282-.03125-.11719-.01562-.13281-.01172-.13281-.03125-.1211-.22266-.22265-.0586-.08594-.01562-.10547.03125-.11719.13281-.01562v-91.41406H172.9922v1.45312l-.0586.23438-.35156 1.05078-.17187.52343-.1172.34766-.17577.41016-.11719.17187-.23438.29297-.23046.0586h-.35157l-.11718.05859-.23047.40625v.29297l.11719.17578.23046.23047.1172.23437.64062.75781.29297.46485.17578.23437.23047.35156.23437.34766.64063.8164.17578.46485.17187.41016.11719.69531.17578.46875.11719 1.39844.0586.46484v.875l.11718 1.04688v4.78125l-.0586.46484-.35156 1.28125-.17578.52344-.11328.41015-.35156.9297L172.93359 336l-.23437.58203-.11719.17578-.17187.34766-.17578.40625-.35157.8164-.0586.29297-.11327.29297-.11719.28906-.0586.17579-.11718.875-.0586.40625-.05859.11718-.0586.17579-.05859.17187-.23047.52734-.11718.17188v.23437l-.11719.23438-.0586.17187-.17577.58594v.28906l-.0586.17579v.29296l-.0586.11329-.05859.52734v.17187l-.05468.23438v2.6211l-.17578.8164-.1172.17578-.17577.23438-.1172.17187-.11327.23438-.58594.93359-.23047.28906-.29297.46485-.17578.23437-.28906.35156-.35156.69922-.11328.23047-.17579.41016-.17578.23046-.40625.52735-.8164.69922-.29297.17187-.28906.23438-.17579.11719-.17578.17578-.52344.40625-.52734.17578-.17187.17578-.23438.05469-.64062.17578h-.75782m12.21094 31.02344l-1.07422.44921.35938.89454 1.25-.71485.44531-.53906-.98047-.08985"/><path fill="#d3d3d3" fill-opacity="0" fill-rule="evenodd" d="M201.50781 416.59766h-.89453l.44922.6289.98047.35938.80469-.08985.4453-.98828-.17577.08985-.71485-.35547-.89453.35547m154.6211 59.0703l-.0586-.52343v-.29297l.11328-.29297.0586-.23046.46875-.46875h.11328l.11719-.11329.11718-.05859h.17579l.23437-.0586h.34766l.23437.0586.11719.0586.23047.17187.0586.17578.11718.58203v.29297l-.11719.17578-.17187.28906-.17579.17579-.52734.52343-.23047.23438-.11719.0586h-.17578l-.11718-.0586-.40625-.29297-.17579-.11719-.11718-.0586-.0586-.11327-.05468-.1172m6.64062-10.95702l-.0586-.17188v-1.10937l.0586-.17188.17578-.0586.17188-.05858h.17578l.23437-.0586.1172.0586.05858.69921-.05859.17188-.11719.17578-.11718.0586-.23438.52343-.11328.0586h-.23438l-.05859-.1172m9.61328-14.39062l-.11719-.17578v-.69922l.29297-.875.1172-.17187.17577-.35156.11328-.23047.1172-.29297.35155-.75781.1172-.23047.17187-.23438h.17578l.11719-.0586h.64062l.11719.0586.23437.23438.17188.11328.35156.29297.11719.11718.11328.17579v.11328l.11719.05859.11718.11719v.69922l-.05859.17578v.23047l-.0586.17578-.34765 1.05078-.11719.23047-.11719.23437-.11718.0586-.23047.23437-.64063.28906h-.875l-.41015-.11718-.64063-.46485"/><path fill="none" stroke="#bebebe" stroke-linecap="round" stroke-linejoin="round" stroke-miterlimit="10" stroke-width=".5" d="M467.95703 311.69531H144.02734v168.625h323.9297v-168.625"/><g clip-path="url(#a)"><path fill="#fff" fill-opacity="0" fill-rule="evenodd" d="M144 475.89063v4.4375h.0039H144V311.67188h.0039H144v164.21875"/></g><g clip-path="url(#b)"><path fill="#fff" fill-opacity="0" fill-rule="evenodd" d="M144.0039 480.32813V311.67188h17.75v126.24218l-2.34374 2.46875 1.23437 4.4375-.14062 4.4414-1.21875 4.4375.36328 4.4375 2.10547 3.97657 4.4375.07031 4.4375-.8828 4.4375-.39063 2.6328-2.77344-2.6328-1.66797-3.3086-2.76953-1.1289-.53906-1.87891.53906-2.5586.66015-.875-.66015-2.03124-4.4375 1.44922-4.4414.57421-4.4375-3.55468-2.46876V311.67187h8.875v126.27344l-2.71094 2.4375 2.71094 1.36719 4.4375-1.32813 1.66015-.03906-1.66015-.05469-4.4375-2.3828V311.67187h17.7539v137.99218l-4.4375 3.16406-1.70312.8711-1.15625 4.4375 2.85937.97265 2.26172-.97265 2.17578-1.6289 4.4375-1.0586 3.10156-1.75-3.10156-2.72266-4.4375-1.3125V311.67187h17.7539v123.29688l-.8828.97656.8828 2.60938 2.8086-2.60938-2.8086-.97656V311.67187h8.87892v115.375l-.02735.02344.02734.11328 1.1875 4.32422 2.82422 4.4375.42578 1.83594v3.35547l-1.55859 3.6836 1.5586 1.10937.97656-1.10938-.97656-3.6836v-3.35546l.27734-1.83594 4.16016-1.86719 3.47265 1.8672.96484.6953.9922-.6953-.9922-.9375-1.91015-3.5-2.52734-2.22657-4.4375.82031-4.41797-3.03125-.01953-.02344v-115.375h13.3125v110.41797l-1.25391.53907 1.2539 1.03515 2.8086-1.03515-2.8086-.53907V311.67188h13.31641v125.91796l-4.4375 1.12891-2.08594 1.66406 2.08594 1.44922 4.4375 1.3164 4.36719-2.76562-4.36719-2.79297V311.67188h31.0664v117.34375l-4.4375 2.20703-4.4375.13671-.16015.14844-4.27734 1.33203-3.82813 3.10547 3.82813 3.17578 2.83594-3.17578 1.60156-4.3164 4.4375.10156 4.4375 1.80469 4.4414-.71485.66407 3.125 3.77343 3.45703v5.14844l-1.32812.26953-1.30078 4.4414-1.8086.57032-.19921-.57031-4.2422-3.95313-4.4375 3.28907-4.4375-1.04297-2.33984 1.70703.51954 4.4375 1.8203 1.73437 4.4375.5547 4.4375-.10548 4.44141-1.20703.62891-.97656 3.8086-4.28516.11327-.15234.21485-4.4414-.32813-.26954v-5.14844l4.4375-.79296 4.4375-1.04688 1.66797-1.61719-1.66797-1.75-4.4375-.89453-4.28906-1.79297-.14844-.14453-4.4375-1.20703-4.4414-1.14063V311.67188h79.89062v125.78907l-2.90625 2.92187 2.90625 2.90625 3.38672-2.90625-3.38672-2.92187V311.67188h22.1914V442.8164l-2.07421 2.0039-2.36328 3.20313-1.0664 1.23828-1.87891 4.4375-1.4922 1.54687-3.27343 2.89063-1.16406 3.29297-.40235 1.14453.40235.36719 4.4375.97265 4.4375-.33984 4.4375.41015 3.90625 3.03125.1211 4.4375.41406.51563 4.4375-.19922.3828-.3164 4.0547-1.28125 2.66015-3.15625 1.77735-1.82422 2.97265-2.6172.07813-4.4375-3.05079-3.3828-4.4375.53515-.99218-1.58984-3.44531-3.86328-4.4375.64453-4.44141 1.13281-2.46875-2.35156 2.46875-1.57813 2.55469-2.86328-2.5547-2.0039V311.67187h93.20313v168.65625H144.00391"/></g><path fill="#50fcfc" fill-rule="evenodd" d="M159.64844 458.13672l-.36328-4.4375 1.21875-4.4375.14062-4.4414-1.23437-4.4375 2.34375-2.46876 3.55468 2.46875-.57422 4.4375-1.44921 4.4414 2.03125 4.4375.875.66017 2.55859-.66016 1.8789-.53906 1.12891.53906 3.3086 2.76953 2.6328 1.66797-2.6328 2.77344-4.4375.39062-4.4375.88281-4.4375-.0703-2.10547-3.97657M170.6289 441.75l-2.71094-1.36719 2.71094-2.4375 4.4375 2.38281 1.66015.0547-1.66015.03906-4.4375 1.32812m13.3164 17.35938l-2.85937-.97266 1.15625-4.4375 1.70312-.8711 4.4375-3.16406 4.4375 1.3125 3.10156 2.72266-3.10156 1.75-4.4375 1.0586-2.17578 1.6289-2.26172.97265m22.1914-20.55468l-.8828-2.60938.8828-.97656 2.8086.97656-2.8086 2.60938m8.87892-11.3711l-.02735-.11328.02734-.02344.01954.02344 4.41797 3.03125 4.4375-.82031 2.52734 2.22656 1.91016 3.5.99218.9375-.99219.69531-.96484-.6953-3.47266-1.8672-4.16015 1.8672-.27734 1.83593-.42579-1.83594-2.82422-4.4375-1.1875-4.32422m4.4375 18.7461l-1.55859-1.10938 1.5586-3.6836.97656 3.6836-.97656 1.10938m8.875-22.26563l-1.25391-1.03515 1.2539-.53907 2.8086.53907-2.8086 1.03515m8.87891 18.16797l-2.08594-1.44922 2.08594-1.66406 4.4375-1.1289 4.36719 2.79296-4.36719 2.76563-4.4375-1.3164m22.1914-2.71095l-3.82812-3.17578 3.82813-3.10547v2.87891l-.28125.22656.28125.23438.20703-.23438-.20703-.22656v-2.8789l4.27734-1.33204.16016-.14844 4.4375-.13671 4.4375-2.20704 4.4414 1.14063 4.4375 1.20703v2.20313l-2.01171 2.3789 2.01171 1.83985 3.08985-1.83985-3.08985-2.3789v-2.20313l.14844.14453 4.28906 1.79297 4.4375.89453 1.66797 1.75-1.66797 1.61719-4.4375 1.04688-4.4375.79296-3.77343-3.45703-.66407-3.125-4.4414.71485-4.4375-1.8047-4.4375-.10155-1.60156 4.3164-2.83594 3.17578"/><path fill="#00e8fc" fill-rule="evenodd" d="M259.39844 436.17969l-.28125-.23438.28125-.22656.20703.22656-.20703.23438"/><path fill="#50fcfc" fill-rule="evenodd" d="M262.01563 453.69922l-.51954-4.4375 2.33985-1.70703 4.4375 1.04297 4.4375-3.28907 4.24219 3.95313.19921.57031 1.8086-.57031 1.30078-4.4414 1.32812-.26954.32813.26953-.21485 4.4414-.11328.15235-3.80859 4.28516-.6289.97656-4.44141 1.20703-4.4375.10547-4.4375-.55469-1.82031-1.73437"/><path fill="#00e8fc" fill-rule="evenodd" d="M281.58984 437.78516l-2.01171-1.83985 2.01171-2.3789 3.08985 2.3789-3.08985 1.83985"/><path fill="#50fcfc" fill-rule="evenodd" d="M352.60156 443.28906l-2.90625-2.90625 2.90625-2.92187v2.33984l-.57812.58203.57812.58203.67578-.58203-.67578-.58203v-2.33984l3.38672 2.92187-3.38672 2.90625"/><path fill="#00e8fc" fill-rule="evenodd" d="M352.60156 440.96484l-.57812-.58203.57812-.58203.67578.58203-.67578.58203"/><path fill="#50fcfc" fill-rule="evenodd" d="M361.48047 462.9414l-.40235-.36718.40235-1.14453 1.16406-3.29297 3.27344-2.89063 1.49219-1.54687 1.8789-4.4375 1.0664-1.23828 2.36329-3.20313 2.07422-2.0039 2.55469 2.0039-2.5547 2.86328-2.46874 1.57813 2.46875 2.35156v4.34766l-1.6211 2.17578 1.6211 2.07812 1.1211-2.07812-1.1211-2.17578v-4.34766l4.4414-1.13281 4.4375-.64453v8.09375l-.3203.20703.3203.19531v8.33985l-2.47265.34375 2.47265 3.37109.48047-3.3711-.48046-.34375v-8.33984l.38671-.19531-.38671-.20703v-8.09375l3.4453 3.86328.9922 1.58984v3.3125l-4.41797 3.97266 4.41796 4.14062 4.1172-4.14062-4.1172-3.97266v-3.3125l4.4375-.53515 3.05079 3.3828-.07813 4.4375-2.97265 2.6172-1.77735 1.82421-2.66015 3.15625-4.0547 1.28125-.3828.31641-4.4375.19922-.41407-.51563-.1211-4.4375-3.90624-3.03125-4.4375-.41015-4.4375.33984-4.4375-.97265"/><path fill="#fff" fill-opacity="0" fill-rule="evenodd" d="M374.79297 455.96094l-1.6211 2.17578 1.6211 2.07812 1.1211-2.07812-1.1211-2.17578m8.8789 10.71094l-2.47265.34375 2.47265 3.37109.48047-3.3711-.48046-.34375m0-8.74218l-.32032.20703.32031.19531.38672-.19531-.38671-.20703"/><path fill="#00e8fc" fill-rule="evenodd" d="M388.10938 466.71484l-4.41797-4.14062 4.41796-3.97266v1.47656l-2.77734 2.4961 2.77735 2.60156 2.58593-2.60156-2.58594-2.4961v-1.47656l4.1172 3.97266-4.1172 4.14062"/><path fill="#00d4fc" fill-rule="evenodd" d="M388.10938 465.17578l-2.77735-2.60156 2.77735-2.4961v1.47657l-1.13672 1.01953 1.13671 1.0664 1.0586-1.0664-1.0586-1.01953v-1.47656l2.58594 2.49609-2.58594 2.60156"/><path fill="#00c4fc" fill-rule="evenodd" d="M388.10938 463.64063l-1.13672-1.06641 1.13671-1.01953 1.0586 1.01953-1.0586 1.0664"/><g clip-path="url(#c)"><path fill="#fff" fill-opacity="0" fill-rule="evenodd" d="M467.9961 480.32813H468V311.67188h-.0039H468v168.65625h-.0039"/></g><g clip-path="url(#d)"><path fill="none" stroke="#000" stroke-linecap="round" stroke-linejoin="round" stroke-miterlimit="10" stroke-width=".5" d="M147.51172 480.3164l-7.02344.02344"/></g><g clip-path="url(#e)"><path fill="none" stroke="#000" stroke-linecap="round" stroke-linejoin="round" stroke-miterlimit="10" stroke-width=".5" d="M147.51172 480.3164l1.16016 2.16016"/></g><g clip-path="url(#f)"><path fill="none" stroke="#000" stroke-linecap="round" stroke-linejoin="round" stroke-miterlimit="10" stroke-width=".5" d="M160.82813 480.45703l-7.02344-.2539"/></g><g clip-path="url(#g)"><path fill="none" stroke="#000" stroke-linecap="round" stroke-linejoin="round" stroke-miterlimit="10" stroke-width=".5" d="M160.82813 480.45703l1.0703 2.20703"/></g><g clip-path="url(#h)"><path fill="none" stroke="#000" stroke-linecap="round" stroke-linejoin="round" stroke-miterlimit="10" stroke-width=".5" d="M174.11328 480.80078l-6.96484-.9414"/></g><g clip-path="url(#i)"><path fill="none" stroke="#000" stroke-linecap="round" stroke-linejoin="round" stroke-miterlimit="10" stroke-width=".5" d="M173.09766 480.66406l.42578 1.14844"/></g><g clip-path="url(#j)"><path fill="none" stroke="#000" stroke-linecap="round" stroke-linejoin="round" stroke-miterlimit="10" stroke-width=".5" d="M187.42578 480.8164l-6.96094-.97656"/></g><g clip-path="url(#k)"><path fill="none" stroke="#000" stroke-linecap="round" stroke-linejoin="round" stroke-miterlimit="10" stroke-width=".5" d="M187.42578 480.8164l.83984 2.3047"/></g><g clip-path="url(#l)"><path fill="none" stroke="#000" stroke-linecap="round" stroke-linejoin="round" stroke-miterlimit="10" stroke-width=".5" d="M200.76953 480.53516l-7.01562-.41016"/></g><g clip-path="url(#m)"><path fill="none" stroke="#000" stroke-linecap="round" stroke-linejoin="round" stroke-miterlimit="10" stroke-width=".5" d="M200.76953 480.53516l1.02344 2.22656"/></g><g clip-path="url(#n)"><path fill="none" stroke="#000" stroke-linecap="round" stroke-linejoin="round" stroke-miterlimit="10" stroke-width=".5" d="M214.08594 480.20313l-7.02344.2539"/></g><g clip-path="url(#o)"><path fill="none" stroke="#000" stroke-linecap="round" stroke-linejoin="round" stroke-miterlimit="10" stroke-width=".5" d="M214.08594 480.20313l1.23047 2.12109"/></g><g clip-path="url(#p)"><path fill="none" stroke="#000" stroke-linecap="round" stroke-linejoin="round" stroke-miterlimit="10" stroke-width=".5" d="M227.375 479.88672l-6.96875.88281"/></g><g clip-path="url(#q)"><path fill="none" stroke="#000" stroke-linecap="round" stroke-linejoin="round" stroke-miterlimit="10" stroke-width=".5" d="M227.375 479.88672l1.41406 2.00781"/></g><g clip-path="url(#r)"><path fill="none" stroke="#000" stroke-linecap="round" stroke-linejoin="round" stroke-miterlimit="10" stroke-width=".5" d="M240.6289 479.53125l-6.84374 1.59375"/></g><g clip-path="url(#s)"><path fill="none" stroke="#000" stroke-linecap="round" stroke-linejoin="round" stroke-miterlimit="10" stroke-width=".5" d="M240.6289 479.53125l1.61329 1.84766"/></g><g clip-path="url(#t)"><path fill="none" stroke="#000" stroke-linecap="round" stroke-linejoin="round" stroke-miterlimit="10" stroke-width=".5" d="M253.85156 479.21094l-6.66406 2.23437"/></g><g clip-path="url(#u)"><path fill="none" stroke="#000" stroke-linecap="round" stroke-linejoin="round" stroke-miterlimit="10" stroke-width=".5" d="M253.85156 479.21094l1.78125 1.6875"/></g><g clip-path="url(#v)"><path fill="none" stroke="#000" stroke-linecap="round" stroke-linejoin="round" stroke-miterlimit="10" stroke-width=".5" d="M267.14453 479.14844l-6.61719 2.35937"/></g><g clip-path="url(#w)"><path fill="none" stroke="#000" stroke-linecap="round" stroke-linejoin="round" stroke-miterlimit="10" stroke-width=".5" d="M266.1836 479.49219l.90624.82812"/></g><g clip-path="url(#x)"><path fill="none" stroke="#000" stroke-linecap="round" stroke-linejoin="round" stroke-miterlimit="10" stroke-width=".5" d="M280.53125 479.36328l-6.75781 1.92969"/></g><g clip-path="url(#y)"><path fill="none" stroke="#000" stroke-linecap="round" stroke-linejoin="round" stroke-miterlimit="10" stroke-width=".5" d="M279.54688 479.64453l.85156.88281"/></g><g clip-path="url(#z)"><path fill="none" stroke="#000" stroke-linecap="round" stroke-linejoin="round" stroke-miterlimit="10" stroke-width=".5" d="M293.95703 479.92578l-6.98047.80469"/></g><g clip-path="url(#A)"><path fill="none" stroke="#000" stroke-linecap="round" stroke-linejoin="round" stroke-miterlimit="10" stroke-width=".5" d="M292.9414 480.04297l.69532 1.01172"/></g><g clip-path="url(#B)"><path fill="none" stroke="#000" stroke-linecap="round" stroke-linejoin="round" stroke-miterlimit="10" stroke-width=".5" d="M307.23047 479.66406l-6.89844 1.33203"/></g><g clip-path="url(#C)"><path fill="none" stroke="#000" stroke-linecap="round" stroke-linejoin="round" stroke-miterlimit="10" stroke-width=".5" d="M306.22656 479.85547l.76953.95703"/></g><g clip-path="url(#D)"><path fill="none" stroke="#000" stroke-linecap="round" stroke-linejoin="round" stroke-miterlimit="10" stroke-width=".5" d="M320.48438 479.39844l-6.77735 1.85937"/></g><g clip-path="url(#E)"><path fill="none" stroke="#000" stroke-linecap="round" stroke-linejoin="round" stroke-miterlimit="10" stroke-width=".5" d="M319.5 479.66797l.83984.89453"/></g><g clip-path="url(#F)"><path fill="none" stroke="#000" stroke-linecap="round" stroke-linejoin="round" stroke-miterlimit="10" stroke-width=".5" d="M333.26172 478.27734l-5.70313 4.10157"/></g><path fill="none" stroke="#000" stroke-linecap="round" stroke-linejoin="round" stroke-miterlimit="10" stroke-width=".5" d="M332.4336 478.875l1.10156.54297"/><g clip-path="url(#G)"><path fill="none" stroke="#000" stroke-linecap="round" stroke-linejoin="round" stroke-miterlimit="10" stroke-width=".5" d="M344.33984 476.8711l-1.23046 6.91796"/></g><g clip-path="url(#H)"><path fill="none" stroke="#000" stroke-linecap="round" stroke-linejoin="round" stroke-miterlimit="10" stroke-width=".5" d="M354.39063 478.02344l5.30078 4.60937"/></g><g clip-path="url(#I)"><path fill="none" stroke="#000" stroke-linecap="round" stroke-linejoin="round" stroke-miterlimit="10" stroke-width=".5" d="M366.84375 480.29688l7.02734.0664"/></g><g clip-path="url(#J)"><path fill="none" stroke="#000" stroke-linecap="round" stroke-linejoin="round" stroke-miterlimit="10" stroke-width=".5" d="M367.86328 480.30469l-.5625-1.08594"/></g><g clip-path="url(#K)"><path fill="none" stroke="#000" stroke-linecap="round" stroke-linejoin="round" stroke-miterlimit="10" stroke-width=".5" d="M380.15625 480.28125l7.02734.09375"/></g><g clip-path="url(#L)"><path fill="none" stroke="#000" stroke-linecap="round" stroke-linejoin="round" stroke-miterlimit="10" stroke-width=".5" d="M381.17969 480.29688l-.5625-1.09375"/></g><g clip-path="url(#M)"><path fill="none" stroke="#000" stroke-linecap="round" stroke-linejoin="round" stroke-miterlimit="10" stroke-width=".5" d="M393.47266 480.38672l7.02734-.11719"/></g><g clip-path="url(#N)"><path fill="none" stroke="#000" stroke-linecap="round" stroke-linejoin="round" stroke-miterlimit="10" stroke-width=".5" d="M394.4961 480.3711l-.59376-1.07423"/></g><g clip-path="url(#O)"><path fill="none" stroke="#000" stroke-linecap="round" stroke-linejoin="round" stroke-miterlimit="10" stroke-width=".5" d="M406.82031 480.8086l6.96094-.95704"/></g><g clip-path="url(#P)"><path fill="none" stroke="#000" stroke-linecap="round" stroke-linejoin="round" stroke-miterlimit="10" stroke-width=".5" d="M407.83203 480.66797l-.71484-.9961"/></g><g clip-path="url(#Q)"><path fill="none" stroke="#000" stroke-linecap="round" stroke-linejoin="round" stroke-miterlimit="10" stroke-width=".5" d="M420.10938 480.51563l7.01562-.3711"/></g><g clip-path="url(#R)"><path fill="none" stroke="#000" stroke-linecap="round" stroke-linejoin="round" stroke-miterlimit="10" stroke-width=".5" d="M421.1289 480.46094l-.6328-1.05078"/></g><g clip-path="url(#S)"><path fill="none" stroke="#000" stroke-linecap="round" stroke-linejoin="round" stroke-miterlimit="10" stroke-width=".5" d="M433.41797 480.24219l7.02734.17578"/></g><g clip-path="url(#T)"><path fill="none" stroke="#000" stroke-linecap="round" stroke-linejoin="round" stroke-miterlimit="10" stroke-width=".5" d="M434.4414 480.26563l-.55077-1.09766"/></g><g clip-path="url(#U)"><path fill="none" stroke="#000" stroke-linecap="round" stroke-linejoin="round" stroke-miterlimit="10" stroke-width=".5" d="M446.96875 479.0586l6.55469 2.53906"/></g><path fill="none" stroke="#000" stroke-linecap="round" stroke-linejoin="round" stroke-miterlimit="10" stroke-width=".5" d="M447.92188 479.42969l-.14454-1.21875"/><g clip-path="url(#V)"><path fill="none" stroke="#000" stroke-linecap="round" stroke-linejoin="round" stroke-miterlimit="10" stroke-width=".5" d="M460.90625 478.02734l5.3125 4.60157"/></g><path fill="none" stroke="#000" stroke-linecap="round" stroke-linejoin="round" stroke-miterlimit="10" stroke-width=".5" d="M461.67969 478.69922l.27344-1.19922"/><g clip-path="url(#W)"><path fill="none" stroke="#000" stroke-linecap="round" stroke-linejoin="round" stroke-miterlimit="10" stroke-width=".5" d="M147.4961 466.66797l-6.9922.6914"/></g><path fill="none" stroke="#000" stroke-linecap="round" stroke-linejoin="round" stroke-miterlimit="10" stroke-width=".5" d="M146.48047 466.76953l.67969 1.01953m13.61718-1.38281l-6.92187 1.21484m6.92187-1.21484l1.50782 1.9336m11.59765-2.65626l-6.5039 2.66016m6.5039-2.66016l1.88672 1.57032m11.3086-1.83203l-6.26563 3.18359m6.26563-3.1836l2.0078 1.41016m11.62891-.46094l-6.91015 1.28516m6.91015-1.28516l1.52735 1.91797m11.83203-1.60937l-6.9961.66797m6.9961-.66797l1.35156 2.05078m11.91016-2.40625l-6.89063 1.3789m6.89063-1.3789l1.55469 1.89453m11.59375-2.46484l-6.5586 2.51953m6.5586-2.51953l1.85156 1.60937m11.17187-2.19922l-5.97265 3.69922m5.97265-3.69922l2.1211 1.23438m11.09375-1.38672l-5.77344 4.0039m5.77344-4.0039l2.18359 1.125m11.25781-.92578l-6.02734 3.60547m6.02734-3.60547l2.10156 1.26562m11.26954-1.17578l-6.13672 3.42578m6.13672-3.42578l2.05859 1.33203m11.13672-1.52734l-5.89844 3.8164m5.89844-3.8164l2.14453 1.1914m11.09375-1.30468l-5.7461 4.04297m5.7461-4.04297l2.1875 1.10937m11.24219-.9375l-5.97657 3.69922m5.10938-3.16015l1.0586.61718m12.52734-1.88281l-4.78125 5.15234m4.08593-4.40234l1.1836.3164m11.86328-1.69921l-2.85547 6.41797m2.85547-6.41797l2.44922-.17188m9.29687-.1289l.28125 7.01953m-.28125-7.01953l2.1172-1.23828m9.35937 1.84765l3.96093 5.80078m-3.38672-4.95703l.57032-1.08594m12.13281.26563l4.03516 5.7539m-4.03516-5.7539l1.11719-2.1875m10.97656 3.70312l6.47656 2.72266m-5.53515-2.32422l-.10938-1.22265m12.48828.8125l6.46875 2.74609m-6.46875-2.7461l-.21484-2.4453m13.33594 3.04296l6.85546 1.55078M434.5 466.46484l-.32031-1.18359m13.09765-.14453l5.9375 3.7539m-5.9375-3.7539l.1836-2.44922m13.5664 1.89453l5.07032 4.86328m-4.33204-4.15625l.33204-1.17968"/><g clip-path="url(#X)"><path fill="none" stroke="#000" stroke-linecap="round" stroke-linejoin="round" stroke-miterlimit="10" stroke-width=".5" d="M147.48047 453.21875l-6.96094.96094"/></g><path fill="none" stroke="#000" stroke-linecap="round" stroke-linejoin="round" stroke-miterlimit="10" stroke-width=".5" d="M147.48047 453.21875l1.4375 1.98438m11.85156-2.14063l-6.91016 1.27344m6.91016-1.27344l1.52734 1.92188m11.76954-2.01563l-6.875 1.45703m5.875-1.24219l.78906.9375m13.22266-2.01171l-6.26563 3.17968m5.35547-2.71875l1.0039.70703m13.39454-.76562l-6.61328 2.375m5.65234-2.03125l.90625.82422m13.13281-1.6875l-6.14062 3.41406m6.14062-3.41406l2.0625 1.33203m11.32422-1.19531l-6.28516 3.14062m6.28516-3.14062l2 1.42187m11.30078-1.45703l-6.2539 3.21094m5.34375-2.74219l1.0078.69922m12.76173-1.84766l-5.33985 4.57031m5.33985-4.5703l2.28125.89843m11.08203-.83984l-5.4375 4.45312m4.64453-3.80469l1.13281.47266m12.8789-1.23438l-5.24609 4.67579m5.2461-4.67579l2.30078.85157m11.17969-.64844l-5.57813 4.27344m5.57813-4.27344l2.23437 1.01953m-3.04687-.39844l1.11718.50782m13.14063-.94922l-5.83985 3.91015m5.83985-3.91015l2.16406 1.16015m-3.01172-.58984l1.08203.57813m12.89453-1.40235l-5.46484 4.41797m5.46484-4.41797l2.25782.96094m-3.05469-.3164l1.1289.48046m12.94922-1.16406l-5.39453 4.5m5.39453-4.5l2.27344.92187m-3.0586-.26953l1.13673.46485m13.10937-.9297l-5.6875 4.125m5.6875-4.125l2.20313 1.07423M359.5 451.1875l-4.91797 5.01953M359.5 451.1875l2.35547.69531m-3.07031.03516l1.17578.34765m11.8086-1.78515l-2.82423 6.4336m2.82422-6.4336l2.44531-.1836m9.07422-.08984l.76563 6.98438m-.76563-6.98438l2.02735-1.38281m9.80078 1.89844l3.73828 5.95312m-3.73828-5.95312l1.22265-2.12891m12.78516 1.79297l2.35156 6.625m-2.35156-6.625l1.66016-1.8086m10.79687 2.25391l4.0664 5.73438m-4.0664-5.73438l1.10156-2.1914m14.3047 1.54687l-.11329 7.02344m.11328-7.02344l2.1875-1.11719m-2.20312 2.13672l1.09375-.5586m13.01562-.36327l-1.66797 6.82812m1.66797-6.82812l2.375-.60547m-2.61719 1.59765l2.375-.60156m10.12891-.48437l.4375 7.01562m-.4375-7.01562l2.08984-1.28516"/><g clip-path="url(#Y)"><path fill="none" stroke="#000" stroke-linecap="round" stroke-linejoin="round" stroke-miterlimit="10" stroke-width=".5" d="M147.47266 439.83984l-6.94532 1.08985"/></g><path fill="none" stroke="#000" stroke-linecap="round" stroke-linejoin="round" stroke-miterlimit="10" stroke-width=".5" d="M147.47266 439.83984l1.47265 1.96094m11.875-1.66016l-7.01172.48438m7.01172-.48438l1.29688 2.08204m12.01562-2.13672l-7.0039.59765m5.98437-.51171l.66406 1.03125m13.6797-.8125l-7.02345-.01563m6.00391.01563l.57422 1.08203m13.75781-1.21875l-7.01953.26172m7.01953-.26172l1.23438 2.12109m12.07812-2.20703l-7.01172.4336m7.01172-.4336l1.28516 2.08984m11.65234-3.47656l-6.25781 3.20313m5.34766-2.73438l1.0039.69922m13.25-1.10938l-6.3125 3.08594m5.39453-2.63672l.99219.71875m13.08984-1.4414l-6.01562 3.6328m6.01562-3.6328l2.10547 1.2578m11.1211-1.39452l-5.83594 3.91015m5.83594-3.91015l2.16406 1.15625m11.15625-1.15235l-5.84766 3.89844m5.84766-3.89844l2.16016 1.16407m11.14843-1.17188l-5.83593 3.91797m5.83593-3.91797l2.16407 1.15625m11.21093-1.0664L300.8047 442.25m5.95312-3.73437l2.125 1.22656m11.125-1.32422l-5.82422 3.92969m5.82422-3.9297l2.16797 1.15235m-3.01562-.57812l1.08593.57422m12.88282-1.41016l-5.4336 4.45703m5.4336-4.45703l2.26172.9414m-3.0547-.29296l1.13282.47265m12.69922-1.41796l-4.88281 5.05078m4.8828-5.05078l2.35938.67578M359.5 437.875l-4.91797 5.01563M359.5 437.875l2.35547.69531m10.47656-1.09375l-3.94922 5.8125m3.94922-5.8125l2.4375.26563m10.60547-.4336l-3.40625 6.14844m3.40625-6.14844l2.45313.04297m-2.94922.85157l1.22656.02343m12.55469-.92968l-3.34766 6.17578m3.34766-6.17578l2.45703.01953m-2.9414.8789l1.22655.00782m12.40235-.9961l-3.00781 6.35156m3.0078-6.35156l2.45313-.11328m10.21875-.11719l-1.72265 6.8125m1.72265-6.8125l2.38282-.58594m11.68359.8711l-3.22266 6.2461m3.22266-6.2461l2.45312-.03125m-2.92187.9375l1.22656-.01563m12.125-1.07812l-2.35547 6.6211m2.35547-6.6211l2.42578-.35938m-2.76953 1.32032l2.42578-.35938M450.73828 439l1.21485-.17969m12.86718-1.71875l-2.51953 6.5625m2.51953-6.5625l2.4375-.29687m-2.80468 1.2539l1.21875-.14843"/><g clip-path="url(#Z)"><path fill="none" stroke="#000" stroke-linecap="round" stroke-linejoin="round" stroke-miterlimit="10" stroke-width=".5" d="M147.08594 425.38672l-6.17188 3.36328"/></g><path fill="none" stroke="#000" stroke-linecap="round" stroke-linejoin="round" stroke-miterlimit="10" stroke-width=".5" d="M147.08594 425.38672l2.04687 1.35156m11.32422-1.24219l-6.28516 3.14453m6.28516-3.14453l2 1.42188m11.64063-.42578l-6.9336 1.15234m6.9336-1.15234l1.49218 1.94531m11.82813-.84375l-6.94531-1.05078m6.9453 1.05078l.81642 2.3125m12.43359-1.98047l-6.8164-1.71484m5.82421 1.46484l.29297 1.1914m13.53125.14454l-5.85156-3.88672m5 3.32031l-.11719 1.22266m13.89063-.16406l-5.0625-4.8711m4.32812 4.16407l-.33594 1.17968m15.36328-2.70703l-7.01562-.39844m5.99219.33985l.51562 1.11328m13.4336-2.86719l-6.2422 3.22266m6.2422-3.22266l2.01953 1.39453m11.125-1.6875l-5.90235 3.8125m5.90235-3.8125l2.14453 1.1914m11.16797-1.20312l-5.89453 3.83204m5.03515-3.27344l1.07422.59375m12.375-1.96094l-4.4414 5.44922m4.4414-5.44922l2.40625.47656m11.53125.1836l-5.6875 4.1289m4.85938-3.52734l1.10156.53516m13.04297-1.13282l-5.69141 4.1211m5.6914-4.1211l2.20313 1.07813m11.16016-1.01172l-5.78906 3.98828m5.78906-3.98828l2.17578 1.13281m10.76172-1.58984l-5.03125 4.90234m5.03125-4.90234l2.33594.7461m11.39453-.23048l-5.86329 3.8711m5.86329-3.8711l2.15625 1.17578m10.9453-1.46484l-5.4375 4.44922m5.4375-4.44922l2.26563.94531m10.22657-1.67968l-3.79297 5.91796m3.79297-5.91796l2.4453.20312m11.94532.88281l-5.9414 3.7461m5.9414-3.7461l2.13281 1.21485m-2.99609-.67188l1.0664.60938m13.20313-1.00391l-6.1211 3.44922m6.1211-3.44922l2.0664 1.32031m10.50782-2.23437l-4.64063 5.27734m4.64063-5.27734l2.38672.5664m-3.0625.20313l1.19531.28125m12.0586-1.54688l-3.16797 6.26954m3.16796-6.26954l2.45313-.05468m-2.91406.96484l2.45312-.05078m11.39844-.82031l-3.32031 6.1914m3.32031-6.1914l2.45313.0078m-2.9375.89063l2.45703.01172m12.10937-.35547l-4.85156 5.08204"/><g clip-path="url(#aa)"><path fill="none" stroke="#000" stroke-linecap="round" stroke-linejoin="round" stroke-miterlimit="10" stroke-width=".5" d="M465.98828 424.52734l2.36328.66016"/></g><path fill="none" stroke="#000" stroke-linecap="round" stroke-linejoin="round" stroke-miterlimit="10" stroke-width=".5" d="M465.28125 425.26563l2.36328.66406"/><g clip-path="url(#ab)"><path fill="none" stroke="#000" stroke-linecap="round" stroke-linejoin="round" stroke-miterlimit="10" stroke-width=".5" d="M146.625 411.41797l-5.25 4.67187"/></g><path fill="none" stroke="#000" stroke-linecap="round" stroke-linejoin="round" stroke-miterlimit="10" stroke-width=".5" d="M146.625 411.41797l2.30078.85156m-3.0664-.17187l1.15234.42578m12.8125-1.23047l-5.01953 4.92187m5.01953-4.92187l2.33984.74219m-3.07031-.02735l1.16797.3711m12.42187-1.47657l-4.10547 5.70313m4.10547-5.70313l2.4297.33203m11.6953.48438l-5.72656 4.07031m4.89453-3.48047l1.09766.55078m12.8086 3.23047l-5.2461-4.67187m16.94922 5.69922l-2.01953-6.73047m14.58593 6.8711l-.52343-7.00782m.44922 5.98828l-1.03907.65625m17.67578-2.98828l-7.01953-.30469m6 .26172l.52735 1.10547m13.67968-2.17578l-6.76172 1.91797m5.77735-1.63672l.84766.88281m13.16796-1.85937l-6.1953 3.3125m6.1953-3.3125l2.03907 1.36328m10.82812-2.01563L274.5 416.0586m5.30078-4.61328l2.29297.8789m10.63281-1.2578l-4.52344 5.375m4.52344-5.375l2.39844.51171m9.5625-1.21875l-1.8125 6.78907m1.8125-6.78907l2.39063-.55468m10.5664.48047l-1.09765 6.9375m.9375-5.9297l1.16015-.39843m15.02344 1.53906l-6.51172 2.64063m5.5625-2.25781l.9414.78906m12.98048-1.8164l-5.82813 3.92968m5.82813-3.92969l2.16406 1.15235m11.3164-.87891l-6.16015 3.3789m6.16015-3.3789l2.05079 1.34766m11.44921-.95704l-6.52734 2.60157m6.52734-2.60157l1.8711 1.58594m11.1836-2.10937l-6.00782 3.64843m6.00781-3.64843l2.10938 1.2539m-2.98438-.72265l1.05469.625m13.23047-.98828l-6.19922 3.3125m6.19922-3.3125l2.03515 1.36328m-2.9375-.88282l2.03516 1.3672m12.23047-1.75391l-6.29297 3.125m6.29297-3.125l1.9961 1.42578m-2.91407-.97266l1.9961 1.42969m11.91406-2.41016l-5.65235 4.17578m5.65235-4.17578l2.21484 1.0586m-3.03516-.44922l1.10547.52734m12.3789-1.8086l-4.34765 5.52344m4.34766-5.52343l2.41406.4336m-3.04687.37108l1.20703.21485m12.60937-1.11719l-4.08594 5.71875m4.08594-5.71875l2.4336.32031m-3.02735.51172l1.21485.16016m13.0703-.67969l-4.83983 5.09375"/><g clip-path="url(#ac)"><path fill="none" stroke="#000" stroke-linecap="round" stroke-linejoin="round" stroke-miterlimit="10" stroke-width=".5" d="M465.98047 411.20703l2.36328.65625"/></g><path fill="none" stroke="#000" stroke-linecap="round" stroke-linejoin="round" stroke-miterlimit="10" stroke-width=".5" d="M465.27734 411.94531l1.1836.32813"/><g clip-path="url(#ad)"><path fill="none" stroke="#000" stroke-linecap="round" stroke-linejoin="round" stroke-miterlimit="10" stroke-width=".5" d="M146.78125 398.29297l-5.5625 4.28906"/></g><path fill="none" stroke="#000" stroke-linecap="round" stroke-linejoin="round" stroke-miterlimit="10" stroke-width=".5" d="M146.78125 398.29297l2.23438 1.01172m-3.04297-.38672l2.23437 1.01172m12.03516-1.4336l-5.85547 3.88282m5.85547-3.88282l2.16015 1.16797m-3.01172-.60156l2.15625 1.16797m11.89063-1.90625l-5.61328 4.23047m5.61328-4.23047l2.22266 1.03515m-3.03907-.42187l2.22266 1.03906m12.09375-1.38281l-5.98438 3.6875m5.98438-3.6875l2.11719 1.24219m-2.98828-.70313l1.05859.61719m12.73047-1.67969l-5.1914 4.73438m4.4375-4.04297l1.15624.41015m13.28906 3.14063l-5.9414-3.75m5.07812 3.20703l-.09375 1.22266m14.77735-2.05469l-6.95313-1m6.95313 1l.83203 2.3125m12.48047-3.32813l-6.94922 1.03125m6.94922-1.03125l1.45703 1.97657m11.89844-1.53906l-7.02735.15625m6.0039-.13282l.59767 1.07031m13.73437-1.19921l-7.01563.36718m5.9961-.3125l.6289 1.05079m13.71094-.87891l-7.02734-.08203m7.02734.08203l1.125 2.17969m12.03516-3.26172l-6.71485 2.07812m6.71485-2.07812l1.73828 1.73047m-2.71875-1.42579l.8711.86329m13.3125-1.47657l-6.4922 2.69532m6.4922-2.69532l1.89452 1.5586m-2.83984-1.16406l.94531.77734m13.44532-.80078l-6.75391 1.95312m6.7539-1.95312l1.70704 1.76172m-2.6914-1.47657l.85546.88282m12.8789-2.29688l-5.62109 4.21485m4.80078-3.60157l1.11328.51953m11.42188-2.32421l-2.42188 6.59375m18.03125-3.54688l-7.01171.5039m5.99218-.43359l.65235 1.03906m13.47656.35157l-6.59766-2.42188m6.59766 2.42188l.33203 2.42969m13.02734-4.71485l-6.6914 2.14844m6.6914-2.14844l1.76172 1.71094m-2.73437-1.39844l1.75781 1.71094m12.58203-1.85156l-6.79297 1.80468m6.79297-1.80468l1.66797 1.80078m-2.65625-1.53516l.83594.89844m13.58203-.3711l-7.02344.22266m7.02344-.22265l1.21875 2.1289m-2.23828-2.09765l.60937 1.0664m13.29688-2.67578l-6.16406 3.375m6.16406-3.375l2.05078 1.34766m11.01953-1.73047l-5.67578 4.14062m5.67578-4.14062l2.20703 1.07031m10.51953-1.69922L448 403.13672m4.4961-5.39844l2.40234.5m-3.0586.28516l1.20313.25m12.97656-.84766l-4.91406 5.02344"/><g clip-path="url(#ae)"><path fill="none" stroke="#000" stroke-linecap="round" stroke-linejoin="round" stroke-miterlimit="10" stroke-width=".5" d="M466.01953 397.92578l2.35547.6914"/></g><path fill="none" stroke="#000" stroke-linecap="round" stroke-linejoin="round" stroke-miterlimit="10" stroke-width=".5" d="M465.30469 398.65625l1.17578.34766"/><g clip-path="url(#af)"><path fill="none" stroke="#000" stroke-linecap="round" stroke-linejoin="round" stroke-miterlimit="10" stroke-width=".5" d="M146.79688 384.9961l-5.59375 4.2539"/></g><path fill="none" stroke="#000" stroke-linecap="round" stroke-linejoin="round" stroke-miterlimit="10" stroke-width=".5" d="M146.79688 384.9961l2.22656 1.02734m-3.03906-.40625l2.22656 1.02344m12.10547-1.34375l-6 3.65625m6-3.65625l2.10937 1.25m-2.98437-.71875l1.05468.625m13.21094-1.03125l-6.15234 3.40234m6.15234-3.40235l2.05469 1.33985m-2.95313-.84375l1.03125.66797m13.31641-.89063l-6.42188 2.85547m6.42188-2.85547l1.9336 1.51172m-2.8672-1.09375l.96485.7539m13.58594.14454l-7.02344.22265m7.02344-.22265l1.21875 2.1289m-2.24219-2.09765l.60938 1.0664m13.6914-.47656l-6.95312-1.01953m6.95312 1.01953l.82813 2.3086m-1.83985-2.45704l.41406 1.15625m13.92188-1.0703l-6.96875-.89454m6.96875.89453l.86719 2.29688m-1.88281-2.42578l.43359 1.14843m13.74219-.34765l-6.66016-2.23828m6.66016 2.23828l.40234 2.41797m13-2.71485l-6.83203-1.64453m6.83203 1.64453l.60938 2.3789m12.71484-2.42968l-6.85547-1.54297m6.85547 1.54297l.64844 2.36719m11.41406-.3789l-4.34766-5.51954m4.34766 5.51953l-.98828 2.2461m15.47265-3.91797l-6.68359-2.17578m5.71094 1.85937l.21093 1.20703M307.25 386.5547l-6.9375 1.13672m5.92578-.97266l.7461.97656m13.27343-2.10547l-6.32422 3.07032m5.40235-2.625l.99218.72265m13.3672-.8789l-6.57032 2.49218m6.57031-2.49218l1.84766 1.61718m11.375-1.83984l-6.38281 2.9336m5.45312-2.50782l.97656.74219m12.71875 2.61719l-5.28515-4.63672m5.28515 4.63672l-.5625 2.38671m14.75-4.74218l-7.02734.07422m7.02734-.07422l1.17188 2.15234m-2.19531-2.14062l.58593 1.07421m13.58203-2.12109l-6.6914 2.14453m6.6914-2.14453l1.75782 1.71094m11.39843-2.11719l-6.37109 2.95703m6.3711-2.95703l1.95703 1.48047m11.43359-1.3125l-6.52344 2.6211m6.52344-2.6211l1.875 1.58203m11.15625-2.13672l-5.95313 3.73047m5.08594-3.1875l1.0625.60938m13.51172-.28516l-6.73828 1.9961m5.75781-1.70313l.85938.875m12.1914-2.96875l-4.25 5.59765m3.63282-4.78125l1.21093.19532m13.06641-.71485l-4.9375 5.00391"/><g clip-path="url(#ag)"><path fill="none" stroke="#000" stroke-linecap="round" stroke-linejoin="round" stroke-miterlimit="10" stroke-width=".5" d="M466.03125 384.6211l2.35156.70312"/></g><g clip-path="url(#ah)"><path fill="none" stroke="#000" stroke-linecap="round" stroke-linejoin="round" stroke-miterlimit="10" stroke-width=".5" d="M146.125 371.00781l-4.25 5.59766"/></g><path fill="none" stroke="#000" stroke-linecap="round" stroke-linejoin="round" stroke-miterlimit="10" stroke-width=".5" d="M146.125 371.00781l2.42188.39453m-3.03907.42188l1.21094.19531m13.08203-.69531l-4.96875 4.96875m4.96875-4.96875l2.34375.71875m11.17188-.5l-5.3711 4.53125m4.58985-3.8711l1.13672.45704m13.26562-.69141l-5.98438 3.67969m5.98438-3.67969l2.11719 1.24219m11.53125-.53516l-6.65235 2.26563m6.65235-2.26563l1.78906 1.67578m11.59375.3711l-6.78516-1.82813m6.78516 1.82813l.54688 2.39062m12.5078-1.71094l-6.26562-3.1875m6.26563 3.1875l.04297 2.45313m13.47656-2.94531l-6.67188-2.20313m6.67188 2.20313l.41406 2.41796m12.98438-2.71484l-6.83985-1.60937m6.83985 1.60937l.625 2.375m12.6875-2.36719l-6.83594-1.6289m6.83594 1.6289l.61718 2.375m12.33204-1.44921l-6.10547-3.48047m6.10547 3.48046L280.1289 378m11.0039-.74219l-1.33203-6.89844m1.13672 5.89454l-.95313.76953m10.57422-1.8164l6.44532-2.79688m12.80859-.82813l-5.4336 4.45313m4.64454-3.8047l1.13281.47267m13.57813-.03516l-6.64844 2.28125M332.76563 373l.89843.83594m13.5039.66797l-6.88671-1.39454m5.88672 1.19532l.34765 1.17578m13.63282-.03516l-6.21485-3.27344m6.21485 3.27344l.01172 2.45313m13.46484-2.80078l-6.53516-2.58204m6.53516 2.58204l.27344 2.4414m13.05078-2.46875l-6.55469-2.52734m5.60156 2.16015l.14844 1.21875m14.3086-1.53515l-6.9336-1.16016m5.92188.99219l.39062 1.16406m13.96094-1.96875l-6.98438.78906m5.96875-.67578l.69141 1.01172m13.3164-2.2539l-6.33593 3.04687m5.41406-2.60156l.98828.72656m13.3086-1.03125l-6.46094 2.76563m5.52344-2.36329l.95312.76954m11.94531-2.76172l-3.75 5.94531m3.20313-5.08203l1.22265.09375m12.08204-1.24219l-2.63672 6.51563m2.2539-5.56641l1.21875-.1289"/><g clip-path="url(#ai)"><path fill="none" stroke="#000" stroke-linecap="round" stroke-linejoin="round" stroke-miterlimit="10" stroke-width=".5" d="M143.3125 357.04688l1.375 6.89062"/></g><g clip-path="url(#aj)"><path fill="none" stroke="#000" stroke-linecap="round" stroke-linejoin="round" stroke-miterlimit="10" stroke-width=".5" d="M143.3125 357.04688l1.89844-1.5547"/></g><path fill="none" stroke="#000" stroke-linecap="round" stroke-linejoin="round" stroke-miterlimit="10" stroke-width=".5" d="M157.51172 356.98438L157.11719 364m.33984-5.99219l1.11328-.51562m13.59375-.16016l-3.0664 6.32031m17.0664-.4375l-4.4375-5.4453m15.86328 6.22265l-.66015-6.9961m16.69922 5.23438l-6.10547-3.47656m5.21484 2.97265l-.03516 1.22656m13.86329-.18359l-5.35547-4.55078m4.57812 3.88672l-.26172 1.19922m14.1797-.34375l-5.00392-4.9375m4.27344 4.21875l-.34765 1.17578m15.05859-1.40235l-6.33203-3.04296m6.33203 3.04296l.09766 2.45313m13.35547-2.78516l-6.60938-2.3789m5.64844 2.03125l.17578 1.21484m13.67969-.05078l-5.76954-4.01172m4.9297 3.42578l-.14454 1.21875m14.10156-.375l-5.37109-4.52734m4.58984 3.86719l-.2578 1.19921m11.39452.69922l.54688-7.0039m-.46875 5.98437l-1.125.48828m14.95703.52735l-.64453-6.9961m.55078 5.97657l-1.02734.67578m17.57421-2.53516l-6.91796-1.23828m5.91015 1.05469l.375 1.16797m13.40235.35546l-5.82813-3.92187m4.98047 3.35156l-.1289 1.22266m14.2539-.59375l-5.7539-4.03516m5.7539 4.03516l-.30078 2.4336m13.71094-2.57423l-5.94141-3.7539m5.9414 3.7539l-.1875 2.44532m13.78907-3.00782l-6.51563-2.6328m5.5664 2.25l.12892 1.22265m14.39062-2.1289l-7.02734-.0547m18.20312-3.20312l-2.75 6.46484m16.23047-6.39062l-3.07812 6.3164m15.08984-6.66406L436.6953 364m.40235-5.99219l1.12109-.5039m12.1836-.51954l-.3125 7.01954m.26562-6l1.10937-.52735m12.69141-.44531l-1.1875 6.92578m1.01563-5.91797l1.16406-.38672"/><g clip-path="url(#ak)"><path fill="none" stroke="#000" stroke-linecap="round" stroke-linejoin="round" stroke-miterlimit="10" stroke-width=".5" d="M141.53125 344.67969l4.9375 5"/></g><path fill="none" stroke="#000" stroke-linecap="round" stroke-linejoin="round" stroke-miterlimit="10" stroke-width=".5" d="M154.22266 345.50781l6.18359 3.33985m-6.1836-3.33985l.01954-2.45312m13.58594 6.2461l5.60156-4.2461m-4.78516 3.6289l-1.11328-.51562m14.00781 1.57031l4.8125-5.1211m-4.10937 4.37891l-1.1875-.32421m14.22656 1.41015l3.95703-5.8086m-3.3789 4.96485l-1.22266-.13672m13.32812.42578l5.22266-4.69921m-4.46484 4.01562l-1.15235-.41797m15.83594 2.23438l.96484-6.96094m-.82422 5.94531l-1.15234.42188M238 350.60156l-1.58594-6.84765m1.35156 5.85156l-.92187.80469m14.69922.1289l-2.04688-6.72265m1.75 5.74609l-.86718.86719m15.95312-.77735l-4.99219-4.94921m4.26563 4.23046l-.35547 1.17188m14.9414-1.16797l-6.08202-3.51953m5.19921 3.00781l-.04687 1.22656m14.39844-1.01562l-6.39063-2.91797m5.46094 2.49219l.07422 1.22656m14.46093-1.82031l-6.97265-.8789m5.96094.75l.43359 1.14843m11.78906 1.77344l-2.76172-6.46485m12.44532 5.92969l4.5039-5.39453m-3.85156 4.60937l-1.19922-.2539m17.51953 1.5625l-2.8125-6.4414m17.77344 4.96093l-6.10547-3.48047m5.21484 2.97656l-.03515 1.22656m14.16797-.59765l-5.95703-3.72656m5.08984 3.18359l-.08594 1.22266m14.76563-2.04688l-6.95703-.9961m5.9453.85157l.41798 1.15234m13.52734-3.16406l-6.1914 3.3164M399.18358 346l1.01953.6836m11.6172-2.67188l-3.03907 6.33203m2.59766-5.41016l1.22656-.05078m10.71875-1.20703l.58203 7.0039m-.4961-5.98437l1.03126-.66406m9.44921 1.38672l6.08204 3.51953m-5.19922-3.00781l.04687-1.22656m12.19531 1.09375l6.46094 2.76171m-5.51953-2.35937l-.10547-1.22266m16.39453-1.2461L462.875 350.625m1.17187-5.89063l1.17579-.35156"/><g clip-path="url(#al)"><path fill="none" stroke="#000" stroke-linecap="round" stroke-linejoin="round" stroke-miterlimit="10" stroke-width=".5" d="M141.60938 331.28906l4.78125 5.14844"/></g><path fill="none" stroke="#000" stroke-linecap="round" stroke-linejoin="round" stroke-miterlimit="10" stroke-width=".5" d="M153.80469 333.71094l7.01953.30078m-5.9961-.2539l-.53125-1.10938m13.03516 2.42187l6.59766-2.41406m-6.59766 2.41406l-1.82812-1.63672m15.46875 2.30079l5.9453-3.7422m-5.08202 3.19923l-1.0625-.60938m14.41797 2.1211l4.14062-5.6797m-4.14062 5.6797l-2.4297-.34766m15.56642.20703l4.49609-5.39844m-4.4961 5.39844l-2.40234-.5m16.32813.91016l3.27343-6.21875m-2.79687 5.3125l-1.22656.0039m14.5078 1.09766l2.39063-6.60938m-2.04297 5.64844l-1.21484.17188m12.92969.0039l4.89453-5.03906m-4.1836 4.30469l-1.17968-.33985m14.625 1.6797l3.21094-6.25m-2.7422 5.33983l-1.22655.01954m16.13671 1.25l-.91796-6.96875m.78515 5.95312l-1 .71485m15.34766.05468l-2.71875-6.47656m2.32422 5.53516l-.77735.94921m16.41797-2.01562l-6.58203-2.46094m5.625 2.10156l.16016 1.21875m14.29297-1.53515l-6.94141-1.10938m6.9414 1.10938l.79298 2.32031m12.55468-3.14844l-7.00781.54688m7.00781-.54688l1.3164 2.06641m12.00782-1.90625l-7.02344.22656m6-.1914l.60938 1.0625m11.97266 2.05859l-3.51172-6.08594m3 5.19922l-.64844 1.04297m13.57031.21094l-1.70312-6.82031m1.45703 5.82812l-.91016.82031m17.1289-3.39453l-7.01952.3086m6-.26172l.62109 1.05468m9.34375-4.35156l1.71875 6.8125m-1.46484-5.82031l.90625-.82422m10.55859.73047l4.91797 5.01562m-4.20313-4.28906l.3711-1.16797m11.29687 2.01953l6.77735 1.85938m-5.78907-1.58985l-.26953-1.1953m12.4961 2.27343l6.98047-.83594m-5.96485.71485l-.69922-1.00782m13.52735-1.17968l5.92187 3.78125m-5.0586-3.23047l.09766-1.22656m15.65235-.9297l-.67578 6.9922m.57812-5.97657l1.13281-.46875"/><g clip-path="url(#am)"><path fill="none" stroke="#000" stroke-linecap="round" stroke-linejoin="round" stroke-miterlimit="10" stroke-width=".5" d="M143.96094 317.03516l.07812 7.02734"/></g><g clip-path="url(#an)"><path fill="none" stroke="#000" stroke-linecap="round" stroke-linejoin="round" stroke-miterlimit="10" stroke-width=".5" d="M143.97266 318.0586l1.07422-.58985"/></g><path fill="none" stroke="#000" stroke-linecap="round" stroke-linejoin="round" stroke-miterlimit="10" stroke-width=".5" d="M154.03125 319.30469l6.57031 2.48828m-5.61719-2.1289l-.15234-1.21485m12.44922 3.16015l6.69922-2.125m-5.72656 1.81641l-.875-.85937m13.48047 1.78515l6.17187-3.35937m-5.27344 2.8711l-1.02344-.67579m13.98438 1.91406l5.08203-4.85547m-4.33984 4.14844l-1.16797-.38672m13.74219 1.09375l5.08203-4.85547m-4.34375 4.14844l-1.16406-.38672m13.67187 1.01563L226.5 318.1953m-4.46094 4.01953l-1.15234-.41796m13.71484 1.10937l5.20703-4.71484m-4.44922 4.02734l-1.15625-.41406m13.41797.72656l5.80078-3.96875m-4.95703 3.39063l-1.08593-.56641m13.76562 1.41797l5.38281-4.51172m-4.60156 3.85547l-1.13672-.46094M275.2461 323.5l3.8125-5.90234m-3.2578 5.04296l-1.22266-.10546m15.47656 1.5039l.82422-6.98047m-.70313 5.96485l-1.14453.44531m15.05078.57813l-.60156-7m.51562 5.98437l-1.03125.66406m16.04688-.19922l-3.82813-5.89453m3.26954 5.03516l-.59375 1.07422m16.05859-2.92578l-7.01172-.47266m5.99219.40234l.5 1.1211m13.79687-1.84375l-6.9375 1.11328m6.9375-1.11328l1.48047 1.95312m11.8125-.72265l-6.89453-1.35157m5.89063 1.15625l.35937 1.17188m13.33594.4375l-5.64844-4.17969m4.82813 3.57031l-.1797 1.21485m14.51173-4.49219l-6.03907 3.59375m6.03907-3.59375l2.09765 1.27344m11.3086-1.10547l-6.22266 3.25781m6.22266-3.25781l2.02734 1.38672m10.8125-2.08203l-5.26953 4.64843m5.26953-4.64843l2.29688.86328m8.96093-2.0039l-1.15625 6.92968m1.15625-6.92969l2.32422-.78125m8.07813 1.6211l4.66797 5.2539m14.41015-3.39062l-6.85937 1.52734m5.86328-1.30469l.79687.92969m12.10157-3.26953l-4.03125 5.75781"/><g clip-path="url(#ao)"><path fill="none" stroke="#000" stroke-linecap="round" stroke-linejoin="round" stroke-miterlimit="10" stroke-width=".5" d="M465.57813 317.66797l2.43359.30078"/></g><path fill="#00f" fill-rule="evenodd" d="M392.67578 467.64844h8.6211V457.5039h-8.6211v10.14453"/><path fill="azure" fill-rule="evenodd" d="M394.51172 459.33594h.83203v2.82422h3.28516v-2.82422h.83203v6.48047h-.83203v-2.91797h-3.28516v2.91797h-.83203v-6.48047"/><path fill="#ff3030" fill-rule="evenodd" d="M322.35938 454.33203h7.6914V444.1875h-7.6914v10.14453"/><path fill="azure" fill-rule="evenodd" d="M324.1914 446.01953h.83204v5.73828h3.19531V452.5h-4.02734v-6.48047"/><path fill="#00f" fill-rule="evenodd" d="M388.23828 432.14063h8.61719v-10.14454h-8.61719v10.14454"/><path fill="azure" fill-rule="evenodd" d="M390.07031 423.82813h.83594v2.82421h3.28516v-2.82421h.83203v6.48046h-.83203v-2.91796h-3.28516v2.91796h-.83594v-6.48046"/><path fill="#00f" fill-rule="evenodd" d="M219.58203 418.82813h8.61719v-10.14844h-8.61719v10.14844"/><path fill="azure" fill-rule="evenodd" d="M221.41406 410.51172h.83203v2.82422h3.28907v-2.82422h.83203v6.48047h-.83203v-2.91406h-3.28907v2.91406h-.83203v-6.48047"/><path fill="#ff3030" fill-rule="evenodd" d="M175.89063 401.07422h7.6953v-10.14844h-7.6953v10.14844"/><path fill="azure" fill-rule="evenodd" d="M177.72656 392.76172h.83203V398.5H181.75v.73828h-4.02344v-6.47656"/><path fill="#ff3030" fill-rule="evenodd" d="M344.55078 401.07422h7.6914v-10.14844h-7.6914v10.14844"/><path fill="azure" fill-rule="evenodd" d="M346.38281 392.76172h.83203V398.5h3.19532v.73828h-4.02735v-6.47656"/><path fill="#ffffe0" fill-rule="evenodd" d="M341.74219 384.46094h22.1836v-10.1914h-22.1836v10.1914"/><path fill-rule="evenodd" d="M345.24219 376.10156h.51172v6.29688h-.78907v-4.49219h-1.38671v-.55469l.55859-.0625.2539-.05469.22657-.08984.20312-.14062.17578-.21094.14063-.29297.10547-.39844m4.8164 0l.22657.01953.21875.0547.21093.08983.19532.1211.18359.15234.17188.17578.30078.41797.24218.49219.1797.54688.11327.58203.03906.58984-.03906.59375-.11328.58203-.17969.55469-.24218.5039-.30079.42579-.17187.17968-.1836.15235-.1953.125-.21094.08984-.21875.0586-.22657.01953-.23046-.01954-.21875-.05859-.20704-.08984-.19921-.125-.1836-.15235-.17187-.17968-.30079-.42579-.24218-.5039-.17969-.55469-.11328-.58203-.03906-.59375h.83593l.02735.5625.08203.5039.125.44532.16406.375.1914.30078.21094.21875.22266.13672.22656.04687.22657-.04687.22265-.13672.21094-.21875.1875-.30078.16406-.375.125-.44531.08203-.50391.03125-.5625-.03125-.5625-.08203-.5-.125-.4336-.16406-.36718-.1875-.29297-.21094-.21484-.22265-.12891-.22657-.04688-.22656.04688-.22265.1289-.21094.21485-.1914.29297-.16407.36719-.125.43359-.08203.5-.02735.5625h-.83593l.03906-.58984.11328-.58204.17969-.54687.24219-.49219.30078-.41797.17187-.17578.1836-.15234.19921-.1211.20704-.08984.21875-.05469.23046-.01953m5.08985 0h.50781v6.29688h-.78516v-4.49219h-1.39062v-.55469l.5625-.0625.25-.05469.23047-.08984.20312-.14062.17578-.21094.14063-.29297.10547-.39844m2.82422 2.17578h.78515l.01953-.3164.0586-.28516.10156-.2539.14063-.21485.17968-.17187.22266-.12891.26562-.08203.3086-.02735.23828.02344.22265.0625.20313.10156.17969.13672.14844.17188.11328.20703.07421.23828.02344.26172-.01953.26953-.0664.22266-.10938.19531-.15625.16797-.20313.16406-.24609.16406-.63281.39063-.53906.3125-.4375.3164-.34375.32422-.26563.33594-.1914.35156-.125.3711-.06641.39453-.02344.41797h4.21485v-.74219h-3.33594l.08594-.28125.11328-.23828.14843-.20313.1875-.17968.23047-.17188.27735-.17578.71875-.41406.41406-.20703.34375-.23047.28125-.25.22265-.26953.16016-.27735.11328-.28515.0625-.28516.01953-.28125-.03906-.38281-.1211-.34766-.1914-.30469-.25-.26562-.30078-.21094-.34766-.16015-.3789-.09766-.40625-.03516-.4336.03516-.39843.09765-.35547.16797-.30469.23438-.25.30078-.1836.375-.11718.44531-.03906.51953"/><path fill="#ffffe0" fill-rule="evenodd" d="M273.28125 423.4961h22.1836v-10.19141h-22.1836v10.1914"/><path fill-rule="evenodd" d="M276.78125 415.13672h.51172v6.29687h-.78906v-4.49218h-1.38672v-.5547l.5586-.0664.2539-.05078.22656-.08984.20313-.14453.17578-.20704.14062-.29687.10547-.39453m4.8164 0l.22657.01953.21875.05469.21094.08984.1953.1211.1836.14843.17188.17578.30078.42188.24219.49219.17968.54687.11329.57813.03906.58984-.03906.59375-.11329.58594-.17968.55469-.2422.5-.30077.42968-.17188.17969-.1836.15234-.1953.125-.21094.08985-.21875.0586-.22656.01952-.23047-.01953-.21875-.0586-.20703-.08984-.19922-.125-.1836-.15234-.17187-.17969-.30078-.42969-.24219-.5-.17969-.55468-.11328-.58594-.03906-.59375h.83594l.02734.5664.08203.50391.125.4414.16406.375.19141.30079.21094.22266.22265.13671.22657.04688.22656-.04688.22265-.13671.20704-.22266.1914-.30078.16406-.375.125-.4414.08204-.50391.02734-.56641-.02734-.5586-.08204-.5-.125-.4375-.16406-.36327-.1914-.29297-.20704-.21485-.22265-.13281-.22656-.04297-.22657.04297-.22265.13281-.21094.21485-.1914.29296-.16407.36329-.125.4375-.08203.5-.02734.55859h-.83594l.03906-.58984.11328-.57813.17969-.54687.24219-.4922.30078-.42187.17187-.17578.1836-.14844.19922-.12109.20703-.08984.21875-.05469.23047-.01953m5.08984 0h.50781v6.29687h-.78515v-4.49218h-1.39063v-.5547l.5625-.0664.25-.05078.23047-.08984.20313-.14453.17578-.20704.14062-.29687.10547-.39453m2.82422 2.17578h.78515l.01954-.3164.05859-.28516.10156-.2539.14063-.21485.17969-.17578.22265-.12891.26563-.07813.30859-.02734.23828.01953.22266.0625.20312.10156.17969.14063.14844.17188.11328.20703.07422.23437.02344.26563-.02344.26953-.0625.22265-.11328.19141-.15235.17188-.20312.16406-.2461.16406-.6328.39063-.53907.3125-.4375.3164-.34766.32422-.26172.33594-.1914.35156-.125.3711-.0664.39062-.02345.42187h4.21094v-.74218H290.25l.08594-.28516.11328-.23438.14844-.20312.1875-.17969.23046-.17187.27735-.17578.71875-.41797.41406-.20313.34375-.23047.28125-.2539.21875-.26563.16406-.27734.11329-.28516.0625-.28515.01953-.28125-.03907-.38282-.12109-.34765-.1914-.3086-.25-.26171-.30079-.21485-.34765-.15625-.37891-.09765-.40625-.03516-.4336.03125-.39843.10156-.35547.16406-.30469.23438-.25.30469-.1836.375-.11718.4453-.03906.51954"/><path fill="#ffffe0" fill-rule="evenodd" d="M181.96484 465h22.1797v-10.1914h-22.1797V465"/><path fill-rule="evenodd" d="M185.46094 456.64063h.51172v6.29687h-.78907v-4.49219h-1.38672v-.55469l.5586-.0664.2539-.05078.22657-.08985.20703-.14453.17187-.20703.14063-.29687.10547-.39454m4.8164 0l.22657.01954.21875.05468.21093.08985.19532.1211.18359.14843.17188.17578.30078.42188.24609.49218.17969.54688.10937.57812.03906.58985-.03906.59375-.10937.58593-.17969.5547-.2461.5-.30077.42968-.17188.17969-.1836.15234-.1953.125-.21094.08984-.21875.0586-.22657.01953-.23047-.01953-.21875-.0586L189.6211 463l-.19922-.125-.18359-.15234-.17187-.1797-.30078-.42968-.2422-.5-.17968-.55469-.11328-.58593-.03906-.59375h.83593l.02735.5664.08203.5039.125.44142.16406.375.1914.30078.21095.22265.22265.13672.22656.04688.22657-.04688.22265-.13672.21094-.22265.1875-.30079.16406-.375.125-.4414.08203-.5039.03125-.56641-.03125-.5586-.08203-.5-.125-.4375-.16406-.36328-.1875-.29297-.21094-.21484-.22265-.13281-.22657-.04297-.22656.04297-.22266.1328-.21093.21485-.1914.29297-.16407.36328-.125.4375-.08203.5-.02735.5586h-.83593l.03906-.58985.11328-.57812.17969-.54688.24219-.49219.30078-.42187.17187-.17578.1836-.14844.19921-.1211.20703-.08984.21875-.05468.23047-.01954m5.08985 0h.50781v6.29688h-.78516v-4.49219h-1.38672v-.55469l.5586-.0664.25-.05078.23047-.08985.20312-.14453.17578-.20703.14063-.29687.10547-.39454m2.82422 2.17579h.78515l.01953-.31641.0625-.28516.09766-.2539.14063-.21485.17968-.17578.22266-.1289.26562-.07813.3086-.02734.23828.01953.22266.0625.20703.10156.17578.14063.14844.17187.11328.20703.07422.23438.02343.26562-.01953.26953-.0664.22266-.10938.1914-.15625.17188-.20313.16406-.24609.16407-.63281.39062-.53906.3125-.4375.3164-.34375.32423-.26563.33593-.1914.35157-.125.37109-.06641.39063-.02344.42187h4.21484v-.74219h-3.33593l.08594-.28515.11328-.23438.14843-.20312.1875-.1797.23047-.17187.27735-.17578.71875-.41797.41406-.20312.34766-.23047.27734-.2539.22266-.26563.16015-.27735.11328-.28515.0625-.28516.01953-.28125-.03906-.38281-.1211-.34766-.1875-.30859-.2539-.26172-.30078-.21484-.34375-.15625-.38281-.09766-.40625-.03515-.4336.03125-.39843.10156-.35547.16406-.30469.23438-.25.30468-.1836.375-.11718.44531-.03906.51954"/></g></defs><use xlink:href="#ap"/></svg>