<svg xmlns="http://www.w3.org/2000/svg" role="img" xmlns:xlink="http://www.w3.org/1999/xlink" viewBox="142.45 309.95 326.84 171.84"><defs><clipPath id="a"><path d="M144 311.67188h1v168.65625h-1zm0 0"/></clipPath><clipPath id="b"><path d="M144 311.67188h324v168.65625H144zm0 0"/></clipPath><clipPath id="c"><path d="M467 311.67188h1v168.65625h-1zm0 0"/></clipPath><clipPath id="d"><path d="M144 479h4v1.32813h-4zm0 0"/></clipPath><clipPath id="e"><path d="M147 479h3v1.32813h-3zm0 0"/></clipPath><clipPath id="f"><path d="M153 479h9v1.32813h-9zm0 0"/></clipPath><clipPath id="g"><path d="M160 479h3v1.32813h-3zm0 0"/></clipPath><clipPath id="h"><path d="M166 479h9v1.32813h-9zm0 0"/></clipPath><clipPath id="i"><path d="M173 479h3v1.32813h-3zm0 0"/></clipPath><clipPath id="j"><path d="M180 479h8v1.32813h-8zm0 0"/></clipPath><clipPath id="k"><path d="M187 479h3v1.32813h-3zm0 0"/></clipPath><clipPath id="l"><path d="M193 479h8v1.32813h-8zm0 0"/></clipPath><clipPath id="m"><path d="M200 479h3v1.32813h-3zm0 0"/></clipPath><clipPath id="n"><path d="M206 479h9v1.32813h-9zm0 0"/></clipPath><clipPath id="o"><path d="M213 479h3v1.32813h-3zm0 0"/></clipPath><clipPath id="p"><path d="M220 479h8v1.32813h-8zm0 0"/></clipPath><clipPath id="q"><path d="M227 479h3v1.32813h-3zm0 0"/></clipPath><clipPath id="r"><path d="M233 479h8v1.32813h-8zm0 0"/></clipPath><clipPath id="s"><path d="M240 479h3v1.32813h-3zm0 0"/></clipPath><clipPath id="t"><path d="M246 479h9v1.32813h-9zm0 0"/></clipPath><clipPath id="u"><path d="M253 479h3v1.32813h-3zm0 0"/></clipPath><clipPath id="v"><path d="M260 478h8v2.32813h-8zm0 0"/></clipPath><clipPath id="w"><path d="M265 479h3v1.32813h-3zm0 0"/></clipPath><clipPath id="x"><path d="M273 478h8v2.32813h-8zm0 0"/></clipPath><clipPath id="y"><path d="M279 478h2v2.32813h-2zm0 0"/></clipPath><clipPath id="z"><path d="M287 478h7v2.32813h-7zm0 0"/></clipPath><clipPath id="A"><path d="M300 478h7v2.32813h-7zm0 0"/></clipPath><clipPath id="B"><path d="M314 477h7v3.32813h-7zm0 0"/></clipPath><clipPath id="C"><path d="M329 476h3v4.32813h-3zm0 0"/></clipPath><clipPath id="D"><path d="M342 476h4v4.32813h-4zm0 0"/></clipPath><clipPath id="E"><path d="M354 477h6v3.32813h-6zm0 0"/></clipPath><clipPath id="F"><path d="M366 478h8v2.32813h-8zm0 0"/></clipPath><clipPath id="G"><path d="M379 479h9v1.32813h-9zm0 0"/></clipPath><clipPath id="H"><path d="M380 479h2v1.32813h-2zm0 0"/></clipPath><clipPath id="I"><path d="M393 479h8v1.32813h-8zm0 0"/></clipPath><clipPath id="J"><path d="M391 479h3v1.32813h-3zm0 0"/></clipPath><clipPath id="K"><path d="M406 479h8v1.32813h-8zm0 0"/></clipPath><clipPath id="L"><path d="M404 479h4v1.32813h-4zm0 0"/></clipPath><clipPath id="M"><path d="M420 478h7v2.32813h-7zm0 0"/></clipPath><clipPath id="N"><path d="M418 480h3v.32813h-3zm0 0"/></clipPath><clipPath id="O"><path d="M434 477h6v3.32813h-6zm0 0"/></clipPath><clipPath id="P"><path d="M446 479h9v1.32813h-9zm0 0"/></clipPath><clipPath id="Q"><path d="M446 478h3v2.32813h-3zm0 0"/></clipPath><clipPath id="R"><path d="M463 476h2v4.32813h-2zm0 0"/></clipPath><clipPath id="S"><path d="M144 466h4v3h-4zm0 0"/></clipPath><clipPath id="T"><path d="M144 453h4v2h-4zm0 0"/></clipPath><clipPath id="U"><path d="M144 439h4v3h-4zm0 0"/></clipPath><clipPath id="V"><path d="M144 426h4v3h-4zm0 0"/></clipPath><clipPath id="W"><path d="M144 412h4v4h-4zm0 0"/></clipPath><clipPath id="X"><path d="M144 398h4v5h-4zm0 0"/></clipPath><clipPath id="Y"><path d="M144 384h4v6h-4zm0 0"/></clipPath><clipPath id="Z"><path d="M144 371h3v6h-3zm0 0"/></clipPath><clipPath id="aa"><path d="M144 356h2v9h-2zm0 0"/></clipPath><clipPath id="ab"><path d="M144 343h2v8h-2zm0 0"/></clipPath><clipPath id="ac"><path d="M144 341h1v4h-1zm0 0"/></clipPath><clipPath id="ad"><path d="M144 330h3v8h-3zm0 0"/></clipPath><clipPath id="ae"><path d="M144 316h1v9h-1zm0 0"/></clipPath><clipPath id="af"><path d="M144 315h3v3h-3zm0 0"/></clipPath><g id="ag" clip-path="url(#clip1)"><path fill="#fff" fill-opacity="0" fill-rule="evenodd" d="M0 0h1000v1000H0zm0 0"/><path fill="#d3d3d3" fill-opacity="0" fill-rule="evenodd" d="M162.15234 355.86719l-.23437.29297.0586.23437.11718.17188.17578.23437.29297.34766.11328.0586.11719-.17188.0586-.23438.17577-.17578.46485-.17578h.69922l.23437.29297.28906.8164.0586.17579.17578.23046.35156.23438.69922.69922.17188.17578.23437.34765.23438.41016.28906.58203.41015.46485.23047.23437.23438.17578.11719.23047.17578.29297.17187 1.16406v.23438l.0586.28906.05859.11719.11719.11719.34765.41015.11719.17188.17578.17578.17578.23437.11719.17188.17188.35156.05859.23438.23437.40625.23438-.0586-.17578.17578-.0586.92969h-.58203l-.23437-.11328-.34766.11328-.11719.11719-.05859.29297-.0586.17578-.11718.17187-.46484.29297-.0586.23438-.0586.11328v.64453l.0586.17187v.41016l.0586.0586v.40624l.05859.40625.11719.17579.05859.05859.23047.64062-.0586.29297v.69922l-.05859.58203v.23438l-.0586.23047-.05468.35156v1.92187l.05469.1172h.42578l-.36719.11718-.02344.35156.89063 1.16797 1.74219.53906 1.33984.35938v.53906l.08984.8086.53516.71484 1.51953.26953.89063-.08594.08984 1.16406.53516.1797 1.16015-.1797 2.05469-.98437 1.16016-.36328 1.8789-.17578 1.69531-.1797-.17968.71876-1.51563.08594-1.25.08984-.80469.26953-1.07421.8086.26953.71875.53515.89843-.17968.625-.26563.8086.26563 1.07812.625.89844.80468.17969 1.25-.1797-.26562.72267.09766.5039.05468.29297v.17188l.0586.29296v.40625l.17578.1172.35156.11718h.40625l.29297-.17578.11328-.11719.0586-.11719.11718-.23047.0586-.17578.35156-.46484.23047-.17578.17578-.0586.17578.0586.0586.17578.11718.98828.05469.46875.0586.17188.11718.23437.17578.0586.8164.05859h.28907l.11719.23437.05859.40625.0586.35156v1.10547l.11718.29297.11719.34766.28906.69922.17578.35156.58203.7539.35157.17579.17187.0586.46875.23437.64063.46484.34765.23438.29297.17578.29297.05468.23047.0625.8164.34766.29297.17578.11328.17188.35157.35156.11719.17578.52343.64063v.28906l.0586.35156v.34766l.05859.35156.0586.28906.11718.0586.17188.05859h.17578l.58203.23437.17578.1172.17578.28905.17578.23438.11328.23437.29297.23047.11719.11719v.41016l.0586.05468.28906.23438.23437.11719.0586.11718.11718.17188.0586.11719.23047.23437.05859.17578.23437.0586.1172.05859-.1172.11328-.05859.11719v.11719l-.11719.29296-.11719.28907v.58203l.17579.11719.11718.05859.0586.11719.11719.11719.11328.05859.17578.34765.0586.35157.05858.40625v.17578l-.05859.17578-.11719.69922v.17187l.1172.17579.29296.29296h.40625l.17578.1172.11719.17187.11719.29296v.23438h-.52735l-.23047-.23438h-.23437l-.17578.0586-.0586.69922.0586.34765.11719.17579.17578.41015.11718.23047.28907.46875.17578.05469h.52344l.23437.0586.75781.64062.0586.29296v.23438l.05859.0586.23047.34765v.35156l-.11719.17188v.29297l.29297.28906.29297.17578.17187.0586.29297.17577.29297.1172.58203.40624.28906.23438.29297.17578.21875.16015.01563.01172.23047.17579.64062.52343.17578.23438.1172.17578.17577.17578.11328.17188v.64062l.1172.17578.46874.11719.58203.11719.23438.05859.23047.11328.29297.11719.11328.0586.58593.35156.28907.17187.17578.0625.17578.05469.17578.0586.69922.35155.28906.17579.23438.05468.28906.17578.23437.1172.64063.40624.29297.11719.17187.0586.23438.05859.41015.05859.23047.0586.23438.11718.0586.17188-.41017.17578.46875.0586.0586.29296.11328.23438.17578.05468.23438.0586.17578.05859.40625.11719.64062.23437.11719.17188.0586.23437v.17578l-.0586.1172-.0586.40624.23438.23438.11719.05859.34766.11719.64062.23047.17578.11718.28906.1172.17578.17577.23438.46485.58203 1.10546.17578.17579.34766.17578.17578.11719.35156.11718 1.04688.52344.23437.0586.46485.11327.29297.0586.46484.17578.75781.58203.23438.23438.34765.46484.17578.17578.28907.23438.8164.69921.29297.17579.28906.28906.29297.17578.29297.28906.69531.64063.17578.17578.29297.23437.28907.23438.46875.28906.64062.58203.34766.23438.23437.29297.34766.34765.35156.46485.9336.99218.34765.40625.11719.17579.23437.05859.11328.11719.64454.17578.23047.11328.23437.0586.29297.17577.23047.1172.9336.69921.40624.40625.23438.17578.40625.17578.23437.11719.8164.34766.34766.23437.23438.11719.29297.28906.23047.11719.7578.35156.35157.17188.23047.05859.29297.11719.23437.0586.8711.17577h.8164l.46875.23047.17188.0586.875.69921.46484.1172.29297.05858.17578.0586.23047.0586.46875.05859.34766.05859.35156.0586.40625.05859h.29297l.17187.0586v.23046l.17578.17578h.29297l.34766.0586.35156.05859.69922.11719h.64063l.46484-.23438.29297-.17578.17187-.11719.41016-.17187.28906-.17578.9336-.46485.46875-.29297.52343-.29296.46485-.17188.46484-.17578 1.05078-.46485.28906-.11718.41016-.11719.28906-.11719.52735-.17578 1.51562-.69922.58203-.34765.28907-.0586.29297-.0586.34765-.11718.875-.23047.35156-.11719h.11329l.23437-.05859.875-.23437.23438-.0586h.8125l.35156-.0586.8164-.11718.17188-.0586.35156-.05468.29297-.0586.23047-.05859.8164-.17578.17579-.0586h.34765l.23438-.05859.46484-.11718.75781-.17188.23438-.0586h.34765l.41016-.11718.28906-.0586 1.28516-.05859h.28906l.41016-.0586.23047-.05858h.17578l.875-.1172h.40625l.41015-.11718h.34766l.35156-.11328.8711-.0586h1.75l1.04687.28907.41016.11719.28906.11718.35156.11719.28907.11719 1.05078.17187.28906.0586h.29297l.29297.05859.17187.0586.41016.05859.17187.0586.1172.05858h.11718l.11719.0586.35156.0586h.11328l.41016.0664 1.92187.39453 1.92578.39453 1.51953.44922 1.69532.71875 2.14453.80469 1.60547-.71875 1.42968-.80469 1.16016-1.07813 1.25-.44921 3.03516-.71875 1.875-.35938 2.14453-1.34765 2.23437-1.25391 2.5-1.25781 1.69531-.44922 1.78516-.17969 1.16016-.26953.625.53906 1.33984-.26953.71485-.98828.98437-1.34375.44531-.17969.80469-.35937 1.875-.53907 1.78516-.44921 1.25-.26954 1.16015-.08984 1.69922-.08984 1.96094-.26954 1.25-.08984h.53906l.625-.08984h.89063l2.14453-.17969 2.41015-.17969 2.58985-.08984 1.69531.17969 1.60938.08984 1.42968.35938 1.16016.71875 1.875.98828 1.16015 1.52734.26563.71484.6289.08985.35548.89844.53515.53906.53516 1.52734 1.07422.35938h.53515l-.80469.53515.08985 1.70703.71484 2.69532.89063.80468.89453.98829.71484 1.2578 1.78516.53907 1.51953-.17969.35547 1.34375 1.60937-.80469.98047-.53906.26953.26953.31641-.21484.21875-.14453.80078.44922.44922-.35938h.35547l.53515-.26953.53907-.71875.53515-.26953.625-.98828 1.16016.44922.83984.3711 1.39454.61718 1.6953-.17969h1.60548l1.78515.08985.17969-1.70704.53516-1.34375.80468.26954.4922.84765.40233.40625-.08984.53906v.35938l.71485.44922.71093-.26953h1.42969l.35938.98828.4453 1.25781.71485 1.34375 1.25.6289 1.69531.62891.71485-.17969.17969-.53906.98046-.08984.44922.35937.08594 1.25782-.26563.6289-.53515.17969v.53906l.71484.98438.26563.53906.98437.98828.80078 1.07813-.26562.35937-.08985.89844-.625 2.33203-.35546 2.0664-.08985 1.79298-.17969.71875-.08984.53906v1.4375l-.98047 1.88281-.35937 1.70703-.53516.89844-.80469 1.16797-.26562.53906 2.05469 1.2539.08593.35938-.35546.53906-.08985-.17968v.80859l.08985 1.4375-.44532.71484-1.07422.09375-.26562.71485.53515.89844.8047.71875 1.16015.80859 1.33984.26953.44531.35938-.35546.44921-1.78907-.08984-1.25-.44922-.71484-.71875-.625-.08984-.17578 3.58984-.1875 1.3086h89.35937V311.70313h-55.26953v49.08203l.76172.125 3.28906.54296 2.02344 2.83594v2.7539l2.35156.33204 2.34766.33203h4.05078l-1.3789 4.16016-2.02344.70703-2.02344.70312-.54297.34375-2.59375 1.6172-.1875.11718-2.02344-2.07813-.73046-2.74218-2.67188-2.07813-1.375-3.5-.0664-.08203-1.95704-2.67188 2.75-1.41796v-49.08204H294.42187v91.41407l.1172.03125.1328.01172.07422.07421.10547.04688.08985.0586.08593.05859.08985.0586.29687.29687.0586.08984.03125.11719.02734.11719.01563.13671-.03125.1172-.0586.08983-.0586.08594-.04296.10547-.04688.10156-.02734.1211v.14453l.17578.26953.14844.14844.07422.08594.07422.07421.04296.10547.0625.08985.0586.08593.04297.10547.0586.08985.04687.10156.04296.10547.0586.08594.11719.17968.07421.07422.0625.08594.0586.08984.04297.10547.0586.08985.05858.08593.0625.08985.0586.08984.04297.10156.11719.17969.07421.07422.0586.08594.07422.07421.08984.0586.10547.04687h.14844l.1328-.01562.13282.01562.10156-.04687.07422-.07422.04688-.10156-.01563-.13281v-.14844l-.04687-.10547-.02735-.11719-.04687-.10156-.02735-.1211-.04296-.10156-.0625-.08984-.04297-.10156-.04297-.10547-.03125-.11719-.01563-.13281-.01171-.13672.08593-.0586.0586-.08593.12109-.03125.04297.10547.01562.1328v.1172l.0586.10156.0586.08984.08983.0586.14844.14843.0586.08985.04296.10547-.01171.10156.08593.0586.10547.04687.08594.0586.08984.05858.07422.07422-.11719.02735-.10546.04687-.08594.0586-.07422.07421-.0586.08985-.0625.08594-.02734.12109-.04687.10156-.04297.10547-.03125.11719-.01172.13281-.01563.13281v.14844l.02735.11719.04687.10547.04297.10156.0586.08984.07421.07422.08985.0586.07422.07421.08984.0586.0586.08984.04296.10547.04688.10156.11719.03125.1328.01563h.14845l.11718-.03125.10547.04297.04297.10547.04688.10156.02734.1211L299.5 410l.02734.11719.03125.1211.02735.11718.10547.04297.10156.04687.13281-.01562.14844.14844.0625.08593.07422.07422.07031.07422.08984.0625.10547.04297.10156.04297.1172.03125.13671.01562.11719-.03125.07422-.07422.02734-.11718-.01172-.13282-.03125-.12109-.02734-.11719.04297-.10547h.11719l.08984.0625.11719.02735h.14843l.13282.01562h.14843l.13282.01563.1328-.01563h.14845l.1328-.01562.13282-.01172.13672.01172.11719-.02735.13281-.01562.1914-.0586-.05859.17579-.01562.1328-.02735.1211-.01562.13281-.0586.08594-.1328.01563-.10548.04687-.10546.04297-.1172.03125-.11718.02735-.26563.03125h-.14843l-.13281.01562-.07422.07422.05859.08594.14844.14843.11719.1797.07421.0703.08985.0625.08984.0586.08594.0586.08984.05858.10156.04297.10547.0625.10547.04297.08594.0586.10547.04687.10156.04297.17969.11719.0586.08984-.04298.10156-.04687.10547.01562.13281.22266.22266.0586.08985.04296.10156.03125.1211.04297.10155.01563.13282.03125.11718.01171.13672.03125.11719.14844.14844.10156.04297.10547.04296.1172.03125.1328.01563.13672.01563h.11719l.11719-.03125.08984-.0586.04297-.10547.04688-.10156.04296-.10547.03125-.11719.01172-.1328v-.14845l-.01172-.1328-.01562-.13282-.03125-.11719-.04297-.10547-.04688-.10547-.04296-.10156-.04297-.10547-.01563-.13281.01563-.13281.02734-.11719.03125-.11719.02735-.1211.04687-.10155.08984-.0586.08594-.0625.07422-.07422.08984-.05859.22266-.22266.0586-.08593.07421-.07422.11719-.17969.0586-.08594v-.14844l-.07423-.07421-.10156-.04688-.10547-.04297-.10156-.04297-.0586-.08984-.04687-.10547-.02734-.11719.08984-.05859.11719-.03125.10156-.04297.17969-.11719.14844-.14843.01172-.13282-.01172-.10546-.08985-.0586-.1328.01563h-.14845l-.1328.01562-.13282-.01562-.1211-.03125-.08593-.0586-.07422-.07422-.0586-.08984-.0625-.08594-.11718-.17969-.0586-.08593.03125-.1211.08594-.05859.1211-.03125.05859-.08594v-.1211l-.03125-.11718-.0586-.08984-.05859-.08594-.04687-.10547-.02735-.11719-.01562-.1328.0586-.08985.07421-.07422.08984-.0586.1172-.17968.07421-.07422.0586-.08594.14843-.14844.1211-.03125.1328-.01562.13282.01562.07422.07422.04297.10547.01562.13281-.03125.1172-.11719.03124-.1328.01172-.14844.14844-.04297.10547-.04688.10156-.02734.1211-.03125.11718v.14844l.03125.11719.04297.10546.05859.08985.07422.07031.07422.07422.11719.03125.12109.02734.11719-.02734.1328-.01563h.1172l.08984.0586.07422.07422.04687.10546.0586.08594.10156.04688.13281.01562.10547.04297.08594.0586-.01172.10546-.07422.07422-.17969.11719-.05859.08984-.08984.0586-.07032.07422-.07421.07421-.0625.08985-.02735.11719-.01562.1328.01562.13282-.01562.13281v.14844l.01562.13281.02735.1172.03125.12108.07421.07422.08985.0586.08594.0586.08984.05858.11719.03125v.08594l-.10157.04688-.08984.0586-.26563.03124-.11718.02735h-.14844l-.10547.04296-.10156.04688-.0586.08984-.0625.23438-.01171.13281-.03125.1211-.01563.1328v.29298l-.01172.1328.01172.13673.01563.1328.1328.01563.13282.01172.1211.03125.08593.0586.07422.07421.04688.10547.04296.10157.01563.1328v.44532l-.01563.13281v.44532l.03125.26562.02735.11719.01562.13281.03125.11719.08594.21094.03125.26562v.14844l-.03125.11719-.02734.11718-.03125.1211-.02735.11719-.03125.11718-.03125.1211-.01171.1328-.01563.13282.08984.0586.1172-.03125.10155.01562.04688.10547-.03125.26562v.44141l-.04297.10547-.04688.10547-.04296.10156-.04297.10547-.0586.08594-.03125.12109-.04296.11719-.03125.11719-.01563.1328.01563.13282.05859.08984.10547.04688.08594.0586.05859.08593-.01172.13672-.03125.11719-.04297.10156v.44531l-.01562.13281v.14844l-.03125.11719-.04297.10547-.02735.11719-.04687.10546-.04297.10157-.03125.12109-.02734.11719-.03125.13281-.03125.11719-.02735.11719-.04297.10546-.03125.1172-.03125.12108-.01171.13282-.01563.13281v.29688l.02734.11718v.14844l.04688.39844.02734.11719.0586.08984.12109.03125h.14844l.13281-.01563.0586.08985v.11719l-.0586.08984-.08984.0586-.10157.04296-.10546.04688-.08985.05859-.08594.0586-.13671.01562-.1172-.03125-.1328-.01563-.10157.04688-.0625.08594-.01172.13671-.01562.13282-.03125.11719-.02735.11718-.01562.13281-.03125.1211v.29687l.01563.13282.03125.11718v.14844l.01171.13281v.14844l-.02734.11719-.04688.10156-.02734.1211-.03125.11718-.0586.08985-.07421.07421-.10156.04297-.10547.04688-.11719.02734-.1211.03125-.10156-.04687.0586-.08594.10547-.04688.02734-.11718.03125-.11719.02734-.1211.03125-.11718v-.14844l.01563-.13281-.03125-.11719-.04297-.10547-.10547.01563-.07422.07422-.10156.04296-.08984.0625-.07422.07422-.04297.10157-.01563.1328-.03125.1172L304.25 426l-.03125.11719-.02734.11719-.03125.12109-.02735.11719-.03125.11718-.04297.10547-.08984.0586h-.08984l-.1172-.03125-.03124-.08594.01562-.13672-.03125-.11719v-.14844l-.01171-.1328v-.14844l-.0625-.23438-.02735-.1211-.04297-.10156-.04687-.10546-.0586-.08594-.05859-.08985-.04297-.10546-.0625-.08594-.14844-.14844-.0703-.07422-.10548-.04687-.10547-.04297-.10156-.04297-.29687-.29688-.08985-.07421-.08594-.0586-.10546-.04297-.08985-.0625-.08594-.0586-.10546-.04296-.08985-.0586-.08594-.0625-.07421-.0703-.10547-.04688-.08594-.0586-.10547-.04296-.08984-.0625-.10156-.04297-.10547-.04297-.08594-.0586-.10547-.04687-.10547-.04297-.10156-.04687-.08985-.0586-.10156-.04297-.10547-.04296-.08984-.0625-.11719-.02735-.13281-.01562-.13281.01562H299.75l-.13281.01563-.11719-.03125-.08984-.0586-.07422-.07422-.08985-.05859-.10156-.04688h-.14844l-.12109-.02734-.10156-.04297-.07422-.07422-.11719-.17968-.08984-.0586-.10156-.04297-.08985-.0625-.10547-.04296-.08984-.0586-.08594-.0586-.10547-.04687-.0586-.08594-.05858-.08984-.04297-.10547-.04688-.10156-.07422-.07422-.08594-.0586-.07421-.07421-.08985-.0586-.22265-.22265-.04297-.10547-.03125-.26563.10547-.04296h.14453l.10547.04296.07421.07422.08985.0586.08594.0586.10546.04687.08985.05859.14844.14844.0703.07422.14845.14843.0625.08594.07421.07422.08594.0586.07422.07421.08985.0625.08984.0586.08594.05859.26953.17578.10156.04688.10547.04296.10156.04297.04688-.07421.05859-.08594.07422-.07422.07031-.07422.10547.04297.07422.07422.0586.08984.04296.10156.04688.10547.04296.10547.1211.02735.11719-.02735.07421-.08984.04297-.10547.0586-.08985.07422-.07421.10546-.04297.1172-.02735.1328.01172.08985.0586.14844.14843.05859.08985.04297.10547.04687.10156.04297.10547.04297.10156.10547.04688.10547.04296.13281.01563.08594-.0586.0586-.08984.07421-.07422.10547-.04297.11719.02735.10547.04687.10156.04297.10547.04297.10156.04688.17969.11718v.11719l-.01563.13281.01563.13281.01562.13672.0586.08594.10156.04688.1211.02734.11718.03125h.14844l.11719-.03125.05859-.08984.17969-.1172.05859-.08983.07422-.07422.0586-.08594.11718-.17969.17969-.11719.11719.03125.08984.0586.04297.07422-.01563.1328v.1172l.08985.05859h.14843l.13282-.01563.1328-.01171.26563-.03125.10547-.04297.11719-.03125.1211-.02735.07421-.07421.07031-.07422.0625-.08985-.01562-.10547-.04688-.10156-.10156-.04297-.10547-.01562-.11718.02734-.26563.03125h-.14844l-.07421-.07422-.08985-.0586-.11719-.03124-.11718-.02735-.13282-.01562h-.14843l-.13282.01563h-.29687l-.10547-.04688-.14844-.14844-.04297-.10156-.05859-.08984.22266-.22266.08593-.0586.10547-.04296.11719-.03125.13281-.01563.13281.01563.13672.01562.10157.04297.1328-.01172.08985-.0625.10156-.04297.0625-.08984-.04687-.10156-.08984-.0586-.1172-.03125-.10155-.04296-.0586-.08985-.0625-.08984v-.11719l.01563-.13281.10547-.04688.07421-.07031v-.1211l-.08984-.05859-.03125-.11719.08985-.05859.07421-.07422.04297-.10547.0586-.08984.04687-.10156.01563-.13281v-.14844l-.04688-.10547-.04297-.10156-.08984-.0586-.13281-.01562-.10157-.04297-.13671-.01563-.1172-.03125h-.4453l-.13282-.01562-.13281-.01172-.13281-.01563-.11719-.03125h-.14844l-.13281-.01562-.13281-.01172-.26563-.03125-.1211-.04297-.08593-.0586-.07422-.07421v-.14844l.01172-.13281.10547-.04688.10156-.04296.13281-.01563h.15235l.13281-.01562h.29297l.1211.03125.10156.04296.08984.0586.23438.0625.12109-.04688.08984-.05859.10156-.04297.13282-.01562.10547.04296.10156.04688.13281.01172.1211-.02735h.14453l.12109-.03125.11719-.02734.10547-.04687.07421-.07422.08594-.0586.14844-.14843.0586-.08594.04687-.10547.02734-.11719.01563-.10547-.10156-.04296-.08985-.0586-.11719-.03125-.10546-.04297-.08985-.0625-.07422-.08594-.07422-.07421-.10156-.04297-.10547-.04688-.10156-.04297-.0586-.08984-.04687-.10156-.08594-.21094-.0625-.08594-.05859-.08984-.07422-.07422-.08594-.0586h-.26953l-.11719.03126-.08984.05859-.10156.04297-.13281.01562-.10547-.01562-.02735-.11719-.0625-.08984-.11718-.03125-.10157-.04297-.14843-.14844-.03125-.11719-.01563-.10546.07422-.07422.17969-.1172.11719-.02733.11718-.03125.13672.01562.10156.04297.10547.04297.10156.04687.10547.04297.1172.03125.1328.01563.1172.02734.1328.01563.10547-.01563.08985-.0586-.07422-.07421-.10547-.04297-.07422-.07422-.07422-.08984-.14844-.14844-.08593-.0586-.08985-.05859-.07422-.07422-.08984-.0586-.10156-.04687-.1211-.02734-.10156-.04688-.10547-.04296-.11719-.03125-.10156-.04297-.1211-.03125h-.14843l-.11719.03125-.10546.04297-.08594.0625-.17969.11718-.08594.0586-.08984.0586-.10547.04687-.08594.05859-.10547.04297-.10156.04297-.10547.04687-.07422.07422-.05859.08985-.0586.08593-.04687.10547-.0586.08594-.07421.07422-.13281-.01172-.1172-.03125h-.11718l-.07422.07422-.08984.0586-.07422.07421-.08984.0586-.08594.05859-.10547.04687-.10156.04297-.13672.01563-.10156-.04297-.14844-.14844-.10547-.04688h-.08594l-.10547.04688-.10156.04297-.1211.03125-.11718-.03125-.07422-.07422v-.11719l.03125-.1211.07422-.0703.0586-.08985.07421-.07422.11719-.03125.10547-.04296h.29297l.13281-.01563.13672-.01563.10156-.04296.08985-.0586.10156-.04687.08984-.0586.13281-.01171.08985.05859.13281.01172.08984-.0586.08594-.05859.10547-.04297.08984-.0586.08594-.0625.08985-.05859.14843-.14843.0586-.08594.05859-.08985.10547-.04296.13281-.01563.11719.02735.1211.03125.05859-.0586.05859-.08984.03125-.26563.02734-.11719.10547.01172.13281.01563.10157-.04297.08984-.0586.0586-.08984.07421-.07422.0586-.08984.04687-.10156.01172-.13281-.01172-.13282-.04687-.10547-.14844-.14843-.0586-.08985-.05859-.08594-.04297-.10546v-.44532l.01563-.1328v-.14845l.01172-.1328-.0586-.0586-.08984.0586-.10156-.04298-.17969-.11719-.08594-.05859-.0625-.08984-.0586-.08985-.07421-.07421-.08594-.0586-.1211.03125-.10155.01172-.10547.04688-.08594.05859-.10547.04297-.14844.14844-.08984.05859-.08594.0586-.08984.0625-.10547.04296-.13281.01563v-.1211l.10547-.04297.11718-.03125.07422-.0703.04297-.10548v-.14844l-.02734-.11718-.14844-.14844-.13281-.01563h-.14844l-.11719.03125-.10547.04297-.10156.04297-.08984.0625-.11719.02735-.07422-.07422.01172-.13281-.04297-.10157-.04297-.10547-.08984-.05859-.11719.02734-.1211.03125-.11718.03125-.10156.04297-.1211.03125-.10156.04297-.10547.04297-.08984.0586-.10156.01562v-.11719l.01562-.13281-.0586-.08985-.07421.04297-.14844.14844-.0586.08985-.07421.07421-.04688.10547-.04296.10156-.07422.07422-.0586.08985-.07422.07422-.05859.08593-.07422.07422-.08984.0625-.07422.07031-.07422.07422-.10156.01563-.13281.01562-.10547-.04296v-.1211l.14843-.14844.04297-.10156.0586-.08984.04687-.10156.04297-.10547.0586-.08985.03124-.11719.04297-.10156.03125-.1211.02735-.11718.04687-.10547.04297-.10156.04297-.10547.07422-.07031.08984-.0625.08985-.0586.10156-.04296h.29687l.26563-.03125.10547-.04297-.07422-.07422-.11719-.03125-.10547-.04297-.08984-.0586-.10156-.04687-.08985-.0586-.10156-.04296-.10547-.04297-.08984-.0625-.08594-.0586-.10547-.04296-.10156-.04297-.1211-.03125-.11718-.03125-.10157-.04297L297.5 410.25l-.10156-.04297-.08985-.0586-.04296-.10546-.01563-.13281.10156-.04297.13281-.01563.13672.01563.13282-.01563.10156-.04297.0586-.08984.01562-.10547-.08985-.0586-.07421-.07421-.10157-.04297-.08984-.0586-.14844-.14843-.04297-.10547-.01562-.13281v-.29297l-.0586-.08985-.08984-.05859-.07422-.07422-.04297-.10547-.03125-.11718-.0586-.08985-.07421-.07422-.11719-.02734-.07422-.07422-.08984-.0586-.08984-.0625-.08594-.05859-.07422-.07421-.0586-.08594-.04687-.10547-.08594-.0586-.14843-.14843-.19532-.0586-.1328.01563-.10157.04297-.07422.07422-.04688.10156-.04296.10547-.0586.08984-.0586.08594-.29687.29687-.08984.0586h-.08594l-.0625-.08594-.04297-.10547.03125-.11719.0586-.08984.02734-.11719-.01172-.13281-.08984-.0625-.10547.04688-.11719.02734-.11719.03125-.26953.17578-.10156.04688-.11719.02734-.10546.04687-.08985.0586-.10156.04297-.0586-.08594-.04687-.10547.01563-.13281.04687-.10547.07031-.07422.07422-.07031.0586-.08985v-.14843l-.04297-.10547h-.23829l-.10156.04687-.03125.11719-.02734.11719-.03125.1211-.07422.04296-.13281.01563-.07422-.04688-.04297-.10156-.04297-.10547-.04687-.10156-.04297-.10547-.1211.03125-.10156.04297-.13281.01562-.11719.03125-.10547.04297-.08984.0586-.10156.04687-.1211.02734-.13281.01563-.10156-.04297-.0586-.08985-.04687-.10546-.04297-.10157-.04297-.10546v-.1172l.0586-.08984.08593-.05859.17969-.11719.10156-.04687.10547-.04297.10547-.0586.10156-.04296.08985-.0625.10156-.04297.10547-.0586.10156-.04687.08984-.0586.10547-.04296.10156-.04297.08985-.0625.10156-.04297.13672-.01563.11719.03125.10156.04297.1211.03125.10156.04297.10546.04688.10157.04296.10547.04297.10156.04688.10547.04297.10156.04297.10547.04687.08594.0586.10546.04296.1172.03125.10546.04297.10156.04688.08985.0586.10547.04296.10156.04297.10547.04687.11719.02735.10156.04687.1211.02735h.14843l.08594-.0586.01562-.10156.0586-.08984-.02735-.1172-.07422-.07421-.11719-.17969-.07421-.07422-.08985-.07421-.17969-.1172-.08593-.05859-.10547-.04296-.10156-.04688-.26954-.17578-.05859-.08985-.07422-.07421-.0586-.08985-.04296-.10156-.03125-.11719-.01563-.13672v-.5625l-.01171-.1328-.01563-.13282-.03125-.11719-.01562-.13281-.01172-.13281-.03125-.1211-.22266-.22265-.0586-.08594-.01562-.10547.03125-.11719.13281-.01562v-91.41406H172.9922v1.45312l-.0586.23438-.35156 1.05078-.17187.52343-.1172.34766-.17577.41016-.11719.17187-.23438.29297-.23046.0586h-.35157l-.11718.05859-.23047.40625v.29297l.11719.17578.23046.23047.1172.23437.64062.75781.29297.46485.17578.23437.23047.35156.23437.34766.64063.8164.17578.46485.17187.41016.11719.69531.17578.46875.11719 1.39844.0586.46484v.875l.11718 1.04688v4.78125l-.0586.46484-.35156 1.28125-.17578.52344-.11328.41015-.35156.9297L172.93359 336l-.23437.58203-.11719.17578-.17187.34766-.17578.40625-.35157.8164-.0586.29297-.11327.29297-.11719.28906-.0586.17579-.11718.875-.0586.40625-.05859.11718-.0586.17579-.05859.17187-.23047.52734-.11718.17188v.23437l-.11719.23438-.0586.17187-.17577.58594v.28906l-.0586.17579v.29296l-.0586.11329-.05859.52734v.17187l-.05468.23438v2.6211l-.17578.8164-.1172.17578-.17577.23438-.1172.17187-.11327.23438-.58594.93359-.23047.28906-.29297.46485-.17578.23437-.28906.35156-.35156.69922-.11328.23047-.17579.41016-.17578.23046-.40625.52735-.8164.69922-.29297.17187-.28906.23438-.17579.11719-.17578.17578-.52344.40625-.52734.17578-.17187.17578-.23438.05469-.64062.17578h-.75782m12.21094 31.02344l-1.07422.44921.35938.89454 1.25-.71485.44531-.53906-.98047-.08985"/><path fill="#d3d3d3" fill-opacity="0" fill-rule="evenodd" d="M201.50781 416.59766h-.89453l.44922.6289.98047.35938.80469-.08985.4453-.98828-.17577.08985-.71485-.35547-.89453.35547m154.6211 59.0703l-.0586-.52343v-.29297l.11328-.29297.0586-.23046.46875-.46875h.11328l.11719-.11329.11718-.05859h.17579l.23437-.0586h.34766l.23437.0586.11719.0586.23047.17187.0586.17578.11718.58203v.29297l-.11719.17578-.17187.28906-.17579.17579-.52734.52343-.23047.23438-.11719.0586h-.17578l-.11718-.0586-.40625-.29297-.17579-.11719-.11718-.0586-.0586-.11327-.05468-.1172m6.64062-10.95702l-.0586-.17188v-1.10937l.0586-.17188.17578-.0586.17188-.05858h.17578l.23437-.0586.1172.0586.05858.69921-.05859.17188-.11719.17578-.11718.0586-.23438.52343-.11328.0586h-.23438l-.05859-.1172m9.61328-14.39062l-.11719-.17578v-.69922l.29297-.875.1172-.17187.17577-.35156.11328-.23047.1172-.29297.35155-.75781.1172-.23047.17187-.23438h.17578l.11719-.0586h.64062l.11719.0586.23437.23438.17188.11328.35156.29297.11719.11718.11328.17579v.11328l.11719.05859.11718.11719v.69922l-.05859.17578v.23047l-.0586.17578-.34765 1.05078-.11719.23047-.11719.23437-.11718.0586-.23047.23437-.64063.28906h-.875l-.41015-.11718-.64063-.46485"/><path fill="none" stroke="#bebebe" stroke-linecap="round" stroke-linejoin="round" stroke-miterlimit="10" stroke-width=".5" d="M467.95703 311.69531H144.02734v168.625h323.9297v-168.625"/><g clip-path="url(#a)"><path fill="#fff" fill-opacity="0" fill-rule="evenodd" d="M144 475.89063v4.4375h.0039H144V311.67188h.0039H144v164.21875"/></g><g clip-path="url(#b)"><path fill="#fff" fill-opacity="0" fill-rule="evenodd" d="M144.0039 480.32813V311.67188h17.75v126.53906l-2.05468 2.17187 2.05469 4.3125v6.48047l-1.45313 2.52344.27734 4.4375 1.17579 2.51172 4.4375-.41797 4.4375-1.3125.67968-.78125-.67968-.46485-4.4375-.6289-3.19922-3.34375-1.23828-2.52344v-6.48047l2.67578-4.3125-2.67578-2.17187V311.67188h8.875v127.5039l-1.42188 1.20703 1.42188.95313 2.66797-.95313-2.66797-1.20703v-127.5039h71.01562v126.15234l-3.80469 2.5586 3.8047 2.49609 4.34374-2.4961-4.34375-2.5586V311.67189h17.7539v121.22656l-3.63671 3.04687 3.63672 3.1289 2.77734-3.1289-2.77734-3.04687V311.67188h13.3125V429.6328l-4.25 1.875 4.25 1.73047v12.84766l-3.8164 3.17578-.6211.67187-1.10156-.67187-3.33594-1.60156-2.125 1.60156 1.41406 4.4375.71094.58984 4.4375 1.14844 4.4375-.90234 2.33594-.83594 1.14843-4.4375-3.48437-3.17578v-12.84766l3.8125-1.73047-3.8125-1.875V311.67187h8.8789v120.23829l-3.48828 4.03515 3.48828 3.42969 4.4375-1.1836 4.4375-1.14843 1.08985-1.09766-1.08985-1.17187-4.4375-.88672-4.4375-1.97656V311.67187h71.01172V437.4922l-2.88672 2.89062 2.88672 2.89063 3.375-2.89063-3.375-2.89062V311.67188h17.7539v138.09375l-2.375 3.93359-2.0625 1.69922-3.26952 2.73828-1.16797 3.29297-.40235 1.14453.40235.36719 4.4375.97265 4.4375-.33984 4.4375.41015 3.94531 3.03125.10156 4.4375.39454.48829 2.09765-.48829-1.21484-4.4375 3.55469-1.17578 1.46093 1.17579 2.97656 2.64062 2.22266-2.64063 2.21485-2.89062 1.39843-1.55078-.16797-4.4375-1.23046-1.5664-4.4375-.23438-2.4922-2.63672-1.9453-2.01953-4.4375-.03125-4.44141 1.9375-4.4375-3.82031V311.67188h97.64062v168.65625H144.00391"/></g><path fill="#50fcfc" fill-rule="evenodd" d="M161.7539 444.69531l-2.05468-4.3125 2.05469-2.17187 2.67578 2.17187-2.67578 4.3125m-1.17578 13.4414l-.27735-4.4375 1.45313-2.52343 1.23828 2.52344 3.19922 3.34375 4.4375.6289.67968.46485-.67968.78125-4.4375 1.3125-4.4375.41797-1.17578-2.51172m10.05078-16.80078l-1.42188-.95313 1.42188-1.20703 2.66797 1.20703-2.66797.95313m71.01562 1.54297l-3.80469-2.4961 3.8047-2.5586 4.34374 2.5586-4.34375 2.4961m17.7539-3.8047l-3.63671-3.1289 3.63672-3.04687v2.96094l-.10156.08593.10156.08594.07812-.08594-.07812-.08594v-2.96093l2.77734 3.04687-2.77734 3.1289"/><path fill="#00e8fc" fill-rule="evenodd" d="M259.39844 436.03125l-.10156-.08594.10156-.08594.07812.08594-.07812.08594"/><path fill="#50fcfc" fill-rule="evenodd" d="M263.125 453.69922l-1.41406-4.4375 2.125-1.60156 3.33594 1.60156 1.10156.67187.6211-.67187 3.8164-3.17578 3.48437 3.17578-1.14844 4.4375-2.33593.83594-4.4375.90234-4.4375-1.14844-.71094-.58984m9.58594-20.46094l-4.25-1.73047 4.25-1.875 3.8125 1.875-3.8125 1.73047m8.8789 6.13672l-3.48828-3.42969 3.48828-4.03515v1.93359l-1.8203 2.10156 1.8203 1.78906 2.78125-1.78906-2.78125-2.10156v-1.9336l4.4375 1.97657 4.4375.88672 1.08985 1.17187-1.08985 1.09766-4.4375 1.14844-4.4375 1.18359"/><path fill="#00e8fc" fill-rule="evenodd" d="M281.58984 437.73438l-1.8203-1.78907 1.8203-2.10156 2.78125 2.10156-2.78125 1.78906"/><path fill="#50fcfc" fill-rule="evenodd" d="M352.60156 443.27344l-2.88672-2.89063 2.88672-2.89062v2.33594l-.55469.55468.5547.55469.64843-.55469-.64844-.55469v-2.33593l3.375 2.89062-3.375 2.89063"/><path fill="#00e8fc" fill-rule="evenodd" d="M352.60156 440.9375l-.55469-.55469.5547-.55469.64843.5547-.64844.55468"/><path fill="#50fcfc" fill-rule="evenodd" d="M361.48047 462.9414l-.40235-.36718.40235-1.14453 1.16797-3.29297 3.26953-2.73828 2.0625-1.69922 2.375-3.9336 4.4375 3.82032v.2461l-1.6211 4.30468 1.6211 2.07812 2.07812-2.07812-2.07812-4.30469v-.2461l4.4414-1.9375 4.4375.03126v4.25781l-2.42578 2.19922 2.42579 1.26562 2.35156-1.26562-2.35156-2.19922v-4.25781l1.9453 2.01953 2.4922 2.63672v2.48437l-4.1172 3.7539 4.1172 3.96095 3.77734-3.96094-3.77735-3.7539v-2.48438l4.4375.23437 1.23047 1.5664.16797 4.4375-1.39844 1.55079-2.21484 2.89063-2.22265 2.64062-2.97657-2.64063-1.46094-1.17578-3.55468 1.17579 1.21484 4.4375-2.09765.48828-.39454-.48829-.10156-4.4375-3.94531-3.03125-4.4375-.41015-4.4375.33984-4.4375-.97265"/><path fill="#fff" fill-opacity="0" fill-rule="evenodd" d="M374.79297 453.83203l-1.6211 4.30469 1.6211 2.07812 2.07812-2.07812-2.07812-4.30469m8.8789 2.10547l-2.42578 2.19922 2.42579 1.26562 2.35156-1.26562-2.35156-2.19922"/><path fill="#00e8fc" fill-rule="evenodd" d="M388.10938 466.53516l-4.1172-3.96094 4.1172-3.7539v1.49218l-2.48047 2.26172 2.48046 2.38672 2.27344-2.38672-2.27344-2.26172v-1.49219l3.77735 3.7539-3.77735 3.96095"/><path fill="#00d4fc" fill-rule="evenodd" d="M388.10938 464.96094l-2.48047-2.38672 2.48046-2.26172v1.49219l-.84375.76953.84375.8125.77344-.8125-.77344-.76953v-1.49219l2.27344 2.26172-2.27344 2.38672"/><path fill="#00c4fc" fill-rule="evenodd" d="M388.10938 463.38672l-.84375-.8125.84375-.76953.77343.76953-.77344.8125"/><g clip-path="url(#c)"><path fill="#fff" fill-opacity="0" fill-rule="evenodd" d="M467.9961 480.32813H468V311.67188h-.0039H468v168.65625h-.0039"/></g><g clip-path="url(#d)"><path fill="none" stroke="#000" stroke-linecap="round" stroke-linejoin="round" stroke-miterlimit="10" stroke-width=".5" d="M147.38672 479.39453l-6.77344 1.86719"/></g><g clip-path="url(#e)"><path fill="none" stroke="#000" stroke-linecap="round" stroke-linejoin="round" stroke-miterlimit="10" stroke-width=".5" d="M147.38672 479.39453l1.6875 1.78516"/></g><g clip-path="url(#f)"><path fill="none" stroke="#000" stroke-linecap="round" stroke-linejoin="round" stroke-miterlimit="10" stroke-width=".5" d="M160.7539 479.60156l-6.875 1.45313"/></g><g clip-path="url(#g)"><path fill="none" stroke="#000" stroke-linecap="round" stroke-linejoin="round" stroke-miterlimit="10" stroke-width=".5" d="M160.7539 479.60156l1.57423 1.88281"/></g><g clip-path="url(#h)"><path fill="none" stroke="#000" stroke-linecap="round" stroke-linejoin="round" stroke-miterlimit="10" stroke-width=".5" d="M174.03125 479.44531l-6.80078 1.76563"/></g><g clip-path="url(#i)"><path fill="none" stroke="#000" stroke-linecap="round" stroke-linejoin="round" stroke-miterlimit="10" stroke-width=".5" d="M174.03125 479.44531l1.66016 1.8086"/></g><g clip-path="url(#j)"><path fill="none" stroke="#000" stroke-linecap="round" stroke-linejoin="round" stroke-miterlimit="10" stroke-width=".5" d="M187.38281 479.59766l-6.875 1.46093"/></g><g clip-path="url(#k)"><path fill="none" stroke="#000" stroke-linecap="round" stroke-linejoin="round" stroke-miterlimit="10" stroke-width=".5" d="M187.38281 479.59766l1.57422 1.8828"/></g><g clip-path="url(#l)"><path fill="none" stroke="#000" stroke-linecap="round" stroke-linejoin="round" stroke-miterlimit="10" stroke-width=".5" d="M200.6914 479.57422l-6.86327 1.51172"/></g><g clip-path="url(#m)"><path fill="none" stroke="#000" stroke-linecap="round" stroke-linejoin="round" stroke-miterlimit="10" stroke-width=".5" d="M200.6914 479.57422l1.58985 1.86719"/></g><g clip-path="url(#n)"><path fill="none" stroke="#000" stroke-linecap="round" stroke-linejoin="round" stroke-miterlimit="10" stroke-width=".5" d="M213.98828 479.48828l-6.82422 1.67969"/></g><g clip-path="url(#o)"><path fill="none" stroke="#000" stroke-linecap="round" stroke-linejoin="round" stroke-miterlimit="10" stroke-width=".5" d="M213.98828 479.48828l1.63672 1.82813"/></g><g clip-path="url(#p)"><path fill="none" stroke="#000" stroke-linecap="round" stroke-linejoin="round" stroke-miterlimit="10" stroke-width=".5" d="M227.3125 479.53516l-6.84375 1.58593"/></g><g clip-path="url(#q)"><path fill="none" stroke="#000" stroke-linecap="round" stroke-linejoin="round" stroke-miterlimit="10" stroke-width=".5" d="M227.3125 479.53516l1.61328 1.85156"/></g><g clip-path="url(#r)"><path fill="none" stroke="#000" stroke-linecap="round" stroke-linejoin="round" stroke-miterlimit="10" stroke-width=".5" d="M240.6836 479.84375l-6.95704.96875"/></g><g clip-path="url(#s)"><path fill="none" stroke="#000" stroke-linecap="round" stroke-linejoin="round" stroke-miterlimit="10" stroke-width=".5" d="M240.6836 479.84375l1.4414 1.98828"/></g><g clip-path="url(#t)"><path fill="none" stroke="#000" stroke-linecap="round" stroke-linejoin="round" stroke-miterlimit="10" stroke-width=".5" d="M253.95313 479.58203l-6.8672 1.49219"/></g><g clip-path="url(#u)"><path fill="none" stroke="#000" stroke-linecap="round" stroke-linejoin="round" stroke-miterlimit="10" stroke-width=".5" d="M253.95313 479.58203l1.58593 1.875"/></g><g clip-path="url(#v)"><path fill="none" stroke="#000" stroke-linecap="round" stroke-linejoin="round" stroke-miterlimit="10" stroke-width=".5" d="M267.14453 479.15234l-6.6211 2.35547"/></g><g clip-path="url(#w)"><path fill="none" stroke="#000" stroke-linecap="round" stroke-linejoin="round" stroke-miterlimit="10" stroke-width=".5" d="M266.1836 479.49219l.90624.82812"/></g><g clip-path="url(#x)"><path fill="none" stroke="#000" stroke-linecap="round" stroke-linejoin="round" stroke-miterlimit="10" stroke-width=".5" d="M280.26563 478.70313l-6.23047 3.2539"/></g><g clip-path="url(#y)"><path fill="none" stroke="#000" stroke-linecap="round" stroke-linejoin="round" stroke-miterlimit="10" stroke-width=".5" d="M279.35938 479.17578l1.01171.6914"/></g><g clip-path="url(#z)"><path fill="none" stroke="#000" stroke-linecap="round" stroke-linejoin="round" stroke-miterlimit="10" stroke-width=".5" d="M293.41797 478.42188l-5.90625 3.8125"/></g><path fill="none" stroke="#000" stroke-linecap="round" stroke-linejoin="round" stroke-miterlimit="10" stroke-width=".5" d="M292.5586 478.97656l1.0703.59766"/><g clip-path="url(#A)"><path fill="none" stroke="#000" stroke-linecap="round" stroke-linejoin="round" stroke-miterlimit="10" stroke-width=".5" d="M306.64453 478.29297l-5.72656 4.07031"/></g><path fill="none" stroke="#000" stroke-linecap="round" stroke-linejoin="round" stroke-miterlimit="10" stroke-width=".5" d="M305.8125 478.88672l1.09766.54687"/><g clip-path="url(#B)"><path fill="none" stroke="#000" stroke-linecap="round" stroke-linejoin="round" stroke-miterlimit="10" stroke-width=".5" d="M319.90625 478.21875l-5.6211 4.21875"/></g><path fill="none" stroke="#000" stroke-linecap="round" stroke-linejoin="round" stroke-miterlimit="10" stroke-width=".5" d="M319.08984 478.83594l1.10938.51953"/><g clip-path="url(#C)"><path fill="none" stroke="#000" stroke-linecap="round" stroke-linejoin="round" stroke-miterlimit="10" stroke-width=".5" d="M330.76953 476.83203l-.71484 6.99219"/></g><g clip-path="url(#D)"><path fill="none" stroke="#000" stroke-linecap="round" stroke-linejoin="round" stroke-miterlimit="10" stroke-width=".5" d="M342.66797 476.97656l2.11719 6.70313"/></g><path fill="none" stroke="#000" stroke-linecap="round" stroke-linejoin="round" stroke-miterlimit="10" stroke-width=".5" d="M342.97656 477.95313l.85938-.875"/><g clip-path="url(#E)"><path fill="none" stroke="#000" stroke-linecap="round" stroke-linejoin="round" stroke-miterlimit="10" stroke-width=".5" d="M354.42188 477.98438l5.23828 4.6875"/></g><path fill="none" stroke="#000" stroke-linecap="round" stroke-linejoin="round" stroke-miterlimit="10" stroke-width=".5" d="M355.1836 478.66797l.29296-1.1914"/><g clip-path="url(#F)"><path fill="none" stroke="#000" stroke-linecap="round" stroke-linejoin="round" stroke-miterlimit="10" stroke-width=".5" d="M367.14063 478.91016l6.42968 2.83593"/></g><path fill="none" stroke="#000" stroke-linecap="round" stroke-linejoin="round" stroke-miterlimit="10" stroke-width=".5" d="M368.07813 479.32422l-.08985-1.22266"/><g clip-path="url(#G)"><path fill="none" stroke="#000" stroke-linecap="round" stroke-linejoin="round" stroke-miterlimit="10" stroke-width=".5" d="M380.21484 480.96484l6.91016-1.27343"/></g><g clip-path="url(#H)"><path fill="none" stroke="#000" stroke-linecap="round" stroke-linejoin="round" stroke-miterlimit="10" stroke-width=".5" d="M381.22266 480.78125l-.76563-.96094"/></g><g clip-path="url(#I)"><path fill="none" stroke="#000" stroke-linecap="round" stroke-linejoin="round" stroke-miterlimit="10" stroke-width=".5" d="M393.61719 481.32813l6.73828-2"/></g><g clip-path="url(#J)"><path fill="none" stroke="#000" stroke-linecap="round" stroke-linejoin="round" stroke-miterlimit="10" stroke-width=".5" d="M393.61719 481.32813l-1.71875-1.75"/></g><g clip-path="url(#K)"><path fill="none" stroke="#000" stroke-linecap="round" stroke-linejoin="round" stroke-miterlimit="10" stroke-width=".5" d="M406.94531 481.36719l6.71094-2.07813"/></g><g clip-path="url(#L)"><path fill="none" stroke="#000" stroke-linecap="round" stroke-linejoin="round" stroke-miterlimit="10" stroke-width=".5" d="M406.94531 481.36719l-1.74219-1.73047"/></g><g clip-path="url(#M)"><path fill="none" stroke="#000" stroke-linecap="round" stroke-linejoin="round" stroke-miterlimit="10" stroke-width=".5" d="M420.71875 482.3164l5.79688-3.97656"/></g><g clip-path="url(#N)"><path fill="none" stroke="#000" stroke-linecap="round" stroke-linejoin="round" stroke-miterlimit="10" stroke-width=".5" d="M420.71875 482.3164l-2.17578-1.13671"/></g><g clip-path="url(#O)"><path fill="none" stroke="#000" stroke-linecap="round" stroke-linejoin="round" stroke-miterlimit="10" stroke-width=".5" d="M434.26563 482.6211l5.32812-4.58204"/></g><g clip-path="url(#P)"><path fill="none" stroke="#000" stroke-linecap="round" stroke-linejoin="round" stroke-miterlimit="10" stroke-width=".5" d="M446.73438 480.23828l7.02343.1836"/></g><g clip-path="url(#Q)"><path fill="none" stroke="#000" stroke-linecap="round" stroke-linejoin="round" stroke-miterlimit="10" stroke-width=".5" d="M447.75781 480.26563l-.55078-1.10157"/></g><g clip-path="url(#R)"><path fill="none" stroke="#000" stroke-linecap="round" stroke-linejoin="round" stroke-miterlimit="10" stroke-width=".5" d="M463.35156 483.83594l.41797-7.01563"/></g><g clip-path="url(#S)"><path fill="none" stroke="#000" stroke-linecap="round" stroke-linejoin="round" stroke-miterlimit="10" stroke-width=".5" d="M147.42969 466.25781l-6.85938 1.51172"/></g><path fill="none" stroke="#000" stroke-linecap="round" stroke-linejoin="round" stroke-miterlimit="10" stroke-width=".5" d="M147.42969 466.25781l1.59375 1.8711m11.71875-1.88282l-6.85547 1.53516m6.85547-1.53516l1.59765 1.86328m11.52735-2.46484l-6.47266 2.73828m6.47266-2.73828l1.90234 1.54688m11.35938-1.66407L180.7617 468.5m6.3672-2.97266l1.96093 1.47657m11.35547-1.47266l-6.3711 2.96484m6.3711-2.96484l1.95703 1.47656m11.45703-1.23828l-6.5703 2.48828m6.5703-2.48828l1.84766 1.61719m11.57813-1.28125l-6.78907 1.8164m6.78907-1.8164l1.67187 1.79687m11.5664-2.04297l-6.63671 2.3086m6.63672-2.3086l1.80078 1.66797m11.32422-2.11718l-6.2539 3.20703m6.2539-3.20703l2.01172 1.40234m11.05078-1.82031l-5.75 4.04297m5.75-4.04297l2.1875 1.10937m11.01953-1.2539l-5.53516 4.33203m5.53516-4.33203l2.24219.99609m11.1328-.91406l-5.65624 4.16797m5.65625-4.16797l2.21484 1.0586m11.16406-.96876l-5.78125 3.98828m5.78125-3.98828l2.1797 1.1289m11.0039-1.30859l-5.51953 4.34766m4.71484-3.71484l1.125.49218m12.5039-1.6328l-4.53906 5.36327m3.87891-4.58203l1.19922.25781m11.08984-1.82421l-1.16406 6.93359m.99219-5.92188l1.16406-.39062m11.89844-.66406l-.3164 7.01953m.26952-6L358.26172 464m11.40234-.42969l1.38281 6.88672m-1.18359-5.88672l.94922-.77734m10.76562.39844l4.1875 5.64453m-3.57812-4.82422l.52734-1.10547m10.82032 2.44922l6.90234 1.3164m-6.90234-1.3164l-.72657-2.34375m14.08985 2.125l6.80468 1.7539m-6.80468-1.7539l-.57422-2.38281m14.97656.61718l4.6289 5.28516m-3.95312-4.51563l.4336-1.14843m14.5039-.49219l.03516 7.02734m-.02735-6.0039L438 463.9414m10.89062-.16797l2.71094 6.48047m-2.71094-6.48047l1.5547-1.89844m-1.16016 2.83984l.77734-.94922m11.55078.32422l3.89844 5.84766m-3.33203-4.9961l.58203-1.08202"/><g clip-path="url(#T)"><path fill="none" stroke="#000" stroke-linecap="round" stroke-linejoin="round" stroke-miterlimit="10" stroke-width=".5" d="M147.50781 453.48828l-7.01562.42188"/></g><path fill="none" stroke="#000" stroke-linecap="round" stroke-linejoin="round" stroke-miterlimit="10" stroke-width=".5" d="M147.50781 453.48828l1.27735 2.09375m12.0039-2.41797l-6.94531 1.07032m6.94531-1.07032l1.46875 1.96485m-2.48047-1.8086l.73438.98047m13.53906-1.39844l-6.84375 1.58985m6.84375-1.58985l1.61328 1.85157m11.625-2.12891l-6.6875 2.14844m5.71485-1.83594l.8789.85547m13.21485-1.64844l-6.30078 3.10938m5.3828-2.66016l.9961.71875m13.26563-1.11328l-6.35547 3m5.42969-2.5625l.98437.73437m13.3789-.8789l-6.60156 2.41406m5.64063-2.0625l.91406.8164m13.23047-1.47656l-6.33984 3.03125m6.33984-3.03125l1.97266 1.46094m10.66406-2.42578l-4.98047 4.96094m4.98047-4.96094l2.34375.72266m10.6289-1.02344l-4.29687 5.5586m4.29688-5.5586l2.41796.41406m11.17578-.17578l-4.85546 5.08203m4.14843-4.33984l1.1797.32812m12.72655-1.17578l-4.62109 5.29297m4.6211-5.29297l2.38671.5586m10.65625-.76954l-4.08203 5.71875m4.08203-5.71875l2.4336.32032m-3.02735.51172l1.21875.16015m12.70313-.98437l-4.10156 5.70312m4.10156-5.70312l2.42969.32812m10.96484-.26953l-4.26563 5.58594m4.26563-5.58594l2.42187.39844m10.56641-.6211l-3.60937 6.03125m3.60937-6.03125l2.44922.125m10.29687-.39843l-2.47265 6.57812m2.47265-6.57812l2.4336-.31641m10.22265.14063l-1.15625 6.92968m1.15625-6.92968l2.32813-.78125m8.27734 1.45312l4.26563 5.58594m-4.26563-5.58594l1.02344-2.23047m11.92578 2.55078l4.9961 4.94532m-4.9961-4.94532l.70703-2.35156m12.11328 6.66797l5.98438-3.6875m-5.11328 3.14844l-1.0586-.6172m18.22657-3.74608l-3.46094 6.11718m2.95703-5.22656l1.22656.03125m12.55078-.94531l-3.3789 6.16015m3.3789-6.16015l2.45313.03125m9.30469-.46094l-.26563 7.02344m.26563-7.02344l2.20703-1.07031m-2.2461 2.09375l1.10547-.53516m13.42188-.23828l-2.60938 6.52344m2.60938-6.52344l2.4375-.26562"/><g clip-path="url(#U)"><path fill="none" stroke="#000" stroke-linecap="round" stroke-linejoin="round" stroke-miterlimit="10" stroke-width=".5" d="M147.46094 439.77734l-6.92188 1.21485"/></g><path fill="none" stroke="#000" stroke-linecap="round" stroke-linejoin="round" stroke-miterlimit="10" stroke-width=".5" d="M147.46094 439.77734l1.50781 1.9336m-2.51563-1.75782l.75391.96875m13.58203-1.0664l-6.94922 1.0586m6.94922-1.0586l1.46485 1.96875m11.89062-1.45313l-7.02734.02344m7.02734-.02344l1.16016 2.16407m12.10156-1.5547l-6.92188-1.1914m5.91407 1.01563l.38672 1.16797m13.9453-1.03516l-6.9414-1.10938m5.92969.94922l.39844 1.16016m13.8711-2.38672l-6.82813 1.66406m5.83593-1.42187l.81641.91406m12.9414-2.35937l-5.72656 4.0703m4.89453-3.47655l1.09766.55078m13.17578-.95313l-5.98047 3.6875m5.11328-3.14844l1.0586.6211m11.33594-2.61719l-2.40235 6.60156m2.40235-6.60156l2.42968-.33984m11.76172.8086l-4.15625 5.66796m4.15625-5.66797l2.42578.35156m11.29688-.0039l-4.96875 4.96875m4.2461-4.2461l1.17187.35938m12.88672-1.0586l-5.01563 4.92188m5.01563-4.92188l2.33984.73829m10.67187-1.01172l-4.40625 5.47265m4.40625-5.47265l2.41016.46094m10.82422-.52735l-4.2461 5.60156m4.2461-5.60156l2.42187.39063m-3.03906.42578l1.21094.19531m12.99219-.78125l-4.78516 5.14453m4.78516-5.14453l2.3711.6289m-3.06642.1172l1.1836.3164m12.48437-1.34375l-4.10547 5.70313m4.10547-5.70313l2.4336.33203m-3.03125.5l1.21875.16406m12.25781-1.26562l-3.23047 6.24219m3.23047-6.2422l2.45312-.02733m9.7422-.32813l-.9922 6.95703m.9922-6.95703l2.30859-.83594m-2.45313 1.84766l1.15625-.41797m10.64844-.4336l2.32031 6.63282m-2.32031-6.63281l1.66406-1.80078m-1.32812 2.76562l.83593-.90234m10.1797 1.64453l6.24608 3.21875m-6.24609-3.21875l-.03125-2.45313m.9414 2.92188l-.03124-2.45313m12.52734 1.82032l6.0664 3.54687m-6.0664-3.54687l.09766-2.44922m18.83984 1.84765l-5.17969 4.75m5.1797-4.75l2.3125.82032m-3.06642-.12891l2.3125.8164m10.83985-2.22265l-3.34766 6.17969m3.34766-6.1797l2.45312.01954m-2.9414.8789l1.22656.01173m10.90234-1.33204v7.02735m0-7.02735l2.16797-1.15234m11.72266 1.19922l-1.14844 6.9336m1.14844-6.9336l2.32422-.78125"/><g clip-path="url(#V)"><path fill="none" stroke="#000" stroke-linecap="round" stroke-linejoin="round" stroke-miterlimit="10" stroke-width=".5" d="M147.41797 426.25781l-6.83594 1.6211"/></g><path fill="none" stroke="#000" stroke-linecap="round" stroke-linejoin="round" stroke-miterlimit="10" stroke-width=".5" d="M147.41797 426.25781l1.6211 1.84375m-2.61329-1.60937l.8086.92187m13.49609-1.16406l-6.83203 1.63672m6.83203-1.63672l1.625 1.83984m-2.61719-1.60156l.8125.92188m13.57031-.7422l-6.98047.80079m6.98047-.80078l1.39063 2.01953m-2.40625-1.90234l.69531 1.0078m13.625-1.19921l-6.96094.94922m6.96094-.94922l1.4336 1.99219m-2.44532-1.85156l.71485.99218m13.61718-1.08984l-6.97265.86328m6.97265-.86328l1.41016 2.01172m-2.42188-1.88672l.70313 1.00781m13.63672-1.03516l-6.9961.66797m6.9961-.66797l1.35156 2.04688m-2.3711-1.94922l.67579 1.02344m13.64453-1.22656l-6.96875.8789m6.96875-.8789l1.41406 2.0039m11.92188-1.82031l-7.00781.51172m5.98828-.4375l.65234 1.03906m11.54688-4.09375l-2.73829 6.47266m2.33985-5.53125l1.22265-.10547m13.97657.35547l-5.71094 4.08984m4.8789-3.4961l1.10157.54688m12.88672-1.34765l-5.39453 4.5039m5.39453-4.5039l2.27343.92187m11.09375-.85547l-5.5 4.3711m5.5-4.3711l2.25.97657m10.78907-1.28516l-4.94532 4.98828m4.94532-4.98828l2.35156.70703m9.95312-1.40625l-2.92578 6.38672m2.92578-6.38672l2.44922-.14453m11.95313.91797l-5.09766 4.83984m5.09766-4.83984l2.32422.78125m11.11718-.63672l-5.35156 4.55078m5.35156-4.55078l2.28125.90234m-3.05859-.24218l1.14063.45312m12.19921-1.77734l-3.84765 5.8789m3.84765-5.8789l2.44532.22265m10.41797-.47265l-2.94532 6.3789m2.94532-6.3789l2.45312-.13672m8.45703-.0625l1.86719 6.77734m-1.86719-6.77734l1.78516-1.6836m14.60937 2.28907l-4.29297 5.5664m4.29297-5.5664l2.41797.41406m-3.04297.39844l2.41797.41015m11.89063-.89453l-5.03125 4.91016m5.03125-4.91016l2.33593.7461m-3.0664-.03125l2.33594.74609m-3.07032-.03125l1.16797.3711m13.60938-1.80079l-5.02344 4.91016m5.02344-4.91016l2.33984.74219m-3.07031-.02735l1.16797.3711m11.29297-2.01953l-1.85547 6.77734m1.85547-6.77734l2.39453-.53907m-2.66407 1.52344l2.39454-.53906m10.66015-.54688l-.79297 6.98047m.79297-6.98047l2.28125-.90234m-2.39844 1.91797l1.14063-.44922m13-.41016l-2.21484 6.66797m2.21484-6.66797l2.41797-.41015m-2.73828 1.3789l2.41797-.41015"/><g clip-path="url(#W)"><path fill="none" stroke="#000" stroke-linecap="round" stroke-linejoin="round" stroke-miterlimit="10" stroke-width=".5" d="M147.23438 412.3789l-6.46875 2.75"/></g><path fill="none" stroke="#000" stroke-linecap="round" stroke-linejoin="round" stroke-miterlimit="10" stroke-width=".5" d="M147.23438 412.3789l1.90625 1.54298m-2.84766-1.14454l.95312.77344m13.31641-1.13281l-6.4961 2.67187m6.4961-2.67187l1.89063 1.5625m-2.83594-1.17578l.94531.78125m13.14844-1.51953l-6.16016 3.375m6.16016-3.375l2.05078 1.34375m-2.94531-.85547l1.02343.67578m13.21875-1.10938l-6.22656 3.26172m6.22656-3.26172l2.02344 1.38672m-2.92969-.91015l1.01172.6914m13.33203-.90625l-6.47265 2.73828m6.47265-2.73828l1.90625 1.54688m11.65625-.64063l-6.96484.92969m6.96484-.92969l1.42578 1.9961m11.67188-.23047l-6.53125-2.60157m6.53125 2.60157l.26563 2.4375m12.66015-1.72266l-5.7539-4.03516m4.91796 3.44922l-.15234 1.21875m14.64844-4.05468l-6.4414 2.80859m5.5039-2.39844l.96094.76172m11.5039-2.97266l-2.86719 6.41407m2.44922-5.48047l1.22266-.08594m12.73828-.73437l-3.32422 6.1875m2.84375-5.28907l1.22656.00782m12.04297-1.13672l-2.27343 6.64843m1.9453-5.68359l1.21095-.1914m12.30859-.8125l-2.02344 6.72656m15.60156-6.63672l-2.55078 6.54687M318 411.4336l1.21875-.14453m14.42578 1.08594l-6.46484 2.75781m5.52344-2.35547l.95312.76953m13.38672-.95312l-6.63281 2.32031m6.6328-2.32031l1.80079 1.66797m10.91016-2.74219l-5.42578 4.46875m4.63671-3.82031l1.13282.47265m13.0625-1.0039l-5.60938 4.23047m5.60938-4.23047l2.22656 1.03906m10.63281-1.53516l-4.69531 5.22657m4.69531-5.22657l2.3789.58985m-3.0625.16797l1.19141.29687m12.33985-1.41015l-3.76172 5.9375m3.76172-5.9375l2.44531.1875m-2.99219.67578l2.44532.1875m11.41406-1.05078l-3.75781 5.9375m3.7578-5.9375l2.44923.18359m-2.9961.67969l2.44922.1836m11.80469-.76173l-4.53906 5.36719m4.53906-5.36719l2.39453.51953m10.36719-.90234l-3.4336 6.13281m3.4336-6.13281l2.45312.05078m-2.95312.83984l1.22656.02735m10.95703-1.36328l-.17187 7.02343m.17187-7.02343l2.19531-1.09766m12.4297 1.38281l-2.79298 6.44922m2.79297-6.44922l2.44531-.1953m-2.85156 1.13671l2.44531-.19922"/><g clip-path="url(#X)"><path fill="none" stroke="#000" stroke-linecap="round" stroke-linejoin="round" stroke-miterlimit="10" stroke-width=".5" d="M146.97266 398.57031l-5.94532 3.73828"/></g><path fill="none" stroke="#000" stroke-linecap="round" stroke-linejoin="round" stroke-miterlimit="10" stroke-width=".5" d="M146.97266 398.57031l2.1289 1.21875m-2.99219-.67578l2.12891 1.21875m11.9961-1.85156l-5.83594 3.91406m5.83594-3.91406l2.16015 1.15625m-3.01172-.58594l2.16406 1.15625m11.2422-2.54297l-4.31641 5.54688m4.3164-5.54688l2.41797.42188m-3.04687.38672l2.41797.42187m10.61328-1.74219l-2.4922 6.57032m2.4922-6.57032l2.43359-.30859m-2.79688 1.26563l1.21875-.15625m12.70313-.69532l-2.98047 6.36328m2.54688-5.4375l1.22656-.0625m14.35156 1.16797l-6.64062 2.30078m6.64062-2.30078l1.79688 1.66797m11.67187-1.0586l-6.94531 1.08204m6.94531-1.08203l1.46875 1.96094m11.60156-2.8086l-6.45703 2.77735m6.45703-2.77735l1.91407 1.53125M254 400.9375l-6.95703-1m6.95703 1l.82813 2.3086m12.47656-3.35548l-6.9414 1.09375m5.93359-.93359l.73828.98047m13.33203-2.00781l-6.4336 2.82812m19.00391 1.08203l-4.94531-4.99218m18.26172.0039l-4.94922 4.98828m4.94922-4.98828l2.35156.70703m11.84766.7461l-6.71485 2.08203m6.71485-2.08203l1.74218 1.72656m11.71485-1.0039l-7 .6328m7-.6328l1.34375 2.05468M344.4414 397l-1.4336 6.8789M344.23438 398l1.17578-.34375m10.65625-.59375l1.94922 6.75m-1.66797-5.76563l.8828-.85546m16.01563 1.24609l-5.77734 4m4.9336-3.41797l1.09374.5625m12.4961-1.78125l-4.64063 5.27735m4.64063-5.27735l2.38672.5625m10.57812-.83203l-3.9414 5.8164m3.9414-5.8164l2.4414.26172m11.79298.64453l-5.77735 4m5.77735-4l2.17968 1.1289m10.75782-1.58202l-5.02735 4.91015m5.02735-4.91015l2.33984.74609m-3.07031-.03125l1.16797.3711m11.95312-1.76563l-3.17578 6.26562m3.17578-6.26562l2.45313-.04688m-2.91407.95703l1.22657-.02343m12.37109-.97266l-2.82031 6.4375m2.82031-6.4375l2.44531-.1836m10.9375.21485l-2.95703 6.375m2.95703-6.375l2.44922-.13281m-2.8789 1.0625l1.22656-.0664"/><g clip-path="url(#Y)"><path fill="none" stroke="#000" stroke-linecap="round" stroke-linejoin="round" stroke-miterlimit="10" stroke-width=".5" d="M146.82031 385.03125l-5.64062 4.1836"/></g><path fill="none" stroke="#000" stroke-linecap="round" stroke-linejoin="round" stroke-miterlimit="10" stroke-width=".5" d="M146.82031 385.03125l2.21875 1.05078M146 385.64063l2.21484 1.05078m11.9922-1.5625l-5.78517 3.98828m5.78516-3.98828l2.17969 1.1289m-3.01953-.55078l2.17578 1.1289m11.52344-2.24609l-4.8711 5.06641m4.8711-5.0664l2.35937.67187m-3.0664.0664l2.35937.67188m11.55078-1.51172l-4.64844 5.26953m4.64844-5.26953l2.38672.57031m-3.0625.19532l2.38672.5703m12.23047-.60546l-5.90235 3.8086m5.90235-3.8086l2.14453 1.19531m-3-.64062l2.14062 1.19531m11.9961-1.80078l-5.83594 3.91406m5.83594-3.91406l2.16406 1.15625m-3.01172-.58985l2.16406 1.16016m12.10547-1.5586l-6.04687 3.57423m6.04687-3.57422l2.09375 1.27734m11.54297-.5625l-6.6914 2.14453m5.71875-1.83203l.8789.85547m13.39063-1.23047l-6.65235 2.26953m6.65235-2.26953l1.78906 1.67969m10.94922-2.73438l-5.5 4.37891m4.69922-3.74219l1.125.48828m12.96875-1.15234l-5.45703 4.4336m4.66406-3.78907l1.1289.48047m13.70703 1.71875l-6.91406-1.2539m5.91016 1.07421l.3711 1.16797m9.9414-5.08594l1.09765 6.94141m15.98047-4.89453l-6.42578 2.84765m5.49219-2.43359l.96484.75781m13.28907-1.16015l-6.4336 2.82812m5.4961-2.41797l.96484.75782m10.98828-3.14844l-1.83594 6.78515m1.83594-6.78515l2.39063-.54297m13.42578 3.1289l-6.83985 1.6172m5.84375-1.38282l.8086.92188m13.53125-1.01954l-6.89844 1.33985m6.89844-1.33985l1.54297 1.90625m11.34765-3.02734l-6.04687 3.58203m6.04687-3.58203l2.09375 1.27735m10.78906-1.85938l-5.18359 4.7461m5.1836-4.7461l2.3125.82422m10.47656-1.29297l-4.13281 5.6836m4.1328-5.6836l2.4297.34375m10.74609-.4414l-3.85547 5.8789m3.85547-5.8789l2.44531.22656m10.14063-.58985l-2.39454 6.60547m2.39454-6.60547l2.42578-.34765m-2.77344 1.30859l1.21094-.17188m13.26172-.37109l-4.01172 5.76953m3.42578-4.92969l1.21875.14454m12.08594-1.31641l-2.82032 6.4336m2.82032-6.4336l2.4453-.1875"/><g clip-path="url(#Z)"><path fill="none" stroke="#000" stroke-linecap="round" stroke-linejoin="round" stroke-miterlimit="10" stroke-width=".5" d="M146.63281 371.48047l-5.26562 4.65625"/></g><path fill="none" stroke="#000" stroke-linecap="round" stroke-linejoin="round" stroke-miterlimit="10" stroke-width=".5" d="M146.63281 371.48047l2.29688.85937m-3.0625-.18359l1.14844.4336m13.39843-.4336l-6.19922 3.30469m6.19922-3.30469l2.03906 1.36719m-2.9414-.88672l1.01953.6836m13.25-1.06641l-6.30078 3.10937m6.30078-3.10937l1.99219 1.42968m-2.91016-.98046l.9961.71875m13.0625-1.48047l-5.95313 3.73437m5.95313-3.73437l2.125 1.22265m11.39062-.85156l-6.35547 2.99219m6.35547-2.99219l1.96484 1.46875m-2.88672-1.03516l.98047.73829m13.27344-1.14063l-6.38672 2.92969m6.38672-2.92969l1.94922 1.48828m11.47266-1.22265l-6.60547 2.39843m6.60547-2.39844l1.82422 1.64454m-2.78516-1.29688l.91406.82422m13.57422-.04297l-7.02734.14063m7.02734-.14063l1.19531 2.14063m-2.21875-2.1211l.59766 1.07031m13.5625-2.12109l-6.67188 2.20313m6.67188-2.20313l1.77344 1.69922m11.52734-1.74219l-6.64453 2.28906m6.64453-2.28906l1.79688 1.67578m11.4453-1.87109l-6.49609 2.67969m6.4961-2.67969l1.89062 1.5625m11.46094 1.02734l-6.5664-2.5m6.5664 2.5l.30469 2.4336m13.03515-2.5039l-6.61718-2.35938m6.61718 2.35937l.35938 2.42578m13.13672-4.01953l-6.98047.82422m5.96484-.70313l.69922 1.00782m13.65625-.71485h-7.02734m18.53125-3.07421l-3.41016 6.14453m2.91406-5.25l1.22657.02343m14.21484 1.05079l-6.66797 2.21093m6.66797-2.21094l1.77734 1.69532m-2.74609-1.375l.88672.84765m13.54297-.55859l-6.95703.99219m6.95703-.99219l1.44531 1.98047m10.27734-4.44922l-3.77343 5.92969m18.29296-4.63672l-6.18359 3.33984m5.28516-2.85156l1.01953.67969m13.30469-.94531l-6.40235 2.89843m6.40235-2.89844l1.9414 1.5m11.66797-.38671l-6.9961.67187m5.98048-.57422l.67578 1.02344m11.86328-3.85547l-3.41016 6.14063m3.41016-6.14063l2.45312.04297m11.07032.08203l-3.82813 5.89063m3.26953-5.03516l1.22266.10547m11.03515-1.51563l-.59375 7m.50782-5.98437l1.125-.48047"/><g clip-path="url(#aa)"><path fill="none" stroke="#000" stroke-linecap="round" stroke-linejoin="round" stroke-miterlimit="10" stroke-width=".5" d="M145.01953 357.1289l-2.03906 6.72657"/></g><path fill="none" stroke="#000" stroke-linecap="round" stroke-linejoin="round" stroke-miterlimit="10" stroke-width=".5" d="M145.01953 357.1289l2.40625-.47265m-2.70312 1.45313l1.20312-.23829m13.41016-.25l-4.04297 5.7461m4.04297-5.7461l2.4375.3047m12.19922 1.48046l-6.6836 2.17188m6.6836-2.17188l1.76562 1.70703m11.6836-1.11719l-6.95313.9922m6.95313-.9922l1.44921 1.98047m11.82032-2.23437l-6.86328 1.5039m6.86328-1.5039l1.58984 1.86719m11.8086-1.06641l-7.02735-.10156m6.0039.08593l.5586 1.09375m13.77734-1.01171l-7.02343-.23438m7.02343.23438l1.07813 2.20312m12.23828-2.29297l-7.02734-.05078m7.02734.05078l1.13672 2.17578m12.16797-1.95312l-7.00781-.5m7.0078.5l.9961 2.24219m12.30469-2.89844l-6.97656.8125m6.97656-.8125l1.39453 2.01953m11.94531-1.69531l-7.02734.16796m7.02734-.16796l1.20313 2.13671m11.94922-3.10937l-6.70313 2.10938m5.73047-1.80079l.8711.85938m13.53515.45312l-6.9375-1.1289m5.92578.96484l.39453 1.16016m12.45313 1.33203l-3.98047-5.78906m3.40234 4.94921l-.5664 1.08594m15.98046-3.0625l-7.02343-.15625m6.0039.13281l.55078 1.09766m13.67188-.25781l-6.79688-1.78516m5.8086 1.52344l.28125 1.19531m14.13281-1.66797l-7.01953-.3203m6 .27343l.52344 1.10937m13.6289-2.35156l-6.65625 2.25781m5.6875-1.92968l.89453.84375m13.4375-1.01172l-6.7539 1.9375m5.77344-1.65235l.85156.87891m10.53125-3.67578l-.92578 6.96484m.79297-5.95312l1.14843-.42578m9.51563.2578l4.64062 5.27735m-3.96484-4.51172l.4336-1.14843m15.73827-.27735l-2.42578 6.59375m12.97266-6.44531l3.11328 6.29688m-2.66016-5.37891l.71485-.9961m13.83594-.28515l-.26172 7.02344m.22265-6l1.10547-.53516m11.76953-.47266l.69532 6.9922m-.59375-5.97267l1.01953-.68359"/><g clip-path="url(#ab)"><path fill="none" stroke="#000" stroke-linecap="round" stroke-linejoin="round" stroke-miterlimit="10" stroke-width=".5" d="M142.67578 343.92188l2.64844 6.51171"/></g><g clip-path="url(#ac)"><path fill="none" stroke="#000" stroke-linecap="round" stroke-linejoin="round" stroke-miterlimit="10" stroke-width=".5" d="M142.67578 343.92188l1.57422-1.88282"/></g><path fill="none" stroke="#000" stroke-linecap="round" stroke-linejoin="round" stroke-miterlimit="10" stroke-width=".5" d="M156.53125 343.7539l1.57031 6.84766m-1.34375-5.85156l.92969-.80469m10.53906.66797l4.80469 5.1289m-4.10547-4.3828l.39844-1.16016m16.64844 5.84765l-4.0547-5.73828m18.37892 4.63672l-6.07422-3.53515m5.1914 3.01953l-.04687 1.22656m14.14062-.54297l-5.86328-3.8711m5.01172 3.3086l-.11719 1.22266m14.00781-.29297l-5.3125-4.60156m4.53907 3.92968l-.27344 1.19532m14.9375-1.44532l-6.46484-2.7578m5.52343 2.35546l.10547 1.22266m14.32031-1.31641l-6.80078-1.76953m5.8086 1.51172L253.21484 349m13.88282-.51172l-6.52344-2.61719m5.57422 2.23438l.1289 1.21875m14.38282-1.9414l-7.01563-.40626m7.01563.40625l1.02343 2.22656m12.26954-1.98828l-6.97266-.88671m6.97266.88671l.86718 2.29297m12.28516-3.875l-6.64844 2.27735m5.67969-1.94532l.89844.83985m13.36718-1.22656l-6.61328 2.38671m5.64844-2.03906l.91016.82422m10.16797 3.53516l-.21094-7.02344m16.92578 3.74219l-7.01172-.46485m5.99219.39844l.5039 1.11719m13.66797-.1914l-6.67968-2.1836m5.70703 1.86719l.21093 1.20703m13.8711-3.56641l-6.27344 3.16797m5.36328-2.70703l1 .70703m12.6836-1.95313l-5.19141 4.73829m4.4375-4.04688l1.15625.41016m13.69922.3164l-6.76172 1.90235m5.77734-1.625l.84766.88671m11.80469-3.26953l-3.46875 6.11329m2.96484-5.22266l1.22656.03515m11.29688-1.35546l-.875 6.97265m.7461-5.95703l1.14843-.4375m10.91797-.47656l1.8789 6.76953m-1.60546-5.78516l.89062-.84375m10.27734 1.14063l5.62891 4.20703m-4.8125-3.59375l.1875-1.21484m12.51953.34375l5.20703 4.72265"/><g clip-path="url(#ad)"><path fill="none" stroke="#000" stroke-linecap="round" stroke-linejoin="round" stroke-miterlimit="10" stroke-width=".5" d="M142.14844 330.8789l3.70312 5.96876"/></g><path fill="none" stroke="#000" stroke-linecap="round" stroke-linejoin="round" stroke-miterlimit="10" stroke-width=".5" d="M155.15234 331.09375l4.32422 5.53906m-3.69531-4.73437l.5-1.1211m10.95703 2.16016l6.78125 1.84766m-5.79297-1.57813l-.26953-1.19531m12.47656 1.89453l7.02344-.08984m-6.0039.07812l-.58985-1.07422m14.78125 4.16406l3.23047-6.24218m-2.75781 5.33203l-1.22656.01562m13.18359.2422l5.0039-4.9375m-4.27734 4.21874l-1.16797-.36719m16.20703 2.12891l.09766-7.02344m-.08203 6.0039l-1.08984.5586m15.66015.24219l-2.4414-6.58984m2.08593 5.6328l-.8164.91798m13.77343.22265l-1.01562-6.95312m.86719 5.9414l-.98828.72657m15.0039.16015l-2.11719-6.70312m1.8086 5.72656l-.85938.875m16.65625-1.8711l-6.46484-2.7578m5.52344 2.35546l.10547 1.22266m13.78515-.16406l-5.73047-4.07031m4.89453 3.47656l-.15625 1.21875m14.94532-2.41797l-7.00782-.48438m5.98829.41407l.5 1.12109m13.80859-1.79688l-6.95703 1.00391m5.94531-.85547l.72266.98828m13.35547-2.01953l-6.45704 2.77344m6.45704-2.77344l1.91406 1.53516m11.28906-1.77344l-6.23437 3.25m6.23437-3.25l2.01953 1.39063m11.0586-1.77735l-5.76172 4.01953m4.92578-3.43359l1.08984.5586m13.69531.86718h-7.02734m6.0039 0l.57423 1.08203m13.73828-.66015l-6.97657-.84375m6.97657.84375l.8828 2.28906m6.91407.15625l4.0586-5.73438m9.97656-.39453l2.61719 6.52344m8.70312-4.45703l6.60938 2.38672m6.52343-1.6289l6.97266.875m-5.95703-.75l-.4375-1.14454m13.25-.41797l5.94531 3.75m-5.07812-3.20312l.08984-1.22266m12.41406.58984l5.83203 3.92188m-4.98047-3.35156l.125-1.21875"/><g clip-path="url(#ae)"><path fill="none" stroke="#000" stroke-linecap="round" stroke-linejoin="round" stroke-miterlimit="10" stroke-width=".5" d="M143.95703 317.03516l.08594 7.02734"/></g><g clip-path="url(#af)"><path fill="none" stroke="#000" stroke-linecap="round" stroke-linejoin="round" stroke-miterlimit="10" stroke-width=".5" d="M143.95703 317.03516l2.15234-1.1797"/></g><path fill="none" stroke="#000" stroke-linecap="round" stroke-linejoin="round" stroke-miterlimit="10" stroke-width=".5" d="M156.08203 317.25781l2.46484 6.58203m-2.10546-5.625l.8125-.91796m10.10156 1.97656l6.54687 2.55078m-5.59375-2.17969l-.14453-1.21875m13.2461 4.55469l5.0703-4.86719m-4.33202 4.16016l-1.16406-.38281m13.02734 0l6.4961-2.6836M194.95702 321.5l-.94531-.78125m13.05078-.14844l7.02734-.04297m-6.0039.03516l-.58594-1.07813m13.14844 2.41407l6.48437-2.70313m6.60156.8125l6.94141 1.08203m6.36719-.04296l6.95703-1m7.14844 2.76562l5.3711-4.53125m-4.58595 3.875l-1.14062-.45703m16.42969 2.36328l-.14453-7.02734m13.35937 7.02734l.05469-7.02734m-.04688 6.0039l-1.08594.5664m16.96094-.6328l-5.08203-4.85157m4.34375 4.14844l-.33203 1.17969m14.73047-.89453l-5.76953-4.01172m4.92969 3.42578l-.14454 1.21875m14.81641-3.52344l-6.80078 1.76953m5.8086-1.51171l.83202.90234m12.77735-2.51953l-5.41016 4.48437m5.41016-4.48437l2.26953.9336m10.92969-1.07032l-5.17579 4.75781m5.17579-4.75781l2.3125.8164m11.92968 1.5l-7.02734.125m6.0039-.10546l.59376 1.07421m11.6289-4.2539l-2.80078 6.44531m2.80078-6.44531l2.44922-.1914m9.60156-.09766l-.26953 7.02343m.23047-6l1.10547-.53515m11.73047-.46875l.76562 6.98437m-.76562-6.98437l2.02734-1.3789m10.0586 1.75l3.22265 6.24218m-3.22265-6.24219l1.39843-2.01562m10.66797 3.09765l5.72266 4.07813m-5.72266-4.07813l.32031-2.4336m12.85547 2.64454l6 3.66016m-6-3.66016l.14454-2.44922m13.55859 1.92969l5.22265 4.69922m-5.22265-4.69922l.59375-2.38281"/><path fill="#00f" fill-rule="evenodd" d="M388.23828 472.08594h8.61719V461.9414h-8.61719v10.14453"/><path fill="azure" fill-rule="evenodd" d="M390.07031 463.77344h.83594v2.82422h3.28516v-2.82422h.83203v6.48047h-.83203v-2.91797h-3.28516v2.91797h-.83594v-6.48047"/><path fill="#00f" fill-rule="evenodd" d="M383.80078 436.57813h8.61719v-10.14454h-8.61719v10.14454"/><path fill="azure" fill-rule="evenodd" d="M385.63281 428.26563h.83203v2.82421h3.28907v-2.82421h.83203v6.48046h-.83203v-2.91406h-3.28907v2.91406h-.83203v-6.48046"/><path fill="#ff3030" fill-rule="evenodd" d="M193.64453 427.70313h7.69531v-10.14454h-7.6953v10.14454"/><path fill="azure" fill-rule="evenodd" d="M195.47656 419.39063h.83594v5.73828h3.1914v.74218h-4.02734v-6.48046"/><path fill="#00f" fill-rule="evenodd" d="M224.01953 418.82813h8.61719v-10.14844h-8.61719v10.14844"/><path fill="azure" fill-rule="evenodd" d="M225.85156 410.51172h.83594v2.82422h3.28516v-2.82422h.83203v6.48047h-.83203v-2.91406h-3.28516v2.91406h-.83594v-6.48047"/><path fill="#ff3030" fill-rule="evenodd" d="M380.05469 414.38672H387.75v-10.14453h-7.69531v10.14453"/><path fill="azure" fill-rule="evenodd" d="M381.89063 406.07422h.83203v5.74219h3.1953v.73828h-4.02733v-6.48047"/><path fill="#ff3030" fill-rule="evenodd" d="M291.28906 405.51172h7.6914v-10.14453h-7.6914v10.14453"/><path fill="azure" fill-rule="evenodd" d="M293.1211 397.19922h.83593v5.73828h3.1914v.74219h-4.02734v-6.48047"/><path fill="#00f" fill-rule="evenodd" d="M370.48438 396.63281h8.62109v-10.14453h-8.6211v10.14453"/><path fill="azure" fill-rule="evenodd" d="M372.3164 388.32031h.83594v2.82422h3.28516v-2.82422h.83203v6.48047h-.83203v-2.91406h-3.28516v2.91406h-.83593v-6.48047"/><path fill="#ff3030" fill-rule="evenodd" d="M184.76953 383.32031h7.6914v-10.14844h-7.6914v10.14844"/><path fill="azure" fill-rule="evenodd" d="M186.60156 375.00781h.83203v5.73828h3.19532v.7422h-4.02735v-6.48048"/><path fill="#ffffe0" fill-rule="evenodd" d="M301.80078 378.9961h22.17969v-10.19141h-22.17969v10.1914"/><path fill-rule="evenodd" d="M305.29688 370.63672h.51171v6.29687h-.78906v-4.48828h-1.38672v-.5586l.5586-.0625.2539-.05468.22656-.08984.20313-.14063.17578-.21094.14063-.29296.10546-.39844m4.81641 0l.22656.01953.21875.0586.21094.08593.19531.1211.1836.15234.17187.17578.30078.41797.2422.49219.18358.54687.10938.58203.03906.58985-.03906.59375-.10938.58203-.18359.55469-.24219.5039-.30078.42578-.17187.17969-.1836.15234-.1953.125-.21095.09375-.21875.0547-.22656.01952-.23047-.01953-.21875-.05469-.20703-.09375-.19922-.125-.1836-.15234-.17187-.17969-.30078-.42578-.24219-.5039-.17968-.5547-.11328-.58202-.03907-.59375h.83594l.02735.5625.08203.5078.125.44142.16406.375.1914.30078.21094.21875.22266.13671.22656.04688.22656-.04688.22266-.13671.21094-.21875.1875-.30079.16406-.375.125-.4414.08203-.50781.03125-.5625-.03125-.5625-.08203-.5-.125-.4336-.16406-.36719-.1875-.29296-.21094-.21485-.22266-.1289-.22656-.04688-.22656.04688-.22266.1289-.21094.21485-.1914.29296-.16406.3672-.125.43359-.08204.5-.02734.5625h-.83594l.03907-.58985.11328-.58203.17969-.54687.24218-.4922.30078-.41796.17188-.17578.1836-.15235.19921-.12109.20703-.08594.21875-.05859.23047-.01953m5.08985 0h.5078v6.29687h-.78515v-4.48828h-1.39062v-.5586l.5625-.0625.25-.05468.23046-.08984.20313-.14063.17578-.21094.14063-.29296.10546-.39844m2.82422 2.17578h.78516l.01953-.3164.0586-.28516.10156-.2539.14062-.21485.17969-.17188.22266-.1289.26562-.08204.3086-.02734.23828.02344.22265.0625.20313.10156.17969.13672.14843.17188.11328.20703.07422.23828.02344.26172-.01953.26953-.0664.22656-.10938.1914-.15625.16798-.20313.16406-.2461.16797-.6328.38671-.53907.3125-.4375.31641-.34375.32422-.26562.33594-.1914.35156-.125.3711-.06641.39452-.02344.41797h4.21484v-.74218h-3.33594l.08594-.28125.11328-.23829.14844-.20312.1875-.17969.23047-.17187.27734-.17578.71875-.41407.41407-.20703.34375-.23047.28125-.25.22265-.26953.16016-.27734.11328-.28125.0625-.28516.01953-.28125-.03906-.38672-.1211-.34765-.1914-.30469-.25-.26563-.30078-.21093-.34766-.16016-.3789-.09765-.40625-.03516-.4336.03515-.39844.09766-.35546.16797-.3047.23438-.25.30468-.18359.3711-.11718.44921-.03907.51563"/><path fill="#ffffe0" fill-rule="evenodd" d="M155.4961 383.55078h22.17968v-10.1914H155.4961v10.1914"/><path fill-rule="evenodd" d="M158.99219 375.1914h.51172v6.29688h-.78907v-4.49219h-1.38672v-.55468l.5586-.06641.2539-.05078.22657-.08985.20703-.14453.17187-.20703.14063-.29687.10547-.39453m4.8164 0l.22657.01953.22265.05469.20703.08984.19532.1211.18359.14843.17188.17578.30078.42188.24609.49218.17969.54688.10937.57812.03906.59375-.03906.58985-.10937.58594-.17969.55468-.2461.5-.30077.42969-.17188.17969-.1836.15234-.1953.125-.20704.08985-.22265.05859-.22657.01953-.23047-.01953-.21875-.0586-.20703-.08984-.19922-.125-.18359-.15234-.17187-.17969-.30078-.42969-.2422-.5-.17968-.55469-.11328-.58593-.03516-.58985h.83203l.02735.5625.08203.50391.125.44531.16406.3711.1914.30078.21095.22265.22265.13672.22656.04688.22657-.04688.22265-.13672.21094-.22265.1875-.30078.16406-.3711.125-.44531.08203-.5039.03125-.5625-.03125-.5625-.08203-.5-.125-.4375-.16406-.36329-.1875-.29297-.21094-.21484-.22265-.13281-.22657-.04297-.22656.04297-.22266.13281-.21093.21484-.1914.29297-.16407.36328-.125.4375-.08203.5-.02735.5625h-.83203l.03516-.59375.11328-.57812.17969-.54688.24219-.49218.30078-.42188.17187-.17578.1836-.14844.19921-.1211.20703-.08983.21875-.0547.23047-.01952m5.08985 0h.50781v6.29687h-.78516v-4.49219h-1.38672v-.55468l.5586-.06641.25-.05078.23047-.08985.20312-.14453.17578-.20703.14063-.29687.10547-.39453m2.82422 2.17578h.78515l.01953-.3164.0625-.28517.09766-.2539.14063-.21485.17968-.17578.22266-.1289.26562-.07813.3086-.02734.23828.01953.22266.0625.20703.10156.17578.14063.14844.17187.11328.20703.07422.23438.02343.26562-.01953.26954-.0664.22265-.10938.1914-.15625.17188-.20313.16406-.24609.16407-.63281.39062-.53906.3125-.4375.3164-.34375.32423-.26563.33594-.1914.35156-.125.3711-.06641.39062-.02344.42187h4.21484v-.74219h-3.33203l.08203-.28515.11329-.23438.14843-.20312.1875-.17969.23047-.17188.27735-.17578.71875-.41796.41406-.20313.34766-.23047.27734-.2539.22266-.26563.16406-.27734.10937-.28516.0625-.28516.02344-.28125-.04297-.3828-.1211-.34767-.1875-.30859-.2539-.26172-.30078-.21484-.34375-.15625-.38281-.09766-.40625-.03515-.4336.03125-.39843.10156-.35547.16406-.30469.23438-.25.30468-.1836.375-.11718.44532-.03906.51953"/><path fill="#ffffe0" fill-rule="evenodd" d="M190.83984 456.47656h22.1797v-10.1914h-22.1797v10.1914"/><path fill-rule="evenodd" d="M194.33984 448.1211h.50782v6.29296h-.78516v-4.48828h-1.39063v-.5586l.5625-.0625.25-.05468.23047-.08984.20313-.14063.17578-.21094.14063-.29296.10546-.39454m4.8125 0l.23047.01563.21875.0586.20703.08984.19532.11718.1875.15235.16797.17578.30468.41797.24219.49219.17969.54687.11328.58203.03516.58985-.03516.59375-.11328.58203-.17969.55468-.24219.50391-.30469.42578-.16796.17969-.1875.15234-.19532.125-.20703.09375-.21875.05469-.23047.01953-.23047-.01953-.21875-.05469-.20703-.09375-.1953-.125-.1836-.15234-.17188-.17969-.30078-.42578-.2461-.5039-.17968-.5547-.10938-.58202-.03906-.59375h.83203l.03125.5625.08203.5078.125.44141.16016.375.1914.30079.21095.21875.22265.14062.22656.04688.22657-.04688.22265-.14063.21094-.21875.1914-.30078.16016-.375.1289-.4414.08204-.50781.02734-.5625-.02734-.5625-.08203-.5-.1289-.4336-.16016-.36719-.19141-.29296-.21094-.21485-.22265-.1289-.22657-.04688-.22656.04688-.22266.1289-.21093.21485-.1914.29296-.16017.3672-.125.43358-.08203.5-.03125.5625h-.83203l.03906-.58984.10938-.58203.17969-.54688.2461-.49218.30077-.41797.17188-.17578.1836-.15235.1953-.11718.20703-.08985.21875-.0586.23047-.01562m5.09375 0h.50782v6.29297h-.78907v-4.48828h-1.38672v-.5586l.5586-.0625.2539-.05468.23047-.08984.20313-.14063.17187-.21094.14063-.29296.10937-.39454m2.82032 2.17188h.78906l.01953-.3125.0586-.28906.09765-.25.14063-.21875.18359-.17188.22266-.1289.26562-.08204.3086-.02734.23437.02344.22656.0625.20313.10156.17968.13672.14844.17578.11328.20313.07031.23828.02735.26171-.02344.26954-.0664.22656-.10938.1914L210 450.875l-.19922.16016-.2461.16796-.63671.38672-.53516.3125-.4375.31641-.34765.32813-.26563.33593-.1875.34766-.125.3711-.07031.39452-.01953.41797h4.21094v-.74219h-3.33204l.08203-.28125.11329-.23828.14843-.20312.1875-.17969.23047-.17187.28125-.17579.71485-.41406.41406-.20703.34766-.23047.28125-.25.21875-.26953.16406-.27734.10937-.28125.0664-.28516.01954-.28125-.04297-.38281-.1211-.35156-.1875-.3047-.25-.26562-.30468-.21093-.34375-.16016-.3789-.09766-.40626-.03125-.4375.03125-.39843.09766-.35547.16797-.30469.23437-.2461.3047-.1875.37108-.11327.44922-.04297.51563"/></g></defs><use xlink:href="#ag"/></svg>