<svg xmlns="http://www.w3.org/2000/svg" role="img" xmlns:xlink="http://www.w3.org/1999/xlink" viewBox="142.45 309.95 326.84 171.84"><defs><clipPath id="a"><path d="M144 311.67188h1v168.65625h-1zm0 0"/></clipPath><clipPath id="b"><path d="M144 311.67188h324v168.65625H144zm0 0"/></clipPath><clipPath id="c"><path d="M467 311.67188h1V476h-1zm0 0"/></clipPath><clipPath id="d"><path d="M144 480h4v.32813h-4zm0 0"/></clipPath><clipPath id="e"><path d="M146 480h2v.32813h-2zm0 0"/></clipPath><clipPath id="f"><path d="M153 479h9v1.32813h-9zm0 0"/></clipPath><clipPath id="g"><path d="M159 480h2v.32813h-2zm0 0"/></clipPath><clipPath id="h"><path d="M166 479h9v1.32813h-9zm0 0"/></clipPath><clipPath id="i"><path d="M172 480h2v.32813h-2zm0 0"/></clipPath><clipPath id="j"><path d="M180 479h8v1.32813h-8zm0 0"/></clipPath><clipPath id="k"><path d="M186 480h1v.32813h-1zm0 0"/></clipPath><clipPath id="l"><path d="M193 479h8v1.32813h-8zm0 0"/></clipPath><clipPath id="m"><path d="M199 480h2v.32813h-2zm0 0"/></clipPath><clipPath id="n"><path d="M206 479h9v1.32813h-9zm0 0"/></clipPath><clipPath id="o"><path d="M213 480h3v.32813h-3zm0 0"/></clipPath><clipPath id="p"><path d="M220 480h8v.32813h-8zm0 0"/></clipPath><clipPath id="q"><path d="M226 480h2v.32813h-2zm0 0"/></clipPath><clipPath id="r"><path d="M233 479h8v1.32813h-8zm0 0"/></clipPath><clipPath id="s"><path d="M239 479h2v1.32813h-2zm0 0"/></clipPath><clipPath id="t"><path d="M246 479h9v1.32813h-9zm0 0"/></clipPath><clipPath id="u"><path d="M252 479h3v1.32813h-3zm0 0"/></clipPath><clipPath id="v"><path d="M260 478h8v2.32813h-8zm0 0"/></clipPath><clipPath id="w"><path d="M265 478h3v2.32813h-3zm0 0"/></clipPath><clipPath id="x"><path d="M273 478h8v2.32813h-8zm0 0"/></clipPath><clipPath id="y"><path d="M279 479h2v1.32813h-2zm0 0"/></clipPath><clipPath id="z"><path d="M286 479h9v1.32813h-9zm0 0"/></clipPath><clipPath id="A"><path d="M292 479h2v1.32813h-2zm0 0"/></clipPath><clipPath id="B"><path d="M300 479h8v1.32813h-8zm0 0"/></clipPath><clipPath id="C"><path d="M306 479h2v1.32813h-2zm0 0"/></clipPath><clipPath id="D"><path d="M313 479h8v1.32813h-8zm0 0"/></clipPath><clipPath id="E"><path d="M319 479h2v1.32813h-2zm0 0"/></clipPath><clipPath id="F"><path d="M326 478h8v2.32813h-8zm0 0"/></clipPath><clipPath id="G"><path d="M332 479h2v1.32813h-2zm0 0"/></clipPath><clipPath id="H"><path d="M342 479h3v1.32813h-3zm0 0"/></clipPath><clipPath id="I"><path d="M353 479h8v1.32813h-8zm0 0"/></clipPath><clipPath id="J"><path d="M366 479h9v1.32813h-9zm0 0"/></clipPath><clipPath id="K"><path d="M367 478h2v2.32813h-2zm0 0"/></clipPath><clipPath id="L"><path d="M379 479h9v1.32813h-9zm0 0"/></clipPath><clipPath id="M"><path d="M380 478h2v2.32813h-2zm0 0"/></clipPath><clipPath id="N"><path d="M393 478h8v2.32813h-8zm0 0"/></clipPath><clipPath id="O"><path d="M406 479h8v1.32813h-8zm0 0"/></clipPath><clipPath id="P"><path d="M419 479h9v1.32813h-9zm0 0"/></clipPath><clipPath id="Q"><path d="M420 478h2v2.32813h-2zm0 0"/></clipPath><clipPath id="R"><path d="M434 477h6v3.32813h-6zm0 0"/></clipPath><clipPath id="S"><path d="M447 478h7v2.32813h-7zm0 0"/></clipPath><clipPath id="T"><path d="M460 477h7v3.32813h-7zm0 0"/></clipPath><clipPath id="U"><path d="M144 466h4v2h-4zm0 0"/></clipPath><clipPath id="V"><path d="M144 453h4v2h-4zm0 0"/></clipPath><clipPath id="W"><path d="M144 439h4v3h-4zm0 0"/></clipPath><clipPath id="X"><path d="M465 437h3v2h-3zm0 0"/></clipPath><clipPath id="Y"><path d="M144 424h3v6h-3zm0 0"/></clipPath><clipPath id="Z"><path d="M465 423h3v2h-3zm0 0"/></clipPath><clipPath id="aa"><path d="M144 411h3v6h-3zm0 0"/></clipPath><clipPath id="ab"><path d="M144 398h4v5h-4zm0 0"/></clipPath><clipPath id="ac"><path d="M465 397h3v2h-3zm0 0"/></clipPath><clipPath id="ad"><path d="M144 384h3v6h-3zm0 0"/></clipPath><clipPath id="ae"><path d="M144 370h2v8h-2zm0 0"/></clipPath><clipPath id="af"><path d="M144 357h3v7h-3zm0 0"/></clipPath><clipPath id="ag"><path d="M144 345h4v5h-4zm0 0"/></clipPath><clipPath id="ah"><path d="M144 331h3v6h-3zm0 0"/></clipPath><clipPath id="ai"><path d="M144 316h2v9h-2zm0 0"/></clipPath><clipPath id="aj"><path d="M144 315h2v3h-2zm0 0"/></clipPath><clipPath id="ak"><path d="M466 318h2v2h-2zm0 0"/></clipPath><g id="al" clip-path="url(#clip1)"><path fill="#fff" fill-opacity="0" fill-rule="evenodd" d="M0 0h1000v1000H0zm0 0"/><path fill="#d3d3d3" fill-opacity="0" fill-rule="evenodd" d="M162.15234 355.86719l-.23437.29297.0586.23437.11718.17188.17578.23437.29297.34766.11328.0586.11719-.17188.0586-.23438.17577-.17578.46485-.17578h.69922l.23437.29297.28906.8164.0586.17579.17578.23046.35156.23438.69922.69922.17188.17578.23437.34765.23438.41016.28906.58203.41015.46485.23047.23437.23438.17578.11719.23047.17578.29297.17187 1.16406v.23438l.0586.28906.05859.11719.11719.11719.34765.41015.11719.17188.17578.17578.17578.23437.11719.17188.17188.35156.05859.23438.23437.40625.23438-.0586-.17578.17578-.0586.92969h-.58203l-.23437-.11328-.34766.11328-.11719.11719-.05859.29297-.0586.17578-.11718.17187-.46484.29297-.0586.23438-.0586.11328v.64453l.0586.17187v.41016l.0586.0586v.40624l.05859.40625.11719.17579.05859.05859.23047.64062-.0586.29297v.69922l-.05859.58203v.23438l-.0586.23047-.05468.35156v1.92187l.05469.1172h.42578l-.36719.11718-.02344.35156.89063 1.16797 1.74219.53906 1.33984.35938v.53906l.08984.8086.53516.71484 1.51953.26953.89063-.08594.08984 1.16406.53516.1797 1.16015-.1797 2.05469-.98437 1.16016-.36328 1.8789-.17578 1.69531-.1797-.17968.71876-1.51563.08594-1.25.08984-.80469.26953-1.07421.8086.26953.71875.53515.89843-.17968.625-.26563.8086.26563 1.07812.625.89844.80468.17969 1.25-.1797-.26562.72267.09766.5039.05468.29297v.17188l.0586.29296v.40625l.17578.1172.35156.11718h.40625l.29297-.17578.11328-.11719.0586-.11719.11718-.23047.0586-.17578.35156-.46484.23047-.17578.17578-.0586.17578.0586.0586.17578.11718.98828.05469.46875.0586.17188.11718.23437.17578.0586.8164.05859h.28907l.11719.23437.05859.40625.0586.35156v1.10547l.11718.29297.11719.34766.28906.69922.17578.35156.58203.7539.35157.17579.17187.0586.46875.23437.64063.46484.34765.23438.29297.17578.29297.05468.23047.0625.8164.34766.29297.17578.11328.17188.35157.35156.11719.17578.52343.64063v.28906l.0586.35156v.34766l.05859.35156.0586.28906.11718.0586.17188.05859h.17578l.58203.23437.17578.1172.17578.28905.17578.23438.11328.23437.29297.23047.11719.11719v.41016l.0586.05468.28906.23438.23437.11719.0586.11718.11718.17188.0586.11719.23047.23437.05859.17578.23437.0586.1172.05859-.1172.11328-.05859.11719v.11719l-.11719.29296-.11719.28907v.58203l.17579.11719.11718.05859.0586.11719.11719.11719.11328.05859.17578.34765.0586.35157.05858.40625v.17578l-.05859.17578-.11719.69922v.17187l.1172.17579.29296.29296h.40625l.17578.1172.11719.17187.11719.29296v.23438h-.52735l-.23047-.23438h-.23437l-.17578.0586-.0586.69922.0586.34765.11719.17579.17578.41015.11718.23047.28907.46875.17578.05469h.52344l.23437.0586.75781.64062.0586.29296v.23438l.05859.0586.23047.34765v.35156l-.11719.17188v.29297l.29297.28906.29297.17578.17187.0586.29297.17577.29297.1172.58203.40624.28906.23438.29297.17578.21875.16015.01563.01172.23047.17579.64062.52343.17578.23438.1172.17578.17577.17578.11328.17188v.64062l.1172.17578.46874.11719.58203.11719.23438.05859.23047.11328.29297.11719.11328.0586.58593.35156.28907.17187.17578.0625.17578.05469.17578.0586.69922.35155.28906.17579.23438.05468.28906.17578.23437.1172.64063.40624.29297.11719.17187.0586.23438.05859.41015.05859.23047.0586.23438.11718.0586.17188-.41017.17578.46875.0586.0586.29296.11328.23438.17578.05468.23438.0586.17578.05859.40625.11719.64062.23437.11719.17188.0586.23437v.17578l-.0586.1172-.0586.40624.23438.23438.11719.05859.34766.11719.64062.23047.17578.11718.28906.1172.17578.17577.23438.46485.58203 1.10546.17578.17579.34766.17578.17578.11719.35156.11718 1.04688.52344.23437.0586.46485.11327.29297.0586.46484.17578.75781.58203.23438.23438.34765.46484.17578.17578.28907.23438.8164.69921.29297.17579.28906.28906.29297.17578.29297.28906.69531.64063.17578.17578.29297.23437.28907.23438.46875.28906.64062.58203.34766.23438.23437.29297.34766.34765.35156.46485.9336.99218.34765.40625.11719.17579.23437.05859.11328.11719.64454.17578.23047.11328.23437.0586.29297.17577.23047.1172.9336.69921.40624.40625.23438.17578.40625.17578.23437.11719.8164.34766.34766.23437.23438.11719.29297.28906.23047.11719.7578.35156.35157.17188.23047.05859.29297.11719.23437.0586.8711.17577h.8164l.46875.23047.17188.0586.875.69921.46484.1172.29297.05858.17578.0586.23047.0586.46875.05859.34766.05859.35156.0586.40625.05859h.29297l.17187.0586v.23046l.17578.17578h.29297l.34766.0586.35156.05859.69922.11719h.64063l.46484-.23438.29297-.17578.17187-.11719.41016-.17187.28906-.17578.9336-.46485.46875-.29297.52343-.29296.46485-.17188.46484-.17578 1.05078-.46485.28906-.11718.41016-.11719.28906-.11719.52735-.17578 1.51562-.69922.58203-.34765.28907-.0586.29297-.0586.34765-.11718.875-.23047.35156-.11719h.11329l.23437-.05859.875-.23437.23438-.0586h.8125l.35156-.0586.8164-.11718.17188-.0586.35156-.05468.29297-.0586.23047-.05859.8164-.17578.17579-.0586h.34765l.23438-.05859.46484-.11718.75781-.17188.23438-.0586h.34765l.41016-.11718.28906-.0586 1.28516-.05859h.28906l.41016-.0586.23047-.05858h.17578l.875-.1172h.40625l.41015-.11718h.34766l.35156-.11328.8711-.0586h1.75l1.04687.28907.41016.11719.28906.11718.35156.11719.28907.11719 1.05078.17187.28906.0586h.29297l.29297.05859.17187.0586.41016.05859.17187.0586.1172.05858h.11718l.11719.0586.35156.0586h.11328l.41016.0664 1.92187.39453 1.92578.39453 1.51953.44922 1.69532.71875 2.14453.80469 1.60547-.71875 1.42968-.80469 1.16016-1.07813 1.25-.44921 3.03516-.71875 1.875-.35938 2.14453-1.34765 2.23437-1.25391 2.5-1.25781 1.69531-.44922 1.78516-.17969 1.16016-.26953.625.53906 1.33984-.26953.71485-.98828.98437-1.34375.44531-.17969.80469-.35937 1.875-.53907 1.78516-.44921 1.25-.26954 1.16015-.08984 1.69922-.08984 1.96094-.26954 1.25-.08984h.53906l.625-.08984h.89063l2.14453-.17969 2.41015-.17969 2.58985-.08984 1.69531.17969 1.60938.08984 1.42968.35938 1.16016.71875 1.875.98828 1.16015 1.52734.26563.71484.6289.08985.35548.89844.53515.53906.53516 1.52734 1.07422.35938h.53515l-.80469.53515.08985 1.70703.71484 2.69532.89063.80468.89453.98829.71484 1.2578 1.78516.53907 1.51953-.17969.35547 1.34375 1.60937-.80469.98047-.53906.26953.26953.31641-.21484.21875-.14453.80078.44922.44922-.35938h.35547l.53515-.26953.53907-.71875.53515-.26953.625-.98828 1.16016.44922.83984.3711 1.39454.61718 1.6953-.17969h1.60548l1.78515.08985.17969-1.70704.53516-1.34375.80468.26954.4922.84765.40233.40625-.08984.53906v.35938l.71485.44922.71093-.26953h1.42969l.35938.98828.4453 1.25781.71485 1.34375 1.25.6289 1.69531.62891.71485-.17969.17969-.53906.98046-.08984.44922.35937.08594 1.25782-.26563.6289-.53515.17969v.53906l.71484.98438.26563.53906.98437.98828.80078 1.07813-.26562.35937-.08985.89844-.625 2.33203-.35546 2.0664-.08985 1.79298-.17969.71875-.08984.53906v1.4375l-.98047 1.88281-.35937 1.70703-.53516.89844-.80469 1.16797-.26562.53906 2.05469 1.2539.08593.35938-.35546.53906-.08985-.17968v.80859l.08985 1.4375-.44532.71484-1.07422.09375-.26562.71485.53515.89844.8047.71875 1.16015.80859 1.33984.26953.44531.35938-.35546.44921-1.78907-.08984-1.25-.44922-.71484-.71875-.625-.08984-.17578 3.58984-.1875 1.3086h89.35937V311.70313h-55.26953v49.08203l.76172.125 3.28906.54296 2.02344 2.83594v2.7539l2.35156.33204 2.34766.33203h4.05078l-1.3789 4.16016-2.02344.70703-2.02344.70312-.54297.34375-2.59375 1.6172-.1875.11718-2.02344-2.07813-.73046-2.74218-2.67188-2.07813-1.375-3.5-.0664-.08203-1.95704-2.67188 2.75-1.41796v-49.08204H294.42187v91.41407l.1172.03125.1328.01172.07422.07421.10547.04688.08985.0586.08593.05859.08985.0586.29687.29687.0586.08984.03125.11719.02734.11719.01563.13671-.03125.1172-.0586.08983-.0586.08594-.04296.10547-.04688.10156-.02734.1211v.14453l.17578.26953.14844.14844.07422.08594.07422.07421.04296.10547.0625.08985.0586.08593.04297.10547.0586.08985.04687.10156.04296.10547.0586.08594.11719.17968.07421.07422.0625.08594.0586.08984.04297.10547.0586.08985.05858.08593.0625.08985.0586.08984.04297.10156.11719.17969.07421.07422.0586.08594.07422.07421.08984.0586.10547.04687h.14844l.1328-.01562.13282.01562.10156-.04687.07422-.07422.04688-.10156-.01563-.13281v-.14844l-.04687-.10547-.02735-.11719-.04687-.10156-.02735-.1211-.04296-.10156-.0625-.08984-.04297-.10156-.04297-.10547-.03125-.11719-.01563-.13281-.01171-.13672.08593-.0586.0586-.08593.12109-.03125.04297.10547.01562.1328v.1172l.0586.10156.0586.08984.08983.0586.14844.14843.0586.08985.04296.10547-.01171.10156.08593.0586.10547.04687.08594.0586.08984.05858.07422.07422-.11719.02735-.10546.04687-.08594.0586-.07422.07421-.0586.08985-.0625.08594-.02734.12109-.04687.10156-.04297.10547-.03125.11719-.01172.13281-.01563.13281v.14844l.02735.11719.04687.10547.04297.10156.0586.08984.07421.07422.08985.0586.07422.07421.08984.0586.0586.08984.04296.10547.04688.10156.11719.03125.1328.01563h.14845l.11718-.03125.10547.04297.04297.10547.04688.10156.02734.1211L299.5 410l.02734.11719.03125.1211.02735.11718.10547.04297.10156.04687.13281-.01562.14844.14844.0625.08593.07422.07422.07031.07422.08984.0625.10547.04297.10156.04297.1172.03125.13671.01562.11719-.03125.07422-.07422.02734-.11718-.01172-.13282-.03125-.12109-.02734-.11719.04297-.10547h.11719l.08984.0625.11719.02735h.14843l.13282.01562h.14843l.13282.01563.1328-.01563h.14845l.1328-.01562.13282-.01172.13672.01172.11719-.02735.13281-.01562.1914-.0586-.05859.17579-.01562.1328-.02735.1211-.01562.13281-.0586.08594-.1328.01563-.10548.04687-.10546.04297-.1172.03125-.11718.02735-.26563.03125h-.14843l-.13281.01562-.07422.07422.05859.08594.14844.14843.11719.1797.07421.0703.08985.0625.08984.0586.08594.0586.08984.05858.10156.04297.10547.0625.10547.04297.08594.0586.10547.04687.10156.04297.17969.11719.0586.08984-.04298.10156-.04687.10547.01562.13281.22266.22266.0586.08985.04296.10156.03125.1211.04297.10155.01563.13282.03125.11718.01171.13672.03125.11719.14844.14844.10156.04297.10547.04296.1172.03125.1328.01563.13672.01563h.11719l.11719-.03125.08984-.0586.04297-.10547.04688-.10156.04296-.10547.03125-.11719.01172-.1328v-.14845l-.01172-.1328-.01562-.13282-.03125-.11719-.04297-.10547-.04688-.10547-.04296-.10156-.04297-.10547-.01563-.13281.01563-.13281.02734-.11719.03125-.11719.02735-.1211.04687-.10155.08984-.0586.08594-.0625.07422-.07422.08984-.05859.22266-.22266.0586-.08593.07421-.07422.11719-.17969.0586-.08594v-.14844l-.07423-.07421-.10156-.04688-.10547-.04297-.10156-.04297-.0586-.08984-.04687-.10547-.02734-.11719.08984-.05859.11719-.03125.10156-.04297.17969-.11719.14844-.14843.01172-.13282-.01172-.10546-.08985-.0586-.1328.01563h-.14845l-.1328.01562-.13282-.01562-.1211-.03125-.08593-.0586-.07422-.07422-.0586-.08984-.0625-.08594-.11718-.17969-.0586-.08593.03125-.1211.08594-.05859.1211-.03125.05859-.08594v-.1211l-.03125-.11718-.0586-.08984-.05859-.08594-.04687-.10547-.02735-.11719-.01562-.1328.0586-.08985.07421-.07422.08984-.0586.1172-.17968.07421-.07422.0586-.08594.14843-.14844.1211-.03125.1328-.01562.13282.01562.07422.07422.04297.10547.01562.13281-.03125.1172-.11719.03124-.1328.01172-.14844.14844-.04297.10547-.04688.10156-.02734.1211-.03125.11718v.14844l.03125.11719.04297.10546.05859.08985.07422.07031.07422.07422.11719.03125.12109.02734.11719-.02734.1328-.01563h.1172l.08984.0586.07422.07422.04687.10546.0586.08594.10156.04688.13281.01562.10547.04297.08594.0586-.01172.10546-.07422.07422-.17969.11719-.05859.08984-.08984.0586-.07032.07422-.07421.07421-.0625.08985-.02735.11719-.01562.1328.01562.13282-.01562.13281v.14844l.01562.13281.02735.1172.03125.12108.07421.07422.08985.0586.08594.0586.08984.05858.11719.03125v.08594l-.10157.04688-.08984.0586-.26563.03124-.11718.02735h-.14844l-.10547.04296-.10156.04688-.0586.08984-.0625.23438-.01171.13281-.03125.1211-.01563.1328v.29298l-.01172.1328.01172.13673.01563.1328.1328.01563.13282.01172.1211.03125.08593.0586.07422.07421.04688.10547.04296.10157.01563.1328v.44532l-.01563.13281v.44532l.03125.26562.02735.11719.01562.13281.03125.11719.08594.21094.03125.26562v.14844l-.03125.11719-.02734.11718-.03125.1211-.02735.11719-.03125.11718-.03125.1211-.01171.1328-.01563.13282.08984.0586.1172-.03125.10155.01562.04688.10547-.03125.26562v.44141l-.04297.10547-.04688.10547-.04296.10156-.04297.10547-.0586.08594-.03125.12109-.04296.11719-.03125.11719-.01563.1328.01563.13282.05859.08984.10547.04688.08594.0586.05859.08593-.01172.13672-.03125.11719-.04297.10156v.44531l-.01562.13281v.14844l-.03125.11719-.04297.10547-.02735.11719-.04687.10546-.04297.10157-.03125.12109-.02734.11719-.03125.13281-.03125.11719-.02735.11719-.04297.10546-.03125.1172-.03125.12108-.01171.13282-.01563.13281v.29688l.02734.11718v.14844l.04688.39844.02734.11719.0586.08984.12109.03125h.14844l.13281-.01563.0586.08985v.11719l-.0586.08984-.08984.0586-.10157.04296-.10546.04688-.08985.05859-.08594.0586-.13671.01562-.1172-.03125-.1328-.01563-.10157.04688-.0625.08594-.01172.13671-.01562.13282-.03125.11719-.02735.11718-.01562.13281-.03125.1211v.29687l.01563.13282.03125.11718v.14844l.01171.13281v.14844l-.02734.11719-.04688.10156-.02734.1211-.03125.11718-.0586.08985-.07421.07421-.10156.04297-.10547.04688-.11719.02734-.1211.03125-.10156-.04687.0586-.08594.10547-.04688.02734-.11718.03125-.11719.02734-.1211.03125-.11718v-.14844l.01563-.13281-.03125-.11719-.04297-.10547-.10547.01563-.07422.07422-.10156.04296-.08984.0625-.07422.07422-.04297.10157-.01563.1328-.03125.1172L304.25 426l-.03125.11719-.02734.11719-.03125.12109-.02735.11719-.03125.11718-.04297.10547-.08984.0586h-.08984l-.1172-.03125-.03124-.08594.01562-.13672-.03125-.11719v-.14844l-.01171-.1328v-.14844l-.0625-.23438-.02735-.1211-.04297-.10156-.04687-.10546-.0586-.08594-.05859-.08985-.04297-.10546-.0625-.08594-.14844-.14844-.0703-.07422-.10548-.04687-.10547-.04297-.10156-.04297-.29687-.29688-.08985-.07421-.08594-.0586-.10546-.04297-.08985-.0625-.08594-.0586-.10546-.04296-.08985-.0586-.08594-.0625-.07421-.0703-.10547-.04688-.08594-.0586-.10547-.04296-.08984-.0625-.10156-.04297-.10547-.04297-.08594-.0586-.10547-.04687-.10547-.04297-.10156-.04687-.08985-.0586-.10156-.04297-.10547-.04296-.08984-.0625-.11719-.02735-.13281-.01562-.13281.01562H299.75l-.13281.01563-.11719-.03125-.08984-.0586-.07422-.07422-.08985-.05859-.10156-.04688h-.14844l-.12109-.02734-.10156-.04297-.07422-.07422-.11719-.17968-.08984-.0586-.10156-.04297-.08985-.0625-.10547-.04296-.08984-.0586-.08594-.0586-.10547-.04687-.0586-.08594-.05858-.08984-.04297-.10547-.04688-.10156-.07422-.07422-.08594-.0586-.07421-.07421-.08985-.0586-.22265-.22265-.04297-.10547-.03125-.26563.10547-.04296h.14453l.10547.04296.07421.07422.08985.0586.08594.0586.10546.04687.08985.05859.14844.14844.0703.07422.14845.14843.0625.08594.07421.07422.08594.0586.07422.07421.08985.0625.08984.0586.08594.05859.26953.17578.10156.04688.10547.04296.10156.04297.04688-.07421.05859-.08594.07422-.07422.07031-.07422.10547.04297.07422.07422.0586.08984.04296.10156.04688.10547.04296.10547.1211.02735.11719-.02735.07421-.08984.04297-.10547.0586-.08985.07422-.07421.10546-.04297.1172-.02735.1328.01172.08985.0586.14844.14843.05859.08985.04297.10547.04687.10156.04297.10547.04297.10156.10547.04688.10547.04296.13281.01563.08594-.0586.0586-.08984.07421-.07422.10547-.04297.11719.02735.10547.04687.10156.04297.10547.04297.10156.04688.17969.11718v.11719l-.01563.13281.01563.13281.01562.13672.0586.08594.10156.04688.1211.02734.11718.03125h.14844l.11719-.03125.05859-.08984.17969-.1172.05859-.08983.07422-.07422.0586-.08594.11718-.17969.17969-.11719.11719.03125.08984.0586.04297.07422-.01563.1328v.1172l.08985.05859h.14843l.13282-.01563.1328-.01171.26563-.03125.10547-.04297.11719-.03125.1211-.02735.07421-.07421.07031-.07422.0625-.08985-.01562-.10547-.04688-.10156-.10156-.04297-.10547-.01562-.11718.02734-.26563.03125h-.14844l-.07421-.07422-.08985-.0586-.11719-.03124-.11718-.02735-.13282-.01562h-.14843l-.13282.01563h-.29687l-.10547-.04688-.14844-.14844-.04297-.10156-.05859-.08984.22266-.22266.08593-.0586.10547-.04296.11719-.03125.13281-.01563.13281.01563.13672.01562.10157.04297.1328-.01172.08985-.0625.10156-.04297.0625-.08984-.04687-.10156-.08984-.0586-.1172-.03125-.10155-.04296-.0586-.08985-.0625-.08984v-.11719l.01563-.13281.10547-.04688.07421-.07031v-.1211l-.08984-.05859-.03125-.11719.08985-.05859.07421-.07422.04297-.10547.0586-.08984.04687-.10156.01563-.13281v-.14844l-.04688-.10547-.04297-.10156-.08984-.0586-.13281-.01562-.10157-.04297-.13671-.01563-.1172-.03125h-.4453l-.13282-.01562-.13281-.01172-.13281-.01563-.11719-.03125h-.14844l-.13281-.01562-.13281-.01172-.26563-.03125-.1211-.04297-.08593-.0586-.07422-.07421v-.14844l.01172-.13281.10547-.04688.10156-.04296.13281-.01563h.15235l.13281-.01562h.29297l.1211.03125.10156.04296.08984.0586.23438.0625.12109-.04688.08984-.05859.10156-.04297.13282-.01562.10547.04296.10156.04688.13281.01172.1211-.02735h.14453l.12109-.03125.11719-.02734.10547-.04687.07421-.07422.08594-.0586.14844-.14843.0586-.08594.04687-.10547.02734-.11719.01563-.10547-.10156-.04296-.08985-.0586-.11719-.03125-.10546-.04297-.08985-.0625-.07422-.08594-.07422-.07421-.10156-.04297-.10547-.04688-.10156-.04297-.0586-.08984-.04687-.10156-.08594-.21094-.0625-.08594-.05859-.08984-.07422-.07422-.08594-.0586h-.26953l-.11719.03126-.08984.05859-.10156.04297-.13281.01562-.10547-.01562-.02735-.11719-.0625-.08984-.11718-.03125-.10157-.04297-.14843-.14844-.03125-.11719-.01563-.10546.07422-.07422.17969-.1172.11719-.02733.11718-.03125.13672.01562.10156.04297.10547.04297.10156.04687.10547.04297.1172.03125.1328.01563.1172.02734.1328.01563.10547-.01563.08985-.0586-.07422-.07421-.10547-.04297-.07422-.07422-.07422-.08984-.14844-.14844-.08593-.0586-.08985-.05859-.07422-.07422-.08984-.0586-.10156-.04687-.1211-.02734-.10156-.04688-.10547-.04296-.11719-.03125-.10156-.04297-.1211-.03125h-.14843l-.11719.03125-.10546.04297-.08594.0625-.17969.11718-.08594.0586-.08984.0586-.10547.04687-.08594.05859-.10547.04297-.10156.04297-.10547.04687-.07422.07422-.05859.08985-.0586.08593-.04687.10547-.0586.08594-.07421.07422-.13281-.01172-.1172-.03125h-.11718l-.07422.07422-.08984.0586-.07422.07421-.08984.0586-.08594.05859-.10547.04687-.10156.04297-.13672.01563-.10156-.04297-.14844-.14844-.10547-.04688h-.08594l-.10547.04688-.10156.04297-.1211.03125-.11718-.03125-.07422-.07422v-.11719l.03125-.1211.07422-.0703.0586-.08985.07421-.07422.11719-.03125.10547-.04296h.29297l.13281-.01563.13672-.01563.10156-.04296.08985-.0586.10156-.04687.08984-.0586.13281-.01171.08985.05859.13281.01172.08984-.0586.08594-.05859.10547-.04297.08984-.0586.08594-.0625.08985-.05859.14843-.14843.0586-.08594.05859-.08985.10547-.04296.13281-.01563.11719.02735.1211.03125.05859-.0586.05859-.08984.03125-.26563.02734-.11719.10547.01172.13281.01563.10157-.04297.08984-.0586.0586-.08984.07421-.07422.0586-.08984.04687-.10156.01172-.13281-.01172-.13282-.04687-.10547-.14844-.14843-.0586-.08985-.05859-.08594-.04297-.10546v-.44532l.01563-.1328v-.14845l.01172-.1328-.0586-.0586-.08984.0586-.10156-.04298-.17969-.11719-.08594-.05859-.0625-.08984-.0586-.08985-.07421-.07421-.08594-.0586-.1211.03125-.10155.01172-.10547.04688-.08594.05859-.10547.04297-.14844.14844-.08984.05859-.08594.0586-.08984.0625-.10547.04296-.13281.01563v-.1211l.10547-.04297.11718-.03125.07422-.0703.04297-.10548v-.14844l-.02734-.11718-.14844-.14844-.13281-.01563h-.14844l-.11719.03125-.10547.04297-.10156.04297-.08984.0625-.11719.02735-.07422-.07422.01172-.13281-.04297-.10157-.04297-.10547-.08984-.05859-.11719.02734-.1211.03125-.11718.03125-.10156.04297-.1211.03125-.10156.04297-.10547.04297-.08984.0586-.10156.01562v-.11719l.01562-.13281-.0586-.08985-.07421.04297-.14844.14844-.0586.08985-.07421.07421-.04688.10547-.04296.10156-.07422.07422-.0586.08985-.07422.07422-.05859.08593-.07422.07422-.08984.0625-.07422.07031-.07422.07422-.10156.01563-.13281.01562-.10547-.04296v-.1211l.14843-.14844.04297-.10156.0586-.08984.04687-.10156.04297-.10547.0586-.08985.03124-.11719.04297-.10156.03125-.1211.02735-.11718.04687-.10547.04297-.10156.04297-.10547.07422-.07031.08984-.0625.08985-.0586.10156-.04296h.29687l.26563-.03125.10547-.04297-.07422-.07422-.11719-.03125-.10547-.04297-.08984-.0586-.10156-.04687-.08985-.0586-.10156-.04296-.10547-.04297-.08984-.0625-.08594-.0586-.10547-.04296-.10156-.04297-.1211-.03125-.11718-.03125-.10157-.04297L297.5 410.25l-.10156-.04297-.08985-.0586-.04296-.10546-.01563-.13281.10156-.04297.13281-.01563.13672.01563.13282-.01563.10156-.04297.0586-.08984.01562-.10547-.08985-.0586-.07421-.07421-.10157-.04297-.08984-.0586-.14844-.14843-.04297-.10547-.01562-.13281v-.29297l-.0586-.08985-.08984-.05859-.07422-.07422-.04297-.10547-.03125-.11718-.0586-.08985-.07421-.07422-.11719-.02734-.07422-.07422-.08984-.0586-.08984-.0625-.08594-.05859-.07422-.07421-.0586-.08594-.04687-.10547-.08594-.0586-.14843-.14843-.19532-.0586-.1328.01563-.10157.04297-.07422.07422-.04688.10156-.04296.10547-.0586.08984-.0586.08594-.29687.29687-.08984.0586h-.08594l-.0625-.08594-.04297-.10547.03125-.11719.0586-.08984.02734-.11719-.01172-.13281-.08984-.0625-.10547.04688-.11719.02734-.11719.03125-.26953.17578-.10156.04688-.11719.02734-.10546.04687-.08985.0586-.10156.04297-.0586-.08594-.04687-.10547.01563-.13281.04687-.10547.07031-.07422.07422-.07031.0586-.08985v-.14843l-.04297-.10547h-.23829l-.10156.04687-.03125.11719-.02734.11719-.03125.1211-.07422.04296-.13281.01563-.07422-.04688-.04297-.10156-.04297-.10547-.04687-.10156-.04297-.10547-.1211.03125-.10156.04297-.13281.01562-.11719.03125-.10547.04297-.08984.0586-.10156.04687-.1211.02734-.13281.01563-.10156-.04297-.0586-.08985-.04687-.10546-.04297-.10157-.04297-.10546v-.1172l.0586-.08984.08593-.05859.17969-.11719.10156-.04687.10547-.04297.10547-.0586.10156-.04296.08985-.0625.10156-.04297.10547-.0586.10156-.04687.08984-.0586.10547-.04296.10156-.04297.08985-.0625.10156-.04297.13672-.01563.11719.03125.10156.04297.1211.03125.10156.04297.10546.04688.10157.04296.10547.04297.10156.04688.10547.04297.10156.04297.10547.04687.08594.0586.10546.04296.1172.03125.10546.04297.10156.04688.08985.0586.10547.04296.10156.04297.10547.04687.11719.02735.10156.04687.1211.02735h.14843l.08594-.0586.01562-.10156.0586-.08984-.02735-.1172-.07422-.07421-.11719-.17969-.07421-.07422-.08985-.07421-.17969-.1172-.08593-.05859-.10547-.04296-.10156-.04688-.26954-.17578-.05859-.08985-.07422-.07421-.0586-.08985-.04296-.10156-.03125-.11719-.01563-.13672v-.5625l-.01171-.1328-.01563-.13282-.03125-.11719-.01562-.13281-.01172-.13281-.03125-.1211-.22266-.22265-.0586-.08594-.01562-.10547.03125-.11719.13281-.01562v-91.41406H172.9922v1.45312l-.0586.23438-.35156 1.05078-.17187.52343-.1172.34766-.17577.41016-.11719.17187-.23438.29297-.23046.0586h-.35157l-.11718.05859-.23047.40625v.29297l.11719.17578.23046.23047.1172.23437.64062.75781.29297.46485.17578.23437.23047.35156.23437.34766.64063.8164.17578.46485.17187.41016.11719.69531.17578.46875.11719 1.39844.0586.46484v.875l.11718 1.04688v4.78125l-.0586.46484-.35156 1.28125-.17578.52344-.11328.41015-.35156.9297L172.93359 336l-.23437.58203-.11719.17578-.17187.34766-.17578.40625-.35157.8164-.0586.29297-.11327.29297-.11719.28906-.0586.17579-.11718.875-.0586.40625-.05859.11718-.0586.17579-.05859.17187-.23047.52734-.11718.17188v.23437l-.11719.23438-.0586.17187-.17577.58594v.28906l-.0586.17579v.29296l-.0586.11329-.05859.52734v.17187l-.05468.23438v2.6211l-.17578.8164-.1172.17578-.17577.23438-.1172.17187-.11327.23438-.58594.93359-.23047.28906-.29297.46485-.17578.23437-.28906.35156-.35156.69922-.11328.23047-.17579.41016-.17578.23046-.40625.52735-.8164.69922-.29297.17187-.28906.23438-.17579.11719-.17578.17578-.52344.40625-.52734.17578-.17187.17578-.23438.05469-.64062.17578h-.75782m12.21094 31.02344l-1.07422.44921.35938.89454 1.25-.71485.44531-.53906-.98047-.08985"/><path fill="#d3d3d3" fill-opacity="0" fill-rule="evenodd" d="M201.50781 416.59766h-.89453l.44922.6289.98047.35938.80469-.08985.4453-.98828-.17577.08985-.71485-.35547-.89453.35547m154.6211 59.0703l-.0586-.52343v-.29297l.11328-.29297.0586-.23046.46875-.46875h.11328l.11719-.11329.11718-.05859h.17579l.23437-.0586h.34766l.23437.0586.11719.0586.23047.17187.0586.17578.11718.58203v.29297l-.11719.17578-.17187.28906-.17579.17579-.52734.52343-.23047.23438-.11719.0586h-.17578l-.11718-.0586-.40625-.29297-.17579-.11719-.11718-.0586-.0586-.11327-.05468-.1172m6.64062-10.95702l-.0586-.17188v-1.10937l.0586-.17188.17578-.0586.17188-.05858h.17578l.23437-.0586.1172.0586.05858.69921-.05859.17188-.11719.17578-.11718.0586-.23438.52343-.11328.0586h-.23438l-.05859-.1172m9.61328-14.39062l-.11719-.17578v-.69922l.29297-.875.1172-.17187.17577-.35156.11328-.23047.1172-.29297.35155-.75781.1172-.23047.17187-.23438h.17578l.11719-.0586h.64062l.11719.0586.23437.23438.17188.11328.35156.29297.11719.11718.11328.17579v.11328l.11719.05859.11718.11719v.69922l-.05859.17578v.23047l-.0586.17578-.34765 1.05078-.11719.23047-.11719.23437-.11718.0586-.23047.23437-.64063.28906h-.875l-.41015-.11718-.64063-.46485"/><path fill="none" stroke="#bebebe" stroke-linecap="round" stroke-linejoin="round" stroke-miterlimit="10" stroke-width=".5" d="M467.95703 311.69531H144.02734v168.625h323.9297v-168.625"/><g clip-path="url(#a)"><path fill="#fff" fill-opacity="0" fill-rule="evenodd" d="M144 475.89063v4.4375h.0039H144V311.67188h.0039H144v164.21875"/></g><g clip-path="url(#b)"><path fill="#fff" fill-opacity="0" fill-rule="evenodd" d="M144.0039 480.32813V311.67188h84.32423v108.78125l-4.4375 1.23046-1.38282.94532 1.38281 2.30078 4.04688 2.14062-4.04688.51563-4.4375 2.05469-3.22265-2.57032-1.21484-1.69922-1.41407 1.69922-3.02734 2.40625-4.4375 1.66016-.5586.3711-3.1328 4.4375 1.60546 4.4375 2.08594 3.02734.6836 1.41015-.6836.74219-4.4375 1.05078-4.4375.59375-4.4414.14453-4.4375-.07422-4.4375-.55078-4.4375-1.36719-2.7461 3.90235-1.69531 1.53125-4.4375.04687-4.4375-.41015-1.08203-1.16797 1.08203-1.35938 1.54687-3.08203 2.89063-2.08203 4.4375-1.16015 4.4414 2.09375 2.51172-3.28907-2.51172-.91406-4.4414-2.16406-3.33203-1.35938-1.10547-.15625-.20703.15625-3.72657 4.4375-.5039.94922-.46485-.94922-3.97265-2.52344-2.40625 2.52344 1.16015 4.4375-.54687 4.4414-1.09766 4.4375.77344 4.4375 2.11719 3.9922 4.4375.29687 4.4375-.71094 4.4375-.05468 4.4414-2.88672 4.4375.74219 3.66797-1.37891.76953-.42969 4.4375-1.14453 4.4414-1.71094 4.4375-.08203 4.4375-1.0586.01563-.01171 4.42188-3.60938 3.36719-.82812.03125-4.4414 1.04297-1.8086 1.01562 1.8086 3.42188 1.89452 1.6953-1.89453 2.7422-4.35156.12109-.08594 4.3164-2.53125 4.4375.46485 1.47266 2.0664 2.96875 1.91016 4.4375 1.46484v9.42578l-1.125.51563 1.125.53906.90234-.53906-.90234-.51563v-9.42578l4.4375-1.80078 1.29297-1.57422-1.29297-1.375-4.4375-2.0664-4.4375.5625-2.16406-1.5586-2.27734-1.8164-3.44922-2.6211-.69141-4.4375 4.14063-2.6289 1.2539-1.8125-1.2539-1.34766-4.4375-.82813V311.67188h44.3828v116.27735l-4.4375 1.86328-4.4375-.11328-1.6953 1.8086-2.7422 1.07421-4.4414 1.11719-1.9414 2.2461 1.9414 1.95702 4.4414 1.40625 3.00391-3.36328 1.4336-3.13672 4.4375.35938 4.4375 1.45312v8.84375l-4.4375.85938-1.1875.4961-3.25 2.54296-2.59766 1.89844.44531 4.4375 2.15235 2.02734 4.4375.27344 4.4375-.08594 4.4414-1.1836.73047-1.03124 3.70703-3.55469.63282-.88281 1.02343-4.4414-1.65625-1.10938-4.4375.92578-4.4414-1.17188v-8.84375l4.4414.34375.30079.98047 4.13671 3.6836 4.4375-.35547 4.4375-.71485 2.44141-2.61328-2.4414-2.58984-4.4375-.76563-2.48829-1.08203-1.94922-1.9414-4.4375-1.10547-4.4414-.51172V311.67187h75.45312V435.4961l-.42187.44922.42187.4336 1.29297 4.0039 3.14453 3.11719 3.5664-3.11719-3.5664-3.10156-4.01953-1.33594-.41797-.44922V311.67188h26.6289v131.02734l-2.21483 2.1211-2.22266 2.71484-1.45313 1.72656-2.71875 4.4375-.26562.45703-3.34375 3.98047-1.09375 3.23437-.40625 1.20313.40625.36719 4.4375.97265 4.4375-.33594 4.4375.41016 3.90625 3.02735.1211 4.4375.41406.51562 4.4375 1.09375 2.18359-1.60938 2.2539-.78515 2.875-3.65235 1.5625-1.58593 3.35938-2.85547-.125-4.4375-3.23438-3.41016-4.4375.11328-.77734-1.14062-3.66015-3.9336-4.4375.45313-.4922-.95703-1.3125-4.4414-2.63671-2.1211V311.67187h93.20312v163.6172l-.55859.60156.5586.7539v3.6836H144.0039"/></g><path fill="#50fcfc" fill-rule="evenodd" d="M159.63672 458.13672l-.77344-4.4375 1.09766-4.4375.54687-4.4414-1.16015-4.4375 2.40625-2.52344 3.97265 2.52343.46485.94922.5039-.94922 3.72656-4.4375.20704-.15625 1.10547.15625 3.33203 1.35938 4.4414 2.16406 2.51172.91406-2.51172 3.28906-4.4414-2.09375-4.4375 1.16016-2.89063 2.08203-1.54687 3.08203-1.08203 1.35938 1.08203 1.16797 4.4375.41015 4.4375-.04687 1.6953-1.53125 2.7461-3.90235 4.4375 1.3672 4.4375.55077 4.4375.07422 4.4414-.14453 4.4375-.59375 4.4375-1.05078.6836-.74219-.6836-1.41015-2.08593-3.02735-1.60547-4.4375 3.13281-4.4375.5586-.3711 4.4375-1.66015 3.02734-2.40625 1.41406-1.69922 1.21485 1.69922 3.22266 2.57031 4.4375-2.05468v8.1875l-.38672.17187.38672 3.27735.41796-3.27735-.41797-.17187v-8.1875l4.04688-.51563-4.04688-2.14062-1.3828-2.30078 1.3828-.94532 4.4375-1.23046 4.4375.82812 1.25391 1.34766-1.2539 1.8125-4.14063 2.6289.6914 4.4375 3.44923 2.6211 2.27734 1.8164 2.16406 1.5586 4.4375-.5625v2.58984l-1.69531.85156 1.69531.83594 1.34766-.83594-1.34766-.85156v-2.58984l4.4375 2.0664 1.29297 1.375-1.29297 1.57422-4.4375 1.80078-4.4375-1.46484-2.96875-1.91016-1.47266-2.0664-4.4375-.46485-4.3164 2.53125-.1211.08594-2.74218 4.35156-1.69531 1.89453-3.42188-1.89453-1.01563-1.8086-1.04296 1.8086-.03125 4.4414-3.3672.82813-4.42187 3.60938-.01562.01172-4.4375 1.0586-4.4375.08202-4.4414 1.71094-4.4375 1.14453-.76954.42969-3.66797 1.3789-4.4375-.74218-4.4414 2.88672-4.4375.05468-4.4375.71094-4.4375-.29687-2.1172-3.9922"/><path fill="#fff" fill-opacity="0" fill-rule="evenodd" d="M223.89063 435.77344l-.38672.17187.38672 3.27735.41796-3.27735-.41797-.17187"/><path fill="#00e8fc" fill-rule="evenodd" d="M241.64453 441.21875l-1.69531-.83594 1.69531-.85156 1.34766.85156-1.34766.83594"/><path fill="#50fcfc" fill-rule="evenodd" d="M241.64453 454.23828l-1.125-.53906 1.125-.51563.90234.51563-.90234.53906m13.3125-16.33594l-1.9414-1.95703 1.9414-2.2461 4.4414-1.11718v2.64453l-1.30468.71875 1.30469.71875.64062-.71875-.64062-.71875v-2.64453l2.74219-1.07422 1.6953-1.8086 4.4375.11329 4.4375-1.86328v3.30469l-.3828.2539.3828.21875 1.00391-.21875-1.0039-.2539v-3.3047l4.4414.51173 4.4375 1.10547v3.24218l-2.6875 3.13672 2.6875 2.39063 4.23829-2.39063-4.23829-3.13672v-3.24218l1.94922 1.9414 2.48828 1.08203 4.4375.76563 2.44141 2.58984-2.4414 2.61328-4.4375.71485-4.4375.35547-4.13673-3.6836-.30078-.98047-4.4414-.34375-4.4375-1.45312-4.4375-.35938-1.4336 3.13672-3.0039 3.36328-4.4414-1.40625"/><path fill="#00e8fc" fill-rule="evenodd" d="M259.39844 436.66406l-1.30469-.71875 1.30469-.71875.64062.71875-.64062.71875"/><path fill="#50fcfc" fill-rule="evenodd" d="M261.6836 453.69922l-.44532-4.4375 2.59766-1.89844 3.25-2.54297 1.1875-.4961 4.4375-.85937 4.4414 1.17188 4.4375-.92578 1.65625 1.10937-1.02343 4.4414-.63282.88282-3.70703 3.55469-.73047 1.03125-4.4414 1.1836-4.4375.08593-4.4375-.27344-2.15235-2.02734"/><path fill="#00e8fc" fill-rule="evenodd" d="M272.71094 431.72656l-.38281-.21875.3828-.2539 1.00391.2539-1.0039.21875m8.8789 6.60938l-2.6875-2.39063 2.6875-3.13672v2.82422l-.26953.3125.26953.23828.42188-.23828-.42188-.3125v-2.82422l4.23829 3.13672-4.23829 2.39063"/><path fill="#00d4fc" fill-rule="evenodd" d="M281.58984 436.1836l-.26953-.23829.26953-.3125.42188.3125-.42188.23828"/><path fill="#50fcfc" fill-rule="evenodd" d="M348.16406 436.3789l-.42187-.43359.42187-.44922.41797.44922 4.01953 1.33594v2.0625l-1.05078 1.03906 1.05078 1.04297 1.19531-1.04297-1.1953-1.03906v-2.0625l3.5664 3.10156-3.5664 3.11719-3.14454-3.11719-1.29297-4.0039"/><path fill="#00e8fc" fill-rule="evenodd" d="M352.60156 441.42578l-1.05078-1.04297 1.05078-1.03906 1.19531 1.03906-1.1953 1.04297"/><path fill="#50fcfc" fill-rule="evenodd" d="M361.48047 462.9414l-.40625-.36718.40625-1.20313 1.09375-3.23437 3.34375-3.98047.26562-.45703 2.71875-4.4375 1.45313-1.72656 2.22265-2.71485 2.21485-2.1211v14.3086l-1.32031 1.1289 1.3203 1.75392.84376-1.75391-.84375-1.1289v-14.3086l2.63672 2.1211 1.3125 4.4414.49219.95703 4.4375-.45313 3.66015 3.9336.77735 1.14062v3.65625l-4.4375 1.5586-2.85547 2.51953 2.85546 1.96094v2.3828l-1.71093.09767 1.71094.91015.22656-.91015-.22656-.09766v-2.38281l4.4375 2.26953 4.21484-4.23047-4.21485-4.07813v-3.65625l4.4375-.11328 3.23438 3.41016.125 4.4375-3.35938 2.85547-1.5625 1.58594-2.875 3.65234-2.2539.78515-2.1836 1.60938-4.4375-1.09375-.41406-.51563-.1211-4.4375-3.90624-3.02734-4.4375-.41015-4.4375.33593-4.4375-.97265"/><path fill="#fff" fill-opacity="0" fill-rule="evenodd" d="M374.79297 457.00781l-1.32031 1.1289 1.3203 1.75392.84376-1.75391-.84375-1.1289"/><path fill="#00e8fc" fill-rule="evenodd" d="M383.67188 464.53516l-2.85547-1.96094 2.85546-2.51953 4.4375-1.5586v1.40235l-3.5039 2.67578 3.5039 2.77344 2.76563-2.77344-2.76563-2.67578v-1.40235l4.21485 4.07813-4.21485 4.23047-4.4375-2.26953"/><path fill="#fff" fill-opacity="0" fill-rule="evenodd" d="M383.67188 466.91797l-1.71094.09765 1.71094.91016.22656-.91015-.22656-.09766"/><path fill="#00d4fc" fill-rule="evenodd" d="M388.10938 465.34766l-3.50391-2.77344 3.5039-2.67578v1.40625l-1.66406 1.26953 1.66406 1.3164 1.3125-1.3164-1.3125-1.26953v-1.40625l2.76563 2.67578-2.76563 2.77344"/><path fill="#00c4fc" fill-rule="evenodd" d="M388.10938 463.89063l-1.66407-1.31641 1.66406-1.26953 1.3125 1.26953-1.3125 1.3164"/><path fill="#50fcfc" fill-rule="evenodd" d="M467.9961 476.64453l-.5586-.7539.5586-.60157v1.35547m0-1.35547v1.35547l.0039.0039v-1.36327l-.0039.0039"/><g clip-path="url(#c)"><path fill="#fff" fill-opacity="0" fill-rule="evenodd" d="M467.9961 311.67188H468v163.61328-163.61329h-.0039"/></g><path fill="#fff" fill-opacity="0" fill-rule="evenodd" d="M197.96875 439.65234l2.67188 5.19532 8.85937-4.5547-2.67188-5.1953-8.85937 4.55468"/><path fill-rule="evenodd" d="M206.79688 439.04688l.23437.45312-5.59766 2.8789-.35937-.69921 3.99219-2.05469-.63672-1.23438.4961-.2539.3125.46875.16405.19922.1836.16406.21875.11719.26562.0586.32813-.01173.39844-.08594"/><path fill="#fff" fill-opacity="0" fill-rule="evenodd" d="M187.08594 463.6914l5.42187-2.17187-3.70312-9.2461-5.42188 2.17188 3.70313 9.2461"/><path fill-rule="evenodd" d="M187.3125 454.84375l.47266-.1875L190.125 460.5l-.73047.29297-1.66797-4.16797-1.28906.51563-.20703-.51563.4961-.26953.21484-.14453.17968-.16797.13672-.20703.08203-.25781.02344-.32813-.05078-.40625"/><g clip-path="url(#d)"><path fill="none" stroke="#000" stroke-linecap="round" stroke-linejoin="round" stroke-miterlimit="10" stroke-width=".5" d="M147.51172 480.29688l-7.02344.0625"/></g><g clip-path="url(#e)"><path fill="none" stroke="#000" stroke-linecap="round" stroke-linejoin="round" stroke-miterlimit="10" stroke-width=".5" d="M146.49219 480.3086l.58594 1.07812"/></g><g clip-path="url(#f)"><path fill="none" stroke="#000" stroke-linecap="round" stroke-linejoin="round" stroke-miterlimit="10" stroke-width=".5" d="M160.77734 480.92578l-6.92578-1.1914"/></g><g clip-path="url(#g)"><path fill="none" stroke="#000" stroke-linecap="round" stroke-linejoin="round" stroke-miterlimit="10" stroke-width=".5" d="M159.76953 480.75l.38281 1.16797"/></g><g clip-path="url(#h)"><path fill="none" stroke="#000" stroke-linecap="round" stroke-linejoin="round" stroke-miterlimit="10" stroke-width=".5" d="M174.05469 481.11328l-6.84766-1.57031"/></g><g clip-path="url(#i)"><path fill="none" stroke="#000" stroke-linecap="round" stroke-linejoin="round" stroke-miterlimit="10" stroke-width=".5" d="M173.0586 480.88281l.3203 1.1875"/></g><g clip-path="url(#j)"><path fill="none" stroke="#000" stroke-linecap="round" stroke-linejoin="round" stroke-miterlimit="10" stroke-width=".5" d="M187.35547 481.17969l-6.82031-1.69922"/></g><g clip-path="url(#k)"><path fill="none" stroke="#000" stroke-linecap="round" stroke-linejoin="round" stroke-miterlimit="10" stroke-width=".5" d="M186.36328 480.92969l.29688 1.1914"/></g><g clip-path="url(#l)"><path fill="none" stroke="#000" stroke-linecap="round" stroke-linejoin="round" stroke-miterlimit="10" stroke-width=".5" d="M200.6875 481.10938l-6.85156-1.5625"/></g><g clip-path="url(#m)"><path fill="none" stroke="#000" stroke-linecap="round" stroke-linejoin="round" stroke-miterlimit="10" stroke-width=".5" d="M199.6875 480.88281l.32031 1.1836"/></g><g clip-path="url(#n)"><path fill="none" stroke="#000" stroke-linecap="round" stroke-linejoin="round" stroke-miterlimit="10" stroke-width=".5" d="M214.03516 480.92969l-6.92188-1.20313"/></g><g clip-path="url(#o)"><path fill="none" stroke="#000" stroke-linecap="round" stroke-linejoin="round" stroke-miterlimit="10" stroke-width=".5" d="M214.03516 480.92969l.76562 2.33203"/></g><g clip-path="url(#p)"><path fill="none" stroke="#000" stroke-linecap="round" stroke-linejoin="round" stroke-miterlimit="10" stroke-width=".5" d="M227.40234 480.38672l-7.02343-.11719"/></g><g clip-path="url(#q)"><path fill="none" stroke="#000" stroke-linecap="round" stroke-linejoin="round" stroke-miterlimit="10" stroke-width=".5" d="M226.38281 480.3711l.55469 1.09374"/></g><g clip-path="url(#r)"><path fill="none" stroke="#000" stroke-linecap="round" stroke-linejoin="round" stroke-miterlimit="10" stroke-width=".5" d="M240.67578 479.78516l-6.9414 1.08593"/></g><g clip-path="url(#s)"><path fill="none" stroke="#000" stroke-linecap="round" stroke-linejoin="round" stroke-miterlimit="10" stroke-width=".5" d="M239.66797 479.94531l.73437.98047"/></g><g clip-path="url(#t)"><path fill="none" stroke="#000" stroke-linecap="round" stroke-linejoin="round" stroke-miterlimit="10" stroke-width=".5" d="M253.8789 479.29297l-6.71484 2.07031"/></g><g clip-path="url(#u)"><path fill="none" stroke="#000" stroke-linecap="round" stroke-linejoin="round" stroke-miterlimit="10" stroke-width=".5" d="M252.90234 479.59375l.8672.86719"/></g><g clip-path="url(#v)"><path fill="none" stroke="#000" stroke-linecap="round" stroke-linejoin="round" stroke-miterlimit="10" stroke-width=".5" d="M266.9375 478.6836l-6.20703 3.29296"/></g><g clip-path="url(#w)"><path fill="none" stroke="#000" stroke-linecap="round" stroke-linejoin="round" stroke-miterlimit="10" stroke-width=".5" d="M266.03516 479.16016l1.01953.6875"/></g><g clip-path="url(#x)"><path fill="none" stroke="#000" stroke-linecap="round" stroke-linejoin="round" stroke-miterlimit="10" stroke-width=".5" d="M280.3789 478.94531l-6.45702 2.76953"/></g><g clip-path="url(#y)"><path fill="none" stroke="#000" stroke-linecap="round" stroke-linejoin="round" stroke-miterlimit="10" stroke-width=".5" d="M279.4414 479.34766l.95313.76562"/></g><g clip-path="url(#z)"><path fill="none" stroke="#000" stroke-linecap="round" stroke-linejoin="round" stroke-miterlimit="10" stroke-width=".5" d="M293.97266 480.1211l-7.01563.41796"/></g><g clip-path="url(#A)"><path fill="none" stroke="#000" stroke-linecap="round" stroke-linejoin="round" stroke-miterlimit="10" stroke-width=".5" d="M292.95313 480.17969l.64062 1.04687"/></g><g clip-path="url(#B)"><path fill="none" stroke="#000" stroke-linecap="round" stroke-linejoin="round" stroke-miterlimit="10" stroke-width=".5" d="M307.26563 479.8789l-6.96875.90235"/></g><g clip-path="url(#C)"><path fill="none" stroke="#000" stroke-linecap="round" stroke-linejoin="round" stroke-miterlimit="10" stroke-width=".5" d="M306.25 480.00781l.71094 1"/></g><g clip-path="url(#D)"><path fill="none" stroke="#000" stroke-linecap="round" stroke-linejoin="round" stroke-miterlimit="10" stroke-width=".5" d="M320.57031 479.79688l-6.94922 1.0625"/></g><g clip-path="url(#E)"><path fill="none" stroke="#000" stroke-linecap="round" stroke-linejoin="round" stroke-miterlimit="10" stroke-width=".5" d="M319.5586 479.95313l.73437.98046"/></g><g clip-path="url(#F)"><path fill="none" stroke="#000" stroke-linecap="round" stroke-linejoin="round" stroke-miterlimit="10" stroke-width=".5" d="M333.58984 478.83203l-6.35937 2.99219"/></g><g clip-path="url(#G)"><path fill="none" stroke="#000" stroke-linecap="round" stroke-linejoin="round" stroke-miterlimit="10" stroke-width=".5" d="M332.66406 479.26953l.98438.73438"/></g><g clip-path="url(#H)"><path fill="none" stroke="#000" stroke-linecap="round" stroke-linejoin="round" stroke-miterlimit="10" stroke-width=".5" d="M344.75 480.32813l-.01953-.19922-.0586-.19141-.09765-.17578-.45703-.3789-.1914-.0586-.19923-.01953-.19922.01953-.1914.0586-.46094.3789-.09375.17578-.0586.1914-.01952.19923.01953.19921.05859.19141.09375.17969.46094.375.1914.0586.19922.01952.19922-.01953.1914-.0586.45704-.375.09765-.17968.0586-.1914.01953-.19922"/></g><g clip-path="url(#I)"><path fill="none" stroke="#000" stroke-linecap="round" stroke-linejoin="round" stroke-miterlimit="10" stroke-width=".5" d="M353.53516 480.5664l7.01171-.47265"/></g><g clip-path="url(#J)"><path fill="none" stroke="#000" stroke-linecap="round" stroke-linejoin="round" stroke-miterlimit="10" stroke-width=".5" d="M366.86719 479.91016l6.97656.83593"/></g><g clip-path="url(#K)"><path fill="none" stroke="#000" stroke-linecap="round" stroke-linejoin="round" stroke-miterlimit="10" stroke-width=".5" d="M367.88281 480.03125l-.4414-1.14453"/></g><g clip-path="url(#L)"><path fill="none" stroke="#000" stroke-linecap="round" stroke-linejoin="round" stroke-miterlimit="10" stroke-width=".5" d="M380.20313 479.75781l6.93359 1.14063"/></g><g clip-path="url(#M)"><path fill="none" stroke="#000" stroke-linecap="round" stroke-linejoin="round" stroke-miterlimit="10" stroke-width=".5" d="M381.21484 479.92578l-.39453-1.16406"/></g><g clip-path="url(#N)"><path fill="none" stroke="#000" stroke-linecap="round" stroke-linejoin="round" stroke-miterlimit="10" stroke-width=".5" d="M393.75781 478.9414l6.45703 2.77344"/></g><path fill="none" stroke="#000" stroke-linecap="round" stroke-linejoin="round" stroke-miterlimit="10" stroke-width=".5" d="M394.69531 479.34766l-.10156-1.22266"/><g clip-path="url(#O)"><path fill="none" stroke="#000" stroke-linecap="round" stroke-linejoin="round" stroke-miterlimit="10" stroke-width=".5" d="M406.89063 479.48828l6.8203 1.6836"/></g><path fill="none" stroke="#000" stroke-linecap="round" stroke-linejoin="round" stroke-miterlimit="10" stroke-width=".5" d="M406.89063 479.48828l-.60157-2.3789"/><g clip-path="url(#P)"><path fill="none" stroke="#000" stroke-linecap="round" stroke-linejoin="round" stroke-miterlimit="10" stroke-width=".5" d="M420.14453 479.78516l6.9414 1.08593"/></g><g clip-path="url(#Q)"><path fill="none" stroke="#000" stroke-linecap="round" stroke-linejoin="round" stroke-miterlimit="10" stroke-width=".5" d="M421.15625 479.94531l-.40234-1.16015"/></g><g clip-path="url(#R)"><path fill="none" stroke="#000" stroke-linecap="round" stroke-linejoin="round" stroke-miterlimit="10" stroke-width=".5" d="M434.34766 477.94922l5.16796 4.76172"/></g><path fill="none" stroke="#000" stroke-linecap="round" stroke-linejoin="round" stroke-miterlimit="10" stroke-width=".5" d="M435.09766 478.64063l.3125-1.1875"/><g clip-path="url(#S)"><path fill="none" stroke="#000" stroke-linecap="round" stroke-linejoin="round" stroke-miterlimit="10" stroke-width=".5" d="M447.35938 478.32422l5.77343 4.00781"/></g><path fill="none" stroke="#000" stroke-linecap="round" stroke-linejoin="round" stroke-miterlimit="10" stroke-width=".5" d="M447.35938 478.32422l.29296-2.4375"/><g clip-path="url(#T)"><path fill="none" stroke="#000" stroke-linecap="round" stroke-linejoin="round" stroke-miterlimit="10" stroke-width=".5" d="M460.89453 478.03906l5.33203 4.57813"/></g><path fill="none" stroke="#000" stroke-linecap="round" stroke-linejoin="round" stroke-miterlimit="10" stroke-width=".5" d="M461.67188 478.70703l.26562-1.19922"/><g clip-path="url(#U)"><path fill="none" stroke="#000" stroke-linecap="round" stroke-linejoin="round" stroke-miterlimit="10" stroke-width=".5" d="M147.48828 466.60547l-6.97656.8164"/></g><path fill="none" stroke="#000" stroke-linecap="round" stroke-linejoin="round" stroke-miterlimit="10" stroke-width=".5" d="M146.47266 466.72266l.69922 1.0078m13.52343-1.67187l-6.76172 1.91016m5.77735-1.63281l.85156.88672m13.33984-1.48828l-6.54297 2.55859m5.58985-2.1875l.9336.80078m13.16405-1.54688l-6.20312 3.3086m6.20313-3.3086l2.03515 1.3711m11.63281-.35938l-6.91015 1.28516m5.90625-1.09766l.76172.95703m13.54687-1.1914l-6.89062 1.3789m5.89062-1.17968l.77734.94922m13.41797-1.59375l-6.64843 2.26953m5.68359-1.9375l.89453.83984M240.5 465.78906l-6.58594 2.44922m6.58594-2.44922l1.83203 1.6289m11.36328-1.91015l-6.34765 3.01172m6.34765-3.01172l1.96875 1.46485m11.1289-1.85938l-5.91405 3.80078m5.91406-3.80078l2.14062 1.20313m11.26563-1.05078l-6.09766 3.49609m6.09766-3.4961l2.07812 1.3086m11.33203-1.125l-6.28906 3.1289m5.375-2.67578l1 .71485m13.125-1.36719l-6.07812 3.52734m6.07812-3.52734l2.08203 1.29297m10.96094-1.69531l-5.53515 4.33203m5.53515-4.33203l2.24219 1m10.5625-1.52735l-4.51172 5.38672m3.85547-4.60547l1.19922.2539m12.77734-1.03124l-4.52344 5.3789m3.86329-4.59765l1.19921.25781m12.17579-1.44531l-3.32422 6.1914m2.83984-5.28906l1.22656.0039M370.33594 463.5l.03906 7.02734m-.03125-6.0039l1.07813-.58203m9.85156 5.64062l4.79687-5.13672m-4.09765 4.39063l-1.1875-.32032m13.72265-3.99218l4.95703 4.98047m-4.23437-4.25782l.36328-1.17187m12.48828.21484l4.4375 5.44922m-3.78906-4.65625l.47656-1.13281m14.625-.4414l-.42969 7.01171m.3672-5.99219l1.11718-.5078m11.625-.4961l.83984 6.98047m-.71875-5.96485l1.00781-.69922m11.13282-.01562l2.94531 6.3789m-2.94531-6.3789l1.48437-1.95313m11.65625 2.03907l3.29688 6.20703m-2.82031-5.30469l.6875-1.01563"/><g clip-path="url(#V)"><path fill="none" stroke="#000" stroke-linecap="round" stroke-linejoin="round" stroke-miterlimit="10" stroke-width=".5" d="M147.51172 453.58984l-7.02344.21875"/></g><path fill="none" stroke="#000" stroke-linecap="round" stroke-linejoin="round" stroke-miterlimit="10" stroke-width=".5" d="M146.48828 453.6211l.60938 1.0625m13.65234-1.71876l-6.8711 1.46485m5.8711-1.25l.78906.9375m12.17969-3.24219l-4.17969 5.64844m3.57422-4.82813l1.21094.1836m10.42187-1.6875l.39844 7.01562m15.8125-5.76172l-5.39453 4.50781m19.0586-4.0039l-6.09376 3.5m5.20703-2.99219l1.03907.65625m13.07422-1.3164l-5.91407 3.80078m5.05078-3.2461l1.07032.60157m13.09375-1.17188l-5.88672 3.83594m5.03125-3.27735l1.07422.58985m12.58984-1.76563l-4.8711 5.0664m4.16016-4.32812l1.1797.33594m13.33202-.48828l-5.84375 3.89844m4.9961-3.33203l1.07812.58203m12.45703-1.86328l-4.58984 5.32422m3.92187-4.54688l1.19532.26953m13.30468-.48828l-5.625 4.21094m5.625-4.21094l2.22266 1.04297m11.27344-.78125l-5.98438 3.6875m5.98438-3.6875l2.11719 1.24219m11.21484-1.21094l-6.01953 3.625m6.01953-3.625l2.10547 1.26172m10.92187-1.66797l-5.44531 4.4375m5.44531-4.4375l2.26172.94922m10.69922-1.32813l-4.73437 5.1914m4.73437-5.1914l2.375.60938m11.02344-.53125l-4.90235 5.03906m4.1875-4.30469l1.1797.33985m10.98437-2.01953l-1.17188 6.92968m1.0039-5.92187l1.16407-.38672m13.49219-.19922l-3.51563 6.08594m3.0039-5.19922l1.22657.04297m12.52344-.97266l-3.36328 6.17188m2.875-5.27344l1.22656.01172m13.86719.30078l-5.94531 3.75m5.08203-3.20313l1.0625.60938m12.80468-1.57422l-5.32421 4.58594m4.55078-3.91797l1.14453.44531m9.26172-2.1836l2.04297 6.72266m-1.7461-5.74218l.86719-.8672m14.67187.07032L448.75 456.875m2.5586-5.42969l1.22656-.0586m11.66406-1.14452l-1.27734 6.91015m1.09375-5.90234l1.16796-.3711"/><g clip-path="url(#W)"><path fill="none" stroke="#000" stroke-linecap="round" stroke-linejoin="round" stroke-miterlimit="10" stroke-width=".5" d="M147.41797 439.57813l-6.83594 1.61328"/></g><path fill="none" stroke="#000" stroke-linecap="round" stroke-linejoin="round" stroke-miterlimit="10" stroke-width=".5" d="M146.42578 439.8125l.8086.92188m13.58203-.65235l-7 .60547m7-.60547l1.33203 2.0586m11.96094-2.2422l-6.96094.96876m5.94922-.82813l.71875.99219m13.48047.41016l-6.70313-2.11328m5.72656 1.80468l.22266 1.20703m14.0664-.89453l-6.69921-2.125m5.72265 1.8164l.22266 1.20704m13.66406-.04297l-5.89062-3.83203m5.03515 3.27344l-.10937 1.22265m13.5625-5.30078l-4.45313 5.4375m17.02735-5.90234l-2.96875 6.36719m2.53515-5.44141l1.22656-.0625m9.41016-.79297l3.2539 6.23047m-2.78124-5.32422l.69531-1.01172m16.66797 1.22657l-5.78906 3.98437m4.9453-3.40234l1.08985.5625m13.22656-.89063l-6.10546 3.48047m5.21875-2.97656l1.03515.65625m12.03516-2.36328l-3.84375 5.8828m3.84375-5.8828l2.44531.21875m11.77344.6328l-5.64844 4.1836m5.64844-4.1836l2.21484 1.0547M320.0625 438.5l-5.9336 3.76563m5.9336-3.76563l2.13281 1.21484m10.82813-1.67968l-5.22657 4.6953m4.46875-4.01171l1.15235.42188m12.67187-1.35547l-4.72656 5.1953m4.72656-5.1953l2.37891.60547m8.72656-1.51563l-.3086 7.01953m.26563-6l1.10547-.52734m11.95703-.4961l.28516 7.02344m-.28516-7.02344l2.1172-1.23828m10.17968 8.0664l2.3164-6.6328m15.50391 2.24609l-6.6914 2.14063m5.71874-1.82813l.87891.85547m13.35547-1.32422l-6.58203 2.45703m5.625-2.10156l.91797.8125m13.57031-.10938l-7.01953.33985m6-.29297l.6289 1.05469m12.90235-3.17188l-5.41016 4.48047m5.41016-4.48047l2.26953.9336m10.5664-1.41407l-4.45312 5.4375m4.45313-5.4375l2.40625.48047m10.95703-.4414l-4.54688 5.35937"/><g clip-path="url(#X)"><path fill="none" stroke="#000" stroke-linecap="round" stroke-linejoin="round" stroke-miterlimit="10" stroke-width=".5" d="M465.83594 437.70313l2.39453.52343"/></g><g clip-path="url(#Y)"><path fill="none" stroke="#000" stroke-linecap="round" stroke-linejoin="round" stroke-miterlimit="10" stroke-width=".5" d="M146.51563 424.61719l-5.03125 4.90234"/></g><path fill="none" stroke="#000" stroke-linecap="round" stroke-linejoin="round" stroke-miterlimit="10" stroke-width=".5" d="M146.51563 424.61719l2.33593.7461m11.19922-.5l-5.46875 4.41015m4.67188-3.76953l1.1289.48047m13.76172 1.11328l-7.02734-.0586m6.0039.05078l.56641 1.08594m13.53906.14844l-6.5625-2.51172m6.5625 2.51172l.30078 2.4375m12.8672-2.10156l-6.26563-3.1836m5.35156 2.71875l.02344 1.22657m14.25-.85938l-6.35938-2.98828m5.4336 2.55469l.0625 1.22656m12.1953-5.58984l-2.39062 6.60546m17.9961-2.875l-6.97266-.85546m20.00781 1.86328l-6.41406-2.8711m20.02734 1.66407l-7.01172-.45704m20.20313-.72656l-6.76172 1.91406m5.77735-1.63671l.85156.88671m12.09765-3.07421l-4.0625 5.73046m18.85938-2.80078l-7.02344-.1289m17.16797-3.4336l-.67969 6.9961m.57813-5.97657l1.13672-.46875m14.62109.6797l-5.36719 4.53515m5.36719-4.53516l2.27734.91016m11.1211-.8086l-5.53516 4.33204m4.73047-3.69922l1.1211.49609m13.46093-.34766l-6.45703 2.76954m5.51953-2.3672l.95313.76954m11.52343-2.98828l-2.90625 6.40234m2.48438-5.46875l1.22265-.07812m12.48438-.8672l-2.84375 6.42579m2.84375-6.42578l2.44922-.17578m12.9414 3.04297l-6.99609.6914m6.9961-.6914l1.35546 2.04297m11.95703-2.04297l-6.99218.6914m5.97656-.58984l.67969 1.02344m12.9414-2.91797l-5.57422 4.27734m4.76563-3.65625l1.11719.50781m12.77343-1.40234l-5.10546 4.82422m5.10546-4.82422l2.32813.78516m10.08984-1.47266l-3.3125 6.19922m3.3125-6.19922l2.45313.0039m11.1836.19141l-3.95704 5.8086"/><g clip-path="url(#Z)"><path fill="none" stroke="#000" stroke-linecap="round" stroke-linejoin="round" stroke-miterlimit="10" stroke-width=".5" d="M465.53906 424.16406l2.4414.26953"/></g><g clip-path="url(#aa)"><path fill="none" stroke="#000" stroke-linecap="round" stroke-linejoin="round" stroke-miterlimit="10" stroke-width=".5" d="M146.52344 411.3125l-5.04688 4.88281"/></g><path fill="none" stroke="#000" stroke-linecap="round" stroke-linejoin="round" stroke-miterlimit="10" stroke-width=".5" d="M146.52344 411.3125l2.33594.7539m-3.07032-.04687l1.16797.3789m12.98828-.97655l-5.25781 4.66406m5.25781-4.66406l2.29688.85937m10.84765-1.03516l-4.91797 5.01563m4.20313-4.28906l1.17578.34765m9.91016 4.91407l.96875-6.96094m16.02344 4.9414l-6.38672-2.92578m5.45703 2.5l.07422 1.22657m9.55859.95312l2.83984-6.42969m-2.42578 5.49219l-1.22656.08984m15.73438 1.14063l-.375-7.01563m12.3203 6.81641l2.36329-6.61719m15.26953 4.89453l-6.26953-3.17578m19.91797 2.15235l-6.9375-1.12891m19.66015-1.44922l-5.7539 4.03125m18.51562-4.65234l-4.64844 5.26953m3.97266-4.5l1.19531.28516m12.57422-1.23438l-4.20312 5.63281m18.48047-4.53515l-6.12891 3.4375m19.89062-1.85157l-7.02343.26563m20.33984-.03906l-7.02344-.1875m20.29688-.45313l-6.9414 1.09375m5.93359-.9336l.73437.98048m13.61719-.92188l-6.9961.65625m5.97657-.5625l.67578 1.02735m12.91797-2.96875l-5.51953 4.35156m4.71875-3.71875l1.12109.4961m12.08594-1.94141l-3.69922 5.97656m3.69922-5.97656l2.44531.16015m11.55469.39063l-5.0664 4.87109m5.0664-4.8711l2.32812.76563m11.41406-.21875l-5.92187 3.78125m5.0586-3.23047l1.0703.60157m12.91797-1.41797l-5.54296 4.3125m5.54296-4.3125l2.2422 1m10.18359-1.8125l-3.76563 5.93359m3.76563-5.9336l2.4453.1875m10.59376-.34374l-3.21094 6.25m3.21094-6.25l2.45312-.03516"/><g clip-path="url(#ab)"><path fill="none" stroke="#000" stroke-linecap="round" stroke-linejoin="round" stroke-miterlimit="10" stroke-width=".5" d="M146.79297 398.30469l-5.58594 4.26562"/></g><path fill="none" stroke="#000" stroke-linecap="round" stroke-linejoin="round" stroke-miterlimit="10" stroke-width=".5" d="M146.79297 398.30469l2.23047 1.02344m-3.04297-.40235l2.23047 1.02344m12.08203-1.3789l-5.95313 3.73437m5.95313-3.73438l2.125 1.22656m-2.99219-.68359l1.0625.61328m13.17969-1.05078l-6.07813 3.52735m6.07813-3.52735l2.08594 1.29297m-2.96875-.78125l1.04297.64844m13.48828-.38281l-6.7422 1.97265m6.7422-1.97265l1.71484 1.7539m9.48047 2.51563l-2.5039-6.56641m2.14062 5.60938l-.8086.92578m11.45703-.22266l3.5547-6.0625m-3.03516 5.17969l-1.22657-.05078m16.82422-2.09766l-.01953-.19922-.0586-.1914-.09374-.17579-.46094-.3789-.1914-.05469-.19923-.02344-.19921.02344-.19141.05469-.46094.3789-.09375.17579-.0586.1914-.01952.19922.01953.19922.0586.1914.09374.1797.46094.375.1914.05859.19923.01953.19921-.01953.19141-.0586.46094-.375.09375-.17969.0586-.1914.01952-.19922m15.77344-.46875l-6.96484.9375m19.36328 1.9336l-5.1289-4.8047m18.63671 4.57813l-5.51563-4.35156m19.57422 2.48437l-7-.61328m20.08594-.97656l-6.54297 2.5664m5.58985-2.1953l.92968.80077m13.21875-1.4453l-6.30468 3.10937m5.38671-2.65625l.9961.71484m13.58203.05078l-6.9961.67188m5.97657-.57422l.67969 1.02344m13.64843-1.1875l-6.98047.80859m5.96485-.6914l.69531 1.0078m13.02734 1.28516l-5.76953-4.01172m4.9297 3.42579l-.14454 1.21875m13.5.1875l-4.16797-5.65625m3.5625 4.83203l-.53125 1.10937m15.44531-1.41797l-6.15625-3.38672m5.26172 2.89454l-.01562 1.22656m14.59765-3.10156l-6.89843 1.34375m5.89453-1.14844l.77343.95312m13.41407-1.625l-6.63672 2.30078m5.67187-1.96875l.89844.83594m13.41406-1.07422l-6.70312 2.10938m5.72656-1.80078l.875.85937m12.8086-2.3086l-5.48829 4.39063m5.48828-4.39062l2.25391.97265m10.77344-1.28906l-4.91016 5.02735m4.19531-4.29688l1.1797.34375m12.7539-1.16797l-4.71485 5.21094m4.71485-5.21094l2.3789.60156m11.04688-.49218l-4.9414 4.99609"/><g clip-path="url(#ac)"><path fill="none" stroke="#000" stroke-linecap="round" stroke-linejoin="round" stroke-miterlimit="10" stroke-width=".5" d="M466.03125 397.9414l2.35156.70313"/></g><g clip-path="url(#ad)"><path fill="none" stroke="#000" stroke-linecap="round" stroke-linejoin="round" stroke-miterlimit="10" stroke-width=".5" d="M146.55078 384.70703l-5.10156 4.83203"/></g><path fill="none" stroke="#000" stroke-linecap="round" stroke-linejoin="round" stroke-miterlimit="10" stroke-width=".5" d="M146.55078 384.70703l2.32422.78125m-3.0664-.07812l1.16406.39062m12.80468-1.1836l-4.92578 5.01173m4.92578-5.01172l2.35157.69531m-3.07032.03516l1.1797.34765m13.07421-.83984l-5.36328 4.53515m5.36328-4.53515l2.27734.91015m11.60938.03516l-6.50781 2.64453m6.5078-2.64453l1.88282 1.57031m11.36719 1.22657l-6.3789-2.94922m5.45312 2.51953l.0664 1.22656m14.28125-1.0586l-6.59375-2.42577m6.59375 2.42578l.33203 2.4336m12.98829-2.44532l-6.60157-2.40235m5.64063 2.0547l.17187 1.21484m14.26563-1.46875l-6.92578-1.19922m5.91797 1.02344l.3828 1.16796m13.97657-1.28125l-7-.62109m5.98438.53125l.47656 1.1289m13.67187-.1953l-6.63672-2.3086m5.67188 1.97266l.1875 1.21093m13.6875-.0625l-5.82422-3.93359m4.97656 3.36328l-.1289 1.21875m14.83594-1.97265l-6.91016-1.28125m5.90234 1.09375l.3711 1.16796m13.91015-2.45703l-6.82812 1.66797m5.83203-1.42578l.8164.91797m13.48047-1.20703l-6.80078 1.76172m5.8125-1.50391l.82813.90234m13.53125-.91406l-6.91406 1.26953m5.90625-1.08203l.76562.96094m13.42969.61328l-6.65625-2.2539m5.6875 1.92577l.19531 1.21094m12.77344.8711l-4.02735-5.76172m3.44141 4.92187l-.5586 1.09375m15.92579-2.63672l-6.95703-.99609m5.9453.85156l.41407 1.15235m13.51953-3.1875l-6.17187 3.36328m5.27344-2.875l1.02343.67578m13.01172-1.45313l-5.8164 3.94141m4.96875-3.36719l1.08593.57031m12.72657-1.58203l-5.11329 4.82032m4.3672-4.1211l1.16405.39453m12.06641-1.74218l-3.45703 6.11718m2.95703-5.23046l1.22656.03125m12.63672-.89454l-3.55078 6.06641m3.03516-5.1836l1.22265.05079m12.71485-.86719l-3.76563 5.9336m3.21875-5.07032l1.22266.09375m13.10547-.60547l-4.69532 5.23047m4.01172-4.46875l1.1914.29297"/><g clip-path="url(#ae)"><path fill="none" stroke="#000" stroke-linecap="round" stroke-linejoin="round" stroke-miterlimit="10" stroke-width=".5" d="M144.82813 370.39453l-1.65625 6.82813"/></g><path fill="none" stroke="#000" stroke-linecap="round" stroke-linejoin="round" stroke-miterlimit="10" stroke-width=".5" d="M144.82813 370.39453l2.375-.60937m11.08984.64843l-1.95703 6.75m1.95703-6.75l2.40234-.5039m11.72266.85547l-3.57422 6.04687m3.57422-6.04687l2.44922.10937m11.38672.26563l-4.6172 5.29687m3.94532-4.52734l1.19531.28125m13.78907.40625L193.95313 375m5.65234-2.03516l.90625.82422m13.48437.8164l-6.84375-1.59374M213 374.37109l.3164 1.1875m14.08594-1.75H220.375m6.00781 0l.57422 1.08204m13.72656-.58594l-6.95703-.99219m5.94531.84766l.41797 1.15234m13.65625-.11328l-6.45312-2.78125m5.51562 2.3789l.09766 1.22266m13.90234-.33984l-5.9453-3.74219m5.08202 3.19922l-.08984 1.22265m13.82422-.11328l-5.0586-4.875m19.35547 2.34375l-7.02344.1875m20.25-.89453l-6.84375 1.60156m20.2461-.59765l-7.01563-.40625m5.9922.34765l.51171 1.11329m13.5.23046l-6.36328-2.98046m19.88281 2.42187l-6.77344-1.85937m19.88282 2.41796l-6.36329-2.97656m5.4375 2.54297l.0625 1.22656m14.39063-1.3789l-6.78906-1.8086m5.80078 1.54688l.28125 1.19531m13.83984-3.25781l-6.42578 2.84375m5.49219-2.42969l.96484.75781m12.7461-2.03125l-5.34766 4.5625m4.57031-3.89843l1.14063.44921m12.42578-1.61328l-4.29688 5.5625m3.67188-4.7539l1.21094.20703m12.79296-.96485l-4.42187 5.46094m3.77734-4.66797l1.20313.23438m11.97265-1.50781l-2.85546 6.42187m2.4375-5.48828l1.22656-.08594m12.375-.90234l-2.59375 6.53125m2.21484-5.58203l1.21875-.13672m12.19531-.91016l-2.03125 6.72656m1.73438-5.75l1.20312-.23828"/><g clip-path="url(#af)"><path fill="none" stroke="#000" stroke-linecap="round" stroke-linejoin="round" stroke-miterlimit="10" stroke-width=".5" d="M141.92578 357.65625l4.14844 5.67188"/></g><path fill="none" stroke="#000" stroke-linecap="round" stroke-linejoin="round" stroke-miterlimit="10" stroke-width=".5" d="M154.91016 357.9336l4.8125 5.12109m-4.8125-5.1211l.78906-2.32421m12.82812 2.0664l4.20313 5.63281m8.73047-5.30078l4.96875 4.96875m-4.2461-4.2461l.35938-1.17187m18.00781 1.70313l-6.58203 2.46484m20.01563-.38672l-6.82032-1.6914m19.73828 2.65625l-6.02343-3.6211m19.79297 2.38672l-6.9336-1.15234m20.21094 1.34375l-6.85547-1.53516m5.85938 1.3125l.32421 1.1836m13.71875-.19532l-6.3203-3.0703m18.78515 4.18358l-4.6211-5.29687m16.29688-.80078l-1.34375 6.89844m17.26953-4.70704L300.5 361.75m20.04297-.58594l-6.89453-1.34375m17.86328 4.00781l-2.20313-6.67187m14.26954 6.84766l.29296-7.01954m15.08985 6.45313l-3.83594-5.88672m3.27734 5.03125l-.59375 1.07031m15.89454-2.09375l-6.69532-2.1328m19.98438-.08204l-6.64063 2.30078m5.67188-1.96875l.90234.83594m13.20703-1.58203l-6.29297 3.125m5.37891-2.67188l.9961.71485m12.67187-1.98438l-5.17188 4.75781m4.41797-4.0664l1.16016.40625m12.33984-1.59375l-4.03125 5.7539m3.44531-4.91796l1.21875.14843m12.54297-1.07812l-3.7539 5.9375m3.20703-5.07422l1.22265.09375m11.85547-1.32813l-2.1875 6.6797m1.8672-5.70704l1.21093-.21094m12.5586-.71094l-2.45704 6.58204m2.10156-5.625L465.64844 358"/><g clip-path="url(#ag)"><path fill="none" stroke="#000" stroke-linecap="round" stroke-linejoin="round" stroke-miterlimit="10" stroke-width=".5" d="M141 345.34766l6 3.66015"/></g><path fill="none" stroke="#000" stroke-linecap="round" stroke-linejoin="round" stroke-miterlimit="10" stroke-width=".5" d="M153.98047 346.07422l6.67187 2.20703m-6.67187-2.20703l-.41406-2.41797m13.875 4.9961l6.3789-2.94532m-6.3789 2.94531l-1.95703-1.48437m15.13671 1.14453l6.64844-2.26953m7.83984 3.91406l4.30079-5.5586m10.96875 6.28907l.39062-7.01563m14.92969 6.51563l-3.61719-6.01953m18.23828 4.63281l-6.23047-3.2461m19.39844 3.50782l-5.9336-3.76953m19.39454 3.51562l-6.22656-3.26171m19.9375 1.5078l-7.01954.2461m20.22657-1l-6.80469 1.7539m20.21484-1.20312l-6.99609.65235m5.98047-.5586l.67187 1.02735m13.65625-.44141l-6.98828-.70313m20.14453 1.46094l-6.66796-2.22265m14.5625 3.9375l4.17187-5.65235m13.48828 5.51563l-4.51953-5.3789m3.86328 4.59765l-.46094 1.13672m15.64063-2.46875l-6.9336-1.15235m5.92188.98438l.39063 1.16406m13.91796-2.23438l-6.90234 1.32422m6.90234-1.32421l1.53907 1.91015m11.02343-3.5l-5.39453 4.5039m4.60938-3.84765l1.13672.46094m11.6914-2.07422l-2.85156 6.42188m2.4375-5.48829l1.22266-.08593m12.2578-.94922l-2.35546 6.6211m2.01172-5.65626l1.21484-.17969m12.48047-.77343l-2.42578 6.59765m2.07422-5.63672l1.21484-.16406m12.08203-.91015l-1.6875 6.82421m1.44141-5.83203l1.1914-.29687m12.78126-.5664l-2.50782 6.5664m2.14063-5.60938l1.21875-.15234"/><g clip-path="url(#ah)"><path fill="none" stroke="#000" stroke-linecap="round" stroke-linejoin="round" stroke-miterlimit="10" stroke-width=".5" d="M141.375 331.52734l5.25 4.67188"/></g><path fill="none" stroke="#000" stroke-linecap="round" stroke-linejoin="round" stroke-miterlimit="10" stroke-width=".5" d="M153.82422 333.45703l6.98047.8125m-6.98047-.8125l-.89063-2.28906m14.57032 4.29687l6.2539-3.20312m-6.2539 3.20312l-2.01563-1.40625m15.09375.81641l6.72656-2.02344m-5.75 1.73047l-.86328-.8711m14.1914 2.7422l4.7461-5.1797m-4.05469 4.42579l-1.1875-.3086m13.20313.33204L213.55469 332m-5.09375 3.1836l-1.0625-.61329m15.4961 2.66016l1.99218-6.73828m13.98437 6.46484l-3.32812-6.1875m18.48437 2.89063l-7.01562.40625m5.9961-.34766l.63671 1.05078m13.65625-1.48047l-6.92969 1.14844m20.27344-.94922l-6.98828.75m17.36719 3.09375l-1.11328-6.9375m16.89062 5.26563l-6.03906-3.59375m5.16016 3.0703l-.0586 1.22657m14.7461-2.39062l-7.02344-.21875m6 .1875l.54297 1.10156m13.60156-2.33594l-6.63672 2.3125m5.66797-1.97656l.90234.83203m13.1289 1.70313l-6.1328-3.4297m15.04297 4.96094l2.67578-6.49609m-2.28907 5.55469l-1.21875.11719m16.15235 1.02734l-1.33203-6.89844m1.13672 5.89453l-.95313.76954m16.75-5.11329l-5.91016 3.79688m5.91016-3.79688l2.14063 1.19922M399 330.98437l-4.02734 5.75782m3.4414-4.92188l1.21875.15235m11.67578-1.47657l-2.01171 6.73438m1.71875-5.7539l1.20312-.2422m10.23438-.6875l2.32812 6.63282m-1.99219-5.66797l.83203-.90235m11.33594.34766l3.94922 5.8125m13.85547-5.35937l-5.02734 4.90625m4.29296-4.19532l1.17188.375m12.35156-1.52734l-3.98047 5.78906m3.40235-4.94922l1.21875.14063"/><g clip-path="url(#ai)"><path fill="none" stroke="#000" stroke-linecap="round" stroke-linejoin="round" stroke-miterlimit="10" stroke-width=".5" d="M143.22656 317.1211l1.54688 6.85546"/></g><g clip-path="url(#aj)"><path fill="none" stroke="#000" stroke-linecap="round" stroke-linejoin="round" stroke-miterlimit="10" stroke-width=".5" d="M143.22656 317.1211l1.85547-1.60157"/></g><path fill="none" stroke="#000" stroke-linecap="round" stroke-linejoin="round" stroke-miterlimit="10" stroke-width=".5" d="M154.25781 318.8125l6.11328 3.46875m-5.22265-2.96484l.03515-1.22266m12.00391 3.14844l6.88672-1.39063m-5.88672 1.1875l-.77734-.94531m13.09375 1.16406l6.8828-1.41797m-5.8828 1.21094l-.78125-.94531m13.71484 2.53515l5.64453-4.18359m-4.82422 3.57422l-1.10547-.52734m14.29297 1.83593l4.26172-5.58593m-3.64453 4.77343l-1.21094-.19921m13.58985.74218l4.89843-5.04297m7.6797 4.00391l6.37108-2.96484m6.6211 1.66015l7.01953-.35547m6.3164.60547l6.97657-.85937m-5.96094.73437l-.70312-1.0039m13.4453 2.45312l6.08985-3.50781m-5.20312 3l-1.03906-.65235m15.38671 2.73438l2.25391-6.65625m-1.92578 5.6875l-1.21094.19922m14.33594.8164l1.97266-6.74609m-1.6836 5.76172l-1.20312.25m16.97265.40234l-3.51172-6.08593m3 5.20312l-.64843 1.03906m16.23047-3.37109l-7.01954.34766m5.9961-.29688l.6289 1.05469m13.57422-1.91016l-6.75 1.95703m5.76563-1.67187l.85547.8789m12.63672 2.21094l-5.13672-4.79297m4.39062 4.09375l-.32031 1.1875m12.83203.47657l-2.03906-6.72266m1.74219 5.7461l-.8672.86327m16.1836-5.46875l-5.44531 4.44141m5.44531-4.4414l2.26172.94921m11.54688-.14062l-6.4336 2.82031m6.4336-2.82031l1.92578 1.52344m10.72656-2.52344l-5.10938 4.82422m5.10938-4.82422l2.32422.78125m8.80078-1.86328l-.73047 6.98828m.73047-6.98828l2.27734-.92188m12.54688 7.38672l-3.7461-5.94531m3.19922 5.08203l-.60937 1.0625m16.0664-2.60938l-6.9375-1.12109m6.9375 1.1211l.78907 2.32421m-1.79688-2.48828l.39453 1.16406m13.16407-3.80468l-5.41016 4.48437"/><g clip-path="url(#ak)"><path fill="none" stroke="#000" stroke-linecap="round" stroke-linejoin="round" stroke-miterlimit="10" stroke-width=".5" d="M466.26563 318.30469l2.26953.9336"/></g><path fill="none" stroke="#000" stroke-linecap="round" stroke-linejoin="round" stroke-miterlimit="10" stroke-width=".5" d="M465.48047 318.95703l1.13281.46875"/><path fill="#00f" fill-rule="evenodd" d="M370.48438 401.07422h8.62109v-10.14844h-8.6211v10.14844"/><path fill="azure" fill-rule="evenodd" d="M372.3164 392.76172h.83594v2.82031h3.28516v-2.82031h.83203v6.47656h-.83203v-2.91406h-3.28516v2.91406h-.83593v-6.47656"/><path fill="#ff3030" fill-rule="evenodd" d="M189.20703 383.32031h7.6914v-10.14844h-7.6914v10.14844"/><path fill="azure" fill-rule="evenodd" d="M191.03906 375.00781h.83594v5.73828h3.1914v.7422h-4.02734v-6.48048"/><path fill="#ffffe0" fill-rule="evenodd" d="M425.9375 427.9336h22.17969v-10.19141H425.9375v10.1914"/><path fill-rule="evenodd" d="M429.4375 419.57422h.50781v6.29687h-.78906v-4.49218h-1.38672v-.5547l.5586-.0625.2539-.05468.23047-.08984.20313-.14063.17187-.21094.14063-.29687.10937-.39453m4.8125 0l.23047.01953.21875.05469.20703.08984.19531.1211.1836.15234.17187.17187.30078.42188.2461.49219.17968.54687.10938.57813.03906.59375-.03906.59375-.10938.58203-.17968.55469-.2461.5-.30078.42968-.17187.17969-.1836.15234-.19531.125-.20703.08985-.21875.0586-.23047.01952-.23047-.01953-.21875-.0586-.20703-.08984-.19531-.125-.1875-.15234-.16797-.17969-.30469-.42969-.24219-.5-.17968-.55468-.11329-.58203-.03515-.59375H433l.02734.5625.08204.5039.1289.44531.16016.375.1914.30079.21094.21875.22266.13671.22656.04688.22656-.04688.22266-.13671.21094-.21875.1914-.30079.16016-.375.125-.4453.08203-.50391.03125-.5625-.03125-.5625-.08203-.5-.125-.4375-.16016-.36329-.1914-.29296-.21094-.21485-.22266-.13281-.22656-.04297-.22656.04297-.22266.13281-.21094.21485-.1914.29296-.16016.36329-.1289.4375-.08204.5-.02734.5625h-.83203l.03515-.59375.11329-.57813.17968-.54687.2422-.4922.30468-.42187.16797-.17187.1875-.15235.19531-.12109.20703-.08984.21875-.05469.23047-.01953m4.95313 0l.22656.01953.21875.05469.21094.08984.1953.1211.1836.15234.17188.17187.30078.42188.2461.49219.17968.54687.10937.57813.03907.59375-.03907.59375-.10937.58203-.17969.55469-.2461.5-.30077.42968-.17188.17969-.1836.15234-.1953.125-.21094.08985-.21875.0586-.22656.01952-.23047-.01953-.21875-.0586-.20704-.08984-.19921-.125-.1836-.15234-.17187-.17969-.30078-.42969-.2422-.5-.17968-.55468-.11328-.58203-.03906-.59375h.83594l.02734.5625.08203.5039.125.44531.16406.375.1914.30079.21095.21875.22265.13671.22656.04688.22657-.04688.22265-.13671.21094-.21875.1875-.30079.16406-.375.125-.4453.08204-.50391.03125-.5625-.03125-.5625-.08204-.5-.125-.4375-.16406-.36329-.1875-.29296-.21094-.21485-.22265-.13281-.22656-.04297-.22657.04297-.22265.13281-.21094.21485-.1914.29296-.16407.36329-.125.4375-.08203.5-.02735.5625h-.83593l.03906-.59375.11328-.57813.17969-.54687.24219-.4922.30078-.42187.17187-.17187.1836-.15235.19921-.12109.20704-.08984.21875-.05469.23046-.01953m4.95313 0l.38672.02734.35547.08594.32422.13281.28125.1875.23046.23828.17188.28516.10938.33203.03515.3789-.01953.27344-.0586.23438-.08593.19922-.11328.17187-.1289.14454-.14063.12109-.28516.19531.23047.1211.21094.14453.17968.17187.15625.19531.1211.21485.08984.22656.0586.2461.01953.2539-.03516.3125-.10547.32422-.17187.32422-.23829.3086-.30859.26952-.3711.21485-.21093.07812-.23047.0625-.2461.03906-.2578.01172-.26172-.01172-.2422-.03906-.22265-.0625-.20703-.07812-.35547-.21485-.29297-.26953-.22265-.3086-.15625-.32421-.09375-.32422-.02735-.3125h.83204l.02734.2539.07812.23438.1211.21485.16015.18359.19141.15234.22266.11328.23828.07422.25781.02344.2539-.02344.23829-.07422.22265-.11328.19141-.15234.16016-.1836.12109-.21484.07813-.23437.02734-.25391-.02735-.25-.07812-.23828-.1211-.21094-.16015-.1836-.1914-.15234-.22266-.11718-.23828-.07032-.25391-.02734-.25781.02734-.23828.07032-.22266.11718-.1914.15235-.16016.1836-.1211.21093-.07812.23828-.02735.25h-.83203l.01563-.2539.0586-.23829.08984-.22265.125-.21094.15234-.1875.17969-.17578.21094-.15235.23046-.1328-.28515-.19532-.14063-.1211-.1289-.14453-.11329-.17187-.08593-.19922-.0586-.23438-.01953-.27343h.78516l.02344.21484.0664.1914.10547.16407.13672.14063.16406.11328.1875.07812.20703.05078.22266.01953.21875-.01953.20703-.05078.1875-.07812.16797-.11329.13672-.14062.10156-.16406.0664-.1914.02344-.21485-.02343-.21485-.0664-.1914-.10157-.16797-.13672-.13672-.16797-.11328-.1875-.08203-.20703-.05078-.21875-.01563-.22266.01563-.20703.05078-.1875.08203-.16406.11328-.13672.13672-.10547.16797-.0664.1914-.02344.21485h-.78516l.03516-.3789.10937-.33204.17579-.28516.22656-.23828.28125-.1875.32422-.13281.35546-.08594.39063-.02734"/><path fill="#ffffe0" fill-rule="evenodd" d="M306.23828 345.13672h22.17969v-10.1914h-22.17969v10.1914"/><path fill-rule="evenodd" d="M309.73828 336.77734h.50781v6.29297h-.78906v-4.48828h-1.38672v-.55469l.5586-.0664.2539-.05469.23047-.08594.20313-.14453.17187-.20703.14063-.29688.10937-.39453m4.8125 0l.23047.01954.21875.05468.20703.08985.19531.12109.1836.14844.17187.17578.30078.42187.2461.4922.17969.54687.10937.57812.03906.58985-.03906.59375-.10938.58593-.17968.55469-.2461.5-.30078.42969-.17187.17969-.1836.15234-.1953.125-.20704.08984-.21875.0586-.23047.01953-.23047-.01953-.21875-.0586-.20703-.08984-.19531-.125-.1875-.15235-.16797-.17968-.30469-.42969-.24219-.5-.17968-.55469-.11328-.58594-.03516-.59375h.83203l.02735.56641.08203.5039.1289.44141.16016.375.1914.30079.21094.22265.22266.13672.22656.04688.22656-.04688.22266-.13672.21094-.22265.1914-.30079.16016-.375.125-.4414.08203-.5039.03125-.56642-.03125-.55859-.08203-.5-.125-.4375-.16016-.36719-.1914-.28906-.21094-.21484-.22266-.13281-.22656-.04297-.22656.04296-.22266.13282-.21094.21484-.1914.28906-.16016.3672-.1289.4375-.08204.5-.02734.55858h-.83203l.03516-.58984.11328-.57812.17969-.54688.24218-.49219.30469-.42187.16797-.17578.1875-.14844.19531-.1211.20703-.08984.21875-.05469.23047-.01953m5.08985 0h.51171v6.29297h-.78906v-4.48828h-1.38672v-.55469l.5586-.0664.2539-.05469.22656-.08594.20313-.14453.17578-.20703.14063-.29688.10546-.39453m2.82422 2.17579h.78516l.02344-.31641.0586-.28516.09765-.2539.14062-.21485.17969-.17578.22266-.1289.26562-.07813.3086-.02734.23828.01953.22265.0625.20703.10156.1797.14063.14843.17187.11328.20703.07031.23438.02344.26562-.01953.26953-.0664.22266-.10938.1914-.15625.17188-.19922.16406-.25.16406-.63281.39063-.53907.3125-.4375.3164-.34375.32423-.26562.33593-.1914.35156-.125.3672-.06641.39452-.01954.41797h4.21094v-.73828h-3.33203l.08203-.28515.11328-.23438.14844-.20313.1875-.17968.23047-.17188.27734-.17578.71875-.41797.41407-.20312.34765-.23047.28125-.2539.21875-.26563.16406-.27735.10938-.28515.0625-.28516.02344-.28125-.04297-.38281-.1211-.34766-.1875-.3086-.25-.26171-.30468-.21484-.34375-.15625-.38281-.09766-.40625-.03516-.4336.03125-.39844.10157-.35546.16406-.3047.23437-.24609.3047-.1875.375-.11718.4453-.03907.51954"/><path fill="#ffffe0" fill-rule="evenodd" d="M173.4961 352.48438h22.17968v-10.19532H173.4961v10.19531"/><path fill-rule="evenodd" d="M176.9961 344.125h.5078v6.29297h-.78515v-4.48828h-1.39063v-.5586l.5586-.0625.2539-.05468.23047-.08985.20313-.14062.17187-.21094.14453-.29297.10547-.39453m4.8125 0l.23047.01563.21875.05859.20703.08984.19532.11719.18359.15234.17188.17579.30078.41796.24609.4961.17969.54297.10937.58203.03906.58984-.03906.59375-.10937.58203-.17969.55469-.2461.5039-.30077.42579-.17188.17969-.1836.15234-.1953.125-.20704.09375-.21875.05469-.23047.01953-.23047-.01953-.21875-.0547-.20703-.09374-.1953-.125-.1875-.15235-.16798-.17968-.30469-.42578-.24218-.50391-.17969-.55469-.11328-.58203-.03516-.59375h.83203l.02735.5625.08203.50781.1289.44141.16016.375.1914.30078.21095.22266.22265.13672.22656.04687.22657-.04687.22265-.13672.21094-.22266.1914-.30078.16016-.375.1289-.4414.07813-.50782.03125-.5625-.03125-.5625-.07812-.5-.1289-.4336-.16016-.36718-.19141-.29297-.21094-.21484-.22265-.1289-.22657-.04688-.22656.04687-.22266.1289-.21093.21485-.1914.29297-.16017.36719-.1289.4336-.08203.5-.02735.5625h-.83203l.03516-.58985.11328-.58203.17969-.54297.24219-.4961.30468-.41796.16797-.17579.1875-.15234.19531-.11719.20703-.08984.21875-.0586.23047-.01562m5.08985 0h.51172v6.29297h-.78907v-4.48828h-1.38672v-.5586l.5586-.0625.2539-.05468.22657-.08985.20312-.14062.17578-.21094.14063-.29297.10547-.39453m2.82422 2.17188h.78906l.01953-.3125.0586-.28907.09765-.25.14063-.21875.17968-.17187.22656-.1289.26172-.08204.3086-.02734.23828.02343.22266.0625.20703.10157.17968.13671.14844.17579.11328.20312.07031.23828.02344.26172-.01953.26953-.0664.22656-.10938.19141-.15625.17188-.19922.16015-.25.16797-.63281.38672-.53516.3125-.4375.3164-.34765.32813-.26563.33594-.1875.34765-.125.3711-.07031.39453-.01953.41797h4.21094v-.74219h-3.33204l.08203-.28125.11329-.23828.14843-.20313.1875-.17968.23047-.16797.27735-.17578.71875-.41797.41406-.20703.34766-.23047.28125-.25.21875-.26953.16406-.27735.10937-.28125.0664-.28515.01954-.28125-.04297-.38281-.1211-.35157-.1875-.30469-.25-.26562-.30468-.21094-.34375-.16015-.38281-.09766-.40625-.03125-.4336.03125-.39843.09766-.35547.16796-.30469.23438-.2461.30469-.1875.3711-.11718.44921-.03906.51563"/><path fill="#ffffe0" fill-rule="evenodd" d="M167.1211 432.3711h22.17968v-10.19141H167.1211v10.1914"/><path fill-rule="evenodd" d="M170.61719 424.01172h.51172v6.29687h-.78907v-4.48828h-1.38672v-.5586l.5586-.0625.2539-.05468.22657-.08984.20703-.14063.17187-.21094.14063-.29296.10547-.39844m4.8164 0l.22657.01953.22265.0586.20703.08984.19532.11719.18359.15234.17188.17578.30078.41797.24609.49219.17969.54687.10937.58203.03906.58985-.03906.59375-.10937.58203-.17969.55469-.2461.5039-.30077.42578-.17188.17969-.1836.15234-.1953.125-.20704.09375-.22265.0547-.22657.01952-.23047-.01953-.21875-.05469-.20703-.09375-.19922-.125-.18359-.15234-.17187-.17969-.30078-.42578-.2422-.5039-.17968-.5547-.11328-.58202-.03516-.59375h.83203l.02735.5625.08203.5078.125.44142.16406.375.1914.30078.21095.21875.22265.13671.22656.04688.22657-.04688.22265-.13671.21094-.21875.1875-.30079.16406-.375.125-.4414.08203-.50781.03125-.5625-.03125-.5625-.08203-.5-.125-.4336-.16406-.36719-.1875-.29296-.21094-.21485-.22265-.1289-.22657-.04688-.22656.04688-.22266.1289-.21093.21485-.1914.29296-.16407.3672-.125.43359-.08203.5-.02735.5625h-.83203l.03516-.58985.11328-.58203.17969-.54687.24219-.4922.30078-.41796.17187-.17578.1836-.15235.19921-.11718.20703-.08985.21875-.05859.23047-.01953m5.08985 0h.51172v6.29687h-.78907v-4.48828h-1.38672v-.5586l.5586-.0625.25-.05468.23047-.08984.20312-.14063.17578-.21094.14063-.29296.10547-.39844m2.82422 2.17578h.78515l.01953-.3164.0625-.28516.09766-.2539.14063-.21485.17968-.17188.22266-.1289.26562-.08204.3086-.02734.23828.02344.22266.0625.20703.10156.17578.13672.15234.17578.10938.20313.07422.23828.02343.26172-.01953.26953-.0664.22656-.10938.1914-.15625.17188-.19922.16016-.25.16797-.63281.38671-.53906.3125-.4375.31641-.34375.32422-.26563.33594-.1914.35156-.125.3711-.06641.39452-.02344.41797h4.21484v-.74218h-3.33203l.08203-.28125.11329-.23829.14843-.20312.1875-.17969.23047-.17187.27735-.17578.71875-.41407.41406-.20703.34766-.23047.27734-.25.22266-.26953.16406-.27734.10937-.28125.0625-.28516.02344-.28125-.04297-.38281-.1211-.35156-.1875-.30469-.2539-.26563-.30078-.21093-.34375-.16016-.38281-.09765-.40625-.03516-.4336.03515-.39843.09766-.35547.16797-.30469.23438-.25.30468-.1836.3711-.11718.44921-.03906.51563"/></g></defs><use xlink:href="#al"/></svg>