<svg xmlns="http://www.w3.org/2000/svg" role="img" xmlns:xlink="http://www.w3.org/1999/xlink" viewBox="142.45 309.95 326.84 171.84"><defs><clipPath id="a"><path d="M144 311.67188h1v168.65625h-1zm0 0"/></clipPath><clipPath id="b"><path d="M144 311.67188h324v168.65625H144zm0 0"/></clipPath><clipPath id="c"><path d="M467 311.67188h1v168.65625h-1zm0 0"/></clipPath><clipPath id="d"><path d="M144 480h4v.32813h-4zm0 0"/></clipPath><clipPath id="e"><path d="M147 480h2v.32813h-2zm0 0"/></clipPath><clipPath id="f"><path d="M153 480h9v.32813h-9zm0 0"/></clipPath><clipPath id="g"><path d="M160 480h3v.32813h-3zm0 0"/></clipPath><clipPath id="h"><path d="M166 479h9v1.32813h-9zm0 0"/></clipPath><clipPath id="i"><path d="M172 480h2v.32813h-2zm0 0"/></clipPath><clipPath id="j"><path d="M180 479h8v1.32813h-8zm0 0"/></clipPath><clipPath id="k"><path d="M187 480h2v.32813h-2zm0 0"/></clipPath><clipPath id="l"><path d="M193 479h9v1.32813h-9zm0 0"/></clipPath><clipPath id="m"><path d="M200 480h3v.32813h-3zm0 0"/></clipPath><clipPath id="n"><path d="M206 479h9v1.32813h-9zm0 0"/></clipPath><clipPath id="o"><path d="M213 479h3v1.32813h-3zm0 0"/></clipPath><clipPath id="p"><path d="M220 479h8v1.32813h-8zm0 0"/></clipPath><clipPath id="q"><path d="M227 479h3v1.32813h-3zm0 0"/></clipPath><clipPath id="r"><path d="M233 479h8v1.32813h-8zm0 0"/></clipPath><clipPath id="s"><path d="M240 479h3v1.32813h-3zm0 0"/></clipPath><clipPath id="t"><path d="M246 479h9v1.32813h-9zm0 0"/></clipPath><clipPath id="u"><path d="M253 479h3v1.32813h-3zm0 0"/></clipPath><clipPath id="v"><path d="M260 479h8v1.32813h-8zm0 0"/></clipPath><clipPath id="w"><path d="M265 479h3v1.32813h-3zm0 0"/></clipPath><clipPath id="x"><path d="M273 479h8v1.32813h-8zm0 0"/></clipPath><clipPath id="y"><path d="M279 479h2v1.32813h-2zm0 0"/></clipPath><clipPath id="z"><path d="M286 479h9v1.32813h-9zm0 0"/></clipPath><clipPath id="A"><path d="M292 479h2v1.32813h-2zm0 0"/></clipPath><clipPath id="B"><path d="M300 479h8v1.32813h-8zm0 0"/></clipPath><clipPath id="C"><path d="M305 479h3v1.32813h-3zm0 0"/></clipPath><clipPath id="D"><path d="M313 479h8v1.32813h-8zm0 0"/></clipPath><clipPath id="E"><path d="M319 479h2v1.32813h-2zm0 0"/></clipPath><clipPath id="F"><path d="M327 477h7v3.32813h-7zm0 0"/></clipPath><clipPath id="G"><path d="M342 476h3v4.32813h-3zm0 0"/></clipPath><clipPath id="H"><path d="M354 477h6v3.32813h-6zm0 0"/></clipPath><clipPath id="I"><path d="M366 479h9v1.32813h-9zm0 0"/></clipPath><clipPath id="J"><path d="M367 479h2v1.32813h-2zm0 0"/></clipPath><clipPath id="K"><path d="M379 479h9v1.32813h-9zm0 0"/></clipPath><clipPath id="L"><path d="M380 479h2v1.32813h-2zm0 0"/></clipPath><clipPath id="M"><path d="M393 479h8v1.32813h-8zm0 0"/></clipPath><clipPath id="N"><path d="M391 478h3v2.32813h-3zm0 0"/></clipPath><clipPath id="O"><path d="M406 479h8v1.32813h-8zm0 0"/></clipPath><clipPath id="P"><path d="M404 479h4v1.32813h-4zm0 0"/></clipPath><clipPath id="Q"><path d="M419 479h9v1.32813h-9zm0 0"/></clipPath><clipPath id="R"><path d="M418 478h3v2.32813h-3zm0 0"/></clipPath><clipPath id="S"><path d="M433 479h8v1.32813h-8zm0 0"/></clipPath><clipPath id="T"><path d="M433 479h2v1.32813h-2zm0 0"/></clipPath><clipPath id="U"><path d="M446 479h8v1.32813h-8zm0 0"/></clipPath><clipPath id="V"><path d="M460 477h7v3.32813h-7zm0 0"/></clipPath><clipPath id="W"><path d="M144 466h4v2h-4zm0 0"/></clipPath><clipPath id="X"><path d="M144 452h4v3h-4zm0 0"/></clipPath><clipPath id="Y"><path d="M144 439h4v3h-4zm0 0"/></clipPath><clipPath id="Z"><path d="M144 425h4v4h-4zm0 0"/></clipPath><clipPath id="aa"><path d="M465 424h3v2h-3zm0 0"/></clipPath><clipPath id="ab"><path d="M144 411h3v6h-3zm0 0"/></clipPath><clipPath id="ac"><path d="M465 411h3v2h-3zm0 0"/></clipPath><clipPath id="ad"><path d="M144 398h4v5h-4zm0 0"/></clipPath><clipPath id="ae"><path d="M465 397h3v2h-3zm0 0"/></clipPath><clipPath id="af"><path d="M144 384h4v6h-4zm0 0"/></clipPath><clipPath id="ag"><path d="M465 384h3v2h-3zm0 0"/></clipPath><clipPath id="ah"><path d="M144 370h3v7h-3zm0 0"/></clipPath><clipPath id="ai"><path d="M144 356h1v9h-1zm0 0"/></clipPath><clipPath id="aj"><path d="M144 355h2v3h-2zm0 0"/></clipPath><clipPath id="ak"><path d="M144 344h3v7h-3zm0 0"/></clipPath><clipPath id="al"><path d="M144 330h3v7h-3zm0 0"/></clipPath><clipPath id="am"><path d="M144 316h1v9h-1zm0 0"/></clipPath><clipPath id="an"><path d="M144 317h2v2h-2zm0 0"/></clipPath><clipPath id="ao"><path d="M465 317h3v1h-3zm0 0"/></clipPath><g id="ap" clip-path="url(#clip1)"><path fill="#fff" fill-opacity="0" fill-rule="evenodd" d="M0 0h1000v1000H0zm0 0"/><path fill="#d3d3d3" fill-opacity="0" fill-rule="evenodd" d="M162.15234 355.86719l-.23437.29297.0586.23437.11718.17188.17578.23437.29297.34766.11328.0586.11719-.17188.0586-.23438.17577-.17578.46485-.17578h.69922l.23437.29297.28906.8164.0586.17579.17578.23046.35156.23438.69922.69922.17188.17578.23437.34765.23438.41016.28906.58203.41015.46485.23047.23437.23438.17578.11719.23047.17578.29297.17187 1.16406v.23438l.0586.28906.05859.11719.11719.11719.34765.41015.11719.17188.17578.17578.17578.23437.11719.17188.17188.35156.05859.23438.23437.40625.23438-.0586-.17578.17578-.0586.92969h-.58203l-.23437-.11328-.34766.11328-.11719.11719-.05859.29297-.0586.17578-.11718.17187-.46484.29297-.0586.23438-.0586.11328v.64453l.0586.17187v.41016l.0586.0586v.40624l.05859.40625.11719.17579.05859.05859.23047.64062-.0586.29297v.69922l-.05859.58203v.23438l-.0586.23047-.05468.35156v1.92187l.05469.1172h.42578l-.36719.11718-.02344.35156.89063 1.16797 1.74219.53906 1.33984.35938v.53906l.08984.8086.53516.71484 1.51953.26953.89063-.08594.08984 1.16406.53516.1797 1.16015-.1797 2.05469-.98437 1.16016-.36328 1.8789-.17578 1.69531-.1797-.17968.71876-1.51563.08594-1.25.08984-.80469.26953-1.07421.8086.26953.71875.53515.89843-.17968.625-.26563.8086.26563 1.07812.625.89844.80468.17969 1.25-.1797-.26562.72267.09766.5039.05468.29297v.17188l.0586.29296v.40625l.17578.1172.35156.11718h.40625l.29297-.17578.11328-.11719.0586-.11719.11718-.23047.0586-.17578.35156-.46484.23047-.17578.17578-.0586.17578.0586.0586.17578.11718.98828.05469.46875.0586.17188.11718.23437.17578.0586.8164.05859h.28907l.11719.23437.05859.40625.0586.35156v1.10547l.11718.29297.11719.34766.28906.69922.17578.35156.58203.7539.35157.17579.17187.0586.46875.23437.64063.46484.34765.23438.29297.17578.29297.05468.23047.0625.8164.34766.29297.17578.11328.17188.35157.35156.11719.17578.52343.64063v.28906l.0586.35156v.34766l.05859.35156.0586.28906.11718.0586.17188.05859h.17578l.58203.23437.17578.1172.17578.28905.17578.23438.11328.23437.29297.23047.11719.11719v.41016l.0586.05468.28906.23438.23437.11719.0586.11718.11718.17188.0586.11719.23047.23437.05859.17578.23437.0586.1172.05859-.1172.11328-.05859.11719v.11719l-.11719.29296-.11719.28907v.58203l.17579.11719.11718.05859.0586.11719.11719.11719.11328.05859.17578.34765.0586.35157.05858.40625v.17578l-.05859.17578-.11719.69922v.17187l.1172.17579.29296.29296h.40625l.17578.1172.11719.17187.11719.29296v.23438h-.52735l-.23047-.23438h-.23437l-.17578.0586-.0586.69922.0586.34765.11719.17579.17578.41015.11718.23047.28907.46875.17578.05469h.52344l.23437.0586.75781.64062.0586.29296v.23438l.05859.0586.23047.34765v.35156l-.11719.17188v.29297l.29297.28906.29297.17578.17187.0586.29297.17577.29297.1172.58203.40624.28906.23438.29297.17578.21875.16015.01563.01172.23047.17579.64062.52343.17578.23438.1172.17578.17577.17578.11328.17188v.64062l.1172.17578.46874.11719.58203.11719.23438.05859.23047.11328.29297.11719.11328.0586.58593.35156.28907.17187.17578.0625.17578.05469.17578.0586.69922.35155.28906.17579.23438.05468.28906.17578.23437.1172.64063.40624.29297.11719.17187.0586.23438.05859.41015.05859.23047.0586.23438.11718.0586.17188-.41017.17578.46875.0586.0586.29296.11328.23438.17578.05468.23438.0586.17578.05859.40625.11719.64062.23437.11719.17188.0586.23437v.17578l-.0586.1172-.0586.40624.23438.23438.11719.05859.34766.11719.64062.23047.17578.11718.28906.1172.17578.17577.23438.46485.58203 1.10546.17578.17579.34766.17578.17578.11719.35156.11718 1.04688.52344.23437.0586.46485.11327.29297.0586.46484.17578.75781.58203.23438.23438.34765.46484.17578.17578.28907.23438.8164.69921.29297.17579.28906.28906.29297.17578.29297.28906.69531.64063.17578.17578.29297.23437.28907.23438.46875.28906.64062.58203.34766.23438.23437.29297.34766.34765.35156.46485.9336.99218.34765.40625.11719.17579.23437.05859.11328.11719.64454.17578.23047.11328.23437.0586.29297.17577.23047.1172.9336.69921.40624.40625.23438.17578.40625.17578.23437.11719.8164.34766.34766.23437.23438.11719.29297.28906.23047.11719.7578.35156.35157.17188.23047.05859.29297.11719.23437.0586.8711.17577h.8164l.46875.23047.17188.0586.875.69921.46484.1172.29297.05858.17578.0586.23047.0586.46875.05859.34766.05859.35156.0586.40625.05859h.29297l.17187.0586v.23046l.17578.17578h.29297l.34766.0586.35156.05859.69922.11719h.64063l.46484-.23438.29297-.17578.17187-.11719.41016-.17187.28906-.17578.9336-.46485.46875-.29297.52343-.29296.46485-.17188.46484-.17578 1.05078-.46485.28906-.11718.41016-.11719.28906-.11719.52735-.17578 1.51562-.69922.58203-.34765.28907-.0586.29297-.0586.34765-.11718.875-.23047.35156-.11719h.11329l.23437-.05859.875-.23437.23438-.0586h.8125l.35156-.0586.8164-.11718.17188-.0586.35156-.05468.29297-.0586.23047-.05859.8164-.17578.17579-.0586h.34765l.23438-.05859.46484-.11718.75781-.17188.23438-.0586h.34765l.41016-.11718.28906-.0586 1.28516-.05859h.28906l.41016-.0586.23047-.05858h.17578l.875-.1172h.40625l.41015-.11718h.34766l.35156-.11328.8711-.0586h1.75l1.04687.28907.41016.11719.28906.11718.35156.11719.28907.11719 1.05078.17187.28906.0586h.29297l.29297.05859.17187.0586.41016.05859.17187.0586.1172.05858h.11718l.11719.0586.35156.0586h.11328l.41016.0664 1.92187.39453 1.92578.39453 1.51953.44922 1.69532.71875 2.14453.80469 1.60547-.71875 1.42968-.80469 1.16016-1.07813 1.25-.44921 3.03516-.71875 1.875-.35938 2.14453-1.34765 2.23437-1.25391 2.5-1.25781 1.69531-.44922 1.78516-.17969 1.16016-.26953.625.53906 1.33984-.26953.71485-.98828.98437-1.34375.44531-.17969.80469-.35937 1.875-.53907 1.78516-.44921 1.25-.26954 1.16015-.08984 1.69922-.08984 1.96094-.26954 1.25-.08984h.53906l.625-.08984h.89063l2.14453-.17969 2.41015-.17969 2.58985-.08984 1.69531.17969 1.60938.08984 1.42968.35938 1.16016.71875 1.875.98828 1.16015 1.52734.26563.71484.6289.08985.35548.89844.53515.53906.53516 1.52734 1.07422.35938h.53515l-.80469.53515.08985 1.70703.71484 2.69532.89063.80468.89453.98829.71484 1.2578 1.78516.53907 1.51953-.17969.35547 1.34375 1.60937-.80469.98047-.53906.26953.26953.31641-.21484.21875-.14453.80078.44922.44922-.35938h.35547l.53515-.26953.53907-.71875.53515-.26953.625-.98828 1.16016.44922.83984.3711 1.39454.61718 1.6953-.17969h1.60548l1.78515.08985.17969-1.70704.53516-1.34375.80468.26954.4922.84765.40233.40625-.08984.53906v.35938l.71485.44922.71093-.26953h1.42969l.35938.98828.4453 1.25781.71485 1.34375 1.25.6289 1.69531.62891.71485-.17969.17969-.53906.98046-.08984.44922.35937.08594 1.25782-.26563.6289-.53515.17969v.53906l.71484.98438.26563.53906.98437.98828.80078 1.07813-.26562.35937-.08985.89844-.625 2.33203-.35546 2.0664-.08985 1.79298-.17969.71875-.08984.53906v1.4375l-.98047 1.88281-.35937 1.70703-.53516.89844-.80469 1.16797-.26562.53906 2.05469 1.2539.08593.35938-.35546.53906-.08985-.17968v.80859l.08985 1.4375-.44532.71484-1.07422.09375-.26562.71485.53515.89844.8047.71875 1.16015.80859 1.33984.26953.44531.35938-.35546.44921-1.78907-.08984-1.25-.44922-.71484-.71875-.625-.08984-.17578 3.58984-.1875 1.3086h89.35937V311.70313h-55.26953v49.08203l.76172.125 3.28906.54296 2.02344 2.83594v2.7539l2.35156.33204 2.34766.33203h4.05078l-1.3789 4.16016-2.02344.70703-2.02344.70312-.54297.34375-2.59375 1.6172-.1875.11718-2.02344-2.07813-.73046-2.74218-2.67188-2.07813-1.375-3.5-.0664-.08203-1.95704-2.67188 2.75-1.41796v-49.08204H294.42187v91.41407l.1172.03125.1328.01172.07422.07421.10547.04688.08985.0586.08593.05859.08985.0586.29687.29687.0586.08984.03125.11719.02734.11719.01563.13671-.03125.1172-.0586.08983-.0586.08594-.04296.10547-.04688.10156-.02734.1211v.14453l.17578.26953.14844.14844.07422.08594.07422.07421.04296.10547.0625.08985.0586.08593.04297.10547.0586.08985.04687.10156.04296.10547.0586.08594.11719.17968.07421.07422.0625.08594.0586.08984.04297.10547.0586.08985.05858.08593.0625.08985.0586.08984.04297.10156.11719.17969.07421.07422.0586.08594.07422.07421.08984.0586.10547.04687h.14844l.1328-.01562.13282.01562.10156-.04687.07422-.07422.04688-.10156-.01563-.13281v-.14844l-.04687-.10547-.02735-.11719-.04687-.10156-.02735-.1211-.04296-.10156-.0625-.08984-.04297-.10156-.04297-.10547-.03125-.11719-.01563-.13281-.01171-.13672.08593-.0586.0586-.08593.12109-.03125.04297.10547.01562.1328v.1172l.0586.10156.0586.08984.08983.0586.14844.14843.0586.08985.04296.10547-.01171.10156.08593.0586.10547.04687.08594.0586.08984.05858.07422.07422-.11719.02735-.10546.04687-.08594.0586-.07422.07421-.0586.08985-.0625.08594-.02734.12109-.04687.10156-.04297.10547-.03125.11719-.01172.13281-.01563.13281v.14844l.02735.11719.04687.10547.04297.10156.0586.08984.07421.07422.08985.0586.07422.07421.08984.0586.0586.08984.04296.10547.04688.10156.11719.03125.1328.01563h.14845l.11718-.03125.10547.04297.04297.10547.04688.10156.02734.1211L299.5 410l.02734.11719.03125.1211.02735.11718.10547.04297.10156.04687.13281-.01562.14844.14844.0625.08593.07422.07422.07031.07422.08984.0625.10547.04297.10156.04297.1172.03125.13671.01562.11719-.03125.07422-.07422.02734-.11718-.01172-.13282-.03125-.12109-.02734-.11719.04297-.10547h.11719l.08984.0625.11719.02735h.14843l.13282.01562h.14843l.13282.01563.1328-.01563h.14845l.1328-.01562.13282-.01172.13672.01172.11719-.02735.13281-.01562.1914-.0586-.05859.17579-.01562.1328-.02735.1211-.01562.13281-.0586.08594-.1328.01563-.10548.04687-.10546.04297-.1172.03125-.11718.02735-.26563.03125h-.14843l-.13281.01562-.07422.07422.05859.08594.14844.14843.11719.1797.07421.0703.08985.0625.08984.0586.08594.0586.08984.05858.10156.04297.10547.0625.10547.04297.08594.0586.10547.04687.10156.04297.17969.11719.0586.08984-.04298.10156-.04687.10547.01562.13281.22266.22266.0586.08985.04296.10156.03125.1211.04297.10155.01563.13282.03125.11718.01171.13672.03125.11719.14844.14844.10156.04297.10547.04296.1172.03125.1328.01563.13672.01563h.11719l.11719-.03125.08984-.0586.04297-.10547.04688-.10156.04296-.10547.03125-.11719.01172-.1328v-.14845l-.01172-.1328-.01562-.13282-.03125-.11719-.04297-.10547-.04688-.10547-.04296-.10156-.04297-.10547-.01563-.13281.01563-.13281.02734-.11719.03125-.11719.02735-.1211.04687-.10155.08984-.0586.08594-.0625.07422-.07422.08984-.05859.22266-.22266.0586-.08593.07421-.07422.11719-.17969.0586-.08594v-.14844l-.07423-.07421-.10156-.04688-.10547-.04297-.10156-.04297-.0586-.08984-.04687-.10547-.02734-.11719.08984-.05859.11719-.03125.10156-.04297.17969-.11719.14844-.14843.01172-.13282-.01172-.10546-.08985-.0586-.1328.01563h-.14845l-.1328.01562-.13282-.01562-.1211-.03125-.08593-.0586-.07422-.07422-.0586-.08984-.0625-.08594-.11718-.17969-.0586-.08593.03125-.1211.08594-.05859.1211-.03125.05859-.08594v-.1211l-.03125-.11718-.0586-.08984-.05859-.08594-.04687-.10547-.02735-.11719-.01562-.1328.0586-.08985.07421-.07422.08984-.0586.1172-.17968.07421-.07422.0586-.08594.14843-.14844.1211-.03125.1328-.01562.13282.01562.07422.07422.04297.10547.01562.13281-.03125.1172-.11719.03124-.1328.01172-.14844.14844-.04297.10547-.04688.10156-.02734.1211-.03125.11718v.14844l.03125.11719.04297.10546.05859.08985.07422.07031.07422.07422.11719.03125.12109.02734.11719-.02734.1328-.01563h.1172l.08984.0586.07422.07422.04687.10546.0586.08594.10156.04688.13281.01562.10547.04297.08594.0586-.01172.10546-.07422.07422-.17969.11719-.05859.08984-.08984.0586-.07032.07422-.07421.07421-.0625.08985-.02735.11719-.01562.1328.01562.13282-.01562.13281v.14844l.01562.13281.02735.1172.03125.12108.07421.07422.08985.0586.08594.0586.08984.05858.11719.03125v.08594l-.10157.04688-.08984.0586-.26563.03124-.11718.02735h-.14844l-.10547.04296-.10156.04688-.0586.08984-.0625.23438-.01171.13281-.03125.1211-.01563.1328v.29298l-.01172.1328.01172.13673.01563.1328.1328.01563.13282.01172.1211.03125.08593.0586.07422.07421.04688.10547.04296.10157.01563.1328v.44532l-.01563.13281v.44532l.03125.26562.02735.11719.01562.13281.03125.11719.08594.21094.03125.26562v.14844l-.03125.11719-.02734.11718-.03125.1211-.02735.11719-.03125.11718-.03125.1211-.01171.1328-.01563.13282.08984.0586.1172-.03125.10155.01562.04688.10547-.03125.26562v.44141l-.04297.10547-.04688.10547-.04296.10156-.04297.10547-.0586.08594-.03125.12109-.04296.11719-.03125.11719-.01563.1328.01563.13282.05859.08984.10547.04688.08594.0586.05859.08593-.01172.13672-.03125.11719-.04297.10156v.44531l-.01562.13281v.14844l-.03125.11719-.04297.10547-.02735.11719-.04687.10546-.04297.10157-.03125.12109-.02734.11719-.03125.13281-.03125.11719-.02735.11719-.04297.10546-.03125.1172-.03125.12108-.01171.13282-.01563.13281v.29688l.02734.11718v.14844l.04688.39844.02734.11719.0586.08984.12109.03125h.14844l.13281-.01563.0586.08985v.11719l-.0586.08984-.08984.0586-.10157.04296-.10546.04688-.08985.05859-.08594.0586-.13671.01562-.1172-.03125-.1328-.01563-.10157.04688-.0625.08594-.01172.13671-.01562.13282-.03125.11719-.02735.11718-.01562.13281-.03125.1211v.29687l.01563.13282.03125.11718v.14844l.01171.13281v.14844l-.02734.11719-.04688.10156-.02734.1211-.03125.11718-.0586.08985-.07421.07421-.10156.04297-.10547.04688-.11719.02734-.1211.03125-.10156-.04687.0586-.08594.10547-.04688.02734-.11718.03125-.11719.02734-.1211.03125-.11718v-.14844l.01563-.13281-.03125-.11719-.04297-.10547-.10547.01563-.07422.07422-.10156.04296-.08984.0625-.07422.07422-.04297.10157-.01563.1328-.03125.1172L304.25 426l-.03125.11719-.02734.11719-.03125.12109-.02735.11719-.03125.11718-.04297.10547-.08984.0586h-.08984l-.1172-.03125-.03124-.08594.01562-.13672-.03125-.11719v-.14844l-.01171-.1328v-.14844l-.0625-.23438-.02735-.1211-.04297-.10156-.04687-.10546-.0586-.08594-.05859-.08985-.04297-.10546-.0625-.08594-.14844-.14844-.0703-.07422-.10548-.04687-.10547-.04297-.10156-.04297-.29687-.29688-.08985-.07421-.08594-.0586-.10546-.04297-.08985-.0625-.08594-.0586-.10546-.04296-.08985-.0586-.08594-.0625-.07421-.0703-.10547-.04688-.08594-.0586-.10547-.04296-.08984-.0625-.10156-.04297-.10547-.04297-.08594-.0586-.10547-.04687-.10547-.04297-.10156-.04687-.08985-.0586-.10156-.04297-.10547-.04296-.08984-.0625-.11719-.02735-.13281-.01562-.13281.01562H299.75l-.13281.01563-.11719-.03125-.08984-.0586-.07422-.07422-.08985-.05859-.10156-.04688h-.14844l-.12109-.02734-.10156-.04297-.07422-.07422-.11719-.17968-.08984-.0586-.10156-.04297-.08985-.0625-.10547-.04296-.08984-.0586-.08594-.0586-.10547-.04687-.0586-.08594-.05858-.08984-.04297-.10547-.04688-.10156-.07422-.07422-.08594-.0586-.07421-.07421-.08985-.0586-.22265-.22265-.04297-.10547-.03125-.26563.10547-.04296h.14453l.10547.04296.07421.07422.08985.0586.08594.0586.10546.04687.08985.05859.14844.14844.0703.07422.14845.14843.0625.08594.07421.07422.08594.0586.07422.07421.08985.0625.08984.0586.08594.05859.26953.17578.10156.04688.10547.04296.10156.04297.04688-.07421.05859-.08594.07422-.07422.07031-.07422.10547.04297.07422.07422.0586.08984.04296.10156.04688.10547.04296.10547.1211.02735.11719-.02735.07421-.08984.04297-.10547.0586-.08985.07422-.07421.10546-.04297.1172-.02735.1328.01172.08985.0586.14844.14843.05859.08985.04297.10547.04687.10156.04297.10547.04297.10156.10547.04688.10547.04296.13281.01563.08594-.0586.0586-.08984.07421-.07422.10547-.04297.11719.02735.10547.04687.10156.04297.10547.04297.10156.04688.17969.11718v.11719l-.01563.13281.01563.13281.01562.13672.0586.08594.10156.04688.1211.02734.11718.03125h.14844l.11719-.03125.05859-.08984.17969-.1172.05859-.08983.07422-.07422.0586-.08594.11718-.17969.17969-.11719.11719.03125.08984.0586.04297.07422-.01563.1328v.1172l.08985.05859h.14843l.13282-.01563.1328-.01171.26563-.03125.10547-.04297.11719-.03125.1211-.02735.07421-.07421.07031-.07422.0625-.08985-.01562-.10547-.04688-.10156-.10156-.04297-.10547-.01562-.11718.02734-.26563.03125h-.14844l-.07421-.07422-.08985-.0586-.11719-.03124-.11718-.02735-.13282-.01562h-.14843l-.13282.01563h-.29687l-.10547-.04688-.14844-.14844-.04297-.10156-.05859-.08984.22266-.22266.08593-.0586.10547-.04296.11719-.03125.13281-.01563.13281.01563.13672.01562.10157.04297.1328-.01172.08985-.0625.10156-.04297.0625-.08984-.04687-.10156-.08984-.0586-.1172-.03125-.10155-.04296-.0586-.08985-.0625-.08984v-.11719l.01563-.13281.10547-.04688.07421-.07031v-.1211l-.08984-.05859-.03125-.11719.08985-.05859.07421-.07422.04297-.10547.0586-.08984.04687-.10156.01563-.13281v-.14844l-.04688-.10547-.04297-.10156-.08984-.0586-.13281-.01562-.10157-.04297-.13671-.01563-.1172-.03125h-.4453l-.13282-.01562-.13281-.01172-.13281-.01563-.11719-.03125h-.14844l-.13281-.01562-.13281-.01172-.26563-.03125-.1211-.04297-.08593-.0586-.07422-.07421v-.14844l.01172-.13281.10547-.04688.10156-.04296.13281-.01563h.15235l.13281-.01562h.29297l.1211.03125.10156.04296.08984.0586.23438.0625.12109-.04688.08984-.05859.10156-.04297.13282-.01562.10547.04296.10156.04688.13281.01172.1211-.02735h.14453l.12109-.03125.11719-.02734.10547-.04687.07421-.07422.08594-.0586.14844-.14843.0586-.08594.04687-.10547.02734-.11719.01563-.10547-.10156-.04296-.08985-.0586-.11719-.03125-.10546-.04297-.08985-.0625-.07422-.08594-.07422-.07421-.10156-.04297-.10547-.04688-.10156-.04297-.0586-.08984-.04687-.10156-.08594-.21094-.0625-.08594-.05859-.08984-.07422-.07422-.08594-.0586h-.26953l-.11719.03126-.08984.05859-.10156.04297-.13281.01562-.10547-.01562-.02735-.11719-.0625-.08984-.11718-.03125-.10157-.04297-.14843-.14844-.03125-.11719-.01563-.10546.07422-.07422.17969-.1172.11719-.02733.11718-.03125.13672.01562.10156.04297.10547.04297.10156.04687.10547.04297.1172.03125.1328.01563.1172.02734.1328.01563.10547-.01563.08985-.0586-.07422-.07421-.10547-.04297-.07422-.07422-.07422-.08984-.14844-.14844-.08593-.0586-.08985-.05859-.07422-.07422-.08984-.0586-.10156-.04687-.1211-.02734-.10156-.04688-.10547-.04296-.11719-.03125-.10156-.04297-.1211-.03125h-.14843l-.11719.03125-.10546.04297-.08594.0625-.17969.11718-.08594.0586-.08984.0586-.10547.04687-.08594.05859-.10547.04297-.10156.04297-.10547.04687-.07422.07422-.05859.08985-.0586.08593-.04687.10547-.0586.08594-.07421.07422-.13281-.01172-.1172-.03125h-.11718l-.07422.07422-.08984.0586-.07422.07421-.08984.0586-.08594.05859-.10547.04687-.10156.04297-.13672.01563-.10156-.04297-.14844-.14844-.10547-.04688h-.08594l-.10547.04688-.10156.04297-.1211.03125-.11718-.03125-.07422-.07422v-.11719l.03125-.1211.07422-.0703.0586-.08985.07421-.07422.11719-.03125.10547-.04296h.29297l.13281-.01563.13672-.01563.10156-.04296.08985-.0586.10156-.04687.08984-.0586.13281-.01171.08985.05859.13281.01172.08984-.0586.08594-.05859.10547-.04297.08984-.0586.08594-.0625.08985-.05859.14843-.14843.0586-.08594.05859-.08985.10547-.04296.13281-.01563.11719.02735.1211.03125.05859-.0586.05859-.08984.03125-.26563.02734-.11719.10547.01172.13281.01563.10157-.04297.08984-.0586.0586-.08984.07421-.07422.0586-.08984.04687-.10156.01172-.13281-.01172-.13282-.04687-.10547-.14844-.14843-.0586-.08985-.05859-.08594-.04297-.10546v-.44532l.01563-.1328v-.14845l.01172-.1328-.0586-.0586-.08984.0586-.10156-.04298-.17969-.11719-.08594-.05859-.0625-.08984-.0586-.08985-.07421-.07421-.08594-.0586-.1211.03125-.10155.01172-.10547.04688-.08594.05859-.10547.04297-.14844.14844-.08984.05859-.08594.0586-.08984.0625-.10547.04296-.13281.01563v-.1211l.10547-.04297.11718-.03125.07422-.0703.04297-.10548v-.14844l-.02734-.11718-.14844-.14844-.13281-.01563h-.14844l-.11719.03125-.10547.04297-.10156.04297-.08984.0625-.11719.02735-.07422-.07422.01172-.13281-.04297-.10157-.04297-.10547-.08984-.05859-.11719.02734-.1211.03125-.11718.03125-.10156.04297-.1211.03125-.10156.04297-.10547.04297-.08984.0586-.10156.01562v-.11719l.01562-.13281-.0586-.08985-.07421.04297-.14844.14844-.0586.08985-.07421.07421-.04688.10547-.04296.10156-.07422.07422-.0586.08985-.07422.07422-.05859.08593-.07422.07422-.08984.0625-.07422.07031-.07422.07422-.10156.01563-.13281.01562-.10547-.04296v-.1211l.14843-.14844.04297-.10156.0586-.08984.04687-.10156.04297-.10547.0586-.08985.03124-.11719.04297-.10156.03125-.1211.02735-.11718.04687-.10547.04297-.10156.04297-.10547.07422-.07031.08984-.0625.08985-.0586.10156-.04296h.29687l.26563-.03125.10547-.04297-.07422-.07422-.11719-.03125-.10547-.04297-.08984-.0586-.10156-.04687-.08985-.0586-.10156-.04296-.10547-.04297-.08984-.0625-.08594-.0586-.10547-.04296-.10156-.04297-.1211-.03125-.11718-.03125-.10157-.04297L297.5 410.25l-.10156-.04297-.08985-.0586-.04296-.10546-.01563-.13281.10156-.04297.13281-.01563.13672.01563.13282-.01563.10156-.04297.0586-.08984.01562-.10547-.08985-.0586-.07421-.07421-.10157-.04297-.08984-.0586-.14844-.14843-.04297-.10547-.01562-.13281v-.29297l-.0586-.08985-.08984-.05859-.07422-.07422-.04297-.10547-.03125-.11718-.0586-.08985-.07421-.07422-.11719-.02734-.07422-.07422-.08984-.0586-.08984-.0625-.08594-.05859-.07422-.07421-.0586-.08594-.04687-.10547-.08594-.0586-.14843-.14843-.19532-.0586-.1328.01563-.10157.04297-.07422.07422-.04688.10156-.04296.10547-.0586.08984-.0586.08594-.29687.29687-.08984.0586h-.08594l-.0625-.08594-.04297-.10547.03125-.11719.0586-.08984.02734-.11719-.01172-.13281-.08984-.0625-.10547.04688-.11719.02734-.11719.03125-.26953.17578-.10156.04688-.11719.02734-.10546.04687-.08985.0586-.10156.04297-.0586-.08594-.04687-.10547.01563-.13281.04687-.10547.07031-.07422.07422-.07031.0586-.08985v-.14843l-.04297-.10547h-.23829l-.10156.04687-.03125.11719-.02734.11719-.03125.1211-.07422.04296-.13281.01563-.07422-.04688-.04297-.10156-.04297-.10547-.04687-.10156-.04297-.10547-.1211.03125-.10156.04297-.13281.01562-.11719.03125-.10547.04297-.08984.0586-.10156.04687-.1211.02734-.13281.01563-.10156-.04297-.0586-.08985-.04687-.10546-.04297-.10157-.04297-.10546v-.1172l.0586-.08984.08593-.05859.17969-.11719.10156-.04687.10547-.04297.10547-.0586.10156-.04296.08985-.0625.10156-.04297.10547-.0586.10156-.04687.08984-.0586.10547-.04296.10156-.04297.08985-.0625.10156-.04297.13672-.01563.11719.03125.10156.04297.1211.03125.10156.04297.10546.04688.10157.04296.10547.04297.10156.04688.10547.04297.10156.04297.10547.04687.08594.0586.10546.04296.1172.03125.10546.04297.10156.04688.08985.0586.10547.04296.10156.04297.10547.04687.11719.02735.10156.04687.1211.02735h.14843l.08594-.0586.01562-.10156.0586-.08984-.02735-.1172-.07422-.07421-.11719-.17969-.07421-.07422-.08985-.07421-.17969-.1172-.08593-.05859-.10547-.04296-.10156-.04688-.26954-.17578-.05859-.08985-.07422-.07421-.0586-.08985-.04296-.10156-.03125-.11719-.01563-.13672v-.5625l-.01171-.1328-.01563-.13282-.03125-.11719-.01562-.13281-.01172-.13281-.03125-.1211-.22266-.22265-.0586-.08594-.01562-.10547.03125-.11719.13281-.01562v-91.41406H172.9922v1.45312l-.0586.23438-.35156 1.05078-.17187.52343-.1172.34766-.17577.41016-.11719.17187-.23438.29297-.23046.0586h-.35157l-.11718.05859-.23047.40625v.29297l.11719.17578.23046.23047.1172.23437.64062.75781.29297.46485.17578.23437.23047.35156.23437.34766.64063.8164.17578.46485.17187.41016.11719.69531.17578.46875.11719 1.39844.0586.46484v.875l.11718 1.04688v4.78125l-.0586.46484-.35156 1.28125-.17578.52344-.11328.41015-.35156.9297L172.93359 336l-.23437.58203-.11719.17578-.17187.34766-.17578.40625-.35157.8164-.0586.29297-.11327.29297-.11719.28906-.0586.17579-.11718.875-.0586.40625-.05859.11718-.0586.17579-.05859.17187-.23047.52734-.11718.17188v.23437l-.11719.23438-.0586.17187-.17577.58594v.28906l-.0586.17579v.29296l-.0586.11329-.05859.52734v.17187l-.05468.23438v2.6211l-.17578.8164-.1172.17578-.17577.23438-.1172.17187-.11327.23438-.58594.93359-.23047.28906-.29297.46485-.17578.23437-.28906.35156-.35156.69922-.11328.23047-.17579.41016-.17578.23046-.40625.52735-.8164.69922-.29297.17187-.28906.23438-.17579.11719-.17578.17578-.52344.40625-.52734.17578-.17187.17578-.23438.05469-.64062.17578h-.75782m12.21094 31.02344l-1.07422.44921.35938.89454 1.25-.71485.44531-.53906-.98047-.08985"/><path fill="#d3d3d3" fill-opacity="0" fill-rule="evenodd" d="M201.50781 416.59766h-.89453l.44922.6289.98047.35938.80469-.08985.4453-.98828-.17577.08985-.71485-.35547-.89453.35547m154.6211 59.0703l-.0586-.52343v-.29297l.11328-.29297.0586-.23046.46875-.46875h.11328l.11719-.11329.11718-.05859h.17579l.23437-.0586h.34766l.23437.0586.11719.0586.23047.17187.0586.17578.11718.58203v.29297l-.11719.17578-.17187.28906-.17579.17579-.52734.52343-.23047.23438-.11719.0586h-.17578l-.11718-.0586-.40625-.29297-.17579-.11719-.11718-.0586-.0586-.11327-.05468-.1172m6.64062-10.95702l-.0586-.17188v-1.10937l.0586-.17188.17578-.0586.17188-.05858h.17578l.23437-.0586.1172.0586.05858.69921-.05859.17188-.11719.17578-.11718.0586-.23438.52343-.11328.0586h-.23438l-.05859-.1172m9.61328-14.39062l-.11719-.17578v-.69922l.29297-.875.1172-.17187.17577-.35156.11328-.23047.1172-.29297.35155-.75781.1172-.23047.17187-.23438h.17578l.11719-.0586h.64062l.11719.0586.23437.23438.17188.11328.35156.29297.11719.11718.11328.17579v.11328l.11719.05859.11718.11719v.69922l-.05859.17578v.23047l-.0586.17578-.34765 1.05078-.11719.23047-.11719.23437-.11718.0586-.23047.23437-.64063.28906h-.875l-.41015-.11718-.64063-.46485"/><path fill="none" stroke="#bebebe" stroke-linecap="round" stroke-linejoin="round" stroke-miterlimit="10" stroke-width=".5" d="M467.95703 311.69531H144.02734v168.625h323.9297v-168.625"/><g clip-path="url(#a)"><path fill="#fff" fill-opacity="0" fill-rule="evenodd" d="M144 475.89063v4.4375h.0039H144V311.67188h.0039H144v164.21875"/></g><g clip-path="url(#b)"><path fill="#fff" fill-opacity="0" fill-rule="evenodd" d="M144.0039 480.32813V311.67188h17.75v126.24218l-2.34374 2.46875 1.26172 4.4375-.01954 4.4414-1.33203 4.4375.3711 4.4375 2.0625 3.95704 4.4375.0664 4.4375-.91406 4.4375-.5625 2.18359-2.54687-2.1836-1.33985-3.95702-3.09765-.48047-.23047-.64844.23047-3.78906 1.04687-1.34766-1.04687-1.77344-4.4375 1-4.4414 1.14063-4.4375-3.45703-2.46876V311.67187h8.875v126.54688l-2.5 2.16406 2.5 1.30469 4.30468-1.30469-4.30468-2.16406V311.67187h17.7539v138.23829l-4.4375 3.76953-.02734.01953-2.28516 4.4375 2.3125.75781 1.82813-.75781 2.60937-1.97656 4.4375-.90625 2.80469-1.5547-2.80469-2.41015-4.4375-1.3789V311.67187h17.7539v123.83594l-.42968.4375.42969 1.41406 1.29297-1.41406-1.29297-.4375V311.67187h17.7539V429.4922l-4.4375 1.26953-1.41406.7461 1.41406 3.6953v6.33594l-1.46484 3.28125 1.46484 1.0664.9297-1.0664-.9297-3.28125v-6.33594l4.4375-1.28906 4.26954 2.03125.16797.11328.17187-.11328-.17188-.14453-2.19921-4.29297-2.23828-2.01562V311.67188h4.4375v110.48437l-1.14454.47266 1.14453.83203 1.625-.83203-1.625-.47266V311.67187h13.31641V437.7422l-4.4375 1.19922-1.90625 1.4414 1.90625 1.35547 4.4375 1.34375L246 440.38281l-4.35547-2.64062V311.67188h31.0664v117.53515l-4.4375 2.08985-4.4375.11718-.10156.09375-4.33593 1.33594-3.71875 3.10156 3.71875 3.17188 2.83203-3.17188 1.60547-4.35937 4.4375.08594 4.4375 1.71093 4.4414-1.10937.67579 3.67187 3.76171 3.4414v5.3125l-.625.1211-.98828 4.4414-2.82422 1.08985-.42578-1.08984-4.01562-3.6836-4.4375 3.40625-4.4375-1.38671-2.25781 1.66406.5 4.4375 1.7578 1.6875 4.4375.59375 4.4375-.10156 4.44141-1.20313.625-.97656 3.8125-4.3086.09766-.1289.04688-4.4414-.14454-.1211v-5.3125l4.4375-.9414 4.4375-1.0625 1.51172-1.4375-1.51172-1.55079-4.4375-.8789-4.4375-2.00782h-.02734l-4.41016-.71484-4.4414-1.58594V311.67188h79.89062v125.79687l-2.89844 2.91406 2.89844 2.89844 3.38281-2.89844-3.3828-2.91406V311.67187h22.1914v131.2461l-1.94531 1.90234-2.4922 3.24219-1.05468 1.19922-1.77344 4.4375-1.60937 1.58984-3.26953 2.84766-1.16797 3.29297-.40235 1.14453.40235.36719 4.4375.97265 4.4375-.33984 4.4375.41015 3.90625 3.03125.1211 4.4375.41406.51563 3.14453-.51563-1.8125-4.4375 3.10546-.6875.86329.6875 3.57421 3.00782 2.53907-3.00781 1.89844-1.94141 2.86328-2.5.125-4.4375-2.98829-3.32813-4.4375.71094-1.20312-1.82031-3.23438-3.80469-4.4375.83985-4.4414 1.24218-2.50781-2.71484 2.5078-1.6914 2.44923-2.75-2.44922-1.90235v-131.2461h93.20312v168.65625H144.00391"/></g><path fill="#50fcfc" fill-rule="evenodd" d="M159.6914 458.13672l-.37109-4.4375 1.33203-4.4375.01953-4.4414-1.26171-4.4375 2.34375-2.46876 3.45703 2.46875-1.14063 4.4375-1 4.4414 1.77344 4.4375 1.34766 1.04688 3.78906-1.04687.64844-.23047.48047.23047 3.95703 3.09765 2.18359 1.33985-2.1836 2.54687-4.4375.5625-4.4375.91407-4.4375-.06641-2.0625-3.95703m10.9375-16.44922l-2.5-1.30469 2.5-2.16406 4.3047 2.16406-4.3047 1.30469m13.31641 17.20703l-2.3125-.75781 2.28516-4.4375.02734-.01953 4.4375-3.76953 4.4375 1.3789 2.80469 2.41016-2.80469 1.55469-4.4375.90625-2.60937 1.97656-1.82813.75781m22.1914-21.53515l-.42968-1.41407.42969-.4375 1.29297.4375-1.29297 1.41406m13.3164 8.52735l-1.46484-1.0664 1.46484-3.28126.9297 3.28125-.9297 1.0664m0-10.68358l-1.41406-3.69532 1.41406-.7461 4.4375-1.26952 2.23829 2.01562 2.19922 4.29297.17187.14453-.17188.11328-.16796-.11328-4.26953-2.03125-4.4375 1.28906m8.875-11.74218l-1.14454-.83203 1.14453-.47266 1.625.47266-1.625.83203m8.87891 18.27734l-1.90625-1.35547 1.90625-1.4414 4.4375-1.19922L246 440.3828l-4.35547 2.69922-4.4375-1.34375m22.1914-2.6211l-3.71874-3.17187 3.71875-3.10156v2.88281l-.26172.21875.26172.22266.19531-.22266-.19531-.21875v-2.88281l4.33594-1.33594.10156-.09375 4.4375-.11719 4.4375-2.08984 4.4414 1.58594 4.41016.71484h.02734v2.10547l-1.97656 2.33203 1.97656 1.8086 2.9375-1.8086-2.9375-2.33203v-2.10547l4.4375 2.00781 4.4375.87891 1.51172 1.55078-1.51172 1.4375-4.4375 1.0625-4.4375.9414-3.76171-3.4414-.67579-3.67187-4.4414 1.10937-4.4375-1.71094-4.4375-.08593-1.60547 4.35937-2.83203 3.17188"/><path fill="#00e8fc" fill-rule="evenodd" d="M259.39844 436.16797l-.26172-.22266.26172-.21875.19531.21875-.19531.22266"/><path fill="#50fcfc" fill-rule="evenodd" d="M262.07813 453.69922l-.5-4.4375 2.2578-1.66406 4.4375 1.38671 4.4375-3.40625 4.01563 3.6836.42578 1.08984 2.82422-1.08984.98828-4.4414.625-.1211.14454.1211-.04688 4.4414-.09766.1289-3.8125 4.3086-.625.97656-4.4414 1.20313-4.4375.10156-4.4375-.59375-1.75781-1.6875"/><path fill="#00e8fc" fill-rule="evenodd" d="M281.58984 437.7539l-1.97656-1.80859 1.97656-2.33203 2.9375 2.33203-2.9375 1.8086"/><path fill="#50fcfc" fill-rule="evenodd" d="M352.60156 443.28125l-2.89844-2.89844 2.89844-2.91406v2.33984l-.57031.57422.57031.57031.66797-.5703-.66797-.57423v-2.33984l3.38281 2.91406-3.3828 2.89844"/><path fill="#00e8fc" fill-rule="evenodd" d="M352.60156 440.95313l-.57031-.57032.57031-.57422.66797.57422-.66797.57031"/><path fill="#50fcfc" fill-rule="evenodd" d="M361.48047 462.9414l-.40235-.36718.40235-1.14453 1.16797-3.29297 3.26953-2.84766 1.60937-1.58984 1.77344-4.4375 1.05469-1.19922 2.49219-3.24219 1.9453-1.90234 2.44923 1.90234-2.44922 2.75-2.50781 1.6914 2.5078 2.71485v3.63672l-1.62108 2.52344 1.62109 2.07812 1.17578-2.07812-1.17578-2.52344v-3.63672l4.4414-1.24219 4.4375-.83984v7.78906l-.66796.45313.66796.46094.77735-.46094-.77735-.45313v-7.78906l3.23438 3.80469 1.20313 1.82031v3.10938l-4.27344 3.9453 4.27344 4.09376 4.07421-4.09375-4.07421-3.94531v-3.10938l4.4375-.71094 2.98828 3.32813-.125 4.4375-2.86329 2.5-1.89843 1.9414-2.53906 3.00782-3.57422-3.00781-.86329-.6875-3.10546.6875 1.8125 4.4375-3.14454.51562-.41406-.51563-.1211-4.4375-3.90624-3.03125-4.4375-.41015-4.4375.33984-4.4375-.97265"/><path fill="#fff" fill-opacity="0" fill-rule="evenodd" d="M374.79297 455.61328l-1.6211 2.52344 1.6211 2.07812 1.17578-2.07812-1.17578-2.52344m8.8789 2.07031l-.66796.45313.66796.46094.77735-.46094-.77735-.45313"/><path fill="#00e8fc" fill-rule="evenodd" d="M388.10938 466.66797l-4.27344-4.09375 4.27344-3.94531v1.5l-2.64844 2.4453 2.64844 2.53907 2.52343-2.53906-2.52344-2.44531v-1.5l4.07422 3.9453-4.07421 4.09376"/><path fill="#00d4fc" fill-rule="evenodd" d="M388.10938 465.11328l-2.64844-2.53906 2.64844-2.44531v1.5l-1.02344.9453 1.02344.98048.97656-.98047-.97656-.94531v-1.5l2.52343 2.4453-2.52344 2.53907"/><path fill="#00c4fc" fill-rule="evenodd" d="M388.10938 463.55469l-1.02344-.98047 1.02344-.94531.97656.9453-.97656.98048"/><g clip-path="url(#c)"><path fill="#fff" fill-opacity="0" fill-rule="evenodd" d="M467.9961 480.32813H468V311.67188h-.0039H468v168.65625h-.0039"/></g><g clip-path="url(#d)"><path fill="none" stroke="#000" stroke-linecap="round" stroke-linejoin="round" stroke-miterlimit="10" stroke-width=".5" d="M147.51172 480.32813h-7.02344"/></g><g clip-path="url(#e)"><path fill="none" stroke="#000" stroke-linecap="round" stroke-linejoin="round" stroke-miterlimit="10" stroke-width=".5" d="M147.51172 480.32813l1.15234 2.16796"/></g><g clip-path="url(#f)"><path fill="none" stroke="#000" stroke-linecap="round" stroke-linejoin="round" stroke-miterlimit="10" stroke-width=".5" d="M160.82813 480.36719l-7.02735-.07422"/></g><g clip-path="url(#g)"><path fill="none" stroke="#000" stroke-linecap="round" stroke-linejoin="round" stroke-miterlimit="10" stroke-width=".5" d="M160.82813 480.36719l1.1289 2.17578"/></g><g clip-path="url(#h)"><path fill="none" stroke="#000" stroke-linecap="round" stroke-linejoin="round" stroke-miterlimit="10" stroke-width=".5" d="M174.125 480.6875l-6.98828-.71875"/></g><g clip-path="url(#i)"><path fill="none" stroke="#000" stroke-linecap="round" stroke-linejoin="round" stroke-miterlimit="10" stroke-width=".5" d="M173.10938 480.58594l.46093 1.13672"/></g><g clip-path="url(#j)"><path fill="none" stroke="#000" stroke-linecap="round" stroke-linejoin="round" stroke-miterlimit="10" stroke-width=".5" d="M187.4375 480.73047l-6.98438-.80469"/></g><g clip-path="url(#k)"><path fill="none" stroke="#000" stroke-linecap="round" stroke-linejoin="round" stroke-miterlimit="10" stroke-width=".5" d="M187.4375 480.73047l.89453 2.28515"/></g><g clip-path="url(#l)"><path fill="none" stroke="#000" stroke-linecap="round" stroke-linejoin="round" stroke-miterlimit="10" stroke-width=".5" d="M200.77344 480.41797l-7.02735-.17969"/></g><g clip-path="url(#m)"><path fill="none" stroke="#000" stroke-linecap="round" stroke-linejoin="round" stroke-miterlimit="10" stroke-width=".5" d="M200.77344 480.41797l1.09375 2.19531"/></g><g clip-path="url(#n)"><path fill="none" stroke="#000" stroke-linecap="round" stroke-linejoin="round" stroke-miterlimit="10" stroke-width=".5" d="M214.08203 480.10547l-7.01172.44922"/></g><g clip-path="url(#o)"><path fill="none" stroke="#000" stroke-linecap="round" stroke-linejoin="round" stroke-miterlimit="10" stroke-width=".5" d="M214.08203 480.10547l1.28906 2.08594"/></g><g clip-path="url(#p)"><path fill="none" stroke="#000" stroke-linecap="round" stroke-linejoin="round" stroke-miterlimit="10" stroke-width=".5" d="M227.3711 479.84766l-6.96094.96093"/></g><g clip-path="url(#q)"><path fill="none" stroke="#000" stroke-linecap="round" stroke-linejoin="round" stroke-miterlimit="10" stroke-width=".5" d="M227.3711 479.84766l1.4375 1.98828"/></g><g clip-path="url(#r)"><path fill="none" stroke="#000" stroke-linecap="round" stroke-linejoin="round" stroke-miterlimit="10" stroke-width=".5" d="M240.63672 479.57031l-6.86328 1.51563"/></g><g clip-path="url(#s)"><path fill="none" stroke="#000" stroke-linecap="round" stroke-linejoin="round" stroke-miterlimit="10" stroke-width=".5" d="M240.63672 479.57031l1.58984 1.8711"/></g><g clip-path="url(#t)"><path fill="none" stroke="#000" stroke-linecap="round" stroke-linejoin="round" stroke-miterlimit="10" stroke-width=".5" d="M253.875 479.28125l-6.70703 2.09766"/></g><g clip-path="url(#u)"><path fill="none" stroke="#000" stroke-linecap="round" stroke-linejoin="round" stroke-miterlimit="10" stroke-width=".5" d="M253.875 479.28125l1.7461 1.72266"/></g><g clip-path="url(#v)"><path fill="none" stroke="#000" stroke-linecap="round" stroke-linejoin="round" stroke-miterlimit="10" stroke-width=".5" d="M267.20313 479.32813l-6.73438 2"/></g><g clip-path="url(#w)"><path fill="none" stroke="#000" stroke-linecap="round" stroke-linejoin="round" stroke-miterlimit="10" stroke-width=".5" d="M266.22266 479.6211l.86328.875"/></g><g clip-path="url(#x)"><path fill="none" stroke="#000" stroke-linecap="round" stroke-linejoin="round" stroke-miterlimit="10" stroke-width=".5" d="M280.5586 479.47266l-6.81641 1.71484"/></g><g clip-path="url(#y)"><path fill="none" stroke="#000" stroke-linecap="round" stroke-linejoin="round" stroke-miterlimit="10" stroke-width=".5" d="M279.5664 479.72266l.82423.91015"/></g><g clip-path="url(#z)"><path fill="none" stroke="#000" stroke-linecap="round" stroke-linejoin="round" stroke-miterlimit="10" stroke-width=".5" d="M293.94922 479.8711l-6.96875.91796"/></g><g clip-path="url(#A)"><path fill="none" stroke="#000" stroke-linecap="round" stroke-linejoin="round" stroke-miterlimit="10" stroke-width=".5" d="M292.9375 480.0039l.71094 1"/></g><g clip-path="url(#B)"><path fill="none" stroke="#000" stroke-linecap="round" stroke-linejoin="round" stroke-miterlimit="10" stroke-width=".5" d="M307.20703 479.55078l-6.85156 1.55469"/></g><g clip-path="url(#C)"><path fill="none" stroke="#000" stroke-linecap="round" stroke-linejoin="round" stroke-miterlimit="10" stroke-width=".5" d="M306.21094 479.77734l.80078.9297"/></g><g clip-path="url(#D)"><path fill="none" stroke="#000" stroke-linecap="round" stroke-linejoin="round" stroke-miterlimit="10" stroke-width=".5" d="M320.47266 479.35156l-6.75 1.95313"/></g><g clip-path="url(#E)"><path fill="none" stroke="#000" stroke-linecap="round" stroke-linejoin="round" stroke-miterlimit="10" stroke-width=".5" d="M319.48828 479.63672l.85547.8789"/></g><g clip-path="url(#F)"><path fill="none" stroke="#000" stroke-linecap="round" stroke-linejoin="round" stroke-miterlimit="10" stroke-width=".5" d="M333.23828 478.2461l-5.65625 4.16796"/></g><path fill="none" stroke="#000" stroke-linecap="round" stroke-linejoin="round" stroke-miterlimit="10" stroke-width=".5" d="M332.41797 478.85156l1.10547.53125"/><g clip-path="url(#G)"><path fill="none" stroke="#000" stroke-linecap="round" stroke-linejoin="round" stroke-miterlimit="10" stroke-width=".5" d="M344.36719 476.875l-1.28125 6.91016"/></g><g clip-path="url(#H)"><path fill="none" stroke="#000" stroke-linecap="round" stroke-linejoin="round" stroke-miterlimit="10" stroke-width=".5" d="M354.5625 477.83984l4.95703 4.98047"/></g><g clip-path="url(#I)"><path fill="none" stroke="#000" stroke-linecap="round" stroke-linejoin="round" stroke-miterlimit="10" stroke-width=".5" d="M366.84375 480.42188l7.02344-.1875"/></g><g clip-path="url(#J)"><path fill="none" stroke="#000" stroke-linecap="round" stroke-linejoin="round" stroke-miterlimit="10" stroke-width=".5" d="M367.86719 480.39453l-.60547-1.0664"/></g><g clip-path="url(#K)"><path fill="none" stroke="#000" stroke-linecap="round" stroke-linejoin="round" stroke-miterlimit="10" stroke-width=".5" d="M380.16016 480.44922l7.02343-.24219"/></g><g clip-path="url(#L)"><path fill="none" stroke="#000" stroke-linecap="round" stroke-linejoin="round" stroke-miterlimit="10" stroke-width=".5" d="M381.17969 480.41406l-.60938-1.0625"/></g><g clip-path="url(#M)"><path fill="none" stroke="#000" stroke-linecap="round" stroke-linejoin="round" stroke-miterlimit="10" stroke-width=".5" d="M393.4961 480.73438l6.98046-.8125"/></g><g clip-path="url(#N)"><path fill="none" stroke="#000" stroke-linecap="round" stroke-linejoin="round" stroke-miterlimit="10" stroke-width=".5" d="M393.4961 480.73438l-1.39454-2.01563"/></g><g clip-path="url(#O)"><path fill="none" stroke="#000" stroke-linecap="round" stroke-linejoin="round" stroke-miterlimit="10" stroke-width=".5" d="M406.89844 481.19922l6.8086-1.74219"/></g><g clip-path="url(#P)"><path fill="none" stroke="#000" stroke-linecap="round" stroke-linejoin="round" stroke-miterlimit="10" stroke-width=".5" d="M406.89844 481.19922l-1.65235-1.8125"/></g><g clip-path="url(#Q)"><path fill="none" stroke="#000" stroke-linecap="round" stroke-linejoin="round" stroke-miterlimit="10" stroke-width=".5" d="M420.14844 480.8789l6.9375-1.10156"/></g><g clip-path="url(#R)"><path fill="none" stroke="#000" stroke-linecap="round" stroke-linejoin="round" stroke-miterlimit="10" stroke-width=".5" d="M420.14844 480.8789l-1.48047-1.95702"/></g><g clip-path="url(#S)"><path fill="none" stroke="#000" stroke-linecap="round" stroke-linejoin="round" stroke-miterlimit="10" stroke-width=".5" d="M433.44531 480.76563l6.97266-.875"/></g><g clip-path="url(#T)"><path fill="none" stroke="#000" stroke-linecap="round" stroke-linejoin="round" stroke-miterlimit="10" stroke-width=".5" d="M434.46094 480.64063l-.70703-1.00391"/></g><g clip-path="url(#U)"><path fill="none" stroke="#000" stroke-linecap="round" stroke-linejoin="round" stroke-miterlimit="10" stroke-width=".5" d="M446.83203 479.5039l6.82813 1.65235"/></g><path fill="none" stroke="#000" stroke-linecap="round" stroke-linejoin="round" stroke-miterlimit="10" stroke-width=".5" d="M447.82422 479.74219l-.30469-1.1875"/><g clip-path="url(#V)"><path fill="none" stroke="#000" stroke-linecap="round" stroke-linejoin="round" stroke-miterlimit="10" stroke-width=".5" d="M461.0586 477.86328l5.0039 4.9336"/></g><path fill="none" stroke="#000" stroke-linecap="round" stroke-linejoin="round" stroke-miterlimit="10" stroke-width=".5" d="M461.78906 478.57813l.34766-1.17579"/><g clip-path="url(#W)"><path fill="none" stroke="#000" stroke-linecap="round" stroke-linejoin="round" stroke-miterlimit="10" stroke-width=".5" d="M147.5 466.6875l-7 .65234"/></g><path fill="none" stroke="#000" stroke-linecap="round" stroke-linejoin="round" stroke-miterlimit="10" stroke-width=".5" d="M146.48047 466.78125l.67578 1.02344m13.625-1.36719l-6.9336 1.15234m6.9336-1.15234l1.49219 1.94922m11.59375-2.74219l-6.47266 2.73828m6.47266-2.73828l1.90234 1.54688m11.28906-1.8047l-6.22656 3.25391m6.22656-3.2539l2.02344 1.38672m11.61719-.48828l-6.875 1.45703m6.875-1.45703l1.57422 1.8789m11.79687-1.5l-6.99219.69922m6.9922-.69922l1.36327 2.04297m11.91016-2.33594l-6.90625 1.28516m6.90625-1.28516l1.53125 1.92188m11.625-2.5039l-6.58594 2.44921m6.58594-2.44922l1.83203 1.6289m11.14844-2.29687l-5.92188 3.78516m5.92188-3.78516l2.13672 1.20703m11.10156-1.32421l-5.76563 4.01953m5.76563-4.01953l2.1836 1.11718m11.21874-.98047l-5.9414 3.7461m5.9414-3.7461l2.13282 1.21485m11.2578-1.08985l-6.09374 3.4961m6.09375-3.4961l2.07812 1.3047m11.1797-1.40235l-5.97657 3.6914m5.97656-3.6914l2.1211 1.23828m11.11718-1.35938l-5.82422 3.9336m5.82422-3.9336l2.16797 1.14844m11.30078-.90234l-6.1289 3.4414m5.23437-2.9414l1.03516.66406m12.46875-2.04687l-4.72266 5.20703m4.03516-4.44922l1.1914.30078m11.79688-1.69922l-2.6914 6.48828m2.30077-5.54687l1.21875-.11719m10.85157-1.08203l.58203 7.0039m-.58203-7.0039l2.0625-1.32813m9.01562 2.39063l5.05469 4.8789m-4.32031-4.16796l.33593-1.1797m12.33203.37891l4.87891 5.0586m-4.8789-5.0586l.76171-2.33203m11.60157 3.9375l6.78125 1.84766m-6.78125-1.84766l-.53907-2.39453M420.44531 465.5l6.33985 3.02734M420.4453 465.5l-.10547-2.45313m13.12891 3.3711l6.92578 1.1914m-5.91797-1.01562l-.38672-1.16797m13.19922-.3086l5.91406 3.79298m-5.05468-3.2422l.10156-1.22265m12.85937.05469l4.90625 5.02734m-4.1914-4.29687l.3711-1.16797"/><g clip-path="url(#X)"><path fill="none" stroke="#000" stroke-linecap="round" stroke-linejoin="round" stroke-miterlimit="10" stroke-width=".5" d="M147.48438 453.23828l-6.96875.91797"/></g><path fill="none" stroke="#000" stroke-linecap="round" stroke-linejoin="round" stroke-miterlimit="10" stroke-width=".5" d="M147.48438 453.23828l1.42578 2m11.86328-2.16797l-6.91406 1.25782m6.91406-1.25782l1.51953 1.92578m11.80469-1.85546l-6.9375 1.11718m5.92968-.95703l.7422.98047m13.39062-1.84766l-6.5547 2.53125m5.60157-2.16406l.92578.80078m13.44922-.84765l-6.76953 1.89062m5.78516-1.61719l.84375.88672m13.1953-1.82812l-6.24608 3.22265m6.24609-3.22265l2.01562 1.39844m11.35547-1.28125l-6.35937 2.98828m6.35937-2.98828l1.96485 1.47265m11.34765-1.47656l-6.35547 3m5.4297-2.5625l.98437.73047m12.79687-1.89844l-5.4336 4.45703m5.4336-4.45703l2.26172.94531m11.03516-.96484l-5.39844 4.4961m5.39844-4.4961l2.27343.92969m10.98829-.9922l-5.29297 4.625m5.29297-4.625l2.29296.875m11.13672-.73437l-5.52344 4.34375m5.52344-4.34375l2.2461.9922m-3.04688-.35938l1.1211.49609m13.0664-1.03906l-5.66406 4.16015m5.66406-4.16015l2.21094 1.0664m-3.03516-.46093l1.10547.53515m12.89453-1.3164l-5.38672 4.51562m5.38672-4.51562l2.27344.91796m-3.0586-.26171l1.13672.46093m12.9375-1.14843l-5.33203 4.57812m5.33203-4.57812l2.28516.89062m11.21875-.64844l-5.71094 4.09375m5.71094-4.09375l2.19922 1.08985m10.69922-1.57032l-4.8789 5.0547m4.8789-5.0547l2.35937.67579m-3.0703.05859l1.17968.33984m11.75781-1.78906l-2.70312 6.48438m2.70312-6.48438l2.44531-.23047m9.04688-.00781l.94531 6.96094m-.94531-6.96094l1.99219-1.4336m10.01171 1.88672l3.56641 6.0547m-3.5664-6.0547l1.28124-2.09375m12.59766 1.82422l2.4414 6.58985m-2.4414-6.58985l1.6289-1.83203m10.90235 2.24219l4.00781 5.77344m-4.0078-5.77344l1.125-2.1836m14.12108 1.5586l.14454 7.02344m-.14454-7.02344L439 448.98828m-2.1211 2.21875l1.07032-.59766m12.89062-.375l-1.1875 6.92579m1.1875-6.92579l2.32813-.76953m-2.5 1.77735l1.16406-.38282m11.4375-.66406l.58203 7.0039m-.58203-7.0039l2.0664-1.32422"/><g clip-path="url(#Y)"><path fill="none" stroke="#000" stroke-linecap="round" stroke-linejoin="round" stroke-miterlimit="10" stroke-width=".5" d="M147.47656 439.86719l-6.95312 1.03125"/></g><path fill="none" stroke="#000" stroke-linecap="round" stroke-linejoin="round" stroke-miterlimit="10" stroke-width=".5" d="M147.47656 439.86719l1.45703 1.97656m11.89063-1.64844l-7.01953.375m7.01953-.375l1.26562 2.10156m12.0547-1.84375l-7.02735-.13671m6.0039.11718l.5547 1.09375m13.78124-1.05859l-7.02344-.16797m7.02344.16797l1.10156 2.1914m12.21485-2.33984l-7.02735.125m7.02735-.125l1.1914 2.14453m12.1211-2.1914l-7.02344.21875m7.02344-.21875l1.21875 2.13281m11.82812-3.3711l-6.48828 2.69923m5.54688-2.3086l.9453.78125m13.23438-1.35156l-6.33203 3.05469m5.41016-2.60938l.98828.72656m13.07813-1.48046l-5.9922 3.67187m5.9922-3.67188l2.11328 1.2461m11.10547-1.39453l-5.80079 3.96875m5.80078-3.96875l2.17579 1.14062m11.3125-.86328l-6.14453 3.41406m6.14453-3.41406l2.05859 1.33594m11.13281-1.53906l-5.89453 3.82421m5.89453-3.82421l2.14453 1.1875m11.22266-1.10547l-6 3.65625m6-3.65625l2.10938 1.25M320 438.41016l-5.8086 3.94921M320 438.41016l2.17188 1.14062m-3.01563-.5664l1.08594.5703m12.89062-1.39452l-5.4414 4.4453m5.4414-4.4453l2.26172.94921m-3.05469-.30078l1.13282.47266m12.75-1.3711l-4.9922 4.94532m4.9922-4.94531l2.34375.73046m11.0625-.6328l-5.17578 4.7539m5.17578-4.7539l2.3125.8125m10.5-1.26173l-4.17188 5.65235m4.17188-5.65235l2.42968.35938m10.23438-.74219l-2.86719 6.41406m2.86719-6.41406l2.44922-.16797m-2.86719 1.10156l1.22266-.08203m12.69922-.76172l-3.2461 6.23438m3.2461-6.23438l2.45312-.01953m-2.92578.9297l1.22656-.01173m12.2461-1.04297l-2.6172 6.52344m2.6172-6.52344l2.4414-.26172m11.0586.34375l-2.98438 6.35938m2.98438-6.35938l2.44921-.12109m-2.8828 1.04688l1.22655-.0625m12.3125-.95313l-2.5664 6.53906m2.5664-6.53906l2.4375-.28125m-2.80859 1.23438l2.4375-.28125m11.14453-.71094l-2.35937 6.61719m2.35937-6.6172l2.42969-.35546m-2.77344 1.32031l2.42969-.35937M450.73828 439l1.21485-.17969m12.77734-1.75l-2.33594 6.6289m2.33594-6.6289l2.42578-.36719m-2.76562 1.33204l2.42578-.3672"/><g clip-path="url(#Z)"><path fill="none" stroke="#000" stroke-linecap="round" stroke-linejoin="round" stroke-miterlimit="10" stroke-width=".5" d="M147.16016 425.53516l-6.32032 3.0664"/></g><path fill="none" stroke="#000" stroke-linecap="round" stroke-linejoin="round" stroke-miterlimit="10" stroke-width=".5" d="M147.16016 425.53516l1.98437 1.44922m11.35938-1.39454l-6.375 2.95703m6.375-2.95703l1.95703 1.48047m11.65625-.4414l-6.97266.8789m6.97266-.8789l1.41015 2.0078m11.90235-1.10546l-6.96875-.92578m6.96875.92578l.85547 2.30078m12.41797-2.0664l-6.88672-1.39454m5.88672 1.19141l.34765 1.17578m13.60547.01563l-6.16406-3.3711m5.26953 2.88281l-.01563 1.22657m13.91407-.26563l-5.54297-4.3164m4.73828 3.6914l-.21094 1.20703m15.07031-2.92578l-7.01953.3711m5.9961-.31641l.6328 1.05078m13.21876-2.71094L247.5 428.85937m6.04297-3.58203l2.09375 1.27735m11.08594-1.48828l-5.77344 4.0039m5.77344-4.0039l2.17968 1.125m11.23047-.98047l-5.96484 3.71484m5.96484-3.71484l2.125 1.23047m10.6914-1.85547l-4.96874 4.96875m4.96875-4.96875l2.34766.71484m11.39062-.20703l-5.8125 3.94922m5.8125-3.94922l2.16797 1.14453m11.125-1.17578l-5.76953 4.01172m5.76953-4.01172l2.1836 1.11719m11.14452-1.09766l-5.79687 3.97266m5.79687-3.97266l2.17579 1.14063m10.78125-1.58204l-5.07813 4.85547m5.07813-4.85547l2.32812.76954m11.30469-.38672l-5.71485 4.08984m5.71485-4.08984l2.19922 1.09375m10.95703-1.30078l-5.39453 4.5039m5.39453-4.5039l2.27344.92578m10.125-1.70313l-3.5625 6.0586m3.5625-6.0586l2.44921.10547m-2.96875.77734l1.22657.05079m13.51562-.16797l-5.3789 4.52734m5.3789-4.52734l2.27344.91797m-3.0586-.25782l1.14063.45703m13.17969-.82421l-5.8164 3.9414m5.8164-3.9414l2.16797 1.14843m-3.01563-.57422l1.08594.57422m12.39844-1.89453l-4.46094 5.4336m4.46094-5.4336l2.40234.48438m-3.05469.3086l2.40625.48437m10.85547-1.72657l-3.05078 6.33203m3.05078-6.33203l2.45313-.09375m-2.89844 1.01563l2.45312-.09766m11.45704-.7461l-3.35157 6.17579m3.35157-6.17578L454.375 424m-2.9414.8789l2.45312.01954m12.15625-.32032l-4.96094 4.98047"/><g clip-path="url(#aa)"><path fill="none" stroke="#000" stroke-linecap="round" stroke-linejoin="round" stroke-miterlimit="10" stroke-width=".5" d="M466.04297 424.57813l2.34765.71484"/></g><path fill="none" stroke="#000" stroke-linecap="round" stroke-linejoin="round" stroke-miterlimit="10" stroke-width=".5" d="M465.32031 425.30469l2.34766.71094"/><g clip-path="url(#ab)"><path fill="none" stroke="#000" stroke-linecap="round" stroke-linejoin="round" stroke-miterlimit="10" stroke-width=".5" d="M146.69531 411.4961l-5.39062 4.51171"/></g><path fill="none" stroke="#000" stroke-linecap="round" stroke-linejoin="round" stroke-miterlimit="10" stroke-width=".5" d="M146.69531 411.4961l2.27344.92187m-3.0586-.26563l1.13673.46094m12.78906-1.3086l-5.03906 4.89844m5.03906-4.89843l2.33594.75m-3.07032-.03907l1.16797.375m12.41797-1.48437l-4.11328 5.69531m4.11328-5.69531l2.42969.33203m11.57422.32422l-5.4922 4.38281m4.69142-3.7461l1.1289.48829m13.39453 2.61719l-6.3086-3.10157m17.89063 4.76563l-2.83984-6.42969m15.27734 6.6836l-1.08593-6.94141m.92968 5.9336l-.98047.73827m17.40235-2.8203l-6.98828-.75782m5.97265.64844l.45313 1.13672m13.71875-2.51172l-6.67188 2.21093m5.70313-1.89062l.88672.84766m13.11328-1.8047l-6.10156 3.48438m6.10156-3.48437l2.07422 1.3086m10.73437-1.98829l-5.08984 4.84375m5.08984-4.84375l2.32813.77734m10.4961-1.20703l-4.10548 5.70313m4.10547-5.70313l2.42969.33203m9.35547-.95312l-1.05078 6.94531m1.05078-6.94531l2.3164-.8164m11.0625.82421l-1.17578 6.92969m1.00781-5.92188l1.16407-.38671m15.08203 1.78515l-6.69922 2.11719m5.72266-1.8086l.875.85938m12.80859-2.3086l-5.48438 4.39454m5.48438-4.39453l2.2539.97265m11.39844-.46484l-6.16015 3.38281m6.16015-3.38281l2.05078 1.34375m11.375-1.125l-6.3789 2.94531m6.3789-2.94531l1.95313 1.48438m11.02734-2.0586l-5.71093 4.09375m5.71093-4.09375l2.19922 1.08985m-3.03125-.4961l1.10156.54688m13.15235-.98047l-5.92578 3.77344m5.92578-3.77344l2.13672 1.20703m-3-.66016l2.13672 1.21094m12.16015-1.5625l-6.16015 3.38281m6.16015-3.38281l2.05078 1.34375m-2.94922-.85156l2.0547 1.34375m11.91015-2.22266l-5.66797 4.15235m5.66797-4.15235l2.21094 1.07031m-3.03516-.46484l2.21094 1.0664m11.28125-2.34374l-4.3711 5.5m4.3711-5.5l2.41406.4453m-3.05078.35548l1.20703.22265m12.5625-1.16015l-4.0039 5.77344m4.0039-5.77344l2.4336.28515m-3.01954.5547l1.21875.14452m13.15235-.58984l-4.94922 4.98437"/><g clip-path="url(#ac)"><path fill="none" stroke="#000" stroke-linecap="round" stroke-linejoin="round" stroke-miterlimit="10" stroke-width=".5" d="M466.03516 411.26172l2.35156.70703"/></g><path fill="none" stroke="#000" stroke-linecap="round" stroke-linejoin="round" stroke-miterlimit="10" stroke-width=".5" d="M465.3164 411.98438l2.34766.71093"/><g clip-path="url(#ad)"><path fill="none" stroke="#000" stroke-linecap="round" stroke-linejoin="round" stroke-miterlimit="10" stroke-width=".5" d="M146.77344 398.27734l-5.54688 4.32032"/></g><path fill="none" stroke="#000" stroke-linecap="round" stroke-linejoin="round" stroke-miterlimit="10" stroke-width=".5" d="M146.77344 398.27734l2.23828 1.00391m-3.04688-.375l2.2422 1m11.94921-1.53906l-5.67969 4.14062m5.67969-4.14062l2.20703 1.07422m-3.03516-.46875l2.20704 1.0703m11.83593-1.80077l-5.48437 4.39453m5.48437-4.39453l2.25391.96875m-3.05078-.33203l2.2539.97265m11.9375-1.50781l-5.64453 4.1875m5.64453-4.1875l2.21875 1.05469m-3.03906-.44531l1.10938.52734m11.97656-2.07422l-3.54297 6.0664m3.02734-5.18359l1.22657.04688m14.10547 3.38672l-6.54297-2.56641m5.58984 2.1914l.14063 1.21876m14.35547-1.8125l-7-.62891m7 .6289l.95312 2.26173m12.28516-3.36329l-6.84766 1.57422m6.84766-1.57422l1.60937 1.85157m11.79297-1.14844l-7.02344.16797m6.0039-.14453l.60157 1.0703m13.71094-1.4414l-6.97656.85938m5.96093-.73438l.70313 1.0039m13.64062-1.0039l-7.0039.60938m7.0039-.60938l1.33203 2.0586m11.79297-2.9297l-6.62109 2.35157m6.6211-2.35156l1.80859 1.65625m-2.77344-1.3125l.90625.82812m13.25781-1.46093l-6.39062 2.92968m6.39062-2.92968l1.94922 1.49218m-2.8789-1.0625l.97265.7422m13.44922-.69142l-6.7461 1.96875m6.7461-1.96875l1.71094 1.75782m-2.6914-1.46875l.85546.8789m12.89844-2.26171l-5.66406 4.16015m4.83984-3.55469l1.10547.53125m10.91015-2.5l-1.41796 6.88282m17.51953-3.82032l-6.98829.75782m19.94532 1.20312l-6.27344-3.16406m6.27344 3.16406l.05469 2.45313m13.39062-5.32813l-6.53125 2.58594m6.53125-2.58594l1.86719 1.58985m-2.8164-1.21485l1.86718 1.58985m12.49219-1.69922l-6.72266 2.05859m6.72266-2.0586l1.73437 1.73438m11.73438-.6875l-7.02735-.03906m7.02735.03906l1.14062 2.17188m-2.16406-2.17579l.57031 1.08594m13.3125-2.82812l-6.1211 3.45312m6.1211-3.45312l2.07031 1.32031m11.04688-1.63281l-5.72266 4.07812m5.72266-4.07812l2.19531 1.09765m10.4375-1.8125l-4.35937 5.51172m4.35937-5.51172l2.41406.44141m-3.04687.35938l1.20703.21875m12.98047-.8125l-4.83594 5.09765"/><g clip-path="url(#ae)"><path fill="none" stroke="#000" stroke-linecap="round" stroke-linejoin="round" stroke-miterlimit="10" stroke-width=".5" d="M465.98047 397.89063l2.36328.65234"/></g><path fill="none" stroke="#000" stroke-linecap="round" stroke-linejoin="round" stroke-miterlimit="10" stroke-width=".5" d="M465.27734 398.6289l1.1797.32813"/><g clip-path="url(#af)"><path fill="none" stroke="#000" stroke-linecap="round" stroke-linejoin="round" stroke-miterlimit="10" stroke-width=".5" d="M146.80469 385.00781l-5.60938 4.23047"/></g><path fill="none" stroke="#000" stroke-linecap="round" stroke-linejoin="round" stroke-miterlimit="10" stroke-width=".5" d="M146.80469 385.00781l2.22656 1.03906m-3.04297-.42187l2.22656 1.03516m12.13672-1.3047l-6.07031 3.53907m6.07031-3.53906l2.08594 1.28906m-2.96875-.77734l1.04297.64844m13.1914-1.09375l-6.14453 3.40625m6.14453-3.40625l2.0586 1.33593m-2.95313-.84375l1.03125.67188m13.26953-.99219l-6.32812 3.0586m6.32813-3.0586l1.98046 1.44922m-2.90234-1.0039l.99219.72265m13.57812.01562l-6.99219.69141m6.9922-.6914l1.35937 2.04296m-2.3789-1.9414l.67968 1.01953m13.66016-.4961l-7.00391-.55468m7.0039.55468l.97657 2.25m-1.9961-2.33203l.48828 1.125m13.84375-1.01172l-7-.62109m7 .6211l.95704 2.26171m-1.97657-2.35156l.48047 1.1289m13.6289-.08202l-6.55077-2.53516m6.55078 2.53515l.29297 2.4375m13.17578-2.9414l-6.85938-1.52735m6.85938 1.52735l.65234 2.36719m12.6875-2.48829l-6.90625-1.28515m6.90625 1.28515l.73828 2.33985m11.40235-.3086l-4.5586-5.34765m4.5586 5.34765l-.90235 2.28125m14.47657-2.52734l-5.07813-4.85547m19.34375 2.02344l-6.98047.8086m5.96485-.69141l.69921 1.01172m13.32422-2.21094l-6.36328 2.97265m5.4375-2.53906l.98047.73438m13.30469-1.07422l-6.45313 2.78515m6.45313-2.78515l1.91797 1.53515m11.27734-1.78906l-6.21094 3.29297m5.3047-2.8125l1.01562.6875m12.84765 2.67188l-5.4961-4.38282m5.4961 4.38282l-.45312 2.41015m14.53125-4.6875l-7.02344.17188m7.02344-.17188l1.20703 2.13672m-2.22656-2.11328l.60156 1.07031m13.57031-2.07422l-6.69531 2.12891m6.69531-2.1289l1.7539 1.71874m11.40626-2.12109l-6.38672 2.9336m6.38672-2.9336l1.94922 1.48828m11.38671-1.4375l-6.42968 2.83203m6.42968-2.83203l1.9297 1.51563m11.17577-1.92188l-6.0078 3.64844m5.1328-3.1211l1.0547.62891m13.48437-.3789l-6.70704 2.09375m5.73047-1.78907l.875.85938m12.16016-2.9375l-4.1914 5.63672m3.58202-4.81641l1.21094.1836m13.01563-.75l-4.80078 5.1289"/><g clip-path="url(#ag)"><path fill="none" stroke="#000" stroke-linecap="round" stroke-linejoin="round" stroke-miterlimit="10" stroke-width=".5" d="M465.96094 384.5586l2.3711.64062"/></g><g clip-path="url(#ah)"><path fill="none" stroke="#000" stroke-linecap="round" stroke-linejoin="round" stroke-miterlimit="10" stroke-width=".5" d="M146.21875 371.08594l-4.4375 5.44531"/></g><path fill="none" stroke="#000" stroke-linecap="round" stroke-linejoin="round" stroke-miterlimit="10" stroke-width=".5" d="M146.21875 371.08594l2.40625.47265m-3.05078.31641l1.20312.23828m13.07813-.73437l-5.07813 4.85937m5.07813-4.85937l2.32812.76953m11.2461-.46485l-5.59766 4.2461m4.78125-3.625l1.11328.51172m13.28906-.71485l-6.14062 3.41406m6.14063-3.41406l2.05859 1.33594m11.47656-.85938l-6.58203 2.45704m6.58203-2.45704l1.83984 1.62891m11.64844.1914l-6.92578-1.17968m6.92578 1.17969l.77344 2.32812m12.27734-1.46484l-6.39843-2.90625m6.39843 2.90625l.15235 2.44922m13.34765-2.95313l-6.76562-1.89844m6.76562 1.89844l.52344 2.39453m12.86719-2.73828l-6.92188-1.21094m6.92188 1.21094l.76172 2.33203m12.54297-2.27734l-6.90235-1.32031m5.89844 1.125l.36328 1.17578m13.71875-.21485l-6.42578-2.85156m6.42578 2.85156l.17188 2.44532m11.28125-.6289l-2.70313-6.48438m2.3125 5.54296l-.77734.94532m10.30469-1.16016l5.65625-4.17187m13.4375.17968l-5.90235 3.8125m5.04297-3.2578l1.07422.59765m13.42969-.5039l-6.5625 2.51562m5.60937-2.15235l.92578.8086m13.54297.57421l-6.96094-.97656m6.96094.97656l.83594 2.3047m12.20312-1.35157l-6.41015-2.88281m6.41015 2.88281l.16407 2.44531m13.22265-2.61719l-6.55078-2.53906m6.55078 2.53906l.28907 2.4375m13.08984-2.61328l-6.67969-2.1875m5.70703 1.8711l.21094 1.20703m14.19922-1.39844l-6.92578-1.17578m5.91797 1.00781l.38672 1.16406m13.95312-2.08203l-6.95703 1m5.9414-.85546l.72657.99218m13.33984-2.05469l-6.42969 2.83204m5.4922-2.41797l.96484.75781m13.3164-1.10547l-6.48828 2.70313m5.54297-2.3086l.94922.77735m12-2.75391l-3.86719 5.86719m3.30469-5.01172l1.22265.11328m11.94141-1.32813l-2.4414 6.58594m2.08593-5.6289l1.21875-.16407"/><g clip-path="url(#ai)"><path fill="none" stroke="#000" stroke-linecap="round" stroke-linejoin="round" stroke-miterlimit="10" stroke-width=".5" d="M143.50781 357.01563l.98438 6.95703"/></g><g clip-path="url(#aj)"><path fill="none" stroke="#000" stroke-linecap="round" stroke-linejoin="round" stroke-miterlimit="10" stroke-width=".5" d="M143.50781 357.01563l1.98438-1.44532"/></g><path fill="none" stroke="#000" stroke-linecap="round" stroke-linejoin="round" stroke-miterlimit="10" stroke-width=".5" d="M157.83984 357.01953l-1.04687 6.94922m.89453-5.9375l1.15625-.41016m14.2461.36329L168.16796 363m18.82422-.75781l-6.09375-3.5m17.29687 5.13672l-1.86719-6.77344m17.38672 4.96484l-6.28125-3.15234m5.3672 2.6914l.03124 1.22657m13.9414-.33203l-5.76562-4.02344m5.76563 4.02344l-.29688 2.4375m13.42188-2.19141l-5.38672-4.51172m4.60156 3.85547l-.2539 1.19922m14.89453-1.42578l-6.46875-2.7461m6.46875 2.7461l.21484 2.44531m13.27344-2.95313l-6.8125-1.73046m6.8125 1.73046l.58203 2.38282m12.42578-1.59375l-6.19922-3.3086m5.29688 2.82813v1.22656m14.12109-.57422l-6.0039-3.65234m5.1289 3.1211l-.07031 1.22265m11.5664.98047l-.62109-7M304 362.97266l-1.02734.67187m14.5078.33985L316.71095 357m.65625 5.96875l-1.01172.6914m17.48437-2.41015l-6.85937-1.51563m5.86328 1.29688l.32813 1.1836m13.625-.01563l-6.14063-3.41406m5.2461 2.91796l-.01954 1.22657m14.14844-.59375l-5.98047-3.6875m5.98047 3.6875l-.15234 2.44922m13.59375-2.66797l-6.23047-3.2461m6.23047 3.2461l.01953 2.45312m13.39062-2.65234l-6.42187-2.84766m5.48828 2.4336l.08594 1.22265M400.5 360.51172l-7.02734-.03516m17.8203-3.35547l-1.98046 6.7422m15.45703-6.6875l-2.3086 6.63671m14.78126-6.82031l-.6211 7m.53125-5.98047l1.12891-.48047m12.08594-.55078l-.24219 7.02344m.20703-6l1.10547-.53907m12.54297-.46093l-.83985 6.97656m.71875-5.96094l1.14454-.4414"/><g clip-path="url(#ak)"><path fill="none" stroke="#000" stroke-linecap="round" stroke-linejoin="round" stroke-miterlimit="10" stroke-width=".5" d="M141.64453 344.57031l4.71094 5.21485"/></g><path fill="none" stroke="#000" stroke-linecap="round" stroke-linejoin="round" stroke-miterlimit="10" stroke-width=".5" d="M154.32813 345.32813l5.97265 3.70312m-5.10156-3.16406l.07812-1.22656m12.39844 4.4414l5.90625-3.8086m-5.04687 3.25391l-1.07032-.59765m14.13282 1.86328l4.6953-5.23047m-4.01171 4.46875l-1.1914-.29688m14.39843 1.47657l3.54297-6.0664m-3.02734 5.18358l-1.22657-.04687m13.4297.49219l4.73827-5.1914m-4.05078 4.43358l-1.1875-.30468m15.9414 1.97265l.48438-7.01171m-.41406 5.99218l-1.1211.5m15.63282.375l-2.05078-6.72265m1.75 5.74609l-.86719.86719m14.7539.01172l-2.59374-6.52735m2.21875 5.57813l-.79688.9375m15.8086-.90625l-5.23438-4.6875m4.47266 4.0039l-.29297 1.19141m14.89453-1.28125l-6.28516-3.14453m5.3711 2.6875l.03125 1.22656m14.40625-1.28906l-6.70313-2.10547m5.73047 1.79688l.22266 1.20703m14.22656-1.84766l-7.02344-.20703m6 .17969l.54297 1.09765m12.96875 1.08985l-5.3711-4.52735m13.73048 4.94531l4.54296-5.36328m-3.8828 4.58204l-1.19923-.26172m18.05078 1.30078l-3.85156-5.8789m18.42188 4.42968l-6.36329-2.98047m5.4375 2.54688l.0625 1.22656m14.09375-.625l-6.1953-3.3164m5.29687 2.83202l-.0039 1.22656m14.62108-2.11328l-7.0039-.57421m5.98437.49218l.48829 1.125m13.34765-3.15234L393.98438 349m5.1328-3.11328l1.0547.625m11.69921-2.47656l-3.14062 6.28515m2.6836-5.3711l1.22656-.03124m11.21875-1.2461l-.48438 7.01172m.41406-5.99218l1.11719-.5m9.17578.93359l5.69922 4.10938m-4.8711-3.51172l.16798-1.21875m11.9453 1.28125l6.44923 2.78515m-5.51172-2.3789l-.10156-1.22657m16.35156-1.23828l-1.30078 6.90625m1.11328-5.90234l1.17187-.36719"/><g clip-path="url(#al)"><path fill="none" stroke="#000" stroke-linecap="round" stroke-linejoin="round" stroke-miterlimit="10" stroke-width=".5" d="M141.69922 331.20703l4.60156 5.3086"/></g><path fill="none" stroke="#000" stroke-linecap="round" stroke-linejoin="round" stroke-miterlimit="10" stroke-width=".5" d="M153.8125 333.58203l7.0039.5625m-5.98437-.48047l-.48828-1.125m12.9414 2.39453l6.69141-2.14062m-5.71875 1.82812l-.8789-.85546m13.55468 1.90234l6.02344-3.61328m-5.14844 3.08984l-1.05078-.63281m14.50781 2.24219l3.98829-5.78125m-3.98828 5.78125l-2.4375-.28125m15.55859.14062l4.3789-5.5m-3.74218 4.69922l-1.20703-.22266m14.625 1.47266l2.89843-6.39844m-2.47656 5.46875l-1.22656.07813m14.58203 1.02344l1.97266-6.7422m-1.6836 5.76173l-1.20312.25m12.88281-.01172l4.66406-5.25781m-3.98437 4.49218l-1.1914-.28906m14.22655 1.35938l3.86328-5.8672m-3.30078 5.01563l-1.21875-.11719m16.56641 1.48438l-1.32422-6.89844m1.13281 5.89453l-.95703.76954m15.51953-.15235l-3.4375-6.1289m2.9375 5.23828l-.66015 1.03125m16.1836-2.42579l-6.85157-1.55468m5.85547 1.32812l.32031 1.1836m14.0625-1.41797l-6.9961-.63281m6.9961.6328l.95313 2.26173m12.34765-3.03907l-6.96484.92188m6.96484-.92188l1.42578 1.9961m11.90235-1.8789l-6.9922.6875m5.97657-.58595l.67578 1.01954m12.80078 1.53906l-5.28515-4.63281m4.51562 3.95703l-.28125 1.1953m12.60157.56642l-1.75782-6.8047m1.5039 5.8125l-.90624.83204m17.10937-3.30469l-7.02343.125m6-.10547l.59765 1.07031m9.13672-4.36718l2.1836 6.67969m-1.8672-5.70704l.85157-.88671m10.72656.80078l5.02735 4.90625m-4.29688-4.19532l.34375-1.17578m11.4336 1.77344l6.64062 2.28906m-5.67578-1.95703l-.1914-1.21094m12.35156 2.21875l7.01953-.39062M434.4453 334l-.63672-1.04688m13.52735-1.05859l5.82031 3.9375m-4.97266-3.36719l.12891-1.21875m15.1875-.89453l.1211 7.02344m-.10157-6.0039l1.07422-.59376"/><g clip-path="url(#am)"><path fill="none" stroke="#000" stroke-linecap="round" stroke-linejoin="round" stroke-miterlimit="10" stroke-width=".5" d="M144.13281 317.03516l-.26562 7.02343"/></g><g clip-path="url(#an)"><path fill="none" stroke="#000" stroke-linecap="round" stroke-linejoin="round" stroke-miterlimit="10" stroke-width=".5" d="M144.09375 318.0586l1.10547-.53516"/></g><path fill="none" stroke="#000" stroke-linecap="round" stroke-linejoin="round" stroke-miterlimit="10" stroke-width=".5" d="M154.07813 319.17969l6.47265 2.73828m-5.53125-2.33985l-.10547-1.22265m12.33594 3.15625l6.75781-1.92578m-5.77344 1.64453l-.85156-.88281m13.46875 1.86328l6.1875-3.32813m-5.28906 2.84375l-1.01953-.67969m13.98437 1.92579l5.08985-4.84766m-4.34766 4.14063l-1.16406-.38672m13.71484 1.0664l5.13672-4.79297m-4.39062 4.09375l-1.16016-.39843m13.64453 1.0039l5.30469-4.60547m-4.53516 3.9336l-1.14453-.4414m13.76172 1.1914l5.16406-4.76563m-4.41406 4.07422l-1.15625-.40625m13.44922.76953l5.70312-4.10547M248.5 322.00391l-1.10156-.54297m13.8164 1.42578l5.2422-4.67969m-4.48048 4l-1.15234-.42578m14.44922 1.73438l3.7539-5.9375m-3.20703 5.07421l-1.22656-.08984m15.50781 1.48047l.72656-6.98828m-.72656 6.98828l-2.27344.92187m16.4336-.9375l-.96094-6.96093m.82031 5.94921l-.99609.71875m15.9375-.27343l-3.9336-5.82422m3.36329 4.97656l-.57813 1.08203m16.01172-3.08203l-7.02734-.1289m6.0039.10937l.5547 1.09375m13.71483-1.83203l-6.89062 1.38672m6.89062-1.38672l1.5547 1.89844m11.82421-1.02735l-7.01953-.35937m7.01953.35937l1.03906 2.22266m11.78125-.60156l-6.03125-3.60157m5.15625 3.07813l-.0625 1.22656m14.22657-4.35156l-5.97657 3.69922m5.97657-3.69922l2.11718 1.23828m11.20313-1.23047l-5.98828 3.67969m5.98828-3.67969l2.11328 1.2461m10.80078-1.77344l-5.1875 4.73828m5.1875-4.73828l2.3125.82422m8.94922-1.9297l-1.07813 6.94532m1.07813-6.94531l2.3164-.80469M424 318.08593l1.15625-.40234m9.6211.08985l4.30859 5.55078m-3.67969-4.7461l.5-1.11718m17.60547 1.79297l-6.53125 2.58593m5.58203-2.21093l.9336.79687m11.875-2.89062l-3.6211 6.02343"/><g clip-path="url(#ao)"><path fill="none" stroke="#000" stroke-linecap="round" stroke-linejoin="round" stroke-miterlimit="10" stroke-width=".5" d="M465.3711 317.53516l2.44921.1289"/></g><path fill="#00f" fill-rule="evenodd" d="M392.67578 467.64844h8.6211V457.5039h-8.6211v10.14453"/><path fill="azure" fill-rule="evenodd" d="M394.51172 459.33594h.83203v2.82422h3.28516v-2.82422h.83203v6.48047h-.83203v-2.91797h-3.28516v2.91797h-.83203v-6.48047"/><path fill="#ff3030" fill-rule="evenodd" d="M322.35938 454.33203h7.6914V444.1875h-7.6914v10.14453"/><path fill="azure" fill-rule="evenodd" d="M324.1914 446.01953h.83204v5.73828h3.19531V452.5h-4.02734v-6.48047"/><path fill="#00f" fill-rule="evenodd" d="M388.23828 432.14063h8.61719v-10.14454h-8.61719v10.14454"/><path fill="azure" fill-rule="evenodd" d="M390.07031 423.82813h.83594v2.82421h3.28516v-2.82421h.83203v6.48046h-.83203v-2.91796h-3.28516v2.91796h-.83594v-6.48046"/><path fill="#00f" fill-rule="evenodd" d="M219.58203 414.38672h8.61719v-10.14453h-8.61719v10.14453"/><path fill="azure" fill-rule="evenodd" d="M221.41406 406.07422h.83203v2.82422h3.28907v-2.82422h.83203v6.48047h-.83203v-2.91406h-3.28907v2.91406h-.83203v-6.48047"/><path fill="#ff3030" fill-rule="evenodd" d="M175.89063 401.07422h7.6953v-10.14844h-7.6953v10.14844"/><path fill="azure" fill-rule="evenodd" d="M177.72656 392.76172h.83203V398.5H181.75v.73828h-4.02344v-6.47656"/><path fill="#ff3030" fill-rule="evenodd" d="M344.55078 401.07422h7.6914v-10.14844h-7.6914v10.14844"/><path fill="azure" fill-rule="evenodd" d="M346.38281 392.76172h.83203V398.5h3.19532v.73828h-4.02735v-6.47656"/><path fill="#ffffe0" fill-rule="evenodd" d="M412.75781 431.625h22.17969v-10.1914h-22.17969v10.1914"/><path fill-rule="evenodd" d="M416.25781 423.26953h.50781v6.29297h-.78515v-4.48828h-1.39063v-.5586l.5625-.0625.25-.05468.23047-.08985.20313-.14062.17187-.21094.14453-.29297.10547-.39453m4.8125 0l.23047.01563.21875.05859.20703.08984.19531.1172.1875.15233.16797.17579.3047.41796.24218.4922.17969.54687.11328.58203.03515.58984-.03515.59375-.11328.58203-.1797.5547-.24218.5039-.30469.42578-.16796.17969-.1875.15234-.19532.125-.20703.09375-.21875.05469-.23047.01953-.23047-.01953-.21875-.05469-.20703-.09375-.19531-.125-.1836-.15234-.17187-.1797-.30078-.42577-.2461-.5039-.17968-.5547-.10938-.58203-.03906-.59375h.83203l.03125.5625.08203.50781.125.44141.16016.375.1914.30078.21094.21875.22266.14063.22656.04687.22656-.04687.22266-.14063.21094-.21875.1914-.30078.16016-.375.1289-.4414.08204-.50782.02734-.5625-.02734-.5625-.08203-.5-.1289-.4336-.16017-.36718-.1914-.29297-.21094-.21484-.22265-.1289-.22657-.04688-.22656.04687-.22266.1289-.21093.21485-.19141.29297-.16016.36719-.125.4336-.08203.5-.03125.5625h-.83203l.03906-.58985.10938-.58203.17969-.54688.24609-.49219.30078-.41796.17188-.17579.18359-.15234.19531-.11719.20703-.08984.21875-.0586.23047-.01562m5.09375 0h.50781v6.29297h-.78906v-4.48828h-1.38672v-.5586l.5586-.0625.2539-.05468.23047-.08985.20313-.14062.17187-.21094.14063-.29297.10937-.39453m2.82031 2.17188h.78907l.01953-.3125.0586-.28907.09765-.25.14062-.21875.1836-.17187.22265-.1289.26563-.08204.3086-.02734.23437.02344.22656.0625.20313.10156.17968.13672.14844.17578.11328.20312.07031.23828.02735.26172-.02344.26953-.0664.22657-.10938.1914-.15625.17188-.19922.16015-.2461.16797-.63671.38672-.53516.3125-.4375.3164-.34765.32813-.26563.33594-.1875.34766-.125.37109-.07031.39453-.01953.41797h4.21093v-.74219h-3.33203l.08203-.28125.11329-.23828.14843-.20312.1875-.1797.23047-.17187.28125-.17187.71485-.41797.41406-.20703.34765-.23047.28125-.25.21875-.26953.16407-.27735.10937-.28125.0664-.28515.01954-.28125-.04297-.38281-.1211-.35157-.1875-.30468-.25-.26563-.30468-.21094-.34375-.16015-.3789-.09766-.40626-.03125-.4375.03125-.39844.09766-.35546.16797-.3047.23437-.24608.30469-.1875.3711-.11329.44921-.04296.51563"/><path fill="#ffffe0" fill-rule="evenodd" d="M376.6211 450.125h22.17968v-10.1914H376.6211v10.1914"/><path fill-rule="evenodd" d="M380.1211 441.76563h.5078v6.29687h-.78515v-4.49219h-1.39063v-.55469l.5586-.0625.2539-.05468.23047-.08985.20313-.14062.17187-.21094.14454-.29297.10546-.39844m4.8125 0l.23047.01954.21875.05468.20703.08985.19532.1211.18359.15233.17188.17579.30078.41796.24609.4922.17969.54687.10937.57812.03906.59375-.03906.59375-.10937.58203-.17969.5547-.2461.5039-.30077.42578-.17188.17969-.1836.15234-.1953.125-.20704.08984-.21875.0586-.23047.01953-.23046-.01953-.21875-.0586-.20704-.08984-.1953-.125-.1875-.15234-.16798-.1797-.30469-.42577-.24218-.5039-.17969-.5547-.10938-.58203-.03906-.59375h.83203l.02735.5625.08203.5039.1289.44532.16016.375.1914.30078.21094.21875.22266.13672.22656.04688.22657-.04688.22265-.13672.21094-.21875.1914-.30078.16016-.375.1289-.44531.07813-.5039.03125-.5625-.03125-.5625-.07812-.5-.1289-.4336-.16016-.36719-.19141-.29297-.21094-.21484-.22265-.1289-.22657-.04688-.22656.04687-.22265.1289-.21094.21485-.1914.29297-.16017.36719-.1289.4336-.08203.5-.02735.5625h-.83203l.03906-.59376.10938-.57812.17969-.54688.24219-.49219.30468-.41796.16797-.17579.1875-.15234.19531-.1211.20704-.08984.21875-.05468.23046-.01954m5.08985 0h.51172v6.29688h-.78907v-4.49219h-1.38671v-.55469l.55859-.0625.2539-.05468.22657-.08985.20312-.14062.17578-.21094.14063-.29297.10547-.39844m2.82422 2.17579h.78906l.01953-.31641.0586-.28516.09765-.2539.14063-.21485.17968-.17187.22656-.1289.26172-.08204.3086-.02734.23828.02344.22265.0625.20704.10156.17968.13672.14844.17187.11328.20703.07031.23828.02344.26172-.01953.26953-.0664.22266-.10938.19531-.15625.16797-.19922.16406-.25.16407-.63281.39062-.53516.3125-.4375.3164-.34765.32423-.26563.33593-.1875.35157-.125.37109-.07031.39063-.01953.42187h4.21094v-.74219h-3.33204l.08204-.28125.11328-.23828.14843-.20312.1875-.1797.23047-.17187.27735-.17578.71875-.41406.41406-.20703.34765-.23047.28125-.25.21875-.26953.16407-.27735.10937-.28515.0664-.28516.01954-.28125-.04297-.38281-.1211-.34766-.1875-.30468-.25-.26563-.30468-.21094-.34375-.16015-.38281-.09766-.40625-.03515-.4336.03515-.39843.09766-.35547.16797-.30469.23437-.2461.30078-.1875.375-.11718.44531-.03906.51954"/><path fill="#ffffe0" fill-rule="evenodd" d="M316.4414 410.17969h22.1797v-10.1914h-22.1797v10.1914"/><path fill-rule="evenodd" d="M319.9414 401.82031h.50782v6.29688h-.78906v-4.48828h-1.38672v-.5586l.5586-.0625.2539-.05469.23047-.08984.20312-.14062.17188-.21094.14062-.29297.10938-.39844m4.8125 0l.23046.01953.21875.0586.20704.08594.1953.12109.1836.15234.17188.17578.30078.41797.2461.49219.17968.54688.10938.58203.03906.58984-.03906.59375-.10938.58203-.17969.55469-.2461.5039-.30077.42579-.17188.17968-.1836.15235-.1953.125-.20704.09375-.21875.05469-.23046.01953-.23047-.01954-.21875-.05468-.20703-.09375-.19532-.125-.1875-.15235-.16796-.17968-.3047-.42579-.24218-.5039-.17969-.55469-.11328-.58203-.03515-.59375h.83203l.02734.5625.08203.5039.1289.44532.16016.375.19141.30078.21094.21875.22265.13672.22657.04687.22656-.04687.22265-.13672.21094-.21875.1914-.30078.16017-.375.125-.44531.08203-.50391.03125-.5625-.03125-.5625-.08204-.5-.125-.4336-.16015-.36718-.1914-.29297-.21094-.21484-.22266-.12891-.22656-.04688-.22657.04688-.22265.1289-.21094.21485-.1914.29297-.16016.36719-.1289.43359-.08204.5-.02734.5625h-.83204l.03516-.58984.11328-.58204.17969-.54687.24219-.49219.30469-.41797.16796-.17578.1875-.15234.19532-.1211.20703-.08593.21875-.0586.23047-.01953m5.08984 0h.51172v6.29688h-.78906v-4.48828h-1.38672v-.5586l.5586-.0625.2539-.05469.22656-.08984.20313-.14062.17578-.21094.14062-.29297.10547-.39844m2.82422 2.17578h.78515l.02344-.3164.0586-.28516.09765-.2539.14063-.21485.17969-.17187.22265-.12891.26563-.08203.30859-.02735.23828.02344.22266.0625.20703.10156.17969.13672.14843.17188.11329.20703.0703.23828.02344.26172-.01953.26953-.0664.22266-.10938.19531-.15625.16797-.19922.16406-.25.16406-.6328.39063-.53907.3125-.4375.3164-.34375.32422-.26563.33594-.1914.35156-.125.3711-.0664.39453-.01954.41797h4.21094v-.74219h-3.33203l.08203-.28125.11328-.23828.14844-.20313.1875-.17968.23046-.17188.27735-.17578.71875-.41406.41406-.20703.34766-.23047.28125-.25.21875-.26953.16406-.27735.10938-.28515.0625-.28125.02343-.28125-.04297-.38672-.12109-.34766-.1875-.30469-.25-.26562-.30469-.21094-.34375-.16015-.38281-.09766-.40625-.03516-.4336.03516-.39843.09765-.35547.16797-.30469.23438-.2461.30078-.1875.375-.11718.44922-.03906.51562"/><path fill="#ffffe0" fill-rule="evenodd" d="M204.15625 437.30469h22.17969v-10.1914h-22.17969v10.1914"/><path fill-rule="evenodd" d="M207.65234 428.94531h.51172v6.29688h-.78906V430.75h-1.38672v-.55469l.5586-.0625.2539-.05469.23047-.08984.20313-.14062.17187-.21094.14063-.29297.10546-.39844m4.81641 0l.23047.01953.21875.0547.20703.08983.19531.1211.1836.15234.17187.17578.30078.41797.2461.49219.17968.54688.10938.57812.03906.59375-.03906.59375-.10938.58203-.17968.55469-.2461.5-.30078.42969-.17187.17968-.1836.15235-.19531.125-.20703.08984-.21875.0586-.23047.01953-.23047-.01954-.21875-.05859-.20703-.08984-.19531-.125-.1875-.15235-.16797-.17968-.30469-.4297-.24219-.5-.17968-.55468-.11328-.58203-.03516-.59375h.83203l.02734.5625.08203.5039.125.44532.16407.375.1914.30078.21094.21875.22266.13672.22656.04687.22656-.04687.22266-.13672.21094-.21875.1914-.30078.16016-.375.125-.44531.08203-.50391.03125-.5625-.03125-.5625-.08203-.5-.125-.4375-.16016-.36328-.1914-.29297-.21094-.21484-.22266-.12891-.22656-.04688-.22656.04688-.22266.1289-.21094.21485-.1914.29297-.16406.36328-.125.4375-.08204.5-.02734.5625h-.83203l.03516-.59375.11328-.57813.17968-.54687.2422-.49219.30468-.41797.16797-.17578.1875-.15234.19531-.1211.20703-.08984.21875-.05469.23047-.01953m5.08984 0h.51172v6.29688h-.78906V430.75h-1.38672v-.55469l.5586-.0625.2539-.05469.22656-.08984.20313-.14062.17578-.21094.14063-.29297.10546-.39844m2.82422 2.17578h.78516l.01953-.3164.0625-.28516.09766-.2539.14062-.21485.17969-.17187.22266-.12891.26562-.08203.3086-.02735.23827.01954.22266.0664.20703.10156.17578.13672.15235.17188.10937.20703.07422.23438.02344.26562-.01953.26953-.0664.22266-.10938.1914-.15625.17188-.19922.16406-.25.16406-.63281.39063-.53907.3125-.4375.3164-.34375.32422-.26562.33594-.1914.35156-.125.3711-.06642.39062-.02343.42188h4.21484V434.5H221.125l.08203-.28516.11328-.23437.14844-.20313.1875-.17968.23047-.17188.27734-.17578.71875-.41406.41406-.20703.34766-.23047.27734-.25.22266-.26953.16406-.27735.10938-.28515.0625-.28516.02344-.28125-.04297-.38281-.1211-.34766-.1875-.3086-.25-.26171-.30468-.21094-.34375-.16015-.38282-.09766-.40625-.03516-.43359.03516-.39844.09765-.35547.16797-.30468.23438-.25.30078-.1836.375-.11719.44531-.03906.51953"/></g></defs><use xlink:href="#ap"/></svg>