<svg xmlns="http://www.w3.org/2000/svg" role="img" xmlns:xlink="http://www.w3.org/1999/xlink" viewBox="142.45 309.95 326.84 171.84"><defs><clipPath id="a"><path d="M144 446h1v34.32813h-1zm0 0"/></clipPath><clipPath id="b"><path d="M144 311.67188h1V444h-1zm0 0"/></clipPath><clipPath id="c"><path d="M144 311.67188h324v168.65625H144zm0 0"/></clipPath><clipPath id="d"><path d="M467 311.67188h1V476h-1zm0 0"/></clipPath><clipPath id="e"><path d="M144 480h4v.32813h-4zm0 0"/></clipPath><clipPath id="f"><path d="M146 480h2v.32813h-2zm0 0"/></clipPath><clipPath id="g"><path d="M153 479h9v1.32813h-9zm0 0"/></clipPath><clipPath id="h"><path d="M159 480h2v.32813h-2zm0 0"/></clipPath><clipPath id="i"><path d="M166 479h9v1.32813h-9zm0 0"/></clipPath><clipPath id="j"><path d="M172 480h2v.32813h-2zm0 0"/></clipPath><clipPath id="k"><path d="M180 478h8v2.32813h-8zm0 0"/></clipPath><clipPath id="l"><path d="M186 480h1v.32813h-1zm0 0"/></clipPath><clipPath id="m"><path d="M193 478h8v2.32813h-8zm0 0"/></clipPath><clipPath id="n"><path d="M199 480h1v.32813h-1zm0 0"/></clipPath><clipPath id="o"><path d="M207 478h8v2.32813h-8zm0 0"/></clipPath><clipPath id="p"><path d="M220 479h8v1.32813h-8zm0 0"/></clipPath><clipPath id="q"><path d="M226 480h1v.32813h-1zm0 0"/></clipPath><clipPath id="r"><path d="M233 479h8v1.32813h-8zm0 0"/></clipPath><clipPath id="s"><path d="M239 480h2v.32813h-2zm0 0"/></clipPath><clipPath id="t"><path d="M246 479h9v1.32813h-9zm0 0"/></clipPath><clipPath id="u"><path d="M252 480h2v.32813h-2zm0 0"/></clipPath><clipPath id="v"><path d="M260 479h8v1.32813h-8zm0 0"/></clipPath><clipPath id="w"><path d="M265 479h3v1.32813h-3zm0 0"/></clipPath><clipPath id="x"><path d="M273 478h8v2.32813h-8zm0 0"/></clipPath><clipPath id="y"><path d="M279 478h2v2.32813h-2zm0 0"/></clipPath><clipPath id="z"><path d="M286 479h9v1.32813h-9zm0 0"/></clipPath><clipPath id="A"><path d="M292 479h2v1.32813h-2zm0 0"/></clipPath><clipPath id="B"><path d="M300 479h8v1.32813h-8zm0 0"/></clipPath><clipPath id="C"><path d="M305 479h3v1.32813h-3zm0 0"/></clipPath><clipPath id="D"><path d="M313 479h8v1.32813h-8zm0 0"/></clipPath><clipPath id="E"><path d="M327 478h7v2.32813h-7zm0 0"/></clipPath><clipPath id="F"><path d="M342 476h4v4.32813h-4zm0 0"/></clipPath><clipPath id="G"><path d="M353 479h8v1.32813h-8zm0 0"/></clipPath><clipPath id="H"><path d="M353 479h2v1.32813h-2zm0 0"/></clipPath><clipPath id="I"><path d="M366 479h9v1.32813h-9zm0 0"/></clipPath><clipPath id="J"><path d="M367 478h2v2.32813h-2zm0 0"/></clipPath><clipPath id="K"><path d="M379 479h9v1.32813h-9zm0 0"/></clipPath><clipPath id="L"><path d="M380 478h2v2.32813h-2zm0 0"/></clipPath><clipPath id="M"><path d="M393 479h8v1.32813h-8zm0 0"/></clipPath><clipPath id="N"><path d="M392 477h2v3.32813h-2zm0 0"/></clipPath><clipPath id="O"><path d="M406 480h9v.32813h-9zm0 0"/></clipPath><clipPath id="P"><path d="M405 477h3v3.32813h-3zm0 0"/></clipPath><clipPath id="Q"><path d="M406 478h3v2.32813h-3zm0 0"/></clipPath><clipPath id="R"><path d="M419 479h9v1.32813h-9zm0 0"/></clipPath><clipPath id="S"><path d="M418 478h3v2.32813h-3zm0 0"/></clipPath><clipPath id="T"><path d="M420 479h2v1.32813h-2zm0 0"/></clipPath><clipPath id="U"><path d="M433 479h8v1.32813h-8zm0 0"/></clipPath><clipPath id="V"><path d="M446 479h8v1.32813h-8zm0 0"/></clipPath><clipPath id="W"><path d="M460 478h8v2.32813h-8zm0 0"/></clipPath><clipPath id="X"><path d="M144 466h4v2h-4zm0 0"/></clipPath><clipPath id="Y"><path d="M144 452h4v4h-4zm0 0"/></clipPath><clipPath id="Z"><path d="M144 439h4v3h-4zm0 0"/></clipPath><clipPath id="aa"><path d="M144 424h3v6h-3zm0 0"/></clipPath><clipPath id="ab"><path d="M144 411h4v6h-4zm0 0"/></clipPath><clipPath id="ac"><path d="M144 398h4v5h-4zm0 0"/></clipPath><clipPath id="ad"><path d="M144 384h3v7h-3zm0 0"/></clipPath><clipPath id="ae"><path d="M144 370h1v8h-1zm0 0"/></clipPath><clipPath id="af"><path d="M144 368h2v3h-2zm0 0"/></clipPath><clipPath id="ag"><path d="M144 357h3v6h-3zm0 0"/></clipPath><clipPath id="ah"><path d="M144 345h4v5h-4zm0 0"/></clipPath><clipPath id="ai"><path d="M144 330h3v7h-3zm0 0"/></clipPath><clipPath id="aj"><path d="M144 316h1v9h-1zm0 0"/></clipPath><clipPath id="ak"><path d="M144 315h3v3h-3zm0 0"/></clipPath><clipPath id="al"><path d="M466 318h2v3h-2zm0 0"/></clipPath><clipPath id="am"><path d="M465 318h3v3h-3zm0 0"/></clipPath><g id="an" clip-path="url(#clip1)"><path fill="#fff" fill-opacity="0" fill-rule="evenodd" d="M0 0h1000v1000H0zm0 0"/><path fill="#d3d3d3" fill-opacity="0" fill-rule="evenodd" d="M162.15234 355.86719l-.23437.29297.0586.23437.11718.17188.17578.23437.29297.34766.11328.0586.11719-.17188.0586-.23438.17577-.17578.46485-.17578h.69922l.23437.29297.28906.8164.0586.17579.17578.23046.35156.23438.69922.69922.17188.17578.23437.34765.23438.41016.28906.58203.41015.46485.23047.23437.23438.17578.11719.23047.17578.29297.17187 1.16406v.23438l.0586.28906.05859.11719.11719.11719.34765.41015.11719.17188.17578.17578.17578.23437.11719.17188.17188.35156.05859.23438.23437.40625.23438-.0586-.17578.17578-.0586.92969h-.58203l-.23437-.11328-.34766.11328-.11719.11719-.05859.29297-.0586.17578-.11718.17187-.46484.29297-.0586.23438-.0586.11328v.64453l.0586.17187v.41016l.0586.0586v.40624l.05859.40625.11719.17579.05859.05859.23047.64062-.0586.29297v.69922l-.05859.58203v.23438l-.0586.23047-.05468.35156v1.92187l.05469.1172h.42578l-.36719.11718-.02344.35156.89063 1.16797 1.74219.53906 1.33984.35938v.53906l.08984.8086.53516.71484 1.51953.26953.89063-.08594.08984 1.16406.53516.1797 1.16015-.1797 2.05469-.98437 1.16016-.36328 1.8789-.17578 1.69531-.1797-.17968.71876-1.51563.08594-1.25.08984-.80469.26953-1.07421.8086.26953.71875.53515.89843-.17968.625-.26563.8086.26563 1.07812.625.89844.80468.17969 1.25-.1797-.26562.72267.09766.5039.05468.29297v.17188l.0586.29296v.40625l.17578.1172.35156.11718h.40625l.29297-.17578.11328-.11719.0586-.11719.11718-.23047.0586-.17578.35156-.46484.23047-.17578.17578-.0586.17578.0586.0586.17578.11718.98828.05469.46875.0586.17188.11718.23437.17578.0586.8164.05859h.28907l.11719.23437.05859.40625.0586.35156v1.10547l.11718.29297.11719.34766.28906.69922.17578.35156.58203.7539.35157.17579.17187.0586.46875.23437.64063.46484.34765.23438.29297.17578.29297.05468.23047.0625.8164.34766.29297.17578.11328.17188.35157.35156.11719.17578.52343.64063v.28906l.0586.35156v.34766l.05859.35156.0586.28906.11718.0586.17188.05859h.17578l.58203.23437.17578.1172.17578.28905.17578.23438.11328.23437.29297.23047.11719.11719v.41016l.0586.05468.28906.23438.23437.11719.0586.11718.11718.17188.0586.11719.23047.23437.05859.17578.23437.0586.1172.05859-.1172.11328-.05859.11719v.11719l-.11719.29296-.11719.28907v.58203l.17579.11719.11718.05859.0586.11719.11719.11719.11328.05859.17578.34765.0586.35157.05858.40625v.17578l-.05859.17578-.11719.69922v.17187l.1172.17579.29296.29296h.40625l.17578.1172.11719.17187.11719.29296v.23438h-.52735l-.23047-.23438h-.23437l-.17578.0586-.0586.69922.0586.34765.11719.17579.17578.41015.11718.23047.28907.46875.17578.05469h.52344l.23437.0586.75781.64062.0586.29296v.23438l.05859.0586.23047.34765v.35156l-.11719.17188v.29297l.29297.28906.29297.17578.17187.0586.29297.17577.29297.1172.58203.40624.28906.23438.29297.17578.21875.16015.01563.01172.23047.17579.64062.52343.17578.23438.1172.17578.17577.17578.11328.17188v.64062l.1172.17578.46874.11719.58203.11719.23438.05859.23047.11328.29297.11719.11328.0586.58593.35156.28907.17187.17578.0625.17578.05469.17578.0586.69922.35155.28906.17579.23438.05468.28906.17578.23437.1172.64063.40624.29297.11719.17187.0586.23438.05859.41015.05859.23047.0586.23438.11718.0586.17188-.41017.17578.46875.0586.0586.29296.11328.23438.17578.05468.23438.0586.17578.05859.40625.11719.64062.23437.11719.17188.0586.23437v.17578l-.0586.1172-.0586.40624.23438.23438.11719.05859.34766.11719.64062.23047.17578.11718.28906.1172.17578.17577.23438.46485.58203 1.10546.17578.17579.34766.17578.17578.11719.35156.11718 1.04688.52344.23437.0586.46485.11327.29297.0586.46484.17578.75781.58203.23438.23438.34765.46484.17578.17578.28907.23438.8164.69921.29297.17579.28906.28906.29297.17578.29297.28906.69531.64063.17578.17578.29297.23437.28907.23438.46875.28906.64062.58203.34766.23438.23437.29297.34766.34765.35156.46485.9336.99218.34765.40625.11719.17579.23437.05859.11328.11719.64454.17578.23047.11328.23437.0586.29297.17577.23047.1172.9336.69921.40624.40625.23438.17578.40625.17578.23437.11719.8164.34766.34766.23437.23438.11719.29297.28906.23047.11719.7578.35156.35157.17188.23047.05859.29297.11719.23437.0586.8711.17577h.8164l.46875.23047.17188.0586.875.69921.46484.1172.29297.05858.17578.0586.23047.0586.46875.05859.34766.05859.35156.0586.40625.05859h.29297l.17187.0586v.23046l.17578.17578h.29297l.34766.0586.35156.05859.69922.11719h.64063l.46484-.23438.29297-.17578.17187-.11719.41016-.17187.28906-.17578.9336-.46485.46875-.29297.52343-.29296.46485-.17188.46484-.17578 1.05078-.46485.28906-.11718.41016-.11719.28906-.11719.52735-.17578 1.51562-.69922.58203-.34765.28907-.0586.29297-.0586.34765-.11718.875-.23047.35156-.11719h.11329l.23437-.05859.875-.23437.23438-.0586h.8125l.35156-.0586.8164-.11718.17188-.0586.35156-.05468.29297-.0586.23047-.05859.8164-.17578.17579-.0586h.34765l.23438-.05859.46484-.11718.75781-.17188.23438-.0586h.34765l.41016-.11718.28906-.0586 1.28516-.05859h.28906l.41016-.0586.23047-.05858h.17578l.875-.1172h.40625l.41015-.11718h.34766l.35156-.11328.8711-.0586h1.75l1.04687.28907.41016.11719.28906.11718.35156.11719.28907.11719 1.05078.17187.28906.0586h.29297l.29297.05859.17187.0586.41016.05859.17187.0586.1172.05858h.11718l.11719.0586.35156.0586h.11328l.41016.0664 1.92187.39453 1.92578.39453 1.51953.44922 1.69532.71875 2.14453.80469 1.60547-.71875 1.42968-.80469 1.16016-1.07813 1.25-.44921 3.03516-.71875 1.875-.35938 2.14453-1.34765 2.23437-1.25391 2.5-1.25781 1.69531-.44922 1.78516-.17969 1.16016-.26953.625.53906 1.33984-.26953.71485-.98828.98437-1.34375.44531-.17969.80469-.35937 1.875-.53907 1.78516-.44921 1.25-.26954 1.16015-.08984 1.69922-.08984 1.96094-.26954 1.25-.08984h.53906l.625-.08984h.89063l2.14453-.17969 2.41015-.17969 2.58985-.08984 1.69531.17969 1.60938.08984 1.42968.35938 1.16016.71875 1.875.98828 1.16015 1.52734.26563.71484.6289.08985.35548.89844.53515.53906.53516 1.52734 1.07422.35938h.53515l-.80469.53515.08985 1.70703.71484 2.69532.89063.80468.89453.98829.71484 1.2578 1.78516.53907 1.51953-.17969.35547 1.34375 1.60937-.80469.98047-.53906.26953.26953.31641-.21484.21875-.14453.80078.44922.44922-.35938h.35547l.53515-.26953.53907-.71875.53515-.26953.625-.98828 1.16016.44922.83984.3711 1.39454.61718 1.6953-.17969h1.60548l1.78515.08985.17969-1.70704.53516-1.34375.80468.26954.4922.84765.40233.40625-.08984.53906v.35938l.71485.44922.71093-.26953h1.42969l.35938.98828.4453 1.25781.71485 1.34375 1.25.6289 1.69531.62891.71485-.17969.17969-.53906.98046-.08984.44922.35937.08594 1.25782-.26563.6289-.53515.17969v.53906l.71484.98438.26563.53906.98437.98828.80078 1.07813-.26562.35937-.08985.89844-.625 2.33203-.35546 2.0664-.08985 1.79298-.17969.71875-.08984.53906v1.4375l-.98047 1.88281-.35937 1.70703-.53516.89844-.80469 1.16797-.26562.53906 2.05469 1.2539.08593.35938-.35546.53906-.08985-.17968v.80859l.08985 1.4375-.44532.71484-1.07422.09375-.26562.71485.53515.89844.8047.71875 1.16015.80859 1.33984.26953.44531.35938-.35546.44921-1.78907-.08984-1.25-.44922-.71484-.71875-.625-.08984-.17578 3.58984-.1875 1.3086h89.35937V311.70313h-55.26953v49.08203l.76172.125 3.28906.54296 2.02344 2.83594v2.7539l2.35156.33204 2.34766.33203h4.05078l-1.3789 4.16016-2.02344.70703-2.02344.70312-.54297.34375-2.59375 1.6172-.1875.11718-2.02344-2.07813-.73046-2.74218-2.67188-2.07813-1.375-3.5-.0664-.08203-1.95704-2.67188 2.75-1.41796v-49.08204H294.42187v91.41407l.1172.03125.1328.01172.07422.07421.10547.04688.08985.0586.08593.05859.08985.0586.29687.29687.0586.08984.03125.11719.02734.11719.01563.13671-.03125.1172-.0586.08983-.0586.08594-.04296.10547-.04688.10156-.02734.1211v.14453l.17578.26953.14844.14844.07422.08594.07422.07421.04296.10547.0625.08985.0586.08593.04297.10547.0586.08985.04687.10156.04296.10547.0586.08594.11719.17968.07421.07422.0625.08594.0586.08984.04297.10547.0586.08985.05858.08593.0625.08985.0586.08984.04297.10156.11719.17969.07421.07422.0586.08594.07422.07421.08984.0586.10547.04687h.14844l.1328-.01562.13282.01562.10156-.04687.07422-.07422.04688-.10156-.01563-.13281v-.14844l-.04687-.10547-.02735-.11719-.04687-.10156-.02735-.1211-.04296-.10156-.0625-.08984-.04297-.10156-.04297-.10547-.03125-.11719-.01563-.13281-.01171-.13672.08593-.0586.0586-.08593.12109-.03125.04297.10547.01562.1328v.1172l.0586.10156.0586.08984.08983.0586.14844.14843.0586.08985.04296.10547-.01171.10156.08593.0586.10547.04687.08594.0586.08984.05858.07422.07422-.11719.02735-.10546.04687-.08594.0586-.07422.07421-.0586.08985-.0625.08594-.02734.12109-.04687.10156-.04297.10547-.03125.11719-.01172.13281-.01563.13281v.14844l.02735.11719.04687.10547.04297.10156.0586.08984.07421.07422.08985.0586.07422.07421.08984.0586.0586.08984.04296.10547.04688.10156.11719.03125.1328.01563h.14845l.11718-.03125.10547.04297.04297.10547.04688.10156.02734.1211L299.5 410l.02734.11719.03125.1211.02735.11718.10547.04297.10156.04687.13281-.01562.14844.14844.0625.08593.07422.07422.07031.07422.08984.0625.10547.04297.10156.04297.1172.03125.13671.01562.11719-.03125.07422-.07422.02734-.11718-.01172-.13282-.03125-.12109-.02734-.11719.04297-.10547h.11719l.08984.0625.11719.02735h.14843l.13282.01562h.14843l.13282.01563.1328-.01563h.14845l.1328-.01562.13282-.01172.13672.01172.11719-.02735.13281-.01562.1914-.0586-.05859.17579-.01562.1328-.02735.1211-.01562.13281-.0586.08594-.1328.01563-.10548.04687-.10546.04297-.1172.03125-.11718.02735-.26563.03125h-.14843l-.13281.01562-.07422.07422.05859.08594.14844.14843.11719.1797.07421.0703.08985.0625.08984.0586.08594.0586.08984.05858.10156.04297.10547.0625.10547.04297.08594.0586.10547.04687.10156.04297.17969.11719.0586.08984-.04298.10156-.04687.10547.01562.13281.22266.22266.0586.08985.04296.10156.03125.1211.04297.10155.01563.13282.03125.11718.01171.13672.03125.11719.14844.14844.10156.04297.10547.04296.1172.03125.1328.01563.13672.01563h.11719l.11719-.03125.08984-.0586.04297-.10547.04688-.10156.04296-.10547.03125-.11719.01172-.1328v-.14845l-.01172-.1328-.01562-.13282-.03125-.11719-.04297-.10547-.04688-.10547-.04296-.10156-.04297-.10547-.01563-.13281.01563-.13281.02734-.11719.03125-.11719.02735-.1211.04687-.10155.08984-.0586.08594-.0625.07422-.07422.08984-.05859.22266-.22266.0586-.08593.07421-.07422.11719-.17969.0586-.08594v-.14844l-.07423-.07421-.10156-.04688-.10547-.04297-.10156-.04297-.0586-.08984-.04687-.10547-.02734-.11719.08984-.05859.11719-.03125.10156-.04297.17969-.11719.14844-.14843.01172-.13282-.01172-.10546-.08985-.0586-.1328.01563h-.14845l-.1328.01562-.13282-.01562-.1211-.03125-.08593-.0586-.07422-.07422-.0586-.08984-.0625-.08594-.11718-.17969-.0586-.08593.03125-.1211.08594-.05859.1211-.03125.05859-.08594v-.1211l-.03125-.11718-.0586-.08984-.05859-.08594-.04687-.10547-.02735-.11719-.01562-.1328.0586-.08985.07421-.07422.08984-.0586.1172-.17968.07421-.07422.0586-.08594.14843-.14844.1211-.03125.1328-.01562.13282.01562.07422.07422.04297.10547.01562.13281-.03125.1172-.11719.03124-.1328.01172-.14844.14844-.04297.10547-.04688.10156-.02734.1211-.03125.11718v.14844l.03125.11719.04297.10546.05859.08985.07422.07031.07422.07422.11719.03125.12109.02734.11719-.02734.1328-.01563h.1172l.08984.0586.07422.07422.04687.10546.0586.08594.10156.04688.13281.01562.10547.04297.08594.0586-.01172.10546-.07422.07422-.17969.11719-.05859.08984-.08984.0586-.07032.07422-.07421.07421-.0625.08985-.02735.11719-.01562.1328.01562.13282-.01562.13281v.14844l.01562.13281.02735.1172.03125.12108.07421.07422.08985.0586.08594.0586.08984.05858.11719.03125v.08594l-.10157.04688-.08984.0586-.26563.03124-.11718.02735h-.14844l-.10547.04296-.10156.04688-.0586.08984-.0625.23438-.01171.13281-.03125.1211-.01563.1328v.29298l-.01172.1328.01172.13673.01563.1328.1328.01563.13282.01172.1211.03125.08593.0586.07422.07421.04688.10547.04296.10157.01563.1328v.44532l-.01563.13281v.44532l.03125.26562.02735.11719.01562.13281.03125.11719.08594.21094.03125.26562v.14844l-.03125.11719-.02734.11718-.03125.1211-.02735.11719-.03125.11718-.03125.1211-.01171.1328-.01563.13282.08984.0586.1172-.03125.10155.01562.04688.10547-.03125.26562v.44141l-.04297.10547-.04688.10547-.04296.10156-.04297.10547-.0586.08594-.03125.12109-.04296.11719-.03125.11719-.01563.1328.01563.13282.05859.08984.10547.04688.08594.0586.05859.08593-.01172.13672-.03125.11719-.04297.10156v.44531l-.01562.13281v.14844l-.03125.11719-.04297.10547-.02735.11719-.04687.10546-.04297.10157-.03125.12109-.02734.11719-.03125.13281-.03125.11719-.02735.11719-.04297.10546-.03125.1172-.03125.12108-.01171.13282-.01563.13281v.29688l.02734.11718v.14844l.04688.39844.02734.11719.0586.08984.12109.03125h.14844l.13281-.01563.0586.08985v.11719l-.0586.08984-.08984.0586-.10157.04296-.10546.04688-.08985.05859-.08594.0586-.13671.01562-.1172-.03125-.1328-.01563-.10157.04688-.0625.08594-.01172.13671-.01562.13282-.03125.11719-.02735.11718-.01562.13281-.03125.1211v.29687l.01563.13282.03125.11718v.14844l.01171.13281v.14844l-.02734.11719-.04688.10156-.02734.1211-.03125.11718-.0586.08985-.07421.07421-.10156.04297-.10547.04688-.11719.02734-.1211.03125-.10156-.04687.0586-.08594.10547-.04688.02734-.11718.03125-.11719.02734-.1211.03125-.11718v-.14844l.01563-.13281-.03125-.11719-.04297-.10547-.10547.01563-.07422.07422-.10156.04296-.08984.0625-.07422.07422-.04297.10157-.01563.1328-.03125.1172L304.25 426l-.03125.11719-.02734.11719-.03125.12109-.02735.11719-.03125.11718-.04297.10547-.08984.0586h-.08984l-.1172-.03125-.03124-.08594.01562-.13672-.03125-.11719v-.14844l-.01171-.1328v-.14844l-.0625-.23438-.02735-.1211-.04297-.10156-.04687-.10546-.0586-.08594-.05859-.08985-.04297-.10546-.0625-.08594-.14844-.14844-.0703-.07422-.10548-.04687-.10547-.04297-.10156-.04297-.29687-.29688-.08985-.07421-.08594-.0586-.10546-.04297-.08985-.0625-.08594-.0586-.10546-.04296-.08985-.0586-.08594-.0625-.07421-.0703-.10547-.04688-.08594-.0586-.10547-.04296-.08984-.0625-.10156-.04297-.10547-.04297-.08594-.0586-.10547-.04687-.10547-.04297-.10156-.04687-.08985-.0586-.10156-.04297-.10547-.04296-.08984-.0625-.11719-.02735-.13281-.01562-.13281.01562H299.75l-.13281.01563-.11719-.03125-.08984-.0586-.07422-.07422-.08985-.05859-.10156-.04688h-.14844l-.12109-.02734-.10156-.04297-.07422-.07422-.11719-.17968-.08984-.0586-.10156-.04297-.08985-.0625-.10547-.04296-.08984-.0586-.08594-.0586-.10547-.04687-.0586-.08594-.05858-.08984-.04297-.10547-.04688-.10156-.07422-.07422-.08594-.0586-.07421-.07421-.08985-.0586-.22265-.22265-.04297-.10547-.03125-.26563.10547-.04296h.14453l.10547.04296.07421.07422.08985.0586.08594.0586.10546.04687.08985.05859.14844.14844.0703.07422.14845.14843.0625.08594.07421.07422.08594.0586.07422.07421.08985.0625.08984.0586.08594.05859.26953.17578.10156.04688.10547.04296.10156.04297.04688-.07421.05859-.08594.07422-.07422.07031-.07422.10547.04297.07422.07422.0586.08984.04296.10156.04688.10547.04296.10547.1211.02735.11719-.02735.07421-.08984.04297-.10547.0586-.08985.07422-.07421.10546-.04297.1172-.02735.1328.01172.08985.0586.14844.14843.05859.08985.04297.10547.04687.10156.04297.10547.04297.10156.10547.04688.10547.04296.13281.01563.08594-.0586.0586-.08984.07421-.07422.10547-.04297.11719.02735.10547.04687.10156.04297.10547.04297.10156.04688.17969.11718v.11719l-.01563.13281.01563.13281.01562.13672.0586.08594.10156.04688.1211.02734.11718.03125h.14844l.11719-.03125.05859-.08984.17969-.1172.05859-.08983.07422-.07422.0586-.08594.11718-.17969.17969-.11719.11719.03125.08984.0586.04297.07422-.01563.1328v.1172l.08985.05859h.14843l.13282-.01563.1328-.01171.26563-.03125.10547-.04297.11719-.03125.1211-.02735.07421-.07421.07031-.07422.0625-.08985-.01562-.10547-.04688-.10156-.10156-.04297-.10547-.01562-.11718.02734-.26563.03125h-.14844l-.07421-.07422-.08985-.0586-.11719-.03124-.11718-.02735-.13282-.01562h-.14843l-.13282.01563h-.29687l-.10547-.04688-.14844-.14844-.04297-.10156-.05859-.08984.22266-.22266.08593-.0586.10547-.04296.11719-.03125.13281-.01563.13281.01563.13672.01562.10157.04297.1328-.01172.08985-.0625.10156-.04297.0625-.08984-.04687-.10156-.08984-.0586-.1172-.03125-.10155-.04296-.0586-.08985-.0625-.08984v-.11719l.01563-.13281.10547-.04688.07421-.07031v-.1211l-.08984-.05859-.03125-.11719.08985-.05859.07421-.07422.04297-.10547.0586-.08984.04687-.10156.01563-.13281v-.14844l-.04688-.10547-.04297-.10156-.08984-.0586-.13281-.01562-.10157-.04297-.13671-.01563-.1172-.03125h-.4453l-.13282-.01562-.13281-.01172-.13281-.01563-.11719-.03125h-.14844l-.13281-.01562-.13281-.01172-.26563-.03125-.1211-.04297-.08593-.0586-.07422-.07421v-.14844l.01172-.13281.10547-.04688.10156-.04296.13281-.01563h.15235l.13281-.01562h.29297l.1211.03125.10156.04296.08984.0586.23438.0625.12109-.04688.08984-.05859.10156-.04297.13282-.01562.10547.04296.10156.04688.13281.01172.1211-.02735h.14453l.12109-.03125.11719-.02734.10547-.04687.07421-.07422.08594-.0586.14844-.14843.0586-.08594.04687-.10547.02734-.11719.01563-.10547-.10156-.04296-.08985-.0586-.11719-.03125-.10546-.04297-.08985-.0625-.07422-.08594-.07422-.07421-.10156-.04297-.10547-.04688-.10156-.04297-.0586-.08984-.04687-.10156-.08594-.21094-.0625-.08594-.05859-.08984-.07422-.07422-.08594-.0586h-.26953l-.11719.03126-.08984.05859-.10156.04297-.13281.01562-.10547-.01562-.02735-.11719-.0625-.08984-.11718-.03125-.10157-.04297-.14843-.14844-.03125-.11719-.01563-.10546.07422-.07422.17969-.1172.11719-.02733.11718-.03125.13672.01562.10156.04297.10547.04297.10156.04687.10547.04297.1172.03125.1328.01563.1172.02734.1328.01563.10547-.01563.08985-.0586-.07422-.07421-.10547-.04297-.07422-.07422-.07422-.08984-.14844-.14844-.08593-.0586-.08985-.05859-.07422-.07422-.08984-.0586-.10156-.04687-.1211-.02734-.10156-.04688-.10547-.04296-.11719-.03125-.10156-.04297-.1211-.03125h-.14843l-.11719.03125-.10546.04297-.08594.0625-.17969.11718-.08594.0586-.08984.0586-.10547.04687-.08594.05859-.10547.04297-.10156.04297-.10547.04687-.07422.07422-.05859.08985-.0586.08593-.04687.10547-.0586.08594-.07421.07422-.13281-.01172-.1172-.03125h-.11718l-.07422.07422-.08984.0586-.07422.07421-.08984.0586-.08594.05859-.10547.04687-.10156.04297-.13672.01563-.10156-.04297-.14844-.14844-.10547-.04688h-.08594l-.10547.04688-.10156.04297-.1211.03125-.11718-.03125-.07422-.07422v-.11719l.03125-.1211.07422-.0703.0586-.08985.07421-.07422.11719-.03125.10547-.04296h.29297l.13281-.01563.13672-.01563.10156-.04296.08985-.0586.10156-.04687.08984-.0586.13281-.01171.08985.05859.13281.01172.08984-.0586.08594-.05859.10547-.04297.08984-.0586.08594-.0625.08985-.05859.14843-.14843.0586-.08594.05859-.08985.10547-.04296.13281-.01563.11719.02735.1211.03125.05859-.0586.05859-.08984.03125-.26563.02734-.11719.10547.01172.13281.01563.10157-.04297.08984-.0586.0586-.08984.07421-.07422.0586-.08984.04687-.10156.01172-.13281-.01172-.13282-.04687-.10547-.14844-.14843-.0586-.08985-.05859-.08594-.04297-.10546v-.44532l.01563-.1328v-.14845l.01172-.1328-.0586-.0586-.08984.0586-.10156-.04298-.17969-.11719-.08594-.05859-.0625-.08984-.0586-.08985-.07421-.07421-.08594-.0586-.1211.03125-.10155.01172-.10547.04688-.08594.05859-.10547.04297-.14844.14844-.08984.05859-.08594.0586-.08984.0625-.10547.04296-.13281.01563v-.1211l.10547-.04297.11718-.03125.07422-.0703.04297-.10548v-.14844l-.02734-.11718-.14844-.14844-.13281-.01563h-.14844l-.11719.03125-.10547.04297-.10156.04297-.08984.0625-.11719.02735-.07422-.07422.01172-.13281-.04297-.10157-.04297-.10547-.08984-.05859-.11719.02734-.1211.03125-.11718.03125-.10156.04297-.1211.03125-.10156.04297-.10547.04297-.08984.0586-.10156.01562v-.11719l.01562-.13281-.0586-.08985-.07421.04297-.14844.14844-.0586.08985-.07421.07421-.04688.10547-.04296.10156-.07422.07422-.0586.08985-.07422.07422-.05859.08593-.07422.07422-.08984.0625-.07422.07031-.07422.07422-.10156.01563-.13281.01562-.10547-.04296v-.1211l.14843-.14844.04297-.10156.0586-.08984.04687-.10156.04297-.10547.0586-.08985.03124-.11719.04297-.10156.03125-.1211.02735-.11718.04687-.10547.04297-.10156.04297-.10547.07422-.07031.08984-.0625.08985-.0586.10156-.04296h.29687l.26563-.03125.10547-.04297-.07422-.07422-.11719-.03125-.10547-.04297-.08984-.0586-.10156-.04687-.08985-.0586-.10156-.04296-.10547-.04297-.08984-.0625-.08594-.0586-.10547-.04296-.10156-.04297-.1211-.03125-.11718-.03125-.10157-.04297L297.5 410.25l-.10156-.04297-.08985-.0586-.04296-.10546-.01563-.13281.10156-.04297.13281-.01563.13672.01563.13282-.01563.10156-.04297.0586-.08984.01562-.10547-.08985-.0586-.07421-.07421-.10157-.04297-.08984-.0586-.14844-.14843-.04297-.10547-.01562-.13281v-.29297l-.0586-.08985-.08984-.05859-.07422-.07422-.04297-.10547-.03125-.11718-.0586-.08985-.07421-.07422-.11719-.02734-.07422-.07422-.08984-.0586-.08984-.0625-.08594-.05859-.07422-.07421-.0586-.08594-.04687-.10547-.08594-.0586-.14843-.14843-.19532-.0586-.1328.01563-.10157.04297-.07422.07422-.04688.10156-.04296.10547-.0586.08984-.0586.08594-.29687.29687-.08984.0586h-.08594l-.0625-.08594-.04297-.10547.03125-.11719.0586-.08984.02734-.11719-.01172-.13281-.08984-.0625-.10547.04688-.11719.02734-.11719.03125-.26953.17578-.10156.04688-.11719.02734-.10546.04687-.08985.0586-.10156.04297-.0586-.08594-.04687-.10547.01563-.13281.04687-.10547.07031-.07422.07422-.07031.0586-.08985v-.14843l-.04297-.10547h-.23829l-.10156.04687-.03125.11719-.02734.11719-.03125.1211-.07422.04296-.13281.01563-.07422-.04688-.04297-.10156-.04297-.10547-.04687-.10156-.04297-.10547-.1211.03125-.10156.04297-.13281.01562-.11719.03125-.10547.04297-.08984.0586-.10156.04687-.1211.02734-.13281.01563-.10156-.04297-.0586-.08985-.04687-.10546-.04297-.10157-.04297-.10546v-.1172l.0586-.08984.08593-.05859.17969-.11719.10156-.04687.10547-.04297.10547-.0586.10156-.04296.08985-.0625.10156-.04297.10547-.0586.10156-.04687.08984-.0586.10547-.04296.10156-.04297.08985-.0625.10156-.04297.13672-.01563.11719.03125.10156.04297.1211.03125.10156.04297.10546.04688.10157.04296.10547.04297.10156.04688.10547.04297.10156.04297.10547.04687.08594.0586.10546.04296.1172.03125.10546.04297.10156.04688.08985.0586.10547.04296.10156.04297.10547.04687.11719.02735.10156.04687.1211.02735h.14843l.08594-.0586.01562-.10156.0586-.08984-.02735-.1172-.07422-.07421-.11719-.17969-.07421-.07422-.08985-.07421-.17969-.1172-.08593-.05859-.10547-.04296-.10156-.04688-.26954-.17578-.05859-.08985-.07422-.07421-.0586-.08985-.04296-.10156-.03125-.11719-.01563-.13672v-.5625l-.01171-.1328-.01563-.13282-.03125-.11719-.01562-.13281-.01172-.13281-.03125-.1211-.22266-.22265-.0586-.08594-.01562-.10547.03125-.11719.13281-.01562v-91.41406H172.9922v1.45312l-.0586.23438-.35156 1.05078-.17187.52343-.1172.34766-.17577.41016-.11719.17187-.23438.29297-.23046.0586h-.35157l-.11718.05859-.23047.40625v.29297l.11719.17578.23046.23047.1172.23437.64062.75781.29297.46485.17578.23437.23047.35156.23437.34766.64063.8164.17578.46485.17187.41016.11719.69531.17578.46875.11719 1.39844.0586.46484v.875l.11718 1.04688v4.78125l-.0586.46484-.35156 1.28125-.17578.52344-.11328.41015-.35156.9297L172.93359 336l-.23437.58203-.11719.17578-.17187.34766-.17578.40625-.35157.8164-.0586.29297-.11327.29297-.11719.28906-.0586.17579-.11718.875-.0586.40625-.05859.11718-.0586.17579-.05859.17187-.23047.52734-.11718.17188v.23437l-.11719.23438-.0586.17187-.17577.58594v.28906l-.0586.17579v.29296l-.0586.11329-.05859.52734v.17187l-.05468.23438v2.6211l-.17578.8164-.1172.17578-.17577.23438-.1172.17187-.11327.23438-.58594.93359-.23047.28906-.29297.46485-.17578.23437-.28906.35156-.35156.69922-.11328.23047-.17579.41016-.17578.23046-.40625.52735-.8164.69922-.29297.17187-.28906.23438-.17579.11719-.17578.17578-.52344.40625-.52734.17578-.17187.17578-.23438.05469-.64062.17578h-.75782m12.21094 31.02344l-1.07422.44921.35938.89454 1.25-.71485.44531-.53906-.98047-.08985"/><path fill="#d3d3d3" fill-opacity="0" fill-rule="evenodd" d="M201.50781 416.59766h-.89453l.44922.6289.98047.35938.80469-.08985.4453-.98828-.17577.08985-.71485-.35547-.89453.35547m154.6211 59.0703l-.0586-.52343v-.29297l.11328-.29297.0586-.23046.46875-.46875h.11328l.11719-.11329.11718-.05859h.17579l.23437-.0586h.34766l.23437.0586.11719.0586.23047.17187.0586.17578.11718.58203v.29297l-.11719.17578-.17187.28906-.17579.17579-.52734.52343-.23047.23438-.11719.0586h-.17578l-.11718-.0586-.40625-.29297-.17579-.11719-.11718-.0586-.0586-.11327-.05468-.1172m6.64062-10.95702l-.0586-.17188v-1.10937l.0586-.17188.17578-.0586.17188-.05858h.17578l.23437-.0586.1172.0586.05858.69921-.05859.17188-.11719.17578-.11718.0586-.23438.52343-.11328.0586h-.23438l-.05859-.1172m9.61328-14.39062l-.11719-.17578v-.69922l.29297-.875.1172-.17187.17577-.35156.11328-.23047.1172-.29297.35155-.75781.1172-.23047.17187-.23438h.17578l.11719-.0586h.64062l.11719.0586.23437.23438.17188.11328.35156.29297.11719.11718.11328.17579v.11328l.11719.05859.11718.11719v.69922l-.05859.17578v.23047l-.0586.17578-.34765 1.05078-.11719.23047-.11719.23437-.11718.0586-.23047.23437-.64063.28906h-.875l-.41015-.11718-.64063-.46485"/><path fill="none" stroke="#bebebe" stroke-linecap="round" stroke-linejoin="round" stroke-miterlimit="10" stroke-width=".5" d="M467.95703 311.69531H144.02734v168.625h323.9297v-168.625"/><g clip-path="url(#a)"><path fill="#fff" fill-opacity="0" fill-rule="evenodd" d="M144 475.89063v4.4375h.0039H144v-33.51954 29.08204"/></g><g clip-path="url(#b)"><path fill="#fff" fill-opacity="0" fill-rule="evenodd" d="M144 440.38281v2.79297-131.5039h.0039H144V440.3828"/></g><path fill="#50fcfc" fill-rule="evenodd" d="M144 443.17578v3.63281l.0039-.0039v-3.625l-.0039-.0039"/><g clip-path="url(#c)"><path fill="#fff" fill-opacity="0" fill-rule="evenodd" d="M144.0039 480.32813v-33.52344l1.40626-1.98438-1.40625-1.64062V311.67188h84.32422v108.78125l-4.4375 1.23046-1.45704.94532-2.98047 2.64062-4.4375-.07031-1.41406 1.8711-3.02734 2.14843-4.4375.5625-4.4375 1.58984-.19531.13672-.8047 4.4375-3.4375 1.1289-4.4414 2.34767-4.38672.96093-.05078.0039-.00781-.0039-4.42969-1.6836-4.4375-1.16015-2.07812-1.59375-2.36328-1.4414-4.4375.5664-1.10938.875-3.16016 4.4375-.16796.36328-.22657-.36328-4.21093-2.52344-2.40625 2.52344.65625 4.4375-.59766 4.4414-.78516 4.4375.58985 4.4375L161.7539 462.5l3.39062.07422 1.04688.02734.09375-.02734 4.34375-.53906 4.4375-.00782 4.4414-2.1953 4.4375.08983 4.4375-1.66406.28906-.1211 4.14844-.93358 4.4414-.51172 4.4375-.00391 4.4375-.9414 4.4375-1.75782.6797-.28906 3.76172-1.50781 2.41015-2.9297 2.02734-1.32421 2.75391-3.11719 1.6836-2.6836 4.4375-1.27733 4.4375 3.18359v1.60937l-2 3.60938.85156 4.4375 1.14844.73437 4.4414.08594 4.4375.34375 1.73047-1.16406-1.73047-1.1875-4.4375.46094-2.3711-3.71094-2.0703-3.60938v-1.60937l4.4414-1.27344 4.4375 1.35547 4.4375-.65625 2.77734-3.08594-2.77734-3.14844-2.32422-1.28906-2.11328-2.08594-4.4375-1.73437-2.35937-.61719-2.08203-2.65234-2.375-1.78516 2.375-2.6289 1.2539-1.8125-1.2539-1.34766-4.4375-.82813V311.67188h44.3828v115.875l-4.4375 1.07422-4.4375.71094-2.33984 2.17578-2.09765.75781-4.4414.9922-2.4375 2.6875 2.4375 2.17187 4.4414 1.33594 3.17578-3.50782 1.26172-2.8125 4.4375 1.22656 4.4375.69532v7.70312l-4.4375 1.1914-1.83594.8711-2.60156 2.32031-2.8164 2.1211.55468 4.4375 2.26172 2.1211 4.4375.20312 4.4375-.10547 4.4414-1.1875.73438-1.03125 3.70312-2.88281 1.17188-1.5547 1.48828-4.4414-2.66016-1.45703-4.4375.1211-4.4414-.72657v-7.70312l4.4414.30078.25391.58984 4.1836 3.8086 4.4375.125 4.4375-.64844 3.13671-3.28516-3.13672-3.33594-4.4375-.71875-.73828-.3828-3.69922-3.4297-4.4375-.18359-4.4414-.34765v-115.875h75.45312v121.72656l-2.47656 2.54687 2.47656 2.78125.73047 1.65625 3.70703 3.53516 4.2539-3.53516-4.2539-3.51953-1.95703-.91797-2.48047-2.54687V311.67188h26.6289v130.8828l-2.21483 2.26563-2.22266 2.70313-1.46485 1.73828-2.93359 4.4375-.03906.08203-3.48828 4.35547-.94922 3.15234-.42969 1.28516.42969.36719 4.4375.97265 4.4375-.33594 4.4375.41016 3.90625 3.02735.1211 4.4375.41406.51562 4.4375 1.22656 2.52343-1.74219 1.91406-.59375 3.34375-3.84375 1.09375-.96875 3.60547-3.47265-.10156-4.4375-3.5039-3.58594-4.4375-.01953-.71485-.83203-3.72265-3.9336-4.4375.33985-.39454-.84375-1.36328-4.4414-2.6836-2.26563V311.67188h93.20313v163.61718l-.55859.60156.5586.75391v3.6836H144.0039"/></g><path fill="#50fcfc" fill-rule="evenodd" d="M145.41016 444.82031l-1.40625 1.98438v-3.625l1.40625 1.64062m13.80078 13.3164l-.58985-4.4375.78516-4.4375.59766-4.4414-.65625-4.4375 2.40625-2.52344 4.21093 2.52344.22657.36328.16797-.36328 3.16015-4.4375 1.10938-.875v16.4961l-2.37891 2.1328-2.0586 2.75782-1.5664 1.67969 1.5664.66015 4.4375.04297 1.58985-.70312 2.11719-4.4375-3.70703-2.13281v-16.4961l4.4375-.5664v10.2539l-.46875.0625.46875.04297.05078-.04297-.05078-.0625v-10.2539l2.36328 1.4414 2.07812 1.59375v10.80469l-1.01953.91797 1.01953 4.32031 2.46485-4.32031-2.46485-.91797v-10.80469l4.4375 1.16016 4.42969 1.6836.00781.0039.05078-.0039 4.38672-.96094v8.54296l-4.38281 1.29688 4.38281 4.32422 3.07031-4.32422-3.0703-1.29688v-8.54296l4.4414-2.34766 3.4375-1.1289.80469-4.4375.1953-.13673 4.4375-1.58984v19.26953l-3.54296.21094 3.54297.1289.23828-.1289-.23828-.21094v-19.26953l4.4375-.5625 3.02734-2.14844 1.41406-1.8711 4.4375.07032 2.98047-2.64062 1.45703-.94532 4.4375-1.23046 4.4375.82812 1.25391 1.34766-1.2539 1.8125-2.375 2.6289 2.375 1.78516v5.71094l-1.69141 1.3789 1.6914 1.52344 4.44141.25781 1.125 2.65625 3.3125 1.9414 4.40234-1.9414-4.40234-2.80078-3.1914-1.63672-1.2461-.7539-4.4414-.625v-5.71094l2.08203 2.65234 2.35937.61719 4.4375 1.73438 2.11328 2.08593 2.32422 1.28906 2.77734 3.14844-2.77734 3.08594-4.4375.65625-4.4375-1.35547-4.4414 1.27344-4.4375-3.1836-4.4375 1.27735-1.6836 2.6836-2.7539 3.11718-2.02735 1.32422-2.41016 2.92969-3.76171 1.5078-.6797.28907-4.4375 1.75781-4.4375.94141-4.4375.0039-4.4414.51173-4.14844.93359-.28906.1211-4.4375 1.66406-4.4375-.08985-4.4414 2.19531-4.4375.00782-4.34375.53906-.09375.02734-1.04688-.02734-3.39062-.07422-2.54297-4.36328"/><path fill="#00e8fc" fill-rule="evenodd" d="M166.1914 458.79688l-1.5664-.66016 1.5664-1.67969 2.0586-2.75781 2.3789-2.13281 3.70704 2.1328-2.11719 4.4375-1.58984.70313-4.4375-.04296"/><path fill="#fff" fill-opacity="0" fill-rule="evenodd" d="M175.0664 444.75781l-.46874.0625.46875.04297.05078-.04297-.05078-.0625"/><path fill="#00e8fc" fill-rule="evenodd" d="M179.50781 453.58203l-1.01953-4.32031 1.01953-.91797 2.46485.91797-2.46485 4.32031m13.3125.0039l-4.38281-4.32421 4.38281-1.29688 3.07031 1.29688-3.0703 4.32422m13.3164-4.19531l-3.54297-.12891 3.54297-.21094.23828.21094-.23828.1289"/><path fill="#50fcfc" fill-rule="evenodd" d="M231.61719 453.69922l-.85156-4.4375 2-3.60938 2.0703 3.60938 2.3711 3.71094 4.4375-.46094 1.73047 1.1875-1.73047 1.16406-4.4375-.34375-4.4414-.08594-1.14844-.73437"/><path fill="#00e8fc" fill-rule="evenodd" d="M232.76563 437.46875l-1.69141-1.52344 1.6914-1.3789 4.44141.625 1.2461.7539 3.1914 1.63672 4.40234 2.80078-4.40234 1.9414-3.3125-1.9414-1.125-2.65625-4.4414-.25781"/><path fill="#50fcfc" fill-rule="evenodd" d="M254.95703 438.11719l-2.4375-2.17188 2.4375-2.6875 4.4414-.99219v2.40235l-2.12109 1.27734 2.1211 1.21485L260.5 435.9453l-1.10156-1.27734v-2.40235l2.09765-.7578 2.33985-2.17579 4.4375-.71094 4.4375-1.07421v2.17968l-2.97266 1.78125 2.97266 1.59375 4.4414-.55469 1.46875 3.39844 2.96875 2.69922 4.4375-.60156 4.4375-1.48047.58985-.61719-.58985-.6289-4.4375-1.53125-4.40625-2.27735-.03125-.03125-4.4375-.94531-4.4414-.80469v-2.17969l4.4414.34766 4.4375.1836 3.69922 3.42968.73828.38281 4.4375.71875 3.13672 3.33594-3.13672 3.28516-4.4375.64844-4.4375-.125-4.18359-3.8086-.2539-.58984-4.44141-.30078-4.4375-.69531-4.4375-1.22657-1.26172 2.8125-3.17578 3.50781-4.4414-1.33593"/><path fill="#00e8fc" fill-rule="evenodd" d="M259.39844 437.16016l-2.1211-1.21485 2.1211-1.27734L260.5 435.9453l-1.10156 1.21485"/><path fill="#50fcfc" fill-rule="evenodd" d="M261.57422 453.69922l-.55469-4.4375 2.8164-2.1211 2.60157-2.3203 1.83594-.8711 4.4375-1.1914 4.4414.72656 4.4375-.1211 2.66016 1.45703-1.48828 4.4414-1.17188 1.5547-3.70312 2.8828-.73438 1.03126-4.4414 1.1875-4.4375.10547-4.4375-.20313-2.26172-2.1211"/><path fill="#00e8fc" fill-rule="evenodd" d="M272.71094 433.10156l-2.97266-1.59375 2.97266-1.78125 4.4414.80469 4.4375.94531v3.0586l-.9375 1.41015.9375.85547 2.63672-.85547-2.63672-1.41015v-3.0586l.03125.03125 4.40625 2.27735 4.4375 1.53125.58985.6289-.58985.61719-4.4375 1.48047-4.4375.60156-2.96875-2.69922-1.46875-3.39844-4.4414.5547"/><path fill="#00d4fc" fill-rule="evenodd" d="M281.58984 436.80078l-.9375-.85547.9375-1.41015 2.63672 1.41015-2.63672.85547"/><path fill="#50fcfc" fill-rule="evenodd" d="M348.16406 438.72656l-2.47656-2.78125 2.47656-2.54687 2.48047 2.54687 1.95703.91797v1.45703l-2.17187 2.0625 2.17187 2.07422 2.4961-2.07422-2.4961-2.0625v-1.45703l4.2539 3.51953-4.2539 3.53516-3.70703-3.53516-.73047-1.65625"/><path fill="#00e8fc" fill-rule="evenodd" d="M352.60156 442.45703l-2.17187-2.07422 2.17187-2.0625 2.4961 2.0625-2.4961 2.07422"/><path fill="#50fcfc" fill-rule="evenodd" d="M361.48047 462.9414l-.42969-.36718.42969-1.28516.94922-3.15234 3.48828-4.35547.03906-.08203 2.9336-4.4375 1.46484-1.73828v5.34765l-.6211.82813.6211.88672 1.4336-.88672-1.4336-.82813v-5.34765l2.22265-2.70313 2.21485-2.26562v15.23437l-.6211.34766.6211.89062.36719-.89062-.3672-.34766V442.5547l2.6836 2.26562 1.36328 4.4414.39454.84376 4.4375-.33985 3.72265 3.9336.71485.83203v3.75781l-4.4375.79688-3.125 3.48828 3.125 2.4375 4.4375 1.90234 4.4375-4.3125.02734-.02734-.02735-.10938-4.4375-4.17578v-3.75781l4.4375.01953 3.50391 3.58594.10156 4.4375-3.60546 3.47265-1.09375.96875-3.34375 3.84375-1.91407.59375-2.52344 1.7422-4.4375-1.22657-.41406-.51563-.1211-4.4375-3.90624-3.02734-4.4375-.41015-4.4375.33593-4.4375-.97265"/><path fill="#00e8fc" fill-rule="evenodd" d="M370.35547 454.58594l-.6211-.88672.6211-.82813 1.4336.82813-1.4336.88672"/><path fill="#fff" fill-opacity="0" fill-rule="evenodd" d="M374.79297 457.78906l-.6211.34766.6211.89062.36719-.89062-.3672-.34766"/><path fill="#00e8fc" fill-rule="evenodd" d="M383.67188 465.01172l-3.125-2.4375 3.125-3.48828 4.4375-.79688v1.15235l-3.9336 3.1328 3.9336 3.17188 3.25-3.17187-3.25-3.13281v-1.15235l4.4375 4.17578.02734.10938-.02735.02734-4.4375 4.3125-4.4375-1.90234"/><path fill="#00d4fc" fill-rule="evenodd" d="M388.10938 465.7461l-3.9336-3.17188 3.9336-3.13281v1.15234l-2.48829 1.98047 2.48829 2.00781 2.05468-2.00781-2.05469-1.98047v-1.15234l3.25 3.1328-3.25 3.17188"/><path fill="#00c4fc" fill-rule="evenodd" d="M388.10938 464.58203l-2.48829-2.00781 2.48829-1.98047v1.14844l-1.04297.83203 1.04296.84375.86329-.84375-.86329-.83203v-1.14844l2.0547 1.98047-2.0547 2.00781"/><path fill="#00b8fc" fill-rule="evenodd" d="M388.10938 463.41797l-1.04297-.84375 1.04296-.83203.86329.83203-.86329.84375"/><path fill="#50fcfc" fill-rule="evenodd" d="M467.9961 476.64453l-.5586-.7539.5586-.60157v1.35547m0-1.35547v1.35547l.0039.0039v-1.36327l-.0039.0039"/><g clip-path="url(#d)"><path fill="#fff" fill-opacity="0" fill-rule="evenodd" d="M467.9961 311.67188H468v163.61328-163.61329h-.0039"/></g><path fill="#fff" fill-opacity="0" fill-rule="evenodd" d="M225.01563 424.13672l.55468 5.8164 9.91406-.94921-.55468-5.81641-9.91406.94922"/><path fill-rule="evenodd" d="M233.4375 426.84766l.05078.5078-6.26953.59767-.07422-.78516 4.46875-.42578-.1289-1.38281.55078-.05079.11718.55079.07813.24609.11328.21875.16016.1875.22265.15625.3086.11328.40234.0664"/><g clip-path="url(#e)"><path fill="none" stroke="#000" stroke-linecap="round" stroke-linejoin="round" stroke-miterlimit="10" stroke-width=".5" d="M147.51172 480.3789l-7.02344-.10156"/></g><g clip-path="url(#f)"><path fill="none" stroke="#000" stroke-linecap="round" stroke-linejoin="round" stroke-miterlimit="10" stroke-width=".5" d="M146.49219 480.36328l.5586 1.09375"/></g><g clip-path="url(#g)"><path fill="none" stroke="#000" stroke-linecap="round" stroke-linejoin="round" stroke-miterlimit="10" stroke-width=".5" d="M160.76563 480.98438l-6.90235-1.3086"/></g><g clip-path="url(#h)"><path fill="none" stroke="#000" stroke-linecap="round" stroke-linejoin="round" stroke-miterlimit="10" stroke-width=".5" d="M159.76172 480.79297l.36719 1.17187"/></g><g clip-path="url(#i)"><path fill="none" stroke="#000" stroke-linecap="round" stroke-linejoin="round" stroke-miterlimit="10" stroke-width=".5" d="M174.10938 480.8125l-6.96094-.96875"/></g><g clip-path="url(#j)"><path fill="none" stroke="#000" stroke-linecap="round" stroke-linejoin="round" stroke-miterlimit="10" stroke-width=".5" d="M173.09766 480.67188l.42187 1.15234"/></g><g clip-path="url(#k)"><path fill="none" stroke="#000" stroke-linecap="round" stroke-linejoin="round" stroke-miterlimit="10" stroke-width=".5" d="M187.27734 481.44531l-6.66406-2.23437"/></g><g clip-path="url(#l)"><path fill="none" stroke="#000" stroke-linecap="round" stroke-linejoin="round" stroke-miterlimit="10" stroke-width=".5" d="M186.3086 481.1211l.19921 1.21093"/></g><g clip-path="url(#m)"><path fill="none" stroke="#000" stroke-linecap="round" stroke-linejoin="round" stroke-miterlimit="10" stroke-width=".5" d="M200.54688 481.57031l-6.57422-2.48437"/></g><g clip-path="url(#n)"><path fill="none" stroke="#000" stroke-linecap="round" stroke-linejoin="round" stroke-miterlimit="10" stroke-width=".5" d="M199.58984 481.20703l.15625 1.21875"/></g><g clip-path="url(#o)"><path fill="none" stroke="#000" stroke-linecap="round" stroke-linejoin="round" stroke-miterlimit="10" stroke-width=".5" d="M213.76172 481.8086l-6.375-2.95704"/></g><g clip-path="url(#p)"><path fill="none" stroke="#000" stroke-linecap="round" stroke-linejoin="round" stroke-miterlimit="10" stroke-width=".5" d="M227.26172 481.32031l-6.74219-1.98437"/></g><g clip-path="url(#q)"><path fill="none" stroke="#000" stroke-linecap="round" stroke-linejoin="round" stroke-miterlimit="10" stroke-width=".5" d="M226.28125 481.03125l.2461 1.20313"/></g><g clip-path="url(#r)"><path fill="none" stroke="#000" stroke-linecap="round" stroke-linejoin="round" stroke-miterlimit="10" stroke-width=".5" d="M240.6914 480.7539l-6.97265-.85156"/></g><g clip-path="url(#s)"><path fill="none" stroke="#000" stroke-linecap="round" stroke-linejoin="round" stroke-miterlimit="10" stroke-width=".5" d="M239.67969 480.6289l.4375 1.14844"/></g><g clip-path="url(#t)"><path fill="none" stroke="#000" stroke-linecap="round" stroke-linejoin="round" stroke-miterlimit="10" stroke-width=".5" d="M254.03125 480.23828l-7.02344.17969"/></g><g clip-path="url(#u)"><path fill="none" stroke="#000" stroke-linecap="round" stroke-linejoin="round" stroke-miterlimit="10" stroke-width=".5" d="M253.01172 480.26563l.60156 1.0664"/></g><g clip-path="url(#v)"><path fill="none" stroke="#000" stroke-linecap="round" stroke-linejoin="round" stroke-miterlimit="10" stroke-width=".5" d="M267.23438 479.44531l-6.80079 1.76953"/></g><g clip-path="url(#w)"><path fill="none" stroke="#000" stroke-linecap="round" stroke-linejoin="round" stroke-miterlimit="10" stroke-width=".5" d="M266.2461 479.70313l.83202.90234"/></g><g clip-path="url(#x)"><path fill="none" stroke="#000" stroke-linecap="round" stroke-linejoin="round" stroke-miterlimit="10" stroke-width=".5" d="M280.2539 478.67969l-6.20312 3.30078"/></g><g clip-path="url(#y)"><path fill="none" stroke="#000" stroke-linecap="round" stroke-linejoin="round" stroke-miterlimit="10" stroke-width=".5" d="M279.35156 479.16016l1.01563.68359"/></g><g clip-path="url(#z)"><path fill="none" stroke="#000" stroke-linecap="round" stroke-linejoin="round" stroke-miterlimit="10" stroke-width=".5" d="M293.9336 479.7539L287 480.90235"/></g><g clip-path="url(#A)"><path fill="none" stroke="#000" stroke-linecap="round" stroke-linejoin="round" stroke-miterlimit="10" stroke-width=".5" d="M292.92188 479.92188l.74609.97656"/></g><g clip-path="url(#B)"><path fill="none" stroke="#000" stroke-linecap="round" stroke-linejoin="round" stroke-miterlimit="10" stroke-width=".5" d="M307.15234 479.34375l-6.74218 1.96875"/></g><g clip-path="url(#C)"><path fill="none" stroke="#000" stroke-linecap="round" stroke-linejoin="round" stroke-miterlimit="10" stroke-width=".5" d="M306.17188 479.6289l.85546.87891"/></g><g clip-path="url(#D)"><path fill="none" stroke="#000" stroke-linecap="round" stroke-linejoin="round" stroke-miterlimit="10" stroke-width=".5" d="M320.52734 481.08984l-6.86328-1.51953"/></g><g clip-path="url(#E)"><path fill="none" stroke="#000" stroke-linecap="round" stroke-linejoin="round" stroke-miterlimit="10" stroke-width=".5" d="M333.41016 482.16016l-5.9961-3.66407"/></g><g clip-path="url(#F)"><path fill="none" stroke="#000" stroke-linecap="round" stroke-linejoin="round" stroke-miterlimit="10" stroke-width=".5" d="M342.5586 483.64063l2.33593-6.625"/></g><g clip-path="url(#G)"><path fill="none" stroke="#000" stroke-linecap="round" stroke-linejoin="round" stroke-miterlimit="10" stroke-width=".5" d="M353.6211 481.125l6.84374-1.59375"/></g><g clip-path="url(#H)"><path fill="none" stroke="#000" stroke-linecap="round" stroke-linejoin="round" stroke-miterlimit="10" stroke-width=".5" d="M354.61328 480.89453l-.80469-.92578"/></g><g clip-path="url(#I)"><path fill="none" stroke="#000" stroke-linecap="round" stroke-linejoin="round" stroke-miterlimit="10" stroke-width=".5" d="M366.89844 479.71484l6.91797 1.23047"/></g><g clip-path="url(#J)"><path fill="none" stroke="#000" stroke-linecap="round" stroke-linejoin="round" stroke-miterlimit="10" stroke-width=".5" d="M367.90234 479.89453l-.375-1.16797"/></g><g clip-path="url(#K)"><path fill="none" stroke="#000" stroke-linecap="round" stroke-linejoin="round" stroke-miterlimit="10" stroke-width=".5" d="M380.21875 479.67188l6.90234 1.3125"/></g><g clip-path="url(#L)"><path fill="none" stroke="#000" stroke-linecap="round" stroke-linejoin="round" stroke-miterlimit="10" stroke-width=".5" d="M381.22266 479.86328l-.36329-1.17187"/></g><g clip-path="url(#M)"><path fill="none" stroke="#000" stroke-linecap="round" stroke-linejoin="round" stroke-miterlimit="10" stroke-width=".5" d="M393.48047 480.08203l7.01172.49219"/></g><g clip-path="url(#N)"><path fill="none" stroke="#000" stroke-linecap="round" stroke-linejoin="round" stroke-miterlimit="10" stroke-width=".5" d="M393.48047 480.08203l-.9961-2.24219"/></g><g clip-path="url(#O)"><path fill="none" stroke="#000" stroke-linecap="round" stroke-linejoin="round" stroke-miterlimit="10" stroke-width=".5" d="M406.78906 480.32813h7.02735"/></g><g clip-path="url(#P)"><path fill="none" stroke="#000" stroke-linecap="round" stroke-linejoin="round" stroke-miterlimit="10" stroke-width=".5" d="M406.78906 480.32813l-1.15234-2.16407"/></g><g clip-path="url(#Q)"><path fill="none" stroke="#000" stroke-linecap="round" stroke-linejoin="round" stroke-miterlimit="10" stroke-width=".5" d="M407.8086 480.32813l-.57423-1.08204"/></g><g clip-path="url(#R)"><path fill="none" stroke="#000" stroke-linecap="round" stroke-linejoin="round" stroke-miterlimit="10" stroke-width=".5" d="M420.13672 480.82422l6.95703-.98828"/></g><g clip-path="url(#S)"><path fill="none" stroke="#000" stroke-linecap="round" stroke-linejoin="round" stroke-miterlimit="10" stroke-width=".5" d="M420.13672 480.82422l-1.44531-1.98438"/></g><g clip-path="url(#T)"><path fill="none" stroke="#000" stroke-linecap="round" stroke-linejoin="round" stroke-miterlimit="10" stroke-width=".5" d="M421.14844 480.67969l-.72266-.99219"/></g><g clip-path="url(#U)"><path fill="none" stroke="#000" stroke-linecap="round" stroke-linejoin="round" stroke-miterlimit="10" stroke-width=".5" d="M433.5586 479.33984l6.74218 1.98047"/></g><path fill="none" stroke="#000" stroke-linecap="round" stroke-linejoin="round" stroke-miterlimit="10" stroke-width=".5" d="M433.5586 479.33984l-.4922-2.40625"/><g clip-path="url(#V)"><path fill="none" stroke="#000" stroke-linecap="round" stroke-linejoin="round" stroke-miterlimit="10" stroke-width=".5" d="M446.89844 479.26563l6.69531 2.1289"/></g><path fill="none" stroke="#000" stroke-linecap="round" stroke-linejoin="round" stroke-miterlimit="10" stroke-width=".5" d="M446.89844 479.26563l-.4414-2.41407"/><g clip-path="url(#W)"><path fill="none" stroke="#000" stroke-linecap="round" stroke-linejoin="round" stroke-miterlimit="10" stroke-width=".5" d="M460.36719 478.86719l6.39062 2.92578"/></g><path fill="none" stroke="#000" stroke-linecap="round" stroke-linejoin="round" stroke-miterlimit="10" stroke-width=".5" d="M460.36719 478.86719l-.14453-2.45313"/><g clip-path="url(#X)"><path fill="none" stroke="#000" stroke-linecap="round" stroke-linejoin="round" stroke-miterlimit="10" stroke-width=".5" d="M147.5039 466.75781l-7.0078.51172"/></g><path fill="none" stroke="#000" stroke-linecap="round" stroke-linejoin="round" stroke-miterlimit="10" stroke-width=".5" d="M146.48438 466.83203l.65234 1.03906m13.65625-1.35156l-6.95703.98828m5.94531-.84375l.72266.98828m13.10156-2.5078l-5.94922 3.73827m5.08203-3.19531l1.0664.60938m13.16798-1.06641l-6.0547 3.5664m5.17579-3.04687l1.04297.64063m13.29687-.88282l-6.34765 3.01172m5.42578-2.57422l.98437.73047m13.35938-.91797l-6.5625 2.51172m5.60937-2.14844l.92578.8047m13.32422-1.21876l-6.52343 2.61328m5.57422-2.23437l.9375.79297m13.27734-1.28516l-6.42578 2.83984m5.49219-2.42578l.96484.75782m13.2461-1.25391l-6.35157 3.0039m5.42969-2.5664l.98437.73437m12.78125-1.91406l-5.40625 4.48828m4.6211-3.83593l1.1328.46875m13-1.08204l-5.47265 4.41016m4.67578-3.76562l1.12891.48046m13.11328-.95312l-5.73437 4.0664m4.90234-3.47265l1.09375.55078m13.0039-1.21484l-5.6328 4.20703m4.8125-3.59375l1.10937.52344m13.14453-.96094l-5.8711 3.85547m5.01954-3.29688l1.07422.58985m12.17578-2.09766l-4.03906 5.7539m3.45312-4.91406l1.21484.14844m11.47657-1.53125l-1.6172 6.83984m11.25392-5.44921l5.73828 4.05859m8.8164-5.14453l3.25782 6.23047m-2.78125-5.32422l.6914-1.01172m10.33203 3.91016l6.89063-1.37891m-5.88672 1.17969l-.78125-.94922m13.10937-.3125l6.85547 1.54297m-6.85547-1.54297l-.64843-2.36719m14.16015 1.75781l6.46094 2.76172m-6.46094-2.76172l-.20703-2.44531m14.9414.8164l3.6211 6.01954m-3.09375-5.14453l.63281-1.05078m13.5-.29688l.9336 6.96484m-.9336-6.96484l1.9961-1.42969m10.7539 1.55469l2.06641 6.71484m-2.0664-6.71484l1.73046-1.73828m10.91016 2.02344l3.41406 6.14453m-2.91797-5.25l.66797-1.03125"/><g clip-path="url(#Y)"><path fill="none" stroke="#000" stroke-linecap="round" stroke-linejoin="round" stroke-miterlimit="10" stroke-width=".5" d="M147.26953 454.98828l-6.53906-2.58203"/></g><path fill="none" stroke="#000" stroke-linecap="round" stroke-linejoin="round" stroke-miterlimit="10" stroke-width=".5" d="M146.3164 454.61328l.13673 1.21875m14.34375-1.65234l-6.96094-.96094m17.70703-2.91406l-1.82422 6.78906m12.17188-6.2461L186 456.55079m12.28125-2.85156l-.01953-.19922-.0586-.1914-.09375-.1797-.45703-.375-.1914-.05859-.19922-.01953-.19922.01953-.19531.0586-.45703.375-.09375.17968-.0586.19141-.01953.19922.01953.19922.0586.1914.09375.17578.45703.37891.19531.0586.19922.01953.19922-.01954.1914-.05859.45703-.3789.09375-.17579.0586-.1914.01953-.19922m15.4375-1.57031l-6.28516 3.14062m5.3711-2.6836l1 .71094m12.67187-1.98046l-5.17187 4.76171m4.41797-4.0664l1.15625.40625m12.92578-1.08203l-5.19922 4.72656m4.44531-4.03906l1.15234.41406m13.05079-.94531l-5.46875 4.41406m4.67187-3.77344l1.1289.48047m13.53907-.14453l-6.57813 2.46094m5.6211-2.10547l.91797.8125m13.11328-1.6875l-6.09766 3.5m6.09766-3.5l2.07812 1.30469m10.94141-1.7422l-5.5039 4.3711m5.5039-4.3711l2.2461.98048m11.5-.28125l-6.3672 2.97656m5.44141-2.54297l.98047.73438m13.44922-.66016l-6.7461 1.96094m5.76563-1.67578l.85547.8789m13.40625-1.27344l-6.67969 2.17579m5.71094-1.85938l.88281.85156m12.89063-2.16015l-5.66016 4.16406m4.83985-3.5586l1.10546.53126m11.23047-2.41407l-2.0586 6.71875m2.0586-6.71875l2.41016-.46875m9.60156.32422l.54688 7.00781m-.46875-5.98828l1.03515-.66015m15.79297 1.98437l-6.63281 2.32031m5.66797-1.98437l.90234.83203m6.79297-1.30469l6.53516 2.59375m-5.58204-2.21484l-.13671-1.22266m16.78906 2.14063l-.01953-.19922-.0586-.1914-.09375-.1797-.46093-.375-.19141-.05859-.19922-.01953-.19922.01953-.1914.0586-.45704.375-.09765.17968-.0586.19141-.01953.19922.01954.19922.05859.1914.09765.17578.45704.37891.1914.0586.19922.01953.19922-.01954.1914-.05859.46094-.3789.09375-.17579.0586-.1914.01953-.19922m9.58203-2.23438l5.42188 4.46875m9.6289-5.60937l1.94922 6.75m-1.66406-5.76953l.8789-.85157m13.4375-.2539l-.625 7m.625-7l2.26172-.95703m11.4336 1.01172l-1.38282 6.89062m1.38282-6.89062l2.35156-.70313"/><g clip-path="url(#Z)"><path fill="none" stroke="#000" stroke-linecap="round" stroke-linejoin="round" stroke-miterlimit="10" stroke-width=".5" d="M147.42578 439.60938l-6.85156 1.54687"/></g><path fill="none" stroke="#000" stroke-linecap="round" stroke-linejoin="round" stroke-miterlimit="10" stroke-width=".5" d="M146.42969 439.83594l.80078.92969m13.59766-.40625l-7.02735.04687m6.0039-.03906l.58595 1.07812m13.74218-.79687l-7.00781-.52735m5.98828.44922l.49219 1.125m6.98437-2.35156l6.71094 2.08203m10.73828-4.46875l-1.5586 6.85156m15.76954-.33593l-3.34766-6.1797m11.5625 3.8711l6.85157-1.5625m7.67187-1.94531l4.4336 5.45312m10.92578-6.23437l.34765 7.01953m-.29687-6l1.05078-.6289m14.57422.36718l-4.375 5.5m3.73828-4.69922l1.20703.22266m12.5586-1.16016l-4.00391 5.77344m3.42187-4.9336l1.21875.14454m12.33985-1.1914l-3.32813 6.1875m2.84375-5.28516l1.22656.0039m12.7422-.8086l-3.66407 5.9961m3.66406-5.9961l2.44922.14454m12.03516 1.02734l-6.00391 3.64844m6.0039-3.64844l2.10938 1.25391m11.32422-1.04297l-6.24219 3.22656m6.24219-3.22656l2.01953 1.39453m10.79688-2.1211l-5.2422 4.6797m4.48048-4l1.14843.42578m11.85547-1.91797l-3.09765 6.30469m2.64843-5.38672l1.22657-.03907M369.40625 437l1.89844 6.76562M369.40625 437l1.77344-1.69531m9.57422 3.1211l5.83593 3.91405m-4.98828-3.34375l.125-1.22265m15.23438 6.125l.05078-7.02735m9.80469 3.97266l6.96875-.91797m-5.95313.78125l-.71484-.9961m19.125-1.66015l-5.2539 4.66797m4.49218-3.98828l1.14844.42578m11.97265-1.86328l-3.33984 6.1836m3.33984-6.1836l2.45313.01562m-2.9375.88282l1.22656.0078m11.7539-1.22265l-1.70312 6.8164m1.70313-6.8164l2.3828-.59375m-2.6289 1.58203l1.1914-.29297m13.20313-.37109l-3.37109 6.16406m3.3711-6.16406l2.45312.02735"/><g clip-path="url(#aa)"><path fill="none" stroke="#000" stroke-linecap="round" stroke-linejoin="round" stroke-miterlimit="10" stroke-width=".5" d="M146.4375 424.53906l-4.875 5.0586"/></g><path fill="none" stroke="#000" stroke-linecap="round" stroke-linejoin="round" stroke-miterlimit="10" stroke-width=".5" d="M145.73047 425.27344l1.17969.33984m13.72265.30078l-6.63672 2.3086m5.67188-1.97266l.89844.83203m13.3164 1.32031l-6.5039-2.66796m5.55468 2.27734l.125 1.22265m13.98828-.51171l-6.20312-3.3086m5.30078 2.82813l-.0039 1.22656m14.12109-.57422l-6.0039-3.65234m6.0039 3.65234l-.14453 2.44922m13.54687-5.95313l-6.17578 3.35547m5.27734-2.86718l1.02344.67578m11.23828-2.8125l-2.27343 6.65234m1.9414-5.6836l1.21094-.1953m13.8711.16015l-5.14454 4.78516m4.39453-4.08985l1.16016.39844m9.36328-2.07812l1.9375 6.7539m12.4961-6.88672l-.29688 7.01953m.2539-6l1.10548-.52734m13.88671-.01172l-3.5664 6.0586m3.04687-5.17578l1.22656.05468m11.02735-1.41406l-.40235 7.01563m.34375-5.9961l1.11329-.51172m14.5078.48047l-4.90233 5.03516m4.1914-4.30078l1.17578.33984m10.95313-2.02734l-1.10547 6.9414m1.10547-6.9414l2.32031-.79688m11.92188 1.08203l-2.95704 6.3711m2.95704-6.3711l2.44921-.13281m12.1836 1.19531l-5.59375 4.25m5.59375-4.25l2.22656 1.02735m11.80469 1.20312l-7.02735-.21484m6.00391.1836l.54297 1.10155M368.64453 424l3.42578 6.13672m-2.92968-5.24219l.66796-1.03125m12.34375.03516l3.03907 6.33984m-3.03907-6.33984l1.45704-1.97266m-1.01563 2.89453l.73047-.98437M399 424.1914l-4.02734 5.7578m3.4414-4.92187l1.21875.14844m12.96485-.76953l-4.58985 5.32422m4.58985-5.32422l2.39062.54297m10.51172-.84375l-3.76953 5.92969m3.76953-5.9297l2.44922.1875m-2.9961.67188l1.22266.09766M438.64453 424l-3.42578 6.13672M438.64453 424l2.45313.05078m9.66797-.45703l-1.03907 6.94922m1.03907-6.94922l2.3125-.82031m-2.46485 1.83203l1.15625-.41016m12.4961-.57031l-1.40625 6.88672m1.40625-6.88672l2.35156-.69531m-2.5586 1.69922l1.17579-.34766"/><g clip-path="url(#ab)"><path fill="none" stroke="#000" stroke-linecap="round" stroke-linejoin="round" stroke-miterlimit="10" stroke-width=".5" d="M146.84766 411.69531l-5.69532 4.11719"/></g><path fill="none" stroke="#000" stroke-linecap="round" stroke-linejoin="round" stroke-miterlimit="10" stroke-width=".5" d="M146.84766 411.69531l2.20312 1.08203m-3.03125-.48437l1.10156.54297m13.1875-.92188l-5.98437 3.67969m5.98437-3.67969l2.1172 1.24219m11.71093.38672l-7.01563.42187m5.9961-.35937l.64062 1.04687m12.79297 1.45703l-5.21094-4.71484m4.45313 4.03125l-.30078 1.1875m14.94531-1.35547l-6.35156-3.00781m5.42578 2.57031l.0586 1.22657m14.33593-3.41016l-6.66016 2.23437m15.7461 2.28125l1.79687-6.79687m-1.53515 5.80469l-1.19532.28125m13.57422.45312l3.14453-6.28515m-2.6875 5.37109l-1.22656.03125m18.4961-4.33203l-5.67579 4.14453m4.84766-3.53906l1.10547.53515m11.53125 4.1836L262.5039 410.5m2.27343 5.5586l-.78125.9453m14.17578-3.25l-.01953-.19921-.05859-.1914-.09375-.1797-.45703-.375-.1914-.05859-.19923-.01953-.19922.01953-.1953.0586-.45704.375-.09375.17968-.0586.1914-.01952.19923.01953.19921.0586.19141.09374.17578.45703.3789.19532.0586.19921.01953.19922-.01953.1914-.0586.45704-.3789.09375-.17578.0586-.1914.01953-.19922m15.16015-2.03125l-5.73437 4.05859M292.5 412.3125l1.09375.55469m7.98047 3.6211l4.41406-5.46876m13.6836.34375l-5.15235 4.78125m4.40235-4.08594l1.16015.40235m10.57813-2.21094l-.5 7.00781m16.80468-4.86719l-6.47656 2.72266m5.53516-2.32422l.94922.77344m13.23828 1.71094l-6.33985-3.03907m19.4961-.29296l-6.01953 3.625m5.14062-3.09766l1.05469.6289M385.5 410.75392l-3.65625 6m3.65625-6l2.44922.14453m10.00781-.52344l-1.9414 6.7539m1.9414-6.7539l2.40235-.50781m-2.6836 1.49218l1.19922-.2539m13.08203-.44922l-3.3125 6.19531m3.3125-6.19531l2.45703.0039m-2.9375.89844h1.22657m12.24609-1.05468l-2.66406 6.5m2.66406-6.5l2.4414-.2461m-2.82812 1.1914l1.21875-.125m13.17578-.4414l-4.05078 5.74219m4.05078-5.74219l2.4336.3086M452 410.70703l-3.50781 6.08984M452 410.70703l2.45313.08594m-2.96485.80078l1.22656.04297m11.17188-1.38281l-.64844 7m.64844-7l2.26172-.94532m-2.35547 1.96485l1.1289-.47266"/><g clip-path="url(#ac)"><path fill="none" stroke="#000" stroke-linecap="round" stroke-linejoin="round" stroke-miterlimit="10" stroke-width=".5" d="M146.76953 398.27734l-5.53906 4.32032"/></g><path fill="none" stroke="#000" stroke-linecap="round" stroke-linejoin="round" stroke-miterlimit="10" stroke-width=".5" d="M146.76953 398.27734l2.24219 1m-3.04688-.37109l1.1211.5m12.9336-1.21094l-5.41017 4.48828m5.41016-4.48828l2.26953.92969m-3.0586-.27734l1.13673.46484m13.11719-.92188l-5.71094 4.09375m5.71094-4.09375l2.19921 1.08985m-3.02734-.49219l1.09766.54297m13.4453-.41797l-6.5078 2.64844m5.5625-2.26172l.9414.78516m13.38672 1.30078l-6.64062-2.29688m5.67187 1.96485l.1914 1.21093m7.4961-.75l6.54688-2.55078m-5.59375 2.17969l-.9297-.80078m14.19142-2.69531l4.75 5.17968m-4.0586-4.42578l.41016-1.15625m18 2.14453l-6.82031 1.69532m5.82812-1.44922l.8164.91406m9.64063 3.17578l.8789-6.97265m-.7539 5.95703l-1.14453.4375m17.3164-.48438l-5.08593-4.85156m4.34375 4.14453l-.32813 1.1836m15.35547-2.97266l-7.02734.14062m6.0039-.1211l.59766 1.07423m13.6914-1.6211l-6.92577 1.19532m5.91797-1.01954l.75.96875m13.17968-2.25l-6.14453 3.41016m5.2539-2.91406l1.02735.66797m13.61719.67187l-7.01953-.26172m6 .22266l.53515 1.10547m13.80079-1.3711l-7.01954.34766m5.9961-.29687l.6289 1.05078m11.44141 2.35937l-2.48437-6.57422m2.12109 5.6172l-.8086.92187m11.33985-.30079l3.8086-5.90234m13.5664 5.72656l-4.3086-5.55078m3.6797 4.74219l-.5 1.1211m14.90624-5.4336l-5.23437 4.6875m5.23437-4.6875l2.30469.84375m10.4336-1.35938l-4.08204 5.71875m4.08203-5.71875l2.4336.32032m11.41015.14453l-5.13671 4.79297m5.13671-4.79297l2.32032.79687m10.1328-1.47265l-3.41796 6.14062m3.41797-6.14062l2.45312.04687m-2.94921.84766l1.22656.02344m12.6289-.89454l-3.5039 6.09375m3.5039-6.09375l2.44922.08204m11.52735.41015l-4.82813 5.10938m4.82813-5.10938l2.36328.65235m10.13672-1.22657l-3.19922 6.25782m3.19922-6.25782l2.45312-.03906"/><g clip-path="url(#ad)"><path fill="none" stroke="#000" stroke-linecap="round" stroke-linejoin="round" stroke-miterlimit="10" stroke-width=".5" d="M146.1875 384.3711l-4.375 5.5039"/></g><path fill="none" stroke="#000" stroke-linecap="round" stroke-linejoin="round" stroke-miterlimit="10" stroke-width=".5" d="M146.1875 384.3711l2.41016.44921m-3.04688.35156l1.20703.22266m12.9375-.85547l-4.75781 5.17188m4.75781-5.17188l2.3711.61719M159 385.28906l1.1875.3086m13.09766-.77344l-5.3125 4.59765m5.3125-4.59765l2.28906.88281m-3.0586-.21484l1.14454.4414m10.65625-2.30468l-.7422 6.98828m.7422-6.98828l2.27734-.91407m7.15625 4.51954l7.02344-.22266m-6.0039.1914l-.60938-1.0664M213.54296 389l-5.9375-3.7539m5.07423 3.20702l-.08985 1.22657m14.15235-.50781l-5.70313-4.09766m19.66016 2.4375l-6.98438-.77735m5.96485.66407l.45312 1.14062m13.80469-2.23047l-6.83594 1.62891m5.84375-1.39063l.8086.91797m13.59375-.3125l-7.02735-.05859m6.00782.05078l.5664 1.08594m13.32031.61719l-6.125-3.44532m5.23047 2.94141l-.02734 1.22656m14.6875-2.5l-7.02734.10547m6.0039-.08984l.58985 1.07422m13.33203-2.69141l-6.19532 3.3086m5.29297-2.82813l1.01953.6836m12.92188-1.60157l-5.64453 4.1836m4.82422-3.57423l1.10547.52735m13.40234-.50781l-6.39063 2.92578m6.39063-2.92578l1.94922 1.49218m11.27734-1.67578l-6.21094 3.29297m14.33204 1.17969l4.17578-5.65235m-3.56641 4.83204l-1.21484-.1836m19.23437-3.21094l-6.45312 2.77735m6.45312-2.77735l1.91797 1.53125m10.73438-2.54687l-5.125 4.8086m5.125-4.8086l2.3203.79297m10.64063-1.1211l-4.41797 5.46485m4.41797-5.46485l2.41016.46875m9.89453-1.03906l-2.39844 6.60547m2.39844-6.60547l2.42969-.34375m10.7461.29688l-2.1211 6.69922m2.1211-6.69922l2.41405-.44531m11.13672.52734l-2.58984 6.53515m2.58984-6.53515l2.4375-.27344m10.1289.07031l-1.09374 6.94141m1.09375-6.9414l2.32031-.80079m11.79688 1.02735l-2.69922 6.48828m2.69922-6.48828l2.4414-.23047"/><g clip-path="url(#ae)"><path fill="none" stroke="#000" stroke-linecap="round" stroke-linejoin="round" stroke-miterlimit="10" stroke-width=".5" d="M143.33984 370.35547l1.32032 6.90234"/></g><g clip-path="url(#af)"><path fill="none" stroke="#000" stroke-linecap="round" stroke-linejoin="round" stroke-miterlimit="10" stroke-width=".5" d="M143.33984 370.35547l1.91407-1.53516"/></g><path fill="none" stroke="#000" stroke-linecap="round" stroke-linejoin="round" stroke-miterlimit="10" stroke-width=".5" d="M158.08594 370.3789l-1.54297 6.85548m1.54297-6.85547l2.36719-.64454m12.76171 1.69141l-5.16797 4.76172m5.16797-4.76172l2.3125.8125m8.26953-1.9414l.29688 7.02343m-.2539-6l1.05468-.6211m13.09375-.32812l-1.45703 6.875m1.45703-6.875l2.35938-.67578m10.8164.64844l-1.17969 6.92969m1.00782-5.92188l1.16406-.38672m13.13281-.3789l-2.79687 6.44531m2.39062-5.50781l1.22266-.09766m14.48437 1.44531l-6.76953 1.875m5.78516-1.60156l.84375.89063m13.58203-.0586l-7.01953-.33594m19.71875-1.8203l-5.79297 3.97656m19.51563-3.1875l-6.60547 2.39843m19.01562-3.76562l-4.79687 5.13281m18.6289-4.53125l-5.82812 3.92969m19.0039-4.1211l-5.55078 4.3125m14.66797-5.36718l2.84766 6.42187m12.79297-6.60547l-1.8047 6.78906m1.54298-5.80078l1.19531-.28125m14.25.52735l-5.54297 4.32031m4.73828-3.6914l1.11719.5m13.375-.53907l-6.28516 3.14063m5.3711-2.6836l.9961.71094m11.79296-2.67188l-3.40625 6.14454m2.91016-5.25l1.22656.02343m11.51953-1.30078l-1.27734 6.91016m1.08984-5.90235l1.17188-.37109m14.17578.33594l-4.96875 4.96875m4.96875-4.96875l2.34765.71875m11.14844-.52344l-5.33203 4.57813m5.33203-4.57813l2.28516.89453m10.0625-1.6836l-3.39453 6.15626m3.39453-6.15625l2.45312.03906m10.58594-.17578l-2.84375 6.42578m2.84375-6.42578l2.44922-.17578m-2.86328 1.11328l1.22265-.08984m11.78125-1.07813l-1.39453 6.88672m1.39453-6.88672l2.35547-.69922"/><g clip-path="url(#ag)"><path fill="none" stroke="#000" stroke-linecap="round" stroke-linejoin="round" stroke-miterlimit="10" stroke-width=".5" d="M141.29688 358.2461l5.40625 4.49218"/></g><path fill="none" stroke="#000" stroke-linecap="round" stroke-linejoin="round" stroke-miterlimit="10" stroke-width=".5" d="M154.38281 358.5586l5.86719 3.86718m-5.86719-3.86719l.23047-2.4414m13.04688 2.4961l5.9375 3.76171m8.11718-4.59766l4.46094 5.4297m-3.8125-4.63673l.47266-1.13281m11.82422.69531l5.20312 4.72266m-4.44922-4.03516l.30469-1.1914m13.08203-.16797l3.55078 6.0664m-3.03515-5.18359l.64453-1.04297m11.9961.25781l3.86718 5.8672m-3.30469-5.01173l.58984-1.07812m15.25782-.16016l-2.32422 6.63281m1.98437-5.66796l1.21485-.1836m14.73047 1.88281l-6.90235 1.3086m17.96485-3.95703l-2.39844 6.60546m2.05078-5.64453l1.21484-.17187m10.02735-.78125l2.4414 6.58984m-2.08593-5.63281l.8164-.91406m14.38281-.11328l-2.03515 6.72656m1.73828-5.7461l1.20313-.23828m14.52343 1.03125l-6.26562 3.1836M306 359.36328l1.00781.70703m9.54688-3.04687l1.08594 6.9414m-.9297-5.93359l.98048-.73438m14.33203 6.32032l-3.22266-6.2461m2.7539 5.33594l-.69921 1.00781m13.99219-6.55078l-2.2422 6.66016m17.66798-1.95703l-6.46485-2.75m20.0586 1.3086l-7.02344.13671m6.0039-.11719l.59766 1.07031m13.24219-2.82421l-6.03125 3.60156m5.15234-3.07813l1.05079.63672m11.66406-2.51953l-3.07422 6.32031m2.6289-5.39843l1.22266-.04297m12.15235-1.03516l-2.3047 6.63672m1.96876-5.67188l1.21484-.1875m12.75-.65234l-2.9336 6.38672m2.50782-5.45703l1.22656-.07422m12.0664-1.02734l-2.03515 6.72656m1.73828-5.7461l1.20313-.23828M450.64062 357l-.78515 6.98438M450.64062 357l2.28125-.90234m12.23047 1.26171l-3.17968 6.26563m3.17968-6.26563l2.45313-.04687"/><g clip-path="url(#ah)"><path fill="none" stroke="#000" stroke-linecap="round" stroke-linejoin="round" stroke-miterlimit="10" stroke-width=".5" d="M140.91406 345.5l6.17188 3.35547"/></g><path fill="none" stroke="#000" stroke-linecap="round" stroke-linejoin="round" stroke-miterlimit="10" stroke-width=".5" d="M153.92969 346.23828l6.76953 1.8789m-6.76953-1.8789l-.53125-2.39453m1.51562 2.66797l-.26562-1.19922m12.65234 2.98438l6.66016-2.23829m-6.66016 2.23829l-1.78125-1.6875m15.98828 3.10156l4.875-5.0664m-4.16406 4.32812l-1.17969-.33594m12.74219-.97656l6.96094-.96485m-5.94922.82422l-.71875-.99219m14.33203 3.41407l4.33594-5.52735m-3.70313 4.72266l-1.20703-.21485m12.58203-1.22656l6.95313-1.03515m-5.9414.88671l-.73048-.98828m19.6875-.8789l-6.35547 2.9961m19.9922-1.81642l-6.9961.63672M253 346.95313l.67188 1.02734m13.58203-1.61719l-6.83594 1.6289m18.77344-3.67577l-4.08203 5.72265m17.45703-5.67578l-4.20313 5.6289m3.59375-4.80859l1.21094.1836m12.6836-1.02735l-4.14454 5.67579m3.54297-4.84766l1.21484.17187m14.02344.92188l-6.78515 1.83203m16.77343 2.59766l-.13281-7.02735m.11328 6.0039l-1.07031.59767m16.46875-.29297l-4.25781-5.58985m18.95703 2.7461l-7.02735.09765m6.00391-.08203l.58984 1.07422m13.7422-.83594l-7.01563-.41015m5.99609.35156l.51172 1.11328m13.82812-1.25781h-7.02734m20.1836-1.04688l-6.70704 2.09375m5.73047-1.78906l.875.85938m12.6836-2.45704l-5.2422 4.6797m4.48048-4l1.15234.42577m11.13672-2.17969l-1.66406 6.82422m1.42187-5.83203l1.1875-.30469m12.03516-.7539l-.9961 6.95703m.85157-5.94531l1.15625-.41406m10.46484-.3672l2.67969 6.4961m-2.28906-5.55078l.78125-.94531m15.7578.57031l-4.55077 5.35547m3.89062-4.57422l1.19922.26172"/><g clip-path="url(#ai)"><path fill="none" stroke="#000" stroke-linecap="round" stroke-linejoin="round" stroke-miterlimit="10" stroke-width=".5" d="M141.875 331.0664l4.25 5.59376"/></g><path fill="none" stroke="#000" stroke-linecap="round" stroke-linejoin="round" stroke-miterlimit="10" stroke-width=".5" d="M154.14844 332.33594l6.33203 3.05469m-6.33203-3.0547l-.09375-2.44921m13.71094 6.00781l5.73046-4.0625m-5.73047 4.0625l-2.1953-1.10156m15.52734 1.1289l5.6953-4.11718m-4.86718 3.51953l-1.10156-.54297m15.11719 2.33984l2.63672-6.51562m-2.25391 5.5664l-1.21875.12891m12.09766-1.45703l6.74609-1.96484m-5.76563 1.67968l-.85547-.8789m20.07422.23437l-7.02343-.10156m20.26953.75781l-6.88281-1.41406m5.8789 1.20703l.34766 1.17969m13.86328-.57031L247.1875 332.75m5.69531 1.90234l.20313 1.20704m14.23828-1.59375l-6.98047-.8047m19.99219-1.08593l-6.36719 2.97656m20.00781-1.57812l-7.02344.17969m20.21485-1.02344l-6.77344 1.86719m20.01953-2.09375l-6.63281 2.3203m5.66406-1.98437l.90235.83203m13.13671-1.71093l-6.14453 3.40625m5.25-2.91016l1.02735.66406m10.04297 4.05469l.1328-7.02344m-.11327 6.0039l-1.09375.5547m14.72265.45703l-.53515-7.00781m.45703 5.98828l-1.03516.65625m16.26563-.32813l-4.21094-5.625m3.59766 4.8086l-.51954 1.10937m15.84766-2.83594l-7.00781-.53906m5.98828.46094l.49219 1.1211m13.69922-.28907l-6.72266-2.05078m5.74219 1.7539l.23828 1.20313m13.38672.33203l-5.3789-4.52344m18.65624 4.5664l-5.30469-4.60937m19.48047 2.23829l-7.02734.1328m6.0039-.11327l.59766 1.07421m12.91016-3.29296l-5.36719 4.53125m4.58594-3.875l1.14062.45703m12.77735-1.3125l-5.00782 4.92969m4.27735-4.21094l1.17187.36719"/><g clip-path="url(#aj)"><path fill="none" stroke="#000" stroke-linecap="round" stroke-linejoin="round" stroke-miterlimit="10" stroke-width=".5" d="M143.78516 317.04297l.42968 7.01172"/></g><g clip-path="url(#ak)"><path fill="none" stroke="#000" stroke-linecap="round" stroke-linejoin="round" stroke-miterlimit="10" stroke-width=".5" d="M143.78516 317.04297l2.08984-1.28516"/></g><path fill="none" stroke="#000" stroke-linecap="round" stroke-linejoin="round" stroke-miterlimit="10" stroke-width=".5" d="M155.2461 317.70703l4.14062 5.67969m-3.53906-4.85156l.53515-1.10547m15.26953 3.11719l-.01953-.19922-.0586-.19141-.09374-.17578-.46094-.3789-.1914-.0547-.19922-.01953-.19922.01954-.1914.05468-.45704.3789-.09375.17579-.0586.1914-.01952.19923.01953.19921.05859.19141.09375.17969.45703.375.1914.0586.19923.01952.19922-.01953.1914-.0586.46094-.375.09375-.17968.0586-.1914.01952-.19923m8.98438-1.17968l6.61719 2.36328m9.09765 2.21094l1.8164-6.78907m12.91798 6.8711l-1.02344-6.95313m.875 5.9414l-.98828.72657m16.8125-1.16797l-5.74219-4.04687m4.90625 3.46094l-.15234 1.21484m14.6875-3.97656l-6.51172 2.64843m16.88281-4.82421l-.6211 7m10.71876-5.47657l5.8125 3.95313m7.4414-3.85547l5.9375 3.75781m9.04688 1.38672l2.59375-6.53125m9.30469 5.4961l5.42968-4.46094m-4.64062 3.8125l-1.13281-.47266m16.26171 2.40234l.22266-7.02343m16.21094 1.6953l-6.01563 3.63282m5.14063-3.10547l1.05469.63281m13.28906-.8789l-6.32031 3.07422m5.39843-2.6289l.9922.72265m10.03124 3.88281l.10547-7.02734m-.08984 6.0039l-1.08985.5586m10.94922-3.4336l6.98438.76953m-5.96875-.66015l-.45313-1.13672m19.58594.32422l-6.6836 2.17578m5.71094-1.85938l.88281.85157m12.98829-2.03125l-5.84766 3.89843m4.9961-3.32812l1.08202.57812m12.88672-1.41406l-5.45312 4.42969m4.66015-3.78516l1.12891.47656m11.26172-2.26953l-2.01953 6.73047m1.72656-5.7539l1.20313-.23829m13.21093 5.63672l-3.6289-6.01953m3.6289 6.01953l-1.26172 2.10547m16.27344-4.97265l-7.02344-.28516m7.02344.28516l1.0625 2.21093m-2.08594-2.2539l.53125 1.10547m13.28907-3.04688l-5.98438 3.6836"/><g clip-path="url(#al)"><path fill="none" stroke="#000" stroke-linecap="round" stroke-linejoin="round" stroke-miterlimit="10" stroke-width=".5" d="M466.55469 318.70703l2.11719 1.23828"/></g><g clip-path="url(#am)"><path fill="none" stroke="#000" stroke-linecap="round" stroke-linejoin="round" stroke-miterlimit="10" stroke-width=".5" d="M465.6836 319.24219l2.11718 1.23828"/></g><path fill="#ff3030" fill-rule="evenodd" d="M459.94531 463.21094h7.69531V453.0625h-7.6953v10.14844"/><path fill="azure" fill-rule="evenodd" d="M461.78125 454.89844h.83203v5.73828h3.1914v.74219h-4.02343v-6.48047"/><path fill="#00f" fill-rule="evenodd" d="M383.80078 436.57813h8.61719v-10.14454h-8.61719v10.14454"/><path fill="azure" fill-rule="evenodd" d="M385.63281 428.26563h.83203v2.82421h3.28907v-2.82421h.83203v6.48046h-.83203v-2.91406h-3.28907v2.91406h-.83203v-6.48046"/><path fill="#ff3030" fill-rule="evenodd" d="M384.4961 414.38672h7.6914v-10.14453h-7.6914v10.14453"/><path fill="azure" fill-rule="evenodd" d="M386.32813 406.07422h.83203v5.74219h3.1953v.73828h-4.02733v-6.48047"/><path fill="#ff3030" fill-rule="evenodd" d="M295.72656 409.94922h7.69531v-10.14453h-7.6953v10.14453"/><path fill="azure" fill-rule="evenodd" d="M297.5586 401.63672h.83593v5.73828h3.1914v.74219h-4.02734v-6.48047"/><path fill="#00f" fill-rule="evenodd" d="M370.48438 401.07422h8.62109v-10.14844h-8.6211v10.14844"/><path fill="azure" fill-rule="evenodd" d="M372.3164 392.76172h.83594v2.82031h3.28516v-2.82031h.83203v6.47656h-.83203v-2.91406h-3.28516v2.91406h-.83593v-6.47656"/><path fill="#ff3030" fill-rule="evenodd" d="M193.64453 378.88281h7.69531v-10.14844h-7.6953v10.14844"/><path fill="azure" fill-rule="evenodd" d="M195.47656 370.5664h.83594v5.7422h3.1914v.73827h-4.02734v-6.48046"/><path fill="#ffffe0" fill-rule="evenodd" d="M346.1836 355.35156h22.17968v-10.1914H346.1836v10.1914"/><path fill-rule="evenodd" d="M349.6836 346.99219h.5078v6.29687h-.78906v-4.49219h-1.38671v-.55468l.55859-.0625.2539-.05469.23047-.08984.20313-.14063.17187-.21094.14063-.29687.10937-.39453m4.8125 0l.23047.01953.21875.05469.20703.08984.19532.1211.18359.14843.17188.17578.30078.42188.24609.49219.17969.54687.10937.57813.03906.59375-.03906.59375-.10937.58203-.17969.55468-.2461.5-.30077.4297-.17188.17968-.1836.15234-.1953.125-.20704.08985-.21875.05859-.23047.01953-.23046-.01953-.21875-.0586-.20704-.08984-.1953-.125-.1875-.15234-.16798-.17969-.30469-.42969-.24218-.5-.17969-.55468-.11328-.58204-.03516-.59375h.83203l.02735.5625.08203.50391.1289.44531.16016.375.1914.30079.21094.21875.22266.13671.22656.04688.22657-.04688.22265-.13671.21094-.21875.1914-.30079.16016-.375.125-.4453.08203-.50392.03125-.5625-.03125-.5625-.08203-.5-.125-.4375-.16015-.36328-.19141-.29296-.21094-.21485-.22265-.13281-.22657-.04297-.22656.04297-.22265.13281-.21094.21485-.1914.29296-.16017.36329-.1289.4375-.08203.5-.02735.5625h-.83203l.03516-.59375.11328-.57813.17969-.54688.24219-.49218.30468-.42188.16797-.17578.1875-.14844.19531-.12109.20704-.08984.21875-.0547.23046-.01952m5.08985 0h.51172v6.29687h-.78907v-4.49219h-1.38671v-.55468l.55859-.0625.2539-.05469.22657-.08984.20312-.14063.17578-.21094.14063-.29687.10547-.39453m2.82422 2.17578h.78515l.02344-.3164.0586-.28516.09765-.25391.14063-.21484.17968-.17188.22266-.1289.26562-.08204.3086-.02734.23828.01953.22265.0625.20704.10156.17578.14063.15234.17187.11328.20704.07031.23437.02344.26563-.01953.26953-.0664.22265-.10938.1914-.15625.17188-.19922.16407-.25.16406-.63281.39062-.53906.3125-.4375.31641-.34375.32422-.26563.33594-.1914.35156-.125.3711-.06641.39062-.02344.42187h4.21485v-.74219h-3.33204l.08204-.28515.11328-.23438.14843-.20312.1875-.17969.23047-.17187.27735-.17579.71875-.41406.41406-.20703.34765-.23047.28125-.25.21875-.26953.16407-.27734.10937-.28516.0625-.28515.02344-.28125-.04297-.38282-.1211-.34765-.1875-.3086-.25-.26172-.30468-.21093-.34375-.16016-.38281-.09766-.40625-.03515-.4336.03515-.39843.09766-.35547.16797-.30469.23437-.2461.30079-.1875.375-.11718.4453-.03906.51954"/><path fill="#ffffe0" fill-rule="evenodd" d="M195.27734 337.38281h22.1797V327.1875h-22.1797v10.19531"/><path fill-rule="evenodd" d="M198.77734 329.02344h.50782v6.29297H198.5v-4.48829h-1.39063v-.55468l.5625-.0664.25-.0547.23047-.08984.20313-.14063.17578-.21093.14063-.29297.10546-.39453m4.8125 0l.23047.01953.21875.05469.20703.08984.19922.1211.1836.14843.17187.17578.30078.41797.24219.4961.17969.54687.11328.57813.03906.58984-.03906.59375-.11328.58594-.17969.55078-.24219.5039-.30078.42579-.17187.17968-.1836.15625-.19922.1211-.20703.09375-.21875.05468-.23047.01954-.22656-.01954-.21875-.05468-.21094-.09375-.1953-.1211-.1836-.15625-.17188-.17969-.30078-.42578-.24219-.5039-.18359-.55078-.10938-.58594-.03906-.59375h.83203l.03125.5625.08203.50781.125.4414.16407.375.1875.30079.21094.22265.22265.13672.22656.04688.22657-.04688.22265-.13671.21094-.22266.1914-.30078.16407-.375.125-.4414.08203-.50782.02734-.5625-.02734-.5625-.08203-.5-.125-.4336-.16406-.36718-.19141-.29297-.21094-.21094-.22265-.13281-.22657-.04688-.22656.04688-.22266.13281-.21093.21094-.1875.29297-.16406.36719-.125.43359-.08204.5-.03125.5625h-.83203l.03906-.58985.10938-.57812.1836-.54688.24218-.49609.30078-.41797.17188-.17578.1836-.14844.1953-.12109.21094-.08984.21875-.0547.22656-.01952m5.09375 0h.50782v6.29297h-.78516v-4.48829h-1.39063v-.55468l.5625-.0664.25-.0547.23047-.08984.20313-.14063.17187-.21093.14453-.29297.10547-.39453m2.82422 2.17578h.78516l.01953-.3164.0586-.28907.10156-.25.13672-.21484.18359-.17579.22266-.1289.26562-.07813.3086-.03125.23827.02344.22266.0625.20313.10156.17968.13672.14844.17578.11328.20313.07031.23828.02735.26563-.02344.26562-.0664.22656-.10938.1914-.15234.17188-.20313.16016-.2461.16797-.6328.38672-.53907.3164-.4375.31641-.34765.32422-.26172.33594-.1914.35156-.125.36719-.07032.39453-.01953.41797h4.21094v-.73829h-3.33204l.08203-.28515.1172-.23828.14452-.19922.1875-.17969.23047-.17187.28125-.17579.71485-.41796.41797-.20704.34375-.23046.28125-.25.21875-.26563.16406-.28125.11328-.28125.0625-.28515.01953-.28125-.04297-.38282-.11719-.34765-.1914-.3086-.25-.26172-.30078-.21484-.34766-.15625-.3789-.10156-.40626-.03125-.4375.03125-.39843.09765-.35157.16797-.30468.23438-.25.30469-.1836.375-.11719.4453-.03906.51954"/><path fill="#ffffe0" fill-rule="evenodd" d="M151.82813 436.8125h22.17968v-10.19531h-22.17969v10.19531"/><path fill-rule="evenodd" d="M155.32813 428.45313h.5078v6.29296h-.78515v-4.48828h-1.39062v-.55469l.55859-.0664.2539-.05469.23048-.08984.20312-.14063.17188-.21094.14453-.29296.10547-.39454m4.8125 0l.23046.01954.21875.05468.20703.08985.19532.1211.1836.14843.17187.17578.30468.41797.2422.4961.17968.54687.10937.57812.03907.58985-.03907.59375-.10937.58593-.17969.55079-.24219.5039-.30468.42578-.17188.17969-.1836.15625-.1953.1211-.20704.09374-.21875.0547-.23047.01952-.23046-.01953-.21875-.05469-.20703-.09375-.19532-.12109-.1836-.15625-.17187-.17969-.30468-.42578-.2422-.5039-.17968-.55079-.10937-.58593-.03907-.59375h.83203l.03125.5625.07813.5078.1289.44142.16016.375.1914.30078.21095.22265.22265.13672.22656.04688.22657-.04688.22265-.13672.21094-.22265.1914-.30079.16016-.375.12891-.4414.08203-.50781.02734-.5625-.02734-.5625-.08203-.5-.1289-.4336-.16016-.36719-.1914-.29296-.21095-.21094-.22265-.13281-.22656-.04688-.22657.04688-.22265.1328-.21094.21095-.1914.29296-.16016.3672-.12891.43359-.07813.5-.03125.5625h-.83203l.03907-.58985.10937-.57812.17969-.54688.24219-.4961.30468-.41796.17188-.17578.1836-.14844.1953-.1211.20704-.08984.21875-.05468.23047-.01954m5.08984 0h.51172v6.29297h-.78906v-4.48828h-1.38672v-.55469l.55859-.0664.2539-.05469.22657-.08984.20703-.14063.17188-.21094.14062-.29296.10547-.39454m2.82422 2.17579h.78906l.01953-.31641.0586-.28906.09765-.25.14063-.21485.18359-.17578.22266-.1289.26562-.07813.30469-.03125.23828.02344.22656.0625.20313.10156.17969.13672.14843.17578.11328.20313.07032.23828.02734.26562-.02344.26563-.0664.22656-.10938.1914-.15625.17188-.19922.16016-.2461.16797-.63671.38671-.53516.31641-.4375.3164-.34765.32423-.26563.33593-.1875.35157-.125.36718-.07031.39454-.01953.41796h4.21094v-.73828h-3.33203l.08203-.28515.11328-.23829.14844-.19921.1875-.1797.23046-.17187.27735-.17578.71875-.41797.41406-.20703.34766-.23047.28125-.25.21875-.26562.16406-.28125.10937-.28125.06641-.28516.01953-.28125-.04297-.38281-.1211-.34766-.1875-.30859-.25-.26172-.30468-.21484-.34375-.15625-.38281-.10156-.40625-.03125-.4336.03125-.39843.09765-.35547.16797-.30469.23438-.2461.30468-.1875.375-.11327.44531-.04297.51954"/></g></defs><use xlink:href="#an"/></svg>