<svg xmlns="http://www.w3.org/2000/svg" role="img" xmlns:xlink="http://www.w3.org/1999/xlink" viewBox="142.45 309.95 326.84 171.84"><defs><clipPath id="a"><path d="M144 311.67188h1v168.65625h-1zm0 0"/></clipPath><clipPath id="b"><path d="M144 311.67188h324v168.65625H144zm0 0"/></clipPath><clipPath id="c"><path d="M467 311.67188h1v168.65625h-1zm0 0"/></clipPath><clipPath id="d"><path d="M144 478h4v2.32813h-4zm0 0"/></clipPath><clipPath id="e"><path d="M147 478h3v2.32813h-3zm0 0"/></clipPath><clipPath id="f"><path d="M153 479h8v1.32813h-8zm0 0"/></clipPath><clipPath id="g"><path d="M160 479h3v1.32813h-3zm0 0"/></clipPath><clipPath id="h"><path d="M167 478h8v2.32813h-8zm0 0"/></clipPath><clipPath id="i"><path d="M173 478h3v2.32813h-3zm0 0"/></clipPath><clipPath id="j"><path d="M180 479h8v1.32813h-8zm0 0"/></clipPath><clipPath id="k"><path d="M187 479h3v1.32813h-3zm0 0"/></clipPath><clipPath id="l"><path d="M193 479h8v1.32813h-8zm0 0"/></clipPath><clipPath id="m"><path d="M200 479h3v1.32813h-3zm0 0"/></clipPath><clipPath id="n"><path d="M206 478h9v2.32813h-9zm0 0"/></clipPath><clipPath id="o"><path d="M213 478h3v2.32813h-3zm0 0"/></clipPath><clipPath id="p"><path d="M220 478h8v2.32813h-8zm0 0"/></clipPath><clipPath id="q"><path d="M226 478h4v2.32813h-4zm0 0"/></clipPath><clipPath id="r"><path d="M233 479h8v1.32813h-8zm0 0"/></clipPath><clipPath id="s"><path d="M240 479h3v1.32813h-3zm0 0"/></clipPath><clipPath id="t"><path d="M246 479h9v1.32813h-9zm0 0"/></clipPath><clipPath id="u"><path d="M253 479h3v1.32813h-3zm0 0"/></clipPath><clipPath id="v"><path d="M260 478h8v2.32813h-8zm0 0"/></clipPath><clipPath id="w"><path d="M266 478h4v2.32813h-4zm0 0"/></clipPath><clipPath id="x"><path d="M273 478h8v2.32813h-8zm0 0"/></clipPath><clipPath id="y"><path d="M287 477h7v3.32813h-7zm0 0"/></clipPath><clipPath id="z"><path d="M300 477h7v3.32813h-7zm0 0"/></clipPath><clipPath id="A"><path d="M314 477h6v3.32813h-6zm0 0"/></clipPath><clipPath id="B"><path d="M329 476h3v4.32813h-3zm0 0"/></clipPath><clipPath id="C"><path d="M341 477h5v3.32813h-5zm0 0"/></clipPath><clipPath id="D"><path d="M354 477h6v3.32813h-6zm0 0"/></clipPath><clipPath id="E"><path d="M367 477h7v3.32813h-7zm0 0"/></clipPath><clipPath id="F"><path d="M380 479h8v1.32813h-8zm0 0"/></clipPath><clipPath id="G"><path d="M393 479h8v1.32813h-8zm0 0"/></clipPath><clipPath id="H"><path d="M391 478h3v2.32813h-3zm0 0"/></clipPath><clipPath id="I"><path d="M406 479h9v1.32813h-9zm0 0"/></clipPath><clipPath id="J"><path d="M406 479h3v1.32813h-3zm0 0"/></clipPath><clipPath id="K"><path d="M420 478h8v2.32813h-8zm0 0"/></clipPath><clipPath id="L"><path d="M420 480h2v.32813h-2zm0 0"/></clipPath><clipPath id="M"><path d="M434 477h6v3.32813h-6zm0 0"/></clipPath><clipPath id="N"><path d="M449 476h2v4.32813h-2zm0 0"/></clipPath><clipPath id="O"><path d="M462 476h3v4.32813h-3zm0 0"/></clipPath><clipPath id="P"><path d="M144 465h4v4h-4zm0 0"/></clipPath><clipPath id="Q"><path d="M144 452h4v3h-4zm0 0"/></clipPath><clipPath id="R"><path d="M144 439h4v3h-4zm0 0"/></clipPath><clipPath id="S"><path d="M144 425h4v4h-4zm0 0"/></clipPath><clipPath id="T"><path d="M144 412h4v4h-4zm0 0"/></clipPath><clipPath id="U"><path d="M144 398h4v5h-4zm0 0"/></clipPath><clipPath id="V"><path d="M144 384h4v6h-4zm0 0"/></clipPath><clipPath id="W"><path d="M144 371h3v6h-3zm0 0"/></clipPath><clipPath id="X"><path d="M144 356h2v8h-2zm0 0"/></clipPath><clipPath id="Y"><path d="M144 343h2v8h-2zm0 0"/></clipPath><clipPath id="Z"><path d="M144 341h2v4h-2zm0 0"/></clipPath><clipPath id="aa"><path d="M144 330h3v8h-3zm0 0"/></clipPath><clipPath id="ab"><path d="M144 316h2v9h-2zm0 0"/></clipPath><clipPath id="ac"><path d="M144 315h1v3h-1zm0 0"/></clipPath><g id="ad" clip-path="url(#clip1)"><path fill="#fff" fill-opacity="0" fill-rule="evenodd" d="M0 0h1000v1000H0zm0 0"/><path fill="#d3d3d3" fill-opacity="0" fill-rule="evenodd" d="M162.15234 355.86719l-.23437.29297.0586.23437.11718.17188.17578.23437.29297.34766.11328.0586.11719-.17188.0586-.23438.17577-.17578.46485-.17578h.69922l.23437.29297.28906.8164.0586.17579.17578.23046.35156.23438.69922.69922.17188.17578.23437.34765.23438.41016.28906.58203.41015.46485.23047.23437.23438.17578.11719.23047.17578.29297.17187 1.16406v.23438l.0586.28906.05859.11719.11719.11719.34765.41015.11719.17188.17578.17578.17578.23437.11719.17188.17188.35156.05859.23438.23437.40625.23438-.0586-.17578.17578-.0586.92969h-.58203l-.23437-.11328-.34766.11328-.11719.11719-.05859.29297-.0586.17578-.11718.17187-.46484.29297-.0586.23438-.0586.11328v.64453l.0586.17187v.41016l.0586.0586v.40624l.05859.40625.11719.17579.05859.05859.23047.64062-.0586.29297v.69922l-.05859.58203v.23438l-.0586.23047-.05468.35156v1.92187l.05469.1172h.42578l-.36719.11718-.02344.35156.89063 1.16797 1.74219.53906 1.33984.35938v.53906l.08984.8086.53516.71484 1.51953.26953.89063-.08594.08984 1.16406.53516.1797 1.16015-.1797 2.05469-.98437 1.16016-.36328 1.8789-.17578 1.69531-.1797-.17968.71876-1.51563.08594-1.25.08984-.80469.26953-1.07421.8086.26953.71875.53515.89843-.17968.625-.26563.8086.26563 1.07812.625.89844.80468.17969 1.25-.1797-.26562.72267.09766.5039.05468.29297v.17188l.0586.29296v.40625l.17578.1172.35156.11718h.40625l.29297-.17578.11328-.11719.0586-.11719.11718-.23047.0586-.17578.35156-.46484.23047-.17578.17578-.0586.17578.0586.0586.17578.11718.98828.05469.46875.0586.17188.11718.23437.17578.0586.8164.05859h.28907l.11719.23437.05859.40625.0586.35156v1.10547l.11718.29297.11719.34766.28906.69922.17578.35156.58203.7539.35157.17579.17187.0586.46875.23437.64063.46484.34765.23438.29297.17578.29297.05468.23047.0625.8164.34766.29297.17578.11328.17188.35157.35156.11719.17578.52343.64063v.28906l.0586.35156v.34766l.05859.35156.0586.28906.11718.0586.17188.05859h.17578l.58203.23437.17578.1172.17578.28905.17578.23438.11328.23437.29297.23047.11719.11719v.41016l.0586.05468.28906.23438.23437.11719.0586.11718.11718.17188.0586.11719.23047.23437.05859.17578.23437.0586.1172.05859-.1172.11328-.05859.11719v.11719l-.11719.29296-.11719.28907v.58203l.17579.11719.11718.05859.0586.11719.11719.11719.11328.05859.17578.34765.0586.35157.05858.40625v.17578l-.05859.17578-.11719.69922v.17187l.1172.17579.29296.29296h.40625l.17578.1172.11719.17187.11719.29296v.23438h-.52735l-.23047-.23438h-.23437l-.17578.0586-.0586.69922.0586.34765.11719.17579.17578.41015.11718.23047.28907.46875.17578.05469h.52344l.23437.0586.75781.64062.0586.29296v.23438l.05859.0586.23047.34765v.35156l-.11719.17188v.29297l.29297.28906.29297.17578.17187.0586.29297.17577.29297.1172.58203.40624.28906.23438.29297.17578.21875.16015.01563.01172.23047.17579.64062.52343.17578.23438.1172.17578.17577.17578.11328.17188v.64062l.1172.17578.46874.11719.58203.11719.23438.05859.23047.11328.29297.11719.11328.0586.58593.35156.28907.17187.17578.0625.17578.05469.17578.0586.69922.35155.28906.17579.23438.05468.28906.17578.23437.1172.64063.40624.29297.11719.17187.0586.23438.05859.41015.05859.23047.0586.23438.11718.0586.17188-.41017.17578.46875.0586.0586.29296.11328.23438.17578.05468.23438.0586.17578.05859.40625.11719.64062.23437.11719.17188.0586.23437v.17578l-.0586.1172-.0586.40624.23438.23438.11719.05859.34766.11719.64062.23047.17578.11718.28906.1172.17578.17577.23438.46485.58203 1.10546.17578.17579.34766.17578.17578.11719.35156.11718 1.04688.52344.23437.0586.46485.11327.29297.0586.46484.17578.75781.58203.23438.23438.34765.46484.17578.17578.28907.23438.8164.69921.29297.17579.28906.28906.29297.17578.29297.28906.69531.64063.17578.17578.29297.23437.28907.23438.46875.28906.64062.58203.34766.23438.23437.29297.34766.34765.35156.46485.9336.99218.34765.40625.11719.17579.23437.05859.11328.11719.64454.17578.23047.11328.23437.0586.29297.17577.23047.1172.9336.69921.40624.40625.23438.17578.40625.17578.23437.11719.8164.34766.34766.23437.23438.11719.29297.28906.23047.11719.7578.35156.35157.17188.23047.05859.29297.11719.23437.0586.8711.17577h.8164l.46875.23047.17188.0586.875.69921.46484.1172.29297.05858.17578.0586.23047.0586.46875.05859.34766.05859.35156.0586.40625.05859h.29297l.17187.0586v.23046l.17578.17578h.29297l.34766.0586.35156.05859.69922.11719h.64063l.46484-.23438.29297-.17578.17187-.11719.41016-.17187.28906-.17578.9336-.46485.46875-.29297.52343-.29296.46485-.17188.46484-.17578 1.05078-.46485.28906-.11718.41016-.11719.28906-.11719.52735-.17578 1.51562-.69922.58203-.34765.28907-.0586.29297-.0586.34765-.11718.875-.23047.35156-.11719h.11329l.23437-.05859.875-.23437.23438-.0586h.8125l.35156-.0586.8164-.11718.17188-.0586.35156-.05468.29297-.0586.23047-.05859.8164-.17578.17579-.0586h.34765l.23438-.05859.46484-.11718.75781-.17188.23438-.0586h.34765l.41016-.11718.28906-.0586 1.28516-.05859h.28906l.41016-.0586.23047-.05858h.17578l.875-.1172h.40625l.41015-.11718h.34766l.35156-.11328.8711-.0586h1.75l1.04687.28907.41016.11719.28906.11718.35156.11719.28907.11719 1.05078.17187.28906.0586h.29297l.29297.05859.17187.0586.41016.05859.17187.0586.1172.05858h.11718l.11719.0586.35156.0586h.11328l.41016.0664 1.92187.39453 1.92578.39453 1.51953.44922 1.69532.71875 2.14453.80469 1.60547-.71875 1.42968-.80469 1.16016-1.07813 1.25-.44921 3.03516-.71875 1.875-.35938 2.14453-1.34765 2.23437-1.25391 2.5-1.25781 1.69531-.44922 1.78516-.17969 1.16016-.26953.625.53906 1.33984-.26953.71485-.98828.98437-1.34375.44531-.17969.80469-.35937 1.875-.53907 1.78516-.44921 1.25-.26954 1.16015-.08984 1.69922-.08984 1.96094-.26954 1.25-.08984h.53906l.625-.08984h.89063l2.14453-.17969 2.41015-.17969 2.58985-.08984 1.69531.17969 1.60938.08984 1.42968.35938 1.16016.71875 1.875.98828 1.16015 1.52734.26563.71484.6289.08985.35548.89844.53515.53906.53516 1.52734 1.07422.35938h.53515l-.80469.53515.08985 1.70703.71484 2.69532.89063.80468.89453.98829.71484 1.2578 1.78516.53907 1.51953-.17969.35547 1.34375 1.60937-.80469.98047-.53906.26953.26953.31641-.21484.21875-.14453.80078.44922.44922-.35938h.35547l.53515-.26953.53907-.71875.53515-.26953.625-.98828 1.16016.44922.83984.3711 1.39454.61718 1.6953-.17969h1.60548l1.78515.08985.17969-1.70704.53516-1.34375.80468.26954.4922.84765.40233.40625-.08984.53906v.35938l.71485.44922.71093-.26953h1.42969l.35938.98828.4453 1.25781.71485 1.34375 1.25.6289 1.69531.62891.71485-.17969.17969-.53906.98046-.08984.44922.35937.08594 1.25782-.26563.6289-.53515.17969v.53906l.71484.98438.26563.53906.98437.98828.80078 1.07813-.26562.35937-.08985.89844-.625 2.33203-.35546 2.0664-.08985 1.79298-.17969.71875-.08984.53906v1.4375l-.98047 1.88281-.35937 1.70703-.53516.89844-.80469 1.16797-.26562.53906 2.05469 1.2539.08593.35938-.35546.53906-.08985-.17968v.80859l.08985 1.4375-.44532.71484-1.07422.09375-.26562.71485.53515.89844.8047.71875 1.16015.80859 1.33984.26953.44531.35938-.35546.44921-1.78907-.08984-1.25-.44922-.71484-.71875-.625-.08984-.17578 3.58984-.1875 1.3086h89.35937V311.70313h-55.26953v49.08203l.76172.125 3.28906.54296 2.02344 2.83594v2.7539l2.35156.33204 2.34766.33203h4.05078l-1.3789 4.16016-2.02344.70703-2.02344.70312-.54297.34375-2.59375 1.6172-.1875.11718-2.02344-2.07813-.73046-2.74218-2.67188-2.07813-1.375-3.5-.0664-.08203-1.95704-2.67188 2.75-1.41796v-49.08204H294.42187v91.41407l.1172.03125.1328.01172.07422.07421.10547.04688.08985.0586.08593.05859.08985.0586.29687.29687.0586.08984.03125.11719.02734.11719.01563.13671-.03125.1172-.0586.08983-.0586.08594-.04296.10547-.04688.10156-.02734.1211v.14453l.17578.26953.14844.14844.07422.08594.07422.07421.04296.10547.0625.08985.0586.08593.04297.10547.0586.08985.04687.10156.04296.10547.0586.08594.11719.17968.07421.07422.0625.08594.0586.08984.04297.10547.0586.08985.05858.08593.0625.08985.0586.08984.04297.10156.11719.17969.07421.07422.0586.08594.07422.07421.08984.0586.10547.04687h.14844l.1328-.01562.13282.01562.10156-.04687.07422-.07422.04688-.10156-.01563-.13281v-.14844l-.04687-.10547-.02735-.11719-.04687-.10156-.02735-.1211-.04296-.10156-.0625-.08984-.04297-.10156-.04297-.10547-.03125-.11719-.01563-.13281-.01171-.13672.08593-.0586.0586-.08593.12109-.03125.04297.10547.01562.1328v.1172l.0586.10156.0586.08984.08983.0586.14844.14843.0586.08985.04296.10547-.01171.10156.08593.0586.10547.04687.08594.0586.08984.05858.07422.07422-.11719.02735-.10546.04687-.08594.0586-.07422.07421-.0586.08985-.0625.08594-.02734.12109-.04687.10156-.04297.10547-.03125.11719-.01172.13281-.01563.13281v.14844l.02735.11719.04687.10547.04297.10156.0586.08984.07421.07422.08985.0586.07422.07421.08984.0586.0586.08984.04296.10547.04688.10156.11719.03125.1328.01563h.14845l.11718-.03125.10547.04297.04297.10547.04688.10156.02734.1211L299.5 410l.02734.11719.03125.1211.02735.11718.10547.04297.10156.04687.13281-.01562.14844.14844.0625.08593.07422.07422.07031.07422.08984.0625.10547.04297.10156.04297.1172.03125.13671.01562.11719-.03125.07422-.07422.02734-.11718-.01172-.13282-.03125-.12109-.02734-.11719.04297-.10547h.11719l.08984.0625.11719.02735h.14843l.13282.01562h.14843l.13282.01563.1328-.01563h.14845l.1328-.01562.13282-.01172.13672.01172.11719-.02735.13281-.01562.1914-.0586-.05859.17579-.01562.1328-.02735.1211-.01562.13281-.0586.08594-.1328.01563-.10548.04687-.10546.04297-.1172.03125-.11718.02735-.26563.03125h-.14843l-.13281.01562-.07422.07422.05859.08594.14844.14843.11719.1797.07421.0703.08985.0625.08984.0586.08594.0586.08984.05858.10156.04297.10547.0625.10547.04297.08594.0586.10547.04687.10156.04297.17969.11719.0586.08984-.04298.10156-.04687.10547.01562.13281.22266.22266.0586.08985.04296.10156.03125.1211.04297.10155.01563.13282.03125.11718.01171.13672.03125.11719.14844.14844.10156.04297.10547.04296.1172.03125.1328.01563.13672.01563h.11719l.11719-.03125.08984-.0586.04297-.10547.04688-.10156.04296-.10547.03125-.11719.01172-.1328v-.14845l-.01172-.1328-.01562-.13282-.03125-.11719-.04297-.10547-.04688-.10547-.04296-.10156-.04297-.10547-.01563-.13281.01563-.13281.02734-.11719.03125-.11719.02735-.1211.04687-.10155.08984-.0586.08594-.0625.07422-.07422.08984-.05859.22266-.22266.0586-.08593.07421-.07422.11719-.17969.0586-.08594v-.14844l-.07423-.07421-.10156-.04688-.10547-.04297-.10156-.04297-.0586-.08984-.04687-.10547-.02734-.11719.08984-.05859.11719-.03125.10156-.04297.17969-.11719.14844-.14843.01172-.13282-.01172-.10546-.08985-.0586-.1328.01563h-.14845l-.1328.01562-.13282-.01562-.1211-.03125-.08593-.0586-.07422-.07422-.0586-.08984-.0625-.08594-.11718-.17969-.0586-.08593.03125-.1211.08594-.05859.1211-.03125.05859-.08594v-.1211l-.03125-.11718-.0586-.08984-.05859-.08594-.04687-.10547-.02735-.11719-.01562-.1328.0586-.08985.07421-.07422.08984-.0586.1172-.17968.07421-.07422.0586-.08594.14843-.14844.1211-.03125.1328-.01562.13282.01562.07422.07422.04297.10547.01562.13281-.03125.1172-.11719.03124-.1328.01172-.14844.14844-.04297.10547-.04688.10156-.02734.1211-.03125.11718v.14844l.03125.11719.04297.10546.05859.08985.07422.07031.07422.07422.11719.03125.12109.02734.11719-.02734.1328-.01563h.1172l.08984.0586.07422.07422.04687.10546.0586.08594.10156.04688.13281.01562.10547.04297.08594.0586-.01172.10546-.07422.07422-.17969.11719-.05859.08984-.08984.0586-.07032.07422-.07421.07421-.0625.08985-.02735.11719-.01562.1328.01562.13282-.01562.13281v.14844l.01562.13281.02735.1172.03125.12108.07421.07422.08985.0586.08594.0586.08984.05858.11719.03125v.08594l-.10157.04688-.08984.0586-.26563.03124-.11718.02735h-.14844l-.10547.04296-.10156.04688-.0586.08984-.0625.23438-.01171.13281-.03125.1211-.01563.1328v.29298l-.01172.1328.01172.13673.01563.1328.1328.01563.13282.01172.1211.03125.08593.0586.07422.07421.04688.10547.04296.10157.01563.1328v.44532l-.01563.13281v.44532l.03125.26562.02735.11719.01562.13281.03125.11719.08594.21094.03125.26562v.14844l-.03125.11719-.02734.11718-.03125.1211-.02735.11719-.03125.11718-.03125.1211-.01171.1328-.01563.13282.08984.0586.1172-.03125.10155.01562.04688.10547-.03125.26562v.44141l-.04297.10547-.04688.10547-.04296.10156-.04297.10547-.0586.08594-.03125.12109-.04296.11719-.03125.11719-.01563.1328.01563.13282.05859.08984.10547.04688.08594.0586.05859.08593-.01172.13672-.03125.11719-.04297.10156v.44531l-.01562.13281v.14844l-.03125.11719-.04297.10547-.02735.11719-.04687.10546-.04297.10157-.03125.12109-.02734.11719-.03125.13281-.03125.11719-.02735.11719-.04297.10546-.03125.1172-.03125.12108-.01171.13282-.01563.13281v.29688l.02734.11718v.14844l.04688.39844.02734.11719.0586.08984.12109.03125h.14844l.13281-.01563.0586.08985v.11719l-.0586.08984-.08984.0586-.10157.04296-.10546.04688-.08985.05859-.08594.0586-.13671.01562-.1172-.03125-.1328-.01563-.10157.04688-.0625.08594-.01172.13671-.01562.13282-.03125.11719-.02735.11718-.01562.13281-.03125.1211v.29687l.01563.13282.03125.11718v.14844l.01171.13281v.14844l-.02734.11719-.04688.10156-.02734.1211-.03125.11718-.0586.08985-.07421.07421-.10156.04297-.10547.04688-.11719.02734-.1211.03125-.10156-.04687.0586-.08594.10547-.04688.02734-.11718.03125-.11719.02734-.1211.03125-.11718v-.14844l.01563-.13281-.03125-.11719-.04297-.10547-.10547.01563-.07422.07422-.10156.04296-.08984.0625-.07422.07422-.04297.10157-.01563.1328-.03125.1172L304.25 426l-.03125.11719-.02734.11719-.03125.12109-.02735.11719-.03125.11718-.04297.10547-.08984.0586h-.08984l-.1172-.03125-.03124-.08594.01562-.13672-.03125-.11719v-.14844l-.01171-.1328v-.14844l-.0625-.23438-.02735-.1211-.04297-.10156-.04687-.10546-.0586-.08594-.05859-.08985-.04297-.10546-.0625-.08594-.14844-.14844-.0703-.07422-.10548-.04687-.10547-.04297-.10156-.04297-.29687-.29688-.08985-.07421-.08594-.0586-.10546-.04297-.08985-.0625-.08594-.0586-.10546-.04296-.08985-.0586-.08594-.0625-.07421-.0703-.10547-.04688-.08594-.0586-.10547-.04296-.08984-.0625-.10156-.04297-.10547-.04297-.08594-.0586-.10547-.04687-.10547-.04297-.10156-.04687-.08985-.0586-.10156-.04297-.10547-.04296-.08984-.0625-.11719-.02735-.13281-.01562-.13281.01562H299.75l-.13281.01563-.11719-.03125-.08984-.0586-.07422-.07422-.08985-.05859-.10156-.04688h-.14844l-.12109-.02734-.10156-.04297-.07422-.07422-.11719-.17968-.08984-.0586-.10156-.04297-.08985-.0625-.10547-.04296-.08984-.0586-.08594-.0586-.10547-.04687-.0586-.08594-.05858-.08984-.04297-.10547-.04688-.10156-.07422-.07422-.08594-.0586-.07421-.07421-.08985-.0586-.22265-.22265-.04297-.10547-.03125-.26563.10547-.04296h.14453l.10547.04296.07421.07422.08985.0586.08594.0586.10546.04687.08985.05859.14844.14844.0703.07422.14845.14843.0625.08594.07421.07422.08594.0586.07422.07421.08985.0625.08984.0586.08594.05859.26953.17578.10156.04688.10547.04296.10156.04297.04688-.07421.05859-.08594.07422-.07422.07031-.07422.10547.04297.07422.07422.0586.08984.04296.10156.04688.10547.04296.10547.1211.02735.11719-.02735.07421-.08984.04297-.10547.0586-.08985.07422-.07421.10546-.04297.1172-.02735.1328.01172.08985.0586.14844.14843.05859.08985.04297.10547.04687.10156.04297.10547.04297.10156.10547.04688.10547.04296.13281.01563.08594-.0586.0586-.08984.07421-.07422.10547-.04297.11719.02735.10547.04687.10156.04297.10547.04297.10156.04688.17969.11718v.11719l-.01563.13281.01563.13281.01562.13672.0586.08594.10156.04688.1211.02734.11718.03125h.14844l.11719-.03125.05859-.08984.17969-.1172.05859-.08983.07422-.07422.0586-.08594.11718-.17969.17969-.11719.11719.03125.08984.0586.04297.07422-.01563.1328v.1172l.08985.05859h.14843l.13282-.01563.1328-.01171.26563-.03125.10547-.04297.11719-.03125.1211-.02735.07421-.07421.07031-.07422.0625-.08985-.01562-.10547-.04688-.10156-.10156-.04297-.10547-.01562-.11718.02734-.26563.03125h-.14844l-.07421-.07422-.08985-.0586-.11719-.03124-.11718-.02735-.13282-.01562h-.14843l-.13282.01563h-.29687l-.10547-.04688-.14844-.14844-.04297-.10156-.05859-.08984.22266-.22266.08593-.0586.10547-.04296.11719-.03125.13281-.01563.13281.01563.13672.01562.10157.04297.1328-.01172.08985-.0625.10156-.04297.0625-.08984-.04687-.10156-.08984-.0586-.1172-.03125-.10155-.04296-.0586-.08985-.0625-.08984v-.11719l.01563-.13281.10547-.04688.07421-.07031v-.1211l-.08984-.05859-.03125-.11719.08985-.05859.07421-.07422.04297-.10547.0586-.08984.04687-.10156.01563-.13281v-.14844l-.04688-.10547-.04297-.10156-.08984-.0586-.13281-.01562-.10157-.04297-.13671-.01563-.1172-.03125h-.4453l-.13282-.01562-.13281-.01172-.13281-.01563-.11719-.03125h-.14844l-.13281-.01562-.13281-.01172-.26563-.03125-.1211-.04297-.08593-.0586-.07422-.07421v-.14844l.01172-.13281.10547-.04688.10156-.04296.13281-.01563h.15235l.13281-.01562h.29297l.1211.03125.10156.04296.08984.0586.23438.0625.12109-.04688.08984-.05859.10156-.04297.13282-.01562.10547.04296.10156.04688.13281.01172.1211-.02735h.14453l.12109-.03125.11719-.02734.10547-.04687.07421-.07422.08594-.0586.14844-.14843.0586-.08594.04687-.10547.02734-.11719.01563-.10547-.10156-.04296-.08985-.0586-.11719-.03125-.10546-.04297-.08985-.0625-.07422-.08594-.07422-.07421-.10156-.04297-.10547-.04688-.10156-.04297-.0586-.08984-.04687-.10156-.08594-.21094-.0625-.08594-.05859-.08984-.07422-.07422-.08594-.0586h-.26953l-.11719.03126-.08984.05859-.10156.04297-.13281.01562-.10547-.01562-.02735-.11719-.0625-.08984-.11718-.03125-.10157-.04297-.14843-.14844-.03125-.11719-.01563-.10546.07422-.07422.17969-.1172.11719-.02733.11718-.03125.13672.01562.10156.04297.10547.04297.10156.04687.10547.04297.1172.03125.1328.01563.1172.02734.1328.01563.10547-.01563.08985-.0586-.07422-.07421-.10547-.04297-.07422-.07422-.07422-.08984-.14844-.14844-.08593-.0586-.08985-.05859-.07422-.07422-.08984-.0586-.10156-.04687-.1211-.02734-.10156-.04688-.10547-.04296-.11719-.03125-.10156-.04297-.1211-.03125h-.14843l-.11719.03125-.10546.04297-.08594.0625-.17969.11718-.08594.0586-.08984.0586-.10547.04687-.08594.05859-.10547.04297-.10156.04297-.10547.04687-.07422.07422-.05859.08985-.0586.08593-.04687.10547-.0586.08594-.07421.07422-.13281-.01172-.1172-.03125h-.11718l-.07422.07422-.08984.0586-.07422.07421-.08984.0586-.08594.05859-.10547.04687-.10156.04297-.13672.01563-.10156-.04297-.14844-.14844-.10547-.04688h-.08594l-.10547.04688-.10156.04297-.1211.03125-.11718-.03125-.07422-.07422v-.11719l.03125-.1211.07422-.0703.0586-.08985.07421-.07422.11719-.03125.10547-.04296h.29297l.13281-.01563.13672-.01563.10156-.04296.08985-.0586.10156-.04687.08984-.0586.13281-.01171.08985.05859.13281.01172.08984-.0586.08594-.05859.10547-.04297.08984-.0586.08594-.0625.08985-.05859.14843-.14843.0586-.08594.05859-.08985.10547-.04296.13281-.01563.11719.02735.1211.03125.05859-.0586.05859-.08984.03125-.26563.02734-.11719.10547.01172.13281.01563.10157-.04297.08984-.0586.0586-.08984.07421-.07422.0586-.08984.04687-.10156.01172-.13281-.01172-.13282-.04687-.10547-.14844-.14843-.0586-.08985-.05859-.08594-.04297-.10546v-.44532l.01563-.1328v-.14845l.01172-.1328-.0586-.0586-.08984.0586-.10156-.04298-.17969-.11719-.08594-.05859-.0625-.08984-.0586-.08985-.07421-.07421-.08594-.0586-.1211.03125-.10155.01172-.10547.04688-.08594.05859-.10547.04297-.14844.14844-.08984.05859-.08594.0586-.08984.0625-.10547.04296-.13281.01563v-.1211l.10547-.04297.11718-.03125.07422-.0703.04297-.10548v-.14844l-.02734-.11718-.14844-.14844-.13281-.01563h-.14844l-.11719.03125-.10547.04297-.10156.04297-.08984.0625-.11719.02735-.07422-.07422.01172-.13281-.04297-.10157-.04297-.10547-.08984-.05859-.11719.02734-.1211.03125-.11718.03125-.10156.04297-.1211.03125-.10156.04297-.10547.04297-.08984.0586-.10156.01562v-.11719l.01562-.13281-.0586-.08985-.07421.04297-.14844.14844-.0586.08985-.07421.07421-.04688.10547-.04296.10156-.07422.07422-.0586.08985-.07422.07422-.05859.08593-.07422.07422-.08984.0625-.07422.07031-.07422.07422-.10156.01563-.13281.01562-.10547-.04296v-.1211l.14843-.14844.04297-.10156.0586-.08984.04687-.10156.04297-.10547.0586-.08985.03124-.11719.04297-.10156.03125-.1211.02735-.11718.04687-.10547.04297-.10156.04297-.10547.07422-.07031.08984-.0625.08985-.0586.10156-.04296h.29687l.26563-.03125.10547-.04297-.07422-.07422-.11719-.03125-.10547-.04297-.08984-.0586-.10156-.04687-.08985-.0586-.10156-.04296-.10547-.04297-.08984-.0625-.08594-.0586-.10547-.04296-.10156-.04297-.1211-.03125-.11718-.03125-.10157-.04297L297.5 410.25l-.10156-.04297-.08985-.0586-.04296-.10546-.01563-.13281.10156-.04297.13281-.01563.13672.01563.13282-.01563.10156-.04297.0586-.08984.01562-.10547-.08985-.0586-.07421-.07421-.10157-.04297-.08984-.0586-.14844-.14843-.04297-.10547-.01562-.13281v-.29297l-.0586-.08985-.08984-.05859-.07422-.07422-.04297-.10547-.03125-.11718-.0586-.08985-.07421-.07422-.11719-.02734-.07422-.07422-.08984-.0586-.08984-.0625-.08594-.05859-.07422-.07421-.0586-.08594-.04687-.10547-.08594-.0586-.14843-.14843-.19532-.0586-.1328.01563-.10157.04297-.07422.07422-.04688.10156-.04296.10547-.0586.08984-.0586.08594-.29687.29687-.08984.0586h-.08594l-.0625-.08594-.04297-.10547.03125-.11719.0586-.08984.02734-.11719-.01172-.13281-.08984-.0625-.10547.04688-.11719.02734-.11719.03125-.26953.17578-.10156.04688-.11719.02734-.10546.04687-.08985.0586-.10156.04297-.0586-.08594-.04687-.10547.01563-.13281.04687-.10547.07031-.07422.07422-.07031.0586-.08985v-.14843l-.04297-.10547h-.23829l-.10156.04687-.03125.11719-.02734.11719-.03125.1211-.07422.04296-.13281.01563-.07422-.04688-.04297-.10156-.04297-.10547-.04687-.10156-.04297-.10547-.1211.03125-.10156.04297-.13281.01562-.11719.03125-.10547.04297-.08984.0586-.10156.04687-.1211.02734-.13281.01563-.10156-.04297-.0586-.08985-.04687-.10546-.04297-.10157-.04297-.10546v-.1172l.0586-.08984.08593-.05859.17969-.11719.10156-.04687.10547-.04297.10547-.0586.10156-.04296.08985-.0625.10156-.04297.10547-.0586.10156-.04687.08984-.0586.10547-.04296.10156-.04297.08985-.0625.10156-.04297.13672-.01563.11719.03125.10156.04297.1211.03125.10156.04297.10546.04688.10157.04296.10547.04297.10156.04688.10547.04297.10156.04297.10547.04687.08594.0586.10546.04296.1172.03125.10546.04297.10156.04688.08985.0586.10547.04296.10156.04297.10547.04687.11719.02735.10156.04687.1211.02735h.14843l.08594-.0586.01562-.10156.0586-.08984-.02735-.1172-.07422-.07421-.11719-.17969-.07421-.07422-.08985-.07421-.17969-.1172-.08593-.05859-.10547-.04296-.10156-.04688-.26954-.17578-.05859-.08985-.07422-.07421-.0586-.08985-.04296-.10156-.03125-.11719-.01563-.13672v-.5625l-.01171-.1328-.01563-.13282-.03125-.11719-.01562-.13281-.01172-.13281-.03125-.1211-.22266-.22265-.0586-.08594-.01562-.10547.03125-.11719.13281-.01562v-91.41406H172.9922v1.45312l-.0586.23438-.35156 1.05078-.17187.52343-.1172.34766-.17577.41016-.11719.17187-.23438.29297-.23046.0586h-.35157l-.11718.05859-.23047.40625v.29297l.11719.17578.23046.23047.1172.23437.64062.75781.29297.46485.17578.23437.23047.35156.23437.34766.64063.8164.17578.46485.17187.41016.11719.69531.17578.46875.11719 1.39844.0586.46484v.875l.11718 1.04688v4.78125l-.0586.46484-.35156 1.28125-.17578.52344-.11328.41015-.35156.9297L172.93359 336l-.23437.58203-.11719.17578-.17187.34766-.17578.40625-.35157.8164-.0586.29297-.11327.29297-.11719.28906-.0586.17579-.11718.875-.0586.40625-.05859.11718-.0586.17579-.05859.17187-.23047.52734-.11718.17188v.23437l-.11719.23438-.0586.17187-.17577.58594v.28906l-.0586.17579v.29296l-.0586.11329-.05859.52734v.17187l-.05468.23438v2.6211l-.17578.8164-.1172.17578-.17577.23438-.1172.17187-.11327.23438-.58594.93359-.23047.28906-.29297.46485-.17578.23437-.28906.35156-.35156.69922-.11328.23047-.17579.41016-.17578.23046-.40625.52735-.8164.69922-.29297.17187-.28906.23438-.17579.11719-.17578.17578-.52344.40625-.52734.17578-.17187.17578-.23438.05469-.64062.17578h-.75782m12.21094 31.02344l-1.07422.44921.35938.89454 1.25-.71485.44531-.53906-.98047-.08985"/><path fill="#d3d3d3" fill-opacity="0" fill-rule="evenodd" d="M201.50781 416.59766h-.89453l.44922.6289.98047.35938.80469-.08985.4453-.98828-.17577.08985-.71485-.35547-.89453.35547m154.6211 59.0703l-.0586-.52343v-.29297l.11328-.29297.0586-.23046.46875-.46875h.11328l.11719-.11329.11718-.05859h.17579l.23437-.0586h.34766l.23437.0586.11719.0586.23047.17187.0586.17578.11718.58203v.29297l-.11719.17578-.17187.28906-.17579.17579-.52734.52343-.23047.23438-.11719.0586h-.17578l-.11718-.0586-.40625-.29297-.17579-.11719-.11718-.0586-.0586-.11327-.05468-.1172m6.64062-10.95702l-.0586-.17188v-1.10937l.0586-.17188.17578-.0586.17188-.05858h.17578l.23437-.0586.1172.0586.05858.69921-.05859.17188-.11719.17578-.11718.0586-.23438.52343-.11328.0586h-.23438l-.05859-.1172m9.61328-14.39062l-.11719-.17578v-.69922l.29297-.875.1172-.17187.17577-.35156.11328-.23047.1172-.29297.35155-.75781.1172-.23047.17187-.23438h.17578l.11719-.0586h.64062l.11719.0586.23437.23438.17188.11328.35156.29297.11719.11718.11328.17579v.11328l.11719.05859.11718.11719v.69922l-.05859.17578v.23047l-.0586.17578-.34765 1.05078-.11719.23047-.11719.23437-.11718.0586-.23047.23437-.64063.28906h-.875l-.41015-.11718-.64063-.46485"/><path fill="none" stroke="#bebebe" stroke-linecap="round" stroke-linejoin="round" stroke-miterlimit="10" stroke-width=".5" d="M467.95703 311.69531H144.02734v168.625h323.9297v-168.625"/><g clip-path="url(#a)"><path fill="#fff" fill-opacity="0" fill-rule="evenodd" d="M144 475.89063v4.4375h.0039H144V311.67188h.0039H144v164.21875"/></g><g clip-path="url(#b)"><path fill="#fff" fill-opacity="0" fill-rule="evenodd" d="M144.0039 480.32813V311.67188h17.75v127.47265l-1.14452 1.23828 1.14453 2.0586v9.74218l-1.08203 1.51563.67578 4.4375.40625.80078 3.02343-.80078-2.12109-4.4375-.90234-1.51563v-9.74218l1.42187-2.0586-1.42187-1.23828V311.67188h8.875V440.125l-.26172.25781.26172.19531.61718-.1953-.61718-.25782V311.67187h71.01562v126.15235l-3.19531 2.5586 3.19531 2.46484 4.34375-2.46485-4.34375-2.5586V311.67189h17.7539v121.22656l-3.63671 3.04687 3.63672 3.1289 2.77734-3.1289-2.77734-3.04687V311.67188h13.3125V429.6328l-4.25 1.875 4.25 1.72656v12.98047l-3.73047 3.04688-.70703 1.04297-1.10938-1.04297-3.32812-1.60156-2.125 1.60156 1.6836 4.4375.4414.29687 4.4375.8047 3.36719-1.10157 1.0703-.72656 2.1836-3.71094-2.1836-3.04688v-12.98046l3.8125-1.72657-3.8125-1.875V311.67187h8.87891v120.23829l-3.47265 4.03515 3.47265 3.42578 4.4375-1.17968 4.4375-1.15235 1.08985-1.09375-1.08985-1.17187-4.4375-.88672-4.4375-1.97656V311.67187h71.01172V437.4922l-2.88672 2.89062 2.88672 2.89063 3.375-2.89063-3.375-2.89062V311.67188h17.7539v138.1328l-2.30077 3.89454-2.13672 1.76953-3.26953 2.66797-1.16797 3.29297-.40235 1.14453.40235.36719 4.4375.97265 4.4375-.33984 4.4375.41015 3.94531 3.03125.10156 4.4375.39454.48829 2.09765-.48829-1.21484-4.4375 3.55469-1.17578 1.46093 1.17579 2.97656 2.64062 2.22266-2.64063 2.21485-2.91015 1.3789-1.53125-.36328-4.4375-1.01563-1.23438-4.4375-.39843-2.72656-2.8047-1.71094-1.78515-4.4375-.22265-4.4414 1.92578-4.4375-3.8125V311.67188h97.64062v168.65625H144.00391"/></g><path fill="#50fcfc" fill-rule="evenodd" d="M161.7539 442.4414l-1.14452-2.05859 1.14453-1.23828 1.42187 1.23828-1.42187 2.0586m-.40625 15.6953l-.67578-4.4375 1.08203-1.51562.90234 1.51563 2.1211 4.4375-3.02344.80078-.40625-.80078m9.28125-17.5586l-.26172-.1953.26172-.25782.61718.25781-.61718.19531m71.01562 2.26954l-3.19531-2.46485 3.19531-2.5586 4.34375 2.5586-4.34375 2.46485m17.7539-3.77344l-3.63671-3.1289 3.63672-3.04688v2.96094l-.10156.08593.10156.08594.07812-.08594-.07812-.08594v-2.96093l2.77734 3.04687-2.77734 3.1289"/><path fill="#00e8fc" fill-rule="evenodd" d="M259.39844 436.03125l-.10156-.08594.10156-.08594.07812.08594-.07812.08594"/><path fill="#50fcfc" fill-rule="evenodd" d="M263.39453 453.69922l-1.6836-4.4375 2.125-1.60156 3.32813 1.60156 1.10938 1.04297.70703-1.04297 3.73047-3.04688 2.1836 3.04688-2.1836 3.71094-1.07031.72656-3.3672 1.10156-4.4375-.80469-.4414-.29687m9.3164-20.46485l-4.25-1.72656 4.25-1.875 3.8125 1.875-3.8125 1.72656m8.87891 6.13672l-3.47265-3.42578 3.47265-4.03515v1.93359l-1.8125 2.10156 1.8125 1.78516 2.78125-1.78516-2.78125-2.10156v-1.9336l4.4375 1.97657 4.4375.88672 1.08985 1.17187-1.08985 1.09375-4.4375 1.15235-4.4375 1.17968"/><path fill="#00e8fc" fill-rule="evenodd" d="M281.58984 437.73047l-1.8125-1.78516 1.8125-2.10156 2.78125 2.10156-2.78125 1.78516"/><path fill="#50fcfc" fill-rule="evenodd" d="M352.60156 443.27344l-2.88672-2.89063 2.88672-2.89062v2.33594l-.55469.55468.5547.55469.64843-.55469-.64844-.55469v-2.33593l3.375 2.89062-3.375 2.89063"/><path fill="#00e8fc" fill-rule="evenodd" d="M352.60156 440.9375l-.55469-.55469.5547-.55469.64843.5547-.64844.55468"/><path fill="#50fcfc" fill-rule="evenodd" d="M361.48047 462.9414l-.40235-.36718.40235-1.14453 1.16797-3.29297 3.26953-2.66797 2.13672-1.76953 2.30078-3.89453 4.4375 3.8125v.1836l-1.625 4.33593 1.625 2.07812 2.11328-2.07812-2.11328-4.33594v-.1836l4.4414-1.92577 4.4375.22265v3.78906l-2.46093 2.4336 2.46094 1.26562 2.51562-1.26562-2.51563-2.4336v-3.78906l1.71094 1.78516 2.72656 2.80469v2.33984l-4.11718 3.73047 4.11719 3.96094 3.76953-3.96094-3.76954-3.73047v-2.33984l4.4375.39843 1.01563 1.23438.36328 4.4375-1.3789 1.53125-2.21485 2.91015-2.22265 2.64063-2.97657-2.64063-1.46094-1.17578-3.55468 1.17579 1.21484 4.4375-2.09765.48828-.39454-.48829-.10156-4.4375-3.94531-3.03125-4.4375-.41015-4.4375.33984-4.4375-.97265"/><path fill="#fff" fill-opacity="0" fill-rule="evenodd" d="M374.79297 453.80078l-1.625 4.33594 1.625 2.07812 2.11328-2.07812-2.11328-4.33594m8.8789 1.90235l-2.46093 2.43359 2.46094 1.26562 2.51562-1.26562-2.51563-2.4336"/><path fill="#00e8fc" fill-rule="evenodd" d="M388.10938 466.53516l-4.1172-3.96094 4.1172-3.73047v1.48438l-2.48047 2.24609 2.48046 2.38672 2.27344-2.38672-2.27344-2.2461v-1.48437l3.76954 3.73047-3.76954 3.96094"/><path fill="#00d4fc" fill-rule="evenodd" d="M388.10938 464.96094l-2.48047-2.38672 2.48046-2.2461v1.48438l-.84375.76172.84375.8125.76954-.8125-.76954-.76172v-1.48438l2.27344 2.2461-2.27344 2.38672"/><path fill="#00c4fc" fill-rule="evenodd" d="M388.10938 463.38672l-.84375-.8125.84375-.76172.76953.76172-.76954.8125"/><g clip-path="url(#c)"><path fill="#fff" fill-opacity="0" fill-rule="evenodd" d="M467.9961 480.32813H468V311.67188h-.0039H468v168.65625h-.0039"/></g><g clip-path="url(#d)"><path fill="none" stroke="#000" stroke-linecap="round" stroke-linejoin="round" stroke-miterlimit="10" stroke-width=".5" d="M147.32031 479.17578l-6.64062 2.3086"/></g><g clip-path="url(#e)"><path fill="none" stroke="#000" stroke-linecap="round" stroke-linejoin="round" stroke-miterlimit="10" stroke-width=".5" d="M147.32031 479.17578l1.79688 1.66797"/></g><g clip-path="url(#f)"><path fill="none" stroke="#000" stroke-linecap="round" stroke-linejoin="round" stroke-miterlimit="10" stroke-width=".5" d="M160.67969 479.3164l-6.73047 2.02344"/></g><g clip-path="url(#g)"><path fill="none" stroke="#000" stroke-linecap="round" stroke-linejoin="round" stroke-miterlimit="10" stroke-width=".5" d="M160.67969 479.3164l1.72656 1.7422"/></g><g clip-path="url(#h)"><path fill="none" stroke="#000" stroke-linecap="round" stroke-linejoin="round" stroke-miterlimit="10" stroke-width=".5" d="M173.94531 479.16406l-6.6289 2.33203"/></g><g clip-path="url(#i)"><path fill="none" stroke="#000" stroke-linecap="round" stroke-linejoin="round" stroke-miterlimit="10" stroke-width=".5" d="M173.94531 479.16406l1.80469 1.66016"/></g><g clip-path="url(#j)"><path fill="none" stroke="#000" stroke-linecap="round" stroke-linejoin="round" stroke-miterlimit="10" stroke-width=".5" d="M187.29688 479.26953l-6.70313 2.11719"/></g><g clip-path="url(#k)"><path fill="none" stroke="#000" stroke-linecap="round" stroke-linejoin="round" stroke-miterlimit="10" stroke-width=".5" d="M187.29688 479.26953l1.75 1.71875"/></g><g clip-path="url(#l)"><path fill="none" stroke="#000" stroke-linecap="round" stroke-linejoin="round" stroke-miterlimit="10" stroke-width=".5" d="M200.61328 479.28516l-6.70703 2.08984"/></g><g clip-path="url(#m)"><path fill="none" stroke="#000" stroke-linecap="round" stroke-linejoin="round" stroke-miterlimit="10" stroke-width=".5" d="M200.61328 479.28516l1.7461 1.72656"/></g><g clip-path="url(#n)"><path fill="none" stroke="#000" stroke-linecap="round" stroke-linejoin="round" stroke-miterlimit="10" stroke-width=".5" d="M213.91016 479.22266l-6.67188 2.21093"/></g><g clip-path="url(#o)"><path fill="none" stroke="#000" stroke-linecap="round" stroke-linejoin="round" stroke-miterlimit="10" stroke-width=".5" d="M213.91016 479.22266l1.77343 1.6953"/></g><g clip-path="url(#p)"><path fill="none" stroke="#000" stroke-linecap="round" stroke-linejoin="round" stroke-miterlimit="10" stroke-width=".5" d="M227.23047 479.24219l-6.67969 2.17578"/></g><g clip-path="url(#q)"><path fill="none" stroke="#000" stroke-linecap="round" stroke-linejoin="round" stroke-miterlimit="10" stroke-width=".5" d="M227.23047 479.24219l1.76562 1.70312"/></g><g clip-path="url(#r)"><path fill="none" stroke="#000" stroke-linecap="round" stroke-linejoin="round" stroke-miterlimit="10" stroke-width=".5" d="M240.63672 479.57422l-6.86328 1.50781"/></g><g clip-path="url(#s)"><path fill="none" stroke="#000" stroke-linecap="round" stroke-linejoin="round" stroke-miterlimit="10" stroke-width=".5" d="M240.63672 479.57422l1.58984 1.8711"/></g><g clip-path="url(#t)"><path fill="none" stroke="#000" stroke-linecap="round" stroke-linejoin="round" stroke-miterlimit="10" stroke-width=".5" d="M253.9414 479.53516l-6.84374 1.58984"/></g><g clip-path="url(#u)"><path fill="none" stroke="#000" stroke-linecap="round" stroke-linejoin="round" stroke-miterlimit="10" stroke-width=".5" d="M253.9414 479.53516l1.61329 1.84765"/></g><g clip-path="url(#v)"><path fill="none" stroke="#000" stroke-linecap="round" stroke-linejoin="round" stroke-miterlimit="10" stroke-width=".5" d="M267.14063 479.14063l-6.60938 2.3789"/></g><g clip-path="url(#w)"><path fill="none" stroke="#000" stroke-linecap="round" stroke-linejoin="round" stroke-miterlimit="10" stroke-width=".5" d="M267.14063 479.14063l1.8203 1.64843"/></g><g clip-path="url(#x)"><path fill="none" stroke="#000" stroke-linecap="round" stroke-linejoin="round" stroke-miterlimit="10" stroke-width=".5" d="M280.19531 478.57813l-6.08984 3.5039"/></g><path fill="none" stroke="#000" stroke-linecap="round" stroke-linejoin="round" stroke-miterlimit="10" stroke-width=".5" d="M279.3086 479.08594l1.03906.65234"/><g clip-path="url(#y)"><path fill="none" stroke="#000" stroke-linecap="round" stroke-linejoin="round" stroke-miterlimit="10" stroke-width=".5" d="M293.16016 478.07422l-5.38672 4.51172"/></g><path fill="none" stroke="#000" stroke-linecap="round" stroke-linejoin="round" stroke-miterlimit="10" stroke-width=".5" d="M292.375 478.73047l1.13672.46094"/><g clip-path="url(#z)"><path fill="none" stroke="#000" stroke-linecap="round" stroke-linejoin="round" stroke-miterlimit="10" stroke-width=".5" d="M306.35547 477.9375l-5.14844 4.78125"/></g><path fill="none" stroke="#000" stroke-linecap="round" stroke-linejoin="round" stroke-miterlimit="10" stroke-width=".5" d="M305.60547 478.63281l1.16015.40235"/><g clip-path="url(#A)"><path fill="none" stroke="#000" stroke-linecap="round" stroke-linejoin="round" stroke-miterlimit="10" stroke-width=".5" d="M319.50781 477.77344l-4.82422 5.11328"/></g><path fill="none" stroke="#000" stroke-linecap="round" stroke-linejoin="round" stroke-miterlimit="10" stroke-width=".5" d="M318.80469 478.51563l1.1836.32421"/><g clip-path="url(#B)"><path fill="none" stroke="#000" stroke-linecap="round" stroke-linejoin="round" stroke-miterlimit="10" stroke-width=".5" d="M329.83594 476.86328l1.14844 6.9336"/></g><g clip-path="url(#C)"><path fill="none" stroke="#000" stroke-linecap="round" stroke-linejoin="round" stroke-miterlimit="10" stroke-width=".5" d="M341.73828 477.4336l3.97656 5.79296"/></g><path fill="none" stroke="#000" stroke-linecap="round" stroke-linejoin="round" stroke-miterlimit="10" stroke-width=".5" d="M342.3164 478.27344l.56641-1.08594"/><g clip-path="url(#D)"><path fill="none" stroke="#000" stroke-linecap="round" stroke-linejoin="round" stroke-miterlimit="10" stroke-width=".5" d="M354.44922 477.95703l5.1836 4.74219"/></g><path fill="none" stroke="#000" stroke-linecap="round" stroke-linejoin="round" stroke-miterlimit="10" stroke-width=".5" d="M355.20313 478.64844l.30859-1.1914"/><g clip-path="url(#E)"><path fill="none" stroke="#000" stroke-linecap="round" stroke-linejoin="round" stroke-miterlimit="10" stroke-width=".5" d="M367.67578 478.0586l5.36328 4.53906"/></g><path fill="none" stroke="#000" stroke-linecap="round" stroke-linejoin="round" stroke-miterlimit="10" stroke-width=".5" d="M368.45703 478.71875l.25781-1.19922"/><g clip-path="url(#F)"><path fill="none" stroke="#000" stroke-linecap="round" stroke-linejoin="round" stroke-miterlimit="10" stroke-width=".5" d="M380.26172 479.48438l6.82031 1.6875"/></g><path fill="none" stroke="#000" stroke-linecap="round" stroke-linejoin="round" stroke-miterlimit="10" stroke-width=".5" d="M381.2539 479.73047l-.30077-1.1875"/><g clip-path="url(#G)"><path fill="none" stroke="#000" stroke-linecap="round" stroke-linejoin="round" stroke-miterlimit="10" stroke-width=".5" d="M393.5 480.76563l6.97266-.8711"/></g><g clip-path="url(#H)"><path fill="none" stroke="#000" stroke-linecap="round" stroke-linejoin="round" stroke-miterlimit="10" stroke-width=".5" d="M393.5 480.76563l-1.41016-2.00782"/></g><g clip-path="url(#I)"><path fill="none" stroke="#000" stroke-linecap="round" stroke-linejoin="round" stroke-miterlimit="10" stroke-width=".5" d="M406.78906 480.47656l7.02344-.29687"/></g><g clip-path="url(#J)"><path fill="none" stroke="#000" stroke-linecap="round" stroke-linejoin="round" stroke-miterlimit="10" stroke-width=".5" d="M407.8125 480.4336l-.6211-1.0586"/></g><g clip-path="url(#K)"><path fill="none" stroke="#000" stroke-linecap="round" stroke-linejoin="round" stroke-miterlimit="10" stroke-width=".5" d="M420.30469 481.5039l6.625-2.34765"/></g><g clip-path="url(#L)"><path fill="none" stroke="#000" stroke-linecap="round" stroke-linejoin="round" stroke-miterlimit="10" stroke-width=".5" d="M421.26953 481.16016l-.90625-.82813"/></g><g clip-path="url(#M)"><path fill="none" stroke="#000" stroke-linecap="round" stroke-linejoin="round" stroke-miterlimit="10" stroke-width=".5" d="M434.46484 482.82813l4.9336-5"/></g><g clip-path="url(#N)"><path fill="none" stroke="#000" stroke-linecap="round" stroke-linejoin="round" stroke-miterlimit="10" stroke-width=".5" d="M450.01563 476.82422l.46093 7.01172"/></g><g clip-path="url(#O)"><path fill="none" stroke="#000" stroke-linecap="round" stroke-linejoin="round" stroke-miterlimit="10" stroke-width=".5" d="M464.52344 483.70703l-1.92188-6.75781"/></g><g clip-path="url(#P)"><path fill="none" stroke="#000" stroke-linecap="round" stroke-linejoin="round" stroke-miterlimit="10" stroke-width=".5" d="M147.35547 465.97656l-6.71094 2.07422"/></g><path fill="none" stroke="#000" stroke-linecap="round" stroke-linejoin="round" stroke-miterlimit="10" stroke-width=".5" d="M147.35547 465.97656l1.74219 1.73047m11.55859-1.77734l-6.6836 2.16797m6.6836-2.16797l1.76563 1.70703m11.38671-2.11719l-6.35937 2.98828m6.35937-2.98828l1.96485 1.46875m11.29687-1.58203l-6.25 3.21484m6.25-3.21484l2.01563 1.40234m11.24219-1.5078l-6.13282 3.42968m6.13281-3.42969l2.0625 1.32813m11.41797-.98829l-6.46875 2.7461m6.46875-2.7461l1.90625 1.54297m11.51953-1.24609l-6.6875 2.15234m6.6875-2.15234l1.76172 1.70703m11.51953-1.8086l-6.62109 2.35548m6.6211-2.35547l1.8125 1.65625m11.53125-1.57422l-6.67579 2.1914m6.67578-2.1914l1.76954 1.69922m11.3828-2.10547l-6.35155 3.0039m6.35156-3.0039l1.96875 1.46875m11.10937-1.89453l-5.8789 3.85547m5.8789-3.85547l2.14844 1.17969m11.15234-1.19532l-5.85156 3.88672m5.85156-3.88672l2.16016 1.16407m11.08594-1.26563l-5.71485 4.08984m5.71485-4.08984l2.19922 1.08984m10.85547-1.41406L314.5 469.38281m4.4375-4.04687l1.15625.41015m11.71094-1.95703l-2.78906 6.44922m2.3828-5.51172l1.22266-.09765M343.69141 463.5l.0703 7.02734m-.0625-6.0039l1.07813-.58594m12.0625-.42969l.40235 7.01563m-.34375-5.9961l1.04687-.63672m11.88672-.35156l1.04688 6.94922m-1.04688-6.94922l1.96875-1.46093m10.85547 1.5703l2.03125 6.73048m-1.73438-5.75l.8711-.86328m10.15234 1.43359l6.01953 3.6289m-5.14453-3.10156l.0664-1.22265m12.19923 1.02343l6.36719 2.97266m-5.44141-2.53906l-.0625-1.22656m15.89453-1.22266l-.51953 7.00781m.51953-7.00781l2.2461-.99219m12.11327 1.23047l-2.60546 6.52734m2.60546-6.52734l2.4375-.26563m8.76563.10938l1.6211 6.83984m-1.6211-6.83984l1.83984-1.6211m-1.60546 2.6172l.92187-.8086m11.72266-.05469l2.48828 6.57422m-2.125-5.61719l.8086-.92187"/><g clip-path="url(#Q)"><path fill="none" stroke="#000" stroke-linecap="round" stroke-linejoin="round" stroke-miterlimit="10" stroke-width=".5" d="M147.48438 453.23438l-6.96875.92968"/></g><path fill="none" stroke="#000" stroke-linecap="round" stroke-linejoin="round" stroke-miterlimit="10" stroke-width=".5" d="M147.48438 453.23438l1.42578 1.99609m11.84765-2.23828l-6.88281 1.41406m6.88281-1.41406l1.5625 1.89062m-2.5664-1.6836l.78515.94532m13.42969-1.54687l-6.67578 2.19921m6.67578-2.19921l1.76953 1.69922m11.38281-2.10547l-6.35156 3.01172m5.42578-2.57422l.98438.73437m13.24219-1.19922l-6.32422 3.0664m5.40234-2.61718l.99219.72266m12.98437-1.6211l-5.80078 3.96875m4.95703-3.39062l1.08594.57031m13.3789-.59765l-6.41406 2.86718m5.48047-2.44922l.96875.75391m13.30078-1.1211l-6.45703 2.76563m5.51953-2.36328l.95703.76563m12.53516-2.28516l-4.9336 5m4.21485-4.27344l1.17578.35156m13.2461-.6289l-5.71094 4.09765m4.8789-3.5l1.10157.54297m12.84375-1.39453L274.49609 456m4.53516-3.9336l1.14453.44141m12.98438-1.0625l-5.39063 4.50782m5.39063-4.50782l2.27343.92188m10.97657-.9961l-5.26172 4.65625m5.26172-4.65625l2.30078.85938m11.11328-.74219l-5.45703 4.42188m5.45703-4.42188l2.26172.95703m10.80469-1.23437l-4.96094 4.97656m4.23828-4.2539l1.17578.35546m11.9961-1.71093l-3.22657 6.24218m3.22656-6.24218l2.45313-.03125m9.90625-.30079l-1.3164 6.90235m1.3164-6.90235l2.34375-.72656m10.89844.71485l-1.17188 6.92968m1.17188-6.92968l2.32812-.77344m12.34766 1.3125l-3.89063 5.85156m3.32422-5l1.21875.11719m9.41797-1.3086l2.59766 6.52735m-2.59766-6.52735l1.58594-1.87109m10.55469 7.6289l4.94921-4.98827m14.1875 1.42578l-6.6953 2.14062m5.71874-1.82812l.8789.85547m12.66407-2.46094l-5.19922 4.72656m5.19922-4.72656l2.3086.82812m8.33984-1.97656l.13281 7.02344m-.13281-7.02344l2.14453-1.19531m-2.125 2.21484l1.07031-.59375m13.53906-.19922l-2.49609 6.57032m2.4961-6.57032l2.43359-.3086m-2.79688 1.26563l1.21875-.15625"/><g clip-path="url(#R)"><path fill="none" stroke="#000" stroke-linecap="round" stroke-linejoin="round" stroke-miterlimit="10" stroke-width=".5" d="M147.42969 439.625l-6.85938 1.51953"/></g><path fill="none" stroke="#000" stroke-linecap="round" stroke-linejoin="round" stroke-miterlimit="10" stroke-width=".5" d="M147.42969 439.625l1.59375 1.86719m-2.58985-1.64844l.79688.9336m13.53906-1.04298l-6.90625 1.29688m6.90625-1.29688l1.53125 1.91407m11.76563-2.0039l-6.8711 1.48046m5.8711-1.26563l.78906.9375m13.58203-.03906l-6.98438-.75m5.96875.64063l.45704 1.14062m13.8789-1.7461l-6.9961.6797m5.97657-.58204l.67969 1.02344m13.29297-2.36719l-6.26953 3.17579m5.35547-2.71485l1.0039.70703m12.54297-2.09765l-4.90625 5.03125m4.90625-5.03125l2.35547.6914m11.21094-.41796L234.5 442.625m5.41016-4.48437l2.26953.93359m9.23828-2.08594l-1.79297 6.79297m1.53125-5.80469l1.19531-.28125m13.72656-.01562l-4.48437 5.41015m3.83203-4.625l1.19922.25m12.46875-1.2578l-3.88672 5.85546m3.32031-5.0039l1.22266.11718m12.61328-1l-3.79687 5.91406m3.24609-5.05078l1.22266.10157m12.07421-1.26172l-2.65625 6.5078m2.65625-6.5078l2.44141-.2461m11.3789.5039l-3.66796 5.9922m3.66797-5.9922l2.44922.14845m-2.98438.72265l1.22656.07422m13.50391-.17969l-5.42578 4.46485m5.42578-4.46485l2.26563.94141m10.78125-1.23047l-4.89454 5.04297m4.89454-5.04297l2.35937.67969m9.95703-1.35938l-2.89453 6.40235m2.89453-6.40235l2.44922-.15625m-2.8711 1.08594l1.22657-.07812m10.96484-1.16407l.19531 7.02344m-.1953-7.02344l2.1328-1.21093m-2.10546 2.23437l1.0703-.60547m10.1172.35547l4.39843 5.48047m-4.39843-5.48047l.96484-2.2539m-.32422 3.05078l.48047-1.12891m11.44922 4.98828l5.88672-3.83594m-5.03125 3.27735l-1.07422-.58985m14.17969 1.89063l4.59375-5.3164m13.57421.24609l-5.10937 4.82422m5.10938-4.82422l2.32421.78515m-3.0664-.08593l2.32422.78515m11.26562-1.89844l-4.17578 5.65235m4.17578-5.65235l2.42578.35938m-3.03125.46094l1.21094.18359m11.79297-1.49219l-2.34375 6.625m2.34375-6.625l2.42578-.36328m11.22656.5039l-3.01953 6.34376m2.58203-5.42188l1.22656-.05468"/><g clip-path="url(#S)"><path fill="none" stroke="#000" stroke-linecap="round" stroke-linejoin="round" stroke-miterlimit="10" stroke-width=".5" d="M147.3789 426.10547l-6.7578 1.92578"/></g><path fill="none" stroke="#000" stroke-linecap="round" stroke-linejoin="round" stroke-miterlimit="10" stroke-width=".5" d="M147.3789 426.10547l1.70313 1.76562m-2.6875-1.48437l.85156.88281m13.28125-1.625l-6.42578 2.84766m6.42578-2.84766l1.9297 1.51563m-2.86329-1.10157l.96484.75782m13.41797-.82422l-6.6914 2.15234m6.6914-2.15234l1.75781 1.71093M173 426.3047l.88281.85547m13.47656-.92579l-6.82812 1.66797m6.82813-1.66797l1.6328 1.83204m-2.625-1.58985l.81641.91797m13.44141-1.33594l-6.73047 2.01953m6.73047-2.01953l1.72656 1.7461m-2.70703-1.45313l.86328.875m13.46485-1.05078l-6.79688 1.78516m6.79688-1.78516l1.66406 1.80078m-2.65234-1.54297l.83203.90235m13.36718-1.4961l-6.58593 2.45703m6.58593-2.45703l1.83594 1.625m-2.79687-1.26953l.92187.8164m13.53906.55079l-6.95703-.98828m5.94531.84765l.41797 1.15235m10.21875-5.01172l.42578 7.01172m-.36328-5.99219l1.04297-.64062m14.48828.28515l-4.13672 5.6836m3.53516-4.85547l1.21485.17187m13.41015-.3125l-5.55078 4.3086m5.55078-4.3086l2.23828 1.0039m9.86328-1.99609l-3.12109 6.29297m2.66797-5.3789l1.22656-.03516m13.33985-.33594l-4.71875 5.20703m4.03125-4.44921l1.1914.30078M318.25 423.75l-2.3086 6.63672M318.25 423.75l2.42578-.3789m12.16406 1.16015l-4.85937 5.07422m4.85937-5.07422l2.36329.66797m11.34375-.22656l-5.64063 4.1914m5.64063-4.1914l2.21484 1.05078m-3.03516-.4414l1.10938.52733m12.84765-1.35937l-5.28515 4.63672m5.28515-4.63672l2.29297.8711m8.23047-2.0625l.29688 7.01952m-.25391-6l1.0586-.62109m11.44921-.28125l1.82813 6.78516m-1.82813-6.78516L384.55078 422m14.29297 2.08594l-3.71484 5.96484m3.71484-5.96484l2.44922.16797m-2.98828.69921l1.22265.08594m13.40625-.30078l-5.26171 4.66016m5.26171-4.66016l2.29688.85938m-3.0625-.1797l2.29687.85938m11.48438-1.83984l-4.66406 5.26172m4.66406-5.26172l2.38281.57812m-3.0625.1875l2.38672.57813m10.35938-2.05469l-2.16797 6.6836m2.16797-6.6836l2.41406-.42578m-2.73047 1.39844l1.20703-.21485m12.29297-.79687l-1.90625 6.76172m1.90625-6.76172l2.39844-.51953m-2.67578 1.5039l1.19921-.26171m12.59766-.66016l-2.3125 6.63672m2.3125-6.63672l2.42578-.375m-2.76172 1.33984l1.21094-.1875"/><g clip-path="url(#T)"><path fill="none" stroke="#000" stroke-linecap="round" stroke-linejoin="round" stroke-miterlimit="10" stroke-width=".5" d="M147.29297 412.52734l-6.58594 2.45313"/></g><path fill="none" stroke="#000" stroke-linecap="round" stroke-linejoin="round" stroke-miterlimit="10" stroke-width=".5" d="M147.29297 412.52734l1.83594 1.625m-2.79297-1.26953l.91797.8125m13.39062-1.0625l-6.66016 2.24219m6.66016-2.24219l1.78516 1.6836m-2.7539-1.35938l.89062.84375m13.36328-1.2539l-6.59766 2.41406m6.59766-2.41407l1.82812 1.64063m-2.78906-1.28906l.91406.82031m13.23438-1.47656l-6.34375 3.02343m6.34375-3.02343l1.97265 1.46093m-2.89453-1.01953l.98438.73047m13.2461-1.1836l-6.33204 3.04688m6.33203-3.04687l1.97656 1.45312m-2.89843-1.0078l.98828.72655m13.53125-.32422l-6.89453 1.34766m6.89453-1.34766l1.54687 1.90625m11.83203-1.09375l-7.02343-.27343m7.02343.27343l1.06641 2.20704m12.23828-2.04297l-7.0039-.60547m5.98437.51953l.48047 1.1289m13.4414-3.01562l-6.17968 3.34375m5.28125-2.85937l1.02344.67968m11.78906 3.58985l-3.375-6.16406m2.88281 5.26562l-.67188 1.02734m16.26172-3.76562l-6.9414 1.10937m5.92968-.94921l.7422.97656m13.29296-2.07813l-6.35937 2.99219m5.43359-2.5586l.98437.73438m12.33594 3.01953l-4.51562-5.38281m16.54687-.6836l-1.94922 6.75m1.66797-5.76952l1.19922-.25m14.4414.84375l-6.03515 3.60156m6.03516-3.60156l2.09765 1.27343m11.71094.47657l-7.02344.10156m7.02344-.10156l1.1836 2.14843m11.99609-3.0664l-6.7539 1.9375m5.76952-1.65625l.85547.8828m12.7539-2.45702l-5.375 4.52344m5.375-4.52344l2.27735.91406m-3.0586-.25781l1.13673.45703m12.50781-1.5625l-4.46875 5.42187m4.46875-5.42187l2.40234.48828m-3.05468.30078l1.20312.24219m12.52734-1.21094l-3.99609 5.78125m3.9961-5.78125l2.4375.28516m-3.01954.55469l2.4375.28515m11.44922-1.13281l-3.97656 5.79687m3.97656-5.79687l2.4375.27734m-3.01562.5664l1.21875.13673m13-.72656l-4.6289 5.28906m4.6289-5.28906l2.39062.5625m-3.0625.20703l1.19531.28125m11.8125-1.65625l-2.66796 6.5m2.66796-6.5l2.44141-.2461m-2.83203 1.1914l1.22266-.12108m12.01953-.97657l-1.74219 6.80469m1.74219-6.80469l2.38672-.58203m11.0703.6211l-2.02734 6.72656m2.02735-6.72656l2.41015-.48047m-2.70312 1.45703l2.40625-.47656"/><g clip-path="url(#U)"><path fill="none" stroke="#000" stroke-linecap="round" stroke-linejoin="round" stroke-miterlimit="10" stroke-width=".5" d="M147.11719 398.82031l-6.23438 3.23828"/></g><path fill="none" stroke="#000" stroke-linecap="round" stroke-linejoin="round" stroke-miterlimit="10" stroke-width=".5" d="M147.11719 398.82031l2.02344 1.39063m-2.9297-.92188l2.01954 1.39453m12.15625-1.95312l-6.14453 3.41406m6.14453-3.41406l2.0586 1.33594m-2.95313-.83594l2.0586 1.33203m11.71874-2.4414l-5.28125 4.63671m5.28125-4.63672l2.29688.8672m-3.06641-.19532l2.29688.8711M185.875 397.5l-3.85938 5.875m3.85938-5.875l2.4414.22656m-3.0039.6289l1.22266.11329m14.03906.80078l-6.6289 2.33594m6.6289-2.33594l1.80469 1.66016m11.2578-2.21094l-6.125 3.4414m6.125-3.4414l2.06642 1.32422m-2.95704-.82422l1.03516.66016m13.32422-.85938l-6.42969 2.83594m6.42969-2.83594l1.92969 1.51563m11.42968-1.41016l-6.51953 2.625m5.57031-2.24219l.94141.78906m13.5586.50391l-6.98829-.72656m5.97266.6211l.46094 1.13671m13.84375-1.9414l-6.9414 1.09375m5.93359-.9336l.73828.98047m13.51953-1.46094l-6.8086 1.73438m5.82032-1.48047l.82422.90625m13.55078.21875l-6.95313-1.01953m5.9414.8711l.41407 1.15233m13.7539-2.67968l-6.6328 2.32812m5.66796-1.98828l.90235.83203m13.16015-1.66015l-6.19922 3.30468m5.29688-2.82421l1.01953.6875m13.46094-.53516l-6.72656 2.03906m5.74609-1.74219l.86719.8711m13.57812-.20313l-7.02344.11328m6.00391-.09765l.58984 1.07422m11.32422-4.375l-2.1836 6.67968m17.78907-2.39062l-6.76562-1.89453m5.78125 1.61719l.26562 1.19921m13.10938-4.3828l-4.91407 5.02343m4.91407-5.02344l2.35156.6914m9.78125-1.45312l-2.55078 6.54688m2.55078-6.54688l2.4375-.28515m12.3125 1.32421l-5.42188 4.47266m5.42188-4.47265l2.26562.9375m10.64844-1.35157l-4.61719 5.29688m4.6172-5.29688l2.39062.55469m-3.0625.21484l1.1953.27735m12.27345-1.42188l-3.58203 6.04688m3.58203-6.04688l2.45312.11719m11.67578.54688l-5.21093 4.71875m5.21093-4.71875l2.3086.83593m9.9414-1.63281l-3.07812 6.3164m3.07812-6.3164l2.45313-.08984m-2.90235 1.0078l1.22657-.04296"/><g clip-path="url(#V)"><path fill="none" stroke="#000" stroke-linecap="round" stroke-linejoin="round" stroke-miterlimit="10" stroke-width=".5" d="M146.86719 385.08984l-5.73438 4.06641"/></g><path fill="none" stroke="#000" stroke-linecap="round" stroke-linejoin="round" stroke-miterlimit="10" stroke-width=".5" d="M146.86719 385.08984l2.1914 1.10157m-3.02734-.50782l2.19531 1.10157m11.98828-1.64844l-5.79687 3.97265m5.79687-3.97265l2.17188 1.13672m-3.01563-.5586l2.17578 1.13672m11.5-2.28125l-4.83203 5.10547m4.83203-5.10547l2.36329.65235m-3.06641.08984l2.36328.65625m11.26953-1.71094l-4.0625 5.73047m4.0625-5.73047l2.4336.3125m-3.02344.51953l2.4336.31641m12.18359-.47656l-5.48828 4.38672m5.48828-4.38672l2.2539.97265m-3.05078-.33593l2.25.97265m11.6914-1.8086l-5.14452 4.78517m5.14453-4.78516l2.32031.80078m-3.07031-.10547l1.16015.40235m13.14063-.81641l-5.61719 4.22265m5.61719-4.22265l2.22266 1.03906m11.11328-1.01172l-5.66016 4.16797m4.83594-3.5625l1.10547.53125m13.35937-.59765l-6.3125 3.08984m6.3125-3.08985l1.98828 1.44141m9.8789-2.96484l-3.41405 6.14062m2.91796-5.25l1.22657.02344m13.3086-.38281l-4.85938 5.07422m4.15234-4.33594l1.17969.33203m13.92578 1.40625l-7.02735.1211m6.00391-.10157l.59375 1.07422m12.91797-3.29297l-5.3789 4.51953m18.53906-4.69531l-5.06641 4.8711m5.0664-4.8711l2.33204.76563m11.8086.64453l-6.71876 2.05468m6.71875-2.05468l1.73828 1.73437m6.11719-3.52344l4.20313 5.62891m10.6289-6.27734l1.16797 6.92968m-.9961-5.92187l.97266-.75m16.10547 2.14453l-6.69922 2.1211m6.69922-2.1211l1.75 1.71484m10.8125-3.01562l-5.19922 4.72656m5.19922-4.72656l2.3125.82812m10.71094-1.11718l-4.61328 5.30078m4.61328-5.30078l2.39062.55078m9.73829-1.23047l-2.2422 6.66015m2.2422-6.66015l2.42187-.39844m11.48828.66406l-3.4336 6.12891m3.4336-6.1289l2.45313.05077m10.74218-.11718l-3.1914 6.26172m2.72656-5.35157l1.22656-.01953m13.60547-.0664l-5.29687 4.61328m4.52734-3.9414l1.14453.4375m11.99219-1.87892l-3.39844 6.15235m3.39844-6.15235l2.45312.04297"/><g clip-path="url(#W)"><path fill="none" stroke="#000" stroke-linecap="round" stroke-linejoin="round" stroke-miterlimit="10" stroke-width=".5" d="M146.55078 371.39063l-5.10156 4.83203"/></g><path fill="none" stroke="#000" stroke-linecap="round" stroke-linejoin="round" stroke-miterlimit="10" stroke-width=".5" d="M146.55078 371.39063l2.32813.78125m-3.07032-.07813l1.16407.39063m13.3828-.44141l-6.07812 3.53125m6.07813-3.53125l2.08203 1.29687m-2.96875-.78125l2.08594 1.29297m11.69531-2.38281l-5.23828 4.67969m5.23828-4.67969l2.30078.84766m-3.0625-.16797l1.15234.42187m13.03125-.98047l-5.45312 4.4336m5.45313-4.4336l2.26171.95704m-3.05468-.3086l1.1289.47656m13.17969-.85156l-5.85547 3.89063m5.85547-3.89063l2.15625 1.16797m-3.00781-.60156l1.07812.58203m12.83985-1.48047l-5.35547 4.55469m5.35547-4.55469l2.27734.90625m11.29688-.55469l-5.87891 3.85156m5.8789-3.85156l2.15235 1.1836m11.47266-.60157l-6.4961 2.6836m6.4961-2.6836l1.89062 1.56641m-2.83594-1.17578l.94531.78125m13.26954-1.27344l-6.40625 2.89063m6.40625-2.89063l1.9414 1.5M266.5 371.51563l-5.32813 4.58593m5.32813-4.58594l2.28516.89063m11.38672-.39453l-6.04297 3.58984m6.04297-3.58984l2.09765 1.27734m11.5586-.4961l-6.72657 2.02735m5.75-1.73047l.86328.8711m13.51563-.8164l-6.89844 1.32812m6.89844-1.32813l1.53906 1.91016m11.38672-2.97266l-6.1211 3.45313m5.23048-2.94922l1.03515.66015m12.14844-2.30078l-4.07813 5.72656m3.48438-4.89453l1.21875.16016m11.51562-1.53516l-1.72656 6.8125m1.72656-6.8125l2.38282-.58593m12.98828 2.03906l-5.83985 3.90625m5.83985-3.90625l2.16406 1.16015m-3.01172-.59375l1.07813.58204m13.53515-.19141l-6.73828 1.99219m6.73828-1.99219l1.71875 1.7539m11.01563-2.89062l-5.58203 4.26563m4.76953-3.64454l1.11719.50782m13.42187-.4414l-6.40625 2.89062m5.47656-2.46875l.96875.75m13.36328-.96875l-6.57421 2.48437m5.61718-2.125l.92188.8125m13.40625-1.0039l-6.6914 2.14843m5.71874-1.83594l.8789.85547m11.75-3.17578l-3.37109 6.16406m2.88282-5.26953l1.22656.01563m13.1211-.54297l-4.46094 5.42969m4.46093-5.42969l2.40625.48438m9.7461-1.1172l-2.13672 6.69532m1.82812-5.72266l1.20703-.21875"/><g clip-path="url(#X)"><path fill="none" stroke="#000" stroke-linecap="round" stroke-linejoin="round" stroke-miterlimit="10" stroke-width=".5" d="M145.33203 357.24219l-2.66406 6.5039"/></g><path fill="none" stroke="#000" stroke-linecap="round" stroke-linejoin="round" stroke-miterlimit="10" stroke-width=".5" d="M145.33203 357.24219l2.4414-.2461m-2.82812 1.19141l1.21875-.1211m13.4961-.1875l-4.69141 5.23048m4.6914-5.23047l2.38282.58593m11.85156.73047l-6.53125 2.59375m6.53125-2.59375l1.8711 1.58985m-2.82032-1.21094l.9336.79297m12.78906-2.09375l-5.44531 4.4375m5.4453-4.4375l2.26173.95312m11.27344-.65234l-5.88672 3.83594m5.88672-3.83594l2.14843 1.1875m11.13672-1.23438l-5.82422 3.9297m5.82422-3.9297l2.16797 1.15235m11.67578.10156l-6.88281 1.42578m6.88281-1.42578l1.5664 1.88672m11.58985-2.42578l-6.5664 2.5039m6.5664-2.5039l1.84766 1.61328m11.50781-1.5039l-6.64453 2.28515m6.64453-2.28516l1.79297 1.67188m11.50781-1.70703l-6.61719 2.35546m6.6172-2.35546l1.8125 1.65234m11.54687-1.51953l-6.70703 2.08984m6.70703-2.08984l1.74609 1.72656m11.48047-1.98047l-6.53125 2.59375m6.53125-2.59375l1.8711 1.58985m11.67577-.64454l-6.99218.70704m5.97265-.60547l.6836 1.01953m13.5078-1.82422l-6.70312 2.10938m5.72657-1.80079l.875.85938m13.53125.45703l-6.9336-1.14063m6.9336 1.14063l.78515 2.32813m12.46875-3.76172l-6.8125 1.72656m6.8125-1.72656l1.64844 1.8164m11.51953-2.26172l-6.51953 2.6172m5.57031-2.23438l.9375.78906m13.58203.11719l-7.02734.04296m6.0039-.03906l.58204 1.08203m13.35156-2.69921l-6.21875 3.26562m6.21875-3.26563l2.02734 1.38282m10.02344-2.73828l-3.6914 5.98046m3.15234-5.10937l1.22656.07813m7.32813 1.38671l6.90625 1.3086m13.3125.01172l-6.89844-1.33594m16.00781-2.76172l1.50781 6.86328m13.40235-6.84375l-1.67969 6.82422m1.4375-5.83203l1.1875-.30078m11.05469-.76172l.94922 6.96094m-.8086-5.94922l.9961-.71485"/><g clip-path="url(#Y)"><path fill="none" stroke="#000" stroke-linecap="round" stroke-linejoin="round" stroke-miterlimit="10" stroke-width=".5" d="M143.09375 343.78125l1.8125 6.79297"/></g><g clip-path="url(#Z)"><path fill="none" stroke="#000" stroke-linecap="round" stroke-linejoin="round" stroke-miterlimit="10" stroke-width=".5" d="M143.09375 343.78125l1.79688-1.66797"/></g><path fill="none" stroke="#000" stroke-linecap="round" stroke-linejoin="round" stroke-miterlimit="10" stroke-width=".5" d="M157.25781 343.66406l.11328 7.02735m-.11328-7.02735l2.14844-1.1875m12.03906 1.28516l-1.6289 6.83594m1.39062-5.84375l1.1875-.3086m15.01563 2.14063l-6.9297 1.1836m20.20704-1.36329l-6.85547 1.54297m5.85938-1.3164l.80078.92968m13.49219-1.23828l-6.81641 1.70703m5.82422-1.45703l.82031.91015m13.42578.75391l-6.69531-2.1211m5.72266 1.8125l.22265 1.20704m14.21484-2.28125l-6.99609.64453m5.98047-.55078l.67188 1.02734m13.54296-1.75781l-6.76172 1.91797m5.77735-1.63672l.84766.88281m13.41406-1.28515l-6.6875 2.16015m5.71484-1.84375l.8789.85156m13.46485-.96875L273.75 348.0625m5.8125-1.51172l.82813.90625m13.51171-1.0039l-6.875 1.44921m6.875-1.44921l1.57422 1.8828m11.46875-2.68359l-6.33203 3.05079m6.33203-3.05079l1.98047 1.45313m11.01563-1.98438l-5.69141 4.1172m4.86328-3.51954l1.10156.53906m13.69922.63281l-7.0039.57422m5.98437-.48828l.66016 1.03125m13.4961-1.96094l-6.65235 2.26563m5.6875-1.9375l.89453.83984m13.53515-.55078l-6.94921 1.02735m6.94921-1.02735l1.45704 1.97656m11.45703-3.16406l-6.14844 3.40235m5.2539-2.90625l1.02735.66796m12.3789-2.14453l-4.54296 5.36329m3.88281-4.58204l1.19922.26172m13.82812.49219l-6.64453 2.29297m6.64453-2.29297l1.79297 1.67188m10.60156-3.08985l-4.80078 5.1289m4.10157-4.3828l1.18359.3203m11.07031-1.95702l-1.28125 6.91015m1.09375-5.90234l1.17188-.3711m10.9961-.625l1.38671 6.88672m-1.1875-5.88671l.94922-.77735m9.96875 1.22656l5.78515 3.98829m-4.9453-3.40625l.14062-1.21875m16.25 2.6328l-.02344-.19921-.05469-.19531-.09765-.17579-.45704-.375-.1914-.05859-.19922-.01953-.19922.01953-.1914.0586-.46094.375-.09375.17578-.0586.1953-.01953.19923.01953.19922.0586.1914.09375.17578.46093.375.19141.0586.19922.01953.19922-.01953.1914-.0586.45704-.375.09765-.17578.05469-.1914.02344-.19922"/><g clip-path="url(#aa)"><path fill="none" stroke="#000" stroke-linecap="round" stroke-linejoin="round" stroke-miterlimit="10" stroke-width=".5" d="M142.09766 330.90625l3.80468 5.91016"/></g><path fill="none" stroke="#000" stroke-linecap="round" stroke-linejoin="round" stroke-miterlimit="10" stroke-width=".5" d="M155.44922 330.88672l3.73437 5.95312m-3.1914-5.08593l.60937-1.06641m11.02735 1.34766l6.0039 3.65234M168.5 332.5664l.07422-1.22265m12.59766.36328l5.54687 4.3125m-4.73828-3.6875l.20703-1.20703m14.0586 6.10156l2.02734-6.72656m14.01562 6.42969l-3.42578-6.13281m17.02344 5.95703l-3.99219-5.78125m17.64063 5.51953l-4.66016-5.26172m3.98047 4.4961l-.42969 1.15234m14.20313-.20704l-4.21485-5.62109m3.60156 4.80469l-.51953 1.10937m14.88672-.67968l-5.09375-4.84375m4.35156 4.13671l-.32812 1.1836m15.30469-2.32422l-6.9336-1.14844m5.92578.98047L280 335.4336m13.96875-1.30468l-7.00781-.53125m5.98828.45312l.49219 1.125m13.85156-1.33203l-7.02735.03906m6.00782-.03125l.58203 1.07813m13.5664-2.19922l-6.65234 2.26562m6.65235-2.26562l1.78906 1.67969m11.53906-1.63672l-6.67969 2.17969m6.67969-2.1797l1.76953 1.70313m11.25781-2.35547l-6.10156 3.48438m6.10156-3.48438l2.07422 1.3086m10.09766-2.51563l-3.8164 5.89844m3.26171-5.04297l1.22266.10547m14.24219 2.25l-7.00782-.52344m5.98828.44531l.4961 1.125m13.63672-.10937l-6.60157-2.39844m6.60157 2.39844l.34375 2.42969m11.88671-.90625l-4.43359-5.44922m3.78906 4.65625l-.47656 1.13281m15.73047-3.16406l-7.02344.20312m20.11719 1.125l-6.58203-2.45703m17.1211 4.70703l-1.03126-6.95312m10.66016 1.96875l6.34375 3.01562m-5.42188-2.57812l-.05468-1.22656m12.20312 1.47265l6.83203 1.64844m-5.83594-1.40625l-.30859-1.1914"/><g clip-path="url(#ab)"><path fill="none" stroke="#000" stroke-linecap="round" stroke-linejoin="round" stroke-miterlimit="10" stroke-width=".5" d="M142.89844 317.21094l2.20312 6.67187"/></g><g clip-path="url(#ac)"><path fill="none" stroke="#000" stroke-linecap="round" stroke-linejoin="round" stroke-miterlimit="10" stroke-width=".5" d="M142.89844 317.21094l1.69531-1.77344"/></g><path fill="none" stroke="#000" stroke-linecap="round" stroke-linejoin="round" stroke-miterlimit="10" stroke-width=".5" d="M155.42188 317.58594l3.78515 5.92187m-3.23437-5.0586l.60156-1.0703m12.33984.10546l3.4336 6.12891m-2.9336-5.23828l.66016-1.03125m10.4375 2.46484l6.86719 1.48047m7.26172-3.08203l5.24218 4.67969m-4.48047-3.9961l.28907-1.1914m11.72656 1.30469l6.3125 3.08593m-5.39453-2.63671l-.03906-1.22657m13.60937-.57812l3.96875 5.79687m-3.39453-4.95312l.57031-1.08594m12.13672.26563l4.03906 5.75m-3.45312-4.91407l.55469-1.09375m11.05859 1.54297l6.26562 3.1836m6.6875-1.25782l6.9922-.66797m12.19921-2.25l-4.76172 5.16797m17.44531.46094l-3.5-6.09375m18.5586 2.66797l-6.98438.76172m20.3086-.08594l-7.00391-.59375m5.98438.50781l.48437 1.1289m13.6211-2.62108l-6.54297 2.5664m5.58984-2.19531l.92969.80078m12.30859-2.59375l-4.48437 5.40625m4.48437-5.40625l2.40234.4961m10.96485-.44923l-4.58985 5.31641m4.58985-5.3164l2.39453.54296m11.89062.82032l-6.53125 2.58593m5.58204-2.21093l.93359.79687m10.8789-3.29687l-1.625 6.83593m1.38672-5.83984l1.1875-.3086m10.79297-.69921l1.51953 6.85937m-1.29687-5.85937l.92969-.79688m11.39843.0625l3.04688 6.33203m-2.60156-5.41015l.72656-.99219m11.44531.51563l4.44531 5.4414m-3.80078-4.65234l.47657-1.1289m11.67187.86718l5.48828 4.38672m-5.48828-4.38672l.44922-2.41016m12.47656 3.01563l6.26563 3.17578m-6.26563-3.17578l-.04687-2.45703m13.25 2.69921l6.49218 2.6875m-5.54687-2.29687l-.1211-1.21875"/><path fill="#00f" fill-rule="evenodd" d="M383.80078 476.52344h8.61719V466.3789h-8.61719v10.14453"/><path fill="azure" fill-rule="evenodd" d="M385.63281 468.21094h.83203v2.82422h3.28907v-2.82422h.83203v6.48047h-.83203v-2.91407h-3.28907v2.91407h-.83203v-6.48047"/><path fill="#00f" fill-rule="evenodd" d="M383.80078 436.57813h8.61719v-10.14454h-8.61719v10.14454"/><path fill="azure" fill-rule="evenodd" d="M385.63281 428.26563h.83203v2.82421h3.28907v-2.82421h.83203v6.48046h-.83203v-2.91406h-3.28907v2.91406h-.83203v-6.48046"/><path fill="#ff3030" fill-rule="evenodd" d="M375.61719 418.82813h7.69531v-10.14844h-7.69531v10.14844"/><path fill="azure" fill-rule="evenodd" d="M377.44922 410.51172h.83594v5.74219h3.1914v.73828h-4.02734v-6.48047"/><path fill="#ff3030" fill-rule="evenodd" d="M193.64453 414.38672h7.69531v-10.14453h-7.6953v10.14453"/><path fill="azure" fill-rule="evenodd" d="M195.47656 406.07422h.83594v5.74219h3.1914v.73828h-4.02734v-6.48047"/><path fill="#00f" fill-rule="evenodd" d="M228.45703 414.38672h8.6211v-10.14453h-8.6211v10.14453"/><path fill="azure" fill-rule="evenodd" d="M230.28906 406.07422h.83594v2.82422h3.28516v-2.82422h.83203v6.48047h-.83203v-2.91406H231.125v2.91406h-.83594v-6.48047"/><path fill="#ff3030" fill-rule="evenodd" d="M295.72656 409.94922h7.69531v-10.14453h-7.6953v10.14453"/><path fill="azure" fill-rule="evenodd" d="M297.5586 401.63672h.83593v5.73828h3.1914v.74219h-4.02734v-6.48047"/><path fill="#00f" fill-rule="evenodd" d="M370.48438 401.07422h8.62109v-10.14844h-8.6211v10.14844"/><path fill="azure" fill-rule="evenodd" d="M372.3164 392.76172h.83594v2.82031h3.28516v-2.82031h.83203v6.47656h-.83203v-2.91406h-3.28516v2.91406h-.83593v-6.47656"/><path fill="#ff3030" fill-rule="evenodd" d="M180.33203 387.75781h7.6914v-10.14453h-7.6914v10.14453"/><path fill="azure" fill-rule="evenodd" d="M182.16406 379.44531h.83203v5.73828h3.19532v.7422h-4.02735v-6.48048"/><path fill="#ffffe0" fill-rule="evenodd" d="M315.11328 368.6836h22.17969v-10.19141h-22.17969v10.1914"/><path fill-rule="evenodd" d="M318.61328 360.32813h.50781v6.29296h-.78515v-4.48828h-1.39063v-.5586l.5625-.0625.25-.05468.23047-.08984.20313-.14063.17578-.21094.14062-.29296.10547-.39454m4.8125 0l.23047.01563.21875.0586.20703.08984.19922.11719.1836.15234.17187.17578.30078.41797.24219.49219.17969.54687.11328.58203.03515.58985-.03515.59375-.11329.58203-.17968.55469-.24219.5039-.30078.42578-.17188.17969-.18359.15234-.19922.125-.20703.09375-.21875.0547-.23047.01952-.22656-.01953-.21875-.05469-.21094-.09375-.19531-.125-.1836-.15234-.17187-.17969-.30078-.42578-.2461-.5039-.17968-.5547-.10938-.58202-.03906-.59375h.83203l.03125.5625.08203.5078.125.44142.16406.375.1875.30078.21094.21875.22266.14062.22656.04688.22656-.04688.22266-.14062.21094-.21875.1914-.30079.16407-.375.125-.4414.08203-.50781.02734-.5625-.02734-.5625-.08203-.5-.125-.4336-.16407-.36719-.1914-.29296-.21094-.21485-.22266-.1289-.22656-.04688-.22656.04688-.22266.1289-.21094.21485-.1875.29296-.16406.3672-.125.43359-.08203.5-.03125.5625h-.83203l.03906-.58985.10938-.58203.17969-.54687.24609-.4922.30078-.41796.17188-.17578.18359-.15235.19531-.11718.21094-.08985.21875-.05859.22656-.01563m5.09375 0h.50781v6.29297h-.78515v-4.48828h-1.39063v-.5586l.5586-.0625.2539-.05468.23047-.08984.20313-.14063.17187-.21094.14453-.29296.10547-.39454m2.82031 2.17188h.78907l.01953-.3164.0586-.28516.10155-.25.13672-.21875.1836-.17188.22265-.1289.26563-.08204.3086-.02734.23827.02344.22266.0625.20312.10156.1797.13672.14843.17578.11328.20313.07031.23828.02735.26172-.02344.26953-.0664.22656-.10938.1914-.15625.17188-.19922.16016-.2461.16797-.63671.38671-.53516.3125-.4375.31641-.34766.32813-.26171.33203-.19141.35156-.125.3711-.07031.39452-.01954.41797h4.21094v-.74218h-3.33203l.08203-.28125.11328-.23829.14844-.20312.1875-.17969.23047-.17187.28125-.17578.71484-.41407.41797-.20703.34375-.23047.28125-.25.21875-.26953.16406-.27734.11329-.28125.0625-.28516.01953-.28125-.04297-.38281-.11719-.35156-.1914-.30469-.25-.26563-.30079-.21093-.34765-.16016-.3789-.09765-.40626-.03125-.4375.03125-.39844.09765-.35156.16797-.30469.23438-.25.30468-.1875.3711-.11328.44921-.04297.51563"/><path fill="#ffffe0" fill-rule="evenodd" d="M211.1875 365.79688h22.17969v-10.19141H211.1875v10.1914"/><path fill-rule="evenodd" d="M214.6836 357.4375h.51171v6.29688h-.78906v-4.4922h-1.38672v-.55468l.5586-.0664.2539-.05079.22656-.08984.20703-.14063.17188-.21093.14063-.29688.10546-.39453m4.81641 0l.22656.01953.21875.05469.21094.08984.19531.1211.1836.14843.17187.17579.30078.42187.2461.49219.17968.54687.10938.57813.03906.59375-.03906.58984-.10938.58594-.17968.55469-.2461.5-.30078.42968-.17187.1797-.1836.15233-.19531.125-.21094.08985-.21875.0586-.22656.01952-.23047-.01953-.21875-.0586-.20703-.08983-.19922-.125-.1836-.15235-.17187-.17969-.30078-.42968-.24219-.5-.17968-.5547-.11328-.58593-.03516-.58984h.83203l.02734.5625.08203.5039.125.44532.16407.375.1914.29687.21094.22266.22266.13672.22656.04687.22656-.04687.22266-.13672.21094-.22266.1875-.29687.16406-.375.125-.44532.08203-.5039.03125-.5625-.03125-.5625-.08203-.5-.125-.4375-.16406-.36328-.1875-.29297-.21094-.21485-.22266-.1328-.22656-.04298-.22656.04297-.22266.13281-.21094.21485-.1914.29297-.16406.36328-.125.4375-.08204.5-.02734.5625h-.83203l.03516-.59375.11328-.57813.17968-.54687.2422-.49219.30077-.42188.17188-.17578.1836-.14843.19921-.1211.20703-.08984.21875-.05469.23047-.01953m5.08984 0h.50782v6.29688h-.78516v-4.4922h-1.38672v-.55468l.5586-.0664.25-.05079.23046-.08984.20313-.14063.17578-.21093.14063-.29688.10546-.39453m2.82422 2.17578h.78516l.01953-.3164.0625-.28516.09766-.2539.14062-.21485.17969-.17188.22266-.1289.26562-.08203.3086-.02735.23827.01953.22266.0625.20703.10157.17578.14062.14844.17188.11328.20703.07422.23437.02344.26563-.01953.26953-.0664.22265-.10938.19141-.15625.17188-.20313.16406-.2461.16406-.6328.39063-.53907.3125-.4375.3164-.34375.32422-.26562.33594-.1914.35156-.125.3711-.06642.39062-.02343.42188h4.21484v-.7422h-3.33203l.08203-.28515.11328-.23437.14844-.20313.1875-.17969.23047-.17187.27734-.17578.71875-.41406.41406-.20704.34766-.23046.27734-.25.22266-.26954.16406-.27734.10938-.28516.0625-.28515.01953-.28125-.03906-.38281-.1211-.34766-.1875-.3086-.2539-.26171-.30078-.21094-.34375-.16016-.38282-.09765-.40625-.03516-.43359.03516-.39844.09765-.35547.16406-.30468.23438-.25.30469-.1836.375-.11719.44531-.03906.51953"/><path fill="#ffffe0" fill-rule="evenodd" d="M150.89453 446.90234h22.17969v-10.1914h-22.17969v10.1914"/><path fill-rule="evenodd" d="M154.39453 438.54297h.50781v6.29687h-.78515v-4.48828h-1.39063v-.5586l.5625-.0625.25-.05468.23047-.08984.20313-.14063.17578-.21094.14062-.29296.10547-.39844m4.8125 0l.23047.01953.21875.0586.20703.08593.19531.1211.1875.15234.16797.17578.30469.41797.24219.49219.17969.54687.11328.58203.03515.58985-.03515.59375-.11328.58203-.1797.55469-.24218.5039-.30469.42578-.16797.17969-.1875.15234-.1953.125-.20704.09375-.21875.0547-.23047.01952-.23047-.01953-.21875-.05469-.20703-.09375-.19531-.125-.1836-.15234-.17187-.17969-.30078-.42578-.2461-.5039-.17968-.5547-.10938-.58202-.03906-.59375h.83203l.03125.5625.08203.5078.125.44142.16016.375.1914.30078.21094.21875.22266.13671.22656.04688.22656-.04688.22266-.13671.21094-.21875.1914-.30079.16016-.375.1289-.4414.08204-.50781.02734-.5625-.02734-.5625-.08203-.5-.12891-.4336-.16016-.36719-.1914-.29296-.21094-.21485-.22266-.1289-.22656-.04688-.22656.04688-.22266.1289-.21094.21485-.1914.29296-.16016.3672-.125.43359-.08203.5-.03125.5625h-.83203l.03906-.58985.10938-.58203.17969-.54687.24609-.4922.30078-.41796.17188-.17578.18359-.15235.19531-.12109.20703-.08594.21875-.05859.23047-.01953m5.09375 0h.50781v6.29687h-.78906v-4.48828h-1.38672v-.5586l.5586-.0625.2539-.05468.23047-.08984.20313-.14063.17187-.21094.14453-.29296.10547-.39844m2.82031 2.17578h.78907l.01953-.3164.0586-.28516.09765-.2539.14062-.21485.1836-.17188.22265-.1289.26563-.08204.3086-.02734.23437.02344.22656.0625.20312.10156.1797.13672.14843.17188.11328.20703.07031.23828.02735.26172-.02344.26953-.0664.22656-.10938.1914-.15625.16798-.19922.16406-.2461.16797-.63671.38671-.53516.3125-.4375.31641-.34766.32422-.26172.33594-.1914.35156-.125.3711-.07031.39452-.01953.41797h4.21093v-.74218h-3.33203l.08203-.28125.11328-.23829.14844-.20312.1875-.17969.23047-.17187.28125-.17578.71484-.41407.41797-.20703.34375-.23047.28125-.25.21875-.26953.16406-.27734.10938-.28125.0664-.28516.01954-.28125-.04297-.38672-.1211-.34765-.1875-.30469-.25-.26563-.30078-.21093-.34765-.16016-.3789-.09765-.40626-.03516-.4375.03515-.39844.09766-.35547.16797-.30468.23438-.2461.30468-.1875.3711-.11328.44921-.04297.51563"/></g></defs><use xlink:href="#ad"/></svg>