<svg xmlns="http://www.w3.org/2000/svg" role="img" xmlns:xlink="http://www.w3.org/1999/xlink" viewBox="142.45 309.95 326.84 171.84"><defs><clipPath id="a"><path d="M144 446h1v34.32813h-1zm0 0"/></clipPath><clipPath id="b"><path d="M144 311.67188h1V444h-1zm0 0"/></clipPath><clipPath id="c"><path d="M144 311.67188h324v168.65625H144zm0 0"/></clipPath><clipPath id="d"><path d="M467 311.67188h1V476h-1zm0 0"/></clipPath><clipPath id="e"><path d="M144 480h4v.32813h-4zm0 0"/></clipPath><clipPath id="f"><path d="M146 480h2v.32813h-2zm0 0"/></clipPath><clipPath id="g"><path d="M153 479h9v1.32813h-9zm0 0"/></clipPath><clipPath id="h"><path d="M159 480h2v.32813h-2zm0 0"/></clipPath><clipPath id="i"><path d="M166 479h9v1.32813h-9zm0 0"/></clipPath><clipPath id="j"><path d="M172 480h2v.32813h-2zm0 0"/></clipPath><clipPath id="k"><path d="M180 479h8v1.32813h-8zm0 0"/></clipPath><clipPath id="l"><path d="M186 480h1v.32813h-1zm0 0"/></clipPath><clipPath id="m"><path d="M193 478h8v2.32813h-8zm0 0"/></clipPath><clipPath id="n"><path d="M199 480h2v.32813h-2zm0 0"/></clipPath><clipPath id="o"><path d="M207 478h8v2.32813h-8zm0 0"/></clipPath><clipPath id="p"><path d="M220 479h8v1.32813h-8zm0 0"/></clipPath><clipPath id="q"><path d="M226 480h1v.32813h-1zm0 0"/></clipPath><clipPath id="r"><path d="M233 479h8v1.32813h-8zm0 0"/></clipPath><clipPath id="s"><path d="M239 480h2v.32813h-2zm0 0"/></clipPath><clipPath id="t"><path d="M246 480h9v.32813h-9zm0 0"/></clipPath><clipPath id="u"><path d="M252 480h2v.32813h-2zm0 0"/></clipPath><clipPath id="v"><path d="M260 479h8v1.32813h-8zm0 0"/></clipPath><clipPath id="w"><path d="M265 479h3v1.32813h-3zm0 0"/></clipPath><clipPath id="x"><path d="M273 478h8v2.32813h-8zm0 0"/></clipPath><clipPath id="y"><path d="M279 478h2v2.32813h-2zm0 0"/></clipPath><clipPath id="z"><path d="M286 479h9v1.32813h-9zm0 0"/></clipPath><clipPath id="A"><path d="M292 479h2v1.32813h-2zm0 0"/></clipPath><clipPath id="B"><path d="M300 479h8v1.32813h-8zm0 0"/></clipPath><clipPath id="C"><path d="M305 479h3v1.32813h-3zm0 0"/></clipPath><clipPath id="D"><path d="M313 479h8v1.32813h-8zm0 0"/></clipPath><clipPath id="E"><path d="M327 478h7v2.32813h-7zm0 0"/></clipPath><clipPath id="F"><path d="M342 476h3v4.32813h-3zm0 0"/></clipPath><clipPath id="G"><path d="M353 479h8v1.32813h-8zm0 0"/></clipPath><clipPath id="H"><path d="M353 479h2v1.32813h-2zm0 0"/></clipPath><clipPath id="I"><path d="M366 479h9v1.32813h-9zm0 0"/></clipPath><clipPath id="J"><path d="M367 478h2v2.32813h-2zm0 0"/></clipPath><clipPath id="K"><path d="M379 479h9v1.32813h-9zm0 0"/></clipPath><clipPath id="L"><path d="M380 478h2v2.32813h-2zm0 0"/></clipPath><clipPath id="M"><path d="M393 479h8v1.32813h-8zm0 0"/></clipPath><clipPath id="N"><path d="M392 477h2v3.32813h-2zm0 0"/></clipPath><clipPath id="O"><path d="M406 479h9v1.32813h-9zm0 0"/></clipPath><clipPath id="P"><path d="M405 477h3v3.32813h-3zm0 0"/></clipPath><clipPath id="Q"><path d="M407 478h2v2.32813h-2zm0 0"/></clipPath><clipPath id="R"><path d="M419 479h9v1.32813h-9zm0 0"/></clipPath><clipPath id="S"><path d="M418 478h3v2.32813h-3zm0 0"/></clipPath><clipPath id="T"><path d="M420 479h2v1.32813h-2zm0 0"/></clipPath><clipPath id="U"><path d="M433 478h8v2.32813h-8zm0 0"/></clipPath><clipPath id="V"><path d="M446 478h8v2.32813h-8zm0 0"/></clipPath><clipPath id="W"><path d="M460 478h7v2.32813h-7zm0 0"/></clipPath><clipPath id="X"><path d="M144 466h4v2h-4zm0 0"/></clipPath><clipPath id="Y"><path d="M144 452h4v4h-4zm0 0"/></clipPath><clipPath id="Z"><path d="M144 439h4v3h-4zm0 0"/></clipPath><clipPath id="aa"><path d="M465 437h3v1h-3zm0 0"/></clipPath><clipPath id="ab"><path d="M144 424h3v6h-3zm0 0"/></clipPath><clipPath id="ac"><path d="M144 411h4v6h-4zm0 0"/></clipPath><clipPath id="ad"><path d="M144 398h4v5h-4zm0 0"/></clipPath><clipPath id="ae"><path d="M144 384h3v7h-3zm0 0"/></clipPath><clipPath id="af"><path d="M144 370h1v8h-1zm0 0"/></clipPath><clipPath id="ag"><path d="M144 368h2v3h-2zm0 0"/></clipPath><clipPath id="ah"><path d="M144 357h3v6h-3zm0 0"/></clipPath><clipPath id="ai"><path d="M144 345h4v5h-4zm0 0"/></clipPath><clipPath id="aj"><path d="M144 330h3v7h-3zm0 0"/></clipPath><clipPath id="ak"><path d="M144 316h1v9h-1zm0 0"/></clipPath><clipPath id="al"><path d="M144 315h3v3h-3zm0 0"/></clipPath><clipPath id="am"><path d="M466 318h2v3h-2zm0 0"/></clipPath><clipPath id="an"><path d="M465 318h3v3h-3zm0 0"/></clipPath><g id="ao" clip-path="url(#clip1)"><path fill="#fff" fill-opacity="0" fill-rule="evenodd" d="M0 0h1000v1000H0zm0 0"/><path fill="#d3d3d3" fill-opacity="0" fill-rule="evenodd" d="M162.15234 355.86719l-.23437.29297.0586.23437.11718.17188.17578.23437.29297.34766.11328.0586.11719-.17188.0586-.23438.17577-.17578.46485-.17578h.69922l.23437.29297.28906.8164.0586.17579.17578.23046.35156.23438.69922.69922.17188.17578.23437.34765.23438.41016.28906.58203.41015.46485.23047.23437.23438.17578.11719.23047.17578.29297.17187 1.16406v.23438l.0586.28906.05859.11719.11719.11719.34765.41015.11719.17188.17578.17578.17578.23437.11719.17188.17188.35156.05859.23438.23437.40625.23438-.0586-.17578.17578-.0586.92969h-.58203l-.23437-.11328-.34766.11328-.11719.11719-.05859.29297-.0586.17578-.11718.17187-.46484.29297-.0586.23438-.0586.11328v.64453l.0586.17187v.41016l.0586.0586v.40624l.05859.40625.11719.17579.05859.05859.23047.64062-.0586.29297v.69922l-.05859.58203v.23438l-.0586.23047-.05468.35156v1.92187l.05469.1172h.42578l-.36719.11718-.02344.35156.89063 1.16797 1.74219.53906 1.33984.35938v.53906l.08984.8086.53516.71484 1.51953.26953.89063-.08594.08984 1.16406.53516.1797 1.16015-.1797 2.05469-.98437 1.16016-.36328 1.8789-.17578 1.69531-.1797-.17968.71876-1.51563.08594-1.25.08984-.80469.26953-1.07421.8086.26953.71875.53515.89843-.17968.625-.26563.8086.26563 1.07812.625.89844.80468.17969 1.25-.1797-.26562.72267.09766.5039.05468.29297v.17188l.0586.29296v.40625l.17578.1172.35156.11718h.40625l.29297-.17578.11328-.11719.0586-.11719.11718-.23047.0586-.17578.35156-.46484.23047-.17578.17578-.0586.17578.0586.0586.17578.11718.98828.05469.46875.0586.17188.11718.23437.17578.0586.8164.05859h.28907l.11719.23437.05859.40625.0586.35156v1.10547l.11718.29297.11719.34766.28906.69922.17578.35156.58203.7539.35157.17579.17187.0586.46875.23437.64063.46484.34765.23438.29297.17578.29297.05468.23047.0625.8164.34766.29297.17578.11328.17188.35157.35156.11719.17578.52343.64063v.28906l.0586.35156v.34766l.05859.35156.0586.28906.11718.0586.17188.05859h.17578l.58203.23437.17578.1172.17578.28905.17578.23438.11328.23437.29297.23047.11719.11719v.41016l.0586.05468.28906.23438.23437.11719.0586.11718.11718.17188.0586.11719.23047.23437.05859.17578.23437.0586.1172.05859-.1172.11328-.05859.11719v.11719l-.11719.29296-.11719.28907v.58203l.17579.11719.11718.05859.0586.11719.11719.11719.11328.05859.17578.34765.0586.35157.05858.40625v.17578l-.05859.17578-.11719.69922v.17187l.1172.17579.29296.29296h.40625l.17578.1172.11719.17187.11719.29296v.23438h-.52735l-.23047-.23438h-.23437l-.17578.0586-.0586.69922.0586.34765.11719.17579.17578.41015.11718.23047.28907.46875.17578.05469h.52344l.23437.0586.75781.64062.0586.29296v.23438l.05859.0586.23047.34765v.35156l-.11719.17188v.29297l.29297.28906.29297.17578.17187.0586.29297.17577.29297.1172.58203.40624.28906.23438.29297.17578.21875.16015.01563.01172.23047.17579.64062.52343.17578.23438.1172.17578.17577.17578.11328.17188v.64062l.1172.17578.46874.11719.58203.11719.23438.05859.23047.11328.29297.11719.11328.0586.58593.35156.28907.17187.17578.0625.17578.05469.17578.0586.69922.35155.28906.17579.23438.05468.28906.17578.23437.1172.64063.40624.29297.11719.17187.0586.23438.05859.41015.05859.23047.0586.23438.11718.0586.17188-.41017.17578.46875.0586.0586.29296.11328.23438.17578.05468.23438.0586.17578.05859.40625.11719.64062.23437.11719.17188.0586.23437v.17578l-.0586.1172-.0586.40624.23438.23438.11719.05859.34766.11719.64062.23047.17578.11718.28906.1172.17578.17577.23438.46485.58203 1.10546.17578.17579.34766.17578.17578.11719.35156.11718 1.04688.52344.23437.0586.46485.11327.29297.0586.46484.17578.75781.58203.23438.23438.34765.46484.17578.17578.28907.23438.8164.69921.29297.17579.28906.28906.29297.17578.29297.28906.69531.64063.17578.17578.29297.23437.28907.23438.46875.28906.64062.58203.34766.23438.23437.29297.34766.34765.35156.46485.9336.99218.34765.40625.11719.17579.23437.05859.11328.11719.64454.17578.23047.11328.23437.0586.29297.17577.23047.1172.9336.69921.40624.40625.23438.17578.40625.17578.23437.11719.8164.34766.34766.23437.23438.11719.29297.28906.23047.11719.7578.35156.35157.17188.23047.05859.29297.11719.23437.0586.8711.17577h.8164l.46875.23047.17188.0586.875.69921.46484.1172.29297.05858.17578.0586.23047.0586.46875.05859.34766.05859.35156.0586.40625.05859h.29297l.17187.0586v.23046l.17578.17578h.29297l.34766.0586.35156.05859.69922.11719h.64063l.46484-.23438.29297-.17578.17187-.11719.41016-.17187.28906-.17578.9336-.46485.46875-.29297.52343-.29296.46485-.17188.46484-.17578 1.05078-.46485.28906-.11718.41016-.11719.28906-.11719.52735-.17578 1.51562-.69922.58203-.34765.28907-.0586.29297-.0586.34765-.11718.875-.23047.35156-.11719h.11329l.23437-.05859.875-.23437.23438-.0586h.8125l.35156-.0586.8164-.11718.17188-.0586.35156-.05468.29297-.0586.23047-.05859.8164-.17578.17579-.0586h.34765l.23438-.05859.46484-.11718.75781-.17188.23438-.0586h.34765l.41016-.11718.28906-.0586 1.28516-.05859h.28906l.41016-.0586.23047-.05858h.17578l.875-.1172h.40625l.41015-.11718h.34766l.35156-.11328.8711-.0586h1.75l1.04687.28907.41016.11719.28906.11718.35156.11719.28907.11719 1.05078.17187.28906.0586h.29297l.29297.05859.17187.0586.41016.05859.17187.0586.1172.05858h.11718l.11719.0586.35156.0586h.11328l.41016.0664 1.92187.39453 1.92578.39453 1.51953.44922 1.69532.71875 2.14453.80469 1.60547-.71875 1.42968-.80469 1.16016-1.07813 1.25-.44921 3.03516-.71875 1.875-.35938 2.14453-1.34765 2.23437-1.25391 2.5-1.25781 1.69531-.44922 1.78516-.17969 1.16016-.26953.625.53906 1.33984-.26953.71485-.98828.98437-1.34375.44531-.17969.80469-.35937 1.875-.53907 1.78516-.44921 1.25-.26954 1.16015-.08984 1.69922-.08984 1.96094-.26954 1.25-.08984h.53906l.625-.08984h.89063l2.14453-.17969 2.41015-.17969 2.58985-.08984 1.69531.17969 1.60938.08984 1.42968.35938 1.16016.71875 1.875.98828 1.16015 1.52734.26563.71484.6289.08985.35548.89844.53515.53906.53516 1.52734 1.07422.35938h.53515l-.80469.53515.08985 1.70703.71484 2.69532.89063.80468.89453.98829.71484 1.2578 1.78516.53907 1.51953-.17969.35547 1.34375 1.60937-.80469.98047-.53906.26953.26953.31641-.21484.21875-.14453.80078.44922.44922-.35938h.35547l.53515-.26953.53907-.71875.53515-.26953.625-.98828 1.16016.44922.83984.3711 1.39454.61718 1.6953-.17969h1.60548l1.78515.08985.17969-1.70704.53516-1.34375.80468.26954.4922.84765.40233.40625-.08984.53906v.35938l.71485.44922.71093-.26953h1.42969l.35938.98828.4453 1.25781.71485 1.34375 1.25.6289 1.69531.62891.71485-.17969.17969-.53906.98046-.08984.44922.35937.08594 1.25782-.26563.6289-.53515.17969v.53906l.71484.98438.26563.53906.98437.98828.80078 1.07813-.26562.35937-.08985.89844-.625 2.33203-.35546 2.0664-.08985 1.79298-.17969.71875-.08984.53906v1.4375l-.98047 1.88281-.35937 1.70703-.53516.89844-.80469 1.16797-.26562.53906 2.05469 1.2539.08593.35938-.35546.53906-.08985-.17968v.80859l.08985 1.4375-.44532.71484-1.07422.09375-.26562.71485.53515.89844.8047.71875 1.16015.80859 1.33984.26953.44531.35938-.35546.44921-1.78907-.08984-1.25-.44922-.71484-.71875-.625-.08984-.17578 3.58984-.1875 1.3086h89.35937V311.70313h-55.26953v49.08203l.76172.125 3.28906.54296 2.02344 2.83594v2.7539l2.35156.33204 2.34766.33203h4.05078l-1.3789 4.16016-2.02344.70703-2.02344.70312-.54297.34375-2.59375 1.6172-.1875.11718-2.02344-2.07813-.73046-2.74218-2.67188-2.07813-1.375-3.5-.0664-.08203-1.95704-2.67188 2.75-1.41796v-49.08204H294.42187v91.41407l.1172.03125.1328.01172.07422.07421.10547.04688.08985.0586.08593.05859.08985.0586.29687.29687.0586.08984.03125.11719.02734.11719.01563.13671-.03125.1172-.0586.08983-.0586.08594-.04296.10547-.04688.10156-.02734.1211v.14453l.17578.26953.14844.14844.07422.08594.07422.07421.04296.10547.0625.08985.0586.08593.04297.10547.0586.08985.04687.10156.04296.10547.0586.08594.11719.17968.07421.07422.0625.08594.0586.08984.04297.10547.0586.08985.05858.08593.0625.08985.0586.08984.04297.10156.11719.17969.07421.07422.0586.08594.07422.07421.08984.0586.10547.04687h.14844l.1328-.01562.13282.01562.10156-.04687.07422-.07422.04688-.10156-.01563-.13281v-.14844l-.04687-.10547-.02735-.11719-.04687-.10156-.02735-.1211-.04296-.10156-.0625-.08984-.04297-.10156-.04297-.10547-.03125-.11719-.01563-.13281-.01171-.13672.08593-.0586.0586-.08593.12109-.03125.04297.10547.01562.1328v.1172l.0586.10156.0586.08984.08983.0586.14844.14843.0586.08985.04296.10547-.01171.10156.08593.0586.10547.04687.08594.0586.08984.05858.07422.07422-.11719.02735-.10546.04687-.08594.0586-.07422.07421-.0586.08985-.0625.08594-.02734.12109-.04687.10156-.04297.10547-.03125.11719-.01172.13281-.01563.13281v.14844l.02735.11719.04687.10547.04297.10156.0586.08984.07421.07422.08985.0586.07422.07421.08984.0586.0586.08984.04296.10547.04688.10156.11719.03125.1328.01563h.14845l.11718-.03125.10547.04297.04297.10547.04688.10156.02734.1211L299.5 410l.02734.11719.03125.1211.02735.11718.10547.04297.10156.04687.13281-.01562.14844.14844.0625.08593.07422.07422.07031.07422.08984.0625.10547.04297.10156.04297.1172.03125.13671.01562.11719-.03125.07422-.07422.02734-.11718-.01172-.13282-.03125-.12109-.02734-.11719.04297-.10547h.11719l.08984.0625.11719.02735h.14843l.13282.01562h.14843l.13282.01563.1328-.01563h.14845l.1328-.01562.13282-.01172.13672.01172.11719-.02735.13281-.01562.1914-.0586-.05859.17579-.01562.1328-.02735.1211-.01562.13281-.0586.08594-.1328.01563-.10548.04687-.10546.04297-.1172.03125-.11718.02735-.26563.03125h-.14843l-.13281.01562-.07422.07422.05859.08594.14844.14843.11719.1797.07421.0703.08985.0625.08984.0586.08594.0586.08984.05858.10156.04297.10547.0625.10547.04297.08594.0586.10547.04687.10156.04297.17969.11719.0586.08984-.04298.10156-.04687.10547.01562.13281.22266.22266.0586.08985.04296.10156.03125.1211.04297.10155.01563.13282.03125.11718.01171.13672.03125.11719.14844.14844.10156.04297.10547.04296.1172.03125.1328.01563.13672.01563h.11719l.11719-.03125.08984-.0586.04297-.10547.04688-.10156.04296-.10547.03125-.11719.01172-.1328v-.14845l-.01172-.1328-.01562-.13282-.03125-.11719-.04297-.10547-.04688-.10547-.04296-.10156-.04297-.10547-.01563-.13281.01563-.13281.02734-.11719.03125-.11719.02735-.1211.04687-.10155.08984-.0586.08594-.0625.07422-.07422.08984-.05859.22266-.22266.0586-.08593.07421-.07422.11719-.17969.0586-.08594v-.14844l-.07423-.07421-.10156-.04688-.10547-.04297-.10156-.04297-.0586-.08984-.04687-.10547-.02734-.11719.08984-.05859.11719-.03125.10156-.04297.17969-.11719.14844-.14843.01172-.13282-.01172-.10546-.08985-.0586-.1328.01563h-.14845l-.1328.01562-.13282-.01562-.1211-.03125-.08593-.0586-.07422-.07422-.0586-.08984-.0625-.08594-.11718-.17969-.0586-.08593.03125-.1211.08594-.05859.1211-.03125.05859-.08594v-.1211l-.03125-.11718-.0586-.08984-.05859-.08594-.04687-.10547-.02735-.11719-.01562-.1328.0586-.08985.07421-.07422.08984-.0586.1172-.17968.07421-.07422.0586-.08594.14843-.14844.1211-.03125.1328-.01562.13282.01562.07422.07422.04297.10547.01562.13281-.03125.1172-.11719.03124-.1328.01172-.14844.14844-.04297.10547-.04688.10156-.02734.1211-.03125.11718v.14844l.03125.11719.04297.10546.05859.08985.07422.07031.07422.07422.11719.03125.12109.02734.11719-.02734.1328-.01563h.1172l.08984.0586.07422.07422.04687.10546.0586.08594.10156.04688.13281.01562.10547.04297.08594.0586-.01172.10546-.07422.07422-.17969.11719-.05859.08984-.08984.0586-.07032.07422-.07421.07421-.0625.08985-.02735.11719-.01562.1328.01562.13282-.01562.13281v.14844l.01562.13281.02735.1172.03125.12108.07421.07422.08985.0586.08594.0586.08984.05858.11719.03125v.08594l-.10157.04688-.08984.0586-.26563.03124-.11718.02735h-.14844l-.10547.04296-.10156.04688-.0586.08984-.0625.23438-.01171.13281-.03125.1211-.01563.1328v.29298l-.01172.1328.01172.13673.01563.1328.1328.01563.13282.01172.1211.03125.08593.0586.07422.07421.04688.10547.04296.10157.01563.1328v.44532l-.01563.13281v.44532l.03125.26562.02735.11719.01562.13281.03125.11719.08594.21094.03125.26562v.14844l-.03125.11719-.02734.11718-.03125.1211-.02735.11719-.03125.11718-.03125.1211-.01171.1328-.01563.13282.08984.0586.1172-.03125.10155.01562.04688.10547-.03125.26562v.44141l-.04297.10547-.04688.10547-.04296.10156-.04297.10547-.0586.08594-.03125.12109-.04296.11719-.03125.11719-.01563.1328.01563.13282.05859.08984.10547.04688.08594.0586.05859.08593-.01172.13672-.03125.11719-.04297.10156v.44531l-.01562.13281v.14844l-.03125.11719-.04297.10547-.02735.11719-.04687.10546-.04297.10157-.03125.12109-.02734.11719-.03125.13281-.03125.11719-.02735.11719-.04297.10546-.03125.1172-.03125.12108-.01171.13282-.01563.13281v.29688l.02734.11718v.14844l.04688.39844.02734.11719.0586.08984.12109.03125h.14844l.13281-.01563.0586.08985v.11719l-.0586.08984-.08984.0586-.10157.04296-.10546.04688-.08985.05859-.08594.0586-.13671.01562-.1172-.03125-.1328-.01563-.10157.04688-.0625.08594-.01172.13671-.01562.13282-.03125.11719-.02735.11718-.01562.13281-.03125.1211v.29687l.01563.13282.03125.11718v.14844l.01171.13281v.14844l-.02734.11719-.04688.10156-.02734.1211-.03125.11718-.0586.08985-.07421.07421-.10156.04297-.10547.04688-.11719.02734-.1211.03125-.10156-.04687.0586-.08594.10547-.04688.02734-.11718.03125-.11719.02734-.1211.03125-.11718v-.14844l.01563-.13281-.03125-.11719-.04297-.10547-.10547.01563-.07422.07422-.10156.04296-.08984.0625-.07422.07422-.04297.10157-.01563.1328-.03125.1172L304.25 426l-.03125.11719-.02734.11719-.03125.12109-.02735.11719-.03125.11718-.04297.10547-.08984.0586h-.08984l-.1172-.03125-.03124-.08594.01562-.13672-.03125-.11719v-.14844l-.01171-.1328v-.14844l-.0625-.23438-.02735-.1211-.04297-.10156-.04687-.10546-.0586-.08594-.05859-.08985-.04297-.10546-.0625-.08594-.14844-.14844-.0703-.07422-.10548-.04687-.10547-.04297-.10156-.04297-.29687-.29688-.08985-.07421-.08594-.0586-.10546-.04297-.08985-.0625-.08594-.0586-.10546-.04296-.08985-.0586-.08594-.0625-.07421-.0703-.10547-.04688-.08594-.0586-.10547-.04296-.08984-.0625-.10156-.04297-.10547-.04297-.08594-.0586-.10547-.04687-.10547-.04297-.10156-.04687-.08985-.0586-.10156-.04297-.10547-.04296-.08984-.0625-.11719-.02735-.13281-.01562-.13281.01562H299.75l-.13281.01563-.11719-.03125-.08984-.0586-.07422-.07422-.08985-.05859-.10156-.04688h-.14844l-.12109-.02734-.10156-.04297-.07422-.07422-.11719-.17968-.08984-.0586-.10156-.04297-.08985-.0625-.10547-.04296-.08984-.0586-.08594-.0586-.10547-.04687-.0586-.08594-.05858-.08984-.04297-.10547-.04688-.10156-.07422-.07422-.08594-.0586-.07421-.07421-.08985-.0586-.22265-.22265-.04297-.10547-.03125-.26563.10547-.04296h.14453l.10547.04296.07421.07422.08985.0586.08594.0586.10546.04687.08985.05859.14844.14844.0703.07422.14845.14843.0625.08594.07421.07422.08594.0586.07422.07421.08985.0625.08984.0586.08594.05859.26953.17578.10156.04688.10547.04296.10156.04297.04688-.07421.05859-.08594.07422-.07422.07031-.07422.10547.04297.07422.07422.0586.08984.04296.10156.04688.10547.04296.10547.1211.02735.11719-.02735.07421-.08984.04297-.10547.0586-.08985.07422-.07421.10546-.04297.1172-.02735.1328.01172.08985.0586.14844.14843.05859.08985.04297.10547.04687.10156.04297.10547.04297.10156.10547.04688.10547.04296.13281.01563.08594-.0586.0586-.08984.07421-.07422.10547-.04297.11719.02735.10547.04687.10156.04297.10547.04297.10156.04688.17969.11718v.11719l-.01563.13281.01563.13281.01562.13672.0586.08594.10156.04688.1211.02734.11718.03125h.14844l.11719-.03125.05859-.08984.17969-.1172.05859-.08983.07422-.07422.0586-.08594.11718-.17969.17969-.11719.11719.03125.08984.0586.04297.07422-.01563.1328v.1172l.08985.05859h.14843l.13282-.01563.1328-.01171.26563-.03125.10547-.04297.11719-.03125.1211-.02735.07421-.07421.07031-.07422.0625-.08985-.01562-.10547-.04688-.10156-.10156-.04297-.10547-.01562-.11718.02734-.26563.03125h-.14844l-.07421-.07422-.08985-.0586-.11719-.03124-.11718-.02735-.13282-.01562h-.14843l-.13282.01563h-.29687l-.10547-.04688-.14844-.14844-.04297-.10156-.05859-.08984.22266-.22266.08593-.0586.10547-.04296.11719-.03125.13281-.01563.13281.01563.13672.01562.10157.04297.1328-.01172.08985-.0625.10156-.04297.0625-.08984-.04687-.10156-.08984-.0586-.1172-.03125-.10155-.04296-.0586-.08985-.0625-.08984v-.11719l.01563-.13281.10547-.04688.07421-.07031v-.1211l-.08984-.05859-.03125-.11719.08985-.05859.07421-.07422.04297-.10547.0586-.08984.04687-.10156.01563-.13281v-.14844l-.04688-.10547-.04297-.10156-.08984-.0586-.13281-.01562-.10157-.04297-.13671-.01563-.1172-.03125h-.4453l-.13282-.01562-.13281-.01172-.13281-.01563-.11719-.03125h-.14844l-.13281-.01562-.13281-.01172-.26563-.03125-.1211-.04297-.08593-.0586-.07422-.07421v-.14844l.01172-.13281.10547-.04688.10156-.04296.13281-.01563h.15235l.13281-.01562h.29297l.1211.03125.10156.04296.08984.0586.23438.0625.12109-.04688.08984-.05859.10156-.04297.13282-.01562.10547.04296.10156.04688.13281.01172.1211-.02735h.14453l.12109-.03125.11719-.02734.10547-.04687.07421-.07422.08594-.0586.14844-.14843.0586-.08594.04687-.10547.02734-.11719.01563-.10547-.10156-.04296-.08985-.0586-.11719-.03125-.10546-.04297-.08985-.0625-.07422-.08594-.07422-.07421-.10156-.04297-.10547-.04688-.10156-.04297-.0586-.08984-.04687-.10156-.08594-.21094-.0625-.08594-.05859-.08984-.07422-.07422-.08594-.0586h-.26953l-.11719.03126-.08984.05859-.10156.04297-.13281.01562-.10547-.01562-.02735-.11719-.0625-.08984-.11718-.03125-.10157-.04297-.14843-.14844-.03125-.11719-.01563-.10546.07422-.07422.17969-.1172.11719-.02733.11718-.03125.13672.01562.10156.04297.10547.04297.10156.04687.10547.04297.1172.03125.1328.01563.1172.02734.1328.01563.10547-.01563.08985-.0586-.07422-.07421-.10547-.04297-.07422-.07422-.07422-.08984-.14844-.14844-.08593-.0586-.08985-.05859-.07422-.07422-.08984-.0586-.10156-.04687-.1211-.02734-.10156-.04688-.10547-.04296-.11719-.03125-.10156-.04297-.1211-.03125h-.14843l-.11719.03125-.10546.04297-.08594.0625-.17969.11718-.08594.0586-.08984.0586-.10547.04687-.08594.05859-.10547.04297-.10156.04297-.10547.04687-.07422.07422-.05859.08985-.0586.08593-.04687.10547-.0586.08594-.07421.07422-.13281-.01172-.1172-.03125h-.11718l-.07422.07422-.08984.0586-.07422.07421-.08984.0586-.08594.05859-.10547.04687-.10156.04297-.13672.01563-.10156-.04297-.14844-.14844-.10547-.04688h-.08594l-.10547.04688-.10156.04297-.1211.03125-.11718-.03125-.07422-.07422v-.11719l.03125-.1211.07422-.0703.0586-.08985.07421-.07422.11719-.03125.10547-.04296h.29297l.13281-.01563.13672-.01563.10156-.04296.08985-.0586.10156-.04687.08984-.0586.13281-.01171.08985.05859.13281.01172.08984-.0586.08594-.05859.10547-.04297.08984-.0586.08594-.0625.08985-.05859.14843-.14843.0586-.08594.05859-.08985.10547-.04296.13281-.01563.11719.02735.1211.03125.05859-.0586.05859-.08984.03125-.26563.02734-.11719.10547.01172.13281.01563.10157-.04297.08984-.0586.0586-.08984.07421-.07422.0586-.08984.04687-.10156.01172-.13281-.01172-.13282-.04687-.10547-.14844-.14843-.0586-.08985-.05859-.08594-.04297-.10546v-.44532l.01563-.1328v-.14845l.01172-.1328-.0586-.0586-.08984.0586-.10156-.04298-.17969-.11719-.08594-.05859-.0625-.08984-.0586-.08985-.07421-.07421-.08594-.0586-.1211.03125-.10155.01172-.10547.04688-.08594.05859-.10547.04297-.14844.14844-.08984.05859-.08594.0586-.08984.0625-.10547.04296-.13281.01563v-.1211l.10547-.04297.11718-.03125.07422-.0703.04297-.10548v-.14844l-.02734-.11718-.14844-.14844-.13281-.01563h-.14844l-.11719.03125-.10547.04297-.10156.04297-.08984.0625-.11719.02735-.07422-.07422.01172-.13281-.04297-.10157-.04297-.10547-.08984-.05859-.11719.02734-.1211.03125-.11718.03125-.10156.04297-.1211.03125-.10156.04297-.10547.04297-.08984.0586-.10156.01562v-.11719l.01562-.13281-.0586-.08985-.07421.04297-.14844.14844-.0586.08985-.07421.07421-.04688.10547-.04296.10156-.07422.07422-.0586.08985-.07422.07422-.05859.08593-.07422.07422-.08984.0625-.07422.07031-.07422.07422-.10156.01563-.13281.01562-.10547-.04296v-.1211l.14843-.14844.04297-.10156.0586-.08984.04687-.10156.04297-.10547.0586-.08985.03124-.11719.04297-.10156.03125-.1211.02735-.11718.04687-.10547.04297-.10156.04297-.10547.07422-.07031.08984-.0625.08985-.0586.10156-.04296h.29687l.26563-.03125.10547-.04297-.07422-.07422-.11719-.03125-.10547-.04297-.08984-.0586-.10156-.04687-.08985-.0586-.10156-.04296-.10547-.04297-.08984-.0625-.08594-.0586-.10547-.04296-.10156-.04297-.1211-.03125-.11718-.03125-.10157-.04297L297.5 410.25l-.10156-.04297-.08985-.0586-.04296-.10546-.01563-.13281.10156-.04297.13281-.01563.13672.01563.13282-.01563.10156-.04297.0586-.08984.01562-.10547-.08985-.0586-.07421-.07421-.10157-.04297-.08984-.0586-.14844-.14843-.04297-.10547-.01562-.13281v-.29297l-.0586-.08985-.08984-.05859-.07422-.07422-.04297-.10547-.03125-.11718-.0586-.08985-.07421-.07422-.11719-.02734-.07422-.07422-.08984-.0586-.08984-.0625-.08594-.05859-.07422-.07421-.0586-.08594-.04687-.10547-.08594-.0586-.14843-.14843-.19532-.0586-.1328.01563-.10157.04297-.07422.07422-.04688.10156-.04296.10547-.0586.08984-.0586.08594-.29687.29687-.08984.0586h-.08594l-.0625-.08594-.04297-.10547.03125-.11719.0586-.08984.02734-.11719-.01172-.13281-.08984-.0625-.10547.04688-.11719.02734-.11719.03125-.26953.17578-.10156.04688-.11719.02734-.10546.04687-.08985.0586-.10156.04297-.0586-.08594-.04687-.10547.01563-.13281.04687-.10547.07031-.07422.07422-.07031.0586-.08985v-.14843l-.04297-.10547h-.23829l-.10156.04687-.03125.11719-.02734.11719-.03125.1211-.07422.04296-.13281.01563-.07422-.04688-.04297-.10156-.04297-.10547-.04687-.10156-.04297-.10547-.1211.03125-.10156.04297-.13281.01562-.11719.03125-.10547.04297-.08984.0586-.10156.04687-.1211.02734-.13281.01563-.10156-.04297-.0586-.08985-.04687-.10546-.04297-.10157-.04297-.10546v-.1172l.0586-.08984.08593-.05859.17969-.11719.10156-.04687.10547-.04297.10547-.0586.10156-.04296.08985-.0625.10156-.04297.10547-.0586.10156-.04687.08984-.0586.10547-.04296.10156-.04297.08985-.0625.10156-.04297.13672-.01563.11719.03125.10156.04297.1211.03125.10156.04297.10546.04688.10157.04296.10547.04297.10156.04688.10547.04297.10156.04297.10547.04687.08594.0586.10546.04296.1172.03125.10546.04297.10156.04688.08985.0586.10547.04296.10156.04297.10547.04687.11719.02735.10156.04687.1211.02735h.14843l.08594-.0586.01562-.10156.0586-.08984-.02735-.1172-.07422-.07421-.11719-.17969-.07421-.07422-.08985-.07421-.17969-.1172-.08593-.05859-.10547-.04296-.10156-.04688-.26954-.17578-.05859-.08985-.07422-.07421-.0586-.08985-.04296-.10156-.03125-.11719-.01563-.13672v-.5625l-.01171-.1328-.01563-.13282-.03125-.11719-.01562-.13281-.01172-.13281-.03125-.1211-.22266-.22265-.0586-.08594-.01562-.10547.03125-.11719.13281-.01562v-91.41406H172.9922v1.45312l-.0586.23438-.35156 1.05078-.17187.52343-.1172.34766-.17577.41016-.11719.17187-.23438.29297-.23046.0586h-.35157l-.11718.05859-.23047.40625v.29297l.11719.17578.23046.23047.1172.23437.64062.75781.29297.46485.17578.23437.23047.35156.23437.34766.64063.8164.17578.46485.17187.41016.11719.69531.17578.46875.11719 1.39844.0586.46484v.875l.11718 1.04688v4.78125l-.0586.46484-.35156 1.28125-.17578.52344-.11328.41015-.35156.9297L172.93359 336l-.23437.58203-.11719.17578-.17187.34766-.17578.40625-.35157.8164-.0586.29297-.11327.29297-.11719.28906-.0586.17579-.11718.875-.0586.40625-.05859.11718-.0586.17579-.05859.17187-.23047.52734-.11718.17188v.23437l-.11719.23438-.0586.17187-.17577.58594v.28906l-.0586.17579v.29296l-.0586.11329-.05859.52734v.17187l-.05468.23438v2.6211l-.17578.8164-.1172.17578-.17577.23438-.1172.17187-.11327.23438-.58594.93359-.23047.28906-.29297.46485-.17578.23437-.28906.35156-.35156.69922-.11328.23047-.17579.41016-.17578.23046-.40625.52735-.8164.69922-.29297.17187-.28906.23438-.17579.11719-.17578.17578-.52344.40625-.52734.17578-.17187.17578-.23438.05469-.64062.17578h-.75782m12.21094 31.02344l-1.07422.44921.35938.89454 1.25-.71485.44531-.53906-.98047-.08985"/><path fill="#d3d3d3" fill-opacity="0" fill-rule="evenodd" d="M201.50781 416.59766h-.89453l.44922.6289.98047.35938.80469-.08985.4453-.98828-.17577.08985-.71485-.35547-.89453.35547m154.6211 59.0703l-.0586-.52343v-.29297l.11328-.29297.0586-.23046.46875-.46875h.11328l.11719-.11329.11718-.05859h.17579l.23437-.0586h.34766l.23437.0586.11719.0586.23047.17187.0586.17578.11718.58203v.29297l-.11719.17578-.17187.28906-.17579.17579-.52734.52343-.23047.23438-.11719.0586h-.17578l-.11718-.0586-.40625-.29297-.17579-.11719-.11718-.0586-.0586-.11327-.05468-.1172m6.64062-10.95702l-.0586-.17188v-1.10937l.0586-.17188.17578-.0586.17188-.05858h.17578l.23437-.0586.1172.0586.05858.69921-.05859.17188-.11719.17578-.11718.0586-.23438.52343-.11328.0586h-.23438l-.05859-.1172m9.61328-14.39062l-.11719-.17578v-.69922l.29297-.875.1172-.17187.17577-.35156.11328-.23047.1172-.29297.35155-.75781.1172-.23047.17187-.23438h.17578l.11719-.0586h.64062l.11719.0586.23437.23438.17188.11328.35156.29297.11719.11718.11328.17579v.11328l.11719.05859.11718.11719v.69922l-.05859.17578v.23047l-.0586.17578-.34765 1.05078-.11719.23047-.11719.23437-.11718.0586-.23047.23437-.64063.28906h-.875l-.41015-.11718-.64063-.46485"/><path fill="none" stroke="#bebebe" stroke-linecap="round" stroke-linejoin="round" stroke-miterlimit="10" stroke-width=".5" d="M467.95703 311.69531H144.02734v168.625h323.9297v-168.625"/><g clip-path="url(#a)"><path fill="#fff" fill-opacity="0" fill-rule="evenodd" d="M144 475.89063v4.4375h.0039H144v-33.64454 29.20704"/></g><g clip-path="url(#b)"><path fill="#fff" fill-opacity="0" fill-rule="evenodd" d="M144 440.38281v2.88281-131.59375h.0039H144v128.71094"/></g><path fill="#50fcfc" fill-rule="evenodd" d="M144 443.26563v3.41796l.0039-.0039v-3.41016l-.0039-.0039"/><g clip-path="url(#c)"><path fill="#fff" fill-opacity="0" fill-rule="evenodd" d="M144.0039 480.32813v-33.64844l1.32032-1.85938-1.32031-1.55078V311.67188h84.32422v108.78125l-4.4375 1.23046-1.45704.94532-2.98047 2.64062-4.4375-.07031-1.41406 1.8711-3.02734 2.15624-4.4375.5664-4.4375 1.63673-.10938.07812-.74609 4.4375-3.58203 1.14453-4.25781 3.29297-.1836.27344-4.4375.0664-.48437-.33984-3.95313-1.51562-4.4375-1.26563-2.1836-1.65625-2.2578-1.40625-4.4375.53125-1.10938.875-3.15234 4.4375-.17578.38672-.22657-.38672-4.21093-2.52344-2.40625 2.52344.71484 4.4375-.63672 4.4414-.79687 4.4375.58593 4.4375 2.53907 4.35548 3.45703.08203.98047.02734.09375-.02734 4.34375-.55469 4.4375-.01172 4.4414-2.27734 4.4375.15234 4.4375-1.625.28906-.1211 4.14844-.94921 4.4414-.55078 4.4375-.02344 4.4375-.94922 4.4375-1.89062.16017-.07422 4.28125-1.79297 2.26171-2.64453 2.17578-1.36328 2.72266-3.07813 1.71484-2.83594 4.37891-1.60156.0586-.03125.05468.03125 4.38281 3.44922v1.875l-1.96093 3.55469 1.11328 4.4375.84766.54687 4.4414.13672 4.4375.4336 1.66797-1.1172-1.66797-1.13671-4.4375.52344-2.39453-3.82422-2.04688-3.55469v-1.875l4.44141-1.07422 4.4375 1.35156 4.4375-.64062 2.77734-3.08594-2.77734-3.14844-2.32422-1.28906-2.11328-2.08594-4.4375-1.73437-2.35937-.61719-2.08203-2.65234-2.375-1.78516 2.375-2.6289 1.2539-1.8125-1.2539-1.34766-4.4375-.82813V311.67188h44.3828v115.875l-4.4375 1.07422-4.4375.71094-2.33984 2.17578-2.09765.75781-4.4414.9922-2.4375 2.6875 2.4375 2.17187 4.4414 1.33594 3.17578-3.50782 1.26172-2.8125 4.4375 1.22656 4.4375.69532v7.70312l-4.4375 1.20703-1.8125.85547-2.625 2.32031-2.8164 2.1211.55858 4.4375 2.25782 2.1211 4.4375.19921 4.4375-.10156 4.4414-1.1875.73438-1.03125 3.70312-2.91016 1.14844-1.52734 1.4375-4.4414-2.58594-1.44923-4.4375.12891-4.4414-.74219v-7.70312l4.4414.30078.25391.58984 4.1836 3.8086 4.4375.11718 4.4375-.64453 3.13671-3.28125-3.13672-3.33594-4.4375-.71875-.73828-.3828-3.69922-3.4297-4.4375-.18359-4.4414-.34765v-115.875h75.45312v121.72656l-2.47656 2.54687 2.47656 2.77735.73438 1.66015 3.70312 3.53125 4.2539-3.53125-4.2539-3.51953-1.95703-.91797-2.48047-2.54687V311.67188h26.6289v130.8828l-2.21483 2.26563-2.22266 2.71094-1.45703 1.73047-2.9414 4.4375-.03907.08203-3.48828 4.35547-.94922 3.15234-.42969 1.28516.42969.36719 4.4375.97265 4.4375-.33594 4.4375.41016 3.90625 3.02735.1211 4.4375.41406.51562 4.4375 1.22656 2.52343-1.74219 1.91406-.59375 3.34375-3.84375 1.09375-.96875 3.60547-3.47265-.10156-4.4375-3.5039-3.58594-4.4375-.01953-.71485-.83203-3.72265-3.9336-4.4375.33985-.39844-.84375-1.35938-4.4414-2.6836-2.26563V311.67188h93.20313v163.61718l-.55859.60156.5586.75391v3.6836H144.0039"/></g><path fill="#50fcfc" fill-rule="evenodd" d="M145.32422 444.82031l-1.32031 1.85938v-3.41016l1.3203 1.55078m13.89063 13.3164l-.58593-4.4375.79687-4.4375.63672-4.4414-.71484-4.4375 2.40625-2.52344 4.21093 2.52344.22657.38672.17578-.38672 3.15234-4.4375 1.10938-.875v16.72266l-2.28516 1.90625-2.15234 2.8711-1.45703 1.5664 1.45703.60547h4.4375l1.35156-.60547 2.30078-4.4375-3.65234-1.90625V435.0703l4.4375-.53125v10.09375l-2.67188.1875 2.67188.10156.11718-.10156-.11718-.1875v-10.09375l2.2578 1.40625 2.1836 1.65625v10.84766l-.9414.8125.9414 3.14453 2.20703-3.14453-2.20703-.8125v-10.84766l4.4375 1.26563 3.95313 1.51562.48437.33985 4.4375-.06641v7.53125l-3.10547 1.07422 3.10547 4.0039 2.53906-4.0039-2.53906-1.07422v-7.53125l.1836-.27344 4.2578-3.29297 3.58204-1.14453.7461-4.4375.10937-.07812 4.4375-1.63672 4.4375-.5664 3.02734-2.15626 1.41406-1.8711 4.4375.07032 2.98047-2.64062 1.45703-.94532 4.4375-1.23046 4.4375.82812 1.25391 1.34766-1.2539 1.8125-2.375 2.6289 2.375 1.78516v5.71094l-1.69141 1.3789 1.6914 1.4414 4.44141.33985 1.125 2.65625 3.3125 1.9375 4.40234-1.9375-4.40234-2.80078-3.1914-1.63672-1.2461-.7539-4.4414-.625v-5.71094l2.08203 2.65234 2.35937.61719 4.4375 1.73438 2.11328 2.08593 2.32422 1.28906 2.77734 3.14844-2.77734 3.08594-4.4375.64063-4.4375-1.35157-4.4414 1.07422-4.38282-3.44922-.05469-.03125-.05859.03125-4.3789 1.60156-1.71485 2.83594-2.72266 3.07813-2.17578 1.36328-2.26172 2.64453-4.28125 1.79297-.16015.07422-4.4375 1.89062-4.4375.94922-4.4375.02344-4.4414.55078-4.14845.94922-.28906.1211-4.4375 1.625-4.4375-.15235-4.4414 2.27734-4.4375.01172-4.34375.55469-.09375.02734-.98047-.02734-3.45703-.08203-2.53907-4.35547"/><path fill="#00e8fc" fill-rule="evenodd" d="M166.1914 458.74219l-1.45702-.60547 1.45703-1.5664 2.15234-2.8711 2.28516-1.90625 3.65234 1.90625-2.30078 4.4375-1.35156.60547h-4.4375"/><path fill="#fff" fill-opacity="0" fill-rule="evenodd" d="M175.0664 444.63281l-2.67187.1875 2.67188.10156.11718-.10156-.11718-.1875"/><path fill="#00e8fc" fill-rule="evenodd" d="M179.50781 452.40625l-.9414-3.14453.9414-.8125 2.20703.8125-2.20703 3.14453m13.3125.85938l-3.10547-4.00391 3.10547-1.07422 2.53906 1.07422-2.53906 4.0039"/><path fill="#50fcfc" fill-rule="evenodd" d="M231.91797 453.69922l-1.11328-4.4375 1.96094-3.55469 2.04687 3.55469 2.39453 3.82422 4.4375-.52344 1.66797 1.13672-1.66797 1.11719-4.4375-.4336-4.4414-.13672-.84766-.54687"/><path fill="#00e8fc" fill-rule="evenodd" d="M232.76563 437.38672l-1.69141-1.4414 1.6914-1.37891 4.44141.625 1.2461.7539 3.1914 1.63672 4.40234 2.80078-4.40234 1.9375-3.3125-1.9375-1.125-2.65625-4.4414-.33984"/><path fill="#50fcfc" fill-rule="evenodd" d="M254.95703 438.11719l-2.4375-2.17188 2.4375-2.6875 4.4414-.99219v2.40235l-2.12109 1.27734 2.1211 1.21485L260.5 435.9453l-1.10156-1.27734v-2.40235l2.09765-.7578 2.33985-2.17579 4.4375-.71094 4.4375-1.07421v2.17968l-2.97266 1.78125 2.97266 1.59375 4.4414-.55469 1.46875 3.39844 2.96875 2.69922 4.4375-.60547 4.4375-1.47656.58985-.61719-.58985-.6289-4.4375-1.53125-4.40625-2.27735-.03125-.03125-4.4375-.94531-4.4414-.80469v-2.17969l4.4414.34766 4.4375.1836 3.69922 3.42968.73828.38281 4.4375.71875 3.13672 3.33594-3.13672 3.28125-4.4375.64453-4.4375-.11718-4.18359-3.8086-.2539-.58984-4.44141-.30078-4.4375-.69531-4.4375-1.22657-1.26172 2.8125-3.17578 3.50781-4.4414-1.33593"/><path fill="#00e8fc" fill-rule="evenodd" d="M259.39844 437.16016l-2.1211-1.21485 2.1211-1.27734L260.5 435.9453l-1.10156 1.21485"/><path fill="#50fcfc" fill-rule="evenodd" d="M261.57813 453.69922l-.5586-4.4375 2.8164-2.1211 2.625-2.3203 1.8125-.85548 4.4375-1.20703 4.44141.74219 4.4375-.1289 2.58594 1.44921-1.4375 4.4414-1.14844 1.52735-3.70312 2.91016-.73438 1.03125-4.4414 1.1875-4.4375.10156-4.4375-.19922-2.25781-2.1211"/><path fill="#00e8fc" fill-rule="evenodd" d="M272.71094 433.10156l-2.97266-1.59375 2.97266-1.78125 4.4414.80469 4.4375.94531v3.0586l-.9375 1.41015.9375.85547 2.63672-.85547-2.63672-1.41015v-3.0586l.03125.03125 4.40625 2.27735 4.4375 1.53125.58985.6289-.58985.61719-4.4375 1.47656-4.4375.60547-2.96875-2.69922-1.46875-3.39844-4.4414.5547"/><path fill="#00d4fc" fill-rule="evenodd" d="M281.58984 436.80078l-.9375-.85547.9375-1.41015 2.63672 1.41015-2.63672.85547"/><path fill="#50fcfc" fill-rule="evenodd" d="M348.16406 438.72266l-2.47656-2.77735 2.47656-2.54687 2.48047 2.54687 1.95703.91797v1.45703l-2.17187 2.0625 2.17187 2.07422 2.4961-2.07422-2.4961-2.0625v-1.45703l4.2539 3.51953-4.2539 3.53125-3.70312-3.53125-.73438-1.66015"/><path fill="#00e8fc" fill-rule="evenodd" d="M352.60156 442.45703l-2.17187-2.07422 2.17187-2.0625 2.4961 2.0625-2.4961 2.07422"/><path fill="#50fcfc" fill-rule="evenodd" d="M361.48047 462.9414l-.42969-.36718.42969-1.28516.94922-3.15234 3.48828-4.35547.03906-.08203 2.9414-4.4375 1.45704-1.73047v5.34375l-.61719.82422.61719.88281 1.41015-.88281-1.41015-.82422v-5.34375l2.22265-2.71094 2.21485-2.26562v15.20312l-.66016.3789.66016.94532.39453-.94531-.39453-.3789v-15.20313l2.6836 2.26562 1.35937 4.4414.39844.84376 4.4375-.33985 3.72265 3.9336.71485.83203v3.75781l-4.4375.79688-3.125 3.48828 3.125 2.4375 4.4375 1.90234 4.4375-4.3125.02734-.02734-.02735-.10938-4.4375-4.17578v-3.75781l4.4375.01953 3.50391 3.58594.10156 4.4375-3.60546 3.47265-1.09375.96875-3.34375 3.84375-1.91407.59375-2.52344 1.7422-4.4375-1.22657-.41406-.51563-.1211-4.4375-3.90624-3.02734-4.4375-.41015-4.4375.33593-4.4375-.97265"/><path fill="#00e8fc" fill-rule="evenodd" d="M370.35547 454.58203l-.61719-.88281.61719-.82422 1.41015.82422-1.41015.88281"/><path fill="#fff" fill-opacity="0" fill-rule="evenodd" d="M374.79297 457.75781l-.66016.3789.66016.94532.39453-.94531-.39453-.3789"/><path fill="#00e8fc" fill-rule="evenodd" d="M383.67188 465.01172l-3.125-2.4375 3.125-3.48828 4.4375-.79688v1.15235l-3.9336 3.1328 3.9336 3.17188 3.25-3.17187-3.25-3.13281v-1.15235l4.4375 4.17578.02734.10938-.02735.02734-4.4375 4.3125-4.4375-1.90234"/><path fill="#00d4fc" fill-rule="evenodd" d="M388.10938 465.7461l-3.9336-3.17188 3.9336-3.13281v1.15234l-2.48829 1.98047 2.48829 2.00781 2.05468-2.00781-2.05469-1.98047v-1.15234l3.25 3.1328-3.25 3.17188"/><path fill="#00c4fc" fill-rule="evenodd" d="M388.10938 464.58203l-2.48829-2.00781 2.48829-1.98047v1.14844l-1.04297.83203 1.04296.84375.86329-.84375-.86329-.83203v-1.14844l2.0547 1.98047-2.0547 2.00781"/><path fill="#00b8fc" fill-rule="evenodd" d="M388.10938 463.41797l-1.04297-.84375 1.04296-.83203.86329.83203-.86329.84375"/><path fill="#50fcfc" fill-rule="evenodd" d="M467.9961 476.64453l-.5586-.7539.5586-.60157v1.35547m0-1.35547v1.35547l.0039.0039v-1.36327l-.0039.0039"/><g clip-path="url(#d)"><path fill="#fff" fill-opacity="0" fill-rule="evenodd" d="M467.9961 311.67188H468v163.61328-163.61329h-.0039"/></g><path fill="#fff" fill-opacity="0" fill-rule="evenodd" d="M225.01563 424.13672l.55468 5.8164 9.91406-.94921-.55468-5.81641-9.91406.94922"/><path fill-rule="evenodd" d="M233.4375 426.84766l.05078.5078-6.26953.59767-.07422-.78516 4.46875-.42578-.1289-1.38281.55078-.05079.11718.55079.07813.24609.11328.21875.16016.1875.22265.15625.3086.11328.40234.0664"/><g clip-path="url(#e)"><path fill="none" stroke="#000" stroke-linecap="round" stroke-linejoin="round" stroke-miterlimit="10" stroke-width=".5" d="M147.51172 480.3789l-7.02344-.10156"/></g><g clip-path="url(#f)"><path fill="none" stroke="#000" stroke-linecap="round" stroke-linejoin="round" stroke-miterlimit="10" stroke-width=".5" d="M146.49219 480.36328l.5586 1.09375"/></g><g clip-path="url(#g)"><path fill="none" stroke="#000" stroke-linecap="round" stroke-linejoin="round" stroke-miterlimit="10" stroke-width=".5" d="M160.76563 480.9961l-6.89844-1.33594"/></g><g clip-path="url(#h)"><path fill="none" stroke="#000" stroke-linecap="round" stroke-linejoin="round" stroke-miterlimit="10" stroke-width=".5" d="M159.76172 480.80078l.35937 1.17578"/></g><g clip-path="url(#i)"><path fill="none" stroke="#000" stroke-linecap="round" stroke-linejoin="round" stroke-miterlimit="10" stroke-width=".5" d="M174.11328 480.78906l-6.96484-.91797"/></g><g clip-path="url(#j)"><path fill="none" stroke="#000" stroke-linecap="round" stroke-linejoin="round" stroke-miterlimit="10" stroke-width=".5" d="M173.10156 480.65234l.42969 1.15235"/></g><g clip-path="url(#k)"><path fill="none" stroke="#000" stroke-linecap="round" stroke-linejoin="round" stroke-miterlimit="10" stroke-width=".5" d="M187.28906 481.40234l-6.6875-2.14843"/></g><g clip-path="url(#l)"><path fill="none" stroke="#000" stroke-linecap="round" stroke-linejoin="round" stroke-miterlimit="10" stroke-width=".5" d="M186.3164 481.08984l.21876 1.20703"/></g><g clip-path="url(#m)"><path fill="none" stroke="#000" stroke-linecap="round" stroke-linejoin="round" stroke-miterlimit="10" stroke-width=".5" d="M200.5625 481.53125l-6.60156-2.40625"/></g><g clip-path="url(#n)"><path fill="none" stroke="#000" stroke-linecap="round" stroke-linejoin="round" stroke-miterlimit="10" stroke-width=".5" d="M199.60156 481.1836l.16797 1.21484"/></g><g clip-path="url(#o)"><path fill="none" stroke="#000" stroke-linecap="round" stroke-linejoin="round" stroke-miterlimit="10" stroke-width=".5" d="M213.76563 481.80078l-6.37891-2.94531"/></g><g clip-path="url(#p)"><path fill="none" stroke="#000" stroke-linecap="round" stroke-linejoin="round" stroke-miterlimit="10" stroke-width=".5" d="M227.26953 481.28516l-6.76172-1.91407"/></g><g clip-path="url(#q)"><path fill="none" stroke="#000" stroke-linecap="round" stroke-linejoin="round" stroke-miterlimit="10" stroke-width=".5" d="M226.28906 481.00781l.25781 1.19922"/></g><g clip-path="url(#r)"><path fill="none" stroke="#000" stroke-linecap="round" stroke-linejoin="round" stroke-miterlimit="10" stroke-width=".5" d="M240.6875 480.80469l-6.96484-.95313"/></g><g clip-path="url(#s)"><path fill="none" stroke="#000" stroke-linecap="round" stroke-linejoin="round" stroke-miterlimit="10" stroke-width=".5" d="M239.67188 480.66406l.42578 1.15235"/></g><g clip-path="url(#t)"><path fill="none" stroke="#000" stroke-linecap="round" stroke-linejoin="round" stroke-miterlimit="10" stroke-width=".5" d="M254.03516 480.2539l-7.02735.14844"/></g><g clip-path="url(#u)"><path fill="none" stroke="#000" stroke-linecap="round" stroke-linejoin="round" stroke-miterlimit="10" stroke-width=".5" d="M253.01172 480.27734l.59766 1.07032"/></g><g clip-path="url(#v)"><path fill="none" stroke="#000" stroke-linecap="round" stroke-linejoin="round" stroke-miterlimit="10" stroke-width=".5" d="M267.22656 479.40234l-6.78125 1.85157"/></g><g clip-path="url(#w)"><path fill="none" stroke="#000" stroke-linecap="round" stroke-linejoin="round" stroke-miterlimit="10" stroke-width=".5" d="M266.23828 479.67188l.83985.89453"/></g><g clip-path="url(#x)"><path fill="none" stroke="#000" stroke-linecap="round" stroke-linejoin="round" stroke-miterlimit="10" stroke-width=".5" d="M280.23828 478.64844l-6.17578 3.35937"/></g><g clip-path="url(#y)"><path fill="none" stroke="#000" stroke-linecap="round" stroke-linejoin="round" stroke-miterlimit="10" stroke-width=".5" d="M279.33984 479.13672l1.02344.67969"/></g><g clip-path="url(#z)"><path fill="none" stroke="#000" stroke-linecap="round" stroke-linejoin="round" stroke-miterlimit="10" stroke-width=".5" d="M293.9336 479.76172L287 480.89453"/></g><g clip-path="url(#A)"><path fill="none" stroke="#000" stroke-linecap="round" stroke-linejoin="round" stroke-miterlimit="10" stroke-width=".5" d="M292.92578 479.92578l.74219.97656"/></g><g clip-path="url(#B)"><path fill="none" stroke="#000" stroke-linecap="round" stroke-linejoin="round" stroke-miterlimit="10" stroke-width=".5" d="M307.14063 479.29688l-6.71875 2.0625"/></g><g clip-path="url(#C)"><path fill="none" stroke="#000" stroke-linecap="round" stroke-linejoin="round" stroke-miterlimit="10" stroke-width=".5" d="M306.16406 479.59766l.86719.86718"/></g><g clip-path="url(#D)"><path fill="none" stroke="#000" stroke-linecap="round" stroke-linejoin="round" stroke-miterlimit="10" stroke-width=".5" d="M320.54688 480.98438l-6.90235-1.3125"/></g><g clip-path="url(#E)"><path fill="none" stroke="#000" stroke-linecap="round" stroke-linejoin="round" stroke-miterlimit="10" stroke-width=".5" d="M333.50781 481.98828l-6.19531-3.32031"/></g><g clip-path="url(#F)"><path fill="none" stroke="#000" stroke-linecap="round" stroke-linejoin="round" stroke-miterlimit="10" stroke-width=".5" d="M342.78906 483.71484l1.875-6.77343"/></g><g clip-path="url(#G)"><path fill="none" stroke="#000" stroke-linecap="round" stroke-linejoin="round" stroke-miterlimit="10" stroke-width=".5" d="M353.66016 481.28125l6.76171-1.90625"/></g><g clip-path="url(#H)"><path fill="none" stroke="#000" stroke-linecap="round" stroke-linejoin="round" stroke-miterlimit="10" stroke-width=".5" d="M354.64453 481.0039l-.84765-.88671"/></g><g clip-path="url(#I)"><path fill="none" stroke="#000" stroke-linecap="round" stroke-linejoin="round" stroke-miterlimit="10" stroke-width=".5" d="M366.89844 479.70703l6.91406 1.24219"/></g><g clip-path="url(#J)"><path fill="none" stroke="#000" stroke-linecap="round" stroke-linejoin="round" stroke-miterlimit="10" stroke-width=".5" d="M367.90234 479.89063l-.375-1.17188"/></g><g clip-path="url(#K)"><path fill="none" stroke="#000" stroke-linecap="round" stroke-linejoin="round" stroke-miterlimit="10" stroke-width=".5" d="M380.22656 479.64063l6.89063 1.3789"/></g><g clip-path="url(#L)"><path fill="none" stroke="#000" stroke-linecap="round" stroke-linejoin="round" stroke-miterlimit="10" stroke-width=".5" d="M381.22656 479.83984l-.35156-1.17578"/></g><g clip-path="url(#M)"><path fill="none" stroke="#000" stroke-linecap="round" stroke-linejoin="round" stroke-miterlimit="10" stroke-width=".5" d="M393.49219 479.96484l6.98828.72657"/></g><g clip-path="url(#N)"><path fill="none" stroke="#000" stroke-linecap="round" stroke-linejoin="round" stroke-miterlimit="10" stroke-width=".5" d="M393.49219 479.96484l-.92188-2.27343"/></g><g clip-path="url(#O)"><path fill="none" stroke="#000" stroke-linecap="round" stroke-linejoin="round" stroke-miterlimit="10" stroke-width=".5" d="M406.78906 480.22266l7.02344.21093"/></g><g clip-path="url(#P)"><path fill="none" stroke="#000" stroke-linecap="round" stroke-linejoin="round" stroke-miterlimit="10" stroke-width=".5" d="M406.78906 480.22266l-1.08594-2.19922"/></g><g clip-path="url(#Q)"><path fill="none" stroke="#000" stroke-linecap="round" stroke-linejoin="round" stroke-miterlimit="10" stroke-width=".5" d="M407.8125 480.2539l-.54297-1.09765"/></g><g clip-path="url(#R)"><path fill="none" stroke="#000" stroke-linecap="round" stroke-linejoin="round" stroke-miterlimit="10" stroke-width=".5" d="M420.13281 480.79297l6.96485-.92969"/></g><g clip-path="url(#S)"><path fill="none" stroke="#000" stroke-linecap="round" stroke-linejoin="round" stroke-miterlimit="10" stroke-width=".5" d="M420.13281 480.79297l-1.42578-1.9961"/></g><g clip-path="url(#T)"><path fill="none" stroke="#000" stroke-linecap="round" stroke-linejoin="round" stroke-miterlimit="10" stroke-width=".5" d="M421.14844 480.65625l-.71485-.9961"/></g><g clip-path="url(#U)"><path fill="none" stroke="#000" stroke-linecap="round" stroke-linejoin="round" stroke-miterlimit="10" stroke-width=".5" d="M433.64844 479.07813l6.5664 2.5"/></g><path fill="none" stroke="#000" stroke-linecap="round" stroke-linejoin="round" stroke-miterlimit="10" stroke-width=".5" d="M433.64844 479.07813l-.30469-2.4336"/><g clip-path="url(#V)"><path fill="none" stroke="#000" stroke-linecap="round" stroke-linejoin="round" stroke-miterlimit="10" stroke-width=".5" d="M446.95703 479.08984l6.57813 2.47657"/></g><path fill="none" stroke="#000" stroke-linecap="round" stroke-linejoin="round" stroke-miterlimit="10" stroke-width=".5" d="M446.95703 479.08984l-.3125-2.43359"/><g clip-path="url(#W)"><path fill="none" stroke="#000" stroke-linecap="round" stroke-linejoin="round" stroke-miterlimit="10" stroke-width=".5" d="M460.49219 478.61719l6.13672 3.42187"/></g><path fill="none" stroke="#000" stroke-linecap="round" stroke-linejoin="round" stroke-miterlimit="10" stroke-width=".5" d="M460.49219 478.61719l.05078-2.45313"/><g clip-path="url(#X)"><path fill="none" stroke="#000" stroke-linecap="round" stroke-linejoin="round" stroke-miterlimit="10" stroke-width=".5" d="M147.5039 466.7461l-7.0078.53515"/></g><path fill="none" stroke="#000" stroke-linecap="round" stroke-linejoin="round" stroke-miterlimit="10" stroke-width=".5" d="M146.48438 466.82422l.65625 1.03515m13.64453-1.39453l-6.94141 1.09766m5.9336-.9375l.73437.98047m13.08594-2.47266l-5.9336 3.76172m5.07031-3.21484l1.06641.60547m13.15234-1.08985l-6.01562 3.63672m5.14063-3.10547l1.05078.6289m13.29687-.86327l-6.33203 3.04297m5.41016-2.60157l.98828.72657m13.35937-.91797l-6.55078 2.54297m5.59766-2.17188l.92969.80078m13.30859-1.2461l-6.49219 2.69141m5.54688-2.30078l.9453.78125m13.28907-1.22656l-6.4414 2.80078m5.5039-2.39453l.96094.76172m13.26953-1.22266l-6.39453 2.91016m5.46484-2.48828l.97266.7461m12.78906-1.94532l-5.42969 4.46484m4.64063-3.8125l1.13281.46875m13.0039-1.08203l-5.49218 4.38672m4.6914-3.7461l1.125.48438m13.1172-.95312l-5.75 4.04297m4.91406-3.45313l1.09375.55469m12.99218-1.23438l-5.61718 4.22266m4.80078-3.60938l1.10937.51954m13.08594-1.04297l-5.7461 4.04297m4.91016-3.45704l1.09375.5547m12.1836-2.00782l-4 5.77734m3.41797-4.9375l1.21875.14453m11.61328-1.48437l-1.8672 6.77734m11.32423-5.33593l5.84765 3.89453m8.82813-5.09375l3.125 6.29297m-2.66797-5.37891l.71484-.9961m10.26954 3.96485l6.87109-1.47266m-5.8711 1.25782l-.78906-.9375m13.13672-.44922l6.8086 1.73047m-6.8086-1.73047l-.58594-2.38282m14.125 1.75391l6.35938 2.98828m-6.35938-2.98828L407 463.06641m15.03906.80859l3.15625 6.27734m-2.69922-5.36328l.71094-1.0039m13.35547-.26563l.73828 6.98828m-.73828-6.98828l2.03516-1.3711m10.66406 1.4922l1.97266 6.74609m-1.97266-6.7461l1.7539-1.71484m10.94922 1.95703l3.19532 6.26172m-2.73047-5.34766l.70312-1.0078"/><g clip-path="url(#Y)"><path fill="none" stroke="#000" stroke-linecap="round" stroke-linejoin="round" stroke-miterlimit="10" stroke-width=".5" d="M147.27734 454.96484l-6.55468-2.53125"/></g><path fill="none" stroke="#000" stroke-linecap="round" stroke-linejoin="round" stroke-miterlimit="10" stroke-width=".5" d="M146.32422 454.59766l.14844 1.21484m14.34765-1.89063l-7.01172-.44921m17.46094-3.23047l-1.28125 6.91015m11.89453-6.29687l4.125 5.6875m12.27344-2.84375l-.01953-.19922-.0586-.1914-.09375-.1797-.45703-.375-.1914-.05859-.19922-.01953-.19922.01953-.19531.0586-.45703.375-.09375.17968-.0586.19141-.01953.19922.01953.19922.0586.1914.09375.17578.45703.37891.19531.0586.19922.01953.19922-.01953.1914-.0586.45703-.3789.09375-.17579.0586-.1914.01953-.19922m15.46094-1.52344l-6.33203 3.04688m5.41015-2.60547l.98828.73047m12.60157-2.09766l-5.03907 4.89844m4.3047-4.1875l1.16796.375m13.0586-.89063l-5.39454 4.50781m4.60938-3.85156l1.13672.46094m13.01172-1.0586l-5.48829 4.38672m4.6875-3.74609l1.12891.48438m13.53125-.16407l-6.57813 2.46875m5.6211-2.10937l.91797.8125m13.10937-1.6914l-6.08984 3.5078m6.08984-3.5078l2.07813 1.30077m10.94531-1.73047l-5.50781 4.3672m5.50781-4.3672l2.25.98047m11.49219-.29297l-6.35938 2.9922m5.4336-2.5586l.98046.73828m13.4375-.71094l-6.71484 2.07031m5.73828-1.76953l.8711.8672m13.3789-1.29688l-6.6289 2.32812m5.66406-1.98828l.90234.82813m12.88672-2.09766l-5.64844 4.1836m4.82422-3.57423l1.10938.52735m11.3711-2.35938l-2.33204 6.6289m2.33203-6.6289l2.42578-.36719m9.5625.17188l.32031 7.01953m-.27343-5.9961l1.05468-.625m15.65235 1.85157l-6.5586 2.52344m5.60547-2.15625l.92578.80078m6.82422-1.26563l6.48047 2.71485m-5.53906-2.32032l-.10938-1.21875m16.7461 2.1836l-.01953-.19922-.0586-.1914-.09375-.1797-.46093-.375-.19141-.05859-.19922-.01953-.19922.01953-.1914.0586-.45704.375-.09765.17968-.0586.19141-.01953.19922.01953.19922.0586.1914.09765.17578.45704.37891.1914.0586.19922.01953.19922-.01954.1914-.05859.46094-.3789.09375-.17579.0586-.1914.01953-.19922m9.98437-2.65235l4.61328 5.30079m9.8125-5.95313l2.39454 6.60938m-2.04688-5.64844l.82422-.91016m13.72266-.23828l-.76563 6.98438m.76563-6.98438l2.27734-.91016m11.38281.96485l-1.45703 6.875m1.45703-6.875l2.35938-.67969"/><g clip-path="url(#Z)"><path fill="none" stroke="#000" stroke-linecap="round" stroke-linejoin="round" stroke-miterlimit="10" stroke-width=".5" d="M147.41406 439.55469l-6.82812 1.65625"/></g><path fill="none" stroke="#000" stroke-linecap="round" stroke-linejoin="round" stroke-miterlimit="10" stroke-width=".5" d="M146.42188 439.79688l.8125.91796m13.59375-.35547l-7.02735.04688m6.0039-.03906l.58595 1.07812m13.74218-.77344l-7.0039-.57812m5.98437.4961l.48438 1.125m6.90625-2.03516l6.8828 1.41015m10.53517-4.15625l-1.32422 6.89844m15.625-.34375l-3.29297-6.20703m11.55469 3.96484l6.8125-1.72656m7.45703-1.65234l4.90625 5.03125m10.73047-6.02735l.26171 7.02344m-.22656-6l1.0625-.61719m14.60938.41797l-4.52344 5.3789m3.86328-4.59765l1.19922.2539m12.67578-1.11718l-4.32422 5.53906m3.69531-4.73047l1.21094.21094m12.32422-1.29687l-3.5039 6.09375m2.99218-5.20703l1.22656.04297m12.75391-.83204l-3.8125 5.90235m3.8125-5.90235l2.44531.20703m12.02344 1.01954l-6.1211 3.4453m6.1211-3.4453l2.0664 1.32422m11.32422-1.1836l-6.27343 3.16406m6.27343-3.16406l2.00391 1.41797m10.77734-2.19531l-5.20312 4.72265m4.44531-4.03515l1.15625.41406m11.8125-1.91797l-2.9961 6.35547m2.5625-5.4336l1.22266-.05859M369.40625 437l1.90234 6.76562M369.40625 437l1.77344-1.69531m9.40234 3.40234l6.17578 3.35156m-5.27734-2.86328l.01172-1.22656m17.39843 5.36719l-3.80859-5.90625m11.73047 3.38281l6.97656-.85938m-5.96094.73438l-.70312-1.0039m19.1914-1.55079l-5.39843 4.5m4.61328-3.84375l1.13672.46485m11.97265-1.94141l-3.41796 6.14062m3.41796-6.14062l2.45313.04687m-2.94922.84766l1.22656.02344m11.83985-1.22656l-1.92969 6.7578m1.92969-6.7578l2.40234-.51172m-2.6836 1.4961l1.19923-.25782m13.22656-.36719l-3.58985 6.03906"/><g clip-path="url(#aa)"><path fill="none" stroke="#000" stroke-linecap="round" stroke-linejoin="round" stroke-miterlimit="10" stroke-width=".5" d="M465.35547 437.36328l2.45312.11719"/></g><g clip-path="url(#ab)"><path fill="none" stroke="#000" stroke-linecap="round" stroke-linejoin="round" stroke-miterlimit="10" stroke-width=".5" d="M146.41406 424.51563l-4.82812 5.10937"/></g><path fill="none" stroke="#000" stroke-linecap="round" stroke-linejoin="round" stroke-miterlimit="10" stroke-width=".5" d="M145.71094 425.25781l1.1836.32422m13.71483.26953l-6.58984 2.4336m5.63281-2.07813l.91407.8164m13.29687 1.41798l-6.46875-2.7461m5.52734 2.34766l.10938 1.22266m14.00781-.53125l-6.1875-3.33204m5.28516 2.84766l-.0039 1.22656m14.09374-.52343l-5.9336-3.76954m5.9336 3.76954l-.1914 2.4453m13.66406-5.9375l-6.2461 3.21485m5.33594-2.7461l1.00781.69923m11.12891-2.91797l-2.07031 6.71484m1.76953-5.73828l1.20313-.23047m14.04296.32031l-5.33203 4.58204m4.55469-3.91407l1.14453.44532m9.35156-2.21094l1.86328 6.77734m12.70704-6.88672l-.64844 6.9961m.55469-5.97657l1.1328-.47656m13.78517-.04297l-3.66797 5.9961m3.13672-5.1211l1.22265.07422m11.13281-1.44922l-.68359 6.9961m.58203-5.97657l1.13672-.46875m14.58984.64454l-5.30468 4.60937m4.53125-3.9414l1.14453.4414m10.85156-2.27344l-1.11719 6.9375m1.11719-6.9375l2.32031-.79297m11.94922 1.08985l-3.03125 6.33984m3.03125-6.33984l2.45313-.10547m12.17187 1.1836l-5.64844 4.18359m5.64844-4.1836l2.21485 1.05469m11.78125 1.27344l-7.01172-.47266m5.99218.40235l.5 1.12109m8.62891-4.36328l3.39844 6.15234m-2.90235-5.25781l.66797-1.02735m12.4336-.0039l2.83593 6.42578m-2.83593-6.42578l1.51562-1.92969m-1.10547 2.86328l.76172-.96484m16.2461.97656l-5.3711 4.53516m4.58985-3.875l1.13671.45703m12.66407-1.42188l-4.78125 5.14844m4.78125-5.14844l2.37109.62891m10.46094-1.00781l-3.8125 5.90234m3.8125-5.90234l2.44531.20703m-3 .65234l1.22266.10156m12.51562-1.04296l-3.55078 6.0664m3.55078-6.0664l2.44922.10156m9.64453-.53906l-1.10547 6.9414m1.10547-6.9414l2.32031-.79688m-2.48437 1.8086l1.16015-.39844m12.46485-.58594l-1.40235 6.88672m1.40235-6.88672l2.35547-.69531m-2.5586 1.69922l1.17579-.34766"/><g clip-path="url(#ac)"><path fill="none" stroke="#000" stroke-linecap="round" stroke-linejoin="round" stroke-miterlimit="10" stroke-width=".5" d="M146.85156 411.69922l-5.70312 4.10937"/></g><path fill="none" stroke="#000" stroke-linecap="round" stroke-linejoin="round" stroke-miterlimit="10" stroke-width=".5" d="M146.85156 411.69922l2.19922 1.08203m-3.03125-.48438l1.10156.54297m13.19532-.91406l-6 3.65625m6-3.65625l2.10937 1.25m11.71094.38281l-7.01563.39063m5.9961-.33594l.63672 1.05078m12.64062 1.60547l-4.89844-5.03516m4.1875 4.3047l-.375 1.16796m15.07813-1.35547l-6.2539-3.19922m5.34374 2.73438l.01953 1.22656m14.45703-3.33203l-6.7539 1.94531m15.84375 2.4375l1.69531-6.82031m-1.44922 5.82813l-1.1875.29687m13.53906.42969l3.12891-6.29297m-2.67187 5.3789l-1.22657.03516m18.76563-3.88672l-6.23438 3.24219m5.32813-2.76953l1.01172.69531m11.58594 3.63281l-2.98438-6.35937m2.55078 5.4336l-.73437.98046m14.01172-3.23437l-.01954-.19922-.05859-.1914-.09375-.1797-.45703-.375-.1914-.05859-.19923-.01953-.19922.01953-.1953.0586-.45704.375-.09375.17968-.0586.1914-.01952.19923.01953.19921.0586.19141.09374.17578.45703.3789.19532.0586.19921.01953.19922-.01953.1914-.0586.45704-.3789.09375-.17578.0586-.1914.01953-.19922m15.2539-1.89454l-5.91797 3.78907m5.05469-3.23828l1.07031.60156m8.32032 3.74219l3.65625-6m14.40625 1.04296l-5.83594 3.91407m4.98437-3.34375l1.08203.57812m11.57813-2.40625l-2.82813 6.42969m18.0625-4.32813l-6.66406 2.22266m5.69531-1.89844l.88672.84766m13.34375 1.20703l-6.5586-2.53125m19.67188-.42969l-6.15625 3.38672m5.26172-2.89062l1.02735.66797m11.96093-2.45313l-3.71093 5.96875m3.71093-5.96875l2.44922.16797m9.96485-.5664l-1.91016 6.76171m1.91016-6.76172l2.39843-.51953m-2.67578 1.5039l1.19922-.2578m13.10938-.4336l-3.34375 6.17969m3.34375-6.17969l2.45703.01953m-2.9414.87891l1.22655.00781m12.2422-1.0625L422.27343 417m2.6836-6.49219l2.4453-.23828m11.6211.66016l-4.1836 5.64843m4.1836-5.64843l2.42578.36328m10.58984-.5625l-3.58593 6.04687m3.58593-6.04687l2.44922.11719m-2.97265.76171l1.22656.0586m11.13281-1.41406l-.6289 7m.6289-7l2.26172-.95313m-2.35156 1.97266l1.1289-.47657"/><g clip-path="url(#ad)"><path fill="none" stroke="#000" stroke-linecap="round" stroke-linejoin="round" stroke-miterlimit="10" stroke-width=".5" d="M146.77344 398.28125l-5.54688 4.3164"/></g><path fill="none" stroke="#000" stroke-linecap="round" stroke-linejoin="round" stroke-miterlimit="10" stroke-width=".5" d="M146.77344 398.28125l2.23828 1.0039m-3.04688-.375l1.1211.5m12.92969-1.21874l-5.40235 4.49218m5.40234-4.49218l2.27344.92968m-3.0586-.27734l1.13673.46484m13.1289-.90625l-5.73047 4.07032m5.73047-4.07032l2.19141 1.10157m-3.02734-.50782l1.09765.55079m13.4414-.4336l-6.5078 2.64844m5.5625-2.26172l.9414.78516m13.41016 1.22656l-6.6914-2.14844m5.71874 1.83594l.21875 1.20703m7.45703-.67188l6.53125-2.58984m-5.58203 2.21094l-.9336-.79297m14.20704-2.72656l4.71875 5.20312m-4.03516-4.44531l.41797-1.15625m17.98438 2.16016l-6.82422 1.68359m5.83203-1.4414l.8164.91406m9.79298 3.1875l.57421-7.00391m-.49218 5.98438l-1.125.48437m17.26953-.6289l-5.25-4.67579m4.48437 3.99219l-.28906 1.19531m15.25781-2.89062l-7.02734.08203m6.0039-.07031l.58985 1.07812m13.69531-1.67187l-6.91797 1.24218m5.91016-1.0625l.75781.96485m13.22266-2.14453l-6.23438 3.24218m5.32813-2.76953l1.00781.69531m13.59375.77735l-6.9961-.64844m5.98047.55469l.47266 1.13281m13.86719-1.58203l-7.01172.4414m5.99219-.3789l.64062 1.04688m11.67578 2.29296l-2.97656-6.36718m2.54297 5.4414l-.73828.98047m11.6289-.0039l2.73829-6.46875m14.14843 5.97265l-4.40625-5.47265m3.76563 4.67578l-.48047 1.1289m14.92969-5.32031l-5.39453 4.5039m5.39453-4.5039l2.27343.92188m10.45313-1.48438l-4.21484 5.625m4.21484-5.625l2.42187.3789m11.41016.09766l-5.25 4.67188m5.25-4.67188l2.30078.85547m10.15625-1.55469l-3.53125 6.07422m3.53125-6.07422l2.45313.09375m-2.96875.78907l1.22656.04687m12.57031-.95312l-3.46484 6.11718m3.46484-6.11718l2.45313.0664m11.53515.42969L447.84375 403m4.8086-5.125l2.36718.64453m10.17969-1.1914l-3.27344 6.21875m3.27344-6.21875l2.45312-.00782"/><g clip-path="url(#ae)"><path fill="none" stroke="#000" stroke-linecap="round" stroke-linejoin="round" stroke-miterlimit="10" stroke-width=".5" d="M146.1875 384.375l-4.375 5.4961"/></g><path fill="none" stroke="#000" stroke-linecap="round" stroke-linejoin="round" stroke-miterlimit="10" stroke-width=".5" d="M146.1875 384.375l2.41406.44922m-3.05078.35156l1.20703.22266m12.91016-.88281l-4.70703 5.21484m4.70703-5.21485l2.38281.59375m-3.0664.16407l1.1914.29687m13.09766-.76172l-5.28516 4.62891m5.28516-4.6289l2.29297.86718m-3.0625-.19531l1.14843.4375m10.76953-2.27735l-.95312 6.96485m.95313-6.96485l2.30078-.84765m7.0625 4.85156l6.94922-1.04297m-5.9375.89063l-.73047-.98438m19.53906 2.39063l-6.0625-3.55078m5.17969 3.03515l-.05078 1.22656m14.08984-.46093l-5.74219-4.05078M240.69922 387.5l-6.98828-.7539m5.97265.64452l.45313 1.14063m13.8086-2.1875l-6.85157 1.5586m5.85547-1.33204l.80078.92969m13.59375-.19922l-7.01563-.35547m5.9961.30469l.51953 1.11328m13.39453.4375l-6.17578-3.35547m5.27734 2.86719l-.01172 1.22656m14.65235-2.41406h-7.02735m6.00391 0l.57422 1.08203m13.38672-2.66797l-6.27344 3.16797M306.00391 386l1.0039.70703m12.9375-1.64062l-5.69531 4.11328m4.86328-3.51563l1.10156.53906m13.37891-.5703l-6.36328 2.98046m5.4375-2.54687l.98047.73437m13.22265-1.23828l-6.29296 3.125m14.77343 1.51563l3.3789-6.16016m-2.88671 5.26562l-1.22656-.01562m18.97265-3.54297l-6.46875 2.7461m6.46875-2.7461l1.90625 1.54688m10.7422-2.57422l-5.13282 4.80078m5.13281-4.80078l2.32031.79687m10.64844-1.1211l-4.4414 5.44923m4.4414-5.44922l2.40625.47656m9.97266-1.02344l-2.5664 6.54297m2.5664-6.54297l2.4375-.28125m10.6836.21094l-2.1797 6.6836m2.1797-6.6836l2.41405-.42188m11.1172.5l-2.61329 6.52735m2.61328-6.52735l2.4375-.26171m10.16797.0625l-1.1914 6.92578m1.1914-6.92578l2.32813-.76954m11.71875.98047l-2.65625 6.50391m2.65625-6.5039l2.4414-.2461"/><g clip-path="url(#af)"><path fill="none" stroke="#000" stroke-linecap="round" stroke-linejoin="round" stroke-miterlimit="10" stroke-width=".5" d="M143.36328 370.35156l1.27344 6.91406"/></g><g clip-path="url(#ag)"><path fill="none" stroke="#000" stroke-linecap="round" stroke-linejoin="round" stroke-miterlimit="10" stroke-width=".5" d="M143.36328 370.35156l1.92188-1.52344"/></g><path fill="none" stroke="#000" stroke-linecap="round" stroke-linejoin="round" stroke-miterlimit="10" stroke-width=".5" d="M158.05078 370.3711l-1.47266 6.87109m1.47266-6.8711l2.35938-.67187m12.72265 1.64453l-5.0039 4.92969m5.0039-4.92969l2.33985.73438m8.37109-1.78125l.20313 7.02343m-.17579-6.0039l1.06641-.60547m13.01563-.34766l-1.38282 6.89063m1.38281-6.89063l2.34766-.70312m10.80469.67578l-1.0625 6.94531m.91016-5.9375l1.15625-.40234m13.14453-.3711l-2.72657 6.47656m2.33203-5.53515l1.21875-.10938m14.50391 1.4336l-6.7539 1.94531m5.76953-1.66016l.85547.87891m13.57812-.0625l-7.02344-.25781m19.78516-1.76953l-5.91406 3.79296m19.65234-2.85546l-6.75781 1.92187m19.15625-3.46484L288 376.3125m18.5625-4.65234L301 375.95703m18.92578-4.23047l-5.66015 4.16406m14.8203-5.33593l2.64844 6.50781m12.98047-6.625l-1.98046 6.74219m1.6953-5.76172l1.19923-.2461m14.16796.45704l-5.51171 4.35937m4.71093-3.72656l1.1211.4961m13.39453-.4922l-6.3125 3.08594m5.39453-2.63672l.99219.71875m11.79297-2.6953l-3.41407 6.14062m2.91797-5.25l1.22656.02343m11.6172-1.27734l-1.48048 6.86719m1.26563-5.8711l1.17969-.33203m14.04687.23828l-4.875 5.0625m4.875-5.0625l2.35938.67188m11.09375-.53125l-5.14844 4.78125m5.14844-4.78125l2.3164.80469m10.10938-1.4961l-3.3711 6.16406m3.3711-6.16406l2.45312.02735m10.53516-.1875l-2.71875 6.48046m2.71875-6.48046l2.44531-.22266m-2.83984 1.16797l1.22265-.11328m11.76563-1.04688l-1.27344 6.91016m1.27344-6.91016l2.33984-.73828"/><g clip-path="url(#ah)"><path fill="none" stroke="#000" stroke-linecap="round" stroke-linejoin="round" stroke-miterlimit="10" stroke-width=".5" d="M141.30469 358.23828l5.39062 4.50781"/></g><path fill="none" stroke="#000" stroke-linecap="round" stroke-linejoin="round" stroke-miterlimit="10" stroke-width=".5" d="M154.39453 358.53906l5.83984 3.91016m-5.83984-3.91016l.25-2.4414m13.48828 1.92187l4.99219 4.94531m8.58984-5.1875l4.46094 5.4297m-3.8125-4.64063l.47266-1.13282m11.92578.58985l4.9961 4.9375m-4.26954-4.21875l.35156-1.17578m12.92188-.08204l3.6289 6.01954m-3.10156-5.14454l.63281-1.05078m12.05079.23829l3.83593 5.89062m-3.27734-5.03125l.59375-1.07422m15.13281-.1914l-2.10547 6.70312m1.80078-5.72656l1.20313-.22656m14.66016 1.38671l-6.59375 2.4336m17.71875-4.55469l-2.21094 6.67188m1.89062-5.69922l1.20704-.20704m10.20703-.76171l2.23047 6.66406m-1.90625-5.6914l.84375-.89063m14.30078-.10547l-2.07422 6.71484m1.76953-5.73828l1.20703-.23047m14.42969.875l-6.10938 3.46875m5.21875-2.96484l1.03907.66015m9.65625-2.91406l.91015 6.96875m-.77734-5.95312l1-.71094m14.27734 6.28516l-3.28125-6.21094m2.80469 5.3086l-.6875 1.01562m13.6914-6.625l-1.70312 6.8164m17.54297-2.43359l-6.7539-1.94922m20.1914.65625l-7 .63672m5.98047-.54297l.67187 1.02344m13.17578-2.60938l-6.02343 3.6211m5.14453-3.09766l1.05469.63281m11.71093-2.48437l-3.16797 6.27344m2.70704-5.35938l1.22656-.02344m12.39844-.96093l-2.8672 6.41406m2.44923-5.48047l1.22656-.08203m12.66406-.77735l-3.17969 6.26563m2.71485-5.35547l1.22656-.02344m12.13281-1.0664l-2.33984 6.625m2-5.66016l1.21094-.1836m11.73047-.95312l-.91407 6.96875m.91407-6.96875L453 356.14844m12.17578 1.22265l-3.23047 6.2422m3.23047-6.2422l2.45313-.02734"/><g clip-path="url(#ai)"><path fill="none" stroke="#000" stroke-linecap="round" stroke-linejoin="round" stroke-miterlimit="10" stroke-width=".5" d="M140.90625 345.51172l6.1875 3.33203"/></g><path fill="none" stroke="#000" stroke-linecap="round" stroke-linejoin="round" stroke-miterlimit="10" stroke-width=".5" d="M153.9375 346.21484l6.75781 1.92579m-6.75781-1.92579l-.51563-2.39843m1.4961 2.67968l-.2539-1.19921m12.6328 2.99218l6.66797-2.22265m-6.66797 2.22265l-1.77734-1.6914m15.6875 2.78515l5.47656-4.41015m-4.67968 3.76953l-1.12891-.48438m12.88672-.74219l6.9961-.67578m-5.97657.57813l-.67969-1.02344m13.9961 3.27735l4.95312-4.98438m-4.23047 4.25781l-1.17578-.35547m12.73828-1.17968l7.01172-.46485m-5.98828.39844l-.64844-1.04297m19.32813-1.13281l-5.76172 4.02344m19.65625-2.6211l-6.92188 1.21485m5.91407-1.03907l.7578.96875m13.41407-1.72265l-6.61719 2.3711m18.52735-4.14063L275.25 350.1328m3.25-5.05078l1.22266.10547m12.77343-.875l-4.0625 5.73047m3.47266-4.89844l1.21875.15625m12.70703-.97656l-4.10156 5.70703m3.5039-4.875l1.21485.16406m13.97266.72266l-6.65235 2.27344m16.71094 2.375l-.14063-7.02735m.1211 6.0039l-1.07031.59767m16.34375-.20704l-4.01954-5.76171m18.83985 2.92968l-7.02735-.09765m6.00391.08593l.5625 1.08985m13.76953-.9414l-7.01562-.3711m5.99609.3164l.51953 1.11329m13.82031-1.2422h-7.02734m6.00781 0l.57422 1.08204m13.57422-2.21094l-6.65234 2.25781m5.68359-1.92968l.89453.83984m12.60156-2.46875l-5.07812 4.85547m4.33984-4.14844l1.16407.38281m11.2578-2.05468l-1.8125 6.78906m1.55079-5.80469l1.1914-.27344m11.91016-.80468l-.86328 6.97265m.73828-5.95703l1.14453-.4414m10.5664-.35157l2.59376 6.52735m-2.21484-5.57813l.79296-.9336m15.77735.625l-4.67188 5.2461m3.99219-4.48437l1.1914.29296"/><g clip-path="url(#aj)"><path fill="none" stroke="#000" stroke-linecap="round" stroke-linejoin="round" stroke-miterlimit="10" stroke-width=".5" d="M141.83594 331.09766l4.32812 5.53125"/></g><path fill="none" stroke="#000" stroke-linecap="round" stroke-linejoin="round" stroke-miterlimit="10" stroke-width=".5" d="M154.13281 332.3711l6.36328 2.98437m-6.36328-2.98438l-.1211-2.45312m13.78126 6.01953l5.67578-4.14844m-4.85156 3.54297l-1.10156-.53515m13.26953.60546l6.3164-3.07812m-5.39453 2.6289l-.99219-.71875m15.11328 2.83594l2.86329-6.41406m-2.44532 5.48047l-1.22656.08594m12.17578-1.39844l6.75781-1.92188m-5.77343 1.64063l-.85156-.88281m20.01953-.4297l-6.91407 1.26563m20.26953-.28125l-6.99218-.70312m5.97265.60156l.46485 1.13281m13.83984-.80859l-6.9336-1.15234m5.92188.98828l.39063 1.16015m13.96094-1.9453l-6.98438.75m19.67188-2.41017l-5.73047 4.07032m19.60547-2.82031l-6.84766 1.5703m20.0625-1.92577l-6.64844 2.28125m19.91406-2.41016l-6.55078 2.53906m5.59766-2.16797l.92969.80079m13.10156-1.66407l-6.07813 3.52344m5.19532-3.01172l1.04296.64844m10.28516 4.10937l-.33984-7.01562m.29297 5.9961l-1.0547.6289m14.34766.39453l-.19921-7.02344m.17187 6l-1.0664.60938m16.35546-.24219l-4.08984-5.71484m3.49219 4.88671l-.54688 1.09766m15.92578-3.08984l-7.02734-.07031m6.00781.05859l.5625 1.08984m13.69531-.38672l-6.875-1.45312m5.875 1.24219l.33985 1.17968m13.54687.1211l-6.01562-3.63281m5.14062 3.10546l-.0664 1.22266m14.27343-.72266l-6.04687-3.57812m19.85156 1.71875l-7.02734.14062m6.0039-.12109l.59766 1.07031m12.86719-3.33594l-5.28125 4.63282m4.51172-3.96094l1.14843.4336m12.73829-1.3125l-4.88672 5.04687m4.17578-4.3125l1.17969.33984"/><g clip-path="url(#ak)"><path fill="none" stroke="#000" stroke-linecap="round" stroke-linejoin="round" stroke-miterlimit="10" stroke-width=".5" d="M143.70703 317.04688l.58594 7.0039"/></g><g clip-path="url(#al)"><path fill="none" stroke="#000" stroke-linecap="round" stroke-linejoin="round" stroke-miterlimit="10" stroke-width=".5" d="M143.70703 317.04688l2.0625-1.32813"/></g><path fill="none" stroke="#000" stroke-linecap="round" stroke-linejoin="round" stroke-miterlimit="10" stroke-width=".5" d="M155.19531 317.7461l4.24219 5.60156m-3.625-4.78516l.51563-1.11328m11.91406.51953l4.77734 5.15625m7.9336-4.41797l5.98437 3.6836m9.21875 1.49218l2.21094-6.67187m12.64062 6.82422l-.86719-6.97266m.7422 5.95703l-1.00391.70703m16.92187-1.21094l-5.82031-3.9375m4.97266 3.3672l-.12891 1.21874m14.5-4.23047l-6.23828 3.23047m16.76953-5.11328l-.67188 6.9961m10.89844-5.6797l5.50781 4.35938m7.73829-4.27344l5.64453 4.1875m9.16015 1.16016l2.66407-6.5039m9.23437 5.4375l5.5-4.375m-4.69922 3.73828l-1.125-.48829m16.58203 2.44532l-.38672-7.01563m16.52344 1.70703l-6.03125 3.60547m5.15625-3.08203l1.04688.63281m13.29297-.8789l-6.33204 3.04687m5.41016-2.60156l.99219.72656m10.21484 3.86328l-.26953-7.02343m.23047 6.0039l-1.0586.61719m10.78126-3.4414l6.99609.66796m-5.98047-.57031l-.46875-1.13281m19.59766.25781l-6.66407 2.22266m5.69532-1.89844l.88672.84375m13.0078-1.97656l-5.88671 3.83593m5.03125-3.27734l1.07422.59375m12.90625-1.41406l-5.50781 4.36328M412.2539 319l1.125.49219m11.26953-2.30469l-2.0625 6.71875m1.76172-5.73828l1.20312-.23438m13.22266 5.60547l-3.6836-5.98437m3.6836 5.98437l-1.24219 2.11719m16.22656-4.95313l-7.01953-.3125m7.01953.3125l1.05469 2.21485m-2.07812-2.25781l.52734 1.10546m13.28125-3.07421l-5.96484 3.71484"/><g clip-path="url(#am)"><path fill="none" stroke="#000" stroke-linecap="round" stroke-linejoin="round" stroke-miterlimit="10" stroke-width=".5" d="M466.54297 318.6914l2.125 1.23048"/></g><g clip-path="url(#an)"><path fill="none" stroke="#000" stroke-linecap="round" stroke-linejoin="round" stroke-miterlimit="10" stroke-width=".5" d="M465.67578 319.23047l2.125 1.23047"/></g><path fill="#00f" fill-rule="evenodd" d="M383.80078 436.57813h8.61719v-10.14454h-8.61719v10.14454"/><path fill="azure" fill-rule="evenodd" d="M385.63281 428.26563h.83203v2.82421h3.28907v-2.82421h.83203v6.48046h-.83203v-2.91406h-3.28907v2.91406h-.83203v-6.48046"/><path fill="#ff3030" fill-rule="evenodd" d="M295.72656 409.94922h7.69531v-10.14453h-7.6953v10.14453"/><path fill="azure" fill-rule="evenodd" d="M297.5586 401.63672h.83593v5.73828h3.1914v.74219h-4.02734v-6.48047"/><path fill="#00f" fill-rule="evenodd" d="M370.48438 401.07422h8.62109v-10.14844h-8.6211v10.14844"/><path fill="azure" fill-rule="evenodd" d="M372.3164 392.76172h.83594v2.82031h3.28516v-2.82031h.83203v6.47656h-.83203v-2.91406h-3.28516v2.91406h-.83593v-6.47656"/><path fill="#ff3030" fill-rule="evenodd" d="M193.64453 378.88281h7.69531v-10.14844h-7.6953v10.14844"/><path fill="azure" fill-rule="evenodd" d="M195.47656 370.5664h.83594v5.7422h3.1914v.73827h-4.02734v-6.48046"/><path fill="#ffffe0" fill-rule="evenodd" d="M332.86719 348.91406h22.17969v-10.1914h-22.1797v10.1914"/><path fill-rule="evenodd" d="M336.36719 340.55469h.50781v6.29297h-.78516v-4.48829h-1.39062v-.55468l.5625-.0664.25-.0547.23047-.08984.20312-.14063.17578-.20703.14063-.29687.10547-.39453m4.8125 0l.23047.01953.21875.05469.20703.08984.19531.1211.1875.14843.16797.17578.30469.42188.24218.49219.1797.54687.11327.57813.03516.58984-.03516.59375-.11328.58594-.17969.55468-.24218.5-.3047.4297-.16796.17968-.1875.15234-.19531.125-.20703.08985-.21875.05859-.23047.01953-.23047-.01953-.21875-.0586-.20703-.08984-.19531-.125-.1836-.15234-.17187-.17969-.30079-.42969-.24609-.5-.17969-.55468-.10937-.58594-.03906-.59375h.83203l.03125.5664.08203.50391.125.4414.16015.375.19141.30079.21094.22265.22265.13672.22657.04688.22656-.04688.22266-.13671.21093-.22266.19141-.30078.16016-.375.1289-.4414.08203-.50392.02735-.5664-.02735-.5586-.08203-.5-.1289-.4375-.16016-.36718-.1914-.28906-.21094-.21485-.22266-.13281-.22656-.04297-.22656.04297-.22266.13281-.21094.21485-.1914.28906-.16016.36719-.125.4375-.08203.5-.03125.55859h-.83203l.03906-.58985.10937-.57812.1797-.54688.24608-.49218.30079-.42188.17187-.17578.1836-.14844.1953-.12109.20704-.08984.21875-.0547.23047-.01952m5.09375 0h.50781v6.29297h-.78906v-4.48829h-1.38672v-.55468l.5586-.0664.2539-.0547.23047-.08984.20312-.14063.17188-.20703.14062-.29687.10938-.39453m2.82031 2.17578h.78906l.01953-.3164.0586-.28516.09765-.25391.14063-.21484.1836-.17579.22265-.1289.26562-.07813.3086-.02734.23437.01953.22656.0625.20313.10156.17969.14063.14844.17187.11328.20704.0703.23437.02735.26563-.02344.26953-.0664.22265-.10938.1914-.15625.17188-.19921.16407-.2461.16406-.63672.39062-.53515.3125-.4375.31641-.34766.32422-.26172.33594-.1914.35156-.125.36719-.07032.39453-.01953.41797h4.21094v-.73829h-3.33203l.08203-.28515.11328-.23828.14844-.19922.1875-.17969.23047-.17187.28125-.17579.71484-.41796.41797-.20313.34375-.23047.28125-.2539.21875-.26563.16406-.27734.10938-.28516.0664-.28515.01953-.28125-.04296-.38282-.1211-.34765-.1875-.3086-.25-.26172-.30078-.21484-.34766-.15625-.3789-.09766-.40625-.03515-.4375.03125-.39844.10156-.35547.16406-.30469.23438-.24609.30469-.1875.375-.11328.4453-.04297.51954"/><path fill="#ffffe0" fill-rule="evenodd" d="M204.15625 337.47266h22.17969v-10.19141h-22.17969v10.1914"/><path fill-rule="evenodd" d="M207.65234 329.11328h.51172v6.29688h-.78906v-4.4922h-1.38672v-.55468l.5586-.0664.2539-.05079.23047-.08984.20313-.14453.17187-.20703.14063-.29688.10546-.39453m4.81641 0l.23047.01953.21875.05469.20703.08984.19531.1211.1836.14844.17187.17578.30078.42187.2461.49219.17968.54687.10938.57813.03906.59375-.03906.58984-.10938.58594-.17968.55469-.2461.5-.30078.42969-.17187.17968-.1836.15235-.19531.125-.20703.08984-.21875.0586-.23047.01952-.23047-.01953-.21875-.05859-.20703-.08984-.19531-.125-.1875-.15235-.16797-.17969-.30469-.42968-.24219-.5-.17968-.55469-.11328-.58594-.03516-.58984h.83203l.02734.5625.08203.5039.125.44141.16407.375.1914.30078.21094.22266.22266.13672.22656.04687.22656-.04687.22266-.13672.21094-.22266.1914-.30078.16016-.375.125-.4414.08203-.50391.03125-.5625-.03125-.5625-.08203-.5-.125-.4375-.16016-.36328-.1914-.29297-.21094-.21485-.22266-.1328-.22656-.04298-.22656.04297-.22266.13281-.21094.21485-.1914.29297-.16406.36328-.125.4375-.08204.5-.02734.5625h-.83203l.03516-.59375.11328-.57813.17968-.54687.2422-.49219.30468-.42187.16797-.17579.1875-.14843.19531-.1211.20703-.08984.21875-.05469.23047-.01953m5.08984 0h.51172v6.29688h-.78906v-4.4922h-1.38672v-.55468l.5586-.0664.2539-.05079.22656-.08984.20313-.14453.17578-.20703.14063-.29688.10546-.39453m2.82422 2.17578h.78516l.01953-.3164.0625-.28516.09766-.2539.14062-.21485.17969-.17578.22266-.1289.26562-.07813.3086-.02735.23827.01954.22266.0625.20703.10156.17578.14062.15235.17188.10937.20703.07422.23437.02344.26563-.01953.26953-.0664.22266-.10938.1914-.15625.17188-.19922.16406-.25.16406-.63281.39063-.53907.3125-.4375.3164-.34375.32422-.26562.33594-.1914.35156-.125.3711-.06642.39062-.02343.42188h4.21484v-.7422H221.125l.08203-.28515.11328-.23437.14844-.20313.1875-.17969.23047-.17187.27734-.17578.71875-.41797.41406-.20313.34766-.23046.27734-.25391.22266-.26563.16406-.27734.10938-.28515.0625-.28516.02344-.28125-.04297-.38281-.1211-.34766-.1875-.3086-.25-.26171-.30468-.21485-.34375-.15625-.38282-.09765-.40625-.03516-.43359.03125-.39844.10156-.35547.16407-.30468.23437-.25.30469-.1836.375-.11719.44531-.03906.51953"/><path fill="#ffffe0" fill-rule="evenodd" d="M146.92969 450.125h22.17969v-10.1914h-22.1797v10.1914"/><path fill-rule="evenodd" d="M150.42969 441.76563h.50781v6.29687h-.78516v-4.49219h-1.39062v-.55469l.5625-.0625.25-.05468.23047-.08985.20312-.14062.17578-.21094.14063-.29297.10547-.39844m4.8125 0l.23047.01954.21875.05468.20703.08985.19922.1211.18359.15233.17188.17579.30078.41796.24218.4922.1797.54687.11327.57812.03906.59375-.03906.59375-.11328.58203-.17969.5547-.24218.5039-.30078.42578-.17188.17969-.1836.15234-.19921.125-.20703.08984-.21875.0586-.23047.01953-.22656-.01953-.21875-.0586-.21094-.08984-.19531-.125-.1836-.15234-.17187-.1797-.30078-.42577-.2461-.5039-.17969-.5547-.10937-.58203-.03906-.59375h.83203l.03125.5625.08203.5039.125.44532.16406.375.1875.30078.21094.21875.22266.13672.22656.04688.22656-.04688.22266-.13672.21093-.21875.19141-.30078.16406-.375.125-.44531.08203-.5039.02735-.5625-.02735-.5625-.08203-.5-.125-.4336-.16406-.36719-.1914-.29297-.21094-.21484-.22266-.1289-.22656-.04688-.22656.04687-.22266.1289-.21094.21485-.1875.29297-.16406.36719-.125.4336-.08203.5-.03125.5625h-.83203l.03906-.59376.10937-.57812.1797-.54688.24608-.49219.30079-.41796.17187-.17579.1836-.15234.1953-.1211.21095-.08984.21875-.05468.22656-.01954m5.09375 0h.50781v6.29688h-.78516v-4.49219h-1.39062v-.55469l.5586-.0625.2539-.05468.23047-.08985.20312-.14062.17188-.21094.14453-.29297.10547-.39844m2.82422 2.17579h.78515l.01953-.31641.0586-.28516.10156-.2539.13672-.21485.1836-.17187.22265-.1289.26562-.08204.3086-.02734.23828.02344.22266.0625.20312.10156.17969.13672.14844.17187.11328.20703.0703.23828.02735.26172-.02344.26953-.0664.22266-.10938.19531-.15625.16797-.19922.16406-.24609.16407-.63672.39062-.53515.3125-.4375.3164-.34766.32423-.26172.33593-.1914.35157-.125.37109-.07032.39063-.01953.42187h4.21094v-.74219h-3.33203l.08203-.28125.11328-.23828.14844-.20312.1875-.1797.23047-.17187.28125-.17578.71484-.41406.41797-.20703.34375-.23047.28125-.25.21875-.26953.16406-.27735.11328-.28515.0625-.28516.01953-.28125-.04297-.38281-.11718-.34766-.1914-.30468-.25-.26563-.30079-.21094-.34766-.16015-.3789-.09766-.40625-.03515-.4375.03515-.39844.09766-.35156.16797-.30469.23437-.25.30078-.1836.375-.11718.44531-.03906.51954"/></g></defs><use xlink:href="#ao"/></svg>