<svg xmlns="http://www.w3.org/2000/svg" role="img" xmlns:xlink="http://www.w3.org/1999/xlink" viewBox="142.45 309.95 326.84 171.84"><defs><clipPath id="a"><path d="M144 311.67188h1v168.65625h-1zm0 0"/></clipPath><clipPath id="b"><path d="M144 311.67188h324v168.65625H144zm0 0"/></clipPath><clipPath id="c"><path d="M467 311.67188h1v168.65625h-1zm0 0"/></clipPath><clipPath id="d"><path d="M144 479h4v1.32813h-4zm0 0"/></clipPath><clipPath id="e"><path d="M147 479h3v1.32813h-3zm0 0"/></clipPath><clipPath id="f"><path d="M153 479h8v1.32813h-8zm0 0"/></clipPath><clipPath id="g"><path d="M160 479h3v1.32813h-3zm0 0"/></clipPath><clipPath id="h"><path d="M167 478h8v2.32813h-8zm0 0"/></clipPath><clipPath id="i"><path d="M173 478h3v2.32813h-3zm0 0"/></clipPath><clipPath id="j"><path d="M180 478h8v2.32813h-8zm0 0"/></clipPath><clipPath id="k"><path d="M186 478h4v2.32813h-4zm0 0"/></clipPath><clipPath id="l"><path d="M193 478h8v2.32813h-8zm0 0"/></clipPath><clipPath id="m"><path d="M200 478h3v2.32813h-3zm0 0"/></clipPath><clipPath id="n"><path d="M207 478h8v2.32813h-8zm0 0"/></clipPath><clipPath id="o"><path d="M213 478h3v2.32813h-3zm0 0"/></clipPath><clipPath id="p"><path d="M220 478h8v2.32813h-8zm0 0"/></clipPath><clipPath id="q"><path d="M226 478h4v2.32813h-4zm0 0"/></clipPath><clipPath id="r"><path d="M233 478h8v2.32813h-8zm0 0"/></clipPath><clipPath id="s"><path d="M240 478h3v2.32813h-3zm0 0"/></clipPath><clipPath id="t"><path d="M246 479h9v1.32813h-9zm0 0"/></clipPath><clipPath id="u"><path d="M253 479h3v1.32813h-3zm0 0"/></clipPath><clipPath id="v"><path d="M260 479h8v1.32813h-8zm0 0"/></clipPath><clipPath id="w"><path d="M266 479h4v1.32813h-4zm0 0"/></clipPath><clipPath id="x"><path d="M273 478h8v2.32813h-8zm0 0"/></clipPath><clipPath id="y"><path d="M287 477h7v3.32813h-7zm0 0"/></clipPath><clipPath id="z"><path d="M301 477h6v3.32813h-6zm0 0"/></clipPath><clipPath id="A"><path d="M314 477h6v3.32813h-6zm0 0"/></clipPath><clipPath id="B"><path d="M329 479h3v1.32813h-3zm0 0"/></clipPath><clipPath id="C"><path d="M340 479h8v1.32813h-8zm0 0"/></clipPath><clipPath id="D"><path d="M354 477h6v3.32813h-6zm0 0"/></clipPath><clipPath id="E"><path d="M367 477h6v3.32813h-6zm0 0"/></clipPath><clipPath id="F"><path d="M381 477h6v3.32813h-6zm0 0"/></clipPath><clipPath id="G"><path d="M394 477h6v3.32813h-6zm0 0"/></clipPath><clipPath id="H"><path d="M408 477h5v3.32813h-5zm0 0"/></clipPath><clipPath id="I"><path d="M421 476h5v4.32813h-5zm0 0"/></clipPath><clipPath id="J"><path d="M433 478h8v2.32813h-8zm0 0"/></clipPath><clipPath id="K"><path d="M447 477h6v3.32813h-6zm0 0"/></clipPath><clipPath id="L"><path d="M461 476h5v4.32813h-5zm0 0"/></clipPath><clipPath id="M"><path d="M144 465h4v4h-4zm0 0"/></clipPath><clipPath id="N"><path d="M144 452h4v4h-4zm0 0"/></clipPath><clipPath id="O"><path d="M144 439h4v3h-4zm0 0"/></clipPath><clipPath id="P"><path d="M144 425h4v4h-4zm0 0"/></clipPath><clipPath id="Q"><path d="M144 411h4v5h-4zm0 0"/></clipPath><clipPath id="R"><path d="M144 398h4v5h-4zm0 0"/></clipPath><clipPath id="S"><path d="M465 397h3v2h-3zm0 0"/></clipPath><clipPath id="T"><path d="M144 385h4v4h-4zm0 0"/></clipPath><clipPath id="U"><path d="M144 371h3v6h-3zm0 0"/></clipPath><clipPath id="V"><path d="M144 357h3v7h-3zm0 0"/></clipPath><clipPath id="W"><path d="M144 343h1v8h-1zm0 0"/></clipPath><clipPath id="X"><path d="M144 330h3v8h-3zm0 0"/></clipPath><clipPath id="Y"><path d="M144 317h3v7h-3zm0 0"/></clipPath><g id="Z" clip-path="url(#clip1)"><path fill="#fff" fill-opacity="0" fill-rule="evenodd" d="M0 0h1000v1000H0zm0 0"/><path fill="#d3d3d3" fill-opacity="0" fill-rule="evenodd" d="M162.15234 355.86719l-.23437.29297.0586.23437.11718.17188.17578.23437.29297.34766.11328.0586.11719-.17188.0586-.23438.17577-.17578.46485-.17578h.69922l.23437.29297.28906.8164.0586.17579.17578.23046.35156.23438.69922.69922.17188.17578.23437.34765.23438.41016.28906.58203.41015.46485.23047.23437.23438.17578.11719.23047.17578.29297.17187 1.16406v.23438l.0586.28906.05859.11719.11719.11719.34765.41015.11719.17188.17578.17578.17578.23437.11719.17188.17188.35156.05859.23438.23437.40625.23438-.0586-.17578.17578-.0586.92969h-.58203l-.23437-.11328-.34766.11328-.11719.11719-.05859.29297-.0586.17578-.11718.17187-.46484.29297-.0586.23438-.0586.11328v.64453l.0586.17187v.41016l.0586.0586v.40624l.05859.40625.11719.17579.05859.05859.23047.64062-.0586.29297v.69922l-.05859.58203v.23438l-.0586.23047-.05468.35156v1.92187l.05469.1172h.42578l-.36719.11718-.02344.35156.89063 1.16797 1.74219.53906 1.33984.35938v.53906l.08984.8086.53516.71484 1.51953.26953.89063-.08594.08984 1.16406.53516.1797 1.16015-.1797 2.05469-.98437 1.16016-.36328 1.8789-.17578 1.69531-.1797-.17968.71876-1.51563.08594-1.25.08984-.80469.26953-1.07421.8086.26953.71875.53515.89843-.17968.625-.26563.8086.26563 1.07812.625.89844.80468.17969 1.25-.1797-.26562.72267.09766.5039.05468.29297v.17188l.0586.29296v.40625l.17578.1172.35156.11718h.40625l.29297-.17578.11328-.11719.0586-.11719.11718-.23047.0586-.17578.35156-.46484.23047-.17578.17578-.0586.17578.0586.0586.17578.11718.98828.05469.46875.0586.17188.11718.23437.17578.0586.8164.05859h.28907l.11719.23437.05859.40625.0586.35156v1.10547l.11718.29297.11719.34766.28906.69922.17578.35156.58203.7539.35157.17579.17187.0586.46875.23437.64063.46484.34765.23438.29297.17578.29297.05468.23047.0625.8164.34766.29297.17578.11328.17188.35157.35156.11719.17578.52343.64063v.28906l.0586.35156v.34766l.05859.35156.0586.28906.11718.0586.17188.05859h.17578l.58203.23437.17578.1172.17578.28905.17578.23438.11328.23437.29297.23047.11719.11719v.41016l.0586.05468.28906.23438.23437.11719.0586.11718.11718.17188.0586.11719.23047.23437.05859.17578.23437.0586.1172.05859-.1172.11328-.05859.11719v.11719l-.11719.29296-.11719.28907v.58203l.17579.11719.11718.05859.0586.11719.11719.11719.11328.05859.17578.34765.0586.35157.05858.40625v.17578l-.05859.17578-.11719.69922v.17187l.1172.17579.29296.29296h.40625l.17578.1172.11719.17187.11719.29296v.23438h-.52735l-.23047-.23438h-.23437l-.17578.0586-.0586.69922.0586.34765.11719.17579.17578.41015.11718.23047.28907.46875.17578.05469h.52344l.23437.0586.75781.64062.0586.29296v.23438l.05859.0586.23047.34765v.35156l-.11719.17188v.29297l.29297.28906.29297.17578.17187.0586.29297.17577.29297.1172.58203.40624.28906.23438.29297.17578.21875.16015.01563.01172.23047.17579.64062.52343.17578.23438.1172.17578.17577.17578.11328.17188v.64062l.1172.17578.46874.11719.58203.11719.23438.05859.23047.11328.29297.11719.11328.0586.58593.35156.28907.17187.17578.0625.17578.05469.17578.0586.69922.35155.28906.17579.23438.05468.28906.17578.23437.1172.64063.40624.29297.11719.17187.0586.23438.05859.41015.05859.23047.0586.23438.11718.0586.17188-.41017.17578.46875.0586.0586.29296.11328.23438.17578.05468.23438.0586.17578.05859.40625.11719.64062.23437.11719.17188.0586.23437v.17578l-.0586.1172-.0586.40624.23438.23438.11719.05859.34766.11719.64062.23047.17578.11718.28906.1172.17578.17577.23438.46485.58203 1.10546.17578.17579.34766.17578.17578.11719.35156.11718 1.04688.52344.23437.0586.46485.11327.29297.0586.46484.17578.75781.58203.23438.23438.34765.46484.17578.17578.28907.23438.8164.69921.29297.17579.28906.28906.29297.17578.29297.28906.69531.64063.17578.17578.29297.23437.28907.23438.46875.28906.64062.58203.34766.23438.23437.29297.34766.34765.35156.46485.9336.99218.34765.40625.11719.17579.23437.05859.11328.11719.64454.17578.23047.11328.23437.0586.29297.17577.23047.1172.9336.69921.40624.40625.23438.17578.40625.17578.23437.11719.8164.34766.34766.23437.23438.11719.29297.28906.23047.11719.7578.35156.35157.17188.23047.05859.29297.11719.23437.0586.8711.17577h.8164l.46875.23047.17188.0586.875.69921.46484.1172.29297.05858.17578.0586.23047.0586.46875.05859.34766.05859.35156.0586.40625.05859h.29297l.17187.0586v.23046l.17578.17578h.29297l.34766.0586.35156.05859.69922.11719h.64063l.46484-.23438.29297-.17578.17187-.11719.41016-.17187.28906-.17578.9336-.46485.46875-.29297.52343-.29296.46485-.17188.46484-.17578 1.05078-.46485.28906-.11718.41016-.11719.28906-.11719.52735-.17578 1.51562-.69922.58203-.34765.28907-.0586.29297-.0586.34765-.11718.875-.23047.35156-.11719h.11329l.23437-.05859.875-.23437.23438-.0586h.8125l.35156-.0586.8164-.11718.17188-.0586.35156-.05468.29297-.0586.23047-.05859.8164-.17578.17579-.0586h.34765l.23438-.05859.46484-.11718.75781-.17188.23438-.0586h.34765l.41016-.11718.28906-.0586 1.28516-.05859h.28906l.41016-.0586.23047-.05858h.17578l.875-.1172h.40625l.41015-.11718h.34766l.35156-.11328.8711-.0586h1.75l1.04687.28907.41016.11719.28906.11718.35156.11719.28907.11719 1.05078.17187.28906.0586h.29297l.29297.05859.17187.0586.41016.05859.17187.0586.1172.05858h.11718l.11719.0586.35156.0586h.11328l.41016.0664 1.92187.39453 1.92578.39453 1.51953.44922 1.69532.71875 2.14453.80469 1.60547-.71875 1.42968-.80469 1.16016-1.07813 1.25-.44921 3.03516-.71875 1.875-.35938 2.14453-1.34765 2.23437-1.25391 2.5-1.25781 1.69531-.44922 1.78516-.17969 1.16016-.26953.625.53906 1.33984-.26953.71485-.98828.98437-1.34375.44531-.17969.80469-.35937 1.875-.53907 1.78516-.44921 1.25-.26954 1.16015-.08984 1.69922-.08984 1.96094-.26954 1.25-.08984h.53906l.625-.08984h.89063l2.14453-.17969 2.41015-.17969 2.58985-.08984 1.69531.17969 1.60938.08984 1.42968.35938 1.16016.71875 1.875.98828 1.16015 1.52734.26563.71484.6289.08985.35548.89844.53515.53906.53516 1.52734 1.07422.35938h.53515l-.80469.53515.08985 1.70703.71484 2.69532.89063.80468.89453.98829.71484 1.2578 1.78516.53907 1.51953-.17969.35547 1.34375 1.60937-.80469.98047-.53906.26953.26953.31641-.21484.21875-.14453.80078.44922.44922-.35938h.35547l.53515-.26953.53907-.71875.53515-.26953.625-.98828 1.16016.44922.83984.3711 1.39454.61718 1.6953-.17969h1.60548l1.78515.08985.17969-1.70704.53516-1.34375.80468.26954.4922.84765.40233.40625-.08984.53906v.35938l.71485.44922.71093-.26953h1.42969l.35938.98828.4453 1.25781.71485 1.34375 1.25.6289 1.69531.62891.71485-.17969.17969-.53906.98046-.08984.44922.35937.08594 1.25782-.26563.6289-.53515.17969v.53906l.71484.98438.26563.53906.98437.98828.80078 1.07813-.26562.35937-.08985.89844-.625 2.33203-.35546 2.0664-.08985 1.79298-.17969.71875-.08984.53906v1.4375l-.98047 1.88281-.35937 1.70703-.53516.89844-.80469 1.16797-.26562.53906 2.05469 1.2539.08593.35938-.35546.53906-.08985-.17968v.80859l.08985 1.4375-.44532.71484-1.07422.09375-.26562.71485.53515.89844.8047.71875 1.16015.80859 1.33984.26953.44531.35938-.35546.44921-1.78907-.08984-1.25-.44922-.71484-.71875-.625-.08984-.17578 3.58984-.1875 1.3086h89.35937V311.70313h-55.26953v49.08203l.76172.125 3.28906.54296 2.02344 2.83594v2.7539l2.35156.33204 2.34766.33203h4.05078l-1.3789 4.16016-2.02344.70703-2.02344.70312-.54297.34375-2.59375 1.6172-.1875.11718-2.02344-2.07813-.73046-2.74218-2.67188-2.07813-1.375-3.5-.0664-.08203-1.95704-2.67188 2.75-1.41796v-49.08204H294.42187v91.41407l.1172.03125.1328.01172.07422.07421.10547.04688.08985.0586.08593.05859.08985.0586.29687.29687.0586.08984.03125.11719.02734.11719.01563.13671-.03125.1172-.0586.08983-.0586.08594-.04296.10547-.04688.10156-.02734.1211v.14453l.17578.26953.14844.14844.07422.08594.07422.07421.04296.10547.0625.08985.0586.08593.04297.10547.0586.08985.04687.10156.04296.10547.0586.08594.11719.17968.07421.07422.0625.08594.0586.08984.04297.10547.0586.08985.05858.08593.0625.08985.0586.08984.04297.10156.11719.17969.07421.07422.0586.08594.07422.07421.08984.0586.10547.04687h.14844l.1328-.01562.13282.01562.10156-.04687.07422-.07422.04688-.10156-.01563-.13281v-.14844l-.04687-.10547-.02735-.11719-.04687-.10156-.02735-.1211-.04296-.10156-.0625-.08984-.04297-.10156-.04297-.10547-.03125-.11719-.01563-.13281-.01171-.13672.08593-.0586.0586-.08593.12109-.03125.04297.10547.01562.1328v.1172l.0586.10156.0586.08984.08983.0586.14844.14843.0586.08985.04296.10547-.01171.10156.08593.0586.10547.04687.08594.0586.08984.05858.07422.07422-.11719.02735-.10546.04687-.08594.0586-.07422.07421-.0586.08985-.0625.08594-.02734.12109-.04687.10156-.04297.10547-.03125.11719-.01172.13281-.01563.13281v.14844l.02735.11719.04687.10547.04297.10156.0586.08984.07421.07422.08985.0586.07422.07421.08984.0586.0586.08984.04296.10547.04688.10156.11719.03125.1328.01563h.14845l.11718-.03125.10547.04297.04297.10547.04688.10156.02734.1211L299.5 410l.02734.11719.03125.1211.02735.11718.10547.04297.10156.04687.13281-.01562.14844.14844.0625.08593.07422.07422.07031.07422.08984.0625.10547.04297.10156.04297.1172.03125.13671.01562.11719-.03125.07422-.07422.02734-.11718-.01172-.13282-.03125-.12109-.02734-.11719.04297-.10547h.11719l.08984.0625.11719.02735h.14843l.13282.01562h.14843l.13282.01563.1328-.01563h.14845l.1328-.01562.13282-.01172.13672.01172.11719-.02735.13281-.01562.1914-.0586-.05859.17579-.01562.1328-.02735.1211-.01562.13281-.0586.08594-.1328.01563-.10548.04687-.10546.04297-.1172.03125-.11718.02735-.26563.03125h-.14843l-.13281.01562-.07422.07422.05859.08594.14844.14843.11719.1797.07421.0703.08985.0625.08984.0586.08594.0586.08984.05858.10156.04297.10547.0625.10547.04297.08594.0586.10547.04687.10156.04297.17969.11719.0586.08984-.04298.10156-.04687.10547.01562.13281.22266.22266.0586.08985.04296.10156.03125.1211.04297.10155.01563.13282.03125.11718.01171.13672.03125.11719.14844.14844.10156.04297.10547.04296.1172.03125.1328.01563.13672.01563h.11719l.11719-.03125.08984-.0586.04297-.10547.04688-.10156.04296-.10547.03125-.11719.01172-.1328v-.14845l-.01172-.1328-.01562-.13282-.03125-.11719-.04297-.10547-.04688-.10547-.04296-.10156-.04297-.10547-.01563-.13281.01563-.13281.02734-.11719.03125-.11719.02735-.1211.04687-.10155.08984-.0586.08594-.0625.07422-.07422.08984-.05859.22266-.22266.0586-.08593.07421-.07422.11719-.17969.0586-.08594v-.14844l-.07423-.07421-.10156-.04688-.10547-.04297-.10156-.04297-.0586-.08984-.04687-.10547-.02734-.11719.08984-.05859.11719-.03125.10156-.04297.17969-.11719.14844-.14843.01172-.13282-.01172-.10546-.08985-.0586-.1328.01563h-.14845l-.1328.01562-.13282-.01562-.1211-.03125-.08593-.0586-.07422-.07422-.0586-.08984-.0625-.08594-.11718-.17969-.0586-.08593.03125-.1211.08594-.05859.1211-.03125.05859-.08594v-.1211l-.03125-.11718-.0586-.08984-.05859-.08594-.04687-.10547-.02735-.11719-.01562-.1328.0586-.08985.07421-.07422.08984-.0586.1172-.17968.07421-.07422.0586-.08594.14843-.14844.1211-.03125.1328-.01562.13282.01562.07422.07422.04297.10547.01562.13281-.03125.1172-.11719.03124-.1328.01172-.14844.14844-.04297.10547-.04688.10156-.02734.1211-.03125.11718v.14844l.03125.11719.04297.10546.05859.08985.07422.07031.07422.07422.11719.03125.12109.02734.11719-.02734.1328-.01563h.1172l.08984.0586.07422.07422.04687.10546.0586.08594.10156.04688.13281.01562.10547.04297.08594.0586-.01172.10546-.07422.07422-.17969.11719-.05859.08984-.08984.0586-.07032.07422-.07421.07421-.0625.08985-.02735.11719-.01562.1328.01562.13282-.01562.13281v.14844l.01562.13281.02735.1172.03125.12108.07421.07422.08985.0586.08594.0586.08984.05858.11719.03125v.08594l-.10157.04688-.08984.0586-.26563.03124-.11718.02735h-.14844l-.10547.04296-.10156.04688-.0586.08984-.0625.23438-.01171.13281-.03125.1211-.01563.1328v.29298l-.01172.1328.01172.13673.01563.1328.1328.01563.13282.01172.1211.03125.08593.0586.07422.07421.04688.10547.04296.10157.01563.1328v.44532l-.01563.13281v.44532l.03125.26562.02735.11719.01562.13281.03125.11719.08594.21094.03125.26562v.14844l-.03125.11719-.02734.11718-.03125.1211-.02735.11719-.03125.11718-.03125.1211-.01171.1328-.01563.13282.08984.0586.1172-.03125.10155.01562.04688.10547-.03125.26562v.44141l-.04297.10547-.04688.10547-.04296.10156-.04297.10547-.0586.08594-.03125.12109-.04296.11719-.03125.11719-.01563.1328.01563.13282.05859.08984.10547.04688.08594.0586.05859.08593-.01172.13672-.03125.11719-.04297.10156v.44531l-.01562.13281v.14844l-.03125.11719-.04297.10547-.02735.11719-.04687.10546-.04297.10157-.03125.12109-.02734.11719-.03125.13281-.03125.11719-.02735.11719-.04297.10546-.03125.1172-.03125.12108-.01171.13282-.01563.13281v.29688l.02734.11718v.14844l.04688.39844.02734.11719.0586.08984.12109.03125h.14844l.13281-.01563.0586.08985v.11719l-.0586.08984-.08984.0586-.10157.04296-.10546.04688-.08985.05859-.08594.0586-.13671.01562-.1172-.03125-.1328-.01563-.10157.04688-.0625.08594-.01172.13671-.01562.13282-.03125.11719-.02735.11718-.01562.13281-.03125.1211v.29687l.01563.13282.03125.11718v.14844l.01171.13281v.14844l-.02734.11719-.04688.10156-.02734.1211-.03125.11718-.0586.08985-.07421.07421-.10156.04297-.10547.04688-.11719.02734-.1211.03125-.10156-.04687.0586-.08594.10547-.04688.02734-.11718.03125-.11719.02734-.1211.03125-.11718v-.14844l.01563-.13281-.03125-.11719-.04297-.10547-.10547.01563-.07422.07422-.10156.04296-.08984.0625-.07422.07422-.04297.10157-.01563.1328-.03125.1172L304.25 426l-.03125.11719-.02734.11719-.03125.12109-.02735.11719-.03125.11718-.04297.10547-.08984.0586h-.08984l-.1172-.03125-.03124-.08594.01562-.13672-.03125-.11719v-.14844l-.01171-.1328v-.14844l-.0625-.23438-.02735-.1211-.04297-.10156-.04687-.10546-.0586-.08594-.05859-.08985-.04297-.10546-.0625-.08594-.14844-.14844-.0703-.07422-.10548-.04687-.10547-.04297-.10156-.04297-.29687-.29688-.08985-.07421-.08594-.0586-.10546-.04297-.08985-.0625-.08594-.0586-.10546-.04296-.08985-.0586-.08594-.0625-.07421-.0703-.10547-.04688-.08594-.0586-.10547-.04296-.08984-.0625-.10156-.04297-.10547-.04297-.08594-.0586-.10547-.04687-.10547-.04297-.10156-.04687-.08985-.0586-.10156-.04297-.10547-.04296-.08984-.0625-.11719-.02735-.13281-.01562-.13281.01562H299.75l-.13281.01563-.11719-.03125-.08984-.0586-.07422-.07422-.08985-.05859-.10156-.04688h-.14844l-.12109-.02734-.10156-.04297-.07422-.07422-.11719-.17968-.08984-.0586-.10156-.04297-.08985-.0625-.10547-.04296-.08984-.0586-.08594-.0586-.10547-.04687-.0586-.08594-.05858-.08984-.04297-.10547-.04688-.10156-.07422-.07422-.08594-.0586-.07421-.07421-.08985-.0586-.22265-.22265-.04297-.10547-.03125-.26563.10547-.04296h.14453l.10547.04296.07421.07422.08985.0586.08594.0586.10546.04687.08985.05859.14844.14844.0703.07422.14845.14843.0625.08594.07421.07422.08594.0586.07422.07421.08985.0625.08984.0586.08594.05859.26953.17578.10156.04688.10547.04296.10156.04297.04688-.07421.05859-.08594.07422-.07422.07031-.07422.10547.04297.07422.07422.0586.08984.04296.10156.04688.10547.04296.10547.1211.02735.11719-.02735.07421-.08984.04297-.10547.0586-.08985.07422-.07421.10546-.04297.1172-.02735.1328.01172.08985.0586.14844.14843.05859.08985.04297.10547.04687.10156.04297.10547.04297.10156.10547.04688.10547.04296.13281.01563.08594-.0586.0586-.08984.07421-.07422.10547-.04297.11719.02735.10547.04687.10156.04297.10547.04297.10156.04688.17969.11718v.11719l-.01563.13281.01563.13281.01562.13672.0586.08594.10156.04688.1211.02734.11718.03125h.14844l.11719-.03125.05859-.08984.17969-.1172.05859-.08983.07422-.07422.0586-.08594.11718-.17969.17969-.11719.11719.03125.08984.0586.04297.07422-.01563.1328v.1172l.08985.05859h.14843l.13282-.01563.1328-.01171.26563-.03125.10547-.04297.11719-.03125.1211-.02735.07421-.07421.07031-.07422.0625-.08985-.01562-.10547-.04688-.10156-.10156-.04297-.10547-.01562-.11718.02734-.26563.03125h-.14844l-.07421-.07422-.08985-.0586-.11719-.03124-.11718-.02735-.13282-.01562h-.14843l-.13282.01563h-.29687l-.10547-.04688-.14844-.14844-.04297-.10156-.05859-.08984.22266-.22266.08593-.0586.10547-.04296.11719-.03125.13281-.01563.13281.01563.13672.01562.10157.04297.1328-.01172.08985-.0625.10156-.04297.0625-.08984-.04687-.10156-.08984-.0586-.1172-.03125-.10155-.04296-.0586-.08985-.0625-.08984v-.11719l.01563-.13281.10547-.04688.07421-.07031v-.1211l-.08984-.05859-.03125-.11719.08985-.05859.07421-.07422.04297-.10547.0586-.08984.04687-.10156.01563-.13281v-.14844l-.04688-.10547-.04297-.10156-.08984-.0586-.13281-.01562-.10157-.04297-.13671-.01563-.1172-.03125h-.4453l-.13282-.01562-.13281-.01172-.13281-.01563-.11719-.03125h-.14844l-.13281-.01562-.13281-.01172-.26563-.03125-.1211-.04297-.08593-.0586-.07422-.07421v-.14844l.01172-.13281.10547-.04688.10156-.04296.13281-.01563h.15235l.13281-.01562h.29297l.1211.03125.10156.04296.08984.0586.23438.0625.12109-.04688.08984-.05859.10156-.04297.13282-.01562.10547.04296.10156.04688.13281.01172.1211-.02735h.14453l.12109-.03125.11719-.02734.10547-.04687.07421-.07422.08594-.0586.14844-.14843.0586-.08594.04687-.10547.02734-.11719.01563-.10547-.10156-.04296-.08985-.0586-.11719-.03125-.10546-.04297-.08985-.0625-.07422-.08594-.07422-.07421-.10156-.04297-.10547-.04688-.10156-.04297-.0586-.08984-.04687-.10156-.08594-.21094-.0625-.08594-.05859-.08984-.07422-.07422-.08594-.0586h-.26953l-.11719.03126-.08984.05859-.10156.04297-.13281.01562-.10547-.01562-.02735-.11719-.0625-.08984-.11718-.03125-.10157-.04297-.14843-.14844-.03125-.11719-.01563-.10546.07422-.07422.17969-.1172.11719-.02733.11718-.03125.13672.01562.10156.04297.10547.04297.10156.04687.10547.04297.1172.03125.1328.01563.1172.02734.1328.01563.10547-.01563.08985-.0586-.07422-.07421-.10547-.04297-.07422-.07422-.07422-.08984-.14844-.14844-.08593-.0586-.08985-.05859-.07422-.07422-.08984-.0586-.10156-.04687-.1211-.02734-.10156-.04688-.10547-.04296-.11719-.03125-.10156-.04297-.1211-.03125h-.14843l-.11719.03125-.10546.04297-.08594.0625-.17969.11718-.08594.0586-.08984.0586-.10547.04687-.08594.05859-.10547.04297-.10156.04297-.10547.04687-.07422.07422-.05859.08985-.0586.08593-.04687.10547-.0586.08594-.07421.07422-.13281-.01172-.1172-.03125h-.11718l-.07422.07422-.08984.0586-.07422.07421-.08984.0586-.08594.05859-.10547.04687-.10156.04297-.13672.01563-.10156-.04297-.14844-.14844-.10547-.04688h-.08594l-.10547.04688-.10156.04297-.1211.03125-.11718-.03125-.07422-.07422v-.11719l.03125-.1211.07422-.0703.0586-.08985.07421-.07422.11719-.03125.10547-.04296h.29297l.13281-.01563.13672-.01563.10156-.04296.08985-.0586.10156-.04687.08984-.0586.13281-.01171.08985.05859.13281.01172.08984-.0586.08594-.05859.10547-.04297.08984-.0586.08594-.0625.08985-.05859.14843-.14843.0586-.08594.05859-.08985.10547-.04296.13281-.01563.11719.02735.1211.03125.05859-.0586.05859-.08984.03125-.26563.02734-.11719.10547.01172.13281.01563.10157-.04297.08984-.0586.0586-.08984.07421-.07422.0586-.08984.04687-.10156.01172-.13281-.01172-.13282-.04687-.10547-.14844-.14843-.0586-.08985-.05859-.08594-.04297-.10546v-.44532l.01563-.1328v-.14845l.01172-.1328-.0586-.0586-.08984.0586-.10156-.04298-.17969-.11719-.08594-.05859-.0625-.08984-.0586-.08985-.07421-.07421-.08594-.0586-.1211.03125-.10155.01172-.10547.04688-.08594.05859-.10547.04297-.14844.14844-.08984.05859-.08594.0586-.08984.0625-.10547.04296-.13281.01563v-.1211l.10547-.04297.11718-.03125.07422-.0703.04297-.10548v-.14844l-.02734-.11718-.14844-.14844-.13281-.01563h-.14844l-.11719.03125-.10547.04297-.10156.04297-.08984.0625-.11719.02735-.07422-.07422.01172-.13281-.04297-.10157-.04297-.10547-.08984-.05859-.11719.02734-.1211.03125-.11718.03125-.10156.04297-.1211.03125-.10156.04297-.10547.04297-.08984.0586-.10156.01562v-.11719l.01562-.13281-.0586-.08985-.07421.04297-.14844.14844-.0586.08985-.07421.07421-.04688.10547-.04296.10156-.07422.07422-.0586.08985-.07422.07422-.05859.08593-.07422.07422-.08984.0625-.07422.07031-.07422.07422-.10156.01563-.13281.01562-.10547-.04296v-.1211l.14843-.14844.04297-.10156.0586-.08984.04687-.10156.04297-.10547.0586-.08985.03124-.11719.04297-.10156.03125-.1211.02735-.11718.04687-.10547.04297-.10156.04297-.10547.07422-.07031.08984-.0625.08985-.0586.10156-.04296h.29687l.26563-.03125.10547-.04297-.07422-.07422-.11719-.03125-.10547-.04297-.08984-.0586-.10156-.04687-.08985-.0586-.10156-.04296-.10547-.04297-.08984-.0625-.08594-.0586-.10547-.04296-.10156-.04297-.1211-.03125-.11718-.03125-.10157-.04297L297.5 410.25l-.10156-.04297-.08985-.0586-.04296-.10546-.01563-.13281.10156-.04297.13281-.01563.13672.01563.13282-.01563.10156-.04297.0586-.08984.01562-.10547-.08985-.0586-.07421-.07421-.10157-.04297-.08984-.0586-.14844-.14843-.04297-.10547-.01562-.13281v-.29297l-.0586-.08985-.08984-.05859-.07422-.07422-.04297-.10547-.03125-.11718-.0586-.08985-.07421-.07422-.11719-.02734-.07422-.07422-.08984-.0586-.08984-.0625-.08594-.05859-.07422-.07421-.0586-.08594-.04687-.10547-.08594-.0586-.14843-.14843-.19532-.0586-.1328.01563-.10157.04297-.07422.07422-.04688.10156-.04296.10547-.0586.08984-.0586.08594-.29687.29687-.08984.0586h-.08594l-.0625-.08594-.04297-.10547.03125-.11719.0586-.08984.02734-.11719-.01172-.13281-.08984-.0625-.10547.04688-.11719.02734-.11719.03125-.26953.17578-.10156.04688-.11719.02734-.10546.04687-.08985.0586-.10156.04297-.0586-.08594-.04687-.10547.01563-.13281.04687-.10547.07031-.07422.07422-.07031.0586-.08985v-.14843l-.04297-.10547h-.23829l-.10156.04687-.03125.11719-.02734.11719-.03125.1211-.07422.04296-.13281.01563-.07422-.04688-.04297-.10156-.04297-.10547-.04687-.10156-.04297-.10547-.1211.03125-.10156.04297-.13281.01562-.11719.03125-.10547.04297-.08984.0586-.10156.04687-.1211.02734-.13281.01563-.10156-.04297-.0586-.08985-.04687-.10546-.04297-.10157-.04297-.10546v-.1172l.0586-.08984.08593-.05859.17969-.11719.10156-.04687.10547-.04297.10547-.0586.10156-.04296.08985-.0625.10156-.04297.10547-.0586.10156-.04687.08984-.0586.10547-.04296.10156-.04297.08985-.0625.10156-.04297.13672-.01563.11719.03125.10156.04297.1211.03125.10156.04297.10546.04688.10157.04296.10547.04297.10156.04688.10547.04297.10156.04297.10547.04687.08594.0586.10546.04296.1172.03125.10546.04297.10156.04688.08985.0586.10547.04296.10156.04297.10547.04687.11719.02735.10156.04687.1211.02735h.14843l.08594-.0586.01562-.10156.0586-.08984-.02735-.1172-.07422-.07421-.11719-.17969-.07421-.07422-.08985-.07421-.17969-.1172-.08593-.05859-.10547-.04296-.10156-.04688-.26954-.17578-.05859-.08985-.07422-.07421-.0586-.08985-.04296-.10156-.03125-.11719-.01563-.13672v-.5625l-.01171-.1328-.01563-.13282-.03125-.11719-.01562-.13281-.01172-.13281-.03125-.1211-.22266-.22265-.0586-.08594-.01562-.10547.03125-.11719.13281-.01562v-91.41406H172.9922v1.45312l-.0586.23438-.35156 1.05078-.17187.52343-.1172.34766-.17577.41016-.11719.17187-.23438.29297-.23046.0586h-.35157l-.11718.05859-.23047.40625v.29297l.11719.17578.23046.23047.1172.23437.64062.75781.29297.46485.17578.23437.23047.35156.23437.34766.64063.8164.17578.46485.17187.41016.11719.69531.17578.46875.11719 1.39844.0586.46484v.875l.11718 1.04688v4.78125l-.0586.46484-.35156 1.28125-.17578.52344-.11328.41015-.35156.9297L172.93359 336l-.23437.58203-.11719.17578-.17187.34766-.17578.40625-.35157.8164-.0586.29297-.11327.29297-.11719.28906-.0586.17579-.11718.875-.0586.40625-.05859.11718-.0586.17579-.05859.17187-.23047.52734-.11718.17188v.23437l-.11719.23438-.0586.17187-.17577.58594v.28906l-.0586.17579v.29296l-.0586.11329-.05859.52734v.17187l-.05468.23438v2.6211l-.17578.8164-.1172.17578-.17577.23438-.1172.17187-.11327.23438-.58594.93359-.23047.28906-.29297.46485-.17578.23437-.28906.35156-.35156.69922-.11328.23047-.17579.41016-.17578.23046-.40625.52735-.8164.69922-.29297.17187-.28906.23438-.17579.11719-.17578.17578-.52344.40625-.52734.17578-.17187.17578-.23438.05469-.64062.17578h-.75782m12.21094 31.02344l-1.07422.44921.35938.89454 1.25-.71485.44531-.53906-.98047-.08985"/><path fill="#d3d3d3" fill-opacity="0" fill-rule="evenodd" d="M201.50781 416.59766h-.89453l.44922.6289.98047.35938.80469-.08985.4453-.98828-.17577.08985-.71485-.35547-.89453.35547m154.6211 59.0703l-.0586-.52343v-.29297l.11328-.29297.0586-.23046.46875-.46875h.11328l.11719-.11329.11718-.05859h.17579l.23437-.0586h.34766l.23437.0586.11719.0586.23047.17187.0586.17578.11718.58203v.29297l-.11719.17578-.17187.28906-.17579.17579-.52734.52343-.23047.23438-.11719.0586h-.17578l-.11718-.0586-.40625-.29297-.17579-.11719-.11718-.0586-.0586-.11327-.05468-.1172m6.64062-10.95702l-.0586-.17188v-1.10937l.0586-.17188.17578-.0586.17188-.05858h.17578l.23437-.0586.1172.0586.05858.69921-.05859.17188-.11719.17578-.11718.0586-.23438.52343-.11328.0586h-.23438l-.05859-.1172m9.61328-14.39062l-.11719-.17578v-.69922l.29297-.875.1172-.17187.17577-.35156.11328-.23047.1172-.29297.35155-.75781.1172-.23047.17187-.23438h.17578l.11719-.0586h.64062l.11719.0586.23437.23438.17188.11328.35156.29297.11719.11718.11328.17579v.11328l.11719.05859.11718.11719v.69922l-.05859.17578v.23047l-.0586.17578-.34765 1.05078-.11719.23047-.11719.23437-.11718.0586-.23047.23437-.64063.28906h-.875l-.41015-.11718-.64063-.46485"/><path fill="none" stroke="#bebebe" stroke-linecap="round" stroke-linejoin="round" stroke-miterlimit="10" stroke-width=".5" d="M467.95703 311.69531H144.02734v168.625h323.9297v-168.625"/><g clip-path="url(#a)"><path fill="#fff" fill-opacity="0" fill-rule="evenodd" d="M144 475.89063v4.4375h.0039H144V311.67188h.0039H144v164.21875"/></g><g clip-path="url(#b)"><path fill="#fff" fill-opacity="0" fill-rule="evenodd" d="M144.0039 480.32813V311.67188h97.64063v127.35937l-2.0039 1.35156 2.0039 1.26953 2.77344-1.26953-2.77344-1.35156V311.67187h17.7539v121.58594l-3.2539 2.6875 3.2539 2.78125 2.39454-2.78125-2.39453-2.6875V311.67187h13.3125v117.9922l-3.32813 1.84374 3.32813 1.72656 2.9961-1.72656-2.9961-1.84375V311.67187h8.8789v120.67579l-3.23828 3.59765 3.23828 3.14453 4.4375-2.34765 1.35157-.79688-1.35157-1.01562-4.4375-2.58203V311.67187h71.01172V437.4922l-2.88672 2.89062 2.88672 2.88672 3.375-2.88672-3.375-2.89062V311.67188h17.7539v138.17578l-2.29296 3.85156-2.14453 1.78906-3.26172 2.64844-1.17578 3.32031-.39063 1.11719.39063.35547 4.4375.9336 4.4375-.28907 4.4375-.1875 3.94531 3.6289.10156 4.4375.39454.48829 1.64062-.48829-.84766-4.4375 3.64454-1.68359 2.54687 1.6836 1.89063 1.6875 1.30859-1.6875 3.1289-3.1797 1.125-1.26171-1.125-2.72266-2.41406-1.71484-2.02344-1-2.72656-3.4375-1.71094-1.78516-4.4375-.22265-4.4414 1.92578-4.4375-3.76953V311.67187h97.64062v168.65625H144.00391"/></g><path fill="#50fcfc" fill-rule="evenodd" d="M241.64453 441.65234l-2.0039-1.26953 2.0039-1.35156 2.77344 1.35156-2.77344 1.26953m17.7539-2.92578l-3.2539-2.78125 3.2539-2.6875 2.39454 2.6875-2.39453 2.78125m13.3125-5.49219l-3.32813-1.72656 3.32813-1.84375 2.9961 1.84375-2.9961 1.72656m8.8789 5.85547l-3.23828-3.14453 3.23828-3.59765v2.28906l-1.17968 1.3086 1.17968 1.14452 1.77735-1.14453-1.77735-1.3086v-2.28905l4.4375 2.58203 1.35157 1.01562-1.35157.79688-4.4375 2.34765"/><path fill="#00e8fc" fill-rule="evenodd" d="M281.58984 437.08984l-1.17968-1.14453 1.17968-1.3086 1.77735 1.3086-1.77735 1.14453"/><path fill="#50fcfc" fill-rule="evenodd" d="M352.60156 443.26953l-2.88672-2.88672 2.88672-2.89062v2.33594l-.55469.55468.5547.55469.64843-.55469-.64844-.55469v-2.33593l3.375 2.89062-3.375 2.88672"/><path fill="#00e8fc" fill-rule="evenodd" d="M352.60156 440.9375l-.55469-.55469.5547-.55469.64843.5547-.64844.55468"/><path fill="#50fcfc" fill-rule="evenodd" d="M361.48047 462.92969l-.39063-.35547.39063-1.11719 1.17578-3.32031 3.26172-2.64844 2.14453-1.78906 2.29297-3.85156 4.4375 3.76953v.17578l-1.63672 4.34375 1.63672 2.88281 2.125-2.88281-2.125-4.34375v-.17578l4.4414-1.92578 4.4375.22265v3.78906l-2.46093 2.4336 2.46094 1.65625 3.21093-1.65625-3.21094-2.4336v-3.78906l1.71094 1.78516 2.72656 3.4375v2.08594l-3.70703 3.35156 3.70704 3.44922 3.4375-3.44922-3.4375-3.35156v-2.08594l2.02343 1 2.41406 1.71484 1.125 2.72266-1.125 1.26172-3.1289 3.17969-1.3086 1.6875-1.89062-1.6875-2.54688-1.6836-3.64453 1.6836.84766 4.4375-1.64063.48828-.39453-.48829-.10156-4.4375-3.94531-3.6289-4.4375.1875-4.4375.28906-4.4375-.9336"/><path fill="#fff" fill-opacity="0" fill-rule="evenodd" d="M374.79297 453.79297l-1.63672 4.34375 1.63672 2.88281 2.125-2.88281-2.125-4.34375m8.8789 1.91015l-2.46093 2.4336 2.46094 1.65625 3.21093-1.65625-3.21094-2.4336"/><path fill="#00e8fc" fill-rule="evenodd" d="M388.10938 466.02344l-3.70704-3.44922 3.70704-3.35156v2.01953l-1.47266 1.33203 1.47265 1.375 1.3672-1.375-1.3672-1.33203v-2.01953l3.4375 3.35156-3.4375 3.44922"/><path fill="#00d4fc" fill-rule="evenodd" d="M388.10938 463.94922l-1.47266-1.375 1.47265-1.33203 1.3672 1.33203-1.3672 1.375"/><g clip-path="url(#c)"><path fill="#fff" fill-opacity="0" fill-rule="evenodd" d="M467.9961 480.32813H468V311.67188h-.0039H468v168.65625h-.0039"/></g><g clip-path="url(#d)"><path fill="none" stroke="#000" stroke-linecap="round" stroke-linejoin="round" stroke-miterlimit="10" stroke-width=".5" d="M147.35547 479.29297l-6.71094 2.07031"/></g><g clip-path="url(#e)"><path fill="none" stroke="#000" stroke-linecap="round" stroke-linejoin="round" stroke-miterlimit="10" stroke-width=".5" d="M147.35547 479.29297l1.74219 1.73047"/></g><g clip-path="url(#f)"><path fill="none" stroke="#000" stroke-linecap="round" stroke-linejoin="round" stroke-miterlimit="10" stroke-width=".5" d="M160.66406 479.27344l-6.69922 2.11328"/></g><g clip-path="url(#g)"><path fill="none" stroke="#000" stroke-linecap="round" stroke-linejoin="round" stroke-miterlimit="10" stroke-width=".5" d="M160.66406 479.27344l1.7539 1.71875"/></g><g clip-path="url(#h)"><path fill="none" stroke="#000" stroke-linecap="round" stroke-linejoin="round" stroke-miterlimit="10" stroke-width=".5" d="M173.94922 479.17969l-6.64063 2.29687"/></g><g clip-path="url(#i)"><path fill="none" stroke="#000" stroke-linecap="round" stroke-linejoin="round" stroke-miterlimit="10" stroke-width=".5" d="M173.94922 479.17969l1.79687 1.67187"/></g><g clip-path="url(#j)"><path fill="none" stroke="#000" stroke-linecap="round" stroke-linejoin="round" stroke-miterlimit="10" stroke-width=".5" d="M187.19922 479l-6.50781 2.66016"/></g><g clip-path="url(#k)"><path fill="none" stroke="#000" stroke-linecap="round" stroke-linejoin="round" stroke-miterlimit="10" stroke-width=".5" d="M187.19922 479l1.88281 1.5664"/></g><g clip-path="url(#l)"><path fill="none" stroke="#000" stroke-linecap="round" stroke-linejoin="round" stroke-miterlimit="10" stroke-width=".5" d="M200.44922 478.85156l-6.3789 2.95313"/></g><g clip-path="url(#m)"><path fill="none" stroke="#000" stroke-linecap="round" stroke-linejoin="round" stroke-miterlimit="10" stroke-width=".5" d="M200.44922 478.85156l1.95312 1.48438"/></g><g clip-path="url(#n)"><path fill="none" stroke="#000" stroke-linecap="round" stroke-linejoin="round" stroke-miterlimit="10" stroke-width=".5" d="M213.78125 478.88672l-6.41016 2.88281"/></g><g clip-path="url(#o)"><path fill="none" stroke="#000" stroke-linecap="round" stroke-linejoin="round" stroke-miterlimit="10" stroke-width=".5" d="M213.78125 478.88672l1.9375 1.5039"/></g><g clip-path="url(#p)"><path fill="none" stroke="#000" stroke-linecap="round" stroke-linejoin="round" stroke-miterlimit="10" stroke-width=".5" d="M227.0586 478.8125l-6.33594 3.03516"/></g><g clip-path="url(#q)"><path fill="none" stroke="#000" stroke-linecap="round" stroke-linejoin="round" stroke-miterlimit="10" stroke-width=".5" d="M227.0586 478.8125l1.97656 1.45313"/></g><g clip-path="url(#r)"><path fill="none" stroke="#000" stroke-linecap="round" stroke-linejoin="round" stroke-miterlimit="10" stroke-width=".5" d="M240.44922 478.97266l-6.48438 2.71093"/></g><g clip-path="url(#s)"><path fill="none" stroke="#000" stroke-linecap="round" stroke-linejoin="round" stroke-miterlimit="10" stroke-width=".5" d="M240.44922 478.97266l1.89453 1.55859"/></g><g clip-path="url(#t)"><path fill="none" stroke="#000" stroke-linecap="round" stroke-linejoin="round" stroke-miterlimit="10" stroke-width=".5" d="M253.86719 479.2539l-6.6914 2.14844"/></g><g clip-path="url(#u)"><path fill="none" stroke="#000" stroke-linecap="round" stroke-linejoin="round" stroke-miterlimit="10" stroke-width=".5" d="M253.86719 479.2539l1.75781 1.71094"/></g><g clip-path="url(#v)"><path fill="none" stroke="#000" stroke-linecap="round" stroke-linejoin="round" stroke-miterlimit="10" stroke-width=".5" d="M267.1836 479.25781l-6.69532 2.14063"/></g><g clip-path="url(#w)"><path fill="none" stroke="#000" stroke-linecap="round" stroke-linejoin="round" stroke-miterlimit="10" stroke-width=".5" d="M267.1836 479.25781l1.7539 1.71485"/></g><g clip-path="url(#x)"><path fill="none" stroke="#000" stroke-linecap="round" stroke-linejoin="round" stroke-miterlimit="10" stroke-width=".5" d="M280.16016 478.51563l-6.01953 3.625"/></g><path fill="none" stroke="#000" stroke-linecap="round" stroke-linejoin="round" stroke-miterlimit="10" stroke-width=".5" d="M279.28516 479.04297l1.05078.6289"/><g clip-path="url(#y)"><path fill="none" stroke="#000" stroke-linecap="round" stroke-linejoin="round" stroke-miterlimit="10" stroke-width=".5" d="M293.03516 477.9336l-5.14063 4.78906"/></g><path fill="none" stroke="#000" stroke-linecap="round" stroke-linejoin="round" stroke-miterlimit="10" stroke-width=".5" d="M292.28906 478.6289l1.16016.40235"/><g clip-path="url(#z)"><path fill="none" stroke="#000" stroke-linecap="round" stroke-linejoin="round" stroke-miterlimit="10" stroke-width=".5" d="M305.95313 477.5664l-4.34375 5.52344"/></g><path fill="none" stroke="#000" stroke-linecap="round" stroke-linejoin="round" stroke-miterlimit="10" stroke-width=".5" d="M305.32031 478.3711l1.20703.21484"/><g clip-path="url(#A)"><path fill="none" stroke="#000" stroke-linecap="round" stroke-linejoin="round" stroke-miterlimit="10" stroke-width=".5" d="M319.27344 477.57031l-4.35547 5.51563"/></g><path fill="none" stroke="#000" stroke-linecap="round" stroke-linejoin="round" stroke-miterlimit="10" stroke-width=".5" d="M318.64063 478.375l1.20703.21875"/><g clip-path="url(#B)"><path fill="none" stroke="#000" stroke-linecap="round" stroke-linejoin="round" stroke-miterlimit="10" stroke-width=".5" d="M331.4336 480.32813l-.01954-.19922-.0586-.19141-.09374-.17578-.46094-.3789-.1914-.0586-.19922-.01953-.19922.01953-.1914.0586-.45704.3789-.09766.17578-.05859.1914-.01953.19923.01953.19921.0586.19141.09765.17969.45703.375.1914.0586.19923.01952.19921-.01953.19141-.0586.46094-.375.09375-.17968.0586-.1914.01952-.19922"/></g><g clip-path="url(#C)"><path fill="none" stroke="#000" stroke-linecap="round" stroke-linejoin="round" stroke-miterlimit="10" stroke-width=".5" d="M340.3125 479.5l6.82813 1.65625"/></g><g clip-path="url(#D)"><path fill="none" stroke="#000" stroke-linecap="round" stroke-linejoin="round" stroke-miterlimit="10" stroke-width=".5" d="M354.96094 477.5l4.16015 5.66016"/></g><path fill="none" stroke="#000" stroke-linecap="round" stroke-linejoin="round" stroke-miterlimit="10" stroke-width=".5" d="M355.5664 478.32031l.53126-1.10547"/><g clip-path="url(#E)"><path fill="none" stroke="#000" stroke-linecap="round" stroke-linejoin="round" stroke-miterlimit="10" stroke-width=".5" d="M368.02344 477.69922l4.66406 5.25781"/></g><path fill="none" stroke="#000" stroke-linecap="round" stroke-linejoin="round" stroke-miterlimit="10" stroke-width=".5" d="M368.70313 478.46484l.42968-1.14843"/><g clip-path="url(#F)"><path fill="none" stroke="#000" stroke-linecap="round" stroke-linejoin="round" stroke-miterlimit="10" stroke-width=".5" d="M381.46484 477.59375l4.41016 5.47266"/></g><path fill="none" stroke="#000" stroke-linecap="round" stroke-linejoin="round" stroke-miterlimit="10" stroke-width=".5" d="M381.46484 477.59375l.96485-2.25781"/><g clip-path="url(#G)"><path fill="none" stroke="#000" stroke-linecap="round" stroke-linejoin="round" stroke-miterlimit="10" stroke-width=".5" d="M394.63281 477.71875l4.70703 5.21875"/></g><path fill="none" stroke="#000" stroke-linecap="round" stroke-linejoin="round" stroke-miterlimit="10" stroke-width=".5" d="M395.3164 478.48047l.42188-1.15625"/><g clip-path="url(#H)"><path fill="none" stroke="#000" stroke-linecap="round" stroke-linejoin="round" stroke-miterlimit="10" stroke-width=".5" d="M412.16406 477.35156l-3.72656 5.95703"/></g><path fill="none" stroke="#000" stroke-linecap="round" stroke-linejoin="round" stroke-miterlimit="10" stroke-width=".5" d="M411.6211 478.21484l1.22656.08594"/><g clip-path="url(#I)"><path fill="none" stroke="#000" stroke-linecap="round" stroke-linejoin="round" stroke-miterlimit="10" stroke-width=".5" d="M425.16406 477.17578l-3.09765 6.3086"/></g><path fill="none" stroke="#000" stroke-linecap="round" stroke-linejoin="round" stroke-miterlimit="10" stroke-width=".5" d="M424.71484 478.09375l1.22657-.03906"/><g clip-path="url(#J)"><path fill="none" stroke="#000" stroke-linecap="round" stroke-linejoin="round" stroke-miterlimit="10" stroke-width=".5" d="M439.76953 478.25781l-5.67578 4.14063"/></g><path fill="none" stroke="#000" stroke-linecap="round" stroke-linejoin="round" stroke-miterlimit="10" stroke-width=".5" d="M438.94531 478.86328l1.10156.53516"/><g clip-path="url(#K)"><path fill="none" stroke="#000" stroke-linecap="round" stroke-linejoin="round" stroke-miterlimit="10" stroke-width=".5" d="M452.51563 477.64844l-4.53907 5.36328"/></g><path fill="none" stroke="#000" stroke-linecap="round" stroke-linejoin="round" stroke-miterlimit="10" stroke-width=".5" d="M452.51563 477.64844l2.39843.51953"/><g clip-path="url(#L)"><path fill="none" stroke="#000" stroke-linecap="round" stroke-linejoin="round" stroke-miterlimit="10" stroke-width=".5" d="M464.94531 477.09766l-2.76953 6.46093"/></g><path fill="none" stroke="#000" stroke-linecap="round" stroke-linejoin="round" stroke-miterlimit="10" stroke-width=".5" d="M464.54297 478.03906l1.22265-.10156"/><g clip-path="url(#M)"><path fill="none" stroke="#000" stroke-linecap="round" stroke-linejoin="round" stroke-miterlimit="10" stroke-width=".5" d="M147.27344 465.73438l-6.54688 2.55859"/></g><path fill="none" stroke="#000" stroke-linecap="round" stroke-linejoin="round" stroke-miterlimit="10" stroke-width=".5" d="M147.27344 465.73438l1.85937 1.59765m11.4961-1.48437L154 468.17969m6.6289-2.33203l1.8047 1.66015m11.47656-1.75l-6.5625 2.51172m6.5625-2.51172l1.85156 1.60938m11.4961-1.51953l-6.625 2.33203m6.625-2.33203l1.80859 1.66015m11.49218-1.70312l-6.59765 2.41797m6.59765-2.41797l1.82813 1.64062m11.51953-1.54687l-6.66406 2.23047m6.66406-2.23047l1.78125 1.6914m11.38281-2.0703l-6.35937 2.98827m6.35937-2.98828l1.96485 1.46875m11.30468-1.5586l-6.26953 3.16798m6.26953-3.16797l2.00782 1.41406m11.52734-.875l-6.70703 2.08984m6.70703-2.08984l1.7461 1.72266m11.55859-1.76172l-6.6875 2.16797m6.6875-2.16797l1.76172 1.70703m11.23047-2.41406l-6.04297 3.58203m6.04297-3.58203l2.09765 1.27734m10.61719-2.03125l-4.84375 5.08984m4.84375-5.08984l2.36328.65625m-3.0664.08203l1.17968.33203m12.9375-.97265l-5.03906 4.89843m5.03906-4.89843l2.33594.75m10.58984-1.09766l-4.26172 5.58984m4.26172-5.58984l2.42188.40234m10.15625-.83203l-2.78516 6.44922m2.78516-6.44922l2.44531-.19922m9.89453-.0664l-.83984 6.98047m.71875-5.96485l1.14453-.4414m11.10937-.51172l1.52735 6.85547M356.5 464.58203l.92969-.79687m11.53515 0l2.78125 6.45703m-2.375-5.51563l.76563-.95703m11.89844.13672l3.27343 6.21484m-2.79687-5.3125l.6875-1.01172m12.54687-.0703l2.48047 6.57421m-2.1211-5.61719l.8125-.92187m14.30079-.14063l-1.83594 6.78516m1.57032-5.79688l1.1953-.27343m12.87891-.53906l-2.82421 6.43359m2.82421-6.4336l2.44922-.18359m11.85157.82813l-4.79297 5.14453m4.79297-5.14453l2.36718.63672m9.76953-1.35938l-2.4375 6.58984m2.08204-5.6328l1.21875-.16407m14.12109.5l-5.77734 4.0039m4.9375-3.42187l1.08984.5625"/><g clip-path="url(#N)"><path fill="none" stroke="#000" stroke-linecap="round" stroke-linejoin="round" stroke-miterlimit="10" stroke-width=".5" d="M147.33984 452.61328l-6.67968 2.17188"/></g><path fill="none" stroke="#000" stroke-linecap="round" stroke-linejoin="round" stroke-miterlimit="10" stroke-width=".5" d="M147.33984 452.61328l1.76563 1.70313m-2.73828-1.38672l.88281.85156m13.3789-1.2539l-6.625 2.34374m6.625-2.34375l1.8086 1.65625m-2.77344-1.3164l.90235.82812m13.3125-1.33203l-6.5 2.66797m6.5-2.66797l1.89062 1.57031m11.16406-2.08593l-5.97656 3.69922m5.97656-3.69922l2.1172 1.23828m10.92187-1.6211l-5.42578 4.46875m4.63671-3.8203l1.13282.47265m12.75-1.36719l-4.98047 4.95703m4.2539-4.23437l1.17188.35937m12.78906-1.16015l-4.82031 5.11718m4.11719-4.3711l1.18359.32423m13.2539-.59375l-5.66015 4.16406m4.83594-3.5586l1.10547.53126m12.80078-1.42188l-5.19531 4.73047m19.1914-3.63281l-6.55469 2.53906m5.59766-2.17188l.92969.80079m12.78515-2.1211l-5.4414 4.44531m4.64843-3.80078l1.13282.47657m12.64843-1.47266l-4.78515 5.14844m4.78515-5.14844l2.3711.63281m11.02344-.55469l-4.94532 4.9922m4.94532-4.9922l2.34765.70704m10.76953-.88672l-4.55078 5.35156m4.55078-5.35156l2.39844.52734m10.21094-.9961l-3.14063 6.28516m3.14063-6.28515l2.45312-.0586m10.4961-.09765L342.52344 457m2.40625-6.60156l2.42969-.34375m10.80468.3125l-2.2461 6.66015m2.2461-6.66015l2.42188-.39844m10.51172.29688l-1.48438 6.86718m1.48438-6.86718l2.36328-.66797m11.28125.7539l-2.14453 6.6914m2.14453-6.6914l2.41406-.4336m10.98828.46485l-2.3164 6.63282m1.97656-5.66797l1.21484-.1875m14.53516 1.21484l-6.50781 2.64844m6.5078-2.64844l1.88282 1.57031m11.49219-1.41797l-6.625 2.34375m5.66015-2.0039l.90625.82812m12.98829-1.9375l-5.85547 3.88281m5.85546-3.8828l2.15625 1.16796m10.1797-2.15234l-3.89844 5.84765m3.89843-5.84765l2.4414.2461m9.81642-.71876l-1.78516 6.79688m1.78515-6.79688l2.39063-.5664"/><g clip-path="url(#O)"><path fill="none" stroke="#000" stroke-linecap="round" stroke-linejoin="round" stroke-miterlimit="10" stroke-width=".5" d="M147.3789 439.42188l-6.7578 1.92187"/></g><path fill="none" stroke="#000" stroke-linecap="round" stroke-linejoin="round" stroke-miterlimit="10" stroke-width=".5" d="M147.3789 439.42188l1.69923 1.76953m-2.6836-1.48828l.85156.8828m13.44922-1.15624l-6.76172 1.90625m6.76172-1.90625l1.69922 1.77344m-2.67969-1.4961l.84766.88672m13.16797-1.86328l-6.19922 3.30469m6.19922-3.3047l2.03516 1.3711m11.3164-1.30078l-6.27344 3.16797m5.35938-2.70703l1.0039.70703m12.6836-1.95313l-5.1914 4.73829m4.4375-4.05079l1.15624.41407m11.97266-1.83203l-3.3086 6.19921m2.82422-5.30078l1.22657.00391m12.49218-.94531l-3.14843 6.28125m2.6914-5.36719l1.22656-.02734m11.98047-1.10938l-2.01953 6.73047m2.01953-6.73047l2.40625-.48047m9.22657.39453l1.34375 6.89844m-1.14844-5.89453l.95312-.77344m14.9297.39453l-4.1797 5.64844m3.57422-4.82422l1.21094.17969m12.98828-.77344l-4.73437 5.1914m4.04297-4.4375l1.1914.3047m12.29688-1.44922l-3.69922 5.97265m3.69922-5.97265l2.44922.16015m11.09375-.0078l-4.16016 5.66405m4.16016-5.66406l2.42968.35547m11.26172-.03516l-4.91015 5.02344m4.91015-5.02344l2.35547.69141m10.78125-.85547l-4.55469 5.35156m4.55469-5.35156l2.39844.52735m10.96094-.48829l-4.64063 5.27735m4.64063-5.27735l2.38671.5625m9.78516-1.23437l-2.35547 6.6211m2.01172-5.66016l1.21484-.17579m10.79688-.95703l.9414 6.96485m-.9414-6.96485l1.99219-1.43359m8.93359 6.95703l5.71875-4.08203m-4.88672 3.48828l-1.09765-.54687m19.9453-1.15625l-7.01171.5078m5.99219-.43359l.65234 1.03907m13.59375-.03907l-6.83594-1.64062m5.83985 1.40234l.30859 1.1875m13.6875-3.41406l-6.20703 3.29297m6.20703-3.29297l2.03516 1.3711m11.01172-1.80079l-5.66797 4.15235m5.66797-4.15235l2.21093 1.06641m10.67969-1.54688l-4.82031 5.11329m4.82031-5.11329l2.36719.64844m10.27734-1.14453l-3.47656 6.10547m2.96875-5.21875l1.22656.03516"/><g clip-path="url(#P)"><path fill="none" stroke="#000" stroke-linecap="round" stroke-linejoin="round" stroke-miterlimit="10" stroke-width=".5" d="M147.22656 425.67578l-6.45312 2.78516"/></g><path fill="none" stroke="#000" stroke-linecap="round" stroke-linejoin="round" stroke-miterlimit="10" stroke-width=".5" d="M147.22656 425.67578l1.91406 1.53125m-2.85546-1.125l.96093.76563m13.14063-1.48438l-6.14453 3.41016m6.14453-3.41016l2.0586 1.33594m-2.95313-.83984l1.03125.66796m12.92187-1.55859l-5.63281 4.20313m5.63281-4.20313l2.21875 1.04688m-3.03906-.4375l1.10938.52343m12.90234-1.29297l-5.38281 4.51953m5.3828-4.51953l2.27345.92188m11.375-.44922l-6.05078 3.57422m6.05078-3.57422l2.09375 1.28125m-2.97266-.76172l1.04688.64063m12.85937-1.57813l-5.47266 4.41016m5.47266-4.41016l2.2539.96485m-3.05077-.32032l1.1289.48047m11.33203-2.26172l-2.17187 6.6836m1.85547-5.71094l1.20703-.21484m14.4414.9375l-6.20703 3.29296m19.58203-3.17968l-6.32422 3.0664m19.97266-1.89062l-6.99219.71484m19.77735-2.23828l-5.9336 3.76172m5.07032-3.21485l1.0664.60547m12.46485-1.91015l-4.64063 5.27734m3.96485-4.50781l1.1953.28125m13.41016-.34375L300.84375 429m5.01953-3.30078l1.07422.58984m10.2539-2.73437L317 430.58203m.1914-7.02734l2.19923-1.08985m13.22656 1.8711l-4.41406 5.46484m4.41406-5.46484l2.41015.46484m11.14844-.2539l-4.89844 5.04296m4.89844-5.04297l2.35547.6836m11.60547.17578l-6.1914 3.32422m5.28906-2.83985l1.01953.6797m10.84375-2.9375l-1.48438 6.87109m1.26953-5.8711l1.17969-.33203m11.47266-.74219l.26953 7.01953m-.26953-7.01953l2.12109-1.23437m14.8125 4.29297l-6.96484.90234m6.96484-.90234l1.42188 2m11.91015-1.85157l-7 .60547m7-.60547l1.33594 2.0586m11.03906-4.16406l-5.11719 4.8164m5.1172-4.8164l2.32421.78906m-3.07031-.08985l1.16406.39454m12.78516-1.20704l-4.89454 5.04297m4.89454-5.04297l2.35546.6797m-3.0664.05468l1.17578.33984m12.44922-1.41015l-4.08985 5.71484m4.08985-5.71484l2.42969.32422m12.0078 1.01171l-6.33593 3.04297m5.41406-2.60156l.98829.73047"/><g clip-path="url(#Q)"><path fill="none" stroke="#000" stroke-linecap="round" stroke-linejoin="round" stroke-miterlimit="10" stroke-width=".5" d="M147.13281 412.16016l-6.26562 3.1875"/></g><path fill="none" stroke="#000" stroke-linecap="round" stroke-linejoin="round" stroke-miterlimit="10" stroke-width=".5" d="M147.13281 412.16016l2.00781 1.41015m-2.92187-.94531l1.00781.70313m13.05469-1.45704l-5.9336 3.76563m5.9336-3.76563l2.13281 1.21485m-2.9961-.66797l1.06642.60937m13.14453-1.10546l-5.9961 3.66406m5.9961-3.66406l2.11328 1.24609m11.36719-.9414l-6.32813 3.05468m6.32813-3.05469l1.98046 1.44922m11.4375-1.21484l-6.53515 2.58594m6.53515-2.58594l1.8672 1.58984m-2.81642-1.21484l.9336.79297m13.3789-1.04297l-6.6289 2.33203m5.66406-1.99219l.90234.83203m13.47657-.83593l-6.82813 1.66406m5.83594-1.42188l.8125.91407m13.32813-1.66407l-6.4961 2.67578m6.4961-2.67578l1.89062 1.5664m11.50781-1.34374l-6.66406 2.23437m5.69531-1.91015l.89063.84375m13.57422.08203l-7.02344-.26563m6 .22657l.53516 1.10547m13.79687-1.41407l-7.01172.42969m5.99219-.36719l.64062 1.04688m13.45313-2.19922l-6.52734 2.60547m5.57812-2.22656l.9336.79296m13.29687-1.25l-6.46094 2.76563m5.51953-2.36328l.95703.76562m13.39454-.91797l-6.65235 2.26563m5.6836-1.9336l.89453.83985m13.57422-.21094l-7.01954.33985m5.9961-.28907l.6289 1.05469m13.70704-1.1289l-7.01563.39062m5.9961-.33203l.6328 1.04687m13.70704-.89453l-7.02735-.03515m6.00391.03125l.57031 1.08593m13.64844-2.01562l-6.78516 1.83203m6.78516-1.83203l1.67578 1.79297m10.60156-3.48438l-4.71093 5.21875m4.71093-5.21875l2.37891.59766m10.48047-.94532l-3.80078 5.91407m3.80078-5.91407l2.44531.20313m11.60156.42578l-5.26562 4.65234m5.26562-4.65234l2.29688.86328m10.99219-.89062l-5.21094 4.71093m5.21094-4.71093l2.30859.83203m10.8086-1.03516l-4.81641 5.11328m4.8164-5.11328l2.3672.64844m10.99218-.60547l-4.90625 5.03125m4.90625-5.03125l2.35547.6914m-3.0664.04298l1.17577.34375m11.6875-1.83204l-2.57812 6.53907m2.57812-6.53907l2.4375-.27734"/><g clip-path="url(#R)"><path fill="none" stroke="#000" stroke-linecap="round" stroke-linejoin="round" stroke-miterlimit="10" stroke-width=".5" d="M147.2539 399.11328l-6.5078 2.64844"/></g><path fill="none" stroke="#000" stroke-linecap="round" stroke-linejoin="round" stroke-miterlimit="10" stroke-width=".5" d="M147.2539 399.11328l1.88282 1.57031M146.30859 399.5l1.88282 1.57031m12.39843-1.91015l-6.54687 2.55468m6.54687-2.55468l1.85938 1.60156m-2.8125-1.22656l1.85937 1.59765m12.46094-1.82812l-6.65234 2.26562m6.65234-2.26562l1.78906 1.67969m-2.7578-1.34766l.89452.83984m12.96485-2.01953l-5.8047 3.96094m5.8047-3.96094l2.17187 1.14063m-3.01562-.5625l1.08593.5664m13.6836.75l-7.02735.17578m7.02735-.17578l1.20312 2.13672m11.5664-3.92969l-5.9375 3.75782m5.9375-3.75782l2.13282 1.21485m11-1.47656l-5.57031 4.28515m5.57031-4.28515l2.23438 1.01562m11.33203-.63672l-6.07422 3.52735m6.07422-3.52735l2.08594 1.29297m11.3828-1.0039l-6.3789 2.9453m5.44922-2.51562l.97656.74219m13.36719-.92969l-6.57813 2.46485m5.6211-2.10547l.91797.8125m13.35547-1.17188l-6.58204 2.46094m5.625-2.10156l.91797.8125m13.35938-1.16016l-6.58985 2.4414m5.62891-2.08593l.91797.8125m13.26172-1.39844l-6.39844 2.90235m5.46875-2.48047l.97266.75m13.44531-.70704l-6.7461 1.96875m5.76563-1.68359l.85547.8789m13.1289-1.90234l-6.125 3.44532m5.23438-2.94532l1.03125.66407m13.46484 1.61328l-6.70312-2.10547m5.72656 1.79687l.22656 1.20704m13.9336-.54688l-6.4414-2.8125m13.02343 1.40625h7.02734m12.4336-2.32422l-5.26953 4.64844m5.26953-4.64844l2.29687.86328m10.8086-1.08203l-4.84766 5.08594m4.14453-4.34375l1.17969.32812m13.55078-.10937l-6.27344 3.16406m5.36328-2.70312l1 .70703m13.09375-1.40625l-6.0078 3.64062m5.1328-3.10937l1.0547.6289m12.49608-1.9375l-4.73046 5.19922m4.04296-4.44531l1.1875.30469m13.25-.57813l-5.60156 4.23828m5.60156-4.23828l2.22657 1.03125m10.60547-1.55469l-4.63282 5.28516"/><g clip-path="url(#S)"><path fill="none" stroke="#000" stroke-linecap="round" stroke-linejoin="round" stroke-miterlimit="10" stroke-width=".5" d="M465.8789 397.79688l2.38673.5625"/></g><g clip-path="url(#T)"><path fill="none" stroke="#000" stroke-linecap="round" stroke-linejoin="round" stroke-miterlimit="10" stroke-width=".5" d="M147.1211 385.51172l-6.2422 3.22265"/></g><path fill="none" stroke="#000" stroke-linecap="round" stroke-linejoin="round" stroke-miterlimit="10" stroke-width=".5" d="M147.1211 385.51172l2.01952 1.39844m-2.92578-.9297l2.01563 1.39845m11.97656-2.25l-5.78516 3.98828m5.78516-3.98828l2.17969 1.1328m-3.01953-.55077l1.08984.5625m12.75781-1.52735l-5.17187 4.75782m5.17187-4.75782l2.31641.8125m-3.0664-.12109l1.15624.40625M186.28516 384.5l-4.6797 5.2461m4.6797-5.2461l2.3828.58203m10.48048-.92187l-3.77735 5.92578m3.77735-5.92578l2.44922.1953m11.57422.40235l-5.19532 4.73047m5.19531-4.73047l2.3125.82422m10.88282-.94922l-4.95313 4.98438m4.95313-4.98438l2.34765.70703m11.03516-.63671l-5.08984 4.83984m5.08984-4.83985l2.32813.77344m10.9414-.82422l-4.9961 4.94141m4.26954-4.22266l1.16797.3672m12.65625-1.28517l-4.5664 5.33985m3.90234-4.5625l1.19921.26562m12.6875-1.12109l-4.3789 5.4961m3.74218-4.69532l1.20704.22266m13.5703-.07813l-6.03124 3.60547m5.15234-3.08203l1.05078.63281m12.70703-1.73828l-5.16015 4.76953m4.41015-4.07422l1.16016.40235m12.35156-1.58203l-4.05078 5.74218m3.46094-4.91015l1.21875.15625m13.02734-.71875l-4.73047 5.19922m4.04297-4.44141l1.1875.30469m13.78516.4414l-6.67578 2.19141m17.67578-1.09375l-.01953-.20313-.0586-.1914-.09375-.17578-.45703-.375-.1914-.0586-.19922-.01953-.20313.01953-.1914.0586-.45703.375-.09375.17578-.0586.1914-.01953.20313.01953.19922.0586.1914.09375.17579.45703.375.1914.05859.20313.01953.19922-.01953.1914-.0586.45703-.375.09375-.17577.0586-.19141.01953-.19922m15.26953-1.8711l-5.94922 3.73829m5.08203-3.19531l1.06641.61328m11.97266-2.28516l-3.66407 5.9961m3.12891-5.125l1.22656.07421m12.61719-.94922l-3.65234 6.00391m3.12109-5.1289l1.22266.0703m12.7539-.85937l-3.91406 5.83203m3.34766-4.98437l1.21875.125m12.40625-1.13281l-3.39844 6.15234m2.90234-5.25781l1.22656.01953m13.20704-.47266l-4.64454 5.26953m3.96875-4.5039l1.19532.28515m12.95703-.89844l-4.96875 4.96875m4.96875-4.96875l2.34765.71485m11.48829-.05469l-6.00782 3.64453m5.13282-3.11328l1.05468.625"/><g clip-path="url(#U)"><path fill="none" stroke="#000" stroke-linecap="round" stroke-linejoin="round" stroke-miterlimit="10" stroke-width=".5" d="M146.59766 371.4414l-5.19532 4.73438"/></g><path fill="none" stroke="#000" stroke-linecap="round" stroke-linejoin="round" stroke-miterlimit="10" stroke-width=".5" d="M146.59766 371.4414l2.30859.82423m-3.0664-.13672l1.15624.41406m12.625-1.38281l-4.61328 5.29687m4.61328-5.29687l2.39063.55078m-3.0625.21875l1.19531.27734m12.76172-1.07422l-4.55469 5.35156m4.55469-5.35156l2.39844.52735m-3.0586.25l1.19532.26562M186.05859 371l-4.22656 5.61719M186.0586 371l2.42188.38281m11.14453-.17187l-4.73047 5.19531m4.73047-5.19531l2.3789.60937m10.85548-.67969l-4.57032 5.33594m4.57031-5.33594l2.39454.53125m10.88672-.5625l-4.5 5.39844m4.5-5.39844l2.40234.5m11.29297-.1328l-5.25781 4.66406m5.2578-4.66407l2.29688.85938m11.10547-.7539l-5.4375 4.45312m5.4375-4.45313l2.26563.94531m10.70703-1.30468l-4.7539 5.17187m4.0625-4.42187l1.1875.30859m12.59765-1.25L275 376.58594m3.67578-4.7461l1.21094.20704m12.76953-.98438l-4.38281 5.49219m3.7461-4.69531l1.20702.22656m12.32813-1.3086l-3.55078 6.0625m3.03515-5.17968l1.22656.05078m12.8672-.76563l-4.07423 5.72656m3.48047-4.89453l1.21875.16016m12.2539-1.25781l-3.19921 6.25781m2.73047-5.34766l1.23047-.01953m11.40234-1.2461l-.89844 6.96876m.76563-5.95703l1.14844-.42969m12.64843-.51953l-1.59765 6.84375m1.36719-5.84766l1.18359-.3164m14.47265.77343l-5.8203 3.9375m4.97265-3.36328l1.08594.57422m12.97265-1.29297l-5.61328 4.22656m4.79688-3.61328l1.11328.51954m12.89062-1.29297l-5.35937 4.54687m4.58203-3.88672l1.14062.45703m12.13282-1.82421l-3.71485 5.96093m3.17188-5.09375l1.22656.08203m13.14063-.5625l-4.73829 5.1875m4.05079-4.43359l1.1875.30469m12.30859-1.44531l-3.72266 5.96093m3.17969-5.09375l1.22266.08594m12.53906-1.01172l-3.52735 6.07813m3.01172-5.19532l1.22657.04688m14.24609 1.2539l-6.8164 1.71094m5.82421-1.46094l.82422.91016"/><g clip-path="url(#V)"><path fill="none" stroke="#000" stroke-linecap="round" stroke-linejoin="round" stroke-miterlimit="10" stroke-width=".5" d="M145.84375 357.5l-3.6875 5.98438"/></g><path fill="none" stroke="#000" stroke-linecap="round" stroke-linejoin="round" stroke-miterlimit="10" stroke-width=".5" d="M145.84375 357.5l2.44922.15625m10.9961-.07031l-3.94923 5.8125m3.94922-5.8125l2.4414.26562m11.13673-.07031l-4.47266 5.42188m4.47266-5.42188l2.40234.49219m-3.05469.29687l1.20313.2461m12.82422-.98047l-4.59375 5.3164m4.59375-5.3164l2.39453.54297m10.98828-.48438l-4.73047 5.19531m4.73047-5.1953l2.3789.60937m11.00782-.54297l-4.8711 5.0664m4.8711-5.0664l2.35937.67187m11.07813-.54687l-5.11719 4.8164m5.11719-4.8164l2.32422.78906m10.91015-.875l-4.95312 4.98438M239.68359 358l2.34766.71094M253 358.0039l-4.96094 4.97656M253 358.0039l2.34766.71484m10.8125-.85938l-4.65235 5.26563m4.65235-5.26563l2.38672.57032m11.22656-.27344l-5.2461 4.67578m5.2461-4.67578l2.30078.84766m11.26172-.53516l-5.74219 4.05078m5.74219-4.05078l2.1914 1.10547m11.375-.6914l-6.24218 3.22265m6.24218-3.22266l2.01953 1.39453m11.03516-1.82421l-5.72266 4.07812m4.89063-3.48438l1.09766.54688m12.60156-1.65625l-4.82813 5.10938m4.125-4.36329l1.1836.32422m12.77343-1.125l-4.70312 5.22266m4.01953-4.46485l1.1875.29688m13.15625-.69531l-5.39453 4.5039m4.60937-3.84765l1.13672.46094m12.48828-1.58594l-4.4453 5.4414m3.80077-4.65234l1.20313.24219m12.84375-.96094l-4.61719 5.29688m3.94531-4.52735l1.19532.27735m13.1289-.71094l-5.29297 4.625m4.52344-3.94922l1.14453.4336m13.26172-.67579l-5.9375 3.76172m5.07422-3.21484l1.0664.60546m13.08985-1.1875l-5.89063 3.83204m5.03125-3.27735l1.07422.59375m12.98438-1.3164l-5.66016 4.16796m4.83594-3.5625l1.10547.53125m11.32812-2.3828l-2.24609 6.66015m1.91797-5.6914l1.21094-.19923m8.98046-.07421l4.65235 5.26953"/><g clip-path="url(#W)"><path fill="none" stroke="#000" stroke-linecap="round" stroke-linejoin="round" stroke-miterlimit="10" stroke-width=".5" d="M144.40625 343.6875l-.8125 6.98047"/></g><path fill="none" stroke="#000" stroke-linecap="round" stroke-linejoin="round" stroke-miterlimit="10" stroke-width=".5" d="M144.40625 343.6875l2.28516-.89453m11.17968.91406l-1.11328 6.9414m1.11328-6.9414l2.32422-.79297m12.88281 1.7461l-4.89843 5.03515m4.89844-5.03515l2.35937.68359m10.75781-.86328l-4.5 5.39453m4.5-5.39453l2.40235.5039m11.03125-.39843l-4.73828 5.1875m4.73828-5.1875l2.3789.60937m11.20703-.33594L207.9375 349.5m5.27734-4.64063l2.29297.86329m10.96875-.92188l-5.17187 4.7539m5.17187-4.7539l2.3164.8164m10.91407-.90624l-5.0039 4.9336m5.0039-4.9336l2.33984.73047m11.14454-.54688l-5.33985 4.5664m5.33985-4.5664l2.28125.89453M266.10938 344.5l-4.55079 5.35547m4.55078-5.35547l2.39844.52734m10.83594-.59375l-4.38672 5.48829m4.38672-5.48829l2.41406.45313m11.36719-.0039l-5.32031 4.58984m5.32031-4.58985l2.28906.89063m11.16016-.73047l-5.58594 4.26953m5.58594-4.26953l2.23047 1.02344m11.0625-1.05079l-5.54297 4.32422m5.54297-4.32421l2.23828 1m10.78906-1.32032l-4.96875 4.96875m4.96875-4.96875l2.34766.71485m10.45703-1.14063l-3.94531 5.8164m3.9453-5.8164l2.4375.26563m10.67579-.39063l-3.54297 6.07031m3.02735-5.1875l1.22656.04688m12.70703-.86719l-3.75 5.9414m3.20312-5.07812l1.22657.08985m13.05078-.64454l-4.58203 5.32813m3.91796-4.55469l1.19532.26953m12.9336-.90625l-4.87892 5.0547m4.17188-4.32032l1.17578.33984m12.98047-.9414l-5.14844 4.78515m4.39844-4.08984l1.16016.40234m13.3828-.44531l-6.10546 3.48047m5.21875-2.97266l1.03516.65625m13.29687-.91797l-6.36328 2.98829m5.4375-2.55079l.98047.73438m12.07031-2.57031l-3.98437 5.78906m3.40625-4.94922l1.21875.14063m14.14453 1.30468l-6.92188 1.21485m5.91406-1.03907l.75391.96875"/><g clip-path="url(#X)"><path fill="none" stroke="#000" stroke-linecap="round" stroke-linejoin="round" stroke-miterlimit="10" stroke-width=".5" d="M142.07813 330.92188l3.84375 5.8828"/></g><path fill="none" stroke="#000" stroke-linecap="round" stroke-linejoin="round" stroke-miterlimit="10" stroke-width=".5" d="M155.33594 330.96094l3.96094 5.80469m-3.38672-4.96094l.5703-1.08594m15.34767-.16016l-2.39454 6.60938m2.04688-5.64844l1.21484-.17187m10.89063-.98047l.71875 6.99219m-.61719-5.97266l1.01953-.6875m14.61328.3164l-4.11719 5.69532m3.51563-4.86719l1.21484.16797m12.96094-.78906L208.25391 336.5m3.96484-4.50781l1.19531.28125m12.96094-.89453l-4.96875 4.96875m4.2461-4.2461l1.17187.35938m12.79297-1.15235l-4.82422 5.10938m4.1211-4.36719l1.18359.32813m12.5664-1.29688l-4.28906 5.5625m3.66797-4.7539l1.20703.20312m12.63281-1.08594l-4.09375 5.71094m3.5-4.8789l1.21485.16406m12.46875-1.14454l-3.64453 6.00782m3.11718-5.13281l1.22266.0703m12.53515-.99609l-3.47656 6.10938m2.97266-5.21875l1.22656.03515m12.76172-.8203l-3.8125 5.89843m3.25781-5.04297l1.22266.10547m13.22656-.4961l-4.96875 4.96876m4.24219-4.2461l1.17578.35938m12.98047-.96094l-5.19922 4.72656m5.19922-4.72656l2.3086.82813m10.21874-1.47266l-3.625 6.01562m3.625-6.01562l2.44922.1289m8.50781-.59375l1.08985 6.94141m-.9336-5.92969l.98047-.73828m10.1875.76953l5.07422 4.85938m-5.07422-4.85938l.66797-2.36328m12.30469 2.77735l5.75781 4.02734m11.07031-5.46875l-1.26953 6.91406m1.08594-5.90625l1.16797-.3711m11.61719-.6914l.16015 7.02344m-.13672-6.0039l1.06641-.59766m13.86719-.05469l-3.1289 6.28906m2.67577-5.375l1.22656-.03515m13.32422-.35157l-4.6914 5.23438m4.00781-4.47266l1.1914.29297m9.46094-1.80469l2 6.73438m-1.70703-5.7539l.875-.86329m10.23047 5.20703l5.83594-3.91406m-4.98828 3.34375l-1.08203-.57813"/><g clip-path="url(#Y)"><path fill="none" stroke="#000" stroke-linecap="round" stroke-linejoin="round" stroke-miterlimit="10" stroke-width=".5" d="M141.60547 317.97656l4.78906 5.14453"/></g><path fill="none" stroke="#000" stroke-linecap="round" stroke-linejoin="round" stroke-miterlimit="10" stroke-width=".5" d="M154.71484 318.1875l5.20313 4.72266m-5.20313-4.72266l.60157-2.3789m13.30468 1.85546l4.01563 5.76563m-3.42969-4.92578l.5586-1.09375m12.41015.10156l3.53906 6.07422m-3.02343-5.1914l.64453-1.04298m11.66015.51172l4.52735 5.3711m-3.86719-4.58985l.45703-1.14062m11.67578.90234l5.57031 4.28125m-4.7578-3.65625l.20312-1.21094m13.30078-.29687l3.57031 6.05078m-3.05078-5.17188l.63672-1.04687m11.97266.28515l3.9414 5.81641m-3.36719-4.97265l.57422-1.08204m11.82813.4961l4.61719 5.30078m-3.94532-4.53125l.4414-1.14453m12.45704.17187l4.10938 5.70313m-3.51172-4.8711l.54297-1.10156m14.52343-.3789l-.58594 7.0039m.5-5.98437l1.125-.48438m13.6211-.14062l-3.27735 6.21484m14.9922-6.6211l-.07813 7.02735m.0664-6.0039l1.08985-.56641m13.64062-.14844l-2.88672 6.41016m2.46485-5.47657l1.22656-.08203m13.6875.01172l-5.23828 4.6836m4.47656-4.00391l1.14844.42578m11.8711-1.91016l-3.125 6.29297m3.125-6.29297l2.45312-.0703m10.58203-.0547l-2.5664 6.54297m2.5664-6.54297l2.4375-.28125m9.65625.03907l-.1211 7.02734m.10157-6.0039l1.09375-.5586m11.63672-.42188l1.08203 6.94141m-.92188-5.9336l.98047-.73437m10.33985.60938l4.7539 5.17578m-4.0625-4.42188l.40625-1.16015m11.91797.71875l5.35547 4.55078m-4.57813-3.89063l.26172-1.1953m11.97266.94921l5.96094 3.72266m-5.09375-3.1836l.08593-1.22265m12.54688.41406l5.58984 4.26172m-4.77734-3.64063l.19922-1.21094m11.80469 1.4922l6.58593 2.45312m-5.6289-2.09375l-.16016-1.21875m12.3711 2.79297l6.8828-1.41016m-5.8828 1.20313l-.78126-.94532"/><path fill="#00f" fill-rule="evenodd" d="M419.3086 427.70313h8.61718v-10.14454h-8.61719v10.14454"/><path fill="azure" fill-rule="evenodd" d="M421.14063 419.39063h.83203v2.82421h3.28515v-2.82421h.83594v6.48046h-.83594v-2.91796h-3.28515v2.91796h-.83204v-6.48046"/><path fill="#ff3030" fill-rule="evenodd" d="M375.61719 418.82813h7.69531v-10.14844h-7.69531v10.14844"/><path fill="azure" fill-rule="evenodd" d="M377.44922 410.51172h.83594v5.74219h3.1914v.73828h-4.02734v-6.48047"/><path fill="#ff3030" fill-rule="evenodd" d="M295.72656 414.38672h7.69531v-10.14453h-7.6953v10.14453"/><path fill="azure" fill-rule="evenodd" d="M297.5586 406.07422h.83593v5.74219h3.1914v.73828h-4.02734v-6.48047"/><path fill="#00f" fill-rule="evenodd" d="M370.48438 396.63281h8.62109v-10.14453h-8.6211v10.14453"/><path fill="azure" fill-rule="evenodd" d="M372.3164 388.32031h.83594v2.82422h3.28516v-2.82422h.83203v6.48047h-.83203v-2.91406h-3.28516v2.91406h-.83593v-6.48047"/><path fill="#ff3030" fill-rule="evenodd" d="M184.76953 392.19531h7.6914v-10.14453h-7.6914v10.14453"/><path fill="azure" fill-rule="evenodd" d="M186.60156 383.88281h.83203v5.73828h3.19532v.7422h-4.02735v-6.48048"/><path fill="#ffffe0" fill-rule="evenodd" d="M328.42969 356.53906h22.17969v-10.19531h-22.1797v10.19531"/><path fill-rule="evenodd" d="M331.92969 348.17969h.50781v6.29297h-.78516v-4.48829h-1.39062v-.55468l.5586-.0664.2539-.0547.23047-.08984.20312-.14063.17188-.21093.14453-.29297.10547-.39453m4.8125 0l.23047.01953.21875.05469.20703.08984.19531.1211.1836.14843.17187.17578.30469.41797.24218.4961.1797.54687.10937.57813.03906.58984-.03906.59375-.10938.58594-.17969.55078-.24218.5039-.3047.42579-.17187.17968-.18359.15625-.19531.1211-.20703.09375-.21875.05468-.23047.01954-.23047-.01954-.21875-.05468-.20703-.09375-.19531-.1211-.1836-.15625-.17187-.17969-.3047-.42578-.24218-.5039-.17969-.55078-.10937-.58594-.03906-.59375h.83203l.02734.5625.08203.50781.1289.4414.16017.375.1914.30079.21094.22265.22265.13672.22657.04688.22656-.04688.22266-.13671.21093-.22266.19141-.30078.16016-.375.1289-.4414.07813-.50782.03125-.5625-.03125-.5625-.07813-.5-.1289-.4336-.16016-.36718-.1914-.29297-.21094-.21094-.22266-.13281-.22656-.04688-.22656.04688-.22266.13281-.21094.21094-.1914.29297-.16016.36719-.1289.43359-.08204.5-.02734.5625h-.83203l.03906-.58985.10937-.57812.1797-.54688.24218-.49609.30469-.41797.17187-.17578.1836-.14844.1953-.12109.20704-.08984.21875-.0547.23047-.01952m5.08984 0h.51172v6.29297h-.78906v-4.48829h-1.38672v-.55468l.5586-.0664.2539-.0547.22656-.08984.20313-.14063.17578-.21093.14062-.29297.10547-.39453m2.82422 2.17578h.78906l.01953-.3164.0586-.28907.09765-.25.14063-.21484.17969-.17579.22656-.1289.26172-.08203.3086-.02735.23827.02344.22266.0625.20703.10156.17969.13672.14844.17578.11328.20313.0703.23828.02345.26172-.01954.26953-.0664.22656-.10938.1914-.15625.17188-.19921.16016-.25.16797-.63282.38672-.53515.3125-.4375.32031-.34766.32422-.26563.33594-.1875.34765-.125.3711-.0703.39453-.01954.41797h4.21094v-.73829h-3.33203l.08203-.28515.11328-.23828.14844-.19922.1875-.1836.23047-.16796.27734-.17579.71875-.41796.41406-.20704.34766-.23046.28125-.25.21875-.26563.16406-.28125.10938-.28125.0664-.28515.01953-.28125-.04296-.38282-.1211-.34765-.1875-.3086-.25-.26172-.30469-.21484-.34375-.15625-.3828-.10156-.40626-.03125-.4336.03125-.39843.09765-.35547.16797-.30469.23438-.24609.30469-.1875.375-.11719.4453-.03906.51954"/><path fill="#ffffe0" fill-rule="evenodd" d="M195.27734 350.38672h22.1797v-10.1914h-22.1797v10.1914"/><path fill-rule="evenodd" d="M198.77734 342.02734h.50782v6.29297H198.5v-4.48828h-1.39063v-.55469l.5625-.0664.25-.05078.23047-.08985.20313-.14453.17578-.20703.14063-.29688.10546-.39453m4.8125 0l.23047.01954.21875.05468.20703.08985.19922.12109.1836.14844.17187.17578.30078.42187.24219.4922.17969.54687.11328.57812.03906.58985-.03906.59375-.11328.58593-.17969.55469-.24219.5-.30078.42969-.17187.17969-.1836.15234-.19922.125-.20703.08984-.21875.0586-.23047.01953-.22656-.01953-.21875-.0586-.21094-.08984-.1953-.125-.1836-.15235-.17188-.17968-.30078-.42969-.24219-.5-.18359-.55469-.10938-.58594-.03906-.59375h.83203l.03125.56641.08203.5039.125.44141.16407.375.1875.30079.21094.22265.22265.13672.22656.04688.22657-.04688.22265-.13672.21094-.22265.1914-.30079.16407-.375.125-.4414.08203-.5039.02734-.56642-.02734-.55859-.08203-.5-.125-.4375-.16406-.36328-.19141-.29297-.21094-.21484-.22265-.13281-.22657-.04297-.22656.04296-.22266.13282-.21093.21484-.1875.29297-.16406.36328-.125.4375-.08204.5-.03125.5586h-.83203l.03906-.58985.10938-.57812.1836-.54688.24218-.49219.30078-.42187.17188-.17578.1836-.14844.1953-.1211.21094-.08984.21875-.05469.22656-.01953m5.09375 0h.50782v6.29297h-.78516v-4.48828h-1.39063v-.55469l.5625-.0664.25-.05078.23047-.08985.20313-.14453.17187-.20703.14453-.29688.10547-.39453m2.82422 2.17579h.78516l.01953-.31641.0586-.28516.10156-.2539.13672-.21485.18359-.17578.22266-.1289.26562-.07813.3086-.02734.23827.01953.22266.0625.20313.10156.17968.14063.14844.17187.11328.20703.07031.23438.02735.26562-.02344.26953-.0664.22266-.10938.1914-.15234.17188-.20313.16406-.2461.16406-.6328.39063-.53907.3125-.4375.3164-.34765.32423-.26172.33593-.1914.35156-.125.3711-.07032.39062-.01953.41797h4.21094v-.73828h-3.33204l.08203-.28515.1172-.23438.14452-.20313.1875-.17968.23047-.17188.28125-.17578.71485-.41797.41797-.20312.34375-.23047.28125-.2539.21875-.26563.16406-.27735.11328-.28515.0625-.28516.01953-.28125-.04297-.38281-.11719-.34766-.1914-.3086-.25-.26171-.30078-.21484-.34766-.15625-.3789-.09766-.40626-.03516-.4375.03125-.39843.10157-.35157.16406-.30468.23437-.25.3047-.1836.375-.11719.4453-.03906.51954"/></g></defs><use xlink:href="#Z"/></svg>