<svg xmlns="http://www.w3.org/2000/svg" role="img" xmlns:xlink="http://www.w3.org/1999/xlink" viewBox="142.45 309.95 326.84 171.84"><defs><clipPath id="a"><path d="M144 311.67188h1v168.65625h-1zm0 0"/></clipPath><clipPath id="b"><path d="M144 311.67188h324v168.65625H144zm0 0"/></clipPath><clipPath id="c"><path d="M467 311.67188h1v168.65625h-1zm0 0"/></clipPath><clipPath id="d"><path d="M144 480h4v.32813h-4zm0 0"/></clipPath><clipPath id="e"><path d="M146 480h2v.32813h-2zm0 0"/></clipPath><clipPath id="f"><path d="M153 479h9v1.32813h-9zm0 0"/></clipPath><clipPath id="g"><path d="M160 480h2v.32813h-2zm0 0"/></clipPath><clipPath id="h"><path d="M166 479h9v1.32813h-9zm0 0"/></clipPath><clipPath id="i"><path d="M173 480h2v.32813h-2zm0 0"/></clipPath><clipPath id="j"><path d="M180 479h8v1.32813h-8zm0 0"/></clipPath><clipPath id="k"><path d="M187 480h2v.32813h-2zm0 0"/></clipPath><clipPath id="l"><path d="M193 479h8v1.32813h-8zm0 0"/></clipPath><clipPath id="m"><path d="M200 480h2v.32813h-2zm0 0"/></clipPath><clipPath id="n"><path d="M206 479h9v1.32813h-9zm0 0"/></clipPath><clipPath id="o"><path d="M213 480h3v.32813h-3zm0 0"/></clipPath><clipPath id="p"><path d="M220 479h8v1.32813h-8zm0 0"/></clipPath><clipPath id="q"><path d="M227 479h2v1.32813h-2zm0 0"/></clipPath><clipPath id="r"><path d="M233 479h8v1.32813h-8zm0 0"/></clipPath><clipPath id="s"><path d="M240 479h3v1.32813h-3zm0 0"/></clipPath><clipPath id="t"><path d="M246 478h9v2.32813h-9zm0 0"/></clipPath><clipPath id="u"><path d="M253 478h3v2.32813h-3zm0 0"/></clipPath><clipPath id="v"><path d="M260 478h8v2.32813h-8zm0 0"/></clipPath><clipPath id="w"><path d="M266 478h4v2.32813h-4zm0 0"/></clipPath><clipPath id="x"><path d="M273 479h8v1.32813h-8zm0 0"/></clipPath><clipPath id="y"><path d="M279 479h2v1.32813h-2zm0 0"/></clipPath><clipPath id="z"><path d="M286 480h9v.32813h-9zm0 0"/></clipPath><clipPath id="A"><path d="M292 480h2v.32813h-2zm0 0"/></clipPath><clipPath id="B"><path d="M300 479h8v1.32813h-8zm0 0"/></clipPath><clipPath id="C"><path d="M306 479h2v1.32813h-2zm0 0"/></clipPath><clipPath id="D"><path d="M313 479h8v1.32813h-8zm0 0"/></clipPath><clipPath id="E"><path d="M319 479h2v1.32813h-2zm0 0"/></clipPath><clipPath id="F"><path d="M327 478h7v2.32813h-7zm0 0"/></clipPath><clipPath id="G"><path d="M342 476h3v4.32813h-3zm0 0"/></clipPath><clipPath id="H"><path d="M353 478h8v2.32813h-8zm0 0"/></clipPath><clipPath id="I"><path d="M366 479h9v1.32813h-9zm0 0"/></clipPath><clipPath id="J"><path d="M367 478h2v2.32813h-2zm0 0"/></clipPath><clipPath id="K"><path d="M380 479h8v1.32813h-8zm0 0"/></clipPath><clipPath id="L"><path d="M393 478h8v2.32813h-8zm0 0"/></clipPath><clipPath id="M"><path d="M406 479h8v1.32813h-8zm0 0"/></clipPath><clipPath id="N"><path d="M420 478h7v2.32813h-7zm0 0"/></clipPath><clipPath id="O"><path d="M433 477h7v3.32813h-7zm0 0"/></clipPath><clipPath id="P"><path d="M447 477h6v3.32813h-6zm0 0"/></clipPath><clipPath id="Q"><path d="M460 478h7v2.32813h-7zm0 0"/></clipPath><clipPath id="R"><path d="M144 466h4v2h-4zm0 0"/></clipPath><clipPath id="S"><path d="M144 452h4v3h-4zm0 0"/></clipPath><clipPath id="T"><path d="M144 439h4v3h-4zm0 0"/></clipPath><clipPath id="U"><path d="M465 437h3v2h-3zm0 0"/></clipPath><clipPath id="V"><path d="M144 424h3v6h-3zm0 0"/></clipPath><clipPath id="W"><path d="M465 424h3v2h-3zm0 0"/></clipPath><clipPath id="X"><path d="M144 410h3v7h-3zm0 0"/></clipPath><clipPath id="Y"><path d="M465 410h3v2h-3zm0 0"/></clipPath><clipPath id="Z"><path d="M144 398h4v5h-4zm0 0"/></clipPath><clipPath id="aa"><path d="M465 397h3v3h-3zm0 0"/></clipPath><clipPath id="ab"><path d="M144 384h3v6h-3zm0 0"/></clipPath><clipPath id="ac"><path d="M144 370h2v8h-2zm0 0"/></clipPath><clipPath id="ad"><path d="M144 357h2v7h-2zm0 0"/></clipPath><clipPath id="ae"><path d="M144 355h1v3h-1zm0 0"/></clipPath><clipPath id="af"><path d="M144 344h4v6h-4zm0 0"/></clipPath><clipPath id="ag"><path d="M144 331h3v6h-3zm0 0"/></clipPath><clipPath id="ah"><path d="M144 316h1v9h-1zm0 0"/></clipPath><clipPath id="ai"><path d="M144 317h1v2h-1zm0 0"/></clipPath><clipPath id="aj"><path d="M465 317h3v3h-3zm0 0"/></clipPath><g id="ak" clip-path="url(#clip1)"><path fill="#fff" fill-opacity="0" fill-rule="evenodd" d="M0 0h1000v1000H0zm0 0"/><path fill="#d3d3d3" fill-opacity="0" fill-rule="evenodd" d="M162.15234 355.86719l-.23437.29297.0586.23437.11718.17188.17578.23437.29297.34766.11328.0586.11719-.17188.0586-.23438.17577-.17578.46485-.17578h.69922l.23437.29297.28906.8164.0586.17579.17578.23046.35156.23438.69922.69922.17188.17578.23437.34765.23438.41016.28906.58203.41015.46485.23047.23437.23438.17578.11719.23047.17578.29297.17187 1.16406v.23438l.0586.28906.05859.11719.11719.11719.34765.41015.11719.17188.17578.17578.17578.23437.11719.17188.17188.35156.05859.23438.23437.40625.23438-.0586-.17578.17578-.0586.92969h-.58203l-.23437-.11328-.34766.11328-.11719.11719-.05859.29297-.0586.17578-.11718.17187-.46484.29297-.0586.23438-.0586.11328v.64453l.0586.17187v.41016l.0586.0586v.40624l.05859.40625.11719.17579.05859.05859.23047.64062-.0586.29297v.69922l-.05859.58203v.23438l-.0586.23047-.05468.35156v1.92187l.05469.1172h.42578l-.36719.11718-.02344.35156.89063 1.16797 1.74219.53906 1.33984.35938v.53906l.08984.8086.53516.71484 1.51953.26953.89063-.08594.08984 1.16406.53516.1797 1.16015-.1797 2.05469-.98437 1.16016-.36328 1.8789-.17578 1.69531-.1797-.17968.71876-1.51563.08594-1.25.08984-.80469.26953-1.07421.8086.26953.71875.53515.89843-.17968.625-.26563.8086.26563 1.07812.625.89844.80468.17969 1.25-.1797-.26562.72267.09766.5039.05468.29297v.17188l.0586.29296v.40625l.17578.1172.35156.11718h.40625l.29297-.17578.11328-.11719.0586-.11719.11718-.23047.0586-.17578.35156-.46484.23047-.17578.17578-.0586.17578.0586.0586.17578.11718.98828.05469.46875.0586.17188.11718.23437.17578.0586.8164.05859h.28907l.11719.23437.05859.40625.0586.35156v1.10547l.11718.29297.11719.34766.28906.69922.17578.35156.58203.7539.35157.17579.17187.0586.46875.23437.64063.46484.34765.23438.29297.17578.29297.05468.23047.0625.8164.34766.29297.17578.11328.17188.35157.35156.11719.17578.52343.64063v.28906l.0586.35156v.34766l.05859.35156.0586.28906.11718.0586.17188.05859h.17578l.58203.23437.17578.1172.17578.28905.17578.23438.11328.23437.29297.23047.11719.11719v.41016l.0586.05468.28906.23438.23437.11719.0586.11718.11718.17188.0586.11719.23047.23437.05859.17578.23437.0586.1172.05859-.1172.11328-.05859.11719v.11719l-.11719.29296-.11719.28907v.58203l.17579.11719.11718.05859.0586.11719.11719.11719.11328.05859.17578.34765.0586.35157.05858.40625v.17578l-.05859.17578-.11719.69922v.17187l.1172.17579.29296.29296h.40625l.17578.1172.11719.17187.11719.29296v.23438h-.52735l-.23047-.23438h-.23437l-.17578.0586-.0586.69922.0586.34765.11719.17579.17578.41015.11718.23047.28907.46875.17578.05469h.52344l.23437.0586.75781.64062.0586.29296v.23438l.05859.0586.23047.34765v.35156l-.11719.17188v.29297l.29297.28906.29297.17578.17187.0586.29297.17577.29297.1172.58203.40624.28906.23438.29297.17578.21875.16015.01563.01172.23047.17579.64062.52343.17578.23438.1172.17578.17577.17578.11328.17188v.64062l.1172.17578.46874.11719.58203.11719.23438.05859.23047.11328.29297.11719.11328.0586.58593.35156.28907.17187.17578.0625.17578.05469.17578.0586.69922.35155.28906.17579.23438.05468.28906.17578.23437.1172.64063.40624.29297.11719.17187.0586.23438.05859.41015.05859.23047.0586.23438.11718.0586.17188-.41017.17578.46875.0586.0586.29296.11328.23438.17578.05468.23438.0586.17578.05859.40625.11719.64062.23437.11719.17188.0586.23437v.17578l-.0586.1172-.0586.40624.23438.23438.11719.05859.34766.11719.64062.23047.17578.11718.28906.1172.17578.17577.23438.46485.58203 1.10546.17578.17579.34766.17578.17578.11719.35156.11718 1.04688.52344.23437.0586.46485.11327.29297.0586.46484.17578.75781.58203.23438.23438.34765.46484.17578.17578.28907.23438.8164.69921.29297.17579.28906.28906.29297.17578.29297.28906.69531.64063.17578.17578.29297.23437.28907.23438.46875.28906.64062.58203.34766.23438.23437.29297.34766.34765.35156.46485.9336.99218.34765.40625.11719.17579.23437.05859.11328.11719.64454.17578.23047.11328.23437.0586.29297.17577.23047.1172.9336.69921.40624.40625.23438.17578.40625.17578.23437.11719.8164.34766.34766.23437.23438.11719.29297.28906.23047.11719.7578.35156.35157.17188.23047.05859.29297.11719.23437.0586.8711.17577h.8164l.46875.23047.17188.0586.875.69921.46484.1172.29297.05858.17578.0586.23047.0586.46875.05859.34766.05859.35156.0586.40625.05859h.29297l.17187.0586v.23046l.17578.17578h.29297l.34766.0586.35156.05859.69922.11719h.64063l.46484-.23438.29297-.17578.17187-.11719.41016-.17187.28906-.17578.9336-.46485.46875-.29297.52343-.29296.46485-.17188.46484-.17578 1.05078-.46485.28906-.11718.41016-.11719.28906-.11719.52735-.17578 1.51562-.69922.58203-.34765.28907-.0586.29297-.0586.34765-.11718.875-.23047.35156-.11719h.11329l.23437-.05859.875-.23437.23438-.0586h.8125l.35156-.0586.8164-.11718.17188-.0586.35156-.05468.29297-.0586.23047-.05859.8164-.17578.17579-.0586h.34765l.23438-.05859.46484-.11718.75781-.17188.23438-.0586h.34765l.41016-.11718.28906-.0586 1.28516-.05859h.28906l.41016-.0586.23047-.05858h.17578l.875-.1172h.40625l.41015-.11718h.34766l.35156-.11328.8711-.0586h1.75l1.04687.28907.41016.11719.28906.11718.35156.11719.28907.11719 1.05078.17187.28906.0586h.29297l.29297.05859.17187.0586.41016.05859.17187.0586.1172.05858h.11718l.11719.0586.35156.0586h.11328l.41016.0664 1.92187.39453 1.92578.39453 1.51953.44922 1.69532.71875 2.14453.80469 1.60547-.71875 1.42968-.80469 1.16016-1.07813 1.25-.44921 3.03516-.71875 1.875-.35938 2.14453-1.34765 2.23437-1.25391 2.5-1.25781 1.69531-.44922 1.78516-.17969 1.16016-.26953.625.53906 1.33984-.26953.71485-.98828.98437-1.34375.44531-.17969.80469-.35937 1.875-.53907 1.78516-.44921 1.25-.26954 1.16015-.08984 1.69922-.08984 1.96094-.26954 1.25-.08984h.53906l.625-.08984h.89063l2.14453-.17969 2.41015-.17969 2.58985-.08984 1.69531.17969 1.60938.08984 1.42968.35938 1.16016.71875 1.875.98828 1.16015 1.52734.26563.71484.6289.08985.35548.89844.53515.53906.53516 1.52734 1.07422.35938h.53515l-.80469.53515.08985 1.70703.71484 2.69532.89063.80468.89453.98829.71484 1.2578 1.78516.53907 1.51953-.17969.35547 1.34375 1.60937-.80469.98047-.53906.26953.26953.31641-.21484.21875-.14453.80078.44922.44922-.35938h.35547l.53515-.26953.53907-.71875.53515-.26953.625-.98828 1.16016.44922.83984.3711 1.39454.61718 1.6953-.17969h1.60548l1.78515.08985.17969-1.70704.53516-1.34375.80468.26954.4922.84765.40233.40625-.08984.53906v.35938l.71485.44922.71093-.26953h1.42969l.35938.98828.4453 1.25781.71485 1.34375 1.25.6289 1.69531.62891.71485-.17969.17969-.53906.98046-.08984.44922.35937.08594 1.25782-.26563.6289-.53515.17969v.53906l.71484.98438.26563.53906.98437.98828.80078 1.07813-.26562.35937-.08985.89844-.625 2.33203-.35546 2.0664-.08985 1.79298-.17969.71875-.08984.53906v1.4375l-.98047 1.88281-.35937 1.70703-.53516.89844-.80469 1.16797-.26562.53906 2.05469 1.2539.08593.35938-.35546.53906-.08985-.17968v.80859l.08985 1.4375-.44532.71484-1.07422.09375-.26562.71485.53515.89844.8047.71875 1.16015.80859 1.33984.26953.44531.35938-.35546.44921-1.78907-.08984-1.25-.44922-.71484-.71875-.625-.08984-.17578 3.58984-.1875 1.3086h89.35937V311.70313h-55.26953v49.08203l.76172.125 3.28906.54296 2.02344 2.83594v2.7539l2.35156.33204 2.34766.33203h4.05078l-1.3789 4.16016-2.02344.70703-2.02344.70312-.54297.34375-2.59375 1.6172-.1875.11718-2.02344-2.07813-.73046-2.74218-2.67188-2.07813-1.375-3.5-.0664-.08203-1.95704-2.67188 2.75-1.41796v-49.08204H294.42187v91.41407l.1172.03125.1328.01172.07422.07421.10547.04688.08985.0586.08593.05859.08985.0586.29687.29687.0586.08984.03125.11719.02734.11719.01563.13671-.03125.1172-.0586.08983-.0586.08594-.04296.10547-.04688.10156-.02734.1211v.14453l.17578.26953.14844.14844.07422.08594.07422.07421.04296.10547.0625.08985.0586.08593.04297.10547.0586.08985.04687.10156.04296.10547.0586.08594.11719.17968.07421.07422.0625.08594.0586.08984.04297.10547.0586.08985.05858.08593.0625.08985.0586.08984.04297.10156.11719.17969.07421.07422.0586.08594.07422.07421.08984.0586.10547.04687h.14844l.1328-.01562.13282.01562.10156-.04687.07422-.07422.04688-.10156-.01563-.13281v-.14844l-.04687-.10547-.02735-.11719-.04687-.10156-.02735-.1211-.04296-.10156-.0625-.08984-.04297-.10156-.04297-.10547-.03125-.11719-.01563-.13281-.01171-.13672.08593-.0586.0586-.08593.12109-.03125.04297.10547.01562.1328v.1172l.0586.10156.0586.08984.08983.0586.14844.14843.0586.08985.04296.10547-.01171.10156.08593.0586.10547.04687.08594.0586.08984.05858.07422.07422-.11719.02735-.10546.04687-.08594.0586-.07422.07421-.0586.08985-.0625.08594-.02734.12109-.04687.10156-.04297.10547-.03125.11719-.01172.13281-.01563.13281v.14844l.02735.11719.04687.10547.04297.10156.0586.08984.07421.07422.08985.0586.07422.07421.08984.0586.0586.08984.04296.10547.04688.10156.11719.03125.1328.01563h.14845l.11718-.03125.10547.04297.04297.10547.04688.10156.02734.1211L299.5 410l.02734.11719.03125.1211.02735.11718.10547.04297.10156.04687.13281-.01562.14844.14844.0625.08593.07422.07422.07031.07422.08984.0625.10547.04297.10156.04297.1172.03125.13671.01562.11719-.03125.07422-.07422.02734-.11718-.01172-.13282-.03125-.12109-.02734-.11719.04297-.10547h.11719l.08984.0625.11719.02735h.14843l.13282.01562h.14843l.13282.01563.1328-.01563h.14845l.1328-.01562.13282-.01172.13672.01172.11719-.02735.13281-.01562.1914-.0586-.05859.17579-.01562.1328-.02735.1211-.01562.13281-.0586.08594-.1328.01563-.10548.04687-.10546.04297-.1172.03125-.11718.02735-.26563.03125h-.14843l-.13281.01562-.07422.07422.05859.08594.14844.14843.11719.1797.07421.0703.08985.0625.08984.0586.08594.0586.08984.05858.10156.04297.10547.0625.10547.04297.08594.0586.10547.04687.10156.04297.17969.11719.0586.08984-.04298.10156-.04687.10547.01562.13281.22266.22266.0586.08985.04296.10156.03125.1211.04297.10155.01563.13282.03125.11718.01171.13672.03125.11719.14844.14844.10156.04297.10547.04296.1172.03125.1328.01563.13672.01563h.11719l.11719-.03125.08984-.0586.04297-.10547.04688-.10156.04296-.10547.03125-.11719.01172-.1328v-.14845l-.01172-.1328-.01562-.13282-.03125-.11719-.04297-.10547-.04688-.10547-.04296-.10156-.04297-.10547-.01563-.13281.01563-.13281.02734-.11719.03125-.11719.02735-.1211.04687-.10155.08984-.0586.08594-.0625.07422-.07422.08984-.05859.22266-.22266.0586-.08593.07421-.07422.11719-.17969.0586-.08594v-.14844l-.07423-.07421-.10156-.04688-.10547-.04297-.10156-.04297-.0586-.08984-.04687-.10547-.02734-.11719.08984-.05859.11719-.03125.10156-.04297.17969-.11719.14844-.14843.01172-.13282-.01172-.10546-.08985-.0586-.1328.01563h-.14845l-.1328.01562-.13282-.01562-.1211-.03125-.08593-.0586-.07422-.07422-.0586-.08984-.0625-.08594-.11718-.17969-.0586-.08593.03125-.1211.08594-.05859.1211-.03125.05859-.08594v-.1211l-.03125-.11718-.0586-.08984-.05859-.08594-.04687-.10547-.02735-.11719-.01562-.1328.0586-.08985.07421-.07422.08984-.0586.1172-.17968.07421-.07422.0586-.08594.14843-.14844.1211-.03125.1328-.01562.13282.01562.07422.07422.04297.10547.01562.13281-.03125.1172-.11719.03124-.1328.01172-.14844.14844-.04297.10547-.04688.10156-.02734.1211-.03125.11718v.14844l.03125.11719.04297.10546.05859.08985.07422.07031.07422.07422.11719.03125.12109.02734.11719-.02734.1328-.01563h.1172l.08984.0586.07422.07422.04687.10546.0586.08594.10156.04688.13281.01562.10547.04297.08594.0586-.01172.10546-.07422.07422-.17969.11719-.05859.08984-.08984.0586-.07032.07422-.07421.07421-.0625.08985-.02735.11719-.01562.1328.01562.13282-.01562.13281v.14844l.01562.13281.02735.1172.03125.12108.07421.07422.08985.0586.08594.0586.08984.05858.11719.03125v.08594l-.10157.04688-.08984.0586-.26563.03124-.11718.02735h-.14844l-.10547.04296-.10156.04688-.0586.08984-.0625.23438-.01171.13281-.03125.1211-.01563.1328v.29298l-.01172.1328.01172.13673.01563.1328.1328.01563.13282.01172.1211.03125.08593.0586.07422.07421.04688.10547.04296.10157.01563.1328v.44532l-.01563.13281v.44532l.03125.26562.02735.11719.01562.13281.03125.11719.08594.21094.03125.26562v.14844l-.03125.11719-.02734.11718-.03125.1211-.02735.11719-.03125.11718-.03125.1211-.01171.1328-.01563.13282.08984.0586.1172-.03125.10155.01562.04688.10547-.03125.26562v.44141l-.04297.10547-.04688.10547-.04296.10156-.04297.10547-.0586.08594-.03125.12109-.04296.11719-.03125.11719-.01563.1328.01563.13282.05859.08984.10547.04688.08594.0586.05859.08593-.01172.13672-.03125.11719-.04297.10156v.44531l-.01562.13281v.14844l-.03125.11719-.04297.10547-.02735.11719-.04687.10546-.04297.10157-.03125.12109-.02734.11719-.03125.13281-.03125.11719-.02735.11719-.04297.10546-.03125.1172-.03125.12108-.01171.13282-.01563.13281v.29688l.02734.11718v.14844l.04688.39844.02734.11719.0586.08984.12109.03125h.14844l.13281-.01563.0586.08985v.11719l-.0586.08984-.08984.0586-.10157.04296-.10546.04688-.08985.05859-.08594.0586-.13671.01562-.1172-.03125-.1328-.01563-.10157.04688-.0625.08594-.01172.13671-.01562.13282-.03125.11719-.02735.11718-.01562.13281-.03125.1211v.29687l.01563.13282.03125.11718v.14844l.01171.13281v.14844l-.02734.11719-.04688.10156-.02734.1211-.03125.11718-.0586.08985-.07421.07421-.10156.04297-.10547.04688-.11719.02734-.1211.03125-.10156-.04687.0586-.08594.10547-.04688.02734-.11718.03125-.11719.02734-.1211.03125-.11718v-.14844l.01563-.13281-.03125-.11719-.04297-.10547-.10547.01563-.07422.07422-.10156.04296-.08984.0625-.07422.07422-.04297.10157-.01563.1328-.03125.1172L304.25 426l-.03125.11719-.02734.11719-.03125.12109-.02735.11719-.03125.11718-.04297.10547-.08984.0586h-.08984l-.1172-.03125-.03124-.08594.01562-.13672-.03125-.11719v-.14844l-.01171-.1328v-.14844l-.0625-.23438-.02735-.1211-.04297-.10156-.04687-.10546-.0586-.08594-.05859-.08985-.04297-.10546-.0625-.08594-.14844-.14844-.0703-.07422-.10548-.04687-.10547-.04297-.10156-.04297-.29687-.29688-.08985-.07421-.08594-.0586-.10546-.04297-.08985-.0625-.08594-.0586-.10546-.04296-.08985-.0586-.08594-.0625-.07421-.0703-.10547-.04688-.08594-.0586-.10547-.04296-.08984-.0625-.10156-.04297-.10547-.04297-.08594-.0586-.10547-.04687-.10547-.04297-.10156-.04687-.08985-.0586-.10156-.04297-.10547-.04296-.08984-.0625-.11719-.02735-.13281-.01562-.13281.01562H299.75l-.13281.01563-.11719-.03125-.08984-.0586-.07422-.07422-.08985-.05859-.10156-.04688h-.14844l-.12109-.02734-.10156-.04297-.07422-.07422-.11719-.17968-.08984-.0586-.10156-.04297-.08985-.0625-.10547-.04296-.08984-.0586-.08594-.0586-.10547-.04687-.0586-.08594-.05858-.08984-.04297-.10547-.04688-.10156-.07422-.07422-.08594-.0586-.07421-.07421-.08985-.0586-.22265-.22265-.04297-.10547-.03125-.26563.10547-.04296h.14453l.10547.04296.07421.07422.08985.0586.08594.0586.10546.04687.08985.05859.14844.14844.0703.07422.14845.14843.0625.08594.07421.07422.08594.0586.07422.07421.08985.0625.08984.0586.08594.05859.26953.17578.10156.04688.10547.04296.10156.04297.04688-.07421.05859-.08594.07422-.07422.07031-.07422.10547.04297.07422.07422.0586.08984.04296.10156.04688.10547.04296.10547.1211.02735.11719-.02735.07421-.08984.04297-.10547.0586-.08985.07422-.07421.10546-.04297.1172-.02735.1328.01172.08985.0586.14844.14843.05859.08985.04297.10547.04687.10156.04297.10547.04297.10156.10547.04688.10547.04296.13281.01563.08594-.0586.0586-.08984.07421-.07422.10547-.04297.11719.02735.10547.04687.10156.04297.10547.04297.10156.04688.17969.11718v.11719l-.01563.13281.01563.13281.01562.13672.0586.08594.10156.04688.1211.02734.11718.03125h.14844l.11719-.03125.05859-.08984.17969-.1172.05859-.08983.07422-.07422.0586-.08594.11718-.17969.17969-.11719.11719.03125.08984.0586.04297.07422-.01563.1328v.1172l.08985.05859h.14843l.13282-.01563.1328-.01171.26563-.03125.10547-.04297.11719-.03125.1211-.02735.07421-.07421.07031-.07422.0625-.08985-.01562-.10547-.04688-.10156-.10156-.04297-.10547-.01562-.11718.02734-.26563.03125h-.14844l-.07421-.07422-.08985-.0586-.11719-.03124-.11718-.02735-.13282-.01562h-.14843l-.13282.01563h-.29687l-.10547-.04688-.14844-.14844-.04297-.10156-.05859-.08984.22266-.22266.08593-.0586.10547-.04296.11719-.03125.13281-.01563.13281.01563.13672.01562.10157.04297.1328-.01172.08985-.0625.10156-.04297.0625-.08984-.04687-.10156-.08984-.0586-.1172-.03125-.10155-.04296-.0586-.08985-.0625-.08984v-.11719l.01563-.13281.10547-.04688.07421-.07031v-.1211l-.08984-.05859-.03125-.11719.08985-.05859.07421-.07422.04297-.10547.0586-.08984.04687-.10156.01563-.13281v-.14844l-.04688-.10547-.04297-.10156-.08984-.0586-.13281-.01562-.10157-.04297-.13671-.01563-.1172-.03125h-.4453l-.13282-.01562-.13281-.01172-.13281-.01563-.11719-.03125h-.14844l-.13281-.01562-.13281-.01172-.26563-.03125-.1211-.04297-.08593-.0586-.07422-.07421v-.14844l.01172-.13281.10547-.04688.10156-.04296.13281-.01563h.15235l.13281-.01562h.29297l.1211.03125.10156.04296.08984.0586.23438.0625.12109-.04688.08984-.05859.10156-.04297.13282-.01562.10547.04296.10156.04688.13281.01172.1211-.02735h.14453l.12109-.03125.11719-.02734.10547-.04687.07421-.07422.08594-.0586.14844-.14843.0586-.08594.04687-.10547.02734-.11719.01563-.10547-.10156-.04296-.08985-.0586-.11719-.03125-.10546-.04297-.08985-.0625-.07422-.08594-.07422-.07421-.10156-.04297-.10547-.04688-.10156-.04297-.0586-.08984-.04687-.10156-.08594-.21094-.0625-.08594-.05859-.08984-.07422-.07422-.08594-.0586h-.26953l-.11719.03126-.08984.05859-.10156.04297-.13281.01562-.10547-.01562-.02735-.11719-.0625-.08984-.11718-.03125-.10157-.04297-.14843-.14844-.03125-.11719-.01563-.10546.07422-.07422.17969-.1172.11719-.02733.11718-.03125.13672.01562.10156.04297.10547.04297.10156.04687.10547.04297.1172.03125.1328.01563.1172.02734.1328.01563.10547-.01563.08985-.0586-.07422-.07421-.10547-.04297-.07422-.07422-.07422-.08984-.14844-.14844-.08593-.0586-.08985-.05859-.07422-.07422-.08984-.0586-.10156-.04687-.1211-.02734-.10156-.04688-.10547-.04296-.11719-.03125-.10156-.04297-.1211-.03125h-.14843l-.11719.03125-.10546.04297-.08594.0625-.17969.11718-.08594.0586-.08984.0586-.10547.04687-.08594.05859-.10547.04297-.10156.04297-.10547.04687-.07422.07422-.05859.08985-.0586.08593-.04687.10547-.0586.08594-.07421.07422-.13281-.01172-.1172-.03125h-.11718l-.07422.07422-.08984.0586-.07422.07421-.08984.0586-.08594.05859-.10547.04687-.10156.04297-.13672.01563-.10156-.04297-.14844-.14844-.10547-.04688h-.08594l-.10547.04688-.10156.04297-.1211.03125-.11718-.03125-.07422-.07422v-.11719l.03125-.1211.07422-.0703.0586-.08985.07421-.07422.11719-.03125.10547-.04296h.29297l.13281-.01563.13672-.01563.10156-.04296.08985-.0586.10156-.04687.08984-.0586.13281-.01171.08985.05859.13281.01172.08984-.0586.08594-.05859.10547-.04297.08984-.0586.08594-.0625.08985-.05859.14843-.14843.0586-.08594.05859-.08985.10547-.04296.13281-.01563.11719.02735.1211.03125.05859-.0586.05859-.08984.03125-.26563.02734-.11719.10547.01172.13281.01563.10157-.04297.08984-.0586.0586-.08984.07421-.07422.0586-.08984.04687-.10156.01172-.13281-.01172-.13282-.04687-.10547-.14844-.14843-.0586-.08985-.05859-.08594-.04297-.10546v-.44532l.01563-.1328v-.14845l.01172-.1328-.0586-.0586-.08984.0586-.10156-.04298-.17969-.11719-.08594-.05859-.0625-.08984-.0586-.08985-.07421-.07421-.08594-.0586-.1211.03125-.10155.01172-.10547.04688-.08594.05859-.10547.04297-.14844.14844-.08984.05859-.08594.0586-.08984.0625-.10547.04296-.13281.01563v-.1211l.10547-.04297.11718-.03125.07422-.0703.04297-.10548v-.14844l-.02734-.11718-.14844-.14844-.13281-.01563h-.14844l-.11719.03125-.10547.04297-.10156.04297-.08984.0625-.11719.02735-.07422-.07422.01172-.13281-.04297-.10157-.04297-.10547-.08984-.05859-.11719.02734-.1211.03125-.11718.03125-.10156.04297-.1211.03125-.10156.04297-.10547.04297-.08984.0586-.10156.01562v-.11719l.01562-.13281-.0586-.08985-.07421.04297-.14844.14844-.0586.08985-.07421.07421-.04688.10547-.04296.10156-.07422.07422-.0586.08985-.07422.07422-.05859.08593-.07422.07422-.08984.0625-.07422.07031-.07422.07422-.10156.01563-.13281.01562-.10547-.04296v-.1211l.14843-.14844.04297-.10156.0586-.08984.04687-.10156.04297-.10547.0586-.08985.03124-.11719.04297-.10156.03125-.1211.02735-.11718.04687-.10547.04297-.10156.04297-.10547.07422-.07031.08984-.0625.08985-.0586.10156-.04296h.29687l.26563-.03125.10547-.04297-.07422-.07422-.11719-.03125-.10547-.04297-.08984-.0586-.10156-.04687-.08985-.0586-.10156-.04296-.10547-.04297-.08984-.0625-.08594-.0586-.10547-.04296-.10156-.04297-.1211-.03125-.11718-.03125-.10157-.04297L297.5 410.25l-.10156-.04297-.08985-.0586-.04296-.10546-.01563-.13281.10156-.04297.13281-.01563.13672.01563.13282-.01563.10156-.04297.0586-.08984.01562-.10547-.08985-.0586-.07421-.07421-.10157-.04297-.08984-.0586-.14844-.14843-.04297-.10547-.01562-.13281v-.29297l-.0586-.08985-.08984-.05859-.07422-.07422-.04297-.10547-.03125-.11718-.0586-.08985-.07421-.07422-.11719-.02734-.07422-.07422-.08984-.0586-.08984-.0625-.08594-.05859-.07422-.07421-.0586-.08594-.04687-.10547-.08594-.0586-.14843-.14843-.19532-.0586-.1328.01563-.10157.04297-.07422.07422-.04688.10156-.04296.10547-.0586.08984-.0586.08594-.29687.29687-.08984.0586h-.08594l-.0625-.08594-.04297-.10547.03125-.11719.0586-.08984.02734-.11719-.01172-.13281-.08984-.0625-.10547.04688-.11719.02734-.11719.03125-.26953.17578-.10156.04688-.11719.02734-.10546.04687-.08985.0586-.10156.04297-.0586-.08594-.04687-.10547.01563-.13281.04687-.10547.07031-.07422.07422-.07031.0586-.08985v-.14843l-.04297-.10547h-.23829l-.10156.04687-.03125.11719-.02734.11719-.03125.1211-.07422.04296-.13281.01563-.07422-.04688-.04297-.10156-.04297-.10547-.04687-.10156-.04297-.10547-.1211.03125-.10156.04297-.13281.01562-.11719.03125-.10547.04297-.08984.0586-.10156.04687-.1211.02734-.13281.01563-.10156-.04297-.0586-.08985-.04687-.10546-.04297-.10157-.04297-.10546v-.1172l.0586-.08984.08593-.05859.17969-.11719.10156-.04687.10547-.04297.10547-.0586.10156-.04296.08985-.0625.10156-.04297.10547-.0586.10156-.04687.08984-.0586.10547-.04296.10156-.04297.08985-.0625.10156-.04297.13672-.01563.11719.03125.10156.04297.1211.03125.10156.04297.10546.04688.10157.04296.10547.04297.10156.04688.10547.04297.10156.04297.10547.04687.08594.0586.10546.04296.1172.03125.10546.04297.10156.04688.08985.0586.10547.04296.10156.04297.10547.04687.11719.02735.10156.04687.1211.02735h.14843l.08594-.0586.01562-.10156.0586-.08984-.02735-.1172-.07422-.07421-.11719-.17969-.07421-.07422-.08985-.07421-.17969-.1172-.08593-.05859-.10547-.04296-.10156-.04688-.26954-.17578-.05859-.08985-.07422-.07421-.0586-.08985-.04296-.10156-.03125-.11719-.01563-.13672v-.5625l-.01171-.1328-.01563-.13282-.03125-.11719-.01562-.13281-.01172-.13281-.03125-.1211-.22266-.22265-.0586-.08594-.01562-.10547.03125-.11719.13281-.01562v-91.41406H172.9922v1.45312l-.0586.23438-.35156 1.05078-.17187.52343-.1172.34766-.17577.41016-.11719.17187-.23438.29297-.23046.0586h-.35157l-.11718.05859-.23047.40625v.29297l.11719.17578.23046.23047.1172.23437.64062.75781.29297.46485.17578.23437.23047.35156.23437.34766.64063.8164.17578.46485.17187.41016.11719.69531.17578.46875.11719 1.39844.0586.46484v.875l.11718 1.04688v4.78125l-.0586.46484-.35156 1.28125-.17578.52344-.11328.41015-.35156.9297L172.93359 336l-.23437.58203-.11719.17578-.17187.34766-.17578.40625-.35157.8164-.0586.29297-.11327.29297-.11719.28906-.0586.17579-.11718.875-.0586.40625-.05859.11718-.0586.17579-.05859.17187-.23047.52734-.11718.17188v.23437l-.11719.23438-.0586.17187-.17577.58594v.28906l-.0586.17579v.29296l-.0586.11329-.05859.52734v.17187l-.05468.23438v2.6211l-.17578.8164-.1172.17578-.17577.23438-.1172.17187-.11327.23438-.58594.93359-.23047.28906-.29297.46485-.17578.23437-.28906.35156-.35156.69922-.11328.23047-.17579.41016-.17578.23046-.40625.52735-.8164.69922-.29297.17187-.28906.23438-.17579.11719-.17578.17578-.52344.40625-.52734.17578-.17187.17578-.23438.05469-.64062.17578h-.75782m12.21094 31.02344l-1.07422.44921.35938.89454 1.25-.71485.44531-.53906-.98047-.08985"/><path fill="#d3d3d3" fill-opacity="0" fill-rule="evenodd" d="M201.50781 416.59766h-.89453l.44922.6289.98047.35938.80469-.08985.4453-.98828-.17577.08985-.71485-.35547-.89453.35547m154.6211 59.0703l-.0586-.52343v-.29297l.11328-.29297.0586-.23046.46875-.46875h.11328l.11719-.11329.11718-.05859h.17579l.23437-.0586h.34766l.23437.0586.11719.0586.23047.17187.0586.17578.11718.58203v.29297l-.11719.17578-.17187.28906-.17579.17579-.52734.52343-.23047.23438-.11719.0586h-.17578l-.11718-.0586-.40625-.29297-.17579-.11719-.11718-.0586-.0586-.11327-.05468-.1172m6.64062-10.95702l-.0586-.17188v-1.10937l.0586-.17188.17578-.0586.17188-.05858h.17578l.23437-.0586.1172.0586.05858.69921-.05859.17188-.11719.17578-.11718.0586-.23438.52343-.11328.0586h-.23438l-.05859-.1172m9.61328-14.39062l-.11719-.17578v-.69922l.29297-.875.1172-.17187.17577-.35156.11328-.23047.1172-.29297.35155-.75781.1172-.23047.17187-.23438h.17578l.11719-.0586h.64062l.11719.0586.23437.23438.17188.11328.35156.29297.11719.11718.11328.17579v.11328l.11719.05859.11718.11719v.69922l-.05859.17578v.23047l-.0586.17578-.34765 1.05078-.11719.23047-.11719.23437-.11718.0586-.23047.23437-.64063.28906h-.875l-.41015-.11718-.64063-.46485"/><path fill="none" stroke="#bebebe" stroke-linecap="round" stroke-linejoin="round" stroke-miterlimit="10" stroke-width=".5" d="M467.95703 311.69531H144.02734v168.625h323.9297v-168.625"/><g clip-path="url(#a)"><path fill="#fff" fill-opacity="0" fill-rule="evenodd" d="M144 475.89063v4.4375h.0039H144V311.67188h.0039H144v164.21875"/></g><g clip-path="url(#b)"><path fill="#fff" fill-opacity="0" fill-rule="evenodd" d="M144.0039 480.32813V311.67188h26.625V436.75l-3.53906 3.63281-.89843 1.79297-.56641-1.79297-3.8711-2.51562-2.39452 2.51562 1.24609 4.4375-.4336 4.4414-1.03125 4.4375.5 4.4375 2.11329 3.97657 4.4375.1875 4.4375-.72265 4.4375-.13672 4.4414-3.27735 4.4375 1.23438 2.875-1.26172 1.5625-1.01953 4.4375-.875 4.23828-2.54297-4.23828-4.4375-4.4375-.8789-4.4375.84765-4.4375-.32422-.16015.35547-2.8047 4.4375-1.47655.76953-.69922-.76953-3.73828-1.52735-4.4375.63282-2.12891-3.54297 2.1289-3.0039.92188-1.4375 3.51563-2.61329 4.4375-1.32031 4.4414.08203.52344-.58594-.52344-.25781-4.4414-.65234-4.4375-2.72266V311.67187h57.69922v108.8711l-4.4375 1.23828-1.2461.84766 1.2461 1.53125 4.43359 2.91015-4.4336.84375-4.4375 1.9336-3.38671-2.77735-1.05078-1.51172-1.28907 1.51172-3.15234 3.14453-2.61719 1.29297-1.82031 1.2539-2.28906 3.1836 2.28906 4.3164 4.4375-1.70702v4.64844l-1.3125 1.61718-3.125 3.375-3.22266 1.0664 3.22266 1.80079 2.94922-1.80078 1.48828-1.22656 1.3125-3.21485-1.3125-1.61719v-4.64843l4.4414-.42578 3.14844 2.2539-.84375 4.4375 2.13281 1.45313 1.28907-1.45313-.27735-4.4375 1.26563-4.4375 2.16016-.9375 1.90234.9375 2.53516 1.5625 3.1875-1.5625-3.1875-2.92969-.6875-1.5078.6875-4.4336.0078-.0039 4.4297-2.69923 1.2539-1.74218-1.2539-1.34375-4.4375-.7422V311.67189h13.3164v125.62109l-4.4375.6211-2.89844 2.46874 2.89844 1.8125 4.4375 1.28516v10.17578l-.07031.04297.07031.05078.09375-.05078-.09375-.04297v-10.17578l4.4375-2.8125.21484-.28516-.21484-.23437-4.4375-2.85547v-125.6211h31.0664v116.70704l-4.4375 1.57812-4.4375.8164-.66796.73438-3.76953 1.16406-4.28516 3.27344 4.28516 3.27344 2.91015-3.27344 1.52735-3.96484 4.4375 1.03906 4.4375 1.09766 4.4414.28906.39063 1.53906 4.04687 3.55469v4.55078l-3.40234.76953-1.03516 3.70703-1.21875-3.70703-3.22265-.66406-2.53125.66406-1.90625 2.10938-4.4375.53515-2.48438 1.79688.39063 4.4375 2.09375 1.96875 4.4375.32812 4.4375-.08984 4.4414-1.19531.6797-1.01172 3.7578-4.14453.20704-.29297.8125-4.4414-1.01954-.76954V439.5l4.4375-.34766 4.4375-.91406 2.13672-2.29297-2.13672-2.27344-4.4375-.95312-2.69921-1.21094-1.73829-1.74219-4.4375-.74609-4.4414-.64062V311.67187h79.89062v125.78907l-2.95312 2.92187 2.95312 2.9414 3.42188-2.9414-3.42188-2.92187V311.67188h22.1914v131.0703l-2.21483 2.07813-2.22266 2.73828-1.4336 1.70313-2.09765 4.4375-.90625 1.16797-3.28125 3.26953-1.15625 3.28515-.40235 1.15235.40235.36719 4.4375.97265 4.4375-.33984 4.4375.41406 3.90625 3.02735.1211 4.4375.41406.51562 4.4375.9961 2.05078-1.51173 2.38671-.83203 2.85938-3.60546 1.57813-1.59766 3.25-2.84375-.1836-4.4375-3.0664-3.39453-4.4375.21875-.8086-1.26172-3.6289-3.8789-4.4375.39843-2.11329-.95703.30079-4.4414-2.62891-2.07813V311.67188h93.20312v168.65625H144.00391"/></g><path fill="#50fcfc" fill-rule="evenodd" d="M159.64063 458.13672l-.5-4.4375 1.03125-4.4375.43359-4.4414-1.2461-4.4375 2.39454-2.51563 3.87109 2.51562.5664 1.79297.89844-1.79297 3.53907-3.63281 4.4375 2.72266 4.4414.65234.52344.25781-.52344.58594-4.4414-.08203-4.4375 1.32031-3.51563 2.61328-.92187 1.4375-2.12891 3.0039 2.1289 3.54298 4.4375-.63281 3.73829 1.52734.69922.76953 1.47656-.76953 2.80469-4.4375.16015-.35547 4.4375.32422 4.4375-.84766 4.4375.8789 4.23828 4.4375-4.23828 2.54298-4.4375.875-1.5625 1.01953-2.875 1.26172-4.4375-1.23438-4.4414 3.27735-4.4375.13671-4.4375.72266-4.4375-.1875-2.11328-3.97656m46.49609-7.07422l-3.22266-1.80078 3.22266-1.0664 3.125-3.375 1.3125-1.6172 1.3125 1.6172-1.3125 3.21484-1.48828 1.22656-2.94922 1.80078m0-10.80078l-2.28906-4.3164 2.28906-3.1836 1.82031-1.2539 2.61719-1.29298 3.15234-3.14453 1.28906-1.51172 1.05079 1.51172 3.38672 2.77735 4.4375-1.9336 4.43359-.84375-4.4336-2.91015-1.24609-1.53125 1.2461-.84766 4.4375-1.23828 4.4375.74219 1.2539 1.34375-1.2539 1.74218-4.4297 2.69922-.0078.0039-.6875 4.4336.6875 1.50781 3.1875 2.9297-3.1875 1.5625-2.53516-1.5625-1.90234-.9375-2.16016.9375-1.26563 4.4375.27735 4.4375-1.28906 1.45312-2.13282-1.45313.84375-4.4375-3.14844-2.2539-4.4414.42578-4.4375 1.70703m31.07031 1.9336l-2.89844-1.8125 2.89844-2.46876 4.4375-.6211 4.4375 2.85548.21484.23437-.21484.28516-4.4375 2.8125-4.4375-1.28516m4.4375 11.55469l-.07031-.05078.07031-.04297.09375.04297-.09375.05078m17.7539-14.53125l-4.28515-3.27344 4.28516-3.27344v2.82422l-.58985.44922.58985.44922.39844-.44922-.39844-.44922v-2.82421l3.76953-1.16407.66797-.73437 4.4375-.8164 4.4375-1.57813 4.4414.64062 4.4375.7461v3.40625l-2.3203 2.77343 2.3203 2.03906 3.84766-2.03906-3.84766-2.77344v-3.40625l1.73829 1.7422 2.69921 1.21093 4.4375.95313 2.13672 2.27343-2.13672 2.29297-4.4375.91406-4.4375.34766-4.04687-3.55469-.39063-1.53906-4.4414-.28906-4.4375-1.09766-4.4375-1.03906-1.52735 3.96484-2.91015 3.27344"/><path fill="#00e8fc" fill-rule="evenodd" d="M259.39844 436.39453l-.58985-.44922.58985-.44922.39844.44922-.39844.44922"/><path fill="#50fcfc" fill-rule="evenodd" d="M261.74219 453.69922l-.39063-4.4375 2.48438-1.79688 4.4375-.53515 1.90625-2.10938 2.53125-.66406 3.22265.66406 1.21875 3.70703 1.03516-3.70703 3.40234-.76953 1.01954.76953-.8125 4.4414-.20704.29298-3.7578 4.14453-.6797 1.01172-4.4414 1.19531-4.4375.08984-4.4375-.32812-2.09375-1.96875"/><path fill="#00e8fc" fill-rule="evenodd" d="M281.58984 437.98438l-2.3203-2.03907 2.3203-2.77344 3.84766 2.77344-3.84766 2.03906"/><path fill="#50fcfc" fill-rule="evenodd" d="M352.60156 443.32422l-2.95312-2.9414 2.95312-2.92188v2.33203l-.59375.58984.59375.59375.6914-.59375-.6914-.58984v-2.33203l3.42188 2.92187-3.42188 2.9414"/><path fill="#00e8fc" fill-rule="evenodd" d="M352.60156 440.97656l-.59375-.59375.59375-.58984.6914.58984-.6914.59375"/><path fill="#50fcfc" fill-rule="evenodd" d="M361.48047 462.9414l-.40235-.36718.40235-1.15235 1.15625-3.28515 3.28125-3.26953.90625-1.16797 2.09765-4.4375 1.4336-1.70313 2.22265-2.73828 2.21485-2.07812v13.83203l-1.5625 1.5625 1.5625 2.02344 1.03125-2.02344-1.03125-1.5625v-13.83203l2.6289 2.07812-.30078 4.4414 2.11329.95704 4.4375-.39844 3.6289 3.8789.8086 1.26173v3.58594l-4.4375 3.23046-1.3711.79688 1.3711.72265v3.54297l-1.91016.17579 1.91015 1.10156.27344-1.10156-.27344-.17579v-3.54296l4.4375 3.49218 4.20313-4.21484-4.20313-4.02735v-3.58593l4.4375-.21875 3.06641 3.39453.1836 4.4375-3.25 2.84375-1.57813 1.59765-2.85938 3.60547-2.38671.83204-2.05079 1.51171-4.4375-.99609-.41406-.51563-.1211-4.4375-3.90624-3.02734-4.4375-.41406-4.4375.33984-4.4375-.97265"/><path fill="#fff" fill-opacity="0" fill-rule="evenodd" d="M374.79297 456.57422l-1.5625 1.5625 1.5625 2.02344 1.03125-2.02344-1.03125-1.5625m8.8789 10.26562l-1.91015.17579 1.91015 1.10156.27344-1.10156-.27344-.17579"/><path fill="#00e8fc" fill-rule="evenodd" d="M383.67188 463.29688l-1.3711-.72266 1.3711-.79688 4.4375-3.23046v1.4453l-2.97657 2.58204 2.97656 2.70312 2.69532-2.70312-2.69531-2.58203v-1.44531l4.20312 4.02734-4.20313 4.21484-4.4375-3.49219"/><path fill="#00d4fc" fill-rule="evenodd" d="M388.10938 465.27734l-2.97657-2.70312 2.97656-2.58203v1.44531l-1.3125 1.13672 1.3125 1.1914 1.1875-1.1914-1.1875-1.13672v-1.44531l2.69532 2.58203-2.69531 2.70312"/><path fill="#00c4fc" fill-rule="evenodd" d="M388.10938 463.76563l-1.3125-1.19141 1.3125-1.13672 1.1875 1.13672-1.1875 1.1914"/><g clip-path="url(#c)"><path fill="#fff" fill-opacity="0" fill-rule="evenodd" d="M467.9961 480.32813H468V311.67188h-.0039H468v168.65625h-.0039"/></g><g clip-path="url(#d)"><path fill="none" stroke="#000" stroke-linecap="round" stroke-linejoin="round" stroke-miterlimit="10" stroke-width=".5" d="M147.51172 480.27344l-7.02344.10937"/></g><g clip-path="url(#e)"><path fill="none" stroke="#000" stroke-linecap="round" stroke-linejoin="round" stroke-miterlimit="10" stroke-width=".5" d="M146.49219 480.28906l.58984 1.07422"/></g><g clip-path="url(#f)"><path fill="none" stroke="#000" stroke-linecap="round" stroke-linejoin="round" stroke-miterlimit="10" stroke-width=".5" d="M160.79688 480.79688l-6.96485-.9375"/></g><g clip-path="url(#g)"><path fill="none" stroke="#000" stroke-linecap="round" stroke-linejoin="round" stroke-miterlimit="10" stroke-width=".5" d="M160.79688 480.79688l.85156 2.30468"/></g><g clip-path="url(#h)"><path fill="none" stroke="#000" stroke-linecap="round" stroke-linejoin="round" stroke-miterlimit="10" stroke-width=".5" d="M174.03125 481.20703l-6.80469-1.75781"/></g><g clip-path="url(#i)"><path fill="none" stroke="#000" stroke-linecap="round" stroke-linejoin="round" stroke-miterlimit="10" stroke-width=".5" d="M174.03125 481.20703l.57422 2.38672"/></g><g clip-path="url(#j)"><path fill="none" stroke="#000" stroke-linecap="round" stroke-linejoin="round" stroke-miterlimit="10" stroke-width=".5" d="M187.35938 481.15625L180.53125 479.5"/></g><g clip-path="url(#k)"><path fill="none" stroke="#000" stroke-linecap="round" stroke-linejoin="round" stroke-miterlimit="10" stroke-width=".5" d="M187.35938 481.15625l.60937 2.3789"/></g><g clip-path="url(#l)"><path fill="none" stroke="#000" stroke-linecap="round" stroke-linejoin="round" stroke-miterlimit="10" stroke-width=".5" d="M200.71875 480.94531l-6.91797-1.23047"/></g><g clip-path="url(#m)"><path fill="none" stroke="#000" stroke-linecap="round" stroke-linejoin="round" stroke-miterlimit="10" stroke-width=".5" d="M200.71875 480.94531l.75781 2.33203"/></g><g clip-path="url(#n)"><path fill="none" stroke="#000" stroke-linecap="round" stroke-linejoin="round" stroke-miterlimit="10" stroke-width=".5" d="M214.07813 480.60938l-7.00391-.5586"/></g><g clip-path="url(#o)"><path fill="none" stroke="#000" stroke-linecap="round" stroke-linejoin="round" stroke-miterlimit="10" stroke-width=".5" d="M214.07813 480.60938l.97656 2.25"/></g><g clip-path="url(#p)"><path fill="none" stroke="#000" stroke-linecap="round" stroke-linejoin="round" stroke-miterlimit="10" stroke-width=".5" d="M227.39844 480.10938l-7.01563.4375"/></g><g clip-path="url(#q)"><path fill="none" stroke="#000" stroke-linecap="round" stroke-linejoin="round" stroke-miterlimit="10" stroke-width=".5" d="M227.39844 480.10938l1.28515 2.08984"/></g><g clip-path="url(#r)"><path fill="none" stroke="#000" stroke-linecap="round" stroke-linejoin="round" stroke-miterlimit="10" stroke-width=".5" d="M240.6289 479.54297l-6.84765 1.57422"/></g><g clip-path="url(#s)"><path fill="none" stroke="#000" stroke-linecap="round" stroke-linejoin="round" stroke-miterlimit="10" stroke-width=".5" d="M240.6289 479.54297l1.60938 1.85156"/></g><g clip-path="url(#t)"><path fill="none" stroke="#000" stroke-linecap="round" stroke-linejoin="round" stroke-miterlimit="10" stroke-width=".5" d="M253.82031 479.125l-6.60156 2.40625"/></g><g clip-path="url(#u)"><path fill="none" stroke="#000" stroke-linecap="round" stroke-linejoin="round" stroke-miterlimit="10" stroke-width=".5" d="M253.82031 479.125l1.82422 1.64063"/></g><g clip-path="url(#v)"><path fill="none" stroke="#000" stroke-linecap="round" stroke-linejoin="round" stroke-miterlimit="10" stroke-width=".5" d="M267.01172 478.82422l-6.35156 3.00781"/></g><g clip-path="url(#w)"><path fill="none" stroke="#000" stroke-linecap="round" stroke-linejoin="round" stroke-miterlimit="10" stroke-width=".5" d="M267.01172 478.82422l1.96875 1.46484"/></g><g clip-path="url(#x)"><path fill="none" stroke="#000" stroke-linecap="round" stroke-linejoin="round" stroke-miterlimit="10" stroke-width=".5" d="M280.4961 479.25781l-6.69141 2.14063"/></g><g clip-path="url(#y)"><path fill="none" stroke="#000" stroke-linecap="round" stroke-linejoin="round" stroke-miterlimit="10" stroke-width=".5" d="M279.52344 479.57031l.8789.85547"/></g><g clip-path="url(#z)"><path fill="none" stroke="#000" stroke-linecap="round" stroke-linejoin="round" stroke-miterlimit="10" stroke-width=".5" d="M293.98047 480.27344l-7.02735.11328"/></g><g clip-path="url(#A)"><path fill="none" stroke="#000" stroke-linecap="round" stroke-linejoin="round" stroke-miterlimit="10" stroke-width=".5" d="M292.95703 480.28906l.59375 1.07422"/></g><g clip-path="url(#B)"><path fill="none" stroke="#000" stroke-linecap="round" stroke-linejoin="round" stroke-miterlimit="10" stroke-width=".5" d="M307.29297 480.1836l-7.02344.28906"/></g><g clip-path="url(#C)"><path fill="none" stroke="#000" stroke-linecap="round" stroke-linejoin="round" stroke-miterlimit="10" stroke-width=".5" d="M306.26953 480.22656l.6211 1.0586"/></g><g clip-path="url(#D)"><path fill="none" stroke="#000" stroke-linecap="round" stroke-linejoin="round" stroke-miterlimit="10" stroke-width=".5" d="M320.5586 479.73438l-6.92579 1.1875"/></g><g clip-path="url(#E)"><path fill="none" stroke="#000" stroke-linecap="round" stroke-linejoin="round" stroke-miterlimit="10" stroke-width=".5" d="M319.55078 479.90625l.75.97266"/></g><g clip-path="url(#F)"><path fill="none" stroke="#000" stroke-linecap="round" stroke-linejoin="round" stroke-miterlimit="10" stroke-width=".5" d="M333.44531 478.5586l-6.07031 3.53906"/></g><path fill="none" stroke="#000" stroke-linecap="round" stroke-linejoin="round" stroke-miterlimit="10" stroke-width=".5" d="M332.5625 479.07422l1.04297.64844"/><g clip-path="url(#G)"><path fill="none" stroke="#000" stroke-linecap="round" stroke-linejoin="round" stroke-miterlimit="10" stroke-width=".5" d="M344.52344 476.90625l-1.59766 6.84375"/></g><g clip-path="url(#H)"><path fill="none" stroke="#000" stroke-linecap="round" stroke-linejoin="round" stroke-miterlimit="10" stroke-width=".5" d="M353.78516 479.0039l6.51171 2.64844"/></g><g clip-path="url(#I)"><path fill="none" stroke="#000" stroke-linecap="round" stroke-linejoin="round" stroke-miterlimit="10" stroke-width=".5" d="M366.85547 480.02734l7 .60157"/></g><g clip-path="url(#J)"><path fill="none" stroke="#000" stroke-linecap="round" stroke-linejoin="round" stroke-miterlimit="10" stroke-width=".5" d="M367.875 480.11719l-.48438-1.1289"/></g><g clip-path="url(#K)"><path fill="none" stroke="#000" stroke-linecap="round" stroke-linejoin="round" stroke-miterlimit="10" stroke-width=".5" d="M380.28906 479.3711l6.76172 1.91406"/></g><path fill="none" stroke="#000" stroke-linecap="round" stroke-linejoin="round" stroke-miterlimit="10" stroke-width=".5" d="M381.27344 479.65234l-.25781-1.19922"/><g clip-path="url(#L)"><path fill="none" stroke="#000" stroke-linecap="round" stroke-linejoin="round" stroke-miterlimit="10" stroke-width=".5" d="M393.78125 478.89063l6.41016 2.8789"/></g><path fill="none" stroke="#000" stroke-linecap="round" stroke-linejoin="round" stroke-miterlimit="10" stroke-width=".5" d="M394.71484 479.3086l-.08203-1.22657"/><g clip-path="url(#M)"><path fill="none" stroke="#000" stroke-linecap="round" stroke-linejoin="round" stroke-miterlimit="10" stroke-width=".5" d="M406.94531 479.29297l6.71485 2.07422"/></g><path fill="none" stroke="#000" stroke-linecap="round" stroke-linejoin="round" stroke-miterlimit="10" stroke-width=".5" d="M407.92188 479.59375l-.23047-1.20703"/><g clip-path="url(#N)"><path fill="none" stroke="#000" stroke-linecap="round" stroke-linejoin="round" stroke-miterlimit="10" stroke-width=".5" d="M420.54688 478.6211l6.14062 3.41796"/></g><path fill="none" stroke="#000" stroke-linecap="round" stroke-linejoin="round" stroke-miterlimit="10" stroke-width=".5" d="M421.4414 479.11719l.02344-1.22656"/><g clip-path="url(#O)"><path fill="none" stroke="#000" stroke-linecap="round" stroke-linejoin="round" stroke-miterlimit="10" stroke-width=".5" d="M434.19531 478.1211l5.46875 4.41406"/></g><path fill="none" stroke="#000" stroke-linecap="round" stroke-linejoin="round" stroke-miterlimit="10" stroke-width=".5" d="M434.99219 478.76563l.23437-1.20704"/><g clip-path="url(#P)"><path fill="none" stroke="#000" stroke-linecap="round" stroke-linejoin="round" stroke-miterlimit="10" stroke-width=".5" d="M447.74219 477.86328l5.00781 4.92969"/></g><path fill="none" stroke="#000" stroke-linecap="round" stroke-linejoin="round" stroke-miterlimit="10" stroke-width=".5" d="M448.47266 478.58203l.34765-1.17578"/><g clip-path="url(#Q)"><path fill="none" stroke="#000" stroke-linecap="round" stroke-linejoin="round" stroke-miterlimit="10" stroke-width=".5" d="M460.67188 478.32813l5.77734 4"/></g><path fill="none" stroke="#000" stroke-linecap="round" stroke-linejoin="round" stroke-miterlimit="10" stroke-width=".5" d="M461.51172 478.91016l.14453-1.21875"/><g clip-path="url(#R)"><path fill="none" stroke="#000" stroke-linecap="round" stroke-linejoin="round" stroke-miterlimit="10" stroke-width=".5" d="M147.48828 466.60156l-6.97656.82422"/></g><path fill="none" stroke="#000" stroke-linecap="round" stroke-linejoin="round" stroke-miterlimit="10" stroke-width=".5" d="M146.47266 466.72266l.69922 1.0078m13.57812-1.45702l-6.8711 1.48047m5.8711-1.26563l.79297.9375m13.4414-1.46094l-6.70703 2.09766m5.73047-1.79297l.8711.85938m13.28906-1.51563l-6.44531 2.80078m6.4453-2.80078l1.91798 1.52735m11.66797-.5l-6.98828.74609m6.98828-.7461l1.375 2.03516m11.9453-1.98437l-6.99608.64453m6.99609-.64453l1.34375 2.05468m11.90234-2.48828l-6.86328 1.51172m6.86328-1.51172l1.59375 1.8711m11.60547-2.28516l-6.6289 2.33984m6.6289-2.33984l1.80469 1.66016m11.32812-2.08594l-6.26172 3.1914m6.26172-3.1914l2.00782 1.40625m11.17187-1.64844l-5.99219 3.67578m5.9922-3.67578l2.11327 1.2461m11.36719-.94141l-6.32422 3.0664m6.32422-3.0664l1.98047 1.44922m11.35156-1.41016l-6.35937 2.98828m6.35937-2.98828l1.96484 1.47266m11.15235-1.83594l-5.96094 3.71484m5.96094-3.71484l2.125 1.22656m11.03125-1.46484l-5.64063 4.1914m5.64063-4.1914l2.21484 1.05078m10.98438-1.19531l-5.41407 4.48047m4.62891-3.82813l1.13281.46875m12.71094-1.39844l-4.90234 5.03516m4.1914-4.30078l1.17578.33984m12.125-1.61719l-3.44921 6.1211m2.94921-5.23047l1.22657.03125m11.16797-1.36328l-.60938 7.0039m.51953-5.98437l1.1289-.48047m9.46095.50781l5.02343 4.91016m-4.29297-4.19531l.34375-1.17969m13.1172-.1914l3.26952 6.22265m-2.79297-5.3164l.69141-1.01563m10.76953 1.41015l6.02344 3.6211m-5.14453-3.09375l.0625-1.22656m13.28906-.3086l4.1914 5.63672m-3.58202-4.8164l.52734-1.10938m13.125-.21094l2.30078 6.63672m-1.96484-5.67187l.83593-.89844m11.01954.57422l4.54687 5.35547m-4.54687-5.35547l.90625-2.28125m13.0625 1.84375l3.24218 6.23047m-2.76953-5.32422l.6914-1.01172"/><g clip-path="url(#S)"><path fill="none" stroke="#000" stroke-linecap="round" stroke-linejoin="round" stroke-miterlimit="10" stroke-width=".5" d="M147.46094 453.09766l-6.92188 1.20312"/></g><path fill="none" stroke="#000" stroke-linecap="round" stroke-linejoin="round" stroke-miterlimit="10" stroke-width=".5" d="M147.46094 453.09766l1.50781 1.9375m11.80469-1.94922l-6.91797 1.22656m6.91797-1.22656l1.51562 1.92969m11.5039-2.84375l-6.32812 3.05468m5.41016-2.60937l.98828.72265m12.13281-2.49218l-4.10156 5.70312m3.50781-4.875l1.21485.16797m13.16406-.59375l-5.04297 4.89453m4.3086-4.17969l1.16796.375m13.37891-.4414l-6.03516 3.59765m5.15625-3.07421l1.05078.63671m13.15625-1.13671l-6.0625 3.55078m6.0625-3.55078l2.08985 1.28906m11.19531-1.33985l-6.0039 3.65235m5.1289-3.1211l1.0586.62891m12.66796-1.76172l-5.07812 4.85938m4.33984-4.15235l1.16406.38282m13.1797-.7461l-5.65626 4.17188m4.83203-3.56641l1.10547.53125m12.67188-1.55078l-4.9336 5m4.9336-5l2.35156.70312m11.39844-.18359l-5.80469 3.96094m5.80469-3.96094l2.17187 1.13672m11.33594-.82422l-6.1875 3.33203m6.1875-3.33203l2.03906 1.36328m-2.9414-.875l1.02343.67969m12.9961-1.48828l-5.79297 3.97656m5.79297-3.97656l2.17578 1.13281m-3.01953-.55469l1.08984.5664m12.9414-1.3164l-5.53906 4.32032m5.53907-4.32032l2.24218 1m-3.04687-.3711l1.1211.5m13.01562-1.10937l-5.57422 4.28125m5.57422-4.28125l2.23437 1.01563m10.8125-1.32422l-5.03515 4.89844m5.03515-4.89844l2.33594.75m10.36719-1.2539l-3.8125 5.90234m3.25781-5.04297l1.22266.10547m11.69531-1.39453l-1.90625 6.76562m1.6289-5.78125l1.19922-.26172m10.41016-.69922l2.0586 6.71875m-1.75782-5.74218l.86328-.8672m13.08203-.26171l.19532 7.02344m-.16407-6.0039l1.06641-.60548m11.6289-.34765l1.375 6.89062m-1.17577-5.89062l.94921-.77344m11.15625.14062l3.39454 6.15235m-2.90235-5.2539l.67188-1.03126m13.3789-.27344l.9375 6.96485m-.80078-5.94922l1-.71484m13.46094-.23438l-1.6289 6.83594m1.39452-5.84375l1.1875-.3086"/><g clip-path="url(#T)"><path fill="none" stroke="#000" stroke-linecap="round" stroke-linejoin="round" stroke-miterlimit="10" stroke-width=".5" d="M147.44922 439.71094l-6.89844 1.34765"/></g><path fill="none" stroke="#000" stroke-linecap="round" stroke-linejoin="round" stroke-miterlimit="10" stroke-width=".5" d="M147.44922 439.71094l1.54687 1.90625m11.8086-1.64063l-6.98047.8125m6.98047-.8125l1.39453 2.01953m11.80469-2.59375l-6.7461 1.96485m5.76563-1.67969l.85547.8789m13.57422-.40234l-7.01563.4414m5.99219-.3789l.64453 1.04688m13.69922-.98047l-7.02735.1836m6.00391-.16016l.60547 1.0703m13.71484-.6289l-6.98828-.75m5.96875.64063l.45703 1.14062m13.1289-3.59765l-5.49218 4.38671m4.6914-3.75l1.12891.48829m12.85547-1.27735l-5.23047 4.6914m4.46875-4.01171l1.15235.42578m13.14844-.83203l-5.6797 4.14063m4.85548-3.53516l1.10156.53515m13.1211-1.01953l-5.84376 3.90235M265.90625 439l1.08203.58203m12.91406-1.38281l-5.5039 4.36719m4.70312-3.73047l1.125.48828m12.4336-1.6875l-4.38672 5.49219m3.7461-4.69141l1.20702.22656m13.46094-.2539l-5.8125 3.94922m5.8125-3.94922l2.17188 1.14453m11.1328-1.15625l-5.79296 3.97265m5.79297-3.97265l2.17578 1.13281m10.88672-1.46094l-5.28906 4.625m5.28906-4.625l2.29297.875m10.69922-1.19922l-4.64063 5.27735m4.64063-5.27735l2.38671.56641m9.0586-1.41406l-.90235 6.96875m.77344-5.95313l1.14844-.4336m13.3086-.29296l-2.92579 6.39063m2.92578-6.39063l2.44922-.14453m11.16797.30078l-3.53125 6.07813m3.01563-5.19141l1.22656.04297m13.17578-.51172l-4.67578 5.24219m3.9961-4.48047l1.1914.29297M412.8828 438l-5.16406 4.76953M412.88281 438l2.3164.8086m11.44142-.21485l-6.04688 3.57813m5.16797-3.0586l1.04687.64063m12.73047-1.72657l-5.21484 4.71094m5.21484-4.71094l2.30469.83594m10.05078-1.58203l-3.29687 6.20703m3.29687-6.20703l2.45313-.0039m-2.9336.90624h1.22657m12.9375-.67578l-4.03516 5.7539"/><g clip-path="url(#U)"><path fill="none" stroke="#000" stroke-linecap="round" stroke-linejoin="round" stroke-miterlimit="10" stroke-width=".5" d="M465.57813 437.50781l2.4375.30078"/></g><g clip-path="url(#V)"><path fill="none" stroke="#000" stroke-linecap="round" stroke-linejoin="round" stroke-miterlimit="10" stroke-width=".5" d="M146.69922 424.82031l-5.39844 4.4961"/></g><path fill="none" stroke="#000" stroke-linecap="round" stroke-linejoin="round" stroke-miterlimit="10" stroke-width=".5" d="M146.69922 424.82031l2.27344.92969m11.27734-.61328L154.3789 429m5.8711-3.86328l2.15234 1.17969m11.64063-.08204l-6.82422 1.66797m6.82422-1.66797l1.63281 1.83204m11.69922-.22657l-6.85938-1.54296m6.85938 1.54296l.64453 2.3672m12.5586-1.98829l-6.63672-2.30078m5.67187 1.96875l.1914 1.21094m13.4375.2578l-5.33593-4.57421m4.5586 3.91016l-.26563 1.1953m14.92969-1.46093l-6.48047-2.71484m19.77344 2.76953l-6.4336-2.82422m19.92578.5039l-6.78906 1.81641m5.80078-1.55468l.83594.89843m13.52734-.90234l-6.90625 1.30078m5.90235-1.10937l.76562.95703m13.1289-2.27735l-6.05859 3.5586m5.1797-3.03907l1.04296.64454m11.52734-2.60547l-2.80859 6.4414m2.39844-5.5039l1.22265-.09375m13.69532.01172l-5.19532 4.73046m18.44532-4.80078l-5.06641 4.8711m4.32813-4.16016l1.16796.3789m13.11329-.82812l-5.51954 4.34766m4.71485-3.71485l1.1211.4922m12.61327-1.53907l-4.75 5.17578m4.0586-4.42187l1.1875.30468m13.65234.09766L353.83203 428.5m5.48438-2.44531l.96875.7539m12.11718-2.59765l-4.09375 5.71484m3.5-4.88281l1.21485.16406m12.48437-1.13281l-3.67578 5.98828m3.67578-5.98828l2.44922.15234m-2.98437.71875l1.22656.07422m14.24219 1.41406l-6.91016 1.26954m6.91016-1.26954l1.52343 1.92188m11.84375-1.5l-7.01562.42578m5.9961-.36328l.64062 1.04687m13.01953-2.97265l-5.66406 4.15625m5.66406-4.15625l2.21094 1.0625m10.45312-1.73828l-4.36328 5.5039m4.36328-5.5039l2.41406.4414m-3.04687.35938l1.20703.21875m11.96094-1.48828l-2.80469 6.4414m2.80469-6.4414l2.44531-.19141m-2.85156 1.1289l1.22265-.09765m13.3672-.30078l-4.53907 5.36328"/><g clip-path="url(#W)"><path fill="none" stroke="#000" stroke-linecap="round" stroke-linejoin="round" stroke-miterlimit="10" stroke-width=".5" d="M465.83203 424.38672l2.39844.51953"/></g><g clip-path="url(#X)"><path fill="none" stroke="#000" stroke-linecap="round" stroke-linejoin="round" stroke-miterlimit="10" stroke-width=".5" d="M146.35547 411.14844l-4.71094 5.21094"/></g><path fill="none" stroke="#000" stroke-linecap="round" stroke-linejoin="round" stroke-miterlimit="10" stroke-width=".5" d="M146.35547 411.14844l2.3789.59765m-3.0625.16016l2.37891.59766m11.71875-1.26563l-4.90625 5.03125m4.90625-5.03125l2.35547.6875m-3.07031.04297l1.17578.34375m12.42969-1.42578l-4.0625 5.73437m4.0625-5.73437l2.43359.3125m12.35938 2.76953l-7.01563-.42969m18.39063 3.35938l-3.13282-6.28906m14.94531 6.65625l-.1289-7.02344m12.67578 6.95312l1.40625-6.88281m13.63281 3.4414l-.01953-.19921-.0586-.1914-.09374-.1797-.45703-.375-.19141-.05859-.19922-.01953-.19922.01953-.19531.0586-.45703.375-.09375.17968-.0586.1914-.01953.19923.01953.19921.0586.19141.09375.17578.45703.3789.19531.0586.19922.01953.19922-.01953.1914-.0586.45704-.3789.09375-.17578.0586-.1914.01952-.19922m15.61328-1.15235l-6.64062 2.30469m5.67578-1.96875l.89844.83594m13.32031-1.33985l-6.51563 2.63672m5.56641-2.25l.9414.78516m12.21876-2.625l-4.3086 5.54687m3.6836-4.74218l1.20703.21093m12.41016-1.24218l-3.66016 6m3.125-5.12891l1.22656.07422m10.86328-1.45703l-.14453 7.02343m.125-6.0039l1.09375-.55078m10.30078.0664l3.73828 5.94922m-3.1953-5.08203l.61327-1.0625m12.41797.05078l3.22266 6.24219m-2.7539-5.33594l.69921-1.00781m14.63672-.17969l-1.75781 6.80469m17.51172-4.55078l-6.63672 2.29687m5.67187-1.96484l.89844.83594m13.53125-.57422l-6.9375 1.10937m6.9375-1.10937l1.48047 1.95703m11.49219-3.0039l-6.25391 3.20312m6.2539-3.20313l2.01563 1.40235m10.67578-2.26563l-5.0039 4.92969m5.0039-4.92969l2.34375.73438m11.55469.04687l-6.17188 3.36328m6.17188-3.36328l2.04687 1.35156m11.07813-1.66015l-5.78906 3.98437m4.9453-3.40625l1.08985.56641m12.82032-1.46484l-5.29297 4.625m5.29297-4.625l2.29296.87109m10.20313-1.5586l-3.65625 6m3.65625-6l2.44922.14454m11.22265.10547l-4.37109 5.5"/><g clip-path="url(#Y)"><path fill="none" stroke="#000" stroke-linecap="round" stroke-linejoin="round" stroke-miterlimit="10" stroke-width=".5" d="M465.7461 411.0039l2.41406.44532"/></g><g clip-path="url(#Z)"><path fill="none" stroke="#000" stroke-linecap="round" stroke-linejoin="round" stroke-miterlimit="10" stroke-width=".5" d="M146.78516 398.29688l-5.57032 4.28125"/></g><path fill="none" stroke="#000" stroke-linecap="round" stroke-linejoin="round" stroke-miterlimit="10" stroke-width=".5" d="M146.78516 398.29688l2.23437 1.01562m-3.04297-.39063l2.23047 1.01563m12.15234-1.25781l-6.08593 3.51562m6.08594-3.51562l2.07812 1.30078m-2.96484-.78906l2.08203 1.30078m12.08594-1.86719l-6.01954 3.625m6.01953-3.625l2.10547 1.26172m-2.98047-.73438l2.10157 1.26172m12.40234-1.11328l-6.64844 2.27735m6.64844-2.27735l1.79297 1.67578m11.42969.84375l-6.46094-2.76562m5.51953 2.36328l.10156 1.22265m12.32813 1.01954l-2.8086-6.44141m2.39844 5.5039l-.76172.96094m11.16016-.30468l3.84375-5.88282m-3.28516 5.02735l-1.21875-.10938m17.13672 1.3125l-2.47656-6.57812m16.01953 6.48047l-2.9375-6.38282m15.77734 6.5625l-1.98437-6.74218m17.54688 4.73437l-6.48047-2.72265m19.97265.55078l-6.83593 1.62109m6.83593-1.6211l1.6211 1.83985m11.55859-2.28516l-6.5625 2.51172m6.5625-2.51172l1.85156 1.61329m11.51953-1.45704l-6.67578 2.19922m5.70313-1.8789l.88672.84765m12.92968-2.09765l-5.73437 4.05859M332.4453 399l1.09375.55078m13.69922.9414l-7.02344-.10937m19.95704 1.64844l-6.26172-3.1836m5.35156 2.71876l.02344 1.22656m14.1953-.7461l-6.24608-3.21875m6.24609 3.21875l.03125 2.45313m13.52734-5.0664l-6.73437 2.0078m6.73437-2.0078l1.72266 1.74609m11.63281-1.59375l-6.8164 1.70312m6.8164-1.70312l1.64453 1.82422m11.66407-1.85547l-6.8047 1.76562m6.8047-1.76562l1.65625 1.8086m11.28125-2.71095l-6.05079 3.57422m6.05079-3.57422l2.09375 1.27735m11.0078-1.59766l-5.62109 4.21485m5.6211-4.21485l2.22265 1.03906M452.77344 398l-5.05469 4.8789M452.77344 398l2.33594.75781m11.0664-.66797l-5.22656 4.69922"/><g clip-path="url(#aa)"><path fill="none" stroke="#000" stroke-linecap="round" stroke-linejoin="round" stroke-miterlimit="10" stroke-width=".5" d="M466.17578 398.08984l2.30469.83985"/></g><g clip-path="url(#ab)"><path fill="none" stroke="#000" stroke-linecap="round" stroke-linejoin="round" stroke-miterlimit="10" stroke-width=".5" d="M146.72266 384.90234l-5.44532 4.44141"/></g><path fill="none" stroke="#000" stroke-linecap="round" stroke-linejoin="round" stroke-miterlimit="10" stroke-width=".5" d="M146.72266 384.90234l2.26172.95313m-3.0547-.30469l1.13282.47656m13.02734-1.0625l-5.54687 4.31641m5.54687-4.3164l2.23828 1.0039m-3.04687-.375l1.1211.5m13.17187-.89063l-5.88672 3.83985m5.88672-3.83985l2.14844 1.1875m-3.00391-.6289l1.07422.59375m13.4336-.48828l-6.5625 2.51562m6.5625-2.51562l1.85155 1.60937m-2.80859-1.2461l.92578.8047m13.51953.73046l-6.91015-1.28515m6.91015 1.28515l.73828 2.33985m12.39844-1.71094l-6.55078-2.54297m6.55078 2.54297l.28906 2.4375m-1.24218-2.80469l.14453 1.21485m14.28125-1.3711l-6.86719-1.49609m6.86719 1.4961l.66406 2.35937m-1.66406-2.57813l.33203 1.1797m14.03516-1.28517l-6.97266-.84765m6.97266.84765l.8828 2.29297m12.37892-1.97265l-6.8672-1.48828m6.8672 1.48828l.66796 2.35937m12.51953-1.91015l-6.60937-2.38672m6.60938 2.38672l.34765 2.42968m12.78906-2.02343l-6.2539-3.19922m6.2539 3.19922l.03907 2.45312m13.65625-3.8125l-7.01172-.48047m7.01172.48047l1 2.23828m12.16015-3.53125l-6.70312 2.10547m6.70312-2.10547l1.75 1.72266m11.64844-1.41406l-6.86719 1.48828m6.86719-1.48828l1.58203 1.87109m11.76563-1.69531l-6.9336 1.13672m6.9336-1.13672l1.48828 1.94922m11.8711-1.35938l-7.02735-.04297m6.00781.03516l.5664 1.08594M360.01173 389l-5.9414-3.7539m5.07421 3.20702l-.08984 1.22657m14.8164-2.5039l-7.02734-.10157m7.02734.10156l1.1172 2.17969m11.9453-3.54297l-6.52343 2.6211m6.52343-2.6211l1.875 1.58203m11.35938-1.76562l-6.36328 2.98828m6.36328-2.98828l1.96094 1.47265m11.33203-1.51953l-6.3164 3.08203m6.3164-3.08203l1.98437 1.4414m10.86328-2.15624l-5.38671 4.51172m5.38671-4.51172l2.27735.92187m10.82812-1.14844l-4.96875 4.96875m4.2461-4.24609l1.17578.35547m12.76172-1.17969l-4.76172 5.16797m4.0664-4.41406l1.1875.3086m13.23438-.60938l-5.58984 4.26172m4.77734-3.64063l1.11328.51172"/><g clip-path="url(#ac)"><path fill="none" stroke="#000" stroke-linecap="round" stroke-linejoin="round" stroke-miterlimit="10" stroke-width=".5" d="M145.58594 370.67188l-3.17188 6.26953"/></g><path fill="none" stroke="#000" stroke-linecap="round" stroke-linejoin="round" stroke-miterlimit="10" stroke-width=".5" d="M145.58594 370.67188l2.45312-.04688m11.1914.23828l-3.82812 5.89063m3.82813-5.89063l2.4414.21485m10.64454-.35157l-3.3711 6.16406m3.3711-6.16406l2.45312.02735m11.66797.57812l-4.98438 4.95313m4.98438-4.95313l2.34375.72266m11.92578 1.0664l-6.89062 1.375m6.89062-1.375l1.55078 1.89844m11.35156.5625l-6.0664-3.54687m6.0664 3.54687l-.09765 2.44922m13.58203-2.77734l-6.40625-2.89063m6.40625 2.89063l.15625 2.44921m13.32813-2.90625l-6.7422-1.97656m6.7422 1.97656l.49218 2.40235m12.8164-2.3789l-6.73046-2.02344m6.73047 2.02343l.48047 2.40625m12.83203-2.40625l-6.72656-2.02734m6.72656 2.02734l.48047 2.40625m12.77734-2.23047l-6.61328-2.375m5.65234 2.02735l.17578 1.21484m13.89454-.40234l-6.19922-3.3086m19.55078.07032l-6.27344 3.17187m5.35938-2.71094l1.0039.70704m13.25781-1.09766l-6.33984 3.03125m5.41797-2.58985l.98828.72657m13.5664-.08985l-6.97265.8711m5.95703-.74219l.70703 1.0039m13.58594-.02734l-6.89844-1.33594m6.89844 1.33594l.71875 2.34766m12.36328-1.60547l-6.4336-2.82422m5.4961 2.41406l.09375 1.22266m14.40235-1.60547l-6.91797-1.23437m6.91797 1.23437l.7539 2.33594m12.61328-3.04297l-7.02343.17969m6-.15625l.60546 1.07031m13.70313-1.48438l-6.96484.96094m6.96484-.96094l1.4336 1.98829m11.61327-2.92579l-6.42968 2.83594m6.42968-2.83594l1.9297 1.51563m10.80468-2.42578l-5.26563 4.65625m4.5-3.97656l1.14844.42968m13.05469-.96093l-5.51172 4.35546m4.71094-3.71875l1.125.4922m11.86328-2.0625l-3.25781 6.22656m2.78515-5.32032l1.22657-.00781m12.73828-.80078l-3.60938 6.03125m3.08203-5.15235l1.22657.0625"/><g clip-path="url(#ad)"><path fill="none" stroke="#000" stroke-linecap="round" stroke-linejoin="round" stroke-miterlimit="10" stroke-width=".5" d="M142.48047 357.32422l3.03906 6.33594"/></g><g clip-path="url(#ae)"><path fill="none" stroke="#000" stroke-linecap="round" stroke-linejoin="round" stroke-miterlimit="10" stroke-width=".5" d="M142.48047 357.32422l1.45703-1.97266"/></g><path fill="none" stroke="#000" stroke-linecap="round" stroke-linejoin="round" stroke-miterlimit="10" stroke-width=".5" d="M155.74219 357.35156l3.14844 6.28125m-2.69141-5.36719l.71094-1m10.2539 2.65235l6.9336 1.15234m6.35156-.91015l6.99219.66796m6.67578-1.90625l6.28515 3.14063m12.85938.69531l-5.3711-4.53125m4.58985 3.8711l-.25781 1.19921m13.64062.10547l-3.94531-5.8164m3.3711 4.96875l-.57423 1.08594m15.4336-1.22657l-5.88672-3.84375m5.03125 3.28516l-.11328 1.22265m14.51562-1.08203l-6.35156-3.0039m5.42969 2.5664l.0586 1.22657m14.10155-.63282l-6.1953-3.3164m5.29296 2.83203l-.0039 1.22656m13.68359.0039l-5.1211-4.8125m4.375 4.11329l-.3203 1.1836m15.12108-1.6836l-6.60156-2.41016m5.64063 2.0586l.17187 1.21484m11.51563 1.3711l-1.42188-6.88282m17.5 3.96485l-6.94922-1.04297m5.9375.89062l.41016 1.15625m13.90625-.9336l-6.92578-1.18359m5.91797 1.00782l.38672 1.16796m13.78515-.41406l-6.625-2.33984m5.66016 2l.1836 1.21094m13.92577-.46875l-6.28515-3.14454m6.28515 3.14454l.0625 2.44921m13.51172-3.14453l-6.80469-1.7539m6.8047 1.7539l.57421 2.38282m12.8125-3.78907l-6.94531 1.0547m6.94531-1.0547l1.46485 1.96875m11.52343-3.0039l-6.29297 3.1289m5.375-2.67578l1 .71485m12.03125-2.53125l-3.89062 5.85156m3.32422-5l1.22265.1211m13.22266-.50391l-5.01953 4.91796m4.28906-4.20312l1.17188.3711m11.17968-2.04688l-1.6289 6.83594m1.39062-5.83985l1.1875-.3086m13.21485-.36327l-3.32813 6.1914m2.84375-5.29296l1.22656.0078m12.1211-1.10937l-2.42578 6.59375m2.07421-5.63281l1.21485-.16797"/><g clip-path="url(#af)"><path fill="none" stroke="#000" stroke-linecap="round" stroke-linejoin="round" stroke-miterlimit="10" stroke-width=".5" d="M141.16406 345.10547l5.67188 4.14453"/></g><path fill="none" stroke="#000" stroke-linecap="round" stroke-linejoin="round" stroke-miterlimit="10" stroke-width=".5" d="M154.03125 345.92578l6.5664 2.5039m-6.5664-2.5039l-.30469-2.4336m13.96875 5.6172l5.8711-3.86329m-5.8711 3.86329l-2.15234-1.17579m15.625 1.39454l5.55469-4.30079m-5.5547 4.30079l-2.23827-1.00782m15.5586 1.01563l5.54296-4.3164m-4.73438 3.6914l-1.12109-.5039m13.30469.6328l6.1914-3.32421m-5.29296 2.83984l-1.01953-.67969m15.05859 2.6914l2.94531-6.3789m-2.51953 5.44922l-1.22266.07031m16.46875 1.07031l-1.76953-6.80078m1.51172 5.8125l-.90234.82813m14.23437.21484l-1.28906-6.91015m1.10156 5.90234l-.95703.76563m16.41797-.85157l-5.20703-4.71875m4.44922 4.03125l-.29688 1.1875m14.82422-1.125l-6.10937-3.47265m5.21875 2.96875l-.03516 1.22656m14.33203-.89453l-6.29297-3.1289m5.375 2.67187l.03516 1.22656m14.53906-1.91797l-6.97656-.83203m5.96094.71094l.4453 1.14453m10.04298 2.05469l.70703-6.98829m10.89062 6.33204l4.14063-5.67579m-3.53516 4.85157l-1.21484-.17188m19.26172-.54297l-6.53125-2.59765m5.57812 2.21875l.13672 1.21875m13.91406-.39063l-6.09765-3.4961m5.21093 2.98829l-.03906 1.22656m14.34375-.91406l-6.30469-3.10547m5.38672 2.65234l.03907 1.22657m14.51953-1.82813l-6.95703-.9961m5.9453.85157l.41798 1.15625m13.53125-3.16406l-6.19922 3.3086m5.29687-2.82813l1.01953.6875m12.31641-2.23829l-4.4375 5.44922m3.79297-4.65625l1.20312.23829m10.83204-1.8086l-.58985 7.0039m.5039-5.98437l1.12891-.48437m9.54297.4336l4.8711 5.0664m-4.16016-4.32813l.38281-1.16797m13.67578-.41015l1.96485 6.7461m-1.67969-5.76563l.8789-.85547m14.0625-.14063l-1.85937 6.77735m1.85938-6.77735l2.39062-.53906"/><g clip-path="url(#ag)"><path fill="none" stroke="#000" stroke-linecap="round" stroke-linejoin="round" stroke-miterlimit="10" stroke-width=".5" d="M141.2539 331.67188l5.4922 4.3828"/></g><path fill="none" stroke="#000" stroke-linecap="round" stroke-linejoin="round" stroke-miterlimit="10" stroke-width=".5" d="M153.80078 333.79688l7.02734.1328m-6.0039-.11327l-.55469-1.09375m13.13672 2.53906l6.44922-2.79688m-6.44922 2.79688l-1.91797-1.53125m15.36719 1.80469l6.17969-3.34375m-6.1797 3.34375l-2.04296-1.35547m16.01563 2.21875l4.86328-5.07031m-4.86328 5.0703l-2.35938-.66406m15.27734.21094l5.66016-4.16406m-5.66016 4.16406l-2.21484-1.0625m16.07813 1.65235l4.5625-5.34375m-3.89844 4.5664l-1.19922-.26562m14.36328 1.40625l3.53516-6.07031m-3.01953 5.1875l-1.22657-.04688m13.21094.27344l5.16797-4.75781m9.79297 5.76562l1.875-6.77344m-1.60547 5.78516l-1.19531.26562m14.28906.73438l1.77734-6.79688m-1.51953 5.8086l-1.1914.28515m14.82421.8047l.625-7m-.53515 5.98046l-1.1289.47656m17.71874-1.21484l-6.10156-3.48438m5.21484 2.97657l-.03515 1.22656m14.65625-1.92188l-6.94141-1.08203m5.9336.92578l.40234 1.16016m13.96093-1.66406l-7.02343.24219m6.0039-.20704l.61328 1.0625m13.47657.32422l-6.53125-2.60156m5.57812 2.22266l.13672 1.21875m11.4375 1.32421l-1.14453-6.93359m.97656 5.92578l-.97265.7461m16.77343-1.20704l-5.78125-3.99218m4.94141 3.41015l-.14063 1.21875m14.53907-4.22265l-6.26563 3.17969m5.35547-2.71875l1.0039.70703m11.55079-2.77344l-2.92578 6.39062m2.5-5.46093l1.22265-.07422m12.22266-.97656l-2.33203 6.6289m1.99219-5.66406l1.21093-.1836m10.71094-.93359l1.13281 6.9375m-.96875-5.92578l.97657-.7461m11.875-.20312l1.73046 6.8125m-1.47656-5.82031l.90625-.82422m13.85547-.17578l-1.66797 6.82812m1.42188-5.83593l1.1914-.30079m13.21094-.36328l-3.35547 6.17188m2.86719-5.27344l1.22656.00781"/><g clip-path="url(#ah)"><path fill="none" stroke="#000" stroke-linecap="round" stroke-linejoin="round" stroke-miterlimit="10" stroke-width=".5" d="M143.34375 317.09766L144.65625 324"/></g><g clip-path="url(#ai)"><path fill="none" stroke="#000" stroke-linecap="round" stroke-linejoin="round" stroke-miterlimit="10" stroke-width=".5" d="M143.53516 318.10156l.95703-.76953"/></g><path fill="none" stroke="#000" stroke-linecap="round" stroke-linejoin="round" stroke-miterlimit="10" stroke-width=".5" d="M154.03125 319.29688l6.5664 2.5039m-5.60937-2.14062l-.15234-1.21875m12.4336 3.13671l6.71874-2.05859m-5.73828 1.75781l-.8711-.86718m13.40235 1.66406l6.32813-3.05469m-5.40625 2.61328l-.9922-.72656m13.85548 1.89453l5.39062-4.50781m-5.39062 4.50781l-2.27344-.92187m15.61719.95703l5.33203-4.57813m-5.33203 4.57813l-2.28516-.89063m15.4961.76563l5.53906-4.32813m-4.73438 3.69922l-1.11719-.5m13.51953.98438l5.75391-4.03516m-4.91406 3.44922l-1.09375-.5586m13.28906.67188l6.3125-3.08984m-5.39453 2.64062l-.99219-.72265m13.57031 1.49218l5.95313-3.73437m-5.08594 3.1914l-1.0664-.60937m14.36328 2.08203l4.2539-5.59375m-3.6328 4.78125l-1.21095-.19922m15.71875 1.71485l.62891-7m-.53906 5.98046l-1.1289.48047m14.66796.55469v-7.02734m0 6.0039l-1.08203.57422m16.48047-.23437l-4.16797-5.66016m3.5625 4.83594l-.53125 1.10547m15.8711-2.83985l-7.00782-.54297m5.98828.46094l.49219 1.125m13.80078-1.91406l-6.92187 1.19922m6.92187-1.19922l1.5039 1.9375m11.23829.66015l-5.77735-3.99609m4.9375 3.41406l-.14062 1.21875m13.6875.03516l-4.5625-5.34375m3.89844 4.5664l-.44922 1.14063m14.8711-5.2539l-5.44532 4.4414m4.65234-3.79687l1.1289.47656m13.50392-.24219l-6.4961 2.67969m6.4961-2.67969l1.89062 1.5664m10.76172-2.60546l-5.17188 4.76172m5.17188-4.76172l2.3125.8125m8.8789-1.91406l-.92578 6.96484m.92579-6.96484l2.30078-.85938m12.46484 7.28906l-3.82422-5.89453m3.26953 5.03516l-.59765 1.07422m16.04297-2.73438l-6.97657-.85937m6.97657.85937l.8789 2.29297m11.46094-5.17578l-5.02734 4.91016"/><g clip-path="url(#aj)"><path fill="none" stroke="#000" stroke-linecap="round" stroke-linejoin="round" stroke-miterlimit="10" stroke-width=".5" d="M466.07422 318.09375l2.33984.7461"/></g><path fill="none" stroke="#000" stroke-linecap="round" stroke-linejoin="round" stroke-miterlimit="10" stroke-width=".5" d="M465.34375 318.8086l1.16797.37109"/><path fill="#ff3030" fill-rule="evenodd" d="M357.86328 441.01953h7.69531V430.8711h-7.6953v10.14844"/><path fill="azure" fill-rule="evenodd" d="M359.69922 432.70703h.83203v5.73828h3.1914v.73828h-4.02343v-6.47656"/><path fill="#00f" fill-rule="evenodd" d="M383.80078 432.14063h8.61719v-10.14454h-8.61719v10.14454"/><path fill="azure" fill-rule="evenodd" d="M385.63281 423.82813h.83203v2.82421h3.28907v-2.82421h.83203v6.48046h-.83203v-2.91796h-3.28907v2.91796h-.83203v-6.48046"/><path fill="#00f" fill-rule="evenodd" d="M219.58203 414.38672h8.61719v-10.14453h-8.61719v10.14453"/><path fill="azure" fill-rule="evenodd" d="M221.41406 406.07422h.83203v2.82422h3.28907v-2.82422h.83203v6.48047h-.83203v-2.91406h-3.28907v2.91406h-.83203v-6.48047"/><path fill="#00f" fill-rule="evenodd" d="M370.48438 401.07422h8.62109v-10.14844h-8.6211v10.14844"/><path fill="azure" fill-rule="evenodd" d="M372.3164 392.76172h.83594v2.82031h3.28516v-2.82031h.83203v6.47656h-.83203v-2.91406h-3.28516v2.91406h-.83593v-6.47656"/><path fill="#ff3030" fill-rule="evenodd" d="M189.20703 387.75781h7.6914v-10.14453h-7.6914v10.14453"/><path fill="azure" fill-rule="evenodd" d="M191.03906 379.44531h.83594v5.73828h3.1914v.7422h-4.02734v-6.48048"/><path fill="#ffffe0" fill-rule="evenodd" d="M322.29297 361.35938h22.17969v-10.19141h-22.1797v10.1914"/><path fill-rule="evenodd" d="M325.79297 353h.50781v6.29297h-.78515v-4.48828H324.125V354.25l.5586-.0664.2539-.05079.23047-.08984.20312-.14453.17188-.20703.14453-.29688.10547-.39453m4.8125 0l.23047.01953.21875.05469.20703.08984.19531.1211.1836.14843.17187.17579.30469.42187.24219.49219.17968.54687.10938.57813.03906.58984-.03906.59375-.10938.58594-.17969.55469-.24218.5-.30469.42968-.17188.1797-.18359.15233-.19531.125-.20703.08985-.21875.0586-.23047.01952-.23047-.01953-.21875-.0586-.20703-.08983-.19531-.125-.1836-.15235-.17187-.17969-.30469-.42968-.24219-.5-.17969-.5547-.10937-.58593-.03906-.59375h.83203l.03125.5664.07812.50391.12891.44141.16016.375.1914.30078.21094.22266.22266.13672.22656.04687.22656-.04687.22266-.13672.21094-.22266.1914-.30078.16016-.375.1289-.4414.08204-.50391.02734-.5664-.02735-.5586-.08203-.5-.1289-.4375-.16016-.36328-.1914-.29297-.21094-.21485-.22266-.1328-.22656-.04298-.22656.04297-.22266.13281-.21094.21485-.1914.29297-.16016.36328-.1289.4375-.07813.5-.03125.5586h-.83203l.03906-.58985.10938-.57813.17968-.54687.24219-.49219.30469-.42188.17187-.17578.1836-.14843.1953-.1211.20704-.08984.21875-.05469.23047-.01953m5.08984 0h.51172v6.29297h-.78906v-4.48828h-1.38672V354.25l.5586-.0664.2539-.05079.22656-.08984.20703-.14453.17188-.20703.14062-.29688.10547-.39453m2.82422 2.17578h.78906l.01954-.3164.05859-.28516.09765-.2539.14063-.21485.1836-.17578.22265-.1289.26563-.07813.30468-.02735.23828.01953.22657.0625.20312.10157.17969.14062.14844.17188.11328.20703.07031.23437.02734.26563-.02343.26953-.06641.22265-.10938.19141-.15625.17188-.19921.16406-.2461.16406-.63672.39063-.53515.3125-.4375.3164-.34766.32422-.26562.33594-.1875.35156-.125.3711-.07032.39062-.01953.41797h4.21094v-.73828h-3.33203l.08203-.28516.11328-.23437.14844-.20313.1875-.17969.23047-.17187.27734-.17578.71875-.41797.41406-.20313.34766-.23046.28125-.25391.21875-.26563.16406-.27734.10938-.28516.0664-.28515.01954-.28125-.04297-.38281-.1211-.34766-.1875-.3086-.25-.26171-.30469-.21485-.34375-.15625-.3789-.09765-.41016-.03516-.4336.03125-.39843.10156-.35547.16406-.30469.23438-.24609.30469-.1875.375-.11328.44531-.04297.51953"/><path fill="#ffffe0" fill-rule="evenodd" d="M236.13672 423.4961h22.17969v-10.19141h-22.1797v10.1914"/><path fill-rule="evenodd" d="M239.63281 415.13672h.51172v6.29687h-.78906v-4.49218h-1.38672v-.5547l.5586-.0664.2539-.05078.23047-.08984.20312-.14453.17188-.20704.14062-.29687.10547-.39453m4.8164 0l.23048.01953.21875.05469.20703.08984.19531.1211.1836.14843.17187.17578.30078.42188.2461.49219.17968.54687.10938.57813.03906.58984-.03906.59375-.10938.58594-.17969.55469-.24609.5-.30078.42968-.17188.17969-.18359.15234-.19531.125-.20703.08985-.21875.0586-.23047.01952-.23047-.01953-.21875-.0586-.20703-.08984-.19531-.125-.1875-.15234-.17188-.17969-.30078-.42969-.24219-.5-.17969-.55468-.11328-.58594-.03515-.59375h.83203l.02734.5664.08203.50391.125.4414.16407.375.1914.30079.21094.22266.22266.13671.22656.04688.22656-.04688.22266-.13671.21094-.22266.1914-.30078.16016-.375.125-.4414.08203-.50391.03125-.56641-.03125-.5586-.08203-.5-.125-.4375-.16016-.36327-.1914-.29297-.21094-.21485-.22266-.13281-.22656-.04297-.22656.04297-.22266.13281-.21094.21485-.1914.29296-.16407.36329-.125.4375-.08203.5-.02734.55859h-.83203l.03515-.58984.11328-.57813.1797-.54687.24218-.4922.30078-.42187.17188-.17578.1875-.14844.1953-.12109.20704-.08984.21875-.05469.23047-.01953m5.08984 0h.51172v6.29687h-.78906v-4.49218H247.875v-.5547l.5586-.0664.2539-.05078.22656-.08984.20313-.14453.17578-.20704.14062-.29687.10547-.39453m2.82422 2.17578h.78516l.01953-.3164.0625-.28516.09766-.2539.14062-.21485.17969-.17578.22265-.12891.26563-.07813.3086-.02734.23827.01953.22266.0625.20703.10156.17578.14063.15235.17188.10937.20703.07422.23437.02344.26563-.01953.26953-.06641.22265-.10938.19141-.15625.17188-.19921.16406-.25.16406-.63282.39063-.53906.3125-.4375.3164-.34375.32422-.26562.33594-.19141.35156-.125.3711-.0664.39062-.02344.42187h4.21484v-.74218h-3.33203l.08203-.28516.11328-.23438.14844-.20312.1875-.17969.23047-.17187.27734-.17578.71875-.41797.41406-.20313.34766-.23047.27734-.2539.22266-.26563.16406-.27734.10938-.28516.0625-.28515.02344-.28125-.04297-.38282-.1211-.34765-.1875-.3086-.25-.26171-.30469-.21485-.34375-.15625-.3828-.09765-.40626-.03516-.4336.03125-.39843.10156-.35547.16406-.30469.23438-.25.30469-.18359.375-.11719.4453-.03906.51954"/></g></defs><use xlink:href="#ak"/></svg>