<svg xmlns="http://www.w3.org/2000/svg" role="img" xmlns:xlink="http://www.w3.org/1999/xlink" viewBox="142.45 309.95 326.84 171.84"><defs><clipPath id="a"><path d="M144 311.67188h1v168.65625h-1zm0 0"/></clipPath><clipPath id="b"><path d="M144 311.67188h324v168.65625H144zm0 0"/></clipPath><clipPath id="c"><path d="M467 311.67188h1v168.65625h-1zm0 0"/></clipPath><clipPath id="d"><path d="M144 478h4v2.32813h-4zm0 0"/></clipPath><clipPath id="e"><path d="M147 478h3v2.32813h-3zm0 0"/></clipPath><clipPath id="f"><path d="M153 479h8v1.32813h-8zm0 0"/></clipPath><clipPath id="g"><path d="M160 479h3v1.32813h-3zm0 0"/></clipPath><clipPath id="h"><path d="M167 479h8v1.32813h-8zm0 0"/></clipPath><clipPath id="i"><path d="M173 479h3v1.32813h-3zm0 0"/></clipPath><clipPath id="j"><path d="M180 479h8v1.32813h-8zm0 0"/></clipPath><clipPath id="k"><path d="M187 479h3v1.32813h-3zm0 0"/></clipPath><clipPath id="l"><path d="M193 479h8v1.32813h-8zm0 0"/></clipPath><clipPath id="m"><path d="M200 479h3v1.32813h-3zm0 0"/></clipPath><clipPath id="n"><path d="M206 479h9v1.32813h-9zm0 0"/></clipPath><clipPath id="o"><path d="M213 479h3v1.32813h-3zm0 0"/></clipPath><clipPath id="p"><path d="M220 479h8v1.32813h-8zm0 0"/></clipPath><clipPath id="q"><path d="M227 479h3v1.32813h-3zm0 0"/></clipPath><clipPath id="r"><path d="M233 479h8v1.32813h-8zm0 0"/></clipPath><clipPath id="s"><path d="M240 479h3v1.32813h-3zm0 0"/></clipPath><clipPath id="t"><path d="M246 479h9v1.32813h-9zm0 0"/></clipPath><clipPath id="u"><path d="M253 479h3v1.32813h-3zm0 0"/></clipPath><clipPath id="v"><path d="M260 478h8v2.32813h-8zm0 0"/></clipPath><clipPath id="w"><path d="M266 478h4v2.32813h-4zm0 0"/></clipPath><clipPath id="x"><path d="M273 478h8v2.32813h-8zm0 0"/></clipPath><clipPath id="y"><path d="M287 477h7v3.32813h-7zm0 0"/></clipPath><clipPath id="z"><path d="M300 477h7v3.32813h-7zm0 0"/></clipPath><clipPath id="A"><path d="M314 477h6v3.32813h-6zm0 0"/></clipPath><clipPath id="B"><path d="M329 476h3v4.32813h-3zm0 0"/></clipPath><clipPath id="C"><path d="M341 476h5v4.32813h-5zm0 0"/></clipPath><clipPath id="D"><path d="M354 477h6v3.32813h-6zm0 0"/></clipPath><clipPath id="E"><path d="M367 478h7v2.32813h-7zm0 0"/></clipPath><clipPath id="F"><path d="M379 479h9v1.32813h-9zm0 0"/></clipPath><clipPath id="G"><path d="M380 479h2v1.32813h-2zm0 0"/></clipPath><clipPath id="H"><path d="M393 479h8v1.32813h-8zm0 0"/></clipPath><clipPath id="I"><path d="M391 479h3v1.32813h-3zm0 0"/></clipPath><clipPath id="J"><path d="M406 479h8v1.32813h-8zm0 0"/></clipPath><clipPath id="K"><path d="M405 478h3v2.32813h-3zm0 0"/></clipPath><clipPath id="L"><path d="M420 478h7v2.32813h-7zm0 0"/></clipPath><clipPath id="M"><path d="M434 477h6v3.32813h-6zm0 0"/></clipPath><clipPath id="N"><path d="M446 479h8v1.32813h-8zm0 0"/></clipPath><clipPath id="O"><path d="M462 476h3v4.32813h-3zm0 0"/></clipPath><clipPath id="P"><path d="M144 465h4v4h-4zm0 0"/></clipPath><clipPath id="Q"><path d="M144 453h4v2h-4zm0 0"/></clipPath><clipPath id="R"><path d="M144 439h4v3h-4zm0 0"/></clipPath><clipPath id="S"><path d="M144 426h4v3h-4zm0 0"/></clipPath><clipPath id="T"><path d="M144 412h4v4h-4zm0 0"/></clipPath><clipPath id="U"><path d="M144 398h4v5h-4zm0 0"/></clipPath><clipPath id="V"><path d="M144 384h4v6h-4zm0 0"/></clipPath><clipPath id="W"><path d="M144 371h3v6h-3zm0 0"/></clipPath><clipPath id="X"><path d="M144 356h2v9h-2zm0 0"/></clipPath><clipPath id="Y"><path d="M144 343h2v8h-2zm0 0"/></clipPath><clipPath id="Z"><path d="M144 341h1v4h-1zm0 0"/></clipPath><clipPath id="aa"><path d="M144 343h1v3h-1zm0 0"/></clipPath><clipPath id="ab"><path d="M144 330h3v8h-3zm0 0"/></clipPath><clipPath id="ac"><path d="M144 316h1v9h-1zm0 0"/></clipPath><clipPath id="ad"><path d="M144 315h2v3h-2zm0 0"/></clipPath><g id="ae" clip-path="url(#clip1)"><path fill="#fff" fill-opacity="0" fill-rule="evenodd" d="M0 0h1000v1000H0zm0 0"/><path fill="#d3d3d3" fill-opacity="0" fill-rule="evenodd" d="M162.15234 355.86719l-.23437.29297.0586.23437.11718.17188.17578.23437.29297.34766.11328.0586.11719-.17188.0586-.23438.17577-.17578.46485-.17578h.69922l.23437.29297.28906.8164.0586.17579.17578.23046.35156.23438.69922.69922.17188.17578.23437.34765.23438.41016.28906.58203.41015.46485.23047.23437.23438.17578.11719.23047.17578.29297.17187 1.16406v.23438l.0586.28906.05859.11719.11719.11719.34765.41015.11719.17188.17578.17578.17578.23437.11719.17188.17188.35156.05859.23438.23437.40625.23438-.0586-.17578.17578-.0586.92969h-.58203l-.23437-.11328-.34766.11328-.11719.11719-.05859.29297-.0586.17578-.11718.17187-.46484.29297-.0586.23438-.0586.11328v.64453l.0586.17187v.41016l.0586.0586v.40624l.05859.40625.11719.17579.05859.05859.23047.64062-.0586.29297v.69922l-.05859.58203v.23438l-.0586.23047-.05468.35156v1.92187l.05469.1172h.42578l-.36719.11718-.02344.35156.89063 1.16797 1.74219.53906 1.33984.35938v.53906l.08984.8086.53516.71484 1.51953.26953.89063-.08594.08984 1.16406.53516.1797 1.16015-.1797 2.05469-.98437 1.16016-.36328 1.8789-.17578 1.69531-.1797-.17968.71876-1.51563.08594-1.25.08984-.80469.26953-1.07421.8086.26953.71875.53515.89843-.17968.625-.26563.8086.26563 1.07812.625.89844.80468.17969 1.25-.1797-.26562.72267.09766.5039.05468.29297v.17188l.0586.29296v.40625l.17578.1172.35156.11718h.40625l.29297-.17578.11328-.11719.0586-.11719.11718-.23047.0586-.17578.35156-.46484.23047-.17578.17578-.0586.17578.0586.0586.17578.11718.98828.05469.46875.0586.17188.11718.23437.17578.0586.8164.05859h.28907l.11719.23437.05859.40625.0586.35156v1.10547l.11718.29297.11719.34766.28906.69922.17578.35156.58203.7539.35157.17579.17187.0586.46875.23437.64063.46484.34765.23438.29297.17578.29297.05468.23047.0625.8164.34766.29297.17578.11328.17188.35157.35156.11719.17578.52343.64063v.28906l.0586.35156v.34766l.05859.35156.0586.28906.11718.0586.17188.05859h.17578l.58203.23437.17578.1172.17578.28905.17578.23438.11328.23437.29297.23047.11719.11719v.41016l.0586.05468.28906.23438.23437.11719.0586.11718.11718.17188.0586.11719.23047.23437.05859.17578.23437.0586.1172.05859-.1172.11328-.05859.11719v.11719l-.11719.29296-.11719.28907v.58203l.17579.11719.11718.05859.0586.11719.11719.11719.11328.05859.17578.34765.0586.35157.05858.40625v.17578l-.05859.17578-.11719.69922v.17187l.1172.17579.29296.29296h.40625l.17578.1172.11719.17187.11719.29296v.23438h-.52735l-.23047-.23438h-.23437l-.17578.0586-.0586.69922.0586.34765.11719.17579.17578.41015.11718.23047.28907.46875.17578.05469h.52344l.23437.0586.75781.64062.0586.29296v.23438l.05859.0586.23047.34765v.35156l-.11719.17188v.29297l.29297.28906.29297.17578.17187.0586.29297.17577.29297.1172.58203.40624.28906.23438.29297.17578.21875.16015.01563.01172.23047.17579.64062.52343.17578.23438.1172.17578.17577.17578.11328.17188v.64062l.1172.17578.46874.11719.58203.11719.23438.05859.23047.11328.29297.11719.11328.0586.58593.35156.28907.17187.17578.0625.17578.05469.17578.0586.69922.35155.28906.17579.23438.05468.28906.17578.23437.1172.64063.40624.29297.11719.17187.0586.23438.05859.41015.05859.23047.0586.23438.11718.0586.17188-.41017.17578.46875.0586.0586.29296.11328.23438.17578.05468.23438.0586.17578.05859.40625.11719.64062.23437.11719.17188.0586.23437v.17578l-.0586.1172-.0586.40624.23438.23438.11719.05859.34766.11719.64062.23047.17578.11718.28906.1172.17578.17577.23438.46485.58203 1.10546.17578.17579.34766.17578.17578.11719.35156.11718 1.04688.52344.23437.0586.46485.11327.29297.0586.46484.17578.75781.58203.23438.23438.34765.46484.17578.17578.28907.23438.8164.69921.29297.17579.28906.28906.29297.17578.29297.28906.69531.64063.17578.17578.29297.23437.28907.23438.46875.28906.64062.58203.34766.23438.23437.29297.34766.34765.35156.46485.9336.99218.34765.40625.11719.17579.23437.05859.11328.11719.64454.17578.23047.11328.23437.0586.29297.17577.23047.1172.9336.69921.40624.40625.23438.17578.40625.17578.23437.11719.8164.34766.34766.23437.23438.11719.29297.28906.23047.11719.7578.35156.35157.17188.23047.05859.29297.11719.23437.0586.8711.17577h.8164l.46875.23047.17188.0586.875.69921.46484.1172.29297.05858.17578.0586.23047.0586.46875.05859.34766.05859.35156.0586.40625.05859h.29297l.17187.0586v.23046l.17578.17578h.29297l.34766.0586.35156.05859.69922.11719h.64063l.46484-.23438.29297-.17578.17187-.11719.41016-.17187.28906-.17578.9336-.46485.46875-.29297.52343-.29296.46485-.17188.46484-.17578 1.05078-.46485.28906-.11718.41016-.11719.28906-.11719.52735-.17578 1.51562-.69922.58203-.34765.28907-.0586.29297-.0586.34765-.11718.875-.23047.35156-.11719h.11329l.23437-.05859.875-.23437.23438-.0586h.8125l.35156-.0586.8164-.11718.17188-.0586.35156-.05468.29297-.0586.23047-.05859.8164-.17578.17579-.0586h.34765l.23438-.05859.46484-.11718.75781-.17188.23438-.0586h.34765l.41016-.11718.28906-.0586 1.28516-.05859h.28906l.41016-.0586.23047-.05858h.17578l.875-.1172h.40625l.41015-.11718h.34766l.35156-.11328.8711-.0586h1.75l1.04687.28907.41016.11719.28906.11718.35156.11719.28907.11719 1.05078.17187.28906.0586h.29297l.29297.05859.17187.0586.41016.05859.17187.0586.1172.05858h.11718l.11719.0586.35156.0586h.11328l.41016.0664 1.92187.39453 1.92578.39453 1.51953.44922 1.69532.71875 2.14453.80469 1.60547-.71875 1.42968-.80469 1.16016-1.07813 1.25-.44921 3.03516-.71875 1.875-.35938 2.14453-1.34765 2.23437-1.25391 2.5-1.25781 1.69531-.44922 1.78516-.17969 1.16016-.26953.625.53906 1.33984-.26953.71485-.98828.98437-1.34375.44531-.17969.80469-.35937 1.875-.53907 1.78516-.44921 1.25-.26954 1.16015-.08984 1.69922-.08984 1.96094-.26954 1.25-.08984h.53906l.625-.08984h.89063l2.14453-.17969 2.41015-.17969 2.58985-.08984 1.69531.17969 1.60938.08984 1.42968.35938 1.16016.71875 1.875.98828 1.16015 1.52734.26563.71484.6289.08985.35548.89844.53515.53906.53516 1.52734 1.07422.35938h.53515l-.80469.53515.08985 1.70703.71484 2.69532.89063.80468.89453.98829.71484 1.2578 1.78516.53907 1.51953-.17969.35547 1.34375 1.60937-.80469.98047-.53906.26953.26953.31641-.21484.21875-.14453.80078.44922.44922-.35938h.35547l.53515-.26953.53907-.71875.53515-.26953.625-.98828 1.16016.44922.83984.3711 1.39454.61718 1.6953-.17969h1.60548l1.78515.08985.17969-1.70704.53516-1.34375.80468.26954.4922.84765.40233.40625-.08984.53906v.35938l.71485.44922.71093-.26953h1.42969l.35938.98828.4453 1.25781.71485 1.34375 1.25.6289 1.69531.62891.71485-.17969.17969-.53906.98046-.08984.44922.35937.08594 1.25782-.26563.6289-.53515.17969v.53906l.71484.98438.26563.53906.98437.98828.80078 1.07813-.26562.35937-.08985.89844-.625 2.33203-.35546 2.0664-.08985 1.79298-.17969.71875-.08984.53906v1.4375l-.98047 1.88281-.35937 1.70703-.53516.89844-.80469 1.16797-.26562.53906 2.05469 1.2539.08593.35938-.35546.53906-.08985-.17968v.80859l.08985 1.4375-.44532.71484-1.07422.09375-.26562.71485.53515.89844.8047.71875 1.16015.80859 1.33984.26953.44531.35938-.35546.44921-1.78907-.08984-1.25-.44922-.71484-.71875-.625-.08984-.17578 3.58984-.1875 1.3086h89.35937V311.70313h-55.26953v49.08203l.76172.125 3.28906.54296 2.02344 2.83594v2.7539l2.35156.33204 2.34766.33203h4.05078l-1.3789 4.16016-2.02344.70703-2.02344.70312-.54297.34375-2.59375 1.6172-.1875.11718-2.02344-2.07813-.73046-2.74218-2.67188-2.07813-1.375-3.5-.0664-.08203-1.95704-2.67188 2.75-1.41796v-49.08204H294.42187v91.41407l.1172.03125.1328.01172.07422.07421.10547.04688.08985.0586.08593.05859.08985.0586.29687.29687.0586.08984.03125.11719.02734.11719.01563.13671-.03125.1172-.0586.08983-.0586.08594-.04296.10547-.04688.10156-.02734.1211v.14453l.17578.26953.14844.14844.07422.08594.07422.07421.04296.10547.0625.08985.0586.08593.04297.10547.0586.08985.04687.10156.04296.10547.0586.08594.11719.17968.07421.07422.0625.08594.0586.08984.04297.10547.0586.08985.05858.08593.0625.08985.0586.08984.04297.10156.11719.17969.07421.07422.0586.08594.07422.07421.08984.0586.10547.04687h.14844l.1328-.01562.13282.01562.10156-.04687.07422-.07422.04688-.10156-.01563-.13281v-.14844l-.04687-.10547-.02735-.11719-.04687-.10156-.02735-.1211-.04296-.10156-.0625-.08984-.04297-.10156-.04297-.10547-.03125-.11719-.01563-.13281-.01171-.13672.08593-.0586.0586-.08593.12109-.03125.04297.10547.01562.1328v.1172l.0586.10156.0586.08984.08983.0586.14844.14843.0586.08985.04296.10547-.01171.10156.08593.0586.10547.04687.08594.0586.08984.05858.07422.07422-.11719.02735-.10546.04687-.08594.0586-.07422.07421-.0586.08985-.0625.08594-.02734.12109-.04687.10156-.04297.10547-.03125.11719-.01172.13281-.01563.13281v.14844l.02735.11719.04687.10547.04297.10156.0586.08984.07421.07422.08985.0586.07422.07421.08984.0586.0586.08984.04296.10547.04688.10156.11719.03125.1328.01563h.14845l.11718-.03125.10547.04297.04297.10547.04688.10156.02734.1211L299.5 410l.02734.11719.03125.1211.02735.11718.10547.04297.10156.04687.13281-.01562.14844.14844.0625.08593.07422.07422.07031.07422.08984.0625.10547.04297.10156.04297.1172.03125.13671.01562.11719-.03125.07422-.07422.02734-.11718-.01172-.13282-.03125-.12109-.02734-.11719.04297-.10547h.11719l.08984.0625.11719.02735h.14843l.13282.01562h.14843l.13282.01563.1328-.01563h.14845l.1328-.01562.13282-.01172.13672.01172.11719-.02735.13281-.01562.1914-.0586-.05859.17579-.01562.1328-.02735.1211-.01562.13281-.0586.08594-.1328.01563-.10548.04687-.10546.04297-.1172.03125-.11718.02735-.26563.03125h-.14843l-.13281.01562-.07422.07422.05859.08594.14844.14843.11719.1797.07421.0703.08985.0625.08984.0586.08594.0586.08984.05858.10156.04297.10547.0625.10547.04297.08594.0586.10547.04687.10156.04297.17969.11719.0586.08984-.04298.10156-.04687.10547.01562.13281.22266.22266.0586.08985.04296.10156.03125.1211.04297.10155.01563.13282.03125.11718.01171.13672.03125.11719.14844.14844.10156.04297.10547.04296.1172.03125.1328.01563.13672.01563h.11719l.11719-.03125.08984-.0586.04297-.10547.04688-.10156.04296-.10547.03125-.11719.01172-.1328v-.14845l-.01172-.1328-.01562-.13282-.03125-.11719-.04297-.10547-.04688-.10547-.04296-.10156-.04297-.10547-.01563-.13281.01563-.13281.02734-.11719.03125-.11719.02735-.1211.04687-.10155.08984-.0586.08594-.0625.07422-.07422.08984-.05859.22266-.22266.0586-.08593.07421-.07422.11719-.17969.0586-.08594v-.14844l-.07423-.07421-.10156-.04688-.10547-.04297-.10156-.04297-.0586-.08984-.04687-.10547-.02734-.11719.08984-.05859.11719-.03125.10156-.04297.17969-.11719.14844-.14843.01172-.13282-.01172-.10546-.08985-.0586-.1328.01563h-.14845l-.1328.01562-.13282-.01562-.1211-.03125-.08593-.0586-.07422-.07422-.0586-.08984-.0625-.08594-.11718-.17969-.0586-.08593.03125-.1211.08594-.05859.1211-.03125.05859-.08594v-.1211l-.03125-.11718-.0586-.08984-.05859-.08594-.04687-.10547-.02735-.11719-.01562-.1328.0586-.08985.07421-.07422.08984-.0586.1172-.17968.07421-.07422.0586-.08594.14843-.14844.1211-.03125.1328-.01562.13282.01562.07422.07422.04297.10547.01562.13281-.03125.1172-.11719.03124-.1328.01172-.14844.14844-.04297.10547-.04688.10156-.02734.1211-.03125.11718v.14844l.03125.11719.04297.10546.05859.08985.07422.07031.07422.07422.11719.03125.12109.02734.11719-.02734.1328-.01563h.1172l.08984.0586.07422.07422.04687.10546.0586.08594.10156.04688.13281.01562.10547.04297.08594.0586-.01172.10546-.07422.07422-.17969.11719-.05859.08984-.08984.0586-.07032.07422-.07421.07421-.0625.08985-.02735.11719-.01562.1328.01562.13282-.01562.13281v.14844l.01562.13281.02735.1172.03125.12108.07421.07422.08985.0586.08594.0586.08984.05858.11719.03125v.08594l-.10157.04688-.08984.0586-.26563.03124-.11718.02735h-.14844l-.10547.04296-.10156.04688-.0586.08984-.0625.23438-.01171.13281-.03125.1211-.01563.1328v.29298l-.01172.1328.01172.13673.01563.1328.1328.01563.13282.01172.1211.03125.08593.0586.07422.07421.04688.10547.04296.10157.01563.1328v.44532l-.01563.13281v.44532l.03125.26562.02735.11719.01562.13281.03125.11719.08594.21094.03125.26562v.14844l-.03125.11719-.02734.11718-.03125.1211-.02735.11719-.03125.11718-.03125.1211-.01171.1328-.01563.13282.08984.0586.1172-.03125.10155.01562.04688.10547-.03125.26562v.44141l-.04297.10547-.04688.10547-.04296.10156-.04297.10547-.0586.08594-.03125.12109-.04296.11719-.03125.11719-.01563.1328.01563.13282.05859.08984.10547.04688.08594.0586.05859.08593-.01172.13672-.03125.11719-.04297.10156v.44531l-.01562.13281v.14844l-.03125.11719-.04297.10547-.02735.11719-.04687.10546-.04297.10157-.03125.12109-.02734.11719-.03125.13281-.03125.11719-.02735.11719-.04297.10546-.03125.1172-.03125.12108-.01171.13282-.01563.13281v.29688l.02734.11718v.14844l.04688.39844.02734.11719.0586.08984.12109.03125h.14844l.13281-.01563.0586.08985v.11719l-.0586.08984-.08984.0586-.10157.04296-.10546.04688-.08985.05859-.08594.0586-.13671.01562-.1172-.03125-.1328-.01563-.10157.04688-.0625.08594-.01172.13671-.01562.13282-.03125.11719-.02735.11718-.01562.13281-.03125.1211v.29687l.01563.13282.03125.11718v.14844l.01171.13281v.14844l-.02734.11719-.04688.10156-.02734.1211-.03125.11718-.0586.08985-.07421.07421-.10156.04297-.10547.04688-.11719.02734-.1211.03125-.10156-.04687.0586-.08594.10547-.04688.02734-.11718.03125-.11719.02734-.1211.03125-.11718v-.14844l.01563-.13281-.03125-.11719-.04297-.10547-.10547.01563-.07422.07422-.10156.04296-.08984.0625-.07422.07422-.04297.10157-.01563.1328-.03125.1172L304.25 426l-.03125.11719-.02734.11719-.03125.12109-.02735.11719-.03125.11718-.04297.10547-.08984.0586h-.08984l-.1172-.03125-.03124-.08594.01562-.13672-.03125-.11719v-.14844l-.01171-.1328v-.14844l-.0625-.23438-.02735-.1211-.04297-.10156-.04687-.10546-.0586-.08594-.05859-.08985-.04297-.10546-.0625-.08594-.14844-.14844-.0703-.07422-.10548-.04687-.10547-.04297-.10156-.04297-.29687-.29688-.08985-.07421-.08594-.0586-.10546-.04297-.08985-.0625-.08594-.0586-.10546-.04296-.08985-.0586-.08594-.0625-.07421-.0703-.10547-.04688-.08594-.0586-.10547-.04296-.08984-.0625-.10156-.04297-.10547-.04297-.08594-.0586-.10547-.04687-.10547-.04297-.10156-.04687-.08985-.0586-.10156-.04297-.10547-.04296-.08984-.0625-.11719-.02735-.13281-.01562-.13281.01562H299.75l-.13281.01563-.11719-.03125-.08984-.0586-.07422-.07422-.08985-.05859-.10156-.04688h-.14844l-.12109-.02734-.10156-.04297-.07422-.07422-.11719-.17968-.08984-.0586-.10156-.04297-.08985-.0625-.10547-.04296-.08984-.0586-.08594-.0586-.10547-.04687-.0586-.08594-.05858-.08984-.04297-.10547-.04688-.10156-.07422-.07422-.08594-.0586-.07421-.07421-.08985-.0586-.22265-.22265-.04297-.10547-.03125-.26563.10547-.04296h.14453l.10547.04296.07421.07422.08985.0586.08594.0586.10546.04687.08985.05859.14844.14844.0703.07422.14845.14843.0625.08594.07421.07422.08594.0586.07422.07421.08985.0625.08984.0586.08594.05859.26953.17578.10156.04688.10547.04296.10156.04297.04688-.07421.05859-.08594.07422-.07422.07031-.07422.10547.04297.07422.07422.0586.08984.04296.10156.04688.10547.04296.10547.1211.02735.11719-.02735.07421-.08984.04297-.10547.0586-.08985.07422-.07421.10546-.04297.1172-.02735.1328.01172.08985.0586.14844.14843.05859.08985.04297.10547.04687.10156.04297.10547.04297.10156.10547.04688.10547.04296.13281.01563.08594-.0586.0586-.08984.07421-.07422.10547-.04297.11719.02735.10547.04687.10156.04297.10547.04297.10156.04688.17969.11718v.11719l-.01563.13281.01563.13281.01562.13672.0586.08594.10156.04688.1211.02734.11718.03125h.14844l.11719-.03125.05859-.08984.17969-.1172.05859-.08983.07422-.07422.0586-.08594.11718-.17969.17969-.11719.11719.03125.08984.0586.04297.07422-.01563.1328v.1172l.08985.05859h.14843l.13282-.01563.1328-.01171.26563-.03125.10547-.04297.11719-.03125.1211-.02735.07421-.07421.07031-.07422.0625-.08985-.01562-.10547-.04688-.10156-.10156-.04297-.10547-.01562-.11718.02734-.26563.03125h-.14844l-.07421-.07422-.08985-.0586-.11719-.03124-.11718-.02735-.13282-.01562h-.14843l-.13282.01563h-.29687l-.10547-.04688-.14844-.14844-.04297-.10156-.05859-.08984.22266-.22266.08593-.0586.10547-.04296.11719-.03125.13281-.01563.13281.01563.13672.01562.10157.04297.1328-.01172.08985-.0625.10156-.04297.0625-.08984-.04687-.10156-.08984-.0586-.1172-.03125-.10155-.04296-.0586-.08985-.0625-.08984v-.11719l.01563-.13281.10547-.04688.07421-.07031v-.1211l-.08984-.05859-.03125-.11719.08985-.05859.07421-.07422.04297-.10547.0586-.08984.04687-.10156.01563-.13281v-.14844l-.04688-.10547-.04297-.10156-.08984-.0586-.13281-.01562-.10157-.04297-.13671-.01563-.1172-.03125h-.4453l-.13282-.01562-.13281-.01172-.13281-.01563-.11719-.03125h-.14844l-.13281-.01562-.13281-.01172-.26563-.03125-.1211-.04297-.08593-.0586-.07422-.07421v-.14844l.01172-.13281.10547-.04688.10156-.04296.13281-.01563h.15235l.13281-.01562h.29297l.1211.03125.10156.04296.08984.0586.23438.0625.12109-.04688.08984-.05859.10156-.04297.13282-.01562.10547.04296.10156.04688.13281.01172.1211-.02735h.14453l.12109-.03125.11719-.02734.10547-.04687.07421-.07422.08594-.0586.14844-.14843.0586-.08594.04687-.10547.02734-.11719.01563-.10547-.10156-.04296-.08985-.0586-.11719-.03125-.10546-.04297-.08985-.0625-.07422-.08594-.07422-.07421-.10156-.04297-.10547-.04688-.10156-.04297-.0586-.08984-.04687-.10156-.08594-.21094-.0625-.08594-.05859-.08984-.07422-.07422-.08594-.0586h-.26953l-.11719.03126-.08984.05859-.10156.04297-.13281.01562-.10547-.01562-.02735-.11719-.0625-.08984-.11718-.03125-.10157-.04297-.14843-.14844-.03125-.11719-.01563-.10546.07422-.07422.17969-.1172.11719-.02733.11718-.03125.13672.01562.10156.04297.10547.04297.10156.04687.10547.04297.1172.03125.1328.01563.1172.02734.1328.01563.10547-.01563.08985-.0586-.07422-.07421-.10547-.04297-.07422-.07422-.07422-.08984-.14844-.14844-.08593-.0586-.08985-.05859-.07422-.07422-.08984-.0586-.10156-.04687-.1211-.02734-.10156-.04688-.10547-.04296-.11719-.03125-.10156-.04297-.1211-.03125h-.14843l-.11719.03125-.10546.04297-.08594.0625-.17969.11718-.08594.0586-.08984.0586-.10547.04687-.08594.05859-.10547.04297-.10156.04297-.10547.04687-.07422.07422-.05859.08985-.0586.08593-.04687.10547-.0586.08594-.07421.07422-.13281-.01172-.1172-.03125h-.11718l-.07422.07422-.08984.0586-.07422.07421-.08984.0586-.08594.05859-.10547.04687-.10156.04297-.13672.01563-.10156-.04297-.14844-.14844-.10547-.04688h-.08594l-.10547.04688-.10156.04297-.1211.03125-.11718-.03125-.07422-.07422v-.11719l.03125-.1211.07422-.0703.0586-.08985.07421-.07422.11719-.03125.10547-.04296h.29297l.13281-.01563.13672-.01563.10156-.04296.08985-.0586.10156-.04687.08984-.0586.13281-.01171.08985.05859.13281.01172.08984-.0586.08594-.05859.10547-.04297.08984-.0586.08594-.0625.08985-.05859.14843-.14843.0586-.08594.05859-.08985.10547-.04296.13281-.01563.11719.02735.1211.03125.05859-.0586.05859-.08984.03125-.26563.02734-.11719.10547.01172.13281.01563.10157-.04297.08984-.0586.0586-.08984.07421-.07422.0586-.08984.04687-.10156.01172-.13281-.01172-.13282-.04687-.10547-.14844-.14843-.0586-.08985-.05859-.08594-.04297-.10546v-.44532l.01563-.1328v-.14845l.01172-.1328-.0586-.0586-.08984.0586-.10156-.04298-.17969-.11719-.08594-.05859-.0625-.08984-.0586-.08985-.07421-.07421-.08594-.0586-.1211.03125-.10155.01172-.10547.04688-.08594.05859-.10547.04297-.14844.14844-.08984.05859-.08594.0586-.08984.0625-.10547.04296-.13281.01563v-.1211l.10547-.04297.11718-.03125.07422-.0703.04297-.10548v-.14844l-.02734-.11718-.14844-.14844-.13281-.01563h-.14844l-.11719.03125-.10547.04297-.10156.04297-.08984.0625-.11719.02735-.07422-.07422.01172-.13281-.04297-.10157-.04297-.10547-.08984-.05859-.11719.02734-.1211.03125-.11718.03125-.10156.04297-.1211.03125-.10156.04297-.10547.04297-.08984.0586-.10156.01562v-.11719l.01562-.13281-.0586-.08985-.07421.04297-.14844.14844-.0586.08985-.07421.07421-.04688.10547-.04296.10156-.07422.07422-.0586.08985-.07422.07422-.05859.08593-.07422.07422-.08984.0625-.07422.07031-.07422.07422-.10156.01563-.13281.01562-.10547-.04296v-.1211l.14843-.14844.04297-.10156.0586-.08984.04687-.10156.04297-.10547.0586-.08985.03124-.11719.04297-.10156.03125-.1211.02735-.11718.04687-.10547.04297-.10156.04297-.10547.07422-.07031.08984-.0625.08985-.0586.10156-.04296h.29687l.26563-.03125.10547-.04297-.07422-.07422-.11719-.03125-.10547-.04297-.08984-.0586-.10156-.04687-.08985-.0586-.10156-.04296-.10547-.04297-.08984-.0625-.08594-.0586-.10547-.04296-.10156-.04297-.1211-.03125-.11718-.03125-.10157-.04297L297.5 410.25l-.10156-.04297-.08985-.0586-.04296-.10546-.01563-.13281.10156-.04297.13281-.01563.13672.01563.13282-.01563.10156-.04297.0586-.08984.01562-.10547-.08985-.0586-.07421-.07421-.10157-.04297-.08984-.0586-.14844-.14843-.04297-.10547-.01562-.13281v-.29297l-.0586-.08985-.08984-.05859-.07422-.07422-.04297-.10547-.03125-.11718-.0586-.08985-.07421-.07422-.11719-.02734-.07422-.07422-.08984-.0586-.08984-.0625-.08594-.05859-.07422-.07421-.0586-.08594-.04687-.10547-.08594-.0586-.14843-.14843-.19532-.0586-.1328.01563-.10157.04297-.07422.07422-.04688.10156-.04296.10547-.0586.08984-.0586.08594-.29687.29687-.08984.0586h-.08594l-.0625-.08594-.04297-.10547.03125-.11719.0586-.08984.02734-.11719-.01172-.13281-.08984-.0625-.10547.04688-.11719.02734-.11719.03125-.26953.17578-.10156.04688-.11719.02734-.10546.04687-.08985.0586-.10156.04297-.0586-.08594-.04687-.10547.01563-.13281.04687-.10547.07031-.07422.07422-.07031.0586-.08985v-.14843l-.04297-.10547h-.23829l-.10156.04687-.03125.11719-.02734.11719-.03125.1211-.07422.04296-.13281.01563-.07422-.04688-.04297-.10156-.04297-.10547-.04687-.10156-.04297-.10547-.1211.03125-.10156.04297-.13281.01562-.11719.03125-.10547.04297-.08984.0586-.10156.04687-.1211.02734-.13281.01563-.10156-.04297-.0586-.08985-.04687-.10546-.04297-.10157-.04297-.10546v-.1172l.0586-.08984.08593-.05859.17969-.11719.10156-.04687.10547-.04297.10547-.0586.10156-.04296.08985-.0625.10156-.04297.10547-.0586.10156-.04687.08984-.0586.10547-.04296.10156-.04297.08985-.0625.10156-.04297.13672-.01563.11719.03125.10156.04297.1211.03125.10156.04297.10546.04688.10157.04296.10547.04297.10156.04688.10547.04297.10156.04297.10547.04687.08594.0586.10546.04296.1172.03125.10546.04297.10156.04688.08985.0586.10547.04296.10156.04297.10547.04687.11719.02735.10156.04687.1211.02735h.14843l.08594-.0586.01562-.10156.0586-.08984-.02735-.1172-.07422-.07421-.11719-.17969-.07421-.07422-.08985-.07421-.17969-.1172-.08593-.05859-.10547-.04296-.10156-.04688-.26954-.17578-.05859-.08985-.07422-.07421-.0586-.08985-.04296-.10156-.03125-.11719-.01563-.13672v-.5625l-.01171-.1328-.01563-.13282-.03125-.11719-.01562-.13281-.01172-.13281-.03125-.1211-.22266-.22265-.0586-.08594-.01562-.10547.03125-.11719.13281-.01562v-91.41406H172.9922v1.45312l-.0586.23438-.35156 1.05078-.17187.52343-.1172.34766-.17577.41016-.11719.17187-.23438.29297-.23046.0586h-.35157l-.11718.05859-.23047.40625v.29297l.11719.17578.23046.23047.1172.23437.64062.75781.29297.46485.17578.23437.23047.35156.23437.34766.64063.8164.17578.46485.17187.41016.11719.69531.17578.46875.11719 1.39844.0586.46484v.875l.11718 1.04688v4.78125l-.0586.46484-.35156 1.28125-.17578.52344-.11328.41015-.35156.9297L172.93359 336l-.23437.58203-.11719.17578-.17187.34766-.17578.40625-.35157.8164-.0586.29297-.11327.29297-.11719.28906-.0586.17579-.11718.875-.0586.40625-.05859.11718-.0586.17579-.05859.17187-.23047.52734-.11718.17188v.23437l-.11719.23438-.0586.17187-.17577.58594v.28906l-.0586.17579v.29296l-.0586.11329-.05859.52734v.17187l-.05468.23438v2.6211l-.17578.8164-.1172.17578-.17577.23438-.1172.17187-.11327.23438-.58594.93359-.23047.28906-.29297.46485-.17578.23437-.28906.35156-.35156.69922-.11328.23047-.17579.41016-.17578.23046-.40625.52735-.8164.69922-.29297.17187-.28906.23438-.17579.11719-.17578.17578-.52344.40625-.52734.17578-.17187.17578-.23438.05469-.64062.17578h-.75782m12.21094 31.02344l-1.07422.44921.35938.89454 1.25-.71485.44531-.53906-.98047-.08985"/><path fill="#d3d3d3" fill-opacity="0" fill-rule="evenodd" d="M201.50781 416.59766h-.89453l.44922.6289.98047.35938.80469-.08985.4453-.98828-.17577.08985-.71485-.35547-.89453.35547m154.6211 59.0703l-.0586-.52343v-.29297l.11328-.29297.0586-.23046.46875-.46875h.11328l.11719-.11329.11718-.05859h.17579l.23437-.0586h.34766l.23437.0586.11719.0586.23047.17187.0586.17578.11718.58203v.29297l-.11719.17578-.17187.28906-.17579.17579-.52734.52343-.23047.23438-.11719.0586h-.17578l-.11718-.0586-.40625-.29297-.17579-.11719-.11718-.0586-.0586-.11327-.05468-.1172m6.64062-10.95702l-.0586-.17188v-1.10937l.0586-.17188.17578-.0586.17188-.05858h.17578l.23437-.0586.1172.0586.05858.69921-.05859.17188-.11719.17578-.11718.0586-.23438.52343-.11328.0586h-.23438l-.05859-.1172m9.61328-14.39062l-.11719-.17578v-.69922l.29297-.875.1172-.17187.17577-.35156.11328-.23047.1172-.29297.35155-.75781.1172-.23047.17187-.23438h.17578l.11719-.0586h.64062l.11719.0586.23437.23438.17188.11328.35156.29297.11719.11718.11328.17579v.11328l.11719.05859.11718.11719v.69922l-.05859.17578v.23047l-.0586.17578-.34765 1.05078-.11719.23047-.11719.23437-.11718.0586-.23047.23437-.64063.28906h-.875l-.41015-.11718-.64063-.46485"/><path fill="none" stroke="#bebebe" stroke-linecap="round" stroke-linejoin="round" stroke-miterlimit="10" stroke-width=".5" d="M467.95703 311.69531H144.02734v168.625h323.9297v-168.625"/><g clip-path="url(#a)"><path fill="#fff" fill-opacity="0" fill-rule="evenodd" d="M144 475.89063v4.4375h.0039H144V311.67188h.0039H144v164.21875"/></g><g clip-path="url(#b)"><path fill="#fff" fill-opacity="0" fill-rule="evenodd" d="M144.0039 480.32813V311.67188h17.75V438.5703l-1.69921 1.8125 1.69922 3.23828v8.29297l-1.14453 1.78516.30468 4.4375.83985 1.77734 4.4375-1 4.4375-.65625.08203-.1211-.08203-.07421-4.4375-.41797-3.47657-3.94531-.96093-1.78516v-8.29297l2.22265-3.23828-2.22265-1.8125V311.67187h8.875v127.85938l-.97657.85156.97657.66406 1.91406-.66406-1.91406-.85156V311.67187h71.01562v126.15235l-3.28906 2.5586 3.28906 2.47265 4.34375-2.47266-4.34375-2.5586V311.67189h17.7539v121.22656l-3.63671 3.04687 3.63672 3.1289 2.77734-3.1289-2.77734-3.04687V311.67188h13.3125V429.6328l-4.25 1.875 4.25 1.73047v12.8711l-3.79688 3.15234-.64062.8789-1.10938-.8789-3.32812-1.60156-2.125 1.60156 1.61328 4.4375.51172.38281 4.4375.96485 4.4375-1.15625.41406-.19141 2.48828-4.4375-2.90234-3.15235v-12.87109l3.8125-1.73047-3.8125-1.875V311.67187h8.8789v120.23829l-3.47265 4.03515 3.47265 3.42969 4.4375-1.1836 4.4375-1.15234 1.08985-1.09375-1.08985-1.17187-4.4375-.88672-4.4375-1.97656V311.67187h71.01172V437.4922l-2.88672 2.89062 2.88672 2.89063 3.375-2.89063-3.375-2.89062V311.67188h17.7539v138.09765l-2.32421 3.92969-2.11328 1.7461-3.26953 2.6914-1.16797 3.29297-.40235 1.14453.40235.36719 4.4375.97265 4.4375-.33984 4.4375.41015 3.94531 3.03125.10156 4.4375.39454.48829 2.09765-.48829-1.21484-4.4375 3.55469-1.17578 1.46093 1.17579 2.97656 2.64062 2.22266-2.64063 2.21485-2.91015 1.3789-1.53125-.36328-4.4375-1.01563-1.23438-4.4375-.39843-2.71875-2.8047-1.71875-1.78905-4.4375-.22266-4.4414 1.90234-4.4375-3.8203V311.67186h97.64062v168.65625H144.00391"/></g><path fill="#50fcfc" fill-rule="evenodd" d="M161.7539 443.6211l-1.69921-3.23829 1.69922-1.8125 2.22265 1.8125-2.22265 3.23828m-.83985 14.51563l-.30469-4.4375 1.14454-1.78516.96093 1.78516 3.47657 3.94531 4.4375.41797.08203.07422-.08203.1211-4.4375.65624-4.4375 1-.83985-1.77734m9.71485-17.08985l-.97657-.66406.97657-.85156 1.91406.85156-1.91406.66406m71.01562 1.8086l-3.28906-2.47266 3.28906-2.5586 4.34375 2.5586-4.34375 2.47266m17.7539-3.78125l-3.63671-3.1289 3.63672-3.04688v2.96094l-.10156.08593.10156.08594.07812-.08594-.07812-.08594v-2.96093l2.77734 3.04687-2.77734 3.1289"/><path fill="#00e8fc" fill-rule="evenodd" d="M259.39844 436.03125l-.10156-.08594.10156-.08594.07812.08594-.07812.08594"/><path fill="#50fcfc" fill-rule="evenodd" d="M263.32422 453.69922l-1.61328-4.4375 2.125-1.60156 3.32812 1.60156 1.10938.8789.64062-.8789 3.79688-3.15235 2.90234 3.15235-2.48828 4.4375-.41406.1914-4.4375 1.15625-4.4375-.96484-.51172-.38281m9.38672-20.46094l-4.25-1.73047 4.25-1.875 3.8125 1.875-3.8125 1.73047m8.8789 6.13672l-3.47265-3.42969 3.47265-4.03515v1.93359l-1.8125 2.10156 1.8125 1.78906 2.78125-1.78906-2.78125-2.10156v-1.9336l4.4375 1.97657 4.4375.88672 1.08985 1.17187-1.08985 1.09375-4.4375 1.15235-4.4375 1.18359"/><path fill="#00e8fc" fill-rule="evenodd" d="M281.58984 437.73438l-1.8125-1.78907 1.8125-2.10156 2.78125 2.10156-2.78125 1.78906"/><path fill="#50fcfc" fill-rule="evenodd" d="M352.60156 443.27344l-2.88672-2.89063 2.88672-2.89062v2.33594l-.55469.55468.5547.55469.64843-.55469-.64844-.55469v-2.33593l3.375 2.89062-3.375 2.89063"/><path fill="#00e8fc" fill-rule="evenodd" d="M352.60156 440.9375l-.55469-.55469.5547-.55469.64843.5547-.64844.55468"/><path fill="#50fcfc" fill-rule="evenodd" d="M361.48047 462.9414l-.40235-.36718.40235-1.14453 1.16797-3.29297 3.26953-2.6914 2.11328-1.7461 2.32422-3.92969 4.4375 3.82031v.2422l-1.625 4.30468 1.625 2.07812 2.10547-2.07812-2.10547-4.30469v-.24219l4.4414-1.90234 4.4375.22266v3.80078l-2.45703 2.42578 2.45704 1.26562 2.51562-1.26562-2.51563-2.42578v-3.80078l1.71875 1.78906 2.71875 2.80469v2.33984l-4.11718 3.73047 4.11719 3.96094 3.76953-3.96094-3.76954-3.73047v-2.33984l4.4375.39843 1.01563 1.23438.36328 4.4375-1.3789 1.53125-2.21485 2.91015-2.22265 2.64063-2.97657-2.64063-1.46094-1.17578-3.55468 1.17579 1.21484 4.4375-2.09765.48828-.39454-.48829-.10156-4.4375-3.94531-3.03125-4.4375-.41015-4.4375.33984-4.4375-.97265"/><path fill="#fff" fill-opacity="0" fill-rule="evenodd" d="M374.79297 453.83203l-1.625 4.30469 1.625 2.07812 2.10547-2.07812-2.10547-4.30469m8.8789 1.8789l-2.45703 2.42579 2.45704 1.26562 2.51562-1.26562-2.51563-2.42578"/><path fill="#00e8fc" fill-rule="evenodd" d="M388.10938 466.53516l-4.1172-3.96094 4.1172-3.73047v1.48438l-2.48047 2.24609 2.48046 2.38672 2.27344-2.38672-2.27344-2.2461v-1.48437l3.76954 3.73047-3.76954 3.96094"/><path fill="#00d4fc" fill-rule="evenodd" d="M388.10938 464.96094l-2.48047-2.38672 2.48046-2.2461v1.48438l-.84375.76172.84375.8125.76954-.8125-.76954-.76172v-1.48438l2.27344 2.2461-2.27344 2.38672"/><path fill="#00c4fc" fill-rule="evenodd" d="M388.10938 463.38672l-.84375-.8125.84375-.76172.76953.76172-.76954.8125"/><g clip-path="url(#c)"><path fill="#fff" fill-opacity="0" fill-rule="evenodd" d="M467.9961 480.32813H468V311.67188h-.0039H468v168.65625h-.0039"/></g><g clip-path="url(#d)"><path fill="none" stroke="#000" stroke-linecap="round" stroke-linejoin="round" stroke-miterlimit="10" stroke-width=".5" d="M147.30078 479.1289l-6.60156 2.40235"/></g><g clip-path="url(#e)"><path fill="none" stroke="#000" stroke-linecap="round" stroke-linejoin="round" stroke-miterlimit="10" stroke-width=".5" d="M147.30078 479.1289l1.82422 1.64063"/></g><g clip-path="url(#f)"><path fill="none" stroke="#000" stroke-linecap="round" stroke-linejoin="round" stroke-miterlimit="10" stroke-width=".5" d="M160.71094 479.4336l-6.79297 1.78906"/></g><g clip-path="url(#g)"><path fill="none" stroke="#000" stroke-linecap="round" stroke-linejoin="round" stroke-miterlimit="10" stroke-width=".5" d="M160.71094 479.4336l1.66797 1.80077"/></g><g clip-path="url(#h)"><path fill="none" stroke="#000" stroke-linecap="round" stroke-linejoin="round" stroke-miterlimit="10" stroke-width=".5" d="M173.97656 479.2539l-6.6914 2.14844"/></g><g clip-path="url(#i)"><path fill="none" stroke="#000" stroke-linecap="round" stroke-linejoin="round" stroke-miterlimit="10" stroke-width=".5" d="M173.97656 479.2539l1.75781 1.71094"/></g><g clip-path="url(#j)"><path fill="none" stroke="#000" stroke-linecap="round" stroke-linejoin="round" stroke-miterlimit="10" stroke-width=".5" d="M187.33984 479.42188l-6.78906 1.8125"/></g><g clip-path="url(#k)"><path fill="none" stroke="#000" stroke-linecap="round" stroke-linejoin="round" stroke-miterlimit="10" stroke-width=".5" d="M187.33984 479.42188l1.67188 1.79687"/></g><g clip-path="url(#l)"><path fill="none" stroke="#000" stroke-linecap="round" stroke-linejoin="round" stroke-miterlimit="10" stroke-width=".5" d="M200.66406 479.45313l-6.8086 1.75"/></g><g clip-path="url(#m)"><path fill="none" stroke="#000" stroke-linecap="round" stroke-linejoin="round" stroke-miterlimit="10" stroke-width=".5" d="M200.66406 479.45313l1.65235 1.8125"/></g><g clip-path="url(#n)"><path fill="none" stroke="#000" stroke-linecap="round" stroke-linejoin="round" stroke-miterlimit="10" stroke-width=".5" d="M213.95703 479.3789l-6.76562 1.89844"/></g><g clip-path="url(#o)"><path fill="none" stroke="#000" stroke-linecap="round" stroke-linejoin="round" stroke-miterlimit="10" stroke-width=".5" d="M213.95703 479.3789l1.69531 1.77735"/></g><g clip-path="url(#p)"><path fill="none" stroke="#000" stroke-linecap="round" stroke-linejoin="round" stroke-miterlimit="10" stroke-width=".5" d="M227.28125 479.41406L220.5 481.2461"/></g><g clip-path="url(#q)"><path fill="none" stroke="#000" stroke-linecap="round" stroke-linejoin="round" stroke-miterlimit="10" stroke-width=".5" d="M227.28125 479.41406l1.67969 1.78906"/></g><g clip-path="url(#r)"><path fill="none" stroke="#000" stroke-linecap="round" stroke-linejoin="round" stroke-miterlimit="10" stroke-width=".5" d="M240.67969 479.79688l-6.94531 1.0664"/></g><g clip-path="url(#s)"><path fill="none" stroke="#000" stroke-linecap="round" stroke-linejoin="round" stroke-miterlimit="10" stroke-width=".5" d="M240.67969 479.79688l1.46484 1.96484"/></g><g clip-path="url(#t)"><path fill="none" stroke="#000" stroke-linecap="round" stroke-linejoin="round" stroke-miterlimit="10" stroke-width=".5" d="M253.94922 479.57031l-6.85938 1.51953"/></g><g clip-path="url(#u)"><path fill="none" stroke="#000" stroke-linecap="round" stroke-linejoin="round" stroke-miterlimit="10" stroke-width=".5" d="M253.94922 479.57031l1.59375 1.86328"/></g><g clip-path="url(#v)"><path fill="none" stroke="#000" stroke-linecap="round" stroke-linejoin="round" stroke-miterlimit="10" stroke-width=".5" d="M267.10938 479.05469l-6.54688 2.54687"/></g><g clip-path="url(#w)"><path fill="none" stroke="#000" stroke-linecap="round" stroke-linejoin="round" stroke-miterlimit="10" stroke-width=".5" d="M267.10938 479.05469l1.85937 1.60156"/></g><g clip-path="url(#x)"><path fill="none" stroke="#000" stroke-linecap="round" stroke-linejoin="round" stroke-miterlimit="10" stroke-width=".5" d="M280.20313 478.58984l-6.10547 3.47657"/></g><path fill="none" stroke="#000" stroke-linecap="round" stroke-linejoin="round" stroke-miterlimit="10" stroke-width=".5" d="M279.3164 479.09375l1.03516.65625"/><g clip-path="url(#y)"><path fill="none" stroke="#000" stroke-linecap="round" stroke-linejoin="round" stroke-miterlimit="10" stroke-width=".5" d="M293.25781 478.19531l-5.58203 4.26563"/></g><path fill="none" stroke="#000" stroke-linecap="round" stroke-linejoin="round" stroke-miterlimit="10" stroke-width=".5" d="M292.44531 478.8164l1.11328.51173"/><g clip-path="url(#z)"><path fill="none" stroke="#000" stroke-linecap="round" stroke-linejoin="round" stroke-miterlimit="10" stroke-width=".5" d="M306.48047 478.08203l-5.40235 4.49219"/></g><path fill="none" stroke="#000" stroke-linecap="round" stroke-linejoin="round" stroke-miterlimit="10" stroke-width=".5" d="M305.69531 478.73438l1.13672.46484"/><g clip-path="url(#A)"><path fill="none" stroke="#000" stroke-linecap="round" stroke-linejoin="round" stroke-miterlimit="10" stroke-width=".5" d="M319.65234 477.91797l-5.11328 4.82031"/></g><path fill="none" stroke="#000" stroke-linecap="round" stroke-linejoin="round" stroke-miterlimit="10" stroke-width=".5" d="M318.91016 478.6211l1.16015.39062"/><g clip-path="url(#B)"><path fill="none" stroke="#000" stroke-linecap="round" stroke-linejoin="round" stroke-miterlimit="10" stroke-width=".5" d="M329.83203 476.86328l1.16016 6.92969"/></g><g clip-path="url(#C)"><path fill="none" stroke="#000" stroke-linecap="round" stroke-linejoin="round" stroke-miterlimit="10" stroke-width=".5" d="M342.1211 477.20313l3.21093 6.25"/></g><path fill="none" stroke="#000" stroke-linecap="round" stroke-linejoin="round" stroke-miterlimit="10" stroke-width=".5" d="M342.58984 478.11328l.69922-1.00781"/><g clip-path="url(#D)"><path fill="none" stroke="#000" stroke-linecap="round" stroke-linejoin="round" stroke-miterlimit="10" stroke-width=".5" d="M354.33203 478.08984l5.41797 4.47657"/></g><path fill="none" stroke="#000" stroke-linecap="round" stroke-linejoin="round" stroke-miterlimit="10" stroke-width=".5" d="M355.1211 478.74219l.24609-1.20313"/><g clip-path="url(#E)"><path fill="none" stroke="#000" stroke-linecap="round" stroke-linejoin="round" stroke-miterlimit="10" stroke-width=".5" d="M367.44531 478.35938l5.82031 3.9414"/></g><path fill="none" stroke="#000" stroke-linecap="round" stroke-linejoin="round" stroke-miterlimit="10" stroke-width=".5" d="M368.29297 478.9336l.13281-1.22266"/><g clip-path="url(#F)"><path fill="none" stroke="#000" stroke-linecap="round" stroke-linejoin="round" stroke-miterlimit="10" stroke-width=".5" d="M380.17578 480.6875l6.99219-.71875"/></g><g clip-path="url(#G)"><path fill="none" stroke="#000" stroke-linecap="round" stroke-linejoin="round" stroke-miterlimit="10" stroke-width=".5" d="M381.1914 480.58203l-.68359-1.01562"/></g><g clip-path="url(#H)"><path fill="none" stroke="#000" stroke-linecap="round" stroke-linejoin="round" stroke-miterlimit="10" stroke-width=".5" d="M393.58594 481.21484l6.80078-1.76953"/></g><g clip-path="url(#I)"><path fill="none" stroke="#000" stroke-linecap="round" stroke-linejoin="round" stroke-miterlimit="10" stroke-width=".5" d="M393.58594 481.21484l-1.66016-1.80859"/></g><g clip-path="url(#J)"><path fill="none" stroke="#000" stroke-linecap="round" stroke-linejoin="round" stroke-miterlimit="10" stroke-width=".5" d="M406.85156 480.99219l6.89844-1.32813"/></g><g clip-path="url(#K)"><path fill="none" stroke="#000" stroke-linecap="round" stroke-linejoin="round" stroke-miterlimit="10" stroke-width=".5" d="M406.85156 480.99219l-1.53906-1.91016"/></g><g clip-path="url(#L)"><path fill="none" stroke="#000" stroke-linecap="round" stroke-linejoin="round" stroke-miterlimit="10" stroke-width=".5" d="M420.76953 482.39063l5.6914-4.1211"/></g><g clip-path="url(#M)"><path fill="none" stroke="#000" stroke-linecap="round" stroke-linejoin="round" stroke-miterlimit="10" stroke-width=".5" d="M434.41797 482.78516l5.02734-4.91016"/></g><g clip-path="url(#N)"><path fill="none" stroke="#000" stroke-linecap="round" stroke-linejoin="round" stroke-miterlimit="10" stroke-width=".5" d="M446.86719 479.3711l6.76172 1.91406"/></g><g clip-path="url(#O)"><path fill="none" stroke="#000" stroke-linecap="round" stroke-linejoin="round" stroke-miterlimit="10" stroke-width=".5" d="M463.98438 483.8164l-.84766-6.97656"/></g><g clip-path="url(#P)"><path fill="none" stroke="#000" stroke-linecap="round" stroke-linejoin="round" stroke-miterlimit="10" stroke-width=".5" d="M147.39453 466.11328l-6.78906 1.80078"/></g><path fill="none" stroke="#000" stroke-linecap="round" stroke-linejoin="round" stroke-miterlimit="10" stroke-width=".5" d="M147.39453 466.11328l1.67188 1.79688m11.6289-1.85157l-6.76172 1.91016m6.76172-1.91016l1.69922 1.77344m11.42969-2.28125l-6.38672 2.92578m6.38672-2.92578l1.94922 1.48828m11.33203-1.5586l-6.32031 3.06641m6.3203-3.0664l1.98438 1.44531m11.28907-1.52734l-6.23828 3.23047m6.23828-3.23047l2.01953 1.39453m11.4414-1.07813l-6.52734 2.59766m6.52734-2.59766l1.8711 1.58594m11.55078-1.27344L220.51953 468m6.74219-1.97266l1.71484 1.75782m11.54688-1.9297l-6.63672 2.31641m6.63672-2.3164l1.80078 1.66406m11.48437-1.74219l-6.57812 2.47266m6.57812-2.47266l1.83985 1.6211m11.2461-2.11719l-6.1172 3.46484m6.1172-3.46484l2.0703 1.32031m11.0586-1.60937l-5.7461 4.04297m5.7461-4.04297l2.1875 1.10547m11.14062-1.08594l-5.77343 4.0039m5.77343-4.0039l2.1836 1.125m11.15625-1.08985l-5.82422 3.9336m5.82422-3.9336l2.16797 1.15235m11.01171-1.33985l-5.55078 4.3086m4.74219-3.6836l1.1211.50391m12.13671-1.92578l-3.8164 5.90234m3.26172-5.04297l1.22265.10547m10.85156-1.52343l-.22656 7.01953m.19531-6l1.10157-.53907m12.0625-.48437l.13672 7.02734m-.1172-6.0039l1.07423-.59766m11.68359-.375l1.21094 6.92578m-1.03516-5.91797l.96875-.7539m11.35938-.0039l2.83593 6.42968m-2.42187-5.4961l.75781-.96484m10.1875 2.25781L400.35938 468m-5.76563-1.6875l-.2461-1.19922m12.57423.94531l6.76171 1.91016m-5.77734-1.63281l-.26172-1.19922m15.66406-1.6211l.6172 6.9961m-.52735-5.98047l1.02734-.66797m13.22266-.28906l-1.4375 6.8789m1.4375-6.8789l2.35937-.6836m9.13672.78516l2.20313 6.67578m-2.20313-6.67578l1.69531-1.77344m-1.375 2.7461l.84766-.88672m11.55078.17578l3.39844 6.15234m-2.90625-5.2578l.67187-1.02735"/><g clip-path="url(#Q)"><path fill="none" stroke="#000" stroke-linecap="round" stroke-linejoin="round" stroke-miterlimit="10" stroke-width=".5" d="M147.50781 453.48438l-7.01562.42968"/></g><path fill="none" stroke="#000" stroke-linecap="round" stroke-linejoin="round" stroke-miterlimit="10" stroke-width=".5" d="M147.50781 453.48438l1.28125 2.08984m11.98828-2.46875l-6.92578 1.1875m6.92578-1.1875l1.50391 1.9414m-2.51172-1.76953l.75.96875m13.48438-1.52734l-6.7461 1.96094m6.7461-1.96094l1.71093 1.75781m11.51953-2.01562l-6.57812 2.47656m5.6211-2.11719l.92187.8125m13.2539-1.39844l-6.38671 2.92579m5.45703-2.5l.97656.74609m13.1289-1.44531l-6.10546 3.47656m5.21484-2.97266l1.03906.65625m13.40625-.64843l-6.58593 2.45312m5.6289-2.09766l.91797.81641m13.3164-1.26953l-6.5078 2.64844m5.55859-2.26563l.9414.78516m12.55079-2.32813l-4.96875 4.96875m4.96875-4.96875l2.34765.71485m10.97266-.71094l-4.97656 4.96094m4.2539-4.23828l1.17188.35937m13.01172-.92578l-5.26954 4.64453m4.50391-3.96875l1.14844.4336m12.80078-1.25l-5.00781 4.92968m5.00781-4.92969l2.33984.73438m10.79688-.90234l-4.65235 5.26562m4.65235-5.26562l2.38672.5703m11.05468-.45312l-4.90234 5.03125m4.90234-5.03125l2.35547.6875m10.9297-.71875l-4.84376 5.08985m4.14063-4.34766l1.17968.32813m12.16797-1.57032l-3.5 6.09375m3.5-6.09375l2.45313.07813m10.03125-.42188l-1.83985 6.78125m1.83985-6.78125l2.39062-.54687m10.5586.46875l-1.10547 6.9375m1.10547-6.9375l2.3203-.79688m10.1211.76563l.64063 7m-.54688-5.98047l1.02344-.67188m11.5-.21093l2.03516 6.72656m-1.73829-5.75l.8672-.86328m11.03124 6.03906l4.27344-5.57812m-3.65234 4.76562l-1.21094-.20312m19.03515-3.61329l-5.98437 3.6797m5.11328-3.14454l1.0586.6211m12.42578-1.98047l-4.58204 5.32812m4.58204-5.32812l2.39453.53906m8.64453-1.39063l-.03125 7.02735m.03125-7.02735l2.17187-1.14062m-2.17578 2.16406l1.08594-.57031m13.69922-.125l-2.96485 6.3711m2.96485-6.3711l2.45312-.1289m-2.8828 1.05859l1.22655-.06641"/><g clip-path="url(#R)"><path fill="none" stroke="#000" stroke-linecap="round" stroke-linejoin="round" stroke-miterlimit="10" stroke-width=".5" d="M147.44922 439.71094l-6.89844 1.34375"/></g><path fill="none" stroke="#000" stroke-linecap="round" stroke-linejoin="round" stroke-miterlimit="10" stroke-width=".5" d="M147.44922 439.71094l1.54297 1.90625m-2.54688-1.71094l.77344.95313m13.5664-1.03907l-6.9375 1.125m6.9375-1.125l1.48048 1.95703m11.86328-1.71093l-7 .6328m5.98047-.53905l.67187 1.02734m13.61328-.1289l-6.89844-1.34766m5.89453 1.15234l.35547 1.17188m14.01563-1.34766l-7-.60938m5.98047.51954l.48047 1.1289m13.64843-2.5664l-6.58984 2.4453m5.6289-2.08984l.91798.81641m12.6328-2.34375l-5.14062 4.79297m4.39063-4.09766l1.16015.39844m13.2461-.66797l-5.82031 3.9375m4.97265-3.36328l1.08203.57422m11.14063-2.55469l-1.94531 6.7539m1.9453-6.7539l2.40235-.50781m12.14453 1.14844l-4.40625 5.47265m3.76563-4.67578l1.20312.23047m12.64844-1.10937l-4.19922 5.6328m3.58985-4.8125l1.21093.1836m12.80078-.9375l-4.375 5.5m3.73828-4.69922l1.20704.22266m12.3164-1.3164l-3.51562 6.08593m3.51562-6.08594l2.44922.08594m11.01563.00781l-3.81641 5.89844m3.8164-5.89844l2.44532.21094m-3 .64844l1.22265.10547M333 438.0078l-5.17969 4.75m5.17969-4.75l2.3125.8164m10.67188-1.1328l-4.51563 5.3828m4.51563-5.3828l2.40234.51171m-3.0586.27344l1.19922.2539m12-1.53124l-2.97265 6.36719m2.97265-6.3672l2.44922-.1289m-2.88281 1.05469l1.22656-.0625m11.1914-1.1875l-.3125 7.01953m.3125-7.01953l2.21485-1.05469m-2.25781 2.07422l1.10547-.52734m10.25.02734l3.69531 5.97656m-3.69531-5.97656l1.23828-2.11719m-.69922 2.98828l.61719-1.0625m10.5 3.41407l7.01172-.46875m-7.01172.46875l-1.29297-2.08203m2.3125 2.01562l-.64453-1.04297m15.44531-2.49219l2.0039 6.73438m14.8125-5.83594l-5 4.9375m5-4.9375l2.33985.73047m-3.07031-.01172l2.34375.73047m11.36328-1.75l-4.32422 5.54297m4.32422-5.54297l2.41406.42188m-3.04297.3828l1.20704.21485m10.87109-1.75l-.59375 7m.59375-7l2.2539-.96484m11.8125 1.11328l-2.09375 6.70703m1.78907-5.73437l1.20312-.22657"/><g clip-path="url(#S)"><path fill="none" stroke="#000" stroke-linecap="round" stroke-linejoin="round" stroke-miterlimit="10" stroke-width=".5" d="M147.42969 426.3086l-6.85938 1.51952"/></g><path fill="none" stroke="#000" stroke-linecap="round" stroke-linejoin="round" stroke-miterlimit="10" stroke-width=".5" d="M147.42969 426.3086l1.59375 1.86327m-2.58985-1.64453l.79688.9336m13.42578-1.47266l-6.6836 2.16016m6.6836-2.16016l1.76563 1.70703m-2.73829-1.39453l.88282.85547m13.5-.8164l-6.875 1.45702m6.875-1.45703l1.57812 1.87891m-2.57812-1.66797l.78906.9414m13.5586-.97656l-6.9375 1.10547m6.9375-1.10547l1.48046 1.95704m-2.48828-1.79688l.73828.98047m13.5586-1.29688l-6.88282 1.41797m6.88281-1.41797l1.5625 1.88672m-2.5664-1.67968l.78516.9414m13.54296-1.10156l-6.90234 1.32422m6.90234-1.32422l1.53907 1.91016m-2.54297-1.71875l.76953.95703m13.51953-1.27735l-6.84375 1.58204m6.84375-1.58204l1.60938 1.85157m-2.60547-1.6211l.80468.92578m13.59375-.55078l-7.01953.3711m5.9961-.31641l.6328 1.05078m10.32423-4.42969l-.25781 7.01954m.22265-6l1.10156-.53516m14.8086.76172l-5.375 4.52734m4.59375-3.86719l1.13672.45703m13.10156-.93359l-5.66016 4.16016m5.66016-4.16016l2.21094 1.0625m10.43359-1.7539l-4.32031 5.54296m4.32031-5.54297l2.41797.42579m11.07031-.28125l-4.66406 5.2539m3.98437-4.48828l1.19532.28906m11.68359-1.72265l-2.4336 6.58984m2.4336-6.58984l2.42969-.33203m12.21094 1.20312l-5.08594 4.84766m5.08594-4.84766l2.32812.76953m11.23438-.48047l-5.58204 4.26953m5.58204-4.26953l2.23437 1.02344m-3.04297-.40234l1.11328.51172m12.3125-1.82032l-4.1836 5.64453m4.1836-5.64453l2.42969.3672m9.17188-1.03907l-.75782 6.98828m.64844-5.96875l1.14063-.45703m10.76562-.39063l2.28125 6.64453m-2.28125-6.64453l1.67578-1.79297m14.91797 2.32813l-4.27734 5.57422m4.27734-5.57422l2.41797.40234m-3.03906.40625l2.41797.40625m11.97265-.80078l-5.1836 4.7461m5.1836-4.7461l2.3125.82422m-3.0664-.13281l2.3125.82031m11.58593-1.6836l-4.84375 5.08985m4.84375-5.08984l2.36328.66015m-3.0703.08203l2.36718.65625m10.25-2.21484l-2.03516 6.72656m2.03516-6.72656l2.40625-.47656m-2.70313 1.45312l1.20313-.23828m12.05469-.82812l-1.32813 6.90234m1.32813-6.90234l2.34765-.71875m-2.53906 1.72265l1.17188-.35937m12.60156-.58203l-1.85938 6.77734m1.85938-6.77734l2.39453-.53907m-2.66797 1.52735l2.39453-.53906"/><g clip-path="url(#T)"><path fill="none" stroke="#000" stroke-linecap="round" stroke-linejoin="round" stroke-miterlimit="10" stroke-width=".5" d="M147.30469 412.5586l-6.60938 2.39062"/></g><path fill="none" stroke="#000" stroke-linecap="round" stroke-linejoin="round" stroke-miterlimit="10" stroke-width=".5" d="M147.30469 412.5586l1.82031 1.64452m-2.78125-1.29687l.91016.82422m13.375-1.14453L154 414.91797m6.6289-2.33203l1.8047 1.66406m-2.76954-1.32422l.90235.83203m13.29297-1.39062l-6.45704 2.77343m6.45703-2.77343l1.91407 1.53515m-2.85547-1.1328l.95703.76562m13.2539-1.26563l-6.36718 2.96484m6.36719-2.96484l1.96093 1.48047m-2.88672-1.04688l.98047.73829m13.21094-1.27344l-6.26953 3.17187m6.26953-3.17187l2.00781 1.41016m-2.91797-.94922l1 .70703m13.54688-.20703l-6.91406 1.25m6.91406-1.25l1.51953 1.92968m11.78516-.61718l-6.89063-1.37891m6.89063 1.3789l.70312 2.35157m12.48438-1.8789l-6.63281-2.32032m5.66406 1.98438l.1875 1.21093m13.83594-3.76953l-6.11329 3.46485m5.22266-2.96094l1.03516.66015m13.36718-.75l-6.51172 2.64063m19.35157-3.46875l-5.5586 4.29687m4.75-3.67187l1.1172.5039m12.58983-1.58203l-4.72656 5.20313m4.03906-4.44531l1.1875.30078m11.47657 1.54297l-.01953-.19922-.0586-.1914-.09375-.1797-.46094-.375-.1914-.05859-.19922-.01953-.19922.01953-.1914.0586-.46094.375-.09375.17968-.0586.1914-.01953.19923.01953.19921.0586.19141.09375.17578.46094.3789.1914.0586.19922.01953.19922-.01953.1914-.0586.46094-.3789.09375-.17578.0586-.1914.01953-.19922m13.38672-3.33985L316 417.09375m1.8711-5.70703l1.21093-.21094m14.42578.91797l-6.19531 3.3164m6.19531-3.3164l2.03906 1.36719m11.67579-.03907l-6.9961.66407m6.9961-.66407l1.35156 2.04688m11.625-3.2539l-6.3164 3.07812m5.39843-2.63281l.99219.72265m12.55469-2.125L367.8828 416.25m4.94531-4.99219l2.35157.70703m10.76562-.88672l-4.55078 5.35157m4.55078-5.35157l2.39844.52344m-3.0586.2539l1.19923.26173m12.52734-1.23438l-4.05078 5.74219m4.05078-5.74219l2.4336.30469m-3.02344.53125l2.43359.30469m11.39062-1.19532l-3.88671 5.85157m3.88671-5.85157l2.44141.23829m-3.00781.61328l1.21875.11718m13.08203-.64453l-4.72656 5.19922m4.72656-5.19922l2.3789.60547m-3.0664.15235l1.1875.30078m11.97656-1.6211l-3.05078 6.32813m3.05078-6.32813l2.44922-.09765m-2.89453 1.01562l1.22656-.04687m11.2539-1.21094L450 417.25781m.49219-7.00781l2.24219-.9961m11.95312 1.17188l-2.25 6.65625m2.25-6.65625l2.42188-.39844m-2.75 1.3672l2.42187-.39845"/><g clip-path="url(#U)"><path fill="none" stroke="#000" stroke-linecap="round" stroke-linejoin="round" stroke-miterlimit="10" stroke-width=".5" d="M147.05078 398.69531l-6.10156 3.48828"/></g><path fill="none" stroke="#000" stroke-linecap="round" stroke-linejoin="round" stroke-miterlimit="10" stroke-width=".5" d="M147.05078 398.69531l2.07422 1.3086m-2.96094-.80079l2.07422 1.3086m12.07813-1.90235l-6.00391 3.65625m6.0039-3.65625l2.10938 1.25391m-2.98437-.72265l2.11328 1.2539m11.42187-2.57031l-4.6914 5.23047m4.6914-5.23047l2.38281.58984m-3.0664.17188l2.38281.58594m10.71875-1.9336l-2.89844 6.40235m2.89844-6.40235l2.44531-.15625m-2.86718 1.08594l1.22265-.07813m13.82031.16797l-5.5078 4.36328m5.5078-4.36328l2.2461.98047m11.47266-.33594l-6.32032 3.07422m6.32031-3.07422l1.98438 1.44532m11.53516-.92188l-6.72657 2.02344m6.72657-2.02344l1.72656 1.7461m11.49219-2.02344l-6.53516 2.57812m6.53516-2.57812l1.86718 1.59375m11.65235.23047l-6.94531-1.06641m5.9375.91016l.40234 1.16015m13.90234-2.17578l-6.91015 1.27344m5.90625-1.08594l.76172.96094m13.41406-1.6875l-6.6211 2.35156m5.66016-2.00781l.90234.82812m13.17188 1.64454l-6.21485-3.28125m5.3086 2.80468l.0039 1.22656m14.0586-4.30078l-5.89844 3.82422m5.03906-3.26953l1.07422.59766m13.41797-.53125l-6.53516 2.57812m5.58594-2.20312l.9336.79687m13.52343-.48828l-6.92187 1.21485m5.91406-1.03907l.7539.96875m12.26173-3.3164l-4.3047 5.55468m3.6797-4.74609l1.20703.21094m10.54687-1.7539l.0664 7.02733m-.05468-6.0039l1.07813-.58594m15.59765 1.97656l-6.67578 2.19532m5.70313-1.875l.88671.84765m12.33204-2.75l-4.53907 5.36328m4.53907-5.36328l2.39843.51953m10.14844-1.01562l-3.0039 6.35156m3.0039-6.35156l2.45313-.11328m12.24609 1.28515l-5.77344 4.00782m5.77344-4.00782l2.1836 1.125m10.53124-1.78906l-4.57422 5.33594m4.57422-5.33594l2.39453.53516m-3.05859.24219l1.19531.26953m12.21875-1.44141l-3.4414 6.125m3.4414-6.125l2.45313.0586m-2.95313.83202l1.22657.03125m12.96484-.67578l-4.19531 5.63672m4.19531-5.63672l2.42578.3672m10.19922-.76954l-2.8125 6.4375m2.8125-6.4375l2.44531-.1875m-2.85547 1.125l1.22266-.09375"/><g clip-path="url(#V)"><path fill="none" stroke="#000" stroke-linecap="round" stroke-linejoin="round" stroke-miterlimit="10" stroke-width=".5" d="M146.82031 385.02734l-5.64062 4.19141"/></g><path fill="none" stroke="#000" stroke-linecap="round" stroke-linejoin="round" stroke-miterlimit="10" stroke-width=".5" d="M146.82031 385.02734l2.21875 1.0547M146 385.63671l2.21484 1.05469m12.05078-1.47657l-5.90234 3.81641m5.90234-3.8164l2.14454 1.1953m-3.00391-.64062l2.14453 1.19531M172.96484 384.5l-4.67187 5.2461m4.67187-5.2461l2.38672.57813m-3.0664.18359l2.38672.58203m11.45703-1.47266l-4.3672 5.50391m4.3672-5.5039l2.41406.4414m-3.05078.35938l2.41406.4414m12.26563-.45703l-5.82422 3.9336m5.82422-3.9336l2.16796 1.15234m-3.01562-.57812l2.16797 1.15234m11.78906-2l-5.41016 4.48047m5.41016-4.48047l2.26953.9336m-3.0586-.28125l2.26954.93359m11.99219-1.3789l-5.72657 4.0664m5.72657-4.0664l2.1953 1.09765m11.21485-.95703l-5.91797 3.78906m5.0586-3.23828l1.0664.60156m13.42578-.52344l-6.55468 2.53125m6.55469-2.53125l1.85546 1.60547m10.21094-3.21093l-4.05469 5.73828m3.46485-4.90235l1.21484.15235m13.05469-.6914l-4.78516 5.14452m4.08985-4.39453l1.18359.3164m13.9414 1.71485l-7.01562-.41797m5.9961.35938l.51171 1.11328m10.47266-4.77344l-.3125 7.01953m16.33203-5.54687l-5.72265 4.07422m4.89062-3.48047l1.09766.54687m13.53906-.16015l-6.70313 2.11328m6.70313-2.11328l1.75 1.72265m8.01562-4.17187l.39844 7.01562m-.33984-5.9961L344.6328 384m14.24219.125l-3.66797 5.9961M358.33984 385l1.22657.07031m14.17578 1.1211l-6.77344 1.86328m6.77344-1.86328l1.6875 1.78515m11.10156-2.89453l-5.71875 4.08203m5.71875-4.08203l2.19531 1.09766m10.64453-1.63672l-4.76953 5.16015m4.76953-5.16015l2.3711.6211m9.8789-1.29688l-2.63671 6.51172m2.63671-6.51172l2.44141-.2539m11.23047.42187l-3.35547 6.17578m3.35547-6.17578l2.45703.02343m10.4375-.21484l-2.51172 6.5625m2.51172-6.5625l2.4336-.30469m12.07812 1.0664l-4.90235 5.03517m4.1875-4.30079l1.1797.33985m11.76171-1.79297l-2.73047 6.47265m2.73047-6.47265l2.44531-.21875"/><g clip-path="url(#W)"><path fill="none" stroke="#000" stroke-linecap="round" stroke-linejoin="round" stroke-miterlimit="10" stroke-width=".5" d="M146.61719 371.46484l-5.23438 4.6875"/></g><path fill="none" stroke="#000" stroke-linecap="round" stroke-linejoin="round" stroke-miterlimit="10" stroke-width=".5" d="M146.61719 371.46484l2.30469.84375m-3.06641-.16406l2.30469.84766m12.26562-.82031l-6.21875 3.27343m6.21875-3.27344l2.02734 1.38282m-2.93359-.90625l2.02734 1.38281m12.01954-2.15625l-5.8711 3.86328m5.8711-3.86328l2.15234 1.17969m-3.00781-.61719l1.07812.58984m12.99219-1.29296l-5.67188 4.14843m5.67188-4.14844l2.20703 1.07032m-3.03125-.46875l1.10156.53515m13.3047-.71093l-6.20704 3.29687m6.20703-3.29687l2.03516 1.37109m-2.9375-.89063l1.01562.6836m12.9961-1.5039l-5.79297 3.97656m5.79297-3.97657l2.17578 1.13281m11.32812-.82421l-6.17187 3.35546m6.17187-3.35546l2.04688 1.35546m-2.94531-.86718l1.02343.67969m13.53906-.22266l-6.87109 1.46875m6.8711-1.46875l1.57812 1.8789m-2.57813-1.66406l.78907.9375m13.42969-1.51562l-6.67579 2.19531m6.67578-2.19531l1.76954 1.69922m11.1289-2.5547l-5.84375 3.90626m5.84375-3.90625l2.16016 1.16015m11.375-.77734l-6.28516 3.14063m6.28516-3.14063l2 1.42188m11.66797.5l-6.99219-.70313m5.97656.60156l.46485 1.13672m13.8828-1.23437l-7.02343-.30469m7.02344.30469l1.05469 2.21484M320.4453 372.75l-6.69922 2.11328m5.72657-1.80469l.875.85938m12.84765-2.2539l-5.5664 4.28906m4.7539-3.66407l1.11719.5039m11.21094-2.35937l-1.96875 6.7461m1.96875-6.7461l2.40234-.49609m12.96875 2.10938L354 375.5703m6.08203-3.52344l2.08203 1.29688m-2.96875-.78516l1.04297.64844m13.53906-.19531l-6.84375 1.59375m6.84375-1.59375l1.61328 1.84765m11.03125-3.23437l-5.5039 4.36719m19.29297-3.58203l-6.44922 2.79296m5.51172-2.38671l.95703.76562m13.3086-1.13672l-6.47657 2.72266m6.47656-2.72266L415.44141 374m11.6289-.82813l-6.91015 1.26954m5.90625-1.08204l.76171.96094m11.60547-3.6875l-3.0039 6.35156m3.0039-6.35156l2.44922-.11719m11.60547.58594l-4.48437 5.41016m3.83203-4.6211l1.20312.2461m10.94531-1.8164l-.84375 6.97656m.71875-5.96094l1.14454-.4414"/><g clip-path="url(#X)"><path fill="none" stroke="#000" stroke-linecap="round" stroke-linejoin="round" stroke-miterlimit="10" stroke-width=".5" d="M145.23047 357.20313l-2.46094 6.58203"/></g><path fill="none" stroke="#000" stroke-linecap="round" stroke-linejoin="round" stroke-miterlimit="10" stroke-width=".5" d="M145.23047 357.20313l2.4336-.32032m-2.78907 1.27735L146.08984 358m13.38672-.27734l-4.32422 5.53906m4.32422-5.53906l2.41797.42578M174 359.5l-6.74219 1.98438M174 359.5l1.71875 1.7539m11.5-2.03906l-6.54688 2.5547m6.54688-2.5547l1.85938 1.60157m11.4375-1.64063l-6.51172 2.63672m6.51172-2.63672l1.8828 1.57422m11.39845-1.66016l-6.44141 2.8086m5.5039-2.40235l.96094.76563m13.57031-.08985l-7 .64454m7-.64454l1.34375 2.05079m11.9297-2.34766l-6.91798 1.23438m6.91797-1.23438l1.51563 1.92969m11.8125-1.85156l-6.9414 1.08203m6.9414-1.08204l1.47265 1.96094m11.79688-2.20703l-6.85156 1.57031m6.85156-1.5703l1.60547 1.85546m11.78515-1.3789l-7 .61718m7-.61719l1.33594 2.0586m11.77734-2.95313l-6.60156 2.40625m6.60156-2.40625l1.82422 1.64453m11.70313-.51562l-7.02344.14844m6-.125l.60156 1.0703m13.58204.01173l-6.71485-2.0625m5.73828 1.76172l.23438 1.20703m14.1836-1.47656l-6.96876-.91797m6.96875.91796l.85938 2.29688m12.48437-2.67969l-7.02344-.15625m7.02344.15625l1.10156 2.19531m12.1211-3.07421l-6.83985 1.60546m5.84375-1.37109l.8086.92188m13.5586-.86329l-6.95313 1.01954m5.9414-.8711l.72656.98828m13.41797-1.84765l-6.58984 2.4414m5.63281-2.08593l.91406.8164m11.32813-3.23047l-2.52734 6.5547m2.16015-5.60157l1.21875-.14844m8.1289.76172l6.14063 3.42188m-5.24609-2.92188l.02344-1.22656m18.875 1.58594l-6.8164 1.70312m15.375-4.09375l2.69921 6.48828m-2.30469-5.54687l.77735-.94532m14.11718-.21093l-1.24609 6.91406m1.0625-5.90625l1.16797-.375m11.41015-.67578l.58985 7.0039m-.5039-5.98437l1.03124-.66406"/><g clip-path="url(#Y)"><path fill="none" stroke="#000" stroke-linecap="round" stroke-linejoin="round" stroke-miterlimit="10" stroke-width=".5" d="M142.875 343.84766l2.25 6.66015"/></g><g clip-path="url(#Z)"><path fill="none" stroke="#000" stroke-linecap="round" stroke-linejoin="round" stroke-miterlimit="10" stroke-width=".5" d="M142.875 343.84766l1.6836-1.78125"/></g><g clip-path="url(#aa)"><path fill="none" stroke="#000" stroke-linecap="round" stroke-linejoin="round" stroke-miterlimit="10" stroke-width=".5" d="M143.20313 344.8164l.83984-.89062"/></g><path fill="none" stroke="#000" stroke-linecap="round" stroke-linejoin="round" stroke-miterlimit="10" stroke-width=".5" d="M157.01563 343.67578l.59765 7.0039m-.59766-7.0039l2.0625-1.32812m10.35938 1.52734l2.38672 6.60938m-2.03906-5.64844l.8203-.91016m16.84767 3.03516l-7.01563.4336m20.32031.12108l-6.9961-.67578m5.97657.57813l.46875 1.13281m13.88281-1.39062l-7.02734.03515m6.0039-.02734l.58204 1.07812m13.26562.71875l-6.05078-3.57421m5.17188 3.05468l-.0547 1.22656m14.71485-2.08984l-6.98047-.8086m5.96485.69141l.44922 1.14063m13.89062-1.73438l-7 .61329m5.98438-.52344l.66797 1.03125m13.67578-.96485l-7.02344.30079m6-.25782l.6211 1.0586m13.69921-1.32032l-6.98828.73829m6.98828-.73829l1.375 2.03125m11.95703-1.78125l-7.02343.2422m7.02343-.2422l1.22657 2.125m11.83593-3.3203l-6.51562 2.6289m6.51562-2.6289l1.8789 1.57812m11.19532-2.0625l-6.03515 3.59765m5.15625-3.07422l1.05078.63672m13.51562 1.5625l-6.78125-1.84765m20.17578.36718l-6.9375 1.11329m5.92969-.94922l.73828.97656m13.60938-.23047l-6.98828-.70703m6.98828.70703l.92968 2.27344m12.0586-4.14453l-6.33594 3.03515m6.33594-3.03515l1.97656 1.45312m10.30469-2.72656l-4.26563 5.58203m3.64453-4.76953l1.21094.19922m13.9375.71094l-6.6914 2.13671m6.6914-2.13671l1.75781 1.71484m10.27344-3.49219l-4.125 5.6914m3.52344-4.86327l1.21875.17187m11.17969-1.625l-1.08594 6.9414M424 344.71485l1.16016-.39843m11.18359-.60157l1.17578 6.92579m-1.0039-5.91797l.96875-.75m9.97656 1.0664l5.57031 4.28125m-4.76172-3.66015l.20703-1.21094m11.82032 1.42969l6.52734 2.60156"/><g clip-path="url(#ab)"><path fill="none" stroke="#000" stroke-linecap="round" stroke-linejoin="round" stroke-miterlimit="10" stroke-width=".5" d="M142.15234 330.875l3.69532 5.97656"/></g><path fill="none" stroke="#000" stroke-linecap="round" stroke-linejoin="round" stroke-miterlimit="10" stroke-width=".5" d="M155.33594 330.96094l3.96094 5.80469m-3.38672-4.96094l.5703-1.08594m11.01563 1.5586l6.26953 3.17187m-5.35937-2.71094l-.02344-1.22656m12.25781 1.15625l6.60938 2.39062m-5.64844-2.04296l-.17187-1.21485m14.41015 5.27735l2.83985-6.4297m-2.42578 5.4922l-1.22266.08984m13.8164.6914l3.45313-6.11718m-2.94922 5.22656L208.125 336m16.41797 1.3164l-1.30469-6.90624m15.64453 6.53906l-3.35547-6.17578m2.8672 5.27734l-.67579 1.02344m14.04297.07812l-2.48047-6.57812m2.11719 5.6211l-.8086.91796m14.98828-.19922l-3.48437-6.10156m2.97656 5.21484l-.65234 1.03516m16.13672-2.32422l-6.8086-1.75m5.81641 1.4961l.28906 1.1914m13.92578-.63672l-6.62109-2.35156m5.65625 2.00781l.17969 1.21485m14.28515-1.69141l-6.99218-.71094m5.97265.60938l.46485 1.13281m13.83203-1.9961l-6.91797 1.21876m6.91797-1.21875l1.51172 1.93359m11.65234-2.51172l-6.61328 2.375m6.61328-2.375l1.8164 1.64844m11.22266-2.23828l-6.0625 3.55469m6.0625-3.5547l2.08985 1.28516m10.53125-2.1289l-4.67579 5.24219m3.9961-4.48047l1.1914.28906m13.97657 1.46484l-7.02344.21094m6.0039-.17969l.60548 1.0664m13.61328-.08983l-6.78907-1.8047m6.78907 1.8047l.55859 2.39062m10.0625.14844l-1.40234-6.88281m17.11718 1.78906l-6.19921 3.30469m17.4375-1.65235l-.01954-.19922-.05859-.1914-.09766-.17579-.45703-.3789-.1914-.0586-.19922-.01953-.19922.01954-.1914.05859-.46094.3789-.09375.17579-.0586.1914-.01953.19922.01953.19922.0586.1914.09375.17579.46093.3789.1914.0586.19923.01953.19922-.01953.1914-.0586.45703-.3789.09766-.17578.0586-.19141.01952-.19922m9.19141 1.65235l6.19922-3.3047m7.10938.00782l6.21093 3.28906m-5.30469-2.8125l-.0039-1.22656m12.27734 1.03906l6.48438 2.71094m-5.54297-2.3164l-.11328-1.22266"/><g clip-path="url(#ac)"><path fill="none" stroke="#000" stroke-linecap="round" stroke-linejoin="round" stroke-miterlimit="10" stroke-width=".5" d="M143.52344 317.0664l.95312 6.96094"/></g><g clip-path="url(#ad)"><path fill="none" stroke="#000" stroke-linecap="round" stroke-linejoin="round" stroke-miterlimit="10" stroke-width=".5" d="M143.52344 317.0664l1.98828-1.43359"/></g><path fill="none" stroke="#000" stroke-linecap="round" stroke-linejoin="round" stroke-miterlimit="10" stroke-width=".5" d="M155.83984 317.35938l2.95313 6.375m-2.52344-5.44532l.73828-.98047m11.17188.72266l4.90234 5.03516m-4.1914-4.3047l.375-1.16796m11.72265 4.85547l5.91406-3.80078m6.92578 1.14062l6.86329 1.51953m-5.86328-1.30078l-.32813-1.17969m12.76172.5547l6.6289 2.33202m-5.66406-1.99218l-.1836-1.21485m12.89845.1289l5.89843 3.82032m7.96485-4.47265l4.80078 5.1289m7.49219-3.35937l6.84375 1.58984m6.78906.85156l6.21094-3.29297m13.5625 2.69141l-6.70704-2.08984m17.14063 4.52734l-.94531-6.96484m.8086 5.94921l-.9961.71875m17.20703-1.80468l-6.46094-2.76172m5.51953 2.35937l.10547 1.22266m14.1914-.92188l-6.54296-2.5625m5.58984 2.19141l.14453 1.21875m14.1797-3.25781l-6.65626 2.25781m5.6875-1.92969l.89453.84375m12.5-2.5703l-4.875 5.05858m4.875-5.05859l2.35938.67188m10.90234-.72266l-4.76953 5.16016m4.76953-5.16016l2.3711.625m12.02343 1.35938l-6.92578 1.1875m5.91797-1.01172l.75.96875m11.04688-3.9336l-1.875 6.76953m1.60156-5.78515l1.19922-.26563m10.92578-.8086l1.05078 6.94923m-.89844-5.9375l.98438-.73438m11.46875-.09375l2.46875 6.57813m-2.10938-5.6211l.8125-.91796m11.32031.40234l4.1172 5.69531m-4.1172-5.69531l1.07813-2.20313m11.44531 2.9961l5.69922 4.11328m-5.69922-4.11328l.33594-2.4336m12.69922 2.89454l6.25781 3.1914m-6.25781-3.1914l-.04297-2.45313m13.41797 2.33594l6.13672 3.42578m-6.13672-3.42578l.05078-2.45313"/><path fill="#00f" fill-rule="evenodd" d="M388.23828 472.08594h8.61719V461.9414h-8.61719v10.14453"/><path fill="azure" fill-rule="evenodd" d="M390.07031 463.77344h.83594v2.82422h3.28516v-2.82422h.83203v6.48047h-.83203v-2.91797h-3.28516v2.91797h-.83594v-6.48047"/><path fill="#00f" fill-rule="evenodd" d="M383.80078 436.57813h8.61719v-10.14454h-8.61719v10.14454"/><path fill="azure" fill-rule="evenodd" d="M385.63281 428.26563h.83203v2.82421h3.28907v-2.82421h.83203v6.48046h-.83203v-2.91406h-3.28907v2.91406h-.83203v-6.48046"/><path fill="#ff3030" fill-rule="evenodd" d="M193.64453 418.82813h7.69531v-10.14844h-7.6953v10.14844"/><path fill="azure" fill-rule="evenodd" d="M195.47656 410.51172h.83594v5.74219h3.1914v.73828h-4.02734v-6.48047"/><path fill="#00f" fill-rule="evenodd" d="M224.01953 414.38672h8.61719v-10.14453h-8.61719v10.14453"/><path fill="azure" fill-rule="evenodd" d="M225.85156 406.07422h.83594v2.82422h3.28516v-2.82422h.83203v6.48047h-.83203v-2.91406h-3.28516v2.91406h-.83594v-6.48047"/><path fill="#ff3030" fill-rule="evenodd" d="M380.05469 414.38672H387.75v-10.14453h-7.69531v10.14453"/><path fill="azure" fill-rule="evenodd" d="M381.89063 406.07422h.83203v5.74219h3.1953v.73828h-4.02733v-6.48047"/><path fill="#ff3030" fill-rule="evenodd" d="M291.28906 409.94922h7.6914v-10.14453h-7.6914v10.14453"/><path fill="azure" fill-rule="evenodd" d="M293.1211 401.63672h.83593v5.73828h3.1914v.74219h-4.02734v-6.48047"/><path fill="#ff3030" fill-rule="evenodd" d="M180.33203 387.75781h7.6914v-10.14453h-7.6914v10.14453"/><path fill="azure" fill-rule="evenodd" d="M182.16406 379.44531h.83203v5.73828h3.19532v.7422h-4.02735v-6.48048"/><path fill="#ffffe0" fill-rule="evenodd" d="M332.86719 370.03516h22.17969v-10.19141h-22.1797v10.1914"/><path fill-rule="evenodd" d="M336.36719 361.67578h.50781v6.29297h-.78516v-4.48828h-1.39062v-.55469l.5625-.0664.25-.0547.23047-.08984.20312-.14062.17578-.21094.14063-.29297.10547-.39453m4.8125 0l.23047.01953.21875.05469.20703.08984.19531.1211.1875.14844.16797.17578.30469.41796.24218.4961.1797.54687.11327.57813.03516.58984-.03516.59375-.11328.58594-.17969.55469-.24218.5-.3047.42969-.16796.17968-.1875.15235-.19531.12109-.20703.09375-.21875.0586-.23047.01952-.23047-.01953-.21875-.05859-.20703-.09375-.19531-.1211-.1836-.15234-.17187-.17969-.30079-.42968-.24609-.5-.17969-.55469-.10937-.58594-.03906-.59375h.83203l.03125.5625.08203.50781.125.44141.16015.375.19141.30078.21094.22266.22265.13672.22657.04687.22656-.04687.22266-.13672.21093-.22266.19141-.30078.16016-.375.1289-.4414.08203-.50782.02735-.5625-.02735-.5586-.08203-.5039-.1289-.4336-.16016-.36718-.1914-.28906-.21094-.21485-.22266-.1328-.22656-.04298-.22656.04297-.22266.13281-.21094.21485-.1914.28906-.16016.36719-.125.4336-.08203.5039-.03125.5586h-.83203l.03906-.58985.10937-.57813.1797-.54687.24608-.4961.30079-.41796.17187-.17579.1836-.14843.1953-.1211.20704-.08984.21875-.05469.23047-.01953m5.09375 0h.50781v6.29297h-.78906v-4.48828h-1.38672v-.55469l.5586-.0664.2539-.0547.23047-.08984.20312-.14062.17188-.21094.14062-.29297.10938-.39453m2.82031 2.17578h.78906l.01953-.3164.0586-.28516.09765-.2539.14063-.21485.1836-.17578.22265-.1289.26562-.07813.3086-.02735.23437.01954.22656.0625.20313.10156.17969.14062.14844.17188.11328.20703.0703.23437.02735.26563-.02344.26562-.0664.22657-.10938.1914-.15625.17188-.19921.16015-.2461.16797-.63672.39063-.53515.3125-.4375.3164-.34766.32422-.26172.33594-.1914.35156-.125.36719-.07032.39453-.01953.41797h4.21094v-.73828h-3.33203l.08203-.28516.11328-.23828.14844-.19922.1875-.17969.23047-.17187.28125-.17578.71484-.41797.41797-.20313.34375-.23046.28125-.25391.21875-.26563.16406-.27734.10938-.28515.0664-.28516.01953-.28125-.04296-.38281-.1211-.34766-.1875-.3086-.25-.26171-.30078-.21485-.34766-.15625-.3789-.09765-.40625-.03516-.4375.03125-.39844.10156-.35547.16407-.30469.23437-.24609.30469-.1875.375-.11328.44531-.04297.51953"/><path fill="#ffffe0" fill-rule="evenodd" d="M205.2461 370.23438h22.17968v-10.19141H205.2461v10.1914"/><path fill-rule="evenodd" d="M208.7461 361.875h.5078v6.29688h-.78515v-4.48829h-1.39063v-.55859l.5625-.0625.25-.05469.23047-.08984.20313-.14063.17578-.21093.14063-.29297.10546-.39844m4.8125 0l.23047.01953.21875.0586.20703.08593.19922.1211.1836.15234.17187.17578.30078.41797.24219.49219.17969.54687.11328.58203.03906.58985-.03906.59375-.11328.58203-.17969.55469-.24219.5039-.30078.42578-.17187.1797-.1836.15233-.19922.125-.20703.09375-.21875.0547-.23047.01952-.22656-.01953-.21875-.05469-.21094-.09375-.1953-.125-.1836-.15234-.17188-.17969-.30078-.42578-.2461-.5039-.17968-.5547-.10938-.58202-.03906-.59375h.83203l.03125.5625.08203.50781.125.4414.16407.375.1875.30079.21094.21875.22265.13672.22656.04687.22657-.04687.22265-.13672.21094-.21875.1914-.30078.16407-.375.125-.44141.08203-.50781.02734-.5625-.02734-.5625-.08203-.5-.125-.4336-.16406-.36718-.19141-.29297-.21094-.21485-.22265-.1289-.22657-.04688-.22656.04688-.22266.1289-.21093.21485-.1875.29297-.16406.36718-.125.4336-.08204.5-.03125.5625h-.83203l.03906-.58985.10938-.58203.17969-.54687.2461-.49219.30077-.41797.17188-.17578.1836-.15234.1953-.1211.21094-.08594.21875-.05859.22656-.01953m5.09375 0h.50782v6.29688h-.78516v-4.48829h-1.39063v-.55859l.5586-.0625.2539-.05469.23047-.08984.20313-.14063.17187-.21093.14453-.29297.10547-.39844m2.82422 2.17578h.78516l.01953-.3164.0586-.28516.10156-.2539.13672-.21485.18359-.17188.22266-.1289.26562-.08203.3086-.02735.23827.02344.22266.0625.20313.10156.17968.13672.14844.17188.11328.20703.07031.23828.02735.26172-.02344.26953-.0664.22656-.10938.1914-.15625.16798-.19922.16406-.2461.16797-.6328.38672-.53907.3125-.4375.3164-.34765.32422-.26172.33594-.1914.35156-.125.3711-.07032.39453-.01953.41796h4.21094v-.74218h-3.33204l.08203-.28125.11329-.23828.14843-.20313.1875-.17969.23047-.17187.28125-.17578.71485-.41406.41797-.20704.34375-.23046.28125-.25.21875-.26954.16406-.27734.11328-.28125.0625-.28516.01953-.28125-.04297-.38671-.11719-.34766-.1914-.30469-.25-.26562-.30078-.21094-.34766-.16016-.3789-.09765-.40626-.03516-.4375.03516-.39843.09765-.35157.16797-.30468.23438-.25.30078-.1836.375-.11719.44922-.03906.51562"/><path fill="#ffffe0" fill-rule="evenodd" d="M190.82813 445.6875h22.18359v-10.1914h-22.1836v10.1914"/><path fill-rule="evenodd" d="M194.32813 437.32813h.51171v6.29687h-.78906v-4.49219h-1.38672v-.55469l.5586-.0664.2539-.05078.22656-.08985.20313-.14062.17578-.21094.14063-.29687.10547-.39454m4.8164 0l.22656.01954.21875.05468.21094.08985.19531.1211.1836.14843.17187.17578.30078.42188.2422.49218.17968.54688.11328.57812.03906.59375-.03906.58985-.11328.58593-.17969.5547-.24219.5-.30078.42968-.17187.17969-.1836.15234-.1953.125-.21095.08984-.21875.0586-.22656.01953-.23047-.01953-.21875-.0586-.20703-.08984-.19922-.125-.1836-.15234-.17187-.1797-.30078-.42968-.24219-.5-.17968-.55469-.11328-.58593-.03907-.58985h.83594l.02734.5625.08204.5039.125.44532.16406.3711.1914.30078.21094.22265.22266.13672.22656.04688.22266-.04688.22265-.13672.21094-.22265.1914-.30079.16407-.37109.125-.44531.08203-.5039.02734-.5625-.02734-.5625-.08203-.5-.125-.4375-.16406-.36329-.1914-.29297-.21095-.21484-.22265-.13281-.22266-.04297-.22656.04297-.22266.1328-.21094.21485-.1914.29297-.16406.36328-.125.4375-.08203.5-.02735.5625h-.83594l.03907-.59375.11328-.57812.17969-.54688.24218-.49219.30078-.42187.17188-.17578.1836-.14844.19921-.1211.20703-.08984.21875-.05468.23047-.01954m5.08984 0h.50782v6.29688h-.78516v-4.49219h-1.39062v-.55469l.5625-.0664.25-.05078.23047-.08985.20312-.14062.17578-.21094.14063-.29687.10547-.39454m2.82421 2.17579h.78516l.01953-.31641.0586-.28516.10156-.2539.14062-.21485.17969-.17578.22266-.1289.26562-.07813.3086-.02734.23828.01953.22265.0625.20313.10156.17969.14063.14843.17187.11328.20703.07422.23438.02344.26562-.02344.26953-.0625.22266-.11328.1914-.15234.17188-.20313.16406-.2461.16407-.6328.39062-.53907.3125-.4375.3164-.34765.32423-.26172.33593-.1914.35157-.125.37109-.06641.39063-.02344.42187h4.21094v-.74219h-3.33203l.08593-.28515.11328-.23438.14844-.20312.1875-.1797.23047-.17187.27734-.17578.71875-.41797.41407-.20312.34375-.23047.28125-.2539.21875-.26563.16406-.27735.11328-.28515.0625-.28516.01953-.28125-.03906-.38281-.1211-.34766-.1914-.30859-.25-.26172-.30078-.21094-.34766-.16015-.3789-.09766-.40625-.03515-.4336.03515-.39844.09766-.35547.16406-.30468.23438-.25.30468-.1836.375-.11718.44531-.03907.51954"/></g></defs><use xlink:href="#ae"/></svg>