<svg xmlns="http://www.w3.org/2000/svg" role="img" xmlns:xlink="http://www.w3.org/1999/xlink" viewBox="142.45 309.95 326.84 171.84"><defs><clipPath id="a"><path d="M144 311.67188h1v168.65625h-1zm0 0"/></clipPath><clipPath id="b"><path d="M144 311.67188h324v168.65625H144zm0 0"/></clipPath><clipPath id="c"><path d="M467 311.67188h1V476h-1zm0 0"/></clipPath><clipPath id="d"><path d="M144 480h4v.32813h-4zm0 0"/></clipPath><clipPath id="e"><path d="M146 480h2v.32813h-2zm0 0"/></clipPath><clipPath id="f"><path d="M153 479h9v1.32813h-9zm0 0"/></clipPath><clipPath id="g"><path d="M159 480h2v.32813h-2zm0 0"/></clipPath><clipPath id="h"><path d="M166 479h9v1.32813h-9zm0 0"/></clipPath><clipPath id="i"><path d="M172 480h2v.32813h-2zm0 0"/></clipPath><clipPath id="j"><path d="M180 479h8v1.32813h-8zm0 0"/></clipPath><clipPath id="k"><path d="M186 480h1v.32813h-1zm0 0"/></clipPath><clipPath id="l"><path d="M193 479h8v1.32813h-8zm0 0"/></clipPath><clipPath id="m"><path d="M199 480h2v.32813h-2zm0 0"/></clipPath><clipPath id="n"><path d="M207 478h8v2.32813h-8zm0 0"/></clipPath><clipPath id="o"><path d="M212 480h2v.32813h-2zm0 0"/></clipPath><clipPath id="p"><path d="M220 479h8v1.32813h-8zm0 0"/></clipPath><clipPath id="q"><path d="M226 480h1v.32813h-1zm0 0"/></clipPath><clipPath id="r"><path d="M233 479h8v1.32813h-8zm0 0"/></clipPath><clipPath id="s"><path d="M239 480h2v.32813h-2zm0 0"/></clipPath><clipPath id="t"><path d="M246 479h9v1.32813h-9zm0 0"/></clipPath><clipPath id="u"><path d="M252 479h2v1.32813h-2zm0 0"/></clipPath><clipPath id="v"><path d="M260 478h8v2.32813h-8zm0 0"/></clipPath><clipPath id="w"><path d="M265 479h3v1.32813h-3zm0 0"/></clipPath><clipPath id="x"><path d="M273 478h8v2.32813h-8zm0 0"/></clipPath><clipPath id="y"><path d="M286 479h9v1.32813h-9zm0 0"/></clipPath><clipPath id="z"><path d="M292 479h2v1.32813h-2zm0 0"/></clipPath><clipPath id="A"><path d="M300 478h8v2.32813h-8zm0 0"/></clipPath><clipPath id="B"><path d="M305 479h3v1.32813h-3zm0 0"/></clipPath><clipPath id="C"><path d="M313 480h8v.32813h-8zm0 0"/></clipPath><clipPath id="D"><path d="M326 479h9v1.32813h-9zm0 0"/></clipPath><clipPath id="E"><path d="M343 476h2v4.32813h-2zm0 0"/></clipPath><clipPath id="F"><path d="M353 478h8v2.32813h-8zm0 0"/></clipPath><clipPath id="G"><path d="M353 480h3v.32813h-3zm0 0"/></clipPath><clipPath id="H"><path d="M366 479h9v1.32813h-9zm0 0"/></clipPath><clipPath id="I"><path d="M367 478h2v2.32813h-2zm0 0"/></clipPath><clipPath id="J"><path d="M380 479h8v1.32813h-8zm0 0"/></clipPath><clipPath id="K"><path d="M380 478h2v2.32813h-2zm0 0"/></clipPath><clipPath id="L"><path d="M393 478h8v2.32813h-8zm0 0"/></clipPath><clipPath id="M"><path d="M406 479h8v1.32813h-8zm0 0"/></clipPath><clipPath id="N"><path d="M407 478h2v2.32813h-2zm0 0"/></clipPath><clipPath id="O"><path d="M419 479h9v1.32813h-9zm0 0"/></clipPath><clipPath id="P"><path d="M418 478h3v2.32813h-3zm0 0"/></clipPath><clipPath id="Q"><path d="M434 477h6v3.32813h-6zm0 0"/></clipPath><clipPath id="R"><path d="M447 478h7v2.32813h-7zm0 0"/></clipPath><clipPath id="S"><path d="M461 477h5v3.32813h-5zm0 0"/></clipPath><clipPath id="T"><path d="M144 466h4v2h-4zm0 0"/></clipPath><clipPath id="U"><path d="M144 452h4v3h-4zm0 0"/></clipPath><clipPath id="V"><path d="M144 439h4v3h-4zm0 0"/></clipPath><clipPath id="W"><path d="M465 437h3v2h-3zm0 0"/></clipPath><clipPath id="X"><path d="M144 424h3v6h-3zm0 0"/></clipPath><clipPath id="Y"><path d="M144 411h4v6h-4zm0 0"/></clipPath><clipPath id="Z"><path d="M144 398h4v5h-4zm0 0"/></clipPath><clipPath id="aa"><path d="M465 397h3v2h-3zm0 0"/></clipPath><clipPath id="ab"><path d="M144 384h3v7h-3zm0 0"/></clipPath><clipPath id="ac"><path d="M144 370h1v8h-1zm0 0"/></clipPath><clipPath id="ad"><path d="M144 368h3v3h-3zm0 0"/></clipPath><clipPath id="ae"><path d="M144 357h3v7h-3zm0 0"/></clipPath><clipPath id="af"><path d="M144 345h4v4h-4zm0 0"/></clipPath><clipPath id="ag"><path d="M144 331h3v6h-3zm0 0"/></clipPath><clipPath id="ah"><path d="M144 316h2v9h-2zm0 0"/></clipPath><clipPath id="ai"><path d="M144 315h2v3h-2zm0 0"/></clipPath><clipPath id="aj"><path d="M466 318h2v2h-2zm0 0"/></clipPath><g id="ak" clip-path="url(#clip1)"><path fill="#fff" fill-opacity="0" fill-rule="evenodd" d="M0 0h1000v1000H0zm0 0"/><path fill="#d3d3d3" fill-opacity="0" fill-rule="evenodd" d="M162.15234 355.86719l-.23437.29297.0586.23437.11718.17188.17578.23437.29297.34766.11328.0586.11719-.17188.0586-.23438.17577-.17578.46485-.17578h.69922l.23437.29297.28906.8164.0586.17579.17578.23046.35156.23438.69922.69922.17188.17578.23437.34765.23438.41016.28906.58203.41015.46485.23047.23437.23438.17578.11719.23047.17578.29297.17187 1.16406v.23438l.0586.28906.05859.11719.11719.11719.34765.41015.11719.17188.17578.17578.17578.23437.11719.17188.17188.35156.05859.23438.23437.40625.23438-.0586-.17578.17578-.0586.92969h-.58203l-.23437-.11328-.34766.11328-.11719.11719-.05859.29297-.0586.17578-.11718.17187-.46484.29297-.0586.23438-.0586.11328v.64453l.0586.17187v.41016l.0586.0586v.40624l.05859.40625.11719.17579.05859.05859.23047.64062-.0586.29297v.69922l-.05859.58203v.23438l-.0586.23047-.05468.35156v1.92187l.05469.1172h.42578l-.36719.11718-.02344.35156.89063 1.16797 1.74219.53906 1.33984.35938v.53906l.08984.8086.53516.71484 1.51953.26953.89063-.08594.08984 1.16406.53516.1797 1.16015-.1797 2.05469-.98437 1.16016-.36328 1.8789-.17578 1.69531-.1797-.17968.71876-1.51563.08594-1.25.08984-.80469.26953-1.07421.8086.26953.71875.53515.89843-.17968.625-.26563.8086.26563 1.07812.625.89844.80468.17969 1.25-.1797-.26562.72267.09766.5039.05468.29297v.17188l.0586.29296v.40625l.17578.1172.35156.11718h.40625l.29297-.17578.11328-.11719.0586-.11719.11718-.23047.0586-.17578.35156-.46484.23047-.17578.17578-.0586.17578.0586.0586.17578.11718.98828.05469.46875.0586.17188.11718.23437.17578.0586.8164.05859h.28907l.11719.23437.05859.40625.0586.35156v1.10547l.11718.29297.11719.34766.28906.69922.17578.35156.58203.7539.35157.17579.17187.0586.46875.23437.64063.46484.34765.23438.29297.17578.29297.05468.23047.0625.8164.34766.29297.17578.11328.17188.35157.35156.11719.17578.52343.64063v.28906l.0586.35156v.34766l.05859.35156.0586.28906.11718.0586.17188.05859h.17578l.58203.23437.17578.1172.17578.28905.17578.23438.11328.23437.29297.23047.11719.11719v.41016l.0586.05468.28906.23438.23437.11719.0586.11718.11718.17188.0586.11719.23047.23437.05859.17578.23437.0586.1172.05859-.1172.11328-.05859.11719v.11719l-.11719.29296-.11719.28907v.58203l.17579.11719.11718.05859.0586.11719.11719.11719.11328.05859.17578.34765.0586.35157.05858.40625v.17578l-.05859.17578-.11719.69922v.17187l.1172.17579.29296.29296h.40625l.17578.1172.11719.17187.11719.29296v.23438h-.52735l-.23047-.23438h-.23437l-.17578.0586-.0586.69922.0586.34765.11719.17579.17578.41015.11718.23047.28907.46875.17578.05469h.52344l.23437.0586.75781.64062.0586.29296v.23438l.05859.0586.23047.34765v.35156l-.11719.17188v.29297l.29297.28906.29297.17578.17187.0586.29297.17577.29297.1172.58203.40624.28906.23438.29297.17578.21875.16015.01563.01172.23047.17579.64062.52343.17578.23438.1172.17578.17577.17578.11328.17188v.64062l.1172.17578.46874.11719.58203.11719.23438.05859.23047.11328.29297.11719.11328.0586.58593.35156.28907.17187.17578.0625.17578.05469.17578.0586.69922.35155.28906.17579.23438.05468.28906.17578.23437.1172.64063.40624.29297.11719.17187.0586.23438.05859.41015.05859.23047.0586.23438.11718.0586.17188-.41017.17578.46875.0586.0586.29296.11328.23438.17578.05468.23438.0586.17578.05859.40625.11719.64062.23437.11719.17188.0586.23437v.17578l-.0586.1172-.0586.40624.23438.23438.11719.05859.34766.11719.64062.23047.17578.11718.28906.1172.17578.17577.23438.46485.58203 1.10546.17578.17579.34766.17578.17578.11719.35156.11718 1.04688.52344.23437.0586.46485.11327.29297.0586.46484.17578.75781.58203.23438.23438.34765.46484.17578.17578.28907.23438.8164.69921.29297.17579.28906.28906.29297.17578.29297.28906.69531.64063.17578.17578.29297.23437.28907.23438.46875.28906.64062.58203.34766.23438.23437.29297.34766.34765.35156.46485.9336.99218.34765.40625.11719.17579.23437.05859.11328.11719.64454.17578.23047.11328.23437.0586.29297.17577.23047.1172.9336.69921.40624.40625.23438.17578.40625.17578.23437.11719.8164.34766.34766.23437.23438.11719.29297.28906.23047.11719.7578.35156.35157.17188.23047.05859.29297.11719.23437.0586.8711.17577h.8164l.46875.23047.17188.0586.875.69921.46484.1172.29297.05858.17578.0586.23047.0586.46875.05859.34766.05859.35156.0586.40625.05859h.29297l.17187.0586v.23046l.17578.17578h.29297l.34766.0586.35156.05859.69922.11719h.64063l.46484-.23438.29297-.17578.17187-.11719.41016-.17187.28906-.17578.9336-.46485.46875-.29297.52343-.29296.46485-.17188.46484-.17578 1.05078-.46485.28906-.11718.41016-.11719.28906-.11719.52735-.17578 1.51562-.69922.58203-.34765.28907-.0586.29297-.0586.34765-.11718.875-.23047.35156-.11719h.11329l.23437-.05859.875-.23437.23438-.0586h.8125l.35156-.0586.8164-.11718.17188-.0586.35156-.05468.29297-.0586.23047-.05859.8164-.17578.17579-.0586h.34765l.23438-.05859.46484-.11718.75781-.17188.23438-.0586h.34765l.41016-.11718.28906-.0586 1.28516-.05859h.28906l.41016-.0586.23047-.05858h.17578l.875-.1172h.40625l.41015-.11718h.34766l.35156-.11328.8711-.0586h1.75l1.04687.28907.41016.11719.28906.11718.35156.11719.28907.11719 1.05078.17187.28906.0586h.29297l.29297.05859.17187.0586.41016.05859.17187.0586.1172.05858h.11718l.11719.0586.35156.0586h.11328l.41016.0664 1.92187.39453 1.92578.39453 1.51953.44922 1.69532.71875 2.14453.80469 1.60547-.71875 1.42968-.80469 1.16016-1.07813 1.25-.44921 3.03516-.71875 1.875-.35938 2.14453-1.34765 2.23437-1.25391 2.5-1.25781 1.69531-.44922 1.78516-.17969 1.16016-.26953.625.53906 1.33984-.26953.71485-.98828.98437-1.34375.44531-.17969.80469-.35937 1.875-.53907 1.78516-.44921 1.25-.26954 1.16015-.08984 1.69922-.08984 1.96094-.26954 1.25-.08984h.53906l.625-.08984h.89063l2.14453-.17969 2.41015-.17969 2.58985-.08984 1.69531.17969 1.60938.08984 1.42968.35938 1.16016.71875 1.875.98828 1.16015 1.52734.26563.71484.6289.08985.35548.89844.53515.53906.53516 1.52734 1.07422.35938h.53515l-.80469.53515.08985 1.70703.71484 2.69532.89063.80468.89453.98829.71484 1.2578 1.78516.53907 1.51953-.17969.35547 1.34375 1.60937-.80469.98047-.53906.26953.26953.31641-.21484.21875-.14453.80078.44922.44922-.35938h.35547l.53515-.26953.53907-.71875.53515-.26953.625-.98828 1.16016.44922.83984.3711 1.39454.61718 1.6953-.17969h1.60548l1.78515.08985.17969-1.70704.53516-1.34375.80468.26954.4922.84765.40233.40625-.08984.53906v.35938l.71485.44922.71093-.26953h1.42969l.35938.98828.4453 1.25781.71485 1.34375 1.25.6289 1.69531.62891.71485-.17969.17969-.53906.98046-.08984.44922.35937.08594 1.25782-.26563.6289-.53515.17969v.53906l.71484.98438.26563.53906.98437.98828.80078 1.07813-.26562.35937-.08985.89844-.625 2.33203-.35546 2.0664-.08985 1.79298-.17969.71875-.08984.53906v1.4375l-.98047 1.88281-.35937 1.70703-.53516.89844-.80469 1.16797-.26562.53906 2.05469 1.2539.08593.35938-.35546.53906-.08985-.17968v.80859l.08985 1.4375-.44532.71484-1.07422.09375-.26562.71485.53515.89844.8047.71875 1.16015.80859 1.33984.26953.44531.35938-.35546.44921-1.78907-.08984-1.25-.44922-.71484-.71875-.625-.08984-.17578 3.58984-.1875 1.3086h89.35937V311.70313h-55.26953v49.08203l.76172.125 3.28906.54296 2.02344 2.83594v2.7539l2.35156.33204 2.34766.33203h4.05078l-1.3789 4.16016-2.02344.70703-2.02344.70312-.54297.34375-2.59375 1.6172-.1875.11718-2.02344-2.07813-.73046-2.74218-2.67188-2.07813-1.375-3.5-.0664-.08203-1.95704-2.67188 2.75-1.41796v-49.08204H294.42187v91.41407l.1172.03125.1328.01172.07422.07421.10547.04688.08985.0586.08593.05859.08985.0586.29687.29687.0586.08984.03125.11719.02734.11719.01563.13671-.03125.1172-.0586.08983-.0586.08594-.04296.10547-.04688.10156-.02734.1211v.14453l.17578.26953.14844.14844.07422.08594.07422.07421.04296.10547.0625.08985.0586.08593.04297.10547.0586.08985.04687.10156.04296.10547.0586.08594.11719.17968.07421.07422.0625.08594.0586.08984.04297.10547.0586.08985.05858.08593.0625.08985.0586.08984.04297.10156.11719.17969.07421.07422.0586.08594.07422.07421.08984.0586.10547.04687h.14844l.1328-.01562.13282.01562.10156-.04687.07422-.07422.04688-.10156-.01563-.13281v-.14844l-.04687-.10547-.02735-.11719-.04687-.10156-.02735-.1211-.04296-.10156-.0625-.08984-.04297-.10156-.04297-.10547-.03125-.11719-.01563-.13281-.01171-.13672.08593-.0586.0586-.08593.12109-.03125.04297.10547.01562.1328v.1172l.0586.10156.0586.08984.08983.0586.14844.14843.0586.08985.04296.10547-.01171.10156.08593.0586.10547.04687.08594.0586.08984.05858.07422.07422-.11719.02735-.10546.04687-.08594.0586-.07422.07421-.0586.08985-.0625.08594-.02734.12109-.04687.10156-.04297.10547-.03125.11719-.01172.13281-.01563.13281v.14844l.02735.11719.04687.10547.04297.10156.0586.08984.07421.07422.08985.0586.07422.07421.08984.0586.0586.08984.04296.10547.04688.10156.11719.03125.1328.01563h.14845l.11718-.03125.10547.04297.04297.10547.04688.10156.02734.1211L299.5 410l.02734.11719.03125.1211.02735.11718.10547.04297.10156.04687.13281-.01562.14844.14844.0625.08593.07422.07422.07031.07422.08984.0625.10547.04297.10156.04297.1172.03125.13671.01562.11719-.03125.07422-.07422.02734-.11718-.01172-.13282-.03125-.12109-.02734-.11719.04297-.10547h.11719l.08984.0625.11719.02735h.14843l.13282.01562h.14843l.13282.01563.1328-.01563h.14845l.1328-.01562.13282-.01172.13672.01172.11719-.02735.13281-.01562.1914-.0586-.05859.17579-.01562.1328-.02735.1211-.01562.13281-.0586.08594-.1328.01563-.10548.04687-.10546.04297-.1172.03125-.11718.02735-.26563.03125h-.14843l-.13281.01562-.07422.07422.05859.08594.14844.14843.11719.1797.07421.0703.08985.0625.08984.0586.08594.0586.08984.05858.10156.04297.10547.0625.10547.04297.08594.0586.10547.04687.10156.04297.17969.11719.0586.08984-.04298.10156-.04687.10547.01562.13281.22266.22266.0586.08985.04296.10156.03125.1211.04297.10155.01563.13282.03125.11718.01171.13672.03125.11719.14844.14844.10156.04297.10547.04296.1172.03125.1328.01563.13672.01563h.11719l.11719-.03125.08984-.0586.04297-.10547.04688-.10156.04296-.10547.03125-.11719.01172-.1328v-.14845l-.01172-.1328-.01562-.13282-.03125-.11719-.04297-.10547-.04688-.10547-.04296-.10156-.04297-.10547-.01563-.13281.01563-.13281.02734-.11719.03125-.11719.02735-.1211.04687-.10155.08984-.0586.08594-.0625.07422-.07422.08984-.05859.22266-.22266.0586-.08593.07421-.07422.11719-.17969.0586-.08594v-.14844l-.07423-.07421-.10156-.04688-.10547-.04297-.10156-.04297-.0586-.08984-.04687-.10547-.02734-.11719.08984-.05859.11719-.03125.10156-.04297.17969-.11719.14844-.14843.01172-.13282-.01172-.10546-.08985-.0586-.1328.01563h-.14845l-.1328.01562-.13282-.01562-.1211-.03125-.08593-.0586-.07422-.07422-.0586-.08984-.0625-.08594-.11718-.17969-.0586-.08593.03125-.1211.08594-.05859.1211-.03125.05859-.08594v-.1211l-.03125-.11718-.0586-.08984-.05859-.08594-.04687-.10547-.02735-.11719-.01562-.1328.0586-.08985.07421-.07422.08984-.0586.1172-.17968.07421-.07422.0586-.08594.14843-.14844.1211-.03125.1328-.01562.13282.01562.07422.07422.04297.10547.01562.13281-.03125.1172-.11719.03124-.1328.01172-.14844.14844-.04297.10547-.04688.10156-.02734.1211-.03125.11718v.14844l.03125.11719.04297.10546.05859.08985.07422.07031.07422.07422.11719.03125.12109.02734.11719-.02734.1328-.01563h.1172l.08984.0586.07422.07422.04687.10546.0586.08594.10156.04688.13281.01562.10547.04297.08594.0586-.01172.10546-.07422.07422-.17969.11719-.05859.08984-.08984.0586-.07032.07422-.07421.07421-.0625.08985-.02735.11719-.01562.1328.01562.13282-.01562.13281v.14844l.01562.13281.02735.1172.03125.12108.07421.07422.08985.0586.08594.0586.08984.05858.11719.03125v.08594l-.10157.04688-.08984.0586-.26563.03124-.11718.02735h-.14844l-.10547.04296-.10156.04688-.0586.08984-.0625.23438-.01171.13281-.03125.1211-.01563.1328v.29298l-.01172.1328.01172.13673.01563.1328.1328.01563.13282.01172.1211.03125.08593.0586.07422.07421.04688.10547.04296.10157.01563.1328v.44532l-.01563.13281v.44532l.03125.26562.02735.11719.01562.13281.03125.11719.08594.21094.03125.26562v.14844l-.03125.11719-.02734.11718-.03125.1211-.02735.11719-.03125.11718-.03125.1211-.01171.1328-.01563.13282.08984.0586.1172-.03125.10155.01562.04688.10547-.03125.26562v.44141l-.04297.10547-.04688.10547-.04296.10156-.04297.10547-.0586.08594-.03125.12109-.04296.11719-.03125.11719-.01563.1328.01563.13282.05859.08984.10547.04688.08594.0586.05859.08593-.01172.13672-.03125.11719-.04297.10156v.44531l-.01562.13281v.14844l-.03125.11719-.04297.10547-.02735.11719-.04687.10546-.04297.10157-.03125.12109-.02734.11719-.03125.13281-.03125.11719-.02735.11719-.04297.10546-.03125.1172-.03125.12108-.01171.13282-.01563.13281v.29688l.02734.11718v.14844l.04688.39844.02734.11719.0586.08984.12109.03125h.14844l.13281-.01563.0586.08985v.11719l-.0586.08984-.08984.0586-.10157.04296-.10546.04688-.08985.05859-.08594.0586-.13671.01562-.1172-.03125-.1328-.01563-.10157.04688-.0625.08594-.01172.13671-.01562.13282-.03125.11719-.02735.11718-.01562.13281-.03125.1211v.29687l.01563.13282.03125.11718v.14844l.01171.13281v.14844l-.02734.11719-.04688.10156-.02734.1211-.03125.11718-.0586.08985-.07421.07421-.10156.04297-.10547.04688-.11719.02734-.1211.03125-.10156-.04687.0586-.08594.10547-.04688.02734-.11718.03125-.11719.02734-.1211.03125-.11718v-.14844l.01563-.13281-.03125-.11719-.04297-.10547-.10547.01563-.07422.07422-.10156.04296-.08984.0625-.07422.07422-.04297.10157-.01563.1328-.03125.1172L304.25 426l-.03125.11719-.02734.11719-.03125.12109-.02735.11719-.03125.11718-.04297.10547-.08984.0586h-.08984l-.1172-.03125-.03124-.08594.01562-.13672-.03125-.11719v-.14844l-.01171-.1328v-.14844l-.0625-.23438-.02735-.1211-.04297-.10156-.04687-.10546-.0586-.08594-.05859-.08985-.04297-.10546-.0625-.08594-.14844-.14844-.0703-.07422-.10548-.04687-.10547-.04297-.10156-.04297-.29687-.29688-.08985-.07421-.08594-.0586-.10546-.04297-.08985-.0625-.08594-.0586-.10546-.04296-.08985-.0586-.08594-.0625-.07421-.0703-.10547-.04688-.08594-.0586-.10547-.04296-.08984-.0625-.10156-.04297-.10547-.04297-.08594-.0586-.10547-.04687-.10547-.04297-.10156-.04687-.08985-.0586-.10156-.04297-.10547-.04296-.08984-.0625-.11719-.02735-.13281-.01562-.13281.01562H299.75l-.13281.01563-.11719-.03125-.08984-.0586-.07422-.07422-.08985-.05859-.10156-.04688h-.14844l-.12109-.02734-.10156-.04297-.07422-.07422-.11719-.17968-.08984-.0586-.10156-.04297-.08985-.0625-.10547-.04296-.08984-.0586-.08594-.0586-.10547-.04687-.0586-.08594-.05858-.08984-.04297-.10547-.04688-.10156-.07422-.07422-.08594-.0586-.07421-.07421-.08985-.0586-.22265-.22265-.04297-.10547-.03125-.26563.10547-.04296h.14453l.10547.04296.07421.07422.08985.0586.08594.0586.10546.04687.08985.05859.14844.14844.0703.07422.14845.14843.0625.08594.07421.07422.08594.0586.07422.07421.08985.0625.08984.0586.08594.05859.26953.17578.10156.04688.10547.04296.10156.04297.04688-.07421.05859-.08594.07422-.07422.07031-.07422.10547.04297.07422.07422.0586.08984.04296.10156.04688.10547.04296.10547.1211.02735.11719-.02735.07421-.08984.04297-.10547.0586-.08985.07422-.07421.10546-.04297.1172-.02735.1328.01172.08985.0586.14844.14843.05859.08985.04297.10547.04687.10156.04297.10547.04297.10156.10547.04688.10547.04296.13281.01563.08594-.0586.0586-.08984.07421-.07422.10547-.04297.11719.02735.10547.04687.10156.04297.10547.04297.10156.04688.17969.11718v.11719l-.01563.13281.01563.13281.01562.13672.0586.08594.10156.04688.1211.02734.11718.03125h.14844l.11719-.03125.05859-.08984.17969-.1172.05859-.08983.07422-.07422.0586-.08594.11718-.17969.17969-.11719.11719.03125.08984.0586.04297.07422-.01563.1328v.1172l.08985.05859h.14843l.13282-.01563.1328-.01171.26563-.03125.10547-.04297.11719-.03125.1211-.02735.07421-.07421.07031-.07422.0625-.08985-.01562-.10547-.04688-.10156-.10156-.04297-.10547-.01562-.11718.02734-.26563.03125h-.14844l-.07421-.07422-.08985-.0586-.11719-.03124-.11718-.02735-.13282-.01562h-.14843l-.13282.01563h-.29687l-.10547-.04688-.14844-.14844-.04297-.10156-.05859-.08984.22266-.22266.08593-.0586.10547-.04296.11719-.03125.13281-.01563.13281.01563.13672.01562.10157.04297.1328-.01172.08985-.0625.10156-.04297.0625-.08984-.04687-.10156-.08984-.0586-.1172-.03125-.10155-.04296-.0586-.08985-.0625-.08984v-.11719l.01563-.13281.10547-.04688.07421-.07031v-.1211l-.08984-.05859-.03125-.11719.08985-.05859.07421-.07422.04297-.10547.0586-.08984.04687-.10156.01563-.13281v-.14844l-.04688-.10547-.04297-.10156-.08984-.0586-.13281-.01562-.10157-.04297-.13671-.01563-.1172-.03125h-.4453l-.13282-.01562-.13281-.01172-.13281-.01563-.11719-.03125h-.14844l-.13281-.01562-.13281-.01172-.26563-.03125-.1211-.04297-.08593-.0586-.07422-.07421v-.14844l.01172-.13281.10547-.04688.10156-.04296.13281-.01563h.15235l.13281-.01562h.29297l.1211.03125.10156.04296.08984.0586.23438.0625.12109-.04688.08984-.05859.10156-.04297.13282-.01562.10547.04296.10156.04688.13281.01172.1211-.02735h.14453l.12109-.03125.11719-.02734.10547-.04687.07421-.07422.08594-.0586.14844-.14843.0586-.08594.04687-.10547.02734-.11719.01563-.10547-.10156-.04296-.08985-.0586-.11719-.03125-.10546-.04297-.08985-.0625-.07422-.08594-.07422-.07421-.10156-.04297-.10547-.04688-.10156-.04297-.0586-.08984-.04687-.10156-.08594-.21094-.0625-.08594-.05859-.08984-.07422-.07422-.08594-.0586h-.26953l-.11719.03126-.08984.05859-.10156.04297-.13281.01562-.10547-.01562-.02735-.11719-.0625-.08984-.11718-.03125-.10157-.04297-.14843-.14844-.03125-.11719-.01563-.10546.07422-.07422.17969-.1172.11719-.02733.11718-.03125.13672.01562.10156.04297.10547.04297.10156.04687.10547.04297.1172.03125.1328.01563.1172.02734.1328.01563.10547-.01563.08985-.0586-.07422-.07421-.10547-.04297-.07422-.07422-.07422-.08984-.14844-.14844-.08593-.0586-.08985-.05859-.07422-.07422-.08984-.0586-.10156-.04687-.1211-.02734-.10156-.04688-.10547-.04296-.11719-.03125-.10156-.04297-.1211-.03125h-.14843l-.11719.03125-.10546.04297-.08594.0625-.17969.11718-.08594.0586-.08984.0586-.10547.04687-.08594.05859-.10547.04297-.10156.04297-.10547.04687-.07422.07422-.05859.08985-.0586.08593-.04687.10547-.0586.08594-.07421.07422-.13281-.01172-.1172-.03125h-.11718l-.07422.07422-.08984.0586-.07422.07421-.08984.0586-.08594.05859-.10547.04687-.10156.04297-.13672.01563-.10156-.04297-.14844-.14844-.10547-.04688h-.08594l-.10547.04688-.10156.04297-.1211.03125-.11718-.03125-.07422-.07422v-.11719l.03125-.1211.07422-.0703.0586-.08985.07421-.07422.11719-.03125.10547-.04296h.29297l.13281-.01563.13672-.01563.10156-.04296.08985-.0586.10156-.04687.08984-.0586.13281-.01171.08985.05859.13281.01172.08984-.0586.08594-.05859.10547-.04297.08984-.0586.08594-.0625.08985-.05859.14843-.14843.0586-.08594.05859-.08985.10547-.04296.13281-.01563.11719.02735.1211.03125.05859-.0586.05859-.08984.03125-.26563.02734-.11719.10547.01172.13281.01563.10157-.04297.08984-.0586.0586-.08984.07421-.07422.0586-.08984.04687-.10156.01172-.13281-.01172-.13282-.04687-.10547-.14844-.14843-.0586-.08985-.05859-.08594-.04297-.10546v-.44532l.01563-.1328v-.14845l.01172-.1328-.0586-.0586-.08984.0586-.10156-.04298-.17969-.11719-.08594-.05859-.0625-.08984-.0586-.08985-.07421-.07421-.08594-.0586-.1211.03125-.10155.01172-.10547.04688-.08594.05859-.10547.04297-.14844.14844-.08984.05859-.08594.0586-.08984.0625-.10547.04296-.13281.01563v-.1211l.10547-.04297.11718-.03125.07422-.0703.04297-.10548v-.14844l-.02734-.11718-.14844-.14844-.13281-.01563h-.14844l-.11719.03125-.10547.04297-.10156.04297-.08984.0625-.11719.02735-.07422-.07422.01172-.13281-.04297-.10157-.04297-.10547-.08984-.05859-.11719.02734-.1211.03125-.11718.03125-.10156.04297-.1211.03125-.10156.04297-.10547.04297-.08984.0586-.10156.01562v-.11719l.01562-.13281-.0586-.08985-.07421.04297-.14844.14844-.0586.08985-.07421.07421-.04688.10547-.04296.10156-.07422.07422-.0586.08985-.07422.07422-.05859.08593-.07422.07422-.08984.0625-.07422.07031-.07422.07422-.10156.01563-.13281.01562-.10547-.04296v-.1211l.14843-.14844.04297-.10156.0586-.08984.04687-.10156.04297-.10547.0586-.08985.03124-.11719.04297-.10156.03125-.1211.02735-.11718.04687-.10547.04297-.10156.04297-.10547.07422-.07031.08984-.0625.08985-.0586.10156-.04296h.29687l.26563-.03125.10547-.04297-.07422-.07422-.11719-.03125-.10547-.04297-.08984-.0586-.10156-.04687-.08985-.0586-.10156-.04296-.10547-.04297-.08984-.0625-.08594-.0586-.10547-.04296-.10156-.04297-.1211-.03125-.11718-.03125-.10157-.04297L297.5 410.25l-.10156-.04297-.08985-.0586-.04296-.10546-.01563-.13281.10156-.04297.13281-.01563.13672.01563.13282-.01563.10156-.04297.0586-.08984.01562-.10547-.08985-.0586-.07421-.07421-.10157-.04297-.08984-.0586-.14844-.14843-.04297-.10547-.01562-.13281v-.29297l-.0586-.08985-.08984-.05859-.07422-.07422-.04297-.10547-.03125-.11718-.0586-.08985-.07421-.07422-.11719-.02734-.07422-.07422-.08984-.0586-.08984-.0625-.08594-.05859-.07422-.07421-.0586-.08594-.04687-.10547-.08594-.0586-.14843-.14843-.19532-.0586-.1328.01563-.10157.04297-.07422.07422-.04688.10156-.04296.10547-.0586.08984-.0586.08594-.29687.29687-.08984.0586h-.08594l-.0625-.08594-.04297-.10547.03125-.11719.0586-.08984.02734-.11719-.01172-.13281-.08984-.0625-.10547.04688-.11719.02734-.11719.03125-.26953.17578-.10156.04688-.11719.02734-.10546.04687-.08985.0586-.10156.04297-.0586-.08594-.04687-.10547.01563-.13281.04687-.10547.07031-.07422.07422-.07031.0586-.08985v-.14843l-.04297-.10547h-.23829l-.10156.04687-.03125.11719-.02734.11719-.03125.1211-.07422.04296-.13281.01563-.07422-.04688-.04297-.10156-.04297-.10547-.04687-.10156-.04297-.10547-.1211.03125-.10156.04297-.13281.01562-.11719.03125-.10547.04297-.08984.0586-.10156.04687-.1211.02734-.13281.01563-.10156-.04297-.0586-.08985-.04687-.10546-.04297-.10157-.04297-.10546v-.1172l.0586-.08984.08593-.05859.17969-.11719.10156-.04687.10547-.04297.10547-.0586.10156-.04296.08985-.0625.10156-.04297.10547-.0586.10156-.04687.08984-.0586.10547-.04296.10156-.04297.08985-.0625.10156-.04297.13672-.01563.11719.03125.10156.04297.1211.03125.10156.04297.10546.04688.10157.04296.10547.04297.10156.04688.10547.04297.10156.04297.10547.04687.08594.0586.10546.04296.1172.03125.10546.04297.10156.04688.08985.0586.10547.04296.10156.04297.10547.04687.11719.02735.10156.04687.1211.02735h.14843l.08594-.0586.01562-.10156.0586-.08984-.02735-.1172-.07422-.07421-.11719-.17969-.07421-.07422-.08985-.07421-.17969-.1172-.08593-.05859-.10547-.04296-.10156-.04688-.26954-.17578-.05859-.08985-.07422-.07421-.0586-.08985-.04296-.10156-.03125-.11719-.01563-.13672v-.5625l-.01171-.1328-.01563-.13282-.03125-.11719-.01562-.13281-.01172-.13281-.03125-.1211-.22266-.22265-.0586-.08594-.01562-.10547.03125-.11719.13281-.01562v-91.41406H172.9922v1.45312l-.0586.23438-.35156 1.05078-.17187.52343-.1172.34766-.17577.41016-.11719.17187-.23438.29297-.23046.0586h-.35157l-.11718.05859-.23047.40625v.29297l.11719.17578.23046.23047.1172.23437.64062.75781.29297.46485.17578.23437.23047.35156.23437.34766.64063.8164.17578.46485.17187.41016.11719.69531.17578.46875.11719 1.39844.0586.46484v.875l.11718 1.04688v4.78125l-.0586.46484-.35156 1.28125-.17578.52344-.11328.41015-.35156.9297L172.93359 336l-.23437.58203-.11719.17578-.17187.34766-.17578.40625-.35157.8164-.0586.29297-.11327.29297-.11719.28906-.0586.17579-.11718.875-.0586.40625-.05859.11718-.0586.17579-.05859.17187-.23047.52734-.11718.17188v.23437l-.11719.23438-.0586.17187-.17577.58594v.28906l-.0586.17579v.29296l-.0586.11329-.05859.52734v.17187l-.05468.23438v2.6211l-.17578.8164-.1172.17578-.17577.23438-.1172.17187-.11327.23438-.58594.93359-.23047.28906-.29297.46485-.17578.23437-.28906.35156-.35156.69922-.11328.23047-.17579.41016-.17578.23046-.40625.52735-.8164.69922-.29297.17187-.28906.23438-.17579.11719-.17578.17578-.52344.40625-.52734.17578-.17187.17578-.23438.05469-.64062.17578h-.75782m12.21094 31.02344l-1.07422.44921.35938.89454 1.25-.71485.44531-.53906-.98047-.08985"/><path fill="#d3d3d3" fill-opacity="0" fill-rule="evenodd" d="M201.50781 416.59766h-.89453l.44922.6289.98047.35938.80469-.08985.4453-.98828-.17577.08985-.71485-.35547-.89453.35547m154.6211 59.0703l-.0586-.52343v-.29297l.11328-.29297.0586-.23046.46875-.46875h.11328l.11719-.11329.11718-.05859h.17579l.23437-.0586h.34766l.23437.0586.11719.0586.23047.17187.0586.17578.11718.58203v.29297l-.11719.17578-.17187.28906-.17579.17579-.52734.52343-.23047.23438-.11719.0586h-.17578l-.11718-.0586-.40625-.29297-.17579-.11719-.11718-.0586-.0586-.11327-.05468-.1172m6.64062-10.95702l-.0586-.17188v-1.10937l.0586-.17188.17578-.0586.17188-.05858h.17578l.23437-.0586.1172.0586.05858.69921-.05859.17188-.11719.17578-.11718.0586-.23438.52343-.11328.0586h-.23438l-.05859-.1172m9.61328-14.39062l-.11719-.17578v-.69922l.29297-.875.1172-.17187.17577-.35156.11328-.23047.1172-.29297.35155-.75781.1172-.23047.17187-.23438h.17578l.11719-.0586h.64062l.11719.0586.23437.23438.17188.11328.35156.29297.11719.11718.11328.17579v.11328l.11719.05859.11718.11719v.69922l-.05859.17578v.23047l-.0586.17578-.34765 1.05078-.11719.23047-.11719.23437-.11718.0586-.23047.23437-.64063.28906h-.875l-.41015-.11718-.64063-.46485"/><path fill="none" stroke="#bebebe" stroke-linecap="round" stroke-linejoin="round" stroke-miterlimit="10" stroke-width=".5" d="M467.95703 311.69531H144.02734v168.625h323.9297v-168.625"/><g clip-path="url(#a)"><path fill="#fff" fill-opacity="0" fill-rule="evenodd" d="M144 475.89063v4.4375h.0039H144V311.67188h.0039H144v164.21875"/></g><g clip-path="url(#b)"><path fill="#fff" fill-opacity="0" fill-rule="evenodd" d="M144.0039 480.32813V311.67188h84.32423v108.78125l-4.4375 1.23046-1.44532.94532-2.99219 2.65234-4.4375-.08203-1.41406 1.8711-3.02734 2.23046-4.4375.5664-3.75781 1.64063-.6797 3.32031-.28905 1.1172-4.14844 2.15624-2.13281 2.28125-2.3086 3.36719-1.85156 1.07031-2.58594.49219-1.97656-.49219-1.8125-4.4375-.64844-.42187-4.4375-1.3711-3.1211-2.64453-1.3203-.8125-4.4375-.0625-1.10938.875-3.13281 4.4375-.19531.47266-.23047-.47266-4.20703-2.52344-2.40625 2.52344 1.02734 4.4375-.7539 4.4414-.91016 4.4375.77734 4.4375 2.26563 4.19142 4.18359.24609.2539.01562.05079-.01562 4.38672-.66016 4.4375-.0586 4.4414-2.96483 4.4375.68359 4.4375-1.4375h.0039l4.4336-1.15235 4.4414-1.04296 4.4375.15625 4.4375-1.25 1.94923-1.14844 2.48828-1.4375 4.4414-1.91016 1.07813-1.08984 3.35938-1.85547 2.23046-2.58594 2.20703-3.63281 1.81641-.80469 2.6211-1.58594 4.4375 1.14844v6.70703l-1.21485 2.60938 1.21484 2.90625 1.45704-2.90625-1.45703-2.60938v-6.70703l.83203.4375 3.60937 1.97266 4.4375 1.64844v8.88671l-2.67187.8086 2.67187.82422 1.24219-.82422-1.24219-.8086v-8.88671l4.4375-.54688 2.77734-3.07422-2.77734-3.14844-3.71094-1.28906-.72656-.64453-4.4375-3.07422-2.55469-.71875-1.88672-2.65234-2.375-1.78516 2.375-2.6289 1.25391-1.8125-1.2539-1.34766-4.4375-.82813V311.67188h44.3828v115.875l-4.4375 1.07422-4.4375.71094-2.33984 2.17578-2.09765.75781-4.4414 1.02735-2.4375 2.65234 2.4375 2.17188 4.4414 1.33594 3.17578-3.50782 1.26172-2.8125 4.4375 1.22656 4.4375.69532v7.9961l-4.4375.97265-1.72266.79687-2.71484 2.32422-2.8164 2.11719.58202 4.4375 2.23438 2.09375 4.4375.22656 4.4375-.10156 4.4414-1.1875.73438-1.03125 3.70312-3.03125 1.04297-1.40625 1.21485-4.4414-2.25782-1.375-4.4375.45702-4.4414-.85156v-7.9961l4.4414.30079.25391.58984 4.1836 3.80469 4.4375.08203 4.4375-.60937 3.13671-3.27735-3.13672-3.33594-4.4375-.60937-.92968-.49219-3.50782-3.42969-4.4375-.18359-4.4414-.34765v-115.875h75.45312v121.72656l-2.47656 2.54687 2.47656 2.7539.75 1.6836 3.6875 3.51953 4.2539-3.51953-4.2539-3.51953-1.95703-.91797-2.48047-2.54687V311.67188h26.6289v130.8828l-2.21483 2.26563-2.22266 2.71485-1.45703 1.72656-2.9414 4.4375-.03907.08203-3.46485 4.35547-.97265 3.16797-.42578 1.26953.42578.36719 4.4375.97265 4.4375-.33594 4.4375.41016 3.90625 3.02735.1211 4.4375.41406.51562 4.4375 1.22656 2.52343-1.74219 1.91406-.59375 3.34375-3.84375 1.09375-.96875 3.60547-3.47265-.10546-4.4375-3.5-3.58203-4.4375-.02344-.71485-.83203-3.72265-3.9336-4.4375.4375-.44922-.9414-1.3086-4.4414-2.6836-2.26563V311.67188h93.20313v163.61718l-.55859.60156.5586.75391v3.6836H144.0039"/></g><path fill="#50fcfc" fill-rule="evenodd" d="M159.48828 458.13672l-.77734-4.4375.91015-4.4375.75391-4.4414-1.02734-4.4375 2.40625-2.52344 4.20703 2.52343.23047.47266.1953-.47266 3.13282-4.4375 1.10938-.875 4.4375.0625v7.32422l-4.4375 1.11719-2.23828 1.2461 2.23828 2.14843v5.9375l-1.33985.79297-3.09765 4.11328-.2461.32422.2461.11719 2.08593-.1172 2.35157-.7539 1.62109-3.6836-1.6211-.79296v-5.9375l4.4375.07031 2.66407-2.21875-2.66406-2.36328v-7.32422l1.3203.8125 3.1211 2.64453 4.4375 1.3711.64844.42187 1.8125 4.4375 1.97656.49219 2.58594-.49219 1.85156-1.07031 2.3086-3.36719 2.1328-2.28125 4.14845-2.15625.28906-1.11719.67969-3.3203 3.7578-1.64063 4.4375-.5664 3.02735-2.23048 1.41406-1.8711 4.4375.08204 2.9922-2.65234 1.4453-.94532 4.4375-1.23046 4.4375.82812 1.25391 1.34766-1.2539 1.8125-2.375 2.6289 2.375 1.78516 1.88671 2.65234 2.5547.71875v2.98438l-4.03126.73437 4.03125 1.40235 1.71484 3.03515 2.72266 1.65625 4.39453-1.65625-4.39453-2.125-3.5039-2.3125-.9336-.73437v-2.98438l4.4375 3.07422.72656.64453 3.71094 1.28906 2.77734 3.14844-2.77734 3.07422-4.4375.54688-4.4375-1.64844-3.60937-1.97266-.83203-.4375-4.4375-1.14844-2.6211 1.58594-1.8164.80469-2.20704 3.63281-2.23047 2.58594-3.35937 1.85547-1.07813 1.08984-4.4414 1.91016-2.48828 1.4375-1.94922 1.14844-4.4375 1.25-4.4375-.15625-4.4414 1.04296-4.4336 1.15235h-.0039l-4.4375 1.4375-4.4375-.6836-4.44141 2.96485-4.4375.0586-4.38672.66015-.05078.01562-.25391-.01562-4.1836-.2461-2.26562-4.1914"/><path fill="#00e8fc" fill-rule="evenodd" d="M166.1914 458.2539l-.24609-.11718.2461-.32422 3.09765-4.11328 1.33985-.79297 1.62109.79297-1.6211 3.6836-2.35156.7539-2.08593.11719"/><path fill="#fff" fill-opacity="0" fill-rule="evenodd" d="M170.6289 443.57422l-2.23827 1.2461 2.23828 2.14843 4.4375.07031 2.66406-2.21875-2.66406-2.36328-4.4375 1.11719"/><path fill="#50fcfc" fill-rule="evenodd" d="M232.76563 452.16797l-1.21485-2.90625 1.21484-2.60938 1.45704 2.60938-1.45703 2.90625"/><path fill="#00e8fc" fill-rule="evenodd" d="M237.20703 437.34766l-4.03125-1.40235 4.03125-.73437.9336.73437 3.5039 2.3125 4.39453 2.125-4.39453 1.65625-2.72266-1.65625-1.71484-3.03515"/><path fill="#50fcfc" fill-rule="evenodd" d="M241.64453 454.52344l-2.67187-.82422 2.67187-.8086 1.24219.8086-1.24219.82422m13.3125-16.40625l-2.4375-2.17188 2.4375-2.65234 4.4414-1.02735v2.40235l-2.12109 1.27734 2.1211 1.21485L260.5 435.9453l-1.10156-1.27734v-2.40235l2.09765-.7578 2.33985-2.17579 4.4375-.71094 4.4375-1.07421v2.17968l-2.97266 1.78125 2.97266 1.59375 4.4414-.55469 1.47266 3.39844 2.96484 2.69531 4.4375-.625 4.4375-1.45312.58985-.61719-.58985-.6289-4.4375-1.47266-4.40625-2.33594-.03125-.03125-4.4375-.94531-4.4414-.80469v-2.17969l4.4414.34766 4.4375.1836 3.50782 3.42968.92968.49219 4.4375.60938 3.13672 3.33593-3.13672 3.27735-4.4375.60937-4.4375-.08203-4.18359-3.80469-.2539-.58984-4.44141-.30078-4.4375-.69531-4.4375-1.22657-1.26172 2.8125-3.17578 3.50781-4.4414-1.33593"/><path fill="#00e8fc" fill-rule="evenodd" d="M259.39844 437.16016l-2.1211-1.21485 2.1211-1.27734L260.5 435.9453l-1.10156 1.21485"/><path fill="#50fcfc" fill-rule="evenodd" d="M261.60156 453.69922l-.58203-4.4375 2.8164-2.11719 2.71485-2.32422 1.72266-.79687 4.4375-.97266 4.4414.85156 4.4375-.45703 2.25782 1.375-1.21485 4.4414-1.04297 1.40626-3.70312 3.03125-.73438 1.03125-4.4414 1.1875-4.4375.10156-4.4375-.22656-2.23438-2.09375"/><path fill="#00e8fc" fill-rule="evenodd" d="M272.71094 433.10156l-2.97266-1.59375 2.97266-1.78125 4.4414.80469 4.4375.94531v3.0625l-.9375 1.40625.9375.85156 2.63282-.85156-2.63282-1.40625v-3.0625l.03125.03125 4.40625 2.33594 4.4375 1.47266.58985.6289-.58985.61719-4.4375 1.45313-4.4375.625-2.96484-2.69532-1.47266-3.39844-4.4414.5547"/><path fill="#00d4fc" fill-rule="evenodd" d="M281.58984 436.79688l-.9375-.85157.9375-1.40625 2.63282 1.40625-2.63282.85156"/><path fill="#50fcfc" fill-rule="evenodd" d="M348.16406 438.69922l-2.47656-2.7539 2.47656-2.54688 2.48047 2.54687 1.95703.91797v1.45703l-2.16406 2.0625 2.16406 2.0664 2.4961-2.0664-2.4961-2.0625v-1.45703l4.2539 3.51953-4.2539 3.51953-3.6875-3.51953-.75-1.6836"/><path fill="#00e8fc" fill-rule="evenodd" d="M352.60156 442.44922l-2.16406-2.0664 2.16406-2.0625 2.4961 2.0625-2.4961 2.0664"/><path fill="#50fcfc" fill-rule="evenodd" d="M361.48047 462.9414l-.42578-.36718.42578-1.26953.97265-3.16797 3.46485-4.35547.03906-.08203 2.9414-4.4375 1.45704-1.72656v5.42187l-.55469.74219.55469.79687 1.17187-.79687-1.17187-.74219v-5.42187l2.22265-2.71485 2.21485-2.26562v15.14453l-.70703.4375.70703 1.0039.42187-1.0039-.42187-.4375v-15.14453l2.6836 2.26562 1.30859 4.4414.44921.94142 4.4375-.4375 3.72266 3.93359.71485.83203v3.75781l-4.4375.79688-3.125 3.48828 3.125 2.4375 4.4375 1.90234 4.4375-4.3125.02734-.02734-.02735-.10938-4.4375-4.17578v-3.75781l4.4375.02344 3.5 3.58203.10547 4.4375-3.60546 3.47265-1.09375.96875-3.34375 3.84375-1.91407.59375-2.52344 1.7422-4.4375-1.22657-.41406-.51563-.1211-4.4375-3.90624-3.02734-4.4375-.41015-4.4375.33593-4.4375-.97265"/><path fill="#00e8fc" fill-rule="evenodd" d="M370.35547 454.4961l-.55469-.79688.55469-.74219 1.17187.74219-1.17187.79687"/><path fill="#fff" fill-opacity="0" fill-rule="evenodd" d="M374.79297 457.69922l-.70703.4375.70703 1.0039.42187-1.0039-.42187-.4375"/><path fill="#00e8fc" fill-rule="evenodd" d="M383.67188 465.01172l-3.125-2.4375 3.125-3.48828 4.4375-.79688v1.15235l-3.9336 3.1328 3.9336 3.17188 3.25-3.17187-3.25-3.13281v-1.15235l4.4375 4.17578.02734.10938-.02735.02734-4.4375 4.3125-4.4375-1.90234"/><path fill="#00d4fc" fill-rule="evenodd" d="M388.10938 465.7461l-3.9336-3.17188 3.9336-3.13281v1.15234l-2.48829 1.98047 2.48829 2.00781 2.05468-2.00781-2.05469-1.98047v-1.15234l3.25 3.1328-3.25 3.17188"/><path fill="#00c4fc" fill-rule="evenodd" d="M388.10938 464.58203l-2.48829-2.00781 2.48829-1.98047v1.14844l-1.04297.83203 1.04296.84375.86329-.84375-.86329-.83203v-1.14844l2.0547 1.98047-2.0547 2.00781"/><path fill="#00b8fc" fill-rule="evenodd" d="M388.10938 463.41797l-1.04297-.84375 1.04296-.83203.86329.83203-.86329.84375"/><path fill="#50fcfc" fill-rule="evenodd" d="M467.9961 476.64453l-.5586-.7539.5586-.60157v1.35547m0-1.35547v1.35547l.0039.0039v-1.36327l-.0039.0039"/><g clip-path="url(#c)"><path fill="#fff" fill-opacity="0" fill-rule="evenodd" d="M467.9961 311.67188H468v163.61328-163.61329h-.0039"/></g><path fill="#fff" fill-opacity="0" fill-rule="evenodd" d="M231.9414 435.35547l5.28516 2.48828 4.24219-9.01172-5.28516-2.48828-4.24218 9.01172"/><path fill-rule="evenodd" d="M238.57031 429.49219l.46094.21875-2.6836 5.69531-.71093-.33594 1.91406-4.0625-1.25781-.59375.23828-.5.53125.17969.2539.0586.2461.01562.24219-.03906.2461-.1172.2539-.20702.26562-.3125"/><g clip-path="url(#d)"><path fill="none" stroke="#000" stroke-linecap="round" stroke-linejoin="round" stroke-miterlimit="10" stroke-width=".5" d="M147.51172 480.36328l-7.02344-.07031"/></g><g clip-path="url(#e)"><path fill="none" stroke="#000" stroke-linecap="round" stroke-linejoin="round" stroke-miterlimit="10" stroke-width=".5" d="M146.49219 480.35156l.5625 1.08985"/></g><g clip-path="url(#f)"><path fill="none" stroke="#000" stroke-linecap="round" stroke-linejoin="round" stroke-miterlimit="10" stroke-width=".5" d="M160.75781 481.03906l-6.88281-1.42187"/></g><g clip-path="url(#g)"><path fill="none" stroke="#000" stroke-linecap="round" stroke-linejoin="round" stroke-miterlimit="10" stroke-width=".5" d="M159.7539 480.83203l.34766 1.17578"/></g><g clip-path="url(#h)"><path fill="none" stroke="#000" stroke-linecap="round" stroke-linejoin="round" stroke-miterlimit="10" stroke-width=".5" d="M174.1289 480.66406l-6.99609-.67187"/></g><g clip-path="url(#i)"><path fill="none" stroke="#000" stroke-linecap="round" stroke-linejoin="round" stroke-miterlimit="10" stroke-width=".5" d="M173.10938 480.5664l.46875 1.13282"/></g><g clip-path="url(#j)"><path fill="none" stroke="#000" stroke-linecap="round" stroke-linejoin="round" stroke-miterlimit="10" stroke-width=".5" d="M187.3789 481.07031l-6.86718-1.48437"/></g><g clip-path="url(#k)"><path fill="none" stroke="#000" stroke-linecap="round" stroke-linejoin="round" stroke-miterlimit="10" stroke-width=".5" d="M186.3789 480.85547l.33594 1.17969"/></g><g clip-path="url(#l)"><path fill="none" stroke="#000" stroke-linecap="round" stroke-linejoin="round" stroke-miterlimit="10" stroke-width=".5" d="M200.65234 481.24219l-6.78515-1.82813"/></g><g clip-path="url(#m)"><path fill="none" stroke="#000" stroke-linecap="round" stroke-linejoin="round" stroke-miterlimit="10" stroke-width=".5" d="M199.66406 480.97656l.27735 1.19531"/></g><g clip-path="url(#n)"><path fill="none" stroke="#000" stroke-linecap="round" stroke-linejoin="round" stroke-miterlimit="10" stroke-width=".5" d="M213.85938 481.58203l-6.56641-2.5039"/></g><g clip-path="url(#o)"><path fill="none" stroke="#000" stroke-linecap="round" stroke-linejoin="round" stroke-miterlimit="10" stroke-width=".5" d="M212.90234 481.21484l.15235 1.21875"/></g><g clip-path="url(#p)"><path fill="none" stroke="#000" stroke-linecap="round" stroke-linejoin="round" stroke-miterlimit="10" stroke-width=".5" d="M227.34766 480.94531l-6.91407-1.23437"/></g><g clip-path="url(#q)"><path fill="none" stroke="#000" stroke-linecap="round" stroke-linejoin="round" stroke-miterlimit="10" stroke-width=".5" d="M226.34375 480.76563l.375 1.16796"/></g><g clip-path="url(#r)"><path fill="none" stroke="#000" stroke-linecap="round" stroke-linejoin="round" stroke-miterlimit="10" stroke-width=".5" d="M240.6875 480.8086l-6.96094-.96094"/></g><g clip-path="url(#s)"><path fill="none" stroke="#000" stroke-linecap="round" stroke-linejoin="round" stroke-miterlimit="10" stroke-width=".5" d="M239.67188 480.66797l.42578 1.15234"/></g><g clip-path="url(#t)"><path fill="none" stroke="#000" stroke-linecap="round" stroke-linejoin="round" stroke-miterlimit="10" stroke-width=".5" d="M254.02344 480.07422l-7.00781.51172"/></g><g clip-path="url(#u)"><path fill="none" stroke="#000" stroke-linecap="round" stroke-linejoin="round" stroke-miterlimit="10" stroke-width=".5" d="M253.0039 480.14844l.65626 1.03515"/></g><g clip-path="url(#v)"><path fill="none" stroke="#000" stroke-linecap="round" stroke-linejoin="round" stroke-miterlimit="10" stroke-width=".5" d="M267.0664 478.94922l-6.46093 2.76172"/></g><g clip-path="url(#w)"><path fill="none" stroke="#000" stroke-linecap="round" stroke-linejoin="round" stroke-miterlimit="10" stroke-width=".5" d="M266.125 479.34766l.95703.76953"/></g><g clip-path="url(#x)"><path fill="none" stroke="#000" stroke-linecap="round" stroke-linejoin="round" stroke-miterlimit="10" stroke-width=".5" d="M280.14844 478.49219l-5.99219 3.67187"/></g><path fill="none" stroke="#000" stroke-linecap="round" stroke-linejoin="round" stroke-miterlimit="10" stroke-width=".5" d="M279.27344 479.02734l1.0586.6211"/><g clip-path="url(#y)"><path fill="none" stroke="#000" stroke-linecap="round" stroke-linejoin="round" stroke-miterlimit="10" stroke-width=".5" d="M293.9414 479.82422l-6.95312 1.00781"/></g><g clip-path="url(#z)"><path fill="none" stroke="#000" stroke-linecap="round" stroke-linejoin="round" stroke-miterlimit="10" stroke-width=".5" d="M292.92969 479.97266l.72656.98828"/></g><g clip-path="url(#A)"><path fill="none" stroke="#000" stroke-linecap="round" stroke-linejoin="round" stroke-miterlimit="10" stroke-width=".5" d="M307.10156 479.1836l-6.64062 2.28906"/></g><g clip-path="url(#B)"><path fill="none" stroke="#000" stroke-linecap="round" stroke-linejoin="round" stroke-miterlimit="10" stroke-width=".5" d="M306.13672 479.51563l.89844.83593"/></g><g clip-path="url(#C)"><path fill="none" stroke="#000" stroke-linecap="round" stroke-linejoin="round" stroke-miterlimit="10" stroke-width=".5" d="M320.60938 480.38672l-7.02735-.11719"/></g><g clip-path="url(#D)"><path fill="none" stroke="#000" stroke-linecap="round" stroke-linejoin="round" stroke-miterlimit="10" stroke-width=".5" d="M333.89844 480.76563l-6.97266-.875"/></g><g clip-path="url(#E)"><path fill="none" stroke="#000" stroke-linecap="round" stroke-linejoin="round" stroke-miterlimit="10" stroke-width=".5" d="M343.82422 483.83984l-.19531-7.02343"/></g><g clip-path="url(#F)"><path fill="none" stroke="#000" stroke-linecap="round" stroke-linejoin="round" stroke-miterlimit="10" stroke-width=".5" d="M354.14844 482.32422l5.78515-3.99219"/></g><g clip-path="url(#G)"><path fill="none" stroke="#000" stroke-linecap="round" stroke-linejoin="round" stroke-miterlimit="10" stroke-width=".5" d="M354.99219 481.7461l-1.08985-.56641"/></g><g clip-path="url(#H)"><path fill="none" stroke="#000" stroke-linecap="round" stroke-linejoin="round" stroke-miterlimit="10" stroke-width=".5" d="M366.89063 479.7539l6.93359 1.14844"/></g><g clip-path="url(#I)"><path fill="none" stroke="#000" stroke-linecap="round" stroke-linejoin="round" stroke-miterlimit="10" stroke-width=".5" d="M367.89844 479.92188l-.39063-1.16407"/></g><g clip-path="url(#J)"><path fill="none" stroke="#000" stroke-linecap="round" stroke-linejoin="round" stroke-miterlimit="10" stroke-width=".5" d="M380.25 479.52344l6.83984 1.61328"/></g><g clip-path="url(#K)"><path fill="none" stroke="#000" stroke-linecap="round" stroke-linejoin="round" stroke-miterlimit="10" stroke-width=".5" d="M381.2461 479.75781l-.3125-1.1875"/></g><g clip-path="url(#L)"><path fill="none" stroke="#000" stroke-linecap="round" stroke-linejoin="round" stroke-miterlimit="10" stroke-width=".5" d="M393.71484 479.04297l6.54297 2.57031"/></g><path fill="none" stroke="#000" stroke-linecap="round" stroke-linejoin="round" stroke-miterlimit="10" stroke-width=".5" d="M394.66797 479.41797l-.14063-1.21875"/><g clip-path="url(#M)"><path fill="none" stroke="#000" stroke-linecap="round" stroke-linejoin="round" stroke-miterlimit="10" stroke-width=".5" d="M406.8711 479.57031l6.85937 1.51563"/></g><path fill="none" stroke="#000" stroke-linecap="round" stroke-linejoin="round" stroke-miterlimit="10" stroke-width=".5" d="M406.8711 479.57031l-.65626-2.36328"/><g clip-path="url(#N)"><path fill="none" stroke="#000" stroke-linecap="round" stroke-linejoin="round" stroke-miterlimit="10" stroke-width=".5" d="M407.86719 479.79297l-.32813-1.1836"/></g><g clip-path="url(#O)"><path fill="none" stroke="#000" stroke-linecap="round" stroke-linejoin="round" stroke-miterlimit="10" stroke-width=".5" d="M420.10938 480.53125l7.01562-.40625"/></g><g clip-path="url(#P)"><path fill="none" stroke="#000" stroke-linecap="round" stroke-linejoin="round" stroke-miterlimit="10" stroke-width=".5" d="M420.10938 480.53125l-1.27735-2.09766"/></g><g clip-path="url(#Q)"><path fill="none" stroke="#000" stroke-linecap="round" stroke-linejoin="round" stroke-miterlimit="10" stroke-width=".5" d="M434.8164 477.52344l4.23048 5.60937"/></g><path fill="none" stroke="#000" stroke-linecap="round" stroke-linejoin="round" stroke-miterlimit="10" stroke-width=".5" d="M435.4336 478.33984l.51562-1.11328"/><g clip-path="url(#R)"><path fill="none" stroke="#000" stroke-linecap="round" stroke-linejoin="round" stroke-miterlimit="10" stroke-width=".5" d="M447.3711 478.3086l5.75 4.03906"/></g><path fill="none" stroke="#000" stroke-linecap="round" stroke-linejoin="round" stroke-miterlimit="10" stroke-width=".5" d="M447.3711 478.3086l.30468-2.4336"/><g clip-path="url(#S)"><path fill="none" stroke="#000" stroke-linecap="round" stroke-linejoin="round" stroke-miterlimit="10" stroke-width=".5" d="M461.41016 477.55078l4.30468 5.55469"/></g><path fill="none" stroke="#000" stroke-linecap="round" stroke-linejoin="round" stroke-miterlimit="10" stroke-width=".5" d="M461.41016 477.55078l1.0078-2.23828"/><g clip-path="url(#T)"><path fill="none" stroke="#000" stroke-linecap="round" stroke-linejoin="round" stroke-miterlimit="10" stroke-width=".5" d="M147.49219 466.64063l-6.98438.74609"/></g><path fill="none" stroke="#000" stroke-linecap="round" stroke-linejoin="round" stroke-miterlimit="10" stroke-width=".5" d="M146.47656 466.75l.6875 1.01563m13.53906-1.6836l-6.77734 1.86328m5.79297-1.59375l.83984.89453m13.02344-2.14062l-5.90234 3.8164m5.04297-3.26171l1.0703.59765M186.82423 465l-5.75781 4.02734m4.92187-3.4414l1.08984.5586m13.40235-.53126l-6.4414 2.80078m5.5039-2.39453l.96094.76172m13.35937-1.00781l-6.57422 2.48047m5.61719-2.1211l.92188.8125m13.2539-1.39843l-6.38281 2.93359m5.45312-2.50781l.97657.74218m13.28906-1.125l-6.42578 2.84766m5.49219-2.4336l.96484.75782m13.27734-1.1875l-6.41015 2.8789m5.47656-2.46093l.96875.7539m12.89062-1.83203l-5.6328 4.19922m5.6328-4.19922l2.21875 1.04688m11.11328-1.02735l-5.66406 4.16016m4.83985-3.55469l1.10547.53125m13.13671-.98437l-5.87109 3.85547m5.01563-3.29688l1.07812.58985m13.05078-1.21094l-5.78906 3.98047m4.94531-3.40235l1.08985.5664m12.89453-1.375l-5.44141 4.44142m4.65234-3.79688l1.12891.47656m12.30078-1.75781l-4.09375 5.71484m3.5-4.8828l1.21485.16405m12.40234-1.18359l-3.50781 6.08984m2.99609-5.20312l1.22656.04297m8.58985-.57813l4.51562 5.38672m9.92578-6.01953l2.25781 6.65234m-1.92968-5.68359l.84375-.89453m10.10937 4.78125l6.32422-3.0586m-5.40234 2.61329l-.99219-.72266m13.21094-1.46484l6.67578 2.20703m-5.70313-1.88672l-.20703-1.20703m12.9414.07422l5.89063 3.83203m-5.89062-3.83203l.21484-2.44141m15.48438.89063l1.1211 6.93359m-.95704-5.92578l.97656-.74219m12.21094-.27344l1.05078 6.94922m-1.05078-6.94922l1.96875-1.46093m10.69922 1.625l2.34375 6.625m-2.34375-6.625l1.66015-1.8086m11.26954 1.96875l3.11328 6.30078m-3.11328-6.30078l1.43359-1.99219"/><g clip-path="url(#U)"><path fill="none" stroke="#000" stroke-linecap="round" stroke-linejoin="round" stroke-miterlimit="10" stroke-width=".5" d="M147.39063 454.61719l-6.78125-1.83594"/></g><path fill="none" stroke="#000" stroke-linecap="round" stroke-linejoin="round" stroke-miterlimit="10" stroke-width=".5" d="M146.40625 454.34766l.26953 1.19922m14.0625-2.63672l-6.84766 1.57812m5.85157-1.34765l.80469.92578m10.0625-3.88282l.04296 7.02735m10.72266-5.90625l5.14063 4.78906m11.76562-2.39453l-.01953-.19922-.0586-.1914-.09375-.1797-.45703-.375-.1914-.05859-.19922-.01953-.19922.01953-.19531.0586-.45703.375-.09375.17968-.0586.19141-.01953.19922.01953.19922.0586.1914.09375.17578.45703.37891.19531.0586.19922.01953.19922-.01953.1914-.0586.45703-.3789.09375-.17579.0586-.1914.01953-.19922m15.44531-1.5586l-6.30078 3.11329m5.38281-2.66016l.9961.71875m12.8711-1.7539l-5.57032 4.28124m4.76172-3.66015l1.11719.50781m13.28125-.71875l-6.1172 3.46094m5.22657-2.95703l1.03516.66015m12.90234-1.57031l-5.58203 4.26953M252.5 452.1836l1.11328.51172m13.39063-.51953l-6.33594 3.04688m5.41406-2.60157l.98828.72657m12.91016-1.73047l-5.66016 4.16015m4.83594-3.55468l1.10938.53125m12.9453-1.25l-5.48827 4.38671m5.48828-4.38671l2.25.97265m11.35547-.54687l-6.07032 3.53906m5.1875-3.02344l1.04297.64453m13.28125-.92578l-6.32422 3.0664m5.40235-2.62108l.99219.72656m13.05078-1.51953l-5.9336 3.76562m5.07032-3.21875l1.0664.60547m12.73438-1.64453l-5.1797 4.7461m4.42579-4.0547l1.15625.41016m12.27734-1.64844l-3.91015 5.83985m3.91015-5.83985l2.44141.25m7.5625-.5703l2.71484 6.48046m-2.3203-5.53516l.77734-.95312m15.89843.6836l-4.79687 5.1328m4.09765-4.38671l1.1875.3164m8.75-1.58203l3.35547 6.17188m-2.86718-5.27344l.67578-1.02344m17.34375 3.16016l-7.02735.10156m6.0039-.08984l.58985 1.07812m12.6289-3.60937l-4.78905 5.14062m4.08984-4.39453l1.1875.3164m7.88281-.91406l5.09766 4.83985m11.7461-5.79297l-1.96094 6.75m1.96093-6.75l2.40235-.5039m10.5.41015l-1.13282 6.9375m1.13282-6.9375l2.32422-.78516"/><g clip-path="url(#V)"><path fill="none" stroke="#000" stroke-linecap="round" stroke-linejoin="round" stroke-miterlimit="10" stroke-width=".5" d="M147.33984 439.28906l-6.67968 2.1914"/></g><path fill="none" stroke="#000" stroke-linecap="round" stroke-linejoin="round" stroke-miterlimit="10" stroke-width=".5" d="M146.36719 439.60547l.88672.85156m13.57422-.1211l-7.02735.09766m7.02734-.09765l1.1836 2.14843m12.09766-2.58593l-6.96094.96875m5.94922-.82813l.71875.9961m12.4453 1.98828l-4.6328-5.28125m12.1875 1.94922l6.88672 1.38671m11.59765 2.3672l-3.44922-6.1211m16.0625 3.0586l-.01953-.19923-.0586-.1914-.09374-.17578-.46094-.37891-.1914-.0586-.19923-.01953-.19921.01954-.19141.05859-.46094.3789-.09375.17579-.0586.1914-.01952.19922.01953.19922.0586.1914.09374.1797.46094.375.1914.05859.19923.01953.19921-.01953.19141-.0586.46094-.375.09375-.17968.0586-.1914.01952-.19923m12.21875-3.51172l.14453 7.02344m13.25391-7.02344l-.01953 7.02735m15.84375-5.96485l-5.03906 4.90235m4.30468-4.1914l1.16797.375m13.39063-.41407l-6.0586 3.55469m5.1797-3.03516l1.04296.64062m12.22656-2.1953l-4.21094 5.625m3.60157-4.8047l1.21094.1875m13.11718-.65625l-5.01562 4.92188m5.01562-4.92188l2.33985.73829m11.73046.42187l-6.52734 2.60547m6.52735-2.60547l1.87109 1.58203m11.39844-1.6914l-6.4375 2.8203m5.5-2.41015l.96484.76172m12.1289-2.60547l-4.12109 5.6914m3.52344-4.86327l1.21484.16797M357.75 436.9414l-1.41797 6.8828m1.21094-5.8789l1.17969-.34765m10.17187-.41016l2.92188 6.39062m-2.92188-6.39062l1.49219-1.94922m10.39453 7.14063l5.78125-3.9922m-4.9414 3.41016l-1.08985-.5625m19.95313-.5078l-6.9961-.6875m5.97656.58984l.46875 1.1328m12.03125-4.47265l-3.32812 6.1875m18.17969-4.54687l-6.39844 2.90625m5.46484-2.48047l.97266.7461m12.26953-2.46095l-4.38672 5.48829m4.38672-5.48829l2.41406.45313m-3.05078.34375l1.20703.22656m12.46094-1.23047l-3.8164 5.89844m3.8164-5.89844l2.4414.21094m11.23829.0625l-4.55078 5.35156"/><g clip-path="url(#W)"><path fill="none" stroke="#000" stroke-linecap="round" stroke-linejoin="round" stroke-miterlimit="10" stroke-width=".5" d="M465.83594 437.70703l2.39844.52735"/></g><g clip-path="url(#X)"><path fill="none" stroke="#000" stroke-linecap="round" stroke-linejoin="round" stroke-miterlimit="10" stroke-width=".5" d="M146.34375 424.45313l-4.6875 5.23046"/></g><path fill="none" stroke="#000" stroke-linecap="round" stroke-linejoin="round" stroke-miterlimit="10" stroke-width=".5" d="M146.34375 424.45313l2.38281.58593m11.65625.32031l-6.13672 3.41797m5.2461-2.92187l1.03125.66797m13.38672 1.8086l-6.5586-2.52735m5.60156 2.16015l.14844 1.21875m13.90235-.38672l-6.1172-3.45703m5.22657 2.95313l-.03125 1.22656m13.95313-.29687l-5.55078-4.3086m4.74218 3.6836l-.20703 1.20703m15.01953-3.32422l-6.92969 1.17578m5.92188-1.0039l.75.97265m10.0586-4.07031l.10156 7.02734m-.08594-6.0039l1.07422-.59375m15.78515 3.21875l-7.01953-.26954m20.32422-.17968l-7 .6289m19.38672-2.70703l-5.14453 4.78516m18.85156-4.28125l-5.92578 3.77734m5.0625-3.22656l1.07031.60547m12.97656-1.34766l-5.66015 4.16016m4.83594-3.55469l1.10546.53125m11.80079 4.07422l-3.19532-6.26172m14.9297-.38281l-.03126 7.02734m.02344-6.0039l1.08594-.57032M332.12109 424l-3.42187 6.13672M332.12109 424l2.45313.04688m12.01172.98046l-5.71875 4.08203m5.71875-4.08203l2.19531 1.09375m11.73828 1.4336l-6.95703-.97266m5.94531.83203l.42188 1.15235m9.76953-4.94922l1.3164 6.90234m-1.125-5.89844l.95313-.76953m11.90234-.17187l1.85157 6.77734m-1.85157-6.77734l1.78516-1.6836m-1.51563 2.66797l.89063-.83984m16.57031 3.65625l-6.98047-.82422m5.96485.70703l.44531 1.14063m13.52344-3.03907l-6.2539 3.20704m5.34374-2.73829l1.0039.69922m12.16407-2.40234l-4.14063 5.67578m4.14063-5.67578l2.42969.34375m11.05468-.21094l-4.48046 5.41016m4.48046-5.41016l2.40625.4961m9.72657-1.14063l-2.11719 6.69922m2.11719-6.69922l2.41406-.44531m-2.72266 1.41797l1.20703-.21875m12.23047-.8086l-1.74609 6.8086m1.7461-6.8086l2.38671-.57422"/><g clip-path="url(#Y)"><path fill="none" stroke="#000" stroke-linecap="round" stroke-linejoin="round" stroke-miterlimit="10" stroke-width=".5" d="M146.84375 411.6914l-5.6875 4.125"/></g><path fill="none" stroke="#000" stroke-linecap="round" stroke-linejoin="round" stroke-miterlimit="10" stroke-width=".5" d="M146.84375 411.6914l2.20703 1.07813m-3.03516-.47656l1.10157.53516m13.15234-.97657l-5.91016 3.80469m5.91016-3.80469l2.14063 1.19922m11.71093.30469l-6.98047.79687m5.96485-.68359l.69531 1.01172m10.71484 2.73828l-1.14062-6.9336m.97656 5.92579l-.97656.7461m16.9414-1.46876l-6.11327-3.46875m5.22265 2.96485l-.03125 1.22656m10.8086 1.03515l.74609-6.98437m12.98828 7.0039l-.09375-7.02343m12.71875 6.96484l1.28516-6.90625m-1.09766 5.90235l-1.17188.36718m16.9336.07813l-3.98438-5.78906m3.40625 4.9453l-.5664 1.08985m14.96875-.67578l-5.0039-4.9336m4.27734 4.21876l-.35157 1.17578m15.03125-1.34375l-6.27344-3.16406m19.71094.27343l-6.51953 2.61719m5.57031-2.23828l.9375.78906m11.72266 3.23828l-3.3125-6.19922m17.89063 5.0547l-5.83985-3.90626m4.99219 3.33594l-.125 1.22266m14.01953-.30079l-5.30469-4.60937m19.3164 3.36719l-6.69921-2.125m20.16797 1.32812l-7.0039-.53125m5.98437.45313l.4961 1.125m13.71093-2.29297l-6.75 1.95703m5.76953-1.67188l.85547.87891m12.0625-3.07422l-3.9961 5.78125m3.9961-5.78125l2.4375.28516m9.83984-.77344l-1.91797 6.75781m1.91797-6.75781l2.39844-.51953m-2.67578 1.5l1.19922-.25781m13.34375-.29297l-3.82031 5.89844m3.8203-5.89844l2.44532.21094m10.64063-.34766l-3.36329 6.17187m3.36329-6.17187l2.45312.02734m11.73828.64844l-5.11328 4.82031m5.11328-4.82031l2.32422.78516m10.41016-1.28125l-3.95313 5.80859m3.95313-5.8086l2.4414.26954m-3.01562.57812l1.21875.13282m11.10937-1.5625l-.82812 6.97656m.82812-6.97656l2.28516-.89063m-2.40625 1.90625L465 410.83594"/><g clip-path="url(#Z)"><path fill="none" stroke="#000" stroke-linecap="round" stroke-linejoin="round" stroke-miterlimit="10" stroke-width=".5" d="M146.80078 398.32031l-5.60156 4.23828"/></g><path fill="none" stroke="#000" stroke-linecap="round" stroke-linejoin="round" stroke-miterlimit="10" stroke-width=".5" d="M146.80078 398.32031l2.22656 1.03125m-3.03906-.41406l2.22266 1.03125m11.89453-1.66406l-5.58203 4.26953m5.58203-4.26953l2.23047 1.01953m-3.04297-.39844l1.11719.51172m13.18359-.88672l-5.92578 3.77344m5.92578-3.77344l2.13672 1.21094m-3-.66016l1.07031.60156m13.46875-.40625l-6.64844 2.28125m5.6797-1.94921l.89843.83593m13.1914 1.57032l-6.2578-3.19532m5.34765 2.73047l.01953 1.22656m8.08203-.51953l5.98828-3.67578m-5.11719 3.14063l-1.05859-.6211m14.23828-3.375l4.51563 5.38672m14.53125-3.21484l-6.94922 1.04297m18.125 2.72656l-2.67188-6.5m2.28516 5.55469l-.78516.94531m15.76563-.89844l-5.22656-4.69922m19.42968 2.65625l-7-.61718m5.98047.52734l.47656 1.1289m13.78907-2.10156l-6.86328 1.50782m5.86328-1.28907l.79687.9336m13.3164-1.78125l-6.46093 2.76953m5.51953-2.36719l.95703.76953M320.5 401.3047l-6.8086-1.73047m5.82032 1.47656l.28906 1.1914m14.1211-1.92187l-7.02344.23438m6.0039-.19922l.60938 1.0625m12.44531 1.73437l-4.46094-5.42968m3.8086 4.64062l-.46875 1.13281m12.61718.4297l-.82421-6.97657m.70312 5.96484l-1.00781.69531m16.60937-.78515l-5.15625-4.77344m4.40625 4.08203l-.3125 1.1836m15.02735-4.26954l-6.45313 2.78125m5.51172-2.375l.96094.76563m12.83594-1.94531l-5.53516 4.33203m4.73047-3.70313l1.1211.4961m13.21874-.8125l-5.97265 3.70312m5.97265-3.70312l2.1211 1.23437m10.41406-2.11719l-4.41406 5.46875m4.41406-5.46875l2.41015.46875m10.37891-.8203l-3.36328 6.17187m3.36328-6.17188l2.45313.02735m11.64843.55859l-4.9375 5m4.9375-5l2.35157.70313m10.44921-1.1211l-3.90625 5.83985"/><g clip-path="url(#aa)"><path fill="none" stroke="#000" stroke-linecap="round" stroke-linejoin="round" stroke-miterlimit="10" stroke-width=".5" d="M465.51563 397.51953l2.4414.2461"/></g><g clip-path="url(#ab)"><path fill="none" stroke="#000" stroke-linecap="round" stroke-linejoin="round" stroke-miterlimit="10" stroke-width=".5" d="M146.25781 384.42969l-4.51562 5.38672"/></g><path fill="none" stroke="#000" stroke-linecap="round" stroke-linejoin="round" stroke-miterlimit="10" stroke-width=".5" d="M146.25781 384.42969l2.39844.50781m-3.0586.27734l1.20313.25391m12.8164-1l-4.60155 5.3086m4.60156-5.3086l2.39062.54688m11.15625-.32422l-5.07031 4.86328m5.07031-4.86328l2.33203.76562m10.26172-1.34375l-3.625 6.01953m3.625-6.01953l2.44922.13281m9.44922 6.3672l-.79297-6.98048M213.97656 388l-6.80469-1.7539m5.81641 1.5l.28516 1.1914m13.90234-.5664l-6.57031-2.4961m20.10156 1.55469l-7-.61328m5.98047.52343l.48047 1.12891m13.83984-1.76172l-6.97656.83203m5.96484-.71094l.69922 1.00782m13.55469.11328l-6.82813-1.64844m5.83594 1.40625l.30469 1.1875m13.7539-.25l-6.33202-3.04297m5.41015 2.60156l.05078 1.22657m14.52344-2.02344l-7.0039-.5664m5.98437.48437l.48828 1.125m13.71875-2.30078l-6.75 1.94922m5.76953-1.66407l.85156.87891m13.07813-2l-6.01953 3.6211m5.14453-3.09376l1.05078.63282m13.17969-1.09766l-6.09766 3.4961m5.21094-2.98438l1.03516.65234m13.61328.9375l-6.9922-.70312m17.29688 3.82812l-.97265-6.95703m.83203 5.94531l-.99219.72266m17.30469-4.26953l-6.6875 2.16015m5.71484-1.84375l.88282.85157m12.625-2.49219l-5.125 4.8086m5.125-4.8086l2.3203.78906m10.8086-.97265l-4.7539 5.17578m4.7539-5.17578l2.375.61718m10.44531-.99609l-3.76562 5.9336m3.76562-5.9336l2.44922.1914m10.16797-.53124l-2.3711 6.61328m2.3711-6.61328l2.42969-.35547m11.125.44922l-2.84766 6.42578m2.84766-6.42578l2.44922-.17579m10.74219.125l-2.60157 6.52735m2.60157-6.52735l2.4375-.26953m10.9375.29297l-2.71875 6.48047m2.71875-6.48047l2.4414-.22265"/><g clip-path="url(#ac)"><path fill="none" stroke="#000" stroke-linecap="round" stroke-linejoin="round" stroke-miterlimit="10" stroke-width=".5" d="M143.71875 370.30469l.5625 7.00781"/></g><g clip-path="url(#ad)"><path fill="none" stroke="#000" stroke-linecap="round" stroke-linejoin="round" stroke-miterlimit="10" stroke-width=".5" d="M143.71875 370.30469l2.07031-1.32031"/></g><path fill="none" stroke="#000" stroke-linecap="round" stroke-linejoin="round" stroke-miterlimit="10" stroke-width=".5" d="M157.91797 370.34766l-1.20313 6.92187m1.20313-6.92187l2.33203-.76563m12.07813 1.15235l-3.39844 6.14843m3.39844-6.14844l2.45312.03907m9.74219-.42969l-1.15625 6.92969m.98828-5.92188l1.16406-.39062m12.28516-.625l-1.08985 6.9414m.9336-5.92968l1.16015-.40235m12.15235-.6289l-.76953 6.98437m.65625-5.96875l1.14062-.45312m13.32031-.28516l-2.83593 6.42969m2.42578-5.49219l1.22265-.08984m14.33985 1.04296l-6.51172 2.64844m5.5625-2.26172l.9414.78516m13.5625.51563l-6.98828-.72657m20.32032.36328h-7.02735m20.0664 1.3672l-6.47265-2.73438m19.3164-.8047l-5.52733 4.33985m17.66796-5.30078l-3.17968 6.26563m18.375-3.6836l-6.94141 1.10156m17.8086-.55078l-.01954-.19921-.0586-.19141-.09374-.17578-.46094-.3789-.1914-.0586-.19922-.01953-.19922.01953-.1914.0586-.45704.3789-.09766.17578-.05859.1914-.01953.19922.01953.19922.0586.1914.09765.17579.45703.3789.1914.0586.19923.01953.19922-.01953.1914-.0586.46094-.3789.09375-.17578.0586-.1914.01952-.19923m13.63672-3.24609l-2.6914 6.49219m17.4414-5.39453l-5.5586 4.29687m4.75-3.67187l1.1172.5039m13.53515-.16797l-6.61718 2.3711m5.65625-2.02344l.90625.82422m12.05078-2.88281l-3.97657 5.79687m3.39454-4.95312l1.22265.13671m12.0586-1.3164l-2.7461 6.46875m2.34766-5.52735l1.22265-.10546m12.97266-.58594l-3.70703 5.96875m3.16797-5.10156l1.22265.08203m12.78516-.84766l-4.01953 5.76563m3.4375-4.92579l1.21484.14844m12.09766-1.3164l-2.84766 6.42187m2.84766-6.42187l2.44531-.17579m10.8164.15235l-2.74218 6.46875m2.74219-6.46875l2.44531-.21875m10-.02344l-1 6.95313m1-6.95313l2.3086-.83203"/><g clip-path="url(#ae)"><path fill="none" stroke="#000" stroke-linecap="round" stroke-linejoin="round" stroke-miterlimit="10" stroke-width=".5" d="M141.45703 358.07031l5.08594 4.84766"/></g><path fill="none" stroke="#000" stroke-linecap="round" stroke-linejoin="round" stroke-miterlimit="10" stroke-width=".5" d="M154.5625 358.3086l5.5039 4.36718m-5.5039-4.36719l.4414-2.41015m14.97266 1.14453l1.3086 6.90234m-1.1211-5.89844l.95703-.76953m10.8711.29297l3.90625 5.84375m-3.33594-4.99219l.57813-1.08203m12.28125.16016l3.67578 5.98828m-3.14063-5.11719l.6211-1.05859m11.85156.39844l4.28906 5.5664m-3.66406-4.7578l.50781-1.1172m12.10156.3711l4.45313 5.4375m11.13672-6.23047l-.09766 7.02734m.08203-6.0039l1.09375-.5625m14.40234.32421l-4.42968 5.45313m3.78515-4.66016l1.20703.23829m10.54688-1.81641l-.01563 7.02734m12.6875-6.96875l1.26954 6.91016M290.83594 357l-.74219 6.98828m.63672-5.97265l1.13672-.45704m13.83594-.0039l-3.84375 5.8789m14.9375-6.4414l.59765 7m14.36328-.2539L329.0625 357.25m11.53516 1.64453l6.2578 3.19531m11.20704-1.59765l-.01953-.19922-.0586-.1914-.09374-.17579-.45704-.3789-.1914-.0547-.19922-.01952-.20313.01953-.1914.05469-.45703.3789-.09375.17578-.0586.1914-.01953.19923.01953.19922.0586.1914.09375.17969.45703.375.1914.0586.20313.01952.19922-.01953.1914-.05859.45704-.375.09375-.17969.05859-.1914.01953-.19922m15.1211-2.08594l-5.65235 4.17578m19.09375-3.98828l-5.91016 3.80078m5.05079-3.25l1.0703.60156m12.60938-1.76171L394.52344 363m4.20703-4.28516l1.17578.34766m12.77734-1.15234l-4.76562 5.16406m4.07422-4.41016l1.1875.3086m12.55469-1.28516L421.5 363.29688m3.61719-4.79297l1.21094.1953m12.3789-1.23827l-3.55078 6.0625m3.03516-5.17969l1.22656.05078m11.92969-1.23828l-2.20313 6.67188m2.20313-6.67188l2.42187-.41406m11.48828.67187l-3.39062 6.15625m3.39062-6.15625l2.45313.03906"/><g clip-path="url(#af)"><path fill="none" stroke="#000" stroke-linecap="round" stroke-linejoin="round" stroke-miterlimit="10" stroke-width=".5" d="M140.85547 345.60547l6.28906 3.14453"/></g><path fill="none" stroke="#000" stroke-linecap="round" stroke-linejoin="round" stroke-miterlimit="10" stroke-width=".5" d="M153.94922 346.16797l6.73047 2.01953m-6.73047-2.01953l-.48047-2.40625m1.46094 2.69922l-.23828-1.20313m12.75 3.39453l6.3789-2.94921m-6.3789 2.94921l-1.95703-1.48046m15.05078-.84375l6.8203 1.69921m-5.82812-1.45312l-.29687-1.1914m12.57422 1.16796l6.91406 1.2539m-5.91016-1.0703l-.37109-1.16797m12.67578 1.0039l6.92188 1.21875m-5.91407-1.04297l-.3789-1.16796m13.05469-.06641l6.1875 3.33594m9.79687-5.15625l.85156 6.97265m15.13281-6.1875l-4.49218 5.40235m17.3711-5.71485l-3.6172 6.02735m15.6172-6.4922l-.98829 6.95704m.84375-5.94531l1.15234-.41797m13.38282-.25781l-3.14063 6.28515m2.6836-5.3711l1.22656-.03124m13.10547-.53516l-4.26172 5.58985m3.64453-4.77344l1.21094.19922m13.37109-.3711l-5.5586 4.30079m17.1172-2.14844l-.01954-.19922-.0586-.19531-.09374-.17579-.46094-.375-.1914-.05859-.19922-.01953-.19922.01953-.1914.0586-.45704.375-.09766.17578-.05859.1953-.01953.19923.01953.19922.0586.1914.09765.17578.45703.375.1914.0586.19923.01953.19921-.01953.19141-.0586.46094-.375.09375-.17578.0586-.1914.01952-.19922m8.79297-.3125l7 .6211m13.16406.75l-6.69921-2.1211m5.72656 1.8125l.21875 1.20703m14.23047-1.8164l-7.02344-.28126m6 .23828l.53516 1.10547m13.80078-1.42578l-7.01563.4414m5.99219-.375l.64453 1.04298m13.0625-2.90625l-5.7539 4.03515m4.91796-3.44531l1.09375.55469m12.0625-2.09375l-3.76562 5.9336m3.21875-5.07032l1.22265.09765m12.00391-1.27734l-2.49219 6.57031m2.12891-5.61718l1.21484-.15235m11.625-1.00781l-.8164 6.98047m.69922-5.96485l1.14062-.4453m11.54297-.57813l.67969 6.9961m-.58203-5.97657l1.02343-.67969m14.89453.55469l-4.71875 5.20703m4.03125-4.44922l1.19141.30078"/><g clip-path="url(#ag)"><path fill="none" stroke="#000" stroke-linecap="round" stroke-linejoin="round" stroke-miterlimit="10" stroke-width=".5" d="M141.59766 331.30078l4.80468 5.125"/></g><path fill="none" stroke="#000" stroke-linecap="round" stroke-linejoin="round" stroke-miterlimit="10" stroke-width=".5" d="M154.00781 332.67969l6.61328 2.36719m-6.61328-2.3672l-.35547-2.42968m14.38672 5.98438l5.1836-4.7422m-4.4297 4.05079l-1.15624-.41016m13.17578-2.86328l6.26563 3.1875m-5.35157-2.72265l-.02344-1.22657m12.0547 2.6289l7.0039-.54687m-5.98438.46485l-.66015-1.03516m13.2539 2.28516l6.41016-2.88281m12.08203-1.46485l-3.94531 5.8125m18.23437-4.8164l-5.89453 3.8203m5.03906-3.26562l1.07032.59766m12.36719-1.96875l-4.4297 5.45312M264.85548 330.5l-2.04297 6.72656m15.08594-6.79687l-1.4961 6.86719m1.27735-5.8672l1.17968-.33202m11.85157-.73829l-.49219 7.00782m16.54687-5.35547l-5.97265 3.70312m19.5625-3.16406l-6.51953 2.625m5.57031-2.24219l.9375.78907m12.96094-1.85157l-5.78516 3.98438m4.9414-3.40625l1.08985.5664m12.875 3.09766l-5.39844-4.5m14.39063 5.36719l3.2461-6.23438m-2.77345 5.32813l-1.22656.00781m16.48438 1.20313l-1.58203-6.84375m1.35156 5.84765l-.92578.80469m16.75-4.9336l-6.14453 3.40626m6.14453-3.40625l2.0586 1.33593m11.36718-1.12109l-6.36328 2.97656m5.4375-2.54297l.98047.73438m12.80859-1.89063l-5.46094 4.42188m4.66797-3.77735l1.1289.47657m10.3711-2.42188l-.2461 7.02344m.21094-6l1.10157-.53906m15.16015 1.2539l-6.0664 3.54297m18.84375-4.24219l-4.99219 4.94532m4.26562-4.22656l1.17188.36328m12.46875-1.4297l-4.1875 5.64063m3.57812-4.8203l1.21094.18358"/><g clip-path="url(#ah)"><path fill="none" stroke="#000" stroke-linecap="round" stroke-linejoin="round" stroke-miterlimit="10" stroke-width=".5" d="M143.20313 317.125l1.59375 6.84375"/></g><g clip-path="url(#ai)"><path fill="none" stroke="#000" stroke-linecap="round" stroke-linejoin="round" stroke-miterlimit="10" stroke-width=".5" d="M143.20313 317.125l1.85156-1.61328"/></g><path fill="none" stroke="#000" stroke-linecap="round" stroke-linejoin="round" stroke-miterlimit="10" stroke-width=".5" d="M154.8164 318.07813l5 4.9375m-4.27343-4.21875l.35156-1.17579m11.72656 1.11329l6.01953 3.625m7.95313-4.42188l4.70313 5.22266m8.08203-.60157l5.76172-4.02343m10.05859 5.5078l.75-6.98827m-.64063 5.96875l-1.13672.45703m17.42579-.6914l-5.41407-4.48048m18.28125-.45312l-4.51562 5.38672m14.8086-6.125l1.52734 6.85937m9.71875-5.50781l5.66406 4.15625m7.70312-4.22266l5.5625 4.29297m-4.7539-3.66797l.20312-1.21093m13.51172 5.875l3.14063-6.28516m9.14453 5.5039l5.20312-4.72265m-4.44531 4.03516l-1.15625-.41407m18.41797 1.5547l-4.20703-5.63282m18.6211 1.36719l-6.40235 2.89843m5.46875-2.47656l.97265.75m13.28907-1.13672l-6.4297 2.83203m5.4961-2.42187l.96094.76172m11.69922 3.35937l-3.2539-6.23047m2.78124 5.32422l-.69531 1.01172m9.46484-2.30078l6.78125-1.84375m13.07813-.6289l-6.30469 3.10156m5.38672-2.64844l.9961.71875m13.16015-1.3164l-6.15234 3.39452m6.15234-3.39453l2.05469 1.33985m11.03515-1.69532l-5.70312 4.10157m4.875-3.50391l1.10156.54297m11.1875-2.45703l-1.99219 6.73828m1.70313-5.75781l1.19922-.2461m13.39062 5.53516l-3.96484-5.80078m3.96484 5.80078l-1.13672 2.17187m15.96875-4.77343l-7-.59766m7 .59766l.96485 2.2539m-1.98047-2.34375l.48047 1.1289m13.26172-3.30858l-5.82032 3.9375"/><g clip-path="url(#aj)"><path fill="none" stroke="#000" stroke-linecap="round" stroke-linejoin="round" stroke-miterlimit="10" stroke-width=".5" d="M466.47266 318.57813l2.16796 1.14843"/></g><path fill="none" stroke="#000" stroke-linecap="round" stroke-linejoin="round" stroke-miterlimit="10" stroke-width=".5" d="M465.625 319.15234l1.08594.57422"/><path fill="#00f" fill-rule="evenodd" d="M383.80078 472.08594h8.61719V461.9414h-8.61719v10.14453"/><path fill="azure" fill-rule="evenodd" d="M385.63281 463.77344h.83203v2.82422h3.28907v-2.82422h.83203v6.48047h-.83203v-2.91797h-3.28907v2.91797h-.83203v-6.48047"/><path fill="#ff3030" fill-rule="evenodd" d="M295.72656 414.38672h7.69531v-10.14453h-7.6953v10.14453"/><path fill="azure" fill-rule="evenodd" d="M297.5586 406.07422h.83593v5.74219h3.1914v.73828h-4.02734v-6.48047"/><path fill="#ff3030" fill-rule="evenodd" d="M384.4961 414.38672h7.6914v-10.14453h-7.6914v10.14453"/><path fill="azure" fill-rule="evenodd" d="M386.32813 406.07422h.83203v5.74219h3.1953v.73828h-4.02733v-6.48047"/><path fill="#00f" fill-rule="evenodd" d="M370.48438 401.07422h8.62109v-10.14844h-8.6211v10.14844"/><path fill="azure" fill-rule="evenodd" d="M372.3164 392.76172h.83594v2.82031h3.28516v-2.82031h.83203v6.47656h-.83203v-2.91406h-3.28516v2.91406h-.83593v-6.47656"/><path fill="#ff3030" fill-rule="evenodd" d="M189.20703 383.32031h7.6914v-10.14844h-7.6914v10.14844"/><path fill="azure" fill-rule="evenodd" d="M191.03906 375.00781h.83594v5.73828h3.1914v.7422h-4.02734v-6.48048"/><path fill="#ffffe0" fill-rule="evenodd" d="M346.1836 350.26172h22.17968v-10.1914H346.1836v10.1914"/><path fill-rule="evenodd" d="M349.6836 341.90234h.5078v6.29688h-.78906v-4.49219h-1.38671v-.55469l.55859-.0664.2539-.05078.23047-.08985.20313-.14062.17187-.21094.14063-.29688.10937-.39453m4.8125 0l.23047.01954.21875.05468.20703.08985.19532.12109.18359.14844.17188.17578.30078.42187.24609.4922.17969.54687.10937.57812.03906.59375-.03906.58985-.10937.58593-.17969.55469-.2461.5-.30077.42969-.17188.17969-.1836.15234-.1953.125-.20704.08984-.21875.0586-.23047.01953-.23046-.01953-.21875-.0586-.20704-.08984-.1953-.125-.1875-.15235-.16798-.17968-.30469-.42969-.24218-.5-.17969-.55469-.11328-.58594-.03516-.58984h.83203l.02735.5625.08203.5039.1289.44532.16016.3711.1914.30077.21094.22266.22266.13672.22656.04688.22657-.04688.22265-.13672.21094-.22265.1914-.30079.16016-.37109.125-.44531.08203-.5039.03125-.5625-.03125-.5625-.08203-.5-.125-.4375-.16015-.36329-.19141-.29297-.21094-.21484-.22265-.13281-.22657-.04297-.22656.04296-.22265.13282-.21094.21484-.1914.29297-.16017.36328-.1289.4375-.08203.5-.02735.5625h-.83203l.03516-.59375.11328-.57812.17969-.54688.24219-.49219.30468-.42187.16797-.17578.1875-.14844.19531-.1211.20704-.08984.21875-.05469.23046-.01953m5.08985 0h.51172v6.29688h-.78907v-4.49219h-1.38671v-.55469l.55859-.0664.2539-.05078.22657-.08985.20312-.14062.17578-.21094.14063-.29688.10547-.39453m2.82422 2.17579h.78515l.02344-.31641.0586-.28516.09765-.2539.14063-.21485.17968-.17578.22266-.1289.26562-.07813.3086-.02734.23828.01953.22265.0625.20704.10156.17578.14063.15234.17187.11328.20703.07031.23438.02344.26562-.01953.26953-.0664.22266-.10938.1914-.15625.17188-.19922.16406-.25.16406-.63281.39063-.53906.3125-.4375.3164-.34375.32423-.26563.33593-.1914.35156-.125.3711-.06641.39062-.02344.42188h4.21485v-.74219h-3.33204l.08204-.28515.11328-.23438.14843-.20313.1875-.17968.23047-.17188.27735-.17578.71875-.41797.41406-.20312.34765-.23047.28125-.2539.21875-.26563.16407-.27735.10937-.28515.0625-.28516.02344-.28125-.04297-.38281-.1211-.34766-.1875-.3086-.25-.26171-.30468-.21484-.34375-.15625-.38281-.09766-.40625-.03516-.4336.03516-.39843.09766-.35547.16406-.30469.23437-.2461.3047-.1875.375-.11718.4453-.03906.51954"/><path fill="#ffffe0" fill-rule="evenodd" d="M195.27734 332.91406h22.1797v-10.1914h-22.1797v10.1914"/><path fill-rule="evenodd" d="M198.77734 324.55469h.50782v6.29297H198.5v-4.48829h-1.39063v-.55468l.5625-.0664.25-.0547.23047-.08984.20313-.14063.17578-.21093.14063-.29297.10546-.39453m4.8125 0l.23047.01953.21875.05469.20703.08984.19922.1211.1836.14843.17187.17578.30078.41797.24219.4961.17969.54687.11328.57813.03906.58984-.03906.59375-.11328.58594-.17969.55078-.24219.5039-.30078.4297-.17187.17968-.1836.15234-.19922.1211-.20703.09375-.21875.05468-.23047.02344-.22656-.02344-.21875-.05468-.21094-.09375-.1953-.1211-.1836-.15234-.17188-.17969-.30078-.42969-.24219-.5039-.18359-.55078-.10938-.58594-.03906-.59375h.83203l.03125.5625.08203.50781.125.4414.16407.375.1875.30079.21094.22265.22265.13672.22656.04688.22657-.04688.22265-.13671.21094-.22266.1914-.30078.16407-.375.125-.4414.08203-.50782.02734-.5625-.02734-.5586-.08203-.5039-.125-.4336-.16406-.36718-.19141-.29297-.21094-.21094-.22265-.13281-.22657-.04297-.22656.04297-.22266.13281-.21093.21094-.1875.29297-.16406.36719-.125.43359-.08204.5039-.03125.5586h-.83203l.03906-.58985.10938-.57812.1836-.54688.24218-.49609.30078-.41797.17188-.17578.1836-.14844.1953-.12109.21094-.08984.21875-.0547.22656-.01952m5.09375 0h.50782v6.29297h-.78516v-4.48829h-1.39063v-.55468l.5625-.0664.25-.0547.23047-.08984.20313-.14063.17187-.21093.14453-.29297.10547-.39453m2.82422 2.17578h.78516l.01953-.3164.0586-.28907.10156-.25.13672-.21484.18359-.17579.22266-.1289.26562-.07813.3086-.02734.23827.01953.22266.0625.20313.10156.17968.13672.14844.17578.11328.20313.07031.23828.02735.26563-.02344.26562-.0664.22656-.10938.1914-.15234.17188-.20313.16016-.2461.16797-.6328.38672-.53907.3164-.4375.31641-.34765.32422-.26172.33594-.1914.35156-.125.36719-.07032.39453-.01953.41797h4.21094v-.73829h-3.33204l.08203-.28515.1172-.23828.14452-.19922.1875-.17969.23047-.17187.28125-.17579.71485-.41796.41797-.20313.34375-.23437.28125-.25.21875-.26563.16406-.27734.11328-.28516.0625-.28515.01953-.28125-.04297-.38282-.11719-.34765-.1914-.3086-.25-.26172-.30078-.21484-.34766-.15625-.3789-.10156-.40626-.03125-.4375.03125-.39843.09765-.35157.16797-.30468.23438-.25.30469-.1836.375-.11719.4453-.03906.51954"/></g></defs><use xlink:href="#ak"/></svg>