<svg xmlns="http://www.w3.org/2000/svg" role="img" xmlns:xlink="http://www.w3.org/1999/xlink" viewBox="142.45 309.95 326.84 171.84"><defs><clipPath id="a"><path d="M144 311.67188h1v168.65625h-1zm0 0"/></clipPath><clipPath id="b"><path d="M144 311.67188h324v168.65625H144zm0 0"/></clipPath><clipPath id="c"><path d="M467 311.67188h1v168.65625h-1zm0 0"/></clipPath><clipPath id="d"><path d="M144 480h4v.32813h-4zm0 0"/></clipPath><clipPath id="e"><path d="M147 480h2v.32813h-2zm0 0"/></clipPath><clipPath id="f"><path d="M153 479h9v1.32813h-9zm0 0"/></clipPath><clipPath id="g"><path d="M160 479h3v1.32813h-3zm0 0"/></clipPath><clipPath id="h"><path d="M166 480h9v.32813h-9zm0 0"/></clipPath><clipPath id="i"><path d="M172 480h2v.32813h-2zm0 0"/></clipPath><clipPath id="j"><path d="M180 480h8v.32813h-8zm0 0"/></clipPath><clipPath id="k"><path d="M187 480h2v.32813h-2zm0 0"/></clipPath><clipPath id="l"><path d="M193 479h9v1.32813h-9zm0 0"/></clipPath><clipPath id="m"><path d="M200 479h3v1.32813h-3zm0 0"/></clipPath><clipPath id="n"><path d="M206 479h9v1.32813h-9zm0 0"/></clipPath><clipPath id="o"><path d="M213 479h3v1.32813h-3zm0 0"/></clipPath><clipPath id="p"><path d="M220 479h8v1.32813h-8zm0 0"/></clipPath><clipPath id="q"><path d="M227 479h3v1.32813h-3zm0 0"/></clipPath><clipPath id="r"><path d="M233 479h8v1.32813h-8zm0 0"/></clipPath><clipPath id="s"><path d="M240 479h3v1.32813h-3zm0 0"/></clipPath><clipPath id="t"><path d="M246 479h9v1.32813h-9zm0 0"/></clipPath><clipPath id="u"><path d="M252 479h3v1.32813h-3zm0 0"/></clipPath><clipPath id="v"><path d="M260 479h8v1.32813h-8zm0 0"/></clipPath><clipPath id="w"><path d="M266 479h2v1.32813h-2zm0 0"/></clipPath><clipPath id="x"><path d="M273 479h8v1.32813h-8zm0 0"/></clipPath><clipPath id="y"><path d="M279 479h2v1.32813h-2zm0 0"/></clipPath><clipPath id="z"><path d="M286 479h9v1.32813h-9zm0 0"/></clipPath><clipPath id="A"><path d="M292 479h2v1.32813h-2zm0 0"/></clipPath><clipPath id="B"><path d="M300 478h8v2.32813h-8zm0 0"/></clipPath><clipPath id="C"><path d="M305 479h3v1.32813h-3zm0 0"/></clipPath><clipPath id="D"><path d="M313 478h8v2.32813h-8zm0 0"/></clipPath><clipPath id="E"><path d="M319 479h2v1.32813h-2zm0 0"/></clipPath><clipPath id="F"><path d="M327 477h7v3.32813h-7zm0 0"/></clipPath><clipPath id="G"><path d="M342 476h3v4.32813h-3zm0 0"/></clipPath><clipPath id="H"><path d="M354 477h6v3.32813h-6zm0 0"/></clipPath><clipPath id="I"><path d="M366 479h9v1.32813h-9zm0 0"/></clipPath><clipPath id="J"><path d="M366 479h3v1.32813h-3zm0 0"/></clipPath><clipPath id="K"><path d="M379 479h9v1.32813h-9zm0 0"/></clipPath><clipPath id="L"><path d="M378 478h3v2.32813h-3zm0 0"/></clipPath><clipPath id="M"><path d="M393 479h8v1.32813h-8zm0 0"/></clipPath><clipPath id="N"><path d="M391 479h3v1.32813h-3zm0 0"/></clipPath><clipPath id="O"><path d="M406 478h8v2.32813h-8zm0 0"/></clipPath><clipPath id="P"><path d="M404 480h4v.32813h-4zm0 0"/></clipPath><clipPath id="Q"><path d="M420 478h8v2.32813h-8zm0 0"/></clipPath><clipPath id="R"><path d="M418 479h3v1.32813h-3zm0 0"/></clipPath><clipPath id="S"><path d="M433 478h8v2.32813h-8zm0 0"/></clipPath><clipPath id="T"><path d="M433 480h3v.32813h-3zm0 0"/></clipPath><clipPath id="U"><path d="M446 479h8v1.32813h-8zm0 0"/></clipPath><clipPath id="V"><path d="M446 479h3v1.32813h-3zm0 0"/></clipPath><clipPath id="W"><path d="M461 477h5v3.32813h-5zm0 0"/></clipPath><clipPath id="X"><path d="M144 466h4v2h-4zm0 0"/></clipPath><clipPath id="Y"><path d="M144 453h4v2h-4zm0 0"/></clipPath><clipPath id="Z"><path d="M144 439h4v3h-4zm0 0"/></clipPath><clipPath id="aa"><path d="M144 425h4v4h-4zm0 0"/></clipPath><clipPath id="ab"><path d="M465 424h3v2h-3zm0 0"/></clipPath><clipPath id="ac"><path d="M144 411h4v5h-4zm0 0"/></clipPath><clipPath id="ad"><path d="M465 410h3v3h-3zm0 0"/></clipPath><clipPath id="ae"><path d="M144 397h3v6h-3zm0 0"/></clipPath><clipPath id="af"><path d="M465 397h3v2h-3zm0 0"/></clipPath><clipPath id="ag"><path d="M144 384h4v6h-4zm0 0"/></clipPath><clipPath id="ah"><path d="M465 384h3v2h-3zm0 0"/></clipPath><clipPath id="ai"><path d="M144 371h3v6h-3zm0 0"/></clipPath><clipPath id="aj"><path d="M144 356h1v9h-1zm0 0"/></clipPath><clipPath id="ak"><path d="M144 355h3v3h-3zm0 0"/></clipPath><clipPath id="al"><path d="M144 343h3v8h-3zm0 0"/></clipPath><clipPath id="am"><path d="M144 330h3v7h-3zm0 0"/></clipPath><clipPath id="an"><path d="M144 316h1v9h-1zm0 0"/></clipPath><g id="ao" clip-path="url(#clip1)"><path fill="#fff" fill-opacity="0" fill-rule="evenodd" d="M0 0h1000v1000H0zm0 0"/><path fill="#d3d3d3" fill-opacity="0" fill-rule="evenodd" d="M162.15234 355.86719l-.23437.29297.0586.23437.11718.17188.17578.23437.29297.34766.11328.0586.11719-.17188.0586-.23438.17577-.17578.46485-.17578h.69922l.23437.29297.28906.8164.0586.17579.17578.23046.35156.23438.69922.69922.17188.17578.23437.34765.23438.41016.28906.58203.41015.46485.23047.23437.23438.17578.11719.23047.17578.29297.17187 1.16406v.23438l.0586.28906.05859.11719.11719.11719.34765.41015.11719.17188.17578.17578.17578.23437.11719.17188.17188.35156.05859.23438.23437.40625.23438-.0586-.17578.17578-.0586.92969h-.58203l-.23437-.11328-.34766.11328-.11719.11719-.05859.29297-.0586.17578-.11718.17187-.46484.29297-.0586.23438-.0586.11328v.64453l.0586.17187v.41016l.0586.0586v.40624l.05859.40625.11719.17579.05859.05859.23047.64062-.0586.29297v.69922l-.05859.58203v.23438l-.0586.23047-.05468.35156v1.92187l.05469.1172h.42578l-.36719.11718-.02344.35156.89063 1.16797 1.74219.53906 1.33984.35938v.53906l.08984.8086.53516.71484 1.51953.26953.89063-.08594.08984 1.16406.53516.1797 1.16015-.1797 2.05469-.98437 1.16016-.36328 1.8789-.17578 1.69531-.1797-.17968.71876-1.51563.08594-1.25.08984-.80469.26953-1.07421.8086.26953.71875.53515.89843-.17968.625-.26563.8086.26563 1.07812.625.89844.80468.17969 1.25-.1797-.26562.72267.09766.5039.05468.29297v.17188l.0586.29296v.40625l.17578.1172.35156.11718h.40625l.29297-.17578.11328-.11719.0586-.11719.11718-.23047.0586-.17578.35156-.46484.23047-.17578.17578-.0586.17578.0586.0586.17578.11718.98828.05469.46875.0586.17188.11718.23437.17578.0586.8164.05859h.28907l.11719.23437.05859.40625.0586.35156v1.10547l.11718.29297.11719.34766.28906.69922.17578.35156.58203.7539.35157.17579.17187.0586.46875.23437.64063.46484.34765.23438.29297.17578.29297.05468.23047.0625.8164.34766.29297.17578.11328.17188.35157.35156.11719.17578.52343.64063v.28906l.0586.35156v.34766l.05859.35156.0586.28906.11718.0586.17188.05859h.17578l.58203.23437.17578.1172.17578.28905.17578.23438.11328.23437.29297.23047.11719.11719v.41016l.0586.05468.28906.23438.23437.11719.0586.11718.11718.17188.0586.11719.23047.23437.05859.17578.23437.0586.1172.05859-.1172.11328-.05859.11719v.11719l-.11719.29296-.11719.28907v.58203l.17579.11719.11718.05859.0586.11719.11719.11719.11328.05859.17578.34765.0586.35157.05858.40625v.17578l-.05859.17578-.11719.69922v.17187l.1172.17579.29296.29296h.40625l.17578.1172.11719.17187.11719.29296v.23438h-.52735l-.23047-.23438h-.23437l-.17578.0586-.0586.69922.0586.34765.11719.17579.17578.41015.11718.23047.28907.46875.17578.05469h.52344l.23437.0586.75781.64062.0586.29296v.23438l.05859.0586.23047.34765v.35156l-.11719.17188v.29297l.29297.28906.29297.17578.17187.0586.29297.17577.29297.1172.58203.40624.28906.23438.29297.17578.21875.16015.01563.01172.23047.17579.64062.52343.17578.23438.1172.17578.17577.17578.11328.17188v.64062l.1172.17578.46874.11719.58203.11719.23438.05859.23047.11328.29297.11719.11328.0586.58593.35156.28907.17187.17578.0625.17578.05469.17578.0586.69922.35155.28906.17579.23438.05468.28906.17578.23437.1172.64063.40624.29297.11719.17187.0586.23438.05859.41015.05859.23047.0586.23438.11718.0586.17188-.41017.17578.46875.0586.0586.29296.11328.23438.17578.05468.23438.0586.17578.05859.40625.11719.64062.23437.11719.17188.0586.23437v.17578l-.0586.1172-.0586.40624.23438.23438.11719.05859.34766.11719.64062.23047.17578.11718.28906.1172.17578.17577.23438.46485.58203 1.10546.17578.17579.34766.17578.17578.11719.35156.11718 1.04688.52344.23437.0586.46485.11327.29297.0586.46484.17578.75781.58203.23438.23438.34765.46484.17578.17578.28907.23438.8164.69921.29297.17579.28906.28906.29297.17578.29297.28906.69531.64063.17578.17578.29297.23437.28907.23438.46875.28906.64062.58203.34766.23438.23437.29297.34766.34765.35156.46485.9336.99218.34765.40625.11719.17579.23437.05859.11328.11719.64454.17578.23047.11328.23437.0586.29297.17577.23047.1172.9336.69921.40624.40625.23438.17578.40625.17578.23437.11719.8164.34766.34766.23437.23438.11719.29297.28906.23047.11719.7578.35156.35157.17188.23047.05859.29297.11719.23437.0586.8711.17577h.8164l.46875.23047.17188.0586.875.69921.46484.1172.29297.05858.17578.0586.23047.0586.46875.05859.34766.05859.35156.0586.40625.05859h.29297l.17187.0586v.23046l.17578.17578h.29297l.34766.0586.35156.05859.69922.11719h.64063l.46484-.23438.29297-.17578.17187-.11719.41016-.17187.28906-.17578.9336-.46485.46875-.29297.52343-.29296.46485-.17188.46484-.17578 1.05078-.46485.28906-.11718.41016-.11719.28906-.11719.52735-.17578 1.51562-.69922.58203-.34765.28907-.0586.29297-.0586.34765-.11718.875-.23047.35156-.11719h.11329l.23437-.05859.875-.23437.23438-.0586h.8125l.35156-.0586.8164-.11718.17188-.0586.35156-.05468.29297-.0586.23047-.05859.8164-.17578.17579-.0586h.34765l.23438-.05859.46484-.11718.75781-.17188.23438-.0586h.34765l.41016-.11718.28906-.0586 1.28516-.05859h.28906l.41016-.0586.23047-.05858h.17578l.875-.1172h.40625l.41015-.11718h.34766l.35156-.11328.8711-.0586h1.75l1.04687.28907.41016.11719.28906.11718.35156.11719.28907.11719 1.05078.17187.28906.0586h.29297l.29297.05859.17187.0586.41016.05859.17187.0586.1172.05858h.11718l.11719.0586.35156.0586h.11328l.41016.0664 1.92187.39453 1.92578.39453 1.51953.44922 1.69532.71875 2.14453.80469 1.60547-.71875 1.42968-.80469 1.16016-1.07813 1.25-.44921 3.03516-.71875 1.875-.35938 2.14453-1.34765 2.23437-1.25391 2.5-1.25781 1.69531-.44922 1.78516-.17969 1.16016-.26953.625.53906 1.33984-.26953.71485-.98828.98437-1.34375.44531-.17969.80469-.35937 1.875-.53907 1.78516-.44921 1.25-.26954 1.16015-.08984 1.69922-.08984 1.96094-.26954 1.25-.08984h.53906l.625-.08984h.89063l2.14453-.17969 2.41015-.17969 2.58985-.08984 1.69531.17969 1.60938.08984 1.42968.35938 1.16016.71875 1.875.98828 1.16015 1.52734.26563.71484.6289.08985.35548.89844.53515.53906.53516 1.52734 1.07422.35938h.53515l-.80469.53515.08985 1.70703.71484 2.69532.89063.80468.89453.98829.71484 1.2578 1.78516.53907 1.51953-.17969.35547 1.34375 1.60937-.80469.98047-.53906.26953.26953.31641-.21484.21875-.14453.80078.44922.44922-.35938h.35547l.53515-.26953.53907-.71875.53515-.26953.625-.98828 1.16016.44922.83984.3711 1.39454.61718 1.6953-.17969h1.60548l1.78515.08985.17969-1.70704.53516-1.34375.80468.26954.4922.84765.40233.40625-.08984.53906v.35938l.71485.44922.71093-.26953h1.42969l.35938.98828.4453 1.25781.71485 1.34375 1.25.6289 1.69531.62891.71485-.17969.17969-.53906.98046-.08984.44922.35937.08594 1.25782-.26563.6289-.53515.17969v.53906l.71484.98438.26563.53906.98437.98828.80078 1.07813-.26562.35937-.08985.89844-.625 2.33203-.35546 2.0664-.08985 1.79298-.17969.71875-.08984.53906v1.4375l-.98047 1.88281-.35937 1.70703-.53516.89844-.80469 1.16797-.26562.53906 2.05469 1.2539.08593.35938-.35546.53906-.08985-.17968v.80859l.08985 1.4375-.44532.71484-1.07422.09375-.26562.71485.53515.89844.8047.71875 1.16015.80859 1.33984.26953.44531.35938-.35546.44921-1.78907-.08984-1.25-.44922-.71484-.71875-.625-.08984-.17578 3.58984-.1875 1.3086h89.35937V311.70313h-55.26953v49.08203l.76172.125 3.28906.54296 2.02344 2.83594v2.7539l2.35156.33204 2.34766.33203h4.05078l-1.3789 4.16016-2.02344.70703-2.02344.70312-.54297.34375-2.59375 1.6172-.1875.11718-2.02344-2.07813-.73046-2.74218-2.67188-2.07813-1.375-3.5-.0664-.08203-1.95704-2.67188 2.75-1.41796v-49.08204H294.42187v91.41407l.1172.03125.1328.01172.07422.07421.10547.04688.08985.0586.08593.05859.08985.0586.29687.29687.0586.08984.03125.11719.02734.11719.01563.13671-.03125.1172-.0586.08983-.0586.08594-.04296.10547-.04688.10156-.02734.1211v.14453l.17578.26953.14844.14844.07422.08594.07422.07421.04296.10547.0625.08985.0586.08593.04297.10547.0586.08985.04687.10156.04296.10547.0586.08594.11719.17968.07421.07422.0625.08594.0586.08984.04297.10547.0586.08985.05858.08593.0625.08985.0586.08984.04297.10156.11719.17969.07421.07422.0586.08594.07422.07421.08984.0586.10547.04687h.14844l.1328-.01562.13282.01562.10156-.04687.07422-.07422.04688-.10156-.01563-.13281v-.14844l-.04687-.10547-.02735-.11719-.04687-.10156-.02735-.1211-.04296-.10156-.0625-.08984-.04297-.10156-.04297-.10547-.03125-.11719-.01563-.13281-.01171-.13672.08593-.0586.0586-.08593.12109-.03125.04297.10547.01562.1328v.1172l.0586.10156.0586.08984.08983.0586.14844.14843.0586.08985.04296.10547-.01171.10156.08593.0586.10547.04687.08594.0586.08984.05858.07422.07422-.11719.02735-.10546.04687-.08594.0586-.07422.07421-.0586.08985-.0625.08594-.02734.12109-.04687.10156-.04297.10547-.03125.11719-.01172.13281-.01563.13281v.14844l.02735.11719.04687.10547.04297.10156.0586.08984.07421.07422.08985.0586.07422.07421.08984.0586.0586.08984.04296.10547.04688.10156.11719.03125.1328.01563h.14845l.11718-.03125.10547.04297.04297.10547.04688.10156.02734.1211L299.5 410l.02734.11719.03125.1211.02735.11718.10547.04297.10156.04687.13281-.01562.14844.14844.0625.08593.07422.07422.07031.07422.08984.0625.10547.04297.10156.04297.1172.03125.13671.01562.11719-.03125.07422-.07422.02734-.11718-.01172-.13282-.03125-.12109-.02734-.11719.04297-.10547h.11719l.08984.0625.11719.02735h.14843l.13282.01562h.14843l.13282.01563.1328-.01563h.14845l.1328-.01562.13282-.01172.13672.01172.11719-.02735.13281-.01562.1914-.0586-.05859.17579-.01562.1328-.02735.1211-.01562.13281-.0586.08594-.1328.01563-.10548.04687-.10546.04297-.1172.03125-.11718.02735-.26563.03125h-.14843l-.13281.01562-.07422.07422.05859.08594.14844.14843.11719.1797.07421.0703.08985.0625.08984.0586.08594.0586.08984.05858.10156.04297.10547.0625.10547.04297.08594.0586.10547.04687.10156.04297.17969.11719.0586.08984-.04298.10156-.04687.10547.01562.13281.22266.22266.0586.08985.04296.10156.03125.1211.04297.10155.01563.13282.03125.11718.01171.13672.03125.11719.14844.14844.10156.04297.10547.04296.1172.03125.1328.01563.13672.01563h.11719l.11719-.03125.08984-.0586.04297-.10547.04688-.10156.04296-.10547.03125-.11719.01172-.1328v-.14845l-.01172-.1328-.01562-.13282-.03125-.11719-.04297-.10547-.04688-.10547-.04296-.10156-.04297-.10547-.01563-.13281.01563-.13281.02734-.11719.03125-.11719.02735-.1211.04687-.10155.08984-.0586.08594-.0625.07422-.07422.08984-.05859.22266-.22266.0586-.08593.07421-.07422.11719-.17969.0586-.08594v-.14844l-.07423-.07421-.10156-.04688-.10547-.04297-.10156-.04297-.0586-.08984-.04687-.10547-.02734-.11719.08984-.05859.11719-.03125.10156-.04297.17969-.11719.14844-.14843.01172-.13282-.01172-.10546-.08985-.0586-.1328.01563h-.14845l-.1328.01562-.13282-.01562-.1211-.03125-.08593-.0586-.07422-.07422-.0586-.08984-.0625-.08594-.11718-.17969-.0586-.08593.03125-.1211.08594-.05859.1211-.03125.05859-.08594v-.1211l-.03125-.11718-.0586-.08984-.05859-.08594-.04687-.10547-.02735-.11719-.01562-.1328.0586-.08985.07421-.07422.08984-.0586.1172-.17968.07421-.07422.0586-.08594.14843-.14844.1211-.03125.1328-.01562.13282.01562.07422.07422.04297.10547.01562.13281-.03125.1172-.11719.03124-.1328.01172-.14844.14844-.04297.10547-.04688.10156-.02734.1211-.03125.11718v.14844l.03125.11719.04297.10546.05859.08985.07422.07031.07422.07422.11719.03125.12109.02734.11719-.02734.1328-.01563h.1172l.08984.0586.07422.07422.04687.10546.0586.08594.10156.04688.13281.01562.10547.04297.08594.0586-.01172.10546-.07422.07422-.17969.11719-.05859.08984-.08984.0586-.07032.07422-.07421.07421-.0625.08985-.02735.11719-.01562.1328.01562.13282-.01562.13281v.14844l.01562.13281.02735.1172.03125.12108.07421.07422.08985.0586.08594.0586.08984.05858.11719.03125v.08594l-.10157.04688-.08984.0586-.26563.03124-.11718.02735h-.14844l-.10547.04296-.10156.04688-.0586.08984-.0625.23438-.01171.13281-.03125.1211-.01563.1328v.29298l-.01172.1328.01172.13673.01563.1328.1328.01563.13282.01172.1211.03125.08593.0586.07422.07421.04688.10547.04296.10157.01563.1328v.44532l-.01563.13281v.44532l.03125.26562.02735.11719.01562.13281.03125.11719.08594.21094.03125.26562v.14844l-.03125.11719-.02734.11718-.03125.1211-.02735.11719-.03125.11718-.03125.1211-.01171.1328-.01563.13282.08984.0586.1172-.03125.10155.01562.04688.10547-.03125.26562v.44141l-.04297.10547-.04688.10547-.04296.10156-.04297.10547-.0586.08594-.03125.12109-.04296.11719-.03125.11719-.01563.1328.01563.13282.05859.08984.10547.04688.08594.0586.05859.08593-.01172.13672-.03125.11719-.04297.10156v.44531l-.01562.13281v.14844l-.03125.11719-.04297.10547-.02735.11719-.04687.10546-.04297.10157-.03125.12109-.02734.11719-.03125.13281-.03125.11719-.02735.11719-.04297.10546-.03125.1172-.03125.12108-.01171.13282-.01563.13281v.29688l.02734.11718v.14844l.04688.39844.02734.11719.0586.08984.12109.03125h.14844l.13281-.01563.0586.08985v.11719l-.0586.08984-.08984.0586-.10157.04296-.10546.04688-.08985.05859-.08594.0586-.13671.01562-.1172-.03125-.1328-.01563-.10157.04688-.0625.08594-.01172.13671-.01562.13282-.03125.11719-.02735.11718-.01562.13281-.03125.1211v.29687l.01563.13282.03125.11718v.14844l.01171.13281v.14844l-.02734.11719-.04688.10156-.02734.1211-.03125.11718-.0586.08985-.07421.07421-.10156.04297-.10547.04688-.11719.02734-.1211.03125-.10156-.04687.0586-.08594.10547-.04688.02734-.11718.03125-.11719.02734-.1211.03125-.11718v-.14844l.01563-.13281-.03125-.11719-.04297-.10547-.10547.01563-.07422.07422-.10156.04296-.08984.0625-.07422.07422-.04297.10157-.01563.1328-.03125.1172L304.25 426l-.03125.11719-.02734.11719-.03125.12109-.02735.11719-.03125.11718-.04297.10547-.08984.0586h-.08984l-.1172-.03125-.03124-.08594.01562-.13672-.03125-.11719v-.14844l-.01171-.1328v-.14844l-.0625-.23438-.02735-.1211-.04297-.10156-.04687-.10546-.0586-.08594-.05859-.08985-.04297-.10546-.0625-.08594-.14844-.14844-.0703-.07422-.10548-.04687-.10547-.04297-.10156-.04297-.29687-.29688-.08985-.07421-.08594-.0586-.10546-.04297-.08985-.0625-.08594-.0586-.10546-.04296-.08985-.0586-.08594-.0625-.07421-.0703-.10547-.04688-.08594-.0586-.10547-.04296-.08984-.0625-.10156-.04297-.10547-.04297-.08594-.0586-.10547-.04687-.10547-.04297-.10156-.04687-.08985-.0586-.10156-.04297-.10547-.04296-.08984-.0625-.11719-.02735-.13281-.01562-.13281.01562H299.75l-.13281.01563-.11719-.03125-.08984-.0586-.07422-.07422-.08985-.05859-.10156-.04688h-.14844l-.12109-.02734-.10156-.04297-.07422-.07422-.11719-.17968-.08984-.0586-.10156-.04297-.08985-.0625-.10547-.04296-.08984-.0586-.08594-.0586-.10547-.04687-.0586-.08594-.05858-.08984-.04297-.10547-.04688-.10156-.07422-.07422-.08594-.0586-.07421-.07421-.08985-.0586-.22265-.22265-.04297-.10547-.03125-.26563.10547-.04296h.14453l.10547.04296.07421.07422.08985.0586.08594.0586.10546.04687.08985.05859.14844.14844.0703.07422.14845.14843.0625.08594.07421.07422.08594.0586.07422.07421.08985.0625.08984.0586.08594.05859.26953.17578.10156.04688.10547.04296.10156.04297.04688-.07421.05859-.08594.07422-.07422.07031-.07422.10547.04297.07422.07422.0586.08984.04296.10156.04688.10547.04296.10547.1211.02735.11719-.02735.07421-.08984.04297-.10547.0586-.08985.07422-.07421.10546-.04297.1172-.02735.1328.01172.08985.0586.14844.14843.05859.08985.04297.10547.04687.10156.04297.10547.04297.10156.10547.04688.10547.04296.13281.01563.08594-.0586.0586-.08984.07421-.07422.10547-.04297.11719.02735.10547.04687.10156.04297.10547.04297.10156.04688.17969.11718v.11719l-.01563.13281.01563.13281.01562.13672.0586.08594.10156.04688.1211.02734.11718.03125h.14844l.11719-.03125.05859-.08984.17969-.1172.05859-.08983.07422-.07422.0586-.08594.11718-.17969.17969-.11719.11719.03125.08984.0586.04297.07422-.01563.1328v.1172l.08985.05859h.14843l.13282-.01563.1328-.01171.26563-.03125.10547-.04297.11719-.03125.1211-.02735.07421-.07421.07031-.07422.0625-.08985-.01562-.10547-.04688-.10156-.10156-.04297-.10547-.01562-.11718.02734-.26563.03125h-.14844l-.07421-.07422-.08985-.0586-.11719-.03124-.11718-.02735-.13282-.01562h-.14843l-.13282.01563h-.29687l-.10547-.04688-.14844-.14844-.04297-.10156-.05859-.08984.22266-.22266.08593-.0586.10547-.04296.11719-.03125.13281-.01563.13281.01563.13672.01562.10157.04297.1328-.01172.08985-.0625.10156-.04297.0625-.08984-.04687-.10156-.08984-.0586-.1172-.03125-.10155-.04296-.0586-.08985-.0625-.08984v-.11719l.01563-.13281.10547-.04688.07421-.07031v-.1211l-.08984-.05859-.03125-.11719.08985-.05859.07421-.07422.04297-.10547.0586-.08984.04687-.10156.01563-.13281v-.14844l-.04688-.10547-.04297-.10156-.08984-.0586-.13281-.01562-.10157-.04297-.13671-.01563-.1172-.03125h-.4453l-.13282-.01562-.13281-.01172-.13281-.01563-.11719-.03125h-.14844l-.13281-.01562-.13281-.01172-.26563-.03125-.1211-.04297-.08593-.0586-.07422-.07421v-.14844l.01172-.13281.10547-.04688.10156-.04296.13281-.01563h.15235l.13281-.01562h.29297l.1211.03125.10156.04296.08984.0586.23438.0625.12109-.04688.08984-.05859.10156-.04297.13282-.01562.10547.04296.10156.04688.13281.01172.1211-.02735h.14453l.12109-.03125.11719-.02734.10547-.04687.07421-.07422.08594-.0586.14844-.14843.0586-.08594.04687-.10547.02734-.11719.01563-.10547-.10156-.04296-.08985-.0586-.11719-.03125-.10546-.04297-.08985-.0625-.07422-.08594-.07422-.07421-.10156-.04297-.10547-.04688-.10156-.04297-.0586-.08984-.04687-.10156-.08594-.21094-.0625-.08594-.05859-.08984-.07422-.07422-.08594-.0586h-.26953l-.11719.03126-.08984.05859-.10156.04297-.13281.01562-.10547-.01562-.02735-.11719-.0625-.08984-.11718-.03125-.10157-.04297-.14843-.14844-.03125-.11719-.01563-.10546.07422-.07422.17969-.1172.11719-.02733.11718-.03125.13672.01562.10156.04297.10547.04297.10156.04687.10547.04297.1172.03125.1328.01563.1172.02734.1328.01563.10547-.01563.08985-.0586-.07422-.07421-.10547-.04297-.07422-.07422-.07422-.08984-.14844-.14844-.08593-.0586-.08985-.05859-.07422-.07422-.08984-.0586-.10156-.04687-.1211-.02734-.10156-.04688-.10547-.04296-.11719-.03125-.10156-.04297-.1211-.03125h-.14843l-.11719.03125-.10546.04297-.08594.0625-.17969.11718-.08594.0586-.08984.0586-.10547.04687-.08594.05859-.10547.04297-.10156.04297-.10547.04687-.07422.07422-.05859.08985-.0586.08593-.04687.10547-.0586.08594-.07421.07422-.13281-.01172-.1172-.03125h-.11718l-.07422.07422-.08984.0586-.07422.07421-.08984.0586-.08594.05859-.10547.04687-.10156.04297-.13672.01563-.10156-.04297-.14844-.14844-.10547-.04688h-.08594l-.10547.04688-.10156.04297-.1211.03125-.11718-.03125-.07422-.07422v-.11719l.03125-.1211.07422-.0703.0586-.08985.07421-.07422.11719-.03125.10547-.04296h.29297l.13281-.01563.13672-.01563.10156-.04296.08985-.0586.10156-.04687.08984-.0586.13281-.01171.08985.05859.13281.01172.08984-.0586.08594-.05859.10547-.04297.08984-.0586.08594-.0625.08985-.05859.14843-.14843.0586-.08594.05859-.08985.10547-.04296.13281-.01563.11719.02735.1211.03125.05859-.0586.05859-.08984.03125-.26563.02734-.11719.10547.01172.13281.01563.10157-.04297.08984-.0586.0586-.08984.07421-.07422.0586-.08984.04687-.10156.01172-.13281-.01172-.13282-.04687-.10547-.14844-.14843-.0586-.08985-.05859-.08594-.04297-.10546v-.44532l.01563-.1328v-.14845l.01172-.1328-.0586-.0586-.08984.0586-.10156-.04298-.17969-.11719-.08594-.05859-.0625-.08984-.0586-.08985-.07421-.07421-.08594-.0586-.1211.03125-.10155.01172-.10547.04688-.08594.05859-.10547.04297-.14844.14844-.08984.05859-.08594.0586-.08984.0625-.10547.04296-.13281.01563v-.1211l.10547-.04297.11718-.03125.07422-.0703.04297-.10548v-.14844l-.02734-.11718-.14844-.14844-.13281-.01563h-.14844l-.11719.03125-.10547.04297-.10156.04297-.08984.0625-.11719.02735-.07422-.07422.01172-.13281-.04297-.10157-.04297-.10547-.08984-.05859-.11719.02734-.1211.03125-.11718.03125-.10156.04297-.1211.03125-.10156.04297-.10547.04297-.08984.0586-.10156.01562v-.11719l.01562-.13281-.0586-.08985-.07421.04297-.14844.14844-.0586.08985-.07421.07421-.04688.10547-.04296.10156-.07422.07422-.0586.08985-.07422.07422-.05859.08593-.07422.07422-.08984.0625-.07422.07031-.07422.07422-.10156.01563-.13281.01562-.10547-.04296v-.1211l.14843-.14844.04297-.10156.0586-.08984.04687-.10156.04297-.10547.0586-.08985.03124-.11719.04297-.10156.03125-.1211.02735-.11718.04687-.10547.04297-.10156.04297-.10547.07422-.07031.08984-.0625.08985-.0586.10156-.04296h.29687l.26563-.03125.10547-.04297-.07422-.07422-.11719-.03125-.10547-.04297-.08984-.0586-.10156-.04687-.08985-.0586-.10156-.04296-.10547-.04297-.08984-.0625-.08594-.0586-.10547-.04296-.10156-.04297-.1211-.03125-.11718-.03125-.10157-.04297L297.5 410.25l-.10156-.04297-.08985-.0586-.04296-.10546-.01563-.13281.10156-.04297.13281-.01563.13672.01563.13282-.01563.10156-.04297.0586-.08984.01562-.10547-.08985-.0586-.07421-.07421-.10157-.04297-.08984-.0586-.14844-.14843-.04297-.10547-.01562-.13281v-.29297l-.0586-.08985-.08984-.05859-.07422-.07422-.04297-.10547-.03125-.11718-.0586-.08985-.07421-.07422-.11719-.02734-.07422-.07422-.08984-.0586-.08984-.0625-.08594-.05859-.07422-.07421-.0586-.08594-.04687-.10547-.08594-.0586-.14843-.14843-.19532-.0586-.1328.01563-.10157.04297-.07422.07422-.04688.10156-.04296.10547-.0586.08984-.0586.08594-.29687.29687-.08984.0586h-.08594l-.0625-.08594-.04297-.10547.03125-.11719.0586-.08984.02734-.11719-.01172-.13281-.08984-.0625-.10547.04688-.11719.02734-.11719.03125-.26953.17578-.10156.04688-.11719.02734-.10546.04687-.08985.0586-.10156.04297-.0586-.08594-.04687-.10547.01563-.13281.04687-.10547.07031-.07422.07422-.07031.0586-.08985v-.14843l-.04297-.10547h-.23829l-.10156.04687-.03125.11719-.02734.11719-.03125.1211-.07422.04296-.13281.01563-.07422-.04688-.04297-.10156-.04297-.10547-.04687-.10156-.04297-.10547-.1211.03125-.10156.04297-.13281.01562-.11719.03125-.10547.04297-.08984.0586-.10156.04687-.1211.02734-.13281.01563-.10156-.04297-.0586-.08985-.04687-.10546-.04297-.10157-.04297-.10546v-.1172l.0586-.08984.08593-.05859.17969-.11719.10156-.04687.10547-.04297.10547-.0586.10156-.04296.08985-.0625.10156-.04297.10547-.0586.10156-.04687.08984-.0586.10547-.04296.10156-.04297.08985-.0625.10156-.04297.13672-.01563.11719.03125.10156.04297.1211.03125.10156.04297.10546.04688.10157.04296.10547.04297.10156.04688.10547.04297.10156.04297.10547.04687.08594.0586.10546.04296.1172.03125.10546.04297.10156.04688.08985.0586.10547.04296.10156.04297.10547.04687.11719.02735.10156.04687.1211.02735h.14843l.08594-.0586.01562-.10156.0586-.08984-.02735-.1172-.07422-.07421-.11719-.17969-.07421-.07422-.08985-.07421-.17969-.1172-.08593-.05859-.10547-.04296-.10156-.04688-.26954-.17578-.05859-.08985-.07422-.07421-.0586-.08985-.04296-.10156-.03125-.11719-.01563-.13672v-.5625l-.01171-.1328-.01563-.13282-.03125-.11719-.01562-.13281-.01172-.13281-.03125-.1211-.22266-.22265-.0586-.08594-.01562-.10547.03125-.11719.13281-.01562v-91.41406H172.9922v1.45312l-.0586.23438-.35156 1.05078-.17187.52343-.1172.34766-.17577.41016-.11719.17187-.23438.29297-.23046.0586h-.35157l-.11718.05859-.23047.40625v.29297l.11719.17578.23046.23047.1172.23437.64062.75781.29297.46485.17578.23437.23047.35156.23437.34766.64063.8164.17578.46485.17187.41016.11719.69531.17578.46875.11719 1.39844.0586.46484v.875l.11718 1.04688v4.78125l-.0586.46484-.35156 1.28125-.17578.52344-.11328.41015-.35156.9297L172.93359 336l-.23437.58203-.11719.17578-.17187.34766-.17578.40625-.35157.8164-.0586.29297-.11327.29297-.11719.28906-.0586.17579-.11718.875-.0586.40625-.05859.11718-.0586.17579-.05859.17187-.23047.52734-.11718.17188v.23437l-.11719.23438-.0586.17187-.17577.58594v.28906l-.0586.17579v.29296l-.0586.11329-.05859.52734v.17187l-.05468.23438v2.6211l-.17578.8164-.1172.17578-.17577.23438-.1172.17187-.11327.23438-.58594.93359-.23047.28906-.29297.46485-.17578.23437-.28906.35156-.35156.69922-.11328.23047-.17579.41016-.17578.23046-.40625.52735-.8164.69922-.29297.17187-.28906.23438-.17579.11719-.17578.17578-.52344.40625-.52734.17578-.17187.17578-.23438.05469-.64062.17578h-.75782m12.21094 31.02344l-1.07422.44921.35938.89454 1.25-.71485.44531-.53906-.98047-.08985"/><path fill="#d3d3d3" fill-opacity="0" fill-rule="evenodd" d="M201.50781 416.59766h-.89453l.44922.6289.98047.35938.80469-.08985.4453-.98828-.17577.08985-.71485-.35547-.89453.35547m154.6211 59.0703l-.0586-.52343v-.29297l.11328-.29297.0586-.23046.46875-.46875h.11328l.11719-.11329.11718-.05859h.17579l.23437-.0586h.34766l.23437.0586.11719.0586.23047.17187.0586.17578.11718.58203v.29297l-.11719.17578-.17187.28906-.17579.17579-.52734.52343-.23047.23438-.11719.0586h-.17578l-.11718-.0586-.40625-.29297-.17579-.11719-.11718-.0586-.0586-.11327-.05468-.1172m6.64062-10.95702l-.0586-.17188v-1.10937l.0586-.17188.17578-.0586.17188-.05858h.17578l.23437-.0586.1172.0586.05858.69921-.05859.17188-.11719.17578-.11718.0586-.23438.52343-.11328.0586h-.23438l-.05859-.1172m9.61328-14.39062l-.11719-.17578v-.69922l.29297-.875.1172-.17187.17577-.35156.11328-.23047.1172-.29297.35155-.75781.1172-.23047.17187-.23438h.17578l.11719-.0586h.64062l.11719.0586.23437.23438.17188.11328.35156.29297.11719.11718.11328.17579v.11328l.11719.05859.11718.11719v.69922l-.05859.17578v.23047l-.0586.17578-.34765 1.05078-.11719.23047-.11719.23437-.11718.0586-.23047.23437-.64063.28906h-.875l-.41015-.11718-.64063-.46485"/><path fill="none" stroke="#bebebe" stroke-linecap="round" stroke-linejoin="round" stroke-miterlimit="10" stroke-width=".5" d="M467.95703 311.69531H144.02734v168.625h323.9297v-168.625"/><g clip-path="url(#a)"><path fill="#fff" fill-opacity="0" fill-rule="evenodd" d="M144 475.89063v4.4375h.0039H144V311.67188h.0039H144v164.21875"/></g><g clip-path="url(#b)"><path fill="#fff" fill-opacity="0" fill-rule="evenodd" d="M144.0039 480.32813V311.67188h17.75v126.2578l-2.33202 2.45313 1.26171 4.4375.6172 4.4414-1.76954 4.4375.36328 4.4375 1.85938 3.84767 4.4375.04296 4.4375-.98046 4.4375-2.72657.09375-.1836-.09375-.05077-4.4375-3.05078-4.4375.68359-2.26563-2.01953-1.63281-4.4375 1.10156-4.4414 1.5039-4.4375-3.14452-2.45313V311.67188h8.875v127.10156l-1.9297 1.60937 1.9297 1.16406 3.74609-1.16406-3.7461-1.60937V311.67188h17.75391v139.42187l-1.72265 2.60547 1.72265 1.3164 4.4375-.85156.8711-.46484-.8711-.82813-4.4375-1.77734V311.67187h35.50781V430.5586l-1.28515.94922 1.28516 1.27735 1.17968-1.27735-1.17969-.94922V311.67188h17.75391v126.125l-4.4375 1.86328-.92578.72265.92578.6836 4.4375 1.9414 4.34375-2.625-4.34375-2.58594v-126.125h17.7539v121.22657l-3.63671 3.04687 3.63672 3.1289 2.77734-3.1289-2.77734-3.04687V311.67188h13.3125V429.5625l-4.25 1.94531 4.25 1.73438v12.8164l-4.0625 3.20313-.375.28515-.70313-.28515-3.73437-1.60547-2.13672 1.60547.77344 4.4375 1.36328 1.28906 4.4375.9336 4.4375-.16407 4.4414-1.11328.60547-.94531-.60547-2.8789-.69921-1.5586-3.7422-3.20313v-12.8164l3.8125-1.73438-3.8125-1.94531V311.67187h8.87891v120.23047l-3.54687 4.04297 3.54687 3.42969 4.4375-1.1836 4.4375-1.11718 1.12891-1.1289-1.1289-1.22266-4.4375-.94141-4.4375-1.8789V311.67186h71.01171V437.4922l-2.88672 2.89062 2.88672 2.89063 3.375-2.89063-3.375-2.89062V311.67188h22.1914V444.0039l-.87108.8164-3.56641 4.3711-.0586.0703-2.46484 4.4375-1.91406 1.66017-3.26953 2.77734-1.16797 3.29297-.40235 1.14453.40235.36719 4.4375.97265 4.4375-.33984 4.4375.41015 3.92969 3.03125.10937 4.4375.40235.5 2.125-.5-1.21875-4.4375 3.53125-1.15625 1.46093 1.15625 2.97656 2.64454 2.22657-2.64454 2.21094-2.34765 2.1875-2.09375.37109-4.4375-2.5586-2.98438-4.4375.62891-1.49218-2.08203-2.94531-3.26172-4.4375.92578-4.44141 1.70703-4.29297-3.8086 4.29297-2.91405 1.21484-1.52735-1.21484-.8164V311.67187h93.20312v168.65625H144.00391"/></g><path fill="#50fcfc" fill-rule="evenodd" d="M160.6836 444.82031l-1.26173-4.4375 2.33204-2.45312 3.14453 2.45312-1.5039 4.4375-1.10157 4.4414 1.63281 4.4375 2.26563 2.01954 4.4375-.6836 4.4375 3.05079.09375.05078-.09375.1836-4.4375 2.72656-4.4375.98046-4.4375-.04296-1.85938-3.84766-.36328-4.4375 1.76953-4.4375-.61719-4.4414m9.94532-3.27344l-1.9297-1.16407 1.9297-1.60937 3.74609 1.60937-3.7461 1.16406m17.75391 13.46875l-1.72265-1.3164 1.72265-2.60547 4.4375 1.77734.8711.82813-.8711.46484-4.4375.85156m35.50781-22.23046l-1.28515-1.27735 1.28516-.94922 1.17968.94922-1.17969 1.27735m13.31641 8.28125l-.92578-.6836.92578-.72265 4.4375-1.86329 4.34375 2.58594-4.34375 2.625-4.4375-1.9414m22.1914-1.9922l-3.63671-3.1289 3.63672-3.04687v2.96094l-.10156.08593.10156.08594.07812-.08594-.07812-.08594v-2.96093l2.77734 3.04687-2.77734 3.1289"/><path fill="#00e8fc" fill-rule="evenodd" d="M259.39844 436.03125l-.10156-.08594.10156-.08594.07812.08594-.07812.08594"/><path fill="#50fcfc" fill-rule="evenodd" d="M262.47266 453.69922l-.77344-4.4375 2.13672-1.60547 3.73437 1.60547.70313.28515.375-.28515 4.0625-3.20313 3.74219 3.20313.69921 1.5586.60547 2.8789-.60547.94531-4.4414 1.11328-4.4375.16406-4.4375-.93359-1.36328-1.28906m10.23828-20.45703l-4.25-1.73438 4.25-1.94531 3.8125 1.94531-3.8125 1.73438m8.8789 6.13281l-3.54687-3.42969 3.54687-4.04297v1.9375l-1.84765 2.10547 1.84765 1.78906 2.78125-1.78906-2.78125-2.10547v-1.9375l4.4375 1.87891 4.4375.9414 1.12891 1.22266-1.1289 1.1289-4.4375 1.1172-4.4375 1.18359"/><path fill="#00e8fc" fill-rule="evenodd" d="M281.58984 437.73438l-1.84765-1.78907 1.84765-2.10547 2.78125 2.10547-2.78125 1.78906"/><path fill="#50fcfc" fill-rule="evenodd" d="M352.60156 443.27344l-2.88672-2.89063 2.88672-2.89062v2.33594l-.55469.55468.5547.5586.64843-.5586-.64844-.55469v-2.33593l3.375 2.89062-3.375 2.89063"/><path fill="#00e8fc" fill-rule="evenodd" d="M352.60156 440.9414l-.55469-.55859.5547-.55469.64843.5547-.64844.55859"/><path fill="#50fcfc" fill-rule="evenodd" d="M361.48047 462.9414l-.40235-.36718.40235-1.14453 1.16797-3.29297 3.26953-2.77735 1.91406-1.66015 2.46485-4.4375.05859-.07031 3.5664-4.3711.8711-.8164 1.21484.8164-1.21484 1.52735-4.29297 2.91406 4.29297 3.8086v1.36327l-1.6211 3.70313 1.6211 2.07812 1.42578-2.07812-1.42578-3.70313v-1.36328l4.4414-1.70703 4.4375-.92578v6.45703l-1.71875 1.24219 1.71875 1.22265 1.79297-1.22265-1.79296-1.24219v-6.45703l2.9453 3.26172 1.4922 2.08203v2.91797l-4.13282 3.875 4.13281 3.96484 3.91797-3.96484-3.91796-3.875v-2.91797l4.4375-.6289 2.55859 2.98437-.3711 4.4375-2.1875 2.09375-2.21093 2.34765-2.22656 2.64454-2.97657-2.64454-1.46094-1.15625-3.53125 1.15625 1.21875 4.4375-2.125.5-.40234-.5-.10937-4.4375-3.9297-3.03125-4.4375-.41015-4.4375.33984-4.4375-.97265"/><path fill="#fff" fill-opacity="0" fill-rule="evenodd" d="M374.79297 454.4336l-1.6211 3.70312 1.6211 2.07812 1.42578-2.07812-1.42578-3.70313m8.8789 2.46094l-1.71875 1.24219 1.71875 1.22265 1.79297-1.22265-1.79296-1.24219"/><path fill="#00e8fc" fill-rule="evenodd" d="M388.10938 466.53906l-4.13282-3.96484 4.13281-3.875v1.52344l-2.5078 2.35156 2.5078 2.40625 2.37891-2.40625-2.3789-2.35156v-1.52344l3.91796 3.875-3.91796 3.96484"/><path fill="#00d4fc" fill-rule="evenodd" d="M388.10938 464.98047l-2.50782-2.40625 2.50781-2.35156v1.52343l-.8828.82813.8828.84765.83594-.84765-.83594-.82813v-1.52343l2.37891 2.35156-2.3789 2.40625"/><path fill="#00c4fc" fill-rule="evenodd" d="M388.10938 463.42188l-.88282-.84766.88281-.82813.83594.82813-.83594.84765"/><g clip-path="url(#c)"><path fill="#fff" fill-opacity="0" fill-rule="evenodd" d="M467.9961 480.32813H468V311.67188h-.0039H468v168.65625h-.0039"/></g><g clip-path="url(#d)"><path fill="none" stroke="#000" stroke-linecap="round" stroke-linejoin="round" stroke-miterlimit="10" stroke-width=".5" d="M147.51172 480.3711l-7.02344-.08204"/></g><g clip-path="url(#e)"><path fill="none" stroke="#000" stroke-linecap="round" stroke-linejoin="round" stroke-miterlimit="10" stroke-width=".5" d="M147.51172 480.3711l1.1289 2.17968"/></g><g clip-path="url(#f)"><path fill="none" stroke="#000" stroke-linecap="round" stroke-linejoin="round" stroke-miterlimit="10" stroke-width=".5" d="M160.82422 480.125l-7.01563.41016"/></g><g clip-path="url(#g)"><path fill="none" stroke="#000" stroke-linecap="round" stroke-linejoin="round" stroke-miterlimit="10" stroke-width=".5" d="M160.82422 480.125l1.27344 2.09375"/></g><g clip-path="url(#h)"><path fill="none" stroke="#000" stroke-linecap="round" stroke-linejoin="round" stroke-miterlimit="10" stroke-width=".5" d="M174.14453 480.32813h-7.02734"/></g><g clip-path="url(#i)"><path fill="none" stroke="#000" stroke-linecap="round" stroke-linejoin="round" stroke-miterlimit="10" stroke-width=".5" d="M173.1211 480.32813l.57421 1.08203"/></g><g clip-path="url(#j)"><path fill="none" stroke="#000" stroke-linecap="round" stroke-linejoin="round" stroke-miterlimit="10" stroke-width=".5" d="M187.45703 480.39844l-7.02344-.14063"/></g><g clip-path="url(#k)"><path fill="none" stroke="#000" stroke-linecap="round" stroke-linejoin="round" stroke-miterlimit="10" stroke-width=".5" d="M187.45703 480.39844l1.10938 2.1875"/></g><g clip-path="url(#l)"><path fill="none" stroke="#000" stroke-linecap="round" stroke-linejoin="round" stroke-miterlimit="10" stroke-width=".5" d="M200.76563 480.0625l-7.00782.53125"/></g><g clip-path="url(#m)"><path fill="none" stroke="#000" stroke-linecap="round" stroke-linejoin="round" stroke-miterlimit="10" stroke-width=".5" d="M200.76563 480.0625l1.3125 2.07422"/></g><g clip-path="url(#n)"><path fill="none" stroke="#000" stroke-linecap="round" stroke-linejoin="round" stroke-miterlimit="10" stroke-width=".5" d="M214.04297 479.76172l-6.9336 1.13672"/></g><g clip-path="url(#o)"><path fill="none" stroke="#000" stroke-linecap="round" stroke-linejoin="round" stroke-miterlimit="10" stroke-width=".5" d="M214.04297 479.76172l1.48828 1.94922"/></g><g clip-path="url(#p)"><path fill="none" stroke="#000" stroke-linecap="round" stroke-linejoin="round" stroke-miterlimit="10" stroke-width=".5" d="M227.35547 479.7539l-6.92969 1.14844"/></g><g clip-path="url(#q)"><path fill="none" stroke="#000" stroke-linecap="round" stroke-linejoin="round" stroke-miterlimit="10" stroke-width=".5" d="M227.35547 479.7539l1.49219 1.94923"/></g><g clip-path="url(#r)"><path fill="none" stroke="#000" stroke-linecap="round" stroke-linejoin="round" stroke-miterlimit="10" stroke-width=".5" d="M240.65625 479.67188l-6.90234 1.3164"/></g><g clip-path="url(#s)"><path fill="none" stroke="#000" stroke-linecap="round" stroke-linejoin="round" stroke-miterlimit="10" stroke-width=".5" d="M240.65625 479.67188l1.53906 1.91015"/></g><g clip-path="url(#t)"><path fill="none" stroke="#000" stroke-linecap="round" stroke-linejoin="round" stroke-miterlimit="10" stroke-width=".5" d="M253.92969 479.48438l-6.82031 1.6914"/></g><g clip-path="url(#u)"><path fill="none" stroke="#000" stroke-linecap="round" stroke-linejoin="round" stroke-miterlimit="10" stroke-width=".5" d="M252.9375 479.73047l.82031.91015"/></g><g clip-path="url(#v)"><path fill="none" stroke="#000" stroke-linecap="round" stroke-linejoin="round" stroke-miterlimit="10" stroke-width=".5" d="M267.3164 479.85547l-6.96093.94531"/></g><g clip-path="url(#w)"><path fill="none" stroke="#000" stroke-linecap="round" stroke-linejoin="round" stroke-miterlimit="10" stroke-width=".5" d="M266.30469 479.99219l.71484.9961"/></g><g clip-path="url(#x)"><path fill="none" stroke="#000" stroke-linecap="round" stroke-linejoin="round" stroke-miterlimit="10" stroke-width=".5" d="M280.60156 479.66406l-6.90234 1.33203"/></g><g clip-path="url(#y)"><path fill="none" stroke="#000" stroke-linecap="round" stroke-linejoin="round" stroke-miterlimit="10" stroke-width=".5" d="M279.59766 479.85547l.76953.95703"/></g><g clip-path="url(#z)"><path fill="none" stroke="#000" stroke-linecap="round" stroke-linejoin="round" stroke-miterlimit="10" stroke-width=".5" d="M293.85547 479.40234l-6.78125 1.85157"/></g><g clip-path="url(#A)"><path fill="none" stroke="#000" stroke-linecap="round" stroke-linejoin="round" stroke-miterlimit="10" stroke-width=".5" d="M292.86719 479.67188l.84375.89453"/></g><g clip-path="url(#B)"><path fill="none" stroke="#000" stroke-linecap="round" stroke-linejoin="round" stroke-miterlimit="10" stroke-width=".5" d="M307.05078 479.03906l-6.53906 2.57813"/></g><g clip-path="url(#C)"><path fill="none" stroke="#000" stroke-linecap="round" stroke-linejoin="round" stroke-miterlimit="10" stroke-width=".5" d="M306.09766 479.41406l.93359.79688"/></g><g clip-path="url(#D)"><path fill="none" stroke="#000" stroke-linecap="round" stroke-linejoin="round" stroke-miterlimit="10" stroke-width=".5" d="M320.35938 479.03125l-6.52735 2.59375"/></g><g clip-path="url(#E)"><path fill="none" stroke="#000" stroke-linecap="round" stroke-linejoin="round" stroke-miterlimit="10" stroke-width=".5" d="M319.41016 479.41016l.9375.79297"/></g><g clip-path="url(#F)"><path fill="none" stroke="#000" stroke-linecap="round" stroke-linejoin="round" stroke-miterlimit="10" stroke-width=".5" d="M332.96484 477.91406l-5.10546 4.82813"/></g><g clip-path="url(#G)"><path fill="none" stroke="#000" stroke-linecap="round" stroke-linejoin="round" stroke-miterlimit="10" stroke-width=".5" d="M344.35156 476.8711l-1.25 6.91406"/></g><path fill="none" stroke="#000" stroke-linecap="round" stroke-linejoin="round" stroke-miterlimit="10" stroke-width=".5" d="M344.17188 477.8789l1.16796-.375"/><g clip-path="url(#H)"><path fill="none" stroke="#000" stroke-linecap="round" stroke-linejoin="round" stroke-miterlimit="10" stroke-width=".5" d="M355.15234 477.36719l3.77735 5.92578"/></g><g clip-path="url(#I)"><path fill="none" stroke="#000" stroke-linecap="round" stroke-linejoin="round" stroke-miterlimit="10" stroke-width=".5" d="M366.85156 480.5625l7.01172-.46484"/></g><g clip-path="url(#J)"><path fill="none" stroke="#000" stroke-linecap="round" stroke-linejoin="round" stroke-miterlimit="10" stroke-width=".5" d="M367.8711 480.49219l-.64844-1.04297"/></g><g clip-path="url(#K)"><path fill="none" stroke="#000" stroke-linecap="round" stroke-linejoin="round" stroke-miterlimit="10" stroke-width=".5" d="M380.17578 480.69531l6.98828-.73437"/></g><g clip-path="url(#L)"><path fill="none" stroke="#000" stroke-linecap="round" stroke-linejoin="round" stroke-miterlimit="10" stroke-width=".5" d="M380.17578 480.69531l-1.3711-2.03515"/></g><g clip-path="url(#M)"><path fill="none" stroke="#000" stroke-linecap="round" stroke-linejoin="round" stroke-miterlimit="10" stroke-width=".5" d="M393.61719 481.32813l6.73828-1.9961"/></g><g clip-path="url(#N)"><path fill="none" stroke="#000" stroke-linecap="round" stroke-linejoin="round" stroke-miterlimit="10" stroke-width=".5" d="M393.61719 481.32813l-1.71875-1.75"/></g><g clip-path="url(#O)"><path fill="none" stroke="#000" stroke-linecap="round" stroke-linejoin="round" stroke-miterlimit="10" stroke-width=".5" d="M407.21094 482l6.17969-3.33984"/></g><g clip-path="url(#P)"><path fill="none" stroke="#000" stroke-linecap="round" stroke-linejoin="round" stroke-miterlimit="10" stroke-width=".5" d="M407.21094 482l-2.04297-1.35938"/></g><g clip-path="url(#Q)"><path fill="none" stroke="#000" stroke-linecap="round" stroke-linejoin="round" stroke-miterlimit="10" stroke-width=".5" d="M420.375 481.67969l6.48438-2.70313"/></g><g clip-path="url(#R)"><path fill="none" stroke="#000" stroke-linecap="round" stroke-linejoin="round" stroke-miterlimit="10" stroke-width=".5" d="M420.375 481.67969l-1.89844-1.55469"/></g><g clip-path="url(#S)"><path fill="none" stroke="#000" stroke-linecap="round" stroke-linejoin="round" stroke-miterlimit="10" stroke-width=".5" d="M433.85938 482.03125l6.14453-3.40625"/></g><g clip-path="url(#T)"><path fill="none" stroke="#000" stroke-linecap="round" stroke-linejoin="round" stroke-miterlimit="10" stroke-width=".5" d="M434.7539 481.53516l-1.03124-.66797"/></g><g clip-path="url(#U)"><path fill="none" stroke="#000" stroke-linecap="round" stroke-linejoin="round" stroke-miterlimit="10" stroke-width=".5" d="M446.89063 481.375l6.71093-2.08984"/></g><g clip-path="url(#V)"><path fill="none" stroke="#000" stroke-linecap="round" stroke-linejoin="round" stroke-miterlimit="10" stroke-width=".5" d="M447.86719 481.07031l-.8711-.86328"/></g><g clip-path="url(#W)"><path fill="none" stroke="#000" stroke-linecap="round" stroke-linejoin="round" stroke-miterlimit="10" stroke-width=".5" d="M461.64844 477.38281l3.82812 5.89063"/></g><path fill="none" stroke="#000" stroke-linecap="round" stroke-linejoin="round" stroke-miterlimit="10" stroke-width=".5" d="M462.20313 478.24219l.59375-1.07422"/><g clip-path="url(#X)"><path fill="none" stroke="#000" stroke-linecap="round" stroke-linejoin="round" stroke-miterlimit="10" stroke-width=".5" d="M147.5 466.72266l-7 .58203"/></g><path fill="none" stroke="#000" stroke-linecap="round" stroke-linejoin="round" stroke-miterlimit="10" stroke-width=".5" d="M147.5 466.72266l1.32813 2.0664m11.96484-2.28515l-6.95313 1.01953m6.95313-1.01953l1.45312 1.97656m11.64063-2.78516l-6.51563 2.63672m6.51563-2.63672l1.8789 1.57813m11.31641-1.83985l-6.27344 3.16016m6.27344-3.16016l2.0039 1.41407m11.54688-.8125l-6.7461 1.95703m6.7461-1.95703l1.71094 1.7578m11.69922-1.35155l-6.9336 1.14453m6.9336-1.14453l1.48828 1.94922m11.8164-1.9961l-6.91406 1.23828m6.91407-1.23828l1.51562 1.92969m11.65625-2.47656l-6.6289 2.33203m6.6289-2.33203l1.80469 1.66015m11.07422-2.51172l-5.7539 4.03516m5.7539-4.03516l2.1875 1.11329m11.0664-1.19922l-5.6328 4.20703m5.6328-4.20703l2.21875 1.04687m11.07422-1.07422l-5.58984 4.26172m5.58984-4.26172l2.23047 1.02735m11.21484-.84375l-5.85156 3.89453m5.85156-3.89453l2.16016 1.16797m11.23828-1.03125l-6.01953 3.62109m6.01953-3.6211l2.10547 1.26172M320 465.03516l-5.8086 3.95703m4.96094-3.38281l1.08594.5703m13.20313-.9414l-6.0625 3.55078m5.17968-3.03515l1.04688.64453m12.23047-2.1914l-4.22266 5.61327m3.60938-4.79687l1.21093.1914m11.58985-1.57421l-1.96485 6.74609m1.6797-5.76563l1.19921-.25m10.71875-.80078l1.39844 6.88672m-1.19532-5.88281l.94922-.78125m10.06641 1.08984l5.58984 4.26172m-5.58984-4.26172l.39844-2.42187m12.51172 3.10547l6.40234 2.89453m-6.40234-2.89453l-.15625-2.44922m13.21875 3.2461l6.90625 1.30077m-6.90625-1.30078l-.73047-2.34375m14.05468 2.29297l6.88672 1.40234m-6.88672-1.40234l-.6953-2.35156m14.16015 1.83594l6.58984 2.43359m-5.63281-2.07813l-.16406-1.21484m13.89453-.86719l3.84375 5.88672m-3.84375-5.88672l1.1875-2.14843m11.95312 2.27343l4.19141 5.63672m-3.58203-4.8164l.52734-1.10938"/><g clip-path="url(#Y)"><path fill="none" stroke="#000" stroke-linecap="round" stroke-linejoin="round" stroke-miterlimit="10" stroke-width=".5" d="M147.4961 453.33594l-6.9922.72265"/></g><path fill="none" stroke="#000" stroke-linecap="round" stroke-linejoin="round" stroke-miterlimit="10" stroke-width=".5" d="M147.4961 453.33594l1.36718 2.03906m11.91406-2.28125l-6.92187 1.21094m6.92187-1.21094l1.50782 1.9375m11.83984-1.67969l-6.99219.6914m6.99219-.6914l1.35938 2.04297m11.92578-2.27734l-6.9297 1.16406m5.92188-.9961l.7461.97266m13.46094-1.6211l-6.69922 2.1211m5.72656-1.8125l.875.85938m13.26562-1.55469l-6.40234 2.89453m5.46875-2.47266l.97266.75m13.33593-1.03125l-6.52343 2.6172m5.57422-2.23829l.9375.79297m13.33984-1.14063l-6.54688 2.5547m5.59375-2.1836l.9297.80078m12.85937-2.02344l-5.59375 4.2539m5.59375-4.2539l2.23047 1.02735m10.66796-1.48438l-4.7578 5.16797m4.7578-5.16797l2.375.6211m11.10547-.45704l-5.08984 4.84375m4.34765-4.14062l1.16407.38672m12.99219-.98047l-5.28907 4.625m5.28906-4.625l2.29688.8711m-3.0664-.19923l1.14843.4375m12.71875-1.33984l-4.85156 5.08594m4.85156-5.08594l2.35938.66016m-3.06641.07812l1.17969.33203m12.7539-1.14844l-4.67578 5.2422m4.67578-5.2422l2.38672.58204m-3.0664.17968l1.1914.29297m12.86719-1l-4.80469 5.1289m4.80469-5.1289l2.36719.64063m11.16406-.41797l-5.23438 4.6875m5.23438-4.6875l2.30078.84375m10.46094-1.34375l-4.1289 5.6875m4.1289-5.6875l2.42969.33984m9.94921-.82422l-2.2539 6.65625m2.2539-6.65625l2.42188-.39843m8.64453.39453l2.23828 6.66015m-2.23828-6.66015l1.6875-1.78125m10.30469 2.58984l4.88672 5.04688m-4.88672-5.04688l.7539-2.33594m-.04296 3.07032l.375-1.16797m12.99609-.13282l3.35156 6.1797m-3.35156-6.1797l1.35938-2.04296m12.24609 1.90234l2.77344 6.45703m-2.77344-6.45703l1.53515-1.91016m14.41407 1.85547l-2.4961 6.57031m2.4961-6.5703l2.4336-.3086m8.68358.21094l1.89844 6.76562m-1.89844-6.76562l1.77344-1.69532m-1.4961 2.6797l.88673-.84767m12.89844-.26171l.40234 7.01562m-.40235-7.01562l2.09766-1.27344"/><g clip-path="url(#Z)"><path fill="none" stroke="#000" stroke-linecap="round" stroke-linejoin="round" stroke-miterlimit="10" stroke-width=".5" d="M147.48438 439.94531l-6.96875.875"/></g><path fill="none" stroke="#000" stroke-linecap="round" stroke-linejoin="round" stroke-miterlimit="10" stroke-width=".5" d="M147.48438 439.94531l1.41406 2.00781m11.92969-1.67187l-7.02344.20313m7.02344-.20313l1.21093 2.13281m12.08594-1.65625l-6.98828-.7461m6.98828.7461l.91406 2.27735m12.41406-2.4336l-7.01562-.4336m7.01563.4336l1.01562 2.23438m12.30078-2.28516l-7.01953-.33203m7.01953.33203l1.05078 2.21484m12.26953-2.32421l-7.02734-.11329m7.02734.11329l1.1172 2.18359m12.05077-3.2461l-6.73437 2.01172m6.73437-2.01171l1.72266 1.74609m11.24219-2.53906l-6.03516 3.59375m5.16016-3.07032l1.04687.63672m12.7461-1.70312l-5.2422 4.67969m5.2422-4.6797l2.30468.85157m11.08594-.76562l-5.39063 4.51171m5.39063-4.51171l2.27344.92187m11.35937-.47656l-6.02734 3.61719m6.02734-3.6172l2.10156 1.26563m11.07032-1.48437l-5.73828 4.05469m5.73828-4.0547l2.1914 1.10548m11.09766-1.13672l-5.6914 4.1211m5.6914-4.1211l2.20703 1.07812m10.96484-1.26562l-5.40234 4.49219m5.40234-4.4922l2.27344.9297m-3.0586-.27344l1.13673.46484m12.8164-1.28906l-5.10937 4.82812m5.10937-4.82812l2.32422.78516m-3.0664-.08204l1.16015.39454m12.76953-1.22266l-4.85547 5.07812m4.85547-5.07812l2.36328.66406m10.73829-.85156l-4.42579 5.45703m4.42579-5.45703l2.41015.46875m10.41797-.80078l-3.45312 6.1211m3.45312-6.1211l2.45313.0586m9.27343-.51173l-.27343 7.02344m.27343-7.02344l2.21094-1.0664m-2.25 2.08984l1.10547-.53516m12.4414-.47265l-.66015 6.9961m.66016-6.9961l2.26562-.94531m-2.35937 1.96093l1.1328-.46875M409.35157 437l1.90235 6.76562M409.35156 437l1.77344-1.69531m14.88672 2.50781l-4.78906 5.14062m4.78906-5.14062l2.3711.63672m-3.06641.11328l1.18359.3164m10.8086-1.98828l-.75391 6.98829m.7539-6.98829l2.27344-.91406m-2.38281 1.92969l1.13672-.45703m13.08203-.3789l-2.34375 6.625m2.34375-6.625l2.42578-.36329m-2.76563 1.32813l2.42579-.36329M450.73828 439l1.21094-.1836m12.51172-1.82812l-1.80078 6.79297m1.80078-6.79297l2.39062-.5586m-2.65234 1.54688l2.39062-.5586"/><g clip-path="url(#aa)"><path fill="none" stroke="#000" stroke-linecap="round" stroke-linejoin="round" stroke-miterlimit="10" stroke-width=".5" d="M147.34375 425.98828l-6.6875 2.16016"/></g><path fill="none" stroke="#000" stroke-linecap="round" stroke-linejoin="round" stroke-miterlimit="10" stroke-width=".5" d="M147.34375 425.98828l1.76172 1.70313m11.54687-1.71875l-6.67578 2.1914m6.67578-2.1914l1.76953 1.69922m11.71875-.76954l-7.01953.33203m7.01953-.33203l1.25391 2.10938m12.0625-1.96485l-7.02344.04297m7.02344-.04297l1.16797 2.15625m12.14844-2.21484l-7.02735.16016m7.02735-.16016l1.19922 2.14063m11.92187-.91016l-6.64062-2.30078m6.64062 2.30078l.3789 2.42578m12.72266-1.9336l-6.21093-3.28515m5.30859 2.80469l.0039 1.23047M240.6211 426.25l-6.83203 1.63672m5.83985-1.39844l.8125.92188m12.70312-2.67578l-5.25 4.66796m5.25-4.66796l2.30078.85156m11.09766-.75781l-5.41406 4.48046m5.41406-4.48046l2.26562.93359m11.17188-.77734l-5.65625 4.16796m5.65625-4.16796l2.21094 1.05859m11.19921-.92188l-5.85156 3.89454m5.85156-3.89454l2.16016 1.16407m10.96875-1.41797l-5.47656 4.40234m5.47656-4.40234l2.2539.96484m11.13673-.86719l-5.62891 4.20704m5.6289-4.20704l2.21876 1.04688m11.10156-1.03906l-5.64063 4.1914m5.64063-4.1914l2.21875 1.05078m10.73047-1.46875l-4.91016 5.02734m4.91016-5.02734l2.35547.6875m11.15625-.48047l-5.30079 4.61328m5.30079-4.61328l2.29296.8789m10.88672-1.02343l-5.03125 4.90234m5.03125-4.90234l2.33985.7461m9.60937-1.6172l-2.29687 6.64454m2.29687-6.64454l2.42188-.3789m11.88672.91797l-4.28516 5.5664m4.28516-5.5664l2.41796.40625m-3.04296.40234l2.42187.40625m12.26953-.42188l-5.78906 3.98047m5.78906-3.98047l2.17578 1.12891m-3.01562-.55078l2.17578 1.13281m11.4375-2.33203l-4.70313 5.22266m4.70313-5.22266l2.3789.59375m-3.0625.16797l2.37891.59375m10.2539-2.11719l-1.97265 6.7461m1.97266-6.7461l2.40234-.4961m-2.6914 1.47657l2.40234-.4961m11.42188-.41015l-2.41407 6.59766m2.41406-6.59766l2.4297-.33984m-2.78126 1.30078l2.42969-.33985m12.4336.11329l-4.8047 5.1289"/><g clip-path="url(#ab)"><path fill="none" stroke="#000" stroke-linecap="round" stroke-linejoin="round" stroke-miterlimit="10" stroke-width=".5" d="M465.96484 424.5039l2.3672.64063"/></g><path fill="none" stroke="#000" stroke-linecap="round" stroke-linejoin="round" stroke-miterlimit="10" stroke-width=".5" d="M465.26563 425.25l2.36718.64063m-3.0664.10546l1.18359.32032"/><g clip-path="url(#ac)"><path fill="none" stroke="#000" stroke-linecap="round" stroke-linejoin="round" stroke-miterlimit="10" stroke-width=".5" d="M146.9375 411.82422l-5.875 3.85547"/></g><path fill="none" stroke="#000" stroke-linecap="round" stroke-linejoin="round" stroke-miterlimit="10" stroke-width=".5" d="M146.9375 411.82422l2.15234 1.17969m-3.0078-.6172l1.07812.58985m12.85156-1.47265l-5.39453 4.5m5.39453-4.5l2.27344.92578m-3.0586-.27344l1.13672.46484m12.59375-1.5l-4.65234 5.26563m4.65234-5.26563l2.38672.57032m11.13281-.375l-5.0625 4.875m4.32422-4.16797l1.16797.38281m13.83984.92187l-6.97265.85157m5.96094-.72657l.70312 1.00391m13.13281 1.1289l-5.99219-3.66796m5.1211 3.13672l-.07422 1.22265m13.17188.42578l-3.8125-5.90234m3.2578 5.04688l-.59765 1.0703m15.9336-2.18358l-6.7461-1.96094m5.76563 1.67578l.25 1.19922m14-3.03125l-6.65235 2.26953m5.6836-1.9375l.89453.83984m12.53906-2.52734l-4.95313 4.98437m4.23438-4.2578l1.17188.35546m12.41015-1.46094L275.125 416.625m4.05078-5.74219l2.4336.30469m10.09375-.72266l-2.47657 6.57813m2.47656-6.57813l2.4336-.3125m8.78515.19532l1.71875 6.8125m-1.46875-5.82422l.91016-.82032m14.13672-.08984l-2.2461 6.65625m1.91798-5.6875l1.21093-.20312m14.74219 1.8125l-6.86719 1.5m5.86719-1.28125l.79688.93359m12.10937-3.27344l-4.05078 5.74219m4.05078-5.74219l2.4375.3086m11.6914.48828l-5.67577 4.14453m5.67578-4.14453l2.20703 1.07031m11.33203-.72266l-6.1211 3.45313m6.1211-3.45313l2.0664 1.32032m10.53907-2.20313l-4.70703 5.21875m4.70703-5.21875l2.38281.59766m-3.0664.16015l1.1914.30078m12.98828-.88671l-5.0664 4.87109m5.0664-4.8711l2.33203.76563m-3.07031-.05469l2.33203.76172m12.01953-1.11718l-5.66015 4.16406m5.66015-4.16406l2.21094 1.0625m-3.03516-.45704l2.21094 1.0625m11.65235-2l-5.10938 4.82422m5.10938-4.82422l2.32421.78516m-3.0664-.08203l2.32422.78516m11.0039-2.07813l-3.65234 6.00781m3.65234-6.00781l2.44922.14063m-2.98047.73437l1.22266.07031m12.35937-1.08984l-3.125 6.29687m3.125-6.29687l2.45313-.07031m-2.91016.98828l1.22656-.03516m13.38672-.29687l-4.80859 5.125"/><g clip-path="url(#ad)"><path fill="none" stroke="#000" stroke-linecap="round" stroke-linejoin="round" stroke-miterlimit="10" stroke-width=".5" d="M465.96484 411.1914l2.3672.64063"/></g><path fill="none" stroke="#000" stroke-linecap="round" stroke-linejoin="round" stroke-miterlimit="10" stroke-width=".5" d="M465.26563 411.9375l2.36718.64063"/><g clip-path="url(#ae)"><path fill="none" stroke="#000" stroke-linecap="round" stroke-linejoin="round" stroke-miterlimit="10" stroke-width=".5" d="M146.72266 398.21875l-5.44532 4.4414"/></g><path fill="none" stroke="#000" stroke-linecap="round" stroke-linejoin="round" stroke-miterlimit="10" stroke-width=".5" d="M146.72266 398.21875l2.26172.94922m-3.0547-.30469l2.26173.95313m11.64062-1.83204l-5.03125 4.90625m5.03125-4.90625l2.33594.75m-3.07031-.03515l2.33984.7461m11.67188-1.4961l-4.96094 4.97656m4.96094-4.97656l2.34765.71484m-3.07031.00781l2.34766.71485m11.37109-1.71875l-4.32031 5.53906m4.3203-5.53906l2.41798.42578m-3.04688.3789l1.21094.21485m10.78125-1.75781l-.41797 7.01562m.35547-5.99219l1.11719-.51171m15.15625 1.35156l-6.21094 3.28906m5.3086-2.8086l1.01562.6875m13.60547.26563l-7.01563.42188m7.01563-.42188l1.27734 2.09375m-2.29687-2.03125l.63672 1.04688m13.51171-2.03906l-6.64453 2.28515m6.64453-2.28515l1.79297 1.67187M253.98828 401l-6.9375-1.1211m5.92969.95704l.39453 1.16015m13.78516-2.6914l-6.64844 2.26953m5.67969-1.9414l.89843.83984m13.38282-1.1836l-6.64453 2.29688m5.67578-1.96094l.89843.83594m13.20704-1.59375l-6.28516 3.14062m6.28515-3.14062l2 1.42187m-2.91406-.96484l1 .71094m13.07813-1.4375l-5.98438 3.67968m5.98438-3.67968l2.11719 1.24218m-2.98829-.70703l1.0586.6211m13.53515-.19922l-6.80078 1.76953m6.80078-1.76953l1.66016 1.80469m10.96875-3.15235l-5.42969 4.46094m4.64063-3.8125l1.13281.47265m8.59375-1.98437l3.32422 6.1914m13.1289-6.28515l-2.94921 6.3789m18.20703-4.01171l-6.83203 1.64453m5.83593-1.40625l.8125.91797m12.81641-2.54297l-5.46875 4.41406m5.46875-4.41406l2.25781.96484m-3.05469-.32031l1.12891.48047m13.41797-.42969l-6.33984 3.02344m6.33984-3.02344l1.97266 1.46094m11.6289-.57422l-6.91406 1.25m6.91406-1.25l1.51953 1.92969m11.1836-3.36719l-5.6875 4.125m5.6875-4.125l2.20312 1.07813m10.79297-1.45704l-5.05078 4.88282m5.05078-4.88282l2.33594.75782m10.15625-1.39063l-3.40625 6.14844m3.40625-6.14844l2.45312.04297m11.39454.32031l-4.47266 5.42188"/><g clip-path="url(#af)"><path fill="none" stroke="#000" stroke-linecap="round" stroke-linejoin="round" stroke-miterlimit="10" stroke-width=".5" d="M465.79688 397.72656l2.40625.49219"/></g><path fill="none" stroke="#000" stroke-linecap="round" stroke-linejoin="round" stroke-miterlimit="10" stroke-width=".5" d="M465.14844 398.51563l2.40234.49218"/><g clip-path="url(#ag)"><path fill="none" stroke="#000" stroke-linecap="round" stroke-linejoin="round" stroke-miterlimit="10" stroke-width=".5" d="M146.83203 385.04297l-5.66406 4.16015"/></g><path fill="none" stroke="#000" stroke-linecap="round" stroke-linejoin="round" stroke-miterlimit="10" stroke-width=".5" d="M146.83203 385.04297l2.21094 1.0664m-3.03516-.46093l2.21094 1.0664m12.16797-1.29687l-6.14453 3.41015m6.14453-3.41015l2.0586 1.33203m-2.95313-.83594l1.03125.66797m13.1289-1.25l-6.04687 3.58203m6.04687-3.58203l2.09766 1.27735m-2.97656-.75391l2.09375 1.27734m12.01172-1.9414l-5.8672 3.86328m5.8672-3.86328l2.15234 1.17578m-3.0039-.61328l2.15234 1.17578m12.35156-1.08985l-6.54297 2.56641m6.54297-2.5664l1.86328 1.59765m-2.8164-1.22266l.93359.79688m13.51953-.51172l-6.91406 1.2461m6.91406-1.2461l1.51953 1.92578m-2.52344-1.7461l.75782.96485m13.61718-.47265l-7.02343-.09766m7.02343.09765l1.125 2.1836m12.09375-1.40625l-6.83203-1.65235m6.83203 1.65235l.60938 2.375m12.80078-3.34375l-7.01953.28515m7.01953-.28515l1.23828 2.11719m12.07422-2.1797l-7.01563.41017m5.9961-.35157l.63672 1.05078m13.48047.32422l-6.58204-2.45703m6.58204 2.45703l.3203 2.4336m10.19141-.1836l-.97656-6.95703m.83594 5.94531l-.99219.72266m17.16016-4.64063l-6.39844 2.90235m19.86328-2.51563l-6.69922 2.12891m5.72266-1.82031l.8789.85937m13.01172-2.01562l-5.89843 3.82422m5.89843-3.82422l2.14454 1.19531m10.72265-1.75l-5 4.9375m4.27344-4.22266l1.16797.3672m13.49219 3l-6.23829-3.23048m6.23829 3.23047l.03125 2.45313m13.67578-4.17188l-7.02344.20703m7.02344-.20703l1.21484 2.1289m-2.23437-2.09765l.60546 1.0625m13.53516-2.15234l-6.63281 2.32422m6.63281-2.32422l1.80078 1.66015m11.3086-2.1328l-6.22266 3.26952m6.22266-3.26953l2.02734 1.38281m11.27734-1.40234l-6.19922 3.3086m6.19922-3.3086l2.03516 1.3711m11.09375-1.6797l-5.82813 3.92579m4.98047-3.35156l1.08203.57421m13.00782-1.25l-5.6836 4.12891m5.6836-4.1289l2.20703 1.07421m10.15625-1.97265l-3.77735 5.92578m3.22657-5.0625l1.22265.09375m12.92188-.75781l-4.33985 5.52734"/><g clip-path="url(#ah)"><path fill="none" stroke="#000" stroke-linecap="round" stroke-linejoin="round" stroke-miterlimit="10" stroke-width=".5" d="M465.73047 384.35938l2.41797.43359"/></g><path fill="none" stroke="#000" stroke-linecap="round" stroke-linejoin="round" stroke-miterlimit="10" stroke-width=".5" d="M465.10156 385.16406l1.20703.21485"/><g clip-path="url(#ai)"><path fill="none" stroke="#000" stroke-linecap="round" stroke-linejoin="round" stroke-miterlimit="10" stroke-width=".5" d="M146.5 371.33984l-5 4.9375"/></g><path fill="none" stroke="#000" stroke-linecap="round" stroke-linejoin="round" stroke-miterlimit="10" stroke-width=".5" d="M146.5 371.33984l2.33984.73047m-3.0664-.01172l1.16797.36329m13.1875-.71875l-5.625 4.21093m5.625-4.21094l2.21875 1.04297m11.40625-.54296l-6.25 3.21093m6.25-3.21094l2.01562 1.39844m11.36719-1.26172l-6.38281 2.9375m6.3828-2.9375l1.95313 1.48438m11.4297-1.33203l-6.51563 2.63281m6.51562-2.63281l1.8789 1.57812m-2.82812-1.19531l.9414.78906m13.5586-.22265l-6.98828.73046m6.98828-.73046l1.3711 2.03515m11.88672-.9414l-6.875-1.45313m6.875 1.45313l.67968 2.35937m-1.67969-2.57031l.33985 1.17969m13.98047-.98829l-6.88672-1.41406m6.88672 1.41406l.6914 2.35157m12.69141-3.13672l-7.02344.15625m7.02344-.15625l1.20313 2.13672m12.10546-1.82031l-7.0078-.48047m5.98827.41015l.5 1.1211m13.80469-.76954l-6.94922-1.03906m6.94922 1.03906l.82031 2.3125m11.8789-.78906l-5.71874-4.08594m4.88672 3.4922l-.16016 1.21484m11.02344.82421l.85156-6.97656m16.39844 3.67188l-7.01953-.36719m20.08593-1.1211l-6.52343 2.60938m5.57422-2.23047l.9375.79297m13.55859-.2461l-6.98438.75391m6.98438-.7539l1.3789 2.03125m11.86329-.84766l-6.83985-1.60937m6.83985 1.60937l.625 2.3711m12.64453-2.19922l-6.75-1.95704m6.75 1.95704l.5039 2.40234m12.88672-2.72266l-6.90234-1.3125m5.89844 1.1211l.36328 1.17187m13.98047-2.14453l-6.95313 1.01563m5.94531-.8672l.72657.98829m13.5664-1.3125l-6.89062 1.36719m6.89062-1.36719l1.5547 1.89844m11.49608-2.71094l-6.35937 2.98828m5.4336-2.55078l.98046.73438m13.14063-1.40235l-6.1211 3.45313m5.23047-2.95313l1.03516.66016m12.16797-2.28125l-4.11719 5.69531m3.51953-4.86719l1.21484.16797m11.52344-1.55078l-1.76953 6.80078m1.76953-6.80078l2.38672-.5664"/><g clip-path="url(#aj)"><path fill="none" stroke="#000" stroke-linecap="round" stroke-linejoin="round" stroke-miterlimit="10" stroke-width=".5" d="M144.10547 356.98047l-.21094 7.02344"/></g><g clip-path="url(#ak)"><path fill="none" stroke="#000" stroke-linecap="round" stroke-linejoin="round" stroke-miterlimit="10" stroke-width=".5" d="M144.10547 356.98047l2.19922-1.08594"/></g><path fill="none" stroke="#000" stroke-linecap="round" stroke-linejoin="round" stroke-miterlimit="10" stroke-width=".5" d="M158.63281 357.23828L155.9961 363.75m2.25391-5.5664l1.22266-.125m14.01562.39062l-5.71484 4.08984m4.88281-3.4961l1.09766.54688m13.70312.94532l-7.02344-.08204m6.00391.07032l.5625 1.08984m12.85547 1.25l-5.1914-4.73828m4.4375 4.04688l-.3086 1.1914m15.00781-1.47656l-6.45312-2.78516m5.51562 2.3789l.09766 1.22267m14.23828-1.02735l-6.61719-2.36328m6.61719 2.36328l.35547 2.42578m12.79687-2.04297l-6.29297-3.1289m6.29297 3.1289l.0664 2.45313m13.52345-3.21875l-6.84375-1.59766m6.84375 1.59766l.6289 2.3711m12.75-2.71094l-6.96875-.92188m6.96875.92188l.85547 2.30078m12.44922-2.23438l-6.94922-1.05078m6.94922 1.05078l.8125 2.3164m12.51563-2.41796l-6.97657-.85156m5.96094.73046l.4414 1.14454m11.64844 1.83593l-2.49218-6.5703m2.1289 5.61327l-.8086.92578m14 .1797l-1.51952-6.86329m1.29687 5.86328l-.9336.79688m16.77735-1.51172l-6.1289-3.4375m5.23437 2.9375l-.02734 1.22656m14.25-.75l-6.15625-3.38672m5.26172 2.89453l-.01954 1.22656m14.4375-1.18359l-6.57421-2.49219m6.57421 2.4922l.3086 2.43358m13.16797-3l-6.89453-1.35546m6.89453 1.35546l.71094 2.34766m12.53906-2.08203l-6.76563-1.89063m5.78125 1.6172l.26563 1.1953m12.48437-4.86328l-3.66797 5.9922m13.83594-6.25392l2.6289 6.51563m11.83204-6.76563l.33594 7.01954m13.0039-7.01954l.28516 7.01954m-.24219-6l1.0586-.6211m12.51562-.39844l-.3164 7.01954m.26952-6l1.10547-.52735m11.9297-.49219l.33202 7.01954m-.28125-6l1.05469-.625"/><g clip-path="url(#al)"><path fill="none" stroke="#000" stroke-linecap="round" stroke-linejoin="round" stroke-miterlimit="10" stroke-width=".5" d="M142.125 344.20703l3.75 5.9414"/></g><path fill="none" stroke="#000" stroke-linecap="round" stroke-linejoin="round" stroke-miterlimit="10" stroke-width=".5" d="M154.9414 344.58984l4.75 5.17579m-4.05859-4.42188l.40625-1.15625m11.08203 3.13281l7.01953-.28515m-6 .24609l-.61718-1.0625m14.65234 3.9961l3.53906-6.07032m-3.02343 5.1836l-1.22657-.04688m14.62891 1.21094l2.33594-6.6289m-1.9961 5.66405l-1.21484.1836m14.53125.88281l1.65234-6.83203m-1.41406 5.83594l-1.1875.30468m16.03906.66016l-1.89843-6.76953m1.62109 5.78515l-.88672.84375m15.60547-.41015l-4.15234-5.66797m3.55078 4.84375l-.53516 1.10547m14.3164-.1836l-3.8789-5.85937m3.3125 5.0039l-.58594 1.07813m15.44532-1.19922l-5.83985-3.91015m4.99219 3.33984l-.125 1.22266m14.66016-1.375l-6.58203-2.46094m5.625 2.10156l.16015 1.21485m14.29297-1.54688l-6.94531-1.08203m5.9336.92578l.40624 1.15625m13.83985-2.45703l-6.78516 1.83203m5.80078-1.5625l.83594.89453m13.48828.58203l-6.83203-1.65625m13.73437 2.66406l5.99219-3.67187m13.42188 3.48438l-6.20313-3.30079m5.30078 2.82032v1.22656m14.27735-.85938l-6.32422-3.0703m5.40234 2.62108l.04688 1.22657m14.44921-1.51172l-6.83984-1.60547m5.84375 1.3711l.3125 1.1875m14.07031-2.14063l-6.98437.76953m5.96875-.65625l.6914 1.01172m12.90625-2.91406l-5.51953 4.35156m4.71485-3.71875l1.125.49219m11.39062-2.26954l-2.3125 6.63672m1.97656-5.67187l1.21094-.1875m12.0625-.88672l-1.55469 6.85547m1.32813-5.85547l1.1836-.32422m9.90624-.33594l3.34766 6.17579m-2.85938-5.27735l.67579-1.02344m10.67187 1.66016l6.30469 3.10547m-5.38672-2.65235l-.03906-1.22656m15.8789-1.17578l-.57812 7.0039m.49219-5.98437l1.1289-.48437"/><g clip-path="url(#am)"><path fill="none" stroke="#000" stroke-linecap="round" stroke-linejoin="round" stroke-miterlimit="10" stroke-width=".5" d="M141.98438 330.98438l4.03125 5.7578"/></g><path fill="none" stroke="#000" stroke-linecap="round" stroke-linejoin="round" stroke-miterlimit="10" stroke-width=".5" d="M154 332.69922l6.6289 2.32422m-5.66406-1.98438l-.1875-1.21484m12.38672 2.60547l6.9336-1.13281m-5.92578.96875l-.7422-.97657m13.3125 2.01563l6.40626-2.88281m-5.47656 2.46484l-.96875-.7539m14.82812 2.78906l3.45703-6.1172m-2.95312 5.22657L194.80859 336m13.58203.61719l4.3672-5.50781m-3.73048 4.70703l-1.20703-.22266m15.3086 1.69922l1.52343-6.85938m-1.30078 5.86329l-1.1836.32812m14.97267.75l.1328-7.02344m-.11327 6.0039l-1.09375.5547m13.01172.15625l2.88671-6.40625m-2.46875 5.47265l-1.22265.08203m13.58594.5547l3.95312-5.8125m12.60547 6.18358l-2.53516-6.55468m2.16797 5.60156l-.80078.92578m15.2539-.39062l-4.07812-5.71875m3.48828 4.88671l-.55078 1.09766m15.92969-3.19922l-7.02344.14844m6-.125l.60156 1.07031m13.67578-1.67578l-6.90234 1.3125m5.89844-1.1211l.76953.95704m13.46484-1.5039l-6.73047 2.02343m6.73047-2.02344l1.72657 1.74219m11.58203-1.75781l-6.71875 2.05469m5.74218-1.75391l.8672.86719m13.52343.48437l-6.91797-1.25m5.91016 1.0664l.375 1.17188m12.6289 1.17188l-4.28125-5.57031m3.66016 4.76171l-.51172 1.1172m15.8164-2.91017l-7.01562-.36718m5.9961.3125l.51562 1.11328m8.05469-3.9375l4.51172 5.39062m-3.85547-4.60546l.46094-1.13672m11.78125.76562l5.34765 4.5586m-4.57031-3.89454l.26562-1.19921m11.80079 1.25l6.28906 3.1328m-5.375-2.67577l-.03516-1.22657m12.11328 1.76172l6.9336 1.14844m-5.92578-.98047l-.39063-1.16406m13.39844-.59766l5.53125 4.33203m-4.72656-3.69921l.21484-1.20704m13.76953-.52343l2.58594 6.53125m-2.21094-5.58204l.79688-.93359"/><g clip-path="url(#an)"><path fill="none" stroke="#000" stroke-linecap="round" stroke-linejoin="round" stroke-miterlimit="10" stroke-width=".5" d="M144.67578 317.10156l-1.35156 6.89453"/></g><path fill="none" stroke="#000" stroke-linecap="round" stroke-linejoin="round" stroke-miterlimit="10" stroke-width=".5" d="M144.48047 318.10156l1.17187-.35547m9.08985.41016l5.14453 4.78516m7.29687-1.70313l6.89063-1.38281m-5.88672 1.1836l-.77734-.94923m13.5039 2.23438l6.0625-3.55469m-5.17969 3.03906l-1.04687-.64453m13.90234 1.73828l5.21485-4.71093m-4.45703 4.02734l-1.15235-.41797m13.59766.97266l5.4375-4.45313m-4.64453 3.80469l-1.13281-.47266m13.6328 1.09375l5.48438-4.39843m-4.6875 3.7578l-1.125-.48437m13.79688 1.3047l5.17578-4.75392m-4.42188 4.0625l-1.15625-.40625m13.54297.89063l5.52735-4.33984m-4.72266 3.70703l-1.1211-.4961m13.9961 1.52344l4.79688-5.13281m-4.10157 4.38672l-1.1836-.3164m14.57813 1.61327l3.2461-6.23047M276 322.75781l-1.22656.00781m15.51953 1.29297l.34375-7.01953m-.29297 5.9961l-1.10938.52343m15.46094.38282l-1.82812-6.78516m1.5625 5.79688l-.89453.83984m15.73437-.48438l-4.34765-5.51953m3.71484 4.71485l-.4961 1.125m15.76172-3.47266l-6.98437.78516m5.96875-.67188l.6914 1.01172m13.44532-1.9414l-6.59766 2.41796m6.59766-2.41797l1.82812 1.63672m11.52735-1.52734l-6.67579 2.19922m6.67579-2.19922l1.76953 1.69531m11.61328.26953l-6.8086-1.73437m5.81641 1.48437l.29297 1.1914m13.36719-3.98437l-5.51563 4.35157m5.51563-4.35157l2.2461.98829m10.74608-1.34375l-4.87109 5.0664m4.8711-5.0664l2.35937.67187m10.84766-.76953l-4.65625 5.26172m4.65625-5.26172l2.38671.57422m8.85547-1.44922l-.5078 7.00781m.5078-7.00781l2.2422-.99219m-2.31642 2.01172l1.1211-.4961m9.74219.30079l4.53906 5.36328m-4.53906-5.36328l.91015-2.28125m15.32813 1.50781L449.59375 324m1.11328-5.89844l1.17188-.36719m12.41406-.625l-1.46094 6.875m1.46094-6.875l2.35547-.67578"/><path fill="#00f" fill-rule="evenodd" d="M397.11719 458.77344h8.61719V448.625h-8.6172v10.14844"/><path fill="azure" fill-rule="evenodd" d="M398.94922 450.45703h.83203v2.82422h3.28516v-2.82422h.83593v6.48047h-.83593v-2.91406h-3.28516v2.91406h-.83203v-6.48047"/><path fill="#ff3030" fill-rule="evenodd" d="M198.08203 445.45703h7.69531V435.3125h-7.6953v10.14453"/><path fill="azure" fill-rule="evenodd" d="M199.91797 437.14453h.83203v5.73828h3.19531v.74219h-4.02734v-6.48047"/><path fill="#ff3030" fill-rule="evenodd" d="M326.79688 441.01953h7.6914V430.8711h-7.6914v10.14844"/><path fill="azure" fill-rule="evenodd" d="M328.6289 432.70703h.83204v5.73828h3.19531v.73828h-4.02734v-6.47656"/><path fill="#00f" fill-rule="evenodd" d="M388.23828 432.14063h8.61719v-10.14454h-8.61719v10.14454"/><path fill="azure" fill-rule="evenodd" d="M390.07031 423.82813h.83594v2.82421h3.28516v-2.82421h.83203v6.48046h-.83203v-2.91796h-3.28516v2.91796h-.83594v-6.48046"/><path fill="#00f" fill-rule="evenodd" d="M219.58203 414.38672h8.61719v-10.14453h-8.61719v10.14453"/><path fill="azure" fill-rule="evenodd" d="M221.41406 406.07422h.83203v2.82422h3.28907v-2.82422h.83203v6.48047h-.83203v-2.91406h-3.28907v2.91406h-.83203v-6.48047"/><path fill="#ff3030" fill-rule="evenodd" d="M175.89063 401.07422h7.6953v-10.14844h-7.6953v10.14844"/><path fill="azure" fill-rule="evenodd" d="M177.72656 392.76172h.83203V398.5H181.75v.73828h-4.02344v-6.47656"/><path fill="#ff3030" fill-rule="evenodd" d="M282.41406 396.63281h7.6914v-10.14453h-7.6914v10.14453"/><path fill="azure" fill-rule="evenodd" d="M284.2461 388.32031h.83202v5.74219h3.19532v.73828h-4.02735v-6.48047"/><path fill="#ffffe0" fill-rule="evenodd" d="M427.48047 427.9336h22.17969v-10.19141h-22.1797v10.1914"/><path fill-rule="evenodd" d="M430.98047 419.57422h.50781v6.29687h-.78515v-4.49218h-1.38672v-.5547l.55859-.0625.25-.05468.23047-.08984.20312-.14063.17579-.21094.14062-.29687.10547-.39453m4.8125 0l.23047.01953.21875.05469.20703.08984.19922.1211.1836.15234.17187.17187.30078.42188.24219.49219.17968.54687.11328.57813.03907.59375-.03907.59375-.11328.58203-.17969.55469-.24218.5-.30078.42968-.17188.17969-.1836.15234-.19921.125-.20703.08985-.21875.0586-.23047.01952-.22656-.01953-.21875-.0586-.21094-.08984-.19531-.125-.1836-.15234-.17187-.17969-.30078-.42969-.2422-.5-.17968-.55468-.11328-.58203-.03906-.59375h.83594l.02734.5625.08203.5039.125.44531.16406.375.1914.30079.20704.21875.22266.13671.22656.04688.22656-.04688.22266-.13671.21094-.21875.1914-.30079.16406-.375.125-.4453.08204-.50391.02734-.5625-.02735-.5625-.08203-.5-.125-.4375-.16406-.36329-.1914-.29296-.21094-.21485-.22266-.13281-.22656-.04297-.22656.04297-.22266.13281-.20703.21485-.1914.29296-.16407.36329-.125.4375-.08203.5-.02735.5625h-.83593l.03906-.59375.11328-.57813.17969-.54687.24219-.4922.30078-.42187.17187-.17187.1836-.15235.1953-.12109.21095-.08984.21875-.05469.22656-.01953m5.09375 0h.50781v6.29687h-.78515v-4.49218h-1.39063v-.5547l.5625-.0625.25-.05468.23047-.08984.20312-.14063.17579-.21094.14062-.29687.10547-.39453m2.82422 2.17578h.78515l.01954-.3164.05859-.28516.10156-.2539.14063-.21485.17968-.17188.22266-.1289.26563-.08204.30859-.02734.23828.01953.22266.0625.20312.10156.17969.14063.14844.17188.11328.20703.07422.23437.02343.26563-.02343.26953-.0625.22265-.11329.19141-.15234.17188-.20312.16406-.2461.16406-.63281.39063-.53906.3125-.4375.3164-.34766.32422-.26172.33594-.1914.35156-.125.3711-.07032.39062-.01953.42187h4.21094v-.74218h-3.33203l.08594-.28516.11328-.23438.14844-.20312.1875-.17969.23046-.17187.27735-.17578.71875-.41407.41406-.20703.34375-.23047.28125-.25.21875-.26953.16406-.27734.11328-.28516.0625-.28515.01954-.28125-.04297-.38282-.1172-.34765-.1914-.3086-.25-.26171-.30078-.21094-.34765-.16016-.37891-.09765-.40625-.03516-.4336.03515-.39843.09766-.35547.16797-.30469.23438-.25.30078-.1836.375-.11718.4453-.03906.51954"/><path fill="#ffffe0" fill-rule="evenodd" d="M343.52734 387.98828h22.1797v-10.1914h-22.1797v10.1914"/><path fill-rule="evenodd" d="M347.02734 379.6289h.50782v6.29688H346.75v-4.49219h-1.39063v-.55468l.5586-.0625.2539-.0547.23047-.08983.20313-.14063.17187-.21094.14454-.29297.10546-.39843m4.8125 0l.23047.01953.21875.05469.20703.08984.19532.1211.18359.15234.17188.17578.30468.41797.24219.49218.17969.54688.10937.57812.03906.59375-.03906.59375-.10937.58204-.17969.55468-.24219.5-.30469.42969-.17187.17969-.1836.15234-.1953.125-.20704.08985-.21875.05859-.23047.01953-.23046-.01953-.21875-.0586-.20704-.08984-.1953-.125-.1836-.15234-.17188-.17969-.30469-.42969-.24218-.5-.17969-.55469-.10938-.58203-.03906-.59375h.83203l.03125.5625.07813.50391.1289.44531.16016.375.1914.30078.21094.21875.22266.13672.22656.04688.22657-.04688.22265-.13672.21094-.21875.1914-.30078.16016-.375.1289-.44531.08204-.5039.02734-.5625-.02734-.5625-.08203-.5-.1289-.4375-.16016-.36329-.19141-.29297-.21094-.21484-.22265-.1289-.22657-.04688-.22656.04687-.22265.12891-.21094.21484-.1914.29297-.16017.36328-.1289.4375-.07813.5-.03125.5625h-.83203l.03906-.59375.10938-.57812.17969-.54688.24219-.49218.30468-.41797.17188-.17578.1836-.15235.1953-.1211.20704-.08983.21875-.0547.23046-.01952m5.08985 0h.51172v6.29687h-.78907v-4.49219h-1.38671v-.55468l.55859-.0625.2539-.0547.22657-.08983.20703-.14063.17187-.21094.14063-.29297.10547-.39843m2.82422 2.17578h.78906l.01953-.3164.0586-.28517.09765-.2539.14063-.21485.18359-.17187.22265-.1289.26563-.08204.30469-.02734.23828.02344.22656.0625.20313.10156.17968.13672.14844.17187.11328.20703.07031.23438.02735.26562-.02344.26954-.0664.22265-.10938.1914-.15625.17188-.19922.16406-.2461.16407-.63671.39062-.53516.3125-.4375.3164-.34765.32423-.26563.33594-.1875.35156-.125.3711-.07031.39062-.01953.42187h4.21094v-.74219h-3.33204l.08204-.28515.11328-.23438.14843-.20312.1875-.17969.23047-.17188.27735-.17578.71875-.41406.41406-.20703.34765-.23047.28125-.25.21875-.26953.16407-.27734.10937-.28516.0664-.28516.01954-.28125-.04297-.3828-.1211-.34767-.1875-.30859-.25-.26172-.30468-.21094-.34375-.16015-.3789-.09766-.41016-.03515-.4336.03515-.39843.09766-.35547.16797-.30469.23437-.2461.30078-.1875.375-.11327.44532-.04297.51953"/><path fill="#ffffe0" fill-rule="evenodd" d="M235.22266 371.3711h22.17968v-10.19141h-22.17968v10.1914"/><path fill-rule="evenodd" d="M238.72266 363.01172h.5078v6.29297h-.78515v-4.48828h-1.39062v-.5547l.5625-.0664.25-.05469.23047-.08984.20312-.14062.17578-.21094.14063-.29297.10547-.39453m4.8125 0l.23047.01953.21875.05469.20703.08984.19922.1211.18359.14843.17187.17578.30078.41797.2422.4961.17968.54687.11328.57813.03906.58984-.03906.59375-.11328.58594-.17969.55469-.24219.5-.30078.42968-.17187.17969-.1836.15234-.19921.1211-.20703.09375-.21875.0586-.23047.01952-.22657-.01953-.21875-.0586-.21093-.09374-.19532-.1211-.18359-.15234-.17188-.17969-.30078-.42969-.24609-.5-.17969-.55468-.10937-.58594-.03906-.59375h.83203l.03125.5625.08203.50781.125.4414.16406.375.1875.30079.21094.22266.22265.13671.22657.04688.22656-.04688.22266-.13671.21093-.22266.1914-.30078.16407-.375.125-.4414.08203-.50782.02735-.5625-.02735-.5586-.08203-.5039-.125-.4336-.16406-.36718-.1914-.28906-.21095-.21485-.22265-.13281-.22656-.04297-.22657.04297-.22265.13281-.21094.21485-.1875.28906-.16406.36719-.125.43359-.08203.5039-.03125.5586h-.83203l.03906-.58984.10937-.57813.17969-.54687.2461-.4961.30077-.41797.17188-.17578.1836-.14844.1953-.12109.21094-.08984.21875-.05469.22657-.01953m5.09375 0h.5078v6.29297h-.78515v-4.48828h-1.39062v-.5547l.5586-.0664.2539-.05469.23047-.08984.20312-.14062.17188-.21094.14453-.29297.10547-.39453m2.82422 2.17578h.78515l.01953-.3164.0586-.28516.10156-.2539.13672-.21485.1836-.17578.22265-.12891.26562-.07813.3086-.02734.23828.01953.22265.0625.20313.10156.17969.14063.14843.17188.11328.20703.07032.23437.02734.26563-.02344.26562-.0664.22656-.10938.19141-.15625.17188-.19922.16015-.24609.16797-.63281.39063-.53906.3125-.4375.3164-.34766.32422-.26172.33594-.1914.35156-.125.36719-.07032.39453-.01953.41797h4.21094v-.73828h-3.33203l.08203-.28516.11328-.23828.14844-.19922.1875-.17969.23047-.17187.28125-.17578.71484-.41797.41797-.20313.34375-.23047.28125-.2539.21875-.26563.16406-.27734.11328-.28516.0625-.28515.01953-.28125-.04297-.38282-.11718-.34765-.19141-.3086-.25-.26171-.30078-.21485-.34766-.15625-.3789-.09765-.40625-.03516-.4375.03125-.39844.10156-.35156.16406-.3047.23438-.25.30469-.18358.375-.1172.4453-.03905.51954"/></g></defs><use xlink:href="#ao"/></svg>