<svg xmlns="http://www.w3.org/2000/svg" role="img" xmlns:xlink="http://www.w3.org/1999/xlink" viewBox="142.45 309.95 326.84 171.84"><defs><clipPath id="a"><path d="M144 446h1v34.32813h-1zm0 0"/></clipPath><clipPath id="b"><path d="M144 311.67188h1V444h-1zm0 0"/></clipPath><clipPath id="c"><path d="M144 311.67188h324v168.65625H144zm0 0"/></clipPath><clipPath id="d"><path d="M467 311.67188h1V476h-1zm0 0"/></clipPath><clipPath id="e"><path d="M144 480h4v.32813h-4zm0 0"/></clipPath><clipPath id="f"><path d="M146 480h2v.32813h-2zm0 0"/></clipPath><clipPath id="g"><path d="M153 479h9v1.32813h-9zm0 0"/></clipPath><clipPath id="h"><path d="M159 480h2v.32813h-2zm0 0"/></clipPath><clipPath id="i"><path d="M166 479h9v1.32813h-9zm0 0"/></clipPath><clipPath id="j"><path d="M172 480h2v.32813h-2zm0 0"/></clipPath><clipPath id="k"><path d="M180 478h8v2.32813h-8zm0 0"/></clipPath><clipPath id="l"><path d="M193 478h8v2.32813h-8zm0 0"/></clipPath><clipPath id="m"><path d="M207 478h7v2.32813h-7zm0 0"/></clipPath><clipPath id="n"><path d="M220 478h8v2.32813h-8zm0 0"/></clipPath><clipPath id="o"><path d="M225 480h2v.32813h-2zm0 0"/></clipPath><clipPath id="p"><path d="M233 479h8v1.32813h-8zm0 0"/></clipPath><clipPath id="q"><path d="M239 480h2v.32813h-2zm0 0"/></clipPath><clipPath id="r"><path d="M246 479h9v1.32813h-9zm0 0"/></clipPath><clipPath id="s"><path d="M252 479h2v1.32813h-2zm0 0"/></clipPath><clipPath id="t"><path d="M260 479h8v1.32813h-8zm0 0"/></clipPath><clipPath id="u"><path d="M266 479h2v1.32813h-2zm0 0"/></clipPath><clipPath id="v"><path d="M273 478h8v2.32813h-8zm0 0"/></clipPath><clipPath id="w"><path d="M286 479h9v1.32813h-9zm0 0"/></clipPath><clipPath id="x"><path d="M300 479h8v1.32813h-8zm0 0"/></clipPath><clipPath id="y"><path d="M305 479h3v1.32813h-3zm0 0"/></clipPath><clipPath id="z"><path d="M313 478h8v2.32813h-8zm0 0"/></clipPath><clipPath id="A"><path d="M328 476h5v4.32813h-5zm0 0"/></clipPath><clipPath id="B"><path d="M341 477h6v3.32813h-6zm0 0"/></clipPath><clipPath id="C"><path d="M353 479h8v1.32813h-8zm0 0"/></clipPath><clipPath id="D"><path d="M353 479h2v1.32813h-2zm0 0"/></clipPath><clipPath id="E"><path d="M366 479h9v1.32813h-9zm0 0"/></clipPath><clipPath id="F"><path d="M367 478h2v2.32813h-2zm0 0"/></clipPath><clipPath id="G"><path d="M379 479h9v1.32813h-9zm0 0"/></clipPath><clipPath id="H"><path d="M380 478h2v2.32813h-2zm0 0"/></clipPath><clipPath id="I"><path d="M393 479h8v1.32813h-8zm0 0"/></clipPath><clipPath id="J"><path d="M391 478h3v2.32813h-3zm0 0"/></clipPath><clipPath id="K"><path d="M406 479h9v1.32813h-9zm0 0"/></clipPath><clipPath id="L"><path d="M405 478h3v2.32813h-3zm0 0"/></clipPath><clipPath id="M"><path d="M406 479h3v1.32813h-3zm0 0"/></clipPath><clipPath id="N"><path d="M419 479h9v1.32813h-9zm0 0"/></clipPath><clipPath id="O"><path d="M418 478h3v2.32813h-3zm0 0"/></clipPath><clipPath id="P"><path d="M420 479h2v1.32813h-2zm0 0"/></clipPath><clipPath id="Q"><path d="M433 479h8v1.32813h-8zm0 0"/></clipPath><clipPath id="R"><path d="M431 478h3v2.32813h-3zm0 0"/></clipPath><clipPath id="S"><path d="M446 480h9v.32813h-9zm0 0"/></clipPath><clipPath id="T"><path d="M445 477h2v3.32813h-2zm0 0"/></clipPath><clipPath id="U"><path d="M459 479h9v1.32813h-9zm0 0"/></clipPath><clipPath id="V"><path d="M458 477h3v3.32813h-3zm0 0"/></clipPath><clipPath id="W"><path d="M144 466h4v2h-4zm0 0"/></clipPath><clipPath id="X"><path d="M144 452h4v4h-4zm0 0"/></clipPath><clipPath id="Y"><path d="M144 439h4v3h-4zm0 0"/></clipPath><clipPath id="Z"><path d="M144 424h3v6h-3zm0 0"/></clipPath><clipPath id="aa"><path d="M144 411h4v6h-4zm0 0"/></clipPath><clipPath id="ab"><path d="M144 398h4v5h-4zm0 0"/></clipPath><clipPath id="ac"><path d="M144 384h3v7h-3zm0 0"/></clipPath><clipPath id="ad"><path d="M144 370h2v8h-2zm0 0"/></clipPath><clipPath id="ae"><path d="M144 368h2v3h-2zm0 0"/></clipPath><clipPath id="af"><path d="M144 358h4v5h-4zm0 0"/></clipPath><clipPath id="ag"><path d="M144 345h4v5h-4zm0 0"/></clipPath><clipPath id="ah"><path d="M144 330h3v8h-3zm0 0"/></clipPath><clipPath id="ai"><path d="M144 316h1v9h-1zm0 0"/></clipPath><clipPath id="aj"><path d="M144 315h3v3h-3zm0 0"/></clipPath><clipPath id="ak"><path d="M144 317h2v2h-2zm0 0"/></clipPath><clipPath id="al"><path d="M466 318h2v3h-2zm0 0"/></clipPath><clipPath id="am"><path d="M465 319h3v2h-3zm0 0"/></clipPath><g id="an" clip-path="url(#clip1)"><path fill="#fff" fill-opacity="0" fill-rule="evenodd" d="M0 0h1000v1000H0zm0 0"/><path fill="#d3d3d3" fill-opacity="0" fill-rule="evenodd" d="M162.15234 355.86719l-.23437.29297.0586.23437.11718.17188.17578.23437.29297.34766.11328.0586.11719-.17188.0586-.23438.17577-.17578.46485-.17578h.69922l.23437.29297.28906.8164.0586.17579.17578.23046.35156.23438.69922.69922.17188.17578.23437.34765.23438.41016.28906.58203.41015.46485.23047.23437.23438.17578.11719.23047.17578.29297.17187 1.16406v.23438l.0586.28906.05859.11719.11719.11719.34765.41015.11719.17188.17578.17578.17578.23437.11719.17188.17188.35156.05859.23438.23437.40625.23438-.0586-.17578.17578-.0586.92969h-.58203l-.23437-.11328-.34766.11328-.11719.11719-.05859.29297-.0586.17578-.11718.17187-.46484.29297-.0586.23438-.0586.11328v.64453l.0586.17187v.41016l.0586.0586v.40624l.05859.40625.11719.17579.05859.05859.23047.64062-.0586.29297v.69922l-.05859.58203v.23438l-.0586.23047-.05468.35156v1.92187l.05469.1172h.42578l-.36719.11718-.02344.35156.89063 1.16797 1.74219.53906 1.33984.35938v.53906l.08984.8086.53516.71484 1.51953.26953.89063-.08594.08984 1.16406.53516.1797 1.16015-.1797 2.05469-.98437 1.16016-.36328 1.8789-.17578 1.69531-.1797-.17968.71876-1.51563.08594-1.25.08984-.80469.26953-1.07421.8086.26953.71875.53515.89843-.17968.625-.26563.8086.26563 1.07812.625.89844.80468.17969 1.25-.1797-.26562.72267.09766.5039.05468.29297v.17188l.0586.29296v.40625l.17578.1172.35156.11718h.40625l.29297-.17578.11328-.11719.0586-.11719.11718-.23047.0586-.17578.35156-.46484.23047-.17578.17578-.0586.17578.0586.0586.17578.11718.98828.05469.46875.0586.17188.11718.23437.17578.0586.8164.05859h.28907l.11719.23437.05859.40625.0586.35156v1.10547l.11718.29297.11719.34766.28906.69922.17578.35156.58203.7539.35157.17579.17187.0586.46875.23437.64063.46484.34765.23438.29297.17578.29297.05468.23047.0625.8164.34766.29297.17578.11328.17188.35157.35156.11719.17578.52343.64063v.28906l.0586.35156v.34766l.05859.35156.0586.28906.11718.0586.17188.05859h.17578l.58203.23437.17578.1172.17578.28905.17578.23438.11328.23437.29297.23047.11719.11719v.41016l.0586.05468.28906.23438.23437.11719.0586.11718.11718.17188.0586.11719.23047.23437.05859.17578.23437.0586.1172.05859-.1172.11328-.05859.11719v.11719l-.11719.29296-.11719.28907v.58203l.17579.11719.11718.05859.0586.11719.11719.11719.11328.05859.17578.34765.0586.35157.05858.40625v.17578l-.05859.17578-.11719.69922v.17187l.1172.17579.29296.29296h.40625l.17578.1172.11719.17187.11719.29296v.23438h-.52735l-.23047-.23438h-.23437l-.17578.0586-.0586.69922.0586.34765.11719.17579.17578.41015.11718.23047.28907.46875.17578.05469h.52344l.23437.0586.75781.64062.0586.29296v.23438l.05859.0586.23047.34765v.35156l-.11719.17188v.29297l.29297.28906.29297.17578.17187.0586.29297.17577.29297.1172.58203.40624.28906.23438.29297.17578.21875.16015.01563.01172.23047.17579.64062.52343.17578.23438.1172.17578.17577.17578.11328.17188v.64062l.1172.17578.46874.11719.58203.11719.23438.05859.23047.11328.29297.11719.11328.0586.58593.35156.28907.17187.17578.0625.17578.05469.17578.0586.69922.35155.28906.17579.23438.05468.28906.17578.23437.1172.64063.40624.29297.11719.17187.0586.23438.05859.41015.05859.23047.0586.23438.11718.0586.17188-.41017.17578.46875.0586.0586.29296.11328.23438.17578.05468.23438.0586.17578.05859.40625.11719.64062.23437.11719.17188.0586.23437v.17578l-.0586.1172-.0586.40624.23438.23438.11719.05859.34766.11719.64062.23047.17578.11718.28906.1172.17578.17577.23438.46485.58203 1.10546.17578.17579.34766.17578.17578.11719.35156.11718 1.04688.52344.23437.0586.46485.11327.29297.0586.46484.17578.75781.58203.23438.23438.34765.46484.17578.17578.28907.23438.8164.69921.29297.17579.28906.28906.29297.17578.29297.28906.69531.64063.17578.17578.29297.23437.28907.23438.46875.28906.64062.58203.34766.23438.23437.29297.34766.34765.35156.46485.9336.99218.34765.40625.11719.17579.23437.05859.11328.11719.64454.17578.23047.11328.23437.0586.29297.17577.23047.1172.9336.69921.40624.40625.23438.17578.40625.17578.23437.11719.8164.34766.34766.23437.23438.11719.29297.28906.23047.11719.7578.35156.35157.17188.23047.05859.29297.11719.23437.0586.8711.17577h.8164l.46875.23047.17188.0586.875.69921.46484.1172.29297.05858.17578.0586.23047.0586.46875.05859.34766.05859.35156.0586.40625.05859h.29297l.17187.0586v.23046l.17578.17578h.29297l.34766.0586.35156.05859.69922.11719h.64063l.46484-.23438.29297-.17578.17187-.11719.41016-.17187.28906-.17578.9336-.46485.46875-.29297.52343-.29296.46485-.17188.46484-.17578 1.05078-.46485.28906-.11718.41016-.11719.28906-.11719.52735-.17578 1.51562-.69922.58203-.34765.28907-.0586.29297-.0586.34765-.11718.875-.23047.35156-.11719h.11329l.23437-.05859.875-.23437.23438-.0586h.8125l.35156-.0586.8164-.11718.17188-.0586.35156-.05468.29297-.0586.23047-.05859.8164-.17578.17579-.0586h.34765l.23438-.05859.46484-.11718.75781-.17188.23438-.0586h.34765l.41016-.11718.28906-.0586 1.28516-.05859h.28906l.41016-.0586.23047-.05858h.17578l.875-.1172h.40625l.41015-.11718h.34766l.35156-.11328.8711-.0586h1.75l1.04687.28907.41016.11719.28906.11718.35156.11719.28907.11719 1.05078.17187.28906.0586h.29297l.29297.05859.17187.0586.41016.05859.17187.0586.1172.05858h.11718l.11719.0586.35156.0586h.11328l.41016.0664 1.92187.39453 1.92578.39453 1.51953.44922 1.69532.71875 2.14453.80469 1.60547-.71875 1.42968-.80469 1.16016-1.07813 1.25-.44921 3.03516-.71875 1.875-.35938 2.14453-1.34765 2.23437-1.25391 2.5-1.25781 1.69531-.44922 1.78516-.17969 1.16016-.26953.625.53906 1.33984-.26953.71485-.98828.98437-1.34375.44531-.17969.80469-.35937 1.875-.53907 1.78516-.44921 1.25-.26954 1.16015-.08984 1.69922-.08984 1.96094-.26954 1.25-.08984h.53906l.625-.08984h.89063l2.14453-.17969 2.41015-.17969 2.58985-.08984 1.69531.17969 1.60938.08984 1.42968.35938 1.16016.71875 1.875.98828 1.16015 1.52734.26563.71484.6289.08985.35548.89844.53515.53906.53516 1.52734 1.07422.35938h.53515l-.80469.53515.08985 1.70703.71484 2.69532.89063.80468.89453.98829.71484 1.2578 1.78516.53907 1.51953-.17969.35547 1.34375 1.60937-.80469.98047-.53906.26953.26953.31641-.21484.21875-.14453.80078.44922.44922-.35938h.35547l.53515-.26953.53907-.71875.53515-.26953.625-.98828 1.16016.44922.83984.3711 1.39454.61718 1.6953-.17969h1.60548l1.78515.08985.17969-1.70704.53516-1.34375.80468.26954.4922.84765.40233.40625-.08984.53906v.35938l.71485.44922.71093-.26953h1.42969l.35938.98828.4453 1.25781.71485 1.34375 1.25.6289 1.69531.62891.71485-.17969.17969-.53906.98046-.08984.44922.35937.08594 1.25782-.26563.6289-.53515.17969v.53906l.71484.98438.26563.53906.98437.98828.80078 1.07813-.26562.35937-.08985.89844-.625 2.33203-.35546 2.0664-.08985 1.79298-.17969.71875-.08984.53906v1.4375l-.98047 1.88281-.35937 1.70703-.53516.89844-.80469 1.16797-.26562.53906 2.05469 1.2539.08593.35938-.35546.53906-.08985-.17968v.80859l.08985 1.4375-.44532.71484-1.07422.09375-.26562.71485.53515.89844.8047.71875 1.16015.80859 1.33984.26953.44531.35938-.35546.44921-1.78907-.08984-1.25-.44922-.71484-.71875-.625-.08984-.17578 3.58984-.1875 1.3086h89.35937V311.70313h-55.26953v49.08203l.76172.125 3.28906.54296 2.02344 2.83594v2.7539l2.35156.33204 2.34766.33203h4.05078l-1.3789 4.16016-2.02344.70703-2.02344.70312-.54297.34375-2.59375 1.6172-.1875.11718-2.02344-2.07813-.73046-2.74218-2.67188-2.07813-1.375-3.5-.0664-.08203-1.95704-2.67188 2.75-1.41796v-49.08204H294.42187v91.41407l.1172.03125.1328.01172.07422.07421.10547.04688.08985.0586.08593.05859.08985.0586.29687.29687.0586.08984.03125.11719.02734.11719.01563.13671-.03125.1172-.0586.08983-.0586.08594-.04296.10547-.04688.10156-.02734.1211v.14453l.17578.26953.14844.14844.07422.08594.07422.07421.04296.10547.0625.08985.0586.08593.04297.10547.0586.08985.04687.10156.04296.10547.0586.08594.11719.17968.07421.07422.0625.08594.0586.08984.04297.10547.0586.08985.05858.08593.0625.08985.0586.08984.04297.10156.11719.17969.07421.07422.0586.08594.07422.07421.08984.0586.10547.04687h.14844l.1328-.01562.13282.01562.10156-.04687.07422-.07422.04688-.10156-.01563-.13281v-.14844l-.04687-.10547-.02735-.11719-.04687-.10156-.02735-.1211-.04296-.10156-.0625-.08984-.04297-.10156-.04297-.10547-.03125-.11719-.01563-.13281-.01171-.13672.08593-.0586.0586-.08593.12109-.03125.04297.10547.01562.1328v.1172l.0586.10156.0586.08984.08983.0586.14844.14843.0586.08985.04296.10547-.01171.10156.08593.0586.10547.04687.08594.0586.08984.05858.07422.07422-.11719.02735-.10546.04687-.08594.0586-.07422.07421-.0586.08985-.0625.08594-.02734.12109-.04687.10156-.04297.10547-.03125.11719-.01172.13281-.01563.13281v.14844l.02735.11719.04687.10547.04297.10156.0586.08984.07421.07422.08985.0586.07422.07421.08984.0586.0586.08984.04296.10547.04688.10156.11719.03125.1328.01563h.14845l.11718-.03125.10547.04297.04297.10547.04688.10156.02734.1211L299.5 410l.02734.11719.03125.1211.02735.11718.10547.04297.10156.04687.13281-.01562.14844.14844.0625.08593.07422.07422.07031.07422.08984.0625.10547.04297.10156.04297.1172.03125.13671.01562.11719-.03125.07422-.07422.02734-.11718-.01172-.13282-.03125-.12109-.02734-.11719.04297-.10547h.11719l.08984.0625.11719.02735h.14843l.13282.01562h.14843l.13282.01563.1328-.01563h.14845l.1328-.01562.13282-.01172.13672.01172.11719-.02735.13281-.01562.1914-.0586-.05859.17579-.01562.1328-.02735.1211-.01562.13281-.0586.08594-.1328.01563-.10548.04687-.10546.04297-.1172.03125-.11718.02735-.26563.03125h-.14843l-.13281.01562-.07422.07422.05859.08594.14844.14843.11719.1797.07421.0703.08985.0625.08984.0586.08594.0586.08984.05858.10156.04297.10547.0625.10547.04297.08594.0586.10547.04687.10156.04297.17969.11719.0586.08984-.04298.10156-.04687.10547.01562.13281.22266.22266.0586.08985.04296.10156.03125.1211.04297.10155.01563.13282.03125.11718.01171.13672.03125.11719.14844.14844.10156.04297.10547.04296.1172.03125.1328.01563.13672.01563h.11719l.11719-.03125.08984-.0586.04297-.10547.04688-.10156.04296-.10547.03125-.11719.01172-.1328v-.14845l-.01172-.1328-.01562-.13282-.03125-.11719-.04297-.10547-.04688-.10547-.04296-.10156-.04297-.10547-.01563-.13281.01563-.13281.02734-.11719.03125-.11719.02735-.1211.04687-.10155.08984-.0586.08594-.0625.07422-.07422.08984-.05859.22266-.22266.0586-.08593.07421-.07422.11719-.17969.0586-.08594v-.14844l-.07423-.07421-.10156-.04688-.10547-.04297-.10156-.04297-.0586-.08984-.04687-.10547-.02734-.11719.08984-.05859.11719-.03125.10156-.04297.17969-.11719.14844-.14843.01172-.13282-.01172-.10546-.08985-.0586-.1328.01563h-.14845l-.1328.01562-.13282-.01562-.1211-.03125-.08593-.0586-.07422-.07422-.0586-.08984-.0625-.08594-.11718-.17969-.0586-.08593.03125-.1211.08594-.05859.1211-.03125.05859-.08594v-.1211l-.03125-.11718-.0586-.08984-.05859-.08594-.04687-.10547-.02735-.11719-.01562-.1328.0586-.08985.07421-.07422.08984-.0586.1172-.17968.07421-.07422.0586-.08594.14843-.14844.1211-.03125.1328-.01562.13282.01562.07422.07422.04297.10547.01562.13281-.03125.1172-.11719.03124-.1328.01172-.14844.14844-.04297.10547-.04688.10156-.02734.1211-.03125.11718v.14844l.03125.11719.04297.10546.05859.08985.07422.07031.07422.07422.11719.03125.12109.02734.11719-.02734.1328-.01563h.1172l.08984.0586.07422.07422.04687.10546.0586.08594.10156.04688.13281.01562.10547.04297.08594.0586-.01172.10546-.07422.07422-.17969.11719-.05859.08984-.08984.0586-.07032.07422-.07421.07421-.0625.08985-.02735.11719-.01562.1328.01562.13282-.01562.13281v.14844l.01562.13281.02735.1172.03125.12108.07421.07422.08985.0586.08594.0586.08984.05858.11719.03125v.08594l-.10157.04688-.08984.0586-.26563.03124-.11718.02735h-.14844l-.10547.04296-.10156.04688-.0586.08984-.0625.23438-.01171.13281-.03125.1211-.01563.1328v.29298l-.01172.1328.01172.13673.01563.1328.1328.01563.13282.01172.1211.03125.08593.0586.07422.07421.04688.10547.04296.10157.01563.1328v.44532l-.01563.13281v.44532l.03125.26562.02735.11719.01562.13281.03125.11719.08594.21094.03125.26562v.14844l-.03125.11719-.02734.11718-.03125.1211-.02735.11719-.03125.11718-.03125.1211-.01171.1328-.01563.13282.08984.0586.1172-.03125.10155.01562.04688.10547-.03125.26562v.44141l-.04297.10547-.04688.10547-.04296.10156-.04297.10547-.0586.08594-.03125.12109-.04296.11719-.03125.11719-.01563.1328.01563.13282.05859.08984.10547.04688.08594.0586.05859.08593-.01172.13672-.03125.11719-.04297.10156v.44531l-.01562.13281v.14844l-.03125.11719-.04297.10547-.02735.11719-.04687.10546-.04297.10157-.03125.12109-.02734.11719-.03125.13281-.03125.11719-.02735.11719-.04297.10546-.03125.1172-.03125.12108-.01171.13282-.01563.13281v.29688l.02734.11718v.14844l.04688.39844.02734.11719.0586.08984.12109.03125h.14844l.13281-.01563.0586.08985v.11719l-.0586.08984-.08984.0586-.10157.04296-.10546.04688-.08985.05859-.08594.0586-.13671.01562-.1172-.03125-.1328-.01563-.10157.04688-.0625.08594-.01172.13671-.01562.13282-.03125.11719-.02735.11718-.01562.13281-.03125.1211v.29687l.01563.13282.03125.11718v.14844l.01171.13281v.14844l-.02734.11719-.04688.10156-.02734.1211-.03125.11718-.0586.08985-.07421.07421-.10156.04297-.10547.04688-.11719.02734-.1211.03125-.10156-.04687.0586-.08594.10547-.04688.02734-.11718.03125-.11719.02734-.1211.03125-.11718v-.14844l.01563-.13281-.03125-.11719-.04297-.10547-.10547.01563-.07422.07422-.10156.04296-.08984.0625-.07422.07422-.04297.10157-.01563.1328-.03125.1172L304.25 426l-.03125.11719-.02734.11719-.03125.12109-.02735.11719-.03125.11718-.04297.10547-.08984.0586h-.08984l-.1172-.03125-.03124-.08594.01562-.13672-.03125-.11719v-.14844l-.01171-.1328v-.14844l-.0625-.23438-.02735-.1211-.04297-.10156-.04687-.10546-.0586-.08594-.05859-.08985-.04297-.10546-.0625-.08594-.14844-.14844-.0703-.07422-.10548-.04687-.10547-.04297-.10156-.04297-.29687-.29688-.08985-.07421-.08594-.0586-.10546-.04297-.08985-.0625-.08594-.0586-.10546-.04296-.08985-.0586-.08594-.0625-.07421-.0703-.10547-.04688-.08594-.0586-.10547-.04296-.08984-.0625-.10156-.04297-.10547-.04297-.08594-.0586-.10547-.04687-.10547-.04297-.10156-.04687-.08985-.0586-.10156-.04297-.10547-.04296-.08984-.0625-.11719-.02735-.13281-.01562-.13281.01562H299.75l-.13281.01563-.11719-.03125-.08984-.0586-.07422-.07422-.08985-.05859-.10156-.04688h-.14844l-.12109-.02734-.10156-.04297-.07422-.07422-.11719-.17968-.08984-.0586-.10156-.04297-.08985-.0625-.10547-.04296-.08984-.0586-.08594-.0586-.10547-.04687-.0586-.08594-.05858-.08984-.04297-.10547-.04688-.10156-.07422-.07422-.08594-.0586-.07421-.07421-.08985-.0586-.22265-.22265-.04297-.10547-.03125-.26563.10547-.04296h.14453l.10547.04296.07421.07422.08985.0586.08594.0586.10546.04687.08985.05859.14844.14844.0703.07422.14845.14843.0625.08594.07421.07422.08594.0586.07422.07421.08985.0625.08984.0586.08594.05859.26953.17578.10156.04688.10547.04296.10156.04297.04688-.07421.05859-.08594.07422-.07422.07031-.07422.10547.04297.07422.07422.0586.08984.04296.10156.04688.10547.04296.10547.1211.02735.11719-.02735.07421-.08984.04297-.10547.0586-.08985.07422-.07421.10546-.04297.1172-.02735.1328.01172.08985.0586.14844.14843.05859.08985.04297.10547.04687.10156.04297.10547.04297.10156.10547.04688.10547.04296.13281.01563.08594-.0586.0586-.08984.07421-.07422.10547-.04297.11719.02735.10547.04687.10156.04297.10547.04297.10156.04688.17969.11718v.11719l-.01563.13281.01563.13281.01562.13672.0586.08594.10156.04688.1211.02734.11718.03125h.14844l.11719-.03125.05859-.08984.17969-.1172.05859-.08983.07422-.07422.0586-.08594.11718-.17969.17969-.11719.11719.03125.08984.0586.04297.07422-.01563.1328v.1172l.08985.05859h.14843l.13282-.01563.1328-.01171.26563-.03125.10547-.04297.11719-.03125.1211-.02735.07421-.07421.07031-.07422.0625-.08985-.01562-.10547-.04688-.10156-.10156-.04297-.10547-.01562-.11718.02734-.26563.03125h-.14844l-.07421-.07422-.08985-.0586-.11719-.03124-.11718-.02735-.13282-.01562h-.14843l-.13282.01563h-.29687l-.10547-.04688-.14844-.14844-.04297-.10156-.05859-.08984.22266-.22266.08593-.0586.10547-.04296.11719-.03125.13281-.01563.13281.01563.13672.01562.10157.04297.1328-.01172.08985-.0625.10156-.04297.0625-.08984-.04687-.10156-.08984-.0586-.1172-.03125-.10155-.04296-.0586-.08985-.0625-.08984v-.11719l.01563-.13281.10547-.04688.07421-.07031v-.1211l-.08984-.05859-.03125-.11719.08985-.05859.07421-.07422.04297-.10547.0586-.08984.04687-.10156.01563-.13281v-.14844l-.04688-.10547-.04297-.10156-.08984-.0586-.13281-.01562-.10157-.04297-.13671-.01563-.1172-.03125h-.4453l-.13282-.01562-.13281-.01172-.13281-.01563-.11719-.03125h-.14844l-.13281-.01562-.13281-.01172-.26563-.03125-.1211-.04297-.08593-.0586-.07422-.07421v-.14844l.01172-.13281.10547-.04688.10156-.04296.13281-.01563h.15235l.13281-.01562h.29297l.1211.03125.10156.04296.08984.0586.23438.0625.12109-.04688.08984-.05859.10156-.04297.13282-.01562.10547.04296.10156.04688.13281.01172.1211-.02735h.14453l.12109-.03125.11719-.02734.10547-.04687.07421-.07422.08594-.0586.14844-.14843.0586-.08594.04687-.10547.02734-.11719.01563-.10547-.10156-.04296-.08985-.0586-.11719-.03125-.10546-.04297-.08985-.0625-.07422-.08594-.07422-.07421-.10156-.04297-.10547-.04688-.10156-.04297-.0586-.08984-.04687-.10156-.08594-.21094-.0625-.08594-.05859-.08984-.07422-.07422-.08594-.0586h-.26953l-.11719.03126-.08984.05859-.10156.04297-.13281.01562-.10547-.01562-.02735-.11719-.0625-.08984-.11718-.03125-.10157-.04297-.14843-.14844-.03125-.11719-.01563-.10546.07422-.07422.17969-.1172.11719-.02733.11718-.03125.13672.01562.10156.04297.10547.04297.10156.04687.10547.04297.1172.03125.1328.01563.1172.02734.1328.01563.10547-.01563.08985-.0586-.07422-.07421-.10547-.04297-.07422-.07422-.07422-.08984-.14844-.14844-.08593-.0586-.08985-.05859-.07422-.07422-.08984-.0586-.10156-.04687-.1211-.02734-.10156-.04688-.10547-.04296-.11719-.03125-.10156-.04297-.1211-.03125h-.14843l-.11719.03125-.10546.04297-.08594.0625-.17969.11718-.08594.0586-.08984.0586-.10547.04687-.08594.05859-.10547.04297-.10156.04297-.10547.04687-.07422.07422-.05859.08985-.0586.08593-.04687.10547-.0586.08594-.07421.07422-.13281-.01172-.1172-.03125h-.11718l-.07422.07422-.08984.0586-.07422.07421-.08984.0586-.08594.05859-.10547.04687-.10156.04297-.13672.01563-.10156-.04297-.14844-.14844-.10547-.04688h-.08594l-.10547.04688-.10156.04297-.1211.03125-.11718-.03125-.07422-.07422v-.11719l.03125-.1211.07422-.0703.0586-.08985.07421-.07422.11719-.03125.10547-.04296h.29297l.13281-.01563.13672-.01563.10156-.04296.08985-.0586.10156-.04687.08984-.0586.13281-.01171.08985.05859.13281.01172.08984-.0586.08594-.05859.10547-.04297.08984-.0586.08594-.0625.08985-.05859.14843-.14843.0586-.08594.05859-.08985.10547-.04296.13281-.01563.11719.02735.1211.03125.05859-.0586.05859-.08984.03125-.26563.02734-.11719.10547.01172.13281.01563.10157-.04297.08984-.0586.0586-.08984.07421-.07422.0586-.08984.04687-.10156.01172-.13281-.01172-.13282-.04687-.10547-.14844-.14843-.0586-.08985-.05859-.08594-.04297-.10546v-.44532l.01563-.1328v-.14845l.01172-.1328-.0586-.0586-.08984.0586-.10156-.04298-.17969-.11719-.08594-.05859-.0625-.08984-.0586-.08985-.07421-.07421-.08594-.0586-.1211.03125-.10155.01172-.10547.04688-.08594.05859-.10547.04297-.14844.14844-.08984.05859-.08594.0586-.08984.0625-.10547.04296-.13281.01563v-.1211l.10547-.04297.11718-.03125.07422-.0703.04297-.10548v-.14844l-.02734-.11718-.14844-.14844-.13281-.01563h-.14844l-.11719.03125-.10547.04297-.10156.04297-.08984.0625-.11719.02735-.07422-.07422.01172-.13281-.04297-.10157-.04297-.10547-.08984-.05859-.11719.02734-.1211.03125-.11718.03125-.10156.04297-.1211.03125-.10156.04297-.10547.04297-.08984.0586-.10156.01562v-.11719l.01562-.13281-.0586-.08985-.07421.04297-.14844.14844-.0586.08985-.07421.07421-.04688.10547-.04296.10156-.07422.07422-.0586.08985-.07422.07422-.05859.08593-.07422.07422-.08984.0625-.07422.07031-.07422.07422-.10156.01563-.13281.01562-.10547-.04296v-.1211l.14843-.14844.04297-.10156.0586-.08984.04687-.10156.04297-.10547.0586-.08985.03124-.11719.04297-.10156.03125-.1211.02735-.11718.04687-.10547.04297-.10156.04297-.10547.07422-.07031.08984-.0625.08985-.0586.10156-.04296h.29687l.26563-.03125.10547-.04297-.07422-.07422-.11719-.03125-.10547-.04297-.08984-.0586-.10156-.04687-.08985-.0586-.10156-.04296-.10547-.04297-.08984-.0625-.08594-.0586-.10547-.04296-.10156-.04297-.1211-.03125-.11718-.03125-.10157-.04297L297.5 410.25l-.10156-.04297-.08985-.0586-.04296-.10546-.01563-.13281.10156-.04297.13281-.01563.13672.01563.13282-.01563.10156-.04297.0586-.08984.01562-.10547-.08985-.0586-.07421-.07421-.10157-.04297-.08984-.0586-.14844-.14843-.04297-.10547-.01562-.13281v-.29297l-.0586-.08985-.08984-.05859-.07422-.07422-.04297-.10547-.03125-.11718-.0586-.08985-.07421-.07422-.11719-.02734-.07422-.07422-.08984-.0586-.08984-.0625-.08594-.05859-.07422-.07421-.0586-.08594-.04687-.10547-.08594-.0586-.14843-.14843-.19532-.0586-.1328.01563-.10157.04297-.07422.07422-.04688.10156-.04296.10547-.0586.08984-.0586.08594-.29687.29687-.08984.0586h-.08594l-.0625-.08594-.04297-.10547.03125-.11719.0586-.08984.02734-.11719-.01172-.13281-.08984-.0625-.10547.04688-.11719.02734-.11719.03125-.26953.17578-.10156.04688-.11719.02734-.10546.04687-.08985.0586-.10156.04297-.0586-.08594-.04687-.10547.01563-.13281.04687-.10547.07031-.07422.07422-.07031.0586-.08985v-.14843l-.04297-.10547h-.23829l-.10156.04687-.03125.11719-.02734.11719-.03125.1211-.07422.04296-.13281.01563-.07422-.04688-.04297-.10156-.04297-.10547-.04687-.10156-.04297-.10547-.1211.03125-.10156.04297-.13281.01562-.11719.03125-.10547.04297-.08984.0586-.10156.04687-.1211.02734-.13281.01563-.10156-.04297-.0586-.08985-.04687-.10546-.04297-.10157-.04297-.10546v-.1172l.0586-.08984.08593-.05859.17969-.11719.10156-.04687.10547-.04297.10547-.0586.10156-.04296.08985-.0625.10156-.04297.10547-.0586.10156-.04687.08984-.0586.10547-.04296.10156-.04297.08985-.0625.10156-.04297.13672-.01563.11719.03125.10156.04297.1211.03125.10156.04297.10546.04688.10157.04296.10547.04297.10156.04688.10547.04297.10156.04297.10547.04687.08594.0586.10546.04296.1172.03125.10546.04297.10156.04688.08985.0586.10547.04296.10156.04297.10547.04687.11719.02735.10156.04687.1211.02735h.14843l.08594-.0586.01562-.10156.0586-.08984-.02735-.1172-.07422-.07421-.11719-.17969-.07421-.07422-.08985-.07421-.17969-.1172-.08593-.05859-.10547-.04296-.10156-.04688-.26954-.17578-.05859-.08985-.07422-.07421-.0586-.08985-.04296-.10156-.03125-.11719-.01563-.13672v-.5625l-.01171-.1328-.01563-.13282-.03125-.11719-.01562-.13281-.01172-.13281-.03125-.1211-.22266-.22265-.0586-.08594-.01562-.10547.03125-.11719.13281-.01562v-91.41406H172.9922v1.45312l-.0586.23438-.35156 1.05078-.17187.52343-.1172.34766-.17577.41016-.11719.17187-.23438.29297-.23046.0586h-.35157l-.11718.05859-.23047.40625v.29297l.11719.17578.23046.23047.1172.23437.64062.75781.29297.46485.17578.23437.23047.35156.23437.34766.64063.8164.17578.46485.17187.41016.11719.69531.17578.46875.11719 1.39844.0586.46484v.875l.11718 1.04688v4.78125l-.0586.46484-.35156 1.28125-.17578.52344-.11328.41015-.35156.9297L172.93359 336l-.23437.58203-.11719.17578-.17187.34766-.17578.40625-.35157.8164-.0586.29297-.11327.29297-.11719.28906-.0586.17579-.11718.875-.0586.40625-.05859.11718-.0586.17579-.05859.17187-.23047.52734-.11718.17188v.23437l-.11719.23438-.0586.17187-.17577.58594v.28906l-.0586.17579v.29296l-.0586.11329-.05859.52734v.17187l-.05468.23438v2.6211l-.17578.8164-.1172.17578-.17577.23438-.1172.17187-.11327.23438-.58594.93359-.23047.28906-.29297.46485-.17578.23437-.28906.35156-.35156.69922-.11328.23047-.17579.41016-.17578.23046-.40625.52735-.8164.69922-.29297.17187-.28906.23438-.17579.11719-.17578.17578-.52344.40625-.52734.17578-.17187.17578-.23438.05469-.64062.17578h-.75782m12.21094 31.02344l-1.07422.44921.35938.89454 1.25-.71485.44531-.53906-.98047-.08985"/><path fill="#d3d3d3" fill-opacity="0" fill-rule="evenodd" d="M201.50781 416.59766h-.89453l.44922.6289.98047.35938.80469-.08985.4453-.98828-.17577.08985-.71485-.35547-.89453.35547m154.6211 59.0703l-.0586-.52343v-.29297l.11328-.29297.0586-.23046.46875-.46875h.11328l.11719-.11329.11718-.05859h.17579l.23437-.0586h.34766l.23437.0586.11719.0586.23047.17187.0586.17578.11718.58203v.29297l-.11719.17578-.17187.28906-.17579.17579-.52734.52343-.23047.23438-.11719.0586h-.17578l-.11718-.0586-.40625-.29297-.17579-.11719-.11718-.0586-.0586-.11327-.05468-.1172m6.64062-10.95702l-.0586-.17188v-1.10937l.0586-.17188.17578-.0586.17188-.05858h.17578l.23437-.0586.1172.0586.05858.69921-.05859.17188-.11719.17578-.11718.0586-.23438.52343-.11328.0586h-.23438l-.05859-.1172m9.61328-14.39062l-.11719-.17578v-.69922l.29297-.875.1172-.17187.17577-.35156.11328-.23047.1172-.29297.35155-.75781.1172-.23047.17187-.23438h.17578l.11719-.0586h.64062l.11719.0586.23437.23438.17188.11328.35156.29297.11719.11718.11328.17579v.11328l.11719.05859.11718.11719v.69922l-.05859.17578v.23047l-.0586.17578-.34765 1.05078-.11719.23047-.11719.23437-.11718.0586-.23047.23437-.64063.28906h-.875l-.41015-.11718-.64063-.46485"/><path fill="none" stroke="#bebebe" stroke-linecap="round" stroke-linejoin="round" stroke-miterlimit="10" stroke-width=".5" d="M467.95703 311.69531H144.02734v168.625h323.9297v-168.625"/><g clip-path="url(#a)"><path fill="#fff" fill-opacity="0" fill-rule="evenodd" d="M144 475.89063v4.4375h.0039H144v-33.3711 28.9336"/></g><g clip-path="url(#b)"><path fill="#fff" fill-opacity="0" fill-rule="evenodd" d="M144 440.38281v2.79297-131.5039h.0039H144V440.3828"/></g><path fill="#50fcfc" fill-rule="evenodd" d="M144 443.17578v3.78125l.0039-.0039v-3.77344l-.0039-.0039"/><g clip-path="url(#c)"><path fill="#fff" fill-opacity="0" fill-rule="evenodd" d="M144.0039 480.32813v-33.375l1.4297-2.13282-1.4297-1.64062V311.67188h84.32423v108.78125l-4.4375 1.23046-1.45704.94532-2.98047 2.64062-4.4375-.07031-1.41406 1.8711-3.02734 2.11327-4.4375.53125-4.4375 1.41016-.57031.38281-1.08594 4.4375-2.78125.95313-4.4414.98437-4.4375-1-4.4375.9375-4.4375-.80469-1.57423-1.0703-2.86718-1.54688-4.4375.67187-1.10938.875-3.17187 4.4375-.15625.26563-.22657-.26563-4.21093-2.52344-2.40625 2.52344.4414 4.4375-.47265 4.4414-.70703 4.4375.51562 4.4375 2.6289 4.42188 1.83985.01563 2.59766.03125.11328-.03125 4.32422-.48438 4.4375.21094 4.4414-1.98047 4.4375-.10937 4.4375-1.42969 1.5664-.64453 2.8711-.6836 4.4414-.0703 4.4375.16015 4.4375-1.23438 4.4375-1.34765 3.58985-1.26172.85156-.33985 3.19141-4.09765 1.2461-.94922 3.15234-3.49219 1.28516-1.94531 4.4375-.34766 3.2539 2.29297-1.1289 4.4414-.44922 4.4375 2.76172 1.98048 4.4414-.28516 4.4375-.02344 2.4375-1.67187-2.4375-1.82031-4.4375.53906-2.1875-3.15625-1.79687-4.4414 3.98437-1.78907 4.4375 1.14844 4.4375-.69922 2.77734-3.09766-2.77734-3.14844-2.32422-1.28906-2.11328-2.08594-4.4375-1.73437-2.35937-.61719-2.08203-2.65234-2.375-1.78516 2.375-2.6289 1.2539-1.8125-1.2539-1.34766-4.4375-.82813V311.67188h44.3828v115.875l-4.4375 1.07422-4.4375.71094-2.33984 2.17578-2.09765.75781-4.4414.9922-2.4375 2.6875 2.4375 2.17187 4.4414 1.33594 3.17578-3.50782 1.26172-2.8125 4.4375 1.22656 4.4375.69532v7.6875l-4.4375 1.17187-1.95313.90625-2.48437 2.2539-2.82031 2.1875.53125 4.4375 2.28906 2.13673 4.4375.1875 4.4375-.10547 4.4414-1.1836.73438-1.03515 3.70312-2.76563 1.27344-1.67187 1.63672-4.4414-2.91016-1.48048-4.4375.07032-4.4414-.66797v-7.6875l4.4414.30078.25391.58984 4.1836 3.8086 4.4375.15625 4.4375-.65235 3.13671-3.3125-3.13672-3.33594-4.4375-.71875-.73828-.3828-3.69922-3.4297-4.4375-.18359-4.4414-.34765v-115.875h75.45312v121.72656l-2.47656 2.54687 2.47656 2.79688.72266 1.64062 3.71484 3.53906 4.2539-3.53906-4.2539-3.51953-1.95703-.91797-2.48047-2.54687V311.67188h26.6289v130.8828l-2.21483 2.26563-2.22266 2.625-1.53906 1.8164-2.85938 4.4375-.03906.08204-3.49219 4.35547-.94531 3.15234-.42969 1.28516.42969.36719 4.4375.97265 4.4375-.33594 4.4375.41016 3.90625 3.02735.1211 4.4375.41406.51562 4.4375 1.22656 2.52343-1.74219 1.91406-.59375 3.34375-3.84375 1.09375-.96875 3.60547-3.47265-.10156-4.4375-3.5039-3.58594-4.4375-.01953-.71485-.83203-3.72265-3.9336-4.4375.33204-.39454-.83594-1.36328-4.4414-2.6836-2.26563V311.67188h93.20313v163.61718l-.55859.60156.5586.75391v3.6836H144.0039"/></g><path fill="#50fcfc" fill-rule="evenodd" d="M145.4336 444.82031l-1.4297 2.13281v-3.77343l1.4297 1.64062m13.6914 13.3164l-.51563-4.4375.70704-4.4375.47265-4.4414-.4414-4.4375 2.40625-2.52344 4.21093 2.52344.22657.26563.15625-.26563 3.17187-4.4375 1.10938-.875 4.4375-.67187 2.86718 1.54687 1.57422 1.07031v7.32813l-.28515.47656-1.79688 4.4414-2.35937 3.75392-4.4375-2.59375-3.07813 3.27734-1.35937 2.07031-2.04297 2.36719 2.04297.82422 4.4375.21484 2.61328-1.03906 1.82422-3.80078 4.4414.58594 2.47656-1.22266 1.96094-2.39063 4.4375 2.2422.4961.14843 3.9414.34765.7461-.34765 3.6953-2.97266 4.4375.11719 4.4375-.39453 2.2422-1.1875-2.2422-1.58203-4.4375-.3711-4.4375.375-4.4414-.90625-4.4375.13672-4.125-2.09375-.3125-.19922-4.4375-.27734v-7.32813l4.4375.8047 4.4375-.9375 4.4375 1 4.4414-.98438 2.78126-.95313 1.08594-4.4375.5703-.38281 4.4375-1.41016 4.4375-.53125 3.02735-2.11328 1.41406-1.8711 4.4375.07032 2.98047-2.64062 1.45703-.94532 4.4375-1.23046 4.4375.82812 1.25391 1.34766-1.2539 1.8125-2.375 2.6289 2.375 1.78516v5.71094l-1.69141 1.3789 1.6914 1.55469 4.44141.22656 1.125 2.65625 3.3125 1.97266 4.40234-1.97266-4.40234-2.80078-3.1914-1.63672-1.2461-.7539-4.4414-.625v-5.71094l2.08203 2.65234 2.35937.61719 4.4375 1.73438 2.11328 2.08593 2.32422 1.28906 2.77734 3.14844-2.77734 3.09766-4.4375.69922-4.4375-1.14844-3.98437 1.78906 1.79687 4.4414 2.1875 3.15626 4.4375-.53906 2.4375 1.8203-2.4375 1.67188-4.4375.02344-4.4414.28516-2.76172-1.98047.44922-4.4375 1.1289-4.4414-3.2539-2.29298-4.4375.34766-1.28516 1.94531-3.15234 3.49219-1.2461.94922-3.1914 4.09765-.85157.33985-3.58984 1.26172-4.4375 1.34765-4.4375 1.23438-4.4375-.16016-4.4414.07031-2.8711.6836-1.5664.64453-4.4375 1.42969-4.4375.10937-4.44141 1.98047-4.4375-.21094-4.32422.48438-.11328.03125-2.59766-.03125-1.83984-.01563-2.62891-4.42187"/><path fill="#00e8fc" fill-rule="evenodd" d="M166.1914 458.96094l-2.04296-.82422 2.04297-2.36719 1.35937-2.07031 3.07813-3.27735 4.4375 2.59375 2.35937-3.7539 1.79688-4.4414.28515-.47657 4.4375.27734.3125.19922 4.125 2.09375 4.4375-.13672 4.4414.90625 4.4375-.375 4.4375.3711 2.2422 1.58203-2.2422 1.1875-4.4375.39453-4.4375-.11719-3.6953 2.97266-.7461.34765-3.9414-.34765-.4961-.14844-4.4375-2.24219-1.96094 2.39063-2.47656 1.22265-4.4414-.58593-1.82422 3.80078-2.61328 1.03906-4.4375-.21484M232.76563 437.5l-1.69141-1.55469 1.6914-1.3789 4.44141.625 1.2461.7539 3.1914 1.63672 4.40234 2.80078-4.40234 1.97266-3.3125-1.97266-1.125-2.65625-4.4414-.22656"/><path fill="#50fcfc" fill-rule="evenodd" d="M254.95703 438.11719l-2.4375-2.17188 2.4375-2.6875 4.4414-.99219v2.40235l-2.12109 1.27734 2.1211 1.21485L260.5 435.9453l-1.10156-1.27734v-2.40235l2.09765-.7578 2.33985-2.17579 4.4375-.71094 4.4375-1.07421v2.17968l-2.97266 1.78125 2.97266 1.59375 4.4414-.55469 1.46875 3.39844 2.96875 2.70313 4.4375-.59375 4.4375-1.48828.58985-.6211-.58985-.6289-4.4375-1.53125-4.40625-2.27735-.03125-.03125-4.4375-.94531-4.4414-.80469v-2.17969l4.4414.34766 4.4375.1836 3.69922 3.42968.73828.38281 4.4375.71875 3.13672 3.33594-3.13672 3.3125-4.4375.65235-4.4375-.15625-4.18359-3.8086-.2539-.58984-4.44141-.30078-4.4375-.69531-4.4375-1.22657-1.26172 2.8125-3.17578 3.50781-4.4414-1.33593"/><path fill="#00e8fc" fill-rule="evenodd" d="M259.39844 437.16016l-2.1211-1.21485 2.1211-1.27734L260.5 435.9453l-1.10156 1.21485"/><path fill="#50fcfc" fill-rule="evenodd" d="M261.54688 453.69922l-.53125-4.4375 2.8203-2.1875 2.48438-2.2539 1.95313-.90626 4.4375-1.17187 4.4414.66797 4.4375-.07032 2.91016 1.48047-1.63672 4.4414-1.27344 1.67188-3.70312 2.76563-.73438 1.03515-4.4414 1.1836-4.4375.10547-4.4375-.1875-2.28906-2.13672"/><path fill="#00e8fc" fill-rule="evenodd" d="M272.71094 433.10156l-2.97266-1.59375 2.97266-1.78125 4.4414.80469 4.4375.94531v3.0586l-.9375 1.41015.9375.85547 2.63672-.85547-2.63672-1.41015v-3.0586l.03125.03125 4.40625 2.27735 4.4375 1.53125.58985.6289-.58985.6211-4.4375 1.48828-4.4375.59375-2.96875-2.70313-1.46875-3.39844-4.4414.5547"/><path fill="#00d4fc" fill-rule="evenodd" d="M281.58984 436.80078l-.9375-.85547.9375-1.41015 2.63672 1.41015-2.63672.85547"/><path fill="#50fcfc" fill-rule="evenodd" d="M348.16406 438.74219l-2.47656-2.79688 2.47656-2.54687 2.48047 2.54687 1.95703.91797v1.45703l-2.17969 2.0625 2.1797 2.07422 2.49609-2.07422-2.4961-2.0625v-1.45703l4.2539 3.51953-4.2539 3.53906-3.71484-3.53906-.72266-1.64062"/><path fill="#00e8fc" fill-rule="evenodd" d="M352.60156 442.45703l-2.17969-2.07422 2.1797-2.0625 2.49609 2.0625-2.4961 2.07422"/><path fill="#50fcfc" fill-rule="evenodd" d="M361.48047 462.9414l-.42969-.36718.42969-1.28516.94531-3.15234 3.49219-4.35547.03906-.08203 2.85938-4.4375 1.53906-1.8164v5.39843l-.6211.85547.6211.89062 1.58203-.89062-1.58203-.85547v-5.39844l2.22265-2.625 2.21485-2.26562v15.26953l-.59375.3125.59375.85156.35156-.85156-.35156-.3125v-15.26953l2.6836 2.26562 1.36327 4.4414.39454.83595 4.4375-.33204 3.72265 3.9336.71485.83203v3.75781l-4.4375.79688-3.125 3.48828 3.125 2.4375 4.4375 1.90234 4.4375-4.3125.02734-.02734-.02735-.10938-4.4375-4.17578v-3.75781l4.4375.01953 3.50391 3.58594.10156 4.4375-3.60546 3.47265-1.09375.96875-3.34375 3.84375-1.91407.59375-2.52344 1.7422-4.4375-1.22657-.41406-.51563-.1211-4.4375-3.90624-3.02734-4.4375-.41015-4.4375.33593-4.4375-.97265"/><path fill="#00e8fc" fill-rule="evenodd" d="M370.35547 454.58984l-.6211-.89062.6211-.85547 1.58203.85547-1.58203.89062"/><path fill="#fff" fill-opacity="0" fill-rule="evenodd" d="M374.79297 457.82422l-.59375.3125.59375.85156.35156-.85156-.35156-.3125"/><path fill="#00e8fc" fill-rule="evenodd" d="M383.67188 465.01172l-3.125-2.4375 3.125-3.48828 4.4375-.79688v1.15235l-3.9336 3.1328 3.9336 3.17188 3.25-3.17187-3.25-3.13281v-1.15235l4.4375 4.17578.02734.10938-.02735.02734-4.4375 4.3125-4.4375-1.90234"/><path fill="#00d4fc" fill-rule="evenodd" d="M388.10938 465.7461l-3.9336-3.17188 3.9336-3.13281v1.15234l-2.48829 1.98047 2.48829 2.00781 2.05468-2.00781-2.05469-1.98047v-1.15234l3.25 3.1328-3.25 3.17188"/><path fill="#00c4fc" fill-rule="evenodd" d="M388.10938 464.58203l-2.48829-2.00781 2.48829-1.98047v1.14844l-1.04297.83203 1.04296.84375.86329-.84375-.86329-.83203v-1.14844l2.0547 1.98047-2.0547 2.00781"/><path fill="#00b8fc" fill-rule="evenodd" d="M388.10938 463.41797l-1.04297-.84375 1.04296-.83203.86329.83203-.86329.84375"/><path fill="#50fcfc" fill-rule="evenodd" d="M467.9961 476.64453l-.5586-.7539.5586-.60157v1.35547m0-1.35547v1.35547l.0039.0039v-1.36327l-.0039.0039"/><g clip-path="url(#d)"><path fill="#fff" fill-opacity="0" fill-rule="evenodd" d="M467.9961 311.67188H468v163.61328-163.61329h-.0039"/></g><path fill="#fff" fill-opacity="0" fill-rule="evenodd" d="M228.92578 448.65234l2.77344 5.14063 8.76562-4.73438-2.77343-5.13671-8.76563 4.73046"/><path fill-rule="evenodd" d="M237.74219 447.8711l.24219.4453-5.54297 2.9922-.3711-.69141 3.94922-2.13281-.66016-1.22266.48829-.26563.32422.46485.16796.19531.1875.16016.22266.10937.26563.05469.32812-.01563.39844-.09375"/><g clip-path="url(#e)"><path fill="none" stroke="#000" stroke-linecap="round" stroke-linejoin="round" stroke-miterlimit="10" stroke-width=".5" d="M147.51172 480.3789l-7.02344-.09765"/></g><g clip-path="url(#f)"><path fill="none" stroke="#000" stroke-linecap="round" stroke-linejoin="round" stroke-miterlimit="10" stroke-width=".5" d="M146.49219 480.36328l.5586 1.08985"/></g><g clip-path="url(#g)"><path fill="none" stroke="#000" stroke-linecap="round" stroke-linejoin="round" stroke-miterlimit="10" stroke-width=".5" d="M160.78125 480.89453l-6.9336-1.1289"/></g><g clip-path="url(#h)"><path fill="none" stroke="#000" stroke-linecap="round" stroke-linejoin="round" stroke-miterlimit="10" stroke-width=".5" d="M159.77344 480.73047l.39453 1.16015"/></g><g clip-path="url(#i)"><path fill="none" stroke="#000" stroke-linecap="round" stroke-linejoin="round" stroke-miterlimit="10" stroke-width=".5" d="M174.08984 480.94922l-6.91797-1.23828"/></g><g clip-path="url(#j)"><path fill="none" stroke="#000" stroke-linecap="round" stroke-linejoin="round" stroke-miterlimit="10" stroke-width=".5" d="M173.08203 480.76563l.375 1.16796"/></g><g clip-path="url(#k)"><path fill="none" stroke="#000" stroke-linecap="round" stroke-linejoin="round" stroke-miterlimit="10" stroke-width=".5" d="M187.1914 481.67188l-6.49218-2.6875"/></g><g clip-path="url(#l)"><path fill="none" stroke="#000" stroke-linecap="round" stroke-linejoin="round" stroke-miterlimit="10" stroke-width=".5" d="M200.46094 481.78125l-6.40235-2.90234"/></g><g clip-path="url(#m)"><path fill="none" stroke="#000" stroke-linecap="round" stroke-linejoin="round" stroke-miterlimit="10" stroke-width=".5" d="M213.71875 481.89453l-6.28906-3.13281"/></g><g clip-path="url(#n)"><path fill="none" stroke="#000" stroke-linecap="round" stroke-linejoin="round" stroke-miterlimit="10" stroke-width=".5" d="M227.19922 481.50781l-6.61719-2.35937"/></g><g clip-path="url(#o)"><path fill="none" stroke="#000" stroke-linecap="round" stroke-linejoin="round" stroke-miterlimit="10" stroke-width=".5" d="M226.23828 481.16406l.17578 1.21485"/></g><g clip-path="url(#p)"><path fill="none" stroke="#000" stroke-linecap="round" stroke-linejoin="round" stroke-miterlimit="10" stroke-width=".5" d="M240.71484 480.53516l-7.01562-.41016"/></g><g clip-path="url(#q)"><path fill="none" stroke="#000" stroke-linecap="round" stroke-linejoin="round" stroke-miterlimit="10" stroke-width=".5" d="M239.6914 480.47266l.51173 1.11718"/></g><g clip-path="url(#r)"><path fill="none" stroke="#000" stroke-linecap="round" stroke-linejoin="round" stroke-miterlimit="10" stroke-width=".5" d="M254.02734 480.1289l-7.01562.40235"/></g><g clip-path="url(#s)"><path fill="none" stroke="#000" stroke-linecap="round" stroke-linejoin="round" stroke-miterlimit="10" stroke-width=".5" d="M253.00781 480.1875l.63672 1.04688"/></g><g clip-path="url(#t)"><path fill="none" stroke="#000" stroke-linecap="round" stroke-linejoin="round" stroke-miterlimit="10" stroke-width=".5" d="M267.28516 479.66797l-6.89844 1.32031"/></g><g clip-path="url(#u)"><path fill="none" stroke="#000" stroke-linecap="round" stroke-linejoin="round" stroke-miterlimit="10" stroke-width=".5" d="M266.28125 479.85938l.76953.95703"/></g><g clip-path="url(#v)"><path fill="none" stroke="#000" stroke-linecap="round" stroke-linejoin="round" stroke-miterlimit="10" stroke-width=".5" d="M280.35547 478.88672l-6.41016 2.88281"/></g><g clip-path="url(#w)"><path fill="none" stroke="#000" stroke-linecap="round" stroke-linejoin="round" stroke-miterlimit="10" stroke-width=".5" d="M293.9375 479.77734l-6.9414 1.10157"/></g><g clip-path="url(#x)"><path fill="none" stroke="#000" stroke-linecap="round" stroke-linejoin="round" stroke-miterlimit="10" stroke-width=".5" d="M307.23828 479.70703l-6.91406 1.24219"/></g><g clip-path="url(#y)"><path fill="none" stroke="#000" stroke-linecap="round" stroke-linejoin="round" stroke-miterlimit="10" stroke-width=".5" d="M306.23438 479.88672l.7578.96484"/></g><g clip-path="url(#z)"><path fill="none" stroke="#000" stroke-linecap="round" stroke-linejoin="round" stroke-miterlimit="10" stroke-width=".5" d="M320.27344 481.83203l-6.35547-3.0039"/></g><g clip-path="url(#A)"><path fill="none" stroke="#000" stroke-linecap="round" stroke-linejoin="round" stroke-miterlimit="10" stroke-width=".5" d="M332.09375 483.41406l-3.36328-6.17187"/></g><g clip-path="url(#B)"><path fill="none" stroke="#000" stroke-linecap="round" stroke-linejoin="round" stroke-miterlimit="10" stroke-width=".5" d="M341.30469 482.875l4.84375-5.09375"/></g><g clip-path="url(#C)"><path fill="none" stroke="#000" stroke-linecap="round" stroke-linejoin="round" stroke-miterlimit="10" stroke-width=".5" d="M353.53125 480.5039l7.01953-.35156"/></g><g clip-path="url(#D)"><path fill="none" stroke="#000" stroke-linecap="round" stroke-linejoin="round" stroke-miterlimit="10" stroke-width=".5" d="M354.55469 480.45313l-.6289-1.0547"/></g><g clip-path="url(#E)"><path fill="none" stroke="#000" stroke-linecap="round" stroke-linejoin="round" stroke-miterlimit="10" stroke-width=".5" d="M366.88672 479.76953l6.9375 1.11719"/></g><g clip-path="url(#F)"><path fill="none" stroke="#000" stroke-linecap="round" stroke-linejoin="round" stroke-miterlimit="10" stroke-width=".5" d="M367.89844 479.9336l-.39844-1.16016"/></g><g clip-path="url(#G)"><path fill="none" stroke="#000" stroke-linecap="round" stroke-linejoin="round" stroke-miterlimit="10" stroke-width=".5" d="M380.1836 479.91797l6.97656.82031"/></g><g clip-path="url(#H)"><path fill="none" stroke="#000" stroke-linecap="round" stroke-linejoin="round" stroke-miterlimit="10" stroke-width=".5" d="M381.19531 480.03906l-.44531-1.14453"/></g><g clip-path="url(#I)"><path fill="none" stroke="#000" stroke-linecap="round" stroke-linejoin="round" stroke-miterlimit="10" stroke-width=".5" d="M393.48047 480.57422l7.01172-.49219"/></g><g clip-path="url(#J)"><path fill="none" stroke="#000" stroke-linecap="round" stroke-linejoin="round" stroke-miterlimit="10" stroke-width=".5" d="M393.48047 480.57422l-1.30078-2.07813"/></g><g clip-path="url(#K)"><path fill="none" stroke="#000" stroke-linecap="round" stroke-linejoin="round" stroke-miterlimit="10" stroke-width=".5" d="M406.83203 480.8789l6.9414-1.09765"/></g><g clip-path="url(#L)"><path fill="none" stroke="#000" stroke-linecap="round" stroke-linejoin="round" stroke-miterlimit="10" stroke-width=".5" d="M406.83203 480.8789l-1.47656-1.96093"/></g><g clip-path="url(#M)"><path fill="none" stroke="#000" stroke-linecap="round" stroke-linejoin="round" stroke-miterlimit="10" stroke-width=".5" d="M407.83984 480.71875l-.73828-.98047"/></g><g clip-path="url(#N)"><path fill="none" stroke="#000" stroke-linecap="round" stroke-linejoin="round" stroke-miterlimit="10" stroke-width=".5" d="M420.16797 480.9961l6.89844-1.33594"/></g><g clip-path="url(#O)"><path fill="none" stroke="#000" stroke-linecap="round" stroke-linejoin="round" stroke-miterlimit="10" stroke-width=".5" d="M420.16797 480.9961l-1.54297-1.90626"/></g><g clip-path="url(#P)"><path fill="none" stroke="#000" stroke-linecap="round" stroke-linejoin="round" stroke-miterlimit="10" stroke-width=".5" d="M421.17188 480.80469l-.77344-.95703"/></g><g clip-path="url(#Q)"><path fill="none" stroke="#000" stroke-linecap="round" stroke-linejoin="round" stroke-miterlimit="10" stroke-width=".5" d="M433.41797 480.41016l7.02734-.16407"/></g><g clip-path="url(#R)"><path fill="none" stroke="#000" stroke-linecap="round" stroke-linejoin="round" stroke-miterlimit="10" stroke-width=".5" d="M433.41797 480.41016l-1.20313-2.13672"/></g><g clip-path="url(#S)"><path fill="none" stroke="#000" stroke-linecap="round" stroke-linejoin="round" stroke-miterlimit="10" stroke-width=".5" d="M446.73438 480.30078l7.02734.05469"/></g><g clip-path="url(#T)"><path fill="none" stroke="#000" stroke-linecap="round" stroke-linejoin="round" stroke-miterlimit="10" stroke-width=".5" d="M446.73438 480.30078l-1.13672-2.17578"/></g><g clip-path="url(#U)"><path fill="none" stroke="#000" stroke-linecap="round" stroke-linejoin="round" stroke-miterlimit="10" stroke-width=".5" d="M460.05078 480.2461l7.02344.16406"/></g><g clip-path="url(#V)"><path fill="none" stroke="#000" stroke-linecap="round" stroke-linejoin="round" stroke-miterlimit="10" stroke-width=".5" d="M460.05078 480.2461l-1.10156-2.19141"/></g><g clip-path="url(#W)"><path fill="none" stroke="#000" stroke-linecap="round" stroke-linejoin="round" stroke-miterlimit="10" stroke-width=".5" d="M147.50781 466.83594l-7.01562.35547"/></g><path fill="none" stroke="#000" stroke-linecap="round" stroke-linejoin="round" stroke-miterlimit="10" stroke-width=".5" d="M146.48828 466.88672l.6289 1.05078m13.70704-1.10156l-7.01953.35547m6-.3047l.6289 1.0547m13.27344-2.625l-6.15234 3.39453m5.25781-2.90235l1.02734.67188m13.25782-1.01563l-6.3047 3.09766m5.38673-2.64844l.9961.71875m13.33983-.9414l-6.51171 2.64453m5.5664-2.25781l.9375.78515m13.3789-1.02734l-6.62108 2.35547m5.65625-2.01172l.90625.82812m13.375-1.16797l-6.625 2.34766m5.66015-2.00781l.90625.82812m13.23828-1.48828l-6.35547 2.98828m5.4336-2.55468l.98047.73437m13.16015-1.35937l-6.16406 3.37109m5.26953-2.88281l1.02344.67578m12.8164-1.71485L261.125 469.25m4.63281-3.82031l1.13281.46875m13.00782-1.07031l-5.4961 4.37109m4.69922-3.73438l1.125.48829m13.14063-.92188l-5.80469 3.96484m4.96094-3.38671l1.08593.5703m13.1211-1.07421l-5.89844 3.8164m5.03906-3.26171l1.07422.59765M320.375 465.75l-6.5586 2.52734m5.60547-2.16015l.92579.80469m12.30468-2.61329l-4.48437 5.41016m15.82812-6.20703l-.53906 7.0039m11.10547-5.99218l4.95703 4.98047m-4.23437-4.25782l.35937-1.17187m12.75.02344l3.92188 5.83203m-3.35157-4.98438l.57813-1.08203m10.63281 3.51172l6.99219-.72266m-5.97656.6172l-.6836-1.01563m12.98438.39843l6.98828.72266m-6.98828-.72266l-.92578-2.27343m14.30468 1.86718l6.85938 1.53516m-6.85938-1.53516l-.65234-2.36328M420.73828 465l5.75781 4.02734m-4.92187-3.4414l.14844-1.21875m13.8164-.57813l2.78516 6.44922m-2.3789-5.51172l.76562-.95703m12.08203.04688l2.90625 6.39453m-2.90625-6.39453l1.4961-1.94532m10.82421 2.6211l4.89453 5.04297m-4.1836-4.3086l.37891-1.16797"/><g clip-path="url(#X)"><path fill="none" stroke="#000" stroke-linecap="round" stroke-linejoin="round" stroke-miterlimit="10" stroke-width=".5" d="M147.20703 455.13672l-6.41406-2.875"/></g><path fill="none" stroke="#000" stroke-linecap="round" stroke-linejoin="round" stroke-miterlimit="10" stroke-width=".5" d="M146.27344 454.71875l.08203 1.22266m13.78125-.15235l-5.64453-4.17968m18.58984-.42579l-4.90234 5.03125m12.32422-3.21875l6.8828 1.40235m9.08595 2.72265l1.57422-6.84765m15.69921 1.91015l-6.33984 3.03125m5.41797-2.58984l.98437.72656m12.71485-1.97656l-5.26563 4.64844m4.5-3.97266l1.14844.42969m12.78906-1.26172l-4.98047 4.95703m4.25782-4.23437l1.17187.35937m12.9961-.9414l-5.2422 4.67968m4.48048-4l1.15234.42578m13.51953-.18359l-6.42969 2.83594m5.4922-2.42578l.96484.76172m13.0039-1.69141l-5.86328 3.875m5.86328-3.875l2.15625 1.17187m10.8789-1.53906l-5.30468 4.60938m5.30469-4.60938l2.29297.8789m11.55078-.0703l-6.35938 2.99218m5.4336-2.5586l.98047.73438m13.5-.48046l-6.83985 1.61328m5.84375-1.37891l.8086.92188m13.38671-1.55079l-6.60546 2.40235m5.64453-2.05078l.91015.8203m12.75-2.23046l-5.375 4.52344m4.59375-3.86719l1.13672.46094m10.625-2.35156l-.70703 6.99218m.60547-5.97656l1.13281-.46094m11.05078-.46094l1.75782 6.8047m-1.5-5.81641l.90234-.82813m16.46875 2.50781l-6.8711 1.46875m13.6211-2.32812l6.26172 3.1875m-6.26172-3.1875l-.04688-2.45313m13.48829 5.8711l6.0078-3.64844m-5.1328 3.11719l-1.0547-.6289m13.19141-1.85157l6.61329 2.375m-5.64844-2.03125l-.17578-1.21484m15.72265-1.45313l.22266 7.02344m-.1914-6.0039l1.0625-.60938m12.29687-.41407l.07031 7.02735m-.07031-7.02735l2.15625-1.17187m-2.14453 2.19531l1.07422-.58594m12.73828-.40234l-.94922 6.96094m.94922-6.96094l2.30468-.85156"/><g clip-path="url(#Y)"><path fill="none" stroke="#000" stroke-linecap="round" stroke-linejoin="round" stroke-miterlimit="10" stroke-width=".5" d="M147.47656 439.88281l-6.95312 1"/></g><path fill="none" stroke="#000" stroke-linecap="round" stroke-linejoin="round" stroke-miterlimit="10" stroke-width=".5" d="M146.46484 440.02734l.72657.9922m13.63672-.57423l-7.02735-.1211m6.0039.10157l.5586 1.09375m13.75-.67187l-6.96484-.9297m5.94922.79688l.42968 1.14844m7.08594-2.59375l6.66406 2.22656m-5.6953-1.90234l-.20313-1.21094m18.39453-.45312l-5.02735 4.91015m16.8086.91797l-1.95703-6.75m11.10547 1.89453l6.375 2.96094m9.39453-4.91797l1.46484 6.875m12.4961-6.94922l.17577 7.02344m-.15234-6l1.07031-.60547m14.2461.16406l-3.875 5.86329m3.3086-5.01172l1.22265.11718m11.76562-1.39453l-2.08984 6.71094m1.78516-5.73437l1.20703-.22657m12.75-.625l-2.76172 6.46094m2.35937-5.51953l1.22266-.10547m12.5625-.80469l-2.89844 6.40235m2.89844-6.40235l2.44922-.15625m12.0664 1.04688l-5.30078 4.61719m5.30078-4.6172l2.28907.87892m11.39453-.3711l-6.03516 3.60156m6.03516-3.60156l2.09765 1.27344m10.71485-1.92188l-5.03516 4.90235m4.30469-4.1914l1.16797.375m11.91797-1.78516l-3.11328 6.30078m2.66015-5.38672l1.22656-.03516m9.9297-1.08203l2.10937 6.70313m-2.10938-6.70313l1.71875-1.75m10.23438 2.55469l4.83593 5.09765m-4.83593-5.09765l.77734-2.32813m11.83984 6.5l6.23047-3.25m-5.32422 2.77735l-1.01171-.69532m13.04296-.0625l6.98438-.78906m-5.96875.67578l-.6914-1.01172m18.96093-1.7578l-4.95703 4.98046m4.95703-4.98047l2.35156.71094m10.02344-1.38281l-3.07422 6.3203m3.07422-6.3203l2.44922-.08985m-2.89844 1.01172l1.22656-.04687m11.34766-1.21094l-.69531 6.99219m.69531-6.9922l2.26953-.93358m-2.3711 1.95312l1.13673-.46875m13.07812-.375l-2.29297 6.64063m2.29297-6.64063l2.42578-.38281"/><g clip-path="url(#Z)"><path fill="none" stroke="#000" stroke-linecap="round" stroke-linejoin="round" stroke-miterlimit="10" stroke-width=".5" d="M146.53125 424.63281l-5.0625 4.8711"/></g><path fill="none" stroke="#000" stroke-linecap="round" stroke-linejoin="round" stroke-miterlimit="10" stroke-width=".5" d="M145.79297 425.33984l1.16797.38282m13.73828.40625l-6.76953 1.8789m5.78515-1.60547l.84375.89063m13.40625.88281l-6.66797-2.21484m5.69922 1.89062l.20313 1.21094m13.90625-.45703l-6.32031-3.07031m6.3203 3.0703l.08985 2.44923m13.17188-2.34766l-6.21485-3.27734m6.21485 3.27734l.01172 2.45313m13.125-6.03125l-5.85547 3.8828m5.0039-3.3203l1.07813.58593m11.78125-2.32812l-3.24219 6.23828m2.76953-5.32813l1.22656-.01171m13.6172-.0547l-5.35548 4.55079m4.57813-3.88672l1.14062.45313m9.51953-2.27344l1.50782 6.86328m-1.28516-5.86328l.9336-.79688m13.5078-.23437l-1.1875 6.92578m1.01173-5.91797l1.16797-.38672m13.48828-.19922l-3.51563 6.08203m3.51563-6.08203l2.44922.08594m9.64453-.51562l-1.07813 6.9414m.92188-5.9336l1.16015-.40234m13.625-.12109l-3.70312 5.97266m3.16406-5.10547l1.22266.08203m11.27734-1.4414l-.9961 6.95703m.9961-6.95704l2.3086-.83203m11.85937 1.0664l-2.70313 6.48829m2.70313-6.48828l2.44531-.22656m12.17578 1.17187l-5.3164 4.59766m5.3164-4.59766l2.28907.88672m11.5625-.05078l-6.38672 2.92969m5.45703-2.50391l.97656.74219m8.55469-2.8711l3.03906 6.33203m-2.59766-5.41015l.73047-.98828m11.47266.48828l4.38281 5.48828m-4.38281-5.48828l.97266-2.2539m-.33594 3.05077l.48828-1.125m14.3125-.4414l.13672 7.02734m-.13672-7.02734l2.14062-1.19532m13.1875 1.78125l-3.88671 5.85547m3.88671-5.85547l2.44141.23829m10.86719-.2422L421.67969 430m3.875-5.86328l2.4414.23437m-3.0039.6211l1.21875.11718m12.28125-1.1875l-3.1211 6.29297m3.1211-6.29297l2.45312-.0703m9.59766-.28516l-.59375 7.0039m.59375-7.0039l2.25781-.96485m-2.34375 1.98438l1.1289-.48047m12.6797-.48047l-1.41016 6.88672m1.41016-6.88672l2.35546-.6914m-2.55859 1.6953l1.17578-.34765"/><g clip-path="url(#aa)"><path fill="none" stroke="#000" stroke-linecap="round" stroke-linejoin="round" stroke-miterlimit="10" stroke-width=".5" d="M146.83203 411.67578l-5.66406 4.15625"/></g><path fill="none" stroke="#000" stroke-linecap="round" stroke-linejoin="round" stroke-miterlimit="10" stroke-width=".5" d="M146.83203 411.67578l2.21094 1.0664m-3.03516-.46093l1.10547.53125m13.14453-.98047l-5.88281 3.84375m5.88281-3.84375l2.14844 1.1836m11.71484.33984l-6.98047.79687m5.96485-.68359l.69531 1.01172m13.1875 1.03125l-6.08594-3.51563M186.10156 415l-.04297 1.22656m14.59375-1.55469l-6.78515-1.83593m5.79687 1.5664l.27344 1.19532m14.10156-2.4375l-6.92578 1.18359m5.91797-1.01172l.75.97266m9.19531 2.83984l1.82813-6.78125m-1.5625 5.79688l-1.19531.27343m13.8828.59375l2.55079-6.54687m-2.17969 5.59375l-1.21875.14453m17.71484-5.14453l-4.55078 5.35547m3.88672-4.57422l1.19922.26172m11.22656 5.07422l-1.4453-6.875m1.23437 5.875l-.94141.78515m10.64453-4.875l6.19922 3.30469m12.51953-4.30469l-4.60547 5.30469m3.9336-4.53516l1.1953.27735m7.1172 2.60156l6.73828-1.99219m11.29687-2.25l-2.69922 6.48828m2.3047-5.54297l1.22265-.11718m10.78125-1.07813l.71094 6.99219m-.60547-5.97656l1.01953-.67969m15.36719 1.0664l-5.64063 4.1875m4.82031-3.57812l1.10938.52344m12.28906 3.78906l-4.16797-5.65625m17.9414.40235l-5.08593 4.85156m5.08594-4.85156l2.32812.77343m10.11719-1.4375l-3.34766 6.17969m3.34766-6.17969l2.45703.01953m-2.9414.87891l1.22656.01172m12.03515-1.14453l-2.26953 6.64843m2.26953-6.64843l2.42579-.39063m-2.75391 1.35547l2.42187-.38672m11.61329-.41797l-3.0547 6.32813m3.0547-6.32813l2.45312-.09375m-2.89844 1.01563l1.22656-.05078m12.3711-.94532l-2.72656 6.47657m2.72656-6.47657l2.4414-.22265m-2.83984 1.16406l1.22266-.10937M438.75 410.75l-3.63672 6.00781M438.75 410.75l2.45313.13672m10.47265-.34375l-2.85937 6.41797m2.85937-6.41797l2.44922-.16797m9.79297-.11719l-.71094 6.99219m.71094-6.99219l2.26953-.92578m-2.375 1.9414l1.13672-.46093"/><g clip-path="url(#ab)"><path fill="none" stroke="#000" stroke-linecap="round" stroke-linejoin="round" stroke-miterlimit="10" stroke-width=".5" d="M146.75781 398.26172l-5.51562 4.35156"/></g><path fill="none" stroke="#000" stroke-linecap="round" stroke-linejoin="round" stroke-miterlimit="10" stroke-width=".5" d="M146.75781 398.26172l2.2461.98828m-3.04688-.35547l1.1211.4961m12.92968-1.21094l-5.38672 4.51562m5.38672-4.51562l2.27344.92187m-3.0586-.26562l1.14063.46094m13.07813-.96485l-5.625 4.21094m5.625-4.21094l2.22265 1.04297m-3.03906-.42969l1.10938.51953m13.47265-.32812l-6.52344 2.60547m5.57422-2.22656l.9375.79296m13.35938 1.35157l-6.58985-2.44532m5.63282 2.08985l.16015 1.21484m7.67969-.5l6.27734-3.16015m7.59766-.8047l5.15625 4.76954m-4.40625-4.07813l.3125-1.18359m18.24219 2.03125l-6.82031 1.6914m5.82812-1.4453l.8164.91406m8.94923 3.01171l2.2578-6.65625m-1.92968 5.6875l-1.21094.19922m17.21875.40625l-3.78125-5.92578m3.23047 5.0625l-.60547 1.0664m16.08594-3.39062l-7.01172.44922m5.99219-.38672l.64453 1.04688m13.66797-1.34375l-6.96875.91406m5.95703-.78125l.71094 1m12.50781-3.26562l-4.75 5.17968m4.0586-4.42578l1.1875.3086m13.69921.20312l-6.51172 2.64844m20.07813-1.11328l-7.01563-.42188m5.9961.35938l.50781 1.11719m9.10547 2.03125l2.42969-6.59375m8.8203 2.03515l6.5586 2.52344m12.08203 1.59375l-4.09375-5.71094m3.5 4.88281l-.54687 1.09766m14.64453-5.83594l-4.47266 5.42188m4.47266-5.42188l2.40625.49219m10.53906-.75781l-3.73047 5.95312m3.73047-5.95312l2.44922.17578m11.32031.16406l-4.64062 5.27735m4.64062-5.27735l2.38672.5664m10.11719-1.10156l-3.01563 6.34766m3.01563-6.34765l2.44922-.11329m-2.88672 1.03516l2.44922-.10938m11.61328-.64453l-3.63672 6.01172m3.63672-6.01172l2.44922.13282m11.42578.28515l-4.75781 5.17188m4.75781-5.17188l2.375.6211m9.98828-1.2461l-2.85547 6.42188m2.85547-6.42188l2.44922-.16797"/><g clip-path="url(#ac)"><path fill="none" stroke="#000" stroke-linecap="round" stroke-linejoin="round" stroke-miterlimit="10" stroke-width=".5" d="M146.17188 384.36328l-4.34375 5.52344"/></g><path fill="none" stroke="#000" stroke-linecap="round" stroke-linejoin="round" stroke-miterlimit="10" stroke-width=".5" d="M146.17188 384.36328l2.41406.4336m-3.04688.36718l1.20703.21875m13.06641-.73047l-4.99219 4.94141m4.99219-4.9414l2.34375.72656m-3.07031-.00782l1.17187.36329m13.04688-.89063l-5.34766 4.5586m5.34766-4.5586l2.28125.90234m-3.0586-.23828l1.14063.45313m10.25-2.35156l.05469 7.02734m-.0547-7.02735l2.16017-1.16796m7.8828 3.47265l6.59766 2.41797m-5.63672-2.0664l-.16796-1.21485m18.13672 4.71485l-4.62891-5.28516M212.21484 389l-.43359 1.14453m14.99219-1.01172l-5.76563-4.01953m4.92578 3.4336l-.14843 1.21875m14.89843-2.15235l-6.95703-.98047m20.14844-.55078l-6.71094 2.08203m5.73438-1.77734l.8711.86328m13.46093-1.03125l-6.78906 1.8086m19.54687 1.17187l-5.67187-4.14844m4.84375 3.54297l-.17188 1.21484m14.98047-2.9375l-7.00781.50391m5.98828-.42969l.65234 1.03906m13.01172-2.9414l-5.66406 4.16015m4.83984-3.55468l1.10547.53515m12.91797-1.28906l-5.42969 4.45703m4.63672-3.8086l1.13281.46876m13.54688-.125l-6.57813 2.47265m6.57813-2.47265l1.83984 1.625m11.0664-2.40235l-5.7578 4.02735m4.91796-3.4414l1.09375.55468m6.84375 1.97266l6.67579-2.19922m-5.70313 1.8789l-.88672-.84765m19.78906-1.32813l-6.4453 2.79297m6.4453-2.79297l1.92188 1.53125m10.73438-2.53515l-5.12891 4.80468m5.1289-4.80468l2.32422.79296m10.58204-1.16796l-4.3086 5.55078m4.3086-5.55078l2.41796.41796m-3.04687.39063l1.21094.20703m11.36718-1.66406l-1.57812 6.84765m1.57812-6.84765l2.3711-.63672m11.03125.65625l-1.75 6.8086m1.75-6.8086l2.38281-.57422m11.35156.71094l-2.58984 6.53515m2.58984-6.53515l2.4375-.26953m-2.8125 1.22265l1.21875-.13671m11.66406-1.02735l-.97265 6.95703m.97265-6.95703l2.3047-.84375M465 383.91797l-2.8789 6.41015M465 383.91798l2.44922-.16406"/><g clip-path="url(#ad)"><path fill="none" stroke="#000" stroke-linecap="round" stroke-linejoin="round" stroke-miterlimit="10" stroke-width=".5" d="M143.1836 370.39063l1.6328 6.83593"/></g><g clip-path="url(#ae)"><path fill="none" stroke="#000" stroke-linecap="round" stroke-linejoin="round" stroke-miterlimit="10" stroke-width=".5" d="M143.1836 370.39063l1.83984-1.625"/></g><path fill="none" stroke="#000" stroke-linecap="round" stroke-linejoin="round" stroke-miterlimit="10" stroke-width=".5" d="M158.1211 370.38672l-1.61329 6.83984m1.61328-6.83984l2.375-.6211m12.85547 1.81641l-5.4414 4.44922m5.4414-4.44922l2.26172.94922m8.03906-2.22266l.58594 7m-.5-5.98437l1.03125-.66406m13.4375-.23438l-1.89453 6.76563m1.89453-6.76563l2.39844-.52734m10.73437.48047l-1.52734 6.85937m1.30469-5.86328l1.1836-.32422m13.10937-.41015l-3.03907 6.33593m2.59766-5.41406l1.22266-.05078m14.41797 1.42969l-6.8086 1.73437m5.82031-1.48437l.82422.91015m13.57031.08594l-6.98828-.75781m19.54297-1.82813l-5.46875 4.41406m18.90625-4.2539l-5.71094 4.09375m18.40235-4.76172l-4.46485 5.42969m3.8125-4.64063l1.20313.2461m13.91797.74218l-6.77344 1.875m19.17969-3.42968l-4.95313 4.98437m4.23047-4.25781l1.17578.35156m8.51563-1.5625l3.73437 5.95313m11.86329-6.46485l-.82813 6.97656m.70703-5.96093l1.14453-.44531m14.625.73046l-5.4961 4.375m5.4961-4.375l2.25.97657m11.40235-.46875l-6.17188 3.35937m5.27344-2.8711l1.02344.67579m11.90234-2.5039l-3.59375 6.03906m3.07031-5.16016l1.22656.0586m11.03516-1.42579l-.4414 7.01563m.3789-5.9961l1.11719-.5039m14.59375.57812l-5.10547 4.82813m5.10547-4.82813l2.32422.78125m11.40625-.24219l-5.9414 3.75m5.9414-3.75l2.13281 1.21485m9.92188-2.41016l-3.41797 6.14063m3.41796-6.14063l2.45313.04688m10.73828-.11329l-3.17187 6.26954m3.17187-6.26954l2.45313-.04687m-2.91407.96094l1.22657-.02735m11.8164-1.16015l-1.70312 6.82031m1.70312-6.82031l2.38281-.58985"/><g clip-path="url(#af)"><path fill="none" stroke="#000" stroke-linecap="round" stroke-linejoin="round" stroke-miterlimit="10" stroke-width=".5" d="M141.23047 358.33203l5.53906 4.32422"/></g><path fill="none" stroke="#000" stroke-linecap="round" stroke-linejoin="round" stroke-miterlimit="10" stroke-width=".5" d="M154.30078 358.6875l6.02734 3.60938m-6.02734-3.60938l.125-2.44922m12.6914 4.20703l7.02735.09766m-6.0039-.08594l-.5625-1.08984m14.2578-1.6836l4.21876 5.6211M182.44922 358.5l.52344-1.10938m11.35547 1.16407l5.86328 3.8789m-5.00782-3.3164l.1172-1.21875m13.78905-.58985l2.97266 6.3672m9.875-6.10548l3.90625 5.84375m12.82031-6.11719l-2.91797 6.39063m2.4961-5.46094l1.22265-.07422m13.97266 4.30079l-5.83203-3.92188M265.1875 357.25l-2.70313 6.48828m2.3086-5.54687l1.22265-.11329m9.95313-.89453l2.36328 6.6172m-2.01953-5.65235l.82422-.90625m13.96875-.20313l-1.27735 6.91016m1.08985-5.90625l1.17187-.36719m15.01172 1.66406l-6.64062 2.3047m5.67187-1.96876l.90235.83594m8.8789-3.32813l2.36328 6.6172m-2.01953-5.65235l.82813-.90625m14.8789 6.40234l-3.10937-6.30078m2.65625 5.38281l-.71485.9961m14.57422-6.33594l-3.28906 6.21094m12.42578-.67188l5.0664-4.86719m14.22266 3.14063l-6.8828-1.41016m5.8828 1.20313l.34766 1.17969m13.5625-3.44532l-6.07422 3.53125m5.1914-3.01562l1.04298.64453m11.6289-2.5664l-3.01953 6.34374m2.57813-5.42187l1.22656-.05469m10.15625-1.10156l1.72656 6.8125m-1.47265-5.82031l.90625-.82422m13.55468-.23438l-1.07422 6.94531m.91797-5.93359l1.16016-.40234m11.77344-.64844v7.02734m0-6.0039l1.08593-.57813m12.13282-.44531l.19531 7.02344m-.19531-7.02344l2.13281-1.21094m12.6914 1.5039l-2.8203 6.4375m2.8203-6.4375l2.44532-.18359"/><g clip-path="url(#ag)"><path fill="none" stroke="#000" stroke-linecap="round" stroke-linejoin="round" stroke-miterlimit="10" stroke-width=".5" d="M140.96875 345.40234l6.0625 3.55079"/></g><path fill="none" stroke="#000" stroke-linecap="round" stroke-linejoin="round" stroke-miterlimit="10" stroke-width=".5" d="M153.92578 346.25l6.77734 1.85547m-6.77734-1.85547l-.53906-2.39453m1.52734 2.66406l-.26953-1.19531m12.72656 3.16797l6.51563-2.6289m-6.51563 2.6289l-1.8789-1.57813m16.83594 3.38281l3.23437-6.23828m-2.76563 5.33204l-1.22656.01171m12.39453-1.01171l6.59375-2.42579m-5.63672 2.07422l-.91406-.8164m15.27344 3.22265l2.58984-6.53515m-2.21484 5.58203l-1.21875.13672m12.22266-1.07032l6.46093-2.76171m-5.52343 2.35937l-.95313-.76953m20.07422-.20703h-7.02734m20.29297.58203l-6.9297-1.16797m5.92188 1l.38672 1.16016m13.94531-1.03907l-6.9453-1.07421m19.10155-2.10547l-4.6289 5.28515m18.0625-5.17969l-4.86328 5.07422m4.15234-4.33593l1.1836.33593m12.66406-1.23437l-4.50782 5.39453m3.85157-4.60938l1.19921.25391m13.96875 2.3164l-6.90234-1.3164m16.64453 4.16797l.2461-7.01953m-.21094 6l-1.10156.53906m17.34765-.96875l-5.6914-4.1211m19.61718 1.41407l-6.91015 1.29297m5.90234-1.10547l.76563.96094m13.60937-.28906l-7.01562-.42188m20.24218 1.02734l-6.83593-1.63671m20.18359.16796l-6.90234 1.30079m5.89843-1.11329l.76563.95704m13.16406-2.21875l-6.125 3.44921m5.23438-2.9453l1.03125.66015m10.73046-2.89844L423 350.63672m1.05469-5.91016l1.16797-.3789m12.4453-.60547l-1.47265 6.8711m1.25781-5.8711l1.1797-.33594m10.18359-.4375l2.85937 6.41797m-2.4414-5.48438l.7539-.96484m15.4414.26563l-3.73827 5.94921m3.1953-5.08203l1.22266.08594"/><g clip-path="url(#ah)"><path fill="none" stroke="#000" stroke-linecap="round" stroke-linejoin="round" stroke-miterlimit="10" stroke-width=".5" d="M142.0664 330.92969l3.8672 5.86719"/></g><path fill="none" stroke="#000" stroke-linecap="round" stroke-linejoin="round" stroke-miterlimit="10" stroke-width=".5" d="M154.21484 332.20703l6.19922 3.3125m-6.19922-3.3125l.00782-2.45312m13.47656 6.04296l5.86328-3.87109m-5.01172 3.3086l-1.07812-.58594m14.67968 2.23437l3.58594-6.04297m-3.0625 5.16407l-1.22656-.0547m14.65625 1.23048l2.3125-6.63281m-1.97656 5.66796l-1.21485.1875m12.03906-1.36328l6.6211-2.35156m-5.66016 2.00781l-.90234-.82812m18.92187 2.60156l-4.71484-5.21094m18.34375 4.89063l-5.33984-4.57031m4.5625 3.90625l-.26563 1.1953m13.92969-.11327l-4.48438-5.41016m3.83203 4.625l-.46484 1.13281m14.64844-.53906l-4.91406-5.02344m4.19921 4.29297l-.37109 1.16797m15.10156-1.41016l-6.3164-3.07812m19.24219 3.70312l-5.53907-4.32812m19.59766 2.20703l-7.02734-.08984m20.30078-.50391l-6.94141 1.09766m5.92969-.9375l.73828.98046m13.34766-1.97656l-6.45704 2.77344m5.51563-2.3711l.95703.76954m9.05078 3.57812L344.7461 330.5m-1.74218 5.7461l-1.20313.23827m16.22656.75l-1.97265-6.74218m1.6836 5.76172l-.87891.85546m15.61328-.4414l-4.23047-5.60938m4.23047 5.60938l-1.03907 2.22656m15.51954-3.77734l-6.56641-2.50781M386 334.75l.15234 1.21875m13.23047.46484l-4.79297-5.14062m4.09766 4.39062l-.39844 1.16016m12.34375.51563l-.66015-6.9961m14.78515 6.82422l-2.28125-6.64844m17.96094 3.1211l-7.01172.40625m5.99219-.34766l.63672 1.04688m13.08984-2.89063l-5.79687 3.97656m4.95312-3.39844l1.08985.57032m12.91796-1.35156l-5.49609 4.3828m4.69531-3.74609l1.1289.48829"/><g clip-path="url(#ai)"><path fill="none" stroke="#000" stroke-linecap="round" stroke-linejoin="round" stroke-miterlimit="10" stroke-width=".5" d="M144.15234 317.03906l-.30468 7.01953"/></g><g clip-path="url(#aj)"><path fill="none" stroke="#000" stroke-linecap="round" stroke-linejoin="round" stroke-miterlimit="10" stroke-width=".5" d="M144.15234 317.03906l2.21485-1.0586"/></g><g clip-path="url(#ak)"><path fill="none" stroke="#000" stroke-linecap="round" stroke-linejoin="round" stroke-miterlimit="10" stroke-width=".5" d="M144.10938 318.0586l1.10546-.52735"/></g><path fill="none" stroke="#000" stroke-linecap="round" stroke-linejoin="round" stroke-miterlimit="10" stroke-width=".5" d="M155.60938 317.47656l3.41015 6.14453m-2.91406-5.25l.66797-1.03125m11.53515 5.84766l4.64063-5.27734m8.8086 5.38671l4.375-5.5m10.68359 6.23438l.89062-6.96875m-.76172 5.95703l-1.14844.4336m15.6797.49218l-1.80079-6.79297m1.53906 5.8047l-.89843.83202m16.24218-.95312l-5.33593-4.57422m4.55859 3.90625l-.26563 1.19922m15.0625-1.83594l-6.74609-1.96484m17.71094.98046l-.01953-.19921-.0586-.19141-.09375-.17578-.46093-.3789-.19141-.0547-.19922-.01953-.19922.01954-.1914.05468-.45703.3789-.09766.17579-.05469.1914-.01953.19923.01953.19921.05469.19141.09766.17969.45703.375.1914.0586.19922.01952.19922-.01953.1914-.0586.46094-.375.09375-.17968.0586-.1914.01953-.19923m8.78125-.03906l7.02344.08203m6.28906-.1289l7.02734.17187m8.48438 3.17188l2.63281-6.51563m-2.25 5.5664l-1.21875.12892m12.9414.0039l5.0547-4.8789m-4.32032 4.16796l-1.16797-.3789m15.03516 1.9375l2.48047-6.57422m15.09375 1.48828l-6.03907 3.59375m5.16016-3.07031l1.05078.63672m13.23047-1.00391l-6.21094 3.28516m5.3086-2.8086l1.01562.6875m9.13672 3.85547L358 317.16797m-1.64063 5.77734l-1.19921.25781m11.6914-2.91406l7.00781.51953m-5.98828-.4453l-.49218-1.125m19.67968.3828l-6.77734 1.85547m5.79297-1.58594l.83984.89063m12.85547-2.375l-5.5664 4.28516m4.7578-3.66407l1.1172.50782m12.59374-1.57813l-4.74218 5.1836m4.05468-4.4297l1.1875.3047m11.15235-1.91016l-1.41797 6.88281m15.78516-.39844l-3.51954-6.08203m3.51954 6.08203l-1.30079 2.08204m16.3711-5.09375l-7.02735-.0586m7.02735.0586l1.13281 2.17578m-2.15625-2.1836l.5664 1.08594m13.28126-2.89844l-6.04688 3.58203"/><g clip-path="url(#al)"><path fill="none" stroke="#000" stroke-linecap="round" stroke-linejoin="round" stroke-miterlimit="10" stroke-width=".5" d="M466.58594 318.75781l2.09375 1.27735"/></g><g clip-path="url(#am)"><path fill="none" stroke="#000" stroke-linecap="round" stroke-linejoin="round" stroke-miterlimit="10" stroke-width=".5" d="M465.70703 319.27734l2.09375 1.27735"/></g><path fill="#00f" fill-rule="evenodd" d="M383.80078 436.57813h8.61719v-10.14454h-8.61719v10.14454"/><path fill="azure" fill-rule="evenodd" d="M385.63281 428.26563h.83203v2.82421h3.28907v-2.82421h.83203v6.48046h-.83203v-2.91406h-3.28907v2.91406h-.83203v-6.48046"/><path fill="#ff3030" fill-rule="evenodd" d="M384.4961 414.38672h7.6914v-10.14453h-7.6914v10.14453"/><path fill="azure" fill-rule="evenodd" d="M386.32813 406.07422h.83203v5.74219h3.1953v.73828h-4.02733v-6.48047"/><path fill="#ff3030" fill-rule="evenodd" d="M295.72656 409.94922h7.69531v-10.14453h-7.6953v10.14453"/><path fill="azure" fill-rule="evenodd" d="M297.5586 401.63672h.83593v5.73828h3.1914v.74219h-4.02734v-6.48047"/><path fill="#00f" fill-rule="evenodd" d="M370.48438 401.07422h8.62109v-10.14844h-8.6211v10.14844"/><path fill="azure" fill-rule="evenodd" d="M372.3164 392.76172h.83594v2.82031h3.28516v-2.82031h.83203v6.47656h-.83203v-2.91406h-3.28516v2.91406h-.83593v-6.47656"/><path fill="#ff3030" fill-rule="evenodd" d="M198.08203 374.4414h7.69531v-10.14452h-7.6953v10.14453"/><path fill="azure" fill-rule="evenodd" d="M199.91797 366.1289h.83203v5.7422h3.19531v.73827h-4.02734v-6.48046"/><path fill="#ffffe0" fill-rule="evenodd" d="M297.35938 348.46094h22.17968v-10.1914h-22.17969v10.1914"/><path fill-rule="evenodd" d="M300.85938 340.10156h.5078v6.29688h-.78515v-4.49219h-1.38672v-.55469l.5586-.0664.25-.05079.23046-.08984.20313-.14062.17578-.21094.14063-.29688.10546-.39453m4.8125 0l.23047.01953.21875.0547.20704.08983.19921.1211.1836.14844.17187.17578.30078.42187.2422.49219.17968.54688.11328.57812.03906.59375-.03906.58984-.11328.58594-.17969.55469-.24219.5-.30078.42969-.17187.17968-.1836.15235-.19921.125-.20704.08984-.21875.0586-.23046.01953-.22657-.01954-.21875-.05859-.21094-.08984-.1953-.125-.1836-.15235-.17188-.17968-.30078-.4297-.24219-.5-.17968-.55468-.11328-.58594-.03907-.58984h.83204l.03125.5625.08203.5039.125.44532.16406.375.1875.29687.21094.22266.22265.13672.22656.04687.22657-.04687.22265-.13672.21094-.22266.1914-.29687.16407-.375.125-.44531.08203-.50391.02735-.5625-.02735-.5625-.08203-.5-.125-.4375-.16406-.36328-.1914-.29297-.21095-.21484-.22265-.13282-.22656-.04296-.22657.04296-.22265.13282-.21094.21484-.1875.29297-.16406.36328-.125.4375-.08204.5-.03125.5625h-.83203l.03907-.59375.11328-.57813.17969-.54687.24218-.49219.30078-.42187.17188-.17578.1836-.14844.1953-.1211.21094-.08984.21875-.05469.22656-.01953m5.09375 0h.50782v6.29688h-.78516v-4.49219h-1.39062v-.55469l.5625-.0664.25-.05079.23046-.08984.20313-.14062.17188-.21094.14453-.29688.10546-.39453m2.82422 2.17578h.78516l.01953-.3164.0586-.28516.10156-.2539.14062-.21485.17969-.17187.22266-.12891.26562-.08203.3086-.02735.23828.01954.22265.0625.20313.10156.17969.14062.14843.17188.11328.20703.07032.23438.02734.26562-.02344.26953-.0625.22266-.11328.1914-.15234.17188-.20313.16406-.2461.16406-.6328.39063-.53907.3125-.4375.3164-.34765.32422-.26172.33594-.1914.35156-.125.3711-.07032.39062-.01953.42188h4.21094v-.74219h-3.33204l.08204-.28516.11718-.23437.14844-.20313.1836-.17968.23437-.17188.27734-.17578.71485-.41406.41797-.20703.34375-.23047.28125-.25.21875-.26953.16406-.27735.11328-.28515.0625-.28516.01953-.28125-.04297-.38281-.11719-.34766-.1914-.3086-.25-.26171-.30078-.21094-.34766-.16015-.3789-.09766-.40625-.03516-.4375.03516-.39454.09765-.35546.16407-.3047.23437-.25.30469-.18359.375-.11718.44531-.03907.51953"/><path fill="#ffffe0" fill-rule="evenodd" d="M217.46875 340.97266h22.17969v-10.19141h-22.17969v10.1914"/><path fill-rule="evenodd" d="M220.96875 332.61328h.50781v6.29688h-.78515v-4.4922h-1.38672v-.55468l.5586-.0625.25-.05469.23046-.08984.20313-.14063.17578-.21093.14062-.29297.10547-.39844m4.8125 0l.23047.01953.21875.05469.20703.08984.19922.1211.1836.15234.17187.17578.30078.41797.24219.49219.17968.54687.11328.57813.03907.59375-.03906.59375-.11329.58203-.17968.55469-.2422.5-.30077.42969-.17188.17968-.1836.15235-.19921.125-.20703.08984-.21875.0586-.23047.01952-.22656-.01953-.21875-.05859-.21094-.08984-.19531-.125-.1836-.15235-.17187-.17969-.30078-.42968-.24219-.5-.17969-.55469-.11328-.58203-.03906-.59375h.83594l.02734.5625.08203.5039.125.44532.16406.375.19141.30078.20703.21875.22266.13672.22656.04687.22656-.04687.22266-.13672.21094-.21875.1914-.30078.16406-.375.125-.44531.08204-.50391.02734-.5625-.02734-.5625-.08203-.5-.125-.4375-.16407-.36328-.1914-.29297-.21094-.21485-.22266-.1289-.22656-.04688-.22656.04688-.22266.1289-.20703.21485-.1914.29297-.16407.36328-.125.4375-.08203.5-.02734.5625h-.83594l.03906-.59375.11328-.57813.17969-.54687.24219-.49219.30078-.41797.17187-.17578.1836-.15234.19531-.1211.21094-.08984.21875-.05469.22656-.01953m5.09375 0h.50781v6.29688h-.78515v-4.4922h-1.39063v-.55468l.5625-.0625.25-.05469.23047-.08984.20313-.14063.17578-.21093.14062-.29297.10547-.39844m2.82422 2.17578h.78516l.01953-.3164.05859-.28516.10156-.2539.14063-.21485.17969-.17188.22265-.1289.26563-.08203.30859-.02735.23828.01954.22266.0625.20312.10546.17969.13672.14844.17188.11328.20703.07422.23437.02344.26563-.02344.26953-.0625.22266-.11328.1914-.15235.17188-.20312.16406-.2461.16406-.6328.39063-.53907.3125-.4375.3164-.34766.32422-.26172.33594-.1914.35156-.125.3711-.07031.39062-.01954.42188h4.21094v-.7422h-3.33203l.08594-.28515.11328-.23437.14844-.20313.1875-.17969.23047-.17187.27734-.17578.71875-.41406.41406-.20704.34375-.23046.28125-.25.21875-.26954.16406-.27734.11328-.28515.0625-.28516.01954-.28125-.03907-.38281-.12109-.34766-.1914-.3086-.25-.26171-.30079-.21094-.34765-.16016-.37891-.09765-.40625-.03516-.4336.03516-.39843.09765-.35547.16797-.30469.23438-.25.30078-.1836.375-.11718.44531-.03906.51953"/><path fill="#ffffe0" fill-rule="evenodd" d="M161.97266 441.25h22.17968v-10.1914h-22.17968V441.25"/><path fill-rule="evenodd" d="M165.47266 432.89063h.5078v6.29296h-.78515v-4.48828h-1.39062v-.55469l.5586-.0664.2539-.05469.23047-.08594.20312-.14453.17188-.20703.14453-.29687.10547-.39454m4.8125 0l.23047.01954.21875.05468.20703.08985.1953.1211.1836.14843.17188.17578.30469.42188.24218.49218.17969.54688.10938.57812.03906.58985-.03906.59375-.10938.58593-.17969.5547-.24219.5-.30468.42968-.17188.17969-.1836.15234-.1953.125-.20703.08984-.21875.0586-.23047.01953-.23047-.01953-.21875-.0586-.20703-.08984-.19532-.125-.18359-.15234-.17188-.1797-.30468-.42968-.24219-.5-.17969-.55469-.10937-.58593-.03906-.59375h.83203l.02734.5664.08203.5039.1289.44142.16016.375.19141.30078.21094.22265.22265.13672.22657.04688.22656-.04688.22266-.13672.21093-.22265.1914-.30079.16017-.375.1289-.4414.07813-.5039.03125-.56641-.03125-.5586-.07813-.5-.1289-.4375-.16016-.36719-.1914-.28906-.21095-.21484-.22265-.13281-.22656-.04297-.22657.04297-.22265.1328-.21094.21485-.1914.28906-.16016.3672-.1289.4375-.08204.5-.02734.55859h-.83203l.03906-.58985.10937-.57812.17969-.54688.24219-.49219.30469-.42187.17187-.17578.1836-.14844.1953-.1211.20704-.08984.21875-.05468.23047-.01954m5.08984 0h.51172v6.29297h-.78906v-4.48828h-1.38672v-.55469l.5586-.0664.2539-.05469.22656-.08594.20703-.14453.17188-.20703.14062-.29687.10547-.39454m2.82422 2.17579h.78906l.01953-.31641.0586-.28516.09765-.2539.14063-.21485.17969-.17578.22656-.1289.26562-.07813.30469-.02734.23828.01953.22656.0625.20313.10156.17969.14063.14843.17187.11328.20703.07032.23438.02344.26562-.01954.26953-.0664.22266-.10938.1914-.15625.17188-.19922.16406-.24609.16407-.63672.39062-.53516.3125-.4375.3164-.34765.32423-.26563.33593-.1875.35157-.125.36718-.0703.39454-.01954.41796h4.21094v-.73828h-3.33203l.08203-.28515.11328-.23438.14844-.20312.1875-.1797.23047-.17187.27734-.17578.71875-.41797.41406-.20312.34766-.23047.28125-.2539.21875-.26563.16406-.27735.10938-.28515.0664-.28516.01953-.28125-.04297-.38281-.12109-.34766-.1875-.30859-.25-.26172-.30469-.21484-.34375-.15625-.38281-.09766-.40625-.03515-.4336.03125-.39843.10156-.35547.16406-.30469.23438-.2461.30468-.1875.375-.11718.44531-.03906.51954"/></g></defs><use xlink:href="#an"/></svg>