<svg xmlns="http://www.w3.org/2000/svg" role="img" xmlns:xlink="http://www.w3.org/1999/xlink" viewBox="142.45 309.95 326.84 171.84"><defs><clipPath id="a"><path d="M144 311.67188h1v168.65625h-1zm0 0"/></clipPath><clipPath id="b"><path d="M144 311.67188h324v168.65625H144zm0 0"/></clipPath><clipPath id="c"><path d="M467 311.67188h1V476h-1zm0 0"/></clipPath><clipPath id="d"><path d="M144 480h4v.32813h-4zm0 0"/></clipPath><clipPath id="e"><path d="M146 480h2v.32813h-2zm0 0"/></clipPath><clipPath id="f"><path d="M153 479h9v1.32813h-9zm0 0"/></clipPath><clipPath id="g"><path d="M159 480h2v.32813h-2zm0 0"/></clipPath><clipPath id="h"><path d="M166 479h9v1.32813h-9zm0 0"/></clipPath><clipPath id="i"><path d="M172 480h2v.32813h-2zm0 0"/></clipPath><clipPath id="j"><path d="M180 479h8v1.32813h-8zm0 0"/></clipPath><clipPath id="k"><path d="M186 480h1v.32813h-1zm0 0"/></clipPath><clipPath id="l"><path d="M193 479h8v1.32813h-8zm0 0"/></clipPath><clipPath id="m"><path d="M199 480h2v.32813h-2zm0 0"/></clipPath><clipPath id="n"><path d="M206 479h9v1.32813h-9zm0 0"/></clipPath><clipPath id="o"><path d="M213 480h3v.32813h-3zm0 0"/></clipPath><clipPath id="p"><path d="M220 480h8v.32813h-8zm0 0"/></clipPath><clipPath id="q"><path d="M226 480h2v.32813h-2zm0 0"/></clipPath><clipPath id="r"><path d="M233 479h8v1.32813h-8zm0 0"/></clipPath><clipPath id="s"><path d="M239 479h2v1.32813h-2zm0 0"/></clipPath><clipPath id="t"><path d="M246 478h9v2.32813h-9zm0 0"/></clipPath><clipPath id="u"><path d="M252 479h3v1.32813h-3zm0 0"/></clipPath><clipPath id="v"><path d="M260 478h8v2.32813h-8zm0 0"/></clipPath><clipPath id="w"><path d="M265 478h3v2.32813h-3zm0 0"/></clipPath><clipPath id="x"><path d="M273 478h8v2.32813h-8zm0 0"/></clipPath><clipPath id="y"><path d="M279 479h2v1.32813h-2zm0 0"/></clipPath><clipPath id="z"><path d="M286 479h9v1.32813h-9zm0 0"/></clipPath><clipPath id="A"><path d="M292 479h2v1.32813h-2zm0 0"/></clipPath><clipPath id="B"><path d="M300 479h8v1.32813h-8zm0 0"/></clipPath><clipPath id="C"><path d="M306 479h2v1.32813h-2zm0 0"/></clipPath><clipPath id="D"><path d="M313 479h8v1.32813h-8zm0 0"/></clipPath><clipPath id="E"><path d="M319 479h2v1.32813h-2zm0 0"/></clipPath><clipPath id="F"><path d="M327 478h7v2.32813h-7zm0 0"/></clipPath><clipPath id="G"><path d="M332 478h2v2.32813h-2zm0 0"/></clipPath><clipPath id="H"><path d="M342 479h3v1.32813h-3zm0 0"/></clipPath><clipPath id="I"><path d="M353 480h8v.32813h-8zm0 0"/></clipPath><clipPath id="J"><path d="M366 479h9v1.32813h-9zm0 0"/></clipPath><clipPath id="K"><path d="M367 478h2v2.32813h-2zm0 0"/></clipPath><clipPath id="L"><path d="M379 479h9v1.32813h-9zm0 0"/></clipPath><clipPath id="M"><path d="M380 478h2v2.32813h-2zm0 0"/></clipPath><clipPath id="N"><path d="M393 478h8v2.32813h-8zm0 0"/></clipPath><clipPath id="O"><path d="M406 479h8v1.32813h-8zm0 0"/></clipPath><clipPath id="P"><path d="M419 479h9v1.32813h-9zm0 0"/></clipPath><clipPath id="Q"><path d="M420 478h2v2.32813h-2zm0 0"/></clipPath><clipPath id="R"><path d="M434 477h6v3.32813h-6zm0 0"/></clipPath><clipPath id="S"><path d="M447 478h7v2.32813h-7zm0 0"/></clipPath><clipPath id="T"><path d="M460 477h7v3.32813h-7zm0 0"/></clipPath><clipPath id="U"><path d="M144 466h4v2h-4zm0 0"/></clipPath><clipPath id="V"><path d="M144 453h4v2h-4zm0 0"/></clipPath><clipPath id="W"><path d="M144 439h4v3h-4zm0 0"/></clipPath><clipPath id="X"><path d="M465 437h3v2h-3zm0 0"/></clipPath><clipPath id="Y"><path d="M144 424h3v6h-3zm0 0"/></clipPath><clipPath id="Z"><path d="M465 423h3v2h-3zm0 0"/></clipPath><clipPath id="aa"><path d="M144 411h3v6h-3zm0 0"/></clipPath><clipPath id="ab"><path d="M144 398h4v5h-4zm0 0"/></clipPath><clipPath id="ac"><path d="M465 397h3v2h-3zm0 0"/></clipPath><clipPath id="ad"><path d="M144 384h3v6h-3zm0 0"/></clipPath><clipPath id="ae"><path d="M144 370h2v8h-2zm0 0"/></clipPath><clipPath id="af"><path d="M144 357h3v7h-3zm0 0"/></clipPath><clipPath id="ag"><path d="M144 345h4v5h-4zm0 0"/></clipPath><clipPath id="ah"><path d="M144 331h3v6h-3zm0 0"/></clipPath><clipPath id="ai"><path d="M144 316h2v9h-2zm0 0"/></clipPath><clipPath id="aj"><path d="M144 315h2v3h-2zm0 0"/></clipPath><clipPath id="ak"><path d="M466 318h2v2h-2zm0 0"/></clipPath><g id="al" clip-path="url(#clip1)"><path fill="#fff" fill-opacity="0" fill-rule="evenodd" d="M0 0h1000v1000H0zm0 0"/><path fill="#d3d3d3" fill-opacity="0" fill-rule="evenodd" d="M162.15234 355.86719l-.23437.29297.0586.23437.11718.17188.17578.23437.29297.34766.11328.0586.11719-.17188.0586-.23438.17577-.17578.46485-.17578h.69922l.23437.29297.28906.8164.0586.17579.17578.23046.35156.23438.69922.69922.17188.17578.23437.34765.23438.41016.28906.58203.41015.46485.23047.23437.23438.17578.11719.23047.17578.29297.17187 1.16406v.23438l.0586.28906.05859.11719.11719.11719.34765.41015.11719.17188.17578.17578.17578.23437.11719.17188.17188.35156.05859.23438.23437.40625.23438-.0586-.17578.17578-.0586.92969h-.58203l-.23437-.11328-.34766.11328-.11719.11719-.05859.29297-.0586.17578-.11718.17187-.46484.29297-.0586.23438-.0586.11328v.64453l.0586.17187v.41016l.0586.0586v.40624l.05859.40625.11719.17579.05859.05859.23047.64062-.0586.29297v.69922l-.05859.58203v.23438l-.0586.23047-.05468.35156v1.92187l.05469.1172h.42578l-.36719.11718-.02344.35156.89063 1.16797 1.74219.53906 1.33984.35938v.53906l.08984.8086.53516.71484 1.51953.26953.89063-.08594.08984 1.16406.53516.1797 1.16015-.1797 2.05469-.98437 1.16016-.36328 1.8789-.17578 1.69531-.1797-.17968.71876-1.51563.08594-1.25.08984-.80469.26953-1.07421.8086.26953.71875.53515.89843-.17968.625-.26563.8086.26563 1.07812.625.89844.80468.17969 1.25-.1797-.26562.72267.09766.5039.05468.29297v.17188l.0586.29296v.40625l.17578.1172.35156.11718h.40625l.29297-.17578.11328-.11719.0586-.11719.11718-.23047.0586-.17578.35156-.46484.23047-.17578.17578-.0586.17578.0586.0586.17578.11718.98828.05469.46875.0586.17188.11718.23437.17578.0586.8164.05859h.28907l.11719.23437.05859.40625.0586.35156v1.10547l.11718.29297.11719.34766.28906.69922.17578.35156.58203.7539.35157.17579.17187.0586.46875.23437.64063.46484.34765.23438.29297.17578.29297.05468.23047.0625.8164.34766.29297.17578.11328.17188.35157.35156.11719.17578.52343.64063v.28906l.0586.35156v.34766l.05859.35156.0586.28906.11718.0586.17188.05859h.17578l.58203.23437.17578.1172.17578.28905.17578.23438.11328.23437.29297.23047.11719.11719v.41016l.0586.05468.28906.23438.23437.11719.0586.11718.11718.17188.0586.11719.23047.23437.05859.17578.23437.0586.1172.05859-.1172.11328-.05859.11719v.11719l-.11719.29296-.11719.28907v.58203l.17579.11719.11718.05859.0586.11719.11719.11719.11328.05859.17578.34765.0586.35157.05858.40625v.17578l-.05859.17578-.11719.69922v.17187l.1172.17579.29296.29296h.40625l.17578.1172.11719.17187.11719.29296v.23438h-.52735l-.23047-.23438h-.23437l-.17578.0586-.0586.69922.0586.34765.11719.17579.17578.41015.11718.23047.28907.46875.17578.05469h.52344l.23437.0586.75781.64062.0586.29296v.23438l.05859.0586.23047.34765v.35156l-.11719.17188v.29297l.29297.28906.29297.17578.17187.0586.29297.17577.29297.1172.58203.40624.28906.23438.29297.17578.21875.16015.01563.01172.23047.17579.64062.52343.17578.23438.1172.17578.17577.17578.11328.17188v.64062l.1172.17578.46874.11719.58203.11719.23438.05859.23047.11328.29297.11719.11328.0586.58593.35156.28907.17187.17578.0625.17578.05469.17578.0586.69922.35155.28906.17579.23438.05468.28906.17578.23437.1172.64063.40624.29297.11719.17187.0586.23438.05859.41015.05859.23047.0586.23438.11718.0586.17188-.41017.17578.46875.0586.0586.29296.11328.23438.17578.05468.23438.0586.17578.05859.40625.11719.64062.23437.11719.17188.0586.23437v.17578l-.0586.1172-.0586.40624.23438.23438.11719.05859.34766.11719.64062.23047.17578.11718.28906.1172.17578.17577.23438.46485.58203 1.10546.17578.17579.34766.17578.17578.11719.35156.11718 1.04688.52344.23437.0586.46485.11327.29297.0586.46484.17578.75781.58203.23438.23438.34765.46484.17578.17578.28907.23438.8164.69921.29297.17579.28906.28906.29297.17578.29297.28906.69531.64063.17578.17578.29297.23437.28907.23438.46875.28906.64062.58203.34766.23438.23437.29297.34766.34765.35156.46485.9336.99218.34765.40625.11719.17579.23437.05859.11328.11719.64454.17578.23047.11328.23437.0586.29297.17577.23047.1172.9336.69921.40624.40625.23438.17578.40625.17578.23437.11719.8164.34766.34766.23437.23438.11719.29297.28906.23047.11719.7578.35156.35157.17188.23047.05859.29297.11719.23437.0586.8711.17577h.8164l.46875.23047.17188.0586.875.69921.46484.1172.29297.05858.17578.0586.23047.0586.46875.05859.34766.05859.35156.0586.40625.05859h.29297l.17187.0586v.23046l.17578.17578h.29297l.34766.0586.35156.05859.69922.11719h.64063l.46484-.23438.29297-.17578.17187-.11719.41016-.17187.28906-.17578.9336-.46485.46875-.29297.52343-.29296.46485-.17188.46484-.17578 1.05078-.46485.28906-.11718.41016-.11719.28906-.11719.52735-.17578 1.51562-.69922.58203-.34765.28907-.0586.29297-.0586.34765-.11718.875-.23047.35156-.11719h.11329l.23437-.05859.875-.23437.23438-.0586h.8125l.35156-.0586.8164-.11718.17188-.0586.35156-.05468.29297-.0586.23047-.05859.8164-.17578.17579-.0586h.34765l.23438-.05859.46484-.11718.75781-.17188.23438-.0586h.34765l.41016-.11718.28906-.0586 1.28516-.05859h.28906l.41016-.0586.23047-.05858h.17578l.875-.1172h.40625l.41015-.11718h.34766l.35156-.11328.8711-.0586h1.75l1.04687.28907.41016.11719.28906.11718.35156.11719.28907.11719 1.05078.17187.28906.0586h.29297l.29297.05859.17187.0586.41016.05859.17187.0586.1172.05858h.11718l.11719.0586.35156.0586h.11328l.41016.0664 1.92187.39453 1.92578.39453 1.51953.44922 1.69532.71875 2.14453.80469 1.60547-.71875 1.42968-.80469 1.16016-1.07813 1.25-.44921 3.03516-.71875 1.875-.35938 2.14453-1.34765 2.23437-1.25391 2.5-1.25781 1.69531-.44922 1.78516-.17969 1.16016-.26953.625.53906 1.33984-.26953.71485-.98828.98437-1.34375.44531-.17969.80469-.35937 1.875-.53907 1.78516-.44921 1.25-.26954 1.16015-.08984 1.69922-.08984 1.96094-.26954 1.25-.08984h.53906l.625-.08984h.89063l2.14453-.17969 2.41015-.17969 2.58985-.08984 1.69531.17969 1.60938.08984 1.42968.35938 1.16016.71875 1.875.98828 1.16015 1.52734.26563.71484.6289.08985.35548.89844.53515.53906.53516 1.52734 1.07422.35938h.53515l-.80469.53515.08985 1.70703.71484 2.69532.89063.80468.89453.98829.71484 1.2578 1.78516.53907 1.51953-.17969.35547 1.34375 1.60937-.80469.98047-.53906.26953.26953.31641-.21484.21875-.14453.80078.44922.44922-.35938h.35547l.53515-.26953.53907-.71875.53515-.26953.625-.98828 1.16016.44922.83984.3711 1.39454.61718 1.6953-.17969h1.60548l1.78515.08985.17969-1.70704.53516-1.34375.80468.26954.4922.84765.40233.40625-.08984.53906v.35938l.71485.44922.71093-.26953h1.42969l.35938.98828.4453 1.25781.71485 1.34375 1.25.6289 1.69531.62891.71485-.17969.17969-.53906.98046-.08984.44922.35937.08594 1.25782-.26563.6289-.53515.17969v.53906l.71484.98438.26563.53906.98437.98828.80078 1.07813-.26562.35937-.08985.89844-.625 2.33203-.35546 2.0664-.08985 1.79298-.17969.71875-.08984.53906v1.4375l-.98047 1.88281-.35937 1.70703-.53516.89844-.80469 1.16797-.26562.53906 2.05469 1.2539.08593.35938-.35546.53906-.08985-.17968v.80859l.08985 1.4375-.44532.71484-1.07422.09375-.26562.71485.53515.89844.8047.71875 1.16015.80859 1.33984.26953.44531.35938-.35546.44921-1.78907-.08984-1.25-.44922-.71484-.71875-.625-.08984-.17578 3.58984-.1875 1.3086h89.35937V311.70313h-55.26953v49.08203l.76172.125 3.28906.54296 2.02344 2.83594v2.7539l2.35156.33204 2.34766.33203h4.05078l-1.3789 4.16016-2.02344.70703-2.02344.70312-.54297.34375-2.59375 1.6172-.1875.11718-2.02344-2.07813-.73046-2.74218-2.67188-2.07813-1.375-3.5-.0664-.08203-1.95704-2.67188 2.75-1.41796v-49.08204H294.42187v91.41407l.1172.03125.1328.01172.07422.07421.10547.04688.08985.0586.08593.05859.08985.0586.29687.29687.0586.08984.03125.11719.02734.11719.01563.13671-.03125.1172-.0586.08983-.0586.08594-.04296.10547-.04688.10156-.02734.1211v.14453l.17578.26953.14844.14844.07422.08594.07422.07421.04296.10547.0625.08985.0586.08593.04297.10547.0586.08985.04687.10156.04296.10547.0586.08594.11719.17968.07421.07422.0625.08594.0586.08984.04297.10547.0586.08985.05858.08593.0625.08985.0586.08984.04297.10156.11719.17969.07421.07422.0586.08594.07422.07421.08984.0586.10547.04687h.14844l.1328-.01562.13282.01562.10156-.04687.07422-.07422.04688-.10156-.01563-.13281v-.14844l-.04687-.10547-.02735-.11719-.04687-.10156-.02735-.1211-.04296-.10156-.0625-.08984-.04297-.10156-.04297-.10547-.03125-.11719-.01563-.13281-.01171-.13672.08593-.0586.0586-.08593.12109-.03125.04297.10547.01562.1328v.1172l.0586.10156.0586.08984.08983.0586.14844.14843.0586.08985.04296.10547-.01171.10156.08593.0586.10547.04687.08594.0586.08984.05858.07422.07422-.11719.02735-.10546.04687-.08594.0586-.07422.07421-.0586.08985-.0625.08594-.02734.12109-.04687.10156-.04297.10547-.03125.11719-.01172.13281-.01563.13281v.14844l.02735.11719.04687.10547.04297.10156.0586.08984.07421.07422.08985.0586.07422.07421.08984.0586.0586.08984.04296.10547.04688.10156.11719.03125.1328.01563h.14845l.11718-.03125.10547.04297.04297.10547.04688.10156.02734.1211L299.5 410l.02734.11719.03125.1211.02735.11718.10547.04297.10156.04687.13281-.01562.14844.14844.0625.08593.07422.07422.07031.07422.08984.0625.10547.04297.10156.04297.1172.03125.13671.01562.11719-.03125.07422-.07422.02734-.11718-.01172-.13282-.03125-.12109-.02734-.11719.04297-.10547h.11719l.08984.0625.11719.02735h.14843l.13282.01562h.14843l.13282.01563.1328-.01563h.14845l.1328-.01562.13282-.01172.13672.01172.11719-.02735.13281-.01562.1914-.0586-.05859.17579-.01562.1328-.02735.1211-.01562.13281-.0586.08594-.1328.01563-.10548.04687-.10546.04297-.1172.03125-.11718.02735-.26563.03125h-.14843l-.13281.01562-.07422.07422.05859.08594.14844.14843.11719.1797.07421.0703.08985.0625.08984.0586.08594.0586.08984.05858.10156.04297.10547.0625.10547.04297.08594.0586.10547.04687.10156.04297.17969.11719.0586.08984-.04298.10156-.04687.10547.01562.13281.22266.22266.0586.08985.04296.10156.03125.1211.04297.10155.01563.13282.03125.11718.01171.13672.03125.11719.14844.14844.10156.04297.10547.04296.1172.03125.1328.01563.13672.01563h.11719l.11719-.03125.08984-.0586.04297-.10547.04688-.10156.04296-.10547.03125-.11719.01172-.1328v-.14845l-.01172-.1328-.01562-.13282-.03125-.11719-.04297-.10547-.04688-.10547-.04296-.10156-.04297-.10547-.01563-.13281.01563-.13281.02734-.11719.03125-.11719.02735-.1211.04687-.10155.08984-.0586.08594-.0625.07422-.07422.08984-.05859.22266-.22266.0586-.08593.07421-.07422.11719-.17969.0586-.08594v-.14844l-.07423-.07421-.10156-.04688-.10547-.04297-.10156-.04297-.0586-.08984-.04687-.10547-.02734-.11719.08984-.05859.11719-.03125.10156-.04297.17969-.11719.14844-.14843.01172-.13282-.01172-.10546-.08985-.0586-.1328.01563h-.14845l-.1328.01562-.13282-.01562-.1211-.03125-.08593-.0586-.07422-.07422-.0586-.08984-.0625-.08594-.11718-.17969-.0586-.08593.03125-.1211.08594-.05859.1211-.03125.05859-.08594v-.1211l-.03125-.11718-.0586-.08984-.05859-.08594-.04687-.10547-.02735-.11719-.01562-.1328.0586-.08985.07421-.07422.08984-.0586.1172-.17968.07421-.07422.0586-.08594.14843-.14844.1211-.03125.1328-.01562.13282.01562.07422.07422.04297.10547.01562.13281-.03125.1172-.11719.03124-.1328.01172-.14844.14844-.04297.10547-.04688.10156-.02734.1211-.03125.11718v.14844l.03125.11719.04297.10546.05859.08985.07422.07031.07422.07422.11719.03125.12109.02734.11719-.02734.1328-.01563h.1172l.08984.0586.07422.07422.04687.10546.0586.08594.10156.04688.13281.01562.10547.04297.08594.0586-.01172.10546-.07422.07422-.17969.11719-.05859.08984-.08984.0586-.07032.07422-.07421.07421-.0625.08985-.02735.11719-.01562.1328.01562.13282-.01562.13281v.14844l.01562.13281.02735.1172.03125.12108.07421.07422.08985.0586.08594.0586.08984.05858.11719.03125v.08594l-.10157.04688-.08984.0586-.26563.03124-.11718.02735h-.14844l-.10547.04296-.10156.04688-.0586.08984-.0625.23438-.01171.13281-.03125.1211-.01563.1328v.29298l-.01172.1328.01172.13673.01563.1328.1328.01563.13282.01172.1211.03125.08593.0586.07422.07421.04688.10547.04296.10157.01563.1328v.44532l-.01563.13281v.44532l.03125.26562.02735.11719.01562.13281.03125.11719.08594.21094.03125.26562v.14844l-.03125.11719-.02734.11718-.03125.1211-.02735.11719-.03125.11718-.03125.1211-.01171.1328-.01563.13282.08984.0586.1172-.03125.10155.01562.04688.10547-.03125.26562v.44141l-.04297.10547-.04688.10547-.04296.10156-.04297.10547-.0586.08594-.03125.12109-.04296.11719-.03125.11719-.01563.1328.01563.13282.05859.08984.10547.04688.08594.0586.05859.08593-.01172.13672-.03125.11719-.04297.10156v.44531l-.01562.13281v.14844l-.03125.11719-.04297.10547-.02735.11719-.04687.10546-.04297.10157-.03125.12109-.02734.11719-.03125.13281-.03125.11719-.02735.11719-.04297.10546-.03125.1172-.03125.12108-.01171.13282-.01563.13281v.29688l.02734.11718v.14844l.04688.39844.02734.11719.0586.08984.12109.03125h.14844l.13281-.01563.0586.08985v.11719l-.0586.08984-.08984.0586-.10157.04296-.10546.04688-.08985.05859-.08594.0586-.13671.01562-.1172-.03125-.1328-.01563-.10157.04688-.0625.08594-.01172.13671-.01562.13282-.03125.11719-.02735.11718-.01562.13281-.03125.1211v.29687l.01563.13282.03125.11718v.14844l.01171.13281v.14844l-.02734.11719-.04688.10156-.02734.1211-.03125.11718-.0586.08985-.07421.07421-.10156.04297-.10547.04688-.11719.02734-.1211.03125-.10156-.04687.0586-.08594.10547-.04688.02734-.11718.03125-.11719.02734-.1211.03125-.11718v-.14844l.01563-.13281-.03125-.11719-.04297-.10547-.10547.01563-.07422.07422-.10156.04296-.08984.0625-.07422.07422-.04297.10157-.01563.1328-.03125.1172L304.25 426l-.03125.11719-.02734.11719-.03125.12109-.02735.11719-.03125.11718-.04297.10547-.08984.0586h-.08984l-.1172-.03125-.03124-.08594.01562-.13672-.03125-.11719v-.14844l-.01171-.1328v-.14844l-.0625-.23438-.02735-.1211-.04297-.10156-.04687-.10546-.0586-.08594-.05859-.08985-.04297-.10546-.0625-.08594-.14844-.14844-.0703-.07422-.10548-.04687-.10547-.04297-.10156-.04297-.29687-.29688-.08985-.07421-.08594-.0586-.10546-.04297-.08985-.0625-.08594-.0586-.10546-.04296-.08985-.0586-.08594-.0625-.07421-.0703-.10547-.04688-.08594-.0586-.10547-.04296-.08984-.0625-.10156-.04297-.10547-.04297-.08594-.0586-.10547-.04687-.10547-.04297-.10156-.04687-.08985-.0586-.10156-.04297-.10547-.04296-.08984-.0625-.11719-.02735-.13281-.01562-.13281.01562H299.75l-.13281.01563-.11719-.03125-.08984-.0586-.07422-.07422-.08985-.05859-.10156-.04688h-.14844l-.12109-.02734-.10156-.04297-.07422-.07422-.11719-.17968-.08984-.0586-.10156-.04297-.08985-.0625-.10547-.04296-.08984-.0586-.08594-.0586-.10547-.04687-.0586-.08594-.05858-.08984-.04297-.10547-.04688-.10156-.07422-.07422-.08594-.0586-.07421-.07421-.08985-.0586-.22265-.22265-.04297-.10547-.03125-.26563.10547-.04296h.14453l.10547.04296.07421.07422.08985.0586.08594.0586.10546.04687.08985.05859.14844.14844.0703.07422.14845.14843.0625.08594.07421.07422.08594.0586.07422.07421.08985.0625.08984.0586.08594.05859.26953.17578.10156.04688.10547.04296.10156.04297.04688-.07421.05859-.08594.07422-.07422.07031-.07422.10547.04297.07422.07422.0586.08984.04296.10156.04688.10547.04296.10547.1211.02735.11719-.02735.07421-.08984.04297-.10547.0586-.08985.07422-.07421.10546-.04297.1172-.02735.1328.01172.08985.0586.14844.14843.05859.08985.04297.10547.04687.10156.04297.10547.04297.10156.10547.04688.10547.04296.13281.01563.08594-.0586.0586-.08984.07421-.07422.10547-.04297.11719.02735.10547.04687.10156.04297.10547.04297.10156.04688.17969.11718v.11719l-.01563.13281.01563.13281.01562.13672.0586.08594.10156.04688.1211.02734.11718.03125h.14844l.11719-.03125.05859-.08984.17969-.1172.05859-.08983.07422-.07422.0586-.08594.11718-.17969.17969-.11719.11719.03125.08984.0586.04297.07422-.01563.1328v.1172l.08985.05859h.14843l.13282-.01563.1328-.01171.26563-.03125.10547-.04297.11719-.03125.1211-.02735.07421-.07421.07031-.07422.0625-.08985-.01562-.10547-.04688-.10156-.10156-.04297-.10547-.01562-.11718.02734-.26563.03125h-.14844l-.07421-.07422-.08985-.0586-.11719-.03124-.11718-.02735-.13282-.01562h-.14843l-.13282.01563h-.29687l-.10547-.04688-.14844-.14844-.04297-.10156-.05859-.08984.22266-.22266.08593-.0586.10547-.04296.11719-.03125.13281-.01563.13281.01563.13672.01562.10157.04297.1328-.01172.08985-.0625.10156-.04297.0625-.08984-.04687-.10156-.08984-.0586-.1172-.03125-.10155-.04296-.0586-.08985-.0625-.08984v-.11719l.01563-.13281.10547-.04688.07421-.07031v-.1211l-.08984-.05859-.03125-.11719.08985-.05859.07421-.07422.04297-.10547.0586-.08984.04687-.10156.01563-.13281v-.14844l-.04688-.10547-.04297-.10156-.08984-.0586-.13281-.01562-.10157-.04297-.13671-.01563-.1172-.03125h-.4453l-.13282-.01562-.13281-.01172-.13281-.01563-.11719-.03125h-.14844l-.13281-.01562-.13281-.01172-.26563-.03125-.1211-.04297-.08593-.0586-.07422-.07421v-.14844l.01172-.13281.10547-.04688.10156-.04296.13281-.01563h.15235l.13281-.01562h.29297l.1211.03125.10156.04296.08984.0586.23438.0625.12109-.04688.08984-.05859.10156-.04297.13282-.01562.10547.04296.10156.04688.13281.01172.1211-.02735h.14453l.12109-.03125.11719-.02734.10547-.04687.07421-.07422.08594-.0586.14844-.14843.0586-.08594.04687-.10547.02734-.11719.01563-.10547-.10156-.04296-.08985-.0586-.11719-.03125-.10546-.04297-.08985-.0625-.07422-.08594-.07422-.07421-.10156-.04297-.10547-.04688-.10156-.04297-.0586-.08984-.04687-.10156-.08594-.21094-.0625-.08594-.05859-.08984-.07422-.07422-.08594-.0586h-.26953l-.11719.03126-.08984.05859-.10156.04297-.13281.01562-.10547-.01562-.02735-.11719-.0625-.08984-.11718-.03125-.10157-.04297-.14843-.14844-.03125-.11719-.01563-.10546.07422-.07422.17969-.1172.11719-.02733.11718-.03125.13672.01562.10156.04297.10547.04297.10156.04687.10547.04297.1172.03125.1328.01563.1172.02734.1328.01563.10547-.01563.08985-.0586-.07422-.07421-.10547-.04297-.07422-.07422-.07422-.08984-.14844-.14844-.08593-.0586-.08985-.05859-.07422-.07422-.08984-.0586-.10156-.04687-.1211-.02734-.10156-.04688-.10547-.04296-.11719-.03125-.10156-.04297-.1211-.03125h-.14843l-.11719.03125-.10546.04297-.08594.0625-.17969.11718-.08594.0586-.08984.0586-.10547.04687-.08594.05859-.10547.04297-.10156.04297-.10547.04687-.07422.07422-.05859.08985-.0586.08593-.04687.10547-.0586.08594-.07421.07422-.13281-.01172-.1172-.03125h-.11718l-.07422.07422-.08984.0586-.07422.07421-.08984.0586-.08594.05859-.10547.04687-.10156.04297-.13672.01563-.10156-.04297-.14844-.14844-.10547-.04688h-.08594l-.10547.04688-.10156.04297-.1211.03125-.11718-.03125-.07422-.07422v-.11719l.03125-.1211.07422-.0703.0586-.08985.07421-.07422.11719-.03125.10547-.04296h.29297l.13281-.01563.13672-.01563.10156-.04296.08985-.0586.10156-.04687.08984-.0586.13281-.01171.08985.05859.13281.01172.08984-.0586.08594-.05859.10547-.04297.08984-.0586.08594-.0625.08985-.05859.14843-.14843.0586-.08594.05859-.08985.10547-.04296.13281-.01563.11719.02735.1211.03125.05859-.0586.05859-.08984.03125-.26563.02734-.11719.10547.01172.13281.01563.10157-.04297.08984-.0586.0586-.08984.07421-.07422.0586-.08984.04687-.10156.01172-.13281-.01172-.13282-.04687-.10547-.14844-.14843-.0586-.08985-.05859-.08594-.04297-.10546v-.44532l.01563-.1328v-.14845l.01172-.1328-.0586-.0586-.08984.0586-.10156-.04298-.17969-.11719-.08594-.05859-.0625-.08984-.0586-.08985-.07421-.07421-.08594-.0586-.1211.03125-.10155.01172-.10547.04688-.08594.05859-.10547.04297-.14844.14844-.08984.05859-.08594.0586-.08984.0625-.10547.04296-.13281.01563v-.1211l.10547-.04297.11718-.03125.07422-.0703.04297-.10548v-.14844l-.02734-.11718-.14844-.14844-.13281-.01563h-.14844l-.11719.03125-.10547.04297-.10156.04297-.08984.0625-.11719.02735-.07422-.07422.01172-.13281-.04297-.10157-.04297-.10547-.08984-.05859-.11719.02734-.1211.03125-.11718.03125-.10156.04297-.1211.03125-.10156.04297-.10547.04297-.08984.0586-.10156.01562v-.11719l.01562-.13281-.0586-.08985-.07421.04297-.14844.14844-.0586.08985-.07421.07421-.04688.10547-.04296.10156-.07422.07422-.0586.08985-.07422.07422-.05859.08593-.07422.07422-.08984.0625-.07422.07031-.07422.07422-.10156.01563-.13281.01562-.10547-.04296v-.1211l.14843-.14844.04297-.10156.0586-.08984.04687-.10156.04297-.10547.0586-.08985.03124-.11719.04297-.10156.03125-.1211.02735-.11718.04687-.10547.04297-.10156.04297-.10547.07422-.07031.08984-.0625.08985-.0586.10156-.04296h.29687l.26563-.03125.10547-.04297-.07422-.07422-.11719-.03125-.10547-.04297-.08984-.0586-.10156-.04687-.08985-.0586-.10156-.04296-.10547-.04297-.08984-.0625-.08594-.0586-.10547-.04296-.10156-.04297-.1211-.03125-.11718-.03125-.10157-.04297L297.5 410.25l-.10156-.04297-.08985-.0586-.04296-.10546-.01563-.13281.10156-.04297.13281-.01563.13672.01563.13282-.01563.10156-.04297.0586-.08984.01562-.10547-.08985-.0586-.07421-.07421-.10157-.04297-.08984-.0586-.14844-.14843-.04297-.10547-.01562-.13281v-.29297l-.0586-.08985-.08984-.05859-.07422-.07422-.04297-.10547-.03125-.11718-.0586-.08985-.07421-.07422-.11719-.02734-.07422-.07422-.08984-.0586-.08984-.0625-.08594-.05859-.07422-.07421-.0586-.08594-.04687-.10547-.08594-.0586-.14843-.14843-.19532-.0586-.1328.01563-.10157.04297-.07422.07422-.04688.10156-.04296.10547-.0586.08984-.0586.08594-.29687.29687-.08984.0586h-.08594l-.0625-.08594-.04297-.10547.03125-.11719.0586-.08984.02734-.11719-.01172-.13281-.08984-.0625-.10547.04688-.11719.02734-.11719.03125-.26953.17578-.10156.04688-.11719.02734-.10546.04687-.08985.0586-.10156.04297-.0586-.08594-.04687-.10547.01563-.13281.04687-.10547.07031-.07422.07422-.07031.0586-.08985v-.14843l-.04297-.10547h-.23829l-.10156.04687-.03125.11719-.02734.11719-.03125.1211-.07422.04296-.13281.01563-.07422-.04688-.04297-.10156-.04297-.10547-.04687-.10156-.04297-.10547-.1211.03125-.10156.04297-.13281.01562-.11719.03125-.10547.04297-.08984.0586-.10156.04687-.1211.02734-.13281.01563-.10156-.04297-.0586-.08985-.04687-.10546-.04297-.10157-.04297-.10546v-.1172l.0586-.08984.08593-.05859.17969-.11719.10156-.04687.10547-.04297.10547-.0586.10156-.04296.08985-.0625.10156-.04297.10547-.0586.10156-.04687.08984-.0586.10547-.04296.10156-.04297.08985-.0625.10156-.04297.13672-.01563.11719.03125.10156.04297.1211.03125.10156.04297.10546.04688.10157.04296.10547.04297.10156.04688.10547.04297.10156.04297.10547.04687.08594.0586.10546.04296.1172.03125.10546.04297.10156.04688.08985.0586.10547.04296.10156.04297.10547.04687.11719.02735.10156.04687.1211.02735h.14843l.08594-.0586.01562-.10156.0586-.08984-.02735-.1172-.07422-.07421-.11719-.17969-.07421-.07422-.08985-.07421-.17969-.1172-.08593-.05859-.10547-.04296-.10156-.04688-.26954-.17578-.05859-.08985-.07422-.07421-.0586-.08985-.04296-.10156-.03125-.11719-.01563-.13672v-.5625l-.01171-.1328-.01563-.13282-.03125-.11719-.01562-.13281-.01172-.13281-.03125-.1211-.22266-.22265-.0586-.08594-.01562-.10547.03125-.11719.13281-.01562v-91.41406H172.9922v1.45312l-.0586.23438-.35156 1.05078-.17187.52343-.1172.34766-.17577.41016-.11719.17187-.23438.29297-.23046.0586h-.35157l-.11718.05859-.23047.40625v.29297l.11719.17578.23046.23047.1172.23437.64062.75781.29297.46485.17578.23437.23047.35156.23437.34766.64063.8164.17578.46485.17187.41016.11719.69531.17578.46875.11719 1.39844.0586.46484v.875l.11718 1.04688v4.78125l-.0586.46484-.35156 1.28125-.17578.52344-.11328.41015-.35156.9297L172.93359 336l-.23437.58203-.11719.17578-.17187.34766-.17578.40625-.35157.8164-.0586.29297-.11327.29297-.11719.28906-.0586.17579-.11718.875-.0586.40625-.05859.11718-.0586.17579-.05859.17187-.23047.52734-.11718.17188v.23437l-.11719.23438-.0586.17187-.17577.58594v.28906l-.0586.17579v.29296l-.0586.11329-.05859.52734v.17187l-.05468.23438v2.6211l-.17578.8164-.1172.17578-.17577.23438-.1172.17187-.11327.23438-.58594.93359-.23047.28906-.29297.46485-.17578.23437-.28906.35156-.35156.69922-.11328.23047-.17579.41016-.17578.23046-.40625.52735-.8164.69922-.29297.17187-.28906.23438-.17579.11719-.17578.17578-.52344.40625-.52734.17578-.17187.17578-.23438.05469-.64062.17578h-.75782m12.21094 31.02344l-1.07422.44921.35938.89454 1.25-.71485.44531-.53906-.98047-.08985"/><path fill="#d3d3d3" fill-opacity="0" fill-rule="evenodd" d="M201.50781 416.59766h-.89453l.44922.6289.98047.35938.80469-.08985.4453-.98828-.17577.08985-.71485-.35547-.89453.35547m154.6211 59.0703l-.0586-.52343v-.29297l.11328-.29297.0586-.23046.46875-.46875h.11328l.11719-.11329.11718-.05859h.17579l.23437-.0586h.34766l.23437.0586.11719.0586.23047.17187.0586.17578.11718.58203v.29297l-.11719.17578-.17187.28906-.17579.17579-.52734.52343-.23047.23438-.11719.0586h-.17578l-.11718-.0586-.40625-.29297-.17579-.11719-.11718-.0586-.0586-.11327-.05468-.1172m6.64062-10.95702l-.0586-.17188v-1.10937l.0586-.17188.17578-.0586.17188-.05858h.17578l.23437-.0586.1172.0586.05858.69921-.05859.17188-.11719.17578-.11718.0586-.23438.52343-.11328.0586h-.23438l-.05859-.1172m9.61328-14.39062l-.11719-.17578v-.69922l.29297-.875.1172-.17187.17577-.35156.11328-.23047.1172-.29297.35155-.75781.1172-.23047.17187-.23438h.17578l.11719-.0586h.64062l.11719.0586.23437.23438.17188.11328.35156.29297.11719.11718.11328.17579v.11328l.11719.05859.11718.11719v.69922l-.05859.17578v.23047l-.0586.17578-.34765 1.05078-.11719.23047-.11719.23437-.11718.0586-.23047.23437-.64063.28906h-.875l-.41015-.11718-.64063-.46485"/><path fill="none" stroke="#bebebe" stroke-linecap="round" stroke-linejoin="round" stroke-miterlimit="10" stroke-width=".5" d="M467.95703 311.69531H144.02734v168.625h323.9297v-168.625"/><g clip-path="url(#a)"><path fill="#fff" fill-opacity="0" fill-rule="evenodd" d="M144 475.89063v4.4375h.0039H144V311.67188h.0039H144v164.21875"/></g><g clip-path="url(#b)"><path fill="#fff" fill-opacity="0" fill-rule="evenodd" d="M144.0039 480.32813V311.67188h84.32423v108.78125l-4.4375 1.23046-1.38282.94532 1.38281 2.26171 4.08985 2.1797-4.08984.53124-4.4375 2.08985-3.26563-2.6211-1.17188-1.69531-1.41406 1.69531-3.02734 2.5-4.4375 1.72266-.3086.21484-3.26171 4.4375 1.58984 4.4375 1.98047 2.63281.91016 1.8047-.91016.98046-4.4375 1.11328-4.4375.6875-4.4414-.02344-4.4375-.24218-4.4375-.33985-4.4375-1.45703-2.32032 3.72266-2.1211 1.88672-4.4375-.17578-4.4375-.41407-1.14062-1.29687 1.14063-1.47656 1.5-2.96485 2.9375-2.13672 4.4375-1.11328 4.4414 1.92188 2.19922-3.10938-2.19922-.8789-4.4414-2.11329-3.91407-1.4453-.52343-.07032-.09375.07031-3.8047 4.4375-.53905 1-.47657-1-3.96093-2.52344-2.40625 2.52344 1.17187 4.4375-.5586 4.4414-1.09374 4.4375.76953 4.4375 2.11719 3.98438 4.4375.30079 4.4375-.71094 4.4375-.0586 4.4414-2.9453 4.4375.80858 3.57031-1.3789.8672-.4961 4.4375-1.10937 4.4414-1.79688 4.4375-.09765 3.96484-.9375.47266-.15625 4.4375-3.95313 1.76953-.32812 1.40234-4.4414 1.26953-2.33594 1.23047 2.33593 3.20703 1.84375 1.64063-1.84375 2.55078-4.4375-.26172-4.4375.50781-.21875.52344.21875 3.91406 1.88672 4.4375.13672 1.47266 2.41406 2.96875 1.91016 4.4375 1.39844v9.53125l-.98828.47656.98828.53515.90234-.53515-.90234-.47656v-9.53125l4.4375-2.37891.73047-.92969-.73047-.78515-4.4375-2.59375-4.4375.5-2.50781-1.5586-1.9336-1.49219-3.44921-2.9453-.71875-4.4375 4.16797-2.62891 1.2539-1.8125-1.2539-1.34766-4.4375-.82813V311.67188h44.3828v116.48047l-4.4375 1.66016-4.4375-.03906-1.61718 1.73437-2.82031 1.08594-4.4414 1.10938-1.89454 2.24218 1.89453 1.95313 4.4414 1.40625 2.9961-3.35938 1.4414-3.19922 4.4375.42188 4.4375 1.1914V443.5l-4.4375.89063-1.05468.42968-3.38281 2.5664-2.57422 1.875.4375 4.4375 2.13672 2.01173 4.4375.28906 4.4375-.08594 4.4414-1.1836.72657-1.03124 3.71093-3.67578.54297-.76172 1.04688-4.4414-1.58985-1.07423-4.4375.9375-4.4414-1.18359v-9.14063l4.4414.56641.3086 1.01953 4.1289 3.66797 4.4375-.33984 4.4375-.71485 2.44141-2.61328-2.4414-2.58984-4.4375-.7539-2.50391-1.09376-1.9336-1.9414-4.4375-1.0547-4.4414-.35937V311.67188h75.45312v124.10156l-.16015.17187.16015.16406 1.32031 4.27344 3.1172 3.09375 3.54687-3.09375-3.54688-3.07422-4.28125-1.36328-.15625-.17187V311.67188h26.6289v131.02734l-2.21483 2.1211-2.22266 2.71484-1.45313 1.72656-2.66796 4.4375-.31641.53125-3.33985 3.90625-1.09765 3.23828-.40625 1.19922.40625.36719 4.4375.97265 4.4375-.33594 4.4375.41016 3.90625 3.02735.1211 4.4375.41406.51562 4.4375 1.08203 2.17187-1.59765 2.26563-.78907 2.875-3.64844 1.5625-1.58593 3.35937-2.85547-.125-4.4375-3.23438-3.41016-4.4375.11328-.77734-1.14062-3.66015-3.9336-4.4375.45313-.51172-.95703-1.29297-4.4414-2.63672-2.1211V311.67187h93.20312v163.6172l-.55859.60156.5586.7539v3.6836H144.0039"/></g><path fill="#50fcfc" fill-rule="evenodd" d="M159.63672 458.13672l-.76953-4.4375 1.09375-4.4375.5586-4.4414-1.17188-4.4375 2.40625-2.52344 3.96093 2.52343.47657 1 .53906-1 3.80469-4.4375.09375-.07031.52343.07031 3.91407 1.44531 4.4414 2.11329 2.19922.8789-2.19922 3.10938-4.4414-1.92188-4.4375 1.11328-2.9375 2.13672-1.5 2.96485-1.14063 1.47656 1.14063 1.29687 4.4375.41407 4.4375.17578 2.12109-1.88672 2.32031-3.72266 4.4375 1.45703 4.4375.33985 4.4375.24219 4.4414.02343 4.4375-.6875 4.4375-1.11328.91017-.98047-.91016-1.80469-1.98047-2.6328-1.58984-4.4375 3.26172-4.4375.30859-.21485 4.4375-1.72266 3.02734-2.5 1.41406-1.69531 1.17188 1.69531 3.26563 2.6211 4.4375-2.08985 4.08984-.53125-4.08984-2.17969-1.38282-2.26171 1.38281-.94532 4.4375-1.23046 4.4375.82812 1.25391 1.34766-1.2539 1.8125-4.16797 2.6289.71875 4.4375 3.44922 2.94531 1.93359 1.4922 2.50781 1.55859 4.4375-.5v2.75l-1.33594.6289 1.33594.61719.91406-.61719-.91406-.6289v-2.75l4.4375 2.59375.73047.78515-.73047.92969-4.4375 2.3789-4.4375-1.39843-2.96875-1.91016-1.47266-2.41406-4.4375-.13672-3.91406-1.88672-.52344-.21875-.5078.21875.26171 4.4375-2.55078 4.4375-1.64063 1.84375-3.20703-1.84375-1.23047-2.33594-1.26953 2.33594-1.40234 4.4414-1.76953.32813-4.4375 3.95313-.47266.15625-3.96484.9375-4.4375.09765-4.4414 1.79688-4.4375 1.10938-.8672.49609-3.5703 1.3789-4.4375-.80859-4.44141 2.94531-4.4375.0586-4.4375.71094-4.4375-.30079-2.1172-3.98437"/><path fill="#00e8fc" fill-rule="evenodd" d="M241.64453 441l-1.33594-.61719 1.33594-.6289.91406.6289-.91406.61719"/><path fill="#50fcfc" fill-rule="evenodd" d="M241.64453 454.23438l-.98828-.53516.98828-.47656.90234.47656-.90234.53515m13.3125-16.33593l-1.89453-1.95313 1.89453-2.24219 4.4414-1.10937v2.65234l-1.27343.69922 1.27344.69922.625-.69922-.625-.69922v-2.65234l2.82031-1.08594 1.61719-1.73437 4.4375.03906 4.4375-1.66016 4.4414.35938 4.4375 1.05469v3.28125l-2.64062 3.09765 2.64062 2.34375 4.23047-2.34375-4.23047-3.09765v-3.28125l1.9336 1.9414 2.5039 1.09375 4.4375.7539 2.44141 2.58985-2.4414 2.61328-4.4375.71485-4.4375.33984-4.12891-3.66797-.3086-1.01953-4.4414-.5664-4.4375-1.19141-4.4375-.42188-1.4414 3.19922-2.9961 3.35938-4.4414-1.40625"/><path fill="#00e8fc" fill-rule="evenodd" d="M259.39844 436.64453l-1.27344-.69922 1.27344-.69922.625.69922-.625.69922"/><path fill="#50fcfc" fill-rule="evenodd" d="M261.69922 453.69922l-.4375-4.4375 2.57422-1.875 3.38281-2.5664 1.05469-.4297 4.4375-.89062 4.4414 1.1836 4.4375-.9375 1.58985 1.07421-1.04688 4.4414-.54297.76173-3.71093 3.67578-.72657 1.03125-4.4414 1.1836-4.4375.08593-4.4375-.28906-2.13672-2.01172"/><path fill="#00e8fc" fill-rule="evenodd" d="M281.58984 438.28906l-2.64062-2.34375 2.64062-3.09765v2.91015l-.16015.1875.16015.14453.25782-.14453-.25782-.1875v-2.91015l4.23047 3.09765-4.23047 2.34375"/><path fill="#00d4fc" fill-rule="evenodd" d="M281.58984 436.08984l-.16015-.14453.16015-.1875.25782.1875-.25782.14453"/><path fill="#50fcfc" fill-rule="evenodd" d="M348.16406 436.10938l-.16015-.16407.16015-.17187.15625.17187 4.28125 1.36328v2.10157l-.98828.97265.98828.98047 1.125-.98047-1.125-.97265v-2.10157l3.54688 3.07422-3.54688 3.09375-3.11719-3.09375-1.3203-4.27344"/><path fill="#00e8fc" fill-rule="evenodd" d="M352.60156 441.36328l-.98828-.98047.98828-.97265 1.125.97265-1.125.98047"/><path fill="#50fcfc" fill-rule="evenodd" d="M361.48047 462.9414l-.40625-.36718.40625-1.19922 1.09765-3.23828 3.33985-3.90625.3164-.53125 2.66797-4.4375 1.45313-1.72656 2.22265-2.71485 2.21485-2.1211v14.25392l-1.36328 1.18359 1.36328 1.80469.8789-1.8047-.8789-1.18358v-14.25391l2.63672 2.1211 1.29297 4.4414.51171.95703 4.4375-.45313 3.66016 3.9336.77735 1.14062v3.66407l-4.4375 1.82812-2.80079 2.24219 2.80079 1.89844v2.4414l-1.72657.10156 1.72656.92579.23047-.92579-.23046-.10156v-2.4414l4.4375 2.32812 4.21093-4.22656-4.21094-4.07031v-3.66407l4.4375-.11328 3.23438 3.41016.125 4.4375-3.35938 2.85547-1.5625 1.58594-2.875 3.64843-2.26562.78906-2.17188 1.59766-4.4375-1.08203-.41406-.51563-.1211-4.4375-3.90624-3.02734-4.4375-.41015-4.4375.33593-4.4375-.97265"/><path fill="#fff" fill-opacity="0" fill-rule="evenodd" d="M374.79297 456.95313l-1.36328 1.18359 1.36328 1.80469.8789-1.8047-.8789-1.18358"/><path fill="#00e8fc" fill-rule="evenodd" d="M383.67188 464.47266l-2.80079-1.89844 2.80079-2.24219 4.4375-1.82812v1.4375l-3.4375 2.6328 3.4375 2.73438 2.72656-2.73437-2.72656-2.63281v-1.4375l4.21093 4.0703-4.21094 4.22657-4.4375-2.32812"/><path fill="#fff" fill-opacity="0" fill-rule="evenodd" d="M383.67188 466.91406l-1.72657.10156 1.72656.92579.23047-.92579-.23046-.10156"/><path fill="#00d4fc" fill-rule="evenodd" d="M388.10938 465.3086l-3.4375-2.73438 3.4375-2.63281v1.4375l-1.5625 1.1953 1.5625 1.2422 1.23828-1.2422-1.23829-1.1953v-1.4375l2.72657 2.6328-2.72656 2.73438"/><path fill="#00c4fc" fill-rule="evenodd" d="M388.10938 463.8164l-1.5625-1.24218 1.5625-1.19531 1.23828 1.1953-1.23829 1.2422"/><path fill="#50fcfc" fill-rule="evenodd" d="M467.9961 476.64453l-.5586-.7539.5586-.60157v1.35547m0-1.35547v1.35547l.0039.0039v-1.36327l-.0039.0039"/><g clip-path="url(#c)"><path fill="#fff" fill-opacity="0" fill-rule="evenodd" d="M467.9961 311.67188H468v163.61328-163.61329h-.0039"/></g><path fill="#fff" fill-opacity="0" fill-rule="evenodd" d="M222.02344 433.4336l5.60547-1.64063-2.79688-9.5586-5.60547 1.64063 2.79688 9.5586"/><path fill-rule="evenodd" d="M223.09766 424.65234l.48828-.14453 1.76953 6.03906-.7539.22266-1.26173-4.3086-1.33203.39063-.15625-.53125.51953-.22265.22657-.1211.1953-.15234.15235-.1914.10938-.25.05469-.32423-.01172-.40625"/><path fill="#fff" fill-opacity="0" fill-rule="evenodd" d="M191.13281 462.41797l5.55469-1.8086-3.08594-9.46875-5.55469 1.8086 3.08594 9.46875"/><path fill-rule="evenodd" d="M191.9414 453.60547l.48438-.15625 1.94922 5.98437-.7461.2461-1.39062-4.26953-1.32031.42968-.17188-.52734.51172-.23828.22266-.1289.1914-.15626.14844-.19531.10156-.2539.04297-.32423-.02343-.41015"/><g clip-path="url(#d)"><path fill="none" stroke="#000" stroke-linecap="round" stroke-linejoin="round" stroke-miterlimit="10" stroke-width=".5" d="M147.51172 480.30078l-7.02344.0586"/></g><g clip-path="url(#e)"><path fill="none" stroke="#000" stroke-linecap="round" stroke-linejoin="round" stroke-miterlimit="10" stroke-width=".5" d="M146.49219 480.3086l.58594 1.07812"/></g><g clip-path="url(#f)"><path fill="none" stroke="#000" stroke-linecap="round" stroke-linejoin="round" stroke-miterlimit="10" stroke-width=".5" d="M160.78125 480.91406l-6.92969-1.16797"/></g><g clip-path="url(#g)"><path fill="none" stroke="#000" stroke-linecap="round" stroke-linejoin="round" stroke-miterlimit="10" stroke-width=".5" d="M159.77344 480.74219l.38672 1.16406"/></g><g clip-path="url(#h)"><path fill="none" stroke="#000" stroke-linecap="round" stroke-linejoin="round" stroke-miterlimit="10" stroke-width=".5" d="M174.05078 481.13281l-6.83984-1.60937"/></g><g clip-path="url(#i)"><path fill="none" stroke="#000" stroke-linecap="round" stroke-linejoin="round" stroke-miterlimit="10" stroke-width=".5" d="M173.05469 480.89844l.3125 1.1875"/></g><g clip-path="url(#j)"><path fill="none" stroke="#000" stroke-linecap="round" stroke-linejoin="round" stroke-miterlimit="10" stroke-width=".5" d="M187.35547 481.16797l-6.82031-1.67969"/></g><g clip-path="url(#k)"><path fill="none" stroke="#000" stroke-linecap="round" stroke-linejoin="round" stroke-miterlimit="10" stroke-width=".5" d="M186.36328 480.92578l.30078 1.1875"/></g><g clip-path="url(#l)"><path fill="none" stroke="#000" stroke-linecap="round" stroke-linejoin="round" stroke-miterlimit="10" stroke-width=".5" d="M200.6914 481.08594l-6.86327-1.51563"/></g><g clip-path="url(#m)"><path fill="none" stroke="#000" stroke-linecap="round" stroke-linejoin="round" stroke-miterlimit="10" stroke-width=".5" d="M199.6914 480.86719l.32813 1.1836"/></g><g clip-path="url(#n)"><path fill="none" stroke="#000" stroke-linecap="round" stroke-linejoin="round" stroke-miterlimit="10" stroke-width=".5" d="M214.04688 480.8789l-6.94141-1.10156"/></g><g clip-path="url(#o)"><path fill="none" stroke="#000" stroke-linecap="round" stroke-linejoin="round" stroke-miterlimit="10" stroke-width=".5" d="M214.04688 480.8789l.79687 2.32423"/></g><g clip-path="url(#p)"><path fill="none" stroke="#000" stroke-linecap="round" stroke-linejoin="round" stroke-miterlimit="10" stroke-width=".5" d="M227.40234 480.34375l-7.02734-.03125"/></g><g clip-path="url(#q)"><path fill="none" stroke="#000" stroke-linecap="round" stroke-linejoin="round" stroke-miterlimit="10" stroke-width=".5" d="M226.38281 480.33984l.57031 1.08594"/></g><g clip-path="url(#r)"><path fill="none" stroke="#000" stroke-linecap="round" stroke-linejoin="round" stroke-miterlimit="10" stroke-width=".5" d="M240.66797 479.73047l-6.92578 1.19531"/></g><g clip-path="url(#s)"><path fill="none" stroke="#000" stroke-linecap="round" stroke-linejoin="round" stroke-miterlimit="10" stroke-width=".5" d="M239.66016 479.90234l.7539.97266"/></g><g clip-path="url(#t)"><path fill="none" stroke="#000" stroke-linecap="round" stroke-linejoin="round" stroke-miterlimit="10" stroke-width=".5" d="M253.85938 479.23828l-6.6797 2.1836"/></g><g clip-path="url(#u)"><path fill="none" stroke="#000" stroke-linecap="round" stroke-linejoin="round" stroke-miterlimit="10" stroke-width=".5" d="M252.88672 479.55469l.88672.85156"/></g><g clip-path="url(#v)"><path fill="none" stroke="#000" stroke-linecap="round" stroke-linejoin="round" stroke-miterlimit="10" stroke-width=".5" d="M266.92969 478.66016l-6.1875 3.33593"/></g><g clip-path="url(#w)"><path fill="none" stroke="#000" stroke-linecap="round" stroke-linejoin="round" stroke-miterlimit="10" stroke-width=".5" d="M266.02734 479.14844l1.02344.67969"/></g><g clip-path="url(#x)"><path fill="none" stroke="#000" stroke-linecap="round" stroke-linejoin="round" stroke-miterlimit="10" stroke-width=".5" d="M280.38672 478.95703l-6.46875 2.7461"/></g><g clip-path="url(#y)"><path fill="none" stroke="#000" stroke-linecap="round" stroke-linejoin="round" stroke-miterlimit="10" stroke-width=".5" d="M279.44531 479.35547l.95313.77344"/></g><g clip-path="url(#z)"><path fill="none" stroke="#000" stroke-linecap="round" stroke-linejoin="round" stroke-miterlimit="10" stroke-width=".5" d="M293.97266 480.1289l-7.01563.40235"/></g><g clip-path="url(#A)"><path fill="none" stroke="#000" stroke-linecap="round" stroke-linejoin="round" stroke-miterlimit="10" stroke-width=".5" d="M292.95313 480.1875l.63671 1.04688"/></g><g clip-path="url(#B)"><path fill="none" stroke="#000" stroke-linecap="round" stroke-linejoin="round" stroke-miterlimit="10" stroke-width=".5" d="M307.26953 479.90625l-6.97656.84375"/></g><g clip-path="url(#C)"><path fill="none" stroke="#000" stroke-linecap="round" stroke-linejoin="round" stroke-miterlimit="10" stroke-width=".5" d="M306.2539 480.03125l.70313 1.0039"/></g><g clip-path="url(#D)"><path fill="none" stroke="#000" stroke-linecap="round" stroke-linejoin="round" stroke-miterlimit="10" stroke-width=".5" d="M320.5625 479.76563l-6.9336 1.125"/></g><g clip-path="url(#E)"><path fill="none" stroke="#000" stroke-linecap="round" stroke-linejoin="round" stroke-miterlimit="10" stroke-width=".5" d="M319.55469 479.92969l.74219.97656"/></g><g clip-path="url(#F)"><path fill="none" stroke="#000" stroke-linecap="round" stroke-linejoin="round" stroke-miterlimit="10" stroke-width=".5" d="M333.5586 478.76563l-6.29688 3.125"/></g><g clip-path="url(#G)"><path fill="none" stroke="#000" stroke-linecap="round" stroke-linejoin="round" stroke-miterlimit="10" stroke-width=".5" d="M332.64453 479.22266l.9961.71484"/></g><g clip-path="url(#H)"><path fill="none" stroke="#000" stroke-linecap="round" stroke-linejoin="round" stroke-miterlimit="10" stroke-width=".5" d="M344.75 480.32813l-.01953-.19922-.0586-.19141-.09765-.17578-.45703-.3789-.1914-.0586-.19923-.01953-.19922.01953-.1914.0586-.46094.3789-.09375.17578-.0586.1914-.01952.19923.01953.19921.05859.19141.09375.17969.46094.375.1914.0586.19922.01952.19922-.01953.1914-.0586.45704-.375.09765-.17968.0586-.1914.01953-.19922"/></g><g clip-path="url(#I)"><path fill="none" stroke="#000" stroke-linecap="round" stroke-linejoin="round" stroke-miterlimit="10" stroke-width=".5" d="M353.52734 480.3789l7.02735-.10156"/></g><g clip-path="url(#J)"><path fill="none" stroke="#000" stroke-linecap="round" stroke-linejoin="round" stroke-miterlimit="10" stroke-width=".5" d="M366.86719 479.91406l6.97656.83203"/></g><g clip-path="url(#K)"><path fill="none" stroke="#000" stroke-linecap="round" stroke-linejoin="round" stroke-miterlimit="10" stroke-width=".5" d="M367.88281 480.03516l-.44531-1.14453"/></g><g clip-path="url(#L)"><path fill="none" stroke="#000" stroke-linecap="round" stroke-linejoin="round" stroke-miterlimit="10" stroke-width=".5" d="M380.23047 479.61328l6.8789 1.42969"/></g><g clip-path="url(#M)"><path fill="none" stroke="#000" stroke-linecap="round" stroke-linejoin="round" stroke-miterlimit="10" stroke-width=".5" d="M381.23047 479.82031l-.34375-1.17578"/></g><g clip-path="url(#N)"><path fill="none" stroke="#000" stroke-linecap="round" stroke-linejoin="round" stroke-miterlimit="10" stroke-width=".5" d="M393.77734 478.90234l6.41797 2.85157"/></g><path fill="none" stroke="#000" stroke-linecap="round" stroke-linejoin="round" stroke-miterlimit="10" stroke-width=".5" d="M394.71094 479.3164l-.08594-1.22265"/><g clip-path="url(#O)"><path fill="none" stroke="#000" stroke-linecap="round" stroke-linejoin="round" stroke-miterlimit="10" stroke-width=".5" d="M406.89844 479.46094l6.8086 1.73828"/></g><path fill="none" stroke="#000" stroke-linecap="round" stroke-linejoin="round" stroke-miterlimit="10" stroke-width=".5" d="M406.89844 479.46094l-.58203-2.38672"/><g clip-path="url(#P)"><path fill="none" stroke="#000" stroke-linecap="round" stroke-linejoin="round" stroke-miterlimit="10" stroke-width=".5" d="M420.16797 479.65625l6.89844 1.34766"/></g><g clip-path="url(#Q)"><path fill="none" stroke="#000" stroke-linecap="round" stroke-linejoin="round" stroke-miterlimit="10" stroke-width=".5" d="M421.17188 479.85156l-.35938-1.17578"/></g><g clip-path="url(#R)"><path fill="none" stroke="#000" stroke-linecap="round" stroke-linejoin="round" stroke-miterlimit="10" stroke-width=".5" d="M434.33594 477.96094l5.1914 4.73437"/></g><path fill="none" stroke="#000" stroke-linecap="round" stroke-linejoin="round" stroke-miterlimit="10" stroke-width=".5" d="M435.08984 478.65234l.3047-1.1914"/><g clip-path="url(#S)"><path fill="none" stroke="#000" stroke-linecap="round" stroke-linejoin="round" stroke-miterlimit="10" stroke-width=".5" d="M447.3711 478.3125l5.7539 4.03125"/></g><path fill="none" stroke="#000" stroke-linecap="round" stroke-linejoin="round" stroke-miterlimit="10" stroke-width=".5" d="M448.20703 478.89844l.14844-1.21875"/><g clip-path="url(#T)"><path fill="none" stroke="#000" stroke-linecap="round" stroke-linejoin="round" stroke-miterlimit="10" stroke-width=".5" d="M460.875 478.0664l5.375 4.52735"/></g><path fill="none" stroke="#000" stroke-linecap="round" stroke-linejoin="round" stroke-miterlimit="10" stroke-width=".5" d="M461.65625 478.72266l.25781-1.19922"/><g clip-path="url(#U)"><path fill="none" stroke="#000" stroke-linecap="round" stroke-linejoin="round" stroke-miterlimit="10" stroke-width=".5" d="M147.48828 466.60547l-6.97656.8164"/></g><path fill="none" stroke="#000" stroke-linecap="round" stroke-linejoin="round" stroke-miterlimit="10" stroke-width=".5" d="M146.47266 466.72266l.69922 1.01172m13.52734-1.66797l-6.76563 1.89453m5.78125-1.6211l.84766.89063m13.35547-1.46094l-6.57422 2.48828m5.61719-2.125l.92187.8086m13.1836-1.54297l-6.2422 3.23047m6.2422-3.23047l2.01953 1.39453m11.63672-.38672l-6.92188 1.21484m5.91406-1.03906l.75391.96875m13.55469-1.20312l-6.89844 1.33203m6.89844-1.33203l1.54297 1.91015m11.65625-2.35937l-6.66407 2.23047m5.69532-1.90625l.89062.84375m13.35156-1.28907l-6.57812 2.47266m6.57812-2.47266l1.83985 1.6211m11.34765-1.91407l-6.32422 3.0586m6.32422-3.0586l1.98047 1.44532m11.11719-1.83203l-5.89063 3.83203m5.89063-3.83203l2.14844 1.1875m11.27344-1.00782l-6.10547 3.47266m6.10547-3.47266l2.07421 1.3125m11.33203-1.14843l-6.28515 3.14453m6.28515-3.14453l2 1.42187m11.19532-1.63672l-6.05078 3.57422m6.05078-3.57422l2.09375 1.28125m10.96094-1.66406l-5.52735 4.33984m5.52735-4.33984l2.24609.9961m10.58594-1.5l-4.5625 5.34765m3.89843-4.57031l1.19922.26562m12.76563-1.05469l-4.53125 5.3711m3.8711-4.58985l1.19921.25782m12.20703-1.42969l-3.39453 6.15234m2.90234-5.2578l1.22657.01952M370.42578 463.5l-.14062 7.02734m.12109-6.0039l1.09375-.55469m9.71484 5.55469l4.91407-5.01953m-4.19922 4.28906l-1.17969-.34375m13.90625-4.0664l4.66016 5.26171m-3.98047-4.4961L395.76563 464m12.40234.22266l4.26562 5.58203m-3.64453-4.76953l.51172-1.1172m14.52344-.41015l-.41797 7.01172m.35938-5.99219l1.11328-.51172m11.65625-.49218l.79296 6.98047m-.67578-5.96485l1.01172-.69531m11.04297.01172l3.07813 6.3164m-3.07813-6.3164l1.44531-1.98438m11.8047 2.01563l3.21093 6.2539m-2.7461-5.34375l.70313-1.0078"/><g clip-path="url(#V)"><path fill="none" stroke="#000" stroke-linecap="round" stroke-linejoin="round" stroke-miterlimit="10" stroke-width=".5" d="M147.50781 453.53125l-7.01562.33594"/></g><path fill="none" stroke="#000" stroke-linecap="round" stroke-linejoin="round" stroke-miterlimit="10" stroke-width=".5" d="M146.48828 453.57813l.6289 1.05468m13.64454-1.625l-6.89063 1.38281m5.88672-1.18359l.77735.94922m12.29297-3.19922l-4.39844 5.48047m3.75781-4.6836l1.20703.23048m10.6211-1.79688l-.14063 7.02344m15.9961-5.86328l-5.22266 4.69922m18.96094-4.1211l-6.06641 3.54688m5.1836-3.03125l1.04296.64453m13.07422-1.29297l-5.90625 3.8125m5.04688-3.25781l1.0703.59765m13.07032-1.19922l-5.83984 3.90625m4.99218-3.33984l1.07813.58203m12.59375-1.73437l-4.85547 5.07812m4.14844-4.33984l1.17969.33203m13.30859-.52344l-5.78906 3.98438m4.9453-3.40625l1.08985.5664m12.44922-1.82812L274.875 456.375m3.89062-4.57422l1.19922.26172m13.32032-.46094l-5.63672 4.19532m5.63672-4.19532l2.21484 1.04688m11.28516-.77344l-6.00782 3.64844m6.00782-3.64844l2.10937 1.2539m11.19922-1.26171l-5.9961 3.66406m5.9961-3.66406l2.11328 1.2461m10.9336-1.625l-5.46094 4.42187m5.46093-4.42188l2.25782.95703m10.74218-1.29687L341.3125 456.25m4.82812-5.10156l2.3672.65234m11-.60156l-4.9336 5m4.21484-4.27344l1.17578.35156m11.17578-2.0039l-1.5703 6.85156m1.34374-5.85547l1.1836-.32031m13.46093-.21484l-3.77343 5.92968m3.22265-5.0664l1.22266.09375m12.42578-1.08594l-3.33984 6.1836m2.85546-5.28126l1.22657.00782m13.78125.16796l-5.7539 4.03125m4.91405-3.4453l1.09375.55468m12.77344-1.5l-5.17969 4.75m4.42578-4.0586l1.15625.41016m9.20704-2.0586l2.23046 6.66407m-1.90625-5.69531l.84766-.89063m14.63281.01953l-2.74609 6.46875m2.34375-5.52734l1.22266-.10937m11.78906-1.04688l-1.33985 6.89844m1.14454-5.89453l1.17578-.35938"/><g clip-path="url(#W)"><path fill="none" stroke="#000" stroke-linecap="round" stroke-linejoin="round" stroke-miterlimit="10" stroke-width=".5" d="M147.42578 439.60156l-6.85156 1.5664"/></g><path fill="none" stroke="#000" stroke-linecap="round" stroke-linejoin="round" stroke-miterlimit="10" stroke-width=".5" d="M147.42578 439.60156l1.60547 1.85547m11.78125-1.41406l-6.9961.67969m6.9961-.6797l1.35547 2.04688m11.9336-2.2578l-6.94141 1.10546m5.92968-.94531l.73828.97656m13.52344.28125l-6.8125-1.73438M186.35937 441l.28907 1.1914m14.01953-.9453l-6.8125-1.72657m5.82031 1.47656l.29297 1.19141m13.6836-.10547L207.5 438.6836m5.25781 2.90235l-.01953 1.22656m13.40625-5.125l-4.50781 5.39063m3.85156-4.60547l1.19922.2539m12.17578-1.4414l-3.3125 6.1953m2.82813-5.29296h1.22656m9.44922-.9961l2.92969 6.38673m-2.5-5.46094l.74218-.97266m16.5 1.24219l-5.78125 3.99219m4.9414-3.41016l1.08985.5664m13.17188-.98437l-5.9961 3.66406m5.125-3.1328l1.0547.625m12.03905-2.27345l-3.8125 5.90235m3.8125-5.90235l2.44532.20704m11.77734.64062l-5.625 4.20703m5.625-4.20703l2.22266 1.04297m11.20703-.88672l-5.85547 3.89063m5.85547-3.89063l2.15625 1.16797m10.80078-1.61719l-5.14063 4.79297m4.39453-4.09766l1.16016.39844m12.67969-1.3125l-4.69531 5.22656m4.6953-5.22656l2.38282.58985M357 436.87109l.08203 7.02735m-.07031-6.00781l1.07812-.58594m12.40625-.4336l-.28125 7.02344m.28125-7.02344l2.21485-1.0625m11.98437 4.57422l-.01953-.19922-.0586-.1914-.09765-.17578-.45703-.37891-.1914-.0586-.19923-.01952-.19921.01953-.19141.05859-.46094.3789-.09375.17579-.0586.1914-.01952.19922.01953.19922.0586.1914.09374.1797.46094.375.1914.05859.19922.01953.19922-.01953.19141-.0586.45703-.375.09766-.17968.0586-.1914.01952-.19923m15.57422-1.2539l-6.5664 2.5078m5.60937-2.14062l.92578.8047m13.33984-1.1836l-6.55468 2.53515m5.60156-2.16796l.92969.80468m13.57422-.02343l-7.02344.23828m6-.20313l.61328 1.0625m12.92578-3.21094l-5.42578 4.46094m5.42578-4.46094l2.26563.94141m10.52343-1.46094l-4.375 5.5m4.375-5.5l2.41016.44532m11.0039-.36329l-4.57421 5.33594"/><g clip-path="url(#X)"><path fill="none" stroke="#000" stroke-linecap="round" stroke-linejoin="round" stroke-miterlimit="10" stroke-width=".5" d="M465.84766 437.71484l2.39453.53516"/></g><g clip-path="url(#Y)"><path fill="none" stroke="#000" stroke-linecap="round" stroke-linejoin="round" stroke-miterlimit="10" stroke-width=".5" d="M146.53125 424.63281l-5.0625 4.8711"/></g><path fill="none" stroke="#000" stroke-linecap="round" stroke-linejoin="round" stroke-miterlimit="10" stroke-width=".5" d="M146.53125 424.63281l2.33203.76563m11.19531-.52735l-5.48437 4.39453m4.6836-3.7539l1.1289.48437m13.7539.97266l-7.02343.20313m6.0039-.17579l.60547 1.06641m13.52735.1914l-6.6172-2.37109m6.6172 2.3711l.35156 2.42578m12.82031-2.08594l-6.33203-3.05078m5.41016 2.60937l.04687 1.22266m14.16406-.72656l-6.27734-3.16016m5.36328 2.69922l.02734 1.22656m12.3125-5.6289l-2.5 6.5664m18.0547-2.89062l-6.98048-.78516m20.07422 1.6836l-6.53515-2.58204m20.08984 1.46485l-7.01563-.34766m20.25782-.5664l-6.8711 1.48046m18.57032-3.74609l-3.63672 6.01172m18.55468-3.80078l-6.84375 1.58984m17.23438-4.27344l-.9961 6.95703m.85157-5.9453l1.15234-.41407m14.54297.67187l-5.46875 4.41797m5.46875-4.41797l2.25781.96485m11.07032-.94531l-5.4961 4.3789m4.69922-3.74219l1.125.48829m13.38281-.50782l-6.28515 3.14453m5.3711-2.6875l1 .71094m11.55468-2.78906l-2.9375 6.38672m2.51172-5.45703l1.22265-.07032m12.52344-.85546l-2.94531 6.3789m2.94531-6.3789l2.44922-.13672m12.88281 2.9336l-6.98047.78515m6.98047-.78516l1.38672 2.02734m11.9375-1.9453l-7 .62109m5.98047-.53125l.67187 1.03125m12.96875-2.92579l-5.60937 4.23047m4.79297-3.61328l1.11328.51563m12.73047-1.46875l-5.03516 4.90234m5.03516-4.90234l2.33594.7461m10.10546-1.39845l-3.28906 6.20703m3.28906-6.20703l2.45313-.0039m11.27734.25781l-4.11718 5.69922"/><g clip-path="url(#Z)"><path fill="none" stroke="#000" stroke-linecap="round" stroke-linejoin="round" stroke-miterlimit="10" stroke-width=".5" d="M465.6211 424.21875l2.42968.33594"/></g><g clip-path="url(#aa)"><path fill="none" stroke="#000" stroke-linecap="round" stroke-linejoin="round" stroke-miterlimit="10" stroke-width=".5" d="M146.5039 411.28906l-5.0078 4.92969"/></g><path fill="none" stroke="#000" stroke-linecap="round" stroke-linejoin="round" stroke-miterlimit="10" stroke-width=".5" d="M146.5039 411.28906l2.33985.73438m-3.07031-.01953l1.17187.37109m12.98047-.97266l-5.21875 4.70313m5.21875-4.70313l2.30469.83594M173 411.16016l-4.74219 5.1875m4.05469-4.4336l1.1875.30469m10.1836 5.03906l.52343-7.00781m16.2539 4.95312l-6.40234-2.89843m5.46875 2.47656l.07813 1.22656m9.55078.96094l2.83984-6.42969m-2.42578 5.49219l-1.22656.08984m15.3164 1.13672l.46094-7.01172m11.21485 6.48047l3.73828-5.94922m14.6211 4.48047l-6.34766-3.01172m19.98437 1.8672l-6.99219-.72267m19.5-1.89843l-5.3789 4.52344m18.16015-5.03516l-4.3125 5.54687m3.6875-4.74218l1.20704.21093m12.3203-1.29297l-3.48437 6.10157m16.85547-6.07031l-3.59765 6.03906m18.39453-4.28125l-6.5586 2.52344m20.09766-1.53907l-7.00781.55469m20.27734-.90234l-6.91797 1.25m5.91016-1.06641l.75781.96094m13.60547-.83203l-7 .625m5.98047-.53516l.67187 1.02734m12.94532-2.95312l-5.5625 4.29297m4.7539-3.66797l1.11719.50781m12.11719-1.94531l-3.78516 5.92187m3.78516-5.92187l2.4453.19531m11.54298.36719l-5.13281 4.79687m5.1328-4.79687l2.32032.79687m11.41016-.2578l-5.96485 3.71483m5.09766-3.17187l1.0625.61328m12.89453-1.47656l-5.51172 4.35937m5.51172-4.35937l2.2461.98437m10.17578-1.78515l-3.72266 5.96094m3.72266-5.96094l2.4453.17187m10.69923-.26953l-3.38672 6.15625m3.38672-6.15625l2.45312.03516"/><g clip-path="url(#ab)"><path fill="none" stroke="#000" stroke-linecap="round" stroke-linejoin="round" stroke-miterlimit="10" stroke-width=".5" d="M146.79688 398.3086l-5.59375 4.2578"/></g><path fill="none" stroke="#000" stroke-linecap="round" stroke-linejoin="round" stroke-miterlimit="10" stroke-width=".5" d="M146.79688 398.3086l2.22656 1.02734m-3.04297-.40625l2.23047 1.02344m12.09765-1.35547l-5.98828 3.67968m5.98828-3.67968l2.1172 1.24218m-2.98829-.70703l2.11719 1.24219m12.1211-1.6914l-6.08985 3.5078m6.08984-3.5078l2.07813 1.30468m-2.96485-.79297l1.03906.65235m13.48829-.39454l-6.7422 1.96875m6.7422-1.96875l1.71484 1.75782m9.6875 2.42578l-2.91406-6.39453m2.48828 5.46094l-.7461.97656m11.26172-.20313l3.53125-6.07422m-3.01562 5.19141l-1.22656-.04688m16.8164-2.10937l-.01953-.19922-.0586-.1914-.09374-.17579-.46094-.3789-.1914-.05469-.19923-.02344-.19921.02344-.19141.05469-.46094.3789-.09375.17579-.0586.1914-.01952.19922.01953.19922.0586.1914.09374.1797.46094.375.1914.05859.19923.01953.19921-.01953.19141-.0586.46094-.375.09375-.17969.0586-.1914.01952-.19922m15.78906-.33984l-6.99609.68359m19.35156 2.08984l-5.07422-4.86328m18.59375 4.625l-5.48437-4.39062m19.55469 2.53515l-6.9961-.67968m20.07813-.95704l-6.53125 2.59375m5.58203-2.21484l.9336.79297m13.19921-1.46094l-6.26953 3.17188m5.35938-2.71094l1.0039.70703m13.57422-.01562l-6.97265.86718m5.95703-.73828l.70703 1.0039m13.61719-1.17187l-6.96094.94922m5.94922-.8125l.71875.9961m13.08203 1.24218l-5.91016-3.80078m5.05078 3.2461l-.10156 1.22265m13.5.1875l-4.35547-5.51562m3.72266 4.71484l-.49219 1.1211m15.33594-1.375l-6.14844-3.40235m5.2539 2.90625l-.01952 1.22656m14.60546-3.09375l-6.90234 1.32422m6.90234-1.32422l1.53907 1.91016m11.66796-2.33203l-6.68359 2.16406m5.71094-1.84765l.88281.85156m13.42578-1.10547l-6.72265 2.04297m5.74218-1.7461l.8672.8672m12.8203-2.32423l-5.5078 4.36328m5.5078-4.36328l2.2461.98047m10.8086-1.27734l-4.98829 4.95312m4.26172-4.23047l1.17187.36329m12.73438-1.21485l-4.71485 5.21094m4.02735-4.45313l1.1914.30079m12.94532-.92579l-4.98828 4.94922"/><g clip-path="url(#ac)"><path fill="none" stroke="#000" stroke-linecap="round" stroke-linejoin="round" stroke-miterlimit="10" stroke-width=".5" d="M466.05469 397.96484l2.34375.72657"/></g><g clip-path="url(#ad)"><path fill="none" stroke="#000" stroke-linecap="round" stroke-linejoin="round" stroke-miterlimit="10" stroke-width=".5" d="M146.57422 384.73438l-5.14844 4.78125"/></g><path fill="none" stroke="#000" stroke-linecap="round" stroke-linejoin="round" stroke-miterlimit="10" stroke-width=".5" d="M146.57422 384.73438l2.32031.80078m-3.07031-.10547l1.16016.39844m12.82812-1.17579l-4.9961 4.94141m4.9961-4.9414l2.34375.73046m-3.07031-.01172l1.17187.36329m13.07813-.85157l-5.41016 4.48438m5.41016-4.48438l2.26953.92969m11.60547.01172l-6.53125 2.59765m6.53125-2.59765l1.8711 1.58984m-2.82032-1.21094l.9336.79297m13.28124 1.53907l-6.4336-2.82422m5.4961 2.41406l.09375 1.22266m14.21875-.95313l-6.55078-2.54297m6.55078 2.54297l.28906 2.4375m13.0586-2.52734l-6.61719-2.36328m5.65625 2.01953l.17578 1.21484m14.25-1.44531l-6.91797-1.21485m5.91407 1.03907l.3789 1.16797m13.97266-1.1875l-6.98047-.82422m5.96484.70312l.44532 1.14453m13.68359-.20312l-6.57813-2.46485m5.6211 2.10547l.16015 1.21875m13.70313-.07812l-5.76172-4.02735m4.92188 3.44141l-.14844 1.21875m14.875-1.9961l-6.90625-1.30077m5.90234 1.10937l.36719 1.17188m13.91016-2.47266l-6.82032 1.6836m5.82813-1.4375l.82031.91406m13.4961-1.1172l-6.83985 1.60157m5.84766-1.3711l.80469.92579m13.55078-.91016l-6.9375 1.10547m5.92968-.94531l.73829.98047m13.46093.48828l-6.6875-2.15235m5.71485 1.83985l.21484 1.20703m12.82422.85156l-4.1914-5.64062m3.58202 4.8164L358 390.23047m15.82031-2.51953l-6.92968-1.17578m5.92187 1.0078l.38672 1.16407m13.60547-3.17578l-6.26563 3.1836m5.35157-2.71876l1.0039.70313m13.0625-1.44922l-5.9414 3.7461m5.07812-3.20313l1.0664.60937m12.77344-1.60546l-5.26562 4.65234m4.5-3.97266l1.14844.42969m12.10156-1.79688l-3.60547 6.03125m3.08203-5.15625l1.22656.0625m12.60938-.9414l-3.59766 6.03515m3.07422-5.15625l1.22656.0586m12.73438-.85938l-3.84375 5.88282m3.28516-5.02735l1.22265.10938m13.15625-.5664l-4.85156 5.08202m4.14453-4.34375l1.17969.33203"/><g clip-path="url(#ae)"><path fill="none" stroke="#000" stroke-linecap="round" stroke-linejoin="round" stroke-miterlimit="10" stroke-width=".5" d="M144.91797 370.41797l-1.83594 6.78125"/></g><path fill="none" stroke="#000" stroke-linecap="round" stroke-linejoin="round" stroke-miterlimit="10" stroke-width=".5" d="M144.91797 370.41797l2.39062-.54688m11.07813.58985l-2.14453 6.6914m2.14453-6.6914l2.41406-.4336m11.57031.73047l-3.48437 6.10156m3.48437-6.10156l2.45313.07422m11.46875.36328l-4.69531 5.22656m4.01172-4.46875l1.1914.29688m13.84766.63281l-6.77735 1.84766m5.79297-1.57813l.83985.89454m13.4414.76171l-6.73828-2m5.75781 1.70704l.2422 1.20312m14.18358-1.60156l-7-.61719m5.98047.52734l.48047 1.12891m13.8164-.75l-6.92577-1.19531m5.91797 1.01953l.3828 1.16797m13.71095-.21094l-6.46485-2.75781m5.52344 2.35547l.10547 1.22265m13.92969-.38672l-6.02344-3.625m5.14453 3.09766l-.0625 1.22266m13.88281-.19141l-5.27734-4.63672m19.46484 2.5l-7.01953-.35937m20.2539-.58594l-6.85937 1.53125m20.25781-.67578l-7.02734-.17969m6.0039.15234l.54688 1.10157m13.60156-.02344l-6.64843-2.28125m5.67968 1.94922l.19532 1.21094m14.1211-.98047l-6.71095-2.08204m19.76953 2.69922l-6.19921-3.3125m5.29687 2.83204l-.0039 1.22656m14.49609-1.42969l-6.75-1.94531M372.75 374.5l.2539 1.19922m13.96876-3.08985l-6.60547 2.39454m5.64453-2.04297l.91406.82031m12.95313-1.96875l-5.78516 3.99219m4.9414-3.41016l1.08985.5625m12.50781-1.77734l-4.66406 5.2539m3.98828-4.48828l1.1914.28906m12.7461-1.10156l-4.55469 5.35156m3.89063-4.57421l1.19922.26171m12.01562-1.53515l-3.02734 6.34375m2.58594-5.42188l1.22656-.05078m12.30078-.96875l-2.57031 6.53906m2.19531-5.58984l1.21875-.13672m12.28125-.88281l-2.1875 6.67969m1.86719-5.70703l1.21093-.21094"/><g clip-path="url(#af)"><path fill="none" stroke="#000" stroke-linecap="round" stroke-linejoin="round" stroke-miterlimit="10" stroke-width=".5" d="M141.96484 357.6289l4.07032 5.72657"/></g><path fill="none" stroke="#000" stroke-linecap="round" stroke-linejoin="round" stroke-miterlimit="10" stroke-width=".5" d="M154.95703 357.89063l4.71875 5.20703m-4.03516-4.44922l.41797-1.15625m11.7461.91406l5.65234 4.17188m7.7461-4.28125l5.48437 4.39453M182 358.93359l.23047-1.20312m18.38672 1.72265l-6.71485 2.08204m20.04688-.0625l-6.75-1.95704m5.76953 1.67188l.25 1.19922m13.70313-.1211l-6.0625-3.54687m5.17968 3.03125l-.04687 1.22656m14.6289-1.66406l-6.83203-1.64063m5.83985 1.40235l.30468 1.1875m13.98438-.8789l-6.79688-1.78126m5.8086 1.52344l.28125 1.19531m13.73828-.20312l-6.23047-3.25m18.84766 4.17578l-4.83203-5.10156m17.77343-.3086l-4.08594 5.71875m18.85157-3.22656l-6.98828.73828m20.24609.36719l-6.8711-1.47266m18.27344 3.90235l-3.04687-6.33204m15.32031 6.64454l-.96484-6.96094m15.99219 6.22656l-4.38672-5.49219m3.74609 4.69532l-.48438 1.125m15.59375-2.00391l-6.6953-2.14063m5.72265 1.83204l.21875 1.20703m14.08203-2.99219l-6.72266 2.04688m5.7461-1.75l.86719.87109m13.26171-1.60156l-6.39453 2.91796m5.46485-2.49218l.97265.7461m12.69922-2.05079l-5.25 4.67188m4.48828-3.9922l1.14844.4297m12.40234-1.59375l-4.1953 5.64062m3.58202-4.82031l1.21485.1875m12.51953-1.14063l-3.8086 5.90625m3.25391-5.04687l1.22266.10547m11.8203-1.35547l-2.15624 6.6875m1.84375-5.71485l1.20703-.21484m12.55469-.71094l-2.42578 6.59375m2.07421-5.63281l1.21485-.16797"/><g clip-path="url(#ag)"><path fill="none" stroke="#000" stroke-linecap="round" stroke-linejoin="round" stroke-miterlimit="10" stroke-width=".5" d="M141.01172 345.32813l5.97656 3.69921"/></g><path fill="none" stroke="#000" stroke-linecap="round" stroke-linejoin="round" stroke-miterlimit="10" stroke-width=".5" d="M153.98438 346.0664l6.66406 2.22657m-6.66406-2.22656l-.41016-2.42188m13.89453 5.07031l6.32031-3.07421m-6.32031 3.07421l-1.98047-1.4453m15.42188 1.67968l6.0703-3.54297m-5.1875 3.02734l-1.04296-.64453m14.80078 2.45703l3.42188-6.13671m11.36718 6.57421l.47266-7.01171m14.73047 6.60546l-3.30469-6.19921m18.1211 4.64843l-6.3086-3.09765m19.4336 3.43359l-5.9297-3.76953m5.06641 3.22265l-.09375 1.22266m14.41016-.90625l-6.20313-3.3086m19.83594 2.46876l-6.83594-1.6289m20.23829.60155l-7.01563.42579m20.33594-.27344l-7.02344.1211m6.0039-.10548l.59376 1.07422m13.70312-.5039l-6.94922-1.04688m20.09766 1.70313L327.10156 346m14.91407 4.2461l3.41796-6.13673m13.97266 5.66797l-4.73047-5.1953m4.04297 4.4375l-.41406 1.15624m15.51172-2.38672l-6.92188-1.21875m5.91406 1.03906l.37891 1.16797m13.94531-2.19921l-6.92187 1.19921m6.92187-1.19921l1.5039 1.9414m11.08985-3.53906l-5.48047 4.39453m4.6836-3.7539l1.125.48437m11.76953-2.09375l-3.04688 6.33203m2.60157-5.41016l1.22656-.05078m12.3164-.96875l-2.60937 6.52735m2.23047-5.57813l1.21875-.1289m12.35156-.8672l-2.36328 6.6211m2.01953-5.65625l1.21094-.17969m12.14453-.875l-1.75781 6.80079m1.5039-5.8125l1.19141-.28516m12.67969-.61328l-2.35938 6.6211m2.01563-5.65626l1.21484-.17969"/><g clip-path="url(#ah)"><path fill="none" stroke="#000" stroke-linecap="round" stroke-linejoin="round" stroke-miterlimit="10" stroke-width=".5" d="M141.36719 331.53516l5.26562 4.65625"/></g><path fill="none" stroke="#000" stroke-linecap="round" stroke-linejoin="round" stroke-miterlimit="10" stroke-width=".5" d="M153.82031 333.51563l6.99219.6953m-6.99219-.6953l-.9336-2.26954m14.58985 4.16407l6.3086-3.09375m-6.3086 3.09375l-1.98828-1.44141m15.16016 1.11328l6.59375-2.4375m-5.63281 2.08203l-.91797-.8164m14.26953 2.60937l4.59765-5.3164m-3.92578 4.54296l-1.19922-.26953m13.09766.14063l6.08594-3.51172m-5.19922 3.0039l-1.03906-.65234m14.52734 2.3086l3.96875-5.8047m11.8086 6.38282l-.95704-6.96094m17.30469 3.57813l-7.02344-.19531m6.0039.16796l.54298 1.09766m13.79297-1.16797h-7.02735m20.3086.5l-6.95703-1.0039m17.62109 3.91796l-1.65625-6.82812m17.07031 5.35937l-5.85156-3.89062m5 3.32422l-.1211 1.22265m14.8711-2.42187l-7.01953-.35938m5.9961.3047l.52343 1.11327m13.65625-2.28906l-6.70313 2.10156m5.73047-1.79687l.8711.85937m12.98828 1.83594l-5.84766-3.89844m15.17969 5.29688l2.1211-6.69922m-1.8125 5.72656l-1.20704.22266m16.1875.79687l-1.82422-6.78906m1.5586 5.80078l-.89844.83594M386.65234 332l-5.96093 3.72656M386.65234 332l2.125 1.22656m10.25782-2.21875l-4.09766 5.71094m3.5-4.8789l1.21484.16015m11.64063-1.50781l-1.98047 6.74219m1.6914-5.76172l1.19922-.2461m10.21094-.66406l2.40625 6.60156m-2.0586-5.64062l.82032-.91406m11.41016.32421l3.875 5.85938m13.82031-5.45703l-4.88281 5.05078m4.17187-4.3125l1.17969.33594m12.39453-1.44532l-3.97656 5.79688m3.39844-4.95313l1.21875.13672"/><g clip-path="url(#ai)"><path fill="none" stroke="#000" stroke-linecap="round" stroke-linejoin="round" stroke-miterlimit="10" stroke-width=".5" d="M143.23828 317.11719l1.52344 6.85937"/></g><g clip-path="url(#aj)"><path fill="none" stroke="#000" stroke-linecap="round" stroke-linejoin="round" stroke-miterlimit="10" stroke-width=".5" d="M143.23828 317.11719l1.86328-1.59375"/></g><path fill="none" stroke="#000" stroke-linecap="round" stroke-linejoin="round" stroke-miterlimit="10" stroke-width=".5" d="M154.21094 318.89844l6.20703 3.29687m-5.30078-2.8164l-.0039-1.22657m12.08593 3.15235l6.86328-1.51172m-5.86328 1.29297l-.79688-.9336m13.15625 1.32422l6.77344-1.85937m-5.78906 1.58984l-.84375-.89453m13.76953 2.3711l5.58203-4.26954m-4.76953 3.64844l-1.11328-.51172m14.13281 1.67578l4.54688-5.35937m-3.88282 4.58203l-1.19922-.26172m13.58985.79297l5.07031-4.86328m-4.33203 4.15625l-1.16797-.38672m13.21094.375l6.13672-3.42578m6.77344 2.2539l6.9453-1.08203m-5.93359.92188l-.73437-.98047m13.08203 1.3711l6.85547-1.54298m-5.85547 1.31641l-.80078-.92969m13.69531 2.4375L280 318.4922m-4.8711 3.51172l-1.09765-.53907m15.45313 2.45704l1.96484-6.7461m-1.67969 5.76563l-1.20312.25m14.35156.76171l1.72656-6.8125m-1.47656 5.82422l-1.1914.28907m16.8203.36718l-3.40234-6.14843m2.90625 5.2539l-.66797 1.03125m16.29297-3.27344l-7.02734.12891m6.0039-.10937l.59375 1.0703m13.6211-1.9414l-6.78516 1.82813m5.80078-1.5625l.83594.89844m12.61719 2.17578l-5.08985-4.84766m4.34766 4.14063l-.32813 1.18359m12.91407.44531l-2.14844-6.6914m1.83594 5.71484l-.85547.88281m16.1289-5.48047l-5.4375 4.45313m5.4375-4.45313l2.26172.94531m11.56641-.09375l-6.46484 2.75391m6.46484-2.7539l1.91016 1.53906m10.72656-2.57422l-5.10938 4.82422m5.10938-4.82422l2.32422.78125m8.79297-1.86719l-.71485 6.99219m.71485-6.99219l2.27343-.92187m12.53516 7.40625l-3.69922-5.97657m3.16016 5.10938l-.61719 1.0586m16.08594-2.60548l-6.92969-1.14843m6.92969 1.14843l.78515 2.32813m-1.79297-2.49219l.39063 1.16016m13.16406-3.82031l-5.39453 4.5"/><g clip-path="url(#ak)"><path fill="none" stroke="#000" stroke-linecap="round" stroke-linejoin="round" stroke-miterlimit="10" stroke-width=".5" d="M466.25781 318.29688l2.27344.92578"/></g><path fill="none" stroke="#000" stroke-linecap="round" stroke-linejoin="round" stroke-miterlimit="10" stroke-width=".5" d="M465.47266 318.95313l1.13671.46093"/><path fill="#00f" fill-rule="evenodd" d="M370.48438 401.07422h8.62109v-10.14844h-8.6211v10.14844"/><path fill="azure" fill-rule="evenodd" d="M372.3164 392.76172h.83594v2.82031h3.28516v-2.82031h.83203v6.47656h-.83203v-2.91406h-3.28516v2.91406h-.83593v-6.47656"/><path fill="#ff3030" fill-rule="evenodd" d="M189.20703 383.32031h7.6914v-10.14844h-7.6914v10.14844"/><path fill="azure" fill-rule="evenodd" d="M191.03906 375.00781h.83594v5.73828h3.1914v.7422h-4.02734v-6.48048"/><path fill="#ffffe0" fill-rule="evenodd" d="M417.9336 419.0586h22.17968v-10.19141H417.9336v10.1914"/><path fill-rule="evenodd" d="M421.42969 410.69922h.51172v6.29297h-.78907v-4.48828h-1.38671v-.5547l.55859-.0664.2539-.05469.22657-.08984.20312-.14062.17578-.21094.14063-.29297.10547-.39453m4.8164 0l.22657.01953.21875.05469.21093.08984.19532.1211.18359.14843.17188.17578.30078.41797.24609.4961.17969.54687.10937.57813.03906.58984-.03906.59375-.10937.58594-.17969.55469-.2461.5-.30077.42968-.17188.17969-.1836.15234-.1953.1211-.21094.09375-.21875.0586-.22657.01952-.23046-.01953-.21875-.0586-.20704-.09374-.19921-.1211-.1836-.15234-.17187-.17969-.30079-.42969-.24218-.5-.17969-.55468-.11328-.58594-.03906-.59375h.83593l.02735.5625.08203.50781.125.4414.16406.375.1914.30079.21094.22266.22266.13671.22656.04688.22657-.04688.22265-.13671.21094-.22266.1875-.30078.16406-.375.125-.4414.08203-.50782.03125-.5625-.03125-.5586-.08203-.5039-.125-.4336-.16406-.36718-.1875-.28906-.21094-.21485-.22265-.13281-.22657-.04297-.22656.04297-.22265.13281-.21094.21485-.1914.28906-.16407.36719-.125.43359-.08203.5039-.02735.5586h-.83593l.03906-.58984.11328-.57813.17969-.54687.24219-.4961.30078-.41797.17187-.17578.1836-.14844.19921-.12109.20704-.08984.21875-.05469.23046-.01953m4.95313 0l.22656.01953.21875.05469.21094.08984.19531.1211.1836.14843.17187.17578.30078.41797.24219.4961.17969.54687.11328.57813.03906.58984-.03906.59375-.11328.58594-.1797.55469-.24218.5-.30078.42968-.17188.17969-.18359.15234-.19531.1211-.21094.09375-.21875.0586-.22656.01952-.23047-.01953-.21875-.0586-.20703-.09374-.19922-.1211-.1836-.15234-.17187-.17969-.30078-.42969-.24219-.5-.17969-.55468-.11328-.58594-.03906-.59375h.83594l.02734.5625.08203.50781.125.4414.16407.375.1914.30079.21094.22266.22266.13671.22656.04688.22656-.04688.22266-.13671.20703-.22266.1914-.30078.16407-.375.125-.4414.08203-.50782.02734-.5625-.02734-.5586-.08203-.5039-.125-.4336-.16406-.36718-.19141-.28906-.20703-.21485-.22266-.13281-.22656-.04297-.22656.04297-.22266.13281-.21094.21485-.1914.28906-.16407.36719-.125.43359-.08203.5039-.02734.5586h-.83594l.03906-.58984.11329-.57813.17968-.54687.24219-.4961.30078-.41797.17188-.17578.18359-.14844.19922-.12109.20703-.08984.21875-.05469.23047-.01953m4.94922 0l.39062.02734.35547.08203.32422.13672.28125.1875.22656.23828.17578.28516.10938.33203.03515.375-.01953.27735-.05859.23437-.08594.19922-.11328.17187-.1289.14063-.14063.125-.28516.19531.23047.11719.20703.14844.1836.17187.15234.1914.125.21485.08985.23047.05859.24219.01562.25781-.03125.3086-.10546.32812-.17188.32422-.23828.30469-.3086.26953-.37109.21484-.21484.08203-.22656.0586-.2461.03906-.25781.01562-.26172-.01562-.24219-.03906-.22265-.0586-.20704-.08203-.35937-.21484-.28906-.26954-.22266-.30468-.15625-.32422-.09375-.32813-.03125-.30859h.83594l.02734.2539.07422.23438.125.21094.16016.1875.1914.14844.22266.11718.23828.07032.2539.02734.25782-.02734.23828-.07032.21875-.11718.19531-.14844.16016-.1875.1211-.21094.07812-.23437.02734-.25391-.02734-.2539-.07813-.23438-.12109-.21094-.16016-.1875-.1953-.15234-.21876-.11328-.23828-.07422-.25781-.02344-.2539.02344-.23829.07422-.22266.11328-.1914.15234-.16016.1875-.125.21094-.07422.23437-.02734.25391h-.83594l.01953-.2539.0586-.23829.08984-.22656.1211-.20703.15624-.1914.1797-.17188.21093-.15235.23047-.1328-.28516-.19532-.14062-.125-.12891-.14063-.11328-.17187-.08594-.19922-.0586-.23438-.01952-.27734h.78515l.02344.21485.0664.1914.10157.16797.13672.14063.16797.10937.1875.08203.20703.05078.21875.01563.22265-.01563.20704-.05078.1875-.08203.16406-.10938.13672-.14062.10546-.16797.06641-.1914.02344-.21485-.02344-.21484-.0664-.1875-.10547-.16797-.13672-.14063-.16406-.10937-.1875-.08203-.20704-.05078-.22265-.01563-.21875.01563-.20703.05078-.1875.08203-.16797.10937-.13672.14063-.10156.16797-.06641.1875-.02344.21484h-.78515l.03515-.375.10938-.33203.17187-.28516.23047-.23828.28125-.1875.32422-.13672.35547-.08203.38672-.02734"/><path fill="#ffffe0" fill-rule="evenodd" d="M315.35547 348.04297h22.17969v-10.1914h-22.1797v10.1914"/><path fill-rule="evenodd" d="M318.85156 339.6836h.51172v6.29687h-.78906v-4.49219h-1.38672v-.55469l.5586-.0625.2539-.05468.22656-.08985.20313-.14062.17578-.21094.14062-.29297.10547-.39844m4.8164 0l.22657.01954.21875.05468.21094.08985.19531.12109.1836.15234.17187.17579.30078.41796.2461.4922.17968.54687.10938.57812.03906.59375-.03906.59375-.10938.58203-.17969.55469-.24609.5-.30078.42969-.17188.17969-.18359.15234-.19531.125-.21094.08984-.21875.0586-.22656.01953-.23047-.01953-.21875-.0586-.20703-.08984-.19922-.125-.1836-.15235-.17187-.17968-.30078-.42969-.24219-.5-.17969-.55469-.11328-.58203-.03906-.59375h.83594l.02734.5625.08203.5039.125.44532.16407.375.1914.30078.21094.21875.22266.13672.22656.04688.22656-.04688.22266-.13672.21094-.21875.1875-.30078.16406-.375.125-.44531.08203-.5039.03125-.5625-.03125-.5625-.08203-.5-.125-.4336-.16406-.36719-.1875-.29297-.21094-.21484-.22266-.1289-.22656-.04688-.22656.04687-.22266.1289-.21094.21485-.1914.29297-.16407.36719-.125.4336-.08203.5-.02734.5625h-.83594l.03906-.59376.11329-.57812.17968-.54688.24219-.49219.30078-.41796.17188-.17579.18359-.15234.19922-.1211.20703-.08984.21875-.05469.23047-.01953m5.08984 0h.50781v6.29688h-.78515v-4.49219h-1.38672v-.55469l.5586-.0625.25-.05468.23046-.08985.20313-.14062.17578-.21094.14062-.29297.10547-.39844m2.82422 2.17579h.78516l.01953-.31641.0625-.28516.09765-.2539.14063-.21485.17969-.17187.22265-.1289.26563-.08204.3086-.02734.23827.02343.22266.0625.20703.10157.17578.13671.14844.17188.11328.20703.07422.23438.02344.26562-.01953.26953-.06641.22266-.10938.19531-.15625.16797-.20312.16406-.2461.16406-.6328.39063-.53907.3125-.4375.3164-.34375.32423-.26562.33593-.19141.35156-.125.3711-.0664.39062-.02344.42188h4.21484v-.74219h-3.33203l.08203-.28515.11328-.23438.14844-.20313.1875-.17968.23047-.17188.27734-.17578.71875-.41406.41406-.20703.34766-.23047.27734-.25.22266-.26953.16016-.27735.11328-.28515.0625-.28516.01953-.28125-.03906-.38281-.1211-.34766-.1875-.3086-.2539-.26171-.30079-.21094-.34375-.16015-.3828-.09766-.40626-.03516-.4336.03516-.39843.09766-.35547.16796-.30469.23438-.25.30078-.18359.375-.11719.44531-.03906.51954"/><path fill="#ffffe0" fill-rule="evenodd" d="M190.83984 347.92969h22.1797v-10.1914h-22.1797v10.1914"/><path fill-rule="evenodd" d="M194.33984 339.57031h.50782v6.29688h-.78516V341.375h-1.39063v-.55469l.5625-.0664.25-.05079.23047-.08984.20313-.14062.17578-.21094.14063-.29688.10546-.39453m4.8125 0l.23047.01953.21875.0547.20703.08983.19532.1211.1875.14844.16797.17578.30468.42187.24219.49219.17969.54688.11328.57812.03516.59375-.03516.58984-.11328.58594-.17969.55469-.24219.5-.30469.42969-.16796.17968-.1875.15235-.19532.125-.20703.08984-.21875.0586-.23047.01953-.23047-.01954-.21875-.05859-.20703-.08984-.1953-.125-.1836-.15235-.17188-.17968-.30078-.4297-.2461-.5-.17968-.55468-.10938-.58594-.03906-.58984h.83203l.03125.5625.08203.5039.125.44532.16016.3711.1914.30077.21095.22266.22265.13672.22656.04687.22657-.04687.22265-.13672.21094-.22266.1914-.30078.16016-.3711.1289-.4453.08204-.50391.02734-.5625-.02734-.5625-.08203-.5-.1289-.4375-.16016-.36328-.19141-.29297-.21094-.21484-.22265-.13282-.22657-.04296-.22656.04296-.22266.13282-.21093.21484-.1914.29297-.16017.36328-.125.4375-.08203.5-.03125.5625h-.83203l.03906-.59375.10938-.57813.17969-.54687.2461-.49219.30077-.42187.17188-.17578.1836-.14844.1953-.1211.20703-.08984.21875-.05469.23047-.01953m5.09375 0h.50782v6.29688h-.78907V341.375h-1.38672v-.55469l.5586-.0664.2539-.05079.23047-.08984.20313-.14062.17187-.21094.14063-.29688.10937-.39453m2.82032 2.17578h.78906l.01953-.3164.0586-.28516.09765-.2539.14063-.21485.18359-.17578.22266-.1289.26562-.07813.3086-.02735.23437.01954.22656.0625.20313.10156.17968.14062.14844.17188.11328.20703.07031.23438.02735.26562-.02344.26953-.0664.22266-.10938.1914-.15625.17188-.19922.16406-.2461.16406-.63671.39063-.53516.3125-.4375.3164-.34765.32422-.26563.33594-.1875.35156-.125.3711-.07031.39062-.01953.42188h4.21094v-.74219h-3.33204l.08203-.28516.11329-.23437.14843-.20313.1875-.17968.23047-.17188.28125-.17578.71485-.41797.41406-.20312.34766-.23047.28125-.2539.21875-.26563.16406-.27735.10937-.28515.0664-.28516.01954-.28125-.04297-.38281-.1211-.34766-.1875-.3086-.25-.26171-.30468-.21485-.34375-.15625-.3789-.09765-.40626-.03516-.4375.03516-.39843.09765-.35547.16407-.30469.23437-.2461.30469-.1875.375-.11327.44531-.04297.51953"/><path fill="#ffffe0" fill-rule="evenodd" d="M186.40234 453.84375h22.1797v-10.1914h-22.1797v10.1914"/><path fill-rule="evenodd" d="M189.90234 445.48438h.50782v6.29296h-.78516v-4.48828h-1.39063v-.55469l.5586-.0664.2539-.05078.23047-.08985.20313-.14453.17187-.20703.14453-.29687.10547-.39454m4.8125 0l.23047.01954.21875.05468.20703.08985.19532.1211.18359.14843.17188.17578.30468.42188.24219.49218.17969.54688.10937.57812.03906.58985-.03906.59375-.10937.58593-.17969.5547-.24219.5-.30469.42968-.17187.17969-.1836.15234-.1953.125-.20704.08984-.21875.0586-.23047.01953-.23047-.01953-.21875-.0586-.20703-.08984-.1953-.125-.1875-.15234-.16798-.1797-.30469-.42968-.24218-.5-.17969-.55469-.10938-.58593-.03906-.59375h.83203l.02735.5664.08203.5039.1289.44142.16016.375.1914.30078.21095.22265.22265.13672.22656.04688.22657-.04688.22265-.13672.21094-.22265.1914-.30079.16016-.375.1289-.4414.07813-.5039.03125-.56641-.03125-.5586-.07812-.5-.1289-.4375-.16016-.36328-.19141-.29297-.21094-.21484-.22265-.13281-.22657-.04297-.22656.04297-.22266.1328-.21093.21485-.1914.29297-.16017.36328-.1289.4375-.08203.5-.02735.5586h-.83203l.03906-.58985.10938-.57812.17969-.54688.24219-.49219.30468-.42187.16797-.17578.1875-.14844.19531-.1211.20703-.08984.21875-.05468.23047-.01954m5.08985 0h.51172v6.29297h-.78907v-4.48828h-1.38672v-.55469l.5586-.0664.2539-.05078.22657-.08985.20312-.14453.17578-.20703.14063-.29687.10547-.39454m2.82422 2.17579h.78906l.01953-.31641.0586-.28516.09765-.2539.14063-.21485.17968-.17578.22656-.1289.26172-.07813.3086-.02734.23828.01953.22266.0625.20703.10156.17968.14063.14844.17187.11328.20703.07031.23438.02344.26562-.01953.26953-.0664.22266-.10938.1914-.15625.17188-.19922.16406-.25.16407-.63281.39062-.53516.3125-.4375.3164-.34765.32423-.26563.33593-.1875.35157-.125.37109-.07031.39063-.01953.41796h4.21094v-.73828h-3.33204l.08203-.28515.11329-.23438.14843-.20312.1875-.1797.23047-.17187.27735-.17578.71875-.41797.41406-.20312.34766-.23047.28125-.2539.21875-.26563.16406-.27735.10937-.28515.0664-.28516.01954-.28125-.04297-.38281-.1211-.34766-.1875-.30859-.25-.26172-.30468-.21484-.34375-.15625-.38281-.09766-.40625-.03515-.4336.03125-.39843.10156-.35547.16406-.30469.23438-.2461.30468-.1875.375-.11718.44531-.03906.51954"/></g></defs><use xlink:href="#al"/></svg>