<svg xmlns="http://www.w3.org/2000/svg" role="img" xmlns:xlink="http://www.w3.org/1999/xlink" viewBox="142.45 309.95 326.84 171.84"><defs><clipPath id="a"><path d="M144 311.67188h1v168.65625h-1zm0 0"/></clipPath><clipPath id="b"><path d="M144 311.67188h324v168.65625H144zm0 0"/></clipPath><clipPath id="c"><path d="M467 311.67188h1V476h-1zm0 0"/></clipPath><clipPath id="d"><path d="M144 480h4v.32813h-4zm0 0"/></clipPath><clipPath id="e"><path d="M146 480h2v.32813h-2zm0 0"/></clipPath><clipPath id="f"><path d="M153 479h9v1.32813h-9zm0 0"/></clipPath><clipPath id="g"><path d="M159 480h2v.32813h-2zm0 0"/></clipPath><clipPath id="h"><path d="M166 479h9v1.32813h-9zm0 0"/></clipPath><clipPath id="i"><path d="M172 480h2v.32813h-2zm0 0"/></clipPath><clipPath id="j"><path d="M180 479h8v1.32813h-8zm0 0"/></clipPath><clipPath id="k"><path d="M186 480h1v.32813h-1zm0 0"/></clipPath><clipPath id="l"><path d="M193 479h8v1.32813h-8zm0 0"/></clipPath><clipPath id="m"><path d="M200 480h2v.32813h-2zm0 0"/></clipPath><clipPath id="n"><path d="M206 479h9v1.32813h-9zm0 0"/></clipPath><clipPath id="o"><path d="M213 480h3v.32813h-3zm0 0"/></clipPath><clipPath id="p"><path d="M220 480h8v.32813h-8zm0 0"/></clipPath><clipPath id="q"><path d="M227 480h2v.32813h-2zm0 0"/></clipPath><clipPath id="r"><path d="M233 479h8v1.32813h-8zm0 0"/></clipPath><clipPath id="s"><path d="M240 479h3v1.32813h-3zm0 0"/></clipPath><clipPath id="t"><path d="M246 478h9v2.32813h-9zm0 0"/></clipPath><clipPath id="u"><path d="M252 479h3v1.32813h-3zm0 0"/></clipPath><clipPath id="v"><path d="M260 478h8v2.32813h-8zm0 0"/></clipPath><clipPath id="w"><path d="M265 478h3v2.32813h-3zm0 0"/></clipPath><clipPath id="x"><path d="M273 478h8v2.32813h-8zm0 0"/></clipPath><clipPath id="y"><path d="M279 479h2v1.32813h-2zm0 0"/></clipPath><clipPath id="z"><path d="M286 479h9v1.32813h-9zm0 0"/></clipPath><clipPath id="A"><path d="M292 479h2v1.32813h-2zm0 0"/></clipPath><clipPath id="B"><path d="M300 479h8v1.32813h-8zm0 0"/></clipPath><clipPath id="C"><path d="M306 479h2v1.32813h-2zm0 0"/></clipPath><clipPath id="D"><path d="M313 479h8v1.32813h-8zm0 0"/></clipPath><clipPath id="E"><path d="M319 479h2v1.32813h-2zm0 0"/></clipPath><clipPath id="F"><path d="M327 478h7v2.32813h-7zm0 0"/></clipPath><clipPath id="G"><path d="M332 478h2v2.32813h-2zm0 0"/></clipPath><clipPath id="H"><path d="M342 479h3v1.32813h-3zm0 0"/></clipPath><clipPath id="I"><path d="M353 479h8v1.32813h-8zm0 0"/></clipPath><clipPath id="J"><path d="M366 479h9v1.32813h-9zm0 0"/></clipPath><clipPath id="K"><path d="M367 478h2v2.32813h-2zm0 0"/></clipPath><clipPath id="L"><path d="M380 479h8v1.32813h-8zm0 0"/></clipPath><clipPath id="M"><path d="M393 478h8v2.32813h-8zm0 0"/></clipPath><clipPath id="N"><path d="M406 479h8v1.32813h-8zm0 0"/></clipPath><clipPath id="O"><path d="M420 478h8v2.32813h-8zm0 0"/></clipPath><clipPath id="P"><path d="M434 477h6v3.32813h-6zm0 0"/></clipPath><clipPath id="Q"><path d="M447 477h7v3.32813h-7zm0 0"/></clipPath><clipPath id="R"><path d="M460 477h7v3.32813h-7zm0 0"/></clipPath><clipPath id="S"><path d="M144 466h4v2h-4zm0 0"/></clipPath><clipPath id="T"><path d="M144 453h4v2h-4zm0 0"/></clipPath><clipPath id="U"><path d="M144 439h4v3h-4zm0 0"/></clipPath><clipPath id="V"><path d="M465 437h3v2h-3zm0 0"/></clipPath><clipPath id="W"><path d="M144 424h3v6h-3zm0 0"/></clipPath><clipPath id="X"><path d="M465 424h3v2h-3zm0 0"/></clipPath><clipPath id="Y"><path d="M144 410h3v7h-3zm0 0"/></clipPath><clipPath id="Z"><path d="M465 410h3v2h-3zm0 0"/></clipPath><clipPath id="aa"><path d="M144 398h4v5h-4zm0 0"/></clipPath><clipPath id="ab"><path d="M465 397h3v3h-3zm0 0"/></clipPath><clipPath id="ac"><path d="M144 384h3v6h-3zm0 0"/></clipPath><clipPath id="ad"><path d="M144 370h2v8h-2zm0 0"/></clipPath><clipPath id="ae"><path d="M144 357h3v7h-3zm0 0"/></clipPath><clipPath id="af"><path d="M144 345h4v5h-4zm0 0"/></clipPath><clipPath id="ag"><path d="M144 331h3v6h-3zm0 0"/></clipPath><clipPath id="ah"><path d="M144 316h1v9h-1zm0 0"/></clipPath><clipPath id="ai"><path d="M144 315h2v3h-2zm0 0"/></clipPath><clipPath id="aj"><path d="M465 317h3v3h-3zm0 0"/></clipPath><g id="ak" clip-path="url(#clip1)"><path fill="#fff" fill-opacity="0" fill-rule="evenodd" d="M0 0h1000v1000H0zm0 0"/><path fill="#d3d3d3" fill-opacity="0" fill-rule="evenodd" d="M162.15234 355.86719l-.23437.29297.0586.23437.11718.17188.17578.23437.29297.34766.11328.0586.11719-.17188.0586-.23438.17577-.17578.46485-.17578h.69922l.23437.29297.28906.8164.0586.17579.17578.23046.35156.23438.69922.69922.17188.17578.23437.34765.23438.41016.28906.58203.41015.46485.23047.23437.23438.17578.11719.23047.17578.29297.17187 1.16406v.23438l.0586.28906.05859.11719.11719.11719.34765.41015.11719.17188.17578.17578.17578.23437.11719.17188.17188.35156.05859.23438.23437.40625.23438-.0586-.17578.17578-.0586.92969h-.58203l-.23437-.11328-.34766.11328-.11719.11719-.05859.29297-.0586.17578-.11718.17187-.46484.29297-.0586.23438-.0586.11328v.64453l.0586.17187v.41016l.0586.0586v.40624l.05859.40625.11719.17579.05859.05859.23047.64062-.0586.29297v.69922l-.05859.58203v.23438l-.0586.23047-.05468.35156v1.92187l.05469.1172h.42578l-.36719.11718-.02344.35156.89063 1.16797 1.74219.53906 1.33984.35938v.53906l.08984.8086.53516.71484 1.51953.26953.89063-.08594.08984 1.16406.53516.1797 1.16015-.1797 2.05469-.98437 1.16016-.36328 1.8789-.17578 1.69531-.1797-.17968.71876-1.51563.08594-1.25.08984-.80469.26953-1.07421.8086.26953.71875.53515.89843-.17968.625-.26563.8086.26563 1.07812.625.89844.80468.17969 1.25-.1797-.26562.72267.09766.5039.05468.29297v.17188l.0586.29296v.40625l.17578.1172.35156.11718h.40625l.29297-.17578.11328-.11719.0586-.11719.11718-.23047.0586-.17578.35156-.46484.23047-.17578.17578-.0586.17578.0586.0586.17578.11718.98828.05469.46875.0586.17188.11718.23437.17578.0586.8164.05859h.28907l.11719.23437.05859.40625.0586.35156v1.10547l.11718.29297.11719.34766.28906.69922.17578.35156.58203.7539.35157.17579.17187.0586.46875.23437.64063.46484.34765.23438.29297.17578.29297.05468.23047.0625.8164.34766.29297.17578.11328.17188.35157.35156.11719.17578.52343.64063v.28906l.0586.35156v.34766l.05859.35156.0586.28906.11718.0586.17188.05859h.17578l.58203.23437.17578.1172.17578.28905.17578.23438.11328.23437.29297.23047.11719.11719v.41016l.0586.05468.28906.23438.23437.11719.0586.11718.11718.17188.0586.11719.23047.23437.05859.17578.23437.0586.1172.05859-.1172.11328-.05859.11719v.11719l-.11719.29296-.11719.28907v.58203l.17579.11719.11718.05859.0586.11719.11719.11719.11328.05859.17578.34765.0586.35157.05858.40625v.17578l-.05859.17578-.11719.69922v.17187l.1172.17579.29296.29296h.40625l.17578.1172.11719.17187.11719.29296v.23438h-.52735l-.23047-.23438h-.23437l-.17578.0586-.0586.69922.0586.34765.11719.17579.17578.41015.11718.23047.28907.46875.17578.05469h.52344l.23437.0586.75781.64062.0586.29296v.23438l.05859.0586.23047.34765v.35156l-.11719.17188v.29297l.29297.28906.29297.17578.17187.0586.29297.17577.29297.1172.58203.40624.28906.23438.29297.17578.21875.16015.01563.01172.23047.17579.64062.52343.17578.23438.1172.17578.17577.17578.11328.17188v.64062l.1172.17578.46874.11719.58203.11719.23438.05859.23047.11328.29297.11719.11328.0586.58593.35156.28907.17187.17578.0625.17578.05469.17578.0586.69922.35155.28906.17579.23438.05468.28906.17578.23437.1172.64063.40624.29297.11719.17187.0586.23438.05859.41015.05859.23047.0586.23438.11718.0586.17188-.41017.17578.46875.0586.0586.29296.11328.23438.17578.05468.23438.0586.17578.05859.40625.11719.64062.23437.11719.17188.0586.23437v.17578l-.0586.1172-.0586.40624.23438.23438.11719.05859.34766.11719.64062.23047.17578.11718.28906.1172.17578.17577.23438.46485.58203 1.10546.17578.17579.34766.17578.17578.11719.35156.11718 1.04688.52344.23437.0586.46485.11327.29297.0586.46484.17578.75781.58203.23438.23438.34765.46484.17578.17578.28907.23438.8164.69921.29297.17579.28906.28906.29297.17578.29297.28906.69531.64063.17578.17578.29297.23437.28907.23438.46875.28906.64062.58203.34766.23438.23437.29297.34766.34765.35156.46485.9336.99218.34765.40625.11719.17579.23437.05859.11328.11719.64454.17578.23047.11328.23437.0586.29297.17577.23047.1172.9336.69921.40624.40625.23438.17578.40625.17578.23437.11719.8164.34766.34766.23437.23438.11719.29297.28906.23047.11719.7578.35156.35157.17188.23047.05859.29297.11719.23437.0586.8711.17577h.8164l.46875.23047.17188.0586.875.69921.46484.1172.29297.05858.17578.0586.23047.0586.46875.05859.34766.05859.35156.0586.40625.05859h.29297l.17187.0586v.23046l.17578.17578h.29297l.34766.0586.35156.05859.69922.11719h.64063l.46484-.23438.29297-.17578.17187-.11719.41016-.17187.28906-.17578.9336-.46485.46875-.29297.52343-.29296.46485-.17188.46484-.17578 1.05078-.46485.28906-.11718.41016-.11719.28906-.11719.52735-.17578 1.51562-.69922.58203-.34765.28907-.0586.29297-.0586.34765-.11718.875-.23047.35156-.11719h.11329l.23437-.05859.875-.23437.23438-.0586h.8125l.35156-.0586.8164-.11718.17188-.0586.35156-.05468.29297-.0586.23047-.05859.8164-.17578.17579-.0586h.34765l.23438-.05859.46484-.11718.75781-.17188.23438-.0586h.34765l.41016-.11718.28906-.0586 1.28516-.05859h.28906l.41016-.0586.23047-.05858h.17578l.875-.1172h.40625l.41015-.11718h.34766l.35156-.11328.8711-.0586h1.75l1.04687.28907.41016.11719.28906.11718.35156.11719.28907.11719 1.05078.17187.28906.0586h.29297l.29297.05859.17187.0586.41016.05859.17187.0586.1172.05858h.11718l.11719.0586.35156.0586h.11328l.41016.0664 1.92187.39453 1.92578.39453 1.51953.44922 1.69532.71875 2.14453.80469 1.60547-.71875 1.42968-.80469 1.16016-1.07813 1.25-.44921 3.03516-.71875 1.875-.35938 2.14453-1.34765 2.23437-1.25391 2.5-1.25781 1.69531-.44922 1.78516-.17969 1.16016-.26953.625.53906 1.33984-.26953.71485-.98828.98437-1.34375.44531-.17969.80469-.35937 1.875-.53907 1.78516-.44921 1.25-.26954 1.16015-.08984 1.69922-.08984 1.96094-.26954 1.25-.08984h.53906l.625-.08984h.89063l2.14453-.17969 2.41015-.17969 2.58985-.08984 1.69531.17969 1.60938.08984 1.42968.35938 1.16016.71875 1.875.98828 1.16015 1.52734.26563.71484.6289.08985.35548.89844.53515.53906.53516 1.52734 1.07422.35938h.53515l-.80469.53515.08985 1.70703.71484 2.69532.89063.80468.89453.98829.71484 1.2578 1.78516.53907 1.51953-.17969.35547 1.34375 1.60937-.80469.98047-.53906.26953.26953.31641-.21484.21875-.14453.80078.44922.44922-.35938h.35547l.53515-.26953.53907-.71875.53515-.26953.625-.98828 1.16016.44922.83984.3711 1.39454.61718 1.6953-.17969h1.60548l1.78515.08985.17969-1.70704.53516-1.34375.80468.26954.4922.84765.40233.40625-.08984.53906v.35938l.71485.44922.71093-.26953h1.42969l.35938.98828.4453 1.25781.71485 1.34375 1.25.6289 1.69531.62891.71485-.17969.17969-.53906.98046-.08984.44922.35937.08594 1.25782-.26563.6289-.53515.17969v.53906l.71484.98438.26563.53906.98437.98828.80078 1.07813-.26562.35937-.08985.89844-.625 2.33203-.35546 2.0664-.08985 1.79298-.17969.71875-.08984.53906v1.4375l-.98047 1.88281-.35937 1.70703-.53516.89844-.80469 1.16797-.26562.53906 2.05469 1.2539.08593.35938-.35546.53906-.08985-.17968v.80859l.08985 1.4375-.44532.71484-1.07422.09375-.26562.71485.53515.89844.8047.71875 1.16015.80859 1.33984.26953.44531.35938-.35546.44921-1.78907-.08984-1.25-.44922-.71484-.71875-.625-.08984-.17578 3.58984-.1875 1.3086h89.35937V311.70313h-55.26953v49.08203l.76172.125 3.28906.54296 2.02344 2.83594v2.7539l2.35156.33204 2.34766.33203h4.05078l-1.3789 4.16016-2.02344.70703-2.02344.70312-.54297.34375-2.59375 1.6172-.1875.11718-2.02344-2.07813-.73046-2.74218-2.67188-2.07813-1.375-3.5-.0664-.08203-1.95704-2.67188 2.75-1.41796v-49.08204H294.42187v91.41407l.1172.03125.1328.01172.07422.07421.10547.04688.08985.0586.08593.05859.08985.0586.29687.29687.0586.08984.03125.11719.02734.11719.01563.13671-.03125.1172-.0586.08983-.0586.08594-.04296.10547-.04688.10156-.02734.1211v.14453l.17578.26953.14844.14844.07422.08594.07422.07421.04296.10547.0625.08985.0586.08593.04297.10547.0586.08985.04687.10156.04296.10547.0586.08594.11719.17968.07421.07422.0625.08594.0586.08984.04297.10547.0586.08985.05858.08593.0625.08985.0586.08984.04297.10156.11719.17969.07421.07422.0586.08594.07422.07421.08984.0586.10547.04687h.14844l.1328-.01562.13282.01562.10156-.04687.07422-.07422.04688-.10156-.01563-.13281v-.14844l-.04687-.10547-.02735-.11719-.04687-.10156-.02735-.1211-.04296-.10156-.0625-.08984-.04297-.10156-.04297-.10547-.03125-.11719-.01563-.13281-.01171-.13672.08593-.0586.0586-.08593.12109-.03125.04297.10547.01562.1328v.1172l.0586.10156.0586.08984.08983.0586.14844.14843.0586.08985.04296.10547-.01171.10156.08593.0586.10547.04687.08594.0586.08984.05858.07422.07422-.11719.02735-.10546.04687-.08594.0586-.07422.07421-.0586.08985-.0625.08594-.02734.12109-.04687.10156-.04297.10547-.03125.11719-.01172.13281-.01563.13281v.14844l.02735.11719.04687.10547.04297.10156.0586.08984.07421.07422.08985.0586.07422.07421.08984.0586.0586.08984.04296.10547.04688.10156.11719.03125.1328.01563h.14845l.11718-.03125.10547.04297.04297.10547.04688.10156.02734.1211L299.5 410l.02734.11719.03125.1211.02735.11718.10547.04297.10156.04687.13281-.01562.14844.14844.0625.08593.07422.07422.07031.07422.08984.0625.10547.04297.10156.04297.1172.03125.13671.01562.11719-.03125.07422-.07422.02734-.11718-.01172-.13282-.03125-.12109-.02734-.11719.04297-.10547h.11719l.08984.0625.11719.02735h.14843l.13282.01562h.14843l.13282.01563.1328-.01563h.14845l.1328-.01562.13282-.01172.13672.01172.11719-.02735.13281-.01562.1914-.0586-.05859.17579-.01562.1328-.02735.1211-.01562.13281-.0586.08594-.1328.01563-.10548.04687-.10546.04297-.1172.03125-.11718.02735-.26563.03125h-.14843l-.13281.01562-.07422.07422.05859.08594.14844.14843.11719.1797.07421.0703.08985.0625.08984.0586.08594.0586.08984.05858.10156.04297.10547.0625.10547.04297.08594.0586.10547.04687.10156.04297.17969.11719.0586.08984-.04298.10156-.04687.10547.01562.13281.22266.22266.0586.08985.04296.10156.03125.1211.04297.10155.01563.13282.03125.11718.01171.13672.03125.11719.14844.14844.10156.04297.10547.04296.1172.03125.1328.01563.13672.01563h.11719l.11719-.03125.08984-.0586.04297-.10547.04688-.10156.04296-.10547.03125-.11719.01172-.1328v-.14845l-.01172-.1328-.01562-.13282-.03125-.11719-.04297-.10547-.04688-.10547-.04296-.10156-.04297-.10547-.01563-.13281.01563-.13281.02734-.11719.03125-.11719.02735-.1211.04687-.10155.08984-.0586.08594-.0625.07422-.07422.08984-.05859.22266-.22266.0586-.08593.07421-.07422.11719-.17969.0586-.08594v-.14844l-.07423-.07421-.10156-.04688-.10547-.04297-.10156-.04297-.0586-.08984-.04687-.10547-.02734-.11719.08984-.05859.11719-.03125.10156-.04297.17969-.11719.14844-.14843.01172-.13282-.01172-.10546-.08985-.0586-.1328.01563h-.14845l-.1328.01562-.13282-.01562-.1211-.03125-.08593-.0586-.07422-.07422-.0586-.08984-.0625-.08594-.11718-.17969-.0586-.08593.03125-.1211.08594-.05859.1211-.03125.05859-.08594v-.1211l-.03125-.11718-.0586-.08984-.05859-.08594-.04687-.10547-.02735-.11719-.01562-.1328.0586-.08985.07421-.07422.08984-.0586.1172-.17968.07421-.07422.0586-.08594.14843-.14844.1211-.03125.1328-.01562.13282.01562.07422.07422.04297.10547.01562.13281-.03125.1172-.11719.03124-.1328.01172-.14844.14844-.04297.10547-.04688.10156-.02734.1211-.03125.11718v.14844l.03125.11719.04297.10546.05859.08985.07422.07031.07422.07422.11719.03125.12109.02734.11719-.02734.1328-.01563h.1172l.08984.0586.07422.07422.04687.10546.0586.08594.10156.04688.13281.01562.10547.04297.08594.0586-.01172.10546-.07422.07422-.17969.11719-.05859.08984-.08984.0586-.07032.07422-.07421.07421-.0625.08985-.02735.11719-.01562.1328.01562.13282-.01562.13281v.14844l.01562.13281.02735.1172.03125.12108.07421.07422.08985.0586.08594.0586.08984.05858.11719.03125v.08594l-.10157.04688-.08984.0586-.26563.03124-.11718.02735h-.14844l-.10547.04296-.10156.04688-.0586.08984-.0625.23438-.01171.13281-.03125.1211-.01563.1328v.29298l-.01172.1328.01172.13673.01563.1328.1328.01563.13282.01172.1211.03125.08593.0586.07422.07421.04688.10547.04296.10157.01563.1328v.44532l-.01563.13281v.44532l.03125.26562.02735.11719.01562.13281.03125.11719.08594.21094.03125.26562v.14844l-.03125.11719-.02734.11718-.03125.1211-.02735.11719-.03125.11718-.03125.1211-.01171.1328-.01563.13282.08984.0586.1172-.03125.10155.01562.04688.10547-.03125.26562v.44141l-.04297.10547-.04688.10547-.04296.10156-.04297.10547-.0586.08594-.03125.12109-.04296.11719-.03125.11719-.01563.1328.01563.13282.05859.08984.10547.04688.08594.0586.05859.08593-.01172.13672-.03125.11719-.04297.10156v.44531l-.01562.13281v.14844l-.03125.11719-.04297.10547-.02735.11719-.04687.10546-.04297.10157-.03125.12109-.02734.11719-.03125.13281-.03125.11719-.02735.11719-.04297.10546-.03125.1172-.03125.12108-.01171.13282-.01563.13281v.29688l.02734.11718v.14844l.04688.39844.02734.11719.0586.08984.12109.03125h.14844l.13281-.01563.0586.08985v.11719l-.0586.08984-.08984.0586-.10157.04296-.10546.04688-.08985.05859-.08594.0586-.13671.01562-.1172-.03125-.1328-.01563-.10157.04688-.0625.08594-.01172.13671-.01562.13282-.03125.11719-.02735.11718-.01562.13281-.03125.1211v.29687l.01563.13282.03125.11718v.14844l.01171.13281v.14844l-.02734.11719-.04688.10156-.02734.1211-.03125.11718-.0586.08985-.07421.07421-.10156.04297-.10547.04688-.11719.02734-.1211.03125-.10156-.04687.0586-.08594.10547-.04688.02734-.11718.03125-.11719.02734-.1211.03125-.11718v-.14844l.01563-.13281-.03125-.11719-.04297-.10547-.10547.01563-.07422.07422-.10156.04296-.08984.0625-.07422.07422-.04297.10157-.01563.1328-.03125.1172L304.25 426l-.03125.11719-.02734.11719-.03125.12109-.02735.11719-.03125.11718-.04297.10547-.08984.0586h-.08984l-.1172-.03125-.03124-.08594.01562-.13672-.03125-.11719v-.14844l-.01171-.1328v-.14844l-.0625-.23438-.02735-.1211-.04297-.10156-.04687-.10546-.0586-.08594-.05859-.08985-.04297-.10546-.0625-.08594-.14844-.14844-.0703-.07422-.10548-.04687-.10547-.04297-.10156-.04297-.29687-.29688-.08985-.07421-.08594-.0586-.10546-.04297-.08985-.0625-.08594-.0586-.10546-.04296-.08985-.0586-.08594-.0625-.07421-.0703-.10547-.04688-.08594-.0586-.10547-.04296-.08984-.0625-.10156-.04297-.10547-.04297-.08594-.0586-.10547-.04687-.10547-.04297-.10156-.04687-.08985-.0586-.10156-.04297-.10547-.04296-.08984-.0625-.11719-.02735-.13281-.01562-.13281.01562H299.75l-.13281.01563-.11719-.03125-.08984-.0586-.07422-.07422-.08985-.05859-.10156-.04688h-.14844l-.12109-.02734-.10156-.04297-.07422-.07422-.11719-.17968-.08984-.0586-.10156-.04297-.08985-.0625-.10547-.04296-.08984-.0586-.08594-.0586-.10547-.04687-.0586-.08594-.05858-.08984-.04297-.10547-.04688-.10156-.07422-.07422-.08594-.0586-.07421-.07421-.08985-.0586-.22265-.22265-.04297-.10547-.03125-.26563.10547-.04296h.14453l.10547.04296.07421.07422.08985.0586.08594.0586.10546.04687.08985.05859.14844.14844.0703.07422.14845.14843.0625.08594.07421.07422.08594.0586.07422.07421.08985.0625.08984.0586.08594.05859.26953.17578.10156.04688.10547.04296.10156.04297.04688-.07421.05859-.08594.07422-.07422.07031-.07422.10547.04297.07422.07422.0586.08984.04296.10156.04688.10547.04296.10547.1211.02735.11719-.02735.07421-.08984.04297-.10547.0586-.08985.07422-.07421.10546-.04297.1172-.02735.1328.01172.08985.0586.14844.14843.05859.08985.04297.10547.04687.10156.04297.10547.04297.10156.10547.04688.10547.04296.13281.01563.08594-.0586.0586-.08984.07421-.07422.10547-.04297.11719.02735.10547.04687.10156.04297.10547.04297.10156.04688.17969.11718v.11719l-.01563.13281.01563.13281.01562.13672.0586.08594.10156.04688.1211.02734.11718.03125h.14844l.11719-.03125.05859-.08984.17969-.1172.05859-.08983.07422-.07422.0586-.08594.11718-.17969.17969-.11719.11719.03125.08984.0586.04297.07422-.01563.1328v.1172l.08985.05859h.14843l.13282-.01563.1328-.01171.26563-.03125.10547-.04297.11719-.03125.1211-.02735.07421-.07421.07031-.07422.0625-.08985-.01562-.10547-.04688-.10156-.10156-.04297-.10547-.01562-.11718.02734-.26563.03125h-.14844l-.07421-.07422-.08985-.0586-.11719-.03124-.11718-.02735-.13282-.01562h-.14843l-.13282.01563h-.29687l-.10547-.04688-.14844-.14844-.04297-.10156-.05859-.08984.22266-.22266.08593-.0586.10547-.04296.11719-.03125.13281-.01563.13281.01563.13672.01562.10157.04297.1328-.01172.08985-.0625.10156-.04297.0625-.08984-.04687-.10156-.08984-.0586-.1172-.03125-.10155-.04296-.0586-.08985-.0625-.08984v-.11719l.01563-.13281.10547-.04688.07421-.07031v-.1211l-.08984-.05859-.03125-.11719.08985-.05859.07421-.07422.04297-.10547.0586-.08984.04687-.10156.01563-.13281v-.14844l-.04688-.10547-.04297-.10156-.08984-.0586-.13281-.01562-.10157-.04297-.13671-.01563-.1172-.03125h-.4453l-.13282-.01562-.13281-.01172-.13281-.01563-.11719-.03125h-.14844l-.13281-.01562-.13281-.01172-.26563-.03125-.1211-.04297-.08593-.0586-.07422-.07421v-.14844l.01172-.13281.10547-.04688.10156-.04296.13281-.01563h.15235l.13281-.01562h.29297l.1211.03125.10156.04296.08984.0586.23438.0625.12109-.04688.08984-.05859.10156-.04297.13282-.01562.10547.04296.10156.04688.13281.01172.1211-.02735h.14453l.12109-.03125.11719-.02734.10547-.04687.07421-.07422.08594-.0586.14844-.14843.0586-.08594.04687-.10547.02734-.11719.01563-.10547-.10156-.04296-.08985-.0586-.11719-.03125-.10546-.04297-.08985-.0625-.07422-.08594-.07422-.07421-.10156-.04297-.10547-.04688-.10156-.04297-.0586-.08984-.04687-.10156-.08594-.21094-.0625-.08594-.05859-.08984-.07422-.07422-.08594-.0586h-.26953l-.11719.03126-.08984.05859-.10156.04297-.13281.01562-.10547-.01562-.02735-.11719-.0625-.08984-.11718-.03125-.10157-.04297-.14843-.14844-.03125-.11719-.01563-.10546.07422-.07422.17969-.1172.11719-.02733.11718-.03125.13672.01562.10156.04297.10547.04297.10156.04687.10547.04297.1172.03125.1328.01563.1172.02734.1328.01563.10547-.01563.08985-.0586-.07422-.07421-.10547-.04297-.07422-.07422-.07422-.08984-.14844-.14844-.08593-.0586-.08985-.05859-.07422-.07422-.08984-.0586-.10156-.04687-.1211-.02734-.10156-.04688-.10547-.04296-.11719-.03125-.10156-.04297-.1211-.03125h-.14843l-.11719.03125-.10546.04297-.08594.0625-.17969.11718-.08594.0586-.08984.0586-.10547.04687-.08594.05859-.10547.04297-.10156.04297-.10547.04687-.07422.07422-.05859.08985-.0586.08593-.04687.10547-.0586.08594-.07421.07422-.13281-.01172-.1172-.03125h-.11718l-.07422.07422-.08984.0586-.07422.07421-.08984.0586-.08594.05859-.10547.04687-.10156.04297-.13672.01563-.10156-.04297-.14844-.14844-.10547-.04688h-.08594l-.10547.04688-.10156.04297-.1211.03125-.11718-.03125-.07422-.07422v-.11719l.03125-.1211.07422-.0703.0586-.08985.07421-.07422.11719-.03125.10547-.04296h.29297l.13281-.01563.13672-.01563.10156-.04296.08985-.0586.10156-.04687.08984-.0586.13281-.01171.08985.05859.13281.01172.08984-.0586.08594-.05859.10547-.04297.08984-.0586.08594-.0625.08985-.05859.14843-.14843.0586-.08594.05859-.08985.10547-.04296.13281-.01563.11719.02735.1211.03125.05859-.0586.05859-.08984.03125-.26563.02734-.11719.10547.01172.13281.01563.10157-.04297.08984-.0586.0586-.08984.07421-.07422.0586-.08984.04687-.10156.01172-.13281-.01172-.13282-.04687-.10547-.14844-.14843-.0586-.08985-.05859-.08594-.04297-.10546v-.44532l.01563-.1328v-.14845l.01172-.1328-.0586-.0586-.08984.0586-.10156-.04298-.17969-.11719-.08594-.05859-.0625-.08984-.0586-.08985-.07421-.07421-.08594-.0586-.1211.03125-.10155.01172-.10547.04688-.08594.05859-.10547.04297-.14844.14844-.08984.05859-.08594.0586-.08984.0625-.10547.04296-.13281.01563v-.1211l.10547-.04297.11718-.03125.07422-.0703.04297-.10548v-.14844l-.02734-.11718-.14844-.14844-.13281-.01563h-.14844l-.11719.03125-.10547.04297-.10156.04297-.08984.0625-.11719.02735-.07422-.07422.01172-.13281-.04297-.10157-.04297-.10547-.08984-.05859-.11719.02734-.1211.03125-.11718.03125-.10156.04297-.1211.03125-.10156.04297-.10547.04297-.08984.0586-.10156.01562v-.11719l.01562-.13281-.0586-.08985-.07421.04297-.14844.14844-.0586.08985-.07421.07421-.04688.10547-.04296.10156-.07422.07422-.0586.08985-.07422.07422-.05859.08593-.07422.07422-.08984.0625-.07422.07031-.07422.07422-.10156.01563-.13281.01562-.10547-.04296v-.1211l.14843-.14844.04297-.10156.0586-.08984.04687-.10156.04297-.10547.0586-.08985.03124-.11719.04297-.10156.03125-.1211.02735-.11718.04687-.10547.04297-.10156.04297-.10547.07422-.07031.08984-.0625.08985-.0586.10156-.04296h.29687l.26563-.03125.10547-.04297-.07422-.07422-.11719-.03125-.10547-.04297-.08984-.0586-.10156-.04687-.08985-.0586-.10156-.04296-.10547-.04297-.08984-.0625-.08594-.0586-.10547-.04296-.10156-.04297-.1211-.03125-.11718-.03125-.10157-.04297L297.5 410.25l-.10156-.04297-.08985-.0586-.04296-.10546-.01563-.13281.10156-.04297.13281-.01563.13672.01563.13282-.01563.10156-.04297.0586-.08984.01562-.10547-.08985-.0586-.07421-.07421-.10157-.04297-.08984-.0586-.14844-.14843-.04297-.10547-.01562-.13281v-.29297l-.0586-.08985-.08984-.05859-.07422-.07422-.04297-.10547-.03125-.11718-.0586-.08985-.07421-.07422-.11719-.02734-.07422-.07422-.08984-.0586-.08984-.0625-.08594-.05859-.07422-.07421-.0586-.08594-.04687-.10547-.08594-.0586-.14843-.14843-.19532-.0586-.1328.01563-.10157.04297-.07422.07422-.04688.10156-.04296.10547-.0586.08984-.0586.08594-.29687.29687-.08984.0586h-.08594l-.0625-.08594-.04297-.10547.03125-.11719.0586-.08984.02734-.11719-.01172-.13281-.08984-.0625-.10547.04688-.11719.02734-.11719.03125-.26953.17578-.10156.04688-.11719.02734-.10546.04687-.08985.0586-.10156.04297-.0586-.08594-.04687-.10547.01563-.13281.04687-.10547.07031-.07422.07422-.07031.0586-.08985v-.14843l-.04297-.10547h-.23829l-.10156.04687-.03125.11719-.02734.11719-.03125.1211-.07422.04296-.13281.01563-.07422-.04688-.04297-.10156-.04297-.10547-.04687-.10156-.04297-.10547-.1211.03125-.10156.04297-.13281.01562-.11719.03125-.10547.04297-.08984.0586-.10156.04687-.1211.02734-.13281.01563-.10156-.04297-.0586-.08985-.04687-.10546-.04297-.10157-.04297-.10546v-.1172l.0586-.08984.08593-.05859.17969-.11719.10156-.04687.10547-.04297.10547-.0586.10156-.04296.08985-.0625.10156-.04297.10547-.0586.10156-.04687.08984-.0586.10547-.04296.10156-.04297.08985-.0625.10156-.04297.13672-.01563.11719.03125.10156.04297.1211.03125.10156.04297.10546.04688.10157.04296.10547.04297.10156.04688.10547.04297.10156.04297.10547.04687.08594.0586.10546.04296.1172.03125.10546.04297.10156.04688.08985.0586.10547.04296.10156.04297.10547.04687.11719.02735.10156.04687.1211.02735h.14843l.08594-.0586.01562-.10156.0586-.08984-.02735-.1172-.07422-.07421-.11719-.17969-.07421-.07422-.08985-.07421-.17969-.1172-.08593-.05859-.10547-.04296-.10156-.04688-.26954-.17578-.05859-.08985-.07422-.07421-.0586-.08985-.04296-.10156-.03125-.11719-.01563-.13672v-.5625l-.01171-.1328-.01563-.13282-.03125-.11719-.01562-.13281-.01172-.13281-.03125-.1211-.22266-.22265-.0586-.08594-.01562-.10547.03125-.11719.13281-.01562v-91.41406H172.9922v1.45312l-.0586.23438-.35156 1.05078-.17187.52343-.1172.34766-.17577.41016-.11719.17187-.23438.29297-.23046.0586h-.35157l-.11718.05859-.23047.40625v.29297l.11719.17578.23046.23047.1172.23437.64062.75781.29297.46485.17578.23437.23047.35156.23437.34766.64063.8164.17578.46485.17187.41016.11719.69531.17578.46875.11719 1.39844.0586.46484v.875l.11718 1.04688v4.78125l-.0586.46484-.35156 1.28125-.17578.52344-.11328.41015-.35156.9297L172.93359 336l-.23437.58203-.11719.17578-.17187.34766-.17578.40625-.35157.8164-.0586.29297-.11327.29297-.11719.28906-.0586.17579-.11718.875-.0586.40625-.05859.11718-.0586.17579-.05859.17187-.23047.52734-.11718.17188v.23437l-.11719.23438-.0586.17187-.17577.58594v.28906l-.0586.17579v.29296l-.0586.11329-.05859.52734v.17187l-.05468.23438v2.6211l-.17578.8164-.1172.17578-.17577.23438-.1172.17187-.11327.23438-.58594.93359-.23047.28906-.29297.46485-.17578.23437-.28906.35156-.35156.69922-.11328.23047-.17579.41016-.17578.23046-.40625.52735-.8164.69922-.29297.17187-.28906.23438-.17579.11719-.17578.17578-.52344.40625-.52734.17578-.17187.17578-.23438.05469-.64062.17578h-.75782m12.21094 31.02344l-1.07422.44921.35938.89454 1.25-.71485.44531-.53906-.98047-.08985"/><path fill="#d3d3d3" fill-opacity="0" fill-rule="evenodd" d="M201.50781 416.59766h-.89453l.44922.6289.98047.35938.80469-.08985.4453-.98828-.17577.08985-.71485-.35547-.89453.35547m154.6211 59.0703l-.0586-.52343v-.29297l.11328-.29297.0586-.23046.46875-.46875h.11328l.11719-.11329.11718-.05859h.17579l.23437-.0586h.34766l.23437.0586.11719.0586.23047.17187.0586.17578.11718.58203v.29297l-.11719.17578-.17187.28906-.17579.17579-.52734.52343-.23047.23438-.11719.0586h-.17578l-.11718-.0586-.40625-.29297-.17579-.11719-.11718-.0586-.0586-.11327-.05468-.1172m6.64062-10.95702l-.0586-.17188v-1.10937l.0586-.17188.17578-.0586.17188-.05858h.17578l.23437-.0586.1172.0586.05858.69921-.05859.17188-.11719.17578-.11718.0586-.23438.52343-.11328.0586h-.23438l-.05859-.1172m9.61328-14.39062l-.11719-.17578v-.69922l.29297-.875.1172-.17187.17577-.35156.11328-.23047.1172-.29297.35155-.75781.1172-.23047.17187-.23438h.17578l.11719-.0586h.64062l.11719.0586.23437.23438.17188.11328.35156.29297.11719.11718.11328.17579v.11328l.11719.05859.11718.11719v.69922l-.05859.17578v.23047l-.0586.17578-.34765 1.05078-.11719.23047-.11719.23437-.11718.0586-.23047.23437-.64063.28906h-.875l-.41015-.11718-.64063-.46485"/><path fill="none" stroke="#bebebe" stroke-linecap="round" stroke-linejoin="round" stroke-miterlimit="10" stroke-width=".5" d="M467.95703 311.69531H144.02734v168.625h323.9297v-168.625"/><g clip-path="url(#a)"><path fill="#fff" fill-opacity="0" fill-rule="evenodd" d="M144 475.89063v4.4375h.0039H144V311.67188h.0039H144v164.21875"/></g><g clip-path="url(#b)"><path fill="#fff" fill-opacity="0" fill-rule="evenodd" d="M144.0039 480.32813V311.67188h84.32423v108.78125l-4.4375 1.23046-1.38282.94532 1.38281 2.01171 4.15625 2.4297-4.15625.64452-4.4375 2.09375-3.35937-2.73828-1.07813-1.65625-1.40625 1.65625-3.03515 2.64844-4.01953 1.78906-.41797.23438-3.21094 4.20312 1.89063 4.4375 1.3203 1.5664 1.46095 2.8711-1.46094 1.76172-4.4375 1.16797-4.4375.91797-4.4414-.59766-4.4375-.39062-4.4375-.10156-4.4375-1.54297-1.41016 3.22656-3.03125 3.1875-4.4375-1.05078-4.4375-.125-1.66407-2.01172 1.66407-2.15625L167.5 444.8203l3.1289-2.26172 4.4375-1.20312 4.44141 1.52344 1.33203-2.4961-1.33203-.57812-4.4414-1.64844-4.4375-2.02734-3.75 4.2539-.6875 1.3125-.5547-1.3125-3.8828-2.52344-2.40235 2.52344 1.1836 4.4375-.46094 4.4414-1.1211 4.4375.6875 4.4375 2.11329 3.98048 4.4375.27344 4.4375-.69141 4.4375-.11719 4.4414-3.10547 4.4375 1.00781 3.29688-1.34765 1.14062-.6914 4.4375-1 4.4414-2.1211 4.4375-.14453 2.04298-.48047 2.39453-.8164 4.4375-3.6211h.0039l2.73829-4.4414 1.69922-3.63673 1.64843 3.63672 2.78906 1.6875 1.50782-1.6875 1.76953-4.4375-.03516-4.4375 1.19531-.52344 1.14454.52344 3.29297 1.875 4.20703-1.875-3.91016-4.4375-.02734-4.4375 4.16797-2.63672 1.2539-1.80468-1.2539-1.34766-4.4375-.82813V311.67188h13.3164v125.54297l-4.4375.28907-2.96875 2.8789 2.96875 1.90625 4.4375 1.26172v9.86328l-.54687.28516.54687.33594.58984-.33594-.58984-.28516v-9.86328l4.4375-2.88281.21484-.28516-.21484-.23437-4.4375-2.9336V311.67188h31.0664v116.55078l-4.4375 1.6328-4.4375.23829-1.30468 1.41406-3.13281 1.09375-4.4414 1.30078-1.66017 2.04297 1.66016 1.75781 4.4414 1.59375 2.98829-3.35156 1.44922-3.46484 4.4375.64453 4.4375 1.15234v9.42188l-4.4375.96094-.4375.16015-4 2.60156-2.53125 1.83985.41015 4.4375 2.1211 1.9961 4.4375.30077 4.4375-.08203 4.4414-1.1836.71875-1.03124 3.71875-3.84766.41797-.58984.97266-4.4414-1.39063-.98048-4.41406.98047-.02344.28516-.02734-.28516-4.41406-1.1211v-9.42187l4.4414.41797.32422 1.25 4.11328 3.64063 4.4375-.3164 4.4375-.78126 2.3711-2.54297-2.3711-2.51953-4.4375-.82422-2.5039-1.09375-1.9336-1.9414-4.4375-.77735-4.4414-.5664V311.67187h79.89062v125.76954l-2.97656 2.9414 2.97656 2.96094 3.44531-2.96094-3.4453-2.9414V311.67187h22.1914v131.02735l-2.21485 2.1211-2.22265 2.71874-1.44922 1.72266-2.5039 4.4375-.48438.7539-3.3164 3.6836-1.1211 3.25781-.40235 1.17969.40235.36719 4.4375.97265 4.4375-.33594 4.4375.41016 3.90625 3.02735.1211 4.4375.41406.51562 4.4375 1.05469 2.1328-1.57031 2.3047-.8047 2.87109-3.6328 1.5664-1.58985 3.25391-2.85156-.01953-4.4375-3.23438-3.41016-4.4375.17578-.78125-1.20312-3.65625-3.8789-4.4375.39843-.65234-.95703-1.15234-4.4414-2.63672-2.1211V311.67187h93.20312V475.8047l-.07812.08594.07812.11328v4.32421H144.00391"/></g><path fill="#50fcfc" fill-rule="evenodd" d="M159.64063 458.13672l-.6875-4.4375 1.12109-4.4375.46094-4.4414-1.1836-4.4375 2.40235-2.52344 3.8828 2.52343.5547 1.3125.6875-1.3125 3.75-4.2539 4.4375 2.02734 4.4414 1.64844 1.33203.57812-1.33203 2.4961-4.4414-1.52344-4.4375 1.20312-3.12891 2.26172-1.3086 2.28516-1.66406 2.15625 1.66407 2.01172 4.4375.125 4.4375 1.05078 3.03125-3.1875 1.41015-3.22656 4.4375 1.54296 4.4375.10157 4.4375.39062 4.4414.59766 4.4375-.91797 4.4375-1.16797 1.46095-1.76172-1.46094-2.8711-1.32031-1.5664-1.89063-4.4375 3.21094-4.20312.41797-.23438 4.01953-1.78906v10.3789l-1.33594.28516 1.33594.45703 2.03125-.45703-2.03125-.28515v-10.37891l3.03516-2.64844 1.40625-1.65625 1.07812 1.65625 3.35938 2.73828 4.4375-2.09375 4.15625-.64453-4.15625-2.42969-1.38282-2.01171 1.38281-.94532 4.4375-1.23046 4.4375.82812 1.25391 1.34766-1.2539 1.80468-4.16797 2.63672.02734 4.4375 3.91016 4.4375-4.20703 1.875-3.29297-1.875-1.14453-.52344-1.19532.52344.03516 4.4375-1.76953 4.4375-1.50781 1.6875-2.78907-1.6875-1.64844-3.63672-1.69921 3.63672-2.73828 4.4414h-.00391l-4.4375 3.6211-2.39453.8164-2.04297.48048-4.4375.14453-4.4414 2.1211-4.4375 1-1.14063.6914-3.29688 1.34765-4.4375-1.0078-4.4414 3.10546-4.4375.11719-4.4375.6914-4.4375-.27343-2.11328-3.98047"/><path fill="#fff" fill-opacity="0" fill-rule="evenodd" d="M210.57422 440.09766l-1.33594.28515 1.33594.45703 2.03125-.45703-2.03125-.28515"/><path fill="#50fcfc" fill-rule="evenodd" d="M237.20703 442.28906l-2.96875-1.90625 2.96875-2.8789 4.4375-.28907v3.03125l-.35156.13672.35156.14063.19922-.14063-.19922-.13672v-3.03125l4.4375 2.9336.21484.23437-.21484.28516-4.4375 2.88281-4.4375-1.26172m4.4375 11.7461l-.54687-.33594.54687-.28516.58984.28516-.58984.33594"/><path fill="#00e8fc" fill-rule="evenodd" d="M241.64453 440.52344l-.35156-.14063.35156-.13672.19922.13672-.19922.14063"/><path fill="#50fcfc" fill-rule="evenodd" d="M254.95703 437.70313l-1.66016-1.75782 1.66016-2.04297 4.4414-1.30078v2.66406l-1.16796.6797 1.16797.67968.60547-.67969-.60547-.67969v-2.66406l3.13281-1.09375 1.30469-1.41406 4.4375-.23828 4.4375-1.63281 4.4414.5664 4.4375.77735v3.34765l-2.5664 3.03125 2.5664 2.26953 4.21485-2.26953-4.21485-3.03125v-3.34765l1.9336 1.9414 2.5039 1.09375 4.4375.82422 2.3711 2.51953-2.3711 2.54297-4.4375.78125-4.4375.3164-4.11328-3.64062-.32422-1.25-4.4414-.41797-4.4375-1.15234-4.4375-.64453-1.44922 3.46484-2.98828 3.35156-4.4414-1.59375"/><path fill="#00e8fc" fill-rule="evenodd" d="M259.39844 436.625l-1.16797-.67969 1.16797-.67969.60547.6797-.60547.67968"/><path fill="#50fcfc" fill-rule="evenodd" d="M261.71484 453.69922l-.41015-4.4375 2.53125-1.83985 4-2.60156.4375-.16015 4.4375-.96094 4.41406 1.1211.02734.28515.02344-.28516 4.41406-.98047 1.39063.98047-.97266 4.4414-.41797.58985-3.71875 3.84766-.71875 1.03125-4.4414 1.1836-4.4375.08202-4.4375-.30078-2.1211-1.9961"/><path fill="#00e8fc" fill-rule="evenodd" d="M281.58984 438.21484l-2.5664-2.26953 2.5664-3.03125 4.21485 3.03125-4.21485 2.26953"/><path fill="#50fcfc" fill-rule="evenodd" d="M352.60156 443.34375l-2.97656-2.96094 2.97656-2.9414v2.30468l-.64453.63672.64453.64063.7461-.64063-.7461-.63672v-2.30468l3.44531 2.9414-3.4453 2.96094"/><path fill="#00e8fc" fill-rule="evenodd" d="M352.60156 441.02344l-.64453-.64063.64453-.63672.7461.63672-.7461.64063"/><path fill="#50fcfc" fill-rule="evenodd" d="M361.48047 462.9414l-.40235-.36718.40235-1.17969 1.1211-3.25781 3.3164-3.6836.48437-.7539 2.50391-4.4375 1.44922-1.72266 2.22265-2.71875 2.21485-2.1211v14.10938l-1.46485 1.32813 1.46485 1.91406.95312-1.91406-.95312-1.32813v-14.10937l2.63672 2.1211 1.15234 4.4414.65235.95703 4.4375-.39844 3.65625 3.8789.78125 1.20313v3.63672l-4.4375 2.52344-2.0625 1.51172 2.0625 1.22265v3.08204l-1.77735.13671 1.77735.97657.24218-.97656-.24219-.13672v-3.08204l4.4375 2.9961 4.20704-4.21875-4.20704-4.03516v-3.63672l4.4375-.17578 3.23438 3.41016.01953 4.4375-3.2539 2.85156-1.56641 1.58985-2.8711 3.6328-2.30468.8047-2.13281 1.5703-4.4375-1.05468-.41407-.51563-.1211-4.4375-3.90624-3.02734-4.4375-.41015-4.4375.33593-4.4375-.97265"/><path fill="#fff" fill-opacity="0" fill-rule="evenodd" d="M374.79297 456.8086l-1.46485 1.32812 1.46485 1.91406.95312-1.91406-.95312-1.32813"/><path fill="#00e8fc" fill-rule="evenodd" d="M383.67188 463.79688l-2.0625-1.22266 2.0625-1.51172 4.4375-2.52344v1.44922L385 462.57422l3.10938 2.70703 2.69921-2.70703-2.69921-2.58594v-1.44922l4.20703 4.03516-4.20704 4.21875-4.4375-2.9961"/><path fill="#fff" fill-opacity="0" fill-rule="evenodd" d="M383.67188 466.8789l-1.77735.13673 1.77735.97656.24218-.97656-.24219-.13672"/><path fill="#00d4fc" fill-rule="evenodd" d="M388.10938 465.28125L385 462.57422l3.10938-2.58594v1.44531l-1.3711 1.14063 1.3711 1.19531 1.1875-1.19531-1.1875-1.14063v-1.4453l2.69921 2.58593-2.69921 2.70703"/><path fill="#00c4fc" fill-rule="evenodd" d="M388.10938 463.76953l-1.3711-1.19531 1.3711-1.14063 1.1875 1.14063-1.1875 1.19531"/><path fill="#50fcfc" fill-rule="evenodd" d="M467.9961 476.0039l-.07813-.11327.07812-.08594v.19922m0-.19922v.19922l.00391.0039v-.20703l-.0039.0039"/><g clip-path="url(#c)"><path fill="#fff" fill-opacity="0" fill-rule="evenodd" d="M467.9961 311.67188H468v164.1289-164.1289h-.0039"/></g><path fill="#fff" fill-opacity="0" fill-rule="evenodd" d="M232.39453 431.38281l1.08594-5.74219-9.78906-1.85156-1.08594 5.74219 9.78906 1.85156"/><path fill-rule="evenodd" d="M225.0586 426.4336l.09374-.5 6.1875 1.16796-.14843.77344-4.41016-.83594-.25781 1.36719-.54688-.10547.03906-.5625-.0039-.25781-.04688-.24219-.10156-.22265-.17187-.21094-.26563-.19531-.36719-.17579"/><g clip-path="url(#d)"><path fill="none" stroke="#000" stroke-linecap="round" stroke-linejoin="round" stroke-miterlimit="10" stroke-width=".5" d="M147.51172 480.28516l-7.02344.08984"/></g><g clip-path="url(#e)"><path fill="none" stroke="#000" stroke-linecap="round" stroke-linejoin="round" stroke-miterlimit="10" stroke-width=".5" d="M146.49219 480.29688l.58984 1.07421"/></g><g clip-path="url(#f)"><path fill="none" stroke="#000" stroke-linecap="round" stroke-linejoin="round" stroke-miterlimit="10" stroke-width=".5" d="M160.78516 480.88672l-6.9375-1.11719"/></g><g clip-path="url(#g)"><path fill="none" stroke="#000" stroke-linecap="round" stroke-linejoin="round" stroke-miterlimit="10" stroke-width=".5" d="M159.77344 480.72656l.39844 1.16016"/></g><g clip-path="url(#h)"><path fill="none" stroke="#000" stroke-linecap="round" stroke-linejoin="round" stroke-miterlimit="10" stroke-width=".5" d="M174.03516 481.1875l-6.8125-1.71875"/></g><g clip-path="url(#i)"><path fill="none" stroke="#000" stroke-linecap="round" stroke-linejoin="round" stroke-miterlimit="10" stroke-width=".5" d="M173.04688 480.9375l.29296 1.1914"/></g><g clip-path="url(#j)"><path fill="none" stroke="#000" stroke-linecap="round" stroke-linejoin="round" stroke-miterlimit="10" stroke-width=".5" d="M187.35547 481.17578l-6.82031-1.69531"/></g><g clip-path="url(#k)"><path fill="none" stroke="#000" stroke-linecap="round" stroke-linejoin="round" stroke-miterlimit="10" stroke-width=".5" d="M186.36328 480.92969l.29688 1.1914"/></g><g clip-path="url(#l)"><path fill="none" stroke="#000" stroke-linecap="round" stroke-linejoin="round" stroke-miterlimit="10" stroke-width=".5" d="M200.69922 481.04297l-6.8789-1.42578"/></g><g clip-path="url(#m)"><path fill="none" stroke="#000" stroke-linecap="round" stroke-linejoin="round" stroke-miterlimit="10" stroke-width=".5" d="M200.69922 481.04297l.6914 2.35547"/></g><g clip-path="url(#n)"><path fill="none" stroke="#000" stroke-linecap="round" stroke-linejoin="round" stroke-miterlimit="10" stroke-width=".5" d="M214.0625 480.76953l-6.97266-.88281"/></g><g clip-path="url(#o)"><path fill="none" stroke="#000" stroke-linecap="round" stroke-linejoin="round" stroke-miterlimit="10" stroke-width=".5" d="M214.0625 480.76953l.86719 2.29297"/></g><g clip-path="url(#p)"><path fill="none" stroke="#000" stroke-linecap="round" stroke-linejoin="round" stroke-miterlimit="10" stroke-width=".5" d="M227.40234 480.25l-7.02343.16016"/></g><g clip-path="url(#q)"><path fill="none" stroke="#000" stroke-linecap="round" stroke-linejoin="round" stroke-miterlimit="10" stroke-width=".5" d="M227.40234 480.25l1.20313 2.14063"/></g><g clip-path="url(#r)"><path fill="none" stroke="#000" stroke-linecap="round" stroke-linejoin="round" stroke-miterlimit="10" stroke-width=".5" d="M240.64453 479.61328l-6.8789 1.42969"/></g><g clip-path="url(#s)"><path fill="none" stroke="#000" stroke-linecap="round" stroke-linejoin="round" stroke-miterlimit="10" stroke-width=".5" d="M240.64453 479.61328l1.57031 1.88672"/></g><g clip-path="url(#t)"><path fill="none" stroke="#000" stroke-linecap="round" stroke-linejoin="round" stroke-miterlimit="10" stroke-width=".5" d="M253.83203 479.16016l-6.625 2.33984"/></g><g clip-path="url(#u)"><path fill="none" stroke="#000" stroke-linecap="round" stroke-linejoin="round" stroke-miterlimit="10" stroke-width=".5" d="M252.8711 479.5l.90234.82813"/></g><g clip-path="url(#v)"><path fill="none" stroke="#000" stroke-linecap="round" stroke-linejoin="round" stroke-miterlimit="10" stroke-width=".5" d="M266.92578 478.65625L260.7461 482"/></g><g clip-path="url(#w)"><path fill="none" stroke="#000" stroke-linecap="round" stroke-linejoin="round" stroke-miterlimit="10" stroke-width=".5" d="M266.02734 479.14453l1.02344.67969"/></g><g clip-path="url(#x)"><path fill="none" stroke="#000" stroke-linecap="round" stroke-linejoin="round" stroke-miterlimit="10" stroke-width=".5" d="M280.41797 479.03516l-6.53516 2.58593"/></g><g clip-path="url(#y)"><path fill="none" stroke="#000" stroke-linecap="round" stroke-linejoin="round" stroke-miterlimit="10" stroke-width=".5" d="M279.46875 479.41016l.9336.79687"/></g><g clip-path="url(#z)"><path fill="none" stroke="#000" stroke-linecap="round" stroke-linejoin="round" stroke-miterlimit="10" stroke-width=".5" d="M293.97656 480.17969l-7.01953.29687"/></g><g clip-path="url(#A)"><path fill="none" stroke="#000" stroke-linecap="round" stroke-linejoin="round" stroke-miterlimit="10" stroke-width=".5" d="M292.95313 480.22266l.62109 1.05859"/></g><g clip-path="url(#B)"><path fill="none" stroke="#000" stroke-linecap="round" stroke-linejoin="round" stroke-miterlimit="10" stroke-width=".5" d="M307.28125 480.02734l-7 .60547"/></g><g clip-path="url(#C)"><path fill="none" stroke="#000" stroke-linecap="round" stroke-linejoin="round" stroke-miterlimit="10" stroke-width=".5" d="M306.26172 480.11328l.66797 1.03125"/></g><g clip-path="url(#D)"><path fill="none" stroke="#000" stroke-linecap="round" stroke-linejoin="round" stroke-miterlimit="10" stroke-width=".5" d="M320.55469 479.70313l-6.91797 1.25"/></g><g clip-path="url(#E)"><path fill="none" stroke="#000" stroke-linecap="round" stroke-linejoin="round" stroke-miterlimit="10" stroke-width=".5" d="M319.54688 479.88672l.76171.96094"/></g><g clip-path="url(#F)"><path fill="none" stroke="#000" stroke-linecap="round" stroke-linejoin="round" stroke-miterlimit="10" stroke-width=".5" d="M333.48047 478.61719l-6.13672 3.42187"/></g><g clip-path="url(#G)"><path fill="none" stroke="#000" stroke-linecap="round" stroke-linejoin="round" stroke-miterlimit="10" stroke-width=".5" d="M332.58594 479.11328l1.03125.66797"/></g><g clip-path="url(#H)"><path fill="none" stroke="#000" stroke-linecap="round" stroke-linejoin="round" stroke-miterlimit="10" stroke-width=".5" d="M344.75 480.32813l-.01953-.19922-.0586-.19141-.09765-.17578-.45703-.3789-.1914-.0586-.19923-.01953-.19922.01953-.1914.0586-.46094.3789-.09375.17578-.0586.1914-.01952.19923.01953.19921.05859.19141.09375.17969.46094.375.1914.0586.19922.01952.19922-.01953.1914-.0586.45704-.375.09765-.17968.0586-.1914.01953-.19922"/></g><g clip-path="url(#I)"><path fill="none" stroke="#000" stroke-linecap="round" stroke-linejoin="round" stroke-miterlimit="10" stroke-width=".5" d="M353.5664 479.80469l6.94923 1.05078"/></g><g clip-path="url(#J)"><path fill="none" stroke="#000" stroke-linecap="round" stroke-linejoin="round" stroke-miterlimit="10" stroke-width=".5" d="M366.8711 479.875l6.96874.90625"/></g><g clip-path="url(#K)"><path fill="none" stroke="#000" stroke-linecap="round" stroke-linejoin="round" stroke-miterlimit="10" stroke-width=".5" d="M367.88672 480.00781l-.4336-1.14844"/></g><g clip-path="url(#L)"><path fill="none" stroke="#000" stroke-linecap="round" stroke-linejoin="round" stroke-miterlimit="10" stroke-width=".5" d="M380.26172 479.47656l6.8164 1.70313"/></g><path fill="none" stroke="#000" stroke-linecap="round" stroke-linejoin="round" stroke-miterlimit="10" stroke-width=".5" d="M381.2539 479.72266l-.29687-1.1875"/><g clip-path="url(#M)"><path fill="none" stroke="#000" stroke-linecap="round" stroke-linejoin="round" stroke-miterlimit="10" stroke-width=".5" d="M393.78906 478.875l6.39453 2.90625"/></g><path fill="none" stroke="#000" stroke-linecap="round" stroke-linejoin="round" stroke-miterlimit="10" stroke-width=".5" d="M394.71875 479.29688l-.07813-1.22266"/><g clip-path="url(#N)"><path fill="none" stroke="#000" stroke-linecap="round" stroke-linejoin="round" stroke-miterlimit="10" stroke-width=".5" d="M406.92578 479.34766l6.75 1.96093"/></g><path fill="none" stroke="#000" stroke-linecap="round" stroke-linejoin="round" stroke-miterlimit="10" stroke-width=".5" d="M406.92578 479.34766l-.5-2.40235"/><g clip-path="url(#O)"><path fill="none" stroke="#000" stroke-linecap="round" stroke-linejoin="round" stroke-miterlimit="10" stroke-width=".5" d="M420.30078 479.16406l6.63281 2.32813"/></g><path fill="none" stroke="#000" stroke-linecap="round" stroke-linejoin="round" stroke-miterlimit="10" stroke-width=".5" d="M421.26563 479.5039l-.1836-1.21093"/><g clip-path="url(#P)"><path fill="none" stroke="#000" stroke-linecap="round" stroke-linejoin="round" stroke-miterlimit="10" stroke-width=".5" d="M434.33594 477.96094l5.1914 4.73437"/></g><path fill="none" stroke="#000" stroke-linecap="round" stroke-linejoin="round" stroke-miterlimit="10" stroke-width=".5" d="M435.08984 478.65234l.3047-1.1914"/><g clip-path="url(#Q)"><path fill="none" stroke="#000" stroke-linecap="round" stroke-linejoin="round" stroke-miterlimit="10" stroke-width=".5" d="M447.48438 478.15625L453.0078 482.5"/></g><path fill="none" stroke="#000" stroke-linecap="round" stroke-linejoin="round" stroke-miterlimit="10" stroke-width=".5" d="M448.28906 478.78906l.21485-1.20703"/><g clip-path="url(#R)"><path fill="none" stroke="#000" stroke-linecap="round" stroke-linejoin="round" stroke-miterlimit="10" stroke-width=".5" d="M460.8086 478.14453l5.5039 4.36719"/></g><path fill="none" stroke="#000" stroke-linecap="round" stroke-linejoin="round" stroke-miterlimit="10" stroke-width=".5" d="M461.60938 478.78125l.22265-1.20703"/><g clip-path="url(#S)"><path fill="none" stroke="#000" stroke-linecap="round" stroke-linejoin="round" stroke-miterlimit="10" stroke-width=".5" d="M147.48828 466.58984l-6.97656.84766"/></g><path fill="none" stroke="#000" stroke-linecap="round" stroke-linejoin="round" stroke-miterlimit="10" stroke-width=".5" d="M146.47266 466.71484l.70312 1.00391m13.54297-1.57031l-6.8086 1.73047m5.82032-1.47657l.82422.90625m13.41015-1.40234l-6.66797 2.21484m5.69922-1.89062l.88672.84375m13.2461-1.55078l-6.3672 2.98047m6.3672-2.98047l1.96093 1.47265m11.65235-.46484l-6.96094.96484m5.94531-.82422l.71875.9922m13.60156-1.1875l-6.9453 1.07421m6.9453-1.07422l1.46875 1.96485m11.7461-2.41407L220.51953 468m5.76172-1.6836l.85547.87891m13.375-1.3711l-6.61328 2.37892m6.61328-2.37891l1.8164 1.65234m11.34375-2.01562l-6.30078 3.10547m6.30078-3.10547l1.9922 1.4336m11.14452-1.75782l-5.9453 3.7539m5.9453-3.7539l2.12891 1.21875m11.3125-.9961l-6.19922 3.3086m6.19922-3.3086l2.03516 1.3711m11.34765-1.23828l-6.33593 3.04297m6.33593-3.04297l1.97657 1.45312m11.17968-1.7461l-6.01562 3.62891m6.01562-3.6289l2.10547 1.25781m10.96094-1.61719l-5.51953 4.34766m5.51953-4.34766l2.2461.98828m10.69921-1.39062l-4.78125 5.15234m4.08594-4.40234l1.1875.3164m12.73437-1.14452l-4.60546 5.30859m3.9375-4.53516l1.1953.27344m12.23438-1.4414l-3.4961 6.09765m2.98829-5.21094l1.22656.03906m11.08594-1.3828l-.47266 7.01171m.40235-5.99219l1.1211-.5m8.8828 4.5586l6.28516-3.14453m8.3086-1.40625l3.73046 5.95703m-3.1875-5.08985l.61328-1.0625m11.91407.36329l4.21875 5.62109m-3.60547-4.80078l.51953-1.11328m14.2461-.41016l.08984 7.02734m-.07422-6.0039l1.07422-.58985m11.83593-.40625l.8711 6.97266m-.74219-5.95703l1-.70703m10.86719.13281L452 470.05859m-3.50781-6.08984l1.30078-2.07813m12.27734 1.94141l2.98438 6.36328m-2.55078-5.4375l.73437-.98047"/><g clip-path="url(#T)"><path fill="none" stroke="#000" stroke-linecap="round" stroke-linejoin="round" stroke-miterlimit="10" stroke-width=".5" d="M147.4961 453.35547l-6.9922.6836"/></g><path fill="none" stroke="#000" stroke-linecap="round" stroke-linejoin="round" stroke-miterlimit="10" stroke-width=".5" d="M147.4961 453.35547l1.35937 2.04687m11.91406-2.33593l-6.91016 1.26171m6.91016-1.26171l1.52344 1.92578m10.9375-3.65625l-5.19922 4.72656m4.4414-4.03906l1.15626.41406m11.12109-2.16016l-1.60938 6.83985m1.375-5.84375l1.1875-.3125m13.9336.14844l-4.75 5.17968m4.0586-4.42578l1.1875.3086m13.4375-.3125l-5.98829 3.67968m5.11719-3.14453l1.05469.6211m13.08984-1.22266l-5.90625 3.8086m5.04688-3.25391l1.0703.59765m13.05079-1.23047l-5.80078 3.96485m4.95703-3.38672l1.08594.57031m12.62109-1.6875l-4.89453 5.04297m4.17969-4.3086l1.17968.33985m13.25391-.60547l-5.70313 4.10938m4.8711-3.51172l1.10156.54297m12.4961-1.73828l-4.60547 5.30468m4.60547-5.30469l2.39453.55079m11.47656.05859l-5.71875 4.08203m5.71875-4.08203l2.19922 1.09766m11.29687-.81641l-6.08203 3.51953m6.08203-3.51953l2.08203 1.30078m-2.96484-.78515l1.03906.64843m13.08985-1.27734l-5.94141 3.75m5.9414-3.75l2.13282 1.21484m-2.9961-.67187l1.06641.60937m12.86719-1.4961l-5.45313 4.4336m5.45313-4.4336l2.26172.95704m10.875-1.15625l-5.09766 4.83594m5.09766-4.83594l2.32812.77734m10.9336-.83593l-4.98828 4.95312m4.26171-4.23437l1.17188.36328m11.7461-1.83985l-2.7422 6.46875m2.34376-5.52734l1.22265-.10938m12.85938-.65234l-3.47657 6.10938m2.96875-5.21875l1.22657.03125m12.22265-1.10547l-2.73047 6.47656m2.33594-5.53516l1.21875-.10937m13.66797-.01953l-5.08594 4.84765m4.34766-4.14062l1.16406.38672m12.38672-1.52735l-4.08203 5.71875m3.48828-4.88671l1.21875.16015m9.24219-1.35156l2.8164 6.4375m-2.40625-5.5l.76172-.96484m13.7539-.26172l-.40624 7.01562m.34766-5.9961l1.11718-.51171m12.80078-.4336l-1.49218 6.8672m1.27343-5.8672l1.1797-.33593"/><g clip-path="url(#U)"><path fill="none" stroke="#000" stroke-linecap="round" stroke-linejoin="round" stroke-miterlimit="10" stroke-width=".5" d="M147.4336 439.64453l-6.8672 1.48047"/></g><path fill="none" stroke="#000" stroke-linecap="round" stroke-linejoin="round" stroke-miterlimit="10" stroke-width=".5" d="M147.4336 439.64453l1.58202 1.875m11.78907-1.5586l-6.97656.84376m6.97656-.84375l1.40234 2.01172m11.85938-2.32813l-6.8711 1.47656m5.8711-1.26171l.78906.9375m13.60156-.26563l-7.02344-.29688m6 .25391l.53125 1.10938m13.78516-.82032l-6.98047-.78515m5.96484.66797l.45313 1.14062m13.7461-.39062l-6.71876-2.0547m5.7422 1.75782l.23437 1.20313m12.90625-4.66797l-4.41407 5.46875m3.77344-4.67188l1.20313.23438m12.54687-1.1836l-4.0039 5.77344m3.42187-4.9336l1.21875.14454m10.46094-1.60547l.42969 7.01563m-.3672-5.9922l1.04688-.64452m15.3086 1.125l-5.77344 4.0078m4.9336-3.42577l1.08984.5625m13.0039-1.22656l-5.65234 4.17187m4.83203-3.5625l1.10547.52734m12.13672-1.98437l-3.86719 5.86719m3.86719-5.8672l2.44531.23048m11.76563.6211l-5.65625 4.16796m5.65625-4.16797l2.21093 1.0586m11.13672-1.01172l-5.72265 4.07422m5.72265-4.07422l2.19531 1.09765m10.78516-1.5039l-5.05078 4.88672m5.05078-4.88672l2.33203.7539m10.74219-.98047l-4.57031 5.33594m4.5703-5.33594l2.39454.53516m8.5039-1.3789l.26173 7.02343m-.22266-6l1.0625-.61719m13-.34375l-1.3125 6.90235m1.3125-6.90235l2.34375-.73046m12.53906 1.46093l-4.44531 5.4414m18.60547-4.4375l-6.13672 3.4297m5.24219-2.9297l1.03125.66407m13.30078-.92187l-6.3789 2.94922m5.44921-2.51954l.97656.73829m13.58594.15625l-7.01953.30078m6-.25782l.6211 1.0586m12.93359-3.16797l-5.45703 4.42969m5.45703-4.4297l2.2578.95704m10.3711-1.60156l-4.08203 5.71875m4.08203-5.71875l2.42969.32031m11.13672-.1211l-4.58594 5.32423"/><g clip-path="url(#V)"><path fill="none" stroke="#000" stroke-linecap="round" stroke-linejoin="round" stroke-miterlimit="10" stroke-width=".5" d="M465.85547 437.72266l2.39453.53906"/></g><g clip-path="url(#W)"><path fill="none" stroke="#000" stroke-linecap="round" stroke-linejoin="round" stroke-miterlimit="10" stroke-width=".5" d="M146.58594 424.6875l-5.17188 4.76172"/></g><path fill="none" stroke="#000" stroke-linecap="round" stroke-linejoin="round" stroke-miterlimit="10" stroke-width=".5" d="M146.58594 424.6875l2.3125.8125m11.19922-.57813l-5.56641 4.29297m4.75781-3.66797l1.11719.50782m13.70703.5586l-6.96875.91015m5.95703-.77735l.71094.9961m13.5039.3086l-6.74218-1.96485m6.74219 1.96484l.5 2.40625m12.6875-2.03515l-6.48438-2.70704m5.53906 2.3125l.11328 1.22266m13.89844-.34375l-5.98828-3.67578m5.11719 3.14062l-.07813 1.22657m13.70313-5.0625l-4.86719 5.0664m16.76953-2.53125l-.01953-.20312-.0586-.1914-.09374-.17579-.45703-.375-.19141-.0586-.19922-.01953-.19922.01954-.19531.05859-.45703.375-.09375.17578-.0586.1914-.01953.20313.01953.19922.0586.1914.09375.17579.45703.375.19531.0586.19922.01952.19922-.01953.1914-.0586.45704-.375.09375-.17577.0586-.1914.01952-.19923m15.7461.64063l-6.90625-1.28516m20.28125.79688l-7.02344-.3086m20.26562-.5664l-6.8789 1.4414m18.07422-3.97656l-2.64063 6.51172m17.42578-5.39063l-5.58203 4.26953m17.52735-5.34765l-2.83985 6.42578m2.42578-5.49219l1.22266-.08984m13.84375.1914l-5.51563 4.35547m5.51563-4.35547l2.2461.98829m10.8789-1.20703l-5.13672 4.79296m4.39063-4.09765l1.16015.40234m13.23438-.6836l-5.80078 3.96485m4.95703-3.38672l1.08593.5664m11.64844-2.35155l-2.94922 6.3789m2.51953-5.44922l1.22266-.0703m12.66406-.78907l-3.23437 6.23828m3.23437-6.23828l2.45313-.02735m12.72656 2.6836l-6.96484.92578m6.96484-.92578l1.42969 1.9961m11.91015-1.71485l-7.01562.36328m5.9961-.3125l.6328 1.05469m13.04297-2.98438l-5.6953 4.1211m4.86718-3.51953l1.10156.53906m12.61328-1.625l-4.83984 5.08984m4.83984-5.08984l2.36328.65625m10.15235-1.22656l-3.24219 6.23046m3.24219-6.23046l2.45312-.02344m11.42578.38672l-4.36718 5.5039"/><g clip-path="url(#X)"><path fill="none" stroke="#000" stroke-linecap="round" stroke-linejoin="round" stroke-miterlimit="10" stroke-width=".5" d="M465.7461 424.3164l2.41406.44141"/></g><g clip-path="url(#Y)"><path fill="none" stroke="#000" stroke-linecap="round" stroke-linejoin="round" stroke-miterlimit="10" stroke-width=".5" d="M146.4375 411.22266l-4.875 5.05859"/></g><path fill="none" stroke="#000" stroke-linecap="round" stroke-linejoin="round" stroke-miterlimit="10" stroke-width=".5" d="M146.4375 411.22266l2.35938.67578m-3.06641.0625l2.35937.67578m11.77735-1.30078l-5.10156 4.83594m5.10156-4.83594l2.32422.78125m10.6289-1.10938L168.4375 416.5m3.7461-4.69531l1.20702.22656m11.50391 5.10547l-1.89844-6.76563m17.38672 4.9922l-6.2461-3.22266m15.56642 5.01562l1.74218-6.8086m-1.48828 5.82032l-1.1914.28906m13.17187.21875l3.90625-5.84375m8.23438 4.51953l6.2578-3.19531m11.20704 1.59766l-.01953-.19922-.0586-.1914-.09375-.1797-.46093-.375-.19141-.05859-.19922-.01953-.19922.01953-.1914.0586-.45703.375-.09766.17968-.05469.1914-.01953.19923.01953.19922.05469.1914.09766.17578.45703.3789.1914.0586.19922.01953.19922-.01953.1914-.0586.46094-.3789.09375-.17578.0586-.1914.01953-.19922m15.80469-.07813l-7.02344.15235m19.04687-2.79688l-4.4414 5.44531m17.3164-5.7539l-3.55859 6.05859m3.03906-5.17578l1.22657.05078m11.75-1.29297l-1.84375 6.78125m12.9414-6.65625l2.58985 6.53125m10.91796-6.60156l2.20313 6.67187m15.3164-4.98437l-6.20312 3.29687m19.82422-2.5l-6.8164 1.70313m5.82421-1.45703l.82422.91015m13.57422-.63671l-6.9961.66015m5.97657-.5625l.67578 1.02344m13.01562-2.83984l-5.71093 4.09765m5.71093-4.09765l2.19922 1.08984m10.3086-1.89453l-4.09766 5.71094m4.09766-5.71094l2.43359.32812m11.5625.3164l-5.46094 4.42188m5.46094-4.42187l2.26172.96094m11.35156-.53516l-6.05469 3.5664m5.17188-3.04687l1.04687.64063m12.85547-1.58594l-5.46484 4.42187m5.46484-4.42187l2.25782.95703m10.14843-1.75l-3.64843 6.00781m3.64843-6.00781l2.44922.14063m10.97266-.07422l-3.85938 5.875"/><g clip-path="url(#Z)"><path fill="none" stroke="#000" stroke-linecap="round" stroke-linejoin="round" stroke-miterlimit="10" stroke-width=".5" d="M465.49219 410.8164l2.4414.22657"/></g><g clip-path="url(#aa)"><path fill="none" stroke="#000" stroke-linecap="round" stroke-linejoin="round" stroke-miterlimit="10" stroke-width=".5" d="M146.80078 398.3164l-5.60156 4.2422"/></g><path fill="none" stroke="#000" stroke-linecap="round" stroke-linejoin="round" stroke-miterlimit="10" stroke-width=".5" d="M146.80078 398.3164l2.22656 1.03126m-3.04297-.41407l2.22657 1.03125m12.13281-1.30859l-6.0586 3.5625m6.0586-3.5625l2.08984 1.28516m-2.97265-.76563l2.09375 1.28125m12.13281-1.75l-6.11719 3.46094m6.11719-3.46094l2.07031 1.32031m-2.96094-.8164l1.03516.66015m13.48438-.42578l-6.7422 1.98438m6.7422-1.98438l1.71484 1.7539m10.40625 1.9961l-4.35547-5.51562m3.72266 4.71484l-.4961 1.1211m10.4297-.08204l3.67187-5.99218m-3.13672 5.12109l-1.22266-.07422m13.45313.52735l4.77343-5.15625m14.36328 3.3125l-6.87109-1.46485m18.97266 3.45313l-4.4414-5.44532m18.04296 5.1836l-5.01563-4.92188m19.3047 2.92578l-6.96485-.92578m20.08984-.76953l-6.58203 2.46094m5.625-2.10156l.91797.8125m13.21484-1.4922l-6.30468 3.10548m5.38671-2.65625l.9961.71875m13.52734-.3125l-6.88672 1.39453m5.88672-1.1914l.77735.9453m13.51953-1.23046l-6.85157 1.55859m5.85547-1.33203l.80078.92969m13.23047 1.1875l-6.29297-3.12891m5.37891 2.67188l.03516 1.22656m13.5.1836l-4.90235-5.03517m4.1875 4.30079l-.37109 1.16796m15.01172-1.23046l-6.125-3.44141m5.23437 2.9414l-.02734 1.22657m14.6211-3.11719l-6.89844 1.33594m6.89843-1.33594l1.54297 1.91016m11.71094-2.16406l-6.77734 1.84375m5.79296-1.57422l.83985.89453M413.6875 399.5l-6.77344 1.8789m6.77344-1.8789l1.6875 1.78125m11.0664-2.9336l-5.64843 4.1836m5.64844-4.1836l2.21484 1.0547m10.92187-1.27344l-5.29296 4.62109m4.52343-3.94922l1.14453.4375m12.6836-1.375l-4.78125 5.14844m4.08594-4.39844l1.1875.3164m13.02343-.86327l-5.17968 4.74609"/><g clip-path="url(#ab)"><path fill="none" stroke="#000" stroke-linecap="round" stroke-linejoin="round" stroke-miterlimit="10" stroke-width=".5" d="M466.15234 398.0664l2.3125.81641"/></g><g clip-path="url(#ac)"><path fill="none" stroke="#000" stroke-linecap="round" stroke-linejoin="round" stroke-miterlimit="10" stroke-width=".5" d="M146.63672 384.80078l-5.27344 4.64453"/></g><path fill="none" stroke="#000" stroke-linecap="round" stroke-linejoin="round" stroke-miterlimit="10" stroke-width=".5" d="M146.63672 384.80078l2.29687.86328m-3.0625-.1875l1.14844.4336m12.8789-1.16797l-5.16405 4.76172m5.16406-4.76172l2.3164.8086m-3.0703-.1172l1.16015.40625m13.125-.83593l-5.60156 4.23828m5.60156-4.23828l2.22656 1.03125m11.58594-.125l-6.59375 2.42968m6.59375-2.42968l1.82812 1.6328m-2.78906-1.28124l.91797.8164m13.34375 1.29688l-6.5664-2.5039m6.5664 2.5039l.30469 2.4336m12.9453-2.27735l-6.4375-2.8164m6.4375 2.8164l.1875 2.44922m13.23438-2.72266l-6.64843-2.26953m6.64843 2.26953l.39063 2.42188m13.07031-3.01172l-6.9414-1.08985m6.9414 1.08985l.80469 2.3164m12.48437-2.17187l-6.89062-1.3789m5.89062 1.17968l.35157 1.17578m13.7539-.29687l-6.47265-2.73828m6.47265 2.73828l.21875 2.44531m12.70703-1.75l-5.6875-4.1289m4.85938 3.52734l-.17188 1.21484m14.92188-2.02344l-6.90234-1.30859m5.89843 1.11719l.36328 1.17187m13.90625-2.51172L300.37891 388m5.8125-1.5l.82812.90625m13.54297-.85938l-6.9336 1.15235m5.92579-.98438l.7461.97266m13.60155-.94531l-6.98437.76172m5.96875-.64844l.6914 1.01172m13.5586.09765l-6.82031-1.68359m5.82812 1.4375l.30078 1.1914m12.9414.82813l-4.6914-5.23047m4.01172 4.46875l-.42187 1.15235m15.52734-2.36329l-6.91016-1.28515m5.90235 1.09765l.3711 1.16797m13.72655-3.0078l-6.46093 2.76952m5.51953-2.36719l.95703.76954m13.1914-1.39844l-6.24609 3.22265m5.33594-2.7539l1.00781.69922m12.96875-1.57813l-5.7461 4.04297m4.91016-3.45703l1.09375.55469m12.26563-1.94922l-4.16797 5.66015m3.5625-4.83593l1.21484.17969m12.53907-1.1172l-3.83203 5.88673m3.27343-5.03125l1.22266.10937m12.82422-.84375l-4.17969 5.64453m3.57422-4.82422l1.21094.1836m13.28515-.47266l-5.32812 4.58203m4.55078-3.91406l1.14453.44531"/><g clip-path="url(#ad)"><path fill="none" stroke="#000" stroke-linecap="round" stroke-linejoin="round" stroke-miterlimit="10" stroke-width=".5" d="M145.17188 370.4961l-2.34375 6.625"/></g><path fill="none" stroke="#000" stroke-linecap="round" stroke-linejoin="round" stroke-miterlimit="10" stroke-width=".5" d="M145.17188 370.4961l2.42578-.36329m11.08203.4375l-2.73047 6.47656m2.73047-6.47656l2.44531-.21875m11.03125.29297l-3.05078 6.32813m3.05078-6.32813l2.45313-.09765m11.68359.64843l-4.69531 5.22656m4.6953-5.22656l2.38282.58985m12.07813 1.63671l-6.98438.77344m6.98438-.77344l1.3828 2.02735m11.63673-.1836l-6.39453-2.91406m6.39453 2.91406l.14844 2.44922m13.36718-3.01171l-6.79687-1.78907m5.8086 1.52735l.28124 1.1953m14.05469-1.07421l-6.86328-1.50781m5.86328 1.28906l.33203 1.17969m13.91797-.71094l-6.73438-2.00781m5.75391 1.71484l.24219 1.20313m13.82422-.33204l-6.27344-3.16796m5.35937 2.70703l.02735 1.22656m14.01953-.44922l-5.91016-3.79687m5.05078 3.24218l-.10156 1.22266m14.8125-2.1875l-6.98437-.75781m20.21484-.48047l-6.8125 1.71484m5.82031-1.46484l.82422.91015m13.55078-.82421l-6.94922 1.04296m5.9375-.89062l.73047.98828m13.6211-.28515l-6.9961-.66797m5.97656.57421l.46875 1.13282m13.71875-.32422l-6.70703-2.09375m5.73438 1.78906l.22656 1.20703m13.71485-.1289l-6.01172-3.64063m5.13671 3.10938l-.0664 1.22656m14.625-1.54297l-6.75-1.94922M372.75 374.5l.2539 1.19922m14.1172-2.54688l-6.90235 1.3125m5.89844-1.12109l.76953.95703m13.35547-1.8125l-6.51172 2.64063m5.5664-2.25782l.9375.78907m12.85157-1.9961l-5.57031 4.28516m4.76171-3.66016l1.1172.50781m12.6328-1.54296l-4.8203 5.10937m4.11718-4.36719l1.1836.32422m12.27343-1.5l-3.69922 5.97656m3.16016-5.10546l1.22265.07812m12.05079-1.23828l-2.53516 6.55469m2.16406-5.60156l1.21875-.14454m12.63281-.73828l-2.87109 6.41406m2.45313-5.48046l1.22656-.08204"/><g clip-path="url(#ae)"><path fill="none" stroke="#000" stroke-linecap="round" stroke-linejoin="round" stroke-miterlimit="10" stroke-width=".5" d="M142.125 357.51953l3.75 5.94531"/></g><path fill="none" stroke="#000" stroke-linecap="round" stroke-linejoin="round" stroke-miterlimit="10" stroke-width=".5" d="M155.1211 357.75l4.38671 5.48828m-3.7461-4.6914l.48438-1.125m10.91407 2.52343l6.9414 1.09766m-5.9336-.9375l-.39843-1.16016m12.9414.17578l6.46876 2.7422m-5.52735-2.33985l-.10937-1.22266m16.73828 2.1914l-.01953-.19921-.0586-.1914-.09375-.17579-.45703-.3789-.1914-.0547-.19922-.01952-.19922.01953-.19531.05469-.45703.3789-.09375.17578-.0586.1914-.01953.19923.01953.19922.0586.1914.09375.17969.45703.375.19531.0586.19922.01952.19922-.01953.1914-.05859.45703-.375.09375-.17969.0586-.1914.01953-.19922m15.55469 1.30469l-6.52344-2.60938m5.57422 2.23047l.13281 1.21875m13.91797-.39453l-6.09375-3.5m5.20703 2.99219l-.03906 1.22656m14.48828-1.2461l-6.58984-2.4453m5.6328 2.08983l.16017 1.21485m14.15625-.98438l-6.67579-2.1914m5.70313 1.8711l.21094 1.21093m13.91797-.48828l-6.35938-2.9961m5.4336 2.5586l.05859 1.22656m13.71875-.0625l-5.4336-4.45313m4.64453 3.8047l-.24218 1.20312m15.02734-1.8789l-6.79297-1.80079m20.15235 1.60938l-6.88282-1.41797m20.2422 1.14062l-6.97267-.86719m5.95704.7422l.4414 1.14452m13.20703.66406l-5.60937-4.23437m18.24219 4.91797l-4.2422-5.60156m3.625 4.78906l-.51562 1.11328m15.125-.97656l-5.59765-4.25M359.02344 362l-.19531 1.21094m14.91796-1.80078l-6.78125-1.83594m5.79688 1.57031l.27344 1.19531m14.0625-2.6289l-6.85157 1.5625m5.85547-1.33594l.80078.92969m13.3086-1.76953l-6.44922 2.78906m5.51172-2.38281l.95703.76562m12.7539-2.04297l-5.36718 4.53516m4.58594-3.875l1.14062.45312m12.52734-1.53906l-4.51171 5.38672m3.85546-4.60547l1.20313.2539m12.3711-1.32812l-3.71485 5.96875m3.17187-5.09765l1.22657.08203m11.93359-1.28516l-2.32031 6.63281m1.98437-5.66796l1.21094-.1836m12.38281-.80078l-2.20312 6.67188m1.88281-5.69922l1.20703-.20704"/><g clip-path="url(#af)"><path fill="none" stroke="#000" stroke-linecap="round" stroke-linejoin="round" stroke-miterlimit="10" stroke-width=".5" d="M141.05469 345.26172l5.89062 3.83203"/></g><path fill="none" stroke="#000" stroke-linecap="round" stroke-linejoin="round" stroke-miterlimit="10" stroke-width=".5" d="M153.99219 346.03906l6.64844 2.27735m-6.64844-2.27735l-.39063-2.42187m13.97266 5.29687l6.11328-3.46875m-6.11328 3.46875l-2.07031-1.3164m15.66015 1.72656l5.5625-4.29297m-4.7539 3.66797l-1.1172-.5039m14.03126 1.57421l4.7461-5.17969m-4.0547 4.42579l-1.1875-.3086m14.1875 1.36328l3.9961-5.78125m-3.41406 4.9375l-1.21875-.14062m15.87109 1.60547l.15625-7.02735m-.13672 6.0039l-1.09375.55079m17.45313-1.1914l-5.97266-3.69923m5.10547 3.16016l-.08203 1.22656m14.07031-.40625l-5.58594-4.26171M252.5 348.6914l-.19922 1.20703m14.71094-1.22266l-6.35547-2.9961m5.4336 2.5625l.05859 1.22266m14.26562-.98046l-6.52734-2.60938m19.97265 2.21484l-6.78906-1.8203m20.20313 1.28124l-6.98438-.7461m5.96875.63673l.45703 1.14062m13.85547-.875l-6.94922-1.0586m5.9375.90626l.40625 1.15625m13.75782-.36328l-6.625-2.33594m16.78515 4.67578l-.3164-7.01953m16.19921 5.73047l-5.44921-4.4414m4.65625 3.79296l-.23829 1.20703m15.04297-1.98047l-6.84375-1.59765m5.84766 1.36718l.3164 1.1836m14.07423-2.04688l-7 .58985m5.98046-.50391L386.81641 348m13.02343-2.8711l-5.70703 4.09766m4.875-3.5039l1.10156.54687m11.96875-2.1211l-3.55468 6.0586m3.03906-5.17578l1.22656.05078m12.48438-1.0039l-3.3125 6.19921m2.83203-5.29687l1.22656.0039m11.85938-1.1914l-1.89454 6.76953m1.6172-5.78516l1.19921-.26171m12.45313-.70313l-2.01563 6.73047m1.72266-5.75l1.20312-.24219m12.40235-.73828l-2.00782 6.73438m2.00782-6.73438l2.40234-.48828"/><g clip-path="url(#ag)"><path fill="none" stroke="#000" stroke-linecap="round" stroke-linejoin="round" stroke-miterlimit="10" stroke-width=".5" d="M141.33203 331.57422l5.33594 4.57422"/></g><path fill="none" stroke="#000" stroke-linecap="round" stroke-linejoin="round" stroke-miterlimit="10" stroke-width=".5" d="M153.8086 333.64844l7.01171.42969m-7.01172-.4297l-1.01953-2.23437m14.63672 3.89063l6.41016-2.88281m-6.41016 2.8828l-1.9375-1.5039m15.27734 1.55469l6.35938-2.98438m-6.35938 2.98438l-1.96484-1.47266m16.07031 2.5586l4.77735-5.15625m-4.77735 5.15625L192.5 335.8125m15.04297-.17578l6.0625-3.55078m-5.17969 3.03515l-1.04297-.64453m14.15625 1.9961l4.70313-5.21875m-4.01953 4.46093l-1.19141-.29687m14.6836 1.6289l2.98046-6.36718m-2.54687 5.4414l-1.22266.0625m16.6914 1.01563l-2.1953-6.67578m17.625 4.76172l-6.42579-2.84375m18.91407 4l-4.76954-5.16016m16.77344 5.92578l-2.14453-6.6914m1.83203 5.71875l-.85547.8789m16.23438-1.16015l-5.64844-4.1797m4.82422 3.57032l-.17969 1.21484m14.98828-2.32421l-6.98828-.7422m5.97266.63282l.45703 1.14063m13.83594-2.03516l-6.91406 1.26562m5.91015-1.08203l.75781.96094m12.76563 1.78125l-5.32031-4.58594m16.0039 5.80469l-.0586-7.02344m.05079 6.0039l-1.07812.58595m16.09375-.01563l-3.44532-6.125m2.94532 5.23438l-.66016 1.03125m15.7539-5.03125l-6.0039 3.65234m6.0039-3.65234l2.10938 1.2539m10.30078-2.2461l-4.1914 5.64063m3.58203-4.8203l1.21093.18358m11.55079-1.5703l-1.8672 6.77343m1.59766-5.78906l1.19532-.26563m10.3125-.65625l2.28906 6.64453m-1.95703-5.67578l.83594-.89844m11.6875.12891l3.20703 6.25m13.82812-5.92969l-4.23047 5.60938m3.61328-4.79297l1.21094.1914m12.52735-1.14452l-3.84375 5.8828m3.28515-5.02734l1.21875.10938"/><g clip-path="url(#ah)"><path fill="none" stroke="#000" stroke-linecap="round" stroke-linejoin="round" stroke-miterlimit="10" stroke-width=".5" d="M143.26563 317.11328l1.46875 6.8711"/></g><g clip-path="url(#ai)"><path fill="none" stroke="#000" stroke-linecap="round" stroke-linejoin="round" stroke-miterlimit="10" stroke-width=".5" d="M143.26563 317.11328l1.8789-1.57812"/></g><path fill="none" stroke="#000" stroke-linecap="round" stroke-linejoin="round" stroke-miterlimit="10" stroke-width=".5" d="M154.10547 319.11719l6.41797 2.86328m-5.48438-2.44922l-.08203-1.22266m12.28125 3.15625l6.78516-1.83203m-5.79688 1.5664l-.83984-.89843m13.29687 1.55469l6.52344-2.61719m-5.57422 2.23828l-.9375-.78906m13.8086 2.04297l5.51172-4.36328m-4.70704 3.72656l-1.125-.49219m13.83985 1.35938l5.10547-4.82813m-4.36328 4.125l-1.16407-.39062m13.57813.91797l5.42187-4.47266m-4.63281 3.82031l-1.13281-.46875m13.38672.73828l5.96875-3.70703m-5.10157 3.16797l-1.0625-.61719m13.14844.375l6.6914-2.14843m-5.71874 1.83593l-.8789-.85546m13.36327 1.53515l6.40625-2.88281m-5.47656 2.46484l-.96875-.75m14.14063 2.27735l4.83203-5.10157m-4.12891 4.35938l-1.1836-.32813m15.62891 1.98438l1.16407-6.92969m-.9961 5.92188l-1.16015.39062m14.39843.63281l.98047-6.95703m-.83594 5.94531l-1.15234.41797m16.48828.20313l-3.34765-6.17969m2.85937 5.28125l-.67578 1.02344m16.3125-3.01953l-7.01563-.38672m5.9961.32812l.51562 1.11329m13.7539-1.96094l-6.8828 1.42187m6.8828-1.42187l1.56642 1.89062m10.85156 1.24219l-5.08985-4.84375m4.35157 4.14063l-.33204 1.17968m13.19532.34375L369 317.3047m2.3164 5.54297l-.77734.94921m15.83985-5.48828l-5.41407 4.47657m4.625-3.82422l1.13672.46875m13.52344-.1836l-6.52734 2.60157m6.52734-2.60157l1.8711 1.58594m10.74218-2.6875l-5.125 4.8086m5.125-4.8086l2.32422.78906m8.78906-1.8789l-.72265 6.98828m.72265-6.98828l2.27344-.92578m12.48047 7.4375l-3.59766-6.03516m3.07422 5.15625l-.63672 1.05078m16.14063-2.60547l-6.92969-1.17187m6.92969 1.17187l.77344 2.32813m-1.78125-2.4961l.38671 1.16407m13.1172-3.89063l-5.29298 4.6211"/><g clip-path="url(#aj)"><path fill="none" stroke="#000" stroke-linecap="round" stroke-linejoin="round" stroke-miterlimit="10" stroke-width=".5" d="M466.20703 318.23828l2.29297.8711"/></g><path fill="none" stroke="#000" stroke-linecap="round" stroke-linejoin="round" stroke-miterlimit="10" stroke-width=".5" d="M465.4375 318.91016l1.14844.4375"/><path fill="#00f" fill-rule="evenodd" d="M370.48438 401.07422h8.62109v-10.14844h-8.6211v10.14844"/><path fill="azure" fill-rule="evenodd" d="M372.3164 392.76172h.83594v2.82031h3.28516v-2.82031h.83203v6.47656h-.83203v-2.91406h-3.28516v2.91406h-.83593v-6.47656"/><path fill="#ff3030" fill-rule="evenodd" d="M189.20703 387.75781h7.6914v-10.14453h-7.6914v10.14453"/><path fill="azure" fill-rule="evenodd" d="M191.03906 379.44531h.83594v5.73828h3.1914v.7422h-4.02734v-6.48048"/><path fill="#ffffe0" fill-rule="evenodd" d="M416.08203 463.4414h22.1836V453.25h-22.1836v10.1914"/><path fill-rule="evenodd" d="M419.58203 455.08203h.51172v6.29688h-.78906v-4.4922h-1.38672v-.55468l.5586-.0664.25-.05079.23046-.08984.20313-.14453.17578-.20703.14062-.29688.10547-.39453m4.8164 0l.22657.01953.21875.05469.21094.08984.19531.1211.1836.14844.17187.17578.30078.42187.24219.49219.17969.54687.11328.57813.03906.58984-.03906.59375-.11329.58594-.17968.55469-.24219.5-.30078.42969-.17188.17968-.18359.15235-.19531.125-.21094.08984-.21875.0586-.22656.01952-.23047-.01953-.21875-.05859-.20703-.08984-.19922-.125-.1836-.15235-.17187-.17969-.30078-.42968-.24219-.5-.17969-.55469-.11328-.58594-.03906-.59375h.83594l.02734.5664.08203.50392.125.4414.16406.375.19141.30078.21094.22266.22265.13672.22657.04687.22265-.04687.22266-.13672.21094-.22266.1914-.30078.16407-.375.125-.4414.08203-.50391.02734-.5664-.02734-.5586-.08203-.5-.125-.4375-.16407-.36328-.1914-.29297-.21094-.21485-.22266-.1328-.22265-.04298-.22656.04297-.22266.13281-.21094.21485-.1914.29297-.16407.36328-.125.4375-.08203.5-.02734.5586h-.83594l.03906-.58985.11328-.57813.1797-.54687.24218-.49219.30078-.42187.17188-.17579.18359-.14843.19922-.1211.20703-.08984.21875-.05469.23047-.01953m4.94922 0l.23046.01953.21875.05469.20704.08984.19921.1211.1836.14844.17187.17578.30079.42187.24218.49219.17969.54687.11328.57813.03906.58984-.03906.59375-.11328.58594-.17969.55469-.24219.5-.30078.42969-.17187.17968-.1836.15235-.19921.125-.20704.08984-.21875.0586-.23046.01952-.22657-.01953-.21875-.05859-.21093-.08984-.19532-.125-.18359-.15235-.17188-.17969-.30078-.42968-.24218-.5-.1836-.55469-.10937-.58594-.03906-.59375h.83203l.03125.5664.08203.50392.125.4414.16406.375.1875.30078.21094.22266.22265.13672.22657.04687.22656-.04687.22265-.13672.21094-.22266.1914-.30078.16407-.375.125-.4414.08203-.50391.02735-.5664-.02735-.5586-.08203-.5-.125-.4375-.16406-.36328-.1914-.29297-.21094-.21485-.22266-.1328-.22656-.04298-.22657.04297-.22265.13281-.21094.21485-.1875.29297-.16406.36328-.125.4375-.08203.5-.03125.5586h-.83204l.03907-.58985.10937-.57813.1836-.54687.24218-.49219.30079-.42187.17187-.17579.1836-.14843.1953-.1211.21094-.08984.21875-.05469.22657-.01953m4.95312 0l.38672.02735.35938.08203.32421.13671.27735.1875.23047.23829.17187.28515.10938.33203.03906.37891-.01953.27344-.0586.23437-.08593.19922-.11329.17188-.1289.14453-.14063.1211-.28515.1953.23047.1211.20703.14453.1836.17187.15233.19532.125.21093.08985.23047.05469.2461.01953.2539-.03516.3086-.10156.32812-.17188.32422-.23828.30469-.3086.26953-.375.21484-.21093.08203-.22656.0625-.2461.03516-.26171.01563-.25782-.01563-.24218-.03516-.22266-.0625-.20703-.08203-.35938-.21484-.28906-.26953-.22265-.30469-.15625-.32422-.09375-.32812-.03125-.3086h.83203l.02734.2539.07813.23438.125.21094.16015.1875.1914.15235.21876.11328.24219.07421.2539.02344.25781-.02344.23829-.07421.21875-.11329.1953-.15234.16016-.1875.1211-.21094.07812-.23437.02735-.2539-.02735-.25391-.07812-.23438-.1211-.21094-.16015-.1875-.19531-.14843-.21875-.1172-.23829-.0703-.2578-.02735-.25392.02735-.24218.0703-.21875.1172-.1914.14843-.16017.1875-.125.21094-.07812.23438-.02734.2539h-.83204l.01954-.2539.05468-.23829.09375-.22656.1211-.20703.15625-.1914.17969-.17188.20703-.15234.23437-.13282-.28906-.1953-.13672-.1211-.1289-.14453-.11329-.17188-.08984-.19922-.05469-.23437-.02344-.27344h.78907l.02343.21484.06641.1875.10156.16797.13672.14063.16797.10937.1875.08203.20703.05079.21875.01562.22266-.01563.20703-.05078.1875-.08203.16406-.10937.13672-.14063.10547-.16797.0664-.1875.02344-.21484-.02344-.21484-.0664-.19141-.10547-.16797-.13672-.14062-.16406-.10938-.1875-.08203-.20703-.05078-.22266-.01563-.21875.01563-.20703.05078-.1875.08203-.16797.10938-.13672.14062-.10156.16797-.0664.1914-.02344.21485h-.78907l.03907-.3789.10937-.33204.17188-.28515.23046-.23829.28125-.1875.32032-.13671.35937-.08204.38672-.02734"/><path fill="#ffffe0" fill-rule="evenodd" d="M323.99219 351.22656h22.17969v-10.1914h-22.1797v10.1914"/><path fill-rule="evenodd" d="M327.48828 342.86719H328v6.29687h-.78906v-4.49219h-1.38672v-.55468l.5586-.0664.2539-.05079.22656-.08984.20703-.14063.17188-.21094.14062-.29687.10547-.39453m4.8164 0l.22657.01953.21875.05469.21094.08984.19531.1211.1836.14843.17187.17578.30078.42188.2461.49219.17968.54687.10938.57813.03906.59375-.03906.58984-.10938.58594-.17969.55468-.24609.5-.30078.4297-.17188.17968-.18359.15234-.19531.125-.21094.08985-.21875.05859-.22656.01953-.23047-.01953-.21875-.0586-.20703-.08984-.19922-.125-.1836-.15234-.17187-.17969-.30078-.42969-.24219-.5-.17969-.55468-.11328-.58594-.03515-.58985h.83203l.02734.5625.08203.50391.125.44531.16406.3711.19141.30078.21094.22265.22265.13672.22657.04688.22656-.04688.22266-.13671.21093-.22266.1875-.30078.16407-.3711.125-.4453.08203-.50392.03125-.5625-.03125-.5625-.08203-.5-.125-.4375-.16407-.36328-.1875-.29296-.21093-.21485-.22266-.13281-.22656-.04297-.22656.04297-.22266.13281-.21094.21485-.1914.29296-.16407.36329-.125.4375-.08203.5-.02734.5625h-.83203l.03515-.59375.11328-.57813.1797-.54688.24218-.49218.30078-.42188.17188-.17578.18359-.14844.19922-.12109.20703-.08984.21875-.0547.23047-.01952m5.08984 0h.50781v6.29687h-.78515v-4.49219h-1.38672v-.55468l.5586-.0664.25-.05079.23046-.08984.20313-.14063.17578-.21094.14062-.29687.10547-.39453m2.82422 2.17578h.78516l.01953-.3164.0625-.28516.09765-.25391.14063-.21484.17969-.17188.22265-.1289.26563-.08204.3086-.02734.23827.01953.22266.0625.20703.10156.17578.14063.14844.17187.11328.20704.07422.23437.02344.26563-.01954.26953-.0664.22265-.10938.1914-.15625.17188-.20312.16407-.2461.16406-.6328.39062-.53907.3125-.4375.31641-.34375.32422-.26563.33594-.1914.35156-.125.3711-.0664.39062-.02344.42187h4.21484v-.74219h-3.33203l.08203-.28515.11328-.23438.14844-.20312.1875-.17969.23047-.17187.27734-.17579.71875-.41406.41406-.20703.34766-.23047.27734-.25.22266-.26953.16406-.27734.10938-.28516.0625-.28515.02343-.28125-.04296-.38282-.1211-.34765-.1875-.3086-.2539-.26172-.30079-.21093-.34375-.16016-.3828-.09766-.40626-.03515-.4336.03515-.39843.09766-.35547.16406-.30469.23438-.25.30469-.18359.375-.11719.4453-.03906.51954"/><path fill="#ffffe0" fill-rule="evenodd" d="M181.96484 360.75781h22.1797V350.5625h-22.1797v10.19531"/><path fill-rule="evenodd" d="M185.46094 352.39844h.51172v6.29297h-.78907v-4.48829h-1.38672v-.55468l.5586-.0664.2539-.0547.22657-.08984.20703-.14063.17187-.21093.14063-.29297.10547-.39453m4.8164 0l.22657.01953.21875.05469.21093.08984.19532.1211.18359.14843.17188.17578.30078.41797.24609.4961.17969.54687.10937.57813.03906.58984-.03906.59375-.10937.58594-.17969.55078-.2461.5039-.30077.42579-.17188.17968-.1836.15625-.1953.1211-.21094.09375-.21875.05468-.22657.01954-.23047-.01954-.21875-.05468-.20703-.09375-.19922-.1211-.18359-.15625-.17187-.17969-.30078-.42578-.2422-.5039-.17968-.55078-.11328-.58594-.03906-.59375h.83593l.02735.5625.08203.50781.125.4414.16406.375.1914.30079.21095.22265.22265.13672.22656.04688.22657-.04688.22265-.13671.21094-.22266.1875-.30078.16406-.375.125-.4414.08203-.50782.03125-.5625-.03125-.5625-.08203-.5-.125-.4336-.16406-.36718-.1875-.29297-.21094-.21094-.22265-.13281-.22657-.04688-.22656.04688-.22266.13281-.21093.21094-.1914.29297-.16407.36719-.125.43359-.08203.5-.02735.5625h-.83593l.03906-.58985.11328-.57812.17969-.54688.24219-.49609.30078-.41797.17187-.17578.1836-.14844.19921-.12109.20703-.08984.21875-.0547.23047-.01952m5.08985 0h.50781v6.29297h-.78516v-4.48829h-1.38672v-.55468l.5586-.0664.25-.0547.23047-.08984.20312-.14063.17578-.21093.14063-.29297.10547-.39453m2.82422 2.17578h.78515l.01953-.3164.0625-.28907.09766-.25.14063-.21484.17968-.17579.22266-.1289.26562-.08203.3086-.02735.23828.02344.22266.0625.20703.10156.17578.13672.14844.17578.11328.20313.07422.23828.02343.26172-.01953.26953-.0664.22656-.10938.1914-.15625.17188-.20313.16016-.24609.16797-.63281.38672-.53906.3125-.4375.32031-.34375.32422-.26563.33594-.1914.34765-.125.3711-.06641.39453-.02344.41797h4.21484v-.73829h-3.33593l.08594-.28515.11328-.23828.14843-.19922.1875-.1836.23047-.16796.27735-.17579.71875-.41796.41406-.20704.34766-.23046.27734-.25.22266-.26563.16015-.28125.11328-.28125.0625-.28515.01953-.28125-.03906-.38282-.1211-.34765-.1875-.3086-.2539-.26172-.30078-.21484-.34375-.15625-.38281-.10156-.40625-.03125-.4336.03125-.39843.09765-.35547.16797-.30469.23438-.25.30469-.1836.375-.11718.4453-.03906.51954"/><path fill="#ffffe0" fill-rule="evenodd" d="M190.83984 432.32031h22.1797v-10.1914h-22.1797v10.1914"/><path fill-rule="evenodd" d="M194.33984 423.96094h.50782v6.29687h-.78516v-4.49219h-1.39063v-.55468l.5625-.0625.25-.05469.23047-.08984.20313-.14063.17578-.21094.14063-.29296.10546-.39844m4.8125 0l.23047.01953.21875.05469.20703.08984.19532.1211.1875.15234.16797.17578.30468.41797.24219.49219.17969.54687.11328.57813.03516.59375-.03516.59375-.11328.58203-.17969.55468-.24219.5-.30469.4297-.16796.17968-.1875.15234-.19532.125-.20703.08985-.21875.05859-.23047.01953-.23047-.01953-.21875-.0586-.20703-.08984-.1953-.125-.1836-.15234-.17188-.17969-.30078-.42969-.2461-.5-.17968-.55468-.10938-.58204-.03906-.59375h.83203l.03125.5625.08203.50391.125.44531.16016.375.1914.30079.21095.21875.22265.13671.22656.04688.22657-.04688.22265-.13671.21094-.21875.1914-.30079.16016-.375.1289-.4453.08204-.50392.02734-.5625-.02734-.5625-.08203-.5-.1289-.4375-.16016-.36328-.19141-.29296-.21094-.21485-.22265-.1289-.22657-.04688-.22656.04688-.22266.1289-.21093.21485-.1914.29296-.16017.36329-.125.4375-.08203.5-.03125.5625h-.83203l.03906-.59375.10938-.57813.17969-.54688.2461-.49218.30077-.41797.17188-.17578.1836-.15235.1953-.12109.20703-.08984.21875-.0547.23047-.01952m5.09375 0h.50782v6.29687h-.78907v-4.49219h-1.38672v-.55468l.5586-.0625.2539-.05469.23047-.08984.20313-.14063.17187-.21094.14063-.29296.10937-.39844m2.82032 2.17578h.78906l.01953-.3164.0586-.28516.09765-.25391.14063-.21484.18359-.17188.22266-.1289.26562-.08204.3086-.02734.23437.01953.22656.0664.20313.10157.17968.13672.14844.17187.11328.20704.07031.23437.02735.26563-.02344.26953-.0664.22265-.10938.1914-.15625.17188-.19922.16407-.2461.16406-.63671.39062-.53516.3125-.4375.31641-.34765.32422-.26563.33594-.1875.35156-.125.3711-.07031.39062-.01953.42187h4.21094v-.74219h-3.33204l.08203-.28515.11329-.23438.14843-.20312.1875-.17969.23047-.17187.28125-.17579.71485-.41406.41406-.20703.34766-.23047.28125-.25.21875-.26953.16406-.27734.10937-.28516.0664-.28515.01954-.28125-.04297-.38282-.1211-.34765-.1875-.3086-.25-.26172-.30468-.21093-.34375-.16016-.3789-.09766-.40626-.03515-.4375.03515-.39843.09766-.35547.16797-.30469.23437-.2461.30079-.1875.375-.11327.4453-.04297.51954"/></g></defs><use xlink:href="#ak"/></svg>