<svg xmlns="http://www.w3.org/2000/svg" role="img" xmlns:xlink="http://www.w3.org/1999/xlink" viewBox="142.45 309.95 326.84 171.84"><defs><clipPath id="a"><path d="M144 437h1v43.32813h-1zm0 0"/></clipPath><clipPath id="b"><path d="M144 311.67188h1V435h-1zm0 0"/></clipPath><clipPath id="c"><path d="M144 311.67188h324v168.65625H144zm0 0"/></clipPath><clipPath id="d"><path d="M380 457h15v23.32813h-15zm0 0"/></clipPath><clipPath id="e"><path d="M467 311.67188h1v168.65625h-1zm0 0"/></clipPath><clipPath id="f"><path d="M144 479h4v1.32813h-4zm0 0"/></clipPath><clipPath id="g"><path d="M147 480h2v.32813h-2zm0 0"/></clipPath><clipPath id="h"><path d="M146 480h2v.32813h-2zm0 0"/></clipPath><clipPath id="i"><path d="M153 479h9v1.32813h-9zm0 0"/></clipPath><clipPath id="j"><path d="M160 480h2v.32813h-2zm0 0"/></clipPath><clipPath id="k"><path d="M159 480h2v.32813h-2zm0 0"/></clipPath><clipPath id="l"><path d="M166 479h9v1.32813h-9zm0 0"/></clipPath><clipPath id="m"><path d="M173 480h3v.32813h-3zm0 0"/></clipPath><clipPath id="n"><path d="M172 480h2v.32813h-2zm0 0"/></clipPath><clipPath id="o"><path d="M180 479h8v1.32813h-8zm0 0"/></clipPath><clipPath id="p"><path d="M187 480h2v.32813h-2zm0 0"/></clipPath><clipPath id="q"><path d="M186 480h2v.32813h-2zm0 0"/></clipPath><clipPath id="r"><path d="M193 479h8v1.32813h-8zm0 0"/></clipPath><clipPath id="s"><path d="M200 480h2v.32813h-2zm0 0"/></clipPath><clipPath id="t"><path d="M206 479h9v1.32813h-9zm0 0"/></clipPath><clipPath id="u"><path d="M213 480h3v.32813h-3zm0 0"/></clipPath><clipPath id="v"><path d="M220 479h8v1.32813h-8zm0 0"/></clipPath><clipPath id="w"><path d="M227 480h2v.32813h-2zm0 0"/></clipPath><clipPath id="x"><path d="M233 479h8v1.32813h-8zm0 0"/></clipPath><clipPath id="y"><path d="M240 479h3v1.32813h-3zm0 0"/></clipPath><clipPath id="z"><path d="M246 479h9v1.32813h-9zm0 0"/></clipPath><clipPath id="A"><path d="M253 479h3v1.32813h-3zm0 0"/></clipPath><clipPath id="B"><path d="M260 479h8v1.32813h-8zm0 0"/></clipPath><clipPath id="C"><path d="M266 479h2v1.32813h-2zm0 0"/></clipPath><clipPath id="D"><path d="M273 479h8v1.32813h-8zm0 0"/></clipPath><clipPath id="E"><path d="M279 480h2v.32813h-2zm0 0"/></clipPath><clipPath id="F"><path d="M286 479h9v1.32813h-9zm0 0"/></clipPath><clipPath id="G"><path d="M300 479h8v1.32813h-8zm0 0"/></clipPath><clipPath id="H"><path d="M314 477h6v3.32813h-6zm0 0"/></clipPath><clipPath id="I"><path d="M327 478h7v2.32813h-7zm0 0"/></clipPath><clipPath id="J"><path d="M326 480h3v.32813h-3zm0 0"/></clipPath><clipPath id="K"><path d="M340 479h8v1.32813h-8zm0 0"/></clipPath><clipPath id="L"><path d="M340 479h2v1.32813h-2zm0 0"/></clipPath><clipPath id="M"><path d="M353 479h8v1.32813h-8zm0 0"/></clipPath><clipPath id="N"><path d="M353 479h2v1.32813h-2zm0 0"/></clipPath><clipPath id="O"><path d="M367 478h7v2.32813h-7zm0 0"/></clipPath><clipPath id="P"><path d="M366 480h3v.32813h-3zm0 0"/></clipPath><clipPath id="Q"><path d="M380 478h7v2.32813h-7zm0 0"/></clipPath><clipPath id="R"><path d="M380 480h2v.32813h-2zm0 0"/></clipPath><clipPath id="S"><path d="M393 478h8v2.32813h-8zm0 0"/></clipPath><clipPath id="T"><path d="M391 479h3v1.32813h-3zm0 0"/></clipPath><clipPath id="U"><path d="M406 478h8v2.32813h-8zm0 0"/></clipPath><clipPath id="V"><path d="M404 479h4v1.32813h-4zm0 0"/></clipPath><clipPath id="W"><path d="M421 476h5v4.32813h-5zm0 0"/></clipPath><clipPath id="X"><path d="M433 479h8v1.32813h-8zm0 0"/></clipPath><clipPath id="Y"><path d="M439 479h2v1.32813h-2zm0 0"/></clipPath><clipPath id="Z"><path d="M449 476h2v4.32813h-2zm0 0"/></clipPath><clipPath id="aa"><path d="M461 477h6v3.32813h-6zm0 0"/></clipPath><clipPath id="ab"><path d="M144 465h4v4h-4zm0 0"/></clipPath><clipPath id="ac"><path d="M144 452h4v3h-4zm0 0"/></clipPath><clipPath id="ad"><path d="M466 451h2v3h-2zm0 0"/></clipPath><clipPath id="ae"><path d="M144 438h4v5h-4zm0 0"/></clipPath><clipPath id="af"><path d="M466 440h2v3h-2zm0 0"/></clipPath><clipPath id="ag"><path d="M144 425h4v4h-4zm0 0"/></clipPath><clipPath id="ah"><path d="M466 425h2v3h-2zm0 0"/></clipPath><clipPath id="ai"><path d="M144 411h4v5h-4zm0 0"/></clipPath><clipPath id="aj"><path d="M466 411h2v3h-2zm0 0"/></clipPath><clipPath id="ak"><path d="M465 412h3v2h-3zm0 0"/></clipPath><clipPath id="al"><path d="M144 399h4v3h-4zm0 0"/></clipPath><clipPath id="am"><path d="M466 398h2v2h-2zm0 0"/></clipPath><clipPath id="an"><path d="M465 398h3v3h-3zm0 0"/></clipPath><clipPath id="ao"><path d="M144 386h4v3h-4zm0 0"/></clipPath><clipPath id="ap"><path d="M466 385h2v3h-2zm0 0"/></clipPath><clipPath id="aq"><path d="M144 373h4v2h-4zm0 0"/></clipPath><clipPath id="ar"><path d="M466 372h2v3h-2zm0 0"/></clipPath><clipPath id="as"><path d="M144 360h4v1h-4zm0 0"/></clipPath><clipPath id="at"><path d="M466 358h2v3h-2zm0 0"/></clipPath><clipPath id="au"><path d="M144 346h4v3h-4zm0 0"/></clipPath><clipPath id="av"><path d="M466 345h2v4h-2zm0 0"/></clipPath><clipPath id="aw"><path d="M144 332h4v4h-4zm0 0"/></clipPath><clipPath id="ax"><path d="M466 332h2v3h-2zm0 0"/></clipPath><clipPath id="ay"><path d="M144 318h4v5h-4zm0 0"/></clipPath><clipPath id="az"><path d="M466 318h2v2h-2zm0 0"/></clipPath><clipPath id="aA"><path d="M465 318h3v3h-3zm0 0"/></clipPath><g id="aB" clip-path="url(#clip1)"><path fill="#fff" fill-opacity="0" fill-rule="evenodd" d="M0 0h1000v1000H0zm0 0"/><path fill="#d3d3d3" fill-opacity="0" fill-rule="evenodd" d="M162.15234 355.86719l-.23437.29297.0586.23437.11718.17188.17578.23437.29297.34766.11328.0586.11719-.17188.0586-.23438.17577-.17578.46485-.17578h.69922l.23437.29297.28906.8164.0586.17579.17578.23046.35156.23438.69922.69922.17188.17578.23437.34765.23438.41016.28906.58203.41015.46485.23047.23437.23438.17578.11719.23047.17578.29297.17187 1.16406v.23438l.0586.28906.05859.11719.11719.11719.34765.41015.11719.17188.17578.17578.17578.23437.11719.17188.17188.35156.05859.23438.23437.40625.23438-.0586-.17578.17578-.0586.92969h-.58203l-.23437-.11328-.34766.11328-.11719.11719-.05859.29297-.0586.17578-.11718.17187-.46484.29297-.0586.23438-.0586.11328v.64453l.0586.17187v.41016l.0586.0586v.40624l.05859.40625.11719.17579.05859.05859.23047.64062-.0586.29297v.69922l-.05859.58203v.23438l-.0586.23047-.05468.35156v1.92187l.05469.1172h.42578l-.36719.11718-.02344.35156.89063 1.16797 1.74219.53906 1.33984.35938v.53906l.08984.8086.53516.71484 1.51953.26953.89063-.08594.08984 1.16406.53516.1797 1.16015-.1797 2.05469-.98437 1.16016-.36328 1.8789-.17578 1.69531-.1797-.17968.71876-1.51563.08594-1.25.08984-.80469.26953-1.07421.8086.26953.71875.53515.89843-.17968.625-.26563.8086.26563 1.07812.625.89844.80468.17969 1.25-.1797-.26562.72267.09766.5039.05468.29297v.17188l.0586.29296v.40625l.17578.1172.35156.11718h.40625l.29297-.17578.11328-.11719.0586-.11719.11718-.23047.0586-.17578.35156-.46484.23047-.17578.17578-.0586.17578.0586.0586.17578.11718.98828.05469.46875.0586.17188.11718.23437.17578.0586.8164.05859h.28907l.11719.23437.05859.40625.0586.35156v1.10547l.11718.29297.11719.34766.28906.69922.17578.35156.58203.7539.35157.17579.17187.0586.46875.23437.64063.46484.34765.23438.29297.17578.29297.05468.23047.0625.8164.34766.29297.17578.11328.17188.35157.35156.11719.17578.52343.64063v.28906l.0586.35156v.34766l.05859.35156.0586.28906.11718.0586.17188.05859h.17578l.58203.23437.17578.1172.17578.28905.17578.23438.11328.23437.29297.23047.11719.11719v.41016l.0586.05468.28906.23438.23437.11719.0586.11718.11718.17188.0586.11719.23047.23437.05859.17578.23437.0586.1172.05859-.1172.11328-.05859.11719v.11719l-.11719.29296-.11719.28907v.58203l.17579.11719.11718.05859.0586.11719.11719.11719.11328.05859.17578.34765.0586.35157.05858.40625v.17578l-.05859.17578-.11719.69922v.17187l.1172.17579.29296.29296h.40625l.17578.1172.11719.17187.11719.29296v.23438h-.52735l-.23047-.23438h-.23437l-.17578.0586-.0586.69922.0586.34765.11719.17579.17578.41015.11718.23047.28907.46875.17578.05469h.52344l.23437.0586.75781.64062.0586.29296v.23438l.05859.0586.23047.34765v.35156l-.11719.17188v.29297l.29297.28906.29297.17578.17187.0586.29297.17577.29297.1172.58203.40624.28906.23438.29297.17578.21875.16015.01563.01172.23047.17579.64062.52343.17578.23438.1172.17578.17577.17578.11328.17188v.64062l.1172.17578.46874.11719.58203.11719.23438.05859.23047.11328.29297.11719.11328.0586.58593.35156.28907.17187.17578.0625.17578.05469.17578.0586.69922.35155.28906.17579.23438.05468.28906.17578.23437.1172.64063.40624.29297.11719.17187.0586.23438.05859.41015.05859.23047.0586.23438.11718.0586.17188-.41017.17578.46875.0586.0586.29296.11328.23438.17578.05468.23438.0586.17578.05859.40625.11719.64062.23437.11719.17188.0586.23437v.17578l-.0586.1172-.0586.40624.23438.23438.11719.05859.34766.11719.64062.23047.17578.11718.28906.1172.17578.17577.23438.46485.58203 1.10546.17578.17579.34766.17578.17578.11719.35156.11718 1.04688.52344.23437.0586.46485.11327.29297.0586.46484.17578.75781.58203.23438.23438.34765.46484.17578.17578.28907.23438.8164.69921.29297.17579.28906.28906.29297.17578.29297.28906.69531.64063.17578.17578.29297.23437.28907.23438.46875.28906.64062.58203.34766.23438.23437.29297.34766.34765.35156.46485.9336.99218.34765.40625.11719.17579.23437.05859.11328.11719.64454.17578.23047.11328.23437.0586.29297.17577.23047.1172.9336.69921.40624.40625.23438.17578.40625.17578.23437.11719.8164.34766.34766.23437.23438.11719.29297.28906.23047.11719.7578.35156.35157.17188.23047.05859.29297.11719.23437.0586.8711.17577h.8164l.46875.23047.17188.0586.875.69921.46484.1172.29297.05858.17578.0586.23047.0586.46875.05859.34766.05859.35156.0586.40625.05859h.29297l.17187.0586v.23046l.17578.17578h.29297l.34766.0586.35156.05859.69922.11719h.64063l.46484-.23438.29297-.17578.17187-.11719.41016-.17187.28906-.17578.9336-.46485.46875-.29297.52343-.29296.46485-.17188.46484-.17578 1.05078-.46485.28906-.11718.41016-.11719.28906-.11719.52735-.17578 1.51562-.69922.58203-.34765.28907-.0586.29297-.0586.34765-.11718.875-.23047.35156-.11719h.11329l.23437-.05859.875-.23437.23438-.0586h.8125l.35156-.0586.8164-.11718.17188-.0586.35156-.05468.29297-.0586.23047-.05859.8164-.17578.17579-.0586h.34765l.23438-.05859.46484-.11718.75781-.17188.23438-.0586h.34765l.41016-.11718.28906-.0586 1.28516-.05859h.28906l.41016-.0586.23047-.05858h.17578l.875-.1172h.40625l.41015-.11718h.34766l.35156-.11328.8711-.0586h1.75l1.04687.28907.41016.11719.28906.11718.35156.11719.28907.11719 1.05078.17187.28906.0586h.29297l.29297.05859.17187.0586.41016.05859.17187.0586.1172.05858h.11718l.11719.0586.35156.0586h.11328l.41016.0664 1.92187.39453 1.92578.39453 1.51953.44922 1.69532.71875 2.14453.80469 1.60547-.71875 1.42968-.80469 1.16016-1.07813 1.25-.44921 3.03516-.71875 1.875-.35938 2.14453-1.34765 2.23437-1.25391 2.5-1.25781 1.69531-.44922 1.78516-.17969 1.16016-.26953.625.53906 1.33984-.26953.71485-.98828.98437-1.34375.44531-.17969.80469-.35937 1.875-.53907 1.78516-.44921 1.25-.26954 1.16015-.08984 1.69922-.08984 1.96094-.26954 1.25-.08984h.53906l.625-.08984h.89063l2.14453-.17969 2.41015-.17969 2.58985-.08984 1.69531.17969 1.60938.08984 1.42968.35938 1.16016.71875 1.875.98828 1.16015 1.52734.26563.71484.6289.08985.35548.89844.53515.53906.53516 1.52734 1.07422.35938h.53515l-.80469.53515.08985 1.70703.71484 2.69532.89063.80468.89453.98829.71484 1.2578 1.78516.53907 1.51953-.17969.35547 1.34375 1.60937-.80469.98047-.53906.26953.26953.31641-.21484.21875-.14453.80078.44922.44922-.35938h.35547l.53515-.26953.53907-.71875.53515-.26953.625-.98828 1.16016.44922.83984.3711 1.39454.61718 1.6953-.17969h1.60548l1.78515.08985.17969-1.70704.53516-1.34375.80468.26954.4922.84765.40233.40625-.08984.53906v.35938l.71485.44922.71093-.26953h1.42969l.35938.98828.4453 1.25781.71485 1.34375 1.25.6289 1.69531.62891.71485-.17969.17969-.53906.98046-.08984.44922.35937.08594 1.25782-.26563.6289-.53515.17969v.53906l.71484.98438.26563.53906.98437.98828.80078 1.07813-.26562.35937-.08985.89844-.625 2.33203-.35546 2.0664-.08985 1.79298-.17969.71875-.08984.53906v1.4375l-.98047 1.88281-.35937 1.70703-.53516.89844-.80469 1.16797-.26562.53906 2.05469 1.2539.08593.35938-.35546.53906-.08985-.17968v.80859l.08985 1.4375-.44532.71484-1.07422.09375-.26562.71485.53515.89844.8047.71875 1.16015.80859 1.33984.26953.44531.35938-.35546.44921-1.78907-.08984-1.25-.44922-.71484-.71875-.625-.08984-.17578 3.58984-.1875 1.3086h89.35937V311.70313h-55.26953v49.08203l.76172.125 3.28906.54296 2.02344 2.83594v2.7539l2.35156.33204 2.34766.33203h4.05078l-1.3789 4.16016-2.02344.70703-2.02344.70312-.54297.34375-2.59375 1.6172-.1875.11718-2.02344-2.07813-.73046-2.74218-2.67188-2.07813-1.375-3.5-.0664-.08203-1.95704-2.67188 2.75-1.41796v-49.08204H294.42187v91.41407l.1172.03125.1328.01172.07422.07421.10547.04688.08985.0586.08593.05859.08985.0586.29687.29687.0586.08984.03125.11719.02734.11719.01563.13671-.03125.1172-.0586.08983-.0586.08594-.04296.10547-.04688.10156-.02734.1211v.14453l.17578.26953.14844.14844.07422.08594.07422.07421.04296.10547.0625.08985.0586.08593.04297.10547.0586.08985.04687.10156.04296.10547.0586.08594.11719.17968.07421.07422.0625.08594.0586.08984.04297.10547.0586.08985.05858.08593.0625.08985.0586.08984.04297.10156.11719.17969.07421.07422.0586.08594.07422.07421.08984.0586.10547.04687h.14844l.1328-.01562.13282.01562.10156-.04687.07422-.07422.04688-.10156-.01563-.13281v-.14844l-.04687-.10547-.02735-.11719-.04687-.10156-.02735-.1211-.04296-.10156-.0625-.08984-.04297-.10156-.04297-.10547-.03125-.11719-.01563-.13281-.01171-.13672.08593-.0586.0586-.08593.12109-.03125.04297.10547.01562.1328v.1172l.0586.10156.0586.08984.08983.0586.14844.14843.0586.08985.04296.10547-.01171.10156.08593.0586.10547.04687.08594.0586.08984.05858.07422.07422-.11719.02735-.10546.04687-.08594.0586-.07422.07421-.0586.08985-.0625.08594-.02734.12109-.04687.10156-.04297.10547-.03125.11719-.01172.13281-.01563.13281v.14844l.02735.11719.04687.10547.04297.10156.0586.08984.07421.07422.08985.0586.07422.07421.08984.0586.0586.08984.04296.10547.04688.10156.11719.03125.1328.01563h.14845l.11718-.03125.10547.04297.04297.10547.04688.10156.02734.1211L299.5 410l.02734.11719.03125.1211.02735.11718.10547.04297.10156.04687.13281-.01562.14844.14844.0625.08593.07422.07422.07031.07422.08984.0625.10547.04297.10156.04297.1172.03125.13671.01562.11719-.03125.07422-.07422.02734-.11718-.01172-.13282-.03125-.12109-.02734-.11719.04297-.10547h.11719l.08984.0625.11719.02735h.14843l.13282.01562h.14843l.13282.01563.1328-.01563h.14845l.1328-.01562.13282-.01172.13672.01172.11719-.02735.13281-.01562.1914-.0586-.05859.17579-.01562.1328-.02735.1211-.01562.13281-.0586.08594-.1328.01563-.10548.04687-.10546.04297-.1172.03125-.11718.02735-.26563.03125h-.14843l-.13281.01562-.07422.07422.05859.08594.14844.14843.11719.1797.07421.0703.08985.0625.08984.0586.08594.0586.08984.05858.10156.04297.10547.0625.10547.04297.08594.0586.10547.04687.10156.04297.17969.11719.0586.08984-.04298.10156-.04687.10547.01562.13281.22266.22266.0586.08985.04296.10156.03125.1211.04297.10155.01563.13282.03125.11718.01171.13672.03125.11719.14844.14844.10156.04297.10547.04296.1172.03125.1328.01563.13672.01563h.11719l.11719-.03125.08984-.0586.04297-.10547.04688-.10156.04296-.10547.03125-.11719.01172-.1328v-.14845l-.01172-.1328-.01562-.13282-.03125-.11719-.04297-.10547-.04688-.10547-.04296-.10156-.04297-.10547-.01563-.13281.01563-.13281.02734-.11719.03125-.11719.02735-.1211.04687-.10155.08984-.0586.08594-.0625.07422-.07422.08984-.05859.22266-.22266.0586-.08593.07421-.07422.11719-.17969.0586-.08594v-.14844l-.07423-.07421-.10156-.04688-.10547-.04297-.10156-.04297-.0586-.08984-.04687-.10547-.02734-.11719.08984-.05859.11719-.03125.10156-.04297.17969-.11719.14844-.14843.01172-.13282-.01172-.10546-.08985-.0586-.1328.01563h-.14845l-.1328.01562-.13282-.01562-.1211-.03125-.08593-.0586-.07422-.07422-.0586-.08984-.0625-.08594-.11718-.17969-.0586-.08593.03125-.1211.08594-.05859.1211-.03125.05859-.08594v-.1211l-.03125-.11718-.0586-.08984-.05859-.08594-.04687-.10547-.02735-.11719-.01562-.1328.0586-.08985.07421-.07422.08984-.0586.1172-.17968.07421-.07422.0586-.08594.14843-.14844.1211-.03125.1328-.01562.13282.01562.07422.07422.04297.10547.01562.13281-.03125.1172-.11719.03124-.1328.01172-.14844.14844-.04297.10547-.04688.10156-.02734.1211-.03125.11718v.14844l.03125.11719.04297.10546.05859.08985.07422.07031.07422.07422.11719.03125.12109.02734.11719-.02734.1328-.01563h.1172l.08984.0586.07422.07422.04687.10546.0586.08594.10156.04688.13281.01562.10547.04297.08594.0586-.01172.10546-.07422.07422-.17969.11719-.05859.08984-.08984.0586-.07032.07422-.07421.07421-.0625.08985-.02735.11719-.01562.1328.01562.13282-.01562.13281v.14844l.01562.13281.02735.1172.03125.12108.07421.07422.08985.0586.08594.0586.08984.05858.11719.03125v.08594l-.10157.04688-.08984.0586-.26563.03124-.11718.02735h-.14844l-.10547.04296-.10156.04688-.0586.08984-.0625.23438-.01171.13281-.03125.1211-.01563.1328v.29298l-.01172.1328.01172.13673.01563.1328.1328.01563.13282.01172.1211.03125.08593.0586.07422.07421.04688.10547.04296.10157.01563.1328v.44532l-.01563.13281v.44532l.03125.26562.02735.11719.01562.13281.03125.11719.08594.21094.03125.26562v.14844l-.03125.11719-.02734.11718-.03125.1211-.02735.11719-.03125.11718-.03125.1211-.01171.1328-.01563.13282.08984.0586.1172-.03125.10155.01562.04688.10547-.03125.26562v.44141l-.04297.10547-.04688.10547-.04296.10156-.04297.10547-.0586.08594-.03125.12109-.04296.11719-.03125.11719-.01563.1328.01563.13282.05859.08984.10547.04688.08594.0586.05859.08593-.01172.13672-.03125.11719-.04297.10156v.44531l-.01562.13281v.14844l-.03125.11719-.04297.10547-.02735.11719-.04687.10546-.04297.10157-.03125.12109-.02734.11719-.03125.13281-.03125.11719-.02735.11719-.04297.10546-.03125.1172-.03125.12108-.01171.13282-.01563.13281v.29688l.02734.11718v.14844l.04688.39844.02734.11719.0586.08984.12109.03125h.14844l.13281-.01563.0586.08985v.11719l-.0586.08984-.08984.0586-.10157.04296-.10546.04688-.08985.05859-.08594.0586-.13671.01562-.1172-.03125-.1328-.01563-.10157.04688-.0625.08594-.01172.13671-.01562.13282-.03125.11719-.02735.11718-.01562.13281-.03125.1211v.29687l.01563.13282.03125.11718v.14844l.01171.13281v.14844l-.02734.11719-.04688.10156-.02734.1211-.03125.11718-.0586.08985-.07421.07421-.10156.04297-.10547.04688-.11719.02734-.1211.03125-.10156-.04687.0586-.08594.10547-.04688.02734-.11718.03125-.11719.02734-.1211.03125-.11718v-.14844l.01563-.13281-.03125-.11719-.04297-.10547-.10547.01563-.07422.07422-.10156.04296-.08984.0625-.07422.07422-.04297.10157-.01563.1328-.03125.1172L304.25 426l-.03125.11719-.02734.11719-.03125.12109-.02735.11719-.03125.11718-.04297.10547-.08984.0586h-.08984l-.1172-.03125-.03124-.08594.01562-.13672-.03125-.11719v-.14844l-.01171-.1328v-.14844l-.0625-.23438-.02735-.1211-.04297-.10156-.04687-.10546-.0586-.08594-.05859-.08985-.04297-.10546-.0625-.08594-.14844-.14844-.0703-.07422-.10548-.04687-.10547-.04297-.10156-.04297-.29687-.29688-.08985-.07421-.08594-.0586-.10546-.04297-.08985-.0625-.08594-.0586-.10546-.04296-.08985-.0586-.08594-.0625-.07421-.0703-.10547-.04688-.08594-.0586-.10547-.04296-.08984-.0625-.10156-.04297-.10547-.04297-.08594-.0586-.10547-.04687-.10547-.04297-.10156-.04687-.08985-.0586-.10156-.04297-.10547-.04296-.08984-.0625-.11719-.02735-.13281-.01562-.13281.01562H299.75l-.13281.01563-.11719-.03125-.08984-.0586-.07422-.07422-.08985-.05859-.10156-.04688h-.14844l-.12109-.02734-.10156-.04297-.07422-.07422-.11719-.17968-.08984-.0586-.10156-.04297-.08985-.0625-.10547-.04296-.08984-.0586-.08594-.0586-.10547-.04687-.0586-.08594-.05858-.08984-.04297-.10547-.04688-.10156-.07422-.07422-.08594-.0586-.07421-.07421-.08985-.0586-.22265-.22265-.04297-.10547-.03125-.26563.10547-.04296h.14453l.10547.04296.07421.07422.08985.0586.08594.0586.10546.04687.08985.05859.14844.14844.0703.07422.14845.14843.0625.08594.07421.07422.08594.0586.07422.07421.08985.0625.08984.0586.08594.05859.26953.17578.10156.04688.10547.04296.10156.04297.04688-.07421.05859-.08594.07422-.07422.07031-.07422.10547.04297.07422.07422.0586.08984.04296.10156.04688.10547.04296.10547.1211.02735.11719-.02735.07421-.08984.04297-.10547.0586-.08985.07422-.07421.10546-.04297.1172-.02735.1328.01172.08985.0586.14844.14843.05859.08985.04297.10547.04687.10156.04297.10547.04297.10156.10547.04688.10547.04296.13281.01563.08594-.0586.0586-.08984.07421-.07422.10547-.04297.11719.02735.10547.04687.10156.04297.10547.04297.10156.04688.17969.11718v.11719l-.01563.13281.01563.13281.01562.13672.0586.08594.10156.04688.1211.02734.11718.03125h.14844l.11719-.03125.05859-.08984.17969-.1172.05859-.08983.07422-.07422.0586-.08594.11718-.17969.17969-.11719.11719.03125.08984.0586.04297.07422-.01563.1328v.1172l.08985.05859h.14843l.13282-.01563.1328-.01171.26563-.03125.10547-.04297.11719-.03125.1211-.02735.07421-.07421.07031-.07422.0625-.08985-.01562-.10547-.04688-.10156-.10156-.04297-.10547-.01562-.11718.02734-.26563.03125h-.14844l-.07421-.07422-.08985-.0586-.11719-.03124-.11718-.02735-.13282-.01562h-.14843l-.13282.01563h-.29687l-.10547-.04688-.14844-.14844-.04297-.10156-.05859-.08984.22266-.22266.08593-.0586.10547-.04296.11719-.03125.13281-.01563.13281.01563.13672.01562.10157.04297.1328-.01172.08985-.0625.10156-.04297.0625-.08984-.04687-.10156-.08984-.0586-.1172-.03125-.10155-.04296-.0586-.08985-.0625-.08984v-.11719l.01563-.13281.10547-.04688.07421-.07031v-.1211l-.08984-.05859-.03125-.11719.08985-.05859.07421-.07422.04297-.10547.0586-.08984.04687-.10156.01563-.13281v-.14844l-.04688-.10547-.04297-.10156-.08984-.0586-.13281-.01562-.10157-.04297-.13671-.01563-.1172-.03125h-.4453l-.13282-.01562-.13281-.01172-.13281-.01563-.11719-.03125h-.14844l-.13281-.01562-.13281-.01172-.26563-.03125-.1211-.04297-.08593-.0586-.07422-.07421v-.14844l.01172-.13281.10547-.04688.10156-.04296.13281-.01563h.15235l.13281-.01562h.29297l.1211.03125.10156.04296.08984.0586.23438.0625.12109-.04688.08984-.05859.10156-.04297.13282-.01562.10547.04296.10156.04688.13281.01172.1211-.02735h.14453l.12109-.03125.11719-.02734.10547-.04687.07421-.07422.08594-.0586.14844-.14843.0586-.08594.04687-.10547.02734-.11719.01563-.10547-.10156-.04296-.08985-.0586-.11719-.03125-.10546-.04297-.08985-.0625-.07422-.08594-.07422-.07421-.10156-.04297-.10547-.04688-.10156-.04297-.0586-.08984-.04687-.10156-.08594-.21094-.0625-.08594-.05859-.08984-.07422-.07422-.08594-.0586h-.26953l-.11719.03126-.08984.05859-.10156.04297-.13281.01562-.10547-.01562-.02735-.11719-.0625-.08984-.11718-.03125-.10157-.04297-.14843-.14844-.03125-.11719-.01563-.10546.07422-.07422.17969-.1172.11719-.02733.11718-.03125.13672.01562.10156.04297.10547.04297.10156.04687.10547.04297.1172.03125.1328.01563.1172.02734.1328.01563.10547-.01563.08985-.0586-.07422-.07421-.10547-.04297-.07422-.07422-.07422-.08984-.14844-.14844-.08593-.0586-.08985-.05859-.07422-.07422-.08984-.0586-.10156-.04687-.1211-.02734-.10156-.04688-.10547-.04296-.11719-.03125-.10156-.04297-.1211-.03125h-.14843l-.11719.03125-.10546.04297-.08594.0625-.17969.11718-.08594.0586-.08984.0586-.10547.04687-.08594.05859-.10547.04297-.10156.04297-.10547.04687-.07422.07422-.05859.08985-.0586.08593-.04687.10547-.0586.08594-.07421.07422-.13281-.01172-.1172-.03125h-.11718l-.07422.07422-.08984.0586-.07422.07421-.08984.0586-.08594.05859-.10547.04687-.10156.04297-.13672.01563-.10156-.04297-.14844-.14844-.10547-.04688h-.08594l-.10547.04688-.10156.04297-.1211.03125-.11718-.03125-.07422-.07422v-.11719l.03125-.1211.07422-.0703.0586-.08985.07421-.07422.11719-.03125.10547-.04296h.29297l.13281-.01563.13672-.01563.10156-.04296.08985-.0586.10156-.04687.08984-.0586.13281-.01171.08985.05859.13281.01172.08984-.0586.08594-.05859.10547-.04297.08984-.0586.08594-.0625.08985-.05859.14843-.14843.0586-.08594.05859-.08985.10547-.04296.13281-.01563.11719.02735.1211.03125.05859-.0586.05859-.08984.03125-.26563.02734-.11719.10547.01172.13281.01563.10157-.04297.08984-.0586.0586-.08984.07421-.07422.0586-.08984.04687-.10156.01172-.13281-.01172-.13282-.04687-.10547-.14844-.14843-.0586-.08985-.05859-.08594-.04297-.10546v-.44532l.01563-.1328v-.14845l.01172-.1328-.0586-.0586-.08984.0586-.10156-.04298-.17969-.11719-.08594-.05859-.0625-.08984-.0586-.08985-.07421-.07421-.08594-.0586-.1211.03125-.10155.01172-.10547.04688-.08594.05859-.10547.04297-.14844.14844-.08984.05859-.08594.0586-.08984.0625-.10547.04296-.13281.01563v-.1211l.10547-.04297.11718-.03125.07422-.0703.04297-.10548v-.14844l-.02734-.11718-.14844-.14844-.13281-.01563h-.14844l-.11719.03125-.10547.04297-.10156.04297-.08984.0625-.11719.02735-.07422-.07422.01172-.13281-.04297-.10157-.04297-.10547-.08984-.05859-.11719.02734-.1211.03125-.11718.03125-.10156.04297-.1211.03125-.10156.04297-.10547.04297-.08984.0586-.10156.01562v-.11719l.01562-.13281-.0586-.08985-.07421.04297-.14844.14844-.0586.08985-.07421.07421-.04688.10547-.04296.10156-.07422.07422-.0586.08985-.07422.07422-.05859.08593-.07422.07422-.08984.0625-.07422.07031-.07422.07422-.10156.01563-.13281.01562-.10547-.04296v-.1211l.14843-.14844.04297-.10156.0586-.08984.04687-.10156.04297-.10547.0586-.08985.03124-.11719.04297-.10156.03125-.1211.02735-.11718.04687-.10547.04297-.10156.04297-.10547.07422-.07031.08984-.0625.08985-.0586.10156-.04296h.29687l.26563-.03125.10547-.04297-.07422-.07422-.11719-.03125-.10547-.04297-.08984-.0586-.10156-.04687-.08985-.0586-.10156-.04296-.10547-.04297-.08984-.0625-.08594-.0586-.10547-.04296-.10156-.04297-.1211-.03125-.11718-.03125-.10157-.04297L297.5 410.25l-.10156-.04297-.08985-.0586-.04296-.10546-.01563-.13281.10156-.04297.13281-.01563.13672.01563.13282-.01563.10156-.04297.0586-.08984.01562-.10547-.08985-.0586-.07421-.07421-.10157-.04297-.08984-.0586-.14844-.14843-.04297-.10547-.01562-.13281v-.29297l-.0586-.08985-.08984-.05859-.07422-.07422-.04297-.10547-.03125-.11718-.0586-.08985-.07421-.07422-.11719-.02734-.07422-.07422-.08984-.0586-.08984-.0625-.08594-.05859-.07422-.07421-.0586-.08594-.04687-.10547-.08594-.0586-.14843-.14843-.19532-.0586-.1328.01563-.10157.04297-.07422.07422-.04688.10156-.04296.10547-.0586.08984-.0586.08594-.29687.29687-.08984.0586h-.08594l-.0625-.08594-.04297-.10547.03125-.11719.0586-.08984.02734-.11719-.01172-.13281-.08984-.0625-.10547.04688-.11719.02734-.11719.03125-.26953.17578-.10156.04688-.11719.02734-.10546.04687-.08985.0586-.10156.04297-.0586-.08594-.04687-.10547.01563-.13281.04687-.10547.07031-.07422.07422-.07031.0586-.08985v-.14843l-.04297-.10547h-.23829l-.10156.04687-.03125.11719-.02734.11719-.03125.1211-.07422.04296-.13281.01563-.07422-.04688-.04297-.10156-.04297-.10547-.04687-.10156-.04297-.10547-.1211.03125-.10156.04297-.13281.01562-.11719.03125-.10547.04297-.08984.0586-.10156.04687-.1211.02734-.13281.01563-.10156-.04297-.0586-.08985-.04687-.10546-.04297-.10157-.04297-.10546v-.1172l.0586-.08984.08593-.05859.17969-.11719.10156-.04687.10547-.04297.10547-.0586.10156-.04296.08985-.0625.10156-.04297.10547-.0586.10156-.04687.08984-.0586.10547-.04296.10156-.04297.08985-.0625.10156-.04297.13672-.01563.11719.03125.10156.04297.1211.03125.10156.04297.10546.04688.10157.04296.10547.04297.10156.04688.10547.04297.10156.04297.10547.04687.08594.0586.10546.04296.1172.03125.10546.04297.10156.04688.08985.0586.10547.04296.10156.04297.10547.04687.11719.02735.10156.04687.1211.02735h.14843l.08594-.0586.01562-.10156.0586-.08984-.02735-.1172-.07422-.07421-.11719-.17969-.07421-.07422-.08985-.07421-.17969-.1172-.08593-.05859-.10547-.04296-.10156-.04688-.26954-.17578-.05859-.08985-.07422-.07421-.0586-.08985-.04296-.10156-.03125-.11719-.01563-.13672v-.5625l-.01171-.1328-.01563-.13282-.03125-.11719-.01562-.13281-.01172-.13281-.03125-.1211-.22266-.22265-.0586-.08594-.01562-.10547.03125-.11719.13281-.01562v-91.41406H172.9922v1.45312l-.0586.23438-.35156 1.05078-.17187.52343-.1172.34766-.17577.41016-.11719.17187-.23438.29297-.23046.0586h-.35157l-.11718.05859-.23047.40625v.29297l.11719.17578.23046.23047.1172.23437.64062.75781.29297.46485.17578.23437.23047.35156.23437.34766.64063.8164.17578.46485.17187.41016.11719.69531.17578.46875.11719 1.39844.0586.46484v.875l.11718 1.04688v4.78125l-.0586.46484-.35156 1.28125-.17578.52344-.11328.41015-.35156.9297L172.93359 336l-.23437.58203-.11719.17578-.17187.34766-.17578.40625-.35157.8164-.0586.29297-.11327.29297-.11719.28906-.0586.17579-.11718.875-.0586.40625-.05859.11718-.0586.17579-.05859.17187-.23047.52734-.11718.17188v.23437l-.11719.23438-.0586.17187-.17577.58594v.28906l-.0586.17579v.29296l-.0586.11329-.05859.52734v.17187l-.05468.23438v2.6211l-.17578.8164-.1172.17578-.17577.23438-.1172.17187-.11327.23438-.58594.93359-.23047.28906-.29297.46485-.17578.23437-.28906.35156-.35156.69922-.11328.23047-.17579.41016-.17578.23046-.40625.52735-.8164.69922-.29297.17187-.28906.23438-.17579.11719-.17578.17578-.52344.40625-.52734.17578-.17187.17578-.23438.05469-.64062.17578h-.75782m12.21094 31.02344l-1.07422.44921.35938.89454 1.25-.71485.44531-.53906-.98047-.08985"/><path fill="#d3d3d3" fill-opacity="0" fill-rule="evenodd" d="M201.50781 416.59766h-.89453l.44922.6289.98047.35938.80469-.08985.4453-.98828-.17577.08985-.71485-.35547-.89453.35547m154.6211 59.0703l-.0586-.52343v-.29297l.11328-.29297.0586-.23046.46875-.46875h.11328l.11719-.11329.11718-.05859h.17579l.23437-.0586h.34766l.23437.0586.11719.0586.23047.17187.0586.17578.11718.58203v.29297l-.11719.17578-.17187.28906-.17579.17579-.52734.52343-.23047.23438-.11719.0586h-.17578l-.11718-.0586-.40625-.29297-.17579-.11719-.11718-.0586-.0586-.11327-.05468-.1172m6.64062-10.95702l-.0586-.17188v-1.10937l.0586-.17188.17578-.0586.17188-.05858h.17578l.23437-.0586.1172.0586.05858.69921-.05859.17188-.11719.17578-.11718.0586-.23438.52343-.11328.0586h-.23438l-.05859-.1172m9.61328-14.39062l-.11719-.17578v-.69922l.29297-.875.1172-.17187.17577-.35156.11328-.23047.1172-.29297.35155-.75781.1172-.23047.17187-.23438h.17578l.11719-.0586h.64062l.11719.0586.23437.23438.17188.11328.35156.29297.11719.11718.11328.17579v.11328l.11719.05859.11718.11719v.69922l-.05859.17578v.23047l-.0586.17578-.34765 1.05078-.11719.23047-.11719.23437-.11718.0586-.23047.23437-.64063.28906h-.875l-.41015-.11718-.64063-.46485"/><path fill="none" stroke="#bebebe" stroke-linecap="round" stroke-linejoin="round" stroke-miterlimit="10" stroke-width=".5" d="M467.95703 311.69531H144.02734v168.625h323.9297v-168.625"/><g clip-path="url(#a)"><path fill="#fff" fill-opacity="0" fill-rule="evenodd" d="M144 475.89063v4.4375h.0039H144v-42.75391 38.3164"/></g><g clip-path="url(#b)"><path fill="#fff" fill-opacity="0" fill-rule="evenodd" d="M144 431.50781v3.1836-123.01954h.0039H144v119.83594"/></g><path fill="#50fcfc" fill-rule="evenodd" d="M144 434.6914v2.88282h.0039v-2.88281H144"/><g clip-path="url(#c)"><path fill="#fff" fill-opacity="0" fill-rule="evenodd" d="M144.0039 480.32813v-42.75391l1.33594-1.6289-1.33593-1.25391V311.67187h71.01172v110.72266l-.23829.23438-4.20312 3.41796-4.4375-.78515-4.4375.09375-4.4375-.3711-4.4414.55079-4.4375-.35157-4.4375 1.33985-4.4375.33984-4.44141.17578-.07813.03125-4.35937 3.5664-4.4375.28126-.625.58984-3.77735 4.4375-.03515.04297-2.60157 4.39453.79688 4.4375 1.80469 3.75v1.76563l-1.15235 3.36328 1.15235 3.78125 4.4375-3.32813 1.12109-.45312-1.1211-2.30078-4.4375-1.0625v-1.76563l4.4375-.08594 4.4375.4297.75391.34765 1.57031 4.4375 2.11329 1.1289 4.4414 1.3672 4.4375.40624 4.4375-1.16015 2.625-1.7422 1.8125-1.78905 2.51172 1.78906 1.92969.625 2.32812-.625 2.10938-4.05078.1836-.38672 3.44921-4.4414.21484-4.4375.58985-1.39844 4.4375-.50391 4.4414-2.34375.28516-.1914.75-4.4375 3.40234-2.26954 4.4375-.5664 1.84766 2.83593 2.58984 2.03906 1.40625 2.39844 3.03125 2.9375 4.44141-2.08203 1.83203 3.58203 2.60547 2.36719 3.13672-2.36719-3.13672-2.60937-3.58203-1.82813-.85547-1.07812-4.4414-2.26953-2.00391-1.08985-2.4336-2.5664-2.85937-1.8711-1.57813-1.85547-4.4375-.88671-4.0078-1.69922-.4297-.23438V311.67188h159.77735V448.5664l-.71875.6953.71875.64454.64844-.64453-.64844-.69531V311.67187h93.20312v168.65625h-73.77734l-1.67188-2.44921-4.4375-.79688-3.92578-1.1914 3.76954-4.4375.15625-.08594 2.23437-4.35156-2.23438-3.75391-.51171-.6875-2.78907-4.4375-1.13671-.71875-.52735.71875-2.35547 4.4375 2.82813 4.4414-1.35547 4.4375 1.23047 4.4375.17969 1.20704.5039 3.23046H144.00391"/></g><path fill="#50fcfc" fill-rule="evenodd" d="M145.33984 435.94531l-1.33593 1.6289v-2.8828l1.33593 1.2539m14.60938 8.875l-.79688-4.4375 2.60157-4.39453.03515-.04297 3.77735-4.4375.625-.58984v9.30469l-.14453.16015.14453.1289.6875-.1289-.6875-.16015v-9.3047l4.4375-.28124 4.35937-3.5664.07813-.03126v.1914l-2.92578 4.27735 2.66406 4.4375.26172 2.51172.88672-2.51172.98828-4.4375-1.875-4.27734v-.1914l4.4414-.17579 4.4375-.33984 4.4375-1.33985 4.4375.35157v3.41796l-2.16015 2.5547-2.27735 1.57421-4.4375 2.625-.9414.23828.9414 3.59375v2.26172l-.89062 3.01953-.5 4.4414 1.39062 1.81642 2.14844-1.81641-1.61719-4.4414-.53125-3.01954v-2.26172l1.03516.84375 3.40234.76953 4.4375 3.29688 2.96875-4.0664-1.00781-4.4375 1.29297-4.4375-3.2539-2.5547v-3.41796l4.4414-.55079 4.4375.3711 4.4375-.09375 4.4375.78515 4.20312-3.41796.23828-.23438.4297.23438 4.0078 1.69921 4.4375.88672 1.57813 1.85547 2.85938 1.8711 2.43359 2.5664 2.0039 1.08985v2.9414l-.36718.40625.36719.35547.60546-.35547-.60547-.40625v-2.9414l4.44141 2.26953.85547 1.07812 3.58203 1.82813 3.13672 2.60937-3.13672 2.36719-2.60547-2.36719-1.83203-3.58203-4.4414 2.08203-3.03125-2.9375-1.40625-2.39844-2.58985-2.03906-1.84766-2.83594-4.4375.56641-3.40234 2.26953-.75 4.4375-.28516.1914-4.4414 2.34376-4.4375.5039-.58984 1.39844-.21485 4.4375-3.44922 4.4414-.1836.38673-2.10937 4.05078-2.32812.625-1.92969-.625-2.51172-1.78906-1.8125 1.78906-2.625 1.74219-4.4375 1.16015-4.4375-.40625-4.4414-1.36719-2.11328-1.1289-1.57032-4.4375-.7539-.34766-4.4375-.42969-4.4375.08594-1.8047-3.75m1.8047 12.66016l-1.15235-3.78125 1.15235-3.36328 4.4375 1.0625 1.12109 2.30078-1.1211.45312-4.4375 3.32813"/><path fill="#00e8fc" fill-rule="evenodd" d="M166.1914 440.51172l-.14452-.1289.14453-.16016.6875.16015-.6875.1289"/><path fill="#fff" fill-opacity="0" fill-rule="evenodd" d="M175.0664 427.23047l-2.92577 4.27734 2.66406 4.4375.26172 2.51172.88672-2.51172.98828-4.4375-1.875-4.27734m7.98828 17.58984l-.5 4.4414 1.39062 1.81642 2.14844-1.81641-1.61719-4.4414-.53125-3.01954-.89062 3.01953m.89062-9.11328l-.9414.23828.9414 3.59375 1.03516.84375 3.40234.76953 4.4375 3.29688 2.96875-4.0664-1.00781-4.4375 1.29297-4.4375-3.2539-2.5547-2.16016 2.5547-2.27735 1.57421-4.4375 2.625"/><path fill="#00e8fc" fill-rule="evenodd" d="M232.76563 436.30078l-.3672-.35547.3672-.40625.60546.40625-.60547.35547"/><path fill="#50fcfc" fill-rule="evenodd" d="M374.79297 449.90625l-.71875-.64453.71875-.69531.64844.6953-.64844.64454"/><g clip-path="url(#d)"><path fill="#50fcfc" fill-rule="evenodd" d="M383.61719 467.01563l-2.82813-4.44141 2.35547-4.4375.52735-.71875 1.13671.71875 2.78907 4.4375.51171.6875 2.23438 3.7539-2.23438 4.35157-.15625.08594-3.76953 4.4375 3.92579 1.1914 4.4375.79688 1.67187 2.44921h-10.04297l-.5039-3.23046-.1797-1.20704-1.23046-4.4375 1.35547-4.4375"/></g><g clip-path="url(#e)"><path fill="#fff" fill-opacity="0" fill-rule="evenodd" d="M467.9961 480.32813H468V311.67188h-.0039H468v168.65625h-.0039"/></g><path fill="#fff" fill-opacity="0" fill-rule="evenodd" d="M219.67969 432.39844l3.9414 4.3125 7.35157-6.72266-3.94141-4.3125-7.35156 6.72266"/><path fill-rule="evenodd" d="M228.03906 429.4961l.34375.375-4.64453 4.25-.53125-.58204 3.3125-3.02734-.9375-1.02735.41016-.375.42578.3711.21094.14844.21875.10937.24218.05469.27344-.01172.3125-.09375.36328-.1914"/><g clip-path="url(#f)"><path fill="none" stroke="#000" stroke-linecap="round" stroke-linejoin="round" stroke-miterlimit="10" stroke-width=".5" d="M147.46484 480.91016l-6.92968-1.16407"/></g><g clip-path="url(#g)"><path fill="none" stroke="#000" stroke-linecap="round" stroke-linejoin="round" stroke-miterlimit="10" stroke-width=".5" d="M147.46484 480.91016l.77735 2.32812"/></g><g clip-path="url(#h)"><path fill="none" stroke="#000" stroke-linecap="round" stroke-linejoin="round" stroke-miterlimit="10" stroke-width=".5" d="M146.45703 480.74219l.38672 1.16406"/></g><g clip-path="url(#i)"><path fill="none" stroke="#000" stroke-linecap="round" stroke-linejoin="round" stroke-miterlimit="10" stroke-width=".5" d="M160.78906 480.84766l-6.94922-1.03907"/></g><g clip-path="url(#j)"><path fill="none" stroke="#000" stroke-linecap="round" stroke-linejoin="round" stroke-miterlimit="10" stroke-width=".5" d="M160.78906 480.84766l.82031 2.3164"/></g><g clip-path="url(#k)"><path fill="none" stroke="#000" stroke-linecap="round" stroke-linejoin="round" stroke-miterlimit="10" stroke-width=".5" d="M159.77734 480.69922l.41016 1.15625"/></g><g clip-path="url(#l)"><path fill="none" stroke="#000" stroke-linecap="round" stroke-linejoin="round" stroke-miterlimit="10" stroke-width=".5" d="M174.10156 480.86719l-6.94531-1.07813"/></g><g clip-path="url(#m)"><path fill="none" stroke="#000" stroke-linecap="round" stroke-linejoin="round" stroke-miterlimit="10" stroke-width=".5" d="M174.10156 480.86719l.80469 2.3164"/></g><g clip-path="url(#n)"><path fill="none" stroke="#000" stroke-linecap="round" stroke-linejoin="round" stroke-miterlimit="10" stroke-width=".5" d="M173.09375 480.71094l.40234 1.16015"/></g><g clip-path="url(#o)"><path fill="none" stroke="#000" stroke-linecap="round" stroke-linejoin="round" stroke-miterlimit="10" stroke-width=".5" d="M187.39844 480.98438l-6.90625-1.3086"/></g><g clip-path="url(#p)"><path fill="none" stroke="#000" stroke-linecap="round" stroke-linejoin="round" stroke-miterlimit="10" stroke-width=".5" d="M187.39844 480.98438l.72656 2.33984"/></g><g clip-path="url(#q)"><path fill="none" stroke="#000" stroke-linecap="round" stroke-linejoin="round" stroke-miterlimit="10" stroke-width=".5" d="M186.39453 480.79297l.36328 1.17187"/></g><g clip-path="url(#r)"><path fill="none" stroke="#000" stroke-linecap="round" stroke-linejoin="round" stroke-miterlimit="10" stroke-width=".5" d="M200.7461 480.78125l-6.96876-.90625"/></g><g clip-path="url(#s)"><path fill="none" stroke="#000" stroke-linecap="round" stroke-linejoin="round" stroke-miterlimit="10" stroke-width=".5" d="M200.7461 480.78125l.85937 2.30078"/></g><g clip-path="url(#t)"><path fill="none" stroke="#000" stroke-linecap="round" stroke-linejoin="round" stroke-miterlimit="10" stroke-width=".5" d="M214.07031 480.67188l-6.99219-.6875"/></g><g clip-path="url(#u)"><path fill="none" stroke="#000" stroke-linecap="round" stroke-linejoin="round" stroke-miterlimit="10" stroke-width=".5" d="M214.07031 480.67188l.9375 2.26953"/></g><g clip-path="url(#v)"><path fill="none" stroke="#000" stroke-linecap="round" stroke-linejoin="round" stroke-miterlimit="10" stroke-width=".5" d="M227.39063 480.625l-7-.58984"/></g><g clip-path="url(#w)"><path fill="none" stroke="#000" stroke-linecap="round" stroke-linejoin="round" stroke-miterlimit="10" stroke-width=".5" d="M227.39063 480.625l.96484 2.2539"/></g><g clip-path="url(#x)"><path fill="none" stroke="#000" stroke-linecap="round" stroke-linejoin="round" stroke-miterlimit="10" stroke-width=".5" d="M240.71094 480.10156l-7.01172.45703"/></g><g clip-path="url(#y)"><path fill="none" stroke="#000" stroke-linecap="round" stroke-linejoin="round" stroke-miterlimit="10" stroke-width=".5" d="M240.71094 480.10156l1.29297 2.08594"/></g><g clip-path="url(#z)"><path fill="none" stroke="#000" stroke-linecap="round" stroke-linejoin="round" stroke-miterlimit="10" stroke-width=".5" d="M253.9961 479.8164l-6.95313 1.02735"/></g><g clip-path="url(#A)"><path fill="none" stroke="#000" stroke-linecap="round" stroke-linejoin="round" stroke-miterlimit="10" stroke-width=".5" d="M253.9961 479.8164l1.45702 1.97266"/></g><g clip-path="url(#B)"><path fill="none" stroke="#000" stroke-linecap="round" stroke-linejoin="round" stroke-miterlimit="10" stroke-width=".5" d="M267.3125 479.8164l-6.95313 1.02344"/></g><g clip-path="url(#C)"><path fill="none" stroke="#000" stroke-linecap="round" stroke-linejoin="round" stroke-miterlimit="10" stroke-width=".5" d="M266.30078 479.96484l.72656.98828"/></g><g clip-path="url(#D)"><path fill="none" stroke="#000" stroke-linecap="round" stroke-linejoin="round" stroke-miterlimit="10" stroke-width=".5" d="M280.66406 480.22656l-7.02734.20313"/></g><g clip-path="url(#E)"><path fill="none" stroke="#000" stroke-linecap="round" stroke-linejoin="round" stroke-miterlimit="10" stroke-width=".5" d="M279.64063 480.25781l.60546 1.0664"/></g><g clip-path="url(#F)"><path fill="none" stroke="#000" stroke-linecap="round" stroke-linejoin="round" stroke-miterlimit="10" stroke-width=".5" d="M293.875 481.17969l-6.8164-1.70313"/></g><g clip-path="url(#G)"><path fill="none" stroke="#000" stroke-linecap="round" stroke-linejoin="round" stroke-miterlimit="10" stroke-width=".5" d="M307.26953 480.7539l-6.97656-.85156"/></g><g clip-path="url(#H)"><path fill="none" stroke="#000" stroke-linecap="round" stroke-linejoin="round" stroke-miterlimit="10" stroke-width=".5" d="M314.9961 483.14844l4.19921-5.63672"/></g><g clip-path="url(#I)"><path fill="none" stroke="#000" stroke-linecap="round" stroke-linejoin="round" stroke-miterlimit="10" stroke-width=".5" d="M327.35156 482.0586l6.11719-3.45704"/></g><g clip-path="url(#J)"><path fill="none" stroke="#000" stroke-linecap="round" stroke-linejoin="round" stroke-miterlimit="10" stroke-width=".5" d="M328.24219 481.55469l-1.03516-.66016"/></g><g clip-path="url(#K)"><path fill="none" stroke="#000" stroke-linecap="round" stroke-linejoin="round" stroke-miterlimit="10" stroke-width=".5" d="M340.32422 481.20703l6.80469-1.7539"/></g><g clip-path="url(#L)"><path fill="none" stroke="#000" stroke-linecap="round" stroke-linejoin="round" stroke-miterlimit="10" stroke-width=".5" d="M341.3125 480.94922l-.82813-.90625"/></g><g clip-path="url(#M)"><path fill="none" stroke="#000" stroke-linecap="round" stroke-linejoin="round" stroke-miterlimit="10" stroke-width=".5" d="M353.66406 481.29688l6.7539-1.9375"/></g><g clip-path="url(#N)"><path fill="none" stroke="#000" stroke-linecap="round" stroke-linejoin="round" stroke-miterlimit="10" stroke-width=".5" d="M354.64844 481.01563l-.85547-.88282"/></g><g clip-path="url(#O)"><path fill="none" stroke="#000" stroke-linecap="round" stroke-linejoin="round" stroke-miterlimit="10" stroke-width=".5" d="M367.35938 482.16016l5.99609-3.66407"/></g><g clip-path="url(#P)"><path fill="none" stroke="#000" stroke-linecap="round" stroke-linejoin="round" stroke-miterlimit="10" stroke-width=".5" d="M368.23047 481.6289l-1.05469-.625"/></g><g clip-path="url(#Q)"><path fill="none" stroke="#000" stroke-linecap="round" stroke-linejoin="round" stroke-miterlimit="10" stroke-width=".5" d="M380.80469 482.35938l5.73437-4.0625"/></g><g clip-path="url(#R)"><path fill="none" stroke="#000" stroke-linecap="round" stroke-linejoin="round" stroke-miterlimit="10" stroke-width=".5" d="M381.63672 481.76953l-1.09375-.55078"/></g><g clip-path="url(#S)"><path fill="none" stroke="#000" stroke-linecap="round" stroke-linejoin="round" stroke-miterlimit="10" stroke-width=".5" d="M393.65234 481.4375l6.66797-2.21875"/></g><g clip-path="url(#T)"><path fill="none" stroke="#000" stroke-linecap="round" stroke-linejoin="round" stroke-miterlimit="10" stroke-width=".5" d="M393.65234 481.4375l-1.77734-1.6914"/></g><g clip-path="url(#U)"><path fill="none" stroke="#000" stroke-linecap="round" stroke-linejoin="round" stroke-miterlimit="10" stroke-width=".5" d="M407.08594 481.75l6.42969-2.83984"/></g><g clip-path="url(#V)"><path fill="none" stroke="#000" stroke-linecap="round" stroke-linejoin="round" stroke-miterlimit="10" stroke-width=".5" d="M407.08594 481.75l-1.92578-1.51953"/></g><g clip-path="url(#W)"><path fill="none" stroke="#000" stroke-linecap="round" stroke-linejoin="round" stroke-miterlimit="10" stroke-width=".5" d="M421.98828 483.4414l3.25781-6.22656"/></g><g clip-path="url(#X)"><path fill="none" stroke="#000" stroke-linecap="round" stroke-linejoin="round" stroke-miterlimit="10" stroke-width=".5" d="M440.4336 480.05078l-7.00391.55469"/></g><g clip-path="url(#Y)"><path fill="none" stroke="#000" stroke-linecap="round" stroke-linejoin="round" stroke-miterlimit="10" stroke-width=".5" d="M439.41406 480.13281l.66016 1.03516"/></g><g clip-path="url(#Z)"><path fill="none" stroke="#000" stroke-linecap="round" stroke-linejoin="round" stroke-miterlimit="10" stroke-width=".5" d="M450.375 476.8164l-.25781 7.02344"/></g><path fill="none" stroke="#000" stroke-linecap="round" stroke-linejoin="round" stroke-miterlimit="10" stroke-width=".5" d="M450.33984 477.83984l1.10157-.53515"/><g clip-path="url(#aa)"><path fill="none" stroke="#000" stroke-linecap="round" stroke-linejoin="round" stroke-miterlimit="10" stroke-width=".5" d="M461.32031 483.03516l4.48047-5.41407"/></g><g clip-path="url(#ab)"><path fill="none" stroke="#000" stroke-linecap="round" stroke-linejoin="round" stroke-miterlimit="10" stroke-width=".5" d="M147.41016 467.86328l-6.82032-1.69922"/></g><path fill="none" stroke="#000" stroke-linecap="round" stroke-linejoin="round" stroke-miterlimit="10" stroke-width=".5" d="M147.41016 467.86328l.59375 2.3789m-1.58594-2.6289l.29687 1.1914m14.0586-1.17577l-6.91797-1.23047m6.91797 1.23047l.7539 2.33593m-1.76172-2.51562l.37891 1.16797m13.97656-1.19922l-6.98047-.8086m6.98047.8086l.89453 2.28516m-1.91015-2.40235l.44531 1.14453m13.90625-1.3789l-7.02344-.10547m7.02344.10547l1.1211 2.18359m-2.14063-2.19922l.5586 1.09375m13.7578-1.50781l-6.98827.7539m6.98828-.7539l1.3789 2.02734m-2.39453-1.91797l.6875 1.01563m13.64063-1.14844l-6.98047.80078m6.98047-.80078l1.39062 2.02344m-2.40625-1.90625l.69531 1.01172m13.63672-1.10547l-6.98437.7539m6.98437-.7539l1.3789 2.02734m11.78517-2.73828l-6.6836 2.17578m6.6836-2.17578l1.76562 1.70313m11.46875-1.92578l-6.51953 2.62109m6.51953-2.6211l1.875 1.58204m11.38281-1.71875l-6.40625 2.89453m6.40625-2.89453l1.9414 1.5m11.16407-1.89063l-5.98828 3.67578m5.98828-3.67578l2.11719 1.24219m10.96094-1.58203l-5.51563 4.35547m4.71485-3.72266l1.12109.49219m12.61328-1.53516l-4.75 5.17578m4.0586-4.42187l1.1875.3086m12.84374-1.03907l-4.80078 5.1289m16.78125-5.91406l-2.13281 6.69922m13.3086-6.69531l2.14843 6.6914m9.05078-4.8203l6.3789 2.94921m7.02735-3.1289l6.19922 3.30859m6.70313-1.76953l7.02343.23047m-6.0039-.19532l-.53906-1.10156m12.91406 1.9336l6.86328-1.50391m-6.86328 1.5039l-1.58985-1.87109m18.01563-2.3789l.64062 6.99609m-.64062-6.9961l2.05078-1.34375m13.42578 1.84766l-3.67969 5.98828m3.6797-5.98828l2.4453.15234m-2.98046.71875l1.22265.07813m13.67969.04687l-5.78516 3.9961m5.78516-3.9961L442 466.14453m10.14063-2.08984l-3.78516 5.91797m3.23437-5.0586l1.22266.09766m9.85156-1.39453l1.79688 6.79297m-1.53516-5.8047l.89844-.83202"/><g clip-path="url(#ac)"><path fill="none" stroke="#000" stroke-linecap="round" stroke-linejoin="round" stroke-miterlimit="10" stroke-width=".5" d="M147.39844 454.58984l-6.79688-1.78125"/></g><path fill="none" stroke="#000" stroke-linecap="round" stroke-linejoin="round" stroke-miterlimit="10" stroke-width=".5" d="M147.39844 454.58984l.5664 2.38672m12.59766-1.9336l-6.49219-2.6914m6.49219 2.6914l.23438 2.44532m13.26562-3.03516l-6.86328-1.5078m6.86328 1.5078l.66016 2.36329m12.71875-2.77344l-6.9922-.6875m5.97657.58594l.46484 1.1328m13.84375-1.89452l-6.94921 1.03515m6.94922-1.03515l1.46093 1.97265m11.45313-3.16015l-6.14453 3.41015m6.14453-3.41015l2.0586 1.33594m11.13671-1.53125l-5.90625 3.80468m5.04688-3.25l1.0703.59766m13.21485-.96875l-6.1289 3.4375m6.1289-3.4375l2.0664 1.32422m10.89063-1.84766l-5.41015 4.48438m5.41015-4.48438l2.26953.9336m-3.05859-.28125l1.13672.46484m13.07812-.97656l-5.6328 4.20312m5.6328-4.20312l2.21875 1.04687m10.71094-1.48437l-4.86328 5.07421m4.86328-5.07421l2.35938.66797m10.49609-1.03907l-3.9414 5.82031m3.9414-5.8203l2.4375.26171m10.67969-.38281l-3.54688 6.0625m3.03125-5.1836l1.22656.05079m13.61329-.04297l-5.56641 4.28515m15.79688-5.64062l.60156 7m14.36719-6.74219l-2.70704 6.48438m2.3125-5.54297l1.22266-.11328m12.42969-.85157l-2.58985 6.53125m2.58985-6.53125l2.4375-.27343m12.86328 2.28515l-6.5625 2.50782m5.60937-2.14454l.92579.8047m13.34765-1.15626l-6.57031 2.48438M386 452.8164l.92188.80859m6.55468.21094l7.01953-.27735m-6 .23829l-.61718-1.0586m19.46484 2.71485l-6.08594-3.50782m5.20313 2.9961l-.04297 1.22656m14.65234-3.10547l-6.91015 1.27344m5.90625-1.08985l.76171.96094m13.53125-1.27344l-6.85546 1.53125m6.85546-1.53125l1.59766 1.86329m10.94531-3.39844l-5.3125 4.59765m5.3125-4.59765l2.28907.88672m11.48437-.21485l-6.22656 3.25782"/><g clip-path="url(#ad)"><path fill="none" stroke="#000" stroke-linecap="round" stroke-linejoin="round" stroke-miterlimit="10" stroke-width=".5" d="M466.67578 452.07031l2.02344 1.38672"/></g><g clip-path="url(#ae)"><path fill="none" stroke="#000" stroke-linecap="round" stroke-linejoin="round" stroke-miterlimit="10" stroke-width=".5" d="M147.16406 441.91016l-6.32812-3.05078"/></g><path fill="none" stroke="#000" stroke-linecap="round" stroke-linejoin="round" stroke-miterlimit="10" stroke-width=".5" d="M147.16406 441.91016l.09766 2.44922m13.125-2.26954l-6.14063-3.41406m6.14063 3.41406l-.04688 2.45703m13.3086-2.36718l-6.03906-3.59375m5.16015 3.07031l-.0586 1.22656m14.58985-1.46094l-6.71094-2.07812m5.73438 1.77734l.23047 1.20313m14.21094-1.73047l-7.01172-.42188m5.99218.36329l.51172 1.11328m13.80469-1.70313l-6.97266.875m5.95703-.7461l.70704 1m12.51562-3.27733l-4.75781 5.17187m4.0664-4.41797l1.1875.3086m12.96875-.91407l-5.05859 4.8789m5.0586-4.8789l2.33203.75782m9.4414-1.69141l-1.97265 6.74219m1.97265-6.7422l2.40235-.49608m11 .52343l-2.14844 6.6914m2.14844-6.6914l2.41406-.4336m11.01953.47267l-2.38281 6.60937m2.38281-6.60937l2.42578-.34766m10.17969.17187l-.96875 6.96094m.96875-6.96094l2.30469-.83984m11.89843 1.08594l-2.74218 6.46875m2.74218-6.46875l2.44141-.21485m11.36328.46875l-3.72265 5.96094m3.17968-5.09375l1.22657.08594m13.36328-.34375l-5.1836 4.7461m4.42969-4.0547l1.15625.41016m12.51563-1.47265l-4.39063 5.48828m4.39063-5.48828l2.41015.45312m10.55469-.69922l-3.6914 5.97656m3.6914-5.97656l2.44922.15625m11.83594.73047l-5.62891 4.20703m4.8086-3.59765l1.10937.52343m6.86719-.11719l6.68359 2.17188m-5.71094-1.85547l-.21094-1.20703m12.54297 3.02734l6.70703-2.10156m-5.73046 1.79688l-.875-.85938m19.98046.94531l-6.82812-1.66015m5.83594 1.41797l.30468 1.1875m14.09766-1.57422l-7.01562-.40625m7.01562.40625l1.02344 2.23047m12.26172-2.92579l-6.95703.98829m6.95703-.98829l1.4453 1.98047m11.90626-1.5078l-7.02734.03905m6.0039-.03125l.58203 1.07813m13.7539-1.15235l-7.02343.17579"/><g clip-path="url(#af)"><path fill="none" stroke="#000" stroke-linecap="round" stroke-linejoin="round" stroke-miterlimit="10" stroke-width=".5" d="M467.07422 440.29688l1.20703 2.13671"/></g><g clip-path="url(#ag)"><path fill="none" stroke="#000" stroke-linecap="round" stroke-linejoin="round" stroke-miterlimit="10" stroke-width=".5" d="M147.2461 428.41406l-6.4922-2.6914"/></g><path fill="none" stroke="#000" stroke-linecap="round" stroke-linejoin="round" stroke-miterlimit="10" stroke-width=".5" d="M147.2461 428.41406l.23437 2.4414m12.84766-1.98046l-6.02735-3.61328m6.02734 3.61328l-.125 2.44922m12.98047-1.83985l-5.10547-4.83203m5.10547 4.83203l-.65234 2.36329m13.82422-2.22266l-4.82031-5.11328m4.11718 4.3711l-.39062 1.16015m15.4414-2.27344l-6.88671-1.40234m6.88672 1.40234l.6953 2.35547m11.7461-5.45313l-5.13672 4.79297m5.13672-4.79297l2.32031.79688m11.1797-.58594l-5.50782 4.3711m5.50781-4.3711l2.2461.98438m11.8203 1.41406l-7.01171-.42578m7.01172.42578l1.01953 2.23047m10.47266-5.52735l-3.3672 6.16797m2.87891-5.26953l1.22657.01172m12.26172-1.0625l-2.73438 6.47266m2.33594-5.53125l1.22265-.10938m13.46875-.21094l-4.6914 5.23047m4.6914-5.23047l2.38282.58985m9.60156-1.33985l-2.03125 6.73047m1.73437-5.75l1.20703-.23828m13.7461.01563l-4.71094 5.21484m4.71094-5.21484l2.3789.59765m10.71485-.78125l-4.26953 5.58203m4.26953-5.58203l2.41797.39844m11.4336.10938l-5.34376 4.5664m5.34375-4.5664l2.28516.89843m-3.0625-.23437l1.14062.44922m12.8125-1.26563l-5.0625 4.8711m5.0625-4.8711l2.33203.76172m-3.0703-.05469l1.16796.38282m13.57422-.0586l-6.4414 2.8086m6.4414-2.8086l1.92187 1.52344m9.35547-3.42578l-2.36719 6.61328m2.3672-6.61328l2.42968-.35547m8.0664.55078l3.26954 6.22266m-3.26953-6.22266l1.3828-2.02734m16.9336 4.125l-6.73047 2.02734m5.75-1.73437l.86329.87109m13.16406-1.8086l-6.19531 3.31641m6.1953-3.3164l2.03907 1.36718m-2.9414-.8828l2.03906 1.36718m11.61718-2.625L421.07813 429.5m5.07421-4.86328l2.33204.76953m-3.07032-.0625l1.16797.38281m12.80078-1.17578l-4.90234 5.03516m4.90234-5.03516l2.35547.6875m-3.07031.04688l1.17969.34375m12.03906-1.66797l-3.28125 6.21484m3.28125-6.21484l2.45312-.00781m-2.92968.91406l1.22656-.0039m14.23828 1.03124l-6.625 2.34766"/><g clip-path="url(#ah)"><path fill="none" stroke="#000" stroke-linecap="round" stroke-linejoin="round" stroke-miterlimit="10" stroke-width=".5" d="M466.875 425.89453l1.8086 1.65625"/></g><path fill="none" stroke="#000" stroke-linecap="round" stroke-linejoin="round" stroke-miterlimit="10" stroke-width=".5" d="M465.91016 426.23438l.90625.82812"/><g clip-path="url(#ai)"><path fill="none" stroke="#000" stroke-linecap="round" stroke-linejoin="round" stroke-miterlimit="10" stroke-width=".5" d="M147.08594 415.42969l-6.17188-3.35547"/></g><path fill="none" stroke="#000" stroke-linecap="round" stroke-linejoin="round" stroke-miterlimit="10" stroke-width=".5" d="M146.1875 414.9414l-.01172 1.22657m14.17969-.65625l-6.08203-3.51953M159.47266 415l-.04688 1.22656m14.32422-.85937l-6.24219-3.22656m6.24219 3.22656l.02734 2.45312M187.125 415.25l-6.35938-2.99219M187.125 415.25l.11719 2.44922m13.42578-4.8086l-6.8125 1.72266m6.8125-1.72265l1.64453 1.8203m11.71094-1.64062l-6.89453 1.36328m5.89062-1.16406l.77344.94922m13.60937-.5039l-7.02343.07812m6.0039-.0664l.58594 1.07421m13.07031 1.02735l-5.66797-4.15235m4.84375 3.55078l-.17578 1.21485m14.67578-4.15235l-6.38672 2.92969m5.45704-2.5039l.97656.74609m13.58594.38672l-7.02344-.1875m6 .16015l.54687 1.09766m13.69141-2l-6.82422 1.67187m6.82422-1.67187l1.63672 1.83203m11.14844-3.00781l-5.76172 4.02344m4.92187-3.4375l1.09375.55859m13.60938.10156l-6.85938 1.52735m5.85938-1.3047l.80078.9336m12.97656-2.38281l-5.78516 3.98437m4.94532-3.40625l1.08984.56641m13.25781-.83203l-6.17187 3.35937m6.17187-3.35937l2.04688 1.34766m10.7539-2.06641l-5.14062 4.79297m5.14062-4.79297l2.32032.80078m11.71093.35938l-6.57421 2.47265m6.57421-2.47265l1.84375 1.625m11.15625-2.26563l-5.9414 3.7539m5.9414-3.7539l2.12891 1.21875m10.83594-1.67969l-5.24219 4.67969m5.24219-4.67969l2.30078.85157m-3.0625-.17188l2.30078.85156m-3.0664-.16797l1.15234.42188m14.10547-1.21094l-6.07422 3.53125m6.07422-3.53125l2.08593 1.29297m-2.96875-.78125l2.08594 1.29688m11.4336-2.64454l-4.71875 5.20313m4.71875-5.20313l2.3789.60157m-3.0625.15234l2.3789.60547M424.9375 410.5l-2.64453 6.50781M424.9375 410.5l2.4414-.2539m-2.82421 1.19921l1.21875-.125m13.09765-.4961l-3.8789 5.85938m3.8789-5.85937l2.44532.23828m-3.00782.61328l2.44141.23828m11.4375-1.08984l-3.88281 5.85937m3.88281-5.85937l2.4414.23437m-3.0078.6172l2.4414.23827m12.48828-.00781l-5.97656 3.69531"/><g clip-path="url(#aj)"><path fill="none" stroke="#000" stroke-linecap="round" stroke-linejoin="round" stroke-miterlimit="10" stroke-width=".5" d="M466.55078 411.90625l2.11719 1.23828"/></g><g clip-path="url(#ak)"><path fill="none" stroke="#000" stroke-linecap="round" stroke-linejoin="round" stroke-miterlimit="10" stroke-width=".5" d="M465.67969 412.44531l2.1211 1.23438"/></g><path fill="none" stroke="#000" stroke-linecap="round" stroke-linejoin="round" stroke-miterlimit="10" stroke-width=".5" d="M464.8125 412.98047l1.0586.6211"/><g clip-path="url(#al)"><path fill="none" stroke="#000" stroke-linecap="round" stroke-linejoin="round" stroke-miterlimit="10" stroke-width=".5" d="M147.32031 401.58594l-6.64062-2.29688"/></g><path fill="none" stroke="#000" stroke-linecap="round" stroke-linejoin="round" stroke-miterlimit="10" stroke-width=".5" d="M146.35547 401.2539l.1875 1.21094m13.40625.29688l-5.26953-4.64844m4.5039 3.97266l-.28515 1.19531m14.77734-1.08984l-6.08984-3.50391m5.20312 2.99219l-.03906 1.22656m14.59766-1.58594l-6.8047-1.76172m6.8047 1.76172l.5703 2.38281m12.8086-2.6875l-6.9336-1.15234m6.9336 1.15235l.78125 2.32421m12.17578-4.53906l-6.21484 3.27735m5.3086-2.80079l1.01562.6875m13.51172-.34765l-6.83203 1.64453m6.83203-1.64453l1.6289 1.83594m11.6836-.17579l-6.82422-1.67578m6.82422 1.67578l.60156 2.37891m12.8164-3.21875h-7.02734m7.02735 0l1.15234 2.16797m11.84766-3.6211l-6.39844 2.91016m5.46484-2.48828l.97266.7461m13.42969-.76954l-6.70313 2.10938m6.70313-2.10938l1.74609 1.72266m11.38672-2.17969l-6.34375 3.02735m5.42187-2.58594l.98438.72656m13.4375-.69922l-6.71094 2.08594m6.71094-2.08594l1.74219 1.73047m11.73047-.625l-7.02735-.1211m7.02735.1211l1.11328 2.1836m11.92578-3.61329l-6.47266 2.73828m5.52735-2.33984l.95312.77344m12.40234-2.42969l-4.66406 5.2539m3.98438-4.49218l1.1953.28906m13.16017-.67969l-5.38672 4.51172m5.38672-4.51172l2.27343.92188m11.38282-.4375l-6.07032 3.53906m6.07032-3.53906l2.08593 1.28906m-2.96875-.77344l1.04297.64454m12.40625-2.0586l-4.57422 5.33594m4.57422-5.33594l2.39453.53516m-3.0586.24219l2.39454.53515m12.27344-.51562l-5.94922 3.74218m5.94922-3.74218l2.1289 1.21875m-2.99609-.67188l1.0664.60938m13.37891-.65235l-6.47265 2.73438m6.47265-2.73438l1.90235 1.54688m-2.84375-1.14844l.94922.77344m12.64453-2.19531l-5.14844 4.78125m5.14844-4.78125l2.3164.80468m-3.0664-.10937l1.16015.40234m12.6836-1.3125l-4.70703 5.21485m4.70703-5.21485l2.3828.59375m-3.0664.16406l2.3789.59766m-3.0664.16016l1.1914.30078m14.22657-.89063l-6.17187 3.36328m6.17187-3.36328l2.04688 1.35156m-2.94532-.86328l2.04688 1.35157m11.85937-2.3086l-5.55859 4.30078"/><g clip-path="url(#am)"><path fill="none" stroke="#000" stroke-linecap="round" stroke-linejoin="round" stroke-miterlimit="10" stroke-width=".5" d="M466.33984 398.28906l2.23829 1.00781"/></g><g clip-path="url(#an)"><path fill="none" stroke="#000" stroke-linecap="round" stroke-linejoin="round" stroke-miterlimit="10" stroke-width=".5" d="M465.53125 398.91406l2.23828 1.00781"/></g><g clip-path="url(#ao)"><path fill="none" stroke="#000" stroke-linecap="round" stroke-linejoin="round" stroke-miterlimit="10" stroke-width=".5" d="M147.4336 387.8711l-6.8672-1.4961"/></g><path fill="none" stroke="#000" stroke-linecap="round" stroke-linejoin="round" stroke-miterlimit="10" stroke-width=".5" d="M147.4336 387.8711l.66406 2.35937m12.125-1.13281l-5.81641-3.94532m5.8164 3.94532l-.26171 2.4375m13.98437-3.25l-6.63281-2.32422m6.63281 2.32422l.3711 2.42578m12.55859-5.52735l-5.85938 3.87891m5.00782-3.3125l1.07812.58594m12-2.20313l-3.6836 5.98438M198.56642 385l1.22265.07813m13.94922 3.57421l-6.32812-3.05468m6.32812 3.05468l.09766 2.44922m13.51953-3.40234l-6.92969-1.15235m6.92969 1.15235l.78125 2.32812m12.5-3.65625l-6.86328 1.50391m6.86328-1.5039l1.58984 1.87109m11.73438-1.83203l-6.8789 1.42578m6.8789-1.42578l1.5664 1.88671m11.60938-2.3789l-6.60156 2.41015m6.60156-2.41015l1.82422 1.64062m11.35156-1.96484l-6.32422 3.0586m6.32422-3.0586l1.98047 1.44922m11.60547-.67578l-6.86328 1.51562m6.86328-1.51562l1.58984 1.86328m-2.58984-1.64453l.79687.9336m13.58594-.08595l-7-.62109m5.98047.53125l.48047 1.1289m13.80468-.6875l-6.90234-1.32421m6.90234 1.32422l.72266 2.34765m12.39063-4.35156l-6.4961 2.6836m6.4961-2.6836l1.89062 1.5664m11.0586-2.23437l-5.76563 4.01953m5.76562-4.01953l2.1836 1.1211m11.52734-.3711l-6.5586 2.51953m6.5586-2.51953l1.85156 1.61328m11.35547-1.86328l-6.34375 3.01953m6.34375-3.01953l1.97266 1.46485m-2.89453-1.02344l.98437.73047m13.17578-1.32813l-6.1875 3.33203m6.1875-3.33203l2.03907 1.35938m-2.9414-.875l2.04296 1.35937m11.89453-2.28125l-5.6289 4.21094m5.6289-4.21094l2.21875 1.04297m-3.03906-.4336l2.21875 1.04688m11.61328-2.01172l-5.01953 4.91797m5.01953-4.91797l2.33594.74219m-3.0664-.02734l1.16796.37109m13.01562-.9375l-5.29687 4.6211m5.29687-4.6211l2.28907.875m-3.0625-.20313l1.14843.4375m12.82813-1.23046l-5.07422 4.86328m5.07422-4.86328l2.33203.76953m-3.07031-.0625l2.33203.76953m12.57812.05078l-6.78906 1.8086m6.78906-1.8086l1.67188 1.79688m-2.66016-1.53125l.83594.89843m13.15234-1.95312l-6.15625 3.38672"/><g clip-path="url(#ap)"><path fill="none" stroke="#000" stroke-linecap="round" stroke-linejoin="round" stroke-miterlimit="10" stroke-width=".5" d="M466.64063 385.42969l2.05468 1.33984"/></g><path fill="none" stroke="#000" stroke-linecap="round" stroke-linejoin="round" stroke-miterlimit="10" stroke-width=".5" d="M465.74219 385.92188l1.02734.67187"/><g clip-path="url(#aq)"><path fill="none" stroke="#000" stroke-linecap="round" stroke-linejoin="round" stroke-miterlimit="10" stroke-width=".5" d="M147.51172 373.78125l-7.02344.05469"/></g><path fill="none" stroke="#000" stroke-linecap="round" stroke-linejoin="round" stroke-miterlimit="10" stroke-width=".5" d="M147.51172 373.78125l1.16797 2.16016m11.4375-.01172l-5.60547-4.24219m5.60547 4.24219l-.39063 2.42187m14.33594-3.79687l-6.86719-1.4961m6.86719 1.4961l.66406 2.36328m11.80469-5.48828l-5.17188 4.75781m5.17188-4.75781l2.3125.8125m11.64063.16797l-6.44922 2.79687m6.44922-2.79687l1.91796 1.53125m11.59375-.9336l-6.83984 1.60156m6.83984-1.60156l1.6172 1.84375m11.78905-1.15234l-7.02343.21484m7.02343-.21484l1.21875 2.13281m-2.24218-2.10156l.60937 1.0664m13.72266-1.21875l-7.01172.46094m7.01172-.46094l1.29297 2.08594m-2.3125-2.01953l.64453 1.04297m13.66797-1.34375l-6.96485.92969m6.96485-.92969l1.42578 1.9961m11.91797-1.57423l-7.02344.08594m7.02344-.08594l1.17968 2.15235m-2.19921-2.14063l.58593 1.07813m13.74219-1.29688l-7.01172.5m7.01172-.5l1.30078 2.08204m12.01563-2.0547l-7.01172.44532m7.01172-.44531l1.28515 2.08984m-2.30468-2.02734l.64062 1.04687m13.64063-1.53125l-6.90625 1.28516m6.90625-1.28516l1.53125 1.92188m-2.53516-1.73438l.76562.96094m13.57813-1l-6.95703.99219m6.95703-.99219l1.44531 1.98438m-2.45703-1.83985l.72266.99219m13.64062-.69531l-7.02734.10937m7.02734-.10937l1.1836 2.14843m12.11718-1.80859l-7.0039-.57031m7.0039.57031l.97266 2.2539m-1.99219-2.33593l.48828 1.125m13.8164-1.86719l-6.9414 1.07813m6.9414-1.07813l1.47267 1.96485m-2.48047-1.8086l.73437.98438m13.54297-1.38672l-6.85156 1.57031m6.85156-1.57031l1.60547 1.85547m-2.60156-1.62891l.80078.92969m13.51953-1.11328l-6.86719 1.48046m6.86719-1.48046l1.58203 1.875m-2.58203-1.65625l.79297.9375m13.5039-1.23829l-6.83203 1.64844m6.83203-1.64844l1.62891 1.83594m-2.625-1.59765l.8164.91796m13.2422-1.85937l-6.32813 3.05469m6.32812-3.05469l1.98047 1.44922m-2.90234-1.0039l.99219.72265m13.41797-.74219l-6.67188 2.19922m6.67188-2.19922l1.77343 1.69922m-2.74218-1.3789l.8828.85156m13.16016-1.73047l-6.1914 3.32031m6.1914-3.32031l2.03907 1.36719m11.52734-.78125l-6.6914 2.14843m6.6914-2.14844l1.75781 1.71094m11.40235-2.10156l-6.38672 2.92969"/><g clip-path="url(#ar)"><path fill="none" stroke="#000" stroke-linecap="round" stroke-linejoin="round" stroke-miterlimit="10" stroke-width=".5" d="M466.7539 372.34375l1.95313 1.48828"/></g><path fill="none" stroke="#000" stroke-linecap="round" stroke-linejoin="round" stroke-miterlimit="10" stroke-width=".5" d="M465.82813 372.76953l.97265.7461"/><g clip-path="url(#as)"><path fill="none" stroke="#000" stroke-linecap="round" stroke-linejoin="round" stroke-miterlimit="10" stroke-width=".5" d="M147.51172 360.57422l-7.02344-.16406"/></g><path fill="none" stroke="#000" stroke-linecap="round" stroke-linejoin="round" stroke-miterlimit="10" stroke-width=".5" d="M147.51172 360.57422l1.10156 2.1914m-2.1211-2.21484l.55079 1.09766m13.6289-.1211l-6.71484-2.0664m6.71484 2.0664l.46485 2.41016m-1.4414-2.71094l.23437 1.20313m14.13672-1.20703l-6.875-1.45704m6.875 1.45704l.67968 2.35937m12.46875-1.80469l-6.53906-2.5664m5.58984 2.1914l.14063 1.21875m14.36719-2.08203l-7.02735-.08984m7.02735.08984l1.125 2.17969m12.125-2.90625l-6.89453 1.36328m6.89453-1.36328l1.55078 1.90234m11.79297-1.72265l-6.95313 1m6.95313-1l1.44922 1.98437m-2.46094-1.83594l.72656.98829m13.6289-.87891l-7.01171.48438m7.01172-.48438l1.29687 2.08203m-2.3164-2.01172l.64843 1.04297m13.65625-1.3789L247.04297 361m6.95312-1.01563l1.45313 1.98047m-2.46484-1.83203l.72656.98828m13.60156-1.1328L260.35937 361m6.95313-1.01172l1.45313 1.97656m11.8789-1.84375l-6.98828.7461m6.98828-.7461l1.375 2.03125m11.95703-1.48046l-7.01953-.35547m7.01953.35546l1.03907 2.22266m-2.0625-2.27344l.51953 1.10938m13.8164-1.03906l-7.01562-.39844m7.01562.39844l1.02735 2.23046m-2.04688-2.28515l.51172 1.11328m13.82422-1.07031l-7.01953-.375m7.01953.375l1.03516 2.22656m-2.0586-2.28125l.51953 1.11328m13.78516-1.76953l-6.94922 1.04688m6.94922-1.04688l1.46094 1.97266m-2.47266-1.82032l.73047.98438m13.60547-.16797l-6.96875-.88672m6.96875.88672l.8711 2.29297m-1.88673-2.42188l.4375 1.14454m13.88282-.94922l-6.94922-1.01954m6.94922 1.01954l.82812 2.30859m-1.83594-2.45703l.82422 2.3086m13.53125-2.85548l-7.01562.3711m7.01562-.3711l1.26563 2.10157m-2.28516-2.04688l1.26563 2.10156m12.92578-2.98828l-6.72657 2.03516m6.72657-2.03516l1.73047 1.74219m-2.71094-1.44531l1.73047 1.73828m12.58203-1.97266l-6.76172 1.90625m6.76172-1.90625l1.69531 1.77344m-2.67969-1.4961l1.69922 1.77344m12.64453-1.8828l-6.85156 1.5703m6.85156-1.5703l1.60547 1.85546m-2.60156-1.625l.80078.92578m13.4414-1.41406l-6.71093 2.08984m6.71094-2.08984l1.74218 1.72265m-2.71875-1.41796l.8711.85937m13.33594-1.39844l-6.54297 2.5586m6.54297-2.5586l1.86328 1.59766m-2.81641-1.22656l.9336.80078m13.40624-.97656l-6.6875 2.16406m6.6875-2.16406l1.76172 1.70703m-2.73437-1.39063l.88281.85156m13.19531-1.67578l-6.26562 3.1836"/><g clip-path="url(#at)"><path fill="none" stroke="#000" stroke-linecap="round" stroke-linejoin="round" stroke-miterlimit="10" stroke-width=".5" d="M466.69531 358.90234l2.00781 1.41016"/></g><path fill="none" stroke="#000" stroke-linecap="round" stroke-linejoin="round" stroke-miterlimit="10" stroke-width=".5" d="M465.78125 359.36328l1.0039.70703"/><g clip-path="url(#au)"><path fill="none" stroke="#000" stroke-linecap="round" stroke-linejoin="round" stroke-miterlimit="10" stroke-width=".5" d="M147.44922 346.51172l-6.89844 1.33203"/></g><path fill="none" stroke="#000" stroke-linecap="round" stroke-linejoin="round" stroke-miterlimit="10" stroke-width=".5" d="M147.44922 346.51172l1.54297 1.91015m11.71875-.34375l-6.79297-1.79687m6.79297 1.79688l.5625 2.38671m12.6836-2.15234l-6.65235-2.26953m6.65234 2.26953l.39063 2.42188m-1.35938-2.75391l.19531 1.21484m14.125-1.0039l-6.72656-2.02735m6.72656 2.02735l.47657 2.41015m12.89453-4.23437l-6.83985 1.6211m6.83985-1.6211l1.6211 1.84375m11.73437-1.64453l-6.91797 1.22265m6.91797-1.22265l1.51172 1.93359m11.82812-1.76563l-6.96875.88672m6.96875-.88671l1.41797 2.0039m-2.42969-1.875l.70703 1.0039m13.64844-.58202l-7.02344-.21485m7.02344.21485l1.08594 2.19921m-2.10938-2.23046l.54297 1.10156m13.77344-.77344l-6.98047-.8086m6.98047.8086l.89453 2.28516m-1.91016-2.40235l.44532 1.14063m13.86328-.8789l-6.9414-1.09766m6.9414 1.09765l.80078 2.32031m-1.8086-2.48046l.39844 1.16015m13.96485-1.41406l-7.01953-.26953m7.01953.26953l1.0703 2.21094m12.25-2.34375h-7.02733m7.02734 0l1.15234 2.16406m-2.17578-2.16406l.57422 1.08203m13.7539-.80469l-7.0078-.5586m7.0078.5586l.97657 2.25m-1.9961-2.33203l.48829 1.125m13.76953-.54297l-6.85547-1.5586m6.85547 1.5586l.64062 2.36719m-1.64062-2.59375l.32422 1.1836m14.07812-1.73438h-7.02734m7.02734 0l1.15235 2.16406m-2.17579-2.16406l.57422 1.08203m13.76172-1.03125l-7.02344-.10547m7.02344.10547l1.1211 2.1836m-2.14063-2.19923l.5586 1.08985m13.74609-.65625l-6.96485-.9414m6.96485.9414l.85156 2.30078m-1.86719-2.4375l.85157 2.30078m13.51171-2.59766l-7.02734-.07421m7.02734.07421L375 349.39063m-2.15234-2.1875l1.1289 2.17968m-2.15234-2.1914l.5664 1.08984M387.0586 346.25l-6.77734 1.85547m6.77734-1.85547l1.6836 1.78516m-2.66797-1.51563l1.6836 1.78516m-2.67188-1.51563l.84375.89453m14.21094-2.05468l-6.3086 3.09765m6.3086-3.09765l1.98828 1.4375m-2.90625-.98438l1.98828 1.4336m-2.90625-.98438l.9961.71875m14.17187-1.58203l-6.34375 3.01953m6.34375-3.01953l1.97265 1.46094m-2.89453-1.01954l1.97266 1.46094m-2.89453-1.02344l.98437.73047m14.14453-1.67187l-6.28515 3.14453m6.28515-3.14453l2 1.42578m-2.91406-.96875l2 1.42578m12.5-1.15234l-6.82422 1.6836m6.82422-1.6836l1.63672 1.82812m-2.6289-1.58203l1.63671 1.82422m12.69922-1.9375l-6.88281 1.42188m6.88281-1.42188l1.5664 1.88672m-2.5664-1.67969l1.5664 1.88672m12.65235-2.46484l-6.6875 2.16015"/><g clip-path="url(#av)"><path fill="none" stroke="#000" stroke-linecap="round" stroke-linejoin="round" stroke-miterlimit="10" stroke-width=".5" d="M466.90625 346.09766l1.76172 1.71093"/></g><path fill="none" stroke="#000" stroke-linecap="round" stroke-linejoin="round" stroke-miterlimit="10" stroke-width=".5" d="M465.9336 346.41406l1.76171 1.70703"/><g clip-path="url(#aw)"><path fill="none" stroke="#000" stroke-linecap="round" stroke-linejoin="round" stroke-miterlimit="10" stroke-width=".5" d="M147.3789 332.89453l-6.7578 1.9375"/></g><path fill="none" stroke="#000" stroke-linecap="round" stroke-linejoin="round" stroke-miterlimit="10" stroke-width=".5" d="M146.39453 333.17578l.85156.88281m12.67188 2.16407l-5.20703-4.71875m4.44922 4.03125l-.30078 1.1914m14.72265-.95703l-5.90234-3.8125m5.90234 3.8125l-.20703 2.44531m14.04688-3.85546l-6.95313-.9922m6.95313.9922l.83593 2.30859m12.39453-1.89063l-6.78515-1.82812m6.78515 1.82812l.55078 2.39063m12.84766-2.79688l-6.95312-1.01562m6.95312 1.01562l.82813 2.3086m-1.83985-2.45703l.41406 1.15625m13.94141-1.28516l-7.01172-.46094m7.01172.46094l1.01172 2.23438m12.3125-2.46485h-7.02734m7.02734 0l1.15234 2.16797m-2.17578-2.16797l.57813 1.08203m13.74219-1.42578l-6.9922.6875m6.9922-.6875l1.35937 2.04297M253 333.6211l.67969 1.01952m13.6289-1.3125l-6.9453 1.07032m6.9453-1.07031l1.46875 1.96484m-2.48047-1.8086l.73438.98047m13.6289-.42968l-7.01952-.34766m7.01953.34766l1.04297 2.22265m-2.0625-2.26953l.51953 1.10938m13.78515-.7461l-6.95703-.98047m6.95703.98047l.83594 2.3086m12.51172-2.94532l-7.02344.29688m7.02344-.29688l1.23828 2.1172m12.07813-2.07423l-7.02735.20703m7.02735-.20703l1.21484 2.13281m-2.23828-2.10156l.60937 1.0664m13.6211-.1289L327.0039 333m6.8125 1.72656l.58593 2.38281m-1.57812-2.63671l.58594 2.3828m13.82422-2.78124l-7.01563-.42188m7.01563.42188l1.01953 2.23047m-2.04297-2.29297l.51172 1.11719m13.83203-1.26563h-7.02735m7.02735 0l1.15234 2.16797m-2.17578-2.16797l.57813 1.08203m13.68359-.35937l-6.875-1.44531m6.875 1.4453l.6836 2.35938m-1.6836-2.57031l.33984 1.17969m14.03907-1.96875l-7.00391.55469m7.0039-.5547l1.32032 2.07032m-2.33594-1.98828l.65625 1.03125m13.67578-.54297l-7.0039-.58594m7.0039.58594l.96485 2.25781m-1.98438-2.34375l.48438 1.1289m13.85546-1.51562l-7.01562.35547m7.01562-.35547l1.26172 2.10547m-2.28125-2.05078l1.26172 2.10547m12.80469-3.33984l-6.47656 2.71875m6.47656-2.71875l1.90234 1.55078m-2.84375-1.15625l1.89844 1.55078m12.34766-1.96875l-6.45703 2.76562m6.45703-2.76562l1.91406 1.53515m-2.85156-1.1328l1.91015 1.53515m-2.85156-1.13281l.95703.76953m14.38281-1.17188l-6.74609 1.96094m6.7461-1.96094l1.71093 1.75781m-2.69531-1.47265l1.71484 1.75781m-2.69531-1.47265l.85547.8789m14.39062-1.55469l-6.68359 2.17188"/><g clip-path="url(#ax)"><path fill="none" stroke="#000" stroke-linecap="round" stroke-linejoin="round" stroke-miterlimit="10" stroke-width=".5" d="M466.90234 332.77734l1.76563 1.70313"/></g><path fill="none" stroke="#000" stroke-linecap="round" stroke-linejoin="round" stroke-miterlimit="10" stroke-width=".5" d="M465.92969 333.09375l1.76562 1.70313m-2.73828-1.38672l1.76563 1.70312"/><g clip-path="url(#ay)"><path fill="none" stroke="#000" stroke-linecap="round" stroke-linejoin="round" stroke-miterlimit="10" stroke-width=".5" d="M140.82813 322.0625l6.34375-3.02734"/></g><path fill="none" stroke="#000" stroke-linecap="round" stroke-linejoin="round" stroke-miterlimit="10" stroke-width=".5" d="M156.82813 324.02734l.97656-6.95703m-.83594 5.94531l-1.15234.41797m16.52734.1836l-3.42578-6.13672m3.42578 6.13672l-1.33203 2.0586m15.19531-2.4375l-4.52344-5.37892m3.86328 4.59375l-.45703 1.14063m15.1797-1.23438l-6.01954-3.625m6.01953 3.625l-.13281 2.45313m13.51953-2.57422l-6.16016-3.38281m6.16016 3.38281l-.03516 2.45313m13.71875-3.47657l-6.89843-1.33203m6.89843 1.33203l.72266 2.34375m-1.72656-2.53906l.35937 1.17188m14.01563-1.41016l-7.01172-.46484m7.01172.46484l1.00781 2.23438m-2.02734-2.3047l.5039 1.1211m13.83203-1.47656l-7.01562.38672m7.01562-.38672l1.26953 2.09765m-2.28906-2.04296l.63672 1.05078m13.69531-1.17969l-7.0078.53125m7.0078-.53125l1.3125 2.07422m-2.33203-1.9961l.65625 1.03516m13.65235-1.33203l-6.95704.97266m6.95704-.97266l1.4414 1.98438m-2.45312-1.84375l.72265.99218m13.64063-.64844h-7.02735m7.02735 0l1.15234 2.16797m12.16016-2.16796h-7.02735m7.02735 0l1.15234 2.16796m12.16406-2.14843l-7.02734-.03907m7.02734.03907l1.14063 2.17187m-2.16406-2.17578l.57031 1.08594m13.76953-1.0625l-7.02734-.07813m7.02734.07813l1.125 2.17969m-2.14844-2.19141l.5625 1.08984m13.70703-.42578l-6.89062-1.3789m6.89062 1.3789l.70313 2.34766m12.50781-1.94922l-6.6836-2.17969m5.71095 1.86328l.21093 1.20703m14.17188-2.69921l-6.875 1.4414m5.875-1.23437l.78906.9414m13.09375-2.25l-6.00781 3.64453m6.00781-3.64453l2.10938 1.2539m-2.98438-.72655l1.05469.6289m13.00781-1.35547l-5.7539 4.03907m5.7539-4.03907l2.1875 1.11329m11.61719-.09766l-6.73438 2.00781m5.75391-1.71484l.86328.8711m12.23047 2.60937l-4.32813-5.53516m3.69922 4.73047l-.5 1.1211m13.6211-6.33204l-2.6836 6.4961m2.29297-5.55079l1.22266-.11718m13.59765-.08985l-4.91406 5.01953m4.91406-5.01953l2.35547.6914m-3.0703.03907l1.17968.34375m13.15625-.73828l-5.52344 4.34766"/><g clip-path="url(#az)"><path fill="none" stroke="#000" stroke-linecap="round" stroke-linejoin="round" stroke-miterlimit="10" stroke-width=".5" d="M466.32422 318.375l2.24219.98828"/></g><g clip-path="url(#aA)"><path fill="none" stroke="#000" stroke-linecap="round" stroke-linejoin="round" stroke-miterlimit="10" stroke-width=".5" d="M465.51953 319.00781l2.2461.98828"/></g><path fill="none" stroke="#000" stroke-linecap="round" stroke-linejoin="round" stroke-miterlimit="10" stroke-width=".5" d="M464.71484 319.64063l1.125.49218"/><path fill="#00f" fill-rule="evenodd" d="M383.80078 436.57813h8.61719v-10.14454h-8.61719v10.14454"/><path fill="azure" fill-rule="evenodd" d="M385.63281 428.26563h.83203v2.82421h3.28907v-2.82421h.83203v6.48046h-.83203v-2.91406h-3.28907v2.91406h-.83203v-6.48046"/><path fill="#ff3030" fill-rule="evenodd" d="M384.4961 414.38672h7.6914v-10.14453h-7.6914v10.14453"/><path fill="azure" fill-rule="evenodd" d="M386.32813 406.07422h.83203v5.74219h3.1953v.73828h-4.02733v-6.48047"/><path fill="#ff3030" fill-rule="evenodd" d="M295.72656 409.94922h7.69531v-10.14453h-7.6953v10.14453"/><path fill="azure" fill-rule="evenodd" d="M297.5586 401.63672h.83593v5.73828h3.1914v.74219h-4.02734v-6.48047"/><path fill="#ff3030" fill-rule="evenodd" d="M198.08203 374.4414h7.69531v-10.14452h-7.6953v10.14453"/><path fill="azure" fill-rule="evenodd" d="M199.91797 366.1289h.83203v5.7422h3.19531v.73827h-4.02734v-6.48046"/><path fill="#ffffe0" fill-rule="evenodd" d="M350.6211 374.01953h22.17968v-10.19531H350.6211v10.19531"/><path fill-rule="evenodd" d="M354.1211 365.66016h.5078v6.29296h-.78515v-4.48828h-1.39063v-.55468l.5586-.06641.2539-.05469.23047-.08984.20313-.14063.17187-.21093.14454-.29297.10546-.39453m4.8125 0l.23047.01953.21875.05469.20703.08984.19532.1211.18359.14843.17188.17578.30468.41797.24219.4961.17969.54687.10937.57812.03906.58985-.03906.59375-.10937.58594-.17969.55078-.24219.5039-.30469.42578-.17187.1797-.1836.15624-.1953.1211-.20704.09375-.21875.05468-.23047.01953-.23046-.01953-.21875-.05469-.20704-.09375-.1953-.12109-.1836-.15625-.17188-.17969-.30469-.42578-.24218-.5039-.17969-.55079-.10938-.58593-.03906-.59375h.83203l.03125.5625.07813.50781.1289.4414.16016.375.1914.30079.21094.22265.22266.13672.22656.04688.22657-.04688.22265-.13672.21094-.22265.1914-.30078.16016-.375.1289-.44141.08204-.50781.02734-.5625-.02734-.5625-.08203-.5-.1289-.4336-.16016-.36718-.19141-.29297-.21094-.21094-.22265-.13281-.22657-.04688-.22656.04688-.22265.13281-.21094.21094-.1914.29297-.16017.36718-.1289.4336-.07813.5-.03125.5625h-.83203l.03906-.58985.10938-.57812.17969-.54688.24219-.49609.30468-.41797.17188-.17578.1836-.14844.1953-.1211.20704-.08983.21875-.0547.23046-.01952m5.08985 0h.51172v6.29296h-.78907v-4.48828h-1.38671v-.55468l.55859-.06641.2539-.05469.22657-.08984.20703-.14063.17187-.21093.14063-.29297.10547-.39453m2.82422 2.17578h.78906l.01953-.3164.0586-.28907.09765-.25.14063-.21485.18359-.17578.22265-.1289.26563-.08203.30469-.02735.23828.02344.22656.0625.20313.10156.17968.13672.14844.17578.11328.20313.07031.23828.02735.26172-.02344.26953-.0664.22656-.10938.1914-.15625.17188-.19922.16016-.2461.16797-.63671.38672-.53516.3125-.4375.3203-.34765.32423-.26563.33594-.1875.34765-.125.3711-.07031.39453-.01953.41796h4.21094v-.73828h-3.33204l.08204-.28515.11328-.23828.14843-.19922.1875-.1836.23047-.16796.27735-.17579.71875-.41796.41406-.20704.34765-.23046.28125-.25.21875-.26563.16407-.28125.10937-.28125.0664-.28516.01954-.28125-.04297-.3828-.1211-.34767-.1875-.30859-.25-.26172-.30468-.21484-.34375-.15625-.3789-.10156-.41016-.03125-.4336.03125-.39843.09765-.35547.16797-.30469.23438-.2461.30468-.1875.375-.11327.44532-.04297.51953"/><path fill="#ffffe0" fill-rule="evenodd" d="M208.59375 330.74219h22.17969v-10.1914h-22.17969v10.1914"/><path fill-rule="evenodd" d="M212.09375 322.38281h.50781v6.29297h-.78515v-4.48828h-1.39063v-.55469l.5586-.0664.2539-.0547.23047-.08593.20313-.14453.17187-.20703.14453-.29688.10547-.39453m4.8125 0l.23047.01953.21875.0547.20703.08983.19531.1211.1836.14844.17187.17578.30469.42187.24219.49219.17968.54688.10938.57812.03906.58984-.03906.59375-.10938.58594-.17968.55469-.2422.5-.30468.42969-.17187.17968-.1836.15235-.19531.125-.20703.08984-.21875.0586-.23047.01953-.23047-.01954-.21875-.05859-.20703-.08984-.19531-.125-.1836-.15235-.17187-.17968-.30469-.4297-.24219-.5-.17968-.55468-.10938-.58594-.03906-.59375h.83203l.03125.56641.07813.5039.1289.44141.16016.375.1914.30078.21094.22266.22266.13672.22656.04687.22656-.04687.22266-.13672.21094-.22266.1914-.30078.16016-.375.1289-.4414.08204-.50391.02734-.5664-.02734-.5586-.08203-.5-.12891-.4375-.16016-.36719-.1914-.28906-.21094-.21484-.22266-.13282-.22656-.04296-.22656.04296-.22266.13282-.21094.21484-.1914.28906-.16016.36719-.1289.4375-.07813.5-.03125.5586h-.83203l.03906-.58985.10938-.57813.17968-.54687.2422-.49219.30468-.42187.17187-.17578.1836-.14844.19531-.1211.20703-.08984.21875-.05469.23047-.01953m5.08984 0h.51172v6.29297h-.78906v-4.48828h-1.38672v-.55469l.5586-.0664.2539-.0547.22656-.08593.20703-.14453.17188-.20703.14063-.29688.10546-.39453m2.82422 2.17578h.78906l.01954-.3164.05859-.28516.09766-.2539.14062-.21485.1836-.17578.22265-.1289.26563-.07813.30468-.02735.23828.01954.22657.0625.20312.10156.17969.14062.14844.17188.11328.20703.07031.23438.02734.26562-.02343.26953-.0664.22266-.10938.1914-.15625.17188-.19922.16406-.2461.16406-.63672.39063-.53515.3125-.4375.3164-.34766.32422-.26562.33594-.1875.35156-.125.3672-.07031.39452-.01954.41797h4.21094v-.73828h-3.33203l.08203-.28516.11328-.23437.14844-.20313.1875-.17968.23047-.17188.27734-.17578.71875-.41797.41406-.20312.34766-.23047.28125-.2539.21875-.26563.16406-.27735.10938-.28515.0664-.28516.01954-.28125-.04297-.38281-.1211-.34766-.1875-.3086-.25-.26171-.30468-.21485-.34375-.15625-.38282-.09765-.40625-.03516-.43359.03125-.39844.10156-.35547.16407-.30468.23437-.2461.30469-.1875.375-.11328.44531-.04297.51953"/><path fill="#ffffe0" fill-rule="evenodd" d="M319.55078 325.2539h22.1836v-10.1914h-22.1836v10.1914"/><path fill-rule="evenodd" d="M323.05078 316.89453h.51172v6.29688h-.78906v-4.4922h-1.38672v-.55468l.5586-.0625.25-.05469.23046-.08984.20313-.14063.17578-.21093.14062-.29297.10547-.39844m4.8125 0l.23047.01953.21875.05469.21094.08984.19531.1211.1836.15234.17187.17578.30078.41797.24219.49219.17969.54687.11328.57813.03906.59375-.03906.59375-.11329.58203-.17968.55469-.24219.5-.30078.42969-.17188.17968-.18359.15235-.19531.125-.21094.08984-.21875.0586-.23047.01952-.22656-.01953-.21875-.05859-.21094-.08984-.19531-.125-.1836-.15235-.17187-.17969-.30078-.42968-.24219-.5-.17969-.55469-.11328-.58203-.03906-.59375h.83594l.02734.5625.08203.5039.125.44532.16406.375.19141.30078.21094.21875.22265.13672.22266.04687.22656-.04687.22266-.13672.21094-.21875.1914-.30078.16407-.375.125-.44531.08203-.50391.02734-.5625-.02734-.5625-.08203-.5-.125-.4375-.16407-.36328-.1914-.29297-.21094-.21485-.22266-.1289-.22656-.04688-.22265.04688-.22266.1289-.21094.21485-.1914.29297-.16407.36328-.125.4375-.08203.5-.02734.5625h-.83594l.03906-.59375.11328-.57813.1797-.54687.24218-.49219.30078-.41797.17188-.17578.18359-.15234.19531-.1211.21094-.08984.21875-.05469.22656-.01953m5.09375 0h.50781v6.29688h-.78515v-4.4922h-1.39063v-.55468l.5625-.0625.25-.05469.23047-.08984.20313-.14063.17578-.21093.14062-.29297.10547-.39844m6.80469 1.6211h-.78906l-.05079-.21094-.08203-.1875-.10546-.16016-.12891-.1289-.14844-.10547-.16015-.07422-.16797-.04297-.17188-.01563-.32812.03907-.28907.12109-.24609.19531-.20313.26953-.16015.33985-.11719.40234-.07031.46875-.02344.52344.1914-.20313.1836-.15625.1875-.125.1836-.08593.1875-.0625.1953-.03516.39844-.02344.3086.02735.32031.09375.3164.15625.29298.21875.2578.28515.19923.35156.07031.19922.05469.21875.02734.23438.0039.25-.78515.04687-.02734-.2578-.07813-.25392-.1211-.23437-.16015-.21094-.19531-.17578-.21875-.13672-.24219-.08984-.2539-.03125-.25391.03125-.24219.08984-.21875.13672-.1914.17578-.16407.21094-.12109.23438-.07813.2539-.02734.25781.02735.25782.07812.25.1211.23437.16406.21094.1914.17969.21875.13671.24219.08594.2539.03125.25391-.03125.24219-.08594.21875-.13671.19531-.1797.16016-.21093.1211-.23437.07812-.25.02734-.25782.78516-.04687-.03125.3711-.08985.37109-.16015.35937-.22266.32813-.28906.28125-.16797.12109-.1914.10156-.20313.08203-.22656.0625-.23829.03907-.26171.01171-.28125-.01562-.26172-.04688-.23828-.07812-.21485-.10547-.19531-.1289-.17188-.15625-.15625-.1797-.13671-.20312-.11329-.22265-.10156-.2422-.14453-.53515-.08594-.59375-.02734-.64062.03906-.74219.11328-.66406.1875-.57813.1211-.2539.13672-.23047.15234-.20703.16797-.1836.1875-.15234.20312-.13281.21875-.10157.23047-.0703.25-.04688.26172-.01563.36328.03516.33203.09375.29688.15234.25781.19922.21094.24219.16406.27344.11719.30468.0625.32031"/></g></defs><use xlink:href="#aB"/></svg>