<svg xmlns="http://www.w3.org/2000/svg" role="img" xmlns:xlink="http://www.w3.org/1999/xlink" viewBox="142.45 309.95 326.84 171.84"><defs><clipPath id="a"><path d="M144 438h1v42.32813h-1zm0 0"/></clipPath><clipPath id="b"><path d="M144 311.67188h1V434h-1zm0 0"/></clipPath><clipPath id="c"><path d="M144 311.67188h324v168.65625H144zm0 0"/></clipPath><clipPath id="d"><path d="M380 452h15v28.32813h-15zm0 0"/></clipPath><clipPath id="e"><path d="M467 311.67188h1v168.65625h-1zm0 0"/></clipPath><clipPath id="f"><path d="M144 479h4v1.32813h-4zm0 0"/></clipPath><clipPath id="g"><path d="M147 480h2v.32813h-2zm0 0"/></clipPath><clipPath id="h"><path d="M153 479h9v1.32813h-9zm0 0"/></clipPath><clipPath id="i"><path d="M160 480h3v.32813h-3zm0 0"/></clipPath><clipPath id="j"><path d="M159 480h2v.32813h-2zm0 0"/></clipPath><clipPath id="k"><path d="M166 480h9v.32813h-9zm0 0"/></clipPath><clipPath id="l"><path d="M173 480h3v.32813h-3zm0 0"/></clipPath><clipPath id="m"><path d="M172 480h2v.32813h-2zm0 0"/></clipPath><clipPath id="n"><path d="M180 480h8v.32813h-8zm0 0"/></clipPath><clipPath id="o"><path d="M187 480h2v.32813h-2zm0 0"/></clipPath><clipPath id="p"><path d="M193 479h9v1.32813h-9zm0 0"/></clipPath><clipPath id="q"><path d="M200 480h3v.32813h-3zm0 0"/></clipPath><clipPath id="r"><path d="M206 479h9v1.32813h-9zm0 0"/></clipPath><clipPath id="s"><path d="M213 479h3v1.32813h-3zm0 0"/></clipPath><clipPath id="t"><path d="M220 479h8v1.32813h-8zm0 0"/></clipPath><clipPath id="u"><path d="M227 479h2v1.32813h-2zm0 0"/></clipPath><clipPath id="v"><path d="M233 479h8v1.32813h-8zm0 0"/></clipPath><clipPath id="w"><path d="M240 479h3v1.32813h-3zm0 0"/></clipPath><clipPath id="x"><path d="M246 479h9v1.32813h-9zm0 0"/></clipPath><clipPath id="y"><path d="M253 479h3v1.32813h-3zm0 0"/></clipPath><clipPath id="z"><path d="M260 479h8v1.32813h-8zm0 0"/></clipPath><clipPath id="A"><path d="M266 479h2v1.32813h-2zm0 0"/></clipPath><clipPath id="B"><path d="M273 479h8v1.32813h-8zm0 0"/></clipPath><clipPath id="C"><path d="M279 480h2v.32813h-2zm0 0"/></clipPath><clipPath id="D"><path d="M286 479h9v1.32813h-9zm0 0"/></clipPath><clipPath id="E"><path d="M292 480h2v.32813h-2zm0 0"/></clipPath><clipPath id="F"><path d="M300 479h8v1.32813h-8zm0 0"/></clipPath><clipPath id="G"><path d="M305 480h2v.32813h-2zm0 0"/></clipPath><clipPath id="H"><path d="M315 476h4v4.32813h-4zm0 0"/></clipPath><clipPath id="I"><path d="M327 477h6v3.32813h-6zm0 0"/></clipPath><clipPath id="J"><path d="M340 478h8v2.32813h-8zm0 0"/></clipPath><clipPath id="K"><path d="M340 480h2v.32813h-2zm0 0"/></clipPath><clipPath id="L"><path d="M353 478h8v2.32813h-8zm0 0"/></clipPath><clipPath id="M"><path d="M353 480h3v.32813h-3zm0 0"/></clipPath><clipPath id="N"><path d="M367 477h7v3.32813h-7zm0 0"/></clipPath><clipPath id="O"><path d="M380 478h8v2.32813h-8zm0 0"/></clipPath><clipPath id="P"><path d="M380 480h2v.32813h-2zm0 0"/></clipPath><clipPath id="Q"><path d="M393 478h8v2.32813h-8zm0 0"/></clipPath><clipPath id="R"><path d="M391 479h3v1.32813h-3zm0 0"/></clipPath><clipPath id="S"><path d="M393 480h2v.32813h-2zm0 0"/></clipPath><clipPath id="T"><path d="M407 478h7v2.32813h-7zm0 0"/></clipPath><clipPath id="U"><path d="M404 480h4v.32813h-4zm0 0"/></clipPath><clipPath id="V"><path d="M406 480h3v.32813h-3zm0 0"/></clipPath><clipPath id="W"><path d="M420 478h7v2.32813h-7zm0 0"/></clipPath><clipPath id="X"><path d="M418 480h3v.32813h-3zm0 0"/></clipPath><clipPath id="Y"><path d="M434 477h6v3.32813h-6zm0 0"/></clipPath><clipPath id="Z"><path d="M447 477h7v3.32813h-7zm0 0"/></clipPath><clipPath id="aa"><path d="M460 478h7v2.32813h-7zm0 0"/></clipPath><clipPath id="ab"><path d="M460 480h2v.32813h-2zm0 0"/></clipPath><clipPath id="ac"><path d="M144 466h4v2h-4zm0 0"/></clipPath><clipPath id="ad"><path d="M144 452h4v3h-4zm0 0"/></clipPath><clipPath id="ae"><path d="M466 451h2v3h-2zm0 0"/></clipPath><clipPath id="af"><path d="M144 439h4v3h-4zm0 0"/></clipPath><clipPath id="ag"><path d="M466 439h2v3h-2zm0 0"/></clipPath><clipPath id="ah"><path d="M144 425h4v4h-4zm0 0"/></clipPath><clipPath id="ai"><path d="M466 426h2v3h-2zm0 0"/></clipPath><clipPath id="aj"><path d="M144 412h4v4h-4zm0 0"/></clipPath><clipPath id="ak"><path d="M466 412h2v3h-2zm0 0"/></clipPath><clipPath id="al"><path d="M144 398h4v5h-4zm0 0"/></clipPath><clipPath id="am"><path d="M466 398h2v3h-2zm0 0"/></clipPath><clipPath id="an"><path d="M144 384h3v6h-3zm0 0"/></clipPath><clipPath id="ao"><path d="M466 386h2v3h-2zm0 0"/></clipPath><clipPath id="ap"><path d="M144 372h4v4h-4zm0 0"/></clipPath><clipPath id="aq"><path d="M466 372h2v4h-2zm0 0"/></clipPath><clipPath id="ar"><path d="M144 359h4v3h-4zm0 0"/></clipPath><clipPath id="as"><path d="M466 359h2v3h-2zm0 0"/></clipPath><clipPath id="at"><path d="M144 346h4v2h-4zm0 0"/></clipPath><clipPath id="au"><path d="M466 345h2v4h-2zm0 0"/></clipPath><clipPath id="av"><path d="M144 332h4v4h-4zm0 0"/></clipPath><clipPath id="aw"><path d="M466 332h2v3h-2zm0 0"/></clipPath><clipPath id="ax"><path d="M144 319h4v3h-4zm0 0"/></clipPath><clipPath id="ay"><path d="M466 318h2v2h-2zm0 0"/></clipPath><clipPath id="az"><path d="M465 318h3v3h-3zm0 0"/></clipPath><g id="aA" clip-path="url(#clip1)"><path fill="#fff" fill-opacity="0" fill-rule="evenodd" d="M0 0h1000v1000H0zm0 0"/><path fill="#d3d3d3" fill-opacity="0" fill-rule="evenodd" d="M162.15234 355.86719l-.23437.29297.0586.23437.11718.17188.17578.23437.29297.34766.11328.0586.11719-.17188.0586-.23438.17577-.17578.46485-.17578h.69922l.23437.29297.28906.8164.0586.17579.17578.23046.35156.23438.69922.69922.17188.17578.23437.34765.23438.41016.28906.58203.41015.46485.23047.23437.23438.17578.11719.23047.17578.29297.17187 1.16406v.23438l.0586.28906.05859.11719.11719.11719.34765.41015.11719.17188.17578.17578.17578.23437.11719.17188.17188.35156.05859.23438.23437.40625.23438-.0586-.17578.17578-.0586.92969h-.58203l-.23437-.11328-.34766.11328-.11719.11719-.05859.29297-.0586.17578-.11718.17187-.46484.29297-.0586.23438-.0586.11328v.64453l.0586.17187v.41016l.0586.0586v.40624l.05859.40625.11719.17579.05859.05859.23047.64062-.0586.29297v.69922l-.05859.58203v.23438l-.0586.23047-.05468.35156v1.92187l.05469.1172h.42578l-.36719.11718-.02344.35156.89063 1.16797 1.74219.53906 1.33984.35938v.53906l.08984.8086.53516.71484 1.51953.26953.89063-.08594.08984 1.16406.53516.1797 1.16015-.1797 2.05469-.98437 1.16016-.36328 1.8789-.17578 1.69531-.1797-.17968.71876-1.51563.08594-1.25.08984-.80469.26953-1.07421.8086.26953.71875.53515.89843-.17968.625-.26563.8086.26563 1.07812.625.89844.80468.17969 1.25-.1797-.26562.72267.09766.5039.05468.29297v.17188l.0586.29296v.40625l.17578.1172.35156.11718h.40625l.29297-.17578.11328-.11719.0586-.11719.11718-.23047.0586-.17578.35156-.46484.23047-.17578.17578-.0586.17578.0586.0586.17578.11718.98828.05469.46875.0586.17188.11718.23437.17578.0586.8164.05859h.28907l.11719.23437.05859.40625.0586.35156v1.10547l.11718.29297.11719.34766.28906.69922.17578.35156.58203.7539.35157.17579.17187.0586.46875.23437.64063.46484.34765.23438.29297.17578.29297.05468.23047.0625.8164.34766.29297.17578.11328.17188.35157.35156.11719.17578.52343.64063v.28906l.0586.35156v.34766l.05859.35156.0586.28906.11718.0586.17188.05859h.17578l.58203.23437.17578.1172.17578.28905.17578.23438.11328.23437.29297.23047.11719.11719v.41016l.0586.05468.28906.23438.23437.11719.0586.11718.11718.17188.0586.11719.23047.23437.05859.17578.23437.0586.1172.05859-.1172.11328-.05859.11719v.11719l-.11719.29296-.11719.28907v.58203l.17579.11719.11718.05859.0586.11719.11719.11719.11328.05859.17578.34765.0586.35157.05858.40625v.17578l-.05859.17578-.11719.69922v.17187l.1172.17579.29296.29296h.40625l.17578.1172.11719.17187.11719.29296v.23438h-.52735l-.23047-.23438h-.23437l-.17578.0586-.0586.69922.0586.34765.11719.17579.17578.41015.11718.23047.28907.46875.17578.05469h.52344l.23437.0586.75781.64062.0586.29296v.23438l.05859.0586.23047.34765v.35156l-.11719.17188v.29297l.29297.28906.29297.17578.17187.0586.29297.17577.29297.1172.58203.40624.28906.23438.29297.17578.21875.16015.01563.01172.23047.17579.64062.52343.17578.23438.1172.17578.17577.17578.11328.17188v.64062l.1172.17578.46874.11719.58203.11719.23438.05859.23047.11328.29297.11719.11328.0586.58593.35156.28907.17187.17578.0625.17578.05469.17578.0586.69922.35155.28906.17579.23438.05468.28906.17578.23437.1172.64063.40624.29297.11719.17187.0586.23438.05859.41015.05859.23047.0586.23438.11718.0586.17188-.41017.17578.46875.0586.0586.29296.11328.23438.17578.05468.23438.0586.17578.05859.40625.11719.64062.23437.11719.17188.0586.23437v.17578l-.0586.1172-.0586.40624.23438.23438.11719.05859.34766.11719.64062.23047.17578.11718.28906.1172.17578.17577.23438.46485.58203 1.10546.17578.17579.34766.17578.17578.11719.35156.11718 1.04688.52344.23437.0586.46485.11327.29297.0586.46484.17578.75781.58203.23438.23438.34765.46484.17578.17578.28907.23438.8164.69921.29297.17579.28906.28906.29297.17578.29297.28906.69531.64063.17578.17578.29297.23437.28907.23438.46875.28906.64062.58203.34766.23438.23437.29297.34766.34765.35156.46485.9336.99218.34765.40625.11719.17579.23437.05859.11328.11719.64454.17578.23047.11328.23437.0586.29297.17577.23047.1172.9336.69921.40624.40625.23438.17578.40625.17578.23437.11719.8164.34766.34766.23437.23438.11719.29297.28906.23047.11719.7578.35156.35157.17188.23047.05859.29297.11719.23437.0586.8711.17577h.8164l.46875.23047.17188.0586.875.69921.46484.1172.29297.05858.17578.0586.23047.0586.46875.05859.34766.05859.35156.0586.40625.05859h.29297l.17187.0586v.23046l.17578.17578h.29297l.34766.0586.35156.05859.69922.11719h.64063l.46484-.23438.29297-.17578.17187-.11719.41016-.17187.28906-.17578.9336-.46485.46875-.29297.52343-.29296.46485-.17188.46484-.17578 1.05078-.46485.28906-.11718.41016-.11719.28906-.11719.52735-.17578 1.51562-.69922.58203-.34765.28907-.0586.29297-.0586.34765-.11718.875-.23047.35156-.11719h.11329l.23437-.05859.875-.23437.23438-.0586h.8125l.35156-.0586.8164-.11718.17188-.0586.35156-.05468.29297-.0586.23047-.05859.8164-.17578.17579-.0586h.34765l.23438-.05859.46484-.11718.75781-.17188.23438-.0586h.34765l.41016-.11718.28906-.0586 1.28516-.05859h.28906l.41016-.0586.23047-.05858h.17578l.875-.1172h.40625l.41015-.11718h.34766l.35156-.11328.8711-.0586h1.75l1.04687.28907.41016.11719.28906.11718.35156.11719.28907.11719 1.05078.17187.28906.0586h.29297l.29297.05859.17187.0586.41016.05859.17187.0586.1172.05858h.11718l.11719.0586.35156.0586h.11328l.41016.0664 1.92187.39453 1.92578.39453 1.51953.44922 1.69532.71875 2.14453.80469 1.60547-.71875 1.42968-.80469 1.16016-1.07813 1.25-.44921 3.03516-.71875 1.875-.35938 2.14453-1.34765 2.23437-1.25391 2.5-1.25781 1.69531-.44922 1.78516-.17969 1.16016-.26953.625.53906 1.33984-.26953.71485-.98828.98437-1.34375.44531-.17969.80469-.35937 1.875-.53907 1.78516-.44921 1.25-.26954 1.16015-.08984 1.69922-.08984 1.96094-.26954 1.25-.08984h.53906l.625-.08984h.89063l2.14453-.17969 2.41015-.17969 2.58985-.08984 1.69531.17969 1.60938.08984 1.42968.35938 1.16016.71875 1.875.98828 1.16015 1.52734.26563.71484.6289.08985.35548.89844.53515.53906.53516 1.52734 1.07422.35938h.53515l-.80469.53515.08985 1.70703.71484 2.69532.89063.80468.89453.98829.71484 1.2578 1.78516.53907 1.51953-.17969.35547 1.34375 1.60937-.80469.98047-.53906.26953.26953.31641-.21484.21875-.14453.80078.44922.44922-.35938h.35547l.53515-.26953.53907-.71875.53515-.26953.625-.98828 1.16016.44922.83984.3711 1.39454.61718 1.6953-.17969h1.60548l1.78515.08985.17969-1.70704.53516-1.34375.80468.26954.4922.84765.40233.40625-.08984.53906v.35938l.71485.44922.71093-.26953h1.42969l.35938.98828.4453 1.25781.71485 1.34375 1.25.6289 1.69531.62891.71485-.17969.17969-.53906.98046-.08984.44922.35937.08594 1.25782-.26563.6289-.53515.17969v.53906l.71484.98438.26563.53906.98437.98828.80078 1.07813-.26562.35937-.08985.89844-.625 2.33203-.35546 2.0664-.08985 1.79298-.17969.71875-.08984.53906v1.4375l-.98047 1.88281-.35937 1.70703-.53516.89844-.80469 1.16797-.26562.53906 2.05469 1.2539.08593.35938-.35546.53906-.08985-.17968v.80859l.08985 1.4375-.44532.71484-1.07422.09375-.26562.71485.53515.89844.8047.71875 1.16015.80859 1.33984.26953.44531.35938-.35546.44921-1.78907-.08984-1.25-.44922-.71484-.71875-.625-.08984-.17578 3.58984-.1875 1.3086h89.35937V311.70313h-55.26953v49.08203l.76172.125 3.28906.54296 2.02344 2.83594v2.7539l2.35156.33204 2.34766.33203h4.05078l-1.3789 4.16016-2.02344.70703-2.02344.70312-.54297.34375-2.59375 1.6172-.1875.11718-2.02344-2.07813-.73046-2.74218-2.67188-2.07813-1.375-3.5-.0664-.08203-1.95704-2.67188 2.75-1.41796v-49.08204H294.42187v91.41407l.1172.03125.1328.01172.07422.07421.10547.04688.08985.0586.08593.05859.08985.0586.29687.29687.0586.08984.03125.11719.02734.11719.01563.13671-.03125.1172-.0586.08983-.0586.08594-.04296.10547-.04688.10156-.02734.1211v.14453l.17578.26953.14844.14844.07422.08594.07422.07421.04296.10547.0625.08985.0586.08593.04297.10547.0586.08985.04687.10156.04296.10547.0586.08594.11719.17968.07421.07422.0625.08594.0586.08984.04297.10547.0586.08985.05858.08593.0625.08985.0586.08984.04297.10156.11719.17969.07421.07422.0586.08594.07422.07421.08984.0586.10547.04687h.14844l.1328-.01562.13282.01562.10156-.04687.07422-.07422.04688-.10156-.01563-.13281v-.14844l-.04687-.10547-.02735-.11719-.04687-.10156-.02735-.1211-.04296-.10156-.0625-.08984-.04297-.10156-.04297-.10547-.03125-.11719-.01563-.13281-.01171-.13672.08593-.0586.0586-.08593.12109-.03125.04297.10547.01562.1328v.1172l.0586.10156.0586.08984.08983.0586.14844.14843.0586.08985.04296.10547-.01171.10156.08593.0586.10547.04687.08594.0586.08984.05858.07422.07422-.11719.02735-.10546.04687-.08594.0586-.07422.07421-.0586.08985-.0625.08594-.02734.12109-.04687.10156-.04297.10547-.03125.11719-.01172.13281-.01563.13281v.14844l.02735.11719.04687.10547.04297.10156.0586.08984.07421.07422.08985.0586.07422.07421.08984.0586.0586.08984.04296.10547.04688.10156.11719.03125.1328.01563h.14845l.11718-.03125.10547.04297.04297.10547.04688.10156.02734.1211L299.5 410l.02734.11719.03125.1211.02735.11718.10547.04297.10156.04687.13281-.01562.14844.14844.0625.08593.07422.07422.07031.07422.08984.0625.10547.04297.10156.04297.1172.03125.13671.01562.11719-.03125.07422-.07422.02734-.11718-.01172-.13282-.03125-.12109-.02734-.11719.04297-.10547h.11719l.08984.0625.11719.02735h.14843l.13282.01562h.14843l.13282.01563.1328-.01563h.14845l.1328-.01562.13282-.01172.13672.01172.11719-.02735.13281-.01562.1914-.0586-.05859.17579-.01562.1328-.02735.1211-.01562.13281-.0586.08594-.1328.01563-.10548.04687-.10546.04297-.1172.03125-.11718.02735-.26563.03125h-.14843l-.13281.01562-.07422.07422.05859.08594.14844.14843.11719.1797.07421.0703.08985.0625.08984.0586.08594.0586.08984.05858.10156.04297.10547.0625.10547.04297.08594.0586.10547.04687.10156.04297.17969.11719.0586.08984-.04298.10156-.04687.10547.01562.13281.22266.22266.0586.08985.04296.10156.03125.1211.04297.10155.01563.13282.03125.11718.01171.13672.03125.11719.14844.14844.10156.04297.10547.04296.1172.03125.1328.01563.13672.01563h.11719l.11719-.03125.08984-.0586.04297-.10547.04688-.10156.04296-.10547.03125-.11719.01172-.1328v-.14845l-.01172-.1328-.01562-.13282-.03125-.11719-.04297-.10547-.04688-.10547-.04296-.10156-.04297-.10547-.01563-.13281.01563-.13281.02734-.11719.03125-.11719.02735-.1211.04687-.10155.08984-.0586.08594-.0625.07422-.07422.08984-.05859.22266-.22266.0586-.08593.07421-.07422.11719-.17969.0586-.08594v-.14844l-.07423-.07421-.10156-.04688-.10547-.04297-.10156-.04297-.0586-.08984-.04687-.10547-.02734-.11719.08984-.05859.11719-.03125.10156-.04297.17969-.11719.14844-.14843.01172-.13282-.01172-.10546-.08985-.0586-.1328.01563h-.14845l-.1328.01562-.13282-.01562-.1211-.03125-.08593-.0586-.07422-.07422-.0586-.08984-.0625-.08594-.11718-.17969-.0586-.08593.03125-.1211.08594-.05859.1211-.03125.05859-.08594v-.1211l-.03125-.11718-.0586-.08984-.05859-.08594-.04687-.10547-.02735-.11719-.01562-.1328.0586-.08985.07421-.07422.08984-.0586.1172-.17968.07421-.07422.0586-.08594.14843-.14844.1211-.03125.1328-.01562.13282.01562.07422.07422.04297.10547.01562.13281-.03125.1172-.11719.03124-.1328.01172-.14844.14844-.04297.10547-.04688.10156-.02734.1211-.03125.11718v.14844l.03125.11719.04297.10546.05859.08985.07422.07031.07422.07422.11719.03125.12109.02734.11719-.02734.1328-.01563h.1172l.08984.0586.07422.07422.04687.10546.0586.08594.10156.04688.13281.01562.10547.04297.08594.0586-.01172.10546-.07422.07422-.17969.11719-.05859.08984-.08984.0586-.07032.07422-.07421.07421-.0625.08985-.02735.11719-.01562.1328.01562.13282-.01562.13281v.14844l.01562.13281.02735.1172.03125.12108.07421.07422.08985.0586.08594.0586.08984.05858.11719.03125v.08594l-.10157.04688-.08984.0586-.26563.03124-.11718.02735h-.14844l-.10547.04296-.10156.04688-.0586.08984-.0625.23438-.01171.13281-.03125.1211-.01563.1328v.29298l-.01172.1328.01172.13673.01563.1328.1328.01563.13282.01172.1211.03125.08593.0586.07422.07421.04688.10547.04296.10157.01563.1328v.44532l-.01563.13281v.44532l.03125.26562.02735.11719.01562.13281.03125.11719.08594.21094.03125.26562v.14844l-.03125.11719-.02734.11718-.03125.1211-.02735.11719-.03125.11718-.03125.1211-.01171.1328-.01563.13282.08984.0586.1172-.03125.10155.01562.04688.10547-.03125.26562v.44141l-.04297.10547-.04688.10547-.04296.10156-.04297.10547-.0586.08594-.03125.12109-.04296.11719-.03125.11719-.01563.1328.01563.13282.05859.08984.10547.04688.08594.0586.05859.08593-.01172.13672-.03125.11719-.04297.10156v.44531l-.01562.13281v.14844l-.03125.11719-.04297.10547-.02735.11719-.04687.10546-.04297.10157-.03125.12109-.02734.11719-.03125.13281-.03125.11719-.02735.11719-.04297.10546-.03125.1172-.03125.12108-.01171.13282-.01563.13281v.29688l.02734.11718v.14844l.04688.39844.02734.11719.0586.08984.12109.03125h.14844l.13281-.01563.0586.08985v.11719l-.0586.08984-.08984.0586-.10157.04296-.10546.04688-.08985.05859-.08594.0586-.13671.01562-.1172-.03125-.1328-.01563-.10157.04688-.0625.08594-.01172.13671-.01562.13282-.03125.11719-.02735.11718-.01562.13281-.03125.1211v.29687l.01563.13282.03125.11718v.14844l.01171.13281v.14844l-.02734.11719-.04688.10156-.02734.1211-.03125.11718-.0586.08985-.07421.07421-.10156.04297-.10547.04688-.11719.02734-.1211.03125-.10156-.04687.0586-.08594.10547-.04688.02734-.11718.03125-.11719.02734-.1211.03125-.11718v-.14844l.01563-.13281-.03125-.11719-.04297-.10547-.10547.01563-.07422.07422-.10156.04296-.08984.0625-.07422.07422-.04297.10157-.01563.1328-.03125.1172L304.25 426l-.03125.11719-.02734.11719-.03125.12109-.02735.11719-.03125.11718-.04297.10547-.08984.0586h-.08984l-.1172-.03125-.03124-.08594.01562-.13672-.03125-.11719v-.14844l-.01171-.1328v-.14844l-.0625-.23438-.02735-.1211-.04297-.10156-.04687-.10546-.0586-.08594-.05859-.08985-.04297-.10546-.0625-.08594-.14844-.14844-.0703-.07422-.10548-.04687-.10547-.04297-.10156-.04297-.29687-.29688-.08985-.07421-.08594-.0586-.10546-.04297-.08985-.0625-.08594-.0586-.10546-.04296-.08985-.0586-.08594-.0625-.07421-.0703-.10547-.04688-.08594-.0586-.10547-.04296-.08984-.0625-.10156-.04297-.10547-.04297-.08594-.0586-.10547-.04687-.10547-.04297-.10156-.04687-.08985-.0586-.10156-.04297-.10547-.04296-.08984-.0625-.11719-.02735-.13281-.01562-.13281.01562H299.75l-.13281.01563-.11719-.03125-.08984-.0586-.07422-.07422-.08985-.05859-.10156-.04688h-.14844l-.12109-.02734-.10156-.04297-.07422-.07422-.11719-.17968-.08984-.0586-.10156-.04297-.08985-.0625-.10547-.04296-.08984-.0586-.08594-.0586-.10547-.04687-.0586-.08594-.05858-.08984-.04297-.10547-.04688-.10156-.07422-.07422-.08594-.0586-.07421-.07421-.08985-.0586-.22265-.22265-.04297-.10547-.03125-.26563.10547-.04296h.14453l.10547.04296.07421.07422.08985.0586.08594.0586.10546.04687.08985.05859.14844.14844.0703.07422.14845.14843.0625.08594.07421.07422.08594.0586.07422.07421.08985.0625.08984.0586.08594.05859.26953.17578.10156.04688.10547.04296.10156.04297.04688-.07421.05859-.08594.07422-.07422.07031-.07422.10547.04297.07422.07422.0586.08984.04296.10156.04688.10547.04296.10547.1211.02735.11719-.02735.07421-.08984.04297-.10547.0586-.08985.07422-.07421.10546-.04297.1172-.02735.1328.01172.08985.0586.14844.14843.05859.08985.04297.10547.04687.10156.04297.10547.04297.10156.10547.04688.10547.04296.13281.01563.08594-.0586.0586-.08984.07421-.07422.10547-.04297.11719.02735.10547.04687.10156.04297.10547.04297.10156.04688.17969.11718v.11719l-.01563.13281.01563.13281.01562.13672.0586.08594.10156.04688.1211.02734.11718.03125h.14844l.11719-.03125.05859-.08984.17969-.1172.05859-.08983.07422-.07422.0586-.08594.11718-.17969.17969-.11719.11719.03125.08984.0586.04297.07422-.01563.1328v.1172l.08985.05859h.14843l.13282-.01563.1328-.01171.26563-.03125.10547-.04297.11719-.03125.1211-.02735.07421-.07421.07031-.07422.0625-.08985-.01562-.10547-.04688-.10156-.10156-.04297-.10547-.01562-.11718.02734-.26563.03125h-.14844l-.07421-.07422-.08985-.0586-.11719-.03124-.11718-.02735-.13282-.01562h-.14843l-.13282.01563h-.29687l-.10547-.04688-.14844-.14844-.04297-.10156-.05859-.08984.22266-.22266.08593-.0586.10547-.04296.11719-.03125.13281-.01563.13281.01563.13672.01562.10157.04297.1328-.01172.08985-.0625.10156-.04297.0625-.08984-.04687-.10156-.08984-.0586-.1172-.03125-.10155-.04296-.0586-.08985-.0625-.08984v-.11719l.01563-.13281.10547-.04688.07421-.07031v-.1211l-.08984-.05859-.03125-.11719.08985-.05859.07421-.07422.04297-.10547.0586-.08984.04687-.10156.01563-.13281v-.14844l-.04688-.10547-.04297-.10156-.08984-.0586-.13281-.01562-.10157-.04297-.13671-.01563-.1172-.03125h-.4453l-.13282-.01562-.13281-.01172-.13281-.01563-.11719-.03125h-.14844l-.13281-.01562-.13281-.01172-.26563-.03125-.1211-.04297-.08593-.0586-.07422-.07421v-.14844l.01172-.13281.10547-.04688.10156-.04296.13281-.01563h.15235l.13281-.01562h.29297l.1211.03125.10156.04296.08984.0586.23438.0625.12109-.04688.08984-.05859.10156-.04297.13282-.01562.10547.04296.10156.04688.13281.01172.1211-.02735h.14453l.12109-.03125.11719-.02734.10547-.04687.07421-.07422.08594-.0586.14844-.14843.0586-.08594.04687-.10547.02734-.11719.01563-.10547-.10156-.04296-.08985-.0586-.11719-.03125-.10546-.04297-.08985-.0625-.07422-.08594-.07422-.07421-.10156-.04297-.10547-.04688-.10156-.04297-.0586-.08984-.04687-.10156-.08594-.21094-.0625-.08594-.05859-.08984-.07422-.07422-.08594-.0586h-.26953l-.11719.03126-.08984.05859-.10156.04297-.13281.01562-.10547-.01562-.02735-.11719-.0625-.08984-.11718-.03125-.10157-.04297-.14843-.14844-.03125-.11719-.01563-.10546.07422-.07422.17969-.1172.11719-.02733.11718-.03125.13672.01562.10156.04297.10547.04297.10156.04687.10547.04297.1172.03125.1328.01563.1172.02734.1328.01563.10547-.01563.08985-.0586-.07422-.07421-.10547-.04297-.07422-.07422-.07422-.08984-.14844-.14844-.08593-.0586-.08985-.05859-.07422-.07422-.08984-.0586-.10156-.04687-.1211-.02734-.10156-.04688-.10547-.04296-.11719-.03125-.10156-.04297-.1211-.03125h-.14843l-.11719.03125-.10546.04297-.08594.0625-.17969.11718-.08594.0586-.08984.0586-.10547.04687-.08594.05859-.10547.04297-.10156.04297-.10547.04687-.07422.07422-.05859.08985-.0586.08593-.04687.10547-.0586.08594-.07421.07422-.13281-.01172-.1172-.03125h-.11718l-.07422.07422-.08984.0586-.07422.07421-.08984.0586-.08594.05859-.10547.04687-.10156.04297-.13672.01563-.10156-.04297-.14844-.14844-.10547-.04688h-.08594l-.10547.04688-.10156.04297-.1211.03125-.11718-.03125-.07422-.07422v-.11719l.03125-.1211.07422-.0703.0586-.08985.07421-.07422.11719-.03125.10547-.04296h.29297l.13281-.01563.13672-.01563.10156-.04296.08985-.0586.10156-.04687.08984-.0586.13281-.01171.08985.05859.13281.01172.08984-.0586.08594-.05859.10547-.04297.08984-.0586.08594-.0625.08985-.05859.14843-.14843.0586-.08594.05859-.08985.10547-.04296.13281-.01563.11719.02735.1211.03125.05859-.0586.05859-.08984.03125-.26563.02734-.11719.10547.01172.13281.01563.10157-.04297.08984-.0586.0586-.08984.07421-.07422.0586-.08984.04687-.10156.01172-.13281-.01172-.13282-.04687-.10547-.14844-.14843-.0586-.08985-.05859-.08594-.04297-.10546v-.44532l.01563-.1328v-.14845l.01172-.1328-.0586-.0586-.08984.0586-.10156-.04298-.17969-.11719-.08594-.05859-.0625-.08984-.0586-.08985-.07421-.07421-.08594-.0586-.1211.03125-.10155.01172-.10547.04688-.08594.05859-.10547.04297-.14844.14844-.08984.05859-.08594.0586-.08984.0625-.10547.04296-.13281.01563v-.1211l.10547-.04297.11718-.03125.07422-.0703.04297-.10548v-.14844l-.02734-.11718-.14844-.14844-.13281-.01563h-.14844l-.11719.03125-.10547.04297-.10156.04297-.08984.0625-.11719.02735-.07422-.07422.01172-.13281-.04297-.10157-.04297-.10547-.08984-.05859-.11719.02734-.1211.03125-.11718.03125-.10156.04297-.1211.03125-.10156.04297-.10547.04297-.08984.0586-.10156.01562v-.11719l.01562-.13281-.0586-.08985-.07421.04297-.14844.14844-.0586.08985-.07421.07421-.04688.10547-.04296.10156-.07422.07422-.0586.08985-.07422.07422-.05859.08593-.07422.07422-.08984.0625-.07422.07031-.07422.07422-.10156.01563-.13281.01562-.10547-.04296v-.1211l.14843-.14844.04297-.10156.0586-.08984.04687-.10156.04297-.10547.0586-.08985.03124-.11719.04297-.10156.03125-.1211.02735-.11718.04687-.10547.04297-.10156.04297-.10547.07422-.07031.08984-.0625.08985-.0586.10156-.04296h.29687l.26563-.03125.10547-.04297-.07422-.07422-.11719-.03125-.10547-.04297-.08984-.0586-.10156-.04687-.08985-.0586-.10156-.04296-.10547-.04297-.08984-.0625-.08594-.0586-.10547-.04296-.10156-.04297-.1211-.03125-.11718-.03125-.10157-.04297L297.5 410.25l-.10156-.04297-.08985-.0586-.04296-.10546-.01563-.13281.10156-.04297.13281-.01563.13672.01563.13282-.01563.10156-.04297.0586-.08984.01562-.10547-.08985-.0586-.07421-.07421-.10157-.04297-.08984-.0586-.14844-.14843-.04297-.10547-.01562-.13281v-.29297l-.0586-.08985-.08984-.05859-.07422-.07422-.04297-.10547-.03125-.11718-.0586-.08985-.07421-.07422-.11719-.02734-.07422-.07422-.08984-.0586-.08984-.0625-.08594-.05859-.07422-.07421-.0586-.08594-.04687-.10547-.08594-.0586-.14843-.14843-.19532-.0586-.1328.01563-.10157.04297-.07422.07422-.04688.10156-.04296.10547-.0586.08984-.0586.08594-.29687.29687-.08984.0586h-.08594l-.0625-.08594-.04297-.10547.03125-.11719.0586-.08984.02734-.11719-.01172-.13281-.08984-.0625-.10547.04688-.11719.02734-.11719.03125-.26953.17578-.10156.04688-.11719.02734-.10546.04687-.08985.0586-.10156.04297-.0586-.08594-.04687-.10547.01563-.13281.04687-.10547.07031-.07422.07422-.07031.0586-.08985v-.14843l-.04297-.10547h-.23829l-.10156.04687-.03125.11719-.02734.11719-.03125.1211-.07422.04296-.13281.01563-.07422-.04688-.04297-.10156-.04297-.10547-.04687-.10156-.04297-.10547-.1211.03125-.10156.04297-.13281.01562-.11719.03125-.10547.04297-.08984.0586-.10156.04687-.1211.02734-.13281.01563-.10156-.04297-.0586-.08985-.04687-.10546-.04297-.10157-.04297-.10546v-.1172l.0586-.08984.08593-.05859.17969-.11719.10156-.04687.10547-.04297.10547-.0586.10156-.04296.08985-.0625.10156-.04297.10547-.0586.10156-.04687.08984-.0586.10547-.04296.10156-.04297.08985-.0625.10156-.04297.13672-.01563.11719.03125.10156.04297.1211.03125.10156.04297.10546.04688.10157.04296.10547.04297.10156.04688.10547.04297.10156.04297.10547.04687.08594.0586.10546.04296.1172.03125.10546.04297.10156.04688.08985.0586.10547.04296.10156.04297.10547.04687.11719.02735.10156.04687.1211.02735h.14843l.08594-.0586.01562-.10156.0586-.08984-.02735-.1172-.07422-.07421-.11719-.17969-.07421-.07422-.08985-.07421-.17969-.1172-.08593-.05859-.10547-.04296-.10156-.04688-.26954-.17578-.05859-.08985-.07422-.07421-.0586-.08985-.04296-.10156-.03125-.11719-.01563-.13672v-.5625l-.01171-.1328-.01563-.13282-.03125-.11719-.01562-.13281-.01172-.13281-.03125-.1211-.22266-.22265-.0586-.08594-.01562-.10547.03125-.11719.13281-.01562v-91.41406H172.9922v1.45312l-.0586.23438-.35156 1.05078-.17187.52343-.1172.34766-.17577.41016-.11719.17187-.23438.29297-.23046.0586h-.35157l-.11718.05859-.23047.40625v.29297l.11719.17578.23046.23047.1172.23437.64062.75781.29297.46485.17578.23437.23047.35156.23437.34766.64063.8164.17578.46485.17187.41016.11719.69531.17578.46875.11719 1.39844.0586.46484v.875l.11718 1.04688v4.78125l-.0586.46484-.35156 1.28125-.17578.52344-.11328.41015-.35156.9297L172.93359 336l-.23437.58203-.11719.17578-.17187.34766-.17578.40625-.35157.8164-.0586.29297-.11327.29297-.11719.28906-.0586.17579-.11718.875-.0586.40625-.05859.11718-.0586.17579-.05859.17187-.23047.52734-.11718.17188v.23437l-.11719.23438-.0586.17187-.17577.58594v.28906l-.0586.17579v.29296l-.0586.11329-.05859.52734v.17187l-.05468.23438v2.6211l-.17578.8164-.1172.17578-.17577.23438-.1172.17187-.11327.23438-.58594.93359-.23047.28906-.29297.46485-.17578.23437-.28906.35156-.35156.69922-.11328.23047-.17579.41016-.17578.23046-.40625.52735-.8164.69922-.29297.17187-.28906.23438-.17579.11719-.17578.17578-.52344.40625-.52734.17578-.17187.17578-.23438.05469-.64062.17578h-.75782m12.21094 31.02344l-1.07422.44921.35938.89454 1.25-.71485.44531-.53906-.98047-.08985"/><path fill="#d3d3d3" fill-opacity="0" fill-rule="evenodd" d="M201.50781 416.59766h-.89453l.44922.6289.98047.35938.80469-.08985.4453-.98828-.17577.08985-.71485-.35547-.89453.35547m154.6211 59.0703l-.0586-.52343v-.29297l.11328-.29297.0586-.23046.46875-.46875h.11328l.11719-.11329.11718-.05859h.17579l.23437-.0586h.34766l.23437.0586.11719.0586.23047.17187.0586.17578.11718.58203v.29297l-.11719.17578-.17187.28906-.17579.17579-.52734.52343-.23047.23438-.11719.0586h-.17578l-.11718-.0586-.40625-.29297-.17579-.11719-.11718-.0586-.0586-.11327-.05468-.1172m6.64062-10.95702l-.0586-.17188v-1.10937l.0586-.17188.17578-.0586.17188-.05858h.17578l.23437-.0586.1172.0586.05858.69921-.05859.17188-.11719.17578-.11718.0586-.23438.52343-.11328.0586h-.23438l-.05859-.1172m9.61328-14.39062l-.11719-.17578v-.69922l.29297-.875.1172-.17187.17577-.35156.11328-.23047.1172-.29297.35155-.75781.1172-.23047.17187-.23438h.17578l.11719-.0586h.64062l.11719.0586.23437.23438.17188.11328.35156.29297.11719.11718.11328.17579v.11328l.11719.05859.11718.11719v.69922l-.05859.17578v.23047l-.0586.17578-.34765 1.05078-.11719.23047-.11719.23437-.11718.0586-.23047.23437-.64063.28906h-.875l-.41015-.11718-.64063-.46485"/><path fill="none" stroke="#bebebe" stroke-linecap="round" stroke-linejoin="round" stroke-miterlimit="10" stroke-width=".5" d="M467.95703 311.69531H144.02734v168.625h323.9297v-168.625"/><g clip-path="url(#a)"><path fill="#fff" fill-opacity="0" fill-rule="evenodd" d="M144 475.89063v4.4375h.0039H144v-41.6836 37.2461"/></g><g clip-path="url(#b)"><path fill="#fff" fill-opacity="0" fill-rule="evenodd" d="M144 431.50781v2.41797-122.2539h.0039H144V431.5078"/></g><path fill="#50fcfc" fill-rule="evenodd" d="M144 433.92578v4.71875h.0039v-4.71484l-.0039-.0039"/><g clip-path="url(#c)"><path fill="#fff" fill-opacity="0" fill-rule="evenodd" d="M144.0039 480.32813v-41.6836l2.13282-2.69922-2.13281-2.01562V311.67188h71.01172v110.66015l-.32422.29688-4.1172 3.34375-4.4375-.71875-4.4375.09765-4.4375-.3711-4.4414.4961-4.4375-.50781-4.4375 1.03906-4.4375-.82812-4.4414.74219-2.65235 1.14843-1.78515 1.1289-4.4375 1.04688-3.76563 2.26172-.67187 1.35156-1.1172 3.08594-2.24218 4.4375.28125 4.4375-.1914 4.4414.11328 4.4375 1.82422 4.4375 1.33203 2.08985 2.52343-2.08984 1.91407-.83594 4.4375-.17969 4.4375.6172 2.26172.39843 2.17968.66015 4.4375 1.23829 3.57031-1.89844.8672-.98047 4.4375-.9375 4.4414-.33984 4.4375-.20704 4.4375.81641 4.4375-1.30078 4.4414-.78125.76563-.70703 3.67188-4.42578.02343-.01172-.02344-.01953-4.4375-1.23438-4.4414-.96094-4.23828-2.22656.57422-4.4375 3.66406-1.71094 4.4414-2.5.29297-.22656.7422-4.4375 3.40233-2.26562 4.4375-.5039 1.77735 2.76952 2.66016 2.10938 1.35156 2.32812L232.76563 439l4.4414-1.88281 1.41406 3.26562 3.02344 2.36719 3.13672-2.36719-3.13672-2.60937-3.58203-1.82813-.85547-1.07812-4.4414-2.26953-2-1.08985-2.4375-2.57031-2.85938-1.86719-1.57813-1.94922-4.4375-1.0703-3.7539-1.42188-.6836-.29688V311.67188h159.77735V448.5625l-.73438.69922.73438.64844.64844-.64844-.64844-.69922V311.67187h93.20312v168.65625h-73.77734l-1.67188-2.44921-4.4375-.79688-3.92578-1.1914 3.76954-4.4375.15625-.08594 2.24609-4.35156-2.2461-4.04688-.24609-.39453.2461-2.61328.40234-1.82422-.40235-.50781-3.30078-3.9297-1.13671-.71483-.5547.71484-1.10546 4.4375-1.66016 4.4375 3.16406 4.4414-1.3125 4.4375 1.28125 4.4375.1875 1.20704.50391 3.23046H144.00391"/></g><path fill="#50fcfc" fill-rule="evenodd" d="M146.13672 435.94531l-2.13281 2.69922v-4.71484l2.1328 2.01562m12.53907 8.875l-.28125-4.4375 2.24219-4.4375 1.11719-3.08594.67187-1.35156 3.76563-2.26172v8.04297l-2.35157 3.09375-2.08593 4.15625-.08985.28125-.29297 4.4414-.32812 4.4375.71094 1.25782 3.02343-1.25781 1.41407-.38281 4.4375.19921 4.42968.1836h.01172-.0039l-1.64453-4.4375-2.79297-3.57422-4.4375-.3125-3.875-.55469 3.875-1.30078 4.4375.1211 1.39453-3.25782-1.39453-2.72265-4.4375-.3711v-8.04297l4.4375-1.04687 1.78515-1.1289 2.65235-1.14844 4.4414-.7422 4.4375.82813 4.4375-1.03906v8.73047l-1.89844 2.2461 1.89844 2.52734 4.23438-2.52735-4.23438-2.2461v-8.73046l4.4375.50781v3.61328l-2.07031 2.41797 2.07031 4.20313v.47265l-2.34765 4.19922 2.34765 1.67578 1.46875-1.67578-1.46875-4.19922v-.47265l2.35938-4.20313-2.35938-2.41797v-3.61328l4.4414-.4961 4.4375.3711 4.4375-.09765 4.4375.71875 4.1172-3.34375.32422-.29688.68359.29688 3.7539 1.42187 4.4375 1.07031 1.57813 1.94922 2.85938 1.86719 2.4375 2.57031 2 1.08985v2.9414l-.3711.40625.3711.3711.60546-.3711-.60547-.40625v-2.9414l4.44141 2.26953.85547 1.07812 3.58203 1.82813 3.13672 2.60937-3.13672 2.36719-3.02344-2.36719-1.41406-3.26562L232.76563 439l-3.08594-3.05469-1.35156-2.32812-2.66016-2.10938-1.77734-2.76953-4.4375.5039-3.40235 2.26563-.74219 4.4375-.29297.22656-4.4414 2.5-3.66406 1.71094-.57422 4.4375 4.23828 2.22656 4.4414.96094 4.4375 1.23438.02344.01953-.02344.01172-3.67187 4.42578-.76563.70703-4.4414.78125-4.4375 1.30078-4.4375-.8164-4.4375.20703-4.4414.33984-4.4375.9375-.8672.98047-3.5703 1.89844-4.4375-1.23829-2.1797-.66015-2.26171-.39844-4.4375-.61719-4.4375.1797-1.91407.83593-2.52343 2.08984-1.33203-2.08984-1.82422-4.4375-.11328-4.4375.1914-4.4414"/><path fill="#00e8fc" fill-rule="evenodd" d="M161.7539 454.95703l-.71093-1.25781.32812-4.4375.29297-4.4414.08985-.28126 2.08593-4.15625 2.35157-3.09375 4.4375.3711 1.39453 2.72265-1.39453 3.25781-4.4375-.12109-3.875 1.30078 3.875.55469 4.4375.3125 2.79297 3.57422 1.64453 4.4375h.0039-.01172l-4.42968-.1836-4.4375-.19921-1.41407.3828-3.02343 1.25782"/><path fill="#fff" fill-opacity="0" fill-rule="evenodd" d="M188.38281 433.69922l-1.89844 2.2461 1.89844 2.52734 4.23438-2.52735-4.23438-2.2461m4.4375 2.48438l-2.34765 4.19922 2.34765 1.67578 1.46875-1.67578-1.46875-4.19922m0-7.09375l-2.07031 2.41797 2.07031 4.20313 2.35938-4.20313-2.35938-2.41797"/><path fill="#00e8fc" fill-rule="evenodd" d="M232.76563 436.3164l-.3711-.37109.3711-.40625.60546.40625-.60547.3711"/><path fill="#50fcfc" fill-rule="evenodd" d="M374.79297 449.91016l-.73438-.64844.73438-.69922.64844.69922-.64844.64844"/><g clip-path="url(#d)"><path fill="#50fcfc" fill-rule="evenodd" d="M383.51563 467.01563l-3.16407-4.44141 1.66016-4.4375 1.10547-4.4375.55469-.71485 1.13671.71485 3.30079 3.92969.40234.5078-.40235 1.82423-.24609 2.61328.2461.39453 2.24609 4.04688-2.2461 4.35156-.15625.08594-3.76953 4.4375 3.92579 1.1914 4.4375.79688 1.67187 2.44921h-10.04297l-.5039-3.23046-.1875-1.20704-1.28125-4.4375 1.3125-4.4375"/></g><g clip-path="url(#e)"><path fill="#fff" fill-opacity="0" fill-rule="evenodd" d="M467.9961 480.32813H468V311.67188h-.0039H468v168.65625h-.0039"/></g><path fill="#fff" fill-opacity="0" fill-rule="evenodd" d="M217.88281 441.5l3.01563-5-8.53125-5.14453-3.01563 5.0039 8.53125 5.14063"/><path fill-rule="evenodd" d="M212.72656 434.3086l.26563-.4375 5.39062 3.25-.40625.67577-3.84765-2.3203-.71485 1.1914-.47656-.28906.23438-.51172.08203-.24219.04297-.24219-.01563-.25-.08984-.25781-.1797-.27344-.28515-.29297"/><g clip-path="url(#f)"><path fill="none" stroke="#000" stroke-linecap="round" stroke-linejoin="round" stroke-miterlimit="10" stroke-width=".5" d="M147.50781 480.54297l-7.01562-.42578"/></g><g clip-path="url(#g)"><path fill="none" stroke="#000" stroke-linecap="round" stroke-linejoin="round" stroke-miterlimit="10" stroke-width=".5" d="M147.50781 480.54297l1.01953 2.23047"/></g><g clip-path="url(#h)"><path fill="none" stroke="#000" stroke-linecap="round" stroke-linejoin="round" stroke-miterlimit="10" stroke-width=".5" d="M160.82031 480.54688l-7.01172-.4375"/></g><g clip-path="url(#i)"><path fill="none" stroke="#000" stroke-linecap="round" stroke-linejoin="round" stroke-miterlimit="10" stroke-width=".5" d="M160.82031 480.54688l1.01563 2.23437"/></g><g clip-path="url(#j)"><path fill="none" stroke="#000" stroke-linecap="round" stroke-linejoin="round" stroke-miterlimit="10" stroke-width=".5" d="M159.80078 480.48438l.50781 1.11718"/></g><g clip-path="url(#k)"><path fill="none" stroke="#000" stroke-linecap="round" stroke-linejoin="round" stroke-miterlimit="10" stroke-width=".5" d="M174.14453 480.36328l-7.02734-.07031"/></g><g clip-path="url(#l)"><path fill="none" stroke="#000" stroke-linecap="round" stroke-linejoin="round" stroke-miterlimit="10" stroke-width=".5" d="M174.14453 480.36328l1.1289 2.17969"/></g><g clip-path="url(#m)"><path fill="none" stroke="#000" stroke-linecap="round" stroke-linejoin="round" stroke-miterlimit="10" stroke-width=".5" d="M173.1211 480.35547l.5664 1.08984"/></g><g clip-path="url(#n)"><path fill="none" stroke="#000" stroke-linecap="round" stroke-linejoin="round" stroke-miterlimit="10" stroke-width=".5" d="M187.45703 480.38281l-7.02344-.10937"/></g><g clip-path="url(#o)"><path fill="none" stroke="#000" stroke-linecap="round" stroke-linejoin="round" stroke-miterlimit="10" stroke-width=".5" d="M187.45703 480.38281l1.11719 2.1875"/></g><g clip-path="url(#p)"><path fill="none" stroke="#000" stroke-linecap="round" stroke-linejoin="round" stroke-miterlimit="10" stroke-width=".5" d="M200.77344 480.42188l-7.02735-.1875"/></g><g clip-path="url(#q)"><path fill="none" stroke="#000" stroke-linecap="round" stroke-linejoin="round" stroke-miterlimit="10" stroke-width=".5" d="M200.77344 480.42188l1.09375 2.1953"/></g><g clip-path="url(#r)"><path fill="none" stroke="#000" stroke-linecap="round" stroke-linejoin="round" stroke-miterlimit="10" stroke-width=".5" d="M214.08203 480.09766l-7.01172.46093"/></g><g clip-path="url(#s)"><path fill="none" stroke="#000" stroke-linecap="round" stroke-linejoin="round" stroke-miterlimit="10" stroke-width=".5" d="M214.08203 480.09766l1.28906 2.08593"/></g><g clip-path="url(#t)"><path fill="none" stroke="#000" stroke-linecap="round" stroke-linejoin="round" stroke-miterlimit="10" stroke-width=".5" d="M227.39844 480.11719l-7.01563.42187"/></g><g clip-path="url(#u)"><path fill="none" stroke="#000" stroke-linecap="round" stroke-linejoin="round" stroke-miterlimit="10" stroke-width=".5" d="M227.39844 480.11719l1.27734 2.09375"/></g><g clip-path="url(#v)"><path fill="none" stroke="#000" stroke-linecap="round" stroke-linejoin="round" stroke-miterlimit="10" stroke-width=".5" d="M240.66797 479.73047l-6.92578 1.19531"/></g><g clip-path="url(#w)"><path fill="none" stroke="#000" stroke-linecap="round" stroke-linejoin="round" stroke-miterlimit="10" stroke-width=".5" d="M240.66797 479.73047l1.5039 1.9414"/></g><g clip-path="url(#x)"><path fill="none" stroke="#000" stroke-linecap="round" stroke-linejoin="round" stroke-miterlimit="10" stroke-width=".5" d="M254.01172 479.9414l-6.98438.77344"/></g><g clip-path="url(#y)"><path fill="none" stroke="#000" stroke-linecap="round" stroke-linejoin="round" stroke-miterlimit="10" stroke-width=".5" d="M254.01172 479.9414l1.38281 2.02735"/></g><g clip-path="url(#z)"><path fill="none" stroke="#000" stroke-linecap="round" stroke-linejoin="round" stroke-miterlimit="10" stroke-width=".5" d="M267.33203 479.97656l-6.99219.70313"/></g><g clip-path="url(#A)"><path fill="none" stroke="#000" stroke-linecap="round" stroke-linejoin="round" stroke-miterlimit="10" stroke-width=".5" d="M266.3125 480.07813l.6836 1.02343"/></g><g clip-path="url(#B)"><path fill="none" stroke="#000" stroke-linecap="round" stroke-linejoin="round" stroke-miterlimit="10" stroke-width=".5" d="M280.66016 480.5039l-7.01953-.34765"/></g><g clip-path="url(#C)"><path fill="none" stroke="#000" stroke-linecap="round" stroke-linejoin="round" stroke-miterlimit="10" stroke-width=".5" d="M279.64063 480.45313l.51953 1.10937"/></g><g clip-path="url(#D)"><path fill="none" stroke="#000" stroke-linecap="round" stroke-linejoin="round" stroke-miterlimit="10" stroke-width=".5" d="M293.91016 481.03125l-6.88672-1.40234"/></g><g clip-path="url(#E)"><path fill="none" stroke="#000" stroke-linecap="round" stroke-linejoin="round" stroke-miterlimit="10" stroke-width=".5" d="M292.90625 480.82422l.34766 1.17969"/></g><g clip-path="url(#F)"><path fill="none" stroke="#000" stroke-linecap="round" stroke-linejoin="round" stroke-miterlimit="10" stroke-width=".5" d="M307.23047 481.0039l-6.89844-1.35156"/></g><g clip-path="url(#G)"><path fill="none" stroke="#000" stroke-linecap="round" stroke-linejoin="round" stroke-miterlimit="10" stroke-width=".5" d="M306.22656 480.8086l.35547 1.17577"/></g><g clip-path="url(#H)"><path fill="none" stroke="#000" stroke-linecap="round" stroke-linejoin="round" stroke-miterlimit="10" stroke-width=".5" d="M318.33203 483.61719l-2.47265-6.57813"/></g><g clip-path="url(#I)"><path fill="none" stroke="#000" stroke-linecap="round" stroke-linejoin="round" stroke-miterlimit="10" stroke-width=".5" d="M328.16016 483.02734l4.5-5.39843"/></g><g clip-path="url(#J)"><path fill="none" stroke="#000" stroke-linecap="round" stroke-linejoin="round" stroke-miterlimit="10" stroke-width=".5" d="M340.64844 482.02344l6.15625-3.39063"/></g><g clip-path="url(#K)"><path fill="none" stroke="#000" stroke-linecap="round" stroke-linejoin="round" stroke-miterlimit="10" stroke-width=".5" d="M341.54297 481.53125l-1.02735-.67188"/></g><g clip-path="url(#L)"><path fill="none" stroke="#000" stroke-linecap="round" stroke-linejoin="round" stroke-miterlimit="10" stroke-width=".5" d="M353.89063 481.88281l6.30078-3.10937"/></g><g clip-path="url(#M)"><path fill="none" stroke="#000" stroke-linecap="round" stroke-linejoin="round" stroke-miterlimit="10" stroke-width=".5" d="M354.8086 481.42969l-.9961-.71485"/></g><g clip-path="url(#N)"><path fill="none" stroke="#000" stroke-linecap="round" stroke-linejoin="round" stroke-miterlimit="10" stroke-width=".5" d="M367.88672 482.82813l4.9414-4.9961"/></g><g clip-path="url(#O)"><path fill="none" stroke="#000" stroke-linecap="round" stroke-linejoin="round" stroke-miterlimit="10" stroke-width=".5" d="M380.45703 481.7461l6.42969-2.83594"/></g><g clip-path="url(#P)"><path fill="none" stroke="#000" stroke-linecap="round" stroke-linejoin="round" stroke-miterlimit="10" stroke-width=".5" d="M381.39063 481.33203l-.96094-.75781"/></g><g clip-path="url(#Q)"><path fill="none" stroke="#000" stroke-linecap="round" stroke-linejoin="round" stroke-miterlimit="10" stroke-width=".5" d="M393.72656 481.64453l6.51953-2.63281"/></g><g clip-path="url(#R)"><path fill="none" stroke="#000" stroke-linecap="round" stroke-linejoin="round" stroke-miterlimit="10" stroke-width=".5" d="M393.72656 481.64453l-1.8789-1.57812"/></g><g clip-path="url(#S)"><path fill="none" stroke="#000" stroke-linecap="round" stroke-linejoin="round" stroke-miterlimit="10" stroke-width=".5" d="M394.67578 481.26172l-.9375-.78906"/></g><g clip-path="url(#T)"><path fill="none" stroke="#000" stroke-linecap="round" stroke-linejoin="round" stroke-miterlimit="10" stroke-width=".5" d="M407.35156 482.23828l5.89844-3.82031"/></g><g clip-path="url(#U)"><path fill="none" stroke="#000" stroke-linecap="round" stroke-linejoin="round" stroke-miterlimit="10" stroke-width=".5" d="M407.35156 482.23828l-2.14453-1.1914"/></g><g clip-path="url(#V)"><path fill="none" stroke="#000" stroke-linecap="round" stroke-linejoin="round" stroke-miterlimit="10" stroke-width=".5" d="M408.21094 481.6836l-1.07422-.59766"/></g><g clip-path="url(#W)"><path fill="none" stroke="#000" stroke-linecap="round" stroke-linejoin="round" stroke-miterlimit="10" stroke-width=".5" d="M420.73828 482.34375l5.7539-4.03125"/></g><g clip-path="url(#X)"><path fill="none" stroke="#000" stroke-linecap="round" stroke-linejoin="round" stroke-miterlimit="10" stroke-width=".5" d="M420.73828 482.34375l-2.1875-1.11328"/></g><g clip-path="url(#Y)"><path fill="none" stroke="#000" stroke-linecap="round" stroke-linejoin="round" stroke-miterlimit="10" stroke-width=".5" d="M434.40625 482.77344l5.05078-4.89063"/></g><g clip-path="url(#Z)"><path fill="none" stroke="#000" stroke-linecap="round" stroke-linejoin="round" stroke-miterlimit="10" stroke-width=".5" d="M447.4961 478.14453l5.5 4.3711"/></g><g clip-path="url(#aa)"><path fill="none" stroke="#000" stroke-linecap="round" stroke-linejoin="round" stroke-miterlimit="10" stroke-width=".5" d="M460.53516 482.11328l6.05468-3.5664"/></g><g clip-path="url(#ab)"><path fill="none" stroke="#000" stroke-linecap="round" stroke-linejoin="round" stroke-miterlimit="10" stroke-width=".5" d="M461.41406 481.59375l-1.04297-.64063"/></g><g clip-path="url(#ac)"><path fill="none" stroke="#000" stroke-linecap="round" stroke-linejoin="round" stroke-miterlimit="10" stroke-width=".5" d="M147.48438 467.46094l-6.96875-.89453"/></g><path fill="none" stroke="#000" stroke-linecap="round" stroke-linejoin="round" stroke-miterlimit="10" stroke-width=".5" d="M147.48438 467.46094l.86718 2.29297m-1.8789-2.42188l.43359 1.14453m13.91797-1.26172l-7.01563-.40234m7.01563.40234l1.02734 2.22657m-2.05078-2.28516l.51563 1.11328m13.82422-1.40234l-7.01954.29297m7.01953-.29297l1.2422 2.11328m-2.26563-2.07031l.6211 1.05859m13.66015-1.60547l-6.90625 1.30078m6.90625-1.30078l1.53125 1.91406m-2.53516-1.72656l.76563.95703m13.47656-1.46484l-6.7539 1.9414m6.7539-1.9414l1.70703 1.76172m-2.6914-1.48047l.85546.88281m13.39844-1.3086l-6.66406 2.23048m6.66406-2.23047l1.78125 1.6914m-2.75-1.36718l.89063.84765m13.39843-1.16015l-6.67187 2.20703m6.67187-2.20703L229 467.60546m11.39063-2.07421l-6.3711 2.96484m6.3711-2.96484l1.95703 1.47656m11.27734-1.64062l-6.20703 3.29297m6.20703-3.29297l2.03125 1.375m11.11328-1.66406l-5.86719 3.87109m5.8672-3.8711l2.15234 1.17579m10.99609-1.40235l-5.53516 4.32422m5.53516-4.32422l2.24219.9961m11.08984-.97657l-5.57031 4.28516m4.76172-3.66016l1.11718.50782m13.53125-.16797l-6.62109 2.35547m5.66016-2.01172l.90625.82812m13.35546 1.22657l-6.58984-2.44141m17.1875 4.6875l-1.15625-6.9336m10.49219 2.58985l6.80469 1.7539m6.58203-2l6.66015 2.2461m-5.6914-1.92188l-.19922-1.21093m12.58984 3.2539l6.57031-2.48828m-5.61328 2.1289l-.92187-.8125m13.10937.5625l6.91407-1.26952m-5.90625 1.08593l-.76563-.96093m13.04297.96093l6.96875-.90234m-6.96875.90234l-1.41797-2m14.72266 1.88282l6.9961-.66797m-6.9961.66797l-1.35547-2.04688m19.32422-1.60547l-2.3164 6.63672m1.98046-5.67187l1.21094-.1836m11.48437-.96875l-.40234 7.01563m.34375-5.9961l1.11328-.51562m12.27734-.5039l-.43359 7.01171m.3711-5.99219l1.11327-.5078m11.51563-.48048l1.0586 6.94922m-.90235-5.9375l.98438-.73047"/><g clip-path="url(#ad)"><path fill="none" stroke="#000" stroke-linecap="round" stroke-linejoin="round" stroke-miterlimit="10" stroke-width=".5" d="M147.38672 454.63281l-6.77344-1.8711"/></g><path fill="none" stroke="#000" stroke-linecap="round" stroke-linejoin="round" stroke-miterlimit="10" stroke-width=".5" d="M147.38672 454.63281l.53516 2.39453m12.5703-1.83203l-6.35546-2.9961m6.35547 2.9961l.11719 2.45313m13.26953-2.60938l-6.4961-2.67969m6.4961 2.6797l.23828 2.4414m13.33594-3.94531l-7.01563.32812m7.01563-.32812l1.2539 2.10937m11.60156-3.69531l-6.09765 3.4961m6.09765-3.4961l2.07813 1.3086m11.03125-1.6211l-5.6875 4.125m4.86328-3.52735l1.10156.53907m12.67969-1.5586l-4.96875 4.96875m4.96875-4.96875l2.34766.71485m11.11328-.5586l-5.26172 4.65625m5.26172-4.65625l2.30078.85547m10.76172-1.11719l-4.7539 5.17579m4.7539-5.17579l2.375.6211m-3.0664.13281l1.1875.3086m12.53124-1.29688l-4.17969 5.64844m4.1797-5.64844l2.42577.36328m-3.03515.45703l1.21484.1836m12.21875-1.3086l-3.19922 6.25781m3.19922-6.2578l2.45313-.03907m-2.91797.94922l1.22656-.01953m12.47656-.92969l-3.04687 6.33203m3.04687-6.33203l2.45313-.09766m-2.89453 1.01953l1.22656-.04687m12.17578-1.01953l-2.33594 6.625m2.33594-6.625l2.42578-.36719m10.6211.28125l-1.80079 6.79297m1.53907-5.80469l1.1953-.27734m13.23829-.35547l-3.51172 6.08594m3-5.20313l1.22656.04297m11.78907-1.26562l-1.89063 6.76562m1.61328-5.78125l1.19922-.26562m11.86719-.82422l-.83985 6.97656m.71875-5.96094l1.14454-.44531m10.35546-.25l3.03516 6.33594m-2.59375-5.41407l.72656-.98828m10.39063 1.96094l6.54687 2.54688m-5.59375-2.17579l-.14453-1.21875m12.42969 1.0586l6.69922 2.1211m-6.69922-2.1211l-.44531-2.41016m1.42187 2.71875l-.22265-1.20703m12.41406 1.60156l6.99219.71875m-5.97266-.61718l-.46094-1.13672m19.5.05468l-6.4961 2.6797m6.4961-2.6797l1.89063 1.5625m10.125-3.14843l-3.89453 5.84765m3.89453-5.84765l2.4414.2461m10.7461-.32423l-3.64063 6.00781m3.64063-6.0078l2.45312.13671m12.1875 1.30078l-6.29297 3.1289"/><g clip-path="url(#ae)"><path fill="none" stroke="#000" stroke-linecap="round" stroke-linejoin="round" stroke-miterlimit="10" stroke-width=".5" d="M466.70703 452.13281l1.9961 1.42578"/></g><path fill="none" stroke="#000" stroke-linecap="round" stroke-linejoin="round" stroke-miterlimit="10" stroke-width=".5" d="M465.79297 452.58984l.9961.71094"/><g clip-path="url(#af)"><path fill="none" stroke="#000" stroke-linecap="round" stroke-linejoin="round" stroke-miterlimit="10" stroke-width=".5" d="M147.33984 441.47266l-6.67968-2.1797"/></g><path fill="none" stroke="#000" stroke-linecap="round" stroke-linejoin="round" stroke-miterlimit="10" stroke-width=".5" d="M147.33984 441.47266l.42188 2.41797m12.79297-2.14844l-6.48047-2.71875m6.48047 2.71875l.22656 2.4414m13.24219-2.8828l-6.78516-1.83204m5.79688 1.5664l.27343 1.19532m14.08985-1.20313l-6.90625-1.28515m5.90234 1.09765l.36719 1.16797m14.01172-1.54687l-7.02735-.15235m6.00391.12891l.55469 1.09375m13.44922-2.64062l-6.35938 2.98828m6.35938-2.98828l1.96484 1.46875m11.21094-1.7422l-6.07813 3.53126m6.07813-3.53125l2.08203 1.29687m10.91797-1.75l-5.44922 4.4375m5.44922-4.4375l2.26172.95313m10.41015-1.5625l-4.16406 5.66015m4.16406-5.66015l2.42969.35547m10.79297-.42188l-3.98047 5.78906m3.98047-5.78906l2.4414.27735m10.9922-.19141l-4.21485 5.6211m4.21484-5.6211l2.42578.375m11.22266-.08985l-4.88281 5.05079m4.88281-5.05078l2.35938.67578m10.78906-.83203l-4.54688 5.35937m4.54688-5.35938l2.39453.52344m-3.0586.25781l1.19922.26172m12.9297-.90625l-4.84767 5.08594m4.84766-5.08594l2.36328.66016m11.23047-.35938l-5.40625 4.48829m5.40625-4.48828l2.26953.92968m-3.05469-.27734l1.13672.46484m12.75391-1.34765l-4.98828 4.94921m4.98828-4.94921l2.34375.72656m-3.0664-.00781l1.17187.36328m12.5664-1.35547l-4.38671 5.49219m4.38671-5.4922l2.41016.45313m-3.05078.34766l1.20703.22656m11.39063-1.69531l-1.66797 6.82813m1.66797-6.82813l2.3789-.60156m-2.6211 1.59765l1.1875-.30468m9.84767-.35938l3.37109 6.16406m-3.3711-6.16406l1.35157-2.05078m-.85938 2.94922l.67578-1.02735m11.23047.85547l5.20703 4.71485m-5.20703-4.71485l.59766-2.3789m.16015 3.0625l.29688-1.1875m11.76563 1.20312l6.1953 3.3125m-6.1953-3.3125l.0039-2.45312m14.82031.97656l3.17579 6.26562m12.35156-6.58984l-1.2461 6.91406m1.2461-6.91406l2.33594-.75m10.875.73438l-1.03907 6.94921m.89063-5.9414l1.15625-.40625m15.16797 1.91406l-6.76172 1.91406"/><g clip-path="url(#ag)"><path fill="none" stroke="#000" stroke-linecap="round" stroke-linejoin="round" stroke-miterlimit="10" stroke-width=".5" d="M466.9414 439.42578l1.69923 1.76953"/></g><path fill="none" stroke="#000" stroke-linecap="round" stroke-linejoin="round" stroke-miterlimit="10" stroke-width=".5" d="M465.95703 439.70313l.85156.88671"/><g clip-path="url(#ah)"><path fill="none" stroke="#000" stroke-linecap="round" stroke-linejoin="round" stroke-miterlimit="10" stroke-width=".5" d="M147.23438 428.4414l-6.46875-2.74609"/></g><path fill="none" stroke="#000" stroke-linecap="round" stroke-linejoin="round" stroke-miterlimit="10" stroke-width=".5" d="M147.23438 428.4414l.21093 2.44532m13.11719-2.47656l-6.4961-2.6836m6.4961 2.6836l.23828 2.4414m12.75-1.83203l-5.84375-3.90234m5.84375 3.90234l-.24219 2.4414m13.88672-3.05468l-6.5-2.67187m6.5 2.67187l.24219 2.4414m13.33594-3.84374l-7.02735.1289m7.02735-.1289l1.1914 2.14453m12.125-2.125l-7.02734.08984m7.02734-.08984l1.17578 2.15234m12.12891-2.3789l-7.00781.54296m5.98828-.46484l.65625 1.03516m13.46094-2.08203l-6.57422 2.48046m6.57422-2.48047l1.84375 1.6172m10.3711-3.125l-4.375 5.49609m4.375-5.4961l2.41405.44532m11.02735-.34375l-4.625 5.29296m4.625-5.29296l2.38672.55859m11.15234-.34375L274.61328 429.5m5.07422-4.86328l2.33203.76953m11.40235-.23437l-5.91407 3.79296m5.91406-3.79296l2.14063 1.20312m11.01953-1.42969l-5.60156 4.2461m5.60156-4.2461l2.22656 1.03125m-3.04296-.41406l1.11328.51563m12.89843-1.28125l-5.36328 4.54296m5.36328-4.54296l2.27735.91015m-3.0586-.25l1.14063.45703m12.70703-1.38281l-4.86328 5.07422m4.86328-5.07422l2.35938.66797m-3.06641.07031l1.17969.33594m13.28125-.5625l-5.7422 4.05078m5.7422-4.05078l2.1914 1.10937m10.96094-1.32421l-5.41797 4.48046m5.41797-4.48046l2.26563.9375m10.12109-1.72657l-3.5625 6.0586m3.5625-6.0586l2.45312.10547m-2.96875.77735l1.22266.05078m10.77734-1.41797l.09766 7.02734m-.09766-7.02734l2.15235-1.17969m-2.13672 2.20313l1.07422-.58985m14.72656.5625l-4.90234 5.03516m4.90234-5.03516l2.35547.6836m-3.07031.05078l2.35546.68359m-3.0664.04688l1.17578.34375m13.47656-1.89063l-4.72265 5.19922m4.72265-5.19922l2.3789.60156m-3.0664.15235l2.3789.60547m-3.0664.15234l2.3789.60547m11.42579-2.70703l-2.95313 6.3789m2.95313-6.3789l2.44922-.13282m-2.8789 1.0625l2.44921-.13671m-2.8789 1.0625l2.44921-.13282m12.83594-.91015l-5.17578 4.7539m5.17578-4.7539l2.3125.8164m-3.0664-.125l2.3164.8164m-3.07031-.125l1.16015.41017m13.8086-1.625l-5.46485 4.41796m5.46485-4.41796l2.25781.96093m-3.05469-.3164l2.25782.96093m-3.05079-.3203l1.12891.48046m14.46875-.32812l-6.85547 1.54687"/><g clip-path="url(#ai)"><path fill="none" stroke="#000" stroke-linecap="round" stroke-linejoin="round" stroke-miterlimit="10" stroke-width=".5" d="M466.98828 426.29688l1.60156 1.85937"/></g><path fill="none" stroke="#000" stroke-linecap="round" stroke-linejoin="round" stroke-miterlimit="10" stroke-width=".5" d="M465.99219 426.51953l1.60156 1.85938"/><g clip-path="url(#aj)"><path fill="none" stroke="#000" stroke-linecap="round" stroke-linejoin="round" stroke-miterlimit="10" stroke-width=".5" d="M147.20703 415.1875l-6.41406-2.86719"/></g><path fill="none" stroke="#000" stroke-linecap="round" stroke-linejoin="round" stroke-miterlimit="10" stroke-width=".5" d="M147.20703 415.1875l.16797 2.44531m13.21875-2.6211l-6.5586-2.51562m6.5586 2.51563l.30078 2.4336m12.7539-1.89454l-6.03515-3.59766m6.03516 3.59766l-.1211 2.45313m13.83203-3.42188l-6.82812-1.65625m6.82813 1.65625l.60937 2.375m12.76563-3.73437l-6.94922 1.0625m6.94922-1.0625l1.46484 1.96875m11.89062-1.4375h-7.02734m19.60938 2.14453l-5.56641-4.28907m4.75781 3.66407l-.20312 1.21093m13.99218-.21093l-4.89453-5.04297m4.1836 4.3086l-.375 1.16796m14.96093-4.77344l-6.01172 3.63672m5.13672-3.10547l1.0547.62891m12.48437-1.94531l-4.71485 5.21094m4.03125-4.45313l1.1875.30078m13.07813-.79297l-5.24219 4.67969m5.24219-4.67969l2.30078.84766m10.28906-1.46484l-3.79687 5.91406m3.24609-5.05469l1.22266.10156m13.80859.27344l-6.125 3.44531m6.125-3.44531l2.0664 1.32422m11.32813-1.17188l-6.28515 3.14063m6.28515-3.14063l2 1.42188m10.51563-2.47266l-4.6836 5.23828m4.6836-5.23828l2.3828.58594m-3.0664.17578l1.1914.29297m12.5586-1.2539l-4.1914 5.64062m4.1914-5.64063l2.42578.3672m12.16797 1.46483l-6.7461 1.97657m6.7461-1.97656l1.71485 1.7578m11.55078-1.90624l-6.64844 2.27344m6.64844-2.27344l1.79297 1.67578m-2.75782-1.34766l1.78907 1.67578m11.85156-3.13672l-5.36719 4.53907m5.36719-4.53906l2.27734.91015m-3.0586-.25l2.27735.91016m-3.0586-.25l1.14063.45703m14.10547-1.25l-6.10547 3.48047m6.10547-3.48047l2.07422 1.3125m-2.96484-.80469l2.07422 1.3125m-2.96094-.80469l1.03906.65235m13.58985-2.30078l-5.1797 4.75m5.1797-4.75l2.3125.8164m-3.06641-.125l2.3125.8164m-3.0664-.125l2.3125.81642m12.33593-2.37891l-4.82813 5.10937m4.82813-5.10937l2.36328.65234m-3.0664.08985l2.36328.65234m-3.06641.09375l1.1836.32422m14.23827-.88281l-6.23046 3.25m6.23046-3.25l2.02344 1.38671m-2.92969-.91406l2.02344 1.38672m-2.92969-.91406l2.02344 1.38672m13.0039-2.51172l-6.03124 3.60937m6.03125-3.60937l2.10156 1.26562m-2.98047-.74218l2.10156 1.26953M451.50781 413l1.05078.63281m14.3711-.8789l-6.73438 2"/><g clip-path="url(#ak)"><path fill="none" stroke="#000" stroke-linecap="round" stroke-linejoin="round" stroke-miterlimit="10" stroke-width=".5" d="M466.92969 412.7539l1.72265 1.7461"/></g><path fill="none" stroke="#000" stroke-linecap="round" stroke-linejoin="round" stroke-miterlimit="10" stroke-width=".5" d="M465.94922 413.04297l1.72265 1.75m-2.70312-1.45703l.86328.875"/><g clip-path="url(#al)"><path fill="none" stroke="#000" stroke-linecap="round" stroke-linejoin="round" stroke-miterlimit="10" stroke-width=".5" d="M146.83984 402.51172l-5.67968-4.14453"/></g><path fill="none" stroke="#000" stroke-linecap="round" stroke-linejoin="round" stroke-miterlimit="10" stroke-width=".5" d="M146.83984 402.51172l-.34765 2.42578m13.83594-2.6875l-6.02344-3.6211m6.02344 3.6211l-.13282 2.44922m13.58985-2.71485l-6.3086-3.09375m6.3086 3.09375l.08203 2.45313m13.58594-3.78906l-7.01563-.42188m7.01563.42188l1.01953 2.23437m12.27734-2.02344l-6.97656-.84375m5.96094.72266l.4414 1.14453m12.35156-4.36328l-3.90625 5.83985m3.33985-4.9922l1.21875.125m13.9414 3.33204l-6.46093-2.76953m6.46093 2.76953l.20313 2.44531m13.10156-2.42578l-6.4414-2.8125m5.5039 2.40234l.09375 1.22657m14.23828-3.4336l-6.59765 2.42188m6.59765-2.42188l1.82813 1.63672m11.61719-1.17969l-6.86329 1.50782m6.86328-1.50782l1.58985 1.8711m11.79297-.78125l-6.9961-.67188m6.9961.67188l.9375 2.26953m12.21875-3.69531l-6.67969 2.17968m6.67969-2.17968l1.76953 1.70312m-2.73828-1.38281l.88281.85156m13.55469-.46094l-6.98438.75782m6.98438-.75782l1.3789 2.03125m-2.39453-1.92187l.6875 1.01562m13.63672-1.17968l-6.97266.87109m6.97266-.8711l1.41016 2.00391m10.53515-4.375l-4.23047 5.60938m4.23047-5.60938l2.42188.38672m12.27344 2.77735l-6.9922-.71485m6.9922.71485l.92578 2.27343m12.10547-1.20703l-6.42579-2.84765m5.4922 2.43359l.08593 1.22265m14.40625-2.85546l-6.91406 1.24218m6.91406-1.24218l1.51953 1.92968m10.52344-4.05859l-4.3711 5.5m4.3711-5.5l2.41406.44531m-3.04687.35547l2.41015.44531m12.70313.44141l-6.69922 2.1289m6.69922-2.1289l1.7539 1.71484m-2.73047-1.40625l.87891.85938m13.48047-.91406l-6.83594 1.61718m6.83594-1.61718l1.6211 1.84375m-2.61329-1.60938l.8086.92188m13.1875-1.98829l-6.21485 3.28125m6.21485-3.28125l2.03125 1.37891m-2.9336-.89844l2.02735 1.375m12.37109-1.45703l-6.57422 2.48438m6.57422-2.48438l1.84375 1.6211m-2.80078-1.25782l1.84375 1.6172m-2.80078-1.25782l.92187.8125m14.32422-1.48438l-6.60937 2.38672m6.60937-2.38672l1.82031 1.64454m-2.78125-1.29688l1.82032 1.64453m-2.78125-1.29687l.91015.8203m14.28125-1.6328l-6.51953 2.62109"/><g clip-path="url(#am)"><path fill="none" stroke="#000" stroke-linecap="round" stroke-linejoin="round" stroke-miterlimit="10" stroke-width=".5" d="M466.82031 399.1289l1.8789 1.57813"/></g><path fill="none" stroke="#000" stroke-linecap="round" stroke-linejoin="round" stroke-miterlimit="10" stroke-width=".5" d="M465.8711 399.50781l1.8789 1.58203m-2.82422-1.19921l.9375.78906"/><g clip-path="url(#an)"><path fill="none" stroke="#000" stroke-linecap="round" stroke-linejoin="round" stroke-miterlimit="10" stroke-width=".5" d="M146.74219 389.3164l-5.48438-4.38671"/></g><path fill="none" stroke="#000" stroke-linecap="round" stroke-linejoin="round" stroke-miterlimit="10" stroke-width=".5" d="M146.74219 389.3164l-.45313 2.41407m14.09375-2.89453l-6.13672-3.42188m6.13672 3.42188l-.04687 2.45312m13.8086-4.11719l-7.02735-.09765m7.02734.09765l1.1211 2.1797m11.10937-4.76563l-4.85938 5.07422m4.15235-4.33594l1.17969.33203M198.86719 384l-3.21485 6.2461m2.7461-5.33985l1.22656-.01563m14.28516 3.33594l-6.67188-2.20703m6.67188 2.20703l.41406 2.42188m-1.38281-2.74219l.20312 1.21094m14.1211-1.02344l-6.75-1.9414m6.75 1.9414l.51171 2.40234m12.91016-3.85156l-6.96484.95703m6.96484-.95703l1.4336 1.99219m-2.44923-1.85156l.71875.99609m13.54688-1.47266l-6.83594 1.62891m5.84375-1.39063l.8086.92188m13.42187-1.42969l-6.6836 2.16797m5.71095-1.85156l.8828.85156m13.46095-.98047l-6.79297 1.79297m5.80468-1.53125l.83594.89844m13.57031.07031l-6.99609-.66406m5.97656.5664l.47266 1.13282m13.875-1.25l-7.02344-.23828m7.02344.23828l1.07812 2.20312m12.23047-2.53515l-7.01172.42578m7.01172-.42578l1.28125 2.09375m-2.30078-2.03125l.64063 1.04687m13.4453-2.21484l-6.51171 2.63672m6.51172-2.63672l1.8789 1.57422m11.47657-1.47266l-6.59375 2.4336m5.63281-2.08204l.91406.8164m13.3789-1.11327l-6.6289 2.32422m6.6289-2.32422l1.8047 1.66015m11.49609-1.70312l-6.60156 2.41015m6.60156-2.41015l1.82422 1.64453m-2.78516-1.29297l1.82422 1.64063m12.15625-2.60938l-6.00781 3.64453m6.00781-3.64453l2.10938 1.2539m-2.98438-.72265l1.05469.625m13.33594-.76953l-6.41016 2.8711m6.41016-2.8711l1.9375 1.5039m-2.8711-1.08593l.96875.7539m13.16407-1.41015l-6.1797 3.34765m6.1797-3.34765l2.04687 1.35937m-2.94531-.87109l1.02344.67969m13.04687-1.41016l-5.89062 3.83203m5.89062-3.83203l2.14453 1.1875m-3.0039-.6289l1.07421.59375m13.41797-.53516l-6.52734 2.59765m6.52734-2.59765l1.8711 1.58594m-2.82032-1.20704l.9375.79297m13.46485-.75L446.84375 388m6.80469-1.7539l1.65625 1.80859M452.66016 386.5l.82812.90625m13.4961-1.08203l-6.84375 1.60156"/><g clip-path="url(#ao)"><path fill="none" stroke="#000" stroke-linecap="round" stroke-linejoin="round" stroke-miterlimit="10" stroke-width=".5" d="M466.98438 386.32422l1.61328 1.84375"/></g><path fill="none" stroke="#000" stroke-linecap="round" stroke-linejoin="round" stroke-miterlimit="10" stroke-width=".5" d="M465.98828 386.55469l1.61328 1.84765"/><g clip-path="url(#ap)"><path fill="none" stroke="#000" stroke-linecap="round" stroke-linejoin="round" stroke-miterlimit="10" stroke-width=".5" d="M147.28125 375.07031l-6.5625-2.52344"/></g><path fill="none" stroke="#000" stroke-linecap="round" stroke-linejoin="round" stroke-miterlimit="10" stroke-width=".5" d="M147.28125 375.07031l.29688 2.4336m12.65234-1.73438l-5.82813-3.92578m5.82813 3.92578l-.25781 2.4414m13.98828-5.52343l-6.66016 2.23828m6.66016-2.23828l1.78125 1.6875m10.5-3.22656l-4.59375 5.32031m4.59375-5.32031l2.39062.54687m11.02344-.45703l-4.78906 5.14063m4.78906-5.14063l2.3711.63281m12.04687 2.27344l-6.9961-.67187m6.9961.67187l.9375 2.26563m-1.95703-2.36329l.47265 1.13282m13.84766-.9375l-6.97266-.8711m6.97266.8711l.875 2.29297m-1.88672-2.41797l.4375 1.14453m13.91797-1.40625l-7.02734-.09375m7.02734.09375l1.125 2.17969m-2.14844-2.19532l.5625 1.08985m13.76563-1.40235l-7.0039.5625m7.0039-.5625l1.32031 2.06641m-2.33984-1.98438l.66015 1.03125m13.67188-.55078l-7.0039-.5625m7.0039.5625l.97656 2.25391m-1.99219-2.33594l.48438 1.125m13.83984-.96875l-6.98828-.71094m6.98828.71094l.92969 2.27344m12.40625-2.66016l-7.02734.0625m7.02734-.0625l1.17187 2.15625m-2.1953-2.14843l.58593 1.07812m13.75-1.17969l-7.02344.25m7.02344-.25l1.22656 2.1211m-2.25-2.08594l.61719 1.0625m13.71484-1.21094l-7.01172.47656m7.01172-.47656l1.29688 2.08203m12.01562-1.5625l-7.0039-.5625m7.0039.5625l.97266 2.25m12.33984-2.8164l-7.0039.57031m7.0039-.57031l1.32422 2.0664m12.0039-1.86328l-7.02734.16406m7.02735-.16406l1.19922 2.14063m-2.22266-2.11719l.60156 1.07031m13.73047-1.20703L366.84766 374m7.01562-.38672l1.26953 2.10156m-2.28906-2.04296l.63281 1.05078m13.61719-1.69922l-6.84766 1.57031m6.84766-1.57031l1.60938 1.85156m-2.60547-1.625l.80468.92969m13.33204-1.71094l-6.4961 2.67969m6.4961-2.67969l1.89062 1.5664m11.26953-1.89452l-6.1836 3.33593m6.1836-3.33594L415.4375 373.5m10.60156-2.23438l-4.84765 5.08594m4.84765-5.08594l2.36328.66016m11.32422-.25l-5.58984 4.26172m5.58984-4.26172l2.22657 1.02344m-3.04297-.40235l1.11718.51172m13.47657-.3203l-6.51172 2.64062m6.51172-2.64063l1.8789 1.57422m11.625-.9336l-6.89453 1.35548"/><g clip-path="url(#aq)"><path fill="none" stroke="#000" stroke-linecap="round" stroke-linejoin="round" stroke-miterlimit="10" stroke-width=".5" d="M467.00781 373.1289l1.55078 1.90626"/></g><path fill="none" stroke="#000" stroke-linecap="round" stroke-linejoin="round" stroke-miterlimit="10" stroke-width=".5" d="M466.00781 373.32813l.77344.95312"/><g clip-path="url(#ar)"><path fill="none" stroke="#000" stroke-linecap="round" stroke-linejoin="round" stroke-miterlimit="10" stroke-width=".5" d="M147.5039 360.23047l-7.0078.52734"/></g><path fill="none" stroke="#000" stroke-linecap="round" stroke-linejoin="round" stroke-miterlimit="10" stroke-width=".5" d="M147.5039 360.23047l1.3125 2.07422m-2.33202-2l.65625 1.03906m13.6328-.23438l-6.91796-1.23437m6.91797 1.23438l.7539 2.33593m12.61328-2.83203l-7.02343-.24219m7.02344.2422l1.07812 2.20702m-2.09766-2.24219l.53907 1.10157m13.52734-2.54297l-6.48438 2.71484m6.48438-2.71484l1.89844 1.55469m11.60547-.95704l-6.86328 1.51563m6.86328-1.51563l1.59375 1.8672m-2.59375-1.64454l.79687.9336m13.54297.23046l-6.91406-1.2539m6.91406 1.2539l.7461 2.33594m-1.75-2.51953l.37109 1.16797m13.96484-1.0664l-6.94531-1.08985m6.94531 1.08984l.80078 2.3164m-1.8125-2.47655l.40235 1.16015m13.875-.7539l-6.84766-1.58594m6.84766 1.58594l.6328 2.37109m12.73048-2.61328l-6.9414-1.10156m6.9414 1.10156l.79687 2.32031m12.5586-2.97265l-7.02344.20312m7.02344-.20313l1.21484 2.13282m12.10156-2.07813l-7.02734.09375m7.02734-.09375l1.17969 2.15235m12.07422-1.45704l-6.90625-1.29687m6.90625 1.29688l.73437 2.34375m12.52735-2.10157l-6.79688-1.77734m6.79688 1.77734l.5664 2.38672m-1.55468-2.64453l.28125 1.1914m14.1289-1.57421l-7.01172-.4961m7.01172.4961l.9961 2.24219m-2.01563-2.31641l.4961 1.1211m13.84374-1.38282l-7.02343.17188m7.02343-.17188l1.20704 2.14063m11.9453-.9922l-6.69921-2.125m6.69922 2.125l.44531 2.41407m13.03125-3.3086l-7.01953-.33202m7.01953.33203l1.04688 2.21875m-2.06641-2.26954l.52344 1.10938m13.80468-1.48438l-7.0078.51954m7.0078-.51954l1.3086 2.07422m-2.32813-2l1.3086 2.07813m12.78125-3.21094l-6.51563 2.63281m6.51563-2.6328l1.8789 1.57812m-2.82812-1.19532l1.8789 1.57813m12.28125-2.1875l-6.30859 3.08984m6.3086-3.08984l1.98828 1.4375m-2.90625-.98828l.99609.71875m13.30469-1.02735l-6.4414 2.8086m6.4414-2.8086l1.92187 1.52344m-2.85937-1.11719l.96093.76172m13.33204-1.07031l-6.52344 2.60938m6.52344-2.60938l1.875 1.58594m-2.82422-1.20703l.9375.79296m13.3125-1.21093l-6.4961 2.6875m6.4961-2.6875l1.89062 1.5625m-2.83594-1.17188l.94532.78125m13.4336-.83203l-6.73438 2.00781m6.73437-2.0078l1.72266 1.74608m-2.70313-1.45312l.86328.875m13.3672-1.36719l-6.60157 2.40625"/><g clip-path="url(#as)"><path fill="none" stroke="#000" stroke-linecap="round" stroke-linejoin="round" stroke-miterlimit="10" stroke-width=".5" d="M466.86328 359.28906l1.82422 1.64453"/></g><g clip-path="url(#at)"><path fill="none" stroke="#000" stroke-linecap="round" stroke-linejoin="round" stroke-miterlimit="10" stroke-width=".5" d="M147.49219 346.79688l-6.98438.76171"/></g><path fill="none" stroke="#000" stroke-linecap="round" stroke-linejoin="round" stroke-miterlimit="10" stroke-width=".5" d="M147.49219 346.79688l1.3789 2.03125m11.9375-1.28125l-6.98828-.73829m6.98828.73829l.91797 2.27343m-1.9336-2.38281l.45704 1.14063m13.5586.09375l-6.35938-2.98829m6.35937 2.98829l.125 2.44921m-1.04687-2.8828l.0586 1.22265m14.51171-2.3086l-7.02344.05079m7.02344-.05079l1.16797 2.16016m12.14063-2.3789l-7.01172.48827m7.01172-.48828l1.30078 2.08204m12.01172-1.55079l-7.00391-.57421m7.0039.57421l.96875 2.25391m12.33204-2.125l-6.97657-.83203m6.97657.83203l.88672 2.28906m12.16406-1.3125l-6.44922-2.78515m6.44922 2.78515l.19922 2.44531m13.28906-2.94921l-6.79688-1.77735m6.79688 1.77735l.5664 2.38671m12.85157-2.97656l-7-.59375m7 .59375l.96484 2.2539m-1.98437-2.34374l.48437 1.1289m13.85938-1.49218l-7.01953.3086m7.01953-.3086l1.24609 2.11328m11.96484-1.09766l-6.8125-1.72265m6.8125 1.72265l.58594 2.38281m-1.57422-2.6328l.29297 1.1914m14.0039-.90625l-6.79687-1.78906m6.79688 1.78906l.5625 2.38672m-1.55078-2.64844l.28125 1.19531m14.1328-1.64062l-7.01952-.375m7.01953.375l1.03515 2.22265m-2.05859-2.27734l.51953 1.10938m13.73047-2.04688l-6.83984 1.60547m6.83984-1.60547l1.61719 1.84375m-2.61328-1.60938l.8086.92188m13.55468.17578l-6.94531-1.0586m6.9453 1.0586l.8125 2.3164m-1.82421-2.46874l.40625 1.15625m13.83984-.61328l-6.78515-1.83985m6.78515 1.83985l.54297 2.39062m-1.53125-2.66015l.27344 1.19921m14.1289-1.45703l-6.98437-.78515m6.98438.78515l.90234 2.28125m-1.91797-2.39453l.90234 2.28125m-1.91796-2.39453l.44921 1.14063m14.85938-1.96094l-6.90625 1.3086m6.90625-1.3086l1.53516 1.91406m-2.54297-1.72266l1.53906 1.91407m-2.54297-1.72657l.76953.95704m14.19531-2.35157l-6.18359 3.33985m6.1836-3.33985l2.04296 1.35938m-2.9414-.875l2.04297 1.35937m-2.94532-.8711l1.02344.6797m14.26172-1.29297l-6.51953 2.625m6.51953-2.625l1.875 1.57812m-2.82422-1.19922l1.875 1.58204m-2.82422-1.19922l.9375.78906m14.3789-1.2539l-6.72655 2.02734m6.72656-2.02735l1.72656 1.74219M426 346.45703l1.73047 1.74219m12.60547-1.89063l-6.8086 1.73829m6.8086-1.73829l1.65234 1.81641m-2.64453-1.5625l1.65234 1.8164m12.65625-2.0625l-6.8125 1.72657m6.8125-1.72656l1.64844 1.8164m-2.64062-1.5664l1.64843 1.8164m12.59375-2.29687l-6.67968 2.1836"/><g clip-path="url(#au)"><path fill="none" stroke="#000" stroke-linecap="round" stroke-linejoin="round" stroke-miterlimit="10" stroke-width=".5" d="M466.90234 346.08594l1.76563 1.69922"/></g><path fill="none" stroke="#000" stroke-linecap="round" stroke-linejoin="round" stroke-miterlimit="10" stroke-width=".5" d="M465.92969 346.40234l1.76953 1.69922"/><g clip-path="url(#av)"><path fill="none" stroke="#000" stroke-linecap="round" stroke-linejoin="round" stroke-miterlimit="10" stroke-width=".5" d="M147.20313 332.41797l-6.40625 2.89062"/></g><path fill="none" stroke="#000" stroke-linecap="round" stroke-linejoin="round" stroke-miterlimit="10" stroke-width=".5" d="M146.26953 332.83984l.97266.75m13.33203 1.58204l-6.51953-2.6172m5.57031 2.23829l.13281 1.21875m13.9336-.42578l-6.125-3.44531m6.125 3.4453l-.0547 2.45313m-.83593-2.95703l-.02734 1.22656m14.67969-2.21484l-7.01563-.46094m7.01563.46094l1.0039 2.23828m11.67969-.44922l-5.75-4.03906m4.91016 3.45313l-.14844 1.21484m14.9336-2.41797l-7.01173-.46094m7.01172.46094l1.00781 2.23828m12.3086-2.65234l-7.01563.36719m7.01563-.3672l1.26562 2.10157m12.03906-2.23828l-6.99609.64062m6.9961-.64062l1.34765 2.05078m11.96875-2.04688l-7 .63282m7-.63281l1.34375 2.05468m11.98438-1.75781l-7.02735.03906m7.02735-.03906l1.16406 2.16016m-2.1836-2.15235l.58204 1.07813m13.74218-.76953l-7.0039-.59375m7.0039.59375l.96485 2.2578m-1.98438-2.34374l.48047 1.1289m13.8086-1.97656l-6.91016 1.26953m6.91015-1.26953l1.52344 1.92578m11.84375-1.51171l-7.01562.4453m7.01562-.4453l1.28516 2.08984m11.76953-.52735l-6.4961-2.67968m6.4961 2.67969l.23828 2.4414m-1.1836-2.83203l.2422 2.4414m14.2539-2.92577l-6.96484-.9297m6.96484.9297l.85547 2.30078m-1.8711-2.4375l.4297 1.15234m13.92968-1.6289l-7.02344.29687m7.02344-.29688l1.24219 2.1172m12.05469-2.32813l-6.98829.71875m6.98829-.71875l1.36718 2.03906m11.9297-1.15625l-6.94923-1.05078m6.94922 1.05078l.8125 2.3164m-1.82422-2.46875l.40625 1.15625m13.92578-1.99218l-6.96484.92969m6.96484-.9297l1.4297 1.9961m-2.44142-1.85937l.71485.99609m13.6289-.98438l-6.99609.63282m6.9961-.63281l1.34375 2.05078m-2.35938-1.96094l.67188 1.02734m13.5-1.89844l-6.67579 2.19532m6.67579-2.19531l1.76953 1.69921m-2.7422-1.3789l.88673.84765M427.02344 333l-6.8125 1.72656M427.02344 333l1.64844 1.8164m-2.64063-1.5664l1.64844 1.8164m-2.64063-1.5664l.82422.91016m14.42578-1.58594l-6.71484 2.07812m6.71484-2.07812l1.73828 1.73047m-2.71484-1.42969l1.73828 1.73047m-2.71484-1.42578l.8711.86328m14.42577-1.35938l-6.77344 1.85938m6.77344-1.85938l1.6875 1.78125m-2.67187-1.51171l1.6836 1.78515m-2.66798-1.51562l.83985.89453m14.375-1.66016l-6.63282 2.3125"/><g clip-path="url(#aw)"><path fill="none" stroke="#000" stroke-linecap="round" stroke-linejoin="round" stroke-miterlimit="10" stroke-width=".5" d="M466.8789 332.70703l1.80079 1.66406"/></g><path fill="none" stroke="#000" stroke-linecap="round" stroke-linejoin="round" stroke-miterlimit="10" stroke-width=".5" d="M465.91406 333.04297l1.80078 1.66406m-2.76562-1.32812l.89844.83203"/><g clip-path="url(#ax)"><path fill="none" stroke="#000" stroke-linecap="round" stroke-linejoin="round" stroke-miterlimit="10" stroke-width=".5" d="M140.52734 321.08203l6.94532-1.07031"/></g><path fill="none" stroke="#000" stroke-linecap="round" stroke-linejoin="round" stroke-miterlimit="10" stroke-width=".5" d="M154.65625 322.84375l5.32031-4.58984m-4.54687 3.92187l-1.14453-.44531m17.03125 2.26172l-1.375-6.89063m1.375 6.89063l-1.89844 1.55469m16.78906-2.3086l-4.52344-5.3789m4.52344 5.3789l-.91797 2.27344m14.39453-2.41797l-4.84375-5.08984m4.84375 5.08984l-.77734 2.32813m14.69531-3.08594l-6.05078-3.57813m6.05078 3.57813l-.11328 2.45312m13.82031-3.4336l-6.83593-1.61718m6.83593 1.61719l.625 2.375m-1.61718-2.60938l.30859 1.1875m14.07422-1.39453l-6.98828-.73437m6.98828.73437l.91797 2.27735m-1.9336-2.38282l.45703 1.13672m13.89063-1.51172l-7.02344.22657m7.02344-.22657l1.22266 2.12891m-2.2422-2.09375l.60938 1.0625m13.72657-1.13281l-7.02344.29687m7.02344-.29687l1.24218 2.11719m-2.26562-2.07422l.6211 1.05859m13.71874-.95313h-7.02734m7.02734 0l1.15235 2.16797m-2.17578-2.16796l.57812 1.08593m13.75781-1.21484l-7.02344.25781m7.02344-.25781l1.23047 2.125m11.98438-2.83203l-6.82422 1.67578m6.82422-1.67578l1.63671 1.82812m11.58985.15625l-6.64063-2.29687m6.64063 2.29687l.3789 2.42578m13.10157-3.16015l-6.97656-.82422m6.97656.82422l.89062 2.28515m-1.90234-2.40625l.4414 1.14454m13.78907-.51563l-6.78125-1.83984m6.78125 1.83984l.54297 2.39063m12.89453-3.27735l-7.02735-.0664m6.00391.05468l.5664 1.08985m13.66407-1.97657l-6.8125 1.72657m5.82031-1.47266l.82422.90625m13.23047-1.84766l-6.30469 3.10547m6.30469-3.10547l1.98828 1.4336m-2.90625-.98047l.9961.71484m13.41796-.72656l-6.66797 2.22266m6.66797-2.22266l1.77735 1.6914m11.65625.07423l-6.90625-1.3086m13.46484 1.85156l6.60547-2.39453m10.65234-2.25781l-1.28125 6.91016m1.28125-6.91016l2.34375-.73828m12.6875 1.58594l-4.71094 5.21484m4.71094-5.21484l2.3789.59765m11.44142-.03125l-5.72266 4.07813"/><g clip-path="url(#ay)"><path fill="none" stroke="#000" stroke-linecap="round" stroke-linejoin="round" stroke-miterlimit="10" stroke-width=".5" d="M466.42188 318.50781l2.1953 1.09766"/></g><g clip-path="url(#az)"><path fill="none" stroke="#000" stroke-linecap="round" stroke-linejoin="round" stroke-miterlimit="10" stroke-width=".5" d="M465.58984 319.10156l2.19532 1.09766"/></g><path fill="none" stroke="#000" stroke-linecap="round" stroke-linejoin="round" stroke-miterlimit="10" stroke-width=".5" d="M464.75781 319.69531l1.09766.54688"/><path fill="#00f" fill-rule="evenodd" d="M237.33594 467.64844h8.61719V457.5039h-8.6172v10.14453"/><path fill="azure" fill-rule="evenodd" d="M239.16797 459.33594H240v2.82422h3.28516v-2.82422h.83593v6.48047h-.83593v-2.91797H240v2.91797h-.83203v-6.48047"/><path fill="#ff3030" fill-rule="evenodd" d="M442.1914 467.64844h7.69532V457.5039h-7.69531v10.14453"/><path fill="azure" fill-rule="evenodd" d="M444.02734 459.33594h.83204v5.73828h3.1953v.74219h-4.02734v-6.48047"/><path fill="#ff3030" fill-rule="evenodd" d="M264.66016 445.45703h7.6914V435.3125h-7.6914v10.14453"/><path fill="azure" fill-rule="evenodd" d="M266.49219 437.14453h.83203v5.73828h3.19531v.74219h-4.02734v-6.48047"/><path fill="#ff3030" fill-rule="evenodd" d="M326.79688 436.57813h7.6914v-10.14454h-7.6914v10.14454"/><path fill="azure" fill-rule="evenodd" d="M328.6289 428.26563h.83204v5.74218h3.19531v.73828h-4.02734v-6.48046"/><path fill="#ff3030" fill-rule="evenodd" d="M198.08203 432.14063h7.69531v-10.14454h-7.6953v10.14454"/><path fill="azure" fill-rule="evenodd" d="M199.91797 423.82813h.83203v5.73828h3.19531v.74218h-4.02734v-6.48046"/><path fill="#00f" fill-rule="evenodd" d="M383.80078 432.14063h8.61719v-10.14454h-8.61719v10.14454"/><path fill="azure" fill-rule="evenodd" d="M385.63281 423.82813h.83203v2.82421h3.28907v-2.82421h.83203v6.48046h-.83203v-2.91796h-3.28907v2.91796h-.83203v-6.48046"/><path fill="#00f" fill-rule="evenodd" d="M219.58203 414.38672h8.61719v-10.14453h-8.61719v10.14453"/><path fill="azure" fill-rule="evenodd" d="M221.41406 406.07422h.83203v2.82422h3.28907v-2.82422h.83203v6.48047h-.83203v-2.91406h-3.28907v2.91406h-.83203v-6.48047"/><path fill="#ff3030" fill-rule="evenodd" d="M189.20703 361.1289h7.6914v-10.14843h-7.6914v10.14844"/><path fill="azure" fill-rule="evenodd" d="M191.03906 352.8164h.83594v5.73829h3.1914v.73828h-4.02734v-6.47656"/><path fill="#ffffe0" fill-rule="evenodd" d="M352.6836 387.98828h22.17968v-10.1914H352.6836v10.1914"/><path fill-rule="evenodd" d="M356.1836 379.6289h.5078v6.29688h-.78515v-4.49219h-1.39063v-.55468l.5625-.0625.25-.0547.23047-.08983.20313-.14063.17578-.21094.14063-.29297.10546-.39843m4.8125 0l.23047.01953.21875.05469.20703.08984.19922.1211.1836.15234.17187.17578.30078.41797.24219.49218.17969.54688.11328.57812.03906.59375-.03906.59375-.11328.58204-.17969.55468-.24219.5-.30078.42969-.17187.17969-.1836.15234-.19922.125-.20703.08985-.21875.05859-.23047.01953-.22656-.01953-.21875-.0586-.21094-.08984-.1953-.125-.1836-.15234-.17188-.17969-.30078-.42969-.24219-.5-.18359-.55469-.10938-.58203-.03906-.59375h.83203l.03125.5625.08204.50391.125.44531.16406.375.1875.30078.21094.21875.22265.13672.22656.04688.22657-.04688.22265-.13672.21094-.21875.1914-.30078.16407-.375.125-.44531.08203-.5039.02734-.5625-.02734-.5625-.08203-.5-.125-.4375-.16406-.36329-.19141-.29297-.21094-.21484-.22265-.1289-.22657-.04688-.22656.04687-.22265.12891-.21094.21484-.1875.29297-.16406.36328-.125.4375-.08204.5-.03125.5625h-.83203l.03906-.59375.10938-.57812.1836-.54688.24218-.49218.30078-.41797.17188-.17578.1836-.15235.1953-.1211.21094-.08983.21875-.0547.22656-.01952m5.09375 0h.50782v6.29687h-.78516v-4.49219h-1.39063v-.55468l.5625-.0625.25-.0547.23047-.08983.20313-.14063.17187-.21094.14454-.29297.10546-.39843m2.82422 2.17578h.78516l.01953-.3164.0586-.28517.10156-.2539.13671-.21485.1836-.17187.22265-.1289.26563-.08204.3086-.02734.23827.02344.22266.0625.20313.10156.17968.13672.14844.17187.11328.20703.07031.23438.02735.26562-.02344.26954-.0664.22265-.10938.1914-.15234.17188-.20313.16406-.2461.16407-.6328.39062-.53907.3125-.4375.3164-.34765.32423-.26172.33594-.1914.35156-.125.3711-.07032.39062-.01953.42187h4.21094v-.74219h-3.33204l.08204-.28515.11718-.23438.14453-.20312.1875-.17969.23438-.17188.27734-.17578.71485-.41406.41796-.20703.34375-.23047.28125-.25.21875-.26953.16407-.27734.11328-.28516.0625-.28516.01953-.28125-.04297-.3828-.11719-.34767-.1914-.30859-.25-.26172-.30078-.21094-.34766-.16015-.3789-.09766-.40626-.03515-.4375.03515-.39453.09766-.35547.16797-.30468.23437-.25.30078-.1836.375-.11719.44532-.03906.51953"/><path fill="#ffffe0" fill-rule="evenodd" d="M208.59375 337.10547h22.17969v-10.1914h-22.17969v10.1914"/><path fill-rule="evenodd" d="M212.09375 328.7461h.50781v6.29296h-.78515v-4.48828h-1.39063v-.55469l.5586-.0664.2539-.05469.23047-.08594.20313-.14453.17187-.20703.14453-.29688.10547-.39453m4.8125 0l.23047.01954.21875.05468.20703.08985.19531.12109.1836.14844.17187.17578.30469.42187.24219.4922.17968.54687.10938.57812.03906.58985-.03906.59375-.10938.58593-.17968.55469-.2422.5-.30468.42969-.17187.17969-.1836.15234-.19531.125-.20703.08984-.21875.0586-.23047.01953-.23047-.01953-.21875-.0586-.20703-.08984-.19531-.125-.1836-.15235-.17187-.17968-.30469-.42969-.24219-.5-.17968-.55469-.10938-.58594-.03906-.59375h.83203l.03125.56641.07813.5039.1289.44141.16016.375.1914.30079.21094.22265.22266.13672.22656.04688.22656-.04688.22266-.13672.21094-.22265.1914-.30079.16016-.375.1289-.4414.08204-.5039.02734-.56642-.02734-.55859-.08203-.5-.12891-.4375-.16016-.36719-.1914-.28906-.21094-.21484-.22266-.13281-.22656-.04297-.22656.04296-.22266.13282-.21094.21484-.1914.28906-.16016.3672-.1289.4375-.07813.5-.03125.55858h-.83203l.03906-.58984.10938-.57812.17968-.54688.2422-.49219.30468-.42187.17187-.17578.1836-.14844.19531-.1211.20703-.08984.21875-.05469.23047-.01953m5.08984 0h.51172v6.29297h-.78906v-4.48828h-1.38672v-.55469l.5586-.0664.2539-.05469.22656-.08594.20703-.14453.17188-.20703.14063-.29688.10546-.39453m2.82422 2.17579h.78906l.01954-.31641.05859-.28516.09766-.2539.14062-.21485.1836-.17578.22265-.1289.26563-.07813.30468-.02734.23828.01953.22657.0625.20312.10156.17969.14063.14844.17187.11328.20703.07031.23438.02734.26562-.02343.26953-.0664.22266-.10938.1914-.15625.17188-.19922.16406-.2461.16406-.63672.39063-.53515.3125-.4375.3164-.34766.32423-.26562.33593-.1875.35156-.125.3711-.07031.39062-.01954.41797h4.21094v-.73828h-3.33203l.08203-.28515.11328-.23438.14844-.20313.1875-.17968.23047-.17188.27734-.17578.71875-.41797.41406-.20312.34766-.23047.28125-.2539.21875-.26563.16406-.27735.10938-.28515.0664-.28516.01954-.28125-.04297-.38281-.1211-.34766-.1875-.3086-.25-.26171-.30468-.21484-.34375-.15625-.38282-.09766-.40625-.03516-.43359.03125-.39844.10157-.35547.16406-.30468.23437-.2461.3047-.1875.375-.11328.4453-.04297.51954"/><path fill="#ffffe0" fill-rule="evenodd" d="M356.61328 334.73047h22.17969v-10.19531h-22.17969v10.1953"/><path fill-rule="evenodd" d="M360.10938 326.3711h.51171v6.29296h-.78906v-4.48828h-1.38672v-.55469l.5586-.0664.2539-.05469.23047-.08984.20313-.14063.17187-.21094.14063-.29296.10546-.39454m4.81641 0l.23047.01954.21875.05468.20703.08985.19531.12109.1836.14844.17187.17578.30078.41797.2461.4961.17969.54687.10937.57812.03906.58985-.03906.59375-.10938.58593-.17968.55078-.2461.50391-.30078.42578-.17187.17969-.1836.15625-.1953.1211-.20704.09374-.21875.05469-.23047.01953-.23047-.01953-.21875-.05469-.20703-.09375-.19531-.1211-.1875-.15624-.16797-.17969-.30469-.42578-.24219-.5039-.17968-.55079-.11328-.58594-.03516-.59375h.83203l.02735.5625.08203.50782.125.4414.16406.375.1914.30079.21094.22265.22266.13672.22656.04688.22656-.04688.22266-.13672.21094-.22265.1914-.30079.16016-.375.125-.4414.08203-.50781.03125-.5625-.03125-.5625-.08203-.5-.125-.4336-.16016-.36719-.1914-.29296-.21094-.21094-.22266-.13281-.22656-.04688-.22656.04688-.22266.1328-.21094.21094-.1914.29297-.16406.3672-.125.43358-.08204.5-.02734.5625h-.83203l.03516-.58984.11328-.57812.17969-.54688.24218-.4961.30469-.41796.16797-.17578.1875-.14844.19531-.1211.20703-.08984.21875-.05469.23047-.01953m5.08985 0h.51171v6.29297h-.78906v-4.48828h-1.38672v-.55469l.5586-.0664.2539-.05469.22656-.08984.20313-.14063.17578-.21094.14063-.29296.10546-.39454m6.8047 1.6172h-.78516l-.0547-.21095-.07812-.1875-.10937-.15625-.1289-.1328-.14844-.10157-.16016-.07422-.16797-.04688-.17188-.01562-.32812.04297-.28516.1211-.24609.1953-.20703.26563-.16016.33984-.11328.40235-.07031.46875-.02344.52734.1875-.20312.1875-.16016.1836-.1211.1875-.08984.1875-.0586.1914-.03905.40235-.02344.30468.03125.32031.08984.31641.15625.29688.21875.2539.28516.19922.35156.07422.19922.05078.21875.02735.23438.0078.25-.78906.04687-.02734-.25781-.07812-.25-.1211-.23438-.16015-.21094-.19532-.17968-.21875-.13672-.23828-.08594-.25781-.03125-.2539.03125-.23829.08594-.22265.13672-.19141.17969-.16016.21093-.125.23438-.07421.25-.02735.25781.02735.25781.07421.2539.125.23438.16016.21094.1914.17578.22266.13672.23828.08985.25391.03125.25781-.03125.23828-.08985.21875-.13672.19532-.17578.16015-.21094.1211-.23437.07812-.2539.02735-.25782.78906-.04688-.03125.3711-.09375.3711-.15625.35937-.22266.32812-.28906.28516-.17188.11719-.1875.10156-.20703.08203-.22265.0625-.2422.03906-.26171.01172-.28125-.01562-.26172-.04688-.23828-.07422-.21484-.10547-.19532-.1328-.17187-.15626-.15625-.17969-.13281-.20312-.1172-.22266-.09765-.24219-.14844-.53125-.08593-.59375-.02735-.64062.03907-.7461.11328-.66015.1875-.57813.1211-.2578.13671-.23048.15234-.20703.17188-.17969.1875-.15625.19922-.1289.21875-.10156.23437-.07422.2461-.04297.26171-.01563.3672.03125.33202.09766.29297.15234.25781.19922.21094.23828.16797.27735.11328.30078.0625.32031"/></g></defs><use xlink:href="#aA"/></svg>