<svg xmlns="http://www.w3.org/2000/svg" role="img" xmlns:xlink="http://www.w3.org/1999/xlink" viewBox="142.45 309.95 326.84 171.84"><defs><clipPath id="a"><path d="M144 438h1v42.32813h-1zm0 0"/></clipPath><clipPath id="b"><path d="M144 311.67188h1V434h-1zm0 0"/></clipPath><clipPath id="c"><path d="M144 311.67188h324v168.65625H144zm0 0"/></clipPath><clipPath id="d"><path d="M380 453h15v27.32813h-15zm0 0"/></clipPath><clipPath id="e"><path d="M467 311.67188h1v168.65625h-1zm0 0"/></clipPath><clipPath id="f"><path d="M144 479h4v1.32813h-4zm0 0"/></clipPath><clipPath id="g"><path d="M147 480h2v.32813h-2zm0 0"/></clipPath><clipPath id="h"><path d="M153 479h9v1.32813h-9zm0 0"/></clipPath><clipPath id="i"><path d="M160 480h3v.32813h-3zm0 0"/></clipPath><clipPath id="j"><path d="M159 480h2v.32813h-2zm0 0"/></clipPath><clipPath id="k"><path d="M166 480h9v.32813h-9zm0 0"/></clipPath><clipPath id="l"><path d="M173 480h3v.32813h-3zm0 0"/></clipPath><clipPath id="m"><path d="M172 480h2v.32813h-2zm0 0"/></clipPath><clipPath id="n"><path d="M180 479h8v1.32813h-8zm0 0"/></clipPath><clipPath id="o"><path d="M187 480h2v.32813h-2zm0 0"/></clipPath><clipPath id="p"><path d="M193 479h9v1.32813h-9zm0 0"/></clipPath><clipPath id="q"><path d="M200 480h3v.32813h-3zm0 0"/></clipPath><clipPath id="r"><path d="M206 479h9v1.32813h-9zm0 0"/></clipPath><clipPath id="s"><path d="M213 479h3v1.32813h-3zm0 0"/></clipPath><clipPath id="t"><path d="M220 479h8v1.32813h-8zm0 0"/></clipPath><clipPath id="u"><path d="M227 479h2v1.32813h-2zm0 0"/></clipPath><clipPath id="v"><path d="M233 479h8v1.32813h-8zm0 0"/></clipPath><clipPath id="w"><path d="M240 479h3v1.32813h-3zm0 0"/></clipPath><clipPath id="x"><path d="M246 479h9v1.32813h-9zm0 0"/></clipPath><clipPath id="y"><path d="M253 479h3v1.32813h-3zm0 0"/></clipPath><clipPath id="z"><path d="M260 479h8v1.32813h-8zm0 0"/></clipPath><clipPath id="A"><path d="M266 479h2v1.32813h-2zm0 0"/></clipPath><clipPath id="B"><path d="M273 479h8v1.32813h-8zm0 0"/></clipPath><clipPath id="C"><path d="M279 480h2v.32813h-2zm0 0"/></clipPath><clipPath id="D"><path d="M286 479h9v1.32813h-9zm0 0"/></clipPath><clipPath id="E"><path d="M292 480h2v.32813h-2zm0 0"/></clipPath><clipPath id="F"><path d="M300 479h8v1.32813h-8zm0 0"/></clipPath><clipPath id="G"><path d="M305 480h2v.32813h-2zm0 0"/></clipPath><clipPath id="H"><path d="M316 476h2v4.32813h-2zm0 0"/></clipPath><clipPath id="I"><path d="M327 477h7v3.32813h-7zm0 0"/></clipPath><clipPath id="J"><path d="M340 478h8v2.32813h-8zm0 0"/></clipPath><clipPath id="K"><path d="M340 480h2v.32813h-2zm0 0"/></clipPath><clipPath id="L"><path d="M353 478h8v2.32813h-8zm0 0"/></clipPath><clipPath id="M"><path d="M353 480h3v.32813h-3zm0 0"/></clipPath><clipPath id="N"><path d="M367 477h7v3.32813h-7zm0 0"/></clipPath><clipPath id="O"><path d="M380 478h8v2.32813h-8zm0 0"/></clipPath><clipPath id="P"><path d="M380 480h2v.32813h-2zm0 0"/></clipPath><clipPath id="Q"><path d="M393 478h8v2.32813h-8zm0 0"/></clipPath><clipPath id="R"><path d="M391 479h3v1.32813h-3zm0 0"/></clipPath><clipPath id="S"><path d="M393 480h2v.32813h-2zm0 0"/></clipPath><clipPath id="T"><path d="M407 478h7v2.32813h-7zm0 0"/></clipPath><clipPath id="U"><path d="M404 480h4v.32813h-4zm0 0"/></clipPath><clipPath id="V"><path d="M406 480h3v.32813h-3zm0 0"/></clipPath><clipPath id="W"><path d="M420 477h7v3.32813h-7zm0 0"/></clipPath><clipPath id="X"><path d="M434 477h6v3.32813h-6zm0 0"/></clipPath><clipPath id="Y"><path d="M447 477h6v3.32813h-6zm0 0"/></clipPath><clipPath id="Z"><path d="M460 478h7v2.32813h-7zm0 0"/></clipPath><clipPath id="aa"><path d="M460 480h2v.32813h-2zm0 0"/></clipPath><clipPath id="ab"><path d="M144 466h4v2h-4zm0 0"/></clipPath><clipPath id="ac"><path d="M144 452h4v3h-4zm0 0"/></clipPath><clipPath id="ad"><path d="M466 451h2v3h-2zm0 0"/></clipPath><clipPath id="ae"><path d="M144 438h4v4h-4zm0 0"/></clipPath><clipPath id="af"><path d="M466 439h2v3h-2zm0 0"/></clipPath><clipPath id="ag"><path d="M144 425h4v4h-4zm0 0"/></clipPath><clipPath id="ah"><path d="M466 425h2v4h-2zm0 0"/></clipPath><clipPath id="ai"><path d="M144 412h4v4h-4zm0 0"/></clipPath><clipPath id="aj"><path d="M466 412h2v3h-2zm0 0"/></clipPath><clipPath id="ak"><path d="M144 398h4v5h-4zm0 0"/></clipPath><clipPath id="al"><path d="M466 398h2v3h-2zm0 0"/></clipPath><clipPath id="am"><path d="M465 399h3v3h-3zm0 0"/></clipPath><clipPath id="an"><path d="M144 384h4v6h-4zm0 0"/></clipPath><clipPath id="ao"><path d="M466 385h2v4h-2zm0 0"/></clipPath><clipPath id="ap"><path d="M144 372h4v4h-4zm0 0"/></clipPath><clipPath id="aq"><path d="M466 372h2v4h-2zm0 0"/></clipPath><clipPath id="ar"><path d="M144 360h4v1h-4zm0 0"/></clipPath><clipPath id="as"><path d="M466 358h2v4h-2zm0 0"/></clipPath><clipPath id="at"><path d="M144 346h4v2h-4zm0 0"/></clipPath><clipPath id="au"><path d="M466 345h2v3h-2zm0 0"/></clipPath><clipPath id="av"><path d="M144 332h4v4h-4zm0 0"/></clipPath><clipPath id="aw"><path d="M466 332h2v3h-2zm0 0"/></clipPath><clipPath id="ax"><path d="M144 319h4v3h-4zm0 0"/></clipPath><clipPath id="ay"><path d="M466 318h2v2h-2zm0 0"/></clipPath><clipPath id="az"><path d="M465 318h3v3h-3zm0 0"/></clipPath><g id="aA" clip-path="url(#clip1)"><path fill="#fff" fill-opacity="0" fill-rule="evenodd" d="M0 0h1000v1000H0zm0 0"/><path fill="#d3d3d3" fill-opacity="0" fill-rule="evenodd" d="M162.15234 355.86719l-.23437.29297.0586.23437.11718.17188.17578.23437.29297.34766.11328.0586.11719-.17188.0586-.23438.17577-.17578.46485-.17578h.69922l.23437.29297.28906.8164.0586.17579.17578.23046.35156.23438.69922.69922.17188.17578.23437.34765.23438.41016.28906.58203.41015.46485.23047.23437.23438.17578.11719.23047.17578.29297.17187 1.16406v.23438l.0586.28906.05859.11719.11719.11719.34765.41015.11719.17188.17578.17578.17578.23437.11719.17188.17188.35156.05859.23438.23437.40625.23438-.0586-.17578.17578-.0586.92969h-.58203l-.23437-.11328-.34766.11328-.11719.11719-.05859.29297-.0586.17578-.11718.17187-.46484.29297-.0586.23438-.0586.11328v.64453l.0586.17187v.41016l.0586.0586v.40624l.05859.40625.11719.17579.05859.05859.23047.64062-.0586.29297v.69922l-.05859.58203v.23438l-.0586.23047-.05468.35156v1.92187l.05469.1172h.42578l-.36719.11718-.02344.35156.89063 1.16797 1.74219.53906 1.33984.35938v.53906l.08984.8086.53516.71484 1.51953.26953.89063-.08594.08984 1.16406.53516.1797 1.16015-.1797 2.05469-.98437 1.16016-.36328 1.8789-.17578 1.69531-.1797-.17968.71876-1.51563.08594-1.25.08984-.80469.26953-1.07421.8086.26953.71875.53515.89843-.17968.625-.26563.8086.26563 1.07812.625.89844.80468.17969 1.25-.1797-.26562.72267.09766.5039.05468.29297v.17188l.0586.29296v.40625l.17578.1172.35156.11718h.40625l.29297-.17578.11328-.11719.0586-.11719.11718-.23047.0586-.17578.35156-.46484.23047-.17578.17578-.0586.17578.0586.0586.17578.11718.98828.05469.46875.0586.17188.11718.23437.17578.0586.8164.05859h.28907l.11719.23437.05859.40625.0586.35156v1.10547l.11718.29297.11719.34766.28906.69922.17578.35156.58203.7539.35157.17579.17187.0586.46875.23437.64063.46484.34765.23438.29297.17578.29297.05468.23047.0625.8164.34766.29297.17578.11328.17188.35157.35156.11719.17578.52343.64063v.28906l.0586.35156v.34766l.05859.35156.0586.28906.11718.0586.17188.05859h.17578l.58203.23437.17578.1172.17578.28905.17578.23438.11328.23437.29297.23047.11719.11719v.41016l.0586.05468.28906.23438.23437.11719.0586.11718.11718.17188.0586.11719.23047.23437.05859.17578.23437.0586.1172.05859-.1172.11328-.05859.11719v.11719l-.11719.29296-.11719.28907v.58203l.17579.11719.11718.05859.0586.11719.11719.11719.11328.05859.17578.34765.0586.35157.05858.40625v.17578l-.05859.17578-.11719.69922v.17187l.1172.17579.29296.29296h.40625l.17578.1172.11719.17187.11719.29296v.23438h-.52735l-.23047-.23438h-.23437l-.17578.0586-.0586.69922.0586.34765.11719.17579.17578.41015.11718.23047.28907.46875.17578.05469h.52344l.23437.0586.75781.64062.0586.29296v.23438l.05859.0586.23047.34765v.35156l-.11719.17188v.29297l.29297.28906.29297.17578.17187.0586.29297.17577.29297.1172.58203.40624.28906.23438.29297.17578.21875.16015.01563.01172.23047.17579.64062.52343.17578.23438.1172.17578.17577.17578.11328.17188v.64062l.1172.17578.46874.11719.58203.11719.23438.05859.23047.11328.29297.11719.11328.0586.58593.35156.28907.17187.17578.0625.17578.05469.17578.0586.69922.35155.28906.17579.23438.05468.28906.17578.23437.1172.64063.40624.29297.11719.17187.0586.23438.05859.41015.05859.23047.0586.23438.11718.0586.17188-.41017.17578.46875.0586.0586.29296.11328.23438.17578.05468.23438.0586.17578.05859.40625.11719.64062.23437.11719.17188.0586.23437v.17578l-.0586.1172-.0586.40624.23438.23438.11719.05859.34766.11719.64062.23047.17578.11718.28906.1172.17578.17577.23438.46485.58203 1.10546.17578.17579.34766.17578.17578.11719.35156.11718 1.04688.52344.23437.0586.46485.11327.29297.0586.46484.17578.75781.58203.23438.23438.34765.46484.17578.17578.28907.23438.8164.69921.29297.17579.28906.28906.29297.17578.29297.28906.69531.64063.17578.17578.29297.23437.28907.23438.46875.28906.64062.58203.34766.23438.23437.29297.34766.34765.35156.46485.9336.99218.34765.40625.11719.17579.23437.05859.11328.11719.64454.17578.23047.11328.23437.0586.29297.17577.23047.1172.9336.69921.40624.40625.23438.17578.40625.17578.23437.11719.8164.34766.34766.23437.23438.11719.29297.28906.23047.11719.7578.35156.35157.17188.23047.05859.29297.11719.23437.0586.8711.17577h.8164l.46875.23047.17188.0586.875.69921.46484.1172.29297.05858.17578.0586.23047.0586.46875.05859.34766.05859.35156.0586.40625.05859h.29297l.17187.0586v.23046l.17578.17578h.29297l.34766.0586.35156.05859.69922.11719h.64063l.46484-.23438.29297-.17578.17187-.11719.41016-.17187.28906-.17578.9336-.46485.46875-.29297.52343-.29296.46485-.17188.46484-.17578 1.05078-.46485.28906-.11718.41016-.11719.28906-.11719.52735-.17578 1.51562-.69922.58203-.34765.28907-.0586.29297-.0586.34765-.11718.875-.23047.35156-.11719h.11329l.23437-.05859.875-.23437.23438-.0586h.8125l.35156-.0586.8164-.11718.17188-.0586.35156-.05468.29297-.0586.23047-.05859.8164-.17578.17579-.0586h.34765l.23438-.05859.46484-.11718.75781-.17188.23438-.0586h.34765l.41016-.11718.28906-.0586 1.28516-.05859h.28906l.41016-.0586.23047-.05858h.17578l.875-.1172h.40625l.41015-.11718h.34766l.35156-.11328.8711-.0586h1.75l1.04687.28907.41016.11719.28906.11718.35156.11719.28907.11719 1.05078.17187.28906.0586h.29297l.29297.05859.17187.0586.41016.05859.17187.0586.1172.05858h.11718l.11719.0586.35156.0586h.11328l.41016.0664 1.92187.39453 1.92578.39453 1.51953.44922 1.69532.71875 2.14453.80469 1.60547-.71875 1.42968-.80469 1.16016-1.07813 1.25-.44921 3.03516-.71875 1.875-.35938 2.14453-1.34765 2.23437-1.25391 2.5-1.25781 1.69531-.44922 1.78516-.17969 1.16016-.26953.625.53906 1.33984-.26953.71485-.98828.98437-1.34375.44531-.17969.80469-.35937 1.875-.53907 1.78516-.44921 1.25-.26954 1.16015-.08984 1.69922-.08984 1.96094-.26954 1.25-.08984h.53906l.625-.08984h.89063l2.14453-.17969 2.41015-.17969 2.58985-.08984 1.69531.17969 1.60938.08984 1.42968.35938 1.16016.71875 1.875.98828 1.16015 1.52734.26563.71484.6289.08985.35548.89844.53515.53906.53516 1.52734 1.07422.35938h.53515l-.80469.53515.08985 1.70703.71484 2.69532.89063.80468.89453.98829.71484 1.2578 1.78516.53907 1.51953-.17969.35547 1.34375 1.60937-.80469.98047-.53906.26953.26953.31641-.21484.21875-.14453.80078.44922.44922-.35938h.35547l.53515-.26953.53907-.71875.53515-.26953.625-.98828 1.16016.44922.83984.3711 1.39454.61718 1.6953-.17969h1.60548l1.78515.08985.17969-1.70704.53516-1.34375.80468.26954.4922.84765.40233.40625-.08984.53906v.35938l.71485.44922.71093-.26953h1.42969l.35938.98828.4453 1.25781.71485 1.34375 1.25.6289 1.69531.62891.71485-.17969.17969-.53906.98046-.08984.44922.35937.08594 1.25782-.26563.6289-.53515.17969v.53906l.71484.98438.26563.53906.98437.98828.80078 1.07813-.26562.35937-.08985.89844-.625 2.33203-.35546 2.0664-.08985 1.79298-.17969.71875-.08984.53906v1.4375l-.98047 1.88281-.35937 1.70703-.53516.89844-.80469 1.16797-.26562.53906 2.05469 1.2539.08593.35938-.35546.53906-.08985-.17968v.80859l.08985 1.4375-.44532.71484-1.07422.09375-.26562.71485.53515.89844.8047.71875 1.16015.80859 1.33984.26953.44531.35938-.35546.44921-1.78907-.08984-1.25-.44922-.71484-.71875-.625-.08984-.17578 3.58984-.1875 1.3086h89.35937V311.70313h-55.26953v49.08203l.76172.125 3.28906.54296 2.02344 2.83594v2.7539l2.35156.33204 2.34766.33203h4.05078l-1.3789 4.16016-2.02344.70703-2.02344.70312-.54297.34375-2.59375 1.6172-.1875.11718-2.02344-2.07813-.73046-2.74218-2.67188-2.07813-1.375-3.5-.0664-.08203-1.95704-2.67188 2.75-1.41796v-49.08204H294.42187v91.41407l.1172.03125.1328.01172.07422.07421.10547.04688.08985.0586.08593.05859.08985.0586.29687.29687.0586.08984.03125.11719.02734.11719.01563.13671-.03125.1172-.0586.08983-.0586.08594-.04296.10547-.04688.10156-.02734.1211v.14453l.17578.26953.14844.14844.07422.08594.07422.07421.04296.10547.0625.08985.0586.08593.04297.10547.0586.08985.04687.10156.04296.10547.0586.08594.11719.17968.07421.07422.0625.08594.0586.08984.04297.10547.0586.08985.05858.08593.0625.08985.0586.08984.04297.10156.11719.17969.07421.07422.0586.08594.07422.07421.08984.0586.10547.04687h.14844l.1328-.01562.13282.01562.10156-.04687.07422-.07422.04688-.10156-.01563-.13281v-.14844l-.04687-.10547-.02735-.11719-.04687-.10156-.02735-.1211-.04296-.10156-.0625-.08984-.04297-.10156-.04297-.10547-.03125-.11719-.01563-.13281-.01171-.13672.08593-.0586.0586-.08593.12109-.03125.04297.10547.01562.1328v.1172l.0586.10156.0586.08984.08983.0586.14844.14843.0586.08985.04296.10547-.01171.10156.08593.0586.10547.04687.08594.0586.08984.05858.07422.07422-.11719.02735-.10546.04687-.08594.0586-.07422.07421-.0586.08985-.0625.08594-.02734.12109-.04687.10156-.04297.10547-.03125.11719-.01172.13281-.01563.13281v.14844l.02735.11719.04687.10547.04297.10156.0586.08984.07421.07422.08985.0586.07422.07421.08984.0586.0586.08984.04296.10547.04688.10156.11719.03125.1328.01563h.14845l.11718-.03125.10547.04297.04297.10547.04688.10156.02734.1211L299.5 410l.02734.11719.03125.1211.02735.11718.10547.04297.10156.04687.13281-.01562.14844.14844.0625.08593.07422.07422.07031.07422.08984.0625.10547.04297.10156.04297.1172.03125.13671.01562.11719-.03125.07422-.07422.02734-.11718-.01172-.13282-.03125-.12109-.02734-.11719.04297-.10547h.11719l.08984.0625.11719.02735h.14843l.13282.01562h.14843l.13282.01563.1328-.01563h.14845l.1328-.01562.13282-.01172.13672.01172.11719-.02735.13281-.01562.1914-.0586-.05859.17579-.01562.1328-.02735.1211-.01562.13281-.0586.08594-.1328.01563-.10548.04687-.10546.04297-.1172.03125-.11718.02735-.26563.03125h-.14843l-.13281.01562-.07422.07422.05859.08594.14844.14843.11719.1797.07421.0703.08985.0625.08984.0586.08594.0586.08984.05858.10156.04297.10547.0625.10547.04297.08594.0586.10547.04687.10156.04297.17969.11719.0586.08984-.04298.10156-.04687.10547.01562.13281.22266.22266.0586.08985.04296.10156.03125.1211.04297.10155.01563.13282.03125.11718.01171.13672.03125.11719.14844.14844.10156.04297.10547.04296.1172.03125.1328.01563.13672.01563h.11719l.11719-.03125.08984-.0586.04297-.10547.04688-.10156.04296-.10547.03125-.11719.01172-.1328v-.14845l-.01172-.1328-.01562-.13282-.03125-.11719-.04297-.10547-.04688-.10547-.04296-.10156-.04297-.10547-.01563-.13281.01563-.13281.02734-.11719.03125-.11719.02735-.1211.04687-.10155.08984-.0586.08594-.0625.07422-.07422.08984-.05859.22266-.22266.0586-.08593.07421-.07422.11719-.17969.0586-.08594v-.14844l-.07423-.07421-.10156-.04688-.10547-.04297-.10156-.04297-.0586-.08984-.04687-.10547-.02734-.11719.08984-.05859.11719-.03125.10156-.04297.17969-.11719.14844-.14843.01172-.13282-.01172-.10546-.08985-.0586-.1328.01563h-.14845l-.1328.01562-.13282-.01562-.1211-.03125-.08593-.0586-.07422-.07422-.0586-.08984-.0625-.08594-.11718-.17969-.0586-.08593.03125-.1211.08594-.05859.1211-.03125.05859-.08594v-.1211l-.03125-.11718-.0586-.08984-.05859-.08594-.04687-.10547-.02735-.11719-.01562-.1328.0586-.08985.07421-.07422.08984-.0586.1172-.17968.07421-.07422.0586-.08594.14843-.14844.1211-.03125.1328-.01562.13282.01562.07422.07422.04297.10547.01562.13281-.03125.1172-.11719.03124-.1328.01172-.14844.14844-.04297.10547-.04688.10156-.02734.1211-.03125.11718v.14844l.03125.11719.04297.10546.05859.08985.07422.07031.07422.07422.11719.03125.12109.02734.11719-.02734.1328-.01563h.1172l.08984.0586.07422.07422.04687.10546.0586.08594.10156.04688.13281.01562.10547.04297.08594.0586-.01172.10546-.07422.07422-.17969.11719-.05859.08984-.08984.0586-.07032.07422-.07421.07421-.0625.08985-.02735.11719-.01562.1328.01562.13282-.01562.13281v.14844l.01562.13281.02735.1172.03125.12108.07421.07422.08985.0586.08594.0586.08984.05858.11719.03125v.08594l-.10157.04688-.08984.0586-.26563.03124-.11718.02735h-.14844l-.10547.04296-.10156.04688-.0586.08984-.0625.23438-.01171.13281-.03125.1211-.01563.1328v.29298l-.01172.1328.01172.13673.01563.1328.1328.01563.13282.01172.1211.03125.08593.0586.07422.07421.04688.10547.04296.10157.01563.1328v.44532l-.01563.13281v.44532l.03125.26562.02735.11719.01562.13281.03125.11719.08594.21094.03125.26562v.14844l-.03125.11719-.02734.11718-.03125.1211-.02735.11719-.03125.11718-.03125.1211-.01171.1328-.01563.13282.08984.0586.1172-.03125.10155.01562.04688.10547-.03125.26562v.44141l-.04297.10547-.04688.10547-.04296.10156-.04297.10547-.0586.08594-.03125.12109-.04296.11719-.03125.11719-.01563.1328.01563.13282.05859.08984.10547.04688.08594.0586.05859.08593-.01172.13672-.03125.11719-.04297.10156v.44531l-.01562.13281v.14844l-.03125.11719-.04297.10547-.02735.11719-.04687.10546-.04297.10157-.03125.12109-.02734.11719-.03125.13281-.03125.11719-.02735.11719-.04297.10546-.03125.1172-.03125.12108-.01171.13282-.01563.13281v.29688l.02734.11718v.14844l.04688.39844.02734.11719.0586.08984.12109.03125h.14844l.13281-.01563.0586.08985v.11719l-.0586.08984-.08984.0586-.10157.04296-.10546.04688-.08985.05859-.08594.0586-.13671.01562-.1172-.03125-.1328-.01563-.10157.04688-.0625.08594-.01172.13671-.01562.13282-.03125.11719-.02735.11718-.01562.13281-.03125.1211v.29687l.01563.13282.03125.11718v.14844l.01171.13281v.14844l-.02734.11719-.04688.10156-.02734.1211-.03125.11718-.0586.08985-.07421.07421-.10156.04297-.10547.04688-.11719.02734-.1211.03125-.10156-.04687.0586-.08594.10547-.04688.02734-.11718.03125-.11719.02734-.1211.03125-.11718v-.14844l.01563-.13281-.03125-.11719-.04297-.10547-.10547.01563-.07422.07422-.10156.04296-.08984.0625-.07422.07422-.04297.10157-.01563.1328-.03125.1172L304.25 426l-.03125.11719-.02734.11719-.03125.12109-.02735.11719-.03125.11718-.04297.10547-.08984.0586h-.08984l-.1172-.03125-.03124-.08594.01562-.13672-.03125-.11719v-.14844l-.01171-.1328v-.14844l-.0625-.23438-.02735-.1211-.04297-.10156-.04687-.10546-.0586-.08594-.05859-.08985-.04297-.10546-.0625-.08594-.14844-.14844-.0703-.07422-.10548-.04687-.10547-.04297-.10156-.04297-.29687-.29688-.08985-.07421-.08594-.0586-.10546-.04297-.08985-.0625-.08594-.0586-.10546-.04296-.08985-.0586-.08594-.0625-.07421-.0703-.10547-.04688-.08594-.0586-.10547-.04296-.08984-.0625-.10156-.04297-.10547-.04297-.08594-.0586-.10547-.04687-.10547-.04297-.10156-.04687-.08985-.0586-.10156-.04297-.10547-.04296-.08984-.0625-.11719-.02735-.13281-.01562-.13281.01562H299.75l-.13281.01563-.11719-.03125-.08984-.0586-.07422-.07422-.08985-.05859-.10156-.04688h-.14844l-.12109-.02734-.10156-.04297-.07422-.07422-.11719-.17968-.08984-.0586-.10156-.04297-.08985-.0625-.10547-.04296-.08984-.0586-.08594-.0586-.10547-.04687-.0586-.08594-.05858-.08984-.04297-.10547-.04688-.10156-.07422-.07422-.08594-.0586-.07421-.07421-.08985-.0586-.22265-.22265-.04297-.10547-.03125-.26563.10547-.04296h.14453l.10547.04296.07421.07422.08985.0586.08594.0586.10546.04687.08985.05859.14844.14844.0703.07422.14845.14843.0625.08594.07421.07422.08594.0586.07422.07421.08985.0625.08984.0586.08594.05859.26953.17578.10156.04688.10547.04296.10156.04297.04688-.07421.05859-.08594.07422-.07422.07031-.07422.10547.04297.07422.07422.0586.08984.04296.10156.04688.10547.04296.10547.1211.02735.11719-.02735.07421-.08984.04297-.10547.0586-.08985.07422-.07421.10546-.04297.1172-.02735.1328.01172.08985.0586.14844.14843.05859.08985.04297.10547.04687.10156.04297.10547.04297.10156.10547.04688.10547.04296.13281.01563.08594-.0586.0586-.08984.07421-.07422.10547-.04297.11719.02735.10547.04687.10156.04297.10547.04297.10156.04688.17969.11718v.11719l-.01563.13281.01563.13281.01562.13672.0586.08594.10156.04688.1211.02734.11718.03125h.14844l.11719-.03125.05859-.08984.17969-.1172.05859-.08983.07422-.07422.0586-.08594.11718-.17969.17969-.11719.11719.03125.08984.0586.04297.07422-.01563.1328v.1172l.08985.05859h.14843l.13282-.01563.1328-.01171.26563-.03125.10547-.04297.11719-.03125.1211-.02735.07421-.07421.07031-.07422.0625-.08985-.01562-.10547-.04688-.10156-.10156-.04297-.10547-.01562-.11718.02734-.26563.03125h-.14844l-.07421-.07422-.08985-.0586-.11719-.03124-.11718-.02735-.13282-.01562h-.14843l-.13282.01563h-.29687l-.10547-.04688-.14844-.14844-.04297-.10156-.05859-.08984.22266-.22266.08593-.0586.10547-.04296.11719-.03125.13281-.01563.13281.01563.13672.01562.10157.04297.1328-.01172.08985-.0625.10156-.04297.0625-.08984-.04687-.10156-.08984-.0586-.1172-.03125-.10155-.04296-.0586-.08985-.0625-.08984v-.11719l.01563-.13281.10547-.04688.07421-.07031v-.1211l-.08984-.05859-.03125-.11719.08985-.05859.07421-.07422.04297-.10547.0586-.08984.04687-.10156.01563-.13281v-.14844l-.04688-.10547-.04297-.10156-.08984-.0586-.13281-.01562-.10157-.04297-.13671-.01563-.1172-.03125h-.4453l-.13282-.01562-.13281-.01172-.13281-.01563-.11719-.03125h-.14844l-.13281-.01562-.13281-.01172-.26563-.03125-.1211-.04297-.08593-.0586-.07422-.07421v-.14844l.01172-.13281.10547-.04688.10156-.04296.13281-.01563h.15235l.13281-.01562h.29297l.1211.03125.10156.04296.08984.0586.23438.0625.12109-.04688.08984-.05859.10156-.04297.13282-.01562.10547.04296.10156.04688.13281.01172.1211-.02735h.14453l.12109-.03125.11719-.02734.10547-.04687.07421-.07422.08594-.0586.14844-.14843.0586-.08594.04687-.10547.02734-.11719.01563-.10547-.10156-.04296-.08985-.0586-.11719-.03125-.10546-.04297-.08985-.0625-.07422-.08594-.07422-.07421-.10156-.04297-.10547-.04688-.10156-.04297-.0586-.08984-.04687-.10156-.08594-.21094-.0625-.08594-.05859-.08984-.07422-.07422-.08594-.0586h-.26953l-.11719.03126-.08984.05859-.10156.04297-.13281.01562-.10547-.01562-.02735-.11719-.0625-.08984-.11718-.03125-.10157-.04297-.14843-.14844-.03125-.11719-.01563-.10546.07422-.07422.17969-.1172.11719-.02733.11718-.03125.13672.01562.10156.04297.10547.04297.10156.04687.10547.04297.1172.03125.1328.01563.1172.02734.1328.01563.10547-.01563.08985-.0586-.07422-.07421-.10547-.04297-.07422-.07422-.07422-.08984-.14844-.14844-.08593-.0586-.08985-.05859-.07422-.07422-.08984-.0586-.10156-.04687-.1211-.02734-.10156-.04688-.10547-.04296-.11719-.03125-.10156-.04297-.1211-.03125h-.14843l-.11719.03125-.10546.04297-.08594.0625-.17969.11718-.08594.0586-.08984.0586-.10547.04687-.08594.05859-.10547.04297-.10156.04297-.10547.04687-.07422.07422-.05859.08985-.0586.08593-.04687.10547-.0586.08594-.07421.07422-.13281-.01172-.1172-.03125h-.11718l-.07422.07422-.08984.0586-.07422.07421-.08984.0586-.08594.05859-.10547.04687-.10156.04297-.13672.01563-.10156-.04297-.14844-.14844-.10547-.04688h-.08594l-.10547.04688-.10156.04297-.1211.03125-.11718-.03125-.07422-.07422v-.11719l.03125-.1211.07422-.0703.0586-.08985.07421-.07422.11719-.03125.10547-.04296h.29297l.13281-.01563.13672-.01563.10156-.04296.08985-.0586.10156-.04687.08984-.0586.13281-.01171.08985.05859.13281.01172.08984-.0586.08594-.05859.10547-.04297.08984-.0586.08594-.0625.08985-.05859.14843-.14843.0586-.08594.05859-.08985.10547-.04296.13281-.01563.11719.02735.1211.03125.05859-.0586.05859-.08984.03125-.26563.02734-.11719.10547.01172.13281.01563.10157-.04297.08984-.0586.0586-.08984.07421-.07422.0586-.08984.04687-.10156.01172-.13281-.01172-.13282-.04687-.10547-.14844-.14843-.0586-.08985-.05859-.08594-.04297-.10546v-.44532l.01563-.1328v-.14845l.01172-.1328-.0586-.0586-.08984.0586-.10156-.04298-.17969-.11719-.08594-.05859-.0625-.08984-.0586-.08985-.07421-.07421-.08594-.0586-.1211.03125-.10155.01172-.10547.04688-.08594.05859-.10547.04297-.14844.14844-.08984.05859-.08594.0586-.08984.0625-.10547.04296-.13281.01563v-.1211l.10547-.04297.11718-.03125.07422-.0703.04297-.10548v-.14844l-.02734-.11718-.14844-.14844-.13281-.01563h-.14844l-.11719.03125-.10547.04297-.10156.04297-.08984.0625-.11719.02735-.07422-.07422.01172-.13281-.04297-.10157-.04297-.10547-.08984-.05859-.11719.02734-.1211.03125-.11718.03125-.10156.04297-.1211.03125-.10156.04297-.10547.04297-.08984.0586-.10156.01562v-.11719l.01562-.13281-.0586-.08985-.07421.04297-.14844.14844-.0586.08985-.07421.07421-.04688.10547-.04296.10156-.07422.07422-.0586.08985-.07422.07422-.05859.08593-.07422.07422-.08984.0625-.07422.07031-.07422.07422-.10156.01563-.13281.01562-.10547-.04296v-.1211l.14843-.14844.04297-.10156.0586-.08984.04687-.10156.04297-.10547.0586-.08985.03124-.11719.04297-.10156.03125-.1211.02735-.11718.04687-.10547.04297-.10156.04297-.10547.07422-.07031.08984-.0625.08985-.0586.10156-.04296h.29687l.26563-.03125.10547-.04297-.07422-.07422-.11719-.03125-.10547-.04297-.08984-.0586-.10156-.04687-.08985-.0586-.10156-.04296-.10547-.04297-.08984-.0625-.08594-.0586-.10547-.04296-.10156-.04297-.1211-.03125-.11718-.03125-.10157-.04297L297.5 410.25l-.10156-.04297-.08985-.0586-.04296-.10546-.01563-.13281.10156-.04297.13281-.01563.13672.01563.13282-.01563.10156-.04297.0586-.08984.01562-.10547-.08985-.0586-.07421-.07421-.10157-.04297-.08984-.0586-.14844-.14843-.04297-.10547-.01562-.13281v-.29297l-.0586-.08985-.08984-.05859-.07422-.07422-.04297-.10547-.03125-.11718-.0586-.08985-.07421-.07422-.11719-.02734-.07422-.07422-.08984-.0586-.08984-.0625-.08594-.05859-.07422-.07421-.0586-.08594-.04687-.10547-.08594-.0586-.14843-.14843-.19532-.0586-.1328.01563-.10157.04297-.07422.07422-.04688.10156-.04296.10547-.0586.08984-.0586.08594-.29687.29687-.08984.0586h-.08594l-.0625-.08594-.04297-.10547.03125-.11719.0586-.08984.02734-.11719-.01172-.13281-.08984-.0625-.10547.04688-.11719.02734-.11719.03125-.26953.17578-.10156.04688-.11719.02734-.10546.04687-.08985.0586-.10156.04297-.0586-.08594-.04687-.10547.01563-.13281.04687-.10547.07031-.07422.07422-.07031.0586-.08985v-.14843l-.04297-.10547h-.23829l-.10156.04687-.03125.11719-.02734.11719-.03125.1211-.07422.04296-.13281.01563-.07422-.04688-.04297-.10156-.04297-.10547-.04687-.10156-.04297-.10547-.1211.03125-.10156.04297-.13281.01562-.11719.03125-.10547.04297-.08984.0586-.10156.04687-.1211.02734-.13281.01563-.10156-.04297-.0586-.08985-.04687-.10546-.04297-.10157-.04297-.10546v-.1172l.0586-.08984.08593-.05859.17969-.11719.10156-.04687.10547-.04297.10547-.0586.10156-.04296.08985-.0625.10156-.04297.10547-.0586.10156-.04687.08984-.0586.10547-.04296.10156-.04297.08985-.0625.10156-.04297.13672-.01563.11719.03125.10156.04297.1211.03125.10156.04297.10546.04688.10157.04296.10547.04297.10156.04688.10547.04297.10156.04297.10547.04687.08594.0586.10546.04296.1172.03125.10546.04297.10156.04688.08985.0586.10547.04296.10156.04297.10547.04687.11719.02735.10156.04687.1211.02735h.14843l.08594-.0586.01562-.10156.0586-.08984-.02735-.1172-.07422-.07421-.11719-.17969-.07421-.07422-.08985-.07421-.17969-.1172-.08593-.05859-.10547-.04296-.10156-.04688-.26954-.17578-.05859-.08985-.07422-.07421-.0586-.08985-.04296-.10156-.03125-.11719-.01563-.13672v-.5625l-.01171-.1328-.01563-.13282-.03125-.11719-.01562-.13281-.01172-.13281-.03125-.1211-.22266-.22265-.0586-.08594-.01562-.10547.03125-.11719.13281-.01562v-91.41406H172.9922v1.45312l-.0586.23438-.35156 1.05078-.17187.52343-.1172.34766-.17577.41016-.11719.17187-.23438.29297-.23046.0586h-.35157l-.11718.05859-.23047.40625v.29297l.11719.17578.23046.23047.1172.23437.64062.75781.29297.46485.17578.23437.23047.35156.23437.34766.64063.8164.17578.46485.17187.41016.11719.69531.17578.46875.11719 1.39844.0586.46484v.875l.11718 1.04688v4.78125l-.0586.46484-.35156 1.28125-.17578.52344-.11328.41015-.35156.9297L172.93359 336l-.23437.58203-.11719.17578-.17187.34766-.17578.40625-.35157.8164-.0586.29297-.11327.29297-.11719.28906-.0586.17579-.11718.875-.0586.40625-.05859.11718-.0586.17579-.05859.17187-.23047.52734-.11718.17188v.23437l-.11719.23438-.0586.17187-.17577.58594v.28906l-.0586.17579v.29296l-.0586.11329-.05859.52734v.17187l-.05468.23438v2.6211l-.17578.8164-.1172.17578-.17577.23438-.1172.17187-.11327.23438-.58594.93359-.23047.28906-.29297.46485-.17578.23437-.28906.35156-.35156.69922-.11328.23047-.17579.41016-.17578.23046-.40625.52735-.8164.69922-.29297.17187-.28906.23438-.17579.11719-.17578.17578-.52344.40625-.52734.17578-.17187.17578-.23438.05469-.64062.17578h-.75782m12.21094 31.02344l-1.07422.44921.35938.89454 1.25-.71485.44531-.53906-.98047-.08985"/><path fill="#d3d3d3" fill-opacity="0" fill-rule="evenodd" d="M201.50781 416.59766h-.89453l.44922.6289.98047.35938.80469-.08985.4453-.98828-.17577.08985-.71485-.35547-.89453.35547m154.6211 59.0703l-.0586-.52343v-.29297l.11328-.29297.0586-.23046.46875-.46875h.11328l.11719-.11329.11718-.05859h.17579l.23437-.0586h.34766l.23437.0586.11719.0586.23047.17187.0586.17578.11718.58203v.29297l-.11719.17578-.17187.28906-.17579.17579-.52734.52343-.23047.23438-.11719.0586h-.17578l-.11718-.0586-.40625-.29297-.17579-.11719-.11718-.0586-.0586-.11327-.05468-.1172m6.64062-10.95702l-.0586-.17188v-1.10937l.0586-.17188.17578-.0586.17188-.05858h.17578l.23437-.0586.1172.0586.05858.69921-.05859.17188-.11719.17578-.11718.0586-.23438.52343-.11328.0586h-.23438l-.05859-.1172m9.61328-14.39062l-.11719-.17578v-.69922l.29297-.875.1172-.17187.17577-.35156.11328-.23047.1172-.29297.35155-.75781.1172-.23047.17187-.23438h.17578l.11719-.0586h.64062l.11719.0586.23437.23438.17188.11328.35156.29297.11719.11718.11328.17579v.11328l.11719.05859.11718.11719v.69922l-.05859.17578v.23047l-.0586.17578-.34765 1.05078-.11719.23047-.11719.23437-.11718.0586-.23047.23437-.64063.28906h-.875l-.41015-.11718-.64063-.46485"/><path fill="none" stroke="#bebebe" stroke-linecap="round" stroke-linejoin="round" stroke-miterlimit="10" stroke-width=".5" d="M467.95703 311.69531H144.02734v168.625h323.9297v-168.625"/><g clip-path="url(#a)"><path fill="#fff" fill-opacity="0" fill-rule="evenodd" d="M144 475.89063v4.4375h.0039H144v-41.6836 37.2461"/></g><g clip-path="url(#b)"><path fill="#fff" fill-opacity="0" fill-rule="evenodd" d="M144 431.50781v2.41797-122.2539h.0039H144V431.5078"/></g><path fill="#50fcfc" fill-rule="evenodd" d="M144 433.92578v4.71875h.0039v-4.71484l-.0039-.0039"/><g clip-path="url(#c)"><path fill="#fff" fill-opacity="0" fill-rule="evenodd" d="M144.0039 480.32813v-41.6836l2.13282-2.69922-2.13281-2.01562V311.67188h71.01172v110.67968l-.30079.27735-4.14062 3.36328-4.4375-.73438-4.4375.09375-4.4375-.3711-4.4414.5-4.4375-.51171-4.4375 1.0586-4.4375-.77344-4.44141.74218-2.48828 1.07422-1.94922 1.22266-4.4375 1.0625-3.6172 2.15234-.8203 1.57031-1.0547 2.8672-2.2539 4.4375.28516 4.4375.0586 4.4414-.01954 4.4375 1.8086 4.4375 1.17578 1.91015 2.21484-1.91015 2.22266-1.1211 4.4375.02344 4.4375.66016 2.5078.4375 1.9336.58594 4.4375 1.18359 3.35938-1.76953L188.3828 457l4.4375-.85547 4.4414-.33984 4.4375-.3086 4.4375.89844 4.4375-1.39062 4.44142-.73438.61328-.57031 3.46875-4.4375-4.08203-1.2539-4.44141-.9375-4.26172-2.25.47656-4.4375 3.78516-1.72657 4.4414-2.48828.29297-.22266.7422-4.4375 3.40233-2.26953 4.4375-.53515 1.81641 2.80468 2.6211 2.07031 1.3828 2.3672 3.0547 3.04296 4.4414-1.88672 1.4336 3.28125 3.0039 2.36719 3.13672-2.36719-3.13672-2.60937-3.58203-1.82813-.85547-1.07812-4.4414-2.26953-2-1.08985-2.4375-2.5664-2.85938-1.8711-1.57813-1.8789-4.4375-1.03125-3.85156-1.53125-.58594-.27735V311.67187h159.77735v136.89454l-.73438.6953.73438.64454.64844-.64453-.64844-.69531V311.67187h93.20312v168.65625h-73.77734l-1.67188-2.44921-4.4375-.79688-3.92578-1.1914 3.76954-4.4375.15625-.08594 2.24609-4.35156-2.2461-3.91797-.34765-.52344.1289-4.4375-4.21875-4.35938-1.42187 4.35938-1.7539 4.4375 3.08593 4.4414-1.35547 4.4375 1.25781 4.4375.1875 1.20704.50391 3.23046H144.00391"/></g><path fill="#50fcfc" fill-rule="evenodd" d="M146.13672 435.94531l-2.13281 2.69922v-4.71484l2.1328 2.01562m12.59376 8.875l-.28516-4.4375 2.2539-4.4375 1.0547-2.86719.8203-1.5703 3.6172-2.15235v8.21484l-2 2.8125 2 2.82422v2.24219l-3.89844 3.8125-.53906 3.03125-.23828 1.40625.23828.44531.91406-.44531 3.52344-.88281 4.4375.21875 2.73437-3.77344-2.73437-3.35156-4.4375-.46094v-2.24219l4.4375.0625 1.18359-2.88672-1.1836-2.35547-4.4375-.45703v-8.21484l4.4375-1.0625 1.94923-1.22266 2.48828-1.07422 4.4414-.74218 4.4375.77343 4.4375-1.05859v8.65234l-2.05469 2.32422 2.0547 2.83985 4.29687-2.83985-4.29688-2.32422v-8.65234l4.4375.51172v3.60937l-2.07031 2.41797 2.07031 4.25781v.33985l-2.70312 4.27734 2.70312 1.95703 1.59766-1.95703-1.59766-4.27734v-.33985l2.3711-4.2578-2.3711-2.41798v-3.60937l4.4414-.5 4.4375.3711 4.4375-.09376 4.4375.73438 4.14063-3.36328.30078-.27735.58594.27735 3.85156 1.53125 4.4375 1.03125 1.57813 1.8789 2.85938 1.8711 2.4375 2.5664 2 1.08985v2.9414l-.3672.40625.3672.36719.60546-.36719-.60547-.40625v-2.9414l4.44141 2.26953.85547 1.07812 3.58203 1.82813 3.13672 2.60937-3.13672 2.36719-3.0039-2.36719-1.4336-3.28125-4.4414 1.88672-3.0547-3.04297-1.3828-2.36719-2.6211-2.0703-1.8164-2.8047-4.4375.53516-3.40235 2.26953-.74219 4.4375-.29297.22266-4.4414 2.48828-3.78516 1.72656-.47656 4.4375 4.26172 2.25 4.4414.9375 4.08204 1.2539-3.46875 4.4375-.61328.57032-4.44141.73438-4.4375 1.39062-4.4375-.89844-4.4375.3086-4.4414.33984-4.4375.85547-1.07813 1.13672-3.35938 1.76953-4.4375-1.1836-1.9336-.58593-2.5078-.4375-4.4375-.66016-4.4375-.02344-2.22266 1.1211-2.21484 1.91015-1.17578-1.91015-1.8086-4.4375.01953-4.4375-.0586-4.4414"/><path fill="#00e8fc" fill-rule="evenodd" d="M161.7539 454.14453l-.23827-.44531.23828-1.40625.53906-3.03125 3.89844-3.8125 4.4375.46094 2.73437 3.35156-2.73437 3.77344-4.4375-.21875-3.52344.8828-.91406.44532m4.4375-10.9375l-2-2.82422 2-2.8125 4.4375.45703 1.18359 2.35547-1.1836 2.88672-4.4375-.0625"/><path fill="#fff" fill-opacity="0" fill-rule="evenodd" d="M188.38281 433.6211l-2.05469 2.32421 2.0547 2.83985 4.29687-2.83985-4.29688-2.32422m4.4375 2.48438l-2.70312 4.27734 2.70312 1.95703 1.59766-1.95703-1.59766-4.27734m0-7.01563l-2.07031 2.41797 2.07031 4.25781 2.3711-4.2578-2.3711-2.41798"/><path fill="#00e8fc" fill-rule="evenodd" d="M232.76563 436.3125l-.3672-.36719.3672-.40625.60546.40625-.60547.36719"/><path fill="#50fcfc" fill-rule="evenodd" d="M374.79297 449.90625l-.73438-.64453.73438-.69531.64844.6953-.64844.64454"/><g clip-path="url(#d)"><path fill="#50fcfc" fill-rule="evenodd" d="M383.58203 467.01563l-3.08594-4.44141 1.75391-4.4375 1.42188-4.35938 4.21875 4.35938-.12891 4.4375.34765.52344 2.2461 3.91796-2.2461 4.35157-.15625.08594-3.76953 4.4375 3.92579 1.1914 4.4375.79688 1.67187 2.44921h-10.04297l-.5039-3.23046-.1875-1.20704-1.25782-4.4375 1.35547-4.4375"/></g><g clip-path="url(#e)"><path fill="#fff" fill-opacity="0" fill-rule="evenodd" d="M467.9961 480.32813H468V311.67188h-.0039H468v168.65625h-.0039"/></g><path fill="#fff" fill-opacity="0" fill-rule="evenodd" d="M231.33984 436.6211l4.51953 3.69921 6.3086-7.71094-4.52344-3.69921-6.30469 7.71093"/><path fill-rule="evenodd" d="M239.19531 432.54688l.39063.3203-3.98438 4.875-.60937-.5 2.84375-3.47656-1.07422-.8789.35156-.42969.47266.30469.23047.11719.23437.07812.2461.01953.26953-.05469.29297-.13671.33593-.23829"/><g clip-path="url(#f)"><path fill="none" stroke="#000" stroke-linecap="round" stroke-linejoin="round" stroke-miterlimit="10" stroke-width=".5" d="M147.5039 480.57031l-7.0078-.48437"/></g><g clip-path="url(#g)"><path fill="none" stroke="#000" stroke-linecap="round" stroke-linejoin="round" stroke-miterlimit="10" stroke-width=".5" d="M147.5039 480.57031l1 2.24219"/></g><g clip-path="url(#h)"><path fill="none" stroke="#000" stroke-linecap="round" stroke-linejoin="round" stroke-miterlimit="10" stroke-width=".5" d="M160.82031 480.5625l-7.01172-.46875"/></g><g clip-path="url(#i)"><path fill="none" stroke="#000" stroke-linecap="round" stroke-linejoin="round" stroke-miterlimit="10" stroke-width=".5" d="M160.82031 480.5625l1.0039 2.23828"/></g><g clip-path="url(#j)"><path fill="none" stroke="#000" stroke-linecap="round" stroke-linejoin="round" stroke-miterlimit="10" stroke-width=".5" d="M159.80078 480.4961l.5039 1.11718"/></g><g clip-path="url(#k)"><path fill="none" stroke="#000" stroke-linecap="round" stroke-linejoin="round" stroke-miterlimit="10" stroke-width=".5" d="M174.14453 480.41016l-7.02734-.16016"/></g><g clip-path="url(#l)"><path fill="none" stroke="#000" stroke-linecap="round" stroke-linejoin="round" stroke-miterlimit="10" stroke-width=".5" d="M174.14453 480.41016l1.10156 2.1914"/></g><g clip-path="url(#m)"><path fill="none" stroke="#000" stroke-linecap="round" stroke-linejoin="round" stroke-miterlimit="10" stroke-width=".5" d="M173.1211 480.38672l.55077 1.09375"/></g><g clip-path="url(#n)"><path fill="none" stroke="#000" stroke-linecap="round" stroke-linejoin="round" stroke-miterlimit="10" stroke-width=".5" d="M187.45703 480.46094l-7.02344-.26172"/></g><g clip-path="url(#o)"><path fill="none" stroke="#000" stroke-linecap="round" stroke-linejoin="round" stroke-miterlimit="10" stroke-width=".5" d="M187.45703 480.46094l1.07031 2.20703"/></g><g clip-path="url(#p)"><path fill="none" stroke="#000" stroke-linecap="round" stroke-linejoin="round" stroke-miterlimit="10" stroke-width=".5" d="M200.77344 480.44531l-7.02344-.23437"/></g><g clip-path="url(#q)"><path fill="none" stroke="#000" stroke-linecap="round" stroke-linejoin="round" stroke-miterlimit="10" stroke-width=".5" d="M200.77344 480.44531l1.07812 2.20313"/></g><g clip-path="url(#r)"><path fill="none" stroke="#000" stroke-linecap="round" stroke-linejoin="round" stroke-miterlimit="10" stroke-width=".5" d="M214.08203 480.13281l-7.01562.39063"/></g><g clip-path="url(#s)"><path fill="none" stroke="#000" stroke-linecap="round" stroke-linejoin="round" stroke-miterlimit="10" stroke-width=".5" d="M214.08203 480.13281l1.27344 2.09766"/></g><g clip-path="url(#t)"><path fill="none" stroke="#000" stroke-linecap="round" stroke-linejoin="round" stroke-miterlimit="10" stroke-width=".5" d="M227.40234 480.20703l-7.02343.24219"/></g><g clip-path="url(#u)"><path fill="none" stroke="#000" stroke-linecap="round" stroke-linejoin="round" stroke-miterlimit="10" stroke-width=".5" d="M227.40234 480.20703l1.22657 2.125"/></g><g clip-path="url(#v)"><path fill="none" stroke="#000" stroke-linecap="round" stroke-linejoin="round" stroke-miterlimit="10" stroke-width=".5" d="M240.67578 479.76953l-6.9375 1.11719"/></g><g clip-path="url(#w)"><path fill="none" stroke="#000" stroke-linecap="round" stroke-linejoin="round" stroke-miterlimit="10" stroke-width=".5" d="M240.67578 479.76953l1.48047 1.95703"/></g><g clip-path="url(#x)"><path fill="none" stroke="#000" stroke-linecap="round" stroke-linejoin="round" stroke-miterlimit="10" stroke-width=".5" d="M254.01563 479.96094l-6.98829.73828"/></g><g clip-path="url(#y)"><path fill="none" stroke="#000" stroke-linecap="round" stroke-linejoin="round" stroke-miterlimit="10" stroke-width=".5" d="M254.01563 479.96094l1.37109 2.03125"/></g><g clip-path="url(#z)"><path fill="none" stroke="#000" stroke-linecap="round" stroke-linejoin="round" stroke-miterlimit="10" stroke-width=".5" d="M267.33203 479.99219l-6.99219.67187"/></g><g clip-path="url(#A)"><path fill="none" stroke="#000" stroke-linecap="round" stroke-linejoin="round" stroke-miterlimit="10" stroke-width=".5" d="M266.3164 480.08984l.67579 1.02344"/></g><g clip-path="url(#B)"><path fill="none" stroke="#000" stroke-linecap="round" stroke-linejoin="round" stroke-miterlimit="10" stroke-width=".5" d="M280.66016 480.51172l-7.01953-.36328"/></g><g clip-path="url(#C)"><path fill="none" stroke="#000" stroke-linecap="round" stroke-linejoin="round" stroke-miterlimit="10" stroke-width=".5" d="M279.63672 480.45703l.51953 1.11328"/></g><g clip-path="url(#D)"><path fill="none" stroke="#000" stroke-linecap="round" stroke-linejoin="round" stroke-miterlimit="10" stroke-width=".5" d="M293.90625 481.04297l-6.88281-1.42578"/></g><g clip-path="url(#E)"><path fill="none" stroke="#000" stroke-linecap="round" stroke-linejoin="round" stroke-miterlimit="10" stroke-width=".5" d="M292.90625 480.83594l.34375 1.17578"/></g><g clip-path="url(#F)"><path fill="none" stroke="#000" stroke-linecap="round" stroke-linejoin="round" stroke-miterlimit="10" stroke-width=".5" d="M307.23047 480.98828l-6.90235-1.32031"/></g><g clip-path="url(#G)"><path fill="none" stroke="#000" stroke-linecap="round" stroke-linejoin="round" stroke-miterlimit="10" stroke-width=".5" d="M306.22656 480.79688l.36328 1.17187"/></g><g clip-path="url(#H)"><path fill="none" stroke="#000" stroke-linecap="round" stroke-linejoin="round" stroke-miterlimit="10" stroke-width=".5" d="M317.60938 483.80469l-1.02735-6.95313"/></g><g clip-path="url(#I)"><path fill="none" stroke="#000" stroke-linecap="round" stroke-linejoin="round" stroke-miterlimit="10" stroke-width=".5" d="M328 482.88672l4.82031-5.11328"/></g><g clip-path="url(#J)"><path fill="none" stroke="#000" stroke-linecap="round" stroke-linejoin="round" stroke-miterlimit="10" stroke-width=".5" d="M340.58594 481.91016l6.27734-3.16016"/></g><g clip-path="url(#K)"><path fill="none" stroke="#000" stroke-linecap="round" stroke-linejoin="round" stroke-miterlimit="10" stroke-width=".5" d="M341.5 481.44922l-1-.71094"/></g><g clip-path="url(#L)"><path fill="none" stroke="#000" stroke-linecap="round" stroke-linejoin="round" stroke-miterlimit="10" stroke-width=".5" d="M353.8789 481.86328l6.32423-3.07031"/></g><g clip-path="url(#M)"><path fill="none" stroke="#000" stroke-linecap="round" stroke-linejoin="round" stroke-miterlimit="10" stroke-width=".5" d="M354.80078 481.41797l-.99219-.72266"/></g><g clip-path="url(#N)"><path fill="none" stroke="#000" stroke-linecap="round" stroke-linejoin="round" stroke-miterlimit="10" stroke-width=".5" d="M367.91016 482.85156l4.89453-5.04297"/></g><g clip-path="url(#O)"><path fill="none" stroke="#000" stroke-linecap="round" stroke-linejoin="round" stroke-miterlimit="10" stroke-width=".5" d="M380.51172 481.86719l6.32031-3.07422"/></g><g clip-path="url(#P)"><path fill="none" stroke="#000" stroke-linecap="round" stroke-linejoin="round" stroke-miterlimit="10" stroke-width=".5" d="M381.42969 481.41797l-.99219-.72266"/></g><g clip-path="url(#Q)"><path fill="none" stroke="#000" stroke-linecap="round" stroke-linejoin="round" stroke-miterlimit="10" stroke-width=".5" d="M393.73438 481.66016l6.5039-2.66407"/></g><g clip-path="url(#R)"><path fill="none" stroke="#000" stroke-linecap="round" stroke-linejoin="round" stroke-miterlimit="10" stroke-width=".5" d="M393.73438 481.66016l-1.88672-1.56641"/></g><g clip-path="url(#S)"><path fill="none" stroke="#000" stroke-linecap="round" stroke-linejoin="round" stroke-miterlimit="10" stroke-width=".5" d="M394.67969 481.27344l-.9414-.78516"/></g><g clip-path="url(#T)"><path fill="none" stroke="#000" stroke-linecap="round" stroke-linejoin="round" stroke-miterlimit="10" stroke-width=".5" d="M407.32422 482.1914l5.95703-3.72656"/></g><g clip-path="url(#U)"><path fill="none" stroke="#000" stroke-linecap="round" stroke-linejoin="round" stroke-miterlimit="10" stroke-width=".5" d="M407.32422 482.1914l-2.1289-1.22265"/></g><g clip-path="url(#V)"><path fill="none" stroke="#000" stroke-linecap="round" stroke-linejoin="round" stroke-miterlimit="10" stroke-width=".5" d="M408.1914 481.64844l-1.0664-.60938"/></g><g clip-path="url(#W)"><path fill="none" stroke="#000" stroke-linecap="round" stroke-linejoin="round" stroke-miterlimit="10" stroke-width=".5" d="M420.82813 482.46875l5.57421-4.28125"/></g><g clip-path="url(#X)"><path fill="none" stroke="#000" stroke-linecap="round" stroke-linejoin="round" stroke-miterlimit="10" stroke-width=".5" d="M434.60156 482.95703l4.66016-5.25781"/></g><g clip-path="url(#Y)"><path fill="none" stroke="#000" stroke-linecap="round" stroke-linejoin="round" stroke-miterlimit="10" stroke-width=".5" d="M447.76172 477.84375l4.96875 4.96875"/></g><g clip-path="url(#Z)"><path fill="none" stroke="#000" stroke-linecap="round" stroke-linejoin="round" stroke-miterlimit="10" stroke-width=".5" d="M460.60156 482.22266l5.91797-3.78907"/></g><g clip-path="url(#aa)"><path fill="none" stroke="#000" stroke-linecap="round" stroke-linejoin="round" stroke-miterlimit="10" stroke-width=".5" d="M461.46484 481.67188l-1.0703-.60157"/></g><g clip-path="url(#ab)"><path fill="none" stroke="#000" stroke-linecap="round" stroke-linejoin="round" stroke-miterlimit="10" stroke-width=".5" d="M147.47656 467.51563l-6.95312-1.00391"/></g><path fill="none" stroke="#000" stroke-linecap="round" stroke-linejoin="round" stroke-miterlimit="10" stroke-width=".5" d="M147.47656 467.51563l.83203 2.3125m-1.84375-2.45704l.41407 1.15235m13.9414-1.27344l-7.01172-.47266m7.01172.47266l1.0039 2.23828m-2.02343-2.3086l.5039 1.1211m13.83985-1.35547l-7.02734.13672m7.02734-.13672l1.1914 2.14453m-2.21484-2.125l.59766 1.07422m13.6914-1.61718l-6.92968 1.18359m6.92969-1.1836l1.5 1.94141m-2.50782-1.76953l.75.96875m13.4922-1.49219l-6.76954 1.89063m6.76953-1.89063l1.6914 1.77344m-2.67577-1.5l.84375.88672m13.41406-1.30078l-6.6836 2.16797m6.6836-2.16797l1.76562 1.70312m-2.73828-1.38672l.88281.85157m13.42188-1.10938l-6.71875 2.05469m6.71875-2.05469l1.73438 1.73438m11.41796-2.16407l-6.39453 2.91016m6.39453-2.91016l1.94532 1.4961m11.27734-1.6836l-6.21094 3.28907m6.21094-3.28907l2.03125 1.375m11.14453-1.61718l-5.92969 3.76953m5.9297-3.76953l2.1328 1.21093m11.02344-1.4414l-5.61328 4.23047m5.61328-4.23047l2.22266 1.03906m11.11328-1.01172l-5.65234 4.17578m4.82812-3.57031l1.10938.53125m13.5-.26172l-6.59375 2.42578m5.6328-2.07422l.91798.81641m13.30078 1.40234l-6.48047-2.71484m17.57812 1.35938l-.01953-.20313-.0586-.1914-.09374-.17579-.46094-.375-.1914-.0586-.19922-.01952-.19922.01953-.1914.0586-.45704.375-.09766.17577-.05859.19141-.01953.20313.01953.19921.0586.19141.09765.17578.45703.375.1914.0586.19923.01953.19922-.01953.1914-.0586.46094-.375.09375-.17578.0586-.1914.01952-.19922m8.91016-.94532l6.76563 1.88672m6.625-2.1289l6.61328 2.37109m-5.65235-2.02734l-.17578-1.21485m12.64063 3.51953l6.39062-2.92578m-5.46094 2.5l-.97265-.7461m13.16797.64454l6.77343-1.8711m-5.78906 1.59766l-.84375-.89062m13.08985.77343l6.9414-1.08984m-6.9414 1.08984l-1.47266-1.96484m14.75781 1.71875l7-.59766m-7 .59766l-1.33203-2.0586m19.73047-1.3789l-3.16406 6.27734m2.70312-5.36328l1.22656-.02734m11.51563-1.21875l-1.09766 6.9414m.9375-5.92968l1.16016-.40235m12.0664-.64062l-.59765 7.0039m.50781-5.98437l1.1289-.48047m11.14845-.45312l1.65625 6.83203m-1.41797-5.83594l.91797-.8164"/><g clip-path="url(#ac)"><path fill="none" stroke="#000" stroke-linecap="round" stroke-linejoin="round" stroke-miterlimit="10" stroke-width=".5" d="M147.38281 454.65234l-6.76562-1.90625"/></g><path fill="none" stroke="#000" stroke-linecap="round" stroke-linejoin="round" stroke-miterlimit="10" stroke-width=".5" d="M147.38281 454.65234l.51953 2.39453m12.5625-1.78906l-6.30078-3.11719m6.30078 3.1172l.07032 2.44921m13.24218-2.44531l-6.29297-3.1289m6.29297 3.1289l.06641 2.45312m13.61328-4.14062l-7.02344.25m7.02344-.25l1.22656 2.1211m11.6875-3.62891l-6.22265 3.26562m6.22265-3.26562l2.02735 1.3828m11.07812-1.73046l-5.80469 3.96094m4.96094-3.38672l1.08594.57031m12.66406-1.64062l-4.98828 4.94921m4.98828-4.94921l2.34375.72656m11.16016-.51953l-5.36328 4.53906m5.36328-4.53906l2.28125.91015m10.7461-1.21484l-4.78516 5.14844m4.78515-5.14844l2.3711.6289m-3.07032.1211l1.1875.3125m12.4961-1.33203l-4.125 5.6875m4.125-5.6875l2.42969.33984m-3.03125.48828l1.21484.16797m12.22265-1.28906l-3.16796 6.27344m3.16797-6.27344l2.45312-.05469m-2.91406.96875l1.22656-.02734m12.42188-.94922l-2.91407 6.39453m2.91406-6.39453l2.44922-.14844M291.5 451.4297l1.22266-.07422m12.16406-.99219l-2.21485 6.67188m2.21485-6.67188l2.42187-.41015m10.65625.33984l-1.73828 6.8086m1.48828-5.81641l1.19141-.28907m13.27344-.33203l-3.53906 6.07032m3.02343-5.1875l1.22656.04687m11.75782-1.28516l-1.84375 6.78125m1.57422-5.79296l1.19921-.27344m11.73438-.82813l-.54297 7.00782m.46485-5.98829l1.125-.49218m10.33593-.1211l3.32422 6.1914m-2.84375-5.28905l.6836-1.01953m10.46484 2.14453l6.6914 2.14062m-5.71875-1.83203l-.21484-1.20703m12.54297.94531l6.72266 2.04688m-6.72266-2.04688l-.47266-2.40625m1.44922 2.70313l-.23437-1.20313m12.53515 2.82031l6.79688-1.78515m13.17578-.42578l-6.51563 2.63672m6.51563-2.63672l1.8789 1.57812m10.22657-3.11328l-4.09766 5.71094m4.09766-5.71094l2.42969.32422m10.65234-.47656l-3.63281 6.01562m3.63281-6.01562l2.44922.1328m12.1914 1.3047l-6.28515 3.14062"/><g clip-path="url(#ad)"><path fill="none" stroke="#000" stroke-linecap="round" stroke-linejoin="round" stroke-miterlimit="10" stroke-width=".5" d="M466.70313 452.1289l2 1.42188"/></g><path fill="none" stroke="#000" stroke-linecap="round" stroke-linejoin="round" stroke-miterlimit="10" stroke-width=".5" d="M465.78906 452.58594l1 .71094"/><g clip-path="url(#ae)"><path fill="none" stroke="#000" stroke-linecap="round" stroke-linejoin="round" stroke-miterlimit="10" stroke-width=".5" d="M147.3086 441.5625l-6.6172-2.35938"/></g><path fill="none" stroke="#000" stroke-linecap="round" stroke-linejoin="round" stroke-miterlimit="10" stroke-width=".5" d="M147.3086 441.5625l.35937 2.42578m12.83203-2.1211l-6.36719-2.96874m6.36719 2.96875l.1289 2.45312m13.38282-2.97656l-6.76172-1.91797m5.77734 1.63672l.25782 1.19922m14.10547-1.19531L180.5 439.6992m5.89063 1.16798l.35156 1.17578m14.03125-1.53516l-7.02344-.25m6 .21485l.53516 1.10156m13.45703-2.71094l-6.33594 3.03906m6.33594-3.03906l1.97656 1.45703m11.14453-1.8086l-5.94531 3.7422m5.94531-3.7422l2.1289 1.22266m10.95704-1.54296l-5.48828 4.38672m5.48828-4.38672l2.2539.97265m10.27344-1.69922l-3.91406 5.83594m3.91406-5.83594l2.4414.25m10.80079-.29687l-3.76953 5.92969m3.76953-5.9297l2.44922.19142m10.9336-.14844l-3.89845 5.84765m3.89844-5.84765l2.4414.24219m11.16798-.01954l-4.49219 5.40235m4.49219-5.40235l2.40234.5m10.84766-.55468l-4.36328 5.5078m4.36328-5.5078l2.41406.4414m-3.04688.35938l1.20704.22265m12.89453-.89453l-4.66797 5.25m4.66797-5.25l2.38672.57813m11.25-.2539l-5.3086 4.60155m5.3086-4.60156l2.28906.88281m-3.0625-.21484l1.14453.4414m12.71875-1.34765l-4.85938 5.07813m4.85938-5.07813l2.35937.66797m10.75391-.84766l-4.45703 5.4375m4.45703-5.4375l2.40234.48438m9.50391-1.1836l-1.63672 6.83594m1.63672-6.83594l2.375-.61328m-2.61328 1.60938l1.1875-.3086m9.95312-.39843l3.1875 6.26171m-3.1875-6.26171l1.41016-2.01172m-.94531 2.92187l.70312-1.0039m10.98047 1.04687l5.51953 4.35156m-5.51953-4.35156l.4375-2.41406m.36719 3.04687l.21875-1.20703m11.8086 1.40235l6.48827 2.6953m-6.48828-2.6953l-.23437-2.44141m17.8164 3.78906l-.01953-.19922-.05859-.1914-.09766-.17578-.45703-.37891-.1914-.0586-.19922-.01953-.19922.01954-.1914.05859-.46095.3789-.09375.17579-.05859.1914-.01953.19922.01953.19922.0586.1914.09374.1797.46094.375.1914.05859.19923.01953.19922-.01953.1914-.0586.45703-.375.09766-.17968.0586-.1914.01952-.19923m13.125-3.41406l-1.66796 6.82813m1.42578-5.83204l1.1875-.30468m11.85156-.77735l-.63281 7m.54297-5.98047l1.1289-.47656m15.33985 1.99219l-6.75782 1.9336"/><g clip-path="url(#af)"><path fill="none" stroke="#000" stroke-linecap="round" stroke-linejoin="round" stroke-miterlimit="10" stroke-width=".5" d="M466.9414 439.41797l1.70313 1.76562"/></g><path fill="none" stroke="#000" stroke-linecap="round" stroke-linejoin="round" stroke-miterlimit="10" stroke-width=".5" d="M465.95703 439.69922l.85156.88281"/><g clip-path="url(#ag)"><path fill="none" stroke="#000" stroke-linecap="round" stroke-linejoin="round" stroke-miterlimit="10" stroke-width=".5" d="M147.21875 428.48047l-6.4375-2.82422"/></g><path fill="none" stroke="#000" stroke-linecap="round" stroke-linejoin="round" stroke-miterlimit="10" stroke-width=".5" d="M147.21875 428.48047l.1836 2.44922m13.1328-2.45703l-6.4414-2.8086m6.4414 2.8086l.19141 2.4453m12.8086-1.87109l-5.8086-3.95703m5.8086 3.95703l-.26953 2.4375m13.89062-2.99218l-6.42188-2.84766m6.42188 2.84766l.17578 2.44922m13.4414-3.9922l-7.02343.23829m7.02344-.23828l1.22265 2.1289m12.08594-2.21093l-7.01562.40625m7.01562-.40625l1.27734 2.09375m12.01172-2.3711l-6.96093.95703m5.94922-.8164l.71875.99219m13.47265-1.72657l-6.6914 2.14453m6.6914-2.14453l1.75781 1.71485m10.35938-3.42188l-4.29297 5.5586m4.29297-5.5586l2.41797.41016m10.96094-.36328l-4.42188 5.46484m4.42188-5.46484l2.40625.46875m11.21093-.1914l-5.02734 4.91015m5.02734-4.91016l2.33594.74219m11.36328-.27344l-5.79687 3.97266m5.79687-3.97266l2.17578 1.13672m11.01953-1.30078l-5.55468 4.30078m5.55468-4.30078l2.23828 1.00781m-3.04687-.38281l1.1211.5039m12.8203-1.34375L314.5 429.4336m5.1914-4.73047l2.3125.82422m-3.0664-.13672l1.15625.41407m12.73047-1.28907l-4.82813 5.10547m4.82813-5.10547l2.36719.65235m-3.07032.08984l1.1836.32422m13.2461-.60156l-5.64845 4.17578m5.64844-4.17578l2.21484 1.05469m10.96485-1.22657l-5.3789 4.51953m5.3789-4.51953l2.27734.91407m10.07813-1.71094L368.625 430.125m3.46094-6.11328l2.45312.0625m-2.95703.82812l1.22656.03125m10.7461-1.375l.23047 7.02344m-.23047-7.02344l2.1289-1.22265m-2.09375 2.24218l1.0625-.60937m14.90625.70703l-5.14453 4.78516m5.14453-4.78516l2.32032.80078m-3.06641-.10547l2.3164.8047m-3.0664-.10938l1.16016.40234m13.46875-1.97656l-4.78125 5.15234m4.78125-5.15234l2.37109.63281m-3.0664.11719l2.37109.6289m-3.0664.1211l1.1875.3164m12.46874-2.48828l-2.67969 6.4961m2.6797-6.4961l2.4414-.23828m-2.83203 1.1836l2.4414-.23829m-2.83203 1.1836l2.4414-.23828m12.8047-.88282l-4.98047 4.95703m4.98046-4.95703l2.34375.72266m-3.0703-.0039l2.34765.72265m-3.07031 0l1.17187.36328m13.76953-1.61328l-5.33594 4.57422m5.33594-4.57422l2.28516.89844m-3.0625-.23047l2.28515.89453m-3.05859-.23047l1.14063.44922m14.45312-.39063l-6.79297 1.79297"/><g clip-path="url(#ah)"><path fill="none" stroke="#000" stroke-linecap="round" stroke-linejoin="round" stroke-miterlimit="10" stroke-width=".5" d="M466.95703 426.17188l1.66797 1.80078"/></g><path fill="none" stroke="#000" stroke-linecap="round" stroke-linejoin="round" stroke-miterlimit="10" stroke-width=".5" d="M465.96875 426.4336l1.66797 1.80077"/><g clip-path="url(#ai)"><path fill="none" stroke="#000" stroke-linecap="round" stroke-linejoin="round" stroke-miterlimit="10" stroke-width=".5" d="M147.19922 415.20703l-6.39844-2.91015"/></g><path fill="none" stroke="#000" stroke-linecap="round" stroke-linejoin="round" stroke-miterlimit="10" stroke-width=".5" d="M147.19922 415.20703l.14844 2.44922m13.23437-2.60938l-6.53125-2.58984m6.53125 2.58985l.26953 2.4414m12.79688-1.9375l-6.03906-3.59375m6.03906 3.59375L173.53125 418m13.82031-3.39063l-6.8125-1.71093m6.8125 1.71094l.58985 2.3828m12.78906-3.80077l-6.9375 1.125m6.9375-1.125l1.48047 1.95312m11.8789-1.36328l-7.02734-.05469m6.0039.04688l.56641 1.08594m13.21875.78515l-5.92187-3.78515m5.0586 3.23437l-.09767 1.22266m13.37891.28125l-4.1289-5.6875m3.52734 4.85937l-.53516 1.10156m15.53516-4.67968l-6.29688 3.12109m5.38282-2.66406l.99609.71484m12.39453-2.25781l-4.61719 5.29687m3.94532-4.52734l1.1953.27734m13.1797-.64843l-5.39453 4.5m5.39453-4.5l2.27343.92578m10.23438-1.64063l-3.77734 5.92578m3.22656-5.0625l1.22265.09766m13.8047.26172l-6.10157 3.48437m6.10156-3.48437l2.07422 1.3086m11.29688-1.20704l-6.21485 3.28125m6.21485-3.28125l2.03125 1.3789m10.54296-2.33593l-4.73437 5.19531m4.73437-5.19531l2.37891.60937m-3.0664.14454l1.1875.30468m12.48437-1.32422l-4.07422 5.72657m4.07422-5.72657l2.4336.31641m12.22265 1.57813l-6.7539 1.9375m6.7539-1.9375l1.70312 1.76562m11.57422-1.89453l-6.67578 2.19531m6.67578-2.19531l1.76953 1.69531m-2.74218-1.3789l1.76953 1.69921m11.84375-3.20703l-5.32813 4.57813m5.32813-4.57813l2.28515.89063m-3.05859-.22656l2.28516.89453m-3.0625-.22657l1.14453.44532m14.08984-1.26172l-6.0664 3.54687m6.0664-3.54687l2.08594 1.28906m-2.96875-.77344l2.08984 1.28907m11.60547-2.46875l-5.0625 4.875m5.0625-4.875l2.33203.76171m-3.0664-.05078l2.33203.76172m-3.07031-.05469l2.33203.76172m12.16015-2.45312l-4.47265 5.42187m4.47265-5.42187l2.40625.48828m-3.05468.30078l2.40234.48828m-3.05469.30078l1.20313.2461m14.22656-.86328l-6.09766 3.5m6.09766-3.5l2.07422 1.30468m-2.96094-.79687l2.07422 1.3086m-2.96094-.79688l1.03516.65234m13.98437-1.78125l-5.96093 3.71875m5.96093-3.71875l2.125 1.23047m-2.99218-.6875l2.125 1.22656m-2.9922-.6875l1.0625.61328m14.35548-.90234l-6.69532 2.13281"/><g clip-path="url(#aj)"><path fill="none" stroke="#000" stroke-linecap="round" stroke-linejoin="round" stroke-miterlimit="10" stroke-width=".5" d="M466.91016 412.6875l1.7539 1.71484"/></g><path fill="none" stroke="#000" stroke-linecap="round" stroke-linejoin="round" stroke-miterlimit="10" stroke-width=".5" d="M465.9336 413l1.7578 1.71484m-2.73046-1.40625l.8789.85547"/><g clip-path="url(#ak)"><path fill="none" stroke="#000" stroke-linecap="round" stroke-linejoin="round" stroke-miterlimit="10" stroke-width=".5" d="M146.8789 402.45313l-5.7578-4.02735"/></g><path fill="none" stroke="#000" stroke-linecap="round" stroke-linejoin="round" stroke-miterlimit="10" stroke-width=".5" d="M146.8789 402.45313l-.29687 2.43359m13.71484-2.58985l-5.96484-3.71484m5.96484 3.71485l-.16796 2.4453m13.60156-2.64843l-6.19922-3.3086m6.19922 3.3086l-.0039 2.45313m13.71484-3.76954l-6.9922-.67968m6.9922.67968l.9375 2.26954m12.3789-2.27735l-6.9961-.66015m5.98048.5625l.46875 1.1328m12.11719-4.41015l-3.50782 6.08985m3-5.20313l1.22656.03906m14.10938 3.41016l-6.53516-2.58203m6.53516 2.58203l.27734 2.4375m12.82422-1.99219l-6.10547-3.47656m5.21875 2.97265l-.03515 1.22657m14.51953-3.57031l-6.66797 2.22265m5.69531-1.89844l.89063.84375m13.47656-.8828l-6.82813 1.65233m6.82813-1.65234l1.6289 1.83203m11.76563-.64453l-6.98828-.72656m6.98828.72656l.92188 2.27735m12.24609-3.70704l-6.69531 2.13282m6.69531-2.13282l1.75781 1.71485m11.71485-.90235l-7.00782.51172m7.00782-.51172l1.30468 2.07422m-2.32421-2l.65234 1.03906m13.67578-1.17187l-6.9961.625m6.9961-.625l1.33984 2.0586m10.71094-4.45704l-4.46484 5.42578m4.46484-5.42578l2.40235.48438m12.1914 2.1211l-7.02344.21093m6-.17969l.60938 1.0664m13.61719-.10546l-6.80079-1.76953m5.8125 1.51172l.28516 1.1914m14.02344-2.6875l-6.8086 1.73438m6.8086-1.73438l1.64844 1.8164m10.40234-3.73437l-4.28516 5.57032m4.28516-5.57032l2.42188.41016m-3.04297.40234l2.41796.40625m12.71094.45704l-6.66797 2.21875m6.66797-2.21875l1.77735 1.6953m-2.7461-1.37109l.88672.84766m13.4375-1.03906l-6.75 1.95703m6.75-1.95703l1.71094 1.76172m-2.6914-1.47657l.85156.87891m13.125-1.92188l-6.11329 3.46875m6.11329-3.46875l2.0703 1.31641m-2.95702-.8086l2.0703 1.31641m12.33595-1.40234l-6.51954 2.625m6.51954-2.625l1.8789 1.57813m-2.82812-1.19532l1.8789 1.57813m-2.82812-1.19531l.9414.78906m14.28125-1.52344l-6.53906 2.5664m6.53906-2.5664l1.8672 1.59375m-2.81641-1.22266l1.86328 1.59766m-2.8164-1.22266l.93358.79688m14.22266-1.6914l-6.41797 2.85937"/><g clip-path="url(#al)"><path fill="none" stroke="#000" stroke-linecap="round" stroke-linejoin="round" stroke-miterlimit="10" stroke-width=".5" d="M466.76953 399.00781l1.9336 1.51172"/></g><g clip-path="url(#am)"><path fill="none" stroke="#000" stroke-linecap="round" stroke-linejoin="round" stroke-miterlimit="10" stroke-width=".5" d="M465.83594 399.42578l1.9336 1.50781"/></g><path fill="none" stroke="#000" stroke-linecap="round" stroke-linejoin="round" stroke-miterlimit="10" stroke-width=".5" d="M464.90234 399.83984l.96875.75782"/><g clip-path="url(#an)"><path fill="none" stroke="#000" stroke-linecap="round" stroke-linejoin="round" stroke-miterlimit="10" stroke-width=".5" d="M146.77734 389.27734l-5.55468-4.30468"/></g><path fill="none" stroke="#000" stroke-linecap="round" stroke-linejoin="round" stroke-miterlimit="10" stroke-width=".5" d="M146.77734 389.27734l-.41797 2.41797m14.02344-2.85547l-6.13281-3.43359m6.13281 3.4336l-.05469 2.45312m13.81641-4.14844l-7.02734-.04297m7.02734.04297l1.13672 2.17578m11.17578-4.65234l-5.02344 4.91015m4.29297-4.1953l1.16797.37109m12.13672-1.66407l-3.54297 6.06641m3.02734-5.1836l1.22657.04688m14.17969 3.17578l-6.69141-2.14453m6.6914 2.14453l.4336 2.41406m12.89844-2.46875l-6.72657-2.03515m6.72657 2.03515l.47265 2.40625m12.96485-3.87109l-6.97266.89453m6.97266-.89453l1.41797 2.0039m11.83984-2.3164l-6.85938 1.51953m6.85938-1.51953l1.59375 1.86719m11.6914-2l-6.79687 1.78515m6.79688-1.78515l1.66406 1.80078m11.63281-1.86719l-6.76172 1.92188m5.77735-1.64453l.85156.88671m13.53906.32813l-6.94531-1.0664m5.9375.91406l.40234 1.15625m13.96094-1.41797l-7.02344-.23828m7.02344.23828l1.07812 2.20312m12.23829-2.4375l-7.02344.23047m7.02344-.23047l1.21875 2.1289m-2.2422-2.09374l.60938 1.0625m13.40625-2.45313l-6.38281 2.94141m6.38281-2.9414l1.95313 1.48437m11.48828-1.17578l-6.63281 2.32422m5.66796-1.98438l.90235.82813m13.3711-1.1797l-6.6211 2.34767m6.6211-2.34766l1.8125 1.65625m11.47265-1.7461l-6.5586 2.52735m6.5586-2.52735l1.85156 1.60938m-2.8086-1.24219l1.85548 1.60938m12.15625-2.50781l-6.03907 3.59375m6.03907-3.59375l2.09765 1.26953m-2.97656-.75l1.04688.63671m13.33984-.78125l-6.42578 2.83985m6.42578-2.83985l1.92969 1.51563m-2.86329-1.10156l.96485.75781m13.16406-1.42188l-6.1836 3.33985m6.1836-3.33985l2.04297 1.35938m-2.94531-.875l1.02344.67969m13.03515-1.42578l-5.86719 3.86328m5.8672-3.86328l2.15233 1.17578m-3.0078-.61328l1.07812.58593m13.41797-.53125l-6.51954 2.62891m6.51954-2.6289l1.8789 1.58202m-2.82812-1.19921l.9375.78906m13.44531-.82031l-6.75781 1.92578m6.75781-1.92578l1.70313 1.76953m-2.6875-1.48828l.85156.8828m13.45703-1.14062l-6.77344 1.87891"/><g clip-path="url(#ao)"><path fill="none" stroke="#000" stroke-linecap="round" stroke-linejoin="round" stroke-miterlimit="10" stroke-width=".5" d="M466.94922 386.1836l1.6875 1.78124"/></g><path fill="none" stroke="#000" stroke-linecap="round" stroke-linejoin="round" stroke-miterlimit="10" stroke-width=".5" d="M465.96094 386.45703l1.6914 1.78125"/><g clip-path="url(#ap)"><path fill="none" stroke="#000" stroke-linecap="round" stroke-linejoin="round" stroke-miterlimit="10" stroke-width=".5" d="M147.29688 375.02734l-6.59375-2.4375"/></g><path fill="none" stroke="#000" stroke-linecap="round" stroke-linejoin="round" stroke-miterlimit="10" stroke-width=".5" d="M147.29688 375.02734l.32812 2.4297m12.55078-1.60548l-5.71875-4.08594m5.71875 4.08594l-.32422 2.42969m14.13672-5.50781l-6.71484 2.07031m6.71484-2.07031l1.73828 1.73047m10.53906-3.33594l-4.64062 5.28125m4.64063-5.28125l2.38671.5664m10.96094-.53515l-4.70312 5.21875m4.70312-5.21875l2.3789.59375m12.08595 2.30469l-7.00391-.57813m7.0039.57813l.96875 2.2539m-1.98828-2.33984l.48438 1.1289m13.83594-.92187l-6.97657-.82031m6.97657.82031l.89062 2.28906m-1.90625-2.40625l.44531 1.14063m13.91016-1.35547l-7.02734-.15625m7.02734.15625l1.10156 2.1914m-2.125-2.21484l.55078 1.09766m13.76953-1.52735l-6.98828.75m6.98828-.75l1.375 2.03125m-2.39453-1.92187l.69141 1.01562m13.65625-.53515l-7.01563-.42969m7.01563.42969l1.01563 2.23047m-2.03907-2.29297l.51172 1.11719m13.8164-.91797l-6.99218-.70313m6.99219.70313l.92969 2.26953m-1.94922-2.3711l.46484 1.13282m13.88281-1.47266l-7.02344.17578m7.02344-.17578l1.20703 2.14063m-2.22656-2.11329l.60156 1.07032m13.73047-1.1875l-7.01562.35546m7.01562-.35546l1.26172 2.10546m-2.28125-2.05078l.6289 1.05079m13.6836-1.3672l-6.97265.87891m6.97265-.8789l1.41406 2.00781m11.91797-1.28125l-7.0039-.57031m7.0039.57031l.97266 2.25m12.34765-2.75781l-7.01562.44531m7.01563-.44531l1.28515 2.08594m12.03516-1.90625l-7.02735.08203m7.02735-.08204l1.17578 2.15235m-2.19922-2.14063l.58984 1.07813m13.7422-1.2461l-7.01563.39844m7.01562-.39844l1.27344 2.09375m-2.29297-2.03515l.63672 1.04687m13.625-1.65625l-6.86719 1.5m6.86719-1.5l1.58594 1.8672m-2.58594-1.64845l.79297.9336m13.33594-1.7461l-6.4961 2.6836m6.4961-2.6836l1.89062 1.5625m11.3125-1.80078l-6.27344 3.16406m6.27344-3.16406l2.0039 1.41406m10.69141-2.28515l-5.03125 4.90625m5.03125-4.90625l2.33594.7461m11.23047-.45704l-5.53516 4.32813m5.53516-4.32813l2.24219.9961m-3.04688-.3672l1.1211.5m13.45312-.36718l-6.44531 2.80469m6.44531-2.80469l1.92188 1.52734m11.59765-.89453l-6.85547 1.53906"/><g clip-path="url(#aq)"><path fill="none" stroke="#000" stroke-linecap="round" stroke-linejoin="round" stroke-miterlimit="10" stroke-width=".5" d="M466.98828 373.03906l1.60156 1.85938"/></g><path fill="none" stroke="#000" stroke-linecap="round" stroke-linejoin="round" stroke-miterlimit="10" stroke-width=".5" d="M465.99219 373.26172l.80078.92969"/><g clip-path="url(#ar)"><path fill="none" stroke="#000" stroke-linecap="round" stroke-linejoin="round" stroke-miterlimit="10" stroke-width=".5" d="M147.51172 360.36719l-7.02344.2539"/></g><path fill="none" stroke="#000" stroke-linecap="round" stroke-linejoin="round" stroke-miterlimit="10" stroke-width=".5" d="M147.51172 360.36719l1.23047 2.125m-2.2539-2.08985l.61718 1.0625m13.66406-.33593l-6.91016-1.26954m6.91016 1.26954l.74219 2.33984m12.625-2.7539l-7.01172-.44141m7.01172.4414l1.01562 2.23438m-2.03515-2.30078l.50781 1.11719m13.66016-2.3672l-6.6797 2.19141m6.6797-2.1914l1.76953 1.69531m11.53906-1.70703l-6.66797 2.21484m6.66797-2.21484l1.77734 1.6914m-2.74609-1.37109l.88672.84766m13.53516.48828l-6.94141-1.10156m6.9414 1.10156l.79688 2.32031m-1.8086-2.48047l.39844 1.16016m13.94532-1.14063l-6.97657-.8164m6.97657.8164l.89453 2.28516m-1.91016-2.40625l.44922 1.14453m13.84375-.76953l-6.90234-1.32422m6.90234 1.32422l.72266 2.34375m12.6289-2.57422l-6.97265-.86719m6.97265.8672l.875 2.29296m12.46485-2.82422l-7.02344.19531m7.02344-.1953l1.21093 2.13671m12.10547-2.08203l-7.02734.08594m7.02734-.08594l1.17969 2.15234m12.07422-1.46094l-6.90625-1.29687m6.90625 1.29688l.73437 2.33984m12.52344-2.08203l-6.78906-1.8125m6.78906 1.8125l.55469 2.39062m-1.54297-2.65234l.27734 1.19531m14.13282-1.54297l-7.00391-.58984m7.0039.58984l.96485 2.2539m-1.98437-2.33983l.48437 1.125m13.86328-1.38282l-7.02734.09766m7.02734-.09766l1.17969 2.14844m11.94531-.96094l-6.64844-2.28125m6.64844 2.28125l.38281 2.42578m13.1172-3.39843l-7.01954-.33594m7.01953.33594l1.04688 2.21875m-2.06641-2.26563l.52344 1.10938m13.80078-1.53125l-7 .60546m7-.60546l1.33594 2.05859m-2.35157-1.97266l1.33204 2.0586m12.76171-3.14844l-6.52343 2.61328m6.52343-2.61328l1.875 1.58203m-2.82421-1.20312l1.875 1.58203m12.27734-2.20703l-6.30078 3.10546m6.30078-3.10546l1.99219 1.43359m-2.90625-.98438l.99218.71875m13.31641-.99609l-6.46094 2.75781m6.46094-2.7578l1.91016 1.54296m-2.84766-1.14063l.95313.76954m13.3203-1.1211l-6.5039 2.66016m6.5039-2.66016l1.88673 1.5664m-2.83203-1.17968l.9453.78516m13.3086-1.1914l-6.48828 2.69921m6.48828-2.69922l1.89453 1.5586m-2.83984-1.16797l.94922.78125m13.41406-.89063l-6.69531 2.13281m6.69531-2.1328l1.7539 1.71483m-2.72656-1.40234l.875.85547m13.35157-1.34766l-6.57032 2.4961"/><g clip-path="url(#as)"><path fill="none" stroke="#000" stroke-linecap="round" stroke-linejoin="round" stroke-miterlimit="10" stroke-width=".5" d="M466.84766 359.2461l1.84375 1.61718"/></g><path fill="none" stroke="#000" stroke-linecap="round" stroke-linejoin="round" stroke-miterlimit="10" stroke-width=".5" d="M465.89063 359.60938l.92187.80859"/><g clip-path="url(#at)"><path fill="none" stroke="#000" stroke-linecap="round" stroke-linejoin="round" stroke-miterlimit="10" stroke-width=".5" d="M147.49219 346.79297l-6.98438.76953"/></g><path fill="none" stroke="#000" stroke-linecap="round" stroke-linejoin="round" stroke-miterlimit="10" stroke-width=".5" d="M147.49219 346.79297l1.38281 2.02734m11.9414-1.35937l-7.0039-.5664m7.0039.5664l.97657 2.25m-1.9961-2.33203l.48829 1.125m13.5.22265l-6.3086-3.09765m6.3086 3.09765l.07812 2.45313m-.9961-2.90235l.03907 1.22657m14.55078-2.2422l-7.02344-.16796m7.02344.16797l1.10156 2.1914m12.20313-2.57812l-7 .60547m7-.60547l1.33203 2.0586m11.98438-1.47266l-7.00391-.5625m7.0039.5625l.97266 2.25m12.33594-2.17188l-6.99219-.72265m6.99219.72265l.92187 2.27344m12.15625-1.32031l-6.51953-2.6289m6.51953 2.6289l.25782 2.4414m13.1875-2.83593l-6.78125-1.83985m6.78125 1.83985l.54687 2.39062m12.8789-3.00781l-7-.60547m7 .60547l.96094 2.25781m-1.98046-2.34765l.48047 1.1289m13.86328-1.47265l-7.01953.26171m7.01953-.26171l1.23437 2.12109m11.98438-1.16016l-6.82813-1.66015m6.82813 1.66015l.60937 2.3789m-1.60156-2.62108l.30469 1.1914m13.97265-.83594l-6.76562-1.88671m6.76562 1.88671l.52735 2.39844m-1.51172-2.67187l.26562 1.19921m14.15235-1.59765l-7.00391-.54297m7.0039.54297l.98048 2.25m-2-2.32813l.49218 1.125m13.76563-2.10937l-6.84766 1.58203m6.84766-1.58203l1.60937 1.85156m-2.60547-1.6211l.8047.92579m13.55077.1914l-6.9375-1.11328m6.9375 1.11329l.79297 2.3203m-1.80078-2.48046l.39453 1.16015m13.82422-.55078l-6.73047-2.0078m6.73047 2.0078l.48828 2.40235m-1.46484-2.69531l.48437 2.40625m13.92578-2.66797l-6.96875-.89844m6.96875.89844l.8672 2.29296m-1.87891-2.42578l.86328 2.29688m-1.87891-2.42578l.4336 1.14844m14.88671-1.94141l-6.92187 1.20703m6.92187-1.20703l1.50782 1.9375M386.125 346.75l1.50781 1.9375m-2.51562-1.76172l.7539.96875m14.19922-2.39844l-6.16797 3.36329m6.16797-3.36329l2.05078 1.35157m-2.94921-.86329l2.05078 1.35157m-2.94532-.85938l1.02344.67188m14.23047-1.35547l-6.45703 2.77344m6.45703-2.77344l1.91016 1.53515m-2.85157-1.1328l1.91407 1.53515m-2.85157-1.13281l.95704.76953m14.36718-1.21094l-6.72265 2.04297m6.72265-2.04297l1.73438 1.73828M426 346.45313l1.73047 1.73828m12.60547-1.88672l-6.8086 1.7461m6.8086-1.7461l1.65234 1.8164m-2.64453-1.5625L441 348.375m12.65234-2.0625l-6.8125 1.73047m6.8125-1.73047l1.64844 1.8164m-2.64062-1.5664l1.65234 1.8164m12.57422-2.33984l-6.64844 2.27735"/><g clip-path="url(#au)"><path fill="none" stroke="#000" stroke-linecap="round" stroke-linejoin="round" stroke-miterlimit="10" stroke-width=".5" d="M466.88672 346.03906l1.78906 1.67969"/></g><path fill="none" stroke="#000" stroke-linecap="round" stroke-linejoin="round" stroke-miterlimit="10" stroke-width=".5" d="M465.91797 346.3711l1.79297 1.67577"/><g clip-path="url(#av)"><path fill="none" stroke="#000" stroke-linecap="round" stroke-linejoin="round" stroke-miterlimit="10" stroke-width=".5" d="M147.20703 332.42578l-6.41406 2.875"/></g><path fill="none" stroke="#000" stroke-linecap="round" stroke-linejoin="round" stroke-miterlimit="10" stroke-width=".5" d="M146.27344 332.84375l.96875.7539m13.30078 1.64844l-6.45703-2.76562m5.51953 2.36328l.10156 1.22266m13.90625-.34766l-5.96484-3.71094m5.96484 3.71094l-.16797 2.44922m-.69922-2.98828l-.08593 1.22265m14.79687-2.46484l-7.02344-.14844m7.02344.14844l1.10547 2.1914m11.60938-.29687l-5.82422-3.9375m4.97656 3.36328l-.1289 1.21875m14.8789-2.30469l-7-.61718m7 .61719l.95703 2.26171m12.3711-2.71093l-7.02344.28125m7.02343-.28125l1.23438 2.12109m12.07031-2.28906l-7 .61719m7-.6172l1.33594 2.0547m11.97266-2.10547l-6.9922.71484m6.9922-.71484l1.36718 2.03906m11.96485-1.83203l-7.02344.30469m7.02344-.3047l1.24218 2.11329m-2.26562-2.07031l.6211 1.05859m13.70702-.66797l-7.0039-.5625m7.0039.5625l.97657 2.25m-1.9961-2.33203l.48828 1.125m13.81641-1.85156l-6.94531 1.05469m6.94531-1.0547l1.46484 1.96876m11.85157-1.98438l-6.94532 1.08594m6.94532-1.08594l1.46875 1.96485m11.62109-.08204l-6.4961-2.67968m6.4961 2.67969l.23828 2.4414m-1.1836-2.83203l.23829 2.4414m14.2539-2.90624l-6.96093-.96875m6.96094.96875l.84375 2.30468m-1.85547-2.4453l.42187 1.15233m13.9375-1.5664l-7.02344.13672m7.02344-.13672l1.19531 2.14453m12.10157-2.45313l-6.98828.75782m6.98828-.75781l1.3789 2.02734m11.91407-1.10156l-6.94141-1.09375m6.9414 1.09375l.79688 2.3203m-1.8086-2.48046l.40235 1.16016m13.92578-2.07813l-6.94531 1.0625m6.94531-1.0625l1.46485 1.96875m-2.47657-1.8125l.73438.98047m13.625-.8086l-7.01172.40235m7.01172-.40234l1.27734 2.09765m-2.29687-2.03906l.63672 1.05078m13.5-2.08984l-6.6172 2.36328m6.6172-2.36328l1.8125 1.65625m-2.77344-1.3125l.90625.82812m13.45312-.89844l-6.78515 1.82032m6.78515-1.82031l1.67578 1.79296m-2.66015-1.53125l1.67187 1.79688m-2.66015-1.53125l.83593.89844m14.41016-1.57032l-6.69922 2.10938m6.69922-2.10938l1.75 1.71875m-2.72266-1.41406l1.75 1.72266m-2.72656-1.41406l.875.85937m14.42578-1.35547l-6.77343 1.875m6.77343-1.875l1.6875 1.77735m-2.67187-1.50391l1.6875 1.77734m-2.67578-1.50781l.84765.89063m14.36719-1.66407l-6.6289 2.33594"/><g clip-path="url(#aw)"><path fill="none" stroke="#000" stroke-linecap="round" stroke-linejoin="round" stroke-miterlimit="10" stroke-width=".5" d="M466.875 332.69531l1.8086 1.66016"/></g><path fill="none" stroke="#000" stroke-linecap="round" stroke-linejoin="round" stroke-miterlimit="10" stroke-width=".5" d="M465.91016 333.03516l1.80859 1.66015m-2.77344-1.32031l.90625.83203"/><g clip-path="url(#ax)"><path fill="none" stroke="#000" stroke-linecap="round" stroke-linejoin="round" stroke-miterlimit="10" stroke-width=".5" d="M140.60156 321.4336l6.79688-1.77344"/></g><path fill="none" stroke="#000" stroke-linecap="round" stroke-linejoin="round" stroke-miterlimit="10" stroke-width=".5" d="M154.82422 323.02734l4.98047-4.95703m-4.2539 4.23438l-1.17188-.35938m17.03125 2.02735l-1.5586-6.85157m1.5586 6.85157l-1.85938 1.60546m16.61719-2.30859l-4.44531-5.44531m4.4453 5.44531l-.95312 2.26172m14.5-2.46875l-4.91015-5.02734m4.91015 5.02734l-.74609 2.33594m14.6289-3.0586l-6.04296-3.58593m6.04297 3.58593l-.11328 2.45313m13.83203-3.46094l-6.85157-1.5664m6.85157 1.5664l.63672 2.36719m-1.63282-2.59375l.3164 1.1836m14.06642-1.39844l-6.9961-.6836m6.9961.6836l.93359 2.26562m-1.95313-2.36719l.46875 1.13672m13.875-1.57031l-7.01562.38281m7.01562-.38281l1.26953 2.10156m-2.28906-2.04687l.63281 1.05078m13.69922-1.14063l-7.01172.45313m7.01172-.45313l1.29297 2.08985m-2.3125-2.02344l.64453 1.04297m13.69532-1.01953l-7.01954.27734m7.01954-.27734l1.23828 2.11718m-2.25781-2.07812l.61718 1.0586m13.71875-1.0625l-7.02343.20312m7.02343-.20313l1.21485 2.13281m-2.23438-2.10156l.60547 1.0664m13.6289-1.83983l-6.8203 1.6914m6.8203-1.6914l1.64063 1.82421m11.64063-.0078l-6.75391-1.94532m6.7539 1.94531l.50391 2.40235m-1.48828-2.6836l.2539 1.19922m14.15626-1.46484l-6.97656-.84766m6.97656.84766l.88281 2.28906m-1.89844-2.41406l.4414 1.14453m13.79298-.53125l-6.78516-1.82813m6.78516 1.82813l.55078 2.39453m12.88672-3.3086h-7.02735m6.00391 0l.57813 1.08594m13.62109-2.07031l-6.7461 1.96875m5.76172-1.67969l.85938.875m13.19922-1.76953l-6.26563 3.17969m6.26563-3.17969l2.00781 1.41016m-2.91797-.94531l1.0039.70312m13.35548-.86328l-6.53516 2.57422m6.53516-2.57422l1.86718 1.59375m11.69141-.17578l-7.02344-.26563m13.92578 2.11719l5.80079-3.96875m10.97656-1.48438l-1.1211 6.9375m1.1211-6.9375l2.32031-.78906m12.73047 1.60156l-4.59375 5.31641m4.59375-5.3164l2.39453.54296m11.46875.05079l-5.6875 4.1289"/><g clip-path="url(#ay)"><path fill="none" stroke="#000" stroke-linecap="round" stroke-linejoin="round" stroke-miterlimit="10" stroke-width=".5" d="M466.40625 318.48438l2.20313 1.07421"/></g><g clip-path="url(#az)"><path fill="none" stroke="#000" stroke-linecap="round" stroke-linejoin="round" stroke-miterlimit="10" stroke-width=".5" d="M465.57813 319.08594l2.20312 1.07422"/></g><path fill="none" stroke="#000" stroke-linecap="round" stroke-linejoin="round" stroke-miterlimit="10" stroke-width=".5" d="M464.75 319.6836l1.10156.53906"/><path fill="#00f" fill-rule="evenodd" d="M232.89453 467.64844h8.6211V457.5039h-8.6211v10.14453"/><path fill="azure" fill-rule="evenodd" d="M234.73047 459.33594h.83203v2.82422h3.28516v-2.82422h.83593v6.48047h-.83593v-2.91797h-3.28516v2.91797h-.83203v-6.48047"/><path fill="#ff3030" fill-rule="evenodd" d="M442.1914 467.64844h7.69532V457.5039h-7.69531v10.14453"/><path fill="azure" fill-rule="evenodd" d="M444.02734 459.33594h.83204v5.73828h3.1953v.74219h-4.02734v-6.48047"/><path fill="#ff3030" fill-rule="evenodd" d="M264.66016 441.01953h7.6914V430.8711h-7.6914v10.14844"/><path fill="azure" fill-rule="evenodd" d="M266.49219 432.70703h.83203v5.73828h3.19531v.73828h-4.02734v-6.47656"/><path fill="#00f" fill-rule="evenodd" d="M290.59375 432.14063h8.6211v-10.14454h-8.6211v10.14454"/><path fill="azure" fill-rule="evenodd" d="M292.42969 423.82813h.83203v2.82421h3.28515v-2.82421h.83204v6.48046h-.83204v-2.91796h-3.28515v2.91796h-.83203v-6.48046"/><path fill="#ff3030" fill-rule="evenodd" d="M326.79688 432.14063h7.6914v-10.14454h-7.6914v10.14454"/><path fill="azure" fill-rule="evenodd" d="M328.6289 423.82813h.83204v5.73828h3.19531v.74218h-4.02734v-6.48046"/><path fill="#00f" fill-rule="evenodd" d="M383.80078 432.14063h8.61719v-10.14454h-8.61719v10.14454"/><path fill="azure" fill-rule="evenodd" d="M385.63281 423.82813h.83203v2.82421h3.28907v-2.82421h.83203v6.48046h-.83203v-2.91796h-3.28907v2.91796h-.83203v-6.48046"/><path fill="#ff3030" fill-rule="evenodd" d="M189.20703 418.82813h7.6914v-10.14844h-7.6914v10.14844"/><path fill="azure" fill-rule="evenodd" d="M191.03906 410.51172h.83594v5.74219h3.1914v.73828h-4.02734v-6.48047"/><path fill="#00f" fill-rule="evenodd" d="M224.01953 418.82813h8.61719v-10.14844h-8.61719v10.14844"/><path fill="azure" fill-rule="evenodd" d="M225.85156 410.51172h.83594v2.82422h3.28516v-2.82422h.83203v6.48047h-.83203v-2.91406h-3.28516v2.91406h-.83594v-6.48047"/><path fill="#ff3030" fill-rule="evenodd" d="M286.85156 401.07422h7.6914v-10.14844h-7.6914v10.14844"/><path fill="azure" fill-rule="evenodd" d="M288.6836 392.76172h.83202V398.5h3.19532v.73828h-4.02735v-6.47656"/><path fill="#ff3030" fill-rule="evenodd" d="M189.20703 361.1289h7.6914v-10.14843h-7.6914v10.14844"/><path fill="azure" fill-rule="evenodd" d="M191.03906 352.8164h.83594v5.73829h3.1914v.73828h-4.02734v-6.47656"/><path fill="#ffffe0" fill-rule="evenodd" d="M341.74219 375.88672h22.1836v-10.1914h-22.1836v10.1914"/><path fill-rule="evenodd" d="M345.24219 367.52734h.51172v6.29297h-.78907v-4.48828h-1.38671v-.55469l.55859-.0664.2539-.05469.22657-.08984.20312-.14063.17578-.20703.14063-.29688.10547-.39453m4.8164 0l.22657.01954.21875.05468.21093.08985.19532.12109.18359.14844.17188.17578.30078.42187.24218.4922.1797.54687.11327.57812.03906.58985-.03906.59375-.11328.58593-.17969.55469-.24218.5-.30079.42969-.17187.17969-.1836.15234-.1953.1211-.21094.09374-.21875.0586-.22657.01953-.23046-.01953-.21875-.0586-.20704-.09375-.19921-.1211-.1836-.15233-.17187-.1797-.30079-.42968-.24218-.5-.17969-.55469-.11328-.58594-.03906-.59375h.83593l.02735.5625.08203.50782.125.4414.16406.375.1914.30079.21094.22265.22266.13672.22656.04688.22657-.04688.22265-.13672.21094-.22265.1875-.30079.16406-.375.125-.4414.08203-.50781.03125-.5625-.03125-.5586-.08203-.5-.125-.4375-.16406-.36719-.1875-.28906-.21094-.21484-.22265-.13281-.22657-.04297-.22656.04296-.22265.13282-.21094.21484-.1914.28906-.16407.3672-.125.4375-.08203.5-.02735.55858h-.83593l.03906-.58984.11328-.57812.17969-.54688.24219-.49219.30078-.42187.17187-.17578.1836-.14844.19921-.1211.20704-.08984.21875-.05469.23046-.01953m5.08985 0h.50781v6.29297h-.78516v-4.48828h-1.39062v-.55469l.5625-.0664.25-.05469.23047-.08984.20312-.14063.17578-.20703.14063-.29688.10547-.39453m2.82422 2.17579h.78515l.01953-.31641.0586-.28516.10156-.2539.14063-.21485.17968-.17578.22266-.1289.26562-.07813.3086-.02734.23828.01953.22265.0625.20313.10156.17969.14063.14844.17187.11328.20703.07421.23438.02344.26562-.01953.26953-.0664.22266-.10938.1914-.15625.17188-.20313.16406-.24609.16406-.63281.39063-.53906.3125-.4375.3164-.34375.32423-.26563.33593-.1914.35156-.125.3672-.06641.39452-.02344.41797h4.21485v-.73828h-3.33594l.08594-.28515.11328-.23829.14843-.19921.1875-.1797.23047-.17187.27735-.17578.71875-.41797.41406-.20312.34375-.23047.28125-.2539.22265-.26563.16016-.27735.11328-.28515.0625-.28516.01953-.28125-.03906-.38281-.1211-.34766-.1914-.3086-.25-.26171-.30078-.21484-.34766-.15625-.3789-.09766-.40625-.03516-.4336.03125-.39843.10157-.35547.16406-.30469.23437-.25.3047-.1836.375-.11718.4453-.03906.51954"/><path fill="#ffffe0" fill-rule="evenodd" d="M319.55078 329.8711h22.1836v-10.19141h-22.1836v10.1914"/><path fill-rule="evenodd" d="M323.05078 321.51172h.51172v6.29297h-.78906v-4.48828h-1.38672v-.5547l.5586-.0664.25-.05469.23046-.08984.20313-.14062.17578-.21094.14062-.29297.10547-.39453m4.8125 0l.23047.01953.21875.05469.21094.08984.19531.1211.1836.14843.17187.17578.30078.41797.24219.4961.17969.54687.11328.57813.03906.58984-.03906.59375-.11329.58594-.17968.55469-.24219.5-.30078.42968-.17188.17969-.18359.15234-.19531.1211-.21094.09375-.21875.0586-.23047.01952-.22656-.01953-.21875-.0586-.21094-.09374-.19531-.1211-.1836-.15234-.17187-.17969-.30078-.42969-.24219-.5-.17969-.55468-.11328-.58594-.03906-.59375h.83594l.02734.5625.08203.50781.125.4414.16406.375.19141.30079.21094.22266.22265.13671.22266.04688.22656-.04688.22266-.13671.21094-.22266.1914-.30078.16407-.375.125-.4414.08203-.50782.02734-.5625-.02734-.5586-.08203-.5039-.125-.4336-.16407-.36718-.1914-.28906-.21094-.21485-.22266-.13281-.22656-.04297-.22265.04297-.22266.13281-.21094.21485-.1914.28906-.16407.36719-.125.43359-.08203.5039-.02734.5586h-.83594l.03906-.58984.11328-.57813.1797-.54687.24218-.4961.30078-.41797.17188-.17578.18359-.14844.19531-.12109.21094-.08984.21875-.05469.22656-.01953m5.09375 0h.50781v6.29297h-.78515v-4.48828h-1.39063v-.5547l.5625-.0664.25-.05469.23047-.08984.20313-.14062.17578-.21094.14062-.29297.10547-.39453m6.80469 1.6211h-.78906l-.05079-.21485-.08203-.1836-.10546-.16015-.12891-.13281-.14844-.10157-.16015-.07421-.16797-.04688-.17188-.01172-.32812.03906-.28907.1211-.24609.19531-.20313.26953-.16015.33594-.11719.40625-.07031.46484-.02344.52735.1914-.20313.1836-.16015.1875-.1211.1836-.08984.1875-.0586.1953-.03906.39844-.02344.3086.03125.32031.09375.3164.15235.29298.22265.2578.28125.19923.35157.07031.19921.05469.21875.02734.23438.0039.2539-.78515.04298-.02734-.25782-.07813-.25-.1211-.23437-.16015-.21094-.19531-.17578-.21875-.14063-.24219-.08593-.2539-.03125-.25391.03125-.24219.08593-.21875.14063-.1914.17578-.16407.21094-.12109.23437-.07813.25-.02734.25781.02735.26172.07812.25.1211.23438.16406.21094.1914.17578.21875.13672.24219.08984.2539.03125.25391-.03125.24219-.08984.21875-.13672.19531-.17578.16016-.21094.1211-.23438.07812-.25.02734-.26171.78516-.04297-.03125.36718-.08985.375-.16015.35547-.22266.32813-.28906.28515-.16797.1172-.1914.10155-.20313.08594-.22656.0586-.23829.03906-.26171.01562-.28125-.01953-.26172-.04687-.23828-.07422-.21485-.10547-.19531-.13281-.17188-.15625-.15625-.1797-.13671-.19921-.11329-.22266-.10156-.24218-.14453-.53516-.08594-.59375-.02734-.64063.03906-.74218.11328-.66406.1875-.57813.1211-.2539.13672-.23438.15234-.20703.16797-.17969.1875-.15625.20312-.1289.21875-.10157.23047-.07422.25-.04297.26172-.01562.36328.03125.33203.09765.29688.15235.25781.19922.21094.23828.16406.27734.11719.30078.0625.32422"/></g></defs><use xlink:href="#aA"/></svg>