<svg xmlns="http://www.w3.org/2000/svg" role="img" xmlns:xlink="http://www.w3.org/1999/xlink" viewBox="142.45 309.95 326.84 171.84"><defs><clipPath id="a"><path d="M144 438h1v42.32813h-1zm0 0"/></clipPath><clipPath id="b"><path d="M144 311.67188h1V434h-1zm0 0"/></clipPath><clipPath id="c"><path d="M144 311.67188h324v168.65625H144zm0 0"/></clipPath><clipPath id="d"><path d="M379 452h16v28.32813h-16zm0 0"/></clipPath><clipPath id="e"><path d="M467 311.67188h1v168.65625h-1zm0 0"/></clipPath><clipPath id="f"><path d="M144 479h4v1.32813h-4zm0 0"/></clipPath><clipPath id="g"><path d="M147 480h2v.32813h-2zm0 0"/></clipPath><clipPath id="h"><path d="M153 479h9v1.32813h-9zm0 0"/></clipPath><clipPath id="i"><path d="M160 480h3v.32813h-3zm0 0"/></clipPath><clipPath id="j"><path d="M166 479h9v1.32813h-9zm0 0"/></clipPath><clipPath id="k"><path d="M173 479h3v1.32813h-3zm0 0"/></clipPath><clipPath id="l"><path d="M172 480h2v.32813h-2zm0 0"/></clipPath><clipPath id="m"><path d="M180 479h8v1.32813h-8zm0 0"/></clipPath><clipPath id="n"><path d="M187 479h2v1.32813h-2zm0 0"/></clipPath><clipPath id="o"><path d="M193 480h9v.32813h-9zm0 0"/></clipPath><clipPath id="p"><path d="M200 480h3v.32813h-3zm0 0"/></clipPath><clipPath id="q"><path d="M206 479h9v1.32813h-9zm0 0"/></clipPath><clipPath id="r"><path d="M213 479h3v1.32813h-3zm0 0"/></clipPath><clipPath id="s"><path d="M220 479h8v1.32813h-8zm0 0"/></clipPath><clipPath id="t"><path d="M227 479h3v1.32813h-3zm0 0"/></clipPath><clipPath id="u"><path d="M233 479h8v1.32813h-8zm0 0"/></clipPath><clipPath id="v"><path d="M240 479h3v1.32813h-3zm0 0"/></clipPath><clipPath id="w"><path d="M246 479h9v1.32813h-9zm0 0"/></clipPath><clipPath id="x"><path d="M253 479h3v1.32813h-3zm0 0"/></clipPath><clipPath id="y"><path d="M260 479h8v1.32813h-8zm0 0"/></clipPath><clipPath id="z"><path d="M266 479h2v1.32813h-2zm0 0"/></clipPath><clipPath id="A"><path d="M273 479h8v1.32813h-8zm0 0"/></clipPath><clipPath id="B"><path d="M279 480h2v.32813h-2zm0 0"/></clipPath><clipPath id="C"><path d="M286 479h9v1.32813h-9zm0 0"/></clipPath><clipPath id="D"><path d="M292 480h2v.32813h-2zm0 0"/></clipPath><clipPath id="E"><path d="M300 479h8v1.32813h-8zm0 0"/></clipPath><clipPath id="F"><path d="M305 480h2v.32813h-2zm0 0"/></clipPath><clipPath id="G"><path d="M314 477h6v3.32813h-6zm0 0"/></clipPath><clipPath id="H"><path d="M328 477h5v3.32813h-5zm0 0"/></clipPath><clipPath id="I"><path d="M340 478h7v2.32813h-7zm0 0"/></clipPath><clipPath id="J"><path d="M340 480h2v.32813h-2zm0 0"/></clipPath><clipPath id="K"><path d="M353 478h8v2.32813h-8zm0 0"/></clipPath><clipPath id="L"><path d="M353 480h3v.32813h-3zm0 0"/></clipPath><clipPath id="M"><path d="M367 477h7v3.32813h-7zm0 0"/></clipPath><clipPath id="N"><path d="M380 479h8v1.32813h-8zm0 0"/></clipPath><clipPath id="O"><path d="M380 479h2v1.32813h-2zm0 0"/></clipPath><clipPath id="P"><path d="M393 478h8v2.32813h-8zm0 0"/></clipPath><clipPath id="Q"><path d="M391 479h3v1.32813h-3zm0 0"/></clipPath><clipPath id="R"><path d="M393 480h2v.32813h-2zm0 0"/></clipPath><clipPath id="S"><path d="M407 478h7v2.32813h-7zm0 0"/></clipPath><clipPath id="T"><path d="M404 480h4v.32813h-4zm0 0"/></clipPath><clipPath id="U"><path d="M420 478h7v2.32813h-7zm0 0"/></clipPath><clipPath id="V"><path d="M418 480h3v.32813h-3zm0 0"/></clipPath><clipPath id="W"><path d="M433 477h7v3.32813h-7zm0 0"/></clipPath><clipPath id="X"><path d="M446 479h9v1.32813h-9zm0 0"/></clipPath><clipPath id="Y"><path d="M460 478h7v2.32813h-7zm0 0"/></clipPath><clipPath id="Z"><path d="M460 480h2v.32813h-2zm0 0"/></clipPath><clipPath id="aa"><path d="M144 466h4v2h-4zm0 0"/></clipPath><clipPath id="ab"><path d="M144 452h4v3h-4zm0 0"/></clipPath><clipPath id="ac"><path d="M466 451h2v3h-2zm0 0"/></clipPath><clipPath id="ad"><path d="M144 439h4v3h-4zm0 0"/></clipPath><clipPath id="ae"><path d="M466 439h2v3h-2zm0 0"/></clipPath><clipPath id="af"><path d="M144 425h4v4h-4zm0 0"/></clipPath><clipPath id="ag"><path d="M466 426h2v3h-2zm0 0"/></clipPath><clipPath id="ah"><path d="M144 412h4v4h-4zm0 0"/></clipPath><clipPath id="ai"><path d="M466 412h2v3h-2zm0 0"/></clipPath><clipPath id="aj"><path d="M144 398h4v5h-4zm0 0"/></clipPath><clipPath id="ak"><path d="M466 399h2v3h-2zm0 0"/></clipPath><clipPath id="al"><path d="M144 384h3v6h-3zm0 0"/></clipPath><clipPath id="am"><path d="M466 386h2v3h-2zm0 0"/></clipPath><clipPath id="an"><path d="M144 372h4v4h-4zm0 0"/></clipPath><clipPath id="ao"><path d="M466 373h2v3h-2zm0 0"/></clipPath><clipPath id="ap"><path d="M144 359h4v3h-4zm0 0"/></clipPath><clipPath id="aq"><path d="M466 359h2v3h-2zm0 0"/></clipPath><clipPath id="ar"><path d="M144 346h4v2h-4zm0 0"/></clipPath><clipPath id="as"><path d="M466 345h2v4h-2zm0 0"/></clipPath><clipPath id="at"><path d="M144 332h4v4h-4zm0 0"/></clipPath><clipPath id="au"><path d="M466 332h2v3h-2zm0 0"/></clipPath><clipPath id="av"><path d="M144 320h4v2h-4zm0 0"/></clipPath><clipPath id="aw"><path d="M466 318h2v2h-2zm0 0"/></clipPath><clipPath id="ax"><path d="M465 318h3v3h-3zm0 0"/></clipPath><g id="ay" clip-path="url(#clip1)"><path fill="#fff" fill-opacity="0" fill-rule="evenodd" d="M0 0h1000v1000H0zm0 0"/><path fill="#d3d3d3" fill-opacity="0" fill-rule="evenodd" d="M162.15234 355.86719l-.23437.29297.0586.23437.11718.17188.17578.23437.29297.34766.11328.0586.11719-.17188.0586-.23438.17577-.17578.46485-.17578h.69922l.23437.29297.28906.8164.0586.17579.17578.23046.35156.23438.69922.69922.17188.17578.23437.34765.23438.41016.28906.58203.41015.46485.23047.23437.23438.17578.11719.23047.17578.29297.17187 1.16406v.23438l.0586.28906.05859.11719.11719.11719.34765.41015.11719.17188.17578.17578.17578.23437.11719.17188.17188.35156.05859.23438.23437.40625.23438-.0586-.17578.17578-.0586.92969h-.58203l-.23437-.11328-.34766.11328-.11719.11719-.05859.29297-.0586.17578-.11718.17187-.46484.29297-.0586.23438-.0586.11328v.64453l.0586.17187v.41016l.0586.0586v.40624l.05859.40625.11719.17579.05859.05859.23047.64062-.0586.29297v.69922l-.05859.58203v.23438l-.0586.23047-.05468.35156v1.92187l.05469.1172h.42578l-.36719.11718-.02344.35156.89063 1.16797 1.74219.53906 1.33984.35938v.53906l.08984.8086.53516.71484 1.51953.26953.89063-.08594.08984 1.16406.53516.1797 1.16015-.1797 2.05469-.98437 1.16016-.36328 1.8789-.17578 1.69531-.1797-.17968.71876-1.51563.08594-1.25.08984-.80469.26953-1.07421.8086.26953.71875.53515.89843-.17968.625-.26563.8086.26563 1.07812.625.89844.80468.17969 1.25-.1797-.26562.72267.09766.5039.05468.29297v.17188l.0586.29296v.40625l.17578.1172.35156.11718h.40625l.29297-.17578.11328-.11719.0586-.11719.11718-.23047.0586-.17578.35156-.46484.23047-.17578.17578-.0586.17578.0586.0586.17578.11718.98828.05469.46875.0586.17188.11718.23437.17578.0586.8164.05859h.28907l.11719.23437.05859.40625.0586.35156v1.10547l.11718.29297.11719.34766.28906.69922.17578.35156.58203.7539.35157.17579.17187.0586.46875.23437.64063.46484.34765.23438.29297.17578.29297.05468.23047.0625.8164.34766.29297.17578.11328.17188.35157.35156.11719.17578.52343.64063v.28906l.0586.35156v.34766l.05859.35156.0586.28906.11718.0586.17188.05859h.17578l.58203.23437.17578.1172.17578.28905.17578.23438.11328.23437.29297.23047.11719.11719v.41016l.0586.05468.28906.23438.23437.11719.0586.11718.11718.17188.0586.11719.23047.23437.05859.17578.23437.0586.1172.05859-.1172.11328-.05859.11719v.11719l-.11719.29296-.11719.28907v.58203l.17579.11719.11718.05859.0586.11719.11719.11719.11328.05859.17578.34765.0586.35157.05858.40625v.17578l-.05859.17578-.11719.69922v.17187l.1172.17579.29296.29296h.40625l.17578.1172.11719.17187.11719.29296v.23438h-.52735l-.23047-.23438h-.23437l-.17578.0586-.0586.69922.0586.34765.11719.17579.17578.41015.11718.23047.28907.46875.17578.05469h.52344l.23437.0586.75781.64062.0586.29296v.23438l.05859.0586.23047.34765v.35156l-.11719.17188v.29297l.29297.28906.29297.17578.17187.0586.29297.17577.29297.1172.58203.40624.28906.23438.29297.17578.21875.16015.01563.01172.23047.17579.64062.52343.17578.23438.1172.17578.17577.17578.11328.17188v.64062l.1172.17578.46874.11719.58203.11719.23438.05859.23047.11328.29297.11719.11328.0586.58593.35156.28907.17187.17578.0625.17578.05469.17578.0586.69922.35155.28906.17579.23438.05468.28906.17578.23437.1172.64063.40624.29297.11719.17187.0586.23438.05859.41015.05859.23047.0586.23438.11718.0586.17188-.41017.17578.46875.0586.0586.29296.11328.23438.17578.05468.23438.0586.17578.05859.40625.11719.64062.23437.11719.17188.0586.23437v.17578l-.0586.1172-.0586.40624.23438.23438.11719.05859.34766.11719.64062.23047.17578.11718.28906.1172.17578.17577.23438.46485.58203 1.10546.17578.17579.34766.17578.17578.11719.35156.11718 1.04688.52344.23437.0586.46485.11327.29297.0586.46484.17578.75781.58203.23438.23438.34765.46484.17578.17578.28907.23438.8164.69921.29297.17579.28906.28906.29297.17578.29297.28906.69531.64063.17578.17578.29297.23437.28907.23438.46875.28906.64062.58203.34766.23438.23437.29297.34766.34765.35156.46485.9336.99218.34765.40625.11719.17579.23437.05859.11328.11719.64454.17578.23047.11328.23437.0586.29297.17577.23047.1172.9336.69921.40624.40625.23438.17578.40625.17578.23437.11719.8164.34766.34766.23437.23438.11719.29297.28906.23047.11719.7578.35156.35157.17188.23047.05859.29297.11719.23437.0586.8711.17577h.8164l.46875.23047.17188.0586.875.69921.46484.1172.29297.05858.17578.0586.23047.0586.46875.05859.34766.05859.35156.0586.40625.05859h.29297l.17187.0586v.23046l.17578.17578h.29297l.34766.0586.35156.05859.69922.11719h.64063l.46484-.23438.29297-.17578.17187-.11719.41016-.17187.28906-.17578.9336-.46485.46875-.29297.52343-.29296.46485-.17188.46484-.17578 1.05078-.46485.28906-.11718.41016-.11719.28906-.11719.52735-.17578 1.51562-.69922.58203-.34765.28907-.0586.29297-.0586.34765-.11718.875-.23047.35156-.11719h.11329l.23437-.05859.875-.23437.23438-.0586h.8125l.35156-.0586.8164-.11718.17188-.0586.35156-.05468.29297-.0586.23047-.05859.8164-.17578.17579-.0586h.34765l.23438-.05859.46484-.11718.75781-.17188.23438-.0586h.34765l.41016-.11718.28906-.0586 1.28516-.05859h.28906l.41016-.0586.23047-.05858h.17578l.875-.1172h.40625l.41015-.11718h.34766l.35156-.11328.8711-.0586h1.75l1.04687.28907.41016.11719.28906.11718.35156.11719.28907.11719 1.05078.17187.28906.0586h.29297l.29297.05859.17187.0586.41016.05859.17187.0586.1172.05858h.11718l.11719.0586.35156.0586h.11328l.41016.0664 1.92187.39453 1.92578.39453 1.51953.44922 1.69532.71875 2.14453.80469 1.60547-.71875 1.42968-.80469 1.16016-1.07813 1.25-.44921 3.03516-.71875 1.875-.35938 2.14453-1.34765 2.23437-1.25391 2.5-1.25781 1.69531-.44922 1.78516-.17969 1.16016-.26953.625.53906 1.33984-.26953.71485-.98828.98437-1.34375.44531-.17969.80469-.35937 1.875-.53907 1.78516-.44921 1.25-.26954 1.16015-.08984 1.69922-.08984 1.96094-.26954 1.25-.08984h.53906l.625-.08984h.89063l2.14453-.17969 2.41015-.17969 2.58985-.08984 1.69531.17969 1.60938.08984 1.42968.35938 1.16016.71875 1.875.98828 1.16015 1.52734.26563.71484.6289.08985.35548.89844.53515.53906.53516 1.52734 1.07422.35938h.53515l-.80469.53515.08985 1.70703.71484 2.69532.89063.80468.89453.98829.71484 1.2578 1.78516.53907 1.51953-.17969.35547 1.34375 1.60937-.80469.98047-.53906.26953.26953.31641-.21484.21875-.14453.80078.44922.44922-.35938h.35547l.53515-.26953.53907-.71875.53515-.26953.625-.98828 1.16016.44922.83984.3711 1.39454.61718 1.6953-.17969h1.60548l1.78515.08985.17969-1.70704.53516-1.34375.80468.26954.4922.84765.40233.40625-.08984.53906v.35938l.71485.44922.71093-.26953h1.42969l.35938.98828.4453 1.25781.71485 1.34375 1.25.6289 1.69531.62891.71485-.17969.17969-.53906.98046-.08984.44922.35937.08594 1.25782-.26563.6289-.53515.17969v.53906l.71484.98438.26563.53906.98437.98828.80078 1.07813-.26562.35937-.08985.89844-.625 2.33203-.35546 2.0664-.08985 1.79298-.17969.71875-.08984.53906v1.4375l-.98047 1.88281-.35937 1.70703-.53516.89844-.80469 1.16797-.26562.53906 2.05469 1.2539.08593.35938-.35546.53906-.08985-.17968v.80859l.08985 1.4375-.44532.71484-1.07422.09375-.26562.71485.53515.89844.8047.71875 1.16015.80859 1.33984.26953.44531.35938-.35546.44921-1.78907-.08984-1.25-.44922-.71484-.71875-.625-.08984-.17578 3.58984-.1875 1.3086h89.35937V311.70313h-55.26953v49.08203l.76172.125 3.28906.54296 2.02344 2.83594v2.7539l2.35156.33204 2.34766.33203h4.05078l-1.3789 4.16016-2.02344.70703-2.02344.70312-.54297.34375-2.59375 1.6172-.1875.11718-2.02344-2.07813-.73046-2.74218-2.67188-2.07813-1.375-3.5-.0664-.08203-1.95704-2.67188 2.75-1.41796v-49.08204H294.42187v91.41407l.1172.03125.1328.01172.07422.07421.10547.04688.08985.0586.08593.05859.08985.0586.29687.29687.0586.08984.03125.11719.02734.11719.01563.13671-.03125.1172-.0586.08983-.0586.08594-.04296.10547-.04688.10156-.02734.1211v.14453l.17578.26953.14844.14844.07422.08594.07422.07421.04296.10547.0625.08985.0586.08593.04297.10547.0586.08985.04687.10156.04296.10547.0586.08594.11719.17968.07421.07422.0625.08594.0586.08984.04297.10547.0586.08985.05858.08593.0625.08985.0586.08984.04297.10156.11719.17969.07421.07422.0586.08594.07422.07421.08984.0586.10547.04687h.14844l.1328-.01562.13282.01562.10156-.04687.07422-.07422.04688-.10156-.01563-.13281v-.14844l-.04687-.10547-.02735-.11719-.04687-.10156-.02735-.1211-.04296-.10156-.0625-.08984-.04297-.10156-.04297-.10547-.03125-.11719-.01563-.13281-.01171-.13672.08593-.0586.0586-.08593.12109-.03125.04297.10547.01562.1328v.1172l.0586.10156.0586.08984.08983.0586.14844.14843.0586.08985.04296.10547-.01171.10156.08593.0586.10547.04687.08594.0586.08984.05858.07422.07422-.11719.02735-.10546.04687-.08594.0586-.07422.07421-.0586.08985-.0625.08594-.02734.12109-.04687.10156-.04297.10547-.03125.11719-.01172.13281-.01563.13281v.14844l.02735.11719.04687.10547.04297.10156.0586.08984.07421.07422.08985.0586.07422.07421.08984.0586.0586.08984.04296.10547.04688.10156.11719.03125.1328.01563h.14845l.11718-.03125.10547.04297.04297.10547.04688.10156.02734.1211L299.5 410l.02734.11719.03125.1211.02735.11718.10547.04297.10156.04687.13281-.01562.14844.14844.0625.08593.07422.07422.07031.07422.08984.0625.10547.04297.10156.04297.1172.03125.13671.01562.11719-.03125.07422-.07422.02734-.11718-.01172-.13282-.03125-.12109-.02734-.11719.04297-.10547h.11719l.08984.0625.11719.02735h.14843l.13282.01562h.14843l.13282.01563.1328-.01563h.14845l.1328-.01562.13282-.01172.13672.01172.11719-.02735.13281-.01562.1914-.0586-.05859.17579-.01562.1328-.02735.1211-.01562.13281-.0586.08594-.1328.01563-.10548.04687-.10546.04297-.1172.03125-.11718.02735-.26563.03125h-.14843l-.13281.01562-.07422.07422.05859.08594.14844.14843.11719.1797.07421.0703.08985.0625.08984.0586.08594.0586.08984.05858.10156.04297.10547.0625.10547.04297.08594.0586.10547.04687.10156.04297.17969.11719.0586.08984-.04298.10156-.04687.10547.01562.13281.22266.22266.0586.08985.04296.10156.03125.1211.04297.10155.01563.13282.03125.11718.01171.13672.03125.11719.14844.14844.10156.04297.10547.04296.1172.03125.1328.01563.13672.01563h.11719l.11719-.03125.08984-.0586.04297-.10547.04688-.10156.04296-.10547.03125-.11719.01172-.1328v-.14845l-.01172-.1328-.01562-.13282-.03125-.11719-.04297-.10547-.04688-.10547-.04296-.10156-.04297-.10547-.01563-.13281.01563-.13281.02734-.11719.03125-.11719.02735-.1211.04687-.10155.08984-.0586.08594-.0625.07422-.07422.08984-.05859.22266-.22266.0586-.08593.07421-.07422.11719-.17969.0586-.08594v-.14844l-.07423-.07421-.10156-.04688-.10547-.04297-.10156-.04297-.0586-.08984-.04687-.10547-.02734-.11719.08984-.05859.11719-.03125.10156-.04297.17969-.11719.14844-.14843.01172-.13282-.01172-.10546-.08985-.0586-.1328.01563h-.14845l-.1328.01562-.13282-.01562-.1211-.03125-.08593-.0586-.07422-.07422-.0586-.08984-.0625-.08594-.11718-.17969-.0586-.08593.03125-.1211.08594-.05859.1211-.03125.05859-.08594v-.1211l-.03125-.11718-.0586-.08984-.05859-.08594-.04687-.10547-.02735-.11719-.01562-.1328.0586-.08985.07421-.07422.08984-.0586.1172-.17968.07421-.07422.0586-.08594.14843-.14844.1211-.03125.1328-.01562.13282.01562.07422.07422.04297.10547.01562.13281-.03125.1172-.11719.03124-.1328.01172-.14844.14844-.04297.10547-.04688.10156-.02734.1211-.03125.11718v.14844l.03125.11719.04297.10546.05859.08985.07422.07031.07422.07422.11719.03125.12109.02734.11719-.02734.1328-.01563h.1172l.08984.0586.07422.07422.04687.10546.0586.08594.10156.04688.13281.01562.10547.04297.08594.0586-.01172.10546-.07422.07422-.17969.11719-.05859.08984-.08984.0586-.07032.07422-.07421.07421-.0625.08985-.02735.11719-.01562.1328.01562.13282-.01562.13281v.14844l.01562.13281.02735.1172.03125.12108.07421.07422.08985.0586.08594.0586.08984.05858.11719.03125v.08594l-.10157.04688-.08984.0586-.26563.03124-.11718.02735h-.14844l-.10547.04296-.10156.04688-.0586.08984-.0625.23438-.01171.13281-.03125.1211-.01563.1328v.29298l-.01172.1328.01172.13673.01563.1328.1328.01563.13282.01172.1211.03125.08593.0586.07422.07421.04688.10547.04296.10157.01563.1328v.44532l-.01563.13281v.44532l.03125.26562.02735.11719.01562.13281.03125.11719.08594.21094.03125.26562v.14844l-.03125.11719-.02734.11718-.03125.1211-.02735.11719-.03125.11718-.03125.1211-.01171.1328-.01563.13282.08984.0586.1172-.03125.10155.01562.04688.10547-.03125.26562v.44141l-.04297.10547-.04688.10547-.04296.10156-.04297.10547-.0586.08594-.03125.12109-.04296.11719-.03125.11719-.01563.1328.01563.13282.05859.08984.10547.04688.08594.0586.05859.08593-.01172.13672-.03125.11719-.04297.10156v.44531l-.01562.13281v.14844l-.03125.11719-.04297.10547-.02735.11719-.04687.10546-.04297.10157-.03125.12109-.02734.11719-.03125.13281-.03125.11719-.02735.11719-.04297.10546-.03125.1172-.03125.12108-.01171.13282-.01563.13281v.29688l.02734.11718v.14844l.04688.39844.02734.11719.0586.08984.12109.03125h.14844l.13281-.01563.0586.08985v.11719l-.0586.08984-.08984.0586-.10157.04296-.10546.04688-.08985.05859-.08594.0586-.13671.01562-.1172-.03125-.1328-.01563-.10157.04688-.0625.08594-.01172.13671-.01562.13282-.03125.11719-.02735.11718-.01562.13281-.03125.1211v.29687l.01563.13282.03125.11718v.14844l.01171.13281v.14844l-.02734.11719-.04688.10156-.02734.1211-.03125.11718-.0586.08985-.07421.07421-.10156.04297-.10547.04688-.11719.02734-.1211.03125-.10156-.04687.0586-.08594.10547-.04688.02734-.11718.03125-.11719.02734-.1211.03125-.11718v-.14844l.01563-.13281-.03125-.11719-.04297-.10547-.10547.01563-.07422.07422-.10156.04296-.08984.0625-.07422.07422-.04297.10157-.01563.1328-.03125.1172L304.25 426l-.03125.11719-.02734.11719-.03125.12109-.02735.11719-.03125.11718-.04297.10547-.08984.0586h-.08984l-.1172-.03125-.03124-.08594.01562-.13672-.03125-.11719v-.14844l-.01171-.1328v-.14844l-.0625-.23438-.02735-.1211-.04297-.10156-.04687-.10546-.0586-.08594-.05859-.08985-.04297-.10546-.0625-.08594-.14844-.14844-.0703-.07422-.10548-.04687-.10547-.04297-.10156-.04297-.29687-.29688-.08985-.07421-.08594-.0586-.10546-.04297-.08985-.0625-.08594-.0586-.10546-.04296-.08985-.0586-.08594-.0625-.07421-.0703-.10547-.04688-.08594-.0586-.10547-.04296-.08984-.0625-.10156-.04297-.10547-.04297-.08594-.0586-.10547-.04687-.10547-.04297-.10156-.04687-.08985-.0586-.10156-.04297-.10547-.04296-.08984-.0625-.11719-.02735-.13281-.01562-.13281.01562H299.75l-.13281.01563-.11719-.03125-.08984-.0586-.07422-.07422-.08985-.05859-.10156-.04688h-.14844l-.12109-.02734-.10156-.04297-.07422-.07422-.11719-.17968-.08984-.0586-.10156-.04297-.08985-.0625-.10547-.04296-.08984-.0586-.08594-.0586-.10547-.04687-.0586-.08594-.05858-.08984-.04297-.10547-.04688-.10156-.07422-.07422-.08594-.0586-.07421-.07421-.08985-.0586-.22265-.22265-.04297-.10547-.03125-.26563.10547-.04296h.14453l.10547.04296.07421.07422.08985.0586.08594.0586.10546.04687.08985.05859.14844.14844.0703.07422.14845.14843.0625.08594.07421.07422.08594.0586.07422.07421.08985.0625.08984.0586.08594.05859.26953.17578.10156.04688.10547.04296.10156.04297.04688-.07421.05859-.08594.07422-.07422.07031-.07422.10547.04297.07422.07422.0586.08984.04296.10156.04688.10547.04296.10547.1211.02735.11719-.02735.07421-.08984.04297-.10547.0586-.08985.07422-.07421.10546-.04297.1172-.02735.1328.01172.08985.0586.14844.14843.05859.08985.04297.10547.04687.10156.04297.10547.04297.10156.10547.04688.10547.04296.13281.01563.08594-.0586.0586-.08984.07421-.07422.10547-.04297.11719.02735.10547.04687.10156.04297.10547.04297.10156.04688.17969.11718v.11719l-.01563.13281.01563.13281.01562.13672.0586.08594.10156.04688.1211.02734.11718.03125h.14844l.11719-.03125.05859-.08984.17969-.1172.05859-.08983.07422-.07422.0586-.08594.11718-.17969.17969-.11719.11719.03125.08984.0586.04297.07422-.01563.1328v.1172l.08985.05859h.14843l.13282-.01563.1328-.01171.26563-.03125.10547-.04297.11719-.03125.1211-.02735.07421-.07421.07031-.07422.0625-.08985-.01562-.10547-.04688-.10156-.10156-.04297-.10547-.01562-.11718.02734-.26563.03125h-.14844l-.07421-.07422-.08985-.0586-.11719-.03124-.11718-.02735-.13282-.01562h-.14843l-.13282.01563h-.29687l-.10547-.04688-.14844-.14844-.04297-.10156-.05859-.08984.22266-.22266.08593-.0586.10547-.04296.11719-.03125.13281-.01563.13281.01563.13672.01562.10157.04297.1328-.01172.08985-.0625.10156-.04297.0625-.08984-.04687-.10156-.08984-.0586-.1172-.03125-.10155-.04296-.0586-.08985-.0625-.08984v-.11719l.01563-.13281.10547-.04688.07421-.07031v-.1211l-.08984-.05859-.03125-.11719.08985-.05859.07421-.07422.04297-.10547.0586-.08984.04687-.10156.01563-.13281v-.14844l-.04688-.10547-.04297-.10156-.08984-.0586-.13281-.01562-.10157-.04297-.13671-.01563-.1172-.03125h-.4453l-.13282-.01562-.13281-.01172-.13281-.01563-.11719-.03125h-.14844l-.13281-.01562-.13281-.01172-.26563-.03125-.1211-.04297-.08593-.0586-.07422-.07421v-.14844l.01172-.13281.10547-.04688.10156-.04296.13281-.01563h.15235l.13281-.01562h.29297l.1211.03125.10156.04296.08984.0586.23438.0625.12109-.04688.08984-.05859.10156-.04297.13282-.01562.10547.04296.10156.04688.13281.01172.1211-.02735h.14453l.12109-.03125.11719-.02734.10547-.04687.07421-.07422.08594-.0586.14844-.14843.0586-.08594.04687-.10547.02734-.11719.01563-.10547-.10156-.04296-.08985-.0586-.11719-.03125-.10546-.04297-.08985-.0625-.07422-.08594-.07422-.07421-.10156-.04297-.10547-.04688-.10156-.04297-.0586-.08984-.04687-.10156-.08594-.21094-.0625-.08594-.05859-.08984-.07422-.07422-.08594-.0586h-.26953l-.11719.03126-.08984.05859-.10156.04297-.13281.01562-.10547-.01562-.02735-.11719-.0625-.08984-.11718-.03125-.10157-.04297-.14843-.14844-.03125-.11719-.01563-.10546.07422-.07422.17969-.1172.11719-.02733.11718-.03125.13672.01562.10156.04297.10547.04297.10156.04687.10547.04297.1172.03125.1328.01563.1172.02734.1328.01563.10547-.01563.08985-.0586-.07422-.07421-.10547-.04297-.07422-.07422-.07422-.08984-.14844-.14844-.08593-.0586-.08985-.05859-.07422-.07422-.08984-.0586-.10156-.04687-.1211-.02734-.10156-.04688-.10547-.04296-.11719-.03125-.10156-.04297-.1211-.03125h-.14843l-.11719.03125-.10546.04297-.08594.0625-.17969.11718-.08594.0586-.08984.0586-.10547.04687-.08594.05859-.10547.04297-.10156.04297-.10547.04687-.07422.07422-.05859.08985-.0586.08593-.04687.10547-.0586.08594-.07421.07422-.13281-.01172-.1172-.03125h-.11718l-.07422.07422-.08984.0586-.07422.07421-.08984.0586-.08594.05859-.10547.04687-.10156.04297-.13672.01563-.10156-.04297-.14844-.14844-.10547-.04688h-.08594l-.10547.04688-.10156.04297-.1211.03125-.11718-.03125-.07422-.07422v-.11719l.03125-.1211.07422-.0703.0586-.08985.07421-.07422.11719-.03125.10547-.04296h.29297l.13281-.01563.13672-.01563.10156-.04296.08985-.0586.10156-.04687.08984-.0586.13281-.01171.08985.05859.13281.01172.08984-.0586.08594-.05859.10547-.04297.08984-.0586.08594-.0625.08985-.05859.14843-.14843.0586-.08594.05859-.08985.10547-.04296.13281-.01563.11719.02735.1211.03125.05859-.0586.05859-.08984.03125-.26563.02734-.11719.10547.01172.13281.01563.10157-.04297.08984-.0586.0586-.08984.07421-.07422.0586-.08984.04687-.10156.01172-.13281-.01172-.13282-.04687-.10547-.14844-.14843-.0586-.08985-.05859-.08594-.04297-.10546v-.44532l.01563-.1328v-.14845l.01172-.1328-.0586-.0586-.08984.0586-.10156-.04298-.17969-.11719-.08594-.05859-.0625-.08984-.0586-.08985-.07421-.07421-.08594-.0586-.1211.03125-.10155.01172-.10547.04688-.08594.05859-.10547.04297-.14844.14844-.08984.05859-.08594.0586-.08984.0625-.10547.04296-.13281.01563v-.1211l.10547-.04297.11718-.03125.07422-.0703.04297-.10548v-.14844l-.02734-.11718-.14844-.14844-.13281-.01563h-.14844l-.11719.03125-.10547.04297-.10156.04297-.08984.0625-.11719.02735-.07422-.07422.01172-.13281-.04297-.10157-.04297-.10547-.08984-.05859-.11719.02734-.1211.03125-.11718.03125-.10156.04297-.1211.03125-.10156.04297-.10547.04297-.08984.0586-.10156.01562v-.11719l.01562-.13281-.0586-.08985-.07421.04297-.14844.14844-.0586.08985-.07421.07421-.04688.10547-.04296.10156-.07422.07422-.0586.08985-.07422.07422-.05859.08593-.07422.07422-.08984.0625-.07422.07031-.07422.07422-.10156.01563-.13281.01562-.10547-.04296v-.1211l.14843-.14844.04297-.10156.0586-.08984.04687-.10156.04297-.10547.0586-.08985.03124-.11719.04297-.10156.03125-.1211.02735-.11718.04687-.10547.04297-.10156.04297-.10547.07422-.07031.08984-.0625.08985-.0586.10156-.04296h.29687l.26563-.03125.10547-.04297-.07422-.07422-.11719-.03125-.10547-.04297-.08984-.0586-.10156-.04687-.08985-.0586-.10156-.04296-.10547-.04297-.08984-.0625-.08594-.0586-.10547-.04296-.10156-.04297-.1211-.03125-.11718-.03125-.10157-.04297L297.5 410.25l-.10156-.04297-.08985-.0586-.04296-.10546-.01563-.13281.10156-.04297.13281-.01563.13672.01563.13282-.01563.10156-.04297.0586-.08984.01562-.10547-.08985-.0586-.07421-.07421-.10157-.04297-.08984-.0586-.14844-.14843-.04297-.10547-.01562-.13281v-.29297l-.0586-.08985-.08984-.05859-.07422-.07422-.04297-.10547-.03125-.11718-.0586-.08985-.07421-.07422-.11719-.02734-.07422-.07422-.08984-.0586-.08984-.0625-.08594-.05859-.07422-.07421-.0586-.08594-.04687-.10547-.08594-.0586-.14843-.14843-.19532-.0586-.1328.01563-.10157.04297-.07422.07422-.04688.10156-.04296.10547-.0586.08984-.0586.08594-.29687.29687-.08984.0586h-.08594l-.0625-.08594-.04297-.10547.03125-.11719.0586-.08984.02734-.11719-.01172-.13281-.08984-.0625-.10547.04688-.11719.02734-.11719.03125-.26953.17578-.10156.04688-.11719.02734-.10546.04687-.08985.0586-.10156.04297-.0586-.08594-.04687-.10547.01563-.13281.04687-.10547.07031-.07422.07422-.07031.0586-.08985v-.14843l-.04297-.10547h-.23829l-.10156.04687-.03125.11719-.02734.11719-.03125.1211-.07422.04296-.13281.01563-.07422-.04688-.04297-.10156-.04297-.10547-.04687-.10156-.04297-.10547-.1211.03125-.10156.04297-.13281.01562-.11719.03125-.10547.04297-.08984.0586-.10156.04687-.1211.02734-.13281.01563-.10156-.04297-.0586-.08985-.04687-.10546-.04297-.10157-.04297-.10546v-.1172l.0586-.08984.08593-.05859.17969-.11719.10156-.04687.10547-.04297.10547-.0586.10156-.04296.08985-.0625.10156-.04297.10547-.0586.10156-.04687.08984-.0586.10547-.04296.10156-.04297.08985-.0625.10156-.04297.13672-.01563.11719.03125.10156.04297.1211.03125.10156.04297.10546.04688.10157.04296.10547.04297.10156.04688.10547.04297.10156.04297.10547.04687.08594.0586.10546.04296.1172.03125.10546.04297.10156.04688.08985.0586.10547.04296.10156.04297.10547.04687.11719.02735.10156.04687.1211.02735h.14843l.08594-.0586.01562-.10156.0586-.08984-.02735-.1172-.07422-.07421-.11719-.17969-.07421-.07422-.08985-.07421-.17969-.1172-.08593-.05859-.10547-.04296-.10156-.04688-.26954-.17578-.05859-.08985-.07422-.07421-.0586-.08985-.04296-.10156-.03125-.11719-.01563-.13672v-.5625l-.01171-.1328-.01563-.13282-.03125-.11719-.01562-.13281-.01172-.13281-.03125-.1211-.22266-.22265-.0586-.08594-.01562-.10547.03125-.11719.13281-.01562v-91.41406H172.9922v1.45312l-.0586.23438-.35156 1.05078-.17187.52343-.1172.34766-.17577.41016-.11719.17187-.23438.29297-.23046.0586h-.35157l-.11718.05859-.23047.40625v.29297l.11719.17578.23046.23047.1172.23437.64062.75781.29297.46485.17578.23437.23047.35156.23437.34766.64063.8164.17578.46485.17187.41016.11719.69531.17578.46875.11719 1.39844.0586.46484v.875l.11718 1.04688v4.78125l-.0586.46484-.35156 1.28125-.17578.52344-.11328.41015-.35156.9297L172.93359 336l-.23437.58203-.11719.17578-.17187.34766-.17578.40625-.35157.8164-.0586.29297-.11327.29297-.11719.28906-.0586.17579-.11718.875-.0586.40625-.05859.11718-.0586.17579-.05859.17187-.23047.52734-.11718.17188v.23437l-.11719.23438-.0586.17187-.17577.58594v.28906l-.0586.17579v.29296l-.0586.11329-.05859.52734v.17187l-.05468.23438v2.6211l-.17578.8164-.1172.17578-.17577.23438-.1172.17187-.11327.23438-.58594.93359-.23047.28906-.29297.46485-.17578.23437-.28906.35156-.35156.69922-.11328.23047-.17579.41016-.17578.23046-.40625.52735-.8164.69922-.29297.17187-.28906.23438-.17579.11719-.17578.17578-.52344.40625-.52734.17578-.17187.17578-.23438.05469-.64062.17578h-.75782m12.21094 31.02344l-1.07422.44921.35938.89454 1.25-.71485.44531-.53906-.98047-.08985"/><path fill="#d3d3d3" fill-opacity="0" fill-rule="evenodd" d="M201.50781 416.59766h-.89453l.44922.6289.98047.35938.80469-.08985.4453-.98828-.17577.08985-.71485-.35547-.89453.35547m154.6211 59.0703l-.0586-.52343v-.29297l.11328-.29297.0586-.23046.46875-.46875h.11328l.11719-.11329.11718-.05859h.17579l.23437-.0586h.34766l.23437.0586.11719.0586.23047.17187.0586.17578.11718.58203v.29297l-.11719.17578-.17187.28906-.17579.17579-.52734.52343-.23047.23438-.11719.0586h-.17578l-.11718-.0586-.40625-.29297-.17579-.11719-.11718-.0586-.0586-.11327-.05468-.1172m6.64062-10.95702l-.0586-.17188v-1.10937l.0586-.17188.17578-.0586.17188-.05858h.17578l.23437-.0586.1172.0586.05858.69921-.05859.17188-.11719.17578-.11718.0586-.23438.52343-.11328.0586h-.23438l-.05859-.1172m9.61328-14.39062l-.11719-.17578v-.69922l.29297-.875.1172-.17187.17577-.35156.11328-.23047.1172-.29297.35155-.75781.1172-.23047.17187-.23438h.17578l.11719-.0586h.64062l.11719.0586.23437.23438.17188.11328.35156.29297.11719.11718.11328.17579v.11328l.11719.05859.11718.11719v.69922l-.05859.17578v.23047l-.0586.17578-.34765 1.05078-.11719.23047-.11719.23437-.11718.0586-.23047.23437-.64063.28906h-.875l-.41015-.11718-.64063-.46485"/><path fill="none" stroke="#bebebe" stroke-linecap="round" stroke-linejoin="round" stroke-miterlimit="10" stroke-width=".5" d="M467.95703 311.69531H144.02734v168.625h323.9297v-168.625"/><g clip-path="url(#a)"><path fill="#fff" fill-opacity="0" fill-rule="evenodd" d="M144 475.89063v4.4375h.0039H144v-41.6836 37.2461"/></g><g clip-path="url(#b)"><path fill="#fff" fill-opacity="0" fill-rule="evenodd" d="M144 431.50781v2.41797-122.2539h.0039H144V431.5078"/></g><path fill="#50fcfc" fill-rule="evenodd" d="M144 433.92578v4.71875h.0039v-4.71484l-.0039-.0039"/><g clip-path="url(#c)"><path fill="#fff" fill-opacity="0" fill-rule="evenodd" d="M144.0039 480.32813v-41.6836l2.13282-2.69922-2.13281-2.01562V311.67188h71.01172v110.60546l-.41016.35157-4.03125 3.25-4.4375-.65235-4.4375.11719-4.4375-.36328-4.4414.4961-4.4375-.52344-4.4375 1.01171-4.4375-.89062-4.44141.73437-2.94922 1.26172-1.48828.91797-4.4375 1.13281-4.19922 2.38672-.23828.48047-1.33594 3.95703-2.13672 4.4375.30078 4.4375-.625 4.4414.27344 4.4375 1.77344 4.4375 1.75 2.50392 3.14062-2.50391 1.29688-.5039 4.4375-.3086 4.41406.8125.02344.01172 4.4414.89844 4.4375 1.23046 3.82813-2.14062.60937-.79297 4.4375-1.01172 4.4414-.28515h4.4375l4.4375.6289 4.4375-1.01562 4.44142-.83204 1.21093-1.1289 3.22656-4.32813.28907-.10937-.28906-.1875-4.4375-1.23828-4.44141-.82813-4.1289-2.1875.76562-4.4375 3.36328-1.61719 4.4414-2.5625.33985-.2578.80469-4.4375 3.29297-2.08594 4.4375-.41407 1.58984 2.5 2.84766 2.1914 1.28125 2.2461 3.15625 3.07813 4.4414-1.86719 1.3711 3.22656 3.0664 2.36719 3.13672-2.36719-3.13672-2.60937-3.58203-1.82813-.85547-1.07812-4.4414-2.26953-2-1.08985-2.4375-2.61328-2.7461-1.82422-1.6914-2.2539-4.4375-1.0586-3.48438-1.1289-.95313-.35157V311.67188h159.77735v136.88671l-.73438.70313.73438.64844.64844-.64844-.64844-.70313V311.67188h93.20312v168.65625h-73.77734l-1.67188-2.44922-4.4375-.79688-3.92578-1.1914 3.76954-4.4375.15625-.08594 2.24609-4.35156-2.2461-4.42579-.0078-.01562.0078-.0625 1.35547-4.375-1.35546-1.71485-2.00391-2.72265-2.4336-1.48828-1.21093 1.48828-1.36719 4.4375-1.1875 4.4375 3.32031 4.4414-1.10937 4.4375 1.35937 4.4375.19531 1.20704.50391 3.23046H144.00391"/></g><path fill="#50fcfc" fill-rule="evenodd" d="M146.13672 435.94531l-2.13281 2.69922v-4.71484l2.1328 2.01562m12.09376 17.7539l-.27344-4.4375.625-4.4414-.30078-4.4375 2.13672-4.4375 1.33594-3.95703.23828-.48047 4.19922-2.38672 4.4375-1.1328v8.98437L166.1914 437l-2.8125 3.38281-1.625 3.34766-.33985 1.08984-1.66406 4.4414.33594 4.4375 1.66797 2.60938 4.4375-1.96093 4.4375-.57813 4.4375.19531.48047-.26562-.48047-.84766-1.50782-3.58984-2.92968-3.9961-4.4375-.07421-2.4375-.3711 2.4375-.82812 4.4375.32812 1.96484-3.9375-1.96484-3.41015v-8.98438l1.48828-.91797 2.94922-1.26172 4.4414-.73437 4.4375.89062 4.4375-1.01171v8.86718l-1.70703 2.125 1.70703 2.04688 4.15625-2.04688-4.15625-2.125v-8.86719l4.4375.52344v3.61719l-2.07031 2.41406 2.07031 4.14063v.64062l-1.8164 4.09375 1.8164 1.29297 1.3086-1.29297-1.3086-4.09375v-.64062l2.33985-4.14063-2.33985-2.41406v-3.61719l4.4414-.4961 4.4375.36329 4.4375-.11719 4.4375.65235 4.03126-3.25.41016-.35157.95312.35157 3.48438 1.1289 4.4375 1.0586 1.6914 2.2539 2.7461 1.82422 2.4375 2.61328 2 1.08985v2.9414l-.37891.40625.3789.3711.60547-.3711-.60547-.40625v-2.9414l4.44141 2.26953.85547 1.07812 3.58203 1.82813 3.13672 2.60937-3.13672 2.36719-3.0664-2.36719-1.3711-3.22656-4.4414 1.86719-3.15625-3.07813-1.28125-2.2461-2.84766-2.1914-1.58984-2.5-4.4375.41406-3.29297 2.08594-.8047 4.4375-.33983.25781-4.44141 2.5625-3.36328 1.6172-.76563 4.4375 4.1289 2.1875 4.44142.82812 4.4375 1.23828.28906.1875-.28906.10937-3.22657 4.32813-1.21094 1.1289-4.4414.83204-4.4375 1.01562-4.4375-.6289h-4.4375l-4.4414.28515-4.4375 1.01172-.60938.79297-3.82813 2.14062-4.4375-1.23046-4.4414-.89844-.02344-.01172-4.41406-.8125-4.4375.3086-1.29688.5039-3.14062 2.5039-1.75-2.5039-1.77344-4.4375"/><path fill="#00e8fc" fill-rule="evenodd" d="M160.08594 453.69922l-.33594-4.4375 1.66406-4.4414.33985-1.08985 1.625-3.34766L166.1914 437l4.4375-.02734 1.96484 3.41015-1.96484 3.9375-4.4375-.32812-2.4375.82812 2.4375.3711 4.4375.07421 2.92968 3.9961 1.50782 3.58984.48047.84766-.48047.26562-4.4375-.1953-4.4375.57812-4.4375 1.96093-1.66797-2.60937"/><path fill="#fff" fill-opacity="0" fill-rule="evenodd" d="M188.38281 433.82031l-1.70703 2.125 1.70703 2.04688 4.15625-2.04688-4.15625-2.125m4.4375-4.72656l-2.07031 2.41406 2.07031 4.14063 2.33985-4.14063-2.33985-2.41406m0 7.19531l-1.8164 4.09375 1.8164 1.29297 1.3086-1.29297-1.3086-4.09375"/><path fill="#00e8fc" fill-rule="evenodd" d="M232.76563 436.3164l-.37891-.37109.3789-.40625.60547.40625-.60547.3711"/><path fill="#50fcfc" fill-rule="evenodd" d="M374.79297 449.91016l-.73438-.64844.73438-.70313.64844.70313-.64844.64844"/><g clip-path="url(#d)"><path fill="#50fcfc" fill-rule="evenodd" d="M383.22656 467.01563l-3.32031-4.44141 1.1875-4.4375 1.36719-4.4375 1.21094-1.48828 2.43359 1.48828 2.0039 2.72265 1.35547 1.71485-1.35546 4.375-.00782.0625.00781.01562 2.2461 4.42579-2.2461 4.35156-.15625.08594-3.76953 4.4375 3.92579 1.1914 4.4375.79688 1.67187 2.44921h-10.04297l-.5039-3.23046-.19532-1.20704-1.35937-4.4375 1.10937-4.4375"/></g><g clip-path="url(#e)"><path fill="#fff" fill-opacity="0" fill-rule="evenodd" d="M467.9961 480.32813H468V311.67188h-.0039H468v168.65625h-.0039"/></g><path fill="#fff" fill-opacity="0" fill-rule="evenodd" d="M223.5 436.33594l3.57422 4.6211 7.8789-6.09376-3.57421-4.6211-7.87891 6.09376"/><path fill-rule="evenodd" d="M232.07031 434.13281l.3125.40235-4.98047 3.85156-.48047-.625 3.55079-2.7461-.85157-1.09765.44141-.33985.39453.40235.19531.16797.21094.125.23828.07422.26953.01171.32032-.0703.3789-.15626"/><g clip-path="url(#f)"><path fill="none" stroke="#000" stroke-linecap="round" stroke-linejoin="round" stroke-miterlimit="10" stroke-width=".5" d="M147.51172 480.47266l-7.02344-.28516"/></g><g clip-path="url(#g)"><path fill="none" stroke="#000" stroke-linecap="round" stroke-linejoin="round" stroke-miterlimit="10" stroke-width=".5" d="M147.51172 480.47266l1.0625 2.21093"/></g><g clip-path="url(#h)"><path fill="none" stroke="#000" stroke-linecap="round" stroke-linejoin="round" stroke-miterlimit="10" stroke-width=".5" d="M160.82422 480.48047l-7.01953-.30078"/></g><g clip-path="url(#i)"><path fill="none" stroke="#000" stroke-linecap="round" stroke-linejoin="round" stroke-miterlimit="10" stroke-width=".5" d="M160.82422 480.48047l1.0586 2.21094"/></g><g clip-path="url(#j)"><path fill="none" stroke="#000" stroke-linecap="round" stroke-linejoin="round" stroke-miterlimit="10" stroke-width=".5" d="M174.14063 480.23438l-7.02344.1875"/></g><g clip-path="url(#k)"><path fill="none" stroke="#000" stroke-linecap="round" stroke-linejoin="round" stroke-miterlimit="10" stroke-width=".5" d="M174.14063 480.23438l1.21093 2.13671"/></g><g clip-path="url(#l)"><path fill="none" stroke="#000" stroke-linecap="round" stroke-linejoin="round" stroke-miterlimit="10" stroke-width=".5" d="M173.1211 480.26172l.60546 1.07031"/></g><g clip-path="url(#m)"><path fill="none" stroke="#000" stroke-linecap="round" stroke-linejoin="round" stroke-miterlimit="10" stroke-width=".5" d="M187.45703 480.19922l-7.02344.25781"/></g><g clip-path="url(#n)"><path fill="none" stroke="#000" stroke-linecap="round" stroke-linejoin="round" stroke-miterlimit="10" stroke-width=".5" d="M187.45703 480.19922l1.23047 2.1211"/></g><g clip-path="url(#o)"><path fill="none" stroke="#000" stroke-linecap="round" stroke-linejoin="round" stroke-miterlimit="10" stroke-width=".5" d="M200.77344 480.30078l-7.02735.05469"/></g><g clip-path="url(#p)"><path fill="none" stroke="#000" stroke-linecap="round" stroke-linejoin="round" stroke-miterlimit="10" stroke-width=".5" d="M200.77344 480.30078l1.16797 2.15625"/></g><g clip-path="url(#q)"><path fill="none" stroke="#000" stroke-linecap="round" stroke-linejoin="round" stroke-miterlimit="10" stroke-width=".5" d="M214.07031 479.97656l-6.99219.70313"/></g><g clip-path="url(#r)"><path fill="none" stroke="#000" stroke-linecap="round" stroke-linejoin="round" stroke-miterlimit="10" stroke-width=".5" d="M214.07031 479.97656l1.36328 2.04297"/></g><g clip-path="url(#s)"><path fill="none" stroke="#000" stroke-linecap="round" stroke-linejoin="round" stroke-miterlimit="10" stroke-width=".5" d="M227.375 479.875l-6.96875.90625"/></g><g clip-path="url(#t)"><path fill="none" stroke="#000" stroke-linecap="round" stroke-linejoin="round" stroke-miterlimit="10" stroke-width=".5" d="M227.375 479.875l1.42188 2"/></g><g clip-path="url(#u)"><path fill="none" stroke="#000" stroke-linecap="round" stroke-linejoin="round" stroke-miterlimit="10" stroke-width=".5" d="M240.64453 479.60938l-6.8789 1.4375"/></g><g clip-path="url(#v)"><path fill="none" stroke="#000" stroke-linecap="round" stroke-linejoin="round" stroke-miterlimit="10" stroke-width=".5" d="M240.64453 479.60938l1.57031 1.88671"/></g><g clip-path="url(#w)"><path fill="none" stroke="#000" stroke-linecap="round" stroke-linejoin="round" stroke-miterlimit="10" stroke-width=".5" d="M254.00781 479.89063l-6.97265.875"/></g><g clip-path="url(#x)"><path fill="none" stroke="#000" stroke-linecap="round" stroke-linejoin="round" stroke-miterlimit="10" stroke-width=".5" d="M254.00781 479.89063l1.41016 2.0078"/></g><g clip-path="url(#y)"><path fill="none" stroke="#000" stroke-linecap="round" stroke-linejoin="round" stroke-miterlimit="10" stroke-width=".5" d="M267.32422 479.91406l-6.97656.82813"/></g><g clip-path="url(#z)"><path fill="none" stroke="#000" stroke-linecap="round" stroke-linejoin="round" stroke-miterlimit="10" stroke-width=".5" d="M266.3086 480.03516l.69921 1.0078"/></g><g clip-path="url(#A)"><path fill="none" stroke="#000" stroke-linecap="round" stroke-linejoin="round" stroke-miterlimit="10" stroke-width=".5" d="M280.66016 480.48438l-7.01953-.3086"/></g><g clip-path="url(#B)"><path fill="none" stroke="#000" stroke-linecap="round" stroke-linejoin="round" stroke-miterlimit="10" stroke-width=".5" d="M279.64063 480.4375l.52734 1.10938"/></g><g clip-path="url(#C)"><path fill="none" stroke="#000" stroke-linecap="round" stroke-linejoin="round" stroke-miterlimit="10" stroke-width=".5" d="M293.91797 480.98438l-6.90235-1.3125"/></g><g clip-path="url(#D)"><path fill="none" stroke="#000" stroke-linecap="round" stroke-linejoin="round" stroke-miterlimit="10" stroke-width=".5" d="M292.91406 480.79297l.36328 1.17187"/></g><g clip-path="url(#E)"><path fill="none" stroke="#000" stroke-linecap="round" stroke-linejoin="round" stroke-miterlimit="10" stroke-width=".5" d="M307.23047 481l-6.89844-1.34375"/></g><g clip-path="url(#F)"><path fill="none" stroke="#000" stroke-linecap="round" stroke-linejoin="round" stroke-miterlimit="10" stroke-width=".5" d="M306.22656 480.80469l.35938 1.17187"/></g><g clip-path="url(#G)"><path fill="none" stroke="#000" stroke-linecap="round" stroke-linejoin="round" stroke-miterlimit="10" stroke-width=".5" d="M319.41406 482.96875l-4.63672-5.28125"/></g><g clip-path="url(#H)"><path fill="none" stroke="#000" stroke-linecap="round" stroke-linejoin="round" stroke-miterlimit="10" stroke-width=".5" d="M328.52734 483.29688l3.76563-5.9336"/></g><g clip-path="url(#I)"><path fill="none" stroke="#000" stroke-linecap="round" stroke-linejoin="round" stroke-miterlimit="10" stroke-width=".5" d="M340.78516 482.2539l5.8789-3.85156"/></g><g clip-path="url(#J)"><path fill="none" stroke="#000" stroke-linecap="round" stroke-linejoin="round" stroke-miterlimit="10" stroke-width=".5" d="M341.64063 481.69531l-1.07422-.59375"/></g><g clip-path="url(#K)"><path fill="none" stroke="#000" stroke-linecap="round" stroke-linejoin="round" stroke-miterlimit="10" stroke-width=".5" d="M353.88672 481.8789l6.3086-3.10156"/></g><g clip-path="url(#L)"><path fill="none" stroke="#000" stroke-linecap="round" stroke-linejoin="round" stroke-miterlimit="10" stroke-width=".5" d="M354.80469 481.42578l-.99219-.71484"/></g><g clip-path="url(#M)"><path fill="none" stroke="#000" stroke-linecap="round" stroke-linejoin="round" stroke-miterlimit="10" stroke-width=".5" d="M367.78516 482.72266l5.14453-4.78907"/></g><g clip-path="url(#N)"><path fill="none" stroke="#000" stroke-linecap="round" stroke-linejoin="round" stroke-miterlimit="10" stroke-width=".5" d="M380.32422 481.39453l6.69531-2.1289"/></g><g clip-path="url(#O)"><path fill="none" stroke="#000" stroke-linecap="round" stroke-linejoin="round" stroke-miterlimit="10" stroke-width=".5" d="M381.29688 481.08203l-.875-.85547"/></g><g clip-path="url(#P)"><path fill="none" stroke="#000" stroke-linecap="round" stroke-linejoin="round" stroke-miterlimit="10" stroke-width=".5" d="M393.71094 481.60156l6.55078-2.54687"/></g><g clip-path="url(#Q)"><path fill="none" stroke="#000" stroke-linecap="round" stroke-linejoin="round" stroke-miterlimit="10" stroke-width=".5" d="M393.71094 481.60156L391.85156 480"/></g><g clip-path="url(#R)"><path fill="none" stroke="#000" stroke-linecap="round" stroke-linejoin="round" stroke-miterlimit="10" stroke-width=".5" d="M394.66406 481.23047l-.92969-.80078"/></g><g clip-path="url(#S)"><path fill="none" stroke="#000" stroke-linecap="round" stroke-linejoin="round" stroke-miterlimit="10" stroke-width=".5" d="M407.42969 482.35547l5.74219-4.05078"/></g><g clip-path="url(#T)"><path fill="none" stroke="#000" stroke-linecap="round" stroke-linejoin="round" stroke-miterlimit="10" stroke-width=".5" d="M407.42969 482.35547l-2.1914-1.10938"/></g><g clip-path="url(#U)"><path fill="none" stroke="#000" stroke-linecap="round" stroke-linejoin="round" stroke-miterlimit="10" stroke-width=".5" d="M420.57031 482.07813l6.09375-3.5"/></g><g clip-path="url(#V)"><path fill="none" stroke="#000" stroke-linecap="round" stroke-linejoin="round" stroke-miterlimit="10" stroke-width=".5" d="M420.57031 482.07813l-2.07812-1.3047"/></g><g clip-path="url(#W)"><path fill="none" stroke="#000" stroke-linecap="round" stroke-linejoin="round" stroke-miterlimit="10" stroke-width=".5" d="M434.1914 482.52734l5.48048-4.39843"/></g><g clip-path="url(#X)"><path fill="none" stroke="#000" stroke-linecap="round" stroke-linejoin="round" stroke-miterlimit="10" stroke-width=".5" d="M446.73438 480.19531l7.02343.26953"/></g><g clip-path="url(#Y)"><path fill="none" stroke="#000" stroke-linecap="round" stroke-linejoin="round" stroke-miterlimit="10" stroke-width=".5" d="M460.38281 481.82422l6.35938-2.99219"/></g><g clip-path="url(#Z)"><path fill="none" stroke="#000" stroke-linecap="round" stroke-linejoin="round" stroke-miterlimit="10" stroke-width=".5" d="M461.3086 481.39063l-.98438-.73829"/></g><g clip-path="url(#aa)"><path fill="none" stroke="#000" stroke-linecap="round" stroke-linejoin="round" stroke-miterlimit="10" stroke-width=".5" d="M147.5 467.32031l-7-.61328"/></g><path fill="none" stroke="#000" stroke-linecap="round" stroke-linejoin="round" stroke-miterlimit="10" stroke-width=".5" d="M147.5 467.32031l.95703 2.25781m-1.97656-2.34765l.48047 1.1289m13.86719-1.3125l-7.02735-.0664m7.02734.0664l1.13282 2.1797m-2.15625-2.1875l.5664 1.08984m13.75391-1.48438l-6.98828.73828m6.98828-.73828l1.3711 2.03516m-2.38673-1.92969l.6836 1.01953m13.5664-1.58594l-6.82812 1.66016m6.82813-1.66016l1.6289 1.83594m-2.6211-1.59375l.8125.91797m13.4336-1.38281l-6.70703 2.10547m6.70703-2.10547l1.7461 1.72265m-2.72266-1.41406l.875.85938m13.35547-1.33985l-6.58594 2.44922m6.58594-2.44922l1.83594 1.6289m-2.79297-1.27343l.91797.8164m13.33593-1.21874l-6.54687 2.54297m6.54687-2.54297l1.85938 1.60156m-2.8125-1.23047l.92969.80078m13.20312-1.48047l-6.27734 3.16016m6.27734-3.16016l2.0039 1.41797m-2.91796-.95703l1.0039.70703m13.17188-1.26562l-6.17188 3.35547m6.17188-3.35547l2.04687 1.35156m11.02344-1.74219l-5.67969 4.13672m5.6797-4.13672l2.20702 1.07032m10.9375-1.28516l-5.33984 4.5664m5.33984-4.5664l2.28516.89453m11.03516-.89062l-5.35157 4.55859m5.35157-4.5586l2.28125.90235m11.64453.13672l-6.57422 2.48047m5.61719-2.1211l.92187.8086m13.53516.6289l-6.94141-1.11328m19.14453 3.16016l-4.71875-5.20703m12.25781 1.78906l6.83594 1.6289m6.625-2.09765l6.54297 2.5664m-5.58984-2.1914l-.14063-1.21875m12.30078 2.64844l6.94922-1.04297m-5.9375.89062l-.73437-.98437M380.15625 467l7.02734.02734M380.15625 467l-1.14062-2.17188m14.46093 2.35157l7.01953-.33203m-7.01953.33203l-1.2539-2.10938m2.27343 2.0625l-.625-1.05468m12.96485 1.52343l6.92969-1.17578m-6.9297 1.17578l-1.49609-1.94531m14.79688.86328l6.95703.98828m9.33203-3.97265l1.01172 6.95703m-.86328-5.94531l.98828-.72266m12.6836-.32422v7.02734m0-6.0039l1.08203-.57813m12.7539-.40625l-1.04297 6.94922m.89063-5.9375l1.16015-.41015"/><g clip-path="url(#ab)"><path fill="none" stroke="#000" stroke-linecap="round" stroke-linejoin="round" stroke-miterlimit="10" stroke-width=".5" d="M147.40625 454.5625l-6.8125-1.72656"/></g><path fill="none" stroke="#000" stroke-linecap="round" stroke-linejoin="round" stroke-miterlimit="10" stroke-width=".5" d="M147.40625 454.5625l.58203 2.38281m12.57422-1.90234l-6.49219-2.6914m6.49219 2.6914l.23438 2.44531m13.25-2.97656l-6.83594-1.625m6.83594 1.625l.62109 2.375m12.74219-3.76172l-6.9297 1.14844m6.9297-1.14844l1.49218 1.94922m11.32422-3.25781l-5.9336 3.76562m5.9336-3.76562l2.13281 1.21093m10.87891-1.62109l-5.32812 4.58203m5.32812-4.58203l2.28516.89453m10.8711-1.07031l-5.00782 4.9336m5.00781-4.9336l2.33984.73828m10.98438-.72656l-5.02734 4.91015m5.02734-4.91015l2.33984.7461m-3.0703-.03126l1.16796.375m12.7539-1.21094l-4.77734 5.15625m4.77735-5.15625l2.37109.62891m-3.0664.1211l1.18359.3125m12.61719-1.23829l-4.35938 5.50781m4.35938-5.5078l2.41406.4375m-3.04688.36327l1.20703.21875m12.27344-1.33203l-3.42578 6.13281m3.42578-6.1328l2.45313.05077m-2.94922.83985l1.22656.02734m12.66016-.8789l-3.57422 6.05078m3.57422-6.05079l2.44922.11329m-2.96875.76953l1.22265.05468m12.24219-1.125l-2.83594 6.4297m2.83594-6.4297l2.44531-.17968m10.54688.05468l-2.1875 6.6797m1.86718-5.70704l1.20704-.21094m13.0703-.47656l-3.47265 6.10938m2.96485-5.22266l1.22656.03516m11.95703-1.20704l-2.19531 6.67579m1.875-5.70313l1.20703-.20703m12.4336-.76172l-2.20704 6.67188m1.88672-5.70313l1.20703-.20312m10.64063-.875l1.36718 6.89062m-1.16797-5.89062l.94922-.77344m9.79688 1.48047l6.10547 3.47656m-5.21485-2.97266l.03516-1.22656m12.15625 1.21875l6.57422 2.48438m-6.57422-2.48438l-.3125-2.4336m1.26953 2.79688l-.15625-1.21875m12.4961.91016l6.61328 2.375m-6.61329-2.375l-.35156-2.42969m20.2461 2.34375l-6.54688 2.54688m5.59375-2.17579l.92969.79688m11.8164-2.9414l-3.5039 6.09374m3.5039-6.09375l2.45313.08203m10.95312-.02734l-3.68359 5.98438m3.6836-5.98438l2.4453.15235m12.1875 1.30468l-6.3203 3.07031"/><g clip-path="url(#ac)"><path fill="none" stroke="#000" stroke-linecap="round" stroke-linejoin="round" stroke-miterlimit="10" stroke-width=".5" d="M466.72266 452.16406l1.98046 1.44531"/></g><path fill="none" stroke="#000" stroke-linecap="round" stroke-linejoin="round" stroke-miterlimit="10" stroke-width=".5" d="M465.80469 452.60938l.98828.72265"/><g clip-path="url(#ad)"><path fill="none" stroke="#000" stroke-linecap="round" stroke-linejoin="round" stroke-miterlimit="10" stroke-width=".5" d="M147.40625 441.24219l-6.8125-1.71485"/></g><path fill="none" stroke="#000" stroke-linecap="round" stroke-linejoin="round" stroke-miterlimit="10" stroke-width=".5" d="M147.40625 441.24219l.58984 2.3789m12.60157-1.98828l-6.56641-2.5m6.5664 2.5l.3086 2.4336m13.17188-3.00391l-6.89454-1.35938m5.89063 1.16016l.35547 1.17578m13.98828-1.13281l-6.94531-1.04688m5.9375.89454l.40625 1.15625m13.94922-1.78516l-7.00782.51562m7.00781-.51562l1.3047 2.07812m11.7539-3.15625l-6.5 2.67188m6.5-2.67188l1.89062 1.56641m11.32813-1.78125l-6.30469 3.10156m6.30469-3.10156l1.98828 1.4375m10.88281-2.125l-5.41797 4.47656m5.41797-4.47656l2.26953.9375m10.76953-1.23437l-4.86328 5.0703m4.86328-5.0703l2.35938.66796m10.78906-.8164l-4.53125 5.36719m4.53125-5.3672l2.39844.51563m11-.4453l-4.69922 5.22655m4.69922-5.22656l2.3789.58984m-3.0625.17188l1.19141.29297m13.17188-.66797l-5.42969 4.45703m5.42969-4.45703l2.26562.9414m10.78125-1.23828l-4.89062 5.04688m4.89062-5.04688l2.35547.6797m-3.0664.05468l1.17578.33984m13.04687-.86718l-5.28125 4.6328m5.28125-4.6328l2.29297.86718m-3.0625-.1914l1.14844.4336m13.08203-.9297l-5.57813 4.27344m5.57813-4.27344l2.23437 1.01953m-3.04687-.39843l1.11719.51172m12.77343-1.41407l-5.10156 4.83594m5.10156-4.83594l2.32422.78125m-3.0664-.07812l1.16015.39062m12.45313-1.48437l-4.21485 5.6211m4.21485-5.6211l2.42578.375m-3.03906.4414l1.21093.1875m11.3672-1.625l-1.51563 6.85938m1.51562-6.85938l2.36328-.65625m-2.58203 1.65235l1.17969-.32813m9.66406-.17187l3.86719 5.86719m-3.86719-5.8672l1.17578-2.15234m11.71485 2.48047l4.71484 5.21094m-4.71484-5.21094l.83203-2.30859m-.14453 3.0664l.41406-1.15234m12.1289.47656l4.88282 5.05079m-4.88281-5.05079l.7578-2.33593m14.94141 1.34765l.11329 7.02735m-.09375-6.0039l1.0703-.59376m13.53907-.19922l-2.51172 6.5625m2.51172-6.5625l2.4375-.30078m-2.80078 1.25781l1.21484-.15234m12.84375-.63281l-3.27343 6.21875m3.27343-6.21875l2.45313-.00782m12.61328 2.19141l-6.77734 1.85156"/><g clip-path="url(#ae)"><path fill="none" stroke="#000" stroke-linecap="round" stroke-linejoin="round" stroke-miterlimit="10" stroke-width=".5" d="M466.94922 439.45703l1.6836 1.78906"/></g><path fill="none" stroke="#000" stroke-linecap="round" stroke-linejoin="round" stroke-miterlimit="10" stroke-width=".5" d="M465.96484 439.72656l.83985.89453"/><g clip-path="url(#af)"><path fill="none" stroke="#000" stroke-linecap="round" stroke-linejoin="round" stroke-miterlimit="10" stroke-width=".5" d="M147.27734 428.33594l-6.55468-2.53516"/></g><path fill="none" stroke="#000" stroke-linecap="round" stroke-linejoin="round" stroke-miterlimit="10" stroke-width=".5" d="M147.27734 428.33594l.29297 2.4336m13.0625-2.54688l-6.63672-2.3086m6.63672 2.3086l.3789 2.42187m12.66407-1.82422l-6.08984-3.5039m6.08984 3.5039l-.08594 2.45313m13.6797-3.0664l-6.64845-2.27735m6.64844 2.27734l.38672 2.42188m-1.35547-2.75391l.19531 1.21094m14.27735-2.03125l-7.02735.02734m7.02735-.02734l1.16015 2.16406m12.14844-1.96094l-7.01562-.3789m7.01562.3789l1.03516 2.22657m12.28125-2.25l-7.01563-.33204m5.9961.28516l.52343 1.10938m13.42188-2.84766l-6.23438 3.24219m6.23438-3.2422l2.01953 1.39063m10.48438-2.42187l-4.61329 5.30078m4.61328-5.30078l2.39063.55078m11.19531-.28906l-5.15625 4.77734m5.15625-4.77734l2.3164.8086m11.01954-.78516l-5.19922 4.73046m5.19922-4.73046l2.3086.82812m11.42577-.26172l-6.03515 3.59766m6.03515-3.59766l2.09766 1.26953m11.07031-1.4961l-5.74218 4.05079m5.74218-4.05078l2.1875 1.10547m-3.02343-.51563l1.09375.55078m13.05078-1.15234l-5.72656 4.07422m5.72656-4.07422l2.1914 1.09766m-3.02734-.50391l1.09766.55078m12.74218-1.52344l-5.10546 4.83204m5.10546-4.83204l2.32422.78125m-3.07031-.07812l1.16406.39062m13.24219-.66015l-5.80078 3.96484m5.80078-3.96484l2.17578 1.13672m10.95313-1.38672l-5.42579 4.46484m5.42579-4.46484l2.26562.9414m-3.05469-.29296l1.13282.47265m12.17968-1.83203l-3.83984 5.88672m3.83984-5.88672l2.44141.21875m-3 .63672l1.22266.11328m10.90234-1.53516l-.34375 7.01954m.34375-7.01954l2.21875-1.04296m-2.26953 2.0664l1.10937-.52344m14.47657.4375l-4.78516 5.14454m4.78516-5.14454l2.37109.63282m-3.0664.11718l2.37109.63282m-3.0664.11328l1.18358.3164m13.58985-1.75l-4.91797 5.01954m4.91797-5.01954l2.35156.69532m-3.0664.03515l2.35156.69532m-3.07031.03515l2.35546.69531m11.79688-2.625l-3.73047 5.95704m3.73047-5.95704l2.44922.17579m-2.99219.6914l2.44922.17188m-2.99219.6953l2.44922.17188m12.86719-1.07812l-5.5586 4.30078m5.5586-4.30078l2.23437 1.00781m-3.04297-.38281l2.23438 1.00781m-3.04297-.38281l2.23828 1.00781m12.83985-2.05469l-5.85157 3.89454m5.85156-3.89454l2.16016 1.16797m-3.01172-.60156l2.16016 1.16797m-3.01172-.60156l1.08203.58203m14.48828-.26172l-6.95703.98828"/><g clip-path="url(#ag)"><path fill="none" stroke="#000" stroke-linecap="round" stroke-linejoin="round" stroke-miterlimit="10" stroke-width=".5" d="M467.03906 426.57422l1.44531 1.98047"/></g><path fill="none" stroke="#000" stroke-linecap="round" stroke-linejoin="round" stroke-miterlimit="10" stroke-width=".5" d="M466.02734 426.71875l1.44532 1.98047"/><g clip-path="url(#ah)"><path fill="none" stroke="#000" stroke-linecap="round" stroke-linejoin="round" stroke-miterlimit="10" stroke-width=".5" d="M147.22266 415.14844l-6.44532-2.78906"/></g><path fill="none" stroke="#000" stroke-linecap="round" stroke-linejoin="round" stroke-miterlimit="10" stroke-width=".5" d="M147.22266 415.14844l.19922 2.44531m13.20312-2.66016l-6.61719-2.35937m6.61719 2.35937l.35547 2.4297m12.73047-1.92188l-6.16406-3.375m6.16406 3.375l-.03125 2.45312m13.71094-3.45312L180.5 413.0625m6.89063 1.3789l.70312 2.35157m12.66016-3.40625l-6.98828.73047m5.97265-.6211l.6836 1.01563m13.66406-.66406l-7.02344-.19141m19.40234 2.48828l-5.14843-4.78125m4.39843 4.08594l-.3164 1.1875m15.16406-1.84766l-6.71484-2.07031m5.73828 1.76953l.23047 1.20313m13.41406-4.17578l-5.41797 4.47656m4.6289-3.82422l1.13282.46875m12.67187-1.4375l-4.8203 5.10937m4.12108-4.36718l1.1836.32422m12.76172-1.13282l-4.6836 5.24219m4.6836-5.24219l2.38281.58594m10.46875-.9336l-3.75781 5.9375m3.21093-5.07421l1.22657.09375m13.8125.27344l-6.10938 3.47656m6.10938-3.47656l2.07031 1.3125m11.35156-1.10938l-6.32422 3.0664m6.32422-3.0664l1.98047 1.44922m10.50781-2.53906l-4.67187 5.25m4.67187-5.25l2.38672.58203m10.8711-.63281l-4.5547 5.35156m4.5547-5.35156l2.39453.52343m-3.0586.2539l1.19922.26173m13.88281.67969l-6.76171 1.91406m6.76171-1.91406l1.69922 1.76953m11.50782-2.08594l-6.54688 2.54687m6.54688-2.54687l1.85937 1.59766m-2.8125-1.22657l1.85938 1.59766m11.90234-2.86328l-5.53125 4.33593m5.53125-4.33593l2.24219.9961m-3.04688-.3672l2.24219.9961m-3.04688-.36328l1.1211.49609m14.0664-1.375l-6.05859 3.5664m6.0586-3.5664l2.08984 1.28516m-2.97266-.76563l2.09375 1.28125m-2.97656-.76172l1.04687.64063m13.76563-2.0664l-5.52344 4.34374m5.52344-4.34375l2.2461.98828m-3.05079-.35937l2.2461.99218m-3.04688-.35937l2.24219.99219m12.71875-2.20703l-5.60156 4.24609m5.60156-4.2461l2.22656 1.03126m-3.04297-.41016l2.22656 1.02734m-3.04296-.41015l1.11328.51562m14.23828-1.0664l-6.41016 2.875m6.41016-2.875l1.9375 1.5078m-2.8711-1.08984l1.9375 1.50782m-2.86718-1.08985l1.9375 1.50782m13.125-2.58204l-6.17578 3.35157m6.17578-3.35157l2.04297 1.35547m-2.94141-.86718l2.04297 1.35546m-2.9414-.86718l1.01952.67578m14.41016-.82813l-6.8164 1.70313"/><g clip-path="url(#ai)"><path fill="none" stroke="#000" stroke-linecap="round" stroke-linejoin="round" stroke-miterlimit="10" stroke-width=".5" d="M466.96875 412.90234l1.64453 1.82032"/></g><path fill="none" stroke="#000" stroke-linecap="round" stroke-linejoin="round" stroke-miterlimit="10" stroke-width=".5" d="M465.97656 413.14844l1.64453 1.82422m-2.6328-1.57422l.8203.91015"/><g clip-path="url(#aj)"><path fill="none" stroke="#000" stroke-linecap="round" stroke-linejoin="round" stroke-miterlimit="10" stroke-width=".5" d="M146.7539 402.6211l-5.5078-4.3672"/></g><path fill="none" stroke="#000" stroke-linecap="round" stroke-linejoin="round" stroke-miterlimit="10" stroke-width=".5" d="M146.7539 402.6211l-.4453 2.41406m14.10546-2.9375l-6.19531-3.31641m6.19531 3.3164l-.00781 2.45313m13.51172-2.8711l-6.57422-2.48046m6.57422 2.48047l.3125 2.4336m13.22656-3.76954l-7.02344.1875m7.02344-.1875l1.21094 2.13672m12.08594-1.6836l-6.98828-.71484m5.97265.60938l.46484 1.13671m12.79297-3.9375l-4.83984 5.09375m4.13672-4.35156l1.17969.32813m13.42187 3.30078l-6.00781-3.64453m6.00781 3.64453l-.14062 2.44922M240.71875 400.5l-7.02734-.125m6.0039.10938l.5586 1.09375m13.53515-2.4297l-6.53515 2.57813m6.53515-2.57812l1.86719 1.59375m11.64063-.91016l-6.92188 1.21485m6.92188-1.21485l1.5078 1.9336m11.85548-1.16407l-7.01953-.32812m7.01953.32812l1.05078 2.21875m-2.07031-2.26562l.52343 1.10937m13.6289-2.35156l-6.65624 2.25m6.65625-2.25L295.57813 401m-2.75391-1.35938l.89453.84375m13.53125-.60546l-6.9375 1.11718m6.9375-1.11718l1.48047 1.95703m-2.48828-1.79297l.73828.97656m13.5664-1.23828l-6.90234 1.3164m6.90235-1.3164l1.53906 1.91016m10.63281-3.90235l-4.61719 5.29688m4.61719-5.29688l2.39063.55469m12.04687 2.84766l-6.86328-1.50782m6.86328 1.50782l.66016 2.36718m11.92578-.87109l-5.40235-4.4961m4.6172 3.83985l-.25 1.20313m15.12109-2.26563l-6.94532-1.0625m5.9375.91016l.40235 1.15625m12.7539-4.1836l-4.61328 5.30078m4.61328-5.30078l2.39063.55469m-3.0586.21484l1.19532.27735m13.85937.625l-6.7539 1.95312m6.7539-1.95312l1.70703 1.76172m-2.6914-1.47657l.85547.87891m13.55859-.58594l-6.98047.79688m6.98047-.79688l1.39062 2.01953m-2.40625-1.90234l.69532 1.00781m13.30078-2.26953l-6.3125 3.08594m6.3125-3.08594l1.98437 1.4414m-2.90234-.99218l1.98437 1.4414m12.4336-1.42968l-6.6836 2.16797m6.6836-2.16797l1.76562 1.70312m-2.73828-1.39062l1.76563 1.70703m-2.73828-1.39063l.8828.85157m14.41798-1.34766l-6.76563 1.90235m6.76563-1.90235l1.6953 1.77344m-2.67968-1.5l1.69531 1.77344m-2.67968-1.4961l.84765.88672m14.40235-1.55078l-6.69922 2.125"/><g clip-path="url(#ak)"><path fill="none" stroke="#000" stroke-linecap="round" stroke-linejoin="round" stroke-miterlimit="10" stroke-width=".5" d="M466.91016 399.375l1.7539 1.71875"/></g><path fill="none" stroke="#000" stroke-linecap="round" stroke-linejoin="round" stroke-miterlimit="10" stroke-width=".5" d="M465.9375 399.6875l1.75 1.71484m-2.72656-1.40625l.8789.85547"/><g clip-path="url(#al)"><path fill="none" stroke="#000" stroke-linecap="round" stroke-linejoin="round" stroke-miterlimit="10" stroke-width=".5" d="M146.6875 389.38672l-5.375-4.52735"/></g><path fill="none" stroke="#000" stroke-linecap="round" stroke-linejoin="round" stroke-miterlimit="10" stroke-width=".5" d="M146.6875 389.38672l-.51563 2.39844m14.22266-2.96875l-6.16016-3.38282m6.16016 3.38282l-.03125 2.45312m13.76563-3.83984l-7-.61328m7 .61328l.96093 2.26172m11.21485-5.16797l-4.72266 5.20312m4.03906-4.44922l1.1875.30079m11.67188-1.75l-2.4375 6.58984m2.08203-5.63281l1.21484-.16407m14.56641 3.6172l-6.66406-2.23048m6.66406 2.23047l.40625 2.41797m13.01563-2.8164l-6.87891-1.4336m6.8789 1.4336l.6875 2.35546m-1.6875-2.5625l.34375 1.17578m14.01172-2.17578l-6.95703.98047m6.95703-.98047l1.44141 1.98828m-2.45313-1.84375l.72266.9922m13.54297-1.46876l-6.83203 1.64453m6.83203-1.64453l1.625 1.83985m11.53125-2.33204l-6.51563 2.62891m6.51563-2.6289l1.8789 1.57812m11.63282-.90625l-6.91016 1.28515m5.90625-1.09765l.76172.95703m13.61328-.58594l-7.02343.16797m6.0039-.14453l.60156 1.07031m13.73438-.91406l-7.02344-.1875m7.02344.1875l1.09375 2.19531m12.19531-2.72265l-6.97265.86328m6.97265-.86328l1.41016 2.0078m-2.42578-1.8828l.70703 1.0039m13.5586-1.5l-6.83985 1.60547m6.83984-1.60547l1.61719 1.84766m11.59766-2.1914l-6.64063 2.29687m5.67578-1.96485l.89844.83594m13.40625-1.09375l-6.6914 2.14453m6.6914-2.14453l1.75781 1.71485m11.57813-1.64454l-6.73438 2.00391m6.73438-2.0039l1.72265 1.75m-2.69922-1.45704l1.71875 1.75m12.17188-2.92578l-5.92969 3.76953m5.92969-3.76953l2.13281 1.21094m-2.9961-.66016l1.06641.60156m13.32032-.77734l-6.34766 3.01953m6.34766-3.01953l1.96875 1.46485m11.20312-1.73438l-6.0586 3.5586m6.0586-3.5586l2.08985 1.28125m-2.97266-.76563l1.04687.64454m13.07813-1.28125l-5.91406 3.80078m5.91406-3.80078l2.13672 1.20312m-3-.64844l1.07031.59766m13.44922-.46094l-6.59766 2.41797m6.59766-2.41797l1.82812 1.63672m-2.78906-1.28515l.91406.8203m13.51954-.58593l-6.91407 1.25m6.91407-1.25l1.51953 1.92578m-2.52344-1.7461l1.51953 1.92579m12.82422-1.95313l-6.96484.94141"/><g clip-path="url(#am)"><path fill="none" stroke="#000" stroke-linecap="round" stroke-linejoin="round" stroke-miterlimit="10" stroke-width=".5" d="M467.04297 386.65234l1.4336 1.9961"/></g><path fill="none" stroke="#000" stroke-linecap="round" stroke-linejoin="round" stroke-miterlimit="10" stroke-width=".5" d="M466.03125 386.78906l1.42969 1.9961"/><g clip-path="url(#an)"><path fill="none" stroke="#000" stroke-linecap="round" stroke-linejoin="round" stroke-miterlimit="10" stroke-width=".5" d="M147.23438 375.1836l-6.46875-2.75"/></g><path fill="none" stroke="#000" stroke-linecap="round" stroke-linejoin="round" stroke-miterlimit="10" stroke-width=".5" d="M147.23438 375.1836l.21093 2.4453m12.96485-2.15624l-6.1875-3.32813m6.1875 3.32813l-.01172 2.45312m13.53125-5.32422l-6.59766 2.41406m6.59766-2.41406l1.82812 1.63672m10.48438-3.08984l-4.59375 5.32031m4.59375-5.32031l2.39453.54687m11.3164-.14453l-5.38671 4.51563m5.38672-4.51563l2.27343.92188m11.80469 1.97656l-6.91016-1.28125m6.91016 1.28125l.73438 2.33984m-1.7422-2.52734l.3711 1.17187m13.97266-1.12109l-6.95313-1.00781m6.95313 1.00781l.82812 2.3086m-1.83984-2.45704l.41406 1.15625m13.94922-1.45312l-7.02734-.11719m7.02734.11719l1.11719 2.1836m-2.14063-2.19923l.5586 1.08985m13.78125-1.1172l-7.02735-.03124m7.02735.03125l1.14062 2.17187m-2.16406-2.17578l.57031 1.08594m13.73438-.61328l-6.96094-.96875m6.96094.96875l.84375 2.30078m-1.85547-2.4414l.42187 1.15234m13.92188-1.14453l-6.99219-.70313m6.99219.70313l.92969 2.26953m12.39843-2.53906l-7.02343-.16407m7.02343.16406l1.10157 2.19141m-2.1211-2.21484l.55078 1.09375m13.78516-1.11328l-7.02734-.07813m7.02734.07813l1.1289 2.17968m-2.14843-2.1914l.5625 1.08984m13.76562-.85937l-7.01172-.51563m7.01172.51563l.98828 2.24218m12.33204-2.36328l-7.02344-.27344m7.02344.27344l1.0664 2.20703m12.22266-2.80468l-6.96875.92187m6.96875-.92187l1.42578 1.99609m11.91797-1.64453l-7.02344.21875m7.02344-.21875l1.21875 2.1289m-2.24219-2.09765l.60938 1.0664m13.72265-1.19921l-7.01562.42187m7.01562-.42187l1.28125 2.09375m-2.30078-2.03125l1.27734 2.08984m12.95313-2.8086l-6.8086 1.73438m6.8086-1.73437l1.65234 1.8125m-2.64062-1.5625l.82422.91015m13.34375-1.58203l-6.53516 2.57813m6.53516-2.57813l1.86718 1.59375m11.08594-2.27734l-5.8125 3.94531m5.8125-3.94531l2.17188 1.14453m10.46875-1.88672l-4.46094 5.42969m4.46094-5.42969l2.40625.48438m11.52343.16796l-5.6914 4.125m5.6914-4.125l2.20313 1.07813m-3.03125-.47656l1.10156.53906m13.53906-.15625l-6.6875 2.15625m6.6875-2.15625l1.76172 1.71094m11.69532-1.07032l-6.97266.875"/><g clip-path="url(#ao)"><path fill="none" stroke="#000" stroke-linecap="round" stroke-linejoin="round" stroke-miterlimit="10" stroke-width=".5" d="M467.04688 373.3711l1.41406 2.0039"/></g><path fill="none" stroke="#000" stroke-linecap="round" stroke-linejoin="round" stroke-miterlimit="10" stroke-width=".5" d="M466.03516 373.4961l.70312 1.0039"/><g clip-path="url(#ap)"><path fill="none" stroke="#000" stroke-linecap="round" stroke-linejoin="round" stroke-miterlimit="10" stroke-width=".5" d="M147.45313 359.84375l-6.90625 1.29688"/></g><path fill="none" stroke="#000" stroke-linecap="round" stroke-linejoin="round" stroke-miterlimit="10" stroke-width=".5" d="M147.45313 359.84375l1.53125 1.91797m-2.53516-1.72656l.76562.95703m13.5625.08984l-6.92578-1.17969m6.92578 1.1797l.77344 2.33202m12.58984-3.04297l-7.02343.2422m7.02344-.2422l1.22656 2.125m-2.2461-2.08984l.61328 1.0625m13.23829-2.76172l-6.0547 3.57031m6.0547-3.5703l2.09375 1.28124m-2.97657-.76172l1.04688.64063m13.63672.75l-7.02344-.2461m7.02344.2461l1.07422 2.20703m-2.09766-2.24219l1.07422 2.20313m13.15625-1.42579l-6.8086-1.73046m6.8086 1.73046l.58203 2.38282m-1.57422-2.63672l.29297 1.1914m14.01953-.96484l-6.82422-1.67578m6.82422 1.67578l.60156 2.3789m-1.59375-2.625l.30078 1.19141m13.96094-.77343l-6.73047-2.01954m6.73047 2.01954l.48047 2.40625m12.89844-2.65235l-6.85938-1.52734m6.85938 1.52734l.65234 2.36328m12.7461-3.2578l-7.02344.2578m7.02344-.2578l1.23047 2.125m12.08593-1.9961h-7.02734m7.02734 0l1.15235 2.16797m12.08984-1.44922l-6.8789-1.4336m6.8789 1.4336l.6875 2.35547m12.59766-2.23438l-6.82032-1.67969m6.82032 1.6797l.60156 2.3828m-1.59375-2.625l.30078 1.1875m14.10937-1.67187l-7.02343-.22656m7.02343.22656l1.07813 2.20312m12.23437-2.49218l-7.01953.35546m7.01953-.35546l1.25782 2.10546m11.96093-1.09375l-6.82812-1.66796m6.82812 1.66796l.60547 2.375m12.80078-2.96093l-7.01171-.4961m7.01171.4961l.9961 2.24219m-2.01563-2.31641l.4961 1.1211m13.83984-1.50391l-7.01562.41796m7.01562-.41796l1.27734 2.09375m-2.29687-2.03516l1.27734 2.09766m12.82813-3.21094l-6.55469 2.52734m6.55469-2.52734l1.85547 1.60547m-2.8086-1.23828l1.85547 1.60546m12.33985-2.14453l-6.41016 2.8711m6.41016-2.8711l1.9375 1.50391m-2.8672-1.08594l1.9336 1.5039m12.32813-1.89062l-6.44532 2.8047m6.44532-2.8047l1.92187 1.52735M412.58594 359.5l.96093.76172m13.34375-1.04688l-6.54687 2.5547m6.54687-2.5547l1.85938 1.60157m-2.8125-1.23047l.92969.80078m13.33593-1.17969l-6.54296 2.57031m6.54296-2.5703l1.86329 1.59765m-2.81641-1.22266l.9336.79688m13.48046-.70313l-6.83594 1.63281m6.83594-1.6328l1.625 1.83983m11.6211-2.08203l-6.69922 2.1172"/><g clip-path="url(#aq)"><path fill="none" stroke="#000" stroke-linecap="round" stroke-linejoin="round" stroke-miterlimit="10" stroke-width=".5" d="M466.91016 359.4336l1.7539 1.71874"/></g><g clip-path="url(#ar)"><path fill="none" stroke="#000" stroke-linecap="round" stroke-linejoin="round" stroke-miterlimit="10" stroke-width=".5" d="M147.49219 346.80469l-6.98438.7461"/></g><path fill="none" stroke="#000" stroke-linecap="round" stroke-linejoin="round" stroke-miterlimit="10" stroke-width=".5" d="M147.49219 346.80469l1.375 2.03125m11.9336-1.20313l-6.96876-.91015m6.96875.91015l.85938 2.29688m-1.875-2.42969l.42968 1.14844m13.6211-.03125l-6.41016-2.8789m6.41016 2.8789L174 351.0664m-1.09766-2.8672l.08203 1.22267m14.47266-2.22657l-7.02344-.03515m7.02344.03515l1.14063 2.17578m12.17578-2.28906l-7.02344.19531m7.02344-.1953l1.21094 2.1328m12.08593-1.6875l-6.99219-.69921m6.9922.69921L215 349.80078m12.35547-2.04687l-6.92969-1.15235m6.92969 1.15235l.78125 2.32812m12.26562-1.44922l-6.39453-2.91015m6.39453 2.91015l.15235 2.44922m13.38672-3.09765l-6.83985-1.61329m6.83985 1.61329l.62109 2.375m12.77734-2.9375l-7.0078-.48438m7.0078.48438l1 2.23828m12.32032-2.6211l-7.01954.27735m7.01954-.27735l1.23828 2.1211m11.98047-1.14454l-6.82422-1.67578m6.82422 1.67579l.60156 2.3789m-1.59375-2.6211l.29687 1.1875m14.02344-.99609l-6.85156-1.57421m6.85156 1.57421l.63672 2.3672m-1.63672-2.59767l.32031 1.1875m14.08204-1.64453l-7.02735-.19921m7.02735.19921l1.08984 2.19922m-2.11328-2.22656l.54687 1.09766m13.73828-1.78125l-6.91796 1.22265m6.91796-1.22265l1.51172 1.93359m-2.51953-1.75781l.75781.96875m13.58594-.0625l-6.96484-.9414m6.96484.9414l.85156 2.30078m12.42188-2.05469l-6.8789-1.4336m6.8789 1.4336l.6836 2.35547m-1.6836-2.5625l.34375 1.17578m14.03125-1.36719l-7-.6328m7 .6328l.95312 2.25782m-1.97265-2.35157l.95312 2.26172m-1.96875-2.35547l.47657 1.13282m14.78906-2.08594L380.2539 348m6.83203-1.64453l1.6289 1.83594m-2.62109-1.59766l1.625 1.83984m-2.6211-1.59765l.81641.91797m14.21875-2.13672l-6.29297 3.125m6.29297-3.125l1.9961 1.42578m-2.91016-.97266l1.99219 1.42969m-2.91016-.97656l1 .71484m14.32422-1.20312l-6.64453 2.28515m6.64453-2.28515l1.79297 1.67578m-2.76172-1.34375l1.79297 1.67578m-2.75781-1.34375l.89453.83984m14.40234-1.34765l-6.7461 1.97265m6.7461-1.97265l1.71485 1.7578m-2.69532-1.46874l1.71485 1.7539m12.61328-1.92187l-6.8086 1.73047m6.8086-1.73047l1.65234 1.8164m-2.64062-1.5625l1.64843 1.81641m12.65625-2.07031l-6.80859 1.73438m6.8086-1.73438l1.64843 1.8125m-2.64062-1.5625l1.65234 1.8164m12.61719-2.19921l-6.73828 2"/><g clip-path="url(#as)"><path fill="none" stroke="#000" stroke-linecap="round" stroke-linejoin="round" stroke-miterlimit="10" stroke-width=".5" d="M466.92969 346.17969l1.72265 1.7461"/></g><path fill="none" stroke="#000" stroke-linecap="round" stroke-linejoin="round" stroke-miterlimit="10" stroke-width=".5" d="M465.94922 346.46875l1.72265 1.75"/><g clip-path="url(#at)"><path fill="none" stroke="#000" stroke-linecap="round" stroke-linejoin="round" stroke-miterlimit="10" stroke-width=".5" d="M147.19531 332.39844l-6.39062 2.92969"/></g><path fill="none" stroke="#000" stroke-linecap="round" stroke-linejoin="round" stroke-miterlimit="10" stroke-width=".5" d="M146.26563 332.82422l.97265.7461m13.42188 1.37109l-6.6875-2.15625m5.71484 1.84375l.21484 1.20703m13.96875-.6211l-6.48437-2.70703m6.48437 2.70703l.23047 2.44532m-1.17187-2.83594l.11328 1.21875m14.33594-1.4336l-6.8672-1.49218m6.8672 1.49219l.66797 2.35937m11.97265-.92969L194.5 331.6875m4.71484 3.71875L199 336.61328m15.08594-2.60937l-7.01953-.28125m7.01953.28125l1.0625 2.21093m12.25-2.54687l-7.01563.39062m7.01563-.39062l1.26953 2.09765m12.04297-2.11718l-7.01172.42969m7.01172-.4297l1.28515 2.09376m12.03516-2.01172l-7.02344.26562m7.02344-.26562l1.23438 2.1211m12.0703-1.69141l-7-.59375m7 .59375l.96485 2.2539m-1.98437-2.33984l.48437 1.125m13.84766-.9961l-6.9961-.67968m6.9961.67969l.9375 2.26562m-1.95703-2.36328l.46875 1.13281m13.79687-2.14844l-6.85547 1.54688m6.85547-1.54688l1.59766 1.85938m11.74219-.44531l-6.90625-1.28125m6.90625 1.28125l.73828 2.33984m12.35547-1.59766l-6.46094-2.76562m6.46094 2.76562l.20703 2.44532m-1.14844-2.84766l.20703 2.44531m14.29297-2.92187l-6.95313-1.00781m6.95313 1.0078l.82812 2.3125m-1.83984-2.45702l.41406 1.15234m13.94922-1.64844L340.21484 334m7.02344-.27344l1.23438 2.1211m-2.25782-2.08204l.6172 1.0625m13.71874-1.11718l-7.01953.30469m7.01953-.3047l1.2461 2.11329m12.01953-1.34766l-6.92188-1.22656m6.92188 1.22656l.7578 2.33203m-1.76562-2.51171l.37891 1.16796m13.98047-1.95703l-6.99219.70703m6.99219-.70703l1.36328 2.04297m-2.38281-1.9375l1.36719 2.03906m12.9414-2.32421l-6.9414 1.0703m6.9414-1.0703l1.47266 1.96484m-2.48047-1.8086l.73437.98047m13.5-1.55468l-6.76562 1.90625m6.76562-1.90625l1.69532 1.77343m-2.6797-1.49609l.84767.88672m13.48437-1.03125l-6.83203 1.64062m6.83203-1.64062l1.6289 1.83594m-2.62109-1.59766l1.625 1.83594m-2.6211-1.59766l.81642.91797m14.42578-1.6211l-6.70703 2.09376m6.70703-2.09375l1.74609 1.72656m-2.72266-1.42188l1.7461 1.72657m-2.72266-1.42188l.875.86328m14.4375-1.32031l-6.79687 1.78906m6.79687-1.78906l1.66406 1.80469m-2.65234-1.54297l1.66406 1.80078m-2.65234-1.54297l.83203.90235m14.38281-1.66797l-6.64453 2.28125"/><g clip-path="url(#au)"><path fill="none" stroke="#000" stroke-linecap="round" stroke-linejoin="round" stroke-miterlimit="10" stroke-width=".5" d="M466.88281 332.72266l1.79688 1.67187"/></g><path fill="none" stroke="#000" stroke-linecap="round" stroke-linejoin="round" stroke-miterlimit="10" stroke-width=".5" d="M465.91797 333.05469l1.79297 1.67187m-2.76172-1.33984l.89844.83594"/><g clip-path="url(#av)"><path fill="none" stroke="#000" stroke-linecap="round" stroke-linejoin="round" stroke-miterlimit="10" stroke-width=".5" d="M140.49219 320.32031l7.01562.45313"/></g><path fill="none" stroke="#000" stroke-linecap="round" stroke-linejoin="round" stroke-miterlimit="10" stroke-width=".5" d="M154.28125 322.32031l6.0664-3.54297m-5.18359 3.02735l-1.04297-.64453m16.97266 2.87109l-.92969-6.96484m.79688 5.94921l-1 .71485m16.25781-.5039l-4.54688-5.35548m4.54688 5.35547l-.90625 2.28125m14.23438-2.29297l-4.57422-5.33593m4.57422 5.33593l-.89454 2.28516m14.8711-3.04297l-5.89844-3.82031m5.89844 3.82031l-.21094 2.44531m13.97266-3.4453l-6.78907-1.82032m6.78907 1.82031l.55078 2.39063m-1.53906-2.65625l.27734 1.1953m14.11719-1.39452l-6.97266-.89063m6.97266.89063l.86718 2.29687m-1.8828-2.42578l.43358 1.14844m13.92188-1.35938l-7.02344-.20703m7.02344.20703l1.08984 2.19922m-2.10937-2.23047l.54297 1.09766m13.79297-1.125l-7.02344-.09375m7.02344.09375l1.125 2.1836m-2.14453-2.19532l.55859 1.08985m13.7539-.70313l-6.97656-.84375m6.97656.84375l.88282 2.29297m-1.89844-2.41406l.4414 1.14453m13.91016-1.58985l-7.01953.28907m7.01953-.28907l1.24219 2.1172m12.02344-2.57813l-6.92188 1.21484m6.92188-1.21484L308.75 321.875m11.44531.33203L314 318.89063m6.19531 3.3164l-.00781 2.45313m13.71484-3.70704l-6.98046-.80859m6.98046.8086l.89454 2.28515m-1.91016-2.40234l.44531 1.14062m13.77344-.46484l-6.75781-1.92578m6.7578 1.92578l.51173 2.39844m12.92578-3.0625l-7.0039-.59766m5.98437.50781l.48047 1.1289m13.82812-1.84765l-6.95312 1.01953m6.95312-1.01953l1.45313 1.97656m11.57422-2.9453l-6.375 2.95702m6.375-2.95703l1.95703 1.48047M385.92969 319.5l.98047.73828m13.54297-.26562l-6.9336 1.15234m5.92578-.98438l.74219.97266m12.71875 1.78906l-5.21094-4.71093m12.41797 2.09765l7.00781.51563m10.63282-3.67188l-1.64453 6.83203m1.40625-5.83984l1.1875-.30469m14 .21485l-4.91407 5.02343m4.91407-5.02343l2.35546.6914m11.39844-.16797l-5.78906 3.98047"/><g clip-path="url(#aw)"><path fill="none" stroke="#000" stroke-linecap="round" stroke-linejoin="round" stroke-miterlimit="10" stroke-width=".5" d="M466.45703 318.5586l2.17578 1.1328"/></g><g clip-path="url(#ax)"><path fill="none" stroke="#000" stroke-linecap="round" stroke-linejoin="round" stroke-miterlimit="10" stroke-width=".5" d="M465.61328 319.13672l2.17969 1.13281"/></g><path fill="none" stroke="#000" stroke-linecap="round" stroke-linejoin="round" stroke-miterlimit="10" stroke-width=".5" d="M464.77344 319.71484l1.08594.56641"/><path fill="#00f" fill-rule="evenodd" d="M241.77344 472.08594h8.61719V461.9414h-8.6172v10.14453"/><path fill="azure" fill-rule="evenodd" d="M243.60547 463.77344h.83203v2.82422h3.28906v-2.82422h.83203v6.48047h-.83203v-2.91797h-3.28906v2.91797h-.83203v-6.48047"/><path fill="#ff3030" fill-rule="evenodd" d="M442.1914 467.64844h7.69532V457.5039h-7.69531v10.14453"/><path fill="azure" fill-rule="evenodd" d="M444.02734 459.33594h.83204v5.73828h3.1953v.74219h-4.02734v-6.48047"/><path fill="#ff3030" fill-rule="evenodd" d="M264.66016 445.45703h7.6914V435.3125h-7.6914v10.14453"/><path fill="azure" fill-rule="evenodd" d="M266.49219 437.14453h.83203v5.73828h3.19531v.74219h-4.02734v-6.48047"/><path fill="#ff3030" fill-rule="evenodd" d="M198.08203 436.57813h7.69531v-10.14454h-7.6953v10.14454"/><path fill="azure" fill-rule="evenodd" d="M199.91797 428.26563h.83203v5.74218h3.19531v.73828h-4.02734v-6.48046"/><path fill="#ff3030" fill-rule="evenodd" d="M322.35938 436.57813h7.6914v-10.14454h-7.6914v10.14454"/><path fill="azure" fill-rule="evenodd" d="M324.1914 428.26563h.83204v5.74218h3.19531v.73828h-4.02734v-6.48046"/><path fill="#00f" fill-rule="evenodd" d="M383.80078 432.14063h8.61719v-10.14454h-8.61719v10.14454"/><path fill="azure" fill-rule="evenodd" d="M385.63281 423.82813h.83203v2.82421h3.28907v-2.82421h.83203v6.48046h-.83203v-2.91796h-3.28907v2.91796h-.83203v-6.48046"/><path fill="#00f" fill-rule="evenodd" d="M224.01953 418.82813h8.61719v-10.14844h-8.61719v10.14844"/><path fill="azure" fill-rule="evenodd" d="M225.85156 410.51172h.83594v2.82422h3.28516v-2.82422h.83203v6.48047h-.83203v-2.91406h-3.28516v2.91406h-.83594v-6.48047"/><path fill="#ff3030" fill-rule="evenodd" d="M171.45313 365.5664h7.6914v-10.14452h-7.6914v10.14453"/><path fill="azure" fill-rule="evenodd" d="M173.28516 357.2539h.83593v5.73829h3.19141v.74219h-4.02734v-6.48047"/><path fill="#ffffe0" fill-rule="evenodd" d="M328.42969 374.89844h22.17969v-10.19531h-22.1797v10.1953"/><path fill-rule="evenodd" d="M331.92969 366.53906h.50781v6.29297h-.78516v-4.48828h-1.39062v-.55469l.5586-.0664.2539-.0547.23047-.08983.20312-.14063.17188-.21094.14453-.29297.10547-.39453m4.8125 0l.23047.01953.21875.0547.20703.08983.19531.1211.1836.14844.17187.17578.30469.41797.24218.49609.1797.54688.10937.57812.03906.58984-.03906.59375-.10938.58594-.17969.55078-.24218.5039-.3047.42579-.17187.17969-.18359.15625-.19531.1211-.20703.09374-.21875.05469-.23047.01953-.23047-.01953-.21875-.05469-.20703-.09375-.19531-.1211-.1836-.15624-.17187-.17969-.3047-.42578-.24218-.5039-.17969-.55079-.10937-.58594-.03906-.59375h.83203l.02734.5625.08203.50782.1289.4414.16017.375.1914.30078.21094.22266.22265.13672.22657.04687.22656-.04687.22266-.13672.21093-.22266.19141-.30078.16016-.375.1289-.4414.07813-.50782.03125-.5625-.03125-.5625-.07813-.5-.1289-.43359-.16016-.36719-.1914-.29297-.21094-.21093-.22266-.13282-.22656-.04687-.22656.04687-.22266.13282-.21094.21093-.1914.29297-.16016.36719-.1289.4336-.08204.5-.02734.5625h-.83203l.03906-.58985.10937-.57813.1797-.54687.24218-.4961.30469-.41796.17187-.17578.1836-.14844.1953-.1211.20704-.08984.21875-.05469.23047-.01953m5.08984 0h.51172v6.29297h-.78906v-4.48828h-1.38672v-.55469l.5586-.0664.2539-.0547.22656-.08983.20313-.14063.17578-.21094.14062-.29297.10547-.39453m2.82422 2.17578h.78906l.01953-.3164.0586-.28906.09765-.25.14063-.21485.17969-.17578.22656-.1289.26172-.08204.3086-.02734.23827.02344.22266.0625.20703.10156.17969.13672.14844.17578.11328.20312.0703.23829.02345.26171-.01954.26954-.0664.22656-.10938.1914-.15625.17188-.19921.16015-.25.16797-.63282.38672-.53515.3164-.4375.31642-.34766.32421-.26563.33594-.1875.35156-.125.3672-.0703.39452-.01954.41797h4.21094v-.73828h-3.33203l.08203-.28516.11328-.23828.14844-.19922.1875-.17968.23047-.17188.27734-.17578.71875-.41797.41406-.20703.34766-.23047.28125-.25.21875-.26562.16406-.28125.10938-.28125.0664-.28516.01953-.28125-.04296-.38281-.1211-.34766-.1875-.3086-.25-.26171-.30469-.21485-.34375-.15625-.3828-.10156-.40626-.03125-.4336.03125-.39843.09766-.35547.16797-.30469.23437L345 367.375l-.1875.375-.11719.44531-.03906.51953"/><path fill="#ffffe0" fill-rule="evenodd" d="M226.34766 344.53125h22.17968v-10.1914h-22.17968v10.1914"/><path fill-rule="evenodd" d="M229.84766 336.17188h.5078v6.29687h-.78905v-4.49219h-1.38672v-.55469l.5586-.0625.2539-.05468.23047-.08985.20312-.14062.17188-.21094.14453-.29297.10547-.39844m4.8125 0l.23047.01954.21875.05468.20703.08985.1953.1211.1836.15233.17188.17579.30078.41796.2461.4922.17968.54687.10938.57812.03906.59375-.03906.59375-.10938.58203-.17969.5547-.2461.5-.30077.42968-.17188.17969-.1836.15234-.1953.125-.20703.08984-.21875.0586-.23047.01953-.23047-.01953-.21875-.0586-.20703-.08984-.19532-.125-.1875-.15234-.16797-.1797-.30468-.42968-.24219-.5-.17969-.55469-.11328-.58203-.03516-.59375h.83204l.02734.5625.08203.5039.1289.44532.16016.375.19141.30078.21094.21875.22265.13672.22657.04688.22656-.04688.22266-.13672.21093-.21875.1914-.30078.16017-.375.1289-.44531.07813-.5039.03125-.5625-.03125-.5625-.07813-.5-.1289-.4375-.16016-.36329-.1914-.29297-.21095-.21484-.22265-.1289-.22656-.04688-.22657.04687-.22265.1289-.21094.21485-.1914.29297-.16016.36328-.1289.4375-.08204.5-.02734.5625h-.83203l.03515-.59375.11328-.57812.17969-.54688.24219-.49219.30469-.41796.16796-.17579.1875-.15234.19532-.1211.20703-.08984.21875-.05468.23047-.01954m5.08984 0h.51172v6.29688h-.78906v-4.49219h-1.38672v-.55469l.5586-.0625.2539-.05468.22656-.08985.20313-.14062.17578-.21094.14062-.29297.10547-.39844m2.82422 2.17579h.78906l.01953-.31641.0586-.28516.09765-.2539.14063-.21485.17969-.17187.22265-.1289.26563-.08204.30859-.02734.23828.01953.22266.0664.20703.10157.17969.13672.14843.17187.11328.20703.07032.23438.02344.26562-.01954.26953-.0664.22266-.10938.1914-.15625.17188-.19922.16406-.25.16407-.6328.39062-.53517.3125-.4414.3164-.34375.32423-.26563.33593-.1875.35157-.125.37109-.0703.39063-.01954.42187h4.21094v-.74219h-3.33203l.08203-.28515.11328-.23438.14844-.20312.1875-.1797.23047-.17187.27734-.17578.71875-.41406.41406-.20703.34766-.23047.28125-.25.21875-.26953.16406-.27735.10938-.28515.0625-.28516.02343-.28125-.04297-.38281-.12109-.34766-.1875-.30859-.25-.26172-.30469-.21094-.34375-.16015-.38281-.09766-.40625-.03515-.4336.03515-.39843.09766-.35547.16797-.30469.23437-.2461.30078-.1875.375-.11718.44531-.03906.51954"/><path fill="#ffffe0" fill-rule="evenodd" d="M319.55078 331.61719h22.1836v-10.1914h-22.1836v10.1914"/><path fill-rule="evenodd" d="M323.05078 323.25781h.51172v6.29297h-.78906v-4.48828h-1.38672v-.55469l.5586-.0664.25-.05079.23046-.08984.20313-.14453.17578-.20703.14062-.29688.10547-.39453m4.8125 0l.23047.01953.21875.0547.21094.08983.19531.1211.1836.14844.17187.17578.30078.42187.24219.49219.17969.54688.11328.57812.03906.58984-.03906.59375-.11329.58594-.17968.55469-.24219.5-.30078.42969-.17188.17968-.18359.15235-.19531.125-.21094.08984-.21875.0586-.23047.01953-.22656-.01954-.21875-.05859-.21094-.08984-.19531-.125-.1836-.15235-.17187-.17968-.30078-.4297-.24219-.5-.17969-.55468-.11328-.58594-.03906-.59375h.83594l.02734.56641.08203.5039.125.44141.16406.375.19141.30078.21094.22266.22265.13672.22266.04687.22656-.04687.22266-.13672.21094-.22266.1914-.30078.16407-.375.125-.4414.08203-.50391.02734-.5664-.02734-.5586-.08203-.5-.125-.4375-.16407-.36328-.1914-.29297-.21094-.21484-.22266-.13282-.22656-.04296-.22265.04296-.22266.13282-.21094.21484-.1914.29297-.16407.36328-.125.4375-.08203.5-.02734.5586h-.83594l.03906-.58985.11328-.57813.1797-.54687.24218-.49219.30078-.42187.17188-.17578.18359-.14844.19531-.1211.21094-.08984.21875-.05469.22656-.01953m5.09375 0h.50781v6.29297h-.78515v-4.48828h-1.39063v-.55469l.5625-.0664.25-.05079.23047-.08984.20313-.14453.17578-.20703.14062-.29688.10547-.39453m6.80469 1.6211h-.78906l-.05079-.21485-.08203-.1836-.10546-.16015-.12891-.13281-.14844-.10156-.16015-.07422-.16797-.04297-.17188-.01563-.32812.03907-.28907.1211-.24609.1953-.20313.26954-.16015.33593-.11719.40625-.07031.46485-.02344.52734.1914-.20313.1836-.16015.1875-.1211.1836-.08984.1875-.0586.1953-.03906.39844-.02343.3086.03125.32031.09375.3164.15625.29298.21875.2578.28125.19923.35156.07031.20313.05469.21484.02734.23437.0039.25391-.78515.04688-.02734-.26172-.07813-.25-.1211-.23438-.16015-.21094-.19531-.17578-.21875-.13672-.24219-.08984-.2539-.03125-.25391.03125-.24219.08984-.21875.13672-.1914.17578-.16407.21094-.12109.23438-.07813.25-.02734.26171.02735.25782.07812.25.1211.23437.16406.21094.1914.17578.21875.13672.24219.08984.2539.03125.25391-.03125.24219-.08984.21875-.13672.19531-.17578.16016-.21094.1211-.23437.07812-.25.02734-.25781.78516-.04688-.03125.3711-.08985.37109-.16015.35547-.22266.33203-.28906.28125-.16797.11719-.1914.10546-.20313.08204-.22656.0625-.23829.03515-.26171.01563-.28125-.01563-.26172-.04687-.23828-.07813-.21485-.10547-.19531-.1289-.17188-.15625-.15625-.1836-.13671-.19922-.11329-.22265-.10156-.24219-.14453-.53516-.08594-.59375-.02734-.64062.03906-.74219.11328-.66406.1875-.57813.1211-.2539.13672-.23047.15234-.20703.16797-.1836.1875-.15625.20312-.1289.21875-.10156.23047-.07422.25-.04297.26172-.01563.36328.03516.33203.09375.29688.15234.25781.19922.21094.24219.16406.27344.11719.30078.0625.32422"/></g></defs><use xlink:href="#ay"/></svg>