<svg xmlns="http://www.w3.org/2000/svg" role="img" xmlns:xlink="http://www.w3.org/1999/xlink" viewBox="142.45 309.95 326.84 171.84"><defs><clipPath id="a"><path d="M144 311.67188h1v168.65625h-1zm0 0"/></clipPath><clipPath id="b"><path d="M144 311.67188h324v168.65625H144zm0 0"/></clipPath><clipPath id="c"><path d="M384 477h11v3.32813h-11zm0 0"/></clipPath><clipPath id="d"><path d="M467 311.67188h1v168.65625h-1zm0 0"/></clipPath><clipPath id="e"><path d="M144 479h4v1.32813h-4zm0 0"/></clipPath><clipPath id="f"><path d="M147 480h2v.32813h-2zm0 0"/></clipPath><clipPath id="g"><path d="M153 479h9v1.32813h-9zm0 0"/></clipPath><clipPath id="h"><path d="M160 480h3v.32813h-3zm0 0"/></clipPath><clipPath id="i"><path d="M159 480h2v.32813h-2zm0 0"/></clipPath><clipPath id="j"><path d="M166 479h9v1.32813h-9zm0 0"/></clipPath><clipPath id="k"><path d="M173 480h3v.32813h-3zm0 0"/></clipPath><clipPath id="l"><path d="M172 480h2v.32813h-2zm0 0"/></clipPath><clipPath id="m"><path d="M180 479h8v1.32813h-8zm0 0"/></clipPath><clipPath id="n"><path d="M187 480h2v.32813h-2zm0 0"/></clipPath><clipPath id="o"><path d="M186 480h2v.32813h-2zm0 0"/></clipPath><clipPath id="p"><path d="M193 479h9v1.32813h-9zm0 0"/></clipPath><clipPath id="q"><path d="M200 480h2v.32813h-2zm0 0"/></clipPath><clipPath id="r"><path d="M199 480h2v.32813h-2zm0 0"/></clipPath><clipPath id="s"><path d="M206 479h9v1.32813h-9zm0 0"/></clipPath><clipPath id="t"><path d="M213 480h3v.32813h-3zm0 0"/></clipPath><clipPath id="u"><path d="M220 480h8v.32813h-8zm0 0"/></clipPath><clipPath id="v"><path d="M227 480h2v.32813h-2zm0 0"/></clipPath><clipPath id="w"><path d="M233 479h8v1.32813h-8zm0 0"/></clipPath><clipPath id="x"><path d="M240 479h3v1.32813h-3zm0 0"/></clipPath><clipPath id="y"><path d="M246 478h9v2.32813h-9zm0 0"/></clipPath><clipPath id="z"><path d="M253 478h3v2.32813h-3zm0 0"/></clipPath><clipPath id="A"><path d="M260 479h8v1.32813h-8zm0 0"/></clipPath><clipPath id="B"><path d="M266 479h2v1.32813h-2zm0 0"/></clipPath><clipPath id="C"><path d="M273 479h8v1.32813h-8zm0 0"/></clipPath><clipPath id="D"><path d="M279 480h2v.32813h-2zm0 0"/></clipPath><clipPath id="E"><path d="M287 478h7v2.32813h-7zm0 0"/></clipPath><clipPath id="F"><path d="M300 478h8v2.32813h-8zm0 0"/></clipPath><clipPath id="G"><path d="M314 477h6v3.32813h-6zm0 0"/></clipPath><clipPath id="H"><path d="M329 476h3v4.32813h-3zm0 0"/></clipPath><clipPath id="I"><path d="M340 477h7v3.32813h-7zm0 0"/></clipPath><clipPath id="J"><path d="M353 479h8v1.32813h-8zm0 0"/></clipPath><clipPath id="K"><path d="M366 479h9v1.32813h-9zm0 0"/></clipPath><clipPath id="L"><path d="M380 478h7v2.32813h-7zm0 0"/></clipPath><clipPath id="M"><path d="M393 478h8v2.32813h-8zm0 0"/></clipPath><clipPath id="N"><path d="M408 477h5v3.32813h-5zm0 0"/></clipPath><clipPath id="O"><path d="M420 477h7v3.32813h-7zm0 0"/></clipPath><clipPath id="P"><path d="M433 478h8v2.32813h-8zm0 0"/></clipPath><clipPath id="Q"><path d="M439 478h4v2.32813h-4zm0 0"/></clipPath><clipPath id="R"><path d="M447 477h7v3.32813h-7zm0 0"/></clipPath><clipPath id="S"><path d="M460 477h7v3.32813h-7zm0 0"/></clipPath><clipPath id="T"><path d="M144 466h4v2h-4zm0 0"/></clipPath><clipPath id="U"><path d="M144 452h4v3h-4zm0 0"/></clipPath><clipPath id="V"><path d="M466 451h2v3h-2zm0 0"/></clipPath><clipPath id="W"><path d="M144 439h4v3h-4zm0 0"/></clipPath><clipPath id="X"><path d="M466 440h2v3h-2zm0 0"/></clipPath><clipPath id="Y"><path d="M144 426h4v2h-4zm0 0"/></clipPath><clipPath id="Z"><path d="M466 426h2v4h-2zm0 0"/></clipPath><clipPath id="aa"><path d="M144 412h4v4h-4zm0 0"/></clipPath><clipPath id="ab"><path d="M466 412h2v3h-2zm0 0"/></clipPath><clipPath id="ac"><path d="M144 398h4v5h-4zm0 0"/></clipPath><clipPath id="ad"><path d="M466 398h2v3h-2zm0 0"/></clipPath><clipPath id="ae"><path d="M144 384h3v6h-3zm0 0"/></clipPath><clipPath id="af"><path d="M466 385h2v4h-2zm0 0"/></clipPath><clipPath id="ag"><path d="M144 371h4v6h-4zm0 0"/></clipPath><clipPath id="ah"><path d="M466 371h2v3h-2zm0 0"/></clipPath><clipPath id="ai"><path d="M144 358h4v5h-4zm0 0"/></clipPath><clipPath id="aj"><path d="M465 357h3v3h-3zm0 0"/></clipPath><clipPath id="ak"><path d="M144 345h4v4h-4zm0 0"/></clipPath><clipPath id="al"><path d="M466 345h2v3h-2zm0 0"/></clipPath><clipPath id="am"><path d="M465 345h3v3h-3zm0 0"/></clipPath><clipPath id="an"><path d="M144 331h4v5h-4zm0 0"/></clipPath><clipPath id="ao"><path d="M466 331h2v3h-2zm0 0"/></clipPath><clipPath id="ap"><path d="M465 332h3v3h-3zm0 0"/></clipPath><clipPath id="aq"><path d="M144 319h4v3h-4zm0 0"/></clipPath><clipPath id="ar"><path d="M465 317h3v3h-3zm0 0"/></clipPath><g id="as" clip-path="url(#clip1)"><path fill="#fff" fill-opacity="0" fill-rule="evenodd" d="M0 0h1000v1000H0zm0 0"/><path fill="#d3d3d3" fill-opacity="0" fill-rule="evenodd" d="M162.15234 355.86719l-.23437.29297.0586.23437.11718.17188.17578.23437.29297.34766.11328.0586.11719-.17188.0586-.23438.17577-.17578.46485-.17578h.69922l.23437.29297.28906.8164.0586.17579.17578.23046.35156.23438.69922.69922.17188.17578.23437.34765.23438.41016.28906.58203.41015.46485.23047.23437.23438.17578.11719.23047.17578.29297.17187 1.16406v.23438l.0586.28906.05859.11719.11719.11719.34765.41015.11719.17188.17578.17578.17578.23437.11719.17188.17188.35156.05859.23438.23437.40625.23438-.0586-.17578.17578-.0586.92969h-.58203l-.23437-.11328-.34766.11328-.11719.11719-.05859.29297-.0586.17578-.11718.17187-.46484.29297-.0586.23438-.0586.11328v.64453l.0586.17187v.41016l.0586.0586v.40624l.05859.40625.11719.17579.05859.05859.23047.64062-.0586.29297v.69922l-.05859.58203v.23438l-.0586.23047-.05468.35156v1.92187l.05469.1172h.42578l-.36719.11718-.02344.35156.89063 1.16797 1.74219.53906 1.33984.35938v.53906l.08984.8086.53516.71484 1.51953.26953.89063-.08594.08984 1.16406.53516.1797 1.16015-.1797 2.05469-.98437 1.16016-.36328 1.8789-.17578 1.69531-.1797-.17968.71876-1.51563.08594-1.25.08984-.80469.26953-1.07421.8086.26953.71875.53515.89843-.17968.625-.26563.8086.26563 1.07812.625.89844.80468.17969 1.25-.1797-.26562.72267.09766.5039.05468.29297v.17188l.0586.29296v.40625l.17578.1172.35156.11718h.40625l.29297-.17578.11328-.11719.0586-.11719.11718-.23047.0586-.17578.35156-.46484.23047-.17578.17578-.0586.17578.0586.0586.17578.11718.98828.05469.46875.0586.17188.11718.23437.17578.0586.8164.05859h.28907l.11719.23437.05859.40625.0586.35156v1.10547l.11718.29297.11719.34766.28906.69922.17578.35156.58203.7539.35157.17579.17187.0586.46875.23437.64063.46484.34765.23438.29297.17578.29297.05468.23047.0625.8164.34766.29297.17578.11328.17188.35157.35156.11719.17578.52343.64063v.28906l.0586.35156v.34766l.05859.35156.0586.28906.11718.0586.17188.05859h.17578l.58203.23437.17578.1172.17578.28905.17578.23438.11328.23437.29297.23047.11719.11719v.41016l.0586.05468.28906.23438.23437.11719.0586.11718.11718.17188.0586.11719.23047.23437.05859.17578.23437.0586.1172.05859-.1172.11328-.05859.11719v.11719l-.11719.29296-.11719.28907v.58203l.17579.11719.11718.05859.0586.11719.11719.11719.11328.05859.17578.34765.0586.35157.05858.40625v.17578l-.05859.17578-.11719.69922v.17187l.1172.17579.29296.29296h.40625l.17578.1172.11719.17187.11719.29296v.23438h-.52735l-.23047-.23438h-.23437l-.17578.0586-.0586.69922.0586.34765.11719.17579.17578.41015.11718.23047.28907.46875.17578.05469h.52344l.23437.0586.75781.64062.0586.29296v.23438l.05859.0586.23047.34765v.35156l-.11719.17188v.29297l.29297.28906.29297.17578.17187.0586.29297.17577.29297.1172.58203.40624.28906.23438.29297.17578.21875.16015.01563.01172.23047.17579.64062.52343.17578.23438.1172.17578.17577.17578.11328.17188v.64062l.1172.17578.46874.11719.58203.11719.23438.05859.23047.11328.29297.11719.11328.0586.58593.35156.28907.17187.17578.0625.17578.05469.17578.0586.69922.35155.28906.17579.23438.05468.28906.17578.23437.1172.64063.40624.29297.11719.17187.0586.23438.05859.41015.05859.23047.0586.23438.11718.0586.17188-.41017.17578.46875.0586.0586.29296.11328.23438.17578.05468.23438.0586.17578.05859.40625.11719.64062.23437.11719.17188.0586.23437v.17578l-.0586.1172-.0586.40624.23438.23438.11719.05859.34766.11719.64062.23047.17578.11718.28906.1172.17578.17577.23438.46485.58203 1.10546.17578.17579.34766.17578.17578.11719.35156.11718 1.04688.52344.23437.0586.46485.11327.29297.0586.46484.17578.75781.58203.23438.23438.34765.46484.17578.17578.28907.23438.8164.69921.29297.17579.28906.28906.29297.17578.29297.28906.69531.64063.17578.17578.29297.23437.28907.23438.46875.28906.64062.58203.34766.23438.23437.29297.34766.34765.35156.46485.9336.99218.34765.40625.11719.17579.23437.05859.11328.11719.64454.17578.23047.11328.23437.0586.29297.17577.23047.1172.9336.69921.40624.40625.23438.17578.40625.17578.23437.11719.8164.34766.34766.23437.23438.11719.29297.28906.23047.11719.7578.35156.35157.17188.23047.05859.29297.11719.23437.0586.8711.17577h.8164l.46875.23047.17188.0586.875.69921.46484.1172.29297.05858.17578.0586.23047.0586.46875.05859.34766.05859.35156.0586.40625.05859h.29297l.17187.0586v.23046l.17578.17578h.29297l.34766.0586.35156.05859.69922.11719h.64063l.46484-.23438.29297-.17578.17187-.11719.41016-.17187.28906-.17578.9336-.46485.46875-.29297.52343-.29296.46485-.17188.46484-.17578 1.05078-.46485.28906-.11718.41016-.11719.28906-.11719.52735-.17578 1.51562-.69922.58203-.34765.28907-.0586.29297-.0586.34765-.11718.875-.23047.35156-.11719h.11329l.23437-.05859.875-.23437.23438-.0586h.8125l.35156-.0586.8164-.11718.17188-.0586.35156-.05468.29297-.0586.23047-.05859.8164-.17578.17579-.0586h.34765l.23438-.05859.46484-.11718.75781-.17188.23438-.0586h.34765l.41016-.11718.28906-.0586 1.28516-.05859h.28906l.41016-.0586.23047-.05858h.17578l.875-.1172h.40625l.41015-.11718h.34766l.35156-.11328.8711-.0586h1.75l1.04687.28907.41016.11719.28906.11718.35156.11719.28907.11719 1.05078.17187.28906.0586h.29297l.29297.05859.17187.0586.41016.05859.17187.0586.1172.05858h.11718l.11719.0586.35156.0586h.11328l.41016.0664 1.92187.39453 1.92578.39453 1.51953.44922 1.69532.71875 2.14453.80469 1.60547-.71875 1.42968-.80469 1.16016-1.07813 1.25-.44921 3.03516-.71875 1.875-.35938 2.14453-1.34765 2.23437-1.25391 2.5-1.25781 1.69531-.44922 1.78516-.17969 1.16016-.26953.625.53906 1.33984-.26953.71485-.98828.98437-1.34375.44531-.17969.80469-.35937 1.875-.53907 1.78516-.44921 1.25-.26954 1.16015-.08984 1.69922-.08984 1.96094-.26954 1.25-.08984h.53906l.625-.08984h.89063l2.14453-.17969 2.41015-.17969 2.58985-.08984 1.69531.17969 1.60938.08984 1.42968.35938 1.16016.71875 1.875.98828 1.16015 1.52734.26563.71484.6289.08985.35548.89844.53515.53906.53516 1.52734 1.07422.35938h.53515l-.80469.53515.08985 1.70703.71484 2.69532.89063.80468.89453.98829.71484 1.2578 1.78516.53907 1.51953-.17969.35547 1.34375 1.60937-.80469.98047-.53906.26953.26953.31641-.21484.21875-.14453.80078.44922.44922-.35938h.35547l.53515-.26953.53907-.71875.53515-.26953.625-.98828 1.16016.44922.83984.3711 1.39454.61718 1.6953-.17969h1.60548l1.78515.08985.17969-1.70704.53516-1.34375.80468.26954.4922.84765.40233.40625-.08984.53906v.35938l.71485.44922.71093-.26953h1.42969l.35938.98828.4453 1.25781.71485 1.34375 1.25.6289 1.69531.62891.71485-.17969.17969-.53906.98046-.08984.44922.35937.08594 1.25782-.26563.6289-.53515.17969v.53906l.71484.98438.26563.53906.98437.98828.80078 1.07813-.26562.35937-.08985.89844-.625 2.33203-.35546 2.0664-.08985 1.79298-.17969.71875-.08984.53906v1.4375l-.98047 1.88281-.35937 1.70703-.53516.89844-.80469 1.16797-.26562.53906 2.05469 1.2539.08593.35938-.35546.53906-.08985-.17968v.80859l.08985 1.4375-.44532.71484-1.07422.09375-.26562.71485.53515.89844.8047.71875 1.16015.80859 1.33984.26953.44531.35938-.35546.44921-1.78907-.08984-1.25-.44922-.71484-.71875-.625-.08984-.17578 3.58984-.1875 1.3086h89.35937V311.70313h-55.26953v49.08203l.76172.125 3.28906.54296 2.02344 2.83594v2.7539l2.35156.33204 2.34766.33203h4.05078l-1.3789 4.16016-2.02344.70703-2.02344.70312-.54297.34375-2.59375 1.6172-.1875.11718-2.02344-2.07813-.73046-2.74218-2.67188-2.07813-1.375-3.5-.0664-.08203-1.95704-2.67188 2.75-1.41796v-49.08204H294.42187v91.41407l.1172.03125.1328.01172.07422.07421.10547.04688.08985.0586.08593.05859.08985.0586.29687.29687.0586.08984.03125.11719.02734.11719.01563.13671-.03125.1172-.0586.08983-.0586.08594-.04296.10547-.04688.10156-.02734.1211v.14453l.17578.26953.14844.14844.07422.08594.07422.07421.04296.10547.0625.08985.0586.08593.04297.10547.0586.08985.04687.10156.04296.10547.0586.08594.11719.17968.07421.07422.0625.08594.0586.08984.04297.10547.0586.08985.05858.08593.0625.08985.0586.08984.04297.10156.11719.17969.07421.07422.0586.08594.07422.07421.08984.0586.10547.04687h.14844l.1328-.01562.13282.01562.10156-.04687.07422-.07422.04688-.10156-.01563-.13281v-.14844l-.04687-.10547-.02735-.11719-.04687-.10156-.02735-.1211-.04296-.10156-.0625-.08984-.04297-.10156-.04297-.10547-.03125-.11719-.01563-.13281-.01171-.13672.08593-.0586.0586-.08593.12109-.03125.04297.10547.01562.1328v.1172l.0586.10156.0586.08984.08983.0586.14844.14843.0586.08985.04296.10547-.01171.10156.08593.0586.10547.04687.08594.0586.08984.05858.07422.07422-.11719.02735-.10546.04687-.08594.0586-.07422.07421-.0586.08985-.0625.08594-.02734.12109-.04687.10156-.04297.10547-.03125.11719-.01172.13281-.01563.13281v.14844l.02735.11719.04687.10547.04297.10156.0586.08984.07421.07422.08985.0586.07422.07421.08984.0586.0586.08984.04296.10547.04688.10156.11719.03125.1328.01563h.14845l.11718-.03125.10547.04297.04297.10547.04688.10156.02734.1211L299.5 410l.02734.11719.03125.1211.02735.11718.10547.04297.10156.04687.13281-.01562.14844.14844.0625.08593.07422.07422.07031.07422.08984.0625.10547.04297.10156.04297.1172.03125.13671.01562.11719-.03125.07422-.07422.02734-.11718-.01172-.13282-.03125-.12109-.02734-.11719.04297-.10547h.11719l.08984.0625.11719.02735h.14843l.13282.01562h.14843l.13282.01563.1328-.01563h.14845l.1328-.01562.13282-.01172.13672.01172.11719-.02735.13281-.01562.1914-.0586-.05859.17579-.01562.1328-.02735.1211-.01562.13281-.0586.08594-.1328.01563-.10548.04687-.10546.04297-.1172.03125-.11718.02735-.26563.03125h-.14843l-.13281.01562-.07422.07422.05859.08594.14844.14843.11719.1797.07421.0703.08985.0625.08984.0586.08594.0586.08984.05858.10156.04297.10547.0625.10547.04297.08594.0586.10547.04687.10156.04297.17969.11719.0586.08984-.04298.10156-.04687.10547.01562.13281.22266.22266.0586.08985.04296.10156.03125.1211.04297.10155.01563.13282.03125.11718.01171.13672.03125.11719.14844.14844.10156.04297.10547.04296.1172.03125.1328.01563.13672.01563h.11719l.11719-.03125.08984-.0586.04297-.10547.04688-.10156.04296-.10547.03125-.11719.01172-.1328v-.14845l-.01172-.1328-.01562-.13282-.03125-.11719-.04297-.10547-.04688-.10547-.04296-.10156-.04297-.10547-.01563-.13281.01563-.13281.02734-.11719.03125-.11719.02735-.1211.04687-.10155.08984-.0586.08594-.0625.07422-.07422.08984-.05859.22266-.22266.0586-.08593.07421-.07422.11719-.17969.0586-.08594v-.14844l-.07423-.07421-.10156-.04688-.10547-.04297-.10156-.04297-.0586-.08984-.04687-.10547-.02734-.11719.08984-.05859.11719-.03125.10156-.04297.17969-.11719.14844-.14843.01172-.13282-.01172-.10546-.08985-.0586-.1328.01563h-.14845l-.1328.01562-.13282-.01562-.1211-.03125-.08593-.0586-.07422-.07422-.0586-.08984-.0625-.08594-.11718-.17969-.0586-.08593.03125-.1211.08594-.05859.1211-.03125.05859-.08594v-.1211l-.03125-.11718-.0586-.08984-.05859-.08594-.04687-.10547-.02735-.11719-.01562-.1328.0586-.08985.07421-.07422.08984-.0586.1172-.17968.07421-.07422.0586-.08594.14843-.14844.1211-.03125.1328-.01562.13282.01562.07422.07422.04297.10547.01562.13281-.03125.1172-.11719.03124-.1328.01172-.14844.14844-.04297.10547-.04688.10156-.02734.1211-.03125.11718v.14844l.03125.11719.04297.10546.05859.08985.07422.07031.07422.07422.11719.03125.12109.02734.11719-.02734.1328-.01563h.1172l.08984.0586.07422.07422.04687.10546.0586.08594.10156.04688.13281.01562.10547.04297.08594.0586-.01172.10546-.07422.07422-.17969.11719-.05859.08984-.08984.0586-.07032.07422-.07421.07421-.0625.08985-.02735.11719-.01562.1328.01562.13282-.01562.13281v.14844l.01562.13281.02735.1172.03125.12108.07421.07422.08985.0586.08594.0586.08984.05858.11719.03125v.08594l-.10157.04688-.08984.0586-.26563.03124-.11718.02735h-.14844l-.10547.04296-.10156.04688-.0586.08984-.0625.23438-.01171.13281-.03125.1211-.01563.1328v.29298l-.01172.1328.01172.13673.01563.1328.1328.01563.13282.01172.1211.03125.08593.0586.07422.07421.04688.10547.04296.10157.01563.1328v.44532l-.01563.13281v.44532l.03125.26562.02735.11719.01562.13281.03125.11719.08594.21094.03125.26562v.14844l-.03125.11719-.02734.11718-.03125.1211-.02735.11719-.03125.11718-.03125.1211-.01171.1328-.01563.13282.08984.0586.1172-.03125.10155.01562.04688.10547-.03125.26562v.44141l-.04297.10547-.04688.10547-.04296.10156-.04297.10547-.0586.08594-.03125.12109-.04296.11719-.03125.11719-.01563.1328.01563.13282.05859.08984.10547.04688.08594.0586.05859.08593-.01172.13672-.03125.11719-.04297.10156v.44531l-.01562.13281v.14844l-.03125.11719-.04297.10547-.02735.11719-.04687.10546-.04297.10157-.03125.12109-.02734.11719-.03125.13281-.03125.11719-.02735.11719-.04297.10546-.03125.1172-.03125.12108-.01171.13282-.01563.13281v.29688l.02734.11718v.14844l.04688.39844.02734.11719.0586.08984.12109.03125h.14844l.13281-.01563.0586.08985v.11719l-.0586.08984-.08984.0586-.10157.04296-.10546.04688-.08985.05859-.08594.0586-.13671.01562-.1172-.03125-.1328-.01563-.10157.04688-.0625.08594-.01172.13671-.01562.13282-.03125.11719-.02735.11718-.01562.13281-.03125.1211v.29687l.01563.13282.03125.11718v.14844l.01171.13281v.14844l-.02734.11719-.04688.10156-.02734.1211-.03125.11718-.0586.08985-.07421.07421-.10156.04297-.10547.04688-.11719.02734-.1211.03125-.10156-.04687.0586-.08594.10547-.04688.02734-.11718.03125-.11719.02734-.1211.03125-.11718v-.14844l.01563-.13281-.03125-.11719-.04297-.10547-.10547.01563-.07422.07422-.10156.04296-.08984.0625-.07422.07422-.04297.10157-.01563.1328-.03125.1172L304.25 426l-.03125.11719-.02734.11719-.03125.12109-.02735.11719-.03125.11718-.04297.10547-.08984.0586h-.08984l-.1172-.03125-.03124-.08594.01562-.13672-.03125-.11719v-.14844l-.01171-.1328v-.14844l-.0625-.23438-.02735-.1211-.04297-.10156-.04687-.10546-.0586-.08594-.05859-.08985-.04297-.10546-.0625-.08594-.14844-.14844-.0703-.07422-.10548-.04687-.10547-.04297-.10156-.04297-.29687-.29688-.08985-.07421-.08594-.0586-.10546-.04297-.08985-.0625-.08594-.0586-.10546-.04296-.08985-.0586-.08594-.0625-.07421-.0703-.10547-.04688-.08594-.0586-.10547-.04296-.08984-.0625-.10156-.04297-.10547-.04297-.08594-.0586-.10547-.04687-.10547-.04297-.10156-.04687-.08985-.0586-.10156-.04297-.10547-.04296-.08984-.0625-.11719-.02735-.13281-.01562-.13281.01562H299.75l-.13281.01563-.11719-.03125-.08984-.0586-.07422-.07422-.08985-.05859-.10156-.04688h-.14844l-.12109-.02734-.10156-.04297-.07422-.07422-.11719-.17968-.08984-.0586-.10156-.04297-.08985-.0625-.10547-.04296-.08984-.0586-.08594-.0586-.10547-.04687-.0586-.08594-.05858-.08984-.04297-.10547-.04688-.10156-.07422-.07422-.08594-.0586-.07421-.07421-.08985-.0586-.22265-.22265-.04297-.10547-.03125-.26563.10547-.04296h.14453l.10547.04296.07421.07422.08985.0586.08594.0586.10546.04687.08985.05859.14844.14844.0703.07422.14845.14843.0625.08594.07421.07422.08594.0586.07422.07421.08985.0625.08984.0586.08594.05859.26953.17578.10156.04688.10547.04296.10156.04297.04688-.07421.05859-.08594.07422-.07422.07031-.07422.10547.04297.07422.07422.0586.08984.04296.10156.04688.10547.04296.10547.1211.02735.11719-.02735.07421-.08984.04297-.10547.0586-.08985.07422-.07421.10546-.04297.1172-.02735.1328.01172.08985.0586.14844.14843.05859.08985.04297.10547.04687.10156.04297.10547.04297.10156.10547.04688.10547.04296.13281.01563.08594-.0586.0586-.08984.07421-.07422.10547-.04297.11719.02735.10547.04687.10156.04297.10547.04297.10156.04688.17969.11718v.11719l-.01563.13281.01563.13281.01562.13672.0586.08594.10156.04688.1211.02734.11718.03125h.14844l.11719-.03125.05859-.08984.17969-.1172.05859-.08983.07422-.07422.0586-.08594.11718-.17969.17969-.11719.11719.03125.08984.0586.04297.07422-.01563.1328v.1172l.08985.05859h.14843l.13282-.01563.1328-.01171.26563-.03125.10547-.04297.11719-.03125.1211-.02735.07421-.07421.07031-.07422.0625-.08985-.01562-.10547-.04688-.10156-.10156-.04297-.10547-.01562-.11718.02734-.26563.03125h-.14844l-.07421-.07422-.08985-.0586-.11719-.03124-.11718-.02735-.13282-.01562h-.14843l-.13282.01563h-.29687l-.10547-.04688-.14844-.14844-.04297-.10156-.05859-.08984.22266-.22266.08593-.0586.10547-.04296.11719-.03125.13281-.01563.13281.01563.13672.01562.10157.04297.1328-.01172.08985-.0625.10156-.04297.0625-.08984-.04687-.10156-.08984-.0586-.1172-.03125-.10155-.04296-.0586-.08985-.0625-.08984v-.11719l.01563-.13281.10547-.04688.07421-.07031v-.1211l-.08984-.05859-.03125-.11719.08985-.05859.07421-.07422.04297-.10547.0586-.08984.04687-.10156.01563-.13281v-.14844l-.04688-.10547-.04297-.10156-.08984-.0586-.13281-.01562-.10157-.04297-.13671-.01563-.1172-.03125h-.4453l-.13282-.01562-.13281-.01172-.13281-.01563-.11719-.03125h-.14844l-.13281-.01562-.13281-.01172-.26563-.03125-.1211-.04297-.08593-.0586-.07422-.07421v-.14844l.01172-.13281.10547-.04688.10156-.04296.13281-.01563h.15235l.13281-.01562h.29297l.1211.03125.10156.04296.08984.0586.23438.0625.12109-.04688.08984-.05859.10156-.04297.13282-.01562.10547.04296.10156.04688.13281.01172.1211-.02735h.14453l.12109-.03125.11719-.02734.10547-.04687.07421-.07422.08594-.0586.14844-.14843.0586-.08594.04687-.10547.02734-.11719.01563-.10547-.10156-.04296-.08985-.0586-.11719-.03125-.10546-.04297-.08985-.0625-.07422-.08594-.07422-.07421-.10156-.04297-.10547-.04688-.10156-.04297-.0586-.08984-.04687-.10156-.08594-.21094-.0625-.08594-.05859-.08984-.07422-.07422-.08594-.0586h-.26953l-.11719.03126-.08984.05859-.10156.04297-.13281.01562-.10547-.01562-.02735-.11719-.0625-.08984-.11718-.03125-.10157-.04297-.14843-.14844-.03125-.11719-.01563-.10546.07422-.07422.17969-.1172.11719-.02733.11718-.03125.13672.01562.10156.04297.10547.04297.10156.04687.10547.04297.1172.03125.1328.01563.1172.02734.1328.01563.10547-.01563.08985-.0586-.07422-.07421-.10547-.04297-.07422-.07422-.07422-.08984-.14844-.14844-.08593-.0586-.08985-.05859-.07422-.07422-.08984-.0586-.10156-.04687-.1211-.02734-.10156-.04688-.10547-.04296-.11719-.03125-.10156-.04297-.1211-.03125h-.14843l-.11719.03125-.10546.04297-.08594.0625-.17969.11718-.08594.0586-.08984.0586-.10547.04687-.08594.05859-.10547.04297-.10156.04297-.10547.04687-.07422.07422-.05859.08985-.0586.08593-.04687.10547-.0586.08594-.07421.07422-.13281-.01172-.1172-.03125h-.11718l-.07422.07422-.08984.0586-.07422.07421-.08984.0586-.08594.05859-.10547.04687-.10156.04297-.13672.01563-.10156-.04297-.14844-.14844-.10547-.04688h-.08594l-.10547.04688-.10156.04297-.1211.03125-.11718-.03125-.07422-.07422v-.11719l.03125-.1211.07422-.0703.0586-.08985.07421-.07422.11719-.03125.10547-.04296h.29297l.13281-.01563.13672-.01563.10156-.04296.08985-.0586.10156-.04687.08984-.0586.13281-.01171.08985.05859.13281.01172.08984-.0586.08594-.05859.10547-.04297.08984-.0586.08594-.0625.08985-.05859.14843-.14843.0586-.08594.05859-.08985.10547-.04296.13281-.01563.11719.02735.1211.03125.05859-.0586.05859-.08984.03125-.26563.02734-.11719.10547.01172.13281.01563.10157-.04297.08984-.0586.0586-.08984.07421-.07422.0586-.08984.04687-.10156.01172-.13281-.01172-.13282-.04687-.10547-.14844-.14843-.0586-.08985-.05859-.08594-.04297-.10546v-.44532l.01563-.1328v-.14845l.01172-.1328-.0586-.0586-.08984.0586-.10156-.04298-.17969-.11719-.08594-.05859-.0625-.08984-.0586-.08985-.07421-.07421-.08594-.0586-.1211.03125-.10155.01172-.10547.04688-.08594.05859-.10547.04297-.14844.14844-.08984.05859-.08594.0586-.08984.0625-.10547.04296-.13281.01563v-.1211l.10547-.04297.11718-.03125.07422-.0703.04297-.10548v-.14844l-.02734-.11718-.14844-.14844-.13281-.01563h-.14844l-.11719.03125-.10547.04297-.10156.04297-.08984.0625-.11719.02735-.07422-.07422.01172-.13281-.04297-.10157-.04297-.10547-.08984-.05859-.11719.02734-.1211.03125-.11718.03125-.10156.04297-.1211.03125-.10156.04297-.10547.04297-.08984.0586-.10156.01562v-.11719l.01562-.13281-.0586-.08985-.07421.04297-.14844.14844-.0586.08985-.07421.07421-.04688.10547-.04296.10156-.07422.07422-.0586.08985-.07422.07422-.05859.08593-.07422.07422-.08984.0625-.07422.07031-.07422.07422-.10156.01563-.13281.01562-.10547-.04296v-.1211l.14843-.14844.04297-.10156.0586-.08984.04687-.10156.04297-.10547.0586-.08985.03124-.11719.04297-.10156.03125-.1211.02735-.11718.04687-.10547.04297-.10156.04297-.10547.07422-.07031.08984-.0625.08985-.0586.10156-.04296h.29687l.26563-.03125.10547-.04297-.07422-.07422-.11719-.03125-.10547-.04297-.08984-.0586-.10156-.04687-.08985-.0586-.10156-.04296-.10547-.04297-.08984-.0625-.08594-.0586-.10547-.04296-.10156-.04297-.1211-.03125-.11718-.03125-.10157-.04297L297.5 410.25l-.10156-.04297-.08985-.0586-.04296-.10546-.01563-.13281.10156-.04297.13281-.01563.13672.01563.13282-.01563.10156-.04297.0586-.08984.01562-.10547-.08985-.0586-.07421-.07421-.10157-.04297-.08984-.0586-.14844-.14843-.04297-.10547-.01562-.13281v-.29297l-.0586-.08985-.08984-.05859-.07422-.07422-.04297-.10547-.03125-.11718-.0586-.08985-.07421-.07422-.11719-.02734-.07422-.07422-.08984-.0586-.08984-.0625-.08594-.05859-.07422-.07421-.0586-.08594-.04687-.10547-.08594-.0586-.14843-.14843-.19532-.0586-.1328.01563-.10157.04297-.07422.07422-.04688.10156-.04296.10547-.0586.08984-.0586.08594-.29687.29687-.08984.0586h-.08594l-.0625-.08594-.04297-.10547.03125-.11719.0586-.08984.02734-.11719-.01172-.13281-.08984-.0625-.10547.04688-.11719.02734-.11719.03125-.26953.17578-.10156.04688-.11719.02734-.10546.04687-.08985.0586-.10156.04297-.0586-.08594-.04687-.10547.01563-.13281.04687-.10547.07031-.07422.07422-.07031.0586-.08985v-.14843l-.04297-.10547h-.23829l-.10156.04687-.03125.11719-.02734.11719-.03125.1211-.07422.04296-.13281.01563-.07422-.04688-.04297-.10156-.04297-.10547-.04687-.10156-.04297-.10547-.1211.03125-.10156.04297-.13281.01562-.11719.03125-.10547.04297-.08984.0586-.10156.04687-.1211.02734-.13281.01563-.10156-.04297-.0586-.08985-.04687-.10546-.04297-.10157-.04297-.10546v-.1172l.0586-.08984.08593-.05859.17969-.11719.10156-.04687.10547-.04297.10547-.0586.10156-.04296.08985-.0625.10156-.04297.10547-.0586.10156-.04687.08984-.0586.10547-.04296.10156-.04297.08985-.0625.10156-.04297.13672-.01563.11719.03125.10156.04297.1211.03125.10156.04297.10546.04688.10157.04296.10547.04297.10156.04688.10547.04297.10156.04297.10547.04687.08594.0586.10546.04296.1172.03125.10546.04297.10156.04688.08985.0586.10547.04296.10156.04297.10547.04687.11719.02735.10156.04687.1211.02735h.14843l.08594-.0586.01562-.10156.0586-.08984-.02735-.1172-.07422-.07421-.11719-.17969-.07421-.07422-.08985-.07421-.17969-.1172-.08593-.05859-.10547-.04296-.10156-.04688-.26954-.17578-.05859-.08985-.07422-.07421-.0586-.08985-.04296-.10156-.03125-.11719-.01563-.13672v-.5625l-.01171-.1328-.01563-.13282-.03125-.11719-.01562-.13281-.01172-.13281-.03125-.1211-.22266-.22265-.0586-.08594-.01562-.10547.03125-.11719.13281-.01562v-91.41406H172.9922v1.45312l-.0586.23438-.35156 1.05078-.17187.52343-.1172.34766-.17577.41016-.11719.17187-.23438.29297-.23046.0586h-.35157l-.11718.05859-.23047.40625v.29297l.11719.17578.23046.23047.1172.23437.64062.75781.29297.46485.17578.23437.23047.35156.23437.34766.64063.8164.17578.46485.17187.41016.11719.69531.17578.46875.11719 1.39844.0586.46484v.875l.11718 1.04688v4.78125l-.0586.46484-.35156 1.28125-.17578.52344-.11328.41015-.35156.9297L172.93359 336l-.23437.58203-.11719.17578-.17187.34766-.17578.40625-.35157.8164-.0586.29297-.11327.29297-.11719.28906-.0586.17579-.11718.875-.0586.40625-.05859.11718-.0586.17579-.05859.17187-.23047.52734-.11718.17188v.23437l-.11719.23438-.0586.17187-.17577.58594v.28906l-.0586.17579v.29296l-.0586.11329-.05859.52734v.17187l-.05468.23438v2.6211l-.17578.8164-.1172.17578-.17577.23438-.1172.17187-.11327.23438-.58594.93359-.23047.28906-.29297.46485-.17578.23437-.28906.35156-.35156.69922-.11328.23047-.17579.41016-.17578.23046-.40625.52735-.8164.69922-.29297.17187-.28906.23438-.17579.11719-.17578.17578-.52344.40625-.52734.17578-.17187.17578-.23438.05469-.64062.17578h-.75782m12.21094 31.02344l-1.07422.44921.35938.89454 1.25-.71485.44531-.53906-.98047-.08985"/><path fill="#d3d3d3" fill-opacity="0" fill-rule="evenodd" d="M201.50781 416.59766h-.89453l.44922.6289.98047.35938.80469-.08985.4453-.98828-.17577.08985-.71485-.35547-.89453.35547m154.6211 59.0703l-.0586-.52343v-.29297l.11328-.29297.0586-.23046.46875-.46875h.11328l.11719-.11329.11718-.05859h.17579l.23437-.0586h.34766l.23437.0586.11719.0586.23047.17187.0586.17578.11718.58203v.29297l-.11719.17578-.17187.28906-.17579.17579-.52734.52343-.23047.23438-.11719.0586h-.17578l-.11718-.0586-.40625-.29297-.17579-.11719-.11718-.0586-.0586-.11327-.05468-.1172m6.64062-10.95702l-.0586-.17188v-1.10937l.0586-.17188.17578-.0586.17188-.05858h.17578l.23437-.0586.1172.0586.05858.69921-.05859.17188-.11719.17578-.11718.0586-.23438.52343-.11328.0586h-.23438l-.05859-.1172m9.61328-14.39062l-.11719-.17578v-.69922l.29297-.875.1172-.17187.17577-.35156.11328-.23047.1172-.29297.35155-.75781.1172-.23047.17187-.23438h.17578l.11719-.0586h.64062l.11719.0586.23437.23438.17188.11328.35156.29297.11719.11718.11328.17579v.11328l.11719.05859.11718.11719v.69922l-.05859.17578v.23047l-.0586.17578-.34765 1.05078-.11719.23047-.11719.23437-.11718.0586-.23047.23437-.64063.28906h-.875l-.41015-.11718-.64063-.46485"/><path fill="none" stroke="#bebebe" stroke-linecap="round" stroke-linejoin="round" stroke-miterlimit="10" stroke-width=".5" d="M467.95703 311.69531H144.02734v168.625h323.9297v-168.625"/><g clip-path="url(#a)"><path fill="#fff" fill-opacity="0" fill-rule="evenodd" d="M144 475.89063v4.4375h.0039H144V311.67188h.0039H144v164.21875"/></g><g clip-path="url(#b)"><path fill="#fff" fill-opacity="0" fill-rule="evenodd" d="M144.0039 480.32813V311.67188h22.1875v123.1875l-1.95312 1.08593-2.48437 2.51953-1.64844 1.91797 1.0625 4.4375.58594.83594 1.1328-.83594 3.3047-1.64453 4.4375.61328 3.0664-3.40625-3.0664-2.78906-2.81641-1.64844-1.6211-1.08594v-123.1875h48.82423v113.02344l-4.44141 1.35156-4.4375-.78515-4.4375.28906-4.4375.8125-1.0039.70703 1.0039.84766 3.35547 3.58984 1.08203.8789 4.4375 1.57813 4.4375.38282 4.4414-1.61329.91407-1.22656.67578-4.4375-1.58984-2.375V311.67187h8.875v115.17188l-.23829.22656.23828.17969 4.40235 4.25781.03516.02344 3.65234 4.41406.78516.71485 1.24218-.71485-1.24219-.875-4.41015-3.5625-.02734-.03515-4.26563-4.40235-.17188-.22656V311.67187h150.90235V449.2422l-.01563.01953.01563.01172.01562-.01172-.01562-.01953V311.67188h8.8789v148.96484l-.78906 1.9375.78906 1.57031 1.31641 2.8711-1.3164 2.04687-1.05079 2.39063 1.05079 4.35156 3.45703-4.35156.98046-.54297 1.72657-3.89454-1.72656-3.19921-2.78907-1.2422-1.64844-1.9375V311.67189h84.32422v168.65625h-73.77734l-1.67188-2.44922-4.4375-.58985-3.93359 3.03906H144.00391"/></g><path fill="#50fcfc" fill-rule="evenodd" d="M161.16797 444.82031l-1.0625-4.4375 1.64844-1.91797 2.48437-2.51953 1.95313-1.08594 1.62109 1.08594 2.8164 1.64844 3.06641 2.78906-3.0664 3.40625-4.4375-.61328-3.3047 1.64453-1.1328.83594-.58594-.83594m36.09375-16.90234l-1.0039-.84766 1.0039-.70703 4.4375-.8125 4.4375-.28906 4.4375.78515 4.4414-1.35156 1.58985 2.375-.67578 4.4375-.91406 1.22656-4.44141 1.61329-4.4375-.38282-4.4375-1.57812-1.08203-.8789-3.35547-3.58985m26.6289-.66797l-.23828-.17969.23828-.22656.17188.22656 4.26563 4.40235.02734.03515 4.41016 3.5625 1.24218.875-1.24219.71485-.78515-.71485-3.65234-4.41406-.03516-.02344-4.40234-4.25781m150.90234 22.02344l-.01563-.01172.01563-.01953.01562.01953-.01562.01172m8.8789 26.53125l-1.05078-4.35156 1.05079-2.39063 1.3164-2.04688-1.3164-2.87109-.78907-1.57031.78906-1.9375 1.64844 1.9375 2.78906 1.24219 1.72657 3.19921-1.72656 3.89454-.98047.54296-3.45704 4.35157"/><g clip-path="url(#c)"><path fill="#50fcfc" fill-rule="evenodd" d="M384.17578 480.32813h10.04297l-1.67188-2.44922-4.4375-.58985-3.93359 3.03906"/></g><g clip-path="url(#d)"><path fill="#fff" fill-opacity="0" fill-rule="evenodd" d="M467.9961 480.32813H468V311.67188h-.0039H468v168.65625h-.0039"/></g><g clip-path="url(#e)"><path fill="none" stroke="#000" stroke-linecap="round" stroke-linejoin="round" stroke-miterlimit="10" stroke-width=".5" d="M147.49219 480.71094l-6.98438-.76563"/></g><g clip-path="url(#f)"><path fill="none" stroke="#000" stroke-linecap="round" stroke-linejoin="round" stroke-miterlimit="10" stroke-width=".5" d="M147.49219 480.71094l.91015 2.27734"/></g><g clip-path="url(#g)"><path fill="none" stroke="#000" stroke-linecap="round" stroke-linejoin="round" stroke-miterlimit="10" stroke-width=".5" d="M160.8125 480.64453l-6.9961-.6289"/></g><g clip-path="url(#h)"><path fill="none" stroke="#000" stroke-linecap="round" stroke-linejoin="round" stroke-miterlimit="10" stroke-width=".5" d="M160.8125 480.64453l.95313 2.26172"/></g><g clip-path="url(#i)"><path fill="none" stroke="#000" stroke-linecap="round" stroke-linejoin="round" stroke-miterlimit="10" stroke-width=".5" d="M159.79688 480.55078l.47656 1.13281"/></g><g clip-path="url(#j)"><path fill="none" stroke="#000" stroke-linecap="round" stroke-linejoin="round" stroke-miterlimit="10" stroke-width=".5" d="M174.11719 480.77344l-6.97266-.89063"/></g><g clip-path="url(#k)"><path fill="none" stroke="#000" stroke-linecap="round" stroke-linejoin="round" stroke-miterlimit="10" stroke-width=".5" d="M174.11719 480.77344l.86719 2.29297"/></g><g clip-path="url(#l)"><path fill="none" stroke="#000" stroke-linecap="round" stroke-linejoin="round" stroke-miterlimit="10" stroke-width=".5" d="M173.10156 480.64453l.4336 1.14844"/></g><g clip-path="url(#m)"><path fill="none" stroke="#000" stroke-linecap="round" stroke-linejoin="round" stroke-miterlimit="10" stroke-width=".5" d="M187.41797 480.875l-6.94531-1.08984"/></g><g clip-path="url(#n)"><path fill="none" stroke="#000" stroke-linecap="round" stroke-linejoin="round" stroke-miterlimit="10" stroke-width=".5" d="M187.41797 480.875l.80078 2.3164"/></g><g clip-path="url(#o)"><path fill="none" stroke="#000" stroke-linecap="round" stroke-linejoin="round" stroke-miterlimit="10" stroke-width=".5" d="M186.40625 480.71484l.40234 1.16016"/></g><g clip-path="url(#p)"><path fill="none" stroke="#000" stroke-linecap="round" stroke-linejoin="round" stroke-miterlimit="10" stroke-width=".5" d="M200.7539 480.71484l-6.98437-.77343"/></g><g clip-path="url(#q)"><path fill="none" stroke="#000" stroke-linecap="round" stroke-linejoin="round" stroke-miterlimit="10" stroke-width=".5" d="M200.7539 480.71484l.90235 2.28125"/></g><g clip-path="url(#r)"><path fill="none" stroke="#000" stroke-linecap="round" stroke-linejoin="round" stroke-miterlimit="10" stroke-width=".5" d="M199.73438 480.60547l.45312 1.13672"/></g><g clip-path="url(#s)"><path fill="none" stroke="#000" stroke-linecap="round" stroke-linejoin="round" stroke-miterlimit="10" stroke-width=".5" d="M214.07422 480.65625l-6.9961-.65234"/></g><g clip-path="url(#t)"><path fill="none" stroke="#000" stroke-linecap="round" stroke-linejoin="round" stroke-miterlimit="10" stroke-width=".5" d="M214.07422 480.65625l.94531 2.26172"/></g><g clip-path="url(#u)"><path fill="none" stroke="#000" stroke-linecap="round" stroke-linejoin="round" stroke-miterlimit="10" stroke-width=".5" d="M227.40234 480.35156l-7.02343-.04687"/></g><g clip-path="url(#v)"><path fill="none" stroke="#000" stroke-linecap="round" stroke-linejoin="round" stroke-miterlimit="10" stroke-width=".5" d="M227.40234 480.35156l1.14063 2.17578"/></g><g clip-path="url(#w)"><path fill="none" stroke="#000" stroke-linecap="round" stroke-linejoin="round" stroke-miterlimit="10" stroke-width=".5" d="M240.71484 480.16406l-7.01953.33203"/></g><g clip-path="url(#x)"><path fill="none" stroke="#000" stroke-linecap="round" stroke-linejoin="round" stroke-miterlimit="10" stroke-width=".5" d="M240.71484 480.16406l1.25391 2.10938"/></g><g clip-path="url(#y)"><path fill="none" stroke="#000" stroke-linecap="round" stroke-linejoin="round" stroke-miterlimit="10" stroke-width=".5" d="M253.83984 479.17578l-6.63672 2.3086"/></g><g clip-path="url(#z)"><path fill="none" stroke="#000" stroke-linecap="round" stroke-linejoin="round" stroke-miterlimit="10" stroke-width=".5" d="M253.83984 479.17578l1.80078 1.66406"/></g><g clip-path="url(#A)"><path fill="none" stroke="#000" stroke-linecap="round" stroke-linejoin="round" stroke-miterlimit="10" stroke-width=".5" d="M267.25 479.4961l-6.82813 1.66406"/></g><g clip-path="url(#B)"><path fill="none" stroke="#000" stroke-linecap="round" stroke-linejoin="round" stroke-miterlimit="10" stroke-width=".5" d="M266.25781 479.73828l.8125.91797"/></g><g clip-path="url(#C)"><path fill="none" stroke="#000" stroke-linecap="round" stroke-linejoin="round" stroke-miterlimit="10" stroke-width=".5" d="M280.66406 480.23438l-7.02734.1914"/></g><g clip-path="url(#D)"><path fill="none" stroke="#000" stroke-linecap="round" stroke-linejoin="round" stroke-miterlimit="10" stroke-width=".5" d="M279.64063 480.26172l.60546 1.0664"/></g><g clip-path="url(#E)"><path fill="none" stroke="#000" stroke-linecap="round" stroke-linejoin="round" stroke-miterlimit="10" stroke-width=".5" d="M293.5664 481.98438l-6.19921-3.3086"/></g><g clip-path="url(#F)"><path fill="none" stroke="#000" stroke-linecap="round" stroke-linejoin="round" stroke-miterlimit="10" stroke-width=".5" d="M306.85547 482.03125l-6.14844-3.40625"/></g><g clip-path="url(#G)"><path fill="none" stroke="#000" stroke-linecap="round" stroke-linejoin="round" stroke-miterlimit="10" stroke-width=".5" d="M318.97656 483.29688l-3.76172-5.9375"/></g><g clip-path="url(#H)"><path fill="none" stroke="#000" stroke-linecap="round" stroke-linejoin="round" stroke-miterlimit="10" stroke-width=".5" d="M331.36719 483.71094l-1.91406-6.76172"/></g><g clip-path="url(#I)"><path fill="none" stroke="#000" stroke-linecap="round" stroke-linejoin="round" stroke-miterlimit="10" stroke-width=".5" d="M341.01953 482.5664l5.41406-4.47656"/></g><g clip-path="url(#J)"><path fill="none" stroke="#000" stroke-linecap="round" stroke-linejoin="round" stroke-miterlimit="10" stroke-width=".5" d="M353.59375 481.0039l6.89453-1.34765"/></g><g clip-path="url(#K)"><path fill="none" stroke="#000" stroke-linecap="round" stroke-linejoin="round" stroke-miterlimit="10" stroke-width=".5" d="M366.9414 481.16016l6.82813-1.66407"/></g><g clip-path="url(#L)"><path fill="none" stroke="#000" stroke-linecap="round" stroke-linejoin="round" stroke-miterlimit="10" stroke-width=".5" d="M380.59375 482.01953l6.15625-3.38281"/></g><g clip-path="url(#M)"><path fill="none" stroke="#000" stroke-linecap="round" stroke-linejoin="round" stroke-miterlimit="10" stroke-width=".5" d="M394.1211 478.29688l5.73046 4.0625"/></g><g clip-path="url(#N)"><path fill="none" stroke="#000" stroke-linecap="round" stroke-linejoin="round" stroke-miterlimit="10" stroke-width=".5" d="M412.33203 477.46094l-4.0625 5.73437"/></g><g clip-path="url(#O)"><path fill="none" stroke="#000" stroke-linecap="round" stroke-linejoin="round" stroke-miterlimit="10" stroke-width=".5" d="M426.32031 478.08594l-5.41015 4.48437"/></g><g clip-path="url(#P)"><path fill="none" stroke="#000" stroke-linecap="round" stroke-linejoin="round" stroke-miterlimit="10" stroke-width=".5" d="M440.15625 478.9336l-6.44922 2.78906"/></g><g clip-path="url(#Q)"><path fill="none" stroke="#000" stroke-linecap="round" stroke-linejoin="round" stroke-miterlimit="10" stroke-width=".5" d="M440.15625 478.9336l1.91797 1.53124"/></g><g clip-path="url(#R)"><path fill="none" stroke="#000" stroke-linecap="round" stroke-linejoin="round" stroke-miterlimit="10" stroke-width=".5" d="M452.91016 478.03906l-5.32813 4.57813"/></g><path fill="none" stroke="#000" stroke-linecap="round" stroke-linejoin="round" stroke-miterlimit="10" stroke-width=".5" d="M452.91016 478.03906l2.28515.89453"/><g clip-path="url(#S)"><path fill="none" stroke="#000" stroke-linecap="round" stroke-linejoin="round" stroke-miterlimit="10" stroke-width=".5" d="M466.33594 478.17188l-5.55078 4.3125"/></g><path fill="none" stroke="#000" stroke-linecap="round" stroke-linejoin="round" stroke-miterlimit="10" stroke-width=".5" d="M465.52734 478.80078l1.1211.5039"/><g clip-path="url(#T)"><path fill="none" stroke="#000" stroke-linecap="round" stroke-linejoin="round" stroke-miterlimit="10" stroke-width=".5" d="M147.45703 467.64453l-6.91406-1.26172"/></g><path fill="none" stroke="#000" stroke-linecap="round" stroke-linejoin="round" stroke-miterlimit="10" stroke-width=".5" d="M147.45703 467.64453l.74219 2.33985m-1.75-2.52344l.375 1.16797m13.94531-.96485l-6.90625-1.30078m6.90625 1.30078l.73047 2.33985m-1.73828-2.53125l.36719 1.17187m14-1.30469l-6.9961-.65234m6.9961.65234l.9453 2.26563m-1.96483-2.35938l.47265 1.13282m13.85938-1.03125l-6.9922-.66797m6.9922.66797l.9414 2.26953m-1.95703-2.36719l.46875 1.13281m13.875-1.53515l-7.01953.33203m7.01953-.33203l1.2539 2.11328m-2.27343-2.0625l.625 1.05468m13.66797-1.49609l-6.9375 1.11328m6.9375-1.11328l1.48047 1.95703m-2.48828-1.79687l.73828.98047m13.58984-1.1172l-6.94531 1.06641m6.94531-1.0664l1.46875 1.96484m-2.48047-1.8086l.73438.98048m13.48047-1.63282l-6.71875 2.0586m6.71875-2.0586l1.73437 1.73438m-2.71484-1.4336l.8711.8672m13.10546-1.89844l-6.08203 3.51953m6.08203-3.51953l2.08203 1.29687m-2.96875-.78516l1.04297.64844m12.88672-1.5625l-5.53906 4.32422m5.53906-4.32422l2.24219.9961m11.16015-.87891l-5.71484 4.08984m5.71484-4.08984l2.19922 1.08984m10.8086-1.46093l-5.09766 4.83203m5.09765-4.83203l2.32813.77734m11.35156-.32422l-5.82812 3.92578m5.82812-3.92578l2.16406 1.15625m11.62891-.10547l-6.78516 1.82422m5.79688-1.5586l.83984.89454m13.51172-.95313l-6.88281 1.41016m5.88281-1.20703l.78125.94531m13.04688-2.34766l-5.90625 3.8086m5.04687-3.2539l1.07031.59765m11.16016-2.61328l-2.01953 6.73047m1.72656-5.75l1.20313-.2422m10.82422-.83984l1.14062 6.9336m-.97266-5.92578l.97266-.74219m9.25781 2.78125l6.97657.83984m-5.96094-.71875l-.44531-1.14453m17.98437-1.60156l-3.5039 6.08984m2.99609-5.20312l1.22656.03906m12.9336-.70703l-4.1797 5.65234m4.1797-5.65234l2.42578.36328m10-.83984l-2.39844 6.60547m2.39844-6.60547l2.42968-.34375m12.04688 1.04297l-4.72266 5.20703m4.72266-5.20703l2.3789.60546m11.65625.3086l-6.16015 3.38281m6.16015-3.38281l2.05079 1.34375m10.57812-2.22266l-4.78906 5.14063m4.09375-4.39453l1.1836.3164"/><g clip-path="url(#U)"><path fill="none" stroke="#000" stroke-linecap="round" stroke-linejoin="round" stroke-miterlimit="10" stroke-width=".5" d="M147.45703 454.32031l-6.91406-1.24219"/></g><path fill="none" stroke="#000" stroke-linecap="round" stroke-linejoin="round" stroke-miterlimit="10" stroke-width=".5" d="M147.45703 454.32031l.7539 2.33203m12.4961-2.04297l-6.78516-1.82421m6.78516 1.82422L161.25781 457m-1.53515-2.65625l.27343 1.19531m14.04297-.99219l-6.82031-1.6953m6.82031 1.6953l.59766 2.37891m12.77734-2.66015l-6.9375-1.13282m6.9375 1.13281l.78906 2.32032m12.57032-2.98438l-7.02344.1914m7.02344-.1914l1.21094 2.13672m11.96093-3.03906l-6.73828 2m6.73828-2l1.71875 1.7461m11.625-1.64063l-6.79687 1.78906m6.79687-1.78906l1.66406 1.80468m11.5547-2.10937l-6.60548 2.39844m6.60547-2.39844l1.82422 1.64453m11.02344-2.52344l-5.66797 4.15235m5.66797-4.15235l2.20703 1.06641m10.83203-1.39453l-5.11719 4.8125m5.1172-4.8125l2.32421.78515m10.83203-.9453l-4.80078 5.1289m4.80078-5.1289l2.3711.64062m10.86328-.71485l-4.64063 5.27735m4.64063-5.27735l2.39062.56641m10.72656-.72656L301.65625 456.5m4.2461-5.60156l2.42578.39062m10.71093-.51562l-3.88672 5.85156m3.32422-5l1.21875.11719m13.16797-.5586l-4.90234 5.03125m4.1875-4.30078l1.17969.34375m11.6914-1.82422l-2.58984 6.53125m2.21484-5.58203l1.21875-.13672m10.79297-1.03906l.76953 6.98438m-.65625-5.96875l1.01172-.69141m13.77734-.13281L369.15234 457m2.0586-5.64063l1.21484-.17187m13.39844-.26563l-4.30469 5.5547m3.67578-4.7461l1.21094.20703m13.57813-.07422l-5.9961 3.66797m5.1211-3.13281l1.05859.625m13.34766-.73828l-6.4297 2.82812m6.4297-2.82812l1.92968 1.51562m11.4336-1.40625L420.35156 455m6.52735-2.60547l1.875 1.58594m11.5664-1.20703l-6.77734 1.84765m6.77734-1.84765l1.6836 1.78906m11.41406-2.3789l-6.34375 3.02734m6.34375-3.02735l1.97266 1.46094m11.30078-1.54297l-6.25782 3.19532"/><g clip-path="url(#V)"><path fill="none" stroke="#000" stroke-linecap="round" stroke-linejoin="round" stroke-miterlimit="10" stroke-width=".5" d="M466.6914 452.10156l2.01173 1.40625"/></g><g clip-path="url(#W)"><path fill="none" stroke="#000" stroke-linecap="round" stroke-linejoin="round" stroke-miterlimit="10" stroke-width=".5" d="M147.46484 440.96484l-6.92968-1.16406"/></g><path fill="none" stroke="#000" stroke-linecap="round" stroke-linejoin="round" stroke-miterlimit="10" stroke-width=".5" d="M147.46484 440.96484l.77735 2.32813m12.3711-1.69531l-6.59767-2.42579m6.59766 2.42579l.33203 2.42968m12.55078-1.60937l-5.73047-4.07031m5.73047 4.0703l-.3164 2.4336m13.8164-2.72656l-6.10156-3.48437m5.21484 2.98046l-.03906 1.22657m14.57031-1.51172l-6.76171-1.90625m5.77734 1.6289l.26172 1.19922m13.91797-3.1836l-6.51953 2.6172m5.5703-2.23438l.9375.78906m13.50392-.58984l-6.875 1.45703m5.875-1.2461l.78906.94141m12.80078-2.66015l-5.42578 4.46875m5.42578-4.46875l2.26562.9414m9.26172-2.09765l-1.85156 6.78125m1.58203-5.79297l1.19922-.26953m14.02344.26953l-5.125 4.8086m5.125-4.8086l2.32031.78906m10.48438-1.23828l-4.10547 5.70313m4.10547-5.70313l2.43359.33203m9.76172-.86719l-1.86328 6.77344m1.86328-6.77344l2.39453-.53515m11.70703.85937l-3.4375 6.1289m3.4375-6.1289l2.45312.05469m11.48829.39063L314.75 443m4.00781-4.47266l1.1914.29297m13.44532-.29687l-5.96484 3.71875m5.09375-3.17578l1.0625.61328m12.7539-1.64063l-5.23047 4.6914m5.23047-4.6914l2.3047.83985m6.98437-1.71094l2.82421 6.4336m-2.41406-5.5l.76172-.96094m11.58203.33593l3.94531 5.8164m-3.37109-4.97265l.57422-1.08203m15.71875 6.28516l-3.15625-6.27735m2.69531 5.36329l-.70703 1m16.38672-2.75782l-6.96484-.9375m6.96484.9375l.85156 2.30469m12.4375-3.39844l-6.91406 1.2539m6.91406-1.2539l1.51953 1.92578m11.7422-2.16796l-6.8086 1.73437m6.8086-1.73437l1.65233 1.8125m-2.64062-1.5586l.82422.90625m13.5664-.70312l-6.98046.82422m6.98046-.82422l1.39844 2.01562m-2.41406-1.89844l.69922 1.00782m13.50781-1.71875l-6.73437 2.01172m6.73437-2.01172l1.72266 1.74609m-2.70313-1.45312l.86328.87109m13.57813-.21875l-7.02735.1211"/><g clip-path="url(#X)"><path fill="none" stroke="#000" stroke-linecap="round" stroke-linejoin="round" stroke-miterlimit="10" stroke-width=".5" d="M467.07422 440.32422l1.1875 2.14453"/></g><path fill="none" stroke="#000" stroke-linecap="round" stroke-linejoin="round" stroke-miterlimit="10" stroke-width=".5" d="M466.05078 440.33984l.59766 1.07422"/><g clip-path="url(#Y)"><path fill="none" stroke="#000" stroke-linecap="round" stroke-linejoin="round" stroke-miterlimit="10" stroke-width=".5" d="M147.44922 427.73438l-6.89844-1.32813"/></g><path fill="none" stroke="#000" stroke-linecap="round" stroke-linejoin="round" stroke-miterlimit="10" stroke-width=".5" d="M147.44922 427.73438l.72266 2.34375m12.12109-1.14844l-5.95703-3.72266m5.95703 3.72266l-.16797 2.44922m12.57422-1.46875l-4.13672-5.6836m4.13672 5.6836l-1.07422 2.20703m14.32422-2.16406l-4.00781-5.76954m3.42578 4.9297l-.5586 1.09374m14.88672-.60547l-4.86719-5.0664m18.15625 5.08984l-4.8203-5.11328m17.89452-.20703l-4.33593 5.52734m3.70703-4.72266l1.20703.21485m13.98828.9375l-6.83984 1.61719m5.84375-1.38282l.8125.92188m13.3828-1.54297l-6.60937 2.38672m19.25-3.52344l-5.2578 4.66016m4.49218-3.98438l1.14844.42969m12.61718-1.42188l-4.625 5.29297m3.94922-4.52343l1.19531.28125m12.61329-1.19532l-4.26563 5.58203m3.64844-4.76953l1.20703.19922m13.48437-.21484l-5.78515 3.98828m4.94531-3.40625l1.08984.5625m12.76172-1.52344l-5.17578 4.7461m5.17578-4.7461l2.31641.8164m11.92187 1.66798l-7.02343-.22266m7.02343.22266l1.08594 2.19922M347 425.79687l-6.54688 2.54688M347 425.79687l1.85937 1.60157m11.5586-1.30078l-6.7539 1.9414m6.7539-1.9414l1.70703 1.76562m11.71484-1.2461l-6.96875.90235m5.95703-.76953l.70704 1m11.82421-3.76172l-3.3789 6.16016m2.89062-5.26563l1.22657.01563m14.3125 2.96093l-6.84766-1.58203m6.84766 1.58203l.63671 2.3672m-1.6328-2.59766l.3164 1.18359m14.07812-1.98047l-7.01172.47266m7.01172-.47266l1.29297 2.08594m-2.3164-2.01563l.64843 1.03907m13.48828-2.06641l-6.60937 2.38672m6.60937-2.38672l1.82032 1.64453m-2.78125-1.29687l1.8164 1.64453m12.45703-1.9961l-6.60546 2.39454m6.60546-2.39454l1.82032 1.64454m-2.78125-1.29688l.91015.82422m13.44922-.90625L446.85937 428m6.77344-1.86328l1.6875 1.78125m-2.67187-1.51172l.84375.89063m13.57031-.54688l-7 .63672"/><g clip-path="url(#Z)"><path fill="none" stroke="#000" stroke-linecap="round" stroke-linejoin="round" stroke-miterlimit="10" stroke-width=".5" d="M467.0625 426.75l1.34375 2.05078"/></g><path fill="none" stroke="#000" stroke-linecap="round" stroke-linejoin="round" stroke-miterlimit="10" stroke-width=".5" d="M466.04297 426.84375l.67187 1.02344"/><g clip-path="url(#aa)"><path fill="none" stroke="#000" stroke-linecap="round" stroke-linejoin="round" stroke-miterlimit="10" stroke-width=".5" d="M147.36719 414.76172l-6.73438-2.01563"/></g><path fill="none" stroke="#000" stroke-linecap="round" stroke-linejoin="round" stroke-miterlimit="10" stroke-width=".5" d="M146.38672 414.46875l.24219 1.20313m12.66015.98828l-3.94922-5.8125m3.375 4.96484l-.5703 1.08594m14.60937-.34766l-4.25-5.59375m4.25 5.59375l-1.02735 2.22656m14.83985-2.68359l-5.2422-4.67969m5.2422 4.67969l-.58594 2.38281m14.40625-3.1211l-6.2539-3.20312m5.34374 2.73828l.01953 1.22657M214 414.54297l-6.84766-1.57813m19.50782-1.37109l-5.53907 4.32031m19.58985-2.375l-7.01172.42969m5.99219-.36719l.64062 1.04688m13.67578-.46875l-6.97656-.85156m5.96094.72656l.4414 1.14453m13.89063-1.86719l-6.97656.84375m5.96093-.72266l.70313 1.00782m13.5664-1.48438l-6.85546 1.55469m5.85547-1.32813l.80468.9297m13.51953-1.11329l-6.87109 1.46485m6.8711-1.46485l1.57812 1.8789m11.60937-2.32421l-6.61718 2.35937m6.61718-2.35937l1.8125 1.65625m11.64454-1.13281l-6.90235 1.3125m6.90235-1.3125l1.53515 1.91406m11.71875-.33594l-6.78125-1.84375m6.78125 1.84375l.54297 2.39453m12.875-2.9336l-6.98438-.76562m6.98438.76563l.90625 2.28125m12.42188-2.8789l-7.01172.42968m7.01171-.42969l1.28516 2.08985m11.98438-2.4922l-6.91797 1.23048m6.91797-1.23047l1.51171 1.9336m-2.51953-1.75391l.75782.96484m13.23828-2.11719l-6.26563 3.17969m6.26563-3.17969l2.00781 1.41016m-2.92188-.94922l1.00391.70703m13.42969-.67578l-6.67578 2.1914m6.67578-2.1914l1.76953 1.69922m-2.74219-1.3789l.88672.84765m13.27735-1.48438l-6.4297 2.82813m6.4297-2.82813l1.92968 1.51563m-2.86328-1.10547l.96485.75781m13.33203-1.0586l-6.52344 2.60938m6.52344-2.60937l1.875 1.58203m11.5703-1.1875l-6.78515 1.82031m6.78516-1.82031L442 414.63672m11.54297-2.09375l-6.59375 2.42187m6.59375-2.42187l1.82812 1.63672m-2.78515-1.28516l.91406.82031m13.41016-1.03125l-6.69532 2.13672"/><g clip-path="url(#ab)"><path fill="none" stroke="#000" stroke-linecap="round" stroke-linejoin="round" stroke-miterlimit="10" stroke-width=".5" d="M466.91016 412.6836l1.7539 1.71484"/></g><path fill="none" stroke="#000" stroke-linecap="round" stroke-linejoin="round" stroke-miterlimit="10" stroke-width=".5" d="M465.9336 412.9961l.8789.85546"/><g clip-path="url(#ac)"><path fill="none" stroke="#000" stroke-linecap="round" stroke-linejoin="round" stroke-miterlimit="10" stroke-width=".5" d="M146.90234 398.46094l-5.80468 3.95703"/></g><path fill="none" stroke="#000" stroke-linecap="round" stroke-linejoin="round" stroke-miterlimit="10" stroke-width=".5" d="M146.0586 399.03516l1.08593.5703m12.1836 3.71095l-4.02735-5.75782m3.4414 4.92188l-.55468 1.09375m13.22656.28906l-1.5664-6.85156m1.33984 5.85547l-.92969.80078m14.69531.13672l-2.01562-6.73047m1.72266 5.75l-.8711.86328m14.77344.01563l-2.60547-6.52735m18.13281 3.21094l-7.02734.10156m20.25-.85156l-6.84375 1.60547m5.84766-1.375l.80859.92578m13.5625.10156l-6.96484-.91015m6.96484.91015l.86328 2.29688m12.47266-2.46094l-7.0039-.58203m7.0039.58203l.96875 2.2539m12.3164-3.08593l-6.9453 1.08203m5.93358-.92578l.73438.98047m13.4961-1.5625l-6.75391 1.93359m5.77343-1.65234l.85157.8828m13.29297-1.59374l-6.44922 2.78906m5.51172-2.38281l.95703.76562m13.32031-1.11328l-6.5 2.67188m5.55469-2.28125l.94531.78125m13.57812.21484l-7.02734-.10156m7.02734.10156l1.1211 2.1836m12.1914-2.08594l-7.01953-.29688m7.01953.29688l1.0586 2.21484m12.23047-1.92187L340.23828 400m5.96094.75l.4336 1.14844m13.91796-1.30078l-7.01953-.32032m7.01953.32032l1.05078 2.21875m12.26172-2.58985l-7.01562.42188m7.01562-.42188l1.28125 2.09766m11.14063-4.23438l-5.22657 4.69532m5.22657-4.69532l2.30468.84375m-3.0664-.16015l1.15234.42187m13.375-.47656l-6.1289 3.4414m6.1289-3.4414l2.0625 1.32422m-2.95312-.82422l1.03125.66406m13.43359-.58984l-6.64453 2.28906m6.64453-2.28906l1.79297 1.67578m-2.76172-1.33984l.89844.83593m13.22656-1.55078l-6.32813 3.05078m6.32813-3.05078l1.98047 1.44922m11.33203-1.45703l-6.32422 3.0625m6.32422-3.0625l1.98047 1.44922m11.52344-.96875l-6.70313 2.10547m6.70313-2.10547l1.75 1.72265m-2.72266-1.41796l.8711.86328m13.3164-1.44922l-6.5 2.66406"/><g clip-path="url(#ad)"><path fill="none" stroke="#000" stroke-linecap="round" stroke-linejoin="round" stroke-miterlimit="10" stroke-width=".5" d="M466.8125 399.10547l1.88672 1.5664"/></g><path fill="none" stroke="#000" stroke-linecap="round" stroke-linejoin="round" stroke-miterlimit="10" stroke-width=".5" d="M465.86719 399.49219l.9414.78515"/><g clip-path="url(#ae)"><path fill="none" stroke="#000" stroke-linecap="round" stroke-linejoin="round" stroke-miterlimit="10" stroke-width=".5" d="M146.58203 384.73828l-5.16406 4.76953"/></g><path fill="none" stroke="#000" stroke-linecap="round" stroke-linejoin="round" stroke-miterlimit="10" stroke-width=".5" d="M146.58203 384.73828l2.3164.8125m-3.0703-.11719l1.16015.40625m13.28516 3.1797l-5.91406-3.79298m17.8789 5.01953L169.02344 384m3.21484 6.2461l-1.39844 2.01562m16.47657-4.15235l-6.7422-1.96875m5.76173 1.6797l.25 1.20312m13.70703-.1289l-6.0664-3.54298m5.18359 3.02735l-.04688 1.22656m14.60938-1.57813l-6.79297-1.80859m6.79297 1.8086l.55468 2.38671m12.8086-2.60547l-6.89063-1.37109m6.89063 1.3711l.70703 2.35156m12.67578-3.14063l-7.02344.20703m7.02344-.20703l1.21484 2.13281m11.9922-2.89453l-6.8086 1.73438m6.8086-1.73438l1.65233 1.8125m11.64063-1.89844l-6.76563 1.90235m6.76563-1.90235l1.69531 1.77344m11.61719-1.78515l-6.75781 1.92578m6.75781-1.92578l1.69922 1.76953m11.59765-1.82813l-6.72265 2.04297m6.72265-2.04297l1.73047 1.73828m11.60157-1.68359l-6.75782 1.9336m6.75782-1.9336l1.70312 1.76953m11.6914-1.42187l-6.91796 1.23828m6.91797-1.23828l1.51562 1.92968m11.83203-1.6953l-6.98437.76952m6.98437-.76953l1.38282 2.02735m11.95312-1.65625l-7.02734.02734m6.00781-.02344l.57813 1.07813m13.7578-.9961l-7.02734-.14453m7.02735.14453l1.10547 2.1914m11.91796-3.66405l-6.4453 2.80078m6.4453-2.80078L375.5 387.25m-2.85938-1.1211l.96094.76563m12.97266-1.75l-5.80469 3.95703m5.80469-3.95703l2.17187 1.14063m-3.01562-.56641l1.08594.57031m13.11718-1.07812l-5.89453 3.82422m5.89453-3.82422l2.14454 1.1914m-3-.6328l1.0703.59374m13.08985-1.16797l-5.875 3.85547m5.875-3.85547l2.15235 1.17969m11.03515-1.36328l-5.61719 4.22265m5.6172-4.22265l2.22265 1.03906m11.10937-1.01172l-5.65234 4.16797m5.65234-4.16797l2.21485 1.0586m-3.03516-.45313l1.10547.53125m13.51172-.23437l-6.61719 2.36328m6.61719-2.36328l1.8125 1.65234m11.58594-1.38672l-6.78125 1.83594"/><g clip-path="url(#af)"><path fill="none" stroke="#000" stroke-linecap="round" stroke-linejoin="round" stroke-miterlimit="10" stroke-width=".5" d="M466.95313 386.20703l1.67968 1.78906"/></g><g clip-path="url(#ag)"><path fill="none" stroke="#000" stroke-linecap="round" stroke-linejoin="round" stroke-miterlimit="10" stroke-width=".5" d="M146.91797 371.85156l-5.83594 3.91406"/></g><path fill="none" stroke="#000" stroke-linecap="round" stroke-linejoin="round" stroke-miterlimit="10" stroke-width=".5" d="M146.91797 371.85156l2.16406 1.16016m-3.01172-.58985l2.16406 1.15625m12.58985.0586l-7.01953.33984m7.01953-.33984l1.2539 2.10937m11.08594.4961l-5.0664-4.8711m5.0664 4.8711l-.67187 2.36328m13.67578-2.07422l-4.44531-5.44531m4.4453 5.44531l-.94921 2.26172m15.29297-3.65235l-6.5039-2.66406m6.5039 2.66406l.2461 2.44141m13.29296-3.26953l-6.95312-1.00781m6.95312 1.00781l.83203 2.3086m12.51953-2.7422l-7.02343-.14062m7.02343.14063l1.10938 2.1875m12.20703-2.25782h-7.02734m7.02734 0l1.15234 2.16797m12.14063-2.57812l-6.98047.82031m6.98047-.82031l1.39453 2.01953m11.92969-1.9336l-7 .64844m7-.64844l1.34375 2.05079m11.98047-1.89063l-7.01953.32813m7.01953-.32813l1.2539 2.10938m12.00782-2.58204l-6.91016 1.27344m6.91016-1.27344l1.52343 1.92188m-2.53125-1.73828l.76563.96094m13.48828-1.44532l-6.77344 1.875m6.77344-1.875l1.6875 1.78125m-2.67188-1.5078l.84375.89062m13.50782-.94922l-6.87891 1.4414m6.8789-1.4414l1.57032 1.88672m-2.57031-1.67579l.78515.94141m13.59766-.65234l-7.01172.4414m7.01172-.4414l1.28516 2.08984m12.03515-1.91406l-7.02734.09375m7.02734-.09375l1.1836 2.14844m-2.20313-2.13672l.58984 1.07812m13.7422-1.23828l-7.01954.39063m7.01953-.39063l1.26953 2.09766m-2.29297-2.03906l.63672 1.04687m13.625-1.66016l-6.86718 1.5m6.86718-1.5l1.58594 1.8711m-2.58594-1.65235l.79297.9336m13.24219-1.95313l-6.30469 3.10156m6.30469-3.10156l1.98828 1.4375m-2.90625-.98437l.9961.71484m13.20703-1.22656l-6.2461 3.21875m6.2461-3.21875l2.01562 1.39844m-2.92578-.9297l1.00781.69923m12.88672-1.6914l-5.58594 4.26562m5.58594-4.26563l2.23047 1.02344m-3.04297-.40235l1.11328.51172m13.44531-.39453l-6.44921 2.78906m6.44921-2.78906l1.91797 1.53125m11.20313-1.91406l-6.0586 3.55469m6.0586-3.55469l2.08984 1.28516m-2.96875-.76954l1.04297.64454m12.96094-1.45313l-5.67969 4.14063m5.67969-4.14063l2.20703 1.07422m11.36328-.67188l-6.1875 3.33204"/><g clip-path="url(#ah)"><path fill="none" stroke="#000" stroke-linecap="round" stroke-linejoin="round" stroke-miterlimit="10" stroke-width=".5" d="M466.65625 372.14063l2.03906 1.36328"/></g><g clip-path="url(#ai)"><path fill="none" stroke="#000" stroke-linecap="round" stroke-linejoin="round" stroke-miterlimit="10" stroke-width=".5" d="M147.16406 358.96875l-6.32812 3.05078"/></g><path fill="none" stroke="#000" stroke-linecap="round" stroke-linejoin="round" stroke-miterlimit="10" stroke-width=".5" d="M147.16406 358.96875l1.98047 1.45313m-2.89844-1.01172l1.97657 1.45312m12.42187.75l-6.66016-2.24219m6.66016 2.2422l.40234 2.42187m-1.37109-2.7461l.19922 1.20703m13.85547-.34765l-6.19922-3.3125m6.19922 3.3125l-.00781 2.45312m-.89453-2.9336l-.00391 1.22657m13.80078-.1289l-5.35938-4.54297m5.35938 4.54296l-.52344 2.39844m-.25781-3.0586l-.25781 1.19923m14.73047-1.08203l-6.11328-3.46094m6.11328 3.46094l-.0625 2.45312m13.80468-3.71484l-6.96484-.9336m6.96484.9336l.85157 2.30078m12.48437-2.52344l-7.00781-.48828m7.00781.48828l1 2.23828m-2.01953-2.3086l.5 1.1172m13.84375-1.31641l-7.02734.04688m7.02734-.04688l1.16797 2.16016m12.14062-2.33985l-7.01562.40625m7.01562-.40625l1.27735 2.09766m12.03515-2.125l-7.01172.46094m7.01172-.46094l1.29297 2.08594m12.03125-1.90235l-7.02734.09375m7.02734-.09375l1.17969 2.15235m12.1289-2.32422l-7.01171.4375m7.01172-.4375l1.28515 2.09375m12.02735-2.11328l-7.00782.47656m7.00782-.47656l1.29687 2.08203m-2.3164-2.01172l.64843 1.04297m13.6914-1.05078l-7.01952.35156m7.01953-.35156l1.25781 2.10546m-2.28125-2.05468l.63281 1.05469m13.70703-1.10157l-7.01953.34375m7.01953-.34375l1.25391 2.10938m-2.27734-2.0586l.6289 1.0547m13.70703-1.14845l-7.01562.4336m7.01562-.4336l1.28125 2.08985m-2.30468-2.02735l.64453 1.04297m13.67187-1.32812l-6.97265.875m6.97265-.875l1.41407 2.00781m-2.4297-1.8789l1.41407 2.0039m12.91797-2.13672l-6.97266.88281m6.97266-.8828l1.41406 2.0078m-2.42969-1.8789l1.41407 2.00781m12.83984-2.53125l-6.82422 1.67578m6.82422-1.67578l1.63672 1.82813m-2.6289-1.58594l1.63671 1.82812m12.60938-2.29297l-6.69922 2.1211m6.69922-2.1211l1.7539 1.71875m-2.72656-1.41015l1.75 1.71875m12.5664-1.92969l-6.7578 1.92578m6.7578-1.92578l1.70313 1.76563m-2.6875-1.48829l1.70313 1.76954m12.5586-2.1797l-6.6797 2.1875m6.6797-2.1875l1.76562 1.70313m-2.73829-1.38281l1.76954 1.69922m12.49609-2.07422l-6.63672 2.30078m6.63672-2.30078l1.80078 1.66797m-2.76562-1.33203l1.79687 1.66797m12.16016-2.69141l-5.99219 3.67578m5.99219-3.67578l2.11328 1.24219m-2.98438-.70703l1.0547.62109m12.8125-1.59375l-5.35548 4.55078"/><g clip-path="url(#aj)"><path fill="none" stroke="#000" stroke-linecap="round" stroke-linejoin="round" stroke-miterlimit="10" stroke-width=".5" d="M466.23828 358.21875l2.28125.90234"/></g><g clip-path="url(#ak)"><path fill="none" stroke="#000" stroke-linecap="round" stroke-linejoin="round" stroke-miterlimit="10" stroke-width=".5" d="M147.26563 345.8789l-6.53125 2.59766"/></g><path fill="none" stroke="#000" stroke-linecap="round" stroke-linejoin="round" stroke-miterlimit="10" stroke-width=".5" d="M147.26563 345.8789l1.87109 1.58985m-2.82031-1.21094l.93359.79297m13.33594 1.41406l-6.53906-2.57421m6.53906 2.57421l.27734 2.4375m-1.23047-2.8125l.14063 1.21875m14.03125-.625l-6.34766-3.01171m6.34766 3.01171l.10937 2.45313m-1.03515-2.89063l.05859 1.22657m13.89063-.28516l-5.76563-4.01953m5.76563 4.01953l-.29297 2.4375m-.54688-3.02344l-.14844 1.21875m14.58985-1.1289l-6.33985-3.02735m6.33985 3.02735l.10547 2.45312m13.51953-3.48047l-6.95703-.97265m6.95703.97265l.83984 2.30469m-1.85156-2.44531l.41797 1.15234m13.92578-1.14453l-6.99219-.70703m6.99219.70703l.92969 2.26953m-1.94922-2.3711l.46484 1.13282m13.86328-.99219l-6.98047-.78125m6.98047.78125l.90625 2.27735m12.42969-2.50782l-7.01953-.32421m7.01953.32421l1.05078 2.21875m-2.07422-2.26562l.52735 1.10937m13.8125-1.33203l-7.02344.21485m7.02344-.21485l1.21875 2.13281m12.09765-2.07421l-7.02734.09765m7.02734-.09765l1.17969 2.15234m12.1211-1.80078l-7-.60156m7 .60156l.96484 2.2539m-1.98047-2.34375l.48047 1.12891m13.82812-.83203l-6.95312-1.01953m6.95312 1.01953l.82422 2.3125m-1.83594-2.46094l.41016 1.15625m13.95313-1.47265l-7.02735-.08985m7.02735.08985l1.125 2.17968m-2.14844-2.1914l.5625 1.08984m13.7539-1.51562l-6.98437.78906m6.98437-.78906l1.38672 2.02343m-2.40234-1.91015l.69531 1.01172m13.65235-.89454l-7.01954.32422m7.01954-.32421l1.2539 2.11328m-2.27344-2.06641l.625 1.05469m13.71094-.7539l-7.01953-.3711m7.01953.3711l1.03516 2.22655m-2.0586-2.28125l1.03516 2.22657m13.30469-2.45704l-7.02344.19922m7.02344-.19921l1.21484 2.13671m-2.23437-2.10546l1.21093 2.1328m-2.23437-2.10546l.60547 1.0664m14.6836-1.72265l-6.88673 1.39453m6.88672-1.39453l1.5625 1.89453m-2.5625-1.6914l1.5586 1.89452m-2.5625-1.6914l.78125.94531m14.44921-1.69922l-6.70703 2.08985m6.70703-2.08985l1.7461 1.72656m-2.72266-1.42187l1.7461 1.72656m-2.71875-1.42187l.87109.86328m14.36719-1.5586l-6.65235 2.26563m6.65235-2.26563l1.78906 1.6797m-2.75781-1.35157l1.78906 1.67969m-2.75781-1.35156l.89453.83984m14.39062-1.39453l-6.71875 2.0586m6.71875-2.0586l1.73438 1.73437M426 346.44921l1.73438 1.73048m-2.71485-1.4336l.8711.8672m14.30859-1.72657l-6.53516 2.58203m6.53516-2.58203l1.86719 1.58984m-2.81641-1.21484l1.86719 1.58984m-2.82031-1.21484l.93359.79687m14.1914-1.76171l-6.34765 3.01171m6.34766-3.01171l1.96875 1.46093m-2.89454-1.02344l1.96875 1.46485m12.31641-1.80078l-6.4414 2.8086"/><g clip-path="url(#al)"><path fill="none" stroke="#000" stroke-linecap="round" stroke-linejoin="round" stroke-miterlimit="10" stroke-width=".5" d="M466.78125 345.77344l1.92188 1.52734"/></g><g clip-path="url(#am)"><path fill="none" stroke="#000" stroke-linecap="round" stroke-linejoin="round" stroke-miterlimit="10" stroke-width=".5" d="M465.84375 346.1836l1.92188 1.52343"/></g><g clip-path="url(#an)"><path fill="none" stroke="#000" stroke-linecap="round" stroke-linejoin="round" stroke-miterlimit="10" stroke-width=".5" d="M147.11719 332.24219l-6.23438 3.24219"/></g><path fill="none" stroke="#000" stroke-linecap="round" stroke-linejoin="round" stroke-miterlimit="10" stroke-width=".5" d="M146.21094 332.71484l1.01172.69532m13.46484 1.4375l-6.7461-1.96875m6.7461 1.96875l.4961 2.40234m11.8789-.85156l-4.86719-5.07031m4.86719 5.0703l-.76172 2.33204m.05469-3.07031l-.38281 1.16406m14.52343-.54688l-5.10156-4.82812m5.10156 4.82812l-.65234 2.3672m-.08984-3.07032l-.32422 1.1836m14.90234-1.19141l-6.14453-3.40625m6.14453 3.40625l-.04297 2.45312m13.66406-3.1914l-6.7578-1.9297m6.7578 1.9297l.51172 2.39843m-1.49609-2.67969l.25781 1.19922m14.10938-1.20312l-6.89453-1.35938m6.89453 1.35938l.71484 2.34765m-1.71484-2.54687l.35547 1.17578m13.96875-1.01562l-6.91016-1.28125m6.91016 1.28125l.73828 2.33984m-1.74219-2.52734l.36719 1.16796m13.96484-1.05859l-6.9375-1.125m6.9375 1.125l.78906 2.32422m-1.79687-2.48828l.39453 1.16406m13.96875-1.36719l-7.01563-.39062m7.01563.39062l1.03125 2.22657M266.32422 334l.51562 1.11328m13.8086-.90625l-6.9961-.6875m6.9961.6875l.9336 2.26953m12.28905-1.75781l-6.8125-1.71484m6.8125 1.71484l.58985 2.38281m12.6211-2.03125l-6.60157-2.41406m6.60156 2.41406l.33594 2.42969m13.14844-3.08594l-6.94141-1.10156m6.9414 1.10156l.79688 2.32031m-1.8086-2.48046l.40235 1.16015m13.94922-1.92578l-6.98828.7461m6.98828-.7461l1.375 2.03516m-2.39453-1.92578l.6875 1.01562m13.66015-.57812l-7.01562-.34766m7.01562.34766l1.04297 2.22265m-2.0625-2.27344l.51953 1.11329m13.77344-.66797l-6.9336-1.13281m6.9336 1.1328l.78906 2.32423M359.5 334.26562l.39453 1.16016m13.96484-1.83203l-7.0078.53906m7.0078-.53906l1.31641 2.07031m-2.33594-1.99219l1.31641 2.07032m12.85547-2.97266l-6.67969 2.1875m6.67969-2.1875l1.76953 1.69922m-2.74219-1.38281l.88281.85156m13.39844-1.1875l-6.66797 2.22266m6.66797-2.22266l1.77735 1.6914m11.54296-1.67187l-6.67968 2.1875m6.67968-2.1875l1.76954 1.69922m-2.7422-1.38281l.88673.85156m13.4414-1.03516l-6.7578 1.92188m6.7578-1.92188l1.69922 1.76954m-2.6836-1.48829l1.70313 1.76563m12.50782-2.3164l-6.58204 2.46093m6.58204-2.46094l1.83593 1.6289m-2.79297-1.26952l1.83594 1.625m-2.79297-1.26953l.91797.8164m14.2461-1.6914l-6.45313 2.78125m6.45313-2.78125l1.91406 1.53515m-2.85156-1.1289l1.91406 1.53515m-2.85547-1.13281l.96094.76953m14.09375-1.86719l-6.17188 3.35938"/><g clip-path="url(#ao)"><path fill="none" stroke="#000" stroke-linecap="round" stroke-linejoin="round" stroke-miterlimit="10" stroke-width=".5" d="M466.64844 332.1836l2.04687 1.35156"/></g><g clip-path="url(#ap)"><path fill="none" stroke="#000" stroke-linecap="round" stroke-linejoin="round" stroke-miterlimit="10" stroke-width=".5" d="M465.75 332.67188l2.04688 1.35156"/></g><path fill="none" stroke="#000" stroke-linecap="round" stroke-linejoin="round" stroke-miterlimit="10" stroke-width=".5" d="M464.85156 333.16016l1.02344.67578"/><g clip-path="url(#aq)"><path fill="none" stroke="#000" stroke-linecap="round" stroke-linejoin="round" stroke-miterlimit="10" stroke-width=".5" d="M140.55078 319.88281l6.89844 1.33203"/></g><path fill="none" stroke="#000" stroke-linecap="round" stroke-linejoin="round" stroke-miterlimit="10" stroke-width=".5" d="M159.47656 323.3164l-4.32422-5.53906m3.69532 4.73438l-.5 1.1211m14.39453-.27735l-4.22266-5.61719m4.22266 5.61719l-1.03906 2.22265m.42187-3.03906l-.51953 1.11328m14.8125-.60937l-4.94531-4.99219m4.9453 4.99219l-.73046 2.34375m14.4414-2.8086l-5.73437-4.0625m5.73438 4.0625l-.3125 2.4336m13.96484-3.02735l-6.41016-2.875m6.41016 2.875l.16406 2.44922m-1.09765-2.86718l.08203 1.22656m14.29297-1.1289l-6.66407-2.23048m6.66407 2.23047l.40234 2.41797m-1.3711-2.74219l.19923 1.21094m14.20703-1.35547l-6.90625-1.29297m6.90625 1.29297l.73047 2.34375m-1.73829-2.53125l.3672 1.17188m13.92577-.85156l-6.85156-1.5625m6.85156 1.5625l.64063 2.37109m-1.63672-2.59766l.32031 1.1836m14.0664-1.42579l-7-.62109m7 .6211l.95704 2.2578m-1.97656-2.34765l.48046 1.1289m13.8672-1.24218l-7.02344-.21875m7.02343.21875l1.08203 2.20313m-2.10547-2.23438l.54297 1.10156m13.77735-.82812l-6.99219-.70313m6.99219.70313l.92968 2.27344m12.29688-1.77344l-6.8164-1.70313m6.8164 1.70313l.59375 2.38281m12.77344-2.60547l-6.91407-1.25781m6.91407 1.25781l.74218 2.33985m-1.75-2.52344l.3711 1.17187m13.98828-1.96094l-6.99219.69141m6.99219-.6914l1.35937 2.04296m-2.375-1.9414l.6797 1.01953m13.60155-1.45313l-6.89453 1.35547m6.89453-1.35547l1.55079 1.90235m-2.55079-1.70703l.77344.95312m13.58203-.91406l-6.97265.88281m5.95703-.7539l.70703 1.0039m13.65234-.67187l-7.02734-.03516m6.0039.03125l.57032 1.08594m13.13672-3.10938l-5.76563 4.01953m5.76563-4.01953l2.1836 1.11719m11.02343-1.26563l-5.55078 4.3125m4.74218-3.68359l1.1211.5m11.8125-2.10937l-3.16797 6.27343m17.94922-1.39062l-6.10156-3.48828m19.87109 1.98437l-7.01172-.48437m5.99219.41406l.5 1.1211m13.44531-2.91798l-6.23047 3.25m6.23047-3.25l2.02344 1.39063m-2.92969-.91797l2.02344 1.39063m11.69531-2.58204l-5.23047 4.69141"/><g clip-path="url(#ar)"><path fill="none" stroke="#000" stroke-linecap="round" stroke-linejoin="round" stroke-miterlimit="10" stroke-width=".5" d="M466.17578 318.20313l2.30469.84375"/></g><path fill="none" stroke="#000" stroke-linecap="round" stroke-linejoin="round" stroke-miterlimit="10" stroke-width=".5" d="M465.41406 318.88281l2.30469.84375m-3.0625-.16015l1.15234.42187"/><path fill="#00f" fill-rule="evenodd" d="M312.78516 449.89453h8.62109V439.75h-8.6211v10.14453"/><path fill="azure" fill-rule="evenodd" d="M314.6211 441.58203h.83202v2.82422h3.28516v-2.82422h.83203v6.48047h-.83203v-2.91797h-3.28515v2.91797h-.83204v-6.48047"/><path fill="#ff3030" fill-rule="evenodd" d="M295.72656 414.38672h7.69531v-10.14453h-7.6953v10.14453"/><path fill="azure" fill-rule="evenodd" d="M297.5586 406.07422h.83593v5.74219h3.1914v.73828h-4.02734v-6.48047"/><path fill="#ff3030" fill-rule="evenodd" d="M171.45313 370.0039h7.6914v-10.14452h-7.6914v10.14453"/><path fill="azure" fill-rule="evenodd" d="M173.28516 361.6914h.83593v5.73829h3.19141v.74219h-4.02734v-6.48047"/><path fill="#ffffe0" fill-rule="evenodd" d="M355.0586 405.16797h22.17968v-10.19531H355.0586v10.1953"/><path fill-rule="evenodd" d="M358.5586 396.8086h.5078v6.29296h-.78515v-4.48828h-1.39063v-.55469l.5625-.0664.25-.05469.23047-.08984.20313-.14063.17578-.21094.14063-.29296.10546-.39454m4.8125 0l.23047.01954.21875.05468.20703.08985.19922.12109.1836.14844.17187.17578.30078.41797.24219.4961.17969.54687.11328.57812.03515.58985-.03515.59375-.11328.58593-.17969.55078-.24219.50391-.30078.42578-.17187.17969-.1836.15625-.19922.1211-.20703.09374-.21875.05469-.23047.01953-.22656-.01953-.21875-.05469-.21094-.09375-.1953-.1211-.1836-.15624-.17188-.17969-.30078-.42578-.2461-.5039-.17968-.55079-.10938-.58594-.03906-.59375h.83203l.03125.5625.08204.50782.125.4414.16406.375.1875.30079.21094.22265.22265.13672.22656.04688.22657-.04688.22265-.13672.21094-.22265.1914-.30079.16407-.375.125-.4414.08203-.50781.02734-.5625-.02734-.5625-.08203-.5-.125-.4336-.16406-.36719-.19141-.29296-.21094-.21094-.22265-.13281-.22657-.04688-.22656.04688-.22265.1328-.21094.21094-.1875.29297-.16406.3672-.125.43358-.08204.5-.03125.5625h-.83203l.03906-.58984.10938-.57812.17969-.54688.2461-.4961.30077-.41796.17188-.17578.1836-.14844.1953-.1211.21094-.08984.21875-.05469.22656-.01953m4.95313 0l.23047.01954.21875.05468.20703.08985.19531.12109.1875.14844.16797.17578.30469.41797.24219.4961.17968.54687.11328.57812.03516.58985-.03516.59375-.11328.58593-.17969.55078-.24218.50391-.30469.42578-.16797.17969-.1875.15625-.19531.1211-.20703.09374-.21875.05469-.23047.01953-.23047-.01953-.21875-.05469-.20703-.09375-.19531-.1211-.1836-.15624-.17187-.17969-.30078-.42578-.2461-.5039-.17969-.55079-.10937-.58594-.03906-.59375h.83203l.03125.5625.08203.50782.125.4414.16016.375.1914.30079.21094.22265.22266.13672.22656.04688.22656-.04688.22266-.13672.21094-.22265.1914-.30079.16016-.375.1289-.4414.08204-.50781.02734-.5625-.02735-.5625-.08203-.5-.1289-.4336-.16016-.36719-.1914-.29296-.21094-.21094-.22266-.13281-.22656-.04688-.22656.04688-.22266.1328-.21094.21094-.1914.29297-.16016.3672-.125.43358-.08203.5-.03125.5625h-.83203l.03906-.58984.10938-.57812.17968-.54688.2461-.4961.30078-.41796.17187-.17578.1836-.14844.1953-.1211.20704-.08984.21875-.05469.23047-.01953m4.95312 0l.38672.02735.35938.08203.32031.13672.28125.1875.23047.23437.17187.28906.10938.33204.03906.375-.01953.27343-.0586.23829-.08984.19921-.10937.16797-.1289.14453-.14063.1211-.28516.19922.23047.11718.20703.14844.1836.17188.15234.1914.125.21485.08984.23046.05469.2422.01953.2578-.03516.3086-.10156.32422-.17187.32812-.2422.30469-.30468.26953-.375.21485-.21094.08203-.22656.05859-.2461.03906-.26171.01172-.25781-.01172-.2422-.03906-.22265-.0586-.20703-.08202-.35937-.21485-.28907-.26953-.22265-.30469-.15625-.32812-.09375-.32422-.03125-.3086h.83203l.02734.25.07813.23829.1211.21093.16015.1836.19531.15234.21875.11719.24219.07031.2539.02735.25391-.02735.24219-.07031.21875-.11719.19531-.15234.16016-.1836.12109-.21093.07813-.23829.02734-.25-.02735-.2539-.07812-.23438-.1211-.21484-.16015-.1836-.19531-.15234-.21875-.11328-.24219-.07422-.2539-.02344-.25391.02344-.24219.07422-.21875.11328-.19531.15235-.16016.18359-.1211.21484-.07812.23438-.02734.2539h-.83203l.01953-.2539.05469-.24219.08984-.22265.125-.20704.15234-.1914.1836-.17188.20703-.15234.23047-.13281-.28516-.19922-.14062-.1211-.12891-.14453-.10938-.16797-.08984-.19921-.0586-.23829-.01952-.27343h.78906l.02344.21484.0625.1914.10546.16798.13672.13671.16407.11329.1914.08203.20703.05078.21875.01562.21875-.01562.20704-.05078.1914-.08204.16406-.11328.13672-.13671.10547-.16797.0625-.19141.02344-.21484-.02344-.21485-.0625-.1914-.10547-.16407-.13672-.14062-.16406-.10938-.1914-.08203-.20704-.05078-.21875-.01953-.21875.01953-.20703.05078-.1914.08203-.16407.10938-.13671.14062-.10547.16407-.0625.1914-.02344.21485h-.78906l.03906-.375.10937-.33204.17188-.28906.23047-.23437.28125-.1875.32031-.13672.35938-.08203.38671-.02735"/><path fill="#ffffe0" fill-rule="evenodd" d="M284.04688 431.28125h22.17968v-10.1914h-22.17969v10.1914"/><path fill-rule="evenodd" d="M287.54297 422.92188h.51172v6.29296h-.78906v-4.48828h-1.38672v-.55469l.55859-.0664.2539-.05469.22657-.08984.20703-.14063.17188-.21094.14062-.29296.10547-.39454m4.8164 0l.22657.01954.22265.05468.20704.08985.1953.1211.1836.14843.17188.17578.30078.41797.2461.4961.17968.54687.10937.57812.03907.58985-.03907.59375-.10937.58593-.17969.55079-.2461.5039-.30077.42969-.17188.17969-.1836.15234-.1953.1211-.20704.09374-.22265.0547-.22656.02343-.23047-.02344-.21875-.05469-.20704-.09375-.19921-.12109-.1836-.15234-.17187-.1797-.30078-.42968-.2422-.5039-.17968-.55079-.11328-.58593-.03516-.59375h.83204l.02734.5625.08203.5078.125.44142.16406.375.1914.30078.21095.22265.22265.13672.22656.04688.22657-.04688.22265-.13672.21094-.22265.1875-.30079.16406-.375.125-.4414.08204-.50781.03125-.5625-.03125-.5586-.08204-.5039-.125-.4336-.16406-.36719-.1875-.28906-.21094-.21484-.22265-.13281-.22656-.04297-.22657.04297-.22265.1328-.21094.21485-.1914.28906-.16407.3672-.125.43359-.08203.5039-.02735.5586h-.83203l.03516-.58985.11328-.57812.17969-.54688.24219-.4961.30078-.41796.17187-.17578.1836-.14844.19921-.1211.20704-.08984.21875-.05468.23046-.01954m4.95313 0l.22656.01954.21875.05468.21094.08985.19531.1211.1836.14843.17187.17578.30078.41797.24219.4961.17969.54687.11328.57812.03906.58985-.03906.59375-.11328.58593-.17969.55079-.24219.5039-.30078.42969-.17187.17969-.1836.15234-.19531.1211-.21094.09374-.21875.0547-.22656.02343-.23047-.02344-.21875-.05469-.20703-.09375-.19922-.12109-.1836-.15234-.17187-.1797-.30078-.42968-.24219-.5039-.17968-.55079-.11329-.58593-.03906-.59375h.83594l.02734.5625.08204.5078.125.44142.16406.375.1914.30078.21094.22265.22266.13672.22656.04688.22656-.04688.22266-.13672.21094-.22265.1875-.30079.16406-.375.125-.4414.08203-.50781.03125-.5625-.03125-.5586-.08203-.5039-.125-.4336-.16406-.36719-.1875-.28906-.21094-.21484-.22266-.13281-.22656-.04297-.22656.04297-.22266.1328-.21094.21485-.1914.28906-.16406.3672-.125.43359-.08204.5039-.02734.5586h-.83594l.03906-.58985.11329-.57812.17968-.54688.2422-.4961.30077-.41796.17188-.17578.1836-.14844.19921-.1211.20703-.08984.21875-.05468.23047-.01954m4.94922 0l.39062.02735.35547.08203.32422.13672.28125.1875.22656.23828.17579.28516.10937.33203.03516.375-.01954.27734-.05859.23438-.08594.19921-.11328.16797-.1289.14454-.14063.125-.28515.1953.23046.1172.21094.14843.17969.17188.15234.1914.125.21485.08985.23047.05859.24218.01953.25782-.03515.30859-.10547.32813-.17188.32421-.23828.3047-.3086.26952-.37109.21485-.21484.08203-.22656.0586-.2461.03905-.25781.01563-.26172-.01563-.24219-.03906-.22265-.0586-.20703-.08202-.35938-.21485-.28906-.26953-.22266-.30469-.15625-.32421-.09375-.32813-.03125-.3086h.83594l.02734.25391.07813.23438.1211.21094.16015.18359.1914.15234.22266.11719.23828.07031.2539.02735.25782-.02735.23828-.07031.22266-.11719.1914-.15234.16016-.1836.1211-.21093.07812-.23438.02734-.2539-.02734-.25391-.07813-.23438-.12109-.21093-.16015-.1875-.19141-.15235-.22266-.11328-.23828-.07422-.25781-.02343-.2539.02343-.23829.07422-.22265.11328-.19141.15235-.16016.1875-.1211.21094-.07812.23437-.02734.2539h-.83594l.01953-.2539.0586-.23828.08984-.22656.1211-.20704.15625-.1914.17968-.17188.21094-.15234.23047-.13281-.28516-.19531-.14062-.125-.1289-.14454-.11329-.16796-.08594-.19922-.0586-.23438-.01952-.27734h.78515l.02344.21484.0664.1914.10157.16798.14063.14062.16406.10938.1875.08203.20703.05078.21875.01562.22265-.01562.20704-.05078.1875-.08203.16406-.10938.13672-.14062.10547-.16797.0664-.1914.02344-.21485-.02344-.21485-.0664-.1914-.10547-.16406-.13672-.14063-.16406-.10938-.1875-.08203-.20704-.05078-.22265-.01562-.21875.01562-.20703.05078-.1875.08204-.16406.10937-.14063.14063-.10156.16406-.0664.1914-.02345.21485h-.78515l.03515-.375.10938-.33203.17578-.28516.22656-.23828.28125-.1875.32422-.13672.35547-.08203.38672-.02735"/><path fill="#ffffe0" fill-rule="evenodd" d="M340.39844 361.35938h22.17969v-10.19141h-22.1797v10.1914"/><path fill-rule="evenodd" d="M343.89453 353h.51172v6.29297h-.78906v-4.48828h-1.38672V354.25l.5586-.0664.2539-.05079.23047-.08984.20312-.14453.17188-.20703.14062-.29688.10547-.39453m4.8164 0l.23048.01953.21875.05469.20703.08984.19531.1211.1836.14843.17187.17579.30078.42187.2461.49219.17968.54687.10938.57813.03906.58984-.03906.59375-.10938.58594-.17969.55469-.24609.5-.30078.42968-.17188.1797-.18359.15233-.19531.125-.20703.08985-.21875.0586-.23047.01952-.23047-.01953-.21875-.0586-.20703-.08983-.19531-.125-.1875-.15235-.16797-.17969-.3047-.42968-.24218-.5-.17969-.5547-.11328-.58593-.03515-.59375h.83203l.02734.5664.08203.50391.125.44141.16406.375.19141.30078.21094.22266.22265.13672.22657.04687.22656-.04687.22266-.13672.21093-.22266.19141-.30078.16016-.375.125-.4414.08203-.50391.03125-.5664-.03125-.5586-.08203-.5-.125-.4375-.16016-.36328-.1914-.29297-.21094-.21485-.22266-.1328-.22656-.04298-.22656.04297-.22266.13281-.21094.21485-.1914.29297-.16407.36328-.125.4375-.08203.5-.02734.5586h-.83203l.03515-.58985.11328-.57813.1797-.54687.24218-.49219.30469-.42188.16796-.17578.1875-.14843.19532-.1211.20703-.08984.21875-.05469.23047-.01953m5.08984 0h.51172v6.29297h-.78906v-4.48828h-1.38672V354.25l.5586-.0664.2539-.05079.22656-.08984.20313-.14453.17578-.20703.14062-.29688.10547-.39453m2.82422 2.17578h.78516l.01953-.3164.0625-.28516.09765-.2539.14063-.21485.17969-.17578.22265-.1289.26563-.07813.3086-.02735.23827.01953.22266.0625.20703.10157.17578.14062.15235.17188.11328.20703.0703.23437.02345.26563-.01954.26953-.0664.22265-.10938.19141-.15625.17188-.19921.16406-.25.16406-.63282.39063-.53906.3125-.4375.3164-.34375.32422-.26563.33594-.1914.35156-.125.3711-.0664.39062-.02344.41797h4.21484v-.73828h-3.33203l.08203-.28516.11328-.23437.14844-.20313.1875-.17969.23047-.17187.27734-.17578.71875-.41797.41406-.20313.34766-.23046.27734-.25391.22266-.26563.16406-.27734.10938-.28516.0625-.28515.02343-.28125-.04296-.38281-.1211-.34766-.1875-.3086-.25-.26171-.30469-.21485-.34375-.15625-.3828-.09765-.40626-.03516-.4336.03125-.39843.10156-.35547.16406-.30469.23438-.24609.30469-.1875.375-.11719.44531-.03906.51953"/></g></defs><use xlink:href="#as"/></svg>