<svg xmlns="http://www.w3.org/2000/svg" role="img" xmlns:xlink="http://www.w3.org/1999/xlink" viewBox="142.45 309.95 326.84 171.84"><defs><clipPath id="a"><path d="M144 311.67188h1v168.65625h-1zm0 0"/></clipPath><clipPath id="b"><path d="M144 311.67188h324v168.65625H144zm0 0"/></clipPath><clipPath id="c"><path d="M467 311.67188h1v168.65625h-1zm0 0"/></clipPath><clipPath id="d"><path d="M144 479h4v1.32813h-4zm0 0"/></clipPath><clipPath id="e"><path d="M147 479h3v1.32813h-3zm0 0"/></clipPath><clipPath id="f"><path d="M153 479h9v1.32813h-9zm0 0"/></clipPath><clipPath id="g"><path d="M160 480h3v.32813h-3zm0 0"/></clipPath><clipPath id="h"><path d="M166 480h9v.32813h-9zm0 0"/></clipPath><clipPath id="i"><path d="M173 480h3v.32813h-3zm0 0"/></clipPath><clipPath id="j"><path d="M172 480h2v.32813h-2zm0 0"/></clipPath><clipPath id="k"><path d="M180 479h8v1.32813h-8zm0 0"/></clipPath><clipPath id="l"><path d="M187 479h3v1.32813h-3zm0 0"/></clipPath><clipPath id="m"><path d="M186 479h2v1.32813h-2zm0 0"/></clipPath><clipPath id="n"><path d="M193 479h9v1.32813h-9zm0 0"/></clipPath><clipPath id="o"><path d="M200 479h3v1.32813h-3zm0 0"/></clipPath><clipPath id="p"><path d="M199 479h2v1.32813h-2zm0 0"/></clipPath><clipPath id="q"><path d="M206 479h9v1.32813h-9zm0 0"/></clipPath><clipPath id="r"><path d="M213 479h3v1.32813h-3zm0 0"/></clipPath><clipPath id="s"><path d="M220 479h8v1.32813h-8zm0 0"/></clipPath><clipPath id="t"><path d="M227 479h2v1.32813h-2zm0 0"/></clipPath><clipPath id="u"><path d="M233 479h8v1.32813h-8zm0 0"/></clipPath><clipPath id="v"><path d="M240 480h3v.32813h-3zm0 0"/></clipPath><clipPath id="w"><path d="M246 480h9v.32813h-9zm0 0"/></clipPath><clipPath id="x"><path d="M253 480h3v.32813h-3zm0 0"/></clipPath><clipPath id="y"><path d="M260 480h8v.32813h-8zm0 0"/></clipPath><clipPath id="z"><path d="M266 480h2v.32813h-2zm0 0"/></clipPath><clipPath id="A"><path d="M273 480h8v.32813h-8zm0 0"/></clipPath><clipPath id="B"><path d="M279 480h2v.32813h-2zm0 0"/></clipPath><clipPath id="C"><path d="M286 479h9v1.32813h-9zm0 0"/></clipPath><clipPath id="D"><path d="M292 480h2v.32813h-2zm0 0"/></clipPath><clipPath id="E"><path d="M300 479h8v1.32813h-8zm0 0"/></clipPath><clipPath id="F"><path d="M306 480h1v.32813h-1zm0 0"/></clipPath><clipPath id="G"><path d="M313 478h8v2.32813h-8zm0 0"/></clipPath><clipPath id="H"><path d="M327 478h7v2.32813h-7zm0 0"/></clipPath><clipPath id="I"><path d="M343 476h2v4.32813h-2zm0 0"/></clipPath><clipPath id="J"><path d="M356 476h2v4.32813h-2zm0 0"/></clipPath><clipPath id="K"><path d="M368 477h5v3.32813h-5zm0 0"/></clipPath><clipPath id="L"><path d="M380 478h8v2.32813h-8zm0 0"/></clipPath><clipPath id="M"><path d="M394 477h6v3.32813h-6zm0 0"/></clipPath><clipPath id="N"><path d="M407 477h6v3.32813h-6zm0 0"/></clipPath><clipPath id="O"><path d="M421 476h5v4.32813h-5zm0 0"/></clipPath><clipPath id="P"><path d="M435 476h4v4.32813h-4zm0 0"/></clipPath><clipPath id="Q"><path d="M449 476h2v4.32813h-2zm0 0"/></clipPath><clipPath id="R"><path d="M461 476h5v4.32813h-5zm0 0"/></clipPath><clipPath id="S"><path d="M144 466h4v2h-4zm0 0"/></clipPath><clipPath id="T"><path d="M466 465h2v2h-2zm0 0"/></clipPath><clipPath id="U"><path d="M144 452h4v3h-4zm0 0"/></clipPath><clipPath id="V"><path d="M466 452h2v3h-2zm0 0"/></clipPath><clipPath id="W"><path d="M144 439h4v3h-4zm0 0"/></clipPath><clipPath id="X"><path d="M466 439h2v3h-2zm0 0"/></clipPath><clipPath id="Y"><path d="M144 426h4v2h-4zm0 0"/></clipPath><clipPath id="Z"><path d="M466 426h2v3h-2zm0 0"/></clipPath><clipPath id="aa"><path d="M144 412h4v4h-4zm0 0"/></clipPath><clipPath id="ab"><path d="M466 412h2v3h-2zm0 0"/></clipPath><clipPath id="ac"><path d="M144 398h4v4h-4zm0 0"/></clipPath><clipPath id="ad"><path d="M466 399h2v4h-2zm0 0"/></clipPath><clipPath id="ae"><path d="M144 385h4v5h-4zm0 0"/></clipPath><clipPath id="af"><path d="M466 386h2v4h-2zm0 0"/></clipPath><clipPath id="ag"><path d="M144 371h4v6h-4zm0 0"/></clipPath><clipPath id="ah"><path d="M466 373h2v4h-2zm0 0"/></clipPath><clipPath id="ai"><path d="M144 358h4v5h-4zm0 0"/></clipPath><clipPath id="aj"><path d="M466 360h2v3h-2zm0 0"/></clipPath><clipPath id="ak"><path d="M144 345h4v5h-4zm0 0"/></clipPath><clipPath id="al"><path d="M466 346h2v3h-2zm0 0"/></clipPath><clipPath id="am"><path d="M144 331h4v6h-4zm0 0"/></clipPath><clipPath id="an"><path d="M466 332h2v3h-2zm0 0"/></clipPath><clipPath id="ao"><path d="M144 319h4v3h-4zm0 0"/></clipPath><clipPath id="ap"><path d="M466 318h2v2h-2zm0 0"/></clipPath><clipPath id="aq"><path d="M465 318h3v3h-3zm0 0"/></clipPath><g id="ar" clip-path="url(#clip1)"><path fill="#fff" fill-opacity="0" fill-rule="evenodd" d="M0 0h1000v1000H0zm0 0"/><path fill="#d3d3d3" fill-opacity="0" fill-rule="evenodd" d="M162.15234 355.86719l-.23437.29297.0586.23437.11718.17188.17578.23437.29297.34766.11328.0586.11719-.17188.0586-.23438.17577-.17578.46485-.17578h.69922l.23437.29297.28906.8164.0586.17579.17578.23046.35156.23438.69922.69922.17188.17578.23437.34765.23438.41016.28906.58203.41015.46485.23047.23437.23438.17578.11719.23047.17578.29297.17187 1.16406v.23438l.0586.28906.05859.11719.11719.11719.34765.41015.11719.17188.17578.17578.17578.23437.11719.17188.17188.35156.05859.23438.23437.40625.23438-.0586-.17578.17578-.0586.92969h-.58203l-.23437-.11328-.34766.11328-.11719.11719-.05859.29297-.0586.17578-.11718.17187-.46484.29297-.0586.23438-.0586.11328v.64453l.0586.17187v.41016l.0586.0586v.40624l.05859.40625.11719.17579.05859.05859.23047.64062-.0586.29297v.69922l-.05859.58203v.23438l-.0586.23047-.05468.35156v1.92187l.05469.1172h.42578l-.36719.11718-.02344.35156.89063 1.16797 1.74219.53906 1.33984.35938v.53906l.08984.8086.53516.71484 1.51953.26953.89063-.08594.08984 1.16406.53516.1797 1.16015-.1797 2.05469-.98437 1.16016-.36328 1.8789-.17578 1.69531-.1797-.17968.71876-1.51563.08594-1.25.08984-.80469.26953-1.07421.8086.26953.71875.53515.89843-.17968.625-.26563.8086.26563 1.07812.625.89844.80468.17969 1.25-.1797-.26562.72267.09766.5039.05468.29297v.17188l.0586.29296v.40625l.17578.1172.35156.11718h.40625l.29297-.17578.11328-.11719.0586-.11719.11718-.23047.0586-.17578.35156-.46484.23047-.17578.17578-.0586.17578.0586.0586.17578.11718.98828.05469.46875.0586.17188.11718.23437.17578.0586.8164.05859h.28907l.11719.23437.05859.40625.0586.35156v1.10547l.11718.29297.11719.34766.28906.69922.17578.35156.58203.7539.35157.17579.17187.0586.46875.23437.64063.46484.34765.23438.29297.17578.29297.05468.23047.0625.8164.34766.29297.17578.11328.17188.35157.35156.11719.17578.52343.64063v.28906l.0586.35156v.34766l.05859.35156.0586.28906.11718.0586.17188.05859h.17578l.58203.23437.17578.1172.17578.28905.17578.23438.11328.23437.29297.23047.11719.11719v.41016l.0586.05468.28906.23438.23437.11719.0586.11718.11718.17188.0586.11719.23047.23437.05859.17578.23437.0586.1172.05859-.1172.11328-.05859.11719v.11719l-.11719.29296-.11719.28907v.58203l.17579.11719.11718.05859.0586.11719.11719.11719.11328.05859.17578.34765.0586.35157.05858.40625v.17578l-.05859.17578-.11719.69922v.17187l.1172.17579.29296.29296h.40625l.17578.1172.11719.17187.11719.29296v.23438h-.52735l-.23047-.23438h-.23437l-.17578.0586-.0586.69922.0586.34765.11719.17579.17578.41015.11718.23047.28907.46875.17578.05469h.52344l.23437.0586.75781.64062.0586.29296v.23438l.05859.0586.23047.34765v.35156l-.11719.17188v.29297l.29297.28906.29297.17578.17187.0586.29297.17577.29297.1172.58203.40624.28906.23438.29297.17578.21875.16015.01563.01172.23047.17579.64062.52343.17578.23438.1172.17578.17577.17578.11328.17188v.64062l.1172.17578.46874.11719.58203.11719.23438.05859.23047.11328.29297.11719.11328.0586.58593.35156.28907.17187.17578.0625.17578.05469.17578.0586.69922.35155.28906.17579.23438.05468.28906.17578.23437.1172.64063.40624.29297.11719.17187.0586.23438.05859.41015.05859.23047.0586.23438.11718.0586.17188-.41017.17578.46875.0586.0586.29296.11328.23438.17578.05468.23438.0586.17578.05859.40625.11719.64062.23437.11719.17188.0586.23437v.17578l-.0586.1172-.0586.40624.23438.23438.11719.05859.34766.11719.64062.23047.17578.11718.28906.1172.17578.17577.23438.46485.58203 1.10546.17578.17579.34766.17578.17578.11719.35156.11718 1.04688.52344.23437.0586.46485.11327.29297.0586.46484.17578.75781.58203.23438.23438.34765.46484.17578.17578.28907.23438.8164.69921.29297.17579.28906.28906.29297.17578.29297.28906.69531.64063.17578.17578.29297.23437.28907.23438.46875.28906.64062.58203.34766.23438.23437.29297.34766.34765.35156.46485.9336.99218.34765.40625.11719.17579.23437.05859.11328.11719.64454.17578.23047.11328.23437.0586.29297.17577.23047.1172.9336.69921.40624.40625.23438.17578.40625.17578.23437.11719.8164.34766.34766.23437.23438.11719.29297.28906.23047.11719.7578.35156.35157.17188.23047.05859.29297.11719.23437.0586.8711.17577h.8164l.46875.23047.17188.0586.875.69921.46484.1172.29297.05858.17578.0586.23047.0586.46875.05859.34766.05859.35156.0586.40625.05859h.29297l.17187.0586v.23046l.17578.17578h.29297l.34766.0586.35156.05859.69922.11719h.64063l.46484-.23438.29297-.17578.17187-.11719.41016-.17187.28906-.17578.9336-.46485.46875-.29297.52343-.29296.46485-.17188.46484-.17578 1.05078-.46485.28906-.11718.41016-.11719.28906-.11719.52735-.17578 1.51562-.69922.58203-.34765.28907-.0586.29297-.0586.34765-.11718.875-.23047.35156-.11719h.11329l.23437-.05859.875-.23437.23438-.0586h.8125l.35156-.0586.8164-.11718.17188-.0586.35156-.05468.29297-.0586.23047-.05859.8164-.17578.17579-.0586h.34765l.23438-.05859.46484-.11718.75781-.17188.23438-.0586h.34765l.41016-.11718.28906-.0586 1.28516-.05859h.28906l.41016-.0586.23047-.05858h.17578l.875-.1172h.40625l.41015-.11718h.34766l.35156-.11328.8711-.0586h1.75l1.04687.28907.41016.11719.28906.11718.35156.11719.28907.11719 1.05078.17187.28906.0586h.29297l.29297.05859.17187.0586.41016.05859.17187.0586.1172.05858h.11718l.11719.0586.35156.0586h.11328l.41016.0664 1.92187.39453 1.92578.39453 1.51953.44922 1.69532.71875 2.14453.80469 1.60547-.71875 1.42968-.80469 1.16016-1.07813 1.25-.44921 3.03516-.71875 1.875-.35938 2.14453-1.34765 2.23437-1.25391 2.5-1.25781 1.69531-.44922 1.78516-.17969 1.16016-.26953.625.53906 1.33984-.26953.71485-.98828.98437-1.34375.44531-.17969.80469-.35937 1.875-.53907 1.78516-.44921 1.25-.26954 1.16015-.08984 1.69922-.08984 1.96094-.26954 1.25-.08984h.53906l.625-.08984h.89063l2.14453-.17969 2.41015-.17969 2.58985-.08984 1.69531.17969 1.60938.08984 1.42968.35938 1.16016.71875 1.875.98828 1.16015 1.52734.26563.71484.6289.08985.35548.89844.53515.53906.53516 1.52734 1.07422.35938h.53515l-.80469.53515.08985 1.70703.71484 2.69532.89063.80468.89453.98829.71484 1.2578 1.78516.53907 1.51953-.17969.35547 1.34375 1.60937-.80469.98047-.53906.26953.26953.31641-.21484.21875-.14453.80078.44922.44922-.35938h.35547l.53515-.26953.53907-.71875.53515-.26953.625-.98828 1.16016.44922.83984.3711 1.39454.61718 1.6953-.17969h1.60548l1.78515.08985.17969-1.70704.53516-1.34375.80468.26954.4922.84765.40233.40625-.08984.53906v.35938l.71485.44922.71093-.26953h1.42969l.35938.98828.4453 1.25781.71485 1.34375 1.25.6289 1.69531.62891.71485-.17969.17969-.53906.98046-.08984.44922.35937.08594 1.25782-.26563.6289-.53515.17969v.53906l.71484.98438.26563.53906.98437.98828.80078 1.07813-.26562.35937-.08985.89844-.625 2.33203-.35546 2.0664-.08985 1.79298-.17969.71875-.08984.53906v1.4375l-.98047 1.88281-.35937 1.70703-.53516.89844-.80469 1.16797-.26562.53906 2.05469 1.2539.08593.35938-.35546.53906-.08985-.17968v.80859l.08985 1.4375-.44532.71484-1.07422.09375-.26562.71485.53515.89844.8047.71875 1.16015.80859 1.33984.26953.44531.35938-.35546.44921-1.78907-.08984-1.25-.44922-.71484-.71875-.625-.08984-.17578 3.58984-.1875 1.3086h89.35937V311.70313h-55.26953v49.08203l.76172.125 3.28906.54296 2.02344 2.83594v2.7539l2.35156.33204 2.34766.33203h4.05078l-1.3789 4.16016-2.02344.70703-2.02344.70312-.54297.34375-2.59375 1.6172-.1875.11718-2.02344-2.07813-.73046-2.74218-2.67188-2.07813-1.375-3.5-.0664-.08203-1.95704-2.67188 2.75-1.41796v-49.08204H294.42187v91.41407l.1172.03125.1328.01172.07422.07421.10547.04688.08985.0586.08593.05859.08985.0586.29687.29687.0586.08984.03125.11719.02734.11719.01563.13671-.03125.1172-.0586.08983-.0586.08594-.04296.10547-.04688.10156-.02734.1211v.14453l.17578.26953.14844.14844.07422.08594.07422.07421.04296.10547.0625.08985.0586.08593.04297.10547.0586.08985.04687.10156.04296.10547.0586.08594.11719.17968.07421.07422.0625.08594.0586.08984.04297.10547.0586.08985.05858.08593.0625.08985.0586.08984.04297.10156.11719.17969.07421.07422.0586.08594.07422.07421.08984.0586.10547.04687h.14844l.1328-.01562.13282.01562.10156-.04687.07422-.07422.04688-.10156-.01563-.13281v-.14844l-.04687-.10547-.02735-.11719-.04687-.10156-.02735-.1211-.04296-.10156-.0625-.08984-.04297-.10156-.04297-.10547-.03125-.11719-.01563-.13281-.01171-.13672.08593-.0586.0586-.08593.12109-.03125.04297.10547.01562.1328v.1172l.0586.10156.0586.08984.08983.0586.14844.14843.0586.08985.04296.10547-.01171.10156.08593.0586.10547.04687.08594.0586.08984.05858.07422.07422-.11719.02735-.10546.04687-.08594.0586-.07422.07421-.0586.08985-.0625.08594-.02734.12109-.04687.10156-.04297.10547-.03125.11719-.01172.13281-.01563.13281v.14844l.02735.11719.04687.10547.04297.10156.0586.08984.07421.07422.08985.0586.07422.07421.08984.0586.0586.08984.04296.10547.04688.10156.11719.03125.1328.01563h.14845l.11718-.03125.10547.04297.04297.10547.04688.10156.02734.1211L299.5 410l.02734.11719.03125.1211.02735.11718.10547.04297.10156.04687.13281-.01562.14844.14844.0625.08593.07422.07422.07031.07422.08984.0625.10547.04297.10156.04297.1172.03125.13671.01562.11719-.03125.07422-.07422.02734-.11718-.01172-.13282-.03125-.12109-.02734-.11719.04297-.10547h.11719l.08984.0625.11719.02735h.14843l.13282.01562h.14843l.13282.01563.1328-.01563h.14845l.1328-.01562.13282-.01172.13672.01172.11719-.02735.13281-.01562.1914-.0586-.05859.17579-.01562.1328-.02735.1211-.01562.13281-.0586.08594-.1328.01563-.10548.04687-.10546.04297-.1172.03125-.11718.02735-.26563.03125h-.14843l-.13281.01562-.07422.07422.05859.08594.14844.14843.11719.1797.07421.0703.08985.0625.08984.0586.08594.0586.08984.05858.10156.04297.10547.0625.10547.04297.08594.0586.10547.04687.10156.04297.17969.11719.0586.08984-.04298.10156-.04687.10547.01562.13281.22266.22266.0586.08985.04296.10156.03125.1211.04297.10155.01563.13282.03125.11718.01171.13672.03125.11719.14844.14844.10156.04297.10547.04296.1172.03125.1328.01563.13672.01563h.11719l.11719-.03125.08984-.0586.04297-.10547.04688-.10156.04296-.10547.03125-.11719.01172-.1328v-.14845l-.01172-.1328-.01562-.13282-.03125-.11719-.04297-.10547-.04688-.10547-.04296-.10156-.04297-.10547-.01563-.13281.01563-.13281.02734-.11719.03125-.11719.02735-.1211.04687-.10155.08984-.0586.08594-.0625.07422-.07422.08984-.05859.22266-.22266.0586-.08593.07421-.07422.11719-.17969.0586-.08594v-.14844l-.07423-.07421-.10156-.04688-.10547-.04297-.10156-.04297-.0586-.08984-.04687-.10547-.02734-.11719.08984-.05859.11719-.03125.10156-.04297.17969-.11719.14844-.14843.01172-.13282-.01172-.10546-.08985-.0586-.1328.01563h-.14845l-.1328.01562-.13282-.01562-.1211-.03125-.08593-.0586-.07422-.07422-.0586-.08984-.0625-.08594-.11718-.17969-.0586-.08593.03125-.1211.08594-.05859.1211-.03125.05859-.08594v-.1211l-.03125-.11718-.0586-.08984-.05859-.08594-.04687-.10547-.02735-.11719-.01562-.1328.0586-.08985.07421-.07422.08984-.0586.1172-.17968.07421-.07422.0586-.08594.14843-.14844.1211-.03125.1328-.01562.13282.01562.07422.07422.04297.10547.01562.13281-.03125.1172-.11719.03124-.1328.01172-.14844.14844-.04297.10547-.04688.10156-.02734.1211-.03125.11718v.14844l.03125.11719.04297.10546.05859.08985.07422.07031.07422.07422.11719.03125.12109.02734.11719-.02734.1328-.01563h.1172l.08984.0586.07422.07422.04687.10546.0586.08594.10156.04688.13281.01562.10547.04297.08594.0586-.01172.10546-.07422.07422-.17969.11719-.05859.08984-.08984.0586-.07032.07422-.07421.07421-.0625.08985-.02735.11719-.01562.1328.01562.13282-.01562.13281v.14844l.01562.13281.02735.1172.03125.12108.07421.07422.08985.0586.08594.0586.08984.05858.11719.03125v.08594l-.10157.04688-.08984.0586-.26563.03124-.11718.02735h-.14844l-.10547.04296-.10156.04688-.0586.08984-.0625.23438-.01171.13281-.03125.1211-.01563.1328v.29298l-.01172.1328.01172.13673.01563.1328.1328.01563.13282.01172.1211.03125.08593.0586.07422.07421.04688.10547.04296.10157.01563.1328v.44532l-.01563.13281v.44532l.03125.26562.02735.11719.01562.13281.03125.11719.08594.21094.03125.26562v.14844l-.03125.11719-.02734.11718-.03125.1211-.02735.11719-.03125.11718-.03125.1211-.01171.1328-.01563.13282.08984.0586.1172-.03125.10155.01562.04688.10547-.03125.26562v.44141l-.04297.10547-.04688.10547-.04296.10156-.04297.10547-.0586.08594-.03125.12109-.04296.11719-.03125.11719-.01563.1328.01563.13282.05859.08984.10547.04688.08594.0586.05859.08593-.01172.13672-.03125.11719-.04297.10156v.44531l-.01562.13281v.14844l-.03125.11719-.04297.10547-.02735.11719-.04687.10546-.04297.10157-.03125.12109-.02734.11719-.03125.13281-.03125.11719-.02735.11719-.04297.10546-.03125.1172-.03125.12108-.01171.13282-.01563.13281v.29688l.02734.11718v.14844l.04688.39844.02734.11719.0586.08984.12109.03125h.14844l.13281-.01563.0586.08985v.11719l-.0586.08984-.08984.0586-.10157.04296-.10546.04688-.08985.05859-.08594.0586-.13671.01562-.1172-.03125-.1328-.01563-.10157.04688-.0625.08594-.01172.13671-.01562.13282-.03125.11719-.02735.11718-.01562.13281-.03125.1211v.29687l.01563.13282.03125.11718v.14844l.01171.13281v.14844l-.02734.11719-.04688.10156-.02734.1211-.03125.11718-.0586.08985-.07421.07421-.10156.04297-.10547.04688-.11719.02734-.1211.03125-.10156-.04687.0586-.08594.10547-.04688.02734-.11718.03125-.11719.02734-.1211.03125-.11718v-.14844l.01563-.13281-.03125-.11719-.04297-.10547-.10547.01563-.07422.07422-.10156.04296-.08984.0625-.07422.07422-.04297.10157-.01563.1328-.03125.1172L304.25 426l-.03125.11719-.02734.11719-.03125.12109-.02735.11719-.03125.11718-.04297.10547-.08984.0586h-.08984l-.1172-.03125-.03124-.08594.01562-.13672-.03125-.11719v-.14844l-.01171-.1328v-.14844l-.0625-.23438-.02735-.1211-.04297-.10156-.04687-.10546-.0586-.08594-.05859-.08985-.04297-.10546-.0625-.08594-.14844-.14844-.0703-.07422-.10548-.04687-.10547-.04297-.10156-.04297-.29687-.29688-.08985-.07421-.08594-.0586-.10546-.04297-.08985-.0625-.08594-.0586-.10546-.04296-.08985-.0586-.08594-.0625-.07421-.0703-.10547-.04688-.08594-.0586-.10547-.04296-.08984-.0625-.10156-.04297-.10547-.04297-.08594-.0586-.10547-.04687-.10547-.04297-.10156-.04687-.08985-.0586-.10156-.04297-.10547-.04296-.08984-.0625-.11719-.02735-.13281-.01562-.13281.01562H299.75l-.13281.01563-.11719-.03125-.08984-.0586-.07422-.07422-.08985-.05859-.10156-.04688h-.14844l-.12109-.02734-.10156-.04297-.07422-.07422-.11719-.17968-.08984-.0586-.10156-.04297-.08985-.0625-.10547-.04296-.08984-.0586-.08594-.0586-.10547-.04687-.0586-.08594-.05858-.08984-.04297-.10547-.04688-.10156-.07422-.07422-.08594-.0586-.07421-.07421-.08985-.0586-.22265-.22265-.04297-.10547-.03125-.26563.10547-.04296h.14453l.10547.04296.07421.07422.08985.0586.08594.0586.10546.04687.08985.05859.14844.14844.0703.07422.14845.14843.0625.08594.07421.07422.08594.0586.07422.07421.08985.0625.08984.0586.08594.05859.26953.17578.10156.04688.10547.04296.10156.04297.04688-.07421.05859-.08594.07422-.07422.07031-.07422.10547.04297.07422.07422.0586.08984.04296.10156.04688.10547.04296.10547.1211.02735.11719-.02735.07421-.08984.04297-.10547.0586-.08985.07422-.07421.10546-.04297.1172-.02735.1328.01172.08985.0586.14844.14843.05859.08985.04297.10547.04687.10156.04297.10547.04297.10156.10547.04688.10547.04296.13281.01563.08594-.0586.0586-.08984.07421-.07422.10547-.04297.11719.02735.10547.04687.10156.04297.10547.04297.10156.04688.17969.11718v.11719l-.01563.13281.01563.13281.01562.13672.0586.08594.10156.04688.1211.02734.11718.03125h.14844l.11719-.03125.05859-.08984.17969-.1172.05859-.08983.07422-.07422.0586-.08594.11718-.17969.17969-.11719.11719.03125.08984.0586.04297.07422-.01563.1328v.1172l.08985.05859h.14843l.13282-.01563.1328-.01171.26563-.03125.10547-.04297.11719-.03125.1211-.02735.07421-.07421.07031-.07422.0625-.08985-.01562-.10547-.04688-.10156-.10156-.04297-.10547-.01562-.11718.02734-.26563.03125h-.14844l-.07421-.07422-.08985-.0586-.11719-.03124-.11718-.02735-.13282-.01562h-.14843l-.13282.01563h-.29687l-.10547-.04688-.14844-.14844-.04297-.10156-.05859-.08984.22266-.22266.08593-.0586.10547-.04296.11719-.03125.13281-.01563.13281.01563.13672.01562.10157.04297.1328-.01172.08985-.0625.10156-.04297.0625-.08984-.04687-.10156-.08984-.0586-.1172-.03125-.10155-.04296-.0586-.08985-.0625-.08984v-.11719l.01563-.13281.10547-.04688.07421-.07031v-.1211l-.08984-.05859-.03125-.11719.08985-.05859.07421-.07422.04297-.10547.0586-.08984.04687-.10156.01563-.13281v-.14844l-.04688-.10547-.04297-.10156-.08984-.0586-.13281-.01562-.10157-.04297-.13671-.01563-.1172-.03125h-.4453l-.13282-.01562-.13281-.01172-.13281-.01563-.11719-.03125h-.14844l-.13281-.01562-.13281-.01172-.26563-.03125-.1211-.04297-.08593-.0586-.07422-.07421v-.14844l.01172-.13281.10547-.04688.10156-.04296.13281-.01563h.15235l.13281-.01562h.29297l.1211.03125.10156.04296.08984.0586.23438.0625.12109-.04688.08984-.05859.10156-.04297.13282-.01562.10547.04296.10156.04688.13281.01172.1211-.02735h.14453l.12109-.03125.11719-.02734.10547-.04687.07421-.07422.08594-.0586.14844-.14843.0586-.08594.04687-.10547.02734-.11719.01563-.10547-.10156-.04296-.08985-.0586-.11719-.03125-.10546-.04297-.08985-.0625-.07422-.08594-.07422-.07421-.10156-.04297-.10547-.04688-.10156-.04297-.0586-.08984-.04687-.10156-.08594-.21094-.0625-.08594-.05859-.08984-.07422-.07422-.08594-.0586h-.26953l-.11719.03126-.08984.05859-.10156.04297-.13281.01562-.10547-.01562-.02735-.11719-.0625-.08984-.11718-.03125-.10157-.04297-.14843-.14844-.03125-.11719-.01563-.10546.07422-.07422.17969-.1172.11719-.02733.11718-.03125.13672.01562.10156.04297.10547.04297.10156.04687.10547.04297.1172.03125.1328.01563.1172.02734.1328.01563.10547-.01563.08985-.0586-.07422-.07421-.10547-.04297-.07422-.07422-.07422-.08984-.14844-.14844-.08593-.0586-.08985-.05859-.07422-.07422-.08984-.0586-.10156-.04687-.1211-.02734-.10156-.04688-.10547-.04296-.11719-.03125-.10156-.04297-.1211-.03125h-.14843l-.11719.03125-.10546.04297-.08594.0625-.17969.11718-.08594.0586-.08984.0586-.10547.04687-.08594.05859-.10547.04297-.10156.04297-.10547.04687-.07422.07422-.05859.08985-.0586.08593-.04687.10547-.0586.08594-.07421.07422-.13281-.01172-.1172-.03125h-.11718l-.07422.07422-.08984.0586-.07422.07421-.08984.0586-.08594.05859-.10547.04687-.10156.04297-.13672.01563-.10156-.04297-.14844-.14844-.10547-.04688h-.08594l-.10547.04688-.10156.04297-.1211.03125-.11718-.03125-.07422-.07422v-.11719l.03125-.1211.07422-.0703.0586-.08985.07421-.07422.11719-.03125.10547-.04296h.29297l.13281-.01563.13672-.01563.10156-.04296.08985-.0586.10156-.04687.08984-.0586.13281-.01171.08985.05859.13281.01172.08984-.0586.08594-.05859.10547-.04297.08984-.0586.08594-.0625.08985-.05859.14843-.14843.0586-.08594.05859-.08985.10547-.04296.13281-.01563.11719.02735.1211.03125.05859-.0586.05859-.08984.03125-.26563.02734-.11719.10547.01172.13281.01563.10157-.04297.08984-.0586.0586-.08984.07421-.07422.0586-.08984.04687-.10156.01172-.13281-.01172-.13282-.04687-.10547-.14844-.14843-.0586-.08985-.05859-.08594-.04297-.10546v-.44532l.01563-.1328v-.14845l.01172-.1328-.0586-.0586-.08984.0586-.10156-.04298-.17969-.11719-.08594-.05859-.0625-.08984-.0586-.08985-.07421-.07421-.08594-.0586-.1211.03125-.10155.01172-.10547.04688-.08594.05859-.10547.04297-.14844.14844-.08984.05859-.08594.0586-.08984.0625-.10547.04296-.13281.01563v-.1211l.10547-.04297.11718-.03125.07422-.0703.04297-.10548v-.14844l-.02734-.11718-.14844-.14844-.13281-.01563h-.14844l-.11719.03125-.10547.04297-.10156.04297-.08984.0625-.11719.02735-.07422-.07422.01172-.13281-.04297-.10157-.04297-.10547-.08984-.05859-.11719.02734-.1211.03125-.11718.03125-.10156.04297-.1211.03125-.10156.04297-.10547.04297-.08984.0586-.10156.01562v-.11719l.01562-.13281-.0586-.08985-.07421.04297-.14844.14844-.0586.08985-.07421.07421-.04688.10547-.04296.10156-.07422.07422-.0586.08985-.07422.07422-.05859.08593-.07422.07422-.08984.0625-.07422.07031-.07422.07422-.10156.01563-.13281.01562-.10547-.04296v-.1211l.14843-.14844.04297-.10156.0586-.08984.04687-.10156.04297-.10547.0586-.08985.03124-.11719.04297-.10156.03125-.1211.02735-.11718.04687-.10547.04297-.10156.04297-.10547.07422-.07031.08984-.0625.08985-.0586.10156-.04296h.29687l.26563-.03125.10547-.04297-.07422-.07422-.11719-.03125-.10547-.04297-.08984-.0586-.10156-.04687-.08985-.0586-.10156-.04296-.10547-.04297-.08984-.0625-.08594-.0586-.10547-.04296-.10156-.04297-.1211-.03125-.11718-.03125-.10157-.04297L297.5 410.25l-.10156-.04297-.08985-.0586-.04296-.10546-.01563-.13281.10156-.04297.13281-.01563.13672.01563.13282-.01563.10156-.04297.0586-.08984.01562-.10547-.08985-.0586-.07421-.07421-.10157-.04297-.08984-.0586-.14844-.14843-.04297-.10547-.01562-.13281v-.29297l-.0586-.08985-.08984-.05859-.07422-.07422-.04297-.10547-.03125-.11718-.0586-.08985-.07421-.07422-.11719-.02734-.07422-.07422-.08984-.0586-.08984-.0625-.08594-.05859-.07422-.07421-.0586-.08594-.04687-.10547-.08594-.0586-.14843-.14843-.19532-.0586-.1328.01563-.10157.04297-.07422.07422-.04688.10156-.04296.10547-.0586.08984-.0586.08594-.29687.29687-.08984.0586h-.08594l-.0625-.08594-.04297-.10547.03125-.11719.0586-.08984.02734-.11719-.01172-.13281-.08984-.0625-.10547.04688-.11719.02734-.11719.03125-.26953.17578-.10156.04688-.11719.02734-.10546.04687-.08985.0586-.10156.04297-.0586-.08594-.04687-.10547.01563-.13281.04687-.10547.07031-.07422.07422-.07031.0586-.08985v-.14843l-.04297-.10547h-.23829l-.10156.04687-.03125.11719-.02734.11719-.03125.1211-.07422.04296-.13281.01563-.07422-.04688-.04297-.10156-.04297-.10547-.04687-.10156-.04297-.10547-.1211.03125-.10156.04297-.13281.01562-.11719.03125-.10547.04297-.08984.0586-.10156.04687-.1211.02734-.13281.01563-.10156-.04297-.0586-.08985-.04687-.10546-.04297-.10157-.04297-.10546v-.1172l.0586-.08984.08593-.05859.17969-.11719.10156-.04687.10547-.04297.10547-.0586.10156-.04296.08985-.0625.10156-.04297.10547-.0586.10156-.04687.08984-.0586.10547-.04296.10156-.04297.08985-.0625.10156-.04297.13672-.01563.11719.03125.10156.04297.1211.03125.10156.04297.10546.04688.10157.04296.10547.04297.10156.04688.10547.04297.10156.04297.10547.04687.08594.0586.10546.04296.1172.03125.10546.04297.10156.04688.08985.0586.10547.04296.10156.04297.10547.04687.11719.02735.10156.04687.1211.02735h.14843l.08594-.0586.01562-.10156.0586-.08984-.02735-.1172-.07422-.07421-.11719-.17969-.07421-.07422-.08985-.07421-.17969-.1172-.08593-.05859-.10547-.04296-.10156-.04688-.26954-.17578-.05859-.08985-.07422-.07421-.0586-.08985-.04296-.10156-.03125-.11719-.01563-.13672v-.5625l-.01171-.1328-.01563-.13282-.03125-.11719-.01562-.13281-.01172-.13281-.03125-.1211-.22266-.22265-.0586-.08594-.01562-.10547.03125-.11719.13281-.01562v-91.41406H172.9922v1.45312l-.0586.23438-.35156 1.05078-.17187.52343-.1172.34766-.17577.41016-.11719.17187-.23438.29297-.23046.0586h-.35157l-.11718.05859-.23047.40625v.29297l.11719.17578.23046.23047.1172.23437.64062.75781.29297.46485.17578.23437.23047.35156.23437.34766.64063.8164.17578.46485.17187.41016.11719.69531.17578.46875.11719 1.39844.0586.46484v.875l.11718 1.04688v4.78125l-.0586.46484-.35156 1.28125-.17578.52344-.11328.41015-.35156.9297L172.93359 336l-.23437.58203-.11719.17578-.17187.34766-.17578.40625-.35157.8164-.0586.29297-.11327.29297-.11719.28906-.0586.17579-.11718.875-.0586.40625-.05859.11718-.0586.17579-.05859.17187-.23047.52734-.11718.17188v.23437l-.11719.23438-.0586.17187-.17577.58594v.28906l-.0586.17579v.29296l-.0586.11329-.05859.52734v.17187l-.05468.23438v2.6211l-.17578.8164-.1172.17578-.17577.23438-.1172.17187-.11327.23438-.58594.93359-.23047.28906-.29297.46485-.17578.23437-.28906.35156-.35156.69922-.11328.23047-.17579.41016-.17578.23046-.40625.52735-.8164.69922-.29297.17187-.28906.23438-.17579.11719-.17578.17578-.52344.40625-.52734.17578-.17187.17578-.23438.05469-.64062.17578h-.75782m12.21094 31.02344l-1.07422.44921.35938.89454 1.25-.71485.44531-.53906-.98047-.08985"/><path fill="#d3d3d3" fill-opacity="0" fill-rule="evenodd" d="M201.50781 416.59766h-.89453l.44922.6289.98047.35938.80469-.08985.4453-.98828-.17577.08985-.71485-.35547-.89453.35547m154.6211 59.0703l-.0586-.52343v-.29297l.11328-.29297.0586-.23046.46875-.46875h.11328l.11719-.11329.11718-.05859h.17579l.23437-.0586h.34766l.23437.0586.11719.0586.23047.17187.0586.17578.11718.58203v.29297l-.11719.17578-.17187.28906-.17579.17579-.52734.52343-.23047.23438-.11719.0586h-.17578l-.11718-.0586-.40625-.29297-.17579-.11719-.11718-.0586-.0586-.11327-.05468-.1172m6.64062-10.95702l-.0586-.17188v-1.10937l.0586-.17188.17578-.0586.17188-.05858h.17578l.23437-.0586.1172.0586.05858.69921-.05859.17188-.11719.17578-.11718.0586-.23438.52343-.11328.0586h-.23438l-.05859-.1172m9.61328-14.39062l-.11719-.17578v-.69922l.29297-.875.1172-.17187.17577-.35156.11328-.23047.1172-.29297.35155-.75781.1172-.23047.17187-.23438h.17578l.11719-.0586h.64062l.11719.0586.23437.23438.17188.11328.35156.29297.11719.11718.11328.17579v.11328l.11719.05859.11718.11719v.69922l-.05859.17578v.23047l-.0586.17578-.34765 1.05078-.11719.23047-.11719.23437-.11718.0586-.23047.23437-.64063.28906h-.875l-.41015-.11718-.64063-.46485"/><path fill="none" stroke="#bebebe" stroke-linecap="round" stroke-linejoin="round" stroke-miterlimit="10" stroke-width=".5" d="M467.95703 311.69531H144.02734v168.625h323.9297v-168.625"/><g clip-path="url(#a)"><path fill="#fff" fill-opacity="0" fill-rule="evenodd" d="M144 475.89063v4.4375h.0039H144V311.67188h.0039H144v164.21875"/></g><g clip-path="url(#b)"><path fill="#fff" fill-opacity="0" fill-rule="evenodd" d="M144.0039 480.32813V311.67188h22.1875v124.82421l-4.4375 2.46875-1.43359 1.41797 1.08594 4.4375.34766.39453.54297-.39453 3.89453-3.01953 4.4375 1.47266 2.5625-2.89063-2.5625-2.3789-4.4375-1.50782V311.67188h301.80468v168.65625H144.00391"/></g><path fill="#50fcfc" fill-rule="evenodd" d="M161.40625 444.82031l-1.08594-4.4375 1.4336-1.41797 4.4375-2.46875 4.4375 1.50782 2.5625 2.3789-2.5625 2.89063-4.4375-1.47266-3.89453 3.01953-.54297.39453-.34766-.39453"/><g clip-path="url(#c)"><path fill="#fff" fill-opacity="0" fill-rule="evenodd" d="M467.9961 480.32813H468V311.67188h-.0039H468v168.65625h-.0039"/></g><g clip-path="url(#d)"><path fill="none" stroke="#000" stroke-linecap="round" stroke-linejoin="round" stroke-miterlimit="10" stroke-width=".5" d="M147.50781 480.15625l-7.01562.34375"/></g><g clip-path="url(#e)"><path fill="none" stroke="#000" stroke-linecap="round" stroke-linejoin="round" stroke-miterlimit="10" stroke-width=".5" d="M147.50781 480.15625l1.25781 2.10938"/></g><g clip-path="url(#f)"><path fill="none" stroke="#000" stroke-linecap="round" stroke-linejoin="round" stroke-miterlimit="10" stroke-width=".5" d="M160.82813 480.42188l-7.02344-.1875"/></g><g clip-path="url(#g)"><path fill="none" stroke="#000" stroke-linecap="round" stroke-linejoin="round" stroke-miterlimit="10" stroke-width=".5" d="M160.82813 480.42188l1.09375 2.19921"/></g><g clip-path="url(#h)"><path fill="none" stroke="#000" stroke-linecap="round" stroke-linejoin="round" stroke-miterlimit="10" stroke-width=".5" d="M174.14453 480.27344l-7.02734.10937"/></g><g clip-path="url(#i)"><path fill="none" stroke="#000" stroke-linecap="round" stroke-linejoin="round" stroke-miterlimit="10" stroke-width=".5" d="M174.14453 480.27344l1.1836 2.14844"/></g><g clip-path="url(#j)"><path fill="none" stroke="#000" stroke-linecap="round" stroke-linejoin="round" stroke-miterlimit="10" stroke-width=".5" d="M173.1211 480.28906l.59374 1.07422"/></g><g clip-path="url(#k)"><path fill="none" stroke="#000" stroke-linecap="round" stroke-linejoin="round" stroke-miterlimit="10" stroke-width=".5" d="M187.44922 480.07813l-7.00781.5"/></g><g clip-path="url(#l)"><path fill="none" stroke="#000" stroke-linecap="round" stroke-linejoin="round" stroke-miterlimit="10" stroke-width=".5" d="M187.44922 480.07813l1.30469 2.07812"/></g><g clip-path="url(#m)"><path fill="none" stroke="#000" stroke-linecap="round" stroke-linejoin="round" stroke-miterlimit="10" stroke-width=".5" d="M186.42969 480.15234l.65234 1.03907"/></g><g clip-path="url(#n)"><path fill="none" stroke="#000" stroke-linecap="round" stroke-linejoin="round" stroke-miterlimit="10" stroke-width=".5" d="M200.76563 480.10547l-7.01172.44531"/></g><g clip-path="url(#o)"><path fill="none" stroke="#000" stroke-linecap="round" stroke-linejoin="round" stroke-miterlimit="10" stroke-width=".5" d="M200.76563 480.10547l1.28906 2.08984"/></g><g clip-path="url(#p)"><path fill="none" stroke="#000" stroke-linecap="round" stroke-linejoin="round" stroke-miterlimit="10" stroke-width=".5" d="M199.7461 480.17188l.64452 1.04296"/></g><g clip-path="url(#q)"><path fill="none" stroke="#000" stroke-linecap="round" stroke-linejoin="round" stroke-miterlimit="10" stroke-width=".5" d="M214.08203 480.08984l-7.01172.48047"/></g><g clip-path="url(#r)"><path fill="none" stroke="#000" stroke-linecap="round" stroke-linejoin="round" stroke-miterlimit="10" stroke-width=".5" d="M214.08203 480.08984l1.29688 2.08203"/></g><g clip-path="url(#s)"><path fill="none" stroke="#000" stroke-linecap="round" stroke-linejoin="round" stroke-miterlimit="10" stroke-width=".5" d="M227.40234 480.22266l-7.02343.21484"/></g><g clip-path="url(#t)"><path fill="none" stroke="#000" stroke-linecap="round" stroke-linejoin="round" stroke-miterlimit="10" stroke-width=".5" d="M227.40234 480.22266l1.21875 2.1289"/></g><g clip-path="url(#u)"><path fill="none" stroke="#000" stroke-linecap="round" stroke-linejoin="round" stroke-miterlimit="10" stroke-width=".5" d="M240.71875 480.4375l-7.02344-.21484"/></g><g clip-path="url(#v)"><path fill="none" stroke="#000" stroke-linecap="round" stroke-linejoin="round" stroke-miterlimit="10" stroke-width=".5" d="M240.71875 480.4375l1.08203 2.19922"/></g><g clip-path="url(#w)"><path fill="none" stroke="#000" stroke-linecap="round" stroke-linejoin="round" stroke-miterlimit="10" stroke-width=".5" d="M254.03516 480.33984l-7.02735-.02343"/></g><g clip-path="url(#x)"><path fill="none" stroke="#000" stroke-linecap="round" stroke-linejoin="round" stroke-miterlimit="10" stroke-width=".5" d="M254.03516 480.33984l1.14453 2.17188"/></g><g clip-path="url(#y)"><path fill="none" stroke="#000" stroke-linecap="round" stroke-linejoin="round" stroke-miterlimit="10" stroke-width=".5" d="M267.34766 480.30469l-7.02735.04687"/></g><g clip-path="url(#z)"><path fill="none" stroke="#000" stroke-linecap="round" stroke-linejoin="round" stroke-miterlimit="10" stroke-width=".5" d="M266.32813 480.3125l.58203 1.07813"/></g><g clip-path="url(#A)"><path fill="none" stroke="#000" stroke-linecap="round" stroke-linejoin="round" stroke-miterlimit="10" stroke-width=".5" d="M280.66406 480.39453l-7.02734-.13281"/></g><g clip-path="url(#B)"><path fill="none" stroke="#000" stroke-linecap="round" stroke-linejoin="round" stroke-miterlimit="10" stroke-width=".5" d="M279.64063 480.375l.55468 1.09375"/></g><g clip-path="url(#C)"><path fill="none" stroke="#000" stroke-linecap="round" stroke-linejoin="round" stroke-miterlimit="10" stroke-width=".5" d="M293.85547 481.2539l-6.78125-1.84765"/></g><g clip-path="url(#D)"><path fill="none" stroke="#000" stroke-linecap="round" stroke-linejoin="round" stroke-miterlimit="10" stroke-width=".5" d="M292.8711 480.98438l.26952 1.1953"/></g><g clip-path="url(#E)"><path fill="none" stroke="#000" stroke-linecap="round" stroke-linejoin="round" stroke-miterlimit="10" stroke-width=".5" d="M307.26563 480.76953l-6.96875-.88281"/></g><g clip-path="url(#F)"><path fill="none" stroke="#000" stroke-linecap="round" stroke-linejoin="round" stroke-miterlimit="10" stroke-width=".5" d="M306.2539 480.64063l.4336 1.14843"/></g><g clip-path="url(#G)"><path fill="none" stroke="#000" stroke-linecap="round" stroke-linejoin="round" stroke-miterlimit="10" stroke-width=".5" d="M320.35938 481.63281l-6.52735-2.60547"/></g><g clip-path="url(#H)"><path fill="none" stroke="#000" stroke-linecap="round" stroke-linejoin="round" stroke-miterlimit="10" stroke-width=".5" d="M333.28906 482.34375l-5.75781-4.03125"/></g><g clip-path="url(#I)"><path fill="none" stroke="#000" stroke-linecap="round" stroke-linejoin="round" stroke-miterlimit="10" stroke-width=".5" d="M344.1836 483.8125l-.91407-6.96875"/></g><g clip-path="url(#J)"><path fill="none" stroke="#000" stroke-linecap="round" stroke-linejoin="round" stroke-miterlimit="10" stroke-width=".5" d="M356.42578 483.78906l1.23047-6.91797"/></g><g clip-path="url(#K)"><path fill="none" stroke="#000" stroke-linecap="round" stroke-linejoin="round" stroke-miterlimit="10" stroke-width=".5" d="M372.11719 483.36719l-3.52344-6.07813"/></g><g clip-path="url(#L)"><path fill="none" stroke="#000" stroke-linecap="round" stroke-linejoin="round" stroke-miterlimit="10" stroke-width=".5" d="M380.55469 481.95313l6.23437-3.2461"/></g><g clip-path="url(#M)"><path fill="none" stroke="#000" stroke-linecap="round" stroke-linejoin="round" stroke-miterlimit="10" stroke-width=".5" d="M394.9961 483.22266l3.98046-5.78907"/></g><g clip-path="url(#N)"><path fill="none" stroke="#000" stroke-linecap="round" stroke-linejoin="round" stroke-miterlimit="10" stroke-width=".5" d="M407.92969 477.73438l4.74219 5.1875"/></g><g clip-path="url(#O)"><path fill="none" stroke="#000" stroke-linecap="round" stroke-linejoin="round" stroke-miterlimit="10" stroke-width=".5" d="M425.27734 477.23047l-3.3203 6.19531"/></g><path fill="none" stroke="#000" stroke-linecap="round" stroke-linejoin="round" stroke-miterlimit="10" stroke-width=".5" d="M425.27734 477.23047l2.45313.00781"/><g clip-path="url(#P)"><path fill="none" stroke="#000" stroke-linecap="round" stroke-linejoin="round" stroke-miterlimit="10" stroke-width=".5" d="M438.05078 476.9961l-2.23828 6.66406"/></g><path fill="none" stroke="#000" stroke-linecap="round" stroke-linejoin="round" stroke-miterlimit="10" stroke-width=".5" d="M438.05078 476.9961l2.41797-.40235"/><g clip-path="url(#Q)"><path fill="none" stroke="#000" stroke-linecap="round" stroke-linejoin="round" stroke-miterlimit="10" stroke-width=".5" d="M450.03125 476.82031l.4336 7.01563"/></g><path fill="none" stroke="#000" stroke-linecap="round" stroke-linejoin="round" stroke-miterlimit="10" stroke-width=".5" d="M450.03125 476.82031l2.08984-1.28125"/><g clip-path="url(#R)"><path fill="none" stroke="#000" stroke-linecap="round" stroke-linejoin="round" stroke-miterlimit="10" stroke-width=".5" d="M464.97656 477.11328l-2.83203 6.42969"/></g><path fill="none" stroke="#000" stroke-linecap="round" stroke-linejoin="round" stroke-miterlimit="10" stroke-width=".5" d="M464.97656 477.11328l2.44922-.17969"/><g clip-path="url(#S)"><path fill="none" stroke="#000" stroke-linecap="round" stroke-linejoin="round" stroke-miterlimit="10" stroke-width=".5" d="M147.5039 467.27344l-7.0078-.51953"/></g><path fill="none" stroke="#000" stroke-linecap="round" stroke-linejoin="round" stroke-miterlimit="10" stroke-width=".5" d="M147.5039 467.27344l.98829 2.2461m12.32031-2.17579l-6.9961-.66016m6.9961.66016l.94531 2.26172m12.33985-2.01563l-6.9336-1.15234m6.9336 1.15234l.77734 2.32813m-1.78906-2.4961l.39062 1.16407m13.95703-1.16406l-6.97656-.81641m6.97656.8164l.89453 2.28516m-1.91015-2.40625l.44922 1.14453m13.90625-1.46484l-7.02735.0664m7.02735-.0664l1.17187 2.15625m-2.19531-2.14453l.58594 1.07812m13.7461-1.26562l-7.01563.41797m7.01562-.41797l1.27734 2.09375m-2.29687-2.03125l.64063 1.04687m13.62109-1.64843l-6.86719 1.49609m6.86719-1.4961l1.58594 1.8711m-2.58594-1.65234l.79297.93359m13.5664-.91016l-6.95703 1.01172m6.95703-1.01172l1.44922 1.98047m-2.46094-1.83203l.72657.98828m13.47656-1.67578l-6.70703 2.08984m6.70703-2.08984l1.7461 1.72656m-2.72266-1.42187l.8711.86328m13.17187-1.76563l-6.21094 3.28516m6.21094-3.28516l2.03125 1.37891m-2.9336-.89844l1.01563.6875m13.11719-1.32031l-6.04297 3.58984m6.04297-3.58984l2.09765 1.27344m11.5-.67969l-6.60547 2.40234m6.60547-2.40234l1.82031 1.64453m11.6836-.82812l-6.98438.76953m6.98438-.76953l1.38281 2.02734m11.94922-1.51172l-7.01953-.26172m7.01953.26172l1.07031 2.21094m12.24219-2.5586l-7.01563.4336m7.01563-.4336l1.28516 2.08985m11.98046-2.48828l-6.91796 1.23047m6.91796-1.23047l1.51563 1.9336m11.70703-2.32813l-6.73047 2.01953m6.73047-2.01953l1.72656 1.74218m11.71875-.39453l-6.99218-.67578m5.97656.57813l.46875 1.1328m7.10937-.05468l6.51563-2.63672m-5.5664 2.2539l-.94141-.78905m13.0625-.41407l7.0039.53516m-5.98437-.45703l-.4922-1.125m19.37892-.35938l-6.1797 3.34766m5.28126-2.85938l1.02344.67579m13.03515-1.42578l-5.86719 3.87109m5.8672-3.8711l2.15234 1.17579m10.86718-1.5625l-5.27734 4.64453m5.27734-4.64453l2.29688.86718m10.6211-1.25l-4.48438 5.41016m4.48437-5.41016l2.40235.4961m11.77734.5664l-6.21094 3.28516"/><g clip-path="url(#T)"><path fill="none" stroke="#000" stroke-linecap="round" stroke-linejoin="round" stroke-miterlimit="10" stroke-width=".5" d="M466.66797 465.3711l2.03125 1.375"/></g><path fill="none" stroke="#000" stroke-linecap="round" stroke-linejoin="round" stroke-miterlimit="10" stroke-width=".5" d="M465.76563 465.84766l1.01562.6914"/><g clip-path="url(#U)"><path fill="none" stroke="#000" stroke-linecap="round" stroke-linejoin="round" stroke-miterlimit="10" stroke-width=".5" d="M147.4375 454.42188l-6.875-1.44922"/></g><path fill="none" stroke="#000" stroke-linecap="round" stroke-linejoin="round" stroke-miterlimit="10" stroke-width=".5" d="M147.4375 454.42188l.67969 2.35937m12.51562-1.92578l-6.63672-2.3164m6.63672 2.3164l.3711 2.42578m12.94922-2.4414l-6.64454-2.28126m6.64453 2.28125l.38672 2.42188m12.9961-2.64453l-6.78125-1.83594m6.78125 1.83594l.54687 2.39062m12.89063-3.40625l-7.02344.19531m7.02344-.1953l1.21094 2.1328m-2.23438-2.10546l.60547 1.0664m13.71875-.66797l-6.9961-.65625m6.9961.65625l.94531 2.26563m12.34766-3.09766l-6.95313 1.0039m6.95313-1.0039l1.44922 1.98047m-2.46094-1.83203l.72656.98828m13.38672-1.9336L233.94141 455m6.52734-2.60156l1.8711 1.58593m10.63671-2.79687l-4.91406 5.02344m4.91406-5.02344l2.35547.6914m10.60156-1l-4.1953 5.63672m4.1953-5.63671l2.42578.37109m-3.03515.44922l1.21094.1875m13.27343-.48828l-5.3164 4.59765m5.3164-4.59765l2.28907.88672m-3.0625-.21485l1.14453.4414m12.83593-1.22655l-5.10156 4.82812m5.10156-4.82812l2.32813.78125m-3.07031-.08204l1.16406.39063m12.9375-1.04688l-5.1875 4.7422m5.1875-4.7422l2.3125.82032m-3.0664-.13282l1.15234.41407m13.47656-.28125l-6.3086 3.09765m6.3086-3.09765l1.98828 1.4375m-2.90625-.98438l.9961.71875m13.05078-1.5l-5.9375 3.75781m5.9375-3.7578l2.1328 1.21484m-2.99609-.66797l1.06641.60547m12.83594-1.53125l-5.38672 4.51171m5.38672-4.51171l2.27734.92187m9.9375-1.79687l-3.1836 6.26562m3.1836-6.26562l2.45313-.04688m9.92187-.27344l-1.30078 6.90625m1.30078-6.90625l2.33985-.73047m10.43359.67188l-.21875 7.02344m.21875-7.02344l2.20312-1.08203M399.625 451.375l-5.27734 4.64453m5.27734-4.64453l2.29297.86719m11.04687-.83203l-5.32812 4.57812m5.32812-4.57812l2.28907.89062m11.02343-.89844l-5.3203 4.58985m5.3203-4.58985l2.28907.89063m-3.0625-.22266l1.14453.44531m12.88281-1.17968l-5.19922 4.72656m5.19922-4.72656l2.3086.82422m-3.06641-.13672l1.15625.41406m13.3164-.5664l-6 3.65624m6-3.65625l2.11328 1.25m-2.98437-.71875l1.05469.625m13.53515-.19922l-6.80859 1.7422"/><g clip-path="url(#V)"><path fill="none" stroke="#000" stroke-linecap="round" stroke-linejoin="round" stroke-miterlimit="10" stroke-width=".5" d="M466.96484 452.82813l1.65235 1.8125"/></g><path fill="none" stroke="#000" stroke-linecap="round" stroke-linejoin="round" stroke-miterlimit="10" stroke-width=".5" d="M465.97656 453.08203l1.65235 1.8125"/><g clip-path="url(#W)"><path fill="none" stroke="#000" stroke-linecap="round" stroke-linejoin="round" stroke-miterlimit="10" stroke-width=".5" d="M147.3789 441.34375l-6.7578-1.91797"/></g><path fill="none" stroke="#000" stroke-linecap="round" stroke-linejoin="round" stroke-miterlimit="10" stroke-width=".5" d="M147.3789 441.34375l.51954 2.39844m12.58594-1.83985l-6.33594-3.03906m6.33594 3.03906l.09765 2.45313m13.03125-2.11719l-5.96875-3.70703m5.96875 3.70703l-.16406 2.44531m13.64844-2.75l-6.3047-3.09765m6.3047 3.09765l.07812 2.45313m13.55469-3.44531l-6.9375-1.1172m6.9375 1.1172l.79297 2.32422m-1.80469-2.48438l.39844 1.16016m13.91406-2.19141l-6.91016 1.26563m6.91016-1.26563l1.52344 1.92188m-2.52735-1.73829l.76172.96094m13.46485-1.52344l-6.72657 2.02735m6.72657-2.02735l1.73047 1.7422m10.97656-2.90626l-5.51172 4.35547m5.51172-4.35547l2.25.98438m11.0586-.9961l-5.4961 4.3789m5.4961-4.3789l2.25.97657m10.60937-1.44922l-4.58594 5.32422m4.58594-5.32422l2.39453.53906m11.20312-.26563l-5.15234 4.77344m5.15234-4.77344l2.32032.8047m10.53906-1.21876l-4.23828 5.60547m4.23828-5.60547l2.42187.38672m-3.03906.42578l1.21094.19531m12.1914-1.33984l-3.17968 6.26563m3.17968-6.26563l2.45313-.04687m-2.91406.96093l1.22656-.02343m12.27734-1.01172l-2.63672 6.51172m2.63672-6.51172l2.4414-.25782m-2.82421 1.20313l1.21875-.125m13.15625-.45703l-3.99219 5.78125m3.99219-5.78125l2.4375.28515m11.65234.44532l-5.53906 4.32422m5.53906-4.32422l2.2422 1m10.78905-1.32422l-4.96875 4.96875m4.96875-4.96875l2.34375.71875m-3.0703.0039l1.17577.35938m11.47266-1.9375l-2.1836 6.67969m2.1836-6.6797l2.41797-.42187m-2.73828 1.39454l1.21093-.21094m13.98829.27734l-5.3125 4.60156m4.53906-3.92968l1.14453.4414m13.52344-.17968L393.75 441.75m6.47266-2.73437l1.90625 1.54687m-2.84766-1.14844l.95313.77344m12.84375-1.95312l-5.5547 4.30078m5.5547-4.30078l2.23828 1.0078m-3.04688-.3828l2.23828 1.0078m-3.04297-.3828l1.1172.5039m13.89843-1.64062l-5.73047 4.0703m5.73047-4.0703l2.19531 1.10156m-3.02734-.50781l2.1914 1.09765m-3.02734-.50781l2.19531 1.10156m12.55078-2.58203l-5.2539 4.66406m5.2539-4.66406l2.30079.85547m-3.06641-.17578l2.30078.85547m-3.0625-.17578l2.29688.85156m13.11718-1.32813l-6.39843 2.90235m6.39843-2.90235l1.94532 1.4961m-2.875-1.07422l1.9453 1.4961m12.5586-1.10157l-6.91406 1.26563"/><g clip-path="url(#X)"><path fill="none" stroke="#000" stroke-linecap="round" stroke-linejoin="round" stroke-miterlimit="10" stroke-width=".5" d="M467.01953 439.75l1.52344 1.92188"/></g><path fill="none" stroke="#000" stroke-linecap="round" stroke-linejoin="round" stroke-miterlimit="10" stroke-width=".5" d="M466.01172 439.9336l1.52344 1.92577m-2.52735-1.74218l.76172.96484"/><g clip-path="url(#Y)"><path fill="none" stroke="#000" stroke-linecap="round" stroke-linejoin="round" stroke-miterlimit="10" stroke-width=".5" d="M147.4961 426.71875l-6.9922.69922"/></g><path fill="none" stroke="#000" stroke-linecap="round" stroke-linejoin="round" stroke-miterlimit="10" stroke-width=".5" d="M147.4961 426.71875l1.36327 2.04297m11.89844-.99219l-6.88672-1.40234m6.88672 1.40234l.69922 2.35156m12.11719-1.13672l-5.88672-3.83203m5.88672 3.83203l-.21484 2.44532m13.51562-2.42188l-5.85938-3.8789m5.85938 3.8789l-.23828 2.4414m-.61328-3.0039l-.1211 1.21875m14.42188-.875l-6.1289-3.4414m6.1289 3.4414l-.05469 2.45313m12.98047-1.89844l-5.35156-4.55078m4.57422 3.89062l-.26172 1.19922m14.26172-.4336l-5.16407-4.76171m4.41407 4.07031l-.3125 1.1875m15.05078-4.19922l-6.51172 2.64453m5.5625-2.2578l.9414.78515m12.94141-1.8711l-5.7461 4.04297m5.7461-4.04297l2.1875 1.10938m11.26953-.89453l-6.03125 3.61328m6.03125-3.61328l2.10156 1.26953m10.98829-1.59766l-5.58203 4.26953m5.58203-4.26953l2.23047 1.01953m9.875-2.02343l-3.16407 6.27734m3.16406-6.27734l2.45313-.05078m-2.91406.96484l1.22656-.02734m12.58203-.8672l-3.22656 6.2422m3.22656-6.2422l2.45313-.03124m-2.92188.9375l1.22656-.01563m12.38672-.97656l-2.88672 6.41016m2.88672-6.41016l2.44922-.16015m-2.8711 1.09375l1.22657-.08204m12.4375-.8828l-2.74219 6.47265m2.34375-5.53125l1.22266-.10547m14.52344 1.51953l-6.8047 1.76172m6.8047-1.76172l1.65625 1.8086m-2.64844-1.55079l.82812.90235m13.2461-1.79297l-6.33985 3.02734m6.33985-3.02734l1.97265 1.46093m-2.89453-1.01953l1.97266 1.46094m-2.89453-1.01953l.98437.73047m14.46094-.72266l-6.91406 1.25m6.91406-1.25l1.51953 1.92578m-2.52344-1.74609l1.51954 1.92578m12.84765-1.75l-7.00781.53516m7.00781-.53516l1.3125 2.07422m-2.33203-1.9961l.65625 1.03907m13.57031-1.7539l-6.79297 1.80859m6.79297-1.8086l1.66797 1.79688m-2.65625-1.53516l1.67188 1.79688m-2.66016-1.53125l.83594.89843m14.02344-2.41015l-5.92579 3.77734m5.92579-3.77734l2.1328 1.20703m-2.99609-.65625l2.13672 1.20703m-3-.66016l1.07031.60547m13.45704-2.33203l-4.90235 5.03516m4.90235-5.03516l2.35546.6875m-3.0664.04688l2.35547.68359m-3.07031.04688l2.35546.6875m12.64454-1.875l-5.41797 4.48046m5.41796-4.48047l2.26563.9375m-3.05469-.28515l2.26953.9375m-3.05859-.28516l2.26953.9336m13.08203-1.52344l-6.33203 3.05078m6.33203-3.05078l1.97656 1.45312m-2.89843-1.0078l1.97656 1.45312m-2.89844-1.01172l1.97656 1.45312m13.46485-1.47265l-6.90235 1.3164"/><g clip-path="url(#Z)"><path fill="none" stroke="#000" stroke-linecap="round" stroke-linejoin="round" stroke-miterlimit="10" stroke-width=".5" d="M467.01172 426.41016l1.53906 1.91406"/></g><path fill="none" stroke="#000" stroke-linecap="round" stroke-linejoin="round" stroke-miterlimit="10" stroke-width=".5" d="M466.00781 426.60156l1.53906 1.91406m-2.54296-1.72265l.76953.95703"/><g clip-path="url(#aa)"><path fill="none" stroke="#000" stroke-linecap="round" stroke-linejoin="round" stroke-miterlimit="10" stroke-width=".5" d="M147.20703 412.3125l-6.41406 2.8789"/></g><path fill="none" stroke="#000" stroke-linecap="round" stroke-linejoin="round" stroke-miterlimit="10" stroke-width=".5" d="M146.27344 412.73438l.96875.75m13.20312 1.86718l-6.26172-3.19531m5.35157 2.73047l.01953 1.22656m13.3086.35156l-4.46876-5.42187m4.46875 5.42187l-.9375 2.26563m14.3125-2.3125l-4.58594-5.32813m3.91797 4.55078l-.44531 1.14454m14.88281-.84375l-5.4961-4.375m4.69923 3.73828l-.22656 1.20703m14.51171-.8086l-5.84375-3.89843m4.9961 3.33203l-.125 1.21875m14.13281-.4375l-5.53125-4.32813m4.72656 3.69922l-.21094 1.20703m15.07032-2.96875l-7.01172.45313m5.99219-.38672l.64453 1.04297m13.39062-2.3164l-6.41406 2.86718m6.41406-2.86719l1.9375 1.50782m11.66406-.44532l-6.98828.74219m6.98828-.74219l1.375 2.03125m-2.39062-1.92187L267 414.5078m13.35547-2.19531l-6.41016 2.88281m6.41016-2.88281l1.9375 1.5039m-2.8711-1.08593l.96875.7539m12.50782-2.26953l-4.86328 5.07422m4.86328-5.07422l2.35937.66797m-3.07031.07031l1.1836.33594m13.68359.1875l-6.54688 2.55078m6.54688-2.55078l1.85937 1.60156m11.01953-2.39453l-5.67578 4.14063m5.67578-4.14063l2.20704 1.07032m11.46875-.45704l-6.39454 2.91407m6.39454-2.91406l1.9453 1.49218m11.57423.84375l-6.8047-1.75781m6.8047 1.75781l.57422 2.38672m-1.56641-2.64453l.57422 2.38672m13.8164-2.58594l-6.97265-.84375m6.97265.84375l.88672 2.28906m-1.89843-2.41406l.8828 2.29297m13.46095-2.33594l-7.00782-.50781m7.00782.50781l.99218 2.24219m-2.01172-2.3164l.9922 2.24218m-2.01173-2.3164l.4961 1.12109m14.8164-1.83203l-6.92187 1.20703m6.92187-1.20703l1.50782 1.9375m-2.51563-1.76172l1.50781 1.9375M385.1172 413.5l.7539.96875m14.60938-.36719l-6.99219-.69922m6.99219.69922l.9336 2.27344M399.46483 414l.9297 2.27344m-1.94532-2.375l.46484 1.13672m14.46485-2.97657l-6.15625 3.39063m6.15625-3.39063l2.05468 1.33985m-2.94921-.84766l2.05468 1.34375m12.09766-1.9336l-6.04297 3.58594m6.04297-3.58593l2.09766 1.27343m-2.97657-.7539l2.09766 1.27344m12.4375-1.01954l-6.72266 2.03907m6.72266-2.03906l1.73047 1.73828m-2.70703-1.44141l1.73047 1.73828m-2.71094-1.4414l.86719.87109m14.40625-1.46875l-6.72266 2.04687m6.72266-2.04687l1.73046 1.73437m-2.71093-1.4375l1.73437 1.73438m-2.71094-1.4375l.8672.8711m14.4375-1.35157l-6.78907 1.82031"/><g clip-path="url(#ab)"><path fill="none" stroke="#000" stroke-linecap="round" stroke-linejoin="round" stroke-miterlimit="10" stroke-width=".5" d="M466.95703 412.84375l1.67188 1.79688"/></g><path fill="none" stroke="#000" stroke-linecap="round" stroke-linejoin="round" stroke-miterlimit="10" stroke-width=".5" d="M465.96875 413.10938l1.67188 1.79296m-2.66016-1.52734l.83594.89453"/><g clip-path="url(#ac)"><path fill="none" stroke="#000" stroke-linecap="round" stroke-linejoin="round" stroke-miterlimit="10" stroke-width=".5" d="M147.28125 399.1836l-6.5625 2.5078"/></g><path fill="none" stroke="#000" stroke-linecap="round" stroke-linejoin="round" stroke-miterlimit="10" stroke-width=".5" d="M146.32813 399.55078l.92187.80469m13.35547 1.3164l-6.58203-2.46484m5.625 2.10547l.16015 1.21484m13.625.03125l-5.60547-4.23828m5.60547 4.23828l-.38672 2.42188m12.69922-1.52344l-3.60156-6.03515m3.07813 5.15625l-.63672 1.05078m14.22656-.03907l-3.10547-6.30468m2.65625 5.38671l-.71875.9961m16.4336-2.96875l-7.00782-.52344m5.98828.44922l.4961 1.1211M227.375 400l-6.96875.875M227.375 400l1.41406 2.0039m11.91797-1.28906l-7.0039-.55078m7.0039.55078l.98047 2.25m-2-2.33203l.98047 2.25m13.34766-2.08203l-6.98829-.72656m6.98828.72656l.92188 2.27344M253 400.69532l.46094 1.13671m13.88281-1.17187l-7.01563-.44532m7.01563.44532l1.01172 2.23828m-2.03516-2.30078l.50781 1.11718m13.83594-1.3789l-7.02734.20312m7.02734-.20312l1.21485 2.13281m12.09375-2.26953l-7.01172.48047m7.01172-.48047l1.29687 2.08203m11.54688-3.61328l-6.07032 3.53906m5.1875-3.02344l1.04297.64454m13.51563-.29688l-6.78907 1.8125m6.78907-1.8125l1.67187 1.79688m11.57422-2.01954l-6.65234 2.26172m6.65234-2.26172l1.78906 1.6797m-2.7578-1.35157l.89452.83984m12.6875 2.29688l-5.25-4.66797m5.25 4.66797l-.57812 2.38281m-.1875-3.0625l-.28907 1.1914m14.16407-.29687l-4.83985-5.09765m4.83985 5.09765l-.77735 2.32422m.07422-3.0664l-.39062 1.16406m15.45312-2.39063l-6.92969-1.16406m6.9297 1.16406l.77734 2.32813m-1.78516-2.4961l.77734 2.32813m13.35157-4.02344l-6.54297 2.5664m6.54297-2.5664l1.86328 1.59375m-2.8125-1.22266l1.86328 1.59766m-2.8164-1.22266l.92968.79688m14.52344-.04688l-7.01172-.42968m7.01172.42968l1.01953 2.23438m-2.03906-2.29688l1.01953 2.23438m13.1875-1.41797l-6.75782-1.9336m6.75782 1.9336l.51172 2.39844m-1.4961-2.67969l.25781 1.19922m14.1172-2.52344l-6.91016 1.27735m6.91015-1.27735l1.52735 1.92188m-2.53125-1.73829l1.52734 1.92188m12.83594-1.77734l-6.9961.62109m6.9961-.6211l1.33984 2.0547m-2.35547-1.96485l1.33985 2.05469m12.99218-2.15625l-7 .64062m7-.64062l1.34375 2.05078m-2.36328-1.95703l1.34766 2.05078m-2.36328-1.95703l.67187 1.02734m14.65235-1.41797l-6.94922 1.05078"/><g clip-path="url(#ad)"><path fill="none" stroke="#000" stroke-linecap="round" stroke-linejoin="round" stroke-miterlimit="10" stroke-width=".5" d="M467.03516 399.91406l1.46484 1.96875"/></g><path fill="none" stroke="#000" stroke-linecap="round" stroke-linejoin="round" stroke-miterlimit="10" stroke-width=".5" d="M466.02344 400.0664l1.46484 1.96876m-2.47265-1.81641l.73046.98438"/><g clip-path="url(#ae)"><path fill="none" stroke="#000" stroke-linecap="round" stroke-linejoin="round" stroke-miterlimit="10" stroke-width=".5" d="M147.09766 385.46875l-6.19532 3.3086"/></g><path fill="none" stroke="#000" stroke-linecap="round" stroke-linejoin="round" stroke-miterlimit="10" stroke-width=".5" d="M147.09766 385.46875l2.03906 1.36719m-2.9414-.88672l1.01952.6836m11.36328-2.78907l-2.52343 6.5586m2.15625-5.60548l1.21484-.14843m12.82031 5.59375l-3.23437-6.23828m2.76562 5.33203l-.69922 1.00781m14.91797-.36719l-4.10156-5.70703m3.5039 4.875l-.53905 1.10156m15.76171-2.10156l-6.72265-2.04297m5.7461 1.7461l.23437 1.20312m14.1328-1.19531l-6.87108-1.46485m6.87109 1.46485l.67187 2.35937m-1.67187-2.5703l.67187 2.35937m-1.67187-2.57422l.33594 1.17969m14.98437-.77735l-6.88281-1.41797m6.88281 1.41797l.6914 2.35547m-1.6914-2.5625l.6875 2.35547m13.6211-2.11328l-6.8711-1.48828m6.8711 1.48828l.66796 2.35937m-1.66797-2.57812l.33204 1.1836m14.03515-1.28907l-6.97656-.83985m6.97656.83985l.88672 2.28906m-1.90234-2.41015l.44531 1.14453m13.90625-1.6172l-7.01563.34767m7.01563-.34766l1.25781 2.10547M266.32422 387l.6289 1.05469m13.71094-.89063l-7.02734-.07812m7.02734.07812l1.1289 2.17578m-2.15234-2.1875l.56641 1.08985m13.76953-1.23047l-7.02343.22265m7.02343-.22265l1.22266 2.1289m-2.24219-2.09765l.60938 1.0664m13.6914-1.48046l-6.95703.98828m6.95703-.98828l1.44532 1.98437m-2.45704-1.83984l.72266.99219m13.53906-1.47657l-6.82422 1.66797m6.82422-1.66797l1.63282 1.83203m11.76562-1.35546l-6.99219.71484m6.99219-.71485l1.36719 2.03516m11.59765-.11328l-6.29296-3.1289m6.29296 3.1289l.06641 2.45313m13.5625-3.39844l-6.91797-1.23828m6.91797 1.23828l.7539 2.33594m-1.76171-2.51563l.7539 2.33594m13.52344-3.60547l-6.82812 1.66015m6.82812-1.66015l1.63281 1.83203m-2.625-1.58984l1.63282 1.83203m-2.625-1.58985l.8125.91407m14.39453-1.71875l-6.64063 2.30078m6.64063-2.30078l1.79687 1.67187m-2.76562-1.33594l1.80078 1.66797m12.625-1.45703l-6.92578 1.20703m6.92578-1.20703l1.5039 1.9375m-2.51171-1.76172l.7539.96875m13.55078-1.23437l-6.89062 1.38672m6.89062-1.38672l1.5547 1.89844m-2.5586-1.69532l.78125.94531m13.60156-.67187l-7.01562.4336m7.01562-.4336L428.40625 389m-2.30469-2.02734l.64063 1.04296m13.6914-.59765l-7.0039-.58594m7.0039.58594l.96485 2.2539m-1.98438-2.33984l.96875 2.2539m13.36719-2.20312l-7.00781-.51562m7.00781.51562l.99219 2.24219m-2.01172-2.32031l.99219 2.2461m13.35156-2.42579h-7.02734"/><g clip-path="url(#af)"><path fill="none" stroke="#000" stroke-linecap="round" stroke-linejoin="round" stroke-miterlimit="10" stroke-width=".5" d="M467.07422 387.125l1.15234 2.16406"/></g><path fill="none" stroke="#000" stroke-linecap="round" stroke-linejoin="round" stroke-miterlimit="10" stroke-width=".5" d="M466.05469 387.125l1.14844 2.16406"/><g clip-path="url(#ag)"><path fill="none" stroke="#000" stroke-linecap="round" stroke-linejoin="round" stroke-miterlimit="10" stroke-width=".5" d="M146.8711 371.78516l-5.7422 4.04687"/></g><path fill="none" stroke="#000" stroke-linecap="round" stroke-linejoin="round" stroke-miterlimit="10" stroke-width=".5" d="M146.8711 371.78516l2.1914 1.10546m-3.02734-.51562l2.1914 1.10547m11.40625-2.3125l-4.63672 5.28125m4.63672-5.28125l2.39063.5664m-3.0625.20313l1.1914.28125m13.98438 1.83203l-7.01172-.48437m7.01172.48437l1 2.23828m11.9375-.88281l-6.25781-3.19531m6.2578 3.19531l.04298 2.45313m-.95313-2.91797l.04297 2.45312m14.05469-1.76172l-6.0039-3.65234m6.0039 3.65234l-.14063 2.44922m-.73437-2.98047l-.14063 2.44922m14.73438-2.8789l-6.8125-1.72657m6.8125 1.72656l.58594 2.38282m-1.57813-2.63281l.29297 1.1914m13.83203-.40625l-6.44531-2.79687m6.44531 2.79687l.19531 2.44531m13.38672-3.42578l-6.97656-.83594m6.97656.83594l.88672 2.28906m-1.90234-2.41015l.4414 1.14453m13.89844-1.14063l-7-.60156m7 .60156l.96484 2.25782m-1.98046-2.34375l.48047 1.125m13.85937-1.15235l-7.01563-.375m7.01563.375l1.03516 2.22266m-2.0547-2.27734l.51563 1.11328m13.8086-1.58594l-6.9961.67969m6.9961-.67969l1.35547 2.04688m-2.375-1.94922l.67968 1.02343m13.66797-.89062l-7.02343.21875m7.02343-.21875l1.21875 2.1289m-2.23828-2.09765l.60938 1.0664m13.72265-1.19921l-7.01562.42187m7.01562-.42187l1.27735 2.09375m-2.30078-2.03125l1.28125 2.09375m13.01562-2.52344l-6.9336 1.15625m6.9336-1.15625l1.49219 1.94922m-2.5-1.78125l.7461.97265m13.61327-.30078l-7.00781-.52344m7.00781.52344l.98828 2.2461m-2.0078-2.32422l.49609 1.125m13.82812-.92578l-6.98437-.76563m6.98437.76563l.91016 2.28125m-1.92578-2.39454l.90625 2.28125m13.4453-2.49609l-7.02734-.10937m7.02735.10937l1.11719 2.1836m-2.14063-2.19922l1.1211 2.18359m13.17578-2.77344l-6.94141 1.10156m6.9414-1.10156l1.47657 1.95703m-2.48828-1.79687l1.47656 1.95703m-2.48438-1.79688l.73829.98047m14.40625-2.0078l-6.5625 2.51562m6.5625-2.51563l1.85156 1.60938m-2.8086-1.2422l1.85157 1.60938m12.43359-1.93359l-6.59375 2.42969m6.59375-2.42969l1.83203 1.63281m-2.78906-1.28125l1.82812 1.63672m12.54297-1.6875l-6.78515 1.82422m6.78515-1.82422l1.67578 1.79297m-2.66406-1.52734l.83594.89843m13.5664-.61328l-6.98828.72656m6.98829-.72656l1.37109 2.03906m-2.38672-1.93359l.6836 1.01953m13.65624-.48828l-7.0039-.54687m7.0039.54687l.98047 2.25m-2-2.33203l.49219 1.125m13.83984-1.0039l-7-.625m7 .625l.95704 2.2578m-1.97657-2.34765l.48047 1.1289m13.85156-.99218l-6.99218-.71875"/><g clip-path="url(#ah)"><path fill="none" stroke="#000" stroke-linecap="round" stroke-linejoin="round" stroke-miterlimit="10" stroke-width=".5" d="M467.0586 374.16797l.92187 2.27344"/></g><path fill="none" stroke="#000" stroke-linecap="round" stroke-linejoin="round" stroke-miterlimit="10" stroke-width=".5" d="M466.03906 374.0625l.46094 1.13672"/><g clip-path="url(#ai)"><path fill="none" stroke="#000" stroke-linecap="round" stroke-linejoin="round" stroke-miterlimit="10" stroke-width=".5" d="M147.03125 358.71875l-6.0625 3.54688"/></g><path fill="none" stroke="#000" stroke-linecap="round" stroke-linejoin="round" stroke-miterlimit="10" stroke-width=".5" d="M147.03125 358.71875l2.08984 1.28906m-2.96875-.77344l1.04297.64454m13.20703-1.06641l-6.17187 3.35938m6.17187-3.35938l2.04688 1.35547m-2.94531-.86719l2.04687 1.35547m-2.94531-.86328l1.02344.67578m14.46875.58203l-6.9375-1.11328m6.9375 1.11328l.79687 2.32031m-1.80469-2.48437l.79297 2.32422m-1.80078-2.48438l.39453 1.16016m14.66406.0625l-6.39062-2.91406m6.39063 2.91406l.15234 2.44922m-1.08203-2.8711l.14844 2.44922m-1.07813-2.875l.14844 2.44922m15.03515-1.6211l-6.41015-2.875m6.41015 2.875l.16407 2.44923m-1.09766-2.8672l.16797 2.44923m-1.09766-2.86719l.08203 1.22656m15.34375-1.17578l-6.90625-1.30469m6.90625 1.3047l.73047 2.34374m-1.73437-2.53125l.36328 1.17188m13.95703-.9961l-6.90625-1.28125m6.90625 1.28125l.73828 2.34375m-1.74219-2.52734l.73828 2.33984m13.63672-2.59765l-7.01562-.39844m7.01562.39844l1.02735 2.22656m-2.05078-2.28516l.51562 1.11328m13.82031-1.4453l-7.01562.38671m7.01562-.38672l1.26953 2.09766m-2.28906-2.04297l.63281 1.05078m13.69532-1.21094l-7 .59766m7-.59766l1.33203 2.0586m-2.35156-1.97266l.66796 1.03125m13.6797-.82031h-7.02735m7.02734 0l1.15235 2.16797m-2.17579-2.16797l1.15235 2.16797m13.1836-2.08985l-7.02345-.15234m7.02344.15234l1.10547 2.1875m-2.125-2.21094l1.10547 2.19141m13.22656-2.41015l-7.01953.32812m7.01953-.32813l1.2539 2.10938m-2.27343-2.0625l1.25 2.11328m13-2.77734l-6.84766 1.5625m6.84766-1.5625l1.60547 1.85547m-2.60156-1.62891l1.60547 1.85938m12.70703-2.09375l-6.84766 1.58203m6.84766-1.58204l1.60937 1.85157m-2.60547-1.6211l.8047.92579m13.58202-.07422l-7-.58204m7 .58204l.96875 2.2539m-1.98828-2.33984l.96875 2.2539m13.375-2.33984l-7.01953-.24219m7.01953.2422l1.07813 2.20702m-2.09766-2.24219l1.07422 2.20704m-2.09766-2.2422l.53906 1.10548m14.8047-1.4961l-6.9922.6836m6.9922-.6836l1.35937 2.04297m-2.375-1.94531l1.35547 2.04297m-2.375-1.9414l1.35937 2.04296m13.8125-3.0625l-6.63281 2.32031m6.63281-2.3203L388.78906 361m-2.76562-1.32813l1.80078 1.66407m-2.76563-1.32813l1.80078 1.66406m13.40235-2.44921l-6.55078 2.53906m6.55078-2.53906l1.85937 1.60546m-2.8125-1.23437l1.85938 1.60156m-2.8125-1.23437l.92969.80469m14.41015-1.1797l-6.78906 1.81641m6.78906-1.8164l1.67188 1.79297m-2.66016-1.53125l1.67188 1.79687m12.70312-1.72265l-6.9336 1.14062m6.9336-1.14063l1.48828 1.95313m-2.4961-1.78516l1.48829 1.94922m12.8711-1.85156l-7.00391.60938m7.0039-.60938l1.33203 2.0586m-2.35156-1.96876l1.33594 2.0586m13.01172-1.82422l-7.02735-.03906m7.02735.03906l1.13672 2.17578m-2.16016-2.17969l1.14063 2.17188m13.1953-2.21875l-7.02734.0664"/><g clip-path="url(#aj)"><path fill="none" stroke="#000" stroke-linecap="round" stroke-linejoin="round" stroke-miterlimit="10" stroke-width=".5" d="M467.07422 360.46094l1.17187 2.15625"/></g><path fill="none" stroke="#000" stroke-linecap="round" stroke-linejoin="round" stroke-miterlimit="10" stroke-width=".5" d="M466.05078 360.46875l.58985 1.07813"/><g clip-path="url(#ak)"><path fill="none" stroke="#000" stroke-linecap="round" stroke-linejoin="round" stroke-miterlimit="10" stroke-width=".5" d="M147.02344 345.38672l-6.04688 3.58203"/></g><path fill="none" stroke="#000" stroke-linecap="round" stroke-linejoin="round" stroke-miterlimit="10" stroke-width=".5" d="M147.02344 345.38672l2.09375 1.27734m11.28125-1.17187l-6.16797 3.3711m6.16797-3.3711l2.05078 1.35156m-2.94922-.85938l1.02734.67579m13.6172.53125l-7.02735-.02735m7.02734.02735l1.14063 2.17187m-2.16407-2.17578l1.14453 2.17188m12.65625-.3125l-5.95312-3.73829m5.95313 3.73829l-.17579 2.4453m-.6914-2.98827l-.17578 2.4453m14.46093-2.08202l-6.16015-3.3789m6.16015 3.3789l-.03125 2.45703m-.86328-2.94531l-.01953 1.22656m14.61719-1.85938l-6.9336-1.13671m6.9336 1.13671l.78516 2.32422m-1.79297-2.48828l.78515 2.32422m13.57422-2.47266l-7.00781-.51171m7.00781.51171l.99219 2.2422m-2.01172-2.31642l.99219 2.2422m13.33984-2.1172l-7-.61328m7 .61329l.95703 2.26171m-1.97656-2.34765l.47656 1.1289m13.8711-1.3125l-7.02735-.07421m7.02735.07421l1.1289 2.1797m-2.15234-2.19142l1.1289 2.1797m13.20704-2.26954l-7.02344.1289m7.02344-.1289l1.1914 2.14453m-2.21093-2.125l1.1914 2.14453m13.14453-2.15234l-7.02734.10547m7.02734-.10547l1.1836 2.14844m-2.20703-2.13281l1.18359 2.14843m13.1211-1.6211l-6.95704-.98046m6.95703.98047l.83985 2.30469m-1.85157-2.44532l.83594 2.3047m13.52344-2.65235h-7.02735m7.02735 0l1.15234 2.16406m-2.17187-2.16406l1.15234 2.16406m13.17969-2.32813l-7.01953.32813m7.01953-.32813l1.25 2.10938m-2.26953-2.0625l1.25 2.10938m-2.27344-2.0625l.625 1.05468m14.63281-1.83203L327 348.02343m6.82031-1.6914l1.64063 1.82422m-2.63282-1.57813l1.64063 1.82422m-2.63281-1.57812l.82031.91406m14.38281-1.73437l-6.625 2.34765m6.625-2.34765l1.8086 1.65625m-2.77344-1.31641l1.8086 1.66016m-2.77345-1.31641l.90625.82813m14.53125-.58204l-7.01171.48829m7.01171-.48829l1.30079 2.08204m-2.32032-2.01172l1.29688 2.08203m13.04297-1.97656l-7.02344.14062m7.02344-.14063l1.19531 2.14063m-2.21484-2.1211l1.1953 2.14063m-2.21874-2.1211l1.19531 2.14454m13.9961-3.1914l-6.6875 2.15624m6.6875-2.15625l1.76171 1.70703m-2.73437-1.39453l1.76172 1.70703m-2.73438-1.39453l1.76172 1.71094m13.48438-2.3789l-6.66016 2.23827m6.66016-2.23828l1.78125 1.6875m-2.75-1.36328l1.78125 1.6875m-2.75-1.35937l1.78125 1.6875m13.53906-2.11719l-6.79297 1.79297m6.79297-1.79297l1.66797 1.80078m-2.65625-1.53906l1.66797 1.80078m-2.65625-1.53906l1.66406 1.79687m-2.65235-1.53906l.83204.90234m15.4375-1.71484l-6.77735 1.85547m6.77735-1.85547l1.68359 1.78516m-2.66797-1.51563l1.6836 1.78516m-2.67188-1.51563l1.6836 1.78906M440.3789 346.5l-6.89454 1.35547m6.89454-1.35547l1.54687 1.90234m-2.55078-1.70312l1.55078 1.90234m-2.55469-1.70703l.77735.95313m14.55078-1.32032l-6.90625 1.30079m6.90625-1.30079l1.53125 1.91797m-2.53516-1.72656l1.53125 1.91406m-2.53515-1.72656l.76562.95703m14.57813-1.21094l-6.94922 1.05079"/><g clip-path="url(#al)"><path fill="none" stroke="#000" stroke-linecap="round" stroke-linejoin="round" stroke-miterlimit="10" stroke-width=".5" d="M467.03516 346.65234L468.5 348.6211"/></g><path fill="none" stroke="#000" stroke-linecap="round" stroke-linejoin="round" stroke-miterlimit="10" stroke-width=".5" d="M466.02344 346.80469l1.46484 1.97265m-2.47265-1.8203l.73046.98827"/><g clip-path="url(#am)"><path fill="none" stroke="#000" stroke-linecap="round" stroke-linejoin="round" stroke-miterlimit="10" stroke-width=".5" d="M146.95313 331.95703l-5.90625 3.8125"/></g><path fill="none" stroke="#000" stroke-linecap="round" stroke-linejoin="round" stroke-miterlimit="10" stroke-width=".5" d="M146.09375 332.51172l1.07031.59765m13.14063-1.08984l-5.98047 3.6875m5.10937-3.15234l1.0625.6211m13.60547.14062l-6.9414 1.09375m6.9414-1.09375l1.47266 1.96093m-2.48438-1.80078l.73828.98047m12.92188 1.52344l-5.60938-4.23438m5.60938 4.23438l-.38672 2.42187m-.42969-3.03906l-.1914 1.21094m14.59375-1.01172l-6.15235-3.39844m6.15235 3.39844l-.03906 2.45313m-.85547-2.94922l-.01953 1.22656m14.52343-1.4375l-6.74219-1.98438m6.7422 1.98438l.49218 2.40234m-1.47266-2.6914l.4922 2.40234m13.93358-2.8086l-7-.59374m7 .59375l.96485 2.2578m-1.98438-2.34374l.96485 2.25781m13.38281-2.41406l-7.02734-.11328m7.02734.11328l1.11719 2.1875m-2.14063-2.20313l1.11719 2.1836m13.21875-2.14063l-7.02344-.16406m7.02344.16406l1.10156 2.1914m-2.1211-2.21483l1.10157 2.1914m13.19531-1.71484l-6.9453-1.07031m6.9453 1.0703l.8086 2.31641m-1.82032-2.47265l.40625 1.16015m13.89063-2.23046l-6.88672 1.3828m6.88672-1.3828l1.5586 1.89843m-2.5586-1.69922l.77734.94922m13.57422-.94922l-6.95703.98438m6.95703-.98438l1.44531 1.98047m-2.45703-1.83984l.72266.99219m13.25.96093l-6.25-3.20703m6.25 3.20703l.03906 2.45313M305.9961 335l.01953 1.22656m14.54688-1.79687l-6.9336-1.13281m6.9336 1.1328l.78906 2.32032m-1.79687-2.48828l.78906 2.32422m13.5586-3.11328l-6.98438.78125m6.98437-.78125l1.38672 2.02343m-2.40234-1.91015l.6914 1.01172m13.3125-2.26172l-6.32812 3.05469m6.32812-3.0547l1.98047 1.45313m11.59375-.71094l-6.84765 1.56641m6.84765-1.5664l1.60547 1.85546m-2.60156-1.625l.80469.92579m13.57422.01953l-6.98438-.78516m6.98438.78516l.90234 2.28515m-1.91797-2.39844l.90234 2.28125m13.41797-3.02343l-6.96484.92969m6.96484-.9297l1.4297 1.9961m-2.44142-1.85937l1.4297 1.99218m12.875-2.27734l-6.91798 1.22656m6.91797-1.22656l1.51172 1.92969m-2.51953-1.7539l.75781.96874m13.29297-2.01172l-6.3711 2.96094m6.3711-2.96094l1.95703 1.47656m-2.88672-1.04687l.98047.73828m13.3789-.89062l-6.60155 2.40625m6.60156-2.40625l1.82422 1.64062m-2.78516-1.28906l1.82422 1.64062m-2.78516-1.29296l.91407.8203m14.3789-1.34765l-6.71484 2.0625m6.71484-2.0625l1.73828 1.73438m-2.71484-1.4336l1.73828 1.73047m-2.71484-1.42969l1.73828 1.73047m13.60547-2.0586l-6.86328 1.51563m6.86328-1.51562l1.58984 1.86719m-2.58984-1.64454l1.58984 1.8672m-2.58984-1.64844l1.59375 1.86718m13.65234-2.57031l-6.72656 2.03906"/><g clip-path="url(#an)"><path fill="none" stroke="#000" stroke-linecap="round" stroke-linejoin="round" stroke-miterlimit="10" stroke-width=".5" d="M466.92578 332.84375l1.73047 1.74219"/></g><path fill="none" stroke="#000" stroke-linecap="round" stroke-linejoin="round" stroke-miterlimit="10" stroke-width=".5" d="M465.94531 333.14063l1.73047 1.74218m-2.70703-1.44531l1.73047 1.73828"/><g clip-path="url(#ao)"><path fill="none" stroke="#000" stroke-linecap="round" stroke-linejoin="round" stroke-miterlimit="10" stroke-width=".5" d="M140.50781 320.14844l6.98438.80078"/></g><path fill="none" stroke="#000" stroke-linecap="round" stroke-linejoin="round" stroke-miterlimit="10" stroke-width=".5" d="M153.91406 321.42578l6.80469-1.7539m-5.8164 1.49609l-.82813-.90235m17.53125 3.65625l-1.94922-6.75m1.66406 5.76954l-.8789.85546m16.73828-1.8789l-6.46875-2.74219m6.46875 2.74219l.21484 2.44531m-1.15625-2.84375l.10938 1.22266m13.64453.01562l-5.46094-4.42187m5.46094 4.42187l-.46875 2.41016m13.88281-2.53516l-5.66016-4.16797m5.66016 4.16797l-.35938 2.42578m-.46484-3.03515l-.35937 2.42969m14.91406-2.5586l-6.49219-2.6914m6.49219 2.6914l.23437 2.4414m-1.17968-2.83202l.23437 2.4414m14.24219-2.79687l-6.92578-1.20313m6.92578 1.20313l.76172 2.33203m-1.76953-2.50781l.76562 2.33203m13.58984-2.41016l-6.99218-.6914m6.99219.6914l.93359 2.26953M253 320.79296l.9336 2.26954m13.3828-2.04297l-6.96093-.94531m6.96094.94531l.85156 2.30469m-1.86328-2.4414l.84765 2.30077m13.51172-2.67968l-7.02734.08593m7.02734-.08593l1.17969 2.15234m-2.20312-2.13672l1.17968 2.15235m13.07422-2.89844l-6.85547 1.54687m6.85547-1.54687l1.59766 1.85937M292.89453 320l1.60156 1.85938m12.79688-1.21875l-7.02344-.1836m7.02344.1836l1.09375 2.1953m-2.11719-2.22265l.55078 1.09766m13.64844-.17578l-6.7461-1.97657m6.7461 1.97657l.4961 2.40625m-1.48047-2.69141l.25 1.19922m14.1875-1.80078l-7.02344-.19922m7.02344.19922l1.09375 2.19531m-2.11329-2.22656l.54297 1.10156m13.79297-1.08203l-7.02344-.17969m7.02344.17969l1.09766 2.19531m12.19922-2.66015l-6.98828.7539m5.97265-.64453l.6875 1.01563m13.64453-1.10157l-6.99218.70703m6.99218-.70703l1.36328 2.03906m11.67579-3.09765l-6.4375 2.82031m6.4375-2.82031l1.92187 1.52344m-2.85937-1.11329l.96093.76172m13.58594.25782l-7.02734-.03516m6.0039.02734l.57032 1.08985m12.39062 1.6875l-4.27344-5.57813m18.10938.49219l-5.3125 4.59766m18.48437-4.75391l-5.02734 4.91016m4.29687-4.19532l1.16797.3711m13.35938-.47266l-5.98828 3.67969m5.98828-3.67969l2.11328 1.2461m-2.98438-.71094l1.0547.625m12.96874-1.39453l-5.66797 4.15234"/><g clip-path="url(#ap)"><path fill="none" stroke="#000" stroke-linecap="round" stroke-linejoin="round" stroke-miterlimit="10" stroke-width=".5" d="M466.39453 318.47266l2.21094 1.0664"/></g><g clip-path="url(#aq)"><path fill="none" stroke="#000" stroke-linecap="round" stroke-linejoin="round" stroke-miterlimit="10" stroke-width=".5" d="M465.57031 319.07422l2.21094 1.0664"/></g><path fill="none" stroke="#000" stroke-linecap="round" stroke-linejoin="round" stroke-miterlimit="10" stroke-width=".5" d="M464.7461 319.67969l2.21093 1.0664"/><path fill="#00f" fill-rule="evenodd" d="M392.67578 467.64844h8.6211V457.5039h-8.6211v10.14453"/><path fill="azure" fill-rule="evenodd" d="M394.51172 459.33594h.83203v2.82422h3.28516v-2.82422h.83203v6.48047h-.83203v-2.91797h-3.28516v2.91797h-.83203v-6.48047"/><path fill="#ff3030" fill-rule="evenodd" d="M331.23438 463.21094h7.6914V453.0625h-7.6914v10.14844"/><path fill="azure" fill-rule="evenodd" d="M333.0664 454.89844h.83594v5.73828h3.19141v.74219h-4.02734v-6.48047"/><path fill="#ff3030" fill-rule="evenodd" d="M189.20703 445.45703h7.6914V435.3125h-7.6914v10.14453"/><path fill="azure" fill-rule="evenodd" d="M191.03906 437.14453h.83594v5.73828h3.1914v.74219h-4.02734v-6.48047"/><path fill="#00f" fill-rule="evenodd" d="M224.01953 414.38672h8.61719v-10.14453h-8.61719v10.14453"/><path fill="azure" fill-rule="evenodd" d="M225.85156 406.07422h.83594v2.82422h3.28516v-2.82422h.83203v6.48047h-.83203v-2.91406h-3.28516v2.91406h-.83594v-6.48047"/><path fill="#ff3030" fill-rule="evenodd" d="M171.45313 374.4414h7.6914v-10.14452h-7.6914v10.14453"/><path fill="azure" fill-rule="evenodd" d="M173.28516 366.1289h.83593v5.7422h3.19141v.73827h-4.02734v-6.48046"/><path fill="#ffffe0" fill-rule="evenodd" d="M316.45703 387.98828h22.17969v-10.1914h-22.17969v10.1914"/><path fill-rule="evenodd" d="M319.95703 379.6289h.50781v6.29688h-.78515v-4.49219h-1.39063v-.55468l.5625-.0625.25-.0547.23047-.08983.20313-.14063.17578-.21094.14062-.29297.10547-.39843m4.8125 0l.23047.01953.21875.05469.20703.08984.19531.1211.1875.15234.16797.17578.30469.41797.24219.49218.17969.54688.11328.57812.03515.59375-.03515.59375-.11329.58204-.17968.55468-.24219.5-.30469.42969-.16797.17969-.1875.15234-.1953.125-.20704.08985-.21875.05859-.23047.01953-.23047-.01953-.21875-.0586-.20703-.08984-.19531-.125-.1836-.15234-.17187-.17969-.30078-.42969-.2461-.5-.17968-.55469-.10938-.58203-.03906-.59375h.83203l.03125.5625.08203.50391.125.44531.16016.375.1914.30078.21094.21875.22266.13672.22656.04688.22656-.04688.22266-.13672.21094-.21875.1914-.30078.16016-.375.1289-.44531.08204-.5039.02734-.5625-.02734-.5625-.08203-.5-.12891-.4375-.16016-.36329-.1914-.29297-.21094-.21484-.22266-.1289-.22656-.04688-.22656.04687-.22266.12891-.21094.21484-.1914.29297-.16016.36328-.125.4375-.08203.5-.03125.5625h-.83203l.03906-.59375.10938-.57812.17969-.54688.24609-.49218.30078-.41797.17188-.17578.18359-.15235.19531-.1211.20703-.08983.21875-.0547.23047-.01952m5.09375 0h.50781v6.29687h-.78906v-4.49219h-1.38672v-.55468l.5586-.0625.2539-.0547.23047-.08983.20313-.14063.17187-.21094.14063-.29297.10937-.39843m2.82031 2.17578h.78907l.01953-.3164.0586-.28517.09765-.2539.14062-.21485.1836-.17187.22265-.1289.26563-.08204.3086-.02734.23437.02344.22656.0625.20312.10156.1797.13672.14843.17187.11328.20703.07031.23438.02735.26562-.02344.26954-.0664.22265-.10938.1914-.15625.17188-.19922.16406-.2461.16407-.63671.39062-.53516.3125-.4375.3164-.34766.32423-.26562.33594-.1875.35156-.125.3711-.07031.39062-.01954.42187h4.21094v-.74219h-3.33203l.08203-.28515.11328-.23438.14844-.20312.1875-.17969.23047-.17188.28125-.17578.71484-.41406.41407-.20703.34765-.23047.28125-.25.21875-.26953.16406-.27734.10938-.28516.0664-.28516.01954-.28125-.04297-.3828-.1211-.34767-.1875-.30859-.25-.26172-.30078-.21094-.34765-.16015-.3789-.09766-.40626-.03515-.4375.03515-.39844.09766-.35546.16797-.3047.23437-.24609.30078-.1875.375-.11328.44532-.04297.51953"/><path fill="#ffffe0" fill-rule="evenodd" d="M221.01953 343.60547h22.17969v-10.1914h-22.17969v10.1914"/><path fill-rule="evenodd" d="M224.51953 335.2461h.50781v6.29687h-.78515v-4.49219h-1.39063v-.55469l.5625-.0664.25-.05078.23047-.08985.20313-.14453.17578-.20703.14062-.29688.10547-.39453m4.8125 0l.23047.01954.21875.05468.20703.08985.19922.12109.1836.14844.17187.17578.30078.42187.24219.4922.17969.54687.11328.57812.03906.59375-.03906.58985-.11328.58593-.1797.55469-.24218.5-.30078.42969-.17188.17969-.18359.15234-.19922.125-.20703.08984-.21875.0586-.23047.01953-.22656-.01953-.21875-.0586-.21094-.08984-.19531-.125-.1836-.15235-.17187-.17968-.30078-.42969-.2461-.5-.17968-.55469-.10938-.58594-.03906-.58984h.83203l.03125.5625.08203.5039.125.44532.16406.3711.1875.30077.21094.22266.22266.13672.22656.04688.22656-.04688.22266-.13672.21094-.22265.1914-.30079.16407-.37109.125-.44531.08203-.5039.02734-.5625-.02734-.5625-.08203-.5-.125-.4375-.16407-.36329-.1914-.29297-.21094-.21484-.22266-.13281-.22656-.04297-.22656.04296-.22266.13282-.21094.21484-.1875.29297-.16406.36328-.125.4375-.08203.5-.03125.5625H227.25l.03906-.59375.10938-.57812.17969-.54688.24609-.49219.30078-.42187.17188-.17578.18359-.14844.19531-.1211.21094-.08984.21875-.05469.22656-.01953m5.09375 0h.50781v6.29688h-.78515v-4.49219h-1.39063v-.55469l.5586-.0664.2539-.05078.23047-.08985.20313-.14453.17187-.20703.14453-.29688.10547-.39453m2.82422 2.17579h.78516l.01953-.31641.0586-.28516.10155-.2539.13672-.21485.1836-.17578.22265-.1289.26563-.07813.3086-.02734.23827.01953.22266.0625.20312.10156.1797.14063.14843.17187.11328.20703.07031.23438.02735.26562-.02344.26953-.0664.22266-.10938.1914-.15625.17188-.19922.16406-.2461.16406-.63671.39063-.53516.3125-.4375.3164-.34766.32423-.26172.33593-.1914.35156-.125.3711-.07031.39062-.01953.42188h4.21093v-.74219h-3.33203l.08203-.28515.11328-.23438.14844-.20313.1875-.17968.23047-.17188.28125-.17578.71484-.41797.41797-.20312.34375-.23047.28125-.2539.21875-.26563.16406-.27735.11329-.28515.0625-.28516.01953-.28125-.04297-.38281-.11719-.34766-.1914-.3086-.25-.26171-.30079-.21484-.34765-.15625-.3789-.09766-.40626-.03516-.4375.03125-.39844.10157-.35156.16406-.30469.23437-.25.3047-.18359.375-.11719.4453-.03906.51954"/><path fill="#ffffe0" fill-rule="evenodd" d="M328.42969 344.40625h22.17969v-10.19531h-22.1797v10.19531"/><path fill-rule="evenodd" d="M331.92969 336.04688h.50781v6.29296h-.78516v-4.48828h-1.39062v-.55469l.5586-.0664.2539-.05469.23047-.08984.20312-.14063.17188-.21094.14453-.29296.10547-.39454m4.8125 0l.23047.01954.21875.05468.20703.08985.19531.1211.1836.14843.17187.17578.30469.41797.24218.4961.1797.54687.10937.57812.03906.58985-.03906.59375-.10938.58593-.17969.55079-.24218.5039-.3047.42578-.17187.17969-.18359.15625-.19531.1211-.20703.09374-.21875.0547-.23047.01952-.23047-.01953-.21875-.05469-.20703-.09375-.19531-.12109-.1836-.15625-.17187-.17969-.3047-.42578-.24218-.5039-.17969-.55079-.10937-.58593-.03906-.59375h.83203l.02734.5625.08203.5078.1289.44142.16017.375.1914.30078.21094.22265.22265.13672.22657.04688.22656-.04688.22266-.13672.21093-.22265.19141-.30079.16016-.375.1289-.4414.07813-.50781.03125-.5625-.03125-.5625-.07813-.5-.1289-.4336-.16016-.36719-.1914-.29296-.21094-.21094-.22266-.13281-.22656-.04688-.22656.04688-.22266.1328-.21094.21095-.1914.29296-.16016.3672-.1289.43359-.08204.5-.02734.5625h-.83203l.03906-.58985.10937-.57812.1797-.54688.24218-.4961.30469-.41796.17187-.17578.1836-.14844.1953-.1211.20704-.08984.21875-.05468.23047-.01954m5.08984 0h.51172v6.29297h-.78906v-4.48828h-1.38672v-.55469l.5586-.0664.2539-.05469.22656-.08984.20313-.14063.17578-.21094.14062-.29296.10547-.39454m6.80469 1.6172h-.78516l-.05078-.21094-.08203-.1875-.10938-.15625-.1289-.13282-.14844-.10156-.16015-.07422-.16797-.04687-.17188-.01563-.32812.04297-.28516.1211-.2461.1953-.20312.26563-.16406.33985-.11328.40234-.07031.46875-.02344.52734.1875-.20312.1875-.16016.1836-.1211.1875-.08984.1875-.05859.1914-.03906.40234-.02344.30469.03125.32031.08984.3164.15625.29688.21875.2539.28516.19923.35156.07422.19922.05078.21875.03125.23438.0039.25-.78906.04687-.02734-.25781-.07813-.25-.1211-.23438-.16015-.21093-.1914-.1797-.22266-.13671-.23828-.08594-.2539-.03125-.25782.03125-.23828.08594-.22266.13672-.1914.17969-.16016.21093-.1211.23438-.07812.25-.02734.25781.02734.26172.07813.25.12109.23438.16016.21093.1914.17578.22266.13672.23828.08985.25781.03125.2539-.03125.23829-.08985.22266-.13672.1914-.17578.16016-.21094.1211-.23437.07812-.25.02734-.26172.78906-.04687-.03125.37109-.09375.3711-.15625.35937-.22265.32812-.28906.28516-.17188.11719-.1875.10156-.20703.08203-.22266.0625-.24219.03906-.2578.01172-.28516-.01562-.26172-.04688-.23438-.07422-.21875-.10546-.1914-.13282-.17579-.15625-.15234-.17969-.13672-.20312-.11719-.22266-.09765-.24218-.14844-.53125-.08594-.59375-.02734-.64063.03906-.7461.11719-.66015.1836-.57812.12109-.25782.13672-.23046.15234-.20704.17188-.17968.1875-.15625.19921-.12891.21875-.10156.23438-.07422.2461-.04297.26171-.01563.36719.03125.33203.09766.29688.15235.2539.19921.21094.23829.16797.27734.11328.30078.0625.32031"/></g></defs><use xlink:href="#ar"/></svg>