<svg xmlns="http://www.w3.org/2000/svg" role="img" xmlns:xlink="http://www.w3.org/1999/xlink" viewBox="142.45 309.95 326.84 171.84"><defs><clipPath id="a"><path d="M144 311.67188h1v168.65625h-1zm0 0"/></clipPath><clipPath id="b"><path d="M144 311.67188h324v168.65625H144zm0 0"/></clipPath><clipPath id="c"><path d="M467 311.67188h1v168.65625h-1zm0 0"/></clipPath><clipPath id="d"><path d="M144 479h4v1.32813h-4zm0 0"/></clipPath><clipPath id="e"><path d="M147 479h2v1.32813h-2zm0 0"/></clipPath><clipPath id="f"><path d="M153 479h9v1.32813h-9zm0 0"/></clipPath><clipPath id="g"><path d="M160 480h3v.32813h-3zm0 0"/></clipPath><clipPath id="h"><path d="M166 480h9v.32813h-9zm0 0"/></clipPath><clipPath id="i"><path d="M173 480h3v.32813h-3zm0 0"/></clipPath><clipPath id="j"><path d="M172 480h2v.32813h-2zm0 0"/></clipPath><clipPath id="k"><path d="M180 479h8v1.32813h-8zm0 0"/></clipPath><clipPath id="l"><path d="M187 479h2v1.32813h-2zm0 0"/></clipPath><clipPath id="m"><path d="M186 480h2v.32813h-2zm0 0"/></clipPath><clipPath id="n"><path d="M193 479h9v1.32813h-9zm0 0"/></clipPath><clipPath id="o"><path d="M200 479h3v1.32813h-3zm0 0"/></clipPath><clipPath id="p"><path d="M199 480h2v.32813h-2zm0 0"/></clipPath><clipPath id="q"><path d="M206 479h9v1.32813h-9zm0 0"/></clipPath><clipPath id="r"><path d="M213 479h3v1.32813h-3zm0 0"/></clipPath><clipPath id="s"><path d="M212 479h2v1.32813h-2zm0 0"/></clipPath><clipPath id="t"><path d="M220 479h8v1.32813h-8zm0 0"/></clipPath><clipPath id="u"><path d="M227 479h2v1.32813h-2zm0 0"/></clipPath><clipPath id="v"><path d="M233 479h8v1.32813h-8zm0 0"/></clipPath><clipPath id="w"><path d="M240 480h3v.32813h-3zm0 0"/></clipPath><clipPath id="x"><path d="M246 479h9v1.32813h-9zm0 0"/></clipPath><clipPath id="y"><path d="M253 479h3v1.32813h-3zm0 0"/></clipPath><clipPath id="z"><path d="M260 479h8v1.32813h-8zm0 0"/></clipPath><clipPath id="A"><path d="M266 479h2v1.32813h-2zm0 0"/></clipPath><clipPath id="B"><path d="M273 480h8v.32813h-8zm0 0"/></clipPath><clipPath id="C"><path d="M279 480h2v.32813h-2zm0 0"/></clipPath><clipPath id="D"><path d="M286 479h9v1.32813h-9zm0 0"/></clipPath><clipPath id="E"><path d="M292 480h2v.32813h-2zm0 0"/></clipPath><clipPath id="F"><path d="M300 479h8v1.32813h-8zm0 0"/></clipPath><clipPath id="G"><path d="M305 480h2v.32813h-2zm0 0"/></clipPath><clipPath id="H"><path d="M313 478h8v2.32813h-8zm0 0"/></clipPath><clipPath id="I"><path d="M327 477h7v3.32813h-7zm0 0"/></clipPath><clipPath id="J"><path d="M343 476h2v4.32813h-2zm0 0"/></clipPath><clipPath id="K"><path d="M355 476h4v4.32813h-4zm0 0"/></clipPath><clipPath id="L"><path d="M368 476h5v4.32813h-5zm0 0"/></clipPath><clipPath id="M"><path d="M380 478h8v2.32813h-8zm0 0"/></clipPath><clipPath id="N"><path d="M394 477h6v3.32813h-6zm0 0"/></clipPath><clipPath id="O"><path d="M408 476h5v4.32813h-5zm0 0"/></clipPath><clipPath id="P"><path d="M421 477h5v3.32813h-5zm0 0"/></clipPath><clipPath id="Q"><path d="M435 476h4v4.32813h-4zm0 0"/></clipPath><clipPath id="R"><path d="M449 476h2v4.32813h-2zm0 0"/></clipPath><clipPath id="S"><path d="M461 476h5v4.32813h-5zm0 0"/></clipPath><clipPath id="T"><path d="M144 466h4v2h-4zm0 0"/></clipPath><clipPath id="U"><path d="M466 465h2v3h-2zm0 0"/></clipPath><clipPath id="V"><path d="M144 452h4v3h-4zm0 0"/></clipPath><clipPath id="W"><path d="M466 452h2v3h-2zm0 0"/></clipPath><clipPath id="X"><path d="M144 439h4v3h-4zm0 0"/></clipPath><clipPath id="Y"><path d="M466 439h2v4h-2zm0 0"/></clipPath><clipPath id="Z"><path d="M144 426h4v2h-4zm0 0"/></clipPath><clipPath id="aa"><path d="M466 426h2v3h-2zm0 0"/></clipPath><clipPath id="ab"><path d="M144 412h4v4h-4zm0 0"/></clipPath><clipPath id="ac"><path d="M466 412h2v4h-2zm0 0"/></clipPath><clipPath id="ad"><path d="M144 398h4v5h-4zm0 0"/></clipPath><clipPath id="ae"><path d="M466 399h2v4h-2zm0 0"/></clipPath><clipPath id="af"><path d="M144 384h4v6h-4zm0 0"/></clipPath><clipPath id="ag"><path d="M466 386h2v4h-2zm0 0"/></clipPath><clipPath id="ah"><path d="M144 371h4v6h-4zm0 0"/></clipPath><clipPath id="ai"><path d="M466 373h2v4h-2zm0 0"/></clipPath><clipPath id="aj"><path d="M144 358h4v5h-4zm0 0"/></clipPath><clipPath id="ak"><path d="M466 360h2v3h-2zm0 0"/></clipPath><clipPath id="al"><path d="M144 345h4v5h-4zm0 0"/></clipPath><clipPath id="am"><path d="M466 346h2v3h-2zm0 0"/></clipPath><clipPath id="an"><path d="M144 331h4v6h-4zm0 0"/></clipPath><clipPath id="ao"><path d="M466 332h2v3h-2zm0 0"/></clipPath><clipPath id="ap"><path d="M144 319h4v3h-4zm0 0"/></clipPath><clipPath id="aq"><path d="M466 318h2v2h-2zm0 0"/></clipPath><clipPath id="ar"><path d="M465 318h3v3h-3zm0 0"/></clipPath><g id="as" clip-path="url(#clip1)"><path fill="#fff" fill-opacity="0" fill-rule="evenodd" d="M0 0h1000v1000H0zm0 0"/><path fill="#d3d3d3" fill-opacity="0" fill-rule="evenodd" d="M162.15234 355.86719l-.23437.29297.0586.23437.11718.17188.17578.23437.29297.34766.11328.0586.11719-.17188.0586-.23438.17577-.17578.46485-.17578h.69922l.23437.29297.28906.8164.0586.17579.17578.23046.35156.23438.69922.69922.17188.17578.23437.34765.23438.41016.28906.58203.41015.46485.23047.23437.23438.17578.11719.23047.17578.29297.17187 1.16406v.23438l.0586.28906.05859.11719.11719.11719.34765.41015.11719.17188.17578.17578.17578.23437.11719.17188.17188.35156.05859.23438.23437.40625.23438-.0586-.17578.17578-.0586.92969h-.58203l-.23437-.11328-.34766.11328-.11719.11719-.05859.29297-.0586.17578-.11718.17187-.46484.29297-.0586.23438-.0586.11328v.64453l.0586.17187v.41016l.0586.0586v.40624l.05859.40625.11719.17579.05859.05859.23047.64062-.0586.29297v.69922l-.05859.58203v.23438l-.0586.23047-.05468.35156v1.92187l.05469.1172h.42578l-.36719.11718-.02344.35156.89063 1.16797 1.74219.53906 1.33984.35938v.53906l.08984.8086.53516.71484 1.51953.26953.89063-.08594.08984 1.16406.53516.1797 1.16015-.1797 2.05469-.98437 1.16016-.36328 1.8789-.17578 1.69531-.1797-.17968.71876-1.51563.08594-1.25.08984-.80469.26953-1.07421.8086.26953.71875.53515.89843-.17968.625-.26563.8086.26563 1.07812.625.89844.80468.17969 1.25-.1797-.26562.72267.09766.5039.05468.29297v.17188l.0586.29296v.40625l.17578.1172.35156.11718h.40625l.29297-.17578.11328-.11719.0586-.11719.11718-.23047.0586-.17578.35156-.46484.23047-.17578.17578-.0586.17578.0586.0586.17578.11718.98828.05469.46875.0586.17188.11718.23437.17578.0586.8164.05859h.28907l.11719.23437.05859.40625.0586.35156v1.10547l.11718.29297.11719.34766.28906.69922.17578.35156.58203.7539.35157.17579.17187.0586.46875.23437.64063.46484.34765.23438.29297.17578.29297.05468.23047.0625.8164.34766.29297.17578.11328.17188.35157.35156.11719.17578.52343.64063v.28906l.0586.35156v.34766l.05859.35156.0586.28906.11718.0586.17188.05859h.17578l.58203.23437.17578.1172.17578.28905.17578.23438.11328.23437.29297.23047.11719.11719v.41016l.0586.05468.28906.23438.23437.11719.0586.11718.11718.17188.0586.11719.23047.23437.05859.17578.23437.0586.1172.05859-.1172.11328-.05859.11719v.11719l-.11719.29296-.11719.28907v.58203l.17579.11719.11718.05859.0586.11719.11719.11719.11328.05859.17578.34765.0586.35157.05858.40625v.17578l-.05859.17578-.11719.69922v.17187l.1172.17579.29296.29296h.40625l.17578.1172.11719.17187.11719.29296v.23438h-.52735l-.23047-.23438h-.23437l-.17578.0586-.0586.69922.0586.34765.11719.17579.17578.41015.11718.23047.28907.46875.17578.05469h.52344l.23437.0586.75781.64062.0586.29296v.23438l.05859.0586.23047.34765v.35156l-.11719.17188v.29297l.29297.28906.29297.17578.17187.0586.29297.17577.29297.1172.58203.40624.28906.23438.29297.17578.21875.16015.01563.01172.23047.17579.64062.52343.17578.23438.1172.17578.17577.17578.11328.17188v.64062l.1172.17578.46874.11719.58203.11719.23438.05859.23047.11328.29297.11719.11328.0586.58593.35156.28907.17187.17578.0625.17578.05469.17578.0586.69922.35155.28906.17579.23438.05468.28906.17578.23437.1172.64063.40624.29297.11719.17187.0586.23438.05859.41015.05859.23047.0586.23438.11718.0586.17188-.41017.17578.46875.0586.0586.29296.11328.23438.17578.05468.23438.0586.17578.05859.40625.11719.64062.23437.11719.17188.0586.23437v.17578l-.0586.1172-.0586.40624.23438.23438.11719.05859.34766.11719.64062.23047.17578.11718.28906.1172.17578.17577.23438.46485.58203 1.10546.17578.17579.34766.17578.17578.11719.35156.11718 1.04688.52344.23437.0586.46485.11327.29297.0586.46484.17578.75781.58203.23438.23438.34765.46484.17578.17578.28907.23438.8164.69921.29297.17579.28906.28906.29297.17578.29297.28906.69531.64063.17578.17578.29297.23437.28907.23438.46875.28906.64062.58203.34766.23438.23437.29297.34766.34765.35156.46485.9336.99218.34765.40625.11719.17579.23437.05859.11328.11719.64454.17578.23047.11328.23437.0586.29297.17577.23047.1172.9336.69921.40624.40625.23438.17578.40625.17578.23437.11719.8164.34766.34766.23437.23438.11719.29297.28906.23047.11719.7578.35156.35157.17188.23047.05859.29297.11719.23437.0586.8711.17577h.8164l.46875.23047.17188.0586.875.69921.46484.1172.29297.05858.17578.0586.23047.0586.46875.05859.34766.05859.35156.0586.40625.05859h.29297l.17187.0586v.23046l.17578.17578h.29297l.34766.0586.35156.05859.69922.11719h.64063l.46484-.23438.29297-.17578.17187-.11719.41016-.17187.28906-.17578.9336-.46485.46875-.29297.52343-.29296.46485-.17188.46484-.17578 1.05078-.46485.28906-.11718.41016-.11719.28906-.11719.52735-.17578 1.51562-.69922.58203-.34765.28907-.0586.29297-.0586.34765-.11718.875-.23047.35156-.11719h.11329l.23437-.05859.875-.23437.23438-.0586h.8125l.35156-.0586.8164-.11718.17188-.0586.35156-.05468.29297-.0586.23047-.05859.8164-.17578.17579-.0586h.34765l.23438-.05859.46484-.11718.75781-.17188.23438-.0586h.34765l.41016-.11718.28906-.0586 1.28516-.05859h.28906l.41016-.0586.23047-.05858h.17578l.875-.1172h.40625l.41015-.11718h.34766l.35156-.11328.8711-.0586h1.75l1.04687.28907.41016.11719.28906.11718.35156.11719.28907.11719 1.05078.17187.28906.0586h.29297l.29297.05859.17187.0586.41016.05859.17187.0586.1172.05858h.11718l.11719.0586.35156.0586h.11328l.41016.0664 1.92187.39453 1.92578.39453 1.51953.44922 1.69532.71875 2.14453.80469 1.60547-.71875 1.42968-.80469 1.16016-1.07813 1.25-.44921 3.03516-.71875 1.875-.35938 2.14453-1.34765 2.23437-1.25391 2.5-1.25781 1.69531-.44922 1.78516-.17969 1.16016-.26953.625.53906 1.33984-.26953.71485-.98828.98437-1.34375.44531-.17969.80469-.35937 1.875-.53907 1.78516-.44921 1.25-.26954 1.16015-.08984 1.69922-.08984 1.96094-.26954 1.25-.08984h.53906l.625-.08984h.89063l2.14453-.17969 2.41015-.17969 2.58985-.08984 1.69531.17969 1.60938.08984 1.42968.35938 1.16016.71875 1.875.98828 1.16015 1.52734.26563.71484.6289.08985.35548.89844.53515.53906.53516 1.52734 1.07422.35938h.53515l-.80469.53515.08985 1.70703.71484 2.69532.89063.80468.89453.98829.71484 1.2578 1.78516.53907 1.51953-.17969.35547 1.34375 1.60937-.80469.98047-.53906.26953.26953.31641-.21484.21875-.14453.80078.44922.44922-.35938h.35547l.53515-.26953.53907-.71875.53515-.26953.625-.98828 1.16016.44922.83984.3711 1.39454.61718 1.6953-.17969h1.60548l1.78515.08985.17969-1.70704.53516-1.34375.80468.26954.4922.84765.40233.40625-.08984.53906v.35938l.71485.44922.71093-.26953h1.42969l.35938.98828.4453 1.25781.71485 1.34375 1.25.6289 1.69531.62891.71485-.17969.17969-.53906.98046-.08984.44922.35937.08594 1.25782-.26563.6289-.53515.17969v.53906l.71484.98438.26563.53906.98437.98828.80078 1.07813-.26562.35937-.08985.89844-.625 2.33203-.35546 2.0664-.08985 1.79298-.17969.71875-.08984.53906v1.4375l-.98047 1.88281-.35937 1.70703-.53516.89844-.80469 1.16797-.26562.53906 2.05469 1.2539.08593.35938-.35546.53906-.08985-.17968v.80859l.08985 1.4375-.44532.71484-1.07422.09375-.26562.71485.53515.89844.8047.71875 1.16015.80859 1.33984.26953.44531.35938-.35546.44921-1.78907-.08984-1.25-.44922-.71484-.71875-.625-.08984-.17578 3.58984-.1875 1.3086h89.35937V311.70313h-55.26953v49.08203l.76172.125 3.28906.54296 2.02344 2.83594v2.7539l2.35156.33204 2.34766.33203h4.05078l-1.3789 4.16016-2.02344.70703-2.02344.70312-.54297.34375-2.59375 1.6172-.1875.11718-2.02344-2.07813-.73046-2.74218-2.67188-2.07813-1.375-3.5-.0664-.08203-1.95704-2.67188 2.75-1.41796v-49.08204H294.42187v91.41407l.1172.03125.1328.01172.07422.07421.10547.04688.08985.0586.08593.05859.08985.0586.29687.29687.0586.08984.03125.11719.02734.11719.01563.13671-.03125.1172-.0586.08983-.0586.08594-.04296.10547-.04688.10156-.02734.1211v.14453l.17578.26953.14844.14844.07422.08594.07422.07421.04296.10547.0625.08985.0586.08593.04297.10547.0586.08985.04687.10156.04296.10547.0586.08594.11719.17968.07421.07422.0625.08594.0586.08984.04297.10547.0586.08985.05858.08593.0625.08985.0586.08984.04297.10156.11719.17969.07421.07422.0586.08594.07422.07421.08984.0586.10547.04687h.14844l.1328-.01562.13282.01562.10156-.04687.07422-.07422.04688-.10156-.01563-.13281v-.14844l-.04687-.10547-.02735-.11719-.04687-.10156-.02735-.1211-.04296-.10156-.0625-.08984-.04297-.10156-.04297-.10547-.03125-.11719-.01563-.13281-.01171-.13672.08593-.0586.0586-.08593.12109-.03125.04297.10547.01562.1328v.1172l.0586.10156.0586.08984.08983.0586.14844.14843.0586.08985.04296.10547-.01171.10156.08593.0586.10547.04687.08594.0586.08984.05858.07422.07422-.11719.02735-.10546.04687-.08594.0586-.07422.07421-.0586.08985-.0625.08594-.02734.12109-.04687.10156-.04297.10547-.03125.11719-.01172.13281-.01563.13281v.14844l.02735.11719.04687.10547.04297.10156.0586.08984.07421.07422.08985.0586.07422.07421.08984.0586.0586.08984.04296.10547.04688.10156.11719.03125.1328.01563h.14845l.11718-.03125.10547.04297.04297.10547.04688.10156.02734.1211L299.5 410l.02734.11719.03125.1211.02735.11718.10547.04297.10156.04687.13281-.01562.14844.14844.0625.08593.07422.07422.07031.07422.08984.0625.10547.04297.10156.04297.1172.03125.13671.01562.11719-.03125.07422-.07422.02734-.11718-.01172-.13282-.03125-.12109-.02734-.11719.04297-.10547h.11719l.08984.0625.11719.02735h.14843l.13282.01562h.14843l.13282.01563.1328-.01563h.14845l.1328-.01562.13282-.01172.13672.01172.11719-.02735.13281-.01562.1914-.0586-.05859.17579-.01562.1328-.02735.1211-.01562.13281-.0586.08594-.1328.01563-.10548.04687-.10546.04297-.1172.03125-.11718.02735-.26563.03125h-.14843l-.13281.01562-.07422.07422.05859.08594.14844.14843.11719.1797.07421.0703.08985.0625.08984.0586.08594.0586.08984.05858.10156.04297.10547.0625.10547.04297.08594.0586.10547.04687.10156.04297.17969.11719.0586.08984-.04298.10156-.04687.10547.01562.13281.22266.22266.0586.08985.04296.10156.03125.1211.04297.10155.01563.13282.03125.11718.01171.13672.03125.11719.14844.14844.10156.04297.10547.04296.1172.03125.1328.01563.13672.01563h.11719l.11719-.03125.08984-.0586.04297-.10547.04688-.10156.04296-.10547.03125-.11719.01172-.1328v-.14845l-.01172-.1328-.01562-.13282-.03125-.11719-.04297-.10547-.04688-.10547-.04296-.10156-.04297-.10547-.01563-.13281.01563-.13281.02734-.11719.03125-.11719.02735-.1211.04687-.10155.08984-.0586.08594-.0625.07422-.07422.08984-.05859.22266-.22266.0586-.08593.07421-.07422.11719-.17969.0586-.08594v-.14844l-.07423-.07421-.10156-.04688-.10547-.04297-.10156-.04297-.0586-.08984-.04687-.10547-.02734-.11719.08984-.05859.11719-.03125.10156-.04297.17969-.11719.14844-.14843.01172-.13282-.01172-.10546-.08985-.0586-.1328.01563h-.14845l-.1328.01562-.13282-.01562-.1211-.03125-.08593-.0586-.07422-.07422-.0586-.08984-.0625-.08594-.11718-.17969-.0586-.08593.03125-.1211.08594-.05859.1211-.03125.05859-.08594v-.1211l-.03125-.11718-.0586-.08984-.05859-.08594-.04687-.10547-.02735-.11719-.01562-.1328.0586-.08985.07421-.07422.08984-.0586.1172-.17968.07421-.07422.0586-.08594.14843-.14844.1211-.03125.1328-.01562.13282.01562.07422.07422.04297.10547.01562.13281-.03125.1172-.11719.03124-.1328.01172-.14844.14844-.04297.10547-.04688.10156-.02734.1211-.03125.11718v.14844l.03125.11719.04297.10546.05859.08985.07422.07031.07422.07422.11719.03125.12109.02734.11719-.02734.1328-.01563h.1172l.08984.0586.07422.07422.04687.10546.0586.08594.10156.04688.13281.01562.10547.04297.08594.0586-.01172.10546-.07422.07422-.17969.11719-.05859.08984-.08984.0586-.07032.07422-.07421.07421-.0625.08985-.02735.11719-.01562.1328.01562.13282-.01562.13281v.14844l.01562.13281.02735.1172.03125.12108.07421.07422.08985.0586.08594.0586.08984.05858.11719.03125v.08594l-.10157.04688-.08984.0586-.26563.03124-.11718.02735h-.14844l-.10547.04296-.10156.04688-.0586.08984-.0625.23438-.01171.13281-.03125.1211-.01563.1328v.29298l-.01172.1328.01172.13673.01563.1328.1328.01563.13282.01172.1211.03125.08593.0586.07422.07421.04688.10547.04296.10157.01563.1328v.44532l-.01563.13281v.44532l.03125.26562.02735.11719.01562.13281.03125.11719.08594.21094.03125.26562v.14844l-.03125.11719-.02734.11718-.03125.1211-.02735.11719-.03125.11718-.03125.1211-.01171.1328-.01563.13282.08984.0586.1172-.03125.10155.01562.04688.10547-.03125.26562v.44141l-.04297.10547-.04688.10547-.04296.10156-.04297.10547-.0586.08594-.03125.12109-.04296.11719-.03125.11719-.01563.1328.01563.13282.05859.08984.10547.04688.08594.0586.05859.08593-.01172.13672-.03125.11719-.04297.10156v.44531l-.01562.13281v.14844l-.03125.11719-.04297.10547-.02735.11719-.04687.10546-.04297.10157-.03125.12109-.02734.11719-.03125.13281-.03125.11719-.02735.11719-.04297.10546-.03125.1172-.03125.12108-.01171.13282-.01563.13281v.29688l.02734.11718v.14844l.04688.39844.02734.11719.0586.08984.12109.03125h.14844l.13281-.01563.0586.08985v.11719l-.0586.08984-.08984.0586-.10157.04296-.10546.04688-.08985.05859-.08594.0586-.13671.01562-.1172-.03125-.1328-.01563-.10157.04688-.0625.08594-.01172.13671-.01562.13282-.03125.11719-.02735.11718-.01562.13281-.03125.1211v.29687l.01563.13282.03125.11718v.14844l.01171.13281v.14844l-.02734.11719-.04688.10156-.02734.1211-.03125.11718-.0586.08985-.07421.07421-.10156.04297-.10547.04688-.11719.02734-.1211.03125-.10156-.04687.0586-.08594.10547-.04688.02734-.11718.03125-.11719.02734-.1211.03125-.11718v-.14844l.01563-.13281-.03125-.11719-.04297-.10547-.10547.01563-.07422.07422-.10156.04296-.08984.0625-.07422.07422-.04297.10157-.01563.1328-.03125.1172L304.25 426l-.03125.11719-.02734.11719-.03125.12109-.02735.11719-.03125.11718-.04297.10547-.08984.0586h-.08984l-.1172-.03125-.03124-.08594.01562-.13672-.03125-.11719v-.14844l-.01171-.1328v-.14844l-.0625-.23438-.02735-.1211-.04297-.10156-.04687-.10546-.0586-.08594-.05859-.08985-.04297-.10546-.0625-.08594-.14844-.14844-.0703-.07422-.10548-.04687-.10547-.04297-.10156-.04297-.29687-.29688-.08985-.07421-.08594-.0586-.10546-.04297-.08985-.0625-.08594-.0586-.10546-.04296-.08985-.0586-.08594-.0625-.07421-.0703-.10547-.04688-.08594-.0586-.10547-.04296-.08984-.0625-.10156-.04297-.10547-.04297-.08594-.0586-.10547-.04687-.10547-.04297-.10156-.04687-.08985-.0586-.10156-.04297-.10547-.04296-.08984-.0625-.11719-.02735-.13281-.01562-.13281.01562H299.75l-.13281.01563-.11719-.03125-.08984-.0586-.07422-.07422-.08985-.05859-.10156-.04688h-.14844l-.12109-.02734-.10156-.04297-.07422-.07422-.11719-.17968-.08984-.0586-.10156-.04297-.08985-.0625-.10547-.04296-.08984-.0586-.08594-.0586-.10547-.04687-.0586-.08594-.05858-.08984-.04297-.10547-.04688-.10156-.07422-.07422-.08594-.0586-.07421-.07421-.08985-.0586-.22265-.22265-.04297-.10547-.03125-.26563.10547-.04296h.14453l.10547.04296.07421.07422.08985.0586.08594.0586.10546.04687.08985.05859.14844.14844.0703.07422.14845.14843.0625.08594.07421.07422.08594.0586.07422.07421.08985.0625.08984.0586.08594.05859.26953.17578.10156.04688.10547.04296.10156.04297.04688-.07421.05859-.08594.07422-.07422.07031-.07422.10547.04297.07422.07422.0586.08984.04296.10156.04688.10547.04296.10547.1211.02735.11719-.02735.07421-.08984.04297-.10547.0586-.08985.07422-.07421.10546-.04297.1172-.02735.1328.01172.08985.0586.14844.14843.05859.08985.04297.10547.04687.10156.04297.10547.04297.10156.10547.04688.10547.04296.13281.01563.08594-.0586.0586-.08984.07421-.07422.10547-.04297.11719.02735.10547.04687.10156.04297.10547.04297.10156.04688.17969.11718v.11719l-.01563.13281.01563.13281.01562.13672.0586.08594.10156.04688.1211.02734.11718.03125h.14844l.11719-.03125.05859-.08984.17969-.1172.05859-.08983.07422-.07422.0586-.08594.11718-.17969.17969-.11719.11719.03125.08984.0586.04297.07422-.01563.1328v.1172l.08985.05859h.14843l.13282-.01563.1328-.01171.26563-.03125.10547-.04297.11719-.03125.1211-.02735.07421-.07421.07031-.07422.0625-.08985-.01562-.10547-.04688-.10156-.10156-.04297-.10547-.01562-.11718.02734-.26563.03125h-.14844l-.07421-.07422-.08985-.0586-.11719-.03124-.11718-.02735-.13282-.01562h-.14843l-.13282.01563h-.29687l-.10547-.04688-.14844-.14844-.04297-.10156-.05859-.08984.22266-.22266.08593-.0586.10547-.04296.11719-.03125.13281-.01563.13281.01563.13672.01562.10157.04297.1328-.01172.08985-.0625.10156-.04297.0625-.08984-.04687-.10156-.08984-.0586-.1172-.03125-.10155-.04296-.0586-.08985-.0625-.08984v-.11719l.01563-.13281.10547-.04688.07421-.07031v-.1211l-.08984-.05859-.03125-.11719.08985-.05859.07421-.07422.04297-.10547.0586-.08984.04687-.10156.01563-.13281v-.14844l-.04688-.10547-.04297-.10156-.08984-.0586-.13281-.01562-.10157-.04297-.13671-.01563-.1172-.03125h-.4453l-.13282-.01562-.13281-.01172-.13281-.01563-.11719-.03125h-.14844l-.13281-.01562-.13281-.01172-.26563-.03125-.1211-.04297-.08593-.0586-.07422-.07421v-.14844l.01172-.13281.10547-.04688.10156-.04296.13281-.01563h.15235l.13281-.01562h.29297l.1211.03125.10156.04296.08984.0586.23438.0625.12109-.04688.08984-.05859.10156-.04297.13282-.01562.10547.04296.10156.04688.13281.01172.1211-.02735h.14453l.12109-.03125.11719-.02734.10547-.04687.07421-.07422.08594-.0586.14844-.14843.0586-.08594.04687-.10547.02734-.11719.01563-.10547-.10156-.04296-.08985-.0586-.11719-.03125-.10546-.04297-.08985-.0625-.07422-.08594-.07422-.07421-.10156-.04297-.10547-.04688-.10156-.04297-.0586-.08984-.04687-.10156-.08594-.21094-.0625-.08594-.05859-.08984-.07422-.07422-.08594-.0586h-.26953l-.11719.03126-.08984.05859-.10156.04297-.13281.01562-.10547-.01562-.02735-.11719-.0625-.08984-.11718-.03125-.10157-.04297-.14843-.14844-.03125-.11719-.01563-.10546.07422-.07422.17969-.1172.11719-.02733.11718-.03125.13672.01562.10156.04297.10547.04297.10156.04687.10547.04297.1172.03125.1328.01563.1172.02734.1328.01563.10547-.01563.08985-.0586-.07422-.07421-.10547-.04297-.07422-.07422-.07422-.08984-.14844-.14844-.08593-.0586-.08985-.05859-.07422-.07422-.08984-.0586-.10156-.04687-.1211-.02734-.10156-.04688-.10547-.04296-.11719-.03125-.10156-.04297-.1211-.03125h-.14843l-.11719.03125-.10546.04297-.08594.0625-.17969.11718-.08594.0586-.08984.0586-.10547.04687-.08594.05859-.10547.04297-.10156.04297-.10547.04687-.07422.07422-.05859.08985-.0586.08593-.04687.10547-.0586.08594-.07421.07422-.13281-.01172-.1172-.03125h-.11718l-.07422.07422-.08984.0586-.07422.07421-.08984.0586-.08594.05859-.10547.04687-.10156.04297-.13672.01563-.10156-.04297-.14844-.14844-.10547-.04688h-.08594l-.10547.04688-.10156.04297-.1211.03125-.11718-.03125-.07422-.07422v-.11719l.03125-.1211.07422-.0703.0586-.08985.07421-.07422.11719-.03125.10547-.04296h.29297l.13281-.01563.13672-.01563.10156-.04296.08985-.0586.10156-.04687.08984-.0586.13281-.01171.08985.05859.13281.01172.08984-.0586.08594-.05859.10547-.04297.08984-.0586.08594-.0625.08985-.05859.14843-.14843.0586-.08594.05859-.08985.10547-.04296.13281-.01563.11719.02735.1211.03125.05859-.0586.05859-.08984.03125-.26563.02734-.11719.10547.01172.13281.01563.10157-.04297.08984-.0586.0586-.08984.07421-.07422.0586-.08984.04687-.10156.01172-.13281-.01172-.13282-.04687-.10547-.14844-.14843-.0586-.08985-.05859-.08594-.04297-.10546v-.44532l.01563-.1328v-.14845l.01172-.1328-.0586-.0586-.08984.0586-.10156-.04298-.17969-.11719-.08594-.05859-.0625-.08984-.0586-.08985-.07421-.07421-.08594-.0586-.1211.03125-.10155.01172-.10547.04688-.08594.05859-.10547.04297-.14844.14844-.08984.05859-.08594.0586-.08984.0625-.10547.04296-.13281.01563v-.1211l.10547-.04297.11718-.03125.07422-.0703.04297-.10548v-.14844l-.02734-.11718-.14844-.14844-.13281-.01563h-.14844l-.11719.03125-.10547.04297-.10156.04297-.08984.0625-.11719.02735-.07422-.07422.01172-.13281-.04297-.10157-.04297-.10547-.08984-.05859-.11719.02734-.1211.03125-.11718.03125-.10156.04297-.1211.03125-.10156.04297-.10547.04297-.08984.0586-.10156.01562v-.11719l.01562-.13281-.0586-.08985-.07421.04297-.14844.14844-.0586.08985-.07421.07421-.04688.10547-.04296.10156-.07422.07422-.0586.08985-.07422.07422-.05859.08593-.07422.07422-.08984.0625-.07422.07031-.07422.07422-.10156.01563-.13281.01562-.10547-.04296v-.1211l.14843-.14844.04297-.10156.0586-.08984.04687-.10156.04297-.10547.0586-.08985.03124-.11719.04297-.10156.03125-.1211.02735-.11718.04687-.10547.04297-.10156.04297-.10547.07422-.07031.08984-.0625.08985-.0586.10156-.04296h.29687l.26563-.03125.10547-.04297-.07422-.07422-.11719-.03125-.10547-.04297-.08984-.0586-.10156-.04687-.08985-.0586-.10156-.04296-.10547-.04297-.08984-.0625-.08594-.0586-.10547-.04296-.10156-.04297-.1211-.03125-.11718-.03125-.10157-.04297L297.5 410.25l-.10156-.04297-.08985-.0586-.04296-.10546-.01563-.13281.10156-.04297.13281-.01563.13672.01563.13282-.01563.10156-.04297.0586-.08984.01562-.10547-.08985-.0586-.07421-.07421-.10157-.04297-.08984-.0586-.14844-.14843-.04297-.10547-.01562-.13281v-.29297l-.0586-.08985-.08984-.05859-.07422-.07422-.04297-.10547-.03125-.11718-.0586-.08985-.07421-.07422-.11719-.02734-.07422-.07422-.08984-.0586-.08984-.0625-.08594-.05859-.07422-.07421-.0586-.08594-.04687-.10547-.08594-.0586-.14843-.14843-.19532-.0586-.1328.01563-.10157.04297-.07422.07422-.04688.10156-.04296.10547-.0586.08984-.0586.08594-.29687.29687-.08984.0586h-.08594l-.0625-.08594-.04297-.10547.03125-.11719.0586-.08984.02734-.11719-.01172-.13281-.08984-.0625-.10547.04688-.11719.02734-.11719.03125-.26953.17578-.10156.04688-.11719.02734-.10546.04687-.08985.0586-.10156.04297-.0586-.08594-.04687-.10547.01563-.13281.04687-.10547.07031-.07422.07422-.07031.0586-.08985v-.14843l-.04297-.10547h-.23829l-.10156.04687-.03125.11719-.02734.11719-.03125.1211-.07422.04296-.13281.01563-.07422-.04688-.04297-.10156-.04297-.10547-.04687-.10156-.04297-.10547-.1211.03125-.10156.04297-.13281.01562-.11719.03125-.10547.04297-.08984.0586-.10156.04687-.1211.02734-.13281.01563-.10156-.04297-.0586-.08985-.04687-.10546-.04297-.10157-.04297-.10546v-.1172l.0586-.08984.08593-.05859.17969-.11719.10156-.04687.10547-.04297.10547-.0586.10156-.04296.08985-.0625.10156-.04297.10547-.0586.10156-.04687.08984-.0586.10547-.04296.10156-.04297.08985-.0625.10156-.04297.13672-.01563.11719.03125.10156.04297.1211.03125.10156.04297.10546.04688.10157.04296.10547.04297.10156.04688.10547.04297.10156.04297.10547.04687.08594.0586.10546.04296.1172.03125.10546.04297.10156.04688.08985.0586.10547.04296.10156.04297.10547.04687.11719.02735.10156.04687.1211.02735h.14843l.08594-.0586.01562-.10156.0586-.08984-.02735-.1172-.07422-.07421-.11719-.17969-.07421-.07422-.08985-.07421-.17969-.1172-.08593-.05859-.10547-.04296-.10156-.04688-.26954-.17578-.05859-.08985-.07422-.07421-.0586-.08985-.04296-.10156-.03125-.11719-.01563-.13672v-.5625l-.01171-.1328-.01563-.13282-.03125-.11719-.01562-.13281-.01172-.13281-.03125-.1211-.22266-.22265-.0586-.08594-.01562-.10547.03125-.11719.13281-.01562v-91.41406H172.9922v1.45312l-.0586.23438-.35156 1.05078-.17187.52343-.1172.34766-.17577.41016-.11719.17187-.23438.29297-.23046.0586h-.35157l-.11718.05859-.23047.40625v.29297l.11719.17578.23046.23047.1172.23437.64062.75781.29297.46485.17578.23437.23047.35156.23437.34766.64063.8164.17578.46485.17187.41016.11719.69531.17578.46875.11719 1.39844.0586.46484v.875l.11718 1.04688v4.78125l-.0586.46484-.35156 1.28125-.17578.52344-.11328.41015-.35156.9297L172.93359 336l-.23437.58203-.11719.17578-.17187.34766-.17578.40625-.35157.8164-.0586.29297-.11327.29297-.11719.28906-.0586.17579-.11718.875-.0586.40625-.05859.11718-.0586.17579-.05859.17187-.23047.52734-.11718.17188v.23437l-.11719.23438-.0586.17187-.17577.58594v.28906l-.0586.17579v.29296l-.0586.11329-.05859.52734v.17187l-.05468.23438v2.6211l-.17578.8164-.1172.17578-.17577.23438-.1172.17187-.11327.23438-.58594.93359-.23047.28906-.29297.46485-.17578.23437-.28906.35156-.35156.69922-.11328.23047-.17579.41016-.17578.23046-.40625.52735-.8164.69922-.29297.17187-.28906.23438-.17579.11719-.17578.17578-.52344.40625-.52734.17578-.17187.17578-.23438.05469-.64062.17578h-.75782m12.21094 31.02344l-1.07422.44921.35938.89454 1.25-.71485.44531-.53906-.98047-.08985"/><path fill="#d3d3d3" fill-opacity="0" fill-rule="evenodd" d="M201.50781 416.59766h-.89453l.44922.6289.98047.35938.80469-.08985.4453-.98828-.17577.08985-.71485-.35547-.89453.35547m154.6211 59.0703l-.0586-.52343v-.29297l.11328-.29297.0586-.23046.46875-.46875h.11328l.11719-.11329.11718-.05859h.17579l.23437-.0586h.34766l.23437.0586.11719.0586.23047.17187.0586.17578.11718.58203v.29297l-.11719.17578-.17187.28906-.17579.17579-.52734.52343-.23047.23438-.11719.0586h-.17578l-.11718-.0586-.40625-.29297-.17579-.11719-.11718-.0586-.0586-.11327-.05468-.1172m6.64062-10.95702l-.0586-.17188v-1.10937l.0586-.17188.17578-.0586.17188-.05858h.17578l.23437-.0586.1172.0586.05858.69921-.05859.17188-.11719.17578-.11718.0586-.23438.52343-.11328.0586h-.23438l-.05859-.1172m9.61328-14.39062l-.11719-.17578v-.69922l.29297-.875.1172-.17187.17577-.35156.11328-.23047.1172-.29297.35155-.75781.1172-.23047.17187-.23438h.17578l.11719-.0586h.64062l.11719.0586.23437.23438.17188.11328.35156.29297.11719.11718.11328.17579v.11328l.11719.05859.11718.11719v.69922l-.05859.17578v.23047l-.0586.17578-.34765 1.05078-.11719.23047-.11719.23437-.11718.0586-.23047.23437-.64063.28906h-.875l-.41015-.11718-.64063-.46485"/><path fill="none" stroke="#bebebe" stroke-linecap="round" stroke-linejoin="round" stroke-miterlimit="10" stroke-width=".5" d="M467.95703 311.69531H144.02734v168.625h323.9297v-168.625"/><g clip-path="url(#a)"><path fill="#fff" fill-opacity="0" fill-rule="evenodd" d="M144 475.89063v4.4375h.0039H144V311.67188h.0039H144v164.21875"/></g><g clip-path="url(#b)"><path fill="#fff" fill-opacity="0" fill-rule="evenodd" d="M144.0039 480.32813V311.67188h22.1875v124.74218l-4.4375 2.45703-1.51562 1.51172 1.08984 4.4375.42579.49219.70703-.49219 3.73047-2.89453 4.4375 1.42969 2.63672-2.97266-2.63672-2.4336-4.4375-1.53515V311.67187h48.82422v115.29688l-.3711.10156.3711.17969.10156-.17969-.10156-.10156V311.67187h252.98046v168.65625H144.00391"/></g><path fill="#50fcfc" fill-rule="evenodd" d="M161.32813 444.82031l-1.08985-4.4375 1.51563-1.51172 4.4375-2.45703 4.4375 1.53516 2.63672 2.4336-2.63672 2.97265-4.4375-1.42969-3.73047 2.89453-.70703.49219-.42578-.49219m53.6875-17.57031l-.3711-.17969.3711-.10156.10156.10156-.10156.17969"/><g clip-path="url(#c)"><path fill="#fff" fill-opacity="0" fill-rule="evenodd" d="M467.9961 480.32813H468V311.67188h-.0039H468v168.65625h-.0039"/></g><g clip-path="url(#d)"><path fill="none" stroke="#000" stroke-linecap="round" stroke-linejoin="round" stroke-miterlimit="10" stroke-width=".5" d="M147.51172 480.21875l-7.02344.21875"/></g><g clip-path="url(#e)"><path fill="none" stroke="#000" stroke-linecap="round" stroke-linejoin="round" stroke-miterlimit="10" stroke-width=".5" d="M147.51172 480.21875l1.21875 2.13281"/></g><g clip-path="url(#f)"><path fill="none" stroke="#000" stroke-linecap="round" stroke-linejoin="round" stroke-miterlimit="10" stroke-width=".5" d="M160.82813 480.41797l-7.02735-.17578"/></g><g clip-path="url(#g)"><path fill="none" stroke="#000" stroke-linecap="round" stroke-linejoin="round" stroke-miterlimit="10" stroke-width=".5" d="M160.82813 480.41797l1.09765 2.1914"/></g><g clip-path="url(#h)"><path fill="none" stroke="#000" stroke-linecap="round" stroke-linejoin="round" stroke-miterlimit="10" stroke-width=".5" d="M174.14453 480.33594l-7.02734-.01563"/></g><g clip-path="url(#i)"><path fill="none" stroke="#000" stroke-linecap="round" stroke-linejoin="round" stroke-miterlimit="10" stroke-width=".5" d="M174.14453 480.33594l1.14453 2.17187"/></g><g clip-path="url(#j)"><path fill="none" stroke="#000" stroke-linecap="round" stroke-linejoin="round" stroke-miterlimit="10" stroke-width=".5" d="M173.1211 480.33594l.57421 1.08594"/></g><g clip-path="url(#k)"><path fill="none" stroke="#000" stroke-linecap="round" stroke-linejoin="round" stroke-miterlimit="10" stroke-width=".5" d="M187.45703 480.22656l-7.02344.20313"/></g><g clip-path="url(#l)"><path fill="none" stroke="#000" stroke-linecap="round" stroke-linejoin="round" stroke-miterlimit="10" stroke-width=".5" d="M187.45703 480.22656l1.21484 2.13281"/></g><g clip-path="url(#m)"><path fill="none" stroke="#000" stroke-linecap="round" stroke-linejoin="round" stroke-miterlimit="10" stroke-width=".5" d="M186.4336 480.25781l.60937 1.0664"/></g><g clip-path="url(#n)"><path fill="none" stroke="#000" stroke-linecap="round" stroke-linejoin="round" stroke-miterlimit="10" stroke-width=".5" d="M200.77344 480.23828l-7.02735.17969"/></g><g clip-path="url(#o)"><path fill="none" stroke="#000" stroke-linecap="round" stroke-linejoin="round" stroke-miterlimit="10" stroke-width=".5" d="M200.77344 480.23828l1.20703 2.14063"/></g><g clip-path="url(#p)"><path fill="none" stroke="#000" stroke-linecap="round" stroke-linejoin="round" stroke-miterlimit="10" stroke-width=".5" d="M199.75 480.26563l.60547 1.0703"/></g><g clip-path="url(#q)"><path fill="none" stroke="#000" stroke-linecap="round" stroke-linejoin="round" stroke-miterlimit="10" stroke-width=".5" d="M214.08594 480.16406l-7.01953.32813"/></g><g clip-path="url(#r)"><path fill="none" stroke="#000" stroke-linecap="round" stroke-linejoin="round" stroke-miterlimit="10" stroke-width=".5" d="M214.08594 480.16406l1.25 2.10938"/></g><g clip-path="url(#s)"><path fill="none" stroke="#000" stroke-linecap="round" stroke-linejoin="round" stroke-miterlimit="10" stroke-width=".5" d="M213.0625 480.21094l.6289 1.05469"/></g><g clip-path="url(#t)"><path fill="none" stroke="#000" stroke-linecap="round" stroke-linejoin="round" stroke-miterlimit="10" stroke-width=".5" d="M227.40234 480.23047l-7.02343.19922"/></g><g clip-path="url(#u)"><path fill="none" stroke="#000" stroke-linecap="round" stroke-linejoin="round" stroke-miterlimit="10" stroke-width=".5" d="M227.40234 480.23047l1.21485 2.13281"/></g><g clip-path="url(#v)"><path fill="none" stroke="#000" stroke-linecap="round" stroke-linejoin="round" stroke-miterlimit="10" stroke-width=".5" d="M240.71875 480.41406l-7.02734-.17187"/></g><g clip-path="url(#w)"><path fill="none" stroke="#000" stroke-linecap="round" stroke-linejoin="round" stroke-miterlimit="10" stroke-width=".5" d="M240.71875 480.41406l1.09766 2.19531"/></g><g clip-path="url(#x)"><path fill="none" stroke="#000" stroke-linecap="round" stroke-linejoin="round" stroke-miterlimit="10" stroke-width=".5" d="M254.02734 480.13672l-7.01562.38281"/></g><g clip-path="url(#y)"><path fill="none" stroke="#000" stroke-linecap="round" stroke-linejoin="round" stroke-miterlimit="10" stroke-width=".5" d="M254.02734 480.13672l1.26953 2.10156"/></g><g clip-path="url(#z)"><path fill="none" stroke="#000" stroke-linecap="round" stroke-linejoin="round" stroke-miterlimit="10" stroke-width=".5" d="M267.34766 480.21484l-7.02344.23047"/></g><g clip-path="url(#A)"><path fill="none" stroke="#000" stroke-linecap="round" stroke-linejoin="round" stroke-miterlimit="10" stroke-width=".5" d="M266.32422 480.2461l.61328 1.0625"/></g><g clip-path="url(#B)"><path fill="none" stroke="#000" stroke-linecap="round" stroke-linejoin="round" stroke-miterlimit="10" stroke-width=".5" d="M280.66406 480.39063l-7.02734-.125"/></g><g clip-path="url(#C)"><path fill="none" stroke="#000" stroke-linecap="round" stroke-linejoin="round" stroke-miterlimit="10" stroke-width=".5" d="M279.64063 480.3711l.55859 1.09374"/></g><g clip-path="url(#D)"><path fill="none" stroke="#000" stroke-linecap="round" stroke-linejoin="round" stroke-miterlimit="10" stroke-width=".5" d="M293.8125 481.39453l-6.69531-2.13281"/></g><g clip-path="url(#E)"><path fill="none" stroke="#000" stroke-linecap="round" stroke-linejoin="round" stroke-miterlimit="10" stroke-width=".5" d="M292.83984 481.08594l.21875 1.20703"/></g><g clip-path="url(#F)"><path fill="none" stroke="#000" stroke-linecap="round" stroke-linejoin="round" stroke-miterlimit="10" stroke-width=".5" d="M307.23047 480.99219l-6.89844-1.32813"/></g><g clip-path="url(#G)"><path fill="none" stroke="#000" stroke-linecap="round" stroke-linejoin="round" stroke-miterlimit="10" stroke-width=".5" d="M306.22656 480.80078l.35938 1.17188"/></g><g clip-path="url(#H)"><path fill="none" stroke="#000" stroke-linecap="round" stroke-linejoin="round" stroke-miterlimit="10" stroke-width=".5" d="M320.2461 481.88281l-6.30079-3.10547"/></g><g clip-path="url(#I)"><path fill="none" stroke="#000" stroke-linecap="round" stroke-linejoin="round" stroke-miterlimit="10" stroke-width=".5" d="M333.21484 482.44922l-5.60546-4.23828"/></g><g clip-path="url(#J)"><path fill="none" stroke="#000" stroke-linecap="round" stroke-linejoin="round" stroke-miterlimit="10" stroke-width=".5" d="M343.88672 483.83984l-.32031-7.01953"/></g><g clip-path="url(#K)"><path fill="none" stroke="#000" stroke-linecap="round" stroke-linejoin="round" stroke-miterlimit="10" stroke-width=".5" d="M355.9961 483.6836l2.08984-6.71094"/></g><g clip-path="url(#L)"><path fill="none" stroke="#000" stroke-linecap="round" stroke-linejoin="round" stroke-miterlimit="10" stroke-width=".5" d="M371.78516 483.53906l-2.85938-6.41797"/></g><g clip-path="url(#M)"><path fill="none" stroke="#000" stroke-linecap="round" stroke-linejoin="round" stroke-miterlimit="10" stroke-width=".5" d="M380.48047 481.79688l6.38281-2.9375"/></g><g clip-path="url(#N)"><path fill="none" stroke="#000" stroke-linecap="round" stroke-linejoin="round" stroke-miterlimit="10" stroke-width=".5" d="M394.35547 482.66016l5.26172-4.66407"/></g><g clip-path="url(#O)"><path fill="none" stroke="#000" stroke-linecap="round" stroke-linejoin="round" stroke-miterlimit="10" stroke-width=".5" d="M408.71875 477.1914l3.16797 6.27344"/></g><g clip-path="url(#P)"><path fill="none" stroke="#000" stroke-linecap="round" stroke-linejoin="round" stroke-miterlimit="10" stroke-width=".5" d="M425.36719 477.28125l-3.5 6.09375"/></g><path fill="none" stroke="#000" stroke-linecap="round" stroke-linejoin="round" stroke-miterlimit="10" stroke-width=".5" d="M425.36719 477.28125l2.45312.08203"/><g clip-path="url(#Q)"><path fill="none" stroke="#000" stroke-linecap="round" stroke-linejoin="round" stroke-miterlimit="10" stroke-width=".5" d="M438.33203 477.10547l-2.80078 6.44531"/></g><path fill="none" stroke="#000" stroke-linecap="round" stroke-linejoin="round" stroke-miterlimit="10" stroke-width=".5" d="M438.33203 477.10547l2.44531-.19531"/><g clip-path="url(#R)"><path fill="none" stroke="#000" stroke-linecap="round" stroke-linejoin="round" stroke-miterlimit="10" stroke-width=".5" d="M450.66016 476.83984l-.82813 6.97657"/></g><path fill="none" stroke="#000" stroke-linecap="round" stroke-linejoin="round" stroke-miterlimit="10" stroke-width=".5" d="M450.66016 476.83984l2.28906-.89062"/><g clip-path="url(#S)"><path fill="none" stroke="#000" stroke-linecap="round" stroke-linejoin="round" stroke-miterlimit="10" stroke-width=".5" d="M465.21875 477.23047l-3.3125 6.19531"/></g><path fill="none" stroke="#000" stroke-linecap="round" stroke-linejoin="round" stroke-miterlimit="10" stroke-width=".5" d="M465.21875 477.23047l2.45313.0039"/><g clip-path="url(#T)"><path fill="none" stroke="#000" stroke-linecap="round" stroke-linejoin="round" stroke-miterlimit="10" stroke-width=".5" d="M147.5 467.33594l-7-.64453"/></g><path fill="none" stroke="#000" stroke-linecap="round" stroke-linejoin="round" stroke-miterlimit="10" stroke-width=".5" d="M147.5 467.33594l.94531 2.26562m12.36328-2.21484l-6.98828-.7461m6.98828.7461l.91797 2.27734m12.375-2.09765l-6.9414-1.10547m6.9414 1.10547l.79688 2.3203m-1.8086-2.48046l.39844 1.16016m13.95313-1.22266l-6.9922-.66016m6.9922.66016l.9453 2.26562m-1.96093-2.35937l.46875 1.13281m13.8789-1.36719h-7.02734m7.02735 0l1.15234 2.16407m-2.17578-2.16407l.57813 1.08204m13.7578-1.26563l-7.01952.36328m7.01953-.36328l1.26172 2.10156m-2.28516-2.05078l.63281 1.05469m13.64453-1.59375l-6.89843 1.33984m6.89843-1.33984l1.54297 1.90625m-2.54687-1.71094l.77344.95313m13.5625-1.0625l-6.9297 1.16797m6.9297-1.16797l1.49218 1.94531m-2.5-1.77344l.7461.97266m13.39453-1.8086l-6.57031 2.4961m6.5703-2.4961l1.84766 1.6172m-2.80078-1.25391l.92188.80859m13.11328-1.66797l-6.10156 3.48828m6.10156-3.48828l2.07422 1.3086M266 465.77734l1.03516.65235m13.0664-1.32422l-5.89844 3.8164m5.89844-3.8164l2.14453 1.1914m11.39453-.78906l-6.34765 3.01172m6.34765-3.01172l1.96875 1.46485m11.56641-.85547l-6.79297 1.79687m6.79297-1.79687l1.66797 1.79687m11.75781-1.15625l-7.01172.51172m7.01172-.51172l1.30469 2.07813m11.9961-2.22656l-6.98048.80859m6.98047-.8086l1.39454 2.01563m11.8203-2.52734l-6.78124 1.83203m6.78125-1.83203l1.67969 1.78906m11.35546-2.5039l-6.22265 3.26171m6.22265-3.26172l2.02735 1.38282m11.1875-1.5586l-6.02344 3.61328m5.14844-3.08984l1.05078.63281m6.6211.88281l7.01171-.46484m-5.99219.39844l-.64453-1.04297m13.1211-.25781l6.65234 2.26953m-5.6836-1.9414l-.1953-1.21095m17.71874-.96875L408.44922 470m17.99219-5.07812l-5.64844 4.18359m5.64844-4.1836l2.21484 1.0586m10.89063-1.3164l-5.23047 4.69921m5.23046-4.69922l2.3047.84375m10.8789-.98047L447.76172 469.5m4.96875-4.97266l2.34765.71875m11.6172.17579l-6.26563 3.18359"/><g clip-path="url(#U)"><path fill="none" stroke="#000" stroke-linecap="round" stroke-linejoin="round" stroke-miterlimit="10" stroke-width=".5" d="M466.69531 465.42188l2.00781 1.41015"/></g><path fill="none" stroke="#000" stroke-linecap="round" stroke-linejoin="round" stroke-miterlimit="10" stroke-width=".5" d="M465.78125 465.88672l1.0039.70312"/><g clip-path="url(#V)"><path fill="none" stroke="#000" stroke-linecap="round" stroke-linejoin="round" stroke-miterlimit="10" stroke-width=".5" d="M147.4414 454.40234l-6.8828-1.40625"/></g><path fill="none" stroke="#000" stroke-linecap="round" stroke-linejoin="round" stroke-miterlimit="10" stroke-width=".5" d="M147.4414 454.40234l.69532 2.35157m12.50781-1.9375l-6.66016-2.23829m6.66016 2.23829l.40234 2.42187m12.91797-2.42578l-6.66797-2.22656m6.66797 2.22656l.40625 2.41797m12.97266-2.63672l-6.79688-1.78906m6.79688 1.78906l.5625 2.39063m12.86719-3.31641l-7.02735.0586m7.02735-.0586l1.17187 2.15625m-2.19531-2.14844l.58594 1.08203m13.75-1.14453l-7.02344.17188m7.02344-.17188l1.20703 2.13672m-2.22656-2.11328l.60156 1.07031m13.67578-1.65625l-6.90625 1.29297m6.90625-1.29297l1.53125 1.91797m-2.53516-1.73047l.76563.96094m13.41016-1.67578l-6.6211 2.35156m6.6211-2.35156l1.8125 1.65625m10.71484-2.92578L248 456.14453m5.04297-4.89062l2.33594.75m10.55859-1.1211l-4.20313 5.63281m4.20313-5.6328l2.42578.37109m-3.03906.44921l1.21484.1836m13.41407-.3086l-5.60547 4.23829m5.60547-4.23829l2.22656 1.03516m-3.04297-.41797l1.11328.51563m12.69922-1.4961l-4.96875 4.96875m4.96875-4.96875l2.34765.71485m-3.0703.00781l1.17577.35937m12.98438-.95312l-5.21485 4.71094m5.21485-4.71094l2.3086.83594m-3.06641-.15235l1.15234.41797m13.3125-.57812l-5.9961 3.66406m5.9961-3.66406l2.11328 1.25m-2.98437-.71485l1.05468.6211m12.89844-1.49219l-5.53125 4.33203m5.53125-4.33203l2.2461.9961m-3.05079-.36329l1.1211.4961m12.89453-1.25782l-5.32031 4.58985m5.3203-4.58985l2.28907.89063m10.27344-1.54297l-3.8164 5.89844m3.8164-5.89844l2.44531.21094m9.49219-.73438l-1.0586 6.94531m1.0586-6.9453l2.3125-.8125m10.90625.79687l-.8711 6.97265m.8711-6.97265l2.29297-.8711m13.16797 1.97266l-5.16016 4.76953m5.16016-4.76953l2.3164.8125m10.88672-.92969l-4.9336 5.0039m4.9336-5.0039l2.35156.69922m-3.0703.03125l1.17577.34766m13.01953-.90625l-5.2578 4.66406m5.2578-4.66406l2.29688.85547m-3.0625-.17579l2.30078.85547m11.80469-1.5039L434.27734 456m5.3086-4.60156l2.28906.8789m-3.0625-.21093l1.14453.4414m13.50781-.21484l-6.4375 2.8125m6.4375-2.8125l1.92578 1.52344m-2.85937-1.11329l.96094.76172m13.47265-.64062l-6.80468 1.75"/><g clip-path="url(#W)"><path fill="none" stroke="#000" stroke-linecap="round" stroke-linejoin="round" stroke-miterlimit="10" stroke-width=".5" d="M466.96484 452.82422l1.65625 1.8086"/></g><path fill="none" stroke="#000" stroke-linecap="round" stroke-linejoin="round" stroke-miterlimit="10" stroke-width=".5" d="M465.97266 453.07813l1.65625 1.80859"/><g clip-path="url(#X)"><path fill="none" stroke="#000" stroke-linecap="round" stroke-linejoin="round" stroke-miterlimit="10" stroke-width=".5" d="M147.42188 441.1875l-6.84375-1.60547"/></g><path fill="none" stroke="#000" stroke-linecap="round" stroke-linejoin="round" stroke-miterlimit="10" stroke-width=".5" d="M147.42188 441.1875l.625 2.3711m12.48828-1.77344l-6.44141-2.8047m6.4414 2.8047l.19141 2.44921m12.97656-2.14843l-6.14843-3.40235m6.14844 3.40235l-.03907 2.45312m13.47266-2.6875l-6.38281-2.9336m6.3828 2.9336l.14454 2.44922m-1.07031-2.8789l.07031 1.22656m14.42188-1.57032l-6.88672-1.39062m6.88672 1.39062l.70312 2.35157m12.63672-3.60157l-6.9375 1.10938m6.9375-1.10938l1.48047 1.95704m11.75781-2.32422L220.5 441.30469m6.78125-1.84375l1.67969 1.78906m11.1836-2.78906l-5.87892 3.84765m5.87891-3.84765l2.15234 1.1836m11.23047-1.08204l-6.01172 3.64062m6.01172-3.64062l2.10547 1.25781m10.90235-1.6875l-5.39844 4.5m5.39844-4.5l2.27343.92969m11.0586-.90625l-5.4336 4.45703m5.4336-4.45703l2.26562.94531m10.48438-1.4961l-4.30078 5.5547m4.30078-5.5547l2.41797.41407m-3.04297.39453l1.20703.20703m12.35156-1.27343l-3.53906 6.0703m3.53906-6.0703l2.45313.09765m-2.96875.78516l1.22656.05078m12.02734-1.20313l-2.38672 6.60938m2.38672-6.60938l2.42969-.34765m11.67578.7539l-3.96875 5.80079m3.96875-5.80079l2.4375.27344m11.57813.35938l-5.3672 4.53515m5.3672-4.53515l2.27734.91015m-3.0586-.25l1.14063.45313M359.5 437.875l-4.91797 5.01562M359.5 437.875l2.35547.69531m-3.07031.03516l1.17578.34765M371.5 437.0625l-2.28906 6.64453M371.5 437.0625l2.42578-.38281m12.41406 1.41797L381 442.66796m4.5625-3.90234l1.14453.44532m13.41406-.41797l-6.26953 3.17969m6.26953-3.1797l2.00782 1.41407m11.07812-1.80078l-5.8086 3.95312m5.8086-3.95312l2.17188 1.14453m-3.01953-.57031l2.17187 1.14453m-3.01562-.5664l1.08593.5703m13.95313-1.67187l-5.8789 3.85156m5.8789-3.85156l2.15234 1.1836m-3.00781-.6211l2.15234 1.17969m-3.00781-.6211l2.15234 1.1836m12.85547-2.33594l-5.83984 3.91406m5.83984-3.91406l2.16016 1.16016M439 438.99609l2.16406 1.16016m-3.01172-.58984l2.16407 1.15625m13.33203-1.21875l-6.80469 1.7578m6.80469-1.7578l1.65625 1.80859m-2.64453-1.55078l1.65625 1.8086m12.71484-1.75l-6.9375 1.125"/><g clip-path="url(#Y)"><path fill="none" stroke="#000" stroke-linecap="round" stroke-linejoin="round" stroke-miterlimit="10" stroke-width=".5" d="M467.03125 439.82031l1.48438 1.95313"/></g><path fill="none" stroke="#000" stroke-linecap="round" stroke-linejoin="round" stroke-miterlimit="10" stroke-width=".5" d="M466.01953 439.98438l1.48438 1.95312m-2.4922-1.78906l.7422.97656"/><g clip-path="url(#Z)"><path fill="none" stroke="#000" stroke-linecap="round" stroke-linejoin="round" stroke-miterlimit="10" stroke-width=".5" d="M147.50781 426.88672l-7.01562.36328"/></g><path fill="none" stroke="#000" stroke-linecap="round" stroke-linejoin="round" stroke-miterlimit="10" stroke-width=".5" d="M147.50781 426.88672l1.26563 2.10156m11.91406-.9336l-6.7461-1.97265m6.7461 1.97266l.5 2.40234m12.32031-1.3711l-5.7539-4.03515m5.7539 4.03516l-.30078 2.4375m13.44922-2.21875l-5.42188-4.47266m5.42188 4.47266l-.49219 2.40625m13.99219-2.65235l-5.78906-3.98047m5.78906 3.98047l-.28125 2.4375m12.96094-1.73828l-4.52344-5.3789m3.86719 4.59765l-.46094 1.13672m14.3086-.25781l-4.27735-5.57422m3.65625 4.76562l-.50781 1.11329m15.69922-4.00782l-6.78516 1.83203m5.79688-1.5664l.83984.89844m13.20312-1.83985l-6.26172 3.1836m5.35157-2.72266l1.0039.70703m13.20313-1.20703l-6.22656 3.26172m6.22656-3.26172l2.02344 1.38672m10.8828-2l-5.41015 4.48828m5.41016-4.48828l2.26953.9336m-3.0586-.28126l1.13673.46875m11.89453-1.98828l-3.26563 6.22266m3.26563-6.22266l2.45312-.01172m-2.92578.91797l1.22656-.00781m12.76172-.78516l-3.66406 5.9961m3.66406-5.9961l2.44922.14844m-2.98047.72656l1.22266.07031m12.5-1.01562l-3.41797 6.13672M318.80469 424l2.45312.04687m-2.94922.84375l1.22657.02735m13.18359-.5l-4.61328 5.30078m3.9414-4.53125l1.19532.27734m13.92187.87891l-6.875 1.44922m6.875-1.44922l1.57422 1.8789m-2.57422-1.66796l.78516.9414m13.42969-1.52734l-6.67578 2.19922m6.67578-2.19922l1.76953 1.69922m-2.74219-1.3789l1.77344 1.69921m12.66797-1.3164l-6.98438.79296m6.98438-.79297l1.39062 2.02344m-2.40625-1.90625l1.38672 2.01953m12.96484-1.70703l-7.02734-.0664m7.02734.0664l1.13282 2.17969m-2.15235-2.1875l.5625 1.08984m13.64063-2.07812l-6.76172 1.92578m6.76172-1.92578l1.69922 1.76953m-2.6836-1.48828l1.69922 1.76562m-2.6836-1.48437l.85157.88281m14.08984-2.25l-6.07421 3.53516m6.07421-3.53516l2.08204 1.29297m-2.96875-.77734l2.08593 1.29296m-2.96875-.78125l1.04297.64844m13.71875-2.13672l-5.42969 4.45703m5.4297-4.45703l2.26562.94141m-3.0547-.29297l2.26563.9414m-3.05859-.29296l2.26563.9414m-3.0547-.29296l1.13282.47265M439.9375 425.25l-6.01172 3.63672m6.01172-3.63672l2.10938 1.25781m-2.98438-.72656l2.10938 1.25781m-2.98438-.73047l2.10938 1.25782m13.24609-1.71875l-6.58984 2.4414m6.58984-2.4414l1.83203 1.6328m-2.79297-1.27734l1.83203 1.63282m-2.78906-1.27735l.91406.81641m14.49219-.86328l-6.9375 1.11328"/><g clip-path="url(#aa)"><path fill="none" stroke="#000" stroke-linecap="round" stroke-linejoin="round" stroke-miterlimit="10" stroke-width=".5" d="M467.03125 426.51172l1.48047 1.95312"/></g><path fill="none" stroke="#000" stroke-linecap="round" stroke-linejoin="round" stroke-miterlimit="10" stroke-width=".5" d="M466.01953 426.67188l1.48438 1.95703m-2.4922-1.79297l.7422.97656"/><g clip-path="url(#ab)"><path fill="none" stroke="#000" stroke-linecap="round" stroke-linejoin="round" stroke-miterlimit="10" stroke-width=".5" d="M147.29297 412.53125l-6.58594 2.44531"/></g><path fill="none" stroke="#000" stroke-linecap="round" stroke-linejoin="round" stroke-miterlimit="10" stroke-width=".5" d="M146.33594 412.88672l.91797.8164m12.91797 2.09375l-5.71485-4.08593m4.88281 3.49219l-.16015 1.21484m13.32031.3086l-3.74219-5.94532m3.74219 5.94531l-1.21875 2.1289m14.60938-2.17577l-3.89454-5.85157m3.32813 5l-.58203 1.07813m15.10937-.78125l-5.1836-4.7461m4.4297 4.0586l-.3086 1.1875m14.5039-.64063l-5.43358-4.46093m4.64062 3.8125l-.24219 1.19922m14.73828-1.14063l-6.21093-3.28516m5.30859 2.8086v1.22656m14.55469-3.09375l-6.88672 1.40625m5.88281-1.20312l.78125.94921m13.48438-1.375l-6.77735 1.85157m6.77735-1.85157l1.68359 1.78516m11.7461-1.14062l-7.00782.5625m7.00781-.5625l1.32032 2.0664m-2.33985-1.98437l.66016 1.03515m13.32031-2.39062L274 415.30859m6.30078-3.10937l1.99219 1.4336m-2.91016-.98048l.9961.71485m12.8828-1.74219l-5.58983 4.25781m5.58984-4.25781l2.22656 1.02344m-3.04297-.40625l1.11719.51172m13.58594 0l-6.73828 1.99609m6.73828-1.9961l1.72265 1.75391m10.98438-2.92969l-5.51563 4.35157m5.51563-4.35157l2.2461.98438m11.77343.60937l-6.92969 1.16016m6.92969-1.16016l1.4961 1.94922m11.78515-.59765l-6.85937-1.53907m6.85937 1.53907l.64844 2.36328m-1.64844-2.58985l.65234 2.3672m13.73047-2.59766l-6.9961-.625m6.9961.625l.95703 2.2578m-1.97265-2.35155l.95312 2.26171m13.38672-2.26171l-7.01562-.4375m7.01562.4375l1.01563 2.23046m-2.03516-2.29687l1.01563 2.23437m-2.03907-2.29687l.50782 1.11719m14.80859-1.78125l-6.9336 1.14843m6.9336-1.14843l1.49219 1.94922m-2.5-1.78125l1.49218 1.9453m-2.5-1.78124l.7461.97656m14.59765-.23047l-6.95703-1.01172m6.95703 1.01172l.82422 2.3125m-1.83593-2.45703l.82812 2.3086m-1.83984-2.45704l.41406 1.15625m14.66406-2.77734l-6.4375 2.8164m6.4375-2.8164l1.92578 1.52344m-2.86328-1.11328l1.92578 1.52343m-2.85937-1.11328l.96094.76172m14.20312-1.63281l-6.39062 2.91797m6.39062-2.91797l1.94922 1.49219m-2.8789-1.06641l1.94921 1.49219m-2.8789-1.0664l.97265.74609m14.44531-.85938l-6.8789 1.44531m6.8789-1.44531l1.57032 1.88281m-2.57032-1.67578l1.57032 1.88281m-2.57422-1.67187l.78906.9414m14.53125-1.34765l-6.88281 1.42187m6.88281-1.42187l1.5664 1.89062m-2.5664-1.68359l1.5664 1.89063m-2.5703-1.6836l.78515.94531m14.51953-1.43359l-6.85156 1.5664"/><g clip-path="url(#ac)"><path fill="none" stroke="#000" stroke-linecap="round" stroke-linejoin="round" stroke-miterlimit="10" stroke-width=".5" d="M466.98828 412.96875l1.60547 1.85547"/></g><path fill="none" stroke="#000" stroke-linecap="round" stroke-linejoin="round" stroke-miterlimit="10" stroke-width=".5" d="M465.98828 413.19922l1.60938 1.85547m-2.60547-1.6289l.80469.92968"/><g clip-path="url(#ad)"><path fill="none" stroke="#000" stroke-linecap="round" stroke-linejoin="round" stroke-miterlimit="10" stroke-width=".5" d="M147.10938 398.80078l-6.21875 3.27344"/></g><path fill="none" stroke="#000" stroke-linecap="round" stroke-linejoin="round" stroke-miterlimit="10" stroke-width=".5" d="M146.20313 399.27734l1.01562.69141m13.30078 1.91406l-6.40625-2.88672m5.47266 2.46485l.08203 1.22656m13.45703.22656l-4.98828-4.94922m4.98828 4.94922l-.71094 2.34766m13.01953-1.64063l-2.97656-6.36328M185 402.69531l-.73438.98047m14.40235-.01953l-2.8164-6.4375m2.40624 5.5l-.76172.96484m16.57813-2.91796l-6.9961-.65625m5.97657.5625l.47265 1.1289m13.875-1.51172l-7.02343.30078m7.02343-.30078l1.2422 2.11328m12.05468-1.60156l-6.98828-.72265m6.98828.72265l.92578 2.27344m-1.9414-2.3789l.92187 2.27343m13.33984-1.7539l-6.85156-1.5547m6.85156 1.5547l.64453 2.36718m-1.64062-2.59375l.64453 2.36719m13.71094-2.34766l-6.9375-1.13672m6.9375 1.13672l.78515 2.32422m-1.79687-2.48828l.39453 1.16016m13.97656-1.52735l-7.02734-.07812m7.02734.07812l1.1289 2.17969m12.1875-2.21875h-7.02734m7.02735 0l1.15234 2.16797m11.80078-3.71485l-6.30859 3.09766m5.39062-2.64844l.9961.71875m13.4336-.67968L313.74608 401.5m6.69922-2.1211l1.7539 1.71485m11.625-1.48438l-6.82812 1.65625m6.82813-1.65625l1.63281 1.83204m-2.625-1.58985l.8164.91406m12.73438 1.96875l-5.3164-4.59375m5.3164 4.59375l-.54297 2.39454m-.23047-3.0625l-.26953 1.1953m13.96094-.1328l-4.51953-5.37891m4.51953 5.3789l-.91406 2.27344m.25781-3.05859l-.45703 1.14063m15.6289-2.44532l-6.92187-1.20312m6.92188 1.20312l.76562 2.33203m-1.77344-2.5078l.76563 2.33202m13.38281-4.00781l-6.57031 2.5m6.57031-2.5l1.84375 1.61719M386 399.55079l1.84766 1.61718m-2.8047-1.25l.92579.80469M400.5 400.5078l-7.02734-.14062m7.02734.14062l1.10937 2.1914m-2.1328-2.21093l1.10937 2.1875m13.17187-1.60937l-6.91406-1.25782m6.91406 1.25782l.7461 2.33984m-1.75-2.51953l.37109 1.16797m13.96875-2.1211l-6.95313 1.00782m6.95313-1.00782l1.44922 1.98047m-2.46094-1.83203l1.44922 1.97656m-2.46094-1.83203l.72656.99219m14.64454-.95313l-7.01954.34375m7.01954-.34375l1.2578 2.10938m-2.28124-2.0586l1.25781 2.10938m-2.27734-2.0586l.6289 1.0547m14.73047-1.11329l-7.02344.26172m7.02344-.26172l1.23047 2.1211m-2.2539-2.08203l1.23437 2.12109m-2.2539-2.08594l.61718 1.0625m14.71875-1.4336l-6.97656.85548"/><g clip-path="url(#ae)"><path fill="none" stroke="#000" stroke-linecap="round" stroke-linejoin="round" stroke-miterlimit="10" stroke-width=".5" d="M467.05078 400.01172l1.40625 2.00781"/></g><path fill="none" stroke="#000" stroke-linecap="round" stroke-linejoin="round" stroke-miterlimit="10" stroke-width=".5" d="M466.03516 400.13672l1.40625 2.00781m-2.42188-1.88672l.70313 1.00781"/><g clip-path="url(#af)"><path fill="none" stroke="#000" stroke-linecap="round" stroke-linejoin="round" stroke-miterlimit="10" stroke-width=".5" d="M146.94922 385.21484l-5.89844 3.81641"/></g><path fill="none" stroke="#000" stroke-linecap="round" stroke-linejoin="round" stroke-miterlimit="10" stroke-width=".5" d="M146.94922 385.21484l2.14453 1.19532m-3-.64063l1.07031.59766m10.60547-2.72656l-.90625 6.96875m.77344-5.95704l1.14844-.42968m12.89843 6.2539l-2.10937-6.70312M171.3789 389.5l-.86328.875m15.32421-.29297l-3.79297-5.91797m3.2422 5.05469l-.60157 1.07031m15.95313-2.21094l-6.76172-1.91015m6.76172 1.91015l.51953 2.39844M214 387.91016l-6.84766-1.57422M214 387.91016l.63672 2.36718m-1.63281-2.59765l.63672 2.3711m-1.63282-2.59767l.3164 1.1836m14.96485-.6211l-6.79687-1.78515m6.79687 1.78515l.5625 2.39063m-1.55078-2.64844l.5625 2.38672m13.72266-2.0625l-6.76172-1.91797m6.76172 1.91797l.51562 2.39844m-1.5-2.67969L239.85937 389m14.10157-1.17188l-6.88281-1.41015m6.8828 1.41015l.69532 2.35547m12.6914-3l-7.02343-.12109m7.02344.1211l1.11328 2.1875m-2.13281-2.20313l.55468 1.09375m13.77344-.91797l-7.01172-.4414m7.01172.4414l1.01563 2.23438m-2.03516-2.29688l.50781 1.11719m13.83594-1.3125l-7.02735.07422m7.02735-.07422l1.17187 2.15625m-2.1953-2.14453l.58593 1.07812m13.74219-1.3164l-7.00782.52734m7.00782-.52735l1.3125 2.07032m-2.33204-1.9961l.65625 1.03907m13.6211-1.53907l-6.89063 1.37891m6.89063-1.3789l1.55078 1.89843m11.82812-1.09375l-7.02343-.22656m7.02343.22656l1.08204 2.19922m11.66015-.39063l-5.8789-3.84765m5.8789 3.84765l-.21875 2.44532m13.98438-3.4375l-6.77735-1.86328m6.77735 1.86328l.53515 2.39453m-1.52343-2.66406l.53906 2.39453m13.78906-3.88672l-6.82812 1.66015m6.82812-1.66015l1.63281 1.83203m-2.625-1.58984l1.62891 1.83203m-2.6211-1.58985l.8125.91407m14.39844-1.70704l-6.64843 2.28125m6.64843-2.28125l1.79297 1.67188m-2.76172-1.34375l1.79297 1.67578m12.6289-1.44922l-6.92577 1.16797m6.92578-1.16797l1.5 1.9414m-2.50781-1.77343l.75.97266m13.54687-1.27735l-6.875 1.44532m6.875-1.44532l1.57422 1.88282m-2.57422-1.67579l.78906.94141m13.60157-.375l-7.02735-.10547m7.02735.10547l1.11718 2.1836m-2.14062-2.19922l.5625 1.09375m13.76953-.89844l-7.01172-.46485m7.01172.46485l1.0039 2.23828m-2.02343-2.30469l1.0039 2.23828m13.32813-2.1328l-7.00781-.54298m7.00781.54297l.98047 2.25m-2-2.32812l.98047 2.25m13.36328-2.41016l-7.02735-.0664"/><g clip-path="url(#ag)"><path fill="none" stroke="#000" stroke-linecap="round" stroke-linejoin="round" stroke-miterlimit="10" stroke-width=".5" d="M467.07422 387.15625l1.13281 2.17969"/></g><path fill="none" stroke="#000" stroke-linecap="round" stroke-linejoin="round" stroke-miterlimit="10" stroke-width=".5" d="M466.05078 387.14844l1.13281 2.17578"/><g clip-path="url(#ah)"><path fill="none" stroke="#000" stroke-linecap="round" stroke-linejoin="round" stroke-miterlimit="10" stroke-width=".5" d="M146.86719 371.77344l-5.73438 4.0664"/></g><path fill="none" stroke="#000" stroke-linecap="round" stroke-linejoin="round" stroke-miterlimit="10" stroke-width=".5" d="M146.86719 371.77344l2.1914 1.10156m-3.02734-.50781l2.19531 1.09765m11.49219-2.21875l-4.8086 5.125m4.8086-5.125l2.36719.64063m-3.0664.10547l1.18358.32031m13.8047 2.45703l-6.75782-1.92187m6.75781 1.92187l.51563 2.39844m12.35937-1.42969l-5.875-3.85937m5.875 3.85937l-.22656 2.4414m-.6289-3.0039l-.22657 2.44531m14.46875-2l-6.01953-3.625m6.01953 3.625l-.1289 2.44922m-.7461-2.97656l-.13281 2.44922m14.66797-2.6836l-6.70703-2.10156m6.70703 2.10156l.44922 2.41016m-1.42578-2.71484l.22656 1.20312m14.03515-.8086l-6.64843-2.28124m6.64843 2.28125l.38282 2.42578m-1.35157-2.75781l.19141 1.21094m14.26953-1.73438l-7.0039-.57031m7.0039.57031l.97266 2.2539m-1.99219-2.33593l.48828 1.125m13.85547-1.22656l-7.02344-.20704m7.02344.20704l1.08984 2.20312m-2.10937-2.23047l.54297 1.09766m13.79297-1.17188h-7.02735m7.02735 0l1.15234 2.16797m-2.17188-2.16797l.57422 1.08204m13.75782-1.27344l-7.01954.3789m7.01954-.3789l1.26562 2.10156m-2.28906-2.04688l.63672 1.05079m13.70703-.89063l-7.02734-.04687m7.02734.04687l1.13672 2.17188m-2.16016-2.1797l.57031 1.08595m13.75782-1.35547l-7.00782.5039m7.00782-.5039l1.30468 2.07812m-2.32421-2.0039l1.30468 2.07812m13.0039-2.39844l-6.95702 1m6.95703-1l1.44922 1.98047m-2.46094-1.83594l1.44922 1.98047m12.89062-1.23437l-6.98437-.78125m6.98437.78125l.90235 2.28125m-1.91797-2.39453l.45312 1.14062m13.8711-.96094l-6.96875-.91406m6.96875.91406l.85937 2.29688m-1.875-2.42969l.86328 2.29688m13.4922-2.48828l-7.01954-.26563m7.01953.26563l1.07031 2.21093m-2.08984-2.25l1.0664 2.21094m13.2422-2.75781l-6.96876.90625m6.96875-.90625l1.42188 1.9961m-2.4336-1.8672l1.42188 2m-2.4375-1.86718l.71094 1M387 372.67969l-6.65625 2.25781M387 372.67969l1.78516 1.6836m-2.75391-1.35548l1.78516 1.6836m12.47656-2.07032l-6.61328 2.3711m6.61328-2.3711l1.8164 1.65235m-2.77734-1.30469l1.8164 1.64844m12.56641-1.64063l-6.82812 1.66406m6.82812-1.66406l1.63282 1.83203m-2.625-1.58984l.8164.91406m13.58985-.3789l-7.02735.10937m7.02735-.10937l1.1875 2.14843m-2.21094-2.1328l.59375 1.07421m13.72266-.625l-6.98047-.82031m6.98047.82031l.89062 2.28906m-1.90625-2.40625l.44531 1.14063m13.88672-1.05078l-6.98437-.76563m6.98437.76563l.91016 2.28125m-1.92578-2.39063l.45312 1.13672m13.88672-1.125l-7.0039-.57031"/><g clip-path="url(#ai)"><path fill="none" stroke="#000" stroke-linecap="round" stroke-linejoin="round" stroke-miterlimit="10" stroke-width=".5" d="M467.0625 374.09375l.97266 2.2539"/></g><path fill="none" stroke="#000" stroke-linecap="round" stroke-linejoin="round" stroke-miterlimit="10" stroke-width=".5" d="M466.04297 374.01172l.48828 1.125"/><g clip-path="url(#aj)"><path fill="none" stroke="#000" stroke-linecap="round" stroke-linejoin="round" stroke-miterlimit="10" stroke-width=".5" d="M147.0664 358.77344l-6.1328 3.4375"/></g><path fill="none" stroke="#000" stroke-linecap="round" stroke-linejoin="round" stroke-miterlimit="10" stroke-width=".5" d="M147.0664 358.77344l2.0625 1.32812m-2.95702-.82812l1.03125.66406m13.25-1.02344l-6.27735 3.15625m6.27734-3.15625l2.00391 1.41797m-2.91797-.95703l2.0039 1.41797m-2.91405-.96094l1 .71094m14.32812 1.08203l-6.65234-2.26172m6.65234 2.26172l.39453 2.42188m-1.36328-2.75391l.39453 2.42578m13.65625-1.5586l-6.1875-3.33593m6.1875 3.33594l-.01562 2.45703m-.88672-2.9414l-.01563 2.45312m-.8828-2.9375l-.00782 1.22656m15.24219-.5l-6.42578-2.85156m6.42578 2.85156l.17187 2.44922m-1.10547-2.86328l.17188 2.4453m-1.10938-2.85937l.08985 1.22266m15.34375-1.20313l-6.91797-1.23046m6.91797 1.23046l.7539 2.33204m-1.76172-2.51172l.37891 1.16797m13.9336-.9375l-6.89844-1.33594m6.89843 1.33594l.71875 2.34765m-1.72265-2.54297l.71875 2.34766m13.66406-2.82031h-7.02734m7.02734 0l1.15234 2.16797m-2.17578-2.16797l.57813 1.08594m13.7539-1.27735l-7.01562.38672m7.01562-.38672l1.26953 2.09766m-2.28906-2.04297l.63672 1.05078m13.69922-1.1211l-7.01563.41798m7.01563-.41797l1.27734 2.09375m-2.29687-2.03516l.63672 1.04688m13.70312-.79297l-7.02734-.20704m7.02734.20704l1.08594 2.19921m-2.10938-2.23046l1.08985 2.19921m13.2461-2.15625l-7.02345-.23046m7.02344.23046l1.08203 2.19922m-2.10156-2.23437l1.07813 2.20312m13.24609-2.59375l-7 .6211m7-.6211l1.33984 2.0547m-2.35937-1.96485l1.33984 2.05469m12.9414-2.51172l-6.89452 1.35156m6.89453-1.35156l1.54687 1.90625m-2.55078-1.70704l1.54688 1.90235m12.75781-2.16797l-6.86719 1.48438m6.86719-1.48438l1.58594 1.875m-2.58203-1.65625l1.58203 1.8711m12.80468-1.14844l-7.01562-.39454m7.01562.39454l1.02735 2.22656m-2.04688-2.28516l1.02735 2.23047m13.3086-2.1914l-7.01954-.35938m7.01953.35938l1.03906 2.22265m-2.0625-2.27344l1.04297 2.22266m-2.0625-2.27734l.51953 1.11328m14.82813-1.48828l-7 .60156m7-.60156l1.33594 2.05859m-2.35157-1.96875l1.33203 2.0586m-2.35156-1.97266l1.33203 2.0586m13.875-2.97267l-6.71093 2.07813m6.71093-2.07813l1.7422 1.73047m-2.71876-1.42578l1.74219 1.72656m-2.71875-1.42578l1.74219 1.73047m13.5039-2.40625l-6.66797 2.22266m6.66797-2.22266l1.77735 1.6914m-2.7461-1.36718l1.77735 1.6875m-2.75-1.36719l.89062.84766m14.46094-1.14844l-6.85938 1.53516m6.85938-1.53516l1.59765 1.86328m-2.59765-1.64062l1.59765 1.86328m12.77735-1.73828l-6.97656.83594m6.97656-.83594l1.40234 2.01562m-2.41797-1.89453l1.40235 2.01563m12.94922-1.83203l-7.02344.22656m7.02344-.22656l1.22265 2.1289m-2.24219-2.09375l1.21875 2.1289m13.1172-1.89062l-7.01954-.3203m7.01953.3203l1.05078 2.21875m-2.07422-2.26562l1.05079 2.21875m13.28515-2.50781l-7.01953.35546"/><g clip-path="url(#ak)"><path fill="none" stroke="#000" stroke-linecap="round" stroke-linejoin="round" stroke-miterlimit="10" stroke-width=".5" d="M467.07031 360.3164l1.26172 2.10548"/></g><path fill="none" stroke="#000" stroke-linecap="round" stroke-linejoin="round" stroke-miterlimit="10" stroke-width=".5" d="M466.05078 360.36719l.6289 1.05078"/><g clip-path="url(#al)"><path fill="none" stroke="#000" stroke-linecap="round" stroke-linejoin="round" stroke-miterlimit="10" stroke-width=".5" d="M147.0664 345.46484l-6.1328 3.42579"/></g><path fill="none" stroke="#000" stroke-linecap="round" stroke-linejoin="round" stroke-miterlimit="10" stroke-width=".5" d="M147.0664 345.46484l2.0625 1.33204m11.38282-1.07422l-6.39453 2.91015m6.39453-2.91015l1.94531 1.49218m-2.875-1.0703l1.94531 1.49608m12.46485.5547l-6.72656-2.03516m6.72656 2.03515l.47656 2.40625m-1.45313-2.70312l.47657 2.40625m13.40234-1.21485l-5.89844-3.8203m5.89844 3.8203l-.21094 2.44141m-.64843-3l-.21094 2.44531m-.64453-3l-.10547 1.22266m15.30078-.39844l-6.23047-3.2461m6.23047 3.2461l.01953 2.45703m-.92578-2.92969l.01172 1.22657m14.57422-1.89844l-6.96094-.95703m6.96094.95703l.84765 2.30469m-1.85937-2.44531l.84766 2.30468m13.5-2.34765l-7-.58985m7 .58985l.96875 2.2539m-1.98829-2.33984l.96875 2.25781m13.3672-2.17969l-7.00392-.5703m7.00391.5703l.97266 2.25m-1.99219-2.33593l.48828 1.1289m13.85938-1.32812h-7.02735m7.02735 0l1.15234 2.16406m-2.17578-2.16406l1.15234 2.16406m13.1836-2.1836l-7.02735.03516m7.02735-.03515l1.16406 2.16015m-2.1836-2.15234l1.16016 2.16015m13.17578-2.09765l-7.02734-.10156m7.02734.10156l1.1211 2.1836m-2.14453-2.19923l1.12109 2.1836m13.19922-1.85938l-6.98828-.72265m6.98828.72265l.92187 2.27344m-1.9375-2.3789l.92188 2.27343m13.42578-2.39062l-7.02344-.27735m7.02344.27735l1.0625 2.21093m-2.08594-2.25l1.0664 2.21094m13.27344-2.375l-7.02734.1289m7.02734-.1289l1.19141 2.14453m-2.21484-2.125l1.1914 2.14453m-2.21484-2.125l.59766 1.07032m14.69921-1.70704l-6.89843 1.32422m6.89843-1.32421l1.54297 1.91015m-2.54687-1.71875l1.54297 1.91016m-2.54688-1.71485l.77344.95313m14.44922-1.74219l-6.69531 2.1289m6.6953-2.1289l1.75391 1.71875m-2.72656-1.40625l1.7539 1.71485m-2.73046-1.40625l.8789.85546m14.54688-.57812l-7.01953.33203m7.01953-.33203l1.2539 2.11328m-2.27343-2.0625l1.25 2.10938m13.08203-2.19141l-7.01562.39453m7.01562-.39453l1.27344 2.10156m-2.29297-2.04297l1.26953 2.09766m-2.28906-2.03906l1.26953 2.09765m13.94531-3.01562l-6.73437 2m6.73437-2l1.72266 1.7461m-2.70313-1.45704l1.72266 1.75m-2.70313-1.45703l1.72266 1.7461m13.57422-2.25l-6.77734 1.84374m6.77734-1.84375l1.6836 1.78516m-2.66798-1.51953l1.6797 1.78906m-2.66798-1.51953l1.6797 1.78906m13.61327-2.3125l-6.78906 1.82031m6.78906-1.8203l1.67188 1.79296m-2.66016-1.53125l1.67578 1.79688m-2.66406-1.53125l1.67578 1.79687m-2.66016-1.53125l.83594.89844m15.44531-1.66797l-6.80078 1.77344m6.80078-1.77344l1.66016 1.80469m-2.64844-1.54688l1.66016 1.80469m-2.64844-1.54688l1.66016 1.8047m13.69922-2.00392l-6.9336 1.13672m6.9336-1.13671l1.48828 1.95312m-2.4961-1.78516l1.48438 1.94922m-2.49219-1.78515l.74219.97656m14.58984-1.29688l-6.9375 1.11329m6.9375-1.11329l1.48047 1.95704m-2.48828-1.79297l1.48047 1.95312m-2.49219-1.79297l.74219.97656m14.58594-1.35156l-6.92188 1.21875"/><g clip-path="url(#am)"><path fill="none" stroke="#000" stroke-linecap="round" stroke-linejoin="round" stroke-miterlimit="10" stroke-width=".5" d="M467.02344 346.57031l1.50781 1.9336"/></g><path fill="none" stroke="#000" stroke-linecap="round" stroke-linejoin="round" stroke-miterlimit="10" stroke-width=".5" d="M466.01563 346.7461l1.5078 1.93359m-2.51562-1.75781l.7539.96875"/><g clip-path="url(#an)"><path fill="none" stroke="#000" stroke-linecap="round" stroke-linejoin="round" stroke-miterlimit="10" stroke-width=".5" d="M146.875 331.84766l-5.75 4.03125"/></g><path fill="none" stroke="#000" stroke-linecap="round" stroke-linejoin="round" stroke-miterlimit="10" stroke-width=".5" d="M146.03906 332.4336l1.09375.55468m13.33203-.6836l-6.30078 3.1172m6.30078-3.1172l1.9922 1.4336m11.67577.375l-7.00781-.5m7.00781.5l.9961 2.24219m-2.01563-2.3164l.5 1.12109m13.0625.91015l-5.46094-4.41797m5.46094 4.41797l-.46484 2.41016m-.32813-3.05078l-.23437 1.20312m14.71875-1.125l-6.21094-3.28906m6.21094 3.28906l.0039 2.45313m-.91015-2.9336l.0039 1.22657m14.48047-1.39844l-6.74219-1.98438m6.7422 1.98438l.49609 2.40234m-1.47657-2.6914l.4961 2.40234m-1.47656-2.6914l.24609 1.20312m15.15234-1.22266l-6.98437-.78906m6.98437.78906l.90235 2.28125m-1.91797-2.39844l.89844 2.28516m13.44921-2.39062l-7.01953-.34375m7.01953.34375l1.04297 2.22265m-2.0625-2.27344l1.04297 2.22266m13.27734-1.97656l-6.98828-.73438m6.98828.73438l.91797 2.27734m-1.9375-2.38281l.92188 2.27344m13.41406-2.1836l-6.99219-.70312m6.9922.70312l.92968 2.26954m-1.94922-2.3711l.46484 1.13281m13.83203-2.0078l-6.91796 1.25m6.91797-1.25l1.51562 1.92968m-2.52344-1.7461l.76172.96094m13.60938-.27734l-7.01172-.48828m7.01172.48828l.99609 2.24219m-2.01953-2.3125l.5 1.12109m13.625-.0664l-6.58594-2.45704m6.58594 2.45703l.32031 2.4336m-1.28125-2.78906l.16406 1.21484m14.28907-1.54688l-6.94141-1.08203m6.9414 1.08203l.8047 2.32032m-1.8125-2.47657l.40234 1.16016m13.92969-2.03516l-6.95704.98438m6.95704-.98438l1.4414 1.98438m-2.45312-1.83985l.71875.9922m13.375-1.98829l-6.4922 2.6875m6.4922-2.6875l1.89453 1.5586m11.67187-.53907l-6.9961.64844m6.9961-.64844l1.34766 2.05078m-2.36328-1.95703l.67187 1.02344m13.65625-.42188l-6.98828-.74218m6.98828.74219l.91797 2.27343m-1.9375-2.38281l.91797 2.27734m13.41406-2.90625l-6.98828.73438m6.98828-.73438l1.375 2.03516m-2.39062-1.92969l1.3711 2.03516m12.91796-2.4414l-6.90234 1.33593m6.90234-1.33594l1.53906 1.90625m-2.54297-1.71094l.76954.95313m13.3203-1.8789l-6.4453 2.79687m6.4453-2.79688l1.92188 1.53125m-2.85937-1.125l.96094.76563m13.39062-.92188l-6.64062 2.29688m6.64062-2.29688l1.79688 1.67188m-2.76172-1.33985l1.79297 1.67188m-2.76172-1.33594l.89843.83594m14.4297-1.2461l-6.80079 1.78126m6.80078-1.78125l1.66016 1.80468m-2.65235-1.54687l1.66407 1.80469m-2.65235-1.54297l1.66407 1.80469m13.66796-2.16407l-6.875 1.46094m6.875-1.46094l1.57813 1.88281m-2.57813-1.66796l1.57813 1.8789m-2.57813-1.66797l1.57813 1.87891m13.63672-2.67578l-6.67188 2.20312"/><g clip-path="url(#ao)"><path fill="none" stroke="#000" stroke-linecap="round" stroke-linejoin="round" stroke-miterlimit="10" stroke-width=".5" d="M466.89844 332.76172l1.77344 1.69531"/></g><path fill="none" stroke="#000" stroke-linecap="round" stroke-linejoin="round" stroke-miterlimit="10" stroke-width=".5" d="M465.92578 333.08203l1.77344 1.69531m-2.74219-1.375l1.77344 1.69532"/><g clip-path="url(#ap)"><path fill="none" stroke="#000" stroke-linecap="round" stroke-linejoin="round" stroke-miterlimit="10" stroke-width=".5" d="M140.50781 320.14453l6.98438.80469"/></g><path fill="none" stroke="#000" stroke-linecap="round" stroke-linejoin="round" stroke-miterlimit="10" stroke-width=".5" d="M154.35938 322.44922l5.91015-3.80469m12.0039 5.00781l-3.28905-6.21093m2.8125 5.30859l-.6875 1.01563m15.86328-1.4375l-6.0547-3.5625m6.0547 3.5625l-.10547 2.45312m-.77344-2.96875l-.05469 1.22266m13.86328-.16797l-5.28125-4.63672m5.28125 4.63672l-.5664 2.38672m-.20313-3.0625l-.28125 1.1953m14.61328-.83983l-5.77734-4m5.77734 4l-.28515 2.4375m-.55469-3.01954l-.28516 2.4375m14.78125-2.47656l-6.46093-2.7539m6.46093 2.7539l.21094 2.44531m-1.14844-2.84765l.20703 2.44531m14.26954-2.78516l-6.91016-1.26953m6.91016 1.26953l.74218 2.33985m-1.74609-2.52735l.74219 2.33985m13.60547-2.33203l-6.96875-.91407m6.96875.91407l.86328 2.29687m-1.875-2.42969l.85937 2.29688m13.44531-2.00781l-6.92187-1.22657m6.92188 1.22657l.7539 2.33593m-1.76172-2.51171l.7539 2.33203m13.6211-2.76954h-7.02734m7.02734 0l1.15235 2.16797m-2.17578-2.16796l.57812 1.08593m13.70313-1.71484l-6.91407 1.25781m6.91406-1.25781l1.52344 1.92578m-2.52734-1.74219l1.51953 1.92578m12.83203-1.0703l-6.97656-.82032m6.97656.82031l.89063 2.28906m-1.90625-2.40625l.4453 1.14063m13.77735-.47266l-6.76172-1.92187m6.76172 1.92187l.51563 2.39844m-1.5-2.67578l.25781 1.19922m14.17578-1.84375l-7.02734-.07813m7.02734.07813l1.125 2.17969m-2.14844-2.19141l.5625 1.08984m13.77344-1.11719h-7.02734m7.02734 0l1.15235 2.16797m12.16015-2.01171l-7.01953-.3086m6 .26172l.52734 1.10938m13.8086-1.34766l-7.02344.25781m7.02344-.25781l1.23047 2.125m11.83984-3.28906l-6.53125 2.58593m6.53125-2.58593l1.86719 1.58984m-2.8164-1.21094l.93358.79297m13.56641.39063l-7.0039-.53516m5.98437.45703l.49219 1.125m10.61719 2.1875l-.55079-7.0039m16.73438 1.9375l-6.28906 3.1289m19.33203-3.58594l-5.7461 4.04297m4.91016-3.45703l1.09375.55469m13.22656-.8789l-6.08594 3.51952m6.08594-3.51953l2.08203 1.29688m-2.96875-.78516l2.08204 1.30078m11.90625-2.13672l-5.66016 4.16407"/><g clip-path="url(#aq)"><path fill="none" stroke="#000" stroke-linecap="round" stroke-linejoin="round" stroke-miterlimit="10" stroke-width=".5" d="M466.39063 318.46484l2.21093 1.0625"/></g><g clip-path="url(#ar)"><path fill="none" stroke="#000" stroke-linecap="round" stroke-linejoin="round" stroke-miterlimit="10" stroke-width=".5" d="M465.5664 319.07031l2.21485 1.0625"/></g><path fill="none" stroke="#000" stroke-linecap="round" stroke-linejoin="round" stroke-miterlimit="10" stroke-width=".5" d="M464.7461 319.67578l2.21093 1.0625"/><path fill="#00f" fill-rule="evenodd" d="M388.23828 467.64844h8.61719V457.5039h-8.61719v10.14453"/><path fill="azure" fill-rule="evenodd" d="M390.07031 459.33594h.83594v2.82422h3.28516v-2.82422h.83203v6.48047h-.83203v-2.91797h-3.28516v2.91797h-.83594v-6.48047"/><path fill="#ff3030" fill-rule="evenodd" d="M309.04297 454.33203h7.6914V444.1875h-7.6914v10.14453"/><path fill="azure" fill-rule="evenodd" d="M310.875 446.01953h.83203v5.73828h3.19531V452.5H310.875v-6.48047"/><path fill="#ff3030" fill-rule="evenodd" d="M167.01563 374.4414h7.6914v-10.14452h-7.6914v10.14453"/><path fill="azure" fill-rule="evenodd" d="M168.84766 366.1289h.83203v5.7422h3.19531v.73827h-4.02734v-6.48046"/><path fill="#ffffe0" fill-rule="evenodd" d="M337.30469 389.44531h22.17969v-10.1914h-22.1797v10.1914"/><path fill-rule="evenodd" d="M340.80469 381.08594h.50781v6.29297h-.78516v-4.48829h-1.39062v-.55468l.5625-.0664.25-.0547.23047-.08984.20312-.14063.17578-.21093.14063-.29297.10547-.39453m4.8125 0l.23047.01953.21875.05469.20703.08984.19922.1211.18359.14843.17188.17578.30078.41797.24218.4961.1797.54687.11327.57813.03906.58984-.03906.59375-.11328.58594-.17969.55078-.24218.5039-.30079.4297-.17187.17577-.1836.15625-.19921.1211-.20703.09375-.21875.05468-.23047.01954-.22656-.01954-.21875-.05468-.21094-.09375-.19531-.1211-.1836-.15625-.17187-.17578-.30079-.42969-.24218-.5039-.1836-.55078-.10937-.58594-.03906-.59375h.83203l.03125.5625.08203.50781.125.4414.16406.375.1875.30079.21094.22265.22265.13672.22657.04688.22656-.04688.22266-.13671.21093-.22266.19141-.30078.16406-.375.125-.4414.08203-.50782.02735-.5625-.02735-.5586-.08203-.5039-.125-.4336-.16406-.36718-.1914-.29297-.21094-.21094-.22266-.13281-.22656-.04688-.22656.04688-.22266.13281-.21094.21094-.1875.29297-.16406.36719-.125.43359-.08203.5039-.03125.5586h-.83203l.03906-.58985.10937-.57812.1836-.54688.24219-.49609.30078-.41797.17187-.17578.1836-.14844.1953-.12109.21094-.08984.21875-.0547.22657-.01952m5.09375 0h.50781v6.29297h-.78516v-4.48829h-1.39062v-.55468l.5625-.0664.25-.0547.23047-.08984.20312-.14063.17188-.21093.14453-.29297.10547-.39453m2.82422 2.17578h.78515l.01953-.3164.0586-.28907.10156-.25.14063-.21484.17968-.17579.22266-.1289.26562-.07813.3086-.03125.23828.02344.22265.0625.20313.10156.17969.13672.14844.17578.11328.20313.0703.23828.02735.26563-.02344.26562-.0664.22656-.10938.1914-.15234.17188-.20313.16016-.24609.16797-.63281.38672-.53906.3164-.4375.31641-.34766.32422-.26172.33594-.1914.35156-.125.36719-.07032.39453-.01953.41797h4.21094v-.73829h-3.33203l.08203-.28515.11719-.23828.14843-.19922.1836-.17969.23437-.17187.27735-.17579.71484-.41796.41797-.20313.34375-.23437.28125-.25.21875-.26563.16406-.27734.11328-.28516.0625-.28515.01953-.28125-.04296-.38282-.1172-.34765-.1914-.3086-.25-.26172-.30078-.21484-.34766-.15625-.3789-.10156-.40625-.03125-.4375.03125-.39453.09765-.35547.16797-.30469.23438-.25.30469-.1836.375-.11718.4453-.03906.51954"/><path fill="#ffffe0" fill-rule="evenodd" d="M213.03125 344.32031h22.17969V334.125h-22.17969v10.19531"/><path fill-rule="evenodd" d="M216.53125 335.96094h.50781v6.29297h-.78515v-4.48829h-1.39063v-.55468l.5625-.0664.25-.0547.23047-.08984.20313-.14063.17578-.21093.14062-.29297.10547-.39453m4.8125 0l.23047.01953.21875.05469.20703.08984.19922.1211.1836.14843.17187.17578.30078.41797.24219.4961.17968.54687.11328.57813.03516.58984-.03516.59375-.11328.58594-.17968.55078-.2422.5039-.30077.42579-.17188.17968-.1836.15625-.19921.1211-.20703.09375-.21875.05468-.23047.01954-.22656-.01954-.22266-.05468-.20703-.09375-.19531-.1211-.1836-.15625-.17187-.17969-.30078-.42578-.2461-.5039-.17968-.55078-.10938-.58594-.03906-.59375h.83203l.03125.5625.08203.50781.125.4414.16406.375.1875.30079.21094.22265.22266.13672.22656.04688.22656-.04688.22266-.13671.21094-.22266.1914-.30078.16406-.375.125-.4414.08204-.50782.02734-.5625-.02734-.5625-.08203-.5-.125-.4336-.16407-.36718-.1914-.29297-.21094-.21094-.22266-.13281-.22656-.04688-.22656.04688-.22266.13281-.21094.21094-.1875.29297-.16406.36719-.125.43359-.08203.5-.03125.5625h-.83203l.03906-.58985.10938-.57812.17968-.54688.2461-.49609.30078-.41797.17187-.17578.1836-.14844.19531-.12109.20703-.08984.22266-.0547.22656-.01952m5.09375 0h.50781v6.29297h-.78515v-4.48829h-1.39063v-.55468l.5586-.0664.2539-.0547.23047-.08984.20313-.14063.17187-.21093.14453-.29297.10547-.39453m2.82031 2.17578h.78906l.01954-.3164.05859-.28907.09766-.25.14062-.21484.1836-.17579.22265-.1289.26563-.08203.30859-.02735.23828.02344.22266.0625.20312.10156.17969.13672.14844.17578.11328.20313.07031.23828.02734.26563-.02343.26562-.0664.22656-.10938.1914-.15625.17188-.19922.16016-.2461.16797-.63672.38672-.53515.3164-.4375.31641-.34766.32422-.26172.33594-.1914.35156-.125.36719-.07031.39453-.01954.41797h4.21094v-.73829H230l.08203-.28515.11328-.23828.14844-.19922.1875-.17969.23047-.17187.28125-.17579.71484-.41796.41797-.20704.34375-.23046.28125-.25.21875-.26563.16406-.28125.11328-.28125.0625-.28515.01954-.28125-.04297-.38282-.11719-.34765-.1914-.3086-.25-.26172-.30079-.21484-.34765-.15625-.37891-.10156-.40625-.03125-.4375.03125-.39844.09765-.35156.16797-.30469.23438-.25.30469-.1875.375-.11328.4453-.04297.51954"/><path fill="#ffffe0" fill-rule="evenodd" d="M319.55078 345.1875h22.1836v-10.19531h-22.1836v10.19531"/><path fill-rule="evenodd" d="M323.05078 336.82813h.51172v6.29296h-.78906v-4.48828h-1.38672v-.55469l.5586-.0664.25-.05469.23046-.08984.20313-.14063.17578-.21094.14062-.29296.10547-.39454m4.8125 0l.23047.01954.21875.05468.21094.08985.19531.1211.1836.14843.17187.17578.30078.41797.24219.4961.17969.54687.11328.57812.03906.58985-.03906.59375-.11329.58593-.17968.55079-.24219.5039-.30078.42578-.17188.17969-.18359.15625-.19531.1211-.21094.09374-.21875.0547-.23047.01952-.22656-.01953-.21875-.05469-.21094-.09375-.19531-.12109-.1836-.15625-.17187-.17969-.30078-.42578-.24219-.5039-.17969-.55079-.11328-.58593-.03906-.59375h.83594l.02734.5625.08203.5078.125.44142.16406.375.19141.30078.21094.22265.22265.13672.22266.04688.22656-.04688.22266-.13672.21094-.22265.1914-.30079.16407-.375.125-.4414.08203-.50781.02734-.5625-.02734-.5625-.08203-.5-.125-.4336-.16407-.36719-.1914-.29296-.21094-.21094-.22266-.13281-.22656-.04688-.22265.04688-.22266.1328-.21094.21095-.1914.29296-.16407.3672-.125.43359-.08203.5-.02734.5625h-.83594l.03906-.58985.11328-.57812.1797-.54688.24218-.4961.30078-.41796.17188-.17578.18359-.14844.19531-.1211.21094-.08984.21875-.05468.22656-.01954m5.09375 0h.50781v6.29297h-.78515v-4.48828h-1.39063v-.55469l.5625-.0664.25-.05469.23047-.08984.20313-.14063.17578-.21094.14062-.29296.10547-.39454m6.80469 1.6172h-.78906l-.05079-.21094-.08203-.1875-.10546-.15625-.12891-.13282-.14844-.10156-.16015-.07422-.16797-.04687-.17188-.01563-.32812.04297-.28907.1211-.24609.1953-.20313.26563-.16015.33985-.11719.40234-.07031.46875-.02344.52734.1914-.20312.1836-.16016.1875-.1211.1836-.08984.1875-.05859.1953-.03906.39844-.02344.3086.03125.32031.08984.3164.15625.29298.21875.2578.28516.19923.35156.07031.19922.05469.21875.02734.23438.0039.25-.78515.04687-.02734-.25781-.07813-.25-.1211-.23438-.16015-.21093-.19531-.1797L338.3125 340l-.24219-.08594-.2539-.03125-.25391.03125-.24219.08594-.21875.13672-.1914.17969-.16407.21093-.12109.23438-.07813.25-.02734.25781.02735.26172.07812.25.1211.23438.16406.21093.1914.17578.21875.13672.24219.08985.2539.03125.25391-.03125.24219-.08985.21875-.13672.19531-.17578.16016-.21094.1211-.23437.07812-.25.02734-.26172.78516-.04687-.03125.37109-.08985.375-.16015.35547-.22266.32812-.28906.28516-.16797.11719-.1914.10156-.20313.08203-.22656.0625-.23829.03906-.26171.01172-.28125-.01562-.26172-.04688-.23828-.07422-.21485-.10546-.19531-.13282-.17188-.15625-.15625-.17969-.13671-.20312-.11329-.22266-.10156-.24218-.14453-.53125-.08594-.59375-.02734-.64063.03906-.7461.11328-.66015.1875-.57812.1211-.25782.13672-.23046.15234-.20704.16797-.17968.1875-.15625.20312-.12891.21875-.10156.23047-.07422.25-.04297.26172-.01563.36328.03125.33203.09766.29688.15235.25781.19921.21094.23829.16406.27734.11719.30078.0625.32031"/></g></defs><use xlink:href="#as"/></svg>