<svg xmlns="http://www.w3.org/2000/svg" role="img" xmlns:xlink="http://www.w3.org/1999/xlink" viewBox="142.45 309.95 326.84 171.84"><defs><clipPath id="a"><path d="M144 438h1v42.32813h-1zm0 0"/></clipPath><clipPath id="b"><path d="M144 311.67188h1V434h-1zm0 0"/></clipPath><clipPath id="c"><path d="M144 311.67188h324v168.65625H144zm0 0"/></clipPath><clipPath id="d"><path d="M379 452h16v28.32813h-16zm0 0"/></clipPath><clipPath id="e"><path d="M467 311.67188h1v168.65625h-1zm0 0"/></clipPath><clipPath id="f"><path d="M144 479h4v1.32813h-4zm0 0"/></clipPath><clipPath id="g"><path d="M147 480h2v.32813h-2zm0 0"/></clipPath><clipPath id="h"><path d="M153 479h9v1.32813h-9zm0 0"/></clipPath><clipPath id="i"><path d="M160 480h3v.32813h-3zm0 0"/></clipPath><clipPath id="j"><path d="M166 480h9v.32813h-9zm0 0"/></clipPath><clipPath id="k"><path d="M173 480h3v.32813h-3zm0 0"/></clipPath><clipPath id="l"><path d="M172 480h2v.32813h-2zm0 0"/></clipPath><clipPath id="m"><path d="M180 479h8v1.32813h-8zm0 0"/></clipPath><clipPath id="n"><path d="M187 479h2v1.32813h-2zm0 0"/></clipPath><clipPath id="o"><path d="M193 480h9v.32813h-9zm0 0"/></clipPath><clipPath id="p"><path d="M200 480h3v.32813h-3zm0 0"/></clipPath><clipPath id="q"><path d="M206 479h9v1.32813h-9zm0 0"/></clipPath><clipPath id="r"><path d="M213 479h3v1.32813h-3zm0 0"/></clipPath><clipPath id="s"><path d="M220 479h8v1.32813h-8zm0 0"/></clipPath><clipPath id="t"><path d="M227 479h3v1.32813h-3zm0 0"/></clipPath><clipPath id="u"><path d="M233 479h8v1.32813h-8zm0 0"/></clipPath><clipPath id="v"><path d="M240 479h3v1.32813h-3zm0 0"/></clipPath><clipPath id="w"><path d="M246 479h9v1.32813h-9zm0 0"/></clipPath><clipPath id="x"><path d="M253 479h3v1.32813h-3zm0 0"/></clipPath><clipPath id="y"><path d="M260 479h8v1.32813h-8zm0 0"/></clipPath><clipPath id="z"><path d="M266 479h2v1.32813h-2zm0 0"/></clipPath><clipPath id="A"><path d="M273 479h8v1.32813h-8zm0 0"/></clipPath><clipPath id="B"><path d="M279 480h2v.32813h-2zm0 0"/></clipPath><clipPath id="C"><path d="M286 479h9v1.32813h-9zm0 0"/></clipPath><clipPath id="D"><path d="M292 480h2v.32813h-2zm0 0"/></clipPath><clipPath id="E"><path d="M300 479h8v1.32813h-8zm0 0"/></clipPath><clipPath id="F"><path d="M305 480h2v.32813h-2zm0 0"/></clipPath><clipPath id="G"><path d="M314 477h6v3.32813h-6zm0 0"/></clipPath><clipPath id="H"><path d="M328 477h5v3.32813h-5zm0 0"/></clipPath><clipPath id="I"><path d="M340 478h7v2.32813h-7zm0 0"/></clipPath><clipPath id="J"><path d="M340 480h2v.32813h-2zm0 0"/></clipPath><clipPath id="K"><path d="M353 478h8v2.32813h-8zm0 0"/></clipPath><clipPath id="L"><path d="M353 480h3v.32813h-3zm0 0"/></clipPath><clipPath id="M"><path d="M367 477h7v3.32813h-7zm0 0"/></clipPath><clipPath id="N"><path d="M380 478h8v2.32813h-8zm0 0"/></clipPath><clipPath id="O"><path d="M380 480h2v.32813h-2zm0 0"/></clipPath><clipPath id="P"><path d="M393 478h8v2.32813h-8zm0 0"/></clipPath><clipPath id="Q"><path d="M391 479h3v1.32813h-3zm0 0"/></clipPath><clipPath id="R"><path d="M393 480h2v.32813h-2zm0 0"/></clipPath><clipPath id="S"><path d="M407 478h7v2.32813h-7zm0 0"/></clipPath><clipPath id="T"><path d="M404 480h4v.32813h-4zm0 0"/></clipPath><clipPath id="U"><path d="M420 478h7v2.32813h-7zm0 0"/></clipPath><clipPath id="V"><path d="M418 480h3v.32813h-3zm0 0"/></clipPath><clipPath id="W"><path d="M433 477h7v3.32813h-7zm0 0"/></clipPath><clipPath id="X"><path d="M446 479h8v1.32813h-8zm0 0"/></clipPath><clipPath id="Y"><path d="M460 478h7v2.32813h-7zm0 0"/></clipPath><clipPath id="Z"><path d="M460 480h2v.32813h-2zm0 0"/></clipPath><clipPath id="aa"><path d="M144 466h4v2h-4zm0 0"/></clipPath><clipPath id="ab"><path d="M144 452h4v3h-4zm0 0"/></clipPath><clipPath id="ac"><path d="M466 451h2v3h-2zm0 0"/></clipPath><clipPath id="ad"><path d="M144 439h4v3h-4zm0 0"/></clipPath><clipPath id="ae"><path d="M466 439h2v3h-2zm0 0"/></clipPath><clipPath id="af"><path d="M144 425h4v4h-4zm0 0"/></clipPath><clipPath id="ag"><path d="M466 426h2v3h-2zm0 0"/></clipPath><clipPath id="ah"><path d="M144 412h4v4h-4zm0 0"/></clipPath><clipPath id="ai"><path d="M466 412h2v3h-2zm0 0"/></clipPath><clipPath id="aj"><path d="M144 398h4v5h-4zm0 0"/></clipPath><clipPath id="ak"><path d="M466 399h2v3h-2zm0 0"/></clipPath><clipPath id="al"><path d="M144 384h3v6h-3zm0 0"/></clipPath><clipPath id="am"><path d="M466 386h2v3h-2zm0 0"/></clipPath><clipPath id="an"><path d="M144 372h4v4h-4zm0 0"/></clipPath><clipPath id="ao"><path d="M466 373h2v3h-2zm0 0"/></clipPath><clipPath id="ap"><path d="M144 359h4v3h-4zm0 0"/></clipPath><clipPath id="aq"><path d="M466 359h2v3h-2zm0 0"/></clipPath><clipPath id="ar"><path d="M144 346h4v2h-4zm0 0"/></clipPath><clipPath id="as"><path d="M466 345h2v4h-2zm0 0"/></clipPath><clipPath id="at"><path d="M144 332h4v4h-4zm0 0"/></clipPath><clipPath id="au"><path d="M466 332h2v3h-2zm0 0"/></clipPath><clipPath id="av"><path d="M144 320h4v1h-4zm0 0"/></clipPath><clipPath id="aw"><path d="M466 318h2v2h-2zm0 0"/></clipPath><clipPath id="ax"><path d="M465 318h3v3h-3zm0 0"/></clipPath><g id="ay" clip-path="url(#clip1)"><path fill="#fff" fill-opacity="0" fill-rule="evenodd" d="M0 0h1000v1000H0zm0 0"/><path fill="#d3d3d3" fill-opacity="0" fill-rule="evenodd" d="M162.15234 355.86719l-.23437.29297.0586.23437.11718.17188.17578.23437.29297.34766.11328.0586.11719-.17188.0586-.23438.17577-.17578.46485-.17578h.69922l.23437.29297.28906.8164.0586.17579.17578.23046.35156.23438.69922.69922.17188.17578.23437.34765.23438.41016.28906.58203.41015.46485.23047.23437.23438.17578.11719.23047.17578.29297.17187 1.16406v.23438l.0586.28906.05859.11719.11719.11719.34765.41015.11719.17188.17578.17578.17578.23437.11719.17188.17188.35156.05859.23438.23437.40625.23438-.0586-.17578.17578-.0586.92969h-.58203l-.23437-.11328-.34766.11328-.11719.11719-.05859.29297-.0586.17578-.11718.17187-.46484.29297-.0586.23438-.0586.11328v.64453l.0586.17187v.41016l.0586.0586v.40624l.05859.40625.11719.17579.05859.05859.23047.64062-.0586.29297v.69922l-.05859.58203v.23438l-.0586.23047-.05468.35156v1.92187l.05469.1172h.42578l-.36719.11718-.02344.35156.89063 1.16797 1.74219.53906 1.33984.35938v.53906l.08984.8086.53516.71484 1.51953.26953.89063-.08594.08984 1.16406.53516.1797 1.16015-.1797 2.05469-.98437 1.16016-.36328 1.8789-.17578 1.69531-.1797-.17968.71876-1.51563.08594-1.25.08984-.80469.26953-1.07421.8086.26953.71875.53515.89843-.17968.625-.26563.8086.26563 1.07812.625.89844.80468.17969 1.25-.1797-.26562.72267.09766.5039.05468.29297v.17188l.0586.29296v.40625l.17578.1172.35156.11718h.40625l.29297-.17578.11328-.11719.0586-.11719.11718-.23047.0586-.17578.35156-.46484.23047-.17578.17578-.0586.17578.0586.0586.17578.11718.98828.05469.46875.0586.17188.11718.23437.17578.0586.8164.05859h.28907l.11719.23437.05859.40625.0586.35156v1.10547l.11718.29297.11719.34766.28906.69922.17578.35156.58203.7539.35157.17579.17187.0586.46875.23437.64063.46484.34765.23438.29297.17578.29297.05468.23047.0625.8164.34766.29297.17578.11328.17188.35157.35156.11719.17578.52343.64063v.28906l.0586.35156v.34766l.05859.35156.0586.28906.11718.0586.17188.05859h.17578l.58203.23437.17578.1172.17578.28905.17578.23438.11328.23437.29297.23047.11719.11719v.41016l.0586.05468.28906.23438.23437.11719.0586.11718.11718.17188.0586.11719.23047.23437.05859.17578.23437.0586.1172.05859-.1172.11328-.05859.11719v.11719l-.11719.29296-.11719.28907v.58203l.17579.11719.11718.05859.0586.11719.11719.11719.11328.05859.17578.34765.0586.35157.05858.40625v.17578l-.05859.17578-.11719.69922v.17187l.1172.17579.29296.29296h.40625l.17578.1172.11719.17187.11719.29296v.23438h-.52735l-.23047-.23438h-.23437l-.17578.0586-.0586.69922.0586.34765.11719.17579.17578.41015.11718.23047.28907.46875.17578.05469h.52344l.23437.0586.75781.64062.0586.29296v.23438l.05859.0586.23047.34765v.35156l-.11719.17188v.29297l.29297.28906.29297.17578.17187.0586.29297.17577.29297.1172.58203.40624.28906.23438.29297.17578.21875.16015.01563.01172.23047.17579.64062.52343.17578.23438.1172.17578.17577.17578.11328.17188v.64062l.1172.17578.46874.11719.58203.11719.23438.05859.23047.11328.29297.11719.11328.0586.58593.35156.28907.17187.17578.0625.17578.05469.17578.0586.69922.35155.28906.17579.23438.05468.28906.17578.23437.1172.64063.40624.29297.11719.17187.0586.23438.05859.41015.05859.23047.0586.23438.11718.0586.17188-.41017.17578.46875.0586.0586.29296.11328.23438.17578.05468.23438.0586.17578.05859.40625.11719.64062.23437.11719.17188.0586.23437v.17578l-.0586.1172-.0586.40624.23438.23438.11719.05859.34766.11719.64062.23047.17578.11718.28906.1172.17578.17577.23438.46485.58203 1.10546.17578.17579.34766.17578.17578.11719.35156.11718 1.04688.52344.23437.0586.46485.11327.29297.0586.46484.17578.75781.58203.23438.23438.34765.46484.17578.17578.28907.23438.8164.69921.29297.17579.28906.28906.29297.17578.29297.28906.69531.64063.17578.17578.29297.23437.28907.23438.46875.28906.64062.58203.34766.23438.23437.29297.34766.34765.35156.46485.9336.99218.34765.40625.11719.17579.23437.05859.11328.11719.64454.17578.23047.11328.23437.0586.29297.17577.23047.1172.9336.69921.40624.40625.23438.17578.40625.17578.23437.11719.8164.34766.34766.23437.23438.11719.29297.28906.23047.11719.7578.35156.35157.17188.23047.05859.29297.11719.23437.0586.8711.17577h.8164l.46875.23047.17188.0586.875.69921.46484.1172.29297.05858.17578.0586.23047.0586.46875.05859.34766.05859.35156.0586.40625.05859h.29297l.17187.0586v.23046l.17578.17578h.29297l.34766.0586.35156.05859.69922.11719h.64063l.46484-.23438.29297-.17578.17187-.11719.41016-.17187.28906-.17578.9336-.46485.46875-.29297.52343-.29296.46485-.17188.46484-.17578 1.05078-.46485.28906-.11718.41016-.11719.28906-.11719.52735-.17578 1.51562-.69922.58203-.34765.28907-.0586.29297-.0586.34765-.11718.875-.23047.35156-.11719h.11329l.23437-.05859.875-.23437.23438-.0586h.8125l.35156-.0586.8164-.11718.17188-.0586.35156-.05468.29297-.0586.23047-.05859.8164-.17578.17579-.0586h.34765l.23438-.05859.46484-.11718.75781-.17188.23438-.0586h.34765l.41016-.11718.28906-.0586 1.28516-.05859h.28906l.41016-.0586.23047-.05858h.17578l.875-.1172h.40625l.41015-.11718h.34766l.35156-.11328.8711-.0586h1.75l1.04687.28907.41016.11719.28906.11718.35156.11719.28907.11719 1.05078.17187.28906.0586h.29297l.29297.05859.17187.0586.41016.05859.17187.0586.1172.05858h.11718l.11719.0586.35156.0586h.11328l.41016.0664 1.92187.39453 1.92578.39453 1.51953.44922 1.69532.71875 2.14453.80469 1.60547-.71875 1.42968-.80469 1.16016-1.07813 1.25-.44921 3.03516-.71875 1.875-.35938 2.14453-1.34765 2.23437-1.25391 2.5-1.25781 1.69531-.44922 1.78516-.17969 1.16016-.26953.625.53906 1.33984-.26953.71485-.98828.98437-1.34375.44531-.17969.80469-.35937 1.875-.53907 1.78516-.44921 1.25-.26954 1.16015-.08984 1.69922-.08984 1.96094-.26954 1.25-.08984h.53906l.625-.08984h.89063l2.14453-.17969 2.41015-.17969 2.58985-.08984 1.69531.17969 1.60938.08984 1.42968.35938 1.16016.71875 1.875.98828 1.16015 1.52734.26563.71484.6289.08985.35548.89844.53515.53906.53516 1.52734 1.07422.35938h.53515l-.80469.53515.08985 1.70703.71484 2.69532.89063.80468.89453.98829.71484 1.2578 1.78516.53907 1.51953-.17969.35547 1.34375 1.60937-.80469.98047-.53906.26953.26953.31641-.21484.21875-.14453.80078.44922.44922-.35938h.35547l.53515-.26953.53907-.71875.53515-.26953.625-.98828 1.16016.44922.83984.3711 1.39454.61718 1.6953-.17969h1.60548l1.78515.08985.17969-1.70704.53516-1.34375.80468.26954.4922.84765.40233.40625-.08984.53906v.35938l.71485.44922.71093-.26953h1.42969l.35938.98828.4453 1.25781.71485 1.34375 1.25.6289 1.69531.62891.71485-.17969.17969-.53906.98046-.08984.44922.35937.08594 1.25782-.26563.6289-.53515.17969v.53906l.71484.98438.26563.53906.98437.98828.80078 1.07813-.26562.35937-.08985.89844-.625 2.33203-.35546 2.0664-.08985 1.79298-.17969.71875-.08984.53906v1.4375l-.98047 1.88281-.35937 1.70703-.53516.89844-.80469 1.16797-.26562.53906 2.05469 1.2539.08593.35938-.35546.53906-.08985-.17968v.80859l.08985 1.4375-.44532.71484-1.07422.09375-.26562.71485.53515.89844.8047.71875 1.16015.80859 1.33984.26953.44531.35938-.35546.44921-1.78907-.08984-1.25-.44922-.71484-.71875-.625-.08984-.17578 3.58984-.1875 1.3086h89.35937V311.70313h-55.26953v49.08203l.76172.125 3.28906.54296 2.02344 2.83594v2.7539l2.35156.33204 2.34766.33203h4.05078l-1.3789 4.16016-2.02344.70703-2.02344.70312-.54297.34375-2.59375 1.6172-.1875.11718-2.02344-2.07813-.73046-2.74218-2.67188-2.07813-1.375-3.5-.0664-.08203-1.95704-2.67188 2.75-1.41796v-49.08204H294.42187v91.41407l.1172.03125.1328.01172.07422.07421.10547.04688.08985.0586.08593.05859.08985.0586.29687.29687.0586.08984.03125.11719.02734.11719.01563.13671-.03125.1172-.0586.08983-.0586.08594-.04296.10547-.04688.10156-.02734.1211v.14453l.17578.26953.14844.14844.07422.08594.07422.07421.04296.10547.0625.08985.0586.08593.04297.10547.0586.08985.04687.10156.04296.10547.0586.08594.11719.17968.07421.07422.0625.08594.0586.08984.04297.10547.0586.08985.05858.08593.0625.08985.0586.08984.04297.10156.11719.17969.07421.07422.0586.08594.07422.07421.08984.0586.10547.04687h.14844l.1328-.01562.13282.01562.10156-.04687.07422-.07422.04688-.10156-.01563-.13281v-.14844l-.04687-.10547-.02735-.11719-.04687-.10156-.02735-.1211-.04296-.10156-.0625-.08984-.04297-.10156-.04297-.10547-.03125-.11719-.01563-.13281-.01171-.13672.08593-.0586.0586-.08593.12109-.03125.04297.10547.01562.1328v.1172l.0586.10156.0586.08984.08983.0586.14844.14843.0586.08985.04296.10547-.01171.10156.08593.0586.10547.04687.08594.0586.08984.05858.07422.07422-.11719.02735-.10546.04687-.08594.0586-.07422.07421-.0586.08985-.0625.08594-.02734.12109-.04687.10156-.04297.10547-.03125.11719-.01172.13281-.01563.13281v.14844l.02735.11719.04687.10547.04297.10156.0586.08984.07421.07422.08985.0586.07422.07421.08984.0586.0586.08984.04296.10547.04688.10156.11719.03125.1328.01563h.14845l.11718-.03125.10547.04297.04297.10547.04688.10156.02734.1211L299.5 410l.02734.11719.03125.1211.02735.11718.10547.04297.10156.04687.13281-.01562.14844.14844.0625.08593.07422.07422.07031.07422.08984.0625.10547.04297.10156.04297.1172.03125.13671.01562.11719-.03125.07422-.07422.02734-.11718-.01172-.13282-.03125-.12109-.02734-.11719.04297-.10547h.11719l.08984.0625.11719.02735h.14843l.13282.01562h.14843l.13282.01563.1328-.01563h.14845l.1328-.01562.13282-.01172.13672.01172.11719-.02735.13281-.01562.1914-.0586-.05859.17579-.01562.1328-.02735.1211-.01562.13281-.0586.08594-.1328.01563-.10548.04687-.10546.04297-.1172.03125-.11718.02735-.26563.03125h-.14843l-.13281.01562-.07422.07422.05859.08594.14844.14843.11719.1797.07421.0703.08985.0625.08984.0586.08594.0586.08984.05858.10156.04297.10547.0625.10547.04297.08594.0586.10547.04687.10156.04297.17969.11719.0586.08984-.04298.10156-.04687.10547.01562.13281.22266.22266.0586.08985.04296.10156.03125.1211.04297.10155.01563.13282.03125.11718.01171.13672.03125.11719.14844.14844.10156.04297.10547.04296.1172.03125.1328.01563.13672.01563h.11719l.11719-.03125.08984-.0586.04297-.10547.04688-.10156.04296-.10547.03125-.11719.01172-.1328v-.14845l-.01172-.1328-.01562-.13282-.03125-.11719-.04297-.10547-.04688-.10547-.04296-.10156-.04297-.10547-.01563-.13281.01563-.13281.02734-.11719.03125-.11719.02735-.1211.04687-.10155.08984-.0586.08594-.0625.07422-.07422.08984-.05859.22266-.22266.0586-.08593.07421-.07422.11719-.17969.0586-.08594v-.14844l-.07423-.07421-.10156-.04688-.10547-.04297-.10156-.04297-.0586-.08984-.04687-.10547-.02734-.11719.08984-.05859.11719-.03125.10156-.04297.17969-.11719.14844-.14843.01172-.13282-.01172-.10546-.08985-.0586-.1328.01563h-.14845l-.1328.01562-.13282-.01562-.1211-.03125-.08593-.0586-.07422-.07422-.0586-.08984-.0625-.08594-.11718-.17969-.0586-.08593.03125-.1211.08594-.05859.1211-.03125.05859-.08594v-.1211l-.03125-.11718-.0586-.08984-.05859-.08594-.04687-.10547-.02735-.11719-.01562-.1328.0586-.08985.07421-.07422.08984-.0586.1172-.17968.07421-.07422.0586-.08594.14843-.14844.1211-.03125.1328-.01562.13282.01562.07422.07422.04297.10547.01562.13281-.03125.1172-.11719.03124-.1328.01172-.14844.14844-.04297.10547-.04688.10156-.02734.1211-.03125.11718v.14844l.03125.11719.04297.10546.05859.08985.07422.07031.07422.07422.11719.03125.12109.02734.11719-.02734.1328-.01563h.1172l.08984.0586.07422.07422.04687.10546.0586.08594.10156.04688.13281.01562.10547.04297.08594.0586-.01172.10546-.07422.07422-.17969.11719-.05859.08984-.08984.0586-.07032.07422-.07421.07421-.0625.08985-.02735.11719-.01562.1328.01562.13282-.01562.13281v.14844l.01562.13281.02735.1172.03125.12108.07421.07422.08985.0586.08594.0586.08984.05858.11719.03125v.08594l-.10157.04688-.08984.0586-.26563.03124-.11718.02735h-.14844l-.10547.04296-.10156.04688-.0586.08984-.0625.23438-.01171.13281-.03125.1211-.01563.1328v.29298l-.01172.1328.01172.13673.01563.1328.1328.01563.13282.01172.1211.03125.08593.0586.07422.07421.04688.10547.04296.10157.01563.1328v.44532l-.01563.13281v.44532l.03125.26562.02735.11719.01562.13281.03125.11719.08594.21094.03125.26562v.14844l-.03125.11719-.02734.11718-.03125.1211-.02735.11719-.03125.11718-.03125.1211-.01171.1328-.01563.13282.08984.0586.1172-.03125.10155.01562.04688.10547-.03125.26562v.44141l-.04297.10547-.04688.10547-.04296.10156-.04297.10547-.0586.08594-.03125.12109-.04296.11719-.03125.11719-.01563.1328.01563.13282.05859.08984.10547.04688.08594.0586.05859.08593-.01172.13672-.03125.11719-.04297.10156v.44531l-.01562.13281v.14844l-.03125.11719-.04297.10547-.02735.11719-.04687.10546-.04297.10157-.03125.12109-.02734.11719-.03125.13281-.03125.11719-.02735.11719-.04297.10546-.03125.1172-.03125.12108-.01171.13282-.01563.13281v.29688l.02734.11718v.14844l.04688.39844.02734.11719.0586.08984.12109.03125h.14844l.13281-.01563.0586.08985v.11719l-.0586.08984-.08984.0586-.10157.04296-.10546.04688-.08985.05859-.08594.0586-.13671.01562-.1172-.03125-.1328-.01563-.10157.04688-.0625.08594-.01172.13671-.01562.13282-.03125.11719-.02735.11718-.01562.13281-.03125.1211v.29687l.01563.13282.03125.11718v.14844l.01171.13281v.14844l-.02734.11719-.04688.10156-.02734.1211-.03125.11718-.0586.08985-.07421.07421-.10156.04297-.10547.04688-.11719.02734-.1211.03125-.10156-.04687.0586-.08594.10547-.04688.02734-.11718.03125-.11719.02734-.1211.03125-.11718v-.14844l.01563-.13281-.03125-.11719-.04297-.10547-.10547.01563-.07422.07422-.10156.04296-.08984.0625-.07422.07422-.04297.10157-.01563.1328-.03125.1172L304.25 426l-.03125.11719-.02734.11719-.03125.12109-.02735.11719-.03125.11718-.04297.10547-.08984.0586h-.08984l-.1172-.03125-.03124-.08594.01562-.13672-.03125-.11719v-.14844l-.01171-.1328v-.14844l-.0625-.23438-.02735-.1211-.04297-.10156-.04687-.10546-.0586-.08594-.05859-.08985-.04297-.10546-.0625-.08594-.14844-.14844-.0703-.07422-.10548-.04687-.10547-.04297-.10156-.04297-.29687-.29688-.08985-.07421-.08594-.0586-.10546-.04297-.08985-.0625-.08594-.0586-.10546-.04296-.08985-.0586-.08594-.0625-.07421-.0703-.10547-.04688-.08594-.0586-.10547-.04296-.08984-.0625-.10156-.04297-.10547-.04297-.08594-.0586-.10547-.04687-.10547-.04297-.10156-.04687-.08985-.0586-.10156-.04297-.10547-.04296-.08984-.0625-.11719-.02735-.13281-.01562-.13281.01562H299.75l-.13281.01563-.11719-.03125-.08984-.0586-.07422-.07422-.08985-.05859-.10156-.04688h-.14844l-.12109-.02734-.10156-.04297-.07422-.07422-.11719-.17968-.08984-.0586-.10156-.04297-.08985-.0625-.10547-.04296-.08984-.0586-.08594-.0586-.10547-.04687-.0586-.08594-.05858-.08984-.04297-.10547-.04688-.10156-.07422-.07422-.08594-.0586-.07421-.07421-.08985-.0586-.22265-.22265-.04297-.10547-.03125-.26563.10547-.04296h.14453l.10547.04296.07421.07422.08985.0586.08594.0586.10546.04687.08985.05859.14844.14844.0703.07422.14845.14843.0625.08594.07421.07422.08594.0586.07422.07421.08985.0625.08984.0586.08594.05859.26953.17578.10156.04688.10547.04296.10156.04297.04688-.07421.05859-.08594.07422-.07422.07031-.07422.10547.04297.07422.07422.0586.08984.04296.10156.04688.10547.04296.10547.1211.02735.11719-.02735.07421-.08984.04297-.10547.0586-.08985.07422-.07421.10546-.04297.1172-.02735.1328.01172.08985.0586.14844.14843.05859.08985.04297.10547.04687.10156.04297.10547.04297.10156.10547.04688.10547.04296.13281.01563.08594-.0586.0586-.08984.07421-.07422.10547-.04297.11719.02735.10547.04687.10156.04297.10547.04297.10156.04688.17969.11718v.11719l-.01563.13281.01563.13281.01562.13672.0586.08594.10156.04688.1211.02734.11718.03125h.14844l.11719-.03125.05859-.08984.17969-.1172.05859-.08983.07422-.07422.0586-.08594.11718-.17969.17969-.11719.11719.03125.08984.0586.04297.07422-.01563.1328v.1172l.08985.05859h.14843l.13282-.01563.1328-.01171.26563-.03125.10547-.04297.11719-.03125.1211-.02735.07421-.07421.07031-.07422.0625-.08985-.01562-.10547-.04688-.10156-.10156-.04297-.10547-.01562-.11718.02734-.26563.03125h-.14844l-.07421-.07422-.08985-.0586-.11719-.03124-.11718-.02735-.13282-.01562h-.14843l-.13282.01563h-.29687l-.10547-.04688-.14844-.14844-.04297-.10156-.05859-.08984.22266-.22266.08593-.0586.10547-.04296.11719-.03125.13281-.01563.13281.01563.13672.01562.10157.04297.1328-.01172.08985-.0625.10156-.04297.0625-.08984-.04687-.10156-.08984-.0586-.1172-.03125-.10155-.04296-.0586-.08985-.0625-.08984v-.11719l.01563-.13281.10547-.04688.07421-.07031v-.1211l-.08984-.05859-.03125-.11719.08985-.05859.07421-.07422.04297-.10547.0586-.08984.04687-.10156.01563-.13281v-.14844l-.04688-.10547-.04297-.10156-.08984-.0586-.13281-.01562-.10157-.04297-.13671-.01563-.1172-.03125h-.4453l-.13282-.01562-.13281-.01172-.13281-.01563-.11719-.03125h-.14844l-.13281-.01562-.13281-.01172-.26563-.03125-.1211-.04297-.08593-.0586-.07422-.07421v-.14844l.01172-.13281.10547-.04688.10156-.04296.13281-.01563h.15235l.13281-.01562h.29297l.1211.03125.10156.04296.08984.0586.23438.0625.12109-.04688.08984-.05859.10156-.04297.13282-.01562.10547.04296.10156.04688.13281.01172.1211-.02735h.14453l.12109-.03125.11719-.02734.10547-.04687.07421-.07422.08594-.0586.14844-.14843.0586-.08594.04687-.10547.02734-.11719.01563-.10547-.10156-.04296-.08985-.0586-.11719-.03125-.10546-.04297-.08985-.0625-.07422-.08594-.07422-.07421-.10156-.04297-.10547-.04688-.10156-.04297-.0586-.08984-.04687-.10156-.08594-.21094-.0625-.08594-.05859-.08984-.07422-.07422-.08594-.0586h-.26953l-.11719.03126-.08984.05859-.10156.04297-.13281.01562-.10547-.01562-.02735-.11719-.0625-.08984-.11718-.03125-.10157-.04297-.14843-.14844-.03125-.11719-.01563-.10546.07422-.07422.17969-.1172.11719-.02733.11718-.03125.13672.01562.10156.04297.10547.04297.10156.04687.10547.04297.1172.03125.1328.01563.1172.02734.1328.01563.10547-.01563.08985-.0586-.07422-.07421-.10547-.04297-.07422-.07422-.07422-.08984-.14844-.14844-.08593-.0586-.08985-.05859-.07422-.07422-.08984-.0586-.10156-.04687-.1211-.02734-.10156-.04688-.10547-.04296-.11719-.03125-.10156-.04297-.1211-.03125h-.14843l-.11719.03125-.10546.04297-.08594.0625-.17969.11718-.08594.0586-.08984.0586-.10547.04687-.08594.05859-.10547.04297-.10156.04297-.10547.04687-.07422.07422-.05859.08985-.0586.08593-.04687.10547-.0586.08594-.07421.07422-.13281-.01172-.1172-.03125h-.11718l-.07422.07422-.08984.0586-.07422.07421-.08984.0586-.08594.05859-.10547.04687-.10156.04297-.13672.01563-.10156-.04297-.14844-.14844-.10547-.04688h-.08594l-.10547.04688-.10156.04297-.1211.03125-.11718-.03125-.07422-.07422v-.11719l.03125-.1211.07422-.0703.0586-.08985.07421-.07422.11719-.03125.10547-.04296h.29297l.13281-.01563.13672-.01563.10156-.04296.08985-.0586.10156-.04687.08984-.0586.13281-.01171.08985.05859.13281.01172.08984-.0586.08594-.05859.10547-.04297.08984-.0586.08594-.0625.08985-.05859.14843-.14843.0586-.08594.05859-.08985.10547-.04296.13281-.01563.11719.02735.1211.03125.05859-.0586.05859-.08984.03125-.26563.02734-.11719.10547.01172.13281.01563.10157-.04297.08984-.0586.0586-.08984.07421-.07422.0586-.08984.04687-.10156.01172-.13281-.01172-.13282-.04687-.10547-.14844-.14843-.0586-.08985-.05859-.08594-.04297-.10546v-.44532l.01563-.1328v-.14845l.01172-.1328-.0586-.0586-.08984.0586-.10156-.04298-.17969-.11719-.08594-.05859-.0625-.08984-.0586-.08985-.07421-.07421-.08594-.0586-.1211.03125-.10155.01172-.10547.04688-.08594.05859-.10547.04297-.14844.14844-.08984.05859-.08594.0586-.08984.0625-.10547.04296-.13281.01563v-.1211l.10547-.04297.11718-.03125.07422-.0703.04297-.10548v-.14844l-.02734-.11718-.14844-.14844-.13281-.01563h-.14844l-.11719.03125-.10547.04297-.10156.04297-.08984.0625-.11719.02735-.07422-.07422.01172-.13281-.04297-.10157-.04297-.10547-.08984-.05859-.11719.02734-.1211.03125-.11718.03125-.10156.04297-.1211.03125-.10156.04297-.10547.04297-.08984.0586-.10156.01562v-.11719l.01562-.13281-.0586-.08985-.07421.04297-.14844.14844-.0586.08985-.07421.07421-.04688.10547-.04296.10156-.07422.07422-.0586.08985-.07422.07422-.05859.08593-.07422.07422-.08984.0625-.07422.07031-.07422.07422-.10156.01563-.13281.01562-.10547-.04296v-.1211l.14843-.14844.04297-.10156.0586-.08984.04687-.10156.04297-.10547.0586-.08985.03124-.11719.04297-.10156.03125-.1211.02735-.11718.04687-.10547.04297-.10156.04297-.10547.07422-.07031.08984-.0625.08985-.0586.10156-.04296h.29687l.26563-.03125.10547-.04297-.07422-.07422-.11719-.03125-.10547-.04297-.08984-.0586-.10156-.04687-.08985-.0586-.10156-.04296-.10547-.04297-.08984-.0625-.08594-.0586-.10547-.04296-.10156-.04297-.1211-.03125-.11718-.03125-.10157-.04297L297.5 410.25l-.10156-.04297-.08985-.0586-.04296-.10546-.01563-.13281.10156-.04297.13281-.01563.13672.01563.13282-.01563.10156-.04297.0586-.08984.01562-.10547-.08985-.0586-.07421-.07421-.10157-.04297-.08984-.0586-.14844-.14843-.04297-.10547-.01562-.13281v-.29297l-.0586-.08985-.08984-.05859-.07422-.07422-.04297-.10547-.03125-.11718-.0586-.08985-.07421-.07422-.11719-.02734-.07422-.07422-.08984-.0586-.08984-.0625-.08594-.05859-.07422-.07421-.0586-.08594-.04687-.10547-.08594-.0586-.14843-.14843-.19532-.0586-.1328.01563-.10157.04297-.07422.07422-.04688.10156-.04296.10547-.0586.08984-.0586.08594-.29687.29687-.08984.0586h-.08594l-.0625-.08594-.04297-.10547.03125-.11719.0586-.08984.02734-.11719-.01172-.13281-.08984-.0625-.10547.04688-.11719.02734-.11719.03125-.26953.17578-.10156.04688-.11719.02734-.10546.04687-.08985.0586-.10156.04297-.0586-.08594-.04687-.10547.01563-.13281.04687-.10547.07031-.07422.07422-.07031.0586-.08985v-.14843l-.04297-.10547h-.23829l-.10156.04687-.03125.11719-.02734.11719-.03125.1211-.07422.04296-.13281.01563-.07422-.04688-.04297-.10156-.04297-.10547-.04687-.10156-.04297-.10547-.1211.03125-.10156.04297-.13281.01562-.11719.03125-.10547.04297-.08984.0586-.10156.04687-.1211.02734-.13281.01563-.10156-.04297-.0586-.08985-.04687-.10546-.04297-.10157-.04297-.10546v-.1172l.0586-.08984.08593-.05859.17969-.11719.10156-.04687.10547-.04297.10547-.0586.10156-.04296.08985-.0625.10156-.04297.10547-.0586.10156-.04687.08984-.0586.10547-.04296.10156-.04297.08985-.0625.10156-.04297.13672-.01563.11719.03125.10156.04297.1211.03125.10156.04297.10546.04688.10157.04296.10547.04297.10156.04688.10547.04297.10156.04297.10547.04687.08594.0586.10546.04296.1172.03125.10546.04297.10156.04688.08985.0586.10547.04296.10156.04297.10547.04687.11719.02735.10156.04687.1211.02735h.14843l.08594-.0586.01562-.10156.0586-.08984-.02735-.1172-.07422-.07421-.11719-.17969-.07421-.07422-.08985-.07421-.17969-.1172-.08593-.05859-.10547-.04296-.10156-.04688-.26954-.17578-.05859-.08985-.07422-.07421-.0586-.08985-.04296-.10156-.03125-.11719-.01563-.13672v-.5625l-.01171-.1328-.01563-.13282-.03125-.11719-.01562-.13281-.01172-.13281-.03125-.1211-.22266-.22265-.0586-.08594-.01562-.10547.03125-.11719.13281-.01562v-91.41406H172.9922v1.45312l-.0586.23438-.35156 1.05078-.17187.52343-.1172.34766-.17577.41016-.11719.17187-.23438.29297-.23046.0586h-.35157l-.11718.05859-.23047.40625v.29297l.11719.17578.23046.23047.1172.23437.64062.75781.29297.46485.17578.23437.23047.35156.23437.34766.64063.8164.17578.46485.17187.41016.11719.69531.17578.46875.11719 1.39844.0586.46484v.875l.11718 1.04688v4.78125l-.0586.46484-.35156 1.28125-.17578.52344-.11328.41015-.35156.9297L172.93359 336l-.23437.58203-.11719.17578-.17187.34766-.17578.40625-.35157.8164-.0586.29297-.11327.29297-.11719.28906-.0586.17579-.11718.875-.0586.40625-.05859.11718-.0586.17579-.05859.17187-.23047.52734-.11718.17188v.23437l-.11719.23438-.0586.17187-.17577.58594v.28906l-.0586.17579v.29296l-.0586.11329-.05859.52734v.17187l-.05468.23438v2.6211l-.17578.8164-.1172.17578-.17577.23438-.1172.17187-.11327.23438-.58594.93359-.23047.28906-.29297.46485-.17578.23437-.28906.35156-.35156.69922-.11328.23047-.17579.41016-.17578.23046-.40625.52735-.8164.69922-.29297.17187-.28906.23438-.17579.11719-.17578.17578-.52344.40625-.52734.17578-.17187.17578-.23438.05469-.64062.17578h-.75782m12.21094 31.02344l-1.07422.44921.35938.89454 1.25-.71485.44531-.53906-.98047-.08985"/><path fill="#d3d3d3" fill-opacity="0" fill-rule="evenodd" d="M201.50781 416.59766h-.89453l.44922.6289.98047.35938.80469-.08985.4453-.98828-.17577.08985-.71485-.35547-.89453.35547m154.6211 59.0703l-.0586-.52343v-.29297l.11328-.29297.0586-.23046.46875-.46875h.11328l.11719-.11329.11718-.05859h.17579l.23437-.0586h.34766l.23437.0586.11719.0586.23047.17187.0586.17578.11718.58203v.29297l-.11719.17578-.17187.28906-.17579.17579-.52734.52343-.23047.23438-.11719.0586h-.17578l-.11718-.0586-.40625-.29297-.17579-.11719-.11718-.0586-.0586-.11327-.05468-.1172m6.64062-10.95702l-.0586-.17188v-1.10937l.0586-.17188.17578-.0586.17188-.05858h.17578l.23437-.0586.1172.0586.05858.69921-.05859.17188-.11719.17578-.11718.0586-.23438.52343-.11328.0586h-.23438l-.05859-.1172m9.61328-14.39062l-.11719-.17578v-.69922l.29297-.875.1172-.17187.17577-.35156.11328-.23047.1172-.29297.35155-.75781.1172-.23047.17187-.23438h.17578l.11719-.0586h.64062l.11719.0586.23437.23438.17188.11328.35156.29297.11719.11718.11328.17579v.11328l.11719.05859.11718.11719v.69922l-.05859.17578v.23047l-.0586.17578-.34765 1.05078-.11719.23047-.11719.23437-.11718.0586-.23047.23437-.64063.28906h-.875l-.41015-.11718-.64063-.46485"/><path fill="none" stroke="#bebebe" stroke-linecap="round" stroke-linejoin="round" stroke-miterlimit="10" stroke-width=".5" d="M467.95703 311.69531H144.02734v168.625h323.9297v-168.625"/><g clip-path="url(#a)"><path fill="#fff" fill-opacity="0" fill-rule="evenodd" d="M144 475.89063v4.4375h.0039H144v-41.6836 37.2461"/></g><g clip-path="url(#b)"><path fill="#fff" fill-opacity="0" fill-rule="evenodd" d="M144 431.50781v2.41797-122.2539h.0039H144V431.5078"/></g><path fill="#50fcfc" fill-rule="evenodd" d="M144 433.92578v4.71875h.0039v-4.71484l-.0039-.0039"/><g clip-path="url(#c)"><path fill="#fff" fill-opacity="0" fill-rule="evenodd" d="M144.0039 480.32813v-41.6836l2.13282-2.69922-2.13281-2.01562V311.67188h71.01172v110.61718l-.39454.33985-4.04687 3.26562-4.4375-.66406-4.4375.11719-4.4375-.3672-4.4414.4961-4.4375-.52344-4.4375 1.01563-4.4375-.88672-4.44141.7461-2.87891 1.24218-1.5586.96875-4.4375 1.10547-4.10156 2.36328-.33593.69531-1.26953 3.7422-2.19141 4.4375.30469 4.4375-.57813 4.4414.24219 4.4375 1.77734 4.4375 1.71485 2.46484 3.10937-2.46484 1.32813-.51172 4.4375-.32422 4.4375.78516.375.05078 4.0664.875 4.4375 1.21094 3.78125-2.08594.65625-.83594 4.4375-.98828 4.4414-.30078 4.4375-.01953 4.4375.65234 4.4375-1.10547 4.44142-.78906 1.1289-1.05078 3.3086-4.33594.2578-.10156-.2578-.17578-4.4375-1.17578-4.44141-.89844-4.15234-2.1914.7539-4.4375 3.39844-1.64454 4.4414-2.54687.32032-.2461.76172-4.4375 3.35547-2.17969 4.4375-.46093 1.6914 2.64062 2.7461 2.17188 1.29687 2.26562 3.14063 3.07031 4.4414-1.86718 1.38281 3.23437 3.0547 2.36719 3.13671-2.36719-3.13672-2.60937-3.58203-1.82813-.85547-1.07812-4.4414-2.26953-2-1.08985-2.4375-2.61328-2.77344-1.82422-1.66406-2.21875-4.4375-1.03906-3.53516-1.1836-.90234-.33984V311.67187h159.77734V448.5586l-.73438.70313.73438.64844.64844-.64844-.64844-.70313V311.67188h93.20312v168.65625h-73.77734l-1.67188-2.44922-4.4375-.79688-3.92578-1.1914 3.76954-4.4375.15625-.08594 2.24609-4.35156-2.2461-4.32422-.0664-.1172.0664-.48827 1.22657-3.94922-1.22656-1.50781-2.25782-2.9297-2.17969-1.32812-1.0703 1.32813-1.31641 4.4375-1.3711 4.4375 3.38281 4.4414-1.16796 4.4375 1.34765 4.4375.19531 1.20704.50391 3.23046H144.00391"/></g><path fill="#50fcfc" fill-rule="evenodd" d="M146.13672 435.94531l-2.13281 2.69922v-4.71484l2.1328 2.01562m12.125 17.7539l-.24218-4.4375.57813-4.4414-.3047-4.4375 2.19142-4.4375 1.26953-3.74219.33593-.6953 4.10157-2.36329v7.88672l-2.77344 3.35156-1.66406 3.47266-.30078.96484-1.51954 4.4414.21485 4.4375 1.60547 2.53517 4.4375-1.92188 4.4375-.57422 4.4375.21875.47265-.25781-.47265-.83594-1.53125-3.60156-2.90625-3.9375-4.4375-.09375-2.69922-.41016 2.69922-.91015 4.4375.34375 1.92968-3.8711-1.92968-3.3164-4.4375-.03516v-7.88672l4.4375-1.10547 1.55859-.96875 2.8789-1.24219 4.44141-.74609 4.4375.88672 4.4375-1.01563v8.84375l-1.73437 2.14844 1.73437 2.14453 4.17188-2.14453-4.17188-2.14844v-8.84375l4.4375.52344v3.61719l-2.07031 2.41406 2.07031 4.15235v.60937l-1.91015 4.11328 1.91015 1.34766 1.32813-1.34766-1.32813-4.11328v-.60937l2.34375-4.15235-2.34375-2.41406v-3.61719l4.4414-.4961 4.4375.3672 4.4375-.1172 4.4375.66407 4.04688-3.26562.39453-.33985.90235.33985 3.53516 1.18359 4.4375 1.03906 1.66406 2.21875 2.77344 1.82422 2.4375 2.61328 2 1.08985v2.9414l-.37891.40625.3789.3711.60547-.3711-.60547-.40625v-2.9414l4.44141 2.26953.85547 1.07812 3.58203 1.82813 3.13672 2.60937-3.13672 2.36719-3.05469-2.36719-1.3828-3.23437-4.44142 1.86719-3.14062-3.07032-1.29688-2.26562-2.74609-2.17188-1.6914-2.64062-4.4375.46094-3.35547 2.17968-.76172 4.4375-.32031.2461-4.44141 2.54687-3.39844 1.64453-.7539 4.4375 4.15234 2.1914 4.4414.89845 4.4375 1.17578.25782.17578-.25781.10156-3.3086 4.33594-1.1289 1.05078-4.44141.78906-4.4375 1.10547-4.4375-.65234-4.4375.01953-4.4414.30078-4.4375.98828-.65626.83594-3.78125 2.08594-4.4375-1.21094-4.0664-.875-.375-.05078-4.4375-.78516-4.4375.32422-1.32813.51172-3.10937 2.46484-1.71485-2.46484-1.77734-4.4375"/><path fill="#00e8fc" fill-rule="evenodd" d="M160.14844 453.69922l-.21485-4.4375 1.51953-4.4414.30079-.96485 1.66406-3.47266 2.77344-3.35156 4.4375.03516 1.92968 3.3164-1.92968 3.8711-4.4375-.34375-2.69922.91015 2.69922.41016 4.4375.09375 2.90625 3.9375 1.53125 3.60156.47265.83594-.47265.25781-4.4375-.21875-4.4375.57422-4.4375 1.92188-1.60547-2.53516"/><path fill="#fff" fill-opacity="0" fill-rule="evenodd" d="M188.38281 433.79688l-1.73437 2.14843 1.73437 2.14453 4.17188-2.14453-4.17188-2.14844m4.4375-4.70312l-2.07031 2.41406 2.07031 4.15235 2.34375-4.15235-2.34375-2.41406m0 7.17578l-1.91015 4.11328 1.91015 1.34766 1.32813-1.34766-1.32813-4.11328"/><path fill="#00e8fc" fill-rule="evenodd" d="M232.76563 436.3164l-.37891-.37109.3789-.40625.60547.40625-.60547.3711"/><path fill="#50fcfc" fill-rule="evenodd" d="M374.79297 449.91016l-.73438-.64844.73438-.70313.64844.70313-.64844.64844"/><g clip-path="url(#d)"><path fill="#50fcfc" fill-rule="evenodd" d="M383.29688 467.01563l-3.38282-4.44141 1.3711-4.4375 1.3164-4.4375 1.07031-1.32813 2.1797 1.32813 2.2578 2.92969 1.22657 1.5078-1.22656 3.94923-.06641.48828.0664.11719 2.2461 4.32421-2.2461 4.35157-.15625.08594-3.76953 4.4375 3.92579 1.1914 4.4375.79688 1.67187 2.44921h-10.04297l-.5039-3.23046-.19532-1.20704-1.34765-4.4375 1.16796-4.4375"/></g><g clip-path="url(#e)"><path fill="#fff" fill-opacity="0" fill-rule="evenodd" d="M467.9961 480.32813H468V311.67188h-.0039H468v168.65625h-.0039"/></g><path fill="#fff" fill-opacity="0" fill-rule="evenodd" d="M218.60156 431.95313l5.26172 2.53125 4.32031-8.97266-5.26562-2.53516-4.3164 8.97656"/><path fill-rule="evenodd" d="M225.27734 426.14453l.46094.22266-2.73047 5.67187-.71094-.34375 1.94922-4.04297-1.2539-.60156.24219-.5.53125.1836.2539.05859.24219.01953.2461-.03906.24609-.11328.2578-.20313.26563-.3125"/><g clip-path="url(#f)"><path fill="none" stroke="#000" stroke-linecap="round" stroke-linejoin="round" stroke-miterlimit="10" stroke-width=".5" d="M147.51172 480.48047l-7.02344-.30469"/></g><g clip-path="url(#g)"><path fill="none" stroke="#000" stroke-linecap="round" stroke-linejoin="round" stroke-miterlimit="10" stroke-width=".5" d="M147.51172 480.48047l1.05469 2.21484"/></g><g clip-path="url(#h)"><path fill="none" stroke="#000" stroke-linecap="round" stroke-linejoin="round" stroke-miterlimit="10" stroke-width=".5" d="M160.82422 480.48828l-7.01953-.32031"/></g><g clip-path="url(#i)"><path fill="none" stroke="#000" stroke-linecap="round" stroke-linejoin="round" stroke-miterlimit="10" stroke-width=".5" d="M160.82422 480.48828l1.05469 2.21875"/></g><g clip-path="url(#j)"><path fill="none" stroke="#000" stroke-linecap="round" stroke-linejoin="round" stroke-miterlimit="10" stroke-width=".5" d="M174.14453 480.26563l-7.02734.1289"/></g><g clip-path="url(#k)"><path fill="none" stroke="#000" stroke-linecap="round" stroke-linejoin="round" stroke-miterlimit="10" stroke-width=".5" d="M174.14453 480.26563l1.1914 2.14453"/></g><g clip-path="url(#l)"><path fill="none" stroke="#000" stroke-linecap="round" stroke-linejoin="round" stroke-miterlimit="10" stroke-width=".5" d="M173.1211 480.28125l.59374 1.07422"/></g><g clip-path="url(#m)"><path fill="none" stroke="#000" stroke-linecap="round" stroke-linejoin="round" stroke-miterlimit="10" stroke-width=".5" d="M187.45703 480.23438l-7.02344.1875"/></g><g clip-path="url(#n)"><path fill="none" stroke="#000" stroke-linecap="round" stroke-linejoin="round" stroke-miterlimit="10" stroke-width=".5" d="M187.45703 480.23438l1.21094 2.13671"/></g><g clip-path="url(#o)"><path fill="none" stroke="#000" stroke-linecap="round" stroke-linejoin="round" stroke-miterlimit="10" stroke-width=".5" d="M200.77344 480.3164l-7.02735.02735"/></g><g clip-path="url(#p)"><path fill="none" stroke="#000" stroke-linecap="round" stroke-linejoin="round" stroke-miterlimit="10" stroke-width=".5" d="M200.77344 480.3164l1.16015 2.16016"/></g><g clip-path="url(#q)"><path fill="none" stroke="#000" stroke-linecap="round" stroke-linejoin="round" stroke-miterlimit="10" stroke-width=".5" d="M214.07422 480.0039l-6.9961.64844"/></g><g clip-path="url(#r)"><path fill="none" stroke="#000" stroke-linecap="round" stroke-linejoin="round" stroke-miterlimit="10" stroke-width=".5" d="M214.07422 480.0039l1.34766 2.05079"/></g><g clip-path="url(#s)"><path fill="none" stroke="#000" stroke-linecap="round" stroke-linejoin="round" stroke-miterlimit="10" stroke-width=".5" d="M227.38281 479.92578l-6.98437.80469"/></g><g clip-path="url(#t)"><path fill="none" stroke="#000" stroke-linecap="round" stroke-linejoin="round" stroke-miterlimit="10" stroke-width=".5" d="M227.38281 479.92578l1.39063 2.02344"/></g><g clip-path="url(#u)"><path fill="none" stroke="#000" stroke-linecap="round" stroke-linejoin="round" stroke-miterlimit="10" stroke-width=".5" d="M240.64844 479.63281l-6.88672 1.39453"/></g><g clip-path="url(#v)"><path fill="none" stroke="#000" stroke-linecap="round" stroke-linejoin="round" stroke-miterlimit="10" stroke-width=".5" d="M240.64844 479.63281l1.5586 1.89453"/></g><g clip-path="url(#w)"><path fill="none" stroke="#000" stroke-linecap="round" stroke-linejoin="round" stroke-miterlimit="10" stroke-width=".5" d="M254.00781 479.90234l-6.97656.85547"/></g><g clip-path="url(#x)"><path fill="none" stroke="#000" stroke-linecap="round" stroke-linejoin="round" stroke-miterlimit="10" stroke-width=".5" d="M254.00781 479.90234l1.40625 2.00782"/></g><g clip-path="url(#y)"><path fill="none" stroke="#000" stroke-linecap="round" stroke-linejoin="round" stroke-miterlimit="10" stroke-width=".5" d="M267.32422 479.92578l-6.98047.80469"/></g><g clip-path="url(#z)"><path fill="none" stroke="#000" stroke-linecap="round" stroke-linejoin="round" stroke-miterlimit="10" stroke-width=".5" d="M266.3086 480.04297l.69921 1.01172"/></g><g clip-path="url(#A)"><path fill="none" stroke="#000" stroke-linecap="round" stroke-linejoin="round" stroke-miterlimit="10" stroke-width=".5" d="M280.66016 480.48438l-7.01953-.3125"/></g><g clip-path="url(#B)"><path fill="none" stroke="#000" stroke-linecap="round" stroke-linejoin="round" stroke-miterlimit="10" stroke-width=".5" d="M279.64063 480.4414l.52734 1.10548"/></g><g clip-path="url(#C)"><path fill="none" stroke="#000" stroke-linecap="round" stroke-linejoin="round" stroke-miterlimit="10" stroke-width=".5" d="M293.91797 480.98828l-6.90235-1.32031"/></g><g clip-path="url(#D)"><path fill="none" stroke="#000" stroke-linecap="round" stroke-linejoin="round" stroke-miterlimit="10" stroke-width=".5" d="M292.91406 480.79688l.35938 1.17187"/></g><g clip-path="url(#E)"><path fill="none" stroke="#000" stroke-linecap="round" stroke-linejoin="round" stroke-miterlimit="10" stroke-width=".5" d="M307.22656 481.00781l-6.89453-1.35937"/></g><g clip-path="url(#F)"><path fill="none" stroke="#000" stroke-linecap="round" stroke-linejoin="round" stroke-miterlimit="10" stroke-width=".5" d="M306.22656 480.8086l.35547 1.17577"/></g><g clip-path="url(#G)"><path fill="none" stroke="#000" stroke-linecap="round" stroke-linejoin="round" stroke-miterlimit="10" stroke-width=".5" d="M319.2539 483.10156l-4.3164-5.54297"/></g><g clip-path="url(#H)"><path fill="none" stroke="#000" stroke-linecap="round" stroke-linejoin="round" stroke-miterlimit="10" stroke-width=".5" d="M328.44531 483.24219l3.92969-5.82422"/></g><g clip-path="url(#I)"><path fill="none" stroke="#000" stroke-linecap="round" stroke-linejoin="round" stroke-miterlimit="10" stroke-width=".5" d="M340.76172 482.21875l5.92578-3.77734"/></g><g clip-path="url(#J)"><path fill="none" stroke="#000" stroke-linecap="round" stroke-linejoin="round" stroke-miterlimit="10" stroke-width=".5" d="M341.625 481.66797l-1.0664-.60547"/></g><g clip-path="url(#K)"><path fill="none" stroke="#000" stroke-linecap="round" stroke-linejoin="round" stroke-miterlimit="10" stroke-width=".5" d="M353.89453 481.89063l6.29297-3.1211"/></g><g clip-path="url(#L)"><path fill="none" stroke="#000" stroke-linecap="round" stroke-linejoin="round" stroke-miterlimit="10" stroke-width=".5" d="M354.8086 481.4336l-.9961-.71485"/></g><g clip-path="url(#M)"><path fill="none" stroke="#000" stroke-linecap="round" stroke-linejoin="round" stroke-miterlimit="10" stroke-width=".5" d="M367.8086 482.75l5.09374-4.84375"/></g><g clip-path="url(#N)"><path fill="none" stroke="#000" stroke-linecap="round" stroke-linejoin="round" stroke-miterlimit="10" stroke-width=".5" d="M380.35156 481.47656l6.64063-2.29687"/></g><g clip-path="url(#O)"><path fill="none" stroke="#000" stroke-linecap="round" stroke-linejoin="round" stroke-miterlimit="10" stroke-width=".5" d="M381.3164 481.14063l-.89843-.83594"/></g><g clip-path="url(#P)"><path fill="none" stroke="#000" stroke-linecap="round" stroke-linejoin="round" stroke-miterlimit="10" stroke-width=".5" d="M393.71875 481.61719l6.53516-2.57422"/></g><g clip-path="url(#Q)"><path fill="none" stroke="#000" stroke-linecap="round" stroke-linejoin="round" stroke-miterlimit="10" stroke-width=".5" d="M393.71875 481.61719l-1.86719-1.59375"/></g><g clip-path="url(#R)"><path fill="none" stroke="#000" stroke-linecap="round" stroke-linejoin="round" stroke-miterlimit="10" stroke-width=".5" d="M394.66797 481.24219l-.9336-.79688"/></g><g clip-path="url(#S)"><path fill="none" stroke="#000" stroke-linecap="round" stroke-linejoin="round" stroke-miterlimit="10" stroke-width=".5" d="M407.41016 482.32422l5.78515-3.99219"/></g><g clip-path="url(#T)"><path fill="none" stroke="#000" stroke-linecap="round" stroke-linejoin="round" stroke-miterlimit="10" stroke-width=".5" d="M407.41016 482.32422l-2.1797-1.1289"/></g><g clip-path="url(#U)"><path fill="none" stroke="#000" stroke-linecap="round" stroke-linejoin="round" stroke-miterlimit="10" stroke-width=".5" d="M420.60156 482.1289l6.03125-3.60156"/></g><g clip-path="url(#V)"><path fill="none" stroke="#000" stroke-linecap="round" stroke-linejoin="round" stroke-miterlimit="10" stroke-width=".5" d="M420.60156 482.1289L418.5 480.86329"/></g><g clip-path="url(#W)"><path fill="none" stroke="#000" stroke-linecap="round" stroke-linejoin="round" stroke-miterlimit="10" stroke-width=".5" d="M434.22266 482.5664l5.41796-4.47656"/></g><g clip-path="url(#X)"><path fill="none" stroke="#000" stroke-linecap="round" stroke-linejoin="round" stroke-miterlimit="10" stroke-width=".5" d="M446.8086 479.59375l6.875 1.46875"/></g><g clip-path="url(#Y)"><path fill="none" stroke="#000" stroke-linecap="round" stroke-linejoin="round" stroke-miterlimit="10" stroke-width=".5" d="M460.41406 481.88672l6.29688-3.11719"/></g><g clip-path="url(#Z)"><path fill="none" stroke="#000" stroke-linecap="round" stroke-linejoin="round" stroke-miterlimit="10" stroke-width=".5" d="M461.32813 481.4336l-.9961-.71485"/></g><g clip-path="url(#aa)"><path fill="none" stroke="#000" stroke-linecap="round" stroke-linejoin="round" stroke-miterlimit="10" stroke-width=".5" d="M147.4961 467.34766l-6.9922-.66797"/></g><path fill="none" stroke="#000" stroke-linecap="round" stroke-linejoin="round" stroke-miterlimit="10" stroke-width=".5" d="M147.4961 467.34766l.9414 2.26562m-1.95703-2.36328l.46875 1.13281m13.8789-1.3086l-7.02734-.12109m7.02734.1211l1.11329 2.1836m-2.13672-2.20313l.5586 1.09375m13.76562-1.46094l-6.9961.65234m6.9961-.65234l1.34765 2.04688m-2.36719-1.95313l.67579 1.02344m13.58203-1.58203l-6.84375 1.58203m6.84375-1.58203l1.60937 1.85547m-2.60547-1.625l.8047.92578m13.4414-1.40235l-6.71485 2.07813m6.71485-2.07813l1.74219 1.72657m-2.71875-1.42579l.87109.86329m13.36719-1.32813l-6.60547 2.40234m6.60547-2.40234l1.8203 1.64453m-2.78124-1.29297l.91016.82032m13.34765-1.21875l-6.57031 2.49609m6.57031-2.4961l1.84375 1.6172m11.33203-1.9336l-6.29297 3.1289m6.29297-3.1289l1.9961 1.42969m-2.91016-.97266l.9961.71484m13.17577-1.28125l-6.17968 3.34766m6.17969-3.34766l2.04687 1.35547m11.03906-1.72265l-5.71875 4.08203m5.71875-4.08203l2.19531 1.09375m10.94532-1.32032l-5.36719 4.53516m5.36719-4.53516l2.27734.91016m11.04688-.89844l-5.38672 4.51172m4.60156-3.85547l1.13672.46094m13.5625-.08203l-6.58594 2.4414m5.6289-2.08593l.91798.8125m13.49609.78906l-6.8711-1.47266m18.73829 3.63282l-3.97656-5.79297m11.875 2.13281l6.85937 1.52734m6.58594-1.96875l6.59765 2.41016m-5.64062-2.0586l-.16797-1.21484m12.3789 2.74219l6.89454-1.34766m-5.89453 1.15235l-.77344-.95313m13.02344.58203l7.02343-.21484m-7.02343.21484l-1.21875-2.1289m14.53906 2.25l7.01172-.45703m-7.01172.45703l-1.29297-2.08594m14.64063 2.39063l6.9453-1.06641m-6.9453 1.0664l-1.46875-1.96874m15.20312-.30079l6.10938 3.47266m9.89062-5.23047l.73828 6.98828m-.63281-5.97265l1.01562-.6875m12.6172-.34766l-.10548 7.02734m.08985-6.0039l1.08984-.5586m12.48438-.45312l-.59375 7.0039m.5078-5.98437l1.12891-.48047"/><g clip-path="url(#ab)"><path fill="none" stroke="#000" stroke-linecap="round" stroke-linejoin="round" stroke-miterlimit="10" stroke-width=".5" d="M147.40234 454.57422l-6.80468-1.75"/></g><path fill="none" stroke="#000" stroke-linecap="round" stroke-linejoin="round" stroke-miterlimit="10" stroke-width=".5" d="M147.40234 454.57422l.57422 2.38672m12.57031-1.88672l-6.46484-2.7539m6.46484 2.7539l.21094 2.44531m13.26563-2.90625l-6.78516-1.83203m6.78516 1.83203l.54687 2.39453m12.85156-3.8086l-6.95312 1m6.95313-1l1.44921 1.98048m11.3711-3.33985l-5.96485 3.71485m5.96485-3.71485l2.125 1.23047m10.89844-1.6289l-5.38282 4.51562m5.38281-4.51562l2.27735.91797m10.84375-1.13282l-4.99219 4.94531m4.99219-4.9453l2.34375.72656m11.01172-.6875l-5.07031 4.86718m5.0703-4.86719l2.32813.76563m-3.0664-.0586l1.16406.38282m12.73437-1.23828l-4.76562 5.16406m4.76562-5.16406l2.375.6211m-3.0664.1289l1.1875.3125m12.59765-1.25l-4.3203 5.53906m4.3203-5.53906l2.41797.42187m-3.04687.38282l1.20703.21093m12.25781-1.33203l-3.36328 6.16797m3.36328-6.16797l2.45703.02735m-2.94531.87109l1.22656.01172m12.61328-.89063l-3.43359 6.13281m3.4336-6.1328l2.45312.05468m-2.95313.83594l1.22657.02734m12.21875-1.09766l-2.69532 6.4922m2.69532-6.4922l2.4414-.23437m10.55078.11719l-2.04687 6.72265m1.7461-5.74218l1.20702-.23829m13.08594-.45312l-3.40625 6.14844m2.91016-5.2539l1.22656.01952m11.92578-1.19531l-2.08594 6.71094m1.78125-5.73438l1.20313-.23047m12.33984-.76953l-1.9336 6.75781m1.65235-5.77343l1.19922-.25782m10.54297-.75l1.77344 6.80079m-1.51563-5.8086l.90625-.83203m9.92188 1.61719l6.23047 3.25m-5.32422-2.77735l-.00781-1.22656m12.22656 1.1836l6.60937 2.38671m-6.60937-2.38671l-.34375-2.42579m1.3086 2.77344l-.17579-1.21484m12.48438.9961l6.6953 2.1289m-6.6953-2.1289l-.44141-2.41407m20.40625 2.27734l-6.60156 2.40625m5.64062-2.05859l.91016.82031m11.875-2.97656l-3.6211 6.02344m3.6211-6.02344l2.44922.1289m10.90234-.10546l-3.6914 5.97656m3.6914-5.97656l2.44922.15625m12.17969 1.30078l-6.32422 3.0625"/><g clip-path="url(#ac)"><path fill="none" stroke="#000" stroke-linecap="round" stroke-linejoin="round" stroke-miterlimit="10" stroke-width=".5" d="M466.72266 452.16797l1.98046 1.44531"/></g><path fill="none" stroke="#000" stroke-linecap="round" stroke-linejoin="round" stroke-miterlimit="10" stroke-width=".5" d="M465.80469 452.61328l.98828.72266"/><g clip-path="url(#ad)"><path fill="none" stroke="#000" stroke-linecap="round" stroke-linejoin="round" stroke-miterlimit="10" stroke-width=".5" d="M147.39453 441.28906l-6.78906-1.8086"/></g><path fill="none" stroke="#000" stroke-linecap="round" stroke-linejoin="round" stroke-miterlimit="10" stroke-width=".5" d="M147.39453 441.28906l.55469 2.39063m12.64453-2.03125l-6.55469-2.53125m6.55469 2.53125l.29297 2.4375m13.17578-2.9414l-6.86328-1.51954m5.86328 1.29688l.32813 1.18359m14.02734-1.17969l-6.94531-1.08203m5.93359.92188l.40234 1.16015m13.96094-1.73047l-7.01953.375m7.01953-.375l1.26563 2.10157m11.77734-3.28125l-6.47266 2.73828m6.47266-2.73828l1.90234 1.54687m11.3086-1.76953l-6.26563 3.1836m6.26563-3.1836l2.00781 1.41015m10.8789-2.0625L234.5 442.625m5.41016-4.48438l2.26953.9336m10.69922-1.29297l-4.71875 5.20703m4.71875-5.20703l2.3789.59766m10.79297-.72266l-4.4336 5.45313m4.4336-5.45313l2.41016.47266m11-.39063l-4.6211 5.29297m4.6211-5.29297l2.39062.55469m-3.0625.21484l1.19532.27735m13.15234-.6836l-5.34375 4.5625m5.34375-4.5625l2.28516.89844m10.76562-1.17578l-4.8125 5.11719m4.8125-5.1172l2.36719.64454m-3.0664.10156l1.18359.32032m13.01171-.88282l-5.17578 4.75m5.17578-4.75l2.31641.82032m-3.0664-.12891l1.15624.41016m13.09375-.88672l-5.54296 4.3203m5.54296-4.3203l2.23829 1.0039m-3.04688-.375l1.1211.5m12.77734-1.38672l-5.09375 4.83985m5.09375-4.83985l2.32812.77344m-3.07031-.07031l1.16406.38672m12.46094-1.47656l-4.23047 5.60937m4.23047-5.60937l2.42188.38671m-3.03907.4297l1.21485.1914m11.39062-1.625l-1.57812 6.84765m1.57812-6.84765l2.3711-.63672m-2.60157 1.63281l1.1875-.32031m9.66407-.20313l3.8125 5.90235m-3.8125-5.90235l1.1914-2.14453m11.63672 2.52344l4.78516 5.14063m-4.78516-5.14063l.80078-2.32031m-.10547 3.0664l.39844-1.15625m12 .63282l5.22656 4.6953m-5.22656-4.6953l.58984-2.37891m14.98047 1.23047l.71875 6.99219m-.61328-5.97266l1.01563-.6836m13.625-.18359l-2.14453 6.6914m2.14453-6.6914l2.41406-.4375m-2.72656 1.41016l1.20703-.21875m12.75781-.6289l-2.82031 6.4375m2.82031-6.4375l2.44531-.1875m12.84766 2.47265l-6.77344 1.86719"/><g clip-path="url(#ae)"><path fill="none" stroke="#000" stroke-linecap="round" stroke-linejoin="round" stroke-miterlimit="10" stroke-width=".5" d="M466.94922 439.44922l1.6875 1.78125"/></g><path fill="none" stroke="#000" stroke-linecap="round" stroke-linejoin="round" stroke-miterlimit="10" stroke-width=".5" d="M465.96484 439.72266l.83985.89062"/><g clip-path="url(#af)"><path fill="none" stroke="#000" stroke-linecap="round" stroke-linejoin="round" stroke-miterlimit="10" stroke-width=".5" d="M147.26563 428.36719l-6.53125-2.59766"/></g><path fill="none" stroke="#000" stroke-linecap="round" stroke-linejoin="round" stroke-miterlimit="10" stroke-width=".5" d="M147.26563 428.36719l.26953 2.4375M160.625 428.25l-6.61719-2.36328M160.625 428.25l.35547 2.42969m12.67187-1.82031l-6.04687-3.58204m6.04687 3.58203l-.11328 2.44922m13.71485-3.05859l-6.6172-2.36328m6.6172 2.36328l.35547 2.42969m-1.31641-2.77344l.17578 1.21484m14.30469-2.07812l-7.02735.05078m7.02735-.05078l1.16797 2.16015m12.14453-1.98828l-7.01953-.29297m7.01953.29297l1.0625 2.21094m12.2539-2.25l-7.02343-.21484m6 .1836l.54297 1.10155m13.42968-2.73828l-6.29297 3.1211m6.29297-3.1211l1.9961 1.42969m10.4453-2.54688l-4.54687 5.35547m4.54688-5.35547l2.39844.52344m11.17187-.28515l-5.05469 4.8789m5.0547-4.8789l2.33202.7578m11.03125-.71093l-5.14843 4.78516m5.14843-4.78516l2.3164.80469m11.4297-.23047l-6.01172 3.63672m6.01172-3.63672l2.10547 1.25781m11.05078-1.4961l-5.69532 4.11329m5.69532-4.11328l2.20312 1.08203m-3.03125-.48438l1.10156.53907m13.01172-1.17578l-5.63672 4.1914m5.63672-4.1914l2.21875 1.05078m-3.03906-.4414l1.10938.52734m12.72656-1.48829l-5.03906 4.89453m5.03906-4.89453l2.33594.75m-3.06641-.03906l1.16797.375m13.26172-.61328l-5.8086 3.95313m5.8086-3.95313l2.17187 1.14063m10.94922-1.40235l-5.41797 4.47266m5.41797-4.47266l2.26953.9414m-3.05469-.28905l1.13282.46875m12.16797-1.83594l-3.81641 5.90234m3.8164-5.90234l2.44532.21094m-3 .64843l1.21875.10547m10.85156-1.52734l-.21875 7.02734m.21875-7.02734l2.19922-1.08203m-2.23047 2.10547l1.09766-.54297m14.51562.4453l-4.7539 5.17579m4.7539-5.17578l2.375.61719m-3.0664.13671l2.375.6172m-3.06641.13671l1.1875.30469m13.5586-1.76563l-4.85157 5.08204m4.85156-5.08204l2.36328.66407m-3.0703.07421l2.36327.66407m-3.0664.07812l2.36328.66016m11.71484-2.6289l-3.55469 6.0625m3.5547-6.0625l2.44921.10155m-2.96875.77735l2.45313.10156m-2.96875.78125l2.45312.10156m12.8711-1.01953l-5.50391 4.3711m5.5039-4.3711l2.25.98438m-3.05078-.34766l2.25.98047m-3.05078-.34375l2.25.98047m12.80469-2.0625l-5.78125 3.98828m5.78125-3.98828l2.17969 1.1289m-3.01953-.55078l2.17968 1.12891m-3.01953-.54688l1.08594.56641m14.48828-.27734l-6.9414 1.08984"/><g clip-path="url(#ag)"><path fill="none" stroke="#000" stroke-linecap="round" stroke-linejoin="round" stroke-miterlimit="10" stroke-width=".5" d="M467.03125 426.52344l1.47656 1.96094"/></g><path fill="none" stroke="#000" stroke-linecap="round" stroke-linejoin="round" stroke-miterlimit="10" stroke-width=".5" d="M466.02344 426.67969l1.47265 1.96094"/><g clip-path="url(#ah)"><path fill="none" stroke="#000" stroke-linecap="round" stroke-linejoin="round" stroke-miterlimit="10" stroke-width=".5" d="M147.22266 415.14844l-6.44532-2.79297"/></g><path fill="none" stroke="#000" stroke-linecap="round" stroke-linejoin="round" stroke-miterlimit="10" stroke-width=".5" d="M147.22266 415.14844l.19922 2.44531m13.19921-2.64453l-6.60937-2.39063m6.60937 2.39063l.34375 2.42969m12.73828-1.91797l-6.14453-3.41407m6.14453 3.41407l-.04687 2.45312m13.73047-3.46094l-6.88281-1.40234m6.8828 1.40234l.69923 2.35547m12.66406-3.47265l-6.97656.83593m6.97656-.83593l1.40234 2.01172m11.9375-1.54688l-7.02734-.09375m19.39844 2.4414l-5.14453-4.78906m4.39843 4.08985l-.3164 1.1875m15.03906-1.5039l-6.46484-2.75782m5.52343 2.35547l.10547 1.22265m13.65625-4.40234l-5.47656 4.40625m4.67969-3.76562l1.1289.48437m12.65235-1.48047l-4.8164 5.11719m4.11718-4.375l1.1836.32422m12.83202-1.0664l-4.8164 5.11718m4.8164-5.11719l2.3672.64844m10.41796-1.0586l-3.75781 5.9375m3.21094-5.07421l1.22656.09375m13.8086.26953l-6.10157 3.48047m6.10156-3.48047l2.07422 1.3125m11.35156-1.10547l-6.32422 3.0664m6.32422-3.0664l1.98047 1.44922m10.4961-2.55078l-4.64454 5.27343m4.64454-5.27343l2.38671.5664m10.84375-.64062l-4.47656 5.41797m4.47656-5.41797l2.40235.49219m-3.05469.29687l1.20313.2461m13.89843.6875l-6.7461 1.97656m6.7461-1.97656l1.71485 1.7539m11.51172-2.01172L367.0703 415m6.57032-2.49219l1.84765 1.61719m-2.80469-1.2539l1.84766 1.61718m11.88281-2.9336l-5.48437 4.39845m5.48437-4.39844l2.2539.96875m-3.05468-.32813l2.2539.96875m-3.05077-.32812l1.1289.48437m14.07813-1.33203l-6.07422 3.53125m6.07422-3.53125l2.08594 1.29297m-2.96875-.78125l2.08593 1.29297m-2.96875-.77735l1.03907.64454m13.72656-2.125l-5.44531 4.4375m5.4453-4.4375l2.26173.94922m-3.05078-.3047l2.26171.95313m-3.05468-.3086l2.26172.95313m12.64453-2.23437l-5.46485 4.41797m5.46485-4.41797l2.2578.96094m-3.05077-.31641l2.25781.96094m-3.05469-.3164l1.1289.48046m14.23438-1.03125l-6.3789 2.94531m6.3789-2.94531l1.95313 1.48438m-2.8789-1.0547l1.95312 1.48438m-2.88281-1.0586l1.95312 1.48438m13.10156-2.5703l-6.14453 3.40624m6.14453-3.40625l2.0586 1.33594m-2.95313-.83985l2.0586 1.33594m-2.95313-.83984l1.02734.66797m14.40625-.83594l-6.80468 1.75781"/><g clip-path="url(#ai)"><path fill="none" stroke="#000" stroke-linecap="round" stroke-linejoin="round" stroke-miterlimit="10" stroke-width=".5" d="M466.96484 412.875l1.65625 1.8086"/></g><path fill="none" stroke="#000" stroke-linecap="round" stroke-linejoin="round" stroke-miterlimit="10" stroke-width=".5" d="M465.97266 413.1289l1.65625 1.8125m-2.64454-1.55468l.82813.90234"/><g clip-path="url(#aj)"><path fill="none" stroke="#000" stroke-linecap="round" stroke-linejoin="round" stroke-miterlimit="10" stroke-width=".5" d="M146.76953 402.60156l-5.53906-4.32812"/></g><path fill="none" stroke="#000" stroke-linecap="round" stroke-linejoin="round" stroke-miterlimit="10" stroke-width=".5" d="M146.76953 402.60156l-.42969 2.41797m14.0547-2.89062l-6.16017-3.37891m6.16016 3.3789l-.03125 2.45313m13.53125-2.84375l-6.52734-2.60156m6.52734 2.60156l.26563 2.4414m13.29687-3.78124l-7.02344.07812m7.02344-.07812l1.17578 2.15625m12.11719-1.71094l-6.98047-.8086m5.96484.69141l.44922 1.14063m12.70313-4.07422l-4.625 5.28906m3.95312-4.51953l1.19532.28125m13.53906 3.32422l-6.11719-3.46094m6.11719 3.46094l-.0664 2.45312m13.8164-3.82421l-6.98828-.71875m5.97265.61328l.46094 1.13671m13.64453-2.67578l-6.53906 2.57422m6.53906-2.57422l1.86719 1.59375m11.63672-.93359l-6.91406 1.2539m6.91406-1.2539l1.51953 1.92578m11.84766-1.09375l-7.01563-.41015m7.01563.41015l1.02343 2.22656m12.11329-3.54687l-6.66407 2.23047m6.66406-2.23047l1.78125 1.6875m-2.75-1.36328l.89063.84375m13.53125-.60156l-6.9414 1.09375m6.9414-1.09375l1.47656 1.96093m-2.48437-1.80078l.73828.98047m13.57031-1.22656l-6.91015 1.26953m6.91015-1.26953l1.52344 1.92187m10.55469-4.01562l-4.4336 5.45312m4.4336-5.45312l2.40625.47265m12.1328 2.96875l-6.8828-1.42968m6.8828 1.42968l.6836 2.35547m11.99219-.94922l-5.60547-4.23828m4.78906 3.6211l-.1914 1.21093m15.02734-2.48437l-7.01172-.45703m5.99219.39062l.5039 1.11719m12.60157-3.95703l-4.55469 5.35156m4.55469-5.35156l2.39453.52734m-3.0586.2539l1.19923.26173m13.87109.63672l-6.73828 1.99218m6.73828-1.99218l1.71875 1.75m-2.69922-1.46094l.85938.875m13.55078-.6289l-6.96875.92187m6.96875-.92188l1.42578 1.9961m-2.4414-1.86329l.71483 1m13.27735-2.23828l-6.28906 3.13282m6.28906-3.13282l1.9961 1.4297m-2.91016-.97267l1.99609 1.42579m12.42188-1.42188l-6.66797 2.21485m6.66796-2.21485l1.77735 1.6914m-2.7461-1.37109l1.77344 1.69532m-2.7461-1.3711l.89063.84375m14.40235-1.3711l-6.74219 1.97657m6.74219-1.97656l1.71484 1.7539m-2.69531-1.46484l1.71484 1.7539m-2.69531-1.46874l.85547.8789m14.38281-1.57421l-6.66797 2.22265"/><g clip-path="url(#ak)"><path fill="none" stroke="#000" stroke-linecap="round" stroke-linejoin="round" stroke-miterlimit="10" stroke-width=".5" d="M466.89453 399.32813l1.77735 1.6914"/></g><path fill="none" stroke="#000" stroke-linecap="round" stroke-linejoin="round" stroke-miterlimit="10" stroke-width=".5" d="M465.92578 399.65234l1.77735 1.6875m-2.75-1.36718l.89062.84765"/><g clip-path="url(#al)"><path fill="none" stroke="#000" stroke-linecap="round" stroke-linejoin="round" stroke-miterlimit="10" stroke-width=".5" d="M146.70313 389.36719l-5.40625-4.48828"/></g><path fill="none" stroke="#000" stroke-linecap="round" stroke-linejoin="round" stroke-miterlimit="10" stroke-width=".5" d="M146.70313 389.36719l-.5 2.40234m14.1914-2.95703l-6.16016-3.3789m6.16016 3.3789l-.03125 2.45313m13.77344-3.89844l-7.01172-.48828m7.01172.48828l1 2.23828m11.17187-5.08203l-4.72656 5.19922m4.03906-4.44532l1.1875.3047m11.7422-1.72657l-2.57813 6.53515m2.20312-5.58593l1.21875-.13672m14.50781 3.58203l-6.65625-2.2539m6.65625 2.2539l.39844 2.42188m13.01172-2.75782l-6.84375-1.58203m6.84375 1.58203l.63672 2.3711m-1.63281-2.60157l.3203 1.1875m14.04688-2.23437l-6.95703.97265m6.95703-.97265l1.44141 1.98437m-2.45313-1.84375l.72266.9922m13.53906-1.47657l-6.82812 1.66406m6.82812-1.66406l1.63282 1.82812m11.53125-2.30468l-6.52344 2.61328m6.52344-2.61328l1.875 1.58203m11.61718-.98828l-6.8789 1.42578m5.8789-1.21875l.78516.94531m13.60547-.47656l-7.02734.07422m6.0039-.0625l.58594 1.07812m13.75-.92969L300.26953 387m7.02344.2461l1.07422 2.20312m12.21875-2.71485l-6.98047.77735m6.98047-.77735l1.38672 2.02344m-2.40235-1.91015l.69532 1.01171m13.53515-1.65234l-6.78125 1.83203m6.78125-1.83203l1.67969 1.78906m11.55469-2.05468l-6.6172 2.36328m5.65235-2.01953l.91016.82812m13.39844-1.08594l-6.67578 2.19141m6.67578-2.1914l1.76953 1.69921m11.5625-1.64453L367 388.16406m6.71094-2.08203l1.74219 1.73047m-2.71875-1.42578l1.74218 1.72656m12.15625-2.88281l-5.92187 3.78515m5.92187-3.78515l2.13672 1.20703m-3-.65625l1.07031.60547m13.32813-.7539l-6.36328 2.98046m6.36328-2.98047l1.96094 1.47266m11.21093-1.74219l-6.07812 3.51953m6.07812-3.51953l2.08594 1.29688m-2.96875-.78516l1.04297.64844m13.07422-1.29688l-5.91797 3.79297m5.91797-3.79297l2.14062 1.20313m-3-.64844l1.07032.59766m13.4375-.48438l-6.58203 2.45703m6.58203-2.45703l1.83593 1.6289m-2.79296-1.26952l.91796.8125m13.51172-.6172l-6.89843 1.34767m6.89843-1.34766l1.54688 1.90625m-2.55078-1.71094l1.54687 1.90625m12.79688-1.95312l-6.94922 1.05078"/><g clip-path="url(#am)"><path fill="none" stroke="#000" stroke-linecap="round" stroke-linejoin="round" stroke-miterlimit="10" stroke-width=".5" d="M467.03516 386.59766L468.5 388.5703"/></g><path fill="none" stroke="#000" stroke-linecap="round" stroke-linejoin="round" stroke-miterlimit="10" stroke-width=".5" d="M466.02344 386.75l1.46484 1.97266"/><g clip-path="url(#an)"><path fill="none" stroke="#000" stroke-linecap="round" stroke-linejoin="round" stroke-miterlimit="10" stroke-width=".5" d="M147.24219 375.16406l-6.48438-2.71094"/></g><path fill="none" stroke="#000" stroke-linecap="round" stroke-linejoin="round" stroke-miterlimit="10" stroke-width=".5" d="M147.24219 375.16406l.22265 2.44531m12.91407-2.08203l-6.12891-3.4375m6.1289 3.4375l-.05468 2.45313m13.60937-5.36719l-6.60937 2.39063m6.60937-2.39063l1.82032 1.64453m10.48047-3.11719l-4.57813 5.33204m4.57813-5.33204l2.39453.53907m11.2539-.20703l-5.2461 4.67187m5.2461-4.67187l2.30078.84765m11.85938 2.04688l-6.9375-1.11719m6.9375 1.11719l.79297 2.32422m-1.80078-2.48829l.39453 1.16407m13.9375-1.0664l-6.95703-.98438m6.95703.98437l.83984 2.3086m-1.85156-2.45313l.41797 1.15625m13.94531-1.44531l-7.02734-.11719m7.02734.11719l1.11719 2.1836m-2.14063-2.19923l.5586 1.08985m13.78125-1.1797l-7.02735.09376m7.02735-.09375l1.17968 2.14844m-2.20312-2.13672l.58984 1.07812m13.71875-.58984l-6.96875-.91016m6.96875.91016l.85938 2.30078m-1.875-2.42969l.4336 1.14844m13.90624-1.10938l-6.98828-.72656m6.98828.72656l.92188 2.27344m12.41015-2.5586l-7.02343-.15624m7.02343.15625l1.10547 2.1914m-2.125-2.21484l.55078 1.09766m13.78516-1.13281l-7.02734-.03907m7.02734.03906L308.43359 376m-2.16015-2.17969l.57031 1.08594m13.75781-.89453l-7.01172-.40625m7.01172.40625l1.02735 2.23047m12.28906-2.23438l-7.01563-.40234m7.01563.40234l1.02734 2.23047m12.26953-2.85547l-6.97656.85156m6.97656-.85156l1.40625 2.00781m11.9336-1.6953l-7.02344.22656m7.02344-.22657l1.21875 2.1289m-2.24219-2.09765l.60938 1.0664m13.72265-1.18358l-7.01562.39453m7.01562-.39454l1.27344 2.10157m-2.29297-2.04297l.63672 1.05078m13.60156-1.75781l-6.82031 1.69531m6.82031-1.69531l1.64063 1.82422m-2.63282-1.57813l.82032.91016m13.34765-1.58985l-6.54297 2.5625m6.54297-2.5625l1.86328 1.59766m11.1211-2.23828l-5.88281 3.84375m5.8828-3.84375l2.14845 1.17969m10.48437-1.94922L421.35938 376.5m4.51562-5.38281l2.39844.51172m11.49219.10546l-5.66797 4.14844m5.66797-4.14844l2.21093 1.06641m-3.03515-.46484l1.10547.53515m13.52343-.19921l-6.64843 2.27343m6.64843-2.27344l1.79297 1.67579m11.67969-1.01563l-6.96094.95313"/><g clip-path="url(#ao)"><path fill="none" stroke="#000" stroke-linecap="round" stroke-linejoin="round" stroke-miterlimit="10" stroke-width=".5" d="M467.04297 373.33203l1.4336 1.98828"/></g><path fill="none" stroke="#000" stroke-linecap="round" stroke-linejoin="round" stroke-miterlimit="10" stroke-width=".5" d="M466.03125 373.46875l.71484.9961"/><g clip-path="url(#ap)"><path fill="none" stroke="#000" stroke-linecap="round" stroke-linejoin="round" stroke-miterlimit="10" stroke-width=".5" d="M147.46484 359.91797l-6.92968 1.15234"/></g><path fill="none" stroke="#000" stroke-linecap="round" stroke-linejoin="round" stroke-miterlimit="10" stroke-width=".5" d="M147.46484 359.91797l1.4922 1.94531m-2.5-1.77734l.74608.97265m13.57422.03907l-6.92187-1.21094m6.92187 1.21094l.76172 2.33203m12.60156-3.02344l-7.02343.17578m7.02344-.17578l1.20703 2.13672m-2.22657-2.11328l.60157 1.07031m13.26953-2.75781l-6.09375 3.5m6.09375-3.5l2.07812 1.30469m-2.96484-.79297l1.03906.65234m13.6289.58594h-7.02734m7.02735 0l1.15234 2.16797m-2.17578-2.16797l.57813 1.08594m13.66406-.26172l-6.83203-1.64844m6.83203 1.64844l.60937 2.3789m-1.60547-2.61719l.3047 1.1875m14.01171-.98046l-6.84375-1.58594m6.84375 1.58594l.63281 2.37109m-1.6289-2.60156l.3164 1.1875m13.95313-.78906l-6.76172-1.91797m6.76172 1.91796l.51562 2.39844m12.85547-2.6211l-6.8711-1.47265m6.8711 1.47266l.67188 2.35937m12.71875-3.22656l-7.02344.26172m7.02344-.26172l1.23047 2.1211m12.08593-1.9922h-7.02734m7.02734 0l1.15235 2.16798m12.08984-1.46094l-6.88281-1.41406m6.88281 1.41406l.69531 2.35547m12.58985-2.21485l-6.82032-1.6953m6.82032 1.6953l.59375 2.38282m-1.58594-2.62891l.29687 1.1914m14.10938-1.63671l-7.01953-.3125m7.01953.3125l1.05469 2.21875m12.26171-2.52735l-7.01953.3086m7.01953-.3086l1.2461 2.11329m11.95703-1.07032l-6.79688-1.77734m6.79688 1.77734l.5664 2.38672m12.85547-3.04687l-7.01171-.46094m7.01171.46094l1.00782 2.23828m-2.02735-2.30469l.50391 1.1211m13.83203-1.4961l-7.01562.42188m7.01562-.42188l1.28125 2.09375m-2.30078-2.03125l1.27734 2.09375m12.81641-3.23828l-6.53125 2.58984m6.53125-2.58984l1.8711 1.58984m-2.82032-1.21484l1.86719 1.58984m12.32812-2.1289l-6.39453 2.91796m6.39453-2.91796l1.94532 1.49218m-2.875-1.0664l1.9453 1.49219m12.32032-1.8672l-6.4375 2.81641m6.4375-2.8164l1.92578 1.52344m-2.86328-1.11329l.96484.76172m13.34375-1.03906l-6.54687 2.54688m6.54687-2.54688l1.85938 1.60156m-2.8125-1.23047l.92969.80079m13.33203-1.19141l-6.53516 2.58594m6.53516-2.58594l1.86719 1.58984m-2.82032-1.21094l.9375.79297m13.47266-.71875l-6.82031 1.6836m6.82031-1.6836l1.64062 1.82422m11.60157-2.07812l-6.67578 2.1914"/><g clip-path="url(#aq)"><path fill="none" stroke="#000" stroke-linecap="round" stroke-linejoin="round" stroke-miterlimit="10" stroke-width=".5" d="M466.89844 359.39844l1.77344 1.69531"/></g><g clip-path="url(#ar)"><path fill="none" stroke="#000" stroke-linecap="round" stroke-linejoin="round" stroke-miterlimit="10" stroke-width=".5" d="M147.49219 346.79297l-6.98438.76953"/></g><path fill="none" stroke="#000" stroke-linecap="round" stroke-linejoin="round" stroke-miterlimit="10" stroke-width=".5" d="M147.49219 346.79297l1.38281 2.02734m11.92578-1.1875l-6.96875-.90625m6.96875.90625l.86328 2.29297m-1.8789-2.42578l.43359 1.14844m13.61328-.02344l-6.40234-2.89453m6.40234 2.89453l.15625 2.44922m-1.08984-2.8711l.08203 1.22657m14.47656-2.25h-7.02344m7.02344 0l1.15234 2.16406m12.16016-2.30469l-7.01953.27735m7.01953-.27735l1.23828 2.1211m12.0625-1.63282l-6.99219-.69921m6.9922.69921L215 349.80078m12.35938-2.07031l-6.9375-1.10547m6.9375 1.10547l.79687 2.32031m12.25-1.42187l-6.40234-2.90235m6.40234 2.90235l.15625 2.44921m13.3711-3.0664l-6.82813-1.66406m6.82812 1.66406l.60547 2.375m12.80078-2.94922l-7.0078-.51953m7.0078.51953l.98828 2.2461m12.33204-2.64454l-7.01953.27735m7.01953-.27735l1.23828 2.1211m11.97656-1.12891l-6.8164-1.70703m6.8164 1.70703l.58984 2.3789m-1.58203-2.6289l.29688 1.1914m14.01953-.98437l-6.83594-1.6211m6.83594 1.6211l.6211 2.3711m-1.6172-2.60547l.3125 1.18359m14.08985-1.63672l-7.01953-.2461m7.01953.2461l1.07812 2.20703m-2.09765-2.24219l.53906 1.10157m13.73828-1.84375l-6.90625 1.3086m6.90625-1.3086l1.53516 1.91406m-2.53906-1.72266l.76562.95704m13.58203-.00782l-6.96094-.97265m6.96094.97265l.83985 2.30469m12.42578-2.04297l-6.86328-1.4961m6.86328 1.4961l.66406 2.36328m-1.66016-2.57812l.32813 1.17969m14.05078-1.375l-6.9961-.67188m6.9961.67188l.9375 2.26562m-1.95703-2.36328l.9375 2.26562m-1.95703-2.36328l.47265 1.13281m14.80469-2.0703l-6.84375 1.59374m6.84375-1.59375l1.61328 1.84766m-2.60937-1.61719l1.61328 1.84766m-2.60938-1.61719l.8086.92578m14.20312-2.1914l-6.2539 3.19921m6.2539-3.19921l2.01172 1.40625m-2.92187-.94141l2.01171 1.40625m-2.92187-.9414l1.00781.70312m14.3164-1.19531l-6.6328 2.32421m6.6328-2.32421l1.8047 1.66406m-2.76954-1.32422l1.8047 1.66406m-2.76954-1.32812l.90234.83203m14.39844-1.33985l-6.74219 1.98829m6.7422-1.98829l1.71484 1.75391m-2.69532-1.46484l1.71485 1.7539m12.61718-1.90625l-6.8164 1.71485m6.8164-1.71485l1.64454 1.82031m-2.63672-1.5703l1.64453 1.8203m12.65625-2.08203l-6.80469 1.7422m6.80469-1.7422l1.65625 1.8125m-2.64453-1.5625l1.65234 1.81641m12.61328-2.21484l-6.72656 2.03906"/><g clip-path="url(#as)"><path fill="none" stroke="#000" stroke-linecap="round" stroke-linejoin="round" stroke-miterlimit="10" stroke-width=".5" d="M466.92578 346.16016l1.73047 1.73828"/></g><path fill="none" stroke="#000" stroke-linecap="round" stroke-linejoin="round" stroke-miterlimit="10" stroke-width=".5" d="M465.94531 346.45703l1.73047 1.73828"/><g clip-path="url(#at)"><path fill="none" stroke="#000" stroke-linecap="round" stroke-linejoin="round" stroke-miterlimit="10" stroke-width=".5" d="M147.19531 332.40234l-6.39062 2.92188"/></g><path fill="none" stroke="#000" stroke-linecap="round" stroke-linejoin="round" stroke-miterlimit="10" stroke-width=".5" d="M146.26563 332.82813l.97265.74609m13.39844 1.4336l-6.64453-2.28907m5.67969 1.95703l.1875 1.21094m13.98046-.58985l-6.41797-2.86718m6.41797 2.86719l.16797 2.4453m-1.10156-2.86327l.08203 1.22265m14.41016-1.58594l-6.90625-1.30468m6.90625 1.30469l.73047 2.34375m11.90234-.83985l-5.54297-4.3164m4.73828 3.6914l-.21094 1.20703m15.07032-2.59375l-7.01953-.29297m7.01953.29297l1.0586 2.21485m12.2539-2.5547l-7.01563.39063m7.01563-.39062l1.26953 2.09765m12.04297-2.14453l-7.01172.48438m7.01172-.48438l1.30078 2.07813m12.01953-2.01563l-7.01953.35938m7.01953-.35938l1.25781 2.10547m12.05078-1.6914l-7.01172-.46875m7.01172.46875l1.00391 2.23828m-2.02344-2.30469l.5039 1.11719m13.82423-.95313l-6.9961-.66406m6.9961.66406l.9414 2.26563m-1.96093-2.36328l.47265 1.1328m13.79297-2.1328l-6.85937 1.53125m6.85937-1.53125l1.59766 1.86718m11.76953-.6328l-6.96094-.94142m6.96094.94141l.85156 2.30469m12.21875-1.40235l-6.47266-2.74218m6.47266 2.74219l.21484 2.4414m-1.15625-2.83984l.21485 2.4414m14.28515-2.93359l-6.96093-.96094m6.96093.96094l.84375 2.30469m-1.85546-2.44531l.42187 1.15234m13.9336-1.65235l-7.01954.32032m7.01953-.32031l1.25 2.11328m-2.26953-2.06641l.625 1.05469m13.71094-1.13672l-7.01953.39062m7.01953-.39062l1.26953 2.10156m12-1.32422l-6.92969-1.16797m6.9297 1.16797l.77734 2.32813m-1.78516-2.4961l.38672 1.16407m13.96484-1.96094l-6.98437.76562m6.98437-.76562l1.38281 2.02734m-2.39843-1.91797l1.3789 2.02735m12.9375-2.2461l-6.95703.98438m6.95703-.98438l1.44532 1.98047m-2.45704-1.83984l.72266.99219m13.50781-1.59375l-6.76562 1.90625m6.76562-1.90625l1.69532 1.77343m-2.6797-1.49609l.84766.88672m13.48438-1.03125l-6.83203 1.64062m6.83203-1.64062l1.6289 1.83594m-2.62109-1.59766l1.625 1.83594m-2.6211-1.59766l.81641.91797m14.42579-1.6211l-6.70704 2.09376m6.70704-2.09375l1.74609 1.72656m-2.72266-1.42188l1.7461 1.72657m-2.72266-1.42188l.875.86328m14.42969-1.35156l-6.78125 1.85156m6.78125-1.85156l1.67969 1.78906m-2.66797-1.51953l1.6836 1.78906m-2.66798-1.51953l.83985.89453m14.3789-1.65625l-6.64062 2.29688"/><g clip-path="url(#au)"><path fill="none" stroke="#000" stroke-linecap="round" stroke-linejoin="round" stroke-miterlimit="10" stroke-width=".5" d="M466.88281 332.71484l1.79688 1.67188"/></g><path fill="none" stroke="#000" stroke-linecap="round" stroke-linejoin="round" stroke-miterlimit="10" stroke-width=".5" d="M465.91797 333.05078l1.79297 1.67188m-2.76172-1.33985l.89844.83594"/><g clip-path="url(#av)"><path fill="none" stroke="#000" stroke-linecap="round" stroke-linejoin="round" stroke-miterlimit="10" stroke-width=".5" d="M140.48828 320.48047l7.02344.13672"/></g><path fill="none" stroke="#000" stroke-linecap="round" stroke-linejoin="round" stroke-miterlimit="10" stroke-width=".5" d="M154.35156 322.4375l5.92578-3.78125m-5.0625 3.23047l-1.0664-.60156m16.99219 2.73828l-1.02344-6.95313m.875 5.9414l-.98828.72657m16.20312-.5l-4.52344-5.3789m4.52344 5.3789l-.91797 2.27344m14.29688-2.32813l-4.64844-5.26953m4.64844 5.26953l-.86328 2.29688m14.80859-3.03516l-5.91406-3.79687m5.91406 3.79687l-.19922 2.44531m13.96094-3.46093l-6.80469-1.76563m6.80469 1.76563l.57031 2.38672m-1.5625-2.64063l.28516 1.1914m14.10547-1.38671l-6.97266-.86719m6.97266.86719l.875 2.29297m-1.89063-2.41797l.4414 1.14453m13.91798-1.39844l-7.02735-.10547m7.02735.10547l1.11718 2.1836m-2.14062-2.19922l.5586 1.08984m13.77734-1.10547l-7.02735-.04687m7.02735.04687l1.13672 2.17578m-2.15625-2.17968l.5664 1.08593m13.7539-.76953l-6.99609-.67187m6.9961.67187l.9414 2.26563m-1.96093-2.36328l.47265 1.1328m13.875-1.51171l-7.01953.28516m7.01953-.28516l1.23828 2.11719m12.01172-2.66016l-6.89062 1.36719m6.89062-1.36719l1.55078 1.90235m11.46485.34375l-6.29297-3.125m6.29297 3.125l.07031 2.45312m13.58984-3.625l-6.98437-.78125m6.98437.78125l.90625 2.28125m-1.92187-2.39453l.45312 1.14062m13.76563-.45703l-6.75781-1.92187m6.7578 1.92187l.51563 2.39844m12.92579-3.125l-7.01172-.46484m5.99218.39453l.50391 1.1211m13.78906-1.87892l-6.92578 1.19141m6.92578-1.1914l1.5 1.9375m11.53516-2.83204l-6.36719 2.97657m6.36719-2.97657l1.96094 1.47657m-2.88672-1.04297l.98047.73828m13.51953-.39063l-6.88672 1.41797m6.88672-1.41797l1.5625 1.89063m11.21094.79687l-5.8047-3.96093m12.70704 1.89843l7.02344.16407m10.59765-3.50391l-1.58984 6.84375m1.35937-5.84766l1.1836-.3164m13.98437.1914l-4.83203 5.10157m4.83203-5.10157l2.36328.65235m11.42579-.09375l-5.78516 3.98828"/><g clip-path="url(#aw)"><path fill="none" stroke="#000" stroke-linecap="round" stroke-linejoin="round" stroke-miterlimit="10" stroke-width=".5" d="M466.45313 318.55469l2.17968 1.1289"/></g><g clip-path="url(#ax)"><path fill="none" stroke="#000" stroke-linecap="round" stroke-linejoin="round" stroke-miterlimit="10" stroke-width=".5" d="M465.61328 319.13281l2.17578 1.1289"/></g><path fill="none" stroke="#000" stroke-linecap="round" stroke-linejoin="round" stroke-miterlimit="10" stroke-width=".5" d="M464.76953 319.71484l1.08985.5625"/><path fill="#00f" fill-rule="evenodd" d="M237.33594 467.64844h8.61719V457.5039h-8.6172v10.14453"/><path fill="azure" fill-rule="evenodd" d="M239.16797 459.33594H240v2.82422h3.28516v-2.82422h.83593v6.48047h-.83593v-2.91797H240v2.91797h-.83203v-6.48047"/><path fill="#ff3030" fill-rule="evenodd" d="M442.1914 467.64844h7.69532V457.5039h-7.69531v10.14453"/><path fill="azure" fill-rule="evenodd" d="M444.02734 459.33594h.83204v5.73828h3.1953v.74219h-4.02734v-6.48047"/><path fill="#ff3030" fill-rule="evenodd" d="M264.66016 445.45703h7.6914V435.3125h-7.6914v10.14453"/><path fill="azure" fill-rule="evenodd" d="M266.49219 437.14453h.83203v5.73828h3.19531v.74219h-4.02734v-6.48047"/><path fill="#ff3030" fill-rule="evenodd" d="M198.08203 436.57813h7.69531v-10.14454h-7.6953v10.14454"/><path fill="azure" fill-rule="evenodd" d="M199.91797 428.26563h.83203v5.74218h3.19531v.73828h-4.02734v-6.48046"/><path fill="#ff3030" fill-rule="evenodd" d="M322.35938 436.57813h7.6914v-10.14454h-7.6914v10.14454"/><path fill="azure" fill-rule="evenodd" d="M324.1914 428.26563h.83204v5.74218h3.19531v.73828h-4.02734v-6.48046"/><path fill="#00f" fill-rule="evenodd" d="M383.80078 432.14063h8.61719v-10.14454h-8.61719v10.14454"/><path fill="azure" fill-rule="evenodd" d="M385.63281 423.82813h.83203v2.82421h3.28907v-2.82421h.83203v6.48046h-.83203v-2.91796h-3.28907v2.91796h-.83203v-6.48046"/><path fill="#00f" fill-rule="evenodd" d="M219.58203 414.38672h8.61719v-10.14453h-8.61719v10.14453"/><path fill="azure" fill-rule="evenodd" d="M221.41406 406.07422h.83203v2.82422h3.28907v-2.82422h.83203v6.48047h-.83203v-2.91406h-3.28907v2.91406h-.83203v-6.48047"/><path fill="#ff3030" fill-rule="evenodd" d="M171.45313 365.5664h7.6914v-10.14452h-7.6914v10.14453"/><path fill="azure" fill-rule="evenodd" d="M173.28516 357.2539h.83593v5.73829h3.19141v.74219h-4.02734v-6.48047"/><path fill="#ffffe0" fill-rule="evenodd" d="M348.1914 387.98828h22.1797v-10.1914h-22.1797v10.1914"/><path fill-rule="evenodd" d="M351.6875 379.6289h.51172v6.29688h-.78906v-4.49219h-1.38672v-.55468l.5586-.0625.2539-.0547.22656-.08983.20313-.14063.17578-.21094.14062-.29297.10547-.39843m4.8164 0l.22657.01953.21875.05469.21094.08984.1953.1211.1836.15234.17188.17578.30078.41797.2461.49218.17968.54688.10938.57812.03906.59375-.03906.59375-.10938.58204-.17969.55468-.2461.5-.30077.42969-.17188.17969-.1836.15234-.1953.125-.21094.08985-.21875.05859-.22656.01953-.23047-.01953-.21875-.0586-.20703-.08984-.19922-.125-.1836-.15234-.17187-.17969-.30078-.42969-.24219-.5-.17969-.55469-.11328-.58203-.03906-.59375h.83594l.02734.5625.08203.50391.125.44531.16406.375.19141.30078.21094.21875.22265.13672.22657.04688.22656-.04688.22265-.13672.21094-.21875.1875-.30078.16406-.375.125-.44531.08204-.5039.03125-.5625-.03125-.5625-.08204-.5-.125-.4375-.16406-.36329-.1875-.29297-.21094-.21484-.22265-.1289-.22656-.04688-.22657.04687-.22265.12891-.21094.21484-.1914.29297-.16407.36328-.125.4375-.08203.5-.02734.5625h-.83594l.03906-.59375.11328-.57812.17969-.54688.24219-.49218.30078-.41797.17187-.17578.1836-.15235.19922-.1211.20703-.08983.21875-.0547.23047-.01952m5.08984 0h.50781v6.29687h-.78515v-4.49219h-1.38672v-.55468l.5586-.0625.25-.0547.23046-.08983.20313-.14063.17578-.21094.14062-.29297.10547-.39843m2.82422 2.17578h.78515l.01954-.3164.0625-.28517.09765-.2539.14063-.21485.17969-.17187.22265-.1289.26563-.08204.30859-.02734.23828.02344.22266.0625.20703.10156.17578.13672.14844.17187.11328.20703.07422.23438.02344.26562-.01954.26954-.0664.22265-.10938.1914-.15625.17188-.20312.16406-.2461.16407-.6328.39062-.53907.3125-.4375.3164-.34375.32423-.26563.33594-.1914.35156-.125.3711-.0664.39062-.02345.42187h4.21485v-.74219h-3.33594l.08594-.28515.11328-.23438.14844-.20312.1875-.17969.23046-.17188.27735-.17578.71875-.41406.41406-.20703.34766-.23047.27734-.25.22266-.26953.16015-.27734.11329-.28516.0625-.28516.01953-.28125-.03907-.3828-.12109-.34767-.1875-.30859-.2539-.26172-.30079-.21094-.34375-.16015-.38281-.09766-.40625-.03515-.4336.03515-.39843.09766-.35547.16797-.30469.23437-.25.30078-.1836.375-.11718.44532-.03906.51953"/><path fill="#ffffe0" fill-rule="evenodd" d="M206.41016 334.73047h22.17968v-10.19531h-22.17968v10.1953"/><path fill-rule="evenodd" d="M209.91016 326.3711h.5078v6.29296h-.78515v-4.48828h-1.39062v-.55469l.5586-.0664.2539-.05469.23047-.08984.20312-.14063.17188-.21094.14453-.29296.10547-.39454m4.8125 0l.23047.01954.21875.05468.20703.08985.1953.12109.1836.14844.17188.17578.30469.41797.24218.4961.17969.54687.10938.57812.03906.58985-.03906.59375-.10938.58593-.17969.55078-.24219.50391-.30468.42578-.17188.17969-.1836.15625-.1953.1211-.20703.09374-.21875.05469-.23047.01953-.23047-.01953-.21875-.05469-.20703-.09375-.19532-.1211-.18359-.15624-.17188-.17969-.30468-.42578-.24219-.5039-.17969-.55079-.10937-.58594-.03906-.59375h.83203l.03125.5625.07812.50782.1289.4414.16016.375.19141.30079.21094.22265.22265.13672.22657.04688.22656-.04688.22266-.13672.21093-.22265.1914-.30079.16017-.375.1289-.4414.08203-.50781.02735-.5625-.02735-.5625-.08203-.5-.1289-.4336-.16016-.36719-.1914-.29296-.21095-.21094-.22265-.13281-.22656-.04688-.22657.04688-.22265.1328-.21094.21094-.1914.29297-.16016.3672-.1289.43358-.07813.5-.03125.5625h-.83203l.03906-.58984.10937-.57812.17969-.54688.24219-.4961.30469-.41796.17187-.17578.1836-.14844.1953-.1211.20704-.08984.21875-.05469.23047-.01953m5.08984 0h.51172v6.29297h-.78906v-4.48828h-1.38672v-.55469l.5586-.0664.2539-.05469.22656-.08984.20703-.14063.17188-.21094.14062-.29296.10547-.39454m2.82422 2.17579h.78906l.01953-.31641.0586-.28906.09765-.25.14063-.21485.1836-.17578.22265-.1289.26562-.08204.30469-.02734.23828.02344.22656.0625.20313.10156.17969.13672.14843.17578.11328.20313.07032.23828.02734.26171-.02344.26954-.0664.22656-.10938.1914-.15625.17188-.19922.16016-.24609.16796-.63672.38672-.53516.3125-.4375.32032-.34765.32421-.26563.33594-.1875.35156-.125.3672-.0703.39452-.01954.41797h4.21094v-.73828h-3.33203l.08203-.28515.11328-.23829.14844-.19921.1875-.1797.23047-.17187.27734-.17578.71875-.41797.41406-.20703.34766-.23047.28125-.25.21875-.26562.16406-.28125.10938-.28125.0664-.28516.01953-.28125-.04297-.38281-.12109-.34766-.1875-.3086-.25-.26171-.30469-.21484-.34375-.15625-.38281-.10157-.40625-.03125-.4336.03125-.39843.09766-.35547.16797-.30469.23437-.2461.3047-.1875.375-.11327.4453-.04297.51954"/><path fill="#ffffe0" fill-rule="evenodd" d="M337.30469 333.61328h22.17969v-10.1914h-22.1797v10.1914"/><path fill-rule="evenodd" d="M340.80469 325.2539h.50781v6.29298h-.78516v-4.48829h-1.39062v-.55468l.5625-.06641.25-.05469.23047-.08984.20312-.14063.17578-.21093.14063-.29297.10547-.39453m4.8125 0l.23047.01953.21875.05469.20703.08984.19922.1211.18359.14843.17188.17578.30078.41797.24218.4961.1797.54687.11327.57812.03906.58985-.03906.59375-.11328.58594-.17969.55078-.24218.5039-.30079.42969-.17187.17969-.1836.15234-.19921.1211-.20703.09375-.21875.05859-.23047.01953-.22656-.01953-.21875-.0586-.21094-.09375-.19531-.12109-.1836-.15234-.17187-.17969-.30079-.42969-.24218-.5039-.1836-.55079-.10937-.58593-.03906-.59375h.83203l.03125.5625.08203.50781.125.4414.16406.375.1875.30079.21094.22265.22265.13672.22657.04688.22656-.04688.22266-.13672.21093-.22265.19141-.30078.16406-.375.125-.44141.08203-.50781.02735-.5625-.02735-.5586-.08203-.5039-.125-.4336-.16406-.36718-.1914-.28907-.21094-.21484-.22266-.13281-.22656-.04297-.22656.04297-.22266.13281-.21094.21484-.1875.28907-.16406.36718-.125.4336-.08203.5039-.03125.5586h-.83203l.03906-.58985.10937-.57812.1836-.54688.24219-.49609.30078-.41797.17187-.17578.1836-.14844.1953-.1211.21094-.08983.21875-.0547.22657-.01952m5.09375 0h.50781v6.29296h-.78516v-4.48828h-1.39062v-.55468l.5625-.06641.25-.05469.23047-.08984.20312-.14063.17188-.21093.14453-.29297.10547-.39453m6.80469 1.62109h-.78907l-.05078-.21484-.08203-.1836-.10547-.16015-.13281-.13282-.14453-.10156-.16016-.07422-.16797-.04687-.17187-.01172-.32813.03906-.28906.1211-.2461.1953-.20312.26563-.16015.33985-.1172.40234-.0703.46875-.02344.52734.1914-.20312.1836-.16016.1875-.1211.1836-.08983.1875-.0586.1914-.03906.40234-.02344.3086.03125.3203.09375.31641.15235.29297.21875.25781.28515.19532.35156.07422.19922.05078.21875.03125.23438.0039.25-.78515.04687-.02735-.25781-.07812-.25-.1211-.23438-.16015-.21093-.19531-.17969-.21875-.13672-.2422-.08594-.2539-.03125-.2539.03125-.2422.08594-.21874.13672-.19531.17969-.16016.21094-.1211.23437-.07812.25-.02734.25781.02734.26172.07813.25.12109.23438.16016.21093.1953.17579.21876.13671.24219.08985.2539.03125.2539-.03125.2422-.08985.21875-.13671.1953-.17579.16017-.21093.12109-.23438.07812-.25.02735-.26172.78515-.04687-.03125.3711-.08984.375-.16016.35546-.22265.32813-.28906.28515-.17188.11719-.1875.10156-.20313.08594-.22656.0586-.24219.03906-.2578.01562-.28516-.01953-.25782-.04688-.23828-.07421-.21484-.10547-.19531-.13282-.17579-.15625-.15234-.17968-.13672-.19922-.11719-.22266-.09765-.24219-.14844-.53515-.08203-.59375-.02734-.64063.03906-.74219.11328-.66406.1875-.57812.11719-.2539.13672-.23438.15625-.20704.16796-.17968.1875-.15625.20313-.1289.21875-.10157.23047-.07422.2461-.04297.26562-.01562.36328.03125.33203.09765.29688.15235.2539.19921.21485.23829.16406.27734.11719.30078.0625.32422"/></g></defs><use xlink:href="#ay"/></svg>