<svg xmlns="http://www.w3.org/2000/svg" role="img" xmlns:xlink="http://www.w3.org/1999/xlink" viewBox="142.45 309.95 326.84 171.84"><defs><clipPath id="a"><path d="M144 311.67188h1v168.65625h-1zm0 0"/></clipPath><clipPath id="b"><path d="M144 311.67188h324v168.65625H144zm0 0"/></clipPath><clipPath id="c"><path d="M381 457h14v23.32813h-14zm0 0"/></clipPath><clipPath id="d"><path d="M467 311.67188h1v168.65625h-1zm0 0"/></clipPath><clipPath id="e"><path d="M144 479h4v1.32813h-4zm0 0"/></clipPath><clipPath id="f"><path d="M147 480h2v.32813h-2zm0 0"/></clipPath><clipPath id="g"><path d="M153 479h9v1.32813h-9zm0 0"/></clipPath><clipPath id="h"><path d="M160 480h2v.32813h-2zm0 0"/></clipPath><clipPath id="i"><path d="M159 480h2v.32813h-2zm0 0"/></clipPath><clipPath id="j"><path d="M166 479h9v1.32813h-9zm0 0"/></clipPath><clipPath id="k"><path d="M173 480h3v.32813h-3zm0 0"/></clipPath><clipPath id="l"><path d="M172 480h2v.32813h-2zm0 0"/></clipPath><clipPath id="m"><path d="M180 479h8v1.32813h-8zm0 0"/></clipPath><clipPath id="n"><path d="M187 480h2v.32813h-2zm0 0"/></clipPath><clipPath id="o"><path d="M186 480h1v.32813h-1zm0 0"/></clipPath><clipPath id="p"><path d="M193 479h8v1.32813h-8zm0 0"/></clipPath><clipPath id="q"><path d="M200 480h2v.32813h-2zm0 0"/></clipPath><clipPath id="r"><path d="M199 480h2v.32813h-2zm0 0"/></clipPath><clipPath id="s"><path d="M206 479h9v1.32813h-9zm0 0"/></clipPath><clipPath id="t"><path d="M213 480h3v.32813h-3zm0 0"/></clipPath><clipPath id="u"><path d="M220 479h8v1.32813h-8zm0 0"/></clipPath><clipPath id="v"><path d="M227 480h2v.32813h-2zm0 0"/></clipPath><clipPath id="w"><path d="M233 479h8v1.32813h-8zm0 0"/></clipPath><clipPath id="x"><path d="M240 479h3v1.32813h-3zm0 0"/></clipPath><clipPath id="y"><path d="M246 479h9v1.32813h-9zm0 0"/></clipPath><clipPath id="z"><path d="M252 479h3v1.32813h-3zm0 0"/></clipPath><clipPath id="A"><path d="M260 479h8v1.32813h-8zm0 0"/></clipPath><clipPath id="B"><path d="M266 479h2v1.32813h-2zm0 0"/></clipPath><clipPath id="C"><path d="M273 479h8v1.32813h-8zm0 0"/></clipPath><clipPath id="D"><path d="M279 480h2v.32813h-2zm0 0"/></clipPath><clipPath id="E"><path d="M287 478h7v2.32813h-7zm0 0"/></clipPath><clipPath id="F"><path d="M300 478h7v2.32813h-7zm0 0"/></clipPath><clipPath id="G"><path d="M315 476h4v4.32813h-4zm0 0"/></clipPath><clipPath id="H"><path d="M328 476h5v4.32813h-5zm0 0"/></clipPath><clipPath id="I"><path d="M340 478h7v2.32813h-7zm0 0"/></clipPath><clipPath id="J"><path d="M353 479h8v1.32813h-8zm0 0"/></clipPath><clipPath id="K"><path d="M366 479h9v1.32813h-9zm0 0"/></clipPath><clipPath id="L"><path d="M380 477h7v3.32813h-7zm0 0"/></clipPath><clipPath id="M"><path d="M394 477h6v3.32813h-6zm0 0"/></clipPath><clipPath id="N"><path d="M407 478h7v2.32813h-7zm0 0"/></clipPath><clipPath id="O"><path d="M420 477h7v3.32813h-7zm0 0"/></clipPath><clipPath id="P"><path d="M433 479h8v1.32813h-8zm0 0"/></clipPath><clipPath id="Q"><path d="M440 479h3v1.32813h-3zm0 0"/></clipPath><clipPath id="R"><path d="M447 477h7v3.32813h-7zm0 0"/></clipPath><clipPath id="S"><path d="M460 477h7v3.32813h-7zm0 0"/></clipPath><clipPath id="T"><path d="M144 466h4v3h-4zm0 0"/></clipPath><clipPath id="U"><path d="M144 452h4v3h-4zm0 0"/></clipPath><clipPath id="V"><path d="M466 451h2v3h-2zm0 0"/></clipPath><clipPath id="W"><path d="M144 439h4v3h-4zm0 0"/></clipPath><clipPath id="X"><path d="M466 440h2v4h-2zm0 0"/></clipPath><clipPath id="Y"><path d="M144 426h4v3h-4zm0 0"/></clipPath><clipPath id="Z"><path d="M466 426h2v4h-2zm0 0"/></clipPath><clipPath id="aa"><path d="M144 411h4v5h-4zm0 0"/></clipPath><clipPath id="ab"><path d="M466 411h2v3h-2zm0 0"/></clipPath><clipPath id="ac"><path d="M144 398h4v4h-4zm0 0"/></clipPath><clipPath id="ad"><path d="M466 398h2v2h-2zm0 0"/></clipPath><clipPath id="ae"><path d="M144 384h4v6h-4zm0 0"/></clipPath><clipPath id="af"><path d="M466 385h2v3h-2zm0 0"/></clipPath><clipPath id="ag"><path d="M144 371h4v5h-4zm0 0"/></clipPath><clipPath id="ah"><path d="M466 371h2v3h-2zm0 0"/></clipPath><clipPath id="ai"><path d="M144 358h4v5h-4zm0 0"/></clipPath><clipPath id="aj"><path d="M466 358h2v2h-2zm0 0"/></clipPath><clipPath id="ak"><path d="M144 345h4v4h-4zm0 0"/></clipPath><clipPath id="al"><path d="M466 345h2v4h-2zm0 0"/></clipPath><clipPath id="am"><path d="M144 332h4v4h-4zm0 0"/></clipPath><clipPath id="an"><path d="M466 332h2v3h-2zm0 0"/></clipPath><clipPath id="ao"><path d="M465 332h3v3h-3zm0 0"/></clipPath><clipPath id="ap"><path d="M144 319h4v3h-4zm0 0"/></clipPath><clipPath id="aq"><path d="M465 318h3v2h-3zm0 0"/></clipPath><g id="ar" clip-path="url(#clip1)"><path fill="#fff" fill-opacity="0" fill-rule="evenodd" d="M0 0h1000v1000H0zm0 0"/><path fill="#d3d3d3" fill-opacity="0" fill-rule="evenodd" d="M162.15234 355.86719l-.23437.29297.0586.23437.11718.17188.17578.23437.29297.34766.11328.0586.11719-.17188.0586-.23438.17577-.17578.46485-.17578h.69922l.23437.29297.28906.8164.0586.17579.17578.23046.35156.23438.69922.69922.17188.17578.23437.34765.23438.41016.28906.58203.41015.46485.23047.23437.23438.17578.11719.23047.17578.29297.17187 1.16406v.23438l.0586.28906.05859.11719.11719.11719.34765.41015.11719.17188.17578.17578.17578.23437.11719.17188.17188.35156.05859.23438.23437.40625.23438-.0586-.17578.17578-.0586.92969h-.58203l-.23437-.11328-.34766.11328-.11719.11719-.05859.29297-.0586.17578-.11718.17187-.46484.29297-.0586.23438-.0586.11328v.64453l.0586.17187v.41016l.0586.0586v.40624l.05859.40625.11719.17579.05859.05859.23047.64062-.0586.29297v.69922l-.05859.58203v.23438l-.0586.23047-.05468.35156v1.92187l.05469.1172h.42578l-.36719.11718-.02344.35156.89063 1.16797 1.74219.53906 1.33984.35938v.53906l.08984.8086.53516.71484 1.51953.26953.89063-.08594.08984 1.16406.53516.1797 1.16015-.1797 2.05469-.98437 1.16016-.36328 1.8789-.17578 1.69531-.1797-.17968.71876-1.51563.08594-1.25.08984-.80469.26953-1.07421.8086.26953.71875.53515.89843-.17968.625-.26563.8086.26563 1.07812.625.89844.80468.17969 1.25-.1797-.26562.72267.09766.5039.05468.29297v.17188l.0586.29296v.40625l.17578.1172.35156.11718h.40625l.29297-.17578.11328-.11719.0586-.11719.11718-.23047.0586-.17578.35156-.46484.23047-.17578.17578-.0586.17578.0586.0586.17578.11718.98828.05469.46875.0586.17188.11718.23437.17578.0586.8164.05859h.28907l.11719.23437.05859.40625.0586.35156v1.10547l.11718.29297.11719.34766.28906.69922.17578.35156.58203.7539.35157.17579.17187.0586.46875.23437.64063.46484.34765.23438.29297.17578.29297.05468.23047.0625.8164.34766.29297.17578.11328.17188.35157.35156.11719.17578.52343.64063v.28906l.0586.35156v.34766l.05859.35156.0586.28906.11718.0586.17188.05859h.17578l.58203.23437.17578.1172.17578.28905.17578.23438.11328.23437.29297.23047.11719.11719v.41016l.0586.05468.28906.23438.23437.11719.0586.11718.11718.17188.0586.11719.23047.23437.05859.17578.23437.0586.1172.05859-.1172.11328-.05859.11719v.11719l-.11719.29296-.11719.28907v.58203l.17579.11719.11718.05859.0586.11719.11719.11719.11328.05859.17578.34765.0586.35157.05858.40625v.17578l-.05859.17578-.11719.69922v.17187l.1172.17579.29296.29296h.40625l.17578.1172.11719.17187.11719.29296v.23438h-.52735l-.23047-.23438h-.23437l-.17578.0586-.0586.69922.0586.34765.11719.17579.17578.41015.11718.23047.28907.46875.17578.05469h.52344l.23437.0586.75781.64062.0586.29296v.23438l.05859.0586.23047.34765v.35156l-.11719.17188v.29297l.29297.28906.29297.17578.17187.0586.29297.17577.29297.1172.58203.40624.28906.23438.29297.17578.21875.16015.01563.01172.23047.17579.64062.52343.17578.23438.1172.17578.17577.17578.11328.17188v.64062l.1172.17578.46874.11719.58203.11719.23438.05859.23047.11328.29297.11719.11328.0586.58593.35156.28907.17187.17578.0625.17578.05469.17578.0586.69922.35155.28906.17579.23438.05468.28906.17578.23437.1172.64063.40624.29297.11719.17187.0586.23438.05859.41015.05859.23047.0586.23438.11718.0586.17188-.41017.17578.46875.0586.0586.29296.11328.23438.17578.05468.23438.0586.17578.05859.40625.11719.64062.23437.11719.17188.0586.23437v.17578l-.0586.1172-.0586.40624.23438.23438.11719.05859.34766.11719.64062.23047.17578.11718.28906.1172.17578.17577.23438.46485.58203 1.10546.17578.17579.34766.17578.17578.11719.35156.11718 1.04688.52344.23437.0586.46485.11327.29297.0586.46484.17578.75781.58203.23438.23438.34765.46484.17578.17578.28907.23438.8164.69921.29297.17579.28906.28906.29297.17578.29297.28906.69531.64063.17578.17578.29297.23437.28907.23438.46875.28906.64062.58203.34766.23438.23437.29297.34766.34765.35156.46485.9336.99218.34765.40625.11719.17579.23437.05859.11328.11719.64454.17578.23047.11328.23437.0586.29297.17577.23047.1172.9336.69921.40624.40625.23438.17578.40625.17578.23437.11719.8164.34766.34766.23437.23438.11719.29297.28906.23047.11719.7578.35156.35157.17188.23047.05859.29297.11719.23437.0586.8711.17577h.8164l.46875.23047.17188.0586.875.69921.46484.1172.29297.05858.17578.0586.23047.0586.46875.05859.34766.05859.35156.0586.40625.05859h.29297l.17187.0586v.23046l.17578.17578h.29297l.34766.0586.35156.05859.69922.11719h.64063l.46484-.23438.29297-.17578.17187-.11719.41016-.17187.28906-.17578.9336-.46485.46875-.29297.52343-.29296.46485-.17188.46484-.17578 1.05078-.46485.28906-.11718.41016-.11719.28906-.11719.52735-.17578 1.51562-.69922.58203-.34765.28907-.0586.29297-.0586.34765-.11718.875-.23047.35156-.11719h.11329l.23437-.05859.875-.23437.23438-.0586h.8125l.35156-.0586.8164-.11718.17188-.0586.35156-.05468.29297-.0586.23047-.05859.8164-.17578.17579-.0586h.34765l.23438-.05859.46484-.11718.75781-.17188.23438-.0586h.34765l.41016-.11718.28906-.0586 1.28516-.05859h.28906l.41016-.0586.23047-.05858h.17578l.875-.1172h.40625l.41015-.11718h.34766l.35156-.11328.8711-.0586h1.75l1.04687.28907.41016.11719.28906.11718.35156.11719.28907.11719 1.05078.17187.28906.0586h.29297l.29297.05859.17187.0586.41016.05859.17187.0586.1172.05858h.11718l.11719.0586.35156.0586h.11328l.41016.0664 1.92187.39453 1.92578.39453 1.51953.44922 1.69532.71875 2.14453.80469 1.60547-.71875 1.42968-.80469 1.16016-1.07813 1.25-.44921 3.03516-.71875 1.875-.35938 2.14453-1.34765 2.23437-1.25391 2.5-1.25781 1.69531-.44922 1.78516-.17969 1.16016-.26953.625.53906 1.33984-.26953.71485-.98828.98437-1.34375.44531-.17969.80469-.35937 1.875-.53907 1.78516-.44921 1.25-.26954 1.16015-.08984 1.69922-.08984 1.96094-.26954 1.25-.08984h.53906l.625-.08984h.89063l2.14453-.17969 2.41015-.17969 2.58985-.08984 1.69531.17969 1.60938.08984 1.42968.35938 1.16016.71875 1.875.98828 1.16015 1.52734.26563.71484.6289.08985.35548.89844.53515.53906.53516 1.52734 1.07422.35938h.53515l-.80469.53515.08985 1.70703.71484 2.69532.89063.80468.89453.98829.71484 1.2578 1.78516.53907 1.51953-.17969.35547 1.34375 1.60937-.80469.98047-.53906.26953.26953.31641-.21484.21875-.14453.80078.44922.44922-.35938h.35547l.53515-.26953.53907-.71875.53515-.26953.625-.98828 1.16016.44922.83984.3711 1.39454.61718 1.6953-.17969h1.60548l1.78515.08985.17969-1.70704.53516-1.34375.80468.26954.4922.84765.40233.40625-.08984.53906v.35938l.71485.44922.71093-.26953h1.42969l.35938.98828.4453 1.25781.71485 1.34375 1.25.6289 1.69531.62891.71485-.17969.17969-.53906.98046-.08984.44922.35937.08594 1.25782-.26563.6289-.53515.17969v.53906l.71484.98438.26563.53906.98437.98828.80078 1.07813-.26562.35937-.08985.89844-.625 2.33203-.35546 2.0664-.08985 1.79298-.17969.71875-.08984.53906v1.4375l-.98047 1.88281-.35937 1.70703-.53516.89844-.80469 1.16797-.26562.53906 2.05469 1.2539.08593.35938-.35546.53906-.08985-.17968v.80859l.08985 1.4375-.44532.71484-1.07422.09375-.26562.71485.53515.89844.8047.71875 1.16015.80859 1.33984.26953.44531.35938-.35546.44921-1.78907-.08984-1.25-.44922-.71484-.71875-.625-.08984-.17578 3.58984-.1875 1.3086h89.35937V311.70313h-55.26953v49.08203l.76172.125 3.28906.54296 2.02344 2.83594v2.7539l2.35156.33204 2.34766.33203h4.05078l-1.3789 4.16016-2.02344.70703-2.02344.70312-.54297.34375-2.59375 1.6172-.1875.11718-2.02344-2.07813-.73046-2.74218-2.67188-2.07813-1.375-3.5-.0664-.08203-1.95704-2.67188 2.75-1.41796v-49.08204H294.42187v91.41407l.1172.03125.1328.01172.07422.07421.10547.04688.08985.0586.08593.05859.08985.0586.29687.29687.0586.08984.03125.11719.02734.11719.01563.13671-.03125.1172-.0586.08983-.0586.08594-.04296.10547-.04688.10156-.02734.1211v.14453l.17578.26953.14844.14844.07422.08594.07422.07421.04296.10547.0625.08985.0586.08593.04297.10547.0586.08985.04687.10156.04296.10547.0586.08594.11719.17968.07421.07422.0625.08594.0586.08984.04297.10547.0586.08985.05858.08593.0625.08985.0586.08984.04297.10156.11719.17969.07421.07422.0586.08594.07422.07421.08984.0586.10547.04687h.14844l.1328-.01562.13282.01562.10156-.04687.07422-.07422.04688-.10156-.01563-.13281v-.14844l-.04687-.10547-.02735-.11719-.04687-.10156-.02735-.1211-.04296-.10156-.0625-.08984-.04297-.10156-.04297-.10547-.03125-.11719-.01563-.13281-.01171-.13672.08593-.0586.0586-.08593.12109-.03125.04297.10547.01562.1328v.1172l.0586.10156.0586.08984.08983.0586.14844.14843.0586.08985.04296.10547-.01171.10156.08593.0586.10547.04687.08594.0586.08984.05858.07422.07422-.11719.02735-.10546.04687-.08594.0586-.07422.07421-.0586.08985-.0625.08594-.02734.12109-.04687.10156-.04297.10547-.03125.11719-.01172.13281-.01563.13281v.14844l.02735.11719.04687.10547.04297.10156.0586.08984.07421.07422.08985.0586.07422.07421.08984.0586.0586.08984.04296.10547.04688.10156.11719.03125.1328.01563h.14845l.11718-.03125.10547.04297.04297.10547.04688.10156.02734.1211L299.5 410l.02734.11719.03125.1211.02735.11718.10547.04297.10156.04687.13281-.01562.14844.14844.0625.08593.07422.07422.07031.07422.08984.0625.10547.04297.10156.04297.1172.03125.13671.01562.11719-.03125.07422-.07422.02734-.11718-.01172-.13282-.03125-.12109-.02734-.11719.04297-.10547h.11719l.08984.0625.11719.02735h.14843l.13282.01562h.14843l.13282.01563.1328-.01563h.14845l.1328-.01562.13282-.01172.13672.01172.11719-.02735.13281-.01562.1914-.0586-.05859.17579-.01562.1328-.02735.1211-.01562.13281-.0586.08594-.1328.01563-.10548.04687-.10546.04297-.1172.03125-.11718.02735-.26563.03125h-.14843l-.13281.01562-.07422.07422.05859.08594.14844.14843.11719.1797.07421.0703.08985.0625.08984.0586.08594.0586.08984.05858.10156.04297.10547.0625.10547.04297.08594.0586.10547.04687.10156.04297.17969.11719.0586.08984-.04298.10156-.04687.10547.01562.13281.22266.22266.0586.08985.04296.10156.03125.1211.04297.10155.01563.13282.03125.11718.01171.13672.03125.11719.14844.14844.10156.04297.10547.04296.1172.03125.1328.01563.13672.01563h.11719l.11719-.03125.08984-.0586.04297-.10547.04688-.10156.04296-.10547.03125-.11719.01172-.1328v-.14845l-.01172-.1328-.01562-.13282-.03125-.11719-.04297-.10547-.04688-.10547-.04296-.10156-.04297-.10547-.01563-.13281.01563-.13281.02734-.11719.03125-.11719.02735-.1211.04687-.10155.08984-.0586.08594-.0625.07422-.07422.08984-.05859.22266-.22266.0586-.08593.07421-.07422.11719-.17969.0586-.08594v-.14844l-.07423-.07421-.10156-.04688-.10547-.04297-.10156-.04297-.0586-.08984-.04687-.10547-.02734-.11719.08984-.05859.11719-.03125.10156-.04297.17969-.11719.14844-.14843.01172-.13282-.01172-.10546-.08985-.0586-.1328.01563h-.14845l-.1328.01562-.13282-.01562-.1211-.03125-.08593-.0586-.07422-.07422-.0586-.08984-.0625-.08594-.11718-.17969-.0586-.08593.03125-.1211.08594-.05859.1211-.03125.05859-.08594v-.1211l-.03125-.11718-.0586-.08984-.05859-.08594-.04687-.10547-.02735-.11719-.01562-.1328.0586-.08985.07421-.07422.08984-.0586.1172-.17968.07421-.07422.0586-.08594.14843-.14844.1211-.03125.1328-.01562.13282.01562.07422.07422.04297.10547.01562.13281-.03125.1172-.11719.03124-.1328.01172-.14844.14844-.04297.10547-.04688.10156-.02734.1211-.03125.11718v.14844l.03125.11719.04297.10546.05859.08985.07422.07031.07422.07422.11719.03125.12109.02734.11719-.02734.1328-.01563h.1172l.08984.0586.07422.07422.04687.10546.0586.08594.10156.04688.13281.01562.10547.04297.08594.0586-.01172.10546-.07422.07422-.17969.11719-.05859.08984-.08984.0586-.07032.07422-.07421.07421-.0625.08985-.02735.11719-.01562.1328.01562.13282-.01562.13281v.14844l.01562.13281.02735.1172.03125.12108.07421.07422.08985.0586.08594.0586.08984.05858.11719.03125v.08594l-.10157.04688-.08984.0586-.26563.03124-.11718.02735h-.14844l-.10547.04296-.10156.04688-.0586.08984-.0625.23438-.01171.13281-.03125.1211-.01563.1328v.29298l-.01172.1328.01172.13673.01563.1328.1328.01563.13282.01172.1211.03125.08593.0586.07422.07421.04688.10547.04296.10157.01563.1328v.44532l-.01563.13281v.44532l.03125.26562.02735.11719.01562.13281.03125.11719.08594.21094.03125.26562v.14844l-.03125.11719-.02734.11718-.03125.1211-.02735.11719-.03125.11718-.03125.1211-.01171.1328-.01563.13282.08984.0586.1172-.03125.10155.01562.04688.10547-.03125.26562v.44141l-.04297.10547-.04688.10547-.04296.10156-.04297.10547-.0586.08594-.03125.12109-.04296.11719-.03125.11719-.01563.1328.01563.13282.05859.08984.10547.04688.08594.0586.05859.08593-.01172.13672-.03125.11719-.04297.10156v.44531l-.01562.13281v.14844l-.03125.11719-.04297.10547-.02735.11719-.04687.10546-.04297.10157-.03125.12109-.02734.11719-.03125.13281-.03125.11719-.02735.11719-.04297.10546-.03125.1172-.03125.12108-.01171.13282-.01563.13281v.29688l.02734.11718v.14844l.04688.39844.02734.11719.0586.08984.12109.03125h.14844l.13281-.01563.0586.08985v.11719l-.0586.08984-.08984.0586-.10157.04296-.10546.04688-.08985.05859-.08594.0586-.13671.01562-.1172-.03125-.1328-.01563-.10157.04688-.0625.08594-.01172.13671-.01562.13282-.03125.11719-.02735.11718-.01562.13281-.03125.1211v.29687l.01563.13282.03125.11718v.14844l.01171.13281v.14844l-.02734.11719-.04688.10156-.02734.1211-.03125.11718-.0586.08985-.07421.07421-.10156.04297-.10547.04688-.11719.02734-.1211.03125-.10156-.04687.0586-.08594.10547-.04688.02734-.11718.03125-.11719.02734-.1211.03125-.11718v-.14844l.01563-.13281-.03125-.11719-.04297-.10547-.10547.01563-.07422.07422-.10156.04296-.08984.0625-.07422.07422-.04297.10157-.01563.1328-.03125.1172L304.25 426l-.03125.11719-.02734.11719-.03125.12109-.02735.11719-.03125.11718-.04297.10547-.08984.0586h-.08984l-.1172-.03125-.03124-.08594.01562-.13672-.03125-.11719v-.14844l-.01171-.1328v-.14844l-.0625-.23438-.02735-.1211-.04297-.10156-.04687-.10546-.0586-.08594-.05859-.08985-.04297-.10546-.0625-.08594-.14844-.14844-.0703-.07422-.10548-.04687-.10547-.04297-.10156-.04297-.29687-.29688-.08985-.07421-.08594-.0586-.10546-.04297-.08985-.0625-.08594-.0586-.10546-.04296-.08985-.0586-.08594-.0625-.07421-.0703-.10547-.04688-.08594-.0586-.10547-.04296-.08984-.0625-.10156-.04297-.10547-.04297-.08594-.0586-.10547-.04687-.10547-.04297-.10156-.04687-.08985-.0586-.10156-.04297-.10547-.04296-.08984-.0625-.11719-.02735-.13281-.01562-.13281.01562H299.75l-.13281.01563-.11719-.03125-.08984-.0586-.07422-.07422-.08985-.05859-.10156-.04688h-.14844l-.12109-.02734-.10156-.04297-.07422-.07422-.11719-.17968-.08984-.0586-.10156-.04297-.08985-.0625-.10547-.04296-.08984-.0586-.08594-.0586-.10547-.04687-.0586-.08594-.05858-.08984-.04297-.10547-.04688-.10156-.07422-.07422-.08594-.0586-.07421-.07421-.08985-.0586-.22265-.22265-.04297-.10547-.03125-.26563.10547-.04296h.14453l.10547.04296.07421.07422.08985.0586.08594.0586.10546.04687.08985.05859.14844.14844.0703.07422.14845.14843.0625.08594.07421.07422.08594.0586.07422.07421.08985.0625.08984.0586.08594.05859.26953.17578.10156.04688.10547.04296.10156.04297.04688-.07421.05859-.08594.07422-.07422.07031-.07422.10547.04297.07422.07422.0586.08984.04296.10156.04688.10547.04296.10547.1211.02735.11719-.02735.07421-.08984.04297-.10547.0586-.08985.07422-.07421.10546-.04297.1172-.02735.1328.01172.08985.0586.14844.14843.05859.08985.04297.10547.04687.10156.04297.10547.04297.10156.10547.04688.10547.04296.13281.01563.08594-.0586.0586-.08984.07421-.07422.10547-.04297.11719.02735.10547.04687.10156.04297.10547.04297.10156.04688.17969.11718v.11719l-.01563.13281.01563.13281.01562.13672.0586.08594.10156.04688.1211.02734.11718.03125h.14844l.11719-.03125.05859-.08984.17969-.1172.05859-.08983.07422-.07422.0586-.08594.11718-.17969.17969-.11719.11719.03125.08984.0586.04297.07422-.01563.1328v.1172l.08985.05859h.14843l.13282-.01563.1328-.01171.26563-.03125.10547-.04297.11719-.03125.1211-.02735.07421-.07421.07031-.07422.0625-.08985-.01562-.10547-.04688-.10156-.10156-.04297-.10547-.01562-.11718.02734-.26563.03125h-.14844l-.07421-.07422-.08985-.0586-.11719-.03124-.11718-.02735-.13282-.01562h-.14843l-.13282.01563h-.29687l-.10547-.04688-.14844-.14844-.04297-.10156-.05859-.08984.22266-.22266.08593-.0586.10547-.04296.11719-.03125.13281-.01563.13281.01563.13672.01562.10157.04297.1328-.01172.08985-.0625.10156-.04297.0625-.08984-.04687-.10156-.08984-.0586-.1172-.03125-.10155-.04296-.0586-.08985-.0625-.08984v-.11719l.01563-.13281.10547-.04688.07421-.07031v-.1211l-.08984-.05859-.03125-.11719.08985-.05859.07421-.07422.04297-.10547.0586-.08984.04687-.10156.01563-.13281v-.14844l-.04688-.10547-.04297-.10156-.08984-.0586-.13281-.01562-.10157-.04297-.13671-.01563-.1172-.03125h-.4453l-.13282-.01562-.13281-.01172-.13281-.01563-.11719-.03125h-.14844l-.13281-.01562-.13281-.01172-.26563-.03125-.1211-.04297-.08593-.0586-.07422-.07421v-.14844l.01172-.13281.10547-.04688.10156-.04296.13281-.01563h.15235l.13281-.01562h.29297l.1211.03125.10156.04296.08984.0586.23438.0625.12109-.04688.08984-.05859.10156-.04297.13282-.01562.10547.04296.10156.04688.13281.01172.1211-.02735h.14453l.12109-.03125.11719-.02734.10547-.04687.07421-.07422.08594-.0586.14844-.14843.0586-.08594.04687-.10547.02734-.11719.01563-.10547-.10156-.04296-.08985-.0586-.11719-.03125-.10546-.04297-.08985-.0625-.07422-.08594-.07422-.07421-.10156-.04297-.10547-.04688-.10156-.04297-.0586-.08984-.04687-.10156-.08594-.21094-.0625-.08594-.05859-.08984-.07422-.07422-.08594-.0586h-.26953l-.11719.03126-.08984.05859-.10156.04297-.13281.01562-.10547-.01562-.02735-.11719-.0625-.08984-.11718-.03125-.10157-.04297-.14843-.14844-.03125-.11719-.01563-.10546.07422-.07422.17969-.1172.11719-.02733.11718-.03125.13672.01562.10156.04297.10547.04297.10156.04687.10547.04297.1172.03125.1328.01563.1172.02734.1328.01563.10547-.01563.08985-.0586-.07422-.07421-.10547-.04297-.07422-.07422-.07422-.08984-.14844-.14844-.08593-.0586-.08985-.05859-.07422-.07422-.08984-.0586-.10156-.04687-.1211-.02734-.10156-.04688-.10547-.04296-.11719-.03125-.10156-.04297-.1211-.03125h-.14843l-.11719.03125-.10546.04297-.08594.0625-.17969.11718-.08594.0586-.08984.0586-.10547.04687-.08594.05859-.10547.04297-.10156.04297-.10547.04687-.07422.07422-.05859.08985-.0586.08593-.04687.10547-.0586.08594-.07421.07422-.13281-.01172-.1172-.03125h-.11718l-.07422.07422-.08984.0586-.07422.07421-.08984.0586-.08594.05859-.10547.04687-.10156.04297-.13672.01563-.10156-.04297-.14844-.14844-.10547-.04688h-.08594l-.10547.04688-.10156.04297-.1211.03125-.11718-.03125-.07422-.07422v-.11719l.03125-.1211.07422-.0703.0586-.08985.07421-.07422.11719-.03125.10547-.04296h.29297l.13281-.01563.13672-.01563.10156-.04296.08985-.0586.10156-.04687.08984-.0586.13281-.01171.08985.05859.13281.01172.08984-.0586.08594-.05859.10547-.04297.08984-.0586.08594-.0625.08985-.05859.14843-.14843.0586-.08594.05859-.08985.10547-.04296.13281-.01563.11719.02735.1211.03125.05859-.0586.05859-.08984.03125-.26563.02734-.11719.10547.01172.13281.01563.10157-.04297.08984-.0586.0586-.08984.07421-.07422.0586-.08984.04687-.10156.01172-.13281-.01172-.13282-.04687-.10547-.14844-.14843-.0586-.08985-.05859-.08594-.04297-.10546v-.44532l.01563-.1328v-.14845l.01172-.1328-.0586-.0586-.08984.0586-.10156-.04298-.17969-.11719-.08594-.05859-.0625-.08984-.0586-.08985-.07421-.07421-.08594-.0586-.1211.03125-.10155.01172-.10547.04688-.08594.05859-.10547.04297-.14844.14844-.08984.05859-.08594.0586-.08984.0625-.10547.04296-.13281.01563v-.1211l.10547-.04297.11718-.03125.07422-.0703.04297-.10548v-.14844l-.02734-.11718-.14844-.14844-.13281-.01563h-.14844l-.11719.03125-.10547.04297-.10156.04297-.08984.0625-.11719.02735-.07422-.07422.01172-.13281-.04297-.10157-.04297-.10547-.08984-.05859-.11719.02734-.1211.03125-.11718.03125-.10156.04297-.1211.03125-.10156.04297-.10547.04297-.08984.0586-.10156.01562v-.11719l.01562-.13281-.0586-.08985-.07421.04297-.14844.14844-.0586.08985-.07421.07421-.04688.10547-.04296.10156-.07422.07422-.0586.08985-.07422.07422-.05859.08593-.07422.07422-.08984.0625-.07422.07031-.07422.07422-.10156.01563-.13281.01562-.10547-.04296v-.1211l.14843-.14844.04297-.10156.0586-.08984.04687-.10156.04297-.10547.0586-.08985.03124-.11719.04297-.10156.03125-.1211.02735-.11718.04687-.10547.04297-.10156.04297-.10547.07422-.07031.08984-.0625.08985-.0586.10156-.04296h.29687l.26563-.03125.10547-.04297-.07422-.07422-.11719-.03125-.10547-.04297-.08984-.0586-.10156-.04687-.08985-.0586-.10156-.04296-.10547-.04297-.08984-.0625-.08594-.0586-.10547-.04296-.10156-.04297-.1211-.03125-.11718-.03125-.10157-.04297L297.5 410.25l-.10156-.04297-.08985-.0586-.04296-.10546-.01563-.13281.10156-.04297.13281-.01563.13672.01563.13282-.01563.10156-.04297.0586-.08984.01562-.10547-.08985-.0586-.07421-.07421-.10157-.04297-.08984-.0586-.14844-.14843-.04297-.10547-.01562-.13281v-.29297l-.0586-.08985-.08984-.05859-.07422-.07422-.04297-.10547-.03125-.11718-.0586-.08985-.07421-.07422-.11719-.02734-.07422-.07422-.08984-.0586-.08984-.0625-.08594-.05859-.07422-.07421-.0586-.08594-.04687-.10547-.08594-.0586-.14843-.14843-.19532-.0586-.1328.01563-.10157.04297-.07422.07422-.04688.10156-.04296.10547-.0586.08984-.0586.08594-.29687.29687-.08984.0586h-.08594l-.0625-.08594-.04297-.10547.03125-.11719.0586-.08984.02734-.11719-.01172-.13281-.08984-.0625-.10547.04688-.11719.02734-.11719.03125-.26953.17578-.10156.04688-.11719.02734-.10546.04687-.08985.0586-.10156.04297-.0586-.08594-.04687-.10547.01563-.13281.04687-.10547.07031-.07422.07422-.07031.0586-.08985v-.14843l-.04297-.10547h-.23829l-.10156.04687-.03125.11719-.02734.11719-.03125.1211-.07422.04296-.13281.01563-.07422-.04688-.04297-.10156-.04297-.10547-.04687-.10156-.04297-.10547-.1211.03125-.10156.04297-.13281.01562-.11719.03125-.10547.04297-.08984.0586-.10156.04687-.1211.02734-.13281.01563-.10156-.04297-.0586-.08985-.04687-.10546-.04297-.10157-.04297-.10546v-.1172l.0586-.08984.08593-.05859.17969-.11719.10156-.04687.10547-.04297.10547-.0586.10156-.04296.08985-.0625.10156-.04297.10547-.0586.10156-.04687.08984-.0586.10547-.04296.10156-.04297.08985-.0625.10156-.04297.13672-.01563.11719.03125.10156.04297.1211.03125.10156.04297.10546.04688.10157.04296.10547.04297.10156.04688.10547.04297.10156.04297.10547.04687.08594.0586.10546.04296.1172.03125.10546.04297.10156.04688.08985.0586.10547.04296.10156.04297.10547.04687.11719.02735.10156.04687.1211.02735h.14843l.08594-.0586.01562-.10156.0586-.08984-.02735-.1172-.07422-.07421-.11719-.17969-.07421-.07422-.08985-.07421-.17969-.1172-.08593-.05859-.10547-.04296-.10156-.04688-.26954-.17578-.05859-.08985-.07422-.07421-.0586-.08985-.04296-.10156-.03125-.11719-.01563-.13672v-.5625l-.01171-.1328-.01563-.13282-.03125-.11719-.01562-.13281-.01172-.13281-.03125-.1211-.22266-.22265-.0586-.08594-.01562-.10547.03125-.11719.13281-.01562v-91.41406H172.9922v1.45312l-.0586.23438-.35156 1.05078-.17187.52343-.1172.34766-.17577.41016-.11719.17187-.23438.29297-.23046.0586h-.35157l-.11718.05859-.23047.40625v.29297l.11719.17578.23046.23047.1172.23437.64062.75781.29297.46485.17578.23437.23047.35156.23437.34766.64063.8164.17578.46485.17187.41016.11719.69531.17578.46875.11719 1.39844.0586.46484v.875l.11718 1.04688v4.78125l-.0586.46484-.35156 1.28125-.17578.52344-.11328.41015-.35156.9297L172.93359 336l-.23437.58203-.11719.17578-.17187.34766-.17578.40625-.35157.8164-.0586.29297-.11327.29297-.11719.28906-.0586.17579-.11718.875-.0586.40625-.05859.11718-.0586.17579-.05859.17187-.23047.52734-.11718.17188v.23437l-.11719.23438-.0586.17187-.17577.58594v.28906l-.0586.17579v.29296l-.0586.11329-.05859.52734v.17187l-.05468.23438v2.6211l-.17578.8164-.1172.17578-.17577.23438-.1172.17187-.11327.23438-.58594.93359-.23047.28906-.29297.46485-.17578.23437-.28906.35156-.35156.69922-.11328.23047-.17579.41016-.17578.23046-.40625.52735-.8164.69922-.29297.17187-.28906.23438-.17579.11719-.17578.17578-.52344.40625-.52734.17578-.17187.17578-.23438.05469-.64062.17578h-.75782m12.21094 31.02344l-1.07422.44921.35938.89454 1.25-.71485.44531-.53906-.98047-.08985"/><path fill="#d3d3d3" fill-opacity="0" fill-rule="evenodd" d="M201.50781 416.59766h-.89453l.44922.6289.98047.35938.80469-.08985.4453-.98828-.17577.08985-.71485-.35547-.89453.35547m154.6211 59.0703l-.0586-.52343v-.29297l.11328-.29297.0586-.23046.46875-.46875h.11328l.11719-.11329.11718-.05859h.17579l.23437-.0586h.34766l.23437.0586.11719.0586.23047.17187.0586.17578.11718.58203v.29297l-.11719.17578-.17187.28906-.17579.17579-.52734.52343-.23047.23438-.11719.0586h-.17578l-.11718-.0586-.40625-.29297-.17579-.11719-.11718-.0586-.0586-.11327-.05468-.1172m6.64062-10.95702l-.0586-.17188v-1.10937l.0586-.17188.17578-.0586.17188-.05858h.17578l.23437-.0586.1172.0586.05858.69921-.05859.17188-.11719.17578-.11718.0586-.23438.52343-.11328.0586h-.23438l-.05859-.1172m9.61328-14.39062l-.11719-.17578v-.69922l.29297-.875.1172-.17187.17577-.35156.11328-.23047.1172-.29297.35155-.75781.1172-.23047.17187-.23438h.17578l.11719-.0586h.64062l.11719.0586.23437.23438.17188.11328.35156.29297.11719.11718.11328.17579v.11328l.11719.05859.11718.11719v.69922l-.05859.17578v.23047l-.0586.17578-.34765 1.05078-.11719.23047-.11719.23437-.11718.0586-.23047.23437-.64063.28906h-.875l-.41015-.11718-.64063-.46485"/><path fill="none" stroke="#bebebe" stroke-linecap="round" stroke-linejoin="round" stroke-miterlimit="10" stroke-width=".5" d="M467.95703 311.69531H144.02734v168.625h323.9297v-168.625"/><g clip-path="url(#a)"><path fill="#fff" fill-opacity="0" fill-rule="evenodd" d="M144 475.89063v4.4375h.0039H144V311.67188h.0039H144v164.21875"/></g><g clip-path="url(#b)"><path fill="#fff" fill-opacity="0" fill-rule="evenodd" d="M144.0039 480.32813V311.67188h22.1875v122.46875l-2.47656 1.80468-1.96093 2.39063-1.77344 2.04687 1.00781 4.4375.76563 1.16406 1.65234-1.16406 2.78516-1.16797 4.4375.48829 3.3125-3.75782-3.3125-3.40234-1.71875-1.03516-2.71875-1.80469V311.67188h13.3164v127.9375l-.39844.77344.39844.33985.19922-.33985-.19922-.77344v-127.9375h35.50781v111.15235l-4.4414 3.22265-4.4375-.78515-4.4375.09375-4.4375.21094-4.4414 1.23828-1.44141.26562 1.4414.35938 4.4414 1.48047 1.46485 2.59765 2.97266 2.85938v8.125l-.45313 2.32812.45313.28516.25781-.28516-.25781-2.32812v-8.125l4.4375.57031 4.4375.97656 4.4414-2.73047 1.03516-1.67578 3.40234-3.05469 4.4375-.51953 2.375 3.57422 2.0625 1.53125 1.84375 2.90625 2.59375 2.46485 3.35157-2.46485-3.35156-2.73437-2.76954-1.70313-1.66797-2.02344-3.60156-2.41406-.83594-1.03906-4.4375-.58203-4.4375-2.625V311.67187h26.62891v126.6211l-2.13672 2.08984 2.13672 1.92578 2.09375-1.92578-2.09375-2.08984v-126.6211h133.14844v136.91016l-.70313.67969.70313.63281.63672-.63281-.63672-.67969V311.67188h93.20312v168.65625h-73.77734l-1.67188-2.44922-4.4375-.79688-3.92578-1.1914 3.76954-4.4375.15625-.08985 2.1953-4.34765-2.1953-3.73438-.59766-.70703-2.91016-4.4375-.92969-.57422-.41796.57422-2.25 4.4375 2.66796 4.17969.3125.26171-.3125.51954-1.40625 3.91796 1.22657 4.4375.17969 1.20704.5039 3.23046H144.00391"/></g><path fill="#50fcfc" fill-rule="evenodd" d="M160.98828 444.82031l-1.00781-4.4375 1.77344-2.04687 1.96093-2.39063 2.47657-1.80469 2.71875 1.8047 1.71875 1.03515 3.3125 3.40234-3.3125 3.75781-4.4375-.48828-2.78516 1.16797-1.65234 1.16406-.76563-1.16406m18.51953-4.09765l-.39844-.33985.39844-.77344.19922.77344-.19922.33985m13.3125-13.29297l-1.4414-.35938 1.4414-.26562 4.4414-1.23828 4.4375-.21094 4.4375-.09375 4.4375.78515 4.44142-3.22265 4.4375 2.625 4.4375.58203.83593 1.03906 3.60156 2.41406 1.66797 2.02344 2.76953 1.70313 3.35157 2.73437-3.35156 2.46485-2.59375-2.46485-1.84375-2.90625-2.0625-1.53125-2.375-3.57422-4.4375.51954-3.40235 3.05468-1.03516 1.67578-4.4414 2.73047-4.4375-.97656-4.4375-.57031-2.97266-2.85938-1.46484-2.59765-4.4414-1.48047m8.8789 17.67578l-.45313-.28516.45313-2.32812.25781 2.32812-.25781.28516m39.94531-2.79688l-2.13672-1.92578 2.13672-2.08984 2.09375 2.08984-2.09375 1.92578m133.14844 7.58594l-.70313-.63281.70313-.67969.63672.67969-.63672.63281"/><g clip-path="url(#c)"><path fill="#50fcfc" fill-rule="evenodd" d="M383.67188 466.7539l-2.66797-4.17968 2.25-4.4375.41796-.57422.9297.57422 2.91015 4.4375.59765.70703 2.19532 3.73438-2.19531 4.34765-.15625.08985-3.76954 4.4375 3.92579 1.1914 4.4375.79688 1.67187 2.44921h-10.04297l-.5039-3.23046-.1797-1.20704-1.22656-4.4375 1.40625-3.91796.3125-.51954-.3125-.26171"/></g><g clip-path="url(#d)"><path fill="#fff" fill-opacity="0" fill-rule="evenodd" d="M467.9961 480.32813H468V311.67188h-.0039H468v168.65625h-.0039"/></g><g clip-path="url(#e)"><path fill="none" stroke="#000" stroke-linecap="round" stroke-linejoin="round" stroke-miterlimit="10" stroke-width=".5" d="M147.46094 480.9414l-6.92188-1.22656"/></g><g clip-path="url(#f)"><path fill="none" stroke="#000" stroke-linecap="round" stroke-linejoin="round" stroke-miterlimit="10" stroke-width=".5" d="M147.46094 480.9414l.7539 2.33594"/></g><g clip-path="url(#g)"><path fill="none" stroke="#000" stroke-linecap="round" stroke-linejoin="round" stroke-miterlimit="10" stroke-width=".5" d="M160.78906 480.85547l-6.94922-1.05469"/></g><g clip-path="url(#h)"><path fill="none" stroke="#000" stroke-linecap="round" stroke-linejoin="round" stroke-miterlimit="10" stroke-width=".5" d="M160.78906 480.85547l.8164 2.3125"/></g><g clip-path="url(#i)"><path fill="none" stroke="#000" stroke-linecap="round" stroke-linejoin="round" stroke-miterlimit="10" stroke-width=".5" d="M159.77734 480.70313l.40625 1.15625"/></g><g clip-path="url(#j)"><path fill="none" stroke="#000" stroke-linecap="round" stroke-linejoin="round" stroke-miterlimit="10" stroke-width=".5" d="M174.08594 480.96875l-6.91016-1.28125"/></g><g clip-path="url(#k)"><path fill="none" stroke="#000" stroke-linecap="round" stroke-linejoin="round" stroke-miterlimit="10" stroke-width=".5" d="M174.08594 480.96875l.73828 2.33984"/></g><g clip-path="url(#l)"><path fill="none" stroke="#000" stroke-linecap="round" stroke-linejoin="round" stroke-miterlimit="10" stroke-width=".5" d="M173.07813 480.78125l.37109 1.17188"/></g><g clip-path="url(#m)"><path fill="none" stroke="#000" stroke-linecap="round" stroke-linejoin="round" stroke-miterlimit="10" stroke-width=".5" d="M187.38672 481.03906l-6.88281-1.42187"/></g><g clip-path="url(#n)"><path fill="none" stroke="#000" stroke-linecap="round" stroke-linejoin="round" stroke-miterlimit="10" stroke-width=".5" d="M187.38672 481.03906l.6875 2.35547"/></g><g clip-path="url(#o)"><path fill="none" stroke="#000" stroke-linecap="round" stroke-linejoin="round" stroke-miterlimit="10" stroke-width=".5" d="M186.38281 480.83203l.34766 1.17969"/></g><g clip-path="url(#p)"><path fill="none" stroke="#000" stroke-linecap="round" stroke-linejoin="round" stroke-miterlimit="10" stroke-width=".5" d="M200.73438 480.84375l-6.94922-1.03125"/></g><g clip-path="url(#q)"><path fill="none" stroke="#000" stroke-linecap="round" stroke-linejoin="round" stroke-miterlimit="10" stroke-width=".5" d="M200.73438 480.84375l.8203 2.3125"/></g><g clip-path="url(#r)"><path fill="none" stroke="#000" stroke-linecap="round" stroke-linejoin="round" stroke-miterlimit="10" stroke-width=".5" d="M199.72266 480.69531l.41015 1.15625"/></g><g clip-path="url(#s)"><path fill="none" stroke="#000" stroke-linecap="round" stroke-linejoin="round" stroke-miterlimit="10" stroke-width=".5" d="M214.05078 480.85156l-6.94922-1.04687"/></g><g clip-path="url(#t)"><path fill="none" stroke="#000" stroke-linecap="round" stroke-linejoin="round" stroke-miterlimit="10" stroke-width=".5" d="M214.05078 480.85156l.8125 2.3164"/></g><g clip-path="url(#u)"><path fill="none" stroke="#000" stroke-linecap="round" stroke-linejoin="round" stroke-miterlimit="10" stroke-width=".5" d="M227.39844 480.5l-7.01563-.33984"/></g><g clip-path="url(#v)"><path fill="none" stroke="#000" stroke-linecap="round" stroke-linejoin="round" stroke-miterlimit="10" stroke-width=".5" d="M227.39844 480.5l1.04687 2.21875"/></g><g clip-path="url(#w)"><path fill="none" stroke="#000" stroke-linecap="round" stroke-linejoin="round" stroke-miterlimit="10" stroke-width=".5" d="M240.71875 480.24219l-7.02734.17578"/></g><g clip-path="url(#x)"><path fill="none" stroke="#000" stroke-linecap="round" stroke-linejoin="round" stroke-miterlimit="10" stroke-width=".5" d="M240.71875 480.24219l1.20313 2.13672"/></g><g clip-path="url(#y)"><path fill="none" stroke="#000" stroke-linecap="round" stroke-linejoin="round" stroke-miterlimit="10" stroke-width=".5" d="M253.88672 479.32031l-6.73047 2.01953"/></g><g clip-path="url(#z)"><path fill="none" stroke="#000" stroke-linecap="round" stroke-linejoin="round" stroke-miterlimit="10" stroke-width=".5" d="M252.90625 479.61328l.86328.8711"/></g><g clip-path="url(#A)"><path fill="none" stroke="#000" stroke-linecap="round" stroke-linejoin="round" stroke-miterlimit="10" stroke-width=".5" d="M267.2539 479.51953l-6.83593 1.61719"/></g><g clip-path="url(#B)"><path fill="none" stroke="#000" stroke-linecap="round" stroke-linejoin="round" stroke-miterlimit="10" stroke-width=".5" d="M266.26172 479.75781l.8086.92188"/></g><g clip-path="url(#C)"><path fill="none" stroke="#000" stroke-linecap="round" stroke-linejoin="round" stroke-miterlimit="10" stroke-width=".5" d="M280.66406 480.24219l-7.02734.17578"/></g><g clip-path="url(#D)"><path fill="none" stroke="#000" stroke-linecap="round" stroke-linejoin="round" stroke-miterlimit="10" stroke-width=".5" d="M279.64063 480.26563l.60156 1.0703"/></g><g clip-path="url(#E)"><path fill="none" stroke="#000" stroke-linecap="round" stroke-linejoin="round" stroke-miterlimit="10" stroke-width=".5" d="M293.5586 481.99219l-6.1875-3.32813"/></g><g clip-path="url(#F)"><path fill="none" stroke="#000" stroke-linecap="round" stroke-linejoin="round" stroke-miterlimit="10" stroke-width=".5" d="M306.67578 482.32031l-5.78906-3.98437"/></g><g clip-path="url(#G)"><path fill="none" stroke="#000" stroke-linecap="round" stroke-linejoin="round" stroke-miterlimit="10" stroke-width=".5" d="M318.25 483.64844l-2.3086-6.63672"/></g><g clip-path="url(#H)"><path fill="none" stroke="#000" stroke-linecap="round" stroke-linejoin="round" stroke-miterlimit="10" stroke-width=".5" d="M328.98438 483.53906l2.85546-6.42187"/></g><g clip-path="url(#I)"><path fill="none" stroke="#000" stroke-linecap="round" stroke-linejoin="round" stroke-miterlimit="10" stroke-width=".5" d="M340.77344 482.23438l5.90625-3.8086"/></g><g clip-path="url(#J)"><path fill="none" stroke="#000" stroke-linecap="round" stroke-linejoin="round" stroke-miterlimit="10" stroke-width=".5" d="M353.58984 480.9961l6.90235-1.33594"/></g><g clip-path="url(#K)"><path fill="none" stroke="#000" stroke-linecap="round" stroke-linejoin="round" stroke-miterlimit="10" stroke-width=".5" d="M366.89844 480.96094l6.91406-1.26172"/></g><g clip-path="url(#L)"><path fill="none" stroke="#000" stroke-linecap="round" stroke-linejoin="round" stroke-miterlimit="10" stroke-width=".5" d="M380.8711 482.45313l5.59765-4.2461"/></g><g clip-path="url(#M)"><path fill="none" stroke="#000" stroke-linecap="round" stroke-linejoin="round" stroke-miterlimit="10" stroke-width=".5" d="M394.35938 477.9961l5.2539 4.66406"/></g><g clip-path="url(#N)"><path fill="none" stroke="#000" stroke-linecap="round" stroke-linejoin="round" stroke-miterlimit="10" stroke-width=".5" d="M413.2461 478.41406l-5.89063 3.82813"/></g><g clip-path="url(#O)"><path fill="none" stroke="#000" stroke-linecap="round" stroke-linejoin="round" stroke-miterlimit="10" stroke-width=".5" d="M426.3711 478.14844l-5.51173 4.35937"/></g><g clip-path="url(#P)"><path fill="none" stroke="#000" stroke-linecap="round" stroke-linejoin="round" stroke-miterlimit="10" stroke-width=".5" d="M440.3164 479.38281l-6.76952 1.89063"/></g><g clip-path="url(#Q)"><path fill="none" stroke="#000" stroke-linecap="round" stroke-linejoin="round" stroke-miterlimit="10" stroke-width=".5" d="M440.3164 479.38281l1.69141 1.77735"/></g><g clip-path="url(#R)"><path fill="none" stroke="#000" stroke-linecap="round" stroke-linejoin="round" stroke-miterlimit="10" stroke-width=".5" d="M452.76563 477.8789l-5.03907 4.89844"/></g><path fill="none" stroke="#000" stroke-linecap="round" stroke-linejoin="round" stroke-miterlimit="10" stroke-width=".5" d="M452.03125 478.59375l1.16797.375"/><g clip-path="url(#S)"><path fill="none" stroke="#000" stroke-linecap="round" stroke-linejoin="round" stroke-miterlimit="10" stroke-width=".5" d="M466.36719 478.21484l-5.60938 4.23047"/></g><path fill="none" stroke="#000" stroke-linecap="round" stroke-linejoin="round" stroke-miterlimit="10" stroke-width=".5" d="M465.55078 478.82813l1.11328.51953"/><g clip-path="url(#T)"><path fill="none" stroke="#000" stroke-linecap="round" stroke-linejoin="round" stroke-miterlimit="10" stroke-width=".5" d="M147.4336 467.75781l-6.8672-1.48828"/></g><path fill="none" stroke="#000" stroke-linecap="round" stroke-linejoin="round" stroke-miterlimit="10" stroke-width=".5" d="M147.4336 467.75781l.66796 2.36328m-1.66797-2.57812l.33594 1.17969m13.98438-.9922l-6.87891-1.43359m6.8789 1.4336l.6875 2.35547m-1.6875-2.5625l.34376 1.17578m14.02343-1.27735l-6.98047-.8164m6.98047.8164l.89063 2.28516m-1.90625-2.40625l.44531 1.14453m13.88281-1.01953l-6.97656-.82422m6.97656.82422l.89063 2.28516m-1.90625-2.40625l.44531 1.14453m13.90625-1.58203l-7.01953.29297m7.01953-.29297l1.24219 2.11719m-2.26172-2.07422l.6211 1.05859m13.6875-1.41016l-6.96876.91016m6.96875-.91016l1.42578 1.9961m-2.4375-1.86328l.71094.99609m13.6211-1.08594l-6.97657.82422m6.97657-.82422l1.39843 2.01563m-2.41406-1.89844l.69922 1.00781m13.5039-1.73437l-6.72265 2.04297m6.72266-2.04297l1.73437 1.73828m-2.71094-1.4414l.86328.87109m13.22266-1.69532l-6.3086 3.09766m6.3086-3.09766l1.98828 1.4375m11.09375-1.83984l-5.84375 3.90234m5.84375-3.90234l2.16016 1.16016m11.0664-1.28516l-5.66796 4.15234m5.66797-4.15234l2.21093 1.0664m10.76172-1.46874l-4.98047 4.95703m4.98047-4.95703l2.34375.72265m11.22266-.4414l-5.48438 4.39453m4.6875-3.7539l1.125.48437m13.55078-.1172l-6.61328 2.37891m5.65235-2.03125l.90625.82422m13.48046-.79297l-6.83593 1.6211m5.84375-1.38672l.8086.92187m12.93358-2.39843l-5.70312 4.10547m4.875-3.50782l1.09766.54297m10.6875-2.5664l-.98829 6.95703m.84375-5.94532l1.15625-.41796m10.39063-.33204l2.83594 6.4336m-2.42188-5.4961l.75781-.96484m10.05079 3.3125l7.02343-.13672m-6.0039.11719l-.59766-1.07031m17.00781-2.4414l-1.20703 6.92577m1.03125-5.91797l1.16797-.3789m13.04688-.41797l-2.65625 6.5039m2.65625-6.5039l2.4414-.25m10.60938.15234l-2.125 6.69922m2.125-6.69922l2.41015-.4414m-2.71875 1.41796l1.20313-.22265m13.65234-.0664l-4.58984 5.32421m4.58984-5.32422l2.39063.54297m11.73828.48047l-6.21875 3.27734m6.21875-3.27734l2.02734 1.38281m10.03906-2.72656l-3.71875 5.96484m3.17579-5.09765l1.22265.08593"/><g clip-path="url(#U)"><path fill="none" stroke="#000" stroke-linecap="round" stroke-linejoin="round" stroke-miterlimit="10" stroke-width=".5" d="M147.46094 454.3164l-6.92188-1.23437"/></g><path fill="none" stroke="#000" stroke-linecap="round" stroke-linejoin="round" stroke-miterlimit="10" stroke-width=".5" d="M147.46094 454.3164l.7539 2.33204m12.47266-1.96485l-6.7461-1.96875m6.7461 1.96875l.5 2.40235m12.85938-2.57422l-6.83594-1.625m6.83594 1.625l.62109 2.3711m12.75-2.64063l-6.94531-1.08985m6.9453 1.08985l.80079 2.32031m12.55469-2.91016l-7.02735.08985m7.02735-.08985l1.17969 2.15235m12.0078-3.04688l-6.76952 1.88282m6.76953-1.88282l1.6914 1.78125m11.69532-1.46484l-6.91407 1.2461m6.91407-1.2461l1.51953 1.92969m11.72265-2.25391l-6.76562 1.89844m6.76562-1.89844l1.69141 1.77344m11.23828-2.65625l-5.9961 3.66406m5.9961-3.66406l2.11328 1.2461m11.01172-1.52345l-5.6211 4.21875m5.6211-4.21875l2.22266 1.04297m10.80469-1.38281l-5.04297 4.89453m5.04297-4.89453l2.33593.7539m10.79297-.93359l-4.66797 5.2539m4.66797-5.2539l2.38281.57813m10.71094-.7539l-4.23047 5.60937m3.61719-4.79297l1.21094.1914m12.35937-1.24609l-3.51172 6.08594m3-5.20313l1.22657.04297m13.10156-.57422l-4.51563 5.38282m3.85938-4.60157l1.19922.2539m10.73828-1.85155l-.44531 7.01172m.3789-5.9922l1.1211-.5039m11.92968-.51953l.21485 7.02344m-.1836-6.0039l1.06641-.60548m15.32813 1.27344l-6.00782 3.64844m5.13281-3.11719l1.0547.625m12.97656-1.39844l-5.6875 4.1289m4.85937-3.52733l1.10156.53906m13.21485-.8789L393.96875 455.5m5.15625-3.07812l1.05078.6328m13.44922-.49218l-6.64844 2.27344m6.64844-2.27344l1.79297 1.67578m11.64453-1.22656l-6.89063 1.375m6.89063-1.375l1.55469 1.89844m11.7539-1.92188l-6.8789 1.42188m6.8789-1.42188l1.56641 1.88672m11.54688-2.54297l-6.47657 2.73047m6.47656-2.73047l1.90235 1.55078m11.17969-2.00781l-6.00782 3.64453"/><g clip-path="url(#V)"><path fill="none" stroke="#000" stroke-linecap="round" stroke-linejoin="round" stroke-miterlimit="10" stroke-width=".5" d="M466.5664 451.875l2.10938 1.25781"/></g><g clip-path="url(#W)"><path fill="none" stroke="#000" stroke-linecap="round" stroke-linejoin="round" stroke-miterlimit="10" stroke-width=".5" d="M147.40625 441.24219l-6.8125-1.71485"/></g><path fill="none" stroke="#000" stroke-linecap="round" stroke-linejoin="round" stroke-miterlimit="10" stroke-width=".5" d="M147.40625 441.24219l.58984 2.3789m12.57032-1.90234l-6.5-2.66797m6.5 2.66797l.24218 2.4414m12.6875-1.74218l-5.73047-4.0664m5.73047 4.0664l-.3164 2.4336m13.69531-2.52735l-5.85938-3.88281m5.00782 3.3164l-.1211 1.22266m14.80078-1.90234l-6.88671-1.39063m5.88672 1.1875l.34765 1.17578m13.65625-3.26172l-6.26172 3.1914m5.34766-2.72655l1.00781.70312m13.48438-.48437l-6.78907 1.82422m5.80078-1.5586l.83594.89453m12.1836-3.0586l-4.22266 5.6172m4.22266-5.6172l2.42578.38282m8.96875-1.08203l-.38281 7.01563m.32812-5.9961l1.11328-.51562m14.28906.28515l-4.4453 5.4414m4.4453-5.4414l2.40625.47657m10.78125-.57813l-4.1914 5.64063m4.1914-5.64063l2.42578.36719m9.25-1.03125l-.91015 6.96875m.91015-6.96875l2.29688-.85938m12.15234 1.21094l-3.18359 6.26563m3.1836-6.26563l2.45702-.04297m11.39844.38281l-4.26172 5.58594m3.64063-4.77344l1.21094.19922m13.75.23438l-6.3086 3.09375m5.39063-2.64453l.99219.72265m12.8125-1.83593l-5.45704 4.42578m5.45704-4.42578l2.26171.95312m6.17188-1.51562l4.3086 5.54687m-3.6836-4.73828l.5039-1.1211m12.78125-.0625l3.1211 6.29688m12.22265.33594l-.9375-6.96485m.80079 5.94922l-.9961.71485m17.20313-1.78516l-6.44922-2.79687m5.51172 2.39062l.09375 1.22266m14.40234-2.78907l-6.9336 1.14844m6.9336-1.14844l1.48828 1.94922m11.82813-1.9336l-6.9375 1.1172m6.9375-1.1172l1.48047 1.95704m-2.4922-1.79297l.7422.97656m13.59375-1.08203l-6.95704 1m6.95704-1l1.44921 1.98438m-2.46093-1.83594l.72265.98828m13.54688-1.42969l-6.84375 1.58594m6.84375-1.58594l1.61328 1.85157m-2.60938-1.6211l.8086.92578m13.58594-.11718l-7.00782-.4922"/><g clip-path="url(#X)"><path fill="none" stroke="#000" stroke-linecap="round" stroke-linejoin="round" stroke-miterlimit="10" stroke-width=".5" d="M467.0664 440.6289l.9961 2.2422"/></g><g clip-path="url(#Y)"><path fill="none" stroke="#000" stroke-linecap="round" stroke-linejoin="round" stroke-miterlimit="10" stroke-width=".5" d="M147.41797 427.89063l-6.83594-1.64063"/></g><path fill="none" stroke="#000" stroke-linecap="round" stroke-linejoin="round" stroke-miterlimit="10" stroke-width=".5" d="M147.41797 427.89063l.61328 2.375m12.23047-1.28125l-5.89453-3.83204m5.89453 3.83203l-.21484 2.44141m12.73437-1.58203l-4.30469-5.55078m4.30469 5.55078l-1.0039 2.23828m13.98046-2.0039l-3.625-6.01954m3.09766 5.14453l-.6289 1.05079m15.05468-.61328l-4.79297-5.14454m4.09375 4.39453l-.39844 1.16016m15.40625-3.91406L207.1875 428m5.78906-1.58984l.84375.89062m12.11719-3.08594l-4.09375 5.71094m3.5-4.88281l1.21484.16406m14.1172 1.3125l-6.94142 1.10156m5.9297-.9414l.74218.97656m13.48047-1.58984l-6.73438 2.0039m5.75782-1.71093l.85937.875m12.96875-2.14454l-5.8086 3.95704m4.96485-3.37891l1.08594.57031m12.9336-1.33984l-5.52344 4.34375m4.71875-3.71485l1.12109.4961m13.14844-.91797l-5.82422 3.92969m4.97656-3.35938l1.08203.57422m13.67969.67969l-7.02344.27734m6-.23437l.61719 1.05859m12.85547-3.27344l-5.29297 4.6211m5.29297-4.6211l2.29297.8789m11.8789 1.16407l-7.00781.53516m7.00781-.53516l1.3164 2.07031m11.56642-3.51171l-6.14063 3.41796m5.2461-2.92187l1.03124.66406m13.57813 0l-6.9414 1.09766m6.9414-1.09766l1.47656 1.96094m11.88281-1.41797l-7.02734.01172m6.0039-.01172l.57813 1.08203m8.1875-3.92578l4.11328 5.69922m-3.51172-4.8711l.53907-1.09765m17.60937 4.08984l-6.7539-1.9414m6.7539 1.9414l.50781 2.40235m12.9297-3.69922l-6.9961.65234m6.9961-.65234l1.34765 2.05078m-2.36719-1.95703l.67578 1.02734m13.45313-2.01562l-6.58985 2.4414m6.58985-2.4414l1.83203 1.6289m-2.78906-1.27344l.91406.81641m13.29687-1.32812l-6.46484 2.7539m6.46484-2.7539l1.91016 1.54296m-2.85156-1.14062l.95703.76953m13.44531-.7539l-6.75781 1.91796m6.75781-1.91797l1.70313 1.76954m-2.6836-1.4922l.84766.88673m13.57031-.4961l-7.0039.58203"/><g clip-path="url(#Z)"><path fill="none" stroke="#000" stroke-linecap="round" stroke-linejoin="round" stroke-miterlimit="10" stroke-width=".5" d="M467.0625 426.77734l1.32813 2.06641"/></g><g clip-path="url(#aa)"><path fill="none" stroke="#000" stroke-linecap="round" stroke-linejoin="round" stroke-miterlimit="10" stroke-width=".5" d="M147.15625 415.29688l-6.3125-3.08594"/></g><path fill="none" stroke="#000" stroke-linecap="round" stroke-linejoin="round" stroke-miterlimit="10" stroke-width=".5" d="M146.23828 414.84766l.04297 1.22656m13.10938.51172l-4.15235-5.66797m3.55078 4.84375l-.53515 1.10547m14.82422-.59375l-4.89454-5.03906m4.89453 5.03906l-.75 2.33594m14.28907-2.57422l-5.34375-4.5625m5.34375 4.5625l-.53125 2.39453m14.57812-3.80469l-6.8086-1.7461m6.8086 1.7461l.57813 2.38672m12.73047-2.36328l-6.79297-1.79297m20.08203-.08594l-6.7461 1.96875m5.76563-1.6836l.85547.87891m13.57812-.01562l-7.01953-.32813m6 .27735l.52344 1.10937m13.8125-1.07031l-7.01953-.3086m5.9961.26563l.53124 1.10547m13.73438-1.94922l-6.875 1.46875m5.875-1.2539l.78906.9375m13.5586-.95704l-6.94141 1.07422m5.9336-.91797l.73437.98438m13.58203-1.1914l-6.92578 1.17968m5.91796-1.00781l.75.96875m13.53125-1.34375l-6.84375 1.58593m6.84375-1.58593l1.61329 1.85156m11.79296-.97656l-7.02734-.16797m7.02734.16797l1.09766 2.19531m12.0664-1.25781l-6.72656-2.03907m6.72657 2.03907l.47265 2.40625m12.98828-3.21485l-7.01562-.42187m7.01562.42187l1.01954 2.23047m12.26562-2.94531l-6.95703 1.00781m6.95703-1.00781l1.44922 1.98047m11.74219-2.52344l-6.70703 2.09375m6.70703-2.09375l1.7461 1.72266m10.86718-2.97657l-5.3086 4.60157m5.3086-4.60157l2.29297.88282m-3.0625-.21485l1.14453.44141m13.51172-.20313l-6.44922 2.78907m6.44922-2.78907l1.91797 1.53125m-2.85547-1.125l.95703.76563m13.19922-1.375l-6.25782 3.1914m6.25782-3.1914l2.01172 1.40625m-2.92188-.9414l1.00781.70312m13.27735-1.04688l-6.3789 2.94922m6.3789-2.94922l1.95703 1.48438m11.40625-1.3789l-6.47266 2.74218m6.47266-2.74219l1.90625 1.54688m11.32812-1.71875l-6.3125 3.08203m6.3125-3.08203l1.98828 1.4414m-2.90625-.99218l.9922.72265m13.0078-1.58203l-5.84375 3.90625"/><g clip-path="url(#ab)"><path fill="none" stroke="#000" stroke-linecap="round" stroke-linejoin="round" stroke-miterlimit="10" stroke-width=".5" d="M466.48438 411.80078l2.16015 1.16016"/></g><path fill="none" stroke="#000" stroke-linecap="round" stroke-linejoin="round" stroke-miterlimit="10" stroke-width=".5" d="M465.63281 412.3711l1.08203.57812"/><g clip-path="url(#ac)"><path fill="none" stroke="#000" stroke-linecap="round" stroke-linejoin="round" stroke-miterlimit="10" stroke-width=".5" d="M147.27734 399.17188l-6.55468 2.53515"/></g><path fill="none" stroke="#000" stroke-linecap="round" stroke-linejoin="round" stroke-miterlimit="10" stroke-width=".5" d="M146.32422 399.53906l.92578.80469m11.88281 3.10156l-3.63672-6.01172m3.10938 5.13672l-.6289 1.05469m13.5.22266l-1.69532-6.82032m1.44922 5.82813l-.91406.82031m15.65625-.3711l-4.0586-5.73437m3.46875 4.90235l-.55078 1.09375m14.4336-.2422l-4.00782-5.77343m18.44922 1.29688l-6.26562 3.17968m19.78125-2.70703l-6.66407 2.23438m5.69532-1.90625l.89062.84375m13.57422.0625l-7.02344-.23047m7.02344.23047l1.07813 2.20312m12.23437-2.39844l-7.02344.16016m7.02344-.16015l1.20313 2.14062m11.95312-3.10938l-6.70703 2.09766m5.73437-1.79297l.8711.86328m13.24218-1.61718l-6.35546 2.99609m5.42968-2.5625l.98438.73438m13.10937-1.44922l-6.0625 3.55468m5.1797-3.03515l1.04687.64062m13.35937-.73828l-6.48047 2.71485m5.53906-2.32032l.94922.77344m13.58203.22656l-7.02734-.07422m7.02734.07422l1.12891 2.17578m12.15625-2.67187l-6.96875.91797m5.95313-.78516l.71484 1m13.6289-.32422l-6.99218-.69922m5.97265.59766l.46875 1.13281m13.83985-1.9336l-6.9414 1.10157m5.92968-.9414l.73828.98046m13.59766-1.07421l-6.96094.97265m6.96094-.97265l1.4414 1.98437m10.90625-3.95703l-5.02343 4.91406m5.02343-4.91406l2.33985.7461m-3.07032-.03126l1.16797.3711m13.33203-.50782l-5.93359 3.75782m5.9336-3.75782l2.1328 1.21485m-2.99609-.66797l1.06641.60547m13.33594-.7461l-6.38282 2.94532m6.38282-2.94532l1.95312 1.48829m-2.88281-1.0586l.97656.74219m13.03125-1.60156l-5.90625 3.80468m5.90625-3.80468l2.14063 1.19921m11.09375-1.3203l-5.7461 4.04687m5.7461-4.04688l2.1875 1.10938m11.50781-.41016l-6.50781 2.64844m6.50781-2.64844l1.88281 1.57422M452.5547 399.5l.9414.78516m13.01953-1.75l-5.91015 3.80468"/><g clip-path="url(#ad)"><path fill="none" stroke="#000" stroke-linecap="round" stroke-linejoin="round" stroke-miterlimit="10" stroke-width=".5" d="M466.51563 398.53516l2.14062 1.19921"/></g><path fill="none" stroke="#000" stroke-linecap="round" stroke-linejoin="round" stroke-miterlimit="10" stroke-width=".5" d="M465.65625 399.08984l1.07031.60157"/><g clip-path="url(#ae)"><path fill="none" stroke="#000" stroke-linecap="round" stroke-linejoin="round" stroke-miterlimit="10" stroke-width=".5" d="M146.85156 385.07422l-5.70312 4.10156"/></g><path fill="none" stroke="#000" stroke-linecap="round" stroke-linejoin="round" stroke-miterlimit="10" stroke-width=".5" d="M146.85156 385.07422l2.20313 1.08594m10.66015 3.53125l-4.79687-5.13672m4.09766 4.39062l-.39844 1.16016m14.29687-.3125l-4.57031-5.33985m4.57031 5.33985l-.89453 2.28515m15.39844-4.42578l-6.94531-1.05859m5.93359.90625l.40625 1.15625m13.76563-.3789l-6.63672-2.3086m5.67187 1.97266l.1875 1.21484m14.21875-1.34375l-6.89062-1.375m6.89062 1.375l.70703 2.34766m12.65235-2.63282l-6.98047-.80468m6.98047.80468l.89843 2.28125m12.375-3.375l-6.89062 1.37891m6.89062-1.3789l1.5547 1.89843m11.59374-2.47265l-6.5586 2.52734m6.5586-2.52735l1.85156 1.60938m11.51563-1.46484l-6.66406 2.23828m6.66406-2.23828l1.78125 1.6875m11.55469-1.61329l-6.70704 2.08985m6.70704-2.08985l1.74609 1.72266m11.51172-1.89453l-6.59375 2.4336m6.59375-2.4336l1.83203 1.63281m11.46875-1.67187L300.5 388.3789m6.5625-2.51172l1.85156 1.61328m11.44922-1.64844l-6.53516 2.58203m6.53516-2.58203l1.86719 1.59375m11.47265-1.52734l-6.58593 2.44922m6.58593-2.44922l1.83594 1.6289m11.59375-1.2578l-6.8164 1.70702m5.82812-1.45703l.82031.91016m13.58203-.5625l-7.01171.51172m7.01171-.51172l1.3047 2.07812m11.625-3.4414l-6.23829 3.23828m6.23828-3.23828l2.01953 1.39453m-2.92968-.92188l1.01171.69531m12.91016-1.64843l-5.63281 4.19922m5.63281-4.19922l2.21875 1.05078m-3.03906-.4375l1.10937.52344m12.94922-1.23438l-5.48047 4.39453m5.48047-4.39453l2.2539.97266m-3.05077-.33203l1.1289.48437m12.78907-1.34765l-5.09375 4.83984m5.09375-4.83985l2.32812.77344m-3.07031-.07031l1.16406.38672m12.8789-1.10547l-5.0664 4.8711m5.0664-4.8711l2.33204.76563m-3.0664-.0547l1.16405.37891m12.79688-1.17968l-4.88672 5.05078m4.88672-5.05078l2.35937.67968m-3.0703.0547l1.17968.33983m13.64062.08594l-6.47265 2.73438m6.47265-2.73438l1.90235 1.54688m-2.84375-1.15235l.94922.77344m13.3164-1.14062l-6.49609 2.67968"/><g clip-path="url(#af)"><path fill="none" stroke="#000" stroke-linecap="round" stroke-linejoin="round" stroke-miterlimit="10" stroke-width=".5" d="M466.8086 385.78516l1.89062 1.5625"/></g><g clip-path="url(#ag)"><path fill="none" stroke="#000" stroke-linecap="round" stroke-linejoin="round" stroke-miterlimit="10" stroke-width=".5" d="M147.04688 372.0586l-6.09375 3.5"/></g><path fill="none" stroke="#000" stroke-linecap="round" stroke-linejoin="round" stroke-miterlimit="10" stroke-width=".5" d="M147.04688 372.0586l2.07812 1.30468m-2.96484-.79687l1.03906.65625m13.59375 1.08203l-6.95703-.99219m6.95703.99219l.83594 2.3086m11.79297-.67188l-5.58204-4.26954m5.58203 4.26954l-.40234 2.42187m13.38281-2.04297l-4.91406-5.02344m4.91406 5.02344l-.74218 2.33985m15.09375-4.46485l-6.98438-.77344m6.98438.77344l.90625 2.28125m12.41797-2.94531l-7.00391.55469m7.0039-.55469l1.32032 2.07031m11.94531-2.4375l-6.90625 1.28516m6.90625-1.28516l1.53125 1.92188m11.82422-1.66406l-6.98438.77343m6.98438-.77344l1.38281 2.02735m11.89063-2.29297l-6.90625 1.30469m6.90625-1.30469l1.53515 1.91406m11.79297-1.84375l-6.92969 1.16406m6.9297-1.16406l1.49609 1.94531m11.85546-1.63671l-7.0039.54296m7.0039-.54296l1.31641 2.07421m11.92969-2.55078l-6.86328 1.5m6.86328-1.5l1.58594 1.8711m11.6328-2.22266l-6.67187 2.20313m6.67188-2.20313l1.77344 1.69922m-2.7422-1.3789l.88282.84765m13.42578-1.08594l-6.72265 2.03906m6.72265-2.03906l1.73047 1.74219m-2.70703-1.44531l.86328.8711m13.5039-.875l-6.875 1.45312m6.875-1.45313l1.57423 1.88281m11.77734-1.6953l-6.94531 1.07421m6.9453-1.07422l1.46876 1.96485m-2.48047-1.8086l.73438.98438m13.60546-1.04688l-6.97265.88672m6.97265-.88672l1.41407 2.0039m-2.4297-1.875l.70704 1.00391m13.53125-1.59765l-6.78906 1.82031m6.78906-1.82031l1.67188 1.79297m-2.66016-1.52735l.83594.89453m13.12109-2l-6.09375 3.5m6.09375-3.5l2.07813 1.3047m-2.96485-.79688l1.03906.65625m13.01563-1.39844l-5.80078 3.96875m5.80078-3.96875l2.17187 1.14062m-3.01562-.5625l1.08594.57032m12.80078-1.4961l-5.25781 4.66406m5.2578-4.66406l2.30079.85547m-3.0664-.17578l1.15234.42578m13.0078-1.01172l-5.41796 4.47656m5.41797-4.47656l2.26953.9375m-3.0586-.28515l1.13673.46875M439.58203 371.5l-5.30078 4.61328m5.30078-4.61328l2.29297.8789m-3.0625-.20702l1.14453.4414m13.03906-.9961L447.5 376m5.4961-4.38281l2.25.97656m-3.05079-.33984l1.125.48828m13.35938-.55469l-6.23438 3.24219"/><g clip-path="url(#ah)"><path fill="none" stroke="#000" stroke-linecap="round" stroke-linejoin="round" stroke-miterlimit="10" stroke-width=".5" d="M466.67969 372.1875l2.01953 1.39063"/></g><g clip-path="url(#ai)"><path fill="none" stroke="#000" stroke-linecap="round" stroke-linejoin="round" stroke-miterlimit="10" stroke-width=".5" d="M147.23047 359.11328l-6.46094 2.76172"/></g><path fill="none" stroke="#000" stroke-linecap="round" stroke-linejoin="round" stroke-miterlimit="10" stroke-width=".5" d="M147.23047 359.11328l1.91016 1.53906m-2.85157-1.13671l.95703.76953m13.39844 1.33593l-6.65625-2.2539m6.65625 2.2539l.39453 2.42188m-1.36328-2.75l.19531 1.21094m13.83985-.32032l-6.16016-3.3789m6.16016 3.3789l-.03125 2.45313m13.16406-2.15625l-5.79688-3.97266m5.79688 3.97266l-.27344 2.4375m14.05469-3.41016l-6.73047-2.02734m6.73047 2.02734l.47656 2.40625m12.98438-3.57031l-7.01953.29688m7.01953-.29688l1.24219 2.11719m12.05468-2.35938l-6.98437.78125m6.98437-.78125l1.38672 2.02735m11.89453-2.26172l-6.91797 1.25m6.91797-1.25l1.51563 1.92969m11.77344-2.0625l-6.86329 1.51562m6.86328-1.51563l1.58985 1.8672m11.75-1.7461l-6.91406 1.27344m6.91406-1.27344l1.52344 1.92187m11.8125-1.78906l-6.95704 1.00781m6.95704-1.0078l1.44922 1.98046m11.86328-1.9961l-6.94922 1.03907m6.94922-1.03906l1.45703 1.97265m11.85937-1.96484l-6.95312 1.02344m6.95312-1.02344l1.45313 1.97656m11.8789-1.84765l-6.98437.76953m6.98437-.76954l1.38282 2.02344m11.92968-2.05078l-6.98046.82031m6.98046-.8203l1.39454 2.01952m11.91015-2.07812l-6.96094.9414m6.96094-.9414l1.4336 1.99219m-2.44532-1.85547l.71485.99609m13.55468-1.44531l-6.84765 1.5664m6.84765-1.5664l1.60547 1.85547m-2.60156-1.62891l.80469.92578m13.51562-1.11328l-6.86719 1.48828m6.8672-1.48828l1.58593 1.8711m-2.58594-1.65626l1.58594 1.875m12.63672-2.4375l-6.67969 2.1836m6.67969-2.1836l1.76562 1.69922m-2.73828-1.38281l.88281.85156m13.3086-1.42578l-6.48828 2.69922m6.48828-2.69922l1.89453 1.5586m-2.83984-1.16797l1.89843 1.55859m12.35157-1.97266l-6.46875 2.7422m6.46875-2.7422l1.90625 1.54688m-2.84766-1.14844l1.90625 1.54688m12.35938-1.92579l-6.48438 2.70313m6.48438-2.70313l1.89843 1.5586m-2.84375-1.16406l1.89844 1.55859m12.1914-2.30078l-6.14843 3.40234m6.14844-3.40234l2.05859 1.33594m-2.95313-.84375l2.0586 1.33984m12.14453-1.84766l-6.13281 3.4336m6.13281-3.4336l2.0625 1.32813m-2.95313-.82813l1.03125.66407m13.01563-1.41797l-5.8164 3.9414"/><g clip-path="url(#aj)"><path fill="none" stroke="#000" stroke-linecap="round" stroke-linejoin="round" stroke-miterlimit="10" stroke-width=".5" d="M466.46875 358.52344l2.17188 1.14453"/></g><path fill="none" stroke="#000" stroke-linecap="round" stroke-linejoin="round" stroke-miterlimit="10" stroke-width=".5" d="M465.625 359.09375l1.08203.57422"/><g clip-path="url(#ak)"><path fill="none" stroke="#000" stroke-linecap="round" stroke-linejoin="round" stroke-miterlimit="10" stroke-width=".5" d="M147.30078 345.98047l-6.60156 2.39844"/></g><path fill="none" stroke="#000" stroke-linecap="round" stroke-linejoin="round" stroke-miterlimit="10" stroke-width=".5" d="M147.30078 345.98047l1.82422 1.64062m-2.78516-1.29296l.91407.8203m13.22656 1.5586l-6.32813-3.05469m6.32813 3.0547l.09375 2.44921m-1.01563-2.89453l.04688 1.22656m14.42969-1.44922l-6.8125-1.72265m6.8125 1.72265l.58593 2.38281m12.40625-1.55859l-6.16406-3.3711m6.16406 3.3711L187 351.31641m13.57813-2.98047l-6.63672-2.3125m6.63672 2.3125l.375 2.42187m13.1328-3.75l-7.01952.33985m7.01953-.33985l1.2539 2.10938m12.0586-2.15625l-7.01563.4336m7.01563-.4336l1.28125 2.08984m12.03906-1.94531l-7.02734.14453m7.02734-.14453l1.19531 2.14453m12.10938-2.32813l-7.00781.51172m7.0078-.51171L255.33204 349m11.99219-2.22656l-6.98047.8086m6.98047-.8086l1.39453 2.01953m11.91797-2.04297l-6.97266.85547m6.97266-.85547l1.40625 2.01172m11.9336-1.42578l-7.01954-.3164m7.01953.3164l1.05078 2.21484m-2.07422-2.26172l.52735 1.10938m13.80078-.90625l-7-.6289m7 .6289l.95312 2.26172m-1.97265-2.35157l.47656 1.12891m13.86719-1.54297l-7.01953.3789m7.01953-.3789l1.26562 2.10156m-2.28906-2.04687l.63672 1.05078m13.64453-1.5586l-6.90625 1.28516m6.90625-1.28515l1.53125 1.91796m-2.53516-1.73046l.76563.95703m13.60156-.8125l-7 .6211m7-.6211l1.33985 2.0586m-2.35938-1.96876l.66797 1.02735m13.67969-.77344l-7.02735-.0664m7.02735.0664l1.1289 2.17969m-2.15234-2.1875l1.13281 2.17578m13.1914-2.50391l-7 .60547m7-.60547l1.33595 2.0586m-2.35157-1.96876l1.33203 2.0586m12.90235-2.72266l-6.80469 1.7539m6.80469-1.7539l1.65625 1.8086m-2.64844-1.5547l1.65625 1.8125m12.52734-2.45312l-6.55859 2.52735m6.5586-2.52735l1.85156 1.60547m-2.8086-1.23828l1.85547 1.60547m-2.8086-1.23828l.9297.80469M413.5 345.72265l-6.39844 2.91015m6.39844-2.91015l1.94531 1.49609m-2.875-1.07031l1.94531 1.4961m12.35157-1.80079l-6.5 2.66797m6.5-2.66797l1.88672 1.5664m-2.83204-1.17968l1.88672 1.57031m-2.83203-1.17969l.9414.78125m14.21876-1.66406l-6.41016 2.8789m6.41016-2.8789l1.9375 1.5039m-2.8711-1.08593l1.94141 1.5039m-2.875-1.08593l.97266.7539m14.23047-1.53906l-6.45313 2.77735m6.45313-2.77735l1.91406 1.53516m-2.85156-1.1289l1.91406 1.53515m12.45703-1.6289l-6.6875 2.15234"/><g clip-path="url(#al)"><path fill="none" stroke="#000" stroke-linecap="round" stroke-linejoin="round" stroke-miterlimit="10" stroke-width=".5" d="M466.90625 346.10156l1.76172 1.71094"/></g><path fill="none" stroke="#000" stroke-linecap="round" stroke-linejoin="round" stroke-miterlimit="10" stroke-width=".5" d="M465.9336 346.41406l1.7578 1.71094"/><g clip-path="url(#am)"><path fill="none" stroke="#000" stroke-linecap="round" stroke-linejoin="round" stroke-miterlimit="10" stroke-width=".5" d="M147.30469 332.66797l-6.60938 2.39062"/></g><path fill="none" stroke="#000" stroke-linecap="round" stroke-linejoin="round" stroke-miterlimit="10" stroke-width=".5" d="M146.34375 333.01563l.91016.82421m13.17578 1.64844l-6.23047-3.25m6.23047 3.25l.02344 2.45313m13.05859-2.07032l-5.76563-4.01562m5.76563 4.01562l-.29297 2.4375m13.58984-2.41015l-5.72656-4.07031m5.72656 4.0703l-.3164 2.4336m14.01953-3.13672l-6.5039-2.66406m5.55859 2.27734l.12109 1.21875m14.36328-1.64453l-6.94922-1.03906m6.94922 1.03906l.8164 2.3125m-1.82812-2.46484l.41016 1.16015m13.94531-1.26562l-7.00781-.52344m7.00781.52344l.98828 2.2461m-2.00781-2.32423l.49219 1.125m13.84375-1.07421l-7.01172-.47266m7.01172.47266l1.0039 2.24218m-2.02343-2.30859l.5 1.11719m13.83984-1.20313l-7.02344-.16406m7.02344.16406l1.10156 2.19531m-2.1211-2.21875l.55079 1.09766m13.77734-1.42578l-7.0078.53516m7.0078-.53516l1.3125 2.07422m12.01172-1.91406l-7.02344.21875m7.02344-.21875l1.21875 2.1289m12.0664-1.57031l-6.96874-.89844m6.96875.89844l.86719 2.29688m12.39453-1.98047l-6.85938-1.53516m6.85938 1.53516l.64843 2.36718m12.75-3.05468l-7.02734-.16016m7.02734.16016l1.10157 2.1953m-2.125-2.21483l.55078 1.09375m13.73828-1.7461l-6.92578 1.1836m6.92578-1.1836l1.5 1.9414m-2.50781-1.76562l.75.96875m13.6211-.63281l-7.02345.16016m7.02344-.16016l1.20313 2.14063m-2.22657-2.1172l.60157 1.07032m13.71484-.60938l-6.98047-.80468m6.98047.80469l.89453 2.28515m-1.91016-2.40234l.44922 1.14062m13.89063-1.76172l-6.9961.67188m6.9961-.67188l1.35156 2.04688m-2.3711-1.94922l1.35157 2.04688m12.65234-3.32422L380.5 335.3789m6.33984-3.03125l1.97657 1.45703m-2.89844-1.01563l.98828.72656m13.23828-1.1914l-6.3164 3.07812m6.3164-3.07812l1.98438 1.4414m-2.90235-.99609l.99219.72266m13.32031-.98828l-6.47656 2.71875m6.47656-2.71875l1.90235 1.55078m-2.84375-1.15625l.94921.77734m13.39844-.9414l-6.65625 2.2539m6.65625-2.2539l1.78516 1.68359m-2.7539-1.35547l1.78515 1.6836m12.40234-2.25782l-6.46484 2.75m6.46484-2.75l1.91016 1.54688m-2.85156-1.14454l1.91015 1.54297m-2.84765-1.14453l.95312.77344m14.28516-1.46094l-6.55469 2.52344m6.55469-2.52344l1.85547 1.60547m-2.8086-1.23828l1.85547 1.60547m-2.8086-1.23828l.92579.80469m14.26953-1.60938l-6.5 2.66406"/><g clip-path="url(#an)"><path fill="none" stroke="#000" stroke-linecap="round" stroke-linejoin="round" stroke-miterlimit="10" stroke-width=".5" d="M466.8125 332.53125l1.88672 1.5664"/></g><g clip-path="url(#ao)"><path fill="none" stroke="#000" stroke-linecap="round" stroke-linejoin="round" stroke-miterlimit="10" stroke-width=".5" d="M465.86719 332.91797l1.88672 1.5664"/></g><path fill="none" stroke="#000" stroke-linecap="round" stroke-linejoin="round" stroke-miterlimit="10" stroke-width=".5" d="M464.92188 333.30469l.9414.78515"/><g clip-path="url(#ap)"><path fill="none" stroke="#000" stroke-linecap="round" stroke-linejoin="round" stroke-miterlimit="10" stroke-width=".5" d="M140.61719 319.58984l6.76562 1.91407"/></g><path fill="none" stroke="#000" stroke-linecap="round" stroke-linejoin="round" stroke-miterlimit="10" stroke-width=".5" d="M159.39063 323.38281l-4.14844-5.67187m3.54297 4.84765l-.53516 1.10547m14.52344-.33203l-4.28516-5.5664m4.28516 5.5664l-1.01172 2.23438m14.64844-2.51563l-4.9297-5.0039m4.9297 5.0039l-.73438 2.33985m14.6211-3.07422l-6.07032-3.53907m6.07031 3.53907l-.09765 2.45312m13.6289-2.89844l-6.5078-2.64843m6.5078 2.64843l.25 2.44141m-1.1953-2.82422l.125 1.21875m14.29687-1.32422l-6.82813-1.67187m6.82813 1.67187l.60156 2.3789m-1.59766-2.62108l.3047 1.1914m14.08983-1.46484l-6.99609-.64063m6.9961.64063l.95312 2.26172m-1.96875-2.35547l.47266 1.13281m13.85937-1.03125l-6.9961-.65234m6.9961.65234l.94531 2.26172M253 320.77734l.47266 1.13282m13.875-1.51172l-7.02344.30078m7.02344-.30078l1.24218 2.11328m-2.26562-2.07031l.6211 1.05859m13.70702-1.23828l-7.0039.57031m7.0039-.57031l1.32422 2.0664m-2.34375-1.98437l.66407 1.03516m13.67968-.94141l-7.02343.22266m7.02343-.22266l1.21875 2.1289m12.07813-1.625l-6.98438-.78515m6.98438.78516l.90234 2.28125m12.42969-2.47266l-7.01563-.40234m7.01563.40234l1.02344 2.22656m-2.04688-2.28515l.51563 1.11328m13.78125-1.82031l-6.9375 1.125m6.9375-1.125l1.48437 1.95703m-2.49219-1.79297l.7422.97656m13.55859-1.26172l-6.89063 1.3711m6.89063-1.3711l1.55078 1.89844m-2.5547-1.69922l.77735.94922m13.58985-.83594l-6.98828.7461m5.97265-.63672l.6875 1.01562m13.66016-.66406l-7.02344-.17578m6.0039.14844l.54688 1.09765m13.0664-3.29297l-5.58202 4.26953m5.58203-4.26953l2.23047 1.01953m10.96875-1.16406l-5.34766 4.5586m4.57031-3.89844l1.14063.45312m12.67187-1.41015l-4.78515 5.14843m18.90234-1.11718l-6.39453-2.91407m20.02344 1.59766l-7.01953-.27734m6 .23828l.53125 1.10547m13.26953-3.07032l-5.95313 3.73047m5.95313-3.73047l2.1289 1.22266m-2.99218-.67969l2.125 1.22266m11.74609-2.1836l-5.33984 4.56641"/><g clip-path="url(#aq)"><path fill="none" stroke="#000" stroke-linecap="round" stroke-linejoin="round" stroke-miterlimit="10" stroke-width=".5" d="M466.23047 318.26563l2.28515.89843"/></g><path fill="none" stroke="#000" stroke-linecap="round" stroke-linejoin="round" stroke-miterlimit="10" stroke-width=".5" d="M465.45313 318.92969l2.28515.89844m-3.0586-.23438l1.14063.44922"/><path fill="#00f" fill-rule="evenodd" d="M303.91016 454.33203h8.61718V444.1875h-8.61718v10.14453"/><path fill="azure" fill-rule="evenodd" d="M305.74219 446.01953h.83203v2.82422h3.28906v-2.82422h.83203V452.5h-.83203v-2.91406h-3.28906V452.5h-.83203v-6.48047"/><path fill="#ff3030" fill-rule="evenodd" d="M380.05469 418.82813H387.75v-10.14844h-7.69531v10.14844"/><path fill="azure" fill-rule="evenodd" d="M381.89063 410.51172h.83203v5.74219h3.1953v.73828h-4.02733v-6.48047"/><path fill="#ff3030" fill-rule="evenodd" d="M295.72656 409.94922h7.69531v-10.14453h-7.6953v10.14453"/><path fill="azure" fill-rule="evenodd" d="M297.5586 401.63672h.83593v5.73828h3.1914v.74219h-4.02734v-6.48047"/><path fill="#ff3030" fill-rule="evenodd" d="M171.45313 370.0039h7.6914v-10.14452h-7.6914v10.14453"/><path fill="azure" fill-rule="evenodd" d="M173.28516 361.6914h.83593v5.73829h3.19141v.74219h-4.02734v-6.48047"/><path fill="#ffffe0" fill-rule="evenodd" d="M335.63672 392.42578h22.17969v-10.1914h-22.1797v10.1914"/><path fill-rule="evenodd" d="M339.13672 384.07031h.50781v6.29297h-.78515V385.875h-1.39063v-.5586l.5625-.0625.25-.05468.23047-.08985.20312-.14062.17579-.21094.14062-.29297.10547-.39453m4.8125 0l.23047.01563.21875.0586.20703.08983.19922.1172.1836.15234.17187.17578.30078.41797.24219.49218.17968.54688.11328.58203.03516.58984-.03516.59375-.11328.58204-.17969.55468-.24218.5039-.30078.42579-.17188.17969-.1836.15234-.19921.125-.20703.09375-.21875.05469-.23047.01953-.22656-.01953-.22266-.05469-.20703-.09375-.19531-.125-.1836-.15234-.17187-.17969-.30078-.42578-.2461-.5039-.17969-.5547-.10937-.58203-.03906-.59375h.83203l.03125.5625.08203.50782.125.4414.16406.375.1875.30078.21094.21875.22266.14063.22656.04687.22656-.04687.22266-.14063.21094-.21875.1914-.30078.16406-.375.125-.4414.08204-.50782.02734-.5625-.02735-.5625-.08203-.5-.125-.43359-.16406-.36719-.1914-.29297-.21094-.21484-.22266-.1289-.22656-.04688-.22656.04687-.22266.12891-.21094.21484-.1875.29297-.16406.36719-.125.4336-.08203.5-.03125.5625h-.83203l.03906-.58985.10938-.58203.17968-.54688.2461-.49218.30078-.41797.17187-.17578.1836-.15235.1953-.11719.20704-.08984.22266-.0586.22656-.01562m4.95312 0l.23047.01563.21875.0586.20703.08983.19532.1172.1875.15234.16796.17578.3047.41797.24218.49218.17969.54688.11328.58203.03515.58984-.03515.59375-.11328.58204-.17969.55468-.24219.5039-.30469.42579-.16796.17969-.1875.15234-.19532.125-.20703.09375-.21875.05469-.23047.01953-.23046-.01953-.21875-.05469-.20704-.09375-.1953-.125-.1836-.15234-.17188-.17969-.30078-.42578-.2461-.5039-.17968-.5547-.10938-.58203-.03906-.59375h.83203l.03125.5625.07813.50782.1289.4414.16016.375.1914.30078.21094.21875.22266.14063.22656.04687.22657-.04687.22265-.14063.21094-.21875.1914-.30078.16016-.375.1289-.4414.08204-.50782.02734-.5625-.02734-.5625-.08203-.5-.1289-.43359-.16016-.36719-.19141-.29297-.21094-.21484-.22265-.1289-.22657-.04688-.22656.04687-.22265.12891-.21094.21484-.1914.29297-.16017.36719-.1289.4336-.07813.5-.03125.5625h-.83203l.03906-.58985.10938-.58203.17969-.54688.2461-.49218.30077-.41797.17188-.17578.1836-.15235.1953-.11719.20704-.08984.21875-.0586.23046-.01562m4.95313 0l.38672.02735.35937.08203.32031.13672.28125.1875.23047.23437.17188.28516.10937.33594.03907.375-.02344.27343-.05469.23438-.08984.20312-.10938.16797-.1289.14453-.14063.1211-.28906.19921.23437.1172.20704.14843.18359.17188.15234.1914.125.21485.08985.23046.05468.2422.01954.2578-.03516.3086-.10156.32422-.17188.32812-.24219.30469-.30468.26953-.375.21484-.21094.08204-.22656.05859-.2461.03906-.26172.01172-.2578-.01172-.2422-.03906-.22265-.0586-.20703-.08203-.35938-.21484-.28906-.26953-.22266-.30469-.15625-.32812-.09375-.32422-.03125-.3086h.83203l.02735.25.07812.23829.1211.21093.16015.1836.19531.15234.21875.11719.2422.07031.2539.02734.2539-.02734.2422-.07031.21874-.11719.19531-.15234.16016-.1836.1211-.21094.07812-.23828.02734-.25-.02734-.2539-.07813-.23438-.12109-.21484-.16015-.1836-.19532-.15234-.21875-.11328-.24219-.07422-.2539-.02344-.2539.02344-.2422.07422-.21875.11328-.1953.15235-.16016.18359-.1211.21484-.07812.23438-.02735.2539h-.83203l.01953-.2539.0547-.24219.08983-.22266.125-.20703.15235-.1914.1836-.17188.20702-.15234.23047-.13281-.28515-.19922-.14063-.1211-.1289-.14453-.10938-.16797-.08984-.20312-.0586-.23438-.01953-.27344h.78906l.01954.21485.0664.1914.10547.16797.13672.13672.16406.11328.1914.08204.20704.05078.21875.01562.21875-.01562.20703-.05079.1914-.08203.16407-.11328.13672-.13672.10547-.16796.0625-.19141.02343-.21485-.02343-.21484-.0625-.1914-.10547-.16407-.13672-.14062-.16406-.11328-.19141-.08204-.20703-.04687-.21875-.01953-.21875.01953-.20703.04688-.1914.08203-.16407.11328-.13672.14062-.10547.16406-.0664.19141-.01954.21485h-.78906l.03906-.375.10938-.33594.17187-.28516.23047-.23437.27735-.1875.32421-.13672.35938-.08203.38672-.02735"/><path fill="#ffffe0" fill-rule="evenodd" d="M208.59375 359.76172h22.17969V349.5664h-22.17969v10.1953"/><path fill-rule="evenodd" d="M212.09375 351.40234h.50781v6.29297h-.78515v-4.48828h-1.39063v-.5586l.5586-.0625.2539-.05468.23047-.08984.20313-.14063.17187-.21094.14453-.29296.10547-.39454m4.8125 0l.23047.01563.21875.0586.20703.08984.19531.12109.1836.14844.17187.17578.30469.41797.24219.4961.17968.54296.10938.58203.03906.58985-.03906.59375-.10938.58203-.17968.55468-.2422.50391-.30468.42578-.17187.17969-.1836.15234-.19531.125-.20703.09375-.21875.05469-.23047.01953-.23047-.01953-.21875-.05469-.20703-.09375-.19531-.125-.1836-.15234-.17187-.17969-.30469-.42578-.24219-.5039-.17968-.5547-.10938-.58202-.03906-.59375h.83203l.03125.5625.07813.5078.1289.44141.16016.375.1914.30079.21094.22265.22266.13672.22656.04688.22656-.04688.22266-.13672.21094-.22265.1914-.30079.16016-.375.1289-.4414.08204-.50781.02734-.5625-.02734-.5625-.08203-.5-.12891-.4336-.16016-.36719-.1914-.29296-.21094-.21485-.22266-.1289-.22656-.04688-.22656.04688-.22266.1289-.21094.21485-.1914.29296-.16016.3672-.1289.43358-.07813.5-.03125.5625h-.83203l.03906-.58984.10938-.58203.17968-.54297.2422-.4961.30468-.41796.17187-.17578.1836-.14844.19531-.1211.20703-.08984.21875-.0586.23047-.01562m4.95313 0l.23046.01563.21875.0586.20703.08984.19532.12109.1836.14844.17187.17578.30078.41797.2461.4961.17968.54296.10937.58203.03907.58985-.03907.59375-.10937.58203-.17969.55468-.2461.50391-.30077.42578-.17188.17969-.1836.15234-.1953.125-.20704.09375-.21875.05469-.23047.01953-.23046-.01953-.21875-.05469-.20703-.09375-.19532-.125-.1875-.15234-.16797-.17969-.30468-.42578-.2422-.5039-.17968-.5547-.11328-.58202-.03516-.59375h.83203l.02735.5625.08203.5078.1289.44141.16016.375.1914.30079.21095.22265.22265.13672.22656.04688.22657-.04688.22265-.13672.21094-.22265.1914-.30079.16016-.375.125-.4414.08203-.50781.03125-.5625-.03125-.5625-.08203-.5-.125-.4336-.16015-.36719-.1914-.29296-.21095-.21485-.22265-.1289-.22656-.04688-.22657.04688-.22265.1289-.21094.21485-.1914.29296-.16016.3672-.12891.43358-.08203.5-.02734.5625h-.83204l.03516-.58984.11328-.58203.17969-.54297.24219-.4961.30468-.41796.16797-.17578.1875-.14844.19531-.1211.20704-.08984.21875-.0586.23047-.01562m4.95312 0l.38672.02735.35937.08203.32032.13672.28125.1875.23047.23437.17187.28906.10938.33204.03906.375-.02344.27343-.05469.23438-.08984.20312-.11328.16797-.1289.14453-.13673.1211-.28906.19922.23438.11718.20703.14844.17968.17188.15625.1914.1211.21485.09375.23046.05469.2422.01953.2578-.03516.3086-.10547.32422-.17187.32812-.23828.30469-.3047.26953-.375.21485-.21093.08203-.23047.05859-.24219.03906-.26172.01172-.26171-.01172-.23828-.03906-.22657-.0586-.20312-.08202-.35938-.21485-.28906-.26953-.22266-.30469-.16015-.32812-.08985-.32422-.03125-.3086h.83203l.02735.25.07812.23829.1211.21093.16015.1836.19532.15234.21875.11719.23828.07031.25781.02735.2539-.02735.2422-.07031.21874-.11719.19141-.15234.16016-.1836.125-.21093.07812-.23829.02734-.25-.02734-.2539-.07812-.23438-.125-.21484-.16016-.1836-.1914-.15234-.21876-.11328-.24218-.07422-.25391-.02344-.25781.02344-.23828.07422-.21875.11328-.19532.15235-.16015.18359-.1211.21484-.07812.23438-.02734.2539h-.83204l.01953-.2539.0547-.24219.08984-.22265.125-.20704.15234-.1914.1836-.17188.20702-.15234.23047-.13281-.28515-.19922-.14063-.1211-.1289-.14453-.11328-.16797-.08594-.20312-.0586-.23438-.01953-.27343h.78516l.02344.21484.0664.1914.10547.16798.13672.13671.16406.11329.1875.08203.20703.05078.22266.01562.21875-.01562.20703-.05078.1875-.08204.16797-.11328.13672-.13671.10156-.16797.0664-.19141.02345-.21484-.02344-.21485-.0664-.1914-.10157-.16407-.13672-.14062-.16797-.11328-.1875-.07813-.20703-.05078-.21875-.01953-.22266.01953-.20703.05078-.1875.07813-.16406.11328-.13672.14062-.10547.16407-.0664.1914-.02344.21485h-.78516l.03906-.375.10938-.33204.17188-.28906.23046-.23437.27735-.1875.32422-.13672.35937-.08203.38672-.02735"/><path fill="#ffffe0" fill-rule="evenodd" d="M190.83984 388.28125h22.1797v-10.1914h-22.1797v10.1914"/><path fill-rule="evenodd" d="M194.33984 379.92188h.50782v6.29296h-.78516v-4.48828h-1.39063v-.55469l.5625-.0664.25-.05469.23047-.08984.20313-.14063.17578-.21094.14063-.29296.10546-.39454m4.8125 0l.23047.01954.21875.05468.20703.08985.19532.1211.1875.14843.16797.17578.30468.41797.24219.4961.17969.54687.11328.57812.03516.58985-.03516.59375-.11328.58593-.17969.55079-.24219.5039-.30469.42969-.16796.17969-.1875.15234-.19532.1211-.20703.09374-.21875.0547-.23047.02343-.23047-.02344-.21875-.05469-.20703-.09375-.1953-.12109-.1836-.15234-.17188-.1797-.30078-.42968-.2461-.5039-.17968-.55079-.10938-.58593-.03906-.59375h.83203l.03125.5625.08203.5078.125.44142.16016.375.1914.30078.21095.22265.22265.13672.22656.04688.22657-.04688.22265-.13672.21094-.22265.1914-.30079.16016-.375.1289-.4414.08204-.50781.02734-.5625-.02734-.5586-.08203-.5039-.1289-.4336-.16016-.36719-.19141-.28906-.21094-.21484-.22265-.13281-.22657-.04297-.22656.04297-.22266.1328-.21093.21485-.1914.28906-.16017.3672-.125.43359-.08203.5039-.03125.5586h-.83203l.03906-.58985.10938-.57812.17969-.54688.2461-.4961.30077-.41796.17188-.17578.1836-.14844.1953-.1211.20703-.08984.21875-.05468.23047-.01954m4.95313 0l.23047.01954.21875.05468.20703.08985.19531.1211.1836.14843.17187.17578.30469.41797.24219.4961.17968.54687.10938.57812.03906.58985-.03906.59375-.10938.58593-.17969.55079-.24218.5039-.30469.42969-.17188.17969-.18359.15234-.19531.1211-.20703.09374-.21875.0547-.23047.02343-.23047-.02344-.21875-.05469-.20703-.09375-.19531-.12109-.1836-.15234-.17187-.1797-.30469-.42968-.24219-.5039-.17969-.55079-.10937-.58593-.03906-.59375h.83203l.03125.5625.07812.5078.12891.44142.16016.375.1914.30078.21094.22265.22266.13672.22656.04688.22656-.04688.22266-.13672.21094-.22265.1914-.30079.16016-.375.1289-.4414.08203-.50781.02735-.5625-.02734-.5586-.08204-.5039-.1289-.4336-.16016-.36719-.1914-.28906-.21094-.21484-.22266-.13281-.22656-.04297-.22656.04297-.22266.1328-.21094.21485-.1914.28906-.16016.3672-.1289.43359-.07813.5039-.03125.5586h-.83203l.03906-.58985.10938-.57812.17968-.54688.24219-.4961.30469-.41796.17187-.17578.1836-.14844.1953-.1211.20704-.08984.21875-.05468.23047-.01954m4.95312 0l.38672.02735.35938.08203.32031.13672.28125.1875.23047.23828.17187.28516.10938.33203.03906.375-.02344.27734-.05468.23438-.08985.19921-.10937.16797-.1289.14454-.14063.125-.28907.1953.23438.1172.20703.14843.1836.17188.15234.1914.1211.21485.09374.23047.05469.24218.01953.25782-.03516.30859-.10156.32813-.17187.32421-.2422.3047-.30468.26952-.375.21485-.21094.08203-.23047.0586-.24218.03905-.26172.01563-.26172-.01563-.23828-.03906-.22656-.0586-.20313-.08202-.35937-.21485-.28907-.26953-.22265-.30469-.16016-.32421-.08984-.32813-.03125-.3086h.83203l.02734.25391.07813.23438.1211.21094.16015.18359.19531.15234.21875.11719.24219.07031.2539.02735.25391-.02735.24219-.07031.21875-.11719.1914-.15234.16407-.1836.12109-.21093.07813-.23438.02734-.2539-.02734-.25391-.07813-.23438-.1211-.21093-.16406-.1875-.1914-.15235-.21875-.11328-.24219-.07422-.2539-.02343-.25391.02343-.24219.07422-.21875.11328-.19531.15235-.16016.1875-.1211.21094-.07812.23437-.02734.2539h-.83203l.01953-.2539.05469-.23828.08984-.22656.125-.20704.15234-.1914.1836-.17188.20703-.15234.23047-.13281-.28516-.19531-.14062-.125-.12891-.14454-.10938-.16796-.08984-.19922-.0586-.23438-.01952-.27734h.78515l.02344.21484.0664.1914.10548.16798.13671.14062.16407.10938.1875.08203.20703.05078.22265.01562.21875-.01562.20703-.05078.19141-.08203.16406-.10938.13672-.14062.10156-.16797.06641-.1914.02344-.21485-.02344-.21485-.0664-.1914-.10157-.16406-.13672-.14063-.16406-.10938-.1914-.08203-.20704-.05078-.21875-.01562-.22265.01562-.20703.05078-.1875.08204-.16407.10937-.13672.14063-.10546.16406-.06641.1914-.02344.21485h-.78515l.03906-.375.10937-.33203.17188-.28516.23047-.23828.27734-.1875.32422-.13672.35938-.08203.38671-.02735"/><path fill="#ffffe0" fill-rule="evenodd" d="M279.60547 432.21875h22.1836v-10.1914h-22.1836v10.1914"/><path fill-rule="evenodd" d="M283.10547 423.85938h.51172v6.29687h-.78906v-4.49219h-1.38672v-.55469l.55859-.0664.2539-.05078.22657-.08985.20312-.14062.17579-.21094.14062-.29687.10547-.39454m4.8164 0l.22657.01954.21875.05468.21094.08985.1953.1211.1836.14843.17188.17578.30078.42188.24219.49218.17968.54688.11328.57812.03907.59375-.03907.58985-.11328.58593-.17969.5547-.24218.5-.30078.42968-.17188.17969-.1836.15234-.1953.125-.21094.08984-.21875.0586-.22656.01953-.23047-.01953-.21875-.0586-.20704-.08984-.19921-.125-.1836-.15234-.17187-.1797-.30078-.42968-.2422-.5-.17968-.55469-.11328-.58593-.03906-.58985h.83594l.02734.5625.08203.5039.125.44532.16406.3711.1914.30078.21095.22265.22265.13672.22656.04688.22266-.04688.22656-.13672.20704-.22265.1914-.30079.16406-.37109.125-.44531.08204-.5039.02734-.5625-.02735-.5625-.08203-.5-.125-.4375-.16406-.36329-.1914-.29297-.20704-.21484-.22656-.13281-.22265-.04297-.22657.04297-.22265.1328-.21094.21485-.1914.29297-.16407.36328-.125.4375-.08203.5-.02735.5625h-.83593l.03906-.59375.11328-.57812.17969-.54688.24219-.49219.30078-.42187.17187-.17578.1836-.14844.19921-.1211.20704-.08984.21875-.05468.23046-.01954m4.94922 0l.23047.01954.21875.05468.20703.08985.19922.1211.1836.14843.17187.17578.30078.42188.24219.49218.17969.54688.11328.57812.03906.59375-.03906.58985-.11328.58593-.17969.5547-.24219.5-.30078.42968-.17187.17969-.1836.15234-.19922.125-.20703.08984-.21875.0586-.23047.01953-.22656-.01953-.21875-.0586-.21094-.08984-.1953-.125-.1836-.15234-.17188-.1797-.30078-.42968-.24219-.5-.18359-.55469-.10938-.58593-.03906-.58985h.83203l.03125.5625.08204.5039.125.44532.16406.3711.1875.30078.21094.22265.22265.13672.22656.04688.22657-.04688.22265-.13672.21094-.22265.1914-.30079.16407-.37109.125-.44531.08203-.5039.02734-.5625-.02734-.5625-.08203-.5-.125-.4375-.16406-.36329-.19141-.29297-.21094-.21484-.22265-.13281-.22657-.04297-.22656.04297-.22265.1328-.21094.21485-.1875.29297-.16406.36328-.125.4375-.08204.5-.03125.5625h-.83203l.03906-.59375.10938-.57812.1836-.54688.24218-.49219.30078-.42187.17188-.17578.1836-.14844.1953-.1211.21094-.08984.21875-.05468.22656-.01954m4.95313 0l.38672.02735.35937.08203.32422.13672.27735.1875.23046.23828.17188.28516.10937.33203.03907.3789-.01954.27344-.05859.23438-.08594.19921-.11328.17188-.1289.14453-.14063.1211-.28515.1953.23046.1211.20704.14453.18359.17188.15234.19531.125.21094.08985.23047.05468.24609.01954.2539-.03516.3086-.10156.32813-.17188.32421-.23828.3086-.3086.26953-.375.21094-.21093.08203-.22656.0625-.2461.03515-.26172.01563-.2578-.01563-.2422-.03515-.22265-.0625-.20703-.08203-.35938-.21094-.28906-.26953-.22266-.3086-.15625-.32421-.09375-.32813-.03125-.3086h.83203l.02735.25391.07812.23438.125.21484.16016.1836.1914.15234.21875.11328.2422.07422.2539.02344.25781-.02344.23828-.07422.21875-.11328.19531-.15235.16016-.18359.1211-.21484.07812-.23438.02734-.2539-.02734-.25391-.07813-.23438-.12109-.21093-.16015-.1836-.19532-.15234-.21875-.11719-.23828-.07031-.25781-.02734-.2539.02734-.2422.07031-.21875.11719-.1914.15234-.16016.1836-.125.21094-.07812.23437-.02735.2539h-.83203l.01953-.2539.0547-.23828.09374-.22656.1211-.20704.15625-.1914.17968-.17188.20703-.15234.23438-.13281-.28906-.19531-.13672-.1211-.1289-.14453-.11329-.17188-.08984-.19921-.0547-.23438-.02343-.27344h.78906l.02344.21485.0664.1914.10157.16407.13672.14062.16797.10938.1875.08203.20703.05078.21875.01953.22265-.01953.20704-.05078.1875-.08203.16406-.10938.13672-.14062.10547-.16407.0664-.1914.02344-.21485-.02344-.21484-.0664-.1914-.10547-.16798-.13672-.13671-.16406-.11329-.1875-.08203-.20704-.05078-.22265-.01562-.21875.01562-.20703.05078-.1875.08204-.16797.11328-.13672.13671-.10156.16797-.0664.19141-.02345.21484h-.78906l.03906-.3789.10938-.33203.17187-.28516.23047-.23828.28125-.1875.32031-.13672.35938-.08203.38672-.02735"/><path fill="#ffffe0" fill-rule="evenodd" d="M337.30469 356.98047h22.17969v-10.1914h-22.1797v10.1914"/><path fill-rule="evenodd" d="M340.80469 348.6211h.50781v6.29687h-.78516v-4.49219h-1.39062v-.55469l.5625-.0664.25-.05078.23047-.08985.20312-.14453.17578-.20703.14063-.29688.10547-.39453m4.8125 0l.23047.01954.21875.05468.20703.08985.19922.12109.18359.14844.17188.17578.30078.42187.24218.4922.1797.54687.11327.57812.03906.59375-.03906.58985-.11328.58593-.17969.55469-.24218.5-.30079.42969-.17187.17969-.1836.15234-.19921.125-.20703.08984-.21875.0586-.23047.01953-.22656-.01953-.21875-.0586-.21094-.08984-.19531-.125-.1836-.15235-.17187-.17968-.30079-.42969-.24218-.5-.1836-.55469-.10937-.58594-.03906-.58984h.83203l.03125.5625.08203.5039.125.44532.16406.3711.1875.30077.21094.22266.22265.13672.22657.04688.22656-.04688.22266-.13672.21093-.22265.19141-.30079.16406-.37109.125-.44531.08203-.5039.02735-.5625-.02735-.5625-.08203-.5-.125-.4375-.16406-.36329-.1914-.29297-.21094-.21484-.22266-.13281-.22656-.04297-.22656.04296-.22266.13282-.21094.21484-.1875.29297-.16406.36328-.125.4375-.08203.5-.03125.5625h-.83203l.03906-.59375.10937-.57812.1836-.54688.24219-.49219.30078-.42187.17187-.17578.1836-.14844.1953-.1211.21094-.08984.21875-.05469.22657-.01953m5.09375 0h.50781v6.29688h-.78516v-4.49219h-1.39062v-.55469l.5625-.0664.25-.05078.23047-.08985.20312-.14453.17188-.20703.14453-.29688.10547-.39453m2.82422 2.17579h.78515l.01953-.31641.0586-.28516.10156-.2539.14063-.21485.17968-.17578.22266-.1289.26562-.07813.3086-.02734.23828.01953.22265.0625.20313.10156.17969.14063.14844.17187.11328.20703.0703.23438.02735.26562-.02344.26953-.0664.22266-.10938.1914-.15234.17188-.20313.16406-.24609.16406-.63281.39063-.53906.3125-.4375.3164-.34766.32423-.26172.33593-.1914.35156-.125.3711-.07032.39062-.01953.42188h4.21094v-.74219h-3.33203l.08203-.28515.11719-.23438.14843-.20313.1836-.17968.23437-.17188.27735-.17578.71484-.41797.41797-.20312.34375-.23047.28125-.2539.21875-.26563.16406-.27735.11328-.28515.0625-.28516.01953-.28125-.04296-.38281-.1172-.34766-.1914-.3086-.25-.26171-.30078-.21484-.34766-.15625-.3789-.09766-.40625-.03516-.4375.03125-.39453.10157-.35547.16406-.30469.23437-.25.3047-.1836.375-.11718.4453-.03906.51954"/><path fill="#ffffe0" fill-rule="evenodd" d="M217.46875 326.39453h22.17969v-10.19531h-22.17969v10.19531"/><path fill-rule="evenodd" d="M220.96875 318.03516h.50781v6.29296h-.78515v-4.48828h-1.38672v-.55468l.5586-.06641.25-.05469.23046-.08984.20313-.14063.17578-.21093.14062-.29297.10547-.39453m4.8125 0l.23047.01953.21875.05469.20703.08984.19922.1211.1836.14843.17187.17578.30078.41797.24219.4961.17968.54687.11328.57812.03907.58985-.03906.59375-.11329.58594-.17968.55078-.2422.5039-.30077.42578-.17188.1797-.1836.15624-.19921.1211-.20703.09375-.21875.05468-.23047.01953-.22656-.01953-.21875-.05469-.21094-.09375-.19531-.12109-.1836-.15625-.17187-.17969-.30078-.42578-.24219-.5039-.17969-.55079-.11328-.58593-.03906-.59375h.83594l.02734.5625.08203.50781.125.4414.16406.375.19141.30079.20703.22265.22266.13672.22656.04688.22656-.04688.22266-.13672.21094-.22265.1914-.30078.16406-.375.125-.44141.08204-.50781.02734-.5625-.02734-.5625-.08203-.5-.125-.4336-.16407-.36718-.1914-.29297-.21094-.21094-.22266-.13281-.22656-.04688-.22656.04688-.22266.13281-.20703.21094-.1914.29297-.16407.36718-.125.4336-.08203.5-.02734.5625h-.83594l.03906-.58985.11328-.57812.17969-.54688.24219-.49609.30078-.41797.17187-.17578.1836-.14844.19531-.1211.21094-.08983.21875-.0547.22656-.01952m5.09375 0h.50781v6.29296h-.78515v-4.48828h-1.39063v-.55468l.5625-.06641.25-.05469.23047-.08984.20313-.14063.17578-.21093.14062-.29297.10547-.39453m2.82422 2.17578h.78516l.01953-.3164.05859-.28907.10156-.25.14063-.21485.17969-.17578.22265-.1289.26563-.08203.30859-.02735.23828.02344.22266.0625.20312.10156.17969.13672.14844.17578.11328.20313.07422.23828.02344.26562-.02344.26563-.0625.22656-.11328.1914-.15235.17188-.20312.16016-.2461.16797-.6328.38672-.53907.3164-.4375.3164-.34766.32423-.26172.33594-.1914.35156-.125.36719-.07031.39453-.01954.41796h4.21094v-.73828h-3.33203l.08594-.28515.11328-.23828.14844-.19922.1875-.17969.23047-.17188.27734-.17578.71875-.41796.41406-.20704.34375-.23046.28125-.25.21875-.26563.16406-.28125.11328-.28125.0625-.28516.01954-.28125-.03907-.3828-.12109-.34767-.1914-.30859-.25-.26172-.30079-.21484-.34765-.15625-.37891-.10156-.40625-.03125-.4336.03125-.39843.09765-.35547.16797-.30469.23438-.25.30468-.1836.375-.11718.44532-.03906.51953"/></g></defs><use xlink:href="#ar"/></svg>