<svg xmlns="http://www.w3.org/2000/svg" role="img" xmlns:xlink="http://www.w3.org/1999/xlink" viewBox="142.45 309.95 326.84 171.84"><defs><clipPath id="a"><path d="M144 438h1v42.32813h-1zm0 0"/></clipPath><clipPath id="b"><path d="M144 311.67188h1V435h-1zm0 0"/></clipPath><clipPath id="c"><path d="M144 311.67188h324v168.65625H144zm0 0"/></clipPath><clipPath id="d"><path d="M380 457h15v23.32813h-15zm0 0"/></clipPath><clipPath id="e"><path d="M467 311.67188h1v168.65625h-1zm0 0"/></clipPath><clipPath id="f"><path d="M144 479h4v1.32813h-4zm0 0"/></clipPath><clipPath id="g"><path d="M147 480h2v.32813h-2zm0 0"/></clipPath><clipPath id="h"><path d="M146 480h2v.32813h-2zm0 0"/></clipPath><clipPath id="i"><path d="M153 479h9v1.32813h-9zm0 0"/></clipPath><clipPath id="j"><path d="M160 480h2v.32813h-2zm0 0"/></clipPath><clipPath id="k"><path d="M159 480h2v.32813h-2zm0 0"/></clipPath><clipPath id="l"><path d="M166 479h9v1.32813h-9zm0 0"/></clipPath><clipPath id="m"><path d="M173 480h3v.32813h-3zm0 0"/></clipPath><clipPath id="n"><path d="M172 480h2v.32813h-2zm0 0"/></clipPath><clipPath id="o"><path d="M180 479h8v1.32813h-8zm0 0"/></clipPath><clipPath id="p"><path d="M187 480h2v.32813h-2zm0 0"/></clipPath><clipPath id="q"><path d="M186 480h2v.32813h-2zm0 0"/></clipPath><clipPath id="r"><path d="M193 479h8v1.32813h-8zm0 0"/></clipPath><clipPath id="s"><path d="M200 480h2v.32813h-2zm0 0"/></clipPath><clipPath id="t"><path d="M206 479h9v1.32813h-9zm0 0"/></clipPath><clipPath id="u"><path d="M213 480h3v.32813h-3zm0 0"/></clipPath><clipPath id="v"><path d="M220 479h8v1.32813h-8zm0 0"/></clipPath><clipPath id="w"><path d="M227 480h2v.32813h-2zm0 0"/></clipPath><clipPath id="x"><path d="M233 479h8v1.32813h-8zm0 0"/></clipPath><clipPath id="y"><path d="M240 479h3v1.32813h-3zm0 0"/></clipPath><clipPath id="z"><path d="M246 479h9v1.32813h-9zm0 0"/></clipPath><clipPath id="A"><path d="M253 479h3v1.32813h-3zm0 0"/></clipPath><clipPath id="B"><path d="M260 479h8v1.32813h-8zm0 0"/></clipPath><clipPath id="C"><path d="M266 479h2v1.32813h-2zm0 0"/></clipPath><clipPath id="D"><path d="M273 480h8v.32813h-8zm0 0"/></clipPath><clipPath id="E"><path d="M279 480h2v.32813h-2zm0 0"/></clipPath><clipPath id="F"><path d="M286 479h9v1.32813h-9zm0 0"/></clipPath><clipPath id="G"><path d="M300 479h8v1.32813h-8zm0 0"/></clipPath><clipPath id="H"><path d="M314 477h7v3.32813h-7zm0 0"/></clipPath><clipPath id="I"><path d="M327 478h7v2.32813h-7zm0 0"/></clipPath><clipPath id="J"><path d="M326 480h3v.32813h-3zm0 0"/></clipPath><clipPath id="K"><path d="M340 479h8v1.32813h-8zm0 0"/></clipPath><clipPath id="L"><path d="M340 479h2v1.32813h-2zm0 0"/></clipPath><clipPath id="M"><path d="M353 478h8v2.32813h-8zm0 0"/></clipPath><clipPath id="N"><path d="M353 480h2v.32813h-2zm0 0"/></clipPath><clipPath id="O"><path d="M367 477h7v3.32813h-7zm0 0"/></clipPath><clipPath id="P"><path d="M380 478h7v2.32813h-7zm0 0"/></clipPath><clipPath id="Q"><path d="M380 480h2v.32813h-2zm0 0"/></clipPath><clipPath id="R"><path d="M393 478h8v2.32813h-8zm0 0"/></clipPath><clipPath id="S"><path d="M391 479h3v1.32813h-3zm0 0"/></clipPath><clipPath id="T"><path d="M393 480h2v.32813h-2zm0 0"/></clipPath><clipPath id="U"><path d="M406 478h8v2.32813h-8zm0 0"/></clipPath><clipPath id="V"><path d="M404 480h4v.32813h-4zm0 0"/></clipPath><clipPath id="W"><path d="M421 476h5v4.32813h-5zm0 0"/></clipPath><clipPath id="X"><path d="M433 479h8v1.32813h-8zm0 0"/></clipPath><clipPath id="Y"><path d="M439 479h2v1.32813h-2zm0 0"/></clipPath><clipPath id="Z"><path d="M448 476h4v4.32813h-4zm0 0"/></clipPath><clipPath id="aa"><path d="M460 477h7v3.32813h-7zm0 0"/></clipPath><clipPath id="ab"><path d="M144 465h4v4h-4zm0 0"/></clipPath><clipPath id="ac"><path d="M144 452h4v3h-4zm0 0"/></clipPath><clipPath id="ad"><path d="M466 451h2v3h-2zm0 0"/></clipPath><clipPath id="ae"><path d="M144 438h4v5h-4zm0 0"/></clipPath><clipPath id="af"><path d="M466 439h2v4h-2zm0 0"/></clipPath><clipPath id="ag"><path d="M144 425h4v4h-4zm0 0"/></clipPath><clipPath id="ah"><path d="M466 425h2v3h-2zm0 0"/></clipPath><clipPath id="ai"><path d="M144 411h4v5h-4zm0 0"/></clipPath><clipPath id="aj"><path d="M466 411h2v3h-2zm0 0"/></clipPath><clipPath id="ak"><path d="M465 412h3v3h-3zm0 0"/></clipPath><clipPath id="al"><path d="M144 398h4v5h-4zm0 0"/></clipPath><clipPath id="am"><path d="M466 398h2v2h-2zm0 0"/></clipPath><clipPath id="an"><path d="M465 398h3v3h-3zm0 0"/></clipPath><clipPath id="ao"><path d="M144 385h4v4h-4zm0 0"/></clipPath><clipPath id="ap"><path d="M466 385h2v3h-2zm0 0"/></clipPath><clipPath id="aq"><path d="M465 385h3v3h-3zm0 0"/></clipPath><clipPath id="ar"><path d="M144 373h4v2h-4zm0 0"/></clipPath><clipPath id="as"><path d="M466 372h2v3h-2zm0 0"/></clipPath><clipPath id="at"><path d="M144 359h4v3h-4zm0 0"/></clipPath><clipPath id="au"><path d="M466 358h2v3h-2zm0 0"/></clipPath><clipPath id="av"><path d="M144 346h4v2h-4zm0 0"/></clipPath><clipPath id="aw"><path d="M466 345h2v3h-2zm0 0"/></clipPath><clipPath id="ax"><path d="M144 332h4v4h-4zm0 0"/></clipPath><clipPath id="ay"><path d="M466 332h2v3h-2zm0 0"/></clipPath><clipPath id="az"><path d="M144 317h3v7h-3zm0 0"/></clipPath><clipPath id="aA"><path d="M466 318h2v2h-2zm0 0"/></clipPath><clipPath id="aB"><path d="M465 318h3v3h-3zm0 0"/></clipPath><g id="aC" clip-path="url(#clip1)"><path fill="#fff" fill-opacity="0" fill-rule="evenodd" d="M0 0h1000v1000H0zm0 0"/><path fill="#d3d3d3" fill-opacity="0" fill-rule="evenodd" d="M162.15234 355.86719l-.23437.29297.0586.23437.11718.17188.17578.23437.29297.34766.11328.0586.11719-.17188.0586-.23438.17577-.17578.46485-.17578h.69922l.23437.29297.28906.8164.0586.17579.17578.23046.35156.23438.69922.69922.17188.17578.23437.34765.23438.41016.28906.58203.41015.46485.23047.23437.23438.17578.11719.23047.17578.29297.17187 1.16406v.23438l.0586.28906.05859.11719.11719.11719.34765.41015.11719.17188.17578.17578.17578.23437.11719.17188.17188.35156.05859.23438.23437.40625.23438-.0586-.17578.17578-.0586.92969h-.58203l-.23437-.11328-.34766.11328-.11719.11719-.05859.29297-.0586.17578-.11718.17187-.46484.29297-.0586.23438-.0586.11328v.64453l.0586.17187v.41016l.0586.0586v.40624l.05859.40625.11719.17579.05859.05859.23047.64062-.0586.29297v.69922l-.05859.58203v.23438l-.0586.23047-.05468.35156v1.92187l.05469.1172h.42578l-.36719.11718-.02344.35156.89063 1.16797 1.74219.53906 1.33984.35938v.53906l.08984.8086.53516.71484 1.51953.26953.89063-.08594.08984 1.16406.53516.1797 1.16015-.1797 2.05469-.98437 1.16016-.36328 1.8789-.17578 1.69531-.1797-.17968.71876-1.51563.08594-1.25.08984-.80469.26953-1.07421.8086.26953.71875.53515.89843-.17968.625-.26563.8086.26563 1.07812.625.89844.80468.17969 1.25-.1797-.26562.72267.09766.5039.05468.29297v.17188l.0586.29296v.40625l.17578.1172.35156.11718h.40625l.29297-.17578.11328-.11719.0586-.11719.11718-.23047.0586-.17578.35156-.46484.23047-.17578.17578-.0586.17578.0586.0586.17578.11718.98828.05469.46875.0586.17188.11718.23437.17578.0586.8164.05859h.28907l.11719.23437.05859.40625.0586.35156v1.10547l.11718.29297.11719.34766.28906.69922.17578.35156.58203.7539.35157.17579.17187.0586.46875.23437.64063.46484.34765.23438.29297.17578.29297.05468.23047.0625.8164.34766.29297.17578.11328.17188.35157.35156.11719.17578.52343.64063v.28906l.0586.35156v.34766l.05859.35156.0586.28906.11718.0586.17188.05859h.17578l.58203.23437.17578.1172.17578.28905.17578.23438.11328.23437.29297.23047.11719.11719v.41016l.0586.05468.28906.23438.23437.11719.0586.11718.11718.17188.0586.11719.23047.23437.05859.17578.23437.0586.1172.05859-.1172.11328-.05859.11719v.11719l-.11719.29296-.11719.28907v.58203l.17579.11719.11718.05859.0586.11719.11719.11719.11328.05859.17578.34765.0586.35157.05858.40625v.17578l-.05859.17578-.11719.69922v.17187l.1172.17579.29296.29296h.40625l.17578.1172.11719.17187.11719.29296v.23438h-.52735l-.23047-.23438h-.23437l-.17578.0586-.0586.69922.0586.34765.11719.17579.17578.41015.11718.23047.28907.46875.17578.05469h.52344l.23437.0586.75781.64062.0586.29296v.23438l.05859.0586.23047.34765v.35156l-.11719.17188v.29297l.29297.28906.29297.17578.17187.0586.29297.17577.29297.1172.58203.40624.28906.23438.29297.17578.21875.16015.01563.01172.23047.17579.64062.52343.17578.23438.1172.17578.17577.17578.11328.17188v.64062l.1172.17578.46874.11719.58203.11719.23438.05859.23047.11328.29297.11719.11328.0586.58593.35156.28907.17187.17578.0625.17578.05469.17578.0586.69922.35155.28906.17579.23438.05468.28906.17578.23437.1172.64063.40624.29297.11719.17187.0586.23438.05859.41015.05859.23047.0586.23438.11718.0586.17188-.41017.17578.46875.0586.0586.29296.11328.23438.17578.05468.23438.0586.17578.05859.40625.11719.64062.23437.11719.17188.0586.23437v.17578l-.0586.1172-.0586.40624.23438.23438.11719.05859.34766.11719.64062.23047.17578.11718.28906.1172.17578.17577.23438.46485.58203 1.10546.17578.17579.34766.17578.17578.11719.35156.11718 1.04688.52344.23437.0586.46485.11327.29297.0586.46484.17578.75781.58203.23438.23438.34765.46484.17578.17578.28907.23438.8164.69921.29297.17579.28906.28906.29297.17578.29297.28906.69531.64063.17578.17578.29297.23437.28907.23438.46875.28906.64062.58203.34766.23438.23437.29297.34766.34765.35156.46485.9336.99218.34765.40625.11719.17579.23437.05859.11328.11719.64454.17578.23047.11328.23437.0586.29297.17577.23047.1172.9336.69921.40624.40625.23438.17578.40625.17578.23437.11719.8164.34766.34766.23437.23438.11719.29297.28906.23047.11719.7578.35156.35157.17188.23047.05859.29297.11719.23437.0586.8711.17577h.8164l.46875.23047.17188.0586.875.69921.46484.1172.29297.05858.17578.0586.23047.0586.46875.05859.34766.05859.35156.0586.40625.05859h.29297l.17187.0586v.23046l.17578.17578h.29297l.34766.0586.35156.05859.69922.11719h.64063l.46484-.23438.29297-.17578.17187-.11719.41016-.17187.28906-.17578.9336-.46485.46875-.29297.52343-.29296.46485-.17188.46484-.17578 1.05078-.46485.28906-.11718.41016-.11719.28906-.11719.52735-.17578 1.51562-.69922.58203-.34765.28907-.0586.29297-.0586.34765-.11718.875-.23047.35156-.11719h.11329l.23437-.05859.875-.23437.23438-.0586h.8125l.35156-.0586.8164-.11718.17188-.0586.35156-.05468.29297-.0586.23047-.05859.8164-.17578.17579-.0586h.34765l.23438-.05859.46484-.11718.75781-.17188.23438-.0586h.34765l.41016-.11718.28906-.0586 1.28516-.05859h.28906l.41016-.0586.23047-.05858h.17578l.875-.1172h.40625l.41015-.11718h.34766l.35156-.11328.8711-.0586h1.75l1.04687.28907.41016.11719.28906.11718.35156.11719.28907.11719 1.05078.17187.28906.0586h.29297l.29297.05859.17187.0586.41016.05859.17187.0586.1172.05858h.11718l.11719.0586.35156.0586h.11328l.41016.0664 1.92187.39453 1.92578.39453 1.51953.44922 1.69532.71875 2.14453.80469 1.60547-.71875 1.42968-.80469 1.16016-1.07813 1.25-.44921 3.03516-.71875 1.875-.35938 2.14453-1.34765 2.23437-1.25391 2.5-1.25781 1.69531-.44922 1.78516-.17969 1.16016-.26953.625.53906 1.33984-.26953.71485-.98828.98437-1.34375.44531-.17969.80469-.35937 1.875-.53907 1.78516-.44921 1.25-.26954 1.16015-.08984 1.69922-.08984 1.96094-.26954 1.25-.08984h.53906l.625-.08984h.89063l2.14453-.17969 2.41015-.17969 2.58985-.08984 1.69531.17969 1.60938.08984 1.42968.35938 1.16016.71875 1.875.98828 1.16015 1.52734.26563.71484.6289.08985.35548.89844.53515.53906.53516 1.52734 1.07422.35938h.53515l-.80469.53515.08985 1.70703.71484 2.69532.89063.80468.89453.98829.71484 1.2578 1.78516.53907 1.51953-.17969.35547 1.34375 1.60937-.80469.98047-.53906.26953.26953.31641-.21484.21875-.14453.80078.44922.44922-.35938h.35547l.53515-.26953.53907-.71875.53515-.26953.625-.98828 1.16016.44922.83984.3711 1.39454.61718 1.6953-.17969h1.60548l1.78515.08985.17969-1.70704.53516-1.34375.80468.26954.4922.84765.40233.40625-.08984.53906v.35938l.71485.44922.71093-.26953h1.42969l.35938.98828.4453 1.25781.71485 1.34375 1.25.6289 1.69531.62891.71485-.17969.17969-.53906.98046-.08984.44922.35937.08594 1.25782-.26563.6289-.53515.17969v.53906l.71484.98438.26563.53906.98437.98828.80078 1.07813-.26562.35937-.08985.89844-.625 2.33203-.35546 2.0664-.08985 1.79298-.17969.71875-.08984.53906v1.4375l-.98047 1.88281-.35937 1.70703-.53516.89844-.80469 1.16797-.26562.53906 2.05469 1.2539.08593.35938-.35546.53906-.08985-.17968v.80859l.08985 1.4375-.44532.71484-1.07422.09375-.26562.71485.53515.89844.8047.71875 1.16015.80859 1.33984.26953.44531.35938-.35546.44921-1.78907-.08984-1.25-.44922-.71484-.71875-.625-.08984-.17578 3.58984-.1875 1.3086h89.35937V311.70313h-55.26953v49.08203l.76172.125 3.28906.54296 2.02344 2.83594v2.7539l2.35156.33204 2.34766.33203h4.05078l-1.3789 4.16016-2.02344.70703-2.02344.70312-.54297.34375-2.59375 1.6172-.1875.11718-2.02344-2.07813-.73046-2.74218-2.67188-2.07813-1.375-3.5-.0664-.08203-1.95704-2.67188 2.75-1.41796v-49.08204H294.42187v91.41407l.1172.03125.1328.01172.07422.07421.10547.04688.08985.0586.08593.05859.08985.0586.29687.29687.0586.08984.03125.11719.02734.11719.01563.13671-.03125.1172-.0586.08983-.0586.08594-.04296.10547-.04688.10156-.02734.1211v.14453l.17578.26953.14844.14844.07422.08594.07422.07421.04296.10547.0625.08985.0586.08593.04297.10547.0586.08985.04687.10156.04296.10547.0586.08594.11719.17968.07421.07422.0625.08594.0586.08984.04297.10547.0586.08985.05858.08593.0625.08985.0586.08984.04297.10156.11719.17969.07421.07422.0586.08594.07422.07421.08984.0586.10547.04687h.14844l.1328-.01562.13282.01562.10156-.04687.07422-.07422.04688-.10156-.01563-.13281v-.14844l-.04687-.10547-.02735-.11719-.04687-.10156-.02735-.1211-.04296-.10156-.0625-.08984-.04297-.10156-.04297-.10547-.03125-.11719-.01563-.13281-.01171-.13672.08593-.0586.0586-.08593.12109-.03125.04297.10547.01562.1328v.1172l.0586.10156.0586.08984.08983.0586.14844.14843.0586.08985.04296.10547-.01171.10156.08593.0586.10547.04687.08594.0586.08984.05858.07422.07422-.11719.02735-.10546.04687-.08594.0586-.07422.07421-.0586.08985-.0625.08594-.02734.12109-.04687.10156-.04297.10547-.03125.11719-.01172.13281-.01563.13281v.14844l.02735.11719.04687.10547.04297.10156.0586.08984.07421.07422.08985.0586.07422.07421.08984.0586.0586.08984.04296.10547.04688.10156.11719.03125.1328.01563h.14845l.11718-.03125.10547.04297.04297.10547.04688.10156.02734.1211L299.5 410l.02734.11719.03125.1211.02735.11718.10547.04297.10156.04687.13281-.01562.14844.14844.0625.08593.07422.07422.07031.07422.08984.0625.10547.04297.10156.04297.1172.03125.13671.01562.11719-.03125.07422-.07422.02734-.11718-.01172-.13282-.03125-.12109-.02734-.11719.04297-.10547h.11719l.08984.0625.11719.02735h.14843l.13282.01562h.14843l.13282.01563.1328-.01563h.14845l.1328-.01562.13282-.01172.13672.01172.11719-.02735.13281-.01562.1914-.0586-.05859.17579-.01562.1328-.02735.1211-.01562.13281-.0586.08594-.1328.01563-.10548.04687-.10546.04297-.1172.03125-.11718.02735-.26563.03125h-.14843l-.13281.01562-.07422.07422.05859.08594.14844.14843.11719.1797.07421.0703.08985.0625.08984.0586.08594.0586.08984.05858.10156.04297.10547.0625.10547.04297.08594.0586.10547.04687.10156.04297.17969.11719.0586.08984-.04298.10156-.04687.10547.01562.13281.22266.22266.0586.08985.04296.10156.03125.1211.04297.10155.01563.13282.03125.11718.01171.13672.03125.11719.14844.14844.10156.04297.10547.04296.1172.03125.1328.01563.13672.01563h.11719l.11719-.03125.08984-.0586.04297-.10547.04688-.10156.04296-.10547.03125-.11719.01172-.1328v-.14845l-.01172-.1328-.01562-.13282-.03125-.11719-.04297-.10547-.04688-.10547-.04296-.10156-.04297-.10547-.01563-.13281.01563-.13281.02734-.11719.03125-.11719.02735-.1211.04687-.10155.08984-.0586.08594-.0625.07422-.07422.08984-.05859.22266-.22266.0586-.08593.07421-.07422.11719-.17969.0586-.08594v-.14844l-.07423-.07421-.10156-.04688-.10547-.04297-.10156-.04297-.0586-.08984-.04687-.10547-.02734-.11719.08984-.05859.11719-.03125.10156-.04297.17969-.11719.14844-.14843.01172-.13282-.01172-.10546-.08985-.0586-.1328.01563h-.14845l-.1328.01562-.13282-.01562-.1211-.03125-.08593-.0586-.07422-.07422-.0586-.08984-.0625-.08594-.11718-.17969-.0586-.08593.03125-.1211.08594-.05859.1211-.03125.05859-.08594v-.1211l-.03125-.11718-.0586-.08984-.05859-.08594-.04687-.10547-.02735-.11719-.01562-.1328.0586-.08985.07421-.07422.08984-.0586.1172-.17968.07421-.07422.0586-.08594.14843-.14844.1211-.03125.1328-.01562.13282.01562.07422.07422.04297.10547.01562.13281-.03125.1172-.11719.03124-.1328.01172-.14844.14844-.04297.10547-.04688.10156-.02734.1211-.03125.11718v.14844l.03125.11719.04297.10546.05859.08985.07422.07031.07422.07422.11719.03125.12109.02734.11719-.02734.1328-.01563h.1172l.08984.0586.07422.07422.04687.10546.0586.08594.10156.04688.13281.01562.10547.04297.08594.0586-.01172.10546-.07422.07422-.17969.11719-.05859.08984-.08984.0586-.07032.07422-.07421.07421-.0625.08985-.02735.11719-.01562.1328.01562.13282-.01562.13281v.14844l.01562.13281.02735.1172.03125.12108.07421.07422.08985.0586.08594.0586.08984.05858.11719.03125v.08594l-.10157.04688-.08984.0586-.26563.03124-.11718.02735h-.14844l-.10547.04296-.10156.04688-.0586.08984-.0625.23438-.01171.13281-.03125.1211-.01563.1328v.29298l-.01172.1328.01172.13673.01563.1328.1328.01563.13282.01172.1211.03125.08593.0586.07422.07421.04688.10547.04296.10157.01563.1328v.44532l-.01563.13281v.44532l.03125.26562.02735.11719.01562.13281.03125.11719.08594.21094.03125.26562v.14844l-.03125.11719-.02734.11718-.03125.1211-.02735.11719-.03125.11718-.03125.1211-.01171.1328-.01563.13282.08984.0586.1172-.03125.10155.01562.04688.10547-.03125.26562v.44141l-.04297.10547-.04688.10547-.04296.10156-.04297.10547-.0586.08594-.03125.12109-.04296.11719-.03125.11719-.01563.1328.01563.13282.05859.08984.10547.04688.08594.0586.05859.08593-.01172.13672-.03125.11719-.04297.10156v.44531l-.01562.13281v.14844l-.03125.11719-.04297.10547-.02735.11719-.04687.10546-.04297.10157-.03125.12109-.02734.11719-.03125.13281-.03125.11719-.02735.11719-.04297.10546-.03125.1172-.03125.12108-.01171.13282-.01563.13281v.29688l.02734.11718v.14844l.04688.39844.02734.11719.0586.08984.12109.03125h.14844l.13281-.01563.0586.08985v.11719l-.0586.08984-.08984.0586-.10157.04296-.10546.04688-.08985.05859-.08594.0586-.13671.01562-.1172-.03125-.1328-.01563-.10157.04688-.0625.08594-.01172.13671-.01562.13282-.03125.11719-.02735.11718-.01562.13281-.03125.1211v.29687l.01563.13282.03125.11718v.14844l.01171.13281v.14844l-.02734.11719-.04688.10156-.02734.1211-.03125.11718-.0586.08985-.07421.07421-.10156.04297-.10547.04688-.11719.02734-.1211.03125-.10156-.04687.0586-.08594.10547-.04688.02734-.11718.03125-.11719.02734-.1211.03125-.11718v-.14844l.01563-.13281-.03125-.11719-.04297-.10547-.10547.01563-.07422.07422-.10156.04296-.08984.0625-.07422.07422-.04297.10157-.01563.1328-.03125.1172L304.25 426l-.03125.11719-.02734.11719-.03125.12109-.02735.11719-.03125.11718-.04297.10547-.08984.0586h-.08984l-.1172-.03125-.03124-.08594.01562-.13672-.03125-.11719v-.14844l-.01171-.1328v-.14844l-.0625-.23438-.02735-.1211-.04297-.10156-.04687-.10546-.0586-.08594-.05859-.08985-.04297-.10546-.0625-.08594-.14844-.14844-.0703-.07422-.10548-.04687-.10547-.04297-.10156-.04297-.29687-.29688-.08985-.07421-.08594-.0586-.10546-.04297-.08985-.0625-.08594-.0586-.10546-.04296-.08985-.0586-.08594-.0625-.07421-.0703-.10547-.04688-.08594-.0586-.10547-.04296-.08984-.0625-.10156-.04297-.10547-.04297-.08594-.0586-.10547-.04687-.10547-.04297-.10156-.04687-.08985-.0586-.10156-.04297-.10547-.04296-.08984-.0625-.11719-.02735-.13281-.01562-.13281.01562H299.75l-.13281.01563-.11719-.03125-.08984-.0586-.07422-.07422-.08985-.05859-.10156-.04688h-.14844l-.12109-.02734-.10156-.04297-.07422-.07422-.11719-.17968-.08984-.0586-.10156-.04297-.08985-.0625-.10547-.04296-.08984-.0586-.08594-.0586-.10547-.04687-.0586-.08594-.05858-.08984-.04297-.10547-.04688-.10156-.07422-.07422-.08594-.0586-.07421-.07421-.08985-.0586-.22265-.22265-.04297-.10547-.03125-.26563.10547-.04296h.14453l.10547.04296.07421.07422.08985.0586.08594.0586.10546.04687.08985.05859.14844.14844.0703.07422.14845.14843.0625.08594.07421.07422.08594.0586.07422.07421.08985.0625.08984.0586.08594.05859.26953.17578.10156.04688.10547.04296.10156.04297.04688-.07421.05859-.08594.07422-.07422.07031-.07422.10547.04297.07422.07422.0586.08984.04296.10156.04688.10547.04296.10547.1211.02735.11719-.02735.07421-.08984.04297-.10547.0586-.08985.07422-.07421.10546-.04297.1172-.02735.1328.01172.08985.0586.14844.14843.05859.08985.04297.10547.04687.10156.04297.10547.04297.10156.10547.04688.10547.04296.13281.01563.08594-.0586.0586-.08984.07421-.07422.10547-.04297.11719.02735.10547.04687.10156.04297.10547.04297.10156.04688.17969.11718v.11719l-.01563.13281.01563.13281.01562.13672.0586.08594.10156.04688.1211.02734.11718.03125h.14844l.11719-.03125.05859-.08984.17969-.1172.05859-.08983.07422-.07422.0586-.08594.11718-.17969.17969-.11719.11719.03125.08984.0586.04297.07422-.01563.1328v.1172l.08985.05859h.14843l.13282-.01563.1328-.01171.26563-.03125.10547-.04297.11719-.03125.1211-.02735.07421-.07421.07031-.07422.0625-.08985-.01562-.10547-.04688-.10156-.10156-.04297-.10547-.01562-.11718.02734-.26563.03125h-.14844l-.07421-.07422-.08985-.0586-.11719-.03124-.11718-.02735-.13282-.01562h-.14843l-.13282.01563h-.29687l-.10547-.04688-.14844-.14844-.04297-.10156-.05859-.08984.22266-.22266.08593-.0586.10547-.04296.11719-.03125.13281-.01563.13281.01563.13672.01562.10157.04297.1328-.01172.08985-.0625.10156-.04297.0625-.08984-.04687-.10156-.08984-.0586-.1172-.03125-.10155-.04296-.0586-.08985-.0625-.08984v-.11719l.01563-.13281.10547-.04688.07421-.07031v-.1211l-.08984-.05859-.03125-.11719.08985-.05859.07421-.07422.04297-.10547.0586-.08984.04687-.10156.01563-.13281v-.14844l-.04688-.10547-.04297-.10156-.08984-.0586-.13281-.01562-.10157-.04297-.13671-.01563-.1172-.03125h-.4453l-.13282-.01562-.13281-.01172-.13281-.01563-.11719-.03125h-.14844l-.13281-.01562-.13281-.01172-.26563-.03125-.1211-.04297-.08593-.0586-.07422-.07421v-.14844l.01172-.13281.10547-.04688.10156-.04296.13281-.01563h.15235l.13281-.01562h.29297l.1211.03125.10156.04296.08984.0586.23438.0625.12109-.04688.08984-.05859.10156-.04297.13282-.01562.10547.04296.10156.04688.13281.01172.1211-.02735h.14453l.12109-.03125.11719-.02734.10547-.04687.07421-.07422.08594-.0586.14844-.14843.0586-.08594.04687-.10547.02734-.11719.01563-.10547-.10156-.04296-.08985-.0586-.11719-.03125-.10546-.04297-.08985-.0625-.07422-.08594-.07422-.07421-.10156-.04297-.10547-.04688-.10156-.04297-.0586-.08984-.04687-.10156-.08594-.21094-.0625-.08594-.05859-.08984-.07422-.07422-.08594-.0586h-.26953l-.11719.03126-.08984.05859-.10156.04297-.13281.01562-.10547-.01562-.02735-.11719-.0625-.08984-.11718-.03125-.10157-.04297-.14843-.14844-.03125-.11719-.01563-.10546.07422-.07422.17969-.1172.11719-.02733.11718-.03125.13672.01562.10156.04297.10547.04297.10156.04687.10547.04297.1172.03125.1328.01563.1172.02734.1328.01563.10547-.01563.08985-.0586-.07422-.07421-.10547-.04297-.07422-.07422-.07422-.08984-.14844-.14844-.08593-.0586-.08985-.05859-.07422-.07422-.08984-.0586-.10156-.04687-.1211-.02734-.10156-.04688-.10547-.04296-.11719-.03125-.10156-.04297-.1211-.03125h-.14843l-.11719.03125-.10546.04297-.08594.0625-.17969.11718-.08594.0586-.08984.0586-.10547.04687-.08594.05859-.10547.04297-.10156.04297-.10547.04687-.07422.07422-.05859.08985-.0586.08593-.04687.10547-.0586.08594-.07421.07422-.13281-.01172-.1172-.03125h-.11718l-.07422.07422-.08984.0586-.07422.07421-.08984.0586-.08594.05859-.10547.04687-.10156.04297-.13672.01563-.10156-.04297-.14844-.14844-.10547-.04688h-.08594l-.10547.04688-.10156.04297-.1211.03125-.11718-.03125-.07422-.07422v-.11719l.03125-.1211.07422-.0703.0586-.08985.07421-.07422.11719-.03125.10547-.04296h.29297l.13281-.01563.13672-.01563.10156-.04296.08985-.0586.10156-.04687.08984-.0586.13281-.01171.08985.05859.13281.01172.08984-.0586.08594-.05859.10547-.04297.08984-.0586.08594-.0625.08985-.05859.14843-.14843.0586-.08594.05859-.08985.10547-.04296.13281-.01563.11719.02735.1211.03125.05859-.0586.05859-.08984.03125-.26563.02734-.11719.10547.01172.13281.01563.10157-.04297.08984-.0586.0586-.08984.07421-.07422.0586-.08984.04687-.10156.01172-.13281-.01172-.13282-.04687-.10547-.14844-.14843-.0586-.08985-.05859-.08594-.04297-.10546v-.44532l.01563-.1328v-.14845l.01172-.1328-.0586-.0586-.08984.0586-.10156-.04298-.17969-.11719-.08594-.05859-.0625-.08984-.0586-.08985-.07421-.07421-.08594-.0586-.1211.03125-.10155.01172-.10547.04688-.08594.05859-.10547.04297-.14844.14844-.08984.05859-.08594.0586-.08984.0625-.10547.04296-.13281.01563v-.1211l.10547-.04297.11718-.03125.07422-.0703.04297-.10548v-.14844l-.02734-.11718-.14844-.14844-.13281-.01563h-.14844l-.11719.03125-.10547.04297-.10156.04297-.08984.0625-.11719.02735-.07422-.07422.01172-.13281-.04297-.10157-.04297-.10547-.08984-.05859-.11719.02734-.1211.03125-.11718.03125-.10156.04297-.1211.03125-.10156.04297-.10547.04297-.08984.0586-.10156.01562v-.11719l.01562-.13281-.0586-.08985-.07421.04297-.14844.14844-.0586.08985-.07421.07421-.04688.10547-.04296.10156-.07422.07422-.0586.08985-.07422.07422-.05859.08593-.07422.07422-.08984.0625-.07422.07031-.07422.07422-.10156.01563-.13281.01562-.10547-.04296v-.1211l.14843-.14844.04297-.10156.0586-.08984.04687-.10156.04297-.10547.0586-.08985.03124-.11719.04297-.10156.03125-.1211.02735-.11718.04687-.10547.04297-.10156.04297-.10547.07422-.07031.08984-.0625.08985-.0586.10156-.04296h.29687l.26563-.03125.10547-.04297-.07422-.07422-.11719-.03125-.10547-.04297-.08984-.0586-.10156-.04687-.08985-.0586-.10156-.04296-.10547-.04297-.08984-.0625-.08594-.0586-.10547-.04296-.10156-.04297-.1211-.03125-.11718-.03125-.10157-.04297L297.5 410.25l-.10156-.04297-.08985-.0586-.04296-.10546-.01563-.13281.10156-.04297.13281-.01563.13672.01563.13282-.01563.10156-.04297.0586-.08984.01562-.10547-.08985-.0586-.07421-.07421-.10157-.04297-.08984-.0586-.14844-.14843-.04297-.10547-.01562-.13281v-.29297l-.0586-.08985-.08984-.05859-.07422-.07422-.04297-.10547-.03125-.11718-.0586-.08985-.07421-.07422-.11719-.02734-.07422-.07422-.08984-.0586-.08984-.0625-.08594-.05859-.07422-.07421-.0586-.08594-.04687-.10547-.08594-.0586-.14843-.14843-.19532-.0586-.1328.01563-.10157.04297-.07422.07422-.04688.10156-.04296.10547-.0586.08984-.0586.08594-.29687.29687-.08984.0586h-.08594l-.0625-.08594-.04297-.10547.03125-.11719.0586-.08984.02734-.11719-.01172-.13281-.08984-.0625-.10547.04688-.11719.02734-.11719.03125-.26953.17578-.10156.04688-.11719.02734-.10546.04687-.08985.0586-.10156.04297-.0586-.08594-.04687-.10547.01563-.13281.04687-.10547.07031-.07422.07422-.07031.0586-.08985v-.14843l-.04297-.10547h-.23829l-.10156.04687-.03125.11719-.02734.11719-.03125.1211-.07422.04296-.13281.01563-.07422-.04688-.04297-.10156-.04297-.10547-.04687-.10156-.04297-.10547-.1211.03125-.10156.04297-.13281.01562-.11719.03125-.10547.04297-.08984.0586-.10156.04687-.1211.02734-.13281.01563-.10156-.04297-.0586-.08985-.04687-.10546-.04297-.10157-.04297-.10546v-.1172l.0586-.08984.08593-.05859.17969-.11719.10156-.04687.10547-.04297.10547-.0586.10156-.04296.08985-.0625.10156-.04297.10547-.0586.10156-.04687.08984-.0586.10547-.04296.10156-.04297.08985-.0625.10156-.04297.13672-.01563.11719.03125.10156.04297.1211.03125.10156.04297.10546.04688.10157.04296.10547.04297.10156.04688.10547.04297.10156.04297.10547.04687.08594.0586.10546.04296.1172.03125.10546.04297.10156.04688.08985.0586.10547.04296.10156.04297.10547.04687.11719.02735.10156.04687.1211.02735h.14843l.08594-.0586.01562-.10156.0586-.08984-.02735-.1172-.07422-.07421-.11719-.17969-.07421-.07422-.08985-.07421-.17969-.1172-.08593-.05859-.10547-.04296-.10156-.04688-.26954-.17578-.05859-.08985-.07422-.07421-.0586-.08985-.04296-.10156-.03125-.11719-.01563-.13672v-.5625l-.01171-.1328-.01563-.13282-.03125-.11719-.01562-.13281-.01172-.13281-.03125-.1211-.22266-.22265-.0586-.08594-.01562-.10547.03125-.11719.13281-.01562v-91.41406H172.9922v1.45312l-.0586.23438-.35156 1.05078-.17187.52343-.1172.34766-.17577.41016-.11719.17187-.23438.29297-.23046.0586h-.35157l-.11718.05859-.23047.40625v.29297l.11719.17578.23046.23047.1172.23437.64062.75781.29297.46485.17578.23437.23047.35156.23437.34766.64063.8164.17578.46485.17187.41016.11719.69531.17578.46875.11719 1.39844.0586.46484v.875l.11718 1.04688v4.78125l-.0586.46484-.35156 1.28125-.17578.52344-.11328.41015-.35156.9297L172.93359 336l-.23437.58203-.11719.17578-.17187.34766-.17578.40625-.35157.8164-.0586.29297-.11327.29297-.11719.28906-.0586.17579-.11718.875-.0586.40625-.05859.11718-.0586.17579-.05859.17187-.23047.52734-.11718.17188v.23437l-.11719.23438-.0586.17187-.17577.58594v.28906l-.0586.17579v.29296l-.0586.11329-.05859.52734v.17187l-.05468.23438v2.6211l-.17578.8164-.1172.17578-.17577.23438-.1172.17187-.11327.23438-.58594.93359-.23047.28906-.29297.46485-.17578.23437-.28906.35156-.35156.69922-.11328.23047-.17579.41016-.17578.23046-.40625.52735-.8164.69922-.29297.17187-.28906.23438-.17579.11719-.17578.17578-.52344.40625-.52734.17578-.17187.17578-.23438.05469-.64062.17578h-.75782m12.21094 31.02344l-1.07422.44921.35938.89454 1.25-.71485.44531-.53906-.98047-.08985"/><path fill="#d3d3d3" fill-opacity="0" fill-rule="evenodd" d="M201.50781 416.59766h-.89453l.44922.6289.98047.35938.80469-.08985.4453-.98828-.17577.08985-.71485-.35547-.89453.35547m154.6211 59.0703l-.0586-.52343v-.29297l.11328-.29297.0586-.23046.46875-.46875h.11328l.11719-.11329.11718-.05859h.17579l.23437-.0586h.34766l.23437.0586.11719.0586.23047.17187.0586.17578.11718.58203v.29297l-.11719.17578-.17187.28906-.17579.17579-.52734.52343-.23047.23438-.11719.0586h-.17578l-.11718-.0586-.40625-.29297-.17579-.11719-.11718-.0586-.0586-.11327-.05468-.1172m6.64062-10.95702l-.0586-.17188v-1.10937l.0586-.17188.17578-.0586.17188-.05858h.17578l.23437-.0586.1172.0586.05858.69921-.05859.17188-.11719.17578-.11718.0586-.23438.52343-.11328.0586h-.23438l-.05859-.1172m9.61328-14.39062l-.11719-.17578v-.69922l.29297-.875.1172-.17187.17577-.35156.11328-.23047.1172-.29297.35155-.75781.1172-.23047.17187-.23438h.17578l.11719-.0586h.64062l.11719.0586.23437.23438.17188.11328.35156.29297.11719.11718.11328.17579v.11328l.11719.05859.11718.11719v.69922l-.05859.17578v.23047l-.0586.17578-.34765 1.05078-.11719.23047-.11719.23437-.11718.0586-.23047.23437-.64063.28906h-.875l-.41015-.11718-.64063-.46485"/><path fill="none" stroke="#bebebe" stroke-linecap="round" stroke-linejoin="round" stroke-miterlimit="10" stroke-width=".5" d="M467.95703 311.69531H144.02734v168.625h323.9297v-168.625"/><g clip-path="url(#a)"><path fill="#fff" fill-opacity="0" fill-rule="evenodd" d="M144 475.89063v4.4375h.0039H144v-42.12891 37.6914"/></g><g clip-path="url(#b)"><path fill="#fff" fill-opacity="0" fill-rule="evenodd" d="M144 431.50781v2.72266-122.5586h.0039H144v119.83594"/></g><path fill="#50fcfc" fill-rule="evenodd" d="M144 434.23047v3.96875l.0039-.0039v-3.96485H144"/><g clip-path="url(#c)"><path fill="#fff" fill-opacity="0" fill-rule="evenodd" d="M144.0039 480.32813V438.1953l1.82423-2.25-1.82422-1.71484v-122.5586h71.01172v110.72266l-.23829.23438-4.20312 3.41796-4.4375-.78515-4.4375.09375-4.4375-.375-4.4414.51172-4.4375-.42969-4.4375 1.3711-4.4375-.10157-4.44141.34766-.92578.39062-3.51172 2.57422-4.4375.70703-1.30078 1.15625-3.13672 4.01563-.3086.42187-2.39453 4.4375.82422 4.4375 1.53516 4.4414-1.39063 4.4375 1.6289 4.4375.10548.20704.17187-.20703 4.26563-3.38281 2.8828-1.0547 1.5547-.9375.70703.9375 3.73047 2.26563 4.4414.75391 4.4375.58984 4.4375-1.28515 3.4961-2.32422.9414-.5586 1.16016.5586 3.28125 1.03515 4.4375-.9453 4.4375.3164.96094-.40625-.96094-1.02344-2.98828-3.41406 2.48437-4.4414.28125-4.4375.22266-.48438 4.4375-1.3711 4.4414-2.3828.28516-.19923.75-4.4375 3.40234-2.26953 4.4375-.5664 1.84766 2.83593 2.58984 2.03906 1.40625 2.39844 3.03125 2.9375 4.44141-1.98828 1.6914 3.48828 2.7461 2.36719 3.13672-2.36719-3.13672-2.60937-3.58203-1.82813-.85547-1.07812-4.4414-2.26953-2.00391-1.08985-2.4336-2.5664-2.85937-1.8711-1.57813-1.85547-4.4375-.88671-4.0078-1.69922-.4297-.23438V311.67188h159.77735V448.5664l-.71875.6953.71875.64454.64844-.64453-.64844-.69531V311.67187h93.20312v168.65625h-73.77734l-1.67188-2.44921-4.4375-.79688-3.92578-1.1914 3.76954-4.4375.15625-.08594 2.23437-4.35156-2.23438-3.75391-.51171-.6875-2.78907-4.4375-1.13671-.72266-.52735.72266-2.35937 4.4375 2.83203 4.4414-1.35938 4.4375 1.23438 4.4375.17969 1.20704.5039 3.23046H144.00391"/></g><path fill="#50fcfc" fill-rule="evenodd" d="M145.82813 435.94531l-1.82422 2.25v-3.96484l1.82422 1.71484m14.04687 8.875l-.82422-4.4375 2.39453-4.4375.3086-.42187 3.13672-4.01563 1.30078-1.15625v9.28125l-.71094.75.71094.73047 2.98047-.73047-2.98047-.75v-9.28125l4.4375-.70703 3.51172-2.57422.92578-.39062v4.30078l-.20703.52734.20703.21485.16015-.21485-.16015-.52734v-4.30078l4.4414-.34766 4.4375.10156v21.08594l-.4961 1.74219.4961.75781.91797-.75781-.91797-1.74219V426.4336l4.4375-1.37109 4.4375.42969v3.59375L190.75 431.5078l-2.36719 1.67969-4.30469 2.75781 3.25782 4.4375 1.04687.39844 4.4375 3.29688 2.64844-3.69532-1.40234-4.4375 1.44922-4.4375-2.69532-2.42187v-3.59375l4.4414-.51172 4.4375.375 4.4375-.09375 4.4375.78515 4.20313-3.41796.23828-.23438.4297.23438 4.0078 1.69921 4.4375.88672 1.57813 1.85547 2.85938 1.8711 2.43359 2.5664 2.0039 1.08985v2.9414l-.36718.40625.36719.35547.60546-.35547-.60547-.40625v-2.9414l4.44141 2.26953.85547 1.07812 3.58203 1.82813 3.13672 2.60937-3.13672 2.36719-2.7461-2.36719-1.6914-3.48828-4.4414 1.98828-3.03125-2.9375-1.40625-2.39844-2.58985-2.03906-1.84766-2.83594-4.4375.56641-3.40234 2.26953-.75 4.4375-.28516.19922-4.4414 2.38281-4.4375 1.3711-.22266.48437-.28125 4.4375-2.48437 4.4414 2.98828 3.41407.96094 1.02344-.96094.40625-4.4375-.3164-4.4375.9453-3.28125-1.03515-1.16016-.5586-.9414.5586-3.4961 2.32422-4.4375 1.28515-4.4375-.58984-4.4414-.7539-3.73047-2.26563-.70703-.9375-1.5547.9375-2.8828 1.05469-4.26563 3.3828-.17187.20704-.10547-.20703-1.6289-4.4375 1.39062-4.4375-1.53516-4.4414"/><path fill="#00e8fc" fill-rule="evenodd" d="M166.1914 441.11328l-.71093-.73047.71094-.75 2.98047.75-2.98047.73047"/><path fill="#fff" fill-opacity="0" fill-rule="evenodd" d="M175.0664 430.98047l-.20702.52734.20703.21485.16015-.21485-.16015-.52734m8.8789 16.53906l-.4961 1.74219.4961.75781.91797-.75781-.91797-1.74219m4.4375-14.33203l-4.30469 2.75781 3.25782 4.4375 1.04687.39844 4.4375 3.29688 2.64844-3.69532-1.40234-4.4375 1.44922-4.4375-2.69532-2.42187-2.07031 2.42187-2.36719 1.67969"/><path fill="#00e8fc" fill-rule="evenodd" d="M232.76563 436.30078l-.3672-.35547.3672-.40625.60546.40625-.60547.35547"/><path fill="#50fcfc" fill-rule="evenodd" d="M374.79297 449.90625l-.71875-.64453.71875-.69531.64844.6953-.64844.64454"/><g clip-path="url(#d)"><path fill="#50fcfc" fill-rule="evenodd" d="M383.61719 467.01563l-2.83203-4.44141 2.35937-4.4375.52735-.72266 1.13671.72266 2.78907 4.4375.51171.6875 2.23438 3.7539-2.23438 4.35157-.15625.08594-3.76953 4.4375 3.92579 1.1914 4.4375.79688 1.67187 2.44921h-10.04297l-.5039-3.23046-.1797-1.20704-1.23437-4.4375 1.35938-4.4375"/></g><g clip-path="url(#e)"><path fill="#fff" fill-opacity="0" fill-rule="evenodd" d="M467.9961 480.32813H468V311.67188h-.0039H468v168.65625h-.0039"/></g><path fill="#fff" fill-opacity="0" fill-rule="evenodd" d="M218.64844 431.83594l5.30078 2.45312 4.17969-9.03906-5.30078-2.45313-4.1797 9.03907"/><path fill-rule="evenodd" d="M225.23438 425.92969l.46484.21094-2.64453 5.71484-.71485-.32813 1.88672-4.07812-1.26172-.58203.23438-.5039.53516.17577.25.0586.24609.01562.2461-.04297.24609-.11719.25-.21093.26172-.3125"/><g clip-path="url(#f)"><path fill="none" stroke="#000" stroke-linecap="round" stroke-linejoin="round" stroke-miterlimit="10" stroke-width=".5" d="M147.48047 480.8164l-6.96094-.97656"/></g><g clip-path="url(#g)"><path fill="none" stroke="#000" stroke-linecap="round" stroke-linejoin="round" stroke-miterlimit="10" stroke-width=".5" d="M147.48047 480.8164l.83984 2.3047"/></g><g clip-path="url(#h)"><path fill="none" stroke="#000" stroke-linecap="round" stroke-linejoin="round" stroke-miterlimit="10" stroke-width=".5" d="M146.46875 480.67578l.41797 1.15235"/></g><g clip-path="url(#i)"><path fill="none" stroke="#000" stroke-linecap="round" stroke-linejoin="round" stroke-miterlimit="10" stroke-width=".5" d="M160.80078 480.76563l-6.97266-.875"/></g><g clip-path="url(#j)"><path fill="none" stroke="#000" stroke-linecap="round" stroke-linejoin="round" stroke-miterlimit="10" stroke-width=".5" d="M160.80078 480.76563l.875 2.29296"/></g><g clip-path="url(#k)"><path fill="none" stroke="#000" stroke-linecap="round" stroke-linejoin="round" stroke-miterlimit="10" stroke-width=".5" d="M159.78516 480.64063l.4375 1.14453"/></g><g clip-path="url(#l)"><path fill="none" stroke="#000" stroke-linecap="round" stroke-linejoin="round" stroke-miterlimit="10" stroke-width=".5" d="M174.11719 480.76172l-6.97266-.86328"/></g><g clip-path="url(#m)"><path fill="none" stroke="#000" stroke-linecap="round" stroke-linejoin="round" stroke-miterlimit="10" stroke-width=".5" d="M174.11719 480.76172l.8789 2.28906"/></g><g clip-path="url(#n)"><path fill="none" stroke="#000" stroke-linecap="round" stroke-linejoin="round" stroke-miterlimit="10" stroke-width=".5" d="M173.10156 480.63281l.4414 1.14844"/></g><g clip-path="url(#o)"><path fill="none" stroke="#000" stroke-linecap="round" stroke-linejoin="round" stroke-miterlimit="10" stroke-width=".5" d="M187.41406 480.89453l-6.9375-1.13281"/></g><g clip-path="url(#p)"><path fill="none" stroke="#000" stroke-linecap="round" stroke-linejoin="round" stroke-miterlimit="10" stroke-width=".5" d="M187.41406 480.89453l.78516 2.32422"/></g><g clip-path="url(#q)"><path fill="none" stroke="#000" stroke-linecap="round" stroke-linejoin="round" stroke-miterlimit="10" stroke-width=".5" d="M186.40234 480.73047l.39453 1.16406"/></g><g clip-path="url(#r)"><path fill="none" stroke="#000" stroke-linecap="round" stroke-linejoin="round" stroke-miterlimit="10" stroke-width=".5" d="M200.75 480.73047l-6.98047-.80469"/></g><g clip-path="url(#s)"><path fill="none" stroke="#000" stroke-linecap="round" stroke-linejoin="round" stroke-miterlimit="10" stroke-width=".5" d="M200.75 480.73047l.89844 2.28515"/></g><g clip-path="url(#t)"><path fill="none" stroke="#000" stroke-linecap="round" stroke-linejoin="round" stroke-miterlimit="10" stroke-width=".5" d="M214.08203 480.55078l-7.01172-.4414"/></g><g clip-path="url(#u)"><path fill="none" stroke="#000" stroke-linecap="round" stroke-linejoin="round" stroke-miterlimit="10" stroke-width=".5" d="M214.08203 480.55078l1.01172 2.23438"/></g><g clip-path="url(#v)"><path fill="none" stroke="#000" stroke-linecap="round" stroke-linejoin="round" stroke-miterlimit="10" stroke-width=".5" d="M227.39063 480.65234l-7-.64843"/></g><g clip-path="url(#w)"><path fill="none" stroke="#000" stroke-linecap="round" stroke-linejoin="round" stroke-miterlimit="10" stroke-width=".5" d="M227.39063 480.65234l.9453 2.26563"/></g><g clip-path="url(#x)"><path fill="none" stroke="#000" stroke-linecap="round" stroke-linejoin="round" stroke-miterlimit="10" stroke-width=".5" d="M240.71094 480.07031l-7.00781.51953"/></g><g clip-path="url(#y)"><path fill="none" stroke="#000" stroke-linecap="round" stroke-linejoin="round" stroke-miterlimit="10" stroke-width=".5" d="M240.71094 480.07031l1.3086 2.07422"/></g><g clip-path="url(#z)"><path fill="none" stroke="#000" stroke-linecap="round" stroke-linejoin="round" stroke-miterlimit="10" stroke-width=".5" d="M254.01172 479.9375l-6.98438.78516"/></g><g clip-path="url(#A)"><path fill="none" stroke="#000" stroke-linecap="round" stroke-linejoin="round" stroke-miterlimit="10" stroke-width=".5" d="M254.01172 479.9375l1.38672 2.02344"/></g><g clip-path="url(#B)"><path fill="none" stroke="#000" stroke-linecap="round" stroke-linejoin="round" stroke-miterlimit="10" stroke-width=".5" d="M267.33203 479.96484l-6.99219.73047"/></g><g clip-path="url(#C)"><path fill="none" stroke="#000" stroke-linecap="round" stroke-linejoin="round" stroke-miterlimit="10" stroke-width=".5" d="M266.3125 480.07031l.6875 1.01563"/></g><g clip-path="url(#D)"><path fill="none" stroke="#000" stroke-linecap="round" stroke-linejoin="round" stroke-miterlimit="10" stroke-width=".5" d="M280.66406 480.34766l-7.02734-.03516"/></g><g clip-path="url(#E)"><path fill="none" stroke="#000" stroke-linecap="round" stroke-linejoin="round" stroke-miterlimit="10" stroke-width=".5" d="M279.64063 480.33984l.5703 1.08985"/></g><g clip-path="url(#F)"><path fill="none" stroke="#000" stroke-linecap="round" stroke-linejoin="round" stroke-miterlimit="10" stroke-width=".5" d="M293.8789 481.16016L287.05079 479.5"/></g><g clip-path="url(#G)"><path fill="none" stroke="#000" stroke-linecap="round" stroke-linejoin="round" stroke-miterlimit="10" stroke-width=".5" d="M307.27344 480.69531l-6.98828-.73437"/></g><g clip-path="url(#H)"><path fill="none" stroke="#000" stroke-linecap="round" stroke-linejoin="round" stroke-miterlimit="10" stroke-width=".5" d="M314.41016 482.59766l5.37109-4.53516"/></g><g clip-path="url(#I)"><path fill="none" stroke="#000" stroke-linecap="round" stroke-linejoin="round" stroke-miterlimit="10" stroke-width=".5" d="M327.35938 482.07422l6.10156-3.48828"/></g><g clip-path="url(#J)"><path fill="none" stroke="#000" stroke-linecap="round" stroke-linejoin="round" stroke-miterlimit="10" stroke-width=".5" d="M328.25 481.5664l-1.03906-.65624"/></g><g clip-path="url(#K)"><path fill="none" stroke="#000" stroke-linecap="round" stroke-linejoin="round" stroke-miterlimit="10" stroke-width=".5" d="M340.3125 481.16797l6.82422-1.67578"/></g><g clip-path="url(#L)"><path fill="none" stroke="#000" stroke-linecap="round" stroke-linejoin="round" stroke-miterlimit="10" stroke-width=".5" d="M341.3086 480.92188l-.82032-.91407"/></g><g clip-path="url(#M)"><path fill="none" stroke="#000" stroke-linecap="round" stroke-linejoin="round" stroke-miterlimit="10" stroke-width=".5" d="M353.73828 481.52344l6.60547-2.39063"/></g><g clip-path="url(#N)"><path fill="none" stroke="#000" stroke-linecap="round" stroke-linejoin="round" stroke-miterlimit="10" stroke-width=".5" d="M354.69922 481.17578l-.91016-.82422"/></g><g clip-path="url(#O)"><path fill="none" stroke="#000" stroke-linecap="round" stroke-linejoin="round" stroke-miterlimit="10" stroke-width=".5" d="M367.67188 482.59375l5.37109-4.53125"/></g><g clip-path="url(#P)"><path fill="none" stroke="#000" stroke-linecap="round" stroke-linejoin="round" stroke-miterlimit="10" stroke-width=".5" d="M380.80078 482.35156l5.74219-4.04687"/></g><g clip-path="url(#Q)"><path fill="none" stroke="#000" stroke-linecap="round" stroke-linejoin="round" stroke-miterlimit="10" stroke-width=".5" d="M381.63672 481.76563l-1.09766-.5547"/></g><g clip-path="url(#R)"><path fill="none" stroke="#000" stroke-linecap="round" stroke-linejoin="round" stroke-miterlimit="10" stroke-width=".5" d="M393.70703 481.59375l6.5586-2.53125"/></g><g clip-path="url(#S)"><path fill="none" stroke="#000" stroke-linecap="round" stroke-linejoin="round" stroke-miterlimit="10" stroke-width=".5" d="M393.70703 481.59375l-1.85156-1.60547"/></g><g clip-path="url(#T)"><path fill="none" stroke="#000" stroke-linecap="round" stroke-linejoin="round" stroke-miterlimit="10" stroke-width=".5" d="M394.66406 481.22656l-.92969-.80469"/></g><g clip-path="url(#U)"><path fill="none" stroke="#000" stroke-linecap="round" stroke-linejoin="round" stroke-miterlimit="10" stroke-width=".5" d="M407.10156 481.77734l6.39844-2.89843"/></g><g clip-path="url(#V)"><path fill="none" stroke="#000" stroke-linecap="round" stroke-linejoin="round" stroke-miterlimit="10" stroke-width=".5" d="M407.10156 481.77734l-1.94531-1.49609"/></g><g clip-path="url(#W)"><path fill="none" stroke="#000" stroke-linecap="round" stroke-linejoin="round" stroke-miterlimit="10" stroke-width=".5" d="M422.03125 483.46484l3.17188-6.26953"/></g><g clip-path="url(#X)"><path fill="none" stroke="#000" stroke-linecap="round" stroke-linejoin="round" stroke-miterlimit="10" stroke-width=".5" d="M440.4336 480.0664l-7.00391.52735"/></g><g clip-path="url(#Y)"><path fill="none" stroke="#000" stroke-linecap="round" stroke-linejoin="round" stroke-miterlimit="10" stroke-width=".5" d="M439.41406 480.14063l.65625 1.03906"/></g><g clip-path="url(#Z)"><path fill="none" stroke="#000" stroke-linecap="round" stroke-linejoin="round" stroke-miterlimit="10" stroke-width=".5" d="M449.21484 476.96875l2.06641 6.71875"/></g><path fill="none" stroke="#000" stroke-linecap="round" stroke-linejoin="round" stroke-miterlimit="10" stroke-width=".5" d="M449.51563 477.94922l.86328-.8711"/><g clip-path="url(#aa)"><path fill="none" stroke="#000" stroke-linecap="round" stroke-linejoin="round" stroke-miterlimit="10" stroke-width=".5" d="M461.01563 482.75l5.09375-4.83984"/></g><g clip-path="url(#ab)"><path fill="none" stroke="#000" stroke-linecap="round" stroke-linejoin="round" stroke-miterlimit="10" stroke-width=".5" d="M147.41406 467.85156l-6.82812-1.67578"/></g><path fill="none" stroke="#000" stroke-linecap="round" stroke-linejoin="round" stroke-miterlimit="10" stroke-width=".5" d="M147.41406 467.85156l.60156 2.3789m-1.59765-2.62109l.30078 1.1875m14.07031-1.2578l-6.94922-1.05079m6.94922 1.05078l.8164 2.3164m-1.82812-2.46874l.41016 1.15625m13.9375-1.1836l-6.99219-.6914m6.99219.6914l.9336 2.27344m-1.94923-2.3711l.46485 1.13282m13.88281-1.47656l-7.02344.1914m7.02344-.1914l1.21094 2.13281m-2.23438-2.10547l.60547 1.0664m13.69531-1.53124l-6.9453 1.0664m6.9453-1.0664l1.46875 1.96484m-2.48046-1.8125l.73437.98438m13.59375-1.1211l-6.94922 1.03516m6.94922-1.03516l1.45703 1.97266m-2.46875-1.82031l.73047.98437m13.60938-1.03515l-6.97657.83203m6.97657-.83203l1.40234 2.01172m11.75781-2.70704l-6.66797 2.22266m6.66797-2.22266l1.77735 1.6875m11.4453-1.93359l-6.48046 2.71484m6.48047-2.71484l1.89844 1.55078m11.35937-1.67969L260.65234 468.5m6.3672-2.97266l1.96093 1.47657m11.17969-1.8047l-6.01953 3.62892m6.01953-3.62891l2.10547 1.26172m11.08984-1.44531l-5.78125 3.99609m4.9414-3.41406l1.08985.5625m12.92578-1.33203l-5.5 4.37109m4.69922-3.73438l1.125.48829m13.1914-.84766l-5.90234 3.8164m16.47656-5.41406l-.42187 7.01172m10.90625-5.84375l5.24219 4.67578m7.3789-3.5l6.6289 2.32422m-5.66405-1.98828l-.1875-1.21094m12.33984 2.11328l7.02344-.15234m6.3125.47266l6.98437-.79297m-5.96875.67969l-.69531-1.01172m13.0664 1.53906l6.83985-1.6211m-6.83984 1.6211l-1.6211-1.84375m17.09766-2.2461l2.51562 6.5586m-2.51562-6.5586l1.61328-1.85156m15.10156 2.34375l-4.28125 5.57422m4.28125-5.57422l2.41797.40625m-3.04297.40625l1.21094.20313m13.32031-.4375l-5.46484 4.41797m5.46484-4.41797l2.25781.96484m9.75391-1.96484l-2.85937 6.41797m2.4414-5.48438l1.22656-.08594m9.77344-.90234l2.60938 6.52734m-2.23047-5.57812l.79297-.9375"/><g clip-path="url(#ac)"><path fill="none" stroke="#000" stroke-linecap="round" stroke-linejoin="round" stroke-miterlimit="10" stroke-width=".5" d="M147.36719 454.70313l-6.73438-2.00782"/></g><path fill="none" stroke="#000" stroke-linecap="round" stroke-linejoin="round" stroke-miterlimit="10" stroke-width=".5" d="M147.36719 454.70313l.48437 2.40234m12.63281-1.89063l-6.33984-3.03125m6.33984 3.03125l.10547 2.44922m13.40235-2.9414l-6.72266-2.05079m5.74219 1.75391l.23437 1.20313m14.20703-1.75782l-7.01562-.34765m5.9961.29687l.51952 1.11328m13.73047-2.01953l-6.84765 1.57031m6.84765-1.5703l1.60938 1.85546m11.32812-2.82031l-6.09375 3.5m5.20703-2.99219l1.03907.65625m12.89453-1.5664l-5.55469 4.30468m4.7461-3.67969l1.11718.50391m13.21485-.83203l-5.97266 3.70703m5.97266-3.70703l2.12109 1.23437m10.85156-1.6953l-5.28515 4.6289m5.28515-4.6289l2.29297.87109m-3.0625-.19532l1.14844.4336m12.85547-1.19922l-5.125 4.8125m5.125-4.8125l2.32031.78906m-3.0664-.08984l1.16015.39453m12.54297-1.42578l-4.40625 5.47656m4.40625-5.47656l2.41015.46093m-3.05468.33594l1.20703.23047m12.2539-1.36328l-3.41015 6.14453m3.41015-6.14453l2.45313.04687m10.625-.16406l-2.9375 6.38281m2.9375-6.3828l2.44922-.14063m11.60547.60156l-4.41797 5.46094m14.26562-6.01172l2.51563 6.5625m13.4375-6.51172l-2.75781 6.46094m2.35546-5.52344l1.22266-.10156m12.46485-.85157l-2.69922 6.48829m2.69921-6.48829l2.44141-.23046m12.88672 2.45703l-6.72656 2.03906m5.7461-1.74219l.86718.86719m13.4414-1.125l-6.75 1.95703m5.76563-1.67187l.85547.8828m6.57031-.52343l6.9961.67188m-5.97657-.57422l-.46875-1.13672m18.92578 3.66406l-5.32812-4.58203m4.55469 3.91797l-.26954 1.19531m14.9922-4.03906l-6.59376 2.4336m6.59375-2.4336l1.82813 1.63672m11.54687-1.44922l-6.71484 2.0625m6.71484-2.0625l1.73828 1.73047m10.61329-3.26953l-4.78907 5.14062m4.78906-5.14062l2.3711.6328m11.71094.39845l-6.32032 3.07421"/><g clip-path="url(#ad)"><path fill="none" stroke="#000" stroke-linecap="round" stroke-linejoin="round" stroke-miterlimit="10" stroke-width=".5" d="M466.72266 452.16016l1.98046 1.4453"/></g><g clip-path="url(#ae)"><path fill="none" stroke="#000" stroke-linecap="round" stroke-linejoin="round" stroke-miterlimit="10" stroke-width=".5" d="M147.1211 442l-6.2422-3.23438"/></g><path fill="none" stroke="#000" stroke-linecap="round" stroke-linejoin="round" stroke-miterlimit="10" stroke-width=".5" d="M147.1211 442l.02343 2.45313m13.21875-2.32032l-6.09375-3.5m6.09375 3.5l-.08203 2.45313m13.49219-2.63281l-6.28516-3.14063m5.3711 2.6836l.03125 1.22656m14.42578-1.35157l-6.7422-1.97656m5.76173 1.6914l.2461 1.19923m14.18358-1.64454l-7.0078-.51171m5.98827.4375l.4961 1.12109m13.77734-1.9961l-6.89062 1.38282m5.89062-1.17969l.77734.94531m12.39454-3.10937l-4.60157 5.3086m3.9336-4.53907l1.19531.27734m13.21875-.60156l-5.46484 4.41406m5.46484-4.41406l2.25781.96094m9.63672-2.01172l-2.6211 6.51953m2.6211-6.51953l2.4375-.26172m10.66797.1836l-2.20313 6.67187m2.20313-6.67188l2.41797-.41406m10.66797.34766l-1.74219 6.8086m1.74219-6.8086l2.38281-.57813m10.71875.53125l-1.32031 6.90235m1.32031-6.90235l2.34375-.72656m11.79687.99219l-2.97265 6.36719m2.97265-6.3672l2.45313-.125m11.16406.28516l-3.57422 6.04688m3.57422-6.04688l2.45313.10938m11.6211.4961l-5.09376 4.83984m5.09375-4.83985l2.32813.77344m10.57812-1.14453l-4.27734 5.57813m4.27734-5.57813l2.42188.40625m10.99218-.32813l-4.47265 5.42188m4.47265-5.42188l2.40235.4922m10.01953-1.02735l-2.6875 6.49219m2.29687-5.54688l1.22266-.11719m8.47266.12891l5.33203 4.57813m-5.33203-4.57813l.53906-2.39453M393.5 440.80469l6.97266-.84375m-6.97266.84375l-1.40625-2.01172m20.70703 4.0586l-5-4.9375m4.27344 4.21874l-.35156 1.17578m15.40234-2.76172l-7.01953-.32421m6 .27734l.52344 1.10547m13.77734-1.75l-6.94922 1.0586m6.94922-1.0586l1.46484 1.96875m11.89063-1.4414h-7.02735m6.00391 0l.57422 1.08593m13.74219-1.48047l-6.98438.78906"/><g clip-path="url(#af)"><path fill="none" stroke="#000" stroke-linecap="round" stroke-linejoin="round" stroke-miterlimit="10" stroke-width=".5" d="M467.05469 439.98828l1.38672 2.02344"/></g><g clip-path="url(#ag)"><path fill="none" stroke="#000" stroke-linecap="round" stroke-linejoin="round" stroke-miterlimit="10" stroke-width=".5" d="M147.1836 428.55469l-6.3672-2.97266"/></g><path fill="none" stroke="#000" stroke-linecap="round" stroke-linejoin="round" stroke-miterlimit="10" stroke-width=".5" d="M147.1836 428.55469l.125 2.45312m13.03515-2.15625l-6.0586-3.5664m6.0586 3.5664l-.10547 2.44922m13-1.8789l-5.21484-4.70704m5.21484 4.70703l-.59766 2.37891m13.89063-2.35156l-5.17188-4.76172m4.41797 4.0664l-.30859 1.1875m15.28125-2.46484l-6.98047-.8164m6.98047.8164l.89453 2.28516m11.8164-4.69531l-5.77343 4.0039m5.77344-4.0039l2.1836 1.125m11.16796-1.07032l-5.84375 3.89454m5.84375-3.89454l2.16016 1.16016m11.73437.51172l-7.0039.55078m7.0039-.55078l1.32031 2.0664m9.9297-5l-2.8711 6.41797m2.45312-5.48437l1.22266-.08203m12.57812-.8164l-3.0078 6.34765m2.5703-5.42578l1.22657-.0547m13.55859-.12109L274.61328 429.5m5.07422-4.85938l2.33203.76563m9.79297-1.58203l-2.6914 6.48828m2.30077-5.54688l1.21875-.11328m13.56641-.125l-4.85156 5.08203m4.85156-5.08203l2.36328.66407m10.57422-.97657l-4.09765 5.70703m4.09765-5.70703l2.4336.32813m11.38671.11328l-5.10937 4.82422m5.10937-4.82422l2.32813.78516m-3.07031-.08204l1.16406.39063m12.83594-1.15625l-4.9922 4.94922m4.9922-4.94922l2.34375.72656m-3.07032-.0039l1.17188.36328m13.35937-.46094l-5.97265 3.69922m5.97265-3.69922l2.1211 1.23438m9.33594-2.71094l-2.25782 6.65234m2.25781-6.65234l2.42188-.39453m8.375.49218l2.77734 6.45704m-2.77734-6.45704l1.53516-1.91406m16.19921 3.36328l-6.05859 3.5586m6.0586-3.5586l2.08984 1.28516m-2.97266-.76953l1.04688.64453m13.22265-1.02735l-6.20312 3.29688m6.20312-3.29688l2.03516 1.3711m-2.9375-.89453l2.03516 1.375m11.29296-2.9375l-4.42187 5.46484m4.42188-5.46484l2.40625.46875m-3.05079.32812l1.20313.23438m12.6211-1.13282l-4.15235 5.66797m4.15234-5.66797l2.42969.35157m-3.03516.47265l2.4297.35157m11.2539-1.33594l-3.67969 5.98828m3.67969-5.98828l2.44922.15234m-2.98438.71875l2.44922.15235m12.78125.5625l-6.4375 2.8164"/><g clip-path="url(#ah)"><path fill="none" stroke="#000" stroke-linecap="round" stroke-linejoin="round" stroke-miterlimit="10" stroke-width=".5" d="M466.78125 425.66016l1.92188 1.52343"/></g><path fill="none" stroke="#000" stroke-linecap="round" stroke-linejoin="round" stroke-miterlimit="10" stroke-width=".5" d="M465.84375 426.07031l.96094.76172"/><g clip-path="url(#ai)"><path fill="none" stroke="#000" stroke-linecap="round" stroke-linejoin="round" stroke-miterlimit="10" stroke-width=".5" d="M147.125 415.35938l-6.25-3.21094"/></g><path fill="none" stroke="#000" stroke-linecap="round" stroke-linejoin="round" stroke-miterlimit="10" stroke-width=".5" d="M146.21484 414.89063l.01953 1.22656m14.1836-.71875l-6.20703-3.29297m6.20703 3.29297l.0039 2.45312M173.75 415.3711l-6.23828-3.23828m6.23828 3.23828l.02344 2.45313m13.4375-2.77735l-6.53125-2.58593m6.53125 2.58594l.27344 2.4375m13.21093-4.46875l-6.8711 1.47656m6.8711-1.47656l1.58203 1.875m11.80078-1.39844l-7.0078.52344m5.98827-.44922l.65625 1.03906m13.6875-.74219l-7.02343-.22265m6 .1914l.54297 1.10156m12.86328 1.20704l-5.16016-4.77344m4.41016 4.07812l-.3125 1.1875m14.9414-4.44531l-6.28906 3.13281m5.375-2.67969l1 .71485m13.57422.80078l-6.98047-.8086m20.08984-.84374l-6.5664 2.5m6.5664-2.5l1.84766 1.61328m10.6289-2.88672l-4.88671 5.04687m4.17578-4.3125l1.17969.33594m13.46484-.26953l-6.125 3.44531m6.125-3.44531l2.0664 1.32422m10.91016-1.82422l-5.44922 4.4414m5.44922-4.4414l2.26172.95313m11.33985-.53907l-6.02344 3.61719m6.02344-3.61719l2.10546 1.26563m-2.98046-.73828l1.05078.6328m12.24609-2.15624l-4.23438 5.60937m4.23438-5.60937l2.42188.38672m12.21484 1.70703l-6.8789 1.41797m5.8789-1.21094l.78515.94531m13.29688-1.88281l-6.41016 2.88281m6.41016-2.88281l1.9375 1.5039m10.8125-2.3789l-5.28516 4.63281m5.28516-4.63281l2.29688.8711m-3.06641-.19532l2.29687.86719m12.10938-1.11328l-5.92578 3.77344m5.92578-3.77344l2.13672 1.21094m-2.9961-.66016l2.13282 1.20703m11.11718-2.73437l-4.07421 5.72656m4.07421-5.72656l2.4336.3164m-3.02735.51563l2.4336.3203m10.76953-1.53905l-2.66406 6.5m2.66406-6.5l2.4414-.2461m-2.82812 1.1914l2.4414-.24608m11.90626-.35157l-3.96094 5.80469m3.96094-5.80469l2.4414.26953m-3.01562.57422l2.4375.26953m11.70312-.92968l-4.45703 5.43359m4.45703-5.4336l2.40235.48438m-3.05079.3086l2.40235.48046m12.46094-.14843l-6.26172 3.1875"/><g clip-path="url(#aj)"><path fill="none" stroke="#000" stroke-linecap="round" stroke-linejoin="round" stroke-miterlimit="10" stroke-width=".5" d="M466.6914 412.16016l2.01173 1.40625"/></g><g clip-path="url(#ak)"><path fill="none" stroke="#000" stroke-linecap="round" stroke-linejoin="round" stroke-miterlimit="10" stroke-width=".5" d="M465.78125 412.6211l2.01172 1.41015"/></g><path fill="none" stroke="#000" stroke-linecap="round" stroke-linejoin="round" stroke-miterlimit="10" stroke-width=".5" d="M464.8711 413.08594l1.0039.70312"/><g clip-path="url(#al)"><path fill="none" stroke="#000" stroke-linecap="round" stroke-linejoin="round" stroke-miterlimit="10" stroke-width=".5" d="M147.21094 401.86328l-6.42188-2.84765"/></g><path fill="none" stroke="#000" stroke-linecap="round" stroke-linejoin="round" stroke-miterlimit="10" stroke-width=".5" d="M146.27734 401.44922l.08985 1.22265m13.64844.01172l-5.40235-4.49218m4.61719 3.83984l-.25 1.19922m14.79687-1.23438l-6.29687-3.11718m6.29687 3.11718l.07422 2.45313m13.53516-3.30469l-6.88281-1.41406m6.8828 1.41406l.69142 2.35547m12.67578-2.70313l-6.98828-.71484m6.98828.71485l.92578 2.26953m10.42578-5.78907l-3.0625 6.32422m2.61719-5.40625l1.22656-.04687m14.4961 1.91406l-6.98438.75m6.98437-.75l1.3789 2.03125m-2.39452-1.92188l.6875 1.01563m13.49219.33594l-6.6836-2.17188m5.71094 1.85547l.21484 1.21094m14.23828-2.16406l-7.01562.37109m7.01562-.3711l1.26563 2.10157m11.73047-3.39453l-6.375 2.95312m6.375-2.95312l1.95703 1.48437m11.57422-.875l-6.8086 1.73438m6.8086-1.73438l1.65234 1.8164m11.54688-2.18358l-6.57813 2.47265m5.6211-2.11328l.92187.8086m13.45312-.84376l-6.78515 1.82422m6.78515-1.82422l1.67579 1.79297m11.76171-.88281h-7.02734m7.02734 0l1.15235 2.16797m11.76953-3.78516l-6.23828 3.23438m5.32812-2.76172l1.01172.69531m11.8164-2.60937L342 403.5m2.94922-5.23047l1.22656.02735m13.89063.35546l-6.05079 3.57032m6.05079-3.57032l2.09375 1.28125m11.2578-1.21875l-6.125 3.44532m6.125-3.44532l2.06641 1.32422m-2.95703-.82031l1.03125.66016m12.34766-2.15235l-4.46875 5.42578m4.46875-5.42578l2.40234.48828m-3.05468.30079l2.40625.48828m12.3164-.41016l-5.98047 3.6875m5.98047-3.6875l2.11719 1.24219m-2.98828-.70313l1.0586.61719m13.36718-.69922l-6.45703 2.77344m6.45703-2.77344l1.91016 1.53906m-2.85157-1.1328l.95703.76562m12.60157-2.21875l-5.0664 4.87109m5.0664-4.8711l2.33203.76173m-3.0664-.0547l2.33202.76563m11.96094-1.1914l-5.55078 4.30859m5.55078-4.3086l2.23828 1.00391m-3.04687-.3789l2.23828 1.0078m12.2539-1.05077l-6.28515 3.14062m6.28515-3.14062l1.9961 1.42187m-2.91016-.96484l1.9961 1.42187m11.93359-2.37109l-5.6875 4.125"/><g clip-path="url(#am)"><path fill="none" stroke="#000" stroke-linecap="round" stroke-linejoin="round" stroke-miterlimit="10" stroke-width=".5" d="M466.40625 398.375l2.20313 1.07813"/></g><g clip-path="url(#an)"><path fill="none" stroke="#000" stroke-linecap="round" stroke-linejoin="round" stroke-miterlimit="10" stroke-width=".5" d="M465.57813 398.97656l2.20312 1.07813"/></g><g clip-path="url(#ao)"><path fill="none" stroke="#000" stroke-linecap="round" stroke-linejoin="round" stroke-miterlimit="10" stroke-width=".5" d="M147.20313 388.57031l-6.40625-2.89062"/></g><path fill="none" stroke="#000" stroke-linecap="round" stroke-linejoin="round" stroke-miterlimit="10" stroke-width=".5" d="M147.20313 388.57031l.15625 2.44531m12.95312-2.0625l-5.9961-3.66015m5.9961 3.66015l-.14453 2.44922m13.82812-3.26562l-6.73047-2.02735m6.73047 2.02735l.47657 2.40625m12.16406-5.67969l-5.38281 4.51953m4.60156-3.85937l1.13672.45703m12.96484-1.10547l-5.39453 4.5m4.60938-3.84766l1.13671.46485m13.5625 2.34375l-6.59375-2.42578m6.59375 2.42578l.33594 2.42969m13.125-2.92579l-6.88281-1.43359m6.88281 1.4336l.6836 2.35546m12.67187-3.53906l-6.96484.9336m6.96484-.9336l1.42969 1.9961m11.85547-2.1797l-6.90625 1.30079m6.90625-1.30078l1.53515 1.91796m11.7461-2.07812l-6.83594 1.6211m6.83594-1.6211l1.62109 1.84375m11.53516-2.34375l-6.51953 2.6211m6.51953-2.6211l1.8789 1.58203m11.66797-.67187l-6.98047.80078m6.98047-.80078l1.39063 2.02343m11.84765-.79296l-6.82812-1.66016m5.83594 1.42187l.30078 1.1875m14.0078-.96093l-6.83202-1.63672m6.83203 1.63672l.61328 2.3789m12.4961-4.625l-6.41797 2.85938m6.41796-2.85938l1.9336 1.50781m11.29297-1.6953l-6.2422 3.23046m6.2422-3.23047l2.01953 1.39453m11.41406-1.13671l-6.48047 2.71875m6.48047-2.71875l1.89844 1.55078m11.33984-1.71875l-6.32812 3.05078m6.32812-3.05078l1.98047 1.45312m-2.89844-1.00781l1.97657 1.44922m12.17578-2.0586l-6.16407 3.37891m6.16407-3.3789l2.05078 1.34765m-2.94922-.85547l2.05078 1.34766m12.05078-2.02344l-5.9414 3.7461m5.9414-3.7461l2.13281 1.21875m-2.99609-.67188l2.1289 1.21485m11.76173-2.15625l-5.3672 4.53515m5.3672-4.53515l2.27734.91015m-3.0586-.25l1.14063.45704m12.91406-1.16407l-5.28515 4.62891m5.28515-4.6289l2.29688.87109m-3.0625-.19922l1.14453.4375m13.28906-.63281l-5.98828 3.67968m5.98828-3.67968l2.11328 1.24218m-2.98437-.70703l1.0586.6211m13.47265-.41407l-6.67578 2.19141m6.67578-2.1914l1.76953 1.6953m-2.74219-1.3789l.88672.85156m13.14844-1.75l-6.17578 3.35547"/><g clip-path="url(#ap)"><path fill="none" stroke="#000" stroke-linecap="round" stroke-linejoin="round" stroke-miterlimit="10" stroke-width=".5" d="M466.64844 385.44531l2.04687 1.35547"/></g><g clip-path="url(#aq)"><path fill="none" stroke="#000" stroke-linecap="round" stroke-linejoin="round" stroke-miterlimit="10" stroke-width=".5" d="M465.75 385.9336l2.04688 1.35546"/></g><g clip-path="url(#ar)"><path fill="none" stroke="#000" stroke-linecap="round" stroke-linejoin="round" stroke-miterlimit="10" stroke-width=".5" d="M147.47656 374.32031l-6.95312-1.02344"/></g><path fill="none" stroke="#000" stroke-linecap="round" stroke-linejoin="round" stroke-miterlimit="10" stroke-width=".5" d="M147.47656 374.32031l.82422 2.3125m11.75781-.6289l-5.48828-4.39063m5.48828 4.39063l-.45312 2.41015m14.53516-4.42969l-7.01954-.35156m7.01953.35156l1.04297 2.21875m10.95703-5.14062l-4.39062 5.49219m4.39063-5.49219l2.41015.45313m11.83594.6875l-6.2539 3.21093m6.2539-3.21094l2.01172 1.40235m11.64844-.33203l-6.94532 1.07031m6.94531-1.07031l1.46875 1.96484m-2.47656-1.8086l.73438.98048m13.6289-.60157H220.375m7.02734 0l1.15235 2.16797m-2.17188-2.16797l.57422 1.08204m13.76172-1.11329l-7.02734.0625m7.02734-.0625l1.17188 2.15235m-2.19532-2.14453l.58594 1.07812m13.73047-1.4336l-6.98438.75782m6.98438-.75781l1.3789 2.02734m11.95704-1.66797l-7.02735.03906m7.02735-.03906l1.16406 2.16016m-2.1836-2.15625l.58204 1.08203m13.73437-1.4375l-6.98828.74219m6.98828-.74219l1.375 2.03125m11.95313-1.84766l-7.01563.375m7.01563-.375l1.26562 2.10157m-2.28515-2.04688l.6328 1.05078M307.25 373.2461l-6.9375 1.125m6.9375-1.125l1.48438 1.95704m-2.4961-1.79297l.74219.97656m13.61719-.875l-7.00391.59375m7.0039-.59375l1.33204 2.0586m-2.35156-1.97266l.66406 1.03125m13.6836-.875l-7.02735.10546m7.02734-.10546l1.1836 2.15234m12.1289-1.95313l-7.02344-.28906m7.02344.28906l1.0586 2.21094m-2.08204-2.2539l.53125 1.10546m13.79297-1.54687l-6.9961.67969m6.9961-.67969l1.35547 2.04688m-2.375-1.94922l.67969 1.02343m13.63672-1.27343l-6.95703.98437m6.95703-.98437l1.44531 1.98046m-2.45703-1.83984l.72266.99219m13.58203-1.2539l-6.91797 1.22656m6.91797-1.22657l1.51562 1.9336M386.125 373.375l.7539.96484m13.48438-1.5078l-6.7539 1.95312m6.7539-1.95313l1.70703 1.76172m-2.6914-1.47656l.85547.8789m13.23828-1.69921l-6.34375 3.02343m6.34375-3.02344l1.97265 1.46094m-2.89453-1.02344l.98438.73047m13.39453-.83203l-6.625 2.34766m6.625-2.34766l1.8086 1.66016m11.16015-2.36719l-5.9336 3.76563m5.9336-3.76563l2.13281 1.21485m11.51563-.53516l-6.60157 2.40625m6.60157-2.40625l1.82421 1.63672m11.4336-1.78906l-6.48438 2.71093"/><g clip-path="url(#as)"><path fill="none" stroke="#000" stroke-linecap="round" stroke-linejoin="round" stroke-miterlimit="10" stroke-width=".5" d="M466.80469 372.45313l1.89844 1.55468"/></g><path fill="none" stroke="#000" stroke-linecap="round" stroke-linejoin="round" stroke-miterlimit="10" stroke-width=".5" d="M465.85938 372.84766l.94921.77734"/><g clip-path="url(#at)"><path fill="none" stroke="#000" stroke-linecap="round" stroke-linejoin="round" stroke-miterlimit="10" stroke-width=".5" d="M147.48828 360.90234l-6.97656-.8164"/></g><path fill="none" stroke="#000" stroke-linecap="round" stroke-linejoin="round" stroke-miterlimit="10" stroke-width=".5" d="M147.48828 360.90234l.89453 2.28516m-1.91015-2.40625l.44922 1.14453m13.74609-.38672l-6.70703-2.09375m6.70703 2.09375l.45703 2.41016m12.9375-2.69922l-6.86328-1.51172m6.86328 1.51172l.65625 2.36328m12.53516-1.94531l-6.6211-2.35156m5.66016 2.01171l.17969 1.21485m14.28125-2.42578l-6.98828.75m6.98828-.75l1.375 2.03125m11.9414-2.03125l-6.98828.7539m6.98828-.7539l1.375 2.03125m11.94531-1.95703l-7 .60546m7-.60546l1.33594 2.05859m-2.35547-1.97266l.66797 1.03125m13.67578-.9453l-7.01953.26171m7.01953-.26172l1.23438 2.1211m-2.2539-2.08204l.61718 1.0586m13.69531-1.40625l-6.97265.8789m6.97265-.8789l1.41406 2.0039m-2.42968-1.8789l.70703 1.0039m13.61719-1.17578l-6.96094.96875m6.96094-.96875l1.4375 1.98828m11.90234-1.73828l-7.01172.47266m7.01172-.47266l1.29688 2.08203m12-1.42578l-6.97657-.83984m6.97656.83984l.88672 2.28906m12.44532-2.47265l-7.00782-.47656m7.00782.47656l1.0039 2.24219m-2.02344-2.3086l.5 1.11719m13.84375-1.17578l-7.02343-.22656m7.02344.22656l1.07812 2.20312m-2.10156-2.23437l.53906 1.10156m13.77734-1.5625l-6.98437.76172m6.98437-.76172l1.38282 2.02735m-2.39844-1.91797l.6914 1.01562m13.5625.08203l-6.82812-1.65234m6.82813 1.65234l.60937 2.375m-1.60156-2.61719l.30469 1.1875m14.05859-1.21484l-6.9414-1.11328m6.9414 1.11328l.79297 2.32031M359.5 360.88672l.79297 2.32422m13.5664-2.98047l-7.0078.52344m7.0078-.52344l1.3125 2.07422m-2.33203-1.9961l1.3125 2.07422m12.88672-2.88672l-6.73828 1.9922m6.73828-1.9922l1.71875 1.75m-2.69922-1.46093l1.71875 1.7539m12.57422-2.0586l-6.73047 2.02345m6.73047-2.02344l1.72656 1.7461m-2.70703-1.44923l1.72657 1.7422m12.61718-1.86329l-6.82812 1.67188m6.82812-1.67188l1.63282 1.83203m-2.625-1.58594l.8164.91407m13.39453-1.47657l-6.63671 2.3086m6.63671-2.3086l1.80079 1.66407m11.45703-1.82422l-6.51954 2.6289m6.51954-2.6289l1.8789 1.57812m-2.82812-1.19531l.9375.78906m13.40234-.96094l-6.67187 2.20704m6.67187-2.20704l1.77344 1.69532m-2.74219-1.375l.88672.84765m13.22656-1.59375l-6.32812 3.0547"/><g clip-path="url(#au)"><path fill="none" stroke="#000" stroke-linecap="round" stroke-linejoin="round" stroke-miterlimit="10" stroke-width=".5" d="M466.72656 358.96484l1.97656 1.45313"/></g><path fill="none" stroke="#000" stroke-linecap="round" stroke-linejoin="round" stroke-miterlimit="10" stroke-width=".5" d="M465.80469 359.41016l.98828.72656"/><g clip-path="url(#av)"><path fill="none" stroke="#000" stroke-linecap="round" stroke-linejoin="round" stroke-miterlimit="10" stroke-width=".5" d="M147.47656 346.66016l-6.95312 1.03515"/></g><path fill="none" stroke="#000" stroke-linecap="round" stroke-linejoin="round" stroke-miterlimit="10" stroke-width=".5" d="M147.47656 346.66016l1.45703 1.97265m11.85938-.95703l-6.95703-.9961m6.95703.9961l.83594 2.3086m12.1953-1.33985l-6.38671-2.9336m6.38672 2.9336l.14062 2.44922m-1.0703-2.875l.0703 1.22656m14.375-1.35937l-6.78906-1.8164m6.78906 1.8164l.55078 2.39062m12.76563-4.19531l-6.79297 1.79297m6.79297-1.79297l1.66797 1.80078m11.76172-1.01562l-7.02344.22265m7.02344-.22265l1.22265 2.1289m12.08594-2.25l-7.01172.46485m7.01172-.46485l1.29297 2.08594m-2.3125-2.01563l.64844 1.04297m13.67578-.52343l-6.98828-.71485m6.98828.71485l.92578 2.27343m-1.9414-2.375l.46093 1.13282m13.83203-.75782l-6.91406-1.26171m6.91406 1.26171l.7461 2.33594m12.58593-2.42578l-6.9453-1.08203m6.9453 1.08203l.8047 2.3164m-1.81642-2.47265l.40235 1.15625m13.96484-1.47266l-7.02734-.13671m7.02734.13671l1.10938 2.1875m12.20703-2.24218l-7.02735-.02735m7.02735.02735l1.14062 2.17187m-2.16406-2.17578l.57031 1.08594m13.69922-.41406l-6.89062-1.36329m6.89062 1.36329l.71094 2.35156m-1.71484-2.54688l.35546 1.17188m13.94532-.8789l-6.85547-1.5586m6.85547 1.5586l.64062 2.36718m-1.64062-2.59375l.64453 2.36719m13.75-3.10157l-7.01563.36329m7.01563-.36329l1.26562 2.10157m-2.28515-2.05079l.63281 1.0547m13.70312-.71094l-7.01562-.42579m7.01562.42579l1.01563 2.23046m-2.03906-2.29296l.51172 1.11718m13.7539-.53515l-6.8711-1.46094m6.8711 1.46094l.67578 2.35546m-1.67578-2.5703l.67578 2.35937m13.71094-2.64453l-7.01172-.46485m7.01172.46485l1.0039 2.23828m-2.02343-2.30469l1.0039 2.23828m-2.02734-2.3086l.5039 1.1211m14.78126-1.95312l-6.8711 1.47265m6.8711-1.47265l1.58203 1.8789m-2.58203-1.66406l1.58203 1.875m-2.57813-1.66016l.78907.9375m14.26172-2.14062l-6.34766 3.01953m6.34766-3.01953l1.96875 1.46094m-2.89454-1.01954l1.97266 1.46094m-2.89453-1.02344l.98437.73047m14.11329-1.73437l-6.21875 3.26953m6.21875-3.26953l2.02734 1.38281m-2.92969-.90625l2.02735 1.38281m12.21875-1.80078l-6.27735 3.15625m6.27735-3.15625l2.0039 1.41797m-2.91406-.96094l2 1.41797m12.51562-1.0664l-6.85546 1.53515m6.85546-1.53515l1.59766 1.86328m-2.59375-1.63672l1.59766 1.86328m12.72656-2.03906l-6.8789 1.4336m6.8789-1.4336l1.5664 1.88672m-2.5703-1.67579l1.5703 1.88672m12.60547-2.58593l-6.59765 2.41406"/><g clip-path="url(#aw)"><path fill="none" stroke="#000" stroke-linecap="round" stroke-linejoin="round" stroke-miterlimit="10" stroke-width=".5" d="M466.85938 345.97266l1.82812 1.63671"/></g><path fill="none" stroke="#000" stroke-linecap="round" stroke-linejoin="round" stroke-miterlimit="10" stroke-width=".5" d="M465.90234 346.32031l1.82422 1.64063"/><g clip-path="url(#ax)"><path fill="none" stroke="#000" stroke-linecap="round" stroke-linejoin="round" stroke-miterlimit="10" stroke-width=".5" d="M147.33203 332.7461l-6.66406 2.23437"/></g><path fill="none" stroke="#000" stroke-linecap="round" stroke-linejoin="round" stroke-miterlimit="10" stroke-width=".5" d="M146.36328 333.07031l.89063.84375m12.76953 2.1875l-5.41797-4.47656m4.6289 3.82422l-.24609 1.20312m14.32422-.51953l-5.36328-4.53906m5.36328 4.53906l-.52344 2.39844m14.66797-4.55469l-7.02344-.22656m7.02344.22656l1.08203 2.19922m12.01953-1.10547l-6.59765-2.41406m6.59765 2.41406l.33985 2.42969m13.14062-3.04297l-6.92578-1.1875m6.92578 1.1875l.76953 2.32813m12.59375-2.89844l-7.02343-.05078m7.02343.05078l1.13672 2.17578m12.17969-2.26172l-7.02734.125m7.02734-.125l1.1914 2.14453m12.11329-2.36328l-7.0039.5625m7.0039-.5625l1.32031 2.07031m-2.33984-1.98828l.66015 1.03516m13.64453-1.375l-6.9453 1.07812m6.9453-1.07812l1.46875 1.96094m-2.48047-1.8047l.73438.98048m13.625-.375l-7.01172-.44531m7.01172.4453l1.01172 2.23438m-2.03125-2.30078l.50781 1.11719m13.8086-.86328l-6.97657-.82422m6.97656.82422l.89063 2.28906m12.38281-3.39453l-6.89062 1.39062m6.89062-1.39062l1.55469 1.89453m11.80078-.76953l-6.97265-.86328m6.97265.86328l.8789 2.29297m-1.89452-2.41797l.4414 1.14844m13.79297-.52344l-6.77734-1.85938m6.77734 1.85938l.53516 2.39453m-1.52344-2.66406l.53906 2.39453m13.88672-2.99219l-7.02344-.1289m7.02344.1289l1.11328 2.1875m-2.13672-2.20312l.5586 1.09375m13.78125-1.21875l-7.02735.15234m7.02735-.15234l1.19922 2.14062m12.05078-1.39453l-6.89844-1.33594m6.89844 1.33594l.71875 2.34375m-1.72266-2.53906l.35938 1.17187m14-2.07422l-6.97657.85938m6.97657-.85938l1.40625 2.01172m-2.42188-1.88672l.70313 1.00391m13.63671-.38281l-6.99609-.63281m6.9961.6328l.95312 2.26173m-1.96875-2.35157l.47266 1.12891m13.84765-1.78906l-6.97656.86328m6.97656-.86328l1.41016 2.01172m-2.42578-1.88282l1.41015 2.00782m12.73438-2.91016l-6.60156 2.41406m6.60156-2.41406l1.82422 1.64063m-2.78516-1.28907l1.82422 1.64063m12.40625-2.10547l-6.51172 2.64062m6.51172-2.64062l1.88281 1.57422m-2.83203-1.1914L441.1211 334.5m-2.82812-1.1875l.9414.78516m14.37891-1.23829l-6.73437 2.00782m6.73437-2.00781l1.72266 1.75m-2.70313-1.45704l1.72266 1.7461m-2.69922-1.45313l.85938.8711m14.37109-1.58985L460.23828 335"/><g clip-path="url(#ay)"><path fill="none" stroke="#000" stroke-linecap="round" stroke-linejoin="round" stroke-miterlimit="10" stroke-width=".5" d="M466.88672 332.72656l1.78906 1.67969"/></g><path fill="none" stroke="#000" stroke-linecap="round" stroke-linejoin="round" stroke-miterlimit="10" stroke-width=".5" d="M465.91797 333.0586l1.79297 1.67577m-2.75781-1.34765l1.78906 1.67969"/><g clip-path="url(#az)"><path fill="none" stroke="#000" stroke-linecap="round" stroke-linejoin="round" stroke-miterlimit="10" stroke-width=".5" d="M141.375 322.88281l5.25-4.66797"/></g><path fill="none" stroke="#000" stroke-linecap="round" stroke-linejoin="round" stroke-miterlimit="10" stroke-width=".5" d="M156.1875 323.875l2.2539-6.65625m-1.92577 5.6875l-1.21094.19922m16.79687.63281l-2.94531-6.3789m2.94531 6.3789l-1.48437 1.95313m15.5664-2.4336l-4.47656-5.41797m4.47656 5.41797l-.9375 2.26563m14.89844-2.96875l-5.76953-4.01172m5.76953 4.01172l-.29297 2.4375m13.78516-2.72266l-6.125-3.4414m6.125 3.4414l-.05469 2.45313m13.75781-3.50782l-6.89843-1.33593m6.89843 1.33593l.71875 2.34766m-1.72265-2.54297l.35937 1.17578m14.01172-1.3711l-7.0039-.55468m7.0039.55469l.98047 2.25m-2-2.33203l.49219 1.1289m13.84375-1.62109l-7.0039.59375m7.0039-.59375l1.32812 2.0625m-2.34765-1.97656l.66406 1.03125m13.66797-1.11328l-7 .58984m7-.58984l1.33203 2.0625m-2.35156-1.97657l.66796 1.03125m13.64063-1.34765l-6.94922 1.04687m6.94922-1.04687l1.46094 1.97265m-2.47266-1.8203l.73047.98437m13.63672-.57422l-7.02735-.07813m7.02735.07813l1.125 2.17969m-2.14844-2.19141l.5625 1.08984m13.76953-1.32422l-7.01562.41407m7.01562-.41407l1.27735 2.09766m12.04296-1.77734l-7.02343-.22266m7.02344.22266l1.08203 2.19921m-2.10547-2.23437l.54297 1.10156m13.78906-.95312l-7.01172-.44922m7.01172.44922l1.01172 2.23437m-2.03125-2.30078l.5039 1.11719m13.72657-.39844l-6.8047-1.75781m6.8047 1.75781l.5703 2.38672m12.78907-2.57422l-6.89062-1.3789m5.88671 1.17578l.35157 1.17578m13.83203-2.83594l-6.625 2.34375m5.66015-2.0039l.90625.83202m13.09375-1.76953l-6.0664 3.54297m6.0664-3.54297l2.08985 1.28907m-2.97266-.77344l1.04688.64453m13.0625-1.3125l-5.88672 3.84375m5.88672-3.84375l2.14844 1.1836m11.57421-.32423l-6.69921 2.125m5.72265-1.8125l.875.85547m11.78125 2.96094l-3.4336-6.1289m2.9336 5.23828l-.66015 1.03125m13.43359-6.65625l-1.34766 6.89843m1.15235-5.89453l1.17187-.35547m13.94922.13282l-4.57031 5.33984m4.57031-5.33984l2.39453.53515m-3.0586.24219l1.19532.26563m13.26953-.53516l-5.54297 4.32031"/><g clip-path="url(#aA)"><path fill="none" stroke="#000" stroke-linecap="round" stroke-linejoin="round" stroke-miterlimit="10" stroke-width=".5" d="M466.33203 318.38672l2.24219 1.0039"/></g><g clip-path="url(#aB)"><path fill="none" stroke="#000" stroke-linecap="round" stroke-linejoin="round" stroke-miterlimit="10" stroke-width=".5" d="M465.52734 319.01563l2.23829 1.0039"/></g><path fill="none" stroke="#000" stroke-linecap="round" stroke-linejoin="round" stroke-miterlimit="10" stroke-width=".5" d="M464.71875 319.64453l1.1211.5"/><path fill="#ff3030" fill-rule="evenodd" d="M455.50781 467.64844h7.6914V457.5039h-7.6914v10.14453"/><path fill="azure" fill-rule="evenodd" d="M457.33984 459.33594h.83594v5.73828h3.1914v.74219h-4.02734v-6.48047"/><path fill="#00f" fill-rule="evenodd" d="M383.80078 436.57813h8.61719v-10.14454h-8.61719v10.14454"/><path fill="azure" fill-rule="evenodd" d="M385.63281 428.26563h.83203v2.82421h3.28907v-2.82421h.83203v6.48046h-.83203v-2.91406h-3.28907v2.91406h-.83203v-6.48046"/><path fill="#ff3030" fill-rule="evenodd" d="M384.4961 414.38672h7.6914v-10.14453h-7.6914v10.14453"/><path fill="azure" fill-rule="evenodd" d="M386.32813 406.07422h.83203v5.74219h3.1953v.73828h-4.02733v-6.48047"/><path fill="#ff3030" fill-rule="evenodd" d="M291.28906 409.94922h7.6914v-10.14453h-7.6914v10.14453"/><path fill="azure" fill-rule="evenodd" d="M293.1211 401.63672h.83593v5.73828h3.1914v.74219h-4.02734v-6.48047"/><path fill="#00f" fill-rule="evenodd" d="M197.39063 392.19531h8.61718v-10.14453h-8.61719v10.14453"/><path fill="azure" fill-rule="evenodd" d="M199.22266 383.88281h.83203v2.82422h3.28515v-2.82422h.83594v6.48047h-.83594v-2.91406h-3.28515v2.91406h-.83203v-6.48047"/><path fill="#ff3030" fill-rule="evenodd" d="M198.08203 370.0039h7.69531v-10.14452h-7.6953v10.14453"/><path fill="azure" fill-rule="evenodd" d="M199.91797 361.6914h.83203v5.73829h3.19531v.74219h-4.02734v-6.48047"/><path fill="#ffffe0" fill-rule="evenodd" d="M348.91016 374.67578h22.17968v-10.19531h-22.17968v10.19531"/><path fill-rule="evenodd" d="M352.41016 366.3164h.5078v6.29298h-.78515v-4.48829h-1.39062v-.55468l.5625-.06641.25-.05469.23047-.08984.20312-.14063.17578-.21093.14063-.29297.10547-.39453m4.8125 0l.23046.01953.21875.05469.20704.08984.19921.1211.1836.14843.17187.17578.30079.41797.24218.4961.17969.54687.11328.57812.03906.58985-.03906.59375-.11328.58594-.17969.55078-.24219.5039-.30078.42578-.17187.1797-.1836.15624-.19921.1211-.20704.09375-.21875.05468-.23046.01953-.22657-.01953-.21875-.05469-.21093-.09375-.19532-.12109-.18359-.15625-.17188-.17969-.30078-.42578-.24218-.5039-.1836-.55079-.10937-.58593-.03906-.59375h.83203l.03125.5625.08203.50781.125.4414.16406.375.1875.30079.21094.22265.22265.13672.22657.04688.22656-.04688.22265-.13672.21094-.22265.1914-.30078.16407-.375.125-.44141.08203-.50781.02735-.5625-.02735-.5625-.08203-.5-.125-.4336-.16406-.36718-.1914-.29297-.21094-.21094-.22266-.13281-.22656-.04688-.22657.04688-.22265.13281-.21094.21094-.1875.29297-.16406.36718-.125.4336-.08203.5-.03125.5625h-.83204l.03907-.58985.10937-.57812.1836-.54688.24218-.49609.30079-.41797.17187-.17578.1836-.14844.1953-.1211.21094-.08983.21875-.0547.22657-.01952m5.09375 0h.5078v6.29296h-.78515v-4.48828h-1.39062v-.55468l.5625-.06641.25-.05469.23047-.08984.20312-.14063.17188-.21093.14453-.29297.10547-.39453m2.82421 2.17578h.78516l.01953-.3164.0586-.28907.10156-.25.13672-.21485.1836-.17578.22265-.1289.26562-.08203.3086-.02735.23828.02344.22265.0625.20313.10156.17969.13672.14843.17578.11329.20313.0703.23828.02735.26172-.02344.26953-.0664.22656-.10938.1914-.15234.17188-.20313.16016-.24609.16797-.63281.38672-.53906.3125-.4375.3203-.34766.32423-.26172.33594-.1914.34765-.125.3711-.07032.39453-.01953.41796h4.21094v-.73828h-3.33203l.08203-.28515.11719-.23828.14453-.19922.1875-.1836.23046-.16796.28125-.17579.71485-.41796.41797-.20704.34375-.23046.28125-.25.21875-.26563.16406-.28125.11328-.28125.0625-.28516.01953-.28125-.04297-.3828-.11718-.34767-.19141-.30859-.25-.26172-.30078-.21484-.34766-.15625-.3789-.10156-.40625-.03125-.4375.03125-.39454.09765-.35546.16797-.3047.23438-.25.30468-.18358.375-.1172.44532-.03906.51953"/><path fill="#ffffe0" fill-rule="evenodd" d="M200.26172 330.28906h22.17969v-10.1914h-22.1797v10.1914"/><path fill-rule="evenodd" d="M203.76172 321.92969h.50781v6.29687h-.78516v-4.48828h-1.39062v-.5586l.5625-.0625.25-.05468.23047-.08984.20312-.14063.17578-.21094.14063-.29296.10547-.39844m4.8125 0l.23047.01953.21875.0586.20703.08593.19922.1211.1836.15234.17187.17578.30078.41797.24219.49219.17968.54687.11328.58203.03516.58985-.03516.59375-.11328.58203-.17969.55468-.24218.50391-.30078.42578-.17188.17969-.1836.15234-.19921.125-.20703.09375-.21875.05469-.23047.01953-.22656-.01953-.22266-.05469-.20703-.09375-.19531-.125-.1836-.15234-.17187-.17969-.30078-.42578-.2461-.5039-.17969-.5547-.10937-.58202-.03906-.59375h.83203l.03125.5625.08203.5078.125.44141.16406.375.1875.30079.21094.21875.22266.13671.22656.04688.22656-.04688.22266-.13671.21094-.21875.1914-.30079.16406-.375.125-.4414.08203-.50781.02735-.5625-.02734-.5625-.08204-.5-.125-.4336-.16406-.36719-.1914-.29296-.21094-.21485-.22266-.1289-.22656-.04688-.22656.04688-.22266.1289-.21094.21485-.1875.29296-.16406.3672-.125.43358-.08203.5-.03125.5625h-.83203l.03906-.58984.10938-.58203.17968-.54688.2461-.49218.30078-.41797.17187-.17578.1836-.15235.1953-.12109.20704-.08594.22266-.0586.22656-.01952m5.09375 0h.50781v6.29687h-.78516v-4.48828H212v-.5586l.5586-.0625.2539-.05468.23047-.08984.20312-.14063.17188-.21094.14453-.29296.10547-.39844m2.82031 2.17578h.78906l.01953-.3164.0586-.28516.09766-.25391.14062-.21484.1836-.17188.22265-.1289.26563-.08204.30859-.02734.23828.02344.22266.0625.20312.10156.17969.13672.14844.17187.11328.20704.07031.23828.02734.26171-.02343.26954-.06641.22656-.10938.1914-.15625.16797-.19921.16407-.2461.16796-.63672.38672-.53515.3125-.4375.31641-.34766.32422-.26172.33594-.1914.35156-.125.3711-.07032.39452-.01953.41797h4.21094v-.74219h-3.33203l.08203-.28125.11328-.23828.14844-.20312.1875-.17969.23047-.17187.28125-.17579.71484-.41406.41797-.20703.34375-.23047.28125-.25.21875-.26953.16406-.27734.11328-.28125.0625-.28516.01953-.28125-.04296-.38672-.1172-.34765-.1914-.3047-.25-.26562-.30078-.21093-.34766-.16016-.3789-.09766-.40625-.03515-.4375.03515-.39844.09766-.35156.16797-.30469.23437-.25.3047-.1875.37108-.11328.44922-.04297.51563"/><path fill="#ffffe0" fill-rule="evenodd" d="M309.03125 325.85156h22.17969v-10.1914h-22.17969v10.1914"/><path fill-rule="evenodd" d="M312.52734 317.49219h.51172v6.29687H312.25v-4.49219h-1.38672v-.55468l.5586-.0664.2539-.05079.22656-.08984.20313-.14063.17578-.21094.14063-.29687.10546-.39453m4.81641 0l.22656.01953.21875.05469.21094.08984.19531.1211.1836.14843.17187.17578.30078.42188.24219.49219.17969.54687.11328.57813.03906.59375-.03906.58984-.11328.58594-.17969.55468-.24219.5-.30078.4297-.17187.17968-.1836.15234-.19531.125-.21094.08985-.21875.05859-.22656.01953-.23047-.01953-.21875-.0586-.20703-.08984-.19922-.125-.1836-.15234-.17187-.17969-.30078-.42969-.24219-.5-.17968-.55468-.11329-.58594-.03906-.58985h.83594l.02734.5625.08204.50391.125.44531.16406.375.1914.29688.21094.22265.22266.13672.22656.04688.22656-.04688.22266-.13671.21094-.22266.1875-.29688.16406-.375.125-.4453.08203-.50392.03125-.5625-.03125-.5625-.08203-.5-.125-.4375-.16406-.36328-.1875-.29296-.21094-.21485-.22266-.13281-.22656-.04297-.22656.04297-.22266.13281-.21094.21485-.1914.29296-.16406.36329-.125.4375-.08204.5-.02734.5625h-.83594l.03906-.59375.11329-.57813.17968-.54688.2422-.49218.30077-.42188.17188-.17578.1836-.14844.19921-.12109.20703-.08984.21875-.0547.23047-.01952m5.08984 0h.50782v6.29687h-.78516v-4.49219h-1.39063v-.55468l.5625-.0664.25-.05079.23047-.08984.20313-.14063.17578-.21094.14063-.29687.10546-.39453m6.8047 1.6211h-.78907l-.05078-.21095-.08203-.1875-.10547-.16015-.1289-.1289-.14845-.10548-.16015-.07422-.16797-.04296-.17188-.01563-.32812.03906-.28906.1211-.2461.1953-.20312.26954-.16016.33594-.11719.40625-.0703.46484-.02345.52735.19141-.20313.1875-.15625.1836-.125.18359-.08594.1914-.0625.19141-.03515.39844-.02344.3086.02734.3203.09375.31641.15625.29297.21875.25781.28516.19922.34765.07031.20313.05469.21484.02734.23438.00391.2539-.78516.04688-.02734-.26172-.07813-.25-.12109-.23437-.16015-.21094-.19532-.17578-.21875-.13672-.24219-.08985-.2539-.03125-.2539.03125-.2422.08985-.21875.13672-.1914.17578-.16016.21094-.125.23437-.07812.25-.02735.26172.02735.25781.07812.25.125.23438.16016.21094.1914.17968.21875.13672.2422.08594.2539.03125.2539-.03125.2422-.08594.21874-.13672.19531-.17969.16016-.21093.1211-.23438.07812-.25.02734-.25781.78516-.04688-.02734.3711-.09375.3711-.15625.35937-.22266.32812-.29297.28125-.16797.1211-.1914.10156-.20313.08203-.22265.0625-.2422.03906-.26171.01172-.28125-.01562-.26172-.04688-.23828-.07812-.21485-.10547-.1953-.1289-.17188-.15626-.15625-.17969-.13281-.20312-.1172-.22266-.10156-.24219-.14453-.53515-.08593-.59375-.02735-.64063.03906-.74218.11329-.66407.1875-.57812.12109-.2539.13672-.23048.15234-.20703.17188-.1836.1836-.15624.20312-.1289.21875-.10157.23046-.07031.25-.04688.26172-.01562.36329.03515.33593.09375.29297.15235.25781.19922.21094.24218.16406.27344.1172.30078.0625.32422"/></g></defs><use xlink:href="#aC"/></svg>