<svg xmlns="http://www.w3.org/2000/svg" role="img" xmlns:xlink="http://www.w3.org/1999/xlink" viewBox="142.45 309.95 326.84 171.84"><defs><clipPath id="a"><path d="M144 438h1v42.32813h-1zm0 0"/></clipPath><clipPath id="b"><path d="M144 311.67188h1V434h-1zm0 0"/></clipPath><clipPath id="c"><path d="M144 311.67188h324v168.65625H144zm0 0"/></clipPath><clipPath id="d"><path d="M378 451h20v29.32813h-20zm0 0"/></clipPath><clipPath id="e"><path d="M409 479h3v1.32813h-3zm0 0"/></clipPath><clipPath id="f"><path d="M467 311.67188h1v168.65625h-1zm0 0"/></clipPath><clipPath id="g"><path d="M144 479h4v1.32813h-4zm0 0"/></clipPath><clipPath id="h"><path d="M147 480h2v.32813h-2zm0 0"/></clipPath><clipPath id="i"><path d="M146 480h2v.32813h-2zm0 0"/></clipPath><clipPath id="j"><path d="M153 479h9v1.32813h-9zm0 0"/></clipPath><clipPath id="k"><path d="M160 480h3v.32813h-3zm0 0"/></clipPath><clipPath id="l"><path d="M166 480h9v.32813h-9zm0 0"/></clipPath><clipPath id="m"><path d="M173 480h3v.32813h-3zm0 0"/></clipPath><clipPath id="n"><path d="M180 479h8v1.32813h-8zm0 0"/></clipPath><clipPath id="o"><path d="M187 479h3v1.32813h-3zm0 0"/></clipPath><clipPath id="p"><path d="M193 479h8v1.32813h-8zm0 0"/></clipPath><clipPath id="q"><path d="M200 479h3v1.32813h-3zm0 0"/></clipPath><clipPath id="r"><path d="M206 478h9v2.32813h-9zm0 0"/></clipPath><clipPath id="s"><path d="M213 478h3v2.32813h-3zm0 0"/></clipPath><clipPath id="t"><path d="M220 479h8v1.32813h-8zm0 0"/></clipPath><clipPath id="u"><path d="M227 479h3v1.32813h-3zm0 0"/></clipPath><clipPath id="v"><path d="M233 479h8v1.32813h-8zm0 0"/></clipPath><clipPath id="w"><path d="M240 479h3v1.32813h-3zm0 0"/></clipPath><clipPath id="x"><path d="M246 479h9v1.32813h-9zm0 0"/></clipPath><clipPath id="y"><path d="M253 479h3v1.32813h-3zm0 0"/></clipPath><clipPath id="z"><path d="M260 479h8v1.32813h-8zm0 0"/></clipPath><clipPath id="A"><path d="M266 479h4v1.32813h-4zm0 0"/></clipPath><clipPath id="B"><path d="M273 478h8v2.32813h-8zm0 0"/></clipPath><clipPath id="C"><path d="M279 479h2v1.32813h-2zm0 0"/></clipPath><clipPath id="D"><path d="M287 478h7v2.32813h-7zm0 0"/></clipPath><clipPath id="E"><path d="M300 478h8v2.32813h-8zm0 0"/></clipPath><clipPath id="F"><path d="M313 478h8v2.32813h-8zm0 0"/></clipPath><clipPath id="G"><path d="M326 478h8v2.32813h-8zm0 0"/></clipPath><clipPath id="H"><path d="M342 476h4v4.32813h-4zm0 0"/></clipPath><clipPath id="I"><path d="M353 478h8v2.32813h-8zm0 0"/></clipPath><clipPath id="J"><path d="M366 478h8v2.32813h-8zm0 0"/></clipPath><clipPath id="K"><path d="M380 478h8v2.32813h-8zm0 0"/></clipPath><clipPath id="L"><path d="M393 479h8v1.32813h-8zm0 0"/></clipPath><clipPath id="M"><path d="M391 479h3v1.32813h-3zm0 0"/></clipPath><clipPath id="N"><path d="M406 480h9v.32813h-9zm0 0"/></clipPath><clipPath id="O"><path d="M406 478h3v2.32813h-3zm0 0"/></clipPath><clipPath id="P"><path d="M422 476h3v4.32813h-3zm0 0"/></clipPath><clipPath id="Q"><path d="M433 478h8v2.32813h-8zm0 0"/></clipPath><clipPath id="R"><path d="M433 480h2v.32813h-2zm0 0"/></clipPath><clipPath id="S"><path d="M447 477h6v3.32813h-6zm0 0"/></clipPath><clipPath id="T"><path d="M461 476h5v4.32813h-5zm0 0"/></clipPath><clipPath id="U"><path d="M144 466h4v2h-4zm0 0"/></clipPath><clipPath id="V"><path d="M144 453h4v2h-4zm0 0"/></clipPath><clipPath id="W"><path d="M144 439h4v3h-4zm0 0"/></clipPath><clipPath id="X"><path d="M144 426h4v2h-4zm0 0"/></clipPath><clipPath id="Y"><path d="M465 424h3v2h-3zm0 0"/></clipPath><clipPath id="Z"><path d="M144 413h4v2h-4zm0 0"/></clipPath><clipPath id="aa"><path d="M465 410h3v2h-3zm0 0"/></clipPath><clipPath id="ab"><path d="M144 399h4v3h-4zm0 0"/></clipPath><clipPath id="ac"><path d="M465 397h3v3h-3zm0 0"/></clipPath><clipPath id="ad"><path d="M144 384h4v6h-4zm0 0"/></clipPath><clipPath id="ae"><path d="M465 384h3v2h-3zm0 0"/></clipPath><clipPath id="af"><path d="M144 371h4v5h-4zm0 0"/></clipPath><clipPath id="ag"><path d="M466 371h2v3h-2zm0 0"/></clipPath><clipPath id="ah"><path d="M144 360h4v1h-4zm0 0"/></clipPath><clipPath id="ai"><path d="M466 358h2v3h-2zm0 0"/></clipPath><clipPath id="aj"><path d="M144 346h4v2h-4zm0 0"/></clipPath><clipPath id="ak"><path d="M466 345h2v3h-2zm0 0"/></clipPath><clipPath id="al"><path d="M144 331h4v5h-4zm0 0"/></clipPath><clipPath id="am"><path d="M466 332h2v3h-2zm0 0"/></clipPath><clipPath id="an"><path d="M144 316h2v9h-2zm0 0"/></clipPath><clipPath id="ao"><path d="M144 315h1v3h-1zm0 0"/></clipPath><clipPath id="ap"><path d="M465 317h3v3h-3zm0 0"/></clipPath><g id="aq" clip-path="url(#clip1)"><path fill="#fff" fill-opacity="0" fill-rule="evenodd" d="M0 0h1000v1000H0zm0 0"/><path fill="#d3d3d3" fill-opacity="0" fill-rule="evenodd" d="M162.15234 355.86719l-.23437.29297.0586.23437.11718.17188.17578.23437.29297.34766.11328.0586.11719-.17188.0586-.23438.17577-.17578.46485-.17578h.69922l.23437.29297.28906.8164.0586.17579.17578.23046.35156.23438.69922.69922.17188.17578.23437.34765.23438.41016.28906.58203.41015.46485.23047.23437.23438.17578.11719.23047.17578.29297.17187 1.16406v.23438l.0586.28906.05859.11719.11719.11719.34765.41015.11719.17188.17578.17578.17578.23437.11719.17188.17188.35156.05859.23438.23437.40625.23438-.0586-.17578.17578-.0586.92969h-.58203l-.23437-.11328-.34766.11328-.11719.11719-.05859.29297-.0586.17578-.11718.17187-.46484.29297-.0586.23438-.0586.11328v.64453l.0586.17187v.41016l.0586.0586v.40624l.05859.40625.11719.17579.05859.05859.23047.64062-.0586.29297v.69922l-.05859.58203v.23438l-.0586.23047-.05468.35156v1.92187l.05469.1172h.42578l-.36719.11718-.02344.35156.89063 1.16797 1.74219.53906 1.33984.35938v.53906l.08984.8086.53516.71484 1.51953.26953.89063-.08594.08984 1.16406.53516.1797 1.16015-.1797 2.05469-.98437 1.16016-.36328 1.8789-.17578 1.69531-.1797-.17968.71876-1.51563.08594-1.25.08984-.80469.26953-1.07421.8086.26953.71875.53515.89843-.17968.625-.26563.8086.26563 1.07812.625.89844.80468.17969 1.25-.1797-.26562.72267.09766.5039.05468.29297v.17188l.0586.29296v.40625l.17578.1172.35156.11718h.40625l.29297-.17578.11328-.11719.0586-.11719.11718-.23047.0586-.17578.35156-.46484.23047-.17578.17578-.0586.17578.0586.0586.17578.11718.98828.05469.46875.0586.17188.11718.23437.17578.0586.8164.05859h.28907l.11719.23437.05859.40625.0586.35156v1.10547l.11718.29297.11719.34766.28906.69922.17578.35156.58203.7539.35157.17579.17187.0586.46875.23437.64063.46484.34765.23438.29297.17578.29297.05468.23047.0625.8164.34766.29297.17578.11328.17188.35157.35156.11719.17578.52343.64063v.28906l.0586.35156v.34766l.05859.35156.0586.28906.11718.0586.17188.05859h.17578l.58203.23437.17578.1172.17578.28905.17578.23438.11328.23437.29297.23047.11719.11719v.41016l.0586.05468.28906.23438.23437.11719.0586.11718.11718.17188.0586.11719.23047.23437.05859.17578.23437.0586.1172.05859-.1172.11328-.05859.11719v.11719l-.11719.29296-.11719.28907v.58203l.17579.11719.11718.05859.0586.11719.11719.11719.11328.05859.17578.34765.0586.35157.05858.40625v.17578l-.05859.17578-.11719.69922v.17187l.1172.17579.29296.29296h.40625l.17578.1172.11719.17187.11719.29296v.23438h-.52735l-.23047-.23438h-.23437l-.17578.0586-.0586.69922.0586.34765.11719.17579.17578.41015.11718.23047.28907.46875.17578.05469h.52344l.23437.0586.75781.64062.0586.29296v.23438l.05859.0586.23047.34765v.35156l-.11719.17188v.29297l.29297.28906.29297.17578.17187.0586.29297.17577.29297.1172.58203.40624.28906.23438.29297.17578.21875.16015.01563.01172.23047.17579.64062.52343.17578.23438.1172.17578.17577.17578.11328.17188v.64062l.1172.17578.46874.11719.58203.11719.23438.05859.23047.11328.29297.11719.11328.0586.58593.35156.28907.17187.17578.0625.17578.05469.17578.0586.69922.35155.28906.17579.23438.05468.28906.17578.23437.1172.64063.40624.29297.11719.17187.0586.23438.05859.41015.05859.23047.0586.23438.11718.0586.17188-.41017.17578.46875.0586.0586.29296.11328.23438.17578.05468.23438.0586.17578.05859.40625.11719.64062.23437.11719.17188.0586.23437v.17578l-.0586.1172-.0586.40624.23438.23438.11719.05859.34766.11719.64062.23047.17578.11718.28906.1172.17578.17577.23438.46485.58203 1.10546.17578.17579.34766.17578.17578.11719.35156.11718 1.04688.52344.23437.0586.46485.11327.29297.0586.46484.17578.75781.58203.23438.23438.34765.46484.17578.17578.28907.23438.8164.69921.29297.17579.28906.28906.29297.17578.29297.28906.69531.64063.17578.17578.29297.23437.28907.23438.46875.28906.64062.58203.34766.23438.23437.29297.34766.34765.35156.46485.9336.99218.34765.40625.11719.17579.23437.05859.11328.11719.64454.17578.23047.11328.23437.0586.29297.17577.23047.1172.9336.69921.40624.40625.23438.17578.40625.17578.23437.11719.8164.34766.34766.23437.23438.11719.29297.28906.23047.11719.7578.35156.35157.17188.23047.05859.29297.11719.23437.0586.8711.17577h.8164l.46875.23047.17188.0586.875.69921.46484.1172.29297.05858.17578.0586.23047.0586.46875.05859.34766.05859.35156.0586.40625.05859h.29297l.17187.0586v.23046l.17578.17578h.29297l.34766.0586.35156.05859.69922.11719h.64063l.46484-.23438.29297-.17578.17187-.11719.41016-.17187.28906-.17578.9336-.46485.46875-.29297.52343-.29296.46485-.17188.46484-.17578 1.05078-.46485.28906-.11718.41016-.11719.28906-.11719.52735-.17578 1.51562-.69922.58203-.34765.28907-.0586.29297-.0586.34765-.11718.875-.23047.35156-.11719h.11329l.23437-.05859.875-.23437.23438-.0586h.8125l.35156-.0586.8164-.11718.17188-.0586.35156-.05468.29297-.0586.23047-.05859.8164-.17578.17579-.0586h.34765l.23438-.05859.46484-.11718.75781-.17188.23438-.0586h.34765l.41016-.11718.28906-.0586 1.28516-.05859h.28906l.41016-.0586.23047-.05858h.17578l.875-.1172h.40625l.41015-.11718h.34766l.35156-.11328.8711-.0586h1.75l1.04687.28907.41016.11719.28906.11718.35156.11719.28907.11719 1.05078.17187.28906.0586h.29297l.29297.05859.17187.0586.41016.05859.17187.0586.1172.05858h.11718l.11719.0586.35156.0586h.11328l.41016.0664 1.92187.39453 1.92578.39453 1.51953.44922 1.69532.71875 2.14453.80469 1.60547-.71875 1.42968-.80469 1.16016-1.07813 1.25-.44921 3.03516-.71875 1.875-.35938 2.14453-1.34765 2.23437-1.25391 2.5-1.25781 1.69531-.44922 1.78516-.17969 1.16016-.26953.625.53906 1.33984-.26953.71485-.98828.98437-1.34375.44531-.17969.80469-.35937 1.875-.53907 1.78516-.44921 1.25-.26954 1.16015-.08984 1.69922-.08984 1.96094-.26954 1.25-.08984h.53906l.625-.08984h.89063l2.14453-.17969 2.41015-.17969 2.58985-.08984 1.69531.17969 1.60938.08984 1.42968.35938 1.16016.71875 1.875.98828 1.16015 1.52734.26563.71484.6289.08985.35548.89844.53515.53906.53516 1.52734 1.07422.35938h.53515l-.80469.53515.08985 1.70703.71484 2.69532.89063.80468.89453.98829.71484 1.2578 1.78516.53907 1.51953-.17969.35547 1.34375 1.60937-.80469.98047-.53906.26953.26953.31641-.21484.21875-.14453.80078.44922.44922-.35938h.35547l.53515-.26953.53907-.71875.53515-.26953.625-.98828 1.16016.44922.83984.3711 1.39454.61718 1.6953-.17969h1.60548l1.78515.08985.17969-1.70704.53516-1.34375.80468.26954.4922.84765.40233.40625-.08984.53906v.35938l.71485.44922.71093-.26953h1.42969l.35938.98828.4453 1.25781.71485 1.34375 1.25.6289 1.69531.62891.71485-.17969.17969-.53906.98046-.08984.44922.35937.08594 1.25782-.26563.6289-.53515.17969v.53906l.71484.98438.26563.53906.98437.98828.80078 1.07813-.26562.35937-.08985.89844-.625 2.33203-.35546 2.0664-.08985 1.79298-.17969.71875-.08984.53906v1.4375l-.98047 1.88281-.35937 1.70703-.53516.89844-.80469 1.16797-.26562.53906 2.05469 1.2539.08593.35938-.35546.53906-.08985-.17968v.80859l.08985 1.4375-.44532.71484-1.07422.09375-.26562.71485.53515.89844.8047.71875 1.16015.80859 1.33984.26953.44531.35938-.35546.44921-1.78907-.08984-1.25-.44922-.71484-.71875-.625-.08984-.17578 3.58984-.1875 1.3086h89.35937V311.70313h-55.26953v49.08203l.76172.125 3.28906.54296 2.02344 2.83594v2.7539l2.35156.33204 2.34766.33203h4.05078l-1.3789 4.16016-2.02344.70703-2.02344.70312-.54297.34375-2.59375 1.6172-.1875.11718-2.02344-2.07813-.73046-2.74218-2.67188-2.07813-1.375-3.5-.0664-.08203-1.95704-2.67188 2.75-1.41796v-49.08204H294.42187v91.41407l.1172.03125.1328.01172.07422.07421.10547.04688.08985.0586.08593.05859.08985.0586.29687.29687.0586.08984.03125.11719.02734.11719.01563.13671-.03125.1172-.0586.08983-.0586.08594-.04296.10547-.04688.10156-.02734.1211v.14453l.17578.26953.14844.14844.07422.08594.07422.07421.04296.10547.0625.08985.0586.08593.04297.10547.0586.08985.04687.10156.04296.10547.0586.08594.11719.17968.07421.07422.0625.08594.0586.08984.04297.10547.0586.08985.05858.08593.0625.08985.0586.08984.04297.10156.11719.17969.07421.07422.0586.08594.07422.07421.08984.0586.10547.04687h.14844l.1328-.01562.13282.01562.10156-.04687.07422-.07422.04688-.10156-.01563-.13281v-.14844l-.04687-.10547-.02735-.11719-.04687-.10156-.02735-.1211-.04296-.10156-.0625-.08984-.04297-.10156-.04297-.10547-.03125-.11719-.01563-.13281-.01171-.13672.08593-.0586.0586-.08593.12109-.03125.04297.10547.01562.1328v.1172l.0586.10156.0586.08984.08983.0586.14844.14843.0586.08985.04296.10547-.01171.10156.08593.0586.10547.04687.08594.0586.08984.05858.07422.07422-.11719.02735-.10546.04687-.08594.0586-.07422.07421-.0586.08985-.0625.08594-.02734.12109-.04687.10156-.04297.10547-.03125.11719-.01172.13281-.01563.13281v.14844l.02735.11719.04687.10547.04297.10156.0586.08984.07421.07422.08985.0586.07422.07421.08984.0586.0586.08984.04296.10547.04688.10156.11719.03125.1328.01563h.14845l.11718-.03125.10547.04297.04297.10547.04688.10156.02734.1211L299.5 410l.02734.11719.03125.1211.02735.11718.10547.04297.10156.04687.13281-.01562.14844.14844.0625.08593.07422.07422.07031.07422.08984.0625.10547.04297.10156.04297.1172.03125.13671.01562.11719-.03125.07422-.07422.02734-.11718-.01172-.13282-.03125-.12109-.02734-.11719.04297-.10547h.11719l.08984.0625.11719.02735h.14843l.13282.01562h.14843l.13282.01563.1328-.01563h.14845l.1328-.01562.13282-.01172.13672.01172.11719-.02735.13281-.01562.1914-.0586-.05859.17579-.01562.1328-.02735.1211-.01562.13281-.0586.08594-.1328.01563-.10548.04687-.10546.04297-.1172.03125-.11718.02735-.26563.03125h-.14843l-.13281.01562-.07422.07422.05859.08594.14844.14843.11719.1797.07421.0703.08985.0625.08984.0586.08594.0586.08984.05858.10156.04297.10547.0625.10547.04297.08594.0586.10547.04687.10156.04297.17969.11719.0586.08984-.04298.10156-.04687.10547.01562.13281.22266.22266.0586.08985.04296.10156.03125.1211.04297.10155.01563.13282.03125.11718.01171.13672.03125.11719.14844.14844.10156.04297.10547.04296.1172.03125.1328.01563.13672.01563h.11719l.11719-.03125.08984-.0586.04297-.10547.04688-.10156.04296-.10547.03125-.11719.01172-.1328v-.14845l-.01172-.1328-.01562-.13282-.03125-.11719-.04297-.10547-.04688-.10547-.04296-.10156-.04297-.10547-.01563-.13281.01563-.13281.02734-.11719.03125-.11719.02735-.1211.04687-.10155.08984-.0586.08594-.0625.07422-.07422.08984-.05859.22266-.22266.0586-.08593.07421-.07422.11719-.17969.0586-.08594v-.14844l-.07423-.07421-.10156-.04688-.10547-.04297-.10156-.04297-.0586-.08984-.04687-.10547-.02734-.11719.08984-.05859.11719-.03125.10156-.04297.17969-.11719.14844-.14843.01172-.13282-.01172-.10546-.08985-.0586-.1328.01563h-.14845l-.1328.01562-.13282-.01562-.1211-.03125-.08593-.0586-.07422-.07422-.0586-.08984-.0625-.08594-.11718-.17969-.0586-.08593.03125-.1211.08594-.05859.1211-.03125.05859-.08594v-.1211l-.03125-.11718-.0586-.08984-.05859-.08594-.04687-.10547-.02735-.11719-.01562-.1328.0586-.08985.07421-.07422.08984-.0586.1172-.17968.07421-.07422.0586-.08594.14843-.14844.1211-.03125.1328-.01562.13282.01562.07422.07422.04297.10547.01562.13281-.03125.1172-.11719.03124-.1328.01172-.14844.14844-.04297.10547-.04688.10156-.02734.1211-.03125.11718v.14844l.03125.11719.04297.10546.05859.08985.07422.07031.07422.07422.11719.03125.12109.02734.11719-.02734.1328-.01563h.1172l.08984.0586.07422.07422.04687.10546.0586.08594.10156.04688.13281.01562.10547.04297.08594.0586-.01172.10546-.07422.07422-.17969.11719-.05859.08984-.08984.0586-.07032.07422-.07421.07421-.0625.08985-.02735.11719-.01562.1328.01562.13282-.01562.13281v.14844l.01562.13281.02735.1172.03125.12108.07421.07422.08985.0586.08594.0586.08984.05858.11719.03125v.08594l-.10157.04688-.08984.0586-.26563.03124-.11718.02735h-.14844l-.10547.04296-.10156.04688-.0586.08984-.0625.23438-.01171.13281-.03125.1211-.01563.1328v.29298l-.01172.1328.01172.13673.01563.1328.1328.01563.13282.01172.1211.03125.08593.0586.07422.07421.04688.10547.04296.10157.01563.1328v.44532l-.01563.13281v.44532l.03125.26562.02735.11719.01562.13281.03125.11719.08594.21094.03125.26562v.14844l-.03125.11719-.02734.11718-.03125.1211-.02735.11719-.03125.11718-.03125.1211-.01171.1328-.01563.13282.08984.0586.1172-.03125.10155.01562.04688.10547-.03125.26562v.44141l-.04297.10547-.04688.10547-.04296.10156-.04297.10547-.0586.08594-.03125.12109-.04296.11719-.03125.11719-.01563.1328.01563.13282.05859.08984.10547.04688.08594.0586.05859.08593-.01172.13672-.03125.11719-.04297.10156v.44531l-.01562.13281v.14844l-.03125.11719-.04297.10547-.02735.11719-.04687.10546-.04297.10157-.03125.12109-.02734.11719-.03125.13281-.03125.11719-.02735.11719-.04297.10546-.03125.1172-.03125.12108-.01171.13282-.01563.13281v.29688l.02734.11718v.14844l.04688.39844.02734.11719.0586.08984.12109.03125h.14844l.13281-.01563.0586.08985v.11719l-.0586.08984-.08984.0586-.10157.04296-.10546.04688-.08985.05859-.08594.0586-.13671.01562-.1172-.03125-.1328-.01563-.10157.04688-.0625.08594-.01172.13671-.01562.13282-.03125.11719-.02735.11718-.01562.13281-.03125.1211v.29687l.01563.13282.03125.11718v.14844l.01171.13281v.14844l-.02734.11719-.04688.10156-.02734.1211-.03125.11718-.0586.08985-.07421.07421-.10156.04297-.10547.04688-.11719.02734-.1211.03125-.10156-.04687.0586-.08594.10547-.04688.02734-.11718.03125-.11719.02734-.1211.03125-.11718v-.14844l.01563-.13281-.03125-.11719-.04297-.10547-.10547.01563-.07422.07422-.10156.04296-.08984.0625-.07422.07422-.04297.10157-.01563.1328-.03125.1172L304.25 426l-.03125.11719-.02734.11719-.03125.12109-.02735.11719-.03125.11718-.04297.10547-.08984.0586h-.08984l-.1172-.03125-.03124-.08594.01562-.13672-.03125-.11719v-.14844l-.01171-.1328v-.14844l-.0625-.23438-.02735-.1211-.04297-.10156-.04687-.10546-.0586-.08594-.05859-.08985-.04297-.10546-.0625-.08594-.14844-.14844-.0703-.07422-.10548-.04687-.10547-.04297-.10156-.04297-.29687-.29688-.08985-.07421-.08594-.0586-.10546-.04297-.08985-.0625-.08594-.0586-.10546-.04296-.08985-.0586-.08594-.0625-.07421-.0703-.10547-.04688-.08594-.0586-.10547-.04296-.08984-.0625-.10156-.04297-.10547-.04297-.08594-.0586-.10547-.04687-.10547-.04297-.10156-.04687-.08985-.0586-.10156-.04297-.10547-.04296-.08984-.0625-.11719-.02735-.13281-.01562-.13281.01562H299.75l-.13281.01563-.11719-.03125-.08984-.0586-.07422-.07422-.08985-.05859-.10156-.04688h-.14844l-.12109-.02734-.10156-.04297-.07422-.07422-.11719-.17968-.08984-.0586-.10156-.04297-.08985-.0625-.10547-.04296-.08984-.0586-.08594-.0586-.10547-.04687-.0586-.08594-.05858-.08984-.04297-.10547-.04688-.10156-.07422-.07422-.08594-.0586-.07421-.07421-.08985-.0586-.22265-.22265-.04297-.10547-.03125-.26563.10547-.04296h.14453l.10547.04296.07421.07422.08985.0586.08594.0586.10546.04687.08985.05859.14844.14844.0703.07422.14845.14843.0625.08594.07421.07422.08594.0586.07422.07421.08985.0625.08984.0586.08594.05859.26953.17578.10156.04688.10547.04296.10156.04297.04688-.07421.05859-.08594.07422-.07422.07031-.07422.10547.04297.07422.07422.0586.08984.04296.10156.04688.10547.04296.10547.1211.02735.11719-.02735.07421-.08984.04297-.10547.0586-.08985.07422-.07421.10546-.04297.1172-.02735.1328.01172.08985.0586.14844.14843.05859.08985.04297.10547.04687.10156.04297.10547.04297.10156.10547.04688.10547.04296.13281.01563.08594-.0586.0586-.08984.07421-.07422.10547-.04297.11719.02735.10547.04687.10156.04297.10547.04297.10156.04688.17969.11718v.11719l-.01563.13281.01563.13281.01562.13672.0586.08594.10156.04688.1211.02734.11718.03125h.14844l.11719-.03125.05859-.08984.17969-.1172.05859-.08983.07422-.07422.0586-.08594.11718-.17969.17969-.11719.11719.03125.08984.0586.04297.07422-.01563.1328v.1172l.08985.05859h.14843l.13282-.01563.1328-.01171.26563-.03125.10547-.04297.11719-.03125.1211-.02735.07421-.07421.07031-.07422.0625-.08985-.01562-.10547-.04688-.10156-.10156-.04297-.10547-.01562-.11718.02734-.26563.03125h-.14844l-.07421-.07422-.08985-.0586-.11719-.03124-.11718-.02735-.13282-.01562h-.14843l-.13282.01563h-.29687l-.10547-.04688-.14844-.14844-.04297-.10156-.05859-.08984.22266-.22266.08593-.0586.10547-.04296.11719-.03125.13281-.01563.13281.01563.13672.01562.10157.04297.1328-.01172.08985-.0625.10156-.04297.0625-.08984-.04687-.10156-.08984-.0586-.1172-.03125-.10155-.04296-.0586-.08985-.0625-.08984v-.11719l.01563-.13281.10547-.04688.07421-.07031v-.1211l-.08984-.05859-.03125-.11719.08985-.05859.07421-.07422.04297-.10547.0586-.08984.04687-.10156.01563-.13281v-.14844l-.04688-.10547-.04297-.10156-.08984-.0586-.13281-.01562-.10157-.04297-.13671-.01563-.1172-.03125h-.4453l-.13282-.01562-.13281-.01172-.13281-.01563-.11719-.03125h-.14844l-.13281-.01562-.13281-.01172-.26563-.03125-.1211-.04297-.08593-.0586-.07422-.07421v-.14844l.01172-.13281.10547-.04688.10156-.04296.13281-.01563h.15235l.13281-.01562h.29297l.1211.03125.10156.04296.08984.0586.23438.0625.12109-.04688.08984-.05859.10156-.04297.13282-.01562.10547.04296.10156.04688.13281.01172.1211-.02735h.14453l.12109-.03125.11719-.02734.10547-.04687.07421-.07422.08594-.0586.14844-.14843.0586-.08594.04687-.10547.02734-.11719.01563-.10547-.10156-.04296-.08985-.0586-.11719-.03125-.10546-.04297-.08985-.0625-.07422-.08594-.07422-.07421-.10156-.04297-.10547-.04688-.10156-.04297-.0586-.08984-.04687-.10156-.08594-.21094-.0625-.08594-.05859-.08984-.07422-.07422-.08594-.0586h-.26953l-.11719.03126-.08984.05859-.10156.04297-.13281.01562-.10547-.01562-.02735-.11719-.0625-.08984-.11718-.03125-.10157-.04297-.14843-.14844-.03125-.11719-.01563-.10546.07422-.07422.17969-.1172.11719-.02733.11718-.03125.13672.01562.10156.04297.10547.04297.10156.04687.10547.04297.1172.03125.1328.01563.1172.02734.1328.01563.10547-.01563.08985-.0586-.07422-.07421-.10547-.04297-.07422-.07422-.07422-.08984-.14844-.14844-.08593-.0586-.08985-.05859-.07422-.07422-.08984-.0586-.10156-.04687-.1211-.02734-.10156-.04688-.10547-.04296-.11719-.03125-.10156-.04297-.1211-.03125h-.14843l-.11719.03125-.10546.04297-.08594.0625-.17969.11718-.08594.0586-.08984.0586-.10547.04687-.08594.05859-.10547.04297-.10156.04297-.10547.04687-.07422.07422-.05859.08985-.0586.08593-.04687.10547-.0586.08594-.07421.07422-.13281-.01172-.1172-.03125h-.11718l-.07422.07422-.08984.0586-.07422.07421-.08984.0586-.08594.05859-.10547.04687-.10156.04297-.13672.01563-.10156-.04297-.14844-.14844-.10547-.04688h-.08594l-.10547.04688-.10156.04297-.1211.03125-.11718-.03125-.07422-.07422v-.11719l.03125-.1211.07422-.0703.0586-.08985.07421-.07422.11719-.03125.10547-.04296h.29297l.13281-.01563.13672-.01563.10156-.04296.08985-.0586.10156-.04687.08984-.0586.13281-.01171.08985.05859.13281.01172.08984-.0586.08594-.05859.10547-.04297.08984-.0586.08594-.0625.08985-.05859.14843-.14843.0586-.08594.05859-.08985.10547-.04296.13281-.01563.11719.02735.1211.03125.05859-.0586.05859-.08984.03125-.26563.02734-.11719.10547.01172.13281.01563.10157-.04297.08984-.0586.0586-.08984.07421-.07422.0586-.08984.04687-.10156.01172-.13281-.01172-.13282-.04687-.10547-.14844-.14843-.0586-.08985-.05859-.08594-.04297-.10546v-.44532l.01563-.1328v-.14845l.01172-.1328-.0586-.0586-.08984.0586-.10156-.04298-.17969-.11719-.08594-.05859-.0625-.08984-.0586-.08985-.07421-.07421-.08594-.0586-.1211.03125-.10155.01172-.10547.04688-.08594.05859-.10547.04297-.14844.14844-.08984.05859-.08594.0586-.08984.0625-.10547.04296-.13281.01563v-.1211l.10547-.04297.11718-.03125.07422-.0703.04297-.10548v-.14844l-.02734-.11718-.14844-.14844-.13281-.01563h-.14844l-.11719.03125-.10547.04297-.10156.04297-.08984.0625-.11719.02735-.07422-.07422.01172-.13281-.04297-.10157-.04297-.10547-.08984-.05859-.11719.02734-.1211.03125-.11718.03125-.10156.04297-.1211.03125-.10156.04297-.10547.04297-.08984.0586-.10156.01562v-.11719l.01562-.13281-.0586-.08985-.07421.04297-.14844.14844-.0586.08985-.07421.07421-.04688.10547-.04296.10156-.07422.07422-.0586.08985-.07422.07422-.05859.08593-.07422.07422-.08984.0625-.07422.07031-.07422.07422-.10156.01563-.13281.01562-.10547-.04296v-.1211l.14843-.14844.04297-.10156.0586-.08984.04687-.10156.04297-.10547.0586-.08985.03124-.11719.04297-.10156.03125-.1211.02735-.11718.04687-.10547.04297-.10156.04297-.10547.07422-.07031.08984-.0625.08985-.0586.10156-.04296h.29687l.26563-.03125.10547-.04297-.07422-.07422-.11719-.03125-.10547-.04297-.08984-.0586-.10156-.04687-.08985-.0586-.10156-.04296-.10547-.04297-.08984-.0625-.08594-.0586-.10547-.04296-.10156-.04297-.1211-.03125-.11718-.03125-.10157-.04297L297.5 410.25l-.10156-.04297-.08985-.0586-.04296-.10546-.01563-.13281.10156-.04297.13281-.01563.13672.01563.13282-.01563.10156-.04297.0586-.08984.01562-.10547-.08985-.0586-.07421-.07421-.10157-.04297-.08984-.0586-.14844-.14843-.04297-.10547-.01562-.13281v-.29297l-.0586-.08985-.08984-.05859-.07422-.07422-.04297-.10547-.03125-.11718-.0586-.08985-.07421-.07422-.11719-.02734-.07422-.07422-.08984-.0586-.08984-.0625-.08594-.05859-.07422-.07421-.0586-.08594-.04687-.10547-.08594-.0586-.14843-.14843-.19532-.0586-.1328.01563-.10157.04297-.07422.07422-.04688.10156-.04296.10547-.0586.08984-.0586.08594-.29687.29687-.08984.0586h-.08594l-.0625-.08594-.04297-.10547.03125-.11719.0586-.08984.02734-.11719-.01172-.13281-.08984-.0625-.10547.04688-.11719.02734-.11719.03125-.26953.17578-.10156.04688-.11719.02734-.10546.04687-.08985.0586-.10156.04297-.0586-.08594-.04687-.10547.01563-.13281.04687-.10547.07031-.07422.07422-.07031.0586-.08985v-.14843l-.04297-.10547h-.23829l-.10156.04687-.03125.11719-.02734.11719-.03125.1211-.07422.04296-.13281.01563-.07422-.04688-.04297-.10156-.04297-.10547-.04687-.10156-.04297-.10547-.1211.03125-.10156.04297-.13281.01562-.11719.03125-.10547.04297-.08984.0586-.10156.04687-.1211.02734-.13281.01563-.10156-.04297-.0586-.08985-.04687-.10546-.04297-.10157-.04297-.10546v-.1172l.0586-.08984.08593-.05859.17969-.11719.10156-.04687.10547-.04297.10547-.0586.10156-.04296.08985-.0625.10156-.04297.10547-.0586.10156-.04687.08984-.0586.10547-.04296.10156-.04297.08985-.0625.10156-.04297.13672-.01563.11719.03125.10156.04297.1211.03125.10156.04297.10546.04688.10157.04296.10547.04297.10156.04688.10547.04297.10156.04297.10547.04687.08594.0586.10546.04296.1172.03125.10546.04297.10156.04688.08985.0586.10547.04296.10156.04297.10547.04687.11719.02735.10156.04687.1211.02735h.14843l.08594-.0586.01562-.10156.0586-.08984-.02735-.1172-.07422-.07421-.11719-.17969-.07421-.07422-.08985-.07421-.17969-.1172-.08593-.05859-.10547-.04296-.10156-.04688-.26954-.17578-.05859-.08985-.07422-.07421-.0586-.08985-.04296-.10156-.03125-.11719-.01563-.13672v-.5625l-.01171-.1328-.01563-.13282-.03125-.11719-.01562-.13281-.01172-.13281-.03125-.1211-.22266-.22265-.0586-.08594-.01562-.10547.03125-.11719.13281-.01562v-91.41406H172.9922v1.45312l-.0586.23438-.35156 1.05078-.17187.52343-.1172.34766-.17577.41016-.11719.17187-.23438.29297-.23046.0586h-.35157l-.11718.05859-.23047.40625v.29297l.11719.17578.23046.23047.1172.23437.64062.75781.29297.46485.17578.23437.23047.35156.23437.34766.64063.8164.17578.46485.17187.41016.11719.69531.17578.46875.11719 1.39844.0586.46484v.875l.11718 1.04688v4.78125l-.0586.46484-.35156 1.28125-.17578.52344-.11328.41015-.35156.9297L172.93359 336l-.23437.58203-.11719.17578-.17187.34766-.17578.40625-.35157.8164-.0586.29297-.11327.29297-.11719.28906-.0586.17579-.11718.875-.0586.40625-.05859.11718-.0586.17579-.05859.17187-.23047.52734-.11718.17188v.23437l-.11719.23438-.0586.17187-.17577.58594v.28906l-.0586.17579v.29296l-.0586.11329-.05859.52734v.17187l-.05468.23438v2.6211l-.17578.8164-.1172.17578-.17577.23438-.1172.17187-.11327.23438-.58594.93359-.23047.28906-.29297.46485-.17578.23437-.28906.35156-.35156.69922-.11328.23047-.17579.41016-.17578.23046-.40625.52735-.8164.69922-.29297.17187-.28906.23438-.17579.11719-.17578.17578-.52344.40625-.52734.17578-.17187.17578-.23438.05469-.64062.17578h-.75782m12.21094 31.02344l-1.07422.44921.35938.89454 1.25-.71485.44531-.53906-.98047-.08985"/><path fill="#d3d3d3" fill-opacity="0" fill-rule="evenodd" d="M201.50781 416.59766h-.89453l.44922.6289.98047.35938.80469-.08985.4453-.98828-.17577.08985-.71485-.35547-.89453.35547m154.6211 59.0703l-.0586-.52343v-.29297l.11328-.29297.0586-.23046.46875-.46875h.11328l.11719-.11329.11718-.05859h.17579l.23437-.0586h.34766l.23437.0586.11719.0586.23047.17187.0586.17578.11718.58203v.29297l-.11719.17578-.17187.28906-.17579.17579-.52734.52343-.23047.23438-.11719.0586h-.17578l-.11718-.0586-.40625-.29297-.17579-.11719-.11718-.0586-.0586-.11327-.05468-.1172m6.64062-10.95702l-.0586-.17188v-1.10937l.0586-.17188.17578-.0586.17188-.05858h.17578l.23437-.0586.1172.0586.05858.69921-.05859.17188-.11719.17578-.11718.0586-.23438.52343-.11328.0586h-.23438l-.05859-.1172m9.61328-14.39062l-.11719-.17578v-.69922l.29297-.875.1172-.17187.17577-.35156.11328-.23047.1172-.29297.35155-.75781.1172-.23047.17187-.23438h.17578l.11719-.0586h.64062l.11719.0586.23437.23438.17188.11328.35156.29297.11719.11718.11328.17579v.11328l.11719.05859.11718.11719v.69922l-.05859.17578v.23047l-.0586.17578-.34765 1.05078-.11719.23047-.11719.23437-.11718.0586-.23047.23437-.64063.28906h-.875l-.41015-.11718-.64063-.46485"/><path fill="none" stroke="#bebebe" stroke-linecap="round" stroke-linejoin="round" stroke-miterlimit="10" stroke-width=".5" d="M467.95703 311.69531H144.02734v168.625h323.9297v-168.625"/><g clip-path="url(#a)"><path fill="#fff" fill-opacity="0" fill-rule="evenodd" d="M144 475.89063v4.4375h.0039H144v-41.67579 37.23829"/></g><g clip-path="url(#b)"><path fill="#fff" fill-opacity="0" fill-rule="evenodd" d="M144 431.50781v2.41406-122.25h.0039H144v119.83594"/></g><path fill="#50fcfc" fill-rule="evenodd" d="M144 433.92188v4.73046l.0039-.0039v-4.72266l-.0039-.0039"/><g clip-path="url(#c)"><path fill="#fff" fill-opacity="0" fill-rule="evenodd" d="M144.0039 480.32813v-41.6797l2.14063-2.70312-2.14062-2.01953v-122.2539h84.32422V420.625l-4.4375.16797-3.13282 1.83594-1.30469.10546-.27734-.10546-4.16016-1.75782-1.71875 1.75782-2.72265 1.5-4.4375-.3125-4.4375-.66407-3.19922-.52343-1.23828-.32032-1.8086.32032-2.6328.78906-4.4375.3711-4.4375-.07423-4.4375.20313-4.44141.92969-4.4375 1.61328-1.27344.60937-3.16406.64063-4.4375 2.47656-1.28907 1.32031-1.39062 4.4375-1.3086 4.4375.55079 4.4375-.51172 4.4414.21484 4.4375.29688 4.4375 2.91406 4.4375.52344.46095.99218-.46094 3.44532-1.48828 4.4375-.33203 4.4375.21484 4.4414-.1875 4.4375.40234 4.4375-1.76562 4.4375-1.02344.67578-.25781 3.76563-.88672 4.4375-.17969 4.4375.26563 4.4375-.83594 4.4414-1.21094 1.90235-1.58984 2.53516-2.8164 4.4375-1.25782.38671-.36328.66407-4.4414-1.05078-.8086-4.4375-2.53906-1.94532 3.34765-2.49219 1.48047-2.45703-1.48047 2.23828-4.4375.21875-.05078 4.4375-.64844 2.21875-3.73828 2.21875-3.2461 4.27344 3.2461.16406.125 4.4375 3.5586 4.44141-.5625.21484 1.3164 4.22266 3.3789 4.4375-3.16405.23438-.21485-.23438-.2461-4.4375-3.46483-2.73828-.72657-1.69922-2.10156-4.4414-1.95313-.96875-.3828-3.46875-3.625-.69922-.8125.69922-2.19141 4.4375-2.07813.05468-.17187-.05469-.14454-4.4375-1.85937V311.67187h146.46485v134.61329l-2.76953 2.97656 2.76953 2.4336 2.42969-2.4336-2.4297-2.97656V311.67187h93.20313v168.65625h-56.16796l-1.52735-1.3203-1.24219 1.3203h-12.9375l.35547-4.4375-2.1875-4.4375 1.95703-4.4375-.01562-4.4414.7539-4.16797.16797-.26953-.16796-.11328-2.46094-4.32422-1.97656-2.55469-4.4375 1.54297-4.4375-1.65625-1.96094 2.66797-1.45313 4.4375-1.02344 2.30469-.97656 2.1328.97656 3.82423.66407.61719 1.17969 4.4375.1914 4.4375 2.40235 4.03125.4375.40625H144.0039"/></g><path fill="#50fcfc" fill-rule="evenodd" d="M146.14453 435.94531l-2.14062 2.70313v-4.72266l2.14062 2.01953m12.17188 8.875l-.55078-4.4375 1.30859-4.4375 1.39062-4.4375 1.28907-1.32031 4.4375-2.47656 3.16406-.64063 1.27344-.60937 4.4375-1.61328v4.08984l-4.4375.86719-4.4375.40234-1.84766 1.30078-1.83594 4.4375-.7539 1.82031-.97657 2.6172-.22656 4.4375-1.28516 4.4414.33985 4.4375.9414 4.4375 1.20704 1.64062 2.375-1.64062 2.0625-1.5 4.4375-.17188 4.4375.57422 4.4414-2.8164 4.4375 1.46875 1.14453-1.9922 3.29297-3.74218 4.4375 1.90235 4.4414-.7461 2.39845-1.85156-2.39844-1.88281-4.4414-.35547-3.78516-2.20313-.65235-1.05078-2.59765-3.38672-1.83985-2.17969-.875-2.2578.875-2.01563 1.9414-2.42188-1.9414-1.21484-4.4375.08984-4.4414-1.44531v-4.08984l4.4414-.9297 4.4375-.20312 4.4375.07422 4.4375-.3711 2.63281-.78905 1.8086-.32032 1.23828.32032 3.19922.52343v15.44141l-4.4375 1.40234-.11719.38672.11719.14844 4.4375 1.40234 1.09375-1.55078-1.09375-1.78906v-15.4414l4.4375.66406v2.1953l-3.08984 1.0586-1.06641 4.4375 4.15625 1.55078 4.4375-1.0625.22266-.48828-.22266-.32812-1.63281-4.10938-2.8047-1.0586v-2.1953l4.4375.3125 2.72267-1.5 1.71875-1.75782 4.16015 1.75782.27734.10546 1.3047-.10546 3.1328-1.83594 4.4375-.16797 4.4375 1.85938.0547.14453-.0547.17187-4.4375 2.07813-.69921 2.1914.69922.8125 3.46875 3.625.96875.38281v2.08204l-2.16797 1.97265 2.16797 1.79297 2.47265-1.79297-2.47266-1.97265v-2.08204l4.44141 1.95313 1.69922 2.10156 2.73828.72656v1.82422L239.5 440.38281l2.14453 1.71485 2.28906-1.71485-2.28906-1.88672v-1.82421l4.4375 3.46484.23438.2461-.23438.21484-4.4375 3.16406-4.22266-3.3789-.21484-1.31641-4.4414.5625-4.4375-3.5586-.16407-.125-4.27344-3.2461-2.21875 3.2461-2.21875 3.73828-4.4375.64844-.21875.05078-2.23828 4.4375 2.45703 1.48047 2.4922-1.48047 1.9453-3.34765 4.4375 2.53906 1.05079.8086-.66407 4.4414-.38672.36328-4.4375 1.25781-2.53515 2.8164-1.90234 1.58985-4.44141 1.21094-4.4375.83594-4.4375-.26563-4.4375.17969-3.76563.88672-.67578.25781-4.4375 1.02344-4.4375 1.76562-4.4375-.40234-4.4414.1875-4.4375-.21484-4.4375.33203-3.44532 1.48828-.99218.46094-.52344-.46094-2.91406-4.4375-.29688-4.4375-.21484-4.4375.51172-4.4414"/><path fill="#00e8fc" fill-rule="evenodd" d="M159.60547 453.69922l-.33984-4.4375 1.28515-4.4414.22656-4.4375.97657-2.6172.7539-1.8203 1.83594-4.4375 1.84766-1.30079 4.4375-.40234v8.55078l-4.4375.17578-1.03125 1.85156 1.03125 2.32422v3.6211l-4.4375 2.8125-.04688.12109.04688.40625 4.4375 1.76953 4.4375-.97656.96093-1.19922-.96093-.97266-4.4375-1.96094v-3.62109l4.4375-1.70312.5625-.6211-.5625-2.02734v-8.55078l4.4375-.86719 4.4414 1.44531v17.46094l-.84765 1.41797.84765 3.35547 1.5-3.35547-1.5-1.41797v-17.46094l4.4375-.08984 1.9414 1.21484-1.9414 2.42188-.875 2.01562.875 2.25781 1.83985 2.1797 2.59765 3.38671.65235 1.05078 3.78515 2.20313 4.4414.35547 2.39845 1.8828-2.39844 1.85157-4.4414.7461-4.4375-1.90235-3.29298 3.74219-1.14453 1.99219-4.4375-1.46875-4.4414 2.8164-4.4375-.57422-4.4375.17188-2.0625 1.5-2.375 1.64062-1.20703-1.64062-.94141-4.4375"/><path fill="#00d4fc" fill-rule="evenodd" d="M161.7539 449.66797l-.04687-.40625.04688-.1211 4.4375-2.8125 4.4375 1.96094.96093.97266-.96093 1.19922-4.4375.97656-4.4375-1.76953m4.4375-6.96094l-1.03125-2.32422 1.03125-1.85156 4.4375-.17578.5625 2.02734-.5625.6211-4.4375 1.70312"/><path fill="#50fcfc" fill-rule="evenodd" d="M179.50781 447.84375l-.84765 1.41797.84765 3.35547 1.5-3.35547-1.5-1.41797"/><path fill="#00e8fc" fill-rule="evenodd" d="M197.26172 440.53125l-.11719-.14844.11719-.38672 4.4375-1.40234 1.09375 1.78906-1.09375 1.55078-4.4375-1.40234m8.875-7.47266l-4.15625-1.55078 1.0664-4.4375 3.08985-1.0586 2.80469 1.0586 1.6328 4.10938.22267.32812-.22266.48828-4.4375 1.0625m26.6289 4.6797l-2.16796-1.79298 2.16797-1.97265 2.47265 1.97265-2.47266 1.79297m8.87891 4.35938L239.5 440.3828l2.14453-1.88672 2.28906 1.88672-2.28906 1.71485"/><path fill="#50fcfc" fill-rule="evenodd" d="M374.79297 451.69531l-2.76953-2.4336 2.76953-2.97655 2.42969 2.97656-2.4297 2.4336"/><g clip-path="url(#d)"><path fill="#50fcfc" fill-rule="evenodd" d="M379.23438 466.39844l-.97657-3.82422.97656-2.13281 1.02344-2.3047 1.45313-4.4375 1.96094-2.66796v9.35156l-1.375 2.1914 1.375 1.35548 3.6328 3.08594.8047 1.39843 4.26562-1.39844-4.26563-3.375-.60937-1.0664-3.82813-2.1914v-9.35157l4.4375 1.65625 4.4375-1.54297v5.52735l-3.59765 1.46484 3.59765 2.71484 1.125-2.71484-1.125-1.46485v-5.52734l1.97657 2.55469 2.46094 4.32422.16796.11328-.16796.26953-.75391 4.16797.01562 4.4414-1.95703 4.4375 2.1875 4.4375-.35547 4.4375h-12.01171l-.4375-.40625-2.40235-4.03125-.1914-4.4375-1.1797-4.4375-.66406-.61718"/></g><path fill="#00e8fc" fill-rule="evenodd" d="M383.67188 463.92969l-1.375-1.35547 1.375-2.1914 3.82812 2.1914.60938 1.0664 4.26562 3.375-4.26563 1.39844-.80468-1.39844-3.63281-3.08593m8.875-3.07813l-3.59766-2.71484 3.59765-1.46485 1.125 1.46485-1.125 2.71484"/><g clip-path="url(#e)"><path fill="#50fcfc" fill-rule="evenodd" d="M409.0586 480.32813l1.24218-1.32032 1.52735 1.32031h-2.76954"/></g><g clip-path="url(#f)"><path fill="#fff" fill-opacity="0" fill-rule="evenodd" d="M467.9961 480.32813H468V311.67188h-.0039H468v168.65625h-.0039"/></g><path fill="#fff" fill-opacity="0" fill-rule="evenodd" d="M238.07422 448.73828l5.83984.16016.27344-9.95703-5.83594-.16016-.27734 9.95703"/><path fill-rule="evenodd" d="M241.79688 440.70703l.5078.01563-.17187 6.29296-.78515-.02343.12109-4.48828-1.38672-.03516.01563-.5586.5625-.04687.2539-.04687.23047-.08594.20703-.13281.17969-.20704.14844-.28906.11719-.39453"/><g clip-path="url(#g)"><path fill="none" stroke="#000" stroke-linecap="round" stroke-linejoin="round" stroke-miterlimit="10" stroke-width=".5" d="M147.50781 480.55078l-7.01562-.4414"/></g><g clip-path="url(#h)"><path fill="none" stroke="#000" stroke-linecap="round" stroke-linejoin="round" stroke-miterlimit="10" stroke-width=".5" d="M147.50781 480.55078l1.01172 2.23438"/></g><g clip-path="url(#i)"><path fill="none" stroke="#000" stroke-linecap="round" stroke-linejoin="round" stroke-miterlimit="10" stroke-width=".5" d="M146.48438 480.48438l.5078 1.11718"/></g><g clip-path="url(#j)"><path fill="none" stroke="#000" stroke-linecap="round" stroke-linejoin="round" stroke-miterlimit="10" stroke-width=".5" d="M160.82813 480.4375l-7.02344-.21875"/></g><g clip-path="url(#k)"><path fill="none" stroke="#000" stroke-linecap="round" stroke-linejoin="round" stroke-miterlimit="10" stroke-width=".5" d="M160.82813 480.4375l1.08203 2.19922"/></g><g clip-path="url(#l)"><path fill="none" stroke="#000" stroke-linecap="round" stroke-linejoin="round" stroke-miterlimit="10" stroke-width=".5" d="M174.14453 480.33984l-7.02734-.02343"/></g><g clip-path="url(#m)"><path fill="none" stroke="#000" stroke-linecap="round" stroke-linejoin="round" stroke-miterlimit="10" stroke-width=".5" d="M174.14453 480.33984l1.14453 2.17188"/></g><g clip-path="url(#n)"><path fill="none" stroke="#000" stroke-linecap="round" stroke-linejoin="round" stroke-miterlimit="10" stroke-width=".5" d="M187.4375 479.94922l-6.98438.76172"/></g><g clip-path="url(#o)"><path fill="none" stroke="#000" stroke-linecap="round" stroke-linejoin="round" stroke-miterlimit="10" stroke-width=".5" d="M187.4375 479.94922l1.3789 2.02734"/></g><g clip-path="url(#p)"><path fill="none" stroke="#000" stroke-linecap="round" stroke-linejoin="round" stroke-miterlimit="10" stroke-width=".5" d="M200.67188 479.48047l-6.82032 1.69531"/></g><g clip-path="url(#q)"><path fill="none" stroke="#000" stroke-linecap="round" stroke-linejoin="round" stroke-miterlimit="10" stroke-width=".5" d="M200.67188 479.48047l1.63671 1.82422"/></g><g clip-path="url(#r)"><path fill="none" stroke="#000" stroke-linecap="round" stroke-linejoin="round" stroke-miterlimit="10" stroke-width=".5" d="M213.91797 479.24219l-6.6836 2.17187"/></g><g clip-path="url(#s)"><path fill="none" stroke="#000" stroke-linecap="round" stroke-linejoin="round" stroke-miterlimit="10" stroke-width=".5" d="M213.91797 479.24219l1.76562 1.70703"/></g><g clip-path="url(#t)"><path fill="none" stroke="#000" stroke-linecap="round" stroke-linejoin="round" stroke-miterlimit="10" stroke-width=".5" d="M227.28906 479.42969l-6.79687 1.79687"/></g><g clip-path="url(#u)"><path fill="none" stroke="#000" stroke-linecap="round" stroke-linejoin="round" stroke-miterlimit="10" stroke-width=".5" d="M227.28906 479.42969l1.66406 1.80078"/></g><g clip-path="url(#v)"><path fill="none" stroke="#000" stroke-linecap="round" stroke-linejoin="round" stroke-miterlimit="10" stroke-width=".5" d="M240.61328 479.46875l-6.8125 1.71875"/></g><g clip-path="url(#w)"><path fill="none" stroke="#000" stroke-linecap="round" stroke-linejoin="round" stroke-miterlimit="10" stroke-width=".5" d="M240.61328 479.46875l1.64453 1.8164"/></g><g clip-path="url(#x)"><path fill="none" stroke="#000" stroke-linecap="round" stroke-linejoin="round" stroke-miterlimit="10" stroke-width=".5" d="M253.92578 479.45703l-6.8086 1.7461"/></g><g clip-path="url(#y)"><path fill="none" stroke="#000" stroke-linecap="round" stroke-linejoin="round" stroke-miterlimit="10" stroke-width=".5" d="M253.92578 479.45703l1.65234 1.8125"/></g><g clip-path="url(#z)"><path fill="none" stroke="#000" stroke-linecap="round" stroke-linejoin="round" stroke-miterlimit="10" stroke-width=".5" d="M267.21875 479.38281l-6.76563 1.89063"/></g><g clip-path="url(#A)"><path fill="none" stroke="#000" stroke-linecap="round" stroke-linejoin="round" stroke-miterlimit="10" stroke-width=".5" d="M267.21875 479.38281l1.6914 1.77735"/></g><g clip-path="url(#B)"><path fill="none" stroke="#000" stroke-linecap="round" stroke-linejoin="round" stroke-miterlimit="10" stroke-width=".5" d="M280.39453 478.98438l-6.48828 2.6914"/></g><g clip-path="url(#C)"><path fill="none" stroke="#000" stroke-linecap="round" stroke-linejoin="round" stroke-miterlimit="10" stroke-width=".5" d="M279.45313 479.375l.9453.77734"/></g><g clip-path="url(#D)"><path fill="none" stroke="#000" stroke-linecap="round" stroke-linejoin="round" stroke-miterlimit="10" stroke-width=".5" d="M293.40625 478.40625l-5.8789 3.84766"/></g><path fill="none" stroke="#000" stroke-linecap="round" stroke-linejoin="round" stroke-miterlimit="10" stroke-width=".5" d="M292.55078 478.96484l1.07422.58985"/><g clip-path="url(#E)"><path fill="none" stroke="#000" stroke-linecap="round" stroke-linejoin="round" stroke-miterlimit="10" stroke-width=".5" d="M306.78906 478.51172l-6.01562 3.63281"/></g><path fill="none" stroke="#000" stroke-linecap="round" stroke-linejoin="round" stroke-miterlimit="10" stroke-width=".5" d="M305.91406 479.03906l1.05078.63281"/><g clip-path="url(#F)"><path fill="none" stroke="#000" stroke-linecap="round" stroke-linejoin="round" stroke-miterlimit="10" stroke-width=".5" d="M320.02734 478.39063l-5.86328 3.875"/></g><path fill="none" stroke="#000" stroke-linecap="round" stroke-linejoin="round" stroke-miterlimit="10" stroke-width=".5" d="M319.17578 478.95703l1.07813.58594"/><g clip-path="url(#G)"><path fill="none" stroke="#000" stroke-linecap="round" stroke-linejoin="round" stroke-miterlimit="10" stroke-width=".5" d="M333.67578 479.03516l-6.53125 2.58593"/></g><g clip-path="url(#H)"><path fill="none" stroke="#000" stroke-linecap="round" stroke-linejoin="round" stroke-miterlimit="10" stroke-width=".5" d="M342.65234 476.98438l2.14844 6.6914"/></g><g clip-path="url(#I)"><path fill="none" stroke="#000" stroke-linecap="round" stroke-linejoin="round" stroke-miterlimit="10" stroke-width=".5" d="M354.17578 478.29297l5.73047 4.07031"/></g><g clip-path="url(#J)"><path fill="none" stroke="#000" stroke-linecap="round" stroke-linejoin="round" stroke-miterlimit="10" stroke-width=".5" d="M367.01953 479.22656l6.67188 2.20313"/></g><g clip-path="url(#K)"><path fill="none" stroke="#000" stroke-linecap="round" stroke-linejoin="round" stroke-miterlimit="10" stroke-width=".5" d="M380.34766 479.1875l6.64453 2.28516"/></g><path fill="none" stroke="#000" stroke-linecap="round" stroke-linejoin="round" stroke-miterlimit="10" stroke-width=".5" d="M381.3164 479.51953l-.1914-1.21094"/><g clip-path="url(#L)"><path fill="none" stroke="#000" stroke-linecap="round" stroke-linejoin="round" stroke-miterlimit="10" stroke-width=".5" d="M393.58594 481.21875l6.80078-1.77734"/></g><g clip-path="url(#M)"><path fill="none" stroke="#000" stroke-linecap="round" stroke-linejoin="round" stroke-miterlimit="10" stroke-width=".5" d="M393.58594 481.21875l-1.66016-1.80469"/></g><g clip-path="url(#N)"><path fill="none" stroke="#000" stroke-linecap="round" stroke-linejoin="round" stroke-miterlimit="10" stroke-width=".5" d="M406.78906 480.29297l7.02735.07031"/></g><g clip-path="url(#O)"><path fill="none" stroke="#000" stroke-linecap="round" stroke-linejoin="round" stroke-miterlimit="10" stroke-width=".5" d="M407.8086 480.30469l-.5625-1.08985"/></g><g clip-path="url(#P)"><path fill="none" stroke="#000" stroke-linecap="round" stroke-linejoin="round" stroke-miterlimit="10" stroke-width=".5" d="M423.02344 476.86719l1.1836 6.92578"/></g><g clip-path="url(#Q)"><path fill="none" stroke="#000" stroke-linecap="round" stroke-linejoin="round" stroke-miterlimit="10" stroke-width=".5" d="M433.83984 481.9961l6.1836-3.33594"/></g><g clip-path="url(#R)"><path fill="none" stroke="#000" stroke-linecap="round" stroke-linejoin="round" stroke-miterlimit="10" stroke-width=".5" d="M434.73828 481.51172l-1.01953-.67969"/></g><g clip-path="url(#S)"><path fill="none" stroke="#000" stroke-linecap="round" stroke-linejoin="round" stroke-miterlimit="10" stroke-width=".5" d="M448.09766 483.10938l4.29687-5.5625"/></g><g clip-path="url(#T)"><path fill="none" stroke="#000" stroke-linecap="round" stroke-linejoin="round" stroke-miterlimit="10" stroke-width=".5" d="M465.16797 483.45313l-3.21485-6.25"/></g><g clip-path="url(#U)"><path fill="none" stroke="#000" stroke-linecap="round" stroke-linejoin="round" stroke-miterlimit="10" stroke-width=".5" d="M147.51172 467.01563h-7.02344"/></g><path fill="none" stroke="#000" stroke-linecap="round" stroke-linejoin="round" stroke-miterlimit="10" stroke-width=".5" d="M147.51172 467.01563l1.15234 2.16406m-2.17187-2.16406l.57422 1.08203m13.7578-1.25391l-7.01952.34375m7.01953-.34375l1.25781 2.10547m-2.27734-2.0586l.625 1.0547m13.58594-1.8672l-6.77344 1.8711m6.77344-1.8711l1.6875 1.78516m-2.67188-1.51172l.84375.89063m13.3711-1.4375l-6.60157 2.41797m6.60156-2.41797l1.82422 1.64062m-2.78515-1.28906l.91406.82031m13.27344-1.38672l-6.42578 2.84766m6.42578-2.84766l1.92968 1.51563m-2.86328-1.10156l.96485.7578m13.1914-1.35937l-6.24219 3.22266m6.2422-3.22266l2.01952 1.39454m-2.92578-.92579l1.00781.69532m13.23829-1.1172l-6.28907 3.12892m6.28907-3.12891l1.99609 1.42578m11.27344-1.51172l-6.19922 3.30078m6.19922-3.30078l2.03515 1.3711m11.20703-1.50782l-6.05078 3.57422m6.05078-3.57422l2.09375 1.28125m11.10547-1.46093l-5.8203 3.93359m5.8203-3.9336l2.16797 1.14844m11.04297-1.29687l-5.61328 4.23047m5.61328-4.23047l2.22266 1.03515m10.90234-1.26562l-5.23047 4.6914m5.23047-4.6914l2.30078.83984m10.83203-1.02734l-4.86718 5.0664m4.16015-4.32812l1.17969.33203m12.73437-1.17187l-4.65234 5.26953m3.97656-4.5039l1.19141.28905m12.71875-1.12109l-4.49219 5.40234m3.83985-4.61718l1.19921.25m12.07422-1.48438l-3.10547 6.30078m2.65625-5.38672l1.22657-.03515m11.46484-1.21094l-.95703 6.96484m.8164-5.94921l1.15235-.42579m12.10937-.60937l-.5664 7.0039m.48437-5.98437l1.125-.48828m10.54297-.23047l2.89063 6.40234m8.80468-1.48046l6.12891-3.4375m-5.23828 2.93359l-1.03125-.66016m13.00781-.44922l7.02344-.21484m-6 .1836l-.60938-1.06641m14.2461-1.77735l4.33203 5.53516m-3.69922-4.73047l.4961-1.1211m10.91015 2.37891l6.88672 1.41016m8.53906 2.54688l2.66406-6.50391m-2.66406 6.5039l-2.4414.2422m19.71484-1.16016l-5.2539-4.66797m5.2539 4.66797l-.57813 2.3828"/><g clip-path="url(#V)"><path fill="none" stroke="#000" stroke-linecap="round" stroke-linejoin="round" stroke-miterlimit="10" stroke-width=".5" d="M147.51172 453.78125l-7.02344-.16797"/></g><path fill="none" stroke="#000" stroke-linecap="round" stroke-linejoin="round" stroke-miterlimit="10" stroke-width=".5" d="M147.51172 453.78125l1.10156 2.19531m12.21484-2.32812l-7.02734.09765m7.02734-.09765l1.1836 2.15234m12.10547-2.54297l-6.97266.88281m6.97266-.8828l1.41406 2.0039m11.78516-2.55078l-6.7422 1.97656m6.7422-1.97656l1.71484 1.7539m11.13281-2.74609l-5.8086 3.95703m5.8086-3.95703l2.17188 1.14453m10.9414-1.41015l-5.40625 4.48828m5.40625-4.48828l2.27344.93359m10.85547-1.14063l-5.03125 4.90625m5.03125-4.90625l2.33594.7461m-3.07031-.03516l1.17187.375m12.76953-1.19531l-4.8125 5.1211m4.8125-5.1211l2.36719.64453m-3.07031.10156l1.18359.32422m12.78125-1.11719l-4.70703 5.21875m4.70703-5.21875l2.3789.59375m-3.0664.16407l1.1914.29687m13.17188-.67578l-5.42969 4.46094m5.4297-4.46094l2.26562.94531m-3.0547-.29687l2.26563.94531m11.98829-1.39453l-5.73047 4.0625m5.73047-4.0625l2.1953 1.10156m-3.02734-.51172l1.09766.55078m13.20703-.90234l-6.04687 3.58203m6.04687-3.58203l2.09766 1.27734m-2.97656-.7539l1.04687.63672m13.17188-1.1172l-6.09375 3.5m6.09375-3.5l2.07812 1.3047m-2.96484-.79688l1.03906.65234m13.13672-1.20312l-6.04297 3.58594m6.04297-3.58594l2.09765 1.27344m11.15625-1.375l-5.91796 3.78906m5.91796-3.78906l2.13672 1.20312m10.11719-2.26562l-3.79687 5.91406m3.79687-5.91406l2.44531.20312m10.48047-.41797l-3.01953 6.34375m3.01953-6.34375L361 450.41406m10.60547 0l-2.4961 6.57031m2.4961-6.5703l2.4336-.3047m12.70312 1.87891l-6.14063 3.41797m5.2461-2.91797l1.03125.66406m6.70312-.3203l6.8086 1.73437m-5.82032-1.48047l-.28906-1.1914m12.60156 2.61718l6.83594-1.625m-5.83984 1.38672l-.8125-.91797m17.86718 3.60156l-2.63671-6.51562m17.78906 1.70703l-6.3086 3.10156m6.3086-3.10156l1.98828 1.4336m11.39453 1.51562l-6.44531-2.80079m5.50781 2.39454l.09766 1.22265m13.94922-.41406l-6.03516-3.60156m6.03516 3.60156l-.1211 2.44922"/><g clip-path="url(#W)"><path fill="none" stroke="#000" stroke-linecap="round" stroke-linejoin="round" stroke-miterlimit="10" stroke-width=".5" d="M147.41797 441.20313l-6.83594-1.64063"/></g><path fill="none" stroke="#000" stroke-linecap="round" stroke-linejoin="round" stroke-miterlimit="10" stroke-width=".5" d="M147.41797 441.20313l.61328 2.375m12.77734-2.83204l-6.98828-.72656m6.98828.72656l.92188 2.27735m12.28516-3.58203l-6.76954 1.8828m5.78516-1.60937l.84375.89063m13.38672-1.38672l-6.63281 2.32812m5.66797-1.98828l.90234.82813m13.35156-1.23438l-6.58203 2.46094m6.58203-2.46094l1.83984 1.62891m11.16407-2.26172l-5.95703 3.73047m5.95703-3.73047l2.125 1.22266m10.78906-1.7461l-5.15625 4.77735m5.15625-4.77735l2.3164.8047m-3.0664-.10938l1.15625.40234m12.66406-1.33594l-4.66406 5.2539m4.66406-5.2539l2.38281.57422m-3.0625.1875l1.19141.28906m11.84375-1.66015l-2.7461 6.46875m2.7461-6.46875l2.4414-.21485m-2.84374 1.15625l1.22265-.10547m12.5547-.80859l-2.8672 6.41797m2.8672-6.41797l2.4453-.16797m-2.86328 1.10157l1.22266-.08594m13.04687-.54688l-3.9414 5.8164m3.9414-5.8164l2.44141.26172m11.39453.16406l-4.98047 4.96094m4.98047-4.96094l2.34375.72266m-3.07031 0l1.17187.36328m12.86329-1.08984l-4.96875 4.96875m4.96875-4.96875l2.34765.71875m-3.07031.0039l1.17187.35938m12.94532-1l-5.125 4.8086m5.125-4.8086l2.3203.79297m-3.0664-.09375l1.16016.39453m13.00781-.97266l-5.34375 4.5625m5.34375-4.5625L335.3672 439m-3.0625-.23437l2.28515.89843m11.50782-1.875l-4.7422 5.1875m4.7422-5.1875l2.375.61328m-3.06641.14063l1.1875.3086m12.20313-1.51173l-3.51172 6.08594m3.51172-6.08594l2.45312.08594m9.39063-.54297l-.56641 7.0039m.5664-7.0039l2.25-.97656m-2.33203 1.9961l1.125-.48829m9.9375.11719l4.09766 5.70703m-4.09766-5.70703l1.08985-2.19922m-.49219 3.02735l.54297-1.09766m10.71875 3.3789l7.01172-.51562m-7.01172.51563l-1.30469-2.07813m14.88281.46875l6.48438 2.70313M408 439.42577l-.11328-1.22265M426.9414 439.25l-6.65235 2.26563m13.82422.96484l5.63672-4.1914m-4.8164 3.58202l-1.10938-.52734m18.86328-3.48828l-4.8789 5.0586m18.80468-.78516l-6.10156-3.48829m5.21094 2.98047l-.03516 1.22657"/><g clip-path="url(#X)"><path fill="none" stroke="#000" stroke-linecap="round" stroke-linejoin="round" stroke-miterlimit="10" stroke-width=".5" d="M147.46875 427.63672l-6.9375-1.13672"/></g><path fill="none" stroke="#000" stroke-linecap="round" stroke-linejoin="round" stroke-miterlimit="10" stroke-width=".5" d="M147.46875 427.63672l.78516 2.32422m12.57422-2.77344l-7.02344-.23828m7.02344.23828l1.07812 2.20313m12.13672-1.4961l-6.82813-1.65234m6.82813 1.65234l.60937 2.3789m12.75391-2.60937l-6.92188-1.1914m6.92188 1.1914l.76953 2.33203m12.40234-4.08203l-6.63671 2.3086m6.63672-2.3086l1.80078 1.66797m-2.76563-1.33203l.89844.83203m13.10156-1.77734l-6.07812 3.52734m6.07812-3.52734l2.08594 1.29687m-2.96875-.78125l1.04297.64453m13.29297-.89843l-6.35157 3.0039m6.35157-3.0039l1.96875 1.46875m11.66015.4375l-6.98047-.8086m6.98047.8086l.89453 2.28515m11.01172-5.51953l-4.16015 5.66016m4.16015-5.66016l2.42578.35156m10.85547-.375l-4.09765 5.70704m4.09765-5.70704l2.4336.32813m11.48828.22265l-5.3086 4.60547m5.3086-4.60547l2.28906.88282m10.26563-1.53906l-3.78907 5.91796m3.78907-5.91797l2.4453.19922m10.92579-.16406l-3.89844 5.84766m3.89844-5.84766l2.4414.24219m10.14063-.61328l-2.4336 6.58984m2.4336-6.58984l2.4336-.33203m-2.78516 1.28906l1.21484-.16406m13.47656-.20313l-4.48437 5.41016m4.48437-5.41016l2.40625.4961M332 425.15233l1.20313.2461m13.25-.54688L341 429.28516m5.45313-4.4336l2.2578.95313m-3.05077-.3086l1.1289.47657m13.13672-.90625l-5.76953 4.0039m5.76953-4.0039l2.1836 1.12109m9.71484-2.3125l-2.9336 6.38672m2.9336-6.38672l2.44922-.14063m-2.8789 1.07032l1.22655-.07032m11.66407-1.125l-1.23047 6.91797m1.23047-6.91797l2.33593-.7539m-2.51562 1.76172l1.16797-.3789m14.6914.96874l-5.95703 3.72266m5.95703-3.72266l2.125 1.22656m-2.99218-.68359l2.125 1.22656m-2.9922-.6875l1.0625.61328m13.46095-2.35156l-4.90235 5.03516m4.90235-5.03516l2.35547.6875m-3.07032.04688l2.35547.68359m-3.07031.04687l1.17969.34375m12.8789-2.32812l-3.53515 6.07422m3.53515-6.07422l2.45313.09766m-2.96485.78515l2.44922.09766m10.6289-1.30469l-2.03515 6.72656m2.03516-6.72656l2.40625-.47656m-2.70313 1.45312l2.40625-.47656m11-.5586l-1.62109 6.83985m1.6211-6.83984l2.37109-.6211m-2.60938 1.6172l1.1875-.3086m13.75-.01172l-4.39062 5.48828"/><g clip-path="url(#Y)"><path fill="none" stroke="#000" stroke-linecap="round" stroke-linejoin="round" stroke-miterlimit="10" stroke-width=".5" d="M465.75781 424.32422l2.41016.45312"/></g><path fill="none" stroke="#000" stroke-linecap="round" stroke-linejoin="round" stroke-miterlimit="10" stroke-width=".5" d="M465.11719 425.125l2.41015.45313"/><g clip-path="url(#Z)"><path fill="none" stroke="#000" stroke-linecap="round" stroke-linejoin="round" stroke-miterlimit="10" stroke-width=".5" d="M147.51172 413.85547l-7.02344-.20313"/></g><path fill="none" stroke="#000" stroke-linecap="round" stroke-linejoin="round" stroke-miterlimit="10" stroke-width=".5" d="M146.48828 413.82422l.54688 1.10156m13.74218-1.76953l-6.92578 1.19531m6.92578-1.19531l1.50391 1.9414m11.80469-1.98827l-6.91016 1.28515m6.91016-1.28515l1.52734 1.92187m-2.53516-1.73438l.76563.96094m13.5625-1.10547l-6.92188 1.20313m6.92188-1.20313l1.50781 1.9336m-2.51562-1.76172l.7539.96875m13.23438-2.14063l-6.2539 3.20313m6.2539-3.20313l2.01172 1.40235m-2.92188-.9375l1.00781.69922m13.09375-1.38282l-6.0078 3.64063m5.13671-3.11328l1.05078.6289m13.33594-.78125l-6.40625 2.89063m5.47266-2.47266l.97265.75m13.5 1.05469l-6.85156-1.55469m5.85156 1.32813l.32422 1.1836m13.98438-2.53907l-6.83985 1.60937m6.83985-1.60937l1.61718 1.84375m10.81641-3.46875l-5.07813 4.85937m4.33985-4.15234l1.16406.38281m13.45313-.3086l-6.20704 3.29688m5.3047-2.8164l1.01562.6875m13.42187-.66797l-6.64453 2.29297m6.64453-2.29297l1.79297 1.67578m10.91797-2.7539l-5.4375 4.44921m17.51953-5.40625l-2.97265 6.36719m2.97265-6.36719l2.44922-.1289m12.38672 1.49609l-6.01563 3.63281m6.01563-3.63281l2.10547 1.25781m11.13672-1.375l-5.8711 3.86328m5.8711-3.86328L348.8125 413m10.90234-1.52734l-5.34765 4.55859m5.34765-4.5586l2.28125.90235m10.79297-1.15625l-4.86328 5.07031m4.86328-5.07031l2.35938.66406m-3.07031.07422l2.36328.66406m11.7578-1.30859l-5.05468 4.8789m5.05469-4.8789l2.33203.76172m-3.0664-.05078l2.33203.75781m-3.07032-.04688l1.16797.37891m13.83985-1.55078l-5.4961 4.3789m5.4961-4.3789l2.25.98047m-3.05079-.33985l2.25391.97657m11.16016-2.28125l-4.09375 5.71093m4.09375-5.71093l2.43359.32812m-3.02734.5039l2.42968.32423m10.66016-1.59375l-2.45312 6.58593m2.45312-6.58593l2.4336-.32032m-2.78907 1.27735l2.42969-.32031m11.57422-.4922l-3.1211 6.29688m3.1211-6.29687l2.45312-.07031m-2.90625.98828l2.45313-.07032m-2.90625.98438l1.22656-.03516m13.5586-1.4453l-4.25 5.59374m4.25-5.59375l2.42187.39063m-3.03906.42187l2.42187.39063m11.73438-1.02344l-4.69532 5.23047"/><g clip-path="url(#aa)"><path fill="none" stroke="#000" stroke-linecap="round" stroke-linejoin="round" stroke-miterlimit="10" stroke-width=".5" d="M465.91016 411.13672l2.3789.58984"/></g><path fill="none" stroke="#000" stroke-linecap="round" stroke-linejoin="round" stroke-miterlimit="10" stroke-width=".5" d="M465.22656 411.89844l2.3789.58984m-3.0625.17188l1.19142.29687"/><g clip-path="url(#ab)"><path fill="none" stroke="#000" stroke-linecap="round" stroke-linejoin="round" stroke-miterlimit="10" stroke-width=".5" d="M147.44922 399.76953l-6.89844 1.33985"/></g><path fill="none" stroke="#000" stroke-linecap="round" stroke-linejoin="round" stroke-miterlimit="10" stroke-width=".5" d="M146.44531 399.96484l.77344.95313m13.48047-1.42969l-6.76563 1.89844m6.76563-1.89844l1.6914 1.77344m11.48829-2.16016l-6.5 2.67188m6.5-2.67188l1.89062 1.5664m10.76953-2.60155l-5.1875 4.74218m5.1875-4.74218l2.3125.82421m11.01563-.80859l-5.21094 4.71485m4.45313-4.03125l1.15234.41796m13-1.01171l-5.3711 4.53125m4.58985-3.8711l1.13672.45703m13.42969-.39062l-6.31641 3.07812m6.3164-3.07812l1.98829 1.4414m-2.90625-.99218l.99218.71875m13.21485-1.22266l-6.26172 3.1914m6.26172-3.1914l2.01172 1.40625m-2.92188-.9414l1.0039.70312m13.32423-.95313l-6.46485 2.75782m6.46485-2.75782l1.90625 1.53907m-2.84766-1.13672l.95313.76953m13.16406-1.45703l-6.1875 3.33203m6.1875-3.33203l2.03906 1.35937m11.55469-.67578l-6.7461 1.96094m6.7461-1.96094l1.71093 1.75781m-2.6914-1.47265l.85547.8789m13.19531-1.78515l-6.2539 3.20312m6.2539-3.20312l2.01172 1.40625m10.94531-1.96485l-5.53906 4.32422m5.53906-4.32422l2.24219.9961m-3.04688-.36719l1.1172.5m13.5039-.25l-6.54297 2.5625m6.54297-2.5625l1.86328 1.59766m-2.8164-1.22266l.93359.79688m12.90625-1.95313l-5.6875 4.125m5.6875-4.125l2.20703 1.07813m9.0039-2.44922l-1.47656 6.87109m1.26172-5.8711l1.17969-.33593m14.42578.66797l-5.6289 4.20703m4.80859-3.59766l1.10937.52344m13.08985-1.04297l-5.75782 4.02735m5.75781-4.02735l2.1875 1.11328m-3.02343-.52734l2.1836 1.11328m11.16796-2.51953l-4.15625 5.66797m4.15625-5.66797l2.42578.35156m-3.03125.47266l2.42969.35156m12.20703-.47266l-5.58984 4.25782m5.58984-4.25782l2.23047 1.02735m-3.04297-.40625l1.11328.51172m13.16797-.91407l-5.89844 3.82422m5.89844-3.82422l2.14453 1.19141m-3.0039-.63672l1.07421.59766m12.46875-1.88281l-4.63671 5.28125m4.63671-5.28125l2.39063.5625m-3.0664.20703l2.39062.5625m11.30078-1.56641l-4.03516 5.75m4.03516-5.75l2.4375.30078m-3.02344.53516l2.4336.30078m-3.02344.53515l1.21875.15235m14.08203-1.03516l-5.65625 4.17188m5.65625-4.17188l2.21094 1.0586m-3.03516-.44922l2.21484 1.0586m11.73047-1.90626l-5.26562 4.65235"/><g clip-path="url(#ac)"><path fill="none" stroke="#000" stroke-linecap="round" stroke-linejoin="round" stroke-miterlimit="10" stroke-width=".5" d="M466.19531 398.11328l2.29688.85938"/></g><path fill="none" stroke="#000" stroke-linecap="round" stroke-linejoin="round" stroke-miterlimit="10" stroke-width=".5" d="M465.42969 398.78906l2.29687.86328m-3.0625-.1875l1.14844.4336"/><g clip-path="url(#ad)"><path fill="none" stroke="#000" stroke-linecap="round" stroke-linejoin="round" stroke-miterlimit="10" stroke-width=".5" d="M146.89453 385.13281l-5.78906 3.98047"/></g><path fill="none" stroke="#000" stroke-linecap="round" stroke-linejoin="round" stroke-miterlimit="10" stroke-width=".5" d="M146.05469 385.71094l1.08594.5664m13.66015.40625l-6.97266.87891m6.97266-.8789l1.41406 2.0039m11.8047-2.49219l-6.77735 1.85547m6.77734-1.85547l1.6836 1.78516m10.375-3.64844l-4.26563 5.58203m4.26563-5.58203l2.42187.39844m-3.04297.41406l1.21094.19922m11.16797-1.6875l-1.14844 6.9336m1.14844-6.9336l2.32422-.78125m-2.4922 1.78906l1.16017-.39062m15.125 1.88281l-6.75391 1.9336m6.7539-1.9336l1.70313 1.76563m-2.6875-1.48438l.85156.88281m13.51172-.89844l-6.88281 1.40235m6.88281-1.40235l1.5625 1.89454m11.27344-3.07813l-5.92578 3.76953m5.92578-3.76953l2.13672 1.20703m11.28906-1.02344l-6.14844 3.40235m6.14844-3.40235l2.0586 1.33985m-2.95313-.84375l1.03125.66797m13.15234-1.20703l-6.09765 3.49218m6.09765-3.49218l2.07813 1.30468m11.4375-.89843l-6.4961 2.67578m6.4961-2.67578l1.89062 1.5664m11.30078-1.83594l-6.25 3.21485m6.25-3.21485l2.01563 1.40235m10.82422-2.10547l-5.29688 4.6211m5.29688-4.6211l2.29297.8789m11.4375-.28515l-6.12891 3.4375m6.1289-3.4375l2.06641 1.32422m10.5664-2.1875l-4.76562 5.16015m4.76563-5.16015l2.375.6211m11.32812-.20313l-5.53906 4.32422m5.53906-4.32422l2.2422 1m-3.04688-.3711l1.12109.5m13.45703-.35546l-6.45703 2.77734m6.45703-2.77735l1.91406 1.53907m-2.85546-1.13281l.95703.76562m13.15625-1.46484l-6.16797 3.36328m6.16797-3.36328l2.04687 1.35156m-2.94531-.86328l1.02344.67578m13.09375-1.32813l-5.98047 3.69141m5.98047-3.6914l2.12109 1.23827m-2.98828-.69921l2.11719 1.23828m12.0078-1.86719l-5.86327 3.8711m5.86328-3.8711l2.15625 1.17578m-3.00781-.60937l1.07812.58593m12.84375-1.47656l-5.375 4.52344m5.375-4.52344l2.27735.91406m-3.0586-.2578l1.14063.45702m13.03906-1.01562l-5.53906 4.32422m5.53906-4.32422l2.24219 1m-3.04688-.3711l1.11719.5m12.6211-1.54296l-4.77735 5.15234m4.77734-5.15235l2.3711.62891m-3.06641.1211l2.3711.6289m12.23046-.66406l-5.96093 3.72265m5.96093-3.72265l2.125 1.23047m-2.99218-.6875l1.0625.61328m12.59765-1.80469l-4.91406 5.01953"/><g clip-path="url(#ae)"><path fill="none" stroke="#000" stroke-linecap="round" stroke-linejoin="round" stroke-miterlimit="10" stroke-width=".5" d="M466.01953 384.61328l2.35547.6914"/></g><path fill="none" stroke="#000" stroke-linecap="round" stroke-linejoin="round" stroke-miterlimit="10" stroke-width=".5" d="M465.30469 385.34375l2.35156.6914"/><g clip-path="url(#af)"><path fill="none" stroke="#000" stroke-linecap="round" stroke-linejoin="round" stroke-miterlimit="10" stroke-width=".5" d="M147.11328 372.17578l-6.22656 3.26563"/></g><path fill="none" stroke="#000" stroke-linecap="round" stroke-linejoin="round" stroke-miterlimit="10" stroke-width=".5" d="M146.20703 372.65234l1.01172.69141m13.60547.33203l-7.01953.26172m7.01953-.26172l1.23437 2.125m11.52344-3.89453l-5.90625 3.80469m5.90625-3.80469l2.14453 1.19531m10.95703-1.49219l-5.47656 4.39844m5.47656-4.39844l2.25391.96485m11.26563-.6875l-5.88282 3.84375m5.88281-3.84375l2.14844 1.1836m-3.00781-.625l1.07813.59374m12.55468-1.79687l-4.80469 5.1289m4.8047-5.1289l2.37109.64062m-3.07032.10547l1.1836.32031m13.5625-.08984l-6.26563 3.17969m6.26563-3.17969l2.00781 1.41406m-2.91797-.94922l1.0039.70313m13.40235-.75l-6.625 2.34375m6.625-2.34375l1.8086 1.66015m-2.77344-1.3203l.90234.83202m12.82813-2.16796l-5.53125 4.33593m5.53125-4.33594l2.24218.9922m-3.04687-.36329l1.1211.5m12.99609-1.13281l-5.52344 4.34375m5.52344-4.34375l2.24609.99219m-3.05078-.35938l1.125.4961m13.3789-.51954l-6.29296 3.125m6.29297-3.125l1.99609 1.42579m-2.91016-.97266l.9961.71484m13.51171-.39844l-6.84765 1.58204m6.84765-1.58204L295.5 374.8672m11.64062-2.09375l-6.71875 2.0664m6.71875-2.0664l1.73829 1.73437m-2.71875-1.4336l.87109.8672m13.25-1.6172l-6.3711 2.96876m6.3711-2.96875l1.95703 1.47656m10.6875-2.44531l-5.03125 4.90625m5.03125-4.90625l2.33594.7461m11.83594.71484l-6.7422 1.98437m6.7422-1.98437l1.71484 1.7539m11.65625-1.54297l-6.85547 1.5586m6.85547-1.5586l1.60156 1.85938m-2.60156-1.63281l1.60547 1.85937m12.70312-2.10156l-6.84375 1.59375m6.84375-1.59375l1.61328 1.84765m-2.60937-1.61718l.8086.92578m13.40234-1.51172l-6.64063 2.30469m6.64063-2.30469l1.79687 1.66797m-2.76562-1.33203l.90234.83594m13.54297-.4922l-6.96484.94532m6.96484-.94531l1.42969 1.99219m-2.44532-1.85547l.71875.99609m13.4961-1.67188l-6.73047 2.02344m6.73047-2.02344l1.72656 1.7422m11.64063-1.54298l-6.83594 1.625m6.83594-1.625l1.62109 1.83985m-2.61719-1.60547l.8125.92187m13.22266-1.91406l-6.28516 3.14063m6.28516-3.14063l2 1.42188m11.0664-1.84375l-5.78906 3.98437m5.78906-3.98437l2.17579 1.1328m11.0703-1.23046l-5.65234 4.17969"/><g clip-path="url(#ag)"><path fill="none" stroke="#000" stroke-linecap="round" stroke-linejoin="round" stroke-miterlimit="10" stroke-width=".5" d="M466.38672 371.71875l2.21484 1.0586"/></g><path fill="none" stroke="#000" stroke-linecap="round" stroke-linejoin="round" stroke-miterlimit="10" stroke-width=".5" d="M465.5664 372.32813l1.10548.52734"/><g clip-path="url(#ah)"><path fill="none" stroke="#000" stroke-linecap="round" stroke-linejoin="round" stroke-miterlimit="10" stroke-width=".5" d="M147.50781 360.3164l-7.01562.35157"/></g><path fill="none" stroke="#000" stroke-linecap="round" stroke-linejoin="round" stroke-miterlimit="10" stroke-width=".5" d="M147.50781 360.3164l1.26172 2.10938m12.03516-2.35156l-6.97656.83594m6.97656-.83594l1.40234 2.01562m11.84766-2.375l-6.85156 1.5586m6.85156-1.5586l1.60547 1.85547m11.79297-.91406l-7.01563-.32813m7.01563.32813l1.05078 2.21875m12.17187-3.20313l-6.83203 1.64454m6.83203-1.64454l1.6289 1.83594m10.35157-3.84765l-4.16016 5.66406m4.16016-5.66406l2.42578.35546m-3.03125.46875l1.21094.17579m13.42969-.28907l-5.60157 4.2422m5.60157-4.2422l2.22656 1.03516m-3.04297-.41797l1.11328.51953m12.97266-1.19531l-5.51172 4.35938m5.51172-4.35938l2.2461.98438m-3.04688-.34766l1.12109.49219m12.95703-1.17579l-5.4336 4.45704m5.4336-4.45704l2.26172.94141m11.11719-.86328l-5.5625 4.29688m5.5625-4.29688l2.23437 1.01172m11.34766-.60938l-6.09766 3.4922m6.09766-3.4922l2.07812 1.3086m11.60157-.39453l-6.82422 1.66796m6.82422-1.66796l1.6328 1.82812m11.78126-1.10937l-7.02344.22656m7.02344-.22656l1.21875 2.1289m12.08203-2.36719l-6.99219.70313m6.99219-.70313l1.35937 2.04297m11.79688-2.78125l-6.67969 2.1836m6.67969-2.1836l1.76953 1.70313m-2.74219-1.38672l.88672.85156m13.5625.21094l-7.0039-.57422m7.0039.57422l.97266 2.2539m12.35547-2.51562l-7.02735-.05078m7.02735.05078l1.13672 2.17578m-2.16016-2.1836l.57031 1.08595m13.72656-1.65625l-6.9414 1.10156m6.9414-1.10156l1.47657 1.96093m-2.48828-1.80078l1.47656 1.96094m12.6836-2.76563l-6.60938 2.39063m6.60937-2.39063l1.82031 1.64844m-2.78125-1.30078l1.81641 1.64844m12.40234-2.14063l-6.49609 2.6836m6.4961-2.6836l1.89062 1.5625m-2.83594-1.17187l1.89063 1.5625m12.5-1.57422l-6.75782 1.92188m6.75782-1.92188l1.70312 1.76953m-2.6836-1.48828l.84766.88281m13.46485-1.10547l-6.78906 1.8086m6.78906-1.8086l1.67187 1.79688m11.47657-2.28516l-6.45704 2.78125m6.45704-2.78125l1.91406 1.53516m11.45312-1.39844l-6.5625 2.51172m6.5625-2.51172l1.85157 1.61328m-2.8047-1.25l.92579.8086m13.08984-1.69922l-6.05468 3.5664"/><g clip-path="url(#ai)"><path fill="none" stroke="#000" stroke-linecap="round" stroke-linejoin="round" stroke-miterlimit="10" stroke-width=".5" d="M466.58984 358.71094l2.08985 1.28125"/></g><path fill="none" stroke="#000" stroke-linecap="round" stroke-linejoin="round" stroke-miterlimit="10" stroke-width=".5" d="M465.70703 359.22656l1.04688.64063"/><g clip-path="url(#aj)"><path fill="none" stroke="#000" stroke-linecap="round" stroke-linejoin="round" stroke-miterlimit="10" stroke-width=".5" d="M147.49219 346.79688l-6.98438.76171"/></g><path fill="none" stroke="#000" stroke-linecap="round" stroke-linejoin="round" stroke-miterlimit="10" stroke-width=".5" d="M147.49219 346.79688l1.3789 2.03125m11.86328-2.45704l-6.83984 1.61329m6.83984-1.61329l1.6172 1.84375m11.67577-1.9414l-6.79297 1.8086m6.79297-1.8086l1.66797 1.79687m-2.65625-1.53125l.83203.89844m13.51953-.94531l-6.89062 1.3711m6.89063-1.3711l1.55468 1.89844m11-3.48047l-5.3711 4.53515m5.3711-4.53515l2.27735.91406m9.93359-1.78516l-3.16406 6.27735m3.16406-6.27735l2.45313-.05078m10.58593-.07422l-2.60937 6.52735m2.60937-6.52735l2.4375-.26172m12.53516 1.63672l-5.92578 3.77735m5.0625-3.22657l1.07031.60157m12.99219-1.32422l-5.6914 4.1211m5.6914-4.1211l2.20312 1.07812m11.4961-.39453l-6.46485 2.7539m5.52735-2.35156l.95312.76954m13.30469-1.16797l-6.47266 2.7461m6.47266-2.7461l1.90625 1.54687m11.54687-1.15625l-6.74609 1.96485m6.7461-1.96485l1.71093 1.75781m11.67188-1.48828l-6.88282 1.4297m6.88282-1.4297l1.5664 1.88672m11.77735-.625l-6.94141-1.09765m6.9414 1.09765l.80079 2.32031m12.5039-3.48046l-6.92187 1.22265m6.92187-1.22265l1.51172 1.93359m-2.51953-1.7539l1.51172 1.93359m12.66797-2.65625l-6.63672 2.3086m6.63672-2.3086l1.80078 1.66797m-2.76562-1.33204l.90234.83204m13.5586.30859l-6.9961-.64453m6.9961.64453l.94921 2.26172m-1.96484-2.35547l.47265 1.13281m13.85938-1.03515l-6.9961-.64844m6.9961.64844l.94531 2.26171m-1.96484-2.35937l.94922 2.26563m-1.96485-2.35938l.47266 1.13281m14.8125-2.00781l-6.86719 1.48438m6.86719-1.48438l1.58203 1.8711m-2.58203-1.65626l1.58594 1.875m-2.58594-1.66015l.79297.9375m14.30469-2.03906l-6.4336 2.82812m6.4336-2.82813l1.92578 1.51954m-2.86328-1.10938l1.92578 1.51953m-2.85938-1.10937l.96094.76172m14.0664-1.89844l-6.11718 3.45703m6.11719-3.45703l2.0703 1.32031m-2.96093-.8164l2.07031 1.3203m-2.96093-.8164l1.03515.65625m14.0039-1.76172l-6 3.65235m6-3.65235l2.10938 1.25m-2.98047-.71875l2.10938 1.25M440 345.46484l-6.13672 3.42579M440 345.46483l2.0625 1.32813m-2.95703-.83203l1.03125.66797m13.51172-.32422l-6.80469 1.7461m6.80469-1.7461l1.65625 1.8125m-2.64453-1.5586l.82812.90625m13.34375-1.5703l-6.53906 2.5703"/><g clip-path="url(#ak)"><path fill="none" stroke="#000" stroke-linecap="round" stroke-linejoin="round" stroke-miterlimit="10" stroke-width=".5" d="M466.83203 345.89453l1.86328 1.59375"/></g><path fill="none" stroke="#000" stroke-linecap="round" stroke-linejoin="round" stroke-miterlimit="10" stroke-width=".5" d="M465.8789 346.26563l1.8672 1.59765"/><g clip-path="url(#al)"><path fill="none" stroke="#000" stroke-linecap="round" stroke-linejoin="round" stroke-miterlimit="10" stroke-width=".5" d="M147.07031 332.15625l-6.14062 3.41406"/></g><path fill="none" stroke="#000" stroke-linecap="round" stroke-linejoin="round" stroke-miterlimit="10" stroke-width=".5" d="M147.07031 332.15625l2.0586 1.33203m11.46875-.8789l-6.56641 2.5078m5.60938-2.14452l.92578.80859m13.375-1.09375l-6.6211 2.35156m5.65625-2.00781l.90625.82813m13.20313-1.57422l-6.28125 3.15625m6.28125-3.15625l2 1.41796m9.71094-3l-3.07032 6.32032m3.07031-6.32031l2.44922-.08985m12.69532 2.23828l-6.73047 2.02344m6.73047-2.02344l1.72656 1.74219m11.67969-1.35156l-6.91407 1.24219m6.91407-1.2422l1.51562 1.9297m11.83984-1.64454l-6.99609.67188m6.9961-.67188l1.35546 2.04297m11.97657-1.75781l-7.02735.10156m7.02735-.10156l1.18359 2.14844m12.125-2.27344l-7.01563.35156m7.01563-.35156l1.26172 2.10547m-2.28125-2.05469l.6289 1.05078m13.69141-1.28515l-6.98828.71875m6.98828-.71875l1.36719 2.03906m11.96875-1.66406l-7.02734-.03125m7.02734.03125l1.14062 2.17187m12.06641-3.04297l-6.8125 1.71094m6.8125-1.71094l1.64453 1.82031m11.75781-1.3164l-6.98828.70312m6.98828-.70312l1.3672 2.03906m11.89452-.97265l-6.8789-1.4297m6.8789 1.4297l.6875 2.35546m-1.6875-2.5625l.34375 1.17579m14.04297-1.57813l-7.02344-.21094m7.02344.21094l1.08594 2.19922m-2.10938-2.23047l.54297 1.10156m13.76172-.6875l-6.95703-.97656m6.95703.97656l.84375 2.30469m12.3789-1.85547l-6.77343-1.875m6.77344 1.875l.53515 2.39453m-1.51953-2.66797l.26563 1.19532m14.1211-2.37891l-6.94923 1.03906m6.94922-1.03906l1.46094 1.96875m-2.46875-1.82031l.72656.98828m13.63281-.47266l-7.01953-.28906m7.01953.28906l1.0625 2.21485m12.25782-2.38282l-7.02735.04688m7.02735-.04688l1.16406 2.15625m-2.1875-2.14843l.58203 1.07812m13.20313-2.95703l-5.92188 3.78906m5.92188-3.78906l2.13671 1.20703m-3-.65625l1.07032.60156m13.36718-.66015l-6.4414 2.80469m6.4414-2.8047l1.92188 1.52735m-2.85938-1.1211l1.92188 1.52735m12.48828-1.5l-6.75781 1.9375m6.75781-1.9375l1.70313 1.76563m-2.6875-1.48438l1.70312 1.76563m-2.6836-1.48438l.85157.88281m14.41406-1.48437l-6.73047 2.01562"/><g clip-path="url(#am)"><path fill="none" stroke="#000" stroke-linecap="round" stroke-linejoin="round" stroke-miterlimit="10" stroke-width=".5" d="M466.92578 332.85547l1.72656 1.7461"/></g><path fill="none" stroke="#000" stroke-linecap="round" stroke-linejoin="round" stroke-miterlimit="10" stroke-width=".5" d="M465.94922 333.14844l1.72265 1.7461m-2.70312-1.45313l.86328.87109"/><g clip-path="url(#an)"><path fill="none" stroke="#000" stroke-linecap="round" stroke-linejoin="round" stroke-miterlimit="10" stroke-width=".5" d="M142.89844 317.21094l2.20312 6.67187"/></g><g clip-path="url(#ao)"><path fill="none" stroke="#000" stroke-linecap="round" stroke-linejoin="round" stroke-miterlimit="10" stroke-width=".5" d="M142.89844 317.21094l1.69531-1.77344"/></g><path fill="none" stroke="#000" stroke-linecap="round" stroke-linejoin="round" stroke-miterlimit="10" stroke-width=".5" d="M156.1836 317.22266l2.26562 6.65234m-1.9375-5.6836l.83984-.89452m11.48047.23046l3.59375 6.03907m-3.07031-5.16016l.63672-1.04688m12.48047 0l2.9453 6.37891m-2.51562-5.45312l.7422-.97657m12.76171-.16796l1.70703 6.8164m-1.45703-5.82422l.91016-.82422m15.95312 5.15625l-5.88672-3.83593m5.88672 3.83593l-.21484 2.44532m14.00781-3.56641l-6.84375-1.59375m6.84375 1.59375l.6289 2.375m12.76563-3.4414l-7.0039.54296m7.0039-.54297l1.3164 2.07032m11.9922-2.14844l-6.9922.69922m6.9922-.69922l1.36328 2.04297m11.77343-2.85547l-6.6328 2.32422m6.6328-2.32422l1.80078 1.66406m11.46875-1.78515l-6.54296 2.5625m6.54297-2.5625l1.86328 1.59765m11.66015-.8086l-6.95703.98829m6.95703-.98828l1.44532 1.98047m11.89062-1.1875l-7-.60157m7 .60157l.96484 2.2578m12.3086-3.16796l-6.91797 1.21875m6.91797-1.21875l1.51172 1.9336m11.70703-2.33985l-6.72656 2.03125m6.72656-2.03125l1.73047 1.74219m11.6953-1.25781l-6.9453 1.0625m6.9453-1.0625l1.46485 1.96875m11.875-1.78516l-6.9961.69531m5.97657-.59375l.67969 1.01953m13.625-1.33594l-6.9375 1.12891m5.92969-.96484l.74218.97656m13.21094-2.23828l-6.19531 3.32031m6.19531-3.32031l2.03906 1.36719m-2.9414-.88282l1.01953.6836m12.8711-1.66406l-5.54298 4.3125m5.54297-4.3125L402 319.39452m11.04688-1.04297l-5.48829 4.39063m4.6875-3.75l1.12891.48437m11.70313 4.26563l-2.92579-6.39063m14.33594-.28906l.88672 6.97266m-.75781-5.95704l1-.71093m14.83203.44531l-4.40625 5.47266m4.40625-5.47266l2.41016.46094m-3.05079.33594l1.20704.23046m13.14062-.66015l-5.1914 4.73437"/><g clip-path="url(#ap)"><path fill="none" stroke="#000" stroke-linecap="round" stroke-linejoin="round" stroke-miterlimit="10" stroke-width=".5" d="M466.15625 318.17969l2.3125.82422"/></g><path fill="none" stroke="#000" stroke-linecap="round" stroke-linejoin="round" stroke-miterlimit="10" stroke-width=".5" d="M465.40234 318.8711l2.3125.82421m-3.0664-.13672l1.15234.41407"/><path fill="#00f" fill-rule="evenodd" d="M383.80078 436.57813h8.61719v-10.14454h-8.61719v10.14454"/><path fill="azure" fill-rule="evenodd" d="M385.63281 428.26563h.83203v2.82421h3.28907v-2.82421h.83203v6.48046h-.83203v-2.91406h-3.28907v2.91406h-.83203v-6.48046"/><path fill="#ff3030" fill-rule="evenodd" d="M375.61719 418.82813h7.69531v-10.14844h-7.69531v10.14844"/><path fill="azure" fill-rule="evenodd" d="M377.44922 410.51172h.83594v5.74219h3.1914v.73828h-4.02734v-6.48047"/><path fill="#ff3030" fill-rule="evenodd" d="M295.72656 409.94922h7.69531v-10.14453h-7.6953v10.14453"/><path fill="azure" fill-rule="evenodd" d="M297.5586 401.63672h.83593v5.73828h3.1914v.74219h-4.02734v-6.48047"/><path fill="#ff3030" fill-rule="evenodd" d="M198.08203 374.4414h7.69531v-10.14452h-7.6953v10.14453"/><path fill="azure" fill-rule="evenodd" d="M199.91797 366.1289h.83203v5.7422h3.19531v.73827h-4.02734v-6.48046"/><path fill="#ffffe0" fill-rule="evenodd" d="M337.30469 416.42578h22.17969v-10.1914h-22.1797v10.1914"/><path fill-rule="evenodd" d="M340.80469 408.0664h.50781v6.29298h-.78516v-4.48829h-1.39062v-.55468l.5625-.06641.25-.05469.23047-.08984.20312-.14063.17578-.21093.14063-.29297.10547-.39453m4.8125 0l.23047.01953.21875.05469.20703.08984.19922.1211.18359.14843.17188.17578.30078.41797.24218.4961.1797.54687.11327.57812.03906.58985-.03906.59375-.11328.58594-.17969.55468-.24218.5-.30079.42969-.17187.17969-.1836.15234-.19921.1211-.20703.09375-.21875.05859-.23047.01953-.22656-.01953-.21875-.0586-.21094-.09375-.19531-.12109-.1836-.15234-.17187-.17969-.30079-.42969-.24218-.5-.1836-.55469-.10937-.58593-.03906-.59375h.83203l.03125.5625.08203.50781.125.4414.16406.375.1875.30079.21094.22265.22265.13672.22657.04688.22656-.04688.22266-.13672.21093-.22265.19141-.30078.16406-.375.125-.44141.08203-.50781.02735-.5625-.02735-.5586-.08203-.5039-.125-.4336-.16406-.36718-.1914-.28907-.21094-.21484-.22266-.13281-.22656-.04297-.22656.04297-.22266.13281-.21094.21484-.1875.28907-.16406.36718-.125.4336-.08203.5039-.03125.5586h-.83203l.03906-.58985.10937-.57812.1836-.54688.24219-.49609.30078-.41797.17187-.17578.1836-.14844.1953-.1211.21094-.08983.21875-.0547.22657-.01952m4.95312 0l.23047.01953.21875.05469.20703.08984.19922.1211.1836.14843.17187.17578.30078.41797.24219.4961.17969.54687.11328.57812.03515.58985-.03515.59375-.11328.58594-.1797.55468-.24218.5-.30078.42969-.17188.17969-.18359.15234-.19922.1211-.20703.09375-.21875.05859-.23047.01953-.22656-.01953-.22266-.0586-.20703-.09375-.19531-.12109-.1836-.15234-.17187-.17969-.30078-.42969-.2461-.5-.17968-.55469-.10938-.58593-.03906-.59375h.83203l.03125.5625.08203.50781.125.4414.16407.375.1875.30079.21093.22265.22266.13672.22656.04688.22656-.04688.22266-.13672.21094-.22265.1914-.30078.16407-.375.125-.44141.08203-.50781.02734-.5625-.02734-.5586-.08203-.5039-.125-.4336-.16406-.36718-.19141-.28907-.21094-.21484-.22265-.13281-.22657-.04297-.22656.04297-.22266.13281-.21093.21484-.1875.28907-.16407.36718-.125.4336-.08203.5039-.03125.5586h-.83203l.03906-.58985.10938-.57812.17969-.54688.24609-.49609.30078-.41797.17188-.17578.18359-.14844.19531-.1211.20703-.08983.22266-.0547.22656-.01952m4.95313 0l.38672.02734.35937.08203.32422.13672.27734.1875.23047.23828.17188.28516.10937.33203.03906.375-.01953.27734-.05859.23438-.08984.19922-.10938.17187-.1289.14063-.14063.125-.28516.1953.23047.1172.20703.14843.1836.17188.15234.1914.125.21485.08985.23047.05468.24219.01953.2578-.03515.3086-.10156.32813-.17188.32421-.24219.3047-.30469.26952-.375.21485-.21093.08203-.22656.0586-.2461.03906-.26172.01562-.25781-.01563-.24219-.03906-.22265-.0586-.20704-.08202-.35937-.21485-.28906-.26953-.22266-.30469-.15625-.32421-.09375-.32813-.03125-.3086h.83203l.02735.25391.07812.23438.1211.21094.16406.1875.1914.14843.21875.1172.2422.0703.2539.02735.2539-.02735.2422-.0703.21874-.1172.19531-.14843.16016-.1875.1211-.21094.07812-.23438.02734-.2539-.02734-.2539-.07813-.23438-.12109-.21094-.16016-.1875-.1953-.15235-.21876-.11328-.24219-.07421-.2539-.02344-.2539.02344-.2422.07421-.21875.11329-.1914.15234-.16406.1875-.1211.21094-.07812.23437-.02735.2539h-.83203l.01953-.2539.05469-.23828.09375-.22656.1211-.20703.15234-.19141.1836-.17188.20702-.15234.23438-.13281-.28906-.19531-.14063-.125-.1289-.14063-.10938-.17187-.08985-.19922-.05468-.23438-.02344-.27734h.78906l.02344.21484.0664.1914.10157.16798.13672.14062.16406.10938.1914.08203.20704.05078.21875.01563.22265-.01563.20704-.05078.1875-.08203.16406-.10938.13672-.14062.10546-.16797.06641-.1914.01953-.21485-.01953-.21485-.0664-.1875-.10547-.16796-.13672-.14063-.16406-.10937-.1875-.08204-.20704-.05078-.22265-.01562-.21875.01562-.20703.05079-.19141.08203-.16406.10937-.13672.14063-.10156.16796-.06641.1875-.02344.21485h-.78906l.03906-.375.10938-.33203.17187-.28516.23047-.23828.28125-.1875.32031-.13672.35938-.08203.38672-.02734"/><path fill="#ffffe0" fill-rule="evenodd" d="M399.4414 435.58984h22.1797v-10.1914h-22.1797v10.1914"/><path fill-rule="evenodd" d="M402.9414 427.23438h.50782v6.29296h-.78516v-4.48828h-1.38672v-.5586l.5586-.0625.25-.05468.23047-.08984.20312-.14063.17578-.21094.14063-.29296.10547-.39454m4.8125 0l.23046.01563.21875.0586.20704.08984.19921.11719.1836.15234.17187.17578.30079.41797.24218.49219.17969.54687.11328.58203.03906.58985-.03906.59375-.11328.58203-.17969.55469-.24219.5039-.30078.42578-.17187.17969-.1836.15234-.19921.125-.20704.09375-.21875.0547-.23046.01952-.22657-.01953-.21875-.05469-.21093-.09375-.19532-.125-.18359-.15234-.17188-.17969-.30078-.42578-.24218-.5039-.1797-.5547-.11327-.58202-.03906-.59375h.83593l.02735.5625.08203.5078.125.44142.16406.375.1914.30078.20704.21875.22265.14062.22657.04688.22656-.04688.22265-.14062.21094-.21875.1914-.30079.16407-.375.125-.4414.08203-.50781.02735-.5625-.02735-.5625-.08203-.5-.125-.4336-.16406-.36719-.1914-.29296-.21094-.21485-.22266-.1289-.22656-.04688-.22657.04688-.22265.1289-.20703.21485-.19141.29296-.16406.3672-.125.43359-.08203.5-.02735.5625h-.83594l.03907-.58985.11328-.58203.17969-.54687.24218-.4922.30079-.41796.17187-.17578.1836-.15235.1953-.11718.21094-.08985.21875-.05859.22657-.01563m4.95312 0l.23047.01563.21875.0586.20703.08984.19922.11719.1836.15234.17187.17578.30078.41797.24219.49219.17969.54687.11328.58203.03906.58985-.03906.59375-.11329.58203-.17968.55469-.24219.5039-.30078.42578-.17188.17969-.18359.15234-.19922.125-.20703.09375-.21875.0547-.23047.01952-.22656-.01953-.21875-.05469-.21094-.09375-.19531-.125-.1836-.15234-.17187-.17969-.30078-.42578-.2461-.5039-.17968-.5547-.10938-.58202-.03906-.59375h.83203l.03125.5625.08203.5078.125.44142.16406.375.1875.30078.21094.21875.22266.14062.22656.04688.22656-.04688.22266-.14062.21094-.21875.1914-.30079.16407-.375.125-.4414.08203-.50781.02734-.5625-.02734-.5625-.08203-.5-.125-.4336-.16407-.36719-.1914-.29296-.21094-.21485-.22266-.1289-.22656-.04688-.22656.04688-.22266.1289-.21094.21485-.1875.29296-.16406.3672-.125.43359-.08203.5-.03125.5625h-.83203l.03906-.58985.10938-.58203.17969-.54687.24609-.4922.30078-.41796.17188-.17578.18359-.15235.19531-.11718.21094-.08985.21875-.05859.22656-.01563m4.95313 0l.38671.02735.35938.08203.32422.13672.27734.1875.23047.23437.17188.28516.10937.33594.03906.375-.01953.27344-.0586.23437-.08593.20313-.11328.16796-.1289.14454-.14063.12109-.28516.19922.23047.11719.20703.14843.1836.17188.15234.1914.125.21485.08984.23047.0547.24218.01952.25782-.03515.30859-.10157.32422-.17187.32812-.23828.3047-.3086.26952-.375.21485-.21093.08203-.22657.0586-.24609.03905-.26172.01172-.25781-.01172-.24219-.03906-.22265-.0586-.20704-.08202-.35937-.21485-.28906-.26953-.22266-.30469-.15625-.32812-.09375-.32422-.03125-.3086h.83203l.02735.25.07812.23829.125.21094.16016.18359.1914.15234.21875.11719.24219.07031.2539.02735.25391-.02735.24219-.07031.21875-.11719.19531-.15234.16016-.1836.1211-.21093.07812-.23828.02734-.25-.02734-.25391-.07813-.23438-.1211-.21484-.16015-.1836-.19531-.15234-.21875-.11328-.24219-.07422-.2539-.02343-.25391.02343-.24219.07422-.21875.11328-.1914.15235-.16016.1836-.125.21483-.07813.23438-.02734.2539h-.83203l.01953-.2539.05469-.24219.09375-.22265.1211-.20704.15624-.1914.17969-.17188.20703-.15234.23438-.13281-.28907-.19922-.13671-.1211-.13282-.14453-.10937-.16796-.08985-.20313-.05468-.23438-.02344-.27343h.78906l.02344.21484.0664.1914.10157.16798.13672.13671.16796.11329.1875.08203.20704.05078.21875.01562.22265-.01562.20703-.05078.1875-.08203.16407-.11329.13671-.13671.10547-.16797.06641-.1914.02344-.21485-.02344-.21485-.0664-.1914-.10548-.16406-.13671-.14063-.16407-.11328-.1875-.08203-.20703-.04688-.22265-.01953-.21875.01953-.20704.04688-.1875.08203-.16796.11328-.13672.14063-.10156.16406-.06641.1914-.02344.21485h-.78906l.03906-.375.10938-.33594.17187-.28516.23047-.23437.28125-.1875.32031-.13672.35938-.08203.38672-.02735"/><path fill="#ffffe0" fill-rule="evenodd" d="M328.42969 354.09766h22.17969v-10.19141h-22.1797v10.1914"/><path fill-rule="evenodd" d="M331.92969 345.73828h.50781v6.29297h-.78516v-4.48828h-1.39062v-.55469l.5586-.0664.2539-.0547.23047-.08984.20312-.14062.17188-.21094.14453-.29297.10547-.39453m4.8125 0l.23047.01953.21875.05469.20703.08984.19531.1211.1836.14844.17187.17578.30469.41796.24218.4961.1797.54687.10937.57813.03906.58984-.03906.59375-.10938.58594-.17969.55078-.24218.5039-.3047.4297-.17187.17578-.18359.15625-.19531.12109-.20703.09375-.21875.05469-.23047.01953-.23047-.01953-.21875-.05469-.20703-.09375-.19531-.1211-.1836-.15624-.17187-.17579-.3047-.42968-.24218-.5039-.17969-.55079-.10937-.58594-.03906-.59375h.83203l.02734.5625.08203.50781.1289.44141.16017.375.1914.30078.21094.22266.22265.13672.22657.04687.22656-.04687.22266-.13672.21093-.22266.19141-.30078.16016-.375.1289-.4414.07813-.50782.03125-.5625-.03125-.5586-.07813-.5039-.1289-.4336-.16016-.36718-.1914-.29297-.21094-.21094-.22266-.1328-.22656-.04688-.22656.04687-.22266.13281-.21094.21094-.1914.29297-.16016.36719-.1289.4336-.08204.5039-.02734.5586h-.83203l.03906-.58985.10937-.57813.1797-.54687.24218-.4961.30469-.41796.17187-.17579.1836-.14843.1953-.1211.20704-.08984.21875-.05469.23047-.01953m5.08984 0h.51172v6.29297h-.78906v-4.48828h-1.38672v-.55469l.5586-.0664.2539-.0547.22656-.08984.20313-.14062.17578-.21094.14062-.29297.10547-.39453m2.82422 2.17578h.78906l.01953-.3164.0586-.28907.09765-.25.14063-.21484.17969-.17578.22656-.1289.26172-.07813.3086-.03125.23827.02344.22266.0625.20703.10156.17969.13672.14844.17578.11328.20312.0703.23828.02345.26563-.01954.26562-.0664.22657-.10938.1914-.15625.17188-.19921.16015-.25.16797-.63282.38672-.53515.3164-.4375.31641-.34766.32422-.26563.33594-.1875.35156-.125.36719-.0703.39453-.01954.41797h4.21094v-.73828h-3.33203l.08203-.28516.11328-.23828.14844-.19922.1875-.17969.23047-.17187.27734-.17578.71875-.41797.41406-.20313.34766-.23437.28125-.25.21875-.26563.16406-.27734.10938-.28515.0664-.28516.01953-.28125-.04296-.38281-.1211-.34766-.1875-.3086-.25-.26171-.30469-.21485-.34375-.15625-.3828-.10156-.40626-.03125-.4336.03125-.39843.09766-.35547.16797-.30469.23437-.24609.30469-.1875.375-.11719.44531-.03906.51953"/><path fill="#ffffe0" fill-rule="evenodd" d="M208.59375 337.69531h22.17969V327.5h-22.17969v10.19531"/><path fill-rule="evenodd" d="M212.09375 329.33594h.50781v6.29297h-.78515v-4.48829h-1.39063v-.55468l.5586-.0664.2539-.0547.23047-.08984.20313-.14063.17187-.21093.14453-.29297.10547-.39453m4.8125 0l.23047.01953.21875.05469.20703.08984.19531.1211.1836.14843.17187.17578.30469.41797.24219.4961.17968.54687.10938.57813.03906.58984-.03906.59375-.10938.58594-.17968.55078-.2422.5039-.30468.42579-.17187.17968-.1836.15625-.19531.1211-.20703.09375-.21875.05468-.23047.01954-.23047-.01954-.21875-.05468-.20703-.09375-.19531-.1211-.1836-.15625-.17187-.17969-.30469-.42578-.24219-.5039-.17968-.55078-.10938-.58594-.03906-.59375h.83203l.03125.5625.07813.50781.1289.4414.16016.375.1914.30079.21094.22265.22266.13672.22656.04688.22656-.04688.22266-.13671.21094-.22266.1914-.30078.16016-.375.1289-.4414.08204-.50782.02734-.5625-.02734-.5625-.08203-.5-.12891-.4336-.16016-.36718-.1914-.29297-.21094-.21094-.22266-.13281-.22656-.04688-.22656.04688-.22266.13281-.21094.21094-.1914.29297-.16016.36719-.1289.43359-.07813.5-.03125.5625h-.83203l.03906-.58985.10938-.57812.17968-.54688.2422-.49609.30468-.41797.17187-.17578.1836-.14844.19531-.12109.20703-.08984.21875-.0547.23047-.01952m5.08984 0h.51172v6.29297h-.78906v-4.48829h-1.38672v-.55468l.5586-.0664.2539-.0547.22656-.08984.20703-.14063.17188-.21093.14063-.29297.10546-.39453m2.82422 2.17578h.78906l.01954-.3164.05859-.28907.09766-.25.14062-.21484.1836-.17579.22265-.1289.26563-.07813.30468-.03125.23828.02344.22657.0625.20312.10156.17969.13672.14844.17578.11328.20313.07031.23828.02734.26563-.02343.26562-.0664.22656-.10938.1914-.15625.17188-.19922.16016-.2461.16797-.63672.38672-.53515.3164-.4375.31641-.34766.32422-.26562.33594-.1875.35156-.125.36719-.07031.39453-.01954.41797h4.21094v-.73829h-3.33203l.08203-.28515.11328-.23828.14844-.19922.1875-.17969.23047-.17187.27734-.17579.71875-.41796.41406-.20704.34766-.23046.28125-.25.21875-.26563.16406-.28125.10938-.28125.0664-.28515.01954-.28125-.04297-.38282-.1211-.34765-.1875-.3086-.25-.26172-.30468-.21484-.34375-.15625-.38282-.10156-.40625-.03125-.43359.03125-.39844.09765-.35547.16797-.30468.23438-.2461.30469-.1875.375-.11328.4453-.04297.51954"/></g></defs><use xlink:href="#aq"/></svg>