<svg xmlns="http://www.w3.org/2000/svg" role="img" xmlns:xlink="http://www.w3.org/1999/xlink" viewBox="159.78 310.78 308.45 169.45"><defs><clipPath id="a"><path d="M144 312.38672h1v167.22656h-1zm0 0"/></clipPath><clipPath id="b"><path d="M144 312.38672h324v167.22656H144zm0 0"/></clipPath><clipPath id="c"><path d="M467 312.38672h1v167.22656h-1zm0 0"/></clipPath><clipPath><path d="M427 415h41v64.61328h-41zm0 0"/></clipPath><clipPath><path d="M363 363h105v45H363zm0 0"/></clipPath><clipPath><path d="M195 465h33v14.61328h-33zm0 0"/></clipPath><clipPath><path d="M144 425h4v30h-4zm0 0"/></clipPath><clipPath><path d="M328 337h140v25H328zm0 0"/></clipPath><clipPath><path d="M185 312.38672h16V334h-16zm0 0"/></clipPath><clipPath><path d="M144 312.38672h24V329h-24zm0 0"/></clipPath><clipPath><path d="M452 312.38672h16V317h-16zm0 0"/></clipPath><clipPath><path d="M370 312.38672h67V342h-67zm0 0"/></clipPath><clipPath><path d="M301 312.38672h49V325h-49zm0 0"/></clipPath><clipPath><path d="M307 312.38672h2V314h-2zm0 0"/></clipPath><clipPath><path d="M144 479h4v.61328h-4zm0 0"/></clipPath><clipPath><path d="M147 479h2v.61328h-2zm0 0"/></clipPath><clipPath><path d="M146 479h2v.61328h-2zm0 0"/></clipPath><clipPath><path d="M150 479h9v.61328h-9zm0 0"/></clipPath><clipPath><path d="M157 479h3v.61328h-3zm0 0"/></clipPath><clipPath><path d="M156 479h2v.61328h-2zm0 0"/></clipPath><clipPath><path d="M161 479h8v.61328h-8zm0 0"/></clipPath><clipPath><path d="M168 479h2v.61328h-2zm0 0"/></clipPath><clipPath><path d="M167 479h2v.61328h-2zm0 0"/></clipPath><clipPath><path d="M171 479h9v.61328h-9zm0 0"/></clipPath><clipPath><path d="M178 479h3v.61328h-3zm0 0"/></clipPath><clipPath><path d="M177 479h2v.61328h-2zm0 0"/></clipPath><clipPath><path d="M182 479h8v.61328h-8zm0 0"/></clipPath><clipPath><path d="M189 479h2v.61328h-2zm0 0"/></clipPath><clipPath><path d="M188 479h2v.61328h-2zm0 0"/></clipPath><clipPath><path d="M192 478h8v1.61328h-8zm0 0"/></clipPath><clipPath><path d="M199 478h3v1.61328h-3zm0 0"/></clipPath><clipPath><path d="M198 479h2v.61328h-2zm0 0"/></clipPath><clipPath><path d="M202 478h9v1.61328h-9zm0 0"/></clipPath><clipPath><path d="M209 478h3v1.61328h-3zm0 0"/></clipPath><clipPath><path d="M208 478h3v1.61328h-3zm0 0"/></clipPath><clipPath><path d="M213 478h8v1.61328h-8zm0 0"/></clipPath><clipPath><path d="M220 478h3v1.61328h-3zm0 0"/></clipPath><clipPath><path d="M224 478h8v1.61328h-8zm0 0"/></clipPath><clipPath><path d="M230 478h3v1.61328h-3zm0 0"/></clipPath><clipPath><path d="M234 477h8v2.61328h-8zm0 0"/></clipPath><clipPath><path d="M241 477h3v2.61328h-3zm0 0"/></clipPath><clipPath><path d="M245 477h7v2.61328h-7zm0 0"/></clipPath><clipPath><path d="M251 477h3v2.61328h-3zm0 0"/></clipPath><clipPath><path d="M255 477h8v2.61328h-8zm0 0"/></clipPath><clipPath><path d="M261 477h4v2.61328h-4zm0 0"/></clipPath><clipPath><path d="M266 477h7v2.61328h-7zm0 0"/></clipPath><clipPath><path d="M276 477h7v2.61328h-7zm0 0"/></clipPath><clipPath><path d="M287 476h7v3.61328h-7zm0 0"/></clipPath><clipPath><path d="M298 476h6v3.61328h-6zm0 0"/></clipPath><clipPath><path d="M309 476h5v3.61328h-5zm0 0"/></clipPath><clipPath><path d="M319 476h6v3.61328h-6zm0 0"/></clipPath><clipPath><path d="M329 476h6v3.61328h-6zm0 0"/></clipPath><clipPath><path d="M341 476h3v3.61328h-3zm0 0"/></clipPath><clipPath><path d="M352 475h3v4.61328h-3zm0 0"/></clipPath><clipPath><path d="M362 476h3v3.61328h-3zm0 0"/></clipPath><clipPath><path d="M373 475h2v4.61328h-2zm0 0"/></clipPath><clipPath><path d="M382 476h4v3.61328h-4zm0 0"/></clipPath><clipPath><path d="M392 476h6v3.61328h-6zm0 0"/></clipPath><clipPath><path d="M401 478h8v1.61328h-8zm0 0"/></clipPath><clipPath><path d="M413 476h5v3.61328h-5zm0 0"/></clipPath><clipPath><path d="M423 477h7v2.61328h-7zm0 0"/></clipPath><clipPath><path d="M433 477h7v2.61328h-7zm0 0"/></clipPath><clipPath><path d="M438 478h3v1.61328h-3zm0 0"/></clipPath><clipPath><path d="M444 477h7v2.61328h-7zm0 0"/></clipPath><clipPath><path d="M454 476h7v3.61328h-7zm0 0"/></clipPath><clipPath><path d="M465 476h3v3.61328h-3zm0 0"/></clipPath><clipPath><path d="M144 468h4v2h-4zm0 0"/></clipPath><clipPath><path d="M465 466h3v7h-3zm0 0"/></clipPath><clipPath><path d="M144 458h4v2h-4zm0 0"/></clipPath><clipPath><path d="M465 455h3v7h-3zm0 0"/></clipPath><clipPath><path d="M144 447h4v2h-4zm0 0"/></clipPath><clipPath><path d="M466 444h2v8h-2zm0 0"/></clipPath><clipPath><path d="M144 436h4v3h-4zm0 0"/></clipPath><clipPath><path d="M465 434h3v7h-3zm0 0"/></clipPath><clipPath><path d="M144 426h4v3h-4zm0 0"/></clipPath><clipPath><path d="M464 425h4v5h-4zm0 0"/></clipPath><clipPath><path d="M144 415h4v3h-4zm0 0"/></clipPath><clipPath><path d="M464 414h4v6h-4zm0 0"/></clipPath><clipPath><path d="M144 405h4v3h-4zm0 0"/></clipPath><clipPath><path d="M464 404h4v5h-4zm0 0"/></clipPath><clipPath><path d="M144 394h4v4h-4zm0 0"/></clipPath><clipPath><path d="M464 394h4v4h-4zm0 0"/></clipPath><clipPath><path d="M144 383h4v5h-4zm0 0"/></clipPath><clipPath><path d="M464 383h4v5h-4zm0 0"/></clipPath><clipPath><path d="M144 373h4v5h-4zm0 0"/></clipPath><clipPath><path d="M464 373h4v4h-4zm0 0"/></clipPath><clipPath><path d="M144 362h4v5h-4zm0 0"/></clipPath><clipPath><path d="M464 363h4v4h-4zm0 0"/></clipPath><clipPath><path d="M144 352h4v4h-4zm0 0"/></clipPath><clipPath><path d="M464 352h4v5h-4zm0 0"/></clipPath><clipPath><path d="M144 342h4v4h-4zm0 0"/></clipPath><clipPath><path d="M464 342h4v4h-4zm0 0"/></clipPath><clipPath><path d="M144 331h4v4h-4zm0 0"/></clipPath><clipPath><path d="M464 332h4v3h-4zm0 0"/></clipPath><clipPath><path d="M144 321h4v4h-4zm0 0"/></clipPath><clipPath><path d="M464 321h4v4h-4zm0 0"/></clipPath><clipPath><path d="M144 312.38672h4V315h-4zm0 0"/></clipPath><clipPath><path d="M145 312.38672h3V313h-3zm0 0"/></clipPath><clipPath><path d="M150 312.38672h9V313h-9zm0 0"/></clipPath><clipPath><path d="M156 312.38672h2V314h-2zm0 0"/></clipPath><clipPath><path d="M161 312.38672h8V314h-8zm0 0"/></clipPath><clipPath><path d="M167 312.38672h2V314h-2zm0 0"/></clipPath><clipPath><path d="M171 312.38672h9V313h-9zm0 0"/></clipPath><clipPath><path d="M177 312.38672h2V314h-2zm0 0"/></clipPath><clipPath><path d="M182 312.38672h8V313h-8zm0 0"/></clipPath><clipPath><path d="M188 312.38672h2V314h-2zm0 0"/></clipPath><clipPath><path d="M192 312.38672h8V314h-8zm0 0"/></clipPath><clipPath><path d="M198 312.38672h2V313h-2zm0 0"/></clipPath><clipPath><path d="M203 312.38672h8V314h-8zm0 0"/></clipPath><clipPath><path d="M209 312.38672h4V314h-4zm0 0"/></clipPath><clipPath><path d="M213 312.38672h8V314h-8zm0 0"/></clipPath><clipPath><path d="M220 312.38672h3V314h-3zm0 0"/></clipPath><clipPath><path d="M224 312.38672h8V315h-8zm0 0"/></clipPath><clipPath><path d="M230 312.38672h3V313h-3zm0 0"/></clipPath><clipPath><path d="M234 312.38672h8V315h-8zm0 0"/></clipPath><clipPath><path d="M241 312.38672h3V313h-3zm0 0"/></clipPath><clipPath><path d="M240 312.38672h2V313h-2zm0 0"/></clipPath><clipPath><path d="M245 312.38672h8V314h-8zm0 0"/></clipPath><clipPath><path d="M251 312.38672h3V313h-3zm0 0"/></clipPath><clipPath><path d="M250 312.38672h3V313h-3zm0 0"/></clipPath><clipPath><path d="M255 312.38672h8V314h-8zm0 0"/></clipPath><clipPath><path d="M262 312.38672h3V314h-3zm0 0"/></clipPath><clipPath><path d="M261 312.38672h2V313h-2zm0 0"/></clipPath><clipPath><path d="M265 312.38672h8V314h-8zm0 0"/></clipPath><clipPath><path d="M272 312.38672h3V314h-3zm0 0"/></clipPath><clipPath><path d="M271 312.38672h2V313h-2zm0 0"/></clipPath><clipPath><path d="M276 312.38672h8V314h-8zm0 0"/></clipPath><clipPath><path d="M282 312.38672h4V313h-4zm0 0"/></clipPath><clipPath><path d="M281 312.38672h3V313h-3zm0 0"/></clipPath><clipPath><path d="M286 312.38672h8V314h-8zm0 0"/></clipPath><clipPath><path d="M293 312.38672h3V314h-3zm0 0"/></clipPath><clipPath><path d="M292 312.38672h2V313h-2zm0 0"/></clipPath><clipPath><path d="M297 312.38672h8V314h-8zm0 0"/></clipPath><clipPath><path d="M303 312.38672h4V314h-4zm0 0"/></clipPath><clipPath><path d="M302 312.38672h3V314h-3zm0 0"/></clipPath><clipPath><path d="M307 312.38672h8V313h-8zm0 0"/></clipPath><clipPath><path d="M314 312.38672h3V315h-3zm0 0"/></clipPath><clipPath><path d="M313 312.38672h2V314h-2zm0 0"/></clipPath><clipPath><path d="M317 312.38672h9V314h-9zm0 0"/></clipPath><clipPath><path d="M324 312.38672h3V315h-3zm0 0"/></clipPath><clipPath><path d="M323 312.38672h3V314h-3zm0 0"/></clipPath><clipPath><path d="M328 312.38672h8V314h-8zm0 0"/></clipPath><clipPath><path d="M335 312.38672h3V314h-3zm0 0"/></clipPath><clipPath><path d="M334 312.38672h2V313h-2zm0 0"/></clipPath><clipPath><path d="M339 312.38672h8V315h-8zm0 0"/></clipPath><clipPath><path d="M345 312.38672h3V313h-3zm0 0"/></clipPath><clipPath><path d="M344 312.38672h3V313h-3zm0 0"/></clipPath><clipPath><path d="M349 312.38672h8V315h-8zm0 0"/></clipPath><clipPath><path d="M355 312.38672h4V313h-4zm0 0"/></clipPath><clipPath><path d="M354 312.38672h3V313h-3zm0 0"/></clipPath><clipPath><path d="M360 312.38672h7V315h-7zm0 0"/></clipPath><clipPath><path d="M366 312.38672h3V313h-3zm0 0"/></clipPath><clipPath><path d="M370 312.38672h8V314h-8zm0 0"/></clipPath><clipPath><path d="M376 312.38672h1V315h-1zm0 0"/></clipPath><clipPath><path d="M381 312.38672h7V315h-7zm0 0"/></clipPath><clipPath><path d="M391 312.38672h8V313h-8zm0 0"/></clipPath><clipPath><path d="M397 312.38672h2V314h-2zm0 0"/></clipPath><clipPath><path d="M402 312.38672h6V316h-6zm0 0"/></clipPath><clipPath><path d="M414 312.38672h4V316h-4zm0 0"/></clipPath><clipPath><path d="M425 312.38672h2V317h-2zm0 0"/></clipPath><clipPath><path d="M434 312.38672h5V316h-5zm0 0"/></clipPath><clipPath><path d="M445 312.38672h4V316h-4zm0 0"/></clipPath><clipPath><path d="M453 312.38672h9V314h-9zm0 0"/></clipPath><clipPath><path d="M459 312.38672h2V315h-2zm0 0"/></clipPath><clipPath><path d="M464 312.38672h4V314h-4zm0 0"/></clipPath><g id="d" clip-path="url(#clip1)"><path fill="#fff" fill-rule="evenodd" d="M-.0039-.0039h1000v1000h-1000zm0 0"/><path fill="#d3d3d3" fill-rule="evenodd" d="M155.44531 353.9961l-.24219.30468.0625.24219.1211.1836.17969.24218.30859.36719.1211.0625.12109-.1836.0625-.24609.1836-.17969.48437-.1836h.73437l.24219.3047.30469.85156.0625.1836.18359.24609.1836.12109.17968.1211.73438.73046.18359.1836.24219.36718.2461.42579.30077.60937.42969.48828.24219.2461.2461.17968.12108.2461.1836.30468.1836 1.21875v.2461l.05859.30469.0625.12109.12109.1211.36719.42968.1211.17969.18358.1836.1836.24608.1211.1797.18359.36718.05859.2461.2461.42577.24218-.0625-.1836.1836-.05859.97656h-.60937l-.2461-.1211-.36718.1211-.1211.1211-.05859.30468-.0625.1836-.1211.18359-.48827.30469-.0625.24219-.0586.12109v.67187l.0586.1836v.42578l.0625.0625v.42578l.05859.42578.125.1836.0586.0625.24609.67187-.0625.30469v.73047l-.0586.60937v.2461l-.0625.24218-.0625.36719v2.01172l.0625.1211h.44531l-.3828.12109-.03126.37109.9375 1.22266 1.82031.5664 1.40235.375v.5625l.09375.84375.5625.7539 1.58984.28126.9336-.09375.09375 1.21875.55859.1914 1.21484-.1914 2.15235-1.03125 1.21484-.375 1.96094-.1875 1.77734-.1875-.1875.75-1.58984.09375-1.3086.09375-.83984.28125-1.1211.84765.27735.75.5625.94141-.1875.65625-.28125.84375.28125 1.1289.65625.9375.83984.1875 1.3086-.1875-.28125.75782.10156.52734.0625.3047v.18358l.0586.3047v.42577l.18359.1211.36719.125h.42578l.30469-.1836.12109-.12109.1836-.36719.0625-.1836.36718-.48827.24219-.1836.1836-.05859.18358.0586.0586.18359.125 1.03906.0586.48828.0625.17969.12109.2461.18359.05859.85156.0625h.30469l.125.24218.0586.4297.0625.36718v1.15625l.12109.30469.1211.36718.30468.73047.1836.36719.60937.79297.36719.1836.18359.05859.24219.12109.24609.125.66797.48828.36719.24219.30468.1836.3047.05859.24608.0625.85157.36718.30469.1836.12109.17969.36719.36718.12109.1836.55078.67187v.30469l.0586.36328v.36719l.0625.36719.0625.30468.12109.0586.1836.0625h.18359l.60937.24218.1836.125.17968.3047.1836.24218.12109.2461.3086.24218.12109.1211v.42968l.0586.0586.30468.24609.2461.1211.05859.12109.125.18359.05859.1211.2461.24609.05859.17969.2461.0625.12108.0625-.12109.12109-.0625.1211v.12109l-.24219.60937v.61328l.1836.1211.1211.05859.05858.125.0625.0586.0625.0625.1211.05859.1836.36719.05859.36718.0625.42578v.1836l-.0625.1836-.1211.73046v.1836l.1211.18359.30468.30469h.4297l.18358.12109.1211.1836.1211.30468v.24219h-.55079l-.24219-.24219h-.24609l-.17969.0586-.0625.73437.0625.36719.1211.17968.18359.4297.1211.24218.30468.48828.1836.0625h.54687l.2461.0586.79296.67187.0586.30469v.24218l.0625.0625.24609.3672v.36327l-.125.1836v.30468l.30469.3047.30469.18358.18359.0625.30469.1836.30468.1211.61328.42577.30079.2461.30468.17969.23047.17187.01563.01172.24219.1836.67187.55077.1836.2422.12109.18358.1836.1836.12108.17969v.67187l.1211.1836.2461.0625.24218.05859.60938.125.24609.0586.24219.12109.30468.125.125.05859.91407.55078.18359.0586.1836.0625.17968.0625.73438.36328.30468.18359.2422.0625.30468.17969.2461.125.66796.42578.30469.1211.1836.0625.24609.0625.42578.05859.24219.0625.24609.12109.0625.1836-.42969.17968.48828.0625.0625.30469.1211.2461.18359.05859.24219.0625.1836.0625.42577.12109.67188.24219.1211.1836.0625.24218v.1836l-.0625.125-.0586.42577.24219.2422.12109.0625.36719.12108.67187.2422.1836.125.30468.12109.1836.18359.24218.48828.60938 1.15625.1836.1836.36718.18359.17969.1211.36719.12109 1.09765.55078.24219.0625.48828.1211.3086.05858.48437.1836.79297.60937.2461.2461.36718.48828.17969.17969.30468.24609.85547.73047.30469.1836.30469.30468.30469.1836.30468.30468.73047.67188.1836.18359.30468.24219.30469.2461.48828.30468.67188.60937.36718.2422.2422.30468.36718.36719.36719.48828.97265 1.03515.36719.42579.1211.18359.24609.0625.1211.1211.67187.18359.24218.12109.2461.0625.30469.1836.24218.12109.97656.73047.42579.42578.24218.1836.4297.18358.24218.1211.85547.36719.36328.24609.2461.1211.30468.30468.24219.1211.79297.36718.36718.17969.2422.0625.30858.1211.2422.0625.91405.18359h.85547l.48828.24219.1797.0625.91796.73046.48828.1211.30469.0625.17969.0625.2461.0586.48827.0625.36328.05858.3672.0625.42577.0625h.30469l.1836.0586v.2461l.18359.18359h.30469l.36718.05859.36719.0625.73047.1211h.67187l.48438-.2422.30469-.18359.18359-.1211.42969-.18358.30469-.1836.97265-.48828.48828-.30469.55078-.30469.97657-.36718 1.09765-.48828.30469-.1211.42578-.1211.30469-.12108.55078-.1836 1.58203-.73437.61328-.36329.30469-.0625.30469-.05859.36328-.125.91797-.24219.17969-.0625.18359-.05859h.1211l.24609-.0625.91406-.24219.24219-.0625h.85546l.3672-.0625.85156-.1211.18359-.05858.36719-.0625.30468-.0625.2422-.0586.85546-.1836.1836-.0625h.36327l.2461-.05859.48828-.125.79297-.17968.24219-.0625h.36718l.42579-.1211.30468-.0625 1.34375-.0625h.30469l.42578-.0586.24219-.0625h.1836l.91406-.12108h.42968l.42578-.1211h.3672l.36327-.1211.91406-.0625h1.83204l1.09765.3047.42578.12109.3047.1211.36718.125.30469.12109 1.09765.18359.30469.0586h.30469l.30469.0625.18359.0625.42578.05859.1836.0625.12109.0586h.1211l.125.0625.36327.0625h.125l.42578.0664 2.01563.41406 2.01172.41406 1.58984.46875 1.77735.7539 2.24218.84376 1.67969-.75 1.4961-.84766 1.21484-1.1289 1.3086-.46875 3.17968-.75 1.96094-.375 2.24218-1.41016 2.33594-1.3164 2.61719-1.31641 1.77734-.46875 1.86719-.1875 1.21484-.28125.65625.5625 1.40235-.28125.7461-1.03125 1.02733-1.41016.46875-.1875.83985-.375 1.96484-.5664 1.86719-.46875 1.3086-.28125 1.21484-.09375 1.77734-.09375 2.05469-.28516 1.3086-.08985h.55859l.65625-.09765h.93359l2.24219-.1875 2.52344-.1875 2.71093-.09375 1.77735.1875 1.67968.09375 1.4961.375 1.21484.7539 1.96485 1.03516 1.21484 1.59375.27734.7539.65625.09376.375.9375.5586.5664.5625 1.59375 1.12109.37891h.5586l-.83985.5625.09375 1.78516.7461 2.8203.9375.84376.93359 1.03515.7461 1.3125 1.87108.56641 1.58594-.1914.375 1.41015 1.6836-.84375 1.02734-.5664.28125.28515.5586-.3789.84374.47265.46485-.3789h.375l.5625-.28125.5586-.75.5625-.28125.65233-1.03516 1.21485.46875.8789.39062 1.45704.64454 1.77734-.1875h1.67969l1.8711.09375.1875-1.78516.55858-1.41016.84375.28125.51563.89063.41797.42578-.09375.5625v.3789l.7461.46875.75-.28125h1.49609l.37109 1.03125.46875 1.31641.7461 1.41016 1.30859.65625 1.77734.66015.7461-.1914.1875-.5625 1.02734-.09375.46875.375.09375 1.3164-.28125.65625-.5586.1875v.56641l.7461 1.03125.28125.5664 1.02734 1.03126.83985 1.1289-.28125.375-.08985.9414-.65625 2.44142-.375 2.16015-.09375 1.8789-.1836.75391-.09374.5625v1.50391l-1.03125 1.97266-.3711 1.78515-.5625.9375-.83984 1.22266-.28125.5625 2.14844 1.3164.09375.375-.3711.56641-.09375-.1875v.84375l.09375 1.5039-.46875.75-1.12109.09376-.28125.7539.5625.9375.83985.75391 1.21484.84375.9961.19922h81.51562V312.41797H417.6328v46.72265l.79688.12891 3.4414.57031 2.1172 2.96875v2.87891l2.46093.34766 2.45703.35156h4.23828l-1.4414 4.35156-2.1211.73828-2.11719.73828-.5664.35938-2.71485 1.6914-.1953.1211-2.1172-2.17188-.76562-2.86718-2.79688-2.1797-1.4414-3.66015-.0664-.08594L414.75 360.625l2.88281-1.48438v-46.72265h-123.7539v91.02734l.125.03125.13671.01563.07813.07812.10938.04688.09375.0586.09375.0625.08984.0625.3125.3125.0586.09374.03124.1211.03125.125.01563.14062-.03125.1211-.0625.09374-.0586.09375-.04687.10938-.04688.10547-.03125.125v.15625l.0625.09375.0625.08984.0586.09375.15625.15625.07812.09375.07813.07422.04687.10938.125.1875.04297.10546.0625.09375.09375.21875.0625.09375.0625.08985.0625.09375.07422.07812.125.1875.04688.10547.1875.28125.0625.08985.04296.10937.125.1875.07813.07813.0625.08984.07812.07812.08985.0625.10937.04688h.15625l.14063-.01563.13672.01563.10937-.04688.07813-.07812.04687-.10938-.01562-.13671v-.15625l-.04688-.10938-.03125-.1211-.04687-.10937-.03125-.125-.04688-.10937-.0625-.08985-.04687-.10937-.04297-.10938-.03125-.1211-.03125-.28124.08984-.0625.0625-.09375.125-.03125.04688.10937.01562.14063v.125l.0625.10547.0625.09375.08985.0625.15625.15625.0625.08984.04687.10938-.01563.10937.09375.0625.10547.04688.1875.125.07813.07421-.125.03125-.10938.04688-.08984.0625-.07813.07813-.0625.09375-.0625.08984-.03125.125-.09375.21875-.03125.125-.01562.13672-.01563.14062v.15235l.03125.125.09375.21875.0625.08984.07813.07813.09375.0625.07422.07812.09375.0625.0625.09375.04687.10547.04688.10937.125.03125.13672.01563h.15625l.125-.03125.10937.04687.04297.10938.04688.10937.03125.1211.0625.25.03125.1211.03125.125.10937.04687.10547.04687.14063-.01562.15625.15625.0625.08984.07421.07813.07813.07812.09375.0625.21875.09375.1211.03125.14062.01563.125-.03125.07812-.07813.02735-.125-.01172-.14063-.03125-.12109-.03125-.125.04687-.10937h.1211l.09375.0625.125.03125h.15234l.14063.01562h.15625l.13671.01563.14063-.01563h.15625l.13672-.01562.14062-.01563.14063.01563.125-.03125.13672-.01563.20312-.0625-.0625.1875-.01562.14063-.03125.12109-.01563.14063-.0625.09375-.13672.01562-.21875.09375-.125.02734-.1211.03125-.28124.03125h-.15235l-.14062.01563-.07813.07812.0625.09375.07813.07813.07813.07422.05859.09375.0625.09375.07812.07812.1875.125.08985.0625.09375.0586.10937.04687.10938.0625.10937.04688.08985.0625.21875.09375.09375.05859.08984.0625.0625.09375-.09375.21875.01563.13672.23437.23437.0625.09375.04688.10547.03125.125.04296.10938.01563.14062.03125.1211.01562.14062.03125.125.07813.07813.07812.07421.21875.09375.1211.03125.28125.03125h.1211l.125-.03125.09374-.0625.04688-.10546.09375-.21875.02734-.125.01563-.13672v-.15625l-.01563-.14063-.01172-.13672-.03125-.125-.09375-.21875-.04687-.10546-.04688-.10938-.01562-.14063.01562-.14062.03125-.1211.0625-.25.04688-.10546.08984-.0625.09375-.0625.07813-.07813.09375-.0625.23046-.23047.0625-.09375.07813-.07812.125-.1875.0625-.08985v-.15625l-.07813-.07812-.21875-.09375-.10546-.04688-.0625-.08984-.04688-.10937-.03125-.125.09375-.0625.1211-.03125.10937-.04688.09375-.0586.09375-.0625.07812-.07812.07422-.07812.01563-.14063-.01563-.10547-.08984-.0625-.14063.01563h-.15625l-.13671.01562-.14063-.01562-.125-.03125-.09375-.0625-.07422-.07813-.0625-.09375-.0625-.08984-.1875-.28125.03125-.125.09375-.0586.125-.03124.0625-.09375v-.125l-.03125-.125-.0625-.08985-.0625-.09375-.04687-.10937-.03125-.125-.01563-.13672.0625-.09375.07813-.07813.09375-.0625.05859-.09375.0625-.08984.07813-.07813.0625-.09375.15625-.15625.12109-.03125.14062-.01562.14063.01563.07812.07812.04297.10938.01563.14062-.03125.1211-.1211.03124-.14062.01563-.15625.15625-.04688.10937-.04296.10938-.03125.1211-.03125.125v.15624l.03125.1211.04687.10937.0586.09375.15624.15625.125.02735.125.03125.1211-.03125.14062-.01563h.125l.08985.0625.07812.07813.04688.10937.0625.09375.10937.04688.13672.01562.10938.04297.09375.0625-.01563.10937-.07813.07813-.09375.0625-.08984.0625-.0625.08984-.09375.0625-.15625.15625-.0625.09375-.02734.1211-.01563.14062.01563.14063-.01563.14062v.15235l.01563.14062.02734.125.03125.1211.07813.07812.28125.1875.12109.03125v.08984l-.10547.04688-.09375.0625-.28125.03125-.1211.03125h-.15624l-.10938.04687-.10547.04688-.0625.09375-.03125.1211-.03125.125-.01562.14062-.03125.125-.01563.13671v.3125l-.01562.13672.03125.28125.14062.01563.13672.01172.125.03125.09375.0625.07813.07812.04297.10938.04687.10937.01563.13672v.46485l-.01563.14062v.46484l.01563.14063.01562.13672.03125.125.01563.14062.03125.1211.09375.21875.01562.14062.01563.13672v.15625l-.0625.25-.03125.1211-.0625.25-.03125.12109-.03125.28125.09375.0625.125-.03125.10937.01562.04688.10547-.03125.28125v.46485l-.04688.10546-.14062.32813-.0625.09375-.03125.1211-.04688.125-.03125.125-.01562.13671.01562.14063.0625.09375.10938.04687.09375.0625.0625.08985-.01563.14062-.03125.125-.04687.10938v.46093l-.01563.14063v.15625l-.03125.125-.04687.10547-.03125.125-.09375.21875-.03125.12109-.03125.125-.02735.14063-.03125.12109-.03125.125-.04687.10937-.03125.125-.03125.1211-.03125.28125v.3086l.03125.125v.15233l.03125.28125.01562.13672.03125.125.0625.09375.1211.03125h.15625l.14062-.01562.0625.09375v.1211l-.0625.09374-.09375.0625-.21875.09375-.08984.0625-.09375.0625-.14063.01563-.125-.03125-.13672-.01563-.10937.04688-.0625.09375-.01563.13672-.01562.14062-.03125.1211-.03125.125-.01563.14062-.03125.125v.3086l.01563.14062.03125.1211v.15624l.01562.14063v.15234l-.03125.125-.04687.10938-.02735.125-.03125.12109-.0625.09375-.07812.07813-.21875.09375-.1211.03125-.125.03125-.10937-.04688.0625-.09375.10938-.04688.03125-.125.03125-.12109.0625-.25v-.15625l.01562-.13672-.03125-.125-.04687-.10937-.10938.01562-.07812.07813-.10938.04687-.08984.0625-.07813.07813-.04687.10547-.01563.14062-.0625.25-.03125.1211-.0625.25-.03125.12109-.03125.125-.04687.10937-.08985.0625h-.09375l-.125-.03125-.03125-.09375.01563-.14062-.03125-.1211v-.15625l-.01563-.14062v-.15234l-.0625-.25-.02734-.1211-.09375-.21875-.125-.1875-.04688-.10547-.0625-.09375-.15625-.15625-.07421-.07812-.10938-.04297-.21875-.09375-.07422-.07813-.23437-.23437-.09375-.07813-.08985-.05859-.10937-.04687-.1875-.125-.10938-.04688-.08984-.0625-.09375-.0586-.07813-.07812-.10937-.04687-.09375-.0625-.10547-.04688-.09375-.0625-.21875-.09375-.08984-.0625-.10938-.04687-.10937-.04297-.10938-.04688-.08984-.0625-.21875-.09375-.09375-.0625-.1211-.03125-.14062-.01562-.14063.01562h-.15234l-.14062.01563-.125-.03125-.09375-.0625-.07813-.07422-.08984-.0625-.10938-.04688h-.15625l-.1211-.03125-.10937-.04687-.07812-.07813-.0625-.09375-.0625-.08984-.09375-.0625-.10547-.04687-.09375-.0625-.10938-.04688-.09375-.0625-.08984-.0625-.10937-.04687-.0625-.08985-.0625-.09375-.09375-.21875-.07813-.07422-.08984-.0625-.07813-.07812-.09375-.0625-.23047-.23047-.04687-.10938-.03125-.28125.10937-.04296h.15235l.10937.04296.07813.07813.09375.0625.08984.0625.10938.04688.09375.0625.07812.07812.07813.07422.07421.07812.15625.15625.0625.09375.07813.07422.08984.0625.07813.07813.28125.1875.08984.0625.09375.0586.09375.0625.21875.09374.10547.04688.04688-.07813.0625-.09375.07812-.07422.07813-.07812.10937.04687.07422.07422.0625.09375.14063.32813.125.02734.12109-.02734.07812-.09375.04688-.10938.0625-.09375.07812-.07812.10938-.04688.1211-.02734.14062.01172.09375.0625.07812.07812.07422.07813.0625.09375.04688.10937.04687.10547.09375.21875.10938.04688.10546.04687.14063.01563.09375-.0625.0625-.09375.07422-.07813.10937-.04688.125.03125.10938.04688.10547.04688.21875.09375.09375.0625.09375.05859v.125l-.01563.14062.01563.13672.01562.14063.0586.09375.10937.04687.25.0625h.15235l.125-.03125.0625-.09375.09375-.0625.08984-.0625.0625-.09375.07812-.07422.1875-.28125.09375-.0625.08985-.05859.125.03125.09375.0586.04687.07812-.01562.14062v.125l.09375.0586h.15234l.14063-.01563.14062-.01172.13672-.01562.14063-.01563.10937-.04687.1211-.03125.125-.03125.15624-.15625.0625-.09375-.01562-.10547-.04688-.10938-.10937-.04687-.10938-.01563-.12109.03125-.28125.03125h-.15234L304.73828 424l-.09375-.0625-.25-.0625-.13672-.01563h-.15625l-.14062.01563h-.3086l-.10937-.04297-.07813-.07812-.07421-.07813-.04688-.10937-.0625-.09375.07813-.07813.07812-.07422.07422-.07812.09375-.0625.10937-.04688.125-.03125.13672-.01562.28125.03125.10938.04687.13672-.01562.09375-.0625.10937-.04688.0625-.09375-.04687-.10547-.09375-.0625-.125-.03125-.10938-.04687-.0586-.09375-.0625-.09375v-.1211l.01563-.14062.10547-.04688.07813-.07812v-.1211l-.08985-.0625-.03125-.125.08985-.0625.07812-.07812.04688-.10937.0625-.08985.04687-.10937.01563-.14063v-.15234l-.09375-.21875-.09375-.0625-.13672-.01563-.10938-.04687-.14062-.01563-.125-.03125h-.46485l-.13671-.01171-.28125-.03125-.1211-.03125h-.15625l-.14062-.01563-.13672-.01563-.28125-.03125-.125-.04687-.08985-.0625-.07812-.07813v-.15234l.01562-.14062.10938-.04688.10547-.04687.14062-.01563h.15625l.13672-.01562h.3125l.1211.03125.10937.04687.09375.0625.125.03125.1211.03125.125-.04687.09374-.0625.10938-.04688.13672-.01562.21875.09375.14062.01562.1211-.03125h.15625l.125-.03125.12109-.03125.10938-.04687.07812-.07813.09375-.0625.07813-.07422.07421-.07812.0625-.09375.04688-.10938.03125-.1211.01562-.10937-.10937-.04687-.08985-.0625-.125-.03125-.10937-.04688-.09375-.0625-.07813-.08984-.07421-.07813-.32813-.14062-.0625-.09375-.04297-.10547-.09375-.21875-.125-.1875-.07812-.07422-.09375-.0625h-.27735l-.125.03125-.09375.0625-.10546.04297-.14063.01563-.10938-.01563-.03125-.1211-.0625-.09374-.12109-.03125-.10937-.04688-.15625-.15625-.03125-.1211-.01563-.10937.07813-.07812.1875-.125.125-.02735.12109-.03515.14063.01953.10937.04297.10938.04687.10546.04688.10938.04687.125.03125.14062.01563.1211.03125.14062.01562.10938-.01562.08984-.0625-.07422-.07813-.10937-.04687-.07813-.07422-.07812-.09375-.15625-.15625-.08985-.0625-.09375-.0625-.07812-.07422-.09375-.0625-.10547-.04687-.125-.03125-.21875-.09375-.1211-.03125-.10937-.04688-.125-.03125h-.15625l-.1211.03125-.10937.04688-.1875.125-.08984.0625-.09375.0625-.09375.05859-.10938.04688-.08984.0625-.32813.14062-.07812.07813-.0586.09375-.0625.08984-.04687.10937-.0625.09375-.07812.07813-.14063-.01563-.1211-.03125h-.125l-.07812.07813-.09375.0586-.07422.07812-.1875.125-.21875.09375-.13671.01562-.10938-.04687-.15625-.15625-.10547-.04688h-.09375l-.21875.09375-.1211.03125-.125-.03125-.07812-.07812v-.1211l.03125-.125.07813-.07812.0625-.09375.07812-.07813.1211-.02734.10937-.05078h.3086l.14062-.01172.14063-.01563.10546-.04687.09375-.0625.10938-.04688.09375-.0625.13672-.01562.09375.0625.14062.01563.09375-.0625.08985-.0625.10937-.04688.09375-.0625.09375-.0586.09375-.0625.07422-.07812.07813-.07812.0625-.09375.0625-.08985.10937-.04687.13672-.01563.25.0625.0625-.0625.0625-.09375.01562-.14062.01172-.14063.03125-.1211.10938.01563.14062.01563.10938-.04688.08984-.0625.0625-.09375.07813-.07812.0625-.08985.04687-.10937.01563-.14063-.01563-.14062-.04687-.10547-.15625-.15625-.0625-.09375-.0586-.09375-.04687-.10547v-.46484l.01562-.14063v-.15625l.01563-.13671-.0625-.0625-.09375.0625-.10938-.04688-.09375-.0625-.08984-.0625-.09375-.0625-.125-.1875-.07813-.07422-.08984-.0625-.125.03125-.10938.01563-.10937.04687-.09375.0625-.10547.04297-.15625.15625-.09375.0625-.08984.0625-.09375.0625-.10938.04688-.14062.01562v-.125l.10937-.04688.125-.03125.07813-.07812.04297-.10938v-.15234l-.02735-.125-.15625-.15625-.14062-.01562h-.15235l-.125.03125-.21875.09375-.08984.0625-.125.03125-.07813-.07813.01563-.14062-.04688-.10547-.04687-.10938-.09375-.0625-.1211.03125-.25.0625-.10937.04688-.1211.03125-.21874.09375-.09375.0586-.10547.01562v-.1211l.01562-.14062-.0625-.09375-.07812.04687-.15625.15625-.0625.08985-.07422.07812-.09375.21875-.07813.07422-.0625.09375-.07812.07813-.0625.09375-.07422.07812-.09375.0625-.07812.07813-.07813.07421-.10937.01563-.13672.01562-.10938-.04687v-.1211l.15625-.15625.04297-.10937.0625-.09375.04688-.10547.04687-.10937.0625-.09375.03125-.125.04688-.10547.0625-.25.04687-.10938.04297-.10547.04688-.10937.07812-.07813.1875-.125.10938-.04687h.30859l.13672-.01172.14062-.01563.10938-.04687-.07813-.07813-.125-.03125-.10547-.04687-.09375-.0625-.10937-.04688-.09375-.0625-.10547-.04296-.10938-.04688-.1875-.125-.10937-.04687-.10547-.04688-.25-.0625-.10937-.04687-.1211-.03125-.10937-.04688-.09375-.0586-.04688-.10937-.01562-.14062.10937-.04688.14063-.01562.13672.01562.14062-.01562.10938-.04688.0625-.08984.01562-.10938-.09375-.0625-.07812-.07812-.10938-.04688-.08984-.0625-.07813-.07421-.07812-.07813-.04688-.10938-.01562-.14062v-.3086l-.0625-.09374-.09375-.0625-.07422-.07422-.04688-.10938-.03125-.125-.0625-.09375-.07812-.07422-.125-.03515-.07422-.07422-.28125-.1875-.07813-.07813-.0625-.09375-.04296-.10546-.09375-.0625-.15625-.15625-.19922-.0625-.14063.01562-.10937.04688-.07813.07812-.04687.10938-.04688.10546-.0586.09375-.0625.09375-.3125.3125-.08983.0586h-.09375l-.0625-.09375-.04688-.10547.03125-.125.0625-.09375.03125-.125-.01563-.13672-.09375-.0625-.10937.04688-.1211.03125-.125.03125-.09374.0625-.09375.05859-.08985.0625-.10937.04687-.125.03125-.10938.04688-.09375.0625-.10547.04687-.0625-.09375-.04687-.10937.01562-.14063.04688-.10546.07812-.07813.07422-.07813.0625-.09375v-.15234l-.04687-.10937h-.2461l-.10937.04687-.03125.125-.03125.1211-.03125.125-.07422.04687-.14063.01563-.07812-.04688-.09375-.21875-.04688-.10547-.04296-.10937-.125.03125-.10938.04687-.14062.01563-.1211.03125-.10937.04687-.09375.0586-.10938.04687-.1211.03125-.14062.01563-.10937-.04688-.0625-.08984-.09375-.21875-.04297-.10938v-.125l.0625-.08984.08984-.0625.1875-.125.10938-.04688.10547-.04687.10937-.0586.10938-.04687.09375-.0625.10547-.04688.10937-.0625.10938-.04687.09375-.0625.10937-.04688.10547-.04687.09375-.0586.10938-.04687.14062-.01563.1211.03125.10937.04688.125.02734.10547.04688.32812.14062.10547.04688.32813.14062.09375.0625.10546.04297.125.03125.21875.09375.08985.0625.32812.14063.1211.03125.10937.04297.125.03125h.15625l.08985-.0586.01562-.10937.0625-.09375-.03125-.125-.07812-.07422-.0586-.09375-.0625-.09375-.07812-.07813-.09375-.07812-.1875-.125-.08985-.0586-.21875-.09375-.1875-.125-.08984-.0625-.0625-.09375-.07813-.07421-.0625-.09375-.04687-.10938-.03125-.125-.01563-.13672v-.58984l-.01562-.14063-.01563-.13671-.03125-.125-.01171-.14063-.01563-.14063-.03125-.12109-.23437-.23437-.0625-.09375-.01563-.10547.03125-.125.14063-.01563v-91.02734H165.54687l-.03906.04687-.24219.0625h-.36718l-.1211.0586-.24609.42969v.30468l.125.17969.24219.2461.1211.24218.67187.79297.30468.48828.1836.2461.24219.36328.24609.36718.67187.85547.1797.48438.18358.42969.125.73046.1797.48829.12109 1.46484.0625.48828v.91406l.12109 1.09766v5l-.0586.48828-.36718 1.33984-.1836.55079-.12109.42578-.36719.97656-.48828 1.21875-.24219.60937-.12109.1836-.1836.36719-.55077 1.27734-.0586.30469-.1211.30859-.125.30469-.05858.17969-.1211.91796-.0625.42579-.0625.12109-.0586.1836-.0625.18359-.24218.54687-.125.1836v.24609l-.1211.24219-.05859.18359-.1836.60938v.30468l-.0625.1836v.30468l-.05858.1211-.0625.55078v.17969l-.0625.24609v2.74219l-.1836.85547-.1211.18359-.18359.24219-.12109.1836-.1211.24608-.60937.97266-.2461.3086-.30468.48437-.17969.2461-.3086.36327-.36327.73438-.1211.24219-.18359.42969-.1836.24218-.42577.55078-.85547.73047-.3047.1836-.30468.24218-.1836.1211-.18359.1836-.54687.42577-.1836.0625-.36718.1211-.1836.18359-.24218.0625-.67188.1836h-.79297m12.78125 32.46484l-1.125.46875.375.9414 1.3086-.7539.46875-.5625-1.02735-.09375"/><path fill="#d3d3d3" fill-rule="evenodd" d="M196.63672 417.55469h-.9375l.46875.65625 1.02734.3789.84375-.09375.46485-1.03515-.1875.09375-.7461-.375-.9336.375M358.45704 479.375l-.0586-.54688v-.30468l.1211-.3086.0625-.24218.48828-.48829h.1211l.12109-.12109.1211-.0625h.18359l.2461-.0586h.36327l.2461.0586.12109.0625.24219.1836.0625.18359.1211.60937v.3047l-.1211.18358-.1836.3047-.18359.17968-.26172.26172h-1.71094l-.03906-.07813-.0625-.12109m6.95313-11.46484l-.0586-.1836v-1.15625l.0586-.1836.18359-.0625.1836-.05858h.18359l.24219-.0625.12109.0625.0625.73046-.0625.1836-.1211.1836-.12109.05858-.2461.55079-.12109.05859h-.24218l-.0625-.1211m10.0625-15.0625l-.1211-.18359v-.73047l.30469-.91406.1211-.1836.30468-.60937.1211-.30469.36718-.79296.1211-.2461.18359-.24219h.1836l.12109-.0625h.67187l.1211.0625.24609.2422.17969.12109.36719.30859.12109.1211.125.18359v.1211l.1211.05858.12109.125v.73047l-.0625.1836v.24219l-.0586.18359-.36719 1.09765-.12109.2461-.1211.24219-.125.0625-.24218.24218-.67188.3047h-.91406l-.42578-.1211-.67187-.48828m6.83593 26.72656l.02344-.48047.65625.09375.38672.38672h-1.0664"/><g clip-path="url(#a)"><path fill="#fff" fill-rule="evenodd" d="M143.9961 476.125v3.48438H144h-.0039V312.3828H144h-.0039V476.125"/></g><g clip-path="url(#b)"><path fill="#fff" fill-rule="evenodd" d="M144 479.60938V312.3828h268.2539v47.5664l-1.21093 1.20704 1.21094 1.21094 1.20703-1.21094-1.20703-1.20703v-47.5664h17.41796v58.30468l-.92187.92188.92188.92187.9453-.92188-.9453-.92187v-58.30469h38.3203v167.22656H144"/></g><path fill="#9be0d9" fill-rule="evenodd" d="M412.2539 362.36719l-1.21093-1.21094 1.21094-1.20703 1.20703 1.20703-1.20703 1.21094m17.41796 10.16406l-.92187-.92188.92188-.92187.9453.92188-.9453.92187"/><g clip-path="url(#c)"><path fill="#fff" fill-rule="evenodd" d="M467.99219 479.60938h.0039V312.3828h-.0039.0039v167.22656h-.0039"/></g><path fill="#ff3030" fill-rule="evenodd" d="M345.92969 453.32813h7.6914v-10.14844h-7.6914v10.14844"/><path fill="azure" fill-rule="evenodd" d="M347.76172 445.01563h.83203v5.73828h3.19531v.74218h-4.02734v-6.48046"/><path fill="#00f" fill-rule="evenodd" d="M387.04297 435.90625h8.61719v-10.14453h-8.6172v10.14453"/><path fill="azure" fill-rule="evenodd" d="M388.875 427.59375h.83203v2.82422h3.28516v-2.82422h.83594v6.48047h-.83594v-2.91406h-3.28516v2.91406h-.83203v-6.48047"/><path fill="#00f" fill-rule="evenodd" d="M219.8164 415.0039h8.6172v-10.14452h-8.6172v10.14453"/><path fill="azure" fill-rule="evenodd" d="M221.64844 406.6914h.83203v2.82423h3.28906v-2.82422h.83203v6.48046h-.83203v-2.91796h-3.28906v2.91796h-.83203v-6.48046"/><path fill="#ff3030" fill-rule="evenodd" d="M352.89844 404.55469h7.6914v-10.14844h-7.6914v10.14844"/><path fill="azure" fill-rule="evenodd" d="M354.73047 396.23828h.83203v5.74219h3.19531v.73828h-4.02734v-6.48047"/><path fill="#ff3030" fill-rule="evenodd" d="M161.28516 376.6836h7.6914v-10.14844h-7.6914v10.14843"/><path fill="azure" fill-rule="evenodd" d="M163.11719 368.36719h.83203v5.74219h3.19531v.73828h-4.02734v-6.48047"/><path fill="#00f" fill-rule="evenodd" d="M376.58984 324.42578h8.6172v-10.14844h-8.6172v10.14844"/><path fill="azure" fill-rule="evenodd" d="M378.42188 316.10938h.83593v2.82421h3.28516v-2.82421h.83203v6.48046h-.83203v-2.91406h-3.28516v2.91406h-.83594v-6.48046"/><path fill="#ffffe0" fill-rule="evenodd" d="M338.6875 388.09375h22.17969v-10.1914H338.6875v10.1914"/><path fill-rule="evenodd" d="M342.1836 379.73438h.51171v6.29687h-.78906v-4.48828h-1.38672v-.5586l.5586-.0625.2539-.05468.22656-.08985.20313-.14062.17578-.21094.14063-.29297.10546-.39844m4.81641 0l.22656.01954.21875.05859.21094.08594.19531.1211.1836.15233.17187.17579.30078.41796.2461.4922.17968.54687.10938.58203.03906.58984-.03906.59375-.10938.58203-.17968.5547-.2461.5039-.30078.42578-.17187.17969-.1836.15234-.19531.125-.21094.09375-.21875.05469-.22656.01953-.23047-.01953-.21875-.05469-.20703-.09375-.19922-.125-.1836-.15234-.17187-.1797-.30078-.42577-.24219-.5039-.17968-.5547-.11329-.58203-.03906-.59375h.83594l.02734.5625.08204.50781.125.44141.16406.375.1914.30078.21094.21875.22266.13672.22656.04688.22656-.04688.22266-.13672.21094-.21875.1875-.30078.16406-.375.125-.4414.08203-.50782.03125-.5625-.03125-.5625-.08203-.5-.125-.4336-.16406-.36718-.1875-.29297-.21094-.21484-.22266-.1289-.22656-.04688-.22656.04687-.22266.1289-.21094.21485-.1914.29297-.16406.36719-.125.4336-.08204.5-.02734.5625h-.83594l.03906-.58985.11329-.58203.17968-.54688.2422-.49219.30077-.41796.17188-.17579.1836-.15234.19921-.1211.20703-.08593.21875-.0586.23047-.01952m5.08984 0h.50782v6.29687h-.78516v-4.48828h-1.38672v-.5586l.5586-.0625.25-.05468.23046-.08985.20313-.14062.17578-.21094.14063-.29297.10546-.39844m2.82422 2.17579h.78516l.01953-.31641.0625-.28516.09766-.2539.14062-.21485.17969-.17187.22265-.1289.26563-.08204.3086-.02734.23827.02344.22266.0625.20313.10156.17968.13672.14844.17187.11328.20703.07422.23828.02344.26172-.01953.26953-.0664.22657-.10938.1914-.15625.16797-.20313.16406-.2461.16797-.6328.38672-.53907.3125-.4375.3164-.34375.32423-.26562.33593-.1914.35157-.125.37109-.06642.39453-.02343.41797h4.21484v-.74219h-3.33594l.08594-.28125.11328-.23828.14844-.20312.1875-.1797.23047-.17187.27734-.17578.71875-.41406.41406-.20703.34766-.23047.27735-.25.22265-.26953.16016-.27735.11328-.28125.0625-.28515.01953-.28125-.03906-.38672-.1211-.34766-.1875-.30468-.2539-.26563-.30078-.21094-.34375-.16015-.38282-.09766-.40625-.03515-.43359.03515-.39844.09766-.35547.16797-.30468.23437-.25.30469-.1836.3711-.11719.44921-.03906.51563"/><path fill="#ffffe0" fill-rule="evenodd" d="M275.97656 435.90625h22.17969v-10.1914h-22.17969v10.1914"/><path fill-rule="evenodd" d="M279.47656 427.54688h.50781v6.29687h-.78515v-4.49219h-1.39063v-.55469l.5586-.0664.2539-.05078.23047-.08985.20313-.14062.17187-.21094.14453-.29687.10547-.39454m4.8125 0l.23047.01954.21875.05468.20703.08985.19531.1211.1836.14843.17187.17578.3047.42188.24218.49218.17969.54688.10937.57812.03906.59375-.03906.58985-.10937.58593-.1797.5547-.24218.5-.30469.42968-.17187.17969-.1836.15234-.1953.125-.20704.08984-.21875.0586-.23047.01953-.23047-.01953-.21875-.0586-.20703-.08984-.19531-.125-.1836-.15234-.17187-.1797-.30469-.42968-.24218-.5-.1797-.55469-.10937-.58593-.03906-.58985h.83203l.03125.5625.07813.5039.1289.44532.16016.3711.1914.30078.21094.22265.22266.13672.22656.04688.22656-.04688.22266-.13672.21094-.22265.1914-.30079.16016-.37109.1289-.44531.08204-.5039.02734-.5625-.02734-.5625-.08203-.5-.1289-.4375-.16017-.36329-.1914-.29297-.21094-.21484-.22265-.13281-.22657-.04297-.22656.04297-.22266.1328-.21093.21485-.19141.29297-.16016.36328-.1289.4375-.07813.5-.03125.5625h-.83203l.03906-.59375.10938-.57812.17969-.54688.24218-.49219.3047-.42187.17187-.17578.18359-.14844.19531-.1211.20703-.08984.21875-.05468.23047-.01954m5.08985 0h.51171v6.29688h-.78906v-4.49219h-1.38672v-.55469l.5586-.0664.2539-.05078.22657-.08985.20703-.14062.17187-.21094.14063-.29687.10547-.39454m2.82421 2.17579h.78907l.01953-.31641.0586-.28516.09765-.2539.14062-.21485.1836-.17187.22265-.1289.26563-.08204.30469-.02734.23828.01953.22656.0625.20313.10156.17968.14063.14844.17187.11328.20703.07031.23438.02735.26562-.02344.26953-.0664.22266-.10938.1914-.15625.17188-.19922.16406-.2461.16407-.63671.39062-.53516.3125-.4375.3164-.34765.32423-.26563.33593-.1875.35157-.125.37109-.07031.39063-.01953.42187h4.21093v-.74219h-3.33203l.08203-.28515.11329-.23438.14843-.20312.1875-.1797.23047-.17187.27735-.17578.71875-.41406.41406-.20703.34765-.23047.28125-.25.21875-.26953.16407-.27735.10937-.28515.0664-.28516.01954-.28125-.04297-.38281-.1211-.34766-.1875-.30859-.25-.26172-.30468-.21094-.34375-.16015-.38281-.09766-.40625-.03515-.4336.03515-.39844.09766-.35546.16406-.3047.23438-.24608.30468-.1875.375-.1172.44531-.03906.51954"/><path fill="#ffffe0" fill-rule="evenodd" d="M401.39453 468.76172h22.17969v-10.1914h-22.17969v10.1914"/><path fill-rule="evenodd" d="M404.89453 460.40234h.50781v6.29688h-.78515v-4.49219h-1.39063v-.55469l.5625-.0625.25-.05468.23047-.08985.20313-.14062.17578-.21094.14062-.29688.10547-.39453m4.8125 0l.23047.01954.21875.05468.20703.08985.19922.12109.1836.14844.17187.17578.30078.42187.24219.4922.17969.54687.11328.57812.03906.59375-.03906.59375-.11329.58203-.17968.55469-.24219.5-.30078.42969-.17188.17969-.18359.15234-.19922.125-.20703.08984-.21875.0586-.23047.01953-.22656-.01953-.21875-.0586-.21094-.08984-.19531-.125-.1836-.15235-.17187-.17968-.30078-.42969-.2461-.5-.17968-.55469-.10938-.58203-.03906-.59375h.83203l.03125.5625.08203.5039.125.44532.16406.375.1875.30078.21094.21875.22266.13672.22656.04688.22656-.04688.22266-.13672.21094-.21875.1914-.30078.16407-.375.125-.44531.08203-.5039.02734-.5625-.02734-.5625-.08203-.5-.125-.4375-.16407-.36329-.1914-.29297-.21094-.21484-.22266-.13281-.22656-.04297-.22656.04296-.22266.13282-.21094.21484-.1875.29297-.16406.36328-.125.4375-.08203.5-.03125.5625h-.83203l.03906-.59375.10938-.57812.17969-.54688.24609-.49219.30078-.42187.17188-.17578.18359-.14844.19531-.1211.21094-.08984.21875-.05469.22656-.01953m5.09375 0h.50781v6.29688h-.78515v-4.49219h-1.39063v-.55469l.5625-.0625.25-.05468.23047-.08985.20313-.14062.17187-.21094.14453-.29688.10547-.39453m2.82422 2.17579h.78516l.01953-.31641.0586-.28516.10155-.2539.13672-.21485.1836-.17187.22265-.1289.26563-.08204.3086-.02734.23827.01953.22266.0625.20312.10156.1797.14063.14843.17187.11328.20703.07031.23438.02735.26562-.02344.26953-.0664.22266-.10938.1914-.15235.17188-.20312.16406-.2461.16406-.6328.39063-.53907.3125-.4375.3164-.34766.32423-.26171.33593-.19141.35156-.125.3711-.07031.39062-.01954.42188h4.21094v-.74219h-3.33203l.08203-.28515.11719-.23438.14453-.20313.1875-.17968.23047-.17188.28125-.17578.71484-.41406.41797-.20703.34375-.23047.28125-.25.21875-.26953.16406-.27735.11329-.28515.0625-.28516.01953-.28125-.04297-.38281-.11719-.34766-.1914-.3086-.25-.26171-.30079-.21094-.34765-.16015-.3789-.09766-.40626-.03516-.4375.03516-.39453.09766-.35547.16406-.30469.23828-.25.30078-.18359.375-.11719.44531-.03906.51954"/><path fill="#fff" fill-rule="evenodd" d="M463.60938 487.33984v-4.38671h4.38671v4.38671h-4.38671"/></g></defs><use xlink:href="#d"/></svg>