<svg xmlns="http://www.w3.org/2000/svg" role="img" xmlns:xlink="http://www.w3.org/1999/xlink" viewBox="142.45 309.95 326.84 171.84"><defs><clipPath id="a"><path d="M144 437h1v43.32813h-1zm0 0"/></clipPath><clipPath id="b"><path d="M144 311.67188h1V435h-1zm0 0"/></clipPath><clipPath id="c"><path d="M144 311.67188h324v168.65625H144zm0 0"/></clipPath><clipPath id="d"><path d="M467 311.67188h1v168.65625h-1zm0 0"/></clipPath><clipPath id="e"><path d="M144 479h4v1.32813h-4zm0 0"/></clipPath><clipPath id="f"><path d="M147 479h3v1.32813h-3zm0 0"/></clipPath><clipPath id="g"><path d="M153 479h9v1.32813h-9zm0 0"/></clipPath><clipPath id="h"><path d="M160 479h3v1.32813h-3zm0 0"/></clipPath><clipPath id="i"><path d="M166 479h9v1.32813h-9zm0 0"/></clipPath><clipPath id="j"><path d="M173 479h3v1.32813h-3zm0 0"/></clipPath><clipPath id="k"><path d="M172 479h2v1.32813h-2zm0 0"/></clipPath><clipPath id="l"><path d="M180 479h8v1.32813h-8zm0 0"/></clipPath><clipPath id="m"><path d="M187 479h2v1.32813h-2zm0 0"/></clipPath><clipPath id="n"><path d="M186 479h2v1.32813h-2zm0 0"/></clipPath><clipPath id="o"><path d="M193 479h9v1.32813h-9zm0 0"/></clipPath><clipPath id="p"><path d="M200 480h3v.32813h-3zm0 0"/></clipPath><clipPath id="q"><path d="M199 480h2v.32813h-2zm0 0"/></clipPath><clipPath id="r"><path d="M206 479h9v1.32813h-9zm0 0"/></clipPath><clipPath id="s"><path d="M213 480h3v.32813h-3zm0 0"/></clipPath><clipPath id="t"><path d="M212 480h2v.32813h-2zm0 0"/></clipPath><clipPath id="u"><path d="M220 479h8v1.32813h-8zm0 0"/></clipPath><clipPath id="v"><path d="M227 480h2v.32813h-2zm0 0"/></clipPath><clipPath id="w"><path d="M233 480h8v.32813h-8zm0 0"/></clipPath><clipPath id="x"><path d="M240 480h3v.32813h-3zm0 0"/></clipPath><clipPath id="y"><path d="M246 479h9v1.32813h-9zm0 0"/></clipPath><clipPath id="z"><path d="M253 479h3v1.32813h-3zm0 0"/></clipPath><clipPath id="A"><path d="M260 479h8v1.32813h-8zm0 0"/></clipPath><clipPath id="B"><path d="M266 480h3v.32813h-3zm0 0"/></clipPath><clipPath id="C"><path d="M273 478h8v2.32813h-8zm0 0"/></clipPath><clipPath id="D"><path d="M287 478h7v2.32813h-7zm0 0"/></clipPath><clipPath id="E"><path d="M300 478h7v2.32813h-7zm0 0"/></clipPath><clipPath id="F"><path d="M314 477h6v3.32813h-6zm0 0"/></clipPath><clipPath id="G"><path d="M329 476h3v4.32813h-3zm0 0"/></clipPath><clipPath id="H"><path d="M343 476h2v4.32813h-2zm0 0"/></clipPath><clipPath id="I"><path d="M355 476h4v4.32813h-4zm0 0"/></clipPath><clipPath id="J"><path d="M369 476h3v4.32813h-3zm0 0"/></clipPath><clipPath id="K"><path d="M381 477h6v3.32813h-6zm0 0"/></clipPath><clipPath id="L"><path d="M393 478h8v2.32813h-8zm0 0"/></clipPath><clipPath id="M"><path d="M391 480h4v.32813h-4zm0 0"/></clipPath><clipPath id="N"><path d="M406 479h8v1.32813h-8zm0 0"/></clipPath><clipPath id="O"><path d="M406 479h3v1.32813h-3zm0 0"/></clipPath><clipPath id="P"><path d="M419 480h9v.32813h-9zm0 0"/></clipPath><clipPath id="Q"><path d="M418 478h3v2.32813h-3zm0 0"/></clipPath><clipPath id="R"><path d="M433 479h8v1.32813h-8zm0 0"/></clipPath><clipPath id="S"><path d="M433 478h2v2.32813h-2zm0 0"/></clipPath><clipPath id="T"><path d="M446 480h9v.32813h-9zm0 0"/></clipPath><clipPath id="U"><path d="M446 479h3v1.32813h-3zm0 0"/></clipPath><clipPath id="V"><path d="M459 479h9v1.32813h-9zm0 0"/></clipPath><clipPath id="W"><path d="M144 466h4v2h-4zm0 0"/></clipPath><clipPath id="X"><path d="M144 452h4v3h-4zm0 0"/></clipPath><clipPath id="Y"><path d="M466 451h2v3h-2zm0 0"/></clipPath><clipPath id="Z"><path d="M144 439h4v3h-4zm0 0"/></clipPath><clipPath id="aa"><path d="M466 438h2v3h-2zm0 0"/></clipPath><clipPath id="ab"><path d="M465 439h3v3h-3zm0 0"/></clipPath><clipPath id="ac"><path d="M144 426h4v2h-4zm0 0"/></clipPath><clipPath id="ad"><path d="M466 425h2v3h-2zm0 0"/></clipPath><clipPath id="ae"><path d="M465 425h3v3h-3zm0 0"/></clipPath><clipPath id="af"><path d="M144 412h4v4h-4zm0 0"/></clipPath><clipPath id="ag"><path d="M466 412h2v3h-2zm0 0"/></clipPath><clipPath id="ah"><path d="M465 412h3v3h-3zm0 0"/></clipPath><clipPath id="ai"><path d="M144 397h3v7h-3zm0 0"/></clipPath><clipPath id="aj"><path d="M466 399h2v3h-2zm0 0"/></clipPath><clipPath id="ak"><path d="M144 384h4v6h-4zm0 0"/></clipPath><clipPath id="al"><path d="M466 386h2v4h-2zm0 0"/></clipPath><clipPath id="am"><path d="M144 371h3v6h-3zm0 0"/></clipPath><clipPath id="an"><path d="M466 373h2v4h-2zm0 0"/></clipPath><clipPath id="ao"><path d="M144 358h4v5h-4zm0 0"/></clipPath><clipPath id="ap"><path d="M466 359h2v3h-2zm0 0"/></clipPath><clipPath id="aq"><path d="M144 345h4v5h-4zm0 0"/></clipPath><clipPath id="ar"><path d="M466 345h2v4h-2zm0 0"/></clipPath><clipPath id="as"><path d="M144 331h4v6h-4zm0 0"/></clipPath><clipPath id="at"><path d="M466 332h2v3h-2zm0 0"/></clipPath><clipPath id="au"><path d="M144 319h4v3h-4zm0 0"/></clipPath><clipPath id="av"><path d="M466 318h2v2h-2zm0 0"/></clipPath><clipPath id="aw"><path d="M465 318h3v3h-3zm0 0"/></clipPath><g id="ax" clip-path="url(#clip1)"><path fill="#fff" fill-opacity="0" fill-rule="evenodd" d="M0 0h1000v1000H0zm0 0"/><path fill="#d3d3d3" fill-opacity="0" fill-rule="evenodd" d="M162.15234 355.86719l-.23437.29297.0586.23437.11718.17188.17578.23437.29297.34766.11328.0586.11719-.17188.0586-.23438.17577-.17578.46485-.17578h.69922l.23437.29297.28906.8164.0586.17579.17578.23046.35156.23438.69922.69922.17188.17578.23437.34765.23438.41016.28906.58203.41015.46485.23047.23437.23438.17578.11719.23047.17578.29297.17187 1.16406v.23438l.0586.28906.05859.11719.11719.11719.34765.41015.11719.17188.17578.17578.17578.23437.11719.17188.17188.35156.05859.23438.23437.40625.23438-.0586-.17578.17578-.0586.92969h-.58203l-.23437-.11328-.34766.11328-.11719.11719-.05859.29297-.0586.17578-.11718.17187-.46484.29297-.0586.23438-.0586.11328v.64453l.0586.17187v.41016l.0586.0586v.40624l.05859.40625.11719.17579.05859.05859.23047.64062-.0586.29297v.69922l-.05859.58203v.23438l-.0586.23047-.05468.35156v1.92187l.05469.1172h.42578l-.36719.11718-.02344.35156.89063 1.16797 1.74219.53906 1.33984.35938v.53906l.08984.8086.53516.71484 1.51953.26953.89063-.08594.08984 1.16406.53516.1797 1.16015-.1797 2.05469-.98437 1.16016-.36328 1.8789-.17578 1.69531-.1797-.17968.71876-1.51563.08594-1.25.08984-.80469.26953-1.07421.8086.26953.71875.53515.89843-.17968.625-.26563.8086.26563 1.07812.625.89844.80468.17969 1.25-.1797-.26562.72267.09766.5039.05468.29297v.17188l.0586.29296v.40625l.17578.1172.35156.11718h.40625l.29297-.17578.11328-.11719.0586-.11719.11718-.23047.0586-.17578.35156-.46484.23047-.17578.17578-.0586.17578.0586.0586.17578.11718.98828.05469.46875.0586.17188.11718.23437.17578.0586.8164.05859h.28907l.11719.23437.05859.40625.0586.35156v1.10547l.11718.29297.11719.34766.28906.69922.17578.35156.58203.7539.35157.17579.17187.0586.46875.23437.64063.46484.34765.23438.29297.17578.29297.05468.23047.0625.8164.34766.29297.17578.11328.17188.35157.35156.11719.17578.52343.64063v.28906l.0586.35156v.34766l.05859.35156.0586.28906.11718.0586.17188.05859h.17578l.58203.23437.17578.1172.17578.28905.17578.23438.11328.23437.29297.23047.11719.11719v.41016l.0586.05468.28906.23438.23437.11719.0586.11718.11718.17188.0586.11719.23047.23437.05859.17578.23437.0586.1172.05859-.1172.11328-.05859.11719v.11719l-.11719.29296-.11719.28907v.58203l.17579.11719.11718.05859.0586.11719.11719.11719.11328.05859.17578.34765.0586.35157.05858.40625v.17578l-.05859.17578-.11719.69922v.17187l.1172.17579.29296.29296h.40625l.17578.1172.11719.17187.11719.29296v.23438h-.52735l-.23047-.23438h-.23437l-.17578.0586-.0586.69922.0586.34765.11719.17579.17578.41015.11718.23047.28907.46875.17578.05469h.52344l.23437.0586.75781.64062.0586.29296v.23438l.05859.0586.23047.34765v.35156l-.11719.17188v.29297l.29297.28906.29297.17578.17187.0586.29297.17577.29297.1172.58203.40624.28906.23438.29297.17578.21875.16015.01563.01172.23047.17579.64062.52343.17578.23438.1172.17578.17577.17578.11328.17188v.64062l.1172.17578.46874.11719.58203.11719.23438.05859.23047.11328.29297.11719.11328.0586.58593.35156.28907.17187.17578.0625.17578.05469.17578.0586.69922.35155.28906.17579.23438.05468.28906.17578.23437.1172.64063.40624.29297.11719.17187.0586.23438.05859.41015.05859.23047.0586.23438.11718.0586.17188-.41017.17578.46875.0586.0586.29296.11328.23438.17578.05468.23438.0586.17578.05859.40625.11719.64062.23437.11719.17188.0586.23437v.17578l-.0586.1172-.0586.40624.23438.23438.11719.05859.34766.11719.64062.23047.17578.11718.28906.1172.17578.17577.23438.46485.58203 1.10546.17578.17579.34766.17578.17578.11719.35156.11718 1.04688.52344.23437.0586.46485.11327.29297.0586.46484.17578.75781.58203.23438.23438.34765.46484.17578.17578.28907.23438.8164.69921.29297.17579.28906.28906.29297.17578.29297.28906.69531.64063.17578.17578.29297.23437.28907.23438.46875.28906.64062.58203.34766.23438.23437.29297.34766.34765.35156.46485.9336.99218.34765.40625.11719.17579.23437.05859.11328.11719.64454.17578.23047.11328.23437.0586.29297.17577.23047.1172.9336.69921.40624.40625.23438.17578.40625.17578.23437.11719.8164.34766.34766.23437.23438.11719.29297.28906.23047.11719.7578.35156.35157.17188.23047.05859.29297.11719.23437.0586.8711.17577h.8164l.46875.23047.17188.0586.875.69921.46484.1172.29297.05858.17578.0586.23047.0586.46875.05859.34766.05859.35156.0586.40625.05859h.29297l.17187.0586v.23046l.17578.17578h.29297l.34766.0586.35156.05859.69922.11719h.64063l.46484-.23438.29297-.17578.17187-.11719.41016-.17187.28906-.17578.9336-.46485.46875-.29297.52343-.29296.46485-.17188.46484-.17578 1.05078-.46485.28906-.11718.41016-.11719.28906-.11719.52735-.17578 1.51562-.69922.58203-.34765.28907-.0586.29297-.0586.34765-.11718.875-.23047.35156-.11719h.11329l.23437-.05859.875-.23437.23438-.0586h.8125l.35156-.0586.8164-.11718.17188-.0586.35156-.05468.29297-.0586.23047-.05859.8164-.17578.17579-.0586h.34765l.23438-.05859.46484-.11718.75781-.17188.23438-.0586h.34765l.41016-.11718.28906-.0586 1.28516-.05859h.28906l.41016-.0586.23047-.05858h.17578l.875-.1172h.40625l.41015-.11718h.34766l.35156-.11328.8711-.0586h1.75l1.04687.28907.41016.11719.28906.11718.35156.11719.28907.11719 1.05078.17187.28906.0586h.29297l.29297.05859.17187.0586.41016.05859.17187.0586.1172.05858h.11718l.11719.0586.35156.0586h.11328l.41016.0664 1.92187.39453 1.92578.39453 1.51953.44922 1.69532.71875 2.14453.80469 1.60547-.71875 1.42968-.80469 1.16016-1.07813 1.25-.44921 3.03516-.71875 1.875-.35938 2.14453-1.34765 2.23437-1.25391 2.5-1.25781 1.69531-.44922 1.78516-.17969 1.16016-.26953.625.53906 1.33984-.26953.71485-.98828.98437-1.34375.44531-.17969.80469-.35937 1.875-.53907 1.78516-.44921 1.25-.26954 1.16015-.08984 1.69922-.08984 1.96094-.26954 1.25-.08984h.53906l.625-.08984h.89063l2.14453-.17969 2.41015-.17969 2.58985-.08984 1.69531.17969 1.60938.08984 1.42968.35938 1.16016.71875 1.875.98828 1.16015 1.52734.26563.71484.6289.08985.35548.89844.53515.53906.53516 1.52734 1.07422.35938h.53515l-.80469.53515.08985 1.70703.71484 2.69532.89063.80468.89453.98829.71484 1.2578 1.78516.53907 1.51953-.17969.35547 1.34375 1.60937-.80469.98047-.53906.26953.26953.31641-.21484.21875-.14453.80078.44922.44922-.35938h.35547l.53515-.26953.53907-.71875.53515-.26953.625-.98828 1.16016.44922.83984.3711 1.39454.61718 1.6953-.17969h1.60548l1.78515.08985.17969-1.70704.53516-1.34375.80468.26954.4922.84765.40233.40625-.08984.53906v.35938l.71485.44922.71093-.26953h1.42969l.35938.98828.4453 1.25781.71485 1.34375 1.25.6289 1.69531.62891.71485-.17969.17969-.53906.98046-.08984.44922.35937.08594 1.25782-.26563.6289-.53515.17969v.53906l.71484.98438.26563.53906.98437.98828.80078 1.07813-.26562.35937-.08985.89844-.625 2.33203-.35546 2.0664-.08985 1.79298-.17969.71875-.08984.53906v1.4375l-.98047 1.88281-.35937 1.70703-.53516.89844-.80469 1.16797-.26562.53906 2.05469 1.2539.08593.35938-.35546.53906-.08985-.17968v.80859l.08985 1.4375-.44532.71484-1.07422.09375-.26562.71485.53515.89844.8047.71875 1.16015.80859 1.33984.26953.44531.35938-.35546.44921-1.78907-.08984-1.25-.44922-.71484-.71875-.625-.08984-.17578 3.58984-.1875 1.3086h89.35937V311.70313h-55.26953v49.08203l.76172.125 3.28906.54296 2.02344 2.83594v2.7539l2.35156.33204 2.34766.33203h4.05078l-1.3789 4.16016-2.02344.70703-2.02344.70312-.54297.34375-2.59375 1.6172-.1875.11718-2.02344-2.07813-.73046-2.74218-2.67188-2.07813-1.375-3.5-.0664-.08203-1.95704-2.67188 2.75-1.41796v-49.08204H294.42187v91.41407l.1172.03125.1328.01172.07422.07421.10547.04688.08985.0586.08593.05859.08985.0586.29687.29687.0586.08984.03125.11719.02734.11719.01563.13671-.03125.1172-.0586.08983-.0586.08594-.04296.10547-.04688.10156-.02734.1211v.14453l.17578.26953.14844.14844.07422.08594.07422.07421.04296.10547.0625.08985.0586.08593.04297.10547.0586.08985.04687.10156.04296.10547.0586.08594.11719.17968.07421.07422.0625.08594.0586.08984.04297.10547.0586.08985.05858.08593.0625.08985.0586.08984.04297.10156.11719.17969.07421.07422.0586.08594.07422.07421.08984.0586.10547.04687h.14844l.1328-.01562.13282.01562.10156-.04687.07422-.07422.04688-.10156-.01563-.13281v-.14844l-.04687-.10547-.02735-.11719-.04687-.10156-.02735-.1211-.04296-.10156-.0625-.08984-.04297-.10156-.04297-.10547-.03125-.11719-.01563-.13281-.01171-.13672.08593-.0586.0586-.08593.12109-.03125.04297.10547.01562.1328v.1172l.0586.10156.0586.08984.08983.0586.14844.14843.0586.08985.04296.10547-.01171.10156.08593.0586.10547.04687.08594.0586.08984.05858.07422.07422-.11719.02735-.10546.04687-.08594.0586-.07422.07421-.0586.08985-.0625.08594-.02734.12109-.04687.10156-.04297.10547-.03125.11719-.01172.13281-.01563.13281v.14844l.02735.11719.04687.10547.04297.10156.0586.08984.07421.07422.08985.0586.07422.07421.08984.0586.0586.08984.04296.10547.04688.10156.11719.03125.1328.01563h.14845l.11718-.03125.10547.04297.04297.10547.04688.10156.02734.1211L299.5 410l.02734.11719.03125.1211.02735.11718.10547.04297.10156.04687.13281-.01562.14844.14844.0625.08593.07422.07422.07031.07422.08984.0625.10547.04297.10156.04297.1172.03125.13671.01562.11719-.03125.07422-.07422.02734-.11718-.01172-.13282-.03125-.12109-.02734-.11719.04297-.10547h.11719l.08984.0625.11719.02735h.14843l.13282.01562h.14843l.13282.01563.1328-.01563h.14845l.1328-.01562.13282-.01172.13672.01172.11719-.02735.13281-.01562.1914-.0586-.05859.17579-.01562.1328-.02735.1211-.01562.13281-.0586.08594-.1328.01563-.10548.04687-.10546.04297-.1172.03125-.11718.02735-.26563.03125h-.14843l-.13281.01562-.07422.07422.05859.08594.14844.14843.11719.1797.07421.0703.08985.0625.08984.0586.08594.0586.08984.05858.10156.04297.10547.0625.10547.04297.08594.0586.10547.04687.10156.04297.17969.11719.0586.08984-.04298.10156-.04687.10547.01562.13281.22266.22266.0586.08985.04296.10156.03125.1211.04297.10155.01563.13282.03125.11718.01171.13672.03125.11719.14844.14844.10156.04297.10547.04296.1172.03125.1328.01563.13672.01563h.11719l.11719-.03125.08984-.0586.04297-.10547.04688-.10156.04296-.10547.03125-.11719.01172-.1328v-.14845l-.01172-.1328-.01562-.13282-.03125-.11719-.04297-.10547-.04688-.10547-.04296-.10156-.04297-.10547-.01563-.13281.01563-.13281.02734-.11719.03125-.11719.02735-.1211.04687-.10155.08984-.0586.08594-.0625.07422-.07422.08984-.05859.22266-.22266.0586-.08593.07421-.07422.11719-.17969.0586-.08594v-.14844l-.07423-.07421-.10156-.04688-.10547-.04297-.10156-.04297-.0586-.08984-.04687-.10547-.02734-.11719.08984-.05859.11719-.03125.10156-.04297.17969-.11719.14844-.14843.01172-.13282-.01172-.10546-.08985-.0586-.1328.01563h-.14845l-.1328.01562-.13282-.01562-.1211-.03125-.08593-.0586-.07422-.07422-.0586-.08984-.0625-.08594-.11718-.17969-.0586-.08593.03125-.1211.08594-.05859.1211-.03125.05859-.08594v-.1211l-.03125-.11718-.0586-.08984-.05859-.08594-.04687-.10547-.02735-.11719-.01562-.1328.0586-.08985.07421-.07422.08984-.0586.1172-.17968.07421-.07422.0586-.08594.14843-.14844.1211-.03125.1328-.01562.13282.01562.07422.07422.04297.10547.01562.13281-.03125.1172-.11719.03124-.1328.01172-.14844.14844-.04297.10547-.04688.10156-.02734.1211-.03125.11718v.14844l.03125.11719.04297.10546.05859.08985.07422.07031.07422.07422.11719.03125.12109.02734.11719-.02734.1328-.01563h.1172l.08984.0586.07422.07422.04687.10546.0586.08594.10156.04688.13281.01562.10547.04297.08594.0586-.01172.10546-.07422.07422-.17969.11719-.05859.08984-.08984.0586-.07032.07422-.07421.07421-.0625.08985-.02735.11719-.01562.1328.01562.13282-.01562.13281v.14844l.01562.13281.02735.1172.03125.12108.07421.07422.08985.0586.08594.0586.08984.05858.11719.03125v.08594l-.10157.04688-.08984.0586-.26563.03124-.11718.02735h-.14844l-.10547.04296-.10156.04688-.0586.08984-.0625.23438-.01171.13281-.03125.1211-.01563.1328v.29298l-.01172.1328.01172.13673.01563.1328.1328.01563.13282.01172.1211.03125.08593.0586.07422.07421.04688.10547.04296.10157.01563.1328v.44532l-.01563.13281v.44532l.03125.26562.02735.11719.01562.13281.03125.11719.08594.21094.03125.26562v.14844l-.03125.11719-.02734.11718-.03125.1211-.02735.11719-.03125.11718-.03125.1211-.01171.1328-.01563.13282.08984.0586.1172-.03125.10155.01562.04688.10547-.03125.26562v.44141l-.04297.10547-.04688.10547-.04296.10156-.04297.10547-.0586.08594-.03125.12109-.04296.11719-.03125.11719-.01563.1328.01563.13282.05859.08984.10547.04688.08594.0586.05859.08593-.01172.13672-.03125.11719-.04297.10156v.44531l-.01562.13281v.14844l-.03125.11719-.04297.10547-.02735.11719-.04687.10546-.04297.10157-.03125.12109-.02734.11719-.03125.13281-.03125.11719-.02735.11719-.04297.10546-.03125.1172-.03125.12108-.01171.13282-.01563.13281v.29688l.02734.11718v.14844l.04688.39844.02734.11719.0586.08984.12109.03125h.14844l.13281-.01563.0586.08985v.11719l-.0586.08984-.08984.0586-.10157.04296-.10546.04688-.08985.05859-.08594.0586-.13671.01562-.1172-.03125-.1328-.01563-.10157.04688-.0625.08594-.01172.13671-.01562.13282-.03125.11719-.02735.11718-.01562.13281-.03125.1211v.29687l.01563.13282.03125.11718v.14844l.01171.13281v.14844l-.02734.11719-.04688.10156-.02734.1211-.03125.11718-.0586.08985-.07421.07421-.10156.04297-.10547.04688-.11719.02734-.1211.03125-.10156-.04687.0586-.08594.10547-.04688.02734-.11718.03125-.11719.02734-.1211.03125-.11718v-.14844l.01563-.13281-.03125-.11719-.04297-.10547-.10547.01563-.07422.07422-.10156.04296-.08984.0625-.07422.07422-.04297.10157-.01563.1328-.03125.1172L304.25 426l-.03125.11719-.02734.11719-.03125.12109-.02735.11719-.03125.11718-.04297.10547-.08984.0586h-.08984l-.1172-.03125-.03124-.08594.01562-.13672-.03125-.11719v-.14844l-.01171-.1328v-.14844l-.0625-.23438-.02735-.1211-.04297-.10156-.04687-.10546-.0586-.08594-.05859-.08985-.04297-.10546-.0625-.08594-.14844-.14844-.0703-.07422-.10548-.04687-.10547-.04297-.10156-.04297-.29687-.29688-.08985-.07421-.08594-.0586-.10546-.04297-.08985-.0625-.08594-.0586-.10546-.04296-.08985-.0586-.08594-.0625-.07421-.0703-.10547-.04688-.08594-.0586-.10547-.04296-.08984-.0625-.10156-.04297-.10547-.04297-.08594-.0586-.10547-.04687-.10547-.04297-.10156-.04687-.08985-.0586-.10156-.04297-.10547-.04296-.08984-.0625-.11719-.02735-.13281-.01562-.13281.01562H299.75l-.13281.01563-.11719-.03125-.08984-.0586-.07422-.07422-.08985-.05859-.10156-.04688h-.14844l-.12109-.02734-.10156-.04297-.07422-.07422-.11719-.17968-.08984-.0586-.10156-.04297-.08985-.0625-.10547-.04296-.08984-.0586-.08594-.0586-.10547-.04687-.0586-.08594-.05858-.08984-.04297-.10547-.04688-.10156-.07422-.07422-.08594-.0586-.07421-.07421-.08985-.0586-.22265-.22265-.04297-.10547-.03125-.26563.10547-.04296h.14453l.10547.04296.07421.07422.08985.0586.08594.0586.10546.04687.08985.05859.14844.14844.0703.07422.14845.14843.0625.08594.07421.07422.08594.0586.07422.07421.08985.0625.08984.0586.08594.05859.26953.17578.10156.04688.10547.04296.10156.04297.04688-.07421.05859-.08594.07422-.07422.07031-.07422.10547.04297.07422.07422.0586.08984.04296.10156.04688.10547.04296.10547.1211.02735.11719-.02735.07421-.08984.04297-.10547.0586-.08985.07422-.07421.10546-.04297.1172-.02735.1328.01172.08985.0586.14844.14843.05859.08985.04297.10547.04687.10156.04297.10547.04297.10156.10547.04688.10547.04296.13281.01563.08594-.0586.0586-.08984.07421-.07422.10547-.04297.11719.02735.10547.04687.10156.04297.10547.04297.10156.04688.17969.11718v.11719l-.01563.13281.01563.13281.01562.13672.0586.08594.10156.04688.1211.02734.11718.03125h.14844l.11719-.03125.05859-.08984.17969-.1172.05859-.08983.07422-.07422.0586-.08594.11718-.17969.17969-.11719.11719.03125.08984.0586.04297.07422-.01563.1328v.1172l.08985.05859h.14843l.13282-.01563.1328-.01171.26563-.03125.10547-.04297.11719-.03125.1211-.02735.07421-.07421.07031-.07422.0625-.08985-.01562-.10547-.04688-.10156-.10156-.04297-.10547-.01562-.11718.02734-.26563.03125h-.14844l-.07421-.07422-.08985-.0586-.11719-.03124-.11718-.02735-.13282-.01562h-.14843l-.13282.01563h-.29687l-.10547-.04688-.14844-.14844-.04297-.10156-.05859-.08984.22266-.22266.08593-.0586.10547-.04296.11719-.03125.13281-.01563.13281.01563.13672.01562.10157.04297.1328-.01172.08985-.0625.10156-.04297.0625-.08984-.04687-.10156-.08984-.0586-.1172-.03125-.10155-.04296-.0586-.08985-.0625-.08984v-.11719l.01563-.13281.10547-.04688.07421-.07031v-.1211l-.08984-.05859-.03125-.11719.08985-.05859.07421-.07422.04297-.10547.0586-.08984.04687-.10156.01563-.13281v-.14844l-.04688-.10547-.04297-.10156-.08984-.0586-.13281-.01562-.10157-.04297-.13671-.01563-.1172-.03125h-.4453l-.13282-.01562-.13281-.01172-.13281-.01563-.11719-.03125h-.14844l-.13281-.01562-.13281-.01172-.26563-.03125-.1211-.04297-.08593-.0586-.07422-.07421v-.14844l.01172-.13281.10547-.04688.10156-.04296.13281-.01563h.15235l.13281-.01562h.29297l.1211.03125.10156.04296.08984.0586.23438.0625.12109-.04688.08984-.05859.10156-.04297.13282-.01562.10547.04296.10156.04688.13281.01172.1211-.02735h.14453l.12109-.03125.11719-.02734.10547-.04687.07421-.07422.08594-.0586.14844-.14843.0586-.08594.04687-.10547.02734-.11719.01563-.10547-.10156-.04296-.08985-.0586-.11719-.03125-.10546-.04297-.08985-.0625-.07422-.08594-.07422-.07421-.10156-.04297-.10547-.04688-.10156-.04297-.0586-.08984-.04687-.10156-.08594-.21094-.0625-.08594-.05859-.08984-.07422-.07422-.08594-.0586h-.26953l-.11719.03126-.08984.05859-.10156.04297-.13281.01562-.10547-.01562-.02735-.11719-.0625-.08984-.11718-.03125-.10157-.04297-.14843-.14844-.03125-.11719-.01563-.10546.07422-.07422.17969-.1172.11719-.02733.11718-.03125.13672.01562.10156.04297.10547.04297.10156.04687.10547.04297.1172.03125.1328.01563.1172.02734.1328.01563.10547-.01563.08985-.0586-.07422-.07421-.10547-.04297-.07422-.07422-.07422-.08984-.14844-.14844-.08593-.0586-.08985-.05859-.07422-.07422-.08984-.0586-.10156-.04687-.1211-.02734-.10156-.04688-.10547-.04296-.11719-.03125-.10156-.04297-.1211-.03125h-.14843l-.11719.03125-.10546.04297-.08594.0625-.17969.11718-.08594.0586-.08984.0586-.10547.04687-.08594.05859-.10547.04297-.10156.04297-.10547.04687-.07422.07422-.05859.08985-.0586.08593-.04687.10547-.0586.08594-.07421.07422-.13281-.01172-.1172-.03125h-.11718l-.07422.07422-.08984.0586-.07422.07421-.08984.0586-.08594.05859-.10547.04687-.10156.04297-.13672.01563-.10156-.04297-.14844-.14844-.10547-.04688h-.08594l-.10547.04688-.10156.04297-.1211.03125-.11718-.03125-.07422-.07422v-.11719l.03125-.1211.07422-.0703.0586-.08985.07421-.07422.11719-.03125.10547-.04296h.29297l.13281-.01563.13672-.01563.10156-.04296.08985-.0586.10156-.04687.08984-.0586.13281-.01171.08985.05859.13281.01172.08984-.0586.08594-.05859.10547-.04297.08984-.0586.08594-.0625.08985-.05859.14843-.14843.0586-.08594.05859-.08985.10547-.04296.13281-.01563.11719.02735.1211.03125.05859-.0586.05859-.08984.03125-.26563.02734-.11719.10547.01172.13281.01563.10157-.04297.08984-.0586.0586-.08984.07421-.07422.0586-.08984.04687-.10156.01172-.13281-.01172-.13282-.04687-.10547-.14844-.14843-.0586-.08985-.05859-.08594-.04297-.10546v-.44532l.01563-.1328v-.14845l.01172-.1328-.0586-.0586-.08984.0586-.10156-.04298-.17969-.11719-.08594-.05859-.0625-.08984-.0586-.08985-.07421-.07421-.08594-.0586-.1211.03125-.10155.01172-.10547.04688-.08594.05859-.10547.04297-.14844.14844-.08984.05859-.08594.0586-.08984.0625-.10547.04296-.13281.01563v-.1211l.10547-.04297.11718-.03125.07422-.0703.04297-.10548v-.14844l-.02734-.11718-.14844-.14844-.13281-.01563h-.14844l-.11719.03125-.10547.04297-.10156.04297-.08984.0625-.11719.02735-.07422-.07422.01172-.13281-.04297-.10157-.04297-.10547-.08984-.05859-.11719.02734-.1211.03125-.11718.03125-.10156.04297-.1211.03125-.10156.04297-.10547.04297-.08984.0586-.10156.01562v-.11719l.01562-.13281-.0586-.08985-.07421.04297-.14844.14844-.0586.08985-.07421.07421-.04688.10547-.04296.10156-.07422.07422-.0586.08985-.07422.07422-.05859.08593-.07422.07422-.08984.0625-.07422.07031-.07422.07422-.10156.01563-.13281.01562-.10547-.04296v-.1211l.14843-.14844.04297-.10156.0586-.08984.04687-.10156.04297-.10547.0586-.08985.03124-.11719.04297-.10156.03125-.1211.02735-.11718.04687-.10547.04297-.10156.04297-.10547.07422-.07031.08984-.0625.08985-.0586.10156-.04296h.29687l.26563-.03125.10547-.04297-.07422-.07422-.11719-.03125-.10547-.04297-.08984-.0586-.10156-.04687-.08985-.0586-.10156-.04296-.10547-.04297-.08984-.0625-.08594-.0586-.10547-.04296-.10156-.04297-.1211-.03125-.11718-.03125-.10157-.04297L297.5 410.25l-.10156-.04297-.08985-.0586-.04296-.10546-.01563-.13281.10156-.04297.13281-.01563.13672.01563.13282-.01563.10156-.04297.0586-.08984.01562-.10547-.08985-.0586-.07421-.07421-.10157-.04297-.08984-.0586-.14844-.14843-.04297-.10547-.01562-.13281v-.29297l-.0586-.08985-.08984-.05859-.07422-.07422-.04297-.10547-.03125-.11718-.0586-.08985-.07421-.07422-.11719-.02734-.07422-.07422-.08984-.0586-.08984-.0625-.08594-.05859-.07422-.07421-.0586-.08594-.04687-.10547-.08594-.0586-.14843-.14843-.19532-.0586-.1328.01563-.10157.04297-.07422.07422-.04688.10156-.04296.10547-.0586.08984-.0586.08594-.29687.29687-.08984.0586h-.08594l-.0625-.08594-.04297-.10547.03125-.11719.0586-.08984.02734-.11719-.01172-.13281-.08984-.0625-.10547.04688-.11719.02734-.11719.03125-.26953.17578-.10156.04688-.11719.02734-.10546.04687-.08985.0586-.10156.04297-.0586-.08594-.04687-.10547.01563-.13281.04687-.10547.07031-.07422.07422-.07031.0586-.08985v-.14843l-.04297-.10547h-.23829l-.10156.04687-.03125.11719-.02734.11719-.03125.1211-.07422.04296-.13281.01563-.07422-.04688-.04297-.10156-.04297-.10547-.04687-.10156-.04297-.10547-.1211.03125-.10156.04297-.13281.01562-.11719.03125-.10547.04297-.08984.0586-.10156.04687-.1211.02734-.13281.01563-.10156-.04297-.0586-.08985-.04687-.10546-.04297-.10157-.04297-.10546v-.1172l.0586-.08984.08593-.05859.17969-.11719.10156-.04687.10547-.04297.10547-.0586.10156-.04296.08985-.0625.10156-.04297.10547-.0586.10156-.04687.08984-.0586.10547-.04296.10156-.04297.08985-.0625.10156-.04297.13672-.01563.11719.03125.10156.04297.1211.03125.10156.04297.10546.04688.10157.04296.10547.04297.10156.04688.10547.04297.10156.04297.10547.04687.08594.0586.10546.04296.1172.03125.10546.04297.10156.04688.08985.0586.10547.04296.10156.04297.10547.04687.11719.02735.10156.04687.1211.02735h.14843l.08594-.0586.01562-.10156.0586-.08984-.02735-.1172-.07422-.07421-.11719-.17969-.07421-.07422-.08985-.07421-.17969-.1172-.08593-.05859-.10547-.04296-.10156-.04688-.26954-.17578-.05859-.08985-.07422-.07421-.0586-.08985-.04296-.10156-.03125-.11719-.01563-.13672v-.5625l-.01171-.1328-.01563-.13282-.03125-.11719-.01562-.13281-.01172-.13281-.03125-.1211-.22266-.22265-.0586-.08594-.01562-.10547.03125-.11719.13281-.01562v-91.41406H172.9922v1.45312l-.0586.23438-.35156 1.05078-.17187.52343-.1172.34766-.17577.41016-.11719.17187-.23438.29297-.23046.0586h-.35157l-.11718.05859-.23047.40625v.29297l.11719.17578.23046.23047.1172.23437.64062.75781.29297.46485.17578.23437.23047.35156.23437.34766.64063.8164.17578.46485.17187.41016.11719.69531.17578.46875.11719 1.39844.0586.46484v.875l.11718 1.04688v4.78125l-.0586.46484-.35156 1.28125-.17578.52344-.11328.41015-.35156.9297L172.93359 336l-.23437.58203-.11719.17578-.17187.34766-.17578.40625-.35157.8164-.0586.29297-.11327.29297-.11719.28906-.0586.17579-.11718.875-.0586.40625-.05859.11718-.0586.17579-.05859.17187-.23047.52734-.11718.17188v.23437l-.11719.23438-.0586.17187-.17577.58594v.28906l-.0586.17579v.29296l-.0586.11329-.05859.52734v.17187l-.05468.23438v2.6211l-.17578.8164-.1172.17578-.17577.23438-.1172.17187-.11327.23438-.58594.93359-.23047.28906-.29297.46485-.17578.23437-.28906.35156-.35156.69922-.11328.23047-.17579.41016-.17578.23046-.40625.52735-.8164.69922-.29297.17187-.28906.23438-.17579.11719-.17578.17578-.52344.40625-.52734.17578-.17187.17578-.23438.05469-.64062.17578h-.75782m12.21094 31.02344l-1.07422.44921.35938.89454 1.25-.71485.44531-.53906-.98047-.08985"/><path fill="#d3d3d3" fill-opacity="0" fill-rule="evenodd" d="M201.50781 416.59766h-.89453l.44922.6289.98047.35938.80469-.08985.4453-.98828-.17577.08985-.71485-.35547-.89453.35547m154.6211 59.0703l-.0586-.52343v-.29297l.11328-.29297.0586-.23046.46875-.46875h.11328l.11719-.11329.11718-.05859h.17579l.23437-.0586h.34766l.23437.0586.11719.0586.23047.17187.0586.17578.11718.58203v.29297l-.11719.17578-.17187.28906-.17579.17579-.52734.52343-.23047.23438-.11719.0586h-.17578l-.11718-.0586-.40625-.29297-.17579-.11719-.11718-.0586-.0586-.11327-.05468-.1172m6.64062-10.95702l-.0586-.17188v-1.10937l.0586-.17188.17578-.0586.17188-.05858h.17578l.23437-.0586.1172.0586.05858.69921-.05859.17188-.11719.17578-.11718.0586-.23438.52343-.11328.0586h-.23438l-.05859-.1172m9.61328-14.39062l-.11719-.17578v-.69922l.29297-.875.1172-.17187.17577-.35156.11328-.23047.1172-.29297.35155-.75781.1172-.23047.17187-.23438h.17578l.11719-.0586h.64062l.11719.0586.23437.23438.17188.11328.35156.29297.11719.11718.11328.17579v.11328l.11719.05859.11718.11719v.69922l-.05859.17578v.23047l-.0586.17578-.34765 1.05078-.11719.23047-.11719.23437-.11718.0586-.23047.23437-.64063.28906h-.875l-.41015-.11718-.64063-.46485"/><path fill="none" stroke="#bebebe" stroke-linecap="round" stroke-linejoin="round" stroke-miterlimit="10" stroke-width=".5" d="M467.95703 311.69531H144.02734v168.625h323.9297v-168.625"/><g clip-path="url(#a)"><path fill="#fff" fill-opacity="0" fill-rule="evenodd" d="M144 475.89063v4.4375h.0039H144v-42.45704 38.01954"/></g><g clip-path="url(#b)"><path fill="#fff" fill-opacity="0" fill-rule="evenodd" d="M144 431.50781v2.66016-122.4961h.0039H144v119.83594"/></g><path fill="#50fcfc" fill-rule="evenodd" d="M144 434.16797v3.70312l.0039-.0039v-3.69922H144"/><g clip-path="url(#c)"><path fill="#fff" fill-opacity="0" fill-rule="evenodd" d="M144.0039 480.32813v-42.46094l1.76954-1.92188-1.76953-1.77734v-122.4961h31.0625v115.72266l-4.4375 1.08203-4.4375.83594-3 2.19531-1.4375 1.45703-2.22266 2.98047-1.07422 4.4375.2461 4.4375-.35547 4.4414-.21094 4.4375-.39844 4.4375.53125 4.4375 3.48438 3.4336 4.4375-.40625 4.4375-.60547 4.4375-.39062 4.4414 1 4.11328-3.03125.32422-.2461 4.4375-1.33984 4.4375-.60937 4.4414-.63672 3.66798-1.60547.76953-.60156 4.4375-2.83985 1.34375-.9961-1.34375-2.4375-4.4375-1.24218-1.46094-.75781-2.97656-1.6914-4.4414-1.72266-3.1172-1.02735-1.3203-.60547-3.4922-3.83203.60938-4.4375-1.55469-2.41015-4.35937-2.02735-.07813-.07422-4.4414-4.03906V311.67188h35.5078v109.77734l-1.91405 1.17969-2.52344 2.53125-4.4375 1.6328-1.28125.27735 1.28125.51172 4.4375 2.79297 4.4375-1.53906 3.3711 2.67187 1.0703.66797.98829-.66797-.98828-.91797-2.87891-3.51953.3789-4.4414-1.9414-1.1797V311.67189h13.3164v119.07421l-1.01953.76172 1.01953.61328 2.65235-.61328-2.65234-.76172V311.67188h8.875v121.22656l-2.8047 3.04687 2.8047 3.01953 2.98437-3.01953-2.98438-3.04687V311.67188h8.87891V439.375l-1.03125 1.00781 1.03125.96094.82031-.96094-.8203-1.00781V311.67187h226.35155v168.65625H144.00391"/></g><path fill="#50fcfc" fill-rule="evenodd" d="M145.77344 435.94531l-1.76953 1.92188v-3.69922l1.76953 1.77734m12.4961 26.6289l-.53126-4.4375.39844-4.4375.21094-4.4375.35547-4.4414-.2461-4.4375 1.07422-4.4375 2.22266-2.98047v6.8672l-.25391.55077.04688 4.4375.09375 4.4414-.39454 4.4375-2.08593 4.4375.76953 4.4375 1.82422 1.80079 4.4375-.97266 2.82812-.82812-2.82812-1.77735-1.04688-2.66015-2.66797-4.4375 1.6875-4.4375 2.02735-.64844 1.125.64844 3.3125.57031.93359-.57031-.9336-1.17188-2.59374-3.26953-1.84375-3-2.1875-1.4375-2.25-.55078v-6.86719l1.4375-1.45703 3-2.19531 4.4375-.83594 4.4375-1.08203 4.4414 4.03906v23.46094l-4.4414 2.8711-.45313.37109.45313.64844 2.66015 3.78906 1.78125.71875.97656-.71875 3.46094-2.625 3.21094-1.8125-3.21094-2.8789-4.4375-.36329V431.4336l.07813.07422 4.35937 2.02735L185.5 435.9453l-.60938 4.4375 3.4922 3.83203 1.3203.60547 3.1172 1.02735 4.4414 1.72265 2.97656 1.6914 1.46094.75782 4.4375 1.24219 1.34375 2.4375-1.34375.9961-4.4375 2.83984-.76953.60156-3.66797 1.60547-4.4414.63672-4.4375.60937-4.4375 1.33985-.32423.24609-4.11328 3.03125-4.4414-1-4.4375.39062-4.4375.60547-4.4375.40625-3.48438-3.4336"/><path fill="#00e8fc" fill-rule="evenodd" d="M159.92969 462.57422l-.76953-4.4375 2.08593-4.4375.39453-4.4375-.09375-4.4414-.04687-4.4375.2539-.55079v17.88672l-.22265.41797.22266.96094.28906-.96094-.28906-.41797v-17.88672l2.25.55078 2.1875 1.4375 1.84375 3 2.59375 3.26953.93359 1.17188-.9336.57031-3.3125-.57031-1.125-.64844-2.02734.64844-1.6875 4.4375 2.66797 4.4375 1.04688 2.66015 2.82812 1.77735-2.82812.82812-4.4375.97266-1.82422-1.80078"/><path fill="#00d4fc" fill-rule="evenodd" d="M161.7539 459.09766l-.22265-.96094.22266-.41797.28906.41797-.28906.96094"/><path fill="#00e8fc" fill-rule="evenodd" d="M175.0664 458.78516l-.45312-.64844.45313-.3711 4.4414-2.87109v2.44531l-1.13281.79688 1.13281 1.26953 1.66406-1.26953-1.66406-.79688v-2.4453l4.4375.36327 3.21094 2.8789-3.21094 1.8125-3.46094 2.625-.97656.71876-1.78125-.71875-2.66015-3.78906"/><path fill="#00d4fc" fill-rule="evenodd" d="M179.50781 459.40625l-1.13281-1.26953 1.13281-.79688 1.66406.79688-1.66406 1.26953"/><path fill="#50fcfc" fill-rule="evenodd" d="M201.69922 427.58203l-1.28125-.51172 1.28125-.27734 4.4375-1.63281 2.52344-2.53125 1.91406-1.1797 1.9414 1.1797-.3789 4.4414 2.8789 3.51953.98829.91797-.98828.66797-1.07032-.66797-3.3711-2.67187-4.4375 1.53906-4.4375-2.79297m22.19142 4.53906l-1.01954-.61328 1.01953-.76172 2.65235.76172-2.65234.61328m8.875 6.84375l-2.8047-3.01953 2.8047-3.04687 2.98437 3.04687-2.98438 3.01953m8.87891 2.37891l-1.03125-.96094 1.03125-1.00781.82031 1.00781-.8203.96094"/><g clip-path="url(#d)"><path fill="#fff" fill-opacity="0" fill-rule="evenodd" d="M467.9961 480.32813H468V311.67188h-.0039H468v168.65625h-.0039"/></g><g clip-path="url(#e)"><path fill="none" stroke="#000" stroke-linecap="round" stroke-linejoin="round" stroke-miterlimit="10" stroke-width=".5" d="M147.5039 480.0586l-7.0078.53906"/></g><g clip-path="url(#f)"><path fill="none" stroke="#000" stroke-linecap="round" stroke-linejoin="round" stroke-miterlimit="10" stroke-width=".5" d="M147.5039 480.0586l1.31641 2.0703"/></g><g clip-path="url(#g)"><path fill="none" stroke="#000" stroke-linecap="round" stroke-linejoin="round" stroke-miterlimit="10" stroke-width=".5" d="M160.82031 480.10938l-7.01172.4375"/></g><g clip-path="url(#h)"><path fill="none" stroke="#000" stroke-linecap="round" stroke-linejoin="round" stroke-miterlimit="10" stroke-width=".5" d="M160.82031 480.10938l1.28516 2.08984"/></g><g clip-path="url(#i)"><path fill="none" stroke="#000" stroke-linecap="round" stroke-linejoin="round" stroke-miterlimit="10" stroke-width=".5" d="M174.14063 480.1836l-7.01954.28906"/></g><g clip-path="url(#j)"><path fill="none" stroke="#000" stroke-linecap="round" stroke-linejoin="round" stroke-miterlimit="10" stroke-width=".5" d="M174.14063 480.1836l1.24218 2.11718"/></g><g clip-path="url(#k)"><path fill="none" stroke="#000" stroke-linecap="round" stroke-linejoin="round" stroke-miterlimit="10" stroke-width=".5" d="M173.1211 480.22656l.61718 1.0586"/></g><g clip-path="url(#l)"><path fill="none" stroke="#000" stroke-linecap="round" stroke-linejoin="round" stroke-miterlimit="10" stroke-width=".5" d="M187.45313 480.15234l-7.01563.35547"/></g><g clip-path="url(#m)"><path fill="none" stroke="#000" stroke-linecap="round" stroke-linejoin="round" stroke-miterlimit="10" stroke-width=".5" d="M187.45313 480.15234l1.26171 2.10157"/></g><g clip-path="url(#n)"><path fill="none" stroke="#000" stroke-linecap="round" stroke-linejoin="round" stroke-miterlimit="10" stroke-width=".5" d="M186.4336 480.20313l.6289 1.05078"/></g><g clip-path="url(#o)"><path fill="none" stroke="#000" stroke-linecap="round" stroke-linejoin="round" stroke-miterlimit="10" stroke-width=".5" d="M200.77344 480.45313l-7.02344-.25"/></g><g clip-path="url(#p)"><path fill="none" stroke="#000" stroke-linecap="round" stroke-linejoin="round" stroke-miterlimit="10" stroke-width=".5" d="M200.77344 480.45313l1.07031 2.20703"/></g><g clip-path="url(#q)"><path fill="none" stroke="#000" stroke-linecap="round" stroke-linejoin="round" stroke-miterlimit="10" stroke-width=".5" d="M199.75 480.41797l.53516 1.10156"/></g><g clip-path="url(#r)"><path fill="none" stroke="#000" stroke-linecap="round" stroke-linejoin="round" stroke-miterlimit="10" stroke-width=".5" d="M214.08594 480.5039l-7.01953-.35156"/></g><g clip-path="url(#s)"><path fill="none" stroke="#000" stroke-linecap="round" stroke-linejoin="round" stroke-miterlimit="10" stroke-width=".5" d="M214.08594 480.5039l1.03906 2.22266"/></g><g clip-path="url(#t)"><path fill="none" stroke="#000" stroke-linecap="round" stroke-linejoin="round" stroke-miterlimit="10" stroke-width=".5" d="M213.0625 480.45313l.52344 1.11328"/></g><g clip-path="url(#u)"><path fill="none" stroke="#000" stroke-linecap="round" stroke-linejoin="round" stroke-miterlimit="10" stroke-width=".5" d="M227.39844 480.55469l-7.01563-.45313"/></g><g clip-path="url(#v)"><path fill="none" stroke="#000" stroke-linecap="round" stroke-linejoin="round" stroke-miterlimit="10" stroke-width=".5" d="M227.39844 480.55469l1.00781 2.23828"/></g><g clip-path="url(#w)"><path fill="none" stroke="#000" stroke-linecap="round" stroke-linejoin="round" stroke-miterlimit="10" stroke-width=".5" d="M240.71875 480.39453l-7.02734-.13281"/></g><g clip-path="url(#x)"><path fill="none" stroke="#000" stroke-linecap="round" stroke-linejoin="round" stroke-miterlimit="10" stroke-width=".5" d="M240.71875 480.39453l1.10938 2.1875"/></g><g clip-path="url(#y)"><path fill="none" stroke="#000" stroke-linecap="round" stroke-linejoin="round" stroke-miterlimit="10" stroke-width=".5" d="M254.03125 480.21094l-7.02344.23437"/></g><g clip-path="url(#z)"><path fill="none" stroke="#000" stroke-linecap="round" stroke-linejoin="round" stroke-miterlimit="10" stroke-width=".5" d="M254.03125 480.21094l1.22266 2.1289"/></g><g clip-path="url(#A)"><path fill="none" stroke="#000" stroke-linecap="round" stroke-linejoin="round" stroke-miterlimit="10" stroke-width=".5" d="M267.2461 481.17969l-6.82032-1.70313"/></g><g clip-path="url(#B)"><path fill="none" stroke="#000" stroke-linecap="round" stroke-linejoin="round" stroke-miterlimit="10" stroke-width=".5" d="M267.2461 481.17969l.58984 2.38281"/></g><g clip-path="url(#C)"><path fill="none" stroke="#000" stroke-linecap="round" stroke-linejoin="round" stroke-miterlimit="10" stroke-width=".5" d="M280.41016 481.63672l-6.51953-2.61328"/></g><g clip-path="url(#D)"><path fill="none" stroke="#000" stroke-linecap="round" stroke-linejoin="round" stroke-miterlimit="10" stroke-width=".5" d="M293.46484 482.15625l-6-3.65625"/></g><g clip-path="url(#E)"><path fill="none" stroke="#000" stroke-linecap="round" stroke-linejoin="round" stroke-miterlimit="10" stroke-width=".5" d="M306.63672 482.375l-5.71094-4.09375"/></g><g clip-path="url(#F)"><path fill="none" stroke="#000" stroke-linecap="round" stroke-linejoin="round" stroke-miterlimit="10" stroke-width=".5" d="M319.41406 482.96875l-4.63672-5.28125"/></g><g clip-path="url(#G)"><path fill="none" stroke="#000" stroke-linecap="round" stroke-linejoin="round" stroke-miterlimit="10" stroke-width=".5" d="M331.5586 483.64844l-2.29298-6.64063"/></g><g clip-path="url(#H)"><path fill="none" stroke="#000" stroke-linecap="round" stroke-linejoin="round" stroke-miterlimit="10" stroke-width=".5" d="M343.41016 483.82813l.6289-7"/></g><g clip-path="url(#I)"><path fill="none" stroke="#000" stroke-linecap="round" stroke-linejoin="round" stroke-miterlimit="10" stroke-width=".5" d="M356.09766 483.71484l1.88671-6.76953"/></g><g clip-path="url(#J)"><path fill="none" stroke="#000" stroke-linecap="round" stroke-linejoin="round" stroke-miterlimit="10" stroke-width=".5" d="M369.3789 483.70313l1.95313-6.75"/></g><g clip-path="url(#K)"><path fill="none" stroke="#000" stroke-linecap="round" stroke-linejoin="round" stroke-miterlimit="10" stroke-width=".5" d="M381.52734 483.11328l4.28907-5.5664"/></g><g clip-path="url(#L)"><path fill="none" stroke="#000" stroke-linecap="round" stroke-linejoin="round" stroke-miterlimit="10" stroke-width=".5" d="M393.9336 482.0664l6.10546-3.47656"/></g><g clip-path="url(#M)"><path fill="none" stroke="#000" stroke-linecap="round" stroke-linejoin="round" stroke-miterlimit="10" stroke-width=".5" d="M393.9336 482.0664l-2.07423-1.30859"/></g><g clip-path="url(#N)"><path fill="none" stroke="#000" stroke-linecap="round" stroke-linejoin="round" stroke-miterlimit="10" stroke-width=".5" d="M406.92188 481.28125l6.76171-1.90625"/></g><g clip-path="url(#O)"><path fill="none" stroke="#000" stroke-linecap="round" stroke-linejoin="round" stroke-miterlimit="10" stroke-width=".5" d="M407.90234 481.0039l-.84765-.8828"/></g><g clip-path="url(#P)"><path fill="none" stroke="#000" stroke-linecap="round" stroke-linejoin="round" stroke-miterlimit="10" stroke-width=".5" d="M420.10547 480.41016l7.02344-.16016"/></g><g clip-path="url(#Q)"><path fill="none" stroke="#000" stroke-linecap="round" stroke-linejoin="round" stroke-miterlimit="10" stroke-width=".5" d="M420.10547 480.41016l-1.20313-2.14063"/></g><g clip-path="url(#R)"><path fill="none" stroke="#000" stroke-linecap="round" stroke-linejoin="round" stroke-miterlimit="10" stroke-width=".5" d="M433.42969 480.0586l7.0039.53906"/></g><g clip-path="url(#S)"><path fill="none" stroke="#000" stroke-linecap="round" stroke-linejoin="round" stroke-miterlimit="10" stroke-width=".5" d="M434.44922 480.13672l-.49219-1.1211"/></g><g clip-path="url(#T)"><path fill="none" stroke="#000" stroke-linecap="round" stroke-linejoin="round" stroke-miterlimit="10" stroke-width=".5" d="M446.73438 480.39844l7.02343-.14063"/></g><g clip-path="url(#U)"><path fill="none" stroke="#000" stroke-linecap="round" stroke-linejoin="round" stroke-miterlimit="10" stroke-width=".5" d="M447.75781 480.3789l-.59765-1.0703"/></g><g clip-path="url(#V)"><path fill="none" stroke="#000" stroke-linecap="round" stroke-linejoin="round" stroke-miterlimit="10" stroke-width=".5" d="M460.14063 479.52734l6.83984 1.60547"/></g><g clip-path="url(#W)"><path fill="none" stroke="#000" stroke-linecap="round" stroke-linejoin="round" stroke-miterlimit="10" stroke-width=".5" d="M147.50781 467.17969l-7.01562-.33203"/></g><path fill="none" stroke="#000" stroke-linecap="round" stroke-linejoin="round" stroke-miterlimit="10" stroke-width=".5" d="M147.50781 467.17969l1.05078 2.21484m12.26953-2.36328l-7.02734-.03516m7.02734.03516l1.14063 2.17578m-2.16406-2.17969l.57031 1.08594m13.74219-1.53125l-6.97266.86328m6.97266-.86328l1.41015 2.00781m-2.42578-1.8828l.70703 1.0039m13.60157-1.26953l-6.9297 1.14453m6.9297-1.14453l1.49218 1.94922m-2.5-1.78125l.7461.97265m13.53125-1.375l-6.83985 1.61328m6.83985-1.61328l1.6211 1.83985m-2.6172-1.60547l.8125.92187m13.52344-1.05078l-6.88672 1.40234m6.88672-1.40234l1.5586 1.89063m-2.5625-1.6875l.78125.9453m13.55468-1.04296l-6.92578 1.1914m6.92578-1.1914l1.5039 1.9414m-2.51171-1.76562l.7539.96875m13.40626-1.76563l-6.59375 2.4336m6.59375-2.4336l1.82812 1.63672m-2.78906-1.28125l.91406.81641m13.20703-1.52734l-6.28515 3.14453m6.28515-3.14453l2 1.42187m-2.91406-.96484l1 .71094m13.16797-1.28516l-6.16406 3.3789m6.16406-3.3789l2.05078 1.34766m-2.94922-.85547l1.02735.67578m13.5039-.35938l-6.80078 1.76172m6.80078-1.76172l1.66016 1.8086m11.7461-.54297l-6.98438-.76953m5.96875.65625l.45703 1.14062m13.82031-.69531l-6.8789-1.4336m5.8789 1.22657l.34375 1.17578m13.94531-.83984l-6.82422-1.69141m5.83204 1.44531l.29687 1.1875m14.07422-1.27344L326.93359 466.5m5.94141.8789l.41016 1.15626m13.95312-1.50391l-7.02734-.03516m6.00781.03125l.57031 1.08594m13.72266-.5586l-6.9414-1.08202m16.39062 4.03125l.78906-6.98047m-.67187 5.96484l-1.14063.45313m11.23438-3.22657l7 .59766m-5.98438-.51172l-.48047-1.125m12.89453.39844l6.76953 1.8789m-5.78515-1.60546l-.26563-1.19532m12.5039 1.35157l6.95313 1.01953m-6.95312-1.01953L406 464.1914m16.85547-.60938l1.51953 6.86328m-1.29687-5.86328l.93359-.79687m13.2539-.26953l-.66796 6.99609m.66797-6.9961l2.26562-.9414m11.66797 1.0586l-1.90234 6.76171m1.625-5.77734l1.19921-.26172m14.125.39062l-5.36718 4.53516"/><g clip-path="url(#X)"><path fill="none" stroke="#000" stroke-linecap="round" stroke-linejoin="round" stroke-miterlimit="10" stroke-width=".5" d="M147.47266 454.22266l-6.94532-1.04688"/></g><path fill="none" stroke="#000" stroke-linecap="round" stroke-linejoin="round" stroke-miterlimit="10" stroke-width=".5" d="M147.47266 454.22266l.8164 2.3164m12.49219-2.26953l-6.9336-1.14062m6.9336 1.14062l.78516 2.32422m12.53906-2.3789l-6.94922-1.03126m6.94922 1.03125l.82422 2.3086m12.51953-3.08203l-7.00781.51562m7.0078-.51562l1.3086 2.07421m11.9961-2.18359l-6.98828.73438m6.98828-.73438l1.37109 2.03125m11.79688-2.73437l-6.69141 2.14062m6.6914-2.14062l1.75782 1.71093m-2.73047-1.39843l.8789.85546m13.21875-1.64062l-6.3125 3.08594m6.3125-3.08594l1.98829 1.4414m-2.90625-.99218l.99218.71875m13.19922-1.2461l-6.23047 3.2422m6.23047-3.2422l2.02344 1.38672m-2.92969-.91797l1.01172.69532m12.98828-1.53907l-5.78515 3.9922m5.78515-3.9922l2.17578 1.12891m-3.01953-.54687l1.08985.5625m13.08984-1.10938l-5.82813 3.92188m5.82813-3.92188l2.16406 1.15234m-3.01172-.58203l1.08203.57813m13.21094-.9414l-6.08984 3.5078m6.08984-3.5078l2.07813 1.30077m-2.96485-.78906l1.03907.64844m13.23046-1.03906l-6.22265 3.26562m6.22265-3.26562l2.02735 1.3828m-2.9336-.91015l1.01172.6914m13.11329-1.33593l-6.03125 3.60938m6.03125-3.60938l2.10156 1.26563m11.46094-.76563L313.83202 455m6.52735-2.60547l1.87109 1.58594m11.54687-1.29297l-6.73046 2.01953m6.73046-2.01953l1.72657 1.7461m11.41406-2.20313l-6.38281 2.9375m6.3828-2.9375l1.95313 1.48437m10.85547-2.28125l-5.3711 4.53125m4.58985-3.87109l1.13672.45703m12.4414-1.61719l-4.33593 5.52735m3.70703-4.72266l1.20703.21484m9.60938-1.6328l1.91797 6.7578m-1.63672-5.77734l.88281-.84766m11.77344-.0039l2.67578 6.5m-2.28516-5.55469l.78125-.94531m13.52735-.26563l-.08985 7.02735m.08985-7.02735l2.17968-1.12109m13.40235 1.99219l-4.625 5.28906m4.625-5.28906l2.39062.5586m-3.0625.21093l2.38672.5586m-3.0625.21093l1.19531.27734m13.08204-2.10937l-3.85547 5.875m3.85546-5.875l2.44141.22265m-3.0039.63282l2.4453.22265m-3.0039.62891l1.21875.11328m14.20313-.84765l-5.82813 3.92968m5.82813-3.92969l2.16796 1.15235m-3.01562-.58203l2.16406 1.15625m12.15235-1.47657l-6.13282 3.42579"/><g clip-path="url(#Y)"><path fill="none" stroke="#000" stroke-linecap="round" stroke-linejoin="round" stroke-miterlimit="10" stroke-width=".5" d="M466.6289 451.98438l2.0625 1.33203"/></g><path fill="none" stroke="#000" stroke-linecap="round" stroke-linejoin="round" stroke-miterlimit="10" stroke-width=".5" d="M465.73828 452.48438l1.03125.66406"/><g clip-path="url(#Z)"><path fill="none" stroke="#000" stroke-linecap="round" stroke-linejoin="round" stroke-miterlimit="10" stroke-width=".5" d="M147.45313 441.03516l-6.90625-1.30078"/></g><path fill="none" stroke="#000" stroke-linecap="round" stroke-linejoin="round" stroke-miterlimit="10" stroke-width=".5" d="M147.45313 441.03516l.73046 2.33984m12.625-2.60156l-6.98437-.77735m6.98437.77735l.90235 2.28125m12.42187-2.375l-7.0039-.59375m7.0039.59375l.96485 2.25781m12.15625-1.3711l-6.6172-2.36718m6.6172 2.36719l.35547 2.42968m13.125-3.09375l-6.94922-1.03906m6.94922 1.03906l.8203 2.3125m12.46876-3.51172l-6.89453 1.36329m6.89453-1.36329l1.55078 1.89844m11.47656-2.7539l-6.32031 3.0703m6.32031-3.0703l1.98438 1.44921m-2.90235-1l.98828.72266m13.28907-1.07812L234 441.8242m6.41016-2.8828l1.9375 1.5039m-2.8711-1.08203l.96875.75m13.21875-1.30078l-6.28515 3.14062m6.28515-3.14062l2 1.42187m-2.91406-.96484l1 .71094m13.22656-1.16797l-6.28515 3.14062m6.28515-3.14062l2 1.42187m-2.91406-.96484l1 .71094m13.38281-.8125l-6.58984 2.42969m6.58984-2.4297l1.83203 1.63282m-2.78906-1.27734l.91406.8164m13.30079-1.32422l-6.47266 2.73829m6.47266-2.73828l1.90234 1.54296m-2.84375-1.14453l.94922.76953m13.125-1.53515l-6.10938 3.47265m6.10938-3.47265l2.07031 1.3125m-2.96094-.8086l1.03907.65625m13.125-1.23437l-6.02344 3.61719m6.02344-3.6172l2.10156 1.26173m-2.98047-.73438l1.05078.63281m12.9336-1.46875l-5.60547 4.23829m5.60546-4.23829l2.22266 1.03125m-3.03906-.41406l1.11328.51563m12.6211-1.57422l-4.8125 5.11719m4.8125-5.1172l2.36718.64454m-3.0664.10156l1.18359.32031m12.69531-1.1875l-4.53906 5.36329m4.53906-5.36329l2.39453.51954m10-1.08204l-2.70312 6.48829m2.30859-5.54688l1.22266-.11328m12.74218-.71094l-3.21484 6.25m2.75-5.33984l1.22656-.01563m13.0664-.5703l-4.23827 5.60546m4.23828-5.60547l2.42187.38672m-3.03906.42969l1.21094.1914m13.13281-.64062l-5.0625 4.8711m5.0625-4.8711l2.33203.76172m-3.0664-.05469l2.33203.76172m-3.07031-.05078l1.16796.3789m13.89063-1.48437l-5.60156 4.24219m5.60156-4.2422l2.22656 1.03126m-3.04297-.41406l2.22657 1.03125m-3.03907-.41407l2.22657 1.03125m12.4375-2.58984l-5.04297 4.89062m5.04297-4.89062l2.33593.7539m-3.07031-.04296l2.33594.7539m-3.07031-.04297l2.33593.75391m12.76563-1.79687l-5.67969 4.1328m5.67969-4.1328l2.20703 1.07422m-3.03125-.47266l2.20703 1.07422m-3.03516-.47266l1.10547.53516m14.23047-1.10547l-6.41406 2.86719"/><g clip-path="url(#aa)"><path fill="none" stroke="#000" stroke-linecap="round" stroke-linejoin="round" stroke-miterlimit="10" stroke-width=".5" d="M466.76953 438.94922l1.9336 1.50781"/></g><g clip-path="url(#ab)"><path fill="none" stroke="#000" stroke-linecap="round" stroke-linejoin="round" stroke-miterlimit="10" stroke-width=".5" d="M465.83594 439.36719l1.9375 1.50781"/></g><g clip-path="url(#ac)"><path fill="none" stroke="#000" stroke-linecap="round" stroke-linejoin="round" stroke-miterlimit="10" stroke-width=".5" d="M147.51172 427.03516l-7.02344.0664"/></g><path fill="none" stroke="#000" stroke-linecap="round" stroke-linejoin="round" stroke-miterlimit="10" stroke-width=".5" d="M147.51172 427.03516l1.17187 2.15625m11.94141-.94922l-6.6211-2.34766m6.6211 2.34766l.36328 2.42969m12.64063-1.77344l-5.9961-3.66016m5.9961 3.66016l-.14453 2.44922m-.72657-2.98047l-.07422 1.22265m14.19922-.59375l-5.875-3.85546m5.875 3.85546l-.22656 2.44141m13.8086-2.92578l-6.41016-2.88672m6.41015 2.88672l.16016 2.44922m13.11719-2.3711l-6.33203-3.04296m5.41015 2.60156l.05078 1.22265m13.78907-.14062l-5.53907-4.32422m4.73438 3.69531l-.21094 1.20703m15.03516-3.2578l-6.94922 1.03515m5.9375-.88281l.73047.98437m13.5-1.58203l-6.75781 1.92578m6.7578-1.92578l1.70313 1.76953m11.52344-2.03906l-6.57813 2.46484m6.57813-2.46484l1.83984 1.6211m10.85938-2.66798l-5.34766 4.5586m5.34766-4.5586l2.28125.90235m11.21484-.66797l-5.71094 4.08984m5.71094-4.08984l2.19922 1.08984m10.84766-1.42578l-5.17188 4.76172m5.17188-4.76172l2.3125.8164m-3.0664-.12109l1.15624.40625m12.32422-1.60937l-3.9961 5.77734m3.9961-5.77734l2.4375.28515m11.63281.41797l-5.5039 4.3711m5.5039-4.3711l2.2461.98047m11.58593-.08203l-6.53906 2.57422m6.53906-2.57422l1.86328 1.59375m-2.8164-1.21875l.9336.79688m13.33593-1.16797l-6.54297 2.5664m6.54297-2.5664l1.86328 1.59765m-2.8164-1.22265l1.86328 1.59375m12.36718-2.0625l-6.46484 2.7539m6.46484-2.7539l1.90625 1.53906m-2.84765-1.14063l1.91015 1.54297m12.4297-1.72656l-6.63282 2.32422m6.63281-2.32422l1.80078 1.66016m11.34375-2.0625l-6.29297 3.1289m6.29297-3.1289l1.9961 1.42968m-2.91016-.97265l1.99219 1.42578m-2.91016-.97266l1 .71485m13.90234-2.04297l-5.80078 3.96484m5.80078-3.96484l2.17188 1.13672m-3.01563-.5625l2.17188 1.14062m-3.01563-.5625l1.08594.57031m13.92188-1.71093l-5.8164 3.9414m5.8164-3.9414l2.17187 1.14453m-3.01562-.57031l2.16797 1.14453m-3.01563-.57032L427 427.39063m12.88281-2.22657l-5.90625 3.8086m5.90625-3.8086l2.14453 1.19922m-3.0039-.64453l2.14453 1.19531m-3-.64062l2.14062 1.19531m12.83985-2.3789l-5.80469 3.95703m5.80469-3.95704l2.17187 1.14063m-3.01562-.5664l2.17187 1.14062m-3.01562-.5625l1.08593.57031m14.16016-1.3086l-6.29297 3.12891"/><g clip-path="url(#ad)"><path fill="none" stroke="#000" stroke-linecap="round" stroke-linejoin="round" stroke-miterlimit="10" stroke-width=".5" d="M466.70703 425.5039l1.9961 1.42579"/></g><g clip-path="url(#ae)"><path fill="none" stroke="#000" stroke-linecap="round" stroke-linejoin="round" stroke-miterlimit="10" stroke-width=".5" d="M465.79297 425.95703l1.9961 1.42969"/></g><g clip-path="url(#af)"><path fill="none" stroke="#000" stroke-linecap="round" stroke-linejoin="round" stroke-miterlimit="10" stroke-width=".5" d="M147.35938 412.73047l-6.71875 2.04687"/></g><path fill="none" stroke="#000" stroke-linecap="round" stroke-linejoin="round" stroke-miterlimit="10" stroke-width=".5" d="M146.38281 413.02734l.86719.8672m13.28516 1.26171l-6.44141-2.8086m5.5039 2.40235l.09766 1.22266m13.45313.23047l-5.03516-4.89844m5.03516 4.89844l-.6836 2.35546m14.19141-2.5703l-5.42188-4.46876m5.42188 4.46875l-.48828 2.40234m13.47266-2.05078l-4.76172-5.17187m4.0703 4.41797l-.41015 1.15625m13.76953.0664l-3.46875-6.10937m2.96485 5.21875l-.65625 1.03906m13.40625.2461l-1.32813-6.89844m1.13281 5.89453l-.95312.76953m17.07031-1.92969l-6.53906-2.57422m5.58594 2.19922l.14062 1.21875m14.20703-3.1836l-6.70312 2.10548m5.73047-1.79688l.8711.85938m13.47265-.98047l-6.8125 1.73437m5.82031-1.48437l.82422.91015m13.05078-2.16015l-5.94922 3.73437m5.94922-3.73437l2.1289 1.21875m-2.99218-.67578l1.0625.60937m12.91406-1.44531l-5.54297 4.32031m5.54297-4.32031l2.23828 1.0039m10.76563-1.35156l-4.92188 5.01172m4.92188-5.01172l2.35547.69922m11.30468-.30469l-5.61328 4.22657m5.61328-4.22657l2.22266 1.03516m-3.03906-.42187l1.10937.51953m13.6289.14453L327 414.58984m6.82422-1.67187l1.63281 1.82812m11.77735-.77734l-7.01563-.42969m7.01563.42969l1.01562 2.23438m-2.03906-2.29688l1.01953 2.23438m13.32031-2.21485l-7.01953-.34765m7.01953.34765l1.04297 2.22266m-2.0664-2.27344l1.04687 2.22266m-2.0664-2.27344l1.04296 2.22266m14.26953-2.88282l-6.92968 1.17969m6.92968-1.17969l1.5 1.9414m-2.50781-1.76952l1.5 1.9414m-2.50781-1.76953l1.5 1.9414m13.71094-2.76952l-6.69141 2.14843m6.6914-2.14843l1.76172 1.71093m-2.73437-1.39843l1.75781 1.71093m-2.73047-1.39843l.8789.85547m14.53517-.72266l-6.9961.63281m6.9961-.63281l1.34375 2.05469m-2.35938-1.96485l1.33984 2.0547m-2.35937-1.96095l.67187 1.02735m14.53516-1.94532l-6.70703 2.09766m6.70703-2.09766l1.7461 1.72657m-2.72266-1.42188l1.7461 1.72656m-2.72266-1.41796l1.74609 1.72265m13.5586-2.20703l-6.78126 1.84375m6.78125-1.84375l1.67969 1.78906m-2.66797-1.51953l1.67969 1.78906m-2.66406-1.52343l.83984.89453m14.46094-1.3711l-6.8086 1.72657m6.8086-1.72657l1.64844 1.81641m-2.63672-1.5664l1.64843 1.8203m-2.64062-1.5664l.82422.90625m14.40625-1.63672l-6.67969 2.17578m6.67969-2.17578l1.76953 1.70313m-2.73828-1.38672l1.76562 1.70703m-2.73828-1.39063l.88281.85547m14.27344-1.76562l-6.47656 2.73047"/><g clip-path="url(#ag)"><path fill="none" stroke="#000" stroke-linecap="round" stroke-linejoin="round" stroke-miterlimit="10" stroke-width=".5" d="M466.80078 412.38672l1.90235 1.55078"/></g><g clip-path="url(#ah)"><path fill="none" stroke="#000" stroke-linecap="round" stroke-linejoin="round" stroke-miterlimit="10" stroke-width=".5" d="M465.85547 412.78516l1.90625 1.54687"/></g><path fill="none" stroke="#000" stroke-linecap="round" stroke-linejoin="round" stroke-miterlimit="10" stroke-width=".5" d="M464.91406 413.1836l.95313.77343"/><g clip-path="url(#ai)"><path fill="none" stroke="#000" stroke-linecap="round" stroke-linejoin="round" stroke-miterlimit="10" stroke-width=".5" d="M146.03516 397.57422l-4.07032 5.72656"/></g><path fill="none" stroke="#000" stroke-linecap="round" stroke-linejoin="round" stroke-miterlimit="10" stroke-width=".5" d="M145.4414 398.40625l1.21876.16016m14.05859 2.74218l-6.8086-1.74218m5.81641 1.49218l.28906 1.19141m13.20313.5664l-5.17578-4.7539m4.42187 4.0625l-.30859 1.1875m13.125.375l-2.67188-6.5m2.28125 5.55469l-.78125.94531m12.96875.25781l.36329-7.01562m-.3125 5.9961l-1.10938.51952m12.91797.10156l3.27344-6.21875m-2.79688 5.31641l-1.22656.0039m16.39063 1.23438l-1.375-6.89062m17.48046 2.95312l-6.95703.98828m5.94531-.84375l.72266.98829m13.49219.36328l-6.73438-2.00391m5.75391 1.71094l.2461 1.20312m14.11327-1.15234l-6.85937-1.52344m6.85938 1.52344l.65625 2.36719m-1.65625-2.58594l.32812 1.17969m14.05078-2.10938l-6.98437.77735m6.98437-.77735l1.38281 2.02735m-2.40234-1.91407l1.38672 2.02344m12.94531-2.14063l-6.98437.78125m6.98437-.78125l1.38672 2.02735m-2.40234-1.91406l1.38671 2.02734m12.96094-1.90234l-7.01953.30468m7.01953-.30468l1.2461 2.11328m-2.26563-2.07031l.6211 1.05859m13.58203-1.91797l-6.75391 1.9414m6.7539-1.9414l1.70704 1.76172m-2.6914-1.48047l.85546.88281m13.57812-.08984l-7.02343-.20703m7.02343.20703l1.08985 2.19922m-2.10938-2.23047l1.08594 2.19922m12.92188-.78516l-6.3672-2.97265m6.3672 2.97265l.1289 2.44922m-1.05469-2.88281l.0625 1.22656m13.48438.19531l-4.98047-4.95312m4.98047 4.95312l-.71094 2.35156m-.01172-3.0703l-.35547 1.17577m15.39454-2.53515l-6.98047-.79688m6.98047.79688l.89843 2.28515m-1.91406-2.39843l.44922 1.14062m13.66406-2.69531l-6.55078 2.54297m6.55078-2.54297l1.85938 1.60156m-2.8125-1.23047l1.85937 1.60156m-2.8125-1.23437l.92969.80078m14.52344-.51172l-7.01172.48828m7.01172-.48828l1.30078 2.07813m-2.32031-2.00781l1.29687 2.08203m13.04297-1.78125l-7.02344-.25782m7.02344.25782l1.07031 2.20703m-2.09375-2.24219l1.07422 2.20703m-2.09375-2.2461l.53516 1.10548m14.79297-1.64063l-6.96094.96094m6.96094-.96094l1.4375 1.98828m-2.44922-1.84765l1.4336 1.98828m-2.44923-1.84766l.71875.99219m14.64063-1.1211l-6.9961.65625m6.9961-.65625l1.34765 2.05079m-2.36718-1.95313l1.35156 2.04688m12.96875-2.26954l-6.96875.90625m6.96875-.90625l1.42187 2m-2.43359-1.86718l1.42187 2m-2.4375-1.86719l.71094 1m14.55469-1.67578l-6.8125 1.72656"/><g clip-path="url(#aj)"><path fill="none" stroke="#000" stroke-linecap="round" stroke-linejoin="round" stroke-miterlimit="10" stroke-width=".5" d="M466.96875 399.57422l1.64844 1.8164"/></g><path fill="none" stroke="#000" stroke-linecap="round" stroke-linejoin="round" stroke-miterlimit="10" stroke-width=".5" d="M465.97656 399.82422l1.64844 1.8164m-2.64063-1.5625l.82422.90625"/><g clip-path="url(#ak)"><path fill="none" stroke="#000" stroke-linecap="round" stroke-linejoin="round" stroke-miterlimit="10" stroke-width=".5" d="M146.89453 385.1289l-5.78906 3.98829"/></g><path fill="none" stroke="#000" stroke-linecap="round" stroke-linejoin="round" stroke-miterlimit="10" stroke-width=".5" d="M146.89453 385.1289l2.17578 1.12891m11.66016.03516l-6.82813 1.66015m5.83203-1.41796l.81641.91796m13.23047 1.22266l-6.30078-3.10547m5.38281 2.65625l.03906 1.22266m11.25391 1.17969l-.42188-7.01172m14.47657.125l-1.90235 6.76172m17.65625-2.46094l-6.78125-1.83985m6.78125 1.83985l.54688 2.39453m-1.53125-2.66016l.26953 1.19532m14.13281-1.45313l-6.98437-.79297m6.98437.79297l.89844 2.28125m-1.91406-2.39844l.89844 2.28516m-1.91407-2.39844l.44922 1.14063m14.88672-.82813l-6.96484-.95703m6.96484.95703l.84766 2.30078m-1.86328-2.4414l.84765 2.30469m13.4336-1.88672l-6.86329-1.51172m6.86328 1.51172l.66016 2.36328m-1.66016-2.58203l.33204 1.17968m13.99218-1.0078l-6.8828-1.41798m6.8828 1.41797l.69141 2.35156m12.67578-3.41796l-6.98828.71484m6.98828-.71485l1.36719 2.03907m11.9414-1.24219l-6.97265-.8789m6.97265.8789l.8711 2.29688m-1.88672-2.42188l.4336 1.14453m13.91796-1.28515l-7.01562-.34766m7.01562.34765l1.04297 2.21875m12.25781-2.75l-6.98828.71485m6.98828-.71485l1.3672 2.03907m11.96483-1.82813l-7.01953.29297m7.01954-.29297l1.23828 2.11719m11.42187.07422l-5.71484-4.08985m4.88281 3.4961l-.16016 1.21484m14.92188-2.11328l-6.9414-1.10156m6.9414 1.10156l.79687 2.32031M359.5 387.51563l.40234 1.16015m13.875-2.35937l-6.83984 1.61328m6.83984-1.61328l1.6172 1.84375m-2.61329-1.60938l1.61719 1.84375m-2.61328-1.60937l.80859.92187m14.41797-1.67187l-6.6836 2.17578m6.6836-2.17578l1.76562 1.70703m-2.73828-1.39063l1.76563 1.70703m12.65625-1.46484l-6.94922 1.0586m6.94922-1.0586l1.46484 1.96875m-2.47656-1.8164l.73047.98437m13.39453-1.88672l-6.54297 2.5625m6.54297-2.5625l1.86328 1.59766m-2.8164-1.22657l1.86327 1.59766m12.60547-1.23047l-6.9453 1.08203m6.9453-1.08203l1.46875 1.96094m-2.48046-1.80469l.73437.98438m13.63281-.59766h-7.02734m7.02734 0l1.15235 2.16406m-2.17579-2.16406l1.15235 2.16406m13.1836-2.23437l-7.02344.13672m7.02343-.13672l1.19531 2.14453m-2.21484-2.125l1.1914 2.14453m13.125-2.46484l-6.98827.73828"/><g clip-path="url(#al)"><path fill="none" stroke="#000" stroke-linecap="round" stroke-linejoin="round" stroke-miterlimit="10" stroke-width=".5" d="M467.05469 386.7539l1.375 2.03126"/></g><path fill="none" stroke="#000" stroke-linecap="round" stroke-linejoin="round" stroke-miterlimit="10" stroke-width=".5" d="M466.03906 386.85938l1.375 2.03515"/><g clip-path="url(#am)"><path fill="none" stroke="#000" stroke-linecap="round" stroke-linejoin="round" stroke-miterlimit="10" stroke-width=".5" d="M146.64844 371.5l-5.29688 4.61719"/></g><path fill="none" stroke="#000" stroke-linecap="round" stroke-linejoin="round" stroke-miterlimit="10" stroke-width=".5" d="M146.64844 371.5l2.29297.875m-3.0625-.20313l1.14453.4375m11.51562-2.09375l-2.44922 6.58594m2.44922-6.58594l2.4336-.32421m11.80859.83984l-4.30469 5.55469m3.67969-4.7461l1.20703.20704m14.05469 1.21875l-6.94531 1.08593m5.93359-.92578l.73828.98047m13.08984 1.26953l-5.94921-3.73828m5.94922 3.73828l-.17579 2.44922m13.85157-3.21484l-6.67188-2.20313m6.67188 2.20313l.41797 2.41796m-1.38672-2.73828l.41406 2.41797m13.98828-2.55078l-6.90625-1.29687m6.90625 1.29687l.73438 2.33985m-1.73829-2.53125l.3672 1.17187m14-1.36328l-7.00392-.53516m7.00391.53516l.98438 2.25m-2.00391-2.32813l.49219 1.125m13.84375-1.05859l-7.00781-.51172m7.0078.51172l.9922 2.2461m-2.01172-2.32032l.49609 1.125m13.76953-.5625l-6.86719-1.48437m6.8672 1.48437l.66796 2.35938m-1.66797-2.57422l.33594 1.17969m14.02344-1.20313l-6.95703-1.00781m6.95703 1.00781l.82812 2.3086m-1.83984-2.45313l.41406 1.15234m13.94531-1.3789l-7.02343-.26563m7.02343.26563l1.07032 2.20703m-2.08985-2.2461l.53125 1.10547m13.80469-1.30469l-7.02344.20704m7.02344-.20704l1.21484 2.13282m-2.23828-2.10156l.60938 1.0664m13.72265-1.23828l-7.01172.49219m7.01172-.49219l1.30078 2.08203m-2.3203-2.01172l.64843 1.04297m13.6875-1.05078l-7.01563.36719m7.01563-.36719l1.26562 2.10156m12.03516-1.52344l-6.98437-.78906m6.98437.78906l.89844 2.28516m-1.91406-2.39844l.44921 1.14063m13.89063-1.14844l-7.0039-.54687m7.0039.54687l.98047 2.2461m-2-2.32813l.98047 2.25m13.35547-2.6875l-7.00782.48828m7.00782-.48828l1.30078 2.08203m-2.32032-2.00781l1.30079 2.07812m12.8828-2.95703l-6.70312 2.10156m6.70313-2.10156l1.7461 1.72266m-2.72266-1.41797l.875.86328m13.42578-1.13672l-6.72266 2.03906m6.72266-2.03906l1.73047 1.73828m-2.70704-1.4414l.86329.8711m13.37109-1.34376l-6.60938 2.39063m6.60938-2.39063l1.82031 1.64844m-2.78125-1.30078l.91016.82422m13.3789-1.13672l-6.6328 2.3164m6.6328-2.3164l1.80079 1.66797m-2.76563-1.32813l.90234.83203m13.56641-.21094l-7.01562.39844m7.01562-.39844l1.27344 2.09766m-2.29297-2.03906l.63672 1.05078m13.69922-1.11719l-7.01563.41016m7.01563-.41016l1.27734 2.09766m-2.29687-2.03516l.63671 1.04688m13.70313-.90235h-7.02734"/><g clip-path="url(#an)"><path fill="none" stroke="#000" stroke-linecap="round" stroke-linejoin="round" stroke-miterlimit="10" stroke-width=".5" d="M467.07422 373.8086l1.15234 2.16796"/></g><g clip-path="url(#ao)"><path fill="none" stroke="#000" stroke-linecap="round" stroke-linejoin="round" stroke-miterlimit="10" stroke-width=".5" d="M146.89063 358.4961l-5.78125 3.99218"/></g><path fill="none" stroke="#000" stroke-linecap="round" stroke-linejoin="round" stroke-miterlimit="10" stroke-width=".5" d="M146.89063 358.4961l2.17968 1.1289m-3.01953-.54688l1.08984.5625m13.26172-.82421l-6.17578 3.35156m6.17578-3.35156l2.04688 1.35546m11.67187-.08593l-6.98047.8125m6.98047-.8125l1.39453 2.01953m-2.41015-1.89844l.69531 1.00781m13.21094.9922l-6.13281-3.42579m6.1328 3.42578l-.05077 2.45313m-.83985-2.95313l-.05078 2.45313m-.84375-2.94922l-.02344 1.22656m15.13282-.2461l-6.15235-3.39843m6.15235 3.39844l-.03906 2.45312m-.85547-2.94531l-.03907 2.45312m-.85547-2.94921l-.03906 2.45312m15.34766-1.91016l-6.5625-2.5078m6.5625 2.5078l.30469 2.4375m-1.25782-2.80078l.30078 2.4336m14.13672-2.66407l-6.90234-1.3203m6.90234 1.3203l.72657 2.34375m-1.73047-2.53515l.36328 1.17187m13.97266-1.0586l-6.9336-1.16015m6.9336 1.16016l.77734 2.32422m12.57812-2.71094l-7.01562-.39063m7.01562.39063l1.03125 2.23047m12.28907-2.46875l-7.02344.08984m7.02344-.08984l1.17968 2.15234m12.07032-1.4375l-6.89453-1.34375m6.89453 1.34375l.71875 2.34766m12.58203-2.27735l-6.86719-1.48437m6.86719 1.48438l.67187 2.35937m-1.66797-2.57422l.33204 1.17969m14.05468-1.48438l-7.01562-.4453m7.01562.4453l1.01172 2.23438m-2.03515-2.29688l.5078 1.1172m13.82813-1.51954l-7.01172.48438m7.01172-.48438l1.29688 2.08203m-2.3164-2.01172l.64843 1.04297m13.66797-1.29297l-6.97656.84375m6.97656-.84375l1.40234 2.01563m-2.41797-1.89063l.70313 1.0039m13.57812.02345l-6.875-1.46094m6.875 1.46094l.67578 2.35937m-1.67578-2.57031l.33594 1.17969m14-1.07813l-6.91797-1.24219m6.91797 1.2422l.75 2.33593m-1.75781-2.51563l.75 2.33594m13.6289-2.72656l-7.02734-.09766m7.02734.09766l1.1211 2.17969m-2.14453-2.19532l1.12109 2.1836m-2.14453-2.19922l.5625 1.09375m14.6875-1.98828l-6.80469 1.7539m6.80469-1.7539l1.65625 1.8086m-2.64844-1.5547l1.65625 1.8086m12.58594-2.28516l-6.67578 2.19922m6.67578-2.19922l1.76953 1.69531m-2.74219-1.375l1.77344 1.69532m12.60156-1.70704l-6.84765 1.57813m6.84765-1.57813l1.60938 1.85157m-2.60547-1.6211l.80469.92579m13.58203-.6797l-7 .625m7-.625l1.33984 2.0547m-2.35937-1.96094l1.33984 2.05469m13.00781-1.94141l-7.02734.21094m7.02734-.21094l1.21485 2.13281m-2.23828-2.10156l1.21484 2.13281m13.1211-2.15625l-7.02344.19922m7.02343-.19922l1.21485 2.13281m-2.23438-2.10546l.60547 1.0664M467 359.77344l-6.8789 1.4375"/><g clip-path="url(#ap)"><path fill="none" stroke="#000" stroke-linecap="round" stroke-linejoin="round" stroke-miterlimit="10" stroke-width=".5" d="M467 359.77344l1.57031 1.88672"/></g><g clip-path="url(#aq)"><path fill="none" stroke="#000" stroke-linecap="round" stroke-linejoin="round" stroke-miterlimit="10" stroke-width=".5" d="M147.02734 345.39844l-6.05468 3.5625"/></g><path fill="none" stroke="#000" stroke-linecap="round" stroke-linejoin="round" stroke-miterlimit="10" stroke-width=".5" d="M147.02734 345.39844l2.09375 1.28125m-2.97265-.76563l1.04297.64453m13.52734-.2578l-6.80469 1.7539m6.80469-1.7539l1.65625 1.8125m-2.64844-1.5547l1.65625 1.8086m12.625-.21875l-6.7539-1.9414m6.7539 1.9414l.50781 2.40234m-1.49218-2.6836l.50781 2.39844m-1.48828-2.68359l.2539 1.20313m14.76954.0078l-6.2422-3.23046m6.2422 3.23047l.02734 2.45312m-.9375-2.92187l.02734 2.45312m-.93359-2.92578l.01172 1.23047m15.26562-.60937l-6.53125-2.58985m6.53125 2.58985l.26953 2.4414m-1.22265-2.8164l.27344 2.4375m14.21875-3.75391l-6.98047.79297m6.98047-.79297l1.39062 2.02344m-2.40625-1.91016l.69531 1.01172m13.65235-.91797l-7.01563.3789m7.01563-.3789l1.26953 2.10156m-2.28906-2.04687l.6328 1.05078m13.69532-.64063l-7.0039-.54687m7.0039.54688l.98047 2.25m12.34766-2.46485l-7.02735-.1211m7.02735.1211l1.11328 2.1875m-2.13672-2.20312l.5586 1.09375m13.77734-1l-7.02344-.27735m7.02344.27735l1.0625 2.21093m-2.08594-2.25l.53125 1.10547m13.78516-.79297l-6.98047-.82421m6.98047.82421l.89062 2.28516m-1.90625-2.40625l.44531 1.14453m13.8164-.6289l-6.83983-1.61329m6.83984 1.61329l.6211 2.375m-1.6172-2.60938l.3125 1.1875m14.01563-1.03125l-6.875-1.45313m6.875 1.45313l.67969 2.35547m-1.67969-2.57031l.33984 1.17968m14.04688-1.52343l-7.01953-.33985m7.01953.33985l1.04687 2.21875m-2.0664-2.26954l1.04297 2.22266m13.28906-2.5664l-7.01172.44921m7.01172-.44921l1.28906 2.08984m-2.3086-2.02344l.64454 1.04297m13.69531-.83984l-7.02734-.08985m7.02734.08985l1.125 2.17968m-2.14453-2.1914l.5586 1.08984m13.71484-.46484l-6.90235-1.3164m6.90235 1.3164l.72656 2.34375m-1.73047-2.53516l.72656 2.34375m13.65235-2.875l-7.02344.1289m7.02344-.1289l1.19531 2.14453m-2.21484-2.125l1.1914 2.14453m-2.21484-2.125l1.1914 2.14454m14.05079-3.02344l-6.78907 1.8086m6.78907-1.8086l1.67187 1.79687m-2.66015-1.53515l1.67187 1.79687m-2.66016-1.53125l1.67188 1.79688m13.64844-2.20704l-6.84766 1.57813m6.84766-1.57813l1.60937 1.85157m-2.60547-1.625l1.60938 1.85547m-2.60547-1.625l1.60937 1.85156m13.75782-1.98047l-6.96875.91797m6.96875-.91797l1.42578 2m-2.4414-1.86719l1.42577 2m-2.4375-1.86328l.71094.9961m14.625-1.3047l-6.95313 1m6.95313-1l1.44922 1.98048m-2.46094-1.83594l1.44922 1.98047m-2.46094-1.83594l.72266.99219m14.6289-1.19531l-6.98046.82421m6.98046-.82421l1.39454 2.01953m-2.41016-1.89844l1.39844 2.01562m-2.41406-1.89453l.69921 1.00781m14.59766-1.54296l-6.88281 1.41015m6.88281-1.41015l1.5625 1.89453m-2.5625-1.6875l1.5625 1.89062m-2.5625-1.6875l.78125.94531m14.47266-1.60546l-6.76172 1.91015"/><g clip-path="url(#ar)"><path fill="none" stroke="#000" stroke-linecap="round" stroke-linejoin="round" stroke-miterlimit="10" stroke-width=".5" d="M466.9414 346.22266l1.69923 1.77343"/></g><path fill="none" stroke="#000" stroke-linecap="round" stroke-linejoin="round" stroke-miterlimit="10" stroke-width=".5" d="M465.96094 346.5l1.69531 1.77344"/><g clip-path="url(#as)"><path fill="none" stroke="#000" stroke-linecap="round" stroke-linejoin="round" stroke-miterlimit="10" stroke-width=".5" d="M146.8164 331.76563l-5.6328 4.1953"/></g><path fill="none" stroke="#000" stroke-linecap="round" stroke-linejoin="round" stroke-miterlimit="10" stroke-width=".5" d="M145.9961 332.375l1.10937.52344m13.57031-.05469l-6.72266 2.03906m6.72266-2.03906l1.73438 1.73828m11.67578-.08203l-6.91016-1.27344m6.91016 1.27344l.73828 2.33984m-1.7461-2.52343l.3711 1.16796m13.47266.2461l-5.95313-3.73438m5.95313 3.73438l-.17579 2.44922m-.6914-2.99219l-.08594 1.22266m14.77344-2.07813l-6.96485-.9375m6.96485.9375l.85156 2.30078m12.49219-2.6289l-7.01953-.28125m7.01953.28125l1.0664 2.21093m-2.08593-2.2539l1.0625 2.21094m13.27343-2.37891l-7.02343.14062m7.02343-.14062l1.19532 2.14062m-2.21485-2.12109l.59766 1.07031m13.73828-.97265l-7.02734-.09375m7.02734.09375l1.125 2.17968m-2.14844-2.1953l.5625 1.09374m13.7461-.65234l-6.96485-.94531m6.96485.9453l.84765 2.30079m-1.86328-2.4414l.42578 1.15234m13.9336-1.50782l-7.02735.04688m7.02735-.04688L268.51563 336m-2.1875-2.15234l.58203 1.07812m13.6953-1.69922L273.69532 334.5m6.91016-1.27344l1.52734 1.92188m-2.53125-1.73828l1.52344 1.92187m12.80469-.8789l-6.92578-1.1797m6.92578 1.1797l.76953 2.33203m-1.77734-2.50391l.38671 1.16406M307 335.26953l-6.4375-2.8125m6.4375 2.8125l.1914 2.44531m-1.1289-2.85546l.09766 1.22265m14.32422-1.28906l-6.77735-1.86328m6.77735 1.86328l.53515 2.39453m-1.52344-2.66406l.53907 2.39453m13.8828-2.82813l-7.01171-.45312m7.01172.45312l1.01172 2.23438m-2.03125-2.30078l1.00781 2.23437m13.3086-1.99219l-6.98047-.80468m6.98046.80469l.89844 2.28515m-1.91406-2.40234l.44922 1.14453m13.83984-.7461l-6.89453-1.36718m6.89453 1.36719l.70703 2.35156m-1.71093-2.55078l.35546 1.17578m13.98047-1.07813l-6.92968-1.16406m6.92968 1.16406l.77735 2.32813m-1.78516-2.4961l.77734 2.32422m13.58985-2.92187l-7.01563.36719m7.01563-.3672l1.26172 2.10548m-2.28125-2.05079l1.26172 2.10157m13.05468-2.35938l-6.98047.77344m6.98047-.77344l1.38672 2.02344m-2.40234-1.91016l.69531 1.01172m13.59766-1.38281l-6.90625 1.28906m6.90625-1.28906l1.53125 1.91797m-2.53516-1.73047l1.53125 1.91797m12.7461-2.30078l-6.82422 1.67578m6.82421-1.67578l1.63672 1.83203m-2.6289-1.58594l1.63672 1.82813m-2.62891-1.58594l.8164.91406m14.50782-1.30469l-6.8711 1.48438m6.8711-1.48438l1.58203 1.8711m-2.58203-1.65625l1.58203 1.875m-2.58203-1.66016l.79297.9375m14.51172-1.40234l-6.85157 1.55469m6.85157-1.5547l1.60546 1.85938m-2.60156-1.63281l1.60156 1.85938m-2.59765-1.63282l1.60156 1.85938m13.54297-2.83985l-6.52344 2.60938"/><g clip-path="url(#at)"><path fill="none" stroke="#000" stroke-linecap="round" stroke-linejoin="round" stroke-miterlimit="10" stroke-width=".5" d="M466.82422 332.5586l1.875 1.58202"/></g><path fill="none" stroke="#000" stroke-linecap="round" stroke-linejoin="round" stroke-miterlimit="10" stroke-width=".5" d="M465.875 332.9375l1.875 1.58594m-2.82422-1.20703l.9375.79296"/><g clip-path="url(#au)"><path fill="none" stroke="#000" stroke-linecap="round" stroke-linejoin="round" stroke-miterlimit="10" stroke-width=".5" d="M140.63672 319.53125l6.72656 2.03125"/></g><path fill="none" stroke="#000" stroke-linecap="round" stroke-linejoin="round" stroke-miterlimit="10" stroke-width=".5" d="M160.3125 318.71484l-5.9961 3.66797m19.82813-1.91797l-7.02734.16797m7.02734-.16797l1.20313 2.13672m11.67578-.35547l-6.15625-3.39453m6.15625 3.39453l-.03906 2.45313m13.41015-2.5625l-6.26562-3.17969m6.26562 3.17969l.04688 2.45312m-.96094-2.91406l.02344 1.22656m14.41015-1.2578l-6.67578-2.19532m6.67578 2.19531l.41797 2.41797m-1.39062-2.73828l.41797 2.41797m13.91406-2.23828l-6.76563-1.91016m6.76563 1.91016l.51953 2.39453m-1.5039-2.67578l.51952 2.39843m13.87891-2.61328l-6.96484-.91797m6.96484.91797l.85938 2.29688m-1.8711-2.42969l.42969 1.14844m13.83984-.6836l-6.84765-1.58203m6.84765 1.58203l.63281 2.3672m-1.6289-2.59767l.63281 2.3711m13.69531-2.21485l-6.8828-1.43359m6.8828 1.4336l.6836 2.35546m-1.6875-2.5664l.6875 2.35547m13.70312-2.83985l-7.02734-.04297m7.02734.04297l1.13672 2.17188m-2.16016-2.17969l.57032 1.08984m13.7461-1.51562l-6.98048.82031m6.98047-.82031l1.39453 2.01953m-2.41015-1.89844l1.39453 2.01563m12.82812-.77344l-6.76562-1.90234m6.76562 1.90234l.52344 2.39453m-1.50781-2.67187l.26172 1.19921m13.96093-.6875l-6.61328-2.375m6.61328 2.375l.35157 2.4297m-1.3125-2.77344l.17578 1.21484m14.29297-1.7461l-7-.62109m7 .6211l.95703 2.2578m-1.97657-2.34765l.48047 1.1289m13.76172-.48437l-6.8125-1.73047m6.8125 1.73047l.58203 2.38281m12.69922-2.26562l-6.7461-1.96484m5.76563 1.67968l.25 1.19922m14.16407-1.5l-6.98047-.79687m6.98047.79687l.89843 2.28516m12.28907-3.69531l-6.72657 2.02734m6.72657-2.02734l1.72656 1.74218m-2.70703-1.44921l.86718.87109m13.02344 1.74219l-5.91797-3.78516m5.0586 3.23438l-.09766 1.22265m11.71875.92578l-.8125-6.98047m.69531 5.96485l-1.01172.69531m17.21485-1.67188l-6.35547-3m19.23437-.69921l-5.48046 4.40234m4.68359-3.76172l1.125.48438m13.3125-.64454l-6.1289 3.4375m6.1289-3.4375l2.0625 1.32422m-2.95703-.82421l1.03515.66406m12.91797-1.55078l-5.62109 4.21484"/><g clip-path="url(#av)"><path fill="none" stroke="#000" stroke-linecap="round" stroke-linejoin="round" stroke-miterlimit="10" stroke-width=".5" d="M466.3711 318.4414l2.22265 1.03907"/></g><g clip-path="url(#aw)"><path fill="none" stroke="#000" stroke-linecap="round" stroke-linejoin="round" stroke-miterlimit="10" stroke-width=".5" d="M465.55469 319.05469l2.22265 1.03906"/></g><path fill="none" stroke="#000" stroke-linecap="round" stroke-linejoin="round" stroke-miterlimit="10" stroke-width=".5" d="M464.73828 319.66797l1.10938.51953"/><path fill="#00f" fill-rule="evenodd" d="M392.67578 467.64844h8.6211V457.5039h-8.6211v10.14453"/><path fill="azure" fill-rule="evenodd" d="M394.51172 459.33594h.83203v2.82422h3.28516v-2.82422h.83203v6.48047h-.83203v-2.91797h-3.28516v2.91797h-.83203v-6.48047"/><path fill="#00f" fill-rule="evenodd" d="M383.80078 436.57813h8.61719v-10.14454h-8.61719v10.14454"/><path fill="azure" fill-rule="evenodd" d="M385.63281 428.26563h.83203v2.82421h3.28907v-2.82421h.83203v6.48046h-.83203v-2.91406h-3.28907v2.91406h-.83203v-6.48046"/><path fill="#00f" fill-rule="evenodd" d="M219.58203 414.38672h8.61719v-10.14453h-8.61719v10.14453"/><path fill="azure" fill-rule="evenodd" d="M221.41406 406.07422h.83203v2.82422h3.28907v-2.82422h.83203v6.48047h-.83203v-2.91406h-3.28907v2.91406h-.83203v-6.48047"/><path fill="#ff3030" fill-rule="evenodd" d="M171.45313 370.0039h7.6914v-10.14452h-7.6914v10.14453"/><path fill="azure" fill-rule="evenodd" d="M173.28516 361.6914h.83593v5.73829h3.19141v.74219h-4.02734v-6.48047"/><path fill="#ffffe0" fill-rule="evenodd" d="M355.0586 395.57813h22.17968v-10.19141H355.0586v10.1914"/><path fill-rule="evenodd" d="M358.5586 387.21875h.5078v6.29297h-.78515v-4.48828h-1.39063v-.55469l.5625-.0664.25-.0547.23047-.08984.20313-.14062.17578-.20703.14063-.29688.10546-.39453m4.8125 0l.23047.01953.21875.05469.20703.08984.19922.1211.1836.14843.17187.17579.30078.42187.24219.49219.17969.54687.11328.57813.03515.58984-.03515.59375-.11328.58594-.17969.55469-.24219.5-.30078.42968-.17187.1797-.1836.15233-.19922.125-.20703.08985-.21875.0586-.23047.01952-.22656-.01953-.21875-.0586-.21094-.08983-.1953-.125-.1836-.15235-.17188-.17969-.30078-.42968-.2461-.5-.17968-.5547-.10938-.58593-.03906-.59375h.83203l.03125.5664.08204.50391.125.44141.16406.375.1875.30078.21094.22266.22265.13672.22656.04687.22657-.04687.22265-.13672.21094-.22266.1914-.30078.16407-.375.125-.4414.08203-.50391.02734-.5664-.02734-.5586-.08203-.5-.125-.4375-.16406-.36719-.19141-.28906-.21094-.21485-.22265-.1328-.22657-.04298-.22656.04297-.22265.13281-.21094.21485-.1875.28906-.16406.36719-.125.4375-.08204.5-.03125.5586h-.83203l.03906-.58985.10938-.57813.17969-.54687.2461-.49219.30077-.42188.17188-.17578.1836-.14843.1953-.1211.21094-.08984.21875-.05469.22656-.01953m5.09375 0h.50782v6.29297h-.78516v-4.48828h-1.39063v-.55469l.5586-.0664.2539-.0547.23047-.08984.20313-.14062.17187-.20703.14454-.29688.10546-.39453m2.82032 2.17578h.78906l.01953-.3164.0586-.28516.10156-.2539.13671-.21485.1836-.17578.22265-.1289.26563-.07813.3086-.02735.23827.01953.22266.0625.20313.10157.17968.14062.14844.17188.11328.20703.07031.23437.02735.26563-.02344.26953-.0664.22265-.10938.19141-.15625.17188-.19922.16406-.2461.16406-.63671.39063-.53516.3125-.4375.3164-.34765.32422-.26172.33594-.1914.35156-.125.36719-.07032.39453-.01953.41797h4.21094v-.73828h-3.33204l.08204-.28516.11328-.23828.14843-.19922.1875-.17969.23047-.17187.28125-.17578.71485-.41797.41796-.20313.34375-.23046.28125-.25391.21875-.26563.16407-.27734.11328-.28516.0625-.28515.01953-.28125-.04297-.38281-.11719-.34766-.1914-.3086-.25-.26171-.30078-.21485-.34766-.15625-.3789-.09765-.40626-.03516-.4375.03125-.39843.10156-.35157.16406-.30468.23438-.25.30469-.1875.375-.11329.44531-.04296.51953"/><path fill="#ffffe0" fill-rule="evenodd" d="M208.59375 349.57813h22.17969v-10.19141h-22.17969v10.1914"/><path fill-rule="evenodd" d="M212.09375 341.21875h.50781v6.29297h-.78515v-4.48828h-1.39063v-.55469l.5586-.0664.2539-.0547.23047-.08984.20313-.14062.17187-.21094.14453-.29297.10547-.39453m4.8125 0l.23047.01953.21875.05469.20703.08984.19531.1211.1836.14843.17187.17579.30469.41796.24219.4961.17968.54687.10938.57813.03906.58984-.03906.59375-.10938.58594-.17968.55078-.2422.5039-.30468.4297-.17187.17968-.1836.15235-.19531.12109-.20703.09375-.21875.0586-.23047.01952-.23047-.01953-.21875-.0586-.20703-.09374-.19531-.1211-.1836-.15234-.17187-.17969-.30469-.42968-.24219-.50391-.17968-.55078-.10938-.58594-.03906-.59375h.83203l.03125.5625.07813.50781.1289.44141.16016.375.1914.30078.21094.22266.22266.13672.22656.04687.22656-.04687.22266-.13672.21094-.22266.1914-.30078.16016-.375.1289-.4414.08204-.50782.02734-.5625-.02734-.5586-.08203-.5039-.12891-.4336-.16016-.36718-.1914-.28906-.21094-.21485-.22266-.1328-.22656-.04298-.22656.04297-.22266.13281-.21094.21485-.1914.28906-.16016.36719-.1289.4336-.07813.5039-.03125.5586h-.83203l.03906-.58985.10938-.57813.17968-.54687.2422-.4961.30468-.41796.17187-.17579.1836-.14843.19531-.1211.20703-.08984.21875-.05469.23047-.01953m5.08984 0h.51172v6.29297h-.78906v-4.48828h-1.38672v-.55469l.5586-.0664.2539-.0547.22656-.08984.20703-.14062.17188-.21094.14063-.29297.10546-.39453m2.82422 2.17578h.78906l.01954-.3164.05859-.28516.09766-.2539.14062-.21485.1836-.17578.22265-.1289.26563-.07813.30468-.02735.23828.01953.22657.0625.20312.10157.17969.14062.14844.17188.11328.20703.07031.23437.02734.26563-.02343.26562-.0664.22656-.10938.19141-.15625.17188-.19922.16015-.2461.16797-.63672.39063-.53515.3125-.4375.3164-.34766.32422-.26562.33594-.1875.35156-.125.36719-.07031.39453-.01954.41797h4.21094v-.73828h-3.33203l.08203-.28516.11328-.23828.14844-.19922.1875-.17969.23047-.17187.27734-.17578.71875-.41797.41406-.20313.34766-.23046.28125-.25391.21875-.26563.16406-.27734.10938-.28516.0664-.28515.01954-.28125-.04297-.38281-.1211-.34766-.1875-.3086-.25-.26171-.30468-.21485-.34375-.15625-.38282-.09765-.40625-.03516-.43359.03125-.39844.10156-.35547.16406-.30468.23438-.2461.30469-.1875.375-.11328.44531-.04297.51953"/><path fill="#ffffe0" fill-rule="evenodd" d="M323.99219 341.17578h22.17969v-10.1914h-22.1797v10.1914"/><path fill-rule="evenodd" d="M327.48828 332.8164H328v6.29298h-.78906v-4.48829h-1.38672v-.55468l.5586-.06641.2539-.05469.22656-.08984.20703-.14063.17188-.21093.14062-.29297.10547-.39453m4.8164 0l.22657.01953.21875.05469.21094.08984.19531.1211.1836.14843.17187.17578.30078.41797.2461.4961.17968.54687.10938.57812.03906.58985-.03906.59375-.10938.58594-.17969.55078-.24609.5039-.30078.42969-.17188.17578-.18359.15625-.19531.1211-.21094.09375-.21875.05468-.22656.01953-.23047-.01953-.21875-.05469-.20703-.09375-.19922-.12109-.1836-.15625-.17187-.17578-.30078-.42969-.24219-.5039-.17969-.55079-.11328-.58593-.03515-.59375h.83203l.02734.5625.08203.50781.125.4414.16406.375.19141.30079.21094.22265.22265.13672.22657.04688.22656-.04688.22266-.13672.21093-.22265.1875-.30078.16407-.375.125-.44141.08203-.50781.03125-.5625-.03125-.5586-.08203-.5039-.125-.4336-.16407-.36718-.1875-.29297-.21093-.21094-.22266-.13281-.22656-.04688-.22656.04688-.22266.13281-.21094.21094-.1914.29297-.16407.36718-.125.4336-.08203.5039-.02734.5586h-.83203l.03515-.58985.11328-.57812.1797-.54688.24218-.49609.30078-.41797.17188-.17578.18359-.14844.19922-.1211.20703-.08983.21875-.0547.23047-.01952m5.08984 0h.50781v6.29296h-.78515v-4.48828h-1.38672v-.55468l.5586-.06641.25-.05469.23046-.08984.20313-.14063.17578-.21093.14062-.29297.10547-.39453m6.80469 1.61718h-.78516l-.05469-.21093-.08203-.1875-.10546-.15625-.12891-.13282-.14844-.10156-.16015-.07422-.16797-.04687-.17188-.01563-.32812.04297-.28907.1211-.24609.1953-.20313.26563-.16015.33985-.11328.40234-.07031.46875-.02344.52734.1875-.20312.1875-.16016.1836-.1211.1875-.08983.1875-.0586.1914-.03906.40234-.02344.30469.03125.32031.09375.3164.15235.29688.21875.2539.28515.19923.35156.07031.19922.05469.21875.02734.23438.00781.25-.78906.04687-.02734-.25781-.07813-.25-.1211-.23438-.16015-.21093-.19531-.17969-.21875-.13672-.23828-.08594-.25781-.03125-.25391.03125-.24219.08594-.21875.13672-.1914.17969-.16016.21094-.125.23437-.07813.25-.02343.25781.02344.26172.07812.25.125.23438.16016.21093.1914.17579.21875.13671.24219.08985.2539.03125.25782-.03125.23828-.08985.21875-.13671.19531-.17579.16016-.21093.1211-.23438.07812-.25.02734-.26172.78906-.04687-.03125.3711-.09375.375-.15625.35546-.22265.32813-.29297.28515-.16797.11719-.1875.10156-.20703.08203-.22266.0625-.24219.03906-.26171.01172-.28125-.01562-.26172-.04688-.23828-.07421-.21485-.10547-.19531-.13282-.17188-.15625-.15625-.17968-.1328-.20313-.1172-.22265-.10156-.23829-.14453-.53515-.08594-.59375-.02734-.64063.03906-.7461.11328-.66015.1875-.57812.1211-.25781.13672-.23047.15234-.20704.17188-.17968.18359-.15625.20312-.1289.21875-.10157.23047-.07422.25-.04297.26172-.01562.36719.03125.33203.09765.29297.15235.25781.19921.21094.23829.16406.27734.11719.30078.0625.32031"/></g></defs><use xlink:href="#ax"/></svg>