<svg xmlns="http://www.w3.org/2000/svg" role="img" xmlns:xlink="http://www.w3.org/1999/xlink" viewBox="142.45 309.95 326.84 171.84"><defs><clipPath id="a"><path d="M144 436h1v44.32813h-1zm0 0"/></clipPath><clipPath id="b"><path d="M144 311.67188h1V436h-1zm0 0"/></clipPath><clipPath id="c"><path d="M144 311.67188h324v168.65625H144zm0 0"/></clipPath><clipPath id="d"><path d="M467 311.67188h1v168.65625h-1zm0 0"/></clipPath><clipPath id="e"><path d="M144 479h4v1.32813h-4zm0 0"/></clipPath><clipPath id="f"><path d="M147 480h2v.32813h-2zm0 0"/></clipPath><clipPath id="g"><path d="M153 479h9v1.32813h-9zm0 0"/></clipPath><clipPath id="h"><path d="M160 480h3v.32813h-3zm0 0"/></clipPath><clipPath id="i"><path d="M159 480h2v.32813h-2zm0 0"/></clipPath><clipPath id="j"><path d="M166 479h9v1.32813h-9zm0 0"/></clipPath><clipPath id="k"><path d="M173 480h3v.32813h-3zm0 0"/></clipPath><clipPath id="l"><path d="M172 480h2v.32813h-2zm0 0"/></clipPath><clipPath id="m"><path d="M180 479h8v1.32813h-8zm0 0"/></clipPath><clipPath id="n"><path d="M187 480h2v.32813h-2zm0 0"/></clipPath><clipPath id="o"><path d="M186 480h2v.32813h-2zm0 0"/></clipPath><clipPath id="p"><path d="M193 479h9v1.32813h-9zm0 0"/></clipPath><clipPath id="q"><path d="M200 480h3v.32813h-3zm0 0"/></clipPath><clipPath id="r"><path d="M199 480h2v.32813h-2zm0 0"/></clipPath><clipPath id="s"><path d="M206 479h9v1.32813h-9zm0 0"/></clipPath><clipPath id="t"><path d="M213 480h3v.32813h-3zm0 0"/></clipPath><clipPath id="u"><path d="M212 480h2v.32813h-2zm0 0"/></clipPath><clipPath id="v"><path d="M220 480h8v.32813h-8zm0 0"/></clipPath><clipPath id="w"><path d="M227 480h2v.32813h-2zm0 0"/></clipPath><clipPath id="x"><path d="M226 480h2v.32813h-2zm0 0"/></clipPath><clipPath id="y"><path d="M233 479h8v1.32813h-8zm0 0"/></clipPath><clipPath id="z"><path d="M240 479h3v1.32813h-3zm0 0"/></clipPath><clipPath id="A"><path d="M246 479h9v1.32813h-9zm0 0"/></clipPath><clipPath id="B"><path d="M253 479h3v1.32813h-3zm0 0"/></clipPath><clipPath id="C"><path d="M260 479h8v1.32813h-8zm0 0"/></clipPath><clipPath id="D"><path d="M266 479h4v1.32813h-4zm0 0"/></clipPath><clipPath id="E"><path d="M273 479h8v1.32813h-8zm0 0"/></clipPath><clipPath id="F"><path d="M279 479h2v1.32813h-2zm0 0"/></clipPath><clipPath id="G"><path d="M286 479h9v1.32813h-9zm0 0"/></clipPath><clipPath id="H"><path d="M292 480h2v.32813h-2zm0 0"/></clipPath><clipPath id="I"><path d="M300 479h8v1.32813h-8zm0 0"/></clipPath><clipPath id="J"><path d="M306 480h1v.32813h-1zm0 0"/></clipPath><clipPath id="K"><path d="M313 479h8v1.32813h-8zm0 0"/></clipPath><clipPath id="L"><path d="M319 480h2v.32813h-2zm0 0"/></clipPath><clipPath id="M"><path d="M326 479h9v1.32813h-9zm0 0"/></clipPath><clipPath id="N"><path d="M340 478h8v2.32813h-8zm0 0"/></clipPath><clipPath id="O"><path d="M353 478h8v2.32813h-8zm0 0"/></clipPath><clipPath id="P"><path d="M369 476h3v4.32813h-3zm0 0"/></clipPath><clipPath id="Q"><path d="M381 477h6v3.32813h-6zm0 0"/></clipPath><clipPath id="R"><path d="M393 478h8v2.32813h-8zm0 0"/></clipPath><clipPath id="S"><path d="M391 480h4v.32813h-4zm0 0"/></clipPath><clipPath id="T"><path d="M406 479h8v1.32813h-8zm0 0"/></clipPath><clipPath id="U"><path d="M404 479h4v1.32813h-4zm0 0"/></clipPath><clipPath id="V"><path d="M420 478h7v2.32813h-7zm0 0"/></clipPath><clipPath id="W"><path d="M420 480h2v.32813h-2zm0 0"/></clipPath><clipPath id="X"><path d="M433 479h8v1.32813h-8zm0 0"/></clipPath><clipPath id="Y"><path d="M439 479h2v1.32813h-2zm0 0"/></clipPath><clipPath id="Z"><path d="M446 478h8v2.32813h-8zm0 0"/></clipPath><clipPath id="aa"><path d="M461 476h5v4.32813h-5zm0 0"/></clipPath><clipPath id="ab"><path d="M144 466h4v2h-4zm0 0"/></clipPath><clipPath id="ac"><path d="M466 465h2v3h-2zm0 0"/></clipPath><clipPath id="ad"><path d="M144 452h4v3h-4zm0 0"/></clipPath><clipPath id="ae"><path d="M466 451h2v2h-2zm0 0"/></clipPath><clipPath id="af"><path d="M144 439h4v3h-4zm0 0"/></clipPath><clipPath id="ag"><path d="M465 437h3v2h-3zm0 0"/></clipPath><clipPath id="ah"><path d="M144 426h4v3h-4zm0 0"/></clipPath><clipPath id="ai"><path d="M465 424h3v2h-3zm0 0"/></clipPath><clipPath id="aj"><path d="M144 413h4v2h-4zm0 0"/></clipPath><clipPath id="ak"><path d="M465 410h3v3h-3zm0 0"/></clipPath><clipPath id="al"><path d="M144 397h3v6h-3zm0 0"/></clipPath><clipPath id="am"><path d="M466 398h2v2h-2zm0 0"/></clipPath><clipPath id="an"><path d="M465 398h3v3h-3zm0 0"/></clipPath><clipPath id="ao"><path d="M144 384h4v6h-4zm0 0"/></clipPath><clipPath id="ap"><path d="M466 385h2v2h-2zm0 0"/></clipPath><clipPath id="aq"><path d="M465 385h3v3h-3zm0 0"/></clipPath><clipPath id="ar"><path d="M144 372h4v4h-4zm0 0"/></clipPath><clipPath id="as"><path d="M466 372h2v3h-2zm0 0"/></clipPath><clipPath id="at"><path d="M144 359h4v3h-4zm0 0"/></clipPath><clipPath id="au"><path d="M466 358h2v3h-2zm0 0"/></clipPath><clipPath id="av"><path d="M144 345h4v4h-4zm0 0"/></clipPath><clipPath id="aw"><path d="M466 345h2v3h-2zm0 0"/></clipPath><clipPath id="ax"><path d="M144 332h4v4h-4zm0 0"/></clipPath><clipPath id="ay"><path d="M466 332h2v3h-2zm0 0"/></clipPath><clipPath id="az"><path d="M144 316h1v9h-1zm0 0"/></clipPath><clipPath id="aA"><path d="M465 317h3v3h-3zm0 0"/></clipPath><g id="aB" clip-path="url(#clip1)"><path fill="#fff" fill-opacity="0" fill-rule="evenodd" d="M0 0h1000v1000H0zm0 0"/><path fill="#d3d3d3" fill-opacity="0" fill-rule="evenodd" d="M162.15234 355.86719l-.23437.29297.0586.23437.11718.17188.17578.23437.29297.34766.11328.0586.11719-.17188.0586-.23438.17577-.17578.46485-.17578h.69922l.23437.29297.28906.8164.0586.17579.17578.23046.35156.23438.69922.69922.17188.17578.23437.34765.23438.41016.28906.58203.41015.46485.23047.23437.23438.17578.11719.23047.17578.29297.17187 1.16406v.23438l.0586.28906.05859.11719.11719.11719.34765.41015.11719.17188.17578.17578.17578.23437.11719.17188.17188.35156.05859.23438.23437.40625.23438-.0586-.17578.17578-.0586.92969h-.58203l-.23437-.11328-.34766.11328-.11719.11719-.05859.29297-.0586.17578-.11718.17187-.46484.29297-.0586.23438-.0586.11328v.64453l.0586.17187v.41016l.0586.0586v.40624l.05859.40625.11719.17579.05859.05859.23047.64062-.0586.29297v.69922l-.05859.58203v.23438l-.0586.23047-.05468.35156v1.92187l.05469.1172h.42578l-.36719.11718-.02344.35156.89063 1.16797 1.74219.53906 1.33984.35938v.53906l.08984.8086.53516.71484 1.51953.26953.89063-.08594.08984 1.16406.53516.1797 1.16015-.1797 2.05469-.98437 1.16016-.36328 1.8789-.17578 1.69531-.1797-.17968.71876-1.51563.08594-1.25.08984-.80469.26953-1.07421.8086.26953.71875.53515.89843-.17968.625-.26563.8086.26563 1.07812.625.89844.80468.17969 1.25-.1797-.26562.72267.09766.5039.05468.29297v.17188l.0586.29296v.40625l.17578.1172.35156.11718h.40625l.29297-.17578.11328-.11719.0586-.11719.11718-.23047.0586-.17578.35156-.46484.23047-.17578.17578-.0586.17578.0586.0586.17578.11718.98828.05469.46875.0586.17188.11718.23437.17578.0586.8164.05859h.28907l.11719.23437.05859.40625.0586.35156v1.10547l.11718.29297.11719.34766.28906.69922.17578.35156.58203.7539.35157.17579.17187.0586.46875.23437.64063.46484.34765.23438.29297.17578.29297.05468.23047.0625.8164.34766.29297.17578.11328.17188.35157.35156.11719.17578.52343.64063v.28906l.0586.35156v.34766l.05859.35156.0586.28906.11718.0586.17188.05859h.17578l.58203.23437.17578.1172.17578.28905.17578.23438.11328.23437.29297.23047.11719.11719v.41016l.0586.05468.28906.23438.23437.11719.0586.11718.11718.17188.0586.11719.23047.23437.05859.17578.23437.0586.1172.05859-.1172.11328-.05859.11719v.11719l-.11719.29296-.11719.28907v.58203l.17579.11719.11718.05859.0586.11719.11719.11719.11328.05859.17578.34765.0586.35157.05858.40625v.17578l-.05859.17578-.11719.69922v.17187l.1172.17579.29296.29296h.40625l.17578.1172.11719.17187.11719.29296v.23438h-.52735l-.23047-.23438h-.23437l-.17578.0586-.0586.69922.0586.34765.11719.17579.17578.41015.11718.23047.28907.46875.17578.05469h.52344l.23437.0586.75781.64062.0586.29296v.23438l.05859.0586.23047.34765v.35156l-.11719.17188v.29297l.29297.28906.29297.17578.17187.0586.29297.17577.29297.1172.58203.40624.28906.23438.29297.17578.21875.16015.01563.01172.23047.17579.64062.52343.17578.23438.1172.17578.17577.17578.11328.17188v.64062l.1172.17578.46874.11719.58203.11719.23438.05859.23047.11328.29297.11719.11328.0586.58593.35156.28907.17187.17578.0625.17578.05469.17578.0586.69922.35155.28906.17579.23438.05468.28906.17578.23437.1172.64063.40624.29297.11719.17187.0586.23438.05859.41015.05859.23047.0586.23438.11718.0586.17188-.41017.17578.46875.0586.0586.29296.11328.23438.17578.05468.23438.0586.17578.05859.40625.11719.64062.23437.11719.17188.0586.23437v.17578l-.0586.1172-.0586.40624.23438.23438.11719.05859.34766.11719.64062.23047.17578.11718.28906.1172.17578.17577.23438.46485.58203 1.10546.17578.17579.34766.17578.17578.11719.35156.11718 1.04688.52344.23437.0586.46485.11327.29297.0586.46484.17578.75781.58203.23438.23438.34765.46484.17578.17578.28907.23438.8164.69921.29297.17579.28906.28906.29297.17578.29297.28906.69531.64063.17578.17578.29297.23437.28907.23438.46875.28906.64062.58203.34766.23438.23437.29297.34766.34765.35156.46485.9336.99218.34765.40625.11719.17579.23437.05859.11328.11719.64454.17578.23047.11328.23437.0586.29297.17577.23047.1172.9336.69921.40624.40625.23438.17578.40625.17578.23437.11719.8164.34766.34766.23437.23438.11719.29297.28906.23047.11719.7578.35156.35157.17188.23047.05859.29297.11719.23437.0586.8711.17577h.8164l.46875.23047.17188.0586.875.69921.46484.1172.29297.05858.17578.0586.23047.0586.46875.05859.34766.05859.35156.0586.40625.05859h.29297l.17187.0586v.23046l.17578.17578h.29297l.34766.0586.35156.05859.69922.11719h.64063l.46484-.23438.29297-.17578.17187-.11719.41016-.17187.28906-.17578.9336-.46485.46875-.29297.52343-.29296.46485-.17188.46484-.17578 1.05078-.46485.28906-.11718.41016-.11719.28906-.11719.52735-.17578 1.51562-.69922.58203-.34765.28907-.0586.29297-.0586.34765-.11718.875-.23047.35156-.11719h.11329l.23437-.05859.875-.23437.23438-.0586h.8125l.35156-.0586.8164-.11718.17188-.0586.35156-.05468.29297-.0586.23047-.05859.8164-.17578.17579-.0586h.34765l.23438-.05859.46484-.11718.75781-.17188.23438-.0586h.34765l.41016-.11718.28906-.0586 1.28516-.05859h.28906l.41016-.0586.23047-.05858h.17578l.875-.1172h.40625l.41015-.11718h.34766l.35156-.11328.8711-.0586h1.75l1.04687.28907.41016.11719.28906.11718.35156.11719.28907.11719 1.05078.17187.28906.0586h.29297l.29297.05859.17187.0586.41016.05859.17187.0586.1172.05858h.11718l.11719.0586.35156.0586h.11328l.41016.0664 1.92187.39453 1.92578.39453 1.51953.44922 1.69532.71875 2.14453.80469 1.60547-.71875 1.42968-.80469 1.16016-1.07813 1.25-.44921 3.03516-.71875 1.875-.35938 2.14453-1.34765 2.23437-1.25391 2.5-1.25781 1.69531-.44922 1.78516-.17969 1.16016-.26953.625.53906 1.33984-.26953.71485-.98828.98437-1.34375.44531-.17969.80469-.35937 1.875-.53907 1.78516-.44921 1.25-.26954 1.16015-.08984 1.69922-.08984 1.96094-.26954 1.25-.08984h.53906l.625-.08984h.89063l2.14453-.17969 2.41015-.17969 2.58985-.08984 1.69531.17969 1.60938.08984 1.42968.35938 1.16016.71875 1.875.98828 1.16015 1.52734.26563.71484.6289.08985.35548.89844.53515.53906.53516 1.52734 1.07422.35938h.53515l-.80469.53515.08985 1.70703.71484 2.69532.89063.80468.89453.98829.71484 1.2578 1.78516.53907 1.51953-.17969.35547 1.34375 1.60937-.80469.98047-.53906.26953.26953.31641-.21484.21875-.14453.80078.44922.44922-.35938h.35547l.53515-.26953.53907-.71875.53515-.26953.625-.98828 1.16016.44922.83984.3711 1.39454.61718 1.6953-.17969h1.60548l1.78515.08985.17969-1.70704.53516-1.34375.80468.26954.4922.84765.40233.40625-.08984.53906v.35938l.71485.44922.71093-.26953h1.42969l.35938.98828.4453 1.25781.71485 1.34375 1.25.6289 1.69531.62891.71485-.17969.17969-.53906.98046-.08984.44922.35937.08594 1.25782-.26563.6289-.53515.17969v.53906l.71484.98438.26563.53906.98437.98828.80078 1.07813-.26562.35937-.08985.89844-.625 2.33203-.35546 2.0664-.08985 1.79298-.17969.71875-.08984.53906v1.4375l-.98047 1.88281-.35937 1.70703-.53516.89844-.80469 1.16797-.26562.53906 2.05469 1.2539.08593.35938-.35546.53906-.08985-.17968v.80859l.08985 1.4375-.44532.71484-1.07422.09375-.26562.71485.53515.89844.8047.71875 1.16015.80859 1.33984.26953.44531.35938-.35546.44921-1.78907-.08984-1.25-.44922-.71484-.71875-.625-.08984-.17578 3.58984-.1875 1.3086h89.35937V311.70313h-55.26953v49.08203l.76172.125 3.28906.54296 2.02344 2.83594v2.7539l2.35156.33204 2.34766.33203h4.05078l-1.3789 4.16016-2.02344.70703-2.02344.70312-.54297.34375-2.59375 1.6172-.1875.11718-2.02344-2.07813-.73046-2.74218-2.67188-2.07813-1.375-3.5-.0664-.08203-1.95704-2.67188 2.75-1.41796v-49.08204H294.42187v91.41407l.1172.03125.1328.01172.07422.07421.10547.04688.08985.0586.08593.05859.08985.0586.29687.29687.0586.08984.03125.11719.02734.11719.01563.13671-.03125.1172-.0586.08983-.0586.08594-.04296.10547-.04688.10156-.02734.1211v.14453l.17578.26953.14844.14844.07422.08594.07422.07421.04296.10547.0625.08985.0586.08593.04297.10547.0586.08985.04687.10156.04296.10547.0586.08594.11719.17968.07421.07422.0625.08594.0586.08984.04297.10547.0586.08985.05858.08593.0625.08985.0586.08984.04297.10156.11719.17969.07421.07422.0586.08594.07422.07421.08984.0586.10547.04687h.14844l.1328-.01562.13282.01562.10156-.04687.07422-.07422.04688-.10156-.01563-.13281v-.14844l-.04687-.10547-.02735-.11719-.04687-.10156-.02735-.1211-.04296-.10156-.0625-.08984-.04297-.10156-.04297-.10547-.03125-.11719-.01563-.13281-.01171-.13672.08593-.0586.0586-.08593.12109-.03125.04297.10547.01562.1328v.1172l.0586.10156.0586.08984.08983.0586.14844.14843.0586.08985.04296.10547-.01171.10156.08593.0586.10547.04687.08594.0586.08984.05858.07422.07422-.11719.02735-.10546.04687-.08594.0586-.07422.07421-.0586.08985-.0625.08594-.02734.12109-.04687.10156-.04297.10547-.03125.11719-.01172.13281-.01563.13281v.14844l.02735.11719.04687.10547.04297.10156.0586.08984.07421.07422.08985.0586.07422.07421.08984.0586.0586.08984.04296.10547.04688.10156.11719.03125.1328.01563h.14845l.11718-.03125.10547.04297.04297.10547.04688.10156.02734.1211L299.5 410l.02734.11719.03125.1211.02735.11718.10547.04297.10156.04687.13281-.01562.14844.14844.0625.08593.07422.07422.07031.07422.08984.0625.10547.04297.10156.04297.1172.03125.13671.01562.11719-.03125.07422-.07422.02734-.11718-.01172-.13282-.03125-.12109-.02734-.11719.04297-.10547h.11719l.08984.0625.11719.02735h.14843l.13282.01562h.14843l.13282.01563.1328-.01563h.14845l.1328-.01562.13282-.01172.13672.01172.11719-.02735.13281-.01562.1914-.0586-.05859.17579-.01562.1328-.02735.1211-.01562.13281-.0586.08594-.1328.01563-.10548.04687-.10546.04297-.1172.03125-.11718.02735-.26563.03125h-.14843l-.13281.01562-.07422.07422.05859.08594.14844.14843.11719.1797.07421.0703.08985.0625.08984.0586.08594.0586.08984.05858.10156.04297.10547.0625.10547.04297.08594.0586.10547.04687.10156.04297.17969.11719.0586.08984-.04298.10156-.04687.10547.01562.13281.22266.22266.0586.08985.04296.10156.03125.1211.04297.10155.01563.13282.03125.11718.01171.13672.03125.11719.14844.14844.10156.04297.10547.04296.1172.03125.1328.01563.13672.01563h.11719l.11719-.03125.08984-.0586.04297-.10547.04688-.10156.04296-.10547.03125-.11719.01172-.1328v-.14845l-.01172-.1328-.01562-.13282-.03125-.11719-.04297-.10547-.04688-.10547-.04296-.10156-.04297-.10547-.01563-.13281.01563-.13281.02734-.11719.03125-.11719.02735-.1211.04687-.10155.08984-.0586.08594-.0625.07422-.07422.08984-.05859.22266-.22266.0586-.08593.07421-.07422.11719-.17969.0586-.08594v-.14844l-.07423-.07421-.10156-.04688-.10547-.04297-.10156-.04297-.0586-.08984-.04687-.10547-.02734-.11719.08984-.05859.11719-.03125.10156-.04297.17969-.11719.14844-.14843.01172-.13282-.01172-.10546-.08985-.0586-.1328.01563h-.14845l-.1328.01562-.13282-.01562-.1211-.03125-.08593-.0586-.07422-.07422-.0586-.08984-.0625-.08594-.11718-.17969-.0586-.08593.03125-.1211.08594-.05859.1211-.03125.05859-.08594v-.1211l-.03125-.11718-.0586-.08984-.05859-.08594-.04687-.10547-.02735-.11719-.01562-.1328.0586-.08985.07421-.07422.08984-.0586.1172-.17968.07421-.07422.0586-.08594.14843-.14844.1211-.03125.1328-.01562.13282.01562.07422.07422.04297.10547.01562.13281-.03125.1172-.11719.03124-.1328.01172-.14844.14844-.04297.10547-.04688.10156-.02734.1211-.03125.11718v.14844l.03125.11719.04297.10546.05859.08985.07422.07031.07422.07422.11719.03125.12109.02734.11719-.02734.1328-.01563h.1172l.08984.0586.07422.07422.04687.10546.0586.08594.10156.04688.13281.01562.10547.04297.08594.0586-.01172.10546-.07422.07422-.17969.11719-.05859.08984-.08984.0586-.07032.07422-.07421.07421-.0625.08985-.02735.11719-.01562.1328.01562.13282-.01562.13281v.14844l.01562.13281.02735.1172.03125.12108.07421.07422.08985.0586.08594.0586.08984.05858.11719.03125v.08594l-.10157.04688-.08984.0586-.26563.03124-.11718.02735h-.14844l-.10547.04296-.10156.04688-.0586.08984-.0625.23438-.01171.13281-.03125.1211-.01563.1328v.29298l-.01172.1328.01172.13673.01563.1328.1328.01563.13282.01172.1211.03125.08593.0586.07422.07421.04688.10547.04296.10157.01563.1328v.44532l-.01563.13281v.44532l.03125.26562.02735.11719.01562.13281.03125.11719.08594.21094.03125.26562v.14844l-.03125.11719-.02734.11718-.03125.1211-.02735.11719-.03125.11718-.03125.1211-.01171.1328-.01563.13282.08984.0586.1172-.03125.10155.01562.04688.10547-.03125.26562v.44141l-.04297.10547-.04688.10547-.04296.10156-.04297.10547-.0586.08594-.03125.12109-.04296.11719-.03125.11719-.01563.1328.01563.13282.05859.08984.10547.04688.08594.0586.05859.08593-.01172.13672-.03125.11719-.04297.10156v.44531l-.01562.13281v.14844l-.03125.11719-.04297.10547-.02735.11719-.04687.10546-.04297.10157-.03125.12109-.02734.11719-.03125.13281-.03125.11719-.02735.11719-.04297.10546-.03125.1172-.03125.12108-.01171.13282-.01563.13281v.29688l.02734.11718v.14844l.04688.39844.02734.11719.0586.08984.12109.03125h.14844l.13281-.01563.0586.08985v.11719l-.0586.08984-.08984.0586-.10157.04296-.10546.04688-.08985.05859-.08594.0586-.13671.01562-.1172-.03125-.1328-.01563-.10157.04688-.0625.08594-.01172.13671-.01562.13282-.03125.11719-.02735.11718-.01562.13281-.03125.1211v.29687l.01563.13282.03125.11718v.14844l.01171.13281v.14844l-.02734.11719-.04688.10156-.02734.1211-.03125.11718-.0586.08985-.07421.07421-.10156.04297-.10547.04688-.11719.02734-.1211.03125-.10156-.04687.0586-.08594.10547-.04688.02734-.11718.03125-.11719.02734-.1211.03125-.11718v-.14844l.01563-.13281-.03125-.11719-.04297-.10547-.10547.01563-.07422.07422-.10156.04296-.08984.0625-.07422.07422-.04297.10157-.01563.1328-.03125.1172L304.25 426l-.03125.11719-.02734.11719-.03125.12109-.02735.11719-.03125.11718-.04297.10547-.08984.0586h-.08984l-.1172-.03125-.03124-.08594.01562-.13672-.03125-.11719v-.14844l-.01171-.1328v-.14844l-.0625-.23438-.02735-.1211-.04297-.10156-.04687-.10546-.0586-.08594-.05859-.08985-.04297-.10546-.0625-.08594-.14844-.14844-.0703-.07422-.10548-.04687-.10547-.04297-.10156-.04297-.29687-.29688-.08985-.07421-.08594-.0586-.10546-.04297-.08985-.0625-.08594-.0586-.10546-.04296-.08985-.0586-.08594-.0625-.07421-.0703-.10547-.04688-.08594-.0586-.10547-.04296-.08984-.0625-.10156-.04297-.10547-.04297-.08594-.0586-.10547-.04687-.10547-.04297-.10156-.04687-.08985-.0586-.10156-.04297-.10547-.04296-.08984-.0625-.11719-.02735-.13281-.01562-.13281.01562H299.75l-.13281.01563-.11719-.03125-.08984-.0586-.07422-.07422-.08985-.05859-.10156-.04688h-.14844l-.12109-.02734-.10156-.04297-.07422-.07422-.11719-.17968-.08984-.0586-.10156-.04297-.08985-.0625-.10547-.04296-.08984-.0586-.08594-.0586-.10547-.04687-.0586-.08594-.05858-.08984-.04297-.10547-.04688-.10156-.07422-.07422-.08594-.0586-.07421-.07421-.08985-.0586-.22265-.22265-.04297-.10547-.03125-.26563.10547-.04296h.14453l.10547.04296.07421.07422.08985.0586.08594.0586.10546.04687.08985.05859.14844.14844.0703.07422.14845.14843.0625.08594.07421.07422.08594.0586.07422.07421.08985.0625.08984.0586.08594.05859.26953.17578.10156.04688.10547.04296.10156.04297.04688-.07421.05859-.08594.07422-.07422.07031-.07422.10547.04297.07422.07422.0586.08984.04296.10156.04688.10547.04296.10547.1211.02735.11719-.02735.07421-.08984.04297-.10547.0586-.08985.07422-.07421.10546-.04297.1172-.02735.1328.01172.08985.0586.14844.14843.05859.08985.04297.10547.04687.10156.04297.10547.04297.10156.10547.04688.10547.04296.13281.01563.08594-.0586.0586-.08984.07421-.07422.10547-.04297.11719.02735.10547.04687.10156.04297.10547.04297.10156.04688.17969.11718v.11719l-.01563.13281.01563.13281.01562.13672.0586.08594.10156.04688.1211.02734.11718.03125h.14844l.11719-.03125.05859-.08984.17969-.1172.05859-.08983.07422-.07422.0586-.08594.11718-.17969.17969-.11719.11719.03125.08984.0586.04297.07422-.01563.1328v.1172l.08985.05859h.14843l.13282-.01563.1328-.01171.26563-.03125.10547-.04297.11719-.03125.1211-.02735.07421-.07421.07031-.07422.0625-.08985-.01562-.10547-.04688-.10156-.10156-.04297-.10547-.01562-.11718.02734-.26563.03125h-.14844l-.07421-.07422-.08985-.0586-.11719-.03124-.11718-.02735-.13282-.01562h-.14843l-.13282.01563h-.29687l-.10547-.04688-.14844-.14844-.04297-.10156-.05859-.08984.22266-.22266.08593-.0586.10547-.04296.11719-.03125.13281-.01563.13281.01563.13672.01562.10157.04297.1328-.01172.08985-.0625.10156-.04297.0625-.08984-.04687-.10156-.08984-.0586-.1172-.03125-.10155-.04296-.0586-.08985-.0625-.08984v-.11719l.01563-.13281.10547-.04688.07421-.07031v-.1211l-.08984-.05859-.03125-.11719.08985-.05859.07421-.07422.04297-.10547.0586-.08984.04687-.10156.01563-.13281v-.14844l-.04688-.10547-.04297-.10156-.08984-.0586-.13281-.01562-.10157-.04297-.13671-.01563-.1172-.03125h-.4453l-.13282-.01562-.13281-.01172-.13281-.01563-.11719-.03125h-.14844l-.13281-.01562-.13281-.01172-.26563-.03125-.1211-.04297-.08593-.0586-.07422-.07421v-.14844l.01172-.13281.10547-.04688.10156-.04296.13281-.01563h.15235l.13281-.01562h.29297l.1211.03125.10156.04296.08984.0586.23438.0625.12109-.04688.08984-.05859.10156-.04297.13282-.01562.10547.04296.10156.04688.13281.01172.1211-.02735h.14453l.12109-.03125.11719-.02734.10547-.04687.07421-.07422.08594-.0586.14844-.14843.0586-.08594.04687-.10547.02734-.11719.01563-.10547-.10156-.04296-.08985-.0586-.11719-.03125-.10546-.04297-.08985-.0625-.07422-.08594-.07422-.07421-.10156-.04297-.10547-.04688-.10156-.04297-.0586-.08984-.04687-.10156-.08594-.21094-.0625-.08594-.05859-.08984-.07422-.07422-.08594-.0586h-.26953l-.11719.03126-.08984.05859-.10156.04297-.13281.01562-.10547-.01562-.02735-.11719-.0625-.08984-.11718-.03125-.10157-.04297-.14843-.14844-.03125-.11719-.01563-.10546.07422-.07422.17969-.1172.11719-.02733.11718-.03125.13672.01562.10156.04297.10547.04297.10156.04687.10547.04297.1172.03125.1328.01563.1172.02734.1328.01563.10547-.01563.08985-.0586-.07422-.07421-.10547-.04297-.07422-.07422-.07422-.08984-.14844-.14844-.08593-.0586-.08985-.05859-.07422-.07422-.08984-.0586-.10156-.04687-.1211-.02734-.10156-.04688-.10547-.04296-.11719-.03125-.10156-.04297-.1211-.03125h-.14843l-.11719.03125-.10546.04297-.08594.0625-.17969.11718-.08594.0586-.08984.0586-.10547.04687-.08594.05859-.10547.04297-.10156.04297-.10547.04687-.07422.07422-.05859.08985-.0586.08593-.04687.10547-.0586.08594-.07421.07422-.13281-.01172-.1172-.03125h-.11718l-.07422.07422-.08984.0586-.07422.07421-.08984.0586-.08594.05859-.10547.04687-.10156.04297-.13672.01563-.10156-.04297-.14844-.14844-.10547-.04688h-.08594l-.10547.04688-.10156.04297-.1211.03125-.11718-.03125-.07422-.07422v-.11719l.03125-.1211.07422-.0703.0586-.08985.07421-.07422.11719-.03125.10547-.04296h.29297l.13281-.01563.13672-.01563.10156-.04296.08985-.0586.10156-.04687.08984-.0586.13281-.01171.08985.05859.13281.01172.08984-.0586.08594-.05859.10547-.04297.08984-.0586.08594-.0625.08985-.05859.14843-.14843.0586-.08594.05859-.08985.10547-.04296.13281-.01563.11719.02735.1211.03125.05859-.0586.05859-.08984.03125-.26563.02734-.11719.10547.01172.13281.01563.10157-.04297.08984-.0586.0586-.08984.07421-.07422.0586-.08984.04687-.10156.01172-.13281-.01172-.13282-.04687-.10547-.14844-.14843-.0586-.08985-.05859-.08594-.04297-.10546v-.44532l.01563-.1328v-.14845l.01172-.1328-.0586-.0586-.08984.0586-.10156-.04298-.17969-.11719-.08594-.05859-.0625-.08984-.0586-.08985-.07421-.07421-.08594-.0586-.1211.03125-.10155.01172-.10547.04688-.08594.05859-.10547.04297-.14844.14844-.08984.05859-.08594.0586-.08984.0625-.10547.04296-.13281.01563v-.1211l.10547-.04297.11718-.03125.07422-.0703.04297-.10548v-.14844l-.02734-.11718-.14844-.14844-.13281-.01563h-.14844l-.11719.03125-.10547.04297-.10156.04297-.08984.0625-.11719.02735-.07422-.07422.01172-.13281-.04297-.10157-.04297-.10547-.08984-.05859-.11719.02734-.1211.03125-.11718.03125-.10156.04297-.1211.03125-.10156.04297-.10547.04297-.08984.0586-.10156.01562v-.11719l.01562-.13281-.0586-.08985-.07421.04297-.14844.14844-.0586.08985-.07421.07421-.04688.10547-.04296.10156-.07422.07422-.0586.08985-.07422.07422-.05859.08593-.07422.07422-.08984.0625-.07422.07031-.07422.07422-.10156.01563-.13281.01562-.10547-.04296v-.1211l.14843-.14844.04297-.10156.0586-.08984.04687-.10156.04297-.10547.0586-.08985.03124-.11719.04297-.10156.03125-.1211.02735-.11718.04687-.10547.04297-.10156.04297-.10547.07422-.07031.08984-.0625.08985-.0586.10156-.04296h.29687l.26563-.03125.10547-.04297-.07422-.07422-.11719-.03125-.10547-.04297-.08984-.0586-.10156-.04687-.08985-.0586-.10156-.04296-.10547-.04297-.08984-.0625-.08594-.0586-.10547-.04296-.10156-.04297-.1211-.03125-.11718-.03125-.10157-.04297L297.5 410.25l-.10156-.04297-.08985-.0586-.04296-.10546-.01563-.13281.10156-.04297.13281-.01563.13672.01563.13282-.01563.10156-.04297.0586-.08984.01562-.10547-.08985-.0586-.07421-.07421-.10157-.04297-.08984-.0586-.14844-.14843-.04297-.10547-.01562-.13281v-.29297l-.0586-.08985-.08984-.05859-.07422-.07422-.04297-.10547-.03125-.11718-.0586-.08985-.07421-.07422-.11719-.02734-.07422-.07422-.08984-.0586-.08984-.0625-.08594-.05859-.07422-.07421-.0586-.08594-.04687-.10547-.08594-.0586-.14843-.14843-.19532-.0586-.1328.01563-.10157.04297-.07422.07422-.04688.10156-.04296.10547-.0586.08984-.0586.08594-.29687.29687-.08984.0586h-.08594l-.0625-.08594-.04297-.10547.03125-.11719.0586-.08984.02734-.11719-.01172-.13281-.08984-.0625-.10547.04688-.11719.02734-.11719.03125-.26953.17578-.10156.04688-.11719.02734-.10546.04687-.08985.0586-.10156.04297-.0586-.08594-.04687-.10547.01563-.13281.04687-.10547.07031-.07422.07422-.07031.0586-.08985v-.14843l-.04297-.10547h-.23829l-.10156.04687-.03125.11719-.02734.11719-.03125.1211-.07422.04296-.13281.01563-.07422-.04688-.04297-.10156-.04297-.10547-.04687-.10156-.04297-.10547-.1211.03125-.10156.04297-.13281.01562-.11719.03125-.10547.04297-.08984.0586-.10156.04687-.1211.02734-.13281.01563-.10156-.04297-.0586-.08985-.04687-.10546-.04297-.10157-.04297-.10546v-.1172l.0586-.08984.08593-.05859.17969-.11719.10156-.04687.10547-.04297.10547-.0586.10156-.04296.08985-.0625.10156-.04297.10547-.0586.10156-.04687.08984-.0586.10547-.04296.10156-.04297.08985-.0625.10156-.04297.13672-.01563.11719.03125.10156.04297.1211.03125.10156.04297.10546.04688.10157.04296.10547.04297.10156.04688.10547.04297.10156.04297.10547.04687.08594.0586.10546.04296.1172.03125.10546.04297.10156.04688.08985.0586.10547.04296.10156.04297.10547.04687.11719.02735.10156.04687.1211.02735h.14843l.08594-.0586.01562-.10156.0586-.08984-.02735-.1172-.07422-.07421-.11719-.17969-.07421-.07422-.08985-.07421-.17969-.1172-.08593-.05859-.10547-.04296-.10156-.04688-.26954-.17578-.05859-.08985-.07422-.07421-.0586-.08985-.04296-.10156-.03125-.11719-.01563-.13672v-.5625l-.01171-.1328-.01563-.13282-.03125-.11719-.01562-.13281-.01172-.13281-.03125-.1211-.22266-.22265-.0586-.08594-.01562-.10547.03125-.11719.13281-.01562v-91.41406H172.9922v1.45312l-.0586.23438-.35156 1.05078-.17187.52343-.1172.34766-.17577.41016-.11719.17187-.23438.29297-.23046.0586h-.35157l-.11718.05859-.23047.40625v.29297l.11719.17578.23046.23047.1172.23437.64062.75781.29297.46485.17578.23437.23047.35156.23437.34766.64063.8164.17578.46485.17187.41016.11719.69531.17578.46875.11719 1.39844.0586.46484v.875l.11718 1.04688v4.78125l-.0586.46484-.35156 1.28125-.17578.52344-.11328.41015-.35156.9297L172.93359 336l-.23437.58203-.11719.17578-.17187.34766-.17578.40625-.35157.8164-.0586.29297-.11327.29297-.11719.28906-.0586.17579-.11718.875-.0586.40625-.05859.11718-.0586.17579-.05859.17187-.23047.52734-.11718.17188v.23437l-.11719.23438-.0586.17187-.17577.58594v.28906l-.0586.17579v.29296l-.0586.11329-.05859.52734v.17187l-.05468.23438v2.6211l-.17578.8164-.1172.17578-.17577.23438-.1172.17187-.11327.23438-.58594.93359-.23047.28906-.29297.46485-.17578.23437-.28906.35156-.35156.69922-.11328.23047-.17579.41016-.17578.23046-.40625.52735-.8164.69922-.29297.17187-.28906.23438-.17579.11719-.17578.17578-.52344.40625-.52734.17578-.17187.17578-.23438.05469-.64062.17578h-.75782m12.21094 31.02344l-1.07422.44921.35938.89454 1.25-.71485.44531-.53906-.98047-.08985"/><path fill="#d3d3d3" fill-opacity="0" fill-rule="evenodd" d="M201.50781 416.59766h-.89453l.44922.6289.98047.35938.80469-.08985.4453-.98828-.17577.08985-.71485-.35547-.89453.35547m154.6211 59.0703l-.0586-.52343v-.29297l.11328-.29297.0586-.23046.46875-.46875h.11328l.11719-.11329.11718-.05859h.17579l.23437-.0586h.34766l.23437.0586.11719.0586.23047.17187.0586.17578.11718.58203v.29297l-.11719.17578-.17187.28906-.17579.17579-.52734.52343-.23047.23438-.11719.0586h-.17578l-.11718-.0586-.40625-.29297-.17579-.11719-.11718-.0586-.0586-.11327-.05468-.1172m6.64062-10.95702l-.0586-.17188v-1.10937l.0586-.17188.17578-.0586.17188-.05858h.17578l.23437-.0586.1172.0586.05858.69921-.05859.17188-.11719.17578-.11718.0586-.23438.52343-.11328.0586h-.23438l-.05859-.1172m9.61328-14.39062l-.11719-.17578v-.69922l.29297-.875.1172-.17187.17577-.35156.11328-.23047.1172-.29297.35155-.75781.1172-.23047.17187-.23438h.17578l.11719-.0586h.64062l.11719.0586.23437.23438.17188.11328.35156.29297.11719.11718.11328.17579v.11328l.11719.05859.11718.11719v.69922l-.05859.17578v.23047l-.0586.17578-.34765 1.05078-.11719.23047-.11719.23437-.11718.0586-.23047.23437-.64063.28906h-.875l-.41015-.11718-.64063-.46485"/><path fill="none" stroke="#bebebe" stroke-linecap="round" stroke-linejoin="round" stroke-miterlimit="10" stroke-width=".5" d="M467.95703 311.69531H144.02734v168.625h323.9297v-168.625"/><g clip-path="url(#a)"><path fill="#fff" fill-opacity="0" fill-rule="evenodd" d="M144 475.89063v4.4375h.0039H144v-44.28516 39.84765"/></g><g clip-path="url(#b)"><path fill="#fff" fill-opacity="0" fill-rule="evenodd" d="M144 431.50781v4.33203-124.16796h.0039H144V431.5078"/></g><path fill="#50fcfc" fill-rule="evenodd" d="M144 435.83984v.20313l.0039-.0039v-.19923H144"/><g clip-path="url(#c)"><path fill="#fff" fill-opacity="0" fill-rule="evenodd" d="M144.0039 480.32813v-44.28907l.10157-.09375-.10156-.10547V311.67188h31.0625v120.29296l-4.4375 1.04688-4.2422 2.9336 3.0547 4.4375-3.25 1.82421-.78516-1.82422.57813-4.4375-4.23047-.86719-.66797.8672-1.64063 4.4375.11719 4.4375-.22266 4.4414.35157 4.4375-1.72266 4.4375.3711 4.4375 3.41406 3.36328 4.4375-.34375 4.4375-.82813 4.4375-.34765 4.4414 1.17969 4.10938-3.02344.32812-.30078 4.4375-1.46485 4.19922-2.67187.23828-.4336 4.4414-1.02343 2.48829-2.98047-2.48828-1.90625-2.80469-2.53125-1.63672-.69531-4.4375.14453-1.72656.55078-2.71094.88672-3.73437 3.55078-.70313.08203-4.4414 1.03125-2.04688-1.11328-2.39062-4.23828-.08985-.19922-1.3125-4.4414 1.40235-2.85548 2.2578 2.85547 2.1797 1.3711 1.35156-1.3711-1.35156-3.44531-1.48047-.99219 1.48047-1.32031 4.4414-1.00781 4.4375-1.30078.28125-.8086-.28125-.34375-4.4375-1.14453-4.4414-2.49219V311.67188h57.69922v121.48046l-2.70704 2.79297 2.70703 2.78516 2.7422-2.78516-2.7422-2.79297V311.67188h8.87891v127.8203l-.85937.89063.85937.91797.80078-.91797-.80078-.89062V311.67188H467.9961v168.65625H144.00391"/></g><path fill="#50fcfc" fill-rule="evenodd" d="M144.10547 435.94531l-.10156.09375v-.19922l.10156.10547m14.23437 26.6289l-.37109-4.4375 1.72266-4.4375-.35157-4.4375.22266-4.4414-.11719-4.4375 1.64063-4.4375.66797-.86719v19.88672l-2.26563 3.17188.6289 4.4375 1.63673 1.61328 4.4375-.80469 2.23437-.8086-2.23437-1.35937-1.58594-3.07812-2.85156-3.17188v-19.88671l4.23047.86718-.57813 4.4375.78516 1.82422 3.25-1.82422-3.0547-4.4375 4.2422-2.9336 4.4375-1.04687 4.4414 2.4922 4.4375 1.14452.28125.34375-.28125.8086-4.4375 1.30078-4.4414 1.00781-1.48047 1.32031 1.48047.99219 1.35156 3.44531-1.35156 1.3711-2.1797-1.3711-2.2578-2.85547-1.40235 2.85547 1.3125 4.4414.08985.19923 2.39062 4.23828 2.04688 1.11328 4.4414-1.03125v1.58203l-3.46094 2.77344 1.8711 4.4375 1.58984.70703.96094-.70703 3.47656-3.23438 2.24219-1.20312-2.24219-1.61328-4.4375-1.16016v-1.58203l.70313-.08203 3.73437-3.55078 2.71094-.88672 1.72656-.55078 4.4375-.14453 1.63672.6953 2.80469 2.53126 2.48828 1.90625-2.48828 2.98047-4.4414 1.02344-.23829.43359-4.19922 2.67187-4.4375 1.46485-.32812.30078-4.10938 3.02344-4.4414-1.1797-4.4375.34767-4.4375.82812-4.4375.34375-3.41407-3.36328"/><path fill="#00e8fc" fill-rule="evenodd" d="M160.11719 462.57422l-.6289-4.4375 2.26562-3.17188 2.85156 3.17188 1.58594 3.07812 2.23437 1.35938-2.23437.8086-4.4375.80468-1.63672-1.61328m17.80078 0l-1.8711-4.4375 3.46094-2.77344v2.64063l-.16797.1328.16797.26173.28125-.26172-.28125-.13281v-2.64063l4.4375 1.16016 2.24219 1.61328-2.24219 1.20312-3.47656 3.23438-.96094.70703-1.58984-.70703"/><path fill="#00d4fc" fill-rule="evenodd" d="M179.50781 458.39844l-.16797-.26172.16797-.13281.28125.1328-.28125.26173"/><path fill="#50fcfc" fill-rule="evenodd" d="M232.76563 438.73047l-2.70704-2.78516 2.70703-2.79297 2.7422 2.79297-2.7422 2.78516m8.87891 2.57031l-.85937-.91797.85937-.89062.80078.89062-.80078.91797"/><g clip-path="url(#d)"><path fill="#fff" fill-opacity="0" fill-rule="evenodd" d="M467.9961 480.32813H468V311.67188h-.0039H468v168.65625h-.0039"/></g><path fill="#fff" fill-opacity="0" fill-rule="evenodd" d="M185.86328 454.28906l5.75781-.98828-1.6914-9.8164-5.7539.98828 1.6875 9.8164"/><path fill-rule="evenodd" d="M187.9336 445.6875l.5-.08594 1.0703 6.20313-.77734.13281-.76172-4.42578-1.36718.23828-.09375-.55078.53906-.15625.24219-.09766.21093-.125.17578-.17578.13672-.23437.08985-.31641.03515-.40625"/><g clip-path="url(#e)"><path fill="none" stroke="#000" stroke-linecap="round" stroke-linejoin="round" stroke-miterlimit="10" stroke-width=".5" d="M147.48047 480.80078l-6.96094-.94531"/></g><g clip-path="url(#f)"><path fill="none" stroke="#000" stroke-linecap="round" stroke-linejoin="round" stroke-miterlimit="10" stroke-width=".5" d="M147.48047 480.80078l.85156 2.30078"/></g><g clip-path="url(#g)"><path fill="none" stroke="#000" stroke-linecap="round" stroke-linejoin="round" stroke-miterlimit="10" stroke-width=".5" d="M160.8164 480.6211l-7.0039-.58594"/></g><g clip-path="url(#h)"><path fill="none" stroke="#000" stroke-linecap="round" stroke-linejoin="round" stroke-miterlimit="10" stroke-width=".5" d="M160.8164 480.6211l.96876 2.2539"/></g><g clip-path="url(#i)"><path fill="none" stroke="#000" stroke-linecap="round" stroke-linejoin="round" stroke-miterlimit="10" stroke-width=".5" d="M159.79688 480.53516l.48437 1.1289"/></g><g clip-path="url(#j)"><path fill="none" stroke="#000" stroke-linecap="round" stroke-linejoin="round" stroke-miterlimit="10" stroke-width=".5" d="M174.1211 480.71875l-6.98438-.77734"/></g><g clip-path="url(#k)"><path fill="none" stroke="#000" stroke-linecap="round" stroke-linejoin="round" stroke-miterlimit="10" stroke-width=".5" d="M174.1211 480.71875L175.02733 483"/></g><g clip-path="url(#l)"><path fill="none" stroke="#000" stroke-linecap="round" stroke-linejoin="round" stroke-miterlimit="10" stroke-width=".5" d="M173.10547 480.60547l.45312 1.14062"/></g><g clip-path="url(#m)"><path fill="none" stroke="#000" stroke-linecap="round" stroke-linejoin="round" stroke-miterlimit="10" stroke-width=".5" d="M187.4375 480.71875l-6.98438-.77734"/></g><g clip-path="url(#n)"><path fill="none" stroke="#000" stroke-linecap="round" stroke-linejoin="round" stroke-miterlimit="10" stroke-width=".5" d="M187.4375 480.71875L188.34375 483"/></g><g clip-path="url(#o)"><path fill="none" stroke="#000" stroke-linecap="round" stroke-linejoin="round" stroke-miterlimit="10" stroke-width=".5" d="M186.42188 480.60547l.45312 1.14062"/></g><g clip-path="url(#p)"><path fill="none" stroke="#000" stroke-linecap="round" stroke-linejoin="round" stroke-miterlimit="10" stroke-width=".5" d="M200.76953 480.52344l-7.01562-.38672"/></g><g clip-path="url(#q)"><path fill="none" stroke="#000" stroke-linecap="round" stroke-linejoin="round" stroke-miterlimit="10" stroke-width=".5" d="M200.76953 480.52344l1.03125 2.22656"/></g><g clip-path="url(#r)"><path fill="none" stroke="#000" stroke-linecap="round" stroke-linejoin="round" stroke-miterlimit="10" stroke-width=".5" d="M199.7461 480.46484l.51562 1.11328"/></g><g clip-path="url(#s)"><path fill="none" stroke="#000" stroke-linecap="round" stroke-linejoin="round" stroke-miterlimit="10" stroke-width=".5" d="M214.08594 480.4375l-7.02344-.21875"/></g><g clip-path="url(#t)"><path fill="none" stroke="#000" stroke-linecap="round" stroke-linejoin="round" stroke-miterlimit="10" stroke-width=".5" d="M214.08594 480.4375l1.08594 2.20313"/></g><g clip-path="url(#u)"><path fill="none" stroke="#000" stroke-linecap="round" stroke-linejoin="round" stroke-miterlimit="10" stroke-width=".5" d="M213.0664 480.40625l.53907 1.10156"/></g><g clip-path="url(#v)"><path fill="none" stroke="#000" stroke-linecap="round" stroke-linejoin="round" stroke-miterlimit="10" stroke-width=".5" d="M227.40234 480.33984l-7.02734-.01953"/></g><g clip-path="url(#w)"><path fill="none" stroke="#000" stroke-linecap="round" stroke-linejoin="round" stroke-miterlimit="10" stroke-width=".5" d="M227.40234 480.33984l1.14844 2.16797"/></g><g clip-path="url(#x)"><path fill="none" stroke="#000" stroke-linecap="round" stroke-linejoin="round" stroke-miterlimit="10" stroke-width=".5" d="M226.38281 480.33594l.57031 1.08594"/></g><g clip-path="url(#y)"><path fill="none" stroke="#000" stroke-linecap="round" stroke-linejoin="round" stroke-miterlimit="10" stroke-width=".5" d="M240.71875 480.23047l-7.02734.19531"/></g><g clip-path="url(#z)"><path fill="none" stroke="#000" stroke-linecap="round" stroke-linejoin="round" stroke-miterlimit="10" stroke-width=".5" d="M240.71875 480.23047l1.21094 2.13672"/></g><g clip-path="url(#A)"><path fill="none" stroke="#000" stroke-linecap="round" stroke-linejoin="round" stroke-miterlimit="10" stroke-width=".5" d="M254 479.83984l-6.95703.97657"/></g><g clip-path="url(#B)"><path fill="none" stroke="#000" stroke-linecap="round" stroke-linejoin="round" stroke-miterlimit="10" stroke-width=".5" d="M254 479.83984l1.4414 1.98438"/></g><g clip-path="url(#C)"><path fill="none" stroke="#000" stroke-linecap="round" stroke-linejoin="round" stroke-miterlimit="10" stroke-width=".5" d="M267.17969 479.25l-6.6875 2.15625"/></g><g clip-path="url(#D)"><path fill="none" stroke="#000" stroke-linecap="round" stroke-linejoin="round" stroke-miterlimit="10" stroke-width=".5" d="M267.17969 479.25l1.76172 1.70703"/></g><g clip-path="url(#E)"><path fill="none" stroke="#000" stroke-linecap="round" stroke-linejoin="round" stroke-miterlimit="10" stroke-width=".5" d="M280.5586 479.46875l-6.81641 1.71875"/></g><g clip-path="url(#F)"><path fill="none" stroke="#000" stroke-linecap="round" stroke-linejoin="round" stroke-miterlimit="10" stroke-width=".5" d="M279.5664 479.71875l.82423.91016"/></g><g clip-path="url(#G)"><path fill="none" stroke="#000" stroke-linecap="round" stroke-linejoin="round" stroke-miterlimit="10" stroke-width=".5" d="M293.96484 480.66016l-6.99609-.66407"/></g><g clip-path="url(#H)"><path fill="none" stroke="#000" stroke-linecap="round" stroke-linejoin="round" stroke-miterlimit="10" stroke-width=".5" d="M292.94531 480.5664l.47266 1.13282"/></g><g clip-path="url(#I)"><path fill="none" stroke="#000" stroke-linecap="round" stroke-linejoin="round" stroke-miterlimit="10" stroke-width=".5" d="M307.26172 480.79688l-6.96485-.9375"/></g><g clip-path="url(#J)"><path fill="none" stroke="#000" stroke-linecap="round" stroke-linejoin="round" stroke-miterlimit="10" stroke-width=".5" d="M306.25 480.66016l.42578 1.15234"/></g><g clip-path="url(#K)"><path fill="none" stroke="#000" stroke-linecap="round" stroke-linejoin="round" stroke-miterlimit="10" stroke-width=".5" d="M320.57813 480.80078l-6.96485-.94531"/></g><g clip-path="url(#L)"><path fill="none" stroke="#000" stroke-linecap="round" stroke-linejoin="round" stroke-miterlimit="10" stroke-width=".5" d="M319.5625 480.66406l.42578 1.15235"/></g><g clip-path="url(#M)"><path fill="none" stroke="#000" stroke-linecap="round" stroke-linejoin="round" stroke-miterlimit="10" stroke-width=".5" d="M333.80078 481.2461l-6.78125-1.83594"/></g><g clip-path="url(#N)"><path fill="none" stroke="#000" stroke-linecap="round" stroke-linejoin="round" stroke-miterlimit="10" stroke-width=".5" d="M340.39453 481.4414l6.66406-2.22265"/></g><g clip-path="url(#O)"><path fill="none" stroke="#000" stroke-linecap="round" stroke-linejoin="round" stroke-miterlimit="10" stroke-width=".5" d="M353.98047 482.05469l6.1211-3.44922"/></g><g clip-path="url(#P)"><path fill="none" stroke="#000" stroke-linecap="round" stroke-linejoin="round" stroke-miterlimit="10" stroke-width=".5" d="M371.14844 483.75l-1.58594-6.84375"/></g><g clip-path="url(#Q)"><path fill="none" stroke="#000" stroke-linecap="round" stroke-linejoin="round" stroke-miterlimit="10" stroke-width=".5" d="M381.3086 482.92969l4.72265-5.20313"/></g><g clip-path="url(#R)"><path fill="none" stroke="#000" stroke-linecap="round" stroke-linejoin="round" stroke-miterlimit="10" stroke-width=".5" d="M393.92188 482.04688l6.1289-3.4336"/></g><g clip-path="url(#S)"><path fill="none" stroke="#000" stroke-linecap="round" stroke-linejoin="round" stroke-miterlimit="10" stroke-width=".5" d="M393.92188 482.04688l-2.06641-1.32813"/></g><g clip-path="url(#T)"><path fill="none" stroke="#000" stroke-linecap="round" stroke-linejoin="round" stroke-miterlimit="10" stroke-width=".5" d="M406.89844 481.19922l6.8086-1.74219"/></g><g clip-path="url(#U)"><path fill="none" stroke="#000" stroke-linecap="round" stroke-linejoin="round" stroke-miterlimit="10" stroke-width=".5" d="M406.89844 481.19922l-1.65235-1.8125"/></g><g clip-path="url(#V)"><path fill="none" stroke="#000" stroke-linecap="round" stroke-linejoin="round" stroke-miterlimit="10" stroke-width=".5" d="M420.69531 482.28516l5.83985-3.91016"/></g><g clip-path="url(#W)"><path fill="none" stroke="#000" stroke-linecap="round" stroke-linejoin="round" stroke-miterlimit="10" stroke-width=".5" d="M421.54688 481.71484l-1.08204-.57812"/></g><g clip-path="url(#X)"><path fill="none" stroke="#000" stroke-linecap="round" stroke-linejoin="round" stroke-miterlimit="10" stroke-width=".5" d="M440.40234 479.77344l-6.9414 1.11328"/></g><g clip-path="url(#Y)"><path fill="none" stroke="#000" stroke-linecap="round" stroke-linejoin="round" stroke-miterlimit="10" stroke-width=".5" d="M439.39063 479.9336l.74218.98046"/></g><g clip-path="url(#Z)"><path fill="none" stroke="#000" stroke-linecap="round" stroke-linejoin="round" stroke-miterlimit="10" stroke-width=".5" d="M453.5625 479.16406l-6.6289 2.33203"/></g><g clip-path="url(#aa)"><path fill="none" stroke="#000" stroke-linecap="round" stroke-linejoin="round" stroke-miterlimit="10" stroke-width=".5" d="M465.1211 483.47656l-3.1172-6.29687"/></g><g clip-path="url(#ab)"><path fill="none" stroke="#000" stroke-linecap="round" stroke-linejoin="round" stroke-miterlimit="10" stroke-width=".5" d="M147.49219 467.41406l-6.98438-.80078"/></g><path fill="none" stroke="#000" stroke-linecap="round" stroke-linejoin="round" stroke-miterlimit="10" stroke-width=".5" d="M147.49219 467.41406l.89453 2.28516m12.42187-2.3164l-6.98828-.73829m6.98828.73828l.91797 2.27344m-1.9336-2.38281l.45704 1.14062m13.89453-1.35156l-7.02734-.09766m7.02734.09766l1.1211 2.17969m-2.14454-2.19531l.5625 1.08984m13.77344-.98828l-7.02344-.26953m7.02344.26953l1.0664 2.20703m-2.08984-2.2461l.53516 1.10157m13.78906-.88281l-6.9961-.62891m6.9961.6289l.95313 2.26172m-1.96875-2.35156l.47656 1.1289m13.86328-1.1289l-7.01172-.44922m7.01172.44922l1.01172 2.23828m-2.03125-2.30469l.5039 1.1211m13.82813-1.02735l-7.00781-.5039m7.00781.5039l.9961 2.2422m-2.01563-2.31641l.4961 1.12109m13.83984-1.55469l-7.00781.51172m7.0078-.51172l1.3047 2.07813m-2.32422-2.0039l.65234 1.03905m13.61328-1.59375l-6.8711 1.47266m6.8711-1.47266l1.57813 1.875m-2.57813-1.66015l.78906.9375m13.34766-1.72657l-6.51953 2.6211m6.51953-2.6211l1.8789 1.57813m-2.82421-1.19922l.9375.79297m13.09765-1.63281l-6.0664 3.54297m6.0664-3.54297l2.08985 1.28906m11.33203-1.09766l-6.27734 3.16016m6.27734-3.16016l2 1.41797m11.6875.08203l-7.02344.16016m6-.13672l.60156 1.0664m13.73829-.91796l-7.02735-.1836m6.0039.15626l.54688 1.09765m13.76953-1.5586l-6.98046.79298m5.96484-.6797l.69531 1.01173m13.64063-1.0586l-6.9961.66016m5.98047-.5664l.67578 1.02343m13.60157-1.47656l-6.88672 1.38281m5.88672-1.1836l.77734.94923m13.3711-1.72657l-6.5547 2.53516m6.5547-2.53516l1.85546 1.60547m8.97266-3.76172l-1.58203 6.84766m10.6875-4.23047l6.83984 1.61328m10.66016-4.23437l-1.52735 6.85547m1.52735-6.85547l2.36328-.65625m-2.58594 1.65234l1.1836-.32812m13.4453-.22266l-3.71484 5.96484m3.71485-5.96484l2.44922.16797m-2.98829.69922l2.44922.16797m11.44532-1.01172l-3.79297 5.91797m3.79297-5.91797l2.4453.19922m-2.99609.66406l1.22266.09766m12.48438-1.0547l-3.47657 6.10548m3.47657-6.10547l2.45312.07031m12.42578 1.78516l-6.60547 2.39453"/><g clip-path="url(#ac)"><path fill="none" stroke="#000" stroke-linecap="round" stroke-linejoin="round" stroke-miterlimit="10" stroke-width=".5" d="M466.86328 465.8164l1.82422 1.64063"/></g><g clip-path="url(#ad)"><path fill="none" stroke="#000" stroke-linecap="round" stroke-linejoin="round" stroke-miterlimit="10" stroke-width=".5" d="M147.4336 454.4414l-6.8672-1.48437"/></g><path fill="none" stroke="#000" stroke-linecap="round" stroke-linejoin="round" stroke-miterlimit="10" stroke-width=".5" d="M147.4336 454.4414l.66796 2.35938m12.59766-2.15234l-6.76563-1.89844m6.76563 1.89844l.51953 2.39844m12.92578-3.34766h-7.02734m7.02734 0l1.15234 2.16406m12.14063-1.77344l-6.98438-.78125m5.96875.66797l.45313 1.14063m13.875-1.01953l-6.98047-.80078m6.98047.80078l.89844 2.28515m12.40234-2.17578l-6.95312-1.01562m6.95312 1.01562l.82813 2.3125m12.49609-3.28125l-6.96875.91797m6.96875-.91797l1.42578 2m-2.4414-1.86328l.71484.9961m13.57031-1.38282l-6.8789 1.42188m6.8789-1.42188l1.5664 1.88672m-2.5664-1.67969l.78516.94531m13.21094-2.05859l-6.23829 3.23438m6.23828-3.23438l2.01954 1.39453m-2.92578-.92187l1.0078.69531m13.08985-1.39062l-5.99219 3.67578m5.9922-3.67578l2.11327 1.24609m-2.98828-.71094l1.0586.625m12.80859-1.60156l-5.34766 4.5625m5.34766-4.5625l2.28125.89844m-3.0586-.23438l1.14063.44922m13.16797-.83203l-5.78125 3.9961m5.78125-3.9961l2.17969 1.1289m11.7539.6836l-7.01562.3711m7.01562-.3711l1.26563 2.10547m12.04297-2.21485l-7.00391.59375m7.0039-.59375l1.33204 2.0586m11.84375-2.77735l-6.72657 2.02735m6.72657-2.02735l1.73047 1.7422m-2.70704-1.44532l.86329.8711m13.54687-.63673l-6.96094.96875m6.96094-.96875l1.4375 1.98828m11.90234-1.70703l-7.01171.40625m7.01171-.40625l1.27735 2.09766m-2.29688-2.03906l.63672 1.04687m13.69531-1.1914l-7.0039.57812m7.0039-.57812l1.32422 2.0625m-2.34375-1.98047l1.32422 2.0664m12.97656-2.42187l-6.9375 1.1211m6.9375-1.1211l1.48047 1.95703m11.85938-1.75l-6.98828.71094m6.98828-.71094l1.36719 2.03906m11.58203-3.28125l-6.25782 3.19532m6.25782-3.19532l2.01172 1.40625m10.54687-2.39843l-4.7461 5.17968m4.7461-5.17968l2.375.61328m-3.0664.14062l1.1914.30469m12.51953-1.30469l-4.15234 5.67188m4.15234-5.67188l2.42578.35156m-3.03125.47266l1.21485.17578m12.39062-1.20312l-3.52344 6.07812m3.52344-6.07812l2.45313.08593m-2.96485.79688l1.22657.04297m13.61328-.04297l-5.54688 4.3125"/><g clip-path="url(#ae)"><path fill="none" stroke="#000" stroke-linecap="round" stroke-linejoin="round" stroke-miterlimit="10" stroke-width=".5" d="M466.33594 451.54297l2.23828 1"/></g><g clip-path="url(#af)"><path fill="none" stroke="#000" stroke-linecap="round" stroke-linejoin="round" stroke-miterlimit="10" stroke-width=".5" d="M147.41406 441.21875l-6.82812-1.66797"/></g><path fill="none" stroke="#000" stroke-linecap="round" stroke-linejoin="round" stroke-miterlimit="10" stroke-width=".5" d="M147.41406 441.21875l.60547 2.375m12.63672-2.1211l-6.6836-2.17577m6.6836 2.17578l.42578 2.41406m12.8164-2.21484l-6.53905-2.57422m6.53906 2.57422l.27734 2.4375m13.1211-2.67579l-6.70704-2.09765m6.70703 2.09765l.45313 2.41016m12.89453-2.51563l-6.76953-1.89062m6.76953 1.89063l.52344 2.39843m12.89453-2.92969l-6.97656-.82812m6.97656.82813l.89063 2.28906m12.25-3.8711l-6.625 2.33985m6.625-2.33985l1.80859 1.66016m11.10937-2.45313l-5.83203 3.92188m5.83203-3.92188l2.16407 1.15235m10.15234-2.13281l-3.83594 5.88671m3.83594-5.88671l2.44531.21484m10.90235-.19531l-3.89844 5.84765m3.89844-5.84765l2.4414.24218m11.11328-.0664l-4.3789 5.49219m4.3789-5.4922l2.41407.44923m11.16797-.21485l-4.91407 5.02344m4.91407-5.02344l2.35546.69532m11.45313-.09375l-5.89844 3.8203m5.89844-3.8203l2.14453 1.1914m-3.0039-.63672l1.07421.59766m13.42969-.5039l-6.5586 2.52734m6.5586-2.52735l1.85156 1.60547m-2.80468-1.23828l1.85156 1.60547m12.54297-1.57422l-6.8125 1.72656m6.8125-1.72656l1.64843 1.8164m-2.64062-1.5664l.82422.91016m13.3711-1.52344l-6.58595 2.45312m6.58594-2.45312l1.83594 1.6289m-2.79688-1.27343l.91797.8164m12.91797-1.99609l-5.70703 4.10156m5.70703-4.10156l2.19922 1.08594m-3.03125-.48828l1.10156.54297m11.45703-2.3672l-2.52734 6.5547m2.52734-6.5547l2.4336-.29687m-2.80469 1.25l1.21875-.14843m9.46875-.58204l3.46875 6.10938m-2.96484-5.21875l.65625-1.03906m17.3789 2.8125l-6.98047.78125m6.98047-.78125l1.38672 2.02343m11.54297-3.27734l-6.20703 3.29297m6.20703-3.29297l2.03125 1.3711m-2.9375-.89454l2.03516 1.375m-2.9375-.89453l1.01953.6875m13.4414-2.52344l-4.88671 5.04688m4.88671-5.04688l2.35938.6797m-3.07031.05468l2.35937.67969m11.4414-1.61328l-4.43359 5.44921m4.4336-5.44921l2.41015.47265m-3.05468.32031l2.40625.47266m11.25-1.48828l-3.82813 5.89453m3.82813-5.89453l2.4453.21094m-3.0039.64453l2.44532.21484m11.68359-.89062l-4.33594 5.53125"/><g clip-path="url(#ag)"><path fill="none" stroke="#000" stroke-linecap="round" stroke-linejoin="round" stroke-miterlimit="10" stroke-width=".5" d="M465.73047 437.61719l2.41406.4336"/></g><path fill="none" stroke="#000" stroke-linecap="round" stroke-linejoin="round" stroke-miterlimit="10" stroke-width=".5" d="M465.09766 438.42188l1.20703.21484"/><g clip-path="url(#ah)"><path fill="none" stroke="#000" stroke-linecap="round" stroke-linejoin="round" stroke-miterlimit="10" stroke-width=".5" d="M147.4414 427.76953l-6.8828-1.40234"/></g><path fill="none" stroke="#000" stroke-linecap="round" stroke-linejoin="round" stroke-miterlimit="10" stroke-width=".5" d="M147.4414 427.76953l.69532 2.35547m12.52734-1.9961l-6.69922-2.12109m6.69922 2.1211l.4414 2.41406m12.58595-1.7539l-6.125-3.44141m6.125 3.4414l-.0547 2.45313m13.15626-2.11719l-5.69531-4.11328m5.6953 4.11328l-.33593 2.42969m14.27344-3.9414l-6.9414-1.08985m6.9414 1.08984l.80078 2.32031m12.41406-3.85546l-6.74219 1.98046m6.7422-1.98046l1.71874 1.7539m11.61328-1.70312l-6.77343 1.8789m6.77343-1.8789l1.6875 1.77734m11.6836-.13281l-6.88672-1.40625m6.88672 1.40625l.69531 2.35156m12.53125-4.09766l-6.71094 2.08204m6.71094-2.08204l1.74219 1.73047m11.22656-2.5039l-6.01563 3.6289m6.01563-3.6289l2.10547 1.2578m11.48437-.6953l-6.5664 2.5039m6.5664-2.5039l1.84766 1.61328m11.66406-.84375l-6.96094.96484m5.94922-.82422l.71875.9961m12.53516-3.21485l-4.8125 5.1211m4.8125-5.1211l2.36719.64844m11.16015-.42969l-5.23828 4.6836m5.23828-4.6836l2.3047.85157m-3.06642-.16797l1.15235.42187m13.27734-.63672l-5.94531 3.7461m5.94531-3.7461l2.1289 1.22266m-2.99218-.67578l1.0625.60937m13.19922-1.01562l-6.11328 3.46484m6.11328-3.46484l2.07031 1.3164m-2.95703-.8125l1.03516.65625m12.8086-1.67968l-5.39454 4.5039m5.39453-4.5039l2.27344.92187m10.94922-1.02734l-5.20703 4.71875m5.20703-4.71875l2.3086.82812m-3.06642-.14453l2.3086.83203m12.09765-1.08203l-5.8789 3.84766m5.8789-3.84766l2.15235 1.1836m-3.00781-.625l2.15234 1.18359m-3.00781-.6211l1.07812.58985m14.16406-1.33985l-6.30859 3.10547m6.3086-3.10547l1.98828 1.4375m-2.90625-.98437l1.98828 1.4336m-2.90625-.98438l1.98828 1.4375m12.85547-2.84375l-5.69531 4.11328m5.6953-4.11328l2.20313 1.07812m-3.03125-.48047l2.20313 1.08204m-3.03125-.48438l1.10156.54297m13.51953-2.15234l-4.9961 4.9414m4.9961-4.9414l2.34375.73047m-3.07031-.01172l2.34375.73047m11.02734-1.98047l-3.65234 6.0039m3.65234-6.0039l2.44922.14062m-2.98047.73438l2.44922.14062m11.07813-1.1875l-3.01563 6.34766m3.01563-6.34766l2.45312-.10937m-2.89062 1.03515l2.44921-.11328m-2.88671 1.03516l1.22265-.05469m14.00781-1.03906l-5.09375 4.83984"/><g clip-path="url(#ai)"><path fill="none" stroke="#000" stroke-linecap="round" stroke-linejoin="round" stroke-miterlimit="10" stroke-width=".5" d="M466.10938 424.64844l2.32812.77734"/></g><path fill="none" stroke="#000" stroke-linecap="round" stroke-linejoin="round" stroke-miterlimit="10" stroke-width=".5" d="M465.36719 425.35156l2.32812.77735m-3.07031-.07032l1.16406.38672"/><g clip-path="url(#aj)"><path fill="none" stroke="#000" stroke-linecap="round" stroke-linejoin="round" stroke-miterlimit="10" stroke-width=".5" d="M147.5039 413.48047l-7.0078.54687"/></g><path fill="none" stroke="#000" stroke-linecap="round" stroke-linejoin="round" stroke-miterlimit="10" stroke-width=".5" d="M146.48438 413.5586l.65625 1.03515m13.68359-.65625l-7.01953-.36719m6 .3125l.51562 1.11328m13.7539-.55859l-6.89062-1.3711m5.89063 1.17188l.35156 1.17578m13.76172-.30468l-6.48438-2.71094m5.53907 2.3164l.11328 1.22266m14.40625-1.89844l-7.0039-.57031m7.0039.57031l.97266 2.2539m12.18359-1.46093l-6.6875-2.15625m6.6875 2.15625l.4336 2.41406m11.87109-.86328l-4.66407-5.25781m4.66407 5.25781l-.85938 2.29688m15.33984-4.57422l-6.99218-.70313m5.97265.60157l.46485 1.1328m13.88672-1.3125l-7.02735-.14062m7.02735.14063l1.10547 2.1875m12.20312-2.09766l-7.01953-.32031m6 .27344l.52734 1.10937m13.47266-2.73437l-6.34766 3.01953m6.34766-3.01953l1.96875 1.46484m11.52734 1.09375l-6.70703-2.09375m5.73047 1.78906l.22656 1.20313m12.82422-4.7539l-4.22656 5.61718m4.22656-5.61719l2.42188.38282m11.60156.33203l-5.64453 4.1875m5.64453-4.1875l2.21484 1.05078m11.39844-.57031l-6.24219 3.22265m6.24219-3.22265l2.01953 1.39843m-2.92578-.92969l1.00781.69922m13.28516-1.01953l-6.38672 2.92969m6.38672-2.92969l1.95312 1.48828m11.46485-1.24609l-6.58985 2.44531m6.58985-2.44531l1.83203 1.6289m11.53125-1.49218l-6.6836 2.16797m6.6836-2.16797l1.76172 1.70703m-2.73438-1.39062l1.76172 1.70703m12.1836-2.76172l-6.00391 3.64844m6.0039-3.64844l2.11329 1.25m-2.98438-.71875l2.10938 1.25m-2.98438-.71875l1.05469.625m14.36719-.88281l-6.72266 2.03906m6.72266-2.03906l1.73046 1.73828m-2.70703-1.44141l1.73047 1.73828m-2.71094-1.4414l.8672.86718m13.45702-2.9961l-4.82812 5.10548m4.82812-5.10547l2.3672.65234m-3.07032.09375l2.36719.64844m-3.06641.09375l1.17969.32422m13.16797-2.11719l-4.08985 5.71485m4.08985-5.71485l2.43359.32422m-3.02734.50781l2.43359.32422m11.66016-1.01172l-4.45704 5.42969m4.45704-5.42969l2.40625.48438m-3.0547.30469l2.40626.48437m11.73828-1.11719l-4.82031 5.11719m4.82031-5.11719l2.36719.64844m-3.07032.09766l2.3672.64453m-3.06641.09765l1.18359.32422m13.55469-1.78906l-4.86328 5.07031"/><g clip-path="url(#ak)"><path fill="none" stroke="#000" stroke-linecap="round" stroke-linejoin="round" stroke-miterlimit="10" stroke-width=".5" d="M465.99219 411.21875l2.36328.66797"/></g><path fill="none" stroke="#000" stroke-linecap="round" stroke-linejoin="round" stroke-miterlimit="10" stroke-width=".5" d="M465.28516 411.95703l2.36328.66406m-3.07031.07032l1.17968.33593"/><g clip-path="url(#al)"><path fill="none" stroke="#000" stroke-linecap="round" stroke-linejoin="round" stroke-miterlimit="10" stroke-width=".5" d="M146.65234 398.13672l-5.30468 4.60547"/></g><path fill="none" stroke="#000" stroke-linecap="round" stroke-linejoin="round" stroke-miterlimit="10" stroke-width=".5" d="M145.88281 398.80469l1.14453.4414m13.76953.71485l-6.96093.95703m5.94531-.82031l.71875.99609m13.54688.16406l-6.83204-1.64062m6.83203 1.64062l.61329 2.375m12.73047-2.5L180.5 399.7461m6.89063 1.38672l.69921 2.35156m-1.70312-2.55468l.35156 1.17578m13.97656-1.01953l-6.90625-1.29297m6.90625 1.29297l.73047 2.33984m12.16797-1.22265l-6.07812-3.52735m19.85156 2.1211l-6.99219-.71875m6.99219.71875l.92187 2.27343m12.3672-2.08203l-6.94142-1.10156m6.94141 1.10156l.79688 2.32031m12.55859-3.01953l-7.01953.30078m7.01953-.30078l1.24219 2.11328m-2.26563-2.0703l.625 1.05858m13.6914-1.3789l-6.97655.85547m6.97656-.85547l1.40625 2.00781m-2.42188-1.88672l.70313 1.00781m13.51172-1.6914l-6.7461 1.97656m6.7461-1.97656l1.71484 1.75781m11.71875-1.16015l-6.98437.78125m5.96875-.66797l.6914 1.01562m13.46094-1.90234l-6.6289 2.32812m6.6289-2.32812l1.8086 1.66015m-2.76954-1.3203l.90235.83202m13.51953-.6211l-6.91797 1.23048m6.91797-1.23047l1.51172 1.92969m11.30468-3.21094l-5.91797 3.78906m5.91797-3.78906l2.13672 1.20312m11.20703-1.15234l-5.98047 3.6914m5.98047-3.6914l2.1211 1.23828m11.71484.77344l-7.01953-.33203m7.01953.33203l1.04688 2.21875m-2.06641-2.26953l.52344 1.10937m13.58203-2.48047l-6.5625 2.51172m6.5625-2.51172l1.85156 1.60938m-2.80469-1.2461l1.84766 1.61329m-2.80469-1.2461l.92578.80469m13.8711-2.33203l-5.70313 4.10547m5.70313-4.10547l2.19922 1.08594m-3.03125-.48829l2.20312 1.08204m-3.03125-.48438l1.10156.53906m14.375-.73046l-6.70703 2.09765m6.70703-2.09765l1.7461 1.72265m-2.72266-1.41797l.875.85938m13.45313-1.03516l-6.78125 1.83594m6.78125-1.83594l1.67968 1.79297m-2.66406-1.52344l.83984.89453m12.98829-2.19921l-5.83985 3.91015m5.83985-3.91015l2.16406 1.16015m-3.01172-.59375l2.16016 1.16016m11.82421-1.96875l-5.48046 4.39453m5.48046-4.39453l2.25391.96875m-3.05078-.33203l2.2539.97265m-3.05078-.33203l1.125.48438m14.02344-1.42579l-5.96094 3.72266m5.96094-3.72265l2.125 1.22656m-2.99219-.6875l2.125 1.23047m11.94141-1.94532l-5.73047 4.07032"/><g clip-path="url(#am)"><path fill="none" stroke="#000" stroke-linecap="round" stroke-linejoin="round" stroke-miterlimit="10" stroke-width=".5" d="M466.42578 398.40234l2.19531 1.10157"/></g><g clip-path="url(#an)"><path fill="none" stroke="#000" stroke-linecap="round" stroke-linejoin="round" stroke-miterlimit="10" stroke-width=".5" d="M465.59375 398.9961l2.1914 1.09765"/></g><g clip-path="url(#ao)"><path fill="none" stroke="#000" stroke-linecap="round" stroke-linejoin="round" stroke-miterlimit="10" stroke-width=".5" d="M146.89063 385.125l-5.78125 3.9961"/></g><path fill="none" stroke="#000" stroke-linecap="round" stroke-linejoin="round" stroke-miterlimit="10" stroke-width=".5" d="M146.89063 385.125l2.17968 1.1289m-3.01953-.54687l1.08984.5625m13.6172 1.55469l-6.88673-1.39844m6.88672 1.39844l.69922 2.35156m12.48828-1.88672l-6.6289-2.33203m6.6289 2.33203l.36719 2.42578m13.1289-3.9375l-6.99218.69141m5.97656-.58984l.67969 1.02343m13.2539.87891l-6.1953-3.3164m6.1953 3.3164l-.0078 2.45313m13.03124-1.9961l-5.61328-4.23047m5.61328 4.23047l-.38672 2.42188m-.42968-3.03907l-.19141 1.21485M227.40234 387l-7.02343.2461m7.02343-.2461l1.22657 2.125m-2.25-2.08984l.61328 1.0625m13.64453-1.73047l-6.86328 1.51172m6.86328-1.51172l1.58984 1.8711m-2.58984-1.64845l.79687.9336m13.48438-1.29297l-6.79688 1.78515m6.79688-1.78515l1.66406 1.80078m-2.65234-1.54297l.83203.90235m13.45703-1.21094l-6.76953 1.88672m6.76953-1.88672l1.6914 1.77734m-2.67577-1.5039l.84765.89062m13.53906-.77734l-6.9375 1.11328m6.9375-1.11328l1.48047 1.95312m11.72657-2.41406l-6.72657 2.03515m6.72657-2.03515l1.73046 1.73828m-2.70703-1.4414l.86328.86718m13.45704-1.07031l-6.78125 1.84765m6.78125-1.84765l1.67968 1.78515m11.75782-.93359l-7.02735.14453m7.02735-.14453l1.1953 2.14063m-2.21874-2.1211l.59765 1.07422m13.41797-2.49219l-6.3789 2.94141m6.3789-2.9414l1.95313 1.48437m11.55078-.96875l-6.76172 1.91015m6.76172-1.91015l1.69922 1.77344m-2.67969-1.4961l.84766.88672m13.58203-.24219l-7.02735.06641m7.02735-.0664l1.17187 2.15624m-2.19531-2.14843l1.17188 2.15625m13.0039-3.1836l-6.70312 2.10938m6.70312-2.10938l1.75 1.71875m-2.72265-1.41406l1.74609 1.72266m-2.72266-1.41407l.875.85938m14.3086-1.70703l-6.53907 2.57422m6.53907-2.57422l1.86328 1.59375m-2.8164-1.21875l1.86718 1.59375m12.20312-2.38281l-6.14453 3.40625m6.14453-3.40625l2.0586 1.33593m-2.95313-.84375l2.0586 1.33985m12.14062-1.85547l-6.1211 3.44922m6.1211-3.44922l2.0664 1.32031m-2.95702-.82031l1.03125.66406m13.24218-1.03125l-6.26171 3.1836m6.26171-3.1836l2.01172 1.40625m-2.92187-.94531l1.0039.70703m13.00782-1.53516l-5.83203 3.92188m5.83203-3.92188l2.16406 1.15235M439 385.73437l1.08203.57422m13.46485-.38671l-6.60157 2.40234m6.60157-2.40235l1.82421 1.64063m-2.78515-1.29297l.91406.82031m13.07031-1.78515l-6.01562 3.63672"/><g clip-path="url(#ap)"><path fill="none" stroke="#000" stroke-linecap="round" stroke-linejoin="round" stroke-miterlimit="10" stroke-width=".5" d="M466.57031 385.30469l2.10547 1.25781"/></g><g clip-path="url(#aq)"><path fill="none" stroke="#000" stroke-linecap="round" stroke-linejoin="round" stroke-miterlimit="10" stroke-width=".5" d="M465.69531 385.83594l2.10547 1.25781"/></g><g clip-path="url(#ar)"><path fill="none" stroke="#000" stroke-linecap="round" stroke-linejoin="round" stroke-miterlimit="10" stroke-width=".5" d="M147.3086 372.6211l-6.6172 2.375"/></g><path fill="none" stroke="#000" stroke-linecap="round" stroke-linejoin="round" stroke-miterlimit="10" stroke-width=".5" d="M147.3086 372.6211l1.8125 1.65234m-2.77735-1.30469l.91016.82422m13.48437.8164l-6.84375-1.60156m6.84375 1.60156l.625 2.3711m12.76563-3.47656l-7 .60937m7-.60937l1.33593 2.05859m10.89453-4.30469l-4.82812 5.10156m4.82813-5.10156l2.36718.65235M185.65625 372l1.1836.32422m13.78906.48828l-6.73828 1.99219m6.73828-1.99219l1.71875 1.75m-2.69922-1.46094l.85937.875m13.58203-.16797h-7.02734m7.02734 0l1.15235 2.16797m-2.17578-2.16797l1.15234 2.16797m13.1836-2.14062l-7.02344-.05469m7.02343.05469l1.13672 2.17578m-2.15625-2.1836l1.13281 2.17579m13.19532-2.41016l-7.01172.42578m7.01172-.42578l1.28125 2.09375m-2.30078-2.03125l1.28125 2.09375m13-2.58984l-6.90625 1.29687m6.90625-1.29687l1.53125 1.91796m-2.53516-1.73046l.76563.96093m13.57421-1.04296l-6.9453 1.08593m6.9453-1.08594l1.47266 1.96094m-2.48438-1.80469l.73438.98438m13.60547-1.02344l-6.97266.85156m6.97266-.85156l1.40625 2.01172m-2.41797-1.88672l.70313 1.0039m13.64453-.91405l-7.01563.42187m7.01563-.42187l1.28125 2.09375m-2.30078-2.03125l.64062 1.04687m13.60938-1.6875l-6.84766 1.57813m6.84766-1.57813l1.60937 1.85156m-2.60547-1.62109l1.60938 1.85156m12.60156-2.4336l-6.64453 2.28126m6.64453-2.28125l1.79297 1.67578M319.45313 373l.89453.83594m13.48437-.82422l-6.84375 1.59375m6.84375-1.59375l1.61328 1.85156m-2.60937-1.61719l.8086.92188m13.5703-.79297l-6.97656.86328m6.97656-.86328l1.40625 2.01172m-2.42187-1.88281l1.41016 2.0078m12.89453-2.29296l-6.92578 1.17578m6.92578-1.17578l1.5 1.94531m-2.50782-1.77344l1.5 1.94532m12.82422-2.10938l-6.92968 1.16406m6.92968-1.16406l1.4961 1.94531m-2.50391-1.77734l1.4961 1.94531m12.83593-2.0703l-6.94531 1.07812m6.94531-1.07813l1.46875 1.96094m-2.48047-1.80469l1.47266 1.96485m12.8125-2.34375l-6.86328 1.52343m6.86328-1.52344l1.59375 1.86329m-2.59375-1.64063l1.59375 1.86328m12.66016-2.3125l-6.7422 1.97656m6.7422-1.97656l1.71484 1.75781m-2.69531-1.46875l.85937.875m13.55469-.58203l-6.98047.8125m6.98047-.8125l1.39453 2.01954m-2.41016-1.90235l.69922 1.01172m13.25-2.36719l-6.21484 3.28516m6.21484-3.28516l2.03125 1.3789m-2.9375-.89843l1.01563.6875m13.35937-.82812l-6.52343 2.60937m6.52343-2.60937l1.875 1.58203m-2.82422-1.20313l.9375.79297m13.32032-1.1875l-6.51172 2.64063"/><g clip-path="url(#as)"><path fill="none" stroke="#000" stroke-linecap="round" stroke-linejoin="round" stroke-miterlimit="10" stroke-width=".5" d="M466.8164 372.48828l1.88282 1.57422"/></g><path fill="none" stroke="#000" stroke-linecap="round" stroke-linejoin="round" stroke-miterlimit="10" stroke-width=".5" d="M465.8711 372.8711l.9414.78906"/><g clip-path="url(#at)"><path fill="none" stroke="#000" stroke-linecap="round" stroke-linejoin="round" stroke-miterlimit="10" stroke-width=".5" d="M147.32813 359.35938l-6.65625 2.26562"/></g><path fill="none" stroke="#000" stroke-linecap="round" stroke-linejoin="round" stroke-miterlimit="10" stroke-width=".5" d="M147.32813 359.35938l1.78515 1.68359m11.69531-.9414l-6.98437.78124m6.98437-.78125l1.38282 2.02735m11.83593-.7422l-6.79687-1.78905m6.79687 1.78906l.5625 2.39062m-1.55078-2.64843l.28125 1.1914m14.13672-1.91797l-7.02344.1836m7.02344-.1836l1.20703 2.13672m12.10547-2.24219l-7.01562.39454m7.01562-.39454l1.26953 2.09766m-2.29297-2.04297l.63672 1.05078m13.70313-.80078l-7.02344-.21484m7.02344.21484l1.08594 2.19922m-2.10547-2.23047l1.08593 2.19922m13.2422-2.55078l-7.00782.54688m7.00781-.54688l1.3164 2.07031m-2.33593-1.98828l1.3164 2.07031m13-2.3125l-6.97265.8711m6.97266-.8711l1.41406 2.00391m-2.42969-1.8789l.70703 1.0039m13.58985-1.33984l-6.90625 1.28906m6.90625-1.28906l1.53125 1.91796m-2.53516-1.73046l.76563.96093m13.48828-1.43359l-6.77344 1.85938m6.77344-1.85938l1.68359 1.78516m-2.66797-1.51172l.83985.89062m13.5625-.64844l-6.98047.82813m6.98047-.82813l1.39843 2.01563m-2.41406-1.89453l.69922 1.00781m13.64844-.51953l-7.01563-.38672m7.01563.38672l1.03125 2.22656m-2.05079-2.28515l.51563 1.11328m13.82422-1.23438l-7.02735-.03125m7.02735.03125l1.14453 2.17188m-2.16406-2.17578l.57031 1.08593m13.76172-.96484l-7.01953-.26172m7.01953.26172l1.07031 2.20703m-2.08984-2.2461l1.07031 2.20704m13.23437-2.77735l-6.96093.95313m6.96093-.95313l1.4375 1.9922m-2.44921-1.85157l.71875.99219m13.5703.04297l-6.88671-1.39454m6.88672 1.39454l.69922 2.35156m-1.69922-2.55469l.34765 1.17578m14.01954-1.29297l-6.98829-.7578m6.98829.7578l.91015 2.27735m-1.92578-2.38672l.91016 2.27734m13.41797-2.92578l-6.98438.75781m6.98438-.7578l1.3789 2.03124m-2.39453-1.91797l1.3789 2.02735m-2.39452-1.91797l.6875 1.01562m14.51171-1.9336l-6.6875 2.15235m6.6875-2.15234l1.76172 1.70703m-2.73437-1.39453l1.76172 1.70703m-2.73438-1.39453l.8789.85547m14.40235-1.41406l-6.73047 2.01953m6.73047-2.01954l1.72656 1.7422m-2.70703-1.44923l1.72657 1.7422m12.59765-1.9297l-6.78906 1.8086m6.78906-1.8086l1.67188 1.79688m-2.66016-1.53516l.83594.89844m13.48437-1.10547l-6.8203 1.69531m6.8203-1.6953l1.64063 1.82421m-2.63281-1.57813l.8203.91407m13.39063-1.47656l-6.6289 2.32812m6.6289-2.32813l1.8047 1.66407m-2.76954-1.32422l.90234.83203m13.38282-1.16016l-6.64063 2.3047m6.64063-2.3047l1.79687 1.67188m-2.76172-1.33594l.89844.83594m13.13672-1.72266l-6.14844 3.40625"/><g clip-path="url(#au)"><path fill="none" stroke="#000" stroke-linecap="round" stroke-linejoin="round" stroke-miterlimit="10" stroke-width=".5" d="M466.63672 358.78906l2.05469 1.33985"/></g><path fill="none" stroke="#000" stroke-linecap="round" stroke-linejoin="round" stroke-miterlimit="10" stroke-width=".5" d="M465.74219 359.28516l1.02734.66796"/><g clip-path="url(#av)"><path fill="none" stroke="#000" stroke-linecap="round" stroke-linejoin="round" stroke-miterlimit="10" stroke-width=".5" d="M147.23047 345.79688l-6.46094 2.76171"/></g><path fill="none" stroke="#000" stroke-linecap="round" stroke-linejoin="round" stroke-miterlimit="10" stroke-width=".5" d="M147.23047 345.79688l1.91016 1.53906m11.58203.70312l-6.8125-1.71875m6.8125 1.71875l.58593 2.3789m12.80078-2.75l-6.95703-.98046m6.95703.98047l.83594 2.3086m-1.84765-2.44923l.41797 1.15235m13.875-.8125l-6.89063-1.3789m6.89063 1.3789l.70312 2.35156m12.67969-3.03906h-7.02735m7.02735 0l1.15234 2.16406m-2.17578-2.16406l.57813 1.08203m13.75-.79688l-7.00391-.57421m7.0039.57421l.96875 2.25391m-1.98828-2.33594l.96875 2.2539M227.39844 347l-7.01563.35547M227.39844 347l1.26172 2.10547m-2.28125-2.05469l.6289 1.05469m13.69922-.64844l-7.0039-.5586m7.0039.5586l.97656 2.25m-1.99609-2.33203l.48828 1.125m13.80078-.6836l-6.91015-1.27734m6.91015 1.27735l.73828 2.33984m-1.74609-2.52344l.3711 1.16797m13.98046-1.16797l-6.96875-.90625m6.96875.90625l.86328 2.29688M266.3047 347.5l.4336 1.14844m13.91796-1.70703l-7.01172.47265m7.01172-.47265l1.29687 2.08203m-2.3164-2.01563l.64844 1.04297m13.6953-.91797l-7.02734.08985m7.02735-.08985l1.17578 2.15235m-2.19922-2.13672l.58984 1.07422m13.71875-.60157l-6.96875-.88671m6.96875.88671l.8711 2.29297m-1.88281-2.42187l.43359 1.14844m13.89844-1.0586l-6.98047-.8086m6.98047.8086l.89453 2.28516m-1.91016-2.40235l.89453 2.28516m13.4375-2.96484l-6.98437.78515m6.98437-.78515l1.38672 2.02343m-2.40234-1.91015l1.38672 2.02344m12.96484-1.70313l-7.02734-.07813m7.02734.07813l1.1289 2.17578m-2.14843-2.1875l1.125 2.17969m13.11719-1.41016l-6.83985-1.59765m6.83985 1.59765l.63281 2.3711m-1.625-2.60547l.6289 2.375m-1.625-2.60547l.3125 1.1875m15.0625-1.125l-6.98437-.79297m6.98438.79297l.90234 2.28125m-1.91797-2.39844l.90234 2.28516m-1.91796-2.39844l.89843 2.28125m14.42578-3.01172l-6.9375 1.1289m6.9375-1.1289l1.48438 1.95313m-2.4961-1.78907l1.48829 1.95313m-2.4961-1.78906l1.48438 1.95312M400.1953 345.75l-6.41797 2.85547m6.41797-2.85547l1.9336 1.51172m-2.8672-1.09375l1.9336 1.51172m-2.86719-1.09766l1.9336 1.51172m13.0625-2.71094l-6.04297 3.58985m6.04297-3.58985l2.09375 1.27735m-2.97266-.75391l2.09375 1.27344m-2.97656-.75l1.05078.63672m14.23828-1.26172l-6.46875 2.75m6.46875-2.75l1.90625 1.54297m-2.84765-1.14454l1.90625 1.54297m-2.84766-1.14453l.95312.77344m14.48438-.71094l-6.94922 1.03125m6.94922-1.03125l1.45703 1.97266m-2.46875-1.82422l1.45703 1.97266m12.84375-2.27735l-6.89844 1.33985m6.89844-1.33985l1.54297 1.90625m-2.54687-1.71094l1.54296 1.90625m-2.54687-1.71093l.77344.95312m14.41406-1.84765l-6.625 2.34765"/><g clip-path="url(#aw)"><path fill="none" stroke="#000" stroke-linecap="round" stroke-linejoin="round" stroke-miterlimit="10" stroke-width=".5" d="M466.875 346.0039l1.8086 1.66016"/></g><path fill="none" stroke="#000" stroke-linecap="round" stroke-linejoin="round" stroke-miterlimit="10" stroke-width=".5" d="M465.91016 346.34766l1.80859 1.65625m-2.77344-1.31641l.90625.82813"/><g clip-path="url(#ax)"><path fill="none" stroke="#000" stroke-linecap="round" stroke-linejoin="round" stroke-miterlimit="10" stroke-width=".5" d="M147.3086 332.6875l-6.6172 2.35156"/></g><path fill="none" stroke="#000" stroke-linecap="round" stroke-linejoin="round" stroke-miterlimit="10" stroke-width=".5" d="M147.3086 332.6875l1.8125 1.65234m11.70312-.3164l-7.01953-.32031m7.01953.3203l1.05078 2.21876m11.57422-.28516l-5.64063-4.1875m5.64063 4.1875l-.36328 2.42578m14.25-3.59765l-6.78125-1.84375m6.78125 1.84375l.54297 2.39062m-1.53125-2.66015l.27343 1.1953m14.06641-1.07812l-6.85547-1.53906m5.85938 1.3164l.32422 1.1797m14.04296-1.25391l-6.96484-.94531m6.96484.9453l.84766 2.30079m-1.86328-2.4375l.42578 1.14844m13.90625-1.9375l-6.96875.90625m6.96875-.90625l1.42188 2m-2.4375-1.8672l1.42187 2m12.76172-2.77733l-6.67578 2.1953m6.67578-2.1953l1.76953 1.69921m-2.73828-1.3789l.88281.84765m13.42188-1.10937l-6.71485 2.07812m6.71485-2.07812l1.73828 1.73047m-2.71875-1.42969l.8711.86719m13.5703-.375l-7.0078.49219m7.0078-.4922l1.30078 2.07813m-2.3203-2.00781l.65234 1.03906m13.6875-.71484l-7.01953-.29688m7.01953.29688l1.0625 2.21094m-2.08203-2.25391l.52734 1.10547m13.8125-1.21094h-7.02735m7.02735 0l1.15234 2.16797m-2.17578-2.16797l.57422 1.08203m13.67187-1.875l-6.84375 1.58594m6.84375-1.58594l1.61329 1.84766m-2.60938-1.61719l.80469.92578m13.58594-.0664l-7.00391-.59375m7.0039.59375l.96485 2.2539m-1.98438-2.33984l.48438 1.125m13.76172-.51172l-6.82813-1.64844m6.82813 1.64844l.61328 2.3789m-1.60547-2.61718l.60938 2.375m13.79296-2.79297l-7.01953-.33594m7.01953.33594l1.04688 2.21875m-2.0664-2.26953l.52343 1.10937m13.8164-1.27734l-7.02734.10156m7.02735-.10156l1.1836 2.14844m-2.20704-2.13281l.59375 1.07421m13.7461-1.03906h-7.02735m7.02734 0l1.15235 2.16797m-2.17578-2.16797L374 336.03125m12.99219-3.32031l-6.64063 2.30469m6.64063-2.3047l1.79687 1.67188m-2.76562-1.33594l.90234.83594m13.5664.23438l-7.01171-.50781m7.01172.5078l.98828 2.2461m-2.00781-2.32031l.98828 2.2461m13.33984-2.73048l-7 .60938m7-.60938l1.33594 2.0586m-2.35547-1.97266l1.33594 2.0586m12.73828-3.19922l-6.47656 2.71875m6.47656-2.71875l1.90234 1.55078m-2.84375-1.15625l1.89844 1.55078m12.45703-1.67969l-6.67578 2.1875m6.67578-2.1875l1.76953 1.69922m-2.74219-1.38281l1.77344 1.69922m-2.74219-1.37891l.88282.84766m14.41015-1.3672l-6.75 1.95313m6.75-1.95312l1.71094 1.75781m-2.6914-1.47265l1.70703 1.7578m-2.69141-1.47656l1.71094 1.76172m13.48047-2.58984l-6.57422 2.47656"/><g clip-path="url(#ay)"><path fill="none" stroke="#000" stroke-linecap="round" stroke-linejoin="round" stroke-miterlimit="10" stroke-width=".5" d="M466.84766 332.625l1.84375 1.6211"/></g><path fill="none" stroke="#000" stroke-linecap="round" stroke-linejoin="round" stroke-miterlimit="10" stroke-width=".5" d="M465.89453 332.98438l1.83985 1.62109m-2.79688-1.26172l1.83984 1.6211"/><g clip-path="url(#az)"><path fill="none" stroke="#000" stroke-linecap="round" stroke-linejoin="round" stroke-miterlimit="10" stroke-width=".5" d="M144.51563 317.07422l-1.03125 6.94922"/></g><path fill="none" stroke="#000" stroke-linecap="round" stroke-linejoin="round" stroke-miterlimit="10" stroke-width=".5" d="M159.74219 318.00781l-4.85156 5.08203m19.0078-3.83593l-6.53515 2.58984m5.58203-2.21484l.9336.79687m13.57812.28125l-7.02344-.3164m6 .26953l.52735 1.10937m13.35937.5039l-6.1211-3.45312m6.1211 3.45313l-.0586 2.45312m13.3125-2.34765l-6-3.66016m6 3.66016l-.14452 2.44921m-.72656-2.98437l-.07422 1.22656m14.62109-1.49219l-6.71875-2.05859m6.71875 2.0586l.46484 2.41015m-1.4414-2.71094l.23047 1.20704m14.21093-2.10157l-7.01953.32813m7.01953-.32813l1.25391 2.11328m-2.27344-2.0625l.625 1.0547m13.6914-1.32032l-6.98437.75781m6.98438-.75781l1.3789 2.03125m-2.39453-1.92188l.69141 1.01563m13.65625-.94922l-7.01563.41016m7.01563-.41016l1.27734 2.09375m-2.29687-2.03516l.63672 1.04688m13.67968-1.32031l-6.97656.83593m6.97656-.83593l1.39844 2.01562M279.625 320.25l.69922 1.00781m13.61719-1.23437l-6.94922 1.04687m6.94922-1.04687l1.46093 1.97265m-2.47265-1.8203l.73047.98437m13.55078-1.375l-6.85938 1.52343m6.85938-1.52343l1.59375 1.86718m-2.59375-1.64453l.80078.9336m13.58203-.72266l-6.9961.66016m6.9961-.66016l1.35156 2.04688m-2.3711-1.95313l1.35157 2.05078m12.98047-2.1914l-6.98828.75m6.98828-.75l1.375 2.03125m-2.39453-1.92188l.6875 1.01563m13.66015-.58985l-7.01953-.32031m7.01953.32031l1.0547 2.21875m12.10546-1.32812L353.6875 319.5m5.73047 1.79297l.22656 1.20312m14.0625-3l-6.70312 2.10547m6.70312-2.10547l1.75 1.72266m11.125-2.63672l-5.82422 3.9336m5.82422-3.9336l2.16797 1.15235m-3.01563-.58204l1.08594.57813m13.20703-.9414l-6.08203 3.51952m6.08203-3.51953l2.08203 1.29688m-2.96875-.78516l1.04297.64844m13.60938.99219l-6.98438-.78516m5.96875.67188l.44922 1.14062m11.09766 2.01953l-1.41797-6.88281m14.2461-.0625l-.44141 7.01172m.3789-5.99219l1.1172-.50781m14.33983.33594l-4.59765 5.3164m4.59765-5.3164l2.39063.54687m-3.0625.22656l1.19531.27344m13.11328-.72656l-5.24218 4.67578"/><g clip-path="url(#aA)"><path fill="none" stroke="#000" stroke-linecap="round" stroke-linejoin="round" stroke-miterlimit="10" stroke-width=".5" d="M466.1836 318.21094l2.30077.84765"/></g><path fill="none" stroke="#000" stroke-linecap="round" stroke-linejoin="round" stroke-miterlimit="10" stroke-width=".5" d="M465.42188 318.89063l2.30078.84765m-3.06641-.16797l2.30469.85156"/><path fill="#00f" fill-rule="evenodd" d="M414.86719 423.26563h8.6211v-10.14844h-8.6211v10.14844"/><path fill="azure" fill-rule="evenodd" d="M416.70313 414.95313h.83203v2.8203h3.28515v-2.8203h.83594v6.48046h-.83594v-2.91796h-3.28515v2.91796h-.83204v-6.48046"/><path fill="#ff3030" fill-rule="evenodd" d="M371.17969 418.82813h7.6914v-10.14844h-7.6914v10.14844"/><path fill="azure" fill-rule="evenodd" d="M373.01172 410.51172h.83594v5.74219h3.1914v.73828h-4.02734v-6.48047"/><path fill="#00f" fill-rule="evenodd" d="M224.01953 414.38672h8.61719v-10.14453h-8.61719v10.14453"/><path fill="azure" fill-rule="evenodd" d="M225.85156 406.07422h.83594v2.82422h3.28516v-2.82422h.83203v6.48047h-.83203v-2.91406h-3.28516v2.91406h-.83594v-6.48047"/><path fill="#ff3030" fill-rule="evenodd" d="M189.20703 370.0039h7.6914v-10.14452h-7.6914v10.14453"/><path fill="azure" fill-rule="evenodd" d="M191.03906 361.6914h.83594v5.73829h3.1914v.74219h-4.02734v-6.48047"/><path fill="#ffffe0" fill-rule="evenodd" d="M395.66406 476.75781h22.17969V466.5625h-22.17969v10.19531"/><path fill-rule="evenodd" d="M399.16406 468.39844h.50781v6.29297h-.78515v-4.48829h-1.39063v-.55468l.5625-.0664.25-.0547.23047-.08984.20313-.14063.17578-.21093.14062-.29297.10547-.39453m4.8125 0l.23047.01953.21875.05469.20703.08984.19531.1211.1875.14843.16797.17578.3047.41797.24218.4961.17969.54687.11328.57813.03515.58984-.03515.59375-.11328.58594-.1797.55078-.24218.5039-.30469.42579-.16796.17968-.1875.15625-.19532.1211-.20703.09375-.21875.05468-.23047.01954-.23047-.01954-.21875-.05468-.20703-.09375-.19531-.1211-.1836-.15625-.17187-.17969-.30078-.42578-.2461-.5039-.17968-.55078-.10938-.58594-.03906-.59375h.83203l.03125.5625.08203.50781.125.4414.16016.375.1914.30079.21094.22265.22266.13672.22656.04688.22656-.04688.22266-.13671.21094-.22266.1914-.30078.16016-.375.1289-.4414.08204-.50782.02734-.5625-.02734-.5625-.08203-.5-.1289-.4336-.16017-.36718-.1914-.29297-.21094-.21094-.22265-.13281-.22657-.04688-.22656.04688-.22266.13281-.21093.21094-.19141.29297-.16016.36719-.125.43359-.08203.5-.03125.5625h-.83203l.03906-.58985.10938-.57812.17969-.54688.24609-.49609.30078-.41797.17188-.17578.18359-.14844.19531-.12109.20703-.08984.21875-.0547.23047-.01952m4.95313 0l.23047.01953.21875.05469.20703.08984.19531.1211.1836.14843.17187.17578.30469.41797.24218.4961.1797.54687.10937.57813.03906.58984-.03906.59375-.10938.58594-.17969.55078-.24218.5039-.3047.42579-.17187.17968-.18359.15625-.19531.1211-.20703.09375-.21875.05468-.23047.01954-.23047-.01954-.21875-.05468-.20703-.09375-.19531-.1211-.1836-.15625-.17187-.17969-.3047-.42578-.24218-.5039-.17969-.55078-.10937-.58594-.03906-.59375h.83203l.03125.5625.07812.50781.1289.4414.16017.375.1914.30079.21094.22265.22265.13672.22657.04688.22656-.04688.22266-.13671.21093-.22266.19141-.30078.16016-.375.1289-.4414.08203-.50782.02735-.5625-.02735-.5625-.08203-.5-.1289-.4336-.16016-.36718-.1914-.29297-.21094-.21094-.22266-.13281-.22656-.04688-.22656.04688-.22266.13281-.21094.21094-.1914.29297-.16016.36719-.1289.43359-.07813.5-.03125.5625h-.83203l.03906-.58985.10937-.57812.1797-.54688.24218-.49609.30469-.41797.17187-.17578.1836-.14844.1953-.12109.20704-.08984.21875-.0547.23047-.01952m4.95312 0l.38672.02734.35938.08203.3203.13672.28126.1875.23047.23828.17187.28516.10938.33203.03906.375-.02344.27344-.05469.23828-.08984.19922-.10937.16797-.12891.14453-.14063.125-.28906.19531.23438.11719.20703.14844.1836.17187.15234.1914.12109.21485.09375.23047.05469.24219.01953.2578-.03516.3086-.10156.32422-.17188.32813-.24218.30468-.30469.26954-.375.21484-.21094.08203-.23047.0586-.24218.03906-.26172.01171-.25781-.01171-.2422-.03907-.22656-.05859-.20312-.08203-.35938-.21485-.28906-.26953-.22265-.30468-.15625-.32813-.09375-.32422-.03125-.3086h.83203l.02734.25392.07813.23437.12109.21094.16016.1836.1953.15233.21876.1172.24219.0703.2539.02735.2539-.02735.2422-.0703.21875-.1172.1914-.15234.16406-.1836.1211-.21093.07812-.23438.02735-.2539-.02735-.2539-.07812-.23438-.1211-.21485-.16406-.18359-.1914-.15234-.21875-.11329-.2422-.07421-.2539-.02344-.2539.02344-.2422.07421-.21874.11329-.19531.15234-.16016.1836-.1211.21484-.07812.23437-.02734.2539h-.83203l.01953-.2539.05469-.24219.08984-.22265.125-.20703.15234-.1914.1836-.17188.20703-.15235.23047-.13281-.28516-.19531-.14063-.125-.1289-.14453-.10938-.16797-.08984-.19922-.0586-.23828-.01952-.27344h.78906l.01953.21484.0664.19141.10547.16797.13672.13672.16406.11328.1875.08203.20704.05078.22265.01563.21875-.01563.20703-.05078.19141-.08203.16406-.11328.13672-.13672.10547-.16797.0625-.1914.02344-.21485-.02344-.21484-.0625-.19141-.10547-.16406-.13672-.14063-.16406-.10937-.1914-.08203-.20704-.05079-.21875-.01953-.22265.01954-.20704.05078-.1875.08203-.16406.10937-.13672.14063-.10546.16406-.06641.1914-.01953.21485h-.78906l.03906-.375.10937-.33203.17188-.28516.23047-.23828.27734-.1875.32422-.13672.35937-.08203.38672-.02734"/><path fill="#ffffe0" fill-rule="evenodd" d="M338.47266 445.6875h22.17968v-10.1914h-22.17968v10.1914"/><path fill-rule="evenodd" d="M341.97266 437.32813h.5078v6.29687h-.78515v-4.49219h-1.39062v-.55469l.5586-.0664.2539-.05078.23047-.08985.20312-.14062.17188-.21094.14453-.29687.10547-.39454m4.8125 0l.23046.01954.21875.05468.20704.08985.1953.1211.1836.14843.17188.17578.30469.42188.24218.49218.17969.54688.10938.57812.03906.59375-.03906.58985-.10938.58593-.17969.5547-.24219.5-.30468.42968-.17188.17969-.1836.15234-.1953.125-.20704.08984-.21875.0586-.23046.01953-.23047-.01953-.21875-.0586-.20703-.08984-.19532-.125-.18359-.15234-.17188-.1797-.30468-.42968-.24219-.5-.17969-.55469-.10937-.58593-.03906-.58985h.83203l.03125.5625.07812.5039.1289.44532.16016.3711.19141.30078.21094.22265.22265.13672.22657.04688.22656-.04688.22265-.13672.21094-.22265.1914-.30079.16017-.37109.1289-.44531.08203-.5039.02735-.5625-.02735-.5625-.08203-.5-.1289-.4375-.16016-.36329-.1914-.29297-.21094-.21484-.22266-.13281-.22656-.04297-.22657.04297-.22265.1328-.21094.21485-.1914.29297-.16016.36328-.1289.4375-.07813.5-.03125.5625h-.83204l.03907-.59375.10937-.57812.17969-.54688.24219-.49219.30469-.42187.17187-.17578.1836-.14844.1953-.1211.20704-.08984.21875-.05468.23047-.01954m4.95312 0l.23047.01954.21875.05468.20703.08985.19531.1211.1836.14843.17187.17578.30078.42188.2461.49218.17969.54688.10937.57812.03906.59375-.03906.58985-.10938.58593-.17968.5547-.2461.5-.30078.42968-.17187.17969-.1836.15234-.1953.125-.20704.08984-.21875.0586-.23047.01953-.23047-.01953-.21875-.0586-.20703-.08984-.19531-.125-.1875-.15234-.16797-.1797-.30469-.42968-.24219-.5-.17968-.55469-.11328-.58593-.03516-.58985h.83203l.02735.5625.08203.5039.1289.44532.16016.3711.1914.30078.21094.22265.22266.13672.22656.04688.22656-.04688.22266-.13672.21094-.22265.1914-.30079.16016-.37109.125-.44531.08203-.5039.03125-.5625-.03125-.5625-.08203-.5-.125-.4375-.16016-.36329-.1914-.29297-.21094-.21484-.22266-.13281-.22656-.04297-.22656.04297-.22266.1328-.21094.21485-.1914.29297-.16016.36328-.1289.4375-.08204.5-.02734.5625h-.83203l.03516-.59375.11328-.57812.17969-.54688.24218-.49219.30469-.42187.16797-.17578.1875-.14844.19531-.1211.20703-.08984.21875-.05468.23047-.01954m4.95313 0l.38671.02735.35938.08203.32031.13672.28125.1875.23047.23828.17188.28516.10937.33203.03906.3789-.02343.27344-.0547.23438-.08983.19921-.11329.17188-.1289.14453-.13672.1211-.28906.1953.23437.1211.20703.14453.17969.17188.15625.19531.1211.21094.09374.23047.0547.24609.01952.2539-.03515.3086-.10547.32813-.17188.32421-.23828.3086-.30469.26953-.375.21094-.21093.08203-.23047.0625-.24219.03906-.26172.01172-.26172-.01172-.23828-.03906-.22656-.0625-.20313-.08203-.35937-.21094-.28906-.26953-.22266-.3086-.16016-.32421-.08984-.32813-.03125-.3086h.83203l.02735.25391.07812.23438.1211.21484.16015.1836.19531.15234.21875.11328.23828.07422.25782.02344.2539-.02344.24219-.07422.21875-.11328.1914-.15235.16016-.18359.125-.21484.07813-.23438.02734-.2539-.02734-.25391-.07813-.23438-.125-.21093-.16015-.1836-.19141-.15234-.21875-.11719-.24219-.07031-.2539-.02734-.25782.02734-.23828.07031-.21875.11719-.19531.15234-.16016.1836-.12109.21094-.07813.23437-.02734.2539h-.83203l.01953-.2539.05469-.23828.08984-.22266.125-.21094.15235-.1914.18359-.17188.20703-.15234.23047-.13281-.28516-.19531-.14062-.1211-.1289-.14453-.11329-.17188-.08594-.19921-.05859-.23438-.01953-.27344h.78515l.02344.21485.0664.1914.10548.16407.13672.14062.16406.10938.1875.08203.20703.05078.22266.01953.21875-.01953.20703-.05078.1875-.08203.16797-.10938.13671-.14062.10157-.16407.0664-.1914.02344-.21485-.02344-.21484-.0664-.1914-.10156-.16798-.13672-.13671-.16797-.11329-.1875-.08203-.20703-.05078-.21875-.01562-.22266.01562-.20703.05078-.1875.08204-.16406.11328-.13672.13671-.10547.16797-.0664.19141-.02344.21484h-.78516l.03906-.3789.10938-.33203.17187-.28516.23047-.23828.27734-.1875.32422-.13672.35938-.08203.38672-.02735"/><path fill="#ffffe0" fill-rule="evenodd" d="M346.1836 378.60938h22.17968v-10.19141H346.1836v10.1914"/><path fill-rule="evenodd" d="M349.6836 370.25h.5078v6.29688h-.78906v-4.4922h-1.38671V371.5l.55859-.0625.2539-.05469.23047-.08984.20313-.14063.17187-.21093.14063-.29297.10937-.39844m4.8125 0l.23047.01953.21875.05469.20703.08984.19532.1211.18359.15234.17188.17578.30078.41797.24609.49219.17969.54687.10937.57813.03906.59375-.03906.59375-.10937.58203-.17969.55469-.2461.5-.30077.42968-.17188.1797-.1836.15233-.1953.125-.20704.08985-.21875.0586-.23047.01952-.23046-.01953-.21875-.0586-.20704-.08983-.1953-.125-.1875-.15235-.16798-.17969-.30469-.42968-.24218-.5-.17969-.5547-.11328-.58202-.03516-.59375h.83203l.02735.5625.08203.5039.1289.44532.16016.375.1914.30078.21094.21875.22266.13672.22656.04687.22657-.04687.22265-.13672.21094-.21875.1914-.30078.16016-.375.125-.44532.08203-.5039.03125-.5625-.03125-.5625-.08203-.5-.125-.4336-.16015-.36718-.19141-.29297-.21094-.21485-.22265-.1289-.22657-.04688-.22656.04688-.22265.1289-.21094.21485-.1914.29297-.16017.36718-.1289.4336-.08203.5-.02735.5625h-.83203l.03516-.59375.11328-.57813.17969-.54687.24219-.49219.30468-.41797.16797-.17578.1875-.15234.19531-.1211.20704-.08984.21875-.05469.23046-.01953m5.08985 0h.51172v6.29688h-.78907v-4.4922h-1.38671V371.5l.55859-.0625.2539-.05469.22657-.08984.20312-.14063.17578-.21093.14063-.29297.10547-.39844m2.82422 2.17578h.78515l.02344-.3164.0586-.28516.09765-.2539.14063-.21485.17968-.17188.22266-.1289.26562-.08203.3086-.02735.23828.02344.22265.0625.20704.10156.17578.13672.15234.17188.11328.20703.07031.23437.02344.26563-.01953.26953-.0664.22265-.10938.19532-.15625.16797-.19922.16406-.25.16406-.63281.39063-.53906.3125-.4375.3164-.34375.32422-.26563.33594-.1914.35156-.125.3711-.06641.39062-.02344.42188h4.21485v-.7422h-3.33204l.08204-.28515.11328-.23437.14843-.20313.1875-.17969.23047-.17187.27735-.17578.71875-.41406.41406-.20704.34765-.23046.28125-.25.21875-.26954.16407-.27734.10937-.28516.0625-.28515.02344-.28125-.04297-.38281-.1211-.34766-.1875-.3086-.25-.26171-.30468-.21094-.34375-.16016-.38281-.09765-.40625-.03516-.4336.03516-.39843.09765-.35547.16797-.30469.23438-.2461.30078-.1875.375-.11718.44531-.03906.51953"/><path fill="#ffffe0" fill-rule="evenodd" d="M195.69922 325.85156h22.17969v-10.1914h-22.1797v10.1914"/><path fill-rule="evenodd" d="M199.19922 317.49219h.50781v6.29687h-.78516v-4.49219h-1.38671v-.55468l.55859-.0664.25-.05079.23047-.08984.20312-.14063.17578-.21094.14063-.29687.10547-.39453m4.8125 0l.23047.01953.21875.05469.20703.08984.19922.1211.1836.14843.17187.17578.30078.42188.24219.49219.17968.54687.11328.57813.03907.59375-.03907.58984-.11328.58594-.17969.55468-.24218.5-.30078.4297-.17188.17968-.1836.15234-.19921.125-.20703.08985-.21875.05859-.23047.01953-.22656-.01953-.21875-.0586-.21094-.08984-.19531-.125-.1836-.15234-.17187-.17969-.30078-.42969-.2422-.5-.17968-.55468-.11328-.58594-.03906-.58985h.83594l.02734.5625.08203.50391.125.44531.16406.375.1914.29688.20704.22265.22266.13672.22656.04688.22656-.04688.22266-.13671.21094-.22266.1914-.29688.16406-.375.125-.4453.08203-.50392.02735-.5625-.02734-.5625-.08204-.5-.125-.4375-.16406-.36328-.1914-.29296-.21094-.21485-.22266-.13281-.22656-.04297-.22656.04297-.22266.13281-.20703.21485-.1914.29296-.16407.36329-.125.4375-.08203.5-.02734.5625h-.83594l.03906-.59375.11328-.57813.17969-.54688.24219-.49218.30078-.42188.17187-.17578.1836-.14844.1953-.12109.21095-.08984.21875-.0547.22656-.01952m5.09375 0h.50781v6.29687h-.78516v-4.49219h-1.39062v-.55468l.5625-.0664.25-.05079.23047-.08984.20312-.14063.17578-.21094.14063-.29687.10547-.39453m2.82422 2.17578h.78515l.01953-.3164.0586-.28516.10156-.25391.14063-.21484.17968-.17188.22266-.1289.26563-.08204.30859-.02734.23828.01953.22266.0625.20312.10156.17969.14063.14844.17187.11328.20704.07422.23437.02343.26563-.02343.26953-.0625.22265-.11328.1914-.15235.17188-.20312.16407-.2461.16406-.63281.39062-.53906.3125-.4375.31641-.34766.32422-.26172.33594-.1914.35156-.125.3711-.07032.39062-.01953.42187H216v-.74219h-3.33203l.08594-.28515.11328-.23438.14844-.20312.1875-.17969.23046-.17187.27735-.17579.71875-.41406.41406-.20703.34375-.23047.28125-.25.21875-.26953.16406-.27734.11328-.28516.0625-.28515.01953-.28125-.04296-.38282-.1172-.34765-.1914-.3086-.25-.26172-.30078-.21093-.34766-.16016-.3789-.09766-.40625-.03515-.4375.03515-.39453.09766-.35547.16406-.30469.23438-.25.30469-.1836.375-.11718.4453-.03906.51954"/><path fill="#ffffe0" fill-rule="evenodd" d="M350.6211 335.02344h22.17968v-10.19531H350.6211v10.1953"/><path fill-rule="evenodd" d="M354.1211 326.66406h.5078v6.29297h-.78515v-4.48828h-1.39063v-.55469l.5586-.0664.2539-.0547.23047-.08983.20313-.14063.17187-.21094.14454-.29297.10546-.39453m4.8125 0l.23047.01953.21875.0547.20703.08983.19532.1211.18359.14844.17188.17578.30468.41797.24219.49609.17969.54688.10937.57812.03906.58984-.03906.59375-.10937.58594-.17969.55078-.24219.5039-.30469.42579-.17187.17969-.1836.15625-.1953.1211-.20704.09374-.21875.05469-.23047.01953-.23046-.01953-.21875-.05469-.20704-.09375-.1953-.1211-.1836-.15624-.17188-.17969-.30469-.42578-.24218-.5039-.17969-.55079-.10938-.58594-.03906-.59375h.83203l.03125.5625.07813.50782.1289.4414.16016.375.1914.30078.21094.22266.22266.13672.22656.04687.22657-.04687.22265-.13672.21094-.22266.1914-.30078.16016-.375.1289-.4414.08204-.50782.02734-.5625-.02734-.5625-.08203-.5-.1289-.43359-.16016-.36719-.19141-.29297-.21094-.21093-.22265-.13282-.22657-.04687-.22656.04687-.22265.13282-.21094.21093-.1914.29297-.16017.36719-.1289.4336-.07813.5-.03125.5625h-.83203l.03906-.58985.10938-.57813.17969-.54687.24219-.4961.30468-.41796.17188-.17578.1836-.14844.1953-.1211.20704-.08984.21875-.05469.23046-.01953m5.08985 0h.51172v6.29297h-.78907v-4.48828h-1.38671v-.55469l.55859-.0664.2539-.0547.22657-.08983.20703-.14063.17187-.21094.14063-.29297.10547-.39453m6.80469 1.61719h-.78516l-.05078-.21094-.08203-.1875-.10938-.15625-.1289-.13281-.14844-.10156-.15625-.07422-.17188-.04688-.17187-.01562-.32813.04297-.28515.1211-.2461.1953-.20312.26563-.16016.33984-.11719.40235-.0703.46875-.02345.52734.1875-.20313.1875-.16015.1836-.1211.1875-.08984.1875-.0586.1914-.03906.40235-.02343.3086.03125.3203.08984.3125.15625.29688.21875.2539.28516.19922.35156.07422.19922.05078.21875.03125.23437.00391.25-.78906.04688-.02735-.25781-.07421-.25-.125-.23438-.16016-.21094-.1914-.17968-.22266-.13672-.23829-.08594-.2539-.03125-.25781.03125-.23829.08594-.21875.13672-.1953.17968-.16016.21094-.1211.23438-.07812.25-.02735.2578.02735.26173.07812.25.1211.23437.16015.21094.19531.17578.21875.13672.23829.08984.2578.03125.25392-.03125.23828-.08984.22265-.13672.1914-.17578.16017-.21094.125-.23437.07421-.25.02735-.26172.78906-.04688-.03125.3711-.09375.375-.15625.35547-.22266.32812-.28906.28516-.17187.11719-.1875.10156-.20704.08203-.22265.0625-.24219.03906-.25781.01172-.28516-.01563-.25781-.04687-.23828-.07422-.21875-.10547-.1914-.13281-.17579-.15625-.15234-.17969-.13672-.20312-.11719-.22266-.09765-.24219-.14844-.53125-.08594-.59375-.02344-.64062.03516-.7461.11719-.66015.18359-.57813.1211-.2578.13671-.23048.15235-.20703.17187-.17969.1875-.15625.19922-.1289.21875-.10156.23438-.07422.24609-.04297.26172-.01563.36719.03125.33203.09766.29687.15234.2539.19922.21094.23828.16797.27735.11329.30078.0625.32031"/></g></defs><use xlink:href="#aB"/></svg>