<svg xmlns="http://www.w3.org/2000/svg" role="img" xmlns:xlink="http://www.w3.org/1999/xlink" viewBox="142.45 309.95 326.84 171.84"><defs><clipPath id="a"><path d="M144 311.67188h1v168.65625h-1zm0 0"/></clipPath><clipPath id="b"><path d="M144 311.67188h324v168.65625H144zm0 0"/></clipPath><clipPath id="c"><path d="M467 311.67188h1v168.65625h-1zm0 0"/></clipPath><clipPath id="d"><path d="M144 479h4v1.32813h-4zm0 0"/></clipPath><clipPath id="e"><path d="M147 480h2v.32813h-2zm0 0"/></clipPath><clipPath id="f"><path d="M153 479h9v1.32813h-9zm0 0"/></clipPath><clipPath id="g"><path d="M160 480h2v.32813h-2zm0 0"/></clipPath><clipPath id="h"><path d="M166 479h9v1.32813h-9zm0 0"/></clipPath><clipPath id="i"><path d="M173 480h3v.32813h-3zm0 0"/></clipPath><clipPath id="j"><path d="M172 480h2v.32813h-2zm0 0"/></clipPath><clipPath id="k"><path d="M180 480h8v.32813h-8zm0 0"/></clipPath><clipPath id="l"><path d="M187 480h2v.32813h-2zm0 0"/></clipPath><clipPath id="m"><path d="M186 480h2v.32813h-2zm0 0"/></clipPath><clipPath id="n"><path d="M193 480h9v.32813h-9zm0 0"/></clipPath><clipPath id="o"><path d="M200 480h3v.32813h-3zm0 0"/></clipPath><clipPath id="p"><path d="M199 480h2v.32813h-2zm0 0"/></clipPath><clipPath id="q"><path d="M206 479h9v1.32813h-9zm0 0"/></clipPath><clipPath id="r"><path d="M213 479h3v1.32813h-3zm0 0"/></clipPath><clipPath id="s"><path d="M212 479h2v1.32813h-2zm0 0"/></clipPath><clipPath id="t"><path d="M220 479h8v1.32813h-8zm0 0"/></clipPath><clipPath id="u"><path d="M227 479h2v1.32813h-2zm0 0"/></clipPath><clipPath id="v"><path d="M233 479h8v1.32813h-8zm0 0"/></clipPath><clipPath id="w"><path d="M240 479h3v1.32813h-3zm0 0"/></clipPath><clipPath id="x"><path d="M246 479h9v1.32813h-9zm0 0"/></clipPath><clipPath id="y"><path d="M253 479h3v1.32813h-3zm0 0"/></clipPath><clipPath id="z"><path d="M260 478h8v2.32813h-8zm0 0"/></clipPath><clipPath id="A"><path d="M266 478h4v2.32813h-4zm0 0"/></clipPath><clipPath id="B"><path d="M273 478h8v2.32813h-8zm0 0"/></clipPath><clipPath id="C"><path d="M279 478h4v2.32813h-4zm0 0"/></clipPath><clipPath id="D"><path d="M287 478h7v2.32813h-7zm0 0"/></clipPath><clipPath id="E"><path d="M292 478h2v2.32813h-2zm0 0"/></clipPath><clipPath id="F"><path d="M300 478h8v2.32813h-8zm0 0"/></clipPath><clipPath id="G"><path d="M305 479h3v1.32813h-3zm0 0"/></clipPath><clipPath id="H"><path d="M313 478h8v2.32813h-8zm0 0"/></clipPath><clipPath id="I"><path d="M319 479h2v1.32813h-2zm0 0"/></clipPath><clipPath id="J"><path d="M328 476h5v4.32813h-5zm0 0"/></clipPath><clipPath id="K"><path d="M342 476h3v4.32813h-3zm0 0"/></clipPath><clipPath id="L"><path d="M355 476h4v4.32813h-4zm0 0"/></clipPath><clipPath id="M"><path d="M368 476h4v4.32813h-4zm0 0"/></clipPath><clipPath id="N"><path d="M379 479h9v1.32813h-9zm0 0"/></clipPath><clipPath id="O"><path d="M393 478h8v2.32813h-8zm0 0"/></clipPath><clipPath id="P"><path d="M409 476h2v4.32813h-2zm0 0"/></clipPath><clipPath id="Q"><path d="M421 477h6v3.32813h-6zm0 0"/></clipPath><clipPath id="R"><path d="M433 477h7v3.32813h-7zm0 0"/></clipPath><clipPath id="S"><path d="M448 476h4v4.32813h-4zm0 0"/></clipPath><clipPath id="T"><path d="M459 479h9v1.32813h-9zm0 0"/></clipPath><clipPath id="U"><path d="M465 479h3v1.32813h-3zm0 0"/></clipPath><clipPath id="V"><path d="M144 466h4v2h-4zm0 0"/></clipPath><clipPath id="W"><path d="M466 465h2v3h-2zm0 0"/></clipPath><clipPath id="X"><path d="M144 452h4v3h-4zm0 0"/></clipPath><clipPath id="Y"><path d="M466 451h2v3h-2zm0 0"/></clipPath><clipPath id="Z"><path d="M144 439h4v3h-4zm0 0"/></clipPath><clipPath id="aa"><path d="M465 437h3v2h-3zm0 0"/></clipPath><clipPath id="ab"><path d="M144 425h4v4h-4zm0 0"/></clipPath><clipPath id="ac"><path d="M465 424h3v2h-3zm0 0"/></clipPath><clipPath id="ad"><path d="M144 412h4v3h-4zm0 0"/></clipPath><clipPath id="ae"><path d="M465 410h3v2h-3zm0 0"/></clipPath><clipPath id="af"><path d="M144 397h3v6h-3zm0 0"/></clipPath><clipPath id="ag"><path d="M466 398h2v2h-2zm0 0"/></clipPath><clipPath id="ah"><path d="M144 384h3v6h-3zm0 0"/></clipPath><clipPath id="ai"><path d="M465 384h3v2h-3zm0 0"/></clipPath><clipPath id="aj"><path d="M144 371h4v6h-4zm0 0"/></clipPath><clipPath id="ak"><path d="M465 371h3v2h-3zm0 0"/></clipPath><clipPath id="al"><path d="M144 358h4v5h-4zm0 0"/></clipPath><clipPath id="am"><path d="M466 358h2v2h-2zm0 0"/></clipPath><clipPath id="an"><path d="M465 358h3v3h-3zm0 0"/></clipPath><clipPath id="ao"><path d="M144 345h4v4h-4zm0 0"/></clipPath><clipPath id="ap"><path d="M466 346h2v3h-2zm0 0"/></clipPath><clipPath id="aq"><path d="M144 332h4v4h-4zm0 0"/></clipPath><clipPath id="ar"><path d="M466 332h2v3h-2zm0 0"/></clipPath><clipPath id="as"><path d="M465 332h3v3h-3zm0 0"/></clipPath><clipPath id="at"><path d="M144 317h3v7h-3zm0 0"/></clipPath><clipPath id="au"><path d="M465 317h3v3h-3zm0 0"/></clipPath><clipPath id="av"><path d="M268 470h10v10.32813h-10zm0 0"/></clipPath><g id="aw" clip-path="url(#clip1)"><path fill="#fff" fill-opacity="0" fill-rule="evenodd" d="M0 0h1000v1000H0zm0 0"/><path fill="#d3d3d3" fill-opacity="0" fill-rule="evenodd" d="M162.15234 355.86719l-.23437.29297.0586.23437.11718.17188.17578.23437.29297.34766.11328.0586.11719-.17188.0586-.23438.17577-.17578.46485-.17578h.69922l.23437.29297.28906.8164.0586.17579.17578.23046.35156.23438.69922.69922.17188.17578.23437.34765.23438.41016.28906.58203.41015.46485.23047.23437.23438.17578.11719.23047.17578.29297.17187 1.16406v.23438l.0586.28906.05859.11719.11719.11719.34765.41015.11719.17188.17578.17578.17578.23437.11719.17188.17188.35156.05859.23438.23437.40625.23438-.0586-.17578.17578-.0586.92969h-.58203l-.23437-.11328-.34766.11328-.11719.11719-.05859.29297-.0586.17578-.11718.17187-.46484.29297-.0586.23438-.0586.11328v.64453l.0586.17187v.41016l.0586.0586v.40624l.05859.40625.11719.17579.05859.05859.23047.64062-.0586.29297v.69922l-.05859.58203v.23438l-.0586.23047-.05468.35156v1.92187l.05469.1172h.42578l-.36719.11718-.02344.35156.89063 1.16797 1.74219.53906 1.33984.35938v.53906l.08984.8086.53516.71484 1.51953.26953.89063-.08594.08984 1.16406.53516.1797 1.16015-.1797 2.05469-.98437 1.16016-.36328 1.8789-.17578 1.69531-.1797-.17968.71876-1.51563.08594-1.25.08984-.80469.26953-1.07421.8086.26953.71875.53515.89843-.17968.625-.26563.8086.26563 1.07812.625.89844.80468.17969 1.25-.1797-.26562.72267.09766.5039.05468.29297v.17188l.0586.29296v.40625l.17578.1172.35156.11718h.40625l.29297-.17578.11328-.11719.0586-.11719.11718-.23047.0586-.17578.35156-.46484.23047-.17578.17578-.0586.17578.0586.0586.17578.11718.98828.05469.46875.0586.17188.11718.23437.17578.0586.8164.05859h.28907l.11719.23437.05859.40625.0586.35156v1.10547l.11718.29297.11719.34766.28906.69922.17578.35156.58203.7539.35157.17579.17187.0586.46875.23437.64063.46484.34765.23438.29297.17578.29297.05468.23047.0625.8164.34766.29297.17578.11328.17188.35157.35156.11719.17578.52343.64063v.28906l.0586.35156v.34766l.05859.35156.0586.28906.11718.0586.17188.05859h.17578l.58203.23437.17578.1172.17578.28905.17578.23438.11328.23437.29297.23047.11719.11719v.41016l.0586.05468.28906.23438.23437.11719.0586.11718.11718.17188.0586.11719.23047.23437.05859.17578.23437.0586.1172.05859-.1172.11328-.05859.11719v.11719l-.11719.29296-.11719.28907v.58203l.17579.11719.11718.05859.0586.11719.11719.11719.11328.05859.17578.34765.0586.35157.05858.40625v.17578l-.05859.17578-.11719.69922v.17187l.1172.17579.29296.29296h.40625l.17578.1172.11719.17187.11719.29296v.23438h-.52735l-.23047-.23438h-.23437l-.17578.0586-.0586.69922.0586.34765.11719.17579.17578.41015.11718.23047.28907.46875.17578.05469h.52344l.23437.0586.75781.64062.0586.29296v.23438l.05859.0586.23047.34765v.35156l-.11719.17188v.29297l.29297.28906.29297.17578.17187.0586.29297.17577.29297.1172.58203.40624.28906.23438.29297.17578.21875.16015.01563.01172.23047.17579.64062.52343.17578.23438.1172.17578.17577.17578.11328.17188v.64062l.1172.17578.46874.11719.58203.11719.23438.05859.23047.11328.29297.11719.11328.0586.58593.35156.28907.17187.17578.0625.17578.05469.17578.0586.69922.35155.28906.17579.23438.05468.28906.17578.23437.1172.64063.40624.29297.11719.17187.0586.23438.05859.41015.05859.23047.0586.23438.11718.0586.17188-.41017.17578.46875.0586.0586.29296.11328.23438.17578.05468.23438.0586.17578.05859.40625.11719.64062.23437.11719.17188.0586.23437v.17578l-.0586.1172-.0586.40624.23438.23438.11719.05859.34766.11719.64062.23047.17578.11718.28906.1172.17578.17577.23438.46485.58203 1.10546.17578.17579.34766.17578.17578.11719.35156.11718 1.04688.52344.23437.0586.46485.11327.29297.0586.46484.17578.75781.58203.23438.23438.34765.46484.17578.17578.28907.23438.8164.69921.29297.17579.28906.28906.29297.17578.29297.28906.69531.64063.17578.17578.29297.23437.28907.23438.46875.28906.64062.58203.34766.23438.23437.29297.34766.34765.35156.46485.9336.99218.34765.40625.11719.17579.23437.05859.11328.11719.64454.17578.23047.11328.23437.0586.29297.17577.23047.1172.9336.69921.40624.40625.23438.17578.40625.17578.23437.11719.8164.34766.34766.23437.23438.11719.29297.28906.23047.11719.7578.35156.35157.17188.23047.05859.29297.11719.23437.0586.8711.17577h.8164l.46875.23047.17188.0586.875.69921.46484.1172.29297.05858.17578.0586.23047.0586.46875.05859.34766.05859.35156.0586.40625.05859h.29297l.17187.0586v.23046l.17578.17578h.29297l.34766.0586.35156.05859.69922.11719h.64063l.46484-.23438.29297-.17578.17187-.11719.41016-.17187.28906-.17578.9336-.46485.46875-.29297.52343-.29296.46485-.17188.46484-.17578 1.05078-.46485.28906-.11718.41016-.11719.28906-.11719.52735-.17578 1.51562-.69922.58203-.34765.28907-.0586.29297-.0586.34765-.11718.875-.23047.35156-.11719h.11329l.23437-.05859.875-.23437.23438-.0586h.8125l.35156-.0586.8164-.11718.17188-.0586.35156-.05468.29297-.0586.23047-.05859.8164-.17578.17579-.0586h.34765l.23438-.05859.46484-.11718.75781-.17188.23438-.0586h.34765l.41016-.11718.28906-.0586 1.28516-.05859h.28906l.41016-.0586.23047-.05858h.17578l.875-.1172h.40625l.41015-.11718h.34766l.35156-.11328.8711-.0586h1.75l1.04687.28907.41016.11719.28906.11718.35156.11719.28907.11719 1.05078.17187.28906.0586h.29297l.29297.05859.17187.0586.41016.05859.17187.0586.1172.05858h.11718l.11719.0586.35156.0586h.11328l.41016.0664 1.92187.39453 1.92578.39453 1.51953.44922 1.69532.71875 2.14453.80469 1.60547-.71875 1.42968-.80469 1.16016-1.07813 1.25-.44921 3.03516-.71875 1.875-.35938 2.14453-1.34765 2.23437-1.25391 2.5-1.25781 1.69531-.44922 1.78516-.17969 1.16016-.26953.625.53906 1.33984-.26953.71485-.98828.98437-1.34375.44531-.17969.80469-.35937 1.875-.53907 1.78516-.44921 1.25-.26954 1.16015-.08984 1.69922-.08984 1.96094-.26954 1.25-.08984h.53906l.625-.08984h.89063l2.14453-.17969 2.41015-.17969 2.58985-.08984 1.69531.17969 1.60938.08984 1.42968.35938 1.16016.71875 1.875.98828 1.16015 1.52734.26563.71484.6289.08985.35548.89844.53515.53906.53516 1.52734 1.07422.35938h.53515l-.80469.53515.08985 1.70703.71484 2.69532.89063.80468.89453.98829.71484 1.2578 1.78516.53907 1.51953-.17969.35547 1.34375 1.60937-.80469.98047-.53906.26953.26953.31641-.21484.21875-.14453.80078.44922.44922-.35938h.35547l.53515-.26953.53907-.71875.53515-.26953.625-.98828 1.16016.44922.83984.3711 1.39454.61718 1.6953-.17969h1.60548l1.78515.08985.17969-1.70704.53516-1.34375.80468.26954.4922.84765.40233.40625-.08984.53906v.35938l.71485.44922.71093-.26953h1.42969l.35938.98828.4453 1.25781.71485 1.34375 1.25.6289 1.69531.62891.71485-.17969.17969-.53906.98046-.08984.44922.35937.08594 1.25782-.26563.6289-.53515.17969v.53906l.71484.98438.26563.53906.98437.98828.80078 1.07813-.26562.35937-.08985.89844-.625 2.33203-.35546 2.0664-.08985 1.79298-.17969.71875-.08984.53906v1.4375l-.98047 1.88281-.35937 1.70703-.53516.89844-.80469 1.16797-.26562.53906 2.05469 1.2539.08593.35938-.35546.53906-.08985-.17968v.80859l.08985 1.4375-.44532.71484-1.07422.09375-.26562.71485.53515.89844.8047.71875 1.16015.80859 1.33984.26953.44531.35938-.35546.44921-1.78907-.08984-1.25-.44922-.71484-.71875-.625-.08984-.17578 3.58984-.1875 1.3086h89.35937V311.70313h-55.26953v49.08203l.76172.125 3.28906.54296 2.02344 2.83594v2.7539l2.35156.33204 2.34766.33203h4.05078l-1.3789 4.16016-2.02344.70703-2.02344.70312-.54297.34375-2.59375 1.6172-.1875.11718-2.02344-2.07813-.73046-2.74218-2.67188-2.07813-1.375-3.5-.0664-.08203-1.95704-2.67188 2.75-1.41796v-49.08204H294.42187v91.41407l.1172.03125.1328.01172.07422.07421.10547.04688.08985.0586.08593.05859.08985.0586.29687.29687.0586.08984.03125.11719.02734.11719.01563.13671-.03125.1172-.0586.08983-.0586.08594-.04296.10547-.04688.10156-.02734.1211v.14453l.17578.26953.14844.14844.07422.08594.07422.07421.04296.10547.0625.08985.0586.08593.04297.10547.0586.08985.04687.10156.04296.10547.0586.08594.11719.17968.07421.07422.0625.08594.0586.08984.04297.10547.0586.08985.05858.08593.0625.08985.0586.08984.04297.10156.11719.17969.07421.07422.0586.08594.07422.07421.08984.0586.10547.04687h.14844l.1328-.01562.13282.01562.10156-.04687.07422-.07422.04688-.10156-.01563-.13281v-.14844l-.04687-.10547-.02735-.11719-.04687-.10156-.02735-.1211-.04296-.10156-.0625-.08984-.04297-.10156-.04297-.10547-.03125-.11719-.01563-.13281-.01171-.13672.08593-.0586.0586-.08593.12109-.03125.04297.10547.01562.1328v.1172l.0586.10156.0586.08984.08983.0586.14844.14843.0586.08985.04296.10547-.01171.10156.08593.0586.10547.04687.08594.0586.08984.05858.07422.07422-.11719.02735-.10546.04687-.08594.0586-.07422.07421-.0586.08985-.0625.08594-.02734.12109-.04687.10156-.04297.10547-.03125.11719-.01172.13281-.01563.13281v.14844l.02735.11719.04687.10547.04297.10156.0586.08984.07421.07422.08985.0586.07422.07421.08984.0586.0586.08984.04296.10547.04688.10156.11719.03125.1328.01563h.14845l.11718-.03125.10547.04297.04297.10547.04688.10156.02734.1211L299.5 410l.02734.11719.03125.1211.02735.11718.10547.04297.10156.04687.13281-.01562.14844.14844.0625.08593.07422.07422.07031.07422.08984.0625.10547.04297.10156.04297.1172.03125.13671.01562.11719-.03125.07422-.07422.02734-.11718-.01172-.13282-.03125-.12109-.02734-.11719.04297-.10547h.11719l.08984.0625.11719.02735h.14843l.13282.01562h.14843l.13282.01563.1328-.01563h.14845l.1328-.01562.13282-.01172.13672.01172.11719-.02735.13281-.01562.1914-.0586-.05859.17579-.01562.1328-.02735.1211-.01562.13281-.0586.08594-.1328.01563-.10548.04687-.10546.04297-.1172.03125-.11718.02735-.26563.03125h-.14843l-.13281.01562-.07422.07422.05859.08594.14844.14843.11719.1797.07421.0703.08985.0625.08984.0586.08594.0586.08984.05858.10156.04297.10547.0625.10547.04297.08594.0586.10547.04687.10156.04297.17969.11719.0586.08984-.04298.10156-.04687.10547.01562.13281.22266.22266.0586.08985.04296.10156.03125.1211.04297.10155.01563.13282.03125.11718.01171.13672.03125.11719.14844.14844.10156.04297.10547.04296.1172.03125.1328.01563.13672.01563h.11719l.11719-.03125.08984-.0586.04297-.10547.04688-.10156.04296-.10547.03125-.11719.01172-.1328v-.14845l-.01172-.1328-.01562-.13282-.03125-.11719-.04297-.10547-.04688-.10547-.04296-.10156-.04297-.10547-.01563-.13281.01563-.13281.02734-.11719.03125-.11719.02735-.1211.04687-.10155.08984-.0586.08594-.0625.07422-.07422.08984-.05859.22266-.22266.0586-.08593.07421-.07422.11719-.17969.0586-.08594v-.14844l-.07423-.07421-.10156-.04688-.10547-.04297-.10156-.04297-.0586-.08984-.04687-.10547-.02734-.11719.08984-.05859.11719-.03125.10156-.04297.17969-.11719.14844-.14843.01172-.13282-.01172-.10546-.08985-.0586-.1328.01563h-.14845l-.1328.01562-.13282-.01562-.1211-.03125-.08593-.0586-.07422-.07422-.0586-.08984-.0625-.08594-.11718-.17969-.0586-.08593.03125-.1211.08594-.05859.1211-.03125.05859-.08594v-.1211l-.03125-.11718-.0586-.08984-.05859-.08594-.04687-.10547-.02735-.11719-.01562-.1328.0586-.08985.07421-.07422.08984-.0586.1172-.17968.07421-.07422.0586-.08594.14843-.14844.1211-.03125.1328-.01562.13282.01562.07422.07422.04297.10547.01562.13281-.03125.1172-.11719.03124-.1328.01172-.14844.14844-.04297.10547-.04688.10156-.02734.1211-.03125.11718v.14844l.03125.11719.04297.10546.05859.08985.07422.07031.07422.07422.11719.03125.12109.02734.11719-.02734.1328-.01563h.1172l.08984.0586.07422.07422.04687.10546.0586.08594.10156.04688.13281.01562.10547.04297.08594.0586-.01172.10546-.07422.07422-.17969.11719-.05859.08984-.08984.0586-.07032.07422-.07421.07421-.0625.08985-.02735.11719-.01562.1328.01562.13282-.01562.13281v.14844l.01562.13281.02735.1172.03125.12108.07421.07422.08985.0586.08594.0586.08984.05858.11719.03125v.08594l-.10157.04688-.08984.0586-.26563.03124-.11718.02735h-.14844l-.10547.04296-.10156.04688-.0586.08984-.0625.23438-.01171.13281-.03125.1211-.01563.1328v.29298l-.01172.1328.01172.13673.01563.1328.1328.01563.13282.01172.1211.03125.08593.0586.07422.07421.04688.10547.04296.10157.01563.1328v.44532l-.01563.13281v.44532l.03125.26562.02735.11719.01562.13281.03125.11719.08594.21094.03125.26562v.14844l-.03125.11719-.02734.11718-.03125.1211-.02735.11719-.03125.11718-.03125.1211-.01171.1328-.01563.13282.08984.0586.1172-.03125.10155.01562.04688.10547-.03125.26562v.44141l-.04297.10547-.04688.10547-.04296.10156-.04297.10547-.0586.08594-.03125.12109-.04296.11719-.03125.11719-.01563.1328.01563.13282.05859.08984.10547.04688.08594.0586.05859.08593-.01172.13672-.03125.11719-.04297.10156v.44531l-.01562.13281v.14844l-.03125.11719-.04297.10547-.02735.11719-.04687.10546-.04297.10157-.03125.12109-.02734.11719-.03125.13281-.03125.11719-.02735.11719-.04297.10546-.03125.1172-.03125.12108-.01171.13282-.01563.13281v.29688l.02734.11718v.14844l.04688.39844.02734.11719.0586.08984.12109.03125h.14844l.13281-.01563.0586.08985v.11719l-.0586.08984-.08984.0586-.10157.04296-.10546.04688-.08985.05859-.08594.0586-.13671.01562-.1172-.03125-.1328-.01563-.10157.04688-.0625.08594-.01172.13671-.01562.13282-.03125.11719-.02735.11718-.01562.13281-.03125.1211v.29687l.01563.13282.03125.11718v.14844l.01171.13281v.14844l-.02734.11719-.04688.10156-.02734.1211-.03125.11718-.0586.08985-.07421.07421-.10156.04297-.10547.04688-.11719.02734-.1211.03125-.10156-.04687.0586-.08594.10547-.04688.02734-.11718.03125-.11719.02734-.1211.03125-.11718v-.14844l.01563-.13281-.03125-.11719-.04297-.10547-.10547.01563-.07422.07422-.10156.04296-.08984.0625-.07422.07422-.04297.10157-.01563.1328-.03125.1172L304.25 426l-.03125.11719-.02734.11719-.03125.12109-.02735.11719-.03125.11718-.04297.10547-.08984.0586h-.08984l-.1172-.03125-.03124-.08594.01562-.13672-.03125-.11719v-.14844l-.01171-.1328v-.14844l-.0625-.23438-.02735-.1211-.04297-.10156-.04687-.10546-.0586-.08594-.05859-.08985-.04297-.10546-.0625-.08594-.14844-.14844-.0703-.07422-.10548-.04687-.10547-.04297-.10156-.04297-.29687-.29688-.08985-.07421-.08594-.0586-.10546-.04297-.08985-.0625-.08594-.0586-.10546-.04296-.08985-.0586-.08594-.0625-.07421-.0703-.10547-.04688-.08594-.0586-.10547-.04296-.08984-.0625-.10156-.04297-.10547-.04297-.08594-.0586-.10547-.04687-.10547-.04297-.10156-.04687-.08985-.0586-.10156-.04297-.10547-.04296-.08984-.0625-.11719-.02735-.13281-.01562-.13281.01562H299.75l-.13281.01563-.11719-.03125-.08984-.0586-.07422-.07422-.08985-.05859-.10156-.04688h-.14844l-.12109-.02734-.10156-.04297-.07422-.07422-.11719-.17968-.08984-.0586-.10156-.04297-.08985-.0625-.10547-.04296-.08984-.0586-.08594-.0586-.10547-.04687-.0586-.08594-.05858-.08984-.04297-.10547-.04688-.10156-.07422-.07422-.08594-.0586-.07421-.07421-.08985-.0586-.22265-.22265-.04297-.10547-.03125-.26563.10547-.04296h.14453l.10547.04296.07421.07422.08985.0586.08594.0586.10546.04687.08985.05859.14844.14844.0703.07422.14845.14843.0625.08594.07421.07422.08594.0586.07422.07421.08985.0625.08984.0586.08594.05859.26953.17578.10156.04688.10547.04296.10156.04297.04688-.07421.05859-.08594.07422-.07422.07031-.07422.10547.04297.07422.07422.0586.08984.04296.10156.04688.10547.04296.10547.1211.02735.11719-.02735.07421-.08984.04297-.10547.0586-.08985.07422-.07421.10546-.04297.1172-.02735.1328.01172.08985.0586.14844.14843.05859.08985.04297.10547.04687.10156.04297.10547.04297.10156.10547.04688.10547.04296.13281.01563.08594-.0586.0586-.08984.07421-.07422.10547-.04297.11719.02735.10547.04687.10156.04297.10547.04297.10156.04688.17969.11718v.11719l-.01563.13281.01563.13281.01562.13672.0586.08594.10156.04688.1211.02734.11718.03125h.14844l.11719-.03125.05859-.08984.17969-.1172.05859-.08983.07422-.07422.0586-.08594.11718-.17969.17969-.11719.11719.03125.08984.0586.04297.07422-.01563.1328v.1172l.08985.05859h.14843l.13282-.01563.1328-.01171.26563-.03125.10547-.04297.11719-.03125.1211-.02735.07421-.07421.07031-.07422.0625-.08985-.01562-.10547-.04688-.10156-.10156-.04297-.10547-.01562-.11718.02734-.26563.03125h-.14844l-.07421-.07422-.08985-.0586-.11719-.03124-.11718-.02735-.13282-.01562h-.14843l-.13282.01563h-.29687l-.10547-.04688-.14844-.14844-.04297-.10156-.05859-.08984.22266-.22266.08593-.0586.10547-.04296.11719-.03125.13281-.01563.13281.01563.13672.01562.10157.04297.1328-.01172.08985-.0625.10156-.04297.0625-.08984-.04687-.10156-.08984-.0586-.1172-.03125-.10155-.04296-.0586-.08985-.0625-.08984v-.11719l.01563-.13281.10547-.04688.07421-.07031v-.1211l-.08984-.05859-.03125-.11719.08985-.05859.07421-.07422.04297-.10547.0586-.08984.04687-.10156.01563-.13281v-.14844l-.04688-.10547-.04297-.10156-.08984-.0586-.13281-.01562-.10157-.04297-.13671-.01563-.1172-.03125h-.4453l-.13282-.01562-.13281-.01172-.13281-.01563-.11719-.03125h-.14844l-.13281-.01562-.13281-.01172-.26563-.03125-.1211-.04297-.08593-.0586-.07422-.07421v-.14844l.01172-.13281.10547-.04688.10156-.04296.13281-.01563h.15235l.13281-.01562h.29297l.1211.03125.10156.04296.08984.0586.23438.0625.12109-.04688.08984-.05859.10156-.04297.13282-.01562.10547.04296.10156.04688.13281.01172.1211-.02735h.14453l.12109-.03125.11719-.02734.10547-.04687.07421-.07422.08594-.0586.14844-.14843.0586-.08594.04687-.10547.02734-.11719.01563-.10547-.10156-.04296-.08985-.0586-.11719-.03125-.10546-.04297-.08985-.0625-.07422-.08594-.07422-.07421-.10156-.04297-.10547-.04688-.10156-.04297-.0586-.08984-.04687-.10156-.08594-.21094-.0625-.08594-.05859-.08984-.07422-.07422-.08594-.0586h-.26953l-.11719.03126-.08984.05859-.10156.04297-.13281.01562-.10547-.01562-.02735-.11719-.0625-.08984-.11718-.03125-.10157-.04297-.14843-.14844-.03125-.11719-.01563-.10546.07422-.07422.17969-.1172.11719-.02733.11718-.03125.13672.01562.10156.04297.10547.04297.10156.04687.10547.04297.1172.03125.1328.01563.1172.02734.1328.01563.10547-.01563.08985-.0586-.07422-.07421-.10547-.04297-.07422-.07422-.07422-.08984-.14844-.14844-.08593-.0586-.08985-.05859-.07422-.07422-.08984-.0586-.10156-.04687-.1211-.02734-.10156-.04688-.10547-.04296-.11719-.03125-.10156-.04297-.1211-.03125h-.14843l-.11719.03125-.10546.04297-.08594.0625-.17969.11718-.08594.0586-.08984.0586-.10547.04687-.08594.05859-.10547.04297-.10156.04297-.10547.04687-.07422.07422-.05859.08985-.0586.08593-.04687.10547-.0586.08594-.07421.07422-.13281-.01172-.1172-.03125h-.11718l-.07422.07422-.08984.0586-.07422.07421-.08984.0586-.08594.05859-.10547.04687-.10156.04297-.13672.01563-.10156-.04297-.14844-.14844-.10547-.04688h-.08594l-.10547.04688-.10156.04297-.1211.03125-.11718-.03125-.07422-.07422v-.11719l.03125-.1211.07422-.0703.0586-.08985.07421-.07422.11719-.03125.10547-.04296h.29297l.13281-.01563.13672-.01563.10156-.04296.08985-.0586.10156-.04687.08984-.0586.13281-.01171.08985.05859.13281.01172.08984-.0586.08594-.05859.10547-.04297.08984-.0586.08594-.0625.08985-.05859.14843-.14843.0586-.08594.05859-.08985.10547-.04296.13281-.01563.11719.02735.1211.03125.05859-.0586.05859-.08984.03125-.26563.02734-.11719.10547.01172.13281.01563.10157-.04297.08984-.0586.0586-.08984.07421-.07422.0586-.08984.04687-.10156.01172-.13281-.01172-.13282-.04687-.10547-.14844-.14843-.0586-.08985-.05859-.08594-.04297-.10546v-.44532l.01563-.1328v-.14845l.01172-.1328-.0586-.0586-.08984.0586-.10156-.04298-.17969-.11719-.08594-.05859-.0625-.08984-.0586-.08985-.07421-.07421-.08594-.0586-.1211.03125-.10155.01172-.10547.04688-.08594.05859-.10547.04297-.14844.14844-.08984.05859-.08594.0586-.08984.0625-.10547.04296-.13281.01563v-.1211l.10547-.04297.11718-.03125.07422-.0703.04297-.10548v-.14844l-.02734-.11718-.14844-.14844-.13281-.01563h-.14844l-.11719.03125-.10547.04297-.10156.04297-.08984.0625-.11719.02735-.07422-.07422.01172-.13281-.04297-.10157-.04297-.10547-.08984-.05859-.11719.02734-.1211.03125-.11718.03125-.10156.04297-.1211.03125-.10156.04297-.10547.04297-.08984.0586-.10156.01562v-.11719l.01562-.13281-.0586-.08985-.07421.04297-.14844.14844-.0586.08985-.07421.07421-.04688.10547-.04296.10156-.07422.07422-.0586.08985-.07422.07422-.05859.08593-.07422.07422-.08984.0625-.07422.07031-.07422.07422-.10156.01563-.13281.01562-.10547-.04296v-.1211l.14843-.14844.04297-.10156.0586-.08984.04687-.10156.04297-.10547.0586-.08985.03124-.11719.04297-.10156.03125-.1211.02735-.11718.04687-.10547.04297-.10156.04297-.10547.07422-.07031.08984-.0625.08985-.0586.10156-.04296h.29687l.26563-.03125.10547-.04297-.07422-.07422-.11719-.03125-.10547-.04297-.08984-.0586-.10156-.04687-.08985-.0586-.10156-.04296-.10547-.04297-.08984-.0625-.08594-.0586-.10547-.04296-.10156-.04297-.1211-.03125-.11718-.03125-.10157-.04297L297.5 410.25l-.10156-.04297-.08985-.0586-.04296-.10546-.01563-.13281.10156-.04297.13281-.01563.13672.01563.13282-.01563.10156-.04297.0586-.08984.01562-.10547-.08985-.0586-.07421-.07421-.10157-.04297-.08984-.0586-.14844-.14843-.04297-.10547-.01562-.13281v-.29297l-.0586-.08985-.08984-.05859-.07422-.07422-.04297-.10547-.03125-.11718-.0586-.08985-.07421-.07422-.11719-.02734-.07422-.07422-.08984-.0586-.08984-.0625-.08594-.05859-.07422-.07421-.0586-.08594-.04687-.10547-.08594-.0586-.14843-.14843-.19532-.0586-.1328.01563-.10157.04297-.07422.07422-.04688.10156-.04296.10547-.0586.08984-.0586.08594-.29687.29687-.08984.0586h-.08594l-.0625-.08594-.04297-.10547.03125-.11719.0586-.08984.02734-.11719-.01172-.13281-.08984-.0625-.10547.04688-.11719.02734-.11719.03125-.26953.17578-.10156.04688-.11719.02734-.10546.04687-.08985.0586-.10156.04297-.0586-.08594-.04687-.10547.01563-.13281.04687-.10547.07031-.07422.07422-.07031.0586-.08985v-.14843l-.04297-.10547h-.23829l-.10156.04687-.03125.11719-.02734.11719-.03125.1211-.07422.04296-.13281.01563-.07422-.04688-.04297-.10156-.04297-.10547-.04687-.10156-.04297-.10547-.1211.03125-.10156.04297-.13281.01562-.11719.03125-.10547.04297-.08984.0586-.10156.04687-.1211.02734-.13281.01563-.10156-.04297-.0586-.08985-.04687-.10546-.04297-.10157-.04297-.10546v-.1172l.0586-.08984.08593-.05859.17969-.11719.10156-.04687.10547-.04297.10547-.0586.10156-.04296.08985-.0625.10156-.04297.10547-.0586.10156-.04687.08984-.0586.10547-.04296.10156-.04297.08985-.0625.10156-.04297.13672-.01563.11719.03125.10156.04297.1211.03125.10156.04297.10546.04688.10157.04296.10547.04297.10156.04688.10547.04297.10156.04297.10547.04687.08594.0586.10546.04296.1172.03125.10546.04297.10156.04688.08985.0586.10547.04296.10156.04297.10547.04687.11719.02735.10156.04687.1211.02735h.14843l.08594-.0586.01562-.10156.0586-.08984-.02735-.1172-.07422-.07421-.11719-.17969-.07421-.07422-.08985-.07421-.17969-.1172-.08593-.05859-.10547-.04296-.10156-.04688-.26954-.17578-.05859-.08985-.07422-.07421-.0586-.08985-.04296-.10156-.03125-.11719-.01563-.13672v-.5625l-.01171-.1328-.01563-.13282-.03125-.11719-.01562-.13281-.01172-.13281-.03125-.1211-.22266-.22265-.0586-.08594-.01562-.10547.03125-.11719.13281-.01562v-91.41406H172.9922v1.45312l-.0586.23438-.35156 1.05078-.17187.52343-.1172.34766-.17577.41016-.11719.17187-.23438.29297-.23046.0586h-.35157l-.11718.05859-.23047.40625v.29297l.11719.17578.23046.23047.1172.23437.64062.75781.29297.46485.17578.23437.23047.35156.23437.34766.64063.8164.17578.46485.17187.41016.11719.69531.17578.46875.11719 1.39844.0586.46484v.875l.11718 1.04688v4.78125l-.0586.46484-.35156 1.28125-.17578.52344-.11328.41015-.35156.9297L172.93359 336l-.23437.58203-.11719.17578-.17187.34766-.17578.40625-.35157.8164-.0586.29297-.11327.29297-.11719.28906-.0586.17579-.11718.875-.0586.40625-.05859.11718-.0586.17579-.05859.17187-.23047.52734-.11718.17188v.23437l-.11719.23438-.0586.17187-.17577.58594v.28906l-.0586.17579v.29296l-.0586.11329-.05859.52734v.17187l-.05468.23438v2.6211l-.17578.8164-.1172.17578-.17577.23438-.1172.17187-.11327.23438-.58594.93359-.23047.28906-.29297.46485-.17578.23437-.28906.35156-.35156.69922-.11328.23047-.17579.41016-.17578.23046-.40625.52735-.8164.69922-.29297.17187-.28906.23438-.17579.11719-.17578.17578-.52344.40625-.52734.17578-.17187.17578-.23438.05469-.64062.17578h-.75782m12.21094 31.02344l-1.07422.44921.35938.89454 1.25-.71485.44531-.53906-.98047-.08985"/><path fill="#d3d3d3" fill-opacity="0" fill-rule="evenodd" d="M201.50781 416.59766h-.89453l.44922.6289.98047.35938.80469-.08985.4453-.98828-.17577.08985-.71485-.35547-.89453.35547m154.6211 59.0703l-.0586-.52343v-.29297l.11328-.29297.0586-.23046.46875-.46875h.11328l.11719-.11329.11718-.05859h.17579l.23437-.0586h.34766l.23437.0586.11719.0586.23047.17187.0586.17578.11718.58203v.29297l-.11719.17578-.17187.28906-.17579.17579-.52734.52343-.23047.23438-.11719.0586h-.17578l-.11718-.0586-.40625-.29297-.17579-.11719-.11718-.0586-.0586-.11327-.05468-.1172m6.64062-10.95702l-.0586-.17188v-1.10937l.0586-.17188.17578-.0586.17188-.05858h.17578l.23437-.0586.1172.0586.05858.69921-.05859.17188-.11719.17578-.11718.0586-.23438.52343-.11328.0586h-.23438l-.05859-.1172m9.61328-14.39062l-.11719-.17578v-.69922l.29297-.875.1172-.17187.17577-.35156.11328-.23047.1172-.29297.35155-.75781.1172-.23047.17187-.23438h.17578l.11719-.0586h.64062l.11719.0586.23437.23438.17188.11328.35156.29297.11719.11718.11328.17579v.11328l.11719.05859.11718.11719v.69922l-.05859.17578v.23047l-.0586.17578-.34765 1.05078-.11719.23047-.11719.23437-.11718.0586-.23047.23437-.64063.28906h-.875l-.41015-.11718-.64063-.46485"/><path fill="none" stroke="#bebebe" stroke-linecap="round" stroke-linejoin="round" stroke-miterlimit="10" stroke-width=".5" d="M467.95703 311.69531H144.02734v168.625h323.9297v-168.625"/><g clip-path="url(#a)"><path fill="#fff" fill-opacity="0" fill-rule="evenodd" d="M144 475.89063v4.4375h.0039H144V311.67188h.0039H144v164.21875"/></g><g clip-path="url(#b)"><path fill="#fff" fill-opacity="0" fill-rule="evenodd" d="M144.0039 480.32813V311.67188h17.75v136.42968l-.1875 1.16016-1.22656 4.4375-2.32422 4.4375.35938 4.4375 3.3789 3.32422 4.4375-.32422 4.4375-.91016 4.4375-.32031 4.44141 1.25 4.10938-3.01953.32812-.40235 4.4375-1.6875 3.82422-2.34765.61328-4.28906.04688-.14844-.04688-.02344-.39062.02344-4.04688.24219-.67187-.2422-3.76563-1.5078-1.5625 1.5078-2.875.47267-4.4414 1.46484-4.4375 2.3164-4.4375-.91796-1.85938-3.33594 1.85938-2.53516 1.58984-1.90234-1.58984-1.10156-4.4375-.0586V311.67187h71.01172V433.2461l-2.65235 2.69922 2.65234 2.64063 2.69141-2.64063-2.6914-2.69922V311.67188h8.8789V439.5039l-.85937.8789.85937.91797.79297-.91797-.79297-.8789V311.67187H467.9961v168.65625H144.00391"/></g><path fill="#50fcfc" fill-rule="evenodd" d="M158.375 462.57422l-.35938-4.4375 2.32422-4.4375 1.22657-4.4375.1875-1.16016v7.20313l-2.14453 2.83203.60156 4.4375 1.54297 1.51953 4.4375-.71875 2.07422-.80078-2.07422-1.23438-1.82813-3.20312-2.60937-2.83203v-7.20313l4.4375.0586 1.58984 1.10156-1.58984 1.90234-1.85938 2.53516 1.85938 3.33594 4.4375.91796 4.4375-2.3164 4.4414-1.46485v1.77735l-3.01172 2.1875 1.50782 4.4375 1.5039.6914.9414-.6914 3.4961-4.28906.28906-.14844-.28906-.1914-4.4375-1.9961v-1.77735l2.875-.47265 1.5625-1.50781 3.76563 1.5078.67187.2422 4.04688-.2422.39062-.02343.04688.02344-.04688.14844-.61328 4.28906-3.82422 2.34765-4.4375 1.6875-.32812.40235-4.10938 3.01953-4.4414-1.25-4.4375.32031-4.4375.91016-4.4375.32422-3.37891-3.32422"/><path fill="#00e8fc" fill-rule="evenodd" d="M160.21094 462.57422l-.60156-4.4375 2.14453-2.83203 2.60937 2.83203 1.82813 3.20312 2.07422 1.23438-2.07422.80078-4.4375.71875-1.54297-1.51953m17.79297 0l-1.50782-4.4375 3.01172-2.1875 4.4375 1.9961.28906.1914-.28906.14844-3.4961 4.28906-.9414.6914-1.5039-.6914"/><path fill="#50fcfc" fill-rule="evenodd" d="M232.76563 438.58594l-2.65235-2.64063 2.65234-2.69922 2.69141 2.69922-2.6914 2.64063m8.8789 2.71484l-.85937-.91797.85937-.8789.79297.8789-.79297.91797"/><g clip-path="url(#c)"><path fill="#fff" fill-opacity="0" fill-rule="evenodd" d="M467.9961 480.32813H468V311.67188h-.0039H468v168.65625h-.0039"/></g><g clip-path="url(#d)"><path fill="none" stroke="#000" stroke-linecap="round" stroke-linejoin="round" stroke-miterlimit="10" stroke-width=".5" d="M147.4961 480.69922l-6.98829-.73828"/></g><g clip-path="url(#e)"><path fill="none" stroke="#000" stroke-linecap="round" stroke-linejoin="round" stroke-miterlimit="10" stroke-width=".5" d="M147.4961 480.69922l.91796 2.27344"/></g><g clip-path="url(#f)"><path fill="none" stroke="#000" stroke-linecap="round" stroke-linejoin="round" stroke-miterlimit="10" stroke-width=".5" d="M160.79688 480.80469l-6.96094-.95313"/></g><g clip-path="url(#g)"><path fill="none" stroke="#000" stroke-linecap="round" stroke-linejoin="round" stroke-miterlimit="10" stroke-width=".5" d="M160.79688 480.80469l.84765 2.30469"/></g><g clip-path="url(#h)"><path fill="none" stroke="#000" stroke-linecap="round" stroke-linejoin="round" stroke-miterlimit="10" stroke-width=".5" d="M174.14063 480.47656l-7.01954-.29687"/></g><g clip-path="url(#i)"><path fill="none" stroke="#000" stroke-linecap="round" stroke-linejoin="round" stroke-miterlimit="10" stroke-width=".5" d="M174.14063 480.47656l1.05859 2.21485"/></g><g clip-path="url(#j)"><path fill="none" stroke="#000" stroke-linecap="round" stroke-linejoin="round" stroke-miterlimit="10" stroke-width=".5" d="M173.11719 480.4336l.53125 1.10937"/></g><g clip-path="url(#k)"><path fill="none" stroke="#000" stroke-linecap="round" stroke-linejoin="round" stroke-miterlimit="10" stroke-width=".5" d="M187.45703 480.35547l-7.02344-.05469"/></g><g clip-path="url(#l)"><path fill="none" stroke="#000" stroke-linecap="round" stroke-linejoin="round" stroke-miterlimit="10" stroke-width=".5" d="M187.45703 480.35547l1.13672 2.17578"/></g><g clip-path="url(#m)"><path fill="none" stroke="#000" stroke-linecap="round" stroke-linejoin="round" stroke-miterlimit="10" stroke-width=".5" d="M186.4375 480.34766l.5664 1.08593"/></g><g clip-path="url(#n)"><path fill="none" stroke="#000" stroke-linecap="round" stroke-linejoin="round" stroke-miterlimit="10" stroke-width=".5" d="M200.77344 480.26953l-7.02735.11719"/></g><g clip-path="url(#o)"><path fill="none" stroke="#000" stroke-linecap="round" stroke-linejoin="round" stroke-miterlimit="10" stroke-width=".5" d="M200.77344 480.26953l1.1875 2.14453"/></g><g clip-path="url(#p)"><path fill="none" stroke="#000" stroke-linecap="round" stroke-linejoin="round" stroke-miterlimit="10" stroke-width=".5" d="M199.75 480.28516l.59375 1.07422"/></g><g clip-path="url(#q)"><path fill="none" stroke="#000" stroke-linecap="round" stroke-linejoin="round" stroke-miterlimit="10" stroke-width=".5" d="M214.07813 480.0664l-7.00782.52344"/></g><g clip-path="url(#r)"><path fill="none" stroke="#000" stroke-linecap="round" stroke-linejoin="round" stroke-miterlimit="10" stroke-width=".5" d="M214.07813 480.0664l1.3125 2.07423"/></g><g clip-path="url(#s)"><path fill="none" stroke="#000" stroke-linecap="round" stroke-linejoin="round" stroke-miterlimit="10" stroke-width=".5" d="M213.0586 480.14453l.65624 1.03516"/></g><g clip-path="url(#t)"><path fill="none" stroke="#000" stroke-linecap="round" stroke-linejoin="round" stroke-miterlimit="10" stroke-width=".5" d="M227.38672 479.99219l-6.99219.67187"/></g><g clip-path="url(#u)"><path fill="none" stroke="#000" stroke-linecap="round" stroke-linejoin="round" stroke-miterlimit="10" stroke-width=".5" d="M227.38672 479.99219l1.35547 2.04687"/></g><g clip-path="url(#v)"><path fill="none" stroke="#000" stroke-linecap="round" stroke-linejoin="round" stroke-miterlimit="10" stroke-width=".5" d="M240.70313 479.98438l-6.9961.6875"/></g><g clip-path="url(#w)"><path fill="none" stroke="#000" stroke-linecap="round" stroke-linejoin="round" stroke-miterlimit="10" stroke-width=".5" d="M240.70313 479.98438l1.35546 2.04687"/></g><g clip-path="url(#x)"><path fill="none" stroke="#000" stroke-linecap="round" stroke-linejoin="round" stroke-miterlimit="10" stroke-width=".5" d="M253.95703 479.59766l-6.8711 1.46484"/></g><g clip-path="url(#y)"><path fill="none" stroke="#000" stroke-linecap="round" stroke-linejoin="round" stroke-miterlimit="10" stroke-width=".5" d="M253.95703 479.59766l1.57813 1.8789"/></g><g clip-path="url(#z)"><path fill="none" stroke="#000" stroke-linecap="round" stroke-linejoin="round" stroke-miterlimit="10" stroke-width=".5" d="M267.1211 479.08984l-6.57423 2.48047"/></g><g clip-path="url(#A)"><path fill="none" stroke="#000" stroke-linecap="round" stroke-linejoin="round" stroke-miterlimit="10" stroke-width=".5" d="M267.1211 479.08984l1.84374 1.6172"/></g><g clip-path="url(#B)"><path fill="none" stroke="#000" stroke-linecap="round" stroke-linejoin="round" stroke-miterlimit="10" stroke-width=".5" d="M280.20703 478.59375l-6.11328 3.46875"/></g><g clip-path="url(#C)"><path fill="none" stroke="#000" stroke-linecap="round" stroke-linejoin="round" stroke-miterlimit="10" stroke-width=".5" d="M280.20703 478.59375l2.07031 1.3164"/></g><g clip-path="url(#D)"><path fill="none" stroke="#000" stroke-linecap="round" stroke-linejoin="round" stroke-miterlimit="10" stroke-width=".5" d="M293.5664 478.67969l-6.20312 3.29687"/></g><g clip-path="url(#E)"><path fill="none" stroke="#000" stroke-linecap="round" stroke-linejoin="round" stroke-miterlimit="10" stroke-width=".5" d="M292.66406 479.16016l1.01953.6875"/></g><g clip-path="url(#F)"><path fill="none" stroke="#000" stroke-linecap="round" stroke-linejoin="round" stroke-miterlimit="10" stroke-width=".5" d="M307.11328 479.21875l-6.66406 2.22266"/></g><g clip-path="url(#G)"><path fill="none" stroke="#000" stroke-linecap="round" stroke-linejoin="round" stroke-miterlimit="10" stroke-width=".5" d="M306.14453 479.53906l.88672.84766"/></g><g clip-path="url(#H)"><path fill="none" stroke="#000" stroke-linecap="round" stroke-linejoin="round" stroke-miterlimit="10" stroke-width=".5" d="M320.28516 478.85156l-6.37891 2.95313"/></g><g clip-path="url(#I)"><path fill="none" stroke="#000" stroke-linecap="round" stroke-linejoin="round" stroke-miterlimit="10" stroke-width=".5" d="M319.35547 479.28125l.98047.74219"/></g><g clip-path="url(#J)"><path fill="none" stroke="#000" stroke-linecap="round" stroke-linejoin="round" stroke-miterlimit="10" stroke-width=".5" d="M332.01953 477.20313l-3.21484 6.25"/></g><path fill="none" stroke="#000" stroke-linecap="round" stroke-linejoin="round" stroke-miterlimit="10" stroke-width=".5" d="M331.55078 478.11328l1.22656-.01562"/><g clip-path="url(#K)"><path fill="none" stroke="#000" stroke-linecap="round" stroke-linejoin="round" stroke-miterlimit="10" stroke-width=".5" d="M343.10938 476.8711l1.23437 6.91796"/></g><path fill="none" stroke="#000" stroke-linecap="round" stroke-linejoin="round" stroke-miterlimit="10" stroke-width=".5" d="M343.28906 477.875l.96485-.75781"/><g clip-path="url(#L)"><path fill="none" stroke="#000" stroke-linecap="round" stroke-linejoin="round" stroke-miterlimit="10" stroke-width=".5" d="M355.4336 477.20313l3.21484 6.25"/></g><path fill="none" stroke="#000" stroke-linecap="round" stroke-linejoin="round" stroke-miterlimit="10" stroke-width=".5" d="M355.90234 478.11328l.69922-1.00781"/><g clip-path="url(#M)"><path fill="none" stroke="#000" stroke-linecap="round" stroke-linejoin="round" stroke-miterlimit="10" stroke-width=".5" d="M369.14453 477.03125l2.42578 6.59375"/></g><path fill="none" stroke="#000" stroke-linecap="round" stroke-linejoin="round" stroke-miterlimit="10" stroke-width=".5" d="M369.4961 477.99219l.8164-.91406"/><g clip-path="url(#N)"><path fill="none" stroke="#000" stroke-linecap="round" stroke-linejoin="round" stroke-miterlimit="10" stroke-width=".5" d="M387.1836 480.19531l-7.02344.26953"/></g><g clip-path="url(#O)"><path fill="none" stroke="#000" stroke-linecap="round" stroke-linejoin="round" stroke-miterlimit="10" stroke-width=".5" d="M393.97266 478.51953L400 482.13672"/></g><g clip-path="url(#P)"><path fill="none" stroke="#000" stroke-linecap="round" stroke-linejoin="round" stroke-miterlimit="10" stroke-width=".5" d="M410.14844 476.82031l.3086 7.01953"/></g><path fill="none" stroke="#000" stroke-linecap="round" stroke-linejoin="round" stroke-miterlimit="10" stroke-width=".5" d="M410.1914 477.83984l1.0586-.62109"/><g clip-path="url(#Q)"><path fill="none" stroke="#000" stroke-linecap="round" stroke-linejoin="round" stroke-miterlimit="10" stroke-width=".5" d="M425.94922 477.70313l-4.66797 5.25"/></g><path fill="none" stroke="#000" stroke-linecap="round" stroke-linejoin="round" stroke-miterlimit="10" stroke-width=".5" d="M425.94922 477.70313l2.38672.57812"/><g clip-path="url(#R)"><path fill="none" stroke="#000" stroke-linecap="round" stroke-linejoin="round" stroke-miterlimit="10" stroke-width=".5" d="M439.72266 478.19531l-5.58204 4.26563"/></g><path fill="none" stroke="#000" stroke-linecap="round" stroke-linejoin="round" stroke-miterlimit="10" stroke-width=".5" d="M439.72266 478.19531l2.23046 1.02344"/><g clip-path="url(#S)"><path fill="none" stroke="#000" stroke-linecap="round" stroke-linejoin="round" stroke-miterlimit="10" stroke-width=".5" d="M451.60156 477.08594l-2.70703 6.48437"/></g><path fill="none" stroke="#000" stroke-linecap="round" stroke-linejoin="round" stroke-miterlimit="10" stroke-width=".5" d="M451.20703 478.03125l1.22266-.11719"/><g clip-path="url(#T)"><path fill="none" stroke="#000" stroke-linecap="round" stroke-linejoin="round" stroke-miterlimit="10" stroke-width=".5" d="M467.03125 479.76172l-6.9375 1.13281"/></g><g clip-path="url(#U)"><path fill="none" stroke="#000" stroke-linecap="round" stroke-linejoin="round" stroke-miterlimit="10" stroke-width=".5" d="M466.01953 479.92578l.74219.97656"/></g><g clip-path="url(#V)"><path fill="none" stroke="#000" stroke-linecap="round" stroke-linejoin="round" stroke-miterlimit="10" stroke-width=".5" d="M147.46094 467.6289l-6.92188-1.23046"/></g><path fill="none" stroke="#000" stroke-linecap="round" stroke-linejoin="round" stroke-miterlimit="10" stroke-width=".5" d="M147.46094 467.6289l.7539 2.33204m12.56641-2.3789l-6.9336-1.13673m6.9336 1.13672l.78906 2.32422m12.5586-2.58203l-7-.6211m7 .6211l.95703 2.25781m-1.97266-2.34766l.47656 1.12891m13.8672-1.21484l-7.02345-.26953m7.02344.26953l1.0664 2.20703m-2.08984-2.2461l.53516 1.10547m13.79688-.97656l-7.01172-.44922m7.01172.44922l1.01171 2.23438m-2.03125-2.30078l.50782 1.11718m13.83203-1.16797l-7.02344-.21484m7.02344.21484l1.08594 2.20313m-2.10547-2.23438l.53906 1.10157m13.79687-1.29297l-7.02343.23047m7.02343-.23047l1.22266 2.1289m-2.2461-2.09375l.61329 1.0625m13.69531-1.45703l-6.96484.94922m6.96484-.94922l1.4336 1.99219m-2.44923-1.85547l.71875.9961m13.46094-1.77344l-6.66406 2.23047m6.66406-2.23047l1.78125 1.6914m-2.75-1.36718l.89063.84765m13.17187-1.6875l-6.22265 3.26172m6.22265-3.26172l2.02735 1.38281m-2.9297-.91015l1.01173.6914M280.03125 465l-5.76172 4.02734M280.03125 465l2.1836 1.11719m-3.02344-.53125l1.09375.5586m13.04687-1.16407l-5.73437 4.0664m5.73437-4.0664l2.1914 1.10156m-3.02343-.50781l1.09375.55078m13.16797-.97266l-5.96094 3.72266m5.96094-3.72266l2.125 1.23047m11.30469-1.03515L314 468.67969m6.1914-3.33203l2.03907 1.36328m11.32422-1.26172l-6.28907 3.1289m6.28907-3.1289l2 1.42578m10.9336-2.03125l-5.52735 4.33984m4.72265-3.70703l1.125.4961m12.90625-1.2422l-5.34765 4.56641m4.57031-3.90234l1.14062.45313m12.32813-1.6875l-4.09766 5.70703m4.09766-5.70703l2.42969.32812m7.53125-.73828l2.60937 6.52734m-2.23047-5.57812l.79297-.9375m14.64844-.05078l-2.40234 6.60547m2.05078-5.64454l1.21484-.17187m13.13672-.45313l-3.76953 5.9336m3.76953-5.9336l2.44531.19141m-2.9961.67188l1.22266.09765m12.16407-1.21484l-2.8164 6.4414m2.8164-6.4414l2.44922-.1836m-2.85938 1.1211l1.22656-.09375m12.76563-.71094l-3.34766 6.17578m3.34766-6.17578l2.45312.01563m-2.9414.8828l1.22656.00782m13.375-.3164l-4.9414 4.99609m4.9414-4.9961l2.34766.70313m11.6875.32812l-6.38282 2.9336"/><g clip-path="url(#W)"><path fill="none" stroke="#000" stroke-linecap="round" stroke-linejoin="round" stroke-miterlimit="10" stroke-width=".5" d="M466.7539 465.54688l1.95313 1.48828"/></g><g clip-path="url(#X)"><path fill="none" stroke="#000" stroke-linecap="round" stroke-linejoin="round" stroke-miterlimit="10" stroke-width=".5" d="M147.45313 454.35547l-6.90625-1.3164"/></g><path fill="none" stroke="#000" stroke-linecap="round" stroke-linejoin="round" stroke-miterlimit="10" stroke-width=".5" d="M147.45313 454.35547l.72265 2.34765m12.52734-2.0703l-6.77734-1.8672m6.77734 1.8672l.53516 2.39452m12.89063-3.01172l-6.9961-.63671m6.9961.63672l.94922 2.26562m12.35937-2.19922l-6.98438-.76562m6.98438.76562l.91016 2.27735m12.40625-2.28125l-6.98828-.76172m6.98828.76172l.91015 2.28125m12.39453-2.1875l-6.96484-.94532m6.96484.94531l.84766 2.30079m12.4961-2.71875l-7.02344-.10938m7.02343.10938l1.1172 2.18359m12.16405-2.74219l-6.95703 1.0039m6.95703-1.0039l1.44922 1.98047m11.83203-2.17187l-6.88672 1.39062m6.88672-1.39062l1.5586 1.89453m-2.5625-1.6914l.78125.9453m13.26953-1.95703l-6.35156 3.00781m6.35156-3.0078l1.96875 1.46484m-2.89453-1.02735l.98437.73047m13.10547-1.45312l-6.05078 3.57421m6.05078-3.57421l2.09375 1.28125m-2.97266-.76172l1.04688.64062m12.83984-1.59765l-5.4375 4.45312m5.4375-4.45312l2.26563.94921m-3.05469-.30078l1.1289.47266m13.65626.21094l-6.79688 1.78515m6.79688-1.78515l1.66406 1.80468m-2.65234-1.54296l.83203.90234m13.5625-.65625l-6.98047.77344m6.98047-.77344l1.38672 2.02344m-2.40235-1.91407l.69531 1.01563m13.3711-2.1289l-6.45313 2.78124m6.45313-2.78125l1.91797 1.53125m11.32812-1.67968l-6.3164 3.07812m6.3164-3.07812l1.98438 1.4414m-2.90235-.9961l.9922.72266m13.58983.11329l-7.01171.51562m7.01171-.51562l1.3047 2.07812m-2.32423-2.0039l.65235 1.03906m13.64453-1.41407l-6.9375 1.1172m6.9375-1.1172l1.48437 1.95313m-2.49218-1.79297l1.48046 1.95703m12.59375-2.96875l-6.4375 2.82031m6.4375-2.8203l1.92188 1.52343m-2.85938-1.11328l.96094.76172m13.3789-.94922l-6.61327 2.375m6.61328-2.375l1.8164 1.65234m11.21485-2.2539l-6.04688 3.57812m6.04688-3.57812l2.09375 1.27734m-2.97266-.75781l1.04688.63672m13.10547-1.22657l-5.96485 3.71485m5.96485-3.71485l2.125 1.23047m10.70703-1.83984l-4.9961 4.9375m4.9961-4.9375l2.34375.73047m10.77734-.91797l-4.60547 5.3086m4.60547-5.3086l2.39063.55078m-3.0625.22266l1.1953.27734m13.34766-.4336l-5.72265 4.07813"/><g clip-path="url(#Y)"><path fill="none" stroke="#000" stroke-linecap="round" stroke-linejoin="round" stroke-miterlimit="10" stroke-width=".5" d="M466.42188 451.66016l2.1953 1.09375"/></g><path fill="none" stroke="#000" stroke-linecap="round" stroke-linejoin="round" stroke-miterlimit="10" stroke-width=".5" d="M465.58984 452.2539l1.09766.54688"/><g clip-path="url(#Z)"><path fill="none" stroke="#000" stroke-linecap="round" stroke-linejoin="round" stroke-miterlimit="10" stroke-width=".5" d="M147.4336 441.1211l-6.8672-1.47657"/></g><path fill="none" stroke="#000" stroke-linecap="round" stroke-linejoin="round" stroke-miterlimit="10" stroke-width=".5" d="M147.4336 441.1211l.67187 2.35937m12.59766-2.16406l-6.77344-1.8672m6.77344 1.8672l.53515 2.39453m-1.52344-2.66407l.26953 1.19532m13.9375-.625l-6.58203-2.46485m6.58203 2.46485l.31641 2.42968m13.10156-2.7578l-6.78906-1.8125m6.78906 1.8125l.5547 2.39062m12.80468-2.58203l-6.8789-1.42579m6.8789 1.42579l.6914 2.35546m12.60547-2.26171l-6.83984-1.61329m6.83984 1.61329l.6211 2.37109m12.78515-3.14844l-7.02343-.0625m7.02343.0625l1.13282 2.17969m11.33203-4.5039l-5.32422 4.58984m5.32422-4.58985l2.28515.88672m9.44532-1.9375l-2.15235 6.6875m1.83985-5.71484l1.20703-.21485m13.51562-.17187l-4.34765 5.51953m4.34765-5.51953l2.41797.4336m-3.05078.36718l1.21094.21875m13.20703-.57422l-5.28516 4.6289m5.28516-4.6289l2.29297.86719m-3.0625-.19531l1.14843.4336m12.32422-1.66017l-4.05859 5.73829m4.0586-5.73829l2.43359.3086m-3.02344.52734l1.21484.15235m14.16797 1.71875l-7.01953.3203m7.01953-.3203l1.25 2.11328m-2.26953-2.0664l.625 1.05468m13.6836-1.41016l-6.96485.9414m6.96484-.9414l1.4297 1.99219m-2.44141-1.85547l.71484.9961m13.52734-1.5586l-6.79687 1.78906m6.79687-1.78906l1.66407 1.80469M332.8203 439.75l1.66406 1.80078m12.51172-2.45312l-6.53906 2.57421m6.53906-2.57421l1.86328 1.59375m-2.8164-1.21875l1.86719 1.59375m12.39062-1.98829l-6.51953 2.61329m6.51953-2.61329l1.8789 1.58204m11.58985-1.10938l-6.82812 1.66406m6.82812-1.66406l1.63281 1.83203m11.47266.4414l-6.41016-2.8828m6.41016 2.8828l.16406 2.44923m13.41016-4.48047l-6.92578 1.17969m6.92578-1.1797l1.5 1.94141m11.67187-2.5039l-6.64062 2.30469m6.64062-2.3047l1.79688 1.67188m-2.76172-1.33593l.89844.83593m13.09375-1.79297l-6.0664 3.54688m6.0664-3.54688l2.08984 1.28907m-2.97266-.77344l2.08985 1.28906m11.75781-2.30078l-5.36328 4.53906m5.36328-4.53906l2.27734.91016m-3.05859-.25l2.28125.91015m11.98828-1.34765l-5.71094 4.09375m5.71094-4.09375l2.19922 1.08984m-3.03125-.4961l1.10156.54688m12.3047-1.89844l-4.23048 5.60938"/><g clip-path="url(#aa)"><path fill="none" stroke="#000" stroke-linecap="round" stroke-linejoin="round" stroke-miterlimit="10" stroke-width=".5" d="M465.67578 437.57813l2.42578.3828"/></g><g clip-path="url(#ab)"><path fill="none" stroke="#000" stroke-linecap="round" stroke-linejoin="round" stroke-miterlimit="10" stroke-width=".5" d="M147.3789 428.03906l-6.7578-1.9414"/></g><path fill="none" stroke="#000" stroke-linecap="round" stroke-linejoin="round" stroke-miterlimit="10" stroke-width=".5" d="M147.3789 428.03906l.50782 2.39844m12.71484-2.125l-6.57031-2.48828m6.57031 2.48828l.3086 2.4375m12.6914-1.8086l-5.94531-3.74609m5.94531 3.7461l-.17969 2.44922m13.44922-2.375l-5.85156-3.89454m5.85156 3.89453l-.24218 2.44141m13.8828-3.0625l-6.5039-2.65234m6.5039 2.65234l.25 2.4414m13.01563-5.21093l-6.40625 2.88672m6.40625-2.88672l1.94141 1.5039m11.24219-1.76952l-6.14063 3.41796m6.14063-3.41796l2.0586 1.33593m11.67187.82422l-6.96875-.89844m5.95312.76563l.4336 1.14844m13.6914-2.72657l-6.5586 2.51954m5.60548-2.15235l.92578.80469m13.3125-1.24219l-6.5039 2.66016m5.55859-2.27344l.9453.78516m13.51954-.47657l-6.91016 1.26954m6.91016-1.26954l1.52344 1.92579m11.84375-1.52344l-7.01172.46484m7.01172-.46484l1.29296 2.08594m11.8672-2.91407l-6.70313 2.1211m5.72656-1.8125l.875.85937m13.26172-1.5625l-6.39453 2.91016m6.39453-2.91016l1.94531 1.4961m-2.875-1.07032l.97266.7461m13.20703-1.3086l-6.26563 3.1836m6.26563-3.1836l2.00781 1.41016m-2.91797-.94531l2.00781 1.41015m12.51563-1.04297l-6.85938 1.51954m6.85938-1.51954l1.59375 1.8672m-2.58984-1.64454l.79296.9336m13.59766-.58985l-7.01953.38672m7.01953-.38672l1.26953 2.10156m11.0625-4.35156l-5.05078 4.88672m4.3125-4.17578l1.16797.3789m12.08203-1.70703l-3.44531 6.1211m3.44531-6.1211l2.45313.05469m-2.95704.83594l1.22657.02734m14.26953 1.26563l-6.80078 1.7539m6.80078-1.7539L402.04687 428m-2.64843-1.55469l.82812.90625m13.23047-1.82812l-6.3086 3.08984m6.3086-3.08984l1.98828 1.4375m-2.90625-.98828l1.98828 1.4375m12.02344-2.27735l-5.86719 3.8711m5.8672-3.8711l2.15233 1.17578m-3.0078-.60937l2.15624 1.17187m11.70313-2.14062l-5.2461 4.67578m5.2461-4.67578l2.30078.84766m-3.0664-.16797l2.30468.84765m11.71094-1.59765l-5.11719 4.8164m5.11719-4.8164l2.32422.78906m-3.06641-.08594l1.16016.39453m12.9453-1.04687l-5.21093 4.71484"/><g clip-path="url(#ac)"><path fill="none" stroke="#000" stroke-linecap="round" stroke-linejoin="round" stroke-miterlimit="10" stroke-width=".5" d="M466.16797 424.71094l2.30469.83203"/></g><path fill="none" stroke="#000" stroke-linecap="round" stroke-linejoin="round" stroke-miterlimit="10" stroke-width=".5" d="M465.41016 425.39844l1.15234.41406"/><g clip-path="url(#ad)"><path fill="none" stroke="#000" stroke-linecap="round" stroke-linejoin="round" stroke-miterlimit="10" stroke-width=".5" d="M147.47656 413.23438l-6.95312 1.03906"/></g><path fill="none" stroke="#000" stroke-linecap="round" stroke-linejoin="round" stroke-miterlimit="10" stroke-width=".5" d="M146.46484 413.38281l.73047.98828m13.6289-.4375l-7.01952-.35937m6 .30469l.51953 1.11328m13.78516-.75782l-6.96094-.96093m5.94922.82031l.42187 1.15234m13.9336-1.26953l-7.01563-.44531m5.99219.3789l.50781 1.1172m13.82422-1.54298l-7.0039.53907m7.0039-.53907l1.3164 2.07422m11.85157-.76562l-6.71094-2.07813m5.73438 1.77735l.23046 1.20312m13.96485-.625l-6.51563-2.63281m5.5664 2.25l.12892 1.21875m14.375-1.82813l-6.9961-.65234m6.9961.65234l.9453 2.26563m12.3711-2.89844l-7 .61719m7-.61719l1.33984 2.05469m11.98829-1.8789l-7.02344.26562m7.02344-.26563l1.23047 2.1211m12.07421-2.29688l-7 .61328m7-.61328l1.33594 2.0586m11.89453-2.57422l-6.83203 1.64843m6.83203-1.64843l1.625 1.83593m11.76953-.67187l-6.99218-.6836m6.99218.6836l.9375 2.26953m12.39453-2.49219l-7.02343-.23437m6 .19922l.53906 1.10156m13.71875-1.9414l-6.86328 1.51562m6.86328-1.51563l1.58984 1.8672m11.78516-1.48048l-6.98828.74219m6.98828-.74219l1.375 2.03125m11.92578-2.15625l-6.95703.98828m6.95703-.98828l1.44531 1.98438m-2.45703-1.83985l.72266.9922m13.52734-1.52735l-6.80078 1.77343m6.80078-1.77343l1.66016 1.80468m-2.65235-1.54687l.83204.90234m13.17968-1.91406l-6.21093 3.28125m6.21093-3.28125l2.03125 1.375m-2.93359-.89844l2.03125 1.37891m12.26562-1.69531l-6.37109 2.96093m6.3711-2.96093l1.95703 1.47656m-2.88282-1.04688l1.95703 1.47657m11.87891-2.57422l-5.5586 4.29687m5.5586-4.29687l2.23438 1.00781m-3.04297-.38281l1.11718.5039m12.96875-1.17578l-5.48828 4.39063m5.48828-4.39063l2.25391.97266m-3.05078-.33594l1.125.48828m13.03906-1.0625l-5.58984 4.26563m5.58984-4.26563l2.22656 1.02344m-3.04296-.40234l1.11718.51172m12.69922-1.4922l-4.96094 4.98048m4.96094-4.98047l2.34766.71484m-3.07031.01172l1.17578.35547m12.25781-1.5625l-3.75 5.94531"/><g clip-path="url(#ae)"><path fill="none" stroke="#000" stroke-linecap="round" stroke-linejoin="round" stroke-miterlimit="10" stroke-width=".5" d="M465.4375 410.78125l2.44531.17969"/></g><path fill="none" stroke="#000" stroke-linecap="round" stroke-linejoin="round" stroke-miterlimit="10" stroke-width=".5" d="M464.89063 411.64453l2.4453.1836"/><g clip-path="url(#af)"><path fill="none" stroke="#000" stroke-linecap="round" stroke-linejoin="round" stroke-miterlimit="10" stroke-width=".5" d="M146.69531 398.1875l-5.39062 4.5039"/></g><path fill="none" stroke="#000" stroke-linecap="round" stroke-linejoin="round" stroke-miterlimit="10" stroke-width=".5" d="M146.69531 398.1875l2.27344.92188m10.28906-1.59766l-3.88281 5.85547m3.3164-5.0039l1.22266.11718m14.16406 1.28125l-6.89453 1.35156m5.89063-1.15234l.77344.94922m13.59765-.16797l-7-.60938m7 .60938L188.40625 403m12.35547-2.27344l-7.0039-.57812m7.0039.57812l.96875 2.2539m12.32422-2.04687l-6.95703-.98828m6.95703.98828l.83594 2.3047m12.47265-3.34376l-6.94531 1.08594m6.94531-1.08594l1.47266 1.96094m-2.48438-1.80078l.73828.98047m13.625-.75782l-7.01953.32032m7.01953-.32032l1.25 2.11329m12.01953-2.54688l-6.92578 1.1875m6.92578-1.1875l1.5 1.9414m11.76954-2.15624l-6.83594 1.62109m6.83594-1.6211l1.62109 1.84376m11.53516-2.34766l-6.51953 2.625m6.51953-2.625l1.8789 1.58203m11.3164-1.84765l-6.27733 3.15625m6.27734-3.15625l2 1.41796m11.4336-1.15625l-6.51563 2.63672m6.51562-2.63672l1.8789 1.57422m11.59376-1.08203l-6.83203 1.64844m6.83203-1.64844l1.6289 1.83594m11.48047-2.4414l-6.41796 2.85937m6.41796-2.85938l1.9336 1.51172m11.55469-1.02344l-6.76954 1.88672m6.76954-1.88672l1.6914 1.77344m11.73047-1.23828l-6.98047.8164m6.98047-.8164l1.39453 2.01953m11.84375-2.45312l-6.82422 1.67968m6.82422-1.67968l1.63672 1.82812m-2.63281-1.58203l1.63672 1.82813m12.28906-3.01563l-6.05469 3.5625m6.05469-3.5625l2.08984 1.28516m-2.97265-.76563l2.09375 1.28125m12.26562-1.49219l-6.3789 2.94922m6.3789-2.94922l1.95313 1.48047m-2.88282-1.05469l.98047.7422m13.16797-1.35938l-6.1875 3.32812m6.1875-3.32812l2.04297 1.36328m-2.9414-.8789l1.01953.67968m12.65234-1.91797l-5.10156 4.83594m5.10156-4.83594l2.32422.78125m-3.0664-.07812l1.16015.39062m12.88672-1.10156l-5.08203 4.85547m5.08203-4.85547l2.32812.76953m-3.07031-.0664l1.16797.38671m13.30078-.57031l-5.90625 3.8125m5.90625-3.8125l2.14062 1.19922m-3-.64453l1.07032.59765m12.98437-1.32421l-5.66406 4.16015"/><g clip-path="url(#ag)"><path fill="none" stroke="#000" stroke-linecap="round" stroke-linejoin="round" stroke-miterlimit="10" stroke-width=".5" d="M466.39453 398.35938l2.21094 1.0625"/></g><path fill="none" stroke="#000" stroke-linecap="round" stroke-linejoin="round" stroke-miterlimit="10" stroke-width=".5" d="M465.57031 398.96484l1.10547.53125"/><g clip-path="url(#ah)"><path fill="none" stroke="#000" stroke-linecap="round" stroke-linejoin="round" stroke-miterlimit="10" stroke-width=".5" d="M146.47656 384.63281l-4.95312 4.98047"/></g><path fill="none" stroke="#000" stroke-linecap="round" stroke-linejoin="round" stroke-miterlimit="10" stroke-width=".5" d="M146.47656 384.63281l2.35156.71094m-3.0703.01563l1.17187.35546m13.49219-.23046l-6.21485 3.27734m6.21484-3.27735l2.03125 1.37891m11.5547 1.23438l-6.75391-1.94922m6.7539 1.94922l.5039 2.39843m12.94532-3.37109h-7.02344m7.02344 0l1.15234 2.16406m11.53125-.15625l-5.76171-4.01953m5.76172 4.01953l-.29688 2.4375m14.1289-3.55078l-6.79296-1.79297m6.79297 1.79297l.5625 2.39063m12.85547-3.57422l-7.00391.57422m7.0039-.57422l1.32813 2.0664m11.79297-2.97265l-6.60938 2.38672m6.60938-2.38672l1.8164 1.64844m-2.78125-1.30079l.91016.82422m13.41797-1.02344l-6.70703 2.08985m6.70703-2.08985l1.7461 1.72266m-2.72266-1.41797l.8711.85938m13.375-1.29688l-6.6211 2.35547m6.6211-2.35547l1.8125 1.65625m11.48827-1.69922l-6.58984 2.44141m6.58984-2.4414l1.83203 1.6289m11.53516-1.48047l-6.6914 2.14453m6.6914-2.14453l1.75781 1.71094m11.41016-2.08594l-6.40234 2.89844m6.40234-2.89844l1.94531 1.4961m11.44531-1.31641l-6.55078 2.53515m6.55078-2.53515l1.85938 1.60547M333.52734 385.5l-6.23046 3.2461m6.23046-3.2461l2.02344 1.38672m11.21875-1.51953l-6.08594 3.51172m6.08594-3.51172l2.08203 1.30469m11.57813-.47657l-6.77735 1.85547m6.77735-1.85547l1.6836 1.78516m-2.66798-1.51563l.83985.89454m13.37109-1.4375l-6.60156 2.40234m6.60156-2.40235l1.82422 1.64454m-2.78125-1.29297l1.82031 1.64062m12.34766-2.25l-6.39063 2.91797m6.39063-2.91797l1.94922 1.49219m-2.87891-1.0664l.97266.74609m13.12109-1.46485l-6.08984 3.50391m6.08984-3.5039l2.07813 1.30468m-2.96485-.79297l1.03906.65235m13.25391-.9961l-6.27344 3.16797m6.27344-3.16797l2.0039 1.41797M412.52735 386l1 .70703m12.81641-1.80078l-5.45312 4.4336m5.45312-4.4336l2.25781.95703m-3.05078-.3125l1.1289.47656m12.56641-1.54687l-4.6289 5.28515m4.6289-5.28515l2.38672.5586m-3.0625.21093l1.19532.27734m13.28515-.51953l-5.60937 4.23047m5.60937-4.23047l2.22656 1.03516m-3.04296-.42188l1.11328.51954m12.67578-1.52344l-4.92578 5.01172"/><g clip-path="url(#ai)"><path fill="none" stroke="#000" stroke-linecap="round" stroke-linejoin="round" stroke-miterlimit="10" stroke-width=".5" d="M466.02344 384.61719l2.35547.69922"/></g><path fill="none" stroke="#000" stroke-linecap="round" stroke-linejoin="round" stroke-miterlimit="10" stroke-width=".5" d="M465.3086 385.34766l1.17577.34765"/><g clip-path="url(#aj)"><path fill="none" stroke="#000" stroke-linecap="round" stroke-linejoin="round" stroke-miterlimit="10" stroke-width=".5" d="M146.88281 371.80078l-5.76562 4.01563"/></g><path fill="none" stroke="#000" stroke-linecap="round" stroke-linejoin="round" stroke-miterlimit="10" stroke-width=".5" d="M146.88281 371.80078l2.1836 1.11719m-3.02344-.53516l1.09375.5625m13.6914.7539l-7.02343.21876m7.02344-.21875l1.21875 2.1289m-2.2422-2.09765l.60938 1.0664m13.66406-.3203l-6.89843-1.33594m6.89844 1.33593l.72265 2.34375m-1.72656-2.53906l.36328 1.17188m13.76953-.34375l-6.52734-2.60157m6.52734 2.60156l.26953 2.4375m13.26563-4.21875l-6.96094.96094m6.96094-.96094l1.4375 1.98829M213.99609 373l-6.83984 1.61719M213.99609 373l1.6172 1.83984m11.75-1.55468l-6.94532 1.04687m6.94531-1.04687l1.46484 1.96875m-2.47265-1.81641l.73047.98438m13.58203-1.21485l-6.92578 1.20313m6.92578-1.20313l1.5039 1.9375m-2.51171-1.76172l.7539.96875m13.5039-1.4336l-6.79687 1.78126m6.79688-1.78125l1.66406 1.80469m-2.65234-1.54688l.83203.90235m13.4375-1.28907l-6.72656 2.03516m6.72656-2.03516l1.73047 1.74219m-2.71094-1.44531l.86719.8711m13.45312-1.08204l-6.77344 1.86719m6.77344-1.86719l1.6836 1.78125m-2.67188-1.51172l.84375.89063m13.48047-1.07032l-6.82031 1.6875m6.82031-1.6875l1.64062 1.82422m-2.6328-1.57812l.8203.91015m13.45313-1.29296l-6.75 1.96093m6.75-1.96094l1.71094 1.75782m-2.69532-1.47266l.85547.8789m13.40235-1.29687l-6.66797 2.22266m6.66797-2.22266l1.77734 1.6914m-2.7461-1.36718l.88673.84766m13.46093-.95703l-6.79297 1.79687m6.79297-1.79687l1.66797 1.80078m-2.65625-1.53906l.83203.89843m13.45703-1.21484l-6.76562 1.90625m6.76562-1.90625l1.69532 1.77344m-2.67969-1.4961l.84766.88672m13.42187-1.26172l-6.70703 2.10156m6.70703-2.10156l1.7461 1.72266m-2.72266-1.41797l1.7461 1.72656m12.46093-2.26562l-6.53906 2.57031m6.53906-2.57031l1.86719 1.59375m-2.8164-1.21875l1.86327 1.59375m12.30469-2.19531L380.5 375.3203m6.34375-3.02344l1.97266 1.46094m-2.89454-1.01953l1.96875 1.46094m12.375-1.64844l-6.55859 2.51563m6.5586-2.51563l1.85156 1.60938m-2.80469-1.2461l1.85156 1.61328m12.1914-2.45312l-6.10937 3.46875m6.10938-3.46875l2.07422 1.3164m-2.96094-.8125l1.03516.66016m13.27343-.96094l-6.32422 3.0625m6.32422-3.0625l1.98047 1.44532m-2.89844-1l.98829.72265m12.85546-1.79297l-5.54687 4.3125m5.54687-4.3125l2.2422 1m-3.04688-.375l2.23828 1.00391m11.63281-1.92188l-5.04297 4.89454m5.04297-4.89454l2.33203.75391m10.98438-.7461l-5.05078 4.88282"/><g clip-path="url(#ak)"><path fill="none" stroke="#000" stroke-linecap="round" stroke-linejoin="round" stroke-miterlimit="10" stroke-width=".5" d="M466.08594 371.36719l2.33594.7539"/></g><g clip-path="url(#al)"><path fill="none" stroke="#000" stroke-linecap="round" stroke-linejoin="round" stroke-miterlimit="10" stroke-width=".5" d="M147.0625 358.76953l-6.125 3.44531"/></g><path fill="none" stroke="#000" stroke-linecap="round" stroke-linejoin="round" stroke-miterlimit="10" stroke-width=".5" d="M147.0625 358.76953l2.0664 1.32422m-2.95702-.82031l1.03125.66015m13.5625 1.22266l-6.90235-1.32422m6.90234 1.32422l.72266 2.34375m-1.72656-2.53906l.36328 1.17187m14.00781-1.38672l-7.00781-.5078m7.00781.5078l.99219 2.2461m12.10938-1.26563l-6.57813-2.46875m6.57813 2.46875l.3203 2.4336m13.21485-3.84375l-7.01953.35156m7.01953-.35156l1.25781 2.10546m12.05078-2.1914l-7.0078.52344m7.0078-.52344l1.3125 2.07812m-2.33203-2l.65625 1.03516m13.6211-1.53906l-6.89063 1.3789m6.89063-1.3789l1.55469 1.89844m-2.5586-1.69922l.77734.94921m13.4961-1.34375l-6.80078 1.76563m6.80078-1.76563l1.66016 1.8086m-2.64844-1.55078l.82812.90234m13.4414-1.28125l-6.73437 2.00781m6.73438-2.0078l1.72266 1.75m-2.70313-1.45704l.86328.875m13.41797-1.21875l-6.70313 2.11328m6.70313-2.11328l1.75 1.71875m-2.72656-1.41406l.875.85937m13.45703-1.02344l-6.78516 1.82813m6.78516-1.82813l1.67578 1.79297m-2.66406-1.52734l.83984.89844m13.52735-.88672l-6.91016 1.27734m6.91015-1.27734l1.52344 1.92187m-2.53125-1.73828l.76563.96094m13.57422-1.03516l-6.94532 1.0586m6.94532-1.0586l1.46484 1.96875m-2.47656-1.8164l.73437.98437m13.6211-.91015l-7.00391.60546m7.0039-.60546l1.33204 2.05859m-2.35156-1.97266l.66796 1.03125m13.65235-1.2539l-6.97266.8789m6.97266-.8789l1.41406 2.0039m-2.42969-1.8789l.70703 1.0039m13.60157-1.27734l-6.9297 1.17188m6.9297-1.17188l1.49609 1.94531m-2.5039-1.77344l.74609.97266m13.57812-1.1211l-6.9336 1.125m6.9336-1.125l1.48438 1.95313M359.5 360.09375l1.48438 1.95313m12.80468-2.30079l-6.86719 1.4961m6.8672-1.4961l1.58593 1.8711m-2.58594-1.65625l1.58985 1.8711m12.5625-2.6211l-6.54297 2.5625m6.54297-2.5625l1.86328 1.59765m-2.8125-1.22265l1.85937 1.59765m12.45313-1.84765l-6.63672 2.3164m6.63672-2.3164l1.80078 1.66797m-2.76563-1.33204l1.80079 1.66797m-2.76563-1.33203l.89844.83594m14.39453-1.35938l-6.73047 2.01954m6.73047-2.01954l1.72656 1.7422m-2.70703-1.44923l1.72656 1.7422m12.54688-2.10938l-6.6875 2.16406m6.6875-2.16406l1.76172 1.70703m-2.73438-1.39063l1.76172 1.70703m12.34766-2.46875l-6.33204 3.0547m6.33204-3.0547l1.97656 1.45313m-2.89844-1.00781l1.97656 1.44921m12.35157-1.6875l-6.51172 2.64063m6.51172-2.64063l1.8789 1.57422m-2.82812-1.1875l.9414.78516m12.9922-1.79297l-5.85157 3.88672"/><g clip-path="url(#am)"><path fill="none" stroke="#000" stroke-linecap="round" stroke-linejoin="round" stroke-miterlimit="10" stroke-width=".5" d="M466.48828 358.55078l2.16016 1.16406"/></g><g clip-path="url(#an)"><path fill="none" stroke="#000" stroke-linecap="round" stroke-linejoin="round" stroke-miterlimit="10" stroke-width=".5" d="M465.63672 359.11328l2.16015 1.16797"/></g><g clip-path="url(#ao)"><path fill="none" stroke="#000" stroke-linecap="round" stroke-linejoin="round" stroke-miterlimit="10" stroke-width=".5" d="M147.25 345.83984l-6.5 2.67579"/></g><path fill="none" stroke="#000" stroke-linecap="round" stroke-linejoin="round" stroke-miterlimit="10" stroke-width=".5" d="M147.25 345.83984l1.89063 1.5625m-2.83594-1.17187l.94531.78125m13.5664.46875l-7-.60547m7 .60547l.96094 2.25781m12.35938-2.33594l-7.01172-.4453m7.01172.4453l1.01172 2.23438m12.07422-1.1914l-6.5547-2.53516m6.5547 2.53515l.29297 2.4336m13.24609-3.42188l-7.0039-.5586m7.0039.5586l.97656 2.25m12.32031-2.99219l-6.96484.92579m6.96484-.92579l1.42578 1.9961m-2.4414-1.85938l.71484.9961m13.48828-1.71485l-6.71093 2.08985m6.71093-2.08985l1.7422 1.72656m-2.71876-1.42187l.8711.86328m13.47265-.97265l-6.8164 1.69921m6.8164-1.69921l1.64453 1.82421m-2.63672-1.57421l.82422.91015m13.53125-.9414l-6.91015 1.26562m6.91015-1.26563l1.52344 1.92188m-2.52734-1.73828l.76172.96094m13.55468-1.16407l-6.90625 1.3047m6.90625-1.3047l1.53125 1.91407m-2.53515-1.72657l.76562.95704m13.57813-1l-6.95313 1.01171m6.95313-1.01171l1.44922 1.97656m-2.46094-1.82813l.72656.98828m13.63672-.70312l-7.02735.14453m7.02735-.14453l1.19531 2.14453m-2.21875-2.1211l.59766 1.07032m13.73828-1.14063l-7.02344.23829m7.02344-.23829l1.22265 2.12891m-2.24609-2.09375l.61328 1.0625m13.71485-1.28125l-7.00391.60547m7.0039-.60547l1.33204 2.0586m-2.35156-1.96876l.66796 1.02735m13.64063-1.32422l-6.95313 1.01953m6.95313-1.01953l1.45312 1.97656m-2.46484-1.82812l.72656.98828m13.63281-.79297l-7.01953.33203m7.01954-.33203l1.2539 2.10937m-2.27344-2.0625l1.25391 2.10938m13.08203-1.79297l-7.01953-.39453m7.01953.39453l1.02735 2.22656m-2.05079-2.28515l1.03125 2.23046m13.3047-2.58984l-7.01563.4414m7.01562-.4414l1.28516 2.09375m-2.30469-2.02734l1.28516 2.08984m-2.3086-2.02734l.64453 1.04687m14.56641-1.98437l-6.71875 2.0586m6.71875-2.0586l1.73438 1.73437m-2.71094-1.4336l1.73437 1.73048m-2.71484-1.4336l.8711.8672m14.1875-1.9961l-6.29298 3.1211m6.29297-3.1211l1.9961 1.42969m-2.91016-.97657l1.99219 1.42969m-2.91016-.97656l1 .71484m14.25781-1.375l-6.51562 2.6289m6.51562-2.6289l1.87891 1.57813m-2.82422-1.19532l1.8789 1.57813m-2.82812-1.19531l.9375.78906m14.26953-1.5586l-6.51171 2.63672m6.51171-2.63671l1.88282 1.57421m-2.82813-1.1914l1.8789 1.57812m-2.82812-1.19531l.9414.78906m14.3125-1.44531l-6.59765 2.41797m6.59766-2.41797l1.82812 1.63672m-2.78906-1.28516l1.82813 1.64063m12.51171-1.8086l-6.72265 2.05079m6.72265-2.05079l1.73047 1.73829m-2.71093-1.4375l1.73437 1.73437m12.60156-1.89063l-6.80468 1.76172"/><g clip-path="url(#ap)"><path fill="none" stroke="#000" stroke-linecap="round" stroke-linejoin="round" stroke-miterlimit="10" stroke-width=".5" d="M466.96484 346.29688l1.65625 1.80859"/></g><path fill="none" stroke="#000" stroke-linecap="round" stroke-linejoin="round" stroke-miterlimit="10" stroke-width=".5" d="M465.97266 346.55469l1.66015 1.8086"/><g clip-path="url(#aq)"><path fill="none" stroke="#000" stroke-linecap="round" stroke-linejoin="round" stroke-miterlimit="10" stroke-width=".5" d="M147.125 332.2539l-6.25 3.21876"/></g><path fill="none" stroke="#000" stroke-linecap="round" stroke-linejoin="round" stroke-miterlimit="10" stroke-width=".5" d="M147.125 332.2539l2.01563 1.39844m11.5703-.68359l-6.79296 1.78906m6.79297-1.78906l1.66797 1.80078m-2.65625-1.54297l.83593.90235m13.45703.67968l-6.76953-1.89062m6.76953 1.89062l.52344 2.39844m12.66016-2.02344l-6.51172-2.64062m5.5664 2.25781l.125 1.21875m14.14844-.86719l-6.53515-2.57812m6.53515 2.57812l.27735 2.4375m13.28125-3.62109l-7.02344-.21094m7.02344.21094l1.08594 2.19922m-2.10547-2.23047l.54297 1.10156m13.79296-1.07031l-7.02343-.21094m7.02343.21094l1.08594 2.19922m-2.10937-2.23047l.54687 1.09766m13.78125-1.48047l-7 .61719m7-.6172l1.33594 2.0586m-2.35547-1.96875l.66797 1.02735m13.65234-1.22657l-6.97656.83594m6.97656-.83594l1.40235 2.01172m-2.41797-1.89062l.70312 1.0078m13.625-1.16015l-6.96875.89844m6.96875-.89844l1.41797 2m-2.4336-1.8711l.71095 1m13.64453-.86327l-7.01953.36328m7.01953-.36328l1.26172 2.10547m-2.28516-2.05079l.63281 1.05079m13.71094-.85547l-7.02735-.13281m7.02735.1328l1.10937 2.1875m-2.1328-2.20702l.55468 1.09375m13.78125-1.21094l-7.02344.14062m7.02344-.14062l1.19531 2.14453m-2.21484-2.125l.59375 1.07422m13.67968-1.67578l-6.90234 1.30469m6.90234-1.3047l1.53516 1.91798m-2.53906-1.72657l.76953.95704m13.48437-1.44141l-6.76953 1.89062m6.76953-1.89062l1.69141 1.77734m-2.67969-1.5l.84766.88672m13.5625-.58594l-6.98828.73438m6.98828-.73438l1.375 2.03516m-2.39063-1.92969l.6875 1.01953m13.66407-.70703l-7.02735-.10156m7.02735.10156l1.1211 2.1836m-2.14454-2.19922l.5625 1.09375m13.70703-1.82422l-6.89062 1.39062m6.89062-1.39062l1.5586 1.89844m-2.5625-1.69532l1.55859 1.89454m12.32812-3.21094l-6.02343 3.61719m6.02343-3.6172l2.10157 1.26563m-2.97657-.73828l1.05078.63281m13.47657-.41796l-6.69922 2.1328m6.69922-2.1328l1.7539 1.71484m-2.73047-1.40235l.87891.85547m13.38672-1.23437l-6.64844 2.26562m6.64844-2.26562l1.79297 1.67578m-2.75781-1.34766l.89453.83985m13.39453-1.14844l-6.66797 2.22266m6.66797-2.22266l1.77734 1.6914m-2.7461-1.36718l1.77735 1.6914m12.42578-2.23437l-6.5039 2.66406m6.5039-2.66406l1.88672 1.5664m-2.83203-1.17968l1.88672 1.5664m-2.83594-1.17968l.94531.78515m14.32813-1.38671l-6.63281 2.3203m6.63281-2.3203l1.80469 1.66406m-2.76953-1.32813l1.80468 1.66797m-2.76953-1.32812l1.80469 1.66406m13.36719-2.53125l-6.48438 2.70312"/><g clip-path="url(#ar)"><path fill="none" stroke="#000" stroke-linecap="round" stroke-linejoin="round" stroke-miterlimit="10" stroke-width=".5" d="M466.80469 332.51172l1.89844 1.55469"/></g><g clip-path="url(#as)"><path fill="none" stroke="#000" stroke-linecap="round" stroke-linejoin="round" stroke-miterlimit="10" stroke-width=".5" d="M465.85938 332.90234l1.89843 1.5586"/></g><path fill="none" stroke="#000" stroke-linecap="round" stroke-linejoin="round" stroke-miterlimit="10" stroke-width=".5" d="M464.91797 333.29688l1.89453 1.55859"/><g clip-path="url(#at)"><path fill="none" stroke="#000" stroke-linecap="round" stroke-linejoin="round" stroke-miterlimit="10" stroke-width=".5" d="M142.17188 317.54688l3.65625 6.0039"/></g><path fill="none" stroke="#000" stroke-linecap="round" stroke-linejoin="round" stroke-miterlimit="10" stroke-width=".5" d="M154.6289 318.28516L160 322.8125m13.53516-4.24219l-5.8086 3.95313m4.96094-3.3789l1.08594.57421m13.5625 1.74219l-6.78125-1.82813m5.79687 1.5625l.27344 1.19531m13.10938.65235l-4.94532-4.99219m4.22656 4.26563l-.36718 1.17187m14.89062-1.05078l-5.92578-3.77734m5.92578 3.77734l-.19531 2.44531m-.66797-2.9961l-.09766 1.22267m14.50391-1.08985l-6.38281-2.94531m6.38281 2.94531l.13672 2.44922m-1.0664-2.875l.0703 1.22266m14.46876-1.83594l-6.97266-.86719m6.97266.86719l.875 2.29297m-1.89063-2.41797l.4414 1.14453m13.91407-1.36719l-7.02344-.17187m7.02344.17187l1.10156 2.19531m12.21485-2.24218l-7.02735-.07422m7.02735.07422l1.1289 2.17578m-2.14843-2.1875l.5625 1.08984m13.77343-1.16797l-7.02734.10547m7.02734-.10547l1.1836 2.14844m-2.20703-2.13281l.59375 1.07422m13.74218-1.1875l-7.01953.30078m7.01953-.30078l1.24219 2.11328m-2.26562-2.07031l.625 1.05859m13.71093-1.17188l-7.01562.44141m7.01562-.4414l1.28516 2.08984m-2.3086-2.02735l.64454 1.04688m13.67968-1.25781l-6.98828.73437m6.98828-.73437l1.3711 2.03515m-2.38672-1.92578l.6836 1.01563m13.55859-1.625l-6.8086 1.73828m6.8086-1.73828l1.65234 1.8164m-2.64453-1.5625l.82812.90625m13.53516-.88671l-6.92578 1.1914m6.92578-1.1914l1.5039 1.9375m-2.51171-1.76563l.7539.96875m13.52344.26953l-6.83203-1.63281m6.83203 1.63281l.61719 2.375m12.79297-3.3125l-7.02344.24219m7.02344-.24219l1.22656 2.125m11.35938-4.15234l-5.5625 4.29687m5.5625-4.29687l2.23437 1.01172m-3.04297-.38672l1.11719.50781m12.66016-1.51563l-4.8711 5.0625m4.8711-5.0625l2.35937.67188m11.35156-.21875l-5.66406 4.16016m4.83984-3.5547l1.10547.53126m12.99219 3.07812l-5.57812-4.26953m4.76562 3.64844l-.19922 1.21094m15.03125-3.08203l-6.98828.71093m5.97266-.60546l.68359 1.01953m12.78125-3.10157l-5.25781 4.66407m5.25781-4.66407l2.30078.85938m-3.0664-.17969l2.30078.85547m11.7578-1.5586l-5.21483 4.71094"/><g clip-path="url(#au)"><path fill="none" stroke="#000" stroke-linecap="round" stroke-linejoin="round" stroke-miterlimit="10" stroke-width=".5" d="M466.16797 318.1914l2.3086.83594"/></g><path fill="none" stroke="#000" stroke-linecap="round" stroke-linejoin="round" stroke-miterlimit="10" stroke-width=".5" d="M465.41016 318.8789l2.30859.83594m-3.0664-.15234l2.30468.83594"/><g clip-path="url(#av)"><path fill="#00f" fill-rule="evenodd" d="M268.40234 480.96484h8.6211v-10.14843h-8.6211v10.14843"/></g><path fill="azure" fill-rule="evenodd" d="M270.23438 472.65234h.83593v2.82032h3.28516v-2.82032h.83203v6.47657h-.83203v-2.91407h-3.28516v2.91407h-.83594v-6.47657"/><path fill="#ff3030" fill-rule="evenodd" d="M366.74219 432.14063h7.6914v-10.14454h-7.6914v10.14454"/><path fill="azure" fill-rule="evenodd" d="M368.57422 423.82813h.83203v5.73828h3.19531v.74218h-4.02734v-6.48046"/><path fill="#00f" fill-rule="evenodd" d="M414.86719 427.70313h8.6211v-10.14454h-8.6211v10.14454"/><path fill="azure" fill-rule="evenodd" d="M416.70313 419.39063h.83203v2.82421h3.28515v-2.82421h.83594v6.48046h-.83594v-2.91796h-3.28515v2.91796h-.83204v-6.48046"/><path fill="#ff3030" fill-rule="evenodd" d="M295.72656 414.38672h7.69531v-10.14453h-7.6953v10.14453"/><path fill="azure" fill-rule="evenodd" d="M297.5586 406.07422h.83593v5.74219h3.1914v.73828h-4.02734v-6.48047"/><path fill="#ff3030" fill-rule="evenodd" d="M189.20703 378.88281h7.6914v-10.14844h-7.6914v10.14844"/><path fill="azure" fill-rule="evenodd" d="M191.03906 370.5664h.83594v5.7422h3.1914v.73827h-4.02734v-6.48046"/><path fill="#ffffe0" fill-rule="evenodd" d="M380.77734 423.4961h22.1797v-10.19141h-22.1797v10.1914"/><path fill-rule="evenodd" d="M384.27734 415.13672h.50782v6.29687H384v-4.49218h-1.39063v-.5547l.5625-.0664.25-.05078.23047-.08984.20313-.14453.17578-.20704.14063-.29687.10546-.39453m4.8125 0l.23047.01953.21875.05469.20703.08984.19532.1211.1875.14843.16796.17578.3047.42188.24218.49219.17969.54687.11328.57813.03515.58984-.03515.59375-.11328.58594-.17969.55469-.24219.5-.30469.42968-.16796.17969-.1875.15234-.19532.125-.20703.08985-.21875.0586-.23047.01952-.23046-.01953-.21875-.0586-.20704-.08984-.1953-.125-.1836-.15234-.17188-.17969-.30078-.42969-.2461-.5-.17968-.55468-.10938-.58594-.03906-.59375h.83203l.03125.5664.08204.50391.125.4414.16015.375.1914.30079.21094.22266.22266.13671.22656.04688.22657-.04688.22265-.13671.21094-.22266.1914-.30078.16016-.375.1289-.4414.08204-.50391.02734-.56641-.02734-.5586-.08203-.5-.1289-.4375-.16016-.36327-.19141-.29297-.21094-.21485-.22265-.13281-.22657-.04297-.22656.04297-.22265.13281-.21094.21485-.1914.29296-.16017.36329-.125.4375-.08203.5-.03125.55859h-.83203l.03906-.58984.10938-.57813.17969-.54687.2461-.4922.30077-.42187.17188-.17578.1836-.14844.1953-.12109.20704-.08984.21875-.05469.23046-.01953m4.95313 0l.23047.01953.21875.05469.20703.08984.19531.1211.1836.14843.17187.17578.30469.42188.24219.49219.17968.54687.10938.57813.03906.58984-.03906.59375-.10938.58594-.17969.55469-.24218.5-.30469.42968-.17188.17969-.18359.15234-.19531.125-.20703.08985-.21875.0586-.23047.01952-.23047-.01953-.21875-.0586-.20703-.08984-.19531-.125-.1836-.15234-.17187-.17969-.30469-.42969-.24219-.5-.17969-.55468-.10937-.58594-.03906-.59375h.83203l.03125.5664.07812.50391.12891.4414.16016.375.1914.30079.21094.22266.22266.13671.22656.04688.22656-.04688.22266-.13671.21094-.22266.1914-.30078.16016-.375.1289-.4414.08204-.50391.02734-.56641-.02735-.5586-.08203-.5-.1289-.4375-.16016-.36327-.1914-.29297-.21094-.21485-.22266-.13281-.22656-.04297-.22656.04297-.22266.13281-.21094.21485-.1914.29296-.16016.36329-.1289.4375-.07813.5-.03125.55859h-.83203l.03906-.58984.10938-.57813.17968-.54687.24219-.4922.30469-.42187.17187-.17578.1836-.14844.1953-.12109.20704-.08984.21875-.05469.23047-.01953m4.95312 0l.38672.02734.35938.08203.32031.13672.28125.1875.23047.23828.17187.28516.10938.33203.03906.3789-.02344.27344-.05468.23438-.08985.19922-.10937.17187-.1289.14454-.14063.12109-.28907.19531.23438.1211.20703.14453.1836.17187.15234.19531.1211.21094.09374.23047.05469.2461.01953.2539-.03516.3086-.10156.32812-.17187.32422-.2422.30469-.30468.26953-.375.21484-.21094.08203-.23046.0625-.2422.03516-.26171.01562-.25781-.01562-.2422-.03516-.22655-.0625-.20313-.08203-.35937-.21484-.28907-.26954-.22265-.30468-.15625-.32422-.09375-.32813-.03125-.30859h.83203l.02734.2539.07813.23438.1211.21094.16015.1875.19531.15234.21875.11328.24219.07422.2539.02344.25391-.02344.24219-.07422.21875-.11328.1914-.15234.16407-.1875.12109-.21094.07813-.23437.02734-.25391-.02735-.2539-.07812-.23438-.1211-.21094-.16406-.1836-.1914-.15234-.21875-.11718-.24219-.07032-.2539-.02734-.25391.02734-.24219.07032-.21875.11718-.19531.15235-.16016.1836-.1211.21093-.07812.23437-.02734.25391h-.83203l.01953-.2539.05469-.23829.08984-.22656.125-.20703.15234-.1914.1836-.17188.20703-.15235.23047-.1328-.28516-.19532-.14062-.1211-.12891-.14453-.10938-.17187-.08984-.19922-.0586-.23438-.01952-.27343h.78906l.01953.21484.0664.1875.10548.16797.13671.14063.16407.10937.1875.08203.20703.05078.22265.01563.21875-.01563.20704-.05078.1914-.08203.16406-.10938.13672-.14062.10547-.16797.0625-.1875.02344-.21484-.02344-.21485-.0625-.1914-.10547-.16797-.13672-.14063-.16406-.10937-.1914-.08203-.20704-.05078-.21875-.01563-.22265.01563-.20703.05078-.1875.08203-.16407.10937-.13671.14063-.10547.16797-.06641.1914-.01953.21485h-.78906l.03906-.3789.10937-.33204.17188-.28516.23047-.23828.27734-.1875.32422-.13672.35938-.08203.38671-.02734"/><path fill="#ffffe0" fill-rule="evenodd" d="M252.97656 395.15234h22.17969v-10.1953h-22.17969v10.1953"/><path fill-rule="evenodd" d="M256.47656 386.79297h.50781v6.29297h-.78515v-4.48828h-1.39063v-.5547l.5625-.0664.25-.05469.23047-.08984.20313-.14062.17578-.21094.14062-.29297.10547-.39453m4.8125 0l.23047.01953.21875.05469.20703.08984.19531.1211.1875.14843.17188.17578.30078.41797.24219.4961.17969.54687.11328.57813.03515.58984-.03515.59375-.11328.58594-.1797.55078-.24218.5039-.30078.42579-.17188.17968-.1875.15625-.1953.1211-.20704.09375-.21875.05469-.23047.01953-.22656-.01954-.22266-.05468-.20703-.09375-.19531-.1211-.1836-.15625-.17187-.17968-.30078-.42579-.2461-.5039-.17968-.55078-.10938-.58594-.03906-.59375h.83203l.03125.5625.08203.50781.125.4414.16016.375.1914.30079.21094.22266.22266.13671.22656.04688.22656-.04688.22266-.13671.21094-.22266.1914-.30078.16407-.375.125-.4414.08203-.50782.02734-.5625-.02734-.5625-.08203-.5-.125-.4336-.16406-.36718-.19141-.29297-.21094-.21094-.22265-.13281-.22657-.04688-.22656.04688-.22266.13281-.21093.21094-.19141.29297-.16016.36719-.125.43359-.08203.5-.03125.5625h-.83203l.03906-.58984.10938-.57813.17969-.54687.24609-.4961.30078-.41797.17188-.17578.18359-.14844.19531-.12109.20703-.08984.22266-.05469.22656-.01953m4.95313 0l.23047.01953.21875.05469.20703.08984.19531.1211.1875.14843.16797.17578.30469.41797.24218.4961.1797.54687.10937.57813.03906.58984-.03906.59375-.10938.58594-.17969.55078-.24218.5039-.3047.42579-.16796.17968-.1875.15625-.19531.1211-.20703.09375-.21875.05469-.23047.01953-.23047-.01954-.21875-.05468-.20703-.09375-.19531-.1211-.1836-.15625-.17187-.17968-.3047-.42579-.24218-.5039-.17969-.55078-.10937-.58594-.03906-.59375h.83203l.03125.5625.07812.50781.1289.4414.16017.375.1914.30079.21094.22266.22265.13671.22657.04688.22656-.04688.22266-.13671.21093-.22266.19141-.30078.16016-.375.1289-.4414.08203-.50782.02735-.5625-.02735-.5625-.08203-.5-.1289-.4336-.16016-.36718-.1914-.29297-.21094-.21094-.22266-.13281-.22656-.04688-.22656.04688-.22266.13281-.21094.21094-.1914.29297-.16016.36719-.1289.43359-.07813.5-.03125.5625h-.83203l.03906-.58984.10937-.57813.1797-.54687.24218-.4961.30469-.41797.17187-.17578.1836-.14844.1953-.12109.20704-.08984.21875-.05469.23047-.01953m4.95312 0l.38672.02734.35938.08203.3203.13672.28126.1875.23047.23828.17187.28516.10938.33203.03906.375-.02344.27344-.05469.23828-.08984.19922-.10937.16797-.12891.14453-.14063.125-.28906.19531.23438.11719.20703.14844.1836.17187.15234.1914.125.21485.08984.23047.05469.24219.01953.25781-.03516.3086-.10156.32421-.17188.32813-.24218.30469-.30469.26953-.375.21484-.21094.08203-.23047.0586-.24218.03906-.26172.01172-.25781-.01172-.2422-.03906-.22656-.0586-.20312-.08203-.35938-.21484-.28906-.26954-.22265-.30468-.15625-.32813-.09375-.32422-.03125-.30859h.83203l.02734.2539.07813.23438.12109.21094.16016.1836.1953.15234.21876.11718.24219.07032.2539.02734.2539-.02734.2422-.07032.21875-.11718.1914-.15235.16406-.1836.1211-.21093.07812-.23437.02735-.25391-.02735-.2539-.07812-.23438-.1211-.21485-.16406-.18359-.1914-.15234-.21875-.11328-.2422-.07422-.2539-.02344-.2539.02344-.2422.07422-.21874.11328-.19531.15234-.16016.1836-.1211.21484-.07812.23437-.02734.25391h-.83203l.01953-.2539.05469-.2422.08984-.22265.125-.20703.15234-.1914.1836-.17188.20703-.15235.23047-.1328-.28516-.19532-.14063-.125-.1289-.14453-.10938-.16797-.08984-.19922-.0586-.23828-.01952-.27344h.78906l.01953.21485.0664.1914.10547.16797.13672.13672.16406.11328.19141.08203.20313.05078.22265.01563.21875-.01563.20703-.05078.19141-.08203.16406-.11328.13672-.13672.10547-.16797.0625-.1914.02344-.21485-.02344-.21484-.0625-.1914-.10547-.16407-.13672-.14063-.16406-.10937-.1914-.08203-.20704-.05078-.21875-.01954-.22265.01954-.20313.05078-.1914.08203-.16407.10937-.13672.14063-.10546.16406-.06641.1914-.01953.21485h-.78906l.03906-.375.10937-.33203.17188-.28516.23047-.23828.27734-.1875.32422-.13672.35937-.08203.38672-.02734"/><path fill="#ffffe0" fill-rule="evenodd" d="M190.83984 344.59766h22.1797v-10.19141h-22.1797v10.1914"/><path fill-rule="evenodd" d="M194.33984 336.24219h.50782v6.29297h-.78516v-4.48829h-1.39063v-.55859l.5625-.0625.25-.05469.23047-.08984.20313-.14063.17578-.21093.14063-.29297.10546-.39453m4.8125 0l.23047.01562.21875.0586.20703.08984.19532.11719.1875.15234.16797.17578.30468.41797.24219.49219.17969.54687.11328.58204.03516.58984-.03516.59375-.11328.58203-.17969.55469-.24219.5039-.30469.42579-.16796.17968-.1875.15235-.19532.125-.20703.09375-.21875.05468-.23047.01954-.23047-.01954-.21875-.05468-.20703-.09375-.1953-.125-.1836-.15235-.17188-.17969-.30078-.42578-.2461-.5039-.17968-.55469-.10938-.58203-.03906-.59375h.83203l.03125.5625.08203.50781.125.4414.16016.375.1914.30079.21095.21875.22265.14062.22656.04688.22657-.04688.22265-.14062.21094-.21875.1914-.30078.16016-.375.1289-.4414.08204-.50782.02734-.5625-.02734-.5625-.08203-.5-.1289-.4336-.16016-.36718-.19141-.29297-.21094-.21485-.22265-.1289-.22657-.04688-.22656.04688-.22266.1289-.21093.21485-.1914.29297-.16017.36719-.125.43359-.08203.5-.03125.5625h-.83203l.03906-.58985.10938-.58203.17969-.54687.2461-.49219.30077-.41797.17188-.17578.1836-.15234.1953-.11719.20703-.08984.21875-.0586.23047-.01562m4.95313 0l.23047.01562.21875.0586.20703.08984.19531.11719.1836.15234.17187.17578.30469.41797.24219.49219.17968.54687.10938.58204.03906.58984-.03906.59375-.10938.58203-.17969.55469-.24218.5039-.30469.42579-.17188.17968-.18359.15235-.19531.125-.20703.09375-.21875.05468-.23047.01954-.23047-.01954-.21875-.05468-.20703-.09375-.19531-.125-.1836-.15235-.17187-.17969-.30469-.42578-.24219-.5039-.17969-.55469-.10937-.58203-.03906-.59375h.83203l.03125.5625.07812.50781.12891.4414.16016.375.1914.30079.21094.21875.22266.14062.22656.04688.22656-.04688.22266-.14062.21094-.21875.1914-.30078.16016-.375.1289-.4414.08203-.50782.02735-.5625-.02734-.5625-.08204-.5-.1289-.4336-.16016-.36718-.1914-.29297-.21094-.21485-.22266-.1289-.22656-.04688-.22656.04688-.22266.1289-.21094.21485-.1914.29297-.16016.36719-.1289.43359-.07813.5-.03125.5625h-.83203l.03906-.58985.10938-.58203.17968-.54687.24219-.49219.30469-.41797.17187-.17578.1836-.15234.1953-.11719.20704-.08984.21875-.0586.23047-.01562m4.95312 0l.38672.02734.35938.08203.32031.13672.28125.1875.23047.23438.17187.28515.10938.33594.03906.375-.02344.27344-.05468.23437-.08985.20313-.10937.16797-.1289.14453-.14063.1211-.28907.19921.23438.11719.20703.14844.1836.17187.15234.1914.1211.21485.09374.23047.05469.24219.01953.2578-.03516.3086-.10156.32422-.17187.32813-.2422.30468-.30468.26954-.375.21484-.21094.08203-.23047.0586-.24218.03906-.26172.01171-.26172-.01171-.23828-.03907-.22656-.05859-.20313-.08203-.35937-.21485-.28907-.26953-.22265-.30468-.16016-.32813-.08984-.32422-.03125-.3086h.83203l.02734.25.07813.23829.1211.21094.16015.1836.19531.15233.21875.1172.24219.0703.2539.02735.25391-.02735.24219-.0703.21875-.1172.1914-.15234.16407-.1836.12109-.21093.07813-.23828.02734-.25-.02734-.2539-.07813-.23438-.1211-.21485-.16406-.18359-.1914-.15234-.21875-.11329-.24219-.07421-.2539-.02344-.25391.02344-.24219.07421-.21875.11329-.19531.15234-.16016.1836-.1211.21484-.07812.23437-.02734.2539h-.83203l.01953-.2539.05469-.24219.08984-.22265.125-.20703.15234-.1914.1836-.17188.20703-.15235.23047-.13281-.28516-.19922-.14062-.1211-.12891-.14452-.10938-.16797-.08984-.20313-.0586-.23437-.01952-.27344h.78515l.02344.21484.0664.19141.10548.16797.13671.13672.16407.11328.1875.08203.20703.05078.22265.01563.21875-.01563.20703-.05078.19141-.08203.16406-.11328.13672-.13672.10156-.16797.06641-.1914.02344-.21485-.02344-.21484-.0664-.19141-.10157-.16406-.13672-.14063-.16406-.11328-.1914-.08203-.20704-.04688-.21875-.01953-.22265.01954-.20703.04687-.1875.08203-.16407.11328-.13672.14063-.10546.16406-.06641.1914-.02344.21485h-.78515l.03906-.375.10937-.33594.17188-.28515.23047-.23438.27734-.1875.32422-.13672.35938-.08203.38671-.02734"/><path fill="#ffffe0" fill-rule="evenodd" d="M212.52344 423.4961h22.17969v-10.19141h-22.1797v10.1914"/><path fill-rule="evenodd" d="M216.02344 415.13672h.50781v6.29687h-.78516v-4.49218h-1.39062v-.5547l.5625-.0664.25-.05078.23047-.08984.20312-.14453.17578-.20704.14063-.29687.10547-.39453m4.8125 0l.23047.01953.21875.05469.20703.08984.19922.1211.18359.14843.17188.17578.30078.42188.24218.49219.1797.54687.11327.57813.03906.58984-.03906.59375-.11328.58594-.17969.55469-.24218.5-.30078.42968-.17188.17969-.1836.15234-.19921.125-.20703.08985-.21875.0586-.23047.01952-.22656-.01953-.21875-.0586-.21094-.08984-.19531-.125-.1836-.15234-.17187-.17969-.30078-.42969-.2461-.5-.17969-.55468-.10937-.58594-.03906-.59375h.83203l.03125.5664.08203.50391.125.4414.16406.375.1875.30079.21094.22266.22266.13671.22656.04688.22656-.04688.22266-.13671.21093-.22266.19141-.30078.16406-.375.125-.4414.08203-.50391.02735-.56641-.02735-.5586-.08203-.5-.125-.4375-.16406-.36327-.1914-.29297-.21094-.21485-.22266-.13281-.22656-.04297-.22656.04297-.22266.13281-.21094.21485-.1875.29296-.16406.36329-.125.4375-.08203.5-.03125.55859h-.83203l.03906-.58984.10937-.57813.1797-.54687.24608-.4922.30079-.42187.17187-.17578.1836-.14844.1953-.12109.21095-.08984.21875-.05469.22656-.01953m4.95312 0l.23047.01953.21875.05469.20703.08984.19531.1211.1875.14843.16797.17578.3047.42188.24218.49219.17969.54687.11328.57813.03515.58984-.03515.59375-.11328.58594-.1797.55469-.24218.5-.30469.42968-.16797.17969-.1875.15234-.1953.125-.20704.08985-.21875.0586-.23047.01952-.23047-.01953-.21875-.0586-.20703-.08984-.19531-.125-.1836-.15234-.17187-.17969-.30078-.42969-.2461-.5-.17968-.55468-.10938-.58594-.03906-.59375h.83203l.03125.5664.08203.50391.125.4414.16016.375.1914.30079.21094.22266.22266.13671.22656.04688.22656-.04688.22266-.13671.21094-.22266.1914-.30078.16016-.375.1289-.4414.08204-.50391.02734-.56641-.02734-.5586-.08203-.5-.1289-.4375-.16017-.36327-.1914-.29297-.21094-.21485-.22266-.13281-.22656-.04297-.22656.04297-.22266.13281-.21093.21485-.19141.29296-.16016.36329-.125.4375-.08203.5-.03125.55859h-.83203l.03906-.58984.10938-.57813.17969-.54687.24609-.4922.30078-.42187.17188-.17578.18359-.14844.19531-.12109.20703-.08984.21875-.05469.23047-.01953m4.95313 0l.38672.02734.35937.08203.32422.13672.27734.1875.23047.23828.17188.28516.10937.33203.03906.3789-.01953.27344-.05859.23438-.08984.19922-.10938.17187-.1289.14454-.14063.12109-.28516.19531.23047.1211.20703.14453.1836.17187.15234.19531.125.21094.08984.23047.0547.2461.01952.2539-.03515.3086-.10156.32812-.17188.32422-.24219.30469-.30469.26953-.375.21484-.21093.08203-.22656.0625-.2461.03516-.26172.01562-.25781-.01562-.24219-.03516-.22265-.0625-.20703-.08203-.35938-.21484-.28906-.26954-.22266-.30468-.15625-.32422-.09375-.32813-.03125-.30859h.83203l.02735.2539.07812.23438.1211.21094.16015.1875.19531.15234.21875.11328.2422.07422.2539.02344.2539-.02344.2422-.07422.21874-.11328.19531-.15234.16016-.1875.1211-.21094.07812-.23437.02734-.25391-.02734-.2539-.07813-.23438-.12109-.21094-.16016-.1836-.1953-.15234-.21876-.11718-.24219-.07032-.2539-.02734-.2539.02734-.2422.07032-.21875.11718-.1953.15235-.16017.1836-.12109.21093-.07812.23437-.02735.25391h-.83203l.01953-.2539.05469-.23829.08984-.22656.125-.20703.15235-.1914.1836-.17188.20702-.15235.23438-.1328-.28906-.19532-.14063-.1211-.1289-.14453-.10938-.17187-.08984-.19922-.0586-.23438-.01953-.27343h.78906l.02344.21484.0625.1875.10547.16797.13672.14063.16406.10937.1914.08203.20704.05078.21875.01563.21875-.01563.20703-.05078.1914-.08203.16407-.10938.13672-.14062.10547-.16797.0664-.1875.01953-.21484-.01953-.21485-.0664-.1914-.10547-.16797-.13672-.14063-.16406-.10937-.19141-.08203-.20703-.05078-.21875-.01563-.21875.01563-.20703.05078-.19141.08203-.16406.10937-.13672.14063-.10547.16797-.0625.1914-.02344.21485h-.78906l.03906-.3789.10938-.33204.17187-.28516.23047-.23828.28125-.1875.32031-.13672.35938-.08203.38672-.02734"/><path fill="#ffffe0" fill-rule="evenodd" d="M332.86719 455.17969h22.17969v-10.1914h-22.1797v10.1914"/><path fill-rule="evenodd" d="M336.36719 446.82031h.50781v6.29688h-.78516V448.625h-1.39062v-.55469l.5625-.0664.25-.05079.23047-.08984.20312-.14453.17578-.20703.14063-.29688.10547-.39453m4.8125 0l.23047.01953.21875.0547.20703.08983.19531.1211.1875.14844.16797.17578.30469.42187.24218.49219.1797.54688.11327.57812.03516.59375-.03516.58984-.11328.58594-.17969.55469-.24218.5-.3047.42969-.16796.17968-.1875.15235-.19531.125-.20703.08984-.21875.0586-.23047.01953-.23047-.01954-.21875-.05859-.20703-.08984-.19531-.125-.1836-.15235-.17187-.17968-.30079-.4297-.24609-.5-.17969-.55468-.10937-.58594-.03906-.58984h.83203l.03125.5625.08203.5039.125.44532.16015.3711.19141.30077.21094.22266.22265.13672.22657.04687.22656-.04687.22266-.13672.21093-.22266.19141-.30078.16016-.3711.1289-.4453.08203-.50391.02735-.5625-.02735-.5625-.08203-.5-.1289-.4375-.16016-.36328-.1914-.29297-.21094-.21484-.22266-.13282-.22656-.04296-.22656.04296-.22266.13282-.21094.21484-.1914.29297-.16016.36328-.125.4375-.08203.5-.03125.5625h-.83203l.03906-.59375.10937-.57813.1797-.54687.24608-.49219.30079-.42187.17187-.17578.1836-.14844.1953-.1211.20704-.08984.21875-.05469.23047-.01953m4.95312 0l.23047.01953.21875.0547.20703.08983.19531.1211.1836.14844.17187.17578.3047.42187.24218.49219.17969.54688.10937.57812.03906.59375-.03906.58984-.10937.58594-.1797.55469-.24218.5-.30469.42969-.17187.17968-.1836.15235-.1953.125-.20704.08984-.21875.0586-.23047.01953-.23047-.01954-.21875-.05859-.20703-.08984-.19531-.125-.1836-.15235-.17187-.17968-.30469-.4297-.24218-.5-.1797-.55468-.10937-.58594-.03906-.58984h.83203l.03125.5625.07813.5039.1289.44532.16016.3711.1914.30077.21094.22266.22266.13672.22656.04687.22656-.04687.22266-.13672.21094-.22266.1914-.30078.16016-.3711.1289-.4453.08204-.50391.02734-.5625-.02734-.5625-.08203-.5-.1289-.4375-.16017-.36328-.1914-.29297-.21094-.21484-.22265-.13282-.22657-.04296-.22656.04296-.22266.13282-.21093.21484-.19141.29297-.16016.36328-.1289.4375-.07813.5-.03125.5625h-.83203l.03906-.59375.10938-.57813.17969-.54687.24218-.49219.3047-.42187.17187-.17578.18359-.14844.19531-.1211.20703-.08984.21875-.05469.23047-.01953m4.95313 0l.38672.02735.35937.08203.32031.13672.28125.1875.23047.23828.17188.28515.10937.33204.03906.3789-.02343.27344-.05469.23437-.08984.19922-.10938.17188-.1289.14453-.14063.1211-.28906.1953.23437.1211.20703.14453.1836.17188.15234.1953.1211.21094.09375.23047.05468.2461.01953.2539-.03515.3086-.10156.32812-.17188.32422-.24219.3086-.30469.26562-.375.21484-.21093.08204-.23047.0625-.24219.03515-.26172.01563-.25781-.01563-.24219-.03515-.22656-.0625-.20313-.08204-.35937-.21484-.28906-.26563-.22266-.30859-.16015-.32422-.08985-.32812-.03125-.3086h.83203l.02735.25391.07812.23438.1211.21093.16015.1875.19531.15235.21875.11328.2422.07422.2539.02343.2539-.02343.2422-.07422.21874-.11328.1914-.15235.16407-.1875.1211-.21094.07812-.23437.02734-.2539-.02734-.25391-.07813-.23438-.12109-.21094-.16406-.18359-.1914-.15234-.21876-.11719-.24219-.07031-.2539-.02735-.2539.02735-.2422.07031-.21875.11719-.1953.15234-.16017.1836-.12109.21093-.07812.23438-.02735.2539h-.83203l.01953-.2539.05469-.23828.08984-.22657.125-.20703.15235-.1914.1836-.17188.20702-.15234.23047-.13281-.28515-.19532-.14063-.1211-.1289-.14452-.10938-.17188-.08985-.19922-.05859-.23437-.01953-.27344h.78906l.01953.21485.06641.1914.10547.16406.13672.14063.16406.10937.1875.08204.20703.05078.22266.01562.21875-.01562.20703-.05079.1914-.08203.16407-.10937.13672-.14063.10156-.16406.0664-.1914.02344-.21485-.02344-.21484-.0664-.1914-.10156-.16798-.13672-.14062-.16406-.10938-.19141-.08203-.20703-.05078-.21875-.01563-.22266.01563-.20703.05078-.1875.08203-.16406.10938-.13672.14062-.10547.16797-.0664.1914-.01954.21485h-.78906l.03906-.3789.10938-.33204.17187-.28515.23047-.23828.27735-.1875.32421-.13672.35938-.08203.38672-.02735"/><path fill="#ffffe0" fill-rule="evenodd" d="M323.99219 357.92188h22.17969v-10.19141h-22.1797v10.1914"/><path fill-rule="evenodd" d="M327.48828 349.5625H328v6.29688h-.78906v-4.48829h-1.38672v-.55859l.5586-.0625.2539-.05469.22656-.08984.20703-.14063.17188-.21093.14062-.29297.10547-.39844m4.8164 0l.22657.01953.21875.0586.21094.08593.19531.1211.1836.15234.17187.17578.30078.41797.2461.49219.17968.54687.10938.58203.03906.58985-.03906.59375-.10938.58203-.17969.55469-.24609.5039-.30078.42578-.17188.1797-.18359.15233-.19531.125-.21094.09375-.21875.0547-.22656.01952-.23047-.01953-.21875-.05469-.20703-.09375-.19922-.125-.1836-.15234-.17187-.17969-.30078-.42578-.24219-.5039-.17969-.5547-.11328-.58202-.03515-.59375h.83203l.02734.5625.08203.50781.125.4414.16406.375.19141.30079.21094.21875.22265.13672.22657.04687.22656-.04687.22266-.13672.21093-.21875.1875-.30078.16407-.375.125-.44141.08203-.50781.03125-.5625-.03125-.5625-.08203-.5-.125-.4336-.16407-.36718-.1875-.29297-.21093-.21485-.22266-.1289-.22656-.04688-.22656.04688-.22266.1289-.21094.21485-.1914.29297-.16407.36718-.125.4336-.08203.5-.02734.5625h-.83203l.03515-.58985.11328-.58203.1797-.54687.24218-.49219.30078-.41797.17188-.17578.18359-.15234.19922-.1211.20703-.08594.21875-.05859.23047-.01953m5.08984 0h.50781v6.29688h-.78515v-4.48829h-1.38672v-.55859l.5586-.0625.25-.05469.23046-.08984.20313-.14063.17578-.21093.14062-.29297.10547-.39844m2.82422 2.17578h.78516l.01953-.3164.0625-.28516.09765-.2539.14063-.21485.17969-.17188.22265-.1289.26563-.08203.3086-.02735.23827.02344.22266.0625.20703.10156.17578.13672.14844.17188.11328.20703.07422.23828.02344.26172-.01954.26953-.0664.22656-.10938.1914-.15625.16798-.20312.16406-.2461.16797-.6328.38672-.53907.3125-.4375.3164-.34375.32422-.26563.33594-.1914.35156-.125.3711-.0664.39453-.02344.41796h4.21484v-.74218h-3.33203l.08203-.28125.11328-.23828.14844-.20313.1875-.17969.23047-.17187.27734-.17578.71875-.41406.41406-.20704.34766-.23046.27734-.25.22266-.26954.16406-.27734.10938-.28125.0625-.28516.02343-.28125-.04296-.38671-.1211-.34766-.1875-.30469-.2539-.26562-.30079-.21094-.34375-.16016-.3828-.09765-.40626-.03516-.4336.03516-.39843.09765-.35547.16797-.30469.23438-.25.30468-.18359.3711-.11719.44922-.03906.51562"/><path fill="#ffffe0" fill-rule="evenodd" d="M323.99219 326.78125h22.17969v-10.1914h-22.1797v10.1914"/><path fill-rule="evenodd" d="M327.48828 318.42188H328v6.29687h-.78906v-4.49219h-1.38672v-.55469l.5586-.0625.2539-.05468.22656-.08985.20703-.14062.17188-.21094.14062-.29297.10547-.39844m4.8164 0l.22657.01954.21875.05468.21094.08985.19531.1211.1836.15233.17187.17579.30078.41796.2461.4922.17968.54687.10938.57812.03906.59375-.03906.59375-.10938.58203-.17969.5547-.24609.5039-.30078.42578-.17188.17969-.18359.15234-.19531.125-.21094.08984-.21875.0586-.22656.01953-.23047-.01953-.21875-.0586-.20703-.08984-.19922-.125-.1836-.15234-.17187-.1797-.30078-.42577-.24219-.5039-.17969-.5547-.11328-.58203-.03515-.59375h.83203l.02734.5625.08203.5039.125.44532.16406.375.19141.30078.21094.21875.22265.13672.22657.04688.22656-.04688.22266-.13672.21093-.21875.1875-.30078.16407-.375.125-.44531.08203-.5039.03125-.5625-.03125-.5625-.08203-.5-.125-.4336-.16407-.36719-.1875-.29297-.21093-.21484-.22266-.1289-.22656-.04688-.22656.04687-.22266.1289-.21094.21485-.1914.29297-.16407.36719-.125.4336-.08203.5-.02734.5625h-.83203l.03515-.59376.11328-.57812.1797-.54688.24218-.49219.30078-.41796.17188-.17579.18359-.15234.19922-.1211.20703-.08984.21875-.05468.23047-.01954m5.08984 0h.50781v6.29688h-.78515v-4.49219h-1.38672v-.55469l.5586-.0625.25-.05468.23046-.08985.20313-.14062.17578-.21094.14062-.29297.10547-.39844m6.80469 1.6211h-.78516l-.05469-.21094-.08203-.1875-.10546-.16015-.12891-.12891-.14844-.10547-.16015-.07422-.16797-.04297-.17188-.01562-.32812.03906-.28907.1211-.24609.1953-.20313.26954-.16015.33984-.11328.40235-.07031.46875-.02344.52343.1875-.19922.1875-.16015.1836-.125.1875-.08594.1875-.0625.1914-.03516.40234-.02343.30469.02734.32031.09375.3164.15625.29688.21875.2539.28516.19923.35156.07031.19922.05469.21875.02734.23437.00781.25-.78906.04688-.02734-.25781-.07813-.25391-.1211-.23438-.16015-.21093-.19531-.17579-.21875-.13671-.23828-.08985-.25781-.03125-.25391.03125-.24219.08985-.21875.13671-.1914.17579-.16016.21093-.125.23438-.07813.2539-.02343.25782.02344.25781.07812.25.125.23438.16016.21093.1914.17969.21875.13672.24219.08594.2539.03125.25782-.03125.23828-.08594.21875-.13672.19531-.17969.16016-.21094.1211-.23437.07812-.25.02734-.25781.78906-.04688-.03125.3711-.09375.37109-.15625.35938-.22265.32812-.29297.28125-.16797.1211-.1875.10156-.20703.08203-.22266.0625-.24219.03906-.26171.01172-.28125-.01563-.26172-.04687-.23828-.07813-.21485-.10156-.19531-.13281-.17188-.15625-.15625-.17969-.1328-.20312-.1172-.22266-.10156-.24219-.14453-.53515-.08594-.59375-.02734-.64063.03906-.74219.11328-.66406.1875-.57812.1211-.25391.13672-.23047.15234-.20703.17188-.1836.18359-.15234.20312-.1289.21875-.10547.23047-.07031.25-.04688.26172-.01563.36719.03516.33203.09375.29297.15235.25781.19921.21094.2422.16406.27343.11719.30469.0625.3203"/></g></defs><use xlink:href="#aw"/></svg>