<svg xmlns="http://www.w3.org/2000/svg" role="img" xmlns:xlink="http://www.w3.org/1999/xlink" viewBox="142.45 309.95 326.84 171.84"><defs><clipPath id="a"><path d="M144 439h1v41.32813h-1zm0 0"/></clipPath><clipPath id="b"><path d="M144 311.67188h1V434h-1zm0 0"/></clipPath><clipPath id="c"><path d="M144 311.67188h324v168.65625H144zm0 0"/></clipPath><clipPath id="d"><path d="M467 311.67188h1v168.65625h-1zm0 0"/></clipPath><clipPath id="e"><path d="M144 479h4v1.32813h-4zm0 0"/></clipPath><clipPath id="f"><path d="M147 480h2v.32813h-2zm0 0"/></clipPath><clipPath id="g"><path d="M153 479h8v1.32813h-8zm0 0"/></clipPath><clipPath id="h"><path d="M160 480h2v.32813h-2zm0 0"/></clipPath><clipPath id="i"><path d="M166 479h9v1.32813h-9zm0 0"/></clipPath><clipPath id="j"><path d="M173 480h3v.32813h-3zm0 0"/></clipPath><clipPath id="k"><path d="M180 479h8v1.32813h-8zm0 0"/></clipPath><clipPath id="l"><path d="M187 480h2v.32813h-2zm0 0"/></clipPath><clipPath id="m"><path d="M193 479h9v1.32813h-9zm0 0"/></clipPath><clipPath id="n"><path d="M200 480h2v.32813h-2zm0 0"/></clipPath><clipPath id="o"><path d="M206 479h9v1.32813h-9zm0 0"/></clipPath><clipPath id="p"><path d="M213 480h3v.32813h-3zm0 0"/></clipPath><clipPath id="q"><path d="M220 479h8v1.32813h-8zm0 0"/></clipPath><clipPath id="r"><path d="M227 480h2v.32813h-2zm0 0"/></clipPath><clipPath id="s"><path d="M233 479h8v1.32813h-8zm0 0"/></clipPath><clipPath id="t"><path d="M240 480h2v.32813h-2zm0 0"/></clipPath><clipPath id="u"><path d="M246 479h9v1.32813h-9zm0 0"/></clipPath><clipPath id="v"><path d="M252 480h2v.32813h-2zm0 0"/></clipPath><clipPath id="w"><path d="M260 479h8v1.32813h-8zm0 0"/></clipPath><clipPath id="x"><path d="M266 480h2v.32813h-2zm0 0"/></clipPath><clipPath id="y"><path d="M273 479h8v1.32813h-8zm0 0"/></clipPath><clipPath id="z"><path d="M279 480h2v.32813h-2zm0 0"/></clipPath><clipPath id="A"><path d="M286 478h8v2.32813h-8zm0 0"/></clipPath><clipPath id="B"><path d="M300 478h8v2.32813h-8zm0 0"/></clipPath><clipPath id="C"><path d="M314 477h6v3.32813h-6zm0 0"/></clipPath><clipPath id="D"><path d="M329 476h2v4.32813h-2zm0 0"/></clipPath><clipPath id="E"><path d="M341 477h5v3.32813h-5zm0 0"/></clipPath><clipPath id="F"><path d="M353 478h8v2.32813h-8zm0 0"/></clipPath><clipPath id="G"><path d="M353 480h3v.32813h-3zm0 0"/></clipPath><clipPath id="H"><path d="M367 477h7v3.32813h-7zm0 0"/></clipPath><clipPath id="I"><path d="M380 479h8v1.32813h-8zm0 0"/></clipPath><clipPath id="J"><path d="M380 479h2v1.32813h-2zm0 0"/></clipPath><clipPath id="K"><path d="M393 479h8v1.32813h-8zm0 0"/></clipPath><clipPath id="L"><path d="M391 478h3v2.32813h-3zm0 0"/></clipPath><clipPath id="M"><path d="M406 479h9v1.32813h-9zm0 0"/></clipPath><clipPath id="N"><path d="M407 478h2v2.32813h-2zm0 0"/></clipPath><clipPath id="O"><path d="M420 477h7v3.32813h-7zm0 0"/></clipPath><clipPath id="P"><path d="M434 477h5v3.32813h-5zm0 0"/></clipPath><clipPath id="Q"><path d="M447 478h7v2.32813h-7zm0 0"/></clipPath><clipPath id="R"><path d="M459 479h9v1.32813h-9zm0 0"/></clipPath><clipPath id="S"><path d="M460 478h2v2.32813h-2zm0 0"/></clipPath><clipPath id="T"><path d="M144 466h4v2h-4zm0 0"/></clipPath><clipPath id="U"><path d="M144 452h4v4h-4zm0 0"/></clipPath><clipPath id="V"><path d="M144 438h4v5h-4zm0 0"/></clipPath><clipPath id="W"><path d="M144 425h4v4h-4zm0 0"/></clipPath><clipPath id="X"><path d="M466 424h2v3h-2zm0 0"/></clipPath><clipPath id="Y"><path d="M144 412h4v3h-4zm0 0"/></clipPath><clipPath id="Z"><path d="M465 411h3v2h-3zm0 0"/></clipPath><clipPath id="aa"><path d="M144 399h4v3h-4zm0 0"/></clipPath><clipPath id="ab"><path d="M466 398h2v2h-2zm0 0"/></clipPath><clipPath id="ac"><path d="M465 398h3v3h-3zm0 0"/></clipPath><clipPath id="ad"><path d="M144 384h4v6h-4zm0 0"/></clipPath><clipPath id="ae"><path d="M466 384h2v3h-2zm0 0"/></clipPath><clipPath id="af"><path d="M465 385h3v3h-3zm0 0"/></clipPath><clipPath id="ag"><path d="M144 372h4v4h-4zm0 0"/></clipPath><clipPath id="ah"><path d="M466 371h2v3h-2zm0 0"/></clipPath><clipPath id="ai"><path d="M144 359h4v3h-4zm0 0"/></clipPath><clipPath id="aj"><path d="M466 358h2v3h-2zm0 0"/></clipPath><clipPath id="ak"><path d="M144 346h4v3h-4zm0 0"/></clipPath><clipPath id="al"><path d="M466 345h2v3h-2zm0 0"/></clipPath><clipPath id="am"><path d="M144 332h4v4h-4zm0 0"/></clipPath><clipPath id="an"><path d="M466 332h2v3h-2zm0 0"/></clipPath><clipPath id="ao"><path d="M144 319h2v3h-2zm0 0"/></clipPath><clipPath id="ap"><path d="M466 318h2v2h-2zm0 0"/></clipPath><clipPath id="aq"><path d="M465 318h3v3h-3zm0 0"/></clipPath><g id="ar" clip-path="url(#clip1)"><path fill="#fff" fill-opacity="0" fill-rule="evenodd" d="M0 0h1000v1000H0zm0 0"/><path fill="#d3d3d3" fill-opacity="0" fill-rule="evenodd" d="M162.15234 355.86719l-.23437.29297.0586.23437.11718.17188.17578.23437.29297.34766.11328.0586.11719-.17188.0586-.23438.17577-.17578.46485-.17578h.69922l.23437.29297.28906.8164.0586.17579.17578.23046.35156.23438.69922.69922.17188.17578.23437.34765.23438.41016.28906.58203.41015.46485.23047.23437.23438.17578.11719.23047.17578.29297.17187 1.16406v.23438l.0586.28906.05859.11719.11719.11719.34765.41015.11719.17188.17578.17578.17578.23437.11719.17188.17188.35156.05859.23438.23437.40625.23438-.0586-.17578.17578-.0586.92969h-.58203l-.23437-.11328-.34766.11328-.11719.11719-.05859.29297-.0586.17578-.11718.17187-.46484.29297-.0586.23438-.0586.11328v.64453l.0586.17187v.41016l.0586.0586v.40624l.05859.40625.11719.17579.05859.05859.23047.64062-.0586.29297v.69922l-.05859.58203v.23438l-.0586.23047-.05468.35156v1.92187l.05469.1172h.42578l-.36719.11718-.02344.35156.89063 1.16797 1.74219.53906 1.33984.35938v.53906l.08984.8086.53516.71484 1.51953.26953.89063-.08594.08984 1.16406.53516.1797 1.16015-.1797 2.05469-.98437 1.16016-.36328 1.8789-.17578 1.69531-.1797-.17968.71876-1.51563.08594-1.25.08984-.80469.26953-1.07421.8086.26953.71875.53515.89843-.17968.625-.26563.8086.26563 1.07812.625.89844.80468.17969 1.25-.1797-.26562.72267.09766.5039.05468.29297v.17188l.0586.29296v.40625l.17578.1172.35156.11718h.40625l.29297-.17578.11328-.11719.0586-.11719.11718-.23047.0586-.17578.35156-.46484.23047-.17578.17578-.0586.17578.0586.0586.17578.11718.98828.05469.46875.0586.17188.11718.23437.17578.0586.8164.05859h.28907l.11719.23437.05859.40625.0586.35156v1.10547l.11718.29297.11719.34766.28906.69922.17578.35156.58203.7539.35157.17579.17187.0586.46875.23437.64063.46484.34765.23438.29297.17578.29297.05468.23047.0625.8164.34766.29297.17578.11328.17188.35157.35156.11719.17578.52343.64063v.28906l.0586.35156v.34766l.05859.35156.0586.28906.11718.0586.17188.05859h.17578l.58203.23437.17578.1172.17578.28905.17578.23438.11328.23437.29297.23047.11719.11719v.41016l.0586.05468.28906.23438.23437.11719.0586.11718.11718.17188.0586.11719.23047.23437.05859.17578.23437.0586.1172.05859-.1172.11328-.05859.11719v.11719l-.11719.29296-.11719.28907v.58203l.17579.11719.11718.05859.0586.11719.11719.11719.11328.05859.17578.34765.0586.35157.05858.40625v.17578l-.05859.17578-.11719.69922v.17187l.1172.17579.29296.29296h.40625l.17578.1172.11719.17187.11719.29296v.23438h-.52735l-.23047-.23438h-.23437l-.17578.0586-.0586.69922.0586.34765.11719.17579.17578.41015.11718.23047.28907.46875.17578.05469h.52344l.23437.0586.75781.64062.0586.29296v.23438l.05859.0586.23047.34765v.35156l-.11719.17188v.29297l.29297.28906.29297.17578.17187.0586.29297.17577.29297.1172.58203.40624.28906.23438.29297.17578.21875.16015.01563.01172.23047.17579.64062.52343.17578.23438.1172.17578.17577.17578.11328.17188v.64062l.1172.17578.46874.11719.58203.11719.23438.05859.23047.11328.29297.11719.11328.0586.58593.35156.28907.17187.17578.0625.17578.05469.17578.0586.69922.35155.28906.17579.23438.05468.28906.17578.23437.1172.64063.40624.29297.11719.17187.0586.23438.05859.41015.05859.23047.0586.23438.11718.0586.17188-.41017.17578.46875.0586.0586.29296.11328.23438.17578.05468.23438.0586.17578.05859.40625.11719.64062.23437.11719.17188.0586.23437v.17578l-.0586.1172-.0586.40624.23438.23438.11719.05859.34766.11719.64062.23047.17578.11718.28906.1172.17578.17577.23438.46485.58203 1.10546.17578.17579.34766.17578.17578.11719.35156.11718 1.04688.52344.23437.0586.46485.11327.29297.0586.46484.17578.75781.58203.23438.23438.34765.46484.17578.17578.28907.23438.8164.69921.29297.17579.28906.28906.29297.17578.29297.28906.69531.64063.17578.17578.29297.23437.28907.23438.46875.28906.64062.58203.34766.23438.23437.29297.34766.34765.35156.46485.9336.99218.34765.40625.11719.17579.23437.05859.11328.11719.64454.17578.23047.11328.23437.0586.29297.17577.23047.1172.9336.69921.40624.40625.23438.17578.40625.17578.23437.11719.8164.34766.34766.23437.23438.11719.29297.28906.23047.11719.7578.35156.35157.17188.23047.05859.29297.11719.23437.0586.8711.17577h.8164l.46875.23047.17188.0586.875.69921.46484.1172.29297.05858.17578.0586.23047.0586.46875.05859.34766.05859.35156.0586.40625.05859h.29297l.17187.0586v.23046l.17578.17578h.29297l.34766.0586.35156.05859.69922.11719h.64063l.46484-.23438.29297-.17578.17187-.11719.41016-.17187.28906-.17578.9336-.46485.46875-.29297.52343-.29296.46485-.17188.46484-.17578 1.05078-.46485.28906-.11718.41016-.11719.28906-.11719.52735-.17578 1.51562-.69922.58203-.34765.28907-.0586.29297-.0586.34765-.11718.875-.23047.35156-.11719h.11329l.23437-.05859.875-.23437.23438-.0586h.8125l.35156-.0586.8164-.11718.17188-.0586.35156-.05468.29297-.0586.23047-.05859.8164-.17578.17579-.0586h.34765l.23438-.05859.46484-.11718.75781-.17188.23438-.0586h.34765l.41016-.11718.28906-.0586 1.28516-.05859h.28906l.41016-.0586.23047-.05858h.17578l.875-.1172h.40625l.41015-.11718h.34766l.35156-.11328.8711-.0586h1.75l1.04687.28907.41016.11719.28906.11718.35156.11719.28907.11719 1.05078.17187.28906.0586h.29297l.29297.05859.17187.0586.41016.05859.17187.0586.1172.05858h.11718l.11719.0586.35156.0586h.11328l.41016.0664 1.92187.39453 1.92578.39453 1.51953.44922 1.69532.71875 2.14453.80469 1.60547-.71875 1.42968-.80469 1.16016-1.07813 1.25-.44921 3.03516-.71875 1.875-.35938 2.14453-1.34765 2.23437-1.25391 2.5-1.25781 1.69531-.44922 1.78516-.17969 1.16016-.26953.625.53906 1.33984-.26953.71485-.98828.98437-1.34375.44531-.17969.80469-.35937 1.875-.53907 1.78516-.44921 1.25-.26954 1.16015-.08984 1.69922-.08984 1.96094-.26954 1.25-.08984h.53906l.625-.08984h.89063l2.14453-.17969 2.41015-.17969 2.58985-.08984 1.69531.17969 1.60938.08984 1.42968.35938 1.16016.71875 1.875.98828 1.16015 1.52734.26563.71484.6289.08985.35548.89844.53515.53906.53516 1.52734 1.07422.35938h.53515l-.80469.53515.08985 1.70703.71484 2.69532.89063.80468.89453.98829.71484 1.2578 1.78516.53907 1.51953-.17969.35547 1.34375 1.60937-.80469.98047-.53906.26953.26953.31641-.21484.21875-.14453.80078.44922.44922-.35938h.35547l.53515-.26953.53907-.71875.53515-.26953.625-.98828 1.16016.44922.83984.3711 1.39454.61718 1.6953-.17969h1.60548l1.78515.08985.17969-1.70704.53516-1.34375.80468.26954.4922.84765.40233.40625-.08984.53906v.35938l.71485.44922.71093-.26953h1.42969l.35938.98828.4453 1.25781.71485 1.34375 1.25.6289 1.69531.62891.71485-.17969.17969-.53906.98046-.08984.44922.35937.08594 1.25782-.26563.6289-.53515.17969v.53906l.71484.98438.26563.53906.98437.98828.80078 1.07813-.26562.35937-.08985.89844-.625 2.33203-.35546 2.0664-.08985 1.79298-.17969.71875-.08984.53906v1.4375l-.98047 1.88281-.35937 1.70703-.53516.89844-.80469 1.16797-.26562.53906 2.05469 1.2539.08593.35938-.35546.53906-.08985-.17968v.80859l.08985 1.4375-.44532.71484-1.07422.09375-.26562.71485.53515.89844.8047.71875 1.16015.80859 1.33984.26953.44531.35938-.35546.44921-1.78907-.08984-1.25-.44922-.71484-.71875-.625-.08984-.17578 3.58984-.1875 1.3086h89.35937V311.70313h-55.26953v49.08203l.76172.125 3.28906.54296 2.02344 2.83594v2.7539l2.35156.33204 2.34766.33203h4.05078l-1.3789 4.16016-2.02344.70703-2.02344.70312-.54297.34375-2.59375 1.6172-.1875.11718-2.02344-2.07813-.73046-2.74218-2.67188-2.07813-1.375-3.5-.0664-.08203-1.95704-2.67188 2.75-1.41796v-49.08204H294.42187v91.41407l.1172.03125.1328.01172.07422.07421.10547.04688.08985.0586.08593.05859.08985.0586.29687.29687.0586.08984.03125.11719.02734.11719.01563.13671-.03125.1172-.0586.08983-.0586.08594-.04296.10547-.04688.10156-.02734.1211v.14453l.17578.26953.14844.14844.07422.08594.07422.07421.04296.10547.0625.08985.0586.08593.04297.10547.0586.08985.04687.10156.04296.10547.0586.08594.11719.17968.07421.07422.0625.08594.0586.08984.04297.10547.0586.08985.05858.08593.0625.08985.0586.08984.04297.10156.11719.17969.07421.07422.0586.08594.07422.07421.08984.0586.10547.04687h.14844l.1328-.01562.13282.01562.10156-.04687.07422-.07422.04688-.10156-.01563-.13281v-.14844l-.04687-.10547-.02735-.11719-.04687-.10156-.02735-.1211-.04296-.10156-.0625-.08984-.04297-.10156-.04297-.10547-.03125-.11719-.01563-.13281-.01171-.13672.08593-.0586.0586-.08593.12109-.03125.04297.10547.01562.1328v.1172l.0586.10156.0586.08984.08983.0586.14844.14843.0586.08985.04296.10547-.01171.10156.08593.0586.10547.04687.08594.0586.08984.05858.07422.07422-.11719.02735-.10546.04687-.08594.0586-.07422.07421-.0586.08985-.0625.08594-.02734.12109-.04687.10156-.04297.10547-.03125.11719-.01172.13281-.01563.13281v.14844l.02735.11719.04687.10547.04297.10156.0586.08984.07421.07422.08985.0586.07422.07421.08984.0586.0586.08984.04296.10547.04688.10156.11719.03125.1328.01563h.14845l.11718-.03125.10547.04297.04297.10547.04688.10156.02734.1211L299.5 410l.02734.11719.03125.1211.02735.11718.10547.04297.10156.04687.13281-.01562.14844.14844.0625.08593.07422.07422.07031.07422.08984.0625.10547.04297.10156.04297.1172.03125.13671.01562.11719-.03125.07422-.07422.02734-.11718-.01172-.13282-.03125-.12109-.02734-.11719.04297-.10547h.11719l.08984.0625.11719.02735h.14843l.13282.01562h.14843l.13282.01563.1328-.01563h.14845l.1328-.01562.13282-.01172.13672.01172.11719-.02735.13281-.01562.1914-.0586-.05859.17579-.01562.1328-.02735.1211-.01562.13281-.0586.08594-.1328.01563-.10548.04687-.10546.04297-.1172.03125-.11718.02735-.26563.03125h-.14843l-.13281.01562-.07422.07422.05859.08594.14844.14843.11719.1797.07421.0703.08985.0625.08984.0586.08594.0586.08984.05858.10156.04297.10547.0625.10547.04297.08594.0586.10547.04687.10156.04297.17969.11719.0586.08984-.04298.10156-.04687.10547.01562.13281.22266.22266.0586.08985.04296.10156.03125.1211.04297.10155.01563.13282.03125.11718.01171.13672.03125.11719.14844.14844.10156.04297.10547.04296.1172.03125.1328.01563.13672.01563h.11719l.11719-.03125.08984-.0586.04297-.10547.04688-.10156.04296-.10547.03125-.11719.01172-.1328v-.14845l-.01172-.1328-.01562-.13282-.03125-.11719-.04297-.10547-.04688-.10547-.04296-.10156-.04297-.10547-.01563-.13281.01563-.13281.02734-.11719.03125-.11719.02735-.1211.04687-.10155.08984-.0586.08594-.0625.07422-.07422.08984-.05859.22266-.22266.0586-.08593.07421-.07422.11719-.17969.0586-.08594v-.14844l-.07423-.07421-.10156-.04688-.10547-.04297-.10156-.04297-.0586-.08984-.04687-.10547-.02734-.11719.08984-.05859.11719-.03125.10156-.04297.17969-.11719.14844-.14843.01172-.13282-.01172-.10546-.08985-.0586-.1328.01563h-.14845l-.1328.01562-.13282-.01562-.1211-.03125-.08593-.0586-.07422-.07422-.0586-.08984-.0625-.08594-.11718-.17969-.0586-.08593.03125-.1211.08594-.05859.1211-.03125.05859-.08594v-.1211l-.03125-.11718-.0586-.08984-.05859-.08594-.04687-.10547-.02735-.11719-.01562-.1328.0586-.08985.07421-.07422.08984-.0586.1172-.17968.07421-.07422.0586-.08594.14843-.14844.1211-.03125.1328-.01562.13282.01562.07422.07422.04297.10547.01562.13281-.03125.1172-.11719.03124-.1328.01172-.14844.14844-.04297.10547-.04688.10156-.02734.1211-.03125.11718v.14844l.03125.11719.04297.10546.05859.08985.07422.07031.07422.07422.11719.03125.12109.02734.11719-.02734.1328-.01563h.1172l.08984.0586.07422.07422.04687.10546.0586.08594.10156.04688.13281.01562.10547.04297.08594.0586-.01172.10546-.07422.07422-.17969.11719-.05859.08984-.08984.0586-.07032.07422-.07421.07421-.0625.08985-.02735.11719-.01562.1328.01562.13282-.01562.13281v.14844l.01562.13281.02735.1172.03125.12108.07421.07422.08985.0586.08594.0586.08984.05858.11719.03125v.08594l-.10157.04688-.08984.0586-.26563.03124-.11718.02735h-.14844l-.10547.04296-.10156.04688-.0586.08984-.0625.23438-.01171.13281-.03125.1211-.01563.1328v.29298l-.01172.1328.01172.13673.01563.1328.1328.01563.13282.01172.1211.03125.08593.0586.07422.07421.04688.10547.04296.10157.01563.1328v.44532l-.01563.13281v.44532l.03125.26562.02735.11719.01562.13281.03125.11719.08594.21094.03125.26562v.14844l-.03125.11719-.02734.11718-.03125.1211-.02735.11719-.03125.11718-.03125.1211-.01171.1328-.01563.13282.08984.0586.1172-.03125.10155.01562.04688.10547-.03125.26562v.44141l-.04297.10547-.04688.10547-.04296.10156-.04297.10547-.0586.08594-.03125.12109-.04296.11719-.03125.11719-.01563.1328.01563.13282.05859.08984.10547.04688.08594.0586.05859.08593-.01172.13672-.03125.11719-.04297.10156v.44531l-.01562.13281v.14844l-.03125.11719-.04297.10547-.02735.11719-.04687.10546-.04297.10157-.03125.12109-.02734.11719-.03125.13281-.03125.11719-.02735.11719-.04297.10546-.03125.1172-.03125.12108-.01171.13282-.01563.13281v.29688l.02734.11718v.14844l.04688.39844.02734.11719.0586.08984.12109.03125h.14844l.13281-.01563.0586.08985v.11719l-.0586.08984-.08984.0586-.10157.04296-.10546.04688-.08985.05859-.08594.0586-.13671.01562-.1172-.03125-.1328-.01563-.10157.04688-.0625.08594-.01172.13671-.01562.13282-.03125.11719-.02735.11718-.01562.13281-.03125.1211v.29687l.01563.13282.03125.11718v.14844l.01171.13281v.14844l-.02734.11719-.04688.10156-.02734.1211-.03125.11718-.0586.08985-.07421.07421-.10156.04297-.10547.04688-.11719.02734-.1211.03125-.10156-.04687.0586-.08594.10547-.04688.02734-.11718.03125-.11719.02734-.1211.03125-.11718v-.14844l.01563-.13281-.03125-.11719-.04297-.10547-.10547.01563-.07422.07422-.10156.04296-.08984.0625-.07422.07422-.04297.10157-.01563.1328-.03125.1172L304.25 426l-.03125.11719-.02734.11719-.03125.12109-.02735.11719-.03125.11718-.04297.10547-.08984.0586h-.08984l-.1172-.03125-.03124-.08594.01562-.13672-.03125-.11719v-.14844l-.01171-.1328v-.14844l-.0625-.23438-.02735-.1211-.04297-.10156-.04687-.10546-.0586-.08594-.05859-.08985-.04297-.10546-.0625-.08594-.14844-.14844-.0703-.07422-.10548-.04687-.10547-.04297-.10156-.04297-.29687-.29688-.08985-.07421-.08594-.0586-.10546-.04297-.08985-.0625-.08594-.0586-.10546-.04296-.08985-.0586-.08594-.0625-.07421-.0703-.10547-.04688-.08594-.0586-.10547-.04296-.08984-.0625-.10156-.04297-.10547-.04297-.08594-.0586-.10547-.04687-.10547-.04297-.10156-.04687-.08985-.0586-.10156-.04297-.10547-.04296-.08984-.0625-.11719-.02735-.13281-.01562-.13281.01562H299.75l-.13281.01563-.11719-.03125-.08984-.0586-.07422-.07422-.08985-.05859-.10156-.04688h-.14844l-.12109-.02734-.10156-.04297-.07422-.07422-.11719-.17968-.08984-.0586-.10156-.04297-.08985-.0625-.10547-.04296-.08984-.0586-.08594-.0586-.10547-.04687-.0586-.08594-.05858-.08984-.04297-.10547-.04688-.10156-.07422-.07422-.08594-.0586-.07421-.07421-.08985-.0586-.22265-.22265-.04297-.10547-.03125-.26563.10547-.04296h.14453l.10547.04296.07421.07422.08985.0586.08594.0586.10546.04687.08985.05859.14844.14844.0703.07422.14845.14843.0625.08594.07421.07422.08594.0586.07422.07421.08985.0625.08984.0586.08594.05859.26953.17578.10156.04688.10547.04296.10156.04297.04688-.07421.05859-.08594.07422-.07422.07031-.07422.10547.04297.07422.07422.0586.08984.04296.10156.04688.10547.04296.10547.1211.02735.11719-.02735.07421-.08984.04297-.10547.0586-.08985.07422-.07421.10546-.04297.1172-.02735.1328.01172.08985.0586.14844.14843.05859.08985.04297.10547.04687.10156.04297.10547.04297.10156.10547.04688.10547.04296.13281.01563.08594-.0586.0586-.08984.07421-.07422.10547-.04297.11719.02735.10547.04687.10156.04297.10547.04297.10156.04688.17969.11718v.11719l-.01563.13281.01563.13281.01562.13672.0586.08594.10156.04688.1211.02734.11718.03125h.14844l.11719-.03125.05859-.08984.17969-.1172.05859-.08983.07422-.07422.0586-.08594.11718-.17969.17969-.11719.11719.03125.08984.0586.04297.07422-.01563.1328v.1172l.08985.05859h.14843l.13282-.01563.1328-.01171.26563-.03125.10547-.04297.11719-.03125.1211-.02735.07421-.07421.07031-.07422.0625-.08985-.01562-.10547-.04688-.10156-.10156-.04297-.10547-.01562-.11718.02734-.26563.03125h-.14844l-.07421-.07422-.08985-.0586-.11719-.03124-.11718-.02735-.13282-.01562h-.14843l-.13282.01563h-.29687l-.10547-.04688-.14844-.14844-.04297-.10156-.05859-.08984.22266-.22266.08593-.0586.10547-.04296.11719-.03125.13281-.01563.13281.01563.13672.01562.10157.04297.1328-.01172.08985-.0625.10156-.04297.0625-.08984-.04687-.10156-.08984-.0586-.1172-.03125-.10155-.04296-.0586-.08985-.0625-.08984v-.11719l.01563-.13281.10547-.04688.07421-.07031v-.1211l-.08984-.05859-.03125-.11719.08985-.05859.07421-.07422.04297-.10547.0586-.08984.04687-.10156.01563-.13281v-.14844l-.04688-.10547-.04297-.10156-.08984-.0586-.13281-.01562-.10157-.04297-.13671-.01563-.1172-.03125h-.4453l-.13282-.01562-.13281-.01172-.13281-.01563-.11719-.03125h-.14844l-.13281-.01562-.13281-.01172-.26563-.03125-.1211-.04297-.08593-.0586-.07422-.07421v-.14844l.01172-.13281.10547-.04688.10156-.04296.13281-.01563h.15235l.13281-.01562h.29297l.1211.03125.10156.04296.08984.0586.23438.0625.12109-.04688.08984-.05859.10156-.04297.13282-.01562.10547.04296.10156.04688.13281.01172.1211-.02735h.14453l.12109-.03125.11719-.02734.10547-.04687.07421-.07422.08594-.0586.14844-.14843.0586-.08594.04687-.10547.02734-.11719.01563-.10547-.10156-.04296-.08985-.0586-.11719-.03125-.10546-.04297-.08985-.0625-.07422-.08594-.07422-.07421-.10156-.04297-.10547-.04688-.10156-.04297-.0586-.08984-.04687-.10156-.08594-.21094-.0625-.08594-.05859-.08984-.07422-.07422-.08594-.0586h-.26953l-.11719.03126-.08984.05859-.10156.04297-.13281.01562-.10547-.01562-.02735-.11719-.0625-.08984-.11718-.03125-.10157-.04297-.14843-.14844-.03125-.11719-.01563-.10546.07422-.07422.17969-.1172.11719-.02733.11718-.03125.13672.01562.10156.04297.10547.04297.10156.04687.10547.04297.1172.03125.1328.01563.1172.02734.1328.01563.10547-.01563.08985-.0586-.07422-.07421-.10547-.04297-.07422-.07422-.07422-.08984-.14844-.14844-.08593-.0586-.08985-.05859-.07422-.07422-.08984-.0586-.10156-.04687-.1211-.02734-.10156-.04688-.10547-.04296-.11719-.03125-.10156-.04297-.1211-.03125h-.14843l-.11719.03125-.10546.04297-.08594.0625-.17969.11718-.08594.0586-.08984.0586-.10547.04687-.08594.05859-.10547.04297-.10156.04297-.10547.04687-.07422.07422-.05859.08985-.0586.08593-.04687.10547-.0586.08594-.07421.07422-.13281-.01172-.1172-.03125h-.11718l-.07422.07422-.08984.0586-.07422.07421-.08984.0586-.08594.05859-.10547.04687-.10156.04297-.13672.01563-.10156-.04297-.14844-.14844-.10547-.04688h-.08594l-.10547.04688-.10156.04297-.1211.03125-.11718-.03125-.07422-.07422v-.11719l.03125-.1211.07422-.0703.0586-.08985.07421-.07422.11719-.03125.10547-.04296h.29297l.13281-.01563.13672-.01563.10156-.04296.08985-.0586.10156-.04687.08984-.0586.13281-.01171.08985.05859.13281.01172.08984-.0586.08594-.05859.10547-.04297.08984-.0586.08594-.0625.08985-.05859.14843-.14843.0586-.08594.05859-.08985.10547-.04296.13281-.01563.11719.02735.1211.03125.05859-.0586.05859-.08984.03125-.26563.02734-.11719.10547.01172.13281.01563.10157-.04297.08984-.0586.0586-.08984.07421-.07422.0586-.08984.04687-.10156.01172-.13281-.01172-.13282-.04687-.10547-.14844-.14843-.0586-.08985-.05859-.08594-.04297-.10546v-.44532l.01563-.1328v-.14845l.01172-.1328-.0586-.0586-.08984.0586-.10156-.04298-.17969-.11719-.08594-.05859-.0625-.08984-.0586-.08985-.07421-.07421-.08594-.0586-.1211.03125-.10155.01172-.10547.04688-.08594.05859-.10547.04297-.14844.14844-.08984.05859-.08594.0586-.08984.0625-.10547.04296-.13281.01563v-.1211l.10547-.04297.11718-.03125.07422-.0703.04297-.10548v-.14844l-.02734-.11718-.14844-.14844-.13281-.01563h-.14844l-.11719.03125-.10547.04297-.10156.04297-.08984.0625-.11719.02735-.07422-.07422.01172-.13281-.04297-.10157-.04297-.10547-.08984-.05859-.11719.02734-.1211.03125-.11718.03125-.10156.04297-.1211.03125-.10156.04297-.10547.04297-.08984.0586-.10156.01562v-.11719l.01562-.13281-.0586-.08985-.07421.04297-.14844.14844-.0586.08985-.07421.07421-.04688.10547-.04296.10156-.07422.07422-.0586.08985-.07422.07422-.05859.08593-.07422.07422-.08984.0625-.07422.07031-.07422.07422-.10156.01563-.13281.01562-.10547-.04296v-.1211l.14843-.14844.04297-.10156.0586-.08984.04687-.10156.04297-.10547.0586-.08985.03124-.11719.04297-.10156.03125-.1211.02735-.11718.04687-.10547.04297-.10156.04297-.10547.07422-.07031.08984-.0625.08985-.0586.10156-.04296h.29687l.26563-.03125.10547-.04297-.07422-.07422-.11719-.03125-.10547-.04297-.08984-.0586-.10156-.04687-.08985-.0586-.10156-.04296-.10547-.04297-.08984-.0625-.08594-.0586-.10547-.04296-.10156-.04297-.1211-.03125-.11718-.03125-.10157-.04297L297.5 410.25l-.10156-.04297-.08985-.0586-.04296-.10546-.01563-.13281.10156-.04297.13281-.01563.13672.01563.13282-.01563.10156-.04297.0586-.08984.01562-.10547-.08985-.0586-.07421-.07421-.10157-.04297-.08984-.0586-.14844-.14843-.04297-.10547-.01562-.13281v-.29297l-.0586-.08985-.08984-.05859-.07422-.07422-.04297-.10547-.03125-.11718-.0586-.08985-.07421-.07422-.11719-.02734-.07422-.07422-.08984-.0586-.08984-.0625-.08594-.05859-.07422-.07421-.0586-.08594-.04687-.10547-.08594-.0586-.14843-.14843-.19532-.0586-.1328.01563-.10157.04297-.07422.07422-.04688.10156-.04296.10547-.0586.08984-.0586.08594-.29687.29687-.08984.0586h-.08594l-.0625-.08594-.04297-.10547.03125-.11719.0586-.08984.02734-.11719-.01172-.13281-.08984-.0625-.10547.04688-.11719.02734-.11719.03125-.26953.17578-.10156.04688-.11719.02734-.10546.04687-.08985.0586-.10156.04297-.0586-.08594-.04687-.10547.01563-.13281.04687-.10547.07031-.07422.07422-.07031.0586-.08985v-.14843l-.04297-.10547h-.23829l-.10156.04687-.03125.11719-.02734.11719-.03125.1211-.07422.04296-.13281.01563-.07422-.04688-.04297-.10156-.04297-.10547-.04687-.10156-.04297-.10547-.1211.03125-.10156.04297-.13281.01562-.11719.03125-.10547.04297-.08984.0586-.10156.04687-.1211.02734-.13281.01563-.10156-.04297-.0586-.08985-.04687-.10546-.04297-.10157-.04297-.10546v-.1172l.0586-.08984.08593-.05859.17969-.11719.10156-.04687.10547-.04297.10547-.0586.10156-.04296.08985-.0625.10156-.04297.10547-.0586.10156-.04687.08984-.0586.10547-.04296.10156-.04297.08985-.0625.10156-.04297.13672-.01563.11719.03125.10156.04297.1211.03125.10156.04297.10546.04688.10157.04296.10547.04297.10156.04688.10547.04297.10156.04297.10547.04687.08594.0586.10546.04296.1172.03125.10546.04297.10156.04688.08985.0586.10547.04296.10156.04297.10547.04687.11719.02735.10156.04687.1211.02735h.14843l.08594-.0586.01562-.10156.0586-.08984-.02735-.1172-.07422-.07421-.11719-.17969-.07421-.07422-.08985-.07421-.17969-.1172-.08593-.05859-.10547-.04296-.10156-.04688-.26954-.17578-.05859-.08985-.07422-.07421-.0586-.08985-.04296-.10156-.03125-.11719-.01563-.13672v-.5625l-.01171-.1328-.01563-.13282-.03125-.11719-.01562-.13281-.01172-.13281-.03125-.1211-.22266-.22265-.0586-.08594-.01562-.10547.03125-.11719.13281-.01562v-91.41406H172.9922v1.45312l-.0586.23438-.35156 1.05078-.17187.52343-.1172.34766-.17577.41016-.11719.17187-.23438.29297-.23046.0586h-.35157l-.11718.05859-.23047.40625v.29297l.11719.17578.23046.23047.1172.23437.64062.75781.29297.46485.17578.23437.23047.35156.23437.34766.64063.8164.17578.46485.17187.41016.11719.69531.17578.46875.11719 1.39844.0586.46484v.875l.11718 1.04688v4.78125l-.0586.46484-.35156 1.28125-.17578.52344-.11328.41015-.35156.9297L172.93359 336l-.23437.58203-.11719.17578-.17187.34766-.17578.40625-.35157.8164-.0586.29297-.11327.29297-.11719.28906-.0586.17579-.11718.875-.0586.40625-.05859.11718-.0586.17579-.05859.17187-.23047.52734-.11718.17188v.23437l-.11719.23438-.0586.17187-.17577.58594v.28906l-.0586.17579v.29296l-.0586.11329-.05859.52734v.17187l-.05468.23438v2.6211l-.17578.8164-.1172.17578-.17577.23438-.1172.17187-.11327.23438-.58594.93359-.23047.28906-.29297.46485-.17578.23437-.28906.35156-.35156.69922-.11328.23047-.17579.41016-.17578.23046-.40625.52735-.8164.69922-.29297.17187-.28906.23438-.17579.11719-.17578.17578-.52344.40625-.52734.17578-.17187.17578-.23438.05469-.64062.17578h-.75782m12.21094 31.02344l-1.07422.44921.35938.89454 1.25-.71485.44531-.53906-.98047-.08985"/><path fill="#d3d3d3" fill-opacity="0" fill-rule="evenodd" d="M201.50781 416.59766h-.89453l.44922.6289.98047.35938.80469-.08985.4453-.98828-.17577.08985-.71485-.35547-.89453.35547m154.6211 59.0703l-.0586-.52343v-.29297l.11328-.29297.0586-.23046.46875-.46875h.11328l.11719-.11329.11718-.05859h.17579l.23437-.0586h.34766l.23437.0586.11719.0586.23047.17187.0586.17578.11718.58203v.29297l-.11719.17578-.17187.28906-.17579.17579-.52734.52343-.23047.23438-.11719.0586h-.17578l-.11718-.0586-.40625-.29297-.17579-.11719-.11718-.0586-.0586-.11327-.05468-.1172m6.64062-10.95702l-.0586-.17188v-1.10937l.0586-.17188.17578-.0586.17188-.05858h.17578l.23437-.0586.1172.0586.05858.69921-.05859.17188-.11719.17578-.11718.0586-.23438.52343-.11328.0586h-.23438l-.05859-.1172m9.61328-14.39062l-.11719-.17578v-.69922l.29297-.875.1172-.17187.17577-.35156.11328-.23047.1172-.29297.35155-.75781.1172-.23047.17187-.23438h.17578l.11719-.0586h.64062l.11719.0586.23437.23438.17188.11328.35156.29297.11719.11718.11328.17579v.11328l.11719.05859.11718.11719v.69922l-.05859.17578v.23047l-.0586.17578-.34765 1.05078-.11719.23047-.11719.23437-.11718.0586-.23047.23437-.64063.28906h-.875l-.41015-.11718-.64063-.46485"/><path fill="none" stroke="#bebebe" stroke-linecap="round" stroke-linejoin="round" stroke-miterlimit="10" stroke-width=".5" d="M467.95703 311.69531H144.02734v168.625h323.9297v-168.625"/><g clip-path="url(#a)"><path fill="#fff" fill-opacity="0" fill-rule="evenodd" d="M144 475.89063v4.4375h.0039H144v-40.9336 36.4961"/></g><g clip-path="url(#b)"><path fill="#fff" fill-opacity="0" fill-rule="evenodd" d="M144 431.50781v1.86719-121.70313h.0039H144v119.83594"/></g><path fill="#50fcfc" fill-rule="evenodd" d="M144 433.375v6.01953l.0039-.0039v-6.01172L144 433.375"/><g clip-path="url(#c)"><path fill="#fff" fill-opacity="0" fill-rule="evenodd" d="M144.0039 480.32813v-40.9375l2.57032-3.44532-2.57031-2.5664V311.67187h57.6953v99.6211l-1.89843 2.46094 1.89844 3.08203 1.22656 1.35547 3.21094 2.84765 1.97656 1.58985-1.97656 1.78515-4.4375.3711-2.51563-2.15625-1.92187-2.5586-3.82813 2.5586 1.17578 4.4414.60157 4.4375-2.39063 3.17969-.85547-3.17969-2.38672-4.4375 2.96485-4.4414-4.16016-1.8086-3.2539 1.8086-1.1836 1.55859-4.4375 1.02344-4.4414.78906-2.11328 1.07031-2.32422.44922-4.4375.86719-4.14844 3.1211-.28906.36718-2.7422 4.07031-.76952 4.4375.23047 4.4375-.47266 4.4414-.58203 4.4375-.10156.78517-.9375 3.65234.9375 1.36328.62109 3.07422 3.8164 3.55078 4.4375-.30078 4.4375-.59766 4.4375-.30469 4.44141.72266 4.16797-3.07031.26953-.16797 4.4375-1.09375 4.4375-.51172 4.4414-1 3.72267-1.66406.71484-.36719 4.4375-1.6914 2.8125-2.37891 1.08203-4.4375-3.89453-2.19531-4.4375-1.29688-1.94922-.94922-1.98438-4.4375 3.9336-1.10547 4.4375-1.48046 2.83984-1.85157 1.59766-2.4375 4.4414-.49219 1.39454-1.5078-1.39453-1.25-1.6836-3.1875 1.6836-2.35157 1.89453-2.08984-1.89453-3.1211-4.44141.54297-1.48047-1.85937-.58984-4.4375-2.3672-1.9297-4.4375-.53124v-99.6211h26.62892v116.23438l-4.4375 1.08594-2.54297 2.51562 2.54297 1.55078 4.4375 1.1211 1.18359 1.76562 3.2539 3.38672 3.4961-3.38672-3.4961-3.72656-1.14453-.71094-3.29297-3.60156V311.67187h13.31641V437.4336l-3.28516 2.94922 3.28516 2.86328 2.9961-2.86328-2.9961-2.94922V311.67188h133.14844v135.03515l-2.1875 2.55469 2.1875 1.94531 2.07422-1.94531-2.07422-2.55469V311.67188h8.8789v142.46484l-3.90234 4-.01562 4.4375 1.4453 4.4414.91407 4.4375 1.5586 2.27735 3.49218-2.27735.94531-2.76953.39844-1.66796-.39844-1.52344-.3203-2.91797.3203-2.42578.91797-2.01172-.91796-1.29688-4.4375-2.70312V311.67187h84.32421v168.65625H144.00391"/></g><path fill="#50fcfc" fill-rule="evenodd" d="M146.57422 435.94531l-2.57031 3.44531v-6.01171l2.5703 2.5664M157.31642 459.5l-.9375-1.36328.9375-3.65235.10156-.78515.58203-4.4375.47266-4.4414-.23047-4.4375.76953-4.4375 2.74219-4.07032.28906-.36719 4.14844-3.1211 4.4375-.86718v2.46094l-3.50782 1.52734-.92968.8086-2.9922 3.6289-1.4453 2.14063-.97266 2.29687.125 4.4375-.22656 4.4414-.60938 4.4375-1.64844 4.4375 1.06641 4.4375 2.26563 2.10938 4.4375-.71484 4.28515-1.39453-4.28515-3.95313-.16016-.48437-.0664-4.4375.22656-.21875 4.4375-.85156 4.4375-2.8086.40234-.5586 4.03906-2.92968 3.32031-1.51172-3.3203-3.03515-1.26563-1.40235.90625-4.4375-1.15235-4.4375-2.92968-1.13281-4.4375-.39453v-2.46094l2.32422-.44922L175.0664 426l4.4414-.78906 4.4375-1.02344v30.0039l-4.4375.14844-4.4414 1.3125-2.41016 2.48438 2.41016 2.77344 1.95312 1.66406 2.48828.82422 1.11719-.82422 3.32031-2.05469 4.35547-2.38281-4.35547-3.94531V424.1875l1.1836-1.5586 3.2539-1.80859 4.16016 1.8086-2.96484 4.4414 2.38671 4.4375.85547 3.17969v18.44531l-.92187.5664.92187.39845 4.4414-.13282.45313-.26562-.45312-.3711-4.4414-.1953V434.6875l2.39062-3.17969-.60156-4.4375-1.17579-4.4414 3.82813-2.5586v13.73438l-2.96875 2.14062 2.96875 3.96875 1.17187-3.96875-1.17187-2.14062V420.0703l1.92187 2.5586 2.51563 2.15625 4.4375-.3711 1.97656-1.78515-1.97656-1.58985-3.21094-2.84765-1.22656-1.35547-1.89844-3.08203 1.89844-2.46094 4.4375.53125 2.36719 1.92969.58984 4.4375 1.48047 1.85937 4.4414-.54297 1.89454 3.1211-1.89453 2.08984-1.6836 2.35156 1.6836 3.1875 1.39453 1.25-1.39453 1.50781-4.44141.4922-1.59766 2.4375-2.83984 1.85156-4.4375 1.48046-3.9336 1.10547 1.98438 4.4375 1.94922.94922 4.4375 1.29688 3.89453 2.1953-1.08203 4.4375-2.8125 2.37892-4.4375 1.6914-.71484.36719-3.72266 1.66406-4.4414 1-4.4375.51172-4.4375 1.09375-.26954.16797-4.16797 3.07031-4.4414-.72265-4.4375.30468-4.4375.59766-4.4375.30078-3.81641-3.55078-.6211-3.07422"/><path fill="#00e8fc" fill-rule="evenodd" d="M159.48828 462.57422l-1.0664-4.4375 1.64843-4.4375.60938-4.4375.22656-4.4414-.125-4.4375.97266-2.29688v18.10156l-1.08985 1.94922 1.08985 3.53906 1.39843-3.53906-1.39843-1.94922v-18.10156l1.4453-2.14063 2.9922-3.6289.92968-.8086 3.50782-1.52734 4.4375.39453 2.92968 1.13281 1.15235 4.4375-.90625 4.4375 1.26562 1.40235 3.32031 3.03515-3.3203 1.51172-4.03907 2.92969-.40234.5586-4.4375 2.80859-4.4375.85156-.22657.21875.06641 4.4375.16016.48437 4.28515 3.95313-4.28515 1.39453-4.4375.71484-2.26563-2.10937"/><path fill="#00d4fc" fill-rule="evenodd" d="M161.7539 461.67578l-1.08984-3.53906 1.08985-1.94922 1.39843 1.94922-1.39843 3.53906"/><path fill="#00e8fc" fill-rule="evenodd" d="M175.0664 460.91016l-2.41015-2.77344 2.41016-2.48438 4.4414-1.3125v2.45704l-1.92187 1.33984 1.92187 1.82422 3.0625-1.82422-3.0625-1.33985v-2.45703l4.4375-.14843 4.35547 3.9453-4.35547 2.38282-3.32031 2.05469-1.11719.82422-2.48828-.82422-1.95312-1.66406"/><path fill="#00d4fc" fill-rule="evenodd" d="M179.50781 459.96094l-1.92187-1.82422 1.92187-1.33985 3.0625 1.33985-3.0625 1.82422"/><path fill="#00e8fc" fill-rule="evenodd" d="M192.82031 454.09766l-.92187-.39844.92187-.5664 4.4414.1953.45313.3711-.45312.26562-4.4414.13282"/><path fill="#fff" fill-opacity="0" fill-rule="evenodd" d="M197.26172 433.80469l-2.96875 2.14062 2.96875 3.96875 1.17187-3.96875-1.17187-2.14062"/><path fill="#50fcfc" fill-rule="evenodd" d="M223.89063 433.0586l-2.54297-1.55079 2.54297-2.51562 4.4375-1.08594 3.29296 3.60156 1.14453.71094v3.39844l-.28515.32812.28516.29688.30859-.29688-.3086-.32812v-3.39844l3.4961 3.72656-3.4961 3.38672-3.2539-3.38672-1.1836-1.76562-4.4375-1.1211"/><path fill="#00e8fc" fill-rule="evenodd" d="M232.76563 436.24219l-.28516-.29688.28516-.32812.30859.32812-.3086.29688"/><path fill="#50fcfc" fill-rule="evenodd" d="M241.64453 443.2461l-3.28516-2.86329 3.28516-2.94922 2.9961 2.94922-2.9961 2.86328m133.14844 7.96094l-2.1875-1.94531 2.1875-2.55469 2.07422 2.55469-2.07422 1.94531m6.40625 15.8086l-1.44531-4.44141.01562-4.4375 3.90235-4v6.63281l-.90235 1.80469.90235 2.52734.94921-2.52734-.94921-1.80469v-6.63281l4.4375 2.70312.91796 1.29688-.91796 2.01172-.32032 2.42578.32031 2.91797.39844 1.52344-.39844 1.66796-.9453 2.76954-3.4922 2.27734-1.55859-2.27735-.91406-4.4375"/><path fill="#00e8fc" fill-rule="evenodd" d="M383.67188 465.10156l-.90235-2.52734.90235-1.80469.94921 1.80469-.94921 2.52734"/><g clip-path="url(#d)"><path fill="#fff" fill-opacity="0" fill-rule="evenodd" d="M467.9961 480.32813H468V311.67188h-.0039H468v168.65625h-.0039"/></g><path fill="#fff" fill-opacity="0" fill-rule="evenodd" d="M204.6875 417.44531l.30469-5.83594-9.94531-.51953-.3086 5.83204 9.94922.52343"/><path fill-rule="evenodd" d="M196.7539 413.52344l.02735-.50781 6.28516.32812-.03907.78906-4.48437-.23828-.07422 1.38672-.55469-.02734-.03515-.5625-.03907-.25391-.07812-.23438-.13281-.21093-.19922-.1836-.28516-.16015-.39062-.125"/><g clip-path="url(#e)"><path fill="none" stroke="#000" stroke-linecap="round" stroke-linejoin="round" stroke-miterlimit="10" stroke-width=".5" d="M147.4336 481.07422l-6.8672-1.48828"/></g><g clip-path="url(#f)"><path fill="none" stroke="#000" stroke-linecap="round" stroke-linejoin="round" stroke-miterlimit="10" stroke-width=".5" d="M147.4336 481.07422l.66796 2.35937"/></g><g clip-path="url(#g)"><path fill="none" stroke="#000" stroke-linecap="round" stroke-linejoin="round" stroke-miterlimit="10" stroke-width=".5" d="M160.75 481.07031l-6.86719-1.48437"/></g><g clip-path="url(#h)"><path fill="none" stroke="#000" stroke-linecap="round" stroke-linejoin="round" stroke-miterlimit="10" stroke-width=".5" d="M160.75 481.07031l.66797 2.36328"/></g><g clip-path="url(#i)"><path fill="none" stroke="#000" stroke-linecap="round" stroke-linejoin="round" stroke-miterlimit="10" stroke-width=".5" d="M174.08594 480.96875l-6.91016-1.27734"/></g><g clip-path="url(#j)"><path fill="none" stroke="#000" stroke-linecap="round" stroke-linejoin="round" stroke-miterlimit="10" stroke-width=".5" d="M174.08594 480.96875l.73828 2.33984"/></g><g clip-path="url(#k)"><path fill="none" stroke="#000" stroke-linecap="round" stroke-linejoin="round" stroke-miterlimit="10" stroke-width=".5" d="M187.4336 480.75l-6.97657-.84375"/></g><g clip-path="url(#l)"><path fill="none" stroke="#000" stroke-linecap="round" stroke-linejoin="round" stroke-miterlimit="10" stroke-width=".5" d="M187.4336 480.75l.8828 2.28906"/></g><g clip-path="url(#m)"><path fill="none" stroke="#000" stroke-linecap="round" stroke-linejoin="round" stroke-miterlimit="10" stroke-width=".5" d="M200.7539 480.71875l-6.98437-.78125"/></g><g clip-path="url(#n)"><path fill="none" stroke="#000" stroke-linecap="round" stroke-linejoin="round" stroke-miterlimit="10" stroke-width=".5" d="M200.7539 480.71875L201.65626 483"/></g><g clip-path="url(#o)"><path fill="none" stroke="#000" stroke-linecap="round" stroke-linejoin="round" stroke-miterlimit="10" stroke-width=".5" d="M214.03516 480.94922l-6.91797-1.24219"/></g><g clip-path="url(#p)"><path fill="none" stroke="#000" stroke-linecap="round" stroke-linejoin="round" stroke-miterlimit="10" stroke-width=".5" d="M214.03516 480.94922l.75 2.33594"/></g><g clip-path="url(#q)"><path fill="none" stroke="#000" stroke-linecap="round" stroke-linejoin="round" stroke-miterlimit="10" stroke-width=".5" d="M227.38281 480.72266l-6.98437-.78907"/></g><g clip-path="url(#r)"><path fill="none" stroke="#000" stroke-linecap="round" stroke-linejoin="round" stroke-miterlimit="10" stroke-width=".5" d="M227.38281 480.72266l.89844 2.28125"/></g><g clip-path="url(#s)"><path fill="none" stroke="#000" stroke-linecap="round" stroke-linejoin="round" stroke-miterlimit="10" stroke-width=".5" d="M240.71094 480.57813l-7.01172-.4961"/></g><g clip-path="url(#t)"><path fill="none" stroke="#000" stroke-linecap="round" stroke-linejoin="round" stroke-miterlimit="10" stroke-width=".5" d="M240.71094 480.57813l.9961 2.24218"/></g><g clip-path="url(#u)"><path fill="none" stroke="#000" stroke-linecap="round" stroke-linejoin="round" stroke-miterlimit="10" stroke-width=".5" d="M253.99219 480.8789l-6.9414-1.09765"/></g><g clip-path="url(#v)"><path fill="none" stroke="#000" stroke-linecap="round" stroke-linejoin="round" stroke-miterlimit="10" stroke-width=".5" d="M252.98047 480.71875l.39844 1.16016"/></g><g clip-path="url(#w)"><path fill="none" stroke="#000" stroke-linecap="round" stroke-linejoin="round" stroke-miterlimit="10" stroke-width=".5" d="M267.34375 480.55078l-7.01563-.44531"/></g><g clip-path="url(#x)"><path fill="none" stroke="#000" stroke-linecap="round" stroke-linejoin="round" stroke-miterlimit="10" stroke-width=".5" d="M266.32031 480.48828l.50781 1.11719"/></g><g clip-path="url(#y)"><path fill="none" stroke="#000" stroke-linecap="round" stroke-linejoin="round" stroke-miterlimit="10" stroke-width=".5" d="M280.61328 480.92969l-6.92578-1.20313"/></g><g clip-path="url(#z)"><path fill="none" stroke="#000" stroke-linecap="round" stroke-linejoin="round" stroke-miterlimit="10" stroke-width=".5" d="M279.60547 480.7539l.38281 1.16798"/></g><g clip-path="url(#A)"><path fill="none" stroke="#000" stroke-linecap="round" stroke-linejoin="round" stroke-miterlimit="10" stroke-width=".5" d="M293.69531 481.71094l-6.46094-2.76563"/></g><g clip-path="url(#B)"><path fill="none" stroke="#000" stroke-linecap="round" stroke-linejoin="round" stroke-miterlimit="10" stroke-width=".5" d="M306.8125 482.10547l-6.0625-3.55469"/></g><g clip-path="url(#C)"><path fill="none" stroke="#000" stroke-linecap="round" stroke-linejoin="round" stroke-miterlimit="10" stroke-width=".5" d="M319.6875 482.69922l-5.1836-4.74219"/></g><g clip-path="url(#D)"><path fill="none" stroke="#000" stroke-linecap="round" stroke-linejoin="round" stroke-miterlimit="10" stroke-width=".5" d="M330.73828 483.82813l-.65625-6.9961"/></g><g clip-path="url(#E)"><path fill="none" stroke="#000" stroke-linecap="round" stroke-linejoin="round" stroke-miterlimit="10" stroke-width=".5" d="M341.82422 483.28516l3.80469-5.91016"/></g><g clip-path="url(#F)"><path fill="none" stroke="#000" stroke-linecap="round" stroke-linejoin="round" stroke-miterlimit="10" stroke-width=".5" d="M354.14844 482.32031l5.78515-3.98437"/></g><g clip-path="url(#G)"><path fill="none" stroke="#000" stroke-linecap="round" stroke-linejoin="round" stroke-miterlimit="10" stroke-width=".5" d="M354.98828 481.74219l-1.08594-.5664"/></g><g clip-path="url(#H)"><path fill="none" stroke="#000" stroke-linecap="round" stroke-linejoin="round" stroke-miterlimit="10" stroke-width=".5" d="M367.7461 482.67969l5.22265-4.70313"/></g><g clip-path="url(#I)"><path fill="none" stroke="#000" stroke-linecap="round" stroke-linejoin="round" stroke-miterlimit="10" stroke-width=".5" d="M380.3164 481.36719l6.71094-2.07813"/></g><g clip-path="url(#J)"><path fill="none" stroke="#000" stroke-linecap="round" stroke-linejoin="round" stroke-miterlimit="10" stroke-width=".5" d="M381.29297 481.0664l-.8711-.86327"/></g><g clip-path="url(#K)"><path fill="none" stroke="#000" stroke-linecap="round" stroke-linejoin="round" stroke-miterlimit="10" stroke-width=".5" d="M393.5039 480.78906l6.96485-.91797"/></g><g clip-path="url(#L)"><path fill="none" stroke="#000" stroke-linecap="round" stroke-linejoin="round" stroke-miterlimit="10" stroke-width=".5" d="M393.5039 480.78906l-1.42577-2"/></g><g clip-path="url(#M)"><path fill="none" stroke="#000" stroke-linecap="round" stroke-linejoin="round" stroke-miterlimit="10" stroke-width=".5" d="M406.83203 479.78516l6.9414 1.08984"/></g><g clip-path="url(#N)"><path fill="none" stroke="#000" stroke-linecap="round" stroke-linejoin="round" stroke-miterlimit="10" stroke-width=".5" d="M407.83984 479.9414l-.40234-1.16015"/></g><g clip-path="url(#O)"><path fill="none" stroke="#000" stroke-linecap="round" stroke-linejoin="round" stroke-miterlimit="10" stroke-width=".5" d="M420.95703 478.03125l5.3164 4.59375"/></g><g clip-path="url(#P)"><path fill="none" stroke="#000" stroke-linecap="round" stroke-linejoin="round" stroke-miterlimit="10" stroke-width=".5" d="M435.22266 477.25781l3.41796 6.14063"/></g><path fill="none" stroke="#000" stroke-linecap="round" stroke-linejoin="round" stroke-miterlimit="10" stroke-width=".5" d="M435.71875 478.15234l.66797-1.03125"/><g clip-path="url(#Q)"><path fill="none" stroke="#000" stroke-linecap="round" stroke-linejoin="round" stroke-miterlimit="10" stroke-width=".5" d="M447.29297 478.42188l5.90625 3.8125"/></g><path fill="none" stroke="#000" stroke-linecap="round" stroke-linejoin="round" stroke-miterlimit="10" stroke-width=".5" d="M448.15234 478.97656l.10547-1.22265"/><g clip-path="url(#R)"><path fill="none" stroke="#000" stroke-linecap="round" stroke-linejoin="round" stroke-miterlimit="10" stroke-width=".5" d="M460.14453 479.51953l6.83594 1.6211"/></g><g clip-path="url(#S)"><path fill="none" stroke="#000" stroke-linecap="round" stroke-linejoin="round" stroke-miterlimit="10" stroke-width=".5" d="M461.13672 479.7539l-.3086-1.1875"/></g><g clip-path="url(#T)"><path fill="none" stroke="#000" stroke-linecap="round" stroke-linejoin="round" stroke-miterlimit="10" stroke-width=".5" d="M147.46875 467.57422l-6.9375-1.1211"/></g><path fill="none" stroke="#000" stroke-linecap="round" stroke-linejoin="round" stroke-miterlimit="10" stroke-width=".5" d="M147.46875 467.57422l.79297 2.32422m12.54687-2.51172l-6.98828-.7461m6.98828.7461l.91407 2.27734m12.39062-3.11719l-6.96484.9336m6.96484-.9336l1.42969 1.9922m11.82812-2.3086l-6.85156 1.5664m6.85156-1.5664l1.60547 1.85937m11.72266-1.79687l-6.8789 1.4414m6.8789-1.4414l1.57031 1.88281m11.65234-2.23828l-6.6914 2.15234m6.6914-2.15234l1.75782 1.71094m11.39453-2.1211L220.70703 468.5m6.36719-2.97266l1.96094 1.47657m11.32422-1.54297l-6.3047 3.10547m6.3047-3.10547l1.98828 1.4375m11.33984-1.40235l-6.33594 3.03516m6.33594-3.03516l1.97656 1.45313m11.35547-1.41797l-6.36719 2.96484m6.3672-2.96484l1.96093 1.47656m11.4375-1.28515l-6.53516 2.58203m5.58594-2.20703l.9336.79687m13.20703-1.45312l-6.28516 3.14453m5.3711-2.6875l1 .71094m13.12109-1.36329l-6.07422 3.53516m5.1914-3.01953l1.04297.64844m12.15625-2.26172l-4.07422 5.73047m15.78516-6.35157l-.86719 6.97266m10.96485-5.6289l5.5703 4.28515m7.65626-4.16406l5.7461 4.04297m7.90234-4.44922l5.07812 4.85547m7.3086-2.98828l6.9375 1.12109m-5.9297-.95703l-.39452-1.16016m12.73828 2.30078l6.86328-1.48828m-6.86328 1.48828l-1.58594-1.8711m15.34375-.71874l5.98047 3.6914m-5.11328-3.15234l.08203-1.22656m17.15625-.48438l-3.60156 6.03516m3.07422-5.15625l1.22656.0586m12.54297-.98048l-3.45703 6.1211m2.95312-5.23047l1.22656.03125m10.82813 5.65234l.07031-7.02734M467 466.29688l-6.8789 1.43359M466 466.5039l.78516.9453"/><g clip-path="url(#U)"><path fill="none" stroke="#000" stroke-linecap="round" stroke-linejoin="round" stroke-miterlimit="10" stroke-width=".5" d="M147.34766 454.76953l-6.69532-2.14453"/></g><path fill="none" stroke="#000" stroke-linecap="round" stroke-linejoin="round" stroke-miterlimit="10" stroke-width=".5" d="M147.34766 454.76953l.43359 2.41406m12.92969-2.57812l-6.78906-1.8164m6.78906 1.8164l.55078 2.39062m12.8789-3.46093l-7.01953.32812m7.01953-.32812l1.25 2.10937m12-2.63281l-6.89062 1.375m6.89063-1.375l1.55468 1.89844m11.3711-2.94532l-6.11328 3.46875m6.11328-3.46875l2.0703 1.31641m10.81642-1.91406l-5.25782 4.66406m5.25781-4.66406l2.30079.85937m11.54297-.07422l-6.3125 3.09375m6.3125-3.09375l1.98437 1.4375m11.21484-1.65234l-6.08203 3.52344m6.08203-3.52344l2.08203 1.29688m-2.96875-.78516l1.04297.64844m13.19922-1.08985l-6.16015 3.38282m6.16015-3.38282l2.05078 1.34375m-2.94922-.85156l1.02735.67188m13.36328-.79297l-6.51563 2.63672m6.51563-2.63672l1.8789 1.57812m11.50782-1.3789l-6.66016 2.24218m6.66016-2.24219l1.78125 1.6875m11.5625-1.59765l-6.71875 2.0625m6.71875-2.0625l1.73828 1.73047m11.51953-1.90625l-6.60156 2.41015m6.60156-2.41015l1.82422 1.64062m11.42969-1.78906l-6.48047 2.71094m5.53906-2.3164l.94922.77733m11.78125-2.8828l-3.42578 6.1328m16.88281-6.05078l-3.71094 5.96875m16.48438-6.24218l-2.6289 6.51562m2.24609-5.57031l1.22265-.125m14.22657.71875l-6.12891 3.4375m19.66797-2.94922l-6.58203 2.46094m5.625-2.10547l.91797.8125m6.60937.70703l6.91016-1.29297m-5.90235 1.10547l-.76562-.95703m13.9414 2.8789l5.17188-4.7578m-4.41797 4.0664l-1.15625-.40625m18.89844 1.08594l-5.1914-4.73829m4.4375 4.05079l-.3047 1.1875m15.06641-1.62891l-6.57422-2.48047m5.61719 2.1211l.15625 1.21484m14.27734-1.42969l-6.89843-1.33203m5.89453 1.14062l.36328 1.17188m13.33594-3.72656l-5.66016 4.16406"/><g clip-path="url(#V)"><path fill="none" stroke="#000" stroke-linecap="round" stroke-linejoin="round" stroke-miterlimit="10" stroke-width=".5" d="M147.1836 441.86719l-6.3672-2.96875"/></g><path fill="none" stroke="#000" stroke-linecap="round" stroke-linejoin="round" stroke-miterlimit="10" stroke-width=".5" d="M147.1836 441.86719l.1289 2.44922m13.2461-2.57813l-6.48438-2.71094m6.48437 2.71094l.22657 2.4414m13.22656-2.84374l-6.76172-1.90625m5.77734 1.6289l.26172 1.19922m14.08985-1.13281l-6.8672-1.48047m5.8672 1.26563l.33593 1.17968m14.0547-1.55078l-7.01954-.3086m6 .26173l.52734 1.10937m13.39063-2.88281l-6.1875 3.33203m5.28906-2.84765l1.01953.67968m12.48828-2.07812l-4.77343 5.15625m4.77343-5.15625l2.375.6289m10.84766-.71093l-4.58594 5.32421m4.58594-5.32421l2.39063.53906m-3.0586.23437l1.19531.26954m10.86328-1.875l-.73828 6.98828m.73828-6.98828l2.27735-.91797m12.0625 1.1875l-2.78906 6.44922m2.78906-6.44922l2.44531-.19922m11.15625.33594l-3.36328 6.17187m3.36328-6.17187l2.45313.02734m10.76172-.07813l-3.16407 6.27344m3.16406-6.27344l2.45313-.05468m11.21875.26172l-3.875 5.86328m3.875-5.86328l2.4414.23046m11.23048.03907l-4.58985 5.3203m4.58985-5.3203l2.39453.54297m11.08984-.38672l-4.92969 5.0078m4.92969-5.0078l2.35156.69922m10.89063-.76954l-4.78125 5.14844m4.78125-5.14844l2.3711.63282m10.08593-1.21875l-3.0664 6.32422m3.0664-6.32422l2.44922-.09375m8.6914-.19922l1.28125 6.91015m-1.28125-6.91015l1.91797-1.52735m9.01563 3.19141l6.04687 3.57813m-5.16797-3.0547l.0547-1.22655m12.37108 4.26562l6.06641-3.54297m-5.1836 3.02735l-1.04296-.64454m16.26172 2.89063l.49219-7.00781m15.82812 1.32812l-5.51563 4.35547m5.51563-4.35547l2.2461.98438m-3.05079-.35157l1.125.4922m13.67188.32421l-6.8711 1.45703m6.8711-1.45703l1.57812 1.8789m10.72656-3.6953l-4.85156 5.08593m4.14453-4.34375l1.1836.32813m13.8164.59765l-6.80468 1.7539m5.8125-1.5l.82812.90626"/><g clip-path="url(#W)"><path fill="none" stroke="#000" stroke-linecap="round" stroke-linejoin="round" stroke-miterlimit="10" stroke-width=".5" d="M147.375 428.03906l-6.75-1.9414"/></g><path fill="none" stroke="#000" stroke-linecap="round" stroke-linejoin="round" stroke-miterlimit="10" stroke-width=".5" d="M146.39453 427.75781l.2539 1.19922m14.01173-.8086l-6.6875-2.16015m6.6875 2.16016l.42968 2.41406m12.60547-1.78125l-6.13281-3.42578m6.13281 3.42578l-.05078 2.45313m13.17188-2.14063l-5.7422-4.05078m5.7422 4.05078l-.3086 2.4375m14.21875-3.89062l-6.9336-1.14454m6.9336 1.14454l.78125 2.32812m11.67969-5.2539l-5.22266 4.70703m5.22266-4.70704l2.30469.83985m11.30469-.45703l-5.8125 3.9414m5.8125-3.9414l2.17187 1.14453m11.63281 1.73047l-6.79297-1.8086m6.79297 1.8086l.55469 2.39062m11.48438-6.09765l-4.23829 5.60546m4.23828-5.60547l2.42188.38672m10.72266-.5078l-3.89844 5.84765m3.89844-5.84766l2.4414.24219m11.41407.20312l-4.98047 4.95703m4.98047-4.95703l2.34375.72266m9.53515-1.59766l-2.10547 6.70703m1.79688-5.73046l1.20703-.22266m12.9336-.54297l-3.14063 6.28516m3.14062-6.28516l2.45313-.0625m11.58984.54688l-4.59765 5.3164m4.59765-5.3164l2.39063.54296m11.22265-.25l-5.19531 4.73047m5.19531-4.73047l2.3125.82422m-3.0664-.13672l1.15234.41407m13.21875-.72266l-5.79687 3.97266m5.79687-3.97266l2.17578 1.13672m-3.01953-.5586l1.08594.56641m13.60937.10938l-6.8711 1.46484m5.8711-1.2539l.78907.9414m9.5-3.88281l1.17968 6.92578m-1.00781-5.91797l.97266-.75m10.21484.78125l5.08984 4.84766m-5.08984-4.84766l.66016-2.36328m18.6875 5.22266l-6.97266-.8711m5.95703.7461l.4375 1.14453m13.36328-3.35547l-5.91406 3.80078m5.91406-3.80078l2.14063 1.20312m-3-.64843l2.14062 1.19921m-3-.64843l1.0664.60156m13.48438-2.30078l-4.9453 4.98828m4.9453-4.98828l2.35157.70703m-3.07032.01953l1.17579.35156m12.08203-1.66015l-3.39453 6.15234m3.39453-6.15234l2.45312.03906m-2.94922.85547l2.45703.03906m11.71875-.69922l-4.125 5.6875m4.125-5.6875l2.4297.33985m-3.02735.48437l1.21484.17188m13.34375-.39453l-5.41406 4.48046"/><g clip-path="url(#X)"><path fill="none" stroke="#000" stroke-linecap="round" stroke-linejoin="round" stroke-miterlimit="10" stroke-width=".5" d="M466.26953 424.82813l2.26953.9375"/></g><path fill="none" stroke="#000" stroke-linecap="round" stroke-linejoin="round" stroke-miterlimit="10" stroke-width=".5" d="M465.48047 425.48047l1.13672.46875"/><g clip-path="url(#Y)"><path fill="none" stroke="#000" stroke-linecap="round" stroke-linejoin="round" stroke-miterlimit="10" stroke-width=".5" d="M147.40625 414.61328l-6.8125-1.72265"/></g><path fill="none" stroke="#000" stroke-linecap="round" stroke-linejoin="round" stroke-miterlimit="10" stroke-width=".5" d="M146.41406 414.36328l.29297 1.1914m13.83984-.41796l-6.46093-2.76563m5.51953 2.36329l.10156 1.22265m13.90625-.35156l-5.96875-3.70703m5.96875 3.70703l-.16406 2.44922m13.73437-2.9414l-6.47656-2.71876m6.47656 2.71875l.22657 2.44531m13.20703-4.83984l-6.71485 2.07031m6.71485-2.07031l1.73828 1.73047m11.6875-1.25l-6.9375 1.10937m6.9375-1.10937l1.48047 1.95703m11.86719-1.70312l-7 .59765m5.98046-.50781l.66797 1.02734m12.75 1.5625l-5.16797-4.75781m4.41797 4.0664l-.3086 1.1875m15.10548-4.03906l-6.6289 2.32813m5.66405-1.98828l.90235.82812m13.40625-1.08593l-6.6875 2.16015m5.71484-1.84375l.8789.85156m13.25-1.57421l-6.36718 2.97265m5.4375-2.53906l.98047.73828m13.55078-.22656l-6.9414 1.08594m5.92968-.9297l.73828.98438m13.21094 1.0625l-6.1914-3.32422m5.29296 2.84375l-.0039 1.22657m14.375-3.73828l-6.50391 2.66015m5.5586-2.27344l.9414.78516m13.41016-.92187l-6.6875 2.16406m6.6875-2.16406l1.76172 1.70703m11.67187-1.22657l-6.92187 1.20313m6.92187-1.20313l1.50781 1.9375m11.82813-1.8125l-6.96485.95313m6.96485-.95313l1.4336 1.98829m11.22265-3.60547l-5.64453 4.1875m5.64453-4.1875l2.21484 1.05468m-3.03906-.4453l1.10937.52734m12.64454-1.57422l-4.87891 5.05859m4.8789-5.0586l2.35938.67579m-3.0664.0625l2.35546.67578m12.08985-.92188l-5.72266 4.07813m5.72266-4.07813l2.1953 1.09766m-3.02733-.5039l2.1953 1.09765m11.21876-2.44922l-4.2539 5.59375m4.2539-5.59375l2.42187.39453m-3.04297.41797l2.42188.39453m10.98047-1.54297l-3.1875 6.26563m3.1875-6.26563l2.45312-.04296m-2.91797.95312l1.22657-.01953m12.76953-.76953l-3.6211 6.02344m3.6211-6.02344l2.44922.1289m-2.97657.7461l2.44922.13281m11.40235-1.0039l-3.64063 6.01171m3.64063-6.01172l2.44922.14063m-2.98047.73437l1.22656.07032m13.42969-.26953l-5.25782 4.66015"/><g clip-path="url(#Z)"><path fill="none" stroke="#000" stroke-linecap="round" stroke-linejoin="round" stroke-miterlimit="10" stroke-width=".5" d="M466.1914 411.42188l2.30079.85937"/></g><path fill="none" stroke="#000" stroke-linecap="round" stroke-linejoin="round" stroke-miterlimit="10" stroke-width=".5" d="M465.42578 412.10156l2.30078.85547m-3.0664-.17578l1.14843.42578"/><g clip-path="url(#aa)"><path fill="none" stroke="#000" stroke-linecap="round" stroke-linejoin="round" stroke-miterlimit="10" stroke-width=".5" d="M147.44922 399.77344l-6.89844 1.32812"/></g><path fill="none" stroke="#000" stroke-linecap="round" stroke-linejoin="round" stroke-miterlimit="10" stroke-width=".5" d="M146.44531 399.96875l.76953.95313m12.6797 1.90234l-5.15626-4.77344m4.40625 4.07813l-.3125 1.1875m14.72656-.9336l-5.85547-3.88672m5.00391 3.32032l-.1211 1.22265m14.81641-1.98437l-6.91797-1.23438m6.91797 1.23438l.75782 2.33594m12.5703-2.39844l-6.9414-1.10938m6.9414 1.10938l.79298 2.32422m12.54687-2.52735l-6.99219-.70312m5.97657.60156l.46484 1.13672m13.14453-3.54297l-5.54687 4.3164m5.54687-4.3164l2.23828 1.0039m11.7461.44923l-6.88672 1.40625m6.88672-1.40625l1.5625 1.89453M254 399.9414l-6.95703.99609M254 399.9414l1.44531 1.98048m11.61719-2.8711l-6.45703 2.77344m6.45703-2.77344l1.91406 1.53516m11.60938-.88281l-6.8711 1.46875m6.8711-1.46875l1.57812 1.8789m11.51953-2.55078l-6.4375 2.8125m5.50391-2.40234l.96094.76171m13.0586-1.61328l-5.97657 3.69532m5.10547-3.15625l1.0625.61718m13.6289 1.05079l-6.98828-.71485m6.98828.71485l.92579 2.27343m12.40625-2.51172l-7.02344-.23828m6.0039.20313l.53907 1.10156m13.3789-2.85156l-6.1875 3.33203m5.28516-2.84766l1.02344.67969m12.24218-2.28125l-4.28515 5.5664m3.66406-4.7578l1.20703.20312m13.5039-.1875l-5.83593 3.91797m5.83594-3.91797l2.16406 1.15625m-3.01172-.58594l2.16406 1.15625m11.29297-2.5l-4.42187 5.46094m4.42187-5.46094l2.40625.46875m-3.05078.32813l2.41016.46484m12.39844-.2539l-6.1211 3.4453m6.1211-3.4453l2.0664 1.32421m-2.95703-.82031l2.0664 1.32031m12.21876-1.67969l-6.28125 3.15625m6.28125-3.15625l2 1.41797m-2.91407-.95703l1 .70703m12.57422-2.07421l-4.96875 4.96875m4.96875-4.96875l2.34766.71875m-3.07031.0039l1.17187.35938m12.5039-1.39454l-4.24609 5.59766m4.2461-5.59765l2.42187.39062m-3.03906.42188l2.42188.39062m-3.03907.42578l1.21094.19531m14.21875-.85156l-6.0039 3.65235m6.0039-3.65235l2.10938 1.25m-2.98438-.71875l1.05469.625m12.90234-1.49219l-5.54297 4.32032"/><g clip-path="url(#ab)"><path fill="none" stroke="#000" stroke-linecap="round" stroke-linejoin="round" stroke-miterlimit="10" stroke-width=".5" d="M466.33203 398.27734l2.24219 1.00391"/></g><g clip-path="url(#ac)"><path fill="none" stroke="#000" stroke-linecap="round" stroke-linejoin="round" stroke-miterlimit="10" stroke-width=".5" d="M465.52734 398.90625l2.23829 1.0039"/></g><g clip-path="url(#ad)"><path fill="none" stroke="#000" stroke-linecap="round" stroke-linejoin="round" stroke-miterlimit="10" stroke-width=".5" d="M146.9336 385.1914l-5.8672 3.86329"/></g><path fill="none" stroke="#000" stroke-linecap="round" stroke-linejoin="round" stroke-miterlimit="10" stroke-width=".5" d="M146.08203 385.7539l1.07422.58594m13.2461 2.46485l-6.17188-3.36328m5.27344 2.875l-.01172 1.22656m14.33594-.96485l-6.39844-2.91015m5.46875 2.48437l.07422 1.22657m14.21484-3.60938l-6.48438 2.70703m5.53907-2.3125l.94922.77735m9.45703-3.27735l1.22656 6.91797m-1.05078-5.91015l.96875-.75782m16.1211 4.30078l-6.6797-2.18359m6.6797 2.1836l.42577 2.41406m13.0625-3.50391H220.375m7.02734 0l1.15235 2.16406m12.14062-2.57422l-6.98047.81641m6.98047-.8164l1.39453 2.01952m11.85938-2.37109l-6.85938 1.51953m6.85938-1.51953l1.59375 1.86719m11.3789-2.78516l-6.17187 3.35547m5.27344-2.86719l1.02344.67579m13.36328-.80079l-6.51563 2.62891m5.5664-2.2461l.9375.78907m13.51563-.53906l-6.89453 1.36328m6.89453-1.36328l1.54688 1.90234m11.3086-3.07031l-5.97657 3.69922m5.10547-3.16016l1.0625.61719m13.53125-.20703l-6.79297 1.80078m6.79297-1.80078l1.66797 1.80078m11.46875-2.3125l-6.4336 2.82422m6.4336-2.82422l1.92578 1.51953m10.23828-2.94922l-4.13281 5.6836m4.1328-5.6836l2.4297.34375m12.125 1.3125l-6.61328 2.3711m6.61328-2.3711l1.8164 1.65234m-2.77734-1.30468l.90625.82421m13.23047-1.5039l-6.33594 3.03906m6.33594-3.03906l1.97656 1.45312m-2.89844-1.01171l.98828.72656m13.17188-1.32031l-6.17969 3.33984m6.17969-3.33985l2.04297 1.35547m-2.9414-.87109l1.01952.67969m12.83203-1.70703l-5.45703 4.42578m5.45703-4.42578l2.26172.95703m-3.05468-.3125l2.2578.95703m11.83985-1.61328l-5.4375 4.44922m5.4375-4.44922l2.26563.94922m-3.0547-.30079l1.12892.47266m13.13671-.90625l-5.76171 4.01953m5.76171-4.01953l2.1875 1.11719m-3.02343-.53125l1.08984.55469m12.48438-1.78125l-4.60547 5.30468m4.60547-5.30468l2.39062.55078m-3.0586.21875l2.39063.55078m12.55078.01953l-6.52343 2.6211m6.52343-2.6211l1.875 1.58203m-2.82422-1.19922l.9375.78906m12.97657-1.82812l-5.82422 3.9336"/><g clip-path="url(#ae)"><path fill="none" stroke="#000" stroke-linecap="round" stroke-linejoin="round" stroke-miterlimit="10" stroke-width=".5" d="M466.47266 385.15625l2.16796 1.14844"/></g><g clip-path="url(#af)"><path fill="none" stroke="#000" stroke-linecap="round" stroke-linejoin="round" stroke-miterlimit="10" stroke-width=".5" d="M465.625 385.73047l2.16797 1.14844"/></g><g clip-path="url(#ag)"><path fill="none" stroke="#000" stroke-linecap="round" stroke-linejoin="round" stroke-miterlimit="10" stroke-width=".5" d="M147.24219 372.45703l-6.48438 2.69922"/></g><path fill="none" stroke="#000" stroke-linecap="round" stroke-linejoin="round" stroke-miterlimit="10" stroke-width=".5" d="M147.24219 372.45703l1.89844 1.5586m-2.83985-1.16407l.94531.77735m13.48438 1.0078l-6.82813-1.65624m6.82813 1.65625l.60937 2.3789m12.58203-1.98046l-6.58593-2.45313m6.58594 2.45313l.32421 2.42968m12.8672-5.17187l-6.33595 3.03125m6.33594-3.03125l1.97656 1.45703m11.13282-1.83203l-5.92188 3.78125m5.0586-3.23047l1.0703.60156m13.4922-.32812l-6.69532 2.13281m6.69531-2.13281l1.75782 1.71484m11.71484-.92969l-7.00781.5625m7.00781-.5625l1.32031 2.06641m-2.33984-1.98438l.66016 1.03125m13.65625-1.26953l-6.97266.875m6.97266-.875l1.41406 2.00391m11.80078-2.50781l-6.76953 1.88281m6.76953-1.88281l1.6914 1.77734m11.5586-1.98828l-6.64063 2.30469m6.64063-2.30469l1.79688 1.66797m11.69921-.78516l-7.0039.53906m5.98437-.46093l.66016 1.03515m13.6875-.89062l-7.02735.08984m7.02735-.08984l1.17969 2.15234m12.11328-2.47656l-6.98438.74219m6.98438-.74219l1.375 2.03125m11.90234-2.29297l-6.91016 1.26172m6.91016-1.26172l1.52344 1.92578m11.83594-.98828l-7-.60937m5.98437.51953l.47656 1.1289m13.8672-1.39453l-7.02735.10156m7.02734-.10156l1.1836 2.14844m12.11718-2.44922l-6.99219.69922m6.9922-.69922l1.35937 2.04297m-2.3789-1.9414l.67968 1.02343m13.61719-1.38281l-6.92188 1.21875m6.92188-1.21875l1.5078 1.9336m-2.51562-1.75391l.75782.96484m13.51953-1.35938l-6.83203 1.64844m6.83203-1.64844l1.6289 1.83594m-2.62109-1.59765l.8125.91796m13.53125-.98437l-6.90234 1.30469m6.90234-1.30469l1.53516 1.91406m-2.53907-1.72656l.76953.96094m13.33985-1.85547l-6.48047 2.71875m6.48047-2.71875l1.89844 1.55469m-2.84375-1.16016l.94921.77734m13.45704-.73828l-6.77735 1.85156m6.77735-1.85156l1.68359 1.78516m-2.66797-1.51563l.83984.89063m13.16016-1.91016l-6.17578 3.35156m6.17578-3.35156l2.04688 1.35156m-2.94532-.86328l1.02344.67579m13.23047-1.08594l-6.25781 3.19531m6.25781-3.19531l2.01172 1.40234m11.23047-1.54297l-6.10938 3.47656"/><g clip-path="url(#ah)"><path fill="none" stroke="#000" stroke-linecap="round" stroke-linejoin="round" stroke-miterlimit="10" stroke-width=".5" d="M466.61719 372.07031l2.07031 1.3125"/></g><path fill="none" stroke="#000" stroke-linecap="round" stroke-linejoin="round" stroke-miterlimit="10" stroke-width=".5" d="M465.72656 372.57813l1.03516.65625"/><g clip-path="url(#ai)"><path fill="none" stroke="#000" stroke-linecap="round" stroke-linejoin="round" stroke-miterlimit="10" stroke-width=".5" d="M147.48438 360.04297l-6.96875.90234"/></g><path fill="none" stroke="#000" stroke-linecap="round" stroke-linejoin="round" stroke-miterlimit="10" stroke-width=".5" d="M147.48438 360.04297l1.42187 2m-2.4375-1.8711l.71094 1m13.60156-.09375l-6.92969-1.16796m6.92969 1.16796l.77344 2.32813m-1.78125-2.5l.38672 1.16406m13.85156-.625l-6.76172-1.90625m6.76172 1.90625l.51953 2.39844m12.00781-.98047l-5.1875-4.74219m5.1875 4.7422l-.61328 2.3789m14.59375-3.4375L194 359.17969m6.51953 2.625l.25781 2.4414m12.7461-5.66406l-5.89844 3.82031m5.89844-3.8203l2.14453 1.1953m11.42187-.73437l-6.39843 2.89844m6.39843-2.89844l1.94532 1.5m11.42968-1.35938l-6.51953 2.6172m6.51953-2.6172l1.87891 1.58204m11.53906-1.29297l-6.72265 2.04296m6.72265-2.04296l1.73047 1.73828M267 358.96875l-6.33203 3.04688m5.41406-2.60157l.98828.72656m13.58985.19922l-7.01954.3047m7.01954-.3047l1.24609 2.1172m12.07031-1.82423l-7.02344-.27734m7.02344.27734l1.0664 2.20703m12.21485-1.84765l-6.95312-1m6.95312 1l.83203 2.3086m12.47266-2.2461l-6.9336-1.1211m6.9336 1.1211l.79297 2.32031m-1.80078-2.48438l.39453 1.16016m13.96094-1.88281l-6.9961.64844m6.9961-.64844l1.34765 2.05078m-2.36719-1.95703l.67579 1.02734m13.6328-.26953l-6.9453-1.05469m6.9453 1.0547l.81641 2.3164m12.50391-2.35156l-6.95703-.98047m6.95703.98046l.83984 2.3047m-1.85156-2.44923l.41797 1.15235m13.9414-1.41016l-7.02343-.17969m7.02344.1797l1.09765 2.1953m-2.11718-2.22265l.54687 1.09765m13.67969-2.03125l-6.8086 1.7422m6.8086-1.7422l1.65234 1.81641m-2.64062-1.5625l1.65234 1.8125m12.64844-2.07813l-6.80078 1.76954m6.80078-1.76954l1.66015 1.8047m-2.64843-1.54688l1.66015 1.80469m12.67188-1.94141l-6.85938 1.52734m6.85938-1.52734l1.59765 1.86328m-2.59375-1.64453l.79688.9336m13.47266-1.32423l-6.77344 1.8672m6.77344-1.8672l1.6875 1.78516m-2.67188-1.51172l.83984.89063m13.35547-1.48047l-6.5664 2.5m6.5664-2.5l1.84766 1.61328m-2.80469-1.25l.92578.8086m13.34766-1.16407l-6.57031 2.48438m6.57031-2.48438l1.84375 1.6211m-2.79688-1.25782l.92188.8086m13.08203-1.71875l-6.04297 3.58203"/><g clip-path="url(#aj)"><path fill="none" stroke="#000" stroke-linecap="round" stroke-linejoin="round" stroke-miterlimit="10" stroke-width=".5" d="M466.58203 358.70313l2.09766 1.27343"/></g><path fill="none" stroke="#000" stroke-linecap="round" stroke-linejoin="round" stroke-miterlimit="10" stroke-width=".5" d="M465.70313 359.22266l1.05078.63671"/><g clip-path="url(#ak)"><path fill="none" stroke="#000" stroke-linecap="round" stroke-linejoin="round" stroke-miterlimit="10" stroke-width=".5" d="M147.42969 346.41797l-6.85938 1.51953"/></g><path fill="none" stroke="#000" stroke-linecap="round" stroke-linejoin="round" stroke-miterlimit="10" stroke-width=".5" d="M147.42969 346.41797l1.59375 1.86719m11.71484-.3125l-6.84766-1.58985m6.84766 1.58985l.63281 2.37109m-1.6289-2.60156l.3164 1.1836m14.0625-1.33985l-6.98047-.8164m6.98047.8164l.89063 2.28906m-1.90625-2.40625l.44531 1.14453m13.72656-.32031l-6.66406-2.23047m6.66406 2.23047l.40625 2.42187m12.96875-4.46093l-6.78125 1.84765m5.79297-1.57812l.83985.89453m13.10547-2.01172l-6.06641 3.54297m6.0664-3.54297l2.08594 1.28906m11.60547-.35937l-6.82031 1.6836m6.82031-1.6836l1.63672 1.82812m11.77344-.73828l-7.01172-.4961m7.01172.4961l.9961 2.24219m12.26171-1.8125L247.07422 346.5m6.89453 1.35547l.71094 2.34765m12.55469-2.13671l-6.79688-1.77735m6.79688 1.77735l.5664 2.38671m12.85156-2.98046l-7.0039-.58985m7.0039.58985l.96485 2.2539m12.36328-2.57422l-7.02734.05079m7.02734-.05079l1.16797 2.15625m12.13672-1.88671l-7.00782-.48829m7.00782.48829l1 2.24218m12.24609-1.75781l-6.8711-1.45703m6.8711 1.45703l.67969 2.35938m-1.67969-2.57032l.33984 1.17969m14.05079-1.53516l-7.01954-.32421m7.01954.32421l1.05078 2.21875m-2.07422-2.26562l.52734 1.10937m13.8125-1.28906l-7.02344.1289m7.02344-.1289l1.1914 2.14844m-2.21093-2.1289l.59375 1.07421m13.72656-.6875l-6.9961-.6836m6.9961.6836l.9336 2.26953m-1.95313-2.36719l.9375 2.26563m13.41016-2.59766l-7.02344.17579m7.02344-.17579l1.20703 2.13672m-2.22656-2.11328l1.20703 2.13672m-2.23047-2.10938l.60547 1.07032m14.61328-2.02344l-6.74219 1.98047m6.74219-1.98047l1.71484 1.7539m-2.69531-1.46484l1.71484 1.7539m-2.6953-1.46483l.85546.875m14.2539-1.90235l-6.41015 2.8789m6.41016-2.8789l1.9375 1.50781m-2.8711-1.08593l1.9375 1.5039m-2.86718-1.08594l.96875.75m14.18359-1.64453l-6.35938 2.98829m6.35938-2.98829l1.96484 1.46875m-2.89062-1.03515l1.96484 1.47265m-2.89062-1.03515l.98437.73437m14.16406-1.64453l-6.3203 3.0664m6.3203-3.0664l1.98047 1.44531m-2.89843-1l1.98046 1.44532m12.38672-1.57813l-6.58984 2.44531m6.58984-2.4453l1.83203 1.6289m-2.79296-1.27344l1.83593 1.6289m12.5625-1.5703l-6.83593 1.61718m6.83593-1.61719l1.6211 1.83985m-2.61328-1.60547l1.61718 1.84375m12.60547-2.38672l-6.66406 2.23047"/><g clip-path="url(#al)"><path fill="none" stroke="#000" stroke-linecap="round" stroke-linejoin="round" stroke-miterlimit="10" stroke-width=".5" d="M466.89453 346.0625l1.77735 1.6875"/></g><path fill="none" stroke="#000" stroke-linecap="round" stroke-linejoin="round" stroke-miterlimit="10" stroke-width=".5" d="M465.92578 346.38672l1.77735 1.6875"/><g clip-path="url(#am)"><path fill="none" stroke="#000" stroke-linecap="round" stroke-linejoin="round" stroke-miterlimit="10" stroke-width=".5" d="M147.28516 332.61719l-6.57032 2.49219"/></g><path fill="none" stroke="#000" stroke-linecap="round" stroke-linejoin="round" stroke-miterlimit="10" stroke-width=".5" d="M147.28516 332.61719l1.84375 1.61719m11.29687 1.26171l-6.22266-3.26562m6.22266 3.26562l.01563 2.45313m13.6289-3.3789l-6.88281-1.41798m6.88281 1.41797l.6914 2.35547m12.65235-3.6289l-6.9375 1.1328m6.9375-1.1328l1.48438 1.95312m11.82422-1.97266l-6.92578 1.17188m6.92578-1.17188l1.5 1.94141m11.85156-1.69531l-6.9961.67969m6.9961-.6797l1.35547 2.04688m-2.375-1.94922l.67969 1.02344m13.65625-.46875l-7-.625m7 .625l.95312 2.25781m12.3711-2.42187l-7.01954-.29688m7.01953.29688l1.0586 2.21484m12.25781-2.53906l-7.01953.35156m7.01953-.35156l1.25781 2.10547m-2.28125-2.05469l.6289 1.05078m13.70704-1.1289l-7.01563.40625m7.01563-.40625l1.27344 2.09765m12.03515-1.59375l-7.0039-.60156m7.0039.60156l.96094 2.25781m12.30469-1.91015l-6.90625-1.29688m6.90625 1.29688l.73437 2.33984m12.63672-2.8125l-7.01562-.35156m7.01562.35156l1.04297 2.22266m12.27734-2.3164l-7.02734-.16407m7.02734.16406l1.09766 2.19531m-2.1211-2.21875l.55079 1.09766m13.70703-.39844l-6.86328-1.51562m6.86328 1.51562l.65625 2.36329m-1.65625-2.58594l.32812 1.1836m14.03125-1.22267l-6.95703-.99218m6.95703.99219l.83594 2.30859m-1.84765-2.45313l.41796 1.15625m13.90235-.95312l-6.9414-1.10938m6.9414 1.10938l.79297 2.32031M359.5 334.25781l.39844 1.16016m13.75781-.35156l-6.60156-2.40625m6.60156 2.40625L374 337.49609m-1.30469-2.78125l.34375 2.4297m14.14453-3.28126h-7.02734m7.02734 0l1.15235 2.16797m-2.17188-2.16797l.57422 1.08203m13.73438-.65625L393.5 333.4375m6.97266.85156l.8828 2.28906m-1.89452-2.41406l.4375 1.14453m13.91015-1.64843l-7.01562.40625m7.01562-.40625l1.27735 2.09375m-2.29688-2.03516l1.27344 2.09766m12.7539-3.39844l-6.40234 2.89062m6.40235-2.89062l1.9453 1.4961m-2.875-1.07813l1.94141 1.5m12.33594-1.84375l-6.46875 2.74219m6.46875-2.7422l1.91016 1.54298m-2.84766-1.14454l1.90625 1.54297m-2.84765-1.14453l.95312.77344m14.34375-1.30469l-6.67187 2.21094m6.67187-2.21094l1.77344 1.69531m-2.7461-1.375l1.77735 1.69532m-2.7461-1.3711l.88672.84766m14.35547-1.53516l-6.64062 2.29688"/><g clip-path="url(#an)"><path fill="none" stroke="#000" stroke-linecap="round" stroke-linejoin="round" stroke-miterlimit="10" stroke-width=".5" d="M466.88281 332.71484l1.79688 1.67188"/></g><path fill="none" stroke="#000" stroke-linecap="round" stroke-linejoin="round" stroke-miterlimit="10" stroke-width=".5" d="M465.91797 333.05078l1.79297 1.67188m-2.76172-1.33985l1.79687 1.67188"/><g clip-path="url(#ao)"><path fill="none" stroke="#000" stroke-linecap="round" stroke-linejoin="round" stroke-miterlimit="10" stroke-width=".5" d="M145.02344 320.54688l-.01953-.19922-.0586-.19141-.09375-.17578-.46094-.3789-.1914-.0547-.19922-.01953-.19922.01954-.1914.05468-.46094.3789-.09375.17579-.0586.1914-.01953.19923.01953.19921.0586.19141.09375.17969.46094.375.1914.0586.19922.01952.19922-.01953.1914-.0586.46094-.375.09375-.17968.0586-.1914.01953-.19923"/></g><path fill="none" stroke="#000" stroke-linecap="round" stroke-linejoin="round" stroke-miterlimit="10" stroke-width=".5" d="M159.8125 323.01953l-4.9961-4.9414m4.26954 4.22265l-.35156 1.17578m14.79296-.9414l-5.79687-3.97266m5.79687 3.97266l-.27343 2.4375m13.96093-3.13672l-6.53906-2.57422m6.53906 2.57422l.27735 2.4375m13.01172-2.3711l-6.48438-2.71093m6.48438 2.71093l.22656 2.44532m13.32031-3.28516l-6.94922-1.02734m6.94922 1.02734l.82422 2.3125m-1.83594-2.46094l.41016 1.15625m13.95312-1.4375l-7.02343-.16797m7.02343.16797l1.10157 2.1914m-2.1211-2.21874l.54688 1.09765m13.78906-1.03515l-7.02344-.23828m7.02344.23828l1.07422 2.20312m-2.09766-2.23828l.53906 1.10156m13.79688-1.26562l-7.02344.15625m7.02344-.15625l1.20313 2.14063m-2.22266-2.1172l.59766 1.07032m13.71875-1.38281l-6.98829.73828m6.98828-.73828l1.375 2.03515m-2.39062-1.92968l.6875 1.01953m13.65234-1.03125l-7.0039.54687m7.0039-.54687l1.31641 2.07031m-2.33594-1.98828l.66016 1.03515m13.6836-.66015l-7.01954-.36328m7.01953.36328l1.03516 2.22265m12.25781-1.99609l-6.97656-.82031m6.97656.82031l.89063 2.28516m12.44921-2.65235l-7.02734-.08593m7.02734.08593l1.125 2.1836m12.1875-2.38672l-7.01953.32031m7.01953-.32031l1.25 2.11328m-2.27343-2.0664l.625 1.05468m13.69531-.55469l-6.98438-.76953m6.98438.76953l.90625 2.27735m12.23437-1.5039l-6.63671-2.31642m5.67187 1.98047l.1836 1.21094m14.29296-1.98047l-7.02734-.10547m7.02734.10547l1.1172 2.1836m11.99218-3.42188l-6.61719 2.3711m6.61719-2.3711l1.8125 1.65235m10.9414-2.65625l-5.49609 4.3789m5.4961-4.3789l2.25.97656m11.33984-.57422l-6.04688 3.57422m5.16797-3.05469l1.04688.63672m13.16015 2.39844l-6.0703-3.53907m5.1875 3.02735l-.05079 1.22265m12.78516-5.62109l-3.14454 6.28516m2.6875-5.3711l1.22657-.03125m13.39453-.28515l-4.84375 5.08984m4.84375-5.08984l2.36328.66015m-3.0664.07813l1.17968.33203m13.14453-.74219l-5.45312 4.4336"/><g clip-path="url(#ap)"><path fill="none" stroke="#000" stroke-linecap="round" stroke-linejoin="round" stroke-miterlimit="10" stroke-width=".5" d="M466.28906 318.33203l2.25781.95313"/></g><g clip-path="url(#aq)"><path fill="none" stroke="#000" stroke-linecap="round" stroke-linejoin="round" stroke-miterlimit="10" stroke-width=".5" d="M465.4961 318.97656l2.2578.95313"/></g><path fill="none" stroke="#000" stroke-linecap="round" stroke-linejoin="round" stroke-miterlimit="10" stroke-width=".5" d="M464.70313 319.6211l1.1289.47656"/><path fill="#00f" fill-rule="evenodd" d="M383.80078 472.08594h8.61719V461.9414h-8.61719v10.14453"/><path fill="azure" fill-rule="evenodd" d="M385.63281 463.77344h.83203v2.82422h3.28907v-2.82422h.83203v6.48047h-.83203v-2.91797h-3.28907v2.91797h-.83203v-6.48047"/><path fill="#ff3030" fill-rule="evenodd" d="M459.94531 449.89453h7.69531V439.75h-7.6953v10.14453"/><path fill="azure" fill-rule="evenodd" d="M461.78125 441.58203h.83203v5.73828h3.1914v.74219h-4.02343v-6.48047"/><path fill="#00f" fill-rule="evenodd" d="M383.80078 436.57813h8.61719v-10.14454h-8.61719v10.14454"/><path fill="azure" fill-rule="evenodd" d="M385.63281 428.26563h.83203v2.82421h3.28907v-2.82421h.83203v6.48046h-.83203v-2.91406h-3.28907v2.91406h-.83203v-6.48046"/><path fill="#ff3030" fill-rule="evenodd" d="M384.4961 414.38672h7.6914v-10.14453h-7.6914v10.14453"/><path fill="azure" fill-rule="evenodd" d="M386.32813 406.07422h.83203v5.74219h3.1953v.73828h-4.02733v-6.48047"/><path fill="#ff3030" fill-rule="evenodd" d="M295.72656 409.94922h7.69531v-10.14453h-7.6953v10.14453"/><path fill="azure" fill-rule="evenodd" d="M297.5586 401.63672h.83593v5.73828h3.1914v.74219h-4.02734v-6.48047"/><path fill="#ff3030" fill-rule="evenodd" d="M198.08203 374.4414h7.69531v-10.14452h-7.6953v10.14453"/><path fill="azure" fill-rule="evenodd" d="M199.91797 366.1289h.83203v5.7422h3.19531v.73827h-4.02734v-6.48046"/><path fill="#ffffe0" fill-rule="evenodd" d="M341.74219 403.38281h22.1836V393.1875h-22.1836v10.19531"/><path fill-rule="evenodd" d="M345.24219 395.02344h.51172v6.29297h-.78907v-4.48829h-1.38671v-.55468l.55859-.0664.2539-.0547.22657-.08984.20312-.14063.17578-.21093.14063-.29297.10547-.39453m4.8164 0l.22657.01953.21875.05469.21093.08984.19532.1211.18359.14843.17188.17578.30078.41797.24218.4961.1797.54687.11327.57813.03906.58984-.03906.59375-.11328.58594-.17969.55078-.24218.5039-.30079.42579-.17187.17968-.1836.15625-.1953.1211-.21094.09375-.21875.05468-.22657.01954-.23046-.01954-.21875-.05468-.20704-.09375-.19921-.1211-.1836-.15625-.17187-.17969-.30079-.42578-.24218-.5039-.17969-.55078-.11328-.58594-.03906-.59375h.83593l.02735.5625.08203.50781.125.4414.16406.375.1914.30079.21094.22265.22266.13672.22656.04688.22657-.04688.22265-.13671.21094-.22266.1875-.30078.16406-.375.125-.4414.08203-.50782.03125-.5625-.03125-.5625-.08203-.5-.125-.4336-.16406-.36718-.1875-.29297-.21094-.21094-.22265-.13281-.22657-.04688-.22656.04688-.22265.13281-.21094.21094-.1914.29297-.16407.36719-.125.43359-.08203.5-.02735.5625h-.83593l.03906-.58985.11328-.57812.17969-.54688.24219-.49609.30078-.41797.17187-.17578.1836-.14844.19921-.12109.20704-.08984.21875-.0547.23046-.01952m4.94922 0l.23047.01953.21875.05469.20703.08984.19922.1211.1836.14843.17187.17578.30078.41797.24219.4961.17969.54687.11328.57813.03906.58984-.03906.59375-.11328.58594-.1797.55078-.24218.5039-.30078.42579-.17188.17968-.18359.15625-.19922.1211-.20703.09375-.21875.05468-.23047.01954-.22656-.01954-.21875-.05468-.21094-.09375-.19531-.1211-.1836-.15625-.17187-.17969-.30078-.42578-.24219-.5039-.17969-.55078-.11328-.58594-.03906-.59375h.83594l.02734.5625.08203.50781.125.4414.16407.375.1914.30079.20703.22265.22266.13672.22656.04688.22656-.04688.22266-.13671.21094-.22266.1914-.30078.16407-.375.125-.4414.08203-.50782.02734-.5625-.02734-.5625-.08203-.5-.125-.4336-.16406-.36718-.19141-.29297-.21094-.21094-.22265-.13281-.22657-.04688-.22656.04688-.22266.13281-.20703.21094-.1914.29297-.16407.36719-.125.43359-.08203.5-.02734.5625h-.83594l.03906-.58985.11329-.57812.17968-.54688.24219-.49609.30078-.41797.17188-.17578.18359-.14844.19531-.12109.21094-.08984.21875-.0547.22656-.01952m4.95313 0l.38672.02734.35937.08203.32422.13672.27734.1875.23047.23438.17578.28906.10547.33203.03906.375-.01953.27344-.05859.23828-.08594.19922-.11328.16797-.1289.14453-.14063.125-.28516.19531.23047.11719.20703.14844.1836.17187.15234.1914.125.21485.08985.23047.05468.24219.01953.2578-.03125.3086-.10546.32422-.17188.32813-.23828.30468-.3086.26954-.375.21484-.21093.08203-.22656.0586-.2461.03906-.26172.01171-.25781-.01171-.24219-.03907-.22265-.05859-.20704-.08203-.35937-.21485-.28906-.26953-.22266-.30468-.15625-.32813-.09375-.32422-.03125-.3086h.83594l.02734.25392.07422.23437.125.21094.16016.1836.1914.15233.22266.1172.23828.0703.2539.02735.25782-.02735.23828-.0703.21875-.1172.19531-.15234.16016-.1836.1211-.21093.07812-.23438.02734-.2539-.02734-.2539-.07813-.23438-.12109-.21485-.16016-.18359-.1953-.15234-.21876-.11329-.23828-.07421-.25781-.02344-.2539.02344-.23829.07421-.22266.11329-.1914.15234-.16016.1836-.125.21484-.07422.23437-.02734.2539h-.83594l.01953-.2539.0586-.24219.08984-.22265.1211-.20703.15624-.1914.1797-.17188.20702-.15235.23438-.13281-.28906-.19531-.13672-.125-.12891-.14453-.11328-.16797-.08594-.19922-.0586-.23828-.01952-.27344h.78515l.02344.21484.0664.19141.10157.16797.13672.13672.16797.11328.1875.08203.20703.05078.21875.01563.22265-.01563.20704-.05078.1875-.08203.16406-.11328.13672-.13672.10546-.16797.06641-.1914.02344-.21485-.02344-.21484-.0664-.19141-.10547-.16406-.13672-.14063-.16406-.10937-.1875-.08203-.20704-.05079-.22265-.01953-.21875.01954-.20703.05078-.1875.08203-.16797.10937-.13672.14063-.10156.16406-.06641.1914-.02344.21485h-.78515l.03515-.375.10938-.33203.17187-.28906.23047-.23438.28125-.1875.32031-.13672.35938-.08203.38672-.02734"/><path fill="#ffffe0" fill-rule="evenodd" d="M390.5664 453.16406h22.1797v-10.19531h-22.1797v10.19531"/><path fill-rule="evenodd" d="M394.0664 444.80469h.50782v6.29297h-.78516v-4.48829h-1.39062v-.55468l.5586-.0664.2539-.0547.23047-.08984.20312-.14063.17188-.21093.14453-.29297.10547-.39453m4.8125 0l.23046.01562.21875.0586.20704.08984.1953.1211.1836.14843.17188.17578.30469.41797.24218.4961.17969.54296.10938.58204.03906.58984-.03906.59375-.10938.58203-.17969.55469-.24219.5039-.30468.42579-.17188.17968-.1836.15625-.1953.1211-.20704.09375-.21875.05468-.23046.01954-.23047-.01954-.21875-.05468-.20703-.09375-.19532-.1211-.18359-.15625-.17188-.17969-.30468-.42578-.24219-.5039-.17969-.55469-.10937-.58203-.03906-.59375h.83203l.03125.5625.07812.50781.1289.4414.16016.375.19141.30079.21094.22265.22265.13672.22657.04688.22656-.04688.22265-.13671.21094-.22266.1914-.30078.16017-.375.1289-.4414.08203-.50782.02735-.5625-.02735-.5625-.08203-.5-.1289-.4336-.16016-.36718-.1914-.29297-.21094-.21094-.22266-.13281-.22656-.04688-.22657.04688-.22265.13281-.21094.21094-.1914.29297-.16016.36719-.1289.43359-.07813.5-.03125.5625h-.83204l.03907-.58985.10937-.58203.17969-.54296.24219-.4961.30469-.41797.17187-.17578.1836-.14844.1953-.12109.20704-.08984.21875-.0586.23047-.01562m4.95312 0l.23047.01562.21875.0586.20703.08984.19531.1211.1836.14843.17187.17578.30078.41797.2461.4961.17969.54296.10937.58204.03906.58984-.03906.59375-.10938.58203-.17968.55469-.2461.5039-.30078.42579-.17187.17968-.1836.15625-.1953.1211-.20704.09375-.21875.05468-.23047.01954-.23047-.01954-.21875-.05468-.20703-.09375-.19531-.1211-.1875-.15625-.16797-.17969-.30469-.42578-.24219-.5039-.17968-.55469-.11328-.58203-.03516-.59375h.83203l.02735.5625.08203.50781.1289.4414.16016.375.1914.30079.21094.22265.22266.13672.22656.04688.22656-.04688.22266-.13671.21094-.22266.1914-.30078.16016-.375.125-.4414.08203-.50782.03125-.5625-.03125-.5625-.08203-.5-.125-.4336-.16016-.36718-.1914-.29297-.21094-.21094-.22266-.13281-.22656-.04688-.22656.04688-.22266.13281-.21094.21094-.1914.29297-.16016.36719-.1289.43359-.08204.5-.02734.5625H401.75l.03516-.58985.11328-.58203.17969-.54296.24218-.4961.30469-.41797.16797-.17578.1875-.14844.19531-.12109.20703-.08984.21875-.0586.23047-.01562m4.95313 0l.38671.02734.35938.08203.32031.13672.28125.1875.23047.23438.17188.28906.10937.33203.03906.375-.02343.27344-.0547.23828-.08983.19922-.11329.16797-.1289.14453-.13672.1211-.28906.19921.23437.11719.20703.14844.17969.17187.15625.1914.1211.21485.09374.23047.0547.24219.01952.2578-.03515.3086-.10547.32422-.17188.32813-.23828.30468-.30469.26954-.375.21484-.21093.08203-.23047.0586-.24219.03906-.26172.01171-.26172-.01171-.23828-.03907-.22656-.05859-.20313-.08203-.35937-.21485-.28906-.26953-.22266-.30468-.16016-.32813-.08984-.32422-.03125-.3086h.83203l.02735.25.07812.23829.1211.21094.16015.1836.19531.15233.21875.1172.23828.0703.25782.02735.2539-.02735.24219-.0703.21875-.1172.1914-.15234.16016-.1836.125-.21093.07813-.23828.02734-.25-.02734-.2539-.07813-.23438-.125-.21485-.16015-.18359-.19141-.15234-.21875-.11329-.24219-.07421-.2539-.02344-.25782.02344-.23828.07421-.21875.11329-.19531.15234-.16016.1836-.12109.21484-.07813.23437-.02734.2539h-.83203l.01953-.2539.05469-.24219.08984-.22265.125-.20703.15235-.1914.18359-.17188.20703-.15235.23047-.13281-.28516-.19922-.14062-.1211-.1289-.14452-.11329-.16797-.08594-.19922-.05859-.23828-.01953-.27344h.78515l.02344.21484.0664.19141.10548.16797.13672.13672.16406.11328.1875.08203.20703.05078.22266.01563.21875-.01563.20703-.05078.1875-.08203.16797-.11328.13671-.13672.10157-.16797.0664-.1914.02344-.21485-.02344-.21484-.0664-.19141-.10156-.16406-.13672-.14063-.16797-.11328-.1875-.07812-.20703-.05079-.21875-.01953-.22266.01954-.20703.05078-.1875.07812-.16406.11328-.13672.14063-.10547.16406-.0664.1914-.02344.21485h-.78516l.03906-.375.10938-.33203.17187-.28906.23047-.23438.27734-.1875.32422-.13672.35938-.08203.38672-.02734"/><path fill="#ffffe0" fill-rule="evenodd" d="M328.42969 355.26953h22.17969v-10.1914h-22.1797v10.1914"/><path fill-rule="evenodd" d="M331.92969 346.91016h.50781v6.29687h-.78516v-4.49219h-1.39062v-.55468l.5586-.0625.2539-.0547.23047-.08983.20312-.14063.17188-.21094.14453-.29297.10547-.39843m4.8125 0l.23047.01953.21875.05469.20703.08984.19531.1211.1836.15234.17187.17578.30469.41797.24218.49218.1797.54688.10937.57812.03906.59375-.03906.59375-.10938.58204-.17969.55468-.24218.5-.3047.42969-.17187.17969-.18359.15234-.19531.125-.20703.08985-.21875.05859-.23047.01953-.23047-.01953-.21875-.0586-.20703-.08984-.19531-.125-.1836-.15234-.17187-.17969-.3047-.42969-.24218-.5-.17969-.55469-.10937-.58203-.03906-.59375h.83203l.02734.5625.08203.50391.1289.44531.16017.375.1914.30078.21094.21875.22265.13672.22657.04688.22656-.04688.22266-.13672.21093-.21875.19141-.30078.16016-.375.1289-.44531.07813-.5039.03125-.5625-.03125-.5625-.07813-.5-.1289-.4375-.16016-.36329-.1914-.29297-.21094-.21484-.22266-.1289-.22656-.04688-.22656.04687-.22266.12891-.21094.21484-.1914.29297-.16016.36328-.1289.4375-.08204.5-.02734.5625h-.83203l.03906-.59375.10937-.57812.1797-.54688.24218-.49218.30469-.41797.17187-.17578.1836-.15235.1953-.1211.20704-.08983.21875-.0547.23047-.01952m5.08984 0h.51172v6.29687h-.78906v-4.49219h-1.38672v-.55468l.5586-.0625.2539-.0547.22656-.08983.20313-.14063.17578-.21094.14062-.29297.10547-.39843m2.82422 2.17578h.78906l.01953-.3164.0586-.28517.09765-.2539.14063-.21485.17969-.17187.22656-.1289.26172-.08204.3086-.02734.23827.01953.22266.0664.20703.10157.17969.13672.14844.17187.11328.20703.0703.23438.02345.26562-.01954.26954-.0664.22265-.10938.1914-.15625.17188-.19921.16406-.25.16407-.63282.39062-.53515.3125-.4375.3164-.34766.32423-.26563.33594-.1875.35156-.125.3711-.0703.39062-.01954.42187h4.21094v-.74219h-3.33203l.08203-.28515.11328-.23438.14844-.20312.1875-.17969.23047-.17188.27734-.17578.71875-.41406.41406-.20703.34766-.23047.28125-.25.21875-.26953.16406-.27734.10938-.28516.0664-.28516.01953-.28125-.04296-.3828-.1211-.34767-.1875-.30859-.25-.26172-.30469-.21094-.34375-.16015-.3828-.09766-.40626-.03515-.4336.03515-.39843.09766-.35547.16797-.30469.23437-.24609.30078-.1875.375-.11719.44532-.03906.51953"/></g></defs><use xlink:href="#ar"/></svg>