<svg xmlns="http://www.w3.org/2000/svg" role="img" xmlns:xlink="http://www.w3.org/1999/xlink" viewBox="142.45 309.95 326.84 171.84"><defs><clipPath id="a"><path d="M144 436h1v44.32813h-1zm0 0"/></clipPath><clipPath id="b"><path d="M144 311.67188h1V436h-1zm0 0"/></clipPath><clipPath id="c"><path d="M144 311.67188h324v168.65625H144zm0 0"/></clipPath><clipPath id="d"><path d="M467 311.67188h1v168.65625h-1zm0 0"/></clipPath><clipPath id="e"><path d="M144 479h4v1.32813h-4zm0 0"/></clipPath><clipPath id="f"><path d="M147 480h2v.32813h-2zm0 0"/></clipPath><clipPath id="g"><path d="M153 479h9v1.32813h-9zm0 0"/></clipPath><clipPath id="h"><path d="M160 480h3v.32813h-3zm0 0"/></clipPath><clipPath id="i"><path d="M159 480h2v.32813h-2zm0 0"/></clipPath><clipPath id="j"><path d="M166 479h9v1.32813h-9zm0 0"/></clipPath><clipPath id="k"><path d="M173 480h3v.32813h-3zm0 0"/></clipPath><clipPath id="l"><path d="M172 480h2v.32813h-2zm0 0"/></clipPath><clipPath id="m"><path d="M180 479h8v1.32813h-8zm0 0"/></clipPath><clipPath id="n"><path d="M187 480h2v.32813h-2zm0 0"/></clipPath><clipPath id="o"><path d="M186 480h2v.32813h-2zm0 0"/></clipPath><clipPath id="p"><path d="M193 479h9v1.32813h-9zm0 0"/></clipPath><clipPath id="q"><path d="M200 480h3v.32813h-3zm0 0"/></clipPath><clipPath id="r"><path d="M199 480h2v.32813h-2zm0 0"/></clipPath><clipPath id="s"><path d="M206 479h9v1.32813h-9zm0 0"/></clipPath><clipPath id="t"><path d="M213 480h3v.32813h-3zm0 0"/></clipPath><clipPath id="u"><path d="M212 480h2v.32813h-2zm0 0"/></clipPath><clipPath id="v"><path d="M220 479h8v1.32813h-8zm0 0"/></clipPath><clipPath id="w"><path d="M227 480h2v.32813h-2zm0 0"/></clipPath><clipPath id="x"><path d="M226 480h2v.32813h-2zm0 0"/></clipPath><clipPath id="y"><path d="M233 480h8v.32813h-8zm0 0"/></clipPath><clipPath id="z"><path d="M240 480h3v.32813h-3zm0 0"/></clipPath><clipPath id="A"><path d="M246 479h9v1.32813h-9zm0 0"/></clipPath><clipPath id="B"><path d="M253 479h3v1.32813h-3zm0 0"/></clipPath><clipPath id="C"><path d="M260 479h8v1.32813h-8zm0 0"/></clipPath><clipPath id="D"><path d="M267 479h3v1.32813h-3zm0 0"/></clipPath><clipPath id="E"><path d="M273 479h8v1.32813h-8zm0 0"/></clipPath><clipPath id="F"><path d="M279 479h2v1.32813h-2zm0 0"/></clipPath><clipPath id="G"><path d="M286 479h9v1.32813h-9zm0 0"/></clipPath><clipPath id="H"><path d="M292 480h2v.32813h-2zm0 0"/></clipPath><clipPath id="I"><path d="M300 478h8v2.32813h-8zm0 0"/></clipPath><clipPath id="J"><path d="M305 480h2v.32813h-2zm0 0"/></clipPath><clipPath id="K"><path d="M313 478h8v2.32813h-8zm0 0"/></clipPath><clipPath id="L"><path d="M327 477h7v3.32813h-7zm0 0"/></clipPath><clipPath id="M"><path d="M342 476h4v4.32813h-4zm0 0"/></clipPath><clipPath id="N"><path d="M355 477h5v3.32813h-5zm0 0"/></clipPath><clipPath id="O"><path d="M369 476h3v4.32813h-3zm0 0"/></clipPath><clipPath id="P"><path d="M381 477h6v3.32813h-6zm0 0"/></clipPath><clipPath id="Q"><path d="M393 478h8v2.32813h-8zm0 0"/></clipPath><clipPath id="R"><path d="M391 480h4v.32813h-4zm0 0"/></clipPath><clipPath id="S"><path d="M393 480h3v.32813h-3zm0 0"/></clipPath><clipPath id="T"><path d="M406 478h8v2.32813h-8zm0 0"/></clipPath><clipPath id="U"><path d="M404 480h4v.32813h-4zm0 0"/></clipPath><clipPath id="V"><path d="M420 478h7v2.32813h-7zm0 0"/></clipPath><clipPath id="W"><path d="M433 478h8v2.32813h-8zm0 0"/></clipPath><clipPath id="X"><path d="M439 480h1v.32813h-1zm0 0"/></clipPath><clipPath id="Y"><path d="M446 478h8v2.32813h-8zm0 0"/></clipPath><clipPath id="Z"><path d="M463 476h1v4.32813h-1zm0 0"/></clipPath><clipPath id="aa"><path d="M144 466h4v2h-4zm0 0"/></clipPath><clipPath id="ab"><path d="M466 465h2v3h-2zm0 0"/></clipPath><clipPath id="ac"><path d="M144 452h4v3h-4zm0 0"/></clipPath><clipPath id="ad"><path d="M465 451h3v2h-3zm0 0"/></clipPath><clipPath id="ae"><path d="M144 439h4v3h-4zm0 0"/></clipPath><clipPath id="af"><path d="M465 437h3v2h-3zm0 0"/></clipPath><clipPath id="ag"><path d="M144 426h4v2h-4zm0 0"/></clipPath><clipPath id="ah"><path d="M465 424h3v2h-3zm0 0"/></clipPath><clipPath id="ai"><path d="M144 413h4v2h-4zm0 0"/></clipPath><clipPath id="aj"><path d="M465 411h3v2h-3zm0 0"/></clipPath><clipPath id="ak"><path d="M144 397h3v7h-3zm0 0"/></clipPath><clipPath id="al"><path d="M466 398h2v2h-2zm0 0"/></clipPath><clipPath id="am"><path d="M465 398h3v3h-3zm0 0"/></clipPath><clipPath id="an"><path d="M144 385h4v5h-4zm0 0"/></clipPath><clipPath id="ao"><path d="M466 385h2v3h-2zm0 0"/></clipPath><clipPath id="ap"><path d="M465 385h3v3h-3zm0 0"/></clipPath><clipPath id="aq"><path d="M144 372h4v4h-4zm0 0"/></clipPath><clipPath id="ar"><path d="M466 372h2v4h-2zm0 0"/></clipPath><clipPath id="as"><path d="M144 359h4v3h-4zm0 0"/></clipPath><clipPath id="at"><path d="M466 358h2v3h-2zm0 0"/></clipPath><clipPath id="au"><path d="M144 345h4v4h-4zm0 0"/></clipPath><clipPath id="av"><path d="M466 345h2v3h-2zm0 0"/></clipPath><clipPath id="aw"><path d="M144 332h4v4h-4zm0 0"/></clipPath><clipPath id="ax"><path d="M466 332h2v3h-2zm0 0"/></clipPath><clipPath id="ay"><path d="M144 316h2v9h-2zm0 0"/></clipPath><clipPath id="az"><path d="M465 317h3v3h-3zm0 0"/></clipPath><g id="aA" clip-path="url(#clip1)"><path fill="#fff" fill-opacity="0" fill-rule="evenodd" d="M0 0h1000v1000H0zm0 0"/><path fill="#d3d3d3" fill-opacity="0" fill-rule="evenodd" d="M162.15234 355.86719l-.23437.29297.0586.23437.11718.17188.17578.23437.29297.34766.11328.0586.11719-.17188.0586-.23438.17577-.17578.46485-.17578h.69922l.23437.29297.28906.8164.0586.17579.17578.23046.35156.23438.69922.69922.17188.17578.23437.34765.23438.41016.28906.58203.41015.46485.23047.23437.23438.17578.11719.23047.17578.29297.17187 1.16406v.23438l.0586.28906.05859.11719.11719.11719.34765.41015.11719.17188.17578.17578.17578.23437.11719.17188.17188.35156.05859.23438.23437.40625.23438-.0586-.17578.17578-.0586.92969h-.58203l-.23437-.11328-.34766.11328-.11719.11719-.05859.29297-.0586.17578-.11718.17187-.46484.29297-.0586.23438-.0586.11328v.64453l.0586.17187v.41016l.0586.0586v.40624l.05859.40625.11719.17579.05859.05859.23047.64062-.0586.29297v.69922l-.05859.58203v.23438l-.0586.23047-.05468.35156v1.92187l.05469.1172h.42578l-.36719.11718-.02344.35156.89063 1.16797 1.74219.53906 1.33984.35938v.53906l.08984.8086.53516.71484 1.51953.26953.89063-.08594.08984 1.16406.53516.1797 1.16015-.1797 2.05469-.98437 1.16016-.36328 1.8789-.17578 1.69531-.1797-.17968.71876-1.51563.08594-1.25.08984-.80469.26953-1.07421.8086.26953.71875.53515.89843-.17968.625-.26563.8086.26563 1.07812.625.89844.80468.17969 1.25-.1797-.26562.72267.09766.5039.05468.29297v.17188l.0586.29296v.40625l.17578.1172.35156.11718h.40625l.29297-.17578.11328-.11719.0586-.11719.11718-.23047.0586-.17578.35156-.46484.23047-.17578.17578-.0586.17578.0586.0586.17578.11718.98828.05469.46875.0586.17188.11718.23437.17578.0586.8164.05859h.28907l.11719.23437.05859.40625.0586.35156v1.10547l.11718.29297.11719.34766.28906.69922.17578.35156.58203.7539.35157.17579.17187.0586.46875.23437.64063.46484.34765.23438.29297.17578.29297.05468.23047.0625.8164.34766.29297.17578.11328.17188.35157.35156.11719.17578.52343.64063v.28906l.0586.35156v.34766l.05859.35156.0586.28906.11718.0586.17188.05859h.17578l.58203.23437.17578.1172.17578.28905.17578.23438.11328.23437.29297.23047.11719.11719v.41016l.0586.05468.28906.23438.23437.11719.0586.11718.11718.17188.0586.11719.23047.23437.05859.17578.23437.0586.1172.05859-.1172.11328-.05859.11719v.11719l-.11719.29296-.11719.28907v.58203l.17579.11719.11718.05859.0586.11719.11719.11719.11328.05859.17578.34765.0586.35157.05858.40625v.17578l-.05859.17578-.11719.69922v.17187l.1172.17579.29296.29296h.40625l.17578.1172.11719.17187.11719.29296v.23438h-.52735l-.23047-.23438h-.23437l-.17578.0586-.0586.69922.0586.34765.11719.17579.17578.41015.11718.23047.28907.46875.17578.05469h.52344l.23437.0586.75781.64062.0586.29296v.23438l.05859.0586.23047.34765v.35156l-.11719.17188v.29297l.29297.28906.29297.17578.17187.0586.29297.17577.29297.1172.58203.40624.28906.23438.29297.17578.21875.16015.01563.01172.23047.17579.64062.52343.17578.23438.1172.17578.17577.17578.11328.17188v.64062l.1172.17578.46874.11719.58203.11719.23438.05859.23047.11328.29297.11719.11328.0586.58593.35156.28907.17187.17578.0625.17578.05469.17578.0586.69922.35155.28906.17579.23438.05468.28906.17578.23437.1172.64063.40624.29297.11719.17187.0586.23438.05859.41015.05859.23047.0586.23438.11718.0586.17188-.41017.17578.46875.0586.0586.29296.11328.23438.17578.05468.23438.0586.17578.05859.40625.11719.64062.23437.11719.17188.0586.23437v.17578l-.0586.1172-.0586.40624.23438.23438.11719.05859.34766.11719.64062.23047.17578.11718.28906.1172.17578.17577.23438.46485.58203 1.10546.17578.17579.34766.17578.17578.11719.35156.11718 1.04688.52344.23437.0586.46485.11327.29297.0586.46484.17578.75781.58203.23438.23438.34765.46484.17578.17578.28907.23438.8164.69921.29297.17579.28906.28906.29297.17578.29297.28906.69531.64063.17578.17578.29297.23437.28907.23438.46875.28906.64062.58203.34766.23438.23437.29297.34766.34765.35156.46485.9336.99218.34765.40625.11719.17579.23437.05859.11328.11719.64454.17578.23047.11328.23437.0586.29297.17577.23047.1172.9336.69921.40624.40625.23438.17578.40625.17578.23437.11719.8164.34766.34766.23437.23438.11719.29297.28906.23047.11719.7578.35156.35157.17188.23047.05859.29297.11719.23437.0586.8711.17577h.8164l.46875.23047.17188.0586.875.69921.46484.1172.29297.05858.17578.0586.23047.0586.46875.05859.34766.05859.35156.0586.40625.05859h.29297l.17187.0586v.23046l.17578.17578h.29297l.34766.0586.35156.05859.69922.11719h.64063l.46484-.23438.29297-.17578.17187-.11719.41016-.17187.28906-.17578.9336-.46485.46875-.29297.52343-.29296.46485-.17188.46484-.17578 1.05078-.46485.28906-.11718.41016-.11719.28906-.11719.52735-.17578 1.51562-.69922.58203-.34765.28907-.0586.29297-.0586.34765-.11718.875-.23047.35156-.11719h.11329l.23437-.05859.875-.23437.23438-.0586h.8125l.35156-.0586.8164-.11718.17188-.0586.35156-.05468.29297-.0586.23047-.05859.8164-.17578.17579-.0586h.34765l.23438-.05859.46484-.11718.75781-.17188.23438-.0586h.34765l.41016-.11718.28906-.0586 1.28516-.05859h.28906l.41016-.0586.23047-.05858h.17578l.875-.1172h.40625l.41015-.11718h.34766l.35156-.11328.8711-.0586h1.75l1.04687.28907.41016.11719.28906.11718.35156.11719.28907.11719 1.05078.17187.28906.0586h.29297l.29297.05859.17187.0586.41016.05859.17187.0586.1172.05858h.11718l.11719.0586.35156.0586h.11328l.41016.0664 1.92187.39453 1.92578.39453 1.51953.44922 1.69532.71875 2.14453.80469 1.60547-.71875 1.42968-.80469 1.16016-1.07813 1.25-.44921 3.03516-.71875 1.875-.35938 2.14453-1.34765 2.23437-1.25391 2.5-1.25781 1.69531-.44922 1.78516-.17969 1.16016-.26953.625.53906 1.33984-.26953.71485-.98828.98437-1.34375.44531-.17969.80469-.35937 1.875-.53907 1.78516-.44921 1.25-.26954 1.16015-.08984 1.69922-.08984 1.96094-.26954 1.25-.08984h.53906l.625-.08984h.89063l2.14453-.17969 2.41015-.17969 2.58985-.08984 1.69531.17969 1.60938.08984 1.42968.35938 1.16016.71875 1.875.98828 1.16015 1.52734.26563.71484.6289.08985.35548.89844.53515.53906.53516 1.52734 1.07422.35938h.53515l-.80469.53515.08985 1.70703.71484 2.69532.89063.80468.89453.98829.71484 1.2578 1.78516.53907 1.51953-.17969.35547 1.34375 1.60937-.80469.98047-.53906.26953.26953.31641-.21484.21875-.14453.80078.44922.44922-.35938h.35547l.53515-.26953.53907-.71875.53515-.26953.625-.98828 1.16016.44922.83984.3711 1.39454.61718 1.6953-.17969h1.60548l1.78515.08985.17969-1.70704.53516-1.34375.80468.26954.4922.84765.40233.40625-.08984.53906v.35938l.71485.44922.71093-.26953h1.42969l.35938.98828.4453 1.25781.71485 1.34375 1.25.6289 1.69531.62891.71485-.17969.17969-.53906.98046-.08984.44922.35937.08594 1.25782-.26563.6289-.53515.17969v.53906l.71484.98438.26563.53906.98437.98828.80078 1.07813-.26562.35937-.08985.89844-.625 2.33203-.35546 2.0664-.08985 1.79298-.17969.71875-.08984.53906v1.4375l-.98047 1.88281-.35937 1.70703-.53516.89844-.80469 1.16797-.26562.53906 2.05469 1.2539.08593.35938-.35546.53906-.08985-.17968v.80859l.08985 1.4375-.44532.71484-1.07422.09375-.26562.71485.53515.89844.8047.71875 1.16015.80859 1.33984.26953.44531.35938-.35546.44921-1.78907-.08984-1.25-.44922-.71484-.71875-.625-.08984-.17578 3.58984-.1875 1.3086h89.35937V311.70313h-55.26953v49.08203l.76172.125 3.28906.54296 2.02344 2.83594v2.7539l2.35156.33204 2.34766.33203h4.05078l-1.3789 4.16016-2.02344.70703-2.02344.70312-.54297.34375-2.59375 1.6172-.1875.11718-2.02344-2.07813-.73046-2.74218-2.67188-2.07813-1.375-3.5-.0664-.08203-1.95704-2.67188 2.75-1.41796v-49.08204H294.42187v91.41407l.1172.03125.1328.01172.07422.07421.10547.04688.08985.0586.08593.05859.08985.0586.29687.29687.0586.08984.03125.11719.02734.11719.01563.13671-.03125.1172-.0586.08983-.0586.08594-.04296.10547-.04688.10156-.02734.1211v.14453l.17578.26953.14844.14844.07422.08594.07422.07421.04296.10547.0625.08985.0586.08593.04297.10547.0586.08985.04687.10156.04296.10547.0586.08594.11719.17968.07421.07422.0625.08594.0586.08984.04297.10547.0586.08985.05858.08593.0625.08985.0586.08984.04297.10156.11719.17969.07421.07422.0586.08594.07422.07421.08984.0586.10547.04687h.14844l.1328-.01562.13282.01562.10156-.04687.07422-.07422.04688-.10156-.01563-.13281v-.14844l-.04687-.10547-.02735-.11719-.04687-.10156-.02735-.1211-.04296-.10156-.0625-.08984-.04297-.10156-.04297-.10547-.03125-.11719-.01563-.13281-.01171-.13672.08593-.0586.0586-.08593.12109-.03125.04297.10547.01562.1328v.1172l.0586.10156.0586.08984.08983.0586.14844.14843.0586.08985.04296.10547-.01171.10156.08593.0586.10547.04687.08594.0586.08984.05858.07422.07422-.11719.02735-.10546.04687-.08594.0586-.07422.07421-.0586.08985-.0625.08594-.02734.12109-.04687.10156-.04297.10547-.03125.11719-.01172.13281-.01563.13281v.14844l.02735.11719.04687.10547.04297.10156.0586.08984.07421.07422.08985.0586.07422.07421.08984.0586.0586.08984.04296.10547.04688.10156.11719.03125.1328.01563h.14845l.11718-.03125.10547.04297.04297.10547.04688.10156.02734.1211L299.5 410l.02734.11719.03125.1211.02735.11718.10547.04297.10156.04687.13281-.01562.14844.14844.0625.08593.07422.07422.07031.07422.08984.0625.10547.04297.10156.04297.1172.03125.13671.01562.11719-.03125.07422-.07422.02734-.11718-.01172-.13282-.03125-.12109-.02734-.11719.04297-.10547h.11719l.08984.0625.11719.02735h.14843l.13282.01562h.14843l.13282.01563.1328-.01563h.14845l.1328-.01562.13282-.01172.13672.01172.11719-.02735.13281-.01562.1914-.0586-.05859.17579-.01562.1328-.02735.1211-.01562.13281-.0586.08594-.1328.01563-.10548.04687-.10546.04297-.1172.03125-.11718.02735-.26563.03125h-.14843l-.13281.01562-.07422.07422.05859.08594.14844.14843.11719.1797.07421.0703.08985.0625.08984.0586.08594.0586.08984.05858.10156.04297.10547.0625.10547.04297.08594.0586.10547.04687.10156.04297.17969.11719.0586.08984-.04298.10156-.04687.10547.01562.13281.22266.22266.0586.08985.04296.10156.03125.1211.04297.10155.01563.13282.03125.11718.01171.13672.03125.11719.14844.14844.10156.04297.10547.04296.1172.03125.1328.01563.13672.01563h.11719l.11719-.03125.08984-.0586.04297-.10547.04688-.10156.04296-.10547.03125-.11719.01172-.1328v-.14845l-.01172-.1328-.01562-.13282-.03125-.11719-.04297-.10547-.04688-.10547-.04296-.10156-.04297-.10547-.01563-.13281.01563-.13281.02734-.11719.03125-.11719.02735-.1211.04687-.10155.08984-.0586.08594-.0625.07422-.07422.08984-.05859.22266-.22266.0586-.08593.07421-.07422.11719-.17969.0586-.08594v-.14844l-.07423-.07421-.10156-.04688-.10547-.04297-.10156-.04297-.0586-.08984-.04687-.10547-.02734-.11719.08984-.05859.11719-.03125.10156-.04297.17969-.11719.14844-.14843.01172-.13282-.01172-.10546-.08985-.0586-.1328.01563h-.14845l-.1328.01562-.13282-.01562-.1211-.03125-.08593-.0586-.07422-.07422-.0586-.08984-.0625-.08594-.11718-.17969-.0586-.08593.03125-.1211.08594-.05859.1211-.03125.05859-.08594v-.1211l-.03125-.11718-.0586-.08984-.05859-.08594-.04687-.10547-.02735-.11719-.01562-.1328.0586-.08985.07421-.07422.08984-.0586.1172-.17968.07421-.07422.0586-.08594.14843-.14844.1211-.03125.1328-.01562.13282.01562.07422.07422.04297.10547.01562.13281-.03125.1172-.11719.03124-.1328.01172-.14844.14844-.04297.10547-.04688.10156-.02734.1211-.03125.11718v.14844l.03125.11719.04297.10546.05859.08985.07422.07031.07422.07422.11719.03125.12109.02734.11719-.02734.1328-.01563h.1172l.08984.0586.07422.07422.04687.10546.0586.08594.10156.04688.13281.01562.10547.04297.08594.0586-.01172.10546-.07422.07422-.17969.11719-.05859.08984-.08984.0586-.07032.07422-.07421.07421-.0625.08985-.02735.11719-.01562.1328.01562.13282-.01562.13281v.14844l.01562.13281.02735.1172.03125.12108.07421.07422.08985.0586.08594.0586.08984.05858.11719.03125v.08594l-.10157.04688-.08984.0586-.26563.03124-.11718.02735h-.14844l-.10547.04296-.10156.04688-.0586.08984-.0625.23438-.01171.13281-.03125.1211-.01563.1328v.29298l-.01172.1328.01172.13673.01563.1328.1328.01563.13282.01172.1211.03125.08593.0586.07422.07421.04688.10547.04296.10157.01563.1328v.44532l-.01563.13281v.44532l.03125.26562.02735.11719.01562.13281.03125.11719.08594.21094.03125.26562v.14844l-.03125.11719-.02734.11718-.03125.1211-.02735.11719-.03125.11718-.03125.1211-.01171.1328-.01563.13282.08984.0586.1172-.03125.10155.01562.04688.10547-.03125.26562v.44141l-.04297.10547-.04688.10547-.04296.10156-.04297.10547-.0586.08594-.03125.12109-.04296.11719-.03125.11719-.01563.1328.01563.13282.05859.08984.10547.04688.08594.0586.05859.08593-.01172.13672-.03125.11719-.04297.10156v.44531l-.01562.13281v.14844l-.03125.11719-.04297.10547-.02735.11719-.04687.10546-.04297.10157-.03125.12109-.02734.11719-.03125.13281-.03125.11719-.02735.11719-.04297.10546-.03125.1172-.03125.12108-.01171.13282-.01563.13281v.29688l.02734.11718v.14844l.04688.39844.02734.11719.0586.08984.12109.03125h.14844l.13281-.01563.0586.08985v.11719l-.0586.08984-.08984.0586-.10157.04296-.10546.04688-.08985.05859-.08594.0586-.13671.01562-.1172-.03125-.1328-.01563-.10157.04688-.0625.08594-.01172.13671-.01562.13282-.03125.11719-.02735.11718-.01562.13281-.03125.1211v.29687l.01563.13282.03125.11718v.14844l.01171.13281v.14844l-.02734.11719-.04688.10156-.02734.1211-.03125.11718-.0586.08985-.07421.07421-.10156.04297-.10547.04688-.11719.02734-.1211.03125-.10156-.04687.0586-.08594.10547-.04688.02734-.11718.03125-.11719.02734-.1211.03125-.11718v-.14844l.01563-.13281-.03125-.11719-.04297-.10547-.10547.01563-.07422.07422-.10156.04296-.08984.0625-.07422.07422-.04297.10157-.01563.1328-.03125.1172L304.25 426l-.03125.11719-.02734.11719-.03125.12109-.02735.11719-.03125.11718-.04297.10547-.08984.0586h-.08984l-.1172-.03125-.03124-.08594.01562-.13672-.03125-.11719v-.14844l-.01171-.1328v-.14844l-.0625-.23438-.02735-.1211-.04297-.10156-.04687-.10546-.0586-.08594-.05859-.08985-.04297-.10546-.0625-.08594-.14844-.14844-.0703-.07422-.10548-.04687-.10547-.04297-.10156-.04297-.29687-.29688-.08985-.07421-.08594-.0586-.10546-.04297-.08985-.0625-.08594-.0586-.10546-.04296-.08985-.0586-.08594-.0625-.07421-.0703-.10547-.04688-.08594-.0586-.10547-.04296-.08984-.0625-.10156-.04297-.10547-.04297-.08594-.0586-.10547-.04687-.10547-.04297-.10156-.04687-.08985-.0586-.10156-.04297-.10547-.04296-.08984-.0625-.11719-.02735-.13281-.01562-.13281.01562H299.75l-.13281.01563-.11719-.03125-.08984-.0586-.07422-.07422-.08985-.05859-.10156-.04688h-.14844l-.12109-.02734-.10156-.04297-.07422-.07422-.11719-.17968-.08984-.0586-.10156-.04297-.08985-.0625-.10547-.04296-.08984-.0586-.08594-.0586-.10547-.04687-.0586-.08594-.05858-.08984-.04297-.10547-.04688-.10156-.07422-.07422-.08594-.0586-.07421-.07421-.08985-.0586-.22265-.22265-.04297-.10547-.03125-.26563.10547-.04296h.14453l.10547.04296.07421.07422.08985.0586.08594.0586.10546.04687.08985.05859.14844.14844.0703.07422.14845.14843.0625.08594.07421.07422.08594.0586.07422.07421.08985.0625.08984.0586.08594.05859.26953.17578.10156.04688.10547.04296.10156.04297.04688-.07421.05859-.08594.07422-.07422.07031-.07422.10547.04297.07422.07422.0586.08984.04296.10156.04688.10547.04296.10547.1211.02735.11719-.02735.07421-.08984.04297-.10547.0586-.08985.07422-.07421.10546-.04297.1172-.02735.1328.01172.08985.0586.14844.14843.05859.08985.04297.10547.04687.10156.04297.10547.04297.10156.10547.04688.10547.04296.13281.01563.08594-.0586.0586-.08984.07421-.07422.10547-.04297.11719.02735.10547.04687.10156.04297.10547.04297.10156.04688.17969.11718v.11719l-.01563.13281.01563.13281.01562.13672.0586.08594.10156.04688.1211.02734.11718.03125h.14844l.11719-.03125.05859-.08984.17969-.1172.05859-.08983.07422-.07422.0586-.08594.11718-.17969.17969-.11719.11719.03125.08984.0586.04297.07422-.01563.1328v.1172l.08985.05859h.14843l.13282-.01563.1328-.01171.26563-.03125.10547-.04297.11719-.03125.1211-.02735.07421-.07421.07031-.07422.0625-.08985-.01562-.10547-.04688-.10156-.10156-.04297-.10547-.01562-.11718.02734-.26563.03125h-.14844l-.07421-.07422-.08985-.0586-.11719-.03124-.11718-.02735-.13282-.01562h-.14843l-.13282.01563h-.29687l-.10547-.04688-.14844-.14844-.04297-.10156-.05859-.08984.22266-.22266.08593-.0586.10547-.04296.11719-.03125.13281-.01563.13281.01563.13672.01562.10157.04297.1328-.01172.08985-.0625.10156-.04297.0625-.08984-.04687-.10156-.08984-.0586-.1172-.03125-.10155-.04296-.0586-.08985-.0625-.08984v-.11719l.01563-.13281.10547-.04688.07421-.07031v-.1211l-.08984-.05859-.03125-.11719.08985-.05859.07421-.07422.04297-.10547.0586-.08984.04687-.10156.01563-.13281v-.14844l-.04688-.10547-.04297-.10156-.08984-.0586-.13281-.01562-.10157-.04297-.13671-.01563-.1172-.03125h-.4453l-.13282-.01562-.13281-.01172-.13281-.01563-.11719-.03125h-.14844l-.13281-.01562-.13281-.01172-.26563-.03125-.1211-.04297-.08593-.0586-.07422-.07421v-.14844l.01172-.13281.10547-.04688.10156-.04296.13281-.01563h.15235l.13281-.01562h.29297l.1211.03125.10156.04296.08984.0586.23438.0625.12109-.04688.08984-.05859.10156-.04297.13282-.01562.10547.04296.10156.04688.13281.01172.1211-.02735h.14453l.12109-.03125.11719-.02734.10547-.04687.07421-.07422.08594-.0586.14844-.14843.0586-.08594.04687-.10547.02734-.11719.01563-.10547-.10156-.04296-.08985-.0586-.11719-.03125-.10546-.04297-.08985-.0625-.07422-.08594-.07422-.07421-.10156-.04297-.10547-.04688-.10156-.04297-.0586-.08984-.04687-.10156-.08594-.21094-.0625-.08594-.05859-.08984-.07422-.07422-.08594-.0586h-.26953l-.11719.03126-.08984.05859-.10156.04297-.13281.01562-.10547-.01562-.02735-.11719-.0625-.08984-.11718-.03125-.10157-.04297-.14843-.14844-.03125-.11719-.01563-.10546.07422-.07422.17969-.1172.11719-.02733.11718-.03125.13672.01562.10156.04297.10547.04297.10156.04687.10547.04297.1172.03125.1328.01563.1172.02734.1328.01563.10547-.01563.08985-.0586-.07422-.07421-.10547-.04297-.07422-.07422-.07422-.08984-.14844-.14844-.08593-.0586-.08985-.05859-.07422-.07422-.08984-.0586-.10156-.04687-.1211-.02734-.10156-.04688-.10547-.04296-.11719-.03125-.10156-.04297-.1211-.03125h-.14843l-.11719.03125-.10546.04297-.08594.0625-.17969.11718-.08594.0586-.08984.0586-.10547.04687-.08594.05859-.10547.04297-.10156.04297-.10547.04687-.07422.07422-.05859.08985-.0586.08593-.04687.10547-.0586.08594-.07421.07422-.13281-.01172-.1172-.03125h-.11718l-.07422.07422-.08984.0586-.07422.07421-.08984.0586-.08594.05859-.10547.04687-.10156.04297-.13672.01563-.10156-.04297-.14844-.14844-.10547-.04688h-.08594l-.10547.04688-.10156.04297-.1211.03125-.11718-.03125-.07422-.07422v-.11719l.03125-.1211.07422-.0703.0586-.08985.07421-.07422.11719-.03125.10547-.04296h.29297l.13281-.01563.13672-.01563.10156-.04296.08985-.0586.10156-.04687.08984-.0586.13281-.01171.08985.05859.13281.01172.08984-.0586.08594-.05859.10547-.04297.08984-.0586.08594-.0625.08985-.05859.14843-.14843.0586-.08594.05859-.08985.10547-.04296.13281-.01563.11719.02735.1211.03125.05859-.0586.05859-.08984.03125-.26563.02734-.11719.10547.01172.13281.01563.10157-.04297.08984-.0586.0586-.08984.07421-.07422.0586-.08984.04687-.10156.01172-.13281-.01172-.13282-.04687-.10547-.14844-.14843-.0586-.08985-.05859-.08594-.04297-.10546v-.44532l.01563-.1328v-.14845l.01172-.1328-.0586-.0586-.08984.0586-.10156-.04298-.17969-.11719-.08594-.05859-.0625-.08984-.0586-.08985-.07421-.07421-.08594-.0586-.1211.03125-.10155.01172-.10547.04688-.08594.05859-.10547.04297-.14844.14844-.08984.05859-.08594.0586-.08984.0625-.10547.04296-.13281.01563v-.1211l.10547-.04297.11718-.03125.07422-.0703.04297-.10548v-.14844l-.02734-.11718-.14844-.14844-.13281-.01563h-.14844l-.11719.03125-.10547.04297-.10156.04297-.08984.0625-.11719.02735-.07422-.07422.01172-.13281-.04297-.10157-.04297-.10547-.08984-.05859-.11719.02734-.1211.03125-.11718.03125-.10156.04297-.1211.03125-.10156.04297-.10547.04297-.08984.0586-.10156.01562v-.11719l.01562-.13281-.0586-.08985-.07421.04297-.14844.14844-.0586.08985-.07421.07421-.04688.10547-.04296.10156-.07422.07422-.0586.08985-.07422.07422-.05859.08593-.07422.07422-.08984.0625-.07422.07031-.07422.07422-.10156.01563-.13281.01562-.10547-.04296v-.1211l.14843-.14844.04297-.10156.0586-.08984.04687-.10156.04297-.10547.0586-.08985.03124-.11719.04297-.10156.03125-.1211.02735-.11718.04687-.10547.04297-.10156.04297-.10547.07422-.07031.08984-.0625.08985-.0586.10156-.04296h.29687l.26563-.03125.10547-.04297-.07422-.07422-.11719-.03125-.10547-.04297-.08984-.0586-.10156-.04687-.08985-.0586-.10156-.04296-.10547-.04297-.08984-.0625-.08594-.0586-.10547-.04296-.10156-.04297-.1211-.03125-.11718-.03125-.10157-.04297L297.5 410.25l-.10156-.04297-.08985-.0586-.04296-.10546-.01563-.13281.10156-.04297.13281-.01563.13672.01563.13282-.01563.10156-.04297.0586-.08984.01562-.10547-.08985-.0586-.07421-.07421-.10157-.04297-.08984-.0586-.14844-.14843-.04297-.10547-.01562-.13281v-.29297l-.0586-.08985-.08984-.05859-.07422-.07422-.04297-.10547-.03125-.11718-.0586-.08985-.07421-.07422-.11719-.02734-.07422-.07422-.08984-.0586-.08984-.0625-.08594-.05859-.07422-.07421-.0586-.08594-.04687-.10547-.08594-.0586-.14843-.14843-.19532-.0586-.1328.01563-.10157.04297-.07422.07422-.04688.10156-.04296.10547-.0586.08984-.0586.08594-.29687.29687-.08984.0586h-.08594l-.0625-.08594-.04297-.10547.03125-.11719.0586-.08984.02734-.11719-.01172-.13281-.08984-.0625-.10547.04688-.11719.02734-.11719.03125-.26953.17578-.10156.04688-.11719.02734-.10546.04687-.08985.0586-.10156.04297-.0586-.08594-.04687-.10547.01563-.13281.04687-.10547.07031-.07422.07422-.07031.0586-.08985v-.14843l-.04297-.10547h-.23829l-.10156.04687-.03125.11719-.02734.11719-.03125.1211-.07422.04296-.13281.01563-.07422-.04688-.04297-.10156-.04297-.10547-.04687-.10156-.04297-.10547-.1211.03125-.10156.04297-.13281.01562-.11719.03125-.10547.04297-.08984.0586-.10156.04687-.1211.02734-.13281.01563-.10156-.04297-.0586-.08985-.04687-.10546-.04297-.10157-.04297-.10546v-.1172l.0586-.08984.08593-.05859.17969-.11719.10156-.04687.10547-.04297.10547-.0586.10156-.04296.08985-.0625.10156-.04297.10547-.0586.10156-.04687.08984-.0586.10547-.04296.10156-.04297.08985-.0625.10156-.04297.13672-.01563.11719.03125.10156.04297.1211.03125.10156.04297.10546.04688.10157.04296.10547.04297.10156.04688.10547.04297.10156.04297.10547.04687.08594.0586.10546.04296.1172.03125.10546.04297.10156.04688.08985.0586.10547.04296.10156.04297.10547.04687.11719.02735.10156.04687.1211.02735h.14843l.08594-.0586.01562-.10156.0586-.08984-.02735-.1172-.07422-.07421-.11719-.17969-.07421-.07422-.08985-.07421-.17969-.1172-.08593-.05859-.10547-.04296-.10156-.04688-.26954-.17578-.05859-.08985-.07422-.07421-.0586-.08985-.04296-.10156-.03125-.11719-.01563-.13672v-.5625l-.01171-.1328-.01563-.13282-.03125-.11719-.01562-.13281-.01172-.13281-.03125-.1211-.22266-.22265-.0586-.08594-.01562-.10547.03125-.11719.13281-.01562v-91.41406H172.9922v1.45312l-.0586.23438-.35156 1.05078-.17187.52343-.1172.34766-.17577.41016-.11719.17187-.23438.29297-.23046.0586h-.35157l-.11718.05859-.23047.40625v.29297l.11719.17578.23046.23047.1172.23437.64062.75781.29297.46485.17578.23437.23047.35156.23437.34766.64063.8164.17578.46485.17187.41016.11719.69531.17578.46875.11719 1.39844.0586.46484v.875l.11718 1.04688v4.78125l-.0586.46484-.35156 1.28125-.17578.52344-.11328.41015-.35156.9297L172.93359 336l-.23437.58203-.11719.17578-.17187.34766-.17578.40625-.35157.8164-.0586.29297-.11327.29297-.11719.28906-.0586.17579-.11718.875-.0586.40625-.05859.11718-.0586.17579-.05859.17187-.23047.52734-.11718.17188v.23437l-.11719.23438-.0586.17187-.17577.58594v.28906l-.0586.17579v.29296l-.0586.11329-.05859.52734v.17187l-.05468.23438v2.6211l-.17578.8164-.1172.17578-.17577.23438-.1172.17187-.11327.23438-.58594.93359-.23047.28906-.29297.46485-.17578.23437-.28906.35156-.35156.69922-.11328.23047-.17579.41016-.17578.23046-.40625.52735-.8164.69922-.29297.17187-.28906.23438-.17579.11719-.17578.17578-.52344.40625-.52734.17578-.17187.17578-.23438.05469-.64062.17578h-.75782m12.21094 31.02344l-1.07422.44921.35938.89454 1.25-.71485.44531-.53906-.98047-.08985"/><path fill="#d3d3d3" fill-opacity="0" fill-rule="evenodd" d="M201.50781 416.59766h-.89453l.44922.6289.98047.35938.80469-.08985.4453-.98828-.17577.08985-.71485-.35547-.89453.35547m154.6211 59.0703l-.0586-.52343v-.29297l.11328-.29297.0586-.23046.46875-.46875h.11328l.11719-.11329.11718-.05859h.17579l.23437-.0586h.34766l.23437.0586.11719.0586.23047.17187.0586.17578.11718.58203v.29297l-.11719.17578-.17187.28906-.17579.17579-.52734.52343-.23047.23438-.11719.0586h-.17578l-.11718-.0586-.40625-.29297-.17579-.11719-.11718-.0586-.0586-.11327-.05468-.1172m6.64062-10.95702l-.0586-.17188v-1.10937l.0586-.17188.17578-.0586.17188-.05858h.17578l.23437-.0586.1172.0586.05858.69921-.05859.17188-.11719.17578-.11718.0586-.23438.52343-.11328.0586h-.23438l-.05859-.1172m9.61328-14.39062l-.11719-.17578v-.69922l.29297-.875.1172-.17187.17577-.35156.11328-.23047.1172-.29297.35155-.75781.1172-.23047.17187-.23438h.17578l.11719-.0586h.64062l.11719.0586.23437.23438.17188.11328.35156.29297.11719.11718.11328.17579v.11328l.11719.05859.11718.11719v.69922l-.05859.17578v.23047l-.0586.17578-.34765 1.05078-.11719.23047-.11719.23437-.11718.0586-.23047.23437-.64063.28906h-.875l-.41015-.11718-.64063-.46485"/><path fill="none" stroke="#bebebe" stroke-linecap="round" stroke-linejoin="round" stroke-miterlimit="10" stroke-width=".5" d="M467.95703 311.69531H144.02734v168.625h323.9297v-168.625"/><g clip-path="url(#a)"><path fill="#fff" fill-opacity="0" fill-rule="evenodd" d="M144 475.89063v4.4375h.0039H144v-43.8711 39.4336"/></g><g clip-path="url(#b)"><path fill="#fff" fill-opacity="0" fill-rule="evenodd" d="M144 431.50781v3.8789-123.71483h.0039H144V431.5078"/></g><path fill="#50fcfc" fill-rule="evenodd" d="M144 435.38672v1.07031l.0039-.0039v-1.0625l-.0039-.00391"/><g clip-path="url(#c)"><path fill="#fff" fill-opacity="0" fill-rule="evenodd" d="M144.0039 480.32813v-43.875l.54688-.50782-.54687-.55469V311.67188h31.0625v117.86329l-4.4375.89453-4.4375-.1289-1.60157 1.20702-2.83593 2.51953-1.4961 1.91797-1.20703 4.4375.24219 4.4375-.21484 4.4414.30078 4.4375-1.44922 4.4375.39844 4.4375 3.42578 3.375 4.4375-.35546 4.4375-.79688 4.4375-.36718 4.4414 1.17578 4.11328-3.03125.32422-.29297 4.4375-1.45703 4.32813-2.6875.10937-.17578 1.11328.17578 3.32813.35547.96875-.35547 3.46875-3.74219.53125-.69531-.53125-.55078-3.79297-3.88672-.64453-.39844-4.4414-1.44922-4.4375-.77734-4.4375 2.54687-.10938.07813-4.32813 4.34765-3.21875-4.34765 2.2539-4.4414.96485-3.20704.55469-1.23047 3.88281-1.94531 1.03516-2.49219-1.03516-1.48047-4.4375-1.35156-1.90234-1.60547-2.53906-1.97265V311.67187h57.69922v121.48047l-2.70704 2.79297 2.70703 2.82813 2.7422-2.82813-2.7422-2.79297V311.67188h8.87891v127.8203l-.9375.89063.9375.91797.80078-.91797-.80078-.89062V311.67188H467.9961v168.65625H144.00391"/></g><path fill="#50fcfc" fill-rule="evenodd" d="M144.55078 435.94531l-.54687.50781v-1.0625l.54687.5547m13.77734 26.6289l-.39843-4.4375 1.44922-4.4375-.30078-4.4375.21484-4.4414-.24219-4.4375 1.20703-4.4375 1.4961-1.91798v20.79688l-2.32422 3.3125.65234 4.4375 1.67188 1.64844 4.4375-.83985 2.29297-.8086-2.29297-1.38671-1.51563-3.05078-2.92187-3.3125v-20.79688l2.83593-2.51953 1.60157-1.20703 4.4375.1289 4.4375-.89452v21.66406l-1.21485 2.5 1.21485.6289 4.2578-.6289-4.2578-2.5v-21.66406l2.53906 1.97265 1.90234 1.60547 4.4375 1.35156 1.03516 1.48047-1.03516 2.49219-3.88281 1.94531-.55469 1.23047-.96484 3.20703-2.2539 4.4414 3.21874 4.34767v1.68359l-3.52734 2.84375 1.91016 4.4375 1.61718.71875.97656-.71875 3.46094-3.14844 2.3711-1.28906-2.3711-1.8164-4.4375-1.02735v-1.6836l4.32813-4.34765.10937-.07813 4.4375-2.54687 4.4375.77734 4.4414 1.44922.64454.39844 3.79297 3.88672.53125.55078-.53125.69531-3.46875 3.74219-.96875.35547-3.32813-.35547-1.11328-.17578-.10937.17578-4.32813 2.6875-4.4375 1.45703-.32422.29297-4.11328 3.03125-4.4414-1.17578-4.4375.36719-4.4375.79687-4.4375.35547-3.42578-3.375"/><path fill="#00e8fc" fill-rule="evenodd" d="M160.08203 462.57422l-.65234-4.4375 2.32422-3.3125 2.92187 3.3125 1.51563 3.05078 2.29297 1.38672-2.29297.8086-4.4375.83984-1.67188-1.64844"/><path fill="#fff" fill-opacity="0" fill-rule="evenodd" d="M175.0664 451.19922l-1.21484 2.5 1.21485.6289 4.2578-.6289-4.2578-2.5"/><path fill="#00e8fc" fill-rule="evenodd" d="M177.89063 462.57422l-1.91016-4.4375 3.52734-2.84375v2.66797l-.21875.17578.21875.33203.36328-.33203-.36328-.17578v-2.66797l4.4375 1.02734 2.3711 1.8164-2.3711 1.28907-3.46094 3.14844-.97656.71875-1.61719-.71875"/><path fill="#00d4fc" fill-rule="evenodd" d="M179.50781 458.46875l-.21875-.33203.21875-.17578.36328.17578-.36328.33203"/><path fill="#50fcfc" fill-rule="evenodd" d="M232.76563 438.77344l-2.70704-2.82813 2.70703-2.79297 2.7422 2.79297-2.7422 2.82813m8.87891 2.52734l-.9375-.91797.9375-.89062.80078.89062-.80078.91797"/><g clip-path="url(#d)"><path fill="#fff" fill-opacity="0" fill-rule="evenodd" d="M467.9961 480.32813H468V311.67188h-.0039H468v168.65625h-.0039"/></g><path fill="#fff" fill-opacity="0" fill-rule="evenodd" d="M171.20703 469.1836l5.8164.51171.875-9.92187-5.8164-.51172-.875 9.92187"/><path fill-rule="evenodd" d="M175.40625 461.39453l.50781.04297-.55469 6.26953-.78125-.0664.39454-4.47266-1.38672-.1211.05078-.55468.5625-.01563.25781-.03125.23438-.07031.21484-.1211.1914-.1953.16798-.28126.14062-.3828"/><g clip-path="url(#e)"><path fill="none" stroke="#000" stroke-linecap="round" stroke-linejoin="round" stroke-miterlimit="10" stroke-width=".5" d="M147.49219 480.70313l-6.98438-.7461"/></g><g clip-path="url(#f)"><path fill="none" stroke="#000" stroke-linecap="round" stroke-linejoin="round" stroke-miterlimit="10" stroke-width=".5" d="M147.49219 480.70313l.91797 2.27734"/></g><g clip-path="url(#g)"><path fill="none" stroke="#000" stroke-linecap="round" stroke-linejoin="round" stroke-miterlimit="10" stroke-width=".5" d="M160.82422 480.46484l-7.01953-.27343"/></g><g clip-path="url(#h)"><path fill="none" stroke="#000" stroke-linecap="round" stroke-linejoin="round" stroke-miterlimit="10" stroke-width=".5" d="M160.82422 480.46484l1.07031 2.21094"/></g><g clip-path="url(#i)"><path fill="none" stroke="#000" stroke-linecap="round" stroke-linejoin="round" stroke-miterlimit="10" stroke-width=".5" d="M159.80469 480.42578l.53125 1.10547"/></g><g clip-path="url(#j)"><path fill="none" stroke="#000" stroke-linecap="round" stroke-linejoin="round" stroke-miterlimit="10" stroke-width=".5" d="M174.1211 480.71094l-6.98438-.76563"/></g><g clip-path="url(#k)"><path fill="none" stroke="#000" stroke-linecap="round" stroke-linejoin="round" stroke-miterlimit="10" stroke-width=".5" d="M174.1211 480.71094l.91015 2.28125"/></g><g clip-path="url(#l)"><path fill="none" stroke="#000" stroke-linecap="round" stroke-linejoin="round" stroke-miterlimit="10" stroke-width=".5" d="M173.10547 480.60156l.45312 1.14063"/></g><g clip-path="url(#m)"><path fill="none" stroke="#000" stroke-linecap="round" stroke-linejoin="round" stroke-miterlimit="10" stroke-width=".5" d="M187.4336 480.75l-6.97657-.83984"/></g><g clip-path="url(#n)"><path fill="none" stroke="#000" stroke-linecap="round" stroke-linejoin="round" stroke-miterlimit="10" stroke-width=".5" d="M187.4336 480.75l.88671 2.28516"/></g><g clip-path="url(#o)"><path fill="none" stroke="#000" stroke-linecap="round" stroke-linejoin="round" stroke-miterlimit="10" stroke-width=".5" d="M186.41797 480.625l.4414 1.14453"/></g><g clip-path="url(#p)"><path fill="none" stroke="#000" stroke-linecap="round" stroke-linejoin="round" stroke-miterlimit="10" stroke-width=".5" d="M200.76563 480.55078l-7.01172-.44531"/></g><g clip-path="url(#q)"><path fill="none" stroke="#000" stroke-linecap="round" stroke-linejoin="round" stroke-miterlimit="10" stroke-width=".5" d="M200.76563 480.55078l1.01562 2.23438"/></g><g clip-path="url(#r)"><path fill="none" stroke="#000" stroke-linecap="round" stroke-linejoin="round" stroke-miterlimit="10" stroke-width=".5" d="M199.7461 480.48438l.5078 1.11718"/></g><g clip-path="url(#s)"><path fill="none" stroke="#000" stroke-linecap="round" stroke-linejoin="round" stroke-miterlimit="10" stroke-width=".5" d="M214.08203 480.54297l-7.01172-.42969"/></g><g clip-path="url(#t)"><path fill="none" stroke="#000" stroke-linecap="round" stroke-linejoin="round" stroke-miterlimit="10" stroke-width=".5" d="M214.08203 480.54297l1.01563 2.23437"/></g><g clip-path="url(#u)"><path fill="none" stroke="#000" stroke-linecap="round" stroke-linejoin="round" stroke-miterlimit="10" stroke-width=".5" d="M213.0625 480.48047l.50781 1.11719"/></g><g clip-path="url(#v)"><path fill="none" stroke="#000" stroke-linecap="round" stroke-linejoin="round" stroke-miterlimit="10" stroke-width=".5" d="M227.40234 480.45313l-7.02343-.25"/></g><g clip-path="url(#w)"><path fill="none" stroke="#000" stroke-linecap="round" stroke-linejoin="round" stroke-miterlimit="10" stroke-width=".5" d="M227.40234 480.45313l1.07422 2.20703"/></g><g clip-path="url(#x)"><path fill="none" stroke="#000" stroke-linecap="round" stroke-linejoin="round" stroke-miterlimit="10" stroke-width=".5" d="M226.3789 480.41797l.53907 1.10156"/></g><g clip-path="url(#y)"><path fill="none" stroke="#000" stroke-linecap="round" stroke-linejoin="round" stroke-miterlimit="10" stroke-width=".5" d="M240.71875 480.34375l-7.02734-.03125"/></g><g clip-path="url(#z)"><path fill="none" stroke="#000" stroke-linecap="round" stroke-linejoin="round" stroke-miterlimit="10" stroke-width=".5" d="M240.71875 480.34375l1.14063 2.17188"/></g><g clip-path="url(#A)"><path fill="none" stroke="#000" stroke-linecap="round" stroke-linejoin="round" stroke-miterlimit="10" stroke-width=".5" d="M254.01953 480.01563l-7 .625"/></g><g clip-path="url(#B)"><path fill="none" stroke="#000" stroke-linecap="round" stroke-linejoin="round" stroke-miterlimit="10" stroke-width=".5" d="M254.01953 480.01563l1.33984 2.05468"/></g><g clip-path="url(#C)"><path fill="none" stroke="#000" stroke-linecap="round" stroke-linejoin="round" stroke-miterlimit="10" stroke-width=".5" d="M267.25 479.50781l-6.83203 1.64063"/></g><g clip-path="url(#D)"><path fill="none" stroke="#000" stroke-linecap="round" stroke-linejoin="round" stroke-miterlimit="10" stroke-width=".5" d="M267.25 479.50781l1.6289 1.83594"/></g><g clip-path="url(#E)"><path fill="none" stroke="#000" stroke-linecap="round" stroke-linejoin="round" stroke-miterlimit="10" stroke-width=".5" d="M280.64844 479.9961l-6.9961.66406"/></g><g clip-path="url(#F)"><path fill="none" stroke="#000" stroke-linecap="round" stroke-linejoin="round" stroke-miterlimit="10" stroke-width=".5" d="M279.6289 480.09375l.67579 1.02344"/></g><g clip-path="url(#G)"><path fill="none" stroke="#000" stroke-linecap="round" stroke-linejoin="round" stroke-miterlimit="10" stroke-width=".5" d="M293.8125 481.39844l-6.69531-2.14063"/></g><g clip-path="url(#H)"><path fill="none" stroke="#000" stroke-linecap="round" stroke-linejoin="round" stroke-miterlimit="10" stroke-width=".5" d="M292.83984 481.08594l.21875 1.20703"/></g><g clip-path="url(#I)"><path fill="none" stroke="#000" stroke-linecap="round" stroke-linejoin="round" stroke-miterlimit="10" stroke-width=".5" d="M307.09375 481.5l-6.625-2.33984"/></g><g clip-path="url(#J)"><path fill="none" stroke="#000" stroke-linecap="round" stroke-linejoin="round" stroke-miterlimit="10" stroke-width=".5" d="M306.1289 481.16016l.1836 1.21093"/></g><g clip-path="url(#K)"><path fill="none" stroke="#000" stroke-linecap="round" stroke-linejoin="round" stroke-miterlimit="10" stroke-width=".5" d="M320.32813 481.70313l-6.46485-2.7461"/></g><g clip-path="url(#L)"><path fill="none" stroke="#000" stroke-linecap="round" stroke-linejoin="round" stroke-miterlimit="10" stroke-width=".5" d="M332.9375 482.76953l-5.05469-4.88281"/></g><g clip-path="url(#M)"><path fill="none" stroke="#000" stroke-linecap="round" stroke-linejoin="round" stroke-miterlimit="10" stroke-width=".5" d="M342.5039 483.625l2.44141-6.58984"/></g><g clip-path="url(#N)"><path fill="none" stroke="#000" stroke-linecap="round" stroke-linejoin="round" stroke-miterlimit="10" stroke-width=".5" d="M355.30469 483.38281l3.47265-6.10937"/></g><g clip-path="url(#O)"><path fill="none" stroke="#000" stroke-linecap="round" stroke-linejoin="round" stroke-miterlimit="10" stroke-width=".5" d="M370.83594 483.8086l-.95703-6.96094"/></g><g clip-path="url(#P)"><path fill="none" stroke="#000" stroke-linecap="round" stroke-linejoin="round" stroke-miterlimit="10" stroke-width=".5" d="M381.2539 482.875l4.83594-5.09375"/></g><g clip-path="url(#Q)"><path fill="none" stroke="#000" stroke-linecap="round" stroke-linejoin="round" stroke-miterlimit="10" stroke-width=".5" d="M394.0039 482.1875l5.96485-3.71484"/></g><g clip-path="url(#R)"><path fill="none" stroke="#000" stroke-linecap="round" stroke-linejoin="round" stroke-miterlimit="10" stroke-width=".5" d="M394.0039 482.1875l-2.125-1.23047"/></g><g clip-path="url(#S)"><path fill="none" stroke="#000" stroke-linecap="round" stroke-linejoin="round" stroke-miterlimit="10" stroke-width=".5" d="M394.8711 481.64453l-1.0625-.61328"/></g><g clip-path="url(#T)"><path fill="none" stroke="#000" stroke-linecap="round" stroke-linejoin="round" stroke-miterlimit="10" stroke-width=".5" d="M407.24219 482.0586l6.11719-3.46094"/></g><g clip-path="url(#U)"><path fill="none" stroke="#000" stroke-linecap="round" stroke-linejoin="round" stroke-miterlimit="10" stroke-width=".5" d="M407.24219 482.0586l-2.07031-1.32032"/></g><g clip-path="url(#V)"><path fill="none" stroke="#000" stroke-linecap="round" stroke-linejoin="round" stroke-miterlimit="10" stroke-width=".5" d="M420.76172 482.3789l5.70703-4.10156"/></g><g clip-path="url(#W)"><path fill="none" stroke="#000" stroke-linecap="round" stroke-linejoin="round" stroke-miterlimit="10" stroke-width=".5" d="M440.27344 481.41406l-6.6836-2.16797"/></g><g clip-path="url(#X)"><path fill="none" stroke="#000" stroke-linecap="round" stroke-linejoin="round" stroke-miterlimit="10" stroke-width=".5" d="M439.30078 481.09766l.21485 1.20703"/></g><g clip-path="url(#Y)"><path fill="none" stroke="#000" stroke-linecap="round" stroke-linejoin="round" stroke-miterlimit="10" stroke-width=".5" d="M453.5 481.65234l-6.50781-2.64843"/></g><g clip-path="url(#Z)"><path fill="none" stroke="#000" stroke-linecap="round" stroke-linejoin="round" stroke-miterlimit="10" stroke-width=".5" d="M463.5 483.83984l.1211-7.02343"/></g><g clip-path="url(#aa)"><path fill="none" stroke="#000" stroke-linecap="round" stroke-linejoin="round" stroke-miterlimit="10" stroke-width=".5" d="M147.5 467.33203l-7-.63672"/></g><path fill="none" stroke="#000" stroke-linecap="round" stroke-linejoin="round" stroke-miterlimit="10" stroke-width=".5" d="M147.5 467.33203l.94922 2.26172m12.35937-2.19922l-6.98437-.76172m6.98437.76172l.91016 2.28125m-1.92578-2.39062l.45312 1.13672m13.89844-1.36329l-7.02734-.08984m7.02734.08984l1.1211 2.1836m-2.14454-2.19532l.5625 1.08985m13.77344-1.03125l-7.02344-.1836m7.02344.1836l1.09375 2.19922m-2.11719-2.22657l.55078 1.10157m13.78907-1.03907l-7.02344-.2539m7.02344.2539l1.07031 2.20704m-2.09375-2.2461l.53516 1.10547m13.80468-1.125l-7.02734-.13672m7.02734.13672l1.10938 2.1875m-2.13281-2.20703l.55468 1.09375m13.78125-1l-7.02343-.28516m7.02343.28516l1.0625 2.21094m-2.08593-2.2539l.53125 1.10546m13.79297-1.55469l-6.9922.69922m6.9922-.69922l1.35937 2.04297m-2.3789-1.9414l.67968 1.01953m13.55078-1.6797l-6.78906 1.81642m6.78906-1.81641l1.67188 1.79687m-2.66016-1.53125l.83594.89844m13.3164-1.60547l-6.48437 2.69922m6.48438-2.69922l1.89843 1.55469m-2.83984-1.16406l.94531.77734m13.11719-1.5664l-6.09766 3.49609m6.09766-3.4961l2.07812 1.3047m11.44532-.8711l-6.51563 2.63281m6.51563-2.63281l1.8789 1.57422m11.64844.29687l-6.9375-1.11328m5.92969.95313l.39453 1.16015m13.89062-.80469l-6.86328-1.5039m5.86328 1.28515l.33203 1.1836m14.0625-1.89063l-7.01953.34766m5.9961-.29688l.6289 1.05079m13.69922-.62891l-7-.59766m5.98047.51172l.48438 1.125m13.84765-1.6836l-6.9961.69141m5.97657-.58984l.67969 1.01953m13.63281-1.27734l-6.95312 1.0039m5.9414-.85937l.72656.99219m13.5586-1.3711l-6.8711 1.47266m13.25-1.02344l7.00391.57422m9.85938-3.80078l-.09375 7.02734m.09375-7.02734l2.18359-1.1211m13.03906 1.71485l-3.90625 5.83984m3.90625-5.83984l2.4414.2461M425 464.9414l2.4414.25m11.11329-1.29297l-3.2461 6.23047m3.2461-6.23047l2.45312-.02344m-2.92578.92969l1.22656-.01172m12.23047-1.04688l-2.58203 6.53516m2.58203-6.53516l2.4375-.27343m12.8789 2.3164l-6.58593 2.44922"/><g clip-path="url(#ab)"><path fill="none" stroke="#000" stroke-linecap="round" stroke-linejoin="round" stroke-miterlimit="10" stroke-width=".5" d="M466.85547 465.78906l1.83594 1.6289"/></g><g clip-path="url(#ac)"><path fill="none" stroke="#000" stroke-linecap="round" stroke-linejoin="round" stroke-miterlimit="10" stroke-width=".5" d="M147.4414 454.41016l-6.8828-1.42188"/></g><path fill="none" stroke="#000" stroke-linecap="round" stroke-linejoin="round" stroke-miterlimit="10" stroke-width=".5" d="M147.4414 454.41016l.69141 2.35156m12.54688-2.05078l-6.73047-2.02344m6.73047 2.02344l.48047 2.40625m12.98047-3.32422l-7.02344-.1914m7.02344.1914l1.09375 2.19922m12.20703-1.9414l-6.9922-.70313m5.97657.60156l.46094 1.13281m13.875-1.07031l-7-.625m7 .625l.95312 2.26172m12.3711-2.42188l-7.01953-.30468m7.01953.30468l1.0586 2.21094m12.20312-2.98828l-6.91407 1.25m6.91407-1.25l1.51953 1.92969m-2.52344-1.7461l.75781.96094m13.48438-1.48047l-6.76172 1.92188m6.76172-1.92188l1.69922 1.76563m-2.6836-1.48828l.85156.88671m12.9375-2.23047l-5.73828 4.0547m5.73828-4.0547l2.19141 1.10547m-3.02734-.51562l1.09765.55078m12.87891-1.36719l-5.39453 4.5039m5.39453-4.5039l2.27344.92578m-3.0586-.26953l1.13672.46485m12.7539-1.35157l-4.96874 4.96875m4.96875-4.96875l2.34375.71485m-3.0664.00781l1.17187.35937m13.24218-.6328l-5.72656 4.0703m5.72656-4.0703l2.19532 1.09765m11.66797.08984l-6.82032 1.69531m6.82032-1.6953l1.64062 1.82421m11.72266-1.58984l-6.91797 1.22656m6.91797-1.22656l1.51172 1.9336m11.78125-2.04298l-6.875 1.44531m6.875-1.4453l1.57421 1.8828m11.79688-1.54687l-6.98438.76953m6.98438-.76953l1.38281 2.02734m11.85547-2.46093l-6.83203 1.63671m6.83203-1.63671l1.625 1.83984m11.73047-1.64844l-6.91406 1.25781m6.91406-1.2578l1.51953 1.92577m11.75-.45312l-6.82031-1.6875m20.17187.16406l-6.89453 1.35547m5.89063-1.15625l.77343.95312m13.08204-2.32812l-5.96875 3.71094m5.96875-3.71094l2.12109 1.23047m-2.98828-.6914l1.0586.61718m12.05468-2.2461l-3.82813 5.89063m3.82813-5.89062l2.44531.21484m-3.0039.64062l1.22265.10938m12.42578-1.10156l-3.3789 6.16406m3.3789-6.16406l2.45313.03125m-2.94531.86718l1.22656.01172m12.41406-.99609l-3.04687 6.33203m3.04687-6.33203l2.45313-.09766m-2.89454 1.01953l1.22266-.05078m13.5586-.12109l-5.09766 4.83594"/><g clip-path="url(#ad)"><path fill="none" stroke="#000" stroke-linecap="round" stroke-linejoin="round" stroke-miterlimit="10" stroke-width=".5" d="M466.10938 451.28125l2.32812.77734"/></g><g clip-path="url(#ae)"><path fill="none" stroke="#000" stroke-linecap="round" stroke-linejoin="round" stroke-miterlimit="10" stroke-width=".5" d="M147.41797 441.20703l-6.83594-1.64453"/></g><path fill="none" stroke="#000" stroke-linecap="round" stroke-linejoin="round" stroke-miterlimit="10" stroke-width=".5" d="M147.41797 441.20703l.60937 2.375m12.64063-2.14844l-6.70703-2.09765m6.70703 2.09765l.45312 2.41016m12.79297-2.20703l-6.5664-2.5039m6.5664 2.5039l.30078 2.4336m13.1172-2.75782l-6.77345-1.85937m6.77344 1.85937l.53906 2.39453m12.76563-2.35547l-6.7539-1.9375m6.7539 1.9375l.51172 2.40235m12.9375-3.50391l-7.02344.26563m7.02344-.26563l1.23437 2.1211m11.79297-3.38282l-6.44922 2.78906m6.44922-2.78906l1.91797 1.53125m11.03125-2.17969l-5.71484 4.08594m5.71484-4.08594l2.19922 1.09375m10.58203-1.68359l-4.64844 5.26953m4.64844-5.26953l2.38672.5664m10.73047-.73046l-4.25 5.59765m4.25-5.59765l2.42187.39062m10.9414-.35156l-4.34765 5.51953m4.34766-5.51953l2.41406.4336m11.48828.14843l-5.51953 4.35156m5.51953-4.35156l2.2461.98828m11.23437-.7539l-5.85547 3.8828m5.85547-3.8828l2.16016 1.16796m-3.01172-.60156l1.07812.58203m13.29297-.80468l-6.26172 3.1953m6.26172-3.1953l2.00781 1.40625m-2.91796-.94141l2.0078 1.40625m12.34766-1.57813l-6.52343 2.61329m6.52343-2.61329l1.875 1.58204m-2.82421-1.20313l.9375.79297m13.2539-1.33984l-6.3789 2.94921m6.3789-2.94921l1.95703 1.48046m10.52344-2.61328l-4.70703 5.21485m4.70703-5.21485l2.38281.59766m-3.0664.16016l1.1914.29687m11.46094-1.8125l-2.01562 6.73047m2.01562-6.73047l2.40625-.48437m-2.69922 1.46093l1.20313-.23828m8.97265.08594l4.85157 5.08203m-4.14844-4.34375l.38672-1.16406m12.34375.3125l4.61328 5.30469m13.99219-4.50782l-5.96875 3.71094m5.96875-3.71094l2.12109 1.23438m-2.98828-.6914l2.1211 1.23046m11.30859-2.63281l-4.46094 5.42969m4.46094-5.4297l2.40625.48438m-3.0547.3047l2.40235.48827m11.17969-1.55078l-3.69922 5.97656m3.69922-5.97656l2.44922.16406m-2.98828.70703l2.44922.16016m11.30078-1.08984L448.5 443.43359m3.49219-6.09765l2.45312.07812m-2.96094.8086l2.45313.07812m-2.96094.8086l1.22656.03906m13.60547-1.46875l-4.49218 5.40625"/><g clip-path="url(#af)"><path fill="none" stroke="#000" stroke-linecap="round" stroke-linejoin="round" stroke-miterlimit="10" stroke-width=".5" d="M465.8086 437.67969l2.40234.5"/></g><path fill="none" stroke="#000" stroke-linecap="round" stroke-linejoin="round" stroke-miterlimit="10" stroke-width=".5" d="M465.15234 438.46875l1.20313.25"/><g clip-path="url(#ag)"><path fill="none" stroke="#000" stroke-linecap="round" stroke-linejoin="round" stroke-miterlimit="10" stroke-width=".5" d="M147.47266 427.58984l-6.94532-1.04297"/></g><path fill="none" stroke="#000" stroke-linecap="round" stroke-linejoin="round" stroke-miterlimit="10" stroke-width=".5" d="M147.47266 427.58984l.8203 2.3125m12.40235-1.86718l-6.75781-1.9336m6.75781 1.9336l.51172 2.39843m12.39844-1.49609l-5.94922-3.73828m5.94922 3.73828l-.17969 2.44922m-.6875-2.99219l-.08594 1.22266m14.23438-.625l-5.88281-3.84766m5.8828 3.84766l-.22265 2.44531m14.07031-3.83203l-6.9453-1.07031m6.9453 1.0703l.8086 2.31641m12.54297-2.97265l-7.02344.23828m7.02344-.23828l1.22656 2.1289m12.07031-2.39843l-6.98437.77734m6.98437-.77734l1.38281 2.02734m11.91407-2.16797l-6.94922 1.0586m6.94922-1.0586l1.46484 1.96875m11.49219-3.0625l-6.23438 3.2461m6.23438-3.2461l2.02344 1.39063m11.34765-1.28125l-6.34375 3.02734m6.34375-3.02734l1.97266 1.45703m11.15625-1.79688l-5.96875 3.70703m5.96875-3.70703l2.1211 1.23047m11.58593-.34765l-6.7539 1.9414m6.7539-1.9414l1.70313 1.76171m10.51562-3.46484L301.5 429.7422m4.5625-5.34766l2.39453.53125m-3.0586.2461l1.19532.26562m13.29688-.4961l-5.58985 4.25391m5.58985-4.2539l2.23046 1.02734m-3.04296-.41016l1.11328.51563m13.04687-1.08985l-5.65625 4.17188m5.65625-4.17188l2.21485 1.0586m-3.03907-.45313l1.10938.53125m13.03906-1.1289l-5.67188 4.15234m5.67188-4.15234l2.20703 1.0664m-3.03515-.46093l1.10546.53125m12.875-1.33985l-5.34765 4.5586m5.34765-4.5586l2.28125.89844m-3.05859-.23438l1.14063.44922m12.8203-1.2578l-5.08593 4.84765m5.08594-4.84766l2.32812.77344m-3.0664-.0664l2.32812.77343m12.46875-.30469l-6.57031 2.4961m6.57031-2.4961l1.84375 1.61719M386 426.1836l1.84766 1.61718m-2.8047-1.2539l.92579.80859m14.25-1.66406l-6.46484 2.7578m6.46484-2.7578l1.91016 1.53906m-2.85157-1.14063l1.91016 1.54297m-2.85156-1.14062l1.91015 1.53906m12.73047-3.24219l-5.35156 4.5586m5.35156-4.5586l2.28125.90235m-3.0586-.23829l2.28126.90235m-3.0625-.23828l1.14062.44922m13.21485-2.27344l-4.3125 5.55078m4.3125-5.55078l2.41797.42187m-3.04688.38672l2.41797.41797m-3.04297.39063l1.20703.20703m12.71875-2.21875l-3.03125 6.33984m3.03125-6.33984l2.45313-.10547m-2.89063 1.02734l2.44922-.10547m11.71485-.58593l-3.85157 5.8789m3.85156-5.8789l2.44532.22656m-3.0039.6289l2.4414.22266m-3.0039.63281l2.4453.22266m12.6836-1.33984l-5.23438 4.6914"/><g clip-path="url(#ah)"><path fill="none" stroke="#000" stroke-linecap="round" stroke-linejoin="round" stroke-miterlimit="10" stroke-width=".5" d="M466.17969 424.72266l2.30078.84765"/></g><path fill="none" stroke="#000" stroke-linecap="round" stroke-linejoin="round" stroke-miterlimit="10" stroke-width=".5" d="M465.41797 425.40625l2.30078.84375m-3.0625-.16016l2.30469.84375"/><g clip-path="url(#ai)"><path fill="none" stroke="#000" stroke-linecap="round" stroke-linejoin="round" stroke-miterlimit="10" stroke-width=".5" d="M147.5 413.45313l-7 .59765"/></g><path fill="none" stroke="#000" stroke-linecap="round" stroke-linejoin="round" stroke-miterlimit="10" stroke-width=".5" d="M146.48047 413.54297l.66797 1.02734m13.67187-.58984l-7.01172-.45703m5.9922.39062l.5039 1.1211m13.67187-.21485l-6.69531-2.13281m5.72266 1.82031l.21875 1.20703m13.84375-.34765l-6.2422-3.22657m6.2422 3.22657l.03125 2.45312m13.6289-3.4961l-6.9336-1.14062m6.9336 1.14063l.78516 2.32422m12.42969-1.88672l-6.73047-2.01563m5.75 1.72266l.24219 1.20313m13.11718.61718l-4.86328-5.07031m4.15625 4.33203l-.38281 1.16797m15.30469-1.84375l-6.66016-2.24219m5.6914 1.91797l.19923 1.20703m14.26171-1.8164l-7.01562-.375m7.01562.375l1.03516 2.22265m12.28516-2.53125l-7.02344.24219m7.02344-.24219l1.22656 2.125m11.48828-3.97265l-5.82031 3.9375m5.82031-3.9375l2.16797 1.14843m11.75.76172l-7.02735.11719m18.70704-3.02734l-3.75782 5.9375m3.75782-5.9375l2.4453.18359m11.91016.83203l-5.83984 3.90625m5.83984-3.90625l2.16407 1.15625m11.19531-1.09375l-5.92578 3.78125m5.92578-3.78125l2.13281 1.20703m-2.9961-.65625l1.06641.60157m13.26954-.87891l-6.2422 3.23047m6.2422-3.23047l2.01953 1.39453m11.5664-.6914l-6.78515 1.82812m6.78515-1.82813l1.67578 1.79297m-2.66406-1.52734l.83985.89844m13.46093-1.16797l-6.78125 1.83594m6.78125-1.83594l1.6797 1.78906m-2.66407-1.52344l1.67578 1.78907m-2.66406-1.51954l.83984.89454m14.1289-2.21875l-6.14062 3.41406m6.14063-3.41406l2.0586 1.33593m-2.95313-.83984l2.05859 1.33594m-2.94922-.83985l1.02734.66797m14.29297-1.17969l-6.58203 2.45313m6.58203-2.45313l1.83594 1.62891m-2.79297-1.27344l1.83594 1.6289m-2.79297-1.26952l.91797.8125m13.60937-2.67578l-5.17578 4.75m5.17578-4.75l2.3125.8164m-3.0664-.125l2.3125.8164m-3.0664-.125l1.15624.40626m13.30469-2.13281l-4.45313 5.4375m4.45313-5.4375l2.40625.48046m-3.05469.3086l2.40625.48437m-3.05469.3086l1.20313.24218m13.76172-1.49218l-5.16016 4.77343m5.16016-4.77343l2.3164.8086m-3.0703-.11329l2.3203.80469m11.7422-1.5039l-5.14845 4.78124m5.14844-4.78125l2.32031.80469m-3.0703-.10938l2.3203.8047m-3.0664-.10938l1.15625.40234m13.75781-1.67578l-5.35547 4.54687"/><g clip-path="url(#aj)"><path fill="none" stroke="#000" stroke-linecap="round" stroke-linejoin="round" stroke-miterlimit="10" stroke-width=".5" d="M466.23828 411.48047l2.28125.90234"/></g><path fill="none" stroke="#000" stroke-linecap="round" stroke-linejoin="round" stroke-miterlimit="10" stroke-width=".5" d="M465.46094 412.14063l2.28125.90625m-3.0625-.2461l1.14062.45313"/><g clip-path="url(#ak)"><path fill="none" stroke="#000" stroke-linecap="round" stroke-linejoin="round" stroke-miterlimit="10" stroke-width=".5" d="M146.64453 398.1211l-5.28906 4.6328"/></g><path fill="none" stroke="#000" stroke-linecap="round" stroke-linejoin="round" stroke-miterlimit="10" stroke-width=".5" d="M145.875 398.79688l1.14453.43359m13.78125 1.66015l-6.96875-.90234m5.95313.76953l.43359 1.14844m13.53516.13672l-6.25-3.21094m6.25 3.21094l.03515 2.45312m13.51563-3.03515l-6.71875-2.04688m6.71875 2.04688l.47265 2.41015m12.875-2.51171l-6.78125-1.84375m5.79297 1.57421l.27344 1.19922m13.97266-.74219l-6.66797-2.21484m20.07422 1.88672l-6.85157-1.5625m6.85157 1.5625l.64062 2.3711m12.66016-2.3086l-6.82422-1.6875m5.83203 1.4414l.29688 1.19141m14.10937-1.67578l-7.02344-.22265m7.02344.22265l1.08203 2.20313m-2.10156-2.23438l.53906 1.09766m13.78516-1.48047l-7 .60547m7-.60547l1.33594 2.0586m-2.35547-1.97266l.66797 1.03125m13.61328-1.4922l-6.89453 1.35548m5.89062-1.16016l.77734.95313m13.39453-1.67579l-6.60156 2.40625m5.64063-2.05468l.91406.82031m13.4414-.92969l-6.7578 1.92578m6.7578-1.92578l1.69923 1.76953m11.72656-1.21484l-6.98047.8164m6.98047-.8164l1.39453 2.01563m10.67187-4.3125l-4.48437 5.41015m4.48437-5.41015l2.40235.49218M332 398.51953l1.20313.2461m13.98828 2.24609l-6.9297-1.14844m6.9297 1.14844l.78125 2.32812m-1.78907-2.49218l.39063 1.16015m13.91015-.86328l-6.88671-1.41015m6.88671 1.41015l.69141 2.35156m-1.69531-2.55859l.34765 1.17969m13.85938-2.79297l-6.66406 2.22656m6.66406-2.22656l1.78125 1.6914m-2.75-1.36718l1.78125 1.6875m-2.75-1.36328l.89063.84375m13.8203-2.51563l-5.57812 4.27344m5.57813-4.27344l2.23047 1.02344m-3.04297-.39844l2.23437 1.01953m-3.04687-.39844l1.11719.50782m14.41015-.58594l-6.7539 1.9375m6.7539-1.9375l1.70313 1.76563m-2.6836-1.48438l.85156.88281m13.5625-.5664l-6.98828.74218m6.98829-.74218l1.37109 2.03125m-2.39063-1.92188l.6875 1.01563M426.5 398.43359l-5.76953 4.01172M426.5 398.4336l2.1836 1.1172m-3.02344-.53517l2.18359 1.1211m-3.02344-.53516l1.09375.5586m14.26563-1.06641l-6.4961 2.6875m6.4961-2.6875l1.89062 1.5625m-2.83594-1.17188l1.89063 1.5625m12.2461-2.21093l-6.25 3.20703m6.25-3.20703l2.01562 1.39844m-2.92188-.9336l2.01172 1.40235m12.03516-2.17188l-5.90235 3.8164"/><g clip-path="url(#al)"><path fill="none" stroke="#000" stroke-linecap="round" stroke-linejoin="round" stroke-miterlimit="10" stroke-width=".5" d="M466.51172 398.53125l2.14453 1.1914"/></g><g clip-path="url(#am)"><path fill="none" stroke="#000" stroke-linecap="round" stroke-linejoin="round" stroke-miterlimit="10" stroke-width=".5" d="M465.65234 399.08594l2.14454 1.19531"/></g><path fill="none" stroke="#000" stroke-linecap="round" stroke-linejoin="round" stroke-miterlimit="10" stroke-width=".5" d="M464.79688 399.64063l1.0703.59765"/><g clip-path="url(#an)"><path fill="none" stroke="#000" stroke-linecap="round" stroke-linejoin="round" stroke-miterlimit="10" stroke-width=".5" d="M147.0586 385.39453l-6.1172 3.45703"/></g><path fill="none" stroke="#000" stroke-linecap="round" stroke-linejoin="round" stroke-miterlimit="10" stroke-width=".5" d="M147.0586 385.39453l2.0703 1.32031m11.4375 1.7422l-6.5039-2.66798m6.5039 2.66797l.2422 2.4414m13.17968-2.73827l-6.71484-2.07422m6.71484 2.07422l.46094 2.41015m12.96484-3.9961l-6.9375 1.09767m5.92969-.9375l.73828.97656m13.44922.52734l-6.66406-2.23047m6.66406 2.23047L201 390.65625m12.59375-1.73438l-6.03516-3.59765m6.03516 3.59765l-.1211 2.45313m-.7578-2.97656l-.0586 1.22656m14.7461-2.4414l-7.02344-.1172m7.02343.1172l1.1172 2.18359m-2.13673-2.20313l.55469 1.09375m13.71094-1.82812l-6.88672 1.39062m6.88672-1.39062l1.5586 1.89453m-2.5586-1.69531l.77734.94921m13.49219-1.34375l-6.79688 1.77735m6.79688-1.77735l1.66406 1.8047m11.67188-1.72266l-6.83594 1.61328m6.83594-1.61328l1.62109 1.84375m11.76953-1.40235l-6.98828.73047m6.98828-.73047l1.3711 2.03516m11.78125-2.78516l-6.66407 2.23438m6.66406-2.23438l1.78125 1.6875m11.45704-1.90234l-6.50782 2.66015m6.50782-2.66015l1.8828 1.57031m11.69142-.15234l-7.02735-.17578m7.02735.17578l1.09375 2.19531m11.5664-4.32422l-5.71875 4.08203m5.71875-4.08203l2.19922 1.09375m11.75781.625l-7 .64453m7-.64453l1.34375 2.05078m11.98438-1.61328l-7.02344-.23047m7.02344.23047l1.07812 2.20313m-2.10156-2.23829l1.08203 2.20313m13.14063-3.17578l-6.79688 1.78515m6.79688-1.78515l1.66406 1.80078m-2.65235-1.54297l1.66407 1.80469m-2.65235-1.54297l.83204.90234m14.33203-1.8164l-6.53907 2.57422m6.53907-2.57422l1.86328 1.59375m-2.8164-1.21875l1.86718 1.59375m12.39844-1.97266l-6.53516 2.58203m6.53516-2.58203l1.86718 1.58985m-2.8164-1.21485l.9336.79688m13.28515-1.28516l-6.4414 2.8086m6.4414-2.8086l1.92187 1.52734m-2.85937-1.11718l.96094.76171m13.41015-.86328l-6.67969 2.19141m6.6797-2.1914l1.76952 1.69921m-2.74219-1.3789l.88282.84765m13.36328-1.27734l-6.60156 2.41015m6.60156-2.41015l1.82812 1.64062m-2.78515-1.28906l.91015.82031m13.47657-.79296l-6.82813 1.65234m6.82813-1.65235l1.6289 1.83594m-2.6211-1.59375l1.62892 1.83594m12.4453-2.7461l-6.35937 2.9922"/><g clip-path="url(#ao)"><path fill="none" stroke="#000" stroke-linecap="round" stroke-linejoin="round" stroke-miterlimit="10" stroke-width=".5" d="M466.74219 385.6289l1.96484 1.46876"/></g><g clip-path="url(#ap)"><path fill="none" stroke="#000" stroke-linecap="round" stroke-linejoin="round" stroke-miterlimit="10" stroke-width=".5" d="M465.8164 386.0625l1.96485 1.46875"/></g><g clip-path="url(#aq)"><path fill="none" stroke="#000" stroke-linecap="round" stroke-linejoin="round" stroke-miterlimit="10" stroke-width=".5" d="M147.35938 372.77344l-6.71875 2.07031"/></g><path fill="none" stroke="#000" stroke-linecap="round" stroke-linejoin="round" stroke-miterlimit="10" stroke-width=".5" d="M147.35938 372.77344l1.73828 1.73047m-2.71875-1.4297l.87109.8672m13.5.61328l-6.86719-1.49219m6.86719 1.49219l.66406 2.35937m12.4375-4.51172l-6.4414 2.8086m6.4414-2.8086l1.92188 1.52735m11.05469-2.1289l-5.76563 4.01562m5.76563-4.01563l2.18359 1.1211m-3.02344-.53516l1.09375.5586m13.6289.20312l-6.90234 1.3164m6.90235-1.3164l1.53906 1.91406m-2.54297-1.72266l.76953.95704m13.58594-.07032l-6.97656-.83984m6.97656.83984l.88672 2.28906m-1.90234-2.41015l.88671 2.28906m13.46094-2.35547l-7.01172-.46094m7.01172.46094l1.00781 2.23828m-2.02734-2.30468l1.00781 2.23437m13.33203-2.55078l-7.01953.30469m7.01953-.30469l1.2461 2.11719m-2.26563-2.07031l.6211 1.05468m13.67968-1.45703l-6.95312 1.01563m6.95312-1.01563l1.45313 1.97656m-2.46484-1.83203l.72656.98828m13.63281-.83593l-7.01563.42187m7.01563-.42187l1.27734 2.09375m-2.29687-2.03125l.63672 1.04687m13.69922-.69922l-7.01563-.40234m7.01563.40234l1.02343 2.23047m-2.04687-2.28906l.51562 1.11719m13.82422-1.33985l-7.02344.16406m7.02344-.16406l1.20313 2.14063m-2.22266-2.11719l1.20313 2.14063m13.08203-2.6797l-6.92188 1.19532m6.92188-1.19531l1.5039 1.9375m-2.51172-1.76563l.75391.96875m13.41406-1.73047l-6.61328 2.375m6.61328-2.375l1.81641 1.64844m-2.77734-1.30469l.90625.82422m13.48437-.78125l-6.84375 1.60156m6.84375-1.60156l1.61719 1.84766m-2.61328-1.61328l.8086.92187m13.58202-.66797l-7 .625m7-.625l1.33985 2.0547m-2.35938-1.96485l.67188 1.02734m13.67578-.80469h-7.02735m7.02735 0l1.15234 2.16797m-2.17578-2.16797l1.15234 2.16797m13.16407-2.5586l-6.98438.78126m6.98438-.78125l1.38671 2.02344m-2.40234-1.91016l1.38672 2.02344m12.9336-2.23047l-6.96094.96484m6.96093-.96484l1.4375 1.98828m-2.44922-1.84766l1.4375 1.98829m12.75-2.72657l-6.68359 2.16406m6.6836-2.16406l1.76562 1.70703m-2.73828-1.39453l.88281.85547m13.41016-1.14844l-6.69532 2.125m6.69532-2.125l1.7539 1.71485m-2.72656-1.40625l.875.85937m13.47266-.96875l-6.8125 1.72656m6.8125-1.72656l1.64843 1.8164m11.32032-2.67577l-6.1211 3.44531m6.1211-3.44531l2.0664 1.32422m-2.95703-.82422l1.03516.66406m13.4961-.375l-6.77345 1.86328m6.77344-1.86328l1.6875 1.78516m-2.67187-1.51172l.84375.89062m13.49218-1.03125l-6.84375 1.60156"/><g clip-path="url(#ar)"><path fill="none" stroke="#000" stroke-linecap="round" stroke-linejoin="round" stroke-miterlimit="10" stroke-width=".5" d="M466.98438 373.00781l1.61328 1.84375"/></g><path fill="none" stroke="#000" stroke-linecap="round" stroke-linejoin="round" stroke-miterlimit="10" stroke-width=".5" d="M465.98828 373.23828l.8086.92578"/><g clip-path="url(#as)"><path fill="none" stroke="#000" stroke-linecap="round" stroke-linejoin="round" stroke-miterlimit="10" stroke-width=".5" d="M147.32422 359.35938l-6.64844 2.26953"/></g><path fill="none" stroke="#000" stroke-linecap="round" stroke-linejoin="round" stroke-miterlimit="10" stroke-width=".5" d="M147.32422 359.35938l1.78906 1.67578m11.59375-1.45313l-6.78516 1.82031m6.78516-1.8203l1.67578 1.79687m11.61328.11718l-6.73437-2.0039m6.73437 2.0039l.48828 2.40235m-1.46484-2.69531l.24219 1.20312m14.17578-2.3086l-6.98438.79298m6.98438-.79297l1.38672 2.02343m-2.40234-1.91015l.6914 1.01172m13.64453-.41016l-6.9961-.63672m6.9961.63672l.95313 2.26172m-1.96875-2.35547l.94922 2.26172m13.36718-2.04297l-6.96875-.89063m6.96875.89063l.8711 2.29688m-1.88281-2.42579l.86718 2.29688m13.48828-2.61328H220.375m7.02734 0l1.15235 2.16797m-2.17188-2.16797l.57422 1.08594m13.75781-1.27344l-7.01953.3789m7.01953-.3789l1.26563 2.10156m-2.28906-2.04688l.63672 1.05079m13.6953-1.21094l-7.0039.58984m7.0039-.58984l1.32813 2.0625m-2.34765-1.97656l.66406 1.03125m13.67578-1.01563l-7.01563.38672m7.01563-.38672l1.26953 2.10156m12.05078-1.96093l-7.02734.10546m7.02734-.10546l1.1836 2.14843m-2.20703-2.1328l.59375 1.07421m13.71484-.57813l-6.96875-.91796m6.96875.91796l.85937 2.29688m-1.875-2.42969l.4297 1.14844m13.91796-1.1914l-7.0039-.57032m7.0039.57031l.97266 2.25391m-1.98829-2.33594l.48438 1.125m13.85937-1.3086l-7.02734-.03905m7.02734.03906l1.14063 2.17578m-2.16406-2.17969l1.14062 2.17188m13.19922-2.22656l-7.02734.08203m7.02734-.08204l1.17578 2.15235m-2.19922-2.14063l.58985 1.07422m13.67968-.35156l-6.89062-1.38672m6.89062 1.38672l.69922 2.35156m-1.70312-2.55469l.35156 1.17579m14.01953-1.32422l-6.9961-.6836m6.9961.6836l.9336 2.26562m-1.95313-2.36719l.9375 2.26954m13.40234-2.80079l-7.0039.57813m7.0039-.57813l1.32422 2.0625m-2.34375-1.97656l1.32422 2.0625m-2.34375-1.98047l.66406 1.03125m14.51954-2.02734l-6.66407 2.23438m6.66407-2.23438l1.78125 1.6875m-2.75391-1.36328l1.78125 1.6875m-2.75-1.35938l.89062.84375m14.39454-1.40234l-6.72266 2.05078m6.72266-2.05078l1.73437 1.73438m-2.71484-1.4375l1.73437 1.73828m12.53125-2.1211l-6.66406 2.22266m6.66406-2.22266l1.78125 1.6914m-2.75-1.36718l.89063.84375m13.38281-1.19922l-6.64453 2.28516m6.64453-2.28516l1.79687 1.67188m-2.76171-1.33985l.89843.83594m13.4336-1.00781l-6.7461 1.96484m6.7461-1.96484l1.71093 1.75781m-2.6914-1.47265l.85547.8789m13.41797-1.24219l-6.69922 2.1172m6.69922-2.1172l1.75 1.71875m-2.72657-1.41015l.875.85937m13.21485-1.66797l-6.29688 3.1211"/><g clip-path="url(#at)"><path fill="none" stroke="#000" stroke-linecap="round" stroke-linejoin="round" stroke-miterlimit="10" stroke-width=".5" d="M466.71094 358.9336l1.99219 1.42968"/></g><path fill="none" stroke="#000" stroke-linecap="round" stroke-linejoin="round" stroke-miterlimit="10" stroke-width=".5" d="M465.79297 359.38672l.9961.71484"/><g clip-path="url(#au)"><path fill="none" stroke="#000" stroke-linecap="round" stroke-linejoin="round" stroke-miterlimit="10" stroke-width=".5" d="M147.17578 345.67969l-6.35156 3"/></g><path fill="none" stroke="#000" stroke-linecap="round" stroke-linejoin="round" stroke-miterlimit="10" stroke-width=".5" d="M147.17578 345.67969l1.96875 1.46484m11.6836.14453l-7.02344-.21875m7.02344.21875l1.08203 2.19922m12.09765-1.34375l-6.75781-1.9336m6.75781 1.9336l.51172 2.39844m-1.49219-2.67969l.25391 1.19922m14.16797-1.64844l-7.00781-.47265m7.0078.47265l1.00392 2.23828m-2.02344-2.30859l.5039 1.1211m13.75391-.50782l-6.85547-1.55469m6.85547 1.5547l.64453 2.36718m-1.64062-2.59375l.3203 1.1836m14.0625-1.4336l-7-.60547m7 .60547l.96485 2.25781m-1.98047-2.34765l.96094 2.2578m13.38281-2.46874H220.375m7.02734 0l1.15235 2.16406m-2.17188-2.16406l.57422 1.08203m13.74219-.71875l-6.98828-.72656m6.98828.72656l.92187 2.27344m12.34766-1.96485l-6.89453-1.34765m6.89453 1.34765l.71484 2.34766m-1.71875-2.54297l.35938 1.17188m14.02344-1.52344l-7.02344-.2539m7.02344.2539l1.0703 2.21094m12.23829-2.58204l-7.01172.48829m7.01172-.48829l1.30078 2.08204m-2.32031-2.01172l.64844 1.03906m13.6914-.76172l-7.02343-.20703m7.02343.20703l1.08985 2.20313m-2.10938-2.23047l.54297 1.09765m13.71875-.4414l-6.875-1.46094m6.875 1.46094l.67578 2.35546m-1.67578-2.5703l.33594 1.17968m14.04297-1.39844l-7.00391-.59765m7.0039.59765l.96485 2.25781m-1.98437-2.34375l.96484 2.25391m13.3086-3.16797l-6.88282 1.40625m6.88281-1.40625l1.5625 1.89063m-2.5625-1.6875l1.5625 1.89062m12.8125-1.10156l-7.0039-.58203m7.0039.58203l.96875 2.2539m-1.98828-2.33984l.48438 1.1289m13.70703-.30077l-6.71485-2.0664m6.71485 2.0664l.46484 2.41015m-1.4414-2.71093l.46484 2.41015m-1.4414-2.71094l.23046 1.20704m15.15235-1.09375l-6.94141-1.08985m6.9414 1.08985l.80079 2.3164m-1.8125-2.47656l.80468 2.32031m-1.8125-2.47656l.80079 2.3164m14.54296-3.01562l-6.96484.9414m6.96484-.9414l1.4336 1.99219m-2.44531-1.85547l1.42968 1.99219m-2.44531-1.85547l1.4336 1.99219m13.61718-3.26563l-6.3789 2.9414m6.3789-2.9414l1.95313 1.48828m-2.87891-1.0586l1.95313 1.48438m-2.88282-1.05859l.97657.74219m14.17187-1.64844l-6.33203 3.04688m6.33203-3.04688l1.97656 1.44922m-2.89843-1.00781l1.97656 1.45312m-2.89844-1.00781l.98828.72265m14.32813-1.21875l-6.65235 2.26172m6.65235-2.26171l1.78906 1.67968m-2.7539-1.35156l1.78515 1.6836m-2.7539-1.35157l.89452.83985m14.50782-.85157l-6.95703.96485m6.95703-.96485l1.4414 1.98828m-2.45312-1.84765l1.4414 1.98828m-2.45312-1.84766l.71875.99219m14.60156-1.39063l-6.92187 1.19922m6.92187-1.19921l1.5039 1.9414m-2.5078-1.76562l1.5039 1.9375m-2.51172-1.76172l.75.96875m14.39453-1.98828l-6.55468 2.53515"/><g clip-path="url(#av)"><path fill="none" stroke="#000" stroke-linecap="round" stroke-linejoin="round" stroke-miterlimit="10" stroke-width=".5" d="M466.83984 345.91016l1.85547 1.60546"/></g><path fill="none" stroke="#000" stroke-linecap="round" stroke-linejoin="round" stroke-miterlimit="10" stroke-width=".5" d="M465.88672 346.27734l1.85547 1.60547m-2.8125-1.23437l.92969.80078"/><g clip-path="url(#aw)"><path fill="none" stroke="#000" stroke-linecap="round" stroke-linejoin="round" stroke-miterlimit="10" stroke-width=".5" d="M147.3086 332.6836l-6.6172 2.35937"/></g><path fill="none" stroke="#000" stroke-linecap="round" stroke-linejoin="round" stroke-miterlimit="10" stroke-width=".5" d="M147.3086 332.6836l1.8125 1.65624m11.63671.22657l-6.88672-1.40625m5.88672 1.20312l.34375 1.17578m13.82813-.46875l-6.59766-2.41797m6.59766 2.41797l.33594 2.4336m13.1914-3.60938l-7.02344-.0625m7.02344.0625l1.13281 2.17578m-2.15234-2.1836l.5664 1.08595m13.57813.03906l-6.64453-2.29688m5.67578 1.96094l.1914 1.21094m14.27735-1.78125l-7.01172-.48438m7.01172.48438l1 2.23828m-2.01953-2.3086l.5 1.1211m13.79688-1.83984l-6.94141 1.09375m6.9414-1.09375l1.47657 1.96093m-2.48438-1.80078l.73828.98047m13.46094-1.66406l-6.6914 2.14062m6.6914-2.14062l1.75781 1.71094m-2.73047-1.40235l.87891.85938m13.45313-1.02344l-6.78125 1.85156m6.78125-1.85156l1.67968 1.78906m-2.66406-1.51953l.83984.89453m13.58204-.30469l-7.02344.13282m7.02344-.13281l1.1953 2.14062m-2.21483-2.1211l.59375 1.07032m13.74218-.92578l-7.02734-.19531m7.02734.1953l1.08985 2.19532m-2.11329-2.22656l.54688 1.10156m13.75781-1.66016l-6.95703.98438m6.95703-.98438l1.44531 1.98438m-2.45703-1.83985l.72266.98829m13.5586-1.38672l-6.8672 1.49219m6.8672-1.4922l1.58593 1.875m11.6836-.1953l-6.77735-1.8672m6.77734 1.8672l.53516 2.39453m-1.52344-2.66797l.53516 2.39453m13.83594-2.42969l-6.91407-1.25m6.91407 1.25l.75 2.33594m-1.7539-2.51953l.74608 2.33594m13.60938-2.40625l-6.98828-.7422m6.98828.7422l.91797 2.27343m-1.9336-2.38281l.45704 1.14063m13.89453-1.46094l-7.02735.11719m7.02735-.1172l1.1875 2.14844m-2.21094-2.1328l.59375 1.07421m13.7461-.98828l-7.02735-.08594m7.02734.08594l1.125 2.17969m-2.14843-2.19531l1.125 2.17968m13.01562-3.36719l-6.63281 2.32032m6.63281-2.32031l1.80078 1.66796m-2.76562-1.32812l1.80078 1.66406m12.67578-.80469l-7.02734-.07812m7.02734.07812l1.1289 2.17579m-2.15234-2.1875l1.1289 2.17968m13.07032-3.1875l-6.75 1.96094m6.75-1.96094l1.71094 1.76172m-2.6914-1.47656l1.70702 1.76172m12.56641-2.11719l-6.70313 2.10156m6.70313-2.10156l1.7461 1.72266m-2.72266-1.41797l1.75 1.72265m-2.72266-1.41796l.8711.86328m14.3789-1.52344l-6.67578 2.20312m6.67578-2.20312l1.76953 1.69922m-2.74219-1.3789l1.77344 1.69921m-2.74219-1.3789l.88282.84765m14.4375-1.26172l-6.80469 1.75m6.80469-1.75l1.65625 1.8125m-2.64453-1.5586l1.65234 1.8125m-2.64453-1.55859l1.65625 1.8125m13.53125-2.67187l-6.58594 2.45312"/><g clip-path="url(#ax)"><path fill="none" stroke="#000" stroke-linecap="round" stroke-linejoin="round" stroke-miterlimit="10" stroke-width=".5" d="M466.85547 332.63672l1.83594 1.6289"/></g><path fill="none" stroke="#000" stroke-linecap="round" stroke-linejoin="round" stroke-miterlimit="10" stroke-width=".5" d="M465.89453 332.9961l1.83594 1.6289m-2.79297-1.27344l1.83594 1.6289"/><g clip-path="url(#ay)"><path fill="none" stroke="#000" stroke-linecap="round" stroke-linejoin="round" stroke-miterlimit="10" stroke-width=".5" d="M144.78906 317.125l-1.57812 6.84766"/></g><path fill="none" stroke="#000" stroke-linecap="round" stroke-linejoin="round" stroke-miterlimit="10" stroke-width=".5" d="M159.98047 318.25781l-5.33203 4.57813m4.55469-3.91016l1.14453.44531m13.72656.48829l-6.89063 1.375m5.89063-1.17579l.77734.94922m13.60547-.5625l-7.02344.20313m6-.17188l.60938 1.0664m13.21875.82813l-6.0039-3.64843m6.0039 3.64843l-.14063 2.44922m13.51172-2.53906l-6.11328-3.46484m6.11328 3.46484l-.0664 2.45313m-.82422-2.95704l-.03516 1.22657m14.5586-1.47657l-6.75-1.95703m6.75 1.95703l.5 2.40235m-1.48438-2.6875l.5039 2.40234m13.9297-3.27734l-7.01954.35937m7.01953-.35937l1.26172 2.10547m-2.28125-2.05079l.6289 1.05079m13.6875-1.32422l-6.98046.80078m6.98047-.80078l1.39062 2.01953m-2.40625-1.90625l.69532 1.01172m13.65234-.9336l-7.01563.41797m7.01563-.41797l1.27734 2.09375m-2.29687-2.03515l1.27734 2.09375m13.03125-2.41406l-6.96484.9414m6.96484-.9414l1.42969 1.99218m-2.4414-1.85547l1.42968 1.9922m12.8789-2.25l-6.92577 1.17968m6.92578-1.17969l1.5 1.94531m-2.50782-1.77343l.75.97265m13.52344-1.38281l-6.82812 1.65625m6.82812-1.65625l1.6289 1.83594m-2.62109-1.59375l.8125.91797m13.58985-.5l-7.01953.33984m7.01953-.33984l1.2539 2.10937m-2.27343-2.0586l1.2539 2.10548m13.08203-2.125l-7.02343.27734m7.02343-.27734l1.23829 2.11718m-2.26172-2.07812l.6211 1.0586m13.70702-.63673l-7-.64453m7 .64453l.94531 2.26172m12.375-2.33984l-7.01171-.48828m5.99218.41797l.4961 1.12109m13.6914-2.32813l-6.71875 2.06641m6.71875-2.0664l1.73828 1.73046m11.20313-2.55078l-5.97266 3.70313m5.97266-3.70313l2.1211 1.23438m-2.98829-.69531l1.0586.61718m13.42187-.55469l-6.5664 2.50391m6.5664-2.5039l1.84766 1.61328m-2.80469-1.25l.92578.80859m13.4961.82813l-6.8672-1.4961m5.8672 1.27735l.33203 1.17968m8.6953 1.27344l3.70704-5.96875m11.27734-.52344l.3711 7.01563m-.3711-7.01563l2.10547-1.26172m13.61719 2.05079l-4.44531 5.4414m4.44531-5.4414l2.40625.47656m-3.05078.3125l1.20312.24219m13.17578-.62891l-5.28125 4.63672"/><g clip-path="url(#az)"><path fill="none" stroke="#000" stroke-linecap="round" stroke-linejoin="round" stroke-miterlimit="10" stroke-width=".5" d="M466.20313 318.23047l2.29296.86719"/></g><path fill="none" stroke="#000" stroke-linecap="round" stroke-linejoin="round" stroke-miterlimit="10" stroke-width=".5" d="M465.4336 318.90625l2.29687.86719m-3.0664-.19531l2.29687.86718"/><path fill="#00f" fill-rule="evenodd" d="M414.86719 423.26563h8.6211v-10.14844h-8.6211v10.14844"/><path fill="azure" fill-rule="evenodd" d="M416.70313 414.95313h.83203v2.8203h3.28515v-2.8203h.83594v6.48046h-.83594v-2.91796h-3.28515v2.91796h-.83204v-6.48046"/><path fill="#ff3030" fill-rule="evenodd" d="M371.17969 418.82813h7.6914v-10.14844h-7.6914v10.14844"/><path fill="azure" fill-rule="evenodd" d="M373.01172 410.51172h.83594v5.74219h3.1914v.73828h-4.02734v-6.48047"/><path fill="#00f" fill-rule="evenodd" d="M219.58203 414.38672h8.61719v-10.14453h-8.61719v10.14453"/><path fill="azure" fill-rule="evenodd" d="M221.41406 406.07422h.83203v2.82422h3.28907v-2.82422h.83203v6.48047h-.83203v-2.91406h-3.28907v2.91406h-.83203v-6.48047"/><path fill="#ff3030" fill-rule="evenodd" d="M184.76953 365.5664h7.6914v-10.14452h-7.6914v10.14453"/><path fill="azure" fill-rule="evenodd" d="M186.60156 357.2539h.83203v5.73829h3.19532v.74219h-4.02735v-6.48047"/><path fill="#ffffe0" fill-rule="evenodd" d="M306.23828 375.14844h22.17969v-10.1914h-22.17969v10.1914"/><path fill-rule="evenodd" d="M309.73828 366.78906h.50781v6.29688h-.78906v-4.49219h-1.38672v-.55469l.5586-.0664.2539-.05079.23047-.08984.20313-.14062.17187-.21094.14063-.29688.10937-.39453m4.8125 0l.23047.01953.21875.0547.20703.08983.19531.1211.1836.14844.17187.17578.30078.42187.2461.49219.17969.54688.10937.57812.03906.59375-.03906.58984-.10938.58594-.17968.55469-.2461.5-.30078.42969-.17187.17968-.1836.15235-.1953.125-.20704.08984-.21875.0586-.23047.01953-.23047-.01954-.21875-.05859-.20703-.08984-.19531-.125-.1875-.15235-.16797-.17968-.30469-.4297-.24219-.5-.17968-.55468-.11328-.58594-.03516-.58984h.83203l.02735.5625.08203.5039.1289.44532.16016.3711.1914.30077.21094.22266.22266.13672.22656.04687.22656-.04687.22266-.13672.21094-.22266.1914-.30078.16016-.3711.125-.4453.08203-.50391.03125-.5625-.03125-.5625-.08203-.5-.125-.4375-.16016-.36328-.1914-.29297-.21094-.21484-.22266-.13282-.22656-.04296-.22656.04296-.22266.13282-.21094.21484-.1914.29297-.16016.36328-.1289.4375-.08204.5-.02734.5625h-.83203l.03516-.59375.11328-.57813.17969-.54687.24218-.49219.30469-.42187.16797-.17578.1875-.14844.19531-.1211.20703-.08984.21875-.05469.23047-.01953m5.08985 0h.51171v6.29688h-.78906v-4.49219h-1.38672v-.55469l.5586-.0664.2539-.05079.22656-.08984.20313-.14062.17578-.21094.14063-.29688.10546-.39453m2.82422 2.17578h.78516l.02344-.3164.0586-.28516.09765-.2539.14062-.21485.17969-.17187.22266-.13282.26562-.07812.3086-.02735.23828.01954.22265.0625.20703.10156.1797.14062.14843.17188.11328.20703.07031.23438.02344.26562-.01953.26953-.0664.22266-.10938.1914-.15625.17188-.19922.16406-.25.16406-.63281.39063-.53907.3125-.4375.3164-.34375.32422-.26562.33594-.1914.35156-.125.3711-.06641.39062-.01954.42188h4.21094v-.74219h-3.33203l.08203-.28516.11328-.23437.14844-.20313.1875-.17968.23047-.17188.27734-.17578.71875-.41797.41407-.20312.34765-.23047.28125-.2539.21875-.26563.16406-.27735.10938-.28515.0625-.28516.02344-.28125-.04297-.38281-.1211-.34766-.1875-.3086-.25-.26171-.30468-.21094-.34375-.16015-.38281-.09766-.40625-.03516-.4336.03516-.39844.09765-.35546.16407-.3047.23437-.24609.30469-.1875.375-.11718.44531-.03907.51953"/><path fill="#ffffe0" fill-rule="evenodd" d="M186.40234 325.92188h22.1797v-10.19532h-22.1797v10.19531"/><path fill-rule="evenodd" d="M189.90234 317.5625h.50782v6.29297h-.78516v-4.48828h-1.39063v-.55469l.5586-.0664.2539-.0547.23047-.08984.20313-.14062.17187-.21094.14453-.29297.10547-.39453m4.8125 0l.23047.01953.21875.05469.20703.08984.19532.1211.18359.14843.17188.17579.30468.41796.24219.4961.17969.54687.10937.57813.03906.58984-.03906.59375-.10937.58594-.17969.55078-.24219.5039-.30469.42579-.17187.17969-.1836.15625-.1953.12109-.20704.09375-.21875.05469-.23047.01953-.23047-.01953-.21875-.0547-.20703-.09374-.1953-.1211-.1875-.15625-.16798-.17968-.30469-.42578-.24218-.50391-.17969-.55078-.10938-.58594-.03906-.59375h.83203l.02735.5625.08203.50781.1289.44141.16016.375.1914.30078.21095.22266.22265.13672.22656.04687.22657-.04687.22265-.13672.21094-.22266.1914-.30078.16016-.375.1289-.4414.07813-.50782.03125-.5625-.03125-.5625-.07812-.5-.1289-.4336-.16016-.36718-.19141-.29297-.21094-.21094-.22265-.1328-.22657-.04688-.22656.04687-.22266.13281-.21093.21094-.1914.29297-.16017.36719-.1289.4336-.08203.5-.02735.5625h-.83203l.03906-.58985.10938-.57813.17969-.54687.24219-.4961.30468-.41796.16797-.17579.1875-.14843.19531-.1211.20703-.08984.21875-.05469.23047-.01953m5.08985 0h.51172v6.29297h-.78907v-4.48828h-1.38672v-.55469l.5586-.0664.2539-.0547.22657-.08984.20312-.14062.17578-.21094.14063-.29297.10547-.39453m2.82422 2.17578h.78906l.01953-.3164.0586-.28907.09765-.25.14063-.21484.17968-.17578.22656-.1289.26172-.08204.3086-.02734.23828.02343.22266.0625.20703.10157.17968.13671.14844.17579.11328.20312.07031.23828.02344.26563-.01953.26562-.0664.22656-.10938.19141-.15625.17188-.19922.16015-.25.16797-.63281.38672-.53516.3164-.4375.31641-.34765.32422-.26563.33594-.1875.35156-.125.36719-.07031.39453-.01953.41797h4.21094v-.73828h-3.33204l.08203-.28516.11329-.23828.14843-.19922.1875-.17969.23047-.17187.27735-.17578.71875-.41797.41406-.20703.34766-.23047.28125-.25.21875-.26563.16406-.28125.10937-.28125.0664-.28515.01954-.28125-.04297-.38281-.1211-.34766-.1875-.3086-.25-.26171-.30468-.21485-.34375-.15625-.38281-.10156-.40625-.03125-.4336.03125-.39843.09766-.35547.16796-.30469.23438-.2461.30469-.1875.375-.11718.44531-.03906.51953"/><path fill="#ffffe0" fill-rule="evenodd" d="M323.99219 337.73047h22.17969v-10.19531h-22.1797v10.1953"/><path fill-rule="evenodd" d="M327.48828 329.3711H328v6.29296h-.78906v-4.48828h-1.38672v-.5586l.5586-.0625.2539-.05468.22656-.08984.20703-.14063.17188-.21094.14062-.29296.10547-.39454m4.8164 0l.22657.01563.21875.0586.21094.08984.19531.12109.1836.14844.17187.17578.30078.41797.2461.4961.17968.54296.10938.58203.03906.58985-.03906.59375-.10938.58203-.17969.55468-.24609.50391-.30078.42578-.17188.17969-.18359.15234-.19531.125-.21094.09375-.21875.05469-.22656.01953-.23047-.01953-.21875-.05469-.20703-.09375-.19922-.125-.1836-.15234-.17187-.17969-.30078-.42578-.24219-.5039-.17969-.5547-.11328-.58202-.03515-.59375h.83203l.02734.5625.08203.5078.125.44141.16406.375.19141.30079.21094.22265.22265.13672.22657.04688.22656-.04688.22266-.13672.21093-.22265.1875-.30079.16407-.375.125-.4414.08203-.50781.03125-.5625-.03125-.5625-.08203-.5-.125-.4336-.16407-.36719-.1875-.29296-.21093-.21485-.22266-.1289-.22656-.04688-.22656.04688-.22266.1289-.21094.21485-.1914.29296-.16407.3672-.125.43358-.08203.5-.02734.5625h-.83203l.03515-.58984.11328-.58203.1797-.54297.24218-.4961.30078-.41796.17188-.17578.18359-.14844.19922-.1211.20703-.08984.21875-.0586.23047-.01562m5.08984 0h.50781v6.29297h-.78515v-4.48828h-1.38672v-.5586l.5586-.0625.25-.05468.23046-.08984.20313-.14063.17578-.21094.14062-.29296.10547-.39454m6.80469 1.6172h-.78516l-.05469-.21095-.08203-.1875-.10546-.15625-.12891-.1328-.14844-.10157-.16015-.07422-.16797-.04688-.17188-.01562-.32812.04297-.28907.11719-.24609.19921-.20313.26563-.16015.33984-.11328.40235-.07031.46875-.02344.52734.1875-.20312.1875-.16016.1836-.1211.1875-.08984.1875-.0625.1914-.03515.40234-.02344.30469.03125.32031.08984.3164.15625.29688.21875.2539.28516.19923.35156.07031.19922.05469.21875.02734.23438.00781.25-.78906.04687-.02734-.25781-.07813-.25-.1211-.23438-.16015-.21094-.19531-.17968-.21875-.13672-.23828-.08594-.25781-.03125-.25391.03125-.24219.08594-.21875.13672-.1914.17969-.16016.21093-.125.23438-.07813.25-.02343.25781.02344.25781.07812.2539.125.23438.16016.20704.1914.17968.21875.13672.24219.08985.2539.03125.25782-.03125.23828-.08985.21875-.13672.19531-.17969.16016-.20703.1211-.23437.07812-.2539.02734-.25782.78906-.04688-.03125.3711-.09375.3711-.15625.35937-.22265.32812-.29297.28125-.16797.1211-.1875.10156-.20703.08203-.22266.0625-.24219.03906-.26171.01172-.28125-.01562-.26172-.04688-.23828-.07422-.21485-.10547-.19531-.1328-.17188-.15626-.15625-.17969-.1328-.20312-.1172-.22266-.10156-.24219-.14453-.53515-.08594-.59375-.02734-.63672.03906-.7461.11328-.66406.1875-.57421.1211-.25782.13672-.23047.15234-.20703.17188-.17969.18359-.15625.20312-.1289.21875-.10156.23047-.07422.25-.04688.26172-.01172.36719.03125.33203.09766.29297.14844.25781.20312.21094.23828.16406.27735.11719.30078.0625.32031"/></g></defs><use xlink:href="#aA"/></svg>