<svg xmlns="http://www.w3.org/2000/svg" role="img" xmlns:xlink="http://www.w3.org/1999/xlink" viewBox="142.45 309.95 326.84 171.84"><defs><clipPath id="a"><path d="M144 311.67188h1v168.65625h-1zm0 0"/></clipPath><clipPath id="b"><path d="M144 311.67188h324v168.65625H144zm0 0"/></clipPath><clipPath id="c"><path d="M467 311.67188h1v168.65625h-1zm0 0"/></clipPath><clipPath id="d"><path d="M144 479h4v1.32813h-4zm0 0"/></clipPath><clipPath id="e"><path d="M147 480h2v.32813h-2zm0 0"/></clipPath><clipPath id="f"><path d="M146 480h2v.32813h-2zm0 0"/></clipPath><clipPath id="g"><path d="M153 479h9v1.32813h-9zm0 0"/></clipPath><clipPath id="h"><path d="M160 480h3v.32813h-3zm0 0"/></clipPath><clipPath id="i"><path d="M166 479h9v1.32813h-9zm0 0"/></clipPath><clipPath id="j"><path d="M173 480h3v.32813h-3zm0 0"/></clipPath><clipPath id="k"><path d="M180 480h8v.32813h-8zm0 0"/></clipPath><clipPath id="l"><path d="M187 480h2v.32813h-2zm0 0"/></clipPath><clipPath id="m"><path d="M186 480h2v.32813h-2zm0 0"/></clipPath><clipPath id="n"><path d="M193 480h9v.32813h-9zm0 0"/></clipPath><clipPath id="o"><path d="M200 480h3v.32813h-3zm0 0"/></clipPath><clipPath id="p"><path d="M199 480h2v.32813h-2zm0 0"/></clipPath><clipPath id="q"><path d="M206 480h9v.32813h-9zm0 0"/></clipPath><clipPath id="r"><path d="M213 480h3v.32813h-3zm0 0"/></clipPath><clipPath id="s"><path d="M212 480h2v.32813h-2zm0 0"/></clipPath><clipPath id="t"><path d="M220 480h8v.32813h-8zm0 0"/></clipPath><clipPath id="u"><path d="M227 480h2v.32813h-2zm0 0"/></clipPath><clipPath id="v"><path d="M233 479h8v1.32813h-8zm0 0"/></clipPath><clipPath id="w"><path d="M240 479h3v1.32813h-3zm0 0"/></clipPath><clipPath id="x"><path d="M246 479h9v1.32813h-9zm0 0"/></clipPath><clipPath id="y"><path d="M253 479h3v1.32813h-3zm0 0"/></clipPath><clipPath id="z"><path d="M260 479h8v1.32813h-8zm0 0"/></clipPath><clipPath id="A"><path d="M266 479h4v1.32813h-4zm0 0"/></clipPath><clipPath id="B"><path d="M273 478h8v2.32813h-8zm0 0"/></clipPath><clipPath id="C"><path d="M280 478h3v2.32813h-3zm0 0"/></clipPath><clipPath id="D"><path d="M287 478h7v2.32813h-7zm0 0"/></clipPath><clipPath id="E"><path d="M293 478h3v2.32813h-3zm0 0"/></clipPath><clipPath id="F"><path d="M300 478h8v2.32813h-8zm0 0"/></clipPath><clipPath id="G"><path d="M306 478h4v2.32813h-4zm0 0"/></clipPath><clipPath id="H"><path d="M313 478h8v2.32813h-8zm0 0"/></clipPath><clipPath id="I"><path d="M327 478h7v2.32813h-7zm0 0"/></clipPath><clipPath id="J"><path d="M341 477h5v3.32813h-5zm0 0"/></clipPath><clipPath id="K"><path d="M355 477h5v3.32813h-5zm0 0"/></clipPath><clipPath id="L"><path d="M369 476h3v4.32813h-3zm0 0"/></clipPath><clipPath id="M"><path d="M381 476h5v4.32813h-5zm0 0"/></clipPath><clipPath id="N"><path d="M395 476h4v4.32813h-4zm0 0"/></clipPath><clipPath id="O"><path d="M408 476h5v4.32813h-5zm0 0"/></clipPath><clipPath id="P"><path d="M420 477h7v3.32813h-7zm0 0"/></clipPath><clipPath id="Q"><path d="M434 477h6v3.32813h-6zm0 0"/></clipPath><clipPath id="R"><path d="M447 477h6v3.32813h-6zm0 0"/></clipPath><clipPath id="S"><path d="M460 478h7v2.32813h-7zm0 0"/></clipPath><clipPath id="T"><path d="M144 466h4v2h-4zm0 0"/></clipPath><clipPath id="U"><path d="M466 464h2v3h-2zm0 0"/></clipPath><clipPath id="V"><path d="M144 452h4v3h-4zm0 0"/></clipPath><clipPath id="W"><path d="M466 451h2v2h-2zm0 0"/></clipPath><clipPath id="X"><path d="M144 439h4v3h-4zm0 0"/></clipPath><clipPath id="Y"><path d="M466 437h2v3h-2zm0 0"/></clipPath><clipPath id="Z"><path d="M144 426h4v3h-4zm0 0"/></clipPath><clipPath id="aa"><path d="M466 425h2v3h-2zm0 0"/></clipPath><clipPath id="ab"><path d="M144 413h4v2h-4zm0 0"/></clipPath><clipPath id="ac"><path d="M466 411h2v3h-2zm0 0"/></clipPath><clipPath id="ad"><path d="M144 398h4v5h-4zm0 0"/></clipPath><clipPath id="ae"><path d="M466 398h2v3h-2zm0 0"/></clipPath><clipPath id="af"><path d="M144 384h3v6h-3zm0 0"/></clipPath><clipPath id="ag"><path d="M466 385h2v3h-2zm0 0"/></clipPath><clipPath id="ah"><path d="M144 371h4v6h-4zm0 0"/></clipPath><clipPath id="ai"><path d="M466 371h2v3h-2zm0 0"/></clipPath><clipPath id="aj"><path d="M144 358h4v5h-4zm0 0"/></clipPath><clipPath id="ak"><path d="M466 358h2v2h-2zm0 0"/></clipPath><clipPath id="al"><path d="M144 345h4v4h-4zm0 0"/></clipPath><clipPath id="am"><path d="M466 345h2v3h-2zm0 0"/></clipPath><clipPath id="an"><path d="M465 345h3v3h-3zm0 0"/></clipPath><clipPath id="ao"><path d="M144 331h3v6h-3zm0 0"/></clipPath><clipPath id="ap"><path d="M466 331h2v3h-2zm0 0"/></clipPath><clipPath id="aq"><path d="M465 332h3v3h-3zm0 0"/></clipPath><clipPath id="ar"><path d="M144 320h4v1h-4zm0 0"/></clipPath><clipPath id="as"><path d="M465 317h3v3h-3zm0 0"/></clipPath><g id="at" clip-path="url(#clip1)"><path fill="#fff" fill-opacity="0" fill-rule="evenodd" d="M0 0h1000v1000H0zm0 0"/><path fill="#d3d3d3" fill-opacity="0" fill-rule="evenodd" d="M162.15234 355.86719l-.23437.29297.0586.23437.11718.17188.17578.23437.29297.34766.11328.0586.11719-.17188.0586-.23438.17577-.17578.46485-.17578h.69922l.23437.29297.28906.8164.0586.17579.17578.23046.35156.23438.69922.69922.17188.17578.23437.34765.23438.41016.28906.58203.41015.46485.23047.23437.23438.17578.11719.23047.17578.29297.17187 1.16406v.23438l.0586.28906.05859.11719.11719.11719.34765.41015.11719.17188.17578.17578.17578.23437.11719.17188.17188.35156.05859.23438.23437.40625.23438-.0586-.17578.17578-.0586.92969h-.58203l-.23437-.11328-.34766.11328-.11719.11719-.05859.29297-.0586.17578-.11718.17187-.46484.29297-.0586.23438-.0586.11328v.64453l.0586.17187v.41016l.0586.0586v.40624l.05859.40625.11719.17579.05859.05859.23047.64062-.0586.29297v.69922l-.05859.58203v.23438l-.0586.23047-.05468.35156v1.92187l.05469.1172h.42578l-.36719.11718-.02344.35156.89063 1.16797 1.74219.53906 1.33984.35938v.53906l.08984.8086.53516.71484 1.51953.26953.89063-.08594.08984 1.16406.53516.1797 1.16015-.1797 2.05469-.98437 1.16016-.36328 1.8789-.17578 1.69531-.1797-.17968.71876-1.51563.08594-1.25.08984-.80469.26953-1.07421.8086.26953.71875.53515.89843-.17968.625-.26563.8086.26563 1.07812.625.89844.80468.17969 1.25-.1797-.26562.72267.09766.5039.05468.29297v.17188l.0586.29296v.40625l.17578.1172.35156.11718h.40625l.29297-.17578.11328-.11719.0586-.11719.11718-.23047.0586-.17578.35156-.46484.23047-.17578.17578-.0586.17578.0586.0586.17578.11718.98828.05469.46875.0586.17188.11718.23437.17578.0586.8164.05859h.28907l.11719.23437.05859.40625.0586.35156v1.10547l.11718.29297.11719.34766.28906.69922.17578.35156.58203.7539.35157.17579.17187.0586.46875.23437.64063.46484.34765.23438.29297.17578.29297.05468.23047.0625.8164.34766.29297.17578.11328.17188.35157.35156.11719.17578.52343.64063v.28906l.0586.35156v.34766l.05859.35156.0586.28906.11718.0586.17188.05859h.17578l.58203.23437.17578.1172.17578.28905.17578.23438.11328.23437.29297.23047.11719.11719v.41016l.0586.05468.28906.23438.23437.11719.0586.11718.11718.17188.0586.11719.23047.23437.05859.17578.23437.0586.1172.05859-.1172.11328-.05859.11719v.11719l-.11719.29296-.11719.28907v.58203l.17579.11719.11718.05859.0586.11719.11719.11719.11328.05859.17578.34765.0586.35157.05858.40625v.17578l-.05859.17578-.11719.69922v.17187l.1172.17579.29296.29296h.40625l.17578.1172.11719.17187.11719.29296v.23438h-.52735l-.23047-.23438h-.23437l-.17578.0586-.0586.69922.0586.34765.11719.17579.17578.41015.11718.23047.28907.46875.17578.05469h.52344l.23437.0586.75781.64062.0586.29296v.23438l.05859.0586.23047.34765v.35156l-.11719.17188v.29297l.29297.28906.29297.17578.17187.0586.29297.17577.29297.1172.58203.40624.28906.23438.29297.17578.21875.16015.01563.01172.23047.17579.64062.52343.17578.23438.1172.17578.17577.17578.11328.17188v.64062l.1172.17578.46874.11719.58203.11719.23438.05859.23047.11328.29297.11719.11328.0586.58593.35156.28907.17187.17578.0625.17578.05469.17578.0586.69922.35155.28906.17579.23438.05468.28906.17578.23437.1172.64063.40624.29297.11719.17187.0586.23438.05859.41015.05859.23047.0586.23438.11718.0586.17188-.41017.17578.46875.0586.0586.29296.11328.23438.17578.05468.23438.0586.17578.05859.40625.11719.64062.23437.11719.17188.0586.23437v.17578l-.0586.1172-.0586.40624.23438.23438.11719.05859.34766.11719.64062.23047.17578.11718.28906.1172.17578.17577.23438.46485.58203 1.10546.17578.17579.34766.17578.17578.11719.35156.11718 1.04688.52344.23437.0586.46485.11327.29297.0586.46484.17578.75781.58203.23438.23438.34765.46484.17578.17578.28907.23438.8164.69921.29297.17579.28906.28906.29297.17578.29297.28906.69531.64063.17578.17578.29297.23437.28907.23438.46875.28906.64062.58203.34766.23438.23437.29297.34766.34765.35156.46485.9336.99218.34765.40625.11719.17579.23437.05859.11328.11719.64454.17578.23047.11328.23437.0586.29297.17577.23047.1172.9336.69921.40624.40625.23438.17578.40625.17578.23437.11719.8164.34766.34766.23437.23438.11719.29297.28906.23047.11719.7578.35156.35157.17188.23047.05859.29297.11719.23437.0586.8711.17577h.8164l.46875.23047.17188.0586.875.69921.46484.1172.29297.05858.17578.0586.23047.0586.46875.05859.34766.05859.35156.0586.40625.05859h.29297l.17187.0586v.23046l.17578.17578h.29297l.34766.0586.35156.05859.69922.11719h.64063l.46484-.23438.29297-.17578.17187-.11719.41016-.17187.28906-.17578.9336-.46485.46875-.29297.52343-.29296.46485-.17188.46484-.17578 1.05078-.46485.28906-.11718.41016-.11719.28906-.11719.52735-.17578 1.51562-.69922.58203-.34765.28907-.0586.29297-.0586.34765-.11718.875-.23047.35156-.11719h.11329l.23437-.05859.875-.23437.23438-.0586h.8125l.35156-.0586.8164-.11718.17188-.0586.35156-.05468.29297-.0586.23047-.05859.8164-.17578.17579-.0586h.34765l.23438-.05859.46484-.11718.75781-.17188.23438-.0586h.34765l.41016-.11718.28906-.0586 1.28516-.05859h.28906l.41016-.0586.23047-.05858h.17578l.875-.1172h.40625l.41015-.11718h.34766l.35156-.11328.8711-.0586h1.75l1.04687.28907.41016.11719.28906.11718.35156.11719.28907.11719 1.05078.17187.28906.0586h.29297l.29297.05859.17187.0586.41016.05859.17187.0586.1172.05858h.11718l.11719.0586.35156.0586h.11328l.41016.0664 1.92187.39453 1.92578.39453 1.51953.44922 1.69532.71875 2.14453.80469 1.60547-.71875 1.42968-.80469 1.16016-1.07813 1.25-.44921 3.03516-.71875 1.875-.35938 2.14453-1.34765 2.23437-1.25391 2.5-1.25781 1.69531-.44922 1.78516-.17969 1.16016-.26953.625.53906 1.33984-.26953.71485-.98828.98437-1.34375.44531-.17969.80469-.35937 1.875-.53907 1.78516-.44921 1.25-.26954 1.16015-.08984 1.69922-.08984 1.96094-.26954 1.25-.08984h.53906l.625-.08984h.89063l2.14453-.17969 2.41015-.17969 2.58985-.08984 1.69531.17969 1.60938.08984 1.42968.35938 1.16016.71875 1.875.98828 1.16015 1.52734.26563.71484.6289.08985.35548.89844.53515.53906.53516 1.52734 1.07422.35938h.53515l-.80469.53515.08985 1.70703.71484 2.69532.89063.80468.89453.98829.71484 1.2578 1.78516.53907 1.51953-.17969.35547 1.34375 1.60937-.80469.98047-.53906.26953.26953.31641-.21484.21875-.14453.80078.44922.44922-.35938h.35547l.53515-.26953.53907-.71875.53515-.26953.625-.98828 1.16016.44922.83984.3711 1.39454.61718 1.6953-.17969h1.60548l1.78515.08985.17969-1.70704.53516-1.34375.80468.26954.4922.84765.40233.40625-.08984.53906v.35938l.71485.44922.71093-.26953h1.42969l.35938.98828.4453 1.25781.71485 1.34375 1.25.6289 1.69531.62891.71485-.17969.17969-.53906.98046-.08984.44922.35937.08594 1.25782-.26563.6289-.53515.17969v.53906l.71484.98438.26563.53906.98437.98828.80078 1.07813-.26562.35937-.08985.89844-.625 2.33203-.35546 2.0664-.08985 1.79298-.17969.71875-.08984.53906v1.4375l-.98047 1.88281-.35937 1.70703-.53516.89844-.80469 1.16797-.26562.53906 2.05469 1.2539.08593.35938-.35546.53906-.08985-.17968v.80859l.08985 1.4375-.44532.71484-1.07422.09375-.26562.71485.53515.89844.8047.71875 1.16015.80859 1.33984.26953.44531.35938-.35546.44921-1.78907-.08984-1.25-.44922-.71484-.71875-.625-.08984-.17578 3.58984-.1875 1.3086h89.35937V311.70313h-55.26953v49.08203l.76172.125 3.28906.54296 2.02344 2.83594v2.7539l2.35156.33204 2.34766.33203h4.05078l-1.3789 4.16016-2.02344.70703-2.02344.70312-.54297.34375-2.59375 1.6172-.1875.11718-2.02344-2.07813-.73046-2.74218-2.67188-2.07813-1.375-3.5-.0664-.08203-1.95704-2.67188 2.75-1.41796v-49.08204H294.42187v91.41407l.1172.03125.1328.01172.07422.07421.10547.04688.08985.0586.08593.05859.08985.0586.29687.29687.0586.08984.03125.11719.02734.11719.01563.13671-.03125.1172-.0586.08983-.0586.08594-.04296.10547-.04688.10156-.02734.1211v.14453l.17578.26953.14844.14844.07422.08594.07422.07421.04296.10547.0625.08985.0586.08593.04297.10547.0586.08985.04687.10156.04296.10547.0586.08594.11719.17968.07421.07422.0625.08594.0586.08984.04297.10547.0586.08985.05858.08593.0625.08985.0586.08984.04297.10156.11719.17969.07421.07422.0586.08594.07422.07421.08984.0586.10547.04687h.14844l.1328-.01562.13282.01562.10156-.04687.07422-.07422.04688-.10156-.01563-.13281v-.14844l-.04687-.10547-.02735-.11719-.04687-.10156-.02735-.1211-.04296-.10156-.0625-.08984-.04297-.10156-.04297-.10547-.03125-.11719-.01563-.13281-.01171-.13672.08593-.0586.0586-.08593.12109-.03125.04297.10547.01562.1328v.1172l.0586.10156.0586.08984.08983.0586.14844.14843.0586.08985.04296.10547-.01171.10156.08593.0586.10547.04687.08594.0586.08984.05858.07422.07422-.11719.02735-.10546.04687-.08594.0586-.07422.07421-.0586.08985-.0625.08594-.02734.12109-.04687.10156-.04297.10547-.03125.11719-.01172.13281-.01563.13281v.14844l.02735.11719.04687.10547.04297.10156.0586.08984.07421.07422.08985.0586.07422.07421.08984.0586.0586.08984.04296.10547.04688.10156.11719.03125.1328.01563h.14845l.11718-.03125.10547.04297.04297.10547.04688.10156.02734.1211L299.5 410l.02734.11719.03125.1211.02735.11718.10547.04297.10156.04687.13281-.01562.14844.14844.0625.08593.07422.07422.07031.07422.08984.0625.10547.04297.10156.04297.1172.03125.13671.01562.11719-.03125.07422-.07422.02734-.11718-.01172-.13282-.03125-.12109-.02734-.11719.04297-.10547h.11719l.08984.0625.11719.02735h.14843l.13282.01562h.14843l.13282.01563.1328-.01563h.14845l.1328-.01562.13282-.01172.13672.01172.11719-.02735.13281-.01562.1914-.0586-.05859.17579-.01562.1328-.02735.1211-.01562.13281-.0586.08594-.1328.01563-.10548.04687-.10546.04297-.1172.03125-.11718.02735-.26563.03125h-.14843l-.13281.01562-.07422.07422.05859.08594.14844.14843.11719.1797.07421.0703.08985.0625.08984.0586.08594.0586.08984.05858.10156.04297.10547.0625.10547.04297.08594.0586.10547.04687.10156.04297.17969.11719.0586.08984-.04298.10156-.04687.10547.01562.13281.22266.22266.0586.08985.04296.10156.03125.1211.04297.10155.01563.13282.03125.11718.01171.13672.03125.11719.14844.14844.10156.04297.10547.04296.1172.03125.1328.01563.13672.01563h.11719l.11719-.03125.08984-.0586.04297-.10547.04688-.10156.04296-.10547.03125-.11719.01172-.1328v-.14845l-.01172-.1328-.01562-.13282-.03125-.11719-.04297-.10547-.04688-.10547-.04296-.10156-.04297-.10547-.01563-.13281.01563-.13281.02734-.11719.03125-.11719.02735-.1211.04687-.10155.08984-.0586.08594-.0625.07422-.07422.08984-.05859.22266-.22266.0586-.08593.07421-.07422.11719-.17969.0586-.08594v-.14844l-.07423-.07421-.10156-.04688-.10547-.04297-.10156-.04297-.0586-.08984-.04687-.10547-.02734-.11719.08984-.05859.11719-.03125.10156-.04297.17969-.11719.14844-.14843.01172-.13282-.01172-.10546-.08985-.0586-.1328.01563h-.14845l-.1328.01562-.13282-.01562-.1211-.03125-.08593-.0586-.07422-.07422-.0586-.08984-.0625-.08594-.11718-.17969-.0586-.08593.03125-.1211.08594-.05859.1211-.03125.05859-.08594v-.1211l-.03125-.11718-.0586-.08984-.05859-.08594-.04687-.10547-.02735-.11719-.01562-.1328.0586-.08985.07421-.07422.08984-.0586.1172-.17968.07421-.07422.0586-.08594.14843-.14844.1211-.03125.1328-.01562.13282.01562.07422.07422.04297.10547.01562.13281-.03125.1172-.11719.03124-.1328.01172-.14844.14844-.04297.10547-.04688.10156-.02734.1211-.03125.11718v.14844l.03125.11719.04297.10546.05859.08985.07422.07031.07422.07422.11719.03125.12109.02734.11719-.02734.1328-.01563h.1172l.08984.0586.07422.07422.04687.10546.0586.08594.10156.04688.13281.01562.10547.04297.08594.0586-.01172.10546-.07422.07422-.17969.11719-.05859.08984-.08984.0586-.07032.07422-.07421.07421-.0625.08985-.02735.11719-.01562.1328.01562.13282-.01562.13281v.14844l.01562.13281.02735.1172.03125.12108.07421.07422.08985.0586.08594.0586.08984.05858.11719.03125v.08594l-.10157.04688-.08984.0586-.26563.03124-.11718.02735h-.14844l-.10547.04296-.10156.04688-.0586.08984-.0625.23438-.01171.13281-.03125.1211-.01563.1328v.29298l-.01172.1328.01172.13673.01563.1328.1328.01563.13282.01172.1211.03125.08593.0586.07422.07421.04688.10547.04296.10157.01563.1328v.44532l-.01563.13281v.44532l.03125.26562.02735.11719.01562.13281.03125.11719.08594.21094.03125.26562v.14844l-.03125.11719-.02734.11718-.03125.1211-.02735.11719-.03125.11718-.03125.1211-.01171.1328-.01563.13282.08984.0586.1172-.03125.10155.01562.04688.10547-.03125.26562v.44141l-.04297.10547-.04688.10547-.04296.10156-.04297.10547-.0586.08594-.03125.12109-.04296.11719-.03125.11719-.01563.1328.01563.13282.05859.08984.10547.04688.08594.0586.05859.08593-.01172.13672-.03125.11719-.04297.10156v.44531l-.01562.13281v.14844l-.03125.11719-.04297.10547-.02735.11719-.04687.10546-.04297.10157-.03125.12109-.02734.11719-.03125.13281-.03125.11719-.02735.11719-.04297.10546-.03125.1172-.03125.12108-.01171.13282-.01563.13281v.29688l.02734.11718v.14844l.04688.39844.02734.11719.0586.08984.12109.03125h.14844l.13281-.01563.0586.08985v.11719l-.0586.08984-.08984.0586-.10157.04296-.10546.04688-.08985.05859-.08594.0586-.13671.01562-.1172-.03125-.1328-.01563-.10157.04688-.0625.08594-.01172.13671-.01562.13282-.03125.11719-.02735.11718-.01562.13281-.03125.1211v.29687l.01563.13282.03125.11718v.14844l.01171.13281v.14844l-.02734.11719-.04688.10156-.02734.1211-.03125.11718-.0586.08985-.07421.07421-.10156.04297-.10547.04688-.11719.02734-.1211.03125-.10156-.04687.0586-.08594.10547-.04688.02734-.11718.03125-.11719.02734-.1211.03125-.11718v-.14844l.01563-.13281-.03125-.11719-.04297-.10547-.10547.01563-.07422.07422-.10156.04296-.08984.0625-.07422.07422-.04297.10157-.01563.1328-.03125.1172L304.25 426l-.03125.11719-.02734.11719-.03125.12109-.02735.11719-.03125.11718-.04297.10547-.08984.0586h-.08984l-.1172-.03125-.03124-.08594.01562-.13672-.03125-.11719v-.14844l-.01171-.1328v-.14844l-.0625-.23438-.02735-.1211-.04297-.10156-.04687-.10546-.0586-.08594-.05859-.08985-.04297-.10546-.0625-.08594-.14844-.14844-.0703-.07422-.10548-.04687-.10547-.04297-.10156-.04297-.29687-.29688-.08985-.07421-.08594-.0586-.10546-.04297-.08985-.0625-.08594-.0586-.10546-.04296-.08985-.0586-.08594-.0625-.07421-.0703-.10547-.04688-.08594-.0586-.10547-.04296-.08984-.0625-.10156-.04297-.10547-.04297-.08594-.0586-.10547-.04687-.10547-.04297-.10156-.04687-.08985-.0586-.10156-.04297-.10547-.04296-.08984-.0625-.11719-.02735-.13281-.01562-.13281.01562H299.75l-.13281.01563-.11719-.03125-.08984-.0586-.07422-.07422-.08985-.05859-.10156-.04688h-.14844l-.12109-.02734-.10156-.04297-.07422-.07422-.11719-.17968-.08984-.0586-.10156-.04297-.08985-.0625-.10547-.04296-.08984-.0586-.08594-.0586-.10547-.04687-.0586-.08594-.05858-.08984-.04297-.10547-.04688-.10156-.07422-.07422-.08594-.0586-.07421-.07421-.08985-.0586-.22265-.22265-.04297-.10547-.03125-.26563.10547-.04296h.14453l.10547.04296.07421.07422.08985.0586.08594.0586.10546.04687.08985.05859.14844.14844.0703.07422.14845.14843.0625.08594.07421.07422.08594.0586.07422.07421.08985.0625.08984.0586.08594.05859.26953.17578.10156.04688.10547.04296.10156.04297.04688-.07421.05859-.08594.07422-.07422.07031-.07422.10547.04297.07422.07422.0586.08984.04296.10156.04688.10547.04296.10547.1211.02735.11719-.02735.07421-.08984.04297-.10547.0586-.08985.07422-.07421.10546-.04297.1172-.02735.1328.01172.08985.0586.14844.14843.05859.08985.04297.10547.04687.10156.04297.10547.04297.10156.10547.04688.10547.04296.13281.01563.08594-.0586.0586-.08984.07421-.07422.10547-.04297.11719.02735.10547.04687.10156.04297.10547.04297.10156.04688.17969.11718v.11719l-.01563.13281.01563.13281.01562.13672.0586.08594.10156.04688.1211.02734.11718.03125h.14844l.11719-.03125.05859-.08984.17969-.1172.05859-.08983.07422-.07422.0586-.08594.11718-.17969.17969-.11719.11719.03125.08984.0586.04297.07422-.01563.1328v.1172l.08985.05859h.14843l.13282-.01563.1328-.01171.26563-.03125.10547-.04297.11719-.03125.1211-.02735.07421-.07421.07031-.07422.0625-.08985-.01562-.10547-.04688-.10156-.10156-.04297-.10547-.01562-.11718.02734-.26563.03125h-.14844l-.07421-.07422-.08985-.0586-.11719-.03124-.11718-.02735-.13282-.01562h-.14843l-.13282.01563h-.29687l-.10547-.04688-.14844-.14844-.04297-.10156-.05859-.08984.22266-.22266.08593-.0586.10547-.04296.11719-.03125.13281-.01563.13281.01563.13672.01562.10157.04297.1328-.01172.08985-.0625.10156-.04297.0625-.08984-.04687-.10156-.08984-.0586-.1172-.03125-.10155-.04296-.0586-.08985-.0625-.08984v-.11719l.01563-.13281.10547-.04688.07421-.07031v-.1211l-.08984-.05859-.03125-.11719.08985-.05859.07421-.07422.04297-.10547.0586-.08984.04687-.10156.01563-.13281v-.14844l-.04688-.10547-.04297-.10156-.08984-.0586-.13281-.01562-.10157-.04297-.13671-.01563-.1172-.03125h-.4453l-.13282-.01562-.13281-.01172-.13281-.01563-.11719-.03125h-.14844l-.13281-.01562-.13281-.01172-.26563-.03125-.1211-.04297-.08593-.0586-.07422-.07421v-.14844l.01172-.13281.10547-.04688.10156-.04296.13281-.01563h.15235l.13281-.01562h.29297l.1211.03125.10156.04296.08984.0586.23438.0625.12109-.04688.08984-.05859.10156-.04297.13282-.01562.10547.04296.10156.04688.13281.01172.1211-.02735h.14453l.12109-.03125.11719-.02734.10547-.04687.07421-.07422.08594-.0586.14844-.14843.0586-.08594.04687-.10547.02734-.11719.01563-.10547-.10156-.04296-.08985-.0586-.11719-.03125-.10546-.04297-.08985-.0625-.07422-.08594-.07422-.07421-.10156-.04297-.10547-.04688-.10156-.04297-.0586-.08984-.04687-.10156-.08594-.21094-.0625-.08594-.05859-.08984-.07422-.07422-.08594-.0586h-.26953l-.11719.03126-.08984.05859-.10156.04297-.13281.01562-.10547-.01562-.02735-.11719-.0625-.08984-.11718-.03125-.10157-.04297-.14843-.14844-.03125-.11719-.01563-.10546.07422-.07422.17969-.1172.11719-.02733.11718-.03125.13672.01562.10156.04297.10547.04297.10156.04687.10547.04297.1172.03125.1328.01563.1172.02734.1328.01563.10547-.01563.08985-.0586-.07422-.07421-.10547-.04297-.07422-.07422-.07422-.08984-.14844-.14844-.08593-.0586-.08985-.05859-.07422-.07422-.08984-.0586-.10156-.04687-.1211-.02734-.10156-.04688-.10547-.04296-.11719-.03125-.10156-.04297-.1211-.03125h-.14843l-.11719.03125-.10546.04297-.08594.0625-.17969.11718-.08594.0586-.08984.0586-.10547.04687-.08594.05859-.10547.04297-.10156.04297-.10547.04687-.07422.07422-.05859.08985-.0586.08593-.04687.10547-.0586.08594-.07421.07422-.13281-.01172-.1172-.03125h-.11718l-.07422.07422-.08984.0586-.07422.07421-.08984.0586-.08594.05859-.10547.04687-.10156.04297-.13672.01563-.10156-.04297-.14844-.14844-.10547-.04688h-.08594l-.10547.04688-.10156.04297-.1211.03125-.11718-.03125-.07422-.07422v-.11719l.03125-.1211.07422-.0703.0586-.08985.07421-.07422.11719-.03125.10547-.04296h.29297l.13281-.01563.13672-.01563.10156-.04296.08985-.0586.10156-.04687.08984-.0586.13281-.01171.08985.05859.13281.01172.08984-.0586.08594-.05859.10547-.04297.08984-.0586.08594-.0625.08985-.05859.14843-.14843.0586-.08594.05859-.08985.10547-.04296.13281-.01563.11719.02735.1211.03125.05859-.0586.05859-.08984.03125-.26563.02734-.11719.10547.01172.13281.01563.10157-.04297.08984-.0586.0586-.08984.07421-.07422.0586-.08984.04687-.10156.01172-.13281-.01172-.13282-.04687-.10547-.14844-.14843-.0586-.08985-.05859-.08594-.04297-.10546v-.44532l.01563-.1328v-.14845l.01172-.1328-.0586-.0586-.08984.0586-.10156-.04298-.17969-.11719-.08594-.05859-.0625-.08984-.0586-.08985-.07421-.07421-.08594-.0586-.1211.03125-.10155.01172-.10547.04688-.08594.05859-.10547.04297-.14844.14844-.08984.05859-.08594.0586-.08984.0625-.10547.04296-.13281.01563v-.1211l.10547-.04297.11718-.03125.07422-.0703.04297-.10548v-.14844l-.02734-.11718-.14844-.14844-.13281-.01563h-.14844l-.11719.03125-.10547.04297-.10156.04297-.08984.0625-.11719.02735-.07422-.07422.01172-.13281-.04297-.10157-.04297-.10547-.08984-.05859-.11719.02734-.1211.03125-.11718.03125-.10156.04297-.1211.03125-.10156.04297-.10547.04297-.08984.0586-.10156.01562v-.11719l.01562-.13281-.0586-.08985-.07421.04297-.14844.14844-.0586.08985-.07421.07421-.04688.10547-.04296.10156-.07422.07422-.0586.08985-.07422.07422-.05859.08593-.07422.07422-.08984.0625-.07422.07031-.07422.07422-.10156.01563-.13281.01562-.10547-.04296v-.1211l.14843-.14844.04297-.10156.0586-.08984.04687-.10156.04297-.10547.0586-.08985.03124-.11719.04297-.10156.03125-.1211.02735-.11718.04687-.10547.04297-.10156.04297-.10547.07422-.07031.08984-.0625.08985-.0586.10156-.04296h.29687l.26563-.03125.10547-.04297-.07422-.07422-.11719-.03125-.10547-.04297-.08984-.0586-.10156-.04687-.08985-.0586-.10156-.04296-.10547-.04297-.08984-.0625-.08594-.0586-.10547-.04296-.10156-.04297-.1211-.03125-.11718-.03125-.10157-.04297L297.5 410.25l-.10156-.04297-.08985-.0586-.04296-.10546-.01563-.13281.10156-.04297.13281-.01563.13672.01563.13282-.01563.10156-.04297.0586-.08984.01562-.10547-.08985-.0586-.07421-.07421-.10157-.04297-.08984-.0586-.14844-.14843-.04297-.10547-.01562-.13281v-.29297l-.0586-.08985-.08984-.05859-.07422-.07422-.04297-.10547-.03125-.11718-.0586-.08985-.07421-.07422-.11719-.02734-.07422-.07422-.08984-.0586-.08984-.0625-.08594-.05859-.07422-.07421-.0586-.08594-.04687-.10547-.08594-.0586-.14843-.14843-.19532-.0586-.1328.01563-.10157.04297-.07422.07422-.04688.10156-.04296.10547-.0586.08984-.0586.08594-.29687.29687-.08984.0586h-.08594l-.0625-.08594-.04297-.10547.03125-.11719.0586-.08984.02734-.11719-.01172-.13281-.08984-.0625-.10547.04688-.11719.02734-.11719.03125-.26953.17578-.10156.04688-.11719.02734-.10546.04687-.08985.0586-.10156.04297-.0586-.08594-.04687-.10547.01563-.13281.04687-.10547.07031-.07422.07422-.07031.0586-.08985v-.14843l-.04297-.10547h-.23829l-.10156.04687-.03125.11719-.02734.11719-.03125.1211-.07422.04296-.13281.01563-.07422-.04688-.04297-.10156-.04297-.10547-.04687-.10156-.04297-.10547-.1211.03125-.10156.04297-.13281.01562-.11719.03125-.10547.04297-.08984.0586-.10156.04687-.1211.02734-.13281.01563-.10156-.04297-.0586-.08985-.04687-.10546-.04297-.10157-.04297-.10546v-.1172l.0586-.08984.08593-.05859.17969-.11719.10156-.04687.10547-.04297.10547-.0586.10156-.04296.08985-.0625.10156-.04297.10547-.0586.10156-.04687.08984-.0586.10547-.04296.10156-.04297.08985-.0625.10156-.04297.13672-.01563.11719.03125.10156.04297.1211.03125.10156.04297.10546.04688.10157.04296.10547.04297.10156.04688.10547.04297.10156.04297.10547.04687.08594.0586.10546.04296.1172.03125.10546.04297.10156.04688.08985.0586.10547.04296.10156.04297.10547.04687.11719.02735.10156.04687.1211.02735h.14843l.08594-.0586.01562-.10156.0586-.08984-.02735-.1172-.07422-.07421-.11719-.17969-.07421-.07422-.08985-.07421-.17969-.1172-.08593-.05859-.10547-.04296-.10156-.04688-.26954-.17578-.05859-.08985-.07422-.07421-.0586-.08985-.04296-.10156-.03125-.11719-.01563-.13672v-.5625l-.01171-.1328-.01563-.13282-.03125-.11719-.01562-.13281-.01172-.13281-.03125-.1211-.22266-.22265-.0586-.08594-.01562-.10547.03125-.11719.13281-.01562v-91.41406H172.9922v1.45312l-.0586.23438-.35156 1.05078-.17187.52343-.1172.34766-.17577.41016-.11719.17187-.23438.29297-.23046.0586h-.35157l-.11718.05859-.23047.40625v.29297l.11719.17578.23046.23047.1172.23437.64062.75781.29297.46485.17578.23437.23047.35156.23437.34766.64063.8164.17578.46485.17187.41016.11719.69531.17578.46875.11719 1.39844.0586.46484v.875l.11718 1.04688v4.78125l-.0586.46484-.35156 1.28125-.17578.52344-.11328.41015-.35156.9297L172.93359 336l-.23437.58203-.11719.17578-.17187.34766-.17578.40625-.35157.8164-.0586.29297-.11327.29297-.11719.28906-.0586.17579-.11718.875-.0586.40625-.05859.11718-.0586.17579-.05859.17187-.23047.52734-.11718.17188v.23437l-.11719.23438-.0586.17187-.17577.58594v.28906l-.0586.17579v.29296l-.0586.11329-.05859.52734v.17187l-.05468.23438v2.6211l-.17578.8164-.1172.17578-.17577.23438-.1172.17187-.11327.23438-.58594.93359-.23047.28906-.29297.46485-.17578.23437-.28906.35156-.35156.69922-.11328.23047-.17579.41016-.17578.23046-.40625.52735-.8164.69922-.29297.17187-.28906.23438-.17579.11719-.17578.17578-.52344.40625-.52734.17578-.17187.17578-.23438.05469-.64062.17578h-.75782m12.21094 31.02344l-1.07422.44921.35938.89454 1.25-.71485.44531-.53906-.98047-.08985"/><path fill="#d3d3d3" fill-opacity="0" fill-rule="evenodd" d="M201.50781 416.59766h-.89453l.44922.6289.98047.35938.80469-.08985.4453-.98828-.17577.08985-.71485-.35547-.89453.35547m154.6211 59.0703l-.0586-.52343v-.29297l.11328-.29297.0586-.23046.46875-.46875h.11328l.11719-.11329.11718-.05859h.17579l.23437-.0586h.34766l.23437.0586.11719.0586.23047.17187.0586.17578.11718.58203v.29297l-.11719.17578-.17187.28906-.17579.17579-.52734.52343-.23047.23438-.11719.0586h-.17578l-.11718-.0586-.40625-.29297-.17579-.11719-.11718-.0586-.0586-.11327-.05468-.1172m6.64062-10.95702l-.0586-.17188v-1.10937l.0586-.17188.17578-.0586.17188-.05858h.17578l.23437-.0586.1172.0586.05858.69921-.05859.17188-.11719.17578-.11718.0586-.23438.52343-.11328.0586h-.23438l-.05859-.1172m9.61328-14.39062l-.11719-.17578v-.69922l.29297-.875.1172-.17187.17577-.35156.11328-.23047.1172-.29297.35155-.75781.1172-.23047.17187-.23438h.17578l.11719-.0586h.64062l.11719.0586.23437.23438.17188.11328.35156.29297.11719.11718.11328.17579v.11328l.11719.05859.11718.11719v.69922l-.05859.17578v.23047l-.0586.17578-.34765 1.05078-.11719.23047-.11719.23437-.11718.0586-.23047.23437-.64063.28906h-.875l-.41015-.11718-.64063-.46485"/><path fill="none" stroke="#bebebe" stroke-linecap="round" stroke-linejoin="round" stroke-miterlimit="10" stroke-width=".5" d="M467.95703 311.69531H144.02734v168.625h323.9297v-168.625"/><g clip-path="url(#a)"><path fill="#fff" fill-opacity="0" fill-rule="evenodd" d="M144 475.89063v4.4375h.0039H144V311.67188h.0039H144v164.21875"/></g><g clip-path="url(#b)"><path fill="#fff" fill-opacity="0" fill-rule="evenodd" d="M144.0039 480.32813V311.67188h17.75v141.46484l-.28515.5625-3.3086 4.4375.23048 4.4375 3.36328 3.3086 4.4375-.3086 4.4375-.94531 4.4375-.3125 4.4414 1.26953 4.10156-3.01172.33594-.45313 4.4375-2.07421 2.64063-1.91016-2.64063-2.22266-4.4375-1.82031-4.4375.39844-4.4414 1.85547-3.3672 1.78906-1.0703.66797-4.4375-.53906-.09375-.12891-3.9336-4.4375-.41015-.5625V311.67187h71.01172V435.6797l-.25391.26562.2539.2539.26563-.2539-.26563-.26562V311.67188H467.9961v168.65625H144.00391"/></g><path fill="#50fcfc" fill-rule="evenodd" d="M158.39063 462.57422l-.23047-4.4375 3.30859-4.4375.28516-.5625v2.90625l-1.66407 2.09375.16407 4.4375 1.5 1.47656 4.4375-.67578 2.02734-.80078-2.02734-1.15235-2.4297-3.28515-2.0078-2.09375v-2.90625l.41015.5625 3.9336 4.4375.09375.1289 4.4375.53907 1.0703-.66797 3.3672-1.78906 4.4414-1.85547v1.70703l-2.77344 1.9375 1.3125 4.4375 1.46094.67578.91797-.67578 3.26172-4.4375-4.17969-1.9375v-1.70703l4.4375-.39844 4.4375 1.82031 2.64063 2.22266-2.64063 1.91015-4.4375 2.07422-.33594.45313-4.10156 3.01172-4.4414-1.26953-4.4375.3125-4.4375.9453-4.4375.3086-3.36328-3.3086"/><path fill="#00e8fc" fill-rule="evenodd" d="M160.2539 462.57422l-.16406-4.4375 1.66407-2.09375 2.0078 2.09375 2.4297 3.28515 2.02734 1.15235-2.02734.80078-4.4375.67578-1.5-1.47656m17.79297 0l-1.3125-4.4375 2.77343-1.9375 4.17969 1.9375-3.26172 4.4375-.91797.67578-1.46094-.67578"/><path fill="#50fcfc" fill-rule="evenodd" d="M232.76563 436.19922l-.25391-.2539.2539-.26563.26563.26562-.26563.2539"/><g clip-path="url(#c)"><path fill="#fff" fill-opacity="0" fill-rule="evenodd" d="M467.9961 480.32813H468V311.67188h-.0039H468v168.65625h-.0039"/></g><g clip-path="url(#d)"><path fill="none" stroke="#000" stroke-linecap="round" stroke-linejoin="round" stroke-miterlimit="10" stroke-width=".5" d="M147.50781 480.51563l-7.01562-.375"/></g><g clip-path="url(#e)"><path fill="none" stroke="#000" stroke-linecap="round" stroke-linejoin="round" stroke-miterlimit="10" stroke-width=".5" d="M147.50781 480.51563l1.03516 2.22265"/></g><g clip-path="url(#f)"><path fill="none" stroke="#000" stroke-linecap="round" stroke-linejoin="round" stroke-miterlimit="10" stroke-width=".5" d="M146.48828 480.46094l.51563 1.11328"/></g><g clip-path="url(#g)"><path fill="none" stroke="#000" stroke-linecap="round" stroke-linejoin="round" stroke-miterlimit="10" stroke-width=".5" d="M160.82813 480.4414l-7.02344-.22656"/></g><g clip-path="url(#h)"><path fill="none" stroke="#000" stroke-linecap="round" stroke-linejoin="round" stroke-miterlimit="10" stroke-width=".5" d="M160.82813 480.4414l1.08203 2.20313"/></g><g clip-path="url(#i)"><path fill="none" stroke="#000" stroke-linecap="round" stroke-linejoin="round" stroke-miterlimit="10" stroke-width=".5" d="M174.14063 480.46484l-7.01954-.27343"/></g><g clip-path="url(#j)"><path fill="none" stroke="#000" stroke-linecap="round" stroke-linejoin="round" stroke-miterlimit="10" stroke-width=".5" d="M174.14063 480.46484l1.0664 2.21094"/></g><g clip-path="url(#k)"><path fill="none" stroke="#000" stroke-linecap="round" stroke-linejoin="round" stroke-miterlimit="10" stroke-width=".5" d="M187.45703 480.30078l-7.02344.0586"/></g><g clip-path="url(#l)"><path fill="none" stroke="#000" stroke-linecap="round" stroke-linejoin="round" stroke-miterlimit="10" stroke-width=".5" d="M187.45703 480.30078l1.17188 2.15625"/></g><g clip-path="url(#m)"><path fill="none" stroke="#000" stroke-linecap="round" stroke-linejoin="round" stroke-miterlimit="10" stroke-width=".5" d="M186.4375 480.3086l.58203 1.07812"/></g><g clip-path="url(#n)"><path fill="none" stroke="#000" stroke-linecap="round" stroke-linejoin="round" stroke-miterlimit="10" stroke-width=".5" d="M200.77344 480.35547l-7.02735-.05469"/></g><g clip-path="url(#o)"><path fill="none" stroke="#000" stroke-linecap="round" stroke-linejoin="round" stroke-miterlimit="10" stroke-width=".5" d="M200.77344 480.35547l1.13672 2.17578"/></g><g clip-path="url(#p)"><path fill="none" stroke="#000" stroke-linecap="round" stroke-linejoin="round" stroke-miterlimit="10" stroke-width=".5" d="M199.75 480.34766l.57031 1.08984"/></g><g clip-path="url(#q)"><path fill="none" stroke="#000" stroke-linecap="round" stroke-linejoin="round" stroke-miterlimit="10" stroke-width=".5" d="M214.08984 480.3086l-7.02734.03906"/></g><g clip-path="url(#r)"><path fill="none" stroke="#000" stroke-linecap="round" stroke-linejoin="round" stroke-miterlimit="10" stroke-width=".5" d="M214.08984 480.3086l1.16407 2.16015"/></g><g clip-path="url(#s)"><path fill="none" stroke="#000" stroke-linecap="round" stroke-linejoin="round" stroke-miterlimit="10" stroke-width=".5" d="M213.0664 480.3164l.58204 1.07813"/></g><g clip-path="url(#t)"><path fill="none" stroke="#000" stroke-linecap="round" stroke-linejoin="round" stroke-miterlimit="10" stroke-width=".5" d="M227.40234 480.26172l-7.02343.13281"/></g><g clip-path="url(#u)"><path fill="none" stroke="#000" stroke-linecap="round" stroke-linejoin="round" stroke-miterlimit="10" stroke-width=".5" d="M227.40234 480.26172l1.19532 2.14453"/></g><g clip-path="url(#v)"><path fill="none" stroke="#000" stroke-linecap="round" stroke-linejoin="round" stroke-miterlimit="10" stroke-width=".5" d="M240.71484 480.1289l-7.01562.39844"/></g><g clip-path="url(#w)"><path fill="none" stroke="#000" stroke-linecap="round" stroke-linejoin="round" stroke-miterlimit="10" stroke-width=".5" d="M240.71484 480.1289l1.27344 2.09766"/></g><g clip-path="url(#x)"><path fill="none" stroke="#000" stroke-linecap="round" stroke-linejoin="round" stroke-miterlimit="10" stroke-width=".5" d="M253.9961 479.8086l-6.94923 1.03906"/></g><g clip-path="url(#y)"><path fill="none" stroke="#000" stroke-linecap="round" stroke-linejoin="round" stroke-miterlimit="10" stroke-width=".5" d="M253.9961 479.8086l1.45702 1.97265"/></g><g clip-path="url(#z)"><path fill="none" stroke="#000" stroke-linecap="round" stroke-linejoin="round" stroke-miterlimit="10" stroke-width=".5" d="M267.23047 479.42578l-6.78906 1.80469"/></g><g clip-path="url(#A)"><path fill="none" stroke="#000" stroke-linecap="round" stroke-linejoin="round" stroke-miterlimit="10" stroke-width=".5" d="M267.23047 479.42578l1.67187 1.79688"/></g><g clip-path="url(#B)"><path fill="none" stroke="#000" stroke-linecap="round" stroke-linejoin="round" stroke-miterlimit="10" stroke-width=".5" d="M280.35156 478.88281l-6.40234 2.89063"/></g><g clip-path="url(#C)"><path fill="none" stroke="#000" stroke-linecap="round" stroke-linejoin="round" stroke-miterlimit="10" stroke-width=".5" d="M280.35156 478.88281l1.9414 1.5039"/></g><g clip-path="url(#D)"><path fill="none" stroke="#000" stroke-linecap="round" stroke-linejoin="round" stroke-miterlimit="10" stroke-width=".5" d="M293.6836 478.91406l-6.4336 2.82813"/></g><g clip-path="url(#E)"><path fill="none" stroke="#000" stroke-linecap="round" stroke-linejoin="round" stroke-miterlimit="10" stroke-width=".5" d="M293.6836 478.91406l1.92577 1.52344"/></g><g clip-path="url(#F)"><path fill="none" stroke="#000" stroke-linecap="round" stroke-linejoin="round" stroke-miterlimit="10" stroke-width=".5" d="M307.0039 478.9336l-6.44921 2.78906"/></g><g clip-path="url(#G)"><path fill="none" stroke="#000" stroke-linecap="round" stroke-linejoin="round" stroke-miterlimit="10" stroke-width=".5" d="M307.0039 478.9336l1.91798 1.53124"/></g><g clip-path="url(#H)"><path fill="none" stroke="#000" stroke-linecap="round" stroke-linejoin="round" stroke-miterlimit="10" stroke-width=".5" d="M319.94922 478.27734l-5.70703 4.10157"/></g><path fill="none" stroke="#000" stroke-linecap="round" stroke-linejoin="round" stroke-miterlimit="10" stroke-width=".5" d="M319.94922 478.27734l2.19922 1.08985"/><g clip-path="url(#I)"><path fill="none" stroke="#000" stroke-linecap="round" stroke-linejoin="round" stroke-miterlimit="10" stroke-width=".5" d="M333.26172 478.27734l-5.70313 4.10157"/></g><path fill="none" stroke="#000" stroke-linecap="round" stroke-linejoin="round" stroke-miterlimit="10" stroke-width=".5" d="M332.4336 478.875l1.10156.54297"/><g clip-path="url(#J)"><path fill="none" stroke="#000" stroke-linecap="round" stroke-linejoin="round" stroke-miterlimit="10" stroke-width=".5" d="M345.55469 477.32813l-3.65625 6"/></g><path fill="none" stroke="#000" stroke-linecap="round" stroke-linejoin="round" stroke-miterlimit="10" stroke-width=".5" d="M345.02344 478.20313l1.22265.0703"/><g clip-path="url(#K)"><path fill="none" stroke="#000" stroke-linecap="round" stroke-linejoin="round" stroke-miterlimit="10" stroke-width=".5" d="M358.76172 477.26563l-3.4414 6.1289"/></g><path fill="none" stroke="#000" stroke-linecap="round" stroke-linejoin="round" stroke-miterlimit="10" stroke-width=".5" d="M358.26172 478.15625l1.22656.02734"/><g clip-path="url(#L)"><path fill="none" stroke="#000" stroke-linecap="round" stroke-linejoin="round" stroke-miterlimit="10" stroke-width=".5" d="M371.36328 476.96094l-2.01562 6.73437"/></g><path fill="none" stroke="#000" stroke-linecap="round" stroke-linejoin="round" stroke-miterlimit="10" stroke-width=".5" d="M371.07031 477.9414l1.20313-.24218"/><g clip-path="url(#M)"><path fill="none" stroke="#000" stroke-linecap="round" stroke-linejoin="round" stroke-miterlimit="10" stroke-width=".5" d="M385.3086 477.21875l-3.27344 6.21875"/></g><g clip-path="url(#N)"><path fill="none" stroke="#000" stroke-linecap="round" stroke-linejoin="round" stroke-miterlimit="10" stroke-width=".5" d="M398.34766 477.08984l-2.72266 6.48047"/></g><path fill="none" stroke="#000" stroke-linecap="round" stroke-linejoin="round" stroke-miterlimit="10" stroke-width=".5" d="M397.94922 478.03125l1.22265-.10938"/><g clip-path="url(#O)"><path fill="none" stroke="#000" stroke-linecap="round" stroke-linejoin="round" stroke-miterlimit="10" stroke-width=".5" d="M411.95703 477.23047l-3.3125 6.19531"/></g><path fill="none" stroke="#000" stroke-linecap="round" stroke-linejoin="round" stroke-miterlimit="10" stroke-width=".5" d="M411.47656 478.13281l1.22656.0039"/><g clip-path="url(#P)"><path fill="none" stroke="#000" stroke-linecap="round" stroke-linejoin="round" stroke-miterlimit="10" stroke-width=".5" d="M426.21875 477.96875l-5.20703 4.71875"/></g><path fill="none" stroke="#000" stroke-linecap="round" stroke-linejoin="round" stroke-miterlimit="10" stroke-width=".5" d="M426.21875 477.96875l2.3086.83203"/><g clip-path="url(#Q)"><path fill="none" stroke="#000" stroke-linecap="round" stroke-linejoin="round" stroke-miterlimit="10" stroke-width=".5" d="M439.59375 478.03516l-5.32422 4.58593"/></g><path fill="none" stroke="#000" stroke-linecap="round" stroke-linejoin="round" stroke-miterlimit="10" stroke-width=".5" d="M439.59375 478.03516l2.28516.89062"/><g clip-path="url(#R)"><path fill="none" stroke="#000" stroke-linecap="round" stroke-linejoin="round" stroke-miterlimit="10" stroke-width=".5" d="M452.57813 477.69922l-4.66016 5.25781"/></g><path fill="none" stroke="#000" stroke-linecap="round" stroke-linejoin="round" stroke-miterlimit="10" stroke-width=".5" d="M452.57813 477.69922l2.3828.57422"/><g clip-path="url(#S)"><path fill="none" stroke="#000" stroke-linecap="round" stroke-linejoin="round" stroke-miterlimit="10" stroke-width=".5" d="M466.4375 478.3086l-5.75 4.03906"/></g><path fill="none" stroke="#000" stroke-linecap="round" stroke-linejoin="round" stroke-miterlimit="10" stroke-width=".5" d="M465.60156 478.89844l1.09375.55469"/><g clip-path="url(#T)"><path fill="none" stroke="#000" stroke-linecap="round" stroke-linejoin="round" stroke-miterlimit="10" stroke-width=".5" d="M147.48047 467.48828l-6.96094-.94922"/></g><path fill="none" stroke="#000" stroke-linecap="round" stroke-linejoin="round" stroke-miterlimit="10" stroke-width=".5" d="M147.48047 467.48828l.85156 2.30078m12.45313-2.23047l-6.94141-1.08984m6.9414 1.08984l.80079 2.32032m-1.8086-2.47657l.39844 1.16016m13.95313-1.23047l-6.9961-.63672m6.9961.63672l.95312 2.26172m-1.97266-2.35547l.47657 1.13281m13.8711-1.20703l-7.02345-.30078m7.02344.30078l1.05469 2.21485m-2.07813-2.25782l.53125 1.10547m13.8086-1.26172l-7.02735.09766m7.02735-.09766l1.1836 2.15235m-2.20704-2.13672l.59375 1.07422m13.71094-1.53906l-6.95703.99609m6.95703-.9961L215.5 468.4961m-2.45703-1.83593l.72266.99218m13.59375-1.1875l-6.9375 1.09766m6.9375-1.09766l1.47656 1.95704m-2.48438-1.79688l.73828.98047m13.47657-1.61719l-6.72266 2.05078m6.72266-2.05078l1.73437 1.73438m-2.71094-1.4375l.8672.86718m13.1875-1.75l-6.2461 3.22266m6.2461-3.22266l2.01562 1.39844m-2.92578-.92969l1.0078.69922m13.08595-1.39843l-5.98438 3.68359m5.98438-3.6836l2.11718 1.23829m-2.98828-.70313l1.0586.6211m13.07812-1.23438l-5.88672 3.83984m5.88672-3.83984l2.14844 1.1836m-3.0039-.625l1.07421.58984m12.97656-1.3164l-5.64844 4.17577m5.64844-4.17578l2.21485 1.05469m-3.03516-.44922l1.10547.53125m13.03906-1.1289l-5.66406 4.16015m5.66406-4.16016L308.82422 466m-3.03516-.46094l1.10547.53516m12.88281-1.32813l-5.36328 4.53516m5.36328-4.53516l2.28125.91016m-3.05859-.25l1.13672.45313m12.88672-1.19532l-5.22656 4.69922m5.22656-4.69922l2.30469.84375m-3.0625-.16015l1.15234.42187m12.55078-1.46094l-4.48438 5.41016m4.48438-5.41016l2.40234.4961m10.51172-.78516l-3.6836 5.98828m3.6836-5.98828l2.44922.15625m10.01172-.53516l-1.97266 6.7461m1.97266-6.7461l2.40234-.49609m11.6211.79297l-3.39063 6.15234m2.89844-5.2578l1.22656.01952m13.30469-.38672l-4.83984 5.09766m4.83984-5.09766l2.36328.66016m-3.0664.08203l1.17968.32813m12.17578-1.56641l-3.51171 6.08984m3.51171-6.08984l2.44922.08594m-2.96094.80078l1.22657.04297m12.29297-1.08594l-2.90235 6.40234m2.90235-6.40234l2.44921-.15234m-2.87109 1.08593l1.22656-.07812m12.90625-.64453l-3.6914 5.98047m3.6914-5.98047l2.44922.15625m11.40235.25l-4.76563 5.16797m4.76563-5.16797l2.37109.6211m11.58984.18358l-6.05859 3.5586"/><g clip-path="url(#U)"><path fill="none" stroke="#000" stroke-linecap="round" stroke-linejoin="round" stroke-miterlimit="10" stroke-width=".5" d="M466.58984 465.23438l2.09375 1.28515"/></g><g clip-path="url(#V)"><path fill="none" stroke="#000" stroke-linecap="round" stroke-linejoin="round" stroke-miterlimit="10" stroke-width=".5" d="M147.4375 454.42578l-6.875-1.45312"/></g><path fill="none" stroke="#000" stroke-linecap="round" stroke-linejoin="round" stroke-miterlimit="10" stroke-width=".5" d="M147.4375 454.42578l.67969 2.35547m12.59765-2.1875l-6.79687-1.78906m6.79687 1.78906l.5625 2.38672m12.8086-2.65625l-6.91406-1.25m6.91406 1.25l.75 2.33594m12.61328-2.72657l-7.00781-.46875m7.0078.46875l1.00782 2.23828m12.3164-2.35156l-7.02343-.24219m7.02344.2422l1.07422 2.20312m12.23828-2.44531l-7.02344.24218m7.02344-.24219l1.22656 2.125m12.05469-2.5078l-6.95313 1.0078m6.95313-1.0078l1.45312 1.97656m-2.46484-1.83204l.72656.9922m13.51172-1.5547l-6.77734 1.84375m6.77734-1.84375l1.6836 1.78516m-2.66798-1.51953l.83985.89453m13.35156-1.5039l-6.5586 2.52734m6.5586-2.52735l1.85156 1.60938m-2.80859-1.24219l.92969.80469m13.16797-1.55078l-6.21094 3.28906m6.21094-3.28906l2.03125 1.375m-2.9336-.89844l1.01563.6914m12.78906-1.78124l-5.38672 4.51562m5.38672-4.51562l2.27344.92187m-3.0586-.26562l2.27735.92187m11.6875-1.73047l-5.11719 4.8164m5.11719-4.8164l2.32422.78906m-3.06641-.08593l1.16016.39453m13.12109-.83594L301 455.84766m5.5625-4.29688l2.23437 1.01172m-3.04296-.38672l1.11718.5039m13.21875-.8164l-5.98828 3.67188m5.98828-3.67188l2.1172 1.2461m-2.98829-.71094l2.11719 1.24219m12.1875-1.57032l-6.22657 3.25781m6.22657-3.2578l2.02734 1.38671m-2.9336-.91406l2.02735 1.38672m11.78516-2.47656l-5.40625 4.48828m5.40625-4.48828l2.26953.93359m-3.05469-.28125l1.13281.46875m13.29297-.65625l-6.0586 3.5625m6.0586-3.5625l2.08985 1.28125m-2.97266-.76563l1.04687.64453m13.39063-.66406l-6.53906 2.57031m6.53906-2.5703l1.86719 1.59374m-2.8164-1.21875l.92968.79688m12.90625-1.95703l-5.67969 4.14062m5.67969-4.14062l2.20703 1.0703m11.29297-.78905l-6.05078 3.57812m6.05078-3.57812l2.09375 1.27734m-2.97656-.75781l1.05078.64062m12.83984-1.59765l-5.4375 4.44922m5.4375-4.44922l2.26563.94922m-3.0547-.30079l1.12891.47266m12.70313-1.41797l-4.89063 5.04688m4.89063-5.04688l2.35547.67969m-3.0664.05469l1.17577.33984m12.78907-1.13281l-4.76954 5.16015m4.76954-5.16015l2.37109.625m-3.0664.125l1.1875.3125m12.7578-1.1211l-4.64062 5.27735m4.64063-5.27735l2.38671.56641m11.45313.01172l-5.6914 4.1211"/><g clip-path="url(#W)"><path fill="none" stroke="#000" stroke-linecap="round" stroke-linejoin="round" stroke-miterlimit="10" stroke-width=".5" d="M466.40625 451.63672l2.20313 1.08203"/></g><path fill="none" stroke="#000" stroke-linecap="round" stroke-linejoin="round" stroke-miterlimit="10" stroke-width=".5" d="M465.57813 452.23828l1.10156.53906"/><g clip-path="url(#X)"><path fill="none" stroke="#000" stroke-linecap="round" stroke-linejoin="round" stroke-miterlimit="10" stroke-width=".5" d="M147.44922 441.05469l-6.89844-1.33985"/></g><path fill="none" stroke="#000" stroke-linecap="round" stroke-linejoin="round" stroke-miterlimit="10" stroke-width=".5" d="M147.44922 441.05469l.71875 2.34375m-1.72266-2.53906l.35938 1.17187m13.92578-.82031l-6.82813-1.65625m6.82813 1.65625l.60937 2.3789m-1.60547-2.62109l.3047 1.1914m13.99218-.89452L167.23047 439.5m6.80078 1.76563l.57031 2.38671m12.83203-2.86328l-6.98047-.8086m6.98047.8086l.89844 2.28516m12.4375-2.4961l-7.01562-.39062m7.01562.39063l1.02734 2.23046m12.29297-2.41406l-7.02734-.02344m7.02734.02344l1.14453 2.17188m12.16016-2.42188l-7.00781.47656m7.00781-.47656l1.29688 2.08203m11.79687-3.09765l-6.5625 2.51171m6.5625-2.51171l1.84766 1.60937m11.33984-1.89844l-6.3125 3.08594m6.3125-3.08594l1.98828 1.44141m11.17578-1.71875l-6.0078 3.64062m6.0078-3.64062l2.10938 1.25781m-2.98438-.72656l1.0547.6289m12.82421-1.59765l-5.38672 4.51562m5.38672-4.51562l2.27344.92187m-3.0586-.26171l1.13672.45703m12.84375-1.25l-5.14453 4.78515m5.14453-4.78515l2.32031.80078m-3.0703-.10547l1.16015.40234m13.57031-.0703l-6.47656 2.72655m6.47656-2.72656l1.90234 1.55078m-2.84375-1.15234l.94922.77344m13.5586-.20704l-6.98047.80079m6.98047-.80078l1.39062 2.01953m-2.40625-1.90625l1.39063 2.02343m12.8125-2.76171l-6.72266 2.04687m6.72266-2.04688l1.73047 1.73438m-2.71094-1.4375l1.73437 1.73828m12.38282-2.49219l-6.3711 2.96485m6.3711-2.96485l1.96093 1.47657m-2.88672-1.04688l1.95704 1.47656m12.47656-1.39453l-6.7539 1.9375m6.7539-1.9375l1.70703 1.76563m11.7461-.79688h-7.02735m7.02734 0l1.15235 2.16797m-2.17578-2.16797L374 442.55078m13.16797-2.4961l-6.9961.65626m6.9961-.65625l1.35156 2.05078m-2.36719-1.95313l.67578 1.02344m13.54297-1.73047l-6.76953 1.875m6.76953-1.875l1.69141 1.78125m-2.67578-1.50781l.84375.89063m13.26562-1.6875l-6.39062 2.92187m6.39062-2.92187l1.94922 1.49218m-2.8789-1.0664l.97656.74609m13.15234-1.40234l-6.15625 3.38672m6.15625-3.38672l2.05469 1.34375m-2.94922-.85157l2.05078 1.34375m12.01172-2.07812l-5.86719 3.86719m5.8672-3.8672l2.15624 1.17579m-3.00781-.61328l2.15234 1.17578m11.79297-2.03906l-5.42187 4.46875m5.42187-4.46875l2.26953.9414m-3.0586-.28906l1.13673.46875m12.98437-1.10156l-5.45312 4.4336"/><g clip-path="url(#Y)"><path fill="none" stroke="#000" stroke-linecap="round" stroke-linejoin="round" stroke-miterlimit="10" stroke-width=".5" d="M466.28906 438.16797l2.25781.95312"/></g><path fill="none" stroke="#000" stroke-linecap="round" stroke-linejoin="round" stroke-miterlimit="10" stroke-width=".5" d="M465.4961 438.8125l1.1289.47656"/><g clip-path="url(#Z)"><path fill="none" stroke="#000" stroke-linecap="round" stroke-linejoin="round" stroke-miterlimit="10" stroke-width=".5" d="M147.42578 427.85547l-6.85156-1.57422"/></g><path fill="none" stroke="#000" stroke-linecap="round" stroke-linejoin="round" stroke-miterlimit="10" stroke-width=".5" d="M147.42578 427.85547l.63672 2.3711m12.57813-2.02345l-6.64844-2.26953m6.64844 2.26953l.38671 2.42579m-1.35547-2.75391l.19532 1.21094m14.08984-.88672l-6.65234-2.26172m6.65234 2.26172l.39453 2.42187m12.95703-2.54297l-6.72656-2.01953m6.72656 2.01953l.48047 2.40625m12.9336-2.82812l-6.92578-1.17578m6.92578 1.17578l.77343 2.32813m12.57422-2.56641l-6.99219-.69922m5.97657.59766l.46484 1.1328m13.6211-2.71874l-6.5 2.67578m5.55468-2.28516l.94531.78125m13.4961-.58984l-6.86328 1.51563m5.86328-1.29688l.79687.9336m13.3711-1.64454l-6.57031 2.4961m6.5703-2.4961l1.84766 1.61719m11.16407-2.23047l-5.96094 3.72266m5.96094-3.72266l2.125 1.22656m11.12109-1.33203l-5.82422 3.9336m5.82422-3.9336l2.16797 1.14844m11.28125-.9336l-6.09375 3.50391m6.09375-3.5039l2.07812 1.30468m-2.96484-.79297l1.03906.65235m13.36328-.75l-6.49609 2.67578m6.4961-2.67578l1.89062 1.5625m-2.83203-1.17578l.94531.78515m13.57422.03125l-7.01953.26953m7.01953-.26953l1.23437 2.1211m-2.2539-2.08203l.61718 1.0625m13.63672-1.73047l-6.85937 1.52734m6.85937-1.52734l1.59766 1.86718m-2.59375-1.64453l1.59375 1.86328m12.70312-2.15234l-6.82812 1.66016m6.82812-1.66016l1.62891 1.83594m-2.6211-1.59375l1.62891 1.83203m12.77735-1.1914l-7.02735-.10548m7.02735.10547l1.11718 2.1875m-2.14062-2.20312l1.11719 2.1875m13.21875-2.35156l-7.02344.2539m7.02344-.2539l1.23047 2.12109m-2.25391-2.08594l.61719 1.0625m13.44531-2.33594l-6.47266 2.73047m6.47266-2.73047l1.90625 1.54688m-2.84766-1.14844l.95313.77344m13.55078-.27344l-6.96484.9336m6.96484-.9336l1.42969 1.9961m-2.4414-1.85938l.71483.9961m13.51563-1.60547l-6.77344 1.8789m6.77344-1.8789l1.6875 1.78125m-2.67188-1.50782l.84375.89063m13.12891-1.95313l-6.11719 3.45703m6.1172-3.45703l2.0664 1.31641m-2.95703-.8125l2.0703 1.3164m11.91798-2.15624l-5.6836 4.1289m5.6836-4.1289l2.20703 1.07812m-3.03516-.47656l2.20703 1.07422m11.84375-1.79688l-5.5 4.3711m5.5-4.3711l2.25.98047m-3.05078-.34375l1.125.48828m13.42188-.4375l-6.35938 2.9961"/><g clip-path="url(#aa)"><path fill="none" stroke="#000" stroke-linecap="round" stroke-linejoin="round" stroke-miterlimit="10" stroke-width=".5" d="M466.74219 425.57031l1.96484 1.47266"/></g><path fill="none" stroke="#000" stroke-linecap="round" stroke-linejoin="round" stroke-miterlimit="10" stroke-width=".5" d="M465.8164 426.00781l.98048.73438"/><g clip-path="url(#ab)"><path fill="none" stroke="#000" stroke-linecap="round" stroke-linejoin="round" stroke-miterlimit="10" stroke-width=".5" d="M147.51172 413.78516l-7.02344-.0625"/></g><path fill="none" stroke="#000" stroke-linecap="round" stroke-linejoin="round" stroke-miterlimit="10" stroke-width=".5" d="M147.51172 413.78516l1.13281 2.17578m12.17188-1.91016l-7.00391-.59375m7.0039.59375l.96485 2.25781m12.33594-2.1289l-6.97656-.85156m5.96093.72656l.4414 1.14453m13.88673-.98438l-6.96875-.92187m5.95312.78906l.42969 1.14844m13.78516-2.47656l-6.73828 1.99609m5.7578-1.70312l.85938.875m13.48438-.98047l-6.83594 1.625M213 413.17578l.8086.92188m13.4453-1.35547l-6.73046 2.01953m5.7539-1.72266l.86328.8711m13.54688.3164l-6.96484-.94922m5.94922.8125l.42578 1.15235m13.92578-1.76563l-7.0039.55469m5.98437-.47266l.66015 1.03516m13.34766-2.34375l-6.35156 3.0039m5.42578-2.5664l.98437.73438m13.3086-1.0586l-6.45313 2.78125m6.45313-2.78125l1.91406 1.53125m11.1875-1.94922l-6.02735 3.61719m6.02735-3.61719l2.10156 1.26563m11.63281-.20313l-6.86718 1.48828m6.86718-1.48828l1.58594 1.875m11.8086-1.05078l-7.02735-.15625m7.02734.15625l1.10157 2.1914m-2.125-2.21484l.55078 1.09375m13.78515-1.28125l-7.02343.26563m7.02343-.26563l1.23438 2.1172m12.07031-2.3047l-7 .64063m7-.64063l1.34375 2.05079m-2.36328-1.95704l.67188 1.02344m13.67187-.95703l-7.01953.3164m7.01953-.3164l1.25 2.11328m-2.26953-2.0664l1.2461 2.11328m13.07812-2.33203l-6.9961.66406m6.9961-.66406l1.34765 2.05078m-2.36718-1.95313l1.35156 2.04688m-2.36719-1.95313l.67188 1.02735m14.63672-1.51954l-6.91407 1.26563m6.91407-1.26563l1.52343 1.92188m-2.53125-1.73828l1.52344 1.92187m-2.52734-1.73828l.76172.96094m14.49609-1.61719l-6.77734 1.84375m6.77734-1.84375l1.6836 1.78516m-2.66798-1.51953l1.6797 1.78906m12.48046-2.47266l-6.4961 2.67969m6.4961-2.67969l1.89063 1.5625m-2.83594-1.17578l1.89062 1.5664m12.33594-2.03124l-6.42969 2.83594m6.4297-2.83594l1.92577 1.51953m-2.86328-1.10547l.96484.75781m13.28907-1.16797l-6.4336 2.82813m6.4336-2.82813l1.92578 1.51954m-2.86328-1.10938l.96484.75781m13.1289-1.48437l-6.11718 3.46094m6.11719-3.46094l2.07031 1.3164m-2.96094-.8125l1.03516.66016m13.08984-1.30078l-5.95312 3.73437"/><g clip-path="url(#ac)"><path fill="none" stroke="#000" stroke-linecap="round" stroke-linejoin="round" stroke-miterlimit="10" stroke-width=".5" d="M466.53906 411.88672l2.125 1.22265"/></g><path fill="none" stroke="#000" stroke-linecap="round" stroke-linejoin="round" stroke-miterlimit="10" stroke-width=".5" d="M465.67188 412.42969l1.0625.61328"/><g clip-path="url(#ad)"><path fill="none" stroke="#000" stroke-linecap="round" stroke-linejoin="round" stroke-miterlimit="10" stroke-width=".5" d="M146.88672 398.4336l-5.77344 4.0078"/></g><path fill="none" stroke="#000" stroke-linecap="round" stroke-linejoin="round" stroke-miterlimit="10" stroke-width=".5" d="M146.88672 398.4336l2.17969 1.125m10.03515-2.14454l-3.57422 6.05078m3.0547-5.17187l1.22655.05469m14.27735 2.73437l-6.91016-1.28906m20.15234-.30078l-6.76562 1.89453m5.78125-1.6211l.84766.89063m13.5625-.60547l-6.98438.77735m6.98438-.77735l1.3828 2.02735m11.90626-1.07422l-6.9336-1.13282m5.92579.96875L213.42969 402m13.8789-.7539l-6.83984-1.61329m6.83984 1.61328l.625 2.3711m-1.61718-2.60938l.3125 1.1875m13.98437-.89844l-6.8164-1.71875m6.8164 1.71875l.58594 2.38282m-1.57813-2.63281l.29297 1.1914m14.11719-1.70703l-7.02344-.1836m7.02344.1836l1.09766 2.19531M267.3203 400l-6.97265.875m6.97265-.875l1.41407 2.00781m11.6875-2.84765l-6.54297 2.55468m6.54297-2.55468l1.86328 1.59765m11.26953-1.99219l-6.17969 3.34375m6.17969-3.34375l2.04687 1.35547m11.58985-.53125l-6.82032 1.69532m6.82032-1.69532l1.64062 1.82422m11.77735-1.01953l-7.02735.08594m7.02735-.08594l1.17968 2.15235m12.13672-2.16016l-7.02734.10156m7.02734-.10156l1.17969 2.15234m12.13281-2.20312l-7.02344.20312m7.02344-.20312l1.21485 2.13281m12.10156-1.97266l-7.02735-.11328m7.02735.11328l1.11719 2.1836m-2.14063-2.20313l.5586 1.09375m13.77343-1.3711l-7.01172.48048m7.01172-.48047l1.29688 2.08203m-2.32032-2.01172l1.30079 2.08203M386.75 398.7422l-6.15625 3.39062m6.15625-3.39062l2.05469 1.33984m-2.95313-.84765l2.05469 1.34375m12.33594-1.45704l-6.51172 2.63282m6.51172-2.63282l1.88281 1.57813m-2.82812-1.19531l.9375.78906m13.42968-.86719l-6.72656 2.02344m6.72656-2.02344l1.73047 1.74219m-2.70703-1.44531l.86328.87109m13.35156-1.39453l-6.57421 2.48047m6.57421-2.48047l1.84375 1.61719m-2.80078-1.25782l.92188.8086m13.27344-1.35938l-6.41797 2.85938m6.41797-2.85938l1.93359 1.51172m11.41406-1.4336l-6.48437 2.70313m6.48437-2.70312l1.89844 1.5586m-2.83984-1.16407l.94921.77734m13.16797-1.46875l-6.20703 3.29688"/><g clip-path="url(#ae)"><path fill="none" stroke="#000" stroke-linecap="round" stroke-linejoin="round" stroke-miterlimit="10" stroke-width=".5" d="M466.66406 398.78906l2.03516 1.375"/></g><path fill="none" stroke="#000" stroke-linecap="round" stroke-linejoin="round" stroke-miterlimit="10" stroke-width=".5" d="M465.76172 399.26953l1.01562.6875"/><g clip-path="url(#af)"><path fill="none" stroke="#000" stroke-linecap="round" stroke-linejoin="round" stroke-miterlimit="10" stroke-width=".5" d="M146.70313 384.8789l-5.40625 4.48829"/></g><path fill="none" stroke="#000" stroke-linecap="round" stroke-linejoin="round" stroke-miterlimit="10" stroke-width=".5" d="M146.70313 384.8789l2.26953.9297m-3.0547-.27735l1.13282.46484M158.92578 384l-3.22266 6.2461M158.92578 384l2.45313-.03125m-2.92188.9414l1.22656-.01562m13.94922.40235l-6.0039 3.65234m5.1289-3.1211l1.05469.625M187.34766 388l-6.8047-1.7539m6.8047 1.7539l.57812 2.38281m12.41016-1.5625l-6.15235-3.39453m6.15235 3.39453l-.03906 2.45703m13.64062-3.1328l-6.72266-2.04298m6.72266 2.04297l.47266 2.40625m-1.45313-2.70312l.47266 2.40625m13.9414-2.64063l-6.96093-.98047m6.96093.98047l.83594 2.30469m-1.85156-2.44922l.42187 1.15234m13.9375-1.66406l-7.01953.33203m7.01953-.33203l1.25391 2.10938m-2.27344-2.0625l.625 1.05468m13.67578-1.46093l-6.94922 1.05078m6.94922-1.05078l1.46094 1.97265m11.88672-1.61719l-7.01563.33985m7.01563-.33985l1.25781 2.10547m-2.27734-2.05468l.6289 1.05078m13.60938-1.76953l-6.82422 1.67578m6.82422-1.67578l1.63672 1.83203m11.66406-1.89063l-6.79297 1.79297m6.79297-1.79297l1.66797 1.80078m-2.65625-1.53906l.83203.89844m13.44922-1.23828l-6.75 1.94922m6.75-1.94922l1.70703 1.76172m-2.6875-1.48047l.85156.88281m13.57813-.34766l-7.01953.31641m7.01953-.3164l1.25 2.11327m-2.26953-2.0664l.6211 1.05469m13.67577-.40235l-6.94531-1.08203m6.94531 1.08203l.80469 2.3164m-1.8164-2.47265l.40234 1.15625m13.9375-1.10547l-6.97266-.87109m6.97266.8711l.875 2.29296m-1.88672-2.41797l.4375 1.14454m13.91797-1.4336l-7.02735-.03906m7.02735.03906l1.14062 2.17188m-2.16406-2.1797l1.14062 2.17188m13.16407-2.66015l-6.96094.94922m6.96094-.94922l1.4375 1.98828m-2.44922-1.85156l1.4336 1.99218m12.8164-2.52734l-6.80469 1.7461m6.80469-1.7461l1.65234 1.8125m-2.64062-1.5586l.82422.90626m13.51562-1.00391l-6.8789 1.4336m6.8789-1.4336l1.57031 1.88672m-2.5703-1.67969l.78515.94531m13.42187-1.55468l-6.66015 2.23828m6.66015-2.23828l1.78125 1.6875m-2.75-1.36329l.89063.84375m13.35547-1.27734l-6.58594 2.45703m6.58594-2.45703l1.83593 1.6289m-2.79687-1.26952l.91797.8125m13.28906-1.34375l-6.44922 2.80078m6.44922-2.80078l1.91797 1.53125m-2.85938-1.1211l.96094.76172m13.3164-1.11719L447 388.46875m6.49219-2.6914l1.89453 1.5625m11.51172-1.32423l-6.67188 2.21485"/><g clip-path="url(#ag)"><path fill="none" stroke="#000" stroke-linecap="round" stroke-linejoin="round" stroke-miterlimit="10" stroke-width=".5" d="M466.89844 386.01563l1.77344 1.6953"/></g><g clip-path="url(#ah)"><path fill="none" stroke="#000" stroke-linecap="round" stroke-linejoin="round" stroke-miterlimit="10" stroke-width=".5" d="M146.88281 371.80078l-5.76562 4.01563"/></g><path fill="none" stroke="#000" stroke-linecap="round" stroke-linejoin="round" stroke-miterlimit="10" stroke-width=".5" d="M146.88281 371.80078l2.1836 1.1211m-3.01953-.53516l1.08984.5586m13.17578-.97266l-5.99219 3.67187m5.99219-3.67187l2.11328 1.24609m-2.98437-.71094l1.05468.6211m13.61328 1.17187l-6.95703-.98437m6.95703.98437l.83594 2.3086m-1.84765-2.45313l.83593 2.3086m13.04297-.87891l-6.0625-3.55469m6.0625 3.55469l-.10156 2.44922m-.78125-2.96875l-.10156 2.45312m14.45312-2.23047l-6.3711-2.96094m6.3711 2.96094l.13281 2.44922m-1.05859-2.88281l.0664 1.22656m14.48048-1.875l-6.98047-.79687m6.98047.79687l.89843 2.28516m-1.91406-2.40235l.44922 1.14454m13.90234-1.41016l-7.02734-.03125m7.02734.03125l1.14453 2.17187m-2.16406-2.17578l.57031 1.08594m13.76172-1.29297l-7.01562.39063m7.01562-.39063l1.26953 2.09766m-2.29296-2.03906l.63672 1.04687m13.69921-1.09766l-7.01562.375m7.01562-.375l1.26563 2.10157m-2.28516-2.04688l.63281 1.05078m13.70313-1.07812l-7.01953.32031m7.01953-.32031l1.25 2.10937m-2.26953-2.0625l.625 1.05469m13.6914-1.33203l-6.98046.78125m6.98047-.78125l1.38671 2.02344m-2.40234-1.91016l.69531 1.01172m13.64063-1.10547l-6.98828.74219m6.98828-.74219l1.3711 2.03516m-2.39063-1.92579l.6875 1.01563m13.63672-1.1875l-6.97266.86719m6.97266-.86719l1.41406 2.00781M306.2539 373.5l1.41015 2.00781m12.9336-1.97656l-7.00391.55469m7.0039-.55469l1.32032 2.0664m-2.33984-1.98827l1.3203 2.0703m13.02345-1.7539l-7.02344-.23828m7.02344.23828L335 376.13281m-2.09766-2.23828l1.07813 2.20313m13.2539-2.08594l-7.01562-.40625m7.01563.40625l1.02343 2.23047m-2.04297-2.28906l1.02344 2.22656m13.3125-2.5586l-7.01953.375m7.01953-.375l1.26563 2.10157m-2.28907-2.04688l1.26563 2.10156m13.05078-2.39453l-6.97656.85156m6.97656-.85156l1.40625 2.01172m-2.42187-1.88672l1.40625 2.01172m12.875-2.4336l-6.875 1.44532m6.875-1.44531l1.57421 1.88281m-2.57421-1.67188l1.57421 1.88282m12.75782-2.01172l-6.91016 1.28125m6.91016-1.28125l1.52734 1.92187m-2.53125-1.73437l1.52734 1.91797m12.73047-2.36719l-6.78906 1.80469m6.78906-1.80469l1.67188 1.79688m-2.66016-1.53516l.83594.89844m13.57031-.60547l-6.99219.69531m6.9922-.69531l1.35937 2.04297m-2.37891-1.94141l.6836 1.01953m13.58984-1.51953l-6.8711 1.48828m6.8711-1.48828l1.58203 1.875m-2.58203-1.65625l.79297.9375m12.90625-2.5039l-5.64063 4.1875m5.64063-4.1875l2.21875 1.05077m11.35547-.64843L460.48047 375.5"/><g clip-path="url(#ai)"><path fill="none" stroke="#000" stroke-linecap="round" stroke-linejoin="round" stroke-miterlimit="10" stroke-width=".5" d="M466.64063 372.11719l2.05468 1.34375"/></g><g clip-path="url(#aj)"><path fill="none" stroke="#000" stroke-linecap="round" stroke-linejoin="round" stroke-miterlimit="10" stroke-width=".5" d="M147.10547 358.85156l-6.21094 3.28125"/></g><path fill="none" stroke="#000" stroke-linecap="round" stroke-linejoin="round" stroke-miterlimit="10" stroke-width=".5" d="M147.10547 358.85156l2.03125 1.3789m11.58984-.58202l-6.82031 1.6914m6.82031-1.6914l1.63672 1.82422m-2.6289-1.57813l.8203.91016m13.51563.41015l-6.8789-1.4453m6.8789 1.4453l.67969 2.35938m-1.6836-2.57031l.6836 2.35937m13.15625-.98047l-5.92188-3.78125m5.92188 3.78125l-.19531 2.44531m-.66406-2.99609l-.19532 2.44922m14.65235-2.4375l-6.48828-2.70313m6.48828 2.70313l.23047 2.4414m-1.17579-2.83593l.23047 2.44531m14.30078-3.33203l-7.02734-.13672m7.02734.13672l1.10938 2.1875m-2.13281-2.20703l.55468 1.09375m13.78125-1.03125l-7.02343-.22656m7.02343.22656l1.08203 2.20312m-2.10546-2.23437l1.08203 2.20312m13.25781-2.26171l-7.02734-.04688m7.02734.04688l1.13672 2.17578m-2.16016-2.1836l.57031 1.08985m13.76563-1.01954l-7.02344-.17187m7.02344.17188l1.10156 2.1953m-2.1211-2.21874l.54688 1.09765m13.78516-1.37109l-7.01563.42188m7.01563-.42188l1.27734 2.09375m-2.30078-2.03125l.64063 1.04688m13.70312-.89844h-7.02734m7.02734 0l1.15235 2.16797m-2.17579-2.16797l.57813 1.08594m13.75781-1.16016l-7.02344.15234m7.02344-.15234l1.19922 2.14062m-2.21875-2.12109l.59766 1.07031m13.73828-1.03906l-7.02735.04688m7.02735-.04688l1.16797 2.16016m-2.1875-2.15235l.58203 1.07813m13.7539-1.08203l-7.02734.04296m7.02734-.04296l1.16407 2.15625m-2.1875-2.15235l.58203 1.08203m13.7461-1.33593l-7.00782.54296m7.00781-.54296l1.3164 2.0703m-2.33593-1.99218l.65625 1.03516m13.67969-1.07031l-7.01172.45703m7.01172-.45704l1.29297 2.08594m-2.3125-2.01953l1.28906 2.08594m12.99219-2.58594l-6.90235 1.32422m6.90235-1.32422l1.53906 1.91016m-2.54297-1.71875l1.53906 1.91015m12.81641-1.875l-6.97266.8672m6.97266-.8672l1.41016 2.01172m-2.42579-1.88281l1.41016 2.00781m-2.42578-1.88281l.70703 1.0039m14.55469-1.6914l-6.8086 1.73828m6.8086-1.73828l1.65234 1.8125m-2.64062-1.5586l1.65234 1.8125m-2.64453-1.5625l.82812.91016m14.51563-1.21484l-6.90234 1.33594m6.90234-1.33594l1.53906 1.91015m-2.54297-1.71484l1.54297 1.91016m-2.54687-1.71485l.76953.95313m14.57031-1.2461l-6.9336 1.14454m6.9336-1.14454l1.48828 1.94922m-2.5-1.78515l1.49219 1.94922m12.83594-2.09766l-6.9375 1.11328m6.9375-1.11328l1.48047 1.95313m-2.4922-1.79297l1.48438 1.95703m12.83985-2.14063l-6.9336 1.16016m6.9336-1.16016l1.49218 1.94531m-2.5039-1.77734l1.4961 1.94531m12.4453-3.22265l-6.16406 3.375m6.16406-3.375l2.05079 1.34765m-2.94532-.85546l1.02344.67187m12.92188-1.57813l-5.63282 4.20313"/><g clip-path="url(#ak)"><path fill="none" stroke="#000" stroke-linecap="round" stroke-linejoin="round" stroke-miterlimit="10" stroke-width=".5" d="M466.3789 358.39063l2.21876 1.04687"/></g><g clip-path="url(#al)"><path fill="none" stroke="#000" stroke-linecap="round" stroke-linejoin="round" stroke-miterlimit="10" stroke-width=".5" d="M147.34766 346.10938l-6.69532 2.14062"/></g><path fill="none" stroke="#000" stroke-linecap="round" stroke-linejoin="round" stroke-miterlimit="10" stroke-width=".5" d="M147.34766 346.10938l1.7578 1.71093m11.59767-1.57422l-6.77735 1.86329m6.77734-1.86329l1.6836 1.78516m-2.66797-1.51172l.83984.89063m13.40625.8789l-6.66797-2.22265m6.66797 2.22265l.40625 2.42188m-1.3789-2.74219l.40625 2.41797m13.47656-1.27344l-5.86328-3.8711m5.86328 3.8711l-.23047 2.44531m-.6211-3.0078l-.23437 2.4414m14.84766-2.84375l-6.7539-1.9414m6.7539 1.9414l.50781 2.40234m-1.49219-2.6836l.50782 2.40235m13.92187-2.85547l-7.01172-.47265m7.01172.47265l1.0039 2.23828m-2.02343-2.30468l1 2.23828m13.33984-2.48047l-7.02343.14844m7.02343-.14844l1.19922 2.14062m-2.21875-2.12109l1.19531 2.14063m13.12891-1.82032l-7.0039-.53515m7.0039.53515l.98438 2.25m-2.00391-2.32812l.49219 1.125m13.83203-.9336l-6.98438-.7578m6.98438.7578l.91406 2.27735m-1.92969-2.39063l.45703 1.14063m13.88282-1.10547l-7-.60547m7 .60547l.96094 2.25781m-1.98047-2.34765l.48047 1.1289m13.85937-1.125l-7.01172-.4336m7.01172.4336l1.01563 2.23438m-2.03516-2.29688l.50781 1.11719m13.8164-.91406l-6.99218-.71485m6.99219.71485l.92578 2.27343m-1.9414-2.375l.46093 1.13672m13.84766-.85156l-6.94532-1.08203m6.94532 1.08203l.80468 2.32031m-1.8164-2.47656l.80468 2.3164m13.5625-2.59765l-7.02734-.20703m7.02734.20703l1.08594 2.19922m-2.10937-2.23047l1.08593 2.20313m13.25-2.40235l-7.02343.2539m7.02343-.2539l1.23047 2.1211m-2.25-2.08594l1.22657 2.125m13.10546-2.21485l-7.01562.36329m7.01562-.36329l1.26172 2.10547m-2.28125-2.05078l1.26172 2.10156m13.07031-1.76953l-7.01171-.41015m7.01171.41015l1.02735 2.23047m-2.04688-2.28906l1.02344 2.23047m-2.04297-2.28906l.51172 1.11328m14.84375-1.4297l-7.01172.45704m7.01172-.45703l1.28906 2.08594m-2.30859-2.01954l1.28906 2.08594m-2.3125-2.01953l.64844 1.04297m14.67969-1.46094l-6.95313 1.03125m6.95313-1.03125l1.45703 1.97266m-2.46875-1.82422l1.45703 1.97266m-2.46875-1.82422l.72656.98828m14.53906-1.64063l-6.80859 1.7422m6.8086-1.7422l1.65234 1.8125m-2.64453-1.55859l1.65234 1.8125m-2.64062-1.5625l.82421.91016m14.47266-1.41016l-6.8125 1.73047m6.8125-1.73047l1.64844 1.8164m-2.64063-1.5625l1.65235 1.81641m-2.64063-1.5664l1.64844 1.8164m13.60937-2.44922l-6.73828 1.98829m6.73828-1.98829l1.71875 1.75391m-2.69921-1.46484l1.71875 1.7539m-2.69922-1.46484l.85937.875m14.40625-1.4961l-6.71484 2.07422m6.71484-2.07421l1.73828 1.73046m-2.71484-1.42968l1.73828 1.73046m-2.71484-1.42578l.86718.86329m14.20704-1.95704l-6.32813 3.0547m6.32813-3.0547l1.98046 1.44922m-2.90234-1.00781l1.98047 1.45313m12.15234-2.09766L460.5 348.90625"/><g clip-path="url(#am)"><path fill="none" stroke="#000" stroke-linecap="round" stroke-linejoin="round" stroke-miterlimit="10" stroke-width=".5" d="M466.6211 345.44922l2.0703 1.32422"/></g><g clip-path="url(#an)"><path fill="none" stroke="#000" stroke-linecap="round" stroke-linejoin="round" stroke-miterlimit="10" stroke-width=".5" d="M465.73047 345.95313l2.07031 1.3203"/></g><g clip-path="url(#ao)"><path fill="none" stroke="#000" stroke-linecap="round" stroke-linejoin="round" stroke-miterlimit="10" stroke-width=".5" d="M146.53516 331.42969l-5.07032 4.86719"/></g><path fill="none" stroke="#000" stroke-linecap="round" stroke-linejoin="round" stroke-miterlimit="10" stroke-width=".5" d="M145.79688 332.13672l1.16406.38281m13.60547.01563l-6.50391 2.65625m6.5039-2.65625l1.88673 1.5703m11.66796.14845l-6.98437-.78125m6.98437.78125l.90625 2.28125m-1.92187-2.39454l.45312 1.14063m12.65235 1.26563l-4.53125-5.3672m4.53125 5.3672l-.91406 2.27734m.2539-3.0586l-.91016 2.27735m15.48438-2.14453l-5.73047-4.07031m5.73047 4.0703l-.3125 2.4297m-.51953-3.02344l-.16016 1.21875m14.89844-2.03125l-6.91406-1.25781m6.91406 1.2578l.7461 2.33594m-1.75-2.51953l.37109 1.16797M227.3828 334.25l-6.98437-.77344m6.98437.77344l.90625 2.27734m-1.92187-2.39062l.45312 1.14062m13.89453-1.28906l-7.01953-.25m7.01953.25l1.07422 2.20703m-2.09375-2.24219l1.07422 2.20704m13.26172-2.17579l-7.02344-.24609m7.02344.2461l1.07422 2.20703m-2.09375-2.2422l1.07422 2.20704m13.2461-1.9375l-6.9922-.71094m6.9922.71094l.92577 2.26953m-1.94531-2.375l.46484 1.13672m13.88282-1.20313l-7.01953-.36718m7.01953.36719l1.03515 2.22265m-2.0586-2.27734l.51954 1.11328m13.72266-.40235l-6.82422-1.67968m6.82422 1.67969l.59765 2.3789m-1.59375-2.6211l.30078 1.1875m13.96094-.76562l-6.72656-2.04297m6.72656 2.04297l.46875 2.41016m-1.44922-2.70703l.23828 1.20703m14.1875-1.5664l-6.98828-.72657m6.98828.72656l.92188 2.27344m-1.9375-2.3789l.92187 2.27343m13.39454-3.03125l-6.95704 1m6.95704-1l1.4453 1.98047m-2.46093-1.83594l.72656.99219m13.63672-.54297l-7.02344-.1875m7.02344.1875l1.09375 2.19531m-2.11719-2.22265l.54688 1.09765m13.76953-.76171l-6.98047-.8047m6.98047.8047l.89844 2.28515m-1.91406-2.40234l.44921 1.14062m13.85547-2.00781l-6.92968 1.16406m6.92968-1.16406l1.4961 1.94531m-2.50391-1.77734l1.4961 1.94531m12.58593-2.92578l-6.44922 2.78906m6.44922-2.78906l1.91797 1.52734m-2.85547-1.12109l.96094.76172m13.34766-1.03125l-6.5625 2.51562m6.5625-2.51562l1.85156 1.61328m-2.80469-1.2461l.92578.8047m13.38672-1.05079l-6.64844 2.26953m6.64844-2.26953l1.79297 1.67969m-2.75781-1.34766l.89453.83985m13.46094-.92969l-6.79688 1.78906m6.79688-1.78906l1.66406 1.80078m-2.65235-1.54297l1.66407 1.80469m12.51562-2.4414l-6.55078 2.54687m6.55078-2.54688l1.85938 1.60157m-2.8125-1.23047l1.85937 1.60156m-2.8125-1.23047l.92969.80078m14.24219-1.66406l-6.45313 2.78906m6.45313-2.78906l1.91406 1.53516m-2.85156-1.12891l1.91406 1.53125m-2.85547-1.125l.96094.76563m14.03125-1.96875l-6.05078 3.5703"/><g clip-path="url(#ap)"><path fill="none" stroke="#000" stroke-linecap="round" stroke-linejoin="round" stroke-miterlimit="10" stroke-width=".5" d="M466.58594 332.07813l2.09375 1.27734"/></g><g clip-path="url(#aq)"><path fill="none" stroke="#000" stroke-linecap="round" stroke-linejoin="round" stroke-miterlimit="10" stroke-width=".5" d="M465.70703 332.59766l2.09375 1.27734"/></g><path fill="none" stroke="#000" stroke-linecap="round" stroke-linejoin="round" stroke-miterlimit="10" stroke-width=".5" d="M464.82813 333.11719l1.04687.64062"/><g clip-path="url(#ar)"><path fill="none" stroke="#000" stroke-linecap="round" stroke-linejoin="round" stroke-miterlimit="10" stroke-width=".5" d="M140.48828 320.40234l7.02344.29297"/></g><path fill="none" stroke="#000" stroke-linecap="round" stroke-linejoin="round" stroke-miterlimit="10" stroke-width=".5" d="M153.8789 319.8125l6.8711 1.46875m-5.8711-1.2539l-.33593-1.1797m18.6875-.66406l-5.19922 4.72657m4.4414-4.03907l1.15626.41407m12.91406 3.6289l-5.19531-4.73437m5.1953 4.73437l-.60937 2.3789m13.34375-1.86718l-4.03515-5.7539m4.03515 5.7539l-1.10937 2.1875m.52344-3.02734l-.5547 1.09375m15.2461-1.01953l-5.61719-4.22266m5.6172 4.22266l-.37891 2.42187m-.4375-3.03906l-.19141 1.21484m14.25781-.51562l-5.48437-4.39063m5.48437 4.39063l-.45312 2.41015m-.34375-3.04687l-.22656 1.20312m14.90625-1.58203l-6.6211-2.35547m6.6211 2.35547l.35937 2.42578m-1.32422-2.76953l.1836 1.21485m14.17578-1.1211l-6.77735-1.85547m6.77735 1.85547l.53906 2.39063m-1.52734-2.66016l.26953 1.19531m14.08593-1.15234l-6.8828-1.40234m6.8828 1.40234l.69922 2.35156m-1.69922-2.55469l.34766 1.17579m13.97266-1l-6.89453-1.35157m6.89453 1.35157l.71484 2.34765m-1.71875-2.54297l.35938 1.17188m13.88671-.67188l-6.74609-1.96093m6.7461 1.96093l.5 2.40235m-1.48048-2.6875l.25 1.20312m14.0547-.94531l-6.76563-1.90234m6.76562 1.90234l.52344 2.39453m-1.50781-2.67187l.26172 1.19921m14.15625-1.5664l-7-.61719m7 .61719l.95703 2.25781m-1.97656-2.34765l.47656 1.1289m13.83594-1.83594l-6.95704.98047m6.95704-.98047l1.4414 1.98438m-2.45312-1.84375l.71875.9961m13.54296-1.47266l-6.82812 1.65234m6.82813-1.65234l1.6289 1.83203m-2.6211-1.59375l.8125.91797m13.5547-.85938l-6.94922 1.0586m6.94921-1.0586l1.46485 1.96875m11.82031-2.1289l-6.89062 1.3789m6.89062-1.3789l1.55469 1.89843m11.125-3.32031l-5.61719 4.22266m5.61719-4.22266l2.22265 1.03516m10.90625-1.26172l-5.24609 4.67578m5.2461-4.67578l2.30078.84765m9.51953-1.83984l-2.25781 6.65625m1.92968-5.6875l1.21094-.19531m12.32813 2.55469l-.01954-.19922-.05859-.19141-.09766-.17578-.45703-.3789-.1914-.0547-.19922-.01953-.19922.01954-.1914.05468-.46094.3789-.09375.17579-.0586.1914-.01953.19923.01953.19921.0586.19141.09375.17969.46093.375.1914.0586.19923.01952.19922-.01953.1914-.0586.45703-.375.09766-.17968.0586-.1914.01952-.19923m15.78907.32032l-6.9961-.64063m5.98047.54688l.47266 1.13281m13.48437-2.96094l-6.25 3.20703m6.25-3.20703l2.01563 1.40235m-2.92188-.9375l2.01172 1.40234m11.65625-2.66016l-5.14062 4.78907"/><g clip-path="url(#as)"><path fill="none" stroke="#000" stroke-linecap="round" stroke-linejoin="round" stroke-miterlimit="10" stroke-width=".5" d="M466.13281 318.15234l2.32031.80079"/></g><path fill="none" stroke="#000" stroke-linecap="round" stroke-linejoin="round" stroke-miterlimit="10" stroke-width=".5" d="M465.38281 318.85156l2.32031.80078m-3.0664-.10546l1.16015.39843"/><path fill="#ff3030" fill-rule="evenodd" d="M371.17969 436.57813h7.6914v-10.14454h-7.6914v10.14454"/><path fill="azure" fill-rule="evenodd" d="M373.01172 428.26563h.83594v5.74218h3.1914v.73828h-4.02734v-6.48046"/><path fill="#ff3030" fill-rule="evenodd" d="M202.52344 418.82813h7.6914v-10.14844h-7.6914v10.14844"/><path fill="azure" fill-rule="evenodd" d="M204.35547 410.51172h.83203v5.74219h3.19531v.73828h-4.02734v-6.48047"/><path fill="#00f" fill-rule="evenodd" d="M228.45703 414.38672h8.6211v-10.14453h-8.6211v10.14453"/><path fill="azure" fill-rule="evenodd" d="M230.28906 406.07422h.83594v2.82422h3.28516v-2.82422h.83203v6.48047h-.83203v-2.91406H231.125v2.91406h-.83594v-6.48047"/><path fill="#ff3030" fill-rule="evenodd" d="M171.45313 370.0039h7.6914v-10.14452h-7.6914v10.14453"/><path fill="azure" fill-rule="evenodd" d="M173.28516 361.6914h.83593v5.73829h3.19141v.74219h-4.02734v-6.48047"/><path fill="#ffffe0" fill-rule="evenodd" d="M363.9375 420.82813h22.17969v-10.19141H363.9375v10.1914"/><path fill-rule="evenodd" d="M367.4336 412.46875h.51171v6.29688h-.78906v-4.48829h-1.38672v-.55859l.5586-.0625.2539-.05469.22656-.08984.20313-.14063.17578-.21093.14063-.29297.10546-.39844m4.81641 0l.22656.01953.21875.0586.21094.08593.19531.1211.1836.15234.17187.17578.30078.41797.2461.49219.17968.54687.10938.58203.03906.58985-.03906.59375-.10938.58203-.17968.55469-.2461.5039-.30078.42578-.17187.1797-.1836.15233-.19531.125-.21094.09375-.21875.0547-.22656.01952-.23047-.01953-.21875-.05469-.20703-.09375-.19922-.125-.1836-.15234-.17187-.17969-.30078-.42578-.24219-.5039-.17968-.5547-.11329-.58202-.03906-.59375H371l.02734.5625.08204.5039.125.44532.16406.375.1914.30078.21094.21875.22266.13672.22656.04687.22656-.04687.22266-.13672.21094-.21875.1875-.30078.16406-.375.125-.44532.08203-.5039.03125-.5625-.03125-.5625-.08203-.5-.125-.4336-.16406-.36718-.1875-.29297-.21094-.21485-.22266-.1289-.22656-.04688-.22656.04688-.22266.1289-.21094.21485-.1914.29297-.16406.36718-.125.4336-.08204.5-.02734.5625h-.83594l.03906-.58985.11329-.58203.17968-.54687.2422-.49219.30077-.41797.17188-.17578.1836-.15234.19921-.1211.20703-.08594.21875-.05859.23047-.01953m4.95313 0l.22656.01953.21875.0586.21094.08593.1953.1211.1836.15234.17188.17578.30078.41797.24219.49219.17968.54687.11328.58203.03907.58985-.03907.59375-.11328.58203-.17969.55469-.24218.5039-.30078.42578-.17188.1797-.1836.15233-.1953.125-.21094.09375-.21875.0547-.22656.01952-.23047-.01953-.21875-.05469-.20704-.09375-.19921-.125-.1836-.15234-.17187-.17969-.30078-.42578-.2422-.5039-.17968-.5547-.11328-.58202-.03906-.59375h.83594l.02734.5625.08203.5039.125.44532.16406.375.1914.30078.21095.21875.22265.13672.22656.04687.22657-.04687.22265-.13672.20704-.21875.1914-.30078.16406-.375.125-.44532.08204-.5039.02734-.5625-.02735-.5625-.08203-.5-.125-.4336-.16406-.36718-.1914-.29297-.20704-.21485-.22265-.1289-.22656-.04688-.22657.04688-.22265.1289-.21094.21485-.1914.29297-.16407.36718-.125.4336-.08203.5-.02735.5625h-.83593l.03906-.58985.11328-.58203.17969-.54687.24219-.49219.30078-.41797.17187-.17578.1836-.15234.19921-.1211.20704-.08594.21875-.05859.23046-.01953m4.94922 0l.39063.03125.35547.08203.32422.13672.28125.1836.22656.23827.17578.28516.10938.33203.03515.3789-.01953.27345-.0586.23437-.08593.20313-.11328.16796-.1289.14454-.14063.12109-.28516.19922.23047.11719.21094.14843.17968.16797.15235.19531.125.21485.08984.23047.0586.24219.01562.2539-.03125.3125-.10547.32422-.17187.32422-.23829.3086-.30859.26952-.3711.21485-.21484.07812-.22656.0625-.2461.03906-.2578.01172-.26172-.01171-.2422-.03907-.22265-.0625-.20703-.07812-.35937-.21485-.28907-.26953-.22265-.3086-.15625-.32421-.09375-.32422-.03125-.3125h.83594l.02734.2539.07812.23438.1211.21485.16015.18359.19141.15234.22266.11329.23828.07421.2539.02344.25782-.02344.23828-.07421.22265-.11329.19141-.15234.16016-.1836.12109-.21484.07813-.23437.02734-.2539-.02735-.25-.07812-.23829-.1211-.21094-.16015-.1836-.1914-.15233-.22266-.11329-.23828-.07421-.25782-.02344-.2539.02344-.23828.07421-.22266.11329-.1914.15234-.16016.1836-.1211.21093-.07812.23828-.02735.25h-.83593l.01953-.25.0586-.24219.08984-.22265.12109-.21094.15625-.1875.17969-.17188.21094-.15625.23046-.1289-.28515-.19922-.14063-.1211-.1289-.14452-.11329-.16797-.08593-.20313-.0586-.23437-.01953-.27344h.78516l.02344.21484.0664.1914.10156.16407.13672.14063.16797.11328.1875.08203.20703.04687.21875.01954.22266-.01954.20703-.04687.1875-.08203.16406-.11328.13672-.14063.10547-.16406.0664-.1914.02344-.21485-.02343-.21485-.0664-.1914-.10548-.16406-.13672-.14063-.16406-.11328-.1875-.08203-.20703-.04688-.22266-.01953-.21875.01953-.20703.04688-.1875.08203-.16797.11328-.13671.14063-.10157.16406-.0664.1914-.02344.21485h-.78516l.03516-.3789.10937-.33204.17188-.28515.23047-.23829.28125-.18359.32422-.13672.35546-.08203.38672-.03125"/><path fill="#ffffe0" fill-rule="evenodd" d="M350.6211 385.83594h22.17968v-10.1914H350.6211v10.1914"/><path fill-rule="evenodd" d="M354.1211 377.47656h.5078v6.29688h-.78515v-4.49219h-1.39063v-.55469l.5586-.0625.2539-.05469.23047-.08984.20313-.14062.17187-.21094.14454-.29688.10546-.39453m4.8125 0l.23047.01953.21875.0547.20703.08983.19532.1211.18359.15234.17188.17188.30468.42187.24219.49219.17969.54688.10937.57812.03906.59375-.03906.59375-.10937.58203-.17969.55469-.24219.5-.30469.42969-.17187.17968-.1836.15235-.1953.125-.20704.08984-.21875.0586-.23047.01953-.23046-.01954-.21875-.05859-.20704-.08984-.1953-.125-.1836-.15235-.17188-.17968-.30469-.4297-.24218-.5-.17969-.55468-.10938-.58203-.03906-.59375h.83203l.03125.5625.07813.5039.1289.44532.16016.375.1914.30078.21094.21875.22266.13672.22656.04687.22657-.04687.22265-.13672.21094-.21875.1914-.30078.16016-.375.1289-.44531.08204-.50391.02734-.5625-.02734-.5625-.08203-.5-.1289-.4375-.16016-.36328-.19141-.29297-.21094-.21484-.22265-.13282-.22657-.04296-.22656.04296-.22265.13282-.21094.21484-.1914.29297-.16017.36328-.1289.4375-.07813.5-.03125.5625h-.83203l.03906-.59375.10938-.57813.17969-.54687.24219-.49219.30468-.42187.17188-.17188.1836-.15234.1953-.1211.20704-.08984.21875-.05469.23046-.01953m5.08985 0h.51172v6.29688h-.78907v-4.49219h-1.38671v-.55469l.55859-.0625.2539-.05469.22657-.08984.20703-.14062.17187-.21094.14063-.29688.10547-.39453m2.82422 2.17578h.78906l.01953-.3164.0586-.28516.09765-.2539.14063-.21485.18359-.17187.22265-.12891.26563-.08203.30469-.02735.23828.01954.22656.0625.20313.10156.17968.14062.14844.17188.11328.20703.07031.23438.02735.26562-.02344.26953-.0664.22266-.10938.1914-.15625.17188-.19922.16406-.2461.16406-.63671.39063-.53516.3125-.4375.3164-.34765.32422-.26563.33594-.1875.35156-.125.3711-.07031.39062-.01953.42188h4.21094v-.74219h-3.33204l.08204-.28516.11328-.23437.14843-.20313.1875-.17968.23047-.17188.27735-.17578.71875-.41406.41406-.20703.34765-.23047.28125-.25.21875-.26953.16407-.27735.10937-.28515.0664-.28516.01954-.28125-.04297-.38281-.1211-.34766-.1875-.3086-.25-.26171-.30468-.21094-.34375-.16015-.3789-.09766-.41016-.03516-.4336.03516-.39843.09765-.35547.16797-.30469.23438-.2461.30078-.1875.375-.11327.44531-.04297.51953"/><path fill="#ffffe0" fill-rule="evenodd" d="M217.46875 350.39844h22.17969v-10.1914h-22.17969v10.1914"/><path fill-rule="evenodd" d="M220.96875 342.03906h.50781v6.29688h-.78515v-4.49219h-1.38672v-.55469l.5586-.0625.25-.05469.23046-.08984.20313-.14062.17578-.21094.14062-.29688.10547-.39453m4.8125 0l.23047.01953.21875.0547.20703.08983.19922.1211.1836.14844.17187.17578.30078.42187.24219.49219.17968.54688.11328.57812.03907.59375-.03906.59375-.11329.58203-.17968.55469-.2422.5-.30077.42969-.17188.17968-.1836.15235-.19921.125-.20703.08984-.21875.0586-.23047.01953-.22656-.01954-.21875-.05859-.21094-.08984-.19531-.125-.1836-.15235-.17187-.17968-.30078-.4297-.24219-.5-.17969-.55468-.11328-.58203-.03906-.59375h.83594l.02734.5625.08203.5039.125.44532.16406.375.19141.30078.20703.21875.22266.13672.22656.04687.22656-.04687.22266-.13672.21094-.21875.1914-.30078.16406-.375.125-.44531.08204-.50391.02734-.5625-.02734-.5625-.08203-.5-.125-.4375-.16407-.36328-.1914-.29297-.21094-.21484-.22266-.13282-.22656-.04296-.22656.04296-.22266.13282-.20703.21484-.1914.29297-.16407.36328-.125.4375-.08203.5-.02734.5625h-.83594l.03906-.59375.11328-.57813.17969-.54687.24219-.49219.30078-.42187.17187-.17578.1836-.14844.19531-.1211.21094-.08984.21875-.05469.22656-.01953m5.09375 0h.50781v6.29688h-.78515v-4.49219h-1.39063v-.55469l.5625-.0625.25-.05469.23047-.08984.20313-.14062.17578-.21094.14062-.29688.10547-.39453m2.82422 2.17578h.78516l.01953-.3164.05859-.28516.10156-.2539.14063-.21485.17969-.17187.22265-.12891.26563-.08203.30859-.02735.23828.01954.22266.0625.20312.10156.17969.14062.14844.17188.11328.20703.07422.23438.02344.26562-.02344.26953-.0625.22266-.11328.1914-.15235.17188-.20312.16406-.2461.16406-.6328.39063-.53907.3125-.4375.3164-.34766.32422-.26172.33594-.1914.35156-.125.3711-.07031.39062-.01954.42188h4.21094v-.74219h-3.33203l.08594-.28516.11328-.23437.14844-.20313.1875-.17968.23047-.17188.27734-.17578.71875-.41406.41406-.20703.34375-.23047.28125-.25.21875-.26953.16406-.27735.11328-.28515.0625-.28516.01954-.28125-.03907-.38281-.12109-.34766-.1914-.3086-.25-.26171-.30079-.21094-.34765-.16015-.37891-.09766-.40625-.03516-.4336.03516-.39843.09765-.35547.16407-.30469.23828-.25.30078-.1836.375-.11718.44531-.03906.51953"/><path fill="#ffffe0" fill-rule="evenodd" d="M315.11328 344.97266h22.17969v-10.19141h-22.17969v10.1914"/><path fill-rule="evenodd" d="M318.61328 336.61328h.50781v6.29297h-.78515v-4.48828h-1.39063v-.55469l.5625-.0664.25-.0547.23047-.08593.20313-.14453.17578-.20703.14062-.29688.10547-.39453m4.8125 0l.23047.01953.21875.05469.20703.08984.19922.1211.1836.14844.17187.17578.30078.42187.24219.49219.17969.54687.11328.57813.03515.58984-.03515.59375-.11329.58594-.17968.55469-.24219.5-.30078.42969-.17188.17968-.18359.15235-.19922.125-.20703.08984-.21875.0586-.23047.01952-.22656-.01953-.21875-.05859-.21094-.08984-.19531-.125-.1836-.15235-.17187-.17969-.30078-.42968-.2461-.5-.17968-.55469-.10938-.58594-.03906-.59375h.83203l.03125.5664.08203.50392.125.4414.16406.375.1875.30078.21094.22266.22266.13672.22656.04687.22656-.04687.22266-.13672.21094-.22266.1914-.30078.16407-.375.125-.4414.08203-.50391.02734-.5664-.02734-.5586-.08203-.5-.125-.4375-.16407-.36719-.1914-.28906-.21094-.21485-.22266-.1328-.22656-.04298-.22656.04297-.22266.13281-.21094.21485-.1875.28906-.16406.36719-.125.4375-.08203.5-.03125.5586h-.83203l.03906-.58985.10938-.57813.17969-.54687.24609-.49219.30078-.42187.17188-.17579.18359-.14843.19531-.1211.21094-.08984.21875-.05469.22656-.01953m5.09375 0h.50781v6.29297h-.78515v-4.48828h-1.39063v-.55469l.5586-.0664.2539-.0547.23047-.08593.20313-.14453.17187-.20703.14453-.29688.10547-.39453m6.80469 1.6211h-.78906l-.05079-.21485-.08203-.1836-.10937-.16015-.1289-.13281-.14454-.10156-.16015-.07422-.16797-.04297-.17579-.01563-.32421.03907-.28907.12109-.24609.19531-.20313.26953-.16015.33594-.11719.40625-.07031.46485-.02344.52734.1875-.20313.1875-.16015.1875-.1211.1836-.08984.1875-.0586.1914-.03906.40235-.02343.30859.03125.32031.09375.3164.15234.29298.22266.2539.28125.19922.35156.07422.19922.05078.21875.03125.23437.0039.2539-.78515.04298-.02734-.25781-.07813-.25-.1211-.23438-.16405-.21094-.19141-.17578-.21875-.13672-.24219-.08984-.2539-.03125-.25391.03125-.24219.08984-.21875.13672-.19531.17578-.16016.21094-.12109.23438-.07813.25-.02734.2578.02735.26173.07812.25.1211.23437.16015.21094.19531.17578.21875.13672.24219.08984.2539.03125.25391-.03125.24219-.08984.21875-.13672.1914-.17578.16407-.21094.1211-.23437.07812-.25.02734-.26172.78516-.04297-.03125.36719-.09375.375-.15625.35546-.22266.32813-.28906.28516-.17188.11718-.1875.10157-.20703.08593-.22265.0586-.2422.03906-.2578.01563-.28516-.01563-.25781-.05078-.23828-.07422-.21485-.10547-.19531-.13281-.17578-.15625-.15235-.17969-.13671-.19922-.1172-.22265-.09765-.2422-.14844-.53515-.08203-.59375-.02734-.64062.03906-.74219.11328-.66406.1875-.57813.1172-.2539.13671-.23438.15625-.20312.16797-.1836.1875-.15625.20312-.1289.21485-.10157.23437-.07421.2461-.04297.26171-.01563.3672.03516.33202.09375.29688.15234.2539.19922.21485.23828.16406.27735.11719.30078.0625.32421"/></g></defs><use xlink:href="#at"/></svg>