<svg xmlns="http://www.w3.org/2000/svg" role="img" xmlns:xlink="http://www.w3.org/1999/xlink" viewBox="142.45 309.95 326.84 171.84"><defs><clipPath id="a"><path d="M144 311.67188h1v168.65625h-1zm0 0"/></clipPath><clipPath id="b"><path d="M144 311.67188h324v168.65625H144zm0 0"/></clipPath><clipPath id="c"><path d="M467 311.67188h1v168.65625h-1zm0 0"/></clipPath><clipPath id="d"><path d="M144 479h4v1.32813h-4zm0 0"/></clipPath><clipPath id="e"><path d="M147 480h2v.32813h-2zm0 0"/></clipPath><clipPath id="f"><path d="M153 479h9v1.32813h-9zm0 0"/></clipPath><clipPath id="g"><path d="M160 480h2v.32813h-2zm0 0"/></clipPath><clipPath id="h"><path d="M166 479h9v1.32813h-9zm0 0"/></clipPath><clipPath id="i"><path d="M173 480h3v.32813h-3zm0 0"/></clipPath><clipPath id="j"><path d="M172 480h2v.32813h-2zm0 0"/></clipPath><clipPath id="k"><path d="M180 480h8v.32813h-8zm0 0"/></clipPath><clipPath id="l"><path d="M187 480h2v.32813h-2zm0 0"/></clipPath><clipPath id="m"><path d="M186 480h2v.32813h-2zm0 0"/></clipPath><clipPath id="n"><path d="M193 480h9v.32813h-9zm0 0"/></clipPath><clipPath id="o"><path d="M200 480h3v.32813h-3zm0 0"/></clipPath><clipPath id="p"><path d="M199 480h2v.32813h-2zm0 0"/></clipPath><clipPath id="q"><path d="M206 479h9v1.32813h-9zm0 0"/></clipPath><clipPath id="r"><path d="M213 479h3v1.32813h-3zm0 0"/></clipPath><clipPath id="s"><path d="M212 479h2v1.32813h-2zm0 0"/></clipPath><clipPath id="t"><path d="M220 479h8v1.32813h-8zm0 0"/></clipPath><clipPath id="u"><path d="M227 479h2v1.32813h-2zm0 0"/></clipPath><clipPath id="v"><path d="M233 479h8v1.32813h-8zm0 0"/></clipPath><clipPath id="w"><path d="M240 479h3v1.32813h-3zm0 0"/></clipPath><clipPath id="x"><path d="M246 479h9v1.32813h-9zm0 0"/></clipPath><clipPath id="y"><path d="M253 479h3v1.32813h-3zm0 0"/></clipPath><clipPath id="z"><path d="M260 478h8v2.32813h-8zm0 0"/></clipPath><clipPath id="A"><path d="M266 478h4v2.32813h-4zm0 0"/></clipPath><clipPath id="B"><path d="M273 478h8v2.32813h-8zm0 0"/></clipPath><clipPath id="C"><path d="M280 478h3v2.32813h-3zm0 0"/></clipPath><clipPath id="D"><path d="M287 478h7v2.32813h-7zm0 0"/></clipPath><clipPath id="E"><path d="M292 478h2v2.32813h-2zm0 0"/></clipPath><clipPath id="F"><path d="M300 478h8v2.32813h-8zm0 0"/></clipPath><clipPath id="G"><path d="M305 479h3v1.32813h-3zm0 0"/></clipPath><clipPath id="H"><path d="M313 478h8v2.32813h-8zm0 0"/></clipPath><clipPath id="I"><path d="M319 478h2v2.32813h-2zm0 0"/></clipPath><clipPath id="J"><path d="M327 477h6v3.32813h-6zm0 0"/></clipPath><clipPath id="K"><path d="M343 476h2v4.32813h-2zm0 0"/></clipPath><clipPath id="L"><path d="M356 476h2v4.32813h-2zm0 0"/></clipPath><clipPath id="M"><path d="M369 476h3v4.32813h-3zm0 0"/></clipPath><clipPath id="N"><path d="M380 478h8v2.32813h-8zm0 0"/></clipPath><clipPath id="O"><path d="M395 476h4v4.32813h-4zm0 0"/></clipPath><clipPath id="P"><path d="M409 476h2v4.32813h-2zm0 0"/></clipPath><clipPath id="Q"><path d="M420 477h7v3.32813h-7zm0 0"/></clipPath><clipPath id="R"><path d="M433 477h7v3.32813h-7zm0 0"/></clipPath><clipPath id="S"><path d="M448 477h5v3.32813h-5zm0 0"/></clipPath><clipPath id="T"><path d="M459 479h9v1.32813h-9zm0 0"/></clipPath><clipPath id="U"><path d="M465 479h3v1.32813h-3zm0 0"/></clipPath><clipPath id="V"><path d="M144 466h4v2h-4zm0 0"/></clipPath><clipPath id="W"><path d="M466 465h2v3h-2zm0 0"/></clipPath><clipPath id="X"><path d="M144 452h4v3h-4zm0 0"/></clipPath><clipPath id="Y"><path d="M466 451h2v2h-2zm0 0"/></clipPath><clipPath id="Z"><path d="M144 439h4v3h-4zm0 0"/></clipPath><clipPath id="aa"><path d="M465 437h3v2h-3zm0 0"/></clipPath><clipPath id="ab"><path d="M144 425h4v4h-4zm0 0"/></clipPath><clipPath id="ac"><path d="M466 424h2v3h-2zm0 0"/></clipPath><clipPath id="ad"><path d="M144 413h4v2h-4zm0 0"/></clipPath><clipPath id="ae"><path d="M465 410h3v2h-3zm0 0"/></clipPath><clipPath id="af"><path d="M144 397h3v6h-3zm0 0"/></clipPath><clipPath id="ag"><path d="M466 398h2v2h-2zm0 0"/></clipPath><clipPath id="ah"><path d="M144 384h3v6h-3zm0 0"/></clipPath><clipPath id="ai"><path d="M465 384h3v3h-3zm0 0"/></clipPath><clipPath id="aj"><path d="M144 371h4v6h-4zm0 0"/></clipPath><clipPath id="ak"><path d="M465 371h3v2h-3zm0 0"/></clipPath><clipPath id="al"><path d="M144 358h4v5h-4zm0 0"/></clipPath><clipPath id="am"><path d="M466 358h2v2h-2zm0 0"/></clipPath><clipPath id="an"><path d="M144 345h4v4h-4zm0 0"/></clipPath><clipPath id="ao"><path d="M466 345h2v4h-2zm0 0"/></clipPath><clipPath id="ap"><path d="M144 331h4v5h-4zm0 0"/></clipPath><clipPath id="aq"><path d="M466 332h2v3h-2zm0 0"/></clipPath><clipPath id="ar"><path d="M465 332h3v3h-3zm0 0"/></clipPath><clipPath id="as"><path d="M144 317h3v7h-3zm0 0"/></clipPath><clipPath id="at"><path d="M465 317h3v3h-3zm0 0"/></clipPath><g id="au" clip-path="url(#clip1)"><path fill="#fff" fill-opacity="0" fill-rule="evenodd" d="M0 0h1000v1000H0zm0 0"/><path fill="#d3d3d3" fill-opacity="0" fill-rule="evenodd" d="M162.15234 355.86719l-.23437.29297.0586.23437.11718.17188.17578.23437.29297.34766.11328.0586.11719-.17188.0586-.23438.17577-.17578.46485-.17578h.69922l.23437.29297.28906.8164.0586.17579.17578.23046.35156.23438.69922.69922.17188.17578.23437.34765.23438.41016.28906.58203.41015.46485.23047.23437.23438.17578.11719.23047.17578.29297.17187 1.16406v.23438l.0586.28906.05859.11719.11719.11719.34765.41015.11719.17188.17578.17578.17578.23437.11719.17188.17188.35156.05859.23438.23437.40625.23438-.0586-.17578.17578-.0586.92969h-.58203l-.23437-.11328-.34766.11328-.11719.11719-.05859.29297-.0586.17578-.11718.17187-.46484.29297-.0586.23438-.0586.11328v.64453l.0586.17187v.41016l.0586.0586v.40624l.05859.40625.11719.17579.05859.05859.23047.64062-.0586.29297v.69922l-.05859.58203v.23438l-.0586.23047-.05468.35156v1.92187l.05469.1172h.42578l-.36719.11718-.02344.35156.89063 1.16797 1.74219.53906 1.33984.35938v.53906l.08984.8086.53516.71484 1.51953.26953.89063-.08594.08984 1.16406.53516.1797 1.16015-.1797 2.05469-.98437 1.16016-.36328 1.8789-.17578 1.69531-.1797-.17968.71876-1.51563.08594-1.25.08984-.80469.26953-1.07421.8086.26953.71875.53515.89843-.17968.625-.26563.8086.26563 1.07812.625.89844.80468.17969 1.25-.1797-.26562.72267.09766.5039.05468.29297v.17188l.0586.29296v.40625l.17578.1172.35156.11718h.40625l.29297-.17578.11328-.11719.0586-.11719.11718-.23047.0586-.17578.35156-.46484.23047-.17578.17578-.0586.17578.0586.0586.17578.11718.98828.05469.46875.0586.17188.11718.23437.17578.0586.8164.05859h.28907l.11719.23437.05859.40625.0586.35156v1.10547l.11718.29297.11719.34766.28906.69922.17578.35156.58203.7539.35157.17579.17187.0586.46875.23437.64063.46484.34765.23438.29297.17578.29297.05468.23047.0625.8164.34766.29297.17578.11328.17188.35157.35156.11719.17578.52343.64063v.28906l.0586.35156v.34766l.05859.35156.0586.28906.11718.0586.17188.05859h.17578l.58203.23437.17578.1172.17578.28905.17578.23438.11328.23437.29297.23047.11719.11719v.41016l.0586.05468.28906.23438.23437.11719.0586.11718.11718.17188.0586.11719.23047.23437.05859.17578.23437.0586.1172.05859-.1172.11328-.05859.11719v.11719l-.11719.29296-.11719.28907v.58203l.17579.11719.11718.05859.0586.11719.11719.11719.11328.05859.17578.34765.0586.35157.05858.40625v.17578l-.05859.17578-.11719.69922v.17187l.1172.17579.29296.29296h.40625l.17578.1172.11719.17187.11719.29296v.23438h-.52735l-.23047-.23438h-.23437l-.17578.0586-.0586.69922.0586.34765.11719.17579.17578.41015.11718.23047.28907.46875.17578.05469h.52344l.23437.0586.75781.64062.0586.29296v.23438l.05859.0586.23047.34765v.35156l-.11719.17188v.29297l.29297.28906.29297.17578.17187.0586.29297.17577.29297.1172.58203.40624.28906.23438.29297.17578.21875.16015.01563.01172.23047.17579.64062.52343.17578.23438.1172.17578.17577.17578.11328.17188v.64062l.1172.17578.46874.11719.58203.11719.23438.05859.23047.11328.29297.11719.11328.0586.58593.35156.28907.17187.17578.0625.17578.05469.17578.0586.69922.35155.28906.17579.23438.05468.28906.17578.23437.1172.64063.40624.29297.11719.17187.0586.23438.05859.41015.05859.23047.0586.23438.11718.0586.17188-.41017.17578.46875.0586.0586.29296.11328.23438.17578.05468.23438.0586.17578.05859.40625.11719.64062.23437.11719.17188.0586.23437v.17578l-.0586.1172-.0586.40624.23438.23438.11719.05859.34766.11719.64062.23047.17578.11718.28906.1172.17578.17577.23438.46485.58203 1.10546.17578.17579.34766.17578.17578.11719.35156.11718 1.04688.52344.23437.0586.46485.11327.29297.0586.46484.17578.75781.58203.23438.23438.34765.46484.17578.17578.28907.23438.8164.69921.29297.17579.28906.28906.29297.17578.29297.28906.69531.64063.17578.17578.29297.23437.28907.23438.46875.28906.64062.58203.34766.23438.23437.29297.34766.34765.35156.46485.9336.99218.34765.40625.11719.17579.23437.05859.11328.11719.64454.17578.23047.11328.23437.0586.29297.17577.23047.1172.9336.69921.40624.40625.23438.17578.40625.17578.23437.11719.8164.34766.34766.23437.23438.11719.29297.28906.23047.11719.7578.35156.35157.17188.23047.05859.29297.11719.23437.0586.8711.17577h.8164l.46875.23047.17188.0586.875.69921.46484.1172.29297.05858.17578.0586.23047.0586.46875.05859.34766.05859.35156.0586.40625.05859h.29297l.17187.0586v.23046l.17578.17578h.29297l.34766.0586.35156.05859.69922.11719h.64063l.46484-.23438.29297-.17578.17187-.11719.41016-.17187.28906-.17578.9336-.46485.46875-.29297.52343-.29296.46485-.17188.46484-.17578 1.05078-.46485.28906-.11718.41016-.11719.28906-.11719.52735-.17578 1.51562-.69922.58203-.34765.28907-.0586.29297-.0586.34765-.11718.875-.23047.35156-.11719h.11329l.23437-.05859.875-.23437.23438-.0586h.8125l.35156-.0586.8164-.11718.17188-.0586.35156-.05468.29297-.0586.23047-.05859.8164-.17578.17579-.0586h.34765l.23438-.05859.46484-.11718.75781-.17188.23438-.0586h.34765l.41016-.11718.28906-.0586 1.28516-.05859h.28906l.41016-.0586.23047-.05858h.17578l.875-.1172h.40625l.41015-.11718h.34766l.35156-.11328.8711-.0586h1.75l1.04687.28907.41016.11719.28906.11718.35156.11719.28907.11719 1.05078.17187.28906.0586h.29297l.29297.05859.17187.0586.41016.05859.17187.0586.1172.05858h.11718l.11719.0586.35156.0586h.11328l.41016.0664 1.92187.39453 1.92578.39453 1.51953.44922 1.69532.71875 2.14453.80469 1.60547-.71875 1.42968-.80469 1.16016-1.07813 1.25-.44921 3.03516-.71875 1.875-.35938 2.14453-1.34765 2.23437-1.25391 2.5-1.25781 1.69531-.44922 1.78516-.17969 1.16016-.26953.625.53906 1.33984-.26953.71485-.98828.98437-1.34375.44531-.17969.80469-.35937 1.875-.53907 1.78516-.44921 1.25-.26954 1.16015-.08984 1.69922-.08984 1.96094-.26954 1.25-.08984h.53906l.625-.08984h.89063l2.14453-.17969 2.41015-.17969 2.58985-.08984 1.69531.17969 1.60938.08984 1.42968.35938 1.16016.71875 1.875.98828 1.16015 1.52734.26563.71484.6289.08985.35548.89844.53515.53906.53516 1.52734 1.07422.35938h.53515l-.80469.53515.08985 1.70703.71484 2.69532.89063.80468.89453.98829.71484 1.2578 1.78516.53907 1.51953-.17969.35547 1.34375 1.60937-.80469.98047-.53906.26953.26953.31641-.21484.21875-.14453.80078.44922.44922-.35938h.35547l.53515-.26953.53907-.71875.53515-.26953.625-.98828 1.16016.44922.83984.3711 1.39454.61718 1.6953-.17969h1.60548l1.78515.08985.17969-1.70704.53516-1.34375.80468.26954.4922.84765.40233.40625-.08984.53906v.35938l.71485.44922.71093-.26953h1.42969l.35938.98828.4453 1.25781.71485 1.34375 1.25.6289 1.69531.62891.71485-.17969.17969-.53906.98046-.08984.44922.35937.08594 1.25782-.26563.6289-.53515.17969v.53906l.71484.98438.26563.53906.98437.98828.80078 1.07813-.26562.35937-.08985.89844-.625 2.33203-.35546 2.0664-.08985 1.79298-.17969.71875-.08984.53906v1.4375l-.98047 1.88281-.35937 1.70703-.53516.89844-.80469 1.16797-.26562.53906 2.05469 1.2539.08593.35938-.35546.53906-.08985-.17968v.80859l.08985 1.4375-.44532.71484-1.07422.09375-.26562.71485.53515.89844.8047.71875 1.16015.80859 1.33984.26953.44531.35938-.35546.44921-1.78907-.08984-1.25-.44922-.71484-.71875-.625-.08984-.17578 3.58984-.1875 1.3086h89.35937V311.70313h-55.26953v49.08203l.76172.125 3.28906.54296 2.02344 2.83594v2.7539l2.35156.33204 2.34766.33203h4.05078l-1.3789 4.16016-2.02344.70703-2.02344.70312-.54297.34375-2.59375 1.6172-.1875.11718-2.02344-2.07813-.73046-2.74218-2.67188-2.07813-1.375-3.5-.0664-.08203-1.95704-2.67188 2.75-1.41796v-49.08204H294.42187v91.41407l.1172.03125.1328.01172.07422.07421.10547.04688.08985.0586.08593.05859.08985.0586.29687.29687.0586.08984.03125.11719.02734.11719.01563.13671-.03125.1172-.0586.08983-.0586.08594-.04296.10547-.04688.10156-.02734.1211v.14453l.17578.26953.14844.14844.07422.08594.07422.07421.04296.10547.0625.08985.0586.08593.04297.10547.0586.08985.04687.10156.04296.10547.0586.08594.11719.17968.07421.07422.0625.08594.0586.08984.04297.10547.0586.08985.05858.08593.0625.08985.0586.08984.04297.10156.11719.17969.07421.07422.0586.08594.07422.07421.08984.0586.10547.04687h.14844l.1328-.01562.13282.01562.10156-.04687.07422-.07422.04688-.10156-.01563-.13281v-.14844l-.04687-.10547-.02735-.11719-.04687-.10156-.02735-.1211-.04296-.10156-.0625-.08984-.04297-.10156-.04297-.10547-.03125-.11719-.01563-.13281-.01171-.13672.08593-.0586.0586-.08593.12109-.03125.04297.10547.01562.1328v.1172l.0586.10156.0586.08984.08983.0586.14844.14843.0586.08985.04296.10547-.01171.10156.08593.0586.10547.04687.08594.0586.08984.05858.07422.07422-.11719.02735-.10546.04687-.08594.0586-.07422.07421-.0586.08985-.0625.08594-.02734.12109-.04687.10156-.04297.10547-.03125.11719-.01172.13281-.01563.13281v.14844l.02735.11719.04687.10547.04297.10156.0586.08984.07421.07422.08985.0586.07422.07421.08984.0586.0586.08984.04296.10547.04688.10156.11719.03125.1328.01563h.14845l.11718-.03125.10547.04297.04297.10547.04688.10156.02734.1211L299.5 410l.02734.11719.03125.1211.02735.11718.10547.04297.10156.04687.13281-.01562.14844.14844.0625.08593.07422.07422.07031.07422.08984.0625.10547.04297.10156.04297.1172.03125.13671.01562.11719-.03125.07422-.07422.02734-.11718-.01172-.13282-.03125-.12109-.02734-.11719.04297-.10547h.11719l.08984.0625.11719.02735h.14843l.13282.01562h.14843l.13282.01563.1328-.01563h.14845l.1328-.01562.13282-.01172.13672.01172.11719-.02735.13281-.01562.1914-.0586-.05859.17579-.01562.1328-.02735.1211-.01562.13281-.0586.08594-.1328.01563-.10548.04687-.10546.04297-.1172.03125-.11718.02735-.26563.03125h-.14843l-.13281.01562-.07422.07422.05859.08594.14844.14843.11719.1797.07421.0703.08985.0625.08984.0586.08594.0586.08984.05858.10156.04297.10547.0625.10547.04297.08594.0586.10547.04687.10156.04297.17969.11719.0586.08984-.04298.10156-.04687.10547.01562.13281.22266.22266.0586.08985.04296.10156.03125.1211.04297.10155.01563.13282.03125.11718.01171.13672.03125.11719.14844.14844.10156.04297.10547.04296.1172.03125.1328.01563.13672.01563h.11719l.11719-.03125.08984-.0586.04297-.10547.04688-.10156.04296-.10547.03125-.11719.01172-.1328v-.14845l-.01172-.1328-.01562-.13282-.03125-.11719-.04297-.10547-.04688-.10547-.04296-.10156-.04297-.10547-.01563-.13281.01563-.13281.02734-.11719.03125-.11719.02735-.1211.04687-.10155.08984-.0586.08594-.0625.07422-.07422.08984-.05859.22266-.22266.0586-.08593.07421-.07422.11719-.17969.0586-.08594v-.14844l-.07423-.07421-.10156-.04688-.10547-.04297-.10156-.04297-.0586-.08984-.04687-.10547-.02734-.11719.08984-.05859.11719-.03125.10156-.04297.17969-.11719.14844-.14843.01172-.13282-.01172-.10546-.08985-.0586-.1328.01563h-.14845l-.1328.01562-.13282-.01562-.1211-.03125-.08593-.0586-.07422-.07422-.0586-.08984-.0625-.08594-.11718-.17969-.0586-.08593.03125-.1211.08594-.05859.1211-.03125.05859-.08594v-.1211l-.03125-.11718-.0586-.08984-.05859-.08594-.04687-.10547-.02735-.11719-.01562-.1328.0586-.08985.07421-.07422.08984-.0586.1172-.17968.07421-.07422.0586-.08594.14843-.14844.1211-.03125.1328-.01562.13282.01562.07422.07422.04297.10547.01562.13281-.03125.1172-.11719.03124-.1328.01172-.14844.14844-.04297.10547-.04688.10156-.02734.1211-.03125.11718v.14844l.03125.11719.04297.10546.05859.08985.07422.07031.07422.07422.11719.03125.12109.02734.11719-.02734.1328-.01563h.1172l.08984.0586.07422.07422.04687.10546.0586.08594.10156.04688.13281.01562.10547.04297.08594.0586-.01172.10546-.07422.07422-.17969.11719-.05859.08984-.08984.0586-.07032.07422-.07421.07421-.0625.08985-.02735.11719-.01562.1328.01562.13282-.01562.13281v.14844l.01562.13281.02735.1172.03125.12108.07421.07422.08985.0586.08594.0586.08984.05858.11719.03125v.08594l-.10157.04688-.08984.0586-.26563.03124-.11718.02735h-.14844l-.10547.04296-.10156.04688-.0586.08984-.0625.23438-.01171.13281-.03125.1211-.01563.1328v.29298l-.01172.1328.01172.13673.01563.1328.1328.01563.13282.01172.1211.03125.08593.0586.07422.07421.04688.10547.04296.10157.01563.1328v.44532l-.01563.13281v.44532l.03125.26562.02735.11719.01562.13281.03125.11719.08594.21094.03125.26562v.14844l-.03125.11719-.02734.11718-.03125.1211-.02735.11719-.03125.11718-.03125.1211-.01171.1328-.01563.13282.08984.0586.1172-.03125.10155.01562.04688.10547-.03125.26562v.44141l-.04297.10547-.04688.10547-.04296.10156-.04297.10547-.0586.08594-.03125.12109-.04296.11719-.03125.11719-.01563.1328.01563.13282.05859.08984.10547.04688.08594.0586.05859.08593-.01172.13672-.03125.11719-.04297.10156v.44531l-.01562.13281v.14844l-.03125.11719-.04297.10547-.02735.11719-.04687.10546-.04297.10157-.03125.12109-.02734.11719-.03125.13281-.03125.11719-.02735.11719-.04297.10546-.03125.1172-.03125.12108-.01171.13282-.01563.13281v.29688l.02734.11718v.14844l.04688.39844.02734.11719.0586.08984.12109.03125h.14844l.13281-.01563.0586.08985v.11719l-.0586.08984-.08984.0586-.10157.04296-.10546.04688-.08985.05859-.08594.0586-.13671.01562-.1172-.03125-.1328-.01563-.10157.04688-.0625.08594-.01172.13671-.01562.13282-.03125.11719-.02735.11718-.01562.13281-.03125.1211v.29687l.01563.13282.03125.11718v.14844l.01171.13281v.14844l-.02734.11719-.04688.10156-.02734.1211-.03125.11718-.0586.08985-.07421.07421-.10156.04297-.10547.04688-.11719.02734-.1211.03125-.10156-.04687.0586-.08594.10547-.04688.02734-.11718.03125-.11719.02734-.1211.03125-.11718v-.14844l.01563-.13281-.03125-.11719-.04297-.10547-.10547.01563-.07422.07422-.10156.04296-.08984.0625-.07422.07422-.04297.10157-.01563.1328-.03125.1172L304.25 426l-.03125.11719-.02734.11719-.03125.12109-.02735.11719-.03125.11718-.04297.10547-.08984.0586h-.08984l-.1172-.03125-.03124-.08594.01562-.13672-.03125-.11719v-.14844l-.01171-.1328v-.14844l-.0625-.23438-.02735-.1211-.04297-.10156-.04687-.10546-.0586-.08594-.05859-.08985-.04297-.10546-.0625-.08594-.14844-.14844-.0703-.07422-.10548-.04687-.10547-.04297-.10156-.04297-.29687-.29688-.08985-.07421-.08594-.0586-.10546-.04297-.08985-.0625-.08594-.0586-.10546-.04296-.08985-.0586-.08594-.0625-.07421-.0703-.10547-.04688-.08594-.0586-.10547-.04296-.08984-.0625-.10156-.04297-.10547-.04297-.08594-.0586-.10547-.04687-.10547-.04297-.10156-.04687-.08985-.0586-.10156-.04297-.10547-.04296-.08984-.0625-.11719-.02735-.13281-.01562-.13281.01562H299.75l-.13281.01563-.11719-.03125-.08984-.0586-.07422-.07422-.08985-.05859-.10156-.04688h-.14844l-.12109-.02734-.10156-.04297-.07422-.07422-.11719-.17968-.08984-.0586-.10156-.04297-.08985-.0625-.10547-.04296-.08984-.0586-.08594-.0586-.10547-.04687-.0586-.08594-.05858-.08984-.04297-.10547-.04688-.10156-.07422-.07422-.08594-.0586-.07421-.07421-.08985-.0586-.22265-.22265-.04297-.10547-.03125-.26563.10547-.04296h.14453l.10547.04296.07421.07422.08985.0586.08594.0586.10546.04687.08985.05859.14844.14844.0703.07422.14845.14843.0625.08594.07421.07422.08594.0586.07422.07421.08985.0625.08984.0586.08594.05859.26953.17578.10156.04688.10547.04296.10156.04297.04688-.07421.05859-.08594.07422-.07422.07031-.07422.10547.04297.07422.07422.0586.08984.04296.10156.04688.10547.04296.10547.1211.02735.11719-.02735.07421-.08984.04297-.10547.0586-.08985.07422-.07421.10546-.04297.1172-.02735.1328.01172.08985.0586.14844.14843.05859.08985.04297.10547.04687.10156.04297.10547.04297.10156.10547.04688.10547.04296.13281.01563.08594-.0586.0586-.08984.07421-.07422.10547-.04297.11719.02735.10547.04687.10156.04297.10547.04297.10156.04688.17969.11718v.11719l-.01563.13281.01563.13281.01562.13672.0586.08594.10156.04688.1211.02734.11718.03125h.14844l.11719-.03125.05859-.08984.17969-.1172.05859-.08983.07422-.07422.0586-.08594.11718-.17969.17969-.11719.11719.03125.08984.0586.04297.07422-.01563.1328v.1172l.08985.05859h.14843l.13282-.01563.1328-.01171.26563-.03125.10547-.04297.11719-.03125.1211-.02735.07421-.07421.07031-.07422.0625-.08985-.01562-.10547-.04688-.10156-.10156-.04297-.10547-.01562-.11718.02734-.26563.03125h-.14844l-.07421-.07422-.08985-.0586-.11719-.03124-.11718-.02735-.13282-.01562h-.14843l-.13282.01563h-.29687l-.10547-.04688-.14844-.14844-.04297-.10156-.05859-.08984.22266-.22266.08593-.0586.10547-.04296.11719-.03125.13281-.01563.13281.01563.13672.01562.10157.04297.1328-.01172.08985-.0625.10156-.04297.0625-.08984-.04687-.10156-.08984-.0586-.1172-.03125-.10155-.04296-.0586-.08985-.0625-.08984v-.11719l.01563-.13281.10547-.04688.07421-.07031v-.1211l-.08984-.05859-.03125-.11719.08985-.05859.07421-.07422.04297-.10547.0586-.08984.04687-.10156.01563-.13281v-.14844l-.04688-.10547-.04297-.10156-.08984-.0586-.13281-.01562-.10157-.04297-.13671-.01563-.1172-.03125h-.4453l-.13282-.01562-.13281-.01172-.13281-.01563-.11719-.03125h-.14844l-.13281-.01562-.13281-.01172-.26563-.03125-.1211-.04297-.08593-.0586-.07422-.07421v-.14844l.01172-.13281.10547-.04688.10156-.04296.13281-.01563h.15235l.13281-.01562h.29297l.1211.03125.10156.04296.08984.0586.23438.0625.12109-.04688.08984-.05859.10156-.04297.13282-.01562.10547.04296.10156.04688.13281.01172.1211-.02735h.14453l.12109-.03125.11719-.02734.10547-.04687.07421-.07422.08594-.0586.14844-.14843.0586-.08594.04687-.10547.02734-.11719.01563-.10547-.10156-.04296-.08985-.0586-.11719-.03125-.10546-.04297-.08985-.0625-.07422-.08594-.07422-.07421-.10156-.04297-.10547-.04688-.10156-.04297-.0586-.08984-.04687-.10156-.08594-.21094-.0625-.08594-.05859-.08984-.07422-.07422-.08594-.0586h-.26953l-.11719.03126-.08984.05859-.10156.04297-.13281.01562-.10547-.01562-.02735-.11719-.0625-.08984-.11718-.03125-.10157-.04297-.14843-.14844-.03125-.11719-.01563-.10546.07422-.07422.17969-.1172.11719-.02733.11718-.03125.13672.01562.10156.04297.10547.04297.10156.04687.10547.04297.1172.03125.1328.01563.1172.02734.1328.01563.10547-.01563.08985-.0586-.07422-.07421-.10547-.04297-.07422-.07422-.07422-.08984-.14844-.14844-.08593-.0586-.08985-.05859-.07422-.07422-.08984-.0586-.10156-.04687-.1211-.02734-.10156-.04688-.10547-.04296-.11719-.03125-.10156-.04297-.1211-.03125h-.14843l-.11719.03125-.10546.04297-.08594.0625-.17969.11718-.08594.0586-.08984.0586-.10547.04687-.08594.05859-.10547.04297-.10156.04297-.10547.04687-.07422.07422-.05859.08985-.0586.08593-.04687.10547-.0586.08594-.07421.07422-.13281-.01172-.1172-.03125h-.11718l-.07422.07422-.08984.0586-.07422.07421-.08984.0586-.08594.05859-.10547.04687-.10156.04297-.13672.01563-.10156-.04297-.14844-.14844-.10547-.04688h-.08594l-.10547.04688-.10156.04297-.1211.03125-.11718-.03125-.07422-.07422v-.11719l.03125-.1211.07422-.0703.0586-.08985.07421-.07422.11719-.03125.10547-.04296h.29297l.13281-.01563.13672-.01563.10156-.04296.08985-.0586.10156-.04687.08984-.0586.13281-.01171.08985.05859.13281.01172.08984-.0586.08594-.05859.10547-.04297.08984-.0586.08594-.0625.08985-.05859.14843-.14843.0586-.08594.05859-.08985.10547-.04296.13281-.01563.11719.02735.1211.03125.05859-.0586.05859-.08984.03125-.26563.02734-.11719.10547.01172.13281.01563.10157-.04297.08984-.0586.0586-.08984.07421-.07422.0586-.08984.04687-.10156.01172-.13281-.01172-.13282-.04687-.10547-.14844-.14843-.0586-.08985-.05859-.08594-.04297-.10546v-.44532l.01563-.1328v-.14845l.01172-.1328-.0586-.0586-.08984.0586-.10156-.04298-.17969-.11719-.08594-.05859-.0625-.08984-.0586-.08985-.07421-.07421-.08594-.0586-.1211.03125-.10155.01172-.10547.04688-.08594.05859-.10547.04297-.14844.14844-.08984.05859-.08594.0586-.08984.0625-.10547.04296-.13281.01563v-.1211l.10547-.04297.11718-.03125.07422-.0703.04297-.10548v-.14844l-.02734-.11718-.14844-.14844-.13281-.01563h-.14844l-.11719.03125-.10547.04297-.10156.04297-.08984.0625-.11719.02735-.07422-.07422.01172-.13281-.04297-.10157-.04297-.10547-.08984-.05859-.11719.02734-.1211.03125-.11718.03125-.10156.04297-.1211.03125-.10156.04297-.10547.04297-.08984.0586-.10156.01562v-.11719l.01562-.13281-.0586-.08985-.07421.04297-.14844.14844-.0586.08985-.07421.07421-.04688.10547-.04296.10156-.07422.07422-.0586.08985-.07422.07422-.05859.08593-.07422.07422-.08984.0625-.07422.07031-.07422.07422-.10156.01563-.13281.01562-.10547-.04296v-.1211l.14843-.14844.04297-.10156.0586-.08984.04687-.10156.04297-.10547.0586-.08985.03124-.11719.04297-.10156.03125-.1211.02735-.11718.04687-.10547.04297-.10156.04297-.10547.07422-.07031.08984-.0625.08985-.0586.10156-.04296h.29687l.26563-.03125.10547-.04297-.07422-.07422-.11719-.03125-.10547-.04297-.08984-.0586-.10156-.04687-.08985-.0586-.10156-.04296-.10547-.04297-.08984-.0625-.08594-.0586-.10547-.04296-.10156-.04297-.1211-.03125-.11718-.03125-.10157-.04297L297.5 410.25l-.10156-.04297-.08985-.0586-.04296-.10546-.01563-.13281.10156-.04297.13281-.01563.13672.01563.13282-.01563.10156-.04297.0586-.08984.01562-.10547-.08985-.0586-.07421-.07421-.10157-.04297-.08984-.0586-.14844-.14843-.04297-.10547-.01562-.13281v-.29297l-.0586-.08985-.08984-.05859-.07422-.07422-.04297-.10547-.03125-.11718-.0586-.08985-.07421-.07422-.11719-.02734-.07422-.07422-.08984-.0586-.08984-.0625-.08594-.05859-.07422-.07421-.0586-.08594-.04687-.10547-.08594-.0586-.14843-.14843-.19532-.0586-.1328.01563-.10157.04297-.07422.07422-.04688.10156-.04296.10547-.0586.08984-.0586.08594-.29687.29687-.08984.0586h-.08594l-.0625-.08594-.04297-.10547.03125-.11719.0586-.08984.02734-.11719-.01172-.13281-.08984-.0625-.10547.04688-.11719.02734-.11719.03125-.26953.17578-.10156.04688-.11719.02734-.10546.04687-.08985.0586-.10156.04297-.0586-.08594-.04687-.10547.01563-.13281.04687-.10547.07031-.07422.07422-.07031.0586-.08985v-.14843l-.04297-.10547h-.23829l-.10156.04687-.03125.11719-.02734.11719-.03125.1211-.07422.04296-.13281.01563-.07422-.04688-.04297-.10156-.04297-.10547-.04687-.10156-.04297-.10547-.1211.03125-.10156.04297-.13281.01562-.11719.03125-.10547.04297-.08984.0586-.10156.04687-.1211.02734-.13281.01563-.10156-.04297-.0586-.08985-.04687-.10546-.04297-.10157-.04297-.10546v-.1172l.0586-.08984.08593-.05859.17969-.11719.10156-.04687.10547-.04297.10547-.0586.10156-.04296.08985-.0625.10156-.04297.10547-.0586.10156-.04687.08984-.0586.10547-.04296.10156-.04297.08985-.0625.10156-.04297.13672-.01563.11719.03125.10156.04297.1211.03125.10156.04297.10546.04688.10157.04296.10547.04297.10156.04688.10547.04297.10156.04297.10547.04687.08594.0586.10546.04296.1172.03125.10546.04297.10156.04688.08985.0586.10547.04296.10156.04297.10547.04687.11719.02735.10156.04687.1211.02735h.14843l.08594-.0586.01562-.10156.0586-.08984-.02735-.1172-.07422-.07421-.11719-.17969-.07421-.07422-.08985-.07421-.17969-.1172-.08593-.05859-.10547-.04296-.10156-.04688-.26954-.17578-.05859-.08985-.07422-.07421-.0586-.08985-.04296-.10156-.03125-.11719-.01563-.13672v-.5625l-.01171-.1328-.01563-.13282-.03125-.11719-.01562-.13281-.01172-.13281-.03125-.1211-.22266-.22265-.0586-.08594-.01562-.10547.03125-.11719.13281-.01562v-91.41406H172.9922v1.45312l-.0586.23438-.35156 1.05078-.17187.52343-.1172.34766-.17577.41016-.11719.17187-.23438.29297-.23046.0586h-.35157l-.11718.05859-.23047.40625v.29297l.11719.17578.23046.23047.1172.23437.64062.75781.29297.46485.17578.23437.23047.35156.23437.34766.64063.8164.17578.46485.17187.41016.11719.69531.17578.46875.11719 1.39844.0586.46484v.875l.11718 1.04688v4.78125l-.0586.46484-.35156 1.28125-.17578.52344-.11328.41015-.35156.9297L172.93359 336l-.23437.58203-.11719.17578-.17187.34766-.17578.40625-.35157.8164-.0586.29297-.11327.29297-.11719.28906-.0586.17579-.11718.875-.0586.40625-.05859.11718-.0586.17579-.05859.17187-.23047.52734-.11718.17188v.23437l-.11719.23438-.0586.17187-.17577.58594v.28906l-.0586.17579v.29296l-.0586.11329-.05859.52734v.17187l-.05468.23438v2.6211l-.17578.8164-.1172.17578-.17577.23438-.1172.17187-.11327.23438-.58594.93359-.23047.28906-.29297.46485-.17578.23437-.28906.35156-.35156.69922-.11328.23047-.17579.41016-.17578.23046-.40625.52735-.8164.69922-.29297.17187-.28906.23438-.17579.11719-.17578.17578-.52344.40625-.52734.17578-.17187.17578-.23438.05469-.64062.17578h-.75782m12.21094 31.02344l-1.07422.44921.35938.89454 1.25-.71485.44531-.53906-.98047-.08985"/><path fill="#d3d3d3" fill-opacity="0" fill-rule="evenodd" d="M201.50781 416.59766h-.89453l.44922.6289.98047.35938.80469-.08985.4453-.98828-.17577.08985-.71485-.35547-.89453.35547m154.6211 59.0703l-.0586-.52343v-.29297l.11328-.29297.0586-.23046.46875-.46875h.11328l.11719-.11329.11718-.05859h.17579l.23437-.0586h.34766l.23437.0586.11719.0586.23047.17187.0586.17578.11718.58203v.29297l-.11719.17578-.17187.28906-.17579.17579-.52734.52343-.23047.23438-.11719.0586h-.17578l-.11718-.0586-.40625-.29297-.17579-.11719-.11718-.0586-.0586-.11327-.05468-.1172m6.64062-10.95702l-.0586-.17188v-1.10937l.0586-.17188.17578-.0586.17188-.05858h.17578l.23437-.0586.1172.0586.05858.69921-.05859.17188-.11719.17578-.11718.0586-.23438.52343-.11328.0586h-.23438l-.05859-.1172m9.61328-14.39062l-.11719-.17578v-.69922l.29297-.875.1172-.17187.17577-.35156.11328-.23047.1172-.29297.35155-.75781.1172-.23047.17187-.23438h.17578l.11719-.0586h.64062l.11719.0586.23437.23438.17188.11328.35156.29297.11719.11718.11328.17579v.11328l.11719.05859.11718.11719v.69922l-.05859.17578v.23047l-.0586.17578-.34765 1.05078-.11719.23047-.11719.23437-.11718.0586-.23047.23437-.64063.28906h-.875l-.41015-.11718-.64063-.46485"/><path fill="none" stroke="#bebebe" stroke-linecap="round" stroke-linejoin="round" stroke-miterlimit="10" stroke-width=".5" d="M467.95703 311.69531H144.02734v168.625h323.9297v-168.625"/><g clip-path="url(#a)"><path fill="#fff" fill-opacity="0" fill-rule="evenodd" d="M144 475.89063v4.4375h.0039H144V311.67188h.0039H144v164.21875"/></g><g clip-path="url(#b)"><path fill="#fff" fill-opacity="0" fill-rule="evenodd" d="M144.0039 480.32813V311.67188h17.75v138.55468l-1.3203 3.47266-2.41798 4.4375.375 4.4375 3.36329 3.3086 4.4375-.3086 4.4375-.92969 4.4375-.3086 4.4414 1.25391 4.10938-3.01562.32812-.40625 4.4375-1.70703 3.72266-2.32422-3.72266-3.71875-2.58203-.71875-1.85547-.7461-.6211.7461-3.8164.64062-4.4414 1.47657-4.4375 2.29687-4.4375-.75-2.16797-3.66406-2.26953-3.47266V311.67187h71.01172v121.60938l-2.6172 2.66406 2.6172 2.60547 2.65234-2.60547-2.65234-2.66406V311.67187h235.23046v168.65625H144.00391"/></g><path fill="#50fcfc" fill-rule="evenodd" d="M158.39063 462.57422l-.375-4.4375 2.41796-4.4375 1.32032-3.47266v5.11328l-2.14063 2.79688.64063 4.4375 1.5 1.47656 4.4375-.67578 2.04297-.80078-2.04297-1.22266-1.84766-3.21484-2.58984-2.79688v-5.11328l2.26953 3.47266 2.16797 3.66406 4.4375.75 4.4375-2.29687 4.4414-1.47657v1.72266l-2.96094 2.07422 1.46485 4.4375 1.4961.6875.93359-.6875 3.5039-4.34375.1836-.09375-.1836-.11328-4.4375-1.96094v-1.72266l3.8164-.64062.6211-.7461 1.85547.7461 2.58203.71875 3.72266 3.71875-3.72266 2.32422-4.4375 1.70703-.32812.40625-4.10938 3.01562-4.4414-1.2539-4.4375.3086-4.4375.92968-4.4375.3086-3.36328-3.3086"/><path fill="#00e8fc" fill-rule="evenodd" d="M160.2539 462.57422l-.64062-4.4375 2.14063-2.79688 2.58984 2.79688 1.84766 3.21484 2.04297 1.22266-2.04297.80078-4.4375.67578-1.5-1.47656m17.7578 0l-1.46483-4.4375 2.96093-2.07422 4.4375 1.96094.1836.11328-.1836.09375-3.5039 4.34375-.9336.6875-1.4961-.6875"/><path fill="#50fcfc" fill-rule="evenodd" d="M232.76563 438.55078l-2.6172-2.60547 2.6172-2.66406 2.65234 2.66406-2.65234 2.60547"/><g clip-path="url(#c)"><path fill="#fff" fill-opacity="0" fill-rule="evenodd" d="M467.9961 480.32813H468V311.67188h-.0039H468v168.65625h-.0039"/></g><g clip-path="url(#d)"><path fill="none" stroke="#000" stroke-linecap="round" stroke-linejoin="round" stroke-miterlimit="10" stroke-width=".5" d="M147.5 480.64453l-7-.63281"/></g><g clip-path="url(#e)"><path fill="none" stroke="#000" stroke-linecap="round" stroke-linejoin="round" stroke-miterlimit="10" stroke-width=".5" d="M147.5 480.64453l.94922 2.26172"/></g><g clip-path="url(#f)"><path fill="none" stroke="#000" stroke-linecap="round" stroke-linejoin="round" stroke-miterlimit="10" stroke-width=".5" d="M160.80469 480.73438l-6.98047-.8125"/></g><g clip-path="url(#g)"><path fill="none" stroke="#000" stroke-linecap="round" stroke-linejoin="round" stroke-miterlimit="10" stroke-width=".5" d="M160.80469 480.73438l.89453 2.28515"/></g><g clip-path="url(#h)"><path fill="none" stroke="#000" stroke-linecap="round" stroke-linejoin="round" stroke-miterlimit="10" stroke-width=".5" d="M174.14063 480.48047l-7.01954-.30469"/></g><g clip-path="url(#i)"><path fill="none" stroke="#000" stroke-linecap="round" stroke-linejoin="round" stroke-miterlimit="10" stroke-width=".5" d="M174.14063 480.48047l1.05468 2.21484"/></g><g clip-path="url(#j)"><path fill="none" stroke="#000" stroke-linecap="round" stroke-linejoin="round" stroke-miterlimit="10" stroke-width=".5" d="M173.11719 480.4375l.53125 1.10938"/></g><g clip-path="url(#k)"><path fill="none" stroke="#000" stroke-linecap="round" stroke-linejoin="round" stroke-miterlimit="10" stroke-width=".5" d="M187.45703 480.35547l-7.02344-.05469"/></g><g clip-path="url(#l)"><path fill="none" stroke="#000" stroke-linecap="round" stroke-linejoin="round" stroke-miterlimit="10" stroke-width=".5" d="M187.45703 480.35547l1.13672 2.17578"/></g><g clip-path="url(#m)"><path fill="none" stroke="#000" stroke-linecap="round" stroke-linejoin="round" stroke-miterlimit="10" stroke-width=".5" d="M186.4375 480.34766l.5664 1.08593"/></g><g clip-path="url(#n)"><path fill="none" stroke="#000" stroke-linecap="round" stroke-linejoin="round" stroke-miterlimit="10" stroke-width=".5" d="M200.77344 480.30078l-7.02735.05469"/></g><g clip-path="url(#o)"><path fill="none" stroke="#000" stroke-linecap="round" stroke-linejoin="round" stroke-miterlimit="10" stroke-width=".5" d="M200.77344 480.30078l1.16797 2.16016"/></g><g clip-path="url(#p)"><path fill="none" stroke="#000" stroke-linecap="round" stroke-linejoin="round" stroke-miterlimit="10" stroke-width=".5" d="M199.75 480.3086l.58594 1.08202"/></g><g clip-path="url(#q)"><path fill="none" stroke="#000" stroke-linecap="round" stroke-linejoin="round" stroke-miterlimit="10" stroke-width=".5" d="M214.08203 480.13281l-7.01562.39063"/></g><g clip-path="url(#r)"><path fill="none" stroke="#000" stroke-linecap="round" stroke-linejoin="round" stroke-miterlimit="10" stroke-width=".5" d="M214.08203 480.13281l1.27344 2.09766"/></g><g clip-path="url(#s)"><path fill="none" stroke="#000" stroke-linecap="round" stroke-linejoin="round" stroke-miterlimit="10" stroke-width=".5" d="M213.0625 480.1914l.63672 1.04688"/></g><g clip-path="url(#t)"><path fill="none" stroke="#000" stroke-linecap="round" stroke-linejoin="round" stroke-miterlimit="10" stroke-width=".5" d="M227.39453 480.0625l-7.00781.53516"/></g><g clip-path="url(#u)"><path fill="none" stroke="#000" stroke-linecap="round" stroke-linejoin="round" stroke-miterlimit="10" stroke-width=".5" d="M227.39453 480.0625l1.3125 2.07031"/></g><g clip-path="url(#v)"><path fill="none" stroke="#000" stroke-linecap="round" stroke-linejoin="round" stroke-miterlimit="10" stroke-width=".5" d="M240.70703 480.01953l-7 .61719"/></g><g clip-path="url(#w)"><path fill="none" stroke="#000" stroke-linecap="round" stroke-linejoin="round" stroke-miterlimit="10" stroke-width=".5" d="M240.70703 480.01953l1.33594 2.0586"/></g><g clip-path="url(#x)"><path fill="none" stroke="#000" stroke-linecap="round" stroke-linejoin="round" stroke-miterlimit="10" stroke-width=".5" d="M253.96875 479.66016L247.07031 481"/></g><g clip-path="url(#y)"><path fill="none" stroke="#000" stroke-linecap="round" stroke-linejoin="round" stroke-miterlimit="10" stroke-width=".5" d="M253.96875 479.66016l1.54297 1.90625"/></g><g clip-path="url(#z)"><path fill="none" stroke="#000" stroke-linecap="round" stroke-linejoin="round" stroke-miterlimit="10" stroke-width=".5" d="M267.16016 479.19531l-6.64844 2.26563"/></g><g clip-path="url(#A)"><path fill="none" stroke="#000" stroke-linecap="round" stroke-linejoin="round" stroke-miterlimit="10" stroke-width=".5" d="M267.16016 479.19531l1.78906 1.67969"/></g><g clip-path="url(#B)"><path fill="none" stroke="#000" stroke-linecap="round" stroke-linejoin="round" stroke-miterlimit="10" stroke-width=".5" d="M280.2539 478.67969l-6.20702 3.29687"/></g><g clip-path="url(#C)"><path fill="none" stroke="#000" stroke-linecap="round" stroke-linejoin="round" stroke-miterlimit="10" stroke-width=".5" d="M280.2539 478.67969l2.03516 1.375"/></g><g clip-path="url(#D)"><path fill="none" stroke="#000" stroke-linecap="round" stroke-linejoin="round" stroke-miterlimit="10" stroke-width=".5" d="M293.625 478.79297l-6.32031 3.07422"/></g><g clip-path="url(#E)"><path fill="none" stroke="#000" stroke-linecap="round" stroke-linejoin="round" stroke-miterlimit="10" stroke-width=".5" d="M292.70703 479.23828l.99219.72266"/></g><g clip-path="url(#F)"><path fill="none" stroke="#000" stroke-linecap="round" stroke-linejoin="round" stroke-miterlimit="10" stroke-width=".5" d="M307.09375 479.15625l-6.625 2.34766"/></g><g clip-path="url(#G)"><path fill="none" stroke="#000" stroke-linecap="round" stroke-linejoin="round" stroke-miterlimit="10" stroke-width=".5" d="M306.1289 479.4961l.90626.82812"/></g><g clip-path="url(#H)"><path fill="none" stroke="#000" stroke-linecap="round" stroke-linejoin="round" stroke-miterlimit="10" stroke-width=".5" d="M320.1914 478.66406L314 481.9922"/></g><g clip-path="url(#I)"><path fill="none" stroke="#000" stroke-linecap="round" stroke-linejoin="round" stroke-miterlimit="10" stroke-width=".5" d="M319.28906 479.14844l1.01953.6836"/></g><g clip-path="url(#J)"><path fill="none" stroke="#000" stroke-linecap="round" stroke-linejoin="round" stroke-miterlimit="10" stroke-width=".5" d="M332.61328 477.58984l-4.40625 5.47657"/></g><path fill="none" stroke="#000" stroke-linecap="round" stroke-linejoin="round" stroke-miterlimit="10" stroke-width=".5" d="M331.97266 478.38672l1.20312.23047"/><g clip-path="url(#K)"><path fill="none" stroke="#000" stroke-linecap="round" stroke-linejoin="round" stroke-miterlimit="10" stroke-width=".5" d="M344 476.82422l-.55078 7.00781"/></g><path fill="none" stroke="#000" stroke-linecap="round" stroke-linejoin="round" stroke-miterlimit="10" stroke-width=".5" d="M343.92188 477.84375l1.125-.48828"/><g clip-path="url(#L)"><path fill="none" stroke="#000" stroke-linecap="round" stroke-linejoin="round" stroke-miterlimit="10" stroke-width=".5" d="M356.48438 476.85938l1.11328 6.9375"/></g><path fill="none" stroke="#000" stroke-linecap="round" stroke-linejoin="round" stroke-miterlimit="10" stroke-width=".5" d="M356.64844 477.86719l.97656-.73828"/><g clip-path="url(#M)"><path fill="none" stroke="#000" stroke-linecap="round" stroke-linejoin="round" stroke-miterlimit="10" stroke-width=".5" d="M369.64063 476.88672l1.42968 6.88281"/></g><path fill="none" stroke="#000" stroke-linecap="round" stroke-linejoin="round" stroke-miterlimit="10" stroke-width=".5" d="M369.85156 477.89063l.9414-.78516"/><g clip-path="url(#N)"><path fill="none" stroke="#000" stroke-linecap="round" stroke-linejoin="round" stroke-miterlimit="10" stroke-width=".5" d="M387.00781 479.23047l-6.67187 2.19922"/></g><g clip-path="url(#O)"><path fill="none" stroke="#000" stroke-linecap="round" stroke-linejoin="round" stroke-miterlimit="10" stroke-width=".5" d="M395.55078 477.1211l2.8711 6.41406"/></g><g clip-path="url(#P)"><path fill="none" stroke="#000" stroke-linecap="round" stroke-linejoin="round" stroke-miterlimit="10" stroke-width=".5" d="M410.61719 476.82813l-.6289 7"/></g><path fill="none" stroke="#000" stroke-linecap="round" stroke-linejoin="round" stroke-miterlimit="10" stroke-width=".5" d="M410.52344 477.84766l1.13281-.47657"/><g clip-path="url(#Q)"><path fill="none" stroke="#000" stroke-linecap="round" stroke-linejoin="round" stroke-miterlimit="10" stroke-width=".5" d="M426.08203 477.82813l-4.9336 5.0039"/></g><path fill="none" stroke="#000" stroke-linecap="round" stroke-linejoin="round" stroke-miterlimit="10" stroke-width=".5" d="M426.08203 477.82813l2.35156.69921"/><g clip-path="url(#R)"><path fill="none" stroke="#000" stroke-linecap="round" stroke-linejoin="round" stroke-miterlimit="10" stroke-width=".5" d="M439.70313 478.16797l-5.54297 4.32031"/></g><path fill="none" stroke="#000" stroke-linecap="round" stroke-linejoin="round" stroke-miterlimit="10" stroke-width=".5" d="M439.70313 478.16797l2.24218 1.0039"/><g clip-path="url(#S)"><path fill="none" stroke="#000" stroke-linecap="round" stroke-linejoin="round" stroke-miterlimit="10" stroke-width=".5" d="M451.96484 477.26172l-3.4375 6.13281"/></g><path fill="none" stroke="#000" stroke-linecap="round" stroke-linejoin="round" stroke-miterlimit="10" stroke-width=".5" d="M451.46484 478.15625l1.22657.02734"/><g clip-path="url(#T)"><path fill="none" stroke="#000" stroke-linecap="round" stroke-linejoin="round" stroke-miterlimit="10" stroke-width=".5" d="M466.92969 479.32422l-6.73438 2.00781"/></g><g clip-path="url(#U)"><path fill="none" stroke="#000" stroke-linecap="round" stroke-linejoin="round" stroke-miterlimit="10" stroke-width=".5" d="M465.94922 479.61719l.85937.875"/></g><g clip-path="url(#V)"><path fill="none" stroke="#000" stroke-linecap="round" stroke-linejoin="round" stroke-miterlimit="10" stroke-width=".5" d="M147.46484 467.59766l-6.92968-1.16797"/></g><path fill="none" stroke="#000" stroke-linecap="round" stroke-linejoin="round" stroke-miterlimit="10" stroke-width=".5" d="M147.46484 467.59766l.77735 2.32422m12.52734-2.26954l-6.91016-1.27734m6.91016 1.27734l.73828 2.33985m12.61328-2.57813l-6.98047-.80078m6.98047.80078l.89453 2.28516m-1.91015-2.40235l.44922 1.14454m13.90234-1.26953l-7.02344-.31641m7.02344.3164l1.05078 2.21485m-2.07422-2.26172l.52735 1.10938m13.8086-1.01563l-7.01563-.41016m7.01562.41016l1.02344 2.23047m-2.04688-2.28906l.51172 1.11328m13.83203-1.29297l-7.02734.0664m7.02734-.0664l1.17188 2.15234m-2.19531-2.14453l.58593 1.07813m13.7422-1.30079l-7.00782.4961m7.00781-.4961l1.30469 2.07813m-2.32422-2.00781l.65234 1.04297m13.63672-1.47657l-6.91797 1.22266m6.91797-1.22266l1.51172 1.9336m-2.51562-1.75782l.7539.96875m13.38281-1.79687l-6.55468 2.52734m6.55469-2.52734l1.85546 1.60547m-2.80859-1.23828l.92969.80468m13.13672-1.60937l-6.14844 3.40234m6.14844-3.40234l2.05859 1.33984m-2.95313-.84375l1.02735.66797m12.9961-1.46484l-5.77735 4.0039m5.77734-4.0039l2.17969 1.1289m-3.01953-.54687l1.08984.5625m13.02735-1.19531l-5.70313 4.10547m5.70313-4.10547l2.19921 1.08203m-3.02734-.48438l1.09766.54297m13.10547-1.05469l-5.82032 3.9336m5.82032-3.9336l2.16796 1.14844m-3.01562-.57812l1.08594.57422m13.1289-1.07032l-5.92187 3.78516m5.92187-3.78516l2.13672 1.20703m11.20703-1.15625l-5.98437 3.6836m5.98437-3.6836l2.1172 1.23829m10.80077-1.76563l-5.1914 4.73828m4.4375-4.04687l1.15625.41015M359.5 464.50391l-4.91797 5.01953m4.20313-4.28906l1.17578.34765m11.95703-1.71484l-3.125 6.29297m3.125-6.29297l2.45312-.0664m9.1211-.29688l.35547 7.01953m-.30079-5.9961l1.05079-.6328m14.20312.11327l-3.6289 6.01563m3.6289-6.01563l2.45313.13282m11.01171-.03907l-3.92968 5.82422m3.92968-5.82422l2.44141.2539m10.35938-.54296l-2.90235 6.40234m2.90235-6.40234l2.44921-.15234m-2.87109 1.08593l1.22656-.07812m12.66407-.78125l-3.20704 6.2539m3.20704-6.2539l2.45312-.03516m-2.92187.94532l1.23046-.01954m13.44922-.23437l-4.99609 4.9414m4.9961-4.9414l2.33984.73047m11.6211.17578l-6.29298 3.1289"/><g clip-path="url(#W)"><path fill="none" stroke="#000" stroke-linecap="round" stroke-linejoin="round" stroke-miterlimit="10" stroke-width=".5" d="M466.70703 465.44922l1.9961 1.42578"/></g><g clip-path="url(#X)"><path fill="none" stroke="#000" stroke-linecap="round" stroke-linejoin="round" stroke-miterlimit="10" stroke-width=".5" d="M147.44922 454.3711l-6.89844-1.34766"/></g><path fill="none" stroke="#000" stroke-linecap="round" stroke-linejoin="round" stroke-miterlimit="10" stroke-width=".5" d="M147.44922 454.3711l.71484 2.34765m12.57813-2.23828l-6.85156-1.5625m6.85156 1.5625l.64062 2.36719m12.72266-2.62891l-6.94922-1.04297m6.94922 1.04297l.8164 2.3164m12.5-2.34374l-6.95703-.98828m6.95703.98828l.83594 2.30859m12.49219-2.39844l-6.98047-.8086m6.98047.8086l.89453 2.28516m12.42969-2.38281l-7-.60938m7 .60938l.96094 2.2578m12.36718-2.53124l-7.02343-.0625m7.02343.0625l1.13282 2.17578m12.15234-2.67969l-6.96484.9414m6.96484-.9414l1.42969 1.9961m11.83203-2.29297l-6.85547 1.53906m6.85547-1.53906l1.59766 1.85937m11.4375-2.64844l-6.29688 3.1172m6.29688-3.1172l1.99218 1.4297m-2.90625-.97657l.9961.71484m12.99609-1.57812l-5.82422 3.9336m5.82422-3.9336l2.16797 1.15234m-3.01563-.57812l1.08203.57422m12.83204-1.47266l-5.32422 4.58594m5.32422-4.58594l2.28515.89062m-3.0586-.22265l1.14063.44531m13.5547-.10156l-6.54298 2.5625m6.54297-2.5625l1.86328 1.59765m-2.8125-1.22656l.92969.80078m13.53125-.46875l-6.9336 1.15625m6.9336-1.15625l1.49219 1.94922m-2.5-1.78125l.7461.97266m13.36718-1.88672l-6.51172 2.64453m6.51172-2.64453l1.8789 1.57422m11.16797-2.09766l-5.97656 3.69531m5.97656-3.6953l2.1172 1.23827m-2.98829-.69922l1.0625.6172m13.60938.17968l-6.94922 1.02344m6.94921-1.02344l1.45704 1.97266m-2.46875-1.82422l.73046.98828m13.58985-1.1836l-6.9375 1.1172m6.9375-1.1172l1.48047 1.95704m-2.48828-1.79297l1.48046 1.95312m12.50782-3.14453l-6.26953 3.17188m6.26953-3.17188l2.00781 1.41406m-2.91797-.95312l1.0039.70703m13.35548-.875l-6.53516 2.58203m6.53516-2.58203L402.12109 454m11.1797-2.13281l-6 3.66406m6-3.66406l2.11327 1.25m-2.98828-.71485l1.0586.6211m12.97656-1.38672l-5.6914 4.1211m5.6914-4.1211l2.20312 1.08203m10.78516-1.47266l-5.03516 4.90235m5.03516-4.90235l2.33594.75m10.96484-.76562l-5.0039 4.9336m5.0039-4.9336l2.33984.73437m11.29688-.35937l-5.64844 4.1836"/><g clip-path="url(#Y)"><path fill="none" stroke="#000" stroke-linecap="round" stroke-linejoin="round" stroke-miterlimit="10" stroke-width=".5" d="M466.38672 451.60547l2.21484 1.0586"/></g><path fill="none" stroke="#000" stroke-linecap="round" stroke-linejoin="round" stroke-miterlimit="10" stroke-width=".5" d="M465.5625 452.21484l1.10938.52735"/><g clip-path="url(#Z)"><path fill="none" stroke="#000" stroke-linecap="round" stroke-linejoin="round" stroke-miterlimit="10" stroke-width=".5" d="M147.4375 441.10938l-6.875-1.45313"/></g><path fill="none" stroke="#000" stroke-linecap="round" stroke-linejoin="round" stroke-miterlimit="10" stroke-width=".5" d="M147.4375 441.10938l.67969 2.35937m12.59375-2.17969l-6.78906-1.8125m6.78906 1.8125l.55078 2.39063m-1.53906-2.65235L160 442.22266m13.96094-.71875l-6.66016-2.2422m6.66016 2.2422l.39844 2.42187m12.98828-2.66797l-6.8047-1.7461m6.8047 1.7461l.57812 2.38281m12.79297-2.63671l-6.91797-1.2422m6.91797 1.2422l.75 2.33593m12.57422-2.3828l-6.9336-1.14845m6.9336 1.14844l.78125 2.32813m12.57422-2.71094l-7.01563-.38281m7.01563.3828l1.03125 2.22657m11.48828-4.64844l-5.42578 4.46485m5.42578-4.46485l2.26562.9375m9.91016-1.84765l-3.14844 6.28125m3.14844-6.28125l2.45313-.0586m11.66796.61328l-4.7578 5.17188m4.7578-5.17188l2.3711.6172m-3.0664.13671l1.1875.3086m13.05077-.83204l-5.21484 4.71094m5.21484-4.71094l2.3086.83594M279 438.71484l1.15234.41407m12.375-1.58985l-4.125 5.6875m4.125-5.6875l2.4336.33985m-3.03125.48828l1.21484.16797m14.14453 1.63671l-7.01562.42188m7.01562-.42188l1.27735 2.09375m-2.30079-2.03125l.64063 1.04688m13.69531-1.13672l-7.01172.47656m7.01172-.47656l1.29688 2.08594m-2.3164-2.01563l.64843 1.04297m13.57031-1.80469l-6.77734 1.85938m6.77734-1.85938l1.6836 1.78516m-2.67188-1.51562l1.6836 1.78515m12.44921-2.52734l-6.4414 2.8086m6.4414-2.8086l1.92188 1.52344m-2.85938-1.1172l1.92188 1.52735m12.23047-2.14844l-6.23829 3.23829m5.33204-2.76954l1.0078.69922m13.58595.07032l-6.98438.7578m6.98438-.7578l1.3828 2.02734m-2.39843-1.91797l.6914 1.01563m13.48829.34375l-6.67969-2.17579m6.67969 2.17579l.42578 2.41406m13.00781-4.1289l-6.91797 1.2539m6.91797-1.2539l1.51953 1.92577m11.62891-2.52343l-6.58594 2.44921m6.58594-2.44921l1.83594 1.6289m-2.79297-1.27343l.91797.8164m13.16406-1.60156l-6.20313 3.30469m6.20313-3.3047l2.03516 1.3711m-2.9375-.89062l2.03515 1.3711m11.98047-2.1836l-5.80078 3.96875m5.80078-3.96875l2.17188 1.14062m-3.01563-.5625l2.17188 1.13672M453.21094 438.5l-5.92969 3.76563m5.92969-3.76563l2.13672 1.21094m-3-.66406l1.0703.60546m12.4297-1.9375l-4.57032 5.33594"/><g clip-path="url(#aa)"><path fill="none" stroke="#000" stroke-linecap="round" stroke-linejoin="round" stroke-miterlimit="10" stroke-width=".5" d="M465.84766 437.71484l2.39453.53516"/></g><g clip-path="url(#ab)"><path fill="none" stroke="#000" stroke-linecap="round" stroke-linejoin="round" stroke-miterlimit="10" stroke-width=".5" d="M147.38672 428l-6.77344-1.85938"/></g><path fill="none" stroke="#000" stroke-linecap="round" stroke-linejoin="round" stroke-miterlimit="10" stroke-width=".5" d="M147.38672 428l.53906 2.39063m12.67188-2.0625l-6.5625-2.51563m6.5625 2.51563l.29687 2.43359m12.72656-1.84766l-5.98047-3.6914m5.98047 3.6914l-.16015 2.44922m13.46484-2.4375l-5.96094-3.71484m5.96094 3.71484l-.16797 2.44922m13.75781-2.98828l-6.51171-2.63672m6.51172 2.63672l.2578 2.4414m13.1875-4.70703l-6.76952 1.89453m6.76953-1.89453l1.6914 1.77735m11.46875-2.21094l-6.46093 2.76172m5.51953-2.35938l.95703.76953m13.58203.11329l-7.02734.1914M239.6953 427l.60547 1.0664m13.4336-2.41406l-6.4297 2.83594m5.4961-2.42578l.96484.75781m13.25391-1.23437l-6.36719 2.96484m5.44141-2.53516l.98047.73829m13.4336-.71485l-6.71485 2.0625m6.71484-2.0625l1.73828 1.73047m11.66407-1.38672l-6.89063 1.3711m6.89063-1.3711l1.55468 1.89844m11.82813-1.25781l-7.02735.08984m7.02735-.08984l1.17969 2.15234m11.89843-3.375l-6.55078 2.53516m6.55078-2.53516l1.85938 1.60547m-2.8125-1.23438l.92969.80079m13.22656-1.4297l-6.32813 3.05079m6.32813-3.05078l1.98047 1.44922m-2.89844-1.00782l1.97656 1.45313m12.51563-1.17188l-6.84375 1.60547m6.84375-1.60547l1.61328 1.84766M346.15234 426.5l.8086.92187m13.59375-.43359l-7.02735.16016m7.02735-.16016l1.19922 2.14063m11.30468-4.3047l-5.40625 4.48829m4.6211-3.83594l1.13672.46875m12.51562-1.57422l-4.50781 5.39453m4.50781-5.39453l2.39844.50782m12.1289 1.61328l-6.93359 1.15234m6.9336-1.15234l1.49218 1.94531m-2.5-1.77734l.7461.97265m13.40625-1.78515l-6.58985 2.4414m6.58985-2.4414l1.83203 1.6289m-2.79297-1.27344l.91797.81641m13.0625-1.77734l-6.0039 3.65234m6.0039-3.65234l2.10937 1.25m-2.98047-.71875l2.10938 1.25m11.84375-2.1211l-5.53516 4.33203m5.53516-4.33203l2.24219.9961m-3.04688-.36328l2.24219.99609m12.01172-1.44531l-5.80078 3.96484m5.80078-3.96484l2.17187 1.13672m-3.01562-.5586l1.08593.5664m12.95313-1.30859l-5.5625 4.29297"/><g clip-path="url(#ac)"><path fill="none" stroke="#000" stroke-linecap="round" stroke-linejoin="round" stroke-miterlimit="10" stroke-width=".5" d="M466.34375 424.92188l2.23438 1.0078"/></g><path fill="none" stroke="#000" stroke-linecap="round" stroke-linejoin="round" stroke-miterlimit="10" stroke-width=".5" d="M465.53125 425.54688l1.1211.5039"/><g clip-path="url(#ad)"><path fill="none" stroke="#000" stroke-linecap="round" stroke-linejoin="round" stroke-miterlimit="10" stroke-width=".5" d="M147.4961 413.41016l-6.9922.6875"/></g><path fill="none" stroke="#000" stroke-linecap="round" stroke-linejoin="round" stroke-miterlimit="10" stroke-width=".5" d="M146.48047 413.50781l.67969 1.02344m13.66015-.51953l-7.00781-.51563m5.98828.44141l.49219 1.1211m13.83203-.94141l-6.98828-.72657m5.97266.6211l.46093 1.13672m13.88672-1.41407l-7.02344.03907m6.00391-.03516l.58203 1.08203m13.74219-1.33594l-7.0039.53907m7.0039-.53907l1.3164 2.07032m11.82813-.6875l-6.66406-2.23047m5.69531 1.90625l.20313 1.21094m14.22656-1.48047l-6.95313-1.03907m5.9414.88672l.40626 1.15625m13.95703-1.42578l-7.02344-.19922m7.02344.19922l1.08984 2.19922m12.17188-2.91016l-6.91797 1.22657m5.91016-1.04688l.7578.96485m13.56642-1.14063l-6.92188 1.21484m6.92188-1.21484l1.5078 1.9375m11.8125-1.90234l-6.93359 1.14453m6.9336-1.14453l1.48828 1.95312m11.69922-2.47265l-6.67969 2.18359m6.67969-2.1836l1.76953 1.70313m11.71875-.4961l-7.02344-.22656m7.02344.22657l1.08203 2.20312m12.19531-1.79687l-6.94922-1.03907m6.94922 1.03907l.82031 2.3125m12.48829-3.40625l-6.9336 1.14843m6.9336-1.14843l1.48828 1.94922m11.86718-1.59766l-7.01562.4414m7.01562-.4414l1.28516 2.08984m-2.3086-2.02343l.64454 1.04296m13.6875-1.17578l-7.0039.57813m7.0039-.57813l1.32812 2.0625m-2.34765-1.98047l.66406 1.03125m13.60547-1.5625l-6.8711 1.47266m6.8711-1.47266l1.57812 1.87891m-2.57812-1.66406l.78906.9414m13.17578-2.09765l-6.17187 3.35937m6.17187-3.35937l2.04688 1.35156m-2.94532-.86328l2.04688 1.35156m12.23828-1.69922l-6.3164 3.07422m6.3164-3.07422l1.98438 1.44532m-2.90235-.9961l1.98438 1.4414M413.1875 411.75l-5.77344 4.00781m5.77344-4.00781l2.1836 1.125m-3.02344-.54297l1.08984.5625m13.08594-1.11328l-5.8125 3.94531m5.8125-3.94531l2.17187 1.14453m-3.01562-.57031l1.08203.57031m13.08984-1.125l-5.83984 3.90625m5.83984-3.90625l2.16406 1.16016m-3.01171-.59375l1.07812.58203m12.91406-1.38281l-5.5 4.375m5.5-4.375l2.25.97656m-3.05078-.33985l2.25.97657m11.17188-2.27735l-4.10938 5.69922"/><g clip-path="url(#ae)"><path fill="none" stroke="#000" stroke-linecap="round" stroke-linejoin="round" stroke-miterlimit="10" stroke-width=".5" d="M465.61719 410.90234l2.42969.33203"/></g><path fill="none" stroke="#000" stroke-linecap="round" stroke-linejoin="round" stroke-miterlimit="10" stroke-width=".5" d="M465.01953 411.73438l2.42969.33203"/><g clip-path="url(#af)"><path fill="none" stroke="#000" stroke-linecap="round" stroke-linejoin="round" stroke-miterlimit="10" stroke-width=".5" d="M146.71875 398.21484l-5.4375 4.44922"/></g><path fill="none" stroke="#000" stroke-linecap="round" stroke-linejoin="round" stroke-miterlimit="10" stroke-width=".5" d="M146.71875 398.21484l2.26563.94922m9.61328-1.9961l-2.56641 6.54298m2.19531-5.58985l1.21875-.14062m14.67969 2.08984l-6.98828.73828m5.97266-.6328l.68359 1.01562m13.66406-.72266l-7.02344-.0586m7.02344.0586l1.13672 2.17578m12.03906-1.21484l-6.74219-1.98047m5.75782 1.6914l.25 1.20313m14.15625-1.40625l-6.95703-.9961m6.95703.9961l.83203 2.3086m12.49219-3.2422l-6.97657.8672m6.97657-.8672l1.41015 2.00782m-2.42578-1.8789l.70313 1.0039m13.64062-.96875l-7.0039.54297m7.0039-.54297l1.3164 2.07031m11.9336-2.53515l-6.8711 1.46875m6.8711-1.46875l1.57813 1.8789m11.71093-1.98047l-6.82422 1.67578m6.82422-1.67578l1.63672 1.82813m11.48438-2.40625l-6.4336 2.83203m6.4336-2.83203l1.92578 1.51562m11.3164-1.67187l-6.28515 3.14062m6.28515-3.14062l2 1.42187m11.44532-1.1211l-6.55078 2.54298m6.55078-2.54297l1.85937 1.60156m11.63672-.96094l-6.91015 1.26172m6.91015-1.26172l1.52344 1.92579m11.65234-2.45313l-6.63281 2.3164m6.63281-2.3164l1.80469 1.66406m11.63281-1.23828l-6.875 1.46094m6.875-1.46094l1.57422 1.88281m11.8125-1.33593l-7.01953.36718m7.01953-.36718l1.26172 2.10156m12.01563-2.45313l-6.94532 1.07422m6.94531-1.07422l1.46875 1.96485m-2.48046-1.8086l.73828.98047m13.14062-2.38672l-6.05078 3.57032m6.05078-3.57032l2.09375 1.28125m-2.97265-.76171l1.04687.64062m13.3711-.71094l-6.4961 2.67578m6.4961-2.67578l1.89062 1.5625m-2.83594-1.17578l.94531.78516m13.19922-1.42578l-6.26562 3.18359m6.26562-3.1836l2.00782 1.40626m-2.91797-.94532l1.0039.70704m12.77735-1.83594l-5.3789 4.51953m5.3789-4.51953l2.27734.91797m-3.0586-.26172l1.13673.45703m12.96484-1.11328l-5.38672 4.51562m5.38672-4.51562l2.27344.92187m-3.0586-.26562l1.13672.46094m13.38672-.48047l-6.23437 3.24609m6.23437-3.2461l2.02344 1.38673m-2.92969-.91407l1.01172.69531m12.97656-1.55468l-5.76562 4.01562"/><g clip-path="url(#ag)"><path fill="none" stroke="#000" stroke-linecap="round" stroke-linejoin="round" stroke-miterlimit="10" stroke-width=".5" d="M466.44531 398.42969l2.1836 1.1211"/></g><path fill="none" stroke="#000" stroke-linecap="round" stroke-linejoin="round" stroke-miterlimit="10" stroke-width=".5" d="M465.60547 399.01563l1.09375.55859"/><g clip-path="url(#ah)"><path fill="none" stroke="#000" stroke-linecap="round" stroke-linejoin="round" stroke-miterlimit="10" stroke-width=".5" d="M146.52344 384.67969l-5.04688 4.88672"/></g><path fill="none" stroke="#000" stroke-linecap="round" stroke-linejoin="round" stroke-miterlimit="10" stroke-width=".5" d="M146.52344 384.67969l2.33594.75781m-3.07032-.04688l1.16797.37891m12.98047-.98828l-5.24219 4.6836m5.24219-4.6836l2.30078.85156m11.84375 2.14453l-6.90234-1.30859m6.90234 1.3086l.73047 2.34374m12.58203-2.33593l-6.89844-1.32032m6.89844 1.32032l.72656 2.34375m12.23438-1.34375l-6.1914-3.32422m6.1914 3.32422l-.00781 2.45312m13.67968-3.46484l-6.90625-1.30078m6.90625 1.30078l.73047 2.34375m-1.73437-2.53125l.36328 1.17187m14.00781-1.91015l-7.00781.55078m7.00781-.55078l1.3164 2.0703m11.82813-2.90624l-6.66797 2.22265m6.66797-2.22265l1.77735 1.6914m11.54297-1.67187l-6.6797 2.1836m6.6797-2.1836l1.76953 1.69922m-2.7422-1.38281l.88673.85156m13.39844-1.17188l-6.67579 2.19141m6.67578-2.1914l1.77344 1.6953m11.5039-1.80468l-6.59765 2.41015m6.59766-2.41015l1.82812 1.64062m11.53907-1.49609l-6.69922 2.1211m6.69922-2.1211l1.75 1.71875m11.41796-2.09766l-6.41015 2.87891m6.41015-2.8789l1.94141 1.5039m11.4375-1.35547l-6.53516 2.58594m6.53516-2.58594l1.86719 1.58985m11.27734-1.96094l-6.1914 3.32422m6.1914-3.32422l2.03906 1.36328m11.33985-1.23438l-6.32031 3.06641m6.3203-3.0664l1.98438 1.44921m11.60938-.63672l-6.8789 1.44141m6.8789-1.4414l1.57031 1.8828m-2.57031-1.67187l.78515.9414m13.41016-1.58593l-6.63672 2.3086m6.63672-2.3086l1.80078 1.66406m-2.76953-1.32812l.90234.83203m13.25391-1.48438l-6.38281 2.94141m6.38281-2.9414l1.95313 1.48437m-2.88282-1.0586l.97657.7422m13.17968-1.33985l-6.20703 3.28515m6.20703-3.28515l2.03516 1.375m-2.9375-.89844l1.01562.6875m13.20704-1.15625l-6.21875 3.26953m6.21875-3.26953l2.02734 1.38281m-2.92969-.90625l1.01172.69141m12.61719-1.98047l-5.04297 4.89453m5.04297-4.89453l2.33594.7539m-3.07032-.04296l1.16797.3789m12.6211-1.33203l-4.51954 5.37891m4.51954-5.3789l2.40234.51171m-3.0586.26953l1.19922.25782m13.31641-.46485l-5.60937 4.23047m5.60937-4.23047l2.22656 1.03516m-3.04297-.42188l1.11329.51954m12.89843-1.28516l-5.36718 4.53515"/><g clip-path="url(#ai)"><path fill="none" stroke="#000" stroke-linecap="round" stroke-linejoin="round" stroke-miterlimit="10" stroke-width=".5" d="M466.2461 384.85547l2.27734.91015"/></g><g clip-path="url(#aj)"><path fill="none" stroke="#000" stroke-linecap="round" stroke-linejoin="round" stroke-miterlimit="10" stroke-width=".5" d="M146.85938 371.76563l-5.71875 4.08203"/></g><path fill="none" stroke="#000" stroke-linecap="round" stroke-linejoin="round" stroke-miterlimit="10" stroke-width=".5" d="M146.85938 371.76563l2.1953 1.09765m-3.02734-.5039l1.09766.55078m13.66016.35156l-6.94141 1.09375m6.9414-1.09375l1.47657 1.95703m-2.48438-1.80078l.73828.98047m13.58594-.05078l-6.94531-1.07813m6.94531 1.07813l.8086 2.3164m-1.81641-2.47265l.40234 1.15625m13.66016-.10938l-6.42188-2.85937m6.42188 2.85937l.16797 2.44922m13.44531-4.0664l-7.01953.37109m7.01953-.3711l1.26563 2.10547M214 373.02344l-6.84766 1.57031M214 373.02344l1.60547 1.85547m11.75781-1.59766l-6.94531 1.05469m6.94531-1.05469l1.46484 1.96875m-2.47656-1.8164l.73438.98437m13.58203-1.21485l-6.92188 1.21094m6.92188-1.21094l1.50781 1.9375m-2.51562-1.76171l.7539.96875m13.52735-1.33594l-6.84375 1.58984m6.84375-1.58984l1.61328 1.85156m-2.60938-1.61719l.8086.92188m13.45703-1.33594l-6.75 1.94922m6.75-1.94922l1.70703 1.76172m-2.6875-1.47656l.85156.8789m13.46094-1.10546l-6.78516 1.83593m6.78516-1.83594l1.67578 1.78907m11.67188-1.66406l-6.84766 1.58593m6.84765-1.58594L295.5 374.8672m-2.60547-1.6211l.80469.92579m13.47656-1.26172l-6.79297 1.79687m6.79297-1.79687l1.66797 1.79687m-2.65625-1.53515l.83594.89843m13.45312-1.21484l-6.76172 1.90234m6.76172-1.90234l1.69531 1.77344m-2.67968-1.4961l.84765.88672m13.47266-1.09375l-6.80078 1.76563m6.80078-1.76563l1.66016 1.8086m-2.64844-1.55079l.82812.90235m13.42188-1.34375l-6.69531 2.13281m6.6953-2.13281l1.75392 1.71484m-2.72657-1.40234l.875.85547m13.41016-1.17188l-6.6914 2.14063m6.6914-2.14063l1.75781 1.71485m-2.73047-1.40235l1.75781 1.71094m12.5-2.11719l-6.6328 2.32813m6.6328-2.32813l1.8047 1.66406m-2.76954-1.32421l.90235.83203m13.14062-1.69922L380.58984 375.5m6.16016-3.38281l2.05469 1.34375m-2.94922-.85156l1.02734.67187m13.23047-1.07422l-6.2539 3.20313m6.2539-3.20313l2.01172 1.40625m-2.92188-.9414l1.00782.70312m13.07812-1.41406l-5.97656 3.6914m5.97656-3.6914l2.1211 1.23828m-2.98829-.69922l1.0586.61719m13.16797-1.08203l-6.0664 3.54687m6.0664-3.54687l2.08984 1.28906m-2.97265-.77344l1.04687.64453m12.70703-1.76172l-5.17578 4.75m5.17578-4.75l2.3125.81641m-3.0664-.125l1.16015.40625m12.65235-1.35156l-4.66407 5.25781m4.66406-5.25781l2.38672.57812m-3.0664.1875l1.19531.28906m13.0586-.79687l-5.1836 4.74219"/><g clip-path="url(#ak)"><path fill="none" stroke="#000" stroke-linecap="round" stroke-linejoin="round" stroke-miterlimit="10" stroke-width=".5" d="M466.15234 371.4375l2.3125.8164"/></g><g clip-path="url(#al)"><path fill="none" stroke="#000" stroke-linecap="round" stroke-linejoin="round" stroke-miterlimit="10" stroke-width=".5" d="M147.0586 358.76563l-6.1172 3.45703"/></g><path fill="none" stroke="#000" stroke-linecap="round" stroke-linejoin="round" stroke-miterlimit="10" stroke-width=".5" d="M147.0586 358.76563l2.0703 1.3203m-2.96093-.8164l1.03516.66016m13.59375 1.04687l-6.96094-.96875m6.96094.96875l.83984 2.30469m-1.85547-2.44531l.42188 1.15234m13.9375-1.36719l-7.02344-.2539m7.02344.2539l1.07421 2.20313m11.94141-.90235l-6.42188-2.85546m6.42188 2.85546l.17188 2.44532m13.4453-3.7539L193.75 360.375m7.02344.23828l1.07422 2.20313m-2.09766-2.23829l.53906 1.10157m13.78906-1.4375l-7.0078.5m7.0078-.5l1.3047 2.07812m-2.32423-2.0039l.65235 1.03906m13.64062-1.47266l-6.92187 1.22266m6.92187-1.22266l1.51172 1.92969m-2.51953-1.7539l.7539.96874m13.52344-1.35156l-6.83203 1.63281m6.83203-1.6328l1.625 1.83983m-2.61718-1.60156l.8125.91797m13.47265-1.24219l-6.78906 1.8086m6.78906-1.8086l1.67188 1.79688m-2.65625-1.53516l.83203.89844m13.44531-1.24219l-6.7461 1.96875m6.7461-1.96875l1.71485 1.75781m-2.69532-1.46875l.85547.875m13.48438-1.0078l-6.82813 1.66015m6.82813-1.66016l1.6289 1.83203m-2.625-1.58984l.8164.91406m13.52735-1l-6.89843 1.34766m6.89843-1.34766l1.54688 1.90235m-2.55078-1.70704l.77343.95313M307.25 359.9375l-6.9375 1.11328m6.9375-1.11328l1.48047 1.95313m-2.48828-1.79297l.73828.98046m13.58984-1.10937l-6.94922 1.04688m6.94922-1.04688l1.46094 1.97266m-2.47266-1.82032l.73047.98438m13.60938-1.02344l-6.97656.82422m6.97656-.82422l1.39844 2.01563m-2.41016-1.89454l.69531 1.00782m13.58985-1.40235l-6.89063 1.3711m6.89063-1.3711l1.55468 1.89844m-2.5586-1.69922l.77735.94922m13.51953-1.2539l-6.84765 1.57812m6.84765-1.57813l1.60938 1.85157m-2.60547-1.6211l1.60938 1.85157m12.66406-2.22266l-6.77344 1.86328m6.77344-1.86328l1.6875 1.78125m-2.67188-1.51172l1.6875 1.78125m12.55078-2.25l-6.65234 2.26172m6.65234-2.26172l1.78907 1.67969m-2.75391-1.35156l1.78516 1.67968m12.45312-2.125l-6.5664 2.4961m6.5664-2.4961l1.84766 1.61329m-2.80078-1.25l1.84375 1.61328m12.4453-1.92579l-6.60937 2.39063m6.60938-2.39063l1.82031 1.64844m-2.78125-1.30078l1.82031 1.64844m12.45704-1.98828l-6.61329 2.3789m6.61329-2.3789l1.8164 1.64844m-2.77734-1.3047l1.8164 1.65235m12.26563-2.4375l-6.22266 3.26172m6.22266-3.26172l2.02734 1.38281m-2.9336-.91015l2.02735 1.38672m12.17969-1.88672l-6.19531 3.3164m6.19531-3.3164l2.03906 1.36719m-2.9414-.88672l1.01953.68359m13-1.4961l-5.79688 3.97657"/><g clip-path="url(#am)"><path fill="none" stroke="#000" stroke-linecap="round" stroke-linejoin="round" stroke-miterlimit="10" stroke-width=".5" d="M466.46094 358.5039l2.17187 1.13673"/></g><path fill="none" stroke="#000" stroke-linecap="round" stroke-linejoin="round" stroke-miterlimit="10" stroke-width=".5" d="M465.61719 359.08594l1.08594.5664"/><g clip-path="url(#an)"><path fill="none" stroke="#000" stroke-linecap="round" stroke-linejoin="round" stroke-miterlimit="10" stroke-width=".5" d="M147.26953 345.88672l-6.53906 2.58203"/></g><path fill="none" stroke="#000" stroke-linecap="round" stroke-linejoin="round" stroke-miterlimit="10" stroke-width=".5" d="M147.26953 345.88672l1.86719 1.59375M160.82422 347l-7.01953.35547M160.82422 347l1.26172 2.10547m12.0586-1.92578h-7.02735m7.02734 0l1.15234 2.16406m11.8125-.64063l-6.32812-3.05078m6.32813 3.05079l.09765 2.45312m13.51563-3.3711l-6.92188-1.21484m6.92188 1.21485l.7578 2.33203m12.59767-3.21094l-7.00391.54297m7.0039-.54297l1.31641 2.07031m-2.33594-1.99219l.66016 1.03516m13.57813-1.69922l-6.8125 1.71875m6.8125-1.71875l1.64843 1.8164m-2.64062-1.5664l.82422.90625m13.5-1.08594l-6.84766 1.57422m6.84766-1.57421l1.60937 1.85546m-2.60547-1.625l.80469.92579m13.55078-.9375l-6.9336 1.13671m6.9336-1.13671l1.48438 1.95312m-2.4922-1.78516l.7422.97657m13.5664-1.21875l-6.90625 1.28515m6.90625-1.28515l1.53125 1.91796m-2.53515-1.73046l.76562.95703m13.55469-1.13672l-6.91016 1.26953m6.91016-1.26953l1.52344 1.92578m-2.52735-1.73828l.76172.96094m13.61328-.60157l-7.02343.1797m7.02343-.1797l1.20703 2.13672m-2.22656-2.11328l.60156 1.07031m13.73438-.98046l-7.02734-.05079m7.02734.05079l1.13672 2.17187m-2.15625-2.17969l.5664 1.08594m13.75391-1.44531l-6.9961.6836m6.9961-.6836l1.35547 2.04687m-2.375-1.94531l.67969 1.01953m13.59375-1.51562l-6.8711 1.47265m6.8711-1.47265l1.57812 1.875m-2.57812-1.66016l.78906.9375m13.59375-.64453l-7.01172.45703m7.01172-.45703l1.29297 2.08594m-2.3125-2.01954l.64453 1.04297m13.69531-.73828l-7.01953-.28515m7.01953.28515l1.0625 2.21485m-2.08203-2.25391l1.0625 2.21094m13.26172-2.60938l-7 .58985m7-.58985l1.33203 2.0625m-2.34766-1.97656l1.32813 2.0625m-2.34766-1.97656l.66407 1.03125m14.5039-2.0664l-6.63281 2.3164m6.63281-2.3164l1.80078 1.66405m-2.76562-1.32812l1.80078 1.66797m12.41797-2.16797L393.73047 348.5m6.51172-2.64453l1.88281 1.57422m-2.83203-1.1914l1.88281 1.57421m12.38281-1.95313L407.04688 348.5m6.51171-2.64063l1.87891 1.57422m-2.82812-1.1914l1.8828 1.57422m-2.82812-1.19141l.9375.78906m14.26953-1.55469L420.35938 348.5m6.51171-2.64063l1.88282 1.57422m-2.82813-1.1914l1.88281 1.57422m-2.83203-1.19141l.9414.78906m14.26954-1.55469l-6.51172 2.63672m6.51172-2.63671l1.88281 1.57812m-2.82812-1.19531l1.8789 1.57812m12.39454-1.92578l-6.53907 2.5664m6.53907-2.5664l1.86718 1.59766m-2.8164-1.22266l1.86328 1.59375m12.47656-1.76562l-6.6875 2.16015"/><g clip-path="url(#ao)"><path fill="none" stroke="#000" stroke-linecap="round" stroke-linejoin="round" stroke-miterlimit="10" stroke-width=".5" d="M466.90625 346.09766l1.76172 1.71093"/></g><path fill="none" stroke="#000" stroke-linecap="round" stroke-linejoin="round" stroke-miterlimit="10" stroke-width=".5" d="M465.9336 346.41406l1.76171 1.70703"/><g clip-path="url(#ap)"><path fill="none" stroke="#000" stroke-linecap="round" stroke-linejoin="round" stroke-miterlimit="10" stroke-width=".5" d="M147.04297 332.10938l-6.08594 3.5078"/></g><path fill="none" stroke="#000" stroke-linecap="round" stroke-linejoin="round" stroke-miterlimit="10" stroke-width=".5" d="M146.16016 332.61719l1.03906.65234m13.4414-.54297L153.9922 335m6.64844-2.27344l1.78906 1.67578m-2.75781-1.34375l.89453.83594m13.17187 1.60156l-6.21875-3.26953m6.21875 3.26953l.01172 2.45704m13.01563-1.9961l-5.64063-4.1875m5.64063 4.1875l-.3672 2.42578m13.9336-2.8125l-6.14062-3.41406m6.14062 3.41406l-.04687 2.45313m13.80078-4.01563l-7.01953-.28906m7.01953.28906l1.0625 2.21094m-2.08594-2.2539l.53125 1.10546m13.80469-1.04297l-7.01953-.32812m7.01953.32812l1.05078 2.21875m-2.07031-2.26562l.52343 1.10937m13.81641-1.33593l-7.02344.21875m7.02344-.21875l1.21875 2.1289m-2.24219-2.09765l.60938 1.0625m13.72656-1.11329l-7.02344.25782m7.02344-.25781l1.23047 2.125m-2.25-2.08594l.61328 1.0586m13.71094-1.26173l-7 .58594m7-.58594l1.33203 2.0586m-2.35156-1.97657l.66796 1.03125m13.6797-.91406l-7.02735.1875m7.02734-.1875l1.20703 2.13281m-2.23047-2.10546l.60547 1.0664m13.72657-.78906l-7.01563-.42578m7.01563.42578l1.01953 2.23437m-2.03907-2.29296l.50782 1.11328m13.83203-1.125l-7.02344-.28125m7.02344.28125l1.0625 2.21093m-2.08594-2.25l.53125 1.10547m13.78125-1.64453l-6.97266.875m6.97266-.875l1.41406 2.0039m-2.42968-1.875l.70703 1m13.49218-1.73827l-6.70703 2.09375m6.70703-2.09375l1.7461 1.72656m-2.72266-1.42188l.8711.86329m13.53515-.67188l-6.9414 1.09766m6.9414-1.09766l1.47656 1.96094m-2.48437-1.80078l.73828.98046m13.6211-.35156l-7.01172-.47656m7.01171.47656l1 2.23828m-2.01953-2.30859l.5 1.1211m13.80078-1.83985l-6.9414 1.10156m6.9414-1.10156l1.47657 1.95703m-2.48828-1.79687l1.47656 1.95703m12.39453-3.36719l-6.03516 3.60156m6.03516-3.60156l2.10156 1.27344m-2.97656-.75l1.04687.63672m13.19141-1.08204l-6.1289 3.44532m6.1289-3.44531l2.0625 1.32421m-2.95703-.82421l1.03516.66406m13.39453-.6914l-6.57032 2.5m6.57032-2.5l1.84765 1.61718m-2.80468-1.2539l.92578.80859m13.38672-1.0547l-6.65235 2.26563m6.65235-2.26562l1.78906 1.67969m-2.75781-1.35157l1.79296 1.6797m12.4297-2.17188l-6.52735 2.59375m6.52734-2.59375l1.8711 1.58593m-2.82032-1.21093l1.8711 1.58984m-2.82032-1.21094l.9336.79297m14.26562-1.58984L447 335.20313m6.4961-2.6797l1.89062 1.5625m-2.83594-1.17187l1.89063 1.5625m-2.83594-1.17187l1.89062 1.5625m13.26563-2.45703l-6.39844 2.90625"/><g clip-path="url(#aq)"><path fill="none" stroke="#000" stroke-linecap="round" stroke-linejoin="round" stroke-miterlimit="10" stroke-width=".5" d="M466.76172 332.41016l1.94531 1.49609"/></g><g clip-path="url(#ar)"><path fill="none" stroke="#000" stroke-linecap="round" stroke-linejoin="round" stroke-miterlimit="10" stroke-width=".5" d="M465.82813 332.83203l1.9453 1.4961"/></g><path fill="none" stroke="#000" stroke-linecap="round" stroke-linejoin="round" stroke-miterlimit="10" stroke-width=".5" d="M464.89844 333.2539l1.94531 1.5"/><g clip-path="url(#as)"><path fill="none" stroke="#000" stroke-linecap="round" stroke-linejoin="round" stroke-miterlimit="10" stroke-width=".5" d="M141.39844 318.1875l5.20312 4.71875"/></g><path fill="none" stroke="#000" stroke-linecap="round" stroke-linejoin="round" stroke-miterlimit="10" stroke-width=".5" d="M154.30469 318.73828l6.01953 3.6211m-5.14453-3.09375l.0664-1.22657m18.33594.60547l-5.90625 3.80469m5.04688-3.25l1.07422.59765m13.2578 2.38672l-6.21874-3.26953m5.3164 2.79297l.00391 1.22656m13.45313.22657l-4.69922-5.22657m4.69922 5.22657l-.84375 2.30468m14.80468-3.07812l-5.98828-3.67969m5.98828 3.67969l-.15234 2.44922m-.71875-2.98438l-.07813 1.22656m14.36328-.86718l-6.1914-3.32422m6.1914 3.32422l-.0078 2.45312m-.89063-2.9375l-.0039 1.22656m14.55468-1.64453l-6.86328-1.51953m6.86328 1.51953l.65625 2.36329m-1.65625-2.58594l.32812 1.1836m14.0547-1.39454l-6.9961-.65625m6.9961.65625l.9453 2.26563M253 320.78125l.47266 1.13281m13.87109-1.1836l-7.01563-.36718m7.01563.36719l1.03906 2.22656m-2.0586-2.27734l.51954 1.10937m13.82031-1.17187l-7.02734-.14063m7.02734.14063l1.10938 2.1875m-2.13282-2.20703l.5547 1.09375m13.78124-1.0625l-7.02344-.16016m7.02344.16016l1.10547 2.1914m-2.125-2.21484l.55078 1.09765m13.78516-1.15625h-7.02735m7.02735 0l1.15234 2.16797m-2.17187-2.16796l.57422 1.08593m13.75-1.35937l-7.00391.55078m7.0039-.55078l1.32032 2.0664m-2.33985-1.98828l.66016 1.03516m13.5625-1.75781l-6.78125 1.83984m6.78125-1.83984l1.67969 1.78906m-2.66406-1.52344l.83984.89453m13.47266-1.11328l-6.8047 1.7461m6.8047-1.7461l1.65625 1.8086m-2.64454-1.5547l.82422.90626m13.58985-.19531l-7.02735-.1875m7.02735.1875l1.09375 2.1953m12.20312-2.64452l-6.99219.71093m6.9922-.71093l1.36718 2.03906m11.1836-3.89453l-5.46094 4.42578m5.46093-4.42578l2.25782.95703m-3.0547-.3125l1.12891.47656m12.66797-1.46094l-4.83203 5.10157m4.83203-5.10157l2.36328.65235m10.98829-.61719l-4.90625 5.03125m4.1914-4.29688l1.17969.34375m13.40625 3.25391l-6.01953-3.6289m19.83984 1.8125h-7.02734m6.0039 0L440 321.6328m13.03125-3.22656l-5.57031 4.28125m5.57031-4.28125l2.23437 1.01563m-3.04296-.39063l2.23437 1.01563m11.71094-1.85547l-5.21485 4.71093"/><g clip-path="url(#at)"><path fill="none" stroke="#000" stroke-linecap="round" stroke-linejoin="round" stroke-miterlimit="10" stroke-width=".5" d="M466.16797 318.1914l2.3086.83594"/></g><path fill="none" stroke="#000" stroke-linecap="round" stroke-linejoin="round" stroke-miterlimit="10" stroke-width=".5" d="M465.41016 318.8789l2.30859.83204m-3.0664-.14844l2.30468.83594"/><path fill="#00f" fill-rule="evenodd" d="M232.89453 467.64844h8.6211V457.5039h-8.6211v10.14453"/><path fill="azure" fill-rule="evenodd" d="M234.73047 459.33594h.83203v2.82422h3.28516v-2.82422h.83593v6.48047h-.83593v-2.91797h-3.28516v2.91797h-.83203v-6.48047"/><path fill="#ff3030" fill-rule="evenodd" d="M366.74219 432.14063h7.6914v-10.14454h-7.6914v10.14454"/><path fill="azure" fill-rule="evenodd" d="M368.57422 423.82813h.83203v5.73828h3.19531v.74218h-4.02734v-6.48046"/><path fill="#00f" fill-rule="evenodd" d="M414.86719 423.26563h8.6211v-10.14844h-8.6211v10.14844"/><path fill="azure" fill-rule="evenodd" d="M416.70313 414.95313h.83203v2.8203h3.28515v-2.8203h.83594v6.48046h-.83594v-2.91796h-3.28515v2.91796h-.83204v-6.48046"/><path fill="#ff3030" fill-rule="evenodd" d="M295.72656 414.38672h7.69531v-10.14453h-7.6953v10.14453"/><path fill="azure" fill-rule="evenodd" d="M297.5586 406.07422h.83593v5.74219h3.1914v.73828h-4.02734v-6.48047"/><path fill="#ff3030" fill-rule="evenodd" d="M189.20703 378.88281h7.6914v-10.14844h-7.6914v10.14844"/><path fill="azure" fill-rule="evenodd" d="M191.03906 370.5664h.83594v5.7422h3.1914v.73827h-4.02734v-6.48046"/><path fill="#ffffe0" fill-rule="evenodd" d="M386.1289 416.02344h22.1797v-10.1914h-22.1797v10.1914"/><path fill-rule="evenodd" d="M389.625 407.66406h.51172v6.29688h-.78906v-4.48828h-1.38672v-.5586l.5586-.0625.2539-.05469.23047-.08984.20312-.14062.17188-.21094.14062-.29297.10547-.39844m4.8164 0l.22657.01953.22265.0586.20704.08594.1953.12109.1836.15234.17188.17578.30078.41797.2461.49219.17968.54688.10938.58203.03906.58984-.03906.59375-.10938.58203-.17969.55469-.2461.5039-.30077.42579-.17188.17968-.1836.15235-.1953.125-.20704.09375-.22265.05469-.22656.01953-.23047-.01954-.21875-.05468-.20703-.09375-.19922-.125-.1836-.15235-.17187-.17968-.30078-.42579-.24219-.5039-.17969-.55469-.11328-.58203-.03515-.59375h.83203l.02734.5625.08203.50781.125.4414.16406.375.19141.30079.21094.21875.22265.13672.22657.04687.22656-.04687.22265-.13672.21094-.21875.1914-.30078.16017-.375.125-.4414.08203-.50782.03125-.5625-.03125-.5625-.08204-.5-.125-.4336-.16015-.36718-.1914-.29297-.21094-.21484-.22266-.12891-.22656-.04688-.22657.04688-.22265.1289-.21094.21485-.1914.29297-.16407.36719-.125.43359-.08203.5-.02734.5625h-.83204l.03516-.58984.11328-.58204.17969-.54687.24219-.49219.30078-.41797.17187-.17578.1836-.15234.19922-.1211.20703-.08593.21875-.0586.23047-.01953m4.95312 0l.22656.01953.21875.0586.21094.08594.19531.12109.1836.15234.17187.17578.30078.41797.2461.49219.17969.54688.10937.58203.03906.58984-.03906.59375-.10938.58203-.17968.55469-.2461.5039-.30078.42579-.17187.17968-.1836.15235-.1953.125-.21095.09375-.21875.05469-.22656.01953-.23047-.01954-.21875-.05468-.20703-.09375-.19922-.125-.1836-.15235-.17187-.17968-.30078-.42579-.24219-.5039-.17968-.55469-.11328-.58203-.03907-.59375h.83594l.02735.5625.08203.50781.125.4414.16406.375.1914.30079.21094.21875.22266.13672.22656.04687.22656-.04687.22266-.13672.21094-.21875.1875-.30078.16406-.375.125-.4414.08203-.50782.03125-.5625-.03125-.5625-.08203-.5-.125-.4336-.16406-.36718-.1875-.29297-.21094-.21484-.22266-.12891-.22656-.04688-.22656.04688-.22266.1289-.21094.21485-.1914.29297-.16406.36719-.125.43359-.08204.5-.02734.5625h-.83594l.03907-.58984.11328-.58204.17969-.54687.24218-.49219.30078-.41797.17188-.17578.1836-.15234.19921-.1211.20703-.08593.21875-.0586.23047-.01953m4.95313 0l.38671.03125.35547.08203.32422.13672.28125.1875.22656.23438.17579.28515.10937.33204.03516.3789-.01953.27344-.0586.23437-.08594.20313-.11328.16797-.1289.14453-.14063.1211-.28515.19921.23046.11719.21094.14844.17969.16796.15625.19532.1211.21484.08984.23047.0586.24219.01952.25781-.03515.3086-.10547.32421-.17188.32422-.23828.3086-.3086.26953-.37109.21484-.21484.08203-.22656.0586-.2461.03906-.2578.01172-.26173-.01172-.24219-.03906-.22265-.0586-.20703-.08203-.35547-.21484-.29297-.26954-.22266-.30859-.15625-.32422-.09375-.32422-.03125-.30859h.83594l.02735.25.07812.23438.1211.21484.16015.1836.1914.15234.22266.11328.23828.07422.25782.02343.2539-.02343.23828-.07422.22266-.11328.1914-.15235.16016-.1836.1211-.21483.07812-.23438.02735-.25-.02735-.2539-.07812-.23438-.1211-.21485-.16015-.18359-.19141-.15234-.22266-.11328-.23828-.07422-.2539-.02344-.25782.02344-.23828.07422-.22265.11328-.19141.15234-.16016.1836-.12109.21484-.07813.23437-.02734.25391h-.83594l.01954-.2539.05859-.2422.08984-.22265.125-.20703.15235-.1914.17968-.17188.21094-.15625.23047-.1289-.28516-.19923-.14062-.1211-.1289-.14452-.11329-.16797-.08594-.20313-.05859-.23437-.01953-.27344h.78515l.02344.21485.0664.1914.10548.16406.13672.14063.16406.11328.1875.08203.20703.04688.22266.01953.21875-.01953.20703-.04688.1875-.08203.16406-.11328.14063-.14063.10156-.16406.0664-.1914.02344-.21485-.02344-.21484-.0664-.1914-.10156-.16407-.14063-.14063-.16406-.11328-.1875-.08203-.20703-.04687-.21875-.01954-.22266.01954-.20703.04687-.1875.08203-.16406.11328-.13672.14063-.10547.16406-.0664.1914-.02344.21485h-.78516l.03515-.3789.10938-.33204.17578-.28515.22656-.23438.28125-.1875.32422-.13672.35547-.08203.39063-.03125"/><path fill="#ffffe0" fill-rule="evenodd" d="M315.11328 408.30469h22.17969v-10.1914h-22.17969v10.1914"/><path fill-rule="evenodd" d="M318.61328 399.94531h.50781v6.29297h-.78515V401.75h-1.39063v-.55469l.5625-.0664.25-.0547.23047-.08983.20313-.14063.17578-.21094.14062-.29297.10547-.39453m4.8125 0l.23047.01953.21875.0547.20703.08983.19922.1211.1836.14844.17187.17578.30078.41797.24219.49609.17969.54688.11328.57812.03515.58984-.03515.59375-.11329.58594-.17968.55078-.24219.5039-.30078.4297-.17188.17968-.18359.15235-.19922.1211-.20703.09374-.21875.05469-.23047.02344-.22656-.02344-.21875-.05469-.21094-.09375-.19531-.1211-.1836-.15234-.17187-.17968-.30078-.4297-.2461-.5039-.17968-.55078-.10938-.58594-.03906-.59375h.83203l.03125.5625.08203.50782.125.4414.16406.375.1875.30078.21094.22266.22266.13672.22656.04687.22656-.04687.22266-.13672.21094-.22266.1914-.30078.16407-.375.125-.4414.08203-.50782.02734-.5625-.02734-.55859-.08203-.5039-.125-.4336-.16407-.36719-.1914-.29297-.21094-.21093-.22266-.13282-.22656-.04296-.22656.04296-.22266.13282-.21094.21093-.1875.29297-.16406.36719-.125.4336-.08203.5039-.03125.5586h-.83203l.03906-.58985.10938-.57813.17969-.54687.24609-.4961.30078-.41796.17188-.17578.18359-.14844.19531-.1211.21094-.08984.21875-.05469.22656-.01953m4.95313 0l.23046.01953.21875.0547.20704.08983.1953.1211.1875.14844.16798.17578.30469.41797.24218.49609.17969.54688.11328.57812.03516.58984-.03516.59375-.11328.58594-.17969.55078-.24219.5039-.30468.4297-.16797.17968-.1875.15235-.19531.1211-.20704.09374-.21875.05469-.23046.02344-.23047-.02344-.21875-.05469-.20703-.09375-.19532-.1211-.18359-.15234-.17188-.17968-.30078-.4297-.24609-.5039-.17969-.55078-.10937-.58594-.03906-.59375h.83203l.03125.5625.08203.50782.125.4414.16015.375.19141.30078.21094.22266.22265.13672.22657.04687.22656-.04687.22265-.13672.21094-.22266.1914-.30078.16017-.375.1289-.4414.08203-.50782.02735-.5625-.02735-.55859-.08203-.5039-.1289-.4336-.16016-.36719-.1914-.29297-.21094-.21093-.22266-.13282-.22656-.04296-.22657.04296-.22265.13282-.21094.21093-.1914.29297-.16016.36719-.125.4336-.08203.5039-.03125.5586h-.83204l.03907-.58985.10937-.57813.17969-.54687.2461-.4961.30077-.41796.17188-.17578.1836-.14844.1953-.1211.20704-.08984.21875-.05469.23047-.01953m4.95312 0l.38672.02735.35938.08203.3203.13672.28126.1875.23047.23828.17187.28515.10938.33204.03906.375-.01953.27734-.0586.23437-.08984.19922-.10938.16797-.1289.14453-.14063.125-.28515.19531.23047.1172.20703.14843.1836.17188.15233.1914.125.21485.08985.23046.05469.2422.01953.2578-.03516.3086-.10156.32812-.17188.32422-.24218.30469-.3047.26953-.375.21484-.21093.08204-.22656.05859-.2461.03906-.26171.01563-.25782-.01563-.24218-.03906-.22266-.0586-.20703-.08203-.35938-.21484-.28906-.26953-.22265-.30469-.15625-.32422-.09375-.32812-.03125-.3086h.83203l.02734.25391.07813.23438.12109.21093.16015.1836.19532.15234.21875.11719.24219.07031.2539.02734.2539-.02734.2422-.07031.21875-.11719.1953-.15234.16016-.1836.1211-.21094.07812-.23437.02735-.2539-.02735-.25391-.07812-.23438-.1211-.21094-.16015-.1875-.19531-.15234-.21875-.11328-.2422-.07422-.2539-.02344-.2539.02344-.2422.07422-.21874.11328-.19531.15235-.16016.1875-.1211.21093-.07812.23438-.02734.2539h-.83204l.01954-.2539.05468-.23828.08985-.22657.125-.20703.15234-.1914.1836-.17188.20703-.15234.23046-.13281-.28515-.19532-.14063-.125-.1289-.14453-.10938-.16797-.08984-.19922-.0586-.23437-.01953-.27735h.78907l.02343.21485.0625.1914.10547.16797.13672.14063.16406.10937.19141.08204.20703.05078.21875.01562.21875-.01562.20703-.05079.1914-.08203.16407-.10937.13672-.14063.10547-.16796.0625-.19141.02344-.21485-.02344-.21484-.0625-.1914-.10547-.16407-.13672-.14062-.16406-.10938-.1914-.08203-.20704-.05078-.21875-.01563-.21875.01563-.20703.05078-.1914.08203-.16407.10938-.13672.14062-.10547.16406-.0625.19141-.02343.21485h-.78907l.03907-.375.10937-.33204.17188-.28515.23046-.23828.28125-.1875.32032-.13672.35937-.08203.38672-.02735"/><path fill="#ffffe0" fill-rule="evenodd" d="M195.27734 350.35938h22.1797v-10.19141h-22.1797v10.1914"/><path fill-rule="evenodd" d="M198.77734 342h.50782v6.29688H198.5v-4.4922h-1.39063V343.25l.5625-.0664.25-.05079.23047-.08984.20313-.14063.17578-.21093.14063-.29688.10546-.39453m4.8125 0l.23047.01953.21875.05469.20703.08984.19922.1211.1836.14843.17187.17579.30078.42187.24219.49219.17969.54687.11328.57813.03906.59375-.03906.58984-.11328.58594-.17969.55469-.24219.5-.30078.42968-.17187.1797-.1836.15233-.19922.125-.20703.08985-.21875.0586-.23047.01952-.22656-.01953-.21875-.0586-.21094-.08983-.1953-.125-.1836-.15235-.17188-.17969-.30078-.42968-.24219-.5-.18359-.5547-.10938-.58593-.03906-.58984h.83203l.03125.5625.08203.5039.125.44532.16407.375.1875.29687.21094.22266.22265.13672.22656.04687.22657-.04687.22265-.13672.21094-.22266.1914-.29687.16407-.375.125-.44532.08203-.5039.02734-.5625-.02734-.5625-.08203-.5-.125-.4375-.16406-.36328-.19141-.29297-.21094-.21485-.22265-.1328-.22657-.04298-.22656.04297-.22266.13281-.21093.21485-.1875.29297-.16406.36328-.125.4375-.08204.5-.03125.5625h-.83203l.03906-.59375.10938-.57813.1836-.54687.24218-.49219.30078-.42188.17188-.17578.1836-.14843.1953-.1211.21094-.08984.21875-.05469.22656-.01953m4.95313 0l.23047.01953.21875.05469.20703.08984.19922.1211.1836.14843.17187.17579.30078.42187.24219.49219.17968.54687.11328.57813.03516.59375-.03516.58984-.11328.58594-.17969.55469-.24218.5-.30078.42968-.17188.1797-.1836.15233-.19921.125-.20703.08985-.21875.0586-.23047.01952-.22656-.01953-.22266-.0586-.20703-.08983-.19531-.125-.1836-.15235-.17187-.17969-.30078-.42968-.2461-.5-.17969-.5547-.10937-.58593-.03906-.58984h.83203l.03125.5625.08203.5039.125.44532.16016.375.1914.29687.21094.22266.22266.13672.22656.04687.22656-.04687.22266-.13672.21094-.22266.1914-.29687.16406-.375.125-.44532.08203-.5039.02735-.5625-.02734-.5625-.08204-.5-.125-.4375-.16406-.36328-.1914-.29297-.21094-.21485-.22266-.1328-.22656-.04298-.22656.04297-.22266.13281-.21094.21485-.1914.29297-.16016.36328-.125.4375-.08203.5-.03125.5625h-.83203l.03906-.59375.10938-.57813.17968-.54687.2461-.49219.30078-.42188.17187-.17578.1836-.14843.1953-.1211.20704-.08984.22266-.05469.22656-.01953m4.95312 0l.38672.02734.35938.08594.32422.13281.27734.1875.23047.23829.17187.28515.10938.33203.03906.3789-.01953.27345-.0586.23437-.08984.19922-.10937.17188-.1289.14453-.14063.12109-.28516.19531.23047.1211.20703.14453.1836.17187.15234.19531.125.21094.08984.23047.05469.2461.01953.2539-.03516.3086-.10156.32812-.17187.32422-.2422.3086-.30468.26952-.375.21485-.21094.07812-.22656.0625-.2461.03906-.26171.01172-.25781-.01171-.2422-.03907-.22265-.0625-.20703-.07812-.35937-.21485-.28907-.26953-.22265-.3086-.15625-.32421-.09375-.32813-.03125-.30859h.83203l.02734.2539.07813.23438.1211.21485.16405.18359.19141.15234.21875.11329.24219.07421.2539.02344.25391-.02344.24219-.07421.21875-.11329.19531-.15234.16016-.1836.12109-.21484.07813-.23437.02734-.2539-.02734-.25392-.07813-.23437-.1211-.21094-.16015-.1836-.19531-.15233-.21875-.1172-.24219-.0703-.2539-.02735-.25391.02735-.24219.0703-.21875.1172-.1914.15234-.16407.1836-.1211.21093-.07812.23438-.02734.2539h-.83203l.01953-.2539.05469-.23829.09375-.22265.12109-.21094.15234-.1914.1836-.17188.20703-.15235.23437-.1328-.28906-.19532-.14062-.1211-.12891-.14452-.10938-.17188-.08984-.19922-.05469-.23437-.02343-.27344h.78906l.02344.21484.0625.1914.10547.16407.13671.14063.16407.10937.1914.08203.20703.05078.21875.01954.22266-.01954.20703-.05078.1875-.08203.16406-.10937.13672-.14063.10547-.16406.0664-.1914.01954-.21485-.01953-.21485-.0664-.1914-.10548-.16797-.13672-.13672-.16406-.11328-.1875-.08203-.20703-.05078-.22266-.01563-.21875.01563-.20703.05078-.1914.08203-.16407.11328-.13672.13672-.10546.16797-.0625.1914-.02344.21485h-.78906l.03906-.3789.10937-.33204.17188-.28515.23047-.23829.28125-.1875.32031-.1328.35938-.08595.38671-.02734"/><path fill="#ffffe0" fill-rule="evenodd" d="M204.15625 388.90625h22.17969v-10.1914h-22.17969v10.1914"/><path fill-rule="evenodd" d="M207.65234 380.54688h.51172v6.29687h-.78906v-4.49219h-1.38672v-.55469l.5586-.0664.2539-.05078.23047-.08985.20313-.14453.17187-.20703.14063-.29687.10546-.39454m4.81641 0l.23047.01954.21875.05468.20703.08985.19531.1211.1836.14843.17187.17578.30078.42188.2461.49218.17968.54688.10938.57812.03906.59375-.03906.58985-.10938.58593-.17968.5547-.2461.5-.30078.42968-.17187.17969-.1836.15234-.19531.125-.20703.08984-.21875.0586-.23047.01953-.23047-.01953-.21875-.0586-.20703-.08984-.19531-.125-.1875-.15234-.16797-.1797-.30469-.42968-.24219-.5-.17968-.55469-.11328-.58593-.03516-.58985h.83203l.02734.5625.08203.5039.125.44532.16407.3711.1914.30078.21094.22265.22266.13672.22656.04688.22656-.04688.22266-.13672.21094-.22265.1914-.30079.16016-.37109.125-.44531.08203-.5039.03125-.5625-.03125-.5625-.08203-.5-.125-.4375-.16016-.36329-.1914-.29297-.21094-.21484-.22266-.13281-.22656-.04297-.22656.04297-.22266.1328-.21094.21485-.1914.29297-.16406.36328-.125.4375-.08204.5-.02734.5625h-.83203l.03516-.59375.11328-.57812.17968-.54688.2422-.49219.30468-.42187.16797-.17578.1875-.14844.19531-.1211.20703-.08984.21875-.05468.23047-.01954m4.95313 0l.22656.01954.21875.05468.21094.08985.1953.1211.1836.14843.17188.17578.30078.42188.2461.49218.17968.54688.10937.57812.03907.59375-.03907.58985-.10937.58593-.17969.5547-.2461.5-.30077.42968-.17188.17969-.1836.15234-.1953.125-.21094.08984-.21875.0586-.22656.01953-.23047-.01953-.21875-.0586-.20703-.08984-.19922-.125-.1836-.15234-.17187-.1797-.30078-.42968-.2422-.5-.17968-.55469-.11328-.58593-.03906-.58985h.83594l.02734.5625.08203.5039.125.44532.16406.3711.1914.30078.21095.22265.22265.13672.22656.04688.22657-.04688.22265-.13672.21094-.22265.1875-.30079.16406-.37109.125-.44531.08203-.5039.03125-.5625-.03125-.5625-.08203-.5-.125-.4375-.16406-.36329-.1875-.29297-.21094-.21484-.22265-.13281-.22656-.04297-.22657.04297-.22265.1328-.21094.21485-.1914.29297-.16407.36328-.125.4375-.08203.5-.02734.5625h-.83594l.03906-.59375.11328-.57812.17969-.54688.24219-.49219.30078-.42187.17187-.17578.1836-.14844.19922-.1211.20703-.08984.21875-.05468.23047-.01954m4.95312 0l.38672.02735.35547.08203.32422.13672.28125.1875.22656.23828.17578.28516.10938.33203.03515.3789-.01953.27344-.0586.23438-.08593.19921-.11328.17188-.1289.14453-.14063.1211-.28516.1953.23047.1211.21094.14453.17968.17188.15625.19531.1211.21094.08984.23047.0586.24609.01953.2539-.03516.3086-.10547.32813-.17187.32421-.23828.3086-.3086.26562-.3711.21485-.21484.08203-.22656.0625-.2461.03515-.2578.01563-.26172-.01563-.2422-.03515-.22265-.0625-.20703-.08203-.35547-.21485-.29297-.26562-.22265-.3086-.15625-.32421-.09375-.32813-.03125-.3086h.83594l.02734.25391.07812.23438.1211.21094.16015.1875.19141.15234.22266.11328.23828.07422.25781.02344.2539-.02344.23829-.07422.22265-.11328.19141-.15235.16016-.1875.12109-.21093.07813-.23438.02734-.2539-.02734-.25391-.07813-.23438-.1211-.21093-.16015-.1836-.1914-.15234-.22266-.11719-.23828-.07031-.25391-.02734-.25781.02734-.23828.07031-.22266.11719-.1914.15234-.16016.1836-.1211.21094-.07812.23437-.02734.2539h-.83594l.01953-.2539.0586-.23828.08984-.22656.125-.20704.15234-.1914.17969-.17188.21094-.15234.23046-.13281-.28515-.19531-.14063-.1211-.1289-.14453-.11328-.17188-.08594-.19921-.0586-.23438-.01953-.27344h.78516l.02344.21485.0664.1914.10547.16407.13672.14062.16406.10938.1875.08203.20703.05078.22266.01562.21875-.01562.20703-.05078.1875-.08203.16406-.10938.14063-.14062.10156-.16407.0664-.1914.02345-.21485-.02344-.21484-.0664-.1914-.10157-.16798-.14063-.14062-.16406-.10938-.1875-.08203-.20703-.05078-.21875-.01562-.22266.01562-.20703.05078-.1875.08204-.16406.10937-.13672.14063-.10547.16796-.0664.19141-.02344.21484h-.78516l.03516-.3789.10937-.33203.17578-.28516.22657-.23828.28125-.1875.32422-.13672.35547-.08203.39062-.02735"/><path fill="#ffffe0" fill-rule="evenodd" d="M308.98047 427.9336h22.17969v-10.19141h-22.1797v10.1914"/><path fill-rule="evenodd" d="M312.48047 419.57422h.50781v6.29687h-.78515v-4.49218h-1.39063v-.5547l.5586-.0625.2539-.05468.23047-.08984.20312-.14063.17188-.21094.14453-.29687.10547-.39453m4.8125 0l.23047.01953.21875.05469.20703.08984.19531.1211.1836.15234.17187.17187.30078.42188.2461.49219.17968.54687.10938.57813.03906.59375-.03906.59375-.10938.58203-.17969.55469-.24609.5-.30078.42968-.17188.17969-.18359.15234-.19531.125-.20703.08985-.21875.0586-.23047.01952-.23047-.01953-.21875-.0586-.20703-.08984-.19531-.125-.1875-.15234-.16797-.17969-.30469-.42969-.24219-.5-.17969-.55468-.11328-.58203-.03515-.59375h.83203l.02734.5625.08203.5039.12891.44531.16016.375.1914.30079.21094.21875.22266.13671.22656.04688.22656-.04688.22266-.13671.21094-.21875.1914-.30079.16016-.375.1289-.4453.07813-.50391.03125-.5625-.03125-.5625-.07813-.5-.1289-.4375-.16016-.36329-.1914-.29296-.21094-.21485-.22266-.13281-.22656-.04297-.22656.04297-.22266.13281-.21094.21485-.1914.29296-.16016.36329-.1289.4375-.08204.5-.02734.5625h-.83203l.03515-.59375.11329-.57813.17968-.54687.24219-.4922.30469-.42187.16797-.17187.1875-.15235.1953-.12109.20704-.08984.21875-.05469.23047-.01953m4.95312 0l.22657.01953.22265.05469.20703.08984.19532.1211.18359.15234.17188.17187.30078.42188.24609.49219.17969.54687.10937.57813.03906.59375-.03906.59375-.10937.58203-.17969.55469-.2461.5-.30077.42968-.17188.17969-.1836.15234-.1953.125-.20704.08985-.22265.0586-.22657.01952-.23046-.01953-.21875-.0586-.20704-.08984-.19921-.125-.1836-.15234-.17187-.17969-.30079-.42969-.24218-.5-.17969-.55468-.11328-.58203-.03516-.59375h.83203l.02735.5625.08203.5039.125.44531.16406.375.1914.30079.21094.21875.22266.13671.22656.04688.22657-.04688.22265-.13671.21094-.21875.1914-.30079.16016-.375.125-.4453.08203-.50391.03125-.5625-.03125-.5625-.08203-.5-.125-.4375-.16015-.36329-.19141-.29296-.21094-.21485-.22265-.13281-.22657-.04297-.22656.04297-.22265.13281-.21094.21485-.1914.29296-.16407.36329-.125.4375-.08203.5-.02735.5625h-.83203l.03516-.59375.11328-.57813.17969-.54687.24219-.4922.30078-.42187.17187-.17187.1836-.15235.19921-.12109.20704-.08984.21875-.05469.23046-.01953m4.95313 0l.38672.02734.35937.08594.32031.13281.28125.1875.23047.23828.17188.28516.10937.33203.03516.3789-.01953.27344-.0586.23438-.08593.19922-.11328.17187-.12891.14454-.14063.12109-.28515.19531.23437.1211.20704.14453.17968.17187.15625.19531.1211.21485.08984.22656.0586.2461.01952.2539-.03515.3125-.10547.32422-.17188.32422-.23828.3086-.30859.26952-.3711.21485-.21093.07812-.23047.0625-.24219.03906-.26172.01172-.26171-.01172-.2422-.03906-.22265-.0625-.20312-.07812-.35938-.21485-.29297-.26953-.22265-.3086-.15625-.32421-.09375-.32422-.02735-.3125h.83203l.02735.2539.07812.23438.1211.21485.16015.18359.19531.15234.21875.11328.23829.07422.2578.02344.25392-.02344.23828-.07422.22265-.11328.1914-.15234.16017-.1836.125-.21484.07421-.23437.02735-.25391-.02735-.25-.07421-.23828-.125-.21094-.16016-.1836-.1914-.15234-.22266-.11718-.23829-.07032-.2539-.02734-.25781.02734-.23829.07032-.21875.11718-.1953.15235-.16016.1836-.1211.21093-.07812.23828-.02735.25h-.83203l.01563-.2539.0586-.23829.08983-.22265.125-.21094.15235-.1875.1836-.17578.20702-.15235.23047-.1328-.28515-.19532-.14063-.1211-.1289-.14453-.11329-.17187-.08593-.19922-.0586-.23438-.01953-.27343h.78516l.02344.21484.0664.1914.10547.16407.13672.14063.16406.11328.1875.07812.20703.05078.22266.01953.21875-.01953.20703-.05078.1875-.07812.16797-.11329.13672-.14062.10156-.16406.0664-.1914.02344-.21485-.02343-.21485-.06641-.1914-.10156-.16797-.13672-.13672-.16797-.11328-.1875-.08203-.20703-.05078-.21875-.01563-.22266.01563-.20703.05078-.1875.08203-.16406.11328-.13672.13672-.10547.16797-.0664.1914-.02344.21485h-.78516l.03906-.3789.10547-.33204.17578-.28516.23047-.23828.27735-.1875.32421-.13281.35938-.08594.38672-.02734"/><path fill="#ffffe0" fill-rule="evenodd" d="M332.86719 362.67188h22.17969v-10.19141h-22.1797v10.1914"/><path fill-rule="evenodd" d="M336.36719 354.3125h.50781v6.29688h-.78516v-4.4922h-1.39062v-.55468l.5625-.0664.25-.05079.23047-.08984.20312-.14063.17578-.21093.14063-.29688.10547-.39453m4.8125 0l.23047.01953.21875.05469.20703.08984.19531.1211.1875.14843.16797.17579.30469.42187.24218.49219.1797.54687.11327.57813.03516.59375-.03516.58984-.11328.58594-.17969.55469-.24218.5-.3047.42968-.16796.1797-.1875.15233-.19531.125-.20703.08985-.21875.0586-.23047.01952-.23047-.01953-.21875-.0586-.20703-.08983-.19531-.125-.1836-.15235-.17187-.17969-.30079-.42968-.24609-.5-.17969-.5547-.10937-.58593-.03906-.58984h.83203l.03125.5625.08203.5039.125.44532.16015.37109.19141.30078.21094.22266.22265.13672.22657.04687.22656-.04687.22266-.13672.21093-.22266.19141-.30078.16016-.3711.1289-.4453.08203-.50391.02735-.5625-.02735-.5625-.08203-.5-.1289-.4375-.16016-.36328-.1914-.29297-.21094-.21485-.22266-.1328-.22656-.04298-.22656.04297-.22266.13281-.21094.21485-.1914.29297-.16016.36328-.125.4375-.08203.5-.03125.5625h-.83203l.03906-.59375.10937-.57813.1797-.54687.24608-.49219.30079-.42188.17187-.17578.1836-.14843.1953-.1211.20704-.08984.21875-.05469.23047-.01953m5.09375 0h.50781v6.29688h-.78906v-4.4922h-1.38672v-.55468l.5586-.0664.2539-.05079.23047-.08984.20312-.14063.17188-.21093.14062-.29688.10938-.39453m2.82031 2.17578h.78906l.01953-.3164.0586-.28516.09765-.2539.14063-.21485.1836-.17188.22265-.1328.26562-.07813.3086-.02735.23437.01953.22656.0625.20313.10157.17969.14062.14844.17188.11328.20703.0703.23437.02735.26563-.02344.26953-.0664.22265-.10938.19141-.15625.17188-.19921.16406-.2461.16406-.63672.39063-.53515.3125-.4375.3164-.34766.32422-.26172.33594-.1914.35156-.125.3711-.07032.39062-.01953.42188h4.21094v-.7422h-3.33203l.08203-.28515.11328-.23437.14844-.20313.1875-.17969.23047-.17187.28125-.17578.71484-.41797.41797-.20313.34375-.23046.28125-.25391.21875-.26563.16406-.27734.10938-.28516.0664-.28515.01953-.28125-.04296-.38281-.1211-.34766-.1875-.3086-.25-.26171-.30078-.21094-.34766-.16016-.3789-.09765-.40625-.03516-.4375.03516-.39844.09765-.35547.16406-.30469.23438-.24609.30469-.1875.375-.11328.44531-.04297.51953"/><path fill="#ffffe0" fill-rule="evenodd" d="M319.55078 329.1875h22.1836v-10.1914h-22.1836v10.1914"/><path fill-rule="evenodd" d="M323.05078 320.82813h.51172v6.29687h-.78906v-4.49219h-1.38672v-.55469l.5586-.0664.25-.05078.23046-.08985.20313-.14062.17578-.21094.14062-.29687.10547-.39454m4.8125 0l.23047.01954.21875.05468.21094.08985.19531.1211.1836.14843.17187.17578.30078.42188.24219.49218.17969.54688.11328.57812.03906.59375-.03906.58985-.11329.58593-.17968.5547-.24219.5-.30078.42968-.17188.17969-.18359.15234-.19531.125-.21094.08984-.21875.0586-.23047.01953-.22656-.01953-.21875-.0586-.21094-.08984-.19531-.125-.1836-.15234-.17187-.1797-.30078-.42968-.24219-.5-.17969-.55469-.11328-.58593-.03906-.58985h.83594l.02734.5625.08203.5039.125.44532.16406.3711.19141.30078.21094.22265.22265.13672.22266.04688.22656-.04688.22266-.13672.21094-.22265.1914-.30079.16407-.37109.125-.44531.08203-.5039.02734-.5625-.02734-.5625-.08203-.5-.125-.4375-.16407-.36329-.1914-.29297-.21094-.21484-.22266-.13281-.22656-.04297-.22265.04297-.22266.1328-.21094.21485-.1914.29297-.16407.36328-.125.4375-.08203.5-.02734.5625h-.83594l.03906-.59375.11328-.57812.1797-.54688.24218-.49219.30078-.42187.17188-.17578.18359-.14844.19531-.1211.21094-.08984.21875-.05468.22656-.01954m5.09375 0h.50781v6.29688h-.78515v-4.49219h-1.39063v-.55469l.5625-.0664.25-.05078.23047-.08985.20313-.14062.17578-.21094.14062-.29687.10547-.39454m6.80469 1.6211h-.78906l-.05079-.21094-.08203-.1875-.10546-.16015-.12891-.12891-.14844-.10547-.16015-.07422-.16797-.04297-.17188-.01562-.32812.03906-.28907.1211-.24609.1953-.20313.26954-.16015.33594-.11719.40625-.07031.46484-.02344.52734.1914-.20312.1836-.16016.1875-.1211.1836-.08593.1875-.0625.1953-.03516.39844-.02734.3086.03125.32031.09375.3164.15625.29298.21875.2578.28516.19923.34765.07031.20313.05469.21484.02734.23438.0039.2539-.78515.04688-.02734-.26172-.07813-.25-.1211-.23438-.16015-.21093-.19531-.17579-.21875-.13671-.24219-.08985-.2539-.03125-.25391.03125-.24219.08985-.21875.13671-.1914.17579-.16407.21093-.12109.23438-.07813.25-.02734.26172.02735.25781.07812.25.1211.23438.16406.21093.1914.17969.21875.13672.24219.08594.2539.03125.25391-.03125.24219-.08594.21875-.13672.19531-.17969.16016-.21094.1211-.23437.07812-.25.02734-.25781.78516-.04688-.03125.3711-.08985.37109-.16015.35938-.22266.32812-.28906.28125-.16797.1211-.1914.10156-.20313.08203-.22656.0625-.23829.03906-.26171.01172-.28125-.01563-.26172-.04687-.23828-.07813-.21485-.10546-.19531-.12891-.17188-.15625-.15625-.17969-.13671-.20312-.11329-.22266-.10156-.24219-.14453-.53515-.08594-.59375-.02734-.64063.03906-.74219.11328-.66406.1875-.57812.1211-.25391.13672-.23047.15234-.20703.16797-.1836.1875-.15624.20312-.12891.21875-.10156.23047-.07422.25-.04297.26172-.01563.36328.03516.33203.09375.29688.15235.25781.19921.21094.2422.16406.27343.11719.30078.0625.32422"/></g></defs><use xlink:href="#au"/></svg>