<svg xmlns="http://www.w3.org/2000/svg" role="img" xmlns:xlink="http://www.w3.org/1999/xlink" viewBox="142.45 309.95 326.84 171.84"><defs><clipPath id="a"><path d="M144 311.67188h1v168.65625h-1zm0 0"/></clipPath><clipPath id="b"><path d="M144 311.67188h324v168.65625H144zm0 0"/></clipPath><clipPath id="c"><path d="M467 480h1v.32813h-1zm0 0"/></clipPath><clipPath id="d"><path d="M467 311.67188h1v168.65625h-1zm0 0"/></clipPath><clipPath id="e"><path d="M144 478h4v2.32813h-4zm0 0"/></clipPath><clipPath id="f"><path d="M146 479h2v1.32813h-2zm0 0"/></clipPath><clipPath id="g"><path d="M154 478h7v2.32813h-7zm0 0"/></clipPath><clipPath id="h"><path d="M167 477h7v3.32813h-7zm0 0"/></clipPath><clipPath id="i"><path d="M181 477h6v3.32813h-6zm0 0"/></clipPath><clipPath id="j"><path d="M194 478h7v2.32813h-7zm0 0"/></clipPath><clipPath id="k"><path d="M206 479h9v1.32813h-9zm0 0"/></clipPath><clipPath id="l"><path d="M212 479h3v1.32813h-3zm0 0"/></clipPath><clipPath id="m"><path d="M220 478h8v2.32813h-8zm0 0"/></clipPath><clipPath id="n"><path d="M235 476h4v4.32813h-4zm0 0"/></clipPath><clipPath id="o"><path d="M249 476h3v4.32813h-3zm0 0"/></clipPath><clipPath id="p"><path d="M261 477h5v3.32813h-5zm0 0"/></clipPath><clipPath id="q"><path d="M273 478h8v2.32813h-8zm0 0"/></clipPath><clipPath id="r"><path d="M287 478h7v2.32813h-7zm0 0"/></clipPath><clipPath id="s"><path d="M301 477h5v3.32813h-5zm0 0"/></clipPath><clipPath id="t"><path d="M315 476h4v4.32813h-4zm0 0"/></clipPath><clipPath id="u"><path d="M329 476h3v4.32813h-3zm0 0"/></clipPath><clipPath id="v"><path d="M340 477h7v3.32813h-7zm0 0"/></clipPath><clipPath id="w"><path d="M354 477h6v3.32813h-6zm0 0"/></clipPath><clipPath id="x"><path d="M369 476h3v4.32813h-3zm0 0"/></clipPath><clipPath id="y"><path d="M382 476h4v4.32813h-4zm0 0"/></clipPath><clipPath id="z"><path d="M393 478h8v2.32813h-8zm0 0"/></clipPath><clipPath id="A"><path d="M391 480h4v.32813h-4zm0 0"/></clipPath><clipPath id="B"><path d="M407 477h6v3.32813h-6zm0 0"/></clipPath><clipPath id="C"><path d="M420 477h7v3.32813h-7zm0 0"/></clipPath><clipPath id="D"><path d="M433 478h8v2.32813h-8zm0 0"/></clipPath><clipPath id="E"><path d="M433 480h2v.32813h-2zm0 0"/></clipPath><clipPath id="F"><path d="M447 477h7v3.32813h-7zm0 0"/></clipPath><clipPath id="G"><path d="M459 479h9v1.32813h-9zm0 0"/></clipPath><clipPath id="H"><path d="M144 464h4v6h-4zm0 0"/></clipPath><clipPath id="I"><path d="M144 451h4v5h-4zm0 0"/></clipPath><clipPath id="J"><path d="M144 438h4v5h-4zm0 0"/></clipPath><clipPath id="K"><path d="M144 424h4v6h-4zm0 0"/></clipPath><clipPath id="L"><path d="M144 411h3v6h-3zm0 0"/></clipPath><clipPath id="M"><path d="M144 398h4v5h-4zm0 0"/></clipPath><clipPath id="N"><path d="M144 383h3v8h-3zm0 0"/></clipPath><clipPath id="O"><path d="M144 370h1v8h-1zm0 0"/></clipPath><clipPath id="P"><path d="M144 370h2v2h-2zm0 0"/></clipPath><clipPath id="Q"><path d="M144 358h4v5h-4zm0 0"/></clipPath><clipPath id="R"><path d="M144 343h1v8h-1zm0 0"/></clipPath><clipPath id="S"><path d="M144 343h1v2h-1zm0 0"/></clipPath><clipPath id="T"><path d="M465 344h3v2h-3zm0 0"/></clipPath><clipPath id="U"><path d="M144 331h4v6h-4zm0 0"/></clipPath><clipPath id="V"><path d="M466 331h2v2h-2zm0 0"/></clipPath><clipPath id="W"><path d="M144 318h4v5h-4zm0 0"/></clipPath><clipPath id="X"><path d="M466 318h2v3h-2zm0 0"/></clipPath><g id="Y" clip-path="url(#clip1)"><path fill="#fff" fill-opacity="0" fill-rule="evenodd" d="M0 0h1000v1000H0zm0 0"/><path fill="#d3d3d3" fill-opacity="0" fill-rule="evenodd" d="M162.15234 355.86719l-.23437.29297.0586.23437.11718.17188.17578.23437.29297.34766.11328.0586.11719-.17188.0586-.23438.17577-.17578.46485-.17578h.69922l.23437.29297.28906.8164.0586.17579.17578.23046.35156.23438.69922.69922.17188.17578.23437.34765.23438.41016.28906.58203.41015.46485.23047.23437.23438.17578.11719.23047.17578.29297.17187 1.16406v.23438l.0586.28906.05859.11719.11719.11719.34765.41015.11719.17188.17578.17578.17578.23437.11719.17188.17188.35156.05859.23438.23437.40625.23438-.0586-.17578.17578-.0586.92969h-.58203l-.23437-.11328-.34766.11328-.11719.11719-.05859.29297-.0586.17578-.11718.17187-.46484.29297-.0586.23438-.0586.11328v.64453l.0586.17187v.41016l.0586.0586v.40624l.05859.40625.11719.17579.05859.05859.23047.64062-.0586.29297v.69922l-.05859.58203v.23438l-.0586.23047-.05468.35156v1.92187l.05469.1172h.42578l-.36719.11718-.02344.35156.89063 1.16797 1.74219.53906 1.33984.35938v.53906l.08984.8086.53516.71484 1.51953.26953.89063-.08594.08984 1.16406.53516.1797 1.16015-.1797 2.05469-.98437 1.16016-.36328 1.8789-.17578 1.69531-.1797-.17968.71876-1.51563.08594-1.25.08984-.80469.26953-1.07421.8086.26953.71875.53515.89843-.17968.625-.26563.8086.26563 1.07812.625.89844.80468.17969 1.25-.1797-.26562.72267.09766.5039.05468.29297v.17188l.0586.29296v.40625l.17578.1172.35156.11718h.40625l.29297-.17578.11328-.11719.0586-.11719.11718-.23047.0586-.17578.35156-.46484.23047-.17578.17578-.0586.17578.0586.0586.17578.11718.98828.05469.46875.0586.17188.11718.23437.17578.0586.8164.05859h.28907l.11719.23437.05859.40625.0586.35156v1.10547l.11718.29297.11719.34766.28906.69922.17578.35156.58203.7539.35157.17579.17187.0586.46875.23437.64063.46484.34765.23438.29297.17578.29297.05468.23047.0625.8164.34766.29297.17578.11328.17188.35157.35156.11719.17578.52343.64063v.28906l.0586.35156v.34766l.05859.35156.0586.28906.11718.0586.17188.05859h.17578l.58203.23437.17578.1172.17578.28905.17578.23438.11328.23437.29297.23047.11719.11719v.41016l.0586.05468.28906.23438.23437.11719.0586.11718.11718.17188.0586.11719.23047.23437.05859.17578.23437.0586.1172.05859-.1172.11328-.05859.11719v.11719l-.11719.29296-.11719.28907v.58203l.17579.11719.11718.05859.0586.11719.11719.11719.11328.05859.17578.34765.0586.35157.05858.40625v.17578l-.05859.17578-.11719.69922v.17187l.1172.17579.29296.29296h.40625l.17578.1172.11719.17187.11719.29296v.23438h-.52735l-.23047-.23438h-.23437l-.17578.0586-.0586.69922.0586.34765.11719.17579.17578.41015.11718.23047.28907.46875.17578.05469h.52344l.23437.0586.75781.64062.0586.29296v.23438l.05859.0586.23047.34765v.35156l-.11719.17188v.29297l.29297.28906.29297.17578.17187.0586.29297.17577.29297.1172.58203.40624.28906.23438.29297.17578.21875.16015.01563.01172.23047.17579.64062.52343.17578.23438.1172.17578.17577.17578.11328.17188v.64062l.1172.17578.46874.11719.58203.11719.23438.05859.23047.11328.29297.11719.11328.0586.58593.35156.28907.17187.17578.0625.17578.05469.17578.0586.69922.35155.28906.17579.23438.05468.28906.17578.23437.1172.64063.40624.29297.11719.17187.0586.23438.05859.41015.05859.23047.0586.23438.11718.0586.17188-.41017.17578.46875.0586.0586.29296.11328.23438.17578.05468.23438.0586.17578.05859.40625.11719.64062.23437.11719.17188.0586.23437v.17578l-.0586.1172-.0586.40624.23438.23438.11719.05859.34766.11719.64062.23047.17578.11718.28906.1172.17578.17577.23438.46485.58203 1.10546.17578.17579.34766.17578.17578.11719.35156.11718 1.04688.52344.23437.0586.46485.11327.29297.0586.46484.17578.75781.58203.23438.23438.34765.46484.17578.17578.28907.23438.8164.69921.29297.17579.28906.28906.29297.17578.29297.28906.69531.64063.17578.17578.29297.23437.28907.23438.46875.28906.64062.58203.34766.23438.23437.29297.34766.34765.35156.46485.9336.99218.34765.40625.11719.17579.23437.05859.11328.11719.64454.17578.23047.11328.23437.0586.29297.17577.23047.1172.9336.69921.40624.40625.23438.17578.40625.17578.23437.11719.8164.34766.34766.23437.23438.11719.29297.28906.23047.11719.7578.35156.35157.17188.23047.05859.29297.11719.23437.0586.8711.17577h.8164l.46875.23047.17188.0586.875.69921.46484.1172.29297.05858.17578.0586.23047.0586.46875.05859.34766.05859.35156.0586.40625.05859h.29297l.17187.0586v.23046l.17578.17578h.29297l.34766.0586.35156.05859.69922.11719h.64063l.46484-.23438.29297-.17578.17187-.11719.41016-.17187.28906-.17578.9336-.46485.46875-.29297.52343-.29296.46485-.17188.46484-.17578 1.05078-.46485.28906-.11718.41016-.11719.28906-.11719.52735-.17578 1.51562-.69922.58203-.34765.28907-.0586.29297-.0586.34765-.11718.875-.23047.35156-.11719h.11329l.23437-.05859.875-.23437.23438-.0586h.8125l.35156-.0586.8164-.11718.17188-.0586.35156-.05468.29297-.0586.23047-.05859.8164-.17578.17579-.0586h.34765l.23438-.05859.46484-.11718.75781-.17188.23438-.0586h.34765l.41016-.11718.28906-.0586 1.28516-.05859h.28906l.41016-.0586.23047-.05858h.17578l.875-.1172h.40625l.41015-.11718h.34766l.35156-.11328.8711-.0586h1.75l1.04687.28907.41016.11719.28906.11718.35156.11719.28907.11719 1.05078.17187.28906.0586h.29297l.29297.05859.17187.0586.41016.05859.17187.0586.1172.05858h.11718l.11719.0586.35156.0586h.11328l.41016.0664 1.92187.39453 1.92578.39453 1.51953.44922 1.69532.71875 2.14453.80469 1.60547-.71875 1.42968-.80469 1.16016-1.07813 1.25-.44921 3.03516-.71875 1.875-.35938 2.14453-1.34765 2.23437-1.25391 2.5-1.25781 1.69531-.44922 1.78516-.17969 1.16016-.26953.625.53906 1.33984-.26953.71485-.98828.98437-1.34375.44531-.17969.80469-.35937 1.875-.53907 1.78516-.44921 1.25-.26954 1.16015-.08984 1.69922-.08984 1.96094-.26954 1.25-.08984h.53906l.625-.08984h.89063l2.14453-.17969 2.41015-.17969 2.58985-.08984 1.69531.17969 1.60938.08984 1.42968.35938 1.16016.71875 1.875.98828 1.16015 1.52734.26563.71484.6289.08985.35548.89844.53515.53906.53516 1.52734 1.07422.35938h.53515l-.80469.53515.08985 1.70703.71484 2.69532.89063.80468.89453.98829.71484 1.2578 1.78516.53907 1.51953-.17969.35547 1.34375 1.60937-.80469.98047-.53906.26953.26953.31641-.21484.21875-.14453.80078.44922.44922-.35938h.35547l.53515-.26953.53907-.71875.53515-.26953.625-.98828 1.16016.44922.83984.3711 1.39454.61718 1.6953-.17969h1.60548l1.78515.08985.17969-1.70704.53516-1.34375.80468.26954.4922.84765.40233.40625-.08984.53906v.35938l.71485.44922.71093-.26953h1.42969l.35938.98828.4453 1.25781.71485 1.34375 1.25.6289 1.69531.62891.71485-.17969.17969-.53906.98046-.08984.44922.35937.08594 1.25782-.26563.6289-.53515.17969v.53906l.71484.98438.26563.53906.98437.98828.80078 1.07813-.26562.35937-.08985.89844-.625 2.33203-.35546 2.0664-.08985 1.79298-.17969.71875-.08984.53906v1.4375l-.98047 1.88281-.35937 1.70703-.53516.89844-.80469 1.16797-.26562.53906 2.05469 1.2539.08593.35938-.35546.53906-.08985-.17968v.80859l.08985 1.4375-.44532.71484-1.07422.09375-.26562.71485.53515.89844.8047.71875 1.16015.80859 1.33984.26953.44531.35938-.35546.44921-1.78907-.08984-1.25-.44922-.71484-.71875-.625-.08984-.17578 3.58984-.1875 1.3086h89.35937V311.70313h-55.26953v49.08203l.76172.125 3.28906.54296 2.02344 2.83594v2.7539l2.35156.33204 2.34766.33203h4.05078l-1.3789 4.16016-2.02344.70703-2.02344.70312-.54297.34375-2.59375 1.6172-.1875.11718-2.02344-2.07813-.73046-2.74218-2.67188-2.07813-1.375-3.5-.0664-.08203-1.95704-2.67188 2.75-1.41796v-49.08204H294.42187v91.41407l.1172.03125.1328.01172.07422.07421.10547.04688.08985.0586.08593.05859.08985.0586.29687.29687.0586.08984.03125.11719.02734.11719.01563.13671-.03125.1172-.0586.08983-.0586.08594-.04296.10547-.04688.10156-.02734.1211v.14453l.17578.26953.14844.14844.07422.08594.07422.07421.04296.10547.0625.08985.0586.08593.04297.10547.0586.08985.04687.10156.04296.10547.0586.08594.11719.17968.07421.07422.0625.08594.0586.08984.04297.10547.0586.08985.05858.08593.0625.08985.0586.08984.04297.10156.11719.17969.07421.07422.0586.08594.07422.07421.08984.0586.10547.04687h.14844l.1328-.01562.13282.01562.10156-.04687.07422-.07422.04688-.10156-.01563-.13281v-.14844l-.04687-.10547-.02735-.11719-.04687-.10156-.02735-.1211-.04296-.10156-.0625-.08984-.04297-.10156-.04297-.10547-.03125-.11719-.01563-.13281-.01171-.13672.08593-.0586.0586-.08593.12109-.03125.04297.10547.01562.1328v.1172l.0586.10156.0586.08984.08983.0586.14844.14843.0586.08985.04296.10547-.01171.10156.08593.0586.10547.04687.08594.0586.08984.05858.07422.07422-.11719.02735-.10546.04687-.08594.0586-.07422.07421-.0586.08985-.0625.08594-.02734.12109-.04687.10156-.04297.10547-.03125.11719-.01172.13281-.01563.13281v.14844l.02735.11719.04687.10547.04297.10156.0586.08984.07421.07422.08985.0586.07422.07421.08984.0586.0586.08984.04296.10547.04688.10156.11719.03125.1328.01563h.14845l.11718-.03125.10547.04297.04297.10547.04688.10156.02734.1211L299.5 410l.02734.11719.03125.1211.02735.11718.10547.04297.10156.04687.13281-.01562.14844.14844.0625.08593.07422.07422.07031.07422.08984.0625.10547.04297.10156.04297.1172.03125.13671.01562.11719-.03125.07422-.07422.02734-.11718-.01172-.13282-.03125-.12109-.02734-.11719.04297-.10547h.11719l.08984.0625.11719.02735h.14843l.13282.01562h.14843l.13282.01563.1328-.01563h.14845l.1328-.01562.13282-.01172.13672.01172.11719-.02735.13281-.01562.1914-.0586-.05859.17579-.01562.1328-.02735.1211-.01562.13281-.0586.08594-.1328.01563-.10548.04687-.10546.04297-.1172.03125-.11718.02735-.26563.03125h-.14843l-.13281.01562-.07422.07422.05859.08594.14844.14843.11719.1797.07421.0703.08985.0625.08984.0586.08594.0586.08984.05858.10156.04297.10547.0625.10547.04297.08594.0586.10547.04687.10156.04297.17969.11719.0586.08984-.04298.10156-.04687.10547.01562.13281.22266.22266.0586.08985.04296.10156.03125.1211.04297.10155.01563.13282.03125.11718.01171.13672.03125.11719.14844.14844.10156.04297.10547.04296.1172.03125.1328.01563.13672.01563h.11719l.11719-.03125.08984-.0586.04297-.10547.04688-.10156.04296-.10547.03125-.11719.01172-.1328v-.14845l-.01172-.1328-.01562-.13282-.03125-.11719-.04297-.10547-.04688-.10547-.04296-.10156-.04297-.10547-.01563-.13281.01563-.13281.02734-.11719.03125-.11719.02735-.1211.04687-.10155.08984-.0586.08594-.0625.07422-.07422.08984-.05859.22266-.22266.0586-.08593.07421-.07422.11719-.17969.0586-.08594v-.14844l-.07423-.07421-.10156-.04688-.10547-.04297-.10156-.04297-.0586-.08984-.04687-.10547-.02734-.11719.08984-.05859.11719-.03125.10156-.04297.17969-.11719.14844-.14843.01172-.13282-.01172-.10546-.08985-.0586-.1328.01563h-.14845l-.1328.01562-.13282-.01562-.1211-.03125-.08593-.0586-.07422-.07422-.0586-.08984-.0625-.08594-.11718-.17969-.0586-.08593.03125-.1211.08594-.05859.1211-.03125.05859-.08594v-.1211l-.03125-.11718-.0586-.08984-.05859-.08594-.04687-.10547-.02735-.11719-.01562-.1328.0586-.08985.07421-.07422.08984-.0586.1172-.17968.07421-.07422.0586-.08594.14843-.14844.1211-.03125.1328-.01562.13282.01562.07422.07422.04297.10547.01562.13281-.03125.1172-.11719.03124-.1328.01172-.14844.14844-.04297.10547-.04688.10156-.02734.1211-.03125.11718v.14844l.03125.11719.04297.10546.05859.08985.07422.07031.07422.07422.11719.03125.12109.02734.11719-.02734.1328-.01563h.1172l.08984.0586.07422.07422.04687.10546.0586.08594.10156.04688.13281.01562.10547.04297.08594.0586-.01172.10546-.07422.07422-.17969.11719-.05859.08984-.08984.0586-.07032.07422-.07421.07421-.0625.08985-.02735.11719-.01562.1328.01562.13282-.01562.13281v.14844l.01562.13281.02735.1172.03125.12108.07421.07422.08985.0586.08594.0586.08984.05858.11719.03125v.08594l-.10157.04688-.08984.0586-.26563.03124-.11718.02735h-.14844l-.10547.04296-.10156.04688-.0586.08984-.0625.23438-.01171.13281-.03125.1211-.01563.1328v.29298l-.01172.1328.01172.13673.01563.1328.1328.01563.13282.01172.1211.03125.08593.0586.07422.07421.04688.10547.04296.10157.01563.1328v.44532l-.01563.13281v.44532l.03125.26562.02735.11719.01562.13281.03125.11719.08594.21094.03125.26562v.14844l-.03125.11719-.02734.11718-.03125.1211-.02735.11719-.03125.11718-.03125.1211-.01171.1328-.01563.13282.08984.0586.1172-.03125.10155.01562.04688.10547-.03125.26562v.44141l-.04297.10547-.04688.10547-.04296.10156-.04297.10547-.0586.08594-.03125.12109-.04296.11719-.03125.11719-.01563.1328.01563.13282.05859.08984.10547.04688.08594.0586.05859.08593-.01172.13672-.03125.11719-.04297.10156v.44531l-.01562.13281v.14844l-.03125.11719-.04297.10547-.02735.11719-.04687.10546-.04297.10157-.03125.12109-.02734.11719-.03125.13281-.03125.11719-.02735.11719-.04297.10546-.03125.1172-.03125.12108-.01171.13282-.01563.13281v.29688l.02734.11718v.14844l.04688.39844.02734.11719.0586.08984.12109.03125h.14844l.13281-.01563.0586.08985v.11719l-.0586.08984-.08984.0586-.10157.04296-.10546.04688-.08985.05859-.08594.0586-.13671.01562-.1172-.03125-.1328-.01563-.10157.04688-.0625.08594-.01172.13671-.01562.13282-.03125.11719-.02735.11718-.01562.13281-.03125.1211v.29687l.01563.13282.03125.11718v.14844l.01171.13281v.14844l-.02734.11719-.04688.10156-.02734.1211-.03125.11718-.0586.08985-.07421.07421-.10156.04297-.10547.04688-.11719.02734-.1211.03125-.10156-.04687.0586-.08594.10547-.04688.02734-.11718.03125-.11719.02734-.1211.03125-.11718v-.14844l.01563-.13281-.03125-.11719-.04297-.10547-.10547.01563-.07422.07422-.10156.04296-.08984.0625-.07422.07422-.04297.10157-.01563.1328-.03125.1172L304.25 426l-.03125.11719-.02734.11719-.03125.12109-.02735.11719-.03125.11718-.04297.10547-.08984.0586h-.08984l-.1172-.03125-.03124-.08594.01562-.13672-.03125-.11719v-.14844l-.01171-.1328v-.14844l-.0625-.23438-.02735-.1211-.04297-.10156-.04687-.10546-.0586-.08594-.05859-.08985-.04297-.10546-.0625-.08594-.14844-.14844-.0703-.07422-.10548-.04687-.10547-.04297-.10156-.04297-.29687-.29688-.08985-.07421-.08594-.0586-.10546-.04297-.08985-.0625-.08594-.0586-.10546-.04296-.08985-.0586-.08594-.0625-.07421-.0703-.10547-.04688-.08594-.0586-.10547-.04296-.08984-.0625-.10156-.04297-.10547-.04297-.08594-.0586-.10547-.04687-.10547-.04297-.10156-.04687-.08985-.0586-.10156-.04297-.10547-.04296-.08984-.0625-.11719-.02735-.13281-.01562-.13281.01562H299.75l-.13281.01563-.11719-.03125-.08984-.0586-.07422-.07422-.08985-.05859-.10156-.04688h-.14844l-.12109-.02734-.10156-.04297-.07422-.07422-.11719-.17968-.08984-.0586-.10156-.04297-.08985-.0625-.10547-.04296-.08984-.0586-.08594-.0586-.10547-.04687-.0586-.08594-.05858-.08984-.04297-.10547-.04688-.10156-.07422-.07422-.08594-.0586-.07421-.07421-.08985-.0586-.22265-.22265-.04297-.10547-.03125-.26563.10547-.04296h.14453l.10547.04296.07421.07422.08985.0586.08594.0586.10546.04687.08985.05859.14844.14844.0703.07422.14845.14843.0625.08594.07421.07422.08594.0586.07422.07421.08985.0625.08984.0586.08594.05859.26953.17578.10156.04688.10547.04296.10156.04297.04688-.07421.05859-.08594.07422-.07422.07031-.07422.10547.04297.07422.07422.0586.08984.04296.10156.04688.10547.04296.10547.1211.02735.11719-.02735.07421-.08984.04297-.10547.0586-.08985.07422-.07421.10546-.04297.1172-.02735.1328.01172.08985.0586.14844.14843.05859.08985.04297.10547.04687.10156.04297.10547.04297.10156.10547.04688.10547.04296.13281.01563.08594-.0586.0586-.08984.07421-.07422.10547-.04297.11719.02735.10547.04687.10156.04297.10547.04297.10156.04688.17969.11718v.11719l-.01563.13281.01563.13281.01562.13672.0586.08594.10156.04688.1211.02734.11718.03125h.14844l.11719-.03125.05859-.08984.17969-.1172.05859-.08983.07422-.07422.0586-.08594.11718-.17969.17969-.11719.11719.03125.08984.0586.04297.07422-.01563.1328v.1172l.08985.05859h.14843l.13282-.01563.1328-.01171.26563-.03125.10547-.04297.11719-.03125.1211-.02735.07421-.07421.07031-.07422.0625-.08985-.01562-.10547-.04688-.10156-.10156-.04297-.10547-.01562-.11718.02734-.26563.03125h-.14844l-.07421-.07422-.08985-.0586-.11719-.03124-.11718-.02735-.13282-.01562h-.14843l-.13282.01563h-.29687l-.10547-.04688-.14844-.14844-.04297-.10156-.05859-.08984.22266-.22266.08593-.0586.10547-.04296.11719-.03125.13281-.01563.13281.01563.13672.01562.10157.04297.1328-.01172.08985-.0625.10156-.04297.0625-.08984-.04687-.10156-.08984-.0586-.1172-.03125-.10155-.04296-.0586-.08985-.0625-.08984v-.11719l.01563-.13281.10547-.04688.07421-.07031v-.1211l-.08984-.05859-.03125-.11719.08985-.05859.07421-.07422.04297-.10547.0586-.08984.04687-.10156.01563-.13281v-.14844l-.04688-.10547-.04297-.10156-.08984-.0586-.13281-.01562-.10157-.04297-.13671-.01563-.1172-.03125h-.4453l-.13282-.01562-.13281-.01172-.13281-.01563-.11719-.03125h-.14844l-.13281-.01562-.13281-.01172-.26563-.03125-.1211-.04297-.08593-.0586-.07422-.07421v-.14844l.01172-.13281.10547-.04688.10156-.04296.13281-.01563h.15235l.13281-.01562h.29297l.1211.03125.10156.04296.08984.0586.23438.0625.12109-.04688.08984-.05859.10156-.04297.13282-.01562.10547.04296.10156.04688.13281.01172.1211-.02735h.14453l.12109-.03125.11719-.02734.10547-.04687.07421-.07422.08594-.0586.14844-.14843.0586-.08594.04687-.10547.02734-.11719.01563-.10547-.10156-.04296-.08985-.0586-.11719-.03125-.10546-.04297-.08985-.0625-.07422-.08594-.07422-.07421-.10156-.04297-.10547-.04688-.10156-.04297-.0586-.08984-.04687-.10156-.08594-.21094-.0625-.08594-.05859-.08984-.07422-.07422-.08594-.0586h-.26953l-.11719.03126-.08984.05859-.10156.04297-.13281.01562-.10547-.01562-.02735-.11719-.0625-.08984-.11718-.03125-.10157-.04297-.14843-.14844-.03125-.11719-.01563-.10546.07422-.07422.17969-.1172.11719-.02733.11718-.03125.13672.01562.10156.04297.10547.04297.10156.04687.10547.04297.1172.03125.1328.01563.1172.02734.1328.01563.10547-.01563.08985-.0586-.07422-.07421-.10547-.04297-.07422-.07422-.07422-.08984-.14844-.14844-.08593-.0586-.08985-.05859-.07422-.07422-.08984-.0586-.10156-.04687-.1211-.02734-.10156-.04688-.10547-.04296-.11719-.03125-.10156-.04297-.1211-.03125h-.14843l-.11719.03125-.10546.04297-.08594.0625-.17969.11718-.08594.0586-.08984.0586-.10547.04687-.08594.05859-.10547.04297-.10156.04297-.10547.04687-.07422.07422-.05859.08985-.0586.08593-.04687.10547-.0586.08594-.07421.07422-.13281-.01172-.1172-.03125h-.11718l-.07422.07422-.08984.0586-.07422.07421-.08984.0586-.08594.05859-.10547.04687-.10156.04297-.13672.01563-.10156-.04297-.14844-.14844-.10547-.04688h-.08594l-.10547.04688-.10156.04297-.1211.03125-.11718-.03125-.07422-.07422v-.11719l.03125-.1211.07422-.0703.0586-.08985.07421-.07422.11719-.03125.10547-.04296h.29297l.13281-.01563.13672-.01563.10156-.04296.08985-.0586.10156-.04687.08984-.0586.13281-.01171.08985.05859.13281.01172.08984-.0586.08594-.05859.10547-.04297.08984-.0586.08594-.0625.08985-.05859.14843-.14843.0586-.08594.05859-.08985.10547-.04296.13281-.01563.11719.02735.1211.03125.05859-.0586.05859-.08984.03125-.26563.02734-.11719.10547.01172.13281.01563.10157-.04297.08984-.0586.0586-.08984.07421-.07422.0586-.08984.04687-.10156.01172-.13281-.01172-.13282-.04687-.10547-.14844-.14843-.0586-.08985-.05859-.08594-.04297-.10546v-.44532l.01563-.1328v-.14845l.01172-.1328-.0586-.0586-.08984.0586-.10156-.04298-.17969-.11719-.08594-.05859-.0625-.08984-.0586-.08985-.07421-.07421-.08594-.0586-.1211.03125-.10155.01172-.10547.04688-.08594.05859-.10547.04297-.14844.14844-.08984.05859-.08594.0586-.08984.0625-.10547.04296-.13281.01563v-.1211l.10547-.04297.11718-.03125.07422-.0703.04297-.10548v-.14844l-.02734-.11718-.14844-.14844-.13281-.01563h-.14844l-.11719.03125-.10547.04297-.10156.04297-.08984.0625-.11719.02735-.07422-.07422.01172-.13281-.04297-.10157-.04297-.10547-.08984-.05859-.11719.02734-.1211.03125-.11718.03125-.10156.04297-.1211.03125-.10156.04297-.10547.04297-.08984.0586-.10156.01562v-.11719l.01562-.13281-.0586-.08985-.07421.04297-.14844.14844-.0586.08985-.07421.07421-.04688.10547-.04296.10156-.07422.07422-.0586.08985-.07422.07422-.05859.08593-.07422.07422-.08984.0625-.07422.07031-.07422.07422-.10156.01563-.13281.01562-.10547-.04296v-.1211l.14843-.14844.04297-.10156.0586-.08984.04687-.10156.04297-.10547.0586-.08985.03124-.11719.04297-.10156.03125-.1211.02735-.11718.04687-.10547.04297-.10156.04297-.10547.07422-.07031.08984-.0625.08985-.0586.10156-.04296h.29687l.26563-.03125.10547-.04297-.07422-.07422-.11719-.03125-.10547-.04297-.08984-.0586-.10156-.04687-.08985-.0586-.10156-.04296-.10547-.04297-.08984-.0625-.08594-.0586-.10547-.04296-.10156-.04297-.1211-.03125-.11718-.03125-.10157-.04297L297.5 410.25l-.10156-.04297-.08985-.0586-.04296-.10546-.01563-.13281.10156-.04297.13281-.01563.13672.01563.13282-.01563.10156-.04297.0586-.08984.01562-.10547-.08985-.0586-.07421-.07421-.10157-.04297-.08984-.0586-.14844-.14843-.04297-.10547-.01562-.13281v-.29297l-.0586-.08985-.08984-.05859-.07422-.07422-.04297-.10547-.03125-.11718-.0586-.08985-.07421-.07422-.11719-.02734-.07422-.07422-.08984-.0586-.08984-.0625-.08594-.05859-.07422-.07421-.0586-.08594-.04687-.10547-.08594-.0586-.14843-.14843-.19532-.0586-.1328.01563-.10157.04297-.07422.07422-.04688.10156-.04296.10547-.0586.08984-.0586.08594-.29687.29687-.08984.0586h-.08594l-.0625-.08594-.04297-.10547.03125-.11719.0586-.08984.02734-.11719-.01172-.13281-.08984-.0625-.10547.04688-.11719.02734-.11719.03125-.26953.17578-.10156.04688-.11719.02734-.10546.04687-.08985.0586-.10156.04297-.0586-.08594-.04687-.10547.01563-.13281.04687-.10547.07031-.07422.07422-.07031.0586-.08985v-.14843l-.04297-.10547h-.23829l-.10156.04687-.03125.11719-.02734.11719-.03125.1211-.07422.04296-.13281.01563-.07422-.04688-.04297-.10156-.04297-.10547-.04687-.10156-.04297-.10547-.1211.03125-.10156.04297-.13281.01562-.11719.03125-.10547.04297-.08984.0586-.10156.04687-.1211.02734-.13281.01563-.10156-.04297-.0586-.08985-.04687-.10546-.04297-.10157-.04297-.10546v-.1172l.0586-.08984.08593-.05859.17969-.11719.10156-.04687.10547-.04297.10547-.0586.10156-.04296.08985-.0625.10156-.04297.10547-.0586.10156-.04687.08984-.0586.10547-.04296.10156-.04297.08985-.0625.10156-.04297.13672-.01563.11719.03125.10156.04297.1211.03125.10156.04297.10546.04688.10157.04296.10547.04297.10156.04688.10547.04297.10156.04297.10547.04687.08594.0586.10546.04296.1172.03125.10546.04297.10156.04688.08985.0586.10547.04296.10156.04297.10547.04687.11719.02735.10156.04687.1211.02735h.14843l.08594-.0586.01562-.10156.0586-.08984-.02735-.1172-.07422-.07421-.11719-.17969-.07421-.07422-.08985-.07421-.17969-.1172-.08593-.05859-.10547-.04296-.10156-.04688-.26954-.17578-.05859-.08985-.07422-.07421-.0586-.08985-.04296-.10156-.03125-.11719-.01563-.13672v-.5625l-.01171-.1328-.01563-.13282-.03125-.11719-.01562-.13281-.01172-.13281-.03125-.1211-.22266-.22265-.0586-.08594-.01562-.10547.03125-.11719.13281-.01562v-91.41406H172.9922v1.45312l-.0586.23438-.35156 1.05078-.17187.52343-.1172.34766-.17577.41016-.11719.17187-.23438.29297-.23046.0586h-.35157l-.11718.05859-.23047.40625v.29297l.11719.17578.23046.23047.1172.23437.64062.75781.29297.46485.17578.23437.23047.35156.23437.34766.64063.8164.17578.46485.17187.41016.11719.69531.17578.46875.11719 1.39844.0586.46484v.875l.11718 1.04688v4.78125l-.0586.46484-.35156 1.28125-.17578.52344-.11328.41015-.35156.9297L172.93359 336l-.23437.58203-.11719.17578-.17187.34766-.17578.40625-.35157.8164-.0586.29297-.11327.29297-.11719.28906-.0586.17579-.11718.875-.0586.40625-.05859.11718-.0586.17579-.05859.17187-.23047.52734-.11718.17188v.23437l-.11719.23438-.0586.17187-.17577.58594v.28906l-.0586.17579v.29296l-.0586.11329-.05859.52734v.17187l-.05468.23438v2.6211l-.17578.8164-.1172.17578-.17577.23438-.1172.17187-.11327.23438-.58594.93359-.23047.28906-.29297.46485-.17578.23437-.28906.35156-.35156.69922-.11328.23047-.17579.41016-.17578.23046-.40625.52735-.8164.69922-.29297.17187-.28906.23438-.17579.11719-.17578.17578-.52344.40625-.52734.17578-.17187.17578-.23438.05469-.64062.17578h-.75782m12.21094 31.02344l-1.07422.44921.35938.89454 1.25-.71485.44531-.53906-.98047-.08985"/><path fill="#d3d3d3" fill-opacity="0" fill-rule="evenodd" d="M201.50781 416.59766h-.89453l.44922.6289.98047.35938.80469-.08985.4453-.98828-.17577.08985-.71485-.35547-.89453.35547m154.6211 59.0703l-.0586-.52343v-.29297l.11328-.29297.0586-.23046.46875-.46875h.11328l.11719-.11329.11718-.05859h.17579l.23437-.0586h.34766l.23437.0586.11719.0586.23047.17187.0586.17578.11718.58203v.29297l-.11719.17578-.17187.28906-.17579.17579-.52734.52343-.23047.23438-.11719.0586h-.17578l-.11718-.0586-.40625-.29297-.17579-.11719-.11718-.0586-.0586-.11327-.05468-.1172m6.64062-10.95702l-.0586-.17188v-1.10937l.0586-.17188.17578-.0586.17188-.05858h.17578l.23437-.0586.1172.0586.05858.69921-.05859.17188-.11719.17578-.11718.0586-.23438.52343-.11328.0586h-.23438l-.05859-.1172m9.61328-14.39062l-.11719-.17578v-.69922l.29297-.875.1172-.17187.17577-.35156.11328-.23047.1172-.29297.35155-.75781.1172-.23047.17187-.23438h.17578l.11719-.0586h.64062l.11719.0586.23437.23438.17188.11328.35156.29297.11719.11718.11328.17579v.11328l.11719.05859.11718.11719v.69922l-.05859.17578v.23047l-.0586.17578-.34765 1.05078-.11719.23047-.11719.23437-.11718.0586-.23047.23437-.64063.28906h-.875l-.41015-.11718-.64063-.46485"/><path fill="none" stroke="#bebebe" stroke-linecap="round" stroke-linejoin="round" stroke-miterlimit="10" stroke-width=".5" d="M467.95703 311.69531H144.02734v168.625h323.9297v-168.625"/><g clip-path="url(#a)"><path fill="#fff" fill-opacity="0" fill-rule="evenodd" d="M144 475.89063v4.4375h.0039H144V311.67188h.0039H144v164.21875"/></g><g clip-path="url(#b)"><path fill="#fff" fill-opacity="0" fill-rule="evenodd" d="M144.0039 480.32813V311.67188h164.21485v102.80078l-3.67188 3.71875-.76562.65625-4.4375-.04297-1.3164-.61328-3.125-3.20704-4.4375-.33203-2.84766 3.53907-1.58985 1.625-2.8125 2.8125-1.625.77343-4.4375.39454-4.4414-.26563-4.34375 3.53906 3.69531 4.4375.64844.53516 4.4414.24219 4.4375 3.57421.16797.08594-.16797.52735-4.4375 3.73828-.11718.17187-4.32422 3.17578-4.4375.96094-4.4375-2.27344-4.4375-.05859-3.83203 2.63281-.60938.83203-4.4375.64063-4.4375 1.98047-3.60156-3.45313 3.60156-.33984 3.88281-4.09766.5547-1.64062 4.4375-1.99219 4.4414 1.63281 2.10156-2.4375 1.11719-4.4375 1.21875-2.7461 3.8711-1.6914-1.57032-4.4414-2.30078-2.44532-4.4375-.74609-2.96485 3.1914-1.47656 3.14063-4.4375-.16797-4.4375-2.39062-4.4375.48437-4.4375.17969-4.4414-.22656-4.4375-.13672-4.4375.77734-2.875 2.78125-1.5625 1.69922-4.4375-.89453-4.44141.33594-4.23828 3.29687-.19922.08985-4.4375.83203-4.4375 1.39453-2.50781 2.1211-1.9336.73827-4.4375 1.42579-2.79297 2.27343-1.64453 2.4375-4.4375.19531-2.6289 1.8047-1.8125 1.0664-4.4375-.27735-4.4375 1.94141-1.26172 1.71094-1.97266 4.4375 2.8164 4.4375.41798 1.07031 4.4375.35156 3.0664 3.01563 1.3711.19531.8828-.19531-.8828-.54297-3.8711-3.89453 2.80078-4.4375 1.07032-.67578 4.4414-1.05469 4.4375.28125 4.4375-.5664 4.4375-.23048 4.4414 1.54297 1.42579.70313-1.29297 4.4375-.13281 1.08203-3.33203 3.35547 3.33203.85937 4.4375-.79687.125-.0625 4.3125-.71875 4.4375-.41016 4.4414-.53125 4.4375.3086 4.4375.82421 1.77344.52735 2.66406 1.5664 2.53516-1.5664 1.90234-.5039L237.20703 461l4.4375-2.39844 1.02734-.46484 3.41016-1.4336 4.4375-2.09375 2.95703-.91015 1.48047-.59375 3.19531-3.84375 1.2461-.94531 4.4375-.03907 4.4375-2.9453 4.27734 3.92968.16016.5 4.4414 3.8086 4.4375-.52735 4.4375-.86328 1.08594 1.51953 1.67188 4.4375 1.67968 2.51172 4.4375 1.14062 4.44141-.63672 4.4375-2.41015.625-.60547 3.8125-1.80078 3.03125-2.63672 1.40625-.9961 4.4414-3.17578.29688 4.17188 4.14063 4.40234 4.4375-1.03906 4.4375-1.42578 2.30859-1.9375 2.1289-2.05469 3.09766-2.38281-3.09765-3.42578-4.4375-.48047-4.4375.85937-4.4375-.87109-4.4375 3.82031-4.44141-3.76562-4.4375-.35156-1.17578-.22657-3.26172-2.05469-3.05078 2.0547-1.38672.41015-1.28516-.41016L294.90234 443l-4.4375.76172-4.4375-2.21485-2.01171-1.16406 2.01171-.875 4.4375.3164 3.56641-3.8789.8711-2.64844 3.94921 2.64844.49219.47266.51563-.47266-.51563-2.57812-.52344-1.85938.52344-.1836 4.4375-.24608 4.10938-4.00782.32812-.48437 4.4375-.32031v11.53906l-4.3125 2.57812 4.3125 3.4336 3.36719-3.4336-3.36719-2.57812v-11.53906l3.4336-3.63672.47656-4.4375-3.91016-3.39454-4.4375-.32421V311.67187h31.07031v104.53125l-2.84765 1.98829 2.84765 4.125 3.92188-4.125-3.92188-1.98829V311.67188h8.875v105.29297l-3.51562 1.22657 3.51562 1.48828v4.58594l-4.4375.07812-1.32422 2.72656 1.32422 1.33985 2.07031 3.09765.14454 4.4375-2.21485 3.65235-1.35937.78515 1.35937.79297 1.19922-.79297 3.23828-1.625 2.08985 1.625 2.34765 1.59375 4.4414 1.98828 4.4375-2.5039 1.45313-1.07813-1.45312-1.0664-.57813-3.3711-.61718-4.4375-3.2422-3.33594-4.4414.90625-1.76172-2.0078-2.67578-2.8047v-4.58593l1.1875-1.48828-1.1875-1.22657V311.67188h8.8789v109.40234l-1.58202 1.55469 1.58203 1.84375 1.65625-1.84375-1.65625-1.5547V311.67189h22.1914v131.7539l-.85156 1.39453-3.58984 2.91016-1.67188 1.53125 1.67188 1.57422v24.7539l-.29688.30079.29688.48437.30469-.48438-.3047-.30078v-24.7539l1.82032-1.57422 2.6211-3.38281 3.57812-1.0586-3.57813-1.39453v-131.7539h17.75v138.5664l-4.4375 1.1211-2.02734 2.33984-2.41015 1.63281-3 2.80469-1.4375 2.92187-1.33985 1.51563 1.33985 1.30078 4.4375 2.38281 4.4375.4414 4.4375.21876 4.4414-.73438 4.21485-3.60937.22265-.48438 3.39453-3.95312-3.39453-4.11719-.22656-.32031-4.21094-2.83985-4.4414-.62109v-138.5664h71.01171v168.34765l-.26562.3086H144.0039"/></g><path fill="#50fcfc" fill-rule="evenodd" d="M165.77344 458.13672l-2.8164-4.4375 1.97265-4.4375 1.26172-1.71094 4.4375-1.9414 4.4375.27734 1.8125-1.0664 2.6289-1.8047 4.4375-.1953 1.64453-2.4375 2.79297-2.27344 4.4375-1.42579 1.9336-.73828 2.5078-2.1211 4.4375-1.39452 4.4375-.83203.19923-.08985 4.23828-3.29687 4.4414-.33594 4.4375.89453 1.5625-1.69922 2.875-2.78125v5.875l-1.46875 1.34375 1.01954 4.4375.44922.95703 4.4375 1.90625.48828-2.86328-.48828-1.82031-2.62891-2.61719-1.8086-1.34375v-5.875l4.4375-.77734 4.4375.13672 4.44141.22656 4.4375-.17969 4.4375-.48437v1.39844l-4.4375.83984-4.4375 1.1289-4.4414-.94921-4.4375-.47266-4.03125 1.91406 4.03125 3.21094 1.42578 1.22656.32422 4.4375 2.6875 2.67578v1.25782l-2.89844.5039 2.89844.64844 4.4414-.08594.39844-.5625-.39844-.19922-4.4414-.30468v-1.25782l4.4414.79688 1.91016.96484-1.91016 2.6875-4.4414-.42578-4.4375.60156-2.9922-2.86328-1.4453-.95703-1.64063-3.48047-2.79688-4.04687-.6289-.39063-3.8086-2.10547-4.4414.57032-1.97266 1.53515-2.46484 1.11328-4.4375 1.61329-2.9375 1.71093-1.5.58985-4.4414 1.99609-3.09766 1.85156-1.33985 3.90235-.33594.53515.33594.45313 4.4375 2.14062 4.4414-.36719 4.4375 1.36329.84767.85156 3.58984 1.98047 4.4375 2.19922.44922.2578-.44922 1.15235-4.4375 1.14453-4.4375.14844-1.625 1.99219 1.625 1.6836 4.4375-.23048 4.4375-.8789 1.74219-.57422 2.69922-1.47266 4.4375 1.08203.24609.39063 4.1914 1.71094 4.4375 1.53906 4.4375-1.17969 4.36329-2.07031.07812-.05078 4.4375-2.5586 2.54688-1.82812-1.70703-4.4375-.83985-.82813-2.33594-3.61328 2.33594-1.57031 4.4375.30469 3.00781-3.17188 1.4297-4.22656.375-.21094 4.0625-2.375 4.4414-.0039.83203-2.0586-.83203-1.97265-4.4414-.25-4.4375-.78516-1.3125-1.42969-3.125-2.46094v-1.39843l4.4375 2.39062 4.4375.16797 1.47655-3.14062 2.96485-3.19141v2.76953l-.39453.42188.39453 1.15234 1.40234-1.15234-1.40234-.42188v-2.76953l4.4375.7461 2.30078 2.4453 1.57031 4.44141-3.8711 1.6914-1.21874 2.7461-1.11719 4.4375-2.10156 2.4375-4.4414-1.63281-4.4375 1.99219-.5547 1.64062-3.8828 4.09766-3.60157.33984 3.60156 3.45313 4.4375-1.98047 4.4375-.64063.60938-.83203 3.83203-2.63281 4.4375.0586 4.4375 2.27343 4.4375-.96094 4.32422-3.17578.11718-.17187 4.4375-3.73828v6.54687l-1.91796 1.80078-2.51954 1.80469-2.03515 2.63672 2.03515 1.96094 4.4375-.4336 2.90625-1.52734.40625-4.4414-3.3125-1.80079v-6.54687l.16797-.52735-.16797-.08594-4.4375-3.57421-4.4414-.2422-.64844-.53515-3.69531-4.4375 4.34375-3.53906 4.4414.26563 4.4375-.39454 1.625-.77343 2.8125-2.8125 1.58985-1.625 2.84765-3.53907 4.4375.33204 3.125 3.20703 1.31641.61328 4.4375.04297.76563-.65625 3.67187-3.71875v1.37109l-2.3164 2.34766-2.1211 1.8164-4.4375-.14062-3.60156-1.67578-.83985-.85938-4.125.85938-.3125.08593-4.24609 4.35157-.1914.11718-4.4375 2.07813-4.4375 1.20312-4.44141-.84765-2.3164 1.89062 2.3164 2.44531 4.4414-.96093 1.70704 2.95312 2.73046 2.59766 3.62891 1.83984.8086.67578 4.4375 1.63672 2.125-2.3125 2.02734-4.4375.28515-1.57422 4.44141-1.92187 4.4375 2.04687 3.0625-2.98828 1.375-2.01953 4.4375-.71875 1.60547-1.70312-.0664-4.4375-1.53907-1.33594-4.4375-1.01172v-1.3711l4.4375.32423 3.91016 3.39453-.47657 4.4375-3.43359 3.63671-4.4375.32032-.32813.48437-4.10937 4.00781-4.4375.2461-.52344.1836.52344 1.85937.51563 2.57812-.51563.47266-.49219-.47266-3.94922-2.64844-.87109 2.64844-3.5664 3.8789-4.4375-.3164-2.01173.875 2.01172 1.16406 4.4375 2.21485 4.4375-.76172 3.15625 1.82031 1.28516.41016 1.38672-.41016 3.05078-2.05469v3.33204l-4.4375 1.45703-4.4414 1.1289-4.4375.5625-.03516.01563-.0664 4.4375.10155.1836 2.72657 4.2539 1.71093 1.13281 4.44141-.32812 1.27734-.8047 3.16016-1.70702 4.17578-2.73047.26172-.23828 4.4375-3.10938 1.41406-1.08984-1.41406-1.22656-4.4375-1.3672-4.4375-.5703v-3.33204l3.26172 2.0547 1.17578.22656 4.4375.35156 4.4414 3.76562 4.4375-3.82031v5.36719l-1.57421 2.98828 1.57422 1.67187 4.4375-.73437 1.93359-.9375-1.9336-1.9961-4.4375-.99218v-5.36719l4.4375.8711 4.4375-.85938 4.4375.48047 3.09766 3.42578-3.09765 2.38281-2.12891 2.05469-2.3086 1.9375-4.4375 1.42578-4.4375 1.03906-4.14062-4.40234-.29687-4.17188-4.44141 3.17579-1.40625.99609-3.03125 2.63672-3.8125 1.80078-.625.60547-4.4375 2.41015-4.4414.63672-4.4375-1.14062-1.6797-2.51172-1.67187-4.4375-1.08594-1.51953-4.4375.86328-4.4375.52734-4.4414-3.8086-.16016-.5-4.27734-3.92968-4.4375 2.94531-4.4375.03907-1.2461.9453-3.1953 3.84376-1.48048.59375-2.95703.91015-4.4375 2.09375-3.41016 1.4336-1.02734.46484L237.20703 461l-4.4414 1.07031-1.90235.5039-2.53516 1.56642-2.66406-1.56641-1.77344-.52735-4.4375-.82421-4.4375-.3086-4.4414.53125-4.4375.41016-4.3125.71875-.125.0625-4.4375.79687-3.33203-.85937 3.33203-3.35547.13281-1.08203 1.29297-4.4375-1.42578-.70313-4.4414-1.54296-4.4375.23046-4.4375.56641-4.4375-.28125-4.44141 1.05469-1.07032.67578-2.80078 4.4375 3.8711 3.89453.8828.54297-.8828.19531-1.3711-.19531-3.0664-3.01563-4.4375-.35156-.41797-1.07031"/><path fill="#00e8fc" fill-rule="evenodd" d="M188.38281 445.27344l-.33594-.45313.33594-.53515 1.33985-3.90235 3.09765-1.85156 4.4414-1.9961 1.5-.58984 2.9375-1.71094 4.4375-1.61328 2.46485-1.11328 1.97266-1.53515 4.4414-.57032v2.83985l-4.4414.58594-4.4375 1.5-3.04688 1.61718-1.39062 1.27344-4.4375 1.35547-3.0625 1.8086 3.0625 2.35546 4.4375.3789 4.4375-.96874 4.4375-.92188 1.75781 3.59375.86719 4.4414 1.8164 1.08204 4.4375.01172 1.3125-1.09375.69141-4.4414-2.0039-1.51954-4.4375-.57812-3.90235-2.33985 3.90234-2.35937 4.4375-1.21485v2.10157l-4.38671 1.47265 4.38672 1.20313 3.34765-1.20313-3.34766-1.47265v-2.10157l.8125-.86328-.8125-1.17969-4.4375-2.52343v-2.83985l3.8086 2.10547.6289.39063 2.79688 4.04687 1.64063 3.48047v4.28906l-.17188 1.10547.17188.64844 1-.64844-1-1.10547v-4.28906l1.4453.95703 2.9922 2.86328 4.4375-.60156v7.88281l-3.3672 3.17188-1.0703 2.83594-.35547 1.60156.35547.14453.53906-.14453 3.89844-2.5 4.14843-1.9375-4.14844-3.17188v-7.8828l4.44141.42577 1.91016-2.6875-1.91016-.96484-4.4414-.79688-2.6875-2.67578-.32422-4.4375-1.42578-1.22656-4.03125-3.21094 4.03125-1.91406 4.4375.47266 4.4414.94921 4.4375-1.1289 4.4375-.83985v2.33204l-.48437.1289-3.95313 3.21875-4.4375-1.40625-3.3164 2.625-1.125 2.71875-.58204 1.71875.58203.57813 4.44141 1.6211 4.4375 2.23827 4.4375 1.6289 1.54688-1.6289 1.63672-4.4375 1.03515-4.4375-4.05469-4.4375-.16406-.1289v-2.33204l3.125 2.46094 1.3125 1.42969 4.4375.78516 4.4414.25.83204 1.97265-.83203 2.0586-4.4414.0039-4.0625 2.375-.375.21094-1.4297 4.22656-3.0078 3.17188-4.4375-.30469-2.33595 1.57031 2.33594 3.61328.83984.82813 1.70704 4.4375-2.54688 1.82812-4.4375 2.5586-.07812.05078-4.36328 2.07031-4.4375 1.17969-4.4375-1.53906-4.19141-1.71094-.2461-.39063-4.4375-1.08203-2.69921 1.47266-1.7422.57422-4.4375.8789-4.4375.23047-1.625-1.6836 1.625-1.99218 4.4375-.14844 4.4375-1.14453.44923-1.15234-.44922-.25781-4.4375-2.19922-3.58984-1.98047-.84766-.85156-4.4375-1.36329-4.4414.3672-4.4375-2.14063"/><path fill="#00d4fc" fill-rule="evenodd" d="M197.26172 442.73828l-3.0625-2.35547 3.0625-1.8086 4.4375-1.35546v2.94922l-1.73438.21484 1.73438.1836.75-.1836-.75-.21484v-2.94922l1.39062-1.27344 3.04688-1.61719 4.4375-1.5v2.77344l-3.125.34375 3.125.5586 2.21094-.5586-2.21094-.34375v-2.77344l4.4414-.58593 4.4375 2.52344.8125 1.17968-.8125.86328-4.4375 1.21485-3.90234 2.35937 3.90234 2.33985 4.4375.57812 2.00391 1.51953-.6914 4.4414-1.3125 1.09376-4.4375-.01172-1.81641-1.08203-.86719-4.4414-1.75781-3.59376-4.4375.92188-4.4375.96875-4.4375-.3789"/><path fill="#00c4fc" fill-rule="evenodd" d="M201.69922 440.5664l-1.73438-.18359 1.73438-.21484.75.21484-.75.1836m8.875-4.0625l-3.125-.5586 3.125-.34375 2.21094.34375-2.21094.5586"/><path fill="#50fcfc" fill-rule="evenodd" d="M219.45313 438.91016l-4.38672 1.47265 4.38672 1.20313 3.34765-1.20313-3.34766-1.47265v1.26171l.47657.21094-.47656.17188-.625-.17188.625-.21094v-1.26171"/><path fill="#fff" fill-opacity="0" fill-rule="evenodd" d="M219.45313 440.17188l-.625.21093.625.17188.47656-.17188-.47656-.21094m4.4375-10.0078l-1.46875 1.34374 1.01953 4.4375.44922.95703 4.4375 1.90625.48828-2.86328-.48828-1.82031-2.62891-2.61719-1.8086-1.34375"/><path fill="#50fcfc" fill-rule="evenodd" d="M223.89063 443.71484l-.17188 1.10547.17188.64844 1-.64844-1-1.10547"/><path fill="#00d4fc" fill-rule="evenodd" d="M228.32813 458.28125l-.35547-.14453.35547-1.60156 1.0703-2.83594 3.3672-3.17188 4.14843 3.17188-4.14844 1.9375-3.89843 2.5-.53906.14453"/><path fill="#fff" fill-opacity="0" fill-rule="evenodd" d="M232.76563 439.8789l-2.89844.50391 2.89844.64844 4.4414-.08594.39844-.5625-.39844-.19922-4.4414-.30468"/><path fill="#00d4fc" fill-rule="evenodd" d="M232.76563 436.52344l-.58204-.57813.58203-1.71875 1.125-2.71875 3.31641-2.625 4.4375 1.40625 3.95313-3.21875.48437-.1289v3.4375l-1.23828 1.1289-3.19922 3.38281-3.29297-3.3828-1.14453-.58985-.7461.58984-1.48046 4.4375 2.22656.92578 4.4375-.01171 4.19531 3.52343.2422.08985.08593-.08985 1.78125-4.4375-.83984-4.4375-1.02735-1.1289v-3.4375l.16406.1289 4.0547 4.4375-1.03517 4.4375-1.63671 4.4375-1.54688 1.6289-4.4375-1.6289-4.4375-2.23828-4.4414-1.6211"/><path fill="#00c4fc" fill-rule="evenodd" d="M237.20703 436.8711l-2.22656-.92579 1.48047-4.4375.7461-.58984 1.14452.58984 3.29297 3.38281 3.19922-3.3828 1.23828-1.12891v3.8789l-1.59766 1.6875 1.59766 1.35938.54688-1.35938-.54688-1.6875v-3.8789l1.02734 1.1289.83985 4.4375-1.78125 4.4375-.08594.08985-.24219-.08985-4.1953-3.52344-4.4375.01172"/><path fill="#00b8fc" fill-rule="evenodd" d="M246.08203 437.30469l-1.59766-1.35938 1.59766-1.6875.54688 1.6875-.54688 1.35938"/><path fill="#00e8fc" fill-rule="evenodd" d="M259.39844 423.78125l-.39453-1.15234.39453-.42188 1.40234.42188-1.40234 1.15234m13.3125 5.73438l-2.3164-2.44532 2.3164-1.89062 4.4414.84765 4.4375-1.20312 4.4375-2.07813.19141-.11718 4.2461-4.35157v5.94922l-4.4375 1.63672-3.88673 1.20703-.375 4.4375 4.26172 3.34766 4.4375.97265 3.34766-4.3203-1.375-4.4375-1.97266-2.84376v-5.94922l.3125-.08593 4.125-.85938.83985.85938 3.60156 1.67578 4.4375.14062 2.1211-1.8164 2.3164-2.34766v2.28906l-.0586.0586-4.3789 3.75-4.4375-.30079-4.13672.98829 4.13672 1.78906 2.32422 2.65234 2.11328 1.28125 1.3164-1.28125 2.54298-4.4414.57812-2.98047.1836-1.45703-.1836-.0586v-2.28906l4.4375 1.01172 1.53906 1.33594.0664 4.4375-1.60546 1.70312-4.4375.71875-1.375 2.01953-3.0625 2.98828-4.4375-2.04687-4.4414 1.92187-.28516 1.57422-2.02735 4.4375-2.125 2.3125-4.4375-1.63672-.80859-.67578-3.6289-1.83984-2.73048-2.59766-1.70703-2.95312-4.4414.96094m4.4414 21.70703l-2.03515-1.96094 2.03515-2.63672 2.51954-1.80469 1.91796-1.80078 3.3125 1.80078-.40625 4.4414-2.90625 1.52735-4.4375.4336"/><path fill="#00d4fc" fill-rule="evenodd" d="M286.02734 434.85547l-4.26171-3.34766.375-4.4375 3.88671-1.20703 4.4375-1.63672v3.66406l-4.4375.38672-2.64453 3.23047 2.64453 2.07813 4.4375 1.19922 2.53907-3.27735-2.53907-3.61719v-3.66406l1.97266 2.84375 1.375 4.4375-3.34766 4.32031-4.4375-.97265"/><path fill="#00c4fc" fill-rule="evenodd" d="M286.02734 433.58594l-2.64453-2.07813 2.64453-3.23047 4.4375-.38671v1.14843l-4.4375 1.21094-1.03125 1.25781 1.03125.8086 4.4375 1.42578 1.73438-2.23438-1.73438-2.46875v-1.14844l2.53907 3.6172-2.53907 3.27734-4.4375-1.19922"/><path fill="#00b8fc" fill-rule="evenodd" d="M286.02734 432.3164l-1.03125-.80859 1.03125-1.25781 4.4375-1.21094v1.14844l-3.37109 1.32031 3.3711 1.19531.92577-1.1953-.92578-1.32032v-1.14844l1.73438 2.46875-1.73438 2.23438-4.4375-1.42578"/><path fill="#00a8fc" fill-rule="evenodd" d="M290.46484 432.70313l-3.37109-1.19532 3.3711-1.32031v1.14844l-.4336.17187.4336.15235.12109-.15235-.1211-.17187v-1.14844l.92579 1.32031-.92579 1.19531"/><path fill="#009800" fill-rule="evenodd" d="M290.46484 431.66016l-.43359-.15235.4336-.17187.12109.17187-.1211.15235"/><path fill="#00e8fc" fill-rule="evenodd" d="M290.46484 453.88281l-.10156-.1836.0664-4.4375.03516-.01562 4.4375-.5625 4.44141-1.1289 4.4375-1.45703 4.4375.5703 4.4375 1.3672 1.41406 1.22656-1.41406 1.08984-4.4375 3.10938-.26172.23828-4.17578 2.73047-3.16016 1.70703-1.27734.80469-4.4414.32812-1.71094-1.13281-2.72657-4.2539"/><path fill="#00d4fc" fill-rule="evenodd" d="M299.34375 424.41797l-4.13672-1.78906 4.13672-.98829 4.4375.30079 4.3789-3.75.0586-.0586.1836.0586-.1836 1.45703-.57813 2.98047-2.54296 4.4414-1.31641 1.28125-2.11328-1.28125-2.32422-2.65234"/><path fill="#50fcfc" fill-rule="evenodd" d="M312.65625 443.8164l-4.3125-3.43359 4.3125-2.57812 3.36719 2.57812-3.36719 3.4336"/><path fill="#00e8fc" fill-rule="evenodd" d="M321.53516 455.3711l-1.57422-1.67188 1.57422-2.98828 4.4375.99219 1.93359 1.99609-1.9336.9375-4.4375.73437"/><path fill="#50fcfc" fill-rule="evenodd" d="M339.28906 422.3164l-2.84765-4.125 2.84765-1.98827 3.92188 1.98828-3.92188 4.125m4.4375 18.85937l-1.35937-.79297 1.35937-.78515 2.21485-3.65235-.14454-4.4375-2.0703-3.09765-1.32423-1.33985 1.32422-2.72656 4.4375-.07813 2.67578 2.8047 1.76172 2.0078 4.4414-.90625v2.17188l-2.69921 1.16406-1.74219.69922-3.5586 3.73828 3.5586 3.28906 1.50781 1.14844 2.9336 1.9961 2.66797-1.9961.08984-4.4375-1.6289-4.4375-1.12891-1.16406v-2.17188l3.24219 3.33594.61718 4.4375.57813 3.3711 1.45312 1.0664-1.45312 1.07813-4.4375 2.5039-4.4414-1.98828-2.34766-1.59375-2.08985-1.625-3.23828 1.625-1.19922.79297m4.4375-21.4961l-3.51562-1.48827 3.51562-1.22657 1.1875 1.22657-1.1875 1.48828"/><path fill="#00e8fc" fill-rule="evenodd" d="M352.60156 439.23438l-3.5586-3.28907 3.5586-3.73828 1.74219-.69922 2.69922-1.16406v3.70313l-4.4414 1.52734-.35157.3711.35156.32421 4.4414 2.67188.9297-2.9961-.9297-1.89844v-3.70312l1.12892 1.16406 1.6289 4.4375-.08984 4.4375-2.66797 1.9961-2.9336-1.9961-1.5078-1.14844"/><path fill="#00d4fc" fill-rule="evenodd" d="M352.60156 436.26953l-.35156-.32422.35156-.3711 4.4414-1.52733.9297 1.89843-.9297 2.9961-4.4414-2.67188"/><path fill="#50fcfc" fill-rule="evenodd" d="M357.04297 424.47266l-1.58203-1.84375 1.58203-1.5547 1.65625 1.5547-1.65625 1.84375m17.75 26.36328l-1.67188-1.57422 1.67188-1.53125 3.58984-2.91016.85156-1.39453 3.57813 1.39453-3.57813 1.0586-2.62109 3.3828-1.82031 1.57423m0 25.53906l-.29688-.48438.29688-.30078.30469.30079-.3047.48437m8.87892-12.5l-1.33985-1.30078 1.33985-1.51563 1.4375-2.92187 3-2.80469 2.41015-1.63281 2.02735-2.33985 4.4375-1.12109v1.67578l-3.10938 1.78516-1.32813.85937-4.4375 3.3047-.29296.27343-2.57422 4.4375 2.86719 2.09765 4.4375 1.31641 4.4375.2539 4.4414-2.44921 1.42578-1.21875 2.33203-4.4375-3.7578-4.30469-.23829-.13281-4.20313-1.78516v-1.67578l4.44141.6211 4.21094 2.83984.22656.32031 3.39453 4.11719-3.39453 3.95312-.22265.48438-4.21485 3.60937-4.4414.73438-4.4375-.21875-4.4375-.4414-4.4375-2.38282"/><path fill="#00e8fc" fill-rule="evenodd" d="M388.10938 464.67188l-2.8672-2.09766 2.57423-4.4375.29296-.27344 4.4375-3.30469 1.32813-.85937 3.10938-1.78516v2.41797l-4.4375 3.3711-.57032.43359-3.42969 4.4375 4 2.23047 4.4375.3125 3.39454-2.54297 1.04687-3.54297.5586-.89453-.5586-.64063-4.4414-3.16406v-2.41797l4.20312 1.78516.23828.13281 3.75781 4.30469-2.33203 4.4375-1.42578 1.21875-4.4414 2.44922-4.4375-.2539-4.4375-1.31642"/><path fill="#00d4fc" fill-rule="evenodd" d="M392.54688 464.80469l-4-2.23047 3.42968-4.4375.57031-.4336 4.4375-3.37109v1.76172l-2.54687 2.04297-1.89063 2.1914-1.875 2.2461 1.875 1.04687 4.4375.3672 1.89063-1.41407.70703-4.4375-2.59765-2.04297v-1.76172l4.4414 3.16406.5586.64063-.5586.89453-1.04687 3.54297-3.39454 2.54297-4.4375-.3125"/><path fill="#00c4fc" fill-rule="evenodd" d="M392.54688 463.6211l-1.875-1.04688 1.875-2.2461 1.89062-2.1914 2.54688-2.04297v1.75781l-.35547.28516-2.6875 4.4375 3.04296.28906.38672-.28906-.02343-4.4375-.36329-.28516v-1.75781l2.59766 2.04297-.70703 4.4375-1.89063 1.41406-4.4375-.36719"/><path fill="#00b8fc" fill-rule="evenodd" d="M396.98438 462.86328l-3.04297-.28906 2.6875-4.4375.35546-.28516.36329.28516.02343 4.4375-.38671.28906"/><g clip-path="url(#c)"><path fill="#50fcfc" fill-rule="evenodd" d="M467.9961 480.01953v.3086h-.26563l.26562-.3086"/></g><g clip-path="url(#d)"><path fill="#fff" fill-opacity="0" fill-rule="evenodd" d="M467.9961 311.67188H468v168.34375-168.34375h-.0039"/></g><path fill="#fff" fill-opacity="0" fill-rule="evenodd" d="M264.42188 441.32813l2.6914-5.1836-8.83984-4.59375-2.6914 5.1836 8.83983 4.59375"/><path fill-rule="evenodd" d="M258.82031 434.47656l.23438-.45312 5.58594 2.90234-.36329.69922-3.98437-2.07031-.63672 1.23047-.4961-.25391.20313-.52734.0664-.25.02735-.2422-.03125-.24608-.10547-.25391-.19922-.26172-.30078-.27344"/><path fill="#fff" fill-opacity="0" fill-rule="evenodd" d="M287.22266 425.82422l4.10937-4.15625-7.08594-7-4.10546 4.15234 7.08203 7.0039"/><path fill-rule="evenodd" d="M283.90234 417.6211l.35938-.36329 4.47656 4.42578-.55469.5586-3.1914-3.15625-.97656.98828-.39454-.39063.34766-.4414.13672-.21875.09765-.22656.04297-.2422-.02734-.27343-.10938-.3086-.20703-.35156"/><path fill="#fff" fill-opacity="0" fill-rule="evenodd" d="M342.6875 453.13281l.52734-5.82031-9.92187-.89453-.52344 5.82031 9.91797.89453"/><path fill-rule="evenodd" d="M334.91016 448.91797l.04296-.50781 6.26954.5664-.07032.78125-4.47265-.40234-.1211 1.38281-.55468-.05078-.01563-.5625-.03125-.2539-.0664-.23829-.125-.21484-.19141-.1914-.28125-.16798-.38281-.14062"/><path fill="#fff" fill-opacity="0" fill-rule="evenodd" d="M220.4961 465.85938l5.35546 2.32812 3.97266-9.13281-5.35547-2.32813-3.97266 9.13281"/><path fill-rule="evenodd" d="M226.94531 459.80078l.46875.20313-2.51172 5.77343-.72265-.3125 1.79297-4.11718-1.27344-.5547.21875-.51171.53906.16406.2539.05078.2461.01172.24219-.05078.2461-.1211.24609-.21484.2539-.3203"/><g clip-path="url(#e)"><path fill="none" stroke="#000" stroke-linecap="round" stroke-linejoin="round" stroke-miterlimit="10" stroke-width=".5" d="M147.19922 478.8789l-6.39844 2.90235"/></g><g clip-path="url(#f)"><path fill="none" stroke="#000" stroke-linecap="round" stroke-linejoin="round" stroke-miterlimit="10" stroke-width=".5" d="M146.26953 479.30078l.97266.7461"/></g><g clip-path="url(#g)"><path fill="none" stroke="#000" stroke-linecap="round" stroke-linejoin="round" stroke-miterlimit="10" stroke-width=".5" d="M160.36328 478.58203l-6.09766 3.4961"/></g><path fill="none" stroke="#000" stroke-linecap="round" stroke-linejoin="round" stroke-miterlimit="10" stroke-width=".5" d="M159.47656 479.08984l1.03906.65235"/><g clip-path="url(#h)"><path fill="none" stroke="#000" stroke-linecap="round" stroke-linejoin="round" stroke-miterlimit="10" stroke-width=".5" d="M173.1289 477.85938l-4.99609 4.9414"/></g><path fill="none" stroke="#000" stroke-linecap="round" stroke-linejoin="round" stroke-miterlimit="10" stroke-width=".5" d="M172.40234 478.57813l1.17188.36328"/><g clip-path="url(#i)"><path fill="none" stroke="#000" stroke-linecap="round" stroke-linejoin="round" stroke-miterlimit="10" stroke-width=".5" d="M186.01563 477.48828l-4.14063 5.67969"/></g><path fill="none" stroke="#000" stroke-linecap="round" stroke-linejoin="round" stroke-miterlimit="10" stroke-width=".5" d="M185.41406 478.3164l1.21485.17188"/><g clip-path="url(#j)"><path fill="none" stroke="#000" stroke-linecap="round" stroke-linejoin="round" stroke-miterlimit="10" stroke-width=".5" d="M200.19531 478.39453l-5.8711 3.86719"/></g><path fill="none" stroke="#000" stroke-linecap="round" stroke-linejoin="round" stroke-miterlimit="10" stroke-width=".5" d="M199.33984 478.95703l1.07813.58985"/><g clip-path="url(#k)"><path fill="none" stroke="#000" stroke-linecap="round" stroke-linejoin="round" stroke-miterlimit="10" stroke-width=".5" d="M214 479.54297l-6.84766 1.57031"/></g><g clip-path="url(#l)"><path fill="none" stroke="#000" stroke-linecap="round" stroke-linejoin="round" stroke-miterlimit="10" stroke-width=".5" d="M213.0039 479.77344l.8047.92578"/></g><g clip-path="url(#m)"><path fill="none" stroke="#000" stroke-linecap="round" stroke-linejoin="round" stroke-miterlimit="10" stroke-width=".5" d="M226.91797 482.10938l-6.05469-3.5625"/></g><g clip-path="url(#n)"><path fill="none" stroke="#000" stroke-linecap="round" stroke-linejoin="round" stroke-miterlimit="10" stroke-width=".5" d="M238.25 483.6836l-2.08984-6.71094"/></g><g clip-path="url(#o)"><path fill="none" stroke="#000" stroke-linecap="round" stroke-linejoin="round" stroke-miterlimit="10" stroke-width=".5" d="M251.48047 483.70703l-1.92188-6.75781"/></g><g clip-path="url(#p)"><path fill="none" stroke="#000" stroke-linecap="round" stroke-linejoin="round" stroke-miterlimit="10" stroke-width=".5" d="M265.6875 483.3164l-3.70313-5.97265"/></g><g clip-path="url(#q)"><path fill="none" stroke="#000" stroke-linecap="round" stroke-linejoin="round" stroke-miterlimit="10" stroke-width=".5" d="M280.0625 482.29688l-5.82422-3.9375"/></g><g clip-path="url(#r)"><path fill="none" stroke="#000" stroke-linecap="round" stroke-linejoin="round" stroke-miterlimit="10" stroke-width=".5" d="M293.41406 482.23828l-5.89844-3.82031"/></g><g clip-path="url(#s)"><path fill="none" stroke="#000" stroke-linecap="round" stroke-linejoin="round" stroke-miterlimit="10" stroke-width=".5" d="M305.72266 483.25781l-3.88672-5.85547"/></g><g clip-path="url(#t)"><path fill="none" stroke="#000" stroke-linecap="round" stroke-linejoin="round" stroke-miterlimit="10" stroke-width=".5" d="M318.52734 483.53906l-2.86328-6.41797"/></g><g clip-path="url(#u)"><path fill="none" stroke="#000" stroke-linecap="round" stroke-linejoin="round" stroke-miterlimit="10" stroke-width=".5" d="M331.41797 483.69531l-2.01172-6.73437"/></g><g clip-path="url(#v)"><path fill="none" stroke="#000" stroke-linecap="round" stroke-linejoin="round" stroke-miterlimit="10" stroke-width=".5" d="M341.23438 482.8086l4.98437-4.95704"/></g><g clip-path="url(#w)"><path fill="none" stroke="#000" stroke-linecap="round" stroke-linejoin="round" stroke-miterlimit="10" stroke-width=".5" d="M355.01172 483.19531l4.0586-5.73437"/></g><g clip-path="url(#x)"><path fill="none" stroke="#000" stroke-linecap="round" stroke-linejoin="round" stroke-miterlimit="10" stroke-width=".5" d="M369.76953 483.79297l1.17188-6.92969"/></g><g clip-path="url(#y)"><path fill="none" stroke="#000" stroke-linecap="round" stroke-linejoin="round" stroke-miterlimit="10" stroke-width=".5" d="M382.26953 483.55078l2.80078-6.44531"/></g><g clip-path="url(#z)"><path fill="none" stroke="#000" stroke-linecap="round" stroke-linejoin="round" stroke-miterlimit="10" stroke-width=".5" d="M394.02734 482.22656l5.91797-3.79297"/></g><g clip-path="url(#A)"><path fill="none" stroke="#000" stroke-linecap="round" stroke-linejoin="round" stroke-miterlimit="10" stroke-width=".5" d="M394.02734 482.22656l-2.13671-1.20312"/></g><g clip-path="url(#B)"><path fill="none" stroke="#000" stroke-linecap="round" stroke-linejoin="round" stroke-miterlimit="10" stroke-width=".5" d="M407.85938 482.85547l4.8828-5.05469"/></g><g clip-path="url(#C)"><path fill="none" stroke="#000" stroke-linecap="round" stroke-linejoin="round" stroke-miterlimit="10" stroke-width=".5" d="M420.79688 482.42578l5.64062-4.19531"/></g><g clip-path="url(#D)"><path fill="none" stroke="#000" stroke-linecap="round" stroke-linejoin="round" stroke-miterlimit="10" stroke-width=".5" d="M433.77734 481.8789l6.3086-3.09765"/></g><g clip-path="url(#E)"><path fill="none" stroke="#000" stroke-linecap="round" stroke-linejoin="round" stroke-miterlimit="10" stroke-width=".5" d="M434.69531 481.42578l-.9961-.71875"/></g><g clip-path="url(#F)"><path fill="none" stroke="#000" stroke-linecap="round" stroke-linejoin="round" stroke-miterlimit="10" stroke-width=".5" d="M447.73438 482.78516l5.02734-4.91016"/></g><g clip-path="url(#G)"><path fill="none" stroke="#000" stroke-linecap="round" stroke-linejoin="round" stroke-miterlimit="10" stroke-width=".5" d="M460.21875 479.25l6.6875 2.15625"/></g><g clip-path="url(#H)"><path fill="none" stroke="#000" stroke-linecap="round" stroke-linejoin="round" stroke-miterlimit="10" stroke-width=".5" d="M146.92188 465.0625l-5.84375 3.90234"/></g><path fill="none" stroke="#000" stroke-linecap="round" stroke-linejoin="round" stroke-miterlimit="10" stroke-width=".5" d="M146.07031 465.6289l1.08203.58204m13.08594-1.14844l-5.84375 3.90234m4.99219-3.33593l1.08203.58203m11.70703-2.35156l-3.08984 6.30859m2.64062-5.39063l1.22656-.04296m11.85547-1.125l-1.72656 6.80859m1.47656-5.82031l1.19141-.28907m12.34375-.70703l-1.66797 6.82422m1.42578-5.83203l1.1875-.30078m13.5625-.14844l-4.05078 5.73828m3.46094-4.90625l1.21875.15625m14.0586.98438l-6.79688 1.79297m5.8086-1.53125l.83202.90234m13.58203-.0625l-7.01562-.41016m18.8086 3.10157l-3.97657-5.79297m17.67578 5.49218l-4.74219-5.1914m19.19922 2.54297l-7.02734.10547m20.07031-1.41016l-6.48047 2.71484m18.9414-3.93359l-4.77733 5.15234m15.72265.9375l-.03515-7.02734m.03125 6.0039l-1.08204.58204m15.14844.35547l-1.52734-6.85547m1.30469 5.85937l-.9336.79688m12.39844.03125l2.61719-6.51953m8.6914 4.42187l6.6289-2.32422m-5.66405 1.98438l-.90235-.83203m13.40625 1.53906l6.32422-3.0586m-5.40625 2.61329l-.98828-.72266m14.14453 2.20312l4.80469-5.1289m-4.10547 4.38281l-1.1836-.32031m13.17188.28125l6.0586-3.5586m-6.0586 3.5586l-2.08984-1.28516m15.71484 1.73047l5.4414-4.44922m-5.4414 4.44922l-2.26562-.94922m3.05468.30078l-1.1289-.47265m13.52734.95703l5.6914-4.1211m-5.6914 4.1211l-2.20312-1.08203m3.03125.48047l-1.10157-.53907m13.16016.35547l6.55078-2.55078m-6.55078 2.55078l-1.85937-1.60156m16.03515 2.8789l4.82813-5.10546m-4.125 4.36328l-1.1836-.32422m14.96094 1.79687l2.5-6.5664m-2.5 6.5664l-2.4375.3047"/><g clip-path="url(#I)"><path fill="none" stroke="#000" stroke-linecap="round" stroke-linejoin="round" stroke-miterlimit="10" stroke-width=".5" d="M147.03516 451.92969l-6.07032 3.53906"/></g><path fill="none" stroke="#000" stroke-linecap="round" stroke-linejoin="round" stroke-miterlimit="10" stroke-width=".5" d="M147.03516 451.92969l2.08593 1.29297m11.21875-1.31641l-6.04687 3.58203m5.16406-3.0586l1.05078.63673m12.55078-1.90625l-4.85547 5.07812m15.42579-6.03906l.6328 7m11.61329-6.73047l2.76953 6.45703m8.41797-3.11719l7.02344-.22265m6.3125.50781l6.98437-.78906m-5.96875.67187l-.6914-1.01172m13.22265 2.04688l6.51953-2.625m-5.5703 2.24219l-.9375-.78907m13.5664-1.97265l5.9961 3.66406m7.90233-4.38281L266.25 456.25m9.60156-5.8164l2.59766 6.52734m8.58984-4.03125l6.85547 1.53906m6.39063-.41016l6.99218-.71875m-5.97265.61329l-.6875-1.01954m13.02343.125l6.91016 1.28125m6.52344.45313l6.67578-2.1875m-5.70703 1.8711l-.88281-.85157m13.16015.9414l6.8125-1.73437m-5.82031 1.48047l-.82422-.90625m13.08594-.27734l6.9336 1.14062m-5.92579-.97656l-.39062-1.16016m14.16406-1.32031l4.0039 5.77344m7.82422-3.32422l6.97266.8711m-5.95703-.7422l-.4375-1.14843m12.86719 2.48828l6.71484-2.0625m-6.71484 2.0625l-1.73829-1.73438m2.71485 1.4336l-.86719-.86719m14.85547 3.20703l3.41797-6.14062m-3.41797 6.14062l-2.45313-.05078m2.94922-.84375l-1.22656-.02344m13.38281.4375l4.7422-5.1836m-4.7422 5.1836l-2.3789-.60937m3.0664-.14453l-1.1875-.3047m13.02344-.0039l6.32422-3.0586m-6.32422 3.0586l-1.98047-1.44922m2.89844 1.00391l-.98828-.72266m13.10937.3711l6.875-1.46094m-6.875 1.46094l-1.57422-1.8789m16.48438 4.13671l3.6875-5.98047m-3.6875 5.98047l-2.44922-.15625"/><g clip-path="url(#J)"><path fill="none" stroke="#000" stroke-linecap="round" stroke-linejoin="round" stroke-miterlimit="10" stroke-width=".5" d="M146.96875 438.5039l-5.9375 3.76173"/></g><path fill="none" stroke="#000" stroke-linecap="round" stroke-linejoin="round" stroke-miterlimit="10" stroke-width=".5" d="M146.96875 438.5039l2.13281 1.21094m10.90235-1.59375l-5.375 4.52344m5.375-4.52344l2.27734.91407m11.0625-.88282l-5.42578 4.46485m4.63672-3.8164l1.13281.46874m13.17578-.84375l-5.83594 3.91797m4.98438-3.34766l1.08203.57422m13.67188 1.07813l-7.00782-.53125m20.33203.2461l-7.02734.04296m6.0039-.03906l.58204 1.08203m13.7539-1.17578l-7.02343.21875m6-.1875l.60937 1.0664m11.85547 2.1211l-3.27734-6.21485m13.9375 6.46875l2.03125-6.72656m13.77343 6.55469l-2.9453-6.3789m13.5703-.10938l2.4336 6.59375m11.35937.13672l1.48047-6.8672m11.46484 6.76954l2.21875-6.66797m9.23047 5.20313l5.94922-3.73829m9.75781 5.33204l1.16407-6.9297m9.22265 3.3711l7.02344.1875m-6.0039-.16015l-.54688-1.09766m13.09766-.15234l6.51171 2.6328m-5.5664-2.25l-.125-1.21874m12.42578 3.29297l6.64844-2.28125M368 441.1914l-.89844-.83594m13.10156.58984l6.9375-1.125m-6.9375 1.125l-1.48437-1.95312m14.84766.58984l6.83984 1.60156m-6.83984-1.60156l-.62891-2.3711m1.625 2.60548l-.6289-2.3711m12.96093 3.80469l6.8125-1.73047m-6.8125 1.73047l-1.64844-1.8164m2.64063 1.5625l-1.64844-1.81641m14.6289 3.39453l5.4961-4.3789m-5.4961 4.3789l-2.25-.98047m3.05079.33984l-1.125-.48828m13.48047.91016l5.8164-3.94531m-5.8164 3.9453l-2.16797-1.14843m3.01562.57422l-2.17187-1.14453m14.14062.59765l6.81641-1.70312m-6.8164 1.70312l-1.64454-1.8203m2.63281 1.57421l-.8203-.91016m14.6328 3.2461l3.84375-5.88281m-3.84375 5.8828l-2.4453-.21874m3.0039-.63672l-1.22266-.10938"/><g clip-path="url(#K)"><path fill="none" stroke="#000" stroke-linecap="round" stroke-linejoin="round" stroke-miterlimit="10" stroke-width=".5" d="M146.83203 424.98828l-5.66406 4.16016"/></g><path fill="none" stroke="#000" stroke-linecap="round" stroke-linejoin="round" stroke-miterlimit="10" stroke-width=".5" d="M146.83203 424.98828l2.21094 1.0625m-3.03516-.45703l1.10547.53125M160 424.80078l-5.3711 4.53516M160 424.80078l2.27734.91406m11.35547-.47265l-6.0039 3.65234m6.0039-3.65234l2.10938 1.25m11.3789-.92969l-6.35156 3.01172m6.35156-3.01172l1.96875 1.46484m11.65625-.39062l-6.97265.86328m5.96094-.73828l.70312 1.0039m13.63281-.32812l-6.98828-.73828m5.97266.6289l.45703 1.14063m13.82422-.70703l-6.89063-1.38672m5.88672 1.1875l.35156 1.17578m14.01953-1.32422l-6.99218-.6914m20.3164.57422l-7.01172-.45704m16.53125 3.73047l.57813-7.0039m10.11328 1.53515l5.82422 3.9336m7.60938-4.09766l5.58593 4.26563m-4.77344-3.64844l.20313-1.20703m11.58203 2.61328l7.02344.21484m-6.0039-.1836l-.53907-1.10155m13.28516 2.90234l6.12109-3.44922m8.23047-1.14844l4.05078 5.7461m-3.46094-4.91016l.55078-1.09375m14.17579-.38281l.04687 7.02734m-.03906-6.0039l1.07812-.58594m8.9336 1.92578l6.63671 2.30078M354.6875 426.25l-.1875-1.21094m12.64063 3.4414l6.43359-2.82421m-5.5 2.41406l-.96094-.76172m13.6836 1.78125l5.74609-4.04296m-5.7461 4.04296l-2.1875-1.10937m3.02344.52344l-1.09375-.5547m14.48438-3.79687l3.92578 5.83204m-3.92578-5.83204l1.15625-2.16406M395.59766 425l.57421-1.08203m10.79688 2.03906l6.66406 2.22266m-5.69531-1.89844l-.20313-1.21094m13.2422-.32031l5.28124 4.63672m-4.51172-3.96094l.28125-1.19531m12.88282 5.71094l4.04296-5.7461m10.76563-.60156l1.05469 6.94922m-.89844-5.9375l.98438-.73047m9.7539 5.10547l5.89453-3.82422m-5.89453 3.82422l-2.14453-1.1914"/><g clip-path="url(#L)"><path fill="none" stroke="#000" stroke-linecap="round" stroke-linejoin="round" stroke-miterlimit="10" stroke-width=".5" d="M146.6836 411.48438l-5.3672 4.53906"/></g><path fill="none" stroke="#000" stroke-linecap="round" stroke-linejoin="round" stroke-miterlimit="10" stroke-width=".5" d="M146.6836 411.48438l2.27734.91015m-3.0586-.25l1.14063.45313m13.3711-.5l-6.19923 3.3125m6.19922-3.3125l2.03516 1.36718m-2.9375-.88671l1.01953.68359m13.29297-.97266l-6.38672 2.92969m6.38672-2.92969l1.94922 1.48828m-2.8789-1.0625l.97655.7461m13.57422.59375l-7-.60157m7 .60157l.96094 2.25781m12.33203-2.07031l-6.95703-.97657m6.95703.97657l.83984 2.30468m11.98047-4.65234l-5.96484 3.71875m5.09375-3.17578l1.0625.61328m7.20313 2.63281l5.875-3.85937m7.64453 4.13672l5.46484-4.41407m-4.67188 3.77344l-1.1289-.48437m16.3125 2.42968l.14062-7.02343m-.11718 6l-1.09766.55468m13.72656.39063l1.46875-6.8711m14.05469 6.625l-2.94922-6.3789m2.51953 5.45312l-.74218.97657m16.24609-4.60938l-6.46875 2.74219m5.52734-2.34375l.95313.77344m13.23437-1.32813l-6.32812 3.05469m19.99219-1.49219l-7.02735-.07422m13.32031-.16406l7.01563.40625m-5.99219-.34766l-.51562-1.11328m13.83203 3.7422l4.96875-4.96876m-4.2461 4.2461l-1.17187-.35938m19.7539-1.63281l-7.01171.46093m5.99218-.39453l.64454 1.04297m12.88671-3.125L367.65625 416m13.54688-4.7461l4.9375 5m-4.21875-4.27343l.36718-1.17188m14.20703-.53515l.98047 6.96093m-.98047-6.96093l1.98438-1.4414m11.28125 1.44921l1.07812 6.94531m-1.07812-6.94531l1.96484-1.46875m-1.80468 2.48047l.98046-.73438m13.82813-.13672l-2.22656 6.66407m2.22656-6.66407l2.41797-.40625m-2.74219 1.375l2.41797-.40625m11.70703-.35937l-3.19922 6.25781m3.19922-6.25781l2.45313-.03906m-2.91797.94922l1.22656-.01954m12.2461-1.03125l-2.58204 6.53516m2.58203-6.53516l2.4375-.27343m10.20703.08593l-1.24609 6.91407m1.2461-6.91407l2.33984-.75m-2.51953 1.75391l1.16797-.375"/><g clip-path="url(#M)"><path fill="none" stroke="#000" stroke-linecap="round" stroke-linejoin="round" stroke-miterlimit="10" stroke-width=".5" d="M146.82813 398.35156l-5.65625 4.17188"/></g><path fill="none" stroke="#000" stroke-linecap="round" stroke-linejoin="round" stroke-miterlimit="10" stroke-width=".5" d="M146.82813 398.35156l2.21093 1.0586m-3.03515-.44922l1.10547.52734m13.4453-.41015l-6.48046 2.71875m6.48047-2.71875l1.90234 1.55468m-2.84375-1.15625l.94922.77344m12.58203-2.26563l-5.02734 4.91016m5.02734-4.91015l2.33594.74218m-3.07031-.03125l1.17187.375m11.41016-1.98828l-2.09375 6.71094m2.09375-6.71094l2.41015-.45312m7.1836 1.53125l5.34765 4.55859m-4.5703-3.89453l.26562-1.19922m11.97265 4.6836l5.94922-3.73829m-5.08594 3.1914l-1.0625-.60937m15.78125-4.15625l1.41407 6.88282m14.41406-6.45313l-3.61328 6.02735m3.61328-6.02735l2.44922.125m8.35547 6.32813l1.40625-6.88282m-1.19922 5.88282l-1.17969.34765m12.44531-.36719l5.09375-4.84375m-5.09375 4.84375l-2.32812-.77734m17.75781 1.84375l.86328-6.97265m-.86328 6.97265l-2.29297.875m18.28906-1.66406l-4.5-5.39844m14.95704 6.16016l1.21875-6.92188m-1.04297 5.91406l-1.16407.37891m13.95704.55078l1.91406-6.76172m-1.63672 5.77735l-1.19922.25781m11.92578-3.94922l6.53125 2.58985m6.83985.1289l6.42187-2.84765m-5.48828 2.43359l-.96484-.75781m16.45312 3.2578l.20703-7.02343m-.17969 6.0039l-1.09765.54298m11.82812-.7422l5.32422-4.58593m-4.55078 3.92188l-1.14453-.44532m17.03906-4.6289l-1.38281 6.89062m1.17969-5.88672l1.17578-.35156m11.33203-.70703l.63672 7m-.63672-7l2.05469-1.33984m13.66797 2.01562l-4.1797 5.64844m4.1797-5.64844l2.42968.36328m10.51172-.60547l-3.42969 6.13282m3.4297-6.13282l2.45312.05079m-2.95313.84375l1.22656.02343m11.9961-1.17969l-2.2461 6.65625m2.2461-6.65625l2.42187-.39843m-2.7461 1.36719l1.21095-.19922m12.1875-.83985l-1.76563 6.80078m1.76563-6.80078l2.38672-.57422m-2.64454 1.5625l1.19532-.28515m13.04687-.45703l-3.10547 6.30468m3.10547-6.30468l2.45313-.07422m-2.90235.99219l1.22657-.03516"/><g clip-path="url(#N)"><path fill="none" stroke="#000" stroke-linecap="round" stroke-linejoin="round" stroke-miterlimit="10" stroke-width=".5" d="M145.8711 384.14844l-3.7422 5.94922"/></g><path fill="none" stroke="#000" stroke-linecap="round" stroke-linejoin="round" stroke-miterlimit="10" stroke-width=".5" d="M145.8711 384.14844l2.4453.17969m11.82423.70312l-5.64844 4.1836m5.64844-4.1836l2.21484 1.0586m10.26562-1.86329l-3.98047 5.79297m3.98047-5.79297l2.4375.28125m-3.01562.5625l1.21875.14063m11.88281-1.39063l-2.39844 6.60547m2.39844-6.60547l2.42969-.34375m-2.77734 1.30469l1.21484-.17188m11.70312-.96875l-.90625 6.96875m.90625-6.96875l2.29688-.86328m-2.42969 1.875l1.14844-.42968m10.41797-.3086l2.85547 6.41797m-2.44141-5.48437l.7539-.96875m15.69532 6.04296l-4.24219-5.59765m3.625 4.78515l-.51562 1.11329m15.83203-2.87891l-7.01172-.4414m7.01172.4414l1.01562 2.23438m12.20703-1.62891l-6.82812-1.65235m5.83594 1.41407l.30468 1.1875m13.45703.25781l-5.73437-4.0664m5.73438 4.0664l-.31641 2.4336m13.9375-2.96094l-6.34766-3.01172m6.34766 3.01172l.11328 2.45312m13.41797-3.03125l-6.77735-1.85547m6.77735 1.85547l.53515 2.39453m12.89844-3.10547l-7.01562-.43359m7.01562.4336l1.01563 2.23437m11.85547-4.17188l-6.12891 3.44141m6.1289-3.4414l2.0625 1.32421m11.33985-1.15625l-6.30469 3.10547m5.38672-2.65234l.9961.71875m10.69921 3.83984l-1.22656-6.91797m1.04688 5.91016l-.96485.75781m11.1211-5.42578l5.44921 4.4336m-4.65625-3.78907l.23438-1.20312m18.4375 3.55859l-6.85156-1.5625m5.85547 1.33203l.3203 1.1875m13.14454-4.125l-5.16016 4.76953m5.16016-4.76953l2.3164.8086m-3.0664-.11329l1.16016.40235m13.0039-.98828l-5.35547 4.55078m5.35547-4.55078l2.28125.90625m-3.0586-.2422l2.27735.90626m11.78125-1.60547l-5.28906 4.625m5.28906-4.625l2.29297.8711m-3.0625-.19923l2.29297.8711m10.65234-2.40625l-3.01171 6.34765m3.01171-6.34765l2.45313-.11328m10.01172-.16406l-1.3086 6.90234m1.3086-6.90235l2.34375-.73046m-2.53516 1.73437l1.17188-.36328m12.51171-.60156l-1.66015 6.82812m1.66015-6.82812l2.375-.60938m-2.61718 1.60156l1.1875-.30468m12.48047-.66016l-1.88282 6.76953m1.88282-6.76953l2.39453-.52734m-2.66797 1.51172l1.19531-.26563"/><g clip-path="url(#O)"><path fill="none" stroke="#000" stroke-linecap="round" stroke-linejoin="round" stroke-miterlimit="10" stroke-width=".5" d="M143.73828 370.30469l.52344 7.00781"/></g><g clip-path="url(#P)"><path fill="none" stroke="#000" stroke-linecap="round" stroke-linejoin="round" stroke-miterlimit="10" stroke-width=".5" d="M143.8125 371.32422l1.03906-.65625"/></g><path fill="none" stroke="#000" stroke-linecap="round" stroke-linejoin="round" stroke-miterlimit="10" stroke-width=".5" d="M158.26172 370.42578l-1.89453 6.76563m1.6211-5.78125l1.1953-.26172m13.21485-.375l-3.53516 6.07031m3.01953-5.1875l1.22656.04688m12.45704-1.01172l-3.2422 6.23437m3.2422-6.23437l2.45312-.02344m10.46875-.15235l-2.45703 6.58594m2.45703-6.58594l2.4336-.3203m10.75.27734l-2.19532 6.67187m2.19531-6.67187l2.41797-.41797m12.08203 1.08203l-4.5625 5.34375m4.5625-5.34375l2.39454.53125m-3.0586.2461l1.19922.26562M240.21875 372l-6.02344 3.61719M240.21875 372l2.10156 1.26172m11.1836-1.3086l-5.96875 3.71094m5.96875-3.71094l2.12109 1.23438m-2.98828-.69531l1.0625.61719m13.23437-.96094l-6.1953 3.32031m6.1953-3.32031l2.03907 1.36719m-2.94141-.88282l1.01953.6836m13.21875-1.125l-6.23828 3.23046m6.23828-3.23046l2.01953 1.39453m-2.92578-.92188l1.00781.69531m13.37891-.80078l-6.5664 2.5m6.5664-2.5l1.84766 1.61329m-2.8047-1.25l.92579.80859m13.45703-.83203l-6.78906 1.82031m6.78906-1.82031l1.67188 1.79297m9.96093-3.94922l-3.42578 6.13281m3.42578-6.13281l2.45313.05078m10.76172-.10547l-3.22656 6.24219m3.22656-6.24219l2.45703-.02734m6.125 1.53515l6.24219 3.22656m-5.33594-2.7578L341.5 371.4375m15.26172-1.13281l.5586 7.0039m-.47657-5.98437l1.03125-.66016m15.4414 1.25l-5.91796 3.78906m5.05469-3.23828l1.0703.60157m13.65235.51562l-7.01172.45313m5.99219-.38672l.64453 1.04297m13.08985-2.85938l-5.8086 3.95313m5.8086-3.95313l2.17187 1.14453m10.0664-2.16797l-3.65624 6m3.65625-6l2.44921.14063m-2.98046.73047l1.22265.07422m12.35156-1.09766l-3.11328 6.30078m3.11329-6.30078l2.45312-.07031m-2.90625.98828l2.45313-.07422m10.30468-1.16406l-1.08984 6.94531m1.08984-6.94531l2.3164-.80078m10.45313.7578v7.02735m0-7.02734l2.16797-1.14844m11.2539 1.15235l-.21483 7.02343m.21484-7.02344l2.20312-1.08593"/><g clip-path="url(#Q)"><path fill="none" stroke="#000" stroke-linecap="round" stroke-linejoin="round" stroke-miterlimit="10" stroke-width=".5" d="M140.8125 359.01953l6.375 2.94922"/></g><path fill="none" stroke="#000" stroke-linecap="round" stroke-linejoin="round" stroke-miterlimit="10" stroke-width=".5" d="M153.98047 359.38281l6.66797 2.21875m-5.69531-1.89453l-.20704-1.21094m15.4297 5.48047l.91015-6.96875m15.00781.70703l-4.29688 5.5586m16.37891-6.17188l-1.83203 6.78516m1.5664-5.79688l1.19532-.27343m10.92969-.79688l1.07812 6.94531m-1.07812-6.9453L212 355.55077m12.71484 1.52735l-1.64843 6.83203m1.64843-6.83204l2.37891-.60937m12.57422 1.51953l-4.92578 5.00781m4.92578-5.0078l2.35547.69921m10.3789-1.16016l-3.76562 5.9336m3.21875-5.07031l1.22266.09375m11.78515-1.35157l-2.05469 6.71875m2.0547-6.71875l2.41015-.46875m11.60937.77344l-3.46484 6.11328m3.46484-6.11328l2.45313.0625M293 358.0625l-5.07031 4.86328M293 358.0625l2.33203.76563m11.3789-.27344l-5.86327 3.875m5.86328-3.875l2.15625 1.17187m9.86328-2.34375l-3.26953 6.21875m3.26953-6.21875l2.45312-.01172m9.17579-.39062l.10156 7.02734m-.10156-7.02734l2.14843-1.1836m11.1289 1.1836l.1797 7.02344m-.1797-7.02344l2.13673-1.20703m9.86328 1.5l2.8086 6.4414m-2.8086-6.4414l1.52344-1.92188m15 2.1289l-3.60938 6.02735m3.08594-5.15234l1.22656.0625m14.32031 2.17187l-7.02343-.1914m7.02343.1914l1.09375 2.19532m12.14454-3.02735l-6.8711 1.46875m6.8711-1.46875L402 361.63671m10.25781-4.0625l-3.91015 5.83985m3.91015-5.83984l2.4414.25m10.35548-.53516l-2.8789 6.41016m2.8789-6.41016l2.44922-.16406m-2.8672 1.09375l2.44923-.16016m11.04297-.86718l-2.39453 6.60546m2.39453-6.60546l2.42968-.34766m-2.77734 1.3086l1.21484-.17579m11.39454-.99219l-.28516 7.01954m.28516-7.01954l2.21093-1.0664m12.24219 1.30469l-2.5625 6.54296m2.5625-6.54296l2.4375-.28125"/><g clip-path="url(#R)"><path fill="none" stroke="#000" stroke-linecap="round" stroke-linejoin="round" stroke-miterlimit="10" stroke-width=".5" d="M143.4414 343.71094l1.1172 6.9375"/></g><g clip-path="url(#S)"><path fill="none" stroke="#000" stroke-linecap="round" stroke-linejoin="round" stroke-miterlimit="10" stroke-width=".5" d="M143.60156 344.71875l.98047-.74219"/></g><path fill="none" stroke="#000" stroke-linecap="round" stroke-linejoin="round" stroke-miterlimit="10" stroke-width=".5" d="M153.91016 348.04688l6.80859-1.73829m8.38281 4.03125l3.0586-6.32421m-2.61328 5.40625l-1.22657.04687M185.09375 350.5l-2.29688-6.64063m1.96485 5.67188l-.83594.89844m11.53125-.23828l3.60938-6.02735m-3.08594 5.15235l-1.22656-.0625M207.48828 345.5l6.17578 3.35547m-5.27734-2.86719l.01172-1.22656m13.47265-.45703l4.03907 5.75m-3.45313-4.91406l.5586-1.09375m13.87109-.3672l.63672 6.9961m-.54297-5.98047l1.02734-.66797m10.1211.57813l4.78515 5.14844m-4.08984-4.40235l.40234-1.15625m11.63672 1.10547l5.9414 3.7539m-5.9414-3.7539l.1836-2.44531m13.41406 2.0625l5.3789 4.51953m-5.3789-4.51953l.51172-2.39844m12.98046 2.20313l5.02344 4.91406m-5.02344-4.91406l.69141-2.35547m.03906 3.07031l.34766-1.17969m12.46094.2539l4.57812 5.33204m-4.57812-5.33203l.89062-2.28516m11.64063 3.25l6.14453 3.40235m-5.25-2.90625l.01953-1.22657m13.92969-.72265l3.08984 6.3086m-2.64062-5.39063l.71875-.9961m11.82421.2539l3.73047 5.95704m-3.73047-5.95703l1.22657-2.125m-.6836 2.99219l.61328-1.0625m11.91407.36718l4.22265 5.6172m-4.22265-5.6172l1.03906-2.22265m15.78906 1.8086l-2.80078 6.4453m2.39063-5.5078l1.22265-.09767m14.4961 1.48047l-6.78907 1.8047m5.80078-1.54298l.83594.89844m13.55078.23047l-6.95703-.98047m5.94531.83594l.41797 1.15625m13.94141-1.42188l-7.02344-.16015m6.0039.13671l.55079 1.09766m12.35547-3.98437l-4.16406 5.66015m4.16406-5.66015l2.42578.35546m10.2539-.72656l-2.89453 6.40235m2.89454-6.40235l2.4453-.16015m-2.86718 1.08984l1.22266-.07813m12.96484-.60546l-3.79687 5.91406m3.79687-5.91406l2.44531.19921m11.50782.32422l-5.07422 4.86329"/><g clip-path="url(#T)"><path fill="none" stroke="#000" stroke-linecap="round" stroke-linejoin="round" stroke-miterlimit="10" stroke-width=".5" d="M466.09766 344.7461l2.33203.76952"/></g><g clip-path="url(#U)"><path fill="none" stroke="#000" stroke-linecap="round" stroke-linejoin="round" stroke-miterlimit="10" stroke-width=".5" d="M146.91797 331.90234l-5.83594 3.91797"/></g><path fill="none" stroke="#000" stroke-linecap="round" stroke-linejoin="round" stroke-miterlimit="10" stroke-width=".5" d="M146.91797 331.90234l2.16406 1.16016m11.7461.80078h-7.02735m6.0039 0l.57813 1.08203m13.53516.15625l-6.57422-2.47656m5.61719 2.11719l.15625 1.21484m8.92578.85938l3.80469-5.90625m-3.25 5.04687l-1.22266-.10156m19.39453-2.1875l-7.01562.39062m16.6953 3.31641l.25-7.02344m9.6797 3.4375l7.02343.14844m-6.0039-.1289l-.55078-1.09376m13.47265-.85937l5.76953 4.01562m-4.92968-3.42968l.14453-1.21875m11.97265 1.29296l6.48828 2.69532m-5.54687-2.30469l-.11328-1.21875m12.57812.625l6.3047 3.10156m-6.3047-3.10156l-.07812-2.45313m13.65625 2l5.77734 4.00391m-5.77734-4.0039l.28906-2.4336m.55078 3.01953l.14453-1.21875m12.3086.66797l5.82031 3.9375m-5.82031-3.9375l.25781-2.4375m.58984 3.01172l.12891-1.21875m12.02344 1.22266l6.45312 2.78125m-6.45312-2.78125l-.19922-2.44532m1.13672 2.85157l-.09766-1.22266m12.26953 1.44531l6.86328 1.52344m-6.86328-1.52344l-.65234-2.36719m1.65234 2.58985l-.32812-1.1836m12.5625 1.6797l7.02734.08593m-7.02734-.08594l-1.125-2.1836m14.44531 2.05079l7.01563.34766m-7.01563-.34766l-1.04688-2.21875m14.46094 1.54688l6.8164 1.6953m-6.8164-1.6953l-.59765-2.37891m13.8789 2.52734l6.88672 1.39844m-6.88672-1.39844l-.69922-2.35156m14.29688 4.58594l6.32031-3.07031m-5.40234 2.62109l-.99219-.72266m13.99219 2.04688l5.11328-4.82031m-4.3711 4.11718l-1.16015-.39453m17.6875 1.91016l-2.79688-6.44531m2.39063 5.5078l-.76563.96094m16.16797-1.55468l-6.15625-3.38672m5.26172 2.89453l-.01953 1.22656m13.41797-5.10937l-4.53516 5.36719m3.875-4.58594l1.19922.25781m13.16406-.65625l-5.3125 4.60156m5.3125-4.60156l2.28907.88281m11.08203-.8164l-5.42578 4.46875"/><g clip-path="url(#V)"><path fill="none" stroke="#000" stroke-linecap="round" stroke-linejoin="round" stroke-miterlimit="10" stroke-width=".5" d="M466.27344 331.6289l2.26562.94141"/></g><g clip-path="url(#W)"><path fill="none" stroke="#000" stroke-linecap="round" stroke-linejoin="round" stroke-miterlimit="10" stroke-width=".5" d="M147.23828 319.1836l-6.47656 2.73046"/></g><path fill="none" stroke="#000" stroke-linecap="round" stroke-linejoin="round" stroke-miterlimit="10" stroke-width=".5" d="M147.23828 319.1836l1.90234 1.55077m-2.84375-1.15234l1.90235 1.54688m12.51562-1.46875l-6.80078 1.77343m6.80078-1.77343l1.66016 1.80468m-2.64844-1.54687l1.66016 1.8086m12.6289-2.1211l-6.76953 1.88281m6.76953-1.88281l1.69141 1.78125m-2.67578-1.50781l.84375.89062m13.53906-.78125l-6.9375 1.11719m6.9375-1.11719l1.48047 1.95703m11.52734-2.92578l-6.32421 3.0586m5.40625-2.61329l.98828.72266m11.94922-2.61719l-3.73438 5.95313m3.1914-5.08594l1.22266.08594m11.33594-1.4414l-1.13281 6.93358m.96875-5.92578l1.16016-.39453m11.54296-.65625l.41797 7.01563m-.35547-5.99219l1.04688-.64063m11.35937-.22265l2.11328 6.69922m-2.11328-6.69922l1.71875-1.7539m11.2461 1.8828l2.8086 6.44141m-2.8086-6.4414l1.52734-1.92188m11.28125 2.19531l3.82813 5.89453m-3.82813-5.89453l1.1875-2.14453m12.72656 1.83203l2.625 6.51953m-2.625-6.51953l1.57813-1.8789m11.46875 2l3.16406 6.27343m-2.70312-5.35937l.70703-1.0039m11.33984.65234l4.78125 5.14843m-4.78125-5.14843l.80078-2.31641m11.44532 4.27734l6.91796 1.23047m-6.91796-1.23047l-.75782-2.33593m14.02735 2.6914l7.0078.51953m-7.0078-.51953l-.98828-2.2461m14.35937 3.1875l6.89453-1.36718m-6.89453 1.36719l-1.55078-1.89844m14.8086.99219l7.01171.44531m-7.01172-.44531l-1.01562-2.23438m14.32422 2.38282l7.02343.15234m-7.02343-.15234l-1.10547-2.19141m15.23828 4.52344l5.38672-4.51563m-5.38672 4.51563l-2.27344-.91797m3.0586.26172l-1.13672-.46094m16.11718 2.36719l.48438-7.01172m-.48438 7.01172l-2.24218.9961m2.3125-2.01954l-1.1211.5m14.71094.52734l-.20312-7.02343m.20312 7.02343l-2.13281 1.21485m17.5-1.94922l-4.3086-5.55078m3.6836 4.74219l-.5039 1.12109m15.79296-2.80469l-7.0039-.5664m7.0039.5664l.97266 2.25m11.98828-4.09375l-6.29688 3.11719"/><g clip-path="url(#X)"><path fill="none" stroke="#000" stroke-linecap="round" stroke-linejoin="round" stroke-miterlimit="10" stroke-width=".5" d="M466.71094 318.98828l1.99219 1.42969"/></g><path fill="#00f" fill-rule="evenodd" d="M383.80078 436.57813h8.61719v-10.14454h-8.61719v10.14454"/><path fill="azure" fill-rule="evenodd" d="M385.63281 428.26563h.83203v2.82421h3.28907v-2.82421h.83203v6.48046h-.83203v-2.91406h-3.28907v2.91406h-.83203v-6.48046"/><path fill="#00f" fill-rule="evenodd" d="M224.01953 418.82813h8.61719v-10.14844h-8.61719v10.14844"/><path fill="azure" fill-rule="evenodd" d="M225.85156 410.51172h.83594v2.82422h3.28516v-2.82422h.83203v6.48047h-.83203v-2.91406h-3.28516v2.91406h-.83594v-6.48047"/><path fill="#ff3030" fill-rule="evenodd" d="M335.67188 387.75781h7.6953v-10.14453h-7.6953v10.14453"/><path fill="azure" fill-rule="evenodd" d="M337.5039 379.44531h.83594v5.73828h3.19141v.7422h-4.02734v-6.48048"/><path fill="#ffffe0" fill-rule="evenodd" d="M346.1836 357.10156h22.17968v-10.1914H346.1836v10.1914"/><path fill-rule="evenodd" d="M349.6836 348.74219h.5078v6.29687h-.78906v-4.49219h-1.38671v-.55468l.55859-.0664.2539-.05079.23047-.08984.20313-.14063.17187-.21094.14063-.29687.10937-.39453m4.8125 0l.23047.01953.21875.05469.20703.08984.19532.1211.18359.14843.17188.17578.30078.42188.24609.49219.17969.54687.10937.57813.03906.59375-.03906.58984-.10937.58594-.17969.55468-.2461.5-.30077.4297-.17188.17968-.1836.15234-.1953.125-.20704.08985-.21875.05859-.23047.01953-.23046-.01953-.21875-.0586-.20704-.08984-.1953-.125-.1875-.15234-.16798-.17969-.30469-.42969-.24218-.5-.17969-.55468-.11328-.58594-.03516-.58985h.83203l.02735.5625.08203.50391.1289.44531.16016.3711.1914.30078.21094.22265.22266.13672.22656.04688.22657-.04688.22265-.13671.21094-.22266.1914-.30078.16016-.3711.125-.4453.08203-.50392.03125-.5625-.03125-.5625-.08203-.5-.125-.4375-.16015-.36328-.19141-.29296-.21094-.21485-.22265-.13281-.22657-.04297-.22656.04297-.22265.13281-.21094.21485-.1914.29296-.16017.36329-.1289.4375-.08203.5-.02735.5625h-.83203l.03516-.59375.11328-.57813.17969-.54688.24219-.49218.30468-.42188.16797-.17578.1875-.14844.19531-.12109.20704-.08984.21875-.0547.23046-.01952m5.08985 0h.51172v6.29687h-.78907v-4.49219h-1.38671v-.55468l.55859-.0664.2539-.05079.22657-.08984.20312-.14063.17578-.21094.14063-.29687.10547-.39453m2.82422 2.17578h.78515l.02344-.3164.0586-.28516.09765-.25391.14063-.21484.17968-.17188.22266-.1289.26562-.08204.3086-.02734.23828.01953.22265.0625.20704.10156.17578.14063.15234.17187.11328.20704.07031.23437.02344.26563-.01953.26953-.0664.22265-.10938.1914-.15625.17188-.19922.16407-.25.16406-.63281.39062-.53906.3125-.4375.31641-.34375.32422-.26563.33594-.1914.35156-.125.3711-.06641.39062-.02344.42187h4.21485v-.74219h-3.33204l.08204-.28515.11328-.23438.14843-.20312.1875-.17969.23047-.17187.27735-.17579.71875-.41406.41406-.20703.34765-.23047.28125-.25.21875-.26953.16407-.27734.10937-.28516.0625-.28515.02344-.28125-.04297-.38282-.1211-.34765-.1875-.3086-.25-.26172-.30468-.21093-.34375-.16016-.38281-.09766-.40625-.03515-.4336.03515-.39843.09766-.35547.16406-.30469.23438-.2461.30469-.1875.375-.11718.4453-.03906.51954"/><path fill="#ffffe0" fill-rule="evenodd" d="M199.71484 362.20703h22.1836v-10.1914h-22.1836v10.1914"/><path fill-rule="evenodd" d="M203.21484 353.84766h.51172v6.29296h-.78906v-4.48828h-1.38672v-.55468l.5586-.06641.2539-.05469.22656-.08594.20313-.14453.17578-.20703.14063-.29687.10546-.39453m4.81641 0l.22656.01953.21875.05469.21094.08984.19531.1211.1836.14843.17187.17578.30078.42188.24219.49218.17969.54688.11328.57812.03906.58985-.03906.59375-.11328.58594-.17969.55468-.24219.5-.30078.42969-.17187.17969-.1836.15234-.19531.125-.21094.08985-.21875.05859-.22656.01953-.23047-.01953-.21875-.0586-.20703-.08984-.19922-.125-.1836-.15234-.17187-.17969-.30078-.42969-.24219-.5-.17968-.55469-.11328-.58593-.03907-.59375h.83594l.02734.5664.08203.50391.125.4414.16407.375.1914.30079.21094.22265.22266.13672.22656.04688.22656-.04688.22266-.13672.21094-.22265.1875-.30078.16406-.375.125-.44141.08203-.5039.03125-.56641-.03125-.5586-.08203-.5-.125-.4375-.16406-.36718-.1875-.28907-.21094-.21484-.22266-.13281-.22656-.04297-.22656.04297-.22266.13281-.21094.21484-.1914.28907-.16406.36718-.125.4375-.08204.5-.02734.5586h-.83594l.03906-.58985.11329-.57812.17968-.54688.2422-.49218.30077-.42188.17188-.17578.1836-.14844.19921-.1211.20703-.08983.21875-.0547.23047-.01952m5.08984 0h.50782v6.29296h-.78516v-4.48828h-1.39063v-.55468l.5625-.06641.25-.05469.23047-.08594.20313-.14453.17578-.20703.14063-.29687.10546-.39453m2.82422 2.17578h.78516l.01953-.3164.0586-.28517.10156-.2539.14062-.21485.17969-.17578.22266-.1289.26562-.07813.3086-.02734.23827.01953.22266.0625.20313.10156.17968.14063.14844.17187.11328.20703.07422.23438.02344.26562-.02344.26954-.0625.22265-.11328.1914-.15234.17188-.20313.16406-.2461.16407-.6328.39062-.53907.3125-.4375.3164-.34765.32423-.26172.33594-.1914.35156-.125.3711-.06642.39062-.02343.41796h4.21484v-.73828h-3.33594l.08594-.28515.11328-.23438.14844-.20312.1875-.17969.23047-.17188.27734-.17578.71875-.41796.41406-.20313.34375-.23047.28125-.2539.22266-.26563.16016-.27734.11328-.28516.0625-.28516.01953-.28125-.03906-.3828-.1211-.34767-.1914-.30859-.25-.26172-.30078-.21484-.34766-.15625-.3789-.09766-.40626-.03515-.43359.03125-.39844.10156-.35547.16406-.30468.23438-.25.30468-.1836.375-.11719.44532-.03906.51953"/><path fill="#ffffe0" fill-rule="evenodd" d="M239.66016 407.01953h22.18359v-10.1914h-22.1836v10.1914"/><path fill-rule="evenodd" d="M243.16016 398.66016h.51172v6.29687h-.78907v-4.49219h-1.38672v-.55468l.5586-.0625.2539-.0547.22657-.08983.20312-.14063.17578-.21094.14063-.29297.10547-.39843m4.8164 0l.22656.01953.21875.05469.21094.08984.19531.1211.1836.15234.17187.17578.30078.41797.2422.49218.17968.54688.11328.57812.03906.59375-.03906.59375-.11328.58204-.17969.55468-.24219.5-.30078.42969-.17187.17969-.1836.15234-.1953.125-.21095.08985-.21875.05859-.22656.01953-.23047-.01953-.21875-.0586-.20703-.08984-.19922-.125-.18359-.15234-.17188-.17969-.30078-.42969-.24218-.5-.1797-.55469-.11327-.58203-.03906-.59375h.83593l.02735.5625.08203.50391.125.44531.16406.375.1914.30078.21094.21875.22266.13672.22656.04688.22656-.04688.22266-.13672.20703-.21875.1914-.30078.16407-.375.125-.44531.08203-.5039.02735-.5625-.02735-.5625-.08203-.5-.125-.4375-.16406-.36329-.1914-.29297-.20704-.21484-.22266-.1289-.22656-.04688-.22656.04687-.22266.12891-.21093.21484-.19141.29297-.16406.36328-.125.4375-.08203.5-.02735.5625h-.83594l.03907-.59375.11328-.57812.17969-.54688.24218-.49218.30078-.41797.17188-.17578.1836-.15235.19921-.1211.20703-.08983.21875-.0547.23047-.01952m5.08985 0h.5078v6.29687h-.78515v-4.49219h-1.39062v-.55468l.5625-.0625.25-.0547.23047-.08983.20312-.14063.17578-.21094.14063-.29297.10547-.39843m2.82422 2.17578h.78515l.01953-.3164.0586-.28517.10156-.2539.14062-.21485.1797-.17187.22265-.1289.26562-.08204.3086-.02734.23828.02344.22265.0625.20313.10156.17969.13672.14843.17187.11329.20703.07421.23438.02344.26562-.02344.26954-.0625.22265-.11328.1914-.15234.17188-.20313.16406-.24609.16407-.63281.39062-.53906.3125-.4375.3164-.34766.32423-.26172.33594-.1914.35156-.125.3711-.06641.39062-.02344.42187h4.21094v-.74219h-3.33203l.08593-.28515.11329-.23438.14843-.20312.1875-.17969.23047-.17188.27735-.17578.71875-.41406.41406-.20703.34375-.23047.28125-.25.22265-.26953.16016-.27734.11328-.28516.0625-.28516.01953-.28125-.03906-.3828-.1211-.34767-.1914-.30859-.25-.26172-.30078-.21094-.34766-.16015-.3789-.09766-.40625-.03515-.4336.03515-.39844.09766-.35546.16797-.3047.23437-.25.30078-.18358.375-.1172.44532-.03905.51953"/><path fill="#ffffe0" fill-rule="evenodd" d="M350.6211 426.59375h22.17968v-10.1914H350.6211v10.1914"/><path fill-rule="evenodd" d="M354.1211 418.23438h.5078v6.29296h-.78515v-4.48828h-1.39063v-.55469l.5586-.0664.2539-.05469.23047-.08984.20313-.14063.17187-.21094.14454-.29296.10546-.39454m4.8125 0l.23047.01954.21875.05468.20703.08985.19532.1211.18359.14843.17188.17578.30468.41797.24219.4961.17969.54687.10937.57812.03906.58985-.03906.59375-.10937.58593-.17969.55079-.24219.5039-.30469.42969-.17187.17578-.1836.15625-.1953.1211-.20704.09374-.21875.0547-.23047.01952-.23046-.01953-.21875-.05469-.20704-.09375-.1953-.12109-.1836-.15625-.17188-.17578-.30469-.42969-.24218-.5039-.17969-.55079-.10938-.58593-.03906-.59375h.83203l.03125.5625.07813.5078.1289.44142.16016.375.1914.30078.21094.22265.22266.13672.22656.04688.22657-.04688.22265-.13672.21094-.22265.1914-.30079.16016-.375.1289-.4414.08204-.50781.02734-.5625-.02734-.5586-.08203-.5039-.1289-.4336-.16016-.36719-.19141-.29296-.21094-.21094-.22265-.13281-.22657-.04688-.22656.04688-.22265.1328-.21094.21095-.1914.29296-.16017.3672-.1289.43359-.07813.5039-.03125.5586h-.83203l.03906-.58985.10938-.57812.17969-.54688.24219-.4961.30468-.41796.17188-.17578.1836-.14844.1953-.1211.20704-.08984.21875-.05468.23046-.01954m5.08985 0h.51172v6.29297h-.78907v-4.48828h-1.38671v-.55469l.55859-.0664.2539-.05469.22657-.08984.20703-.14063.17187-.21094.14063-.29296.10547-.39454m2.82422 2.17579h.78906l.01953-.31641.0586-.28906.09765-.25.14063-.21485.18359-.17578.22265-.1289.26563-.07813.30469-.03125.23828.02344.22656.0625.20313.10156.17968.13672.14844.17578.11328.20313.07031.23828.02735.26562-.02344.26563-.0664.22656-.10938.1914-.15625.17188-.19922.16016-.2461.16797-.63671.38671-.53516.31641-.4375.3164-.34765.32423-.26563.33593-.1875.35157-.125.36718-.07031.39454-.01953.41796h4.21094v-.73828h-3.33204l.08204-.28515.11328-.23829.14843-.19921.1875-.1797.23047-.17187.27735-.17578.71875-.41797.41406-.20312.34765-.23438.28125-.25.21875-.26562.16407-.27735.10937-.28515.0664-.28516.01954-.28125-.04297-.38281-.1211-.34766-.1875-.30859-.25-.26172-.30468-.21484-.34375-.15625-.3789-.10156-.41016-.03125-.4336.03125-.39843.09765-.35547.16797-.30469.23438-.2461.30468-.1875.375-.11327.44531-.04297.51954"/></g></defs><use xlink:href="#Y"/></svg>