<svg xmlns="http://www.w3.org/2000/svg" role="img" xmlns:xlink="http://www.w3.org/1999/xlink" viewBox="142.45 309.95 326.84 171.84"><defs><clipPath id="a"><path d="M144 311.67188h1v168.65625h-1zm0 0"/></clipPath><clipPath id="b"><path d="M144 311.67188h324v168.65625H144zm0 0"/></clipPath><clipPath id="c"><path d="M467 480h1v.32813h-1zm0 0"/></clipPath><clipPath id="d"><path d="M467 311.67188h1v168.65625h-1zm0 0"/></clipPath><clipPath id="e"><path d="M144 478h4v2.32813h-4zm0 0"/></clipPath><clipPath id="f"><path d="M146 479h2v1.32813h-2zm0 0"/></clipPath><clipPath id="g"><path d="M154 478h7v2.32813h-7zm0 0"/></clipPath><clipPath id="h"><path d="M168 477h5v3.32813h-5zm0 0"/></clipPath><clipPath id="i"><path d="M181 477h6v3.32813h-6zm0 0"/></clipPath><clipPath id="j"><path d="M195 477h5v3.32813h-5zm0 0"/></clipPath><clipPath id="k"><path d="M207 478h8v2.32813h-8zm0 0"/></clipPath><clipPath id="l"><path d="M212 479h3v1.32813h-3zm0 0"/></clipPath><clipPath id="m"><path d="M220 479h8v1.32813h-8zm0 0"/></clipPath><clipPath id="n"><path d="M226 480h2v.32813h-2zm0 0"/></clipPath><clipPath id="o"><path d="M236 476h3v4.32813h-3zm0 0"/></clipPath><clipPath id="p"><path d="M250 476h2v4.32813h-2zm0 0"/></clipPath><clipPath id="q"><path d="M262 476h4v4.32813h-4zm0 0"/></clipPath><clipPath id="r"><path d="M274 477h6v3.32813h-6zm0 0"/></clipPath><clipPath id="s"><path d="M287 478h7v2.32813h-7zm0 0"/></clipPath><clipPath id="t"><path d="M301 477h5v3.32813h-5zm0 0"/></clipPath><clipPath id="u"><path d="M315 476h4v4.32813h-4zm0 0"/></clipPath><clipPath id="v"><path d="M328 477h5v3.32813h-5zm0 0"/></clipPath><clipPath id="w"><path d="M341 477h6v3.32813h-6zm0 0"/></clipPath><clipPath id="x"><path d="M354 477h6v3.32813h-6zm0 0"/></clipPath><clipPath id="y"><path d="M368 477h5v3.32813h-5zm0 0"/></clipPath><clipPath id="z"><path d="M381 476h5v4.32813h-5zm0 0"/></clipPath><clipPath id="A"><path d="M394 477h6v3.32813h-6zm0 0"/></clipPath><clipPath id="B"><path d="M409 476h3v4.32813h-3zm0 0"/></clipPath><clipPath id="C"><path d="M421 477h6v3.32813h-6zm0 0"/></clipPath><clipPath id="D"><path d="M434 477h5v3.32813h-5zm0 0"/></clipPath><clipPath id="E"><path d="M446 478h8v2.32813h-8zm0 0"/></clipPath><clipPath id="F"><path d="M461 476h5v4.32813h-5zm0 0"/></clipPath><clipPath id="G"><path d="M144 465h4v4h-4zm0 0"/></clipPath><clipPath id="H"><path d="M144 451h3v6h-3zm0 0"/></clipPath><clipPath id="I"><path d="M144 437h3v6h-3zm0 0"/></clipPath><clipPath id="J"><path d="M144 424h3v6h-3zm0 0"/></clipPath><clipPath id="K"><path d="M144 411h3v6h-3zm0 0"/></clipPath><clipPath id="L"><path d="M144 397h3v7h-3zm0 0"/></clipPath><clipPath id="M"><path d="M144 383h2v8h-2zm0 0"/></clipPath><clipPath id="N"><path d="M144 370h1v8h-1zm0 0"/></clipPath><clipPath id="O"><path d="M144 370h1v2h-1zm0 0"/></clipPath><clipPath id="P"><path d="M144 358h4v5h-4zm0 0"/></clipPath><clipPath id="Q"><path d="M144 343h2v8h-2zm0 0"/></clipPath><clipPath id="R"><path d="M465 344h3v2h-3zm0 0"/></clipPath><clipPath id="S"><path d="M144 330h3v7h-3zm0 0"/></clipPath><clipPath id="T"><path d="M466 331h2v3h-2zm0 0"/></clipPath><clipPath id="U"><path d="M144 318h4v5h-4zm0 0"/></clipPath><clipPath id="V"><path d="M466 319h2v3h-2zm0 0"/></clipPath><g id="W" clip-path="url(#clip1)"><path fill="#fff" fill-opacity="0" fill-rule="evenodd" d="M0 0h1000v1000H0zm0 0"/><path fill="#d3d3d3" fill-opacity="0" fill-rule="evenodd" d="M162.15234 355.86719l-.23437.29297.0586.23437.11718.17188.17578.23437.29297.34766.11328.0586.11719-.17188.0586-.23438.17577-.17578.46485-.17578h.69922l.23437.29297.28906.8164.0586.17579.17578.23046.35156.23438.69922.69922.17188.17578.23437.34765.23438.41016.28906.58203.41015.46485.23047.23437.23438.17578.11719.23047.17578.29297.17187 1.16406v.23438l.0586.28906.05859.11719.11719.11719.34765.41015.11719.17188.17578.17578.17578.23437.11719.17188.17188.35156.05859.23438.23437.40625.23438-.0586-.17578.17578-.0586.92969h-.58203l-.23437-.11328-.34766.11328-.11719.11719-.05859.29297-.0586.17578-.11718.17187-.46484.29297-.0586.23438-.0586.11328v.64453l.0586.17187v.41016l.0586.0586v.40624l.05859.40625.11719.17579.05859.05859.23047.64062-.0586.29297v.69922l-.05859.58203v.23438l-.0586.23047-.05468.35156v1.92187l.05469.1172h.42578l-.36719.11718-.02344.35156.89063 1.16797 1.74219.53906 1.33984.35938v.53906l.08984.8086.53516.71484 1.51953.26953.89063-.08594.08984 1.16406.53516.1797 1.16015-.1797 2.05469-.98437 1.16016-.36328 1.8789-.17578 1.69531-.1797-.17968.71876-1.51563.08594-1.25.08984-.80469.26953-1.07421.8086.26953.71875.53515.89843-.17968.625-.26563.8086.26563 1.07812.625.89844.80468.17969 1.25-.1797-.26562.72267.09766.5039.05468.29297v.17188l.0586.29296v.40625l.17578.1172.35156.11718h.40625l.29297-.17578.11328-.11719.0586-.11719.11718-.23047.0586-.17578.35156-.46484.23047-.17578.17578-.0586.17578.0586.0586.17578.11718.98828.05469.46875.0586.17188.11718.23437.17578.0586.8164.05859h.28907l.11719.23437.05859.40625.0586.35156v1.10547l.11718.29297.11719.34766.28906.69922.17578.35156.58203.7539.35157.17579.17187.0586.46875.23437.64063.46484.34765.23438.29297.17578.29297.05468.23047.0625.8164.34766.29297.17578.11328.17188.35157.35156.11719.17578.52343.64063v.28906l.0586.35156v.34766l.05859.35156.0586.28906.11718.0586.17188.05859h.17578l.58203.23437.17578.1172.17578.28905.17578.23438.11328.23437.29297.23047.11719.11719v.41016l.0586.05468.28906.23438.23437.11719.0586.11718.11718.17188.0586.11719.23047.23437.05859.17578.23437.0586.1172.05859-.1172.11328-.05859.11719v.11719l-.11719.29296-.11719.28907v.58203l.17579.11719.11718.05859.0586.11719.11719.11719.11328.05859.17578.34765.0586.35157.05858.40625v.17578l-.05859.17578-.11719.69922v.17187l.1172.17579.29296.29296h.40625l.17578.1172.11719.17187.11719.29296v.23438h-.52735l-.23047-.23438h-.23437l-.17578.0586-.0586.69922.0586.34765.11719.17579.17578.41015.11718.23047.28907.46875.17578.05469h.52344l.23437.0586.75781.64062.0586.29296v.23438l.05859.0586.23047.34765v.35156l-.11719.17188v.29297l.29297.28906.29297.17578.17187.0586.29297.17577.29297.1172.58203.40624.28906.23438.29297.17578.21875.16015.01563.01172.23047.17579.64062.52343.17578.23438.1172.17578.17577.17578.11328.17188v.64062l.1172.17578.46874.11719.58203.11719.23438.05859.23047.11328.29297.11719.11328.0586.58593.35156.28907.17187.17578.0625.17578.05469.17578.0586.69922.35155.28906.17579.23438.05468.28906.17578.23437.1172.64063.40624.29297.11719.17187.0586.23438.05859.41015.05859.23047.0586.23438.11718.0586.17188-.41017.17578.46875.0586.0586.29296.11328.23438.17578.05468.23438.0586.17578.05859.40625.11719.64062.23437.11719.17188.0586.23437v.17578l-.0586.1172-.0586.40624.23438.23438.11719.05859.34766.11719.64062.23047.17578.11718.28906.1172.17578.17577.23438.46485.58203 1.10546.17578.17579.34766.17578.17578.11719.35156.11718 1.04688.52344.23437.0586.46485.11327.29297.0586.46484.17578.75781.58203.23438.23438.34765.46484.17578.17578.28907.23438.8164.69921.29297.17579.28906.28906.29297.17578.29297.28906.69531.64063.17578.17578.29297.23437.28907.23438.46875.28906.64062.58203.34766.23438.23437.29297.34766.34765.35156.46485.9336.99218.34765.40625.11719.17579.23437.05859.11328.11719.64454.17578.23047.11328.23437.0586.29297.17577.23047.1172.9336.69921.40624.40625.23438.17578.40625.17578.23437.11719.8164.34766.34766.23437.23438.11719.29297.28906.23047.11719.7578.35156.35157.17188.23047.05859.29297.11719.23437.0586.8711.17577h.8164l.46875.23047.17188.0586.875.69921.46484.1172.29297.05858.17578.0586.23047.0586.46875.05859.34766.05859.35156.0586.40625.05859h.29297l.17187.0586v.23046l.17578.17578h.29297l.34766.0586.35156.05859.69922.11719h.64063l.46484-.23438.29297-.17578.17187-.11719.41016-.17187.28906-.17578.9336-.46485.46875-.29297.52343-.29296.46485-.17188.46484-.17578 1.05078-.46485.28906-.11718.41016-.11719.28906-.11719.52735-.17578 1.51562-.69922.58203-.34765.28907-.0586.29297-.0586.34765-.11718.875-.23047.35156-.11719h.11329l.23437-.05859.875-.23437.23438-.0586h.8125l.35156-.0586.8164-.11718.17188-.0586.35156-.05468.29297-.0586.23047-.05859.8164-.17578.17579-.0586h.34765l.23438-.05859.46484-.11718.75781-.17188.23438-.0586h.34765l.41016-.11718.28906-.0586 1.28516-.05859h.28906l.41016-.0586.23047-.05858h.17578l.875-.1172h.40625l.41015-.11718h.34766l.35156-.11328.8711-.0586h1.75l1.04687.28907.41016.11719.28906.11718.35156.11719.28907.11719 1.05078.17187.28906.0586h.29297l.29297.05859.17187.0586.41016.05859.17187.0586.1172.05858h.11718l.11719.0586.35156.0586h.11328l.41016.0664 1.92187.39453 1.92578.39453 1.51953.44922 1.69532.71875 2.14453.80469 1.60547-.71875 1.42968-.80469 1.16016-1.07813 1.25-.44921 3.03516-.71875 1.875-.35938 2.14453-1.34765 2.23437-1.25391 2.5-1.25781 1.69531-.44922 1.78516-.17969 1.16016-.26953.625.53906 1.33984-.26953.71485-.98828.98437-1.34375.44531-.17969.80469-.35937 1.875-.53907 1.78516-.44921 1.25-.26954 1.16015-.08984 1.69922-.08984 1.96094-.26954 1.25-.08984h.53906l.625-.08984h.89063l2.14453-.17969 2.41015-.17969 2.58985-.08984 1.69531.17969 1.60938.08984 1.42968.35938 1.16016.71875 1.875.98828 1.16015 1.52734.26563.71484.6289.08985.35548.89844.53515.53906.53516 1.52734 1.07422.35938h.53515l-.80469.53515.08985 1.70703.71484 2.69532.89063.80468.89453.98829.71484 1.2578 1.78516.53907 1.51953-.17969.35547 1.34375 1.60937-.80469.98047-.53906.26953.26953.31641-.21484.21875-.14453.80078.44922.44922-.35938h.35547l.53515-.26953.53907-.71875.53515-.26953.625-.98828 1.16016.44922.83984.3711 1.39454.61718 1.6953-.17969h1.60548l1.78515.08985.17969-1.70704.53516-1.34375.80468.26954.4922.84765.40233.40625-.08984.53906v.35938l.71485.44922.71093-.26953h1.42969l.35938.98828.4453 1.25781.71485 1.34375 1.25.6289 1.69531.62891.71485-.17969.17969-.53906.98046-.08984.44922.35937.08594 1.25782-.26563.6289-.53515.17969v.53906l.71484.98438.26563.53906.98437.98828.80078 1.07813-.26562.35937-.08985.89844-.625 2.33203-.35546 2.0664-.08985 1.79298-.17969.71875-.08984.53906v1.4375l-.98047 1.88281-.35937 1.70703-.53516.89844-.80469 1.16797-.26562.53906 2.05469 1.2539.08593.35938-.35546.53906-.08985-.17968v.80859l.08985 1.4375-.44532.71484-1.07422.09375-.26562.71485.53515.89844.8047.71875 1.16015.80859 1.33984.26953.44531.35938-.35546.44921-1.78907-.08984-1.25-.44922-.71484-.71875-.625-.08984-.17578 3.58984-.1875 1.3086h89.35937V311.70313h-55.26953v49.08203l.76172.125 3.28906.54296 2.02344 2.83594v2.7539l2.35156.33204 2.34766.33203h4.05078l-1.3789 4.16016-2.02344.70703-2.02344.70312-.54297.34375-2.59375 1.6172-.1875.11718-2.02344-2.07813-.73046-2.74218-2.67188-2.07813-1.375-3.5-.0664-.08203-1.95704-2.67188 2.75-1.41796v-49.08204H294.42187v91.41407l.1172.03125.1328.01172.07422.07421.10547.04688.08985.0586.08593.05859.08985.0586.29687.29687.0586.08984.03125.11719.02734.11719.01563.13671-.03125.1172-.0586.08983-.0586.08594-.04296.10547-.04688.10156-.02734.1211v.14453l.17578.26953.14844.14844.07422.08594.07422.07421.04296.10547.0625.08985.0586.08593.04297.10547.0586.08985.04687.10156.04296.10547.0586.08594.11719.17968.07421.07422.0625.08594.0586.08984.04297.10547.0586.08985.05858.08593.0625.08985.0586.08984.04297.10156.11719.17969.07421.07422.0586.08594.07422.07421.08984.0586.10547.04687h.14844l.1328-.01562.13282.01562.10156-.04687.07422-.07422.04688-.10156-.01563-.13281v-.14844l-.04687-.10547-.02735-.11719-.04687-.10156-.02735-.1211-.04296-.10156-.0625-.08984-.04297-.10156-.04297-.10547-.03125-.11719-.01563-.13281-.01171-.13672.08593-.0586.0586-.08593.12109-.03125.04297.10547.01562.1328v.1172l.0586.10156.0586.08984.08983.0586.14844.14843.0586.08985.04296.10547-.01171.10156.08593.0586.10547.04687.08594.0586.08984.05858.07422.07422-.11719.02735-.10546.04687-.08594.0586-.07422.07421-.0586.08985-.0625.08594-.02734.12109-.04687.10156-.04297.10547-.03125.11719-.01172.13281-.01563.13281v.14844l.02735.11719.04687.10547.04297.10156.0586.08984.07421.07422.08985.0586.07422.07421.08984.0586.0586.08984.04296.10547.04688.10156.11719.03125.1328.01563h.14845l.11718-.03125.10547.04297.04297.10547.04688.10156.02734.1211L299.5 410l.02734.11719.03125.1211.02735.11718.10547.04297.10156.04687.13281-.01562.14844.14844.0625.08593.07422.07422.07031.07422.08984.0625.10547.04297.10156.04297.1172.03125.13671.01562.11719-.03125.07422-.07422.02734-.11718-.01172-.13282-.03125-.12109-.02734-.11719.04297-.10547h.11719l.08984.0625.11719.02735h.14843l.13282.01562h.14843l.13282.01563.1328-.01563h.14845l.1328-.01562.13282-.01172.13672.01172.11719-.02735.13281-.01562.1914-.0586-.05859.17579-.01562.1328-.02735.1211-.01562.13281-.0586.08594-.1328.01563-.10548.04687-.10546.04297-.1172.03125-.11718.02735-.26563.03125h-.14843l-.13281.01562-.07422.07422.05859.08594.14844.14843.11719.1797.07421.0703.08985.0625.08984.0586.08594.0586.08984.05858.10156.04297.10547.0625.10547.04297.08594.0586.10547.04687.10156.04297.17969.11719.0586.08984-.04298.10156-.04687.10547.01562.13281.22266.22266.0586.08985.04296.10156.03125.1211.04297.10155.01563.13282.03125.11718.01171.13672.03125.11719.14844.14844.10156.04297.10547.04296.1172.03125.1328.01563.13672.01563h.11719l.11719-.03125.08984-.0586.04297-.10547.04688-.10156.04296-.10547.03125-.11719.01172-.1328v-.14845l-.01172-.1328-.01562-.13282-.03125-.11719-.04297-.10547-.04688-.10547-.04296-.10156-.04297-.10547-.01563-.13281.01563-.13281.02734-.11719.03125-.11719.02735-.1211.04687-.10155.08984-.0586.08594-.0625.07422-.07422.08984-.05859.22266-.22266.0586-.08593.07421-.07422.11719-.17969.0586-.08594v-.14844l-.07423-.07421-.10156-.04688-.10547-.04297-.10156-.04297-.0586-.08984-.04687-.10547-.02734-.11719.08984-.05859.11719-.03125.10156-.04297.17969-.11719.14844-.14843.01172-.13282-.01172-.10546-.08985-.0586-.1328.01563h-.14845l-.1328.01562-.13282-.01562-.1211-.03125-.08593-.0586-.07422-.07422-.0586-.08984-.0625-.08594-.11718-.17969-.0586-.08593.03125-.1211.08594-.05859.1211-.03125.05859-.08594v-.1211l-.03125-.11718-.0586-.08984-.05859-.08594-.04687-.10547-.02735-.11719-.01562-.1328.0586-.08985.07421-.07422.08984-.0586.1172-.17968.07421-.07422.0586-.08594.14843-.14844.1211-.03125.1328-.01562.13282.01562.07422.07422.04297.10547.01562.13281-.03125.1172-.11719.03124-.1328.01172-.14844.14844-.04297.10547-.04688.10156-.02734.1211-.03125.11718v.14844l.03125.11719.04297.10546.05859.08985.07422.07031.07422.07422.11719.03125.12109.02734.11719-.02734.1328-.01563h.1172l.08984.0586.07422.07422.04687.10546.0586.08594.10156.04688.13281.01562.10547.04297.08594.0586-.01172.10546-.07422.07422-.17969.11719-.05859.08984-.08984.0586-.07032.07422-.07421.07421-.0625.08985-.02735.11719-.01562.1328.01562.13282-.01562.13281v.14844l.01562.13281.02735.1172.03125.12108.07421.07422.08985.0586.08594.0586.08984.05858.11719.03125v.08594l-.10157.04688-.08984.0586-.26563.03124-.11718.02735h-.14844l-.10547.04296-.10156.04688-.0586.08984-.0625.23438-.01171.13281-.03125.1211-.01563.1328v.29298l-.01172.1328.01172.13673.01563.1328.1328.01563.13282.01172.1211.03125.08593.0586.07422.07421.04688.10547.04296.10157.01563.1328v.44532l-.01563.13281v.44532l.03125.26562.02735.11719.01562.13281.03125.11719.08594.21094.03125.26562v.14844l-.03125.11719-.02734.11718-.03125.1211-.02735.11719-.03125.11718-.03125.1211-.01171.1328-.01563.13282.08984.0586.1172-.03125.10155.01562.04688.10547-.03125.26562v.44141l-.04297.10547-.04688.10547-.04296.10156-.04297.10547-.0586.08594-.03125.12109-.04296.11719-.03125.11719-.01563.1328.01563.13282.05859.08984.10547.04688.08594.0586.05859.08593-.01172.13672-.03125.11719-.04297.10156v.44531l-.01562.13281v.14844l-.03125.11719-.04297.10547-.02735.11719-.04687.10546-.04297.10157-.03125.12109-.02734.11719-.03125.13281-.03125.11719-.02735.11719-.04297.10546-.03125.1172-.03125.12108-.01171.13282-.01563.13281v.29688l.02734.11718v.14844l.04688.39844.02734.11719.0586.08984.12109.03125h.14844l.13281-.01563.0586.08985v.11719l-.0586.08984-.08984.0586-.10157.04296-.10546.04688-.08985.05859-.08594.0586-.13671.01562-.1172-.03125-.1328-.01563-.10157.04688-.0625.08594-.01172.13671-.01562.13282-.03125.11719-.02735.11718-.01562.13281-.03125.1211v.29687l.01563.13282.03125.11718v.14844l.01171.13281v.14844l-.02734.11719-.04688.10156-.02734.1211-.03125.11718-.0586.08985-.07421.07421-.10156.04297-.10547.04688-.11719.02734-.1211.03125-.10156-.04687.0586-.08594.10547-.04688.02734-.11718.03125-.11719.02734-.1211.03125-.11718v-.14844l.01563-.13281-.03125-.11719-.04297-.10547-.10547.01563-.07422.07422-.10156.04296-.08984.0625-.07422.07422-.04297.10157-.01563.1328-.03125.1172L304.25 426l-.03125.11719-.02734.11719-.03125.12109-.02735.11719-.03125.11718-.04297.10547-.08984.0586h-.08984l-.1172-.03125-.03124-.08594.01562-.13672-.03125-.11719v-.14844l-.01171-.1328v-.14844l-.0625-.23438-.02735-.1211-.04297-.10156-.04687-.10546-.0586-.08594-.05859-.08985-.04297-.10546-.0625-.08594-.14844-.14844-.0703-.07422-.10548-.04687-.10547-.04297-.10156-.04297-.29687-.29688-.08985-.07421-.08594-.0586-.10546-.04297-.08985-.0625-.08594-.0586-.10546-.04296-.08985-.0586-.08594-.0625-.07421-.0703-.10547-.04688-.08594-.0586-.10547-.04296-.08984-.0625-.10156-.04297-.10547-.04297-.08594-.0586-.10547-.04687-.10547-.04297-.10156-.04687-.08985-.0586-.10156-.04297-.10547-.04296-.08984-.0625-.11719-.02735-.13281-.01562-.13281.01562H299.75l-.13281.01563-.11719-.03125-.08984-.0586-.07422-.07422-.08985-.05859-.10156-.04688h-.14844l-.12109-.02734-.10156-.04297-.07422-.07422-.11719-.17968-.08984-.0586-.10156-.04297-.08985-.0625-.10547-.04296-.08984-.0586-.08594-.0586-.10547-.04687-.0586-.08594-.05858-.08984-.04297-.10547-.04688-.10156-.07422-.07422-.08594-.0586-.07421-.07421-.08985-.0586-.22265-.22265-.04297-.10547-.03125-.26563.10547-.04296h.14453l.10547.04296.07421.07422.08985.0586.08594.0586.10546.04687.08985.05859.14844.14844.0703.07422.14845.14843.0625.08594.07421.07422.08594.0586.07422.07421.08985.0625.08984.0586.08594.05859.26953.17578.10156.04688.10547.04296.10156.04297.04688-.07421.05859-.08594.07422-.07422.07031-.07422.10547.04297.07422.07422.0586.08984.04296.10156.04688.10547.04296.10547.1211.02735.11719-.02735.07421-.08984.04297-.10547.0586-.08985.07422-.07421.10546-.04297.1172-.02735.1328.01172.08985.0586.14844.14843.05859.08985.04297.10547.04687.10156.04297.10547.04297.10156.10547.04688.10547.04296.13281.01563.08594-.0586.0586-.08984.07421-.07422.10547-.04297.11719.02735.10547.04687.10156.04297.10547.04297.10156.04688.17969.11718v.11719l-.01563.13281.01563.13281.01562.13672.0586.08594.10156.04688.1211.02734.11718.03125h.14844l.11719-.03125.05859-.08984.17969-.1172.05859-.08983.07422-.07422.0586-.08594.11718-.17969.17969-.11719.11719.03125.08984.0586.04297.07422-.01563.1328v.1172l.08985.05859h.14843l.13282-.01563.1328-.01171.26563-.03125.10547-.04297.11719-.03125.1211-.02735.07421-.07421.07031-.07422.0625-.08985-.01562-.10547-.04688-.10156-.10156-.04297-.10547-.01562-.11718.02734-.26563.03125h-.14844l-.07421-.07422-.08985-.0586-.11719-.03124-.11718-.02735-.13282-.01562h-.14843l-.13282.01563h-.29687l-.10547-.04688-.14844-.14844-.04297-.10156-.05859-.08984.22266-.22266.08593-.0586.10547-.04296.11719-.03125.13281-.01563.13281.01563.13672.01562.10157.04297.1328-.01172.08985-.0625.10156-.04297.0625-.08984-.04687-.10156-.08984-.0586-.1172-.03125-.10155-.04296-.0586-.08985-.0625-.08984v-.11719l.01563-.13281.10547-.04688.07421-.07031v-.1211l-.08984-.05859-.03125-.11719.08985-.05859.07421-.07422.04297-.10547.0586-.08984.04687-.10156.01563-.13281v-.14844l-.04688-.10547-.04297-.10156-.08984-.0586-.13281-.01562-.10157-.04297-.13671-.01563-.1172-.03125h-.4453l-.13282-.01562-.13281-.01172-.13281-.01563-.11719-.03125h-.14844l-.13281-.01562-.13281-.01172-.26563-.03125-.1211-.04297-.08593-.0586-.07422-.07421v-.14844l.01172-.13281.10547-.04688.10156-.04296.13281-.01563h.15235l.13281-.01562h.29297l.1211.03125.10156.04296.08984.0586.23438.0625.12109-.04688.08984-.05859.10156-.04297.13282-.01562.10547.04296.10156.04688.13281.01172.1211-.02735h.14453l.12109-.03125.11719-.02734.10547-.04687.07421-.07422.08594-.0586.14844-.14843.0586-.08594.04687-.10547.02734-.11719.01563-.10547-.10156-.04296-.08985-.0586-.11719-.03125-.10546-.04297-.08985-.0625-.07422-.08594-.07422-.07421-.10156-.04297-.10547-.04688-.10156-.04297-.0586-.08984-.04687-.10156-.08594-.21094-.0625-.08594-.05859-.08984-.07422-.07422-.08594-.0586h-.26953l-.11719.03126-.08984.05859-.10156.04297-.13281.01562-.10547-.01562-.02735-.11719-.0625-.08984-.11718-.03125-.10157-.04297-.14843-.14844-.03125-.11719-.01563-.10546.07422-.07422.17969-.1172.11719-.02733.11718-.03125.13672.01562.10156.04297.10547.04297.10156.04687.10547.04297.1172.03125.1328.01563.1172.02734.1328.01563.10547-.01563.08985-.0586-.07422-.07421-.10547-.04297-.07422-.07422-.07422-.08984-.14844-.14844-.08593-.0586-.08985-.05859-.07422-.07422-.08984-.0586-.10156-.04687-.1211-.02734-.10156-.04688-.10547-.04296-.11719-.03125-.10156-.04297-.1211-.03125h-.14843l-.11719.03125-.10546.04297-.08594.0625-.17969.11718-.08594.0586-.08984.0586-.10547.04687-.08594.05859-.10547.04297-.10156.04297-.10547.04687-.07422.07422-.05859.08985-.0586.08593-.04687.10547-.0586.08594-.07421.07422-.13281-.01172-.1172-.03125h-.11718l-.07422.07422-.08984.0586-.07422.07421-.08984.0586-.08594.05859-.10547.04687-.10156.04297-.13672.01563-.10156-.04297-.14844-.14844-.10547-.04688h-.08594l-.10547.04688-.10156.04297-.1211.03125-.11718-.03125-.07422-.07422v-.11719l.03125-.1211.07422-.0703.0586-.08985.07421-.07422.11719-.03125.10547-.04296h.29297l.13281-.01563.13672-.01563.10156-.04296.08985-.0586.10156-.04687.08984-.0586.13281-.01171.08985.05859.13281.01172.08984-.0586.08594-.05859.10547-.04297.08984-.0586.08594-.0625.08985-.05859.14843-.14843.0586-.08594.05859-.08985.10547-.04296.13281-.01563.11719.02735.1211.03125.05859-.0586.05859-.08984.03125-.26563.02734-.11719.10547.01172.13281.01563.10157-.04297.08984-.0586.0586-.08984.07421-.07422.0586-.08984.04687-.10156.01172-.13281-.01172-.13282-.04687-.10547-.14844-.14843-.0586-.08985-.05859-.08594-.04297-.10546v-.44532l.01563-.1328v-.14845l.01172-.1328-.0586-.0586-.08984.0586-.10156-.04298-.17969-.11719-.08594-.05859-.0625-.08984-.0586-.08985-.07421-.07421-.08594-.0586-.1211.03125-.10155.01172-.10547.04688-.08594.05859-.10547.04297-.14844.14844-.08984.05859-.08594.0586-.08984.0625-.10547.04296-.13281.01563v-.1211l.10547-.04297.11718-.03125.07422-.0703.04297-.10548v-.14844l-.02734-.11718-.14844-.14844-.13281-.01563h-.14844l-.11719.03125-.10547.04297-.10156.04297-.08984.0625-.11719.02735-.07422-.07422.01172-.13281-.04297-.10157-.04297-.10547-.08984-.05859-.11719.02734-.1211.03125-.11718.03125-.10156.04297-.1211.03125-.10156.04297-.10547.04297-.08984.0586-.10156.01562v-.11719l.01562-.13281-.0586-.08985-.07421.04297-.14844.14844-.0586.08985-.07421.07421-.04688.10547-.04296.10156-.07422.07422-.0586.08985-.07422.07422-.05859.08593-.07422.07422-.08984.0625-.07422.07031-.07422.07422-.10156.01563-.13281.01562-.10547-.04296v-.1211l.14843-.14844.04297-.10156.0586-.08984.04687-.10156.04297-.10547.0586-.08985.03124-.11719.04297-.10156.03125-.1211.02735-.11718.04687-.10547.04297-.10156.04297-.10547.07422-.07031.08984-.0625.08985-.0586.10156-.04296h.29687l.26563-.03125.10547-.04297-.07422-.07422-.11719-.03125-.10547-.04297-.08984-.0586-.10156-.04687-.08985-.0586-.10156-.04296-.10547-.04297-.08984-.0625-.08594-.0586-.10547-.04296-.10156-.04297-.1211-.03125-.11718-.03125-.10157-.04297L297.5 410.25l-.10156-.04297-.08985-.0586-.04296-.10546-.01563-.13281.10156-.04297.13281-.01563.13672.01563.13282-.01563.10156-.04297.0586-.08984.01562-.10547-.08985-.0586-.07421-.07421-.10157-.04297-.08984-.0586-.14844-.14843-.04297-.10547-.01562-.13281v-.29297l-.0586-.08985-.08984-.05859-.07422-.07422-.04297-.10547-.03125-.11718-.0586-.08985-.07421-.07422-.11719-.02734-.07422-.07422-.08984-.0586-.08984-.0625-.08594-.05859-.07422-.07421-.0586-.08594-.04687-.10547-.08594-.0586-.14843-.14843-.19532-.0586-.1328.01563-.10157.04297-.07422.07422-.04688.10156-.04296.10547-.0586.08984-.0586.08594-.29687.29687-.08984.0586h-.08594l-.0625-.08594-.04297-.10547.03125-.11719.0586-.08984.02734-.11719-.01172-.13281-.08984-.0625-.10547.04688-.11719.02734-.11719.03125-.26953.17578-.10156.04688-.11719.02734-.10546.04687-.08985.0586-.10156.04297-.0586-.08594-.04687-.10547.01563-.13281.04687-.10547.07031-.07422.07422-.07031.0586-.08985v-.14843l-.04297-.10547h-.23829l-.10156.04687-.03125.11719-.02734.11719-.03125.1211-.07422.04296-.13281.01563-.07422-.04688-.04297-.10156-.04297-.10547-.04687-.10156-.04297-.10547-.1211.03125-.10156.04297-.13281.01562-.11719.03125-.10547.04297-.08984.0586-.10156.04687-.1211.02734-.13281.01563-.10156-.04297-.0586-.08985-.04687-.10546-.04297-.10157-.04297-.10546v-.1172l.0586-.08984.08593-.05859.17969-.11719.10156-.04687.10547-.04297.10547-.0586.10156-.04296.08985-.0625.10156-.04297.10547-.0586.10156-.04687.08984-.0586.10547-.04296.10156-.04297.08985-.0625.10156-.04297.13672-.01563.11719.03125.10156.04297.1211.03125.10156.04297.10546.04688.10157.04296.10547.04297.10156.04688.10547.04297.10156.04297.10547.04687.08594.0586.10546.04296.1172.03125.10546.04297.10156.04688.08985.0586.10547.04296.10156.04297.10547.04687.11719.02735.10156.04687.1211.02735h.14843l.08594-.0586.01562-.10156.0586-.08984-.02735-.1172-.07422-.07421-.11719-.17969-.07421-.07422-.08985-.07421-.17969-.1172-.08593-.05859-.10547-.04296-.10156-.04688-.26954-.17578-.05859-.08985-.07422-.07421-.0586-.08985-.04296-.10156-.03125-.11719-.01563-.13672v-.5625l-.01171-.1328-.01563-.13282-.03125-.11719-.01562-.13281-.01172-.13281-.03125-.1211-.22266-.22265-.0586-.08594-.01562-.10547.03125-.11719.13281-.01562v-91.41406H172.9922v1.45312l-.0586.23438-.35156 1.05078-.17187.52343-.1172.34766-.17577.41016-.11719.17187-.23438.29297-.23046.0586h-.35157l-.11718.05859-.23047.40625v.29297l.11719.17578.23046.23047.1172.23437.64062.75781.29297.46485.17578.23437.23047.35156.23437.34766.64063.8164.17578.46485.17187.41016.11719.69531.17578.46875.11719 1.39844.0586.46484v.875l.11718 1.04688v4.78125l-.0586.46484-.35156 1.28125-.17578.52344-.11328.41015-.35156.9297L172.93359 336l-.23437.58203-.11719.17578-.17187.34766-.17578.40625-.35157.8164-.0586.29297-.11327.29297-.11719.28906-.0586.17579-.11718.875-.0586.40625-.05859.11718-.0586.17579-.05859.17187-.23047.52734-.11718.17188v.23437l-.11719.23438-.0586.17187-.17577.58594v.28906l-.0586.17579v.29296l-.0586.11329-.05859.52734v.17187l-.05468.23438v2.6211l-.17578.8164-.1172.17578-.17577.23438-.1172.17187-.11327.23438-.58594.93359-.23047.28906-.29297.46485-.17578.23437-.28906.35156-.35156.69922-.11328.23047-.17579.41016-.17578.23046-.40625.52735-.8164.69922-.29297.17187-.28906.23438-.17579.11719-.17578.17578-.52344.40625-.52734.17578-.17187.17578-.23438.05469-.64062.17578h-.75782m12.21094 31.02344l-1.07422.44921.35938.89454 1.25-.71485.44531-.53906-.98047-.08985"/><path fill="#d3d3d3" fill-opacity="0" fill-rule="evenodd" d="M201.50781 416.59766h-.89453l.44922.6289.98047.35938.80469-.08985.4453-.98828-.17577.08985-.71485-.35547-.89453.35547m154.6211 59.0703l-.0586-.52343v-.29297l.11328-.29297.0586-.23046.46875-.46875h.11328l.11719-.11329.11718-.05859h.17579l.23437-.0586h.34766l.23437.0586.11719.0586.23047.17187.0586.17578.11718.58203v.29297l-.11719.17578-.17187.28906-.17579.17579-.52734.52343-.23047.23438-.11719.0586h-.17578l-.11718-.0586-.40625-.29297-.17579-.11719-.11718-.0586-.0586-.11327-.05468-.1172m6.64062-10.95702l-.0586-.17188v-1.10937l.0586-.17188.17578-.0586.17188-.05858h.17578l.23437-.0586.1172.0586.05858.69921-.05859.17188-.11719.17578-.11718.0586-.23438.52343-.11328.0586h-.23438l-.05859-.1172m9.61328-14.39062l-.11719-.17578v-.69922l.29297-.875.1172-.17187.17577-.35156.11328-.23047.1172-.29297.35155-.75781.1172-.23047.17187-.23438h.17578l.11719-.0586h.64062l.11719.0586.23437.23438.17188.11328.35156.29297.11719.11718.11328.17579v.11328l.11719.05859.11718.11719v.69922l-.05859.17578v.23047l-.0586.17578-.34765 1.05078-.11719.23047-.11719.23437-.11718.0586-.23047.23437-.64063.28906h-.875l-.41015-.11718-.64063-.46485"/><path fill="none" stroke="#bebebe" stroke-linecap="round" stroke-linejoin="round" stroke-miterlimit="10" stroke-width=".5" d="M467.95703 311.69531H144.02734v168.625h323.9297v-168.625"/><g clip-path="url(#a)"><path fill="#fff" fill-opacity="0" fill-rule="evenodd" d="M144 475.89063v4.4375h.0039H144V311.67188h.0039H144v164.21875"/></g><g clip-path="url(#b)"><path fill="#fff" fill-opacity="0" fill-rule="evenodd" d="M144.0039 480.32813V311.67188h115.39454V419.4375l-2.96485 3.1914-1.47656 3.14063-4.4375-.16797-4.4375-2.39062-4.4375.48437-4.4375.17969-4.4414-.22656-4.4375-.13672-4.4375.77734-2.875 2.78125-1.5625 1.69922-4.4375-.89453-4.44141.33594-4.23828 3.29687-.19922.08985-4.4375.83203-4.4375 1.39453-2.50781 2.1211-1.9336.73827-4.4375 1.42579-2.79297 2.27343-1.64453 2.47656-4.4375.16797-2.61719 1.79297-1.82421 1.3164-4.4375-.33983-4.4375 3.01562-.29297.44922.29297.48437 2.96875 3.95313 1.46875.80469 1.2578-.8047 3.1797-1.68358 4.4414-.85547 4.4375.46875 4.4375-.69532 4.4375-1.16406 4.4414 1.4336 4.4375 1.51562 4.4375.71875 1.72657.26172-1.72656.27734-4.4375.26563-3.72266 3.89453 3.72266 3.6875 4.4375-.38672 4.4375-.5 4.4414-2.58984 4.4375 1.51171 4.4375 1.62891 2.14454 1.08594 2.29297 1.47265 2.40234-1.47265 2.03516-.67578 4.4414-1.23828 3.55078-2.52344.88672-.79297 4.4375-2.90234 1.07422-.7422 3.36328-3.46483 2.16797-.97266-2.16797-.63672-1.69922.63672-2.73828 2.60547-.49219-2.60547-3.9453-4.38672-.03126-.05469.03125-.01953 4.4375-.40625 3.88281-4.01172.5547-1.64062 4.4375-2.01563 4.4414 1.5664v5.54298l-1.875.98437 1.875 1.0586 4.4375-.54297.53125-.51563-.53125-.5586-4.4375-.42577v-5.54297l2.09765-2.34766 1.1211-4.4375 1.21875-2.7461 3.8711-1.6914-2.23438-4.4414-1.63672-1.78125-4.4375-1.41016V311.67187h48.82031V414.75l-3.38281 3.4414-1.05469.65626-4.4375.01562-1.32031-.67187-3.1211-3.20313-4.4375.21485-2.14843 2.98828-2.28907 1.625-2.8125 2.8125-1.625.77343-4.4375.39454-4.4414-.26563-4.34375 3.53906 3.69531 4.4375.64844.52735 4.4414.12109 4.4375 3.70313v5.05078l-3.85937 3.91015-.57813 1.48828-1.78906 2.95313 1.78906 3.28906 4.4375-.94531 3.72266-2.34375.71484-.82422 4.4375-3.40625.17188-.21094-.17188-.19922-4.4375-1.80078-4.4375-1.91015v-5.05079l.16797.08594 4.26953 3.26953 4.4375.51172 3.56641-3.78125.8711-2.64844 3.94921 2.64844.49219.46875.5039-.46875-.5039-2.57031-.52344-1.86719.52344-.1836 4.4375-.24608 4.10938-4.00782.32812-.48437 4.4375-.32031 3.4336-3.63672.47656-4.4375-3.91016-3.39454-4.4375-.04687V311.67187h31.07031v104.53125l-2.84765 1.98829 2.84765 4.125 3.92188-4.125-3.92188-1.98829V311.67188h8.875v105.29297l-3.51562 1.22657 3.51562 1.48828v4.58594l-4.4375.07812-1.32031 2.72656 1.32031 1.26953 2.15625 3.16797.08985 4.4375 2.1914 2.04688 2.85156 2.39062 1.58594 1.57422 4.4414 1.92578 4.4375-2.57422 1.45313-.92578-1.45312-1.0664-.57813-3.3711-.61718-4.4375-3.2422-3.33594-4.4414.90625-1.76172-2.0078-2.67578-2.8047v-4.58593l1.1875-1.48828-1.1875-1.22657V311.67188h8.8789v109.40234l-1.58202 1.55469 1.58203 1.84375 1.65625-1.84375-1.65625-1.5547V311.67189h22.1914V443.6875l-.76953 1.13281-3.67187 2.91797-1.66406 1.52344 1.66406 1.57422v24.7539l-.29688.30079.29688.48437.30469-.48438-.3047-.30078v-24.7539l1.82032-1.57422 2.6211-3.47266 2.85937-.96875-2.85938-1.13281V311.67187h17.75V450.2461l-4.4375 1.14844-2.0039 2.30469-2.4336 1.63281-3 2.80469-1.4375 2.92187-1.33984 1.51563 1.33985 1.30078 4.4375 2.38281 4.4375.41797 4.4375.02344 4.4414-1.08203 3.57031-3.04297.8672-1.44531 3.24218-2.9922-3.24219-4.05858-.22656-.37891-4.21094-2.82813-4.4414-.625V311.67188h71.01171v168.36718l-.26562.28906H144.0039"/></g><path fill="#50fcfc" fill-rule="evenodd" d="M166.1914 449.7461l-.29296-.48438.29297-.44922 4.4375-3.01563 4.4375.33985 1.82422-1.3164 2.61718-1.79298 4.4375-.16796 1.64453-2.47657 2.79297-2.27344 4.4375-1.42578 1.9336-.73828 2.5078-2.1211 4.4375-1.39452 4.4375-.83203.19923-.08985 4.23828-3.29687 4.4414-.33594 4.4375.89453 1.5625-1.69922 2.875-2.78125v5.875l-1.47265 1.34375 1.01953 4.4375.45313.97656 4.4375 1.94922.49609-2.92578-.4961-1.83984-2.6289-2.59766-1.8086-1.34375v-5.875l4.4375-.77734 4.4375.13672 4.44141.22656 4.4375-.17969 4.4375-.48437v1.39844l-4.4375.83984-4.4375 1.1289-4.4414-.94921-4.4375-.47266-4.03125 1.91406 4.03125 3.21094 1.42578 1.22656.33203 4.4375 2.67969 2.66797v1.2539l-2.96875.51563 2.96875.69922 4.4414.09766.55078-.79688-.55078-.28125-4.4414-.23437v-1.2539l4.4414.73827 2.00781 1.03125-2.0078 2.90235-4.44142-.51172-4.4375.76953-3.09765-3.16016-1.33984-.88672-1.64063-3.55078-2.79688-4.04687-.6289-.39063-3.8086-2.10547-4.4414.57032-1.97266 1.53515-2.46484 1.1211-4.4375 1.60546-2.9375 1.71094-1.5.60156-4.4414 1.98438-3.09766 1.85156-.8711 4.4375 3.96875 2.1836 3.80078-2.1836.64063-.20703 3.45312.20703.98438.42969 2.08984 4.01172 2.34766 1.3125 4.4375 1.02344 4.4414 1.51171 4.4375-.22656 4.40235.8164.03516.2422.5039 4.1953 3.9336 1.6875 4.4375-.36327 2.90625-1.32422 1.53515-.95703 3.77734-3.48047L237.20703 450l-.60937-.73828.60937-.98438 1.85938-3.45703 2.57812-1.67578 4.4375.34375 3.0039-3.10547 1.4336-4.22656.375-.21094 4.0625-2.375 4.4414-.0039.83204-2.0586-.83203-1.97265-4.4414-.25-4.4375-.78516-1.3125-1.42969-3.125-2.46094v-1.39843l4.4375 2.39062 4.4375.16797 1.47655-3.14062 2.96485-3.19141v2.76953l-.39453.42188.39453 1.15234.85937-1.15234-.85937-.42188v-2.76953l4.4375 1.41016 1.63672 1.78125 2.23437 4.4414-3.8711 1.6914-1.21874 2.7461-1.1211 4.4375-2.09765 2.34766-4.4414-1.5664-4.4375 2.01562-.5547 1.64062-3.8828 4.01172-4.4375.40625-.03126.01953.03125.05469 3.94531 4.38672.4922 2.60547 2.73827-2.60547 1.69922-.63672 2.16797.63672-2.16797.97265-3.36328 3.46485-1.07422.74219-4.4375 2.90234-.88672.79297-3.55078 2.52344-4.4414 1.23828-2.03516.67578-2.40234 1.47265-2.29297-1.47265-2.14453-1.08594-4.4375-1.6289-4.4375-1.51172-4.44141 2.58984-4.4375.5-4.4375.38672-3.72266-3.6875 3.72266-3.89453 4.4375-.26563v3.0664l-4.4375.4336-.63281.66016.6328.625 4.4375.24219 3.87892-.8672-3.87891-1.09374v-3.0664l1.72656-.27735-1.72656-.26172-4.4375-.71875-4.4375-1.51563-4.4414-1.43359-4.4375 1.16406-4.4375.69532-4.4375-.46875-4.44141.85546-3.1797 1.6836-1.2578.80469-1.46875-.8047-2.96875-3.95312"/><path fill="#00e8fc" fill-rule="evenodd" d="M192.82031 447.0039l-3.96875-2.18359.8711-4.4375 3.09765-1.85156 4.4414-1.98438 1.5-.60156 2.9375-1.71094 4.4375-1.60546 2.46485-1.1211 1.97266-1.53515 4.4414-.57032v2.83985l-4.4414.58984-4.4375 1.51563-3.02734 1.59765-1.41016 1.41406-4.4375 1.25782-3.01953 1.76562 3.01953 1.94531 4.4375.21485 4.4375-.60938v2.6836l-3.3086.20312 3.3086.96875.78516-.96875-.78516-.20312v-2.6836l4.4375-.92187 1.91016 3.8086 1.68359 4.4414.84766.35156 4.4375-.13281.3789-.21875 1.52344-4.4414-1.90234-1.47266-4.4375-.5586-4.01954-2.40625L215.01562 438l4.4375-1.19922v2.07813l-4.4375 1.47656-.04687.02734.04688.02735 4.4375 1.21875 3.44921-1.2461-3.44922-1.5039v-2.07813l.8125-.85547-.8125-1.17969-4.4375-2.52343v-2.83985l3.8086 2.10547.6289.39063 2.79688 4.04687 1.64063 3.55078v3.5l-.32032 1.82422.32031 1.4375 1.89844-1.4375-1.89844-1.82422v-3.5l1.33985.88672 3.09766 3.16016 4.4375-.76953 4.4414.51172 2.00781-2.90235-2.0078-1.03125-4.44142-.73828-2.67968-2.66797-.33203-4.4375-1.42578-1.22656-4.03125-3.21094 4.03125-1.91406 4.4375.47266 4.4414.94921 4.4375-1.1289 4.4375-.83985v2.33204l-.48437.1289-3.95313 3.21875-4.4375-1.40625-3.3164 2.625-1.125 2.71875-.57813 1.71875.57813.57813 4.4414 1.57812 4.4375 2.28125 4.4375 1.59766 1.54688-1.59766 1.63672-4.4375 1.03515-4.4375-4.05469-4.4375-.16406-.1289v-2.33204l3.125 2.46094 1.3125 1.42969 4.4375.78516 4.4414.25.83204 1.97265-.83203 2.0586-4.4414.0039-4.0625 2.375-.375.21094-1.4336 4.22656-3.0039 3.10547-4.4375-.34375-2.57813 1.67578-1.85938 3.45703-.60937.98438.60937.73828 3.77734 3.69922-3.77734 3.48047-1.53516.95703-2.90625 1.32422-4.4375.36328-3.93359-1.6875-.5039-4.19531-.03516-.2422-4.40234-.8164-4.4375.22656-4.44141-1.51171-4.4375-1.02344-2.34766-1.3125-2.08984-4.01172-.98438-.42969-3.45312-.20703-.64063.20703-3.80078 2.1836"/><path fill="#00d4fc" fill-rule="evenodd" d="M197.26172 442.32813l-3.01953-1.94532 3.01953-1.76562 4.4375-1.25781 1.41016-1.41407 3.02734-1.59765 4.4375-1.51563v2.78125l-2.77344.33203 2.77344.52344 2.14453-.52344-2.14453-.33203v-2.78125l4.4414-.58984 4.4375 2.52344.8125 1.17968-.8125.85547L215.01563 438l-4.01953 2.38281 4.01953 2.40625 4.4375.5586 1.90235 1.47265-1.52344 4.4414-.3789.21876-4.4375.13281-.84766-.35156-1.6836-4.4414-1.91015-3.8086-4.4375.92187-4.4375.60938-4.4375-.21485"/><path fill="#00e8fc" fill-rule="evenodd" d="M201.69922 458.76172l-.63281-.625.6328-.66016 4.4375-.4336 3.87892 1.09376-3.87891.86719-4.4375-.2422"/><path fill="#50fcfc" fill-rule="evenodd" d="M206.13672 444.61719l-3.3086.20312 3.3086.96875.78516-.96875-.78516-.20312"/><path fill="#00c4fc" fill-rule="evenodd" d="M210.57422 436.46875l-2.77344-.52344 2.77344-.33203 2.14453.33203-2.14453.52344"/><path fill="#50fcfc" fill-rule="evenodd" d="M215.01563 440.35547l-.04688.02734.04688.02735 4.4375 1.21875 3.44921-1.2461-3.44922-1.5039v1.24609l.58985.25781-.58984.21485-.76954-.21485.76953-.25781v-1.2461l-4.4375 1.47657"/><path fill="#fff" fill-opacity="0" fill-rule="evenodd" d="M219.45313 440.125l-.76954.25781.76953.21485.58985-.21485-.58984-.25781m4.4375-9.96094l-1.47266 1.34375 1.01953 4.4375.45313.97656 4.4375 1.94922.49609-2.92578-.4961-1.83984-2.6289-2.59766-1.8086-1.34375"/><path fill="#50fcfc" fill-rule="evenodd" d="M223.89063 442.9961l-.32032 1.82421.32031 1.4375 1.89844-1.4375-1.89844-1.82422"/><path fill="#fff" fill-opacity="0" fill-rule="evenodd" d="M232.76563 439.86719l-2.96875.51562 2.96875.69922 4.4414.09766.55078-.79688-.55078-.28125-4.4414-.23437"/><path fill="#00d4fc" fill-rule="evenodd" d="M232.76563 436.52344l-.57813-.57813.57813-1.71875 1.125-2.71875 3.3164-2.625 4.4375 1.40625 3.95313-3.21875.48437-.1289v3.4375l-1.23828 1.1289-3.19922 3.38281-3.29297-3.3828-1.14453-.58985-.7461.58984-1.48046 4.4375 2.22656.91016 4.4375.0039 4.19531 3.52344.2422.08594.08593-.08594 1.78125-4.4375-.83984-4.4375-1.02735-1.1289v-3.4375l.16406.1289 4.0547 4.4375-1.03517 4.4375-1.63671 4.4375-1.54688 1.59766-4.4375-1.59766-4.4375-2.28125-4.4414-1.57812"/><path fill="#00c4fc" fill-rule="evenodd" d="M237.20703 436.85547l-2.22656-.91016 1.48047-4.4375.7461-.58984 1.14452.58984 3.29297 3.38281 3.19922-3.3828 1.23828-1.12891v3.8789l-1.59766 1.6875 1.59766 1.35938.54688-1.35938-.54688-1.6875v-3.8789l1.02734 1.1289.83985 4.4375-1.78125 4.4375-.08594.08594-.24219-.08594-4.1953-3.52344-4.4375-.0039"/><path fill="#00b8fc" fill-rule="evenodd" d="M246.08203 437.30469l-1.59766-1.35938 1.59766-1.6875.54688 1.6875-.54688 1.35938"/><path fill="#50fcfc" fill-rule="evenodd" d="M259.39844 445.8789l-1.875-1.05859 1.875-.98437 4.4375.42578.53125.5586-.53125.51562-4.4375.54297"/><path fill="#00e8fc" fill-rule="evenodd" d="M259.39844 423.78125l-.39453-1.15234.39453-.42188.85937.42188-.85937 1.15234"/><path fill="#50fcfc" fill-rule="evenodd" d="M272.0625 431.50781l-3.69531-4.4375 4.34375-3.53906 4.4414.26563 4.4375-.39454 1.625-.77343 2.8125-2.8125 2.28907-1.625 2.14843-2.98829 4.4375-.21484 3.1211 3.20313 1.32031.67187 4.4375-.01562 1.05469-.65625 3.38281-3.44141v1.90625l-1.51172 1.53516-2.92578 1.8164-4.4375.01563-3.61328-1.83203-.82813-.85157-1.8789.85157-2.5586 1.15234-4.24609 3.28516-.1914.11718-4.4375 2.07813-4.4375 1.20312-4.44141-.84765-2.3164 1.89062 2.3164 2.44531 4.4414-.96093 1.70704 2.95312 2.73046 2.59766 3.62891 1.83984.8086.6211 4.4375 1.63671 2.125-2.2578 2.02734-4.4375.28515-1.57423 4.44141-1.92187 4.4375 2.04687 3.0625-2.98828 1.375-2.01953 4.4375-.71875 1.60547-1.70312-.0664-4.4375-1.53907-1.33594-4.4375-.19922V414.75l4.4375.04688 3.91016 3.39453-.47657 4.4375-3.43359 3.63671-4.4375.32032-.32813.48437-4.10937 4.00781-4.4375.2461-.52344.1836.52344 1.86718.5039 2.57031-.5039.46875-.49219-.46875-3.94922-2.64844-.87109 2.64844-3.5664 3.78125-4.4375-.51172-4.26954-3.26953-.16797-.08594-4.4375-3.70312-4.4414-.1211-.64844-.52734"/><path fill="#00e8fc" fill-rule="evenodd" d="M272.71094 429.51563l-2.3164-2.44532 2.3164-1.89062 4.4414.84765 4.4375-1.20312 4.4375-2.07813.19141-.11718 4.2461-3.28516v4.88672l-4.4375 1.63281-3.88673 1.20703-.375 4.4375 4.26172 3.34766 4.4375.97265 3.34766-4.3203-1.375-4.4375-1.97266-2.83985v-4.88672l2.5586-1.15234 1.8789-.85157.82813.85157 3.61328 1.83203 4.4375-.01563v1.9336l-4.4375.01953-3.96484.66797 3.96484 1.30468 2.32422 3.13672 2.11328 1.28125 1.3164-1.28125 2.54298-4.4414-3.85938-.6875v-1.9336l2.92578-1.8164 1.51172-1.53516 4.4375.19922 1.53906 1.33594.0664 4.4375-1.60546 1.70312-4.4375.71875-1.375 2.01953-3.0625 2.98828-4.4375-2.04687-4.4414 1.92187-.28516 1.57422-2.02735 4.4375-2.125 2.25781-4.4375-1.63671-.80859-.6211-3.6289-1.83984-2.73048-2.59766-1.70703-2.95312-4.4414.96094"/><path fill="#50fcfc" fill-rule="evenodd" d="M277.15234 452.55078l-1.78906-3.28906 1.78906-2.95313.57813-1.48828 3.85937-3.91015v3.73828l-.17187.17187.17187.33594.30079-.33594-.30079-.17187v-3.73828l4.4375 1.91015 4.4375 1.80078.17188.19922-.17188.21094-4.4375 3.40625-.71484.82422-3.72266 2.34375-4.4375.94531"/><path fill="#00e8fc" fill-rule="evenodd" d="M281.58984 445.15625l-.17187-.33594.17187-.17187.30079.17187-.30079.33594"/><path fill="#00d4fc" fill-rule="evenodd" d="M286.02734 434.85547l-4.26171-3.34766.375-4.4375 3.88671-1.20703 4.4375-1.63281v3.66015l-4.4375.38672-2.64453 3.23047 2.64453 2.07813 4.4375 1.19922 2.53907-3.27735-2.53907-3.61719v-3.66015l1.97266 2.83984 1.375 4.4375-3.34766 4.32031-4.4375-.97265"/><path fill="#00c4fc" fill-rule="evenodd" d="M286.02734 433.58594l-2.64453-2.07813 2.64453-3.23047 4.4375-.38671v1.14843l-4.4375 1.21094-1.03125 1.25781 1.03125.8086 4.4375 1.42578 1.73438-2.23438-1.73438-2.46875v-1.14844l2.53907 3.6172-2.53907 3.27734-4.4375-1.19922"/><path fill="#00b8fc" fill-rule="evenodd" d="M286.02734 432.3164l-1.03125-.80859 1.03125-1.25781 4.4375-1.21094v1.14844l-3.37109 1.32031 3.3711 1.19531.92577-1.1953-.92578-1.32032v-1.14844l1.73438 2.46875-1.73438 2.23438-4.4375-1.42578"/><path fill="#00a8fc" fill-rule="evenodd" d="M290.46484 432.70313l-3.37109-1.19532 3.3711-1.32031v1.15234l-.4297.16797.4297.15235.12109-.15235-.1211-.16797v-1.15234l.92579 1.32031-.92579 1.19531"/><path fill="#009800" fill-rule="evenodd" d="M290.46484 431.66016l-.42968-.15235.42968-.16797.1211.16797-.1211.15235"/><path fill="#00d4fc" fill-rule="evenodd" d="M299.34375 423.9336l-3.96484-1.3047 3.96484-.66796 4.4375-.01953 3.85938.6875-2.54297 4.4414-1.31641 1.28125-2.11328-1.28125-2.32422-3.13672"/><path fill="#50fcfc" fill-rule="evenodd" d="M339.28906 422.3164l-2.84765-4.125 2.84765-1.98827 3.92188 1.98828-3.92188 4.125m4.4375 6.02343l-1.32031-1.26953 1.32031-2.72656 4.4375-.07813 2.67578 2.8047 1.76172 2.0078 4.4414-.90625v2.17188l-2.69921 1.16406-1.74219.69922-3.5586 3.73828 3.5586 3.28906 1.50781 1.14844 2.9336 1.94922 2.66797-1.94922.08984-4.4375-1.6289-4.4375-1.12891-1.16406v-2.17188l3.24219 3.33594.61718 4.4375.57813 3.3711 1.45312 1.0664-1.45312.92578-4.4375 2.57422-4.4414-1.92578-1.58594-1.57422-2.85157-2.39062-2.1914-2.04688-.08985-4.4375-2.15625-3.16797m4.4375-8.66015l-3.51562-1.48828 3.51562-1.22657 1.1875 1.22657-1.1875 1.48828"/><path fill="#00e8fc" fill-rule="evenodd" d="M352.60156 439.23438l-3.5586-3.28907 3.5586-3.73828 1.74219-.69922 2.69922-1.16406v3.70313l-4.4414 1.52734-.35157.3711.35156.32421 4.4414 2.67188.9297-2.9961-.9297-1.89844v-3.70312l1.12892 1.16406 1.6289 4.4375-.08984 4.4375-2.66797 1.94922-2.9336-1.94922-1.5078-1.14844"/><path fill="#00d4fc" fill-rule="evenodd" d="M352.60156 436.26953l-.35156-.32422.35156-.3711 4.4414-1.52733.9297 1.89843-.9297 2.9961-4.4414-2.67188"/><path fill="#50fcfc" fill-rule="evenodd" d="M357.04297 424.47266l-1.58203-1.84375 1.58203-1.5547 1.65625 1.5547-1.65625 1.84375m17.75 26.36328l-1.66406-1.57422 1.66406-1.52344 3.67187-2.91797.76954-1.13281 2.85937 1.13281-2.85938.96875-2.62109 3.47266-1.82031 1.57422m0 25.53906l-.29688-.48438.29688-.30078.30469.30079-.3047.48437m8.87892-12.5l-1.33985-1.30078 1.33985-1.51563 1.4375-2.92187 3-2.80469 2.43359-1.63281 2.0039-2.30469 4.4375-1.14844v1.69141l-3.0625 1.76172-1.375.875-4.4375 3.28906-.29296.27344-2.57422 4.4375 2.86719 2.09765 4.4375 1.29688 4.4375-.10938 4.4414-3.0703.2539-.21485 3.12891-4.4375-3.3828-4.26172-.2461-.17578-4.19531-1.76172v-1.6914l4.4414.625 4.21094 2.82812.22656.3789 3.24219 4.0586-3.24219 2.99219-.86719 1.4453-3.5703 3.04298-4.44142 1.08203-4.4375-.02344-4.4375-.41797-4.4375-2.38281"/><path fill="#00e8fc" fill-rule="evenodd" d="M388.10938 464.67188l-2.8672-2.09766 2.57423-4.4375.29296-.27344 4.4375-3.28906 1.375-.875 3.0625-1.76172v2.45703l-4.4375 3.3125-.5664.42969-3.4336 4.4375 4 2.21875 4.4375-.32813 2.60547-1.89062 1.59766-4.4375-4.20313-3.74219v-2.45703l4.19532 1.76172.2461.17578 3.3828 4.26172-3.1289 4.4375-.2539.21484-4.44142 3.07031-4.4375.10938-4.4375-1.29688"/><path fill="#00d4fc" fill-rule="evenodd" d="M392.54688 464.79297l-4-2.21875 3.43359-4.4375.5664-.42969 4.4375-3.3125v1.85938l-2.39453 1.8828-2.04296 2.19532-1.875 2.24219 1.875 1.04297 4.4375-.54688.68359-.4961 1.4336-4.4375-2.1172-1.8828v-1.85938l4.20313 3.74219-1.59766 4.4375-2.60546 1.89062-4.4375.32813"/><path fill="#00c4fc" fill-rule="evenodd" d="M392.54688 463.61719l-1.875-1.04297 1.875-2.24219 2.04296-2.19531 2.39454-1.88281v1.85937l-.02735.02344.02735.08594.02734-.08594-.02735-.02344v-1.85937l2.1172 1.8828-1.4336 4.4375-.6836.4961-4.4375.54688"/><path fill="#00b8fc" fill-rule="evenodd" d="M396.98438 458.22266l-.02735-.08594.02735-.02344.02734.02344-.02735.08594"/><g clip-path="url(#c)"><path fill="#50fcfc" fill-rule="evenodd" d="M467.9961 480.03906v.28906h-.26563l.26562-.28906"/></g><g clip-path="url(#d)"><path fill="#fff" fill-opacity="0" fill-rule="evenodd" d="M467.9961 311.67188H468v168.36718-168.36719h-.0039"/></g><path fill="#fff" fill-opacity="0" fill-rule="evenodd" d="M206.02734 437.6211l4.9961-3.02344-5.15625-8.51954-4.9961 3.02344 5.15625 8.51953"/><path fill-rule="evenodd" d="M204.8125 428.85547l.4375-.26172 3.25781 5.38672-.67187.40625-2.32422-3.83985-1.1875.71875-.28906-.47656.4453-.34375.1875-.17969.14845-.1953.10156-.22657.04297-.26953-.03125-.32422-.11719-.39453"/><path fill="#fff" fill-opacity="0" fill-rule="evenodd" d="M247.27734 453.8164l5.83594-.21093-.35937-9.95313-5.83985.21094.36328 9.95313"/><path fill-rule="evenodd" d="M250.48047 445.57031l.50781-.01953.22656 6.28906-.78515.03125-.16406-4.48828-1.38672.05078-.01953-.55468.55859-.08594.25-.0625.22266-.09766.19921-.14844.16797-.21875.1289-.29687.09376-.39844"/><g clip-path="url(#e)"><path fill="none" stroke="#000" stroke-linecap="round" stroke-linejoin="round" stroke-miterlimit="10" stroke-width=".5" d="M147.29297 479.10156l-6.58594 2.45703"/></g><g clip-path="url(#f)"><path fill="none" stroke="#000" stroke-linecap="round" stroke-linejoin="round" stroke-miterlimit="10" stroke-width=".5" d="M146.33594 479.45703l.91797.8164"/></g><g clip-path="url(#g)"><path fill="none" stroke="#000" stroke-linecap="round" stroke-linejoin="round" stroke-miterlimit="10" stroke-width=".5" d="M160.2461 478.39063l-5.86329 3.875"/></g><path fill="none" stroke="#000" stroke-linecap="round" stroke-linejoin="round" stroke-miterlimit="10" stroke-width=".5" d="M159.39453 478.95313l1.07813.58593"/><g clip-path="url(#h)"><path fill="none" stroke="#000" stroke-linecap="round" stroke-linejoin="round" stroke-miterlimit="10" stroke-width=".5" d="M172.65234 477.45313l-4.04297 5.75"/></g><path fill="none" stroke="#000" stroke-linecap="round" stroke-linejoin="round" stroke-miterlimit="10" stroke-width=".5" d="M172.0625 478.28906l1.21875.15235"/><g clip-path="url(#i)"><path fill="none" stroke="#000" stroke-linecap="round" stroke-linejoin="round" stroke-miterlimit="10" stroke-width=".5" d="M186.19531 477.6289l-4.5 5.39844"/></g><path fill="none" stroke="#000" stroke-linecap="round" stroke-linejoin="round" stroke-miterlimit="10" stroke-width=".5" d="M185.54297 478.41406l1.19922.2539"/><g clip-path="url(#j)"><path fill="none" stroke="#000" stroke-linecap="round" stroke-linejoin="round" stroke-miterlimit="10" stroke-width=".5" d="M199.25781 477.4414l-3.9961 5.77735"/></g><path fill="none" stroke="#000" stroke-linecap="round" stroke-linejoin="round" stroke-miterlimit="10" stroke-width=".5" d="M198.67969 478.28125l1.21484.14063"/><g clip-path="url(#k)"><path fill="none" stroke="#000" stroke-linecap="round" stroke-linejoin="round" stroke-miterlimit="10" stroke-width=".5" d="M213.77344 478.8711l-6.39453 2.91406"/></g><g clip-path="url(#l)"><path fill="none" stroke="#000" stroke-linecap="round" stroke-linejoin="round" stroke-miterlimit="10" stroke-width=".5" d="M212.84375 479.29688l.97266.74609"/></g><g clip-path="url(#m)"><path fill="none" stroke="#000" stroke-linecap="round" stroke-linejoin="round" stroke-miterlimit="10" stroke-width=".5" d="M227.38672 480.67969l-6.99219-.69922"/></g><g clip-path="url(#n)"><path fill="none" stroke="#000" stroke-linecap="round" stroke-linejoin="round" stroke-miterlimit="10" stroke-width=".5" d="M226.3711 480.57813l.46484 1.1328"/></g><g clip-path="url(#o)"><path fill="none" stroke="#000" stroke-linecap="round" stroke-linejoin="round" stroke-miterlimit="10" stroke-width=".5" d="M237.76172 483.79688l-1.11328-6.9375"/></g><g clip-path="url(#p)"><path fill="none" stroke="#000" stroke-linecap="round" stroke-linejoin="round" stroke-miterlimit="10" stroke-width=".5" d="M250.28125 483.83594l.48047-7.01172"/></g><g clip-path="url(#q)"><path fill="none" stroke="#000" stroke-linecap="round" stroke-linejoin="round" stroke-miterlimit="10" stroke-width=".5" d="M265.10938 483.60547l-2.54688-6.55078"/></g><g clip-path="url(#r)"><path fill="none" stroke="#000" stroke-linecap="round" stroke-linejoin="round" stroke-miterlimit="10" stroke-width=".5" d="M279.67969 482.76953l-5.05469-4.88281"/></g><g clip-path="url(#s)"><path fill="none" stroke="#000" stroke-linecap="round" stroke-linejoin="round" stroke-miterlimit="10" stroke-width=".5" d="M293.57813 481.96094l-6.22266-3.26563"/></g><g clip-path="url(#t)"><path fill="none" stroke="#000" stroke-linecap="round" stroke-linejoin="round" stroke-miterlimit="10" stroke-width=".5" d="M305.66797 483.29297l-3.77344-5.92969"/></g><g clip-path="url(#u)"><path fill="none" stroke="#000" stroke-linecap="round" stroke-linejoin="round" stroke-miterlimit="10" stroke-width=".5" d="M318.61719 483.4961l-3.04297-6.33594"/></g><g clip-path="url(#v)"><path fill="none" stroke="#000" stroke-linecap="round" stroke-linejoin="round" stroke-miterlimit="10" stroke-width=".5" d="M328.42188 483.22266l3.98046-5.78907"/></g><g clip-path="url(#w)"><path fill="none" stroke="#000" stroke-linecap="round" stroke-linejoin="round" stroke-miterlimit="10" stroke-width=".5" d="M341.6836 483.1875l4.08593-5.71875"/></g><g clip-path="url(#x)"><path fill="none" stroke="#000" stroke-linecap="round" stroke-linejoin="round" stroke-miterlimit="10" stroke-width=".5" d="M354.60156 482.85547l4.8789-5.05469"/></g><g clip-path="url(#y)"><path fill="none" stroke="#000" stroke-linecap="round" stroke-linejoin="round" stroke-miterlimit="10" stroke-width=".5" d="M368.25781 483.14453l4.19922-5.63281"/></g><g clip-path="url(#z)"><path fill="none" stroke="#000" stroke-linecap="round" stroke-linejoin="round" stroke-miterlimit="10" stroke-width=".5" d="M382.03906 483.4414l3.26563-6.22265"/></g><g clip-path="url(#A)"><path fill="none" stroke="#000" stroke-linecap="round" stroke-linejoin="round" stroke-miterlimit="10" stroke-width=".5" d="M394.89453 483.15234l4.1836-5.64843"/></g><g clip-path="url(#B)"><path fill="none" stroke="#000" stroke-linecap="round" stroke-linejoin="round" stroke-miterlimit="10" stroke-width=".5" d="M410.91406 483.78906l-1.22656-6.91797"/></g><g clip-path="url(#C)"><path fill="none" stroke="#000" stroke-linecap="round" stroke-linejoin="round" stroke-miterlimit="10" stroke-width=".5" d="M421.46875 483.10938l4.29688-5.5586"/></g><g clip-path="url(#D)"><path fill="none" stroke="#000" stroke-linecap="round" stroke-linejoin="round" stroke-miterlimit="10" stroke-width=".5" d="M435.20313 477.26953l3.45703 6.11719"/></g><path fill="none" stroke="#000" stroke-linecap="round" stroke-linejoin="round" stroke-miterlimit="10" stroke-width=".5" d="M435.70703 478.16016l.66016-1.03516"/><g clip-path="url(#E)"><path fill="none" stroke="#000" stroke-linecap="round" stroke-linejoin="round" stroke-miterlimit="10" stroke-width=".5" d="M446.96484 479.07422l6.5625 2.51172"/></g><path fill="none" stroke="#000" stroke-linecap="round" stroke-linejoin="round" stroke-miterlimit="10" stroke-width=".5" d="M447.91797 479.4375l-.14844-1.21484"/><g clip-path="url(#F)"><path fill="none" stroke="#000" stroke-linecap="round" stroke-linejoin="round" stroke-miterlimit="10" stroke-width=".5" d="M461.98828 477.1875l3.14844 6.28125"/></g><path fill="none" stroke="#000" stroke-linecap="round" stroke-linejoin="round" stroke-miterlimit="10" stroke-width=".5" d="M462.44531 478.10156l.71094-1"/><g clip-path="url(#G)"><path fill="none" stroke="#000" stroke-linecap="round" stroke-linejoin="round" stroke-miterlimit="10" stroke-width=".5" d="M147.10938 465.3789l-6.21875 3.26954"/></g><path fill="none" stroke="#000" stroke-linecap="round" stroke-linejoin="round" stroke-miterlimit="10" stroke-width=".5" d="M146.20313 465.85547l1.01562.6875m12.91016-1.63281L154.5 469.11719m4.8125-3.59375l1.10938.52343m10.99609-2.45703l-1.57422 6.84766m1.34375-5.85156l1.1836-.32031m11.42968-.76172l.28906 7.01953m-.24609-6l1.0586-.61719m12.01171-.39062l.6914 6.99609m-.58983-5.97656l1.02343-.6797m12.78516-.34765l-.5 7.01172m.42969-5.99219l1.12109-.49609m13.8711 0l-3.71094 5.96484m18.64843-2.47265l-6.95312-1.01953m17.45312 3.96093l-1.32422-6.90234m13.80079 6.96094l.35156-7.01953m-.30078 5.99609l-1.10938.52344m16.64063-.1875l-4.1836-5.64453m3.57422 4.82421l-.52734 1.10938m15.8125-2.44922l-6.90234-1.32422m19.73828 2.53516l-5.94532-3.7461m18.46094 4.63282l-4.34765-5.51953m3.71484 4.71484l-.49219 1.125m14.79297-.64063l-5.05469-4.8789m15.79297 5.95312l.10156-7.02734m-.08984 6.0039l-1.08984.5625m11.21484-1.66796l6.45703-2.76563M354.75 467.9922l-.95312-.76563m13.1289.54297l6.86328-1.51172m-5.86718 1.29297l-.79297-.9336m13.48437 2.125l6.11719-3.45702m-5.22656 2.95703l-1.03516-.66016m13.0039-.63672l7.02735.13672m-7.02734-.13672l-1.10938-2.1875m14.66406 3.52735l6.55079-2.54297m-5.59766 2.17187l-.92969-.80078m14.01172 2.3125l5.10547-4.82422m-4.36328 4.125l-1.16016-.39453m12.89844-2.25l6.77734 1.86328m6.45313-.41015l6.94922-1.04297m-5.94141.89062l-.72656-.98437m13.49219 2.41797l6.03125-3.60547m-6.03125 3.60547l-2.10157-1.26563"/><g clip-path="url(#H)"><path fill="none" stroke="#000" stroke-linecap="round" stroke-linejoin="round" stroke-miterlimit="10" stroke-width=".5" d="M146.64844 451.38672l-5.29688 4.6211"/></g><path fill="none" stroke="#000" stroke-linecap="round" stroke-linejoin="round" stroke-miterlimit="10" stroke-width=".5" d="M145.875 452.0586l1.14844.4375m12.57422-1.46876l-4.5625 5.34375m3.89843-4.5664l1.19532.26562m11.13672-1.82812l-1.27344 6.91015m1.08984-5.90234l1.16797-.3711m10.20703-.36327l2.97656 6.36718m-2.54297-5.4414l.73829-.98047m10.91406 1.00781l5.4336 4.46094m7.8828-4.45703l5.4336 4.45312m7.89453-4.46875l5.40625 4.48438m7.21875-3.15235l6.78516 1.82032m-5.79688-1.5547l-.27734-1.1953m12.66015.74218l6.67578 2.1914m-5.70703-1.87108l-.20703-1.21094m13.97266 4.92969l3.83594-5.88672m8.5 4.93359l5.79296-3.97656m11.46094 5.34375l-2.08594-6.71094m10.9297 2.58594l6.85546 1.53906m-5.85547-1.3164l-.32422-1.1836m17.08985 1.73047l-.01953-.19922-.0586-.1914-.09375-.1797-.45703-.375-.1914-.05859-.19922-.01953-.20313.01953-.1914.0586-.45704.375-.09375.17968-.05859.19141-.01953.19922.01953.19922.0586.1914.09374.17578.45704.37891.1914.0586.20313.01953.19921-.01953.19141-.0586.45703-.3789.09375-.17579.0586-.1914.01953-.19922m15.01953 2.21484l-5.45313-4.42969m16.07032 5.72657l-.0547-7.02735m9.89845 2.82422l6.88671 1.38281m-5.88671-1.18359l-.35157-1.17187m14.32032-1.35938l3.57812 6.04688m-3.0586-5.16797l.64063-1.04688m10.79688 1.63281l6.29687 3.1172m6.73438-2.32032l6.86328 1.51953m-5.86328-1.29687l-.32813-1.1836m12.60938 2.29688l6.9336-1.14844m6.95702 2.57422l5.77735-4m-4.9375 3.41797l-1.08985-.5625m13.4336.9375l6.04296-3.58594m-6.04296 3.58594l-2.09766-1.27735m14.9961-1.23437l6.8789 1.4375m-6.8789-1.4375l-.6875-2.35547m14.01952 2.27734l6.84375 1.59375m-6.84375-1.59375l-.6289-2.37109"/><g clip-path="url(#I)"><path fill="none" stroke="#000" stroke-linecap="round" stroke-linejoin="round" stroke-miterlimit="10" stroke-width=".5" d="M146.61328 438.03516l-5.22656 4.69922"/></g><path fill="none" stroke="#000" stroke-linecap="round" stroke-linejoin="round" stroke-miterlimit="10" stroke-width=".5" d="M146.61328 438.03516l2.30469.83984m10.25-1.47656l-3.70703 5.96875m3.70703-5.96875l2.44922.16406m9.76172-.61328l-1.4961 6.86719m1.27735-5.8672l1.17968-.33202m11.85938-.73828l-.50781 7.0078m10.32422-2.15234l6.48828-2.70312m7.5625 3.8125l5.01562-4.92188m11.83203 2.46094l-.01953-.19922-.0586-.1914-.09374-.17578-.46094-.37891-.1914-.0586-.19923-.01953-.19921.01954-.19141.05859-.46094.3789-.09375.17579-.0586.1914-.01952.19922.01953.19922.0586.1914.09374.1797.46094.375.1914.05859.19923.01953.19921-.01953.19141-.0586.46094-.375.09375-.17968.0586-.1914.01952-.19923m11.96875-3.4961l.64844 6.9961m9.73828-4.83203l6.5 2.66797m6.61719-.66797l6.89844-1.33594m7.17187 2.92188l5.39063-4.50781m10.49609 5.76562l.2461-7.02344m14.7578 6.65625l-3.1328-6.28906m13.57421 6.40625l2.61328-6.52344m12.4961 6.7422l-.97266-6.96095m.82813 5.94922l-.9922.71875m13.89845.32422l.1328-7.02344m12.58595.0625l1.32421 6.90235m11.10938-6.60938l3.08594 6.3125m-3.08594-6.3125l1.4414-1.98437m10.22266 3.67578l6.38672 2.92969m-6.38672-2.9297l-.14062-2.44921m14.07812 6.3086l5.14453-4.78907m-5.14453 4.78906l-2.32031-.80078m15.61719.77735l5.1836-4.7422m7.96093 4.54688l5.51953-4.35156m-4.71484 3.71875l-1.1211-.49219m13.90235 1.4297l4.98046-4.95704m-4.2578 4.23437l-1.17188-.35937m13.07031-2.8789l6.3711 2.96484m-5.44532-2.53516l-.0664-1.22656m12.22656 3.10547l6.82812-1.65235m-5.83594 1.41016l-.8164-.91797"/><g clip-path="url(#J)"><path fill="none" stroke="#000" stroke-linecap="round" stroke-linejoin="round" stroke-miterlimit="10" stroke-width=".5" d="M146.70313 424.82422l-5.40625 4.48828"/></g><path fill="none" stroke="#000" stroke-linecap="round" stroke-linejoin="round" stroke-miterlimit="10" stroke-width=".5" d="M146.70313 424.82422l2.26953.9336m-3.0547-.28126l1.13282.46875m12.48828-1.59375l-4.44922 5.4375m4.44922-5.4375l2.40625.48047m-3.05078.3086l1.20313.24218m12.46093-1.25l-3.85547 5.8711m3.85547-5.8711l2.44532.22656m11.05468-.09765l-4.22656 5.61328m3.61328-4.79688l1.21094.19141m12.89063-.86719l-4.57422 5.33204m3.91015-4.5586l1.19531.26953m12.54688-1.23047l-4.10156 5.70704m3.50781-4.875l1.21484.16406m9.46094-1.44922l2.36719 6.61328m-2.02344-5.65234l.82422-.90625m11.03125.59375l4.59766 5.3164m-3.9297-4.54297l.44532-1.14453m11.10156 2.14063l6.79688 1.77734m6.73047.58985l6.375-2.95704m-5.44922 2.52735l-.97656-.74219m13.11328.41016l6.8789-1.4336m-5.8789 1.22266l-.78516-.9414m13.02734.3828l7.02735.10547m6.41406.88672l6.77344-1.8789m-5.78906 1.60547l-.84375-.89063m14.26562-2.4375l4.58984 5.32422m-3.92187-4.55078l.44531-1.14063m17.95703 2.42969l-6.92187 1.19922m5.91797-1.02344l.75.96875m13.2461-2.1289l-6.27345 3.16796m5.35938-2.70703l1.0039.70703m13.3711-.83203l-6.5664 2.4961m5.61327-2.13282l.92188.8047m7.60156-2.42579l4.92578 5.01172m8.66797-5.25781l4.36328 5.5039m-4.36328-5.5039l.98438-2.25m-.34766 3.05078l.49219-1.125m14.44531-.4375l-.15234 7.02734m.15234-7.02734l2.1875-1.10547m14.01562 2.73437l-5.92968 3.76953m5.0664-3.22265l1.07032.60547m13.0625-1.22266l-5.83594 3.91016m5.83594-3.91016l2.16406 1.16016m10.88281-1.51172l-5.30078 4.61328m5.30078-4.61328l2.29297.8789m10-1.6875l-3.2539 6.23047m3.2539-6.23047l2.45312-.01562m6.33985 5.125l5.78906-3.98828m-4.94531 3.40625l-1.08985-.5664"/><g clip-path="url(#K)"><path fill="none" stroke="#000" stroke-linecap="round" stroke-linejoin="round" stroke-miterlimit="10" stroke-width=".5" d="M146.63281 411.42578l-5.26562 4.65235"/></g><path fill="none" stroke="#000" stroke-linecap="round" stroke-linejoin="round" stroke-miterlimit="10" stroke-width=".5" d="M146.63281 411.42578l2.29688.86328m-3.0625-.1836l1.14844.4297m12.66015-1.38282l-4.72266 5.20313m4.72266-5.20313l2.3789.60157m-3.0664.15234l2.3789.60547m11.70313-1.28516l-4.8789 5.05469m4.8789-5.05469l2.35938.67188m-3.07031.0625l1.17968.33594m13.15235-.73438l-5.4922 4.38281m5.4922-4.38281l2.25.97266m11.67968.19922l-6.72265 2.03906m5.7461-1.74219l.86718.86719m13.45312-1.0664l-6.78125 1.84374m13.19922-.71875l7.01563-.40625m9.41015 3.69531l.79297-6.98437m-.67578 5.96875l-1.14062.44922m14.51172.58203l.44921-7.01563m-.3828 5.9922l-1.1211.5078m15.51953.39844l-1.85156-6.78125m1.58203 5.79297l-.89453.83984m10.63671-1.28125l5.83204-3.92187m-4.98438 3.35156L274 414.56641m13.16797.39843l6.59765-2.42187m10.26172 4.71484l-.49218-7.00781m14.05859 6.98047l-.9961-6.95703m.85157 5.94531l-.99219.72266m14.21875.3164l-.53125-7.00781m17.03516 4.15625l-6.90625-1.30469m19.1836 3.20313l-4.83204-5.10156m4.1289 4.35937l-.39062 1.16406m15.30078-1.78906l-6.61719-2.36719m17.23829-2.27734l-1.22657 6.92187m1.04688-5.91406l1.16797-.3789m10.63281-.51172l2.16016 6.6875m-2.16016-6.6875l1.70703-1.76172m13.5664 1.70312l-1.7539 6.80469m1.7539-6.80469l2.38282-.57422m10.88281.5625l-1.65625 6.82813m1.65625-6.82813l2.375-.60937m-2.61719 1.60156l1.1875-.30469m13.52344-.17578l-3.96484 5.80469m3.96484-5.80469l2.4375.27344m11.27344.04297l-4.7539 5.17187m4.7539-5.17187l2.375.61719m7.58984-1.41016l1.94141 6.7539m-1.9414-6.7539l1.76562-1.70312"/><g clip-path="url(#L)"><path fill="none" stroke="#000" stroke-linecap="round" stroke-linejoin="round" stroke-miterlimit="10" stroke-width=".5" d="M146.29688 397.77734l-4.59375 5.32032"/></g><path fill="none" stroke="#000" stroke-linecap="round" stroke-linejoin="round" stroke-miterlimit="10" stroke-width=".5" d="M146.29688 397.77734l2.39062.54688m-3.0586.23047l1.19532.26953m13.01172-.83203l-5.04297 4.89062m5.04297-4.89062l2.33594.7539m-3.07032-.04296l1.16797.3789m13.21484-.6914l-5.71093 4.09765m5.71094-4.09765l2.19921 1.08984m-3.02734-.4961l1.09766.54688m12.98828-1.21875l-5.59375 4.25m5.59375-4.25l2.23047 1.03125m-3.04297-.41016l1.11328.51172m13.71094.63281l-6.98828.71875m6.98828-.71875l1.36718 2.03907m10.58985 1.10937l-4.27344-5.57812m3.65234 4.76562l-.5078 1.11719m15.5625-4.42188l-6.50782 2.65625m6.50781-2.65625l1.88281 1.57032m11.22657-1.98438l-6.09766 3.48828m6.09766-3.48828l2.07812 1.3086m11.51172-.70704l-6.64453 2.28125m6.64453-2.28125l1.79297 1.67579m11.21484-2.33594l-6.03125 3.60156m5.15625-3.07812l1.04688.63671m13.53906 1.47266l-6.82422-1.66406m5.83203 1.42187l.30469 1.19141m13.92578-.67578l-6.67187-2.21094m5.70312 1.89063l.20313 1.20703m14.17968-2.73047l-6.86718 1.48047m5.86718-1.26563l.79297.9375m13.59375-.64453l-7.01172.46094m15.85547 3.14844l1.92969-6.75782m14.35938 6.26563l-4.01563-5.76953m3.42969 4.92969l-.5586 1.08984m15.95313-3.41406l-7.0039.55468m5.98437-.47265l.66015 1.03515m9.98438 2.66797l.3789-7.01562m-.32421 5.9961l-1.11328.51562m15.83593-6.27735l-2.54687 6.55078m2.17578-5.59765l1.21875-.14453m11.13281-1.04688l.1211 7.02735m-.10547-6.00391l1.07422-.59766m12.30468-.42578l-.03906 7.02735m.03516-6.00782l1.08593-.5664m13.83204-.0586l-3.23829 6.23438m3.23829-6.23438l2.45703-.02344m-2.92578.9297l1.22656-.01173m11.35156-1.26562l-.82422 6.97656m.82422-6.97656l2.28906-.89063m13.53516 2.4297l-5.84375 3.90233m5.84375-3.90234l2.16016 1.16016m9.85156-2.32813l-3.23438 6.23828m3.23438-6.23828l2.45312-.02734"/><g clip-path="url(#M)"><path fill="none" stroke="#000" stroke-linecap="round" stroke-linejoin="round" stroke-miterlimit="10" stroke-width=".5" d="M145.44922 383.92188l-2.89844 6.40234"/></g><path fill="none" stroke="#000" stroke-linecap="round" stroke-linejoin="round" stroke-miterlimit="10" stroke-width=".5" d="M145.44922 383.92188l2.44922-.15625m11.58594.59375l-4.33985 5.52734m4.33984-5.52735l2.41797.4336m11.30078-.0625l-5.14453 4.78906m5.14453-4.78906l2.31641.80078m-3.0664-.10547l1.16015.39844m11.10938-2.1289l-1.5547 6.85546m1.5547-6.85547l2.36718-.64062m-2.59375 1.64062l1.1836-.32422m11.48437-.76171l.1914 7.02734m-.16405-6.0039l1.0664-.60548m15.8125 2.7422l-6.99219.70702m6.9922-.70703l1.36327 2.03906m11.9375-2.15234l-6.96484.9336m6.96484-.9336l1.4297 1.99219m11.54296-3.10156l-6.27734 3.15234m5.36328-2.69531l1.0039.71093m13.33985-.91406l-6.50781 2.64453m6.5078-2.64453l1.88673 1.57031m11.5703-1.14843l-6.78905 1.80078m6.78906-1.80078l1.67187 1.79687m11.39844-2.44922L274 388.6797m6.30078-3.10938L282.29297 387m11.2461-1.58203l-6.14454 3.41015m6.14453-3.41015l2.0586 1.33984m11.11718-1.5664l-5.87109 3.86328m5.8711-3.86328l2.15624 1.17968m9.71875-2.42968l-2.98828 6.36328m2.98828-6.36328l2.44922-.1211m11.53516.53516l-4.32422 5.53515m3.69531-4.73046l1.20703.21093m14.05079 1.25391l-6.95704.9961m5.94532-.85157l.72265.99219m8.13672 2.25781l3.98047-5.79297m-3.40234 4.94922l-1.21875-.14062m19.45312-1.73047l-7.01562-.36328m5.99609.30859l.51953 1.11328m12.65625-3.85547l-4.69531 5.23047m4.69531-5.23047l2.3789.58985m10.53516-.89844l-3.89453 5.84765m3.89453-5.84765l2.44141.23828m10.60938-.39844l-3.3672 6.16797m3.3672-6.16797l2.45312.02735m-2.9414.87109l1.22656.01172m11.92187-1.1875l-2.05469 6.72265m2.0547-6.72265l2.41015-.46485m10.3086.33985l-.86329 6.97265m.86328-6.97265l2.28906-.8789m11.53516.98046l-1.8789 6.76953m1.8789-6.76953l2.39453-.53125m11.3125.66406l-2.66406 6.50391m2.27734-5.5586l1.21875-.12109"/><g clip-path="url(#N)"><path fill="none" stroke="#000" stroke-linecap="round" stroke-linejoin="round" stroke-miterlimit="10" stroke-width=".5" d="M143.46875 370.33594l1.0625 6.94531"/></g><g clip-path="url(#O)"><path fill="none" stroke="#000" stroke-linecap="round" stroke-linejoin="round" stroke-miterlimit="10" stroke-width=".5" d="M143.625 371.34375l.98438-.73047"/></g><path fill="none" stroke="#000" stroke-linecap="round" stroke-linejoin="round" stroke-miterlimit="10" stroke-width=".5" d="M157.98438 370.35938l-1.33985 6.89843m1.14453-5.89453l1.17188-.35937m14.07422.24218l-4.8125 5.1211m4.8125-5.1211l2.36718.64454m8.98828-1.56641l-.89062 6.96875m.89063-6.96875l2.29296-.8711m11.34375.92579l-1.53515 6.85937m1.53515-6.85937l2.3672-.64844m10.23046.5664l-.10156 7.02344m.08594-6.0039l1.09375-.5586m12.5703-.4414l-.76562 6.98437m.65235-5.96875l1.14062-.45312m14.82031.96875l-5.83203 3.92187m4.98438-3.35156l1.08203.57812m12.33594-1.94921l-4.33985 5.52343m3.70703-4.72265l1.20703.21875m11.34375-1.6836l-1.55078 6.85156m1.32813-5.85546l1.1836-.32422m14.77734 1.29297l-6.39454 2.92187m5.46485-2.4961l.97265.7461m13.57422.6211l-6.99609-.66797m6.9961.66796l.9375 2.26954m12.32812-3.26954l-6.89844 1.33204m5.89453-1.13672l.76953.95312m12.58594-2.96484l-4.96875 4.96875m4.24219-4.2461l1.17578.35938m10.85937-2.07813l-.96093 6.96094M347.14453 373l-6.83984 1.61719m5.84765-1.38281l.8086.92187m7.96484-3.15234l4.23047 5.60937m-4.23047-5.60937l1.03516-2.22657m17.80078 4.16016l-6.8086 1.74219m5.81641-1.48828l.82813.90625m13.21484-1.85938l-6.28516 3.14063m5.3711-2.6836l1 .71094m12.16406-2.4336l-4.15234 5.67188m4.15234-5.67187l2.42578.35156m11.02734-.2461l-4.42968 5.45704m4.42968-5.45704l2.40625.47266m-3.05078.32422l1.20313.23438m12.76172-1.02344l-4.4414 5.44531m4.4414-5.44531l2.41015.47656m-3.05468.3164l1.20312.23829m11.95313-1.52344l-2.83204 6.42969m2.83204-6.42969l2.4453-.1836m9.96095-.07812l-1.01563 6.95313m1.01563-6.95313l2.3125-.82812m-2.46094 1.83984l1.15625-.41406m11.6914-.63281l.21485 7.02343m-.1836-6.0039l1.06641-.60547"/><g clip-path="url(#P)"><path fill="none" stroke="#000" stroke-linecap="round" stroke-linejoin="round" stroke-miterlimit="10" stroke-width=".5" d="M141.00781 358.65234l5.98438 3.6797"/></g><path fill="none" stroke="#000" stroke-linecap="round" stroke-linejoin="round" stroke-miterlimit="10" stroke-width=".5" d="M154.33984 358.6211l5.94922 3.74218m-5.08203-3.19922l.08984-1.22265m18.01172.27734l-5.35547 4.55078m4.57422-3.89062l1.14063.45312m10.48437-2.34765L183.73437 364m.35938-5.99219l1.11719-.51172M197.64454 357l-.76563 6.98438m.65234-5.96875l1.14063-.45313m11.58593-.57031l.63281 7m-.53906-5.98047l1.02735-.67188m12.51172-.35937v7.02734m0-6.0039l1.08203-.57813m12.42578-.4414L237.01172 364m.38672-7.01563l2.22656-1.03125m11.96094 1.19141l-2.1289 6.69531m2.1289-6.6953L254 356.70311m9.89063.27735l-.10938 7.02734m.10938-7.02734l2.18359-1.11719m11.75 1.1836l-1.34766 6.89453m1.34766-6.89454l2.34765-.71484m10.3125.64844l-.03906 7.02734m.03906-7.02734l2.17188-1.14063m-2.17578 2.16407l1.08594-.57032m13.93359-.0039l-3.4414 6.125m3.4414-6.125l2.45313.05469m9.6953-.46094l-1.10546 6.9414m1.10547-6.9414l2.32031-.79688M330.03906 357l.74219 6.98828M330.03906 357l2.03516-1.375m8.72656 2.91797l5.84766 3.89844m-4.9961-3.33204l.1211-1.21875m13.61328 5.70313l3.3125-6.19922m-2.83203 5.29688l-1.22656-.00391m12.21875-2.52734l6.99609.66406m-5.98047-.5664l-.46875-1.13282m19.5625.14844l-6.59375 2.4375m19.47656-3.25l-5.73047 4.0625m5.73047-4.0625l2.19531 1.10156m11.01563-1.24219l-5.52344 4.34375m5.52344-4.34375l2.2461.99219m10.3203-1.69922l-4.02734 5.75781m4.02735-5.7578l2.4375.29687m-3.02344.54296l1.21875.14844m12.38672-1.17578l-3.4336 6.13281m3.4336-6.1328l2.45312.05468m-2.95312.83984l1.22656.02344m11.8125-1.23438l-1.88281 6.76954m1.88281-6.76954l2.39453-.53125m9.9336.40235l.09375 7.02734m-.09375-7.02734l2.14843-1.17969"/><g clip-path="url(#Q)"><path fill="none" stroke="#000" stroke-linecap="round" stroke-linejoin="round" stroke-miterlimit="10" stroke-width=".5" d="M142.49219 344.0039l3.01562 6.34766"/></g><path fill="none" stroke="#000" stroke-linecap="round" stroke-linejoin="round" stroke-miterlimit="10" stroke-width=".5" d="M154.0039 345.9961l6.6211 2.36327m-5.65625-2.01953l-.17969-1.21093m19.35156 1.89062l-7.01953.3164m5.9961-.26952l.625 1.05468m12.48828-3.61328l-4.57031 5.33985m3.90625-4.5625l1.1953.26562m11.625-1.69922l-2.2539 6.65625m1.92578-5.6875l1.21094-.19922m11.69922-.93359l-.78516 6.98047m.67188-5.96485l1.14062-.45312m13.0547-.38672l-2.32423 6.6289m1.98828-5.66406l1.21094-.1875m12.71875-.66796l-2.8789 6.41015m2.46093-5.47656l1.22266-.08203m12.4961-.85938l-2.84766 6.42579m2.84765-6.42579l2.44531-.17578m9.60157-.1211l-.3125 7.01954m.3125-7.01953l2.21484-1.05469m10.84766 1.05078l.1914 7.02735m-.16406-6.00391l1.0664-.60547m11.0625-.1836l2.51173 6.5625m-2.51172-6.5625l1.60937-1.85156m11.72657 1.84375l2.46875 6.57813m-2.46875-6.57813l1.62109-1.84375m11.5 1.92188l2.85547 6.42188m-2.85547-6.42188l1.51172-1.9336m11.72265 1.96876l3.01563 6.34765m-3.01563-6.34765l1.46485-1.96875m10.58203 2.99218l5.55469 4.30079m-5.5547-4.30079l.41407-2.41796m14.83203 1.16015l1.6914 6.82031m-1.6914-6.8203l1.82422-1.64063m9.64844 2.78515l5.375 4.52735m-4.59375-3.8672l.25781-1.19921m11.65235 1.6289l6.625 2.34766m-5.66016-2.00781l-.17969-1.21094m19.28516 2.74219l-6.88672-1.39453m5.88672 1.1914l.34765 1.17579m13.91016-2.60938l-6.77344 1.8789m5.78907-1.60546l.84375.89062m13.08984-2.01562l-6.04297 3.58594m6.04297-3.58594l2.09766 1.27344m10.49609-2.14063l-4.59766 5.3164m4.59766-5.3164l2.39062.54688m11.1172-.36329l-4.98438 4.94922m4.26172-4.23046l1.17187.36328m12.94531-1.00391l-5.14062 4.79297"/><g clip-path="url(#R)"><path fill="none" stroke="#000" stroke-linecap="round" stroke-linejoin="round" stroke-miterlimit="10" stroke-width=".5" d="M466.13281 344.78125l2.32031.80078"/></g><g clip-path="url(#S)"><path fill="none" stroke="#000" stroke-linecap="round" stroke-linejoin="round" stroke-miterlimit="10" stroke-width=".5" d="M146.22656 331.14453l-4.45312 5.4375"/></g><path fill="none" stroke="#000" stroke-linecap="round" stroke-linejoin="round" stroke-miterlimit="10" stroke-width=".5" d="M146.22656 331.14453l2.40625.48047m10.8711-.51172l-4.375 5.5m3.73828-4.69922l1.20312.22266m14.07422 1.76562l-7.02734-.07812m7.02734.07812l1.125 2.1797m11.0039-4.85157l-4.65624 5.26562m3.97656-4.5l1.19531.28516m13.8164.50781l-6.6914 2.14453m5.71875-1.83203l.8789.85547m13.07032-1.91015l-6.01562 3.6328m5.14062-3.10156l1.05469.62891m13.01172-1.35156l-5.76563 4.01562m4.92578-3.43359l1.09375.5625m12.54688-1.73047l-4.73828 5.1875m4.05078-4.4336l1.1875.3047m7.54297-.44141l5.8086 3.95312m-4.96485-3.3789l.13281-1.21875m12.57422.33594l5.33594 4.5703m-4.5586-3.90624l.26563-1.19922m11.77734 1.28906l6.32422 3.0625m-6.32422-3.0625l-.09375-2.45312m13.2539 2.82421l6.63282 2.32032m-6.63281-2.32031l-.3711-2.42579m13.82813 2.07813l6.35156 3.01172m-6.35156-3.01172l-.11328-2.44922m13.41797 2.47266l6.37109 2.96484m-6.3711-2.96484l-.1289-2.44922m13.39844 2.55078l6.46093 2.76562m-6.46093-2.76562l-.20703-2.44531m13.4375 2.66015l6.6289 2.33594m-6.6289-2.33594l-.3672-2.42578m13.59376 2.72656l6.8086 1.73438M354.6289 333.25l-.29297-1.19531m12.59765 1.01172l6.84375 1.59375m-6.84375-1.59375l-.6289-2.3711m14.46484 5.14844l5.80469-3.96094m-5.80469 3.96094l-2.17187-1.14063m3.01562.5625l-1.08594-.5703m13.69922 1.33984l5.51953-4.34375m-5.51953 4.34375l-2.2461-.98829m18.76954 2.30079l-.89844-6.96875m.76563 5.95312l-1 .71094m17.3789-2.21485l-6.7578-1.92968m6.7578 1.92969l.51172 2.39843m12.91797-3.73047l-6.98828.73438m6.98828-.73438l1.3711 2.03125m11.4453-3.49609l-5.99218 3.66406m5.99219-3.66406l2.11328 1.2461m11.3125-1.0547l-6.21094 3.28126"/><g clip-path="url(#T)"><path fill="none" stroke="#000" stroke-linecap="round" stroke-linejoin="round" stroke-miterlimit="10" stroke-width=".5" d="M466.66797 332.22266l2.03125 1.375"/></g><g clip-path="url(#U)"><path fill="none" stroke="#000" stroke-linecap="round" stroke-linejoin="round" stroke-miterlimit="10" stroke-width=".5" d="M146.79688 318.42188l-5.59375 4.25"/></g><path fill="none" stroke="#000" stroke-linecap="round" stroke-linejoin="round" stroke-miterlimit="10" stroke-width=".5" d="M146.79688 318.42188l2.23046 1.03125m-3.04297-.41016l1.11329.51172m13.16015-.92969l-5.88281 3.84375m5.88281-3.84375l2.14844 1.1875m-3.0039-.625l1.07421.58984m13.01172-1.27343l-5.71484 4.08984m5.71484-4.08984l2.19531 1.08984m-3.02734-.4961l1.09766.54688m13.01172-1.1914l-5.64063 4.1914m5.64063-4.1914l2.21484 1.05078m10.44531-1.72266l-4.32812 5.53516m4.32812-5.53516l2.41406.42578m11.1172-.24219l-4.76173 5.16797m4.0664-4.41797l1.1875.3125m11.82032-1.71093l-2.75781 6.46093m2.75781-6.46093l2.44531-.20704m9.64844-.0703l-.3164 7.01952m.3164-7.01953l2.21875-1.05469m9.71875 1.26954l2.4414 6.58984m-2.4414-6.58984l1.6289-1.83204m10.94532 2.21094l3.92188 5.83203m-3.92188-5.83203l1.15625-2.16406m11.8711 2.3789l4.49609 5.40235m-4.4961-5.40234l.9297-2.27344m11.96483 2.6875l5.33594 4.57422m-5.33594-4.57422l.53516-2.39453m12.5625 2.67578l5.77344 4.00781m-5.77344-4.00781l.28906-2.4336m12.9375 2.56641l5.94922 3.7461m-5.94922-3.7461l.1797-2.44531m12.67577 3.57031l6.86719 1.4961m-6.86719-1.4961l-.66015-2.36328m1.66015 2.57813l-.33203-1.1797m12.57031 1.5586l7.01954.3086m-7.01954-.3086l-1.05468-2.21484m14.48828 3.28125l6.78515-1.82813m-6.78515 1.82813l-1.67578-1.79297m14.92187 1.48828l6.92188-1.21875m-6.92188 1.21875l-1.50781-1.9336m2.51562 1.75782l-.7539-.96875m13.01172.46875l7.02343.13281m-7.02343-.13281l-1.11328-2.1875m2.1328 2.20703l-1.10937-2.1875m15.76953 5.5586l2.29297-6.64454m-2.29297 6.64453l-2.42187.38282m2.75781-1.35157l-2.42578.38282m15.57422.63671l1.95703-6.75m-1.95703 6.75l-2.40234.50391m17.26953-.41015l-1.14844-6.9336m1.14844 6.9336l-1.94922 1.48828m16.63281-2.03125l-3.88672-5.85157m3.32031 5l-.58203 1.08204m15.76563-1.8047l-6.48828-2.69921m6.48828 2.69922l.23047 2.4414m13.23047-4.71484l-6.78125 1.84375"/><g clip-path="url(#V)"><path fill="none" stroke="#000" stroke-linecap="round" stroke-linejoin="round" stroke-miterlimit="10" stroke-width=".5" d="M466.95313 319.625l1.67968 1.78906"/></g><path fill="#00f" fill-rule="evenodd" d="M388.23828 467.64844h8.61719V457.5039h-8.61719v10.14453"/><path fill="azure" fill-rule="evenodd" d="M390.07031 459.33594h.83594v2.82422h3.28516v-2.82422h.83203v6.48047h-.83203v-2.91797h-3.28516v2.91797h-.83594v-6.48047"/><path fill="#00f" fill-rule="evenodd" d="M383.80078 436.57813h8.61719v-10.14454h-8.61719v10.14454"/><path fill="azure" fill-rule="evenodd" d="M385.63281 428.26563h.83203v2.82421h3.28907v-2.82421h.83203v6.48046h-.83203v-2.91406h-3.28907v2.91406h-.83203v-6.48046"/><path fill="#ff3030" fill-rule="evenodd" d="M295.72656 401.07422h7.69531v-10.14844h-7.6953v10.14844"/><path fill="azure" fill-rule="evenodd" d="M297.5586 392.76172h.83593V398.5h3.1914v.73828h-4.02734v-6.47656"/><path fill="#00f" fill-rule="evenodd" d="M370.48438 401.07422h8.62109v-10.14844h-8.6211v10.14844"/><path fill="azure" fill-rule="evenodd" d="M372.3164 392.76172h.83594v2.82031h3.28516v-2.82031h.83203v6.47656h-.83203v-2.91406h-3.28516v2.91406h-.83593v-6.47656"/><path fill="#ff3030" fill-rule="evenodd" d="M189.20703 383.32031h7.6914v-10.14844h-7.6914v10.14844"/><path fill="azure" fill-rule="evenodd" d="M191.03906 375.00781h.83594v5.73828h3.1914v.7422h-4.02734v-6.48048"/><path fill="#ffffe0" fill-rule="evenodd" d="M235.22266 348.82031h22.17968v-10.1914h-22.17968v10.1914"/><path fill-rule="evenodd" d="M238.72266 340.46094h.5078v6.29687h-.78515v-4.48828h-1.39062v-.5586l.5625-.0625.25-.05468.23047-.08984.20312-.14063.17578-.21094.14063-.29296.10547-.39844m4.8125 0l.23047.01953.21875.0586.20703.08593.19922.1211.18359.15234.17187.17578.30078.41797.2422.49219.17968.54687.11328.58203.03906.58985-.03906.59375-.11328.58203-.17969.55468-.24219.50391-.30078.42578-.17187.17969-.1836.15234-.19921.125-.20703.08985-.21875.05859-.23047.01953-.22657-.01953-.21875-.0586-.21093-.08984-.19532-.125-.18359-.15234-.17188-.17969-.30078-.42578-.24609-.5039-.17969-.5547-.10937-.58202-.03906-.59375h.83203l.03125.5625.08203.5039.125.44531.16406.375.1875.30079.21094.21875.22265.13671.22657.04688.22656-.04688.22266-.13671.21093-.21875.1914-.30079.16407-.375.125-.4453.08203-.50392.02735-.5625-.02735-.5625-.08203-.5-.125-.43359-.16406-.36719-.1914-.29296-.21095-.21485-.22265-.1289-.22656-.04688-.22657.04688-.22265.1289-.21094.21485-.1875.29296-.16406.3672-.125.43358-.08203.5-.03125.5625h-.83203l.03906-.58984.10937-.58203.17969-.54688.2461-.49218.30077-.41797.17188-.17578.1836-.15235.1953-.12109.21094-.08594.21875-.0586.22657-.01952m5.09375 0h.5078v6.29687h-.78515v-4.48828h-1.39062v-.5586l.5586-.0625.2539-.05468.23047-.08984.20312-.14063.17188-.21094.14453-.29296.10547-.39844m2.82422 2.17578h.78515l.01953-.3164.0586-.28516.10156-.25391.13672-.21484.1836-.17188.22265-.1289.26562-.08204.3086-.02734.23828.02344.22265.0625.20313.10156.17969.13672.14843.17187.11328.20704.07032.23828.02734.26171-.02344.26954-.0664.22265-.10938.19531-.15625.16797-.19922.16407-.24609.16406-.63281.39062-.53906.3125-.4375.31641-.34766.32422-.26172.33594-.1914.35156-.125.3711-.07032.39452-.01953.41797h4.21094v-.74219h-3.33203l.08203-.28125.11328-.23828.14844-.20312.1875-.17969.23047-.17187.28125-.17579.71484-.41406.41797-.20703.34375-.23047.28125-.25.21875-.26953.16406-.27734.11328-.28516.0625-.28125.01953-.28125-.04297-.38672-.11718-.34765-.19141-.3047-.25-.26562-.30078-.21093-.34766-.16016-.3789-.09766-.40625-.03515-.4375.03515-.39844.09766-.35156.16797-.3047.23437-.25.30079-.18358.375-.1172.44921-.03905.51563"/><path fill="#ffffe0" fill-rule="evenodd" d="M157.41406 410.17969h22.17969v-10.1914h-22.17969v10.1914"/><path fill-rule="evenodd" d="M160.91016 401.82031h.51172v6.29688h-.78907v-4.48828h-1.38672v-.5586l.5586-.0625.2539-.05469.22657-.08984.20703-.14062.17187-.21094.14063-.29297.10547-.39844m4.8164 0l.22656.01953.22266.0586.20703.08594.19531.12109.1836.15234.17187.17578.30078.41797.2461.49219.17969.54688.10937.58203.03906.58984-.03906.59375-.10937.58203-.1797.55469-.24608.5039-.30079.42579-.17187.17968-.1836.15235-.1953.125-.20704.09375-.22266.05469-.22656.01953-.23047-.01954-.21875-.05468-.20703-.09375-.19922-.125-.18359-.15235-.17188-.17968-.30078-.42579-.24218-.5039-.1797-.55469-.11327-.58203-.03516-.59375h.83203l.02735.5625.08203.5039.125.44532.16406.375.1914.30078.21094.21875.22266.13672.22656.04687.22656-.04687.22266-.13672.21094-.21875.1875-.30078.16406-.375.125-.44531.08203-.50391.03125-.5625-.03125-.5625-.08203-.5-.125-.4336-.16406-.36718-.1875-.29297-.21094-.21484-.22266-.12891-.22656-.04688-.22656.04688-.22266.1289-.21093.21485-.19141.29297-.16406.36719-.125.43359-.08203.5-.02735.5625h-.83203l.03516-.58984.11328-.58204.17969-.54687.24218-.49219.30078-.41797.17188-.17578.1836-.15234.19921-.1211.20703-.08593.21875-.0586.23047-.01953m5.08985 0h.51172v6.29688h-.78907v-4.48828h-1.38672v-.5586l.5586-.0625.25-.05469.23047-.08984.20312-.14062.17578-.21094.14063-.29297.10547-.39844m2.82422 2.17578h.78515l.01953-.3164.0625-.28516.09766-.2539.14062-.21485.1797-.17187.22265-.12891.26562-.08203.3086-.02735.23828.02344.22265.0625.20703.10156.17579.13672.15234.17188.10938.20703.07421.23828.02344.26172-.01953.26953-.0664.22266-.10938.19531-.15625.16797-.19922.16406-.25.16406-.63281.39063-.53906.3125-.4375.3164-.34375.32422-.26563.33594-.1914.35156-.125.3711-.06641.39453-.02344.41797h4.21484v-.74219h-3.33203l.08203-.28125.11328-.23828.14844-.20313.1875-.17968.23047-.17188.27734-.17578.71875-.41406.41407-.20703.34765-.23047.27735-.25.22265-.26953.16407-.27735.10937-.28515.0625-.28125.02344-.28125-.04297-.38672-.1211-.34766-.1875-.30469-.25-.26562-.30468-.21094-.34375-.16015-.38281-.09766-.40625-.03516-.4336.03516-.39844.09765-.35546.16797-.3047.23438-.25.30078-.18358.375-.1172.44922-.03905.51562"/></g></defs><use xlink:href="#W"/></svg>