<svg xmlns="http://www.w3.org/2000/svg" role="img" xmlns:xlink="http://www.w3.org/1999/xlink" viewBox="142.45 309.95 326.84 171.84"><defs><clipPath id="a"><path d="M144 311.67188h1v168.65625h-1zm0 0"/></clipPath><clipPath id="b"><path d="M144 311.67188h324v168.65625H144zm0 0"/></clipPath><clipPath id="c"><path d="M467 480h1v.32813h-1zm0 0"/></clipPath><clipPath id="d"><path d="M467 311.67188h1v168.65625h-1zm0 0"/></clipPath><clipPath id="e"><path d="M144 479h4v1.32813h-4zm0 0"/></clipPath><clipPath id="f"><path d="M146 479h2v1.32813h-2zm0 0"/></clipPath><clipPath id="g"><path d="M153 480h9v.32813h-9zm0 0"/></clipPath><clipPath id="h"><path d="M159 480h2v.32813h-2zm0 0"/></clipPath><clipPath id="i"><path d="M167 478h8v2.32813h-8zm0 0"/></clipPath><clipPath id="j"><path d="M172 479h3v1.32813h-3zm0 0"/></clipPath><clipPath id="k"><path d="M181 477h6v3.32813h-6zm0 0"/></clipPath><clipPath id="l"><path d="M195 476h4v4.32813h-4zm0 0"/></clipPath><clipPath id="m"><path d="M208 477h5v3.32813h-5zm0 0"/></clipPath><clipPath id="n"><path d="M221 477h6v3.32813h-6zm0 0"/></clipPath><clipPath id="o"><path d="M235 476h4v4.32813h-4zm0 0"/></clipPath><clipPath id="p"><path d="M246 479h9v1.32813h-9zm0 0"/></clipPath><clipPath id="q"><path d="M262 479h4v1.32813h-4zm0 0"/></clipPath><clipPath id="r"><path d="M276 476h2v4.32813h-2zm0 0"/></clipPath><clipPath id="s"><path d="M290 476h1v4.32813h-1zm0 0"/></clipPath><clipPath id="t"><path d="M301 477h5v3.32813h-5zm0 0"/></clipPath><clipPath id="u"><path d="M313 478h8v2.32813h-8zm0 0"/></clipPath><clipPath id="v"><path d="M326 478h8v2.32813h-8zm0 0"/></clipPath><clipPath id="w"><path d="M342 476h3v4.32813h-3zm0 0"/></clipPath><clipPath id="x"><path d="M356 476h3v4.32813h-3zm0 0"/></clipPath><clipPath id="y"><path d="M369 476h3v4.32813h-3zm0 0"/></clipPath><clipPath id="z"><path d="M382 476h4v4.32813h-4zm0 0"/></clipPath><clipPath id="A"><path d="M395 476h4v4.32813h-4zm0 0"/></clipPath><clipPath id="B"><path d="M408 476h5v4.32813h-5zm0 0"/></clipPath><clipPath id="C"><path d="M421 477h5v3.32813h-5zm0 0"/></clipPath><clipPath id="D"><path d="M435 476h4v4.32813h-4zm0 0"/></clipPath><clipPath id="E"><path d="M447 477h6v3.32813h-6zm0 0"/></clipPath><clipPath id="F"><path d="M459 479h9v1.32813h-9zm0 0"/></clipPath><clipPath id="G"><path d="M465 480h2v.32813h-2zm0 0"/></clipPath><clipPath id="H"><path d="M144 465h4v4h-4zm0 0"/></clipPath><clipPath id="I"><path d="M144 451h4v6h-4zm0 0"/></clipPath><clipPath id="J"><path d="M144 438h4v5h-4zm0 0"/></clipPath><clipPath id="K"><path d="M144 424h3v6h-3zm0 0"/></clipPath><clipPath id="L"><path d="M144 410h3v7h-3zm0 0"/></clipPath><clipPath id="M"><path d="M466 411h2v3h-2zm0 0"/></clipPath><clipPath id="N"><path d="M144 397h3v7h-3zm0 0"/></clipPath><clipPath id="O"><path d="M466 398h2v2h-2zm0 0"/></clipPath><clipPath id="P"><path d="M144 383h2v8h-2zm0 0"/></clipPath><clipPath id="Q"><path d="M144 370h1v8h-1zm0 0"/></clipPath><clipPath id="R"><path d="M144 370h2v2h-2zm0 0"/></clipPath><clipPath id="S"><path d="M144 358h4v5h-4zm0 0"/></clipPath><clipPath id="T"><path d="M144 345h4v5h-4zm0 0"/></clipPath><clipPath id="U"><path d="M466 345h2v3h-2zm0 0"/></clipPath><clipPath id="V"><path d="M144 330h2v8h-2zm0 0"/></clipPath><clipPath id="W"><path d="M466 332h2v3h-2zm0 0"/></clipPath><clipPath id="X"><path d="M144 318h3v6h-3zm0 0"/></clipPath><clipPath id="Y"><path d="M466 319h2v3h-2zm0 0"/></clipPath><g id="Z" clip-path="url(#clip1)"><path fill="#fff" fill-opacity="0" fill-rule="evenodd" d="M0 0h1000v1000H0zm0 0"/><path fill="#d3d3d3" fill-opacity="0" fill-rule="evenodd" d="M162.15234 355.86719l-.23437.29297.0586.23437.11718.17188.17578.23437.29297.34766.11328.0586.11719-.17188.0586-.23438.17577-.17578.46485-.17578h.69922l.23437.29297.28906.8164.0586.17579.17578.23046.35156.23438.69922.69922.17188.17578.23437.34765.23438.41016.28906.58203.41015.46485.23047.23437.23438.17578.11719.23047.17578.29297.17187 1.16406v.23438l.0586.28906.05859.11719.11719.11719.34765.41015.11719.17188.17578.17578.17578.23437.11719.17188.17188.35156.05859.23438.23437.40625.23438-.0586-.17578.17578-.0586.92969h-.58203l-.23437-.11328-.34766.11328-.11719.11719-.05859.29297-.0586.17578-.11718.17187-.46484.29297-.0586.23438-.0586.11328v.64453l.0586.17187v.41016l.0586.0586v.40624l.05859.40625.11719.17579.05859.05859.23047.64062-.0586.29297v.69922l-.05859.58203v.23438l-.0586.23047-.05468.35156v1.92187l.05469.1172h.42578l-.36719.11718-.02344.35156.89063 1.16797 1.74219.53906 1.33984.35938v.53906l.08984.8086.53516.71484 1.51953.26953.89063-.08594.08984 1.16406.53516.1797 1.16015-.1797 2.05469-.98437 1.16016-.36328 1.8789-.17578 1.69531-.1797-.17968.71876-1.51563.08594-1.25.08984-.80469.26953-1.07421.8086.26953.71875.53515.89843-.17968.625-.26563.8086.26563 1.07812.625.89844.80468.17969 1.25-.1797-.26562.72267.09766.5039.05468.29297v.17188l.0586.29296v.40625l.17578.1172.35156.11718h.40625l.29297-.17578.11328-.11719.0586-.11719.11718-.23047.0586-.17578.35156-.46484.23047-.17578.17578-.0586.17578.0586.0586.17578.11718.98828.05469.46875.0586.17188.11718.23437.17578.0586.8164.05859h.28907l.11719.23437.05859.40625.0586.35156v1.10547l.11718.29297.11719.34766.28906.69922.17578.35156.58203.7539.35157.17579.17187.0586.46875.23437.64063.46484.34765.23438.29297.17578.29297.05468.23047.0625.8164.34766.29297.17578.11328.17188.35157.35156.11719.17578.52343.64063v.28906l.0586.35156v.34766l.05859.35156.0586.28906.11718.0586.17188.05859h.17578l.58203.23437.17578.1172.17578.28905.17578.23438.11328.23437.29297.23047.11719.11719v.41016l.0586.05468.28906.23438.23437.11719.0586.11718.11718.17188.0586.11719.23047.23437.05859.17578.23437.0586.1172.05859-.1172.11328-.05859.11719v.11719l-.11719.29296-.11719.28907v.58203l.17579.11719.11718.05859.0586.11719.11719.11719.11328.05859.17578.34765.0586.35157.05858.40625v.17578l-.05859.17578-.11719.69922v.17187l.1172.17579.29296.29296h.40625l.17578.1172.11719.17187.11719.29296v.23438h-.52735l-.23047-.23438h-.23437l-.17578.0586-.0586.69922.0586.34765.11719.17579.17578.41015.11718.23047.28907.46875.17578.05469h.52344l.23437.0586.75781.64062.0586.29296v.23438l.05859.0586.23047.34765v.35156l-.11719.17188v.29297l.29297.28906.29297.17578.17187.0586.29297.17577.29297.1172.58203.40624.28906.23438.29297.17578.21875.16015.01563.01172.23047.17579.64062.52343.17578.23438.1172.17578.17577.17578.11328.17188v.64062l.1172.17578.46874.11719.58203.11719.23438.05859.23047.11328.29297.11719.11328.0586.58593.35156.28907.17187.17578.0625.17578.05469.17578.0586.69922.35155.28906.17579.23438.05468.28906.17578.23437.1172.64063.40624.29297.11719.17187.0586.23438.05859.41015.05859.23047.0586.23438.11718.0586.17188-.41017.17578.46875.0586.0586.29296.11328.23438.17578.05468.23438.0586.17578.05859.40625.11719.64062.23437.11719.17188.0586.23437v.17578l-.0586.1172-.0586.40624.23438.23438.11719.05859.34766.11719.64062.23047.17578.11718.28906.1172.17578.17577.23438.46485.58203 1.10546.17578.17579.34766.17578.17578.11719.35156.11718 1.04688.52344.23437.0586.46485.11327.29297.0586.46484.17578.75781.58203.23438.23438.34765.46484.17578.17578.28907.23438.8164.69921.29297.17579.28906.28906.29297.17578.29297.28906.69531.64063.17578.17578.29297.23437.28907.23438.46875.28906.64062.58203.34766.23438.23437.29297.34766.34765.35156.46485.9336.99218.34765.40625.11719.17579.23437.05859.11328.11719.64454.17578.23047.11328.23437.0586.29297.17577.23047.1172.9336.69921.40624.40625.23438.17578.40625.17578.23437.11719.8164.34766.34766.23437.23438.11719.29297.28906.23047.11719.7578.35156.35157.17188.23047.05859.29297.11719.23437.0586.8711.17577h.8164l.46875.23047.17188.0586.875.69921.46484.1172.29297.05858.17578.0586.23047.0586.46875.05859.34766.05859.35156.0586.40625.05859h.29297l.17187.0586v.23046l.17578.17578h.29297l.34766.0586.35156.05859.69922.11719h.64063l.46484-.23438.29297-.17578.17187-.11719.41016-.17187.28906-.17578.9336-.46485.46875-.29297.52343-.29296.46485-.17188.46484-.17578 1.05078-.46485.28906-.11718.41016-.11719.28906-.11719.52735-.17578 1.51562-.69922.58203-.34765.28907-.0586.29297-.0586.34765-.11718.875-.23047.35156-.11719h.11329l.23437-.05859.875-.23437.23438-.0586h.8125l.35156-.0586.8164-.11718.17188-.0586.35156-.05468.29297-.0586.23047-.05859.8164-.17578.17579-.0586h.34765l.23438-.05859.46484-.11718.75781-.17188.23438-.0586h.34765l.41016-.11718.28906-.0586 1.28516-.05859h.28906l.41016-.0586.23047-.05858h.17578l.875-.1172h.40625l.41015-.11718h.34766l.35156-.11328.8711-.0586h1.75l1.04687.28907.41016.11719.28906.11718.35156.11719.28907.11719 1.05078.17187.28906.0586h.29297l.29297.05859.17187.0586.41016.05859.17187.0586.1172.05858h.11718l.11719.0586.35156.0586h.11328l.41016.0664 1.92187.39453 1.92578.39453 1.51953.44922 1.69532.71875 2.14453.80469 1.60547-.71875 1.42968-.80469 1.16016-1.07813 1.25-.44921 3.03516-.71875 1.875-.35938 2.14453-1.34765 2.23437-1.25391 2.5-1.25781 1.69531-.44922 1.78516-.17969 1.16016-.26953.625.53906 1.33984-.26953.71485-.98828.98437-1.34375.44531-.17969.80469-.35937 1.875-.53907 1.78516-.44921 1.25-.26954 1.16015-.08984 1.69922-.08984 1.96094-.26954 1.25-.08984h.53906l.625-.08984h.89063l2.14453-.17969 2.41015-.17969 2.58985-.08984 1.69531.17969 1.60938.08984 1.42968.35938 1.16016.71875 1.875.98828 1.16015 1.52734.26563.71484.6289.08985.35548.89844.53515.53906.53516 1.52734 1.07422.35938h.53515l-.80469.53515.08985 1.70703.71484 2.69532.89063.80468.89453.98829.71484 1.2578 1.78516.53907 1.51953-.17969.35547 1.34375 1.60937-.80469.98047-.53906.26953.26953.31641-.21484.21875-.14453.80078.44922.44922-.35938h.35547l.53515-.26953.53907-.71875.53515-.26953.625-.98828 1.16016.44922.83984.3711 1.39454.61718 1.6953-.17969h1.60548l1.78515.08985.17969-1.70704.53516-1.34375.80468.26954.4922.84765.40233.40625-.08984.53906v.35938l.71485.44922.71093-.26953h1.42969l.35938.98828.4453 1.25781.71485 1.34375 1.25.6289 1.69531.62891.71485-.17969.17969-.53906.98046-.08984.44922.35937.08594 1.25782-.26563.6289-.53515.17969v.53906l.71484.98438.26563.53906.98437.98828.80078 1.07813-.26562.35937-.08985.89844-.625 2.33203-.35546 2.0664-.08985 1.79298-.17969.71875-.08984.53906v1.4375l-.98047 1.88281-.35937 1.70703-.53516.89844-.80469 1.16797-.26562.53906 2.05469 1.2539.08593.35938-.35546.53906-.08985-.17968v.80859l.08985 1.4375-.44532.71484-1.07422.09375-.26562.71485.53515.89844.8047.71875 1.16015.80859 1.33984.26953.44531.35938-.35546.44921-1.78907-.08984-1.25-.44922-.71484-.71875-.625-.08984-.17578 3.58984-.1875 1.3086h89.35937V311.70313h-55.26953v49.08203l.76172.125 3.28906.54296 2.02344 2.83594v2.7539l2.35156.33204 2.34766.33203h4.05078l-1.3789 4.16016-2.02344.70703-2.02344.70312-.54297.34375-2.59375 1.6172-.1875.11718-2.02344-2.07813-.73046-2.74218-2.67188-2.07813-1.375-3.5-.0664-.08203-1.95704-2.67188 2.75-1.41796v-49.08204H294.42187v91.41407l.1172.03125.1328.01172.07422.07421.10547.04688.08985.0586.08593.05859.08985.0586.29687.29687.0586.08984.03125.11719.02734.11719.01563.13671-.03125.1172-.0586.08983-.0586.08594-.04296.10547-.04688.10156-.02734.1211v.14453l.17578.26953.14844.14844.07422.08594.07422.07421.04296.10547.0625.08985.0586.08593.04297.10547.0586.08985.04687.10156.04296.10547.0586.08594.11719.17968.07421.07422.0625.08594.0586.08984.04297.10547.0586.08985.05858.08593.0625.08985.0586.08984.04297.10156.11719.17969.07421.07422.0586.08594.07422.07421.08984.0586.10547.04687h.14844l.1328-.01562.13282.01562.10156-.04687.07422-.07422.04688-.10156-.01563-.13281v-.14844l-.04687-.10547-.02735-.11719-.04687-.10156-.02735-.1211-.04296-.10156-.0625-.08984-.04297-.10156-.04297-.10547-.03125-.11719-.01563-.13281-.01171-.13672.08593-.0586.0586-.08593.12109-.03125.04297.10547.01562.1328v.1172l.0586.10156.0586.08984.08983.0586.14844.14843.0586.08985.04296.10547-.01171.10156.08593.0586.10547.04687.08594.0586.08984.05858.07422.07422-.11719.02735-.10546.04687-.08594.0586-.07422.07421-.0586.08985-.0625.08594-.02734.12109-.04687.10156-.04297.10547-.03125.11719-.01172.13281-.01563.13281v.14844l.02735.11719.04687.10547.04297.10156.0586.08984.07421.07422.08985.0586.07422.07421.08984.0586.0586.08984.04296.10547.04688.10156.11719.03125.1328.01563h.14845l.11718-.03125.10547.04297.04297.10547.04688.10156.02734.1211L299.5 410l.02734.11719.03125.1211.02735.11718.10547.04297.10156.04687.13281-.01562.14844.14844.0625.08593.07422.07422.07031.07422.08984.0625.10547.04297.10156.04297.1172.03125.13671.01562.11719-.03125.07422-.07422.02734-.11718-.01172-.13282-.03125-.12109-.02734-.11719.04297-.10547h.11719l.08984.0625.11719.02735h.14843l.13282.01562h.14843l.13282.01563.1328-.01563h.14845l.1328-.01562.13282-.01172.13672.01172.11719-.02735.13281-.01562.1914-.0586-.05859.17579-.01562.1328-.02735.1211-.01562.13281-.0586.08594-.1328.01563-.10548.04687-.10546.04297-.1172.03125-.11718.02735-.26563.03125h-.14843l-.13281.01562-.07422.07422.05859.08594.14844.14843.11719.1797.07421.0703.08985.0625.08984.0586.08594.0586.08984.05858.10156.04297.10547.0625.10547.04297.08594.0586.10547.04687.10156.04297.17969.11719.0586.08984-.04298.10156-.04687.10547.01562.13281.22266.22266.0586.08985.04296.10156.03125.1211.04297.10155.01563.13282.03125.11718.01171.13672.03125.11719.14844.14844.10156.04297.10547.04296.1172.03125.1328.01563.13672.01563h.11719l.11719-.03125.08984-.0586.04297-.10547.04688-.10156.04296-.10547.03125-.11719.01172-.1328v-.14845l-.01172-.1328-.01562-.13282-.03125-.11719-.04297-.10547-.04688-.10547-.04296-.10156-.04297-.10547-.01563-.13281.01563-.13281.02734-.11719.03125-.11719.02735-.1211.04687-.10155.08984-.0586.08594-.0625.07422-.07422.08984-.05859.22266-.22266.0586-.08593.07421-.07422.11719-.17969.0586-.08594v-.14844l-.07423-.07421-.10156-.04688-.10547-.04297-.10156-.04297-.0586-.08984-.04687-.10547-.02734-.11719.08984-.05859.11719-.03125.10156-.04297.17969-.11719.14844-.14843.01172-.13282-.01172-.10546-.08985-.0586-.1328.01563h-.14845l-.1328.01562-.13282-.01562-.1211-.03125-.08593-.0586-.07422-.07422-.0586-.08984-.0625-.08594-.11718-.17969-.0586-.08593.03125-.1211.08594-.05859.1211-.03125.05859-.08594v-.1211l-.03125-.11718-.0586-.08984-.05859-.08594-.04687-.10547-.02735-.11719-.01562-.1328.0586-.08985.07421-.07422.08984-.0586.1172-.17968.07421-.07422.0586-.08594.14843-.14844.1211-.03125.1328-.01562.13282.01562.07422.07422.04297.10547.01562.13281-.03125.1172-.11719.03124-.1328.01172-.14844.14844-.04297.10547-.04688.10156-.02734.1211-.03125.11718v.14844l.03125.11719.04297.10546.05859.08985.07422.07031.07422.07422.11719.03125.12109.02734.11719-.02734.1328-.01563h.1172l.08984.0586.07422.07422.04687.10546.0586.08594.10156.04688.13281.01562.10547.04297.08594.0586-.01172.10546-.07422.07422-.17969.11719-.05859.08984-.08984.0586-.07032.07422-.07421.07421-.0625.08985-.02735.11719-.01562.1328.01562.13282-.01562.13281v.14844l.01562.13281.02735.1172.03125.12108.07421.07422.08985.0586.08594.0586.08984.05858.11719.03125v.08594l-.10157.04688-.08984.0586-.26563.03124-.11718.02735h-.14844l-.10547.04296-.10156.04688-.0586.08984-.0625.23438-.01171.13281-.03125.1211-.01563.1328v.29298l-.01172.1328.01172.13673.01563.1328.1328.01563.13282.01172.1211.03125.08593.0586.07422.07421.04688.10547.04296.10157.01563.1328v.44532l-.01563.13281v.44532l.03125.26562.02735.11719.01562.13281.03125.11719.08594.21094.03125.26562v.14844l-.03125.11719-.02734.11718-.03125.1211-.02735.11719-.03125.11718-.03125.1211-.01171.1328-.01563.13282.08984.0586.1172-.03125.10155.01562.04688.10547-.03125.26562v.44141l-.04297.10547-.04688.10547-.04296.10156-.04297.10547-.0586.08594-.03125.12109-.04296.11719-.03125.11719-.01563.1328.01563.13282.05859.08984.10547.04688.08594.0586.05859.08593-.01172.13672-.03125.11719-.04297.10156v.44531l-.01562.13281v.14844l-.03125.11719-.04297.10547-.02735.11719-.04687.10546-.04297.10157-.03125.12109-.02734.11719-.03125.13281-.03125.11719-.02735.11719-.04297.10546-.03125.1172-.03125.12108-.01171.13282-.01563.13281v.29688l.02734.11718v.14844l.04688.39844.02734.11719.0586.08984.12109.03125h.14844l.13281-.01563.0586.08985v.11719l-.0586.08984-.08984.0586-.10157.04296-.10546.04688-.08985.05859-.08594.0586-.13671.01562-.1172-.03125-.1328-.01563-.10157.04688-.0625.08594-.01172.13671-.01562.13282-.03125.11719-.02735.11718-.01562.13281-.03125.1211v.29687l.01563.13282.03125.11718v.14844l.01171.13281v.14844l-.02734.11719-.04688.10156-.02734.1211-.03125.11718-.0586.08985-.07421.07421-.10156.04297-.10547.04688-.11719.02734-.1211.03125-.10156-.04687.0586-.08594.10547-.04688.02734-.11718.03125-.11719.02734-.1211.03125-.11718v-.14844l.01563-.13281-.03125-.11719-.04297-.10547-.10547.01563-.07422.07422-.10156.04296-.08984.0625-.07422.07422-.04297.10157-.01563.1328-.03125.1172L304.25 426l-.03125.11719-.02734.11719-.03125.12109-.02735.11719-.03125.11718-.04297.10547-.08984.0586h-.08984l-.1172-.03125-.03124-.08594.01562-.13672-.03125-.11719v-.14844l-.01171-.1328v-.14844l-.0625-.23438-.02735-.1211-.04297-.10156-.04687-.10546-.0586-.08594-.05859-.08985-.04297-.10546-.0625-.08594-.14844-.14844-.0703-.07422-.10548-.04687-.10547-.04297-.10156-.04297-.29687-.29688-.08985-.07421-.08594-.0586-.10546-.04297-.08985-.0625-.08594-.0586-.10546-.04296-.08985-.0586-.08594-.0625-.07421-.0703-.10547-.04688-.08594-.0586-.10547-.04296-.08984-.0625-.10156-.04297-.10547-.04297-.08594-.0586-.10547-.04687-.10547-.04297-.10156-.04687-.08985-.0586-.10156-.04297-.10547-.04296-.08984-.0625-.11719-.02735-.13281-.01562-.13281.01562H299.75l-.13281.01563-.11719-.03125-.08984-.0586-.07422-.07422-.08985-.05859-.10156-.04688h-.14844l-.12109-.02734-.10156-.04297-.07422-.07422-.11719-.17968-.08984-.0586-.10156-.04297-.08985-.0625-.10547-.04296-.08984-.0586-.08594-.0586-.10547-.04687-.0586-.08594-.05858-.08984-.04297-.10547-.04688-.10156-.07422-.07422-.08594-.0586-.07421-.07421-.08985-.0586-.22265-.22265-.04297-.10547-.03125-.26563.10547-.04296h.14453l.10547.04296.07421.07422.08985.0586.08594.0586.10546.04687.08985.05859.14844.14844.0703.07422.14845.14843.0625.08594.07421.07422.08594.0586.07422.07421.08985.0625.08984.0586.08594.05859.26953.17578.10156.04688.10547.04296.10156.04297.04688-.07421.05859-.08594.07422-.07422.07031-.07422.10547.04297.07422.07422.0586.08984.04296.10156.04688.10547.04296.10547.1211.02735.11719-.02735.07421-.08984.04297-.10547.0586-.08985.07422-.07421.10546-.04297.1172-.02735.1328.01172.08985.0586.14844.14843.05859.08985.04297.10547.04687.10156.04297.10547.04297.10156.10547.04688.10547.04296.13281.01563.08594-.0586.0586-.08984.07421-.07422.10547-.04297.11719.02735.10547.04687.10156.04297.10547.04297.10156.04688.17969.11718v.11719l-.01563.13281.01563.13281.01562.13672.0586.08594.10156.04688.1211.02734.11718.03125h.14844l.11719-.03125.05859-.08984.17969-.1172.05859-.08983.07422-.07422.0586-.08594.11718-.17969.17969-.11719.11719.03125.08984.0586.04297.07422-.01563.1328v.1172l.08985.05859h.14843l.13282-.01563.1328-.01171.26563-.03125.10547-.04297.11719-.03125.1211-.02735.07421-.07421.07031-.07422.0625-.08985-.01562-.10547-.04688-.10156-.10156-.04297-.10547-.01562-.11718.02734-.26563.03125h-.14844l-.07421-.07422-.08985-.0586-.11719-.03124-.11718-.02735-.13282-.01562h-.14843l-.13282.01563h-.29687l-.10547-.04688-.14844-.14844-.04297-.10156-.05859-.08984.22266-.22266.08593-.0586.10547-.04296.11719-.03125.13281-.01563.13281.01563.13672.01562.10157.04297.1328-.01172.08985-.0625.10156-.04297.0625-.08984-.04687-.10156-.08984-.0586-.1172-.03125-.10155-.04296-.0586-.08985-.0625-.08984v-.11719l.01563-.13281.10547-.04688.07421-.07031v-.1211l-.08984-.05859-.03125-.11719.08985-.05859.07421-.07422.04297-.10547.0586-.08984.04687-.10156.01563-.13281v-.14844l-.04688-.10547-.04297-.10156-.08984-.0586-.13281-.01562-.10157-.04297-.13671-.01563-.1172-.03125h-.4453l-.13282-.01562-.13281-.01172-.13281-.01563-.11719-.03125h-.14844l-.13281-.01562-.13281-.01172-.26563-.03125-.1211-.04297-.08593-.0586-.07422-.07421v-.14844l.01172-.13281.10547-.04688.10156-.04296.13281-.01563h.15235l.13281-.01562h.29297l.1211.03125.10156.04296.08984.0586.23438.0625.12109-.04688.08984-.05859.10156-.04297.13282-.01562.10547.04296.10156.04688.13281.01172.1211-.02735h.14453l.12109-.03125.11719-.02734.10547-.04687.07421-.07422.08594-.0586.14844-.14843.0586-.08594.04687-.10547.02734-.11719.01563-.10547-.10156-.04296-.08985-.0586-.11719-.03125-.10546-.04297-.08985-.0625-.07422-.08594-.07422-.07421-.10156-.04297-.10547-.04688-.10156-.04297-.0586-.08984-.04687-.10156-.08594-.21094-.0625-.08594-.05859-.08984-.07422-.07422-.08594-.0586h-.26953l-.11719.03126-.08984.05859-.10156.04297-.13281.01562-.10547-.01562-.02735-.11719-.0625-.08984-.11718-.03125-.10157-.04297-.14843-.14844-.03125-.11719-.01563-.10546.07422-.07422.17969-.1172.11719-.02733.11718-.03125.13672.01562.10156.04297.10547.04297.10156.04687.10547.04297.1172.03125.1328.01563.1172.02734.1328.01563.10547-.01563.08985-.0586-.07422-.07421-.10547-.04297-.07422-.07422-.07422-.08984-.14844-.14844-.08593-.0586-.08985-.05859-.07422-.07422-.08984-.0586-.10156-.04687-.1211-.02734-.10156-.04688-.10547-.04296-.11719-.03125-.10156-.04297-.1211-.03125h-.14843l-.11719.03125-.10546.04297-.08594.0625-.17969.11718-.08594.0586-.08984.0586-.10547.04687-.08594.05859-.10547.04297-.10156.04297-.10547.04687-.07422.07422-.05859.08985-.0586.08593-.04687.10547-.0586.08594-.07421.07422-.13281-.01172-.1172-.03125h-.11718l-.07422.07422-.08984.0586-.07422.07421-.08984.0586-.08594.05859-.10547.04687-.10156.04297-.13672.01563-.10156-.04297-.14844-.14844-.10547-.04688h-.08594l-.10547.04688-.10156.04297-.1211.03125-.11718-.03125-.07422-.07422v-.11719l.03125-.1211.07422-.0703.0586-.08985.07421-.07422.11719-.03125.10547-.04296h.29297l.13281-.01563.13672-.01563.10156-.04296.08985-.0586.10156-.04687.08984-.0586.13281-.01171.08985.05859.13281.01172.08984-.0586.08594-.05859.10547-.04297.08984-.0586.08594-.0625.08985-.05859.14843-.14843.0586-.08594.05859-.08985.10547-.04296.13281-.01563.11719.02735.1211.03125.05859-.0586.05859-.08984.03125-.26563.02734-.11719.10547.01172.13281.01563.10157-.04297.08984-.0586.0586-.08984.07421-.07422.0586-.08984.04687-.10156.01172-.13281-.01172-.13282-.04687-.10547-.14844-.14843-.0586-.08985-.05859-.08594-.04297-.10546v-.44532l.01563-.1328v-.14845l.01172-.1328-.0586-.0586-.08984.0586-.10156-.04298-.17969-.11719-.08594-.05859-.0625-.08984-.0586-.08985-.07421-.07421-.08594-.0586-.1211.03125-.10155.01172-.10547.04688-.08594.05859-.10547.04297-.14844.14844-.08984.05859-.08594.0586-.08984.0625-.10547.04296-.13281.01563v-.1211l.10547-.04297.11718-.03125.07422-.0703.04297-.10548v-.14844l-.02734-.11718-.14844-.14844-.13281-.01563h-.14844l-.11719.03125-.10547.04297-.10156.04297-.08984.0625-.11719.02735-.07422-.07422.01172-.13281-.04297-.10157-.04297-.10547-.08984-.05859-.11719.02734-.1211.03125-.11718.03125-.10156.04297-.1211.03125-.10156.04297-.10547.04297-.08984.0586-.10156.01562v-.11719l.01562-.13281-.0586-.08985-.07421.04297-.14844.14844-.0586.08985-.07421.07421-.04688.10547-.04296.10156-.07422.07422-.0586.08985-.07422.07422-.05859.08593-.07422.07422-.08984.0625-.07422.07031-.07422.07422-.10156.01563-.13281.01562-.10547-.04296v-.1211l.14843-.14844.04297-.10156.0586-.08984.04687-.10156.04297-.10547.0586-.08985.03124-.11719.04297-.10156.03125-.1211.02735-.11718.04687-.10547.04297-.10156.04297-.10547.07422-.07031.08984-.0625.08985-.0586.10156-.04296h.29687l.26563-.03125.10547-.04297-.07422-.07422-.11719-.03125-.10547-.04297-.08984-.0586-.10156-.04687-.08985-.0586-.10156-.04296-.10547-.04297-.08984-.0625-.08594-.0586-.10547-.04296-.10156-.04297-.1211-.03125-.11718-.03125-.10157-.04297L297.5 410.25l-.10156-.04297-.08985-.0586-.04296-.10546-.01563-.13281.10156-.04297.13281-.01563.13672.01563.13282-.01563.10156-.04297.0586-.08984.01562-.10547-.08985-.0586-.07421-.07421-.10157-.04297-.08984-.0586-.14844-.14843-.04297-.10547-.01562-.13281v-.29297l-.0586-.08985-.08984-.05859-.07422-.07422-.04297-.10547-.03125-.11718-.0586-.08985-.07421-.07422-.11719-.02734-.07422-.07422-.08984-.0586-.08984-.0625-.08594-.05859-.07422-.07421-.0586-.08594-.04687-.10547-.08594-.0586-.14843-.14843-.19532-.0586-.1328.01563-.10157.04297-.07422.07422-.04688.10156-.04296.10547-.0586.08984-.0586.08594-.29687.29687-.08984.0586h-.08594l-.0625-.08594-.04297-.10547.03125-.11719.0586-.08984.02734-.11719-.01172-.13281-.08984-.0625-.10547.04688-.11719.02734-.11719.03125-.26953.17578-.10156.04688-.11719.02734-.10546.04687-.08985.0586-.10156.04297-.0586-.08594-.04687-.10547.01563-.13281.04687-.10547.07031-.07422.07422-.07031.0586-.08985v-.14843l-.04297-.10547h-.23829l-.10156.04687-.03125.11719-.02734.11719-.03125.1211-.07422.04296-.13281.01563-.07422-.04688-.04297-.10156-.04297-.10547-.04687-.10156-.04297-.10547-.1211.03125-.10156.04297-.13281.01562-.11719.03125-.10547.04297-.08984.0586-.10156.04687-.1211.02734-.13281.01563-.10156-.04297-.0586-.08985-.04687-.10546-.04297-.10157-.04297-.10546v-.1172l.0586-.08984.08593-.05859.17969-.11719.10156-.04687.10547-.04297.10547-.0586.10156-.04296.08985-.0625.10156-.04297.10547-.0586.10156-.04687.08984-.0586.10547-.04296.10156-.04297.08985-.0625.10156-.04297.13672-.01563.11719.03125.10156.04297.1211.03125.10156.04297.10546.04688.10157.04296.10547.04297.10156.04688.10547.04297.10156.04297.10547.04687.08594.0586.10546.04296.1172.03125.10546.04297.10156.04688.08985.0586.10547.04296.10156.04297.10547.04687.11719.02735.10156.04687.1211.02735h.14843l.08594-.0586.01562-.10156.0586-.08984-.02735-.1172-.07422-.07421-.11719-.17969-.07421-.07422-.08985-.07421-.17969-.1172-.08593-.05859-.10547-.04296-.10156-.04688-.26954-.17578-.05859-.08985-.07422-.07421-.0586-.08985-.04296-.10156-.03125-.11719-.01563-.13672v-.5625l-.01171-.1328-.01563-.13282-.03125-.11719-.01562-.13281-.01172-.13281-.03125-.1211-.22266-.22265-.0586-.08594-.01562-.10547.03125-.11719.13281-.01562v-91.41406H172.9922v1.45312l-.0586.23438-.35156 1.05078-.17187.52343-.1172.34766-.17577.41016-.11719.17187-.23438.29297-.23046.0586h-.35157l-.11718.05859-.23047.40625v.29297l.11719.17578.23046.23047.1172.23437.64062.75781.29297.46485.17578.23437.23047.35156.23437.34766.64063.8164.17578.46485.17187.41016.11719.69531.17578.46875.11719 1.39844.0586.46484v.875l.11718 1.04688v4.78125l-.0586.46484-.35156 1.28125-.17578.52344-.11328.41015-.35156.9297L172.93359 336l-.23437.58203-.11719.17578-.17187.34766-.17578.40625-.35157.8164-.0586.29297-.11327.29297-.11719.28906-.0586.17579-.11718.875-.0586.40625-.05859.11718-.0586.17579-.05859.17187-.23047.52734-.11718.17188v.23437l-.11719.23438-.0586.17187-.17577.58594v.28906l-.0586.17579v.29296l-.0586.11329-.05859.52734v.17187l-.05468.23438v2.6211l-.17578.8164-.1172.17578-.17577.23438-.1172.17187-.11327.23438-.58594.93359-.23047.28906-.29297.46485-.17578.23437-.28906.35156-.35156.69922-.11328.23047-.17579.41016-.17578.23046-.40625.52735-.8164.69922-.29297.17187-.28906.23438-.17579.11719-.17578.17578-.52344.40625-.52734.17578-.17187.17578-.23438.05469-.64062.17578h-.75782m12.21094 31.02344l-1.07422.44921.35938.89454 1.25-.71485.44531-.53906-.98047-.08985"/><path fill="#d3d3d3" fill-opacity="0" fill-rule="evenodd" d="M201.50781 416.59766h-.89453l.44922.6289.98047.35938.80469-.08985.4453-.98828-.17577.08985-.71485-.35547-.89453.35547m154.6211 59.0703l-.0586-.52343v-.29297l.11328-.29297.0586-.23046.46875-.46875h.11328l.11719-.11329.11718-.05859h.17579l.23437-.0586h.34766l.23437.0586.11719.0586.23047.17187.0586.17578.11718.58203v.29297l-.11719.17578-.17187.28906-.17579.17579-.52734.52343-.23047.23438-.11719.0586h-.17578l-.11718-.0586-.40625-.29297-.17579-.11719-.11718-.0586-.0586-.11327-.05468-.1172m6.64062-10.95702l-.0586-.17188v-1.10937l.0586-.17188.17578-.0586.17188-.05858h.17578l.23437-.0586.1172.0586.05858.69921-.05859.17188-.11719.17578-.11718.0586-.23438.52343-.11328.0586h-.23438l-.05859-.1172m9.61328-14.39062l-.11719-.17578v-.69922l.29297-.875.1172-.17187.17577-.35156.11328-.23047.1172-.29297.35155-.75781.1172-.23047.17187-.23438h.17578l.11719-.0586h.64062l.11719.0586.23437.23438.17188.11328.35156.29297.11719.11718.11328.17579v.11328l.11719.05859.11718.11719v.69922l-.05859.17578v.23047l-.0586.17578-.34765 1.05078-.11719.23047-.11719.23437-.11718.0586-.23047.23437-.64063.28906h-.875l-.41015-.11718-.64063-.46485"/><path fill="none" stroke="#bebebe" stroke-linecap="round" stroke-linejoin="round" stroke-miterlimit="10" stroke-width=".5" d="M467.95703 311.69531H144.02734v168.625h323.9297v-168.625"/><g clip-path="url(#a)"><path fill="#fff" fill-opacity="0" fill-rule="evenodd" d="M144 475.89063v4.4375h.0039H144V311.67188h.0039H144v164.21875"/></g><g clip-path="url(#b)"><path fill="#fff" fill-opacity="0" fill-rule="evenodd" d="M144.0039 480.32813V311.67188h71.01173v116.22265l-4.44141.38672-3.90234 3.22656-.53516.3125-4.4375 1.3711-4.4375 1.58984-1.35547 1.16406-3.08594 2.71094-4.4375-.14063-2.09765 1.8672 2.09765 2.30859 4.4375-.59375 4.4414 1.30078 4.4375.29687 4.4375.17188 4.4375.13281 1.97267.82031 1.21484 4.4414 1.2539 2.25392 4.4375.88671 4.4375-.13671 2.75782-3.00391-2.75781-1.625-1.75-2.8164 1.75-2.58594 1.79687-1.85157-1.79688-1.84765-.52734-2.58985-.94531-4.4375-2.96484-2.6289-4.4375-.98438V311.67188h13.3125v116.38671l-1.8125 3.44922 1.8125 1.71094 2.27343-1.71094-2.27344-3.44922V311.67188h4.4375v138.12109l-3.42187 3.90625-1.01563.75-4.4375.5-2.22265 3.1875 2.22266 2.21875 2.19921 2.21875 2.23828 1.4414 2.29297-1.4414 2.14453-2.74219 4.44141-.72265 1.0664-.97266 1.73829-4.4375-2.80469-2.95703-4.4414-.94922v-138.1211h4.4414v124.2461l-.03125.02734.03125.03516.01953-.03516-.01953-.02734v-124.2461h44.38281v131.04688l-2.47265 2.10156 2.47265 1.82813 2.01563-1.82813-2.01563-2.10156V311.67187h17.75391v123.77735l-.48438.4961.48438.46093.48828-.46094-.48828-.4961V311.67189h57.69922v109.4453l-1.52344 1.51173 1.52344 1.77734 1.61328-1.77734-1.61328-1.51172V311.67188h17.75v163.91796l-.29688.30079.29688.48437.30469-.48438-.3047-.30078V311.67188h93.20313v168.36718l-.26562.28906H144.0039"/></g><path fill="#50fcfc" fill-rule="evenodd" d="M188.38281 442.6914l-2.09765-2.30859 2.09765-1.86719 4.4375.14063 3.08594-2.71094 1.35547-1.16406 4.4375-1.58984 4.4375-1.3711.53516-.3125 3.90234-3.22656 4.4414-.38672v1.57031l-4.4414.6875-1.64063 1.35547-2.79687 1.63672-4.2539 2.80078-.1836.8125-4.4375 3.5625-.07031.0625.0703.03516 4.4375.92187 4.4375.34766 4.4375.1211 2.17188-1.42579 2.26953-.8125 4.4375-.89062v1.17969l-2.57812.52343 2.57813 1.74219 2.57812-1.74219-2.57813-.52344v-1.17968l2.73047-2.73438-2.73047-4.04297-.65625-.39453-3.78125-2.04297v-1.5703l4.4375.98437 2.96485 2.6289.94531 4.4375.52734 2.58985 1.79688 1.84765-1.79688 1.85156-1.75 2.58594 1.75 2.8164 2.75782 1.625-2.75781 3.00392-4.4375.13671-4.4375-.88671-1.25391-2.25391-1.21484-4.4414L210.57422 444l-4.4375-.13281-4.4375-.17188-4.4375-.29687-4.4414-1.30078-4.4375.59375"/><path fill="#00e8fc" fill-rule="evenodd" d="M197.26172 440.41797l-.07031-.03516.0703-.0625 4.4375-3.5625.1836-.8125 4.2539-2.80078 2.79688-1.63672 1.64063-1.35547 4.4414-.6875v2.97657l-4.4414.65234-4.4375 2.25781-.90234.59375.90234 1.3125 4.4375 1.46094 4.4414-1.14453 4.4375-.85938.76954-.76953-.76953-1.13672-4.4375-2.36718v-2.97657l3.78125 2.04297.65625.39453 2.73046 4.04297-2.73047 2.73438-4.4375.89062-2.26953.8125-2.17187 1.42578-4.4375-.12109-4.4375-.34766-4.4375-.92187"/><path fill="#00d4fc" fill-rule="evenodd" d="M206.13672 437.25781l-.90234-1.3125.90234-.59375 4.4375-2.25781v2.80469l-.10156.04687.10156.04688.375-.04688-.375-.04687v-2.80469l4.4414-.65234 4.4375 2.36718.76954 1.13672-.76953.76953-4.4375.85938-4.44141 1.14453-4.4375-1.46094"/><path fill="#00c4fc" fill-rule="evenodd" d="M210.57422 435.99219l-.10156-.04688.10156-.04687.375.04687-.375.04688"/><path fill="#fff" fill-opacity="0" fill-rule="evenodd" d="M219.45313 439.85938l-2.57813.52343 2.57813 1.74219 2.57812-1.74219-2.57813-.52344"/><path fill="#50fcfc" fill-rule="evenodd" d="M223.89063 460.35547l-2.22266-2.21875 2.22266-3.1875 4.4375-.5 1.01562-.75 3.42188-3.90625 4.4414.94922 2.80469 2.95703-1.73828 4.4375-1.0664.97265-4.44142.72266-2.14453 2.74219-2.29297 1.4414-2.23828-1.4414-2.19922-2.21875m4.4375-27.13672l-1.8125-1.71094 1.8125-3.44922 2.27344 3.44922-2.27344 1.71094m8.87891 2.76172l-.03125-.03516.03125-.02734.01953.02734-.01953.03516m44.38281 10.66797l-2.47265-1.82813 2.47265-2.10156 2.01563 2.10156-2.01563 1.82813m17.75391-10.24219l-.48438-.46094.48438-.4961.48828.4961-.48828.46094m57.69922-12l-1.52344-1.77734 1.52344-1.51172 1.61328 1.51172-1.61328 1.77734m17.75 51.96875l-.29688-.48438.29688-.30078.30469.30079-.3047.48437"/><g clip-path="url(#c)"><path fill="#50fcfc" fill-rule="evenodd" d="M467.9961 480.03906v.28906h-.26563l.26562-.28906"/></g><g clip-path="url(#d)"><path fill="#fff" fill-opacity="0" fill-rule="evenodd" d="M467.9961 311.67188H468v168.36718-168.36719h-.0039"/></g><g clip-path="url(#e)"><path fill="none" stroke="#000" stroke-linecap="round" stroke-linejoin="round" stroke-miterlimit="10" stroke-width=".5" d="M147.4961 479.98047l-6.9922.69531"/></g><g clip-path="url(#f)"><path fill="none" stroke="#000" stroke-linecap="round" stroke-linejoin="round" stroke-miterlimit="10" stroke-width=".5" d="M146.48047 480.08203l.67969 1.02344"/></g><g clip-path="url(#g)"><path fill="none" stroke="#000" stroke-linecap="round" stroke-linejoin="round" stroke-miterlimit="10" stroke-width=".5" d="M160.82813 480.26172l-7.02735.13281"/></g><g clip-path="url(#h)"><path fill="none" stroke="#000" stroke-linecap="round" stroke-linejoin="round" stroke-miterlimit="10" stroke-width=".5" d="M159.80469 480.28125l.59765 1.07422"/></g><g clip-path="url(#i)"><path fill="none" stroke="#000" stroke-linecap="round" stroke-linejoin="round" stroke-miterlimit="10" stroke-width=".5" d="M173.96875 479.23438l-6.67578 2.1875"/></g><g clip-path="url(#j)"><path fill="none" stroke="#000" stroke-linecap="round" stroke-linejoin="round" stroke-miterlimit="10" stroke-width=".5" d="M172.9961 479.55469l.88671.84765"/></g><g clip-path="url(#k)"><path fill="none" stroke="#000" stroke-linecap="round" stroke-linejoin="round" stroke-miterlimit="10" stroke-width=".5" d="M186.4336 477.84766l-4.97657 4.96093"/></g><path fill="none" stroke="#000" stroke-linecap="round" stroke-linejoin="round" stroke-miterlimit="10" stroke-width=".5" d="M185.71094 478.57031l1.17187.36328"/><g clip-path="url(#l)"><path fill="none" stroke="#000" stroke-linecap="round" stroke-linejoin="round" stroke-miterlimit="10" stroke-width=".5" d="M198.41406 477.01172l-2.3086 6.63672"/></g><path fill="none" stroke="#000" stroke-linecap="round" stroke-linejoin="round" stroke-miterlimit="10" stroke-width=".5" d="M198.07813 477.97656l1.21484-.1875"/><g clip-path="url(#m)"><path fill="none" stroke="#000" stroke-linecap="round" stroke-linejoin="round" stroke-miterlimit="10" stroke-width=".5" d="M212.60938 477.46484l-4.06641 5.73047"/></g><path fill="none" stroke="#000" stroke-linecap="round" stroke-linejoin="round" stroke-miterlimit="10" stroke-width=".5" d="M212.01563 478.29688l1.21875.15625"/><g clip-path="url(#n)"><path fill="none" stroke="#000" stroke-linecap="round" stroke-linejoin="round" stroke-miterlimit="10" stroke-width=".5" d="M226.22656 477.70313l-4.67187 5.25"/></g><path fill="none" stroke="#000" stroke-linecap="round" stroke-linejoin="round" stroke-miterlimit="10" stroke-width=".5" d="M225.54688 478.46875l1.1914.28906"/><g clip-path="url(#o)"><path fill="none" stroke="#000" stroke-linecap="round" stroke-linejoin="round" stroke-miterlimit="10" stroke-width=".5" d="M238.21094 476.96094l-2.01172 6.73437"/></g><g clip-path="url(#p)"><path fill="none" stroke="#000" stroke-linecap="round" stroke-linejoin="round" stroke-miterlimit="10" stroke-width=".5" d="M247.16406 479.28516l6.71094 2.08593"/></g><g clip-path="url(#q)"><path fill="none" stroke="#000" stroke-linecap="round" stroke-linejoin="round" stroke-miterlimit="10" stroke-width=".5" d="M264.85938 480.32813l-.01954-.19922-.05859-.19141-.09375-.17578-.46094-.3789-.1914-.0586-.19922-.01953-.19922.01953-.1914.0586-.46094.3789-.09375.17578-.0586.1914-.01953.19923.01953.19921.0586.19141.09375.17969.46093.375.1914.0586.19923.01952.19922-.01953.1914-.0586.46094-.375.09375-.17968.0586-.1914.01952-.19922"/></g><g clip-path="url(#r)"><path fill="none" stroke="#000" stroke-linecap="round" stroke-linejoin="round" stroke-miterlimit="10" stroke-width=".5" d="M277.4336 476.82813l-.5625 7.0039"/></g><g clip-path="url(#s)"><path fill="none" stroke="#000" stroke-linecap="round" stroke-linejoin="round" stroke-miterlimit="10" stroke-width=".5" d="M290.48828 476.8164l-.04687 7.02735"/></g><g clip-path="url(#t)"><path fill="none" stroke="#000" stroke-linecap="round" stroke-linejoin="round" stroke-miterlimit="10" stroke-width=".5" d="M302.0625 477.26563l3.4375 6.1289"/></g><g clip-path="url(#u)"><path fill="none" stroke="#000" stroke-linecap="round" stroke-linejoin="round" stroke-miterlimit="10" stroke-width=".5" d="M314.14844 478.41797l5.89453 3.82422"/></g><g clip-path="url(#v)"><path fill="none" stroke="#000" stroke-linecap="round" stroke-linejoin="round" stroke-miterlimit="10" stroke-width=".5" d="M327.13281 479.0625l6.55469 2.53516"/></g><g clip-path="url(#w)"><path fill="none" stroke="#000" stroke-linecap="round" stroke-linejoin="round" stroke-miterlimit="10" stroke-width=".5" d="M344.26563 483.80078l-1.07813-6.94531"/></g><g clip-path="url(#x)"><path fill="none" stroke="#000" stroke-linecap="round" stroke-linejoin="round" stroke-miterlimit="10" stroke-width=".5" d="M356.30469 483.76563l1.47265-6.8711"/></g><g clip-path="url(#y)"><path fill="none" stroke="#000" stroke-linecap="round" stroke-linejoin="round" stroke-miterlimit="10" stroke-width=".5" d="M369.59375 483.75781l1.52344-6.85937"/></g><g clip-path="url(#z)"><path fill="none" stroke="#000" stroke-linecap="round" stroke-linejoin="round" stroke-miterlimit="10" stroke-width=".5" d="M382.33203 483.57813l2.67969-6.4961"/></g><g clip-path="url(#A)"><path fill="none" stroke="#000" stroke-linecap="round" stroke-linejoin="round" stroke-miterlimit="10" stroke-width=".5" d="M395.3164 483.41797l3.33985-6.17969"/></g><g clip-path="url(#B)"><path fill="none" stroke="#000" stroke-linecap="round" stroke-linejoin="round" stroke-miterlimit="10" stroke-width=".5" d="M411.79688 483.50781l-2.9922-6.35937"/></g><g clip-path="url(#C)"><path fill="none" stroke="#000" stroke-linecap="round" stroke-linejoin="round" stroke-miterlimit="10" stroke-width=".5" d="M425.59766 483.23047l-3.96485-5.80078"/></g><g clip-path="url(#D)"><path fill="none" stroke="#000" stroke-linecap="round" stroke-linejoin="round" stroke-miterlimit="10" stroke-width=".5" d="M437.82422 483.72656l-1.78516-6.79687"/></g><g clip-path="url(#E)"><path fill="none" stroke="#000" stroke-linecap="round" stroke-linejoin="round" stroke-miterlimit="10" stroke-width=".5" d="M452.27344 483.19922l-4.05078-5.74219"/></g><g clip-path="url(#F)"><path fill="none" stroke="#000" stroke-linecap="round" stroke-linejoin="round" stroke-miterlimit="10" stroke-width=".5" d="M467.07422 480.44922l-7.02344-.24219"/></g><g clip-path="url(#G)"><path fill="none" stroke="#000" stroke-linecap="round" stroke-linejoin="round" stroke-miterlimit="10" stroke-width=".5" d="M466.05078 480.41406l.53906 1.10156"/></g><g clip-path="url(#H)"><path fill="none" stroke="#000" stroke-linecap="round" stroke-linejoin="round" stroke-miterlimit="10" stroke-width=".5" d="M147.35547 465.96484l-6.71094 2.09766"/></g><path fill="none" stroke="#000" stroke-linecap="round" stroke-linejoin="round" stroke-miterlimit="10" stroke-width=".5" d="M146.3789 466.26953l.8711.86328m13.57422-.28125l-7.01953.32422m6-.27734l.625 1.05469m13.45703-2.25782l-6.51172 2.63672m5.5625-2.2539l.9414.78906m12.59766-2.28906l-5.0625 4.87109m16.69922-5.84375l-1.70703 6.8164m1.45703-5.82421l1.1914-.29688m13.17188-.39062l-3.30078 6.20703m2.82031-5.30469h1.22657m12.97265-.64844l-4.10937 5.69922m17.67187-5.5039l-4.60156 5.30859m3.92969-4.53516l1.19531.27344m11.51172 1.60937l-.01953-.20312-.0586-.1914-.09375-.17579-.46093-.375-.19141-.0586-.19922-.01952-.19922.01953-.1914.0586-.45703.375-.09766.17577-.05469.19141-.01953.20313.01953.19921.05469.19141.09766.17578.45703.375.1914.0586.19922.01953.19922-.01953.1914-.0586.46094-.375.09375-.17578.0586-.1914.01953-.19923m9.75 2.42579l5.08594-4.85547m13.71093 4.35547l-5.875-3.85547m17.70703-1.26953l-2.91015 6.39453m16.11719-6.4414l-2.69532 6.48827m2.30078-5.54687l1.22266-.11328m13.7539.0664l-5.23046 4.69922m18.66406-4.5586l-5.46484 4.41798m13.76172.46093l4.5664-5.33984m12.05469 2.67188l-.01953-.20313-.0586-.1914-.09375-.17579-.45703-.375-.1914-.0586-.19922-.01952-.20313.01953-.1914.0586-.45703.375-.09375.17577-.0586.19141-.01953.20313.01953.19921.0586.19141.09375.17578.45703.375.1914.0586.20313.01953.19922-.01953.1914-.0586.45703-.375.09375-.17578.0586-.1914.01953-.19923m8.86719.77344l6.85547-1.55078m-5.85938 1.32422l-.80078-.92969m13.33984-1.05469l6.41407 2.8711m-5.48047-2.45313l-.08203-1.22265m12.15625 2.35156l7.02734-.22266m-6.0039.19141l-.60938-1.0664m13.02734 1.91796l6.77344-1.86328m-5.78906 1.59375l-.83985-.89453m14.08203 2.72656l4.95313-4.98828m-4.23438 4.26172l-1.17187-.35547m13.6289.9336l5.23047-4.69141m-4.46875 4.00781l-1.15234-.41797m14.26172 1.60547l4.11719-5.69922m-3.51563 4.8711l-1.21484-.16797m12.625-.83203l6.72265-2.04297m-5.74218 1.7461l-.86719-.8672"/><g clip-path="url(#I)"><path fill="none" stroke="#000" stroke-linecap="round" stroke-linejoin="round" stroke-miterlimit="10" stroke-width=".5" d="M146.83984 451.63281l-5.67968 4.13281"/></g><path fill="none" stroke="#000" stroke-linecap="round" stroke-linejoin="round" stroke-miterlimit="10" stroke-width=".5" d="M146.83984 451.63281l2.20703 1.07031m10.96875-1.25l-5.40234 4.4922m4.61719-3.83985l1.13672.46484m13.29297-.64844l-6.0625 3.5547m5.17968-3.03907l1.04688.64453m12.48828-1.98047l-4.73438 5.19531m4.04688-4.4375l1.1875.30079m13.29688-.51954l-5.69532 4.1172m4.86719-3.51954l1.09766.54297m12.71875-1.52734l-5.04688 4.89062m4.3125-4.17969l1.16797.37891m11.48828-1.97266l-2.25781 6.65625m1.92969-5.6875l1.21093-.19922m9.375-.3789l3.85547 5.875m-3.29297-5.01953l.58594-1.07813m15.3125-.13672l-2.4375 6.58985m2.08594-5.6289l1.21484-.16407m7.76563 1.9375l6.9375 1.125m6.35937-.98438l6.97656.84375m6.4336.4961l6.78125-1.83594m8.73828-2.39063l2.375 6.61329m-2.02734-5.64844l.82421-.91016m11.70313.14063l3.2539 6.22656m14.76954-4.80469l-6.16016 3.3789m5.26172-2.88671l1.02734.67187m11.8086-2.54687l-3.40625 6.14453m16.5586-6.22656l-3.08204 6.3125m13.3086-6.3125l3.09374 6.3086m9.4297-5.77345l4.67968 5.2422m-4-4.48048l.42578-1.15234m11.13281 2.19531l6.83203 1.63281m-5.83984-1.39453l-.3086-1.1875m12.58204 2.34375l6.92968-1.15625m-5.92187.98828l-.7461-.97656m13.33594 2.05078l6.3672-2.97265m-5.44142 2.54297l-.98046-.73829m13.18359.67579l6.73828-1.98438m-6.73828 1.98438l-1.71875-1.75391m15.23437 2.28125l6.33594-3.04297m-6.33594 3.04297l-1.97656-1.45313m15.10938.98438l6.70312-2.10547m-5.73047 1.80078l-.87109-.86328"/><g clip-path="url(#J)"><path fill="none" stroke="#000" stroke-linecap="round" stroke-linejoin="round" stroke-miterlimit="10" stroke-width=".5" d="M146.88281 438.375l-5.76562 4.01953"/></g><path fill="none" stroke="#000" stroke-linecap="round" stroke-linejoin="round" stroke-miterlimit="10" stroke-width=".5" d="M146.88281 438.375l2.1836 1.11719m10.39453-1.89063l-4.29297 5.5625m4.29297-5.5625l2.42187.41406m10.04688-.89453l-2.60156 6.52735m2.22265-5.57813l1.21875-.13672m10.95703-1.05859l.4375 7.01563m-.375-5.9922l1.04688-.64452m10.76953.03125l3.3086 6.19922m-2.82813-5.29688l.6875-1.01953m11.30469.74219l4.99218 4.9453m-4.26562-4.22655l.35547-1.17579m12.65625.09375l4.14843 5.67579m-3.54297-4.85157l.53516-1.10156m10.74219 2.88281l7.01172.46485m8.2461 2.91406l3.1289-6.29297m11.08984 6.59766l1.32031-6.90235m12.65625 6.96485v-7.02735m0 6.00391l-1.08593.57422m11.30078-1.41016l6.19922-3.3086m-5.29688 2.82423l-1.01953-.6836m20.01172-.01171l-6.96094-.95313m5.94922.8164l.42188 1.15235m13.38671-3.3789l-5.92578 3.77734m5.0625-3.23047l1.07031.60547m13.4961-.32813l-6.69922 2.125m5.72266-1.8164l.875.85937m13.14843-1.78906l-6.16406 3.3711m15.59766-5.10938l1.59765 6.84375m12.67188-6.92969l-.3086 7.01953m.26172-6l1.10938-.52734m9.35937.8125l5.47266 4.41015m-4.67578-3.76953l.23047-1.20312m12.51562.3086l5.01953 4.91796m-4.28906-4.20313l.34766-1.17578m11.50781 1.5547l6.47656 2.72655m-5.53515-2.32812l-.10938-1.22266m12.29688 1.40625l6.85156 1.5625m-5.85547-1.33594l-.32031-1.18359m12.57812 2.16016l6.97266-.84375m-6.97266.84375l-1.40625-2.01172m14.97266 2.96094l6.46875-2.7422m-6.46875 2.7422l-1.90625-1.54688m2.84765 1.14844L447 440.58203m13.41797 1.3711l6.28515-3.14063m-5.37109 2.6836l-1-.71094"/><g clip-path="url(#K)"><path fill="none" stroke="#000" stroke-linecap="round" stroke-linejoin="round" stroke-miterlimit="10" stroke-width=".5" d="M146.55078 424.65234l-5.10156 4.83203"/></g><path fill="none" stroke="#000" stroke-linecap="round" stroke-linejoin="round" stroke-miterlimit="10" stroke-width=".5" d="M146.55078 424.65234l2.32813.78125m9.96484-1.52734l-3.0586 6.32422m3.0586-6.32422l2.45313-.09766m9.91015-.20703l-1.15625 6.9336m1.15625-6.9336l2.32813-.77734m10.41015.73047v7.02734m0-6.0039L185.02734 424m8.98438 1.73437l6.5 2.66797m8.73437 1.91797l2.66016-6.5039m8.65625 4.3789l6.65625-2.2539m-5.6875 1.92578l-.89453-.83985m13.07031.3711l6.9961-.66016m-5.97657.5664l-.67578-1.02343m14.9414 3.94922l3.0586-6.32422M261.89453 430l3.8789-5.85938m-3.3125 5.00391l-1.22265-.11719m13.4414.53907l4.94141-4.9961m-4.22265 4.26953l-1.17578-.35156m13.6953 1l5.09767-4.83984m-4.35547 4.13672l-1.16407-.39063m13.88282 1.23828l4.80468-5.1289m-4.10546 4.3828l-1.1836-.3203m18.7461.92578l-5.08594-4.84766m19.32031 3.00781l-6.92969-1.16797m5.92188.9961l.39062 1.16406m7.39063.1211l6.15234-3.39454m9.86719 5.19141l.7461-6.98828m10.5078.96094l4.8672 5.0664m10.21874-5.98437l1.32813 6.90234m-1.13672-5.89844l.95703-.76953m14.96875.42969l-4.27734 5.57422m4.27734-5.57422l2.42188.40625m-3.04297.40625l1.21093.20312m12.23438-1.33203l-3.29688 6.20703m2.81641-5.30468h1.22656m13.5586-.1211l-5.27344 4.64453m4.5039-3.96875l1.14844.4336m10.90625-2.2461l-1.21484 6.91797m1.03906-5.91406l1.16797-.3789m9.30469.27734l4.82031 5.11328m-4.11719-4.36719l.39063-1.16406m11.77734 5.02344l5.71094-4.09766"/><g clip-path="url(#L)"><path fill="none" stroke="#000" stroke-linecap="round" stroke-linejoin="round" stroke-miterlimit="10" stroke-width=".5" d="M146.4336 411.21875l-4.8672 5.07031"/></g><path fill="none" stroke="#000" stroke-linecap="round" stroke-linejoin="round" stroke-miterlimit="10" stroke-width=".5" d="M146.4336 411.21875l2.35937.67188m-3.0664.0664l1.17968.33594m12.53906-1.33594l-4.25781 5.58985m4.25781-5.58985l2.42188.39844m-3.04297.41797l1.21094.19531M172 410.51953l-2.73828 6.46875M172 410.51953l2.44531-.21875m-2.84375 1.16016l1.22266-.10938m11.39844-1.10156l-.5547 7.00781m.5547-7.00781l2.25-.97656m10.6914.96875l.1914 7.02344m-.16405-6.00391l1.0664-.60547m10.07031.39453l4.4922 5.40235m-3.83595-4.61329l.46094-1.13671m11.5 1.1328l5.88672 3.83595m-5.02734-3.27735l.10937-1.22265m13.14063-.19532l4.30078 5.55469m-3.67578-4.7461l.5039-1.12109m11.2422 1.42188l6.1875 3.33203m-5.28517-2.84766l.00391-1.22656m12.01172 2.79297l6.98438-.76953m-5.96875.66015l-.69141-1.01562m13.44531 2.5039l6.07813-3.52734m-6.07813 3.52735l-2.08594-1.29297m14.9336-.2422l7.01172-.45312m-5.9922.38672l-.64452-1.04297m13.61718 2.96875l5.65235-4.17187m-4.82813 3.5664l-1.10547-.53124m14.46094 1.96484l3.92578-5.82813m-3.35547 4.98047l-1.21875-.1289m13.16016.22656l5.53516-4.32813m-4.73047 3.69922l-1.1211-.5m19.90625-.8789l-7.01953-.3125m14.81641 3.03906l4.01953-5.76563m12.38672-.46093l-2.16406 6.6875m14.50781-6.85547l-.21875 7.02344m11.61719-6.52344l3.61328 6.02344m-3.08985-5.14844l.63282-1.05078m15.72265.14453l-3.51562 6.08594m3.51562-6.08594l2.45313.08594m11.13672.08984l-4.0664 5.73047m4.0664-5.73047l2.4336.3164m-3.02345.51954l1.21485.15625m12.58593-1.0625l-3.85546 5.875m3.85546-5.875l2.44141.22656m10.8789-.22266l-3.86718 5.86719m3.86719-5.86719l2.4414.23047m11.83203.70703l-5.78125 3.99219"/><g clip-path="url(#M)"><path fill="none" stroke="#000" stroke-linecap="round" stroke-linejoin="round" stroke-miterlimit="10" stroke-width=".5" d="M466.45313 411.75781l2.17968 1.125"/></g><g clip-path="url(#N)"><path fill="none" stroke="#000" stroke-linecap="round" stroke-linejoin="round" stroke-miterlimit="10" stroke-width=".5" d="M146.04297 397.58203l-4.08594 5.71485"/></g><path fill="none" stroke="#000" stroke-linecap="round" stroke-linejoin="round" stroke-miterlimit="10" stroke-width=".5" d="M146.04297 397.58203l2.4336.32031m-3.02735.50782l1.21484.16406m12.60547-1.05469l-3.90625 5.83985m3.90625-5.83985l2.4414.2461m-3.01171.60156l1.22266.125m12.41406-1.125l-3.41406 6.14062m3.41406-6.14062l2.45312.04687m-2.94922.84766l2.45313.04297m11.54297-.82813l-3.78125 5.92188m3.78125-5.92188l2.44531.19531m-2.9961.66797l1.22266.09766m12.61328-.98047l-3.72265 5.96094m3.72265-5.96094l2.44922.17188m-2.98828.6953l1.22266.08595m11.30078-1.44532l-1.0586 6.94532m1.0586-6.94532l2.3125-.8125m10.8711.79688l-.79688 6.98047m.67969-5.96485l1.14453-.44921m13.48437-.20704l-3.1914 6.26172m3.1914-6.26172l2.45313-.04296m11.89062.83593l-5.25 4.67188m5.25-4.67188l2.30078.85547m10.76563-1.10937l-4.75 5.17968m4.0586-4.42578l1.1875.3086m6.95312 1.92187l6.98047-.78906m-5.96485.67578l-.69531-1.01172m13.20703 1.99219l6.5586-2.51953m-6.5586 2.51953l-1.85547-1.60938m15.1211 1.47657l6.65625-2.25782m-6.65625 2.25782l-1.78516-1.6836m14.91797.41016l7.01953.28906m-7.01953-.28906l-1.0625-2.21094m14.3789 2.17969l7.01954.35547m-6-.30469l-.51954-1.11328m12.98438 2.33594l6.67578-2.19141m-5.70313 1.8711l-.88671-.84766m15.5664 3.4375l2.0039-6.73438m-1.71093 5.75781l-1.20312.2422m16.375.6875l-2.29297-6.64063m1.95703 5.67578l-.83594.89844m16.83985-2.95704l-7-.58984m5.98046.5039l.48438 1.12891m13.47656-2.9414l-6.2539 3.20312m6.2539-3.20312l2.01172 1.40234m10.28906-2.60937l-4.22656 5.61718m3.61328-4.79687l1.21094.1875m12.08203-1.38672l-2.95313 6.375m2.95313-6.375l2.44922-.13281m10.98437.1914l-3.1914 6.25782m3.1914-6.25782l2.45313-.04296m11.08594.16796l-3.64063 6.00782m3.64063-6.00782l2.44921.13672m11.92188.85156l-5.7539 4.03516"/><g clip-path="url(#O)"><path fill="none" stroke="#000" stroke-linecap="round" stroke-linejoin="round" stroke-miterlimit="10" stroke-width=".5" d="M466.4375 398.42188l2.1875 1.11328"/></g><g clip-path="url(#P)"><path fill="none" stroke="#000" stroke-linecap="round" stroke-linejoin="round" stroke-miterlimit="10" stroke-width=".5" d="M145.58984 383.98828l-3.17968 6.26953"/></g><path fill="none" stroke="#000" stroke-linecap="round" stroke-linejoin="round" stroke-miterlimit="10" stroke-width=".5" d="M145.58984 383.98828l2.45313-.04687m10.98437.11328l-3.42187 6.13672m3.42187-6.13672l2.45313.04687m11.16016.14063l-4.01954 5.76172m4.01953-5.76172l2.4375.29297m-3.02343.54687l1.21875.14453m13.39062-.33203l-5.4375 4.45703m5.4375-4.45703l2.26172.94922m-3.05469-.30078l1.13282.47265m13.33593-.58203l-6.16015 3.37891m6.16015-3.3789l2.0547 1.34765m-2.94923-.85547l2.05078 1.34766m12.1211-1.90625l-6.08594 3.51172m6.08594-3.51172l2.08203 1.30078m-2.96484-.78906l1.03906.64843m13.60156.15235l-6.96875.88672m6.96875-.88672l1.41797 2.0039m-2.42969-1.875l.70703 1m13.50781-1.67578l-6.74609 1.98047m6.7461-1.98047l1.71484 1.75781m-2.69531-1.46875l.85547.87891m13.32812-1.48437l-6.52344 2.61328m6.52344-2.61328l1.875 1.58203m-2.82422-1.20313l1.875 1.58203m12.53516-1.51953l-6.8125 1.73047m6.8125-1.73047l1.64844 1.82031m-2.64063-1.5664l1.64844 1.8164m-2.64063-1.5664l.82422.91015m14.57422-.76562l-7.01172.4336m7.01172-.4336l1.28516 2.08984m-2.3047-2.02734l1.28517 2.09375m12.96093-1.1211l-6.83594-1.63671m6.83594 1.63672l.61719 2.375m12.78516-2.95313l-7.00782-.48047m5.98829.41016l.5 1.1211m11.66406-4.54298l-2.66797 6.50391m2.28125-5.55469l1.21875-.125m7.6875 3.03906l6.92187-1.22265m-5.91406 1.04297l-.7539-.96485m18.01953 3.71485l-2.9922-6.35938m2.5547 5.4336l-.73438.98046m14.55469-.08984l-3.1289-6.29297m3.1289 6.29297l-1.42578 1.9961m16.4336-3.82813l-6.51563-2.6289m5.5703 2.24609l.12892 1.21875m14.2539-3.10938l-6.75781 1.92188m6.75781-1.92188l1.69922 1.76563m10.84375-3.16406l-5.21484 4.71484m5.21484-4.71485l2.30469.83594m-3.0664-.14844l1.15624.41797m12.41016-1.5664l-4.19531 5.63672m4.1953-5.63672l2.42579.36719m9.65625-.95313l-1.73047 6.8086m1.73047-6.8086l2.38672-.58203m9.70312.49219l.72266 6.98828m-.72266-6.98828l2.03906-1.3672m12.17579 1.39063l-1.07422 6.94141m1.07422-6.9414l2.3164-.8086m12.83985 1.69531l-4.76172 5.16797m4.07031-4.41797l1.1875.3125"/><g clip-path="url(#Q)"><path fill="none" stroke="#000" stroke-linecap="round" stroke-linejoin="round" stroke-miterlimit="10" stroke-width=".5" d="M143.91016 370.29688l.17968 7.02343"/></g><g clip-path="url(#R)"><path fill="none" stroke="#000" stroke-linecap="round" stroke-linejoin="round" stroke-miterlimit="10" stroke-width=".5" d="M143.9375 371.3164l1.0664-.60156"/></g><path fill="none" stroke="#000" stroke-linecap="round" stroke-linejoin="round" stroke-miterlimit="10" stroke-width=".5" d="M157.5586 370.30469l-.48438 7.00781m.41406-5.98828l1.11719-.5m12.86328-.42578l-1.67969 6.82031m1.4375-5.82813l1.1875-.30078m13.90235.125l-4.7422 5.1836m4.7422-5.1836l2.3789.6172m11.53516.09765l-5.9375 3.75781m5.9375-3.75781l2.1289 1.21484m-2.99218-.66797l1.0625.60547m13.4414-.48828l-6.59375 2.42969m6.59375-2.42969l1.83203 1.63672m11.64063-1.07422l-6.90625 1.30469m6.90625-1.30469l1.53125 1.91406m11.35938-3.04297l-6.0586 3.5586m6.0586-3.5586l2.08984 1.28516m10.71094-1.95703l-5.03125 4.90625m5.03125-4.90625l2.33593.7461m11.20313-.4961l-5.47656 4.40625m5.47656-4.40625l2.2539.96484m11.7461.45313l-6.84766 1.5664m5.85156-1.33593l.8047.92578m13.55859-.89453l-6.94922 1.04687m6.94922-1.04687l1.46093 1.97265m11.7422-2.46094l-6.73048 2.02344m6.73047-2.02344l1.72656 1.7422m-2.70312-1.44923l.86328.875m13.3125-1.49609l-6.4961 2.67969m6.4961-2.67969l1.89062 1.5625m-2.83593-1.17188l.94531.78125m13.41406-.90625l-6.6914 2.14844m6.6914-2.14844l1.75781 1.71094m-2.73437-1.39844l.88281.85547m11.70313 3.01172l-3.28125-6.21484m3.28125 6.21484l-1.3789 2.03125m14.91015-2.15625l-3.71485-5.96484m3.17578 5.09765l-.61718 1.0625m15.8125-1.72265l-6.39844-2.90625m6.39844 2.90625l.15625 2.44531m13.46875-4.10937l-7.01563.42187m7.01563-.42187l1.27734 2.09375m11.76563-3.25391l-6.47266 2.74219m6.47266-2.74219l1.90625 1.54688m-2.84766-1.14844l.95312.77344m12.58985-2.2461l-5.04297 4.89063m5.04297-4.89063l2.33594.75m-3.07032-.03906l1.16797.375m11.09375-2.07813l-1.47265 6.8711m1.47265-6.8711l2.35938-.67187m9.85156.61328l.73828 6.98828m-.73828-6.98828l2.03516-1.3711m11.89843 1.36329l-.5 7.00781m.5-7.00781l2.2422-.9961m11.57421 1.06641l-1.5 6.86719m1.28125-5.86719l1.17969-.33203"/><g clip-path="url(#S)"><path fill="none" stroke="#000" stroke-linecap="round" stroke-linejoin="round" stroke-miterlimit="10" stroke-width=".5" d="M141.24219 358.3164l5.51562 4.35548"/></g><path fill="none" stroke="#000" stroke-linecap="round" stroke-linejoin="round" stroke-miterlimit="10" stroke-width=".5" d="M154.04688 359.20313l6.53515 2.57812m-5.58594-2.20313l-.13672-1.21875m12.26954 1.85938l7.0039.54688m-5.98437-.46485l-.49219-1.125m14.10547-1.4336l4.36719 5.50391m-3.73438-4.70312l.49219-1.125m16.8789.61328l-5.01171 4.92578m4.28125-4.21094l1.17187.3672m13.36719-.45313l-5.9961 3.66796m5.1211-3.1328l1.0586.62109m13.37109-.6836l-6.47657 2.71875m5.53516-2.32422l.94922.77735m12.2539-2.5625l-4.37109 5.5m3.73438-4.69922l1.20703.22265m10.57031-1.78515l-.01953 7.02734m11.9375-6.74219l2.77344 6.45704m-2.3711-5.51954l.76953-.95703m12.78125-.1875l1.4961 6.8672m-1.27735-5.8672l.9375-.79296m11.72657-.08204l2.36328 6.6172m-2.01953-5.65235l.82421-.90625m12.1836-.07031l2.28906 6.64453m-1.95703-5.6797l.83594-.89452m15.66797.66406l-4.75391 5.17188m4.0625-4.41797l1.1875.30859m13.07031-.80469l-5.25781 4.66016m4.4961-3.98438l1.14843.4297m13.7539.57812l-6.90624 1.29296m5.90234-1.10546l.76563.95703m13.11328 1.30469l-6.02735-3.60938m5.15235 3.08594l-.0625 1.22265m13.16406.4375l-3.85156-5.8789m3.85156 5.8789l-1.17969 2.14844m15.14844-2.70312l-5.16016-4.76954m5.16016 4.76954l-.6211 2.37109m14.83594-4.26563l-6.95703-.98046m6.95703.98046l.83985 2.3047m-1.85157-2.44923l.41797 1.15235m13.70313-2.77344l-6.54688 2.55078m6.54688-2.55078l1.85937 1.59766m-2.8125-1.22657l.9297.80079m12.55077-2.38282l-4.96875 4.96875m4.96875-4.96875l2.34766.71875m-3.07031.0039l1.17187.35938m11.80078-1.80859l-2.83984 6.42578m2.83984-6.42578l2.44922-.17969m10.10547-.0586l-1.32031 6.90235m1.1289-5.89844l1.17188-.36328m11.35156-.6875l.64844 6.9961m-.55469-5.98047l1.02344-.67188"/><g clip-path="url(#T)"><path fill="none" stroke="#000" stroke-linecap="round" stroke-linejoin="round" stroke-miterlimit="10" stroke-width=".5" d="M140.91406 345.4961l6.17188 3.36327"/></g><path fill="none" stroke="#000" stroke-linecap="round" stroke-linejoin="round" stroke-miterlimit="10" stroke-width=".5" d="M153.88281 346.42578l6.86328 1.5039m-5.86328-1.28515l-.33203-1.17969m12.86328 3.13282l6.42969-2.83985m-6.42969 2.83985l-1.92578-1.51563m14.94531.13672l7.02344-.08203m-7.02344.08203l-1.17968-2.15234m15.125.10156l5.76562 4.01953m-4.92969-3.4336l.14844-1.21874m12.5039.40234l5.41798 4.48047m-4.62891-3.82813l.2461-1.19921m14.98827-.72657v7.02735m9.89454-4.32422l6.83984 1.6211m7.38281-3.26563l5.02735 4.91015m-4.29688-4.19531l.34375-1.17578m11.96875.77344l5.57031 4.28515m-4.7578-3.66015l.20312-1.21094m11.82422 1.41406l6.51953 2.6289m-6.51953-2.6289l-.25782-2.4414m13.70703 2.14843l6.25 3.21485m-6.25-3.21485l-.03125-2.45312m13.32813 2.48828l6.28515 3.14453m-6.28515-3.14453l-.0586-2.45313m13.19141 2.89844l6.65234 2.2539m-6.65234-2.2539l-.39844-2.42187m15.17578.5703l3.72657 5.95704m-3.1836-5.08984l.61328-1.0625m13.62891-.31641l.78516 6.98047m-.66797-5.96485l1.01172-.6953m15.78125 1.71874l-6.40235 2.90235m5.46875-2.48047l.97266.75m9.52734 3.75l1.09375-6.9414m-1.09375 6.9414l-2.3164.80078m17.3125-.94531l-2.26563-6.65235m2.26563 6.65235l-1.67969 1.78906m1.35156-2.75781l-.83984.89453m16.01953-.96875l-5.33984-4.5664m5.33984 4.5664l-.53125 2.39453m-.2461-3.0586l-.26562 1.19922m15.19531-2.59375l-7.01172-.44921m7.01172.44921l1.00782 2.23829m-2.02735-2.30079l.5039 1.1172m13.52735-2.71876l-6.41015 2.8789m6.41015-2.8789l1.9414 1.5039m-2.87109-1.08593l.96875.7539m12.40625-2.35546l-4.66796 5.25m4.66796-5.25l2.38672.57812m-3.0664.1836l1.19531.28906m13.57422-.0625l-6.21875 3.26953m6.21875-3.26953l2.02734 1.38281m11.42188-1.10156l-6.48438 2.70703"/><g clip-path="url(#U)"><path fill="none" stroke="#000" stroke-linecap="round" stroke-linejoin="round" stroke-miterlimit="10" stroke-width=".5" d="M466.80469 345.82422l1.89844 1.55469"/></g><g clip-path="url(#V)"><path fill="none" stroke="#000" stroke-linecap="round" stroke-linejoin="round" stroke-miterlimit="10" stroke-width=".5" d="M145.58203 330.72656L142.41797 337"/></g><path fill="none" stroke="#000" stroke-linecap="round" stroke-linejoin="round" stroke-miterlimit="10" stroke-width=".5" d="M145.58203 330.72656l2.45313-.05469m9.59765-.30859l-.63672 7m.54297-5.98047l1.13281-.47656m8.48829 3.5l6.9414-1.08984m-5.9336.93359l-.73437-.98047m13.01172.27344l7 .64062m-5.98047-.54687l-.47656-1.1289m12.77344 1.01952l6.9961.66797m-5.97657-.57031l-.47266-1.13281m12.77344 1.75l6.98828-.75781m-5.97265.64843l-.6875-1.01562m12.96875.67187l7.02343.14844m-6.0039-.1289l-.55078-1.09376m12.98828.15625l6.73828 1.98438m-5.75781-1.69531l-.2461-1.20313m12.53906 1.07031l6.82422 1.67188m-6.82422-1.67188l-.60546-2.3789m13.94922 2.26172l6.76562 1.90625m-6.76563-1.90625l-.51953-2.39844m13.84766 2.36328l6.74219 1.97656m-6.74219-1.97656l-.4961-2.40625m1.47657 2.6914l-.25-1.19921m12.54687 1.05078l6.81641 1.70312m-6.8164-1.70312l-.59376-2.38281m1.58594 2.6289l-.29687-1.1914m12.60156 1.01562l6.85156 1.5625m-6.85156-1.5625l-.64063-2.3711m1.63672 2.59766l-.32031-1.18359m12.57812 1.3125l6.97266.85156m-6.97266-.85156l-.8828-2.28906m1.89452 2.41406l-.4375-1.14453m12.7461.95703l6.96093.97656m-6.96093-.97656l-.83594-2.30469m1.85156 2.44531l-.83984-2.30468m13.38281 1.28515l6.47656 2.73438m-6.47656-2.73438l-.21875-2.4414m1.16016 2.83984l-.10938-1.22265m12.51953.74218l6.40235 2.89844m-6.40235-2.89844l-.15625-2.44922m15.23438 7.10547l2.875-6.41406m-2.45703 5.48047l-1.22266.08203m14.40234.96094l2.3125-6.63672m-2.3125 6.63672l-2.42578.3789m2.76172-1.34375l-1.21094.1875m16.0586.90235l-1.42578-6.88281m1.42578 6.8828l-1.88672 1.56641m1.67969-2.5703l-.94532.78515m16.4922-1.01953l-5.47266-4.40625m5.47265 4.40625l-.46484 2.41015m-.33203-3.05078l-.23047 1.20313m15.08594-2.29688l-6.96485-.9375m6.96485.9375l.85156 2.30078m-1.86328-2.4375l.42578 1.15235m13.8711-2.13282l-6.90626 1.29688m6.90625-1.29688l1.53516 1.91407m-2.53906-1.72657l.76562.95704m13.41016-1.67579l-6.61719 2.35938m6.61719-2.35938l1.8125 1.65235m-2.77344-1.3086l.90625.82422m13.29297-1.3711l-6.46094 2.76563"/><g clip-path="url(#W)"><path fill="none" stroke="#000" stroke-linecap="round" stroke-linejoin="round" stroke-miterlimit="10" stroke-width=".5" d="M466.79297 332.48047l1.91015 1.53515"/></g><g clip-path="url(#X)"><path fill="none" stroke="#000" stroke-linecap="round" stroke-linejoin="round" stroke-miterlimit="10" stroke-width=".5" d="M146.70703 318.3086l-5.41406 4.48046"/></g><path fill="none" stroke="#000" stroke-linecap="round" stroke-linejoin="round" stroke-miterlimit="10" stroke-width=".5" d="M146.70703 318.3086l2.26953.93359m10.67188-1.32031l-4.66797 5.2539m4.66797-5.2539l2.38281.57812m10.01563-1.16797l-2.83204 6.42969m2.41797-5.49219l1.22656-.08984m10.84375-1.13672l.48438 7.01172m-.41406-5.99219l1.03906-.64844m11.3086-.1914l2.27734 6.64843m-1.94531-5.67968l.83984-.89454m11.21094.41407l4.14453 5.67578m-3.54297-4.85156l.53516-1.10157m12.48828.07422l3.52343 6.07813m-3.01172-5.19531l.64844-1.03907m11.82031.3789l4.19532 5.63673m-4.19531-5.63672l1.04687-2.21875m11.80078 2.63281l5.1289 4.80469m-5.1289-4.80469l.64063-2.36719m12.19922 3.00782l6.07812 3.52343m-6.07813-3.52343l.08985-2.44922m.79297 2.96094l.04687-1.22266m12.33203.80469l6.1836 3.33984m-6.1836-3.33984l.01563-2.45313m.88281 2.9375l.00781-1.22656m12.32032.92187l6.36328 2.98047m-6.36328-2.98047l-.125-2.45312m1.05078 2.88672l-.0625-1.22656m12.49218.70312l6.28125 3.15625m-6.28125-3.15625l-.05468-2.45313m.96875 2.91407l-.02735-1.22656m12.35547.92187l6.42578 2.84375m-6.42578-2.84375l-.17578-2.44531m1.10938 2.85937l-.08594-1.22265m12.29687 1.28906l6.76953 1.88672m-6.76953-1.88672l-.52734-2.39844m1.51172 2.67188l-.26563-1.19922m12.48438 1.5l6.98828.73437m-6.98828-.73437l-.91797-2.27344m1.9375 2.38281l-.46094-1.14062m12.73828 1.33984l7.02735.11719m-7.02735-.11719l-1.11328-2.1836m14.65625 3.48438l6.57422-2.48047m-6.57422 2.48047l-1.84375-1.6211m16.5 3.3047l3.89063-5.85157m-3.89063 5.85157l-2.4414-.23829m16.51171.6211l2.375-6.61328m-2.375 6.61328l-2.42578.35156m2.77344-1.3164l-2.42969.35546m17.03907.78516l-.90625-6.96875m.90625 6.96875l-2 1.42188m1.86718-2.4336l-.99609.71094m16.2461-.48828l-4.51173-5.38672m4.51172 5.38672l-.92187 2.27344m.26562-3.0586l-.46093 1.13672m15.3828-1.60938l-6.41015-2.87109m6.41016 2.8711l.16797 2.44921m13.44922-3.67578l-7.01563-.42187m7.01563.42187l1.01953 2.23438m12.1914-3.32422l-6.80468 1.76172"/><g clip-path="url(#Y)"><path fill="none" stroke="#000" stroke-linecap="round" stroke-linejoin="round" stroke-miterlimit="10" stroke-width=".5" d="M466.96484 319.66797l1.65625 1.8086"/></g><path fill="#00f" fill-rule="evenodd" d="M392.67578 467.64844h8.6211V457.5039h-8.6211v10.14453"/><path fill="azure" fill-rule="evenodd" d="M394.51172 459.33594h.83203v2.82422h3.28516v-2.82422h.83203v6.48047h-.83203v-2.91797h-3.28516v2.91797h-.83203v-6.48047"/><path fill="#00f" fill-rule="evenodd" d="M383.80078 432.14063h8.61719v-10.14454h-8.61719v10.14454"/><path fill="azure" fill-rule="evenodd" d="M385.63281 423.82813h.83203v2.82421h3.28907v-2.82421h.83203v6.48046h-.83203v-2.91796h-3.28907v2.91796h-.83203v-6.48046"/><path fill="#00f" fill-rule="evenodd" d="M219.58203 418.82813h8.61719v-10.14844h-8.61719v10.14844"/><path fill="azure" fill-rule="evenodd" d="M221.41406 410.51172h.83203v2.82422h3.28907v-2.82422h.83203v6.48047h-.83203v-2.91406h-3.28907v2.91406h-.83203v-6.48047"/><path fill="#00f" fill-rule="evenodd" d="M370.48438 401.07422h8.62109v-10.14844h-8.6211v10.14844"/><path fill="azure" fill-rule="evenodd" d="M372.3164 392.76172h.83594v2.82031h3.28516v-2.82031h.83203v6.47656h-.83203v-2.91406h-3.28516v2.91406h-.83593v-6.47656"/><path fill="#ff3030" fill-rule="evenodd" d="M335.67188 392.19531h7.6953v-10.14453h-7.6953v10.14453"/><path fill="azure" fill-rule="evenodd" d="M337.5039 383.88281h.83594v5.73828h3.19141v.7422h-4.02734v-6.48048"/><path fill="#ffffe0" fill-rule="evenodd" d="M315.11328 355.42578h22.17969v-10.19531h-22.17969v10.19531"/><path fill-rule="evenodd" d="M318.61328 347.0664h.50781v6.29298h-.78515v-4.48829h-1.39063v-.55468l.5625-.06641.25-.05469.23047-.08984.20313-.14063.17578-.21093.14062-.29297.10547-.39453m4.8125 0l.23047.01953.21875.05469.20703.08984.19922.1211.1836.14843.17187.17578.30078.41797.24219.4961.17969.54687.11328.57812.03515.58985-.03515.59375-.11329.58594-.17968.55078-.24219.5039-.30078.42578-.17188.1797-.18359.15624-.19922.1211-.20703.09375-.21875.05468-.23047.01953-.22656-.01953-.21875-.05469-.21094-.09375-.19531-.12109-.1836-.15625-.17187-.17969-.30078-.42578-.2461-.5039-.17968-.55079-.10938-.58593-.03906-.59375h.83203l.03125.5625.08203.50781.125.4414.16406.375.1875.30079.21094.22265.22266.13672.22656.04688.22656-.04688.22266-.13672.21094-.22265.1914-.30078.16407-.375.125-.44141.08203-.50781.02734-.5625-.02734-.5625-.08203-.5-.125-.4336-.16407-.36718-.1914-.29297-.21094-.21094-.22266-.13281-.22656-.04688-.22656.04688-.22266.13281-.21094.21094-.1875.29297-.16406.36718-.125.4336-.08203.5-.03125.5625h-.83203l.03906-.58985.10938-.57812.17969-.54688.24609-.49609.30078-.41797.17188-.17578.18359-.14844.19531-.1211.21094-.08983.21875-.0547.22656-.01952m5.09375 0h.50781v6.29296h-.78515v-4.48828h-1.39063v-.55468l.5586-.06641.2539-.05469.23047-.08984.20313-.14063.17187-.21093.14453-.29297.10547-.39453m2.82031 2.17578h.78907l.01953-.3164.0586-.28907.10155-.25.13672-.21485.1836-.17578.22265-.1289.26563-.08203.3086-.02735.23827.02344.22266.0625.20312.10156.1797.13672.14843.17578.11328.20313.07031.23828.02735.26172-.02344.26953-.0664.22656-.10938.1914-.15625.17188-.19922.16016-.2461.16797-.63671.38672-.53516.3164-.4375.3164-.34766.32423-.26171.33594-.19141.35156-.125.36719-.07031.39453-.01954.41796h4.21094v-.73828h-3.33203l.08203-.28515.11328-.23828.14844-.19922.1875-.17969.23047-.17188.28125-.17578.71484-.41796.41797-.20704.34375-.23046.28125-.25.21875-.26563.16406-.28125.11329-.28125.0625-.28516.01953-.28125-.04297-.3828-.11719-.34767-.1914-.30859-.25-.26172-.30079-.21484-.34765-.15625-.3789-.10156-.40626-.03125-.4375.03125-.39844.09765-.35156.16797-.30469.23438-.25.30468-.1875.375-.11328.44532-.04297.51953"/><path fill="#ffffe0" fill-rule="evenodd" d="M252.04688 410.17969h22.17968v-10.1914h-22.17969v10.1914"/><path fill-rule="evenodd" d="M255.54688 401.82031h.5078v6.29688h-.78515v-4.48828h-1.39062v-.5586l.5625-.0625.25-.05469.23047-.08984.20312-.14062.17578-.21094.14063-.29297.10547-.39844m4.8125 0l.23046.01953.21875.0586.20704.08594.1953.12109.1875.15234.16798.17578.30468.41797.2422.49219.17968.54688.11328.58203.03516.58984-.03516.59375-.11328.58203-.17969.55469-.24219.5039-.30468.42579-.16797.17968-.1875.15235-.19531.125-.20704.09375-.21875.05469-.23046.01953-.23047-.01954-.21875-.05468-.20704-.09375-.1953-.125-.1836-.15235-.17188-.17968-.30078-.42579-.2461-.5039-.17968-.55469-.10937-.58203-.03907-.59375h.83204l.03125.5625.08203.5039.125.44532.16015.375.1914.30078.21095.21875.22265.13672.22656.04687.22657-.04687.22265-.13672.21094-.21875.1914-.30078.16016-.375.12891-.44531.08203-.50391.02735-.5625-.02735-.5625-.08203-.5-.1289-.4336-.16016-.36718-.1914-.29297-.21095-.21484-.22265-.12891-.22656-.04688-.22657.04688-.22265.1289-.21094.21485-.1914.29297-.16016.36719-.125.43359-.08204.5-.03125.5625h-.83203l.03907-.58984.10937-.58204.17969-.54687.2461-.49219.30077-.41797.17188-.17578.1836-.15234.1953-.1211.20704-.08593.21875-.0586.23046-.01953m5.09375 0h.50782v6.29688h-.78906v-4.48828h-1.38672v-.5586l.55859-.0625.2539-.05469.23048-.08984.20312-.14062.17188-.21094.14062-.29297.10938-.39844m2.8203 2.17578h.78907l.01953-.3164.0586-.28516.09765-.2539.14063-.21485.18359-.17187.22266-.12891.26562-.08203.3086-.02735.23437.02344.22656.0625.20313.10156.17969.13672.14843.17188.11328.20703.07032.23828.02734.26172-.02344.26953-.0664.22266-.10938.19531-.15625.16797-.19922.16406-.2461.16406-.63671.39063-.53516.3125-.4375.3164-.34765.32422-.26563.33594-.1875.35156-.125.3711-.07031.39453-.01953.41797h4.21094v-.74219h-3.33204l.08204-.28125.11328-.23828.14844-.20313.1875-.17968.23046-.17188.28125-.17578.71485-.41406.41406-.20703.34766-.23047.28125-.25.21875-.26953.16406-.27735.10937-.28515.06641-.28125.01953-.28125-.04297-.38672-.1211-.34766-.1875-.30469-.25-.26562-.30468-.21094-.34375-.16015-.3789-.09766-.40625-.03516-.4375.03516-.39844.09765-.35547.16797-.30469.23438-.2461.30078-.1875.375-.11327.44922-.04297.51562"/><path fill="#ffffe0" fill-rule="evenodd" d="M332.86719 464.67578h22.17969v-10.1914h-22.1797v10.1914"/><path fill-rule="evenodd" d="M336.36719 456.3164h.50781v6.29688h-.78516V458.125h-1.39062v-.5586l.5625-.0625.25-.05468.23047-.08985.20312-.14062.17578-.21094.14063-.29297.10547-.39843m4.8125 0l.23047.01953.21875.0586.20703.08983.19531.1172.1875.15234.16797.17578.30469.41797.24218.49218.1797.54688.11327.58203.03516.58984-.03516.59375-.11328.58204-.17969.55468-.24218.5039-.3047.42579-.16796.17969-.1875.15234-.19531.125-.20703.09375-.21875.05469-.23047.01953-.23047-.01953-.21875-.05469-.20703-.09375-.19531-.125-.1836-.15234-.17187-.17969-.30079-.42578-.24609-.5039-.17969-.5547-.10937-.58203-.03906-.59375h.83203l.03125.5625.08203.50782.125.4414.16015.375.19141.30078.21094.21875.22265.13672.22657.04688.22656-.04688.22266-.13672.21093-.21875.19141-.30078.16016-.375.1289-.4414.08203-.50782.02735-.5625-.02735-.5625-.08203-.5-.1289-.43359-.16016-.36719-.1914-.29297-.21094-.21484-.22266-.1289-.22656-.04688-.22656.04687-.22266.12891-.21094.21484-.1914.29297-.16016.36719-.125.4336-.08203.5-.03125.5625h-.83203l.03906-.58985.10937-.58203.1797-.54688.24608-.49218.30079-.41797.17187-.17578.1836-.15235.1953-.11719.20704-.08984.21875-.0586.23047-.01952m5.09375 0h.50781v6.29687h-.78906V458.125h-1.38672v-.5586l.5586-.0625.2539-.05468.23047-.08985.20312-.14062.17188-.21094.14062-.29297.10938-.39843m2.82031 2.17578h.78906l.01953-.3164.0586-.28517.09765-.2539.14063-.21485.1836-.17187.22265-.1289.26562-.08204.3086-.02734.23437.02344.22656.0625.20313.10156.17969.13672.14844.17578.11328.20312.0703.23829.02735.26171-.02344.26954-.0664.22656-.10938.1914-.15625.17188-.19921.16015-.2461.16797-.63672.38672-.53515.3125-.4375.3164-.34766.32423-.26172.33594-.1914.35156-.125.3711-.07032.39452-.01953.41797h4.21094v-.74219h-3.33203l.08203-.28125.11328-.23828.14844-.20312.1875-.17969.23047-.17188.28125-.17578.71484-.41406.41797-.20703.34375-.23047.28125-.25.21875-.26953.16406-.27734.10938-.28125.0664-.28516.01953-.28125-.04296-.38672-.1211-.34765-.1875-.3047-.25-.26562-.30078-.21094-.34766-.16015-.3789-.09766-.40625-.03515-.4375.03515-.39844.09766-.35547.16797-.30469.23437-.24609.30469-.1875.3711-.11328.44921-.04297.51563"/><path fill="#ffffe0" fill-rule="evenodd" d="M399.4414 421.08203h22.1797v-10.1914h-22.1797v10.1914"/><path fill-rule="evenodd" d="M402.9414 412.72266h.50782v6.29296h-.78516v-4.48828h-1.38672v-.55468l.5586-.06641.25-.05469.23047-.08984.20312-.14063.17578-.21093.14063-.29297.10547-.39453m4.8125 0l.23046.01953.21875.05469.20704.08984.19921.1211.1836.14843.17187.17578.30079.41797.24218.4961.17969.54687.11328.57812.03906.58985-.03906.59375-.11328.58594-.17969.55078-.24219.5039-.30078.42969-.17187.17969-.1836.15234-.19921.1211-.20704.09375-.21875.05859-.23046.01953-.22657-.01953-.21875-.0586-.21093-.09375-.19532-.12109-.18359-.15234-.17188-.17969-.30078-.42969-.24218-.5039-.1797-.55079-.11327-.58593-.03906-.59375h.83593l.02735.5625.08203.50781.125.4414.16406.375.1914.30079.20704.22265.22265.13672.22657.04688.22656-.04688.22265-.13672.21094-.22265.1914-.30078.16407-.375.125-.44141.08203-.50781.02735-.5625-.02735-.5586-.08203-.5039-.125-.4336-.16406-.36718-.1914-.28907-.21094-.21484-.22266-.13281-.22656-.04297-.22657.04297-.22265.13281-.20703.21484-.19141.28907-.16406.36718-.125.4336-.08203.5039-.02735.5586h-.83594l.03907-.58985.11328-.57812.17969-.54688.24218-.49609.30079-.41797.17187-.17578.1836-.14844.1953-.1211.21094-.08983.21875-.0547.22657-.01952m5.09375 0h.5078v6.29296h-.78515v-4.48828h-1.39062v-.55468l.5625-.06641.25-.05469.23047-.08984.20312-.14063.17578-.21093.14063-.29297.10547-.39453m2.82421 2.17578h.78516l.01953-.3164.0586-.28517.10156-.2539.14062-.21485.1797-.17578.22265-.1289.26562-.07813.3086-.02734.23828.01953.22265.0625.20313.10156.17969.14063.14843.17187.11329.20703.07421.23438.02344.26562-.02344.26563-.0625.22656-.11328.1914-.15234.17188-.20313.16016-.24609.16797-.63281.39062-.53906.3125-.4375.3164-.34766.32423-.26172.33594-.1914.35156-.125.36719-.07032.39453-.01953.41796h4.21094v-.73828h-3.33203l.08593-.28515.11329-.23828.14843-.19922.1875-.17969.23047-.17188.27735-.17578.71875-.41796.41406-.20313.34375-.23047.28125-.2539.21875-.26563.16406-.27734.11328-.28516.0625-.28516.01953-.28125-.03906-.3828-.1211-.34767-.1914-.30859-.25-.26172-.30078-.21484-.34766-.15625-.3789-.09766-.40625-.03515-.4336.03125-.39844.10156-.35546.16406-.3047.23438-.25.30468-.18358.375-.1172.44532-.03906.51953"/><path fill="#ffffe0" fill-rule="evenodd" d="M150.89453 353.29688h22.17969v-10.19532h-22.17969v10.19531"/><path fill-rule="evenodd" d="M154.39453 344.9375h.50781v6.29297h-.78515v-4.48828h-1.39063v-.55469l.5625-.0664.25-.0547.23047-.08984.20313-.14062.17578-.21094.14062-.29297.10547-.39453m4.8125 0l.23047.01953.21875.05469.20703.08984.19531.1211.1875.14843.16797.17579.30469.41796.24219.4961.17969.54687.11328.57813.03515.58984-.03515.59375-.11328.58594-.1797.55078-.24218.5039-.30469.42579-.16797.17969-.1875.15625-.1953.12109-.20704.09375-.21875.05469-.23047.01953-.23047-.01953-.21875-.0547-.20703-.09374-.19531-.1211-.1836-.15625-.17187-.17968-.30078-.42578-.2461-.50391-.17968-.55078-.10938-.58594-.03906-.59375h.83203l.03125.5625.08203.50781.125.44141.16016.375.1914.30078.21094.22266.22266.13672.22656.04687.22656-.04687.22266-.13672.21094-.22266.1914-.30078.16016-.375.1289-.4414.08204-.50782.02734-.5625-.02734-.5625-.08203-.5-.12891-.4336-.16016-.36718-.1914-.29297-.21094-.21094-.22266-.1328-.22656-.04688-.22656.04687-.22266.13281-.21094.21094-.1914.29297-.16016.36719-.125.4336-.08203.5-.03125.5625h-.83203l.03906-.58985.10938-.57813.17969-.54687.24609-.4961.30078-.41796.17188-.17579.18359-.14843.19531-.1211.20703-.08984.21875-.05469.23047-.01953m5.09375 0h.50781v6.29297h-.78906v-4.48828h-1.38672v-.55469l.5586-.0664.2539-.0547.23047-.08984.20313-.14062.17187-.21094.14453-.29297.10547-.39453m6.80078 1.61719h-.78515l-.05078-.21094-.08204-.1875-.10937-.15625-.1289-.13281-.14454-.10156-.16016-.07422-.16796-.04688-.17578-.01562-.32813.04296-.28516.1211-.24609.19531-.20313.26563-.16015.33984-.11719.40234-.07031.46875-.02344.52735.1875-.20313.1875-.16015.1836-.1211.1875-.08984.1875-.0586.1914-.03906.40234-.02344.3086.03125.32031.08985.3164.15625.29298.21875.2539.28515.19922.35157.07422.19922.05078.21875.03125.23437.0039.25-.78515.04688-.02734-.25782-.07813-.25-.125-.23437-.16015-.21094-.19141-.17969-.21875-.13671-.24219-.08594-.2539-.03125-.25782.03125-.23828.08594-.21875.13671-.19531.1797-.16016.21093-.12109.23437-.07813.25-.02734.25782.02734.26171.07813.25.1211.23438.16015.21094.19531.17578.21875.13672.23828.08984.25782.03125.2539-.03125.24219-.08984.21875-.13672.1914-.17578.16016-.21094.125-.23438.07813-.25.02734-.26171.78516-.04688-.03125.3711-.09375.375-.15625.35546-.22266.32813-.28906.28515-.17188.1172-.1875.10156-.20703.08203-.22265.0625-.2422.03906-.2578.01172-.28516-.01563-.25781-.04687-.23828-.07422-.21485-.10547-.19531-.13281-.17578-.15625-.15234-.17969-.13672-.20313-.1172-.22265-.09765-.24219-.14844-.53125-.08203-.59375-.02734-.64062.03906-.7461.11328-.66015.1875-.57813.1172-.25781.13671-.23047.15625-.20703.16797-.17969.1875-.15625.20312-.1289.21485-.10157.23437-.07422.2461-.04296.26172-.01563.36718.03125.33203.09766.29688.15234.2539.19922.21485.23828.16406.27734.11328.30079.0625.3203"/></g></defs><use xlink:href="#Z"/></svg>