<svg xmlns="http://www.w3.org/2000/svg" role="img" xmlns:xlink="http://www.w3.org/1999/xlink" viewBox="142.45 309.95 326.84 171.84"><defs><clipPath id="a"><path d="M144 311.67188h1v168.65625h-1zm0 0"/></clipPath><clipPath id="b"><path d="M144 311.67188h324v168.65625H144zm0 0"/></clipPath><clipPath id="c"><path d="M467 480h1v.32813h-1zm0 0"/></clipPath><clipPath id="d"><path d="M467 311.67188h1v168.65625h-1zm0 0"/></clipPath><clipPath id="e"><path d="M144 478h4v2.32813h-4zm0 0"/></clipPath><clipPath id="f"><path d="M146 479h2v1.32813h-2zm0 0"/></clipPath><clipPath id="g"><path d="M153 478h8v2.32813h-8zm0 0"/></clipPath><clipPath id="h"><path d="M159 478h2v2.32813h-2zm0 0"/></clipPath><clipPath id="i"><path d="M167 477h7v3.32813h-7zm0 0"/></clipPath><clipPath id="j"><path d="M181 477h6v3.32813h-6zm0 0"/></clipPath><clipPath id="k"><path d="M193 478h8v2.32813h-8zm0 0"/></clipPath><clipPath id="l"><path d="M206 479h9v1.32813h-9zm0 0"/></clipPath><clipPath id="m"><path d="M212 479h3v1.32813h-3zm0 0"/></clipPath><clipPath id="n"><path d="M220 478h8v2.32813h-8zm0 0"/></clipPath><clipPath id="o"><path d="M235 476h4v4.32813h-4zm0 0"/></clipPath><clipPath id="p"><path d="M248 477h5v3.32813h-5zm0 0"/></clipPath><clipPath id="q"><path d="M261 477h6v3.32813h-6zm0 0"/></clipPath><clipPath id="r"><path d="M274 477h7v3.32813h-7zm0 0"/></clipPath><clipPath id="s"><path d="M287 477h7v3.32813h-7zm0 0"/></clipPath><clipPath id="t"><path d="M301 477h5v3.32813h-5zm0 0"/></clipPath><clipPath id="u"><path d="M315 477h5v3.32813h-5zm0 0"/></clipPath><clipPath id="v"><path d="M329 476h3v4.32813h-3zm0 0"/></clipPath><clipPath id="w"><path d="M341 477h6v3.32813h-6zm0 0"/></clipPath><clipPath id="x"><path d="M354 477h6v3.32813h-6zm0 0"/></clipPath><clipPath id="y"><path d="M369 476h3v4.32813h-3zm0 0"/></clipPath><clipPath id="z"><path d="M382 476h4v4.32813h-4zm0 0"/></clipPath><clipPath id="A"><path d="M394 477h6v3.32813h-6zm0 0"/></clipPath><clipPath id="B"><path d="M407 477h6v3.32813h-6zm0 0"/></clipPath><clipPath id="C"><path d="M420 477h7v3.32813h-7zm0 0"/></clipPath><clipPath id="D"><path d="M434 477h6v3.32813h-6zm0 0"/></clipPath><clipPath id="E"><path d="M449 476h2v4.32813h-2zm0 0"/></clipPath><clipPath id="F"><path d="M460 478h7v2.32813h-7zm0 0"/></clipPath><clipPath id="G"><path d="M144 464h4v6h-4zm0 0"/></clipPath><clipPath id="H"><path d="M144 451h4v5h-4zm0 0"/></clipPath><clipPath id="I"><path d="M144 438h4v5h-4zm0 0"/></clipPath><clipPath id="J"><path d="M144 424h4v6h-4zm0 0"/></clipPath><clipPath id="K"><path d="M144 411h3v6h-3zm0 0"/></clipPath><clipPath id="L"><path d="M144 398h4v5h-4zm0 0"/></clipPath><clipPath id="M"><path d="M465 397h3v2h-3zm0 0"/></clipPath><clipPath id="N"><path d="M144 383h3v8h-3zm0 0"/></clipPath><clipPath id="O"><path d="M144 370h1v8h-1zm0 0"/></clipPath><clipPath id="P"><path d="M144 370h1v2h-1zm0 0"/></clipPath><clipPath id="Q"><path d="M144 358h4v5h-4zm0 0"/></clipPath><clipPath id="R"><path d="M465 357h3v2h-3zm0 0"/></clipPath><clipPath id="S"><path d="M144 343h1v8h-1zm0 0"/></clipPath><clipPath id="T"><path d="M144 343h2v2h-2zm0 0"/></clipPath><clipPath id="U"><path d="M466 344h2v3h-2zm0 0"/></clipPath><clipPath id="V"><path d="M144 331h4v6h-4zm0 0"/></clipPath><clipPath id="W"><path d="M466 331h2v3h-2zm0 0"/></clipPath><clipPath id="X"><path d="M144 318h4v5h-4zm0 0"/></clipPath><clipPath id="Y"><path d="M466 318h2v3h-2zm0 0"/></clipPath><g id="Z" clip-path="url(#clip1)"><path fill="#fff" fill-opacity="0" fill-rule="evenodd" d="M0 0h1000v1000H0zm0 0"/><path fill="#d3d3d3" fill-opacity="0" fill-rule="evenodd" d="M162.15234 355.86719l-.23437.29297.0586.23437.11718.17188.17578.23437.29297.34766.11328.0586.11719-.17188.0586-.23438.17577-.17578.46485-.17578h.69922l.23437.29297.28906.8164.0586.17579.17578.23046.35156.23438.69922.69922.17188.17578.23437.34765.23438.41016.28906.58203.41015.46485.23047.23437.23438.17578.11719.23047.17578.29297.17187 1.16406v.23438l.0586.28906.05859.11719.11719.11719.34765.41015.11719.17188.17578.17578.17578.23437.11719.17188.17188.35156.05859.23438.23437.40625.23438-.0586-.17578.17578-.0586.92969h-.58203l-.23437-.11328-.34766.11328-.11719.11719-.05859.29297-.0586.17578-.11718.17187-.46484.29297-.0586.23438-.0586.11328v.64453l.0586.17187v.41016l.0586.0586v.40624l.05859.40625.11719.17579.05859.05859.23047.64062-.0586.29297v.69922l-.05859.58203v.23438l-.0586.23047-.05468.35156v1.92187l.05469.1172h.42578l-.36719.11718-.02344.35156.89063 1.16797 1.74219.53906 1.33984.35938v.53906l.08984.8086.53516.71484 1.51953.26953.89063-.08594.08984 1.16406.53516.1797 1.16015-.1797 2.05469-.98437 1.16016-.36328 1.8789-.17578 1.69531-.1797-.17968.71876-1.51563.08594-1.25.08984-.80469.26953-1.07421.8086.26953.71875.53515.89843-.17968.625-.26563.8086.26563 1.07812.625.89844.80468.17969 1.25-.1797-.26562.72267.09766.5039.05468.29297v.17188l.0586.29296v.40625l.17578.1172.35156.11718h.40625l.29297-.17578.11328-.11719.0586-.11719.11718-.23047.0586-.17578.35156-.46484.23047-.17578.17578-.0586.17578.0586.0586.17578.11718.98828.05469.46875.0586.17188.11718.23437.17578.0586.8164.05859h.28907l.11719.23437.05859.40625.0586.35156v1.10547l.11718.29297.11719.34766.28906.69922.17578.35156.58203.7539.35157.17579.17187.0586.46875.23437.64063.46484.34765.23438.29297.17578.29297.05468.23047.0625.8164.34766.29297.17578.11328.17188.35157.35156.11719.17578.52343.64063v.28906l.0586.35156v.34766l.05859.35156.0586.28906.11718.0586.17188.05859h.17578l.58203.23437.17578.1172.17578.28905.17578.23438.11328.23437.29297.23047.11719.11719v.41016l.0586.05468.28906.23438.23437.11719.0586.11718.11718.17188.0586.11719.23047.23437.05859.17578.23437.0586.1172.05859-.1172.11328-.05859.11719v.11719l-.11719.29296-.11719.28907v.58203l.17579.11719.11718.05859.0586.11719.11719.11719.11328.05859.17578.34765.0586.35157.05858.40625v.17578l-.05859.17578-.11719.69922v.17187l.1172.17579.29296.29296h.40625l.17578.1172.11719.17187.11719.29296v.23438h-.52735l-.23047-.23438h-.23437l-.17578.0586-.0586.69922.0586.34765.11719.17579.17578.41015.11718.23047.28907.46875.17578.05469h.52344l.23437.0586.75781.64062.0586.29296v.23438l.05859.0586.23047.34765v.35156l-.11719.17188v.29297l.29297.28906.29297.17578.17187.0586.29297.17577.29297.1172.58203.40624.28906.23438.29297.17578.21875.16015.01563.01172.23047.17579.64062.52343.17578.23438.1172.17578.17577.17578.11328.17188v.64062l.1172.17578.46874.11719.58203.11719.23438.05859.23047.11328.29297.11719.11328.0586.58593.35156.28907.17187.17578.0625.17578.05469.17578.0586.69922.35155.28906.17579.23438.05468.28906.17578.23437.1172.64063.40624.29297.11719.17187.0586.23438.05859.41015.05859.23047.0586.23438.11718.0586.17188-.41017.17578.46875.0586.0586.29296.11328.23438.17578.05468.23438.0586.17578.05859.40625.11719.64062.23437.11719.17188.0586.23437v.17578l-.0586.1172-.0586.40624.23438.23438.11719.05859.34766.11719.64062.23047.17578.11718.28906.1172.17578.17577.23438.46485.58203 1.10546.17578.17579.34766.17578.17578.11719.35156.11718 1.04688.52344.23437.0586.46485.11327.29297.0586.46484.17578.75781.58203.23438.23438.34765.46484.17578.17578.28907.23438.8164.69921.29297.17579.28906.28906.29297.17578.29297.28906.69531.64063.17578.17578.29297.23437.28907.23438.46875.28906.64062.58203.34766.23438.23437.29297.34766.34765.35156.46485.9336.99218.34765.40625.11719.17579.23437.05859.11328.11719.64454.17578.23047.11328.23437.0586.29297.17577.23047.1172.9336.69921.40624.40625.23438.17578.40625.17578.23437.11719.8164.34766.34766.23437.23438.11719.29297.28906.23047.11719.7578.35156.35157.17188.23047.05859.29297.11719.23437.0586.8711.17577h.8164l.46875.23047.17188.0586.875.69921.46484.1172.29297.05858.17578.0586.23047.0586.46875.05859.34766.05859.35156.0586.40625.05859h.29297l.17187.0586v.23046l.17578.17578h.29297l.34766.0586.35156.05859.69922.11719h.64063l.46484-.23438.29297-.17578.17187-.11719.41016-.17187.28906-.17578.9336-.46485.46875-.29297.52343-.29296.46485-.17188.46484-.17578 1.05078-.46485.28906-.11718.41016-.11719.28906-.11719.52735-.17578 1.51562-.69922.58203-.34765.28907-.0586.29297-.0586.34765-.11718.875-.23047.35156-.11719h.11329l.23437-.05859.875-.23437.23438-.0586h.8125l.35156-.0586.8164-.11718.17188-.0586.35156-.05468.29297-.0586.23047-.05859.8164-.17578.17579-.0586h.34765l.23438-.05859.46484-.11718.75781-.17188.23438-.0586h.34765l.41016-.11718.28906-.0586 1.28516-.05859h.28906l.41016-.0586.23047-.05858h.17578l.875-.1172h.40625l.41015-.11718h.34766l.35156-.11328.8711-.0586h1.75l1.04687.28907.41016.11719.28906.11718.35156.11719.28907.11719 1.05078.17187.28906.0586h.29297l.29297.05859.17187.0586.41016.05859.17187.0586.1172.05858h.11718l.11719.0586.35156.0586h.11328l.41016.0664 1.92187.39453 1.92578.39453 1.51953.44922 1.69532.71875 2.14453.80469 1.60547-.71875 1.42968-.80469 1.16016-1.07813 1.25-.44921 3.03516-.71875 1.875-.35938 2.14453-1.34765 2.23437-1.25391 2.5-1.25781 1.69531-.44922 1.78516-.17969 1.16016-.26953.625.53906 1.33984-.26953.71485-.98828.98437-1.34375.44531-.17969.80469-.35937 1.875-.53907 1.78516-.44921 1.25-.26954 1.16015-.08984 1.69922-.08984 1.96094-.26954 1.25-.08984h.53906l.625-.08984h.89063l2.14453-.17969 2.41015-.17969 2.58985-.08984 1.69531.17969 1.60938.08984 1.42968.35938 1.16016.71875 1.875.98828 1.16015 1.52734.26563.71484.6289.08985.35548.89844.53515.53906.53516 1.52734 1.07422.35938h.53515l-.80469.53515.08985 1.70703.71484 2.69532.89063.80468.89453.98829.71484 1.2578 1.78516.53907 1.51953-.17969.35547 1.34375 1.60937-.80469.98047-.53906.26953.26953.31641-.21484.21875-.14453.80078.44922.44922-.35938h.35547l.53515-.26953.53907-.71875.53515-.26953.625-.98828 1.16016.44922.83984.3711 1.39454.61718 1.6953-.17969h1.60548l1.78515.08985.17969-1.70704.53516-1.34375.80468.26954.4922.84765.40233.40625-.08984.53906v.35938l.71485.44922.71093-.26953h1.42969l.35938.98828.4453 1.25781.71485 1.34375 1.25.6289 1.69531.62891.71485-.17969.17969-.53906.98046-.08984.44922.35937.08594 1.25782-.26563.6289-.53515.17969v.53906l.71484.98438.26563.53906.98437.98828.80078 1.07813-.26562.35937-.08985.89844-.625 2.33203-.35546 2.0664-.08985 1.79298-.17969.71875-.08984.53906v1.4375l-.98047 1.88281-.35937 1.70703-.53516.89844-.80469 1.16797-.26562.53906 2.05469 1.2539.08593.35938-.35546.53906-.08985-.17968v.80859l.08985 1.4375-.44532.71484-1.07422.09375-.26562.71485.53515.89844.8047.71875 1.16015.80859 1.33984.26953.44531.35938-.35546.44921-1.78907-.08984-1.25-.44922-.71484-.71875-.625-.08984-.17578 3.58984-.1875 1.3086h89.35937V311.70313h-55.26953v49.08203l.76172.125 3.28906.54296 2.02344 2.83594v2.7539l2.35156.33204 2.34766.33203h4.05078l-1.3789 4.16016-2.02344.70703-2.02344.70312-.54297.34375-2.59375 1.6172-.1875.11718-2.02344-2.07813-.73046-2.74218-2.67188-2.07813-1.375-3.5-.0664-.08203-1.95704-2.67188 2.75-1.41796v-49.08204H294.42187v91.41407l.1172.03125.1328.01172.07422.07421.10547.04688.08985.0586.08593.05859.08985.0586.29687.29687.0586.08984.03125.11719.02734.11719.01563.13671-.03125.1172-.0586.08983-.0586.08594-.04296.10547-.04688.10156-.02734.1211v.14453l.17578.26953.14844.14844.07422.08594.07422.07421.04296.10547.0625.08985.0586.08593.04297.10547.0586.08985.04687.10156.04296.10547.0586.08594.11719.17968.07421.07422.0625.08594.0586.08984.04297.10547.0586.08985.05858.08593.0625.08985.0586.08984.04297.10156.11719.17969.07421.07422.0586.08594.07422.07421.08984.0586.10547.04687h.14844l.1328-.01562.13282.01562.10156-.04687.07422-.07422.04688-.10156-.01563-.13281v-.14844l-.04687-.10547-.02735-.11719-.04687-.10156-.02735-.1211-.04296-.10156-.0625-.08984-.04297-.10156-.04297-.10547-.03125-.11719-.01563-.13281-.01171-.13672.08593-.0586.0586-.08593.12109-.03125.04297.10547.01562.1328v.1172l.0586.10156.0586.08984.08983.0586.14844.14843.0586.08985.04296.10547-.01171.10156.08593.0586.10547.04687.08594.0586.08984.05858.07422.07422-.11719.02735-.10546.04687-.08594.0586-.07422.07421-.0586.08985-.0625.08594-.02734.12109-.04687.10156-.04297.10547-.03125.11719-.01172.13281-.01563.13281v.14844l.02735.11719.04687.10547.04297.10156.0586.08984.07421.07422.08985.0586.07422.07421.08984.0586.0586.08984.04296.10547.04688.10156.11719.03125.1328.01563h.14845l.11718-.03125.10547.04297.04297.10547.04688.10156.02734.1211L299.5 410l.02734.11719.03125.1211.02735.11718.10547.04297.10156.04687.13281-.01562.14844.14844.0625.08593.07422.07422.07031.07422.08984.0625.10547.04297.10156.04297.1172.03125.13671.01562.11719-.03125.07422-.07422.02734-.11718-.01172-.13282-.03125-.12109-.02734-.11719.04297-.10547h.11719l.08984.0625.11719.02735h.14843l.13282.01562h.14843l.13282.01563.1328-.01563h.14845l.1328-.01562.13282-.01172.13672.01172.11719-.02735.13281-.01562.1914-.0586-.05859.17579-.01562.1328-.02735.1211-.01562.13281-.0586.08594-.1328.01563-.10548.04687-.10546.04297-.1172.03125-.11718.02735-.26563.03125h-.14843l-.13281.01562-.07422.07422.05859.08594.14844.14843.11719.1797.07421.0703.08985.0625.08984.0586.08594.0586.08984.05858.10156.04297.10547.0625.10547.04297.08594.0586.10547.04687.10156.04297.17969.11719.0586.08984-.04298.10156-.04687.10547.01562.13281.22266.22266.0586.08985.04296.10156.03125.1211.04297.10155.01563.13282.03125.11718.01171.13672.03125.11719.14844.14844.10156.04297.10547.04296.1172.03125.1328.01563.13672.01563h.11719l.11719-.03125.08984-.0586.04297-.10547.04688-.10156.04296-.10547.03125-.11719.01172-.1328v-.14845l-.01172-.1328-.01562-.13282-.03125-.11719-.04297-.10547-.04688-.10547-.04296-.10156-.04297-.10547-.01563-.13281.01563-.13281.02734-.11719.03125-.11719.02735-.1211.04687-.10155.08984-.0586.08594-.0625.07422-.07422.08984-.05859.22266-.22266.0586-.08593.07421-.07422.11719-.17969.0586-.08594v-.14844l-.07423-.07421-.10156-.04688-.10547-.04297-.10156-.04297-.0586-.08984-.04687-.10547-.02734-.11719.08984-.05859.11719-.03125.10156-.04297.17969-.11719.14844-.14843.01172-.13282-.01172-.10546-.08985-.0586-.1328.01563h-.14845l-.1328.01562-.13282-.01562-.1211-.03125-.08593-.0586-.07422-.07422-.0586-.08984-.0625-.08594-.11718-.17969-.0586-.08593.03125-.1211.08594-.05859.1211-.03125.05859-.08594v-.1211l-.03125-.11718-.0586-.08984-.05859-.08594-.04687-.10547-.02735-.11719-.01562-.1328.0586-.08985.07421-.07422.08984-.0586.1172-.17968.07421-.07422.0586-.08594.14843-.14844.1211-.03125.1328-.01562.13282.01562.07422.07422.04297.10547.01562.13281-.03125.1172-.11719.03124-.1328.01172-.14844.14844-.04297.10547-.04688.10156-.02734.1211-.03125.11718v.14844l.03125.11719.04297.10546.05859.08985.07422.07031.07422.07422.11719.03125.12109.02734.11719-.02734.1328-.01563h.1172l.08984.0586.07422.07422.04687.10546.0586.08594.10156.04688.13281.01562.10547.04297.08594.0586-.01172.10546-.07422.07422-.17969.11719-.05859.08984-.08984.0586-.07032.07422-.07421.07421-.0625.08985-.02735.11719-.01562.1328.01562.13282-.01562.13281v.14844l.01562.13281.02735.1172.03125.12108.07421.07422.08985.0586.08594.0586.08984.05858.11719.03125v.08594l-.10157.04688-.08984.0586-.26563.03124-.11718.02735h-.14844l-.10547.04296-.10156.04688-.0586.08984-.0625.23438-.01171.13281-.03125.1211-.01563.1328v.29298l-.01172.1328.01172.13673.01563.1328.1328.01563.13282.01172.1211.03125.08593.0586.07422.07421.04688.10547.04296.10157.01563.1328v.44532l-.01563.13281v.44532l.03125.26562.02735.11719.01562.13281.03125.11719.08594.21094.03125.26562v.14844l-.03125.11719-.02734.11718-.03125.1211-.02735.11719-.03125.11718-.03125.1211-.01171.1328-.01563.13282.08984.0586.1172-.03125.10155.01562.04688.10547-.03125.26562v.44141l-.04297.10547-.04688.10547-.04296.10156-.04297.10547-.0586.08594-.03125.12109-.04296.11719-.03125.11719-.01563.1328.01563.13282.05859.08984.10547.04688.08594.0586.05859.08593-.01172.13672-.03125.11719-.04297.10156v.44531l-.01562.13281v.14844l-.03125.11719-.04297.10547-.02735.11719-.04687.10546-.04297.10157-.03125.12109-.02734.11719-.03125.13281-.03125.11719-.02735.11719-.04297.10546-.03125.1172-.03125.12108-.01171.13282-.01563.13281v.29688l.02734.11718v.14844l.04688.39844.02734.11719.0586.08984.12109.03125h.14844l.13281-.01563.0586.08985v.11719l-.0586.08984-.08984.0586-.10157.04296-.10546.04688-.08985.05859-.08594.0586-.13671.01562-.1172-.03125-.1328-.01563-.10157.04688-.0625.08594-.01172.13671-.01562.13282-.03125.11719-.02735.11718-.01562.13281-.03125.1211v.29687l.01563.13282.03125.11718v.14844l.01171.13281v.14844l-.02734.11719-.04688.10156-.02734.1211-.03125.11718-.0586.08985-.07421.07421-.10156.04297-.10547.04688-.11719.02734-.1211.03125-.10156-.04687.0586-.08594.10547-.04688.02734-.11718.03125-.11719.02734-.1211.03125-.11718v-.14844l.01563-.13281-.03125-.11719-.04297-.10547-.10547.01563-.07422.07422-.10156.04296-.08984.0625-.07422.07422-.04297.10157-.01563.1328-.03125.1172L304.25 426l-.03125.11719-.02734.11719-.03125.12109-.02735.11719-.03125.11718-.04297.10547-.08984.0586h-.08984l-.1172-.03125-.03124-.08594.01562-.13672-.03125-.11719v-.14844l-.01171-.1328v-.14844l-.0625-.23438-.02735-.1211-.04297-.10156-.04687-.10546-.0586-.08594-.05859-.08985-.04297-.10546-.0625-.08594-.14844-.14844-.0703-.07422-.10548-.04687-.10547-.04297-.10156-.04297-.29687-.29688-.08985-.07421-.08594-.0586-.10546-.04297-.08985-.0625-.08594-.0586-.10546-.04296-.08985-.0586-.08594-.0625-.07421-.0703-.10547-.04688-.08594-.0586-.10547-.04296-.08984-.0625-.10156-.04297-.10547-.04297-.08594-.0586-.10547-.04687-.10547-.04297-.10156-.04687-.08985-.0586-.10156-.04297-.10547-.04296-.08984-.0625-.11719-.02735-.13281-.01562-.13281.01562H299.75l-.13281.01563-.11719-.03125-.08984-.0586-.07422-.07422-.08985-.05859-.10156-.04688h-.14844l-.12109-.02734-.10156-.04297-.07422-.07422-.11719-.17968-.08984-.0586-.10156-.04297-.08985-.0625-.10547-.04296-.08984-.0586-.08594-.0586-.10547-.04687-.0586-.08594-.05858-.08984-.04297-.10547-.04688-.10156-.07422-.07422-.08594-.0586-.07421-.07421-.08985-.0586-.22265-.22265-.04297-.10547-.03125-.26563.10547-.04296h.14453l.10547.04296.07421.07422.08985.0586.08594.0586.10546.04687.08985.05859.14844.14844.0703.07422.14845.14843.0625.08594.07421.07422.08594.0586.07422.07421.08985.0625.08984.0586.08594.05859.26953.17578.10156.04688.10547.04296.10156.04297.04688-.07421.05859-.08594.07422-.07422.07031-.07422.10547.04297.07422.07422.0586.08984.04296.10156.04688.10547.04296.10547.1211.02735.11719-.02735.07421-.08984.04297-.10547.0586-.08985.07422-.07421.10546-.04297.1172-.02735.1328.01172.08985.0586.14844.14843.05859.08985.04297.10547.04687.10156.04297.10547.04297.10156.10547.04688.10547.04296.13281.01563.08594-.0586.0586-.08984.07421-.07422.10547-.04297.11719.02735.10547.04687.10156.04297.10547.04297.10156.04688.17969.11718v.11719l-.01563.13281.01563.13281.01562.13672.0586.08594.10156.04688.1211.02734.11718.03125h.14844l.11719-.03125.05859-.08984.17969-.1172.05859-.08983.07422-.07422.0586-.08594.11718-.17969.17969-.11719.11719.03125.08984.0586.04297.07422-.01563.1328v.1172l.08985.05859h.14843l.13282-.01563.1328-.01171.26563-.03125.10547-.04297.11719-.03125.1211-.02735.07421-.07421.07031-.07422.0625-.08985-.01562-.10547-.04688-.10156-.10156-.04297-.10547-.01562-.11718.02734-.26563.03125h-.14844l-.07421-.07422-.08985-.0586-.11719-.03124-.11718-.02735-.13282-.01562h-.14843l-.13282.01563h-.29687l-.10547-.04688-.14844-.14844-.04297-.10156-.05859-.08984.22266-.22266.08593-.0586.10547-.04296.11719-.03125.13281-.01563.13281.01563.13672.01562.10157.04297.1328-.01172.08985-.0625.10156-.04297.0625-.08984-.04687-.10156-.08984-.0586-.1172-.03125-.10155-.04296-.0586-.08985-.0625-.08984v-.11719l.01563-.13281.10547-.04688.07421-.07031v-.1211l-.08984-.05859-.03125-.11719.08985-.05859.07421-.07422.04297-.10547.0586-.08984.04687-.10156.01563-.13281v-.14844l-.04688-.10547-.04297-.10156-.08984-.0586-.13281-.01562-.10157-.04297-.13671-.01563-.1172-.03125h-.4453l-.13282-.01562-.13281-.01172-.13281-.01563-.11719-.03125h-.14844l-.13281-.01562-.13281-.01172-.26563-.03125-.1211-.04297-.08593-.0586-.07422-.07421v-.14844l.01172-.13281.10547-.04688.10156-.04296.13281-.01563h.15235l.13281-.01562h.29297l.1211.03125.10156.04296.08984.0586.23438.0625.12109-.04688.08984-.05859.10156-.04297.13282-.01562.10547.04296.10156.04688.13281.01172.1211-.02735h.14453l.12109-.03125.11719-.02734.10547-.04687.07421-.07422.08594-.0586.14844-.14843.0586-.08594.04687-.10547.02734-.11719.01563-.10547-.10156-.04296-.08985-.0586-.11719-.03125-.10546-.04297-.08985-.0625-.07422-.08594-.07422-.07421-.10156-.04297-.10547-.04688-.10156-.04297-.0586-.08984-.04687-.10156-.08594-.21094-.0625-.08594-.05859-.08984-.07422-.07422-.08594-.0586h-.26953l-.11719.03126-.08984.05859-.10156.04297-.13281.01562-.10547-.01562-.02735-.11719-.0625-.08984-.11718-.03125-.10157-.04297-.14843-.14844-.03125-.11719-.01563-.10546.07422-.07422.17969-.1172.11719-.02733.11718-.03125.13672.01562.10156.04297.10547.04297.10156.04687.10547.04297.1172.03125.1328.01563.1172.02734.1328.01563.10547-.01563.08985-.0586-.07422-.07421-.10547-.04297-.07422-.07422-.07422-.08984-.14844-.14844-.08593-.0586-.08985-.05859-.07422-.07422-.08984-.0586-.10156-.04687-.1211-.02734-.10156-.04688-.10547-.04296-.11719-.03125-.10156-.04297-.1211-.03125h-.14843l-.11719.03125-.10546.04297-.08594.0625-.17969.11718-.08594.0586-.08984.0586-.10547.04687-.08594.05859-.10547.04297-.10156.04297-.10547.04687-.07422.07422-.05859.08985-.0586.08593-.04687.10547-.0586.08594-.07421.07422-.13281-.01172-.1172-.03125h-.11718l-.07422.07422-.08984.0586-.07422.07421-.08984.0586-.08594.05859-.10547.04687-.10156.04297-.13672.01563-.10156-.04297-.14844-.14844-.10547-.04688h-.08594l-.10547.04688-.10156.04297-.1211.03125-.11718-.03125-.07422-.07422v-.11719l.03125-.1211.07422-.0703.0586-.08985.07421-.07422.11719-.03125.10547-.04296h.29297l.13281-.01563.13672-.01563.10156-.04296.08985-.0586.10156-.04687.08984-.0586.13281-.01171.08985.05859.13281.01172.08984-.0586.08594-.05859.10547-.04297.08984-.0586.08594-.0625.08985-.05859.14843-.14843.0586-.08594.05859-.08985.10547-.04296.13281-.01563.11719.02735.1211.03125.05859-.0586.05859-.08984.03125-.26563.02734-.11719.10547.01172.13281.01563.10157-.04297.08984-.0586.0586-.08984.07421-.07422.0586-.08984.04687-.10156.01172-.13281-.01172-.13282-.04687-.10547-.14844-.14843-.0586-.08985-.05859-.08594-.04297-.10546v-.44532l.01563-.1328v-.14845l.01172-.1328-.0586-.0586-.08984.0586-.10156-.04298-.17969-.11719-.08594-.05859-.0625-.08984-.0586-.08985-.07421-.07421-.08594-.0586-.1211.03125-.10155.01172-.10547.04688-.08594.05859-.10547.04297-.14844.14844-.08984.05859-.08594.0586-.08984.0625-.10547.04296-.13281.01563v-.1211l.10547-.04297.11718-.03125.07422-.0703.04297-.10548v-.14844l-.02734-.11718-.14844-.14844-.13281-.01563h-.14844l-.11719.03125-.10547.04297-.10156.04297-.08984.0625-.11719.02735-.07422-.07422.01172-.13281-.04297-.10157-.04297-.10547-.08984-.05859-.11719.02734-.1211.03125-.11718.03125-.10156.04297-.1211.03125-.10156.04297-.10547.04297-.08984.0586-.10156.01562v-.11719l.01562-.13281-.0586-.08985-.07421.04297-.14844.14844-.0586.08985-.07421.07421-.04688.10547-.04296.10156-.07422.07422-.0586.08985-.07422.07422-.05859.08593-.07422.07422-.08984.0625-.07422.07031-.07422.07422-.10156.01563-.13281.01562-.10547-.04296v-.1211l.14843-.14844.04297-.10156.0586-.08984.04687-.10156.04297-.10547.0586-.08985.03124-.11719.04297-.10156.03125-.1211.02735-.11718.04687-.10547.04297-.10156.04297-.10547.07422-.07031.08984-.0625.08985-.0586.10156-.04296h.29687l.26563-.03125.10547-.04297-.07422-.07422-.11719-.03125-.10547-.04297-.08984-.0586-.10156-.04687-.08985-.0586-.10156-.04296-.10547-.04297-.08984-.0625-.08594-.0586-.10547-.04296-.10156-.04297-.1211-.03125-.11718-.03125-.10157-.04297L297.5 410.25l-.10156-.04297-.08985-.0586-.04296-.10546-.01563-.13281.10156-.04297.13281-.01563.13672.01563.13282-.01563.10156-.04297.0586-.08984.01562-.10547-.08985-.0586-.07421-.07421-.10157-.04297-.08984-.0586-.14844-.14843-.04297-.10547-.01562-.13281v-.29297l-.0586-.08985-.08984-.05859-.07422-.07422-.04297-.10547-.03125-.11718-.0586-.08985-.07421-.07422-.11719-.02734-.07422-.07422-.08984-.0586-.08984-.0625-.08594-.05859-.07422-.07421-.0586-.08594-.04687-.10547-.08594-.0586-.14843-.14843-.19532-.0586-.1328.01563-.10157.04297-.07422.07422-.04688.10156-.04296.10547-.0586.08984-.0586.08594-.29687.29687-.08984.0586h-.08594l-.0625-.08594-.04297-.10547.03125-.11719.0586-.08984.02734-.11719-.01172-.13281-.08984-.0625-.10547.04688-.11719.02734-.11719.03125-.26953.17578-.10156.04688-.11719.02734-.10546.04687-.08985.0586-.10156.04297-.0586-.08594-.04687-.10547.01563-.13281.04687-.10547.07031-.07422.07422-.07031.0586-.08985v-.14843l-.04297-.10547h-.23829l-.10156.04687-.03125.11719-.02734.11719-.03125.1211-.07422.04296-.13281.01563-.07422-.04688-.04297-.10156-.04297-.10547-.04687-.10156-.04297-.10547-.1211.03125-.10156.04297-.13281.01562-.11719.03125-.10547.04297-.08984.0586-.10156.04687-.1211.02734-.13281.01563-.10156-.04297-.0586-.08985-.04687-.10546-.04297-.10157-.04297-.10546v-.1172l.0586-.08984.08593-.05859.17969-.11719.10156-.04687.10547-.04297.10547-.0586.10156-.04296.08985-.0625.10156-.04297.10547-.0586.10156-.04687.08984-.0586.10547-.04296.10156-.04297.08985-.0625.10156-.04297.13672-.01563.11719.03125.10156.04297.1211.03125.10156.04297.10546.04688.10157.04296.10547.04297.10156.04688.10547.04297.10156.04297.10547.04687.08594.0586.10546.04296.1172.03125.10546.04297.10156.04688.08985.0586.10547.04296.10156.04297.10547.04687.11719.02735.10156.04687.1211.02735h.14843l.08594-.0586.01562-.10156.0586-.08984-.02735-.1172-.07422-.07421-.11719-.17969-.07421-.07422-.08985-.07421-.17969-.1172-.08593-.05859-.10547-.04296-.10156-.04688-.26954-.17578-.05859-.08985-.07422-.07421-.0586-.08985-.04296-.10156-.03125-.11719-.01563-.13672v-.5625l-.01171-.1328-.01563-.13282-.03125-.11719-.01562-.13281-.01172-.13281-.03125-.1211-.22266-.22265-.0586-.08594-.01562-.10547.03125-.11719.13281-.01562v-91.41406H172.9922v1.45312l-.0586.23438-.35156 1.05078-.17187.52343-.1172.34766-.17577.41016-.11719.17187-.23438.29297-.23046.0586h-.35157l-.11718.05859-.23047.40625v.29297l.11719.17578.23046.23047.1172.23437.64062.75781.29297.46485.17578.23437.23047.35156.23437.34766.64063.8164.17578.46485.17187.41016.11719.69531.17578.46875.11719 1.39844.0586.46484v.875l.11718 1.04688v4.78125l-.0586.46484-.35156 1.28125-.17578.52344-.11328.41015-.35156.9297L172.93359 336l-.23437.58203-.11719.17578-.17187.34766-.17578.40625-.35157.8164-.0586.29297-.11327.29297-.11719.28906-.0586.17579-.11718.875-.0586.40625-.05859.11718-.0586.17579-.05859.17187-.23047.52734-.11718.17188v.23437l-.11719.23438-.0586.17187-.17577.58594v.28906l-.0586.17579v.29296l-.0586.11329-.05859.52734v.17187l-.05468.23438v2.6211l-.17578.8164-.1172.17578-.17577.23438-.1172.17187-.11327.23438-.58594.93359-.23047.28906-.29297.46485-.17578.23437-.28906.35156-.35156.69922-.11328.23047-.17579.41016-.17578.23046-.40625.52735-.8164.69922-.29297.17187-.28906.23438-.17579.11719-.17578.17578-.52344.40625-.52734.17578-.17187.17578-.23438.05469-.64062.17578h-.75782m12.21094 31.02344l-1.07422.44921.35938.89454 1.25-.71485.44531-.53906-.98047-.08985"/><path fill="#d3d3d3" fill-opacity="0" fill-rule="evenodd" d="M201.50781 416.59766h-.89453l.44922.6289.98047.35938.80469-.08985.4453-.98828-.17577.08985-.71485-.35547-.89453.35547m154.6211 59.0703l-.0586-.52343v-.29297l.11328-.29297.0586-.23046.46875-.46875h.11328l.11719-.11329.11718-.05859h.17579l.23437-.0586h.34766l.23437.0586.11719.0586.23047.17187.0586.17578.11718.58203v.29297l-.11719.17578-.17187.28906-.17579.17579-.52734.52343-.23047.23438-.11719.0586h-.17578l-.11718-.0586-.40625-.29297-.17579-.11719-.11718-.0586-.0586-.11327-.05468-.1172m6.64062-10.95702l-.0586-.17188v-1.10937l.0586-.17188.17578-.0586.17188-.05858h.17578l.23437-.0586.1172.0586.05858.69921-.05859.17188-.11719.17578-.11718.0586-.23438.52343-.11328.0586h-.23438l-.05859-.1172m9.61328-14.39062l-.11719-.17578v-.69922l.29297-.875.1172-.17187.17577-.35156.11328-.23047.1172-.29297.35155-.75781.1172-.23047.17187-.23438h.17578l.11719-.0586h.64062l.11719.0586.23437.23438.17188.11328.35156.29297.11719.11718.11328.17579v.11328l.11719.05859.11718.11719v.69922l-.05859.17578v.23047l-.0586.17578-.34765 1.05078-.11719.23047-.11719.23437-.11718.0586-.23047.23437-.64063.28906h-.875l-.41015-.11718-.64063-.46485"/><path fill="none" stroke="#bebebe" stroke-linecap="round" stroke-linejoin="round" stroke-miterlimit="10" stroke-width=".5" d="M467.95703 311.69531H144.02734v168.625h323.9297v-168.625"/><g clip-path="url(#a)"><path fill="#fff" fill-opacity="0" fill-rule="evenodd" d="M144 475.89063v4.4375h.0039H144V311.67188h.0039H144v164.21875"/></g><g clip-path="url(#b)"><path fill="#fff" fill-opacity="0" fill-rule="evenodd" d="M144.0039 480.32813V311.67188h164.21485v102.80078l-3.67188 3.71875-.76562.65625-4.4375-.04297-1.3164-.61328-3.125-3.20704-4.4375-.33203-2.84766 3.53907-1.58985 1.625-2.8125 2.8125-1.625.77343-4.4375.39454-4.4414-.26563-4.34375 3.53906 3.69531 4.4375.64844.55469 4.4414.36719 4.4375 3.42969.16797.08593-.16797.5039-4.4375 3.69532-.1328.23828-4.3086 3.04297-4.4375.80078-4.4375-2.11719-4.4375-.21093-4.19922 2.92187-.24219.3711-4.4375.68359-4.4375 2.0625-3.20703-3.11719 3.20703-.29687 3.89453-4.14063.54297-1.61719 4.4375-1.99218 4.4414 1.71094 2.10938-2.53907 1.10938-4.4375 1.21875-2.7461 3.8711-1.6914-1.57032-4.4414-2.30078-2.44532-4.4375-.74609-2.96485 3.1914-1.47656 3.14063-4.4375-.16797-4.4375-2.39062-4.4375.48437-4.4375.17969-4.4414-.24219-4.4375-.125-4.4375.78125-2.875 2.78125-1.5625 1.69531-4.4375-.89062-4.44141.33594-4.23828 3.29687-.19922.08985-4.4375.83203-4.4375 1.39453-2.50781 2.1211-1.9336.73827-4.4375 1.42579-2.79297 2.27343-1.64453 2.4375-4.4375.19531-2.6289 1.8047-1.8125 1.0625-4.4375-.27344-4.4375 1.9414-1.26172 1.71094-2.02344 4.4375 2.375 4.4375.91016 2.38281 4.4375 2.02735.03906.02734 4.39844.48437 2.14062-.48437-2.14062-1.49219-2.67188-2.94531 2.14063-4.4375.53125-.3711 4.4414-1.28515 4.4375.32812 4.4375-.51171 4.4375.08203 4.4414 1.15625 1.13673.60156-1.1211 4.4375-.01562.14453-4.40234 4.29297 4.40234 1.04297 4.4375-.69531.70312-.34766 3.73438-.64453 4.4375-.40235 4.4414-.3828 4.4375.21093 4.4375.76172 1.63672.45703 2.80078 1.61719 2.625-1.6172 1.8125-.46874 4.44141-1.00781 4.4375-2.19141 1.7539-.76953 2.6836-1.08203 4.4375-2.01563 4.4375-1.28125.1211-.0586 3.41015-4.4375.91016-.61718 4.4375-.13281 4.4375-2.67188 3.25781 3.42188 1.17969 2.30469 4.4414 2.01562 4.4375-.42187 2.23047.53906 2.20703 1.6289 1.40235 2.8086 3.03515 3.80078 4.4375.14844 4.44141-.89844 4.4375-2.35156.71875-.69922 3.71875-1.73047 3.09766-2.70703 1.33984-.98047 4.4414-1.8086.27735 2.78907 3.5625 4.4375.59766.52344.78125-.52344 3.65625-.98047 4.4375-1.3711 2.48437-2.08593 1.95313-1.90235 3.375-2.53515-3.375-3.5625-4.4375-.39844-4.4375.57422-3.3086-1.05469-1.1289-.48828-1.34375.48828-3.09375 3.0625-4.44141-2.53125-4.4375-.3125-1.13672-.21875-3.30078-2.09765-3.26172 2.09765-1.17578.32031-.95703-.3203-3.48438-2.02344-4.4375.52343-4.4375-2.38672-1.0625-.55078 1.0625-.39453 4.4375.02344 3.57422-4.0664.86328-2.63282 3.89454 2.63281.54687.51953.5625-.51953-.5625-2.6875-.52344-1.75.52344-.1836 4.4375-.24608 4.10938-4.00782.32812-.48437 4.4375-.32031 3.4336-3.63672.47656-4.4375-3.91016-3.39454-4.4375-.32421V311.67187h8.8789v124.1172l-.18359.15624-4.25781 1.55078-4.42578 2.88672 4.42578 3.69531 3.6836-3.6953.7578-3.9961.20704-.4414-.20703-.15626V311.67187h22.1914v104.51954l-2.85547 2 2.85547 4.1289 3.92578-4.1289-3.92578-2V311.67187h8.875v105.29297l-3.51562 1.22657 3.51562 1.48828v4.58594l-4.4375.07812-1.32422 2.72656 1.32422 1.33985 2.07031 3.09765.13672 4.4375-2.20703 3.5625-1.48047.875 1.48047.89844 1.55078-.89844L348.16406 439l1.82031 1.38281 2.6172 1.59375 4.4414 1.99219 4.4375-2.47656 1.45312-1.10938-1.45312-1.0664-.57813-3.3711-.59765-4.4375-3.26172-3.41015-4.4414.97656-1.75782-2.0039-2.67969-2.8047v-4.58593l1.1875-1.48828-1.1875-1.22657V311.67188h8.8789v109.40234l-1.60155 1.55469 1.60156 1.9414 1.65625-1.9414-1.65625-1.5547V311.67189h26.6289v123.78906l-.8164.48437.8164 1.41406 3.41797 3.02344-3.41796.79688-4.4375 1.375-2.23829-2.17188-2.20312-1.6836-2.6836 1.6836-1.7539 1.03125-2.58203 3.40625 2.58203 2.30469 2.75781 2.13672 1.67969 1.57422v24.7539l-.29688.30079.29688.48437.30469-.48438-.3047-.30078v-24.7539l1.82423-1.57422 2.61719-2.76563 3.3789 2.76563 1.0586.79687.98046-.79687 1.84375-4.4414 1.61329-3.98438.59375-.45313-.59375-.32812-3.94141-4.10938-.4961-.48437V311.67188h13.3125v138.5664l-4.4375 1.1211-2.02734 2.33984-2.41015 1.63281-3 2.80469-1.4375 2.92187-1.34766 1.51563 1.34765 1.30078 4.4375 2.38281 4.4375.4414 4.4375.21876 4.44141-.73438 4.21485-3.60937.22265-.48438 3.39453-3.95312-3.39453-4.11719-.22656-.32031-4.21094-2.86719-4.4414-.59375v-138.5664h71.01171v168.34765l-.26562.3086H144.0039"/></g><path fill="#50fcfc" fill-rule="evenodd" d="M165.28125 458.13672l-2.375-4.4375 2.02344-4.4375 1.26172-1.71094 4.4375-1.9414 4.4375.27343 1.8125-1.0625 2.6289-1.80469 4.4375-.1953 1.64453-2.4375 2.79297-2.27344 4.4375-1.42579 1.9336-.73828 2.5078-2.1211 4.4375-1.39452 4.4375-.83203.19923-.08985 4.23828-3.29687 4.4414-.33594 4.4375.89063 1.5625-1.69532 2.875-2.78125v5.90625l-1.4375 1.3125.98829 4.4375.44922.95313 4.4375 1.85547.47265-2.8086-.47266-1.77344-2.66406-2.66406-1.77344-1.3125v-5.90625l4.4375-.78125 4.4375.125 4.44141.24219 4.4375-.17969 4.4375-.48437v1.39844l-4.4375.83984-4.4375 1.1289-4.4414-.98828-4.4375-.44921-4.03516 1.92968 4.03516 3.22266 1.42578 1.21484.3125 4.4375 2.69922 2.67969v1.25781l-2.87891.5 2.8789.63672 4.44141-.15234.33984-.48438-.33984-.17187-4.4414-.32813V438.625l4.4414.8164 1.875.94141-1.875 2.64063-4.4414-.41016-4.4375.60156-2.98829-2.83203-1.44922-.95703-1.64062-3.48047-2.79688-4.05078-.625-.38672-3.8125-2.10547-4.4414.57032-1.97266 1.53515-2.46484 1.11328-4.4375 1.61329-2.9375 1.71093-1.5.58985-4.4414 1.99609-3.09766 1.85156-1.33985 3.90235-.33594.53515.33594.47266 4.4375 2.24219 4.4414-.19141 4.4375 1.20703.73438.71094 3.70313 2.32812 2.42578 2.10938-2.42578 1.8164-4.4375.41797-1.79688 2.20313L201.69922 460l4.4375-.23438 4.4375-.83984 2.78906-.78906 1.65234-.89453 3.4297.89453 1.0078.16015 4.4375 1.75782 4.4375 1.39062 4.4375-1.1289 4.44141-1.95704.3789-.22265 4.0586-2.15235 3.1875-2.28515-2.21094-4.4375-.97656-.96875-2.27734-3.47266 2.27734-1.52734 4.4375.29687 3.01563-3.20703 1.42187-4.22656.375-.21094 4.0625-2.375 4.4414-.0039.83204-2.0586-.83203-1.97265-4.4414-.25-4.4375-.78516-1.3125-1.42969-3.125-2.46094v-1.39843l4.4375 2.39062 4.4375.16797 1.47655-3.14062 2.96485-3.19141v2.76953l-.39453.42188.39453 1.15234 1.40234-1.15234-1.40234-.42188v-2.76953l4.4375.7461 2.30078 2.4453 1.57031 4.44141-3.8711 1.6914-1.21874 2.7461-1.10938 4.4375-2.10937 2.53906-4.4414-1.71093-4.4375 1.99219-.54298 1.61718-3.89453 4.14063-3.20703.29687 3.20703 3.11719 4.4375-2.0625 4.4375-.6836.24219-.37109 4.19922-2.92187 4.4375.21094 4.4375 2.11718 4.4375-.80078 4.3086-3.04297.1328-.23828 4.4375-3.69531v6.47656l-2.01562 1.89453-2.42188 1.69531-2.20703 2.7461 2.20703 2.04297 4.4375-.26563 4.40235-1.77734-1.01172-4.4414-3.39063-1.89454v-6.47656l.16797-.5039-.16797-.08594-4.4375-3.4297-4.4414-.36718-.64844-.55469-3.69531-4.4375 4.34375-3.53906 4.4414.26563 4.4375-.39454 1.625-.77343 2.8125-2.8125 1.58985-1.625 2.84765-3.53907 4.4375.33204 3.125 3.20703 1.31641.61328 4.4375.04297.76563-.65625 3.67187-3.71875v1.37109l-2.3164 2.34766-2.1211 1.8164-4.4375-.14062-3.60156-1.67578-.83985-.85938-4.125.85938-.3125.08593-4.24609 4.35157-.1914.11718-4.4375 2.07813-4.4375 1.20312-4.44141-.84765-2.3164 1.89062 2.3164 2.44531 4.4414-.96093 1.70704 2.95312 2.73046 2.59766 3.62891 1.83984.8086.76563 4.4375 1.66015 2.1328-2.42578 2.01954-4.4375.28515-1.57422 4.44141-1.92187 4.4375 2.04687 3.0625-2.98828 1.375-2.01953 4.4375-.71875 1.60547-1.70312-.0664-4.4375-1.53907-1.33594-4.4375-1.01172v-1.3711l4.4375.32423 3.91016 3.39453-.47657 4.4375-3.43359 3.63671-4.4375.32032-.32813.48437-4.10937 4.00781-4.4375.2461-.52344.1836.52344 1.75.5625 2.6875-.5625.51952-.54688-.51953-3.89453-2.63281-.86328 2.63281-3.57422 4.0664-4.4375-.02343-1.0625.39453 1.0625.55078 4.4375 2.38672 4.4375-.52344 3.48438 2.02344.95703.32031 1.17578-.3203 3.26172-2.09766v3.32421l-4.4375 1.33204-4.4414-.23829-4.4375 1.44141-4.25391.67969 1.60937 4.4375 2.64453 4.1836.23829.2539 4.19921 2.14844 4.44141-1.25391 1.41797-.89453 3.01953-1.6211 4.35156-2.8164.08594-.08203 4.4375-3.23047 1.51172-1.125-1.51172-1.27344-4.4375-1.33984-4.4375-.60156v-3.32422l3.30078 2.09765 1.13672.21875 4.4375.3125 4.4414 2.53125 3.09376-3.0625 1.34375-.48828v5.59766l-1.65235 3.76953 1.65235 1.85937 4.4375-.8203 2.22265-1.03907-2.22265-2.28516-4.4375-1.48437v-5.59766l1.1289.48828 3.3086 1.05469 4.4375-.57422 4.4375.39844 3.375 3.5625-3.375 2.53515-1.95313 1.90235-2.48437 2.08594-4.4375 1.37109-3.65625.98047-.78125.52344-.59766-.52344-3.5625-4.4375-.27734-2.78906-4.44141 1.80859-1.33984.98047-3.09766 2.70703-3.71875 1.73047-.71875.69922-4.4375 2.35156-4.4414.89844-4.4375-.14844-3.03516-3.80078-1.40235-2.8086-2.20703-1.6289-2.23047-.53906-4.4375.42187-4.4414-2.01562-1.17969-2.3047-3.25781-3.42187-4.4375 2.67188-4.4375.13281-.91016.61719-3.41015 4.4375-.1211.0586-4.4375 1.28124-4.4375 2.01563-2.6836 1.08203-1.7539.76953-4.4375 2.1914-4.4414 1.00782-1.8125.46875-2.625 1.61719-2.80079-1.6172-1.63672-.45702-4.4375-.76172-4.4375-.21094-4.4414.38281-4.4375.40235-3.73438.64453-.70312.34765-4.4375.69532-4.40234-1.04297 4.40234-4.29297.01562-.14453 1.1211-4.4375-1.13672-.60156-4.4414-1.15625-4.4375-.08204-4.4375.51172-4.4375-.32812-4.44141 1.28515-.53125.3711-2.14063 4.4375 2.67188 2.94531 2.14062 1.49219-2.14062.48437-4.39844-.48437-.03906-.02735-4.4375-2.02734-.91016-2.38281"/><path fill="#00e8fc" fill-rule="evenodd" d="M188.38281 445.29297l-.33594-.47266.33594-.53515 1.33985-3.90235 3.09765-1.85156 4.4414-1.9961 1.5-.58984 2.9375-1.71094 4.4375-1.61328 2.46485-1.11328 1.97266-1.53515 4.4414-.57032v2.83985l-4.4414.58594-4.4375 1.5-3.04688 1.61718-1.39062 1.26172-4.4375 1.36719-3.0625 1.8086 3.0625 2.41796 4.4375.375 4.4375-1 4.4375-.91015 1.72656 3.55468.29688 4.4414 2.41797 1.58595 4.4375-.10938 1.53515-1.47656.47656-4.4414-2.01172-1.52344-4.4375-.58594-3.8828-2.32813 3.8828-2.35547 4.4375-1.21875v2.10157l-4.3828 1.47265 4.3828 1.19922 3.34766-1.19922-3.34766-1.47265v-2.10157l.8125-.86328-.8125-1.17969-4.4375-2.52343v-2.83985l3.8125 2.10547.625.38672 2.79688 4.05078 1.64063 3.48047v4.33594l-.16407 1.0586.16406.57421.9375-.57422-.9375-1.0586v-4.33593l1.44922.95703 2.98828 2.83203 4.4375-.60156v5.21094l-.8164 1.4375-3.6211 3.38281-2.24609 1.05469 1.49219 4.4375.7539.27344 1.1172-.27344 3.3203-2.0625 4.44141-1.78906 1.08203-.58594-1.08203-.97266-3.83594-3.46484-.60547-1.4375v-5.21094l4.44141.41016 1.875-2.64063-1.875-.9414-4.4414-.81641-2.69922-2.67969-.3125-4.4375-1.42578-1.21484-4.03516-3.22266 4.03516-1.92969 4.4375.44922 4.4414.98829 4.4375-1.12891 4.4375-.83985v2.33204l-.48437.1289-3.95313 3.21875-4.4375-1.40625-3.3164 2.625-1.125 2.71875-.58204 1.71875.58203.57813 4.44141 1.63672 4.4375 2.22265 4.4375 1.64844 1.55078-1.64844 1.63281-4.4375 1.03516-4.4375-4.05469-4.4375-.16406-.1289v-2.33204l3.125 2.46094 1.3125 1.42969 4.4375.78516 4.4414.25.83204 1.97265-.83203 2.0586-4.4414.0039-4.0625 2.375-.375.21094-1.42188 4.22656-3.01563 3.20703-4.4375-.29687-2.27734 1.52734 2.27734 3.47266.97656.96875 2.21094 4.4375-3.1875 2.28515-4.0586 2.15235-.3789.22265-4.4414 1.95704-4.4375 1.1289-4.4375-1.39062-4.4375-1.75781-1.00782-.16016-3.42969-.89453-1.65234.89453-2.78906.78906-4.4375.83985-4.4375.23437-1.79688-1.86328 1.79688-2.20313 4.4375-.41796 2.42578-1.81641-2.42578-2.10938-3.70313-2.32812-.73437-.71094-4.4375-1.20703-4.4414.1914-4.4375-2.24218"/><path fill="#00d4fc" fill-rule="evenodd" d="M197.26172 442.80078l-3.0625-2.41797 3.0625-1.8086 4.4375-1.36718v2.91797l-1.94922.25781 1.94922.22656.89844-.22656-.89844-.25781v-2.91797l1.39062-1.26172 3.04688-1.61719 4.4375-1.5v2.77344l-3.125.34375 3.125.5625 2.21094-.5625-2.21094-.34375v-2.77344l4.4414-.58593 4.4375 2.52344.8125 1.17968-.8125.86328-4.4375 1.21875-3.8828 2.35547 3.8828 2.32813 4.4375.58594 2.01172 1.52343-.47656 4.4414-1.53516 1.47657-4.4375.10938-2.41796-1.58594-.29688-4.4414-1.72656-3.5547-4.4375.91016-4.4375 1-4.4375-.375"/><path fill="#00c4fc" fill-rule="evenodd" d="M201.69922 440.60938l-1.94922-.22657 1.94922-.25781.89844.25781-.89844.22656m8.875-4.10156l-3.125-.5625 3.125-.34375 2.21094.34375-2.21094.5625"/><path fill="#50fcfc" fill-rule="evenodd" d="M219.45313 438.91016l-4.38282 1.47265 4.38281 1.19922 3.34766-1.19922-3.34766-1.47265v1.26171l.47657.21094-.47656.17188-.625-.17188.625-.21094v-1.26171"/><path fill="#fff" fill-opacity="0" fill-rule="evenodd" d="M219.45313 440.17188l-.625.21093.625.17188.47656-.17188-.47656-.21094m4.4375-9.97656l-1.4375 1.3125.98828 4.4375.44922.95313 4.4375 1.85547.47265-2.8086-.47266-1.77344-2.66406-2.66406-1.77344-1.3125"/><path fill="#50fcfc" fill-rule="evenodd" d="M223.89063 443.76172l-.16407 1.0586.16406.57421.9375-.57422-.9375-1.0586"/><path fill="#00d4fc" fill-rule="evenodd" d="M227.57422 458.13672l-1.49219-4.4375 2.2461-1.05469 3.62109-3.38281.8164-1.4375.60547 1.4375 3.83594 3.46484 1.08203.97266-1.08203.58594-4.4414 1.78906-3.32032 2.0625-1.11719.27344-.7539-.27344"/><path fill="#fff" fill-opacity="0" fill-rule="evenodd" d="M232.76563 439.88281l-2.87891.5 2.8789.63672 4.44141-.15234.33984-.48438-.33984-.17187-4.4414-.32813"/><path fill="#00d4fc" fill-rule="evenodd" d="M232.76563 436.52344l-.58204-.57813.58203-1.71875 1.125-2.71875 3.31641-2.625 4.4375 1.40625 3.95313-3.21875.48437-.1289v3.4375l-1.23828 1.1289-3.19922 3.38281-3.28906-3.3828-1.14844-.58985-.7461.58984-1.48046 4.4375 2.22656.9336 4.4375-.01954 4.19531 3.52344.2422.08985.08593-.08985 1.78125-4.4375-.83984-4.4375-1.02735-1.1289v-3.4375l.16406.1289 4.0547 4.4375-1.03517 4.4375-1.6328 4.4375-1.55079 1.64844-4.4375-1.64844-4.4375-2.22265-4.4414-1.63672"/><path fill="#00c4fc" fill-rule="evenodd" d="M237.20703 436.8789l-2.22656-.93359 1.48047-4.4375.7461-.58984 1.14843.58984 3.28906 3.38281 3.19922-3.3828 1.23828-1.12891v3.8789l-1.59766 1.6875 1.59766 1.35938.54688-1.35938-.54688-1.6875v-3.8789l1.02734 1.1289.83985 4.4375-1.78125 4.4375-.08594.08985-.24219-.08985-4.1953-3.52344-4.4375.01954"/><path fill="#00b8fc" fill-rule="evenodd" d="M246.08203 437.30469l-1.59766-1.35938 1.59766-1.6875.54688 1.6875-.54688 1.35938"/><path fill="#00e8fc" fill-rule="evenodd" d="M259.39844 423.78125l-.39453-1.15234.39453-.42188 1.40234.42188-1.40234 1.15234m13.3125 5.73438l-2.3164-2.44532 2.3164-1.89062 4.4414.84765 4.4375-1.20312 4.4375-2.07813.19141-.11718 4.2461-4.35157v5.94922l-4.4375 1.63672-3.88673 1.20703-.375 4.4375 4.26172 3.34766 4.4375.97265 3.34766-4.3203-1.375-4.4375-1.97266-2.84376v-5.94922l.3125-.08593 4.125-.85938.83985.85938 3.60156 1.67578 4.4375.14062 2.1211-1.8164 2.3164-2.34766v2.28906l-.0586.0586-4.3789 3.75-4.4375-.30079-4.13672.98829 4.13672 1.78906 2.32422 2.65234 2.11328 1.28125 1.3164-1.28125 2.54298-4.4414.57812-2.98047.1836-1.45703-.1836-.0586v-2.28906l4.4375 1.01172 1.53906 1.33594.0664 4.4375-1.60546 1.70312-4.4375.71875-1.375 2.01953-3.0625 2.98828-4.4375-2.04687-4.4414 1.92187-.28516 1.57422-2.01953 4.4375-2.13282 2.42578-4.4375-1.66015-.80859-.76563-3.6289-1.83984-2.73048-2.59766-1.70703-2.95312-4.4414.96094m4.4414 21.78906l-2.20703-2.04297 2.20703-2.7461 2.42188-1.6953 2.01562-1.89454 3.39063 1.89453 1.01172 4.4414-4.40235 1.77735-4.4375.26563"/><path fill="#00d4fc" fill-rule="evenodd" d="M286.02734 434.85547l-4.26171-3.34766.375-4.4375 3.88671-1.20703 4.4375-1.63672v3.66406l-4.4375.38672-2.64453 3.23047 2.64453 2.07813 4.4375 1.19922 2.53907-3.27735-2.53907-3.61719v-3.66406l1.97266 2.84375 1.375 4.4375-3.34766 4.32031-4.4375-.97265"/><path fill="#00c4fc" fill-rule="evenodd" d="M286.02734 433.58594l-2.64453-2.07813 2.64453-3.23047 4.4375-.38671v1.14843l-4.4375 1.21094-1.03125 1.25781 1.03125.8086 4.4375 1.42578 1.73438-2.23438-1.73438-2.46875v-1.14844l2.53907 3.6172-2.53907 3.27734-4.4375-1.19922"/><path fill="#00b8fc" fill-rule="evenodd" d="M286.02734 432.3164l-1.03125-.80859 1.03125-1.25781 4.4375-1.21094v1.14844l-3.37109 1.32031 3.3711 1.19531.92577-1.1953-.92578-1.32032v-1.14844l1.73438 2.46875-1.73438 2.23438-4.4375-1.42578"/><path fill="#00e8fc" fill-rule="evenodd" d="M287.82031 453.69922l-1.60937-4.4375 4.2539-.67969 4.4375-1.4414 4.44141.23828 4.4375-1.33204 4.4375.60157 4.4375 1.33984 1.51172 1.27344-1.51172 1.125-4.4375 3.23047-.08594.08203-4.35156 2.8164-3.01953 1.6211-1.41797.89453-4.4414 1.2539-4.19923-2.14843-.23828-.2539-2.64453-4.1836"/><path fill="#00a8fc" fill-rule="evenodd" d="M290.46484 432.70313l-3.37109-1.19532 3.3711-1.32031v1.14844l-.4336.17187.4336.15235.12109-.15235-.1211-.17187v-1.14844l.92579 1.32031-.92579 1.19531"/><path fill="#009800" fill-rule="evenodd" d="M290.46484 431.66016l-.43359-.15235.4336-.17187.12109.17187-.1211.15235"/><path fill="#00d4fc" fill-rule="evenodd" d="M299.34375 424.41797l-4.13672-1.78906 4.13672-.98829 4.4375.30079 4.3789-3.75.0586-.0586.1836.0586-.1836 1.45703-.57813 2.98047-2.54296 4.4414-1.31641 1.28125-2.11328-1.28125-2.32422-2.65234"/><path fill="#50fcfc" fill-rule="evenodd" d="M312.65625 444.07813l-4.42578-3.69532 4.42578-2.88672 4.25781-1.55078.1836-.15625.20703.15625-.20703.4414-.75782 3.9961-3.68359 3.69531"/><path fill="#00e8fc" fill-rule="evenodd" d="M321.53516 455.5586l-1.65235-1.85938 1.65235-3.76953 4.4375 1.48437 2.22265 2.28516-2.22265 1.03906-4.4375.82031"/><path fill="#50fcfc" fill-rule="evenodd" d="M339.28906 422.32031l-2.85547-4.1289 2.85547-2 3.92578 2-3.92578 4.1289m4.4375 18.96094l-1.48047-.89844 1.48047-.875 2.20703-3.5625-.13671-4.4375-2.07032-3.09765-1.32422-1.33985 1.32422-2.72656 4.4375-.07813 2.67969 2.8047 1.75781 2.0039 4.4414-.97656v2.21875l-2.69921 1.1914-1.74219.69922-3.5586 3.73828 3.5586 3.28906 1.50781 1.14844 2.9336 1.9961 2.66797-1.9961.08984-4.4375-1.6211-4.4375-1.13671-1.1914v-2.21875l3.26172 3.41015.59765 4.4375.57813 3.3711 1.45312 1.0664-1.45312 1.10938-4.4375 2.47656-4.4414-1.99219-2.6172-1.59375L348.16408 439l-2.88673 1.38281-1.55078.89844m4.4375-21.60156l-3.51562-1.48828 3.51562-1.22657 1.1875 1.22657-1.1875 1.48828"/><path fill="#00e8fc" fill-rule="evenodd" d="M352.60156 439.23438l-3.5586-3.28907 3.5586-3.73828 1.74219-.69922 2.69922-1.1914v3.73046l-4.4414 1.52735-.35157.3711.35156.32421 4.4414 2.67188.9297-2.9961-.9297-1.89844v-3.73046l1.13673 1.1914 1.6211 4.4375-.08985 4.4375-2.66797 1.9961-2.9336-1.9961-1.5078-1.14844"/><path fill="#00d4fc" fill-rule="evenodd" d="M352.60156 436.26953l-.35156-.32422.35156-.3711 4.4414-1.52733.9297 1.89843-.9297 2.9961-4.4414-2.67188"/><path fill="#50fcfc" fill-rule="evenodd" d="M357.04297 424.57031l-1.60156-1.9414 1.60156-1.5547 1.65625 1.5547-1.65625 1.9414m13.3125 22.55469l-2.58203-2.30469 2.58203-3.40625 1.7539-1.03125 2.6836-1.6836v3.09376l-2.21094 3.02734 2.21094 2.83203 2.97265-2.83203-2.97265-3.02734v-3.09375l2.20312 1.6836 2.23829 2.17187 4.4375-1.375 3.41796-.79688-3.41796-3.02344-.81641-1.41406.8164-.48437.4961.48437 3.9414 4.10938.59375.32812-.59375.45313-1.61328 3.98437-1.84375 4.4414-.98046.79688-1.0586-.79687-3.3789-2.76563-2.6172 2.76563-1.82421 1.57422-1.67969-1.57422-2.75781-2.13672"/><path fill="#fff" fill-opacity="0" fill-rule="evenodd" d="M374.79297 441.79297l-2.21094 3.02734 2.21094 2.83203 2.97265-2.83203-2.97265-3.02734"/><path fill="#50fcfc" fill-rule="evenodd" d="M374.79297 476.375l-.29688-.48438.29688-.30078.30469.30079-.3047.48437m8.87892-12.5l-1.34766-1.30078 1.34765-1.51563 1.4375-2.92187 3-2.80469 2.41016-1.63281 2.02735-2.33985 4.4375-1.12109v1.67578l-3.10938 1.78516-1.32813.85937-4.4375 3.3047-.29296.27343-2.57422 4.4375 2.86719 2.09765 4.4375 1.31641 4.4375.2539 4.4414-2.44921 1.42578-1.21875 2.33203-4.4375-3.7578-4.30469-.23829-.13281-4.20313-1.78516v-1.67578l4.44141.59375 4.21094 2.86719.22656.32031 3.39453 4.11719-3.39453 3.95312-.22265.48438-4.21485 3.60937-4.4414.73438-4.4375-.21875-4.4375-.4414-4.4375-2.38282"/><path fill="#00e8fc" fill-rule="evenodd" d="M388.10938 464.67188l-2.8672-2.09766 2.57423-4.4375.29296-.27344 4.4375-3.30469 1.32813-.85937 3.10938-1.78516v2.41797l-4.4375 3.3711-.57032.43359-3.42969 4.4375 4 2.23047 4.4375.3125 3.39454-2.54297 1.04687-3.54297.5586-.89453-.5586-.64063-4.4414-3.16406v-2.41797l4.20312 1.78516.23828.13281 3.75781 4.30469-2.33203 4.4375-1.42578 1.21875-4.4414 2.44922-4.4375-.2539-4.4375-1.31642"/><path fill="#00d4fc" fill-rule="evenodd" d="M392.54688 464.80469l-4-2.23047 3.42968-4.4375.57031-.4336 4.4375-3.37109v1.76172l-2.54687 2.04297-1.89063 2.1914-1.875 2.2461 1.875 1.04687 4.4375.3672 1.89063-1.41407.70703-4.4375-2.59765-2.04297v-1.76172l4.4414 3.16406.5586.64063-.5586.89453-1.04687 3.54297-3.39454 2.54297-4.4375-.3125"/><path fill="#00c4fc" fill-rule="evenodd" d="M392.54688 463.6211l-1.875-1.04688 1.875-2.2461 1.89062-2.1914 2.54688-2.04297v1.75781l-.35547.28516-2.6875 4.4375 3.04296.28906.38672-.28906-.02343-4.4375-.36329-.28516v-1.75781l2.59766 2.04297-.70703 4.4375-1.89063 1.41406-4.4375-.36719"/><path fill="#00b8fc" fill-rule="evenodd" d="M396.98438 462.86328l-3.04297-.28906 2.6875-4.4375.35546-.28516.36329.28516.02343 4.4375-.38671.28906"/><g clip-path="url(#c)"><path fill="#50fcfc" fill-rule="evenodd" d="M467.9961 480.01953v.3086h-.26563l.26562-.3086"/></g><g clip-path="url(#d)"><path fill="#fff" fill-opacity="0" fill-rule="evenodd" d="M467.9961 311.67188H468v168.34375-168.34375h-.0039"/></g><path fill="#fff" fill-opacity="0" fill-rule="evenodd" d="M257.78516 425.34375l5.52734-1.8789-3.20703-9.4336-5.52735 1.88281 3.20704 9.42969"/><path fill-rule="evenodd" d="M258.48047 416.52344l.48047-.16406 2.02734 5.95703-.7461.2539-1.4453-4.25-1.3125.44922-.1797-.52734.50782-.24219.22266-.13281.1875-.15625.14843-.19922.09766-.25781.03906-.32422-.02734-.40625"/><path fill="#fff" fill-opacity="0" fill-rule="evenodd" d="M319.26172 427.86719l2.44531-5.30469-9.04687-4.16797-2.44532 5.30469 9.04688 4.16797"/><path fill-rule="evenodd" d="M313.34375 421.28906l.21484-.46094 5.71485 2.63282-.32813.71484-4.07812-1.8789-.58203 1.26171-.50391-.23437.17578-.53516.05469-.25.01562-.2461-.04296-.24608-.1172-.2461-.20702-.25-.31641-.26172"/><path fill="#fff" fill-opacity="0" fill-rule="evenodd" d="M311.53906 453.48438l5.0039 3.01562 5.14063-8.53516-5.0039-3.01171-5.14063 8.53125"/><path fill-rule="evenodd" d="M318.73047 448.32813l.4375.26171-3.25 5.39063-.67188-.40235 2.31641-3.84765-1.1914-.71485.28906-.47656.51171.23047.2461.08594.24219.04297.24609-.01563.25781-.08984.27344-.17969.29297-.28515"/><path fill="#fff" fill-opacity="0" fill-rule="evenodd" d="M200.70703 468.46094l5.55469-1.80469-3.07422-9.47266-5.55469 1.80079 3.07422 9.47656"/><path fill-rule="evenodd" d="M201.52734 459.64844l.48438-.15625 1.9414 5.98437-.75.2461-1.3828-4.27344-1.32423.42969-.16797-.52735.51172-.23437.22266-.1289.1914-.15626.14844-.19922.10157-.25.04297-.32422-.01954-.41015"/><g clip-path="url(#e)"><path fill="none" stroke="#000" stroke-linecap="round" stroke-linejoin="round" stroke-miterlimit="10" stroke-width=".5" d="M147.23828 478.96875l-6.47656 2.72266"/></g><g clip-path="url(#f)"><path fill="none" stroke="#000" stroke-linecap="round" stroke-linejoin="round" stroke-miterlimit="10" stroke-width=".5" d="M146.29688 479.36328l.94921.77735"/></g><g clip-path="url(#g)"><path fill="none" stroke="#000" stroke-linecap="round" stroke-linejoin="round" stroke-miterlimit="10" stroke-width=".5" d="M160.4336 478.70703l-6.23438 3.24219"/></g><g clip-path="url(#h)"><path fill="none" stroke="#000" stroke-linecap="round" stroke-linejoin="round" stroke-miterlimit="10" stroke-width=".5" d="M159.52344 479.17969l1.01172.69531"/></g><g clip-path="url(#i)"><path fill="none" stroke="#000" stroke-linecap="round" stroke-linejoin="round" stroke-miterlimit="10" stroke-width=".5" d="M173.375 478.13281l-5.48828 4.39063"/></g><path fill="none" stroke="#000" stroke-linecap="round" stroke-linejoin="round" stroke-miterlimit="10" stroke-width=".5" d="M172.57422 478.77344l1.1289.48437"/><g clip-path="url(#j)"><path fill="none" stroke="#000" stroke-linecap="round" stroke-linejoin="round" stroke-miterlimit="10" stroke-width=".5" d="M186.38672 477.80469l-4.88281 5.05078"/></g><path fill="none" stroke="#000" stroke-linecap="round" stroke-linejoin="round" stroke-miterlimit="10" stroke-width=".5" d="M185.67578 478.53906l1.17969.33594"/><g clip-path="url(#k)"><path fill="none" stroke="#000" stroke-linecap="round" stroke-linejoin="round" stroke-miterlimit="10" stroke-width=".5" d="M200.30078 478.57031l-6.08203 3.51953"/></g><path fill="none" stroke="#000" stroke-linecap="round" stroke-linejoin="round" stroke-miterlimit="10" stroke-width=".5" d="M199.41797 479.08203l1.03906.64844"/><g clip-path="url(#l)"><path fill="none" stroke="#000" stroke-linecap="round" stroke-linejoin="round" stroke-miterlimit="10" stroke-width=".5" d="M214.0586 479.88281l-6.96876.89063"/></g><g clip-path="url(#m)"><path fill="none" stroke="#000" stroke-linecap="round" stroke-linejoin="round" stroke-miterlimit="10" stroke-width=".5" d="M213.04688 480.01172l.70703 1.0039"/></g><g clip-path="url(#n)"><path fill="none" stroke="#000" stroke-linecap="round" stroke-linejoin="round" stroke-miterlimit="10" stroke-width=".5" d="M226.8164 482.27344l-5.85156-3.89063"/></g><g clip-path="url(#o)"><path fill="none" stroke="#000" stroke-linecap="round" stroke-linejoin="round" stroke-miterlimit="10" stroke-width=".5" d="M238.71484 483.5l-3.01953-6.34375"/></g><g clip-path="url(#p)"><path fill="none" stroke="#000" stroke-linecap="round" stroke-linejoin="round" stroke-miterlimit="10" stroke-width=".5" d="M252.30469 483.35547l-3.57031-6.05469"/></g><g clip-path="url(#q)"><path fill="none" stroke="#000" stroke-linecap="round" stroke-linejoin="round" stroke-miterlimit="10" stroke-width=".5" d="M266.05469 483.05078l-4.4375-5.44531"/></g><g clip-path="url(#r)"><path fill="none" stroke="#000" stroke-linecap="round" stroke-linejoin="round" stroke-miterlimit="10" stroke-width=".5" d="M279.77734 482.66016l-5.2539-4.66407"/></g><g clip-path="url(#s)"><path fill="none" stroke="#000" stroke-linecap="round" stroke-linejoin="round" stroke-miterlimit="10" stroke-width=".5" d="M293.28906 482.41797l-5.64844-4.17969"/></g><g clip-path="url(#t)"><path fill="none" stroke="#000" stroke-linecap="round" stroke-linejoin="round" stroke-miterlimit="10" stroke-width=".5" d="M305.67578 483.28516l-3.79297-5.91407"/></g><g clip-path="url(#u)"><path fill="none" stroke="#000" stroke-linecap="round" stroke-linejoin="round" stroke-miterlimit="10" stroke-width=".5" d="M318.89844 483.34375l-3.60547-6.03125"/></g><g clip-path="url(#v)"><path fill="none" stroke="#000" stroke-linecap="round" stroke-linejoin="round" stroke-miterlimit="10" stroke-width=".5" d="M331.22266 483.7461l-1.625-6.83594"/></g><g clip-path="url(#w)"><path fill="none" stroke="#000" stroke-linecap="round" stroke-linejoin="round" stroke-miterlimit="10" stroke-width=".5" d="M341.47656 483.03125l4.4961-5.40234"/></g><g clip-path="url(#x)"><path fill="none" stroke="#000" stroke-linecap="round" stroke-linejoin="round" stroke-miterlimit="10" stroke-width=".5" d="M355.14063 483.28516l3.80078-5.91407"/></g><g clip-path="url(#y)"><path fill="none" stroke="#000" stroke-linecap="round" stroke-linejoin="round" stroke-miterlimit="10" stroke-width=".5" d="M369.60938 483.76172l1.49218-6.86719"/></g><g clip-path="url(#z)"><path fill="none" stroke="#000" stroke-linecap="round" stroke-linejoin="round" stroke-miterlimit="10" stroke-width=".5" d="M382.42188 483.61328l2.5-6.5664"/></g><g clip-path="url(#A)"><path fill="none" stroke="#000" stroke-linecap="round" stroke-linejoin="round" stroke-miterlimit="10" stroke-width=".5" d="M394.2539 482.53906l5.46485-4.42187"/></g><g clip-path="url(#B)"><path fill="none" stroke="#000" stroke-linecap="round" stroke-linejoin="round" stroke-miterlimit="10" stroke-width=".5" d="M407.88672 482.88281l4.82812-5.10547"/></g><g clip-path="url(#C)"><path fill="none" stroke="#000" stroke-linecap="round" stroke-linejoin="round" stroke-miterlimit="10" stroke-width=".5" d="M420.80469 482.4336l5.625-4.21094"/></g><g clip-path="url(#D)"><path fill="none" stroke="#000" stroke-linecap="round" stroke-linejoin="round" stroke-miterlimit="10" stroke-width=".5" d="M434.55078 482.91016l4.76172-5.16407"/></g><g clip-path="url(#E)"><path fill="none" stroke="#000" stroke-linecap="round" stroke-linejoin="round" stroke-miterlimit="10" stroke-width=".5" d="M450.07422 483.83984l.34375-7.01953"/></g><g clip-path="url(#F)"><path fill="none" stroke="#000" stroke-linecap="round" stroke-linejoin="round" stroke-miterlimit="10" stroke-width=".5" d="M460.66016 478.34766l5.80468 3.96093"/></g><path fill="none" stroke="#000" stroke-linecap="round" stroke-linejoin="round" stroke-miterlimit="10" stroke-width=".5" d="M461.5039 478.92578l.13673-1.21875"/><g clip-path="url(#G)"><path fill="none" stroke="#000" stroke-linecap="round" stroke-linejoin="round" stroke-miterlimit="10" stroke-width=".5" d="M146.84375 464.94922l-5.6875 4.1289"/></g><path fill="none" stroke="#000" stroke-linecap="round" stroke-linejoin="round" stroke-miterlimit="10" stroke-width=".5" d="M146.01563 465.55078l1.10156.53906m13.22656-.85937l-6.05469 3.5664m5.17188-3.04687l1.04687.64063m11.9961-2.34766l-3.75 5.9414m3.20703-5.07812l1.22265.09375m12.0625-1.25l-2.60156 6.52734m2.22266-5.57812l1.21875-.13281m13.32422-.33204l-4.30078 5.5586m3.67578-4.75l1.21093.20703m13.36328-.38281l-5.5664 4.29297m4.7539-3.66797l1.1172.50781m13.73827 1.0625l-7.02343-.09766m6.0039.08594l.5586 1.08985m13.70703-.4336l-6.88672-1.38672m5.88672 1.1875L240 468.6797m12.91016.91015l-4.78125-5.15234m4.08593 4.40234L251.8125 470m15.00781-1.13281l-5.96875-3.70703m19.76172 2.4453l-6.92578-1.18358m20.25781.09765l-6.95703.98828m19.89453-2.14062l-6.20703 3.29297m16.6211 1.85937l-.40235-7.01172m.34375 5.99219l-1.04687.63672m14.3164.39062L330.3125 463.5m.16797 6.0039l-1.0664.60548m12.89062.11718l2.84375-6.42578m-2.42969 5.49219l-1.22266.08594m12.22657-1.20703l6.63672-2.31641m-5.67188 1.98047l-.89844-.83203m13.35547 1.4375l6.42188-2.85547m-5.48828 2.4414l-.96485-.7578m13.86328 2l5.39063-4.51173m-5.39063 4.51172l-2.27343-.92187m15.36328.61718l5.83984-3.90234m-5.83984 3.90234l-2.16407-1.16015m15.7461 1.51562l5.30469-4.61328m-5.3047 4.61328l-2.28905-.8789m3.0625.20703l-1.14454-.4414m13.51172.89062l5.65625-4.16797m-5.65625 4.16797l-2.21484-1.0586m3.03906.45313l-1.10937-.53125m13.41406.85937l6.02734-3.61328m-6.02734 3.61328l-2.10156-1.26953m16.89843 2.625l3.0625-6.32422m-2.61718 5.40235l-1.22657.04687m14.4336 1.01563l2.39062-6.60547m-2.04297 5.64453l-1.21484.17187"/><g clip-path="url(#H)"><path fill="none" stroke="#000" stroke-linecap="round" stroke-linejoin="round" stroke-miterlimit="10" stroke-width=".5" d="M146.9961 451.86328l-5.9922 3.67188"/></g><path fill="none" stroke="#000" stroke-linecap="round" stroke-linejoin="round" stroke-miterlimit="10" stroke-width=".5" d="M146.9961 451.86328l2.11327 1.2461m11.28907-1.09766l-6.16406 3.375M159.5 452.5l1.02734.67578m13.40235-.6836l-6.59766 2.41407m19.38672-3.36328l-5.54688 4.3125m13.8672-4.8789l4.4414 5.4453m7.6211-2.20703l6.94921-1.03515m6.53125 1.69531l6.61719-2.35547m-5.65625 2.01563l-.90625-.82813m13.60547 1.8789l5.92969-3.77343m-5.07032 3.22266l-1.0664-.60547m12.99609-1.14453l6.97656.82812m10.85938-3.77344l-2.0625 6.71875m14.92578-6.82421l-1.16016 6.92968m10.38281-3.50781l7.02735.08203m6.38281.77344l6.83594-1.625m6.41406 1.28516l6.96484-.94532m6.44532 1.41016l6.77343-1.875m-5.78515 1.60156l-.84375-.89062m13.07422.68359l6.96875-.91797m-5.95313.78516l-.71484-1m13.03906 1.29687l6.91797-1.24218m-5.91016 1.0625l-.7578-.96485m13.39062-1.0625l6.26953 3.17188m6.66406-1.58594h7.02734m-6.0039 0l-.57422-1.08203m12.88281 1.41406l6.9961-.66406m-6.9961.66406l-1.35156-2.04687m2.3711 1.94921l-.67579-1.02343m14.13672 3.41406l4.66797-5.25m-4.66797 5.25l-2.38672-.57813m3.0625-.1875l-1.1914-.28906m13.60546.83594l5.1172-4.8164m-5.1172 4.8164l-2.32422-.78516m3.06641.08594l-1.16016-.39453m13.13672.23828l6.3086-3.10156m-6.3086 3.10156l-1.98828-1.4375m2.90625.98438l-.99219-.71485m13.33985 1.0586l6.40625-2.88282m-6.40625 2.88282l-1.9414-1.50391m2.875 1.08594l-.97266-.75391m14.60156 2.64844l3.91015-5.83985m-3.91015 5.83985l-2.4375-.2461"/><g clip-path="url(#I)"><path fill="none" stroke="#000" stroke-linecap="round" stroke-linejoin="round" stroke-miterlimit="10" stroke-width=".5" d="M146.90625 438.41016l-5.8125 3.9453"/></g><path fill="none" stroke="#000" stroke-linecap="round" stroke-linejoin="round" stroke-miterlimit="10" stroke-width=".5" d="M146.90625 438.41016l2.17188 1.14453m10.98046-1.36719l-5.48437 4.39453m5.48437-4.39453l2.25.96875m11.22266-.7539l-5.80469 3.96093m4.96094-3.38281l1.08594.57031m13.3789-.60547l-6.41406 2.875m5.48047-2.45703l.96875.7539m13.58203.0625l-7.01562.40626m5.99218-.34375l.63672 1.04687m13.6836-.5039l-6.98047-.80079m5.96484.6836l.44922 1.14062m13.89063-1.11328l-7-.6211m5.98046.52735l.48047 1.13281m12.90625 1.06641l-5.10547-4.83203m16.51172 5.8711l-1.28515-6.91016m14.48437 6.92578l-1.05469-6.94531m.90235 5.9375l-.98438.73046m14.94532-3.1953l-.01954-.19923-.05859-.1914L278 439.8164l-.45703-.37891-.1914-.0586-.19923-.01953-.19921.01954-.19532.05859-.45703.3789-.09375.17579-.0586.1914-.01952.19922.01953.19922.0586.1914.09374.1797.45703.375.19532.05859.19921.01953.19922-.01953.1914-.0586.45704-.375.09375-.17968.0586-.1914.01953-.19923m11.62109 3.44922l1.34375-6.89844m14.74219 6.26953l-4.19532-5.63671m13.50782 5.76953L319 437.42969m11.00781 6.44531l.8086-6.98047m9.41797 3.08203l6.98046.8125m-5.96484-.6914l-.44531-1.14454m13.0039.0586l6.46485 2.7461m-5.52344-2.34766l-.10937-1.22266m12.46093 3.51953l6.51172-2.64453m-5.5664 2.25781l-.94141-.78515m13.11719.51953l6.89843-1.34375m-6.89843 1.34375l-1.54688-1.90625m14.84375.67187l6.9336 1.125m-6.9336-1.125l-.79297-2.32422m1.80078 2.48828l-.39453-1.16015m12.65625 1.57422l7.02735-.03125m-7.02735.03125l-1.16406-2.16016m2.1836 2.15625l-1.16016-2.16016m13.78906 3.64454l6.35938-2.9922m-6.35938 2.9922l-1.96484-1.46875m2.89062 1.03515l-1.96484-1.46875m14.4336 2.0664l6.1953-3.3164m-6.1953 3.3164l-2.03516-1.36718m2.9375.88281l-2.03907-1.36718m14.40235 1.75l6.29687-3.1172m-6.29687 3.1172l-1.9922-1.4297m2.91017.97657l-1-.71484m14.42968 2.41406l4.23047-5.60938m-4.23047 5.60938l-2.42187-.38281m3.03906-.4336l-1.21094-.1914"/><g clip-path="url(#J)"><path fill="none" stroke="#000" stroke-linecap="round" stroke-linejoin="round" stroke-miterlimit="10" stroke-width=".5" d="M146.78516 424.92578l-5.57032 4.28516"/></g><path fill="none" stroke="#000" stroke-linecap="round" stroke-linejoin="round" stroke-miterlimit="10" stroke-width=".5" d="M146.78516 424.92578l2.23437 1.01563m-3.04297-.39063l1.11719.50781m13.00781-1.1328l-5.57031 4.28515m5.57031-4.28516l2.23047 1.01563m11.42969-.46485l-6.26172 3.1836m6.26172-3.1836l2.00781 1.40625m11.47266-1.02343l-6.59375 2.41796m5.63672-2.0664l.91406.8164m13.57422.08204l-7.02735-.08204m7.02735.08204l1.1289 2.17968m12.15625-1.76172l-6.96484-.91796m5.95313.78515l.42968 1.14844m13.48047.24219l-6.13281-3.4336m15.86719 5.1914l1.02734-6.94921m14.80469 6.36328l-4.0039-5.77734m3.41796 4.9375l-.5586 1.08984m14.97266-.6836l-5.03125-4.91015m4.29688 4.19531l-.34375 1.17579m15.32031-3.6211l-6.88281 1.41406m14.25-3.17187l5.01172 4.92578m7.35546-1.8086l6.90625-1.30859m7.50391 3.26172l4.71485-5.21484m8.33593.26562l5.24219 4.6836m-4.47656-4l.28906-1.19141m12.77734.03516l4.21094 5.6289m7.70313-2.57422l7.01171-.48046m-5.99218.41015l-.64844-1.04297m13.60156 2.92969l5.69922-4.11328m-4.8711 3.51562l-1.10156-.54296m13.91016 1.52343l5.05469-4.8789m-5.05469 4.8789l-2.33594-.75781m3.07032.04688l-1.16797-.37891m13.74219-3.78516l5.0664 4.8711m-5.0664-4.8711l.67187-2.35937m.0664 3.0664l.33594-1.17968m11.32032 2.2578l6.90625 1.30079m-6.90625-1.30078l-.73047-2.33984m14.02734 2.45703l6.94531 1.0664m-5.9375-.91015l-.40234-1.15625m13.11328 3.24609L440 425.35547m-6.13672 3.42578l-2.0625-1.32812m2.95703.82812l-1.03125-.66406m13.00781-.69922l7.02344.30078m-6-.25781l-.53125-1.10547m13.5625 3.3711l5.54688-4.31641m-5.54688 4.3164l-2.23828-1m3.04688.3711l-1.1211-.5"/><g clip-path="url(#K)"><path fill="none" stroke="#000" stroke-linecap="round" stroke-linejoin="round" stroke-miterlimit="10" stroke-width=".5" d="M146.71484 411.52344l-5.42968 4.46094"/></g><path fill="none" stroke="#000" stroke-linecap="round" stroke-linejoin="round" stroke-miterlimit="10" stroke-width=".5" d="M146.71484 411.52344l2.26563.9414m-3.05469-.29297l1.13281.46875m13.4375-.3828l-6.35937 2.99218m6.35937-2.99219l1.96094 1.46875m-2.88672-1.03515l.98047.73437m13.1836-1.32031l-6.20704 3.29687m6.20703-3.29687l2.03125 1.3711m11.6836.53124L180.4414 413.5m5.98828.4336l.4961 1.12109m13.76562-.53906l-6.85938-1.52344m5.85938 1.30078l.32812 1.1836m11.57813-1.72266l-.01953-.19922-.0586-.1914-.09375-.1797-.46094-.375-.1914-.05859-.19922-.01953-.19922.01953-.1914.0586-.45704.375-.09765.17968-.0547.1914-.01952.19923.01953.19921.05469.19141.09765.17578.45703.3789.19141.0586.19922.01953.19922-.01953.1914-.0586.46094-.3789.09375-.17578.0586-.1914.01953-.19922m9.6875 2.35937l5.21093-4.71875m8.02735 4.6289l5.36328-4.53906m-4.58203 3.87891l-1.14063-.45312m15.60156 2.27343l1.51172-6.86328m-1.29297 5.86719l-1.18359.32812m14.32031.6797l1.4297-6.88282m-1.22267 5.8789l-1.17578.34376m17.5547-.3711l-5.11329-4.82031m4.3711 4.11719l-.32423 1.1836m15.27735-3.53517l-6.90625 1.28907m5.90234-1.10157l.76563.96094m13.5039.3711l-6.80468-1.75m5.8164 1.49609l.28516 1.1914m12.02344 1.40626l-2.81641-6.4375m11.75 5.08984l5.94531-3.7461m-5.07812 3.20313l-1.0664-.60937m14.04687 1.80859l4.8828-5.05469m-4.17187 4.3164l-1.17968-.33593m19.73437-1.63672l-7.01953.36719m5.9961-.3125l.6328 1.05078m6.69922-1.26172l6.9922.67969m6.9453-2.35938l5.75 4.03907m-4.91406-3.45313l.15235-1.21875m13.57812-.46484l3.2461 6.23437m-3.2461-6.23437l1.38672-2.02344m-.91406 2.92969l.69531-1.01172m13.76953-.29297v7.02734m0-7.02734l2.16797-1.14844m-2.16797 2.17188l2.16797-1.15235m12.63672.46094l-2.97656 6.36719m2.97656-6.36719l2.44922-.125m-2.88282 1.05078l2.44922-.125m11.21485-.83593l-2.8086 6.4375m2.8086-6.4375l2.44922-.19141m-2.85547 1.125l2.44531-.1875m11.21094-.77734L448.90625 417m2.67969-6.4961l2.4414-.23827m10.375.07812l-1.68359 6.82031m1.6836-6.82031l2.3828-.60156"/><g clip-path="url(#L)"><path fill="none" stroke="#000" stroke-linecap="round" stroke-linejoin="round" stroke-miterlimit="10" stroke-width=".5" d="M146.77344 398.28125l-5.54688 4.3125"/></g><path fill="none" stroke="#000" stroke-linecap="round" stroke-linejoin="round" stroke-miterlimit="10" stroke-width=".5" d="M146.77344 398.28125l2.23828 1.0039m11.44922-.41015L154.16797 402m6.29297-3.125l1.9961 1.42969m-2.91017-.97656l.9961.71484m12.39453-2.2539l-4.61328 5.30077m4.61328-5.30078l2.39063.55078m-3.0625.21875l1.1953.27735m11.4297-1.78125L183 403.82422m1.89063-6.76953l2.39453-.52735m7.04297 1.97657l5.86328 3.87109m-5.01172-3.3086l.11719-1.22265m11.80078 3.09766l6.95312-1.00782m-5.9414.86329l-.72657-.9922m13.21485-.59374l6.58593 2.45703m-5.6289-2.10156l-.16016-1.21485m15.875-1.42578l-.1289 7.02735m.10937-6.00391l1.09375-.5586m11.4414 6.48438l1.46876-6.8711M250 402.875l-1.17969.33594m12.22656-.63281l5.57422-4.27735m-5.57422 4.27735l-2.23046-1.01563m17.3789 2.25781l1.91016-6.76172m-1.63281 5.77735l-1.19922.25781m16.0586.75l-1.73438-6.8086m1.48047 5.81641l-.90625.82813m12.76171.16797l1.69532-6.82032m-1.44922 5.82813l-1.1875.29687m12.13672-.82812l5.93359-3.76953m7.03516.71484l6.625 2.33985m6.65234-.1172l6.70313-2.10937m-5.72657 1.80469l-.875-.85938m15.95703 3.57032l1.21485-6.92188m-1.03906 5.91406l-1.16797.38282m12.15234-.66406l5.52344-4.34375m-4.71875 3.71484l-1.1211-.4961m17.83594-4.25l-2.88281 6.40625m2.46484-5.47265l1.22266-.08203m11.82031-1.07813l-1.5039 6.86328m1.5039-6.86328l2.36328-.66406m12.8164 1.75l-5.23437 4.6875m5.23438-4.6875l2.30469.84375m10.0664-1.58984l-3.34765 6.17968m3.34765-6.17968l2.45313.01953m-2.9375.88281l1.22656.00781m12.1211-1.11328l-2.44532 6.58594m2.44531-6.58594l2.4336-.32422m-2.78906 1.28125l1.21875-.16015m12.32812-.83985l-2.19531 6.67578m2.19531-6.67578l2.41797-.41797m-2.73828 1.38672l1.21094-.20703m13.41796-.25l-4.17968 5.64844"/><g clip-path="url(#M)"><path fill="none" stroke="#000" stroke-linecap="round" stroke-linejoin="round" stroke-miterlimit="10" stroke-width=".5" d="M465.65234 397.61328l2.42579.36328"/></g><path fill="none" stroke="#000" stroke-linecap="round" stroke-linejoin="round" stroke-miterlimit="10" stroke-width=".5" d="M465.04297 398.4375l1.21484.17969"/><g clip-path="url(#N)"><path fill="none" stroke="#000" stroke-linecap="round" stroke-linejoin="round" stroke-miterlimit="10" stroke-width=".5" d="M145.98047 384.21875l-3.96094 5.8086"/></g><path fill="none" stroke="#000" stroke-linecap="round" stroke-linejoin="round" stroke-miterlimit="10" stroke-width=".5" d="M145.98047 384.21875l2.4375.26953m11.52344.30078l-5.25391 4.66797m5.2539-4.66797l2.30079.85547m10.1914-1.53906l-3.60547 6.03515m3.60547-6.03515l2.44922.125m-2.97656.7539l1.22656.0625m12.61719-.9375l-3.60938 6.02735m3.60938-6.02735l2.45313.125m-2.97657.75391l2.44922.125m10.71875-1.3164l-2.26953 6.65234m2.26953-6.65235l2.42188-.39062m-2.75 1.35938l1.21093-.19532m11.34375-.96094l-.08984 7.02735m.08984-7.02735l2.1797-1.12109m12.94921 7.61719l-3.71875-5.96485m3.17578 5.09766l-.61328 1.0625m16.11328-3.45312l-7.0039.55078m7.0039-.55078l1.32031 2.0703m11.8711-.82421l-6.7539-1.9414m5.76952 1.65624l.2539 1.20313m13.94923-.6289l-6.5625-2.51954m5.60547 2.15235l.15234 1.21875m13.88672-.36329l-6.09766-3.49218m6.09766 3.49218l-.07813 2.44922m13.5625-2.78515l-6.43359-2.82422m6.4336 2.82422l.18359 2.44921m13.36328-3.1875l-6.89844-1.34765m5.89453 1.15234l.35547 1.17188m12.3164-4.66797l-3.60546 6.03515m3.08203-5.15625l1.22266.0625m8.36718-.4453l4.89453 5.04296m-4.18359-4.3086l.375-1.16796m11.21484 2.35547l6.92188 1.19922m6.44531-1.44532l6.82031 1.69141m-5.82812-1.44531l-.30078-1.1914m19.0625 3.5664l-6.0625-3.55078m5.1836 3.03515l-.05079 1.22656m14.3789-4.01171l-6.33202 3.05078m6.33203-3.05078l1.98047 1.45312m-2.90235-1.00781l.99219.72656m12.97266-1.64453l-5.78516 3.9961m5.78516-3.9961l2.17578 1.1289m-3.01953-.54687l2.17968 1.1289m11.66016-2.10546l-5.14453 4.78515m5.14453-4.78515l2.3164.80078m-3.0664-.10547l2.32031.80078m10.3164-2.42578l-2.29296 6.64453m2.29297-6.64453l2.42578-.3789m10.53906.27734l-1.58984 6.84765m1.58984-6.84765l2.3711-.6289m-2.60157 1.625l1.1836-.31641m12.27343-.69922l-1.41406 6.88672m1.41406-6.88672l2.35157-.6914m11.6875.92577l-2.85938 6.41797m2.85938-6.41797l2.44531-.17187m-2.86328 1.10547l1.22656-.08594"/><g clip-path="url(#O)"><path fill="none" stroke="#000" stroke-linecap="round" stroke-linejoin="round" stroke-miterlimit="10" stroke-width=".5" d="M143.58594 370.32031l.82812 6.97656"/></g><g clip-path="url(#P)"><path fill="none" stroke="#000" stroke-linecap="round" stroke-linejoin="round" stroke-miterlimit="10" stroke-width=".5" d="M143.70703 371.33594l1.00781-.70313"/></g><path fill="none" stroke="#000" stroke-linecap="round" stroke-linejoin="round" stroke-miterlimit="10" stroke-width=".5" d="M157.70703 370.3164l-.78516 6.98438m.67188-5.96875l1.14063-.44922m12.4375-.54687l-1.08594 6.94531m.92969-5.9336l1.16015-.40234m13.82031.01172l-4.10156 5.70313m4.10156-5.70313l2.4336.32813m10.41015-.6172l-3.16015 6.27735m3.16015-6.27734l2.45313-.05469m-2.91406.96875l1.22656-.02734m12.8164-.73438l-3.6914 5.97656m3.6914-5.97656l2.44922.15625m-2.98828.71094l1.22656.07813m13.81641.26953l-6.07031 3.54296m6.07031-3.54296l2.08594 1.29296m-2.96875-.77734l1.04297.64453m13.30078-.8789l-6.36328 2.98437m6.36328-2.98437l1.96094 1.46875m11.34765-1.48438l-6.34765 3.01563m6.34765-3.01563l1.96875 1.46485m-2.89453-1.02735l1.97266 1.46485m12.35156-1.71094l-6.51563 2.6289m6.51563-2.6289l1.8789 1.57812m-2.82812-1.19531l1.8789 1.57813m12.2422-2.26954l-6.23047 3.25m6.23047-3.25l2.02343 1.39063m-2.92969-.91797l1.01172.69531m13.34766-.86719l-6.50781 2.64844m6.50781-2.64844l1.88672 1.57422m-2.83203-1.1875l.9414.78516m13.26563-1.30078l-6.39844 2.90625m6.39844-2.90625l1.94531 1.4961m10.41406-2.75l-4.48437 5.41015m4.48437-5.41016l2.40235.4961m-3.05469.29296l1.19922.2461m12.52734-1.21485l-4.00781 5.77344m4.00781-5.77344l2.4375.28907m8.42578-.88672l.89454 6.96875m-.76172-5.95703l1-.70703m12.74609-.33204l-.23047 7.02344m.19922-6l1.10156-.54297m15.53125 2.15235l-6.80469 1.75781m5.81641-1.5l.82813.90234m13.57812-.01953l-7.00781-.52734m7.00781.52734l.98438 2.25m12.05468-3.89453l-6.45703 2.76563m6.45703-2.76563l1.91407 1.53516m10.21875-3.00781l-4.09375 5.71093m4.09375-5.71094l2.43359.32422m-3.02734.50782l1.21484.16015m12.28906-1.24219l-3.28515 6.21094m3.28515-6.21094l2.45703-.0039m-2.93359.90625l2.45313-.0039m10.45703-1.22266l-1.51954 6.85937m1.51954-6.85937l2.36328-.65625m9.74219.60156l.89843 6.96875m-.89844-6.96875l2.00391-1.41797m12.41797 1.44922l-1.3125 6.90625m1.3125-6.90625l2.34375-.72656"/><g clip-path="url(#Q)"><path fill="none" stroke="#000" stroke-linecap="round" stroke-linejoin="round" stroke-miterlimit="10" stroke-width=".5" d="M140.94531 358.75781l6.10938 3.47266"/></g><path fill="none" stroke="#000" stroke-linecap="round" stroke-linejoin="round" stroke-miterlimit="10" stroke-width=".5" d="M154.01172 359.30078l6.60937 2.38672m-5.64843-2.03906l-.17578-1.21485m12.34375 2.47266l6.98046-.82422m-5.96484.70313l-.69922-1.00782m15.2539-2.57421l2.46876 6.57812m12.29297-6.79688L197.05078 364m.35938-5.99219l1.11718-.51172m11.625-.49218L211 363.98047m-.84766-6.97656l2.01172-1.40235m13.59766 1.91797l-3.74219 5.94922m3.74219-5.94922l2.44531.17578m11.82813.71094l-5.65625 4.17188m5.65625-4.17188l2.21093 1.0625m9.375-2.3125l-2.20312 6.67188m1.88281-5.69922l1.21094-.20704m12.71094-.65625l-2.77735 6.45313m2.77735-6.45313l2.4453-.20312m11.70704.71094l-4.44922 5.4375m4.44922-5.4375l2.40625.48047m11.35938-.03907l-5.35157 4.5547m5.35156-4.5547l2.28125.90625m11.32032-.51953l-5.92188 3.78516m5.0586-3.23438l1.0703.60157m11.46095-2.51954l-2.62891 6.51563m2.2461-5.5664l1.22265-.12891m11.48047-1.0586l-.64063 6.9961m.64063-6.9961l2.26172-.95312m10.52734.9414L343.9297 364m-.41016-7.01563l2.09766-1.27343m11.94531 1.3086l-1.04297 6.94921m1.04297-6.94922l2.3125-.82031m13.5625 2.60937l-6.16406 3.3711m6.16406-3.3711l2.05078 1.34766m11.6836.61328l-7.00391-.55469m7.0039.5547l.98047 2.25m12.28516-3.1875l-6.90234 1.3203m6.90234-1.3203l1.53906 1.91405m10.36719-4.11328l-4.08594 5.71875m4.08594-5.71875l2.4336.32422m10.35546-.63281l-3.03125 6.33984m3.03125-6.33984l2.44922-.10547m-2.89062 1.02734l2.44921-.10546m11.07032-.91797l-2.5586 6.54296m2.5586-6.54296l2.4375-.28516m-2.8086 1.23438l1.21875-.14063m11.87891-.98438l-1.38281 6.89063m1.38281-6.89063l2.35156-.69921m12.5625 1.48046l-4.58203 5.32813"/><g clip-path="url(#R)"><path fill="none" stroke="#000" stroke-linecap="round" stroke-linejoin="round" stroke-miterlimit="10" stroke-width=".5" d="M465.85156 357.82813l2.39453.53906"/></g><g clip-path="url(#S)"><path fill="none" stroke="#000" stroke-linecap="round" stroke-linejoin="round" stroke-miterlimit="10" stroke-width=".5" d="M144.08203 343.66406l-.16406 7.02735"/></g><g clip-path="url(#T)"><path fill="none" stroke="#000" stroke-linecap="round" stroke-linejoin="round" stroke-miterlimit="10" stroke-width=".5" d="M144.0586 344.6875l1.09374-.55078"/></g><path fill="none" stroke="#000" stroke-linecap="round" stroke-linejoin="round" stroke-miterlimit="10" stroke-width=".5" d="M153.88281 347.9336l6.86328-1.51173m7.92578 3.67579l3.91407-5.83594m-3.34375 4.98437l-1.21875-.125m15.76172 1.56641l.3203-7.01953m-.27343 6l-1.10937.52344m11.22656-1.84375l6.625-2.33985m-5.66406 2l-.90235-.82812m13.09375-.51563l6.94922 1.02735m-5.9414-.87891l-.41016-1.15625m14.6211-1.6211l3.14062 6.28516m-2.6836-5.3711l.71094-1m12.82031-.16796l1.79297 6.79297m-1.53125-5.80469l.89844-.83203m11.28516.20313l3.53515 6.07421m-3.02344-5.1875l.64844-1.04296m11.35547.79296l5.1289 4.80079m-5.1289-4.80079l.64063-2.37109m12.86718 2.17969l4.7461 5.1836m-4.7461-5.1836l.82032-2.3125m-.12891 3.0664l.41016-1.15625m12.51953.15235l4.13281 5.6836m-4.13281-5.6836l1.07422-2.20703M289 345.16406l.53906-1.10547m12.28516.19922l3.91406 5.83985m-3.91406-5.83985l1.15625-2.16015m-.58594 3.01171l.57813-1.08203m11.4414.88282l5.36719 4.53515m-5.36719-4.53515l.51563-2.39844m13.11328 2.07031l4.73437 5.1914m-4.73437-5.1914l.82812-2.3125m13.31641 1.75l3.07813 6.3164m-3.07813-6.3164l1.4414-1.98437m-.99609 2.90234l.72266-.99219m11.44531.52735l4.48047 5.41015m-4.48047-5.41015l.9336-2.26954m16.39062 1.9375l-3.53516 6.07422m3.01954-5.1914l1.22656.04687m14.34375 2.28516L380.16406 347m5.9961.30469l.51953 1.10937m13.61719-.0625l-6.6211-2.34375m5.66016 2l.17969 1.21485m14.18359-2.94532l-6.79297 1.80079m5.80469-1.53907l.83203.89844m12.11719-3.11719l-4.08594 5.71875m4.08594-5.71875l2.42968.32031m10.37891-.62109l-3.07422 6.3164m3.07422-6.3164l2.45313-.08984m-2.89844 1.00781l1.22265-.04297m13.07422-.55078l-4.14843 5.66797m4.14843-5.66797l2.42969.34766m11.5625.30078l-5.5 4.3711"/><g clip-path="url(#U)"><path fill="none" stroke="#000" stroke-linecap="round" stroke-linejoin="round" stroke-miterlimit="10" stroke-width=".5" d="M466.3125 344.99219l2.25.98047"/></g><g clip-path="url(#V)"><path fill="none" stroke="#000" stroke-linecap="round" stroke-linejoin="round" stroke-miterlimit="10" stroke-width=".5" d="M146.96094 331.96875l-5.92188 3.78906"/></g><path fill="none" stroke="#000" stroke-linecap="round" stroke-linejoin="round" stroke-miterlimit="10" stroke-width=".5" d="M146.96094 331.96875l2.13672 1.20313m11.72265.4375l-7.00781.5078m5.98828-.43359l.65234 1.03516m13.48829.32031l-6.6211-2.35156m14.5586 4.01563l4.1328-5.6797m12.53907-.42968l-2.57812 6.53906m11.48437-1.64844l6.23438-3.24218m6.83593.60547l6.72657 2.03125m-5.75-1.73829l-.23438-1.20312m13.90625-.9414l4.0586 5.73437m-3.46875-4.90235l.55468-1.09375m11.30078 1.14454l5.79688 3.96875m-4.95313-3.39063l.13672-1.22265m12.26563.75l5.9375 3.7539m-5.9375-3.7539l.17969-2.44532m13.3789 2.10547l5.44922 4.4336m-5.44922-4.4336l.47266-2.40625m.32031 3.05469l.23438-1.20703m12.28125.5664l5.46484 4.41797m-5.46484-4.41797l.46484-2.40625m.32812 3.05079l.23438-1.20313m11.98437.9961l6.07032 3.54296m-6.07032-3.54297l.09766-2.44921m.78516 2.96484l.05078-1.22266m12 1.66406l6.83203 1.63282m-6.83203-1.63281l-.61719-2.375m1.60938 2.61328l-.3086-1.1875m12.53516 1.71093l7.02734.10938m-7.02734-.10938l-1.1211-2.18359m14.4336 2.20313l7.02734.0703m-7.02734-.0703l-1.1289-2.1797m2.15234 2.1875l-.5625-1.08984m13.08593-.1289l6.5664 2.49219m-6.5664-2.4922l-.3086-2.43359m1.26173 2.79688l-.15235-1.21875m12.41016 1.17187l6.77734 1.85938m-6.77734-1.85938l-.53906-2.39453m13.85547 4.26563l6.76953-1.88281m-5.78516 1.60937l-.84375-.89063m14.98828 3.36329l3.14453-6.28516m-2.6875 5.3711l-1.22656.03124m17.32422.83594l-3.33203-6.1875m2.84766 5.28516l-.6836 1.02344m15.91797-1.5625l-6.20312-3.3047m5.30078 2.82423l-.00391 1.22656m13.52344-4.96094l-4.8086 5.125m4.10938-4.3789l1.1836.3203m13.17577-.6914l-5.5 4.375m5.5-4.375l2.25.97656m-3.05078-.33984l1.125.48828m13.05469-1.04297l-5.625 4.21094"/><g clip-path="url(#W)"><path fill="none" stroke="#000" stroke-linecap="round" stroke-linejoin="round" stroke-miterlimit="10" stroke-width=".5" d="M466.375 331.75781l2.21875 1.04297"/></g><path fill="none" stroke="#000" stroke-linecap="round" stroke-linejoin="round" stroke-miterlimit="10" stroke-width=".5" d="M465.55469 332.3711l1.11328.52343"/><g clip-path="url(#X)"><path fill="none" stroke="#000" stroke-linecap="round" stroke-linejoin="round" stroke-miterlimit="10" stroke-width=".5" d="M147.26172 319.24219l-6.52344 2.60937"/></g><path fill="none" stroke="#000" stroke-linecap="round" stroke-linejoin="round" stroke-miterlimit="10" stroke-width=".5" d="M147.26172 319.24219l1.875 1.58594m-2.82422-1.20704l.9375.79297m13.42188-.90234l-6.71485 2.07422m6.71484-2.07422l1.73829 1.73047m-2.71485-1.42969l.8711.86719M174 319.55859l-6.74219 1.98047M174 319.5586l1.71875 1.75391m11.70703-1.23047l-6.96484.9336m5.95312-.80079l.71485 1m12.51172-3.25l-4.76172 5.16797m4.0703-4.41797l1.1875.3125m11.27735-1.89062l-1.67578 6.82422m1.42969-5.83203l1.1914-.30079m11.2461-.78125l.57031 7.00391m-.48828-5.98437l1.03516-.66407m12.03906-.33984l.88672 6.97266m-.75781-5.95704l1.0039-.71093m11.67578-.20313l1.89844 6.76563m-1.89844-6.76563l1.77735-1.6914m11.19922 1.80468l2.57812 6.53907m-2.57813-6.53907l1.59375-1.86328m11.30079 2.0625l3.41797 6.14063m-3.41797-6.14063l1.33203-2.0586m12.27734 1.91407l2.82813 6.4336m-2.82813-6.4336l1.51953-1.92578m11.47266 2.08594l3.47266 6.10937m-2.96485-5.21875l.65625-1.03515m11.26953.85937l5.23828 4.6836m-5.23828-4.6836l.58594-2.38281m11.88672 4.11719l6.92187 1.21484m-5.91406-1.03906l-.3789-1.16797m12.63671 1.6875l7.02344-.17578m-6.0039.14844l-.60157-1.06641m12.94922 1.6289l6.91797-1.24609m-6.91797 1.2461l-1.51562-1.9297m14.78515 1.04298l7.00782.52734m-7.00782-.52734l-.98437-2.2461m14.29687 2.27735l7.01172.46093m-7.01172-.46093l-1.00781-2.23438m14.80078 4.25l6.0586-3.5664m-6.0586 3.5664l-2.08984-1.28125m18.21094 3.0039l.4453-7.01171m-.4453 7.01172l-2.23438 1.01172m2.30078-2.03125l-1.1211.5039m14.89454.50781l-.60547-7m.60547 7l-2.0586 1.33594m17.15235-2.0039l-4.16016-5.66016m3.55469 4.83594l-.53125 1.10547m15.88281-3.01954l-7.02343-.1875m7.02343.1875l1.09375 2.19532m11.6914-4.14453l-5.96483 3.71484"/><g clip-path="url(#Y)"><path fill="none" stroke="#000" stroke-linecap="round" stroke-linejoin="round" stroke-miterlimit="10" stroke-width=".5" d="M466.54297 318.6914l2.125 1.22657"/></g><path fill="#00f" fill-rule="evenodd" d="M383.80078 441.01953h8.61719V430.8711h-8.61719v10.14844"/><path fill="azure" fill-rule="evenodd" d="M385.63281 432.70703h.83203v2.82031h3.28907v-2.8203h.83203v6.47655h-.83203v-2.91406h-3.28907v2.91406h-.83203v-6.47656"/><path fill="#ff3030" fill-rule="evenodd" d="M202.52344 436.57813h7.6914v-10.14454h-7.6914v10.14454"/><path fill="azure" fill-rule="evenodd" d="M204.35547 428.26563h.83203v5.74218h3.19531v.73828h-4.02734v-6.48046"/><path fill="#00f" fill-rule="evenodd" d="M215.14453 414.38672h8.61719v-10.14453h-8.61719v10.14453"/><path fill="azure" fill-rule="evenodd" d="M216.97656 406.07422h.83203v2.82422h3.28516v-2.82422h.83594v6.48047h-.83594v-2.91406h-3.28516v2.91406h-.83203v-6.48047"/><path fill="#00f" fill-rule="evenodd" d="M370.48438 401.07422h8.62109v-10.14844h-8.6211v10.14844"/><path fill="azure" fill-rule="evenodd" d="M372.3164 392.76172h.83594v2.82031h3.28516v-2.82031h.83203v6.47656h-.83203v-2.91406h-3.28516v2.91406h-.83593v-6.47656"/><path fill="#ff3030" fill-rule="evenodd" d="M246.90625 392.19531h7.6914v-10.14453h-7.6914v10.14453"/><path fill="azure" fill-rule="evenodd" d="M248.73828 383.88281h.83203v5.73828h3.19531v.7422h-4.02734v-6.48048"/><path fill="#ff3030" fill-rule="evenodd" d="M335.67188 383.32031h7.6953v-10.14844h-7.6953v10.14844"/><path fill="azure" fill-rule="evenodd" d="M337.5039 375.00781h.83594v5.73828h3.19141v.7422h-4.02734v-6.48048"/><path fill="#ff3030" fill-rule="evenodd" d="M198.08203 370.0039h7.69531v-10.14452h-7.6953v10.14453"/><path fill="azure" fill-rule="evenodd" d="M199.91797 361.6914h.83203v5.73829h3.19531v.74219h-4.02734v-6.48047"/><path fill="#ffffe0" fill-rule="evenodd" d="M326.48438 356.92188h22.17968v-10.19141h-22.17969v10.1914"/><path fill-rule="evenodd" d="M329.98047 348.5625h.51172v6.29297h-.78906v-4.48828h-1.38672v-.55469l.55859-.0664.2539-.0547.22657-.08984.20703-.14062.17188-.21094.14062-.29297.10547-.39453m4.8164 0l.22657.01953.21875.05469.21094.08984.1953.1211.1836.14843.17188.17579.30078.41796.2461.4961.17968.54687.10937.57813.03907.58984-.03907.59375-.10937.58594-.17969.55078-.2461.5039-.30077.4297-.17188.17968-.1836.15235-.1953.12109-.21094.09375-.21875.05469-.22656.01953-.23047-.01953-.21875-.0547-.20704-.09374-.19921-.1211-.1836-.15234-.17187-.17969-.30078-.42968-.2422-.50391-.17968-.55078-.11328-.58594-.03516-.59375h.83204l.02734.5625.08203.50781.125.44141.16406.375.1914.30078.21095.22266.22265.13672.22656.04687.22657-.04687.22265-.13672.21094-.22266.1875-.30078.16406-.375.125-.4414.08204-.50782.03125-.5625-.03125-.5586-.08204-.5039-.125-.4336-.16406-.36718-.1875-.29297-.21094-.21094-.22265-.1328-.22656-.04298-.22657.04297-.22265.13281-.21094.21094-.1914.29297-.16407.36719-.125.4336-.08203.5039-.02735.5586h-.83203l.03516-.58985.11328-.57813.17969-.54687.24219-.4961.30078-.41796.17187-.17579.1836-.14843.19921-.1211.20704-.08984.21875-.05469.23046-.01953m5.08985 0h.50781v6.29297h-.78515v-4.48828h-1.38672v-.55469l.55859-.0664.25-.0547.23047-.08984.20312-.14062.17579-.21094.14062-.29297.10547-.39453m2.82422 2.17578h.78515l.01954-.3164.0625-.28907.09765-.25.14063-.21484.17968-.17578.22266-.1289.26563-.07813.30859-.02735.23828.01953.22266.0625.20703.10157.17578.13671.14844.17579.11328.20312.07422.23828.02343.26563-.01953.26562-.0664.22656-.10938.19141-.15625.17188-.20312.16015-.2461.16797-.63281.38672-.53906.3164-.4375.31641-.34375.32422-.26563.33594-.1914.35156-.125.36719-.06641.39453-.02344.41797h4.21485v-.73828h-3.33204l.08204-.28516.11328-.23828.14844-.19922.1875-.17969.23046-.17187.27735-.17578.71875-.41797.41406-.20313.34766-.23437.27734-.25.22266-.26563.16406-.27734.10937-.28516.0625-.28515.02344-.28125-.04297-.38281-.1211-.34766-.1875-.3086-.2539-.26171-.30078-.21485-.34375-.15625-.38281-.10156-.40625-.03125-.4336.03125-.39843.09766-.35547.16796-.30469.23438-.25.30469-.1836.375-.11718.44531-.03906.51953"/><path fill="#ffffe0" fill-rule="evenodd" d="M217.46875 398.09375h22.17969v-10.1914h-22.17969v10.1914"/><path fill-rule="evenodd" d="M220.96875 389.73828h.50781v6.29297h-.78515v-4.48828h-1.38672v-.5586l.5586-.0625.25-.05468.23046-.08985.20313-.14062.17578-.21094.14062-.29297.10547-.39453m4.8125 0l.23047.01563.21875.05859.20703.08984.19922.1172.1836.15233.17187.17579.30078.41796.24219.4922.17968.54687.11328.58203.03907.58984-.03906.59375-.11329.58203-.17968.5547-.2422.5039-.30077.42578-.17188.17969-.1836.15234-.19921.125-.20703.09375-.21875.05469-.23047.01953-.22656-.01953-.21875-.05469-.21094-.09375-.19531-.125-.1836-.15234-.17187-.1797-.30078-.42577-.24219-.5039-.17969-.5547-.11328-.58203-.03906-.59375h.83594l.02734.5625.08203.50781.125.44141.16406.375.19141.30078.20703.21875.22266.14063.22656.04687.22656-.04687.22266-.14063.21094-.21875.1914-.30078.16406-.375.125-.4414.08204-.50782.02734-.5625-.02734-.5625-.08203-.5-.125-.4336-.16407-.36718-.1914-.29297-.21094-.21484-.22266-.1289-.22656-.04688-.22656.04687-.22266.1289-.20703.21485-.1914.29297-.16407.36719-.125.4336-.08203.5-.02734.5625h-.83594l.03906-.58985.11328-.58203.17969-.54688.24219-.49219.30078-.41796.17187-.17579.1836-.15234.19531-.11719.21094-.08984.21875-.0586.22656-.01562m5.09375 0h.50781v6.29297h-.78515v-4.48828h-1.39063v-.5586l.5625-.0625.25-.05468.23047-.08985.20313-.14062.17578-.21094.14062-.29297.10547-.39453m2.82422 2.17188h.78516l.01953-.3125.05859-.28907.10156-.25.14063-.21875.17969-.17187.22265-.1289.26563-.08204.30859-.02734.23828.02344.22266.0625.20312.10156.17969.13672.14844.17578.11328.20312.07422.23828.02344.26172-.02344.26953-.0625.22657-.11328.1914-.15235.17188-.20312.16015-.2461.16797-.6328.38672-.53907.3125-.4375.3164-.34766.32813-.26172.33594-.1914.34766-.125.37109-.07031.39453-.01954.41797h4.21094v-.74219h-3.33203l.08594-.28125.11328-.23828.14844-.20312.1875-.1797.23047-.17187.27734-.17578.71875-.41406.41406-.20703.34375-.23047.28125-.25.21875-.26953.16406-.27735.11328-.28125.0625-.28515.01954-.28125-.03907-.38281-.12109-.35157-.1914-.30468-.25-.26563-.30079-.21094-.34765-.16015-.37891-.09766-.40625-.03125-.4336.03125-.39843.09766-.35547.16797-.30469.23437-.25.30469-.1836.3711-.11718.44921-.03906.51563"/><path fill="#ffffe0" fill-rule="evenodd" d="M319.55078 406.82813h22.1836v-10.19141h-22.1836v10.1914"/><path fill-rule="evenodd" d="M323.05078 398.46875h.51172v6.29688h-.78906v-4.48829h-1.38672v-.55859l.5586-.0625.25-.05469.23046-.08984.20313-.14063.17578-.21093.14062-.29297.10547-.39844m4.8125 0l.23047.01953.21875.0586.21094.08593.19531.1211.1836.15234.17187.17578.30078.41797.24219.49219.17969.54687.11328.58203.03906.58985-.03906.59375-.11329.58203-.17968.55469-.24219.5039-.30078.42578-.17188.1797-.18359.15233-.19531.125-.21094.09375-.21875.0547-.23047.01952-.22656-.01953-.21875-.05469-.21094-.09375-.19531-.125-.1836-.15234-.17187-.17969-.30078-.42578-.24219-.5039-.17969-.5547-.11328-.58202-.03906-.59375h.83594l.02734.5625.08203.50781.125.4414.16406.375.19141.30079.21094.21875.22265.13672.22266.04687.22656-.04687.22266-.13672.21094-.21875.1914-.30078.16407-.375.125-.44141.08203-.50781.02734-.5625-.02734-.5625-.08203-.5-.125-.4336-.16407-.36718-.1914-.29297-.21094-.21485-.22266-.1289-.22656-.04688-.22265.04688-.22266.1289-.21094.21485-.1914.29297-.16407.36718-.125.4336-.08203.5-.02734.5625h-.83594l.03906-.58985.11328-.58203.1797-.54687.24218-.49219.30078-.41797.17188-.17578.18359-.15234.19531-.1211.21094-.08594.21875-.05859.22656-.01953m5.09375 0h.50781v6.29688h-.78515v-4.48829h-1.39063v-.55859l.5625-.0625.25-.05469.23047-.08984.20313-.14063.17578-.21093.14062-.29297.10547-.39844m2.82422 2.17578h.78516l.01953-.3164.0586-.28516.10155-.2539.14063-.21485.17969-.17188.22265-.1289.26563-.08203.3086-.02735.23827.02344.22266.0625.20312.10156.1797.13672.14843.17188.11328.20703.07422.23828.02344.26172-.02344.26953-.0625.22656-.11328.1914-.15235.16798-.20312.16406-.2461.16797-.6328.38672-.53907.3125-.4375.3164-.34766.32422-.26171.33594-.19141.35156-.125.3711-.0664.39453-.02344.41796h4.21093v-.74218h-3.33203l.08594-.28125.11328-.23828.14844-.20313.1875-.17969.23047-.17187.27734-.17578.71875-.41406.41406-.20704.34375-.23046.28125-.25.21875-.26954.16406-.27734.11329-.28125.0625-.28516.01953-.28125-.03906-.38671-.1211-.34766-.1914-.30469-.25-.26562-.30079-.21094-.34765-.16016-.3789-.09765-.40626-.03516-.4336.03516-.39843.09765-.35547.16797-.30469.23438-.25.30468-.18359.3711-.11719.44922-.03906.51562"/><path fill="#ffffe0" fill-rule="evenodd" d="M386.1289 419.83594h22.1797v-10.1914h-22.1797v10.1914"/><path fill-rule="evenodd" d="M389.625 411.47656h.51172v6.29688h-.78906v-4.49219h-1.38672v-.55469l.5586-.0664.2539-.05079.23047-.08984.20312-.14062.17188-.21094.14062-.29688.10547-.39453m4.8164 0l.22657.01953.22265.0547.20704.08983.1953.1211.1836.14844.17188.17578.30078.42187.2461.49219.17968.54688.10938.57812.03906.59375-.03906.58984-.10938.58594-.17969.55469-.2461.5-.30077.42969-.17188.17968-.1836.15235-.1953.125-.20704.08984-.22265.0586-.22656.01953-.23047-.01954-.21875-.05859-.20703-.08984-.19922-.125-.1836-.15235-.17187-.17968-.30078-.4297-.24219-.5-.17969-.55468-.11328-.58594-.03515-.58984h.83203l.02734.5625.08203.5039.125.44532.16406.375.19141.29687.21094.22266.22265.13672.22657.04687.22656-.04687.22265-.13672.21094-.22266.1914-.29687.16017-.375.125-.44531.08203-.50391.03125-.5625-.03125-.5625-.08204-.5-.125-.4375-.16015-.36328-.1914-.29297-.21094-.21484-.22266-.13282-.22656-.04296-.22657.04296-.22265.13282-.21094.21484-.1914.29297-.16407.36328-.125.4375-.08203.5-.02734.5625h-.83204l.03516-.59375.11328-.57813.17969-.54687.24219-.49219.30078-.42187.17187-.17578.1836-.14844.19922-.1211.20703-.08984.21875-.05469.23047-.01953m5.08984 0h.51172v6.29688h-.78906v-4.49219h-1.38672v-.55469l.5586-.0664.2539-.05079.22656-.08984.20313-.14062.17578-.21094.14062-.29688.10547-.39453m2.82422 2.17578h.78515l.01954-.3164.0625-.28516.09765-.2539.14063-.21485.17969-.17187.22265-.12891.26563-.08203.30859-.02735.23828.01954.22266.0625.20703.10156.17578.14062.15234.17188.10938.20703.07422.23438.02344.26562-.01954.26953-.0664.22266-.10938.1914-.15625.17188-.19922.16406-.25.16406-.6328.39063-.53907.3125-.4375.3164-.34375.32422-.26563.33594-.1914.35156-.125.3711-.0664.39062-.02345.42188h4.21485v-.74219h-3.33203l.08203-.28516.11328-.23437.14844-.20313.1875-.17968.23046-.17188.27735-.17578.71875-.41406.41406-.20703.34766-.23047.27734-.25.22266-.26953.16406-.27735.10938-.28515.0625-.28516.02343-.28125-.04297-.38281-.12109-.34766-.1875-.3086-.25-.26171-.30469-.21094-.34375-.16015-.38281-.09766-.40625-.03516-.4336.03516-.39843.09765-.35547.16407-.30469.23437-.25.30469-.1836.375-.11718.44531-.03906.51953"/><path fill="#ffffe0" fill-rule="evenodd" d="M148.70313 339.16797h22.17968v-10.1914h-22.17969v10.1914"/><path fill-rule="evenodd" d="M152.20313 330.8086h.5078v6.29296h-.78515v-4.48828h-1.39062v-.55469l.55859-.0664.2539-.05469.23048-.08594.20312-.14453.17188-.20703.14453-.29688.10547-.39453m4.8125 0l.23046.01954.21875.05468.20703.08985.19532.12109.1836.14844.17187.17578.30468.42187.2422.4922.17968.54687.10937.57812.03907.58985-.03907.59375-.10937.58593-.17969.55469-.24219.5-.30468.42969-.17188.17969-.1836.15234-.1953.125-.20704.08984-.21875.0586-.23047.01953-.23046-.01953-.21875-.0586-.20703-.08984-.19532-.125-.1836-.15235-.17187-.17968-.30468-.42969-.2422-.5-.17968-.55469-.10937-.58594-.03907-.59375h.83203l.03125.56641.07813.5039.1289.44141.16016.375.1914.30079.21095.22265.22265.13672.22656.04688.22657-.04688.22265-.13672.21094-.22265.1914-.30079.16016-.375.12891-.4414.08203-.5039.02734-.56642-.02734-.55859-.08203-.5-.1289-.4375-.16016-.36719-.1914-.28906-.21095-.21484-.22265-.13281-.22656-.04297-.22657.04296-.22265.13282-.21094.21484-.1914.28906-.16016.3672-.12891.4375-.07813.5-.03125.55858h-.83203l.03907-.58984.10937-.57812.17969-.54688.24219-.49219.30468-.42187.17188-.17578.1836-.14844.1953-.1211.20704-.08984.21875-.05469.23047-.01953m5.08984 0h.51172v6.29297h-.78906v-4.48828h-1.38672v-.55469l.55859-.0664.2539-.05469.22657-.08594.20703-.14453.17188-.20703.14062-.29688.10547-.39453m6.80469 1.6211h-.78516l-.05078-.21485-.08203-.18359-.10938-.16016-.1289-.1328-.14844-.10157-.15625-.07422-.17188-.04297-.17187-.01562-.32813.03906-.28515.1211-.2461.1953-.20312.26954-.16016.33593-.11719.40625-.0703.46485-.02345.52734.1875-.20312.1875-.16016.1836-.1211.1875-.08984.1875-.0586.1914-.03905.40235-.02344.3086.03125.3203.09375.3125.15234.29688.22266.2539.28125.19923.35156.07421.19922.05078.21875.03125.23438.00391.2539-.78906.04297-.02734-.25781-.07422-.25-.125-.23438-.16016-.21094-.1914-.17578-.22266-.14062-.23828-.08594-.25391-.03125-.25781.03125-.23828.08594-.21875.14062-.19532.17579-.16015.21093-.1211.23438-.07812.25-.02734.25781.02734.26172.07812.25.1211.23437.16015.21094.19532.17578.21875.13672.23828.08985.25781.03125.2539-.03125.23829-.08985.22265-.13672.19141-.17578.16016-.21094.125-.23437.07422-.25.02734-.26172.78906-.04297-.03125.36719-.09375.375-.15625.35547-.22266.32812-.28906.28516-.17187.11719-.1875.10156-.20703.08594-.22266.05859-.24219.03906-.25781.01563-.28516-.01563-.2578-.05078-.23829-.07422-.21875-.10547-.1914-.1328-.17579-.15626-.15234-.17969-.13672-.19921-.11719-.22266-.09765-.24219-.14844-.53515-.08594-.59375-.02344-.64063.03516-.74219.11719-.66406.1836-.57813.12108-.2539.13672-.23438.15235-.20703.17187-.17969.1875-.15625.19922-.1289.21875-.10156.23438-.07422.24609-.04297.26172-.01563.36719.03125.33203.09766.29687.15234.2539.19922.21095.23828.16797.27735.11328.30078.0625.32422"/></g></defs><use xlink:href="#Z"/></svg>