<svg xmlns="http://www.w3.org/2000/svg" role="img" xmlns:xlink="http://www.w3.org/1999/xlink" viewBox="142.45 309.95 326.84 171.84"><defs><clipPath id="a"><path d="M144 311.67188h1V435h-1zm0 0"/></clipPath><clipPath id="b"><path d="M144 477h4v3.32813h-4zm0 0"/></clipPath><clipPath id="c"><path d="M144 311.67188h324v168.65625H144zm0 0"/></clipPath><clipPath id="d"><path d="M178 479h7v1.32813h-7zm0 0"/></clipPath><clipPath id="e"><path d="M217 477h11v3.32813h-11zm0 0"/></clipPath><clipPath id="f"><path d="M369 434h45v46.32813h-45zm0 0"/></clipPath><clipPath id="g"><path d="M398 474h6v6.32813h-6zm0 0"/></clipPath><clipPath id="h"><path d="M467 311.67188h1v168.65625h-1zm0 0"/></clipPath><clipPath id="i"><path d="M144 479h4v1.32813h-4zm0 0"/></clipPath><clipPath id="j"><path d="M147 480h2v.32813h-2zm0 0"/></clipPath><clipPath id="k"><path d="M146 480h2v.32813h-2zm0 0"/></clipPath><clipPath id="l"><path d="M153 479h9v1.32813h-9zm0 0"/></clipPath><clipPath id="m"><path d="M160 480h2v.32813h-2zm0 0"/></clipPath><clipPath id="n"><path d="M159 480h2v.32813h-2zm0 0"/></clipPath><clipPath id="o"><path d="M167 479h8v1.32813h-8zm0 0"/></clipPath><clipPath id="p"><path d="M172 480h2v.32813h-2zm0 0"/></clipPath><clipPath id="q"><path d="M180 478h8v2.32813h-8zm0 0"/></clipPath><clipPath id="r"><path d="M186 480h1v.32813h-1zm0 0"/></clipPath><clipPath id="s"><path d="M193 478h8v2.32813h-8zm0 0"/></clipPath><clipPath id="t"><path d="M207 478h8v2.32813h-8zm0 0"/></clipPath><clipPath id="u"><path d="M220 478h8v2.32813h-8zm0 0"/></clipPath><clipPath id="v"><path d="M233 478h8v2.32813h-8zm0 0"/></clipPath><clipPath id="w"><path d="M247 477h7v3.32813h-7zm0 0"/></clipPath><clipPath id="x"><path d="M261 477h6v3.32813h-6zm0 0"/></clipPath><clipPath id="y"><path d="M274 477h6v3.32813h-6zm0 0"/></clipPath><clipPath id="z"><path d="M286 478h9v2.32813h-9zm0 0"/></clipPath><clipPath id="A"><path d="M292 479h2v1.32813h-2zm0 0"/></clipPath><clipPath id="B"><path d="M300 478h8v2.32813h-8zm0 0"/></clipPath><clipPath id="C"><path d="M305 479h3v1.32813h-3zm0 0"/></clipPath><clipPath id="D"><path d="M315 477h5v3.32813h-5zm0 0"/></clipPath><clipPath id="E"><path d="M329 476h3v4.32813h-3zm0 0"/></clipPath><clipPath id="F"><path d="M341 477h6v3.32813h-6zm0 0"/></clipPath><clipPath id="G"><path d="M354 477h6v3.32813h-6zm0 0"/></clipPath><clipPath id="H"><path d="M367 478h7v2.32813h-7zm0 0"/></clipPath><clipPath id="I"><path d="M366 480h3v.32813h-3zm0 0"/></clipPath><clipPath id="J"><path d="M379 479h9v1.32813h-9zm0 0"/></clipPath><clipPath id="K"><path d="M380 479h2v1.32813h-2zm0 0"/></clipPath><clipPath id="L"><path d="M393 479h8v1.32813h-8zm0 0"/></clipPath><clipPath id="M"><path d="M391 479h3v1.32813h-3zm0 0"/></clipPath><clipPath id="N"><path d="M406 478h8v2.32813h-8zm0 0"/></clipPath><clipPath id="O"><path d="M404 479h4v1.32813h-4zm0 0"/></clipPath><clipPath id="P"><path d="M421 477h6v3.32813h-6zm0 0"/></clipPath><clipPath id="Q"><path d="M434 477h6v3.32813h-6zm0 0"/></clipPath><clipPath id="R"><path d="M448 476h5v4.32813h-5zm0 0"/></clipPath><clipPath id="S"><path d="M462 476h3v4.32813h-3zm0 0"/></clipPath><clipPath id="T"><path d="M144 466h4v2h-4zm0 0"/></clipPath><clipPath id="U"><path d="M144 452h4v3h-4zm0 0"/></clipPath><clipPath id="V"><path d="M144 438h4v4h-4zm0 0"/></clipPath><clipPath id="W"><path d="M144 426h4v3h-4zm0 0"/></clipPath><clipPath id="X"><path d="M144 412h4v4h-4zm0 0"/></clipPath><clipPath id="Y"><path d="M144 398h4v5h-4zm0 0"/></clipPath><clipPath id="Z"><path d="M144 385h4v4h-4zm0 0"/></clipPath><clipPath id="aa"><path d="M144 371h3v6h-3zm0 0"/></clipPath><clipPath id="ab"><path d="M144 356h1v9h-1zm0 0"/></clipPath><clipPath id="ac"><path d="M144 357h2v2h-2zm0 0"/></clipPath><clipPath id="ad"><path d="M144 344h3v7h-3zm0 0"/></clipPath><clipPath id="ae"><path d="M144 331h4v6h-4zm0 0"/></clipPath><clipPath id="af"><path d="M465 330h3v2h-3zm0 0"/></clipPath><clipPath id="ag"><path d="M144 318h4v5h-4zm0 0"/></clipPath><clipPath id="ah"><path d="M465 317h3v3h-3zm0 0"/></clipPath><g id="ai" clip-path="url(#clip1)"><path fill="#fff" fill-opacity="0" fill-rule="evenodd" d="M0 0h1000v1000H0zm0 0"/><path fill="#d3d3d3" fill-opacity="0" fill-rule="evenodd" d="M162.15234 355.86719l-.23437.29297.0586.23437.11718.17188.17578.23437.29297.34766.11328.0586.11719-.17188.0586-.23438.17577-.17578.46485-.17578h.69922l.23437.29297.28906.8164.0586.17579.17578.23046.35156.23438.69922.69922.17188.17578.23437.34765.23438.41016.28906.58203.41015.46485.23047.23437.23438.17578.11719.23047.17578.29297.17187 1.16406v.23438l.0586.28906.05859.11719.11719.11719.34765.41015.11719.17188.17578.17578.17578.23437.11719.17188.17188.35156.05859.23438.23437.40625.23438-.0586-.17578.17578-.0586.92969h-.58203l-.23437-.11328-.34766.11328-.11719.11719-.05859.29297-.0586.17578-.11718.17187-.46484.29297-.0586.23438-.0586.11328v.64453l.0586.17187v.41016l.0586.0586v.40624l.05859.40625.11719.17579.05859.05859.23047.64062-.0586.29297v.69922l-.05859.58203v.23438l-.0586.23047-.05468.35156v1.92187l.05469.1172h.42578l-.36719.11718-.02344.35156.89063 1.16797 1.74219.53906 1.33984.35938v.53906l.08984.8086.53516.71484 1.51953.26953.89063-.08594.08984 1.16406.53516.1797 1.16015-.1797 2.05469-.98437 1.16016-.36328 1.8789-.17578 1.69531-.1797-.17968.71876-1.51563.08594-1.25.08984-.80469.26953-1.07421.8086.26953.71875.53515.89843-.17968.625-.26563.8086.26563 1.07812.625.89844.80468.17969 1.25-.1797-.26562.72267.09766.5039.05468.29297v.17188l.0586.29296v.40625l.17578.1172.35156.11718h.40625l.29297-.17578.11328-.11719.0586-.11719.11718-.23047.0586-.17578.35156-.46484.23047-.17578.17578-.0586.17578.0586.0586.17578.11718.98828.05469.46875.0586.17188.11718.23437.17578.0586.8164.05859h.28907l.11719.23437.05859.40625.0586.35156v1.10547l.11718.29297.11719.34766.28906.69922.17578.35156.58203.7539.35157.17579.17187.0586.46875.23437.64063.46484.34765.23438.29297.17578.29297.05468.23047.0625.8164.34766.29297.17578.11328.17188.35157.35156.11719.17578.52343.64063v.28906l.0586.35156v.34766l.05859.35156.0586.28906.11718.0586.17188.05859h.17578l.58203.23437.17578.1172.17578.28905.17578.23438.11328.23437.29297.23047.11719.11719v.41016l.0586.05468.28906.23438.23437.11719.0586.11718.11718.17188.0586.11719.23047.23437.05859.17578.23437.0586.1172.05859-.1172.11328-.05859.11719v.11719l-.11719.29296-.11719.28907v.58203l.17579.11719.11718.05859.0586.11719.11719.11719.11328.05859.17578.34765.0586.35157.05858.40625v.17578l-.05859.17578-.11719.69922v.17187l.1172.17579.29296.29296h.40625l.17578.1172.11719.17187.11719.29296v.23438h-.52735l-.23047-.23438h-.23437l-.17578.0586-.0586.69922.0586.34765.11719.17579.17578.41015.11718.23047.28907.46875.17578.05469h.52344l.23437.0586.75781.64062.0586.29296v.23438l.05859.0586.23047.34765v.35156l-.11719.17188v.29297l.29297.28906.29297.17578.17187.0586.29297.17577.29297.1172.58203.40624.28906.23438.29297.17578.21875.16015.01563.01172.23047.17579.64062.52343.17578.23438.1172.17578.17577.17578.11328.17188v.64062l.1172.17578.46874.11719.58203.11719.23438.05859.23047.11328.29297.11719.11328.0586.58593.35156.28907.17187.17578.0625.17578.05469.17578.0586.69922.35155.28906.17579.23438.05468.28906.17578.23437.1172.64063.40624.29297.11719.17187.0586.23438.05859.41015.05859.23047.0586.23438.11718.0586.17188-.41017.17578.46875.0586.0586.29296.11328.23438.17578.05468.23438.0586.17578.05859.40625.11719.64062.23437.11719.17188.0586.23437v.17578l-.0586.1172-.0586.40624.23438.23438.11719.05859.34766.11719.64062.23047.17578.11718.28906.1172.17578.17577.23438.46485.58203 1.10546.17578.17579.34766.17578.17578.11719.35156.11718 1.04688.52344.23437.0586.46485.11327.29297.0586.46484.17578.75781.58203.23438.23438.34765.46484.17578.17578.28907.23438.8164.69921.29297.17579.28906.28906.29297.17578.29297.28906.69531.64063.17578.17578.29297.23437.28907.23438.46875.28906.64062.58203.34766.23438.23437.29297.34766.34765.35156.46485.9336.99218.34765.40625.11719.17579.23437.05859.11328.11719.64454.17578.23047.11328.23437.0586.29297.17577.23047.1172.9336.69921.40624.40625.23438.17578.40625.17578.23437.11719.8164.34766.34766.23437.23438.11719.29297.28906.23047.11719.7578.35156.35157.17188.23047.05859.29297.11719.23437.0586.8711.17577h.8164l.46875.23047.17188.0586.875.69921.46484.1172.29297.05858.17578.0586.23047.0586.46875.05859.34766.05859.35156.0586.40625.05859h.29297l.17187.0586v.23046l.17578.17578h.29297l.34766.0586.35156.05859.69922.11719h.64063l.46484-.23438.29297-.17578.17187-.11719.41016-.17187.28906-.17578.9336-.46485.46875-.29297.52343-.29296.46485-.17188.46484-.17578 1.05078-.46485.28906-.11718.41016-.11719.28906-.11719.52735-.17578 1.51562-.69922.58203-.34765.28907-.0586.29297-.0586.34765-.11718.875-.23047.35156-.11719h.11329l.23437-.05859.875-.23437.23438-.0586h.8125l.35156-.0586.8164-.11718.17188-.0586.35156-.05468.29297-.0586.23047-.05859.8164-.17578.17579-.0586h.34765l.23438-.05859.46484-.11718.75781-.17188.23438-.0586h.34765l.41016-.11718.28906-.0586 1.28516-.05859h.28906l.41016-.0586.23047-.05858h.17578l.875-.1172h.40625l.41015-.11718h.34766l.35156-.11328.8711-.0586h1.75l1.04687.28907.41016.11719.28906.11718.35156.11719.28907.11719 1.05078.17187.28906.0586h.29297l.29297.05859.17187.0586.41016.05859.17187.0586.1172.05858h.11718l.11719.0586.35156.0586h.11328l.41016.0664 1.92187.39453 1.92578.39453 1.51953.44922 1.69532.71875 2.14453.80469 1.60547-.71875 1.42968-.80469 1.16016-1.07813 1.25-.44921 3.03516-.71875 1.875-.35938 2.14453-1.34765 2.23437-1.25391 2.5-1.25781 1.69531-.44922 1.78516-.17969 1.16016-.26953.625.53906 1.33984-.26953.71485-.98828.98437-1.34375.44531-.17969.80469-.35937 1.875-.53907 1.78516-.44921 1.25-.26954 1.16015-.08984 1.69922-.08984 1.96094-.26954 1.25-.08984h.53906l.625-.08984h.89063l2.14453-.17969 2.41015-.17969 2.58985-.08984 1.69531.17969 1.60938.08984 1.42968.35938 1.16016.71875 1.875.98828 1.16015 1.52734.26563.71484.6289.08985.35548.89844.53515.53906.53516 1.52734 1.07422.35938h.53515l-.80469.53515.08985 1.70703.71484 2.69532.89063.80468.89453.98829.71484 1.2578 1.78516.53907 1.51953-.17969.35547 1.34375 1.60937-.80469.98047-.53906.26953.26953.31641-.21484.21875-.14453.80078.44922.44922-.35938h.35547l.53515-.26953.53907-.71875.53515-.26953.625-.98828 1.16016.44922.83984.3711 1.39454.61718 1.6953-.17969h1.60548l1.78515.08985.17969-1.70704.53516-1.34375.80468.26954.4922.84765.40233.40625-.08984.53906v.35938l.71485.44922.71093-.26953h1.42969l.35938.98828.4453 1.25781.71485 1.34375 1.25.6289 1.69531.62891.71485-.17969.17969-.53906.98046-.08984.44922.35937.08594 1.25782-.26563.6289-.53515.17969v.53906l.71484.98438.26563.53906.98437.98828.80078 1.07813-.26562.35937-.08985.89844-.625 2.33203-.35546 2.0664-.08985 1.79298-.17969.71875-.08984.53906v1.4375l-.98047 1.88281-.35937 1.70703-.53516.89844-.80469 1.16797-.26562.53906 2.05469 1.2539.08593.35938-.35546.53906-.08985-.17968v.80859l.08985 1.4375-.44532.71484-1.07422.09375-.26562.71485.53515.89844.8047.71875 1.16015.80859 1.33984.26953.44531.35938-.35546.44921-1.78907-.08984-1.25-.44922-.71484-.71875-.625-.08984-.17578 3.58984-.1875 1.3086h89.35937V311.70313h-55.26953v49.08203l.76172.125 3.28906.54296 2.02344 2.83594v2.7539l2.35156.33204 2.34766.33203h4.05078l-1.3789 4.16016-2.02344.70703-2.02344.70312-.54297.34375-2.59375 1.6172-.1875.11718-2.02344-2.07813-.73046-2.74218-2.67188-2.07813-1.375-3.5-.0664-.08203-1.95704-2.67188 2.75-1.41796v-49.08204H294.42187v91.41407l.1172.03125.1328.01172.07422.07421.10547.04688.08985.0586.08593.05859.08985.0586.29687.29687.0586.08984.03125.11719.02734.11719.01563.13671-.03125.1172-.0586.08983-.0586.08594-.04296.10547-.04688.10156-.02734.1211v.14453l.17578.26953.14844.14844.07422.08594.07422.07421.04296.10547.0625.08985.0586.08593.04297.10547.0586.08985.04687.10156.04296.10547.0586.08594.11719.17968.07421.07422.0625.08594.0586.08984.04297.10547.0586.08985.05858.08593.0625.08985.0586.08984.04297.10156.11719.17969.07421.07422.0586.08594.07422.07421.08984.0586.10547.04687h.14844l.1328-.01562.13282.01562.10156-.04687.07422-.07422.04688-.10156-.01563-.13281v-.14844l-.04687-.10547-.02735-.11719-.04687-.10156-.02735-.1211-.04296-.10156-.0625-.08984-.04297-.10156-.04297-.10547-.03125-.11719-.01563-.13281-.01171-.13672.08593-.0586.0586-.08593.12109-.03125.04297.10547.01562.1328v.1172l.0586.10156.0586.08984.08983.0586.14844.14843.0586.08985.04296.10547-.01171.10156.08593.0586.10547.04687.08594.0586.08984.05858.07422.07422-.11719.02735-.10546.04687-.08594.0586-.07422.07421-.0586.08985-.0625.08594-.02734.12109-.04687.10156-.04297.10547-.03125.11719-.01172.13281-.01563.13281v.14844l.02735.11719.04687.10547.04297.10156.0586.08984.07421.07422.08985.0586.07422.07421.08984.0586.0586.08984.04296.10547.04688.10156.11719.03125.1328.01563h.14845l.11718-.03125.10547.04297.04297.10547.04688.10156.02734.1211L299.5 410l.02734.11719.03125.1211.02735.11718.10547.04297.10156.04687.13281-.01562.14844.14844.0625.08593.07422.07422.07031.07422.08984.0625.10547.04297.10156.04297.1172.03125.13671.01562.11719-.03125.07422-.07422.02734-.11718-.01172-.13282-.03125-.12109-.02734-.11719.04297-.10547h.11719l.08984.0625.11719.02735h.14843l.13282.01562h.14843l.13282.01563.1328-.01563h.14845l.1328-.01562.13282-.01172.13672.01172.11719-.02735.13281-.01562.1914-.0586-.05859.17579-.01562.1328-.02735.1211-.01562.13281-.0586.08594-.1328.01563-.10548.04687-.10546.04297-.1172.03125-.11718.02735-.26563.03125h-.14843l-.13281.01562-.07422.07422.05859.08594.14844.14843.11719.1797.07421.0703.08985.0625.08984.0586.08594.0586.08984.05858.10156.04297.10547.0625.10547.04297.08594.0586.10547.04687.10156.04297.17969.11719.0586.08984-.04298.10156-.04687.10547.01562.13281.22266.22266.0586.08985.04296.10156.03125.1211.04297.10155.01563.13282.03125.11718.01171.13672.03125.11719.14844.14844.10156.04297.10547.04296.1172.03125.1328.01563.13672.01563h.11719l.11719-.03125.08984-.0586.04297-.10547.04688-.10156.04296-.10547.03125-.11719.01172-.1328v-.14845l-.01172-.1328-.01562-.13282-.03125-.11719-.04297-.10547-.04688-.10547-.04296-.10156-.04297-.10547-.01563-.13281.01563-.13281.02734-.11719.03125-.11719.02735-.1211.04687-.10155.08984-.0586.08594-.0625.07422-.07422.08984-.05859.22266-.22266.0586-.08593.07421-.07422.11719-.17969.0586-.08594v-.14844l-.07423-.07421-.10156-.04688-.10547-.04297-.10156-.04297-.0586-.08984-.04687-.10547-.02734-.11719.08984-.05859.11719-.03125.10156-.04297.17969-.11719.14844-.14843.01172-.13282-.01172-.10546-.08985-.0586-.1328.01563h-.14845l-.1328.01562-.13282-.01562-.1211-.03125-.08593-.0586-.07422-.07422-.0586-.08984-.0625-.08594-.11718-.17969-.0586-.08593.03125-.1211.08594-.05859.1211-.03125.05859-.08594v-.1211l-.03125-.11718-.0586-.08984-.05859-.08594-.04687-.10547-.02735-.11719-.01562-.1328.0586-.08985.07421-.07422.08984-.0586.1172-.17968.07421-.07422.0586-.08594.14843-.14844.1211-.03125.1328-.01562.13282.01562.07422.07422.04297.10547.01562.13281-.03125.1172-.11719.03124-.1328.01172-.14844.14844-.04297.10547-.04688.10156-.02734.1211-.03125.11718v.14844l.03125.11719.04297.10546.05859.08985.07422.07031.07422.07422.11719.03125.12109.02734.11719-.02734.1328-.01563h.1172l.08984.0586.07422.07422.04687.10546.0586.08594.10156.04688.13281.01562.10547.04297.08594.0586-.01172.10546-.07422.07422-.17969.11719-.05859.08984-.08984.0586-.07032.07422-.07421.07421-.0625.08985-.02735.11719-.01562.1328.01562.13282-.01562.13281v.14844l.01562.13281.02735.1172.03125.12108.07421.07422.08985.0586.08594.0586.08984.05858.11719.03125v.08594l-.10157.04688-.08984.0586-.26563.03124-.11718.02735h-.14844l-.10547.04296-.10156.04688-.0586.08984-.0625.23438-.01171.13281-.03125.1211-.01563.1328v.29298l-.01172.1328.01172.13673.01563.1328.1328.01563.13282.01172.1211.03125.08593.0586.07422.07421.04688.10547.04296.10157.01563.1328v.44532l-.01563.13281v.44532l.03125.26562.02735.11719.01562.13281.03125.11719.08594.21094.03125.26562v.14844l-.03125.11719-.02734.11718-.03125.1211-.02735.11719-.03125.11718-.03125.1211-.01171.1328-.01563.13282.08984.0586.1172-.03125.10155.01562.04688.10547-.03125.26562v.44141l-.04297.10547-.04688.10547-.04296.10156-.04297.10547-.0586.08594-.03125.12109-.04296.11719-.03125.11719-.01563.1328.01563.13282.05859.08984.10547.04688.08594.0586.05859.08593-.01172.13672-.03125.11719-.04297.10156v.44531l-.01562.13281v.14844l-.03125.11719-.04297.10547-.02735.11719-.04687.10546-.04297.10157-.03125.12109-.02734.11719-.03125.13281-.03125.11719-.02735.11719-.04297.10546-.03125.1172-.03125.12108-.01171.13282-.01563.13281v.29688l.02734.11718v.14844l.04688.39844.02734.11719.0586.08984.12109.03125h.14844l.13281-.01563.0586.08985v.11719l-.0586.08984-.08984.0586-.10157.04296-.10546.04688-.08985.05859-.08594.0586-.13671.01562-.1172-.03125-.1328-.01563-.10157.04688-.0625.08594-.01172.13671-.01562.13282-.03125.11719-.02735.11718-.01562.13281-.03125.1211v.29687l.01563.13282.03125.11718v.14844l.01171.13281v.14844l-.02734.11719-.04688.10156-.02734.1211-.03125.11718-.0586.08985-.07421.07421-.10156.04297-.10547.04688-.11719.02734-.1211.03125-.10156-.04687.0586-.08594.10547-.04688.02734-.11718.03125-.11719.02734-.1211.03125-.11718v-.14844l.01563-.13281-.03125-.11719-.04297-.10547-.10547.01563-.07422.07422-.10156.04296-.08984.0625-.07422.07422-.04297.10157-.01563.1328-.03125.1172L304.25 426l-.03125.11719-.02734.11719-.03125.12109-.02735.11719-.03125.11718-.04297.10547-.08984.0586h-.08984l-.1172-.03125-.03124-.08594.01562-.13672-.03125-.11719v-.14844l-.01171-.1328v-.14844l-.0625-.23438-.02735-.1211-.04297-.10156-.04687-.10546-.0586-.08594-.05859-.08985-.04297-.10546-.0625-.08594-.14844-.14844-.0703-.07422-.10548-.04687-.10547-.04297-.10156-.04297-.29687-.29688-.08985-.07421-.08594-.0586-.10546-.04297-.08985-.0625-.08594-.0586-.10546-.04296-.08985-.0586-.08594-.0625-.07421-.0703-.10547-.04688-.08594-.0586-.10547-.04296-.08984-.0625-.10156-.04297-.10547-.04297-.08594-.0586-.10547-.04687-.10547-.04297-.10156-.04687-.08985-.0586-.10156-.04297-.10547-.04296-.08984-.0625-.11719-.02735-.13281-.01562-.13281.01562H299.75l-.13281.01563-.11719-.03125-.08984-.0586-.07422-.07422-.08985-.05859-.10156-.04688h-.14844l-.12109-.02734-.10156-.04297-.07422-.07422-.11719-.17968-.08984-.0586-.10156-.04297-.08985-.0625-.10547-.04296-.08984-.0586-.08594-.0586-.10547-.04687-.0586-.08594-.05858-.08984-.04297-.10547-.04688-.10156-.07422-.07422-.08594-.0586-.07421-.07421-.08985-.0586-.22265-.22265-.04297-.10547-.03125-.26563.10547-.04296h.14453l.10547.04296.07421.07422.08985.0586.08594.0586.10546.04687.08985.05859.14844.14844.0703.07422.14845.14843.0625.08594.07421.07422.08594.0586.07422.07421.08985.0625.08984.0586.08594.05859.26953.17578.10156.04688.10547.04296.10156.04297.04688-.07421.05859-.08594.07422-.07422.07031-.07422.10547.04297.07422.07422.0586.08984.04296.10156.04688.10547.04296.10547.1211.02735.11719-.02735.07421-.08984.04297-.10547.0586-.08985.07422-.07421.10546-.04297.1172-.02735.1328.01172.08985.0586.14844.14843.05859.08985.04297.10547.04687.10156.04297.10547.04297.10156.10547.04688.10547.04296.13281.01563.08594-.0586.0586-.08984.07421-.07422.10547-.04297.11719.02735.10547.04687.10156.04297.10547.04297.10156.04688.17969.11718v.11719l-.01563.13281.01563.13281.01562.13672.0586.08594.10156.04688.1211.02734.11718.03125h.14844l.11719-.03125.05859-.08984.17969-.1172.05859-.08983.07422-.07422.0586-.08594.11718-.17969.17969-.11719.11719.03125.08984.0586.04297.07422-.01563.1328v.1172l.08985.05859h.14843l.13282-.01563.1328-.01171.26563-.03125.10547-.04297.11719-.03125.1211-.02735.07421-.07421.07031-.07422.0625-.08985-.01562-.10547-.04688-.10156-.10156-.04297-.10547-.01562-.11718.02734-.26563.03125h-.14844l-.07421-.07422-.08985-.0586-.11719-.03124-.11718-.02735-.13282-.01562h-.14843l-.13282.01563h-.29687l-.10547-.04688-.14844-.14844-.04297-.10156-.05859-.08984.22266-.22266.08593-.0586.10547-.04296.11719-.03125.13281-.01563.13281.01563.13672.01562.10157.04297.1328-.01172.08985-.0625.10156-.04297.0625-.08984-.04687-.10156-.08984-.0586-.1172-.03125-.10155-.04296-.0586-.08985-.0625-.08984v-.11719l.01563-.13281.10547-.04688.07421-.07031v-.1211l-.08984-.05859-.03125-.11719.08985-.05859.07421-.07422.04297-.10547.0586-.08984.04687-.10156.01563-.13281v-.14844l-.04688-.10547-.04297-.10156-.08984-.0586-.13281-.01562-.10157-.04297-.13671-.01563-.1172-.03125h-.4453l-.13282-.01562-.13281-.01172-.13281-.01563-.11719-.03125h-.14844l-.13281-.01562-.13281-.01172-.26563-.03125-.1211-.04297-.08593-.0586-.07422-.07421v-.14844l.01172-.13281.10547-.04688.10156-.04296.13281-.01563h.15235l.13281-.01562h.29297l.1211.03125.10156.04296.08984.0586.23438.0625.12109-.04688.08984-.05859.10156-.04297.13282-.01562.10547.04296.10156.04688.13281.01172.1211-.02735h.14453l.12109-.03125.11719-.02734.10547-.04687.07421-.07422.08594-.0586.14844-.14843.0586-.08594.04687-.10547.02734-.11719.01563-.10547-.10156-.04296-.08985-.0586-.11719-.03125-.10546-.04297-.08985-.0625-.07422-.08594-.07422-.07421-.10156-.04297-.10547-.04688-.10156-.04297-.0586-.08984-.04687-.10156-.08594-.21094-.0625-.08594-.05859-.08984-.07422-.07422-.08594-.0586h-.26953l-.11719.03126-.08984.05859-.10156.04297-.13281.01562-.10547-.01562-.02735-.11719-.0625-.08984-.11718-.03125-.10157-.04297-.14843-.14844-.03125-.11719-.01563-.10546.07422-.07422.17969-.1172.11719-.02733.11718-.03125.13672.01562.10156.04297.10547.04297.10156.04687.10547.04297.1172.03125.1328.01563.1172.02734.1328.01563.10547-.01563.08985-.0586-.07422-.07421-.10547-.04297-.07422-.07422-.07422-.08984-.14844-.14844-.08593-.0586-.08985-.05859-.07422-.07422-.08984-.0586-.10156-.04687-.1211-.02734-.10156-.04688-.10547-.04296-.11719-.03125-.10156-.04297-.1211-.03125h-.14843l-.11719.03125-.10546.04297-.08594.0625-.17969.11718-.08594.0586-.08984.0586-.10547.04687-.08594.05859-.10547.04297-.10156.04297-.10547.04687-.07422.07422-.05859.08985-.0586.08593-.04687.10547-.0586.08594-.07421.07422-.13281-.01172-.1172-.03125h-.11718l-.07422.07422-.08984.0586-.07422.07421-.08984.0586-.08594.05859-.10547.04687-.10156.04297-.13672.01563-.10156-.04297-.14844-.14844-.10547-.04688h-.08594l-.10547.04688-.10156.04297-.1211.03125-.11718-.03125-.07422-.07422v-.11719l.03125-.1211.07422-.0703.0586-.08985.07421-.07422.11719-.03125.10547-.04296h.29297l.13281-.01563.13672-.01563.10156-.04296.08985-.0586.10156-.04687.08984-.0586.13281-.01171.08985.05859.13281.01172.08984-.0586.08594-.05859.10547-.04297.08984-.0586.08594-.0625.08985-.05859.14843-.14843.0586-.08594.05859-.08985.10547-.04296.13281-.01563.11719.02735.1211.03125.05859-.0586.05859-.08984.03125-.26563.02734-.11719.10547.01172.13281.01563.10157-.04297.08984-.0586.0586-.08984.07421-.07422.0586-.08984.04687-.10156.01172-.13281-.01172-.13282-.04687-.10547-.14844-.14843-.0586-.08985-.05859-.08594-.04297-.10546v-.44532l.01563-.1328v-.14845l.01172-.1328-.0586-.0586-.08984.0586-.10156-.04298-.17969-.11719-.08594-.05859-.0625-.08984-.0586-.08985-.07421-.07421-.08594-.0586-.1211.03125-.10155.01172-.10547.04688-.08594.05859-.10547.04297-.14844.14844-.08984.05859-.08594.0586-.08984.0625-.10547.04296-.13281.01563v-.1211l.10547-.04297.11718-.03125.07422-.0703.04297-.10548v-.14844l-.02734-.11718-.14844-.14844-.13281-.01563h-.14844l-.11719.03125-.10547.04297-.10156.04297-.08984.0625-.11719.02735-.07422-.07422.01172-.13281-.04297-.10157-.04297-.10547-.08984-.05859-.11719.02734-.1211.03125-.11718.03125-.10156.04297-.1211.03125-.10156.04297-.10547.04297-.08984.0586-.10156.01562v-.11719l.01562-.13281-.0586-.08985-.07421.04297-.14844.14844-.0586.08985-.07421.07421-.04688.10547-.04296.10156-.07422.07422-.0586.08985-.07422.07422-.05859.08593-.07422.07422-.08984.0625-.07422.07031-.07422.07422-.10156.01563-.13281.01562-.10547-.04296v-.1211l.14843-.14844.04297-.10156.0586-.08984.04687-.10156.04297-.10547.0586-.08985.03124-.11719.04297-.10156.03125-.1211.02735-.11718.04687-.10547.04297-.10156.04297-.10547.07422-.07031.08984-.0625.08985-.0586.10156-.04296h.29687l.26563-.03125.10547-.04297-.07422-.07422-.11719-.03125-.10547-.04297-.08984-.0586-.10156-.04687-.08985-.0586-.10156-.04296-.10547-.04297-.08984-.0625-.08594-.0586-.10547-.04296-.10156-.04297-.1211-.03125-.11718-.03125-.10157-.04297L297.5 410.25l-.10156-.04297-.08985-.0586-.04296-.10546-.01563-.13281.10156-.04297.13281-.01563.13672.01563.13282-.01563.10156-.04297.0586-.08984.01562-.10547-.08985-.0586-.07421-.07421-.10157-.04297-.08984-.0586-.14844-.14843-.04297-.10547-.01562-.13281v-.29297l-.0586-.08985-.08984-.05859-.07422-.07422-.04297-.10547-.03125-.11718-.0586-.08985-.07421-.07422-.11719-.02734-.07422-.07422-.08984-.0586-.08984-.0625-.08594-.05859-.07422-.07421-.0586-.08594-.04687-.10547-.08594-.0586-.14843-.14843-.19532-.0586-.1328.01563-.10157.04297-.07422.07422-.04688.10156-.04296.10547-.0586.08984-.0586.08594-.29687.29687-.08984.0586h-.08594l-.0625-.08594-.04297-.10547.03125-.11719.0586-.08984.02734-.11719-.01172-.13281-.08984-.0625-.10547.04688-.11719.02734-.11719.03125-.26953.17578-.10156.04688-.11719.02734-.10546.04687-.08985.0586-.10156.04297-.0586-.08594-.04687-.10547.01563-.13281.04687-.10547.07031-.07422.07422-.07031.0586-.08985v-.14843l-.04297-.10547h-.23829l-.10156.04687-.03125.11719-.02734.11719-.03125.1211-.07422.04296-.13281.01563-.07422-.04688-.04297-.10156-.04297-.10547-.04687-.10156-.04297-.10547-.1211.03125-.10156.04297-.13281.01562-.11719.03125-.10547.04297-.08984.0586-.10156.04687-.1211.02734-.13281.01563-.10156-.04297-.0586-.08985-.04687-.10546-.04297-.10157-.04297-.10546v-.1172l.0586-.08984.08593-.05859.17969-.11719.10156-.04687.10547-.04297.10547-.0586.10156-.04296.08985-.0625.10156-.04297.10547-.0586.10156-.04687.08984-.0586.10547-.04296.10156-.04297.08985-.0625.10156-.04297.13672-.01563.11719.03125.10156.04297.1211.03125.10156.04297.10546.04688.10157.04296.10547.04297.10156.04688.10547.04297.10156.04297.10547.04687.08594.0586.10546.04296.1172.03125.10546.04297.10156.04688.08985.0586.10547.04296.10156.04297.10547.04687.11719.02735.10156.04687.1211.02735h.14843l.08594-.0586.01562-.10156.0586-.08984-.02735-.1172-.07422-.07421-.11719-.17969-.07421-.07422-.08985-.07421-.17969-.1172-.08593-.05859-.10547-.04296-.10156-.04688-.26954-.17578-.05859-.08985-.07422-.07421-.0586-.08985-.04296-.10156-.03125-.11719-.01563-.13672v-.5625l-.01171-.1328-.01563-.13282-.03125-.11719-.01562-.13281-.01172-.13281-.03125-.1211-.22266-.22265-.0586-.08594-.01562-.10547.03125-.11719.13281-.01562v-91.41406H172.9922v1.45312l-.0586.23438-.35156 1.05078-.17187.52343-.1172.34766-.17577.41016-.11719.17187-.23438.29297-.23046.0586h-.35157l-.11718.05859-.23047.40625v.29297l.11719.17578.23046.23047.1172.23437.64062.75781.29297.46485.17578.23437.23047.35156.23437.34766.64063.8164.17578.46485.17187.41016.11719.69531.17578.46875.11719 1.39844.0586.46484v.875l.11718 1.04688v4.78125l-.0586.46484-.35156 1.28125-.17578.52344-.11328.41015-.35156.9297L172.93359 336l-.23437.58203-.11719.17578-.17187.34766-.17578.40625-.35157.8164-.0586.29297-.11327.29297-.11719.28906-.0586.17579-.11718.875-.0586.40625-.05859.11718-.0586.17579-.05859.17187-.23047.52734-.11718.17188v.23437l-.11719.23438-.0586.17187-.17577.58594v.28906l-.0586.17579v.29296l-.0586.11329-.05859.52734v.17187l-.05468.23438v2.6211l-.17578.8164-.1172.17578-.17577.23438-.1172.17187-.11327.23438-.58594.93359-.23047.28906-.29297.46485-.17578.23437-.28906.35156-.35156.69922-.11328.23047-.17579.41016-.17578.23046-.40625.52735-.8164.69922-.29297.17187-.28906.23438-.17579.11719-.17578.17578-.52344.40625-.52734.17578-.17187.17578-.23438.05469-.64062.17578h-.75782m12.21094 31.02344l-1.07422.44921.35938.89454 1.25-.71485.44531-.53906-.98047-.08985"/><path fill="#d3d3d3" fill-opacity="0" fill-rule="evenodd" d="M201.50781 416.59766h-.89453l.44922.6289.98047.35938.80469-.08985.4453-.98828-.17577.08985-.71485-.35547-.89453.35547m154.6211 59.0703l-.0586-.52343v-.29297l.11328-.29297.0586-.23046.46875-.46875h.11328l.11719-.11329.11718-.05859h.17579l.23437-.0586h.34766l.23437.0586.11719.0586.23047.17187.0586.17578.11718.58203v.29297l-.11719.17578-.17187.28906-.17579.17579-.52734.52343-.23047.23438-.11719.0586h-.17578l-.11718-.0586-.40625-.29297-.17579-.11719-.11718-.0586-.0586-.11327-.05468-.1172m6.64062-10.95702l-.0586-.17188v-1.10937l.0586-.17188.17578-.0586.17188-.05858h.17578l.23437-.0586.1172.0586.05858.69921-.05859.17188-.11719.17578-.11718.0586-.23438.52343-.11328.0586h-.23438l-.05859-.1172m9.61328-14.39062l-.11719-.17578v-.69922l.29297-.875.1172-.17187.17577-.35156.11328-.23047.1172-.29297.35155-.75781.1172-.23047.17187-.23438h.17578l.11719-.0586h.64062l.11719.0586.23437.23438.17188.11328.35156.29297.11719.11718.11328.17579v.11328l.11719.05859.11718.11719v.69922l-.05859.17578v.23047l-.0586.17578-.34765 1.05078-.11719.23047-.11719.23437-.11718.0586-.23047.23437-.64063.28906h-.875l-.41015-.11718-.64063-.46485"/><path fill="none" stroke="#bebebe" stroke-linecap="round" stroke-linejoin="round" stroke-miterlimit="10" stroke-width=".5" d="M467.95703 311.69531H144.02734v168.625h323.9297v-168.625"/><g clip-path="url(#a)"><path fill="#fff" fill-opacity="0" fill-rule="evenodd" d="M144 431.50781v2.65235-122.48829h.0039H144v119.83594"/></g><path fill="#fff" fill-opacity="0" fill-rule="evenodd" d="M144 440.3789v37.0586l.0039.0039v-37.0703l-.0039.0078"/><path fill="#50fcfc" fill-rule="evenodd" d="M144 434.16016v6.21875l.0039-.00782v-6.20703l-.0039-.0039"/><g clip-path="url(#b)"><path fill="#50fcfc" fill-rule="evenodd" d="M144.0039 480.32813v-2.88672l3.6797 2.88671h-3.6797"/></g><g clip-path="url(#c)"><path fill="#fff" fill-opacity="0" fill-rule="evenodd" d="M144.0039 477.4414v-37.0703l2.00782-4.42579-2.00781-1.78125V311.67187h62.1328v94.76563l-4.4375 1.72656-1.08202 1.15235-1.89063 4.4375-1.46484 1.08984-4.4414.92969-3.77345 2.41797-.66406.39062-4.4375.75-4.4375.45313-3.67187 2.84375-.76953.38671-4.4375.89454-4.4375 2.74609-.4375.41406-3.9297 4.4375-.0703.07813-4.40625 4.35937-.03125.10938-4.44141 2.3164-3.35156 2.01172 3.35156 2.27735 1.29688 2.16015 1.25 4.4414-1.26563 4.4375 1.59766 4.4375 1.5625 1.8672 1.13672 2.5703 3.30078 2.5625 4.4375-2.23437 1.29297-.32812 3.14453-.24219 4.4375-.9336 4.4414-.04296 4.4375.28125 4.4375.51953 4.4375.05469 4.4414.0664 4.4375.22266 1.21095.07422 3.22656.57422 4.4375 1.6211 3.60937-2.19532.83203-.55469 4.4375-.13281 4.4375-2.16406 4.4375-.6211 2.3125-.96484 2.125-.5664 4.44141-.75391 4.4375-.22266 4.4375-2.8711.03906-.02343 4.39844-1.67578 4.4375-.08203 4.4414-1.90235 4.4375 1.94531 4.4375-1.0625 4.31641-1.66015.1211-.10156.50781.10156 3.9336.59765 4.4375.28125 1.51562-.8789 2.92187-.63672 4.4375-.53125 3.45313-3.27344-3.45313-3.91797-.64062-.51953.64062-.10156 4.22266-4.33594.21484-.98047 4.44141-2.57421 4.4375 1.65234 2.125-2.53516 1.22266-4.4375-3.34766-3.35937-4.4375 1.60937-4.4414.49219-1.79688 1.25781-2.64063.125-1.5664-.125-2.8711-2.95703-4.4375-1.17187-4.4375.07812-4.4414.44531-4.4375-.30859-4.4375 3.30469-1.46094.60937-2.97656.17578-4.4414.32032-4.4375 2.32421-3.33204-2.8203-1.10547-1.23829-4.4375-3.10547-.03516-.09765-.71875-4.4375-3.68359-3.6875-4.4414-.4297-.77344-.3203-3.66406-3.65235-3.71485-.78515-.72266-.25782-3.30078.25782-1.13672.10937-4.4375.35156-1.9375-.46093-2.5039-1.15235-4.4375-1.72656v-94.76563h128.71094v146.3047l-.53516.16015.53516.125.65234-.125-.65234-.16016V311.67187h4.4414v109.81641l-1.09375 1.14063 1.09375.76562.57813-.76562-.57813-1.14063v-109.8164h17.7539V431.5703l-4.4414.11719-4.4375.11719-3.46484 4.14062 3.46484 3.32813v36.32422l-.25.29296.25.16407.23828-.16406-.23828-.29297v-36.32422l.9961 1.10937 3.4414 3.9414 4.4414.17188 4.4375-.6289 4.4375-.16016 3.53907-3.32422-3.53906-3.35547-4.4375-.11718-.82031-.96485-3.6172-4.375V311.67187H467.9961v168.65625h-63.2578l.15624-4.4375-3.46875-4.17578-4.4414 1.14844-.37891-1.41015-1.5586-4.4375 1.9375-.30079.76563.30079 3.67578 3.875 3.16016-3.875 1.27734-.41797 4.4375-.48047 3.54688-3.54297-3.54688-4.07031-4.4375-.13672-4.4375.15234-4.4414.35547-1.98829-.73828-.88671-4.4375 2.35546-4.4375-3.0078-4.4414-.91017-.9922-4.4375-1.92187-3.8789-1.52344.8789-4.4375-1.4375-1.59765-4.4375-.27344-2.33203 1.8711-2.10937.87109-2.66016 3.5664 2.66016 3.19922.69922 1.23828-.69922.73438-3.22656 3.70703-.6875 4.4375-.52344 1.23828-1.08985 3.19922.34375 4.4375.7461.7461 2.5664-.7461 1.8711-1.02735 3.1211 1.02735 1.3203.26562 4.4375 4.15235.0547.02344 1.6914 4.4375-1.7461 1.17187-3.66015 3.26563 3.66015 2.96484 3.78125-2.96485.65625-1.0625 4.4375 1.04297.10547.01954 4.33204 2.2539.80468 2.1836H227.08203l-3.1914-3.00782-4.4375.30078-2.27344 2.70704h-32.65625l-.57813-1.08985-4.4375.16797-1.34765.92188h-30.47657l-3.67968-2.88672"/></g><path fill="#50fcfc" fill-rule="evenodd" d="M146.01172 435.94531l-2.00781 4.42578v-6.20703l2.0078 1.78125m6.86329 6.71485l-3.35156-2.27735 3.35156-2.01172 4.4414-2.3164.03126-.10938 4.40625-4.35937.0703-.07813 3.9297-4.4375.4375-.41406 4.4375-2.7461 4.4375-.89452.76953-.38672 3.67187-2.84375 4.4375-.45313 4.4375-.75.66406-.39062 3.77344-2.41797 4.4414-.92969 1.46485-1.08984 1.89063-4.4375 1.08203-1.15235 4.4375-1.72656v2.8086l-.1289.0703-1.2461 4.4375 1.375 1.04688 4.4375 1.75781 3.84766 1.63282-2.59766 4.4375-1.25.84765-2.30469-.84765-2.13281-1.33204-4.4375-2.41015-4.4375-.23828-4.4414.95312-4.4375 1.96875-4.4375.13672-3.83595.92188-.60156.3164-4.4414 2.03516-4.4375 1.3789-1.0547.71094-3.3828 1.8789-2.4375 2.5586-2 2.30078-2.16016 2.13672-1.88672 4.4375-.26953 4.4375.08984 4.4414-.02343 4.4375.5078 4.4375 3.7422 4.23438 4.4375-1.79687 4.4375-.3125 4.4375-1.21875 4.4414.13672 4.4375-.04688 4.4375.78125 4.4375.82422 4.4414-.4375 4.4375-.3086 4.4375.35938 4.4375-.00781 3.01954-2.20703 1.42188-.74219 4.4375.07813 4.4375-1.13282 4.4375-.59765 3.99218-2.04297.44531-.3086L237.20703 452l4.4375-1.0586 1.875-1.67968 2.5625-3.84375.6875-.59766 3.08984-4.4375.66016-.92969 4.4375-.77343 4.4414.73437 3.2422-3.46875 1.1953-1.88672v1.5l-.24609.38672.2461 2.47656 4.4375-2.09765 4.4375-.20313 4.4414.02344.16016-.19922-.16016-.13672-4.4414.0625-4.4375-.10937-4.4375-.20313v-1.5l4.4375.39844 4.4375.46485 4.4414-.07422 1.31641 1.09765-1.3164 1.625-4.44141.7539-4.4375.6797-1.74219 1.3789-2.69531 1.5-4.4375.8789-4.4414.85548-2.01173 1.20312 2.01172 1.6914 4.4414.40235 4.4375 1.95703 4.4375-1.73828 2.47266-2.3125 1.96485-1.63672 4.4414.25782 3.94922-3.0586.48828-.36719 4.4375.33594 4.4375-.69922 3.60938-3.70703.82812-3.73828.9297-.69922-.9297-1.0664-4.4375-2.80079-4.4375-.2578-1.48828-.3125-2.94922-2.00391-4.4375.19921-4.4414.89844-4.4375-1.83984-3.20313 2.7461-1.23437 1.53906-4.4375-.4375-4.4414 1.07421-2.78126 2.26172-1.65625 1.01953-.875-1.01953-3.5625-3.48828-4.4375-.60937-.4336-.33985-1.74218-4.4414-.89844-4.4375-1.36328-1.3672-4.4414-1.04687-4.4375-1.64062-4.27344 4.05469-.16406.03125-4.4375.1875-2.8672-.21875.50782-4.4375-2.07813-1.21485-4.4414-1.36719-4.30078-1.85546-.13672-.07032v-2.80859l4.4375 1.72656 2.5039 1.15235 1.9375.46093 4.4375-.35156 1.13672-.10937 3.30078-.25782.72266.25782 3.71484.78515 3.66407 3.65235.77344.3203 4.4414.4297 3.6836 3.6875.71875 4.4375.03515.09765 4.4375 3.10547 1.10547 1.23828 3.33203 2.82031 4.4375-2.32421 4.4414-.32032 2.97657-.17578 1.46094-.60937 4.4375-3.30469 4.4375.3086 4.4414-.44532 4.4375-.07812 4.4375 1.17187 2.8711 2.95703 1.5664.125 2.64063-.125 1.79687-1.25781 4.44141-.49219 4.4375-1.60937v3.13281l-.34375.22656.34375.4961.22266-.4961-.22266-.22656v-3.13281l3.34766 3.35937-1.22266 4.4375-2.125 2.53516-4.4375-1.65235-4.4414 2.57422-.21485.98047-4.22266 4.33594-.64062.10156.64062.51953v3.23438l-3.75.6836 3.75.57421.60157-.57422-.60157-.6836v-3.23437l3.45313 3.91797-3.45313 3.27344-4.4375.53125-2.92187.63672-1.51563.8789-4.4375-.28125-3.93359-.59765-.50781-.10156-.1211.10156-4.3164 1.66015-4.4375 1.0625-4.4375-1.9453-4.4414 1.90234-4.4375.08203-4.39845 1.67578-.03906.02344-4.4375 2.87109-4.4375.22266-4.4414.7539-2.125.5664-2.3125.96485-4.4375.6211-4.4375 2.16406-4.4375.13281-.83204.55469-3.60937 2.19531-4.4375-1.6211-3.22656-.57421-1.21094-.07422-4.4375-.22266-4.4414-.0664-4.4375-.05469-4.4375-.51953-4.4375-.28125-4.44141.04297-4.4375.9336-3.14453.24218-1.29297.32812-4.4375 2.23438-3.30078-2.5625-1.13672-2.57031-1.5625-1.8672-1.59766-4.4375 1.26563-4.4375-1.25-4.4414-1.29688-2.16015"/><path fill="#00e8fc" fill-rule="evenodd" d="M157.52734 449.26172l-.08984-4.4414.26953-4.4375 1.88672-4.4375 2.16016-2.13673 2-2.30078 2.4375-2.5586 3.3828-1.8789 1.0547-.71094 4.4375-1.3789 4.4414-2.03516.60156-.3164 3.83594-.92188 4.4375-.13672 4.4375-1.96875 4.4414-.95312 4.4375.23828 4.4375 2.41015 2.13282 1.33204 2.30469.84765 1.25-.84765 2.59766-4.4375-3.84766-1.63282-4.4375-1.7578-1.375-1.04688 1.2461-4.4375.1289-.07032.13672.07032 4.30078 1.85546 4.4414 1.3672 2.07813 1.21484-.50781 4.4375 2.86719.21875 4.4375-.1875.16406-.03125 4.27344-4.0547 4.4375 1.64063v2.75l-4.4375.8086-4.4375-.01953-4.4375 1.125-2.91407 2.1875 1.78516 4.4414-3.3086.5-3.92968 3.9375-.51172.33203-.46875-.33203-3.96875-3.79687-1.39063-.64063-3.04687-2.5586-3.46094 2.5586-.97656.1875-4.4414 1.48438-4.4375 1.26172-4.4375.95703-1.14063.54687-3.29688.5-4.4414-.0625-4.4375.24219-3.11328 3.75781-1.32422.55469-4.4375.30469-2.57813 3.57812-1.19531 4.4375.10547 4.4414.0586 4.4375 1.3203 4.4375 2.28907 2.58985 3.71875-2.58984.71875-.36719 4.4375-.21484 4.4375-.73438 4.4414-.89844 4.4375.63282 4.4375.46484 4 1.11719.4375.14062.63672-.14062 3.80469-2.1211 4.4375-.8789 4.4375-.4336 2.04687-1.0039 2.39063-.83594 4.4414-.92969 2.95704-2.67187 1.48047-1.77344 2.11328 1.77344 2.32422 1.82812 4.4375-1.22656.90234-.60156-.90234-1.1289-2.65625-3.3125 2.65625-3.8047.23828-.6328-.23828-.26563-2.09375-4.17188-.69922-4.4375 2.79297-2.08203v1.95703l-.16407.125.16406.73828.14454-.73828-.14453-.125v-1.95703l2.4414 2.08203 1.9961 2.19922 4.15234 2.23828.28906.17969v2.90625l-2.97656 1.35156 2.97656 2.01953 1.40625-2.01953-1.40625-1.35156V436.125l4.4375 4.25781v.0039l4.4375 2.65235 2.22656-2.65625 2.21094-3.11328 3.02344-1.32422-3.02344-1.28906-2.70703-3.14844-1.73047-1.69531-4.4375-.47656-2.86719-2.26563-1.5703-2.83203-.7422-1.60937-3.69922-4.10157v-2.75l4.44141 1.04688 1.36328 1.36719.89844 4.4375 1.74219 4.4414.4336.33985 4.4375.60937 3.5625 3.48828.875 1.01953 1.65624-1.01953 2.78125-2.26172 4.4414-1.07421 4.4375.4375 1.23438-1.53907 3.20313-2.7461v1.94923l-.92578.79687-3.51172 4.375-4.4375-1.73437-3.80469 1.79687.3125 4.4375 3.49219 1.77344 1.65625-1.77344 2.78125-4.38281 4.4375.72656 4.4375 1.0586 4.4414-.10547 3.2461 2.70312-3.2461 4.0039-1.30859.4336 1.3086.47266.60937-.47266 3.82812-2.88281 4.4375 1.66797 4.4375-.5625 2.58985-2.66016 1.10547-4.4375-3.69532-3.125-4.4375.10547-4.4375-.89844-4.4375.91797-4.4414.36328-2.9375-1.80078-1.5-.79687v-1.94922l4.4375 1.83984 4.4414-.89844 4.4375-.19921 2.94922 2.0039 1.48828.3125 4.4375.25781 4.4375 2.80079.9297 1.0664-.9297.69922-.82812 3.73828-3.60938 3.70703-4.4375.69922-4.4375-.33594-.48828.3672-3.94922 3.05859-4.4414-.25782-1.96485 1.63672-2.47265 2.3125-4.4375 1.73828-4.4375-1.95703-4.4414-.40234-2.01173-1.6914 2.01172-1.20313 4.4414-.85547 4.4375-.8789 2.69532-1.5 1.74219-1.37891 4.4375-.6797 4.4414-.7539 1.31641-1.625-1.3164-1.09765-4.44141.07421-4.4375-.46484-4.4375-.39844-1.19531 1.88672-3.2422 3.46875-4.4414-.73437-4.4375.77344-.66016.92968-3.08984 4.4375-.6875.59766-2.5625 3.84375-1.875 1.67969L237.20703 452l-4.4414 1.39063-.44532.30859-3.99219 2.04297-4.4375.59765-4.4375 1.13282-4.4375-.07813-1.42187.74219-3.01953 2.20703-4.4375.00781-4.4375-.35937-4.4375.3086-4.4414.4375-4.4375-.82423-4.4375-.78125-4.4375.04688-4.44141-.13672-4.4375 1.21875-4.4375.3125-4.4375 1.79687-3.7422-4.23437-.5078-4.4375.02343-4.4375"/><path fill="#00d4fc" fill-rule="evenodd" d="M158.08594 449.26172l-.10547-4.4414 1.19531-4.4375 2.57813-3.57813 4.4375-.30469 1.32422-.55469 3.11328-3.75781 4.4375-.24219 4.4414.0625 3.29688-.5 1.14062-.54687 4.4375-.95703 4.4375-1.26172 4.4414-1.48438v4.35156l-4.4414.9961-4.4375.48437-4.4375.08985-4.4375.5039-4.4414 1.4336-1.79688.82812-2.64062.83203-4.4375 1.83204-4.4375.23437-1.10938 1.53906-2.1211 4.4375.1211 4.4414.14453 4.4375 2.1289 4.4375.83595.94532 1.35547-.94531 3.08203-1.5664 4.4375-.53516 4.4375-.9297 3.29687-1.40624 1.14453-.51953 1.91406.51953 2.52344.77734 4.4375.41406 2.08985-1.1914 2.34765-1.95703 3.94922-2.48047.49219-.50781.8711.5078 3.5664 1.57813 3.42578-1.57812 1.01172-1.23438 2.44531-3.20703 1.99219-3.0664.84375-1.3711-.84375-.97656-4.4375-2.45703-.32031-1.0039-4.1172-3.06641-4.4375-1.26954v-4.35156l.97657-.1875 3.46094-2.5586 3.04687 2.5586 1.39063.64063 3.96875 3.79687.46875.33203.51172-.33203 3.92969-3.9375 3.30859-.5-1.78516-4.4414 2.91406-2.1875 4.4375-1.125v1.08984l-4.4375 2.0664-.21093.15626.21094.32812v16.32031l-1.1797 1.10547 1.1797 1.71485L221.5 440.3828l-2.04688-1.10547v-16.3203l4.4375 3.68358 2.29688.4297 2.14063.39452 4.4375 3.6211.28906.42187 4.15234 2.96485 2.65234 1.47265 1.78516 1.71875 3.09375 2.71875 1.34375.80469.67578-.80469 2.30078-4.4375-2.97656-4.15625-1.32422-.28125-3.11328-.2461-4.4375-3.49218-.98828-.69922-1.77344-4.4414-1.67969-1.85938-3.60546 1.85938-.83203 2.15234-.37891-2.15234-4.0586-2.22266v-1.08984l4.4375.01953 4.4375-.8086 3.69922 4.10157.7422 1.60937 1.5703 2.83203 2.8672 2.26563 4.4375.47656 1.73046 1.69531 2.70703 3.14844 3.02344 1.28906-3.02344 1.32422-2.21094 3.11328-2.22656 2.65625-4.4375-2.65234v-.0039l-4.4375-4.25782-.28906-.17969-4.15234-2.23828-1.9961-2.19922-2.4414-2.08203-2.79297 2.08203.69922 4.4375 2.09375 4.17188.23828.26562-.23828.63281-2.65625 3.8047 2.65625 3.3125.90234 1.1289-.90234.60156-4.4375 1.22656-2.32422-1.82812-2.11328-1.77344-1.48047 1.77344-2.95703 2.67187-4.44141.9297-2.39063.83593-2.04687 1.0039-4.4375.4336-4.4375.8789-3.80469 2.1211-.63672.14062-.4375-.14062-4-1.11719-4.4375-.46484-4.4375-.63281-4.4414.89843-4.4375.73438-4.4375.21484-.71875.36719-3.71875 2.58984-2.28907-2.58984-1.3203-4.4375-.0586-4.4375"/><path fill="#00c4fc" fill-rule="evenodd" d="M158.64453 449.26172l-.1211-4.4414 2.1211-4.4375 1.10938-1.53907 4.4375-.23438 4.4375-1.83203 2.64062-.83203 1.79688-.82812 4.4414-1.4336 4.4375-.5039 4.4375-.08985 4.4375-.48437 4.4414-.9961v2.07032l-4.4414 1.92578-4.4375.20703-4.4375-.76953-4.4375.3164-1.42578.58594-3.01562.89063-4.4375 2.1211-3.57032 1.42577-.86718.0625-4.4375.14844-2.6875 4.22656.13672 4.4414.22656 4.4375 2.32422 3.97267 4.4375-2.3047 4.4375-.84765 3.33203-.82031 1.10547-.36719 4.4414-1.98047 4.4375.24219 4.4375.76563 3.71094-3.09766.72656-.65625 3.70313-3.78516.73828-1.36328 3.01172-3.07422 1.42578-3.33984.30469-1.09766-.3047-.22656-4.4375-2.03906v-2.07031l4.4375 1.26953 4.1172 3.0664.3203 1.0039 4.4375 2.45704.84376.97656-.84375 1.3711-1.99219 3.0664-2.44531 3.20703-1.01172 1.23438-3.42578 1.57812-3.5664-1.57812-.8711-.50781-.49219.5078-3.94922 2.48048-2.34765 1.95703-2.08985 1.1914-4.4375-.41406-2.52344-.77734-1.91406-.51953-1.14453.51953-3.29687 1.40625-4.4375.92969-4.4375.53515-3.08203 1.5664-1.35547.94532-.83594-.94531-2.1289-4.4375-.14454-4.4375"/><path fill="#00b8fc" fill-rule="evenodd" d="M159.20313 449.26172l-.13672-4.4414 2.6875-4.22657 4.4375-.14844.86718-.0625 3.57032-1.42578 4.4375-2.1211 3.01562-.89062 1.42578-.58594 4.4375-.3164 4.4375.76953 4.4375-.20703 4.4414-1.92578V435.75l-.42577.19531-4.01563 2-4.4375-1.2539-4.4375-.4336-4.4375.20703-4.4414 1.57813-3.76953 2.33984-.66797.36328-4.4375.07422-4.4375.6289-2.14063 3.3711.14844 4.4414.3086 4.4375 1.68359 2.875 4.4375-2.40624 2.03906-.46875 2.39844-1.22266 4.4375-1.17969 4.4414-1.76953 1.4336-.26562 3.0039-.39063 4.24219.39063.19531.04297.05078-.04297 4.38672-3.94922.48047-.49219 2.58594-4.4375 1.375-3.71484.41016-.72266-.41016-.19531v-2.07031l4.4375 2.03906.30469.22656-.3047 1.09766-1.42577 3.33984-3.01172 3.07422-.73828 1.36328-3.70313 3.78516-.72656.65625-3.71094 3.09765-4.4375-.76562-4.4375-.24219-4.4414 1.98047-1.10547.36719-3.33203.82031-4.4375.84766-4.4375 2.30469-2.32422-3.97266-.22656-4.4375"/><path fill="#00a8fc" fill-rule="evenodd" d="M159.76172 449.26172l-.14844-4.4414 2.14063-3.3711 4.4375-.6289 4.4375-.07423.66797-.36328 3.76953-2.33984 4.4414-1.57813 4.4375-.20703v.61328l-4.4375.39063-4.4414 1.98828-1.82422 1.13281-2.61328 1.41797-4.4375-.60156-4.4375 1.10547-1.59766 2.51562.16406 4.4414.39453 4.4375 1.03907 1.77735 3.22265-1.77734 1.21485-.59766 4.4375-3.28906 4.42187-.55078.01563-.0039 4.4414-1.6836 4.4375.01562 4.4375.87891 3.73828-3.64844.69922-4.05078.23047-.38672-.23047-.1836-4.4375-2.72265-4.4375-.60547v-.61328l4.4375.4336 4.4375 1.2539 4.01563-2 .42578-.19531.41016.19531-.41016.72266-1.375 3.71484-2.58594 4.4375-.48047.49219-4.38672 3.94922-.05078.04297-.19531-.04297-4.24219-.39063-3.0039.39063-1.4336.26562-4.4414 1.76954-4.4375 1.17968-2.39844 1.22266-2.03906.46875-4.4375 2.40625-1.6836-2.875-.3086-4.4375"/><path fill="#009800" fill-rule="evenodd" d="M160.32031 449.26172l-.16406-4.4414 1.59766-2.51563 4.4375-1.10547 4.4375.60156 2.61328-1.41797 1.82422-1.13281 4.4414-1.98828 4.4375-.39063v.60547l-4.4375.58203-4.34765 2.32422-.09375.25781-4.4375 2.21485-4.4375-1.27735-4.4375 1.58204-1.0547 1.66015.1797 4.4414.47656 4.4375.39844.6797 1.23047-.6797 3.20703-1.58202 3.48828-2.85547.94922-1.32422 4.4375-.90625 4.4414-1.4336 4.4375.71876 4.4375 1.35156 2.91797-2.84766.39453-4.4375-3.3125-2.1211-4.4375-.78515v-.60547l4.4375.60547 4.4375 2.72266.23047.1836-.23047.38671-.69922 4.05078-3.73828 3.64844-4.4375-.8789-4.4375-.01563-4.4414 1.6836-.01563.0039-4.42187.55078-4.4375 3.28906-1.21485.59766-3.22265 1.77734-1.03907-1.77734-.39453-4.4375"/><path fill="#00ac00" fill-rule="evenodd" d="M160.8789 449.26172l-.17968-4.4414 1.05469-1.66016 4.4375-1.58204v.37891l-4.4375 2.0586-.51172.80468.19531 4.4414.3164 2.65235 4.4375-.77734 2.29298-1.875 2.14453-2.99219 4.39843-1.44922-4.39843-.91015-4.4375-1.95313v-.3789l4.4375 1.27734 4.4375-2.21485.09375-.2578 4.34765-2.32423 4.4375-.58203v.60938l-4.4375.76953-2.85937 1.52734 2.85937 3.3711 3.47656 1.0664.96094.21485 4.4375 1.83203 2.09766-2.04688-.00781-4.4375-2.08985-1.33594-4.4375-.96093v-.60938l4.4375.78516 3.3125 2.1211-.39453 4.4375-2.91797 2.84765-4.4375-1.35156-4.4375-.71875-4.4414 1.43359-4.4375.90625-.94922 1.32422-3.48828 2.85547-3.20703 1.58203-1.23047.67969-.39844-.6797-.47656-4.4375"/><path fill="#00c800" fill-rule="evenodd" d="M161.4375 449.26172l-.19531-4.4414.51172-.8047 4.4375-2.05859v.7539l-3.73047 2.10938 3.73047 4.3711 3.6914-4.3711-3.6914-2.10937v-.7539l4.4375 1.95312 4.39843.91015-4.39843 1.44922-2.14453 2.99219-2.29297 1.875-4.4375.77734-.31641-2.65234"/><path fill="#10cc00" fill-rule="evenodd" d="M166.1914 449.1914l-3.73046-4.37109 3.73047-2.10937v.75781l-2.39453 1.35156 2.39453 2.80469 2.36718-2.80469-2.36718-1.35156v-.75781l3.6914 2.10937-3.6914 4.3711"/><path fill="#24d000" fill-rule="evenodd" d="M166.1914 447.625l-2.39452-2.80469 2.39453-1.35156v.7539l-1.0586.59766 1.0586 1.24219 1.04687-1.24219-1.04687-.59765v-.75391l2.36718 1.35156-2.36718 2.80469"/><path fill="#3cd800" fill-rule="evenodd" d="M166.1914 446.0625l-1.05859-1.24219 1.0586-.59765 1.04687.59765-1.04687 1.24219"/><path fill="#00c800" fill-rule="evenodd" d="M179.50781 443.7539l-2.85937-3.37109 2.85937-1.52734 4.4375-.76953v1.21875l-4.24219 1.07812 4.2422 2.17969 3.41015 2.25781 1.02734.44531.45313-.4453-.45313-2.88673-.63672-1.55078-3.80078-1.07812v-1.21875l4.4375.96094 2.08985 1.33593.0078 4.4375-2.09765 2.04688-4.4375-1.83203-.96094-.21485-3.47656-1.0664"/><g clip-path="url(#d)"><path fill="#50fcfc" fill-rule="evenodd" d="M178.16016 480.32813l1.34765-.92188 4.4375-.16797.57813 1.08985h-6.36328"/></g><path fill="#10cc00" fill-rule="evenodd" d="M183.94531 442.5625l-4.24219-2.17969 4.2422-1.07812 3.80077 1.07812.63672 1.55078.45313 2.88672-.45313.44531-1.02734-.4453-3.41016-2.25782"/><path fill="#00e8fc" fill-rule="evenodd" d="M219.45313 439.27734l-1.1797 1.10547 1.1797 1.71485L221.5 440.3828l-2.04688-1.10547"/><g clip-path="url(#e)"><path fill="#50fcfc" fill-rule="evenodd" d="M217.17969 480.32813h9.90234l-3.1914-3.00782-4.4375.30078-2.27344 2.70704"/></g><path fill="#00c4fc" fill-rule="evenodd" d="M219.45313 422.95703l-.21094-.32812.21094-.15625 4.4375-2.06641V421.5l-2.34766 1.1289 2.34766 2.03907 2.0625-2.03906-2.0625-1.12891v-1.09375l4.05859 2.22266.3789 2.15234.83204-2.15234 3.60547-1.85938v3.70703l-1.02344 2.59375 1.02344.77344 2.48046 3.66406 1.96094 1.39844 2.24219-1.39844-2.24219-1.76562-3.77344-2.67188-.66797-2.59375v-3.70703l1.6797 1.85938 1.77343 4.4414.98828.69922 4.4375 3.49219 3.11328.2461 1.32422.28124 2.97656 4.15625-2.30078 4.4375-.67578.80469-1.34375-.80469-3.09375-2.71875-1.78516-1.71875-2.65234-1.47265-4.15234-2.96485-.28906-.42187-4.4375-3.6211-2.14063-.39453-2.29688-.42969-4.4375-3.68359"/><path fill="#00b8fc" fill-rule="evenodd" d="M223.89063 424.66797l-2.34766-2.03906 2.34766-1.12891v1.09375l-.07813.03516.07813.0664.0664-.0664-.0664-.03516V421.5l2.0625 1.1289-2.0625 2.03907"/><path fill="#00a8fc" fill-rule="evenodd" d="M223.89063 422.69531l-.07813-.0664.07813-.03516.0664.03516-.0664.0664"/><path fill="#50fcfc" fill-rule="evenodd" d="M228.32813 431.38281l-.16407.125.16406.73828.14454-.73828-.14453-.125"/><path fill="#00b8fc" fill-rule="evenodd" d="M232.76563 427.84375l-1.02344-.77344 1.02344-2.59375.66796 2.59375 3.77344 2.67188 2.24219 1.76562-2.24219 1.39844-1.96094-1.39844-2.48047-3.66406"/><path fill="#50fcfc" fill-rule="evenodd" d="M237.20703 439.03125l-2.97656 1.35156 2.97656 2.01953 1.40625-2.01953-1.40625-1.35156"/><path fill="#00d4fc" fill-rule="evenodd" d="M255.90625 435.94531l-.3125-4.4375 3.80469-1.79687v1.54297l-.53906.2539.3789 4.4375.16016.07813.07422-.07813.5664-4.4375-.64062-.2539v-1.54297l4.4375 1.73437 3.51172-4.375.92578-.79687 1.5.79687 2.9375 1.80078 4.4414-.36328 4.4375-.91797v1.19922l-4.4375 2.4961-4.4414-.15235-.91016.375.91016.26172 4.4414-.13281 4.4375 3.66797.80079.64062 3.63671 2.04688 4.4375-.4336 1.57032-1.61328 1.25-4.4375-2.82032-2.38672-4.4375.47266-4.4375-.80469v-1.19922l4.4375.89844 4.4375-.10547 3.69532 3.125-1.10547 4.4375-2.58985 2.66016-4.4375.5625-4.4375-1.66797-3.82812 2.88281-.60938.47266-1.30859-.47266 1.3086-.4336 3.24609-4.0039-3.2461-2.70312-4.4414.10547-4.4375-1.0586-4.4375-.72656-2.78125 4.38281-1.65625 1.77344-3.49219-1.77344"/><path fill="#00c4fc" fill-rule="evenodd" d="M259.23828 435.94531l-.3789-4.4375.53906-.2539.64062.2539-.5664 4.4375-.07422.07813-.16016-.07813"/><path fill="#fff" fill-opacity="0" fill-rule="evenodd" d="M263.83594 435.5586l-.2461.38671.2461 2.47656 4.4375-2.09765 4.4375-.20313 4.4414.02344.16016-.19922-.16016-.13672-4.4414.0625-4.4375-.10937-4.4375-.20313"/><path fill="#00c4fc" fill-rule="evenodd" d="M272.71094 431.76953l-.91016-.26172.91016-.375 4.4414.15235 4.4375-2.4961 4.4375.80469 4.4375-.47266v.7422l-4.4375.83593-4.4375-.71094-2.5703 1.51953 2.5703 2.1211 2.89844 2.3164 1.53906.86328 4.4375-.29687.55079-.5664 1.39453-4.4375-1.94532-1.64454v-.74219l2.82032 2.38672-1.25 4.4375-1.57032 1.61328-4.4375.4336-3.63671-2.04688-.80079-.64062-4.4375-3.66797-4.4414.13281"/><path fill="#00b8fc" fill-rule="evenodd" d="M281.58984 433.6289l-2.5703-2.12109 2.5703-1.51953v1.19922l-.54296.32031.54296.44531 2.19922-.4453-2.19922-.32032v-1.19922l4.4375.71094 4.4375-.83594v.74219l-3.6289.90234 3.6289 3.21875 1.06641-3.21875-1.0664-.90234v-.74219l1.9453 1.64453-1.39452 4.4375-.55079.5664-4.4375.29688-1.53906-.86328-2.89844-2.3164"/><path fill="#00a8fc" fill-rule="evenodd" d="M281.58984 431.95313l-.54296-.44532.54296-.32031 2.19922.32031-2.19922.44531"/><path fill="#00e8fc" fill-rule="evenodd" d="M290.46484 445.39453l-3.75-.57422 3.75-.6836.60157.6836-.60157.57422"/><path fill="#00a8fc" fill-rule="evenodd" d="M290.46484 434.72656l-3.6289-3.21875 3.6289-.90234v.73828l-.64843.16406.64843.57422.19141-.57422-.1914-.16406v-.73828l1.0664.90234-1.0664 3.21875"/><path fill="#009800" fill-rule="evenodd" d="M290.46484 432.08203l-.64843-.57422.64843-.16406.19141.16406-.1914.57422"/><path fill="#00e8fc" fill-rule="evenodd" d="M303.78125 427.5664l-.34375-.49609.34375-.22656.22266.22656-.22266.4961"/><path fill="#50fcfc" fill-rule="evenodd" d="M334.84766 458.26172l-.53516-.125.53516-.16016.65234.16016-.65234.125m4.4414-34.86719l-1.09375-.76562 1.09375-1.14063.57813 1.14063-.57813.76562m8.875 15.8789l-3.46484-3.32812 3.46484-4.14062 4.4375-.11719v.8125l-4.4375 1.4961-1.63281 1.94921 1.63281 1.5664 2.57422 2.8711 1.86328 2.13672 4.4414 1.19531 4.4375-1.60156 4.4375-.85547.9297-.875-.9297-.8789-4.4375-.84766-2.30468-2.71094-2.13281-2.57812-4.4414-.86719v-.8125l4.4414-.11719 3.61719 4.375.8203.96485 4.4375.11718 3.53907 3.35547-3.53906 3.32422-4.4375.16016-4.4375.6289-4.4414-.17187-3.44141-3.9414-.9961-1.10938"/><path fill="#00e8fc" fill-rule="evenodd" d="M348.16406 437.51172l-1.63281-1.5664 1.63281-1.94923 4.4375-1.49609v1.35547l-3.40625 2.08984 3.40625 3.73047.69922.70703 3.74219 2.03125 3.51953-2.03125-3.51953-4.07422-.36719-.36328-4.07422-2.08984V432.5l4.4414.86719 2.13282 2.57812 2.30469 2.71094 4.4375.84766.92969.8789-.9297.875-4.4375.85547-4.4375 1.60156-4.4414-1.1953-1.86328-2.13673-2.57422-2.8711"/><path fill="#50fcfc" fill-rule="evenodd" d="M348.16406 476.05469l-.25-.16406.25-.29297.23828.29296-.23828.16407"/><path fill="#00d4fc" fill-rule="evenodd" d="M352.60156 439.67578l-3.40625-3.73047 3.40625-2.08984v1.35547l-1.19531.73437 1.19531 1.3086 3.09375 3.1289 1.34766.73438 1.26562-.73438-1.26562-1.46875-3.01172-2.96875-1.42969-.73437v-1.35547l4.07422 2.08984.36719.36328 3.51953 4.07422-3.51953 2.03125-3.74219-2.03125-.69922-.70703"/><path fill="#00c4fc" fill-rule="evenodd" d="M352.60156 437.2539l-1.19531-1.30859 1.19531-.73437 1.42969.73437 3.01172 2.96875 1.26562 1.46875-1.26562.73438-1.34766-.73438-3.09375-3.1289"/><g clip-path="url(#f)"><path fill="#50fcfc" fill-rule="evenodd" d="M369.60938 462.57422l-.34375-4.4375 1.08984-3.19922.52344-1.23828.6875-4.4375 3.22656-3.70703.69922-.73438-.69922-1.23828-2.66016-3.19922 2.66016-3.5664 2.10937-.8711 2.33204-1.8711v10.33204l-.2461.41406-4.19531 4.39453-.03516.04688.03516.09765.05078-.09765 4.39063-4.16406v3.99218l-.1836.17188.1836.22265.15625-.22265-.15625-.17188v-3.99218l3.875 4.16406-.79297 4.4375-3.08204 2.05469-1.11328 2.3828 1.11329.84376 1.65625-.84375 2.78125-3.6211 3.65625 3.6211-3.41797 4.4375 4.19921 3.1289 4.4375.91407v2.19922l-3.42187 2.63671 3.42188 2.37891 2.1875-2.3789-2.1875-2.63672v-2.19922l4.4375-1.80469 4.4414 1.57813 4.4375-1.14844 4.4375-1.01953 1.65235-1.64844-1.65235-1.89063-4.4375-.89843-4.4375.35937-4.4414.42969-4.4375-2.19531-3.78125-.2422-.65625-.42577-3.9922-4.01172 1.9375-4.4375-2.3828-.6875-4.09375-3.7539-.34375-.41407v-10.33203l4.4375.27344 1.4375 1.59765-.87891 4.4375 3.8789 1.52344 4.4375 1.92188.91016.99218 3.00781 4.4414-2.35546 4.4375.88671 4.4375 1.98829.73829 4.4414-.35547 4.4375-.15234 4.4375.13672 3.54688 4.0703-3.54688 3.54298-4.4375.48047-1.27734.41796-3.16016 3.875-3.67578-3.875-.76563-.30078-1.9375.30079 1.5586 4.4375.3789 1.41015 4.44141-1.14844 3.46875 4.17579-.15625 4.4375h-1.72656l-.10547-4.4375-1.48047-1.78516-2.53125 1.78515.78906 4.4375h-1.89453l-.80469-2.18359-4.33203-2.2539-.10546-.01954-4.4375-1.04296-.65625 1.0625-3.78125 2.96484-3.66016-2.96485 3.66015-3.26562v2.75781l-.5703.50781.5703.46094.58985-.46094-.58985-.5078V472.625l1.7461-1.17188-1.6914-4.4375-.0547-.02343-4.4375-4.15235-1.3203-.26562-3.1211-1.02735-1.8711 1.02735-2.5664.7461-.7461-.7461"/></g><path fill="#00e8fc" fill-rule="evenodd" d="M374.79297 449.35938l-.03516-.09766.03516-.04688 4.19531-4.39453.2461-.41406.34375.41406 4.09375 3.7539 2.3828.6875-1.9375 4.4375 3.9922 4.01173.65625.42578 3.78125.24219v.85937l-4.41407 3.33594 4.41406 3.21094 4.125-3.21094-4.125-3.33594v-.85937l4.4375 2.1953 4.44141-.42968 4.4375-.35937v2.36718l-2.8164.42188 2.8164.40625 1.20703-.40625-1.20703-.42188v-2.36718l4.4375.89843 1.65235 1.89063-1.65235 1.64844-4.4375 1.01953-4.4375 1.14844-4.4414-1.57813-4.4375 1.80469-4.4375-.91406-4.19922-3.12891 3.41796-4.4375-3.65625-3.6211-2.78125 3.6211-1.65625.84375-1.11328-.84375 1.11329-2.38281 3.08203-2.0547.79296-4.4375-3.875-4.16405-4.39062 4.16406-.05078.09765"/><path fill="#fff" fill-opacity="0" fill-rule="evenodd" d="M379.23438 449.08984l-.1836.17188.1836.22265.15625-.22265-.15625-.17188"/><path fill="#00e8fc" fill-rule="evenodd" d="M383.67188 476.35156l-.57032-.46094.57031-.5078.58985.5078-.58985.46094"/><path fill="#00d4fc" fill-rule="evenodd" d="M392.54688 465.78516l-4.41407-3.21094 4.41406-3.33594v.86328l-3.27343 2.47266 3.27344 2.38281 3.05859-2.38281-3.0586-2.47266v-.86328l4.125 3.33594-4.125 3.21094"/><path fill="#00e8fc" fill-rule="evenodd" d="M392.54688 473.83203l-3.42188-2.3789 3.42188-2.63672 2.1875 2.63671-2.1875 2.37891"/><path fill="#00c4fc" fill-rule="evenodd" d="M392.54688 464.95703l-3.27344-2.38281 3.27344-2.47266v.86328l-2.12891 1.60938 2.1289 1.55078 1.9922-1.55078-1.9922-1.60938v-.86328l3.0586 2.47266-3.0586 2.38281"/><path fill="#00b8fc" fill-rule="evenodd" d="M392.54688 464.125l-2.12891-1.55078 2.1289-1.60938v.86329l-.98828.74609.98829.72265.92578-.72265-.92579-.7461v-.86328l1.9922 1.60938-1.9922 1.55078"/><path fill="#00a8fc" fill-rule="evenodd" d="M392.54688 463.29688l-.98829-.72266.98829-.7461.92578.7461-.92579.72265"/><g clip-path="url(#g)"><path fill="#00e8fc" fill-rule="evenodd" d="M399.6836 480.32813l-.78907-4.4375 2.53125-1.78516 1.48047 1.78515.10547 4.4375h-3.32813"/></g><path fill="#00d4fc" fill-rule="evenodd" d="M405.86328 462.98047l-2.8164-.40625 2.8164-.42188 1.20703.42188-1.20703.40625"/><g clip-path="url(#h)"><path fill="#fff" fill-opacity="0" fill-rule="evenodd" d="M467.9961 480.32813H468V311.67188h-.0039H468v168.65625h-.0039"/></g><path fill="#fff" fill-opacity="0" fill-rule="evenodd" d="M392.89453 463.42969l5.78516.80078 1.36719-9.86719-5.78907-.80078-1.36328 9.86719"/><path fill-rule="evenodd" d="M397.47266 455.85938l.5039.0703-.85937 6.23438-.78125-.10547.61719-4.44921-1.37891-.19141.07812-.55078.5625.01562.25782-.01953.23828-.0586.22265-.11327.19922-.1836.1836-.26953.15625-.3789"/><path fill="#fff" fill-opacity="0" fill-rule="evenodd" d="M235.85156 420.54688l1.42969 5.66406 9.65625-2.4414-1.42969-5.66017-9.65625 2.4375"/><path fill-rule="evenodd" d="M244.58984 421.94922l.125.49219-6.10547 1.54296-.1914-.76171 4.35156-1.10157-.33984-1.34375.53906-.13671.19922.52734.11328.23047.14453.19922.1875.16406.2461.11719.3203.0664.41016.0039"/><path fill="#fff" fill-opacity="0" fill-rule="evenodd" d="M268.96875 453.66797l5.7539 1.0039 1.71094-9.8125-5.7539-1.0039-1.71094 9.8125"/><path fill-rule="evenodd" d="M273.8125 446.26172l.5.08984-1.07813 6.19922-.77734-.13281.77344-4.42578-1.3711-.23828.09766-.54688.5625.03125.25781-.00781.2422-.05078.22265-.10156.20703-.1797.1914-.26562.17188-.3711"/><path fill="#fff" fill-opacity="0" fill-rule="evenodd" d="M250.04297 446.8164l4.84375-6.27343-8.0664-6.22656-4.84376 6.26953 8.0664 6.23047"/><path fill-rule="evenodd" d="M244.9414 439.74219l2.00782-2.59766.58594.44922-1.60938 2.08984 1.28516 1.28516.01172-.27734.05859-.29688.1289-.3086.20704-.32421.21875-.23828.27344-.21875.3203-.17188.36329-.11328.39453-.03906.21094.01172.21484.03906.21875.07031.22656.09766.22657.1289.23437.16016.32813.29688.26953.33984.19922.3711.12109.39843.03516.41406-.01563.21094-.04297.21485-.0664.21875-.09375.21484-.1211.21484-.14844.21485-.3125.34765-.32421.2539-.33594.16407-.33594.08594-.33984.01562-.34375-.04687-.33985-.10156-.33203-.14454.48047-.625.23047.07813.22656.04688.22266.01171.21094-.01953.19922-.05469.1875-.09765.17187-.1289.15625-.17188.17188-.26563.11718-.26562.05469-.26563-.0039-.26562-.07032-.26563-.13281-.2539-.19922-.25-.26953-.23829-.21875-.14453-.2461-.11328-.2578-.07031-.26954-.02344-.27344.03516-.26562.09375-.2539.16797-.23438.2461-.17969.28905-.08594.28907-.01562.33203.01953.41015-.42188.55079-2.42968-2.46094"/><path fill="#fff" fill-opacity="0" fill-rule="evenodd" d="M163.65625 463.9336l7.66016-2.03516-2.6172-9.85156-7.66015 2.03515 2.61719 9.85156"/><path fill-rule="evenodd" d="M163.91016 455.21484l3.17578-.84375.1875.71875-2.54688.67579.23828 1.80468.1797-.21484.22655-.19922.28907-.16797.35937-.1289.32422-.0586.34766-.0039.35937.05468.35547.1289.33984.21095.15625.13671.14453.16407.13672.1875.1172.21484.10546.23828.08594.27344.07812.4375.00781.42969-.0664.41406-.14453.39063-.22266.35156-.14453.16015-.16406.14454-.1836.1289-.20312.11719-.23047.09765-.2461.07813-.46093.08594-.41406.0039-.36328-.07421-.32032-.13672-.28125-.19141-.24219-.2461-.20703-.28515-.17578-.32031.75781-.20313.13672.20313.15235.17578.16797.14453.17968.10938.19141.07812.20703.03906h.21875l.23047-.04297.29688-.10156.2539-.14453.20313-.17578.16015-.21485.10156-.25.05079-.28515-.00782-.32031-.0664-.35157-.08594-.25-.125-.23828-.16406-.21484-.19922-.17969-.23828-.14062-.26953-.08204-.3047-.02343-.33593.05469-.3164.12109-.2422.17578-.21874.25-.23047.34375-.67188.17578-.42968-3.42969"/><g clip-path="url(#i)"><path fill="none" stroke="#000" stroke-linecap="round" stroke-linejoin="round" stroke-miterlimit="10" stroke-width=".5" d="M147.4414 481.03125l-6.8828-1.40234"/></g><g clip-path="url(#j)"><path fill="none" stroke="#000" stroke-linecap="round" stroke-linejoin="round" stroke-miterlimit="10" stroke-width=".5" d="M147.4414 481.03125l.69923 2.35156"/></g><g clip-path="url(#k)"><path fill="none" stroke="#000" stroke-linecap="round" stroke-linejoin="round" stroke-miterlimit="10" stroke-width=".5" d="M146.4414 480.82422L146.78907 482"/></g><g clip-path="url(#l)"><path fill="none" stroke="#000" stroke-linecap="round" stroke-linejoin="round" stroke-miterlimit="10" stroke-width=".5" d="M160.75781 481.03516l-6.88281-1.41407"/></g><g clip-path="url(#m)"><path fill="none" stroke="#000" stroke-linecap="round" stroke-linejoin="round" stroke-miterlimit="10" stroke-width=".5" d="M160.75781 481.03516l.6914 2.35547"/></g><g clip-path="url(#n)"><path fill="none" stroke="#000" stroke-linecap="round" stroke-linejoin="round" stroke-miterlimit="10" stroke-width=".5" d="M159.7539 480.82813l.34766 1.17968"/></g><g clip-path="url(#o)"><path fill="none" stroke="#000" stroke-linecap="round" stroke-linejoin="round" stroke-miterlimit="10" stroke-width=".5" d="M173.9961 481.33984l-6.73048-2.02343"/></g><g clip-path="url(#p)"><path fill="none" stroke="#000" stroke-linecap="round" stroke-linejoin="round" stroke-miterlimit="10" stroke-width=".5" d="M173.01563 481.04688l.24218 1.20312"/></g><g clip-path="url(#q)"><path fill="none" stroke="#000" stroke-linecap="round" stroke-linejoin="round" stroke-miterlimit="10" stroke-width=".5" d="M187.23047 481.57422l-6.57031-2.48828"/></g><g clip-path="url(#r)"><path fill="none" stroke="#000" stroke-linecap="round" stroke-linejoin="round" stroke-miterlimit="10" stroke-width=".5" d="M186.27344 481.21094l.15625 1.21875"/></g><g clip-path="url(#s)"><path fill="none" stroke="#000" stroke-linecap="round" stroke-linejoin="round" stroke-miterlimit="10" stroke-width=".5" d="M200.48828 481.71875l-6.45312-2.78125"/></g><g clip-path="url(#t)"><path fill="none" stroke="#000" stroke-linecap="round" stroke-linejoin="round" stroke-miterlimit="10" stroke-width=".5" d="M213.875 481.53906l-6.59766-2.42187"/></g><g clip-path="url(#u)"><path fill="none" stroke="#000" stroke-linecap="round" stroke-linejoin="round" stroke-miterlimit="10" stroke-width=".5" d="M227.0625 481.84375l-6.34375-3.02734"/></g><g clip-path="url(#v)"><path fill="none" stroke="#000" stroke-linecap="round" stroke-linejoin="round" stroke-miterlimit="10" stroke-width=".5" d="M240.3125 481.96875l-6.21484-3.28125"/></g><g clip-path="url(#w)"><path fill="none" stroke="#000" stroke-linecap="round" stroke-linejoin="round" stroke-miterlimit="10" stroke-width=".5" d="M253.11328 482.69922l-5.1836-4.74219"/></g><g clip-path="url(#x)"><path fill="none" stroke="#000" stroke-linecap="round" stroke-linejoin="round" stroke-miterlimit="10" stroke-width=".5" d="M265.8164 483.23047l-3.96093-5.80469"/></g><g clip-path="url(#y)"><path fill="none" stroke="#000" stroke-linecap="round" stroke-linejoin="round" stroke-miterlimit="10" stroke-width=".5" d="M279.44922 482.98438l-4.59766-5.3125"/></g><g clip-path="url(#z)"><path fill="none" stroke="#000" stroke-linecap="round" stroke-linejoin="round" stroke-miterlimit="10" stroke-width=".5" d="M293.78906 479.1914l-6.64844 2.27344"/></g><g clip-path="url(#A)"><path fill="none" stroke="#000" stroke-linecap="round" stroke-linejoin="round" stroke-miterlimit="10" stroke-width=".5" d="M292.82422 479.52344l.89453.83594"/></g><g clip-path="url(#B)"><path fill="none" stroke="#000" stroke-linecap="round" stroke-linejoin="round" stroke-miterlimit="10" stroke-width=".5" d="M306.95313 478.8164l-6.34375 3.02344"/></g><g clip-path="url(#C)"><path fill="none" stroke="#000" stroke-linecap="round" stroke-linejoin="round" stroke-miterlimit="10" stroke-width=".5" d="M306.03125 479.25781l.98438.73047"/></g><g clip-path="url(#D)"><path fill="none" stroke="#000" stroke-linecap="round" stroke-linejoin="round" stroke-miterlimit="10" stroke-width=".5" d="M318.8789 483.35547l-3.5664-6.05469"/></g><g clip-path="url(#E)"><path fill="none" stroke="#000" stroke-linecap="round" stroke-linejoin="round" stroke-miterlimit="10" stroke-width=".5" d="M329.52734 483.73047l1.76563-6.80078"/></g><g clip-path="url(#F)"><path fill="none" stroke="#000" stroke-linecap="round" stroke-linejoin="round" stroke-miterlimit="10" stroke-width=".5" d="M341.53516 483.07422l4.3828-5.49219"/></g><g clip-path="url(#G)"><path fill="none" stroke="#000" stroke-linecap="round" stroke-linejoin="round" stroke-miterlimit="10" stroke-width=".5" d="M355.08203 483.2461L359 477.41405"/></g><g clip-path="url(#H)"><path fill="none" stroke="#000" stroke-linecap="round" stroke-linejoin="round" stroke-miterlimit="10" stroke-width=".5" d="M367.26172 481.9961l6.1875-3.33594"/></g><g clip-path="url(#I)"><path fill="none" stroke="#000" stroke-linecap="round" stroke-linejoin="round" stroke-miterlimit="10" stroke-width=".5" d="M368.16406 481.51172l-1.02344-.67969"/></g><g clip-path="url(#J)"><path fill="none" stroke="#000" stroke-linecap="round" stroke-linejoin="round" stroke-miterlimit="10" stroke-width=".5" d="M380.17188 480.65234l6.99609-.64843"/></g><g clip-path="url(#K)"><path fill="none" stroke="#000" stroke-linecap="round" stroke-linejoin="round" stroke-miterlimit="10" stroke-width=".5" d="M381.1914 480.5586l-.67577-1.02344"/></g><g clip-path="url(#L)"><path fill="none" stroke="#000" stroke-linecap="round" stroke-linejoin="round" stroke-miterlimit="10" stroke-width=".5" d="M393.5586 481.10938l6.85546-1.5586"/></g><g clip-path="url(#M)"><path fill="none" stroke="#000" stroke-linecap="round" stroke-linejoin="round" stroke-miterlimit="10" stroke-width=".5" d="M393.5586 481.10938l-1.60157-1.85938"/></g><g clip-path="url(#N)"><path fill="none" stroke="#000" stroke-linecap="round" stroke-linejoin="round" stroke-miterlimit="10" stroke-width=".5" d="M407.03516 481.6289l6.53125-2.59765"/></g><g clip-path="url(#O)"><path fill="none" stroke="#000" stroke-linecap="round" stroke-linejoin="round" stroke-miterlimit="10" stroke-width=".5" d="M407.03516 481.6289l-1.8711-1.58984"/></g><g clip-path="url(#P)"><path fill="none" stroke="#000" stroke-linecap="round" stroke-linejoin="round" stroke-miterlimit="10" stroke-width=".5" d="M421.26953 482.94531l4.6914-5.23437"/></g><g clip-path="url(#Q)"><path fill="none" stroke="#000" stroke-linecap="round" stroke-linejoin="round" stroke-miterlimit="10" stroke-width=".5" d="M434.57422 482.9336l4.71484-5.20704"/></g><g clip-path="url(#R)"><path fill="none" stroke="#000" stroke-linecap="round" stroke-linejoin="round" stroke-miterlimit="10" stroke-width=".5" d="M448.58984 483.42578l3.3125-6.19531"/></g><g clip-path="url(#S)"><path fill="none" stroke="#000" stroke-linecap="round" stroke-linejoin="round" stroke-miterlimit="10" stroke-width=".5" d="M462.76172 483.75l1.60156-6.84375"/></g><g clip-path="url(#T)"><path fill="none" stroke="#000" stroke-linecap="round" stroke-linejoin="round" stroke-miterlimit="10" stroke-width=".5" d="M147.47656 467.52734L140.52344 466.5"/></g><path fill="none" stroke="#000" stroke-linecap="round" stroke-linejoin="round" stroke-miterlimit="10" stroke-width=".5" d="M147.47656 467.52734l.82422 2.3125m12.50781-2.46484l-6.98828-.72266m6.98828.72266l.92578 2.27344m12.33985-1.94531l-6.89063-1.37891m6.89063 1.3789l.70312 2.35157m-1.70312-2.55078l.35156 1.17578m13.92578-.8086l-6.8125-1.71484m6.8125 1.71484l.58985 2.38282m-1.58203-2.63282l.29687 1.19141m13.91016-.60547l-6.60938-2.38672m6.60938 2.38672l.34765 2.42969m12.75781-1.96094l-6.1914-3.32422m6.1914 3.32422l-.01171 2.45313m13.32812-2.45703l-6.19531-3.31641m6.19531 3.3164l-.00781 2.45704m13.36719-2.54297l-6.28516-3.14453m6.28516 3.14453l.0625 2.45312m13.13672-2.23828l-6.05079-3.57422m6.05078 3.57422l-.10937 2.44922m12.91797-1.78906l-5.03906-4.89453m4.30468 4.18359l-.33984 1.17578m13.53125.1836l-3.32422-6.19141m2.83985 5.28906l-.6797 1.01953m16.22266-4.07031l-6.8125 1.71484m20.10547.08985l-6.76562-1.89453m5.78125 1.62109l.26172 1.19922m12.14062 1.3086l-2.97266-6.36329m2.54297 5.4375l-.73828.98047m11.21094-.21094l3.57422-6.05078m-3.05469 5.17188l-1.22656-.0547m12.92187-.08984l5.77344-4.0039m-4.9336 3.42187l-1.08984-.5625m13.375.83985l6.15235-3.39453m-5.25782 2.90234l-1.02734-.67188m13.13672.39454l6.77734-1.85547m-5.79297 1.58593l-.83984-.89453m13.17578 1.1836l6.76563-1.89453m-6.76563 1.89453l-1.69531-1.77344m15.0039 1.76172l6.77735-1.8711m-6.77734 1.8711l-1.6836-1.78516m2.67188 1.51172l-.84375-.89062m13.41797 1.80078l6.28515-3.14453m-6.28515 3.14453l-2-1.42188m2.91406.96485l-1-.71094m13.73047 1.69922l5.625-4.20703m-5.625 4.20703l-2.22266-1.04297m15.35938.78906l5.97656-3.69922m-5.97656 3.69922l-2.1172-1.23828m15.35548 1.10156l6.13281-3.42578m-5.24219 2.92969l-1.03125-.66797m14.01953 1.91797l5.00391-4.9336m-4.27344 4.21485l-1.17187-.36719"/><g clip-path="url(#U)"><path fill="none" stroke="#000" stroke-linecap="round" stroke-linejoin="round" stroke-miterlimit="10" stroke-width=".5" d="M147.44922 454.36719l-6.89844-1.33594"/></g><path fill="none" stroke="#000" stroke-linecap="round" stroke-linejoin="round" stroke-miterlimit="10" stroke-width=".5" d="M147.44922 454.36719l.71875 2.34375m12.40234-1.6875l-6.50781-2.64844m5.5586 2.26172l.125 1.22265m14.22656-1.07812l-6.6836-2.16797M173 454.46875l.21484 1.20703m13.94922-.5664l-6.4375-2.82032m5.5 2.41016l.09375 1.22265m14.08985-.66406l-6.29688-3.11719m5.3789 2.66407l.03516 1.22656M214 454.48437l-6.84766-1.5703m5.85157 1.33984l.3203 1.1875m13.89845-.63282l-6.66407-2.22265m5.69532 1.90234l.20312 1.20703m14.1914-1.30078L233.76173 453m5.88672 1.1914l.34765 1.17579m13.98047-1.02735l-6.91015-1.28515m5.90234 1.10156l.36719 1.16797m13.2539.55469l-5.5078-4.36328m17.64452 5.32421l-3.15234-6.28125m2.69531 5.3672l-.71094 1m13.9297-3.22657l-.01954-.19922-.0586-.1914-.09374-.1797-.46094-.375-.1914-.05859-.19923-.01953-.19921.01953-.19141.0586-.45703.375-.09766.17968-.05469.19141-.01953.19922.01953.19922.0547.1914.09765.17578.45703.37891.1914.0586.19922.01953.19922-.01953.1914-.0586.46095-.3789.09375-.17579.05859-.1914.01953-.19922m15.61719-1.13281l-6.65234 2.26171m5.6875-1.92968l.89453.83984m10.72265 3.41016L316.4336 450.25m12.20704 6.48438l3.54296-6.07032m8.22657 4.1914l6.6328-2.3164m-5.66796 1.98047l-.90234-.83203m13.0625-.20703l7.01172.4375m-5.9922-.375l-.5078-1.11719m13.9375-1.32031l4.74609 5.1836m-4.05469-4.4297l.41016-1.15625m11.07422 2.90235l7.02343.1836m-7.02343-.1836l-1.09766-2.19531m14.45313 2.84765l6.9414-1.11719m-6.9414 1.1172l-1.48047-1.95704m2.49218 1.79297l-.74218-.97656m13.91406 2.9414l5.20703-4.71875m-5.20703 4.71875l-2.3086-.83203m3.06641.14453l-1.15625-.41406m14.03906 1.41797l4.5547-5.35156m-4.5547 5.35156l-2.39843-.52734m15.6328.45703l4.71485-5.21094m-4.71484 5.21094l-2.3789-.60157m14.71093-.91015l6.67969-2.1914m-6.67969 2.1914l-1.76953-1.69922m16.14844 3.28125l4.55078-5.35547m-4.55078 5.35547l-2.39453-.52344"/><g clip-path="url(#V)"><path fill="none" stroke="#000" stroke-linecap="round" stroke-linejoin="round" stroke-miterlimit="10" stroke-width=".5" d="M147.30469 441.58203l-6.60938-2.39453"/></g><path fill="none" stroke="#000" stroke-linecap="round" stroke-linejoin="round" stroke-miterlimit="10" stroke-width=".5" d="M146.34375 441.23047l.17188 1.21484m13.7578-.16406l-5.91405-3.79688m5.05078 3.2461l-.09766 1.22265m14.6914-1.58984l-6.74609-1.96094m5.76563 1.67579l.25 1.20312m14.01172-.8086l-6.6797-2.17577m5.70704 1.85937l.21484 1.20703m13.45313.2461l-5.4414-4.44922m4.64843 3.80078l-.23828 1.20312m13.46094.21485l-3.66797-5.9922m16.11719 6.375l-1.94141-6.7539m1.66016 5.76953l-.88282.85157m12.36719.07812l2.28906-6.64453m9.25781 5.28516l5.82422-3.9297m6.88672 1.98438l7.02735-.03906m6.3828.82031l6.83985-1.60156m-5.84375 1.3711l-.8086-.92579m13.03517.4922l7.02343-.27345m-6 .23438l-.61718-1.0586m12.91015 1.02735l7.02344-.1289m10.4336-3.39454l-1.26173 6.91406m16.36329-6.0078l-4.83204 5.10155m4.12891-4.35937l1.1836.32812m8.61328-1.53515l3.60937 6.03125m-3.08594-5.15235l.63672-1.05078m10.7539 1.75l6.41016 2.875m-5.47656-2.45703l-.08203-1.22265m13.60156-.59766l4.13672 5.67969m-3.53515-4.85157l.53515-1.10547m11.39453 1.06641l5.70313 4.10547m-5.70313-4.10547l.32813-2.4336m12.53125 3.29688l6.61328 2.375m-6.61328-2.375l-.35156-2.42968m1.3125 2.77734l-.35157-2.42969m12.5 3.21094l7.02344.11719m-7.02344-.1172l-1.11718-2.18358m2.14062 2.20312l-1.11719-2.1875m13.54297 3.19922l6.7539-1.94531m-6.7539 1.9453l-1.70312-1.76171m2.6875 1.48047l-.85157-.88281m13.83985 2.41406l5.4414-4.44531m-5.4414 4.4453l-2.26172-.9453m3.05469.30078l-1.13282-.47656m15.0625-4.35938l2.62891 6.51563m-2.2461-5.56641l.78907-.9414m10.6836 5.40624l5.54687-4.3125m-4.74219 3.6836l-1.11719-.5"/><g clip-path="url(#W)"><path fill="none" stroke="#000" stroke-linecap="round" stroke-linejoin="round" stroke-miterlimit="10" stroke-width=".5" d="M147.42578 427.85547l-6.85156-1.57422"/></g><path fill="none" stroke="#000" stroke-linecap="round" stroke-linejoin="round" stroke-miterlimit="10" stroke-width=".5" d="M146.42578 427.6289l.32031 1.1836m13.96094-.83203l-6.78516-1.82422m5.79688 1.5586l.27734 1.1953m13.19141.56641l-5.11719-4.8164m14.625 5.6914l2.5-6.5664m11.63672 6.76953l.85938-6.97266m11.28515 6.61328l3.19922-6.2539m8.24219 3.67187l6.9414-1.08984m6.39063 1.17578l6.91016-1.26172m-5.90625 1.07813l-.76172-.96094m13.1914 1.61719l6.67188-2.20704m-5.69922 1.88672l-.88672-.84765m13.09375.60546l6.94531-1.08203m-5.93359.92188l-.73828-.98047m13.03515.10937l6.95704.98047m9.1289-3.92968l1.41407 6.8828m10.85156-6.48437l3.51562 6.08203m8.70703-5.09765l5.69922 4.11328m-4.8711-3.51563l.16798-1.21484m14.15625-.6914l2.02734 6.73046m-1.73437-5.75l.87109-.86328m14.97656.23828l-3.625 6.01953m3.09766-5.14453l1.22266.06641m13.7578.16016l-5.90234 3.8164m5.04297-3.26172l1.07032.59766m11.67187-2.41406l-3.03516 6.33984M380.20313 426.5l6.93359 1.13672m-6.9336-1.13672l-.78515-2.32422m16.875-.55078l1.38672 6.88672m-1.38672-6.88672l1.89453-1.5586m-1.69531 2.5586l1.89844-1.55469m12.15234.49219l-.48438 7.01172m.48438-7.01172l2.24219-1m-2.3125 2.01953l2.24218-.9961m11.94922.12891l-2.09375 6.70704m2.09375-6.70704l2.41016-.45703m-2.71484 1.4336l2.41015-.45703m12.01563-.15235l-3.70703 5.97266m3.70703-5.97266l2.44922.16406m8.125-.57812l1.77343 6.80078m-1.77343-6.80078l1.80859-1.66016m11.54297 1.65235l1.69922 6.8164m-1.69922-6.8164l1.82422-1.64454"/><g clip-path="url(#X)"><path fill="none" stroke="#000" stroke-linecap="round" stroke-linejoin="round" stroke-miterlimit="10" stroke-width=".5" d="M147.21484 412.33203l-6.42968 2.84375"/></g><path fill="none" stroke="#000" stroke-linecap="round" stroke-linejoin="round" stroke-miterlimit="10" stroke-width=".5" d="M146.27734 412.7461l.96485.7578m13.04687-1.62109l-5.94922 3.74219m5.08203-3.19922l1.06641.61328m11.8125-2.375l-3.33984 6.17969m17-.21094l-4.03125-5.75781m17.46094 5.67187l-4.26172-5.58593m14.17968-.48438l2.53516 6.55469m-2.16797-5.60156l.80078-.92578m9.90625 3.04687l7.01563.40625m-5.9961-.34766l-.51172-1.11328m13.14844 2.78125l6.33203-3.05078m-5.41015 2.60938l-.98828-.72657m14.78125 2.6797l3.53515-6.07032m-3.53515 6.07031l-2.45313-.09375m14.98828-.52344l5.09375-4.83984m-4.35547 4.13672l-1.16015-.39063m13.49218-3.45703l5.58204 4.26563m-4.76954-3.64453l.19922-1.21094m13.53907 5.8711l3.10937-6.30079m-2.65625 5.38672l-1.22656.03516m18.91015-.96875l-6.53125-2.60157m5.57813 2.22266l.13672 1.21875m9.69531 1.17188l2.33984-6.625m-2 5.66015l-1.21093.1836m12.70312-4.83594l5.30469 4.60937m14.10156-1.57422l-6.875-1.46093m5.875 1.2461l.33594 1.17968m14.04297-1.98828l-7.0039.58593m5.98437-.5l.66406 1.03125m10.39453 2.6797l-.45312-7.01173m.39062 5.9922l-1.04687.64452m14.15625-6.64453l.08593 7.02734m-.07422-6.0039l1.07422-.58985m12.09375-.42578l.35547 7.01563m-.35547-7.01563l2.10547-1.26172m11.63672 1.26563l-.4961 7.00781m.4961-7.00781l2.24219-.9961m11.21094 1.00782l-.77735 6.98437m.77735-6.98437l2.28125-.90625m-2.39454 1.92187l2.28125-.90625m11.37891-.07812l-1.23828 6.91797m1.23828-6.91797l2.33594-.75m-2.51563 1.75781l1.16797-.375m12.64453-.5586l-1.87109 6.77344m1.8711-6.77343l2.39452-.53516m9.96485.40625l.03515 7.02734m-.03515-7.02734l2.16015-1.16016m-2.15234 2.1836l1.07813-.58203"/><g clip-path="url(#Y)"><path fill="none" stroke="#000" stroke-linecap="round" stroke-linejoin="round" stroke-miterlimit="10" stroke-width=".5" d="M146.85547 398.39063l-5.71094 4.09375"/></g><path fill="none" stroke="#000" stroke-linecap="round" stroke-linejoin="round" stroke-miterlimit="10" stroke-width=".5" d="M146.02344 398.98828l1.10156.54297m11.83203-2.19922l-3.28516 6.21094m2.8086-5.3086h1.22656m12.30469-1.02734l-2.76172 6.46094m2.35938-5.51953l1.22265-.10547M184 396.92578l-.10938 7.02735m.09375-6.00391l1.08985-.5625m13.01562-.36328l-1.66015 6.82812m1.41797-5.83203l1.1914-.30469m8.21875 1.5625l6.63281 2.32422m-6.6328-2.32422l-.3672-2.42578m13.48829 3.46875l7.02343.23438m-7.02343-.23438l-1.07813-2.20312m2.10156 2.23828l-.54297-1.10156m13.00391.09765l6.6836 2.17578m-6.6836-2.17578l-.42187-2.41797m16.13672 6.89063l1.88671-6.76953m-1.61328 5.78515l-1.19922.26172m14.65625.8125l1.05078-6.94922m-.89453 5.9375l-1.16015.40625m17.71093-.83593l-5.73046-4.07032m19.5078 3.16797l-6.65234-2.26562m5.6836 1.9375l.19531 1.21094m10.28516-5.4961l.95312 6.96094m11.80469-.1211l2.0664-6.71484m-1.76562 5.73828l-1.20703.23047m17.69531-.08594l-4.88281-5.05468m17.76562-.35547l-4.01562 5.76562m3.42969-4.92578l1.21875.14453m7.35156.75l6.64453 2.29688m-5.67578-1.96094l-.1914-1.21094m13.29296 4.42188l5.13281-4.79688m-5.1328 4.79688l-2.32032-.79688m19.29297-4.9414l-2.17969 6.67968m1.86328-5.70703l1.20703-.21094m11.46094-.93359l-.2539 7.02344m.2539-7.02344l2.20703-1.07031m11.42969 1.09765l-.89844 6.96875m.89844-6.96875l2.29687-.86328m11.53125.96875l-1.92578 6.75782m1.92578-6.75782l2.39844-.51171m-2.67578 1.49609l2.39844-.51563m10.51562-.58984l-.5664 7.0039m.5664-7.0039l2.25391-.97656m-2.33594 1.9961l1.125-.48829m12.3164-.52734l-.65624 6.99609m.65625-6.9961l2.26562-.9453m-2.35937 1.96093l2.26562-.9414m11.33985-.05079l-1.04688 6.94922m1.04688-6.94922l2.3125-.8164"/><g clip-path="url(#Z)"><path fill="none" stroke="#000" stroke-linecap="round" stroke-linejoin="round" stroke-miterlimit="10" stroke-width=".5" d="M147.1211 385.50781l-6.2422 3.23047"/></g><path fill="none" stroke="#000" stroke-linecap="round" stroke-linejoin="round" stroke-miterlimit="10" stroke-width=".5" d="M147.1211 385.50781l2.01952 1.39453m11.51954-.85546l-6.69141 2.15234m6.6914-2.15235l1.75782 1.71094m-2.73047-1.39844l.8789.85547m13.03516-1.96875L167.66016 389m5.9414-3.7539l2.1289 1.21484m-2.99608-.66797l1.0664.60547m11.2539-2.60938l-2.21874 6.66797m2.21875-6.66797l2.42187-.40625m7.90625.77344l3.75781 5.9375m-3.7578-5.9375l1.21093-2.13281m11.25781 2.88281l5.44922 4.4336m-5.44922-4.4336l.47266-2.40625m.32031 3.05078l.23438-1.20312m11.79687 4.1953l6.42969-2.83983m-6.42969 2.83984l-1.92969-1.51563m14.9922-.46093l6.9375 1.11328m-5.9297-.95313l-.39843-1.16015m13.21875-.34375l5.91015 3.80078m-5.05078-3.2461l.10156-1.22265m17.10547 5.58984l-3.59375-6.03906m3.07031 5.16015l-.63671 1.04688m15.83593-1.64844l-6.3164-3.08203m5.39844 2.63281l.04296 1.22657m14.52344-1.9375l-6.98437-.76172m5.96875.65234l.45703 1.13672m13.09765-3.64063l-5.42968 4.46485m4.64062-3.8125l1.13281.46875m12.83594-1.27344l-5.16015 4.76953m5.16015-4.76953l2.3164.8125m11.76954.51953l-6.70313 2.10547m5.73047-1.80078l.8711.86328m13.29297-1.5039L340.5 388.51171m5.51563-2.375l.95703.76953m12.73437-2.07422l-5.33203 4.58203m18.72656-4.48437l-5.48828 4.38672m5.48828-4.38672l2.25.97265m8.95313-2.23437l-1.26563 6.91015m1.26563-6.91015l2.33594-.7461m-2.51954 1.75l1.16797-.37109m12.64453-.5625l-1.89453 6.76953m1.89453-6.76953l2.39454-.52344m-2.67188 1.50782l1.19922-.26172m13.35156-.28906l-3.8125 5.90234m3.8125-5.90235l2.44531.21094m-3 .64844l2.44532.20703m10.01953-1.59375l-1 6.95703m1-6.95703l2.30469-.83203m10.1289.8164l.76172 6.98829m-.76172-6.98828l2.02735-1.37891m-1.91797 2.39844l1.01562-.6914m12.55078-.34767l.03907 7.02735m-.03907-7.02735l2.16016-1.16406m-2.15234 2.1875l2.16015-1.16406m11.8789.21484l-1.42577 6.87891m1.42578-6.8789l2.35547-.6875m-2.5625 1.6875l1.17968-.34376"/><g clip-path="url(#aa)"><path fill="none" stroke="#000" stroke-linecap="round" stroke-linejoin="round" stroke-miterlimit="10" stroke-width=".5" d="M146.45703 371.29688l-4.91406 5.02343"/></g><path fill="none" stroke="#000" stroke-linecap="round" stroke-linejoin="round" stroke-miterlimit="10" stroke-width=".5" d="M146.45703 371.29688l2.35547.6914m11.69531.35547l-6.38672 2.92969m6.38672-2.92969l1.94922 1.49219m10.98438-2.13672l-5.6211 4.21875m5.6211-4.21875l2.21875 1.03906m-3.03907-.42578l1.11328.51953m11.52344-2.28125l-2.625 6.51563m2.625-6.51563l2.4375-.26172m9.10938.03516l.91015 6.96875m-.91015-6.96875l2-1.42188m10.70312 1.5586l2.13672 6.69531m-2.13672-6.69531l1.71094-1.75781m10.70703 2.1914l3.92969 5.82813m-3.92969-5.82813l1.15234-2.16406m10.625 5.34765l7.00391-.54296M234.72266 374l-.66016-1.03516m14.96484 4.02344l2.98828-6.35937m-2.55468 5.43359l-1.22656.0625m14.52343 1.02734l2.15625-6.6875m-1.84375 5.71485l-1.20703.21484m14.66016.8711l1.2539-6.91407m-1.07421 5.90625l-1.16797.375m15.14062.6836l-.42187-7.01563m.36328 5.99219l-1.04688.64062m17.22657-1.32421l-6.03125-3.60157m6.03125 3.60156l-.1211 2.44922m13.6836-5.55468l-6.52735 2.60937m5.57813-2.23047l.9375.79297m11.99218-2.80469l-3.85937 5.875m3.85937-5.875l2.44141.22657m10.50781-.4375l-3.125 6.29687m3.125-6.29687l2.45313-.06641m11.57422.53906l-4.55078 5.35156m4.55078-5.35156l2.39843.52344m11.8086.63281l-6.33594 3.03906m6.33594-3.03906L375.5 373.7461m-2.89844-1.01562l.98828.73047m13.09766-1.45313l-6.03125 3.60156m6.03125-3.60156l2.10156 1.26953m9.6875-2.65234l-2.98047 6.36328m2.98047-6.36328l2.45313-.1211m9.60547-.20312l-.46875 7.01172m.46875-7.01172l2.23828-1.0039m12.1836 1.26562l-2.6836 6.49219m2.6836-6.49219l2.4414-.23828m10.33984.0664l-1.61328 6.83594m1.61328-6.83594l2.375-.625m10.63672.56641l-1.00781 6.95313m1.00781-6.95313l2.3086-.83203m10.30078.80078l.40625 7.01563m-.40625-7.01563l2.09375-1.27734"/><g clip-path="url(#ab)"><path fill="none" stroke="#000" stroke-linecap="round" stroke-linejoin="round" stroke-miterlimit="10" stroke-width=".5" d="M144.25781 356.98828l-.51562 7.00781"/></g><g clip-path="url(#ac)"><path fill="none" stroke="#000" stroke-linecap="round" stroke-linejoin="round" stroke-miterlimit="10" stroke-width=".5" d="M144.1836 358.00781l1.12109-.49219"/></g><path fill="none" stroke="#000" stroke-linecap="round" stroke-linejoin="round" stroke-miterlimit="10" stroke-width=".5" d="M157.92969 357.03516l-1.23047 6.91796m1.05078-5.91406l1.16797-.375m13.14844-.3789l-2.8711 6.41406m2.8711-6.41406l2.44922-.16407m11.20312.33985l-3.55078 6.0625m3.03516-5.17969l1.22656.05078m9.02734-.91797l3.60938 6.03125m-3.60938-6.03125l1.26563-2.09765m12.35547 1.9375l2.99609 6.35546m-2.9961-6.35546l1.46875-1.96875m12.27344 1.79687l2.13672 6.69531m-2.13672-6.6953l1.71485-1.75392m-1.40235 2.73047l.85547-.8789m10.9961.52734l4.4414 5.44531m-4.4414-5.4453l.94921-2.26173m13.17578 8.20313l2.82422-6.4336m-2.82422 6.4336l-2.44921.1836m15.4453-.34376l3.46095-6.11719m-3.46094 6.1172l-2.45313-.06642M276 363.8125l2.30078-6.64063M276 363.8125l-2.42188.3789m18.84375-.78124l-3.91406-5.83594m3.34375 4.98828l-.57812 1.08203m15.8164-1.96484l-6.61718-2.3711m6.61718 2.3711l.35157 2.42578m12.49609-5.67969l-5.6836 4.13281m4.85548-3.53125l1.10546.53907m13.32422-.67188l-6.25781 3.19922m5.34766-2.73438l1.0078.70313m10.85938-2.9961l-1.53906 6.85548m1.53906-6.85547l2.36329-.65235m12.30859 1.28516l-4.2539 5.58984m3.63671-4.77734l1.21094.19531m12.33594-1.26562l-3.48047 6.10546m2.97265-5.21875l1.22657.03516M386.14453 358l-4.94922 4.98828M386.14453 358l2.35156.70703m-3.0703.01953l1.17577.35156m11.90235-1.7539l-3.03516 6.33594m3.03516-6.33594l2.45312-.10156M410.6797 357l-.75781 6.98438m.7578-6.98438l2.28126-.91016m10.49219.89454l.32421 7.01953m-.32421-7.01954l2.11328-1.25m12.05859 1.3125l-1.38672 6.89063m1.38672-6.89063l2.34766-.69921m9.62109.6953l1.3086 6.90235m-1.3086-6.90234l1.91406-1.53516m11.92188 1.47266l.26562 7.02344m-.26562-7.02344l2.1211-1.23047"/><g clip-path="url(#ad)"><path fill="none" stroke="#000" stroke-linecap="round" stroke-linejoin="round" stroke-miterlimit="10" stroke-width=".5" d="M141.7461 344.48047l4.5078 5.39453"/></g><path fill="none" stroke="#000" stroke-linecap="round" stroke-linejoin="round" stroke-miterlimit="10" stroke-width=".5" d="M155.01172 344.52344l4.60547 5.3086m-4.60547-5.3086l.8789-2.28906m-.20703 3.0625l.4375-1.14454m12.40235.21485l4.21094 5.625m-4.21094-5.625l1.04687-2.22266m-.4336 3.03906l.52345-1.10937m11.6328.79687l5.3047 4.61329m-5.3047-4.61329l.5547-2.39062m12.8789 2.26172l5.0664 4.8711m-4.32812-4.16017l.33594-1.17968m14.58594-.60547l.3789 7.01953m-.3789-7.01953l2.09766-1.26563m10.29687 1.44141L225 350.51172m-2.21875-6.66797l1.69531-1.77734m11.05469 2.02343l3.35156 6.17579m-3.35156-6.17579l1.35156-2.04687m14.97266 1.88672l-2.67188 6.4961m2.28516-5.55079l1.21875-.1211m8.1914 4.32423l5.91407-3.80079m-5.05469 3.2461l-1.07031-.59766m19.98437-1.02344l-7.0039.55079m20.15234.83593l-6.66797-2.22265m5.69532 1.89843l.20312 1.21094m14.2539-2.24219l-7.0078.48829m7.0078-.48829l1.30079 2.08204m11.64844-.25391l-6.27735-3.16797m5.36328 2.70703l.02735 1.22656m9.78906.92579l2.54687-6.55079m13.125-.0664l-2.16406 6.6836m1.84766-5.71095l1.20703-.21484m14.0625.35938l-5.4414 4.44921m5.4414-4.44921l2.26172.94921m11.21094-.73828l-5.75782 4.02735m4.92188-3.44141l1.08984.55469m13.58594.0039l-6.8086 1.73829m5.82032-1.48438l.82422.90625m12.45312-2.8789l-4.7539 5.17577m4.0625-4.42187l1.1875.3086m12.47656-1.33985l-4.07031 5.73047m4.0703-5.73047l2.4336.3164m9.16406-.94921l-.6328 6.9961m.6328-6.9961l2.26172-.95313m11.46485 1.01563l-1.45703 6.8711m1.45703-6.8711l2.35937-.67578m9.02735.80859l2.40234 6.60547m-2.40234-6.60547l1.64062-1.82031m12.90234 1.60937l-.05859 7.02735m.05078-6.00391l1.08985-.5664"/><g clip-path="url(#ae)"><path fill="none" stroke="#000" stroke-linecap="round" stroke-linejoin="round" stroke-miterlimit="10" stroke-width=".5" d="M141.0664 331.92578l5.8672 3.875"/></g><path fill="none" stroke="#000" stroke-linecap="round" stroke-linejoin="round" stroke-miterlimit="10" stroke-width=".5" d="M154.3164 332.03516l6 3.65625m-6-3.65625l.14063-2.44922m.73047 2.98047l.14453-2.44922m12.30469 1.90625l5.98437 3.67969m-5.98437-3.6797l.15625-2.44921m.71484 2.98437l.15625-2.44921m12.30469 1.88671l5.95313 3.73438m-5.95313-3.73438l.17578-2.44921m.6914 2.99218l.08595-1.22265m12.41406.60156l5.85156 3.89062m-5.85156-3.89062l.23828-2.4414m.61328 3.0078l.11719-1.22265m11.89062 1.64062l6.75781 1.92188m-5.77343-1.64063l-.25781-1.20312m12.48046 1.47656l6.97657.8125m-5.96094-.69531l-.44922-1.14453m12.78906.75781l6.89453 1.35156m-6.89453-1.35156l-.71484-2.34766m14.1836 1.79688l6.58593 2.45312m-6.58594-2.45312l-.32031-2.4336m13.64453 2.41016l6.57031 2.5m-5.61328-2.13672l-.15234-1.21484m13.24219-.3086l5.10937 4.82032m-4.36719-4.1211l.32422-1.18359M288 331.35938l4.9336 5.0078m14.08593-1.14452l-6.47656-2.71875m5.53516 2.32421l.11328 1.22266m11.72656 1.22656l-1.64453-6.82812m1.40625 5.83594l-.91797.8125m10.34375-2.04297l6.60937-2.38281m-5.64843 2.03515l-.90625-.82422m13.59765 1.85938l5.9375-3.75781m10.98828-1.57422l-1.28515 6.90625m17.46484-3.25782l-7.01562-.39062m5.99609.33203l.51563 1.11719m13.05468.94531l-5.48437-4.39844m4.6836 3.75781l-.22657 1.20313m9.85547-5.8125l3.48828 6.10156m9.76172-6.0625l3.61719 6.02344m-3.08985-5.14844l.63281-1.05078m12.26954.10938l3.39062 6.15625m-2.89844-5.26172l.67188-1.02735m13.25781-.2539l1.17578 6.92969m-1.0039-5.92188l.97265-.75m12.19531-.26172l1.125 6.9375m-.96093-5.92969l.97656-.73828m14.4961.15625l-3.51563 6.08594"/><g clip-path="url(#af)"><path fill="none" stroke="#000" stroke-linecap="round" stroke-linejoin="round" stroke-miterlimit="10" stroke-width=".5" d="M465.32031 330.82031l2.45313.08985"/></g><g clip-path="url(#ag)"><path fill="none" stroke="#000" stroke-linecap="round" stroke-linejoin="round" stroke-miterlimit="10" stroke-width=".5" d="M141.02344 318.67969l5.95312 3.73437"/></g><path fill="none" stroke="#000" stroke-linecap="round" stroke-linejoin="round" stroke-miterlimit="10" stroke-width=".5" d="M154.35938 318.64844l5.91015 3.80078m-5.91016-3.80078l.20313-2.44531m12.84375 2.94921l6.44922 2.78907m-6.44922-2.78907l-.19922-2.4453m13.54688 2.375l6.3828 2.93358m-6.3828-2.93359l-.14453-2.45312m13.35937 2.6875l6.58203 2.46484m-5.625-2.10547l-.15625-1.21875m12.85156 3.9961l5.90625-3.8086m-5.04687 3.2539l-1.07031-.59765m13.08203.14063l6.79687-1.78516m-6.79687 1.78516l-1.66406-1.80079m14.86718 1.07422l7.01953-.33593m-5.99609.28906l-.6289-1.05469m12.92577.70313l7.01172.46484m-7.01172-.46484l-1.0078-2.23829m14.38671 3.1797l6.88281-1.42188m-6.8828 1.42187l-1.56641-1.88672m14.9375 2.11329l6.76953-1.875m-5.78516 1.60156l-.84375-.89063m13.67969 2.23828l5.76172-4.02343m7.8789 4.42578l5.10547-4.82813m-4.36328 4.125l-1.16016-.39062m14.5625 1.74219l3.44922-6.1211m-3.44922 6.1211l-2.45312-.0586M330 324.03906l.82422-6.98047m-.70703 5.96485l-1.14063.4414m16.51172.1211l-3.52734-6.07813m3.01562 5.19531l-.64844 1.04297m14.0547-6.4453l-2.6836 6.49608m17.03515-5.83593l-4.7539 5.17578m18.875-1.10156l-6.36719-2.97266m5.4414 2.53906l.0625 1.22656m14.22657-3.65234l-6.46484 2.7461m5.52734-2.34766l.95313.77344m12.10156-2.66407l-4.07031 5.73047m4.0703-5.73047l2.4336.31641m9.10938-.95703l-.52735 7.00781m.52735-7.00781l2.24609-.98438m7.29297 4.53125l7.02734-.08203m13.125-1.09375l-6.64844 2.26953m5.6836-1.9414l.89453.83984m12.69922-2.35547l-5.27735 4.64063"/><g clip-path="url(#ah)"><path fill="none" stroke="#000" stroke-linecap="round" stroke-linejoin="round" stroke-miterlimit="10" stroke-width=".5" d="M466.19922 318.22656l2.29687.86719"/></g><path fill="none" stroke="#000" stroke-linecap="round" stroke-linejoin="round" stroke-miterlimit="10" stroke-width=".5" d="M465.4336 318.90234l1.14843.4336"/><path fill="#00f" fill-rule="evenodd" d="M388.23828 472.08594h8.61719V461.9414h-8.61719v10.14453"/><path fill="azure" fill-rule="evenodd" d="M390.07031 463.77344h.83594v2.82422h3.28516v-2.82422h.83203v6.48047h-.83203v-2.91797h-3.28516v2.91797h-.83594v-6.48047"/><path fill="#00f" fill-rule="evenodd" d="M383.80078 436.57813h8.61719v-10.14454h-8.61719v10.14454"/><path fill="azure" fill-rule="evenodd" d="M385.63281 428.26563h.83203v2.82421h3.28907v-2.82421h.83203v6.48046h-.83203v-2.91406h-3.28907v2.91406h-.83203v-6.48046"/><path fill="#00f" fill-rule="evenodd" d="M219.58203 418.82813h8.61719v-10.14844h-8.61719v10.14844"/><path fill="azure" fill-rule="evenodd" d="M221.41406 410.51172h.83203v2.82422h3.28907v-2.82422h.83203v6.48047h-.83203v-2.91406h-3.28907v2.91406h-.83203v-6.48047"/><path fill="#00f" fill-rule="evenodd" d="M370.48438 401.07422h8.62109v-10.14844h-8.6211v10.14844"/><path fill="azure" fill-rule="evenodd" d="M372.3164 392.76172h.83594v2.82031h3.28516v-2.82031h.83203v6.47656h-.83203v-2.91406h-3.28516v2.91406h-.83593v-6.47656"/><path fill="#ff3030" fill-rule="evenodd" d="M335.67188 396.63281h7.6953v-10.14453h-7.6953v10.14453"/><path fill="azure" fill-rule="evenodd" d="M337.5039 388.32031h.83594v5.74219h3.19141v.73828h-4.02734v-6.48047"/><path fill="#ff3030" fill-rule="evenodd" d="M255.78125 361.1289h7.69531v-10.14843h-7.69531v10.14844"/><path fill="azure" fill-rule="evenodd" d="M257.61719 352.8164h.83203v5.73829h3.1914v.73828h-4.02343v-6.47656"/><path fill="#ffffe0" fill-rule="evenodd" d="M416.41797 419.0586h22.1836v-10.19141h-22.1836v10.1914"/><path fill-rule="evenodd" d="M419.91797 410.69922h.51172v6.29297h-.78906v-4.48828h-1.38672v-.5547l.55859-.0664.2539-.05469.22657-.08984.20312-.14062.17579-.21094.14062-.29297.10547-.39453m4.8164 0l.22657.01953.21875.05469.21094.08984.1953.1211.1836.14843.17188.17578.30078.41797.24219.4961.17968.54687.11328.57813.03907.58984-.03907.59375-.11328.58594-.17969.55469-.24218.5-.30078.42968-.17188.17969-.1836.15234-.1953.1211-.21094.09375-.21875.0586-.22656.01952-.23047-.01953-.21875-.0586-.20704-.09374-.19921-.1211-.1836-.15234-.17187-.17969-.30078-.42969-.2422-.5-.17968-.55468-.11328-.58594-.03906-.59375h.83594l.02734.5625.08203.50781.125.4414.16406.375.1914.30079.21095.22266.22265.13671.22656.04688.22657-.04688.22265-.13671.20704-.22266.1914-.30078.16406-.375.125-.4414.08204-.50782.02734-.5625-.02735-.5586-.08203-.5039-.125-.4336-.16406-.36718-.1914-.28906-.20704-.21485-.22265-.13281-.22656-.04297-.22657.04297-.22265.13281-.21094.21485-.1914.28906-.16407.36719-.125.43359-.08203.5039-.02735.5586h-.83593l.03906-.58984.11328-.57813.17969-.54687.24219-.4961.30078-.41797.17187-.17578.1836-.14844.19921-.12109.20704-.08984.21875-.05469.23046-.01953m4.94922 0l.23047.01953.21875.05469.20703.08984.19922.1211.1836.14843.17187.17578.30078.41797.24219.4961.17969.54687.11328.57813.03906.58984-.03906.59375-.11328.58594-.17969.55469-.24219.5-.30078.42968-.17187.17969-.1836.15234-.19922.1211-.20703.09375-.21875.0586-.23047.01952-.22656-.01953-.21875-.0586-.21094-.09374-.1953-.1211-.1836-.15234-.17188-.17969-.30078-.42969-.24219-.5-.17968-.55468-.11329-.58594-.03906-.59375h.83203l.03125.5625.08204.50781.125.4414.16406.375.1875.30079.21094.22266.22265.13671.22656.04688.22657-.04688.22265-.13671.21094-.22266.1914-.30078.16407-.375.125-.4414.08203-.50782.02734-.5625-.02734-.5586-.08203-.5039-.125-.4336-.16406-.36718-.19141-.28906-.21094-.21485-.22265-.13281-.22657-.04297-.22656.04297-.22265.13281-.21094.21485-.1875.28906-.16406.36719-.125.43359-.08204.5039-.03125.5586h-.83203l.03906-.58984.11329-.57813.17968-.54687.2422-.4961.30077-.41797.17188-.17578.1836-.14844.1953-.12109.21094-.08984.21875-.05469.22656-.01953m4.95313 0l.38672.02734.35937.08203.32422.13672.27735.1875.23046.23828.17579.28516.10546.33203.03907.375-.01954.27735-.05859.23437-.08594.19922-.11328.17187-.1289.14063-.14063.125-.28515.19531.23046.11719.20704.14844.18359.17187.15234.1914.125.21485.08985.23047.05468.24219.01954.25781-.03516.3086-.10156.32812-.17188.32422-.23828.30469-.3086.26953-.375.21484-.21093.08203-.22656.0586-.2461.03906-.26172.01562-.2578-.01562-.2422-.03906-.22265-.0586-.20703-.08203-.35938-.21484-.28906-.26954-.22266-.30468-.15625-.32422-.09375-.32813-.03125-.30859h.83594l.02344.2539.07812.23438.125.21094.16016.1875.1914.14844.21875.11718.2422.07032.2539.02734.25781-.02734.23828-.07032.21875-.11718.19531-.14844.16016-.1875.1211-.21094.07812-.23437.02734-.25391-.02734-.2539-.07813-.23438-.12109-.21094-.16015-.1875-.19532-.15234-.21875-.11328-.23828-.07422-.25781-.02344-.2539.02344-.2422.07422-.21875.11328-.1914.15234-.16016.1875-.125.21094-.07812.23437-.02344.25391h-.83594l.01953-.2539.0547-.23829.09374-.22656.1211-.20703.15625-.1914.17968-.17188.20703-.15235.23438-.1328-.28906-.19532-.13672-.125-.1289-.14063-.11329-.17187-.08984-.19922-.0547-.23438-.02343-.27734h.78906l.02344.21485.0664.1914.10157.16797.13672.14063.16797.10937.1875.08203.20703.05078.21875.01563.22265-.01563.20704-.05078.1875-.08203.16406-.10938.13672-.14062.10547-.16797.0664-.1914.02344-.21485-.02344-.21484-.0664-.1875-.10547-.16797-.13672-.14063-.16406-.10937-.1875-.08203-.20704-.05078-.22265-.01563-.21875.01563-.20703.05078-.1875.08203-.16797.10937-.13672.14063-.10156.16797-.0664.1875-.02345.21484h-.78906l.03906-.375.10938-.33203.17187-.28516.23047-.23828.28125-.1875.32031-.13672.35938-.08203.38672-.02734"/><path fill="#ffffe0" fill-rule="evenodd" d="M161.5664 396.86719h22.1797v-10.1914h-22.1797v10.1914"/><path fill-rule="evenodd" d="M165.0625 388.50781h.51172v6.29297h-.78906v-4.48828h-1.38672v-.55469l.5586-.0664.2539-.0547.23047-.08983.20312-.14063.17188-.21094.14062-.29297.10547-.39453m4.8164 0l.22657.01953.22266.0547.20703.08983.1953.1211.1836.14844.17188.17578.30078.41797.2461.49609.17968.54688.10938.57812.03906.58984-.03906.59375-.10938.58594-.17969.55078-.2461.5039-.30077.4297-.17188.17578-.1836.15625-.1953.1211-.20703.09374-.22266.05469-.22656.01953-.23047-.01953-.21875-.05469-.20703-.09375-.19922-.1211-.1836-.15624-.17187-.17578-.30078-.4297-.24219-.5039-.17969-.55078-.11328-.58594-.03516-.59375h.83204l.02734.5625.08203.50782.125.4414.16406.375.19141.30078.21094.22266.22265.13672.22657.04687.22656-.04687.22266-.13672.21093-.22266.1914-.30078.16017-.375.125-.4414.08203-.50782.03125-.5625-.03125-.55859-.08203-.5039-.125-.4336-.16016-.36719-.1914-.29297-.21095-.21093-.22265-.13282-.22656-.04687-.22657.04687-.22265.13282-.21094.21093-.1914.29297-.16407.36719-.125.4336-.08203.5039-.02734.5586h-.83203l.03515-.58985.11328-.57813.17969-.54687.24219-.4961.30078-.41796.17187-.17578.1836-.14844.19922-.1211.20703-.08984.21875-.05469.23047-.01953m5.08984 0h.51172v6.29297h-.78906v-4.48828h-1.38672v-.55469l.5586-.0664.25-.0547.23046-.08983.20313-.14063.17578-.21094.14062-.29297.10547-.39453m2.82422 2.17578h.78516l.01953-.3164.0625-.28906.09765-.25.14063-.21485.17969-.17578.22265-.1289.26563-.07813.30859-.03125.23828.02344.22266.0625.20703.10156.17578.13672.15234.17578.10938.20312.07422.23829.02344.26562-.01954.26563-.0664.22656-.10938.1914-.15625.17188-.19922.16015-.25.16797-.6328.38672-.53907.3164-.4375.31642-.34375.32421-.26563.33594-.1914.35156-.125.3672-.0664.39452-.02345.41797h4.21485v-.73828h-3.33203l.08203-.28516.11328-.23828.14844-.19922.1875-.17968.23047-.17188.27734-.17578.71875-.41797.41406-.20312.34766-.23438.27734-.25.22266-.26562.16406-.27735.10938-.28515.0625-.28516.02343-.28125-.04297-.38281-.12109-.34766-.1875-.3086-.25-.26171-.30469-.21485-.34375-.15625-.38281-.10156-.40625-.03125-.4336.03125-.39843.09766-.35547.16797-.30469.23437-.25.30469-.1836.375-.11718.44531-.03906.51953"/></g></defs><use xlink:href="#ai"/></svg>