<svg xmlns="http://www.w3.org/2000/svg" role="img" xmlns:xlink="http://www.w3.org/1999/xlink" viewBox="142.45 309.95 326.84 171.84"><defs><clipPath id="a"><path d="M144 311.67188h1v168.65625h-1zm0 0"/></clipPath><clipPath id="b"><path d="M144 311.67188h324v168.65625H144zm0 0"/></clipPath><clipPath id="c"><path d="M221 479h5v1.32813h-5zm0 0"/></clipPath><clipPath id="d"><path d="M397 473h8v7.32813h-8zm0 0"/></clipPath><clipPath id="e"><path d="M399 475h4v5.32813h-4zm0 0"/></clipPath><clipPath id="f"><path d="M467 311.67188h1v168.65625h-1zm0 0"/></clipPath><clipPath id="g"><path d="M144 479h4v1.32813h-4zm0 0"/></clipPath><clipPath id="h"><path d="M147 480h2v.32813h-2zm0 0"/></clipPath><clipPath id="i"><path d="M153 479h9v1.32813h-9zm0 0"/></clipPath><clipPath id="j"><path d="M160 480h3v.32813h-3zm0 0"/></clipPath><clipPath id="k"><path d="M166 479h9v1.32813h-9zm0 0"/></clipPath><clipPath id="l"><path d="M173 480h2v.32813h-2zm0 0"/></clipPath><clipPath id="m"><path d="M180 479h8v1.32813h-8zm0 0"/></clipPath><clipPath id="n"><path d="M193 479h8v1.32813h-8zm0 0"/></clipPath><clipPath id="o"><path d="M200 480h2v.32813h-2zm0 0"/></clipPath><clipPath id="p"><path d="M206 479h9v1.32813h-9zm0 0"/></clipPath><clipPath id="q"><path d="M213 480h2v.32813h-2zm0 0"/></clipPath><clipPath id="r"><path d="M220 479h8v1.32813h-8zm0 0"/></clipPath><clipPath id="s"><path d="M227 480h2v.32813h-2zm0 0"/></clipPath><clipPath id="t"><path d="M233 479h8v1.32813h-8zm0 0"/></clipPath><clipPath id="u"><path d="M240 480h2v.32813h-2zm0 0"/></clipPath><clipPath id="v"><path d="M246 479h9v1.32813h-9zm0 0"/></clipPath><clipPath id="w"><path d="M253 480h3v.32813h-3zm0 0"/></clipPath><clipPath id="x"><path d="M260 479h8v1.32813h-8zm0 0"/></clipPath><clipPath id="y"><path d="M267 480h2v.32813h-2zm0 0"/></clipPath><clipPath id="z"><path d="M274 477h7v3.32813h-7zm0 0"/></clipPath><clipPath id="A"><path d="M289 476h3v4.32813h-3zm0 0"/></clipPath><clipPath id="B"><path d="M303 476h2v4.32813h-2zm0 0"/></clipPath><clipPath id="C"><path d="M315 476h4v4.32813h-4zm0 0"/></clipPath><clipPath id="D"><path d="M329 476h3v4.32813h-3zm0 0"/></clipPath><clipPath id="E"><path d="M340 478h8v2.32813h-8zm0 0"/></clipPath><clipPath id="F"><path d="M354 477h6v3.32813h-6zm0 0"/></clipPath><clipPath id="G"><path d="M367 477h6v3.32813h-6zm0 0"/></clipPath><clipPath id="H"><path d="M380 479h8v1.32813h-8zm0 0"/></clipPath><clipPath id="I"><path d="M393 479h8v1.32813h-8zm0 0"/></clipPath><clipPath id="J"><path d="M406 479h9v1.32813h-9zm0 0"/></clipPath><clipPath id="K"><path d="M406 479h3v1.32813h-3zm0 0"/></clipPath><clipPath id="L"><path d="M419 479h9v1.32813h-9zm0 0"/></clipPath><clipPath id="M"><path d="M420 479h2v1.32813h-2zm0 0"/></clipPath><clipPath id="N"><path d="M435 476h4v4.32813h-4zm0 0"/></clipPath><clipPath id="O"><path d="M449 476h3v4.32813h-3zm0 0"/></clipPath><clipPath id="P"><path d="M462 476h3v4.32813h-3zm0 0"/></clipPath><clipPath id="Q"><path d="M144 465h4v4h-4zm0 0"/></clipPath><clipPath id="R"><path d="M144 451h4v5h-4zm0 0"/></clipPath><clipPath id="S"><path d="M144 438h4v5h-4zm0 0"/></clipPath><clipPath id="T"><path d="M144 425h4v4h-4zm0 0"/></clipPath><clipPath id="U"><path d="M144 412h4v3h-4zm0 0"/></clipPath><clipPath id="V"><path d="M465 410h3v2h-3zm0 0"/></clipPath><clipPath id="W"><path d="M144 397h3v7h-3zm0 0"/></clipPath><clipPath id="X"><path d="M144 384h4v6h-4zm0 0"/></clipPath><clipPath id="Y"><path d="M144 371h4v5h-4zm0 0"/></clipPath><clipPath id="Z"><path d="M144 357h3v7h-3zm0 0"/></clipPath><clipPath id="aa"><path d="M144 343h2v8h-2zm0 0"/></clipPath><clipPath id="ab"><path d="M144 341h2v4h-2zm0 0"/></clipPath><clipPath id="ac"><path d="M144 331h4v5h-4zm0 0"/></clipPath><clipPath id="ad"><path d="M466 331h2v2h-2zm0 0"/></clipPath><clipPath id="ae"><path d="M144 319h4v3h-4zm0 0"/></clipPath><clipPath id="af"><path d="M466 318h2v2h-2zm0 0"/></clipPath><g id="ag" clip-path="url(#clip1)"><path fill="#fff" fill-opacity="0" fill-rule="evenodd" d="M0 0h1000v1000H0zm0 0"/><path fill="#d3d3d3" fill-opacity="0" fill-rule="evenodd" d="M162.15234 355.86719l-.23437.29297.0586.23437.11718.17188.17578.23437.29297.34766.11328.0586.11719-.17188.0586-.23438.17577-.17578.46485-.17578h.69922l.23437.29297.28906.8164.0586.17579.17578.23046.35156.23438.69922.69922.17188.17578.23437.34765.23438.41016.28906.58203.41015.46485.23047.23437.23438.17578.11719.23047.17578.29297.17187 1.16406v.23438l.0586.28906.05859.11719.11719.11719.34765.41015.11719.17188.17578.17578.17578.23437.11719.17188.17188.35156.05859.23438.23437.40625.23438-.0586-.17578.17578-.0586.92969h-.58203l-.23437-.11328-.34766.11328-.11719.11719-.05859.29297-.0586.17578-.11718.17187-.46484.29297-.0586.23438-.0586.11328v.64453l.0586.17187v.41016l.0586.0586v.40624l.05859.40625.11719.17579.05859.05859.23047.64062-.0586.29297v.69922l-.05859.58203v.23438l-.0586.23047-.05468.35156v1.92187l.05469.1172h.42578l-.36719.11718-.02344.35156.89063 1.16797 1.74219.53906 1.33984.35938v.53906l.08984.8086.53516.71484 1.51953.26953.89063-.08594.08984 1.16406.53516.1797 1.16015-.1797 2.05469-.98437 1.16016-.36328 1.8789-.17578 1.69531-.1797-.17968.71876-1.51563.08594-1.25.08984-.80469.26953-1.07421.8086.26953.71875.53515.89843-.17968.625-.26563.8086.26563 1.07812.625.89844.80468.17969 1.25-.1797-.26562.72267.09766.5039.05468.29297v.17188l.0586.29296v.40625l.17578.1172.35156.11718h.40625l.29297-.17578.11328-.11719.0586-.11719.11718-.23047.0586-.17578.35156-.46484.23047-.17578.17578-.0586.17578.0586.0586.17578.11718.98828.05469.46875.0586.17188.11718.23437.17578.0586.8164.05859h.28907l.11719.23437.05859.40625.0586.35156v1.10547l.11718.29297.11719.34766.28906.69922.17578.35156.58203.7539.35157.17579.17187.0586.46875.23437.64063.46484.34765.23438.29297.17578.29297.05468.23047.0625.8164.34766.29297.17578.11328.17188.35157.35156.11719.17578.52343.64063v.28906l.0586.35156v.34766l.05859.35156.0586.28906.11718.0586.17188.05859h.17578l.58203.23437.17578.1172.17578.28905.17578.23438.11328.23437.29297.23047.11719.11719v.41016l.0586.05468.28906.23438.23437.11719.0586.11718.11718.17188.0586.11719.23047.23437.05859.17578.23437.0586.1172.05859-.1172.11328-.05859.11719v.11719l-.11719.29296-.11719.28907v.58203l.17579.11719.11718.05859.0586.11719.11719.11719.11328.05859.17578.34765.0586.35157.05858.40625v.17578l-.05859.17578-.11719.69922v.17187l.1172.17579.29296.29296h.40625l.17578.1172.11719.17187.11719.29296v.23438h-.52735l-.23047-.23438h-.23437l-.17578.0586-.0586.69922.0586.34765.11719.17579.17578.41015.11718.23047.28907.46875.17578.05469h.52344l.23437.0586.75781.64062.0586.29296v.23438l.05859.0586.23047.34765v.35156l-.11719.17188v.29297l.29297.28906.29297.17578.17187.0586.29297.17577.29297.1172.58203.40624.28906.23438.29297.17578.21875.16015.01563.01172.23047.17579.64062.52343.17578.23438.1172.17578.17577.17578.11328.17188v.64062l.1172.17578.46874.11719.58203.11719.23438.05859.23047.11328.29297.11719.11328.0586.58593.35156.28907.17187.17578.0625.17578.05469.17578.0586.69922.35155.28906.17579.23438.05468.28906.17578.23437.1172.64063.40624.29297.11719.17187.0586.23438.05859.41015.05859.23047.0586.23438.11718.0586.17188-.41017.17578.46875.0586.0586.29296.11328.23438.17578.05468.23438.0586.17578.05859.40625.11719.64062.23437.11719.17188.0586.23437v.17578l-.0586.1172-.0586.40624.23438.23438.11719.05859.34766.11719.64062.23047.17578.11718.28906.1172.17578.17577.23438.46485.58203 1.10546.17578.17579.34766.17578.17578.11719.35156.11718 1.04688.52344.23437.0586.46485.11327.29297.0586.46484.17578.75781.58203.23438.23438.34765.46484.17578.17578.28907.23438.8164.69921.29297.17579.28906.28906.29297.17578.29297.28906.69531.64063.17578.17578.29297.23437.28907.23438.46875.28906.64062.58203.34766.23438.23437.29297.34766.34765.35156.46485.9336.99218.34765.40625.11719.17579.23437.05859.11328.11719.64454.17578.23047.11328.23437.0586.29297.17577.23047.1172.9336.69921.40624.40625.23438.17578.40625.17578.23437.11719.8164.34766.34766.23437.23438.11719.29297.28906.23047.11719.7578.35156.35157.17188.23047.05859.29297.11719.23437.0586.8711.17577h.8164l.46875.23047.17188.0586.875.69921.46484.1172.29297.05858.17578.0586.23047.0586.46875.05859.34766.05859.35156.0586.40625.05859h.29297l.17187.0586v.23046l.17578.17578h.29297l.34766.0586.35156.05859.69922.11719h.64063l.46484-.23438.29297-.17578.17187-.11719.41016-.17187.28906-.17578.9336-.46485.46875-.29297.52343-.29296.46485-.17188.46484-.17578 1.05078-.46485.28906-.11718.41016-.11719.28906-.11719.52735-.17578 1.51562-.69922.58203-.34765.28907-.0586.29297-.0586.34765-.11718.875-.23047.35156-.11719h.11329l.23437-.05859.875-.23437.23438-.0586h.8125l.35156-.0586.8164-.11718.17188-.0586.35156-.05468.29297-.0586.23047-.05859.8164-.17578.17579-.0586h.34765l.23438-.05859.46484-.11718.75781-.17188.23438-.0586h.34765l.41016-.11718.28906-.0586 1.28516-.05859h.28906l.41016-.0586.23047-.05858h.17578l.875-.1172h.40625l.41015-.11718h.34766l.35156-.11328.8711-.0586h1.75l1.04687.28907.41016.11719.28906.11718.35156.11719.28907.11719 1.05078.17187.28906.0586h.29297l.29297.05859.17187.0586.41016.05859.17187.0586.1172.05858h.11718l.11719.0586.35156.0586h.11328l.41016.0664 1.92187.39453 1.92578.39453 1.51953.44922 1.69532.71875 2.14453.80469 1.60547-.71875 1.42968-.80469 1.16016-1.07813 1.25-.44921 3.03516-.71875 1.875-.35938 2.14453-1.34765 2.23437-1.25391 2.5-1.25781 1.69531-.44922 1.78516-.17969 1.16016-.26953.625.53906 1.33984-.26953.71485-.98828.98437-1.34375.44531-.17969.80469-.35937 1.875-.53907 1.78516-.44921 1.25-.26954 1.16015-.08984 1.69922-.08984 1.96094-.26954 1.25-.08984h.53906l.625-.08984h.89063l2.14453-.17969 2.41015-.17969 2.58985-.08984 1.69531.17969 1.60938.08984 1.42968.35938 1.16016.71875 1.875.98828 1.16015 1.52734.26563.71484.6289.08985.35548.89844.53515.53906.53516 1.52734 1.07422.35938h.53515l-.80469.53515.08985 1.70703.71484 2.69532.89063.80468.89453.98829.71484 1.2578 1.78516.53907 1.51953-.17969.35547 1.34375 1.60937-.80469.98047-.53906.26953.26953.31641-.21484.21875-.14453.80078.44922.44922-.35938h.35547l.53515-.26953.53907-.71875.53515-.26953.625-.98828 1.16016.44922.83984.3711 1.39454.61718 1.6953-.17969h1.60548l1.78515.08985.17969-1.70704.53516-1.34375.80468.26954.4922.84765.40233.40625-.08984.53906v.35938l.71485.44922.71093-.26953h1.42969l.35938.98828.4453 1.25781.71485 1.34375 1.25.6289 1.69531.62891.71485-.17969.17969-.53906.98046-.08984.44922.35937.08594 1.25782-.26563.6289-.53515.17969v.53906l.71484.98438.26563.53906.98437.98828.80078 1.07813-.26562.35937-.08985.89844-.625 2.33203-.35546 2.0664-.08985 1.79298-.17969.71875-.08984.53906v1.4375l-.98047 1.88281-.35937 1.70703-.53516.89844-.80469 1.16797-.26562.53906 2.05469 1.2539.08593.35938-.35546.53906-.08985-.17968v.80859l.08985 1.4375-.44532.71484-1.07422.09375-.26562.71485.53515.89844.8047.71875 1.16015.80859 1.33984.26953.44531.35938-.35546.44921-1.78907-.08984-1.25-.44922-.71484-.71875-.625-.08984-.17578 3.58984-.1875 1.3086h89.35937V311.70313h-55.26953v49.08203l.76172.125 3.28906.54296 2.02344 2.83594v2.7539l2.35156.33204 2.34766.33203h4.05078l-1.3789 4.16016-2.02344.70703-2.02344.70312-.54297.34375-2.59375 1.6172-.1875.11718-2.02344-2.07813-.73046-2.74218-2.67188-2.07813-1.375-3.5-.0664-.08203-1.95704-2.67188 2.75-1.41796v-49.08204H294.42187v91.41407l.1172.03125.1328.01172.07422.07421.10547.04688.08985.0586.08593.05859.08985.0586.29687.29687.0586.08984.03125.11719.02734.11719.01563.13671-.03125.1172-.0586.08983-.0586.08594-.04296.10547-.04688.10156-.02734.1211v.14453l.17578.26953.14844.14844.07422.08594.07422.07421.04296.10547.0625.08985.0586.08593.04297.10547.0586.08985.04687.10156.04296.10547.0586.08594.11719.17968.07421.07422.0625.08594.0586.08984.04297.10547.0586.08985.05858.08593.0625.08985.0586.08984.04297.10156.11719.17969.07421.07422.0586.08594.07422.07421.08984.0586.10547.04687h.14844l.1328-.01562.13282.01562.10156-.04687.07422-.07422.04688-.10156-.01563-.13281v-.14844l-.04687-.10547-.02735-.11719-.04687-.10156-.02735-.1211-.04296-.10156-.0625-.08984-.04297-.10156-.04297-.10547-.03125-.11719-.01563-.13281-.01171-.13672.08593-.0586.0586-.08593.12109-.03125.04297.10547.01562.1328v.1172l.0586.10156.0586.08984.08983.0586.14844.14843.0586.08985.04296.10547-.01171.10156.08593.0586.10547.04687.08594.0586.08984.05858.07422.07422-.11719.02735-.10546.04687-.08594.0586-.07422.07421-.0586.08985-.0625.08594-.02734.12109-.04687.10156-.04297.10547-.03125.11719-.01172.13281-.01563.13281v.14844l.02735.11719.04687.10547.04297.10156.0586.08984.07421.07422.08985.0586.07422.07421.08984.0586.0586.08984.04296.10547.04688.10156.11719.03125.1328.01563h.14845l.11718-.03125.10547.04297.04297.10547.04688.10156.02734.1211L299.5 410l.02734.11719.03125.1211.02735.11718.10547.04297.10156.04687.13281-.01562.14844.14844.0625.08593.07422.07422.07031.07422.08984.0625.10547.04297.10156.04297.1172.03125.13671.01562.11719-.03125.07422-.07422.02734-.11718-.01172-.13282-.03125-.12109-.02734-.11719.04297-.10547h.11719l.08984.0625.11719.02735h.14843l.13282.01562h.14843l.13282.01563.1328-.01563h.14845l.1328-.01562.13282-.01172.13672.01172.11719-.02735.13281-.01562.1914-.0586-.05859.17579-.01562.1328-.02735.1211-.01562.13281-.0586.08594-.1328.01563-.10548.04687-.10546.04297-.1172.03125-.11718.02735-.26563.03125h-.14843l-.13281.01562-.07422.07422.05859.08594.14844.14843.11719.1797.07421.0703.08985.0625.08984.0586.08594.0586.08984.05858.10156.04297.10547.0625.10547.04297.08594.0586.10547.04687.10156.04297.17969.11719.0586.08984-.04298.10156-.04687.10547.01562.13281.22266.22266.0586.08985.04296.10156.03125.1211.04297.10155.01563.13282.03125.11718.01171.13672.03125.11719.14844.14844.10156.04297.10547.04296.1172.03125.1328.01563.13672.01563h.11719l.11719-.03125.08984-.0586.04297-.10547.04688-.10156.04296-.10547.03125-.11719.01172-.1328v-.14845l-.01172-.1328-.01562-.13282-.03125-.11719-.04297-.10547-.04688-.10547-.04296-.10156-.04297-.10547-.01563-.13281.01563-.13281.02734-.11719.03125-.11719.02735-.1211.04687-.10155.08984-.0586.08594-.0625.07422-.07422.08984-.05859.22266-.22266.0586-.08593.07421-.07422.11719-.17969.0586-.08594v-.14844l-.07423-.07421-.10156-.04688-.10547-.04297-.10156-.04297-.0586-.08984-.04687-.10547-.02734-.11719.08984-.05859.11719-.03125.10156-.04297.17969-.11719.14844-.14843.01172-.13282-.01172-.10546-.08985-.0586-.1328.01563h-.14845l-.1328.01562-.13282-.01562-.1211-.03125-.08593-.0586-.07422-.07422-.0586-.08984-.0625-.08594-.11718-.17969-.0586-.08593.03125-.1211.08594-.05859.1211-.03125.05859-.08594v-.1211l-.03125-.11718-.0586-.08984-.05859-.08594-.04687-.10547-.02735-.11719-.01562-.1328.0586-.08985.07421-.07422.08984-.0586.1172-.17968.07421-.07422.0586-.08594.14843-.14844.1211-.03125.1328-.01562.13282.01562.07422.07422.04297.10547.01562.13281-.03125.1172-.11719.03124-.1328.01172-.14844.14844-.04297.10547-.04688.10156-.02734.1211-.03125.11718v.14844l.03125.11719.04297.10546.05859.08985.07422.07031.07422.07422.11719.03125.12109.02734.11719-.02734.1328-.01563h.1172l.08984.0586.07422.07422.04687.10546.0586.08594.10156.04688.13281.01562.10547.04297.08594.0586-.01172.10546-.07422.07422-.17969.11719-.05859.08984-.08984.0586-.07032.07422-.07421.07421-.0625.08985-.02735.11719-.01562.1328.01562.13282-.01562.13281v.14844l.01562.13281.02735.1172.03125.12108.07421.07422.08985.0586.08594.0586.08984.05858.11719.03125v.08594l-.10157.04688-.08984.0586-.26563.03124-.11718.02735h-.14844l-.10547.04296-.10156.04688-.0586.08984-.0625.23438-.01171.13281-.03125.1211-.01563.1328v.29298l-.01172.1328.01172.13673.01563.1328.1328.01563.13282.01172.1211.03125.08593.0586.07422.07421.04688.10547.04296.10157.01563.1328v.44532l-.01563.13281v.44532l.03125.26562.02735.11719.01562.13281.03125.11719.08594.21094.03125.26562v.14844l-.03125.11719-.02734.11718-.03125.1211-.02735.11719-.03125.11718-.03125.1211-.01171.1328-.01563.13282.08984.0586.1172-.03125.10155.01562.04688.10547-.03125.26562v.44141l-.04297.10547-.04688.10547-.04296.10156-.04297.10547-.0586.08594-.03125.12109-.04296.11719-.03125.11719-.01563.1328.01563.13282.05859.08984.10547.04688.08594.0586.05859.08593-.01172.13672-.03125.11719-.04297.10156v.44531l-.01562.13281v.14844l-.03125.11719-.04297.10547-.02735.11719-.04687.10546-.04297.10157-.03125.12109-.02734.11719-.03125.13281-.03125.11719-.02735.11719-.04297.10546-.03125.1172-.03125.12108-.01171.13282-.01563.13281v.29688l.02734.11718v.14844l.04688.39844.02734.11719.0586.08984.12109.03125h.14844l.13281-.01563.0586.08985v.11719l-.0586.08984-.08984.0586-.10157.04296-.10546.04688-.08985.05859-.08594.0586-.13671.01562-.1172-.03125-.1328-.01563-.10157.04688-.0625.08594-.01172.13671-.01562.13282-.03125.11719-.02735.11718-.01562.13281-.03125.1211v.29687l.01563.13282.03125.11718v.14844l.01171.13281v.14844l-.02734.11719-.04688.10156-.02734.1211-.03125.11718-.0586.08985-.07421.07421-.10156.04297-.10547.04688-.11719.02734-.1211.03125-.10156-.04687.0586-.08594.10547-.04688.02734-.11718.03125-.11719.02734-.1211.03125-.11718v-.14844l.01563-.13281-.03125-.11719-.04297-.10547-.10547.01563-.07422.07422-.10156.04296-.08984.0625-.07422.07422-.04297.10157-.01563.1328-.03125.1172L304.25 426l-.03125.11719-.02734.11719-.03125.12109-.02735.11719-.03125.11718-.04297.10547-.08984.0586h-.08984l-.1172-.03125-.03124-.08594.01562-.13672-.03125-.11719v-.14844l-.01171-.1328v-.14844l-.0625-.23438-.02735-.1211-.04297-.10156-.04687-.10546-.0586-.08594-.05859-.08985-.04297-.10546-.0625-.08594-.14844-.14844-.0703-.07422-.10548-.04687-.10547-.04297-.10156-.04297-.29687-.29688-.08985-.07421-.08594-.0586-.10546-.04297-.08985-.0625-.08594-.0586-.10546-.04296-.08985-.0586-.08594-.0625-.07421-.0703-.10547-.04688-.08594-.0586-.10547-.04296-.08984-.0625-.10156-.04297-.10547-.04297-.08594-.0586-.10547-.04687-.10547-.04297-.10156-.04687-.08985-.0586-.10156-.04297-.10547-.04296-.08984-.0625-.11719-.02735-.13281-.01562-.13281.01562H299.75l-.13281.01563-.11719-.03125-.08984-.0586-.07422-.07422-.08985-.05859-.10156-.04688h-.14844l-.12109-.02734-.10156-.04297-.07422-.07422-.11719-.17968-.08984-.0586-.10156-.04297-.08985-.0625-.10547-.04296-.08984-.0586-.08594-.0586-.10547-.04687-.0586-.08594-.05858-.08984-.04297-.10547-.04688-.10156-.07422-.07422-.08594-.0586-.07421-.07421-.08985-.0586-.22265-.22265-.04297-.10547-.03125-.26563.10547-.04296h.14453l.10547.04296.07421.07422.08985.0586.08594.0586.10546.04687.08985.05859.14844.14844.0703.07422.14845.14843.0625.08594.07421.07422.08594.0586.07422.07421.08985.0625.08984.0586.08594.05859.26953.17578.10156.04688.10547.04296.10156.04297.04688-.07421.05859-.08594.07422-.07422.07031-.07422.10547.04297.07422.07422.0586.08984.04296.10156.04688.10547.04296.10547.1211.02735.11719-.02735.07421-.08984.04297-.10547.0586-.08985.07422-.07421.10546-.04297.1172-.02735.1328.01172.08985.0586.14844.14843.05859.08985.04297.10547.04687.10156.04297.10547.04297.10156.10547.04688.10547.04296.13281.01563.08594-.0586.0586-.08984.07421-.07422.10547-.04297.11719.02735.10547.04687.10156.04297.10547.04297.10156.04688.17969.11718v.11719l-.01563.13281.01563.13281.01562.13672.0586.08594.10156.04688.1211.02734.11718.03125h.14844l.11719-.03125.05859-.08984.17969-.1172.05859-.08983.07422-.07422.0586-.08594.11718-.17969.17969-.11719.11719.03125.08984.0586.04297.07422-.01563.1328v.1172l.08985.05859h.14843l.13282-.01563.1328-.01171.26563-.03125.10547-.04297.11719-.03125.1211-.02735.07421-.07421.07031-.07422.0625-.08985-.01562-.10547-.04688-.10156-.10156-.04297-.10547-.01562-.11718.02734-.26563.03125h-.14844l-.07421-.07422-.08985-.0586-.11719-.03124-.11718-.02735-.13282-.01562h-.14843l-.13282.01563h-.29687l-.10547-.04688-.14844-.14844-.04297-.10156-.05859-.08984.22266-.22266.08593-.0586.10547-.04296.11719-.03125.13281-.01563.13281.01563.13672.01562.10157.04297.1328-.01172.08985-.0625.10156-.04297.0625-.08984-.04687-.10156-.08984-.0586-.1172-.03125-.10155-.04296-.0586-.08985-.0625-.08984v-.11719l.01563-.13281.10547-.04688.07421-.07031v-.1211l-.08984-.05859-.03125-.11719.08985-.05859.07421-.07422.04297-.10547.0586-.08984.04687-.10156.01563-.13281v-.14844l-.04688-.10547-.04297-.10156-.08984-.0586-.13281-.01562-.10157-.04297-.13671-.01563-.1172-.03125h-.4453l-.13282-.01562-.13281-.01172-.13281-.01563-.11719-.03125h-.14844l-.13281-.01562-.13281-.01172-.26563-.03125-.1211-.04297-.08593-.0586-.07422-.07421v-.14844l.01172-.13281.10547-.04688.10156-.04296.13281-.01563h.15235l.13281-.01562h.29297l.1211.03125.10156.04296.08984.0586.23438.0625.12109-.04688.08984-.05859.10156-.04297.13282-.01562.10547.04296.10156.04688.13281.01172.1211-.02735h.14453l.12109-.03125.11719-.02734.10547-.04687.07421-.07422.08594-.0586.14844-.14843.0586-.08594.04687-.10547.02734-.11719.01563-.10547-.10156-.04296-.08985-.0586-.11719-.03125-.10546-.04297-.08985-.0625-.07422-.08594-.07422-.07421-.10156-.04297-.10547-.04688-.10156-.04297-.0586-.08984-.04687-.10156-.08594-.21094-.0625-.08594-.05859-.08984-.07422-.07422-.08594-.0586h-.26953l-.11719.03126-.08984.05859-.10156.04297-.13281.01562-.10547-.01562-.02735-.11719-.0625-.08984-.11718-.03125-.10157-.04297-.14843-.14844-.03125-.11719-.01563-.10546.07422-.07422.17969-.1172.11719-.02733.11718-.03125.13672.01562.10156.04297.10547.04297.10156.04687.10547.04297.1172.03125.1328.01563.1172.02734.1328.01563.10547-.01563.08985-.0586-.07422-.07421-.10547-.04297-.07422-.07422-.07422-.08984-.14844-.14844-.08593-.0586-.08985-.05859-.07422-.07422-.08984-.0586-.10156-.04687-.1211-.02734-.10156-.04688-.10547-.04296-.11719-.03125-.10156-.04297-.1211-.03125h-.14843l-.11719.03125-.10546.04297-.08594.0625-.17969.11718-.08594.0586-.08984.0586-.10547.04687-.08594.05859-.10547.04297-.10156.04297-.10547.04687-.07422.07422-.05859.08985-.0586.08593-.04687.10547-.0586.08594-.07421.07422-.13281-.01172-.1172-.03125h-.11718l-.07422.07422-.08984.0586-.07422.07421-.08984.0586-.08594.05859-.10547.04687-.10156.04297-.13672.01563-.10156-.04297-.14844-.14844-.10547-.04688h-.08594l-.10547.04688-.10156.04297-.1211.03125-.11718-.03125-.07422-.07422v-.11719l.03125-.1211.07422-.0703.0586-.08985.07421-.07422.11719-.03125.10547-.04296h.29297l.13281-.01563.13672-.01563.10156-.04296.08985-.0586.10156-.04687.08984-.0586.13281-.01171.08985.05859.13281.01172.08984-.0586.08594-.05859.10547-.04297.08984-.0586.08594-.0625.08985-.05859.14843-.14843.0586-.08594.05859-.08985.10547-.04296.13281-.01563.11719.02735.1211.03125.05859-.0586.05859-.08984.03125-.26563.02734-.11719.10547.01172.13281.01563.10157-.04297.08984-.0586.0586-.08984.07421-.07422.0586-.08984.04687-.10156.01172-.13281-.01172-.13282-.04687-.10547-.14844-.14843-.0586-.08985-.05859-.08594-.04297-.10546v-.44532l.01563-.1328v-.14845l.01172-.1328-.0586-.0586-.08984.0586-.10156-.04298-.17969-.11719-.08594-.05859-.0625-.08984-.0586-.08985-.07421-.07421-.08594-.0586-.1211.03125-.10155.01172-.10547.04688-.08594.05859-.10547.04297-.14844.14844-.08984.05859-.08594.0586-.08984.0625-.10547.04296-.13281.01563v-.1211l.10547-.04297.11718-.03125.07422-.0703.04297-.10548v-.14844l-.02734-.11718-.14844-.14844-.13281-.01563h-.14844l-.11719.03125-.10547.04297-.10156.04297-.08984.0625-.11719.02735-.07422-.07422.01172-.13281-.04297-.10157-.04297-.10547-.08984-.05859-.11719.02734-.1211.03125-.11718.03125-.10156.04297-.1211.03125-.10156.04297-.10547.04297-.08984.0586-.10156.01562v-.11719l.01562-.13281-.0586-.08985-.07421.04297-.14844.14844-.0586.08985-.07421.07421-.04688.10547-.04296.10156-.07422.07422-.0586.08985-.07422.07422-.05859.08593-.07422.07422-.08984.0625-.07422.07031-.07422.07422-.10156.01563-.13281.01562-.10547-.04296v-.1211l.14843-.14844.04297-.10156.0586-.08984.04687-.10156.04297-.10547.0586-.08985.03124-.11719.04297-.10156.03125-.1211.02735-.11718.04687-.10547.04297-.10156.04297-.10547.07422-.07031.08984-.0625.08985-.0586.10156-.04296h.29687l.26563-.03125.10547-.04297-.07422-.07422-.11719-.03125-.10547-.04297-.08984-.0586-.10156-.04687-.08985-.0586-.10156-.04296-.10547-.04297-.08984-.0625-.08594-.0586-.10547-.04296-.10156-.04297-.1211-.03125-.11718-.03125-.10157-.04297L297.5 410.25l-.10156-.04297-.08985-.0586-.04296-.10546-.01563-.13281.10156-.04297.13281-.01563.13672.01563.13282-.01563.10156-.04297.0586-.08984.01562-.10547-.08985-.0586-.07421-.07421-.10157-.04297-.08984-.0586-.14844-.14843-.04297-.10547-.01562-.13281v-.29297l-.0586-.08985-.08984-.05859-.07422-.07422-.04297-.10547-.03125-.11718-.0586-.08985-.07421-.07422-.11719-.02734-.07422-.07422-.08984-.0586-.08984-.0625-.08594-.05859-.07422-.07421-.0586-.08594-.04687-.10547-.08594-.0586-.14843-.14843-.19532-.0586-.1328.01563-.10157.04297-.07422.07422-.04688.10156-.04296.10547-.0586.08984-.0586.08594-.29687.29687-.08984.0586h-.08594l-.0625-.08594-.04297-.10547.03125-.11719.0586-.08984.02734-.11719-.01172-.13281-.08984-.0625-.10547.04688-.11719.02734-.11719.03125-.26953.17578-.10156.04688-.11719.02734-.10546.04687-.08985.0586-.10156.04297-.0586-.08594-.04687-.10547.01563-.13281.04687-.10547.07031-.07422.07422-.07031.0586-.08985v-.14843l-.04297-.10547h-.23829l-.10156.04687-.03125.11719-.02734.11719-.03125.1211-.07422.04296-.13281.01563-.07422-.04688-.04297-.10156-.04297-.10547-.04687-.10156-.04297-.10547-.1211.03125-.10156.04297-.13281.01562-.11719.03125-.10547.04297-.08984.0586-.10156.04687-.1211.02734-.13281.01563-.10156-.04297-.0586-.08985-.04687-.10546-.04297-.10157-.04297-.10546v-.1172l.0586-.08984.08593-.05859.17969-.11719.10156-.04687.10547-.04297.10547-.0586.10156-.04296.08985-.0625.10156-.04297.10547-.0586.10156-.04687.08984-.0586.10547-.04296.10156-.04297.08985-.0625.10156-.04297.13672-.01563.11719.03125.10156.04297.1211.03125.10156.04297.10546.04688.10157.04296.10547.04297.10156.04688.10547.04297.10156.04297.10547.04687.08594.0586.10546.04296.1172.03125.10546.04297.10156.04688.08985.0586.10547.04296.10156.04297.10547.04687.11719.02735.10156.04687.1211.02735h.14843l.08594-.0586.01562-.10156.0586-.08984-.02735-.1172-.07422-.07421-.11719-.17969-.07421-.07422-.08985-.07421-.17969-.1172-.08593-.05859-.10547-.04296-.10156-.04688-.26954-.17578-.05859-.08985-.07422-.07421-.0586-.08985-.04296-.10156-.03125-.11719-.01563-.13672v-.5625l-.01171-.1328-.01563-.13282-.03125-.11719-.01562-.13281-.01172-.13281-.03125-.1211-.22266-.22265-.0586-.08594-.01562-.10547.03125-.11719.13281-.01562v-91.41406H172.9922v1.45312l-.0586.23438-.35156 1.05078-.17187.52343-.1172.34766-.17577.41016-.11719.17187-.23438.29297-.23046.0586h-.35157l-.11718.05859-.23047.40625v.29297l.11719.17578.23046.23047.1172.23437.64062.75781.29297.46485.17578.23437.23047.35156.23437.34766.64063.8164.17578.46485.17187.41016.11719.69531.17578.46875.11719 1.39844.0586.46484v.875l.11718 1.04688v4.78125l-.0586.46484-.35156 1.28125-.17578.52344-.11328.41015-.35156.9297L172.93359 336l-.23437.58203-.11719.17578-.17187.34766-.17578.40625-.35157.8164-.0586.29297-.11327.29297-.11719.28906-.0586.17579-.11718.875-.0586.40625-.05859.11718-.0586.17579-.05859.17187-.23047.52734-.11718.17188v.23437l-.11719.23438-.0586.17187-.17577.58594v.28906l-.0586.17579v.29296l-.0586.11329-.05859.52734v.17187l-.05468.23438v2.6211l-.17578.8164-.1172.17578-.17577.23438-.1172.17187-.11327.23438-.58594.93359-.23047.28906-.29297.46485-.17578.23437-.28906.35156-.35156.69922-.11328.23047-.17579.41016-.17578.23046-.40625.52735-.8164.69922-.29297.17187-.28906.23438-.17579.11719-.17578.17578-.52344.40625-.52734.17578-.17187.17578-.23438.05469-.64062.17578h-.75782m12.21094 31.02344l-1.07422.44921.35938.89454 1.25-.71485.44531-.53906-.98047-.08985"/><path fill="#d3d3d3" fill-opacity="0" fill-rule="evenodd" d="M201.50781 416.59766h-.89453l.44922.6289.98047.35938.80469-.08985.4453-.98828-.17577.08985-.71485-.35547-.89453.35547m154.6211 59.0703l-.0586-.52343v-.29297l.11328-.29297.0586-.23046.46875-.46875h.11328l.11719-.11329.11718-.05859h.17579l.23437-.0586h.34766l.23437.0586.11719.0586.23047.17187.0586.17578.11718.58203v.29297l-.11719.17578-.17187.28906-.17579.17579-.52734.52343-.23047.23438-.11719.0586h-.17578l-.11718-.0586-.40625-.29297-.17579-.11719-.11718-.0586-.0586-.11327-.05468-.1172m6.64062-10.95702l-.0586-.17188v-1.10937l.0586-.17188.17578-.0586.17188-.05858h.17578l.23437-.0586.1172.0586.05858.69921-.05859.17188-.11719.17578-.11718.0586-.23438.52343-.11328.0586h-.23438l-.05859-.1172m9.61328-14.39062l-.11719-.17578v-.69922l.29297-.875.1172-.17187.17577-.35156.11328-.23047.1172-.29297.35155-.75781.1172-.23047.17187-.23438h.17578l.11719-.0586h.64062l.11719.0586.23437.23438.17188.11328.35156.29297.11719.11718.11328.17579v.11328l.11719.05859.11718.11719v.69922l-.05859.17578v.23047l-.0586.17578-.34765 1.05078-.11719.23047-.11719.23437-.11718.0586-.23047.23437-.64063.28906h-.875l-.41015-.11718-.64063-.46485"/><path fill="none" stroke="#bebebe" stroke-linecap="round" stroke-linejoin="round" stroke-miterlimit="10" stroke-width=".5" d="M467.95703 311.69531H144.02734v168.625h323.9297v-168.625"/><g clip-path="url(#a)"><path fill="#fff" fill-opacity="0" fill-rule="evenodd" d="M144 475.89063v4.4375h.0039H144V311.67188h.0039H144v164.21875"/></g><g clip-path="url(#b)"><path fill="#fff" fill-opacity="0" fill-rule="evenodd" d="M144.0039 480.32813V311.67188h17.75v132.78125l-.2578.36718-.6797 4.4414.16798 4.4375.76953 2.14454 3.3828 2.29297 1.0547.45703 4.4375 1.1914 4.4375-1.0625 1.01172-.58593 3.42968-3.6289.70313-.8086-.70313-.78516-1.80469.78516-2.63671 2.32812-2.91407-2.32812-1.52343-.64453-4.4375-.23828-2.21094-3.5547-1.75-4.4414-.47656-.36719V311.67188h53.26172v109.84375l-1.10547 1.11329 1.10547 1.17187 1.8203-1.17187-1.8203-1.11329V311.67188h13.3125v113.26954l-3.66407 2.1289-.77344.29688-4.4375.66015-4.4375.82422-4.4414 1.23438-3.67578 1.42187-.76172.35938-4.4375-.33203-4.4375.5703-2.45313-.59765-1.98828-.97656-1.32422.97656-3.11328 3.8125-4.4375-.03125-1.85937.65625-2.57813 1.58985-1.26172 2.84765.90235 4.4375.35937.38281 4.4375 2.79297 4.4375.00391 4.4375-.73047 4.38281-2.44922.0586-.03125 4.4375-1.52734 4.4375-1.99219 4.4375.40235 3.55078-1.28907.89063-.30469 1.78906.3047 2.64844.72656 4.4375 1.84375 4.4375-1 1.47656-1.57032-.0586-4.4375 3.01953-4.34375 2.27344 4.34375 2.16797 1.89063 2.6289 2.54687 1.8086 2.1289 4.4375-2.0039.1289-.125-.1289-.125-4.4375-2-2.23047-2.3125-.41797-4.4375-1.78906-.97656-4.4414.80078-2.10547-4.26172-2.33203-2.1289V311.67187h39.9453v111.75l-3.6875 3.64844 1.03126 4.4375 2.65625 2.33203v5.73047l-1.29688.8125-3.14062 2.67578-1.28906 1.76172 1.28906 1.0586 4.4375.91015 2.21484-1.96875.10156-4.4375-2.3164-.8125v-5.73047l2.58203-2.33203 1.1914-4.4375-3.77343-3.64844v-111.75h79.89062v164.21485l-.0039.0039.0039.00391.0039-.0039-.0039-.00391V311.67187h39.94531v135.36329l-3.0078 2.22656-1.4297.6289-4.4375.90235-4.4414.14844-2.53906 2.7578-1.89844 3.8672-.20313.5703-.51171 4.4375.71484.71485 2.28906-.71484 2.14844-1.9414 4.4414 1.86327 2.8711-4.35937 1.5664-1.4414 3.27344-2.9961 1.16406-2.24219 4.4375-.5v17.08203l-4.4375 2.60547-.76953.8086-3.66796 1.66796-3.50782 2.76954 3.50781 2.73828 3.1211-2.73829 1.3164-3.41406 4.4375 2.6836 3.4297-3.70704-3.4297-3.41406v-17.08203l1.47657-1.69531-1.47656-.73047-4.4375-1.4961V311.67189h79.88671v168.65625h-63.27343l-.35547-4.4375-2.9414-2.75391-4.39063 2.7539.8164 4.4375H225.78125l-1.89063-1.05078-2.80078 1.05079h-77.08593"/></g><path fill="#50fcfc" fill-rule="evenodd" d="M160.98438 453.69922l-.16797-4.4375.67968-4.4414.25782-.3672.47656.3672 1.75 4.4414 2.21094 3.55469 4.4375.23828 1.52343.64453 2.91407 2.32812 2.63672-2.32812 1.80468-.78516.70313.78516-.70313.8086-3.42969 3.6289-1.01171.58594-4.4375 1.0625-4.4375-1.19141-1.0547-.45703-3.3828-2.29297-.76953-2.14453m18.16406-8.8789l-.90235-4.4375 1.26172-2.84766 2.57813-1.58985 1.85937-.65625 4.4375.03125v4.91016l-.50781.15234.50781.35156.41406-.35156-.41406-.15234v-4.91016l3.11328-3.8125 1.32422-.97656 1.98828.97656 2.45313.59766 4.4375-.57031 4.4375.33203.76172-.35938 3.67578-1.42187 4.4414-1.23438 4.4375-.82422v7.83204l-.10156.08593.10156.02735.15235-.02735-.15234-.08594v-7.83203l4.4375-.66015.77343-.29688 3.66406-2.1289v3.89453l-1.51171 2.67187 1.51172 2.89844 4.33203-2.89844-4.33203-2.67187v-3.89453l2.33203 2.1289 2.10547 4.26172 4.4414-.80078 1.78906.97656.41797 4.4375 2.23047 2.3125 4.4375 2 .1289.125-.1289.125-4.4375 2.0039-1.8086-2.1289-2.6289-2.54687-2.16797-1.89063-2.27344-4.34375-3.01953 4.34375.0586 4.4375-1.47656 1.57031-4.4375 1-4.4375-1.84375-2.64844-.72656-1.78906-.30469-.89063.3047-3.55078 1.28906-4.4375-.40235-4.4375 1.99219-4.4375 1.52734-.0586.03125-4.3828 2.44922-4.4375.73047-4.4375-.0039-4.4375-2.79298-.35938-.3828"/><path fill="#00e8fc" fill-rule="evenodd" d="M188.38281 440.73438l-.50781-.35157.50781-.15234.41406.15234-.41406.35156"/><path fill="#50fcfc" fill-rule="evenodd" d="M215.01563 423.80078l-1.10547-1.17187 1.10547-1.11329 1.8203 1.11329-1.8203 1.17187"/><path fill="#00e8fc" fill-rule="evenodd" d="M219.45313 435.97266l-.10157-.02735.10156-.08594.15235.08594-.15234.02735"/><g clip-path="url(#c)"><path fill="#50fcfc" fill-rule="evenodd" d="M221.08984 480.32813l2.80078-1.05079 1.89063 1.05079h-4.6914"/></g><path fill="#fff" fill-opacity="0" fill-rule="evenodd" d="M228.32813 428.83594l-1.51172 2.67187 1.51172 2.89844 4.33203-2.89844-4.33203-2.67187"/><path fill="#50fcfc" fill-rule="evenodd" d="M263.83594 445.8789l-1.28906-1.05859 1.28906-1.76172 3.14062-2.67578 1.29688-.8125 2.3164.8125-.10156 4.4375-2.21484 1.96875-4.4375-.91015m1.78125-14.3711l-1.03125-4.4375 3.6875-3.64844v1.34375l-2.32813 2.3047 2.32813 3.55077 2.38281-3.55078-2.38281-2.30469v-1.34375l3.77344 3.64844-1.19141 4.4375-2.58203 2.33203-2.65625-2.33203"/><path fill="#00e8fc" fill-rule="evenodd" d="M268.27344 430.6211l-2.32813-3.55079 2.32813-2.30469v2.23829l-.0625.0664.0625.09766.0664-.09766-.0664-.0664v-2.23829l2.38281 2.3047-2.38281 3.55077"/><path fill="#00d4fc" fill-rule="evenodd" d="M268.27344 427.16797l-.0625-.09766.0625-.0664.0664.0664-.0664.09766"/><path fill="#50fcfc" fill-rule="evenodd" d="M348.16406 475.89453l-.0039-.0039.0039-.00391.0039.0039-.0039.00391m22.1914-12.60547l-.71483-.71484.51171-4.4375.20313-.57031 1.89844-3.8672 2.53906-2.7578 4.4414-.14844 4.4375-.90235 1.4297-.6289 3.0078-2.22656 4.4375 1.49609 1.47657.73047-1.47656 1.69531-4.4375.5-1.16407 2.24219-3.27344 2.9961-1.5664 1.4414-2.8711 4.35937-4.4414-1.86328-2.14844 1.9414-2.28906.71485m13.3164 15.33985l-3.5078-2.73829 3.5078-2.76953 3.66797-1.66796.76954-.8086 4.4375-2.60547v1.92969l-2.06641 1.48438 2.0664 1.60937 1.4922-1.60938-1.4922-1.48437v-1.92969l3.4297 3.41406-3.4297 3.70704-4.4375-2.6836-1.3164 3.41406-3.1211 2.73829"/><path fill="#00e8fc" fill-rule="evenodd" d="M392.54688 473.0625l-2.06641-1.60938 2.0664-1.48437 1.4922 1.48438-1.4922 1.60937"/><g clip-path="url(#d)"><path fill="#50fcfc" fill-rule="evenodd" d="M397.85156 480.32813l-.8164-4.4375 4.39062-2.75391 2.9414 2.7539.35548 4.4375H403l-1.36328-4.4375-.21094-.19921-.32031.19921-1.38672 4.4375h-1.86719"/></g><g clip-path="url(#e)"><path fill="#00e8fc" fill-rule="evenodd" d="M399.71875 480.32813H403l-1.36328-4.4375-.21094-.19922-.32031.19921-1.38672 4.4375"/></g><g clip-path="url(#f)"><path fill="#fff" fill-opacity="0" fill-rule="evenodd" d="M467.9961 480.32813H468V311.67188h-.0039H468v168.65625h-.0039"/></g><path fill="#fff" fill-opacity="0" fill-rule="evenodd" d="M212.57422 446.3086l5.50781-1.94141-3.3086-9.39453-5.5078 1.9414 3.30859 9.39453"/><path fill-rule="evenodd" d="M213.17188 437.48047l.48046-.17188 2.09375 5.9375-.74218.26172-1.4922-4.23437-1.30858.46094-.1875-.52344.5078-.2461.21876-.13671.1875-.16016.14453-.19922.09375-.25781.03906-.32422-.03516-.40625"/><g clip-path="url(#g)"><path fill="none" stroke="#000" stroke-linecap="round" stroke-linejoin="round" stroke-miterlimit="10" stroke-width=".5" d="M147.51172 480.45313l-7.02344-.25"/></g><g clip-path="url(#h)"><path fill="none" stroke="#000" stroke-linecap="round" stroke-linejoin="round" stroke-miterlimit="10" stroke-width=".5" d="M147.51172 480.45313l1.07422 2.20703"/></g><g clip-path="url(#i)"><path fill="none" stroke="#000" stroke-linecap="round" stroke-linejoin="round" stroke-miterlimit="10" stroke-width=".5" d="M160.8164 480.64063l-7-.6211"/></g><g clip-path="url(#j)"><path fill="none" stroke="#000" stroke-linecap="round" stroke-linejoin="round" stroke-miterlimit="10" stroke-width=".5" d="M160.8164 480.64063l.95313 2.2578"/></g><g clip-path="url(#k)"><path fill="none" stroke="#000" stroke-linecap="round" stroke-linejoin="round" stroke-miterlimit="10" stroke-width=".5" d="M174.0664 481.05469l-6.875-1.45313"/></g><g clip-path="url(#l)"><path fill="none" stroke="#000" stroke-linecap="round" stroke-linejoin="round" stroke-miterlimit="10" stroke-width=".5" d="M174.0664 481.05469l.6797 2.35937"/></g><g clip-path="url(#m)"><path fill="none" stroke="#000" stroke-linecap="round" stroke-linejoin="round" stroke-miterlimit="10" stroke-width=".5" d="M187.32031 481.30078l-6.75-1.9414"/></g><g clip-path="url(#n)"><path fill="none" stroke="#000" stroke-linecap="round" stroke-linejoin="round" stroke-miterlimit="10" stroke-width=".5" d="M200.67969 481.14453l-6.83594-1.63281"/></g><g clip-path="url(#o)"><path fill="none" stroke="#000" stroke-linecap="round" stroke-linejoin="round" stroke-miterlimit="10" stroke-width=".5" d="M200.67969 481.14453l.61719 2.375"/></g><g clip-path="url(#p)"><path fill="none" stroke="#000" stroke-linecap="round" stroke-linejoin="round" stroke-miterlimit="10" stroke-width=".5" d="M213.98438 481.1836l-6.81641-1.71094"/></g><g clip-path="url(#q)"><path fill="none" stroke="#000" stroke-linecap="round" stroke-linejoin="round" stroke-miterlimit="10" stroke-width=".5" d="M213.98438 481.1836l.58984 2.3828"/></g><g clip-path="url(#r)"><path fill="none" stroke="#000" stroke-linecap="round" stroke-linejoin="round" stroke-miterlimit="10" stroke-width=".5" d="M227.32813 481.0625l-6.875-1.46875"/></g><g clip-path="url(#s)"><path fill="none" stroke="#000" stroke-linecap="round" stroke-linejoin="round" stroke-miterlimit="10" stroke-width=".5" d="M227.32813 481.0625L228 483.42188"/></g><g clip-path="url(#t)"><path fill="none" stroke="#000" stroke-linecap="round" stroke-linejoin="round" stroke-miterlimit="10" stroke-width=".5" d="M240.67969 480.85156l-6.94922-1.04687"/></g><g clip-path="url(#u)"><path fill="none" stroke="#000" stroke-linecap="round" stroke-linejoin="round" stroke-miterlimit="10" stroke-width=".5" d="M240.67969 480.85156l.8164 2.3164"/></g><g clip-path="url(#v)"><path fill="none" stroke="#000" stroke-linecap="round" stroke-linejoin="round" stroke-miterlimit="10" stroke-width=".5" d="M254.01953 480.64453l-7-.63281"/></g><g clip-path="url(#w)"><path fill="none" stroke="#000" stroke-linecap="round" stroke-linejoin="round" stroke-miterlimit="10" stroke-width=".5" d="M254.01953 480.64453l.95313 2.26172"/></g><g clip-path="url(#x)"><path fill="none" stroke="#000" stroke-linecap="round" stroke-linejoin="round" stroke-miterlimit="10" stroke-width=".5" d="M267.34375 480.5l-7.01563-.34375"/></g><g clip-path="url(#y)"><path fill="none" stroke="#000" stroke-linecap="round" stroke-linejoin="round" stroke-miterlimit="10" stroke-width=".5" d="M267.34375 480.5l1.04688 2.21875"/></g><g clip-path="url(#z)"><path fill="none" stroke="#000" stroke-linecap="round" stroke-linejoin="round" stroke-miterlimit="10" stroke-width=".5" d="M279.76172 482.67969l-5.22266-4.70313"/></g><g clip-path="url(#A)"><path fill="none" stroke="#000" stroke-linecap="round" stroke-linejoin="round" stroke-miterlimit="10" stroke-width=".5" d="M290.8164 483.82422l-.70312-6.99219"/></g><g clip-path="url(#B)"><path fill="none" stroke="#000" stroke-linecap="round" stroke-linejoin="round" stroke-miterlimit="10" stroke-width=".5" d="M304.23047 476.84375l-.89844 6.96875"/></g><path fill="none" stroke="#000" stroke-linecap="round" stroke-linejoin="round" stroke-miterlimit="10" stroke-width=".5" d="M304.10156 477.85938l1.14453-.4336"/><g clip-path="url(#C)"><path fill="none" stroke="#000" stroke-linecap="round" stroke-linejoin="round" stroke-miterlimit="10" stroke-width=".5" d="M318.19531 476.99219l-2.19922 6.67578"/></g><g clip-path="url(#D)"><path fill="none" stroke="#000" stroke-linecap="round" stroke-linejoin="round" stroke-miterlimit="10" stroke-width=".5" d="M331.20313 476.90625l-1.58594 6.84375"/></g><path fill="none" stroke="#000" stroke-linecap="round" stroke-linejoin="round" stroke-miterlimit="10" stroke-width=".5" d="M330.97266 477.90234l1.1875-.3164"/><g clip-path="url(#E)"><path fill="none" stroke="#000" stroke-linecap="round" stroke-linejoin="round" stroke-miterlimit="10" stroke-width=".5" d="M346.96875 481.67969l-6.48828-2.70313"/></g><g clip-path="url(#F)"><path fill="none" stroke="#000" stroke-linecap="round" stroke-linejoin="round" stroke-miterlimit="10" stroke-width=".5" d="M354.45313 477.95313l5.17578 4.7539"/></g><g clip-path="url(#G)"><path fill="none" stroke="#000" stroke-linecap="round" stroke-linejoin="round" stroke-miterlimit="10" stroke-width=".5" d="M368.21484 477.54297l4.28516 5.57031"/></g><g clip-path="url(#H)"><path fill="none" stroke="#000" stroke-linecap="round" stroke-linejoin="round" stroke-miterlimit="10" stroke-width=".5" d="M380.27734 479.41797l6.78516 1.82422"/></g><path fill="none" stroke="#000" stroke-linecap="round" stroke-linejoin="round" stroke-miterlimit="10" stroke-width=".5" d="M381.26563 479.6836l-.27344-1.19923"/><g clip-path="url(#I)"><path fill="none" stroke="#000" stroke-linecap="round" stroke-linejoin="round" stroke-miterlimit="10" stroke-width=".5" d="M393.63672 479.26953l6.69922 2.11719"/></g><path fill="none" stroke="#000" stroke-linecap="round" stroke-linejoin="round" stroke-miterlimit="10" stroke-width=".5" d="M394.60938 479.57813l-.22266-1.20704"/><g clip-path="url(#J)"><path fill="none" stroke="#000" stroke-linecap="round" stroke-linejoin="round" stroke-miterlimit="10" stroke-width=".5" d="M406.8164 480.78516l6.96876-.91407"/></g><g clip-path="url(#K)"><path fill="none" stroke="#000" stroke-linecap="round" stroke-linejoin="round" stroke-miterlimit="10" stroke-width=".5" d="M407.83203 480.65234l-.71094-1"/></g><g clip-path="url(#L)"><path fill="none" stroke="#000" stroke-linecap="round" stroke-linejoin="round" stroke-miterlimit="10" stroke-width=".5" d="M420.15625 480.94922l6.91797-1.24219"/></g><g clip-path="url(#M)"><path fill="none" stroke="#000" stroke-linecap="round" stroke-linejoin="round" stroke-miterlimit="10" stroke-width=".5" d="M421.16406 480.76953l-.75781-.96484"/></g><g clip-path="url(#N)"><path fill="none" stroke="#000" stroke-linecap="round" stroke-linejoin="round" stroke-miterlimit="10" stroke-width=".5" d="M436.02734 483.72266l1.8086-6.78907"/></g><g clip-path="url(#O)"><path fill="none" stroke="#000" stroke-linecap="round" stroke-linejoin="round" stroke-miterlimit="10" stroke-width=".5" d="M449.26563 483.70313l1.96484-6.7461"/></g><g clip-path="url(#P)"><path fill="none" stroke="#000" stroke-linecap="round" stroke-linejoin="round" stroke-miterlimit="10" stroke-width=".5" d="M462.7539 483.7461l1.6172-6.83594"/></g><g clip-path="url(#Q)"><path fill="none" stroke="#000" stroke-linecap="round" stroke-linejoin="round" stroke-miterlimit="10" stroke-width=".5" d="M147.42188 467.8125l-6.84375-1.59766"/></g><path fill="none" stroke="#000" stroke-linecap="round" stroke-linejoin="round" stroke-miterlimit="10" stroke-width=".5" d="M147.42188 467.8125l.6289 2.3711m12.66406-2.27735l-6.79687-1.78516m6.79687 1.78516l.5625 2.38672m12.77735-2.4961l-6.84766-1.5664m6.84766 1.5664l.64062 2.3711m12.71094-2.55078l-6.92188-1.20703m6.92188 1.20703l.76172 2.33203m-1.76953-2.50781l.38281 1.16796m13.92188-.90234l-6.88672-1.38672m6.88672 1.38672l.70312 2.35156m-1.70313-2.55078l.35157 1.17578m13.92969-.82421l-6.82032-1.69141m6.82031 1.6914l.59766 2.37891m12.77734-2.67187l-6.9375-1.10547m6.9375 1.10547l.79688 2.3203m12.54297-2.49608l-6.98828-.75391m6.98828.7539l.91016 2.28126M254 467.49218l-6.96094-.95702m6.96094.95703l.84766 2.30078m12.44922-3.3711l-6.92579 1.1836m5.92188-1.01172l.75.96875m12.86719-2.72656l-5.51954 4.35547m4.71485-3.71875l1.125.49218m11.94922-2.01953l-3.42578 6.13672m15.39843-6.5625l-.74609 6.98828m.64062-5.97265l1.13672-.45703m12.65235-.5l-1.48047 6.87109m1.26562-5.8711l1.1797-.33203m11.78905-.74218l-.35937 7.01953m.3086-5.9961l1.11327-.51953m10.34375-.05078l3.46094 6.11328M342.5 464.84766l.65625-1.03516m11.02734 1.15234l5.71485 4.09766m-4.88282-3.5l.16407-1.21484m12.40234.51172l5.55078 4.30859m-4.74219-3.6836l.20704-1.20703m12.03125.97657l6.08203 3.51953m-5.19532-3.00781l.04297-1.22657m12.27735.92188l6.30078 3.10547m-5.38672-2.65235l-.03516-1.22656m12.07813 2.49219l7.01953-.33203m-6 .28515l-.625-1.05468m13.39062-.82813l6.07813 3.52734m-5.19531-3.01171l.04687-1.22657m11.9336 2.08203l6.98046.78516m6.33985.05078l6.96875-.88672m-5.95313.75782l-.71093-1m13.58203-1.27735l5.82422 3.92578m-4.97657-3.35547l.12891-1.21875"/><g clip-path="url(#R)"><path fill="none" stroke="#000" stroke-linecap="round" stroke-linejoin="round" stroke-miterlimit="10" stroke-width=".5" d="M147.17578 455.20313l-6.35156-3.00782"/></g><path fill="none" stroke="#000" stroke-linecap="round" stroke-linejoin="round" stroke-miterlimit="10" stroke-width=".5" d="M147.17578 455.20313l.11328 2.45312m13.21485-2.48047l-6.375-2.95703m5.4453 2.52734l.06642 1.22657m14.26562-1.00391l-6.55078-2.54297m5.59766 2.17578l.14453 1.21485m14.30078-1.47657l-6.90625-1.28515m5.90234 1.09765l.36719 1.17188m13.98047-1.14844l-6.96485-.95312m6.96485.95312l.84765 2.30078m12.48828-2.4961l-7.0039-.5625m7.0039.5625l.97266 2.25m12.34375-2.26952l-7.00781-.52344m5.98828.44922l.49219 1.1211M240.625 454.5l-6.83984-1.60156m5.84765 1.36719l.3125 1.1875M254 454.1914l-6.95703-.98438m5.94531.83985l.41797 1.15234m13.78516-2.54688l-6.71094 2.09375m5.73437-1.78906l.8711.86328m11.96875-3.07422l-3.8086 5.90625m3.25391-5.04687l1.22266.10156m11.76172-1.3711l-2.03907 6.72657m1.74219-5.75l1.20313-.23438m13.35156-.29687l-3.92188 5.83203m3.35157-4.98047l1.21875.125m12.49218-1.08594l-3.57422 6.05079m3.0547-5.16797l1.22655.05468m11.73438-1.30468l-1.82813 6.78515m1.5625-5.79687l1.19532-.27344m10.3789-.66016l2.1875 6.6797m-1.86718-5.70704l.84765-.88672m10.49219 1.0625l5.4961 4.3789m-4.69532-3.74218l.22266-1.20312m12.9375-.0586l4.20312 5.63282m-3.58984-4.8125l.52344-1.10938m12.51562.0664l3.52734 6.07813m-3.01171-5.19531l.64453-1.03906m12.05859.21484l3.72266 5.96094m-3.72266-5.96094l1.22656-2.125m11.86719 2.27344l4.16406 5.66406m-3.5586-4.83984l.53517-1.10547m10.79296 2.52344l6.92579 1.17968m-5.91797-1.00781l-.38672-1.16797m12.70312 2.21485l6.91016-1.26172m-5.90625 1.07812l-.76172-.96094m13.07813 1.17579l6.90234-1.32032m-5.89844 1.1289l-.76953-.95702m15.15625-2.7461l2.75 6.46485m-2.35156-5.52344l.77344-.95313"/><g clip-path="url(#S)"><path fill="none" stroke="#000" stroke-linecap="round" stroke-linejoin="round" stroke-miterlimit="10" stroke-width=".5" d="M146.92188 442.33594l-5.84375-3.90625"/></g><path fill="none" stroke="#000" stroke-linecap="round" stroke-linejoin="round" stroke-miterlimit="10" stroke-width=".5" d="M146.07031 441.76953l-.125 1.21875m14.10547-.40234l-5.47266-4.40625m4.67579 3.76562l-.23047 1.20703m13.6289.10547l-4.04297-5.75m3.45313 4.91407l-.55469 1.09375m14.66406-.41407l-4.45312-5.4375m3.80469 4.64844l-.47266 1.1289m14.51953-.41015l-4.61719-5.29688m3.94532 4.52735l-.4414 1.14453m14.85937-.82422l-5.48047-4.39844m4.6836 3.75782l-.23048 1.20703m14.79297-1.29297l-6.38281-2.9414m18.04687-1.6875l-3.08203 6.3164m12.2539-5.51953l5.20313 4.71875m14.00391-3.59375l-6.57813 2.47265m16.63672-4.75l-.0664 7.02735m.0586-6.00781l1.08593-.5625m12.48047-.44922l-.55078 7.0078m.46875-5.98827l1.125-.48828m13.18359-.33203l-2.375 6.61328m2.02734-5.65235l1.21485-.17578m12.6836-.6914l-2.84767 6.42187m2.4336-5.48828l1.22265-.08594m11.89063-1.05469l-1.61719 6.83985m1.38281-5.84375l1.1875-.3125m10.83594-.70313l1.4336 6.8789m-1.22266-5.8789l.9414-.78515m10.95704.28515l3.84765 5.8789m-3.28906-5.02343l.58984-1.07812m12.39844.08203l3.38281 6.16015m-3.3828-6.16015l1.34765-2.05469m11.5 2.35937l4.3164 5.54688m-3.6875-4.73828l.5-1.1211m15.4375-.2539l-2.18359 6.67969m1.86719-5.70704l1.20703-.21093m12.91797-.55469l-3.17188 6.26953m2.71094-5.35937l1.22656-.02344m12.42188-.94922l-2.91406 6.39453m2.48828-5.46484l1.22656-.07422m7.88281.82812l6.34375 3.02344m-5.41797-2.58203l-.05468-1.22656m13.71875-.66016l3.79687 5.91406m10.32031-6.29296l2.19532 6.67578m-1.875-5.70703l.84765-.88282"/><g clip-path="url(#T)"><path fill="none" stroke="#000" stroke-linecap="round" stroke-linejoin="round" stroke-miterlimit="10" stroke-width=".5" d="M147.22266 428.46875l-6.44532-2.80078"/></g><path fill="none" stroke="#000" stroke-linecap="round" stroke-linejoin="round" stroke-miterlimit="10" stroke-width=".5" d="M146.28516 428.0586l.09765 1.22265m13.875-.29297l-5.88672-3.83594m5.03125 3.27735l-.10937 1.22265m13.6289.07813l-4.58203-5.32422m3.91407 4.55078l-.44532 1.14453m14.6875-.61718l-5.10156-4.83204m4.35938 4.12891l-.32813 1.1836m13.91406-.0625l-4.16015-5.66797m3.55469 4.84375l-.53125 1.10546m14.6328-.42578l-4.51952-5.3789m12.4453 1.08984l6.25782 3.19922m8.16406 1.27344l4.04297-5.7461m8.51172 5.01953l5.5664-4.29296m11.80079 5.42187l-2.53906-6.55078m12.19921 5.85547l4.76954-5.16016m-4.07422 4.41016l-1.1875-.3125m13.74219-4.03906l4.89843 5.04296m7.40235-3.10546l6.92968 1.17187m-5.92187-1.0039l-.38672-1.16407m14.46875-1.5l3.3789 6.16016m-2.88671-5.26563l.67187-1.02343m14.41016-.25782l-1.13672 6.9336m1.13672-6.9336l2.32422-.78515m11.5625.92968l-2.28125 6.64454m1.94922-5.6797l1.21093-.1914m9.14454-.23047l4.30078 5.5586m-3.67188-4.75l.5039-1.1172m13.8086-.38671l1.05078 6.94922m-.89843-5.9375l.98437-.73047m12.22266-.28516l.96093 6.96094m-.96093-6.96094l1.98828-1.4375m13.51172 1.84375l-3.41016 6.14453m3.41016-6.14453l2.45312.04688m11.8711.79297l-5.42579 4.46484m4.63672-3.8164l1.13282.47265m12.76953-1.34375l-5.02735 4.91016m5.02735-4.91016l2.33984.7461m11.0625-.65235l-5.19922 4.72266m5.19922-4.72266l2.3086.82813m9.28515-1.8672l-1.75781 6.80079m1.5039-5.8125l1.19141-.28516m13.8086.05078l-4.6211 5.29297m3.94922-4.52343l1.19531.27734"/><g clip-path="url(#U)"><path fill="none" stroke="#000" stroke-linecap="round" stroke-linejoin="round" stroke-miterlimit="10" stroke-width=".5" d="M147.39063 414.66797l-6.78125-1.83203"/></g><path fill="none" stroke="#000" stroke-linecap="round" stroke-linejoin="round" stroke-miterlimit="10" stroke-width=".5" d="M146.40625 414.40234l.27344 1.19532m13.55078.11718l-5.83203-3.92187m4.98437 3.35156l-.125 1.21875m13.95703-.23047l-5.16797-4.75781m4.41797 4.0664l-.3125 1.1875m12.91797.45313l-2.2539-6.65625m1.92968 5.6875l-.84375.89453m16.4961-1.67187l-6.27344-3.16797m13 2.2539l6.89844-1.33593m6.55078 1.82812l6.63281-2.32422m-5.66797 1.98828l-.90234-.83203m14.24219 2.64063l4.65234-5.26563m13.07031 5.46485l-4.16015-5.66407m16.41797 2.83204l-.01954-.19922-.05859-.1914-.09375-.1797-.46094-.375-.1914-.05859-.19922-.01953-.19922.01953-.1914.0586-.46094.375-.09375.17968-.0586.1914-.01953.19923.01953.19921.0586.19141.09375.17578.46093.3789.1914.0586.19923.01953.19922-.01953.1914-.0586.46094-.3789.09375-.17578.0586-.1914.01952-.19922m11.62891-3.44922l1.32422 6.89843m12.67969-6.96484l-.05078 7.02734m13.10156-7.01953l.47656 7.01172m-.40625-5.98828l1.03906-.64844m12.13672-.36718l.61328 7m10.92188-6.32813l4.17187 5.65625m9.26563-5.74219l3.92969 5.82813m-3.35938-4.98047l.57813-1.08203m16.39453.46094l-4.52735 5.37109m17.59766-5.5586l-4.03906 5.75m15.26172-6.38671l.14843 7.02343m-.1289-6.0039l1.07031-.59766m11.88281-.39844l.83203 6.97657m-.83203-6.97657l2.01172-1.40234m13.39453 1.80078l-3.35156 6.17578m3.35156-6.17578l2.45703.02344m10.59766-.15234l-2.82812 6.43359m2.82812-6.4336l2.44531-.17968m12.11328 1.09765l-5.3164 4.59766m4.54297-3.92578l1.14453.4414m13.0039-1.03906l-5.4375 4.45313m4.64844-3.80469l1.1289.47266m12.34766-1.71875l-4.18359 5.64843"/><g clip-path="url(#V)"><path fill="none" stroke="#000" stroke-linecap="round" stroke-linejoin="round" stroke-miterlimit="10" stroke-width=".5" d="M465.65234 410.92969l2.42579.36328"/></g><g clip-path="url(#W)"><path fill="none" stroke="#000" stroke-linecap="round" stroke-linejoin="round" stroke-miterlimit="10" stroke-width=".5" d="M146.58594 398.0586l-5.17188 4.7578"/></g><path fill="none" stroke="#000" stroke-linecap="round" stroke-linejoin="round" stroke-miterlimit="10" stroke-width=".5" d="M145.83203 398.75l1.16016.41016m6.85937 1.86328l6.92969-1.16797m-5.92188.9961l-.75-.97266M167.48048 402l6.29687-3.1211m-5.3789 2.66407l-.9961-.71485M181 402.35548l5.89063-3.83203m-5.03516 3.27344l-1.07031-.59375m12.97265-1.02344l7.00781.51953m6.33985-.8164l6.9375 1.11327m-5.92578-.95312l-.39844-1.16016m12.96875 2.9961l6.40625-2.88282m-5.47656 2.46485l-.96875-.7539m17.01953 3.21483l-.92578-6.96484m16.39453 5.82813l-5.23047-4.69532m18.44531 4.80079l-5.03125-4.90235m19.04297 1.02735l-6.42578 2.84765m18.78516-4.11719l-4.51172 5.38672m3.85547-4.60547l1.19921.25391m12.88282-.9375l-4.73438 5.1914m18.39063-4.83593l-5.41797 4.47656m4.6289-3.82422l1.13282.46875m11.50781-2.16797l-2.48828 6.57032m2.125-5.61329l1.21484-.15625m13.08985-.48828l-3.7422 5.94532m3.19923-5.07813l1.22265.08985m13.84375 3.71093l-6.15625-3.38672m5.25782 2.89454l-.01563 1.22656m13.69531-.00781l-5.08984-4.84375m4.34766 4.14062l-.32813 1.17969m14.1289-5.5625l-4.58202 5.32812m3.91796-4.55078l1.19532.26953m12.33594-1.375l-3.6836 5.98438m3.14844-5.11328l1.22265.07812m13.58204-.08203l-5.59375 4.25m4.78125-3.6289l1.11328.51171m12.51953-1.66015l-4.60156 5.30859m4.60156-5.3086l2.39062.54688m10.80079-.65234l-4.35547 5.51562m3.72265-4.71094l1.20703.21875m13.09766-.69921l-5.07031 4.86718m4.33203-4.16015l1.16797.38281m13.14844-.78125l-5.59375 4.25m4.78125-3.63281l1.11328.51562"/><g clip-path="url(#X)"><path fill="none" stroke="#000" stroke-linecap="round" stroke-linejoin="round" stroke-miterlimit="10" stroke-width=".5" d="M146.85938 385.07813l-5.71875 4.08984"/></g><path fill="none" stroke="#000" stroke-linecap="round" stroke-linejoin="round" stroke-miterlimit="10" stroke-width=".5" d="M146.85938 385.07813l2.1953 1.09375m-3.02734-.4961l1.09766.54688m12.22656-1.96485l-4.07422 5.73047m3.48047-4.89453l1.21875.15625m7.16406 1.46484l6.98047.81641m-5.96484-.69531l-.44922-1.14453m12.96875.14453l6.53906 2.57422m-5.58984-2.19922l-.13672-1.21875m12.50781 3.42969l6.53125-2.59766m-5.58203 2.21875l-.9336-.79297m17.78517 3.16797l-2.44141-6.58985m2.08594 5.63282l-.81641.91406m14.84766-.11328l-3.16407-6.27344m3.16407 6.27344l-1.41407 2.0039m15.57422-2.60156l-4.85156-5.08203m4.14453 4.34375l-.38672 1.16406m15.10156-1.35156l-6.24218-3.23047m5.33594 2.75781l.01171 1.22657m14.16407-.66797l-6.14844-3.40235m6.14844 3.40235l-.04297 2.45703m13.67187-3.23047l-6.77734-1.85547m5.79297 1.58594l.26953 1.19531m14.11719-2.35937l-6.95313 1.01172m5.9414-.86329l.72657.98829m13.53125-1.4922l-6.8125 1.72267m5.82031-1.47266l.82422.91015m13.07813-2.125l-6.00391 3.65235m5.13281-3.1211l1.05469.62891m13.39063-.64453l-6.51954 2.6211m5.57032-2.2422l.9375.79298m13.5078-.56641l-6.8828 1.41015m5.8828-1.20312l.78126.94531m13.53906.22656l-6.89453-1.34765m20.04688-.57422l-6.57032 2.4961m5.61328-2.13282l.92579.8086m12.54687-2.40625l-4.96875 4.96875m4.2461-4.2461l1.17187.35547m12.99219-.94531l-5.22266 4.69922m5.22266-4.69922l2.30468.83984m10.82032-1.03906l-4.83985 5.09765m4.83985-5.09765l2.36328.65625m10.42969-1.0625l-3.80079 5.91015m3.80079-5.91015l2.4453.20312m11.29298.11329l-4.64453 5.27734m4.64453-5.27735l2.38672.56641m10.8164-.65625l-4.42187 5.45703m3.78125-4.66406l1.20312.23438m13.70313.16406l-6.32032 3.07422m5.39844-2.625l.99219.72265"/><g clip-path="url(#Y)"><path fill="none" stroke="#000" stroke-linecap="round" stroke-linejoin="round" stroke-miterlimit="10" stroke-width=".5" d="M147.00781 371.99219l-6.01562 3.6289"/></g><path fill="none" stroke="#000" stroke-linecap="round" stroke-linejoin="round" stroke-miterlimit="10" stroke-width=".5" d="M147.00781 371.99219l2.10547 1.26172m-2.98047-.73047l2.10547 1.25781m12.25781-1.46875l-6.35937 2.99219m6.35937-2.99219l1.96094 1.46875m-2.88672-1.03516l.98047.73438m12.8711-1.80469l-5.58594 4.26563m5.58594-4.26563l2.23046 1.02344m11.8047 1.01172l-7.02345.19531m7.02344-.19531l1.21094 2.13281m10.99219.53125l-4.79688-5.13281m4.79688 5.13281l-.79688 2.32031m13.8711-2.11328l-4.31641-5.54687m4.3164 5.54687l-1.0039 2.23828m14.83594-2.73437l-5.35157-4.55469m5.35157 4.55469l-.53125 2.39844m13.90625-2.46875l-5.47266-4.41407m5.47266 4.41406l-.46485 2.40625m14.15235-2.97656l-6.21875-3.27344m6.21875 3.27344l.01172 2.45313m13.58203-3.14844l-6.77344-1.88281m5.78516 1.60937l.26562 1.19531m14.13672-2.30468l-6.97266.88281m5.95703-.7539l.70703 1m13.60157-1.28126l-6.92578 1.1875m5.91797-1.01562l.75.96875m13.45312-1.6289l-6.6875 2.16406m5.71484-1.84766l.87891.85156m13.48828-.875l-6.84765 1.57813m5.85156-1.34766l.80469.92578m13.55078-.9336l-6.9336 1.13282m5.92578-.96875l.7422.97656m13.58983-1.07031l-6.95703.99219m5.94532-.84766l.72265.99219m13.64063-.59375l-7.02735-.09766m6.00391.08594l.5625 1.08984m13.77734-1.08203l-7.02734-.08594m6.0039.07422l.5625 1.08985m13.38673-2.72266l-6.25391 3.20313m5.34765-2.73829l1.00391.70313m12.78906-1.8164l-5.39453 4.5m5.39453-4.5l2.27344.92577m10.46485-1.47656l-4.2422 5.60156m4.2422-5.60156l2.42187.38672m10.67578-.53906l-3.80469 5.90625m3.8047-5.90625l2.4453.20312m10.73829-.28515l-3.54297 6.07031m3.54296-6.07031l2.44922.09765m10.41407-.3203l-2.63672 6.51562m2.25-5.56641l1.22265-.1289m13.8086.1289l-5.30078 4.61719m4.53125-3.94531l1.14453.4375"/><g clip-path="url(#Z)"><path fill="none" stroke="#000" stroke-linecap="round" stroke-linejoin="round" stroke-miterlimit="10" stroke-width=".5" d="M146.33984 357.875l-4.67968 5.23828"/></g><path fill="none" stroke="#000" stroke-linecap="round" stroke-linejoin="round" stroke-miterlimit="10" stroke-width=".5" d="M146.33984 357.875l2.38282.58203m-3.0625.17969l1.1914.29297m13.53906-.13672l-6.14843 3.40234m6.14844-3.40234l2.05468 1.33984m-2.94922-.84375l1.02735.66797m13.42969-.60547l-6.64454 2.28125m6.64453-2.28125l1.79297 1.67578m-2.76172-1.34375l.89844.83594m13.52344.58594l-6.92188-1.22656m6.92188 1.22656l.7539 2.33594m-1.76171-2.51172l.3789 1.16406m13.48438.22266l-6.0039-3.64844m6.0039 3.64844l-.13672 2.44921m12.73047-1.59765l-4.5586-5.34766m4.5586 5.34766l-.90234 2.28125m.23828-3.0625l-.44922 1.14453m13.84375.03906l-3.39063-6.15234m3.39063 6.15234l-1.33985 2.05469m15.64453-2.86719l-5.37109-4.53125m4.58984 3.875l-.2578 1.19922m15.0039-1.69922l-6.66797-2.21484m6.66797 2.21484l.41016 2.41797m13.07812-3.30469l-7.01563-.4414m5.9922.375l.5078 1.11719m13.8086-1.70313l-6.97266.86328m6.97266-.86328l1.41015 2.00781m11.83204-2.40234l-6.82813 1.65234m5.83594-1.41406l.8164.91797m13.5-1.1211l-6.84374 1.58204m5.84765-1.35157l.80469.92579m13.59766-.42188l-7.02735.11328m6.0039-.09765l.59376 1.07421m13.67969-1.71093l-6.89454 1.35546m5.89063-1.16015l.77344.95312m13.60156-.71875l-7.00781.4961m5.98828-.42578l.65234 1.04296m13.6875-1.03515l-7.01953.33984m6-.29297l.625 1.0547m13.57422-1.91017l-6.75 1.95704m5.76953-1.67188l.85547.8789m13.19922-1.77343l-6.26563 3.17578m6.26563-3.17578l2.00781 1.41016m11.07813-1.80079l-5.8086 3.95704m5.8086-3.95704l2.17187 1.14063m10.73828-1.63281l-5 4.9375m5-4.9375l2.34375.73437m10.92188-.78515l-4.89844 5.03906m4.89844-5.03906l2.35547.68359m10.88671-.75l-4.7539 5.17578m4.7539-5.17578l2.375.61328m10.02735-1.22265l-2.92578 6.39062m2.5-5.46094l1.22265-.07031m13.17969-.46094l-4.2539 5.59375m3.63671-4.77734l1.21094.19531"/><g clip-path="url(#aa)"><path fill="none" stroke="#000" stroke-linecap="round" stroke-linejoin="round" stroke-miterlimit="10" stroke-width=".5" d="M143.13281 343.77344l1.73438 6.8086"/></g><g clip-path="url(#ab)"><path fill="none" stroke="#000" stroke-linecap="round" stroke-linejoin="round" stroke-miterlimit="10" stroke-width=".5" d="M143.13281 343.77344l1.8164-1.65235"/></g><path fill="none" stroke="#000" stroke-linecap="round" stroke-linejoin="round" stroke-miterlimit="10" stroke-width=".5" d="M156.92969 343.6875l.76953 6.98438m-.76953-6.98438l2.03125-1.38281m13.3125 1.76562l-3.28516 6.21485m3.28516-6.21485l2.45312-.0039m12.39453 1.60937l-6.35156 3.0039m6.35156-3.0039l1.96875 1.46875m11.4922 1.17578l-6.64454-2.28125m5.67969 1.94922l.1914 1.21094m12.56641.9961l-3.59766-6.03516m3.59766 6.03515l-1.27344 2.10156m14.3789-1.98437l-3.17968-6.26953m2.71484 5.35547l-.70312 1.0039m15.53516-.91015l-5.28516-4.6289m5.28516 4.6289l-.5625 2.39062m14.41797-3.21094l-6.36329-2.98828m6.36328 2.98829l.1211 2.44921m13.51953-3.77734l-7.01953-.33203m7.01953.33203l1.05078 2.21875m12.23438-2.88672l-6.95703 1.0039m5.9453-.85937l.72266.99219m13.58985-1.21484L287 347.7578m5.92187-.99219l.7461.97266m13.54687-1.3125l-6.86718 1.5039m5.86718-1.28515l.79297.9375m13.5664-.89844l-6.95702.98829m5.94531-.84375l.72266.99218m13.6328-.86328l-7.01562.4414m5.9961-.375l.64062 1.04298m13.59375-1.7461l-6.8125 1.71485m5.82031-1.46485l.82422.91016m13.58985-.26172l-7.02735-.08203m6.00391.07031l.5625 1.08985m13.70703-1.81641l-6.88672 1.39453m6.88672-1.39453l1.5586 1.89453m11.3125-3.02344l-6.00391 3.65235m5.13281-3.1211l1.05469.6289m12.45312-1.97265l-4.64453 5.27735m4.64453-5.27735l2.38672.57031m10.82422-.65625l-4.4336 5.44922m4.4336-5.44921l2.40625.47265m10.64844-.66406l-3.91797 5.83203m3.91797-5.83203l2.4414.25m10.87891-.25l-3.92578 5.83203m3.92578-5.83203l2.4375.2539m11.19922-.0078l-4.57031 5.33984m4.57031-5.33985l2.39453.53516m11.53906.15625l-5.80468 3.96094m4.96093-3.38672l1.08594.57031"/><g clip-path="url(#ac)"><path fill="none" stroke="#000" stroke-linecap="round" stroke-linejoin="round" stroke-miterlimit="10" stroke-width=".5" d="M140.91406 332.17969l6.17188 3.36719"/></g><path fill="none" stroke="#000" stroke-linecap="round" stroke-linejoin="round" stroke-miterlimit="10" stroke-width=".5" d="M154.32422 332.01953l5.98047 3.6875m-5.98047-3.6875l.15625-2.44922m.71484 2.98438l.07813-1.22266m12.5039.48047l5.70703 4.10156m-5.70703-4.10156l.32813-2.4336m.5039 3.03126l.16407-1.21875m12.73047.14453l4.8828 5.05469m-4.8828-5.0547l.7539-2.33202m18.3789 3.88671l-6.7539 1.94532m5.76953-1.66406l.85547.8828m10.47656 3.29688l-.8164-6.97656m.69531 5.96094l-1.00781.69922m15.1875.14843l-2.30469-6.64062m1.96875 5.67187l-.83594.90235m15.54297-.51953L235 331.1289m4.41406 5.46875l-.96484 2.2578m14.61719-2.5703l-5.09375-4.84375m5.09375 4.84375l-.65625 2.36328m14.82812-3.90625l-6.80469-1.75781m6.8047 1.7578l.57421 2.38673m12.84766-3.42188l-7.01953.3125m7.01953-.3125l1.25 2.10938m12.0625-2.14844l-7.01563.39062m5.9961-.33593l.63671 1.05078m13.70313-.94922l-7.02735.07812m6.00782-.0664l.58594 1.07422m13.74218-1.25782l-7.01172.42188m5.9922-.35938l.64062 1.04688m13.6953-.65625l-7.01171-.48438m5.98828.41407l.5 1.12109m12.92188 1.08203l-5.1797-4.75m4.42579 4.0586l-.3086 1.1875m11.48048.6289l.61328-7m11.33593.41016l3.34766 6.17969m14.32813-5.35157l-5.375 4.52344m4.59375-3.86719l1.13671.45703m11.94532-1.9414l-3.34766 6.17969m3.34766-6.1797l2.45312.01954m9.96485-.35547l-1.5547 6.85156m1.5547-6.85156l2.36718-.64453m10.70703.59765l-1.0703 6.94532m.91405-5.9336l1.16016-.40625m14.03125.17188l-4.51172 5.39062m3.85547-4.60546l1.19922.2539m13.1914-.625l-5.34765 4.5586m5.34765-4.5586l2.28125.90235m11.125-.78907l-5.53125 4.33594"/><g clip-path="url(#ad)"><path fill="none" stroke="#000" stroke-linecap="round" stroke-linejoin="round" stroke-miterlimit="10" stroke-width=".5" d="M466.32813 331.69531l2.24218.9961"/></g><g clip-path="url(#ae)"><path fill="none" stroke="#000" stroke-linecap="round" stroke-linejoin="round" stroke-miterlimit="10" stroke-width=".5" d="M140.67578 319.40625l6.64844 2.28516"/></g><path fill="none" stroke="#000" stroke-linecap="round" stroke-linejoin="round" stroke-miterlimit="10" stroke-width=".5" d="M153.91797 319.65625l6.79687 1.78125m-6.79687-1.78125l-.5664-2.38672m1.55468 2.64844l-.5664-2.39063m1.55468 2.64844l-.28125-1.19531m11.67969.46484l6.67187 2.20703m-6.67187-2.20703l-.41016-2.42187m1.38281 2.74219l-.41406-2.41797m1.38281 2.73828l-.20703-1.20703m11.5586.6328l6.71875 2.07032m-6.71875-2.07031l-.46094-2.40625m1.4414 2.71094l-.46484-2.41016m12.64844 2.95313l7.01953.3789m-7.01953-.3789l-1.03125-2.22657m14.79688.6914l6.12109 3.44923m-5.23047-2.94922l.02734-1.22656m13.59766 5.42968l3.71875-5.96093m-3.17969 5.09375l-1.22265-.08204M236.55469 324l1.30469-6.90625M236.55468 324l-2.34374.73047m16.91406-.72266l-1.20703-6.92187m1.20703 6.92187l-1.9375 1.50781m17.3164-2.67968l-5.33593-4.57422m4.5586 3.90625l-.26563 1.19922m15.1914-2.51563l-7.0039-.60937m5.98437.52344l.48047 1.1289m13.57031-2.7539l-6.4375 2.8125m5.50391-2.40235l.96094.76172m13.26953-1.21875l-6.39844 2.91016m20.02735-1.33985l-7.02344-.23437m6 .20312l.53906 1.10156m13.7461-1.80078l-6.91797 1.23047m5.91015-1.05078l.75781.96485m13.17579-2.23829l-6.14063 3.41407m5.2461-2.91407l1.03124.66407m9.05079-2.8047l2.11328 6.69923m9.41406-5.41016l5.6914 4.1211m-4.86328-3.52344l.16797-1.21485m17.70313.2461l-5.07813 4.85937m4.33985-4.15234l1.16406.38672m11.8086-1.85938l-2.91798 6.39063m2.91797-6.39063l2.44922-.14844m9.97266-.12109l-1.1289 6.9336m1.1289-6.9336l2.32422-.78906m9.47656.8711l1.89844 6.76562m-1.625-5.78125l.89062-.84766m12.94922 6.75781l.30078-7.01953m16.58203 2.6914l-6.83593 1.63673m6.83593-1.63672l1.625 1.83594m11.14453-3.04297l-5.74218 4.05078"/><g clip-path="url(#af)"><path fill="none" stroke="#000" stroke-linecap="round" stroke-linejoin="round" stroke-miterlimit="10" stroke-width=".5" d="M466.4336 318.52344l2.1875 1.10547"/></g><path fill="#ff3030" fill-rule="evenodd" d="M167.01563 454.33203h7.6914V444.1875h-7.6914v10.14453"/><path fill="azure" fill-rule="evenodd" d="M168.84766 446.01953h.83203v5.73828h3.19531V452.5h-4.02734v-6.48047"/><path fill="#00f" fill-rule="evenodd" d="M383.80078 432.14063h8.61719v-10.14454h-8.61719v10.14454"/><path fill="azure" fill-rule="evenodd" d="M385.63281 423.82813h.83203v2.82421h3.28907v-2.82421h.83203v6.48046h-.83203v-2.91796h-3.28907v2.91796h-.83203v-6.48046"/><path fill="#ff3030" fill-rule="evenodd" d="M295.72656 414.38672h7.69531v-10.14453h-7.6953v10.14453"/><path fill="azure" fill-rule="evenodd" d="M297.5586 406.07422h.83593v5.74219h3.1914v.73828h-4.02734v-6.48047"/><path fill="#ff3030" fill-rule="evenodd" d="M344.55078 405.51172h7.6914v-10.14453h-7.6914v10.14453"/><path fill="azure" fill-rule="evenodd" d="M346.38281 397.19922h.83203v5.73828h3.19532v.74219h-4.02735v-6.48047"/><path fill="#00f" fill-rule="evenodd" d="M370.48438 401.07422h8.62109v-10.14844h-8.6211v10.14844"/><path fill="azure" fill-rule="evenodd" d="M372.3164 392.76172h.83594v2.82031h3.28516v-2.82031h.83203v6.47656h-.83203v-2.91406h-3.28516v2.91406h-.83593v-6.47656"/><path fill="#ff3030" fill-rule="evenodd" d="M224.71484 361.1289h7.69141v-10.14843h-7.6914v10.14844"/><path fill="azure" fill-rule="evenodd" d="M226.54688 352.8164h.83203v5.73829h3.1953v.73828h-4.02733v-6.47656"/><path fill="#ffffe0" fill-rule="evenodd" d="M415.40625 423.4961h22.17969v-10.19141h-22.17969v10.1914"/><path fill-rule="evenodd" d="M418.90625 415.13672h.50781v6.29687h-.78515v-4.49218h-1.39063v-.5547l.5625-.0664.25-.05078.23047-.08984.20313-.14453.17187-.20704.14453-.29687.10547-.39453m4.8125 0l.23047.01953.21875.05469.20703.08984.19531.1211.1875.14843.16797.17578.30469.42188.24219.49219.17968.54687.11329.57813.03515.58984-.03515.59375-.11329.58594-.17968.55469-.2422.5-.30468.42968-.16797.17969-.1875.15234-.19531.125-.20703.08985-.21875.0586-.23047.01952-.23047-.01953-.21875-.0586-.20703-.08984-.19531-.125-.1836-.15234-.17187-.17969-.30078-.42969-.2461-.5-.17968-.55468-.10938-.58594-.03906-.59375h.83203l.03125.5664.07813.50391.1289.4414.16016.375.1914.30079.21094.22266.22266.13671.22656.04688.22656-.04688.22266-.13671.21094-.22266.1914-.30078.16016-.375.1289-.4414.08204-.50391.02734-.56641-.02734-.5586-.08204-.5-.1289-.4375-.16016-.36327-.1914-.29297-.21094-.21485-.22266-.13281-.22656-.04297-.22656.04297-.22266.13281-.21094.21485-.1914.29296-.16016.36329-.1289.4375-.07813.5-.03125.55859h-.83203l.03906-.58984.10938-.57813.17968-.54687.2461-.4922.30078-.42187.17187-.17578.1836-.14844.19531-.12109.20703-.08984.21875-.05469.23047-.01953m4.95313 0l.23046.01953.21875.05469.20704.08984.1953.1211.1836.14843.17188.17578.30468.42188.2422.49219.17968.54687.10937.57813.03907.58984-.03907.59375-.10937.58594-.17969.55469-.24219.5-.30468.42968-.17188.17969-.1836.15234-.1953.125-.20704.08985-.21875.0586-.23046.01952-.23047-.01953-.21875-.0586-.20704-.08984-.1953-.125-.1836-.15234-.17188-.17969-.30468-.42969-.2422-.5-.17968-.55468-.10937-.58594-.03907-.59375h.83204l.02734.5664.08203.50391.1289.4414.16016.375.1914.30079.21095.22266.22265.13671.22656.04688.22657-.04688.22265-.13671.21094-.22266.1914-.30078.16016-.375.12891-.4414.07813-.50391.03125-.56641-.03125-.5586-.07813-.5-.1289-.4375-.16016-.36327-.1914-.29297-.21095-.21485-.22265-.13281-.22656-.04297-.22657.04297-.22265.13281-.21094.21485-.1914.29296-.16016.36329-.12891.4375-.08203.5-.02735.55859h-.83203l.03907-.58984.10937-.57813.17969-.54687.24219-.4922.30468-.42187.17188-.17578.1836-.14844.1953-.12109.20704-.08984.21875-.05469.23046-.01953m4.95313 0l.38672.02734.35937.08203.32032.13672.28125.1875.23046.23828.17188.28516.10938.33203.03906.3789-.02344.27344-.05469.23438-.08984.19922-.10938.17187-.1328.14454-.13673.12109-.28906.19531.23438.1211.20703.14453.17968.17187.15625.19531.1211.21094.09375.23047.05469.2461.01953.2539-.03516.3086-.10156.32812-.17188.32422-.24219.30469-.30468.26953-.375.21484-.21094.08203-.23047.0625-.24219.03516-.26171.01562-.26172-.01562-.23829-.03516-.22656-.0625-.20312-.08203-.35938-.21484-.28906-.26954-.22266-.30468-.16015-.32422-.08985-.32813-.03125-.30859h.83204l.02734.2539.07812.23438.1211.21094.16015.1875.19532.15234.21875.11328.24218.07422.25391.02344.2539-.02344.2422-.07422.21874-.11328.19141-.15234.16016-.1875.125-.21094.07812-.23437.02735-.25391-.02735-.2539-.07812-.23438-.125-.21094-.16016-.1836-.1914-.15234-.21876-.11718-.24218-.07032-.25391-.02734-.2539.02734-.2422.07032-.21874.11718-.19532.15235-.16015.1836-.1211.21093-.07812.23437-.02735.25391h-.83203l.01954-.2539.05468-.23829.08985-.22656.125-.20703.15234-.1914.1836-.17188.20702-.15235.23047-.1328-.28515-.19532-.14063-.1211-.1289-.14453-.11329-.17187-.08593-.19922-.0586-.23438-.01953-.27343h.78516l.02344.21484.0664.1875.10547.16797.13672.14063.16406.10937.1875.08203.20703.05078.22266.01563.21875-.01563.20703-.05078.1875-.08203.16797-.10938.13672-.14062.10156-.16797.0664-.1875.02344-.21484-.02343-.21485-.0664-.1914-.10157-.16797-.13672-.14063-.16797-.10937-.1875-.08203-.20703-.05078-.21875-.01563-.22266.01563-.20703.05078-.1875.08203-.16406.10937-.13672.14063-.10547.16797-.0664.1914-.02344.21485h-.78516l.03906-.3789.10938-.33204.17188-.28516.23046-.23828.27735-.1875.32422-.13672.35937-.08203.38672-.02734"/><path fill="#ffffe0" fill-rule="evenodd" d="M337.30469 336.52344h22.17969v-10.1914h-22.1797v10.1914"/><path fill-rule="evenodd" d="M340.80469 328.16406h.50781v6.29297h-.78516v-4.48828h-1.39062v-.55469l.5625-.0664.25-.0547.23047-.08983.20312-.14063.17578-.20703.14063-.29688.10547-.39453m4.8125 0l.23047.01953.21875.0547.20703.08983.19922.1211.18359.14844.17188.17578.30078.42187.24218.49219.1797.54688.11327.57812.03906.58984-.03906.59375-.11328.58594-.17969.55469-.24218.5-.30079.42969-.17187.17968-.1836.15235-.19921.1211-.20703.09374-.21875.0586-.23047.01953-.22656-.01954-.21875-.05859-.21094-.09375-.19531-.1211-.1836-.15234-.17187-.17968-.30079-.4297-.24218-.5-.1836-.55468-.10937-.58594-.03906-.59375h.83203l.03125.56641.08203.5039.125.44141.16406.375.1875.30078.21094.22266.22265.13672.22657.04687.22656-.04687.22266-.13672.21093-.22266.19141-.30078.16406-.375.125-.4414.08203-.50391.02735-.5664-.02735-.5586-.08203-.5-.125-.4375-.16406-.36719-.1914-.28906-.21094-.21484-.22266-.13282-.22656-.04296-.22656.04296-.22266.13282-.21094.21484-.1875.28906-.16406.36719-.125.4375-.08203.5-.03125.5586h-.83203l.03906-.58985.10937-.57813.1836-.54687.24219-.49219.30078-.42187.17187-.17578.1836-.14844.1953-.1211.21094-.08984.21875-.05469.22657-.01953m5.09375 0h.50781v6.29297h-.78516v-4.48828h-1.39062v-.55469l.5625-.0664.25-.0547.23047-.08983.20312-.14063.17188-.20703.14453-.29688.10547-.39453m2.82422 2.17578h.78515l.01953-.3164.0586-.28516.10156-.2539.14063-.21485.17968-.17578.22266-.1289.26562-.07813.3086-.02735.23828.01954.22265.0625.20313.10156.17969.14062.14844.17188.11328.20703.0703.23438.02735.26562-.02344.26953-.0664.22266-.10938.1914-.15234.17188-.20313.16406-.24609.16406-.63281.39063-.53906.3125-.4375.3164-.34766.32422-.26172.33594-.1914.35156-.125.3672-.07032.39452-.01953.41797h4.21094v-.73828h-3.33203l.08203-.28516.11719-.23828.14843-.19922.1836-.17968.23437-.17188.27735-.17578.71484-.41797.41797-.20312.34375-.23047.28125-.2539.21875-.26563.16406-.27735.11328-.28515.0625-.28516.01953-.28125-.04296-.38281-.1172-.34766-.1914-.3086-.25-.26171-.30078-.21485-.34766-.15625-.3789-.09765-.40625-.03516-.4375.03125-.39453.10156-.35547.16407-.30469.23437-.25.30469-.1836.375-.11718.44531-.03906.51953"/><path fill="#ffffe0" fill-rule="evenodd" d="M160.5586 419.0586h22.18359v-10.19141h-22.1836v10.1914"/><path fill-rule="evenodd" d="M164.0586 410.69922h.51171v6.29297h-.78906v-4.48828h-1.38672v-.5547l.5586-.0664.2539-.05469.22656-.08984.20313-.14062.17578-.21094.14063-.29297.10546-.39453m4.81641 0l.22656.01953.21875.05469.21094.08984.19531.1211.1836.14843.17187.17578.30078.41797.24219.4961.17969.54687.11328.57813.03906.58984-.03906.59375-.11328.58594-.17969.55469-.24219.5-.30078.42968-.17187.17969-.1836.15234-.19531.1211-.21094.09375-.21875.0586-.22656.01952-.23047-.01953-.21875-.0586-.20703-.09374-.19922-.1211-.1836-.15234-.17187-.17969-.30078-.42969-.24219-.5-.17968-.55468-.11328-.58594-.03907-.59375h.83594l.02734.5625.08203.50781.125.4414.16407.375.1914.30079.21094.22266.22266.13671.22656.04688.22656-.04688.22266-.13671.21094-.22266.1875-.30078.16406-.375.125-.4414.08203-.50782.03125-.5625-.03125-.5586-.08203-.5039-.125-.4336-.16406-.36718-.1875-.28906-.21094-.21485-.22266-.13281-.22656-.04297-.22656.04297-.22266.13281-.21094.21485-.1914.28906-.16406.36719-.125.43359-.08204.5039-.02734.5586h-.83594l.03906-.58984.11329-.57813.17968-.54687.2422-.4961.30077-.41797.17188-.17578.1836-.14844.19921-.12109.20703-.08984.21875-.05469.23047-.01953m5.08984 0h.50782v6.29297h-.78516v-4.48828h-1.39063v-.5547l.5625-.0664.25-.05469.23047-.08984.20313-.14062.17578-.21094.14063-.29297.10546-.39453m2.82422 2.17578h.78516l.01953-.3164.0586-.28516.10156-.2539.14062-.21485.17969-.17578.22266-.12891.26562-.07813.3086-.02734.23827.01953.22266.0625.20313.10156.17968.14063.14844.17188.11328.20703.07422.23437.02344.26563-.01953.26562-.0664.22656-.11329.19141-.15234.17188-.20313.16015-.2461.16797-.6328.39063-.53907.3125-.4375.3164-.34375.32422-.26562.33594-.1914.35156-.125.36719-.06642.39453-.02343.41797h4.21484v-.73828h-3.33594l.08594-.28516.11328-.23828.14844-.19922.1875-.17969.23047-.17187.27734-.17578.71875-.41797.41406-.20313.34375-.23047.28125-.2539.22266-.26563.16016-.27734.11328-.28516.0625-.28515.01953-.28125-.03906-.38282-.1211-.34765-.1914-.3086-.25-.26171-.30078-.21485-.34766-.15625-.3789-.09765-.40626-.03516-.43359.03125-.39844.10156-.35547.16406-.30468.23438-.25.30469-.1836.375-.11719.4453-.03906.51954"/></g></defs><use xlink:href="#ag"/></svg>