<svg xmlns="http://www.w3.org/2000/svg" role="img" xmlns:xlink="http://www.w3.org/1999/xlink" viewBox="142.45 309.95 326.84 171.84"><defs><clipPath id="a"><path d="M144 311.67188h1V480h-1zm0 0"/></clipPath><clipPath id="b"><path d="M144 479h2v1.32813h-2zm0 0"/></clipPath><clipPath id="c"><path d="M144 311.67188h324v168.65625H144zm0 0"/></clipPath><clipPath id="d"><path d="M217 477h11v3.32813h-11zm0 0"/></clipPath><clipPath id="e"><path d="M380 467h25v13.32813h-25zm0 0"/></clipPath><clipPath id="f"><path d="M399 474h4v6.32813h-4zm0 0"/></clipPath><clipPath id="g"><path d="M467 311.67188h1v168.65625h-1zm0 0"/></clipPath><clipPath id="h"><path d="M144 479h4v1.32813h-4zm0 0"/></clipPath><clipPath id="i"><path d="M147 480h2v.32813h-2zm0 0"/></clipPath><clipPath id="j"><path d="M146 480h2v.32813h-2zm0 0"/></clipPath><clipPath id="k"><path d="M153 479h9v1.32813h-9zm0 0"/></clipPath><clipPath id="l"><path d="M160 480h2v.32813h-2zm0 0"/></clipPath><clipPath id="m"><path d="M159 480h2v.32813h-2zm0 0"/></clipPath><clipPath id="n"><path d="M166 479h9v1.32813h-9zm0 0"/></clipPath><clipPath id="o"><path d="M173 480h2v.32813h-2zm0 0"/></clipPath><clipPath id="p"><path d="M180 479h8v1.32813h-8zm0 0"/></clipPath><clipPath id="q"><path d="M187 480h2v.32813h-2zm0 0"/></clipPath><clipPath id="r"><path d="M193 479h8v1.32813h-8zm0 0"/></clipPath><clipPath id="s"><path d="M206 479h9v1.32813h-9zm0 0"/></clipPath><clipPath id="t"><path d="M213 480h2v.32813h-2zm0 0"/></clipPath><clipPath id="u"><path d="M220 478h8v2.32813h-8zm0 0"/></clipPath><clipPath id="v"><path d="M233 478h8v2.32813h-8zm0 0"/></clipPath><clipPath id="w"><path d="M247 478h7v2.32813h-7zm0 0"/></clipPath><clipPath id="x"><path d="M260 478h8v2.32813h-8zm0 0"/></clipPath><clipPath id="y"><path d="M275 477h5v3.32813h-5zm0 0"/></clipPath><clipPath id="z"><path d="M286 478h8v2.32813h-8zm0 0"/></clipPath><clipPath id="A"><path d="M303 476h2v4.32813h-2zm0 0"/></clipPath><clipPath id="B"><path d="M314 477h6v3.32813h-6zm0 0"/></clipPath><clipPath id="C"><path d="M327 478h7v2.32813h-7zm0 0"/></clipPath><clipPath id="D"><path d="M340 478h7v2.32813h-7zm0 0"/></clipPath><clipPath id="E"><path d="M340 480h2v.32813h-2zm0 0"/></clipPath><clipPath id="F"><path d="M353 479h8v1.32813h-8zm0 0"/></clipPath><clipPath id="G"><path d="M353 479h2v1.32813h-2zm0 0"/></clipPath><clipPath id="H"><path d="M366 478h8v2.32813h-8zm0 0"/></clipPath><clipPath id="I"><path d="M379 479h9v1.32813h-9zm0 0"/></clipPath><clipPath id="J"><path d="M380 479h2v1.32813h-2zm0 0"/></clipPath><clipPath id="K"><path d="M393 478h8v2.32813h-8zm0 0"/></clipPath><clipPath id="L"><path d="M393 480h3v.32813h-3zm0 0"/></clipPath><clipPath id="M"><path d="M406 479h8v1.32813h-8zm0 0"/></clipPath><clipPath id="N"><path d="M406 479h3v1.32813h-3zm0 0"/></clipPath><clipPath id="O"><path d="M420 478h7v2.32813h-7zm0 0"/></clipPath><clipPath id="P"><path d="M420 480h2v.32813h-2zm0 0"/></clipPath><clipPath id="Q"><path d="M434 477h6v3.32813h-6zm0 0"/></clipPath><clipPath id="R"><path d="M448 476h4v4.32813h-4zm0 0"/></clipPath><clipPath id="S"><path d="M459 479h9v1.32813h-9zm0 0"/></clipPath><clipPath id="T"><path d="M460 479h2v1.32813h-2zm0 0"/></clipPath><clipPath id="U"><path d="M144 466h4v2h-4zm0 0"/></clipPath><clipPath id="V"><path d="M144 452h4v4h-4zm0 0"/></clipPath><clipPath id="W"><path d="M144 438h4v5h-4zm0 0"/></clipPath><clipPath id="X"><path d="M144 424h4v6h-4zm0 0"/></clipPath><clipPath id="Y"><path d="M465 423h3v2h-3zm0 0"/></clipPath><clipPath id="Z"><path d="M144 411h4v5h-4zm0 0"/></clipPath><clipPath id="aa"><path d="M466 412h2v3h-2zm0 0"/></clipPath><clipPath id="ab"><path d="M144 399h4v3h-4zm0 0"/></clipPath><clipPath id="ac"><path d="M466 398h2v3h-2zm0 0"/></clipPath><clipPath id="ad"><path d="M144 386h4v2h-4zm0 0"/></clipPath><clipPath id="ae"><path d="M465 384h3v2h-3zm0 0"/></clipPath><clipPath id="af"><path d="M144 372h4v4h-4zm0 0"/></clipPath><clipPath id="ag"><path d="M466 371h2v2h-2zm0 0"/></clipPath><clipPath id="ah"><path d="M144 358h3v5h-3zm0 0"/></clipPath><clipPath id="ai"><path d="M465 357h3v3h-3zm0 0"/></clipPath><clipPath id="aj"><path d="M144 343h2v8h-2zm0 0"/></clipPath><clipPath id="ak"><path d="M144 341h2v4h-2zm0 0"/></clipPath><clipPath id="al"><path d="M144 331h3v6h-3zm0 0"/></clipPath><clipPath id="am"><path d="M144 317h3v7h-3zm0 0"/></clipPath><clipPath id="an"><path d="M466 318h2v3h-2zm0 0"/></clipPath><g id="ao" clip-path="url(#clip1)"><path fill="#fff" fill-opacity="0" fill-rule="evenodd" d="M0 0h1000v1000H0zm0 0"/><path fill="#d3d3d3" fill-opacity="0" fill-rule="evenodd" d="M162.15234 355.86719l-.23437.29297.0586.23437.11718.17188.17578.23437.29297.34766.11328.0586.11719-.17188.0586-.23438.17577-.17578.46485-.17578h.69922l.23437.29297.28906.8164.0586.17579.17578.23046.35156.23438.69922.69922.17188.17578.23437.34765.23438.41016.28906.58203.41015.46485.23047.23437.23438.17578.11719.23047.17578.29297.17187 1.16406v.23438l.0586.28906.05859.11719.11719.11719.34765.41015.11719.17188.17578.17578.17578.23437.11719.17188.17188.35156.05859.23438.23437.40625.23438-.0586-.17578.17578-.0586.92969h-.58203l-.23437-.11328-.34766.11328-.11719.11719-.05859.29297-.0586.17578-.11718.17187-.46484.29297-.0586.23438-.0586.11328v.64453l.0586.17187v.41016l.0586.0586v.40624l.05859.40625.11719.17579.05859.05859.23047.64062-.0586.29297v.69922l-.05859.58203v.23438l-.0586.23047-.05468.35156v1.92187l.05469.1172h.42578l-.36719.11718-.02344.35156.89063 1.16797 1.74219.53906 1.33984.35938v.53906l.08984.8086.53516.71484 1.51953.26953.89063-.08594.08984 1.16406.53516.1797 1.16015-.1797 2.05469-.98437 1.16016-.36328 1.8789-.17578 1.69531-.1797-.17968.71876-1.51563.08594-1.25.08984-.80469.26953-1.07421.8086.26953.71875.53515.89843-.17968.625-.26563.8086.26563 1.07812.625.89844.80468.17969 1.25-.1797-.26562.72267.09766.5039.05468.29297v.17188l.0586.29296v.40625l.17578.1172.35156.11718h.40625l.29297-.17578.11328-.11719.0586-.11719.11718-.23047.0586-.17578.35156-.46484.23047-.17578.17578-.0586.17578.0586.0586.17578.11718.98828.05469.46875.0586.17188.11718.23437.17578.0586.8164.05859h.28907l.11719.23437.05859.40625.0586.35156v1.10547l.11718.29297.11719.34766.28906.69922.17578.35156.58203.7539.35157.17579.17187.0586.46875.23437.64063.46484.34765.23438.29297.17578.29297.05468.23047.0625.8164.34766.29297.17578.11328.17188.35157.35156.11719.17578.52343.64063v.28906l.0586.35156v.34766l.05859.35156.0586.28906.11718.0586.17188.05859h.17578l.58203.23437.17578.1172.17578.28905.17578.23438.11328.23437.29297.23047.11719.11719v.41016l.0586.05468.28906.23438.23437.11719.0586.11718.11718.17188.0586.11719.23047.23437.05859.17578.23437.0586.1172.05859-.1172.11328-.05859.11719v.11719l-.11719.29296-.11719.28907v.58203l.17579.11719.11718.05859.0586.11719.11719.11719.11328.05859.17578.34765.0586.35157.05858.40625v.17578l-.05859.17578-.11719.69922v.17187l.1172.17579.29296.29296h.40625l.17578.1172.11719.17187.11719.29296v.23438h-.52735l-.23047-.23438h-.23437l-.17578.0586-.0586.69922.0586.34765.11719.17579.17578.41015.11718.23047.28907.46875.17578.05469h.52344l.23437.0586.75781.64062.0586.29296v.23438l.05859.0586.23047.34765v.35156l-.11719.17188v.29297l.29297.28906.29297.17578.17187.0586.29297.17577.29297.1172.58203.40624.28906.23438.29297.17578.21875.16015.01563.01172.23047.17579.64062.52343.17578.23438.1172.17578.17577.17578.11328.17188v.64062l.1172.17578.46874.11719.58203.11719.23438.05859.23047.11328.29297.11719.11328.0586.58593.35156.28907.17187.17578.0625.17578.05469.17578.0586.69922.35155.28906.17579.23438.05468.28906.17578.23437.1172.64063.40624.29297.11719.17187.0586.23438.05859.41015.05859.23047.0586.23438.11718.0586.17188-.41017.17578.46875.0586.0586.29296.11328.23438.17578.05468.23438.0586.17578.05859.40625.11719.64062.23437.11719.17188.0586.23437v.17578l-.0586.1172-.0586.40624.23438.23438.11719.05859.34766.11719.64062.23047.17578.11718.28906.1172.17578.17577.23438.46485.58203 1.10546.17578.17579.34766.17578.17578.11719.35156.11718 1.04688.52344.23437.0586.46485.11327.29297.0586.46484.17578.75781.58203.23438.23438.34765.46484.17578.17578.28907.23438.8164.69921.29297.17579.28906.28906.29297.17578.29297.28906.69531.64063.17578.17578.29297.23437.28907.23438.46875.28906.64062.58203.34766.23438.23437.29297.34766.34765.35156.46485.9336.99218.34765.40625.11719.17579.23437.05859.11328.11719.64454.17578.23047.11328.23437.0586.29297.17577.23047.1172.9336.69921.40624.40625.23438.17578.40625.17578.23437.11719.8164.34766.34766.23437.23438.11719.29297.28906.23047.11719.7578.35156.35157.17188.23047.05859.29297.11719.23437.0586.8711.17577h.8164l.46875.23047.17188.0586.875.69921.46484.1172.29297.05858.17578.0586.23047.0586.46875.05859.34766.05859.35156.0586.40625.05859h.29297l.17187.0586v.23046l.17578.17578h.29297l.34766.0586.35156.05859.69922.11719h.64063l.46484-.23438.29297-.17578.17187-.11719.41016-.17187.28906-.17578.9336-.46485.46875-.29297.52343-.29296.46485-.17188.46484-.17578 1.05078-.46485.28906-.11718.41016-.11719.28906-.11719.52735-.17578 1.51562-.69922.58203-.34765.28907-.0586.29297-.0586.34765-.11718.875-.23047.35156-.11719h.11329l.23437-.05859.875-.23437.23438-.0586h.8125l.35156-.0586.8164-.11718.17188-.0586.35156-.05468.29297-.0586.23047-.05859.8164-.17578.17579-.0586h.34765l.23438-.05859.46484-.11718.75781-.17188.23438-.0586h.34765l.41016-.11718.28906-.0586 1.28516-.05859h.28906l.41016-.0586.23047-.05858h.17578l.875-.1172h.40625l.41015-.11718h.34766l.35156-.11328.8711-.0586h1.75l1.04687.28907.41016.11719.28906.11718.35156.11719.28907.11719 1.05078.17187.28906.0586h.29297l.29297.05859.17187.0586.41016.05859.17187.0586.1172.05858h.11718l.11719.0586.35156.0586h.11328l.41016.0664 1.92187.39453 1.92578.39453 1.51953.44922 1.69532.71875 2.14453.80469 1.60547-.71875 1.42968-.80469 1.16016-1.07813 1.25-.44921 3.03516-.71875 1.875-.35938 2.14453-1.34765 2.23437-1.25391 2.5-1.25781 1.69531-.44922 1.78516-.17969 1.16016-.26953.625.53906 1.33984-.26953.71485-.98828.98437-1.34375.44531-.17969.80469-.35937 1.875-.53907 1.78516-.44921 1.25-.26954 1.16015-.08984 1.69922-.08984 1.96094-.26954 1.25-.08984h.53906l.625-.08984h.89063l2.14453-.17969 2.41015-.17969 2.58985-.08984 1.69531.17969 1.60938.08984 1.42968.35938 1.16016.71875 1.875.98828 1.16015 1.52734.26563.71484.6289.08985.35548.89844.53515.53906.53516 1.52734 1.07422.35938h.53515l-.80469.53515.08985 1.70703.71484 2.69532.89063.80468.89453.98829.71484 1.2578 1.78516.53907 1.51953-.17969.35547 1.34375 1.60937-.80469.98047-.53906.26953.26953.31641-.21484.21875-.14453.80078.44922.44922-.35938h.35547l.53515-.26953.53907-.71875.53515-.26953.625-.98828 1.16016.44922.83984.3711 1.39454.61718 1.6953-.17969h1.60548l1.78515.08985.17969-1.70704.53516-1.34375.80468.26954.4922.84765.40233.40625-.08984.53906v.35938l.71485.44922.71093-.26953h1.42969l.35938.98828.4453 1.25781.71485 1.34375 1.25.6289 1.69531.62891.71485-.17969.17969-.53906.98046-.08984.44922.35937.08594 1.25782-.26563.6289-.53515.17969v.53906l.71484.98438.26563.53906.98437.98828.80078 1.07813-.26562.35937-.08985.89844-.625 2.33203-.35546 2.0664-.08985 1.79298-.17969.71875-.08984.53906v1.4375l-.98047 1.88281-.35937 1.70703-.53516.89844-.80469 1.16797-.26562.53906 2.05469 1.2539.08593.35938-.35546.53906-.08985-.17968v.80859l.08985 1.4375-.44532.71484-1.07422.09375-.26562.71485.53515.89844.8047.71875 1.16015.80859 1.33984.26953.44531.35938-.35546.44921-1.78907-.08984-1.25-.44922-.71484-.71875-.625-.08984-.17578 3.58984-.1875 1.3086h89.35937V311.70313h-55.26953v49.08203l.76172.125 3.28906.54296 2.02344 2.83594v2.7539l2.35156.33204 2.34766.33203h4.05078l-1.3789 4.16016-2.02344.70703-2.02344.70312-.54297.34375-2.59375 1.6172-.1875.11718-2.02344-2.07813-.73046-2.74218-2.67188-2.07813-1.375-3.5-.0664-.08203-1.95704-2.67188 2.75-1.41796v-49.08204H294.42187v91.41407l.1172.03125.1328.01172.07422.07421.10547.04688.08985.0586.08593.05859.08985.0586.29687.29687.0586.08984.03125.11719.02734.11719.01563.13671-.03125.1172-.0586.08983-.0586.08594-.04296.10547-.04688.10156-.02734.1211v.14453l.17578.26953.14844.14844.07422.08594.07422.07421.04296.10547.0625.08985.0586.08593.04297.10547.0586.08985.04687.10156.04296.10547.0586.08594.11719.17968.07421.07422.0625.08594.0586.08984.04297.10547.0586.08985.05858.08593.0625.08985.0586.08984.04297.10156.11719.17969.07421.07422.0586.08594.07422.07421.08984.0586.10547.04687h.14844l.1328-.01562.13282.01562.10156-.04687.07422-.07422.04688-.10156-.01563-.13281v-.14844l-.04687-.10547-.02735-.11719-.04687-.10156-.02735-.1211-.04296-.10156-.0625-.08984-.04297-.10156-.04297-.10547-.03125-.11719-.01563-.13281-.01171-.13672.08593-.0586.0586-.08593.12109-.03125.04297.10547.01562.1328v.1172l.0586.10156.0586.08984.08983.0586.14844.14843.0586.08985.04296.10547-.01171.10156.08593.0586.10547.04687.08594.0586.08984.05858.07422.07422-.11719.02735-.10546.04687-.08594.0586-.07422.07421-.0586.08985-.0625.08594-.02734.12109-.04687.10156-.04297.10547-.03125.11719-.01172.13281-.01563.13281v.14844l.02735.11719.04687.10547.04297.10156.0586.08984.07421.07422.08985.0586.07422.07421.08984.0586.0586.08984.04296.10547.04688.10156.11719.03125.1328.01563h.14845l.11718-.03125.10547.04297.04297.10547.04688.10156.02734.1211L299.5 410l.02734.11719.03125.1211.02735.11718.10547.04297.10156.04687.13281-.01562.14844.14844.0625.08593.07422.07422.07031.07422.08984.0625.10547.04297.10156.04297.1172.03125.13671.01562.11719-.03125.07422-.07422.02734-.11718-.01172-.13282-.03125-.12109-.02734-.11719.04297-.10547h.11719l.08984.0625.11719.02735h.14843l.13282.01562h.14843l.13282.01563.1328-.01563h.14845l.1328-.01562.13282-.01172.13672.01172.11719-.02735.13281-.01562.1914-.0586-.05859.17579-.01562.1328-.02735.1211-.01562.13281-.0586.08594-.1328.01563-.10548.04687-.10546.04297-.1172.03125-.11718.02735-.26563.03125h-.14843l-.13281.01562-.07422.07422.05859.08594.14844.14843.11719.1797.07421.0703.08985.0625.08984.0586.08594.0586.08984.05858.10156.04297.10547.0625.10547.04297.08594.0586.10547.04687.10156.04297.17969.11719.0586.08984-.04298.10156-.04687.10547.01562.13281.22266.22266.0586.08985.04296.10156.03125.1211.04297.10155.01563.13282.03125.11718.01171.13672.03125.11719.14844.14844.10156.04297.10547.04296.1172.03125.1328.01563.13672.01563h.11719l.11719-.03125.08984-.0586.04297-.10547.04688-.10156.04296-.10547.03125-.11719.01172-.1328v-.14845l-.01172-.1328-.01562-.13282-.03125-.11719-.04297-.10547-.04688-.10547-.04296-.10156-.04297-.10547-.01563-.13281.01563-.13281.02734-.11719.03125-.11719.02735-.1211.04687-.10155.08984-.0586.08594-.0625.07422-.07422.08984-.05859.22266-.22266.0586-.08593.07421-.07422.11719-.17969.0586-.08594v-.14844l-.07423-.07421-.10156-.04688-.10547-.04297-.10156-.04297-.0586-.08984-.04687-.10547-.02734-.11719.08984-.05859.11719-.03125.10156-.04297.17969-.11719.14844-.14843.01172-.13282-.01172-.10546-.08985-.0586-.1328.01563h-.14845l-.1328.01562-.13282-.01562-.1211-.03125-.08593-.0586-.07422-.07422-.0586-.08984-.0625-.08594-.11718-.17969-.0586-.08593.03125-.1211.08594-.05859.1211-.03125.05859-.08594v-.1211l-.03125-.11718-.0586-.08984-.05859-.08594-.04687-.10547-.02735-.11719-.01562-.1328.0586-.08985.07421-.07422.08984-.0586.1172-.17968.07421-.07422.0586-.08594.14843-.14844.1211-.03125.1328-.01562.13282.01562.07422.07422.04297.10547.01562.13281-.03125.1172-.11719.03124-.1328.01172-.14844.14844-.04297.10547-.04688.10156-.02734.1211-.03125.11718v.14844l.03125.11719.04297.10546.05859.08985.07422.07031.07422.07422.11719.03125.12109.02734.11719-.02734.1328-.01563h.1172l.08984.0586.07422.07422.04687.10546.0586.08594.10156.04688.13281.01562.10547.04297.08594.0586-.01172.10546-.07422.07422-.17969.11719-.05859.08984-.08984.0586-.07032.07422-.07421.07421-.0625.08985-.02735.11719-.01562.1328.01562.13282-.01562.13281v.14844l.01562.13281.02735.1172.03125.12108.07421.07422.08985.0586.08594.0586.08984.05858.11719.03125v.08594l-.10157.04688-.08984.0586-.26563.03124-.11718.02735h-.14844l-.10547.04296-.10156.04688-.0586.08984-.0625.23438-.01171.13281-.03125.1211-.01563.1328v.29298l-.01172.1328.01172.13673.01563.1328.1328.01563.13282.01172.1211.03125.08593.0586.07422.07421.04688.10547.04296.10157.01563.1328v.44532l-.01563.13281v.44532l.03125.26562.02735.11719.01562.13281.03125.11719.08594.21094.03125.26562v.14844l-.03125.11719-.02734.11718-.03125.1211-.02735.11719-.03125.11718-.03125.1211-.01171.1328-.01563.13282.08984.0586.1172-.03125.10155.01562.04688.10547-.03125.26562v.44141l-.04297.10547-.04688.10547-.04296.10156-.04297.10547-.0586.08594-.03125.12109-.04296.11719-.03125.11719-.01563.1328.01563.13282.05859.08984.10547.04688.08594.0586.05859.08593-.01172.13672-.03125.11719-.04297.10156v.44531l-.01562.13281v.14844l-.03125.11719-.04297.10547-.02735.11719-.04687.10546-.04297.10157-.03125.12109-.02734.11719-.03125.13281-.03125.11719-.02735.11719-.04297.10546-.03125.1172-.03125.12108-.01171.13282-.01563.13281v.29688l.02734.11718v.14844l.04688.39844.02734.11719.0586.08984.12109.03125h.14844l.13281-.01563.0586.08985v.11719l-.0586.08984-.08984.0586-.10157.04296-.10546.04688-.08985.05859-.08594.0586-.13671.01562-.1172-.03125-.1328-.01563-.10157.04688-.0625.08594-.01172.13671-.01562.13282-.03125.11719-.02735.11718-.01562.13281-.03125.1211v.29687l.01563.13282.03125.11718v.14844l.01171.13281v.14844l-.02734.11719-.04688.10156-.02734.1211-.03125.11718-.0586.08985-.07421.07421-.10156.04297-.10547.04688-.11719.02734-.1211.03125-.10156-.04687.0586-.08594.10547-.04688.02734-.11718.03125-.11719.02734-.1211.03125-.11718v-.14844l.01563-.13281-.03125-.11719-.04297-.10547-.10547.01563-.07422.07422-.10156.04296-.08984.0625-.07422.07422-.04297.10157-.01563.1328-.03125.1172L304.25 426l-.03125.11719-.02734.11719-.03125.12109-.02735.11719-.03125.11718-.04297.10547-.08984.0586h-.08984l-.1172-.03125-.03124-.08594.01562-.13672-.03125-.11719v-.14844l-.01171-.1328v-.14844l-.0625-.23438-.02735-.1211-.04297-.10156-.04687-.10546-.0586-.08594-.05859-.08985-.04297-.10546-.0625-.08594-.14844-.14844-.0703-.07422-.10548-.04687-.10547-.04297-.10156-.04297-.29687-.29688-.08985-.07421-.08594-.0586-.10546-.04297-.08985-.0625-.08594-.0586-.10546-.04296-.08985-.0586-.08594-.0625-.07421-.0703-.10547-.04688-.08594-.0586-.10547-.04296-.08984-.0625-.10156-.04297-.10547-.04297-.08594-.0586-.10547-.04687-.10547-.04297-.10156-.04687-.08985-.0586-.10156-.04297-.10547-.04296-.08984-.0625-.11719-.02735-.13281-.01562-.13281.01562H299.75l-.13281.01563-.11719-.03125-.08984-.0586-.07422-.07422-.08985-.05859-.10156-.04688h-.14844l-.12109-.02734-.10156-.04297-.07422-.07422-.11719-.17968-.08984-.0586-.10156-.04297-.08985-.0625-.10547-.04296-.08984-.0586-.08594-.0586-.10547-.04687-.0586-.08594-.05858-.08984-.04297-.10547-.04688-.10156-.07422-.07422-.08594-.0586-.07421-.07421-.08985-.0586-.22265-.22265-.04297-.10547-.03125-.26563.10547-.04296h.14453l.10547.04296.07421.07422.08985.0586.08594.0586.10546.04687.08985.05859.14844.14844.0703.07422.14845.14843.0625.08594.07421.07422.08594.0586.07422.07421.08985.0625.08984.0586.08594.05859.26953.17578.10156.04688.10547.04296.10156.04297.04688-.07421.05859-.08594.07422-.07422.07031-.07422.10547.04297.07422.07422.0586.08984.04296.10156.04688.10547.04296.10547.1211.02735.11719-.02735.07421-.08984.04297-.10547.0586-.08985.07422-.07421.10546-.04297.1172-.02735.1328.01172.08985.0586.14844.14843.05859.08985.04297.10547.04687.10156.04297.10547.04297.10156.10547.04688.10547.04296.13281.01563.08594-.0586.0586-.08984.07421-.07422.10547-.04297.11719.02735.10547.04687.10156.04297.10547.04297.10156.04688.17969.11718v.11719l-.01563.13281.01563.13281.01562.13672.0586.08594.10156.04688.1211.02734.11718.03125h.14844l.11719-.03125.05859-.08984.17969-.1172.05859-.08983.07422-.07422.0586-.08594.11718-.17969.17969-.11719.11719.03125.08984.0586.04297.07422-.01563.1328v.1172l.08985.05859h.14843l.13282-.01563.1328-.01171.26563-.03125.10547-.04297.11719-.03125.1211-.02735.07421-.07421.07031-.07422.0625-.08985-.01562-.10547-.04688-.10156-.10156-.04297-.10547-.01562-.11718.02734-.26563.03125h-.14844l-.07421-.07422-.08985-.0586-.11719-.03124-.11718-.02735-.13282-.01562h-.14843l-.13282.01563h-.29687l-.10547-.04688-.14844-.14844-.04297-.10156-.05859-.08984.22266-.22266.08593-.0586.10547-.04296.11719-.03125.13281-.01563.13281.01563.13672.01562.10157.04297.1328-.01172.08985-.0625.10156-.04297.0625-.08984-.04687-.10156-.08984-.0586-.1172-.03125-.10155-.04296-.0586-.08985-.0625-.08984v-.11719l.01563-.13281.10547-.04688.07421-.07031v-.1211l-.08984-.05859-.03125-.11719.08985-.05859.07421-.07422.04297-.10547.0586-.08984.04687-.10156.01563-.13281v-.14844l-.04688-.10547-.04297-.10156-.08984-.0586-.13281-.01562-.10157-.04297-.13671-.01563-.1172-.03125h-.4453l-.13282-.01562-.13281-.01172-.13281-.01563-.11719-.03125h-.14844l-.13281-.01562-.13281-.01172-.26563-.03125-.1211-.04297-.08593-.0586-.07422-.07421v-.14844l.01172-.13281.10547-.04688.10156-.04296.13281-.01563h.15235l.13281-.01562h.29297l.1211.03125.10156.04296.08984.0586.23438.0625.12109-.04688.08984-.05859.10156-.04297.13282-.01562.10547.04296.10156.04688.13281.01172.1211-.02735h.14453l.12109-.03125.11719-.02734.10547-.04687.07421-.07422.08594-.0586.14844-.14843.0586-.08594.04687-.10547.02734-.11719.01563-.10547-.10156-.04296-.08985-.0586-.11719-.03125-.10546-.04297-.08985-.0625-.07422-.08594-.07422-.07421-.10156-.04297-.10547-.04688-.10156-.04297-.0586-.08984-.04687-.10156-.08594-.21094-.0625-.08594-.05859-.08984-.07422-.07422-.08594-.0586h-.26953l-.11719.03126-.08984.05859-.10156.04297-.13281.01562-.10547-.01562-.02735-.11719-.0625-.08984-.11718-.03125-.10157-.04297-.14843-.14844-.03125-.11719-.01563-.10546.07422-.07422.17969-.1172.11719-.02733.11718-.03125.13672.01562.10156.04297.10547.04297.10156.04687.10547.04297.1172.03125.1328.01563.1172.02734.1328.01563.10547-.01563.08985-.0586-.07422-.07421-.10547-.04297-.07422-.07422-.07422-.08984-.14844-.14844-.08593-.0586-.08985-.05859-.07422-.07422-.08984-.0586-.10156-.04687-.1211-.02734-.10156-.04688-.10547-.04296-.11719-.03125-.10156-.04297-.1211-.03125h-.14843l-.11719.03125-.10546.04297-.08594.0625-.17969.11718-.08594.0586-.08984.0586-.10547.04687-.08594.05859-.10547.04297-.10156.04297-.10547.04687-.07422.07422-.05859.08985-.0586.08593-.04687.10547-.0586.08594-.07421.07422-.13281-.01172-.1172-.03125h-.11718l-.07422.07422-.08984.0586-.07422.07421-.08984.0586-.08594.05859-.10547.04687-.10156.04297-.13672.01563-.10156-.04297-.14844-.14844-.10547-.04688h-.08594l-.10547.04688-.10156.04297-.1211.03125-.11718-.03125-.07422-.07422v-.11719l.03125-.1211.07422-.0703.0586-.08985.07421-.07422.11719-.03125.10547-.04296h.29297l.13281-.01563.13672-.01563.10156-.04296.08985-.0586.10156-.04687.08984-.0586.13281-.01171.08985.05859.13281.01172.08984-.0586.08594-.05859.10547-.04297.08984-.0586.08594-.0625.08985-.05859.14843-.14843.0586-.08594.05859-.08985.10547-.04296.13281-.01563.11719.02735.1211.03125.05859-.0586.05859-.08984.03125-.26563.02734-.11719.10547.01172.13281.01563.10157-.04297.08984-.0586.0586-.08984.07421-.07422.0586-.08984.04687-.10156.01172-.13281-.01172-.13282-.04687-.10547-.14844-.14843-.0586-.08985-.05859-.08594-.04297-.10546v-.44532l.01563-.1328v-.14845l.01172-.1328-.0586-.0586-.08984.0586-.10156-.04298-.17969-.11719-.08594-.05859-.0625-.08984-.0586-.08985-.07421-.07421-.08594-.0586-.1211.03125-.10155.01172-.10547.04688-.08594.05859-.10547.04297-.14844.14844-.08984.05859-.08594.0586-.08984.0625-.10547.04296-.13281.01563v-.1211l.10547-.04297.11718-.03125.07422-.0703.04297-.10548v-.14844l-.02734-.11718-.14844-.14844-.13281-.01563h-.14844l-.11719.03125-.10547.04297-.10156.04297-.08984.0625-.11719.02735-.07422-.07422.01172-.13281-.04297-.10157-.04297-.10547-.08984-.05859-.11719.02734-.1211.03125-.11718.03125-.10156.04297-.1211.03125-.10156.04297-.10547.04297-.08984.0586-.10156.01562v-.11719l.01562-.13281-.0586-.08985-.07421.04297-.14844.14844-.0586.08985-.07421.07421-.04688.10547-.04296.10156-.07422.07422-.0586.08985-.07422.07422-.05859.08593-.07422.07422-.08984.0625-.07422.07031-.07422.07422-.10156.01563-.13281.01562-.10547-.04296v-.1211l.14843-.14844.04297-.10156.0586-.08984.04687-.10156.04297-.10547.0586-.08985.03124-.11719.04297-.10156.03125-.1211.02735-.11718.04687-.10547.04297-.10156.04297-.10547.07422-.07031.08984-.0625.08985-.0586.10156-.04296h.29687l.26563-.03125.10547-.04297-.07422-.07422-.11719-.03125-.10547-.04297-.08984-.0586-.10156-.04687-.08985-.0586-.10156-.04296-.10547-.04297-.08984-.0625-.08594-.0586-.10547-.04296-.10156-.04297-.1211-.03125-.11718-.03125-.10157-.04297L297.5 410.25l-.10156-.04297-.08985-.0586-.04296-.10546-.01563-.13281.10156-.04297.13281-.01563.13672.01563.13282-.01563.10156-.04297.0586-.08984.01562-.10547-.08985-.0586-.07421-.07421-.10157-.04297-.08984-.0586-.14844-.14843-.04297-.10547-.01562-.13281v-.29297l-.0586-.08985-.08984-.05859-.07422-.07422-.04297-.10547-.03125-.11718-.0586-.08985-.07421-.07422-.11719-.02734-.07422-.07422-.08984-.0586-.08984-.0625-.08594-.05859-.07422-.07421-.0586-.08594-.04687-.10547-.08594-.0586-.14843-.14843-.19532-.0586-.1328.01563-.10157.04297-.07422.07422-.04688.10156-.04296.10547-.0586.08984-.0586.08594-.29687.29687-.08984.0586h-.08594l-.0625-.08594-.04297-.10547.03125-.11719.0586-.08984.02734-.11719-.01172-.13281-.08984-.0625-.10547.04688-.11719.02734-.11719.03125-.26953.17578-.10156.04688-.11719.02734-.10546.04687-.08985.0586-.10156.04297-.0586-.08594-.04687-.10547.01563-.13281.04687-.10547.07031-.07422.07422-.07031.0586-.08985v-.14843l-.04297-.10547h-.23829l-.10156.04687-.03125.11719-.02734.11719-.03125.1211-.07422.04296-.13281.01563-.07422-.04688-.04297-.10156-.04297-.10547-.04687-.10156-.04297-.10547-.1211.03125-.10156.04297-.13281.01562-.11719.03125-.10547.04297-.08984.0586-.10156.04687-.1211.02734-.13281.01563-.10156-.04297-.0586-.08985-.04687-.10546-.04297-.10157-.04297-.10546v-.1172l.0586-.08984.08593-.05859.17969-.11719.10156-.04687.10547-.04297.10547-.0586.10156-.04296.08985-.0625.10156-.04297.10547-.0586.10156-.04687.08984-.0586.10547-.04296.10156-.04297.08985-.0625.10156-.04297.13672-.01563.11719.03125.10156.04297.1211.03125.10156.04297.10546.04688.10157.04296.10547.04297.10156.04688.10547.04297.10156.04297.10547.04687.08594.0586.10546.04296.1172.03125.10546.04297.10156.04688.08985.0586.10547.04296.10156.04297.10547.04687.11719.02735.10156.04687.1211.02735h.14843l.08594-.0586.01562-.10156.0586-.08984-.02735-.1172-.07422-.07421-.11719-.17969-.07421-.07422-.08985-.07421-.17969-.1172-.08593-.05859-.10547-.04296-.10156-.04688-.26954-.17578-.05859-.08985-.07422-.07421-.0586-.08985-.04296-.10156-.03125-.11719-.01563-.13672v-.5625l-.01171-.1328-.01563-.13282-.03125-.11719-.01562-.13281-.01172-.13281-.03125-.1211-.22266-.22265-.0586-.08594-.01562-.10547.03125-.11719.13281-.01562v-91.41406H172.9922v1.45312l-.0586.23438-.35156 1.05078-.17187.52343-.1172.34766-.17577.41016-.11719.17187-.23438.29297-.23046.0586h-.35157l-.11718.05859-.23047.40625v.29297l.11719.17578.23046.23047.1172.23437.64062.75781.29297.46485.17578.23437.23047.35156.23437.34766.64063.8164.17578.46485.17187.41016.11719.69531.17578.46875.11719 1.39844.0586.46484v.875l.11718 1.04688v4.78125l-.0586.46484-.35156 1.28125-.17578.52344-.11328.41015-.35156.9297L172.93359 336l-.23437.58203-.11719.17578-.17187.34766-.17578.40625-.35157.8164-.0586.29297-.11327.29297-.11719.28906-.0586.17579-.11718.875-.0586.40625-.05859.11718-.0586.17579-.05859.17187-.23047.52734-.11718.17188v.23437l-.11719.23438-.0586.17187-.17577.58594v.28906l-.0586.17579v.29296l-.0586.11329-.05859.52734v.17187l-.05468.23438v2.6211l-.17578.8164-.1172.17578-.17577.23438-.1172.17187-.11327.23438-.58594.93359-.23047.28906-.29297.46485-.17578.23437-.28906.35156-.35156.69922-.11328.23047-.17579.41016-.17578.23046-.40625.52735-.8164.69922-.29297.17187-.28906.23438-.17579.11719-.17578.17578-.52344.40625-.52734.17578-.17187.17578-.23438.05469-.64062.17578h-.75782m12.21094 31.02344l-1.07422.44921.35938.89454 1.25-.71485.44531-.53906-.98047-.08985"/><path fill="#d3d3d3" fill-opacity="0" fill-rule="evenodd" d="M201.50781 416.59766h-.89453l.44922.6289.98047.35938.80469-.08985.4453-.98828-.17577.08985-.71485-.35547-.89453.35547m154.6211 59.0703l-.0586-.52343v-.29297l.11328-.29297.0586-.23046.46875-.46875h.11328l.11719-.11329.11718-.05859h.17579l.23437-.0586h.34766l.23437.0586.11719.0586.23047.17187.0586.17578.11718.58203v.29297l-.11719.17578-.17187.28906-.17579.17579-.52734.52343-.23047.23438-.11719.0586h-.17578l-.11718-.0586-.40625-.29297-.17579-.11719-.11718-.0586-.0586-.11327-.05468-.1172m6.64062-10.95702l-.0586-.17188v-1.10937l.0586-.17188.17578-.0586.17188-.05858h.17578l.23437-.0586.1172.0586.05858.69921-.05859.17188-.11719.17578-.11718.0586-.23438.52343-.11328.0586h-.23438l-.05859-.1172m9.61328-14.39062l-.11719-.17578v-.69922l.29297-.875.1172-.17187.17577-.35156.11328-.23047.1172-.29297.35155-.75781.1172-.23047.17187-.23438h.17578l.11719-.0586h.64062l.11719.0586.23437.23438.17188.11328.35156.29297.11719.11718.11328.17579v.11328l.11719.05859.11718.11719v.69922l-.05859.17578v.23047l-.0586.17578-.34765 1.05078-.11719.23047-.11719.23437-.11718.0586-.23047.23437-.64063.28906h-.875l-.41015-.11718-.64063-.46485"/><path fill="none" stroke="#bebebe" stroke-linecap="round" stroke-linejoin="round" stroke-miterlimit="10" stroke-width=".5" d="M467.95703 311.69531H144.02734v168.625h323.9297v-168.625"/><g clip-path="url(#a)"><path fill="#fff" fill-opacity="0" fill-rule="evenodd" d="M144 475.89063v3.47265-167.6914h.0039H144v164.21875"/></g><g clip-path="url(#b)"><path fill="#50fcfc" fill-rule="evenodd" d="M144.0039 480.32813v-.96094l1.28126.96094h-1.28125"/></g><g clip-path="url(#c)"><path fill="#fff" fill-opacity="0" fill-rule="evenodd" d="M144.0039 479.36719V311.67188h79.88673v106.86328l-4.4375.18359-4.4375.36719-4.4297 3.54297-.01171.03515-3.54688 4.40625-.89062.59766-1.25781-.59766-3.1797-2.20312-4.4375-.44531-4.4414-.9297-2.82812-.86327-1.60938-.42579-4.4375-.04296-1.07422.46875-3.36328 1.53515-4.4414 1.0039L171 427.07032l-.3711.16406-4.4375 3.23829-.98437 1.03515-2.98437 4.4375-.46875.1289-4.31641 4.3086-.1211 1.8086-.90234 2.6289.90235 2.30078.04687 2.14063-.02344 4.4375.87891 4.4375 3.05078 4.4375.48438.40234.92578-.40234 3.51172-.76953 4.4375-.4375 4.4375-.80469 4.4414-.60938 4.4375.2461 4.4375 1.17969 4.4375.36718 4.4414.12891 4.4375.46484 2.4961.23438 1.9414.33203 4.4375 1.79297 3.47267-2.125.96875-.66016 4.4375-.66406 4.4375-1.84766 4.4375-.44921 2.03125-.81641 2.40625-.67578 4.4414-.8711 4.4375-.61328 4.15234-2.27734.28516-.28516 4.4375-1.58203 4.4375-.02344 4.4414-1.8203 4.4375 1.9375 4.4375-1.27735 4.03516-1.38672.40235-.35547 1.47656.35547 2.96484.42187 4.4375.14063 1.2461-.5625 3.1914-.64844 4.4375-.58594 3.32813-3.20703-3.32813-3.46484-1.58593-.97266 1.58593-.6836 3.46875-3.7539.34375-4.4375-3.8125-3.84765-4.4375.0703-4.4375-.32812-4.4375-.23828-4.4414.82422-.61328-.91797-3.82422-3.65625-3.6875 3.65625-.75 1.41016-4.4375-.6914-4.4414.9414-3.1211 2.77734-1.3164 1.04688-1.07813-1.04688-3.35938-3.24219-4.4375-.26171-4.4375-.79688-.20312-.13672-4.23828-4.34765-1.07032-.09375-3.36719-1.85938-4.4375-2.23437V311.67187h133.15235v120.40625l-4.4414.1875-4.4375 1.91797-1.70704 1.76172 1.70703 1.6836v38.2578l-.0039.00392.0039.0039.0039-.0039-.0039-.00391V437.6289l1.85156 2.7539 2.58594 2.59375 4.4414 1.19531 4.4375-1.07421 4.4375-1.19532 1.76173-1.51953-1.76172-1.58203-4.4375-1.1875-1.05078-1.66797-3.38672-3.86719V311.67188h22.1914v129.60938l-2.96875 3.53906 2.96875 3.25781 2.23829 1.1836-2.23829 1.01562-4.4414-.45312-2.58203 3.875-1.85547 3.80469-.23047.6328-.48438 4.4375.71485.71876 2.29297-.71875 2.14453-1.9414 4.3789 1.9414.0625.01172.01563-.01172 3.17578-4.4375 1.2461-1.0625 2.51171 1.0625-1.42968 4.4375 3.35546 3.59765 4.4375.73829 4.4375-.57422 1.60938.67969 2.83203 2.86718 2.76172-2.86719 1.67578-.53906 4.4375-.51953 3.53906-3.38281-3.53906-3.95313-4.4375-.22656-4.4375.1289-4.4414.3711-2.83594-.75781-1.4414-4.4375 2.3828-4.4375-2.54296-3.38672-1.8672-1.05469-2.5703-1.04687-1.4961 1.04687-2.9414 1.96485-.98047-1.96485-3.45704-3.53906V311.67187h88.76172v168.65625h-63.26953l-.05078-4.4375-3.25-3.53515-4.4414 3.08203-.78125-3.98438-3.65625-4.07421-4.4375 2.40625-1.21875 1.66796L383.67188 473l-3.53907 2.89063 3.53906 2.78515 3.37891-2.78515 1.0586-2.69141 4.4375 2.10156 3.83203.58985.60546.40625.8672 4.03125H227.05858l-3.16797-2.53125-4.4375.14843-2.24218 2.38281h-71.92578l-1.28125-.96093"/></g><path fill="#50fcfc" fill-rule="evenodd" d="M157.3164 447.1211l-.90234-2.30079.90235-2.6289.12109-1.8086 4.3164-4.3086.46876-.1289 2.98437-4.4375.98438-1.03515 4.4375-3.23829.37109-.16406 4.0664-1.90234 4.44141-1.0039 3.36328-1.53516 1.07422-.46875 4.4375.04296 1.60938.42579 2.82812.86328 4.4414.92969 4.4375.4453 3.1797 2.20313 1.2578.59766.89063-.59766 3.54688-4.40625.01172-.03515 4.42969-3.54297 4.4375-.36719 4.4375-.1836v1.03126l-4.4375.91796-4.4375 1.67188-.59375.47266-1.91016 4.4414-1.03516 4.4375-.90234 1.08985-4.4375.30078-4.4375-1.38281-.02344-.00782-4.41406-2.69922-4.4414.0625-4.4375.83594-4.4375.97656-1.44532.82422-2.99219.42578-4.4414.52735-4.4375.46875-2.53125 3.01562-1.90625.63672-4.4375 1.26172-2.54297 2.53906-1.40235 4.4375.09766 4.4414.30469 4.4375 3.15625 4.4375.38672.51563 4.4375-.32421 4.4375.08593 1.03906-.27734 3.39844-.91797 4.4414-1.0586 4.4375.34766 4.4375.79297 1.96094.83594 2.47656 1.04687 4.4414-.9414 2.37892-.10547 2.05859-.14844.16016.14844 4.27734 1.8164 4.4375.04297 2.57031-1.85937 1.8711-1.16016 4.4375-.05078 4.4375-1.10156 4.4375-.55469 3.27734-1.57031 1.16016-1.82813 4.4414-.64843 4.4375-1.53516.42188-.42578-.42188-1.00781-4.4375-1.41407-4.4414.8125-4.4375-2.34765-.89844-.48438.0039-4.4375.01563-4.4375-.41016-4.4375 1.28906-1.1211 1.2461 1.1211 3.1914 3.3164 2.60938 1.1211 1.83203 1.20313v2.89453l-2.75781.33984 2.75781.59375.40234-.59375-.40234-.33984v-2.89453l3.83594 3.23437.60156 2.11719 4.4375 1.0586 2.30078-3.17579 2.13672-3.60937 2.97266-.82813-2.97266-.6914-3.85937-3.7461-.57813-.5586-4.4375-.01562-4.4375-2.59375-1.84375-1.26953-2.59766-2.66406-4.4375-.48438-.97265-1.29296-3.46484-3.0625v-1.03125l4.4375 2.23437 3.36718 1.85938 1.07031.09375 4.23829 4.34765.20312.13672 4.4375.79688 4.4375.26171 3.35938 3.2422 1.07812 1.04687 1.3164-1.04688 3.1211-2.77734 4.4414-.9414 4.4375.6914.75-1.41016 3.6875-3.65625v1.34766l-2.32812 2.3086-2.10937 3.96874-4.4375-1.80078-4.22656 2.26953.19921 4.4375 4.02735 2.21485 2.03125-2.21485 2.40625-3.9414v2.71875l-.7461 1.22265-3.6914 4.01953-4.4414-.1914-4.4375.2461-.21485.36327.21484 1.10547 4.4375-.60547 4.4414.08203 4.4375-.3789.53126-.20313 3.90625-2.96484v3.88672l-4.4375 1.03906-4.4375 1.13281-4.4414.99219-.57423.35156.57422.71875 4.4414.90625 4.4375 2.30469 4.4375-1.91016 2.08985-2.01953-2.08984-3.51562v-3.88672l4.4375.25 4.4414-.45703 1.03516-1.26563-1.03516-.7461-4.4414-.15233-4.4375-.3047-4.4375-.01952v-2.71875l4.4375-.13672 4.4375 1.05469 4.4414.6328 3.32422 2.39063-3.32422 4.0625-1.28515.375 1.28515.54297.51954-.54297 3.91796-2.9961v2.96485l-.04296.03125.04296.0625.07422-.0625-.07422-.03125v-2.96484l4.4375 2.34765 4.4375-2.08984 1.57422-1.69922 1.10547-4.4375-2.67969-2.70312-4.4375.41797-4.4375-.84375-4.4375.72265-4.4414.9961-2.02344-3.02735-2.41406-2.3086v-1.34765l3.82422 3.65625.61328.91797 4.4414-.82422 4.4375.23828 4.4375.32813 4.4375-.07031 3.8125 3.84765-.34375 4.4375-3.46875 3.7539-1.58593.6836 1.58593.97266v2.90625l-3.59765.5586 3.59765.51952.53907-.51953-.53907-.5586v-2.90624l3.32813 3.46484-3.32813 3.20703-4.4375.58594-3.1914.64844-1.2461.5625-4.4375-.14063-2.96484-.42187-1.47656-.35547-.40235.35547-4.03515 1.38672-4.4375 1.27734-4.4375-1.9375-4.4414 1.82031-4.4375.02344-4.4375 1.58203-.28517.28516-4.15234 2.27734-4.4375.61328-4.4414.8711-2.40625.67578-2.03125.8164-4.4375.44922-4.4375 1.84766-4.4375.66406-.96875.66016-3.47266 2.125-4.4375-1.79297-1.9414-.33203-2.4961-.23438-4.4375-.46484-4.4414-.1289-4.4375-.3672-4.4375-1.17968-4.4375-.2461-4.44141.60938-4.4375.80469-4.4375.4375-3.51172.76953-.92578.40234-.48438-.40234-3.05078-4.4375-.8789-4.4375.02343-4.4375-.04687-2.14063"/><path fill="#00e8fc" fill-rule="evenodd" d="M157.90625 449.26172l-.09766-4.4414 1.40235-4.4375 2.54297-2.53907 4.4375-1.26172 1.90625-.63672 2.53125-3.01562 4.4375-.46875 4.4414-.52735 2.99219-.42578 1.44531-.82422 4.4375-.97656 4.4375-.83594 4.4414-.0625v3.87891l-4.4414.82422-4.4375.50781-4.4375-.5-4.4375.32422-4.07812 2.10156-.36328.15235-4.4375 1.58203-4.4375 1.60547-3.30078 1.09765-1.13672.17969-3.02735 4.25781.07813 4.4414.85547 4.4375 2.09375 2.70313 4.4375-.60937 4.4375-.86719 2.47265-1.22656 1.96485-.78906 4.4414-.8672 4.4375.16017 4.4375.7578 4.4375-2.36718v3.10156l-.00781.0039.00781.02345.01953-.02344-.01953-.0039v-3.10157l4.4414-.67969 4.4375.57813 3.50392-1.23047.93359-.59766 3.0625-3.84375-3.0625-2.73437-1.21875-1.70313-1.6289-4.4375-1.58985-1.04687-4.4375-2.21094v-3.8789l4.41406 2.69921.02344.00781 4.4375 1.38282 4.4375-.30078.90234-1.08985 1.03516-4.4375 1.91016-4.4414.59375-.47266 4.4375-1.67188 4.4375-.91796v1.72265l-3.29297 1.33985 2.78906 4.4414.4375 4.4375.0664.07031.01563-.0703 4.42188-3.84766 4.27734 3.84765.16016.16797 4.4414 1.9375 1.92578-2.10547-1.92578-1.28125-4.4414-1-.83985-2.15625-3.59766-.5625-2.92187-3.8789-1.51563-1.33985v-1.72265l3.46485 3.0625.97266 1.29296 4.4375.48438 2.59765 2.66406 1.84375 1.26953 4.4375 2.59375 4.4375.01563.57813.5586 3.85937 3.74609 2.97266.6914-2.97266.82813-2.13672 3.60937-2.30078 3.17578-4.4375-1.05859-.60156-2.11719-3.83594-3.23437-1.83203-1.20313-2.60938-1.1211-3.1914-3.3164-1.2461-1.1211-1.28906 1.1211.41016 4.4375-.01563 4.4375-.0039 4.4375.89844.48438 4.4375 2.34765 4.4414-.8125 4.4375 1.41407.42188 1.0078-.42188.42579-4.4375 1.53516-4.4414.64843-1.16016 1.82813-3.27734 1.57031-4.4375.55469-4.4375 1.10156-4.4375.05078-1.8711 1.16016-2.57031 1.85937-4.4375-.04296-4.27734-1.81641-.16016-.14844-2.0586.14844-2.3789.10547-4.4414.9414-2.47657-1.04687-1.96094-.83594-4.4375-.79297-4.4375-.34765-4.4414 1.05859-3.39844.91797-1.03906.27734-4.4375-.08594-4.4375.32422-.38672-.51562-3.15625-4.4375-.30469-4.4375"/><path fill="#00d4fc" fill-rule="evenodd" d="M158.80469 449.26172l-.07813-4.4414 3.02735-4.25782 1.13672-.17969 3.30078-1.09765 4.4375-1.60547 4.4375-1.58203.36328-.15235 4.07812-2.10156 4.4375-.32422 4.4375.5 4.4375-.50781 4.4414-.82422v3.0039l-.76952.25391-3.67188 1.38281-4.4375-.9453-3.83203-.4375-.60547-.16798-4.4375-.02734-.3789.19531-4.0625 1.70313-4.4375 2.5586-.46094.17577-3.97656.24219-4.4375 1.23047-2.10938 2.96484.0586 4.4414 1.41015 4.4375.64063.82813 3.39843-.82812 1.03907-.20313 4.4375-1.75 4.4375-1.57812 4.05468-.90625.38672-.0664 4.4375-.28516 4.4375-.01172 4.4375-1.54297 4.4414-2.0625 1.35548-.47266-1.35547-1.45703-.8711-2.98047.8711-3.1914.48437-1.2461-.48437-.2539v-3.00391l4.4375 2.21094 1.58984 1.04687 1.6289 4.4375 1.21876 1.70313 3.0625 2.73437-3.0625 3.84375-.9336.59766-3.5039 1.23047-4.4375-.57813-4.4414.67969-4.4375 2.36719-4.4375-.75781-4.4375-.16016-4.44141.86719-1.96485.78906-2.47265 1.22656-4.4375.86719-4.4375.60937-2.09375-2.70312-.85547-4.4375"/><path fill="#00c4fc" fill-rule="evenodd" d="M159.70313 449.26172l-.0586-4.4414 2.10938-2.96485 4.4375-1.23047 3.97656-.24219.46094-.17578 4.4375-2.5586 4.0625-1.70312.3789-.19531 4.4375.02734v.82422l-4.4375.42969-4.4414 2.16797-2 1.1836-2.4375 1.30859-4.4375-.66016-4.4375 2.11328-1.19141 1.67578.03906 4.4414 1.15235 3.08985 4.4375-.34765 4.03125-2.7422.40625-.34374 4.4375-1.02735 4.4414-.72265 4.4375-.1836 4.4375-.36718 3.39453-1.79688.90625-4.4375-4.30078-3.07422-4.4375-.70703v-.82422l.60547.16797 3.83203.4375 4.4375.94531 3.67188-1.3828.76953-.25391.48437.2539-.48437 1.2461-.8711 3.1914.8711 2.98047 1.35547 1.45703-1.35547.47266-4.4414 2.0625-4.4375 1.54297-4.4375.01172-4.4375.28515-.38673.0664-4.05468.90626-4.4375 1.57812-4.4375 1.75-1.03907.20313-3.39843.82812-.64063-.82812-1.41016-4.4375"/><path fill="#00b8fc" fill-rule="evenodd" d="M160.60156 449.26172l-.03906-4.4414 1.1914-1.67579 4.4375-2.11328 4.4375.66016 2.4375-1.3086 2-1.1836 4.44141-2.16796 4.4375-.42969v.71094l-4.4375.92969-3.91797 2.14062-.52343 1.41797-4.4375 1.29688-4.4375-1.66016-4.4375 2.9961-.27735.38671.02735 4.4414.25.67188 4.4375.58204 1.84375-1.25391 2.59375-2.1836 4.4375-1.23046 4.4414-.70704 4.4375-.08203 1.61328-.23828 2.82422-.3711 3.00781-4.0664-3.0078-2.14844-4.4375-.92187v-.71094l4.4375.70703 4.30077 3.07422-.90625 4.4375-3.39453 1.79688-4.4375.36719-4.4375.18359-4.4414.72265-4.4375 1.02735-.40625.34375-4.03125 2.74219-4.4375.34765-1.15235-3.08984"/><path fill="#00a8fc" fill-rule="evenodd" d="M161.5039 449.26172l-.02734-4.4414.27735-.38673 4.4375-2.99609v.40625l-4.05078 2.97656 4.05078 4.34375 4.4375-3.92578 1.39062-.41797-1.39062-.3164-4.4375-2.66016v-.40625l4.4375 1.66016 4.4375-1.29688.52343-1.41797 3.91797-2.14062 4.4375-.92969v.71484l-4.4375 1.42188-1.70703.9336 1.70703 2.125 4.4375 1.38671 4.4375-1.19922 1.71094-2.3125-1.71094-1.22265-4.4375-1.13282v-.71484l4.4375.92188 3.00781 2.14843-3.0078 4.0664-2.82423.3711-1.61328.23828-4.4375.08204-4.4414.70703-4.4375 1.23046-2.59375 2.1836-1.84375 1.2539-4.4375-.58203-.25-.67187"/><path fill="#009800" fill-rule="evenodd" d="M166.1914 449.16406l-4.05077-4.34375 4.05078-2.97656v.40625l-3.5 2.57031 3.5 3.7539 3.95703-3.7539-3.95703-2.57031v-.40625l4.4375 2.66016 1.39062.3164-1.39062.41797-4.4375 3.92578"/><path fill="#00ac00" fill-rule="evenodd" d="M166.1914 448.57422l-3.5-3.7539 3.5-2.57032v.40625l-2.9453 2.16406 2.9453 3.16016 3.33204-3.16016-3.33203-2.16406V442.25l3.95703 2.57031-3.95703 3.7539"/><path fill="#00c800" fill-rule="evenodd" d="M166.1914 447.98047l-2.9453-3.16016 2.9453-2.16406v.8125l-1.83984 1.35156 1.83985 1.97656 2.08203-1.97656-2.08203-1.35156v-.8125l3.33203 2.16406-3.33203 3.16016"/><path fill="#10cc00" fill-rule="evenodd" d="M166.1914 446.79688l-1.83984-1.97657 1.83985-1.35156v.8125l-.73438.53906.73438.78906.83203-.78906-.83203-.53906v-.8125l2.08203 1.35156-2.08203 1.97656"/><path fill="#24d000" fill-rule="evenodd" d="M166.1914 445.60938l-.73437-.78907.73438-.53906.83203.53906-.83203.78906"/><path fill="#009800" fill-rule="evenodd" d="M179.50781 442.50781l-1.70703-2.125 1.70703-.9336 4.4375-1.42187v.70704l-4.03906 1.64843 4.03906 2.45313 4.4375-1.89063.41797-.5625-.41797-.29687-4.4375-1.35156v-.70704l4.4375 1.13282 1.71094 1.22265-1.71094 2.3125-4.4375 1.19922-4.4375-1.38672"/><path fill="#00ac00" fill-rule="evenodd" d="M183.94531 442.83594l-4.03906-2.45313 4.03906-1.64844v.71485l-2.29687.9336 2.29687 1.39452 2.92969-1.39453-2.92969-.9336v-.71483l4.4375 1.35156.41797.29687-.41797.5625-4.4375 1.89063"/><path fill="#00c800" fill-rule="evenodd" d="M183.94531 441.77734l-2.29687-1.39453 2.29687-.9336 2.92969.9336-2.92969 1.39453"/><path fill="#50fcfc" fill-rule="evenodd" d="M192.82031 453.69531l-.00781.0039.00781.02345.01953-.02344-.01953-.0039"/><g clip-path="url(#d)"><path fill="#50fcfc" fill-rule="evenodd" d="M217.21094 480.32813l2.24219-2.38282 4.4375-.14844 3.16796 2.53125h-9.84765"/></g><path fill="#00d4fc" fill-rule="evenodd" d="M223.38672 427.07031l-2.78906-4.4414 3.29297-1.33985 1.51562 1.33985 2.92188 3.8789 3.59765.5625.83984 2.15625 4.44141 1 1.92578 1.28125-1.92578 2.10547-4.4414-1.9375-.16016-.16797-4.27734-3.84765-4.42188 3.84765-.01563.07031-.0664-.0703-.4375-4.4375"/><path fill="#fff" fill-opacity="0" fill-rule="evenodd" d="M237.20703 440.04297l-2.75781.33984 2.75781.59375.40234-.59375-.40234-.33984m13.3125-.02344l-.21484.36328.21484 1.10547 4.4375-.60547 4.4414.08203 4.4375-.3789.53126-.20313 3.90625-2.96484 4.4375.25 4.4414-.45703 1.03516-1.26563-1.03516-.7461-4.4414-.15233-4.4375-.3047-4.4375-.01952-.7461 1.22265-3.6914 4.01953-4.4414-.1914-4.4375.2461"/><path fill="#00e8fc" fill-rule="evenodd" d="M254.95703 445.53906l-.57422-.71875.57422-.35156 4.4414-.99219 4.4375-1.13281 4.4375-1.03906 2.08985 3.51562-2.08984 2.01953-4.4375 1.91016-4.4375-2.30469-4.4414-.90625m.41405-9.59375l-.19922-4.4375 4.22657-2.26953 4.4375 1.80078 2.10937-3.96875 2.32813-2.3086v2.2422l-.0625.0664.0625.1289.0664-.1289-.0664-.0664v-2.2422l2.41406 2.3086 2.02344 3.02735 4.4414-.9961 4.4375-.72265v1.625l-3.48437 1.5039 3.48437 2.51172 2.82813 1.92578 1.60937 1.08985 1.97657-1.08985 2.46093-2.41797.79297-2.01953-.79297-.80078-3.71875.80078-.71875.7461-.35937-.7461-4.07813-1.5039v-1.625l4.4375.84375 4.4375-.41797 2.6797 2.70312-1.10548 4.4375-1.57422 1.69922-4.4375 2.08985-4.4375-2.34766-3.91796 2.9961-.51954.54296-1.28515-.54297 1.28515-.375 3.32422-4.0625-3.32422-2.39062-4.4414-.63281-4.4375-1.0547-4.4375.13673-2.40625 3.9414-2.03125 2.21485-4.02735-2.21485"/><path fill="#00d4fc" fill-rule="evenodd" d="M268.27344 427.19922l-.0625-.1289.0625-.06641.0664.0664-.0664.1289m13.3164 6.82032l-3.48437-2.51172 3.48437-1.5039 4.07813 1.5039.35937.7461.71875-.7461 3.71875-.80078.79297.80078-.79297 2.01953-2.46093 2.41797-1.97657 1.08985-1.60937-1.08985-2.82813-1.92578"/><path fill="#fff" fill-opacity="0" fill-rule="evenodd" d="M281.58984 440.35156l-.04296.03125.04296.0625.07422-.0625-.07422-.03125"/><path fill="#00e8fc" fill-rule="evenodd" d="M290.46484 445.33984l-3.59765-.51953 3.59765-.5586.53907.5586-.53907.51953"/><path fill="#50fcfc" fill-rule="evenodd" d="M348.16406 437.6289l-1.70703-1.68359 1.70703-1.76172 4.4375-1.91796v1.42187l-3.22656 2.25781 3.22656 4.23438.11719.20312 4.32422 2.80469 4.4375-2.69531.26172-.10938-.26172-.10937-2.72266-4.32813-1.71484-1.95703-4.4414-.30078v-1.42188l4.4414-.1875 3.38672 3.8672 1.05078 1.66796 4.4375 1.1875 1.76172 1.58203-1.76172 1.51953-4.4375 1.19532-4.4375 1.07421-4.4414-1.1953-2.58594-2.59376-1.85157-2.7539m0 38.26562l-.0039-.0039.0039-.00391.0039.0039-.0039.00391"/><path fill="#00e8fc" fill-rule="evenodd" d="M352.60156 440.17969l-3.22656-4.23438 3.22656-2.25781 4.4414.30078v3.51953l-1.79296 2.875 1.79297 1.16406 1.86719-1.16406-1.8672-2.875v-3.51953l1.71485 1.95703 2.72266 4.32813.26172.10937-.26172.10938-4.4375 2.69531-4.32422-2.80469-.11719-.20312"/><path fill="#00d4fc" fill-rule="evenodd" d="M357.04297 441.54688L355.25 440.3828l1.79297-2.875 1.86719 2.875-1.8672 1.16406"/><path fill="#50fcfc" fill-rule="evenodd" d="M370.35547 463.29297l-.71485-.71875.48438-4.4375.23047-.63281 1.85547-3.8047 2.58203-3.875 4.4414.45313 2.23829-1.01562-2.23829-1.1836-2.96875-3.2578 2.96875-3.53907 3.45704 3.53906.98046 1.96485 2.94141-1.96485 1.4961-1.04687v8.26172l-.86329 1.66406.86329 2.21875 4.15234-2.21875-4.15235-1.66406v-8.26172l2.57032 1.04687 1.86719 1.05469v12.73438l-4.4375 2.3789-1.00782 1.58594 1.00781 1.08203 4.4375 2.66406 4.4375-1.75781 4.44141 1.64844 4.4375-1.05078 4.4375-1.03125 1.6289-1.5547-1.6289-1.8164-4.4375-.95312-4.4375.35937-4.4414.46485-4.4375-2.01954V445.875l2.54296 3.38672-2.3828 4.4375 1.4414 4.4375 2.83594.75781 4.4414-.3711 4.4375-.1289 4.4375.22656 3.53906 3.95313-3.53906 3.38281-4.4375.51953-1.67578.53906-2.76172 2.8672-2.83203-2.8672-1.60938-.67968-4.4375.57422-4.4375-.73829-3.35546-3.59765 1.42968-4.4375-2.51171-1.0625-1.2461 1.0625-3.17578 4.4375-.01563.01172-.0625-.01172-4.3789-1.9414-2.14453 1.9414-2.29297.71875"/><g clip-path="url(#e)"><path fill="#50fcfc" fill-rule="evenodd" d="M383.67188 478.67578l-3.53907-2.78515L383.67187 473l3.21875-1.54688 1.21875-1.66796 4.4375-2.40625v2.10156l-2.39843 1.97265 2.39844 1.86329 1.77343-1.86329-1.77344-1.97265v-2.10156l3.65625 4.07421.78125 3.98438 4.44141-3.08203 3.25 3.53515.05078 4.4375H403l-.57422-4.4375-1-1.08984-1.41406 1.08985-.29297 4.4375h-1.86719l-.86719-4.03125-.60546-.40625-3.83204-.58985-4.4375-2.10156-1.05859 2.6914-3.3789 2.78516"/></g><path fill="#00e8fc" fill-rule="evenodd" d="M388.10938 463.65625l-1.00782-1.08203 1.00781-1.58594 4.4375-2.3789v1.03906l-3.5078 2.92578 3.5078 2.76172 3.97657-2.76172-3.97656-2.92578v-1.03906l4.4375 2.01953 4.4414-.46485 4.4375-.35937v2.35156l-2.66797.41797 2.66797.39453 1.1875-.39453-1.1875-.41797v-2.35156l4.4375.95312 1.6289 1.8164-1.6289 1.5547-4.4375 1.03125-4.4375 1.05078-4.4414-1.64844-4.4375 1.75781-4.4375-2.66406"/><path fill="#fff" fill-opacity="0" fill-rule="evenodd" d="M388.10938 452.03516l-.86329 1.66406.86329 2.21875 4.15234-2.21875-4.15235-1.66406"/><path fill="#00d4fc" fill-rule="evenodd" d="M392.54688 465.33594l-3.50782-2.76172 3.50781-2.92578v1.04297l-2.2578 1.8828 2.2578 1.78126 2.5625-1.78125-2.5625-1.88281v-1.04297l3.97657 2.92578-3.97656 2.76172"/><path fill="#00e8fc" fill-rule="evenodd" d="M392.54688 473.3164l-2.39844-1.86327 2.39844-1.97266 1.77343 1.97265-1.77344 1.86329"/><path fill="#00c4fc" fill-rule="evenodd" d="M392.54688 464.35547l-2.25782-1.78125 2.25781-1.88281v1.04296l-1.01171.83985 1.01171.79687 1.14454-.79687-1.14454-.83985v-1.04296l2.5625 1.8828-2.5625 1.78126"/><path fill="#00b8fc" fill-rule="evenodd" d="M392.54688 463.3711l-1.01172-.79688 1.01171-.83985 1.14454.83985-1.14454.79687"/><g clip-path="url(#f)"><path fill="#00e8fc" fill-rule="evenodd" d="M399.71875 480.32813l.29297-4.4375 1.41406-1.08985 1 1.08985.57422 4.4375h-3.28125"/></g><path fill="#00d4fc" fill-rule="evenodd" d="M405.86328 462.96875l-2.66797-.39453 2.66797-.41797 1.1875.41797-1.1875.39453"/><g clip-path="url(#g)"><path fill="#fff" fill-opacity="0" fill-rule="evenodd" d="M467.9961 480.32813H468V311.67188h-.0039H468v168.65625h-.0039"/></g><path fill="#fff" fill-opacity="0" fill-rule="evenodd" d="M231.10938 428.73047l4.46484 3.76953L242 424.89062l-4.46484-3.76953-6.42578 7.60938"/><path fill-rule="evenodd" d="M239.02734 424.77734l.39063.33204-4.0625 4.80859-.60156-.50781 2.89843-3.4297-1.0625-.89843.35938-.42187.46875.30859.22656.125.23438.07813.24609.02343.26953-.04687.29688-.13672.33593-.23438"/><path fill="#fff" fill-opacity="0" fill-rule="evenodd" d="M228.7461 464.04297l5.53124-1.8789-3.20703-9.4297-5.53125 1.87891 3.20703 9.42969"/><path fill-rule="evenodd" d="M229.4414 455.22266l.48438-.16407 2.02344 5.96094-.74219.2539-1.44531-4.2539-1.3164.44922-.1797-.52734.51172-.2422.22266-.1328.1875-.15625.14453-.19922.09766-.25781.03906-.32422-.02734-.40625"/><path fill="#fff" fill-opacity="0" fill-rule="evenodd" d="M156.01563 459.78516l7.33593 3 3.85547-9.4336-7.33594-3-3.85547 9.4336"/><path fill-rule="evenodd" d="M161.47266 452.98828l3.04297 1.24219-.28125.6875-2.44141-1-.89844 1.58203.27344-.0625.30078-.01953.33203.03906.36719.11328.28906.14844.28125.20703.2539.26172.20704.3164.14062.3711.04297.20703.01953.21875-.0078.23047-.03126.24219-.0625.2539-.09766.26563-.19921.39844-.25391.34765-.30469.29297-.34765.22266-.39063.14453-.21094.03906-.21875.01953-.22656-.00781-.23047-.03125-.24219-.0586-.24609-.08984-.41797-.21094-.33203-.24218-.2461-.27735-.17577-.30468-.10547-.32422-.04297-.33985.0039-.35546.0547-.35938.72655.29688-.01171.24609.01562.23047.04688.21484.07422.19531.10937.1797.14063.15624.17187.1289.20703.10548.30078.09765.28906.03906.26954-.01562.2578-.07813.23438-.13671.21094-.19532.1875-.2578.15625-.32423.08203-.25.04297-.26562v-.26953l-.05078-.26563-.10156-.2539-.16797-.23047-.22656-.19922-.30078-.16016-.32813-.09765-.30078-.00391-.32422.07031-.39063.13281-.64062-.26171 1.72266-2.9961"/><g clip-path="url(#h)"><path fill="none" stroke="#000" stroke-linecap="round" stroke-linejoin="round" stroke-miterlimit="10" stroke-width=".5" d="M147.5 480.61719l-7-.57813"/></g><g clip-path="url(#i)"><path fill="none" stroke="#000" stroke-linecap="round" stroke-linejoin="round" stroke-miterlimit="10" stroke-width=".5" d="M147.5 480.61719l.97266 2.2539"/></g><g clip-path="url(#j)"><path fill="none" stroke="#000" stroke-linecap="round" stroke-linejoin="round" stroke-miterlimit="10" stroke-width=".5" d="M146.48438 480.53125l.48437 1.1289"/></g><g clip-path="url(#k)"><path fill="none" stroke="#000" stroke-linecap="round" stroke-linejoin="round" stroke-miterlimit="10" stroke-width=".5" d="M160.78516 480.8789l-6.94141-1.09765"/></g><g clip-path="url(#l)"><path fill="none" stroke="#000" stroke-linecap="round" stroke-linejoin="round" stroke-miterlimit="10" stroke-width=".5" d="M160.78516 480.8789l.80078 2.32032"/></g><g clip-path="url(#m)"><path fill="none" stroke="#000" stroke-linecap="round" stroke-linejoin="round" stroke-miterlimit="10" stroke-width=".5" d="M159.77734 480.71875l.39844 1.16016"/></g><g clip-path="url(#n)"><path fill="none" stroke="#000" stroke-linecap="round" stroke-linejoin="round" stroke-miterlimit="10" stroke-width=".5" d="M174.05078 481.125l-6.84375-1.59375"/></g><g clip-path="url(#o)"><path fill="none" stroke="#000" stroke-linecap="round" stroke-linejoin="round" stroke-miterlimit="10" stroke-width=".5" d="M174.05078 481.125l.63281 2.3711"/></g><g clip-path="url(#p)"><path fill="none" stroke="#000" stroke-linecap="round" stroke-linejoin="round" stroke-miterlimit="10" stroke-width=".5" d="M187.35938 481.16406l-6.82813-1.66797"/></g><g clip-path="url(#q)"><path fill="none" stroke="#000" stroke-linecap="round" stroke-linejoin="round" stroke-miterlimit="10" stroke-width=".5" d="M187.35938 481.16406l.60546 2.375"/></g><g clip-path="url(#r)"><path fill="none" stroke="#000" stroke-linecap="round" stroke-linejoin="round" stroke-miterlimit="10" stroke-width=".5" d="M200.64453 481.27344l-6.76953-1.89063"/></g><g clip-path="url(#s)"><path fill="none" stroke="#000" stroke-linecap="round" stroke-linejoin="round" stroke-miterlimit="10" stroke-width=".5" d="M214 481.10938l-6.85156-1.5625"/></g><g clip-path="url(#t)"><path fill="none" stroke="#000" stroke-linecap="round" stroke-linejoin="round" stroke-miterlimit="10" stroke-width=".5" d="M214 481.10938l.64063 2.36718"/></g><g clip-path="url(#u)"><path fill="none" stroke="#000" stroke-linecap="round" stroke-linejoin="round" stroke-miterlimit="10" stroke-width=".5" d="M227.20703 481.48828l-6.63281-2.32031"/></g><g clip-path="url(#v)"><path fill="none" stroke="#000" stroke-linecap="round" stroke-linejoin="round" stroke-miterlimit="10" stroke-width=".5" d="M240.5039 481.53906l-6.59765-2.42187"/></g><g clip-path="url(#w)"><path fill="none" stroke="#000" stroke-linecap="round" stroke-linejoin="round" stroke-miterlimit="10" stroke-width=".5" d="M253.64063 481.9414l-6.2422-3.22656"/></g><g clip-path="url(#x)"><path fill="none" stroke="#000" stroke-linecap="round" stroke-linejoin="round" stroke-miterlimit="10" stroke-width=".5" d="M266.86719 482.10938l-6.0625-3.5586"/></g><g clip-path="url(#y)"><path fill="none" stroke="#000" stroke-linecap="round" stroke-linejoin="round" stroke-miterlimit="10" stroke-width=".5" d="M278.84375 483.40625l-3.38672-6.15625"/></g><g clip-path="url(#z)"><path fill="none" stroke="#000" stroke-linecap="round" stroke-linejoin="round" stroke-miterlimit="10" stroke-width=".5" d="M287.17969 481.57813l6.57031-2.5"/></g><g clip-path="url(#A)"><path fill="none" stroke="#000" stroke-linecap="round" stroke-linejoin="round" stroke-miterlimit="10" stroke-width=".5" d="M303.49219 476.82813l.57812 7.0039"/></g><path fill="none" stroke="#000" stroke-linecap="round" stroke-linejoin="round" stroke-miterlimit="10" stroke-width=".5" d="M303.57422 477.84766l1.03125-.66407"/><g clip-path="url(#B)"><path fill="none" stroke="#000" stroke-linecap="round" stroke-linejoin="round" stroke-miterlimit="10" stroke-width=".5" d="M315.1914 477.375L319 483.28125"/></g><g clip-path="url(#C)"><path fill="none" stroke="#000" stroke-linecap="round" stroke-linejoin="round" stroke-miterlimit="10" stroke-width=".5" d="M327.26953 481.89844l6.28516-3.14063"/></g><g clip-path="url(#D)"><path fill="none" stroke="#000" stroke-linecap="round" stroke-linejoin="round" stroke-miterlimit="10" stroke-width=".5" d="M340.76172 482.21484l5.92969-3.76953"/></g><g clip-path="url(#E)"><path fill="none" stroke="#000" stroke-linecap="round" stroke-linejoin="round" stroke-miterlimit="10" stroke-width=".5" d="M341.625 481.66406l-1.07031-.60547"/></g><g clip-path="url(#F)"><path fill="none" stroke="#000" stroke-linecap="round" stroke-linejoin="round" stroke-miterlimit="10" stroke-width=".5" d="M353.67578 481.33984l6.73047-2.02343"/></g><g clip-path="url(#G)"><path fill="none" stroke="#000" stroke-linecap="round" stroke-linejoin="round" stroke-miterlimit="10" stroke-width=".5" d="M354.65625 481.04688l-.86328-.8711"/></g><g clip-path="url(#H)"><path fill="none" stroke="#000" stroke-linecap="round" stroke-linejoin="round" stroke-miterlimit="10" stroke-width=".5" d="M367.1875 478.8086l6.33594 3.03906"/></g><g clip-path="url(#I)"><path fill="none" stroke="#000" stroke-linecap="round" stroke-linejoin="round" stroke-miterlimit="10" stroke-width=".5" d="M380.17188 480.63672l7-.61328"/></g><g clip-path="url(#J)"><path fill="none" stroke="#000" stroke-linecap="round" stroke-linejoin="round" stroke-miterlimit="10" stroke-width=".5" d="M381.1914 480.54688l-.67187-1.02735"/></g><g clip-path="url(#K)"><path fill="none" stroke="#000" stroke-linecap="round" stroke-linejoin="round" stroke-miterlimit="10" stroke-width=".5" d="M393.95313 482.10156l6.0664-3.54297"/></g><g clip-path="url(#L)"><path fill="none" stroke="#000" stroke-linecap="round" stroke-linejoin="round" stroke-miterlimit="10" stroke-width=".5" d="M394.83594 481.58594l-1.04297-.64453"/></g><g clip-path="url(#M)"><path fill="none" stroke="#000" stroke-linecap="round" stroke-linejoin="round" stroke-miterlimit="10" stroke-width=".5" d="M406.92578 481.3086l6.75-1.95704"/></g><g clip-path="url(#N)"><path fill="none" stroke="#000" stroke-linecap="round" stroke-linejoin="round" stroke-miterlimit="10" stroke-width=".5" d="M407.91016 481.02344l-.85547-.88281"/></g><g clip-path="url(#O)"><path fill="none" stroke="#000" stroke-linecap="round" stroke-linejoin="round" stroke-miterlimit="10" stroke-width=".5" d="M420.5039 481.96094l6.22266-3.26563"/></g><g clip-path="url(#P)"><path fill="none" stroke="#000" stroke-linecap="round" stroke-linejoin="round" stroke-miterlimit="10" stroke-width=".5" d="M421.41016 481.48828l-1.01172-.6914"/></g><g clip-path="url(#Q)"><path fill="none" stroke="#000" stroke-linecap="round" stroke-linejoin="round" stroke-miterlimit="10" stroke-width=".5" d="M435.08594 483.32031l3.6914-5.98047"/></g><g clip-path="url(#R)"><path fill="none" stroke="#000" stroke-linecap="round" stroke-linejoin="round" stroke-miterlimit="10" stroke-width=".5" d="M449.17969 483.67578l2.13281-6.69531"/></g><g clip-path="url(#S)"><path fill="none" stroke="#000" stroke-linecap="round" stroke-linejoin="round" stroke-miterlimit="10" stroke-width=".5" d="M460.17188 481.25l6.78125-1.83984"/></g><g clip-path="url(#T)"><path fill="none" stroke="#000" stroke-linecap="round" stroke-linejoin="round" stroke-miterlimit="10" stroke-width=".5" d="M461.15625 480.98047l-.83984-.89453"/></g><g clip-path="url(#U)"><path fill="none" stroke="#000" stroke-linecap="round" stroke-linejoin="round" stroke-miterlimit="10" stroke-width=".5" d="M147.48047 467.5l-6.96094-.97266"/></g><path fill="none" stroke="#000" stroke-linecap="round" stroke-linejoin="round" stroke-miterlimit="10" stroke-width=".5" d="M147.48047 467.5l.83984 2.30469m12.48438-2.36719l-6.97656-.84766m6.97656.84766l.88281 2.28906m12.39844-2.07031l-6.91016-1.28516m6.91016 1.28516l.73437 2.33984m12.54297-2.17578l-6.83594-1.61328m6.83594 1.61328l.625 2.375m12.65625-2.24219l-6.76953-1.8789m6.76953 1.8789l.53125 2.39454M214 467.80078l-6.84766-1.57422M214 467.80078l.63672 2.36719m-1.63281-2.59766l.3203 1.1836m14.02345-1.1211l-6.91407-1.23828m6.91407 1.23828l.7539 2.33594m12.51953-2.13672l-6.83203-1.63672m6.83203 1.63672l.6172 2.375m12.63671-2.15234l-6.71094-2.08203m6.71094 2.08203l.45703 2.41015m12.94922-2.7539l-6.89063-1.39453m5.88672 1.1914l.34766 1.17578m14.03906-1.6328l-7.02734-.07423m6.0039.0625l.56641 1.08985m13.55078.11718l-6.58203-2.46484m16.28125-2.26563l.64844 6.9961m-.55469-5.98047l1.02735-.67188m11.85156-.29687l1.33203 6.90234m-1.14063-5.89843l.95704-.76954m12.1328-.22656l1.39845 6.88672m-1.19532-5.88281l.94532-.78125m11.52343-.02734l2.6875 6.49609m-2.29687-5.55078l.78125-.94532m10.6875 1.125l5.59765 4.2461m-4.78515-3.6289l.19922-1.21095m11.9453 1.17188l6.3125 3.08984m-5.39452-2.64062l-.03906-1.22656m12.1875 1.45703l6.8125 1.73047m-6.8125-1.73047l-.58594-2.38282m13.82422 2.78516l6.96484.92578m-6.96484-.92578l-.85547-2.30078m14.33984 3.9336l6.625-2.33985m-6.625 2.33984l-1.8086-1.66015m2.77345 1.32031l-.90625-.82813m13.07812-.38671l6.98438.76953m-6.98438-.76953l-.90625-2.28125m15.88672 5.66796l3.65234-6.0039m-3.65234 6.0039l-2.44922-.14062m15.45313-.07031l4.27343-5.57813m-4.27343 5.57813l-2.42188-.40625m15.13672-.17969l5.47266-4.41016m-5.47266 4.41016l-2.2539-.96484"/><g clip-path="url(#V)"><path fill="none" stroke="#000" stroke-linecap="round" stroke-linejoin="round" stroke-miterlimit="10" stroke-width=".5" d="M147.34375 454.77734l-6.6875-2.16015"/></g><path fill="none" stroke="#000" stroke-linecap="round" stroke-linejoin="round" stroke-miterlimit="10" stroke-width=".5" d="M147.34375 454.77734l.42969 2.41797m12.57031-1.71484l-6.0586-3.5625m6.0586 3.5625l-.10547 2.45312m13.58984-2.77734l-6.39453-2.91406m6.39453 2.91406l.14844 2.44922m13.16406-2.44531l-6.39062-2.92188m6.39063 2.92188l.14453 2.44921m12.82422-1.85156l-5.69532-4.11719m4.86719 3.51563l-.16797 1.21484m14.53906-.97265L207.5 452m6.15234 3.39844l-.04297 2.45312m13.58985-2.97265l-6.61719-2.35938m5.65625 2.01563l.17578 1.21484m14.30469-2.02734l-7.02734-.04688m6.0039.03906l.57031 1.08985m13.60547-2.16407l-6.70312 2.11329m5.72656-1.8047l.875.85938m13.17188-1.75l-6.21094 3.28125m5.3086-2.80468l1.01562.6875m13.17969-1.21094l-6.16797 3.3711m5.26953-2.87891l1.02734.67187m13.19922-1.13281l-6.19531 3.3125m5.29687-2.83203l1.01563.6836m11.92187-2.51173l-3.64062 6.00781m3.11328-5.1328l1.22265.0664m12.57422-.96875l-3.55078 6.0625m3.03516-5.17969l1.22656.05078m12.58203-.94922l-3.50781 6.08985m3.50781-6.08985l2.45313.08594m10.3086-.34375L342.52733 457m2.05079-5.64453l1.21093-.17188m12.54297-.7539l-2.58203 6.53515m2.20703-5.58203l1.21875-.14062m10.79688-1.03516l.76562 6.98438m-.65234-5.96875l1.01172-.69141m9.65234 1.21484l5.84375 3.90235m-4.9961-3.33203l.125-1.22266m12.00782 1.28125l6.51172 2.64844m-6.51172-2.64844l-.25-2.4414m1.19922 2.82421l-.125-1.21875m12.23437 2.11719l7.02735.08203m-7.02735-.08203l-1.1289-2.17969m2.14843 2.1914l-.5625-1.08984m12.92188 1.80079l6.89453-1.35938m-6.89453 1.35938l-1.54688-1.90235m2.55079 1.70313l-.77344-.94922m13.3125 1.8711l6.4414-2.8047m-6.4414 2.8047l-1.92188-1.52735m2.85938 1.11719l-.96094-.76172m13.33984 1.17578l6.4375-2.8125m-6.4375 2.8125l-1.92187-1.52344m2.85937 1.11328l-.96093-.76172m13.48828 1.47266l6.14062-3.41406m-6.14062 3.41406l-2.0625-1.33594"/><g clip-path="url(#W)"><path fill="none" stroke="#000" stroke-linecap="round" stroke-linejoin="round" stroke-miterlimit="10" stroke-width=".5" d="M146.91797 442.33984l-5.83594-3.91015"/></g><path fill="none" stroke="#000" stroke-linecap="round" stroke-linejoin="round" stroke-miterlimit="10" stroke-width=".5" d="M146.91797 442.33984l-.2461 2.4375m12.85547-1.66406l-4.42187-5.46094m3.77734 4.66797l-.48047 1.1289m14.45313-.34765l-4.44922-5.4375m3.80078 4.64844l-.47266 1.1289m14.25782-.20312l-4.09375-5.71094m3.5 4.87891l-.54688 1.10156m15.39453-1.26953l-5.97265-3.70703m5.10156 3.16797l-.07813 1.22265m12.52344.7461l-2.48828-6.57031m2.125 5.61718l-.8086.92188m15.39845-.48047l-4.3125-5.54688m3.6875 4.7422l-.50391 1.11718m13.39062.25l-2.20703-6.67188m1.88672 5.70313l-.84766.88672m15.5547-.49219l-4.34766-5.51953m3.71484 4.71484l-.4961 1.125m15.44141-4.58984l-6.34765 3.01562m18.28515-4.52734l-3.58984 6.03906m15.1289-6.53125l-.03515 7.02735m16.0664-5.72266l-5.46874 4.41406m4.67187-3.76953l1.1289.48047m11.69532-2.1211l-2.89453 6.40626m2.47265-5.47266l1.22266-.07812m12.98438-.59766l-3.83204 5.89062m3.83204-5.89062l2.4414.21484m10.92969-.17578l-3.94922 5.8125m3.94922-5.8125l2.4414.26563m10.38282-.54297l-2.96485 6.3711m2.53516-5.44532l1.22266-.0664m9.78125-.95313l2.51953 6.5586m-2.15625-5.60548l.80469-.92578m10.1328 1.97656l6.54688 2.54688m-6.54687-2.54688l-.28906-2.4375m14.08984 1.57032l5.57422 4.28125m-5.57422-4.28125l.40625-2.41797m.40625 3.04297l.20312-1.21094m12.15625.78516l5.85938 3.8828m-5.85938-3.8828L407.60938 436m.61718 3.00781l.11719-1.22265m11.76953 2.32812l7.00781.53906m-7.0078-.53906l-.98048-2.2461m2 2.32423l-.49218-1.125m12.93359 2.35156l6.71484-2.07031m-6.71484 2.0703l-1.73828-1.73046m2.71484 1.42969l-1.73828-1.73047m14.1914 2.34765l6.48829-2.69921m-6.48828 2.69921l-1.89844-1.55859m2.83984 1.16406L447 440.5625m13.38281-1.67578l6.35547 2.9961m-5.42969-2.5625l-.05859-1.22266"/><g clip-path="url(#X)"><path fill="none" stroke="#000" stroke-linecap="round" stroke-linejoin="round" stroke-miterlimit="10" stroke-width=".5" d="M146.99219 428.90625l-5.98438-3.67578"/></g><path fill="none" stroke="#000" stroke-linecap="round" stroke-linejoin="round" stroke-miterlimit="10" stroke-width=".5" d="M146.1211 428.3711l-.07423 1.22656m14.07422-.41016l-5.60937-4.23438m4.79297 3.6172l-.19531 1.21093m13.79687-.03516l-4.55078-5.35547m3.89062 4.57422l-.45312 1.14063m13.90625.00781l-3.50781-6.08984m2.99609 5.20312l-.64844 1.03906m13.64844.19141l-1.85156-6.77734m1.58203 5.79297l-.89453.83984m12.57031.1289l1.96484-6.74609m-1.67968 5.76563l-1.20313.25M221.95703 430l3.86719-5.86328m-3.30469 5.01172l-1.22266-.11719m13.97657.97266l3.86328-5.8711m-3.30078 5.01563l-1.22266-.11328m16.90625 1.40234l-1.9961-6.73828m1.70704 5.75781l-.875.85938m16.89844-2.44141l-6.83594-1.61328m17.7539.8086l-.01953-.20313-.05859-.1914L278 426.5l-.45703-.375-.1914-.0586-.19923-.01953-.19922.01954-.1953.05859-.45704.375-.09375.17578-.0586.1914-.01952.20313.01953.19922.0586.1914.09374.17579.45703.375.19532.0586.19921.01952.19922-.01953.1914-.0586.45704-.375.09375-.17577.0586-.1914.01953-.19923m9.55859 2.20313l5.47266-4.41016m10.2578-1.29297l.64063 6.9961m15.48438-5.97657l-4.98047 4.95703m16.13672-5.97656l-.66406 6.9961m.5664-5.97657l1.13281-.47265m13.77735-.05078l-3.65625 6.0039m3.1211-5.1289l1.22655.0703m12.28125-1.125L355.5547 430.25m2.53906-5.4375l1.22656-.0625m9.375-.77734l3.32032 6.1914m-2.83594-5.28906l.6836-1.01953m10.60546 4.65625l6.40625-2.88672m-5.47656 2.46484l-.96875-.75m16.2539-3.77343l.60547 7.0039m-.60547-7.0039l2.0586-1.33204m-1.97266 2.35157l1.03125-.66797m12.66406-.35938l-.32812 7.01953m.32812-7.01953l2.21875-1.05078m11.55079 1.10156L423 430.52734m1.23438-6.91797l2.33203-.7539m-2.51172 1.76172l1.16797-.3789m8.19922 2.6953l7.01953.26953m-7.01953-.26953l-1.07032-2.21093m14.66797.95312l6.45313 2.78516m-5.51172-2.3789l-.10156-1.22267m17.625-.73046l-3.84766 5.8789"/><g clip-path="url(#Y)"><path fill="none" stroke="#000" stroke-linecap="round" stroke-linejoin="round" stroke-miterlimit="10" stroke-width=".5" d="M465.48438 424.1289l2.4453.22266"/></g><g clip-path="url(#Z)"><path fill="none" stroke="#000" stroke-linecap="round" stroke-linejoin="round" stroke-miterlimit="10" stroke-width=".5" d="M147.16016 415.28516l-6.32032-3.06641"/></g><path fill="none" stroke="#000" stroke-linecap="round" stroke-linejoin="round" stroke-miterlimit="10" stroke-width=".5" d="M146.24219 414.83984l.04297 1.22657m14.43359-1.4375l-6.8086-1.75m5.81641 1.49609l.28906 1.1914m14.1211-1.60156l-7.01563-.42578m5.9961.36328l.50781 1.1172m13.55469.10937l-6.46875-2.75m5.52734 2.34765l.10547 1.22266m12.41797.98047l-3-6.35547m12.08203 5.38672l5.46484-4.41797m-4.67187 3.77734l-1.1289-.48047m13.33984.66797l6.08593-3.51172m-6.08593 3.51172l-2.08203-1.30078m15.44921 1.39063l5.98047-3.6875m-5.98047 3.6875l-2.11718-1.23828m18.36718 2.90625l.11328-7.02344m-.09765 6.0039l-1.09375.5586m12.66797-.02344l3.5625-6.05469m-3.04688 5.17188l-1.22265-.05078m12.30859-2.46485l6.98828.73828m-5.97265-.6289l-.45704-1.13672m16.02344-2.10938l.45703 7.01172m-.39062-5.99219l1.04297-.64453m9.34375 1.45703l6.17578 3.35157m-5.27735-2.86328l.01172-1.22657m13.07031-.1289l4.84766 5.08594m7.38672-2.78907l7.00781.49219m8.10938-3.32031l3.40234 6.14844m-2.90625-5.25391l.66797-1.02734m15.78516.27343l-3.86329 5.86719m3.30079-5.01562l1.22265.11718m10.29297-1.52343l.86328 6.97656m-.73828-5.96094l1.0039-.70312m10.25.57812l4.73438 5.19531m-4.73437-5.19531l.82422-2.3086m12.54296 2.26173l4.62891 5.28906m-4.6289-5.28906l.875-2.29297m-.19922 3.0625l.87109-2.29297m15.46875.9375l-2.77344 6.45703m2.77344-6.45703l2.44531-.20313m-2.84765 1.14453l1.22265-.10156m12.8125-.6836l-3.40625 6.14845m3.40625-6.14844l2.45313.04297m-2.94922.85156l2.45312.04297m-2.94922.85156l1.22657.01953m12.90234-1.90234l-3.05078 6.33203m3.05078-6.33203l2.44922-.09766m-2.89453 1.01953l1.22656-.04687m13.67188.0039l-5.32813 4.57813m5.32813-4.57813l2.28906.89063m11.63281.11328l-6.54297 2.5664"/><g clip-path="url(#aa)"><path fill="none" stroke="#000" stroke-linecap="round" stroke-linejoin="round" stroke-miterlimit="10" stroke-width=".5" d="M466.83203 412.46875l1.86328 1.59766"/></g><g clip-path="url(#ab)"><path fill="none" stroke="#000" stroke-linecap="round" stroke-linejoin="round" stroke-miterlimit="10" stroke-width=".5" d="M147.39844 401.32422l-6.79688-1.77344"/></g><path fill="none" stroke="#000" stroke-linecap="round" stroke-linejoin="round" stroke-miterlimit="10" stroke-width=".5" d="M146.41016 401.0664l.28515 1.19532m12.67969-4.67188l-4.11719 5.69532m3.51563-4.8672l1.21484.16798m7.59375.10547l6.09766 3.49609m-5.21094-2.98828l.03906-1.22656m13.04297-.10547l4.78906 5.14062m7.4375-2.10547l6.96485-.92578m-5.95313.78906l-.71094-.99609m12.98829.49219l7.01953.35156m-7.01953-.35156l-1.04297-2.21875m14.4414 3.17187l6.85157-1.55468m-6.85157 1.55468l-1.60156-1.85937m14.89063.42578l6.90234 1.3125m-6.90234-1.3125l-.72657-2.34375m14.94141 5.41797l5.10156-4.83203m-5.10156 4.83203l-2.32422-.78125m16.13281 1.21094l4.1172-5.69532m-3.51954 4.8672l-1.21484-.16798m15.90625-5.36328l.16797 7.02344m16.67578-2.82813l-6.89063-1.36718m5.89063 1.16796l.35156 1.17579m13.50781-3.50391l-5.98047 3.6914m5.98047-3.6914l2.1211 1.23828m11.42968 2l-6.44922-2.78906m17.77735-1.89453l-2.47266 6.57812m14.19922-6.78515l.69922 6.99218m-.69922-6.99218l2.04297-1.35938m8.65625 6.73828l5.9336-3.76172m7.17577.3711l6.34766 3.01562m13.39453-2.83594l-6.50781 2.65625m6.50781-2.65625l1.88281 1.57032m-2.83203-1.1836l.94532.78516m12.51953-2.35547l-4.91016 5.02344m4.91016-5.02344l2.35547.6914m11.02734-.625l-5.04688 4.89063m5.04688-4.89062l2.33594.75781m9.55859-1.64844l-2.20703 6.67188m2.20703-6.67188l2.41797-.41406m-2.73828 1.38672l1.21094-.20703m13.29296-.33594l-3.9414 5.8164m3.9414-5.8164l2.44141.26172m-3.01562.58203l1.22265.13281m13.10156-.63281L447.84375 403m4.8086-5.125l2.36718.64453m-3.07031.10156l1.1875.32032m13.66797.14453l-6.48438 2.70312"/><g clip-path="url(#ac)"><path fill="none" stroke="#000" stroke-linecap="round" stroke-linejoin="round" stroke-miterlimit="10" stroke-width=".5" d="M466.80469 399.08594l1.89844 1.5586"/></g><path fill="none" stroke="#000" stroke-linecap="round" stroke-linejoin="round" stroke-miterlimit="10" stroke-width=".5" d="M465.85938 399.48047l.94921.77734"/><g clip-path="url(#ad)"><path fill="none" stroke="#000" stroke-linecap="round" stroke-linejoin="round" stroke-miterlimit="10" stroke-width=".5" d="M147.46484 386.53125l-6.92968 1.1836"/></g><path fill="none" stroke="#000" stroke-linecap="round" stroke-linejoin="round" stroke-miterlimit="10" stroke-width=".5" d="M147.46484 386.53125l1.5 1.9414m-2.5078-1.76952l.75.96875m12.80858-2.79297l-5.40234 4.48828m5.40234-4.48828l2.27344.92968m-3.0586-.27734l1.13673.46484m10.86328-2.33593l-1.19922 6.92578m1.19922-6.92578l2.32812-.76563m13.25391 6.25781l-5.73438-4.05859m12.76172 1.22656l6.83985 1.60547m-5.84375-1.3711l-.3164-1.1875m13.78515-.92577l4.54297 5.36328m-4.54297-5.36328l.91015-2.27735m-.25 3.0586l.45313-1.14063m11.48828 1.1875l5.96875 3.71094m-5.96875-3.71094l.16797-2.44922m.69922 2.98828l.08594-1.22656m14.10937 5.83203l2.47266-6.57812m-2.11328 5.6211l-1.21485.15624m17.22656.51563l-3.64062-6.01172m3.64062 6.01172l-1.2578 2.10546m13.58202-1.6953l-1.66015-6.82813m1.42187 5.83203l-.91797.8164m16.6836-1.47656l-6.08203-3.51562m6.08203 3.51562l-.08594 2.44922m13.59766-2.84375l-6.47657-2.73047m6.47656 2.73047l.21875 2.44531m13.19532-4.91406l-6.67188 2.20703m6.67188-2.20703l1.77344 1.6914m-2.7461-1.37109l.88672.84766m13.1875-1.67188l-6.2461 3.21485m6.2461-3.21485l2.01563 1.39844m10.95312-1.9414l-5.55469 4.30078m5.55469-4.30078l2.23828 1.0078m11.20313-.83593l-5.8047 3.95703m5.8047-3.95703l2.17187 1.14063m11.50781 2.1328l-6.53515-2.58983m6.53515 2.58984l.27344 2.4375m-1.22656-2.8164l.13672 1.22265m14.36328-2.4414l-7 .60546m7-.60547l1.33594 2.0586m-2.35157-1.97266l.66407 1.03125m13.01953-2.86328l-5.70703 4.09765m5.70703-4.09765l2.20312 1.08984m10.44531-1.79297l-4.37109 5.50391m4.3711-5.5039l2.41406.44921m10.51172-.71875l-3.59375 6.04297m3.59375-6.04297l2.44921.1211m8.80079-.60157l.53515 7.00391m-.53515-7.0039l2.07421-1.31641m12.9336 1.60547l-2.84766 6.42578m2.84766-6.42578l2.44922-.17188m10.98437.23047l-3.08594 6.3125m3.08594-6.3125l2.45313-.08594m11.97265.9375l-5.30468 4.60938"/><g clip-path="url(#ae)"><path fill="none" stroke="#000" stroke-linecap="round" stroke-linejoin="round" stroke-miterlimit="10" stroke-width=".5" d="M466.21484 384.82031l2.28907.8789"/></g><path fill="none" stroke="#000" stroke-linecap="round" stroke-linejoin="round" stroke-miterlimit="10" stroke-width=".5" d="M465.4414 385.48828l1.14454.4414"/><g clip-path="url(#af)"><path fill="none" stroke="#000" stroke-linecap="round" stroke-linejoin="round" stroke-miterlimit="10" stroke-width=".5" d="M147.36719 372.8086l-6.73438 2"/></g><path fill="none" stroke="#000" stroke-linecap="round" stroke-linejoin="round" stroke-miterlimit="10" stroke-width=".5" d="M147.36719 372.8086l1.72265 1.75m11.4336-2.1797l-6.41797 2.85938m6.41797-2.85937l1.9336 1.51171m11.3164-1.65234l-6.28516 3.14063m6.28516-3.14063l2 1.42188m-2.91406-.96485l1 .71094m12.9414-1.64453l-5.71094 4.09375m5.71094-4.09375L189 372.84766m9.78125-2.20704l-3.04297 6.33594m3.04297-6.33594l2.45313-.09765m8.41015-.1211l1.86328 6.77344m-1.86328-6.77344l1.78125-1.6875m-1.51172 2.67188l.89063-.84375m9.83594 1.91016l6.5 2.67187m-5.5547-2.28515l-.12109-1.21875m16.46875 5.60546l-1.45703-6.875m1.2461 5.875l-.94141.78907m15.48438-.17579l-3.48829-6.10156m3.48828 6.10156l-1.30859 2.07422m15.6836-3.0078l-5.60938-4.23438m5.60938 4.23437l-.38672 2.42188m13.37109-2.04297l-4.94922-4.99219m4.94922 4.99219l-.73047 2.34375m14.51172-2.91406l-5.8789-3.85157m5.8789 3.85156l-.22656 2.44532m13.95703-3.33203l-6.71094-2.07813m6.71094 2.07813l.46094 2.41015m12.91796-4.2539l-6.83984 1.60937m6.83985-1.60937l1.61718 1.84765m11.63281-2.08984l-6.70703 2.09375m5.73047-1.78906l.8711.85937m13.14062-1.82031l-6.14844 3.40234m6.14844-3.40234l2.05469 1.33984m11.67187.79688l-6.97265-.8711m6.97265.8711l.875 2.29297m12.46094-2.51172l-7.01562-.42969m7.01562.42969l1.01563 2.23437m12.24218-3.10937l-6.90234 1.32031m5.89844-1.1289l.76953.95702m12.2539-3.26562l-4.30859 5.55469m3.67969-4.7461l1.21094.20704m12.0625-1.42579l-2.96485 6.3711m2.53125-5.4414l1.22656-.06642m10.85938-1.18359l.35938 7.01563m-.3086-5.9961l1.05078-.63281m13.08203-.32422l-1.3789 6.89063m1.3789-6.89063l2.35157-.70312m11.01953.71484L449.5 377.24219m1.49219-6.86719l2.36328-.66406m12.97656 1.9375l-5.54297 4.32031"/><g clip-path="url(#ag)"><path fill="none" stroke="#000" stroke-linecap="round" stroke-linejoin="round" stroke-miterlimit="10" stroke-width=".5" d="M466.33203 371.64844l2.24219 1"/></g><path fill="none" stroke="#000" stroke-linecap="round" stroke-linejoin="round" stroke-miterlimit="10" stroke-width=".5" d="M465.52734 372.27734l1.1211.5"/><g clip-path="url(#ah)"><path fill="none" stroke="#000" stroke-linecap="round" stroke-linejoin="round" stroke-miterlimit="10" stroke-width=".5" d="M146.73438 358.28516l-5.46875 4.41406"/></g><path fill="none" stroke="#000" stroke-linecap="round" stroke-linejoin="round" stroke-miterlimit="10" stroke-width=".5" d="M145.9375 358.92969l1.1289.48047m12.75782-1.37891l-5.01563 4.92188m4.28516-4.20313l1.16797.36719m13.4414-.33203l-6.14453 3.41406m5.25-2.91797l1.02735.66797m13.09765-1.30078l-5.97656 3.6914m5.10938-3.15625l1.05859.6211m12.48828-1.91797l-4.70703 5.21484m4.02344-4.45703l1.1914.29688m12.53907-1.27735l-4.17188 5.65625m4.17188-5.65625l2.42968.36328m10.63282-.53125l-3.66407 5.9961m3.66407-5.9961l2.44922.14454m-2.98438.72656l1.22656.07422m9.58985 5.35156l2.40234-6.60156m-2.40234 6.60156l-2.4297.34375m18.6875-.59375l-3.48437-6.10156m3.48438 6.10156l-1.3086 2.07422m14.8047-2.1836l-3.84376-5.8828m3.84375 5.8828l-1.1836 2.14844m15.14454-2.6914l-5.13672-4.79297m5.13672 4.79296l-.63281 2.3711m14.16797-2.6289l-5.57813-4.27735m4.76563 3.65234l-.19922 1.21094m14.94922-1.875l-6.82032-1.70313m19.3125-1.52343l-5.17578 4.7539m19.1211-3.79296l-6.4336 2.82812m6.4336-2.82813l1.92578 1.51954m11.59375-.89454l-6.84375 1.58204m6.84375-1.58204l1.60937 1.85157m11.66407-2.02344l-6.75782 1.92578m5.77344-1.64844l.85156.88672m13.26563-1.66015l-6.39453 2.91406m5.46093-2.48828l.97657.7461m13.1953-1.32813l-6.24218 3.23046m5.33203-2.76171l1.01172.69921m12.3125-2.27734l-4.4414 5.44531m3.79296-4.65234l1.20704.23828m12.14843-1.42969l-3.22656 6.2422m3.22656-6.2422l2.45313-.02734m9.38281-.36328l-.26953 7.02344m.23047-6l1.10547-.53516m12.0078-.48828l.21485 7.02344m-.1836-6l1.0625-.60938m11.83985-.3789l.98047 6.95703m-.98047-6.95704l1.98438-1.4453m14.42578 2.5664l-5.21484 4.71094"/><g clip-path="url(#ai)"><path fill="none" stroke="#000" stroke-linecap="round" stroke-linejoin="round" stroke-miterlimit="10" stroke-width=".5" d="M466.16797 358.13672l2.3086.83594"/></g><g clip-path="url(#aj)"><path fill="none" stroke="#000" stroke-linecap="round" stroke-linejoin="round" stroke-miterlimit="10" stroke-width=".5" d="M143.09375 343.78516l1.8125 6.78906"/></g><g clip-path="url(#ak)"><path fill="none" stroke="#000" stroke-linecap="round" stroke-linejoin="round" stroke-miterlimit="10" stroke-width=".5" d="M143.09375 343.78516l1.79297-1.67188"/></g><path fill="none" stroke="#000" stroke-linecap="round" stroke-linejoin="round" stroke-miterlimit="10" stroke-width=".5" d="M155.71875 344.05078l3.19531 6.25781m-3.19531-6.2578l1.40234-2.01173m11.4297 2.3086l4.16015 5.66406m-4.16016-5.66406l1.0625-2.21094m12.1211 2.3086l4.42187 5.46484m-3.77734-4.66797l.48047-1.1289m12.10937.40233l4.58594 5.32422m-3.92188-4.55078l.44531-1.14062m14.23438-.47266l.52734 7.00781m-.44922-5.98828l1.03516-.65625m15.16406.88672l-5.39843 4.5039m5.39843-4.5039l2.26953.92969m10.07422 4.38281l-3.45703-6.1211m3.45703 6.1211l-1.3203 2.0664m13.51562-1.66796l-1.21485-6.91797m1.21485 6.91797l-1.9336 1.51172m16.02735-1.74219l-2.77344-6.45703m2.77344 6.45703l-1.53516 1.91406m1.13281-2.85156l-.76953.95313m15.04297-.31641l-3.88672-5.85547m3.88672 5.85547l-1.16406 2.15625m14.51562-2.1836l-3.96094-5.80078m3.38672 4.95704l-.5703 1.08593m14.64062-5.91406l-4.32032 5.54297m16.31641-6.1836l-1.67969 6.82422m14.83203-6.85937l-1.35937 6.89453m1.16015-5.89063l1.17579-.35546m14.92578 1.5039l-6.53125 2.59375m6.53125-2.59375l1.8711 1.58594m11.10937-2.22656l-5.86329 3.8711m5.86329-3.8711l2.15625 1.17187m10.17578-2.16015l-3.89844 5.84765m3.33203-4.9961l1.21875.1211m13.32031-.40234l-5.21484 4.70703m4.45703-4.02344l1.15234.41797m12.1172-1.76172l-3.60548 6.02735m3.08203-5.15235l1.22657.0625m13.03515-.64453l-4.44922 5.4414m3.80079-4.64843l1.20312.23828m12.51953-1.20703l-3.97265 5.79688m3.39453-4.95704l1.21875.14063m10.57812-1.59375l.22266 7.02344m-.22266-7.02344l2.1289-1.22266m10.96095 1.23438l.67187 6.9961m-.67187-6.9961l2.04687-1.35156m13.26563 1.7539l-3.32422 6.1914m3.32422-6.1914l2.45312.01172"/><g clip-path="url(#al)"><path fill="none" stroke="#000" stroke-linecap="round" stroke-linejoin="round" stroke-miterlimit="10" stroke-width=".5" d="M141.48828 331.40625l5.02344 4.91406"/></g><path fill="none" stroke="#000" stroke-linecap="round" stroke-linejoin="round" stroke-miterlimit="10" stroke-width=".5" d="M154.44531 331.83203l5.73828 4.0625m-5.73828-4.0625l.3125-2.4336m.52344 3.02344l.15625-1.21484m12.11328.96094l6.15625 3.39062m-6.15625-3.39062l.03906-2.45313m.85938 2.94532l.03516-2.45313m12.23046 2.27735l6.46094 2.7578m-6.46094-2.7578l-.21093-2.44532m1.14843 2.84375l-.10156-1.21875m12.51563.73438l6.38672 2.92969m-6.38672-2.9297l-.14453-2.44921m1.07421 2.875l-.0703-1.22266m12.3789.98047l6.54297 2.5625m-6.54297-2.5625l-.28516-2.4375m17.20703.22266l-.67187 6.99219m.57422-5.97657l1.1328-.46875m14.6797.7461l-5.47266 4.40625m4.67578-3.76563l1.1289.48438m10.88282 4.53515l-1.27344-6.91406m1.08985 5.90625l-.96094.76172m15.35547-.05078l-3.0625-6.32422m2.61719 5.40625l-.72266.98828m14.5625-.10938l-3.21875-6.24609m2.75 5.33985l-.69922 1.0078m12.4961.26954l.7539-6.98438m-.64453 5.96875l-1.14063.45704m12.8672.05078l3.71093-5.96875m-3.17188 5.09765l-1.22265-.08203m12.58203-3.3086l6.54687 2.5547m-5.59765-2.1836l-.14063-1.21875m15.27344-1.35156l1.01172 6.95312m-.86719-5.9414l.99219-.72656m13.625-.19532l-1.88672 6.76953m1.61328-5.78125l1.19922-.26562m12.76562-.59375l-2.63671 6.51562m2.63671-6.51562l2.4375-.2539m10.38282.09765l-1.64844 6.82812m1.41016-5.83593l1.1875-.3047m14.46484.77735l-5.84766 3.89844m4.9961-3.33203l1.08203.58203m9.8164-2.69531l.69141 6.99219m-.58984-5.97657l1.01953-.67969m11.72656-.2578l1.625 6.83593m-1.625-6.83594l1.83984-1.6211m14.08985 2.02345l-3.60547 6.03125m14.57031-6.48438l1.09766 6.9375m-.9375-5.92969l.97656-.73828m13.45313-.23828l-1.45313 6.875m1.24219-5.875l1.17969-.33984m13.73828-.02735l-4.23438 5.60938m3.61719-4.79297l1.21094.19531"/><g clip-path="url(#am)"><path fill="none" stroke="#000" stroke-linecap="round" stroke-linejoin="round" stroke-miterlimit="10" stroke-width=".5" d="M142.0039 317.65625l3.9922 5.78125"/></g><path fill="none" stroke="#000" stroke-linecap="round" stroke-linejoin="round" stroke-miterlimit="10" stroke-width=".5" d="M154.65234 318.25781l5.32422 4.58203m-5.32422-4.58203l.53907-2.39453m12.05859 3.71875l6.75781 1.92969m-6.75781-1.92969l-.51172-2.39844m13.69531 3.21094l7.02344.3086m-7.02344-.3086l-1.05468-2.21484m2.07812 2.25781l-1.0586-2.21484m13.35157 2.16406l7.01953.32422m-7.01953-.32422l-1.05078-2.21875m2.07422 2.26562l-1.05078-2.21875m13.35156 2.01954l7 .625m-7-.625l-.95313-2.25782m1.97266 2.34766l-.95313-2.25781m13.375 1.5039l6.75 1.95313m-6.75-1.95313l-.5039-2.39844m1.48437 2.6836l-.25-1.19922m13.75782-.84766l4.40234 5.48047m-3.76172-4.6836l.48438-1.1289m13.53906 6.48047l1.70312-6.8164m-1.45312 5.82421l-1.1914.29688m14.02343.6289l2.17188-6.68359m-2.17188 6.6836l-2.41797.42578m15.5039-.51172l2.62891-6.51563m-2.24609 5.57031l-1.22266.125m15.25782 1.07032l.42578-7.01563m-.36328 5.9961l-1.1172.5078m13.5586.3672l2.04688-6.72266m-1.75 5.74219l-1.20313.23437m15.9375.82813l-1.38672-6.88672m1.1875 5.88281l-.94921.78125m17.125-2.17578l-6.71094-2.08984m5.73437 1.78515l.22657 1.20703m13.07812-4.54296l-4.73437 5.1914m4.04687-4.4375l1.1875.30469m10.17188-1.96485l.55078 7.00391m-.55078-7.0039l2.0703-1.32032m12.41016 1.42188l-1.78125 6.79687m1.52344-5.8086l1.19531-.28124m14.41016.74219l-5.84766 3.89843m4.9961-3.32812l1.08203.57812m11.40625-2.48437l-2.48828 6.57422m2.125-5.61719l1.21875-.15625m11.57812-1.00781l-.72656 6.98828m.72656-6.98828l2.27344-.92578m11.28906.95703l-1.21875 6.92187m1.03907-5.91406l1.16796-.3789m11.64454 6.34765l.14453-7.02734m-.125 6.0039l-1.09375.55469m17.6914-4.42578l-6.46093 2.75781m5.52343-2.35547l.95313.76953m13.20703-1.375l-6.27344 3.16797"/><g clip-path="url(#an)"><path fill="none" stroke="#000" stroke-linecap="round" stroke-linejoin="round" stroke-miterlimit="10" stroke-width=".5" d="M466.69922 318.96484l2.0039 1.41407"/></g><path fill="none" stroke="#000" stroke-linecap="round" stroke-linejoin="round" stroke-miterlimit="10" stroke-width=".5" d="M465.78516 319.42578l1.0039.70703"/><path fill="#00f" fill-rule="evenodd" d="M392.67578 463.21094h8.6211V453.0625h-8.6211v10.14844"/><path fill="azure" fill-rule="evenodd" d="M394.51172 454.89844h.83203v2.82031h3.28516v-2.82031h.83203v6.48047h-.83203v-2.91797h-3.28516v2.91797h-.83203v-6.48047"/><path fill="#ff3030" fill-rule="evenodd" d="M322.35938 445.45703h7.6914V435.3125h-7.6914v10.14453"/><path fill="azure" fill-rule="evenodd" d="M324.1914 437.14453h.83204v5.73828h3.19531v.74219h-4.02734v-6.48047"/><path fill="#ff3030" fill-rule="evenodd" d="M189.20703 423.26563h7.6914v-10.14844h-7.6914v10.14844"/><path fill="azure" fill-rule="evenodd" d="M191.03906 414.95313h.83594v5.73828h3.1914v.74218h-4.02734v-6.48046"/><path fill="#00f" fill-rule="evenodd" d="M219.58203 414.38672h8.61719v-10.14453h-8.61719v10.14453"/><path fill="azure" fill-rule="evenodd" d="M221.41406 406.07422h.83203v2.82422h3.28907v-2.82422h.83203v6.48047h-.83203v-2.91406h-3.28907v2.91406h-.83203v-6.48047"/><path fill="#00f" fill-rule="evenodd" d="M370.48438 401.07422h8.62109v-10.14844h-8.6211v10.14844"/><path fill="azure" fill-rule="evenodd" d="M372.3164 392.76172h.83594v2.82031h3.28516v-2.82031h.83203v6.47656h-.83203v-2.91406h-3.28516v2.91406h-.83593v-6.47656"/><path fill="#ff3030" fill-rule="evenodd" d="M238.02734 374.4414h7.69532v-10.14452h-7.69532v10.14453"/><path fill="azure" fill-rule="evenodd" d="M239.86328 366.1289h.83203v5.7422h3.19531v.73827h-4.02734v-6.48046"/><path fill="#ffffe0" fill-rule="evenodd" d="M350.6211 350.21875h22.17968v-10.1914H350.6211v10.1914"/><path fill-rule="evenodd" d="M354.1211 341.85938h.5078v6.29296h-.78515v-4.48828h-1.39063v-.55469l.5586-.0664.2539-.05469.23047-.08984.20313-.14063.17187-.21094.14454-.29296.10546-.39454m4.8125 0l.23047.01954.21875.05468.20703.08985.19532.1211.18359.14843.17188.17578.30468.41797.24219.4961.17969.54687.10937.57812.03906.58985-.03906.59375-.10937.58593-.17969.55079-.24219.5039-.30469.42969-.17187.17969-.1836.15234-.1953.1211-.20704.09374-.21875.0586-.23047.01953-.23046-.01953-.21875-.0586-.20704-.09375-.1953-.12109-.1836-.15234-.17188-.1797-.30469-.42968-.24218-.5039-.17969-.55079-.10938-.58593-.03906-.59375h.83203l.03125.5625.07813.5078.1289.44142.16016.375.1914.30078.21094.22265.22266.13672.22656.04688.22657-.04688.22265-.13672.21094-.22265.1914-.30079.16016-.375.1289-.4414.08204-.50781.02734-.5625-.02734-.5586-.08203-.5039-.1289-.4336-.16016-.36719-.19141-.28906-.21094-.21484-.22265-.13281-.22657-.04297-.22656.04297-.22265.1328-.21094.21485-.1914.28906-.16017.3672-.1289.43359-.07813.5039-.03125.5586h-.83203l.03906-.58985.10938-.57812.17969-.54688.24219-.4961.30468-.41796.17188-.17578.1836-.14844.1953-.1211.20704-.08984.21875-.05468.23046-.01954m5.08985 0h.51172v6.29297h-.78907v-4.48828h-1.38671v-.55469l.55859-.0664.2539-.05469.22657-.08984.20703-.14063.17187-.21094.14063-.29296.10547-.39454m2.82422 2.17579h.78906l.01953-.31641.0586-.28516.09765-.2539.14063-.21485.18359-.17578.22265-.1289.26563-.07813.30469-.02734.23828.01953.22656.0625.20313.10156.17968.13672.14844.17578.11328.20703.07031.23438.02735.26562-.02344.26563-.0664.22656-.10938.1914-.15625.17188-.19922.16016-.2461.16797-.63671.38671-.53516.31641-.4375.3164-.34765.32423-.26563.33593-.1875.35157-.125.36718-.07031.39454-.01953.41796h4.21094v-.73828h-3.33204l.08204-.28515.11328-.23829.14843-.19921.1875-.1797.23047-.17187.27735-.17578.71875-.41797.41406-.20312.34765-.23047.28125-.2539.21875-.26563.16407-.27735.10937-.28515.0664-.28516.01954-.28125-.04297-.38281-.1211-.34766-.1875-.30859-.25-.26172-.30468-.21484-.34375-.15625-.3789-.10156-.41016-.03125-.4336.03125-.39843.10156-.35547.16406-.30469.23438-.2461.30468-.1875.375-.11327.44531-.04297.51954"/></g></defs><use xlink:href="#ao"/></svg>