<svg xmlns="http://www.w3.org/2000/svg" role="img" xmlns:xlink="http://www.w3.org/1999/xlink" viewBox="142.45 309.95 326.84 171.84"><defs><clipPath id="a"><path d="M144 311.67188h1V480h-1zm0 0"/></clipPath><clipPath id="b"><path d="M144 479h2v1.32813h-2zm0 0"/></clipPath><clipPath id="c"><path d="M144 311.67188h324v168.65625H144zm0 0"/></clipPath><clipPath id="d"><path d="M217 477h11v3.32813h-11zm0 0"/></clipPath><clipPath id="e"><path d="M380 467h25v13.32813h-25zm0 0"/></clipPath><clipPath id="f"><path d="M399 474h4v6.32813h-4zm0 0"/></clipPath><clipPath id="g"><path d="M467 311.67188h1v168.65625h-1zm0 0"/></clipPath><clipPath id="h"><path d="M144 479h4v1.32813h-4zm0 0"/></clipPath><clipPath id="i"><path d="M147 480h2v.32813h-2zm0 0"/></clipPath><clipPath id="j"><path d="M146 480h2v.32813h-2zm0 0"/></clipPath><clipPath id="k"><path d="M153 479h9v1.32813h-9zm0 0"/></clipPath><clipPath id="l"><path d="M160 480h2v.32813h-2zm0 0"/></clipPath><clipPath id="m"><path d="M159 480h2v.32813h-2zm0 0"/></clipPath><clipPath id="n"><path d="M166 479h9v1.32813h-9zm0 0"/></clipPath><clipPath id="o"><path d="M173 480h2v.32813h-2zm0 0"/></clipPath><clipPath id="p"><path d="M172 480h2v.32813h-2zm0 0"/></clipPath><clipPath id="q"><path d="M180 479h8v1.32813h-8zm0 0"/></clipPath><clipPath id="r"><path d="M187 480h2v.32813h-2zm0 0"/></clipPath><clipPath id="s"><path d="M193 479h8v1.32813h-8zm0 0"/></clipPath><clipPath id="t"><path d="M199 480h2v.32813h-2zm0 0"/></clipPath><clipPath id="u"><path d="M206 479h9v1.32813h-9zm0 0"/></clipPath><clipPath id="v"><path d="M213 480h2v.32813h-2zm0 0"/></clipPath><clipPath id="w"><path d="M220 478h8v2.32813h-8zm0 0"/></clipPath><clipPath id="x"><path d="M233 478h8v2.32813h-8zm0 0"/></clipPath><clipPath id="y"><path d="M247 478h7v2.32813h-7zm0 0"/></clipPath><clipPath id="z"><path d="M260 478h8v2.32813h-8zm0 0"/></clipPath><clipPath id="A"><path d="M275 476h5v4.32813h-5zm0 0"/></clipPath><clipPath id="B"><path d="M286 478h8v2.32813h-8zm0 0"/></clipPath><clipPath id="C"><path d="M303 476h2v4.32813h-2zm0 0"/></clipPath><clipPath id="D"><path d="M314 477h6v3.32813h-6zm0 0"/></clipPath><clipPath id="E"><path d="M327 478h7v2.32813h-7zm0 0"/></clipPath><clipPath id="F"><path d="M340 478h7v2.32813h-7zm0 0"/></clipPath><clipPath id="G"><path d="M340 480h2v.32813h-2zm0 0"/></clipPath><clipPath id="H"><path d="M353 478h8v2.32813h-8zm0 0"/></clipPath><clipPath id="I"><path d="M353 480h2v.32813h-2zm0 0"/></clipPath><clipPath id="J"><path d="M366 479h8v1.32813h-8zm0 0"/></clipPath><clipPath id="K"><path d="M379 479h9v1.32813h-9zm0 0"/></clipPath><clipPath id="L"><path d="M380 479h2v1.32813h-2zm0 0"/></clipPath><clipPath id="M"><path d="M393 478h8v2.32813h-8zm0 0"/></clipPath><clipPath id="N"><path d="M393 480h3v.32813h-3zm0 0"/></clipPath><clipPath id="O"><path d="M406 479h8v1.32813h-8zm0 0"/></clipPath><clipPath id="P"><path d="M406 479h3v1.32813h-3zm0 0"/></clipPath><clipPath id="Q"><path d="M420 478h7v2.32813h-7zm0 0"/></clipPath><clipPath id="R"><path d="M420 480h2v.32813h-2zm0 0"/></clipPath><clipPath id="S"><path d="M434 477h6v3.32813h-6zm0 0"/></clipPath><clipPath id="T"><path d="M448 476h4v4.32813h-4zm0 0"/></clipPath><clipPath id="U"><path d="M459 478h9v2.32813h-9zm0 0"/></clipPath><clipPath id="V"><path d="M460 480h2v.32813h-2zm0 0"/></clipPath><clipPath id="W"><path d="M144 466h4v2h-4zm0 0"/></clipPath><clipPath id="X"><path d="M144 452h4v4h-4zm0 0"/></clipPath><clipPath id="Y"><path d="M144 438h4v5h-4zm0 0"/></clipPath><clipPath id="Z"><path d="M144 424h4v6h-4zm0 0"/></clipPath><clipPath id="aa"><path d="M465 423h3v2h-3zm0 0"/></clipPath><clipPath id="ab"><path d="M144 411h4v5h-4zm0 0"/></clipPath><clipPath id="ac"><path d="M466 412h2v3h-2zm0 0"/></clipPath><clipPath id="ad"><path d="M144 399h4v3h-4zm0 0"/></clipPath><clipPath id="ae"><path d="M466 398h2v3h-2zm0 0"/></clipPath><clipPath id="af"><path d="M144 386h4v3h-4zm0 0"/></clipPath><clipPath id="ag"><path d="M466 384h2v3h-2zm0 0"/></clipPath><clipPath id="ah"><path d="M144 372h4v4h-4zm0 0"/></clipPath><clipPath id="ai"><path d="M466 371h2v2h-2zm0 0"/></clipPath><clipPath id="aj"><path d="M144 357h3v7h-3zm0 0"/></clipPath><clipPath id="ak"><path d="M465 357h3v3h-3zm0 0"/></clipPath><clipPath id="al"><path d="M144 343h2v8h-2zm0 0"/></clipPath><clipPath id="am"><path d="M144 341h2v4h-2zm0 0"/></clipPath><clipPath id="an"><path d="M465 343h3v2h-3zm0 0"/></clipPath><clipPath id="ao"><path d="M144 331h3v6h-3zm0 0"/></clipPath><clipPath id="ap"><path d="M144 317h3v7h-3zm0 0"/></clipPath><clipPath id="aq"><path d="M466 318h2v3h-2zm0 0"/></clipPath><g id="ar" clip-path="url(#clip1)"><path fill="#fff" fill-opacity="0" fill-rule="evenodd" d="M0 0h1000v1000H0zm0 0"/><path fill="#d3d3d3" fill-opacity="0" fill-rule="evenodd" d="M162.15234 355.86719l-.23437.29297.0586.23437.11718.17188.17578.23437.29297.34766.11328.0586.11719-.17188.0586-.23438.17577-.17578.46485-.17578h.69922l.23437.29297.28906.8164.0586.17579.17578.23046.35156.23438.69922.69922.17188.17578.23437.34765.23438.41016.28906.58203.41015.46485.23047.23437.23438.17578.11719.23047.17578.29297.17187 1.16406v.23438l.0586.28906.05859.11719.11719.11719.34765.41015.11719.17188.17578.17578.17578.23437.11719.17188.17188.35156.05859.23438.23437.40625.23438-.0586-.17578.17578-.0586.92969h-.58203l-.23437-.11328-.34766.11328-.11719.11719-.05859.29297-.0586.17578-.11718.17187-.46484.29297-.0586.23438-.0586.11328v.64453l.0586.17187v.41016l.0586.0586v.40624l.05859.40625.11719.17579.05859.05859.23047.64062-.0586.29297v.69922l-.05859.58203v.23438l-.0586.23047-.05468.35156v1.92187l.05469.1172h.42578l-.36719.11718-.02344.35156.89063 1.16797 1.74219.53906 1.33984.35938v.53906l.08984.8086.53516.71484 1.51953.26953.89063-.08594.08984 1.16406.53516.1797 1.16015-.1797 2.05469-.98437 1.16016-.36328 1.8789-.17578 1.69531-.1797-.17968.71876-1.51563.08594-1.25.08984-.80469.26953-1.07421.8086.26953.71875.53515.89843-.17968.625-.26563.8086.26563 1.07812.625.89844.80468.17969 1.25-.1797-.26562.72267.09766.5039.05468.29297v.17188l.0586.29296v.40625l.17578.1172.35156.11718h.40625l.29297-.17578.11328-.11719.0586-.11719.11718-.23047.0586-.17578.35156-.46484.23047-.17578.17578-.0586.17578.0586.0586.17578.11718.98828.05469.46875.0586.17188.11718.23437.17578.0586.8164.05859h.28907l.11719.23437.05859.40625.0586.35156v1.10547l.11718.29297.11719.34766.28906.69922.17578.35156.58203.7539.35157.17579.17187.0586.46875.23437.64063.46484.34765.23438.29297.17578.29297.05468.23047.0625.8164.34766.29297.17578.11328.17188.35157.35156.11719.17578.52343.64063v.28906l.0586.35156v.34766l.05859.35156.0586.28906.11718.0586.17188.05859h.17578l.58203.23437.17578.1172.17578.28905.17578.23438.11328.23437.29297.23047.11719.11719v.41016l.0586.05468.28906.23438.23437.11719.0586.11718.11718.17188.0586.11719.23047.23437.05859.17578.23437.0586.1172.05859-.1172.11328-.05859.11719v.11719l-.11719.29296-.11719.28907v.58203l.17579.11719.11718.05859.0586.11719.11719.11719.11328.05859.17578.34765.0586.35157.05858.40625v.17578l-.05859.17578-.11719.69922v.17187l.1172.17579.29296.29296h.40625l.17578.1172.11719.17187.11719.29296v.23438h-.52735l-.23047-.23438h-.23437l-.17578.0586-.0586.69922.0586.34765.11719.17579.17578.41015.11718.23047.28907.46875.17578.05469h.52344l.23437.0586.75781.64062.0586.29296v.23438l.05859.0586.23047.34765v.35156l-.11719.17188v.29297l.29297.28906.29297.17578.17187.0586.29297.17577.29297.1172.58203.40624.28906.23438.29297.17578.21875.16015.01563.01172.23047.17579.64062.52343.17578.23438.1172.17578.17577.17578.11328.17188v.64062l.1172.17578.46874.11719.58203.11719.23438.05859.23047.11328.29297.11719.11328.0586.58593.35156.28907.17187.17578.0625.17578.05469.17578.0586.69922.35155.28906.17579.23438.05468.28906.17578.23437.1172.64063.40624.29297.11719.17187.0586.23438.05859.41015.05859.23047.0586.23438.11718.0586.17188-.41017.17578.46875.0586.0586.29296.11328.23438.17578.05468.23438.0586.17578.05859.40625.11719.64062.23437.11719.17188.0586.23437v.17578l-.0586.1172-.0586.40624.23438.23438.11719.05859.34766.11719.64062.23047.17578.11718.28906.1172.17578.17577.23438.46485.58203 1.10546.17578.17579.34766.17578.17578.11719.35156.11718 1.04688.52344.23437.0586.46485.11327.29297.0586.46484.17578.75781.58203.23438.23438.34765.46484.17578.17578.28907.23438.8164.69921.29297.17579.28906.28906.29297.17578.29297.28906.69531.64063.17578.17578.29297.23437.28907.23438.46875.28906.64062.58203.34766.23438.23437.29297.34766.34765.35156.46485.9336.99218.34765.40625.11719.17579.23437.05859.11328.11719.64454.17578.23047.11328.23437.0586.29297.17577.23047.1172.9336.69921.40624.40625.23438.17578.40625.17578.23437.11719.8164.34766.34766.23437.23438.11719.29297.28906.23047.11719.7578.35156.35157.17188.23047.05859.29297.11719.23437.0586.8711.17577h.8164l.46875.23047.17188.0586.875.69921.46484.1172.29297.05858.17578.0586.23047.0586.46875.05859.34766.05859.35156.0586.40625.05859h.29297l.17187.0586v.23046l.17578.17578h.29297l.34766.0586.35156.05859.69922.11719h.64063l.46484-.23438.29297-.17578.17187-.11719.41016-.17187.28906-.17578.9336-.46485.46875-.29297.52343-.29296.46485-.17188.46484-.17578 1.05078-.46485.28906-.11718.41016-.11719.28906-.11719.52735-.17578 1.51562-.69922.58203-.34765.28907-.0586.29297-.0586.34765-.11718.875-.23047.35156-.11719h.11329l.23437-.05859.875-.23437.23438-.0586h.8125l.35156-.0586.8164-.11718.17188-.0586.35156-.05468.29297-.0586.23047-.05859.8164-.17578.17579-.0586h.34765l.23438-.05859.46484-.11718.75781-.17188.23438-.0586h.34765l.41016-.11718.28906-.0586 1.28516-.05859h.28906l.41016-.0586.23047-.05858h.17578l.875-.1172h.40625l.41015-.11718h.34766l.35156-.11328.8711-.0586h1.75l1.04687.28907.41016.11719.28906.11718.35156.11719.28907.11719 1.05078.17187.28906.0586h.29297l.29297.05859.17187.0586.41016.05859.17187.0586.1172.05858h.11718l.11719.0586.35156.0586h.11328l.41016.0664 1.92187.39453 1.92578.39453 1.51953.44922 1.69532.71875 2.14453.80469 1.60547-.71875 1.42968-.80469 1.16016-1.07813 1.25-.44921 3.03516-.71875 1.875-.35938 2.14453-1.34765 2.23437-1.25391 2.5-1.25781 1.69531-.44922 1.78516-.17969 1.16016-.26953.625.53906 1.33984-.26953.71485-.98828.98437-1.34375.44531-.17969.80469-.35937 1.875-.53907 1.78516-.44921 1.25-.26954 1.16015-.08984 1.69922-.08984 1.96094-.26954 1.25-.08984h.53906l.625-.08984h.89063l2.14453-.17969 2.41015-.17969 2.58985-.08984 1.69531.17969 1.60938.08984 1.42968.35938 1.16016.71875 1.875.98828 1.16015 1.52734.26563.71484.6289.08985.35548.89844.53515.53906.53516 1.52734 1.07422.35938h.53515l-.80469.53515.08985 1.70703.71484 2.69532.89063.80468.89453.98829.71484 1.2578 1.78516.53907 1.51953-.17969.35547 1.34375 1.60937-.80469.98047-.53906.26953.26953.31641-.21484.21875-.14453.80078.44922.44922-.35938h.35547l.53515-.26953.53907-.71875.53515-.26953.625-.98828 1.16016.44922.83984.3711 1.39454.61718 1.6953-.17969h1.60548l1.78515.08985.17969-1.70704.53516-1.34375.80468.26954.4922.84765.40233.40625-.08984.53906v.35938l.71485.44922.71093-.26953h1.42969l.35938.98828.4453 1.25781.71485 1.34375 1.25.6289 1.69531.62891.71485-.17969.17969-.53906.98046-.08984.44922.35937.08594 1.25782-.26563.6289-.53515.17969v.53906l.71484.98438.26563.53906.98437.98828.80078 1.07813-.26562.35937-.08985.89844-.625 2.33203-.35546 2.0664-.08985 1.79298-.17969.71875-.08984.53906v1.4375l-.98047 1.88281-.35937 1.70703-.53516.89844-.80469 1.16797-.26562.53906 2.05469 1.2539.08593.35938-.35546.53906-.08985-.17968v.80859l.08985 1.4375-.44532.71484-1.07422.09375-.26562.71485.53515.89844.8047.71875 1.16015.80859 1.33984.26953.44531.35938-.35546.44921-1.78907-.08984-1.25-.44922-.71484-.71875-.625-.08984-.17578 3.58984-.1875 1.3086h89.35937V311.70313h-55.26953v49.08203l.76172.125 3.28906.54296 2.02344 2.83594v2.7539l2.35156.33204 2.34766.33203h4.05078l-1.3789 4.16016-2.02344.70703-2.02344.70312-.54297.34375-2.59375 1.6172-.1875.11718-2.02344-2.07813-.73046-2.74218-2.67188-2.07813-1.375-3.5-.0664-.08203-1.95704-2.67188 2.75-1.41796v-49.08204H294.42187v91.41407l.1172.03125.1328.01172.07422.07421.10547.04688.08985.0586.08593.05859.08985.0586.29687.29687.0586.08984.03125.11719.02734.11719.01563.13671-.03125.1172-.0586.08983-.0586.08594-.04296.10547-.04688.10156-.02734.1211v.14453l.17578.26953.14844.14844.07422.08594.07422.07421.04296.10547.0625.08985.0586.08593.04297.10547.0586.08985.04687.10156.04296.10547.0586.08594.11719.17968.07421.07422.0625.08594.0586.08984.04297.10547.0586.08985.05858.08593.0625.08985.0586.08984.04297.10156.11719.17969.07421.07422.0586.08594.07422.07421.08984.0586.10547.04687h.14844l.1328-.01562.13282.01562.10156-.04687.07422-.07422.04688-.10156-.01563-.13281v-.14844l-.04687-.10547-.02735-.11719-.04687-.10156-.02735-.1211-.04296-.10156-.0625-.08984-.04297-.10156-.04297-.10547-.03125-.11719-.01563-.13281-.01171-.13672.08593-.0586.0586-.08593.12109-.03125.04297.10547.01562.1328v.1172l.0586.10156.0586.08984.08983.0586.14844.14843.0586.08985.04296.10547-.01171.10156.08593.0586.10547.04687.08594.0586.08984.05858.07422.07422-.11719.02735-.10546.04687-.08594.0586-.07422.07421-.0586.08985-.0625.08594-.02734.12109-.04687.10156-.04297.10547-.03125.11719-.01172.13281-.01563.13281v.14844l.02735.11719.04687.10547.04297.10156.0586.08984.07421.07422.08985.0586.07422.07421.08984.0586.0586.08984.04296.10547.04688.10156.11719.03125.1328.01563h.14845l.11718-.03125.10547.04297.04297.10547.04688.10156.02734.1211L299.5 410l.02734.11719.03125.1211.02735.11718.10547.04297.10156.04687.13281-.01562.14844.14844.0625.08593.07422.07422.07031.07422.08984.0625.10547.04297.10156.04297.1172.03125.13671.01562.11719-.03125.07422-.07422.02734-.11718-.01172-.13282-.03125-.12109-.02734-.11719.04297-.10547h.11719l.08984.0625.11719.02735h.14843l.13282.01562h.14843l.13282.01563.1328-.01563h.14845l.1328-.01562.13282-.01172.13672.01172.11719-.02735.13281-.01562.1914-.0586-.05859.17579-.01562.1328-.02735.1211-.01562.13281-.0586.08594-.1328.01563-.10548.04687-.10546.04297-.1172.03125-.11718.02735-.26563.03125h-.14843l-.13281.01562-.07422.07422.05859.08594.14844.14843.11719.1797.07421.0703.08985.0625.08984.0586.08594.0586.08984.05858.10156.04297.10547.0625.10547.04297.08594.0586.10547.04687.10156.04297.17969.11719.0586.08984-.04298.10156-.04687.10547.01562.13281.22266.22266.0586.08985.04296.10156.03125.1211.04297.10155.01563.13282.03125.11718.01171.13672.03125.11719.14844.14844.10156.04297.10547.04296.1172.03125.1328.01563.13672.01563h.11719l.11719-.03125.08984-.0586.04297-.10547.04688-.10156.04296-.10547.03125-.11719.01172-.1328v-.14845l-.01172-.1328-.01562-.13282-.03125-.11719-.04297-.10547-.04688-.10547-.04296-.10156-.04297-.10547-.01563-.13281.01563-.13281.02734-.11719.03125-.11719.02735-.1211.04687-.10155.08984-.0586.08594-.0625.07422-.07422.08984-.05859.22266-.22266.0586-.08593.07421-.07422.11719-.17969.0586-.08594v-.14844l-.07423-.07421-.10156-.04688-.10547-.04297-.10156-.04297-.0586-.08984-.04687-.10547-.02734-.11719.08984-.05859.11719-.03125.10156-.04297.17969-.11719.14844-.14843.01172-.13282-.01172-.10546-.08985-.0586-.1328.01563h-.14845l-.1328.01562-.13282-.01562-.1211-.03125-.08593-.0586-.07422-.07422-.0586-.08984-.0625-.08594-.11718-.17969-.0586-.08593.03125-.1211.08594-.05859.1211-.03125.05859-.08594v-.1211l-.03125-.11718-.0586-.08984-.05859-.08594-.04687-.10547-.02735-.11719-.01562-.1328.0586-.08985.07421-.07422.08984-.0586.1172-.17968.07421-.07422.0586-.08594.14843-.14844.1211-.03125.1328-.01562.13282.01562.07422.07422.04297.10547.01562.13281-.03125.1172-.11719.03124-.1328.01172-.14844.14844-.04297.10547-.04688.10156-.02734.1211-.03125.11718v.14844l.03125.11719.04297.10546.05859.08985.07422.07031.07422.07422.11719.03125.12109.02734.11719-.02734.1328-.01563h.1172l.08984.0586.07422.07422.04687.10546.0586.08594.10156.04688.13281.01562.10547.04297.08594.0586-.01172.10546-.07422.07422-.17969.11719-.05859.08984-.08984.0586-.07032.07422-.07421.07421-.0625.08985-.02735.11719-.01562.1328.01562.13282-.01562.13281v.14844l.01562.13281.02735.1172.03125.12108.07421.07422.08985.0586.08594.0586.08984.05858.11719.03125v.08594l-.10157.04688-.08984.0586-.26563.03124-.11718.02735h-.14844l-.10547.04296-.10156.04688-.0586.08984-.0625.23438-.01171.13281-.03125.1211-.01563.1328v.29298l-.01172.1328.01172.13673.01563.1328.1328.01563.13282.01172.1211.03125.08593.0586.07422.07421.04688.10547.04296.10157.01563.1328v.44532l-.01563.13281v.44532l.03125.26562.02735.11719.01562.13281.03125.11719.08594.21094.03125.26562v.14844l-.03125.11719-.02734.11718-.03125.1211-.02735.11719-.03125.11718-.03125.1211-.01171.1328-.01563.13282.08984.0586.1172-.03125.10155.01562.04688.10547-.03125.26562v.44141l-.04297.10547-.04688.10547-.04296.10156-.04297.10547-.0586.08594-.03125.12109-.04296.11719-.03125.11719-.01563.1328.01563.13282.05859.08984.10547.04688.08594.0586.05859.08593-.01172.13672-.03125.11719-.04297.10156v.44531l-.01562.13281v.14844l-.03125.11719-.04297.10547-.02735.11719-.04687.10546-.04297.10157-.03125.12109-.02734.11719-.03125.13281-.03125.11719-.02735.11719-.04297.10546-.03125.1172-.03125.12108-.01171.13282-.01563.13281v.29688l.02734.11718v.14844l.04688.39844.02734.11719.0586.08984.12109.03125h.14844l.13281-.01563.0586.08985v.11719l-.0586.08984-.08984.0586-.10157.04296-.10546.04688-.08985.05859-.08594.0586-.13671.01562-.1172-.03125-.1328-.01563-.10157.04688-.0625.08594-.01172.13671-.01562.13282-.03125.11719-.02735.11718-.01562.13281-.03125.1211v.29687l.01563.13282.03125.11718v.14844l.01171.13281v.14844l-.02734.11719-.04688.10156-.02734.1211-.03125.11718-.0586.08985-.07421.07421-.10156.04297-.10547.04688-.11719.02734-.1211.03125-.10156-.04687.0586-.08594.10547-.04688.02734-.11718.03125-.11719.02734-.1211.03125-.11718v-.14844l.01563-.13281-.03125-.11719-.04297-.10547-.10547.01563-.07422.07422-.10156.04296-.08984.0625-.07422.07422-.04297.10157-.01563.1328-.03125.1172L304.25 426l-.03125.11719-.02734.11719-.03125.12109-.02735.11719-.03125.11718-.04297.10547-.08984.0586h-.08984l-.1172-.03125-.03124-.08594.01562-.13672-.03125-.11719v-.14844l-.01171-.1328v-.14844l-.0625-.23438-.02735-.1211-.04297-.10156-.04687-.10546-.0586-.08594-.05859-.08985-.04297-.10546-.0625-.08594-.14844-.14844-.0703-.07422-.10548-.04687-.10547-.04297-.10156-.04297-.29687-.29688-.08985-.07421-.08594-.0586-.10546-.04297-.08985-.0625-.08594-.0586-.10546-.04296-.08985-.0586-.08594-.0625-.07421-.0703-.10547-.04688-.08594-.0586-.10547-.04296-.08984-.0625-.10156-.04297-.10547-.04297-.08594-.0586-.10547-.04687-.10547-.04297-.10156-.04687-.08985-.0586-.10156-.04297-.10547-.04296-.08984-.0625-.11719-.02735-.13281-.01562-.13281.01562H299.75l-.13281.01563-.11719-.03125-.08984-.0586-.07422-.07422-.08985-.05859-.10156-.04688h-.14844l-.12109-.02734-.10156-.04297-.07422-.07422-.11719-.17968-.08984-.0586-.10156-.04297-.08985-.0625-.10547-.04296-.08984-.0586-.08594-.0586-.10547-.04687-.0586-.08594-.05858-.08984-.04297-.10547-.04688-.10156-.07422-.07422-.08594-.0586-.07421-.07421-.08985-.0586-.22265-.22265-.04297-.10547-.03125-.26563.10547-.04296h.14453l.10547.04296.07421.07422.08985.0586.08594.0586.10546.04687.08985.05859.14844.14844.0703.07422.14845.14843.0625.08594.07421.07422.08594.0586.07422.07421.08985.0625.08984.0586.08594.05859.26953.17578.10156.04688.10547.04296.10156.04297.04688-.07421.05859-.08594.07422-.07422.07031-.07422.10547.04297.07422.07422.0586.08984.04296.10156.04688.10547.04296.10547.1211.02735.11719-.02735.07421-.08984.04297-.10547.0586-.08985.07422-.07421.10546-.04297.1172-.02735.1328.01172.08985.0586.14844.14843.05859.08985.04297.10547.04687.10156.04297.10547.04297.10156.10547.04688.10547.04296.13281.01563.08594-.0586.0586-.08984.07421-.07422.10547-.04297.11719.02735.10547.04687.10156.04297.10547.04297.10156.04688.17969.11718v.11719l-.01563.13281.01563.13281.01562.13672.0586.08594.10156.04688.1211.02734.11718.03125h.14844l.11719-.03125.05859-.08984.17969-.1172.05859-.08983.07422-.07422.0586-.08594.11718-.17969.17969-.11719.11719.03125.08984.0586.04297.07422-.01563.1328v.1172l.08985.05859h.14843l.13282-.01563.1328-.01171.26563-.03125.10547-.04297.11719-.03125.1211-.02735.07421-.07421.07031-.07422.0625-.08985-.01562-.10547-.04688-.10156-.10156-.04297-.10547-.01562-.11718.02734-.26563.03125h-.14844l-.07421-.07422-.08985-.0586-.11719-.03124-.11718-.02735-.13282-.01562h-.14843l-.13282.01563h-.29687l-.10547-.04688-.14844-.14844-.04297-.10156-.05859-.08984.22266-.22266.08593-.0586.10547-.04296.11719-.03125.13281-.01563.13281.01563.13672.01562.10157.04297.1328-.01172.08985-.0625.10156-.04297.0625-.08984-.04687-.10156-.08984-.0586-.1172-.03125-.10155-.04296-.0586-.08985-.0625-.08984v-.11719l.01563-.13281.10547-.04688.07421-.07031v-.1211l-.08984-.05859-.03125-.11719.08985-.05859.07421-.07422.04297-.10547.0586-.08984.04687-.10156.01563-.13281v-.14844l-.04688-.10547-.04297-.10156-.08984-.0586-.13281-.01562-.10157-.04297-.13671-.01563-.1172-.03125h-.4453l-.13282-.01562-.13281-.01172-.13281-.01563-.11719-.03125h-.14844l-.13281-.01562-.13281-.01172-.26563-.03125-.1211-.04297-.08593-.0586-.07422-.07421v-.14844l.01172-.13281.10547-.04688.10156-.04296.13281-.01563h.15235l.13281-.01562h.29297l.1211.03125.10156.04296.08984.0586.23438.0625.12109-.04688.08984-.05859.10156-.04297.13282-.01562.10547.04296.10156.04688.13281.01172.1211-.02735h.14453l.12109-.03125.11719-.02734.10547-.04687.07421-.07422.08594-.0586.14844-.14843.0586-.08594.04687-.10547.02734-.11719.01563-.10547-.10156-.04296-.08985-.0586-.11719-.03125-.10546-.04297-.08985-.0625-.07422-.08594-.07422-.07421-.10156-.04297-.10547-.04688-.10156-.04297-.0586-.08984-.04687-.10156-.08594-.21094-.0625-.08594-.05859-.08984-.07422-.07422-.08594-.0586h-.26953l-.11719.03126-.08984.05859-.10156.04297-.13281.01562-.10547-.01562-.02735-.11719-.0625-.08984-.11718-.03125-.10157-.04297-.14843-.14844-.03125-.11719-.01563-.10546.07422-.07422.17969-.1172.11719-.02733.11718-.03125.13672.01562.10156.04297.10547.04297.10156.04687.10547.04297.1172.03125.1328.01563.1172.02734.1328.01563.10547-.01563.08985-.0586-.07422-.07421-.10547-.04297-.07422-.07422-.07422-.08984-.14844-.14844-.08593-.0586-.08985-.05859-.07422-.07422-.08984-.0586-.10156-.04687-.1211-.02734-.10156-.04688-.10547-.04296-.11719-.03125-.10156-.04297-.1211-.03125h-.14843l-.11719.03125-.10546.04297-.08594.0625-.17969.11718-.08594.0586-.08984.0586-.10547.04687-.08594.05859-.10547.04297-.10156.04297-.10547.04687-.07422.07422-.05859.08985-.0586.08593-.04687.10547-.0586.08594-.07421.07422-.13281-.01172-.1172-.03125h-.11718l-.07422.07422-.08984.0586-.07422.07421-.08984.0586-.08594.05859-.10547.04687-.10156.04297-.13672.01563-.10156-.04297-.14844-.14844-.10547-.04688h-.08594l-.10547.04688-.10156.04297-.1211.03125-.11718-.03125-.07422-.07422v-.11719l.03125-.1211.07422-.0703.0586-.08985.07421-.07422.11719-.03125.10547-.04296h.29297l.13281-.01563.13672-.01563.10156-.04296.08985-.0586.10156-.04687.08984-.0586.13281-.01171.08985.05859.13281.01172.08984-.0586.08594-.05859.10547-.04297.08984-.0586.08594-.0625.08985-.05859.14843-.14843.0586-.08594.05859-.08985.10547-.04296.13281-.01563.11719.02735.1211.03125.05859-.0586.05859-.08984.03125-.26563.02734-.11719.10547.01172.13281.01563.10157-.04297.08984-.0586.0586-.08984.07421-.07422.0586-.08984.04687-.10156.01172-.13281-.01172-.13282-.04687-.10547-.14844-.14843-.0586-.08985-.05859-.08594-.04297-.10546v-.44532l.01563-.1328v-.14845l.01172-.1328-.0586-.0586-.08984.0586-.10156-.04298-.17969-.11719-.08594-.05859-.0625-.08984-.0586-.08985-.07421-.07421-.08594-.0586-.1211.03125-.10155.01172-.10547.04688-.08594.05859-.10547.04297-.14844.14844-.08984.05859-.08594.0586-.08984.0625-.10547.04296-.13281.01563v-.1211l.10547-.04297.11718-.03125.07422-.0703.04297-.10548v-.14844l-.02734-.11718-.14844-.14844-.13281-.01563h-.14844l-.11719.03125-.10547.04297-.10156.04297-.08984.0625-.11719.02735-.07422-.07422.01172-.13281-.04297-.10157-.04297-.10547-.08984-.05859-.11719.02734-.1211.03125-.11718.03125-.10156.04297-.1211.03125-.10156.04297-.10547.04297-.08984.0586-.10156.01562v-.11719l.01562-.13281-.0586-.08985-.07421.04297-.14844.14844-.0586.08985-.07421.07421-.04688.10547-.04296.10156-.07422.07422-.0586.08985-.07422.07422-.05859.08593-.07422.07422-.08984.0625-.07422.07031-.07422.07422-.10156.01563-.13281.01562-.10547-.04296v-.1211l.14843-.14844.04297-.10156.0586-.08984.04687-.10156.04297-.10547.0586-.08985.03124-.11719.04297-.10156.03125-.1211.02735-.11718.04687-.10547.04297-.10156.04297-.10547.07422-.07031.08984-.0625.08985-.0586.10156-.04296h.29687l.26563-.03125.10547-.04297-.07422-.07422-.11719-.03125-.10547-.04297-.08984-.0586-.10156-.04687-.08985-.0586-.10156-.04296-.10547-.04297-.08984-.0625-.08594-.0586-.10547-.04296-.10156-.04297-.1211-.03125-.11718-.03125-.10157-.04297L297.5 410.25l-.10156-.04297-.08985-.0586-.04296-.10546-.01563-.13281.10156-.04297.13281-.01563.13672.01563.13282-.01563.10156-.04297.0586-.08984.01562-.10547-.08985-.0586-.07421-.07421-.10157-.04297-.08984-.0586-.14844-.14843-.04297-.10547-.01562-.13281v-.29297l-.0586-.08985-.08984-.05859-.07422-.07422-.04297-.10547-.03125-.11718-.0586-.08985-.07421-.07422-.11719-.02734-.07422-.07422-.08984-.0586-.08984-.0625-.08594-.05859-.07422-.07421-.0586-.08594-.04687-.10547-.08594-.0586-.14843-.14843-.19532-.0586-.1328.01563-.10157.04297-.07422.07422-.04688.10156-.04296.10547-.0586.08984-.0586.08594-.29687.29687-.08984.0586h-.08594l-.0625-.08594-.04297-.10547.03125-.11719.0586-.08984.02734-.11719-.01172-.13281-.08984-.0625-.10547.04688-.11719.02734-.11719.03125-.26953.17578-.10156.04688-.11719.02734-.10546.04687-.08985.0586-.10156.04297-.0586-.08594-.04687-.10547.01563-.13281.04687-.10547.07031-.07422.07422-.07031.0586-.08985v-.14843l-.04297-.10547h-.23829l-.10156.04687-.03125.11719-.02734.11719-.03125.1211-.07422.04296-.13281.01563-.07422-.04688-.04297-.10156-.04297-.10547-.04687-.10156-.04297-.10547-.1211.03125-.10156.04297-.13281.01562-.11719.03125-.10547.04297-.08984.0586-.10156.04687-.1211.02734-.13281.01563-.10156-.04297-.0586-.08985-.04687-.10546-.04297-.10157-.04297-.10546v-.1172l.0586-.08984.08593-.05859.17969-.11719.10156-.04687.10547-.04297.10547-.0586.10156-.04296.08985-.0625.10156-.04297.10547-.0586.10156-.04687.08984-.0586.10547-.04296.10156-.04297.08985-.0625.10156-.04297.13672-.01563.11719.03125.10156.04297.1211.03125.10156.04297.10546.04688.10157.04296.10547.04297.10156.04688.10547.04297.10156.04297.10547.04687.08594.0586.10546.04296.1172.03125.10546.04297.10156.04688.08985.0586.10547.04296.10156.04297.10547.04687.11719.02735.10156.04687.1211.02735h.14843l.08594-.0586.01562-.10156.0586-.08984-.02735-.1172-.07422-.07421-.11719-.17969-.07421-.07422-.08985-.07421-.17969-.1172-.08593-.05859-.10547-.04296-.10156-.04688-.26954-.17578-.05859-.08985-.07422-.07421-.0586-.08985-.04296-.10156-.03125-.11719-.01563-.13672v-.5625l-.01171-.1328-.01563-.13282-.03125-.11719-.01562-.13281-.01172-.13281-.03125-.1211-.22266-.22265-.0586-.08594-.01562-.10547.03125-.11719.13281-.01562v-91.41406H172.9922v1.45312l-.0586.23438-.35156 1.05078-.17187.52343-.1172.34766-.17577.41016-.11719.17187-.23438.29297-.23046.0586h-.35157l-.11718.05859-.23047.40625v.29297l.11719.17578.23046.23047.1172.23437.64062.75781.29297.46485.17578.23437.23047.35156.23437.34766.64063.8164.17578.46485.17187.41016.11719.69531.17578.46875.11719 1.39844.0586.46484v.875l.11718 1.04688v4.78125l-.0586.46484-.35156 1.28125-.17578.52344-.11328.41015-.35156.9297L172.93359 336l-.23437.58203-.11719.17578-.17187.34766-.17578.40625-.35157.8164-.0586.29297-.11327.29297-.11719.28906-.0586.17579-.11718.875-.0586.40625-.05859.11718-.0586.17579-.05859.17187-.23047.52734-.11718.17188v.23437l-.11719.23438-.0586.17187-.17577.58594v.28906l-.0586.17579v.29296l-.0586.11329-.05859.52734v.17187l-.05468.23438v2.6211l-.17578.8164-.1172.17578-.17577.23438-.1172.17187-.11327.23438-.58594.93359-.23047.28906-.29297.46485-.17578.23437-.28906.35156-.35156.69922-.11328.23047-.17579.41016-.17578.23046-.40625.52735-.8164.69922-.29297.17187-.28906.23438-.17579.11719-.17578.17578-.52344.40625-.52734.17578-.17187.17578-.23438.05469-.64062.17578h-.75782m12.21094 31.02344l-1.07422.44921.35938.89454 1.25-.71485.44531-.53906-.98047-.08985"/><path fill="#d3d3d3" fill-opacity="0" fill-rule="evenodd" d="M201.50781 416.59766h-.89453l.44922.6289.98047.35938.80469-.08985.4453-.98828-.17577.08985-.71485-.35547-.89453.35547m154.6211 59.0703l-.0586-.52343v-.29297l.11328-.29297.0586-.23046.46875-.46875h.11328l.11719-.11329.11718-.05859h.17579l.23437-.0586h.34766l.23437.0586.11719.0586.23047.17187.0586.17578.11718.58203v.29297l-.11719.17578-.17187.28906-.17579.17579-.52734.52343-.23047.23438-.11719.0586h-.17578l-.11718-.0586-.40625-.29297-.17579-.11719-.11718-.0586-.0586-.11327-.05468-.1172m6.64062-10.95702l-.0586-.17188v-1.10937l.0586-.17188.17578-.0586.17188-.05858h.17578l.23437-.0586.1172.0586.05858.69921-.05859.17188-.11719.17578-.11718.0586-.23438.52343-.11328.0586h-.23438l-.05859-.1172m9.61328-14.39062l-.11719-.17578v-.69922l.29297-.875.1172-.17187.17577-.35156.11328-.23047.1172-.29297.35155-.75781.1172-.23047.17187-.23438h.17578l.11719-.0586h.64062l.11719.0586.23437.23438.17188.11328.35156.29297.11719.11718.11328.17579v.11328l.11719.05859.11718.11719v.69922l-.05859.17578v.23047l-.0586.17578-.34765 1.05078-.11719.23047-.11719.23437-.11718.0586-.23047.23437-.64063.28906h-.875l-.41015-.11718-.64063-.46485"/><path fill="none" stroke="#bebebe" stroke-linecap="round" stroke-linejoin="round" stroke-miterlimit="10" stroke-width=".5" d="M467.95703 311.69531H144.02734v168.625h323.9297v-168.625"/><g clip-path="url(#a)"><path fill="#fff" fill-opacity="0" fill-rule="evenodd" d="M144 475.89063v3.26953-167.48829h.0039H144v164.21875"/></g><g clip-path="url(#b)"><path fill="#50fcfc" fill-rule="evenodd" d="M144.0039 480.32813v-1.16407l1.53907 1.16406h-1.53906"/></g><g clip-path="url(#c)"><path fill="#fff" fill-opacity="0" fill-rule="evenodd" d="M144.0039 479.16406V311.67187h79.88673v106.84375l-4.4375.14844-4.4375.35547-4.44141 2.85938-.45703.75-3.98047 3.39062-4.4375-1.33984-4.4375-.35938-4.4414-1.02344-2.0586-.66796-2.3789-.64063-4.4375.16406-1.08985.47657-3.34766 1.5-4.4414.96875-4.4375 1.89843-.08985.07422-4.34765 3.30469-1.08594 1.13281-2.97266 4.4375-.3789.09766-4.3711 4.33984-.0664 1.03125-1.1211 3.40625 1.1211 2.76563.04297 1.67578-.02735 4.4375.78125 4.4375 2.98438 4.4375.65625.54297 1.20703-.54297 3.23047-.75781 4.4375-.39844 4.4375-.83203 4.4414-.51563 4.4375.21094 4.4375 1.15625 4.4375.3789 4.4414.16407 4.4375.41797 2.25.17578 2.1875.36719 4.4375 1.77734 3.48829-2.14453.95313-.65235 4.4375-.66015 4.4375-1.85938 4.4375-.44921 2.03125-.81641 2.40625-.67578 4.4414-.8711 4.4375-.57812 4.17578-2.3125.26172-.26953 4.4375-1.58985 4.4375-.0039 4.4414-1.83985 4.4375 1.9336 4.4375-1.28125 4.03516-1.38672.40235-.35547 1.47656.35547 2.96484.42187 4.4375.14063 1.2461-.5625 3.1914-.64844 4.4375-.58594 3.32813-3.20703-3.32813-3.47656-1.55859-.96094 1.5586-.67578 3.51171-3.76172.30078-4.4375-3.8125-3.86719-4.4375.0625-4.4375-.30468-4.4375-.24219-4.4414.79688-.58594-.88282-3.85156-3.66015-3.6914 3.66015-.7461 1.40235-4.4375-.6836-4.4414.9414-3.125 2.77735-1.3125 1.04688-1.06642-1.04688-3.37109-3.25781-4.4375-.33594-4.4375-.7461-.14844-.09765-4.29297-4.39062-.61328-.05078-3.82422-2.03516-4.4375-2.07813V311.67188h133.15235v120.375l-4.4414.19141-4.4375 1.90625-1.71876 1.80078 1.71875 1.69531v38.2461l-.0039.0039.0039.00391.0039-.0039-.0039-.00391v-38.2461l1.84375 2.7422 2.59375 2.60156 4.4414 1.1875 4.4375-1.07032 4.4375-1.19531 1.84376-1.52344-1.84375-1.58203-4.4375-1.1875-1.05078-1.66797-3.38672-3.89844v-120.375h22.1914V441.1836l-3.03515 3.63672 3.03515 3.46094 1.73047.98047-1.73046.83594-4.44141-.27735-2.59375 3.8789-1.84375 3.78126-.23828.65625-.48047 4.4375.71875.71875 2.29297-.71875 2.14453-1.9414 4.16015 1.9414.28125.05469.07422-.0547 3.14454-4.4375 1.21875-1.02343 2.51171 1.02344-1.42968 4.4375 3.35546 3.59765 4.4375.73829 4.4375-.57422 1.60938.67969 2.83203 2.86718 2.76172-2.86719 1.67578-.53906 4.4375-.51953 3.53906-3.38281-3.53906-3.95313-4.4375-.22656-4.4375.1289-4.4414.3711-2.82422-.75781-1.41407-4.4375 2.6172-4.4375-2.81642-3.67188-.97265-.76953-3.46485-1.73437-2.37109 1.73437-2.0664 1.57813-.8711-1.57813-3.5664-3.63672V311.67188h88.76171v168.65625h-63.26953l-.05078-4.4375-3.25-3.53516-4.4414 3.08203-.78125-3.98438-3.65625-4.07421-4.4375 2.40625-1.21875 1.66796L383.67188 473l-3.53907 2.89063 3.53906 2.78515 3.37891-2.78515 1.0586-2.69141 4.4375 2.10156 3.83203.58985.60546.40625.8672 4.03125H227.05858l-3.16797-2.53125-4.4375.14843-2.24218 2.38281h-71.66797l-1.53906-1.16406"/></g><path fill="#50fcfc" fill-rule="evenodd" d="M157.3164 447.58594l-1.12109-2.76563 1.1211-3.40625.0664-1.03125 4.3711-4.33984.3789-.09766 2.97266-4.4375 1.08594-1.13281 4.34765-3.30469.08985-.07422 4.4375-1.89843 4.4414-.96875 3.34766-1.5 1.08984-.47657 4.4375-.16406 2.3789.64063 2.0586.66796 4.4414 1.02344 4.4375.35938 4.4375 1.33984 3.98048-3.39062.45703-.75 4.4414-2.85938 4.4375-.35547 4.4375-.14844v1.03516l-4.4375.8086-4.4375 1.71484-.71875.55469-3.32812 4.4414-.39453 1.96875-3.94531 2.46875-.4922.07422-3.55858-.07422-.87891-.02734-4.4375-2.71094-4.4414.03516-4.4375.84375-4.4375.60937-2.03907 1.25-2.39844.41016-4.4414.48437-4.4375.3047-2.71875 3.23827-1.71875.59375-4.4375 1.20313-2.66016 2.64062-1.3164 4.4375.12109 4.4414.2539 4.4375 2.76563 4.4375.83594 1.08595 4.4375-.85938 4.4375.07031 1.11718-.29687 3.32032-.875 4.4414-.98438 4.4375.32813 4.4375.85937 1.51953.67188 2.91797 1.3125 4.4414-.6211 4.4375-.03906 4.4375 1.26563 4.4375-.00781 2.6211-1.91016 1.82031-1.125 4.4375-.04688 4.4375-1.1328 4.4375-.55079 3.29297-1.58203 1.14453-1.7539 4.44141-.65626 4.4375-1.55078.46875-.47656-.46875-1.15235-4.4375-1.34375-4.4414.78125-4.4375-2.32812-.73829-.39844-.01562-4.4375.4414-4.4375-.76953-4.4375 1.08203-1.03906 1.1875 1.03906 3.25 3.32422 2.60938 1.11328 1.83203 1.21094v2.91016l-2.41797.3164 2.41797.55469.375-.55469-.375-.3164v-2.91016l3.83203 3.22656.60547 2.20313 4.4375 1.01953 2.32031-3.22266 2.1172-3.59765 2.97265-.83985-2.97266-.6914-3.82422-3.7461-.61328-.59375-4.4375-.02734-4.4375-2.58203-1.79297-1.23438-2.64844-2.70703-4.4375-.5039-.9453-1.23047-3.4922-3.07813v-1.03515l4.4375 2.07812 3.82422 2.03516.61328.05078 4.29297 4.39062.14844.09766 4.4375.7461 4.4375.33593 3.3711 3.25781 1.0664 1.04688 1.3125-1.04688 3.125-2.77734 4.4414-.9414 4.4375.68359.7461-1.40235 3.6914-3.66015v1.34375l-2.33593 2.3164-2.10156 3.96485-4.4375-1.79688-4.22656 2.26953.19921 4.4375 4.02735 2.22656 2.04687-2.22656 2.39063-3.92969v2.7461l-.72266 1.1836-3.71484 4.04687-4.4414-.10547-4.4375.19531-.17579.30078.17578.90235 4.4375-.5 4.4414.14453 4.4375-.34766.51563-.19922 3.92188-3v3.90235l-4.4375 1.05468-4.4375 1.1172-4.4414.98437-.6211.3789.6211.76563 4.4414.8711 4.4375 2.29687 4.4375-1.91407 2.09375-2.01953-2.09375-3.53515v-3.90235l4.4375.25 4.4414-.44922 1.01563-1.23828-1.01563-.72656-4.4414-.16016-4.4375-.28906-4.4375-.00781v-2.7461l4.4375-.14843 4.4375 1.0586 4.4414.64062 3.32032 2.3789-3.32032 4.05078-1.33593.38672 1.33593.55469.53516-.55469 3.90234-2.98828v2.98438l-.0078.0039.0078.01172.01172-.01172-.01172-.0039v-2.98438l4.4375 2.35547 4.4375-2.10156 1.59375-1.70313 1.09766-4.4375-2.6914-2.72656-4.4375.41016-4.4375-.81641-4.4375.71875-4.44141.99219-2-3.01563-2.4375-2.3164v-1.34375l3.85156 3.66015.58594.88281 4.4414-.79687 4.4375.24219 4.4375.30469 4.4375-.0625 3.8125 3.86718-.30078 4.4375-3.51172 3.76172-1.55859.67578 1.5586.96094v2.91797l-3.59766.5586 3.59765.51952.53907-.51953-.53907-.5586v-2.91796l3.32813 3.47656-3.32813 3.20703-4.4375.58594-3.1914.64844-1.2461.5625-4.4375-.14063-2.96484-.42187-1.47656-.35547-.40235.35547-4.03515 1.38672-4.4375 1.28125-4.4375-1.9336-4.4414 1.83985-4.4375.0039-4.4375 1.58985-.26173.26953-4.17578 2.3125-4.4375.57812-4.4414.8711-2.40625.67578-2.03125.8164-4.4375.44922-4.4375 1.85938-4.4375.66015-.95313.65235-3.48828 2.14453-4.4375-1.77734-2.1875-.3672-2.25-.17577-4.4375-.41797-4.4414-.16406-4.4375-.37891-4.4375-1.15625-4.4375-.21094-4.44141.51563-4.4375.83203-4.4375.39844-3.23047.7578-1.20703.54298-.65625-.54297-2.98438-4.4375-.78125-4.4375.02734-4.4375-.04296-1.67578"/><path fill="#00e8fc" fill-rule="evenodd" d="M157.89844 449.26172l-.1211-4.4414 1.31641-4.4375 2.66016-2.64063 4.4375-1.20313 1.71875-.59375 2.71875-3.23828 4.4375-.30469 4.4414-.48437 2.39844-.41016 2.03906-1.25 4.4375-.60937 4.4375-.84375 4.4414-.03516v3.89453l-4.4414.78516-4.4375.48828-4.4375-.59375-4.4375.47266-4.11719 2.1289-.32421.13672-4.4375 1.51172-4.4375 1.52344-3.90625 1.26562-.53125.08594-3.09766 4.35156.14063 4.4414.72656 4.4375 2.23047 2.94923 4.4375-.8086 4.4375-.79687 2.66015-1.34375 1.77735-.7461 4.4414-.76171 4.4375.11328 4.4375 1.26562 4.4375-2.54297 4.4414-.09375 4.4375.48047 4.4375-1.23437 3.81642-.91797-.63672-4.4414-3.1797-2.91016-1.08202-1.52735-1.35156-4.4375-2.00391-1.07422-4.4375-2.20703v-3.89453l4.4375 2.71094.8789.02734 3.5586.07422.49219-.07422 3.9453-2.46875.39454-1.96875 3.32813-4.4414.71875-.5547 4.4375-1.71483 4.4375-.8086v1.71875l-3.5547 1.35938 3.03516 4.4414-2.05468 4.4375 2.57422 1.92578.55468-1.92578 3.88281-3.72656 4.25782 3.72656.17969.1836 4.4414 1.9453 1.96094-2.1289-1.96094-1.3125-4.4414-1.53906-.48829-1.58594-3.94922-.67187-2.89453-3.76953-1.54297-1.35938v-1.71875l3.4922 3.07813.9453 1.23046 4.4375.50391 2.64844 2.70703 1.79297 1.23438 4.4375 2.58203 4.4375.02734.61328.59375 3.82422 3.7461 2.97266.6914-2.97266.83985-2.11719 3.59765-2.3203 3.22266-4.4375-1.01953-.60548-2.20313-3.83203-3.22656-1.83203-1.21094-2.60938-1.11328-3.25-3.32422-1.1875-1.03906-1.08203 1.03906.76953 4.4375-.4414 4.4375.01562 4.4375.73828.39844 4.4375 2.32813 4.44141-.78125 4.4375 1.34375.46875 1.15234-.46875.47656-4.4375 1.55078-4.4414.65625-1.14454 1.7539-3.29297 1.58204-4.4375.55078-4.4375 1.13281-4.4375.04688-1.8203 1.125-2.6211 1.91015-4.4375.00782-4.4375-1.26563-4.4375.03906-4.4414.6211-2.91798-1.3125-1.51953-.67188-4.4375-.85937-4.4375-.32813-4.4414.98438-3.32032.875-1.11718.29687-4.4375-.0703-4.4375.85937-.83594-1.08594-2.76563-4.4375-.2539-4.4375"/><path fill="#00d4fc" fill-rule="evenodd" d="M158.79688 449.26172l-.14063-4.4414 3.09766-4.35157.53125-.08594 3.90625-1.26562 4.4375-1.52344 4.4375-1.51172.32422-.13672 4.11718-2.1289 4.4375-.47266v2.25l-4.4375.125-.4414.22656-4 1.6914-4.4375 2.54298-.58985.20312-3.84765.20703-4.4375 1.1172-2.21485 3.11327.15625 4.4414 1.19922 4.4375.85938 1.13673 3.80468-1.13672.63282-.15235 4.4375-1.52734 4.4375-1.78906 4.4414-.69531 1.6914-.27344 2.7461-.30078 3.53906.30078.89844.17578.40625-.17578 4.03125-1.4375 4.4414-1.8789 2.50392-1.125-2.50391-2.40235-.8125-2.03516.8125-3.01562.5664-1.42188-.5664-.29687-.92188.29687-3.51953 1.27344-4.4375-.86719-3.27344-.40625-1.16406-.35156v-2.25l4.4375.59375 4.4375-.48828 4.4414-.78516 4.4375 2.20703 2.00392 1.07422 1.35156 4.4375 1.08203 1.52735 3.17969 2.91015.63672 4.4414-3.81641.91798-4.4375 1.23437-4.4375-.48047-4.4414.09375-4.4375 2.54297-4.4375-1.26562-4.4375-.11328-4.44141.76171-1.77735.7461-2.66015 1.34375-4.4375.79687-4.4375.8086-2.23047-2.94922-.72656-4.4375"/><path fill="#00c4fc" fill-rule="evenodd" d="M159.69531 449.26172l-.15625-4.4414 2.21485-3.11329 4.4375-1.11719 3.84765-.20703.58985-.20312 4.4375-2.54297 4-1.6914.4414-.22657 4.4375-.125v.94922l-4.4375.44531-4.4414 2.20313-2.01172 1.1914-2.42578 1.29297-4.4375-.6875-4.4375 1.96094-1.33203 1.8711.17187 4.4414 1.16016 3.4414 4.4375-.625 4.37109-2.8164.0664-.0586 4.4375-1.21875 4.44141-.53515 4.4375-.28906 4.4375-.2422 3.92969-2.09765.4414-4.4375-4.37109-3.10937-4.4375-.73047v-.94922l1.16406.35156 3.27344.40625 4.4375.86719 3.51953-1.27344.92188-.29687.5664.29687-.5664 1.42188-.8125 3.01562.8125 2.03516 2.5039 2.40234-2.5039 1.125-4.4414 1.8789-4.03126 1.4375-.40625.17579-.89844-.17578-3.53906-.30078-2.7461.30078-1.6914.27344-4.4414.6953-4.4375 1.78907-4.4375 1.52735-.63282.15234-3.80468 1.13672-.85938-1.13672-1.19922-4.4375"/><path fill="#00b8fc" fill-rule="evenodd" d="M160.59375 449.26172l-.17188-4.4414 1.33204-1.8711 4.4375-1.96094 4.4375.6875 2.42578-1.29297 2.01172-1.1914 4.4414-2.20313 4.4375-.44531v.70703l-4.4375.91797-3.94531 2.21484-.4961 1.25-4.4375 1.44531-4.4375-1.6875-4.4375 2.79688-.44921.63281.1875 4.4414.26172.77345 4.4375.57812 2.09765-1.35156 2.33985-2.01172 4.4375-1.2461 4.4414-.5703 4.4375-.07423 3.01563-.53906 1.42187-.25 3.07422-4.1875-3.07422-2.1875-4.4375-.94531v-.70703l4.4375.73047 4.3711 3.10937-.44141 4.4375-3.92969 2.09766-4.4375.24219-4.4375.28906-4.4414.53515-4.4375 1.21875-.06641.0586-4.3711 2.8164-4.4375.625-1.16015-3.4414"/><path fill="#00a8fc" fill-rule="evenodd" d="M161.49219 449.26172l-.1875-4.4414.44922-.63282 4.4375-2.79688v.40235l-4.16797 3.02734 4.16797 4.39453 4.4375-3.91796 1.67578-.47657-1.67578-.33984-4.4375-2.6875v-.40235l4.4375 1.6875 4.4375-1.4453.49609-1.25 3.94531-2.21485 4.4375-.91797v.70313l-4.4375 1.39843-1.83984 1.03125 1.83984 2.46875 4.4375 1.21875 4.4375-1.26562 1.77735-2.42188-1.77735-1.26172-4.4375-1.16796V437.25l4.4375.94531 3.07422 2.1875-3.07422 4.1875-1.42187.25-3.01563.53906-4.4375.07422-4.4414.57032-4.4375 1.24609-2.33985 2.01172-2.09765 1.35156-4.4375-.57812-.26172-.77344"/><path fill="#009800" fill-rule="evenodd" d="M166.1914 449.21484l-4.16796-4.39453 4.16797-3.02734v.40234l-3.61328 2.625 3.61328 3.8125 3.98047-3.8125-3.98047-2.625v-.40234l4.4375 2.6875 1.67578.33984-1.67578.47656-4.4375 3.91797"/><path fill="#00ac00" fill-rule="evenodd" d="M166.1914 448.63281l-3.61327-3.8125 3.61328-2.625v.40235l-3.0625 2.22265 3.0625 3.22656 3.37109-3.22656-3.3711-2.22265v-.40235l3.98048 2.625-3.98047 3.8125"/><path fill="#00c800" fill-rule="evenodd" d="M166.1914 448.04688l-3.0625-3.22657 3.0625-2.22265v.80468l-1.95312 1.41797 1.95313 2.0625 2.15234-2.0625-2.15234-1.41797v-.80468l3.37109 2.22265-3.3711 3.22656"/><path fill="#10cc00" fill-rule="evenodd" d="M166.1914 446.88281l-1.95312-2.0625 1.95313-1.41797v.8047l-.84766.61327.84766.89453.93359-.89453-.9336-.61328v-.80469l2.15235 1.41797-2.15234 2.0625"/><path fill="#24d000" fill-rule="evenodd" d="M166.1914 445.71484l-.84765-.89453.84766-.61328.93359.61328-.9336.89453"/><path fill="#009800" fill-rule="evenodd" d="M179.50781 442.85156l-1.83984-2.46875 1.83984-1.03125 4.4375-1.39844v.70704l-4.21875 1.72265 4.21875 2.61328 4.4375-1.96093.48047-.65235-.48047-.33984-4.4375-1.38281v-.70704l4.4375 1.16797 1.77735 1.26172-1.77735 2.42188-4.4375 1.26562-4.4375-1.21875"/><path fill="#00ac00" fill-rule="evenodd" d="M183.94531 442.9961l-4.21875-2.61329 4.21875-1.72265v.70703l-2.48828 1.01562 2.48828 1.54297 3.08203-1.54297-3.08203-1.01562v-.70703l4.4375 1.3828.48047.33985-.48047.65235-4.4375 1.96093"/><path fill="#00c800" fill-rule="evenodd" d="M183.94531 441.92578l-2.48828-1.54297 2.48828-1.01562 3.08203 1.01562-3.08203 1.54297"/><g clip-path="url(#d)"><path fill="#50fcfc" fill-rule="evenodd" d="M217.21094 480.32813l2.24219-2.38282 4.4375-.14844 3.16796 2.53125h-9.84765"/></g><path fill="#00d4fc" fill-rule="evenodd" d="M223.3711 427.07031l-3.03516-4.4414 3.55469-1.35938 1.54296 1.35938 2.89453 3.76953 3.94922.67187.48828 1.58594 4.44141 1.53906 1.96094 1.3125-1.96094 2.1289-4.4414-1.9453-.1797-.1836-4.2578-3.72656-3.88282 3.72656-.55469 1.92578-2.57421-1.92578 2.05468-4.4375"/><path fill="#fff" fill-opacity="0" fill-rule="evenodd" d="M237.20703 440.0664l-2.41797.31641 2.41797.55469.375-.55469-.375-.3164m13.3125.01562l-.17578.30078.17578.90235 4.4375-.5 4.4414.14453 4.4375-.34766.51563-.19922 3.92188-3 4.4375.25 4.4414-.44922 1.01563-1.23828-1.01563-.72656-4.4414-.16016-4.4375-.28906-4.4375-.00781-.72266 1.1836-3.71484 4.04687-4.4414-.10547-4.4375.19531"/><path fill="#00e8fc" fill-rule="evenodd" d="M254.95703 445.58594l-.6211-.76563.6211-.3789 4.4414-.98438 4.4375-1.11719 4.4375-1.05468 2.09376 3.53515-2.09375 2.01953-4.4375 1.91407-4.4375-2.29688-4.4414-.8711m.41405-9.64062l-.19922-4.4375 4.22657-2.26953 4.4375 1.79688 2.10156-3.96485 2.33594-2.3164v2.24218l-.07422.07422.07422.15235.07812-.15235-.07812-.07422v-2.24218l2.4375 2.3164 2 3.01563 4.4414-.99219 4.4375-.71875v1.6289l-3.48437 1.50391 3.48437 2.51172 2.82813 1.92578 1.60937 1.09375 1.97657-1.09375 2.46093-2.38281.81641-2.05469-.8164-.82812-3.84376.82812-.59375.63281-.30078-.6328-4.13672-1.50391V428.375l4.4375.8164 4.4375-.41015 2.69141 2.72656-1.09766 4.4375-1.59375 1.70313-4.4375 2.10156-4.4375-2.35547-3.90234 2.98828-.53516.55469-1.33593-.55469 1.33593-.38672 3.32032-4.05078-3.32032-2.3789-4.4414-.64063-4.4375-1.0586-4.4375.14844-2.39063 3.9297-2.04687 2.22656-4.02735-2.22657"/><path fill="#00d4fc" fill-rule="evenodd" d="M268.27344 427.22266l-.07422-.15235.07422-.07422.07812.07422-.07812.15235m13.3164 6.79687l-3.48437-2.51172 3.48437-1.5039 4.13672 1.5039.30078.63281.59375-.6328 3.84375-.82813.81641.82812-.8164 2.05469-2.46094 2.38281-1.97657 1.09375-1.60937-1.09375-2.82813-1.92578"/><path fill="#fff" fill-opacity="0" fill-rule="evenodd" d="M281.58984 440.3789l-.0078.00391.0078.01172.01172-.01172-.01172-.0039"/><path fill="#00e8fc" fill-rule="evenodd" d="M290.46484 445.33984l-3.59765-.51953 3.59765-.5586.53907.5586-.53907.51953"/><path fill="#50fcfc" fill-rule="evenodd" d="M348.16406 437.64063l-1.71875-1.69532 1.71875-1.80078 4.4375-1.90625v1.4336l-3.23047 2.27343 3.23047 4.2461.10938.1914 4.33203 2.80469 4.4375-2.69531.26172-.10938-.26172-.10937-2.72266-4.32813-1.71484-1.97265-4.4414-.30079v-1.43359l4.4414-.1914 3.38672 3.89843 1.05078 1.66797 4.4375 1.1875 1.84375 1.58203-1.84375 1.52344-4.4375 1.19531-4.4375 1.07031-4.4414-1.1875-2.59376-2.60156-1.84375-2.74219m0 38.25391l-.0039-.0039.0039-.00391.0039.0039-.0039.00391"/><path fill="#00e8fc" fill-rule="evenodd" d="M352.60156 440.1914l-3.23047-4.24609 3.23047-2.27344 4.4414.30079v3.53515l-1.79687 2.875 1.79688 1.16406 1.86719-1.16406-1.8672-2.875v-3.53515l1.71485 1.97265 2.72266 4.32813.26172.10937-.26172.10938-4.4375 2.69531-4.33203-2.80469-.10938-.1914"/><path fill="#00d4fc" fill-rule="evenodd" d="M357.04297 441.54688l-1.79688-1.16407 1.79688-2.875 1.86719 2.875-1.8672 1.16406"/><path fill="#50fcfc" fill-rule="evenodd" d="M370.35547 463.29297l-.71875-.71875.48047-4.4375.23828-.65625 1.84375-3.78125 2.59375-3.8789 4.4414.27734 1.73047-.83594-1.73046-.98047-3.03516-3.46094 3.03515-3.63672 3.56641 3.63672.8711 1.57813 2.0664-1.57813 2.3711-1.73437v9.35937l-.72657 1.2539.72656 2.03907 4.03516-2.03906-4.03515-1.2539v-9.35938l3.46484 1.73437.97265.76953v13.01563l-4.4375 2.38281-1.0078 1.58594 1.0078 1.08203 4.4375 2.66406 4.4375-1.75781 4.44141 1.64844 4.4375-1.05078 4.4375-1.03125 1.6289-1.5547-1.6289-1.8164-4.4375-.95312-4.4375.35937-4.4414.46485-4.4375-2.02344v-13.01563l2.8164 3.67188-2.61719 4.4375 1.41407 4.4375 2.82421.75781 4.44141-.3711 4.4375-.1289 4.4375.22656 3.53906 3.95313-3.53906 3.38281-4.4375.51953-1.67578.53906-2.76172 2.8672-2.83203-2.8672-1.60938-.67968-4.4375.57422-4.4375-.73829-3.35546-3.59765 1.42968-4.4375-2.51171-1.02344-1.21875 1.02344-3.14454 4.4375-.07421.05469-.28125-.0547-4.16016-1.9414-2.14453 1.9414-2.29297.71876"/><g clip-path="url(#e)"><path fill="#50fcfc" fill-rule="evenodd" d="M383.67188 478.67578l-3.53907-2.78515L383.67187 473l3.21875-1.54688 1.21875-1.66796 4.4375-2.40625v2.10156l-2.39843 1.97265 2.39844 1.86329 1.77343-1.86329-1.77344-1.97265v-2.10156l3.65625 4.07421.78125 3.98438 4.44141-3.08203 3.25 3.53515.05078 4.4375H403l-.57422-4.4375-1-1.08984-1.41406 1.08985-.29297 4.4375h-1.86719l-.86719-4.03125-.60546-.40625-3.83204-.58985-4.4375-2.10156-1.05859 2.6914-3.3789 2.78516"/></g><path fill="#00e8fc" fill-rule="evenodd" d="M388.10938 463.65625l-1.00782-1.08203 1.00781-1.58594 4.4375-2.38281v1.04297l-3.5078 2.92578 3.5078 2.76172 3.97657-2.76172-3.97656-2.92578v-1.04297l4.4375 2.02344 4.4414-.46485 4.4375-.35937v2.35156l-2.66797.41797 2.66797.39453 1.1875-.39453-1.1875-.41797v-2.35156l4.4375.95312 1.6289 1.8164-1.6289 1.5547-4.4375 1.03125-4.4375 1.05078-4.4414-1.64844-4.4375 1.75781-4.4375-2.66406"/><path fill="#fff" fill-opacity="0" fill-rule="evenodd" d="M388.10938 452.44531l-.72657 1.2539.72656 2.03907 4.03516-2.03906-4.03515-1.2539"/><path fill="#00d4fc" fill-rule="evenodd" d="M392.54688 465.33594l-3.50782-2.76172 3.50781-2.92578v1.04297l-2.2578 1.8828 2.2578 1.78126 2.5625-1.78125-2.5625-1.88281v-1.04297l3.97657 2.92578-3.97656 2.76172"/><path fill="#00e8fc" fill-rule="evenodd" d="M392.54688 473.3164l-2.39844-1.86327 2.39844-1.97266 1.77343 1.97265-1.77344 1.86329"/><path fill="#00c4fc" fill-rule="evenodd" d="M392.54688 464.35547l-2.25782-1.78125 2.25781-1.88281v1.04296l-1.01171.83985 1.01171.79687 1.14454-.79687-1.14454-.83985v-1.04296l2.5625 1.8828-2.5625 1.78126"/><path fill="#00b8fc" fill-rule="evenodd" d="M392.54688 463.3711l-1.01172-.79688 1.01171-.83985 1.14454.83985-1.14454.79687"/><g clip-path="url(#f)"><path fill="#00e8fc" fill-rule="evenodd" d="M399.71875 480.32813l.29297-4.4375 1.41406-1.08985 1 1.08985.57422 4.4375h-3.28125"/></g><path fill="#00d4fc" fill-rule="evenodd" d="M405.86328 462.96875l-2.66797-.39453 2.66797-.41797 1.1875.41797-1.1875.39453"/><g clip-path="url(#g)"><path fill="#fff" fill-opacity="0" fill-rule="evenodd" d="M467.9961 480.32813H468V311.67188h-.0039H468v168.65625h-.0039"/></g><path fill="#fff" fill-opacity="0" fill-rule="evenodd" d="M227.42969 426.52734l5.60547 1.65235 2.8125-9.55469-5.60157-1.65234-2.8164 9.55468"/><path fill-rule="evenodd" d="M233.08594 419.71875l.48828.14453-1.78125 6.03906-.7539-.22265 1.26952-4.3086-1.33203-.39062.15625-.53516.55469.09766.25781.01953.2461-.01953.23437-.07813.22656-.15234.21875-.24219.21485-.35156"/><path fill="#fff" fill-opacity="0" fill-rule="evenodd" d="M239.96875 461.90234l5.55078-1.82421-3.10937-9.46485-5.55078 1.82422 3.10937 9.46484"/><path fill-rule="evenodd" d="M240.75781 453.08594l.48047-.15625 1.96875 5.98047-.75.24218-1.40234-4.26171-1.3164.43359-.17579-.53125.51172-.23438.22266-.1289.1914-.15625.14844-.19922.10156-.2539.03906-.32423-.01953-.41015"/><g clip-path="url(#h)"><path fill="none" stroke="#000" stroke-linecap="round" stroke-linejoin="round" stroke-miterlimit="10" stroke-width=".5" d="M147.5 480.64063l-7-.625"/></g><g clip-path="url(#i)"><path fill="none" stroke="#000" stroke-linecap="round" stroke-linejoin="round" stroke-miterlimit="10" stroke-width=".5" d="M147.5 480.64063l.95313 2.26171"/></g><g clip-path="url(#j)"><path fill="none" stroke="#000" stroke-linecap="round" stroke-linejoin="round" stroke-miterlimit="10" stroke-width=".5" d="M146.48047 480.55078l.47656 1.1289"/></g><g clip-path="url(#k)"><path fill="none" stroke="#000" stroke-linecap="round" stroke-linejoin="round" stroke-miterlimit="10" stroke-width=".5" d="M160.78516 480.8789l-6.94141-1.10156"/></g><g clip-path="url(#l)"><path fill="none" stroke="#000" stroke-linecap="round" stroke-linejoin="round" stroke-miterlimit="10" stroke-width=".5" d="M160.78516 480.8789l.79687 2.32032"/></g><g clip-path="url(#m)"><path fill="none" stroke="#000" stroke-linecap="round" stroke-linejoin="round" stroke-miterlimit="10" stroke-width=".5" d="M159.77344 480.71875l.40234 1.16016"/></g><g clip-path="url(#n)"><path fill="none" stroke="#000" stroke-linecap="round" stroke-linejoin="round" stroke-miterlimit="10" stroke-width=".5" d="M174.05469 481.10547l-6.85156-1.55469"/></g><g clip-path="url(#o)"><path fill="none" stroke="#000" stroke-linecap="round" stroke-linejoin="round" stroke-miterlimit="10" stroke-width=".5" d="M174.05469 481.10547l.64453 2.36719"/></g><g clip-path="url(#p)"><path fill="none" stroke="#000" stroke-linecap="round" stroke-linejoin="round" stroke-miterlimit="10" stroke-width=".5" d="M173.0586 480.8789l.32421 1.1836"/></g><g clip-path="url(#q)"><path fill="none" stroke="#000" stroke-linecap="round" stroke-linejoin="round" stroke-miterlimit="10" stroke-width=".5" d="M187.35547 481.17188l-6.82031-1.6836"/></g><g clip-path="url(#r)"><path fill="none" stroke="#000" stroke-linecap="round" stroke-linejoin="round" stroke-miterlimit="10" stroke-width=".5" d="M187.35547 481.17188l.60156 2.3789"/></g><g clip-path="url(#s)"><path fill="none" stroke="#000" stroke-linecap="round" stroke-linejoin="round" stroke-miterlimit="10" stroke-width=".5" d="M200.64453 481.26953l-6.76953-1.88281"/></g><g clip-path="url(#t)"><path fill="none" stroke="#000" stroke-linecap="round" stroke-linejoin="round" stroke-miterlimit="10" stroke-width=".5" d="M199.66016 480.9961l.26562 1.19921"/></g><g clip-path="url(#u)"><path fill="none" stroke="#000" stroke-linecap="round" stroke-linejoin="round" stroke-miterlimit="10" stroke-width=".5" d="M213.98828 481.16016L207.16016 479.5"/></g><g clip-path="url(#v)"><path fill="none" stroke="#000" stroke-linecap="round" stroke-linejoin="round" stroke-miterlimit="10" stroke-width=".5" d="M213.98828 481.16016l.60938 2.375"/></g><g clip-path="url(#w)"><path fill="none" stroke="#000" stroke-linecap="round" stroke-linejoin="round" stroke-miterlimit="10" stroke-width=".5" d="M227.21094 481.47266l-6.64063-2.28907"/></g><g clip-path="url(#x)"><path fill="none" stroke="#000" stroke-linecap="round" stroke-linejoin="round" stroke-miterlimit="10" stroke-width=".5" d="M240.49219 481.57031l-6.57422-2.48047"/></g><g clip-path="url(#y)"><path fill="none" stroke="#000" stroke-linecap="round" stroke-linejoin="round" stroke-miterlimit="10" stroke-width=".5" d="M253.64453 481.9375l-6.2461-3.21875"/></g><g clip-path="url(#z)"><path fill="none" stroke="#000" stroke-linecap="round" stroke-linejoin="round" stroke-miterlimit="10" stroke-width=".5" d="M266.83984 482.15234l-6.0078-3.64843"/></g><g clip-path="url(#A)"><path fill="none" stroke="#000" stroke-linecap="round" stroke-linejoin="round" stroke-miterlimit="10" stroke-width=".5" d="M278.83203 483.41406l-3.36328-6.16797"/></g><g clip-path="url(#B)"><path fill="none" stroke="#000" stroke-linecap="round" stroke-linejoin="round" stroke-miterlimit="10" stroke-width=".5" d="M287.21484 481.66016l6.5-2.66407"/></g><g clip-path="url(#C)"><path fill="none" stroke="#000" stroke-linecap="round" stroke-linejoin="round" stroke-miterlimit="10" stroke-width=".5" d="M303.61719 476.82031l.32812 7.01953"/></g><path fill="none" stroke="#000" stroke-linecap="round" stroke-linejoin="round" stroke-miterlimit="10" stroke-width=".5" d="M303.66406 477.83984l1.05469-.625"/><g clip-path="url(#D)"><path fill="none" stroke="#000" stroke-linecap="round" stroke-linejoin="round" stroke-miterlimit="10" stroke-width=".5" d="M314.9961 477.51172l4.19921 5.63281"/></g><g clip-path="url(#E)"><path fill="none" stroke="#000" stroke-linecap="round" stroke-linejoin="round" stroke-miterlimit="10" stroke-width=".5" d="M327.3164 481.9961l6.1875-3.33594"/></g><g clip-path="url(#F)"><path fill="none" stroke="#000" stroke-linecap="round" stroke-linejoin="round" stroke-miterlimit="10" stroke-width=".5" d="M340.83984 482.32813l5.77344-4"/></g><g clip-path="url(#G)"><path fill="none" stroke="#000" stroke-linecap="round" stroke-linejoin="round" stroke-miterlimit="10" stroke-width=".5" d="M341.67969 481.7461l-1.08985-.5625"/></g><g clip-path="url(#H)"><path fill="none" stroke="#000" stroke-linecap="round" stroke-linejoin="round" stroke-miterlimit="10" stroke-width=".5" d="M353.72656 481.4961l6.6289-2.33204"/></g><g clip-path="url(#I)"><path fill="none" stroke="#000" stroke-linecap="round" stroke-linejoin="round" stroke-miterlimit="10" stroke-width=".5" d="M354.6914 481.15625l-.90234-.83203"/></g><g clip-path="url(#J)"><path fill="none" stroke="#000" stroke-linecap="round" stroke-linejoin="round" stroke-miterlimit="10" stroke-width=".5" d="M367 479.29297l6.71484 2.07031"/></g><g clip-path="url(#K)"><path fill="none" stroke="#000" stroke-linecap="round" stroke-linejoin="round" stroke-miterlimit="10" stroke-width=".5" d="M380.17578 480.67969l6.99219-.69922"/></g><g clip-path="url(#L)"><path fill="none" stroke="#000" stroke-linecap="round" stroke-linejoin="round" stroke-miterlimit="10" stroke-width=".5" d="M381.1914 480.57813l-.67968-1.02344"/></g><g clip-path="url(#M)"><path fill="none" stroke="#000" stroke-linecap="round" stroke-linejoin="round" stroke-miterlimit="10" stroke-width=".5" d="M393.89453 481.9961l6.1836-3.33204"/></g><g clip-path="url(#N)"><path fill="none" stroke="#000" stroke-linecap="round" stroke-linejoin="round" stroke-miterlimit="10" stroke-width=".5" d="M394.79297 481.51172l-1.01953-.6836"/></g><g clip-path="url(#O)"><path fill="none" stroke="#000" stroke-linecap="round" stroke-linejoin="round" stroke-miterlimit="10" stroke-width=".5" d="M406.91406 481.2539l6.77735-1.85156"/></g><g clip-path="url(#P)"><path fill="none" stroke="#000" stroke-linecap="round" stroke-linejoin="round" stroke-miterlimit="10" stroke-width=".5" d="M407.89844 480.98438l-.83985-.89063"/></g><g clip-path="url(#Q)"><path fill="none" stroke="#000" stroke-linecap="round" stroke-linejoin="round" stroke-miterlimit="10" stroke-width=".5" d="M420.51172 481.97266l6.20703-3.28907"/></g><g clip-path="url(#R)"><path fill="none" stroke="#000" stroke-linecap="round" stroke-linejoin="round" stroke-miterlimit="10" stroke-width=".5" d="M421.41406 481.4961l-1.01562-.6875"/></g><g clip-path="url(#S)"><path fill="none" stroke="#000" stroke-linecap="round" stroke-linejoin="round" stroke-miterlimit="10" stroke-width=".5" d="M435.04688 483.29297l3.76953-5.92969"/></g><g clip-path="url(#T)"><path fill="none" stroke="#000" stroke-linecap="round" stroke-linejoin="round" stroke-miterlimit="10" stroke-width=".5" d="M449.09375 483.64844l2.30469-6.64063"/></g><g clip-path="url(#U)"><path fill="none" stroke="#000" stroke-linecap="round" stroke-linejoin="round" stroke-miterlimit="10" stroke-width=".5" d="M460.23828 481.47266l6.64453-2.28516"/></g><g clip-path="url(#V)"><path fill="none" stroke="#000" stroke-linecap="round" stroke-linejoin="round" stroke-miterlimit="10" stroke-width=".5" d="M461.20703 481.13672l-.89844-.83594"/></g><g clip-path="url(#W)"><path fill="none" stroke="#000" stroke-linecap="round" stroke-linejoin="round" stroke-miterlimit="10" stroke-width=".5" d="M147.48047 467.48828l-6.96094-.94922"/></g><path fill="none" stroke="#000" stroke-linecap="round" stroke-linejoin="round" stroke-miterlimit="10" stroke-width=".5" d="M147.48047 467.48828l.85156 2.30078m12.46875-2.34375l-6.97266-.86328m6.97266.86328l.8789 2.28907m12.41016-2.10938l-6.91797-1.22266m6.91797 1.22266l.75782 2.33594m12.51172-2.10938l-6.82813-1.67578m6.82813 1.67578l.60156 2.3789m12.67578-2.25l-6.7539-1.93358m6.7539 1.93359l.51172 2.39844m-1.49219-2.6797l.2539 1.19923m14.08594-1.07422l-6.83984-1.6211m6.83984 1.6211l.6211 2.375M213 467.58984l.3086 1.1836m14.03515-1.1211l-6.90625-1.27734m6.90625 1.27734l.73828 2.33985m12.53906-2.14844l-6.82812-1.66016m6.82812 1.66016l.60547 2.3789m12.64063-2.1328l-6.6914-2.15235m6.6914 2.15234l.4336 2.41407m12.94921-2.66407l-6.82813-1.65234m5.83594 1.41406l.30469 1.1875m14.09375-1.51953l-7.01172-.50781m5.99219.4336l.4961 1.12109m13.61327-.04297l-6.55859-2.51953m16.28906-2.2422l.60938 7.00392m-.51953-5.98438l1.02734-.66797m11.74219-.28125l1.51953 6.86328m-1.29688-5.86328l.9336-.79687m12.125-.19532l1.58984 6.84766m-1.35937-5.85156l.92578-.80469m11.71484-.05469l2.47656 6.57422m-2.11718-5.61719l.80859-.92187m10.57422 1.14453l5.6211 4.21484m-4.8047-3.60156l.19141-1.21094m11.94531 1.19532l6.34375 3.01953m-5.42187-2.57813l-.05469-1.22656m12.22266 1.39453l6.79297 1.80078m-6.79297-1.80078l-.55469-2.39062m13.8086 2.67578l6.91796 1.23047m-6.91797-1.23047l-.7539-2.33594m14.1875 4.03906l6.6836-2.17578m-6.6836 2.17578l-1.76563-1.70703m2.73828 1.39063l-.8828-.85157m13.08984-.42578l6.95312 1.01172m-6.95312-1.01172l-.83204-2.3086m15.73047 5.77735l3.78516-5.92578m-3.78516 5.92578l-2.44531-.19531m15.4336-.04687l4.4414-5.44141m-4.4414 5.4414l-2.41016-.47656m15.1914-.0625l5.50782-4.36328m-5.50782 4.36328l-2.25-.98437"/><g clip-path="url(#X)"><path fill="none" stroke="#000" stroke-linecap="round" stroke-linejoin="round" stroke-miterlimit="10" stroke-width=".5" d="M147.33984 454.78906l-6.67968-2.1836"/></g><path fill="none" stroke="#000" stroke-linecap="round" stroke-linejoin="round" stroke-miterlimit="10" stroke-width=".5" d="M147.33984 454.78906l.42188 2.41797m12.57812-1.72265l-6.05078-3.57032m6.05078 3.57031l-.10937 2.45313m13.57422-2.73828l-6.35156-3.0039m6.35156 3.0039l.11719 2.45312m13.17968-2.40625l-6.3125-3.09375m6.3125 3.09375l.07813 2.44922m12.94922-1.96875l-5.73828-4.05469m5.73828 4.0547l-.3047 2.43359m13.83985-2.78907l-6.17969-3.34765m6.1797 3.34765l-.01954 2.45313m13.53906-2.89844l-6.58593-2.45312m5.625 2.09765l.16406 1.21485m14.33203-1.97266l-7.02344-.22656m6 .1914l.53906 1.10157m13.67188-2.1172l-6.77344 1.875m5.78906-1.60155l.84375.89062m13.26954-1.67969l-6.39844 2.90625m5.46875-2.48437l.97266.75m13.30078-1.10938l-6.45313 2.78125m5.51172-2.3789l.95703.76953m13.34766-1.04688l-6.55469 2.52735m5.60156-2.16016l.92969.80469m12.14844-2.73438l-4.17188 5.65625m3.5625-4.83203l1.21485.17969m12.64453-1.05078l-4.04297 5.75m3.45312-4.91406l1.21875.15234m12.58204-1.0586l-3.83594 5.89063m3.83594-5.89062l2.4453.21875m10.46485-.44532l-3.02344 6.34375m2.58204-5.42187l1.22656-.05469m12.58203-.84375l-3.1289 6.29297m2.67187-5.375l1.22656-.03516m10.7539-1.24218l.45704 7.01171m-.39063-5.99218l1.04297-.64453m9.4414 1.28906l5.98438 3.6875m-5.11328-3.15235l.07813-1.22265m12.0664 1.30078l6.58203 2.46094m-6.58203-2.46094l-.32031-2.4336m1.27734 2.79297l-.16015-1.21875m12.30078 1.8711l7.01562.4375m-7.01562-.4375l-1.01172-2.23438m2.03516 2.29688l-.50782-1.11719m12.8711 2.00781l6.8711-1.47265m-6.8711 1.47265l-1.57813-1.875m2.57813 1.66016l-.78906-.9375m13.26953 1.70312l6.54297-2.5703m-6.54297 2.5703l-1.86328-1.59765m2.8164 1.22265l-.9336-.79687m13.4375 1.48437l6.25782-3.1953m-6.25781 3.1953l-2.01172-1.40625m2.92187.94141l-1.0039-.70312m13.4414 1.23046l6.19141-3.3203m-6.1914 3.3203l-2.03907-1.36328"/><g clip-path="url(#Y)"><path fill="none" stroke="#000" stroke-linecap="round" stroke-linejoin="round" stroke-miterlimit="10" stroke-width=".5" d="M146.94531 442.29688l-5.89062-3.82813"/></g><path fill="none" stroke="#000" stroke-linecap="round" stroke-linejoin="round" stroke-miterlimit="10" stroke-width=".5" d="M146.94531 442.29688l-.21484 2.4453m12.79297-1.625l-4.41797-5.46484m3.77734 4.66797l-.48047 1.1289m14.57032-.4453l-4.6836-5.23829m4.0039 4.47266l-.42577 1.15235m14.16015-.17579l-4.16406-5.66015m3.5586 4.83593l-.53125 1.10547m15.21093-1.04297l-5.67969-4.13671m4.85157 3.53515l-.17188 1.21485m12.70703.60547l-2.46875-6.57813m2.10938 5.6211l-.8125.92187m15.32031-.41016l-4.13281-5.6836m3.53125 4.85548L224.8203 443.5m13.77735.10937l-2.78125-6.45312m2.375 5.51562l-.76563.95704m15.34375-.54688l-4.5-5.39844m3.84766 4.61328l-.46485 1.13672m15.48828-4.24218l-6.60937 2.38671m18.96484-3.80859l-4.6914 5.22656m15.7461-6.125l-.16798 7.02344m16.28906-5.50781l-5.78125 3.9961m17.78907-5.13673l-3.16407 6.27344m2.70313-5.35937l1.22656-.02735m12.96485-.63672l-4 5.77735m4-5.77735l2.4375.28516m10.92968-.25l-4.10156 5.70703m4.10156-5.70703l2.4297.32813m10.41405-.61329l-3.16015 6.27735m2.69922-5.36719l1.22656-.02734m9.29687-.83594l3.34766 6.17969m-2.86328-5.27735l.67969-1.02344m10.5078 2.05079l6.63282 2.3203m-6.63281-2.3203l-.375-2.42579m14.25781 1.39844l5.4961 4.3789m-5.4961-4.3789l.44922-2.41406m12.8125 2.48437l5.60547 4.23829M407.5 438.26562l.38672-2.42578m.42969 3.03907l.1914-1.21094m11.6211 2.28125l6.97265.8711m-6.97265-.8711l-.875-2.29297m1.89062 2.41797l-.4375-1.14453m12.8086 2.28125l6.83203-1.65625m-6.83204 1.65625l-1.6289-1.83203m2.625 1.58984l-1.63281-1.83203m14.23828 2.84765l6.25781-3.20312m-6.25781 3.20312l-2.01172-1.40234m2.92187.9375l-1.0039-.70312m13.33203-1.8711l6.41015 2.8789m-5.47656-2.46093l-.08203-1.22266"/><g clip-path="url(#Z)"><path fill="none" stroke="#000" stroke-linecap="round" stroke-linejoin="round" stroke-miterlimit="10" stroke-width=".5" d="M147.0039 428.89063l-6.0078-3.64454"/></g><path fill="none" stroke="#000" stroke-linecap="round" stroke-linejoin="round" stroke-miterlimit="10" stroke-width=".5" d="M146.1289 428.35938l-.0664 1.22656m14.04688-.38672l-5.58594-4.26172m4.77344 3.64063l-.19922 1.21093m13.78125-.01953l-4.5-5.39844m3.84765 4.60938l-.46484 1.13672m13.82812.05469l-3.28906-6.20704m2.8125 5.3047l-.6875 1.01562m13.79297.16406l-1.91797-6.76172m1.64063 5.77734l-.88672.85157m12.4336.09375l2.17187-6.6836m-1.85547 5.71094l-1.20703.21484m13.41797.38672l3.75-5.9414m-3.20313 5.07812l-1.22266-.08984m13.82032.83984l4.08984-5.71484m-3.49219 4.88281l-1.21875-.16016m16.86328 1.53516l-1.76172-6.80078m1.50391 5.8125l-.90234.82812m16.39453-1.12109l-5.60547-4.23828m17.14063 2.1211l-.01954-.20313-.05859-.1914L278 426.5l-.45703-.375-.1914-.0586-.19923-.01952-.19922.01953-.1953.05859-.45704.375-.09375.17578-.0586.1914-.01952.20313.01953.19922.0586.1914.09374.17579.45703.375.19532.0586.19921.01952.19922-.01953.1914-.0586.45704-.375.09375-.17577.0586-.1914.01953-.19923m9.65234 2.3164l5.28125-4.63671m9.48437-.98828l2.38282 6.61328m14.43359-5.95312l-4.6211 5.29296m15.82423-6.15625l-.39454 7.01954m.33594-5.9961l1.11328-.51562m13.96875.05078l-3.8125 5.90234m3.25782-5.04297l1.22265.10547m12.44531-1.08594l-3.41015 6.14454m2.91406-5.25l1.22656.01953m9.40235-1.03125l2.95312 6.3789m-2.52344-5.44922l.7422-.97656m10.43359 4.71875l6.37109-2.96484m-5.4414 2.53515l-.98048-.74218m16.15235-3.80078l.80078 6.98046m-.80078-6.98046l2.01953-1.39063m-1.90234 2.40625l1.0078-.69531m12.80079-.33594l-.42188 7.01172m.42188-7.01172l2.23047-1.01953m11.53125 1.07422l-1.3164 6.90234m1.3164-6.90234l2.34375-.72656m-2.53516 1.73046l1.17188-.36328m8.20703 2.26953l6.9414 1.08204m-6.9414-1.08204l-.80469-2.3203m14.19531 1.96093l6.79297 1.80078m-5.80469-1.53906l-.28125-1.19531m17.9922-1.0625l-3.98048 5.79296"/><g clip-path="url(#aa)"><path fill="none" stroke="#000" stroke-linecap="round" stroke-linejoin="round" stroke-miterlimit="10" stroke-width=".5" d="M465.55078 424.17188l2.4375.27734"/></g><g clip-path="url(#ab)"><path fill="none" stroke="#000" stroke-linecap="round" stroke-linejoin="round" stroke-miterlimit="10" stroke-width=".5" d="M147.16406 415.28125l-6.32812-3.05469"/></g><path fill="none" stroke="#000" stroke-linecap="round" stroke-linejoin="round" stroke-miterlimit="10" stroke-width=".5" d="M146.24219 414.83594l.05078 1.22656m14.44531-1.51172l-6.84375-1.59375m5.84766 1.36328l.3125 1.1836m14.07812-1.46094l-7.0039-.57813m5.98437.4922l.48438 1.1289m13.4375.33594l-6.1797-3.33985m5.28126 2.85547l-.00781 1.22656m11.65625 1.0625l-1.05078-6.94531m.89843 5.9336l-.98437.73437m11.32422-.83594l5.20703-4.71875m-4.44922 4.03125l-1.15625-.41406m13.35156.625l5.92969-3.76563m-5.92969 3.76563l-2.13672-1.21094m15.47656 1.25l5.88282-3.84375m-5.88281 3.84375l-2.15235-1.1836m18.30469 2.77344l.20703-7.02343m-.17578 6l-1.10156.54687m12.85937.07813l3.25781-6.22657m-2.78515 5.32032l-1.22656.00781m12.19921-1.8789l6.9961-.67188m-5.97656.57422l-.67579-1.02344m16.4297-2.73047l.07812 7.02734m-.06641-6.0039l1.07813-.58594m9.26562 1.25l6 3.65234m-5.1289-3.12109l.0703-1.22266m13.26563-.29296l4.21485 5.62109m7.77343-3.54297l6.8711 1.46875m8.12109-3.77734l3.51563 6.08593m-3.00391-5.19921l.64844-1.04297m15.89843.30078l-3.97265 5.79687m3.39453-4.95312l1.21875.13672m10.21094-1.5625l.95312 6.96093m-.8125-5.94921l.9961-.71875m10.36328.52343l4.58593 5.32422m-4.58593-5.32422l.89062-2.28515m12.51563 2.21093l4.40234 5.47657m-4.40234-5.47657l.96484-2.2539m-.32422 3.05078l.96485-2.2539m15.42578 1.02734l-3.03125 6.33593m3.03125-6.33593l2.45312-.10547m-2.89453 1.02734l1.22656-.05469m12.79297-.73046l-3.5586 6.05859m3.5586-6.0586l2.45313.10547m-2.96875.77735l2.44922.10547m-2.96875.77734l1.22656.05078m12.95703-1.90625l-3.22266 6.24219m3.22266-6.24219L441 410.60156m-2.92578.9375l2.45312-.02734m12.5.09375l-5.5625 4.29687m5.5625-4.29687l2.23438 1.01172m11.59375-.08985l-6.58594 2.44922"/><g clip-path="url(#ac)"><path fill="none" stroke="#000" stroke-linecap="round" stroke-linejoin="round" stroke-miterlimit="10" stroke-width=".5" d="M466.85547 412.52734l1.83594 1.62891"/></g><g clip-path="url(#ad)"><path fill="none" stroke="#000" stroke-linecap="round" stroke-linejoin="round" stroke-miterlimit="10" stroke-width=".5" d="M147.4414 401.14453l-6.8828-1.41406"/></g><path fill="none" stroke="#000" stroke-linecap="round" stroke-linejoin="round" stroke-miterlimit="10" stroke-width=".5" d="M146.4414 400.9414l.34376 1.17579m12.30078-4.71094l-3.54297 6.0664m3.02734-5.18359l1.22656.04688m7.67579.5586l6.3125 3.08593m-5.39453-2.63672l-.03907-1.22656m12.89844.07031l5.39063 4.5039m7.1289-1.83984l6.98047-.82812m-5.96484.71094l-.69922-1.00782m12.98828.42188l7.0039.58203m-7.0039-.58203l-.96875-2.2539m14.32422 3.14843l6.92187-1.21094m-6.92187 1.21094l-1.50781-1.9336m14.87109.4922l6.82422 1.67577m-6.82422-1.67578l-.60156-2.3789m14.66015 5.5l5.33985-4.57032m-5.33985 4.57032l-2.28515-.89844m16.17578 1.4375l4.1836-5.64453m-3.57423 4.82422l-1.21093-.1836m15.0078-5.1875l2.00391 6.73438m15.80079-2.94922l-6.97657-.83203m5.96094.71094l.44531 1.14453m13.4336-3.21485l-6.07032 3.54688m6.07032-3.54688l2.08593 1.29297m11.58204 1.41406l-6.77735-1.86718m17.98828-2.33594l-2.57031 6.53906m2.19531-5.58594l1.21875-.14062m11.0625-1.05469l.25 7.02344m-.25-7.02344l2.1211-1.22656m8.38672 6.67969l5.86328-3.87891m8.67187-1.1289l3.42188 6.13671M387 399.3125l-6.65625 2.25m6.65625-2.25l1.78516 1.6836m-2.75391-1.35548l.89063.84375m12.51562-2.5625l-4.90625 5.03125m4.90625-5.03125l2.35547.6875m11.16016-.47656l-5.3047 4.60938m5.3047-4.60938l2.28906.88281m9.70312-1.83203l-2.65625 6.50782m2.65625-6.50782l2.4414-.24609m-2.82812 1.19531l1.21875-.125m13.1836-.4375l-4.0586 5.73438m4.0586-5.73438l2.4336.3125m-3.02345.52344l1.21485.15625m13.15234-.60156l-4.98047 4.95703m4.98047-4.95703l2.34375.72265m-3.07031-.0039l1.17187.36328m13.64844.11328l-6.54297 2.5664"/><g clip-path="url(#ae)"><path fill="none" stroke="#000" stroke-linecap="round" stroke-linejoin="round" stroke-miterlimit="10" stroke-width=".5" d="M466.83203 399.15625l1.86328 1.59375"/></g><path fill="none" stroke="#000" stroke-linecap="round" stroke-linejoin="round" stroke-miterlimit="10" stroke-width=".5" d="M465.8789 399.52734l.9336.80079"/><g clip-path="url(#af)"><path fill="none" stroke="#000" stroke-linecap="round" stroke-linejoin="round" stroke-miterlimit="10" stroke-width=".5" d="M147.45703 386.49219l-6.91406 1.26172"/></g><path fill="none" stroke="#000" stroke-linecap="round" stroke-linejoin="round" stroke-miterlimit="10" stroke-width=".5" d="M147.45703 386.49219l1.51953 1.92578m-2.52734-1.74219l.76172.96485m12.84765-2.71094l-5.48828 4.38672m5.48828-4.38672l2.25391.97656m-3.05078-.33594l1.125.48438m10.9375-2.375l-1.38672 6.88672m1.38672-6.88672l2.35156-.70313m11.58984 7.40235l-2.64453-6.51172m11.1836 2.6289l6.91406 1.25391m-5.91016-1.07422l-.37109-1.16797m13.77734-.98828l4.71875 5.20703m-4.71875-5.20703l.83203-2.3086m-.14453 3.06641l.41407-1.15234m11.83984.78906l5.46875 4.41797m-5.46875-4.41797l.46484-2.40625m.33203 3.05078l.23047-1.20312m13.01172 5.64844l4.02344-5.76172m-3.4414 4.92187l-1.21485-.14453m17.57422 1.22266l-3.23438-6.23828m3.23438 6.23828l-1.39063 2.01953m13.83985-1.70703l-1.5-6.86328m1.28125 5.86718l-.9375.79297m16.78906-1.51172l-6.13281-3.43359m6.13281 3.4336l-.05469 2.45312m13.42578-2.5625l-6.25-3.21094m6.25 3.21094l.03516 2.45312m13.55078-4.96484l-6.78906 1.8086m6.78906-1.8086l1.67188 1.79688m-2.66016-1.53516l.83594.89844m13.25781-1.73829l-6.3711 2.96485m6.3711-2.96485l1.95703 1.47657m-2.88281-1.04688l.97656.74219m13.14063-1.41016l-6.125 3.44532m6.125-3.44532l2.0664 1.32032m11.22266-1.3672l-6.07422 3.53517m6.07422-3.53516l2.08594 1.29297m-2.96875-.77735l1.04296.64454m13.33204 2.03125l-6.42579-2.84766m6.42579 2.84765l.17578 2.44532m-1.10938-2.85938l.08594 1.22266m14.45312-2.47656l-7.0078.48828m7.0078-.48828l1.30079 2.08203m-2.32032-2.00781l.65235 1.03906m13.10156-2.8164l-5.84766 3.89452m5.84766-3.89453l2.16016 1.16406m10.46093-1.93359l-4.45703 5.4336m4.45703-5.4336l2.40625.48828m10.45703-.80078l-3.55468 6.0586m3.55468-6.0586l2.45313.10156m8.90625-.58203l.35547 7.01953m-.35547-7.01953l2.10547-1.25781m12.8086 1.55469l-2.83985 6.42578m2.83984-6.42578l2.44531-.1797m11.01954.25l-3.14063 6.28517m3.14063-6.28516l2.45312-.0625m12.01953.99219l-5.45703 4.42578"/><g clip-path="url(#ag)"><path fill="none" stroke="#000" stroke-linecap="round" stroke-linejoin="round" stroke-miterlimit="10" stroke-width=".5" d="M466.28906 384.91016l2.26172.95312"/></g><path fill="none" stroke="#000" stroke-linecap="round" stroke-linejoin="round" stroke-miterlimit="10" stroke-width=".5" d="M465.4961 385.55469l1.1289.47656"/><g clip-path="url(#ah)"><path fill="none" stroke="#000" stroke-linecap="round" stroke-linejoin="round" stroke-miterlimit="10" stroke-width=".5" d="M147.35938 372.77344l-6.71875 2.0664"/></g><path fill="none" stroke="#000" stroke-linecap="round" stroke-linejoin="round" stroke-miterlimit="10" stroke-width=".5" d="M147.35938 372.77344l1.73828 1.73437m11.43359-2.11719l-6.42969 2.83594m6.42969-2.83594l1.92578 1.51954m11.32031-1.66407l-6.29687 3.1211m6.29687-3.1211l1.9961 1.4297m-2.91016-.97267l.9961.71485m12.95312-1.63672l-5.73828 4.05469m5.73828-4.05469l2.1914 1.10156m10.07423-2.08203l-3.63672 6.01563m3.63672-6.01563l2.44921.13672m-2.97656.73828l1.22266.07031m10.3711-1.42578l.85937 6.97656m-.85938-6.97656l2.01172-1.40625m-1.88672 2.42188l1.00781-.70313m9.98047.85156l5.26563 4.64844m-4.5-3.97265l.28515-1.19532m15.89063 6.21485l-1.98828-6.74219m1.69922 5.76172l-.875.85547m15.3125-.2461l-3.65235-6.0039m3.65235 6.0039l-1.25391 2.11329m15.49219-2.92579l-5.5-4.375m5.5 4.375l-.44531 2.41016m13.3789-2.0039l-4.73828-5.19141m4.73828 5.1914l-.82422 2.3125m14.67188-2.92187l-5.80078-3.96875m5.80078 3.96875l-.27344 2.4375m14.05078-3.40625l-6.72656-2.03125m6.72656 2.03125l.47656 2.40625m12.89844-4.21094l-6.84765 1.57813m6.84765-1.57813l1.60938 1.85156m11.5703-2.29687l-6.57812 2.46875m6.57813-2.46875l1.83984 1.6211m11.39453-1.82032l-6.41406 2.86719m6.41406-2.86719l1.9375 1.50781m11.62891.55078l-6.91797-1.25m6.91797 1.25l.7461 2.33594m12.60937-2.66406l-7-.59375m7 .59375l.96875 2.2539m12.29297-3.23437l-6.89063 1.36719m5.88672-1.16797l.77735.94922m12.1914-3.28516l-4.19531 5.63672m3.58594-4.8164l1.21484.1875m11.98047-1.42579l-2.73047 6.47656m2.33203-5.53515l1.22266-.10938m10.84765-1.09765l.5547 7.00781m-.47657-5.98828l1.03516-.66016m13.22265-.28906l-1.48828 6.86719m1.48828-6.86719l2.35938-.66797m11 .67578l-1.57813 6.84766m1.57813-6.84766l2.37109-.63672m12.96875 1.95704l-5.625 4.21093"/><g clip-path="url(#ai)"><path fill="none" stroke="#000" stroke-linecap="round" stroke-linejoin="round" stroke-miterlimit="10" stroke-width=".5" d="M466.375 371.70313l2.21875 1.04687"/></g><g clip-path="url(#aj)"><path fill="none" stroke="#000" stroke-linecap="round" stroke-linejoin="round" stroke-miterlimit="10" stroke-width=".5" d="M146.65234 358.1875l-5.30468 4.60938"/></g><path fill="none" stroke="#000" stroke-linecap="round" stroke-linejoin="round" stroke-miterlimit="10" stroke-width=".5" d="M145.8789 358.85938l1.14844.4414m12.72266-1.33984l-4.8711 5.0625m4.16407-4.32422l1.17969.33594m13.49609-.21875l-6.17578 3.35156m5.27734-2.86328l1.02344.67578m13.10547-1.3086l-6.00781 3.64063m5.13672-3.10938l1.05078.62891m12.41406-2.01172l-4.5664 5.34375m4.5664-5.34375l2.39453.53125m10.79297-.63281l-4.3086 5.55078m4.3086-5.55078l2.41797.41797m-3.04688.38672l1.21094.21094m12.65625-1.07422l-4.15625 5.66406m4.15625-5.66406l2.42969.35546m-3.03516.46875l1.21484.17579m9.50391 5.16406l2.2461-6.66016m-2.2461 6.66016l-2.41797.39844m18.42969-.58594l-3.14453-6.28516m3.14453 6.28516l-1.42578 2m15.0664-2.1875l-3.79687-5.91016m3.79688 5.91016l-1.19922 2.14062m15.125-2.63671l-5.01953-4.91797m5.01953 4.91796l-.69141 2.35157m14.25-2.6289l-5.50781-4.36329m4.70703 3.72656l-.22266 1.20703m15.0039-1.94921l-6.83983-1.60938m5.84765 1.375l.3125 1.1875m13.20313-4.09375l-5.25 4.67188m19.1953-3.65235l-6.51562 2.63672m6.51563-2.63672l1.8789 1.57813m11.6172-.98047l-6.87891 1.4375m6.8789-1.4375l1.57031 1.88672m11.71485-2.02344l-6.8164 1.71094m5.82421-1.46094l.82422.91015m13.32813-1.6289l-6.50782 2.65234m5.5625-2.26953l.9414.78516m13.1797-1.46485l-6.23047 3.2461m5.32422-2.77344l1.01171.6914m12.26954-2.30077l-4.34766 5.51953m3.71484-4.71875l1.20704.21875m12.0625-1.44141l-2.9922 6.35938m2.9922-6.35938l2.44921-.1211m9.26172-.21093l.21875 7.02344m-.1875-6l1.0625-.60938m12.25-.41406l.16016 7.02344m-.13672-6l1.07031-.60157m11.89063-.39843l.82031 6.98046m-.82031-6.98046l2.01953-1.39844m14.35156 2.57422l-5.28906 4.6289"/><g clip-path="url(#ak)"><path fill="none" stroke="#000" stroke-linecap="round" stroke-linejoin="round" stroke-miterlimit="10" stroke-width=".5" d="M466.20703 358.17969l2.29297.8711"/></g><g clip-path="url(#al)"><path fill="none" stroke="#000" stroke-linecap="round" stroke-linejoin="round" stroke-miterlimit="10" stroke-width=".5" d="M143.01953 343.80469l1.96094 6.7461"/></g><g clip-path="url(#am)"><path fill="none" stroke="#000" stroke-linecap="round" stroke-linejoin="round" stroke-miterlimit="10" stroke-width=".5" d="M143.01953 343.80469l1.76172-1.71094"/></g><path fill="none" stroke="#000" stroke-linecap="round" stroke-linejoin="round" stroke-miterlimit="10" stroke-width=".5" d="M155.65234 344.08203l3.32813 6.1914m-3.32813-6.1914l1.35938-2.03906m11.42187 2.39453l4.39453 5.48047m-4.39453-5.48047l.96875-2.2539m12.20703 2.37109l4.67188 5.25m-3.99219-4.48828l.42578-1.14844m12.20703.38672l4.6797 5.2461m-4-4.48048l.42577-1.15234m14.53907-.5039l.01562 7.02734m-.01172-6.00391l1.08203-.57813m14.9961.89454l-5.51563 4.35156m5.51563-4.35156l2.2461.98437m10.28124 4.09766l-3.9414-5.8164m3.9414 5.8164l-1.14453 2.16797m13.17578-1.62891l-1.375-6.89453m1.375 6.89453l-1.89844 1.55078m15.82422-1.73437l-2.59375-6.52735m2.59375 6.52735l-1.58594 1.87109m1.21094-2.82031l-.79687.9375m15.04297-.26563l-3.70703-5.97265m3.70703 5.97265l-1.23438 2.1211m14.61328-2.16407l-3.83203-5.88671m3.27344 5.03125l-.59375 1.07421M305.28125 344l-3 6.35547m15.99219-6.48828l-2.35547 6.6211m15.24219-6.7422l-1.5 6.86329m1.28125-5.86329l1.18359-.33203m14.85156 1.4336l-6.5039 2.66015m6.5039-2.66015l1.88672 1.5664m11.07422-2.22265l-5.79297 3.97265m4.94922-3.39453l1.08984.5664m12.10157-2.09374l-3.85938 5.8711m3.30078-5.01563l1.21875.11328m13.45313-.2461l-5.45313 4.4297m4.66016-3.78517l1.1289.47657m12.17579-1.84766l-3.84766 5.8789m3.28516-5.02343l1.22265.10938m12.92188-.77344l-4.38281 5.4961m3.74609-4.69532l1.20703.22656m12.29297-1.33203l-3.47656 6.10547m2.96875-5.21875l1.22656.03515m10.60547-1.375l.5039 7.01172m-.5039-7.01171l2.08203-1.30079m11.16797 1.3086l.63281 6.9961m-.63281-6.9961l2.05469-1.34375m13.3164 1.78906l-3.47656 6.10547"/><g clip-path="url(#an)"><path fill="none" stroke="#000" stroke-linecap="round" stroke-linejoin="round" stroke-miterlimit="10" stroke-width=".5" d="M465.30078 344.125l2.45313.07031"/></g><g clip-path="url(#ao)"><path fill="none" stroke="#000" stroke-linecap="round" stroke-linejoin="round" stroke-miterlimit="10" stroke-width=".5" d="M141.4375 331.45703l5.125 4.8125"/></g><path fill="none" stroke="#000" stroke-linecap="round" stroke-linejoin="round" stroke-miterlimit="10" stroke-width=".5" d="M154.42578 331.86328l5.78125 3.9961m-5.78125-3.9961l.28516-2.4336m.55469 3.01563l.14062-1.21875m12.1289.97266l6.19141 3.32812m-6.1914-3.32812l.01172-2.45313m.89062 2.9375l.00781-2.45312m12.25781 2.28125l6.48438 2.70312m-6.48438-2.70312l-.23046-2.4414m1.17187 2.83593l-.11328-1.22266m12.53516.71094l6.38672 2.9375m-6.38672-2.9375l-.14063-2.44922m1.07031 2.875l-.0703-1.22265m12.40624.91796l6.48828 2.69532m-6.48828-2.69531l-.23437-2.44532m17.6914.39844l-1.80078 6.78906m1.53906-5.80469l1.19532-.27734m14.49218.8711l-6.01562 3.6328m5.14062-3.10546l1.05078.63281m10.86329 4.09375l-1.46485-6.875m1.25 5.875l-.9375.78906m15.33985-.10156l-3.21094-6.25m3.21094 6.25l-1.39844 2.01563M278.73047 337l-3.16016-6.27344m2.69922 5.35938l-.70703 1.0039m12.47656.26172l.85156-6.97656m-.72656 5.96094l-1.14453.4414m12.71485-.05859l4.08984-5.71484m-3.49219 4.88671l-1.21875-.16406m12.82422-3.40234l6.3164 3.07812m-5.39843-2.6289l-.04297-1.22656m15.6211-1.19532l-.04688 7.02344m.03906-6.0039l1.08985-.56641m13.4414-.23438l-2.46094 6.58594m2.10157-5.625l1.21484-.16406m12.66797-.71094l-2.8789 6.41406m2.8789-6.41406l2.44531-.16406m10.41016-.0039l-1.95703 6.75m1.67187-5.76954l1.19922-.25m14.41016.79688l-5.97657 3.6953m5.10547-3.15624l1.0625.61719m9.98828-2.82032l.29297 7.02344m-.25-6l1.0586-.6211m11.83593-.36327l1.04688 6.9453m-1.04688-6.9453l1.96875-1.46485m13.38672 1.76953l-3.03515 6.33594m14.26171-6.63281l1.14454 6.92969m-.98047-5.92188l.97656-.7461m13.50781-.22656l-1.52344 6.85938m1.30079-5.86328l1.18359-.32422m13.71094-.04297l-4.23828 5.60156m3.625-4.78906l1.21093.19531"/><g clip-path="url(#ap)"><path fill="none" stroke="#000" stroke-linecap="round" stroke-linejoin="round" stroke-miterlimit="10" stroke-width=".5" d="M141.97656 317.67578l4.04688 5.74219"/></g><path fill="none" stroke="#000" stroke-linecap="round" stroke-linejoin="round" stroke-miterlimit="10" stroke-width=".5" d="M154.65234 318.25781l5.32813 4.58203m-5.32813-4.58203l.53516-2.39453m12.05469 3.76172l6.77734 1.84766m-6.77734-1.84766l-.54297-2.39453m13.73437 3.16406l7.02344.30469m-7.02344-.30469l-1.05468-2.21484m2.07812 2.26172l-1.0586-2.21485m13.35548 2.1289l7.01562.38673m-7.01562-.38672l-1.03125-2.22656m2.05078 2.28125l-1.03125-2.22657m13.33594 2.01954l6.99218.6914m-6.99219-.6914l-.93359-2.26954m1.95313 2.3711l-.9336-2.26953m13.36719 1.48046l6.71875 2.0625m-6.71875-2.0625l-.46484-2.40625m1.4414 2.70704l-.23047-1.20313m13.7461-.82031l4.36328 5.50781m-3.72656-4.70703l.49218-1.1211m13.46485 6.47266l1.8086-6.79297m-1.54688 5.8047l-1.19532.27733m14.0547.65235l2.1953-6.67578m-2.1953 6.67578l-2.41798.41406m15.5-.5l2.66016-6.5039m-2.27344 5.55468l-1.22265.125m15.28906 1.07813l.38281-7.01563m-.32812 5.9961l-1.11329.51562m13.54688.35938l2.03516-6.72657m-1.73829 5.75l-1.20312.23829M317.7578 324l-1.32422-6.90234m1.12891 5.89843l-.95312.76954m17.14453-2.13282l-6.6836-2.17187m5.71094 1.85937l.21094 1.20703m13.14453-4.53515l-4.82422 5.10937m4.125-4.36328l1.17969.32422m10.21875-2.02344l.41015 7.01563m-.41015-7.01563l2.09765-1.27344m12.27344 1.375l-1.70312 6.81641m1.45703-5.82422l1.1914-.29687m14.48438.82812l-5.9336 3.76563m5.07032-3.21485l1.0664.60547m11.4375-2.53906l-2.58203 6.53516m2.20703-5.58594l1.21875-.13672m11.63672-1.03125l-.91406 6.96875m.91406-6.96875l2.29688-.85938m11.1836.88672l-1.2461 6.91407m1.0664-5.90625l1.16797-.375m11.61328 6.33593l.1836-7.02343m-.15625 6.0039l-1.09766.54688m17.72656-4.3789L447 321.88671m5.55078-2.28906l.94531.78125m13.19922-1.42188l-6.26562 3.17969"/><g clip-path="url(#aq)"><path fill="none" stroke="#000" stroke-linecap="round" stroke-linejoin="round" stroke-miterlimit="10" stroke-width=".5" d="M466.69531 318.95703l2.00781 1.41406"/></g><path fill="none" stroke="#000" stroke-linecap="round" stroke-linejoin="round" stroke-miterlimit="10" stroke-width=".5" d="M465.78516 319.42188l1 .70312"/><path fill="#00f" fill-rule="evenodd" d="M392.67578 463.21094h8.6211V453.0625h-8.6211v10.14844"/><path fill="azure" fill-rule="evenodd" d="M394.51172 454.89844h.83203v2.82031h3.28516v-2.82031h.83203v6.48047h-.83203v-2.91797h-3.28516v2.91797h-.83203v-6.48047"/><path fill="#ff3030" fill-rule="evenodd" d="M317.91797 445.45703h7.69531V435.3125h-7.69531v10.14453"/><path fill="azure" fill-rule="evenodd" d="M319.7539 437.14453h.83204v5.73828h3.1914v.74219h-4.02343v-6.48047"/><path fill="#00f" fill-rule="evenodd" d="M215.14453 414.38672h8.61719v-10.14453h-8.61719v10.14453"/><path fill="azure" fill-rule="evenodd" d="M216.97656 406.07422h.83203v2.82422h3.28516v-2.82422h.83594v6.48047h-.83594v-2.91406h-3.28516v2.91406h-.83203v-6.48047"/><path fill="#00f" fill-rule="evenodd" d="M370.48438 401.07422h8.62109v-10.14844h-8.6211v10.14844"/><path fill="azure" fill-rule="evenodd" d="M372.3164 392.76172h.83594v2.82031h3.28516v-2.82031h.83203v6.47656h-.83203v-2.91406h-3.28516v2.91406h-.83593v-6.47656"/><path fill="#ff3030" fill-rule="evenodd" d="M238.02734 370.0039h7.69532v-10.14452h-7.69532v10.14453"/><path fill="azure" fill-rule="evenodd" d="M239.86328 361.6914h.83203v5.73829h3.19531v.74219h-4.02734v-6.48047"/><path fill="#ffffe0" fill-rule="evenodd" d="M346.1836 353.4961h22.17968v-10.19141H346.1836v10.1914"/><path fill-rule="evenodd" d="M349.6836 345.14063h.5078v6.29296h-.78906v-4.48828h-1.38671v-.5586l.55859-.0625.2539-.05468.23047-.08984.20313-.14063.17187-.21094.14063-.29296.10937-.39454m4.8125 0l.23047.01563.21875.0586.20703.08984.19532.11719.18359.15234.17188.17578.30078.41797.24609.49219.17969.54687.10937.58203.03906.58985-.03906.59375-.10937.58203-.17969.55469-.2461.5039-.30077.42578-.17188.17969-.1836.15234-.1953.125-.20704.09375-.21875.0547-.23047.01952-.23046-.01953-.21875-.05469-.20704-.09375-.1953-.125-.1875-.15234-.16798-.17969-.30469-.42578-.24218-.5039-.17969-.5547-.11328-.58202-.03516-.59375h.83203l.02735.5625.08203.5078.1289.44142.16016.375.1914.30078.21094.21875.22266.14062.22656.04688.22657-.04688.22265-.14062.21094-.21875.1914-.30079.16016-.375.125-.4414.08203-.50781.03125-.5625-.03125-.5625-.08203-.5-.125-.4336-.16015-.36719-.19141-.29296-.21094-.21485-.22265-.1289-.22657-.04688-.22656.04688-.22265.1289-.21094.21485-.1914.29296-.16017.3672-.1289.43359-.08203.5-.02735.5625h-.83203l.03516-.58985.11328-.58203.17969-.54687.24219-.4922.30468-.41796.16797-.17578.1875-.15235.19531-.11718.20704-.08985.21875-.05859.23046-.01563m5.08985 0h.51172v6.29297h-.78907v-4.48828h-1.38671v-.5586l.55859-.0625.2539-.05468.22657-.08984.20312-.14063.17578-.21094.14063-.29296.10547-.39454m2.82422 2.17188h.78515l.02344-.3164.0586-.28516.09765-.25.14063-.21875.17968-.17188.22266-.1289.26562-.08204.3086-.02734.23828.02344.22265.0625.20704.10156.17578.13672.15234.17578.11328.20313.07031.23828.02344.26172-.01953.26953-.0664.22656-.10938.1914-.15625.17188-.19922.16016-.25.16797-.63281.38671-.53906.3125-.4375.31641-.34375.32813-.26563.33203-.1914.35156-.125.3711-.06641.39452-.02344.41797h4.21485v-.74218h-3.33204l.08204-.28125.11328-.23829.14843-.20312.1875-.17969.23047-.17187.27735-.17578.71875-.41407.41406-.20703.34765-.23047.28125-.25.21875-.26953.16407-.27734.10937-.28125.0625-.28516.02344-.28125-.04297-.38281-.1211-.35156-.1875-.30469-.25-.26563-.30468-.21093-.34375-.16016-.38281-.09765-.40625-.03125-.4336.03125-.39843.09765-.35547.16797-.30469.23438-.2461.30468-.1875.3711-.11718.44921-.03906.51563"/></g></defs><use xlink:href="#ar"/></svg>