<svg xmlns="http://www.w3.org/2000/svg" role="img" xmlns:xlink="http://www.w3.org/1999/xlink" viewBox="142.45 309.95 326.84 171.84"><defs><clipPath id="a"><path d="M144 311.67188h1V479h-1zm0 0"/></clipPath><clipPath id="b"><path d="M144 478h3v2.32813h-3zm0 0"/></clipPath><clipPath id="c"><path d="M144 311.67188h324v168.65625H144zm0 0"/></clipPath><clipPath id="d"><path d="M217 477h11v3.32813h-11zm0 0"/></clipPath><clipPath id="e"><path d="M380 467h25v13.32813h-25zm0 0"/></clipPath><clipPath id="f"><path d="M399 474h4v6.32813h-4zm0 0"/></clipPath><clipPath id="g"><path d="M467 311.67188h1v168.65625h-1zm0 0"/></clipPath><clipPath id="h"><path d="M144 479h4v1.32813h-4zm0 0"/></clipPath><clipPath id="i"><path d="M147 480h2v.32813h-2zm0 0"/></clipPath><clipPath id="j"><path d="M146 480h2v.32813h-2zm0 0"/></clipPath><clipPath id="k"><path d="M153 479h9v1.32813h-9zm0 0"/></clipPath><clipPath id="l"><path d="M160 480h2v.32813h-2zm0 0"/></clipPath><clipPath id="m"><path d="M159 480h2v.32813h-2zm0 0"/></clipPath><clipPath id="n"><path d="M166 479h9v1.32813h-9zm0 0"/></clipPath><clipPath id="o"><path d="M173 480h2v.32813h-2zm0 0"/></clipPath><clipPath id="p"><path d="M172 480h2v.32813h-2zm0 0"/></clipPath><clipPath id="q"><path d="M180 479h8v1.32813h-8zm0 0"/></clipPath><clipPath id="r"><path d="M186 480h1v.32813h-1zm0 0"/></clipPath><clipPath id="s"><path d="M193 479h8v1.32813h-8zm0 0"/></clipPath><clipPath id="t"><path d="M200 480h2v.32813h-2zm0 0"/></clipPath><clipPath id="u"><path d="M199 480h2v.32813h-2zm0 0"/></clipPath><clipPath id="v"><path d="M206 478h9v2.32813h-9zm0 0"/></clipPath><clipPath id="w"><path d="M212 480h2v.32813h-2zm0 0"/></clipPath><clipPath id="x"><path d="M220 479h8v1.32813h-8zm0 0"/></clipPath><clipPath id="y"><path d="M233 478h8v2.32813h-8zm0 0"/></clipPath><clipPath id="z"><path d="M247 478h7v2.32813h-7zm0 0"/></clipPath><clipPath id="A"><path d="M260 478h7v2.32813h-7zm0 0"/></clipPath><clipPath id="B"><path d="M275 477h5v3.32813h-5zm0 0"/></clipPath><clipPath id="C"><path d="M287 478h7v2.32813h-7zm0 0"/></clipPath><clipPath id="D"><path d="M302 476h4v4.32813h-4zm0 0"/></clipPath><clipPath id="E"><path d="M313 478h8v2.32813h-8zm0 0"/></clipPath><clipPath id="F"><path d="M327 477h7v3.32813h-7zm0 0"/></clipPath><clipPath id="G"><path d="M341 477h6v3.32813h-6zm0 0"/></clipPath><clipPath id="H"><path d="M354 477h6v3.32813h-6zm0 0"/></clipPath><clipPath id="I"><path d="M366 478h8v2.32813h-8zm0 0"/></clipPath><clipPath id="J"><path d="M379 479h9v1.32813h-9zm0 0"/></clipPath><clipPath id="K"><path d="M380 479h2v1.32813h-2zm0 0"/></clipPath><clipPath id="L"><path d="M393 479h8v1.32813h-8zm0 0"/></clipPath><clipPath id="M"><path d="M393 479h2v1.32813h-2zm0 0"/></clipPath><clipPath id="N"><path d="M406 479h9v1.32813h-9zm0 0"/></clipPath><clipPath id="O"><path d="M406 479h3v1.32813h-3zm0 0"/></clipPath><clipPath id="P"><path d="M420 478h8v2.32813h-8zm0 0"/></clipPath><clipPath id="Q"><path d="M420 480h2v.32813h-2zm0 0"/></clipPath><clipPath id="R"><path d="M434 477h6v3.32813h-6zm0 0"/></clipPath><clipPath id="S"><path d="M448 477h5v3.32813h-5zm0 0"/></clipPath><clipPath id="T"><path d="M460 477h7v3.32813h-7zm0 0"/></clipPath><clipPath id="U"><path d="M144 466h4v2h-4zm0 0"/></clipPath><clipPath id="V"><path d="M144 452h4v4h-4zm0 0"/></clipPath><clipPath id="W"><path d="M144 438h4v5h-4zm0 0"/></clipPath><clipPath id="X"><path d="M144 425h4v4h-4zm0 0"/></clipPath><clipPath id="Y"><path d="M144 412h4v4h-4zm0 0"/></clipPath><clipPath id="Z"><path d="M144 399h4v3h-4zm0 0"/></clipPath><clipPath id="aa"><path d="M466 398h2v3h-2zm0 0"/></clipPath><clipPath id="ab"><path d="M144 386h4v3h-4zm0 0"/></clipPath><clipPath id="ac"><path d="M466 385h2v3h-2zm0 0"/></clipPath><clipPath id="ad"><path d="M144 372h4v4h-4zm0 0"/></clipPath><clipPath id="ae"><path d="M144 357h3v7h-3zm0 0"/></clipPath><clipPath id="af"><path d="M144 343h2v8h-2zm0 0"/></clipPath><clipPath id="ag"><path d="M144 341h1v4h-1zm0 0"/></clipPath><clipPath id="ah"><path d="M144 331h4v6h-4zm0 0"/></clipPath><clipPath id="ai"><path d="M465 330h3v2h-3zm0 0"/></clipPath><clipPath id="aj"><path d="M144 317h3v7h-3zm0 0"/></clipPath><clipPath id="ak"><path d="M466 318h2v3h-2zm0 0"/></clipPath><g id="al" clip-path="url(#clip1)"><path fill="#fff" fill-opacity="0" fill-rule="evenodd" d="M0 0h1000v1000H0zm0 0"/><path fill="#d3d3d3" fill-opacity="0" fill-rule="evenodd" d="M162.15234 355.86719l-.23437.29297.0586.23437.11718.17188.17578.23437.29297.34766.11328.0586.11719-.17188.0586-.23438.17577-.17578.46485-.17578h.69922l.23437.29297.28906.8164.0586.17579.17578.23046.35156.23438.69922.69922.17188.17578.23437.34765.23438.41016.28906.58203.41015.46485.23047.23437.23438.17578.11719.23047.17578.29297.17187 1.16406v.23438l.0586.28906.05859.11719.11719.11719.34765.41015.11719.17188.17578.17578.17578.23437.11719.17188.17188.35156.05859.23438.23437.40625.23438-.0586-.17578.17578-.0586.92969h-.58203l-.23437-.11328-.34766.11328-.11719.11719-.05859.29297-.0586.17578-.11718.17187-.46484.29297-.0586.23438-.0586.11328v.64453l.0586.17187v.41016l.0586.0586v.40624l.05859.40625.11719.17579.05859.05859.23047.64062-.0586.29297v.69922l-.05859.58203v.23438l-.0586.23047-.05468.35156v1.92187l.05469.1172h.42578l-.36719.11718-.02344.35156.89063 1.16797 1.74219.53906 1.33984.35938v.53906l.08984.8086.53516.71484 1.51953.26953.89063-.08594.08984 1.16406.53516.1797 1.16015-.1797 2.05469-.98437 1.16016-.36328 1.8789-.17578 1.69531-.1797-.17968.71876-1.51563.08594-1.25.08984-.80469.26953-1.07421.8086.26953.71875.53515.89843-.17968.625-.26563.8086.26563 1.07812.625.89844.80468.17969 1.25-.1797-.26562.72267.09766.5039.05468.29297v.17188l.0586.29296v.40625l.17578.1172.35156.11718h.40625l.29297-.17578.11328-.11719.0586-.11719.11718-.23047.0586-.17578.35156-.46484.23047-.17578.17578-.0586.17578.0586.0586.17578.11718.98828.05469.46875.0586.17188.11718.23437.17578.0586.8164.05859h.28907l.11719.23437.05859.40625.0586.35156v1.10547l.11718.29297.11719.34766.28906.69922.17578.35156.58203.7539.35157.17579.17187.0586.46875.23437.64063.46484.34765.23438.29297.17578.29297.05468.23047.0625.8164.34766.29297.17578.11328.17188.35157.35156.11719.17578.52343.64063v.28906l.0586.35156v.34766l.05859.35156.0586.28906.11718.0586.17188.05859h.17578l.58203.23437.17578.1172.17578.28905.17578.23438.11328.23437.29297.23047.11719.11719v.41016l.0586.05468.28906.23438.23437.11719.0586.11718.11718.17188.0586.11719.23047.23437.05859.17578.23437.0586.1172.05859-.1172.11328-.05859.11719v.11719l-.11719.29296-.11719.28907v.58203l.17579.11719.11718.05859.0586.11719.11719.11719.11328.05859.17578.34765.0586.35157.05858.40625v.17578l-.05859.17578-.11719.69922v.17187l.1172.17579.29296.29296h.40625l.17578.1172.11719.17187.11719.29296v.23438h-.52735l-.23047-.23438h-.23437l-.17578.0586-.0586.69922.0586.34765.11719.17579.17578.41015.11718.23047.28907.46875.17578.05469h.52344l.23437.0586.75781.64062.0586.29296v.23438l.05859.0586.23047.34765v.35156l-.11719.17188v.29297l.29297.28906.29297.17578.17187.0586.29297.17577.29297.1172.58203.40624.28906.23438.29297.17578.21875.16015.01563.01172.23047.17579.64062.52343.17578.23438.1172.17578.17577.17578.11328.17188v.64062l.1172.17578.46874.11719.58203.11719.23438.05859.23047.11328.29297.11719.11328.0586.58593.35156.28907.17187.17578.0625.17578.05469.17578.0586.69922.35155.28906.17579.23438.05468.28906.17578.23437.1172.64063.40624.29297.11719.17187.0586.23438.05859.41015.05859.23047.0586.23438.11718.0586.17188-.41017.17578.46875.0586.0586.29296.11328.23438.17578.05468.23438.0586.17578.05859.40625.11719.64062.23437.11719.17188.0586.23437v.17578l-.0586.1172-.0586.40624.23438.23438.11719.05859.34766.11719.64062.23047.17578.11718.28906.1172.17578.17577.23438.46485.58203 1.10546.17578.17579.34766.17578.17578.11719.35156.11718 1.04688.52344.23437.0586.46485.11327.29297.0586.46484.17578.75781.58203.23438.23438.34765.46484.17578.17578.28907.23438.8164.69921.29297.17579.28906.28906.29297.17578.29297.28906.69531.64063.17578.17578.29297.23437.28907.23438.46875.28906.64062.58203.34766.23438.23437.29297.34766.34765.35156.46485.9336.99218.34765.40625.11719.17579.23437.05859.11328.11719.64454.17578.23047.11328.23437.0586.29297.17577.23047.1172.9336.69921.40624.40625.23438.17578.40625.17578.23437.11719.8164.34766.34766.23437.23438.11719.29297.28906.23047.11719.7578.35156.35157.17188.23047.05859.29297.11719.23437.0586.8711.17577h.8164l.46875.23047.17188.0586.875.69921.46484.1172.29297.05858.17578.0586.23047.0586.46875.05859.34766.05859.35156.0586.40625.05859h.29297l.17187.0586v.23046l.17578.17578h.29297l.34766.0586.35156.05859.69922.11719h.64063l.46484-.23438.29297-.17578.17187-.11719.41016-.17187.28906-.17578.9336-.46485.46875-.29297.52343-.29296.46485-.17188.46484-.17578 1.05078-.46485.28906-.11718.41016-.11719.28906-.11719.52735-.17578 1.51562-.69922.58203-.34765.28907-.0586.29297-.0586.34765-.11718.875-.23047.35156-.11719h.11329l.23437-.05859.875-.23437.23438-.0586h.8125l.35156-.0586.8164-.11718.17188-.0586.35156-.05468.29297-.0586.23047-.05859.8164-.17578.17579-.0586h.34765l.23438-.05859.46484-.11718.75781-.17188.23438-.0586h.34765l.41016-.11718.28906-.0586 1.28516-.05859h.28906l.41016-.0586.23047-.05858h.17578l.875-.1172h.40625l.41015-.11718h.34766l.35156-.11328.8711-.0586h1.75l1.04687.28907.41016.11719.28906.11718.35156.11719.28907.11719 1.05078.17187.28906.0586h.29297l.29297.05859.17187.0586.41016.05859.17187.0586.1172.05858h.11718l.11719.0586.35156.0586h.11328l.41016.0664 1.92187.39453 1.92578.39453 1.51953.44922 1.69532.71875 2.14453.80469 1.60547-.71875 1.42968-.80469 1.16016-1.07813 1.25-.44921 3.03516-.71875 1.875-.35938 2.14453-1.34765 2.23437-1.25391 2.5-1.25781 1.69531-.44922 1.78516-.17969 1.16016-.26953.625.53906 1.33984-.26953.71485-.98828.98437-1.34375.44531-.17969.80469-.35937 1.875-.53907 1.78516-.44921 1.25-.26954 1.16015-.08984 1.69922-.08984 1.96094-.26954 1.25-.08984h.53906l.625-.08984h.89063l2.14453-.17969 2.41015-.17969 2.58985-.08984 1.69531.17969 1.60938.08984 1.42968.35938 1.16016.71875 1.875.98828 1.16015 1.52734.26563.71484.6289.08985.35548.89844.53515.53906.53516 1.52734 1.07422.35938h.53515l-.80469.53515.08985 1.70703.71484 2.69532.89063.80468.89453.98829.71484 1.2578 1.78516.53907 1.51953-.17969.35547 1.34375 1.60937-.80469.98047-.53906.26953.26953.31641-.21484.21875-.14453.80078.44922.44922-.35938h.35547l.53515-.26953.53907-.71875.53515-.26953.625-.98828 1.16016.44922.83984.3711 1.39454.61718 1.6953-.17969h1.60548l1.78515.08985.17969-1.70704.53516-1.34375.80468.26954.4922.84765.40233.40625-.08984.53906v.35938l.71485.44922.71093-.26953h1.42969l.35938.98828.4453 1.25781.71485 1.34375 1.25.6289 1.69531.62891.71485-.17969.17969-.53906.98046-.08984.44922.35937.08594 1.25782-.26563.6289-.53515.17969v.53906l.71484.98438.26563.53906.98437.98828.80078 1.07813-.26562.35937-.08985.89844-.625 2.33203-.35546 2.0664-.08985 1.79298-.17969.71875-.08984.53906v1.4375l-.98047 1.88281-.35937 1.70703-.53516.89844-.80469 1.16797-.26562.53906 2.05469 1.2539.08593.35938-.35546.53906-.08985-.17968v.80859l.08985 1.4375-.44532.71484-1.07422.09375-.26562.71485.53515.89844.8047.71875 1.16015.80859 1.33984.26953.44531.35938-.35546.44921-1.78907-.08984-1.25-.44922-.71484-.71875-.625-.08984-.17578 3.58984-.1875 1.3086h89.35937V311.70313h-55.26953v49.08203l.76172.125 3.28906.54296 2.02344 2.83594v2.7539l2.35156.33204 2.34766.33203h4.05078l-1.3789 4.16016-2.02344.70703-2.02344.70312-.54297.34375-2.59375 1.6172-.1875.11718-2.02344-2.07813-.73046-2.74218-2.67188-2.07813-1.375-3.5-.0664-.08203-1.95704-2.67188 2.75-1.41796v-49.08204H294.42187v91.41407l.1172.03125.1328.01172.07422.07421.10547.04688.08985.0586.08593.05859.08985.0586.29687.29687.0586.08984.03125.11719.02734.11719.01563.13671-.03125.1172-.0586.08983-.0586.08594-.04296.10547-.04688.10156-.02734.1211v.14453l.17578.26953.14844.14844.07422.08594.07422.07421.04296.10547.0625.08985.0586.08593.04297.10547.0586.08985.04687.10156.04296.10547.0586.08594.11719.17968.07421.07422.0625.08594.0586.08984.04297.10547.0586.08985.05858.08593.0625.08985.0586.08984.04297.10156.11719.17969.07421.07422.0586.08594.07422.07421.08984.0586.10547.04687h.14844l.1328-.01562.13282.01562.10156-.04687.07422-.07422.04688-.10156-.01563-.13281v-.14844l-.04687-.10547-.02735-.11719-.04687-.10156-.02735-.1211-.04296-.10156-.0625-.08984-.04297-.10156-.04297-.10547-.03125-.11719-.01563-.13281-.01171-.13672.08593-.0586.0586-.08593.12109-.03125.04297.10547.01562.1328v.1172l.0586.10156.0586.08984.08983.0586.14844.14843.0586.08985.04296.10547-.01171.10156.08593.0586.10547.04687.08594.0586.08984.05858.07422.07422-.11719.02735-.10546.04687-.08594.0586-.07422.07421-.0586.08985-.0625.08594-.02734.12109-.04687.10156-.04297.10547-.03125.11719-.01172.13281-.01563.13281v.14844l.02735.11719.04687.10547.04297.10156.0586.08984.07421.07422.08985.0586.07422.07421.08984.0586.0586.08984.04296.10547.04688.10156.11719.03125.1328.01563h.14845l.11718-.03125.10547.04297.04297.10547.04688.10156.02734.1211L299.5 410l.02734.11719.03125.1211.02735.11718.10547.04297.10156.04687.13281-.01562.14844.14844.0625.08593.07422.07422.07031.07422.08984.0625.10547.04297.10156.04297.1172.03125.13671.01562.11719-.03125.07422-.07422.02734-.11718-.01172-.13282-.03125-.12109-.02734-.11719.04297-.10547h.11719l.08984.0625.11719.02735h.14843l.13282.01562h.14843l.13282.01563.1328-.01563h.14845l.1328-.01562.13282-.01172.13672.01172.11719-.02735.13281-.01562.1914-.0586-.05859.17579-.01562.1328-.02735.1211-.01562.13281-.0586.08594-.1328.01563-.10548.04687-.10546.04297-.1172.03125-.11718.02735-.26563.03125h-.14843l-.13281.01562-.07422.07422.05859.08594.14844.14843.11719.1797.07421.0703.08985.0625.08984.0586.08594.0586.08984.05858.10156.04297.10547.0625.10547.04297.08594.0586.10547.04687.10156.04297.17969.11719.0586.08984-.04298.10156-.04687.10547.01562.13281.22266.22266.0586.08985.04296.10156.03125.1211.04297.10155.01563.13282.03125.11718.01171.13672.03125.11719.14844.14844.10156.04297.10547.04296.1172.03125.1328.01563.13672.01563h.11719l.11719-.03125.08984-.0586.04297-.10547.04688-.10156.04296-.10547.03125-.11719.01172-.1328v-.14845l-.01172-.1328-.01562-.13282-.03125-.11719-.04297-.10547-.04688-.10547-.04296-.10156-.04297-.10547-.01563-.13281.01563-.13281.02734-.11719.03125-.11719.02735-.1211.04687-.10155.08984-.0586.08594-.0625.07422-.07422.08984-.05859.22266-.22266.0586-.08593.07421-.07422.11719-.17969.0586-.08594v-.14844l-.07423-.07421-.10156-.04688-.10547-.04297-.10156-.04297-.0586-.08984-.04687-.10547-.02734-.11719.08984-.05859.11719-.03125.10156-.04297.17969-.11719.14844-.14843.01172-.13282-.01172-.10546-.08985-.0586-.1328.01563h-.14845l-.1328.01562-.13282-.01562-.1211-.03125-.08593-.0586-.07422-.07422-.0586-.08984-.0625-.08594-.11718-.17969-.0586-.08593.03125-.1211.08594-.05859.1211-.03125.05859-.08594v-.1211l-.03125-.11718-.0586-.08984-.05859-.08594-.04687-.10547-.02735-.11719-.01562-.1328.0586-.08985.07421-.07422.08984-.0586.1172-.17968.07421-.07422.0586-.08594.14843-.14844.1211-.03125.1328-.01562.13282.01562.07422.07422.04297.10547.01562.13281-.03125.1172-.11719.03124-.1328.01172-.14844.14844-.04297.10547-.04688.10156-.02734.1211-.03125.11718v.14844l.03125.11719.04297.10546.05859.08985.07422.07031.07422.07422.11719.03125.12109.02734.11719-.02734.1328-.01563h.1172l.08984.0586.07422.07422.04687.10546.0586.08594.10156.04688.13281.01562.10547.04297.08594.0586-.01172.10546-.07422.07422-.17969.11719-.05859.08984-.08984.0586-.07032.07422-.07421.07421-.0625.08985-.02735.11719-.01562.1328.01562.13282-.01562.13281v.14844l.01562.13281.02735.1172.03125.12108.07421.07422.08985.0586.08594.0586.08984.05858.11719.03125v.08594l-.10157.04688-.08984.0586-.26563.03124-.11718.02735h-.14844l-.10547.04296-.10156.04688-.0586.08984-.0625.23438-.01171.13281-.03125.1211-.01563.1328v.29298l-.01172.1328.01172.13673.01563.1328.1328.01563.13282.01172.1211.03125.08593.0586.07422.07421.04688.10547.04296.10157.01563.1328v.44532l-.01563.13281v.44532l.03125.26562.02735.11719.01562.13281.03125.11719.08594.21094.03125.26562v.14844l-.03125.11719-.02734.11718-.03125.1211-.02735.11719-.03125.11718-.03125.1211-.01171.1328-.01563.13282.08984.0586.1172-.03125.10155.01562.04688.10547-.03125.26562v.44141l-.04297.10547-.04688.10547-.04296.10156-.04297.10547-.0586.08594-.03125.12109-.04296.11719-.03125.11719-.01563.1328.01563.13282.05859.08984.10547.04688.08594.0586.05859.08593-.01172.13672-.03125.11719-.04297.10156v.44531l-.01562.13281v.14844l-.03125.11719-.04297.10547-.02735.11719-.04687.10546-.04297.10157-.03125.12109-.02734.11719-.03125.13281-.03125.11719-.02735.11719-.04297.10546-.03125.1172-.03125.12108-.01171.13282-.01563.13281v.29688l.02734.11718v.14844l.04688.39844.02734.11719.0586.08984.12109.03125h.14844l.13281-.01563.0586.08985v.11719l-.0586.08984-.08984.0586-.10157.04296-.10546.04688-.08985.05859-.08594.0586-.13671.01562-.1172-.03125-.1328-.01563-.10157.04688-.0625.08594-.01172.13671-.01562.13282-.03125.11719-.02735.11718-.01562.13281-.03125.1211v.29687l.01563.13282.03125.11718v.14844l.01171.13281v.14844l-.02734.11719-.04688.10156-.02734.1211-.03125.11718-.0586.08985-.07421.07421-.10156.04297-.10547.04688-.11719.02734-.1211.03125-.10156-.04687.0586-.08594.10547-.04688.02734-.11718.03125-.11719.02734-.1211.03125-.11718v-.14844l.01563-.13281-.03125-.11719-.04297-.10547-.10547.01563-.07422.07422-.10156.04296-.08984.0625-.07422.07422-.04297.10157-.01563.1328-.03125.1172L304.25 426l-.03125.11719-.02734.11719-.03125.12109-.02735.11719-.03125.11718-.04297.10547-.08984.0586h-.08984l-.1172-.03125-.03124-.08594.01562-.13672-.03125-.11719v-.14844l-.01171-.1328v-.14844l-.0625-.23438-.02735-.1211-.04297-.10156-.04687-.10546-.0586-.08594-.05859-.08985-.04297-.10546-.0625-.08594-.14844-.14844-.0703-.07422-.10548-.04687-.10547-.04297-.10156-.04297-.29687-.29688-.08985-.07421-.08594-.0586-.10546-.04297-.08985-.0625-.08594-.0586-.10546-.04296-.08985-.0586-.08594-.0625-.07421-.0703-.10547-.04688-.08594-.0586-.10547-.04296-.08984-.0625-.10156-.04297-.10547-.04297-.08594-.0586-.10547-.04687-.10547-.04297-.10156-.04687-.08985-.0586-.10156-.04297-.10547-.04296-.08984-.0625-.11719-.02735-.13281-.01562-.13281.01562H299.75l-.13281.01563-.11719-.03125-.08984-.0586-.07422-.07422-.08985-.05859-.10156-.04688h-.14844l-.12109-.02734-.10156-.04297-.07422-.07422-.11719-.17968-.08984-.0586-.10156-.04297-.08985-.0625-.10547-.04296-.08984-.0586-.08594-.0586-.10547-.04687-.0586-.08594-.05858-.08984-.04297-.10547-.04688-.10156-.07422-.07422-.08594-.0586-.07421-.07421-.08985-.0586-.22265-.22265-.04297-.10547-.03125-.26563.10547-.04296h.14453l.10547.04296.07421.07422.08985.0586.08594.0586.10546.04687.08985.05859.14844.14844.0703.07422.14845.14843.0625.08594.07421.07422.08594.0586.07422.07421.08985.0625.08984.0586.08594.05859.26953.17578.10156.04688.10547.04296.10156.04297.04688-.07421.05859-.08594.07422-.07422.07031-.07422.10547.04297.07422.07422.0586.08984.04296.10156.04688.10547.04296.10547.1211.02735.11719-.02735.07421-.08984.04297-.10547.0586-.08985.07422-.07421.10546-.04297.1172-.02735.1328.01172.08985.0586.14844.14843.05859.08985.04297.10547.04687.10156.04297.10547.04297.10156.10547.04688.10547.04296.13281.01563.08594-.0586.0586-.08984.07421-.07422.10547-.04297.11719.02735.10547.04687.10156.04297.10547.04297.10156.04688.17969.11718v.11719l-.01563.13281.01563.13281.01562.13672.0586.08594.10156.04688.1211.02734.11718.03125h.14844l.11719-.03125.05859-.08984.17969-.1172.05859-.08983.07422-.07422.0586-.08594.11718-.17969.17969-.11719.11719.03125.08984.0586.04297.07422-.01563.1328v.1172l.08985.05859h.14843l.13282-.01563.1328-.01171.26563-.03125.10547-.04297.11719-.03125.1211-.02735.07421-.07421.07031-.07422.0625-.08985-.01562-.10547-.04688-.10156-.10156-.04297-.10547-.01562-.11718.02734-.26563.03125h-.14844l-.07421-.07422-.08985-.0586-.11719-.03124-.11718-.02735-.13282-.01562h-.14843l-.13282.01563h-.29687l-.10547-.04688-.14844-.14844-.04297-.10156-.05859-.08984.22266-.22266.08593-.0586.10547-.04296.11719-.03125.13281-.01563.13281.01563.13672.01562.10157.04297.1328-.01172.08985-.0625.10156-.04297.0625-.08984-.04687-.10156-.08984-.0586-.1172-.03125-.10155-.04296-.0586-.08985-.0625-.08984v-.11719l.01563-.13281.10547-.04688.07421-.07031v-.1211l-.08984-.05859-.03125-.11719.08985-.05859.07421-.07422.04297-.10547.0586-.08984.04687-.10156.01563-.13281v-.14844l-.04688-.10547-.04297-.10156-.08984-.0586-.13281-.01562-.10157-.04297-.13671-.01563-.1172-.03125h-.4453l-.13282-.01562-.13281-.01172-.13281-.01563-.11719-.03125h-.14844l-.13281-.01562-.13281-.01172-.26563-.03125-.1211-.04297-.08593-.0586-.07422-.07421v-.14844l.01172-.13281.10547-.04688.10156-.04296.13281-.01563h.15235l.13281-.01562h.29297l.1211.03125.10156.04296.08984.0586.23438.0625.12109-.04688.08984-.05859.10156-.04297.13282-.01562.10547.04296.10156.04688.13281.01172.1211-.02735h.14453l.12109-.03125.11719-.02734.10547-.04687.07421-.07422.08594-.0586.14844-.14843.0586-.08594.04687-.10547.02734-.11719.01563-.10547-.10156-.04296-.08985-.0586-.11719-.03125-.10546-.04297-.08985-.0625-.07422-.08594-.07422-.07421-.10156-.04297-.10547-.04688-.10156-.04297-.0586-.08984-.04687-.10156-.08594-.21094-.0625-.08594-.05859-.08984-.07422-.07422-.08594-.0586h-.26953l-.11719.03126-.08984.05859-.10156.04297-.13281.01562-.10547-.01562-.02735-.11719-.0625-.08984-.11718-.03125-.10157-.04297-.14843-.14844-.03125-.11719-.01563-.10546.07422-.07422.17969-.1172.11719-.02733.11718-.03125.13672.01562.10156.04297.10547.04297.10156.04687.10547.04297.1172.03125.1328.01563.1172.02734.1328.01563.10547-.01563.08985-.0586-.07422-.07421-.10547-.04297-.07422-.07422-.07422-.08984-.14844-.14844-.08593-.0586-.08985-.05859-.07422-.07422-.08984-.0586-.10156-.04687-.1211-.02734-.10156-.04688-.10547-.04296-.11719-.03125-.10156-.04297-.1211-.03125h-.14843l-.11719.03125-.10546.04297-.08594.0625-.17969.11718-.08594.0586-.08984.0586-.10547.04687-.08594.05859-.10547.04297-.10156.04297-.10547.04687-.07422.07422-.05859.08985-.0586.08593-.04687.10547-.0586.08594-.07421.07422-.13281-.01172-.1172-.03125h-.11718l-.07422.07422-.08984.0586-.07422.07421-.08984.0586-.08594.05859-.10547.04687-.10156.04297-.13672.01563-.10156-.04297-.14844-.14844-.10547-.04688h-.08594l-.10547.04688-.10156.04297-.1211.03125-.11718-.03125-.07422-.07422v-.11719l.03125-.1211.07422-.0703.0586-.08985.07421-.07422.11719-.03125.10547-.04296h.29297l.13281-.01563.13672-.01563.10156-.04296.08985-.0586.10156-.04687.08984-.0586.13281-.01171.08985.05859.13281.01172.08984-.0586.08594-.05859.10547-.04297.08984-.0586.08594-.0625.08985-.05859.14843-.14843.0586-.08594.05859-.08985.10547-.04296.13281-.01563.11719.02735.1211.03125.05859-.0586.05859-.08984.03125-.26563.02734-.11719.10547.01172.13281.01563.10157-.04297.08984-.0586.0586-.08984.07421-.07422.0586-.08984.04687-.10156.01172-.13281-.01172-.13282-.04687-.10547-.14844-.14843-.0586-.08985-.05859-.08594-.04297-.10546v-.44532l.01563-.1328v-.14845l.01172-.1328-.0586-.0586-.08984.0586-.10156-.04298-.17969-.11719-.08594-.05859-.0625-.08984-.0586-.08985-.07421-.07421-.08594-.0586-.1211.03125-.10155.01172-.10547.04688-.08594.05859-.10547.04297-.14844.14844-.08984.05859-.08594.0586-.08984.0625-.10547.04296-.13281.01563v-.1211l.10547-.04297.11718-.03125.07422-.0703.04297-.10548v-.14844l-.02734-.11718-.14844-.14844-.13281-.01563h-.14844l-.11719.03125-.10547.04297-.10156.04297-.08984.0625-.11719.02735-.07422-.07422.01172-.13281-.04297-.10157-.04297-.10547-.08984-.05859-.11719.02734-.1211.03125-.11718.03125-.10156.04297-.1211.03125-.10156.04297-.10547.04297-.08984.0586-.10156.01562v-.11719l.01562-.13281-.0586-.08985-.07421.04297-.14844.14844-.0586.08985-.07421.07421-.04688.10547-.04296.10156-.07422.07422-.0586.08985-.07422.07422-.05859.08593-.07422.07422-.08984.0625-.07422.07031-.07422.07422-.10156.01563-.13281.01562-.10547-.04296v-.1211l.14843-.14844.04297-.10156.0586-.08984.04687-.10156.04297-.10547.0586-.08985.03124-.11719.04297-.10156.03125-.1211.02735-.11718.04687-.10547.04297-.10156.04297-.10547.07422-.07031.08984-.0625.08985-.0586.10156-.04296h.29687l.26563-.03125.10547-.04297-.07422-.07422-.11719-.03125-.10547-.04297-.08984-.0586-.10156-.04687-.08985-.0586-.10156-.04296-.10547-.04297-.08984-.0625-.08594-.0586-.10547-.04296-.10156-.04297-.1211-.03125-.11718-.03125-.10157-.04297L297.5 410.25l-.10156-.04297-.08985-.0586-.04296-.10546-.01563-.13281.10156-.04297.13281-.01563.13672.01563.13282-.01563.10156-.04297.0586-.08984.01562-.10547-.08985-.0586-.07421-.07421-.10157-.04297-.08984-.0586-.14844-.14843-.04297-.10547-.01562-.13281v-.29297l-.0586-.08985-.08984-.05859-.07422-.07422-.04297-.10547-.03125-.11718-.0586-.08985-.07421-.07422-.11719-.02734-.07422-.07422-.08984-.0586-.08984-.0625-.08594-.05859-.07422-.07421-.0586-.08594-.04687-.10547-.08594-.0586-.14843-.14843-.19532-.0586-.1328.01563-.10157.04297-.07422.07422-.04688.10156-.04296.10547-.0586.08984-.0586.08594-.29687.29687-.08984.0586h-.08594l-.0625-.08594-.04297-.10547.03125-.11719.0586-.08984.02734-.11719-.01172-.13281-.08984-.0625-.10547.04688-.11719.02734-.11719.03125-.26953.17578-.10156.04688-.11719.02734-.10546.04687-.08985.0586-.10156.04297-.0586-.08594-.04687-.10547.01563-.13281.04687-.10547.07031-.07422.07422-.07031.0586-.08985v-.14843l-.04297-.10547h-.23829l-.10156.04687-.03125.11719-.02734.11719-.03125.1211-.07422.04296-.13281.01563-.07422-.04688-.04297-.10156-.04297-.10547-.04687-.10156-.04297-.10547-.1211.03125-.10156.04297-.13281.01562-.11719.03125-.10547.04297-.08984.0586-.10156.04687-.1211.02734-.13281.01563-.10156-.04297-.0586-.08985-.04687-.10546-.04297-.10157-.04297-.10546v-.1172l.0586-.08984.08593-.05859.17969-.11719.10156-.04687.10547-.04297.10547-.0586.10156-.04296.08985-.0625.10156-.04297.10547-.0586.10156-.04687.08984-.0586.10547-.04296.10156-.04297.08985-.0625.10156-.04297.13672-.01563.11719.03125.10156.04297.1211.03125.10156.04297.10546.04688.10157.04296.10547.04297.10156.04688.10547.04297.10156.04297.10547.04687.08594.0586.10546.04296.1172.03125.10546.04297.10156.04688.08985.0586.10547.04296.10156.04297.10547.04687.11719.02735.10156.04687.1211.02735h.14843l.08594-.0586.01562-.10156.0586-.08984-.02735-.1172-.07422-.07421-.11719-.17969-.07421-.07422-.08985-.07421-.17969-.1172-.08593-.05859-.10547-.04296-.10156-.04688-.26954-.17578-.05859-.08985-.07422-.07421-.0586-.08985-.04296-.10156-.03125-.11719-.01563-.13672v-.5625l-.01171-.1328-.01563-.13282-.03125-.11719-.01562-.13281-.01172-.13281-.03125-.1211-.22266-.22265-.0586-.08594-.01562-.10547.03125-.11719.13281-.01562v-91.41406H172.9922v1.45312l-.0586.23438-.35156 1.05078-.17187.52343-.1172.34766-.17577.41016-.11719.17187-.23438.29297-.23046.0586h-.35157l-.11718.05859-.23047.40625v.29297l.11719.17578.23046.23047.1172.23437.64062.75781.29297.46485.17578.23437.23047.35156.23437.34766.64063.8164.17578.46485.17187.41016.11719.69531.17578.46875.11719 1.39844.0586.46484v.875l.11718 1.04688v4.78125l-.0586.46484-.35156 1.28125-.17578.52344-.11328.41015-.35156.9297L172.93359 336l-.23437.58203-.11719.17578-.17187.34766-.17578.40625-.35157.8164-.0586.29297-.11327.29297-.11719.28906-.0586.17579-.11718.875-.0586.40625-.05859.11718-.0586.17579-.05859.17187-.23047.52734-.11718.17188v.23437l-.11719.23438-.0586.17187-.17577.58594v.28906l-.0586.17579v.29296l-.0586.11329-.05859.52734v.17187l-.05468.23438v2.6211l-.17578.8164-.1172.17578-.17577.23438-.1172.17187-.11327.23438-.58594.93359-.23047.28906-.29297.46485-.17578.23437-.28906.35156-.35156.69922-.11328.23047-.17579.41016-.17578.23046-.40625.52735-.8164.69922-.29297.17187-.28906.23438-.17579.11719-.17578.17578-.52344.40625-.52734.17578-.17187.17578-.23438.05469-.64062.17578h-.75782m12.21094 31.02344l-1.07422.44921.35938.89454 1.25-.71485.44531-.53906-.98047-.08985"/><path fill="#d3d3d3" fill-opacity="0" fill-rule="evenodd" d="M201.50781 416.59766h-.89453l.44922.6289.98047.35938.80469-.08985.4453-.98828-.17577.08985-.71485-.35547-.89453.35547m154.6211 59.0703l-.0586-.52343v-.29297l.11328-.29297.0586-.23046.46875-.46875h.11328l.11719-.11329.11718-.05859h.17579l.23437-.0586h.34766l.23437.0586.11719.0586.23047.17187.0586.17578.11718.58203v.29297l-.11719.17578-.17187.28906-.17579.17579-.52734.52343-.23047.23438-.11719.0586h-.17578l-.11718-.0586-.40625-.29297-.17579-.11719-.11718-.0586-.0586-.11327-.05468-.1172m6.64062-10.95702l-.0586-.17188v-1.10937l.0586-.17188.17578-.0586.17188-.05858h.17578l.23437-.0586.1172.0586.05858.69921-.05859.17188-.11719.17578-.11718.0586-.23438.52343-.11328.0586h-.23438l-.05859-.1172m9.61328-14.39062l-.11719-.17578v-.69922l.29297-.875.1172-.17187.17577-.35156.11328-.23047.1172-.29297.35155-.75781.1172-.23047.17187-.23438h.17578l.11719-.0586h.64062l.11719.0586.23437.23438.17188.11328.35156.29297.11719.11718.11328.17579v.11328l.11719.05859.11718.11719v.69922l-.05859.17578v.23047l-.0586.17578-.34765 1.05078-.11719.23047-.11719.23437-.11718.0586-.23047.23437-.64063.28906h-.875l-.41015-.11718-.64063-.46485"/><path fill="none" stroke="#bebebe" stroke-linecap="round" stroke-linejoin="round" stroke-miterlimit="10" stroke-width=".5" d="M467.95703 311.69531H144.02734v168.625h323.9297v-168.625"/><g clip-path="url(#a)"><path fill="#fff" fill-opacity="0" fill-rule="evenodd" d="M144 475.89063v2.24218-166.46094h.0039H144v164.21875"/></g><g clip-path="url(#b)"><path fill="#50fcfc" fill-rule="evenodd" d="M144.0039 480.32813v-2.19532l2.82032 2.19531h-2.82031"/></g><g clip-path="url(#c)"><path fill="#fff" fill-opacity="0" fill-rule="evenodd" d="M144.0039 478.13281V311.67187h62.13282v99.54688l-1.47266 2.53516-2.96484.92968-3.77344 3.50782-.66406.57421-4.4414 1.08594-4.4375 1.71875-4.4375.23438-2.44532.82422-1.99219.71484-4.4414 1.23828-4.4375 1.14453-2.10547 1.34375-2.33203 2.02344-2.00782 2.41406-2.42968 2.5625-2.10938 1.875-2.32812 3.21875-1.45313 1.21875-.76953 4.4375 2.11719 4.4414-.34375 4.4375.44922.78517.5 3.65234 2.34765 4.4375 1.58985 1.32031 2.4375-1.32031 2-.64063 4.4375-.14843 4.4375-1.1172 4.4414-.11327 4.4375.38281 4.4375 1.02734 4.4375.17579 4.4414.08203 4.4375.26953 1.23829.08203 3.19922.57031 4.4375 1.61719 3.51953-2.1875.92188-.63281 4.4375-.67579 4.4375-1.85937 4.4375-.45313 2.03125-.8164 2.40625-.66797 4.4414-.8789 4.4375-.50391 4.4336-2.38672.0039-.0039 4.4375-1.73829 4.4375-.05078 4.4414-1.91016 4.4375 1.94922 4.4375-1.27734 4.03516-1.40625.40235-.35156 1.47656.35156 2.96484.42187 4.4375.14063 1.2461-.5625 3.1914-.64844 4.4375-.58594 3.32813-3.20703-3.32813-3.60547-1.26171-.83203 1.26171-.5039 3.8047-3.9336.21874-4.4375-4.02344-3.98437-4.4375-.01172-4.4375-.3086-2.09765-.1328-2.33985-1.12891-1.6953 1.1289-2.7461.52735-.33985-.52735-4.09765-3.82422-3.8125 3.82422-.625 1.09766-4.4375-.5039-4.4414.67968-3.5586 3.16406-.8789.76172-.72657-.76172-3.71094-4.03125-3.9336-.40625-.5039-.96484-1.76562-3.47656-2.67188-2.30079-2.5039-2.13671-1.9375-.63282-4.4375.375-.62891.25782-3.8086.12109-2.54296-.1211-1.89453-1.01562-4.4375.20703-4.44141-1.34765-2.34766-2.28125-2.08984-2.53516v-99.54688h150.90625v120.27735l-4.4414.17578-4.4375 1.8164-1.94141 2.00391 1.9414 1.8125v38.1289l-.0039.00392.0039.0039.0039-.0039-.0039-.00391v-38.1289l1.76563 2.625 2.67187 2.67187 4.4414 1.17187 4.4375-.8789 4.4375-.54297 2.87892-2.42188-2.87891-2.57031-4.4375-.375-.95703-1.49219-3.48047-3.9961V311.67189h22.1914v122.71875l-1.79687 1.55468-2.64453 1.53516-2.01563 2.90234 2.01563 2.57031 1.04687 1.8672-1.04687 3.78124-.33594.66016-2.5625 4.4375-1.53906 3.30469-.40625 1.1328-.3164 4.4375.72265.72267 2.3164-.72266 2.1211-1.92578 3.82031 1.92578.6211.125.30078-.125 4.13671-3.40625.64063 3.40625 3.79688 4.01172 4.4375.36328 4.4375-.60156 1.55859.66796 2.88281 3.12891 2.875-3.1289 1.5625-.50391 4.4375-.48047 3.54297-3.45703-3.54297-3.96094-4.4375-.21875-4.4375.125-4.4414.36719-2.40235-.75-.82422-4.4375 2.59375-4.4375-2.89453-4.4414-.91015-.9922-4.4375-1.91796-4.4336-1.52735.39844-4.4375-.40235-.45312-4.4375-1.10156V311.67188h88.76172v168.65625h-63.26953l-.05078-4.4375-3.25-3.69532-4.4414 3.02344-.64844-3.76563-3.78906-4.20703-4.4375 1.41016-1.625 2.79688-2.8125 1.40625-3.58985 3.03125 3.58985 2.85937 3.48828-2.85938.94921-2.23437 4.4375 1.71484 3.61329.51954.82421.51562.8672 3.92188H227.05858l-3.16797-2.53907-4.4375.15625-2.24218 2.38281h-70.38672l-2.82031-2.1953"/></g><path fill="#50fcfc" fill-rule="evenodd" d="M157.21094 449.26172l-2.11719-4.4414.76953-4.4375 1.45313-1.21876 2.32812-3.21875 2.10938-1.875 2.42968-2.5625 2.00782-2.41406 2.33203-2.02344 2.10547-1.34375 4.4375-1.14453 4.4414-1.23828 1.99219-.71484 2.44531-.82422 4.4375-.23438 4.4375-1.71875 4.4414-1.08594.66407-.57421 3.77344-3.50782 2.96484-.92968 1.47266-2.53516v3.73828l-1.16016 3.23438 1.16016.7539 3.17969-.7539-3.1797-3.23438v-3.73828l2.08985 2.53516 2.34766 2.28125 4.4414 1.34765 4.4375-.20703 1.89454 1.01563 2.54297.12109v1.03125l-4.4375.42578-4.4375 1.77735-2.23829 1.08203-2.20312 1.21875-2.8164-1.21875-1.6211-.53907-4.4375-2.4375-3.41406 2.97657-1.02344 1.38671-2.30078 3.0547-2.14063 1.16796-4.4375 1.1289-4.4375.32423-3.08594 1.8164-1.35156.1875-4.4414.07031-4.4375-.21093-3.69141 4.39062-.7461.3711-4.4375.85937-3.0078 3.20703-1.125 4.4375.16015 4.4414.1914 4.4375 1.95704 4.4375 1.82422 2.375 4.4375-1.72265 4.4375-.17969 1.6875-.47265 2.75-.64063 4.4414-.33593 4.4375.38671 2.13672.58985 2.30078.95703 4.4375 1.40234 4.4414-.48046 4.4375-.22657 4.4375.45703 4.4375.02344 2.88282-2.13281 1.5586-1.01563 4.4375-.10156 4.4375-1.14453 4.4375-.47656 3.42968-1.69922 1.00781-1.30078 4.44141-.8125 4.4375-1.54297.75781-.78125-.7578-2.11719-4.4375-.89844-4.44142.61329-4.0664-2.03907 1.79687-4.4375-.16406-4.4375 2.4336-1 1.71875 1 2.72265 2.20703 3.01953 2.23047 1.41797 3.51172 4.4375.23828 2.625-3.75 1.8125-3.16015 4.29688-1.27735.14062-.32812.03906.32812 4.40235 2.53906 2.34765-2.53906 2.08985-3.28906V435.25l-.4414.69531-3.9961 4.32031-2.8125.1172 2.8125.17577 4.4375-.05859.30078-.11719 4.13672-3.4961v4.10548l-4.4375 1.29297-4.4375.96875-4.4414 1.0078-.87892.5586.87891 1.01563 4.4414.69531 4.4375 2.2539 4.4375-1.9414 2.10157-2.02344-2.10156-3.82812v-4.10547l4.4375.3711 4.4414-.4297.62891-.8828-.6289-.48438-4.44141-.1914-4.4375.08593-4.4375-.10547v-2.59375l4.4375.28906 4.4375.21875 4.4414.6836 2.7422 2.09765-2.7422 3.84375-2.04296.59375 2.04296.77344.8086-.77344 3.6289-2.34765 4.4375 1.875 4.4375-1.8711 2.02735-2.09375.86719-4.4375-2.89454-2.86328-4.4375.34766-4.4375-.80078-4.4375.51953-4.4414 1.07422-1.75781-2.71485-2.6797-2.5039-2.49609 2.5039-1.9414 3.41016-4.4375-1.42969-4.4414 2.02735-.48048.42968-3.95703 3.4375-3.28516-3.4375-1.15234-1.2539-4.4375-.3125-4.4375-2.03125-1.1875-.83985-3.2539-3.22656-4.4375-.27734-.73438-.9375-3.70313-3.28516v-1.03125l3.8086-.1211.6289-.2578 4.4375-.375 1.9375.6328 2.50391 2.13673 2.67188 2.30078 1.76562 3.47656.5039.96484 3.9336.40625 3.71094 4.03125.72656.76172.8789-.76172 3.5586-3.16406 4.4414-.67969 4.4375.5039.625-1.09765 3.8125-3.82422 4.09766 3.82422.33985.52735 2.7461-.52735 1.6953-1.1289 2.33985 1.1289 2.09765.13281 4.4375.3086 4.4375.01172 4.02344 3.98437-.21875 4.4375-3.80469 3.9336-1.26171.5039 1.26171.83203v3.02735l-3.60156.57812 3.60156.51953.53907-.51953-.53907-.57812v-3.02735l3.32813 3.60547-3.32813 3.20703-4.4375.58594-3.1914.64844-1.2461.5625-4.4375-.14063-2.96484-.42187-1.47656-.35156-.40235.35156-4.03515 1.40625-4.4375 1.27734-4.4375-1.94922-4.4414 1.91016-4.4375.05078-4.4375 1.73828-.00392.0039-4.43359 2.38673-4.4375.5039-4.4414.87891-2.40625.66797-2.03125.8164-4.4375.45313-4.4375 1.85938-4.4375.67578-.92188.6328-3.51953 2.1875-4.4375-1.61718-3.19922-.57031-1.23828-.08203-4.4375-.26953-4.4414-.08204-4.4375-.17578-4.4375-1.02734-4.4375-.38281-4.44141.11328-4.4375 1.11719-4.4375.14843-2 .64063-2.4375 1.32031-1.58985-1.32031-2.34765-4.4375-.5-3.65235-.44922-.78515.34375-4.4375"/><path fill="#00e8fc" fill-rule="evenodd" d="M157.78125 449.26172l-.16016-4.4414 1.125-4.4375 3.00782-3.20704 4.4375-.85937.74609-.3711 3.6914-4.39062 4.4375.21094 4.44141-.07032 1.35156-.1875 3.08594-1.8164 4.4375-.32422 4.4375-1.1289 2.14063-1.16798 2.30078-3.05469 1.02344-1.38671 3.41406-2.97657 4.4375 2.4375 1.6211.53907 2.8164 1.21875 2.20312-1.21875 2.23828-1.08204 4.4375-1.77734 4.4375-.42578v1.71484l-4.41406 1.57032 2.78906 4.4414-2.8125 2.04688-4.4375-1.38672-3.20312 3.77734-1.23828 1.6914-3.69531-1.6914-.7422-.5664-.88671.5664-3.55078.375-1.84766-.375-2.58984-.73828-1.39844.73828-3.04297.96875-4.4375.99219-4.4375-.32422-4.4375.28125-4.4414 1.36328-2.73047 1.15625-1.70703.7539-4.4375 2.03126-4.4375 1.33984-.29688.3125-3.05078 4.4375.16406 4.4414.5586 4.4375 2.625 3.66017 4.4375-1.13282 4.4375-.77344 3.60156-1.7539.83594-.32031 4.4414-.48047 2.82813.80078 1.60937.67187 4.4375 1.46094 3.13672-2.13281 1.30078-.95703 4.4414.13672 4.4375-.07032 4.4375-1.6953 4.4375-1.76563 1.5547-.08594-1.5547-1.89063-.09765-2.55078.09766-.10547 4.4414-3.44921.55079-.88282 3.88672-2.22265 4.4375.41015 1.33984-2.625.08594-4.4375 3.01172-3.32031v2.63672l-.6172.6836.6172 2.1289.80078-2.1289-.80078-.6836v-2.63672l3.90234 3.32031.53516.50781 4.4414 2.35157 3.46875 1.57812.96875.65235 2.45313-.65235-2.45313-.70703-1.99219-3.73047-2.4453-1.63672-3.95313-2.80078-.48828-.48437-4.4375-.5625-2.66797-3.39453-1.76953-1.57032v-1.71484l3.70312 3.28516.73438.9375 4.4375.27734 3.2539 3.22656 1.1875.83985 4.4375 2.03125 4.4375.3125 1.15234 1.2539 3.28516 3.4375 3.95703-3.4375.48047-.42969 4.4414-2.02734v2.3164l-.27734.14063.27735 1.30078.33594-1.30078-.33594-.14062v-2.3164l4.4375 1.42968 1.9414-3.41016 2.4961-2.5039v2.20312l-.30078.30078.30078.77735.32422-.77735-.32422-.30078v-2.20312l2.67969 2.5039 1.7578 2.71485 4.44141-1.07422 4.4375-.51953v1.64843l-3.92578 1.66797 3.92578 2.92969 2.17579 1.50781 2.26171 1.39063 2.79297-1.39063 1.64453-1.65234 1.00782-2.78516-1.00782-1-4.4375.95313-4.4375-1.6211v-1.64843l4.4375.80078 4.4375-.34766 2.89454 2.86328-.8672 4.4375-2.02734 2.09375-4.4375 1.8711-4.4375-1.875-3.6289 2.34765-.8086.77344-2.04296-.77344 2.04296-.59375 2.7422-3.84375-2.7422-2.09765-4.4414-.6836-4.4375-.21875-4.4375-.28906-2.08985 3.28906-2.34765 2.53906-4.40235-2.53906-.03906-.32812-.14062.32812-4.29688 1.27735-1.8125 3.16015-2.625 3.75-4.4375-.23828-1.41797-3.51172-3.01953-2.23047-2.72266-2.20703-1.71875-1-2.43359 1 .16406 4.4375-1.79687 4.4375 4.0664 2.03906 4.44141-.61328 4.4375.89844.75781 2.11719-.7578.78125-4.4375 1.54297-4.44142.8125-1.0078 1.30078-3.4297 1.69922-4.4375.47656-4.4375 1.14453-4.4375.10156-1.55859 1.01563-2.88281 2.13281-4.4375-.02344-4.4375-.45703-4.4375.22656-4.4414.48047-4.4375-1.40234-2.30079-.95703-2.13672-.58985-4.4375-.38671-4.4414.33593-2.75.64063-1.6875.47265-4.4375.1797-4.4375 1.72265-1.82422-2.375-1.95703-4.4375-.19141-4.4375"/><path fill="#00d4fc" fill-rule="evenodd" d="M158.57031 449.26172l-.16406-4.4414 3.05078-4.4375.29688-.3125 4.4375-1.33985 4.4375-2.03125 1.70703-.7539 2.73047-1.15626 4.4414-1.36328 4.4375-.28125 4.4375.32422 4.4375-.99219 3.04297-.96875 1.39844-.73828v3.58203l-4.4414 1.16797-1.71485.42578-2.72266.20313-1.95703-.20313-2.48047-.61328-4.4375-.17578-1.88281.78906-2.5586.89453-4.4375 3.02735-1.51562.51562-2.92187.125-4.4375.82813-2.5625 3.48437.16797 4.4414.92578 4.4375 1.46875 2.04688 4.4375-1.69921 1.25-.34766 3.1875-1.03125 4.4375-1.60156 4.4414-.31641 4.4375.47266 4.4375 1.40234 4.4375-3.00781.89063-.35547 3.55078-2.47656 3.40234-1.96485-3.40234-4.1875-.07813-.25.07813-.1914 4.4375-2.28125.8789-1.96485-.8789-.47656-4.4375-1.11719v-3.58203l2.58984.73828 1.84766.375 3.55078-.375.88672-.5664.74219.5664 3.6953 1.6914 1.23829-1.6914 3.20313-3.77734 4.4375 1.38672 2.8125-2.04688-2.78907-4.4414 4.41406-1.57032 1.76954 1.57032 2.66797 3.39453 4.4375.5625.48828.48437 3.95312 2.80078 2.44531 1.63672 1.9922 3.73047 2.45312.70703-2.45313.65235-.96875-.65235-3.46875-1.57812-4.4414-2.35156-.53516-.50782-3.90234-3.32031-3.01172 3.32031-.08594 4.4375-1.33984 2.625-4.4375-.41015-3.88672 2.22265-.55078.88281-4.44141 3.44922-.09766.10547.09766 2.55078 1.55469 1.89063-1.5547.08594-4.4375 1.76562-4.4375 1.69531-4.4375.07032-4.4414-.13672-1.30078.95703-3.13672 2.13281-4.4375-1.46094-1.60937-.67187-2.82813-.80078-4.4414.48047-.83594.3203-3.60156 1.75392-4.4375.77343-4.4375 1.13281-2.625-3.66015-.5586-4.4375"/><path fill="#00c4fc" fill-rule="evenodd" d="M159.35938 449.26172l-.16797-4.4414 2.5625-3.48438 4.4375-.82813 2.92187-.125 1.51563-.51562 4.4375-3.02735 2.55859-.89453 1.88281-.78906 4.4375.17578v1.09766l-4.4375.08984-4.4414 1.77344-2.8047 2.08984-1.6328 1.03125-4.4375-.51562-4.4375 1.50781-1.77735 2.41406.17188 4.4414 1.29297 4.4375.3125.4336 1.07422-.4336 3.36328-1.28515 4.4375-2.28906 2.69922-.86328 1.73828-.42969 4.4414-.22656 4.4375-.01172 4.4375.09766 4.4375-2.47657 1.73047-1.39453-.86719-4.4375-.86328-.98828-4.4375-2.33594-4.4375-.6289v-1.09766l2.48047.61328 1.95703.20313 2.72266-.20313 1.71484-.42578 4.4414-1.16797 4.4375 1.11719.87892.47656-.87891 1.96485-4.4375 2.28125-.07813.1914.07813.25 3.40234 4.1875-3.40234 1.96485-3.55078 2.47656-.89063.35547-4.4375 3.00781-4.4375-1.40234-4.4375-.47266-4.4414.3164-4.4375 1.60157-3.1875 1.03125-1.25.34765-4.4375 1.69922-1.46875-2.04687-.92578-4.4375"/><path fill="#00b8fc" fill-rule="evenodd" d="M160.14844 449.26172l-.17188-4.4414 1.77735-2.41407 4.4375-1.50781 4.4375.51562 1.6328-1.03125 2.8047-2.08984 4.4414-1.77344 4.4375-.08984v.67578l-4.4375.46875-4.4414 2.16797-.85938.64062-3.57812 2.26563-4.4375-1.35547-4.4375 2.17969-.9922 1.34765.17579 4.4414.8164 2.60157 4.4375-.98047 2.73829-1.6211 1.69922-1.21093 4.4375-1.16797 4.4414-.40625 4.4375.34766 4.4375-1.23047 1.3086-.77344 2.14453-4.4375-3.45313-2.41015-4.4375-.8672v-.67577l4.4375.6289 4.4375 2.33594.86328.98828.8672 4.4375-1.73048 1.39453-4.4375 2.47657-4.4375-.09766-4.4375.01172-4.4414.22656-1.73828.42969-2.69922.86328-4.4375 2.28906-3.36328 1.28516-1.07422.4336-.3125-.4336-1.29297-4.4375"/><path fill="#00a8fc" fill-rule="evenodd" d="M160.9375 449.26172l-.17578-4.4414.99219-1.34766 4.4375-2.1797 4.4375 1.35548 3.57812-2.26563.85938-.64062 4.4414-2.16797 4.4375-.46875v.67578l-4.4375.84375-3.32812 1.75781-1.11328 4.01953-4.4375-.51953-4.4375-2.19922-4.4375 2.85938-.20703.27734.17968 4.4414.02735.08985 4.4375.0039.16015-.09374 4.27735-3.04297 4.4375-1.28125.91797-.11719 3.52343-.52344 2.82031.52344 1.6172.23047.64843-.23047 3.78906-1.39062 2.14844-3.04688-2.14844-1.5-4.4375-1.10156v-.67578l4.4375.86719 3.45313 2.41015-2.14453 4.4375-1.3086.77344-4.4375 1.23047-4.4375-.34766-4.4414.40625-4.4375 1.16797-1.69922 1.21094-2.73828 1.6211-4.4375.98046-.81641-2.60156"/><path fill="#009800" fill-rule="evenodd" d="M161.72656 449.26172l-.17969-4.4414.20704-.27735 4.4375-2.85938v.39454l-4.01563 2.74218 4.01563 3.91406 4.29297-3.91406-4.29297-2.74219v-.39453l4.4375 2.19922 4.4375.51953 1.11328-4.01953 3.32812-1.75781 4.4375-.84375v.67578l-4.4375 1.22266-1.33203.70312 1.33203 1.57031 4.4375 1.82813 4.4375-2.20313.84375-1.1953-.84375-.58594-4.4375-1.33985v-.67578l4.4375 1.10156 2.14844 1.5-2.14844 3.04688-3.78906 1.39062-.64844.23047-1.61719-.23047-2.8203-.52344-3.52345.52344-.91796.11719-4.4375 1.28125-4.27735 3.04297-.16015.09375-4.4375-.0039-.02735-.08985"/><path fill="#00ac00" fill-rule="evenodd" d="M166.1914 448.73438l-4.01562-3.91407 4.01563-2.74219v.39063l-3.44141 2.35156 3.4414 3.35547 3.6797-3.35547-3.6797-2.35156v-.39063l4.29298 2.7422-4.29297 3.91406"/><path fill="#00c800" fill-rule="evenodd" d="M166.1914 448.17578l-3.4414-3.35547 3.4414-2.35156v.78516l-2.29296 1.5664 2.29297 2.23828 2.45312-2.23828-2.45312-1.5664v-.78516l3.67968 2.35156-3.67968 3.35547"/><path fill="#10cc00" fill-rule="evenodd" d="M166.1914 447.0586l-2.29296-2.23829 2.29297-1.5664v.78515l-1.14453.78125 1.14453 1.11719 1.22656-1.11719-1.22656-.78125v-.78515l2.45312 1.5664-2.45312 2.23828"/><path fill="#24d000" fill-rule="evenodd" d="M166.1914 445.9375l-1.14452-1.11719 1.14453-.78125 1.22656.78125-1.22656 1.11719"/><path fill="#00ac00" fill-rule="evenodd" d="M179.50781 441.95313l-1.33203-1.57032 1.33203-.70312 4.4375-1.22266v.67578l-3.76562 1.25 3.76562 2.20703 3.72266-2.20703-3.72266-1.25v-.67578l4.4375 1.33985.84375.58593-.84375 1.19531-4.4375 2.20313-4.4375-1.82813"/><path fill="#00c800" fill-rule="evenodd" d="M183.94531 442.58984l-3.76562-2.20703 3.76562-1.25 3.72266 1.25-3.72266 2.20703"/><path fill="#fff" fill-opacity="0" fill-rule="evenodd" d="M206.13672 414.95703l-1.16016 3.23438 1.16016.7539 3.17969-.7539-3.1797-3.23438"/><g clip-path="url(#d)"><path fill="#50fcfc" fill-rule="evenodd" d="M217.21094 480.32813h9.84765l-3.16797-2.53907-4.4375.15625-2.24218 2.38281"/></g><path fill="#50fcfc" fill-rule="evenodd" d="M228.32813 430.82422l-.6172.6836.6172 2.1289.80078-2.1289-.80078-.6836"/><path fill="#00e8fc" fill-rule="evenodd" d="M254.95703 445.83594l-.8789-1.01563.8789-.5586 4.4414-1.0078 4.4375-.96875 4.4375-1.29297 2.10157 3.82812-2.10156 2.02344-4.4375 1.9414-4.4375-2.2539-4.4414-.69531"/><path fill="#fff" fill-opacity="0" fill-rule="evenodd" d="M259.39844 440.26563l-2.8125.11718 2.8125.17578 4.4375-.05859.30078-.11719 4.13672-3.4961 4.4375.3711 4.4414-.42969.62891-.8828-.6289-.48438-4.44141-.1914-4.4375.08593-4.4375-.10547-.4414.69531-3.9961 4.32031"/><path fill="#00d4fc" fill-rule="evenodd" d="M259.39844 432.8086l-.27735-1.30079.27735-.14062.33594.14062-.33594 1.30078m8.875-4.96093l-.30078-.77735.30078-.30078.32422.30078-.32422.77735m13.3164 6.58984l-3.92578-2.92969 3.92578-1.66797v1.64844l-.04296.01953.04296.03125.04688-.03125-.04688-.01953v-1.64844l4.4375 1.6211 4.4375-.95313 1.00782 1-1.00782 2.78516-1.64453 1.65234-2.79297 1.39063-2.26171-1.39063-2.17579-1.50781"/><path fill="#00c4fc" fill-rule="evenodd" d="M281.58984 431.53906l-.04296-.03125.04296-.01953.04688.01953-.04688.03125"/><path fill="#00e8fc" fill-rule="evenodd" d="M290.46484 445.33984l-3.60156-.51953 3.60156-.57812.53907.57812-.53907.51953"/><path fill="#50fcfc" fill-rule="evenodd" d="M348.16406 437.75781l-1.9414-1.8125 1.9414-2.0039 4.4375-1.81641v1.44922l-3.3125 2.3711 3.3125 4.35937.04297.07812 4.39844 2.875 4.4375-2.5039 1.2539-.3711-1.2539-.36719-2.60938-4.0703-1.82812-2.10157-4.4414-.26953V432.125l4.4414-.17578 3.48047 3.9961.95703 1.49218 4.4375.375 2.8789 2.57031-2.8789 2.42188-4.4375.54297-4.4375.8789-4.4414-1.17187-2.67188-2.67188-1.76563-2.625m0 38.13672l-.0039-.0039.0039-.00391.0039.0039-.0039.00391"/><path fill="#00e8fc" fill-rule="evenodd" d="M352.60156 440.30469l-3.3125-4.35938 3.3125-2.3711 4.4414.26954v3.42578l-1.93358 3.11328 1.93359 1.26563 2.05078-1.26563-2.05078-3.11328v-3.42578l1.82812 2.10156 2.60938 4.07031 1.2539.3672-1.2539.37109-4.4375 2.5039-4.39844-2.875-.04297-.07812"/><path fill="#00d4fc" fill-rule="evenodd" d="M357.04297 441.64844l-1.9336-1.26563 1.9336-3.11328 2.05078 3.11328-2.05078 1.26563"/><path fill="#50fcfc" fill-rule="evenodd" d="M370.35547 463.29688l-.72266-.72266.3164-4.4375.40626-1.13281 1.53906-3.3047 2.5625-4.4375.33594-.66015 1.04687-3.78125-1.04687-1.86719-2.01563-2.5703 2.01563-2.90235 2.64453-1.53516 1.79688-1.55469v14.41797l-3.01563.45313 3.01563.39062.43359-.39062-.4336-.45313v-14.41796l4.4375 1.10156v17.2539l-1.25.95313-3.1875 3.75781-.1875.67969.1875.16015.16797-.16015 4.26954-4.08203.375-.35547-.375-.95313v-17.2539l.40234.45312-.39844 4.4375 4.4336 1.52735 4.4375 1.91796v14.70704l-4.4375 1.93359-1.38672 2.10547 1.38671 1.46484 4.4375 2.32031 4.4375-1.77734 4.44141 1.67188 4.4375-1.07032 4.4375-1.01562 1.63281-1.59375-1.6328-1.82422-4.4375-.94531-4.4375.35156-4.44142.46094-4.4375-2.08203v-14.70704l.91016.9922 2.89453 4.4414-2.59375 4.4375.82422 4.4375 2.40235.75 4.4414-.36719 4.4375-.125 4.4375.21875 3.54297 3.96094-3.54297 3.45703-4.4375.48047-1.5625.5039-2.875 3.12891-2.88281-3.1289-1.5586-.66797-4.4375.60156-4.4375-.36328-3.79687-4.01172-.64063-3.40625-4.13671 3.40625-.30079.125-.62109-.125-3.82031-1.92578-2.1211 1.92578-2.3164.72265"/><path fill="#fff" fill-opacity="0" fill-rule="evenodd" d="M379.23438 448.8086l-3.01563.45312 3.01563.39062.43359-.39062-.4336-.45313"/><path fill="#00e8fc" fill-rule="evenodd" d="M379.23438 458.29688l-.1875-.16016.1875-.67969 3.1875-3.75781 1.25-.95313.375.95313-.375.35547-4.26954 4.08203-.16796.16015"/><g clip-path="url(#e)"><path fill="#50fcfc" fill-rule="evenodd" d="M383.67188 478.75l-3.58985-2.85938 3.58985-3.03125v2.83985l-.22657.1914.22656.1797.21875-.1797-.21875-.1914v-2.83985l2.8125-1.40625 1.625-2.79687 4.4375-1.41016v2.09375l-2.59765 2.11329 2.59765 1.96484 1.90235-1.96485-1.90235-2.11328v-2.09375l3.78907 4.20704.64844 3.76562 4.4414-3.02344 3.25 3.69531.05078 4.4375H403l-.57031-4.4375-1.0039-1.14062-1.4297 1.14063-.27734 4.4375h-1.86719l-.86719-3.92188-.82421-.51563-3.61329-.51953-4.4375-1.71484-.94921 2.23438-3.48829 2.85937"/></g><path fill="#00e8fc" fill-rule="evenodd" d="M383.67188 476.07031l-.22657-.17969.22656-.1914.21875.1914-.21875.1797m4.4375-12.03126l-1.38671-1.46484 1.38671-2.10547 4.4375-1.9336v1.05079l-3.60546 2.98828 3.60546 2.80078 3.98829-2.80078-3.98829-2.98828v-1.05078l4.4375 2.08203 4.44141-.46094 4.4375-.35156v2.35156l-2.71875.41797 2.71875.39844 1.1914-.39844-1.1914-.41797v-2.35156l4.4375.94531 1.63281 1.82422-1.6328 1.59375-4.4375 1.01562-4.4375 1.07032-4.44142-1.67188-4.4375 1.77735-4.4375-2.32032"/><path fill="#00d4fc" fill-rule="evenodd" d="M392.54688 465.375l-3.60547-2.80078 3.60546-2.98828v1.05469l-2.33593 1.93359 2.33594 1.8125 2.58593-1.8125-2.58594-1.9336v-1.05468l3.98829 2.98828-3.98829 2.80078"/><path fill="#00e8fc" fill-rule="evenodd" d="M392.54688 473.41797l-2.59766-1.96485 2.59765-2.11328 1.90235 2.11329-1.90235 1.96484"/><path fill="#00c4fc" fill-rule="evenodd" d="M392.54688 464.38672l-2.33594-1.8125 2.33594-1.9336v1.05079l-1.06641.8828 1.0664.82813 1.1836-.82812-1.1836-.88281v-1.05079l2.58594 1.9336-2.58594 1.8125"/><path fill="#00b8fc" fill-rule="evenodd" d="M392.54688 463.40234l-1.06641-.82812 1.0664-.88281 1.1836.8828-1.1836.82813"/><g clip-path="url(#f)"><path fill="#00e8fc" fill-rule="evenodd" d="M399.71875 480.32813l.27734-4.4375 1.4297-1.14063 1.0039 1.14063.57031 4.4375h-3.28125"/></g><path fill="#00d4fc" fill-rule="evenodd" d="M405.86328 462.97266l-2.71875-.39844 2.71875-.41797 1.1914.41797-1.1914.39844"/><g clip-path="url(#g)"><path fill="#fff" fill-opacity="0" fill-rule="evenodd" d="M467.9961 480.32813H468V311.67188h-.0039H468v168.65625h-.0039"/></g><path fill="#fff" fill-opacity="0" fill-rule="evenodd" d="M229.23047 420.9375l5.09375 2.85938 4.875-8.6875-5.09375-2.85938-4.875 8.6875"/><path fill-rule="evenodd" d="M236.25781 415.5625l.44531.25-3.08203 5.48828-.68359-.38672L235.13281 417l-1.21094-.67969.27344-.48437.51953.21875.2461.07422.2461.03515.24608-.02344.25391-.09765.26563-.1875.28515-.29297"/><path fill="#fff" fill-opacity="0" fill-rule="evenodd" d="M230.60156 463.19922l5.6836-1.35156-2.30078-9.69141-5.6836 1.35156 2.30078 9.6914"/><path fill-rule="evenodd" d="M232.1289 454.48047l.4961-.11719 1.45313 6.125-.76563.1836-1.03516-4.3711-1.35156.32031-.1289-.53906.52734-.1914.23437-.11329.20313-.13671.16406-.1875.1211-.2422.0703-.3203.01173-.41016"/><path fill="#fff" fill-opacity="0" fill-rule="evenodd" d="M236.78906 441.16016l7.8125 1.3164 1.6914-10.05078-7.8125-1.3164-1.6914 10.05078"/><path fill-rule="evenodd" d="M240.6211 433.32813l3.24218.54687-.125.73047-2.60156-.4375-.52734 1.74219.25-.125.28906-.08594.33594-.03516.3828.03125.31641.08203.31641.14063.30469.19922.27344.26562.21875.32813.08593.1914.0664.21094.04688.22656.01953.2422-.0078.26171-.03126.28516-.10937.42968-.17188.39454-.23437.35156-.28906.29297-.35157.23046-.19531.08594-.20703.0625-.22266.04297-.23437.01953-.2461-.0039-.26172-.03125-.45312-.11329-.3789-.16796-.30079-.21485-.23437-.25781-.17578-.29297-.1211-.32422-.07031-.34765-.02734-.36329.77734.13282.03906.24219.0664.21875.09376.20312.11719.17188.14453.15234.16797.1211.19922.08984.22656.05468.3125.03125.28906-.02343.26172-.07813.23437-.1289.19532-.1875.16406-.23829.125-.29296.08594-.34766.02343-.26172-.01562-.26953-.0586-.26172-.10937-.25-.15625-.22266-.21094-.1914-.26953-.14453-.32812-.08985-.33594-.02344-.29688.0625-.30078.14063-.35156.21484-.6836-.11718 1.02344-3.30079"/><g clip-path="url(#h)"><path fill="none" stroke="#000" stroke-linecap="round" stroke-linejoin="round" stroke-miterlimit="10" stroke-width=".5" d="M147.48047 480.8125l-6.96094-.96875"/></g><g clip-path="url(#i)"><path fill="none" stroke="#000" stroke-linecap="round" stroke-linejoin="round" stroke-miterlimit="10" stroke-width=".5" d="M147.48047 480.8125l.83984 2.30469"/></g><g clip-path="url(#j)"><path fill="none" stroke="#000" stroke-linecap="round" stroke-linejoin="round" stroke-miterlimit="10" stroke-width=".5" d="M146.46875 480.67188l.41797 1.15234"/></g><g clip-path="url(#k)"><path fill="none" stroke="#000" stroke-linecap="round" stroke-linejoin="round" stroke-miterlimit="10" stroke-width=".5" d="M160.77344 480.95703l-6.91406-1.2539"/></g><g clip-path="url(#l)"><path fill="none" stroke="#000" stroke-linecap="round" stroke-linejoin="round" stroke-miterlimit="10" stroke-width=".5" d="M160.77344 480.95703l.7461 2.33594"/></g><g clip-path="url(#m)"><path fill="none" stroke="#000" stroke-linecap="round" stroke-linejoin="round" stroke-miterlimit="10" stroke-width=".5" d="M159.76563 480.77344l.375 1.16797"/></g><g clip-path="url(#n)"><path fill="none" stroke="#000" stroke-linecap="round" stroke-linejoin="round" stroke-miterlimit="10" stroke-width=".5" d="M174.0625 481.07813l-6.86328-1.5"/></g><g clip-path="url(#o)"><path fill="none" stroke="#000" stroke-linecap="round" stroke-linejoin="round" stroke-miterlimit="10" stroke-width=".5" d="M174.0625 481.07813l.66406 2.36328"/></g><g clip-path="url(#p)"><path fill="none" stroke="#000" stroke-linecap="round" stroke-linejoin="round" stroke-miterlimit="10" stroke-width=".5" d="M173.0625 480.85938l.33203 1.18359"/></g><g clip-path="url(#q)"><path fill="none" stroke="#000" stroke-linecap="round" stroke-linejoin="round" stroke-miterlimit="10" stroke-width=".5" d="M187.33594 481.2539l-6.78125-1.85156"/></g><g clip-path="url(#r)"><path fill="none" stroke="#000" stroke-linecap="round" stroke-linejoin="round" stroke-miterlimit="10" stroke-width=".5" d="M186.34766 480.98438l.26953 1.1953"/></g><g clip-path="url(#s)"><path fill="none" stroke="#000" stroke-linecap="round" stroke-linejoin="round" stroke-miterlimit="10" stroke-width=".5" d="M200.66797 481.1875l-6.8125-1.71875"/></g><g clip-path="url(#t)"><path fill="none" stroke="#000" stroke-linecap="round" stroke-linejoin="round" stroke-miterlimit="10" stroke-width=".5" d="M200.66797 481.1875l.58594 2.38281"/></g><g clip-path="url(#u)"><path fill="none" stroke="#000" stroke-linecap="round" stroke-linejoin="round" stroke-miterlimit="10" stroke-width=".5" d="M199.67578 480.9375l.29297 1.1914"/></g><g clip-path="url(#v)"><path fill="none" stroke="#000" stroke-linecap="round" stroke-linejoin="round" stroke-miterlimit="10" stroke-width=".5" d="M213.90234 481.45703l-6.65625-2.25781"/></g><g clip-path="url(#w)"><path fill="none" stroke="#000" stroke-linecap="round" stroke-linejoin="round" stroke-miterlimit="10" stroke-width=".5" d="M212.9336 481.1289l.19921 1.21094"/></g><g clip-path="url(#x)"><path fill="none" stroke="#000" stroke-linecap="round" stroke-linejoin="round" stroke-miterlimit="10" stroke-width=".5" d="M227.26172 481.3164l-6.74219-1.97656"/></g><g clip-path="url(#y)"><path fill="none" stroke="#000" stroke-linecap="round" stroke-linejoin="round" stroke-miterlimit="10" stroke-width=".5" d="M240.48438 481.59375l-6.5547-2.53125"/></g><g clip-path="url(#z)"><path fill="none" stroke="#000" stroke-linecap="round" stroke-linejoin="round" stroke-miterlimit="10" stroke-width=".5" d="M253.71875 481.78125l-6.39844-2.90625"/></g><g clip-path="url(#A)"><path fill="none" stroke="#000" stroke-linecap="round" stroke-linejoin="round" stroke-miterlimit="10" stroke-width=".5" d="M266.67578 482.39844l-5.67969-4.14063"/></g><g clip-path="url(#B)"><path fill="none" stroke="#000" stroke-linecap="round" stroke-linejoin="round" stroke-miterlimit="10" stroke-width=".5" d="M278.85938 483.39844l-3.41407-6.14063"/></g><g clip-path="url(#C)"><path fill="none" stroke="#000" stroke-linecap="round" stroke-linejoin="round" stroke-miterlimit="10" stroke-width=".5" d="M293.5664 478.67578l-6.19921 3.3086"/></g><g clip-path="url(#D)"><path fill="none" stroke="#000" stroke-linecap="round" stroke-linejoin="round" stroke-miterlimit="10" stroke-width=".5" d="M304.8789 476.99219l-2.19921 6.67187"/></g><g clip-path="url(#E)"><path fill="none" stroke="#000" stroke-linecap="round" stroke-linejoin="round" stroke-miterlimit="10" stroke-width=".5" d="M313.84766 478.99219l6.5 2.67187"/></g><g clip-path="url(#F)"><path fill="none" stroke="#000" stroke-linecap="round" stroke-linejoin="round" stroke-miterlimit="10" stroke-width=".5" d="M327.58594 482.41797l5.65234-4.17578"/></g><g clip-path="url(#G)"><path fill="none" stroke="#000" stroke-linecap="round" stroke-linejoin="round" stroke-miterlimit="10" stroke-width=".5" d="M341.2539 482.82813l4.94141-4.9961"/></g><g clip-path="url(#H)"><path fill="none" stroke="#000" stroke-linecap="round" stroke-linejoin="round" stroke-miterlimit="10" stroke-width=".5" d="M354.41406 482.66406l5.2539-4.67187"/></g><g clip-path="url(#I)"><path fill="none" stroke="#000" stroke-linecap="round" stroke-linejoin="round" stroke-miterlimit="10" stroke-width=".5" d="M367.22656 481.92578l6.26172-3.1914"/></g><g clip-path="url(#J)"><path fill="none" stroke="#000" stroke-linecap="round" stroke-linejoin="round" stroke-miterlimit="10" stroke-width=".5" d="M380.16797 480.61328l7.0039-.5664"/></g><g clip-path="url(#K)"><path fill="none" stroke="#000" stroke-linecap="round" stroke-linejoin="round" stroke-miterlimit="10" stroke-width=".5" d="M381.1875 480.52734l-.66016-1.03125"/></g><g clip-path="url(#L)"><path fill="none" stroke="#000" stroke-linecap="round" stroke-linejoin="round" stroke-miterlimit="10" stroke-width=".5" d="M393.48047 480.58203l7.01172-.5039"/></g><g clip-path="url(#M)"><path fill="none" stroke="#000" stroke-linecap="round" stroke-linejoin="round" stroke-miterlimit="10" stroke-width=".5" d="M394.5 480.50781l-.65234-1.03906"/></g><g clip-path="url(#N)"><path fill="none" stroke="#000" stroke-linecap="round" stroke-linejoin="round" stroke-miterlimit="10" stroke-width=".5" d="M406.82813 480.85156l6.94921-1.04687"/></g><g clip-path="url(#O)"><path fill="none" stroke="#000" stroke-linecap="round" stroke-linejoin="round" stroke-miterlimit="10" stroke-width=".5" d="M407.83984 480.69922l-.73437-.98438"/></g><g clip-path="url(#P)"><path fill="none" stroke="#000" stroke-linecap="round" stroke-linejoin="round" stroke-miterlimit="10" stroke-width=".5" d="M420.45313 481.85938l6.32421-3.0625"/></g><g clip-path="url(#Q)"><path fill="none" stroke="#000" stroke-linecap="round" stroke-linejoin="round" stroke-miterlimit="10" stroke-width=".5" d="M421.375 481.41406l-.99219-.72265"/></g><g clip-path="url(#R)"><path fill="none" stroke="#000" stroke-linecap="round" stroke-linejoin="round" stroke-miterlimit="10" stroke-width=".5" d="M434.50781 482.8711l4.84766-5.08594"/></g><g clip-path="url(#S)"><path fill="none" stroke="#000" stroke-linecap="round" stroke-linejoin="round" stroke-miterlimit="10" stroke-width=".5" d="M448.30469 483.2539l3.88672-5.85156"/></g><g clip-path="url(#T)"><path fill="none" stroke="#000" stroke-linecap="round" stroke-linejoin="round" stroke-miterlimit="10" stroke-width=".5" d="M460.95313 482.6836l5.21875-4.70704"/></g><g clip-path="url(#U)"><path fill="none" stroke="#000" stroke-linecap="round" stroke-linejoin="round" stroke-miterlimit="10" stroke-width=".5" d="M147.48828 467.44531l-6.97656-.86328"/></g><path fill="none" stroke="#000" stroke-linecap="round" stroke-linejoin="round" stroke-miterlimit="10" stroke-width=".5" d="M147.48828 467.44531l.875 2.29297m12.42969-2.21875l-6.95313-1.01172m6.95313 1.01172l.82812 2.3125m12.48047-2.28906l-6.94531-1.0586m6.94531 1.0586l.8125 2.3164m-1.82031-2.46875l.40625 1.15625m13.90625-.91796l-6.92188-1.23047m6.92188 1.23047l.7539 2.33593m-1.76171-2.51562l.375 1.16797m13.9336-.92578l-6.89454-1.35547m6.89453 1.35547l.71484 2.34765m-1.71875-2.54687l.35938 1.17578m13.9336-.85156l-6.83985-1.60547m6.83984 1.60547l.62891 2.37109m12.71875-2.51953l-6.90625-1.3086m6.90625 1.3086l.72656 2.34375m12.5664-2.2461l-6.86327-1.5039m6.86328 1.5039l.66016 2.36329m12.46093-1.75391l-6.47656-2.72266m6.47656 2.72266l.22266 2.44531m13.09375-2.44922l-6.48047-2.71484m5.53906 2.32031l.11328 1.22266m14.25782-1.14063l-6.70704-2.08984m5.73047 1.78516l.23047 1.20703m13.76172-3.6836l-6.10937 3.47266m16.69921-5.23437l-.65625 6.99609m.5625-5.97656l1.12891-.47266m11.6836-.55078l.53515 7.0039m-.45703-5.98437l1.03516-.66016m12.33593-.36718l.26563 7.01953m12.88672-7.01172l.59375 7.0039m10.79687-6.22265l4.4414 5.4414m8.6172-5.21093l4.95703 4.98047m-4.23828-4.25782l.36328-1.17187m11.27343 2.21484l6.875 1.44922m-5.875-1.23828l-.33984-1.17969m12.79297.48828l6.59766 2.41016m-5.63672-2.0586l-.17188-1.21874m12.32031 2.3203l7.00782-.49608m-7.00782.49609l-1.30078-2.07813m14.6875 2.58594l6.86328-1.51172m-5.86328 1.29297l-.79687-.9336m13.77344 2.5586l5.54296-4.32422m-4.73437 3.69532l-1.1211-.5m13.6797 1.1914l5.4375-4.44922m-5.4375 4.44922l-2.26173-.94531m15.16407.3125l6.26172-3.1836m-5.35157 2.72266l-1.0039-.70703"/><g clip-path="url(#V)"><path fill="none" stroke="#000" stroke-linecap="round" stroke-linejoin="round" stroke-miterlimit="10" stroke-width=".5" d="M147.30469 454.89063l-6.60938-2.38282"/></g><path fill="none" stroke="#000" stroke-linecap="round" stroke-linejoin="round" stroke-miterlimit="10" stroke-width=".5" d="M147.30469 454.89063l.34765 2.42968m12.83594-2.11719l-6.34766-3.01171m6.34766 3.01172l.11328 2.45312m13.27735-2.6211l-6.5-2.67187m6.5 2.67188l.24218 2.4414m13.0586-2.41015l-6.46875-2.73828m6.46875 2.73828l.21875 2.4453m12.99219-2.21874l-6.26172-3.1875m6.26172 3.1875l.04296 2.45312m13.4922-2.98828l-6.69923-2.11718m6.69922 2.11718l.44531 2.41016m13.00782-3.05469l-6.97657-.83203m5.96094.71094l.44531 1.14453m13.90625-1.57031l-7.01953.26172m6-.22266l.61719 1.0625m13.63672-1.74219l-6.85547 1.54297m5.85547-1.3164l.80078.92968m13.45313-1.38672l-6.73438 2.00782m5.7539-1.71875l.86329.875m13.4375-1.14844l-6.7461 1.97265M279.54297 453l.85547.8789m13.41015-1.2578l-6.6875 2.15624m5.71485-1.84375l.88281.85547m12.57031-2.55078l-5.01562 4.92188m4.28515-4.20703l1.16797.37109m12.67578-1.27734l-4.61328 5.30078m4.61328-5.30078l2.39063.55468m10.98437-.5l-4.73046 5.19532m4.73046-5.19532l2.375.60547m10.98047-.57031l-4.8125 5.125m4.10938-4.3789l1.1836.3203m12.03124-1.6328l-3.20703 6.2539m2.74219-5.34375l1.22656-.01563m8.79688-.54296l4.30468 5.55468m-3.67968-4.7461l.5039-1.12108m11.9414.52343l4.79688 5.13282m-4.10156-4.38672l.39844-1.16016m11.40234 1.5664l6.4336 2.82813m-5.4961-2.41797l-.09375-1.22265m12.25 1.49218l6.875 1.46485m-6.875-1.46485l-.67187-2.35546m13.91406 3.2539l7.01953-.32812m-7.01953.32812l-1.25-2.10937m14.71094 2.95703l6.73047-2.02344m-6.73047 2.02344l-1.72657-1.7461m15.19532 2.15625l6.42187-2.84765m-6.42187 2.84765l-1.9336-1.51171m2.86719 1.09765l-.96484-.75781m13.05078-.01172l7.01172-.48047m-5.98828.41016l-.64844-1.03906"/><g clip-path="url(#W)"><path fill="none" stroke="#000" stroke-linecap="round" stroke-linejoin="round" stroke-miterlimit="10" stroke-width=".5" d="M147.09375 442.05078l-6.1875-3.33203"/></g><path fill="none" stroke="#000" stroke-linecap="round" stroke-linejoin="round" stroke-miterlimit="10" stroke-width=".5" d="M147.09375 442.05078l-.01172 2.45313m12.77734-1.69532l-5.08984-4.84765m4.34766 4.14062l-.32813 1.1836m14.25781-.35157l-4.83203-5.10156m4.12891 4.35938l-.39063 1.16406m14.78516-.84375l-5.58594-4.25781m4.77344 3.64062l-.19922 1.21094m13.99219-.21094l-4.91797-5.01953m4.20313 4.28906l-.3711 1.16797m14.125-.19531l-4.36719-5.5039m3.73438 4.70312l-.49219 1.125m14.16797-.1289l-3.82422-5.89454m17.59375 5.54297l-4.73047-5.19531m16.6836 5.96484l-2.00781-6.73438m1.71484 5.75391l-.8711.86328m16.34766-5.27343l-5.74219 4.05078m14.0547-4.82032l4.26171 5.58985m9.41406-5.83203l3.53906 6.0703m12.44922-6.42968l-1.80468 6.78906m15.8125-6.52343L315.5 443.5117m2.72656-5.34765l1.22656-.01953m12.625-.85156l-3.33593 6.1836m2.85156-5.28516l1.22656.0078m12.4336-.98046l-3.0586 6.32813m2.61719-5.40625l1.22266-.04688m10.95703-1.22266l.09765 7.02735m-.08593-6.0039l1.07812-.59376m10.76563-.08984l3.01562 6.34765m-2.57812-5.42578l.73437-.98437m10.3125 2.13672l6.67578 2.1953m-5.70312-1.875l-.20703-1.21093m12.98828.0039l5.80078 3.96876m-4.95703-3.39063l.13672-1.21875m12.79296.10156l4.88282 5.05079m-4.88281-5.05079l.7578-2.33593m11.70313 3.64843l6.59375 2.42579m-6.59375-2.42579l-.33594-2.43359m1.29297 2.78516l-.16406-1.21485m12.3125 2.28516l7.01172-.42188m-7.01172.42188L432.14453 438.5m2.30078 2.03125l-.64062-1.04688m13.0664 1.8711l6.75391-1.94531m-6.7539 1.9453l-1.70704-1.76171m2.6875 1.48047L447 440.1914m13.125-.54297l6.8711 1.47265m-5.8711-1.2578l-.33594-1.1797"/><g clip-path="url(#X)"><path fill="none" stroke="#000" stroke-linecap="round" stroke-linejoin="round" stroke-miterlimit="10" stroke-width=".5" d="M147.13281 428.65625l-6.26562-3.17578"/></g><path fill="none" stroke="#000" stroke-linecap="round" stroke-linejoin="round" stroke-miterlimit="10" stroke-width=".5" d="M146.22266 428.19531l.02343 1.22656m14.21485-.79296l-6.29297-3.1211m5.3789 2.66797l.03516 1.22656m13.34375.32422l-4.59375-5.3164m3.92578 4.54297l-.4414 1.14453m13.32422.27734l-2.39063-6.60938m2.04297 5.64454l-.82422.91015m13.67578.24219l-.76953-6.98828m.65625 5.96875l-1.01172.6914m12.91016.15626l2.29297-6.64454m10.34375 6.32422l3.64843-6.0039m-3.11718 5.1328l-1.22657-.07421m13.27735.35547l5.11328-4.82031m-4.36719 4.11718l-1.16406-.39453m13.89453 1.25781l4.78906-5.14453m-4.08984 4.39453l-1.1875-.3164m14.17969 1.3711l4.03515-5.75391m-3.44531 4.91796l-1.21875-.15234m13.32422.4336l5.27734-4.64454m-4.50781 3.96875l-1.14844-.43359m12.82422-1.00781l7.01563-.41016m-5.9922.35156l-.64062-1.04687m13.04297 1.79297l6.79688-1.78516m-5.8086 1.52344l-.83203-.89844m13.78907-1.89844l5.53515 4.33203m-4.73047-3.70312l.21485-1.20703m12.83203.02734l4.46094 5.4336m-3.8086-4.64063l.46875-1.13281m11.6836.85937l5.48046 4.39844m-4.67968-3.76172l.22656-1.20312m12.41797.41406l5.22265 4.70312m7.19141-2.375l7.02734.04297m-6.0078-.03515l-.56641-1.08985m13.1328-.2539l6.48048 2.71484m-5.53516-2.32031l-.11328-1.22266m16.02344-1.3164l-.59766 7.0039m.59766-7.0039l2.2578-.96094m10.375.96875l.76563 6.98828m-.76562-6.98828l2.03125-1.3789m13.02344 1.6328l-2.71094 6.48047m2.71094-6.48047l2.4414-.22656m-2.83593 1.16797l1.22265-.11328m11.27344-1.09766l-.28516 7.01953m.28516-7.01953l2.21484-1.0625m7.44532 4.48047l7.02343.1836m-6-.15625l-.55078-1.09766m18.4414-1.66406l-4.17577 5.65234m3.5703-4.82812l1.21095.17968"/><g clip-path="url(#Y)"><path fill="none" stroke="#000" stroke-linecap="round" stroke-linejoin="round" stroke-miterlimit="10" stroke-width=".5" d="M147.23047 415.14063l-6.46094-2.77344"/></g><path fill="none" stroke="#000" stroke-linecap="round" stroke-linejoin="round" stroke-miterlimit="10" stroke-width=".5" d="M146.28906 414.73438l.10156 1.22265m14.4297-1.98047l-7.01173-.44922m5.9922.38672l.5078 1.11719m13.82032-.9414l-6.9961-.67188m5.97656.57422l.46875 1.13281m12.60157 1.33984l-4.46875-5.42578m3.8164 4.63672l-.46875 1.13281m12.29297.45704l-.17969-7.02344m.15235 6l-1.07031.60547m12.28906-.23047l4.0664-5.73047m-3.47656 4.89844l-1.21484-.15625m12.89844-.17188l6.14843-3.40625m-5.2539 2.91016l-1.02735-.66797m13.3086.88281l6.42578-2.84375m-6.42578 2.84375l-1.92969-1.51562m15.375 1.77734l6.16797-3.36719m-6.16797 3.36719l-2.05078-1.34766m15.625 1.75391l5.64844-4.17969m-4.82813 3.57032l-1.10547-.52735m13.4336.89063l5.98046-3.6875m-5.10937 3.15234l-1.0586-.6211m15.33985-4.0078l2.3086 6.63671m-1.97266-5.66797l.83203-.90234m10.13281 1.73828l6.33594 3.03125m-5.41406-2.58984l-.0547-1.22656m12.26563 1.24218l6.69922 2.11719m-5.72656-1.8086l-.22266-1.20702m12.40625 1.76562l7.01563.38281m-5.9961-.32812l-.51562-1.11328m13.49219-.83985l5.65234 4.17578m-4.82812-3.5664l.17968-1.21485m12.08594.95704l6.10547 3.47656m-5.21875-2.97266l.03516-1.22656m13.10546-.16016l4.6836 5.23828m-4.0039-4.47656l.42577-1.14844m12.63672.0625l3.82813 5.89063m-3.82813-5.89063l1.1875-2.14843m11.53516 2.6289l5.01172 4.92969m-5.01172-4.92969l.69922-2.35156m16.22265 1.48047l-2.20312 6.67187m2.20312-6.67187L413.82031 410m11.28516.57031l-2.97656 6.36719m2.97656-6.36719l2.44922-.125m-2.88282 1.05078l1.22657-.0625m13.33593-.33203l-4.60937 5.30469m4.60937-5.30469l2.39454.55078m-3.0625.21875l1.1953.27735m13.04298-.80078l-5.11719 4.8125m4.375-4.11328l1.16016.39453m13.15234-.79297l-5.625 4.21094m4.80469-3.59766l1.11328.51953"/><g clip-path="url(#Z)"><path fill="none" stroke="#000" stroke-linecap="round" stroke-linejoin="round" stroke-miterlimit="10" stroke-width=".5" d="M147.48438 400l-6.96875.875"/></g><path fill="none" stroke="#000" stroke-linecap="round" stroke-linejoin="round" stroke-miterlimit="10" stroke-width=".5" d="M146.47266 400.1289l.70703 1m10.40625-4.1953l-.53906 7.0078m.46093-5.98827l1.1211-.48829m8.61328 2.04688l6.77734 1.85547m-5.79297-1.58594l-.26953-1.19922M180.5 401.12891l6.89063-1.37891m6.4453 1.48438l6.84766-1.58985M194.83203 401l-.80469-.92188m13.07813-.20312l6.9375 1.125m-6.9375-1.125l-.78906-2.32422m14.1328 2.1836l6.88282 1.40625m-6.88281-1.40625l-.69531-2.35157m14.12109 1.9375l6.66016 2.23828m-6.66016-2.23828l-.40234-2.42187m13.78515 4.84375l6.52735-2.60547m-6.52735 2.60547l-1.875-1.58594m15.54297 2.25l5.82031-3.9336m-5.8203 3.9336l-2.16798-1.14844m15.44532 1.09375l5.89453-3.82422m13.8828 1.84375l-7.02733.13672m6.0039-.11719l.59766 1.07032m13.67969-1.67578l-6.90625 1.30468m5.90234-1.11328l.76562.95703m6.6211.01172l6.95703-1.01172m8.89062-2.8789l1.89063 6.76953m-1.61328-5.78516l.88672-.84765m12.17578-.14454l1.84375 6.78125m-1.57813-5.79296l.89453-.83985m9.96875 4.8789l6.21485-3.27343m13.65625 2.3086l-6.89844-1.33985m20.1211-.36719l-6.71485 2.07032m6.71484-2.07032l1.7422 1.73047m11.27734-2.42187l-6.1211 3.45312m6.1211-3.45312l2.0664 1.32031m10.54688-2.19531l-4.71875 5.20703m4.03125-4.44922l1.1914.29688m12.51172-1.30079l-4.11719 5.69532m4.1172-5.69532l2.42968.33594m-3.03125.49219l1.21484.16797m12.84766-.88281l-4.41016 5.47265m4.41016-5.47265l2.41016.46093m-3.05079.33594l1.20313.23047m13.0586-.75l-5.02344 4.91406m5.02343-4.91406l2.33985.74219m11.69922.34375l-6.46875 2.74609"/><g clip-path="url(#aa)"><path fill="none" stroke="#000" stroke-linecap="round" stroke-linejoin="round" stroke-miterlimit="10" stroke-width=".5" d="M466.79688 399.0664l1.90625 1.54298"/></g><g clip-path="url(#ab)"><path fill="none" stroke="#000" stroke-linecap="round" stroke-linejoin="round" stroke-miterlimit="10" stroke-width=".5" d="M147.42578 386.34375l-6.85156 1.5586"/></g><path fill="none" stroke="#000" stroke-linecap="round" stroke-linejoin="round" stroke-miterlimit="10" stroke-width=".5" d="M147.42578 386.34375l1.60547 1.85547m-2.60156-1.6289l.80078.92968m13.125-2.13281l-6.08203 3.51562m6.08203-3.51562l2.08203 1.29687m-2.96484-.78515l1.03906.64843m12.01562-2.36328l-3.79297 5.91797m3.23829-5.05469l1.22265.09766m9.73047 5.35938l2.03906-6.72266m8.91797 2.39062l6.7539 1.94141m-5.76952-1.65625l-.25781-1.20313m12.90234.17188l6.1289 3.4336m-6.1289-3.4336l.05469-2.45313m.83593 2.95313l.02735-1.22656m12.5.55078l5.92187 3.78515m-5.92187-3.78515l.19531-2.44531m.66406 2.99609l.09766-1.22266m11.8125 2.77735l7.01172-.42188m-7.01172.42188l-1.28125-2.09375m17.53125 5.34765l1.14453-6.93359m-1.14453 6.9336l-2.32813.78515m15.55078-.80078l1.32813-6.90235m-1.13281 5.89844l-1.17578.35938m16.45312.3711l-2.98828-6.35548m2.55469 5.4336l-.73438.98046m16.14063-1.68359l-6.30469-3.10547m6.30469 3.10547l.07422 2.45313m13.59765-4.16797l-7.01953.32422m7.01953-.32422l1.2539 2.10937m-2.27343-2.0625l.625 1.05469m13.71485-.89453l-7.02735-.08985m7.02735.08985l1.125 2.1836m12.17578-2.5625l-6.9961.66796m6.9961-.66797l1.35156 2.04688m-2.3711-1.94922l.67579 1.02344m13.55078-1.71094l-6.78125 1.85156m6.78125-1.85156l1.67969 1.78515m-2.66797-1.51562l.83984.89063m12.91016 1.83203l-5.67579-4.13672m5.67579 4.13672l-.34375 2.42968m14.3125-4.12109l-6.98438-.7539m6.98438.7539l.91406 2.28125m11.89844-4.5039l-5.98047 3.6914m5.98047-3.6914l2.12109 1.24218m10.67578-1.89453l-4.9414 4.9961m4.9414-4.9961l2.35156.70313m10.1172-1.32032l-3.2461 6.23047m3.2461-6.23047l2.45312-.02344M425 383.89454l-2.76563 6.45703M425 383.89453l2.44531-.20703m-2.84765 1.14453l1.22265-.10156m12.23438-.9375l-2.2461 6.66015m2.2461-6.66015l2.42187-.39844m11.61328.73828l-3.68359 5.98047m3.6836-5.98047l2.44921.15235m12.25 1.4453l-6.45312 2.78517"/><g clip-path="url(#ac)"><path fill="none" stroke="#000" stroke-linecap="round" stroke-linejoin="round" stroke-miterlimit="10" stroke-width=".5" d="M466.78906 385.73047l1.91406 1.53515"/></g><g clip-path="url(#ad)"><path fill="none" stroke="#000" stroke-linecap="round" stroke-linejoin="round" stroke-miterlimit="10" stroke-width=".5" d="M147.26953 372.52734l-6.53906 2.5625"/></g><path fill="none" stroke="#000" stroke-linecap="round" stroke-linejoin="round" stroke-miterlimit="10" stroke-width=".5" d="M147.26953 372.52734l1.86328 1.59375m11.41016-1.6953l-6.45703 2.76562m6.45703-2.76563l1.91406 1.53516m11.40234-1.53906l-6.45703 2.77343m6.45703-2.77344l1.91407 1.53907m-2.85547-1.13672l.95703.76953m13.21875-1.34375l-6.29688 3.11719m6.29688-3.11719l1.99219 1.4336m-2.90625-.98048l.9961.71485m12.8203-1.8164l-5.46875 4.41406m5.46875-4.41407l2.25391.96485m-3.05078-.32422l1.1289.48437m12.11329-1.89453l-3.73047 5.95313m3.73047-5.95313l2.4453.17188m-2.98827.6914l1.22265.08985m10.6875-1.48829l.16407 7.02344m-.14063-6.0039l1.07031-.60157m11.96875 6.58985l.66797-6.99219m-.66797 6.99219l-2.26562.9414m17.9961-1.60546l-4.16016-5.66407m4.16015 5.66406l-1.0625 2.21094m14.4336-2.2539l-4.27344-5.57813m4.27344 5.57813l-1.01563 2.23046m14.82031-2.6875l-5.2539-4.66796m5.2539 4.66796l-.57812 2.38672m-.1875-3.0625l-.28906 1.19141m14.55859-.7461l-5.63281-4.20312m5.63281 4.20313l-.3711 2.42578m14.36329-4.1289l-6.98438-.80079m6.98438.80078l.89453 2.28516m12.20312-3.95313l-6.55078 2.53906m6.55078-2.53906l1.85938 1.60547m11.48437-1.53125l-6.60937 2.39063m6.60937-2.39063l1.82032 1.64453m11.67578.00781l-6.96875-.91406m6.96875.91406l.85937 2.29688m12.28516-1.58984l-6.6289-2.32813m6.6289 2.32813l.36719 2.42578m13.13672-3.33594l-7.00782-.50781m7.00782.50781l.99218 2.2461m11.76953-4.41016l-5.89843 3.8164m5.03906-3.2578l1.07422.59374m12.1875-2.10547l-4.07422 5.72656m3.48047-4.89453l1.21875.16016m11.2461-1.59375l-1.1875 6.92578m1.01562-5.91797l1.16406-.38281m11.34766-.65234L424 377.30078m-.76562-6.98437l2.02734-1.38282m12.29297 1.41797l-1.2461 6.91406m1.2461-6.91406l2.33594-.75m11.85156 1.02735l-2.99219 6.35937m2.99219-6.35937l2.44922-.1211m12.18359 1.19531l-5.625 4.21094m4.80469-3.59765l1.11328.52343"/><g clip-path="url(#ae)"><path fill="none" stroke="#000" stroke-linecap="round" stroke-linejoin="round" stroke-miterlimit="10" stroke-width=".5" d="M146.01953 357.61719l-4.03906 5.75"/></g><path fill="none" stroke="#000" stroke-linecap="round" stroke-linejoin="round" stroke-miterlimit="10" stroke-width=".5" d="M145.42969 358.45313l1.21875.15234m12.13281-1.30469l-2.9336 6.38672m2.50782-5.45703l1.22266-.07422m13.49218-.1914l-4.8789 5.05859m4.16797-4.32422l1.17968.33984m12.90235-1.01562l-4.9922 4.9414m4.26563-4.22265l1.17188.36328m12.82422-1.1289l-4.90235 5.03124m4.90235-5.03125l2.35547.6875M213 357.95312l-4.85156 5.08204M213 357.95312l2.36328.66016m-3.0664.07813l1.17968.33203m12.77344-1.13281l-4.71875 5.20312m4.71875-5.20313l2.3789.60157m8.27344 5.5l.60547-7m-.60547 7l-2.2539.96484m16.27344-.97265l-.80079-6.98047m.80078 6.98046l-2.02343 1.39063m16.34375-1.66406l-2.8125-6.4375m2.8125 6.4375l-1.52344 1.92578m1.11328-2.85938l-.76172.96094m14.94922-.26953l-3.73828-5.94922m3.73828 5.94922l-1.22265 2.1289m.67968-2.99609l-.60937 1.0664m15.1211-.72655l-5.04298-4.89454m5.04297 4.89454l-.6836 2.35546m14.77344-3.58593l-6.59375-2.4336m5.63282 2.07813l.16797 1.21484m14.21875-2.92578l-6.81641 1.69531m5.82422-1.44921l.82031.91406m13.57813-.6289l-7 .63671m7-.63672l1.34375 2.05078m11.98046-1.88672l-7.01953.3047m7.01954-.3047l1.24609 2.1172m12.07422-2.03517l-7.02735.14454m6.00391-.125l.59766 1.0703m13.68359-1.65233l-6.91016 1.26953m6.91016-1.26954l1.52344 1.92188m11.39453-3.01172l-6.1211 3.44922m6.1211-3.44922l2.07031 1.32031m10.21485-2.46484l-4.0586 5.73828m4.0586-5.73828l2.43359.3086m9.21875-.9336l-.73047 6.98828m.6211-5.97265l1.14062-.46094m11.15625-.49219l1.52344 6.85938m-1.52344-6.85938l1.86719-1.59375m12.15234 1.51172l.11328 7.02734m-.11328-7.02734l2.14844-1.1875m12.41406 1.39453l-2.3789 6.61328m2.3789-6.61328l2.42578-.35156m12.15625 1.14453l-4.91406 5.02344m4.19922-4.29297l1.17578.34765"/><g clip-path="url(#af)"><path fill="none" stroke="#000" stroke-linecap="round" stroke-linejoin="round" stroke-miterlimit="10" stroke-width=".5" d="M142.48828 344.00781l3.02344 6.34375"/></g><g clip-path="url(#ag)"><path fill="none" stroke="#000" stroke-linecap="round" stroke-linejoin="round" stroke-miterlimit="10" stroke-width=".5" d="M142.48828 344.00781l1.46094-1.97265"/></g><path fill="none" stroke="#000" stroke-linecap="round" stroke-linejoin="round" stroke-miterlimit="10" stroke-width=".5" d="M155.19531 344.375l4.23828 5.60547m-4.23828-5.60547l1.03516-2.22656m11.8164 2.64844l5.16797 4.76171m-5.16797-4.76171l.6211-2.375m12.71875 2.34765l5.11328 4.82031m-5.11328-4.8203l.64844-2.3672m13.45703 1.73829l3.53515 6.07421m-3.01953-5.1914l.64453-1.04297m15.28907-.03906l-2.73047 6.47265m2.73047-6.47265l2.4453-.21875m12.4336 1.51562l-5.85937 3.8789m5.85937-3.8789l2.15625 1.17188m10.71875 3.24609l-4.98047-4.95703m4.98047 4.95703l-.71094 2.34766m12.10938-1.35938l-1.14844-6.9336m1.14844 6.9336l-1.94922 1.48828m1.78125-2.4961l-.97266.7422m14.5625.24609l-1.35937-6.89453m1.35938 6.89453l-1.90235 1.55078m1.70313-2.55469l-.94922.77735m14.73828.16015l-1.91016-6.76171m1.91016 6.76171l-1.77344 1.69922m15.86719-2.02344l-3.46484-6.11328m2.96093 5.22266l-.66015 1.03516m15.6289-5.20704l-5.76562 4.01563m19.63281-2.75l-6.8711 1.48047m18.61329-3.71875l-3.72656 5.95703m3.18359-5.08984l1.22656.08593m14.22656 1.39844l-6.91406 1.2539m5.90625-1.0703l.76172.96093M360.35156 346l-6.6211 2.35547m5.65626-2.01172l.90625.82813m12.77344-2.23047l-5.42188 4.47265m4.63281-3.82031l1.13282.46875m13.3203-.60938l-6.12108 3.45313m5.23046-2.95313l1.03516.66016m12.26953-2.20703l-4.3164 5.54297m3.6914-4.73438l1.20703.21094m11.35547-1.67187l-1.5625 6.85156m1.5625-6.85156l2.3711-.64063m9.26171.66797l1.8047 6.79297m-1.54298-5.80469l.89844-.83203m11.91016-.08203l2.29297 6.64453m-2.29297-6.64453l1.67187-1.79297m12.84766 1.60156l-.11719 7.02735m.11719-7.02735l2.1875-1.11328m13.4961 2.08594l-4.85157 5.08203m4.14453-4.34375l1.17969.33203"/><g clip-path="url(#ah)"><path fill="none" stroke="#000" stroke-linecap="round" stroke-linejoin="round" stroke-miterlimit="10" stroke-width=".5" d="M141.1211 331.84766l5.7578 4.03125"/></g><path fill="none" stroke="#000" stroke-linecap="round" stroke-linejoin="round" stroke-miterlimit="10" stroke-width=".5" d="M154.25781 332.13281l6.11719 3.46094m-6.11719-3.46094l.0625-2.45312m.82422 2.95703l.03516-1.22656m12.25 1l6.39844 2.90625m-6.39844-2.90625l-.15235-2.44922m1.08594 2.8711l-.15625-2.44923m12.44922 2.2461l6.57813 2.46875m-6.57813-2.46875l-.32031-2.4336m1.27734 2.79297l-.32031-2.4336m12.76172 1.8672l6.41015 2.8828m-6.41015-2.8828l-.16016-2.44922m1.09375 2.86718l-.08203-1.22265m12.96875 0l5.40234 4.49219m-5.40234-4.4922l.5-2.40234m18.30469 2.51563l-5.58203 4.26562m4.77343-3.64453l1.11328.50781m13.26954 2.75l-6.09766-3.49218m5.21094 2.98437l-.03906 1.22656m12.04296.94532l-1.70312-6.82031m1.70312 6.8203l-1.8203 1.64063m15.36718-1.70703l-2.16406-6.6875m2.16406 6.6875l-1.70313 1.76172m15.16797-1.8164l-2.46484-6.57813m2.46484 6.57812l-1.6211 1.83985m13.28907-1.64063l.82813-6.97656m-.70704 5.96094l-1.14453.44531m12.9961.125l3.51562-6.08594m-3.0039 5.19922l-1.22657-.04297m13.58203-4.84765l4.41016 5.46875m13.57031-5.2422l-4.92187 5.01563m4.20703-4.28515l1.17578.34765m12.89844-1.03515l-5.00781 4.92969m4.27734-4.21094l1.17187.36719m12.48047-1.4297l-4.22265 5.6172m3.60937-4.80079l1.21094.19141m14.0664 1.17969l-6.91796 1.23828m5.91015-1.05469l.75782.96485m13.48828-1.47657l-6.76563 1.89844m5.78125-1.6211l.84766.88673m11.32812-3.4961l-2.51953 6.5586m2.15235-5.60157l1.21875-.14844m12.53515-.77734l-2.66406 6.5m2.27734-5.55469l1.22266-.12109m9.29297-.5586l3.71094 5.96876m-3.17188-5.10157l.61719-1.05859m14.2461-.33203l-.46485 7.01172m.39844-5.98828l1.11718-.50391m12.13672-.52344l-.20703 7.02344m.17578-6.0039l1.09766-.54298m14.35937.3086l-4.42968 5.45312"/><g clip-path="url(#ai)"><path fill="none" stroke="#000" stroke-linecap="round" stroke-linejoin="round" stroke-miterlimit="10" stroke-width=".5" d="M465.77734 331.13672l2.40625.46875"/></g><g clip-path="url(#aj)"><path fill="none" stroke="#000" stroke-linecap="round" stroke-linejoin="round" stroke-miterlimit="10" stroke-width=".5" d="M141.6211 317.96484l4.7578 5.16797"/></g><path fill="none" stroke="#000" stroke-linecap="round" stroke-linejoin="round" stroke-miterlimit="10" stroke-width=".5" d="M154.44922 318.51563l5.73047 4.0664m-5.73047-4.0664l.3125-2.4336m12.45703 3.625l6.82422 1.67969m-6.82422-1.67969l-.60156-2.3789m13.82031 3.02343l7.01563.39453m-7.01563-.39453l-1.02734-2.22656m2.04687 2.28125l-1.02734-2.22656m13.33594 2.01953l6.99218.69922m-6.99219-.69922l-.92968-2.27344m1.94531 2.375l-.92969-2.27344m13.25781 1.9375l6.9297 1.16797m-6.9297-1.16797l-.77343-2.32812m1.78125 2.4961l-.38672-1.16407m12.86328.35938l6.59375 2.4375m-6.59375-2.4375l-.32813-2.4297m13.60547 2.53907l6.66797 2.21875m-5.69922-1.89453l-.20312-1.21094m14.76953 5.32813l2.23047-6.66407m-2.23047 6.66407l-2.42188.40625m15.54688-.47657l2.60938-6.52343m-2.60938 6.52343l-2.4414.26563M276.5 324l1.30078-6.90625M276.5 324l-2.33984.73438m16.71093-.69532l-.8125-6.98047m.69532 5.96485l-1.00782.69531m14.0547.34375l-.03907-7.02734m.03125 6.0039l-1.07813.58203m15.66797.19532l-2.57422-6.53907m2.19922 5.58985l-.79687.92969m16.41406-1.82422l-6.42578-2.84766m5.48828 2.4336l.08984 1.22265m14-3.97266l-6.10156 3.48047m5.21485-2.97656l1.03515.65625m11.58985-2.60938l-2.94922 6.37891m2.51953-5.45312l1.22656-.06641m12.95313-.6211L368.44922 323.5m18.61328-3.8711l-6.78125 1.83594m5.79297-1.5664l.83984.89453m12.1875-3.05078l-4.23047 5.61328m3.61329-4.79688l1.21093.19141m11.95703-1.44531l-2.70312 6.48437m2.70312-6.48437l2.44532-.23047m9.54687-.03906l-.05469 7.02734m.04688-6.0039l1.08594-.57032m12.64843 6.54688l-.8789-6.97266m.75 5.95703l-1 .70703m17.34375-4.27734l-6.67578 2.19531m6.67578-2.19531l1.76953 1.69922m11.16016-2.5039l-5.90625 3.80468"/><g clip-path="url(#ak)"><path fill="none" stroke="#000" stroke-linecap="round" stroke-linejoin="round" stroke-miterlimit="10" stroke-width=".5" d="M466.51563 318.64453l2.14062 1.19922"/></g><path fill="none" stroke="#000" stroke-linecap="round" stroke-linejoin="round" stroke-miterlimit="10" stroke-width=".5" d="M465.65625 319.19922l1.07031.59765"/><path fill="#00f" fill-rule="evenodd" d="M388.23828 467.64844h8.61719V457.5039h-8.61719v10.14453"/><path fill="azure" fill-rule="evenodd" d="M390.07031 459.33594h.83594v2.82422h3.28516v-2.82422h.83203v6.48047h-.83203v-2.91797h-3.28516v2.91797h-.83594v-6.48047"/><path fill="#ff3030" fill-rule="evenodd" d="M353.42578 436.57813h7.6914v-10.14454h-7.6914v10.14454"/><path fill="azure" fill-rule="evenodd" d="M355.25781 428.26563h.83594v5.74218h3.1914v.73828h-4.02734v-6.48046"/><path fill="#00f" fill-rule="evenodd" d="M383.80078 432.14063h8.61719v-10.14454h-8.61719v10.14454"/><path fill="azure" fill-rule="evenodd" d="M385.63281 423.82813h.83203v2.82421h3.28907v-2.82421h.83203v6.48046h-.83203v-2.91796h-3.28907v2.91796h-.83203v-6.48046"/><path fill="#00f" fill-rule="evenodd" d="M219.58203 414.38672h8.61719v-10.14453h-8.61719v10.14453"/><path fill="azure" fill-rule="evenodd" d="M221.41406 406.07422h.83203v2.82422h3.28907v-2.82422h.83203v6.48047h-.83203v-2.91406h-3.28907v2.91406h-.83203v-6.48047"/><path fill="#ff3030" fill-rule="evenodd" d="M344.55078 405.51172h7.6914v-10.14453h-7.6914v10.14453"/><path fill="azure" fill-rule="evenodd" d="M346.38281 397.19922h.83203v5.73828h3.19532v.74219h-4.02735v-6.48047"/><path fill="#00f" fill-rule="evenodd" d="M370.48438 401.07422h8.62109v-10.14844h-8.6211v10.14844"/><path fill="azure" fill-rule="evenodd" d="M372.3164 392.76172h.83594v2.82031h3.28516v-2.82031h.83203v6.47656h-.83203v-2.91406h-3.28516v2.91406h-.83593v-6.47656"/><path fill="#ff3030" fill-rule="evenodd" d="M242.46875 361.1289h7.6914v-10.14843h-7.6914v10.14844"/><path fill="azure" fill-rule="evenodd" d="M244.30078 352.8164h.83203v5.73829h3.19531v.73828h-4.02734v-6.47656"/><path fill="#ffffe0" fill-rule="evenodd" d="M442.125 459.0039h22.17969v-10.1914H442.125v10.1914"/><path fill-rule="evenodd" d="M445.6211 450.64453h.51171v6.29297h-.78906v-4.48828h-1.38672v-.55469l.5586-.0664.2539-.0547.23047-.08984.20313-.14062.17187-.21094.14063-.29297.10546-.39453m4.81641 0l.23047.01953.21875.05469.20703.08984.19531.1211.1836.14844.17187.17578.30078.41796.2461.4961.17968.54687.10938.57813.03906.58984-.03906.59375-.10938.58594-.17968.55078-.2461.5039-.30078.4297-.17187.17968-.1836.15235-.19531.12109-.20703.09375-.21875.0586-.23047.01952-.23047-.01953-.21875-.05859-.20703-.09375-.19531-.1211-.1875-.15234-.17188-.17969-.30078-.42968-.24219-.5039-.17968-.55079-.11329-.58594-.03515-.59375h.83203l.02734.5625.08204.50781.125.44141.16406.375.1914.30078.21094.22266.22266.13672.22656.04687.22656-.04687.22266-.13672.21094-.22266.1914-.30078.16016-.375.125-.4414.08203-.50782.03125-.5625-.03125-.5586-.08203-.5039-.125-.4336-.16016-.36718-.1914-.28906-.21094-.21485-.22266-.1328-.22656-.04298-.22656.04297-.22266.13281-.21094.21485-.1914.28906-.16406.36719-.125.4336-.08204.5039-.02734.5586h-.83203l.03515-.58985.11329-.57813.17968-.54687.2422-.4961.30077-.41796.17188-.17579.1875-.14843.19531-.1211.20703-.08984.21875-.05469.23047-.01953m4.95313 0l.22656.01953.21875.05469.21094.08984.1953.1211.1836.14844.17188.17578.30078.41796.2461.4961.17968.54687.10937.57813.03907.58984-.03907.59375-.10937.58594-.17969.55078-.2461.5039-.30077.4297-.17188.17968-.1836.15235-.1953.12109-.21094.09375-.21875.0586-.22656.01952-.23047-.01953-.21875-.05859-.20704-.09375-.19921-.1211-.1836-.15234-.17187-.17969-.30078-.42968-.2422-.5039-.17968-.55079-.11328-.58594-.03906-.59375h.83594l.02734.5625.08203.50781.125.44141.16406.375.1914.30078.21095.22266.22265.13672.22656.04687.22657-.04687.22265-.13672.21094-.22266.1875-.30078.16406-.375.125-.4414.08204-.50782.03125-.5625-.03125-.5586-.08204-.5039-.125-.4336-.16406-.36718-.1875-.28906-.21094-.21485-.22265-.1328-.22656-.04298-.22657.04297-.22265.13281-.21094.21485-.1914.28906-.16407.36719-.125.4336-.08203.5039-.02735.5586h-.83593l.03906-.58985.11328-.57813.17969-.54687.24219-.4961.30078-.41796.17187-.17579.1836-.14843.19921-.1211.20704-.08984.21875-.05469.23046-.01953m4.95313 0l.38672.02735.35547.08203.32422.13671.28125.1875.22656.23829.17578.28515.10938.33203.03515.375-.01953.27735-.0586.23437-.08593.19922-.11328.17188-.1289.14062-.14063.125-.28516.19531.23047.1172.21094.14843.17968.17187.15625.19141.1211.21484.08984.23047.0586.24219.01953.25781-.03516.3086-.10547.32812-.17187.32422-.23829.30469-.30859.26953-.3711.21484-.21484.08203-.22656.0586-.2461.03906-.2578.01563-.26172-.01563-.2422-.03906-.22265-.0586-.20703-.08203-.35547-.21484-.29297-.26953-.22265-.30469-.15625-.32422-.09375-.32812-.03125-.3086h.83594l.02734.2539.07812.23438.1211.21094.16015.1836.19141.15234.22266.11719.23828.0703.25781.02735.2539-.02734.23829-.07031.22265-.1172.19141-.15233.16016-.1836.12109-.21094.07813-.23437.02734-.2539-.02735-.25391-.07812-.23438-.1211-.21094-.16015-.1875-.1914-.15234-.22266-.11328-.23828-.07422-.25391-.02344-.25781.02344-.23828.07422-.22266.11328-.1914.15234-.16016.1875-.1211.21094-.07812.23438-.02735.2539h-.83593l.01953-.2539.0586-.23829.08984-.22656.125-.20703.15234-.1914.17969-.17188.21094-.15234.23046-.13282-.28515-.1953-.14063-.125-.1289-.14063-.11329-.17188-.08593-.19922-.0586-.23437-.01953-.27735h.78516l.02344.21485.0664.1914.10547.16797.13672.14063.16406.10937.1875.08203.20703.05079.22266.01562.21875-.01563.20703-.05078.1875-.08203.16406-.10937.14063-.14063.10156-.16797.0664-.1914.02344-.21485-.02343-.21484-.0664-.1875-.10157-.16797-.14063-.14062-.16406-.10938-.1875-.08203-.20703-.05078-.21875-.01563-.22266.01563-.20703.05078-.1875.08203-.16406.10938-.13672.14062-.10547.16797-.0664.1875-.02344.21484h-.78516l.03516-.375.10937-.33203.17579-.28515.22656-.23829.28125-.1875.32422-.13671.35546-.08204.39063-.02734"/><path fill="#ffffe0" fill-rule="evenodd" d="M337.30469 326.44531h22.17969V316.25h-22.1797v10.19531"/><path fill-rule="evenodd" d="M340.80469 318.08594h.50781v6.29297h-.78516v-4.48829h-1.39062v-.55468l.5625-.0664.25-.0547.23047-.08984.20312-.14063.17578-.21093.14063-.29297.10547-.39453m4.8125 0l.23047.01953.21875.05469.20703.08984.19922.1211.18359.14843.17188.17578.30078.41797.24218.4961.1797.54687.11327.57813.03906.58984-.03906.59375-.11328.58203-.17969.55469-.24218.5039-.30079.42579-.17187.17968-.1836.15625-.19921.1211-.20703.09375-.21875.05468-.23047.01954-.22656-.01954-.21875-.05468-.21094-.09375-.19531-.1211-.1836-.15625-.17187-.17969-.30079-.42578-.24218-.5039-.1836-.55469-.10937-.58203-.03906-.59375h.83203l.03125.5625.08203.50781.125.4414.16406.375.1875.30079.21094.22265.22265.13672.22657.04688.22656-.04688.22266-.13671.21093-.22266.19141-.30078.16406-.375.125-.4414.08203-.50782.02735-.5625-.02735-.5625-.08203-.5-.125-.4336-.16406-.36718-.1914-.29297-.21094-.21094-.22266-.13281-.22656-.04688-.22656.04688-.22266.13281-.21094.21094-.1875.29297-.16406.36719-.125.43359-.08203.5-.03125.5625h-.83203l.03906-.58985.10937-.57812.1836-.54688.24219-.49609.30078-.41797.17187-.17578.1836-.14844.1953-.12109.21094-.08984.21875-.0547.22657-.01952m5.09375 0h.50781v6.29297h-.78516v-4.48829h-1.39062v-.55468l.5625-.0664.25-.0547.23047-.08984.20312-.14063.17188-.21093.14453-.29297.10547-.39453m2.82422 2.17578h.78515l.01953-.3164.0586-.28907.10156-.25.14063-.21484.17968-.17579.22266-.1289.26562-.08203.3086-.02735.23828.02344.22265.0625.20313.10156.17969.13672.14844.17578.11328.20313.0703.23828.02735.26172-.02344.26953-.0664.22656-.10938.1914-.15234.17188-.20313.16016-.24609.16797-.63281.38672-.53906.3125-.4375.32031-.34766.32422-.26172.33594-.1914.34765-.125.3711-.07032.39453-.01953.41797h4.21094v-.73829h-3.33203l.08203-.28515.11719-.23828.14843-.19922.1836-.1836.23437-.16796.27735-.17579.71484-.41796.41797-.20704.34375-.23046.28125-.25.21875-.26563.16406-.28125.11328-.28125.0625-.28515.01953-.28125-.04296-.38282-.1172-.34765-.1914-.3086-.25-.26562-.30078-.21094-.34766-.15625-.3789-.10156-.40625-.03125-.4375.03125-.39453.09765-.35547.16797-.30469.23438-.25.30469-.1836.375-.11718.4453-.03906.51954"/><path fill="#ffffe0" fill-rule="evenodd" d="M163.03516 392.42578h22.17968v-10.1914h-22.17968v10.1914"/><path fill-rule="evenodd" d="M166.53125 384.07031h.51172v6.29297h-.78906V385.875h-1.38672v-.5586l.5586-.0625.2539-.05468.22656-.08985.20703-.14062.17188-.21094.14062-.29297.10547-.39453m4.8164 0l.22657.01563.21875.0586.21094.08983.1953.1172.1836.15234.17188.17578.30078.41797.2461.49218.17968.54688.10938.58203.03906.58984-.03906.59375-.10938.58204-.17969.55468-.2461.5039-.30077.42579-.17188.17969-.1836.15234-.1953.125-.21094.09375-.21875.05469-.22656.01953-.23047-.01953-.21875-.05469-.20703-.09375-.19922-.125-.1836-.15234-.17187-.17969-.30078-.42578-.24219-.5039-.17969-.5547-.11328-.58203-.03516-.59375h.83204l.02734.5625.08203.50782.125.4414.16406.375.19141.30078.21094.21875.22265.14063.22657.04687.22656-.04687.22266-.14063.21093-.21875.1875-.30078.16406-.375.125-.4414.08204-.50782.03125-.5625-.03125-.5625-.08203-.5-.125-.43359-.16407-.36719-.1875-.29297-.21094-.21484-.22265-.1289-.22656-.04688-.22657.04687-.22265.12891-.21094.21484-.1914.29297-.16407.36719-.125.4336-.08203.5-.02734.5625h-.83203l.03515-.58985.11328-.58203.17969-.54688.24219-.49218.30078-.41797.17187-.17578.1836-.15235.19922-.11719.20703-.08984.21875-.0586.23047-.01562m5.08984 0h.50781v6.29297h-.78515V385.875h-1.38672v-.5586l.5586-.0625.25-.05468.23046-.08985.20313-.14062.17578-.21094.14062-.29297.10547-.39453m2.82422 2.17188h.78516l.01953-.3164.0625-.28517.09765-.25.14063-.21875.17969-.17187.22265-.1289.26563-.08204.30859-.02734.23828.02344.22266.0625.20703.10156.17578.13672.14844.17578.11328.20312.07422.23829.02344.26171-.01954.26954-.0664.22656-.10938.1914-.15625.17188-.20312.16015-.2461.16797-.6328.38672-.53907.3125-.4375.3164-.34375.32813-.26563.33204-.1914.35156-.125.3711-.0664.39452-.02345.41797h4.21485v-.74219h-3.33203l.08203-.28125.11328-.23828.14844-.20312.1875-.17969.23047-.17188.27734-.17578.71875-.41406.41406-.20703.34766-.23047.27734-.25.22266-.26953.16406-.27734.10938-.28125.0625-.28516.01953-.28125-.03907-.38281-.12109-.35156-.1875-.3047-.2539-.26562-.30079-.21094-.34375-.16015-.38281-.09766-.40625-.03125-.4336.03125-.39843.09766-.35547.16797-.30469.23437-.25.30469-.1836.3711-.11718.44921-.03906.51563"/></g></defs><use xlink:href="#al"/></svg>