<svg xmlns="http://www.w3.org/2000/svg" role="img" xmlns:xlink="http://www.w3.org/1999/xlink" viewBox="142.45 309.95 326.84 171.84"><defs><clipPath id="a"><path d="M144 311.67188h1V479h-1zm0 0"/></clipPath><clipPath id="b"><path d="M144 478h3v2.32813h-3zm0 0"/></clipPath><clipPath id="c"><path d="M144 311.67188h324v168.65625H144zm0 0"/></clipPath><clipPath id="d"><path d="M217 477h11v3.32813h-11zm0 0"/></clipPath><clipPath id="e"><path d="M380 467h25v13.32813h-25zm0 0"/></clipPath><clipPath id="f"><path d="M399 474h4v6.32813h-4zm0 0"/></clipPath><clipPath id="g"><path d="M467 311.67188h1v168.65625h-1zm0 0"/></clipPath><clipPath id="h"><path d="M144 479h4v1.32813h-4zm0 0"/></clipPath><clipPath id="i"><path d="M147 480h2v.32813h-2zm0 0"/></clipPath><clipPath id="j"><path d="M146 480h2v.32813h-2zm0 0"/></clipPath><clipPath id="k"><path d="M153 479h9v1.32813h-9zm0 0"/></clipPath><clipPath id="l"><path d="M160 480h2v.32813h-2zm0 0"/></clipPath><clipPath id="m"><path d="M159 480h2v.32813h-2zm0 0"/></clipPath><clipPath id="n"><path d="M166 479h9v1.32813h-9zm0 0"/></clipPath><clipPath id="o"><path d="M173 480h2v.32813h-2zm0 0"/></clipPath><clipPath id="p"><path d="M172 480h2v.32813h-2zm0 0"/></clipPath><clipPath id="q"><path d="M180 479h8v1.32813h-8zm0 0"/></clipPath><clipPath id="r"><path d="M187 480h2v.32813h-2zm0 0"/></clipPath><clipPath id="s"><path d="M186 480h1v.32813h-1zm0 0"/></clipPath><clipPath id="t"><path d="M193 479h8v1.32813h-8zm0 0"/></clipPath><clipPath id="u"><path d="M200 480h2v.32813h-2zm0 0"/></clipPath><clipPath id="v"><path d="M199 480h2v.32813h-2zm0 0"/></clipPath><clipPath id="w"><path d="M206 479h9v1.32813h-9zm0 0"/></clipPath><clipPath id="x"><path d="M220 479h8v1.32813h-8zm0 0"/></clipPath><clipPath id="y"><path d="M233 478h8v2.32813h-8zm0 0"/></clipPath><clipPath id="z"><path d="M247 478h7v2.32813h-7zm0 0"/></clipPath><clipPath id="A"><path d="M260 478h8v2.32813h-8zm0 0"/></clipPath><clipPath id="B"><path d="M275 476h5v4.32813h-5zm0 0"/></clipPath><clipPath id="C"><path d="M286 478h9v2.32813h-9zm0 0"/></clipPath><clipPath id="D"><path d="M303 476h2v4.32813h-2zm0 0"/></clipPath><clipPath id="E"><path d="M314 477h6v3.32813h-6zm0 0"/></clipPath><clipPath id="F"><path d="M327 478h7v2.32813h-7zm0 0"/></clipPath><clipPath id="G"><path d="M340 477h7v3.32813h-7zm0 0"/></clipPath><clipPath id="H"><path d="M353 478h8v2.32813h-8zm0 0"/></clipPath><clipPath id="I"><path d="M353 480h3v.32813h-3zm0 0"/></clipPath><clipPath id="J"><path d="M366 480h9v.32813h-9zm0 0"/></clipPath><clipPath id="K"><path d="M379 479h9v1.32813h-9zm0 0"/></clipPath><clipPath id="L"><path d="M380 479h2v1.32813h-2zm0 0"/></clipPath><clipPath id="M"><path d="M393 478h8v2.32813h-8zm0 0"/></clipPath><clipPath id="N"><path d="M393 480h2v.32813h-2zm0 0"/></clipPath><clipPath id="O"><path d="M406 479h8v1.32813h-8zm0 0"/></clipPath><clipPath id="P"><path d="M406 479h3v1.32813h-3zm0 0"/></clipPath><clipPath id="Q"><path d="M420 478h7v2.32813h-7zm0 0"/></clipPath><clipPath id="R"><path d="M420 480h2v.32813h-2zm0 0"/></clipPath><clipPath id="S"><path d="M434 477h6v3.32813h-6zm0 0"/></clipPath><clipPath id="T"><path d="M448 476h4v4.32813h-4zm0 0"/></clipPath><clipPath id="U"><path d="M460 478h7v2.32813h-7zm0 0"/></clipPath><clipPath id="V"><path d="M460 480h2v.32813h-2zm0 0"/></clipPath><clipPath id="W"><path d="M144 466h4v2h-4zm0 0"/></clipPath><clipPath id="X"><path d="M144 452h4v4h-4zm0 0"/></clipPath><clipPath id="Y"><path d="M144 438h4v5h-4zm0 0"/></clipPath><clipPath id="Z"><path d="M144 425h4v5h-4zm0 0"/></clipPath><clipPath id="aa"><path d="M144 412h4v4h-4zm0 0"/></clipPath><clipPath id="ab"><path d="M466 412h2v3h-2zm0 0"/></clipPath><clipPath id="ac"><path d="M144 399h4v2h-4zm0 0"/></clipPath><clipPath id="ad"><path d="M466 398h2v4h-2zm0 0"/></clipPath><clipPath id="ae"><path d="M144 386h4v3h-4zm0 0"/></clipPath><clipPath id="af"><path d="M466 384h2v3h-2zm0 0"/></clipPath><clipPath id="ag"><path d="M144 372h4v4h-4zm0 0"/></clipPath><clipPath id="ah"><path d="M466 371h2v3h-2zm0 0"/></clipPath><clipPath id="ai"><path d="M144 357h3v7h-3zm0 0"/></clipPath><clipPath id="aj"><path d="M465 357h3v3h-3zm0 0"/></clipPath><clipPath id="ak"><path d="M144 343h2v8h-2zm0 0"/></clipPath><clipPath id="al"><path d="M144 341h1v4h-1zm0 0"/></clipPath><clipPath id="am"><path d="M465 344h3v1h-3zm0 0"/></clipPath><clipPath id="an"><path d="M144 331h3v6h-3zm0 0"/></clipPath><clipPath id="ao"><path d="M465 330h3v2h-3zm0 0"/></clipPath><clipPath id="ap"><path d="M144 317h3v7h-3zm0 0"/></clipPath><clipPath id="aq"><path d="M466 318h2v3h-2zm0 0"/></clipPath><g id="ar" clip-path="url(#clip1)"><path fill="#fff" fill-opacity="0" fill-rule="evenodd" d="M0 0h1000v1000H0zm0 0"/><path fill="#d3d3d3" fill-opacity="0" fill-rule="evenodd" d="M162.15234 355.86719l-.23437.29297.0586.23437.11718.17188.17578.23437.29297.34766.11328.0586.11719-.17188.0586-.23438.17577-.17578.46485-.17578h.69922l.23437.29297.28906.8164.0586.17579.17578.23046.35156.23438.69922.69922.17188.17578.23437.34765.23438.41016.28906.58203.41015.46485.23047.23437.23438.17578.11719.23047.17578.29297.17187 1.16406v.23438l.0586.28906.05859.11719.11719.11719.34765.41015.11719.17188.17578.17578.17578.23437.11719.17188.17188.35156.05859.23438.23437.40625.23438-.0586-.17578.17578-.0586.92969h-.58203l-.23437-.11328-.34766.11328-.11719.11719-.05859.29297-.0586.17578-.11718.17187-.46484.29297-.0586.23438-.0586.11328v.64453l.0586.17187v.41016l.0586.0586v.40624l.05859.40625.11719.17579.05859.05859.23047.64062-.0586.29297v.69922l-.05859.58203v.23438l-.0586.23047-.05468.35156v1.92187l.05469.1172h.42578l-.36719.11718-.02344.35156.89063 1.16797 1.74219.53906 1.33984.35938v.53906l.08984.8086.53516.71484 1.51953.26953.89063-.08594.08984 1.16406.53516.1797 1.16015-.1797 2.05469-.98437 1.16016-.36328 1.8789-.17578 1.69531-.1797-.17968.71876-1.51563.08594-1.25.08984-.80469.26953-1.07421.8086.26953.71875.53515.89843-.17968.625-.26563.8086.26563 1.07812.625.89844.80468.17969 1.25-.1797-.26562.72267.09766.5039.05468.29297v.17188l.0586.29296v.40625l.17578.1172.35156.11718h.40625l.29297-.17578.11328-.11719.0586-.11719.11718-.23047.0586-.17578.35156-.46484.23047-.17578.17578-.0586.17578.0586.0586.17578.11718.98828.05469.46875.0586.17188.11718.23437.17578.0586.8164.05859h.28907l.11719.23437.05859.40625.0586.35156v1.10547l.11718.29297.11719.34766.28906.69922.17578.35156.58203.7539.35157.17579.17187.0586.46875.23437.64063.46484.34765.23438.29297.17578.29297.05468.23047.0625.8164.34766.29297.17578.11328.17188.35157.35156.11719.17578.52343.64063v.28906l.0586.35156v.34766l.05859.35156.0586.28906.11718.0586.17188.05859h.17578l.58203.23437.17578.1172.17578.28905.17578.23438.11328.23437.29297.23047.11719.11719v.41016l.0586.05468.28906.23438.23437.11719.0586.11718.11718.17188.0586.11719.23047.23437.05859.17578.23437.0586.1172.05859-.1172.11328-.05859.11719v.11719l-.11719.29296-.11719.28907v.58203l.17579.11719.11718.05859.0586.11719.11719.11719.11328.05859.17578.34765.0586.35157.05858.40625v.17578l-.05859.17578-.11719.69922v.17187l.1172.17579.29296.29296h.40625l.17578.1172.11719.17187.11719.29296v.23438h-.52735l-.23047-.23438h-.23437l-.17578.0586-.0586.69922.0586.34765.11719.17579.17578.41015.11718.23047.28907.46875.17578.05469h.52344l.23437.0586.75781.64062.0586.29296v.23438l.05859.0586.23047.34765v.35156l-.11719.17188v.29297l.29297.28906.29297.17578.17187.0586.29297.17577.29297.1172.58203.40624.28906.23438.29297.17578.21875.16015.01563.01172.23047.17579.64062.52343.17578.23438.1172.17578.17577.17578.11328.17188v.64062l.1172.17578.46874.11719.58203.11719.23438.05859.23047.11328.29297.11719.11328.0586.58593.35156.28907.17187.17578.0625.17578.05469.17578.0586.69922.35155.28906.17579.23438.05468.28906.17578.23437.1172.64063.40624.29297.11719.17187.0586.23438.05859.41015.05859.23047.0586.23438.11718.0586.17188-.41017.17578.46875.0586.0586.29296.11328.23438.17578.05468.23438.0586.17578.05859.40625.11719.64062.23437.11719.17188.0586.23437v.17578l-.0586.1172-.0586.40624.23438.23438.11719.05859.34766.11719.64062.23047.17578.11718.28906.1172.17578.17577.23438.46485.58203 1.10546.17578.17579.34766.17578.17578.11719.35156.11718 1.04688.52344.23437.0586.46485.11327.29297.0586.46484.17578.75781.58203.23438.23438.34765.46484.17578.17578.28907.23438.8164.69921.29297.17579.28906.28906.29297.17578.29297.28906.69531.64063.17578.17578.29297.23437.28907.23438.46875.28906.64062.58203.34766.23438.23437.29297.34766.34765.35156.46485.9336.99218.34765.40625.11719.17579.23437.05859.11328.11719.64454.17578.23047.11328.23437.0586.29297.17577.23047.1172.9336.69921.40624.40625.23438.17578.40625.17578.23437.11719.8164.34766.34766.23437.23438.11719.29297.28906.23047.11719.7578.35156.35157.17188.23047.05859.29297.11719.23437.0586.8711.17577h.8164l.46875.23047.17188.0586.875.69921.46484.1172.29297.05858.17578.0586.23047.0586.46875.05859.34766.05859.35156.0586.40625.05859h.29297l.17187.0586v.23046l.17578.17578h.29297l.34766.0586.35156.05859.69922.11719h.64063l.46484-.23438.29297-.17578.17187-.11719.41016-.17187.28906-.17578.9336-.46485.46875-.29297.52343-.29296.46485-.17188.46484-.17578 1.05078-.46485.28906-.11718.41016-.11719.28906-.11719.52735-.17578 1.51562-.69922.58203-.34765.28907-.0586.29297-.0586.34765-.11718.875-.23047.35156-.11719h.11329l.23437-.05859.875-.23437.23438-.0586h.8125l.35156-.0586.8164-.11718.17188-.0586.35156-.05468.29297-.0586.23047-.05859.8164-.17578.17579-.0586h.34765l.23438-.05859.46484-.11718.75781-.17188.23438-.0586h.34765l.41016-.11718.28906-.0586 1.28516-.05859h.28906l.41016-.0586.23047-.05858h.17578l.875-.1172h.40625l.41015-.11718h.34766l.35156-.11328.8711-.0586h1.75l1.04687.28907.41016.11719.28906.11718.35156.11719.28907.11719 1.05078.17187.28906.0586h.29297l.29297.05859.17187.0586.41016.05859.17187.0586.1172.05858h.11718l.11719.0586.35156.0586h.11328l.41016.0664 1.92187.39453 1.92578.39453 1.51953.44922 1.69532.71875 2.14453.80469 1.60547-.71875 1.42968-.80469 1.16016-1.07813 1.25-.44921 3.03516-.71875 1.875-.35938 2.14453-1.34765 2.23437-1.25391 2.5-1.25781 1.69531-.44922 1.78516-.17969 1.16016-.26953.625.53906 1.33984-.26953.71485-.98828.98437-1.34375.44531-.17969.80469-.35937 1.875-.53907 1.78516-.44921 1.25-.26954 1.16015-.08984 1.69922-.08984 1.96094-.26954 1.25-.08984h.53906l.625-.08984h.89063l2.14453-.17969 2.41015-.17969 2.58985-.08984 1.69531.17969 1.60938.08984 1.42968.35938 1.16016.71875 1.875.98828 1.16015 1.52734.26563.71484.6289.08985.35548.89844.53515.53906.53516 1.52734 1.07422.35938h.53515l-.80469.53515.08985 1.70703.71484 2.69532.89063.80468.89453.98829.71484 1.2578 1.78516.53907 1.51953-.17969.35547 1.34375 1.60937-.80469.98047-.53906.26953.26953.31641-.21484.21875-.14453.80078.44922.44922-.35938h.35547l.53515-.26953.53907-.71875.53515-.26953.625-.98828 1.16016.44922.83984.3711 1.39454.61718 1.6953-.17969h1.60548l1.78515.08985.17969-1.70704.53516-1.34375.80468.26954.4922.84765.40233.40625-.08984.53906v.35938l.71485.44922.71093-.26953h1.42969l.35938.98828.4453 1.25781.71485 1.34375 1.25.6289 1.69531.62891.71485-.17969.17969-.53906.98046-.08984.44922.35937.08594 1.25782-.26563.6289-.53515.17969v.53906l.71484.98438.26563.53906.98437.98828.80078 1.07813-.26562.35937-.08985.89844-.625 2.33203-.35546 2.0664-.08985 1.79298-.17969.71875-.08984.53906v1.4375l-.98047 1.88281-.35937 1.70703-.53516.89844-.80469 1.16797-.26562.53906 2.05469 1.2539.08593.35938-.35546.53906-.08985-.17968v.80859l.08985 1.4375-.44532.71484-1.07422.09375-.26562.71485.53515.89844.8047.71875 1.16015.80859 1.33984.26953.44531.35938-.35546.44921-1.78907-.08984-1.25-.44922-.71484-.71875-.625-.08984-.17578 3.58984-.1875 1.3086h89.35937V311.70313h-55.26953v49.08203l.76172.125 3.28906.54296 2.02344 2.83594v2.7539l2.35156.33204 2.34766.33203h4.05078l-1.3789 4.16016-2.02344.70703-2.02344.70312-.54297.34375-2.59375 1.6172-.1875.11718-2.02344-2.07813-.73046-2.74218-2.67188-2.07813-1.375-3.5-.0664-.08203-1.95704-2.67188 2.75-1.41796v-49.08204H294.42187v91.41407l.1172.03125.1328.01172.07422.07421.10547.04688.08985.0586.08593.05859.08985.0586.29687.29687.0586.08984.03125.11719.02734.11719.01563.13671-.03125.1172-.0586.08983-.0586.08594-.04296.10547-.04688.10156-.02734.1211v.14453l.17578.26953.14844.14844.07422.08594.07422.07421.04296.10547.0625.08985.0586.08593.04297.10547.0586.08985.04687.10156.04296.10547.0586.08594.11719.17968.07421.07422.0625.08594.0586.08984.04297.10547.0586.08985.05858.08593.0625.08985.0586.08984.04297.10156.11719.17969.07421.07422.0586.08594.07422.07421.08984.0586.10547.04687h.14844l.1328-.01562.13282.01562.10156-.04687.07422-.07422.04688-.10156-.01563-.13281v-.14844l-.04687-.10547-.02735-.11719-.04687-.10156-.02735-.1211-.04296-.10156-.0625-.08984-.04297-.10156-.04297-.10547-.03125-.11719-.01563-.13281-.01171-.13672.08593-.0586.0586-.08593.12109-.03125.04297.10547.01562.1328v.1172l.0586.10156.0586.08984.08983.0586.14844.14843.0586.08985.04296.10547-.01171.10156.08593.0586.10547.04687.08594.0586.08984.05858.07422.07422-.11719.02735-.10546.04687-.08594.0586-.07422.07421-.0586.08985-.0625.08594-.02734.12109-.04687.10156-.04297.10547-.03125.11719-.01172.13281-.01563.13281v.14844l.02735.11719.04687.10547.04297.10156.0586.08984.07421.07422.08985.0586.07422.07421.08984.0586.0586.08984.04296.10547.04688.10156.11719.03125.1328.01563h.14845l.11718-.03125.10547.04297.04297.10547.04688.10156.02734.1211L299.5 410l.02734.11719.03125.1211.02735.11718.10547.04297.10156.04687.13281-.01562.14844.14844.0625.08593.07422.07422.07031.07422.08984.0625.10547.04297.10156.04297.1172.03125.13671.01562.11719-.03125.07422-.07422.02734-.11718-.01172-.13282-.03125-.12109-.02734-.11719.04297-.10547h.11719l.08984.0625.11719.02735h.14843l.13282.01562h.14843l.13282.01563.1328-.01563h.14845l.1328-.01562.13282-.01172.13672.01172.11719-.02735.13281-.01562.1914-.0586-.05859.17579-.01562.1328-.02735.1211-.01562.13281-.0586.08594-.1328.01563-.10548.04687-.10546.04297-.1172.03125-.11718.02735-.26563.03125h-.14843l-.13281.01562-.07422.07422.05859.08594.14844.14843.11719.1797.07421.0703.08985.0625.08984.0586.08594.0586.08984.05858.10156.04297.10547.0625.10547.04297.08594.0586.10547.04687.10156.04297.17969.11719.0586.08984-.04298.10156-.04687.10547.01562.13281.22266.22266.0586.08985.04296.10156.03125.1211.04297.10155.01563.13282.03125.11718.01171.13672.03125.11719.14844.14844.10156.04297.10547.04296.1172.03125.1328.01563.13672.01563h.11719l.11719-.03125.08984-.0586.04297-.10547.04688-.10156.04296-.10547.03125-.11719.01172-.1328v-.14845l-.01172-.1328-.01562-.13282-.03125-.11719-.04297-.10547-.04688-.10547-.04296-.10156-.04297-.10547-.01563-.13281.01563-.13281.02734-.11719.03125-.11719.02735-.1211.04687-.10155.08984-.0586.08594-.0625.07422-.07422.08984-.05859.22266-.22266.0586-.08593.07421-.07422.11719-.17969.0586-.08594v-.14844l-.07423-.07421-.10156-.04688-.10547-.04297-.10156-.04297-.0586-.08984-.04687-.10547-.02734-.11719.08984-.05859.11719-.03125.10156-.04297.17969-.11719.14844-.14843.01172-.13282-.01172-.10546-.08985-.0586-.1328.01563h-.14845l-.1328.01562-.13282-.01562-.1211-.03125-.08593-.0586-.07422-.07422-.0586-.08984-.0625-.08594-.11718-.17969-.0586-.08593.03125-.1211.08594-.05859.1211-.03125.05859-.08594v-.1211l-.03125-.11718-.0586-.08984-.05859-.08594-.04687-.10547-.02735-.11719-.01562-.1328.0586-.08985.07421-.07422.08984-.0586.1172-.17968.07421-.07422.0586-.08594.14843-.14844.1211-.03125.1328-.01562.13282.01562.07422.07422.04297.10547.01562.13281-.03125.1172-.11719.03124-.1328.01172-.14844.14844-.04297.10547-.04688.10156-.02734.1211-.03125.11718v.14844l.03125.11719.04297.10546.05859.08985.07422.07031.07422.07422.11719.03125.12109.02734.11719-.02734.1328-.01563h.1172l.08984.0586.07422.07422.04687.10546.0586.08594.10156.04688.13281.01562.10547.04297.08594.0586-.01172.10546-.07422.07422-.17969.11719-.05859.08984-.08984.0586-.07032.07422-.07421.07421-.0625.08985-.02735.11719-.01562.1328.01562.13282-.01562.13281v.14844l.01562.13281.02735.1172.03125.12108.07421.07422.08985.0586.08594.0586.08984.05858.11719.03125v.08594l-.10157.04688-.08984.0586-.26563.03124-.11718.02735h-.14844l-.10547.04296-.10156.04688-.0586.08984-.0625.23438-.01171.13281-.03125.1211-.01563.1328v.29298l-.01172.1328.01172.13673.01563.1328.1328.01563.13282.01172.1211.03125.08593.0586.07422.07421.04688.10547.04296.10157.01563.1328v.44532l-.01563.13281v.44532l.03125.26562.02735.11719.01562.13281.03125.11719.08594.21094.03125.26562v.14844l-.03125.11719-.02734.11718-.03125.1211-.02735.11719-.03125.11718-.03125.1211-.01171.1328-.01563.13282.08984.0586.1172-.03125.10155.01562.04688.10547-.03125.26562v.44141l-.04297.10547-.04688.10547-.04296.10156-.04297.10547-.0586.08594-.03125.12109-.04296.11719-.03125.11719-.01563.1328.01563.13282.05859.08984.10547.04688.08594.0586.05859.08593-.01172.13672-.03125.11719-.04297.10156v.44531l-.01562.13281v.14844l-.03125.11719-.04297.10547-.02735.11719-.04687.10546-.04297.10157-.03125.12109-.02734.11719-.03125.13281-.03125.11719-.02735.11719-.04297.10546-.03125.1172-.03125.12108-.01171.13282-.01563.13281v.29688l.02734.11718v.14844l.04688.39844.02734.11719.0586.08984.12109.03125h.14844l.13281-.01563.0586.08985v.11719l-.0586.08984-.08984.0586-.10157.04296-.10546.04688-.08985.05859-.08594.0586-.13671.01562-.1172-.03125-.1328-.01563-.10157.04688-.0625.08594-.01172.13671-.01562.13282-.03125.11719-.02735.11718-.01562.13281-.03125.1211v.29687l.01563.13282.03125.11718v.14844l.01171.13281v.14844l-.02734.11719-.04688.10156-.02734.1211-.03125.11718-.0586.08985-.07421.07421-.10156.04297-.10547.04688-.11719.02734-.1211.03125-.10156-.04687.0586-.08594.10547-.04688.02734-.11718.03125-.11719.02734-.1211.03125-.11718v-.14844l.01563-.13281-.03125-.11719-.04297-.10547-.10547.01563-.07422.07422-.10156.04296-.08984.0625-.07422.07422-.04297.10157-.01563.1328-.03125.1172L304.25 426l-.03125.11719-.02734.11719-.03125.12109-.02735.11719-.03125.11718-.04297.10547-.08984.0586h-.08984l-.1172-.03125-.03124-.08594.01562-.13672-.03125-.11719v-.14844l-.01171-.1328v-.14844l-.0625-.23438-.02735-.1211-.04297-.10156-.04687-.10546-.0586-.08594-.05859-.08985-.04297-.10546-.0625-.08594-.14844-.14844-.0703-.07422-.10548-.04687-.10547-.04297-.10156-.04297-.29687-.29688-.08985-.07421-.08594-.0586-.10546-.04297-.08985-.0625-.08594-.0586-.10546-.04296-.08985-.0586-.08594-.0625-.07421-.0703-.10547-.04688-.08594-.0586-.10547-.04296-.08984-.0625-.10156-.04297-.10547-.04297-.08594-.0586-.10547-.04687-.10547-.04297-.10156-.04687-.08985-.0586-.10156-.04297-.10547-.04296-.08984-.0625-.11719-.02735-.13281-.01562-.13281.01562H299.75l-.13281.01563-.11719-.03125-.08984-.0586-.07422-.07422-.08985-.05859-.10156-.04688h-.14844l-.12109-.02734-.10156-.04297-.07422-.07422-.11719-.17968-.08984-.0586-.10156-.04297-.08985-.0625-.10547-.04296-.08984-.0586-.08594-.0586-.10547-.04687-.0586-.08594-.05858-.08984-.04297-.10547-.04688-.10156-.07422-.07422-.08594-.0586-.07421-.07421-.08985-.0586-.22265-.22265-.04297-.10547-.03125-.26563.10547-.04296h.14453l.10547.04296.07421.07422.08985.0586.08594.0586.10546.04687.08985.05859.14844.14844.0703.07422.14845.14843.0625.08594.07421.07422.08594.0586.07422.07421.08985.0625.08984.0586.08594.05859.26953.17578.10156.04688.10547.04296.10156.04297.04688-.07421.05859-.08594.07422-.07422.07031-.07422.10547.04297.07422.07422.0586.08984.04296.10156.04688.10547.04296.10547.1211.02735.11719-.02735.07421-.08984.04297-.10547.0586-.08985.07422-.07421.10546-.04297.1172-.02735.1328.01172.08985.0586.14844.14843.05859.08985.04297.10547.04687.10156.04297.10547.04297.10156.10547.04688.10547.04296.13281.01563.08594-.0586.0586-.08984.07421-.07422.10547-.04297.11719.02735.10547.04687.10156.04297.10547.04297.10156.04688.17969.11718v.11719l-.01563.13281.01563.13281.01562.13672.0586.08594.10156.04688.1211.02734.11718.03125h.14844l.11719-.03125.05859-.08984.17969-.1172.05859-.08983.07422-.07422.0586-.08594.11718-.17969.17969-.11719.11719.03125.08984.0586.04297.07422-.01563.1328v.1172l.08985.05859h.14843l.13282-.01563.1328-.01171.26563-.03125.10547-.04297.11719-.03125.1211-.02735.07421-.07421.07031-.07422.0625-.08985-.01562-.10547-.04688-.10156-.10156-.04297-.10547-.01562-.11718.02734-.26563.03125h-.14844l-.07421-.07422-.08985-.0586-.11719-.03124-.11718-.02735-.13282-.01562h-.14843l-.13282.01563h-.29687l-.10547-.04688-.14844-.14844-.04297-.10156-.05859-.08984.22266-.22266.08593-.0586.10547-.04296.11719-.03125.13281-.01563.13281.01563.13672.01562.10157.04297.1328-.01172.08985-.0625.10156-.04297.0625-.08984-.04687-.10156-.08984-.0586-.1172-.03125-.10155-.04296-.0586-.08985-.0625-.08984v-.11719l.01563-.13281.10547-.04688.07421-.07031v-.1211l-.08984-.05859-.03125-.11719.08985-.05859.07421-.07422.04297-.10547.0586-.08984.04687-.10156.01563-.13281v-.14844l-.04688-.10547-.04297-.10156-.08984-.0586-.13281-.01562-.10157-.04297-.13671-.01563-.1172-.03125h-.4453l-.13282-.01562-.13281-.01172-.13281-.01563-.11719-.03125h-.14844l-.13281-.01562-.13281-.01172-.26563-.03125-.1211-.04297-.08593-.0586-.07422-.07421v-.14844l.01172-.13281.10547-.04688.10156-.04296.13281-.01563h.15235l.13281-.01562h.29297l.1211.03125.10156.04296.08984.0586.23438.0625.12109-.04688.08984-.05859.10156-.04297.13282-.01562.10547.04296.10156.04688.13281.01172.1211-.02735h.14453l.12109-.03125.11719-.02734.10547-.04687.07421-.07422.08594-.0586.14844-.14843.0586-.08594.04687-.10547.02734-.11719.01563-.10547-.10156-.04296-.08985-.0586-.11719-.03125-.10546-.04297-.08985-.0625-.07422-.08594-.07422-.07421-.10156-.04297-.10547-.04688-.10156-.04297-.0586-.08984-.04687-.10156-.08594-.21094-.0625-.08594-.05859-.08984-.07422-.07422-.08594-.0586h-.26953l-.11719.03126-.08984.05859-.10156.04297-.13281.01562-.10547-.01562-.02735-.11719-.0625-.08984-.11718-.03125-.10157-.04297-.14843-.14844-.03125-.11719-.01563-.10546.07422-.07422.17969-.1172.11719-.02733.11718-.03125.13672.01562.10156.04297.10547.04297.10156.04687.10547.04297.1172.03125.1328.01563.1172.02734.1328.01563.10547-.01563.08985-.0586-.07422-.07421-.10547-.04297-.07422-.07422-.07422-.08984-.14844-.14844-.08593-.0586-.08985-.05859-.07422-.07422-.08984-.0586-.10156-.04687-.1211-.02734-.10156-.04688-.10547-.04296-.11719-.03125-.10156-.04297-.1211-.03125h-.14843l-.11719.03125-.10546.04297-.08594.0625-.17969.11718-.08594.0586-.08984.0586-.10547.04687-.08594.05859-.10547.04297-.10156.04297-.10547.04687-.07422.07422-.05859.08985-.0586.08593-.04687.10547-.0586.08594-.07421.07422-.13281-.01172-.1172-.03125h-.11718l-.07422.07422-.08984.0586-.07422.07421-.08984.0586-.08594.05859-.10547.04687-.10156.04297-.13672.01563-.10156-.04297-.14844-.14844-.10547-.04688h-.08594l-.10547.04688-.10156.04297-.1211.03125-.11718-.03125-.07422-.07422v-.11719l.03125-.1211.07422-.0703.0586-.08985.07421-.07422.11719-.03125.10547-.04296h.29297l.13281-.01563.13672-.01563.10156-.04296.08985-.0586.10156-.04687.08984-.0586.13281-.01171.08985.05859.13281.01172.08984-.0586.08594-.05859.10547-.04297.08984-.0586.08594-.0625.08985-.05859.14843-.14843.0586-.08594.05859-.08985.10547-.04296.13281-.01563.11719.02735.1211.03125.05859-.0586.05859-.08984.03125-.26563.02734-.11719.10547.01172.13281.01563.10157-.04297.08984-.0586.0586-.08984.07421-.07422.0586-.08984.04687-.10156.01172-.13281-.01172-.13282-.04687-.10547-.14844-.14843-.0586-.08985-.05859-.08594-.04297-.10546v-.44532l.01563-.1328v-.14845l.01172-.1328-.0586-.0586-.08984.0586-.10156-.04298-.17969-.11719-.08594-.05859-.0625-.08984-.0586-.08985-.07421-.07421-.08594-.0586-.1211.03125-.10155.01172-.10547.04688-.08594.05859-.10547.04297-.14844.14844-.08984.05859-.08594.0586-.08984.0625-.10547.04296-.13281.01563v-.1211l.10547-.04297.11718-.03125.07422-.0703.04297-.10548v-.14844l-.02734-.11718-.14844-.14844-.13281-.01563h-.14844l-.11719.03125-.10547.04297-.10156.04297-.08984.0625-.11719.02735-.07422-.07422.01172-.13281-.04297-.10157-.04297-.10547-.08984-.05859-.11719.02734-.1211.03125-.11718.03125-.10156.04297-.1211.03125-.10156.04297-.10547.04297-.08984.0586-.10156.01562v-.11719l.01562-.13281-.0586-.08985-.07421.04297-.14844.14844-.0586.08985-.07421.07421-.04688.10547-.04296.10156-.07422.07422-.0586.08985-.07422.07422-.05859.08593-.07422.07422-.08984.0625-.07422.07031-.07422.07422-.10156.01563-.13281.01562-.10547-.04296v-.1211l.14843-.14844.04297-.10156.0586-.08984.04687-.10156.04297-.10547.0586-.08985.03124-.11719.04297-.10156.03125-.1211.02735-.11718.04687-.10547.04297-.10156.04297-.10547.07422-.07031.08984-.0625.08985-.0586.10156-.04296h.29687l.26563-.03125.10547-.04297-.07422-.07422-.11719-.03125-.10547-.04297-.08984-.0586-.10156-.04687-.08985-.0586-.10156-.04296-.10547-.04297-.08984-.0625-.08594-.0586-.10547-.04296-.10156-.04297-.1211-.03125-.11718-.03125-.10157-.04297L297.5 410.25l-.10156-.04297-.08985-.0586-.04296-.10546-.01563-.13281.10156-.04297.13281-.01563.13672.01563.13282-.01563.10156-.04297.0586-.08984.01562-.10547-.08985-.0586-.07421-.07421-.10157-.04297-.08984-.0586-.14844-.14843-.04297-.10547-.01562-.13281v-.29297l-.0586-.08985-.08984-.05859-.07422-.07422-.04297-.10547-.03125-.11718-.0586-.08985-.07421-.07422-.11719-.02734-.07422-.07422-.08984-.0586-.08984-.0625-.08594-.05859-.07422-.07421-.0586-.08594-.04687-.10547-.08594-.0586-.14843-.14843-.19532-.0586-.1328.01563-.10157.04297-.07422.07422-.04688.10156-.04296.10547-.0586.08984-.0586.08594-.29687.29687-.08984.0586h-.08594l-.0625-.08594-.04297-.10547.03125-.11719.0586-.08984.02734-.11719-.01172-.13281-.08984-.0625-.10547.04688-.11719.02734-.11719.03125-.26953.17578-.10156.04688-.11719.02734-.10546.04687-.08985.0586-.10156.04297-.0586-.08594-.04687-.10547.01563-.13281.04687-.10547.07031-.07422.07422-.07031.0586-.08985v-.14843l-.04297-.10547h-.23829l-.10156.04687-.03125.11719-.02734.11719-.03125.1211-.07422.04296-.13281.01563-.07422-.04688-.04297-.10156-.04297-.10547-.04687-.10156-.04297-.10547-.1211.03125-.10156.04297-.13281.01562-.11719.03125-.10547.04297-.08984.0586-.10156.04687-.1211.02734-.13281.01563-.10156-.04297-.0586-.08985-.04687-.10546-.04297-.10157-.04297-.10546v-.1172l.0586-.08984.08593-.05859.17969-.11719.10156-.04687.10547-.04297.10547-.0586.10156-.04296.08985-.0625.10156-.04297.10547-.0586.10156-.04687.08984-.0586.10547-.04296.10156-.04297.08985-.0625.10156-.04297.13672-.01563.11719.03125.10156.04297.1211.03125.10156.04297.10546.04688.10157.04296.10547.04297.10156.04688.10547.04297.10156.04297.10547.04687.08594.0586.10546.04296.1172.03125.10546.04297.10156.04688.08985.0586.10547.04296.10156.04297.10547.04687.11719.02735.10156.04687.1211.02735h.14843l.08594-.0586.01562-.10156.0586-.08984-.02735-.1172-.07422-.07421-.11719-.17969-.07421-.07422-.08985-.07421-.17969-.1172-.08593-.05859-.10547-.04296-.10156-.04688-.26954-.17578-.05859-.08985-.07422-.07421-.0586-.08985-.04296-.10156-.03125-.11719-.01563-.13672v-.5625l-.01171-.1328-.01563-.13282-.03125-.11719-.01562-.13281-.01172-.13281-.03125-.1211-.22266-.22265-.0586-.08594-.01562-.10547.03125-.11719.13281-.01562v-91.41406H172.9922v1.45312l-.0586.23438-.35156 1.05078-.17187.52343-.1172.34766-.17577.41016-.11719.17187-.23438.29297-.23046.0586h-.35157l-.11718.05859-.23047.40625v.29297l.11719.17578.23046.23047.1172.23437.64062.75781.29297.46485.17578.23437.23047.35156.23437.34766.64063.8164.17578.46485.17187.41016.11719.69531.17578.46875.11719 1.39844.0586.46484v.875l.11718 1.04688v4.78125l-.0586.46484-.35156 1.28125-.17578.52344-.11328.41015-.35156.9297L172.93359 336l-.23437.58203-.11719.17578-.17187.34766-.17578.40625-.35157.8164-.0586.29297-.11327.29297-.11719.28906-.0586.17579-.11718.875-.0586.40625-.05859.11718-.0586.17579-.05859.17187-.23047.52734-.11718.17188v.23437l-.11719.23438-.0586.17187-.17577.58594v.28906l-.0586.17579v.29296l-.0586.11329-.05859.52734v.17187l-.05468.23438v2.6211l-.17578.8164-.1172.17578-.17577.23438-.1172.17187-.11327.23438-.58594.93359-.23047.28906-.29297.46485-.17578.23437-.28906.35156-.35156.69922-.11328.23047-.17579.41016-.17578.23046-.40625.52735-.8164.69922-.29297.17187-.28906.23438-.17579.11719-.17578.17578-.52344.40625-.52734.17578-.17187.17578-.23438.05469-.64062.17578h-.75782m12.21094 31.02344l-1.07422.44921.35938.89454 1.25-.71485.44531-.53906-.98047-.08985"/><path fill="#d3d3d3" fill-opacity="0" fill-rule="evenodd" d="M201.50781 416.59766h-.89453l.44922.6289.98047.35938.80469-.08985.4453-.98828-.17577.08985-.71485-.35547-.89453.35547m154.6211 59.0703l-.0586-.52343v-.29297l.11328-.29297.0586-.23046.46875-.46875h.11328l.11719-.11329.11718-.05859h.17579l.23437-.0586h.34766l.23437.0586.11719.0586.23047.17187.0586.17578.11718.58203v.29297l-.11719.17578-.17187.28906-.17579.17579-.52734.52343-.23047.23438-.11719.0586h-.17578l-.11718-.0586-.40625-.29297-.17579-.11719-.11718-.0586-.0586-.11327-.05468-.1172m6.64062-10.95702l-.0586-.17188v-1.10937l.0586-.17188.17578-.0586.17188-.05858h.17578l.23437-.0586.1172.0586.05858.69921-.05859.17188-.11719.17578-.11718.0586-.23438.52343-.11328.0586h-.23438l-.05859-.1172m9.61328-14.39062l-.11719-.17578v-.69922l.29297-.875.1172-.17187.17577-.35156.11328-.23047.1172-.29297.35155-.75781.1172-.23047.17187-.23438h.17578l.11719-.0586h.64062l.11719.0586.23437.23438.17188.11328.35156.29297.11719.11718.11328.17579v.11328l.11719.05859.11718.11719v.69922l-.05859.17578v.23047l-.0586.17578-.34765 1.05078-.11719.23047-.11719.23437-.11718.0586-.23047.23437-.64063.28906h-.875l-.41015-.11718-.64063-.46485"/><path fill="none" stroke="#bebebe" stroke-linecap="round" stroke-linejoin="round" stroke-miterlimit="10" stroke-width=".5" d="M467.95703 311.69531H144.02734v168.625h323.9297v-168.625"/><g clip-path="url(#a)"><path fill="#fff" fill-opacity="0" fill-rule="evenodd" d="M144 475.89063v2.85546-167.07421h.0039H144v164.21875"/></g><g clip-path="url(#b)"><path fill="#50fcfc" fill-rule="evenodd" d="M144.0039 480.32813v-1.58204l2.07423 1.58204h-2.07422"/></g><g clip-path="url(#c)"><path fill="#fff" fill-opacity="0" fill-rule="evenodd" d="M144.0039 478.7461V311.67186h79.88673v106.81641l-4.4375.07813-4.4375.24218-4.44141.63672-4.4375 1.08985-3.57422 2.09375-.86328.34375-4.4375.875-4.4414-.90235-.90626-.3164-3.53125-.9336-4.4375.4336-1.33203.5-3.10547 1.17968-4.4414 1.09766-4.4375 1.5-.84766.66406-3.58984 2.95313-1.375 1.48437-3.0625 3.2539-1.44532 1.1836-2.99218 4.10938-.41016.32812-1.14063 4.4375 1.55079 3.58985.02343.85156-.02343 4.4375.58593 4.4375 2.76172 4.4375 1.08985.90625 1.83984-.90625 2.59766-.71485 4.4375-.33203 4.4375-.91015 4.4414-.45313 4.4375.33594 4.4375 1.10547 4.4375.39844 4.4414.16406 4.4375.30078 1.6836.10547 2.7539.46484 4.4375 1.71094 3.50782-2.17578.9336-.64063 4.4375-.66796 4.4375-1.85938 4.4375-.45313 2.03125-.8164 2.40625-.66797 4.4414-.8789 4.4375-.53126 4.27344-2.35937.16406-.17188 4.4375-1.64453 4.4375-.00781 4.4414-1.8789 4.4375 1.9375 4.4375-1.28126 4.03516-1.39062.40235-.35547 1.47656.35547 2.96484.42187 4.4375.14063 1.2461-.5625 3.1914-.64844 4.4375-.58594 3.32813-3.20703-3.32813-3.5039L289 440.3828l1.46484-.63672 3.63282-3.80078.23828-4.4375-3.8711-3.92187-4.4375.05469-4.4375-.29297-4.4375-.27344-4.4414.79297-.52735-.79688-3.91015-3.6914-3.70703 3.6914-.73047 1.34375-4.4375-.63281-4.4414.91016-3.17579 2.8164-1.26172 1.01563-1.01172-1.01563-3.42578-3.41406-4.4375-.3789-4.38281-.64454-.05469-.09375-3.57031-4.34765-.8711-.85547-4.4375-1.48438-4.4375-1.80078v-106.8164h133.15235V432.0078l-4.4414.1836-4.4375 1.89062-1.75391 1.86328 1.7539 1.72266v38.21875l-.0039.0039.0039.00391.0039-.0039-.0039-.00391v-38.21875L350 440.3828l2.60156 2.61328 4.4414 1.19141 4.4375-1.01953 4.4375-.88281 2.36329-1.90235-2.36328-2.1289-4.4375-.7461-.98438-1.5625-3.45312-3.9375V311.67187h22.1914v128.73047l-3.21093 4.41797 3.21094 3.82031.85156.6211-.85156.52734-4.44141.01563-2.64063 3.89453-1.79687 3.71875-.26172.71875-.45703 4.4375.71875.71875 2.29297-.71875 2.14453-1.9414 3.89453 1.9414.54688.10937.16015-.10937 3.42578-4.4375.85156-.73438 2.01172.73438-.94921 4.4375 3.375 3.59765 4.4375.73829 4.4375-.57422 1.60937.67969 2.83203 2.86718 2.76172-2.86719 1.67578-.53906 4.4375-.51953 3.53906-3.38281-3.53906-3.95313-4.4375-.22656-4.4375.1289-4.4414.3711-2.76954-.75781-1.0625-4.4375 2.92579-4.4375-2.97266-4.4414-.5586-.60938-4.4375-1.50781-3.5703 2.11718-.8672.4375-.30859-.4375-4.1289-4.41797V311.67188h4.4375v123.88671l-4.20313.38672 4.20313 1.49219.34375-1.49219-.34375-.38672V311.67188h84.32421v168.65625h-63.26953l-.05078-4.4375-3.25-3.53516-4.4414 3.08203-.78125-3.98438-3.65625-4.07421-4.4375 2.40625-1.21875 1.66796L383.67188 473l-3.53907 2.89063 3.53906 2.78515 3.37891-2.78515 1.0586-2.69141 4.4375 2.10156 3.83203.58985.60546.40625.8672 4.03125H227.05858l-3.16797-2.53125-4.4375.14843-2.24218 2.38281h-71.13281l-2.07422-1.58203"/></g><path fill="#50fcfc" fill-rule="evenodd" d="M157.3164 448.41016l-1.55077-3.58985 1.14062-4.4375.41016-.32812 2.99218-4.10938 1.44532-1.1836 3.0625-3.2539 1.375-1.48437 3.58984-2.95313.84766-.66406 4.4375-1.5 4.4414-1.09766 3.10547-1.17968 1.33203-.5 4.4375-.4336 3.53125.9336.90625.3164 4.4414.90235 4.4375-.875.86329-.34375 3.57422-2.09375 4.4375-1.08985 4.4414-.63672 4.4375-.24218 4.4375-.07813v1.03125l-4.4375.75-4.4375 1.65235-1.30859.70703-3.13281 1.96484-4.4375 1.5039-2.1211.97266-2.3164 1.97656-4.4375-.39062-4.4414.01563-4.4375.89843-4.4375.35938-2.51173 1.57812-1.92578.32031-4.4414.33594-4.4375.2461-3.03516 3.53515-1.40234.5039-4.4375.90235-2.8672 3.03125-1.17968 4.4375.1289 4.4414.2461 4.4375 2.02344 4.4375 1.64844 2.07813 4.4375-1.71484 4.4375-.01953 1.28515-.34375 3.15235-.8086 4.4414-.89062 4.4375.49219 4.4375.92969.55078.27734 3.88672 2.02734 4.4414-.33594 4.4375-.14843 4.4375.51172 4.4375-.01172 2.77345-2.04297 1.66797-1.07422 4.4375-.08203 4.4375-1.1289 4.4375-.4922 3.39062-1.66015 1.04688-1.54688 4.4414-.66796 4.4375-1.65625.54297-.56641-.54297-1.42578-4.4375-1.27344-4.4414.70703-4.4375-2.16015-.51563-.28907.24219-4.4375.27344-.65625 1.33984-3.78125 3.09766-1.09765 2.46484 1.09765 1.97656 1.39063v2.92969l-1.04297.11718 1.04297.22266.14453-.22266-.14453-.11719v-2.92968l3.73828 3.04687.69922 2.48047 4.4375.90625 2.41016-3.38672 2.02734-3.53906 3.10156-.89844-3.10156-.69922-3.72266-3.73828-.71484-.71484-4.4375-.10547-4.4375-2.46875-1.64062-1.14844-2.80078-2.83203-4.4375-.44531-.90625-1.16406-3.53125-3.10938v-1.03125l4.4375 1.80078 4.4375 1.48438.87109.85547 3.57031 4.34765.05469.09375 4.38281.64453 4.4375.37891 3.42578 3.41406 1.01172 1.01563 1.26172-1.01563 3.17578-2.8164 4.4414-.91016 4.4375.63281.73048-1.34375 3.70703-3.6914v1.34375l-2.35938 2.34765-2.07812 3.83203-4.4375-1.6875-4.28516 2.29297.20703 4.4375 4.07813 2.30078 2.13281-2.30078 2.30469-3.76562 4.4375-.21094v2.90625l-4.4375.08984-.60156.98047-3.83594 4.13672-4.4414.01172-4.4375.2461-.02345.04296.02344.13672 4.4375.09766 4.4414.1914 4.4375-.24218.47266-.1836 3.96485-3.10937v3.9375l-4.4375 1.1211-4.4375 1.05858-4.4414 1-.69532.4297.69531.85156 4.4414.8125 4.4375 2.28515 4.4375-1.92578 2.09376-2.02344-2.09375-3.60937v-3.9375l4.4375.23828 4.4414-.39844.91407-1.16797-.91407-.67578-4.4414-.16406-4.4375-.23047v-2.90625l4.4375 1.01953 4.4414.63672 3.13282 2.32031-3.13282 4.01172-1.57421.42578 1.57421.59766.59375-.59766 3.84375-2.76172 4.4375 2.1836 4.4375-2.07031 1.71094-1.78907 1.04688-4.4375-2.75782-2.79687-4.4375.41015-4.4375-.79296-4.4375.68359-4.4414.9961-1.95313-2.9375-2.48437-2.34766v-1.34375l3.91015 3.6914.52735.79688 4.4414-.79297 4.4375.27344 4.4375.29296 4.4375-.05468 3.8711 3.92187-.23828 4.4375-3.63282 3.80078-1.46484.63672 1.46484.9336v2.9414l-3.59765.5625 3.59765.51953.53907-.51953-.53907-.5625v-2.9414l3.32813 3.5039-3.32813 3.20703-4.4375.58594-3.1914.64844-1.2461.5625-4.4375-.14063-2.96484-.42187-1.47656-.35547-.40235.35547-4.03515 1.39062-4.4375 1.28125-4.4375-1.9375-4.4414 1.87891-4.4375.00781-4.4375 1.64453-.16407.17188-4.27344 2.35937-4.4375.53125-4.4414.87891-2.40625.66797-2.03125.8164-4.4375.45313-4.4375 1.85938-4.4375.66796-.9336.64063-3.50781 2.17578-4.4375-1.71094-2.7539-.46484-1.6836-.10547-4.4375-.30078-4.4414-.16406-4.4375-.39844-4.4375-1.10547-4.4375-.33594-4.44141.45313-4.4375.91015-4.4375.33204-2.59766.71484-1.83984.90625-1.08985-.90625-2.76172-4.4375-.58593-4.4375.02343-4.4375-.02343-.85156"/><path fill="#00e8fc" fill-rule="evenodd" d="M157.83594 449.26172l-.1289-4.4414 1.17968-4.4375 2.86719-3.03126 4.4375-.90234 1.40234-.5039 3.03516-3.53516 4.4375-.2461 4.4414-.33594 1.92578-.3203 2.51172-1.57813 4.4375-.35938 4.4375-.89844 4.4414-.01562 4.4375.39063 2.31642-1.97657 2.12109-.97265 4.4375-1.50391 3.13281-1.96484 1.3086-.70704 4.4375-1.65234 4.4375-.75v1.72266l-3.66407 1.38672 3.07813 4.4414-3.85156 3.0586-4.4375-.71094-.62891 2.08984-.01563 4.4375-3.79687 2.19531-4.41797 2.2422-.01953.01171-.0039-.01172-2.03126-4.4375-2.40234-1.41015-4.4375-1.9297-4.4414.44923-4.4375.61328-4.4375-.44531-4.4375.47265-4.44141 2.02344-.44141.22656-3.9961 1.53516-4.4375 1.51562-4.4375 1.20704-.17187.17968-3.0586 4.4375.13673 4.4414.69922 4.4375 2.39453 3.4297 4.4375-1.11329 4.4375-.8789 2.82422-1.4375 1.61328-.625 4.4414-.72266 4.4375.46485 1.67188.8828 2.76562 1.19532 2.05469-1.19531 2.38281-1.36719 4.4414.19922 4.4375.07031 4.4375-1.61328 4.13673-1.72656-.58203-4.4414.8828-1.56641 1.58595-2.8711 2.85547-4.0625 4.4375-.13281 4.4375.6914.69921-.93359.40235-4.4375 3.33594-3.59375v2.7539l-.77735.83985.77734 2.94922.97657-2.94922-.97656-.83984v-2.7539L232.5 431.5078l.26563.2539 4.4414 1.95313 2.03516-2.20703-2.03516-1.36328-4.3789-3.07422-.0625-.0625-4.4375-.70703-2.86329-3.67187-1.57422-1.38672v-1.72266l3.53125 3.10938.90625 1.16406 4.4375.44531 2.80079 2.83203 1.64062 1.14844 4.4375 2.46875 4.4375.10547.71484.71484 3.72266 3.73828 3.10156.69922-3.10156.89844-2.02734 3.53906-2.41016 3.38672-4.4375-.90625-.69922-2.48047-3.73828-3.04687-1.97656-1.39063-2.46484-1.09765-3.09766 1.09765-1.33984 3.78125-.27344.65625-.24219 4.4375.51563.28906 4.4375 2.16016 4.4414-.70703 4.4375 1.27344.54297 1.42578-.54297.5664-4.4375 1.65625-4.4414.66797-1.04688 1.54688-3.39063 1.66015-4.4375.4922-4.4375 1.1289-4.4375.08203-1.66796 1.07422-2.77344 2.04297-4.4375.01172-4.4375-.51172-4.4375.14844-4.4414.33593-3.88673-2.02734-.55078-.27735-4.4375-.92968-4.4375-.49219-4.4414.89063-3.15235.80859-1.28515.34375-4.4375.01953-4.4375 1.71484-1.64844-2.07812-2.02344-4.4375-.2461-4.4375"/><path fill="#00d4fc" fill-rule="evenodd" d="M158.66016 449.26172l-.13672-4.4414 3.0586-4.4375.17187-.1797 4.4375-1.20703 4.4375-1.51562 3.99609-1.53516.4414-.22656 4.44141-2.02344 4.4375-.47265v2.20703l-4.4375.13281-.79687.38281-3.64453 1.47656-4.4375 2.75-.65235.21094-3.78515.1836-4.4375.88671-2.41016 3.3672.14453 4.4414 1.14844 4.4375 1.11719 1.60156 4.4375-1.55078.17578-.05078 4.26172-1.32031 4.4375-1.7422 4.4414-.84765 4.07813-.52734.35937-.03125.14844.03125 4.28906 2.07031 4.4375-1.92578.3711-.14453 4.0703-2.83203 2.96485-1.60938-2.96484-2.69922-.76172-1.73828.76172-2.78515.73047-1.65235-.73047-.35937-1.84375.35937-2.59766.65235-4.4375-.35938-2.52734-.29297-1.91016-.51562v-2.20703l4.4375.4453 4.4375-.61327 4.4414-.44922 4.4375 1.92969 2.40235 1.41015 2.03125 4.4375.0039.01172.01954-.01172 4.41797-2.24219 3.79687-2.1953.01563-4.4375.6289-2.08985 4.4375.71094 3.85157-3.0586-3.07813-4.4414 3.66406-1.38672 1.57422 1.38672 2.86328 3.67187 4.4375.70703.0625.0625 4.37891 3.07422 2.03516 1.36328-2.03516 2.20703-4.4414-1.95312-.26563-.2539-4.17188-3.59376-3.33593 3.59375-.40235 4.4375-.69922.9336-4.4375-.69141-4.4375.13281-2.85546 4.0625-1.58594 2.8711-.88281 1.5664.58203 4.4414-4.13672 1.72657-4.4375 1.61328-4.4375-.07031-4.4414-.19922-2.38282 1.36719-2.05469 1.19531-2.76562-1.19531-1.67188-.88281-4.4375-.46485-4.4414.72266-1.61328.625-2.82422 1.4375-4.4375.8789-4.4375 1.11329-2.39453-3.4297-.69922-4.4375"/><path fill="#00c4fc" fill-rule="evenodd" d="M159.48828 449.26172l-.14453-4.4414 2.41016-3.3672 4.4375-.88671 3.78515-.1836.65235-.21094 4.4375-2.75 3.64453-1.47656.79687-.38281 4.4375-.13281v1.04297l-4.4375.3125-4.4414 2.21093-2.16797 1.38672-2.26953 1.22266-4.4375-.63672-4.4375 1.625-1.59375 2.22656.15625 4.4414 1.4375 4.14063 4.4375-1.15625 4.4375-2.2539 1.83203-.73047 2.60547-.9336 4.4414-.52343 4.4375-.1875 4.4375.16797 4.4375-2.125 1.08985-.83985-1.08985-4.14062-.01953-.29688-4.41797-3.19922-4.4375-.71093v-1.04297l1.91016.51562 2.52734.29297 4.4375.35938 2.59766-.65235 1.84375-.35937.73047.35937-.73047 1.65235-.76172 2.78515.76172 1.73828 2.96484 2.69922-2.96484 1.60938-4.07031 2.83203-.3711.14453-4.4375 1.92578-4.28906-2.07031-.14844-.03125-.35937.03125-4.07813.52734-4.4414.84766-4.4375 1.74219-4.26172 1.3203-.17578.05079-4.4375 1.55078-1.1172-1.60156-1.14843-4.4375"/><path fill="#00b8fc" fill-rule="evenodd" d="M160.3164 449.26172l-.15624-4.4414 1.59375-2.22657 4.4375-1.625 4.4375.63672 2.26953-1.22266 2.16797-1.38672 4.4414-2.21093 4.4375-.3125v.68359l-4.4375.6836-4.23047 2.54296-.21093.6914-4.4375 1.85938-4.4375-1.5625-4.4375 2.36329-.77735 1.08593.16406 4.4414.61329 1.76173 4.4375-.26172 2.6328-1.5 1.8047-1.45703 4.4375-1.60938 4.4414-.23047 4.4375.04297 4.19531-1.1875.2422-.07422 3.11327-4.36328-3.11328-2.2539-4.4375-.97266v-.6836l4.4375.71094 4.41797 3.19922.01953.29688 1.08985 4.14062-1.08985.83985-4.4375 2.125-4.4375-.16797-4.4375.1875-4.4414.52344-2.60547.93359-1.83203.73047-4.4375 2.2539-4.4375 1.15625-1.4375-4.14062"/><path fill="#00a8fc" fill-rule="evenodd" d="M161.14063 449.26172l-.16407-4.4414.77735-1.08594 4.4375-2.36329v.40235l-4.41016 3.04687 4.25 4.4414.16016.01173.02734-.01172 4.41016-3.55469 2.40234-.88672-2.40234-.5586-4.4375-2.48827v-.40235l4.4375 1.5625 4.4375-1.85937.21093-.6914 4.23047-2.54298 4.4375-.68359v.6875l-4.4375 1.05078-2.47656 1.48828 2.47656 3.5039 4.4375.63673 4.4375-1.60938 1.8086-2.53125-1.8086-1.3086-4.4375-1.23046v-.6875l4.4375.97266 3.11328 2.2539-3.11328 4.36328-.24219.07422-4.1953 1.1875-4.4375-.04297-4.44141.23047-4.4375 1.60938-1.8047 1.45703-2.6328 1.5-4.4375.26172-.61328-1.76172"/><path fill="#009800" fill-rule="evenodd" d="M166.03125 449.26172l-4.25-4.4414 4.41016-3.04688v.40234l-3.82813 2.64453 3.82813 3.85938 4.07812-3.85938-4.07812-2.64453v-.40234l4.4375 2.48828 2.40234.5586-2.40234.88671-4.41016 3.55469-.02734.01172-.16016-.01172"/><path fill="#00ac00" fill-rule="evenodd" d="M166.1914 448.67969l-3.82812-3.85938 3.82813-2.64453v.40625l-3.2422 2.23828 3.2422 3.26953 3.45703-3.26953-3.45703-2.23828v-.40625l4.07812 2.64453-4.07812 3.85938"/><path fill="#00c800" fill-rule="evenodd" d="M166.1914 448.08984l-3.24218-3.26953 3.24219-2.23828v.80469l-2.07813 1.4336 2.07813 2.09765 2.21484-2.09766-2.21484-1.4336v-.80468l3.45703 2.23828-3.45703 3.26953"/><path fill="#10cc00" fill-rule="evenodd" d="M166.1914 446.91797l-2.07812-2.09766 2.07813-1.4336v.8047l-.91407.6289.91407.92188.97265-.92188-.97265-.6289v-.8047l2.21484 1.4336-2.21484 2.09766"/><path fill="#24d000" fill-rule="evenodd" d="M166.1914 445.74219l-.91406-.92188.91407-.6289.97265.6289-.97265.92188"/><path fill="#009800" fill-rule="evenodd" d="M179.50781 443.88672l-2.47656-3.5039 2.47656-1.48829 4.4375-1.05078v.6836l-4.4375 1.42187-.72265.4336.72265 1.01952 4.4375 2.00391 4.4375-2.32031.5039-.70313-.5039-.36328-4.4375-1.49219v-.68359l4.4375 1.23047 1.8086 1.3086-1.8086 2.53124-4.4375 1.60938-4.4375-.63672"/><path fill="#00ac00" fill-rule="evenodd" d="M179.50781 441.40234l-.72265-1.01953.72265-.4336 4.4375-1.42187v.6875l-3.29687 1.16797 3.29687 1.90625 3.25781-1.90625-3.2578-1.16797v-.6875l4.4375 1.4922.5039.36327-.5039.70313-4.4375 2.32031-4.4375-2.0039"/><path fill="#00c800" fill-rule="evenodd" d="M183.94531 442.28906l-3.29687-1.90625 3.29687-1.16797 3.25781 1.16797-3.2578 1.90625"/><g clip-path="url(#d)"><path fill="#50fcfc" fill-rule="evenodd" d="M217.21094 480.32813l2.24219-2.38282 4.4375-.14844 3.16796 2.53125h-9.84765"/></g><path fill="#50fcfc" fill-rule="evenodd" d="M228.32813 430.66797l-.77735.83984.77734 2.94922.97657-2.94922-.97656-.83984"/><path fill="#fff" fill-opacity="0" fill-rule="evenodd" d="M237.20703 440.26563l-1.04297.11718 1.04297.22266.14453-.22266-.14453-.11719m13.3125.07422l-.02344.04297.02344.13672 4.4375.09766 4.4414.1914 4.4375-.24218.47266-.1836 3.96485-3.10937 4.4375.23828 4.4414-.39844.91407-1.16797-.91407-.67578-4.4414-.16406-4.4375-.23047-4.4375.08984-.60156.98047-3.83594 4.13672-4.4414.01172-4.4375.2461"/><path fill="#00e8fc" fill-rule="evenodd" d="M254.95703 445.67188l-.69531-.85157.69531-.42969 4.4414-1 4.4375-1.05859 4.4375-1.1211 2.09376 3.60938-2.09375 2.02344-4.4375 1.92578-4.4375-2.28515-4.4414-.8125m.36327-9.72657l-.20703-4.4375 4.28516-2.29297 4.4375 1.6875 2.07812-3.83203 2.35938-2.34765v2.23828l-.10547.10937.10547.21875.11328-.21875-.11328-.10937v-2.23828l2.48437 2.34765 1.95313 2.9375 4.4414-.9961 4.4375-.68358v1.6289l-3.58203 1.55078 3.58203 2.64063 2.66797 1.79687 1.76953 1.16016 2.125-1.16016 2.3125-2.16797.90625-2.26953-.90625-.91797-4.15625.91797-.28125.32031-.14843-.3203-4.28907-1.55079v-1.6289l4.4375.79296 4.4375-.41015 2.75782 2.79687-1.04688 4.4375-1.71094 1.78906-4.4375 2.07032-4.4375-2.1836-3.84375 2.76172-.59375.59766-1.57421-.59766 1.57421-.42578 3.13282-4.01172-3.13282-2.32031-4.4414-.63672-4.4375-1.01953-4.4375.21094-2.30469 3.76562-2.13281 2.30078-4.07813-2.30078"/><path fill="#00d4fc" fill-rule="evenodd" d="M268.27344 427.28906l-.10547-.21875.10547-.10937.11328.10937-.11328.21875m13.3164 6.85938l-3.58203-2.64063 3.58203-1.55078 4.28907 1.55078.14843.32031.28125-.3203 4.15625-.91798.90625.91797-.90625 2.26953-2.3125 2.16797-2.125 1.16016-1.76953-1.16016-2.66797-1.79687"/><path fill="#00e8fc" fill-rule="evenodd" d="M290.46484 445.33984l-3.59765-.51953 3.59765-.5625.53907.5625-.53907.51953"/><path fill="#50fcfc" fill-rule="evenodd" d="M348.16406 437.66797l-1.7539-1.72266 1.7539-1.86328 4.4375-1.89062v1.4453l-3.2539 2.3086 3.2539 4.26172.10156.17578 4.33985 2.82422 4.4375-2.61719.57812-.20703-.57812-.21094-2.66406-4.22656-1.77344-2.02344-4.4414-.28515v-1.44531l4.4414-.1836 3.45312 3.9375.98438 1.5625 4.4375.7461 2.36328 2.1289-2.36328 1.90235-4.4375.8828-4.4375 1.01954-4.4414-1.1914L350 440.3828l-1.83594-2.71484m0 38.22656l-.0039-.0039.0039-.00391.0039.0039-.0039.00391"/><path fill="#00e8fc" fill-rule="evenodd" d="M352.60156 440.20703l-3.2539-4.26172 3.2539-2.3086 4.4414.28517v3.5039l-1.83202 2.95703 1.83203 1.1914 1.92578-1.1914-1.92578-2.95703v-3.5039l1.77344 2.02343 2.66406 4.22656.57812.21094-.57812.20703-4.4375 2.6172-4.33985-2.82423-.10156-.17578"/><path fill="#00d4fc" fill-rule="evenodd" d="M357.04297 441.57422l-1.83203-1.1914 1.83203-2.95704 1.92578 2.95703-1.92578 1.1914"/><path fill="#50fcfc" fill-rule="evenodd" d="M370.35547 463.29297l-.71875-.71875.45703-4.4375.26172-.71875 1.79687-3.71875 2.64063-3.89453 4.4414-.01563.85157-.52734-.85156-.6211-3.21094-3.8203 3.21094-4.41798 4.1289 4.41797.3086.4375v8.08594l-.71094.35547.71094.17969.1953-.1797-.1953-.35546v-8.08594l.86718-.4375 3.57031-2.11719v10.32813l-.41015.66797.41015 1.32422 2.75391-1.32422-2.7539-.66797v-10.32813l4.4375 1.50782v14.38672l-4.4375 2.35937-1.01563 1.61719 1.01563 1.08203 4.4375 2.66406 4.4375-1.75781 4.4414 1.64844 4.4375-1.05078 4.4375-1.03125 1.6289-1.5547-1.6289-1.8164-4.4375-.95312-4.4375.35937-4.4414.46485-4.4375-2.03125v-14.38672l.55859.60937 2.97265 4.4414-2.92578 4.4375 1.0625 4.4375 2.76954.75782 4.4414-.3711 4.4375-.1289 4.4375.22656 3.53906 3.95313-3.53906 3.38281-4.4375.51953-1.67578.53906-2.76172 2.8672-2.83203-2.8672-1.60938-.67968-4.4375.57422-4.4375-.73829-3.375-3.59765.94922-4.4375-2.01171-.73438-.85157.73438-3.42578 4.4375-.16015.10937-.54688-.10937-3.89453-1.9414-2.14453 1.9414-2.29297.71875m13.3164-25.85547l-4.20312-1.49219 4.20313-.38672.34375.38672-.34375 1.49219"/><g clip-path="url(#e)"><path fill="#50fcfc" fill-rule="evenodd" d="M383.67188 478.67578l-3.53907-2.78515L383.67187 473l3.21875-1.54688 1.21875-1.66796 4.4375-2.40625v2.10156l-2.39843 1.97265 2.39844 1.86329 1.77343-1.86329-1.77344-1.97265v-2.10156l3.65625 4.07421.78125 3.98438 4.44141-3.08203 3.25 3.53515.05078 4.4375H403l-.57422-4.4375-1-1.08984-1.41406 1.08985-.29297 4.4375h-1.86719l-.86719-4.03125-.60546-.40625-3.83204-.58985-4.4375-2.10156-1.05859 2.6914-3.3789 2.78516"/></g><path fill="#00e8fc" fill-rule="evenodd" d="M383.67188 453.8789l-.71094-.17968.71094-.35547.1953.35547-.1953.17969m4.4375 9.77734l-1.01563-1.08203 1.01563-1.61719 4.4375-2.35937v1.04687l-3.50782 2.92969 3.50781 2.76172 3.97657-2.76172-3.97656-2.92969v-1.04687l4.4375 2.03125 4.4414-.46485 4.4375-.35937v2.35156l-2.66797.41797 2.66797.39453 1.1875-.39453-1.1875-.41797v-2.35156l4.4375.95312 1.6289 1.8164-1.6289 1.5547-4.4375 1.03125-4.4375 1.05078-4.4414-1.64844-4.4375 1.75781-4.4375-2.66406"/><path fill="#fff" fill-opacity="0" fill-rule="evenodd" d="M388.10938 453.03125l-.41016.66797.41015 1.32422 2.75391-1.32422-2.7539-.66797"/><path fill="#00d4fc" fill-rule="evenodd" d="M392.54688 465.33594l-3.50782-2.76172 3.50781-2.92969v1.04297l-2.26171 1.88672 2.26171 1.78125 2.5625-1.78125-2.5625-1.88672v-1.04297l3.97657 2.92969-3.97656 2.76172"/><path fill="#00e8fc" fill-rule="evenodd" d="M392.54688 473.3164l-2.39844-1.86327 2.39844-1.97266 1.77343 1.97265-1.77344 1.86329"/><path fill="#00c4fc" fill-rule="evenodd" d="M392.54688 464.35547l-2.26172-1.78125 2.26171-1.88672v1.04297l-1.01171.84375 1.01171.79687 1.14454-.79687-1.14454-.84375v-1.04297l2.5625 1.88672-2.5625 1.78125"/><path fill="#00b8fc" fill-rule="evenodd" d="M392.54688 463.3711l-1.01172-.79688 1.01171-.84375 1.14454.84375-1.14454.79687"/><g clip-path="url(#f)"><path fill="#00e8fc" fill-rule="evenodd" d="M399.71875 480.32813l.29297-4.4375 1.41406-1.08985 1 1.08985.57422 4.4375h-3.28125"/></g><path fill="#00d4fc" fill-rule="evenodd" d="M405.86328 462.96875l-2.66797-.39453 2.66797-.41797 1.1875.41797-1.1875.39453"/><g clip-path="url(#g)"><path fill="#fff" fill-opacity="0" fill-rule="evenodd" d="M467.9961 480.32813H468V311.67188h-.0039H468v168.65625h-.0039"/></g><path fill="#fff" fill-opacity="0" fill-rule="evenodd" d="M418.77734 466.19922l.22657-5.83594-9.95313-.38672-.22656 5.83594 9.95312.38672"/><path fill-rule="evenodd" d="M410.79297 462.38672l.01953-.50781 6.28906.24609-.03125.78516-4.48437-.17579-.05469 1.38672-.55469-.01953-.04297-.5625-.04687-.2539-.07813-.23438-.1328-.20703-.20313-.1836-.28907-.15234-.39062-.1211"/><path fill="#fff" fill-opacity="0" fill-rule="evenodd" d="M263.05078 434.48828l5.21875-2.625-4.47656-8.89844-5.21875 2.625 4.47656 8.89844"/><path fill-rule="evenodd" d="M262.52734 425.65234l.45313-.22656 2.82812 5.625-.70312.35156-2.01563-4.01171-1.24218.625-.25-.4961.47265-.3086.19922-.16406.16406-.18359.1211-.21484.0586-.26563-.00392-.32812-.08203-.40235"/><path fill="#fff" fill-opacity="0" fill-rule="evenodd" d="M201.48828 467.02344l5.63672 1.54297 2.6289-9.60547-5.6328-1.54297-2.63282 9.60547"/><path fill-rule="evenodd" d="M207.01172 460.10938l.48828.13671-1.66016 6.07032-.7578-.20704 1.18358-4.33203-1.33984-.36718.14844-.53516.55469.08594.2578.01562.2461-.02734.23438-.08203.22265-.15625.21485-.2461.20703-.35546"/><path fill="#fff" fill-opacity="0" fill-rule="evenodd" d="M214.1289 449.78906l1.51173-7.77734-10.00782-1.9414-1.50781 7.77734 10.0039 1.9414"/><path fill-rule="evenodd" d="M206.39844 445.76172l.625-3.22656.72656.14062-.5039 2.58985 1.73046.57421-.11719-.2539-.07812-.29297-.02734-.33203.04297-.38281.08593-.3125.14844-.31641.20703-.30078.27344-.26563.33594-.21094.1914-.08203.21094-.05859.22656-.03906.2461-.01563.26172.01172.28125.03906.42578.1211.39453.17969.34375.24218.28515.30078.21875.35547.08203.19531.0586.21094.03906.22266.01172.23437-.01172.25-.03516.25782-.125.44921-.17578.375-.22265.29688-.26563.22656-.29687.16797-.32422.11328-.35156.0625-.36328.01563.14843-.76953.2461-.03516.22265-.0625.20313-.08594.17578-.11328.15234-.14062.125-.16797.09766-.19531.0625-.22657.03516-.3125-.01563-.28906-.07031-.26172-.125-.23437-.17969-.20313-.23438-.17187-.28906-.13282-.34765-.09375-.26172-.02734-.26953.00781-.26172.05469-.2539.10156-.22657.14844-.19531.20703-.15235.26563-.09765.32421-.03125.33985.05468.29687.13282.30079.20703.35937-.13281.67969-3.27344-1.10547"/><g clip-path="url(#h)"><path fill="none" stroke="#000" stroke-linecap="round" stroke-linejoin="round" stroke-miterlimit="10" stroke-width=".5" d="M147.49219 480.70313l-6.98438-.75"/></g><g clip-path="url(#i)"><path fill="none" stroke="#000" stroke-linecap="round" stroke-linejoin="round" stroke-miterlimit="10" stroke-width=".5" d="M147.49219 480.70313l.91797 2.27734"/></g><g clip-path="url(#j)"><path fill="none" stroke="#000" stroke-linecap="round" stroke-linejoin="round" stroke-miterlimit="10" stroke-width=".5" d="M146.47656 480.59375l.45703 1.14063"/></g><g clip-path="url(#k)"><path fill="none" stroke="#000" stroke-linecap="round" stroke-linejoin="round" stroke-miterlimit="10" stroke-width=".5" d="M160.78125 480.90234l-6.9336-1.14843"/></g><g clip-path="url(#l)"><path fill="none" stroke="#000" stroke-linecap="round" stroke-linejoin="round" stroke-miterlimit="10" stroke-width=".5" d="M160.78125 480.90234l.78516 2.32422"/></g><g clip-path="url(#m)"><path fill="none" stroke="#000" stroke-linecap="round" stroke-linejoin="round" stroke-miterlimit="10" stroke-width=".5" d="M159.77344 480.73438l.39062 1.16406"/></g><g clip-path="url(#n)"><path fill="none" stroke="#000" stroke-linecap="round" stroke-linejoin="round" stroke-miterlimit="10" stroke-width=".5" d="M174.0625 481.08594l-6.86328-1.51563"/></g><g clip-path="url(#o)"><path fill="none" stroke="#000" stroke-linecap="round" stroke-linejoin="round" stroke-miterlimit="10" stroke-width=".5" d="M174.0625 481.08594l.65625 2.36328"/></g><g clip-path="url(#p)"><path fill="none" stroke="#000" stroke-linecap="round" stroke-linejoin="round" stroke-miterlimit="10" stroke-width=".5" d="M173.0625 480.86719l.32813 1.17969"/></g><g clip-path="url(#q)"><path fill="none" stroke="#000" stroke-linecap="round" stroke-linejoin="round" stroke-miterlimit="10" stroke-width=".5" d="M187.35156 481.1836l-6.8125-1.71094"/></g><g clip-path="url(#r)"><path fill="none" stroke="#000" stroke-linecap="round" stroke-linejoin="round" stroke-miterlimit="10" stroke-width=".5" d="M187.35156 481.1836l.58985 2.3828"/></g><g clip-path="url(#s)"><path fill="none" stroke="#000" stroke-linecap="round" stroke-linejoin="round" stroke-miterlimit="10" stroke-width=".5" d="M186.35938 480.9375l.29687 1.1914"/></g><g clip-path="url(#t)"><path fill="none" stroke="#000" stroke-linecap="round" stroke-linejoin="round" stroke-miterlimit="10" stroke-width=".5" d="M200.65625 481.22656l-6.79297-1.79687"/></g><g clip-path="url(#u)"><path fill="none" stroke="#000" stroke-linecap="round" stroke-linejoin="round" stroke-miterlimit="10" stroke-width=".5" d="M200.65625 481.22656l.5586 2.39063"/></g><g clip-path="url(#v)"><path fill="none" stroke="#000" stroke-linecap="round" stroke-linejoin="round" stroke-miterlimit="10" stroke-width=".5" d="M199.66797 480.96484l.28125 1.19532"/></g><g clip-path="url(#w)"><path fill="none" stroke="#000" stroke-linecap="round" stroke-linejoin="round" stroke-miterlimit="10" stroke-width=".5" d="M213.96484 481.26172l-6.77734-1.86328"/></g><g clip-path="url(#x)"><path fill="none" stroke="#000" stroke-linecap="round" stroke-linejoin="round" stroke-miterlimit="10" stroke-width=".5" d="M227.23438 481.40625l-6.6875-2.15625"/></g><g clip-path="url(#y)"><path fill="none" stroke="#000" stroke-linecap="round" stroke-linejoin="round" stroke-miterlimit="10" stroke-width=".5" d="M240.48828 481.57813l-6.5664-2.5"/></g><g clip-path="url(#z)"><path fill="none" stroke="#000" stroke-linecap="round" stroke-linejoin="round" stroke-miterlimit="10" stroke-width=".5" d="M253.67578 481.875l-6.3125-3.08984"/></g><g clip-path="url(#A)"><path fill="none" stroke="#000" stroke-linecap="round" stroke-linejoin="round" stroke-miterlimit="10" stroke-width=".5" d="M266.78125 482.24219l-5.89063-3.82813"/></g><g clip-path="url(#B)"><path fill="none" stroke="#000" stroke-linecap="round" stroke-linejoin="round" stroke-miterlimit="10" stroke-width=".5" d="M278.83594 483.41016l-3.3711-6.16407"/></g><g clip-path="url(#C)"><path fill="none" stroke="#000" stroke-linecap="round" stroke-linejoin="round" stroke-miterlimit="10" stroke-width=".5" d="M287.14453 481.47266l6.64453-2.28516"/></g><g clip-path="url(#D)"><path fill="none" stroke="#000" stroke-linecap="round" stroke-linejoin="round" stroke-miterlimit="10" stroke-width=".5" d="M304.00781 476.82422l-.45312 7.01172"/></g><path fill="none" stroke="#000" stroke-linecap="round" stroke-linejoin="round" stroke-miterlimit="10" stroke-width=".5" d="M303.9414 477.84375l1.1172-.5039"/><g clip-path="url(#E)"><path fill="none" stroke="#000" stroke-linecap="round" stroke-linejoin="round" stroke-miterlimit="10" stroke-width=".5" d="M314.51953 477.9414l5.15235 4.77735"/></g><g clip-path="url(#F)"><path fill="none" stroke="#000" stroke-linecap="round" stroke-linejoin="round" stroke-miterlimit="10" stroke-width=".5" d="M327.40234 482.14453l6.01563-3.63281"/></g><g clip-path="url(#G)"><path fill="none" stroke="#000" stroke-linecap="round" stroke-linejoin="round" stroke-miterlimit="10" stroke-width=".5" d="M340.97266 482.51172l5.5078-4.36328"/></g><g clip-path="url(#H)"><path fill="none" stroke="#000" stroke-linecap="round" stroke-linejoin="round" stroke-miterlimit="10" stroke-width=".5" d="M353.88672 481.8789l6.3086-3.10156"/></g><g clip-path="url(#I)"><path fill="none" stroke="#000" stroke-linecap="round" stroke-linejoin="round" stroke-miterlimit="10" stroke-width=".5" d="M354.80469 481.42969l-.99219-.71875"/></g><g clip-path="url(#J)"><path fill="none" stroke="#000" stroke-linecap="round" stroke-linejoin="round" stroke-miterlimit="10" stroke-width=".5" d="M366.84375 480.35938l7.02734-.0586"/></g><g clip-path="url(#K)"><path fill="none" stroke="#000" stroke-linecap="round" stroke-linejoin="round" stroke-miterlimit="10" stroke-width=".5" d="M380.17188 480.64453l7-.63281"/></g><g clip-path="url(#L)"><path fill="none" stroke="#000" stroke-linecap="round" stroke-linejoin="round" stroke-miterlimit="10" stroke-width=".5" d="M381.1914 480.55469l-.67187-1.02735"/></g><g clip-path="url(#M)"><path fill="none" stroke="#000" stroke-linecap="round" stroke-linejoin="round" stroke-miterlimit="10" stroke-width=".5" d="M393.71484 481.60547l6.54297-2.55469"/></g><g clip-path="url(#N)"><path fill="none" stroke="#000" stroke-linecap="round" stroke-linejoin="round" stroke-miterlimit="10" stroke-width=".5" d="M394.66406 481.23438l-.92969-.80079"/></g><g clip-path="url(#O)"><path fill="none" stroke="#000" stroke-linecap="round" stroke-linejoin="round" stroke-miterlimit="10" stroke-width=".5" d="M406.8789 481.11719l6.84766-1.57422"/></g><g clip-path="url(#P)"><path fill="none" stroke="#000" stroke-linecap="round" stroke-linejoin="round" stroke-miterlimit="10" stroke-width=".5" d="M407.875 480.88672l-.80469-.92578"/></g><g clip-path="url(#Q)"><path fill="none" stroke="#000" stroke-linecap="round" stroke-linejoin="round" stroke-miterlimit="10" stroke-width=".5" d="M420.5 481.94922l6.23438-3.24219"/></g><g clip-path="url(#R)"><path fill="none" stroke="#000" stroke-linecap="round" stroke-linejoin="round" stroke-miterlimit="10" stroke-width=".5" d="M421.40625 481.47656l-1.01172-.6914"/></g><g clip-path="url(#S)"><path fill="none" stroke="#000" stroke-linecap="round" stroke-linejoin="round" stroke-miterlimit="10" stroke-width=".5" d="M434.86328 483.16797L439 477.48828"/></g><g clip-path="url(#T)"><path fill="none" stroke="#000" stroke-linecap="round" stroke-linejoin="round" stroke-miterlimit="10" stroke-width=".5" d="M448.85547 483.55469l2.78125-6.45313"/></g><g clip-path="url(#U)"><path fill="none" stroke="#000" stroke-linecap="round" stroke-linejoin="round" stroke-miterlimit="10" stroke-width=".5" d="M460.4414 481.9414l6.2422-3.22656"/></g><g clip-path="url(#V)"><path fill="none" stroke="#000" stroke-linecap="round" stroke-linejoin="round" stroke-miterlimit="10" stroke-width=".5" d="M461.34766 481.47266l-1.00782-.69532"/></g><g clip-path="url(#W)"><path fill="none" stroke="#000" stroke-linecap="round" stroke-linejoin="round" stroke-miterlimit="10" stroke-width=".5" d="M147.48438 467.47266l-6.96875-.91797"/></g><path fill="none" stroke="#000" stroke-linecap="round" stroke-linejoin="round" stroke-miterlimit="10" stroke-width=".5" d="M147.48438 467.47266l.85546 2.30078m12.46094-2.32422l-6.97266-.8711m6.97266.8711l.875 2.29297m12.42188-2.16797l-6.9375-1.1211m6.9375 1.1211l.79297 2.32422m12.47656-2.08985l-6.84375-1.58984m6.84375 1.58984L188 470.1797m-1.6289-2.60156l.3164 1.18359m13.99219-.9336l-6.83594-1.6289m6.83594 1.6289l.61719 2.375m-1.61329-2.61328l.3086 1.1875m14.0039-.96093l-6.83984-1.60547m6.83984 1.60547l.62891 2.37109M213 467.58203l.3164 1.1875m14.03907-1.16406l-6.92969-1.1836m6.92969 1.1836l.76953 2.32812m12.50781-2.15625l-6.85547-1.52734m6.85547 1.52734l.65235 2.3672m12.5703-2.02735l-6.67187-2.20703m6.67188 2.20703l.41406 2.42187m12.96875-2.65625l-6.8086-1.73828m5.82032 1.48828l.28906 1.1914m14.10938-1.48046l-6.9961-.66016m5.97657.56641l.47265 1.13281m13.86328-1.66797l-7 .59766m16.6875-3.8086l.25782 7.01954m-.22266-6l1.0625-.61328m11.41797-.28516l1.85547 6.77734m-1.58594-5.79297l.89063-.83984m12.49609-.21875L331 470.47656m-1.00781-5.91797l.97265-.75m11.94532-.21093l1.6328 6.83203m-1.39452-5.83985l.91797-.8125m10.21093 1.07032l5.52735 4.33203m7.6289-4.11328l5.84766 3.89453m-4.9961-3.32813l.1211-1.22265m11.90625 1.57422l6.71875 2.05859m-5.74219-1.76172l-.23437-1.20313m12.54687 1l6.76953 1.8711m-6.76953-1.8711l-.53515-2.39843m13.83203 4.20312l6.8086-1.73828m-6.8086 1.73828l-1.65235-1.8125m2.64063 1.5586l-.82422-.90625m13.0664-.13672l6.97657.85547m-6.97656-.85547l-.88282-2.28906m15.52735 5.49218l4.3164-5.55078m-4.3164 5.55078l-2.41406-.42187m15.51953.24219l4.73828-5.19141m-4.73828 5.1914L445.5 469m15.19922.05078l5.72656-4.07422m-4.89453 3.48047l-1.09766-.54687"/><g clip-path="url(#X)"><path fill="none" stroke="#000" stroke-linecap="round" stroke-linejoin="round" stroke-miterlimit="10" stroke-width=".5" d="M147.32813 454.82422l-6.65625-2.25"/></g><path fill="none" stroke="#000" stroke-linecap="round" stroke-linejoin="round" stroke-miterlimit="10" stroke-width=".5" d="M147.32813 454.82422l.39843 2.41797m12.72266-1.95703l-6.26953-3.17579m6.26953 3.17579l.04687 2.45703m13.3047-2.53125l-6.34376-3.02344m6.34375 3.02344l.10938 2.44922m13.24609-2.53125l-6.42188-2.85938m6.42188 2.85938l.16797 2.4453m12.89453-1.98437l-5.91797-3.78515m5.91797 3.78515l-.19531 2.44532m13.73828-2.85547l-6.3711-2.96094m6.3711 2.96094l.1289 2.44922m13.36329-2.91016l-6.72657-2.03906m5.7461 1.74218l.23828 1.20313m14.20703-1.96094l-7.02734.0664m6.0039-.05468l.58594 1.07813m13.6211-2.00782l-6.76173 1.90625m5.77735-1.6289l.84766.88281m13.33984-1.49219l-6.53906 2.57031m5.58593-2.19921l.9336.79687m13.34375-1.14453l-6.5586 2.52344m5.60547-2.15625l.92578.80468m13.41797-.96093l-6.70703 2.09765m5.73047-1.79297l.8711.86329m12.46874-2.6797l-4.80468 5.125m4.10546-4.3789l1.1836.32031m12.6836-1.19921l-4.51173 5.39062m4.51172-5.39062l2.40235.5078m10.85546-.55077l-4.39843 5.47656m4.39843-5.47656l2.41016.45703m10.76172-.57031l-4.10938 5.70312m3.51172-4.875l1.21485.16797m12.50781-1.1211l-3.73047 5.95313m3.1875-5.08984l1.22266.08984m10.67578-1.48828l.1914 7.02344m-.16406-6.0039l1.0664-.60548m9.39063 1.14844l5.84766 3.89844m-4.9961-3.33203l.1211-1.21875m11.86719 1.72265l6.80078 1.75781m-6.80078-1.7578l-.57422-2.38673m13.8164 2.7461l6.94922 1.03906m-6.94922-1.03906l-.8203-2.3125m1.82812 2.46484l-.40625-1.16016m12.73828 2.20313l6.89453-1.35547m-6.89453 1.35547l-1.54688-1.90234m2.55078 1.70703l-.77343-.95313m13.21484 1.625l6.63672-2.3086m-6.63672 2.3086l-1.80078-1.66797m2.76562 1.33203l-.89843-.83203m13.59375 1.88672l5.94531-3.74219m-5.94531 3.7422l-2.1289-1.22266m2.99218.67578l-1.0625-.60938m13.26562.6875l6.44532-2.80469m-6.44532 2.8047l-1.92187-1.52735"/><g clip-path="url(#Y)"><path fill="none" stroke="#000" stroke-linecap="round" stroke-linejoin="round" stroke-miterlimit="10" stroke-width=".5" d="M147.00781 442.19922l-6.01562-3.6289"/></g><path fill="none" stroke="#000" stroke-linecap="round" stroke-linejoin="round" stroke-miterlimit="10" stroke-width=".5" d="M147.00781 442.19922l-.13281 2.44922m12.875-1.73047l-4.8711-5.0664m4.16407 4.32812l-.38281 1.16406m14.42968-.45313l-4.91797-5.01562m4.20313 4.28516l-.3711 1.17187m14.5586-.60547l-5.23438-4.6875m4.47266 4.00781l-.29297 1.19141M200 442.58203l-5.48047-4.39844m4.6836 3.75782l-.22657 1.20703m13.05469.4336l-2.91016-6.39845m2.48438 5.46875l-.7461.97266m15.0586-.3711l-4.05469-5.73828m3.46484 4.90235l-.55078 1.09375m13.66407.16015l-2.47266-6.57812m2.11328 5.6211l-.8086.92187m15.5586-.60547l-4.6211-5.29297m3.94923 4.52344l-.4375 1.14453m15.48047-4.02344l-6.73438 2m19.00781-3.63281l-4.65234 5.26562m15.05078-6.09375l1.17969 6.92579m15.53125-5.57813L300.97656 442.5m17.86719-5.16406l-3.4961 6.09375m2.98829-5.20703l1.22656.03906m12.91016-.72266l-4.125 5.6914m4.125-5.6914l2.42968.33594m10.90625-.32031l-4.16406 5.66015m4.16406-5.66015l2.42579.35547m10.35937-.6797l-3.10547 6.3047m2.65235-5.38672l1.22656-.03907m9.28125-.79687l3.41797 6.14062m8.18359-3.86328l6.84375 1.58985m-5.84766-1.35938l-.3164-1.1836m12.8086.40235l6.49608 2.6875m-6.49609-2.6875l-.23437-2.4414m14.2539 1.36328l5.08594 4.84765m-5.08594-4.84765l.66016-2.36328m.07812 3.0664l.33204-1.17969m11.34765 2.19141l6.88281 1.41406m-6.8828-1.41406l-.69532-2.35156m1.69531 2.5586l-.34765-1.17579m12.60937 2.0625l6.98438-.77344m-6.98438.77344l-1.38281-2.02734m2.40234 1.91406l-1.38672-2.02344m14.01953 3.28906l6.31641-3.07812m-6.3164 3.07812l-1.98438-1.4414m2.90234.9961l-1.98437-1.44532m14.20703-.76953l6.66015 2.24219m-6.66015-2.2422l-.39844-2.42187"/><g clip-path="url(#Z)"><path fill="none" stroke="#000" stroke-linecap="round" stroke-linejoin="round" stroke-miterlimit="10" stroke-width=".5" d="M147.0664 428.78516l-6.1328-3.4297"/></g><path fill="none" stroke="#000" stroke-linecap="round" stroke-linejoin="round" stroke-miterlimit="10" stroke-width=".5" d="M146.17578 428.28516l-.02734 1.22656m14.1289-.55078l-5.92187-3.78516m5.0586 3.23438l-.09766 1.22265m13.66015.05078l-4.69531-5.23046m4.01563 4.46875l-.42188 1.15234m13.71484.09766l-3.28906-6.20704m2.8086 5.3047l-.6875 1.01562m13.78125.16797l-1.88672-6.76954m1.61328 5.78516l-.89063.84375m12.55469.1289l1.96484-6.74609m-1.67968 5.76563l-1.20313.25m13.4414.39062l3.54688-6.0664m-3.03125 5.18359l-1.22656-.04687m13.45313.51171l4.6914-5.23046m-4.00781 4.46875l-1.1914-.29297m16.73437 1.90625l-1.13281-6.9336m.96875 5.92578l-.97657.7422m15.47656-.06641l-3.17187-6.26954m13.03125 6.10938l3.73828-5.94922m12.46875 2.97656l-.01953-.20312-.0586-.1914-.09374-.17579-.46094-.375-.1914-.0586-.19923-.01952-.19921.01953-.19141.05859-.45703.375-.09766.17578-.05469.1914-.01953.20313.01953.19922.0547.1914.09765.17579.45703.375.1914.0586.19922.01952.19922-.01953.1914-.0586.46095-.375.09375-.17577.05859-.1914.01953-.19923m10.15235-2.78906l4.28125 5.57422m8.40625-4.95313l5.53515 4.33204m10.2539-5.66797l.58595 7.0039m-.5-5.98437l1.03125-.66406m12.91796-.33985l-.85156 6.97266m15.58203-6.47656l-3.6836 5.98046m3.14845-5.11328l1.22265.07813m9.38672-1.17969l2.79688 6.44922m-2.39063-5.51172l.76563-.95703m10.3125 4.6289l6.45703-2.76953m-5.51563 2.3672l-.95703-.76954m15.3789-3.52344l2.36329 6.6211m-2.36328-6.6211l1.65234-1.8125m13.03906 1.61328l-.39062 7.01954m.39062-7.01954l2.22657-1.02734m11.58593 1.09375l-1.38671 6.88672m1.38671-6.88672l2.35157-.70312m-2.55078 1.70312l1.17578-.34766m8.42578 1.38282l6.4414 2.8164m-6.4414-2.8164l-.1875-2.44532m13.23437 3.42579l6.97657.85546m-6.97657-.85546l-.8789-2.28907m19.69922-.16015l-4.03516 5.7539m3.44922-4.91797l1.21875.15235"/><g clip-path="url(#aa)"><path fill="none" stroke="#000" stroke-linecap="round" stroke-linejoin="round" stroke-miterlimit="10" stroke-width=".5" d="M147.20703 415.1875l-6.41406-2.86719"/></g><path fill="none" stroke="#000" stroke-linecap="round" stroke-linejoin="round" stroke-miterlimit="10" stroke-width=".5" d="M146.27344 414.76953l.08594 1.22266m14.4375-1.76953l-6.96485-.9375m5.95313.80078l.42578 1.14844m13.92187-1.20704l-7.0039-.54687m5.98437.46484l.49219 1.125m13.08984.86719l-5.5-4.3711m4.69922 3.73829l-.22266 1.20312m10.9375.69922l1.3047-6.90625m-1.1172 5.90235l-1.17187.36328m12.57813-.22266l4.74609-5.1836m-4.05469 4.4297l-1.1875-.3047m13.28906.46094l5.78907-3.98437m-4.94532 3.40625l-1.08984-.5664m13.58984 1.18359l5.73047-4.06641m-5.73047 4.0664l-2.1914-1.09765m17.96875 2.55469l.80469-6.98047m-.6875 5.96484l-1.14063.44922m13.41797.33203l2.64844-6.50781m-2.26563 5.5625l-1.21875.1211m12.1914-1.17579L280.4336 412.5m-5.60937 2.14453l-.92578-.8086m16.6875-3.59374l-.24219 7.02343m.20703-6l1.10156-.53906m9.375.84375l5.50782 4.36328m-4.70704-3.72656L302.05078 411m13.28125-.28516l3.52734 6.07813m8.64454-5.01563l5.8125 3.95313m8.59765-4.98828l3.625 6.02343m-3.09765-5.14843l.6328-1.05078m15.36329-.03907l-2.79297 6.44922m2.38672-5.50781l1.22266-.10156m10.22656-1.01563l1.75 6.80469m-1.4961-5.8164l.90625-.82813m11.13282.28515l3.79297 5.91407m-3.79297-5.91406l1.20312-2.14063m12.22266 2.07422l3.57422 6.04687m-3.57422-6.04687l1.27734-2.09766m-.75781 2.97656l.64062-1.04687m15.77735.19531l-3.67188 5.99219m3.67188-5.99219l2.44922.14844m-2.98438.72266l1.22656.07421m12.6875-.90625l-3.79687 5.91407m3.79687-5.91407l2.44532.20313m-3 .65625l2.44531.20312m11.39844-1.07812l-3.7461 5.94531m3.7461-5.94531l2.44531.17578m-2.99219.6875l2.44922.17969m12.42188-.08203l-5.76563 4.01953m5.76563-4.01953l2.18359 1.1211m11.51953-.39454l-6.54297 2.5664"/><g clip-path="url(#ab)"><path fill="none" stroke="#000" stroke-linecap="round" stroke-linejoin="round" stroke-miterlimit="10" stroke-width=".5" d="M466.83203 412.46875l1.86328 1.59766"/></g><g clip-path="url(#ac)"><path fill="none" stroke="#000" stroke-linecap="round" stroke-linejoin="round" stroke-miterlimit="10" stroke-width=".5" d="M147.5039 400.6914l-7.0078-.5078"/></g><path fill="none" stroke="#000" stroke-linecap="round" stroke-linejoin="round" stroke-miterlimit="10" stroke-width=".5" d="M146.48438 400.61719l.49609 1.125m11.82422-4.48438l-2.98047 6.36328m2.54687-5.4375l1.22657-.0625m7.80078.9375l6.46484 2.75782m-5.52344-2.35547l-.10547-1.22266m12.5547.65625l6.3125 3.08594m6.70312-.90625l6.91015-1.27344m-5.90625 1.08985l-.76172-.96094m13.0625-.0625l6.9336 1.14062m-6.9336-1.14062l-.78515-2.32422m14.05469 2.86719l7.02343.05468m-7.02343-.05468l-1.13672-2.17579m14.61719 1.12891l6.6914 2.14844m-6.6914-2.14844l-.4336-2.41406m14.1875 5.46094l5.8125-3.94532m-5.8125 3.94532l-2.16797-1.14454m15.96094 1.71094l4.85938-5.07422m-4.15235 4.33594l-1.1836-.33594m12.72266-1.76953l7 .60938m13.32813-.34375l-7.02734.07812m6.0039-.0664l.58594 1.07812m13.44531-2.48437l-6.41406 2.87109m6.41406-2.8711l1.9375 1.50391m11.6836-.02734l-7.02735-.08203m18.14453-3.21875l-2.63281 6.51562m2.25-5.5664L332.5625 398m11.53516-1.05469l-.7422 6.98828m.7422-6.98828l2.27734-.91797m8.03516 6.73829l5.26172-4.65625m13.80078.70703l-6.23438 3.24218m19.79688-2.63671l-6.72657 2.03515m6.72657-2.03515l1.73047 1.73828m-2.71094-1.44532l.86719.8711m12.7578-2.40235l-5.38671 4.50782m5.38672-4.50782l2.27344.92188m10.95703-1.02344l-5.21485 4.71094m5.21485-4.71094l2.30468.83594m10.14063-1.53125l-3.47656 6.10547m3.47656-6.10547l2.45312.07031m-2.96093.8164l1.22656.03516m13.02734-.6328l-4.34375 5.52343m4.34375-5.52344l2.41797.4336m-3.04687.37109l1.20703.21484m13.16015-.6289l-5.18359 4.74609m5.1836-4.7461l2.3125.82032m-3.06641-.1289l1.15625.41015m13.60937.03515l-6.57812 2.46875"/><g clip-path="url(#ad)"><path fill="none" stroke="#000" stroke-linecap="round" stroke-linejoin="round" stroke-miterlimit="10" stroke-width=".5" d="M466.85156 399.20313l1.83985 1.625"/></g><g clip-path="url(#ae)"><path fill="none" stroke="#000" stroke-linecap="round" stroke-linejoin="round" stroke-miterlimit="10" stroke-width=".5" d="M147.44922 386.45703l-6.89844 1.33203"/></g><path fill="none" stroke="#000" stroke-linecap="round" stroke-linejoin="round" stroke-miterlimit="10" stroke-width=".5" d="M147.44922 386.45703l1.54297 1.90625m-2.54688-1.71484l.77344.95703m13.01563-2.4414l-5.83594 3.91796m5.83594-3.91797l2.16015 1.16016m-3.01172-.58985l1.08203.57813m11.35157-2.4961l-2.375 6.61329m2.03125-5.65235l1.21484-.17578m11.60547 6.01953l-.69922-6.99218m10.1875 2.99609l6.95703.9961m-5.94531-.85157l-.41406-1.15625m13.63672-.89453l5.12109 4.8125m-5.1211-4.8125l.64454-2.3711m.10156 3.07032l.32031-1.1836m12.29688.4297l5.02343 4.91796m-5.02343-4.91797l.6914-2.35156m.03906 3.0664l.34766-1.17577m11.55078 4.37109l6.39844-2.90235m-5.46875 2.48047l-.97266-.74609m17.72657 3.03125l-2.33985-6.6289m2.33985 6.6289l-1.66016 1.80469m15.21484-1.89844l-2.8203-6.4375m2.41015 5.5l-.76172.96094m16.23047-1.6914l-6.3086-3.10157m6.3086 3.10156l.07812 2.44922m12.97656-2.01172l-5.78906-3.98047m5.78906 3.98047l-.27734 2.4414m14.16016-5.02343l-6.92578 1.1836m6.92578-1.1836l1.5039 1.9414m-2.5078-1.76952l.75.97265m13.3789-1.83594l-6.54297 2.57032m6.54297-2.57032l1.86328 1.59375m-2.8164-1.22265l.93359.79687m13.41406-.9414l-6.70313 2.11328m6.70313-2.11328l1.75 1.71875m-2.72656-1.41016l.875.85938m13.32812-1.41407l-6.52344 2.60938m6.52344-2.60938l1.875 1.58203m-2.82422-1.20312l.9375.78906m13.15625 1.80469l-6.1836-3.33985m6.1836 3.33985l-.01562 2.45312m-.88282-2.9414l-.0078 1.23047m14.64452-2.46875l-7.02734.11328m7.02734-.11328l1.1836 2.14843m-2.20703-2.1328l.59375 1.07421m13.24609-2.83594l-6.03125 3.60938m6.03125-3.60938l2.09766 1.26563M399.32422 384.5l-4.67578 5.2461m4.67578-5.2461l2.38281.58203m10.29688-1.03125l-3.40625 6.14453m3.40625-6.14453l2.45312.04297m9.29297-.48047l-.26953 7.01953m.26953-7.01953l2.21094-1.07031m12.3125 1.33203l-2.6836 6.4961m2.6836-6.4961l2.4414-.23828m11.21094.40234l-3.35937 6.16797m3.35937-6.16797l2.45703.02344m12.0625 1.05078l-5.76562 4.01953"/><g clip-path="url(#af)"><path fill="none" stroke="#000" stroke-linecap="round" stroke-linejoin="round" stroke-miterlimit="10" stroke-width=".5" d="M466.44531 385.11328l2.1836 1.1211"/></g><path fill="none" stroke="#000" stroke-linecap="round" stroke-linejoin="round" stroke-miterlimit="10" stroke-width=".5" d="M465.60547 385.69922l1.09375.5586"/><g clip-path="url(#ag)"><path fill="none" stroke="#000" stroke-linecap="round" stroke-linejoin="round" stroke-miterlimit="10" stroke-width=".5" d="M147.33203 372.6875l-6.66406 2.24219"/></g><path fill="none" stroke="#000" stroke-linecap="round" stroke-linejoin="round" stroke-miterlimit="10" stroke-width=".5" d="M147.33203 372.6875l1.78125 1.6875m11.46875-1.85938l-6.53516 2.58594m6.53516-2.58594l1.86719 1.59375m11.3789-1.7578l-6.39453 2.91015m6.39453-2.91016l1.94532 1.4961m-2.875-1.07032l.97265.7461m13.0625-1.5664l-5.97656 3.70312m5.97656-3.70313l2.1172 1.23438m-2.98829-.69532l1.0586.6172m12.45702-1.94532l-4.63671 5.28125m4.63672-5.28125l2.38671.5625m-3.0625.20703l1.19532.28125m11.16797-1.85547l-1.37891 6.89063m1.3789-6.89063l2.34766-.70312m-2.55078 1.70703l1.17578-.35547m10.47266-.51172l2.35937 6.61719m-2.01562-5.65625l.82812-.90625m14.17578 6.66406l-1.70703-6.82031m1.70703 6.82031l-1.82422 1.64063m16.3711-2.22266l-4.16797-5.65625m4.16797 5.65625l-1.0625 2.21484m14.91016-2.69922l-5.23438-4.6875m5.23438 4.6875l-.58985 2.38282m13.5586-2.04297l-4.53907-5.36719m4.53906 5.36719l-.91015 2.27734m.25-3.0586l-.45703 1.13673m14.8711-.8047l-5.42188-4.46874m5.42187 4.46875l-.48828 2.40625m14.45312-3.61328l-6.71875-2.0586m6.71875 2.0586l.46485 2.41015M320.5 372.9336l-6.8086 1.75m6.8086-1.75l1.65234 1.8086m11.45703-2.39063l-6.39453 2.91406m6.39453-2.91406l1.94532 1.49219m11.58593-.86328l-6.82812 1.65625m6.82812-1.65625l1.62891 1.83203m11.625.03906l-6.70703-2.08594m6.70703 2.08594l.45703 2.41016m12.98438-2.96875l-6.96094-.96875m6.96094.96875l.83984 2.30469m12.35547-3.81641l-6.71875 2.05469m5.74219-1.75781l.86718.86718m11.95704-3.09765l-3.78516 5.92187m3.23437-5.0586l1.22266.09766m11.57422-1.41406l-1.64844 6.82813m1.41016-5.83594l1.1875-.30469m11.11328-.76172l.85937 6.97656m-.73437-5.96093l1.0039-.70313m13.44141-.23828l-1.65234 6.82813m1.65234-6.82813l2.375-.61328m11 .6289l-1.77344 6.79688m1.77344-6.79687l2.38672-.57032m12.89844 1.92188l-5.71485 4.08984"/><g clip-path="url(#ah)"><path fill="none" stroke="#000" stroke-linecap="round" stroke-linejoin="round" stroke-miterlimit="10" stroke-width=".5" d="M466.41797 371.76172l2.19922 1.09375"/></g><g clip-path="url(#ai)"><path fill="none" stroke="#000" stroke-linecap="round" stroke-linejoin="round" stroke-miterlimit="10" stroke-width=".5" d="M146.48047 358.0039l-4.96094 4.97657"/></g><path fill="none" stroke="#000" stroke-linecap="round" stroke-linejoin="round" stroke-miterlimit="10" stroke-width=".5" d="M145.75781 358.73047l1.17578.35547m12.71875-1.21485l-4.67578 5.2422m3.9961-4.48048l1.1914.29297m13.5664-.08203l-6.20312 3.30078m5.30078-2.82031l1.01954.6836m13.17187-1.21876l-6.14844 3.40625m5.25391-2.91015l1.02734.66796m12.42578-2.10156l-4.63671 5.28125m4.63672-5.28125l2.39062.5664m10.84375-.6328l-4.47266 5.41796m4.47266-5.41796l2.40234.48828m-3.05468.29687l1.20312.2461m13-.82032l-4.94531 4.9922m4.94531-4.9922l2.34766.70704m7.66015 5.20312l1.66797-6.82422m-1.66797 6.82422l-2.3789.60547m17.57031-.66406l-2.08203-6.71094m2.08203 6.71094l-1.72656 1.74218m15.78515-2.0703l-3.5703-6.0547m3.5703 6.0547l-1.28125 2.09374m.76172-2.97265l-.64062 1.04296m14.97265-.51953l-4.5664-5.34375m4.5664 5.34375l-.89843 2.28516m14.45312-2.51172l-5.04687-4.88672m4.3125 4.17578l-.33985 1.17969m15.27344-2.05469l-6.8125-1.71484m5.82031 1.46484l.29688 1.1914m13.55468-3.70702l-5.90234 3.8125m5.04297-3.25781l1.07422.59765m13.51562-.2461l-6.73437 2m6.73437-2l1.72266 1.75m11.6875-1.35156l-6.92188 1.20313m6.92188-1.20313l1.5039 1.9375m11.81641-1.91796l-6.92969 1.16796m5.91797-1l.75.97266m13.46875-1.58594l-6.71875 2.0586m5.7422-1.75781l.86718.86328m13.13672-1.84375l-6.14063 3.41406m6.14063-3.41406l2.0586 1.33593m10.26952-2.45703l-4.16797 5.66016m3.5586-4.83594l1.21484.17578m11.79688-1.48437l-2.33985 6.625m1.9961-5.66016l1.21484-.1836M423 357.03517l1.23437 6.91796m-1.05468-5.91406l.96484-.7539m12.70703-.3047l.16016 7.02345m-.13672-6l1.07031-.60157m12.17578-.42187l.25391 7.02344m-.2539-7.02344l2.12109-1.22656m13.98437 2.44921l-5.33203 4.57813"/><g clip-path="url(#aj)"><path fill="none" stroke="#000" stroke-linecap="round" stroke-linejoin="round" stroke-miterlimit="10" stroke-width=".5" d="M466.22656 358.20313l2.28516.89453"/></g><g clip-path="url(#ak)"><path fill="none" stroke="#000" stroke-linecap="round" stroke-linejoin="round" stroke-miterlimit="10" stroke-width=".5" d="M142.85938 343.85547l2.28125 6.64453"/></g><g clip-path="url(#al)"><path fill="none" stroke="#000" stroke-linecap="round" stroke-linejoin="round" stroke-miterlimit="10" stroke-width=".5" d="M142.85938 343.85547l1.67578-1.79297"/></g><path fill="none" stroke="#000" stroke-linecap="round" stroke-linejoin="round" stroke-miterlimit="10" stroke-width=".5" d="M155.5039 344.16797l3.6211 6.01953m-3.6211-6.01953l1.26173-2.10547m11.43359 2.57813l4.85937 5.07421m-4.85937-5.07421l.76953-2.33204m12.42578 2.45313l5.10156 4.83203m-4.35937-4.1289l.32422-1.1797m12.41406.3125l4.76953 5.16016m-4.07422-4.41015l.40235-1.15625m15.25-.46485l-1.29297 6.90625m1.29297-6.90625l2.34375-.73437m13.23047 2.21094l-5.8125 3.94921m5.8125-3.94921l2.17187 1.14453m10.5586 3.46875l-4.64063-5.27735m4.64062 5.27735l-.86718 2.29687m12.6953-1.52344l-1.67187-6.82421m1.67188 6.82421l-1.82813 1.63672m1.58594-2.6289l-.91406.8164m14.60156.14063l-1.92969-6.7539m1.9297 6.7539l-1.76563 1.70312m1.48437-2.6836l-.88281.85157m14.89844-.01953l-2.76953-6.45703m2.76953 6.45703l-1.53907 1.91406m15.05079-2.0039l-3.16016-6.27735m2.69922 5.36328l-.70703 1.00391m13.6953-6.65234l-1.58593 6.84765m16.40234-6.08203l-4.58984 5.32031m16.57813-6.03906l-1.9336 6.7539m1.65235-5.76952l1.19921-.25782m14.67188 1.29688l-6.48438 2.70703m5.53907-2.3125l.94922.77734m12.9375-1.84765l-5.73829 4.0586m4.90235-3.46876l1.09765.55469m12.1875-2l-4.0078 5.76953m3.42577-4.92969l1.21875.14453m13.57422-.08593l-5.79687 3.97265m4.95312-3.39453l1.08594.57031m12.22656-2.01171l-4.10547 5.69921m3.50782-4.87109l1.21875.16797m12.46875-1.14453l-3.65625 6m3.125-5.1289l1.22656.07421m11.57422-1.3711l-1.5664 6.84766m1.33983-5.85156l1.1836-.32031m10.86719-.6914l1.41796 6.8789m-1.41796-6.8789l1.88671-1.56642m11.8672 1.50391l.53905 7.0039m-.53906-7.0039l2.07031-1.3164m13.46875 1.89843l-3.91015 5.83985"/><g clip-path="url(#am)"><path fill="none" stroke="#000" stroke-linecap="round" stroke-linejoin="round" stroke-miterlimit="10" stroke-width=".5" d="M465.51563 344.25781l2.4414.25"/></g><g clip-path="url(#an)"><path fill="none" stroke="#000" stroke-linecap="round" stroke-linejoin="round" stroke-miterlimit="10" stroke-width=".5" d="M141.32422 331.58594l5.35156 4.55469"/></g><path fill="none" stroke="#000" stroke-linecap="round" stroke-linejoin="round" stroke-miterlimit="10" stroke-width=".5" d="M154.36719 331.95313l5.89844 3.8203m-5.89844-3.8203l.21094-2.44532m.64453 3l.10547-1.22265m12.14843 1.02734l6.3086 3.10156m-6.3086-3.10156l-.07812-2.45313m.9961 2.90625l-.07813-2.45312m12.35547 2.27734l6.54687 2.54688m-6.54688-2.54688l-.28906-2.4375m1.24219 2.8086l-.14453-1.21875m12.57422.6836l6.41015 2.875m-6.41015-2.875l-.16406-2.44923m1.09765 2.86719l-.08203-1.22656m12.54297.64453l6.2539 3.20312m-6.2539-3.20312l-.03906-2.45313m18.38672 1.10157l-3.8125 5.90625m3.2578-5.04688l1.22266.10547m14.2461 1.7461l-7.01172.48437m5.99219-.41406l.64843 1.03906m11.03125 2.54297l-1.70312-6.82031m1.45703 5.82812l-.91016.82031m15.05078-.03125l-2.85937-6.41797m2.85938 6.41797l-1.50782 1.9375m14.82422-1.9375l-2.86328-6.41406m2.44922 5.48047l-.7539.96875m12.49218.22656l1.11719-6.9375m-.95313 5.92969l-1.16015.39453m12.77734-.03125l4.1836-5.64844m-3.57423 4.82422l-1.21093-.17969m13.0625-3.73046l5.89453 3.8203m11.71094-5.15624l-2.6836 6.49219m2.29297-5.54688l1.21875-.1211m13.0625-.51952l-3.83594 5.8828m3.27735-5.02734l1.22265.10938m12.48438-1.0664l-3.5039 6.08593m3.5039-6.08594l2.45312.08203m10.52344-.2539l-2.82812 6.42969m2.41796-5.4961l1.22266-.08984m14.25.83594l-6.32031 3.0703m5.40234-2.625l.98828.72657m10.37891-3.13672l-.58984 7m.5039-5.98437l1.1289-.48047m12.14845-.54297l-.34375 7.01562m.29296-5.99609l1.11329-.52344m11.8164-.49219l.53125 7.00782m12.32031-6.9414l1.45704 6.875m-1.2461-5.875l.9414-.78907m13.48829-.23828l-1.1914 6.92578m1.01562-5.91797l1.16797-.38281m13.89453.07422l-4.33594 5.53125"/><g clip-path="url(#ao)"><path fill="none" stroke="#000" stroke-linecap="round" stroke-linejoin="round" stroke-miterlimit="10" stroke-width=".5" d="M465.73047 331.09766l2.41406.42968"/></g><g clip-path="url(#ap)"><path fill="none" stroke="#000" stroke-linecap="round" stroke-linejoin="round" stroke-miterlimit="10" stroke-width=".5" d="M141.875 317.75l4.25 5.59766"/></g><path fill="none" stroke="#000" stroke-linecap="round" stroke-linejoin="round" stroke-miterlimit="10" stroke-width=".5" d="M154.57813 318.34375l5.47265 4.40625m-5.47266-4.40625l.46094-2.41016m12.1875 3.73829l6.80469 1.75m-6.80469-1.75l-.57422-2.38282m13.78125 3.10547l7.02344.30469m-7.02344-.30469l-1.05468-2.21484m2.07812 2.26172l-1.0586-2.21485m13.35548 2.09375l7.01172.45703m-7.01172-.45703l-1.00782-2.23828m2.02735 2.30469l-1.00781-2.23828m13.3164 2.03125l6.98828.73437m-6.98828-.73437l-.91797-2.27344m1.9336 2.38281l-.91797-2.27734m13.35547 1.5l6.71093 2.07422m-6.71093-2.07422l-.46485-2.41016m1.4414 2.71094l-.23046-1.20313m13.3711-.47656l5.10546 4.82813m-4.36328-4.125l.32813-1.1836m13.79297 6.26172l2.01171-6.73437m-1.71875 5.7539l-1.20312.2422m14.16797.72265l2.125-6.69922m-2.125 6.69922l-2.41406.4414m15.80859-.41796l1.96484-6.7461m-1.67969 5.76563l-1.19921.25m15.1914.87109l.04297-7.02734m-.03906 6.0039l-1.08594.57031m13.69922.37891l1.4336-6.8789m-1.22266 5.8789l-1.17969.33985m15.67578.66796l-1.34766-6.89453m1.15235 5.89063l-.95313.77344m17.03516-1.8711l-6.48828-2.69531m5.54297 2.30469l.11718 1.22265m13.54688-4.48828l-5.29688 4.61719m4.52735-3.94531l1.14453.4375m10.42187-2.3125l-.26171 7.02343m.22265-6l1.10547-.53515m13.01563-.3711l-1.79297 6.79297m1.53125-5.80469l1.19531-.28125m14.64062 1.14454l-6.3125 3.08984m5.39454-2.64063l.99218.71875m11.6211-2.78125l-3.07422 6.31641m2.6289-5.39844l1.22657-.04296m11.71484-1.15625l-1.4336 6.8789m1.4336-6.8789l2.35547-.6875m10.6875.64062l-.89453 6.96875m.76562-5.95313l1.14844-.43359m11.55078 6.40235l.59766-7m-.51172 5.98437l-1.1289.48047m17.91796-4.26953l-6.52344 2.60937m5.57422-2.23047l.9375.79297m13.15235-1.54687l-6.17188 3.35937"/><g clip-path="url(#aq)"><path fill="none" stroke="#000" stroke-linecap="round" stroke-linejoin="round" stroke-miterlimit="10" stroke-width=".5" d="M466.64844 318.86719l2.04687 1.35156"/></g><path fill="none" stroke="#000" stroke-linecap="round" stroke-linejoin="round" stroke-miterlimit="10" stroke-width=".5" d="M465.75 319.35547l1.02344.67578"/><path fill="#00f" fill-rule="evenodd" d="M392.67578 463.21094h8.6211V453.0625h-8.6211v10.14844"/><path fill="azure" fill-rule="evenodd" d="M394.51172 454.89844h.83203v2.82031h3.28516v-2.82031h.83203v6.48047h-.83203v-2.91797h-3.28516v2.91797h-.83203v-6.48047"/><path fill="#ff3030" fill-rule="evenodd" d="M322.35938 454.33203h7.6914V444.1875h-7.6914v10.14453"/><path fill="azure" fill-rule="evenodd" d="M324.1914 446.01953h.83204v5.73828h3.19531V452.5h-4.02734v-6.48047"/><path fill="#00f" fill-rule="evenodd" d="M383.80078 436.57813h8.61719v-10.14454h-8.61719v10.14454"/><path fill="azure" fill-rule="evenodd" d="M385.63281 428.26563h.83203v2.82421h3.28907v-2.82421h.83203v6.48046h-.83203v-2.91406h-3.28907v2.91406h-.83203v-6.48046"/><path fill="#00f" fill-rule="evenodd" d="M215.14453 414.38672h8.61719v-10.14453h-8.61719v10.14453"/><path fill="azure" fill-rule="evenodd" d="M216.97656 406.07422h.83203v2.82422h3.28516v-2.82422h.83594v6.48047h-.83594v-2.91406h-3.28516v2.91406h-.83203v-6.48047"/><path fill="#00f" fill-rule="evenodd" d="M370.48438 401.07422h8.62109v-10.14844h-8.6211v10.14844"/><path fill="azure" fill-rule="evenodd" d="M372.3164 392.76172h.83594v2.82031h3.28516v-2.82031h.83203v6.47656h-.83203v-2.91406h-3.28516v2.91406h-.83593v-6.47656"/><path fill="#ff3030" fill-rule="evenodd" d="M335.67188 383.32031h7.6953v-10.14844h-7.6953v10.14844"/><path fill="azure" fill-rule="evenodd" d="M337.5039 375.00781h.83594v5.73828h3.19141v.7422h-4.02734v-6.48048"/><path fill="#ff3030" fill-rule="evenodd" d="M238.02734 365.5664h7.69532v-10.14452h-7.69532v10.14453"/><path fill="azure" fill-rule="evenodd" d="M239.86328 357.2539h.83203v5.73829h3.19531v.74219h-4.02734v-6.48047"/><path fill="#ffffe0" fill-rule="evenodd" d="M350.6211 360.13281h22.17968v-10.1914H350.6211v10.1914"/><path fill-rule="evenodd" d="M354.1211 351.77344h.5078v6.29297h-.78515v-4.48829h-1.39063v-.55468l.5586-.0664.2539-.0547.23047-.08984.20313-.14063.17187-.20703.14454-.29687.10546-.39453m4.8125 0l.23047.01953.21875.05469.20703.08984.19532.1211.18359.14843.17188.17578.30468.42188.24219.49219.17969.54687.10937.57813.03906.58984-.03906.59375-.10937.58594-.17969.55468-.24219.5-.30469.4297-.17187.17968-.1836.15234-.1953.125-.20704.08985-.21875.05859-.23047.01953-.23046-.01953-.21875-.0586-.20704-.08984-.1953-.125-.1836-.15234-.17188-.17969-.30469-.42969-.24218-.5-.17969-.55468-.10938-.58594-.03906-.59375h.83203l.03125.5664.07813.50391.1289.4414.16016.375.1914.30079.21094.22265.22266.13672.22656.04688.22657-.04688.22265-.13671.21094-.22266.1914-.30078.16016-.375.1289-.4414.08204-.50392.02734-.5664-.02734-.5586-.08203-.5-.1289-.4375-.16016-.36718-.19141-.28906-.21094-.21485-.22265-.13281-.22657-.04297-.22656.04297-.22265.13281-.21094.21485-.1914.28906-.16017.36719-.1289.4375-.07813.5-.03125.55859h-.83203l.03906-.58985.10938-.57812.17969-.54688.24219-.49218.30468-.42188.17188-.17578.1836-.14844.1953-.12109.20704-.08984.21875-.0547.23046-.01952m5.08985 0h.51172v6.29297h-.78907v-4.48829h-1.38671v-.55468l.55859-.0664.2539-.0547.22657-.08984.20703-.14063.17187-.20703.14063-.29687.10547-.39453m2.82422 2.17578h.78906l.01953-.3164.0586-.28516.09765-.25391.14063-.21484.18359-.17579.22265-.1289.26563-.07813.30469-.02734.23828.01953.22656.0625.20313.10156.17968.14063.14844.17187.11328.20704.07031.23437.02735.26563-.02344.26953-.0664.22265-.10938.1914-.15625.17188-.19922.16407-.2461.16406-.63671.39062-.53516.3125-.4375.31641-.34765.32422-.26563.33594-.1875.35156-.125.36719-.07031.39453-.01953.41797h4.21094v-.73829h-3.33204l.08204-.28515.11328-.23828.14843-.19922.1875-.17969.23047-.17187.27735-.17579.71875-.41796.41406-.20313.34765-.23047.28125-.2539.21875-.26563.16407-.27734.10937-.28516.0664-.28515.01954-.28125-.04297-.38282-.1211-.34765-.1875-.3086-.25-.26172-.30468-.21484-.34375-.15625-.3789-.09766-.41016-.03515-.4336.03125-.39843.10156-.35547.16406-.30469.23438-.2461.30469-.1875.375-.11327.4453-.04297.51954"/><path fill="#ffffe0" fill-rule="evenodd" d="M155.90625 401.30469h22.17969v-10.1914h-22.17969v10.1914"/><path fill-rule="evenodd" d="M159.40625 392.94531h.50781v6.29297h-.78515V394.75h-1.38672v-.55469l.5586-.0664.25-.0547.23046-.08593.20313-.14453.17578-.20703.14062-.29688.10547-.39453m4.8125 0l.23047.01953.21875.0547.20703.08983.19922.1211.1836.14844.17187.17578.30078.42187.24219.49219.17968.54688.11328.57812.03907.58984-.03906.59375-.11329.58594-.17968.55469-.2422.5-.30077.42969-.17188.17968-.1836.15235-.19921.125-.20703.08984-.21875.0586-.23047.01953-.22656-.01954-.21875-.05859-.21094-.08984-.19531-.125-.1836-.15235-.17187-.17968-.30078-.4297-.24219-.5-.17969-.55468-.11328-.58594-.03906-.59375h.83203L163 396.75l.08203.5039.125.44141.16406.375.19141.30078.20703.22266.22266.13672.22656.04687.22656-.04687.22266-.13672.21094-.22266.1914-.30078.16406-.375.125-.4414.08204-.50391.02734-.5664-.02734-.5586-.08203-.5-.125-.4375-.16407-.36719-.1914-.28906-.21094-.21484-.22266-.13282-.22656-.04296-.22656.04296-.22266.13282-.20703.21484-.1914.28906-.16407.36719-.125.4375-.08203.5-.03125.5586h-.83203l.03906-.58985.11328-.57813.17969-.54687.24219-.49219.30078-.42187.17187-.17578.1836-.14844.19531-.1211.21094-.08984.21875-.05469.22656-.01953m5.09375 0h.50781v6.29297h-.78515V394.75h-1.39063v-.55469l.5625-.0664.25-.0547.23047-.08593.20313-.14453.17578-.20703.14062-.29688.10547-.39453m2.82422 2.17578h.78516l.01953-.3164.05859-.28516.10156-.2539.14063-.21485.17969-.17578.22265-.1289.26563-.07813.30859-.02735.23828.01954.22266.0625.20312.10156.17969.14062.14844.17188.11328.20703.07031.23438.02734.26562-.02343.26953-.0625.22266-.11328.1914-.15235.17188-.20312.16406-.2461.16406-.6328.39063-.53907.3125-.4375.3164-.34766.32422-.26172.33594-.1914.35156-.125.3711-.07031.39062-.01954.41797h4.21094V398.5H172.875l.08594-.28516.11328-.23437.14844-.20313.18359-.17968.23438-.17188.27734-.17578.71484-.41797.41797-.20312.34375-.23047.28125-.2539.21875-.26563.16406-.27735.11328-.28515.0625-.28516.01954-.28125-.04297-.38281-.11719-.34766-.1914-.3086-.25-.26171-.30079-.21485-.34765-.15625-.37891-.09765-.40625-.03516-.4375.03125-.39453.10156-.35547.16407-.30469.23437-.25.30469-.1836.375-.11718.44531-.03906.51953"/><path fill="#ffffe0" fill-rule="evenodd" d="M234.21484 410.17969h22.1836v-10.1914h-22.1836v10.1914"/><path fill-rule="evenodd" d="M237.71484 401.82031h.51172v6.29688h-.78906v-4.48828h-1.38672v-.5586l.5586-.0625.25-.05469.23046-.08984.20313-.14062.17578-.21094.14063-.29297.10546-.39844m4.8125 0l.23047.01953.21875.0586.20703.08594.19922.12109.1836.15234.17187.17578.30078.41797.24219.49219.17969.54688.11328.58203.03906.58984-.03906.59375-.11328.58203-.17969.55469-.24219.5039-.30078.42579-.17187.17968-.1836.15235-.19922.125-.20703.09375-.21875.05469-.23047.01953-.22656-.01954-.21875-.05468-.21094-.09375-.1953-.125-.1836-.15235-.17188-.17968-.30078-.42579-.24219-.5039-.17968-.55469-.11328-.58203-.03907-.59375h.83594l.02734.5625.08203.5039.125.44532.16407.375.1914.30078.21094.21875.22266.13672.22265.04687.22657-.04687.22265-.13672.21094-.21875.1914-.30078.16407-.375.125-.44531.08203-.50391.02734-.5625-.02734-.5625-.08203-.5-.125-.4336-.16406-.36718-.19141-.29297-.21094-.21484-.22265-.12891-.22657-.04688-.22265.04688-.22266.1289-.21094.21485-.1914.29297-.16406.36719-.125.43359-.08204.5-.02734.5625h-.83594l.03906-.58984.11329-.58204.17968-.54687.2422-.49219.30077-.41797.17188-.17578.1836-.15234.1953-.1211.21094-.08593.21875-.0586.22656-.01953m5.09375 0h.50782v6.29688h-.78516v-4.48828h-1.39063v-.5586l.5625-.0625.25-.05469.23047-.08984.20313-.14062.17578-.21094.14063-.29297.10546-.39844m2.82422 2.17578h.78516l.01953-.3164.0586-.28516.10156-.2539.14062-.21485.17969-.17187.22266-.12891.26562-.08203.3086-.02735.23827.02344.22266.0625.20313.10156.17968.13672.14844.17188.11328.20703.07422.23828.02344.26172-.02344.26953-.0625.22266-.11328.19531-.15234.16797-.20313.16406-.2461.16406-.6328.39063-.53907.3125-.4375.3164-.34765.32422-.26172.33594-.1914.35156-.125.3711-.06642.39453-.02343.41797h4.21094v-.74219h-3.33204l.08594-.28125.11328-.23828.14844-.20313.1875-.17968.23047-.17188.27734-.17578.71875-.41406.41406-.20703.34375-.23047.28125-.25.21875-.26953.16407-.27735.11328-.28515.0625-.28125.01953-.28125-.03906-.38672-.1211-.34766-.1914-.30469-.25-.26562-.30078-.21094-.34766-.16015-.3789-.09766-.40626-.03516-.43359.03516-.39844.09765-.35547.16797-.30468.23438-.25.30078-.1836.375-.11719.44922-.03906.51562"/></g></defs><use xlink:href="#ar"/></svg>