<svg xmlns="http://www.w3.org/2000/svg" role="img" xmlns:xlink="http://www.w3.org/1999/xlink" viewBox="142.45 309.95 326.84 171.84"><defs><clipPath id="a"><path d="M144 311.67188h1v168.65625h-1zm0 0"/></clipPath><clipPath id="b"><path d="M144 311.67188h324v168.65625H144zm0 0"/></clipPath><clipPath id="c"><path d="M217 477h11v3.32813h-11zm0 0"/></clipPath><clipPath id="d"><path d="M380 467h25v13.32813h-25zm0 0"/></clipPath><clipPath id="e"><path d="M399 474h4v6.32813h-4zm0 0"/></clipPath><clipPath id="f"><path d="M467 311.67188h1v168.65625h-1zm0 0"/></clipPath><clipPath id="g"><path d="M144 479h4v1.32813h-4zm0 0"/></clipPath><clipPath id="h"><path d="M147 480h2v.32813h-2zm0 0"/></clipPath><clipPath id="i"><path d="M153 479h9v1.32813h-9zm0 0"/></clipPath><clipPath id="j"><path d="M160 480h2v.32813h-2zm0 0"/></clipPath><clipPath id="k"><path d="M166 479h9v1.32813h-9zm0 0"/></clipPath><clipPath id="l"><path d="M173 480h2v.32813h-2zm0 0"/></clipPath><clipPath id="m"><path d="M180 479h8v1.32813h-8zm0 0"/></clipPath><clipPath id="n"><path d="M193 479h8v1.32813h-8zm0 0"/></clipPath><clipPath id="o"><path d="M200 480h2v.32813h-2zm0 0"/></clipPath><clipPath id="p"><path d="M206 479h9v1.32813h-9zm0 0"/></clipPath><clipPath id="q"><path d="M213 480h3v.32813h-3zm0 0"/></clipPath><clipPath id="r"><path d="M220 479h8v1.32813h-8zm0 0"/></clipPath><clipPath id="s"><path d="M227 480h2v.32813h-2zm0 0"/></clipPath><clipPath id="t"><path d="M233 479h8v1.32813h-8zm0 0"/></clipPath><clipPath id="u"><path d="M240 480h2v.32813h-2zm0 0"/></clipPath><clipPath id="v"><path d="M246 479h9v1.32813h-9zm0 0"/></clipPath><clipPath id="w"><path d="M253 480h3v.32813h-3zm0 0"/></clipPath><clipPath id="x"><path d="M260 479h8v1.32813h-8zm0 0"/></clipPath><clipPath id="y"><path d="M265 480h2v.32813h-2zm0 0"/></clipPath><clipPath id="z"><path d="M273 478h8v2.32813h-8zm0 0"/></clipPath><clipPath id="A"><path d="M279 480h1v.32813h-1zm0 0"/></clipPath><clipPath id="B"><path d="M289 476h3v4.32813h-3zm0 0"/></clipPath><clipPath id="C"><path d="M302 476h4v4.32813h-4zm0 0"/></clipPath><clipPath id="D"><path d="M316 476h2v4.32813h-2zm0 0"/></clipPath><clipPath id="E"><path d="M329 479h3v1.32813h-3zm0 0"/></clipPath><clipPath id="F"><path d="M340 478h8v2.32813h-8zm0 0"/></clipPath><clipPath id="G"><path d="M354 477h7v3.32813h-7zm0 0"/></clipPath><clipPath id="H"><path d="M367 478h7v2.32813h-7zm0 0"/></clipPath><clipPath id="I"><path d="M380 478h8v2.32813h-8zm0 0"/></clipPath><clipPath id="J"><path d="M393 479h8v1.32813h-8zm0 0"/></clipPath><clipPath id="K"><path d="M392 477h2v3.32813h-2zm0 0"/></clipPath><clipPath id="L"><path d="M406 479h8v1.32813h-8zm0 0"/></clipPath><clipPath id="M"><path d="M406 479h3v1.32813h-3zm0 0"/></clipPath><clipPath id="N"><path d="M419 479h9v1.32813h-9zm0 0"/></clipPath><clipPath id="O"><path d="M420 479h2v1.32813h-2zm0 0"/></clipPath><clipPath id="P"><path d="M434 477h6v3.32813h-6zm0 0"/></clipPath><clipPath id="Q"><path d="M449 476h2v4.32813h-2zm0 0"/></clipPath><clipPath id="R"><path d="M459 479h9v1.32813h-9zm0 0"/></clipPath><clipPath id="S"><path d="M460 479h2v1.32813h-2zm0 0"/></clipPath><clipPath id="T"><path d="M144 466h4v2h-4zm0 0"/></clipPath><clipPath id="U"><path d="M144 452h4v4h-4zm0 0"/></clipPath><clipPath id="V"><path d="M144 438h4v5h-4zm0 0"/></clipPath><clipPath id="W"><path d="M144 425h4v5h-4zm0 0"/></clipPath><clipPath id="X"><path d="M144 411h4v5h-4zm0 0"/></clipPath><clipPath id="Y"><path d="M144 399h4v3h-4zm0 0"/></clipPath><clipPath id="Z"><path d="M144 385h4v4h-4zm0 0"/></clipPath><clipPath id="aa"><path d="M144 371h4v5h-4zm0 0"/></clipPath><clipPath id="ab"><path d="M144 357h3v7h-3zm0 0"/></clipPath><clipPath id="ac"><path d="M144 343h1v8h-1zm0 0"/></clipPath><clipPath id="ad"><path d="M144 341h2v3h-2zm0 0"/></clipPath><clipPath id="ae"><path d="M144 331h3v6h-3zm0 0"/></clipPath><clipPath id="af"><path d="M144 317h3v7h-3zm0 0"/></clipPath><clipPath id="ag"><path d="M466 318h2v2h-2zm0 0"/></clipPath><g id="ah" clip-path="url(#clip1)"><path fill="#fff" fill-opacity="0" fill-rule="evenodd" d="M0 0h1000v1000H0zm0 0"/><path fill="#d3d3d3" fill-opacity="0" fill-rule="evenodd" d="M162.15234 355.86719l-.23437.29297.0586.23437.11718.17188.17578.23437.29297.34766.11328.0586.11719-.17188.0586-.23438.17577-.17578.46485-.17578h.69922l.23437.29297.28906.8164.0586.17579.17578.23046.35156.23438.69922.69922.17188.17578.23437.34765.23438.41016.28906.58203.41015.46485.23047.23437.23438.17578.11719.23047.17578.29297.17187 1.16406v.23438l.0586.28906.05859.11719.11719.11719.34765.41015.11719.17188.17578.17578.17578.23437.11719.17188.17188.35156.05859.23438.23437.40625.23438-.0586-.17578.17578-.0586.92969h-.58203l-.23437-.11328-.34766.11328-.11719.11719-.05859.29297-.0586.17578-.11718.17187-.46484.29297-.0586.23438-.0586.11328v.64453l.0586.17187v.41016l.0586.0586v.40624l.05859.40625.11719.17579.05859.05859.23047.64062-.0586.29297v.69922l-.05859.58203v.23438l-.0586.23047-.05468.35156v1.92187l.05469.1172h.42578l-.36719.11718-.02344.35156.89063 1.16797 1.74219.53906 1.33984.35938v.53906l.08984.8086.53516.71484 1.51953.26953.89063-.08594.08984 1.16406.53516.1797 1.16015-.1797 2.05469-.98437 1.16016-.36328 1.8789-.17578 1.69531-.1797-.17968.71876-1.51563.08594-1.25.08984-.80469.26953-1.07421.8086.26953.71875.53515.89843-.17968.625-.26563.8086.26563 1.07812.625.89844.80468.17969 1.25-.1797-.26562.72267.09766.5039.05468.29297v.17188l.0586.29296v.40625l.17578.1172.35156.11718h.40625l.29297-.17578.11328-.11719.0586-.11719.11718-.23047.0586-.17578.35156-.46484.23047-.17578.17578-.0586.17578.0586.0586.17578.11718.98828.05469.46875.0586.17188.11718.23437.17578.0586.8164.05859h.28907l.11719.23437.05859.40625.0586.35156v1.10547l.11718.29297.11719.34766.28906.69922.17578.35156.58203.7539.35157.17579.17187.0586.46875.23437.64063.46484.34765.23438.29297.17578.29297.05468.23047.0625.8164.34766.29297.17578.11328.17188.35157.35156.11719.17578.52343.64063v.28906l.0586.35156v.34766l.05859.35156.0586.28906.11718.0586.17188.05859h.17578l.58203.23437.17578.1172.17578.28905.17578.23438.11328.23437.29297.23047.11719.11719v.41016l.0586.05468.28906.23438.23437.11719.0586.11718.11718.17188.0586.11719.23047.23437.05859.17578.23437.0586.1172.05859-.1172.11328-.05859.11719v.11719l-.11719.29296-.11719.28907v.58203l.17579.11719.11718.05859.0586.11719.11719.11719.11328.05859.17578.34765.0586.35157.05858.40625v.17578l-.05859.17578-.11719.69922v.17187l.1172.17579.29296.29296h.40625l.17578.1172.11719.17187.11719.29296v.23438h-.52735l-.23047-.23438h-.23437l-.17578.0586-.0586.69922.0586.34765.11719.17579.17578.41015.11718.23047.28907.46875.17578.05469h.52344l.23437.0586.75781.64062.0586.29296v.23438l.05859.0586.23047.34765v.35156l-.11719.17188v.29297l.29297.28906.29297.17578.17187.0586.29297.17577.29297.1172.58203.40624.28906.23438.29297.17578.21875.16015.01563.01172.23047.17579.64062.52343.17578.23438.1172.17578.17577.17578.11328.17188v.64062l.1172.17578.46874.11719.58203.11719.23438.05859.23047.11328.29297.11719.11328.0586.58593.35156.28907.17187.17578.0625.17578.05469.17578.0586.69922.35155.28906.17579.23438.05468.28906.17578.23437.1172.64063.40624.29297.11719.17187.0586.23438.05859.41015.05859.23047.0586.23438.11718.0586.17188-.41017.17578.46875.0586.0586.29296.11328.23438.17578.05468.23438.0586.17578.05859.40625.11719.64062.23437.11719.17188.0586.23437v.17578l-.0586.1172-.0586.40624.23438.23438.11719.05859.34766.11719.64062.23047.17578.11718.28906.1172.17578.17577.23438.46485.58203 1.10546.17578.17579.34766.17578.17578.11719.35156.11718 1.04688.52344.23437.0586.46485.11327.29297.0586.46484.17578.75781.58203.23438.23438.34765.46484.17578.17578.28907.23438.8164.69921.29297.17579.28906.28906.29297.17578.29297.28906.69531.64063.17578.17578.29297.23437.28907.23438.46875.28906.64062.58203.34766.23438.23437.29297.34766.34765.35156.46485.9336.99218.34765.40625.11719.17579.23437.05859.11328.11719.64454.17578.23047.11328.23437.0586.29297.17577.23047.1172.9336.69921.40624.40625.23438.17578.40625.17578.23437.11719.8164.34766.34766.23437.23438.11719.29297.28906.23047.11719.7578.35156.35157.17188.23047.05859.29297.11719.23437.0586.8711.17577h.8164l.46875.23047.17188.0586.875.69921.46484.1172.29297.05858.17578.0586.23047.0586.46875.05859.34766.05859.35156.0586.40625.05859h.29297l.17187.0586v.23046l.17578.17578h.29297l.34766.0586.35156.05859.69922.11719h.64063l.46484-.23438.29297-.17578.17187-.11719.41016-.17187.28906-.17578.9336-.46485.46875-.29297.52343-.29296.46485-.17188.46484-.17578 1.05078-.46485.28906-.11718.41016-.11719.28906-.11719.52735-.17578 1.51562-.69922.58203-.34765.28907-.0586.29297-.0586.34765-.11718.875-.23047.35156-.11719h.11329l.23437-.05859.875-.23437.23438-.0586h.8125l.35156-.0586.8164-.11718.17188-.0586.35156-.05468.29297-.0586.23047-.05859.8164-.17578.17579-.0586h.34765l.23438-.05859.46484-.11718.75781-.17188.23438-.0586h.34765l.41016-.11718.28906-.0586 1.28516-.05859h.28906l.41016-.0586.23047-.05858h.17578l.875-.1172h.40625l.41015-.11718h.34766l.35156-.11328.8711-.0586h1.75l1.04687.28907.41016.11719.28906.11718.35156.11719.28907.11719 1.05078.17187.28906.0586h.29297l.29297.05859.17187.0586.41016.05859.17187.0586.1172.05858h.11718l.11719.0586.35156.0586h.11328l.41016.0664 1.92187.39453 1.92578.39453 1.51953.44922 1.69532.71875 2.14453.80469 1.60547-.71875 1.42968-.80469 1.16016-1.07813 1.25-.44921 3.03516-.71875 1.875-.35938 2.14453-1.34765 2.23437-1.25391 2.5-1.25781 1.69531-.44922 1.78516-.17969 1.16016-.26953.625.53906 1.33984-.26953.71485-.98828.98437-1.34375.44531-.17969.80469-.35937 1.875-.53907 1.78516-.44921 1.25-.26954 1.16015-.08984 1.69922-.08984 1.96094-.26954 1.25-.08984h.53906l.625-.08984h.89063l2.14453-.17969 2.41015-.17969 2.58985-.08984 1.69531.17969 1.60938.08984 1.42968.35938 1.16016.71875 1.875.98828 1.16015 1.52734.26563.71484.6289.08985.35548.89844.53515.53906.53516 1.52734 1.07422.35938h.53515l-.80469.53515.08985 1.70703.71484 2.69532.89063.80468.89453.98829.71484 1.2578 1.78516.53907 1.51953-.17969.35547 1.34375 1.60937-.80469.98047-.53906.26953.26953.31641-.21484.21875-.14453.80078.44922.44922-.35938h.35547l.53515-.26953.53907-.71875.53515-.26953.625-.98828 1.16016.44922.83984.3711 1.39454.61718 1.6953-.17969h1.60548l1.78515.08985.17969-1.70704.53516-1.34375.80468.26954.4922.84765.40233.40625-.08984.53906v.35938l.71485.44922.71093-.26953h1.42969l.35938.98828.4453 1.25781.71485 1.34375 1.25.6289 1.69531.62891.71485-.17969.17969-.53906.98046-.08984.44922.35937.08594 1.25782-.26563.6289-.53515.17969v.53906l.71484.98438.26563.53906.98437.98828.80078 1.07813-.26562.35937-.08985.89844-.625 2.33203-.35546 2.0664-.08985 1.79298-.17969.71875-.08984.53906v1.4375l-.98047 1.88281-.35937 1.70703-.53516.89844-.80469 1.16797-.26562.53906 2.05469 1.2539.08593.35938-.35546.53906-.08985-.17968v.80859l.08985 1.4375-.44532.71484-1.07422.09375-.26562.71485.53515.89844.8047.71875 1.16015.80859 1.33984.26953.44531.35938-.35546.44921-1.78907-.08984-1.25-.44922-.71484-.71875-.625-.08984-.17578 3.58984-.1875 1.3086h89.35937V311.70313h-55.26953v49.08203l.76172.125 3.28906.54296 2.02344 2.83594v2.7539l2.35156.33204 2.34766.33203h4.05078l-1.3789 4.16016-2.02344.70703-2.02344.70312-.54297.34375-2.59375 1.6172-.1875.11718-2.02344-2.07813-.73046-2.74218-2.67188-2.07813-1.375-3.5-.0664-.08203-1.95704-2.67188 2.75-1.41796v-49.08204H294.42187v91.41407l.1172.03125.1328.01172.07422.07421.10547.04688.08985.0586.08593.05859.08985.0586.29687.29687.0586.08984.03125.11719.02734.11719.01563.13671-.03125.1172-.0586.08983-.0586.08594-.04296.10547-.04688.10156-.02734.1211v.14453l.17578.26953.14844.14844.07422.08594.07422.07421.04296.10547.0625.08985.0586.08593.04297.10547.0586.08985.04687.10156.04296.10547.0586.08594.11719.17968.07421.07422.0625.08594.0586.08984.04297.10547.0586.08985.05858.08593.0625.08985.0586.08984.04297.10156.11719.17969.07421.07422.0586.08594.07422.07421.08984.0586.10547.04687h.14844l.1328-.01562.13282.01562.10156-.04687.07422-.07422.04688-.10156-.01563-.13281v-.14844l-.04687-.10547-.02735-.11719-.04687-.10156-.02735-.1211-.04296-.10156-.0625-.08984-.04297-.10156-.04297-.10547-.03125-.11719-.01563-.13281-.01171-.13672.08593-.0586.0586-.08593.12109-.03125.04297.10547.01562.1328v.1172l.0586.10156.0586.08984.08983.0586.14844.14843.0586.08985.04296.10547-.01171.10156.08593.0586.10547.04687.08594.0586.08984.05858.07422.07422-.11719.02735-.10546.04687-.08594.0586-.07422.07421-.0586.08985-.0625.08594-.02734.12109-.04687.10156-.04297.10547-.03125.11719-.01172.13281-.01563.13281v.14844l.02735.11719.04687.10547.04297.10156.0586.08984.07421.07422.08985.0586.07422.07421.08984.0586.0586.08984.04296.10547.04688.10156.11719.03125.1328.01563h.14845l.11718-.03125.10547.04297.04297.10547.04688.10156.02734.1211L299.5 410l.02734.11719.03125.1211.02735.11718.10547.04297.10156.04687.13281-.01562.14844.14844.0625.08593.07422.07422.07031.07422.08984.0625.10547.04297.10156.04297.1172.03125.13671.01562.11719-.03125.07422-.07422.02734-.11718-.01172-.13282-.03125-.12109-.02734-.11719.04297-.10547h.11719l.08984.0625.11719.02735h.14843l.13282.01562h.14843l.13282.01563.1328-.01563h.14845l.1328-.01562.13282-.01172.13672.01172.11719-.02735.13281-.01562.1914-.0586-.05859.17579-.01562.1328-.02735.1211-.01562.13281-.0586.08594-.1328.01563-.10548.04687-.10546.04297-.1172.03125-.11718.02735-.26563.03125h-.14843l-.13281.01562-.07422.07422.05859.08594.14844.14843.11719.1797.07421.0703.08985.0625.08984.0586.08594.0586.08984.05858.10156.04297.10547.0625.10547.04297.08594.0586.10547.04687.10156.04297.17969.11719.0586.08984-.04298.10156-.04687.10547.01562.13281.22266.22266.0586.08985.04296.10156.03125.1211.04297.10155.01563.13282.03125.11718.01171.13672.03125.11719.14844.14844.10156.04297.10547.04296.1172.03125.1328.01563.13672.01563h.11719l.11719-.03125.08984-.0586.04297-.10547.04688-.10156.04296-.10547.03125-.11719.01172-.1328v-.14845l-.01172-.1328-.01562-.13282-.03125-.11719-.04297-.10547-.04688-.10547-.04296-.10156-.04297-.10547-.01563-.13281.01563-.13281.02734-.11719.03125-.11719.02735-.1211.04687-.10155.08984-.0586.08594-.0625.07422-.07422.08984-.05859.22266-.22266.0586-.08593.07421-.07422.11719-.17969.0586-.08594v-.14844l-.07423-.07421-.10156-.04688-.10547-.04297-.10156-.04297-.0586-.08984-.04687-.10547-.02734-.11719.08984-.05859.11719-.03125.10156-.04297.17969-.11719.14844-.14843.01172-.13282-.01172-.10546-.08985-.0586-.1328.01563h-.14845l-.1328.01562-.13282-.01562-.1211-.03125-.08593-.0586-.07422-.07422-.0586-.08984-.0625-.08594-.11718-.17969-.0586-.08593.03125-.1211.08594-.05859.1211-.03125.05859-.08594v-.1211l-.03125-.11718-.0586-.08984-.05859-.08594-.04687-.10547-.02735-.11719-.01562-.1328.0586-.08985.07421-.07422.08984-.0586.1172-.17968.07421-.07422.0586-.08594.14843-.14844.1211-.03125.1328-.01562.13282.01562.07422.07422.04297.10547.01562.13281-.03125.1172-.11719.03124-.1328.01172-.14844.14844-.04297.10547-.04688.10156-.02734.1211-.03125.11718v.14844l.03125.11719.04297.10546.05859.08985.07422.07031.07422.07422.11719.03125.12109.02734.11719-.02734.1328-.01563h.1172l.08984.0586.07422.07422.04687.10546.0586.08594.10156.04688.13281.01562.10547.04297.08594.0586-.01172.10546-.07422.07422-.17969.11719-.05859.08984-.08984.0586-.07032.07422-.07421.07421-.0625.08985-.02735.11719-.01562.1328.01562.13282-.01562.13281v.14844l.01562.13281.02735.1172.03125.12108.07421.07422.08985.0586.08594.0586.08984.05858.11719.03125v.08594l-.10157.04688-.08984.0586-.26563.03124-.11718.02735h-.14844l-.10547.04296-.10156.04688-.0586.08984-.0625.23438-.01171.13281-.03125.1211-.01563.1328v.29298l-.01172.1328.01172.13673.01563.1328.1328.01563.13282.01172.1211.03125.08593.0586.07422.07421.04688.10547.04296.10157.01563.1328v.44532l-.01563.13281v.44532l.03125.26562.02735.11719.01562.13281.03125.11719.08594.21094.03125.26562v.14844l-.03125.11719-.02734.11718-.03125.1211-.02735.11719-.03125.11718-.03125.1211-.01171.1328-.01563.13282.08984.0586.1172-.03125.10155.01562.04688.10547-.03125.26562v.44141l-.04297.10547-.04688.10547-.04296.10156-.04297.10547-.0586.08594-.03125.12109-.04296.11719-.03125.11719-.01563.1328.01563.13282.05859.08984.10547.04688.08594.0586.05859.08593-.01172.13672-.03125.11719-.04297.10156v.44531l-.01562.13281v.14844l-.03125.11719-.04297.10547-.02735.11719-.04687.10546-.04297.10157-.03125.12109-.02734.11719-.03125.13281-.03125.11719-.02735.11719-.04297.10546-.03125.1172-.03125.12108-.01171.13282-.01563.13281v.29688l.02734.11718v.14844l.04688.39844.02734.11719.0586.08984.12109.03125h.14844l.13281-.01563.0586.08985v.11719l-.0586.08984-.08984.0586-.10157.04296-.10546.04688-.08985.05859-.08594.0586-.13671.01562-.1172-.03125-.1328-.01563-.10157.04688-.0625.08594-.01172.13671-.01562.13282-.03125.11719-.02735.11718-.01562.13281-.03125.1211v.29687l.01563.13282.03125.11718v.14844l.01171.13281v.14844l-.02734.11719-.04688.10156-.02734.1211-.03125.11718-.0586.08985-.07421.07421-.10156.04297-.10547.04688-.11719.02734-.1211.03125-.10156-.04687.0586-.08594.10547-.04688.02734-.11718.03125-.11719.02734-.1211.03125-.11718v-.14844l.01563-.13281-.03125-.11719-.04297-.10547-.10547.01563-.07422.07422-.10156.04296-.08984.0625-.07422.07422-.04297.10157-.01563.1328-.03125.1172L304.25 426l-.03125.11719-.02734.11719-.03125.12109-.02735.11719-.03125.11718-.04297.10547-.08984.0586h-.08984l-.1172-.03125-.03124-.08594.01562-.13672-.03125-.11719v-.14844l-.01171-.1328v-.14844l-.0625-.23438-.02735-.1211-.04297-.10156-.04687-.10546-.0586-.08594-.05859-.08985-.04297-.10546-.0625-.08594-.14844-.14844-.0703-.07422-.10548-.04687-.10547-.04297-.10156-.04297-.29687-.29688-.08985-.07421-.08594-.0586-.10546-.04297-.08985-.0625-.08594-.0586-.10546-.04296-.08985-.0586-.08594-.0625-.07421-.0703-.10547-.04688-.08594-.0586-.10547-.04296-.08984-.0625-.10156-.04297-.10547-.04297-.08594-.0586-.10547-.04687-.10547-.04297-.10156-.04687-.08985-.0586-.10156-.04297-.10547-.04296-.08984-.0625-.11719-.02735-.13281-.01562-.13281.01562H299.75l-.13281.01563-.11719-.03125-.08984-.0586-.07422-.07422-.08985-.05859-.10156-.04688h-.14844l-.12109-.02734-.10156-.04297-.07422-.07422-.11719-.17968-.08984-.0586-.10156-.04297-.08985-.0625-.10547-.04296-.08984-.0586-.08594-.0586-.10547-.04687-.0586-.08594-.05858-.08984-.04297-.10547-.04688-.10156-.07422-.07422-.08594-.0586-.07421-.07421-.08985-.0586-.22265-.22265-.04297-.10547-.03125-.26563.10547-.04296h.14453l.10547.04296.07421.07422.08985.0586.08594.0586.10546.04687.08985.05859.14844.14844.0703.07422.14845.14843.0625.08594.07421.07422.08594.0586.07422.07421.08985.0625.08984.0586.08594.05859.26953.17578.10156.04688.10547.04296.10156.04297.04688-.07421.05859-.08594.07422-.07422.07031-.07422.10547.04297.07422.07422.0586.08984.04296.10156.04688.10547.04296.10547.1211.02735.11719-.02735.07421-.08984.04297-.10547.0586-.08985.07422-.07421.10546-.04297.1172-.02735.1328.01172.08985.0586.14844.14843.05859.08985.04297.10547.04687.10156.04297.10547.04297.10156.10547.04688.10547.04296.13281.01563.08594-.0586.0586-.08984.07421-.07422.10547-.04297.11719.02735.10547.04687.10156.04297.10547.04297.10156.04688.17969.11718v.11719l-.01563.13281.01563.13281.01562.13672.0586.08594.10156.04688.1211.02734.11718.03125h.14844l.11719-.03125.05859-.08984.17969-.1172.05859-.08983.07422-.07422.0586-.08594.11718-.17969.17969-.11719.11719.03125.08984.0586.04297.07422-.01563.1328v.1172l.08985.05859h.14843l.13282-.01563.1328-.01171.26563-.03125.10547-.04297.11719-.03125.1211-.02735.07421-.07421.07031-.07422.0625-.08985-.01562-.10547-.04688-.10156-.10156-.04297-.10547-.01562-.11718.02734-.26563.03125h-.14844l-.07421-.07422-.08985-.0586-.11719-.03124-.11718-.02735-.13282-.01562h-.14843l-.13282.01563h-.29687l-.10547-.04688-.14844-.14844-.04297-.10156-.05859-.08984.22266-.22266.08593-.0586.10547-.04296.11719-.03125.13281-.01563.13281.01563.13672.01562.10157.04297.1328-.01172.08985-.0625.10156-.04297.0625-.08984-.04687-.10156-.08984-.0586-.1172-.03125-.10155-.04296-.0586-.08985-.0625-.08984v-.11719l.01563-.13281.10547-.04688.07421-.07031v-.1211l-.08984-.05859-.03125-.11719.08985-.05859.07421-.07422.04297-.10547.0586-.08984.04687-.10156.01563-.13281v-.14844l-.04688-.10547-.04297-.10156-.08984-.0586-.13281-.01562-.10157-.04297-.13671-.01563-.1172-.03125h-.4453l-.13282-.01562-.13281-.01172-.13281-.01563-.11719-.03125h-.14844l-.13281-.01562-.13281-.01172-.26563-.03125-.1211-.04297-.08593-.0586-.07422-.07421v-.14844l.01172-.13281.10547-.04688.10156-.04296.13281-.01563h.15235l.13281-.01562h.29297l.1211.03125.10156.04296.08984.0586.23438.0625.12109-.04688.08984-.05859.10156-.04297.13282-.01562.10547.04296.10156.04688.13281.01172.1211-.02735h.14453l.12109-.03125.11719-.02734.10547-.04687.07421-.07422.08594-.0586.14844-.14843.0586-.08594.04687-.10547.02734-.11719.01563-.10547-.10156-.04296-.08985-.0586-.11719-.03125-.10546-.04297-.08985-.0625-.07422-.08594-.07422-.07421-.10156-.04297-.10547-.04688-.10156-.04297-.0586-.08984-.04687-.10156-.08594-.21094-.0625-.08594-.05859-.08984-.07422-.07422-.08594-.0586h-.26953l-.11719.03126-.08984.05859-.10156.04297-.13281.01562-.10547-.01562-.02735-.11719-.0625-.08984-.11718-.03125-.10157-.04297-.14843-.14844-.03125-.11719-.01563-.10546.07422-.07422.17969-.1172.11719-.02733.11718-.03125.13672.01562.10156.04297.10547.04297.10156.04687.10547.04297.1172.03125.1328.01563.1172.02734.1328.01563.10547-.01563.08985-.0586-.07422-.07421-.10547-.04297-.07422-.07422-.07422-.08984-.14844-.14844-.08593-.0586-.08985-.05859-.07422-.07422-.08984-.0586-.10156-.04687-.1211-.02734-.10156-.04688-.10547-.04296-.11719-.03125-.10156-.04297-.1211-.03125h-.14843l-.11719.03125-.10546.04297-.08594.0625-.17969.11718-.08594.0586-.08984.0586-.10547.04687-.08594.05859-.10547.04297-.10156.04297-.10547.04687-.07422.07422-.05859.08985-.0586.08593-.04687.10547-.0586.08594-.07421.07422-.13281-.01172-.1172-.03125h-.11718l-.07422.07422-.08984.0586-.07422.07421-.08984.0586-.08594.05859-.10547.04687-.10156.04297-.13672.01563-.10156-.04297-.14844-.14844-.10547-.04688h-.08594l-.10547.04688-.10156.04297-.1211.03125-.11718-.03125-.07422-.07422v-.11719l.03125-.1211.07422-.0703.0586-.08985.07421-.07422.11719-.03125.10547-.04296h.29297l.13281-.01563.13672-.01563.10156-.04296.08985-.0586.10156-.04687.08984-.0586.13281-.01171.08985.05859.13281.01172.08984-.0586.08594-.05859.10547-.04297.08984-.0586.08594-.0625.08985-.05859.14843-.14843.0586-.08594.05859-.08985.10547-.04296.13281-.01563.11719.02735.1211.03125.05859-.0586.05859-.08984.03125-.26563.02734-.11719.10547.01172.13281.01563.10157-.04297.08984-.0586.0586-.08984.07421-.07422.0586-.08984.04687-.10156.01172-.13281-.01172-.13282-.04687-.10547-.14844-.14843-.0586-.08985-.05859-.08594-.04297-.10546v-.44532l.01563-.1328v-.14845l.01172-.1328-.0586-.0586-.08984.0586-.10156-.04298-.17969-.11719-.08594-.05859-.0625-.08984-.0586-.08985-.07421-.07421-.08594-.0586-.1211.03125-.10155.01172-.10547.04688-.08594.05859-.10547.04297-.14844.14844-.08984.05859-.08594.0586-.08984.0625-.10547.04296-.13281.01563v-.1211l.10547-.04297.11718-.03125.07422-.0703.04297-.10548v-.14844l-.02734-.11718-.14844-.14844-.13281-.01563h-.14844l-.11719.03125-.10547.04297-.10156.04297-.08984.0625-.11719.02735-.07422-.07422.01172-.13281-.04297-.10157-.04297-.10547-.08984-.05859-.11719.02734-.1211.03125-.11718.03125-.10156.04297-.1211.03125-.10156.04297-.10547.04297-.08984.0586-.10156.01562v-.11719l.01562-.13281-.0586-.08985-.07421.04297-.14844.14844-.0586.08985-.07421.07421-.04688.10547-.04296.10156-.07422.07422-.0586.08985-.07422.07422-.05859.08593-.07422.07422-.08984.0625-.07422.07031-.07422.07422-.10156.01563-.13281.01562-.10547-.04296v-.1211l.14843-.14844.04297-.10156.0586-.08984.04687-.10156.04297-.10547.0586-.08985.03124-.11719.04297-.10156.03125-.1211.02735-.11718.04687-.10547.04297-.10156.04297-.10547.07422-.07031.08984-.0625.08985-.0586.10156-.04296h.29687l.26563-.03125.10547-.04297-.07422-.07422-.11719-.03125-.10547-.04297-.08984-.0586-.10156-.04687-.08985-.0586-.10156-.04296-.10547-.04297-.08984-.0625-.08594-.0586-.10547-.04296-.10156-.04297-.1211-.03125-.11718-.03125-.10157-.04297L297.5 410.25l-.10156-.04297-.08985-.0586-.04296-.10546-.01563-.13281.10156-.04297.13281-.01563.13672.01563.13282-.01563.10156-.04297.0586-.08984.01562-.10547-.08985-.0586-.07421-.07421-.10157-.04297-.08984-.0586-.14844-.14843-.04297-.10547-.01562-.13281v-.29297l-.0586-.08985-.08984-.05859-.07422-.07422-.04297-.10547-.03125-.11718-.0586-.08985-.07421-.07422-.11719-.02734-.07422-.07422-.08984-.0586-.08984-.0625-.08594-.05859-.07422-.07421-.0586-.08594-.04687-.10547-.08594-.0586-.14843-.14843-.19532-.0586-.1328.01563-.10157.04297-.07422.07422-.04688.10156-.04296.10547-.0586.08984-.0586.08594-.29687.29687-.08984.0586h-.08594l-.0625-.08594-.04297-.10547.03125-.11719.0586-.08984.02734-.11719-.01172-.13281-.08984-.0625-.10547.04688-.11719.02734-.11719.03125-.26953.17578-.10156.04688-.11719.02734-.10546.04687-.08985.0586-.10156.04297-.0586-.08594-.04687-.10547.01563-.13281.04687-.10547.07031-.07422.07422-.07031.0586-.08985v-.14843l-.04297-.10547h-.23829l-.10156.04687-.03125.11719-.02734.11719-.03125.1211-.07422.04296-.13281.01563-.07422-.04688-.04297-.10156-.04297-.10547-.04687-.10156-.04297-.10547-.1211.03125-.10156.04297-.13281.01562-.11719.03125-.10547.04297-.08984.0586-.10156.04687-.1211.02734-.13281.01563-.10156-.04297-.0586-.08985-.04687-.10546-.04297-.10157-.04297-.10546v-.1172l.0586-.08984.08593-.05859.17969-.11719.10156-.04687.10547-.04297.10547-.0586.10156-.04296.08985-.0625.10156-.04297.10547-.0586.10156-.04687.08984-.0586.10547-.04296.10156-.04297.08985-.0625.10156-.04297.13672-.01563.11719.03125.10156.04297.1211.03125.10156.04297.10546.04688.10157.04296.10547.04297.10156.04688.10547.04297.10156.04297.10547.04687.08594.0586.10546.04296.1172.03125.10546.04297.10156.04688.08985.0586.10547.04296.10156.04297.10547.04687.11719.02735.10156.04687.1211.02735h.14843l.08594-.0586.01562-.10156.0586-.08984-.02735-.1172-.07422-.07421-.11719-.17969-.07421-.07422-.08985-.07421-.17969-.1172-.08593-.05859-.10547-.04296-.10156-.04688-.26954-.17578-.05859-.08985-.07422-.07421-.0586-.08985-.04296-.10156-.03125-.11719-.01563-.13672v-.5625l-.01171-.1328-.01563-.13282-.03125-.11719-.01562-.13281-.01172-.13281-.03125-.1211-.22266-.22265-.0586-.08594-.01562-.10547.03125-.11719.13281-.01562v-91.41406H172.9922v1.45312l-.0586.23438-.35156 1.05078-.17187.52343-.1172.34766-.17577.41016-.11719.17187-.23438.29297-.23046.0586h-.35157l-.11718.05859-.23047.40625v.29297l.11719.17578.23046.23047.1172.23437.64062.75781.29297.46485.17578.23437.23047.35156.23437.34766.64063.8164.17578.46485.17187.41016.11719.69531.17578.46875.11719 1.39844.0586.46484v.875l.11718 1.04688v4.78125l-.0586.46484-.35156 1.28125-.17578.52344-.11328.41015-.35156.9297L172.93359 336l-.23437.58203-.11719.17578-.17187.34766-.17578.40625-.35157.8164-.0586.29297-.11327.29297-.11719.28906-.0586.17579-.11718.875-.0586.40625-.05859.11718-.0586.17579-.05859.17187-.23047.52734-.11718.17188v.23437l-.11719.23438-.0586.17187-.17577.58594v.28906l-.0586.17579v.29296l-.0586.11329-.05859.52734v.17187l-.05468.23438v2.6211l-.17578.8164-.1172.17578-.17577.23438-.1172.17187-.11327.23438-.58594.93359-.23047.28906-.29297.46485-.17578.23437-.28906.35156-.35156.69922-.11328.23047-.17579.41016-.17578.23046-.40625.52735-.8164.69922-.29297.17187-.28906.23438-.17579.11719-.17578.17578-.52344.40625-.52734.17578-.17187.17578-.23438.05469-.64062.17578h-.75782m12.21094 31.02344l-1.07422.44921.35938.89454 1.25-.71485.44531-.53906-.98047-.08985"/><path fill="#d3d3d3" fill-opacity="0" fill-rule="evenodd" d="M201.50781 416.59766h-.89453l.44922.6289.98047.35938.80469-.08985.4453-.98828-.17577.08985-.71485-.35547-.89453.35547m154.6211 59.0703l-.0586-.52343v-.29297l.11328-.29297.0586-.23046.46875-.46875h.11328l.11719-.11329.11718-.05859h.17579l.23437-.0586h.34766l.23437.0586.11719.0586.23047.17187.0586.17578.11718.58203v.29297l-.11719.17578-.17187.28906-.17579.17579-.52734.52343-.23047.23438-.11719.0586h-.17578l-.11718-.0586-.40625-.29297-.17579-.11719-.11718-.0586-.0586-.11327-.05468-.1172m6.64062-10.95702l-.0586-.17188v-1.10937l.0586-.17188.17578-.0586.17188-.05858h.17578l.23437-.0586.1172.0586.05858.69921-.05859.17188-.11719.17578-.11718.0586-.23438.52343-.11328.0586h-.23438l-.05859-.1172m9.61328-14.39062l-.11719-.17578v-.69922l.29297-.875.1172-.17187.17577-.35156.11328-.23047.1172-.29297.35155-.75781.1172-.23047.17187-.23438h.17578l.11719-.0586h.64062l.11719.0586.23437.23438.17188.11328.35156.29297.11719.11718.11328.17579v.11328l.11719.05859.11718.11719v.69922l-.05859.17578v.23047l-.0586.17578-.34765 1.05078-.11719.23047-.11719.23437-.11718.0586-.23047.23437-.64063.28906h-.875l-.41015-.11718-.64063-.46485"/><path fill="none" stroke="#bebebe" stroke-linecap="round" stroke-linejoin="round" stroke-miterlimit="10" stroke-width=".5" d="M467.95703 311.69531H144.02734v168.625h323.9297v-168.625"/><g clip-path="url(#a)"><path fill="#fff" fill-opacity="0" fill-rule="evenodd" d="M144 475.89063v4.4375h.0039H144V311.67188h.0039H144v164.21875"/></g><g clip-path="url(#b)"><path fill="#fff" fill-opacity="0" fill-rule="evenodd" d="M144.0039 480.32813V311.67188h79.88673v107.02734l-4.4375.30469-4.4375 1.08984-2.3711 2.53516 2.3711 2.45703 2.57812 1.98437-2.57813 1.75781-4.4414.84375-4.4375.0625-4.4375-2.22265-1.44531-.4414-2.9922-.7422-4.4414-.55078-2.07812 1.29297-2.35938.6836-4.4375-.33594-1.53906-.34766-2.89844-1.03125-3.875 1.03125-.5664.23828-4.4375 1.94922-2.67578 2.25-1.76172 1.88281-2.09375 2.5547-2.34375 1.78906-2.40235 2.64843-1.44922 4.4375.03516 4.4414.04297 4.4375 3 4.4375.77344 1.23438 4.4375 1.26563 4.4375-.32813 4.4375-1.07812 2.09375-1.09375 2.34765-1.21485 4.4375.02735 4.4375-1.04297 3.16797-2.20703 1.26953-.4414 4.4414-.19923 3.92579.64063.51172.26562 4.16797 4.17188.26953.22656 4.4375.92188 1.58203-1.14844 2.85938-4.30078 2.35937 4.30078 2.07813.79687 1.6289-.79687 2.8086-2.48828 2.18359-1.94922 2.2539-3.78516 4.4375 1.61328 4.44141-.61718 4.4375.85937 4.4375-1.46875 4.4375-.35547 4.4375.16797 4.4414-.73437 4.4375 2.5078 4.4375-1.2539 3.44532-1.3711.99219-1.24218 2.02344-3.19922 2.41796-.83203 3.28125-3.60547 1.15625-.89844 4.4375.73438 4.4375-.96094v3.47656l-3.34765 2.08594 3.34765 2.42578 2.375-2.42578-2.375-2.08594v-3.47656l3.27735-3.3125.53125-4.4375-3.8086-3.82812-4.4375.07812-4.4375-.27344-4.4375-.125-4.4414.69922-.66406-.98828-3.77344-3.64844-3.6875 3.64844-.75 1.41016-4.4375-.6914-4.4414.9414-3.1211 2.77734-1.3164 1.04688-1.08985-1.04688-3.34766-3.22265-4.4375-.14063-4.4375-.86719-.30469-.20703-4.13672-4.1289-4.4375-.28125-.02343-.03125-4.41406-3.9297V311.67189h133.15234v120.5078l-4.4414.11329-4.4375 1.90234-1.69141 1.75 1.6914 1.67578v38.26563l-.0039.0039.0039.00391.0039-.0039-.0039-.00391v-38.26563l1.85156 2.76172 2.58594 2.58985 4.4414 1.1953 4.4375-1.07421 4.4375-1.20313 1.54298-1.5078-1.54297-1.58204-4.4375-1.1875-1.05078-1.66797-3.38672-3.76562V311.67188h22.1914V442.1289l-2.67187 2.6914 2.67188 2.65625 4.04687 1.78516-4.04688 1.53125-4.4414-.94922-2.53906 3.85547-1.89844 3.86719-.20703.5703-.50781 4.4375.71484.71485 2.28906-.71484 2.14844-1.9414 4.4414 1.86327 3.09766-4.35937 1.33985-1.22266 2.51171 1.22266-1.42968 4.4375 3.35546 3.59765 4.4375.73829 4.4375-.57422 1.6211.67969 2.82031 2.63671 2.73047-2.63671 1.70703-.54688 4.4375-.51172 3.53906-3.38281-3.53906-3.95313-4.4375-.22656-4.4375.1289-4.4414.3711-2.83594-.75781-1.4414-4.4375 1.3164-4.4375-1.47656-.73047-4.4375-1.4961-4.4375 1.67188-1.38672-3.88672-3.05079-2.6914V311.67187h88.76172v168.65625h-63.27343l-.08204-4.4375-3.21484-3.35546-4.4414 2.90234-.78125-3.98438-3.65625-4.07421-4.4375 2.40625-1.21875 1.66796L383.67188 473l-3.53907 2.89063 3.53906 2.78515 3.37891-2.78515 1.0586-2.69141 4.4375 2.10156 3.83203.58985.60546.40625.8672 4.03125H227.05858l-3.16797-2.53125-4.4375.14843-2.24218 2.38281H144.0039"/></g><path fill="#50fcfc" fill-rule="evenodd" d="M157.9375 449.26172l-.03516-4.4414 1.44922-4.4375 2.40235-2.64844 2.34375-1.78907 2.09375-2.55469 1.76172-1.8828 2.67578-2.25 4.4375-1.94923.5664-.23828 3.875-1.03125 2.89844 1.03125 1.53906.34766 4.4375.33594 2.35938-.6836 2.07812-1.29297 4.4414.55079v5.60937l-4.4414.20313-4.4375.09765-4.4375.30078-4.4375.35156-4.4414 1.00391-4.21094 2.05078-.22656.10547-4.4375 2.8789-1.8711 1.45313-2.5664 1.38672-1.90235 3.05078-.76172 4.4414.92188 4.4375 1.74219 2.16407 4.4375.84766 4.4375-.26953 3.80468-2.7422.63282-.27733 4.4414-.41797 4.4375-.19141 4.4375-.73828 4.4375-1.71875 4.4414-1.03906 4.4375.22656.51563-.28125 3.92188-2.59375 2.73047-1.84766 1.70703-1.98437 1.70312-2.45313 2.73828-3.72265 4.4375 1.0625 4.08204 2.66015.35547.23438.46484-.23438 1.58594-4.4375-2.05078-2.92578-4.4375.59766-4.4375 1.33203-.9961.9961-3.44531 2.29296-3.7539-2.29297-.6836-.27344-4.4375-2.03906-4.4375-1.69531v-5.60938l2.99219.7422 1.4453.4414 4.4375 2.22265 4.4375-.0625 4.44142-.84375 2.57812-1.7578-2.57813-1.98438-2.37109-2.45703 2.3711-2.53516 4.4375-1.08984 4.4375-.3047v1.07032l-4.4375 1.04297-3.10938 1.8164 3.10938 2.66798 2.47656 1.77343 1.96094 2.63281 4.4375.4297 1.36718 1.375 3.07031 3.29687v4.48047l-.7539 1.09765.53125 4.4375.22266.71875.26171-.71875 4.1797-1.46094 1.25-2.97656-1.25-1.08984-4.44142-.00781v-4.48047l2.60938 1.14062 1.83203.98047 3.96094 3.45703.47656.66797 4.4375 1.40235 2.17188-2.07032 2.26562-3.6836 2.97266-.7539-2.97266-.6914-3.91016-3.7461-.52734-.50781-4.4375.1289-4.4375-2.70702-1.98828-1.35157-2.45313-2.44922-4.4375-.32421-1.22656-1.66797-3.21094-2.85938v-1.07031l4.41407 3.92969.02344.03125 4.4375.28125 4.13671 4.1289.3047.20703 4.4375.8672 4.4375.14062 3.34765 3.22265 1.08984 1.04688 1.3164-1.04688 3.1211-2.77734 4.4414-.9414 4.4375.6914.75-1.41016 3.6875-3.64844v1.34375l-2.32812 2.3047-2.10937 3.96874-4.4375-1.80078-4.22656 2.26953.19921 4.4375 4.02735 2.01953 1.96875-2.01953 2.46875-3.96484v2.57812l-.86328 1.38672-3.57422 3.66406-4.4414-.68359-4.4375.73047-.44923.72656-3.98828 3.79688-4.27344.64062 4.27344 3.64453 4.4375-.67968.60156-2.96485 3.83594-2.99219 4.4414-.30468 4.4375-.82031.78516-.32032 3.65235-2.70312v4.26953l-4.4375.6211-4.4375 1.3789-3.375.8711 3.375 1.18359 4.4375 2.59375 4.4375-2.2422 1.4414-1.53515-1.4414-2.8711v-4.26952l4.4375.39062 4.4414-.66015 1.16407-1.46485-1.16407-.84375-4.4414-.09765-4.4375-.44141-4.4375-.0039v-2.57813l4.4375-.13281 4.4375 1.05859 4.4414.59375 3.3672 2.44531-3.3672 4.23438-.55859.20312.5586.2461.22265-.2461 4.21484-3.28125 4.4375 1.83594 4.4375-1.49219 1.48438-1.5 1.1875-4.4375-2.67188-2.6875-4.4375.4336-4.4375-.8125-4.4375.76562-4.4414.91797-2.05469-3.05469-2.38281-2.30469v-1.34375l3.77344 3.64844.66406.98828 4.4414-.69921 4.4375.125 4.4375.27343 4.4375-.07812 3.8086 3.82812-.53125 4.4375-3.27735 3.3125-4.4375.96094-4.4375-.73438-1.15625.89844-3.28125 3.60547-2.41796.83203-2.02344 3.19922-.99219 1.24219-3.44531 1.3711-4.4375 1.2539-4.4375-2.50781-4.4414.73437-4.4375-.16797-4.4375.35547-4.4375 1.46875-4.4375-.85937-4.44142.61718-4.4375-1.61328-2.2539 3.78516-2.1836 1.94922-2.80859 2.48828-1.6289.79687-2.07813-.79687-2.35938-4.30078-2.85937 4.30078-1.58203 1.14844-4.4375-.92188-.26953-.22656-4.16797-4.17188-.51172-.26562-3.92578-.64063-4.4414.19922-1.26954.4414-3.16797 2.20704-4.4375 1.04297-4.4375-.02735-2.34765 1.21485-2.09375 1.09375-4.4375 1.07812-4.4375.32813-4.4375-1.26563-.77344-1.23437-3-4.4375-.04297-4.4375"/><path fill="#00e8fc" fill-rule="evenodd" d="M160.01172 453.69922l-.92188-4.4375.76172-4.4414 1.90235-3.05079 2.5664-1.38672 1.8711-1.45312 4.4375-2.8789.22656-.10548 4.21094-2.05078 4.4414-1.0039 4.4375-.35157 4.4375-.30078 4.4375-.09765 4.4414-.20313v4l-.03124.00781-4.41016 1.03125-4.4375-.60937-4.4375-.3086-4.4375.07422-4.4414 1.5625-3.95313 2.6875-.48437.38281-4.4375.82422-3.72657 3.23047-.71093 2.28516-.75 2.15625.75 1.97656 4.4375 1.61719 4.4375-1.22656 4.4375-1.26954 4.4414-.1328 2.34766-.96485 2.08984-.625 4.4375-.19531 4.4375-2.14454 1.96875-1.47656 2.0664-4.4375.40626-4.34765.01562-.08985-.01562-.00781v-4l4.4375 1.69531 4.4375 2.03906v4.71875l.00781-.0078-.00781-.03516v-4.67579l.6836.27344 3.7539 2.29297 3.44531-2.29297.9961-.9961 4.4375-1.33202 4.4375-.59766 2.05078 2.92578-1.58594 4.4375-.46484.23438-.35547-.23438-4.08203-2.66015-4.4375-1.0625-2.73829 3.72265-1.70312 2.45313-1.70703 1.98437-2.73047 1.84766-3.92188 2.59375-.51562.28125-4.4375-.22656-4.4414 1.03906-4.4375 1.71875-4.4375.73828-4.4375.1914-4.44141.41798-.63282.27734-3.80468 2.74219-4.4375.26953-4.4375-.84766-1.7422-2.16406"/><path fill="#00d4fc" fill-rule="evenodd" d="M161.7539 451.23828l-.75-1.97656.75-2.15625.71094-2.28516 3.72657-3.23047 4.4375-.82421.48437-.38282 3.95313-2.6875 4.4414-1.5625 4.4375-.07422v1.1172l-4.4375.80077-4.19922 2.40625-.24218.46094-4.4375 3.30078-4.4375-1.0625-2.00391 1.73828.5 4.4414 1.5039.85548 1.75782-.85547 2.67969-3.1289 4.4375.91015 4.4414.14062 4.4375-.5625 4.4375-.5 2.11719-1.30078 2.32031-4.0664.21485-.3711-.21485-.17969-4.4375-2.625-4.4375-.40234v-1.11719l4.4375.3086 4.4375.60937 4.41016-1.03125.03125-.00781.01562.00781-.01562.08985-.40625 4.34765-2.0664 4.4375-1.96876 1.47656-4.4375 2.14454-4.4375.1953-2.08984.625-2.34766.96485-4.4414.13281-4.4375 1.26954-4.4375 1.22656-4.4375-1.61719"/><path fill="#00c4fc" fill-rule="evenodd" d="M164.6875 449.26172l-.5-4.4414 2.0039-1.73829v1.4961l-.28124.24218.28125.85547.7539-.85547-.7539-.24219v-1.49609l4.4375 1.0625 4.4375-3.30078.24218-.46094 4.19922-2.40625 4.4375-.80078v1.11719l-4.4375 1.52734-.98437.5625.98437 2.40625 4.4375 1.78906 4.4375-.86718 2.58594-3.32813-2.58594-1.59375-4.4375-.4961v-1.11718l4.4375.40235 4.4375 2.625.21485.17968-.21485.3711-2.32031 4.0664-2.11719 1.30078-4.4375.5-4.4375.5625-4.4414-.14062-4.4375-.91016-2.6797 3.1289-1.7578.85548-1.50391-.85547"/><path fill="#00b8fc" fill-rule="evenodd" d="M166.1914 445.67578l-.28124-.85547.28125-.24219.7539.2422-.7539.85546m13.3164-2.88672l-.98437-2.40625.98437-.5625 4.4375-1.52734v1.11719l-2.46875.97265 2.46875 1.95703 4.4375-1.15625.6211-.80078-.6211-.38281-4.4375-.58984v-1.1172l4.4375.4961 2.58594 1.59375-2.58594 3.32813-4.4375.86719-4.4375-1.78907"/><path fill="#00a8fc" fill-rule="evenodd" d="M183.94531 442.33984l-2.46875-1.95703 2.46875-.97265 4.4375.58984.6211.38281-.6211.80078-4.4375 1.15625"/><path fill="#50fcfc" fill-rule="evenodd" d="M206.13672 440.34766v.04296l.00781-.0078-.00781-.03516"/><path fill="#00e8fc" fill-rule="evenodd" d="M219.45313 425.29688l-3.10938-2.66797 3.10938-1.81641 4.4375-1.04297v1.78516l-2.67579 1.07422 2.67578 2.08203 4.33594 2.35937.10156.04688 4.3672 4.39062.0703.07813 4.44141 1.91797 1.76953-1.9961-1.76953-1.17578-4.4414.44531-3.9336-3.70703-.5039-.04687-3.23047-4.39453-1.20703-1.07422v-1.78516l3.21093 2.85938 1.22656 1.66796 4.4375.32422 2.45313 2.44922 1.98828 1.35156 4.4375 2.70704 4.4375-.12891.52734.50781 3.91016 3.7461 2.97266.6914-2.97266.7539-2.26562 3.6836-2.17188 2.07031-4.4375-1.40234-.47656-.66797-3.96094-3.45703-1.83203-.98047-2.60938-1.14062-3.0703-3.29688-1.3672-1.375-4.4375-.42969-1.96093-2.6328-2.47656-1.77344"/><g clip-path="url(#c)"><path fill="#50fcfc" fill-rule="evenodd" d="M217.21094 480.32813l2.24219-2.38282 4.4375-.14844 3.16796 2.53125h-9.84765"/></g><path fill="#00d4fc" fill-rule="evenodd" d="M223.89063 424.71094l-2.67579-2.08203 2.67578-1.07422 1.20704 1.07422 3.23047 4.39453.5039.04687 3.9336 3.70703 4.4414-.4453 1.76953 1.17577-1.76953 1.9961-4.4414-1.91797-.07032-.07813-4.36719-4.39062-.10156-.04688-4.33594-2.35937"/><path fill="#fff" fill-opacity="0" fill-rule="evenodd" d="M232.76563 439.28516l-.75391 1.09765.53125 4.4375.22266.71875.26171-.71875 4.1797-1.46094 1.25-2.97656-1.25-1.08984-4.44142-.00781m13.31641 4.89453l-4.27344.64062 4.27344 3.64453 4.4375-.67968.60156-2.96485 3.83594-2.99219 4.4414-.30468 4.4375-.82031.78516-.32032 3.65235-2.70312 4.4375.39062 4.4414-.66015 1.16407-1.46485-1.16407-.84375-4.4414-.09765-4.4375-.44141-4.4375-.0039-.86328 1.38671-3.57422 3.66406-4.4414-.68359-4.4375.73047-.44923.72656-3.98828 3.79688"/><path fill="#00e8fc" fill-rule="evenodd" d="M255.3711 435.94531l-.19923-4.4375 4.22657-2.26953 4.4375 1.80078 2.10937-3.96875 2.32813-2.30469v2.23829l-.0625.0664.0625.1289.0664-.1289-.0664-.0664v-2.23829l2.38281 2.3047 2.05469 3.05468 4.4414-.91797 4.4375-.76562v1.59765l-3.48046 1.46875 3.48046 2.50781 2.82813 1.9297 1.60937.85937 1.97657-.85938 2.46093-2.4375.78125-2-.78125-.78515-3.61718.78515-.82032.83594-.41015-.83594-4.02735-1.46875v-1.59765l4.4375.8125 4.4375-.4336 2.67188 2.6875-1.1875 4.4375-1.48438 1.5-4.4375 1.49219-4.4375-1.83594-4.21484 3.28125-.22266.2461-.55859-.2461.5586-.20312 3.36718-4.23438-3.36719-2.44531-4.4414-.59375-4.4375-1.0586-4.4375.13282-2.46875 3.96484-1.96875 2.01953-4.02735-2.01953m4.02735 10.0586l-3.375-1.1836 3.375-.8711 4.4375-1.3789 4.4375-.6211 1.4414 2.8711-1.4414 1.53516-4.4375 2.24219-4.4375-2.59375"/><path fill="#00d4fc" fill-rule="evenodd" d="M268.27344 427.19922l-.0625-.1289.0625-.06641.0664.0664-.0664.1289m13.3164 6.81642l-3.48046-2.50782 3.48046-1.46875 4.02735 1.46875.41015.83594.82032-.83594 3.61718-.78515.78125.78515-.78125 2-2.46093 2.4375-1.97657.85938-1.60937-.85938-2.82813-1.92969"/><path fill="#50fcfc" fill-rule="evenodd" d="M290.46484 447.2461l-3.34765-2.42579 3.34765-2.08594 2.375 2.08594-2.375 2.42578m57.69922-9.625l-1.6914-1.67578 1.6914-1.75 4.4375-1.90234v1.41015l-3.21875 2.2422 3.21875 4.23437.11719.20312 4.32422 2.80078 4.4375-2.6914.26172-.10938-.26172-.10937-2.72266-4.32813-1.71484-1.90625-4.4414-.33594v-1.41015l4.4414-.11328 3.38672 3.76562 1.05078 1.66797 4.4375 1.1875 1.54297 1.58203-1.54297 1.50781-4.4375 1.20313-4.4375 1.07422-4.4414-1.19531-2.58594-2.58985-1.85157-2.76172m0 38.27344l-.0039-.0039.0039-.00391.0039.0039-.0039.00391"/><path fill="#00e8fc" fill-rule="evenodd" d="M352.60156 440.17969l-3.21875-4.23438 3.21875-2.24219 4.4414.33594v3.46875l-1.79296 2.875 1.79297 1.16016 1.86719-1.16016-1.8672-2.875v-3.46875l1.71485 1.90625 2.72266 4.32813.26172.10937-.26172.10938-4.4375 2.6914-4.32422-2.80078-.11719-.20312"/><path fill="#00d4fc" fill-rule="evenodd" d="M357.04297 441.54297L355.25 440.3828l1.79297-2.875 1.86719 2.875-1.8672 1.16016"/><path fill="#50fcfc" fill-rule="evenodd" d="M370.35547 463.28906l-.71485-.71484.50782-4.4375.20703-.57031 1.89844-3.8672 2.53906-3.85546 4.4414.94922 4.04688-1.53125-4.04688-1.78516-2.67187-2.65625 2.67188-2.6914 3.05078 2.6914 1.38671 3.88672 4.4375-1.67187v4.64062l-1 2.02344 1 2.21875 4.15235-2.21875-4.15235-2.02344v-4.64062l4.4375 1.49609v10.07813l-4.4375 2.3789-1.0078 1.58594 1.0078 1.08203 4.4375 2.66406 4.4375-1.75781 4.44141 1.6289 4.4375-1.03515 4.4375-1.02734 1.6289-1.5547-1.6289-1.8164-4.4375-.95312-4.4375.35937-4.4414.46485-4.4375-2.01954v-10.07812l1.47656.73047-1.3164 4.4375 1.4414 4.4375 2.83594.75781 4.4414-.3711 4.4375-.1289 4.4375.22656 3.53906 3.95313-3.53906 3.38281-4.4375.51172-1.70703.54688-2.73047 2.63671-2.82031-2.63671-1.6211-.6797-4.4375.57423-4.4375-.73829-3.35546-3.59765 1.42968-4.4375-2.51171-1.22266-1.33985 1.22266-3.09765 4.35937-4.44141-1.86328-2.14844 1.9414-2.28906.71485"/><g clip-path="url(#d)"><path fill="#50fcfc" fill-rule="evenodd" d="M383.67188 478.67578l-3.53907-2.78515L383.67187 473l3.21875-1.54688 1.21875-1.66796 4.4375-2.40625v2.10156l-2.39843 1.97265 2.39844 1.86329 1.77343-1.86329-1.77344-1.97265v-2.10156l3.65625 4.07421.78125 3.98438 4.44141-2.90234 3.21485 3.35546.08203 4.4375H403l-.64844-4.4375-.92578-.96484-1.32422.96485-.38281 4.4375h-1.86719l-.86719-4.03125-.60546-.40625-3.83204-.58985-4.4375-2.10156-1.05859 2.6914-3.3789 2.78516"/></g><path fill="#00e8fc" fill-rule="evenodd" d="M388.10938 463.65625l-1.00782-1.08203 1.00781-1.58594 4.4375-2.3789v1.03906l-3.5078 2.92578 3.5078 2.76172 3.97657-2.76172-3.97656-2.92578v-1.03906l4.4375 2.01953 4.4414-.46485 4.4375-.35937v2.35156l-2.66797.41797 2.66797.39062 1.1875-.39062-1.1875-.41797v-2.35156l4.4375.95312 1.6289 1.8164-1.6289 1.5547-4.4375 1.02734-4.4375 1.03516-4.4414-1.62891-4.4375 1.75781-4.4375-2.66406"/><path fill="#fff" fill-opacity="0" fill-rule="evenodd" d="M388.10938 451.67578l-1 2.02344 1 2.21875 4.15234-2.21875-4.15235-2.02344"/><path fill="#00d4fc" fill-rule="evenodd" d="M392.54688 465.33594l-3.50782-2.76172 3.50781-2.92578v1.04297l-2.2578 1.8828 2.2578 1.78126 2.5625-1.78125-2.5625-1.88281v-1.04297l3.97657 2.92578-3.97656 2.76172"/><path fill="#00e8fc" fill-rule="evenodd" d="M392.54688 473.3164l-2.39844-1.86327 2.39844-1.97266 1.77343 1.97265-1.77344 1.86329"/><path fill="#00c4fc" fill-rule="evenodd" d="M392.54688 464.35547l-2.25782-1.78125 2.25781-1.88281v1.04296l-1.01171.83985 1.01171.79687 1.14454-.79687-1.14454-.83985v-1.04296l2.5625 1.8828-2.5625 1.78126"/><path fill="#00b8fc" fill-rule="evenodd" d="M392.54688 463.3711l-1.01172-.79688 1.01171-.83985 1.14454.83985-1.14454.79687"/><g clip-path="url(#e)"><path fill="#00e8fc" fill-rule="evenodd" d="M399.71875 480.32813l.38281-4.4375 1.32422-.96485.92578.96485.64844 4.4375h-3.28125"/></g><path fill="#00d4fc" fill-rule="evenodd" d="M405.86328 462.96484l-2.66797-.39062 2.66797-.41797 1.1875.41797-1.1875.39062"/><g clip-path="url(#f)"><path fill="#fff" fill-opacity="0" fill-rule="evenodd" d="M467.9961 480.32813H468V311.67188h-.0039H468v168.65625h-.0039"/></g><path fill="#fff" fill-opacity="0" fill-rule="evenodd" d="M405.01953 461.72266l5.26953 2.51562 4.29688-8.98437-5.27344-2.51954-4.29297 8.98829"/><path fill-rule="evenodd" d="M411.67969 455.89453l.46094.22266-2.71485 5.67969-.71094-.33985 1.9375-4.05078-1.2539-.60156.24219-.5.53125.1836.25.05858.24609.01954.2461-.03907.24609-.11328.2539-.20703.26563-.3125"/><path fill="#fff" fill-opacity="0" fill-rule="evenodd" d="M256.10938 432.95703l5.83593-.16015-.27344-9.95704-5.83593.16016.27344 9.95703"/><path fill-rule="evenodd" d="M259.38281 424.73438l.50781-.01172.17579 6.28906-.78907.02344-.12109-4.48829-1.39063.03907-.01562-.55469.5586-.08203.25-.0586.22656-.09765.19921-.14844.17188-.21484.13281-.29688.09375-.39844"/><path fill="#fff" fill-opacity="0" fill-rule="evenodd" d="M224.69922 461.71875l4.36328-3.8789-6.61719-7.44532-4.36719 3.88281 6.6211 7.44141"/><path fill-rule="evenodd" d="M221.91406 453.32031l.3789-.33594 4.1836 4.70313-.58984.52344-2.98047-3.35547-1.03906.92187-.3711-.41406.375-.42187.15625-.20704.10938-.21875.0586-.24218L222.1875 454l-.08984-.3125-.1836-.36719"/><g clip-path="url(#g)"><path fill="none" stroke="#000" stroke-linecap="round" stroke-linejoin="round" stroke-miterlimit="10" stroke-width=".5" d="M147.50781 480.54688l-7.01562-.4375"/></g><g clip-path="url(#h)"><path fill="none" stroke="#000" stroke-linecap="round" stroke-linejoin="round" stroke-miterlimit="10" stroke-width=".5" d="M147.50781 480.54688l1.01563 2.23437"/></g><g clip-path="url(#i)"><path fill="none" stroke="#000" stroke-linecap="round" stroke-linejoin="round" stroke-miterlimit="10" stroke-width=".5" d="M160.77344 480.94922l-6.91797-1.24219"/></g><g clip-path="url(#j)"><path fill="none" stroke="#000" stroke-linecap="round" stroke-linejoin="round" stroke-miterlimit="10" stroke-width=".5" d="M160.77344 480.94922l.75 2.33594"/></g><g clip-path="url(#k)"><path fill="none" stroke="#000" stroke-linecap="round" stroke-linejoin="round" stroke-miterlimit="10" stroke-width=".5" d="M174.03516 481.1914l-6.8125-1.72656"/></g><g clip-path="url(#l)"><path fill="none" stroke="#000" stroke-linecap="round" stroke-linejoin="round" stroke-miterlimit="10" stroke-width=".5" d="M174.03516 481.1914l.58593 2.38673"/></g><g clip-path="url(#m)"><path fill="none" stroke="#000" stroke-linecap="round" stroke-linejoin="round" stroke-miterlimit="10" stroke-width=".5" d="M187.30078 481.3711l-6.71094-2.08204"/></g><g clip-path="url(#n)"><path fill="none" stroke="#000" stroke-linecap="round" stroke-linejoin="round" stroke-miterlimit="10" stroke-width=".5" d="M200.72656 480.91016l-6.92969-1.16407"/></g><g clip-path="url(#o)"><path fill="none" stroke="#000" stroke-linecap="round" stroke-linejoin="round" stroke-miterlimit="10" stroke-width=".5" d="M200.72656 480.91016l.77735 2.32812"/></g><g clip-path="url(#p)"><path fill="none" stroke="#000" stroke-linecap="round" stroke-linejoin="round" stroke-miterlimit="10" stroke-width=".5" d="M214.03125 480.96875l-6.91016-1.27734"/></g><g clip-path="url(#q)"><path fill="none" stroke="#000" stroke-linecap="round" stroke-linejoin="round" stroke-miterlimit="10" stroke-width=".5" d="M214.03125 480.96875l.73828 2.33984"/></g><g clip-path="url(#r)"><path fill="none" stroke="#000" stroke-linecap="round" stroke-linejoin="round" stroke-miterlimit="10" stroke-width=".5" d="M227.34375 480.97656l-6.90625-1.29687"/></g><g clip-path="url(#s)"><path fill="none" stroke="#000" stroke-linecap="round" stroke-linejoin="round" stroke-miterlimit="10" stroke-width=".5" d="M227.34375 480.97656l.73438 2.33985"/></g><g clip-path="url(#t)"><path fill="none" stroke="#000" stroke-linecap="round" stroke-linejoin="round" stroke-miterlimit="10" stroke-width=".5" d="M240.60156 481.22656l-6.79297-1.79297"/></g><g clip-path="url(#u)"><path fill="none" stroke="#000" stroke-linecap="round" stroke-linejoin="round" stroke-miterlimit="10" stroke-width=".5" d="M240.60156 481.22656l.5625 2.38672"/></g><g clip-path="url(#v)"><path fill="none" stroke="#000" stroke-linecap="round" stroke-linejoin="round" stroke-miterlimit="10" stroke-width=".5" d="M254.01172 480.71094l-6.98438-.76563"/></g><g clip-path="url(#w)"><path fill="none" stroke="#000" stroke-linecap="round" stroke-linejoin="round" stroke-miterlimit="10" stroke-width=".5" d="M254.01172 480.71094l.91016 2.28125"/></g><g clip-path="url(#x)"><path fill="none" stroke="#000" stroke-linecap="round" stroke-linejoin="round" stroke-miterlimit="10" stroke-width=".5" d="M267.1875 481.38672l-6.70313-2.11328"/></g><g clip-path="url(#y)"><path fill="none" stroke="#000" stroke-linecap="round" stroke-linejoin="round" stroke-miterlimit="10" stroke-width=".5" d="M266.21094 481.07813l.22265 1.20703"/></g><g clip-path="url(#z)"><path fill="none" stroke="#000" stroke-linecap="round" stroke-linejoin="round" stroke-miterlimit="10" stroke-width=".5" d="M280.45703 481.51172l-6.61328-2.36719"/></g><g clip-path="url(#A)"><path fill="none" stroke="#000" stroke-linecap="round" stroke-linejoin="round" stroke-miterlimit="10" stroke-width=".5" d="M279.4961 481.16797l.17577 1.21484"/></g><g clip-path="url(#B)"><path fill="none" stroke="#000" stroke-linecap="round" stroke-linejoin="round" stroke-miterlimit="10" stroke-width=".5" d="M290.83594 483.82422l-.74219-6.98828"/></g><g clip-path="url(#C)"><path fill="none" stroke="#000" stroke-linecap="round" stroke-linejoin="round" stroke-miterlimit="10" stroke-width=".5" d="M302.45703 477.07422l2.64844 6.50781"/></g><path fill="none" stroke="#000" stroke-linecap="round" stroke-linejoin="round" stroke-miterlimit="10" stroke-width=".5" d="M302.84375 478.01953l.78516-.9414"/><g clip-path="url(#D)"><path fill="none" stroke="#000" stroke-linecap="round" stroke-linejoin="round" stroke-miterlimit="10" stroke-width=".5" d="M317.01953 476.8164l.15235 7.02344"/></g><g clip-path="url(#E)"><path fill="none" stroke="#000" stroke-linecap="round" stroke-linejoin="round" stroke-miterlimit="10" stroke-width=".5" d="M331.4336 480.32813l-.01954-.19922-.0586-.19141-.09374-.17578-.46094-.3789-.1914-.0586-.19922-.01953-.19922.01953-.1914.0586-.45704.3789-.09766.17578-.05859.1914-.01953.19923.01953.19921.0586.19141.09765.17969.45703.375.1914.0586.19923.01952.19921-.01953.19141-.0586.46094-.375.09375-.17968.0586-.1914.01952-.19922"/></g><g clip-path="url(#F)"><path fill="none" stroke="#000" stroke-linecap="round" stroke-linejoin="round" stroke-miterlimit="10" stroke-width=".5" d="M340.38672 481.42188l6.67969-2.1875"/></g><g clip-path="url(#G)"><path fill="none" stroke="#000" stroke-linecap="round" stroke-linejoin="round" stroke-miterlimit="10" stroke-width=".5" d="M354.30469 478.1211l5.47265 4.41406"/></g><path fill="none" stroke="#000" stroke-linecap="round" stroke-linejoin="round" stroke-miterlimit="10" stroke-width=".5" d="M355.10156 478.76563l.23047-1.20704"/><g clip-path="url(#H)"><path fill="none" stroke="#000" stroke-linecap="round" stroke-linejoin="round" stroke-miterlimit="10" stroke-width=".5" d="M367.39063 478.44922l5.93359 3.76172"/></g><path fill="none" stroke="#000" stroke-linecap="round" stroke-linejoin="round" stroke-miterlimit="10" stroke-width=".5" d="M368.2539 478.9961l.09376-1.22266"/><g clip-path="url(#I)"><path fill="none" stroke="#000" stroke-linecap="round" stroke-linejoin="round" stroke-miterlimit="10" stroke-width=".5" d="M380.49219 478.83594l6.35937 2.98828"/></g><path fill="none" stroke="#000" stroke-linecap="round" stroke-linejoin="round" stroke-miterlimit="10" stroke-width=".5" d="M380.49219 478.83594l-.1211-2.45313"/><g clip-path="url(#J)"><path fill="none" stroke="#000" stroke-linecap="round" stroke-linejoin="round" stroke-miterlimit="10" stroke-width=".5" d="M393.51563 479.78125l6.9414 1.09375"/></g><g clip-path="url(#K)"><path fill="none" stroke="#000" stroke-linecap="round" stroke-linejoin="round" stroke-miterlimit="10" stroke-width=".5" d="M393.51563 479.78125l-.80079-2.3164"/></g><g clip-path="url(#L)"><path fill="none" stroke="#000" stroke-linecap="round" stroke-linejoin="round" stroke-miterlimit="10" stroke-width=".5" d="M406.94531 481.375l6.71094-2.08984"/></g><g clip-path="url(#M)"><path fill="none" stroke="#000" stroke-linecap="round" stroke-linejoin="round" stroke-miterlimit="10" stroke-width=".5" d="M407.92188 481.07031l-.8711-.86328"/></g><g clip-path="url(#N)"><path fill="none" stroke="#000" stroke-linecap="round" stroke-linejoin="round" stroke-miterlimit="10" stroke-width=".5" d="M420.10547 480.4414l7.02344-.22656"/></g><g clip-path="url(#O)"><path fill="none" stroke="#000" stroke-linecap="round" stroke-linejoin="round" stroke-miterlimit="10" stroke-width=".5" d="M421.125 480.41016l-.60938-1.06641"/></g><g clip-path="url(#P)"><path fill="none" stroke="#000" stroke-linecap="round" stroke-linejoin="round" stroke-miterlimit="10" stroke-width=".5" d="M434.9336 483.21875l3.99609-5.78125"/></g><g clip-path="url(#Q)"><path fill="none" stroke="#000" stroke-linecap="round" stroke-linejoin="round" stroke-miterlimit="10" stroke-width=".5" d="M450.21875 483.84375l.05469-7.02734"/></g><g clip-path="url(#R)"><path fill="none" stroke="#000" stroke-linecap="round" stroke-linejoin="round" stroke-miterlimit="10" stroke-width=".5" d="M460.07031 480.72656l6.98047-.79687"/></g><g clip-path="url(#S)"><path fill="none" stroke="#000" stroke-linecap="round" stroke-linejoin="round" stroke-miterlimit="10" stroke-width=".5" d="M461.08594 480.61328l-.69531-1.01172"/></g><g clip-path="url(#T)"><path fill="none" stroke="#000" stroke-linecap="round" stroke-linejoin="round" stroke-miterlimit="10" stroke-width=".5" d="M147.46094 467.61719l-6.92188-1.20703"/></g><path fill="none" stroke="#000" stroke-linecap="round" stroke-linejoin="round" stroke-miterlimit="10" stroke-width=".5" d="M147.46094 467.61719l.76562 2.33203m12.54688-2.3125l-6.91406-1.2461m6.91406 1.2461l.7461 2.33984m12.58983-2.46484l-6.95703-.9961m6.95703.9961l.83204 2.30469m12.36328-1.77344l-6.71875-2.0586m6.71875 2.0586l.46875 2.40625m12.92969-2.73828l-6.88672-1.39453m6.88672 1.39453l.69921 2.35547m12.66407-2.64454l-6.98047-.8164m6.98047.8164l.89062 2.28516m12.42188-2.28125l-6.97657-.82422m6.97657.82422l.89062 2.28516m12.36328-1.92188l-6.85547-1.55078m6.85547 1.55078l.64453 2.36719M254 467.51172l-6.95703-.9961m6.95703.9961l.83203 2.3086m12.41797-1.97657l-6.82813-1.66016m6.82813 1.66016l.60547 2.3789m12.67187-2.23827l-6.7539-1.94141m5.76953 1.66015l.2539 1.19922m11.8086-5.21093l-2.28125 6.64453m12.5625-6.28125l3.78906 5.91797m-3.23828-5.0586l.60156-1.0664m13.99219-.34766l.1289 7.02734m-.10937-6.0039l1.07031-.59766m10.53125.04688l3.51953 6.08203m8.64844-5.01563l5.8125 3.94922m-4.96484-3.375l.13281-1.21875m12.41797.52734l5.64453 4.1836m-4.82422-3.57422l.1836-1.21484m13.34765-.32813l3.57031 6.05078m-3.5703-6.05078l1.28124-2.09375m11.125 2.86328l5.39063 4.51172m-5.39063-4.51172l.50781-2.39844m12.01172 4.2461l6.98047.8164m-6.98047-.8164l-.89062-2.28516m14.9375 4.86719l5.51562-4.34766m-5.51562 4.34766l-2.2461-.98438m15.26172-2.91796l6.1172 3.45703m-5.23048-2.95313l.03125-1.22656m12.17188 1.19922l6.5664 2.5039m7.46485 1.14844l5.13281-4.80078m-4.38672 4.10156l-1.16016-.39843m14.1211-4.0625l4.35156 5.51953m-3.71875-4.71485l.49219-1.125"/><g clip-path="url(#U)"><path fill="none" stroke="#000" stroke-linecap="round" stroke-linejoin="round" stroke-miterlimit="10" stroke-width=".5" d="M147.33984 454.79297l-6.67968-2.1914"/></g><path fill="none" stroke="#000" stroke-linecap="round" stroke-linejoin="round" stroke-miterlimit="10" stroke-width=".5" d="M146.36719 454.47656l.21094 1.20703m13.64843-.01953l-5.82422-3.92969m4.97657 3.35938l-.12891 1.21875m14.21484-.53906l-5.67187-4.14844m4.84766 3.54297l-.17579 1.21484m14.76563-1.4375l-6.57031-2.4961m5.61328 2.13282l.15234 1.21875m14.29297-1.48047l-6.91797-1.24219m5.91016 1.0586l.3789 1.16797m13.73828-.27344l-6.5039-2.66406m5.55469 2.27734l.125 1.21875m14.30468-1.34766l-6.83593-1.6328m5.83984 1.39452l.3086 1.1875m14.05468-2.32422l-6.9375 1.1172m5.92578-.95704l.74219.98047m13.51953-1.44922l-6.8086 1.73438m5.81641-1.48047l.82813.90625m13.3125-1.65235l-6.47656 2.71875m5.53515-2.32422l.94922.77735m13.10938-1.57422l-6.08204 3.52344m5.19532-3.01172l1.04297.64844m11.30859-2.70313l-2.38281 6.60938m2.03906-5.64844l1.21484-.17578m12.77735-.64844l-3.04688 6.33203m2.60156-5.41016l1.22657-.04687m9.01953-.60156l3.98047 5.78906m-3.40235-4.94922l.56641-1.08594m11.35156 1.02735l5.61719 4.22656m-4.79688-3.61328l.19141-1.21094m12.08594.92188l6.05078 3.57421m-5.16797-3.05078l.05469-1.22656m13.35547-.36328l4.09765 5.71094m-3.5-4.8789l.54297-1.10157m12.8164-.09375l2.8125 6.4375m-2.8125-6.4375l1.52345-1.92578m9.875 4.0039l6.64843 2.27735m-5.68359-1.94531l-.1914-1.21094m12.38671 2.52344l6.95703-1.00782m-6.95703 1.00782l-1.44922-1.98047m15.31641 3.41797l5.85547-3.88672m-5.0039 3.32422l-1.07813-.58594m14.94531 2.375l3.04297-6.33594m-2.59766 5.41406l-1.22656.05078m12.14453-1.77734l6.94922-1.03906m-6.94922 1.03906l-1.46094-1.97266m17.94922-2.04687l.60156 7m-.51171-5.98438l1.03125-.66406m9.23437 1.83594l6.51953 2.625m-5.57031-2.24219l-.1289-1.22266"/><g clip-path="url(#V)"><path fill="none" stroke="#000" stroke-linecap="round" stroke-linejoin="round" stroke-miterlimit="10" stroke-width=".5" d="M146.90234 442.36328l-5.80468-3.96094"/></g><path fill="none" stroke="#000" stroke-linecap="round" stroke-linejoin="round" stroke-miterlimit="10" stroke-width=".5" d="M146.0586 441.78906l-.13673 1.21875m13.73047 0l-4.67578-5.2461m3.9961 4.48048l-.42578 1.15234m13.01562.375l-1.86328-6.77344m1.58984 5.78907l-.89062.84375m13.625.26562l-.15625-7.02344m16.86328 2.96875l-6.9414 1.08594m19.64452 1.5039l-5.71484-4.09374m18.8711 4.29687l-5.39844-4.4961m17.03515 2.2461l-.01953-.19922-.0586-.1914-.09374-.17578-.45703-.37891-.19141-.0586-.19922-.01953-.19922.01954-.19531.05859-.45703.3789-.09375.17579-.0586.1914-.01953.19922.01953.19922.0586.1914.09375.1797.45703.375.19531.05859.19922.01953.19922-.01953.1914-.0586.45704-.375.09375-.17968.0586-.1914.01952-.19923m14.44531 2.78125l-4.30078-5.5586m14.91797-.6914l1.09375 6.9414m9.4414-4.60546l6.65235 2.26563m-5.6836-1.9336l-.1953-1.21094m12.6289.64844l6.47656 2.72656m8.46094-4.48046l3.23438 6.23828m-2.76172-5.33203l.69531-1.01172m15.1836.0078l-2.83985 6.4297m2.42578-5.4922l1.22266-.08983m12.34765-.91016l-2.52343 6.5586m2.15625-5.60548l1.21875-.14843m10.77734-1.01563l.85156 6.97656m-.72656-5.96093l1.0039-.70313m12.25391-.32031l.71485 6.99219m-.60938-5.97266l1.01953-.6836m11.73047-.2578l1.63672 6.83593m-1.63672-6.83594l1.83594-1.625m10.05469 2.33985l4.48437 5.40625m-4.48437-5.40625l.92968-2.26953m-.27734 3.05468l.46484-1.1328m10.9375 3.35937l7.00391-.61328m-7.0039.61328l-1.33594-2.0586m2.35547 1.96875l-.66797-1.03125m13.05468 1.66016l6.82032-1.69531m-5.82813 1.44922l-.82031-.91407m16.36719 3.82032l.3711-7.01563m-.31642 5.9961l-1.11328.51953m12.1875-.41797l4.7461-5.1797m-4.7461 5.1797l-2.375-.61328m17.72657-5.47266l.67578 6.99219m10.01172-5.38282l5.92578 3.77735m-5.0625-3.23047l.09765-1.22266"/><g clip-path="url(#W)"><path fill="none" stroke="#000" stroke-linecap="round" stroke-linejoin="round" stroke-miterlimit="10" stroke-width=".5" d="M147.07422 428.76953l-6.14844-3.40234"/></g><path fill="none" stroke="#000" stroke-linecap="round" stroke-linejoin="round" stroke-miterlimit="10" stroke-width=".5" d="M146.17969 428.27734l-.02344 1.22657m14.14063-.57813l-5.96485-3.71484m5.96484 3.71484l-.16406 2.44922m12.86328-1.71094l-4.73437-5.1914m4.04687 4.4375l-.41406 1.15625m12.5625.47656l-1.02344-6.94922m.875 5.9375l-.98828.73047m15.22266.07812l-2.5625-6.54297m2.1875 5.58985l-.79688.9336m16.3086-4.89845l-6.20703 3.29297m5.30468-2.8164l1.01563.6875m9.82422-3.01953l.54687 7.0039m16.53516-3.88672l-6.98438.76953m15.27735-3.54687l3.0586 6.32422m11.99218-6.66797l-.41406 7.01172m13.62109-7.01953l-.19922 7.02734m.17188-6.0039l1.09765-.54297m9.6836.52734l4.92578 5.01172m14.07422-3.90235l-6.44532 2.79297m15.625-4.78906l1.82422 6.78516m-1.5586-5.79688l.89454-.83984m13.91406-.16406l-1.6914 6.8203m1.6914-6.8203l2.3789-.59766m12.03907 1.08203l-3.89844 5.84766m3.33204-4.9961l1.21875.1211m12.55859-1.03907l-3.6914 5.98047m3.15624-5.10937l1.22266.07812m11.41016-1.41797l-1.25391 6.91797m1.07031-5.91015l1.16797-.375m9.82813-.14453l3.74609 5.9453m-3.7461-5.9453l1.21876-2.13282m-.67188 2.9961l.60938-1.0664m13.63671-.31642l.79297 6.98047m-.79297-6.98047l2.02344-1.39062m-1.90625 2.40625l2.02344-1.39063m12.25.41797l-1.35938 6.89453m1.35938-6.89453l2.35156-.71093m-2.54687 1.71484l1.17187-.35547m13.54688-.16406l-3.77344 5.92578m3.77344-5.92578l2.4453.1914m-2.99608.67188l1.22265.09375m13.51563-.16797l-5.51953 4.34766m4.71875-3.71485l1.12109.4961m8.67969-2.10547l3.11328 6.30078m-2.66016-5.38281l.71485-.9961m13.9375-.27734l-.47266 7.01172m.47266-7.01172l2.24218-1.0039"/><g clip-path="url(#X)"><path fill="none" stroke="#000" stroke-linecap="round" stroke-linejoin="round" stroke-miterlimit="10" stroke-width=".5" d="M146.97266 415.6289l-5.94532-3.75"/></g><path fill="none" stroke="#000" stroke-linecap="round" stroke-linejoin="round" stroke-miterlimit="10" stroke-width=".5" d="M146.10547 415.08203l-.08984 1.22266m14.28125-.6914l-5.96094-3.72266m5.09375 3.18359l-.08594 1.22265m14.6211-1.43359l-6.66798-2.21875m20.15625 1.30469l-7.01562-.39063m20.32813-.0664l-7.00782.52344m5.98828-.44922l.65235 1.03906m10.85156-4.30078l-1.34766 6.89844m1.15235-5.89454l1.17187-.35937m8.71094.89844l5.90625 3.8125m-5.04688-3.25782l.10157-1.22265m14.65234 6.02734l1.3086-6.90625m-1.3086 6.90625l-2.34375.72656m19.01563-1.9375l-5.40625-4.48828m4.62109 3.83594l-.25 1.20313m11.85938.71484l-.42188-7.01563m.35938 5.9922l-1.04688.64062m10.73828-2.60938l6.94922-1.03515m-5.9375.88671l-.73047-.98828m16.17578-2.8789l.66407 6.99609m-.56641-5.97656l1.02344-.67578m10.20703 5.79687l4.63672-5.28125m13.6875.38281l-5.37891 4.51563m4.59766-3.85938l1.13672.45704m7.6875-1.23829l5.16406 4.76563m-4.41016-4.07422l.3125-1.1875m17.21485.29688l-4.76563 5.16406m4.07031-4.41406l1.1875.3125m13.32813 3.51953l-5.77735-4m4.9375 3.41797l-.14062 1.21875m12.55469.68359l-2.29688-6.64063m15.39844-.0664l-1.8711 6.77343m1.8711-6.77343l2.39844-.53516m10.26562.41797l-.5664 7.0039m.5664-7.0039l2.2539-.97266m11.16798.98438l-.78125 6.98437m.78125-6.98437l2.28125-.90235m10.29297.89844l.70312 6.99219m-.70312-6.99219l2.03906-1.36328m-1.9375 2.3789l1.01953-.67968m12.9961-.32422l-.90235 6.96875m.90234-6.96875l2.29688-.86328m12.67187 1.53516l-4.21093 5.625m4.21093-5.625l2.42578.3789m8.5586-1.07422l.45312 7.01172m-.45312-7.01172l2.08594-1.28906m-2.01954 2.3086l1.04297-.64454"/><g clip-path="url(#Y)"><path fill="none" stroke="#000" stroke-linecap="round" stroke-linejoin="round" stroke-miterlimit="10" stroke-width=".5" d="M147.36719 399.4336l-6.73438 2.01171"/></g><path fill="none" stroke="#000" stroke-linecap="round" stroke-linejoin="round" stroke-miterlimit="10" stroke-width=".5" d="M146.38672 399.72656l.86328.8711m13.16016 1.5l-6.19141-3.32032m15.16797-1.625l2.48437 6.57422m11.81641-6.79297l.51563 7.00782m-.44141-5.98829l1.03906-.65234m15.875 2.3086l-6.82812 1.66015m5.83203-1.42187l.8164.91796m7.5625 2.125l5.03125-4.90625m7.28907 2.57032l7.02343-.23438m-6 .19922l-.61328-1.0625m19.72266-.21484l-6.60938 2.39062m5.64453-2.04297l.91016.82422m11.71094 3.125l-3.29688-6.20312m2.82032 5.30078l-.6875 1.01953m16.30468-2.67578l-6.9453-1.08203m5.93358.92187l.40235 1.16016m13.66797-2.95313l-6.4336 2.82422m5.5-2.41406l.96094.75781m13.05469-1.60937l-5.96875 3.70703m5.10156-3.16797l1.0625.61328m10.8125-2.7461l-1.35156 6.89454m1.15625-5.89453l1.17187-.35547m15.01563 1.75781l-6.70703 2.08985m5.73047-1.78907l.875.86328m12.96484-2.10156l-5.80078 3.96485m5.80078-3.96485l2.17187 1.13672m11.28125-.91406l-6.08203 3.51953m5.19922-3.00781l1.03906.64843m7.12891 2.44141l5.98047-3.6875m9.67578 5.29688l1.29688-6.90625m-1.10938 5.90234l-1.17187.36719m16.51562-5.96094l-3.13672 6.28906m3.13672-6.28906l2.45313-.0625m9.01953-.29297l.55078 7.0039m-.47266-5.98827l1.03516-.65625m13.65625-.16797L409.125 403.75m2.35547-6.6211l2.42578-.35937m10.86719.35156l-2.3164 6.63282m2.3164-6.63282l2.42578-.375m-2.76172 1.33985l1.21094-.1875m11.82422-.92969l-1.08204 6.9414m1.08204-6.9414l2.3203-.80469m13.52735 2.57422l-6.14844 3.40235m6.14844-3.40235l2.0586 1.33594m9.43359-2.91797l-2.5039 6.5664m2.5039-6.5664l2.4375-.30469"/><g clip-path="url(#Z)"><path fill="none" stroke="#000" stroke-linecap="round" stroke-linejoin="round" stroke-miterlimit="10" stroke-width=".5" d="M147.16797 385.60547l-6.33594 3.03515"/></g><path fill="none" stroke="#000" stroke-linecap="round" stroke-linejoin="round" stroke-miterlimit="10" stroke-width=".5" d="M147.16797 385.60547l1.97656 1.46094m-2.89844-1.01954l.98828.73047m13.28907-1.08593l-6.41797 2.86328m6.41797-2.86328l1.9336 1.5078m9.60155-3.28515l-2.85547 6.41797m2.85547-6.41797l2.44922-.17187m9.05469-.11328l.76563 6.98828m-.65625-5.96875l1.01562-.6914m9.875.91405l5.39453 4.50391m-4.60937-3.84766l.2539-1.19921m11.99219 4.65234l5.96484-3.71485m-5.96484 3.71485l-2.125-1.22656m18.34766 2.8828l.14843-7.02733m-.125 6.0039l-1.09765.55469m17.84765-3.99219l-6.76562 1.89844m5.78125-1.625l.84766.88672m13.44921-1.16797l-6.76172 1.91015m6.76172-1.91015l1.69532 1.77344m11.6953-1.44141l-6.91405 1.2461m5.91015-1.06641l.75781.96484m13.51954-1.34375l-6.83204 1.64453m5.83985-1.40625l.8125.92188m13.36719-1.58203l-6.57422 2.48828m6.57422-2.48828l1.84375 1.62109m10.96875-2.51953l-5.57032 4.28515m5.57032-4.28515l2.23437 1.01562m10.53125-1.58203l-4.47266 5.41797m4.47266-5.41797l2.40625.49219m11.53906.1875l-5.73437 4.0586m4.90234-3.46876l1.09375.55079m9.61328-2.57813l1.14844 6.9336m-.98047-5.92579l.97266-.74219M358 383.7422l-1.91797 6.76172m1.64063-5.77735l1.19921-.25781m14.4922.92188l-6.11329 3.46484m6.11328-3.46485l2.07031 1.31641m10.13282-2.50781l-3.89063 5.85156m3.89063-5.85156l2.4414.23828m11.00391-.14844l-4.15234 5.66797m4.15234-5.66797l2.42969.34766m-3.03516.47656l1.21484.17578m12.21875-1.30078l-3.17968 6.26953m3.17968-6.26953l2.45313-.04687m10.375-.15235l-2.20313 6.67188m2.20313-6.67188l2.41797-.41406m10.25.26563l-.91016 6.96484m.91016-6.96485l2.29687-.86328m11.78516 1.05079l-2.44531 6.58984m2.44531-6.58985l2.42969-.32812m11.1914.46094l-3.05859 6.32422m3.0586-6.32422l2.45312-.09375"/><g clip-path="url(#aa)"><path fill="none" stroke="#000" stroke-linecap="round" stroke-linejoin="round" stroke-miterlimit="10" stroke-width=".5" d="M147.10156 372.15625l-6.20312 3.30469"/></g><path fill="none" stroke="#000" stroke-linecap="round" stroke-linejoin="round" stroke-miterlimit="10" stroke-width=".5" d="M147.10156 372.15625l2.03516 1.3711m-2.9375-.89063l1.01562.6875m13.55078-.17188l-6.90234 1.3125m6.90234-1.3125l1.53907 1.91016m-2.54297-1.71875l.76953.95703m12.04297-3.41797l-3.88672 5.85156m3.88672-5.85156l2.4414.23828m9.08204-.82421l-.3047 7.02343m.25782-6l1.10938-.53125m8.64062 2.40625l6.91797 1.22656m-6.91797-1.22656l-.7539-2.33594m18.60937-.39453l-2.16016 6.6875m1.84375-5.71484l1.21094-.21484m14.6875 3.65234l-6.69531-2.13281m5.72266 1.82031l.21875 1.20703m12.76953.89453l-4.09766-5.71094m3.5 4.87891l-.54297 1.10156m15.5664-1.58593l-6.3164-3.07813m5.39844 2.6289l.04297 1.22657m14.53906-2.10156l-7.01563-.42969m5.9922.36719l.51171 1.11719m13.34766-3.05079l-6.0586 3.5625m6.0586-3.5625l2.08984 1.28125m11.5586-.51562l-6.72657 2.02734m6.72656-2.02734l1.73047 1.74219m11.54297-1.875l-6.64062 2.29687m6.64062-2.29687l1.79688 1.67187m10.58594-3.09765l-4.77735 5.14843m4.77735-5.14844l2.375.62891m10.51562-.96875l-3.92578 5.82813m3.35547-4.98047l1.21875.1289m12.14844-1.26562l-2.89063 6.40625m2.46875-5.47266l1.22656-.08203m13.63281-.04687l-5.13671 4.79296m5.13671-4.79296l2.32032.80078m11.47656-.14453l-6.10156 3.48437m6.10156-3.48437l2.07422 1.3125m11.29297-1.21875l-6.20313 3.29687m6.20313-3.29687l2.03515 1.37109M399 370.92969l-4.02734 5.75781M399 370.92969l2.4375.30078m11.40234.14844l-5.07812 4.85937m5.07812-4.85937l2.32813.76953m11.44531-.17578l-5.99219 3.67187m5.9922-3.67187l2.11327 1.24218m9.32031-2.73828l-2.23046 6.66406m1.90625-5.6953l1.21093-.20313m13.01563-.50781l-3.40625 6.14843m3.40625-6.14844l2.45312.04297m9.41407-.47265l-.51172 7.00781m.51172-7.00781l2.24609-.99219"/><g clip-path="url(#ab)"><path fill="none" stroke="#000" stroke-linecap="round" stroke-linejoin="round" stroke-miterlimit="10" stroke-width=".5" d="M146.25781 357.80078l-4.51562 5.38281"/></g><path fill="none" stroke="#000" stroke-linecap="round" stroke-linejoin="round" stroke-miterlimit="10" stroke-width=".5" d="M146.25781 357.80078l2.40235.51172m11.60547.27734l-5.90235 3.8086m5.90234-3.8086l2.14454 1.19532m11.29687-.9922l-6.15234 3.39845m6.15234-3.39844l2.05469 1.33984m-2.94922-.84375l1.02734.66797m11.85547-2.51172l-3.5 6.09375m3.5-6.09375l2.45313.08203m10.38672-.30859l-2.55078 6.54688m2.17968-5.59375l1.21875-.14454m8.16797 4.25l6.05078-3.5703m6.89063 2.67577l6.79687-1.77734m-5.8086 1.51562l-.83202-.90234m20.03515.76953l-6.95703-.99219m20.28125.9336l-6.97265-.875m5.95703.75l.4375 1.14453m13.85547-2.1289l-6.89844 1.34374m5.89453-1.14844l.77344.95313m13.60156-.72266l-7.01172.4922m5.99219-.41798l.64844 1.03906m13.5664-1.80468l-6.76953 1.8789m6.76953-1.8789l1.6875 1.77734m11.71485-1.36328l-6.94922 1.04688m5.9414-.89454l.73047.98829m12.1914-3.45313l-4.14452 5.67578m3.54297-4.85156l1.21484.17578m14.07422 1.13672l-6.88672 1.40234m5.88281-1.19922l.78125.94532m11.74219-3.55079l-3.29687 6.20704m3.29687-6.20704l2.45313-.0039m12.375 1.57422l-6.32422 3.0664m5.40234-2.62109l.99219.72266m13.13672-1.375l-6.10547 3.47656m5.21484-2.96875l1.03906.65625m13.07422-1.3125l-5.92578 3.77734m5.92578-3.77734l2.13672 1.20703m10.40625-2.0664l-4.3789 5.49609m4.3789-5.4961l2.41406.44922m10.27735-.84765l-3.13281 6.29296m3.1328-6.29296l2.45313-.06641m11.3086.33203l-4.02344 5.76172m4.02344-5.76172l2.43359.29297m11.20703-.03516l-4.67578 5.2422m4.67578-5.2422l2.38281.58204m10.1172-1.125l-3.04688 6.33203m2.60547-5.41016l1.22265-.05078m11.67969-1.15625l-1.33594 6.89844m1.33594-6.89844l2.34375-.71875"/><g clip-path="url(#ac)"><path fill="none" stroke="#000" stroke-linecap="round" stroke-linejoin="round" stroke-miterlimit="10" stroke-width=".5" d="M143.32813 343.73047l1.34375 6.89453"/></g><g clip-path="url(#ad)"><path fill="none" stroke="#000" stroke-linecap="round" stroke-linejoin="round" stroke-miterlimit="10" stroke-width=".5" d="M143.32813 343.73047l1.90625-1.54688"/></g><path fill="none" stroke="#000" stroke-linecap="round" stroke-linejoin="round" stroke-miterlimit="10" stroke-width=".5" d="M156.58203 343.74219l1.46484 6.8711m-1.46484-6.8711l1.88281-1.57813m12.35157 1.5039l-.375 7.01954m.375-7.01953l2.22656-1.03125m12.46094 1.39453l-3.1172 6.29688m3.1172-6.29688l2.45312-.07031M198 343.74219l-1.47656 6.8711m1.26172-5.8711l1.17968-.33594m8.14063 2.22266l6.9414 1.09765m-5.93359-.9375l-.39844-1.16015m13.6836-.92579l4.98437 4.94922m-4.98437-4.94921l.70703-2.35157m16.1211 4.82813l-.01954-.19922-.0586-.19531-.09374-.17579-.45703-.375-.19141-.05859-.19922-.01953-.19922.01953-.19531.0586-.45703.375-.09375.17578-.0586.1953-.01953.19923.01953.19922.0586.1914.09375.17578.45703.375.19531.0586.19922.01953.19922-.01953.1914-.0586.45704-.375.09375-.17578.0586-.1914.01952-.19922m15.28125 1.85156l-5.97265-3.70703m5.10156 3.16797l-.08203 1.22265m14.58984-1.35546l-6.61719-2.36329m6.6172 2.36329l.35546 2.42578m13.10156-4.27344l-6.90234 1.33203m6.90234-1.33203l1.53906 1.90625m11.8047-1.71485l-6.96095.95313m6.96094-.95313l1.4375 1.98829m11.73828-2.60157l-6.67968 2.1797m5.70703-1.86329l.88281.85156m13.09766-1.85547l-6.06641 3.55079m5.1836-3.03516l1.04296.64453m9.65625-2.86719l.9336 6.96485m15.41406-5.88282l-5.13281 4.80079m5.1328-4.80079l2.32032.79688m11.24219-.4961l-5.6289 4.20313m5.6289-4.20313l2.21875 1.04688m11.67187.125l-6.77734 1.85547m5.78906-1.58594l.84375.89063m12.9961-2.17579l-5.85547 3.88672m5.0039-3.3203l1.07813.58593m12.88281-1.4336l-5.4414 4.44922m5.4414-4.44921l2.26172.94921m10.59766-1.41015l-4.53125 5.3711m4.53125-5.3711l2.39843.51562m9.63282-1.20312l-1.96485 6.7461m1.96485-6.7461l2.40234-.5m11.73828.85937l-3.61328 6.02735m3.61328-6.02735l2.44922.125m10.00781-.4961l-1.89844 6.76954m1.6211-5.78125l1.19922-.26563m13.14062-.41406l-3.39062 6.15235m2.89843-5.25782l1.22657.01954"/><g clip-path="url(#ae)"><path fill="none" stroke="#000" stroke-linecap="round" stroke-linejoin="round" stroke-miterlimit="10" stroke-width=".5" d="M141.45313 331.44531l5.09375 4.83594"/></g><path fill="none" stroke="#000" stroke-linecap="round" stroke-linejoin="round" stroke-miterlimit="10" stroke-width=".5" d="M154.52734 331.72656L160.10547 336m-5.57813-4.27344l.40235-2.42187m.40625 3.04297l.20312-1.21094m12.3125.57422l5.55469 4.30469m-5.55469-4.3047l.41797-2.41796m.39063 3.04297l.20703-1.20703m12.20312.71093l5.75 4.04688m-5.75-4.04688l.30469-2.43359m.53125 3.02344l.15234-1.21875m12.3047.66406l5.79296 3.97656m-4.94922-3.39844l.13672-1.21875m14.08203-.6914l2.30078 6.64062m-1.96484-5.67578l.83203-.89844m10.63672.96094l5.32031 4.58594m-4.54687-3.91797l.26953-1.19922m11.65234 1.5625l6.5586 2.52344m-5.60547-2.15625l-.14453-1.21875m16.71093 5.5039l-1.85156-6.78124m1.58203 5.79296l-.89062.83985m15.01562-.04688l-2.92969-6.39062m2.50391 5.46094l-.7461.97265m16.3711-2.17578l-6.69922-2.125m5.72266 1.8164l.22265 1.20704m14.03516-.79688l-6.6289-2.32812m5.66406 1.98828L293 335.90234m14.27344-1.66015l-6.98438-.75781m5.96875.64843l.45703 1.13672m13.87891-1.07422l-6.9961-.66406m18.7422-2.60547l-3.85938 5.875m14.25781-6.3086l1.97656 6.7422m11.02735-6.63672l2.59765 6.53125m-2.21875-5.58204l.79297-.93359m15.97266.8125l-5.0625 4.875m4.32812-4.16406l1.16407.3789m13.6289 2.625l-6.54687-2.55859m5.59375 2.1875l.14062 1.21875m12.08985-5.41406l-2.47266 6.57812m2.11328-5.62109l1.21875-.15625m10.58985-.96875l1.2578 6.91406m-1.07421-5.90625l.96094-.76172m15.35547.80079l-5.11329 4.8203m4.3711-4.11718l1.16015.39063m11.56641-1.97657l-2.44922 6.58594m2.09375-5.6289l1.21485-.16407m10.13671-.83984l2.1875 6.67969m-1.86718-5.70704l.84765-.88671m15.58594.63671l-4.6875 5.23438m4.0039-4.47266l1.19141.29297"/><g clip-path="url(#af)"><path fill="none" stroke="#000" stroke-linecap="round" stroke-linejoin="round" stroke-miterlimit="10" stroke-width=".5" d="M141.39844 318.1875l5.20312 4.72266"/></g><path fill="none" stroke="#000" stroke-linecap="round" stroke-linejoin="round" stroke-miterlimit="10" stroke-width=".5" d="M154.35547 318.65625l5.91797 3.78516m-5.91797-3.78516l.19531-2.44531m.66406 2.9961l.19922-2.44532m12.08203 2.20312l6.26953 3.16797m-6.26953-3.16797l-.05468-2.45312m.96484 2.91406l-.05078-2.45312m12.22656 2.55078l6.72266 2.04687m-6.72266-2.04687l-.46875-2.40625m1.44922 2.70703l-.47266-2.41016m12.73438 2.39453l6.8711 1.47657m-6.8711-1.47657l-.66797-2.35937m1.66797 2.57422l-.33594-1.17969m12.76172.57031l6.65234 2.26563m-6.65234-2.26563l-.39063-2.42187m13.52344 3.33594l7.01563.4414m-7.01563-.4414l-1.01172-2.23438m14.44922 3.39453l6.76953-1.8789m-6.76953 1.8789l-1.6875-1.78125m16.9961 4.0664l2.78125-6.45312m-2.78125 6.45313l-2.44532.20312m17.53516.0625l-.76953-6.98437m.66015 5.96875l-1.01562.6914m16.04688-.27343l-3.98047-5.78907m3.98047 5.78907l-1.13282 2.17968m15.28516-2.98828l-5.65625-4.16797m4.83594 3.5625l-.1797 1.21094m13.01954.47266l-3.0625-6.32422m2.61719 5.40234l-.72266.99219m15.64453-.97266l-5.38281-4.51953m4.59766 3.85938l-.25391 1.19922m15.17578-2.76563l-7.02734-.07031m6.0039.0625l.56641 1.08984m12.375-3.91797l-4.23438 5.60547m3.6172-4.79297l1.21093.19532m10.04297-1.67579l1.1211 6.9375m-.95704-5.92578l.97656-.74218m12.78907-.3125l-.10938 7.02734m.09375-6.0039l1.09375-.5625m15.0664 1.04296l-5.76562 4.01563m4.92578-3.42969l1.09375.5586m11.92578-2.1836l-3.49609 6.09375m2.98828-5.20703l1.22656.03906m11.29297-1.36328l-.88672 6.97266m.88672-6.97266l2.29297-.8711m10.08985.87891l.97656 6.95703m-.83594-5.9453l.99219-.72267m9.20703 3.77735l6.92578-1.17578m13.33203.10547l-6.96094.96093m5.94922-.8203l.71875.99608m13.04688-2.60937l-5.83985 3.91016"/><g clip-path="url(#ag)"><path fill="none" stroke="#000" stroke-linecap="round" stroke-linejoin="round" stroke-miterlimit="10" stroke-width=".5" d="M466.48047 318.59375l2.16406 1.15625"/></g><path fill="#00f" fill-rule="evenodd" d="M388.23828 472.08594h8.61719V461.9414h-8.61719v10.14453"/><path fill="azure" fill-rule="evenodd" d="M390.07031 463.77344h.83594v2.82422h3.28516v-2.82422h.83203v6.48047h-.83203v-2.91797h-3.28516v2.91797h-.83594v-6.48047"/><path fill="#00f" fill-rule="evenodd" d="M383.80078 436.57813h8.61719v-10.14454h-8.61719v10.14454"/><path fill="azure" fill-rule="evenodd" d="M385.63281 428.26563h.83203v2.82421h3.28907v-2.82421h.83203v6.48046h-.83203v-2.91406h-3.28907v2.91406h-.83203v-6.48046"/><path fill="#ff3030" fill-rule="evenodd" d="M451.07031 414.38672h7.6914v-10.14453h-7.6914v10.14453"/><path fill="azure" fill-rule="evenodd" d="M452.90234 406.07422h.83204v5.74219h3.1953v.73828h-4.02734v-6.48047"/><path fill="#ff3030" fill-rule="evenodd" d="M295.72656 409.94922h7.69531v-10.14453h-7.6953v10.14453"/><path fill="azure" fill-rule="evenodd" d="M297.5586 401.63672h.83593v5.73828h3.1914v.74219h-4.02734v-6.48047"/><path fill="#00f" fill-rule="evenodd" d="M370.48438 401.07422h8.62109v-10.14844h-8.6211v10.14844"/><path fill="azure" fill-rule="evenodd" d="M372.3164 392.76172h.83594v2.82031h3.28516v-2.82031h.83203v6.47656h-.83203v-2.91406h-3.28516v2.91406h-.83593v-6.47656"/><path fill="#ff3030" fill-rule="evenodd" d="M202.52344 370.0039h7.6914v-10.14452h-7.6914v10.14453"/><path fill="azure" fill-rule="evenodd" d="M204.35547 361.6914h.83203v5.73829h3.19531v.74219h-4.02734v-6.48047"/><path fill="#ffffe0" fill-rule="evenodd" d="M417.19531 421.42188H439.375v-10.19141h-22.17969v10.1914"/><path fill-rule="evenodd" d="M420.69531 413.0625h.50781v6.29688h-.78515v-4.4922h-1.39063v-.55468l.5625-.0625.25-.05469.23047-.08984.20313-.14063.17578-.21093.14062-.29688.10547-.39453m4.8125 0l.23047.01953.21875.05469.20703.08984.19922.1211.1836.14843.17187.17579.30078.42187.24219.49219.17969.54687.11328.57813.03906.59375-.03906.58984-.11328.58594-.1797.55469-.24218.5-.30078.42968-.17188.1797-.18359.15233-.19922.125-.20703.08985-.21875.0586-.23047.01952-.22656-.01953-.21875-.0586-.21094-.08983-.19531-.125-.1836-.15235-.17187-.17969-.30078-.42968-.2461-.5-.17968-.5547-.10938-.58593-.03906-.58984h.83203l.03125.5625.08203.5039.125.44532.16407.375.1875.30078.21093.21875.22266.13672.22656.04687.22656-.04687.22266-.13672.21094-.21875.1914-.30078.16407-.375.125-.44532.08203-.5039.02734-.5625-.02734-.5625-.08203-.5-.125-.4375-.16406-.36328-.19141-.29297-.21094-.21485-.22265-.1328-.22657-.04298-.22656.04297-.22266.13281-.21093.21485-.1875.29297-.16407.36328-.125.4375-.08203.5-.03125.5625h-.83203l.03906-.59375.10938-.57813.17969-.54687.24609-.49219.30078-.42188.17188-.17578.18359-.14843.19531-.1211.21094-.08984.21875-.05469.22656-.01953m4.95313 0l.23047.01953.21875.05469.20703.08984.19531.1211.1875.14843.16797.17579.30469.42187.24218.49219.1797.54687.11327.57813.03516.59375-.03516.58984-.11328.58594-.17969.55469-.24218.5-.3047.42968-.16796.1797-.1875.15233-.19531.125-.20703.08985-.21875.0586-.23047.01952-.23047-.01953-.21875-.0586-.20703-.08983-.19531-.125-.1836-.15235-.17187-.17969-.30079-.42968-.24609-.5-.17969-.5547-.10937-.58593-.03906-.58984h.83203l.03125.5625.08203.5039.125.44532.16015.375.19141.30078.21094.21875.22265.13672.22657.04687.22656-.04687.22266-.13672.21093-.21875.19141-.30078.16406-.375.125-.44532.08203-.5039.02735-.5625-.02735-.5625-.08203-.5-.125-.4375-.16406-.36328-.1914-.29297-.21094-.21485-.22266-.1328-.22656-.04298-.22656.04297-.22266.13281-.21094.21485-.1914.29297-.16016.36328-.125.4375-.08203.5-.03125.5625h-.83203l.03906-.59375.10937-.57813.1797-.54687.24608-.49219.30079-.42188.17187-.17578.1836-.14843.1953-.1211.20704-.08984.21875-.05469.23047-.01953m4.95312 0l.38672.02734.35938.08594.32421.13281.27735.1875.23047.23829.17187.28515.10938.33203.03906.3789-.01953.27345-.0586.23437-.08984.19922-.10937.17188-.12891.14453-.14063.12109-.28515.19531.23047.1211.20703.14453.1836.17187.15234.19531.125.21094.08984.23047.05469.2461.01953.2539-.03516.3125-.10156.32422-.17188.32422-.24218.3086-.30469.26952-.375.21485-.21094.07812-.22656.0625-.2461.03906-.26171.01172-.25781-.01171-.2422-.03907-.22265-.0625-.20703-.07812-.35938-.21485-.28906-.26953-.22265-.3086-.15625-.32421-.09375-.32422-.03125-.3125h.83203l.02734.2539.07813.23438.12109.21485.16406.18359.1914.15234.21876.11329.24219.07421.2539.02344.2539-.02344.2422-.07421.21875-.11329.1953-.15234.16017-.1836.12109-.21484.07812-.23437.02735-.2539-.02735-.25-.07812-.23829-.1211-.21094-.16015-.1836-.19531-.15233-.21875-.1172-.2422-.0703-.2539-.02735-.2539.02735-.2422.0703-.21874.1172-.1914.15234-.16407.1836-.1211.21093-.07812.23828-.02734.25h-.83203l.01953-.2539.05469-.23829.08984-.22265.125-.21094.15234-.1914.1836-.17188.20703-.15235.23437-.1328-.28906-.19532-.14063-.1211-.1289-.14452-.10938-.17188-.08984-.19922-.05469-.23437-.02344-.27344h.78907l.02344.21484.0625.1914.10546.16407.13672.14063.16406.11328.19141.07812.20703.05078.21875.01954.22266-.01954.20312-.05078.19141-.07812.16406-.11328.13672-.14063.10547-.16406.0664-.1914.01954-.21485-.01953-.21485-.06641-.1914-.10547-.16797-.13672-.13672-.16406-.11328-.1914-.08203-.20313-.05078-.22266-.01563-.21875.01563-.20703.05078-.1914.08203-.16407.11328-.13672.13672-.10546.16797-.0625.1914-.02344.21485h-.78906l.03906-.3789.10937-.33204.17188-.28515.23047-.23829.28125-.1875.3203-.1328.35938-.08595.38672-.02734"/><path fill="#ffffe0" fill-rule="evenodd" d="M350.72656 330.28906h22.17969v-10.1914h-22.17969v10.1914"/><path fill-rule="evenodd" d="M354.22656 321.92969h.50781v6.29687h-.78515v-4.48828h-1.39063v-.5586l.5586-.0625.2539-.05468.23047-.08984.20313-.14063.17187-.21094.14453-.29296.10547-.39844m4.8125 0l.23047.01953.21875.0586.20703.08593.19531.1211.1836.15234.17187.17578.3047.41797.24218.49219.17969.54687.10937.58203.03906.58985-.03906.59375-.10937.58203-.1797.55468-.24218.50391-.30469.42578-.17187.17969-.1836.15234-.1953.125-.20704.09375-.21875.05469-.23047.01953-.23047-.01953-.21875-.05469-.20703-.09375-.19531-.125-.1836-.15234-.17187-.17969-.30469-.42578-.24218-.5039-.1797-.5547-.10937-.58202-.03906-.59375h.83203l.03125.5625.07813.5078.1289.44141.16016.375.1914.30079.21094.21875.22266.13671.22656.04688.22656-.04688.22266-.13671.21094-.21875.1914-.30079.16016-.375.1289-.4414.08204-.50781.02734-.5625-.02734-.5625-.08203-.5-.1289-.4336-.16017-.36719-.1914-.29296-.21094-.21485-.22265-.1289-.22657-.04688-.22656.04688-.22266.1289-.21093.21485-.19141.29296-.16016.3672-.1289.43358-.07813.5-.03125.5625h-.83203l.03906-.58984.10938-.58203.17969-.54688.24218-.49218.3047-.41797.17187-.17578.18359-.15235.19531-.12109.20703-.08594.21875-.0586.23047-.01952m5.08985 0h.51171v6.29687h-.78906v-4.48828h-1.38672v-.5586l.5586-.0625.2539-.05468.22657-.08984.20703-.14063.17187-.21094.14063-.29296.10547-.39844m2.82421 2.17578h.78907l.01953-.3164.0586-.28516.09765-.25391.14062-.21484.1836-.17188.22265-.1289.26563-.08204.30469-.02734.23828.02344.22656.0625.20313.10156.17968.13672.14844.17187.11328.20704.07031.23828.02735.26171-.02344.26954-.0664.22656-.10938.1914-.15625.16797-.19922.16407-.2461.16796-.63671.38672-.53516.3125-.4375.31641-.34765.32422-.26563.33594-.1875.35156-.125.3711-.07031.39452-.01953.41797h4.21093v-.74219h-3.33203l.08203-.28125.11329-.23828.14843-.20312.1875-.17969.23047-.17187.27735-.17579.71875-.41406.41406-.20703.34765-.23047.28125-.25.21875-.26953.16407-.27734.10937-.28125.0664-.28516.01954-.28125-.04297-.38672-.1211-.34765-.1875-.3047-.25-.26562-.30468-.21093-.34375-.16016-.3789-.09766-.41016-.03515-.4336.03515-.39844.09766-.35546.16797-.3047.23437-.24608.3047-.1875.37108-.11329.44922-.04296.51563"/></g></defs><use xlink:href="#ah"/></svg>