<svg xmlns="http://www.w3.org/2000/svg" role="img" xmlns:xlink="http://www.w3.org/1999/xlink" viewBox="142.45 309.95 326.84 171.84"><defs><clipPath id="a"><path d="M144 311.67188h1V478h-1zm0 0"/></clipPath><clipPath id="b"><path d="M144 477h4v3.32813h-4zm0 0"/></clipPath><clipPath id="c"><path d="M144 311.67188h324v168.65625H144zm0 0"/></clipPath><clipPath id="d"><path d="M217 477h11v3.32813h-11zm0 0"/></clipPath><clipPath id="e"><path d="M369 434h45v46.32813h-45zm0 0"/></clipPath><clipPath id="f"><path d="M399 474h5v6.32813h-5zm0 0"/></clipPath><clipPath id="g"><path d="M467 311.67188h1v168.65625h-1zm0 0"/></clipPath><clipPath id="h"><path d="M144 479h4v1.32813h-4zm0 0"/></clipPath><clipPath id="i"><path d="M147 480h2v.32813h-2zm0 0"/></clipPath><clipPath id="j"><path d="M146 480h2v.32813h-2zm0 0"/></clipPath><clipPath id="k"><path d="M153 479h9v1.32813h-9zm0 0"/></clipPath><clipPath id="l"><path d="M160 480h2v.32813h-2zm0 0"/></clipPath><clipPath id="m"><path d="M159 480h2v.32813h-2zm0 0"/></clipPath><clipPath id="n"><path d="M166 479h9v1.32813h-9zm0 0"/></clipPath><clipPath id="o"><path d="M173 480h2v.32813h-2zm0 0"/></clipPath><clipPath id="p"><path d="M172 480h2v.32813h-2zm0 0"/></clipPath><clipPath id="q"><path d="M180 479h8v1.32813h-8zm0 0"/></clipPath><clipPath id="r"><path d="M186 480h1v.32813h-1zm0 0"/></clipPath><clipPath id="s"><path d="M193 479h8v1.32813h-8zm0 0"/></clipPath><clipPath id="t"><path d="M200 480h2v.32813h-2zm0 0"/></clipPath><clipPath id="u"><path d="M199 480h2v.32813h-2zm0 0"/></clipPath><clipPath id="v"><path d="M207 478h8v2.32813h-8zm0 0"/></clipPath><clipPath id="w"><path d="M212 480h2v.32813h-2zm0 0"/></clipPath><clipPath id="x"><path d="M220 479h8v1.32813h-8zm0 0"/></clipPath><clipPath id="y"><path d="M233 478h8v2.32813h-8zm0 0"/></clipPath><clipPath id="z"><path d="M247 478h7v2.32813h-7zm0 0"/></clipPath><clipPath id="A"><path d="M260 477h7v3.32813h-7zm0 0"/></clipPath><clipPath id="B"><path d="M275 476h5v4.32813h-5zm0 0"/></clipPath><clipPath id="C"><path d="M287 478h7v2.32813h-7zm0 0"/></clipPath><clipPath id="D"><path d="M301 477h6v3.32813h-6zm0 0"/></clipPath><clipPath id="E"><path d="M313 479h8v1.32813h-8zm0 0"/></clipPath><clipPath id="F"><path d="M327 477h6v3.32813h-6zm0 0"/></clipPath><clipPath id="G"><path d="M341 477h6v3.32813h-6zm0 0"/></clipPath><clipPath id="H"><path d="M354 477h6v3.32813h-6zm0 0"/></clipPath><clipPath id="I"><path d="M367 477h7v3.32813h-7zm0 0"/></clipPath><clipPath id="J"><path d="M379 479h9v1.32813h-9zm0 0"/></clipPath><clipPath id="K"><path d="M380 479h2v1.32813h-2zm0 0"/></clipPath><clipPath id="L"><path d="M393 479h8v1.32813h-8zm0 0"/></clipPath><clipPath id="M"><path d="M393 479h2v1.32813h-2zm0 0"/></clipPath><clipPath id="N"><path d="M406 479h9v1.32813h-9zm0 0"/></clipPath><clipPath id="O"><path d="M406 479h3v1.32813h-3zm0 0"/></clipPath><clipPath id="P"><path d="M420 478h7v2.32813h-7zm0 0"/></clipPath><clipPath id="Q"><path d="M420 480h2v.32813h-2zm0 0"/></clipPath><clipPath id="R"><path d="M434 477h6v3.32813h-6zm0 0"/></clipPath><clipPath id="S"><path d="M447 477h6v3.32813h-6zm0 0"/></clipPath><clipPath id="T"><path d="M460 478h7v2.32813h-7zm0 0"/></clipPath><clipPath id="U"><path d="M460 480h2v.32813h-2zm0 0"/></clipPath><clipPath id="V"><path d="M144 466h4v2h-4zm0 0"/></clipPath><clipPath id="W"><path d="M144 452h4v4h-4zm0 0"/></clipPath><clipPath id="X"><path d="M144 438h4v5h-4zm0 0"/></clipPath><clipPath id="Y"><path d="M144 425h4v4h-4zm0 0"/></clipPath><clipPath id="Z"><path d="M144 412h4v4h-4zm0 0"/></clipPath><clipPath id="aa"><path d="M144 399h4v3h-4zm0 0"/></clipPath><clipPath id="ab"><path d="M144 385h4v4h-4zm0 0"/></clipPath><clipPath id="ac"><path d="M144 372h4v4h-4zm0 0"/></clipPath><clipPath id="ad"><path d="M144 357h2v7h-2zm0 0"/></clipPath><clipPath id="ae"><path d="M144 343h3v8h-3zm0 0"/></clipPath><clipPath id="af"><path d="M144 331h4v5h-4zm0 0"/></clipPath><clipPath id="ag"><path d="M465 330h3v3h-3zm0 0"/></clipPath><clipPath id="ah"><path d="M144 317h3v7h-3zm0 0"/></clipPath><clipPath id="ai"><path d="M466 318h2v2h-2zm0 0"/></clipPath><clipPath id="aj"><path d="M352 470h10v10.32813h-10zm0 0"/></clipPath><g id="ak" clip-path="url(#clip1)"><path fill="#fff" fill-opacity="0" fill-rule="evenodd" d="M0 0h1000v1000H0zm0 0"/><path fill="#d3d3d3" fill-opacity="0" fill-rule="evenodd" d="M162.15234 355.86719l-.23437.29297.0586.23437.11718.17188.17578.23437.29297.34766.11328.0586.11719-.17188.0586-.23438.17577-.17578.46485-.17578h.69922l.23437.29297.28906.8164.0586.17579.17578.23046.35156.23438.69922.69922.17188.17578.23437.34765.23438.41016.28906.58203.41015.46485.23047.23437.23438.17578.11719.23047.17578.29297.17187 1.16406v.23438l.0586.28906.05859.11719.11719.11719.34765.41015.11719.17188.17578.17578.17578.23437.11719.17188.17188.35156.05859.23438.23437.40625.23438-.0586-.17578.17578-.0586.92969h-.58203l-.23437-.11328-.34766.11328-.11719.11719-.05859.29297-.0586.17578-.11718.17187-.46484.29297-.0586.23438-.0586.11328v.64453l.0586.17187v.41016l.0586.0586v.40624l.05859.40625.11719.17579.05859.05859.23047.64062-.0586.29297v.69922l-.05859.58203v.23438l-.0586.23047-.05468.35156v1.92187l.05469.1172h.42578l-.36719.11718-.02344.35156.89063 1.16797 1.74219.53906 1.33984.35938v.53906l.08984.8086.53516.71484 1.51953.26953.89063-.08594.08984 1.16406.53516.1797 1.16015-.1797 2.05469-.98437 1.16016-.36328 1.8789-.17578 1.69531-.1797-.17968.71876-1.51563.08594-1.25.08984-.80469.26953-1.07421.8086.26953.71875.53515.89843-.17968.625-.26563.8086.26563 1.07812.625.89844.80468.17969 1.25-.1797-.26562.72267.09766.5039.05468.29297v.17188l.0586.29296v.40625l.17578.1172.35156.11718h.40625l.29297-.17578.11328-.11719.0586-.11719.11718-.23047.0586-.17578.35156-.46484.23047-.17578.17578-.0586.17578.0586.0586.17578.11718.98828.05469.46875.0586.17188.11718.23437.17578.0586.8164.05859h.28907l.11719.23437.05859.40625.0586.35156v1.10547l.11718.29297.11719.34766.28906.69922.17578.35156.58203.7539.35157.17579.17187.0586.46875.23437.64063.46484.34765.23438.29297.17578.29297.05468.23047.0625.8164.34766.29297.17578.11328.17188.35157.35156.11719.17578.52343.64063v.28906l.0586.35156v.34766l.05859.35156.0586.28906.11718.0586.17188.05859h.17578l.58203.23437.17578.1172.17578.28905.17578.23438.11328.23437.29297.23047.11719.11719v.41016l.0586.05468.28906.23438.23437.11719.0586.11718.11718.17188.0586.11719.23047.23437.05859.17578.23437.0586.1172.05859-.1172.11328-.05859.11719v.11719l-.11719.29296-.11719.28907v.58203l.17579.11719.11718.05859.0586.11719.11719.11719.11328.05859.17578.34765.0586.35157.05858.40625v.17578l-.05859.17578-.11719.69922v.17187l.1172.17579.29296.29296h.40625l.17578.1172.11719.17187.11719.29296v.23438h-.52735l-.23047-.23438h-.23437l-.17578.0586-.0586.69922.0586.34765.11719.17579.17578.41015.11718.23047.28907.46875.17578.05469h.52344l.23437.0586.75781.64062.0586.29296v.23438l.05859.0586.23047.34765v.35156l-.11719.17188v.29297l.29297.28906.29297.17578.17187.0586.29297.17577.29297.1172.58203.40624.28906.23438.29297.17578.21875.16015.01563.01172.23047.17579.64062.52343.17578.23438.1172.17578.17577.17578.11328.17188v.64062l.1172.17578.46874.11719.58203.11719.23438.05859.23047.11328.29297.11719.11328.0586.58593.35156.28907.17187.17578.0625.17578.05469.17578.0586.69922.35155.28906.17579.23438.05468.28906.17578.23437.1172.64063.40624.29297.11719.17187.0586.23438.05859.41015.05859.23047.0586.23438.11718.0586.17188-.41017.17578.46875.0586.0586.29296.11328.23438.17578.05468.23438.0586.17578.05859.40625.11719.64062.23437.11719.17188.0586.23437v.17578l-.0586.1172-.0586.40624.23438.23438.11719.05859.34766.11719.64062.23047.17578.11718.28906.1172.17578.17577.23438.46485.58203 1.10546.17578.17579.34766.17578.17578.11719.35156.11718 1.04688.52344.23437.0586.46485.11327.29297.0586.46484.17578.75781.58203.23438.23438.34765.46484.17578.17578.28907.23438.8164.69921.29297.17579.28906.28906.29297.17578.29297.28906.69531.64063.17578.17578.29297.23437.28907.23438.46875.28906.64062.58203.34766.23438.23437.29297.34766.34765.35156.46485.9336.99218.34765.40625.11719.17579.23437.05859.11328.11719.64454.17578.23047.11328.23437.0586.29297.17577.23047.1172.9336.69921.40624.40625.23438.17578.40625.17578.23437.11719.8164.34766.34766.23437.23438.11719.29297.28906.23047.11719.7578.35156.35157.17188.23047.05859.29297.11719.23437.0586.8711.17577h.8164l.46875.23047.17188.0586.875.69921.46484.1172.29297.05858.17578.0586.23047.0586.46875.05859.34766.05859.35156.0586.40625.05859h.29297l.17187.0586v.23046l.17578.17578h.29297l.34766.0586.35156.05859.69922.11719h.64063l.46484-.23438.29297-.17578.17187-.11719.41016-.17187.28906-.17578.9336-.46485.46875-.29297.52343-.29296.46485-.17188.46484-.17578 1.05078-.46485.28906-.11718.41016-.11719.28906-.11719.52735-.17578 1.51562-.69922.58203-.34765.28907-.0586.29297-.0586.34765-.11718.875-.23047.35156-.11719h.11329l.23437-.05859.875-.23437.23438-.0586h.8125l.35156-.0586.8164-.11718.17188-.0586.35156-.05468.29297-.0586.23047-.05859.8164-.17578.17579-.0586h.34765l.23438-.05859.46484-.11718.75781-.17188.23438-.0586h.34765l.41016-.11718.28906-.0586 1.28516-.05859h.28906l.41016-.0586.23047-.05858h.17578l.875-.1172h.40625l.41015-.11718h.34766l.35156-.11328.8711-.0586h1.75l1.04687.28907.41016.11719.28906.11718.35156.11719.28907.11719 1.05078.17187.28906.0586h.29297l.29297.05859.17187.0586.41016.05859.17187.0586.1172.05858h.11718l.11719.0586.35156.0586h.11328l.41016.0664 1.92187.39453 1.92578.39453 1.51953.44922 1.69532.71875 2.14453.80469 1.60547-.71875 1.42968-.80469 1.16016-1.07813 1.25-.44921 3.03516-.71875 1.875-.35938 2.14453-1.34765 2.23437-1.25391 2.5-1.25781 1.69531-.44922 1.78516-.17969 1.16016-.26953.625.53906 1.33984-.26953.71485-.98828.98437-1.34375.44531-.17969.80469-.35937 1.875-.53907 1.78516-.44921 1.25-.26954 1.16015-.08984 1.69922-.08984 1.96094-.26954 1.25-.08984h.53906l.625-.08984h.89063l2.14453-.17969 2.41015-.17969 2.58985-.08984 1.69531.17969 1.60938.08984 1.42968.35938 1.16016.71875 1.875.98828 1.16015 1.52734.26563.71484.6289.08985.35548.89844.53515.53906.53516 1.52734 1.07422.35938h.53515l-.80469.53515.08985 1.70703.71484 2.69532.89063.80468.89453.98829.71484 1.2578 1.78516.53907 1.51953-.17969.35547 1.34375 1.60937-.80469.98047-.53906.26953.26953.31641-.21484.21875-.14453.80078.44922.44922-.35938h.35547l.53515-.26953.53907-.71875.53515-.26953.625-.98828 1.16016.44922.83984.3711 1.39454.61718 1.6953-.17969h1.60548l1.78515.08985.17969-1.70704.53516-1.34375.80468.26954.4922.84765.40233.40625-.08984.53906v.35938l.71485.44922.71093-.26953h1.42969l.35938.98828.4453 1.25781.71485 1.34375 1.25.6289 1.69531.62891.71485-.17969.17969-.53906.98046-.08984.44922.35937.08594 1.25782-.26563.6289-.53515.17969v.53906l.71484.98438.26563.53906.98437.98828.80078 1.07813-.26562.35937-.08985.89844-.625 2.33203-.35546 2.0664-.08985 1.79298-.17969.71875-.08984.53906v1.4375l-.98047 1.88281-.35937 1.70703-.53516.89844-.80469 1.16797-.26562.53906 2.05469 1.2539.08593.35938-.35546.53906-.08985-.17968v.80859l.08985 1.4375-.44532.71484-1.07422.09375-.26562.71485.53515.89844.8047.71875 1.16015.80859 1.33984.26953.44531.35938-.35546.44921-1.78907-.08984-1.25-.44922-.71484-.71875-.625-.08984-.17578 3.58984-.1875 1.3086h89.35937V311.70313h-55.26953v49.08203l.76172.125 3.28906.54296 2.02344 2.83594v2.7539l2.35156.33204 2.34766.33203h4.05078l-1.3789 4.16016-2.02344.70703-2.02344.70312-.54297.34375-2.59375 1.6172-.1875.11718-2.02344-2.07813-.73046-2.74218-2.67188-2.07813-1.375-3.5-.0664-.08203-1.95704-2.67188 2.75-1.41796v-49.08204H294.42187v91.41407l.1172.03125.1328.01172.07422.07421.10547.04688.08985.0586.08593.05859.08985.0586.29687.29687.0586.08984.03125.11719.02734.11719.01563.13671-.03125.1172-.0586.08983-.0586.08594-.04296.10547-.04688.10156-.02734.1211v.14453l.17578.26953.14844.14844.07422.08594.07422.07421.04296.10547.0625.08985.0586.08593.04297.10547.0586.08985.04687.10156.04296.10547.0586.08594.11719.17968.07421.07422.0625.08594.0586.08984.04297.10547.0586.08985.05858.08593.0625.08985.0586.08984.04297.10156.11719.17969.07421.07422.0586.08594.07422.07421.08984.0586.10547.04687h.14844l.1328-.01562.13282.01562.10156-.04687.07422-.07422.04688-.10156-.01563-.13281v-.14844l-.04687-.10547-.02735-.11719-.04687-.10156-.02735-.1211-.04296-.10156-.0625-.08984-.04297-.10156-.04297-.10547-.03125-.11719-.01563-.13281-.01171-.13672.08593-.0586.0586-.08593.12109-.03125.04297.10547.01562.1328v.1172l.0586.10156.0586.08984.08983.0586.14844.14843.0586.08985.04296.10547-.01171.10156.08593.0586.10547.04687.08594.0586.08984.05858.07422.07422-.11719.02735-.10546.04687-.08594.0586-.07422.07421-.0586.08985-.0625.08594-.02734.12109-.04687.10156-.04297.10547-.03125.11719-.01172.13281-.01563.13281v.14844l.02735.11719.04687.10547.04297.10156.0586.08984.07421.07422.08985.0586.07422.07421.08984.0586.0586.08984.04296.10547.04688.10156.11719.03125.1328.01563h.14845l.11718-.03125.10547.04297.04297.10547.04688.10156.02734.1211L299.5 410l.02734.11719.03125.1211.02735.11718.10547.04297.10156.04687.13281-.01562.14844.14844.0625.08593.07422.07422.07031.07422.08984.0625.10547.04297.10156.04297.1172.03125.13671.01562.11719-.03125.07422-.07422.02734-.11718-.01172-.13282-.03125-.12109-.02734-.11719.04297-.10547h.11719l.08984.0625.11719.02735h.14843l.13282.01562h.14843l.13282.01563.1328-.01563h.14845l.1328-.01562.13282-.01172.13672.01172.11719-.02735.13281-.01562.1914-.0586-.05859.17579-.01562.1328-.02735.1211-.01562.13281-.0586.08594-.1328.01563-.10548.04687-.10546.04297-.1172.03125-.11718.02735-.26563.03125h-.14843l-.13281.01562-.07422.07422.05859.08594.14844.14843.11719.1797.07421.0703.08985.0625.08984.0586.08594.0586.08984.05858.10156.04297.10547.0625.10547.04297.08594.0586.10547.04687.10156.04297.17969.11719.0586.08984-.04298.10156-.04687.10547.01562.13281.22266.22266.0586.08985.04296.10156.03125.1211.04297.10155.01563.13282.03125.11718.01171.13672.03125.11719.14844.14844.10156.04297.10547.04296.1172.03125.1328.01563.13672.01563h.11719l.11719-.03125.08984-.0586.04297-.10547.04688-.10156.04296-.10547.03125-.11719.01172-.1328v-.14845l-.01172-.1328-.01562-.13282-.03125-.11719-.04297-.10547-.04688-.10547-.04296-.10156-.04297-.10547-.01563-.13281.01563-.13281.02734-.11719.03125-.11719.02735-.1211.04687-.10155.08984-.0586.08594-.0625.07422-.07422.08984-.05859.22266-.22266.0586-.08593.07421-.07422.11719-.17969.0586-.08594v-.14844l-.07423-.07421-.10156-.04688-.10547-.04297-.10156-.04297-.0586-.08984-.04687-.10547-.02734-.11719.08984-.05859.11719-.03125.10156-.04297.17969-.11719.14844-.14843.01172-.13282-.01172-.10546-.08985-.0586-.1328.01563h-.14845l-.1328.01562-.13282-.01562-.1211-.03125-.08593-.0586-.07422-.07422-.0586-.08984-.0625-.08594-.11718-.17969-.0586-.08593.03125-.1211.08594-.05859.1211-.03125.05859-.08594v-.1211l-.03125-.11718-.0586-.08984-.05859-.08594-.04687-.10547-.02735-.11719-.01562-.1328.0586-.08985.07421-.07422.08984-.0586.1172-.17968.07421-.07422.0586-.08594.14843-.14844.1211-.03125.1328-.01562.13282.01562.07422.07422.04297.10547.01562.13281-.03125.1172-.11719.03124-.1328.01172-.14844.14844-.04297.10547-.04688.10156-.02734.1211-.03125.11718v.14844l.03125.11719.04297.10546.05859.08985.07422.07031.07422.07422.11719.03125.12109.02734.11719-.02734.1328-.01563h.1172l.08984.0586.07422.07422.04687.10546.0586.08594.10156.04688.13281.01562.10547.04297.08594.0586-.01172.10546-.07422.07422-.17969.11719-.05859.08984-.08984.0586-.07032.07422-.07421.07421-.0625.08985-.02735.11719-.01562.1328.01562.13282-.01562.13281v.14844l.01562.13281.02735.1172.03125.12108.07421.07422.08985.0586.08594.0586.08984.05858.11719.03125v.08594l-.10157.04688-.08984.0586-.26563.03124-.11718.02735h-.14844l-.10547.04296-.10156.04688-.0586.08984-.0625.23438-.01171.13281-.03125.1211-.01563.1328v.29298l-.01172.1328.01172.13673.01563.1328.1328.01563.13282.01172.1211.03125.08593.0586.07422.07421.04688.10547.04296.10157.01563.1328v.44532l-.01563.13281v.44532l.03125.26562.02735.11719.01562.13281.03125.11719.08594.21094.03125.26562v.14844l-.03125.11719-.02734.11718-.03125.1211-.02735.11719-.03125.11718-.03125.1211-.01171.1328-.01563.13282.08984.0586.1172-.03125.10155.01562.04688.10547-.03125.26562v.44141l-.04297.10547-.04688.10547-.04296.10156-.04297.10547-.0586.08594-.03125.12109-.04296.11719-.03125.11719-.01563.1328.01563.13282.05859.08984.10547.04688.08594.0586.05859.08593-.01172.13672-.03125.11719-.04297.10156v.44531l-.01562.13281v.14844l-.03125.11719-.04297.10547-.02735.11719-.04687.10546-.04297.10157-.03125.12109-.02734.11719-.03125.13281-.03125.11719-.02735.11719-.04297.10546-.03125.1172-.03125.12108-.01171.13282-.01563.13281v.29688l.02734.11718v.14844l.04688.39844.02734.11719.0586.08984.12109.03125h.14844l.13281-.01563.0586.08985v.11719l-.0586.08984-.08984.0586-.10157.04296-.10546.04688-.08985.05859-.08594.0586-.13671.01562-.1172-.03125-.1328-.01563-.10157.04688-.0625.08594-.01172.13671-.01562.13282-.03125.11719-.02735.11718-.01562.13281-.03125.1211v.29687l.01563.13282.03125.11718v.14844l.01171.13281v.14844l-.02734.11719-.04688.10156-.02734.1211-.03125.11718-.0586.08985-.07421.07421-.10156.04297-.10547.04688-.11719.02734-.1211.03125-.10156-.04687.0586-.08594.10547-.04688.02734-.11718.03125-.11719.02734-.1211.03125-.11718v-.14844l.01563-.13281-.03125-.11719-.04297-.10547-.10547.01563-.07422.07422-.10156.04296-.08984.0625-.07422.07422-.04297.10157-.01563.1328-.03125.1172L304.25 426l-.03125.11719-.02734.11719-.03125.12109-.02735.11719-.03125.11718-.04297.10547-.08984.0586h-.08984l-.1172-.03125-.03124-.08594.01562-.13672-.03125-.11719v-.14844l-.01171-.1328v-.14844l-.0625-.23438-.02735-.1211-.04297-.10156-.04687-.10546-.0586-.08594-.05859-.08985-.04297-.10546-.0625-.08594-.14844-.14844-.0703-.07422-.10548-.04687-.10547-.04297-.10156-.04297-.29687-.29688-.08985-.07421-.08594-.0586-.10546-.04297-.08985-.0625-.08594-.0586-.10546-.04296-.08985-.0586-.08594-.0625-.07421-.0703-.10547-.04688-.08594-.0586-.10547-.04296-.08984-.0625-.10156-.04297-.10547-.04297-.08594-.0586-.10547-.04687-.10547-.04297-.10156-.04687-.08985-.0586-.10156-.04297-.10547-.04296-.08984-.0625-.11719-.02735-.13281-.01562-.13281.01562H299.75l-.13281.01563-.11719-.03125-.08984-.0586-.07422-.07422-.08985-.05859-.10156-.04688h-.14844l-.12109-.02734-.10156-.04297-.07422-.07422-.11719-.17968-.08984-.0586-.10156-.04297-.08985-.0625-.10547-.04296-.08984-.0586-.08594-.0586-.10547-.04687-.0586-.08594-.05858-.08984-.04297-.10547-.04688-.10156-.07422-.07422-.08594-.0586-.07421-.07421-.08985-.0586-.22265-.22265-.04297-.10547-.03125-.26563.10547-.04296h.14453l.10547.04296.07421.07422.08985.0586.08594.0586.10546.04687.08985.05859.14844.14844.0703.07422.14845.14843.0625.08594.07421.07422.08594.0586.07422.07421.08985.0625.08984.0586.08594.05859.26953.17578.10156.04688.10547.04296.10156.04297.04688-.07421.05859-.08594.07422-.07422.07031-.07422.10547.04297.07422.07422.0586.08984.04296.10156.04688.10547.04296.10547.1211.02735.11719-.02735.07421-.08984.04297-.10547.0586-.08985.07422-.07421.10546-.04297.1172-.02735.1328.01172.08985.0586.14844.14843.05859.08985.04297.10547.04687.10156.04297.10547.04297.10156.10547.04688.10547.04296.13281.01563.08594-.0586.0586-.08984.07421-.07422.10547-.04297.11719.02735.10547.04687.10156.04297.10547.04297.10156.04688.17969.11718v.11719l-.01563.13281.01563.13281.01562.13672.0586.08594.10156.04688.1211.02734.11718.03125h.14844l.11719-.03125.05859-.08984.17969-.1172.05859-.08983.07422-.07422.0586-.08594.11718-.17969.17969-.11719.11719.03125.08984.0586.04297.07422-.01563.1328v.1172l.08985.05859h.14843l.13282-.01563.1328-.01171.26563-.03125.10547-.04297.11719-.03125.1211-.02735.07421-.07421.07031-.07422.0625-.08985-.01562-.10547-.04688-.10156-.10156-.04297-.10547-.01562-.11718.02734-.26563.03125h-.14844l-.07421-.07422-.08985-.0586-.11719-.03124-.11718-.02735-.13282-.01562h-.14843l-.13282.01563h-.29687l-.10547-.04688-.14844-.14844-.04297-.10156-.05859-.08984.22266-.22266.08593-.0586.10547-.04296.11719-.03125.13281-.01563.13281.01563.13672.01562.10157.04297.1328-.01172.08985-.0625.10156-.04297.0625-.08984-.04687-.10156-.08984-.0586-.1172-.03125-.10155-.04296-.0586-.08985-.0625-.08984v-.11719l.01563-.13281.10547-.04688.07421-.07031v-.1211l-.08984-.05859-.03125-.11719.08985-.05859.07421-.07422.04297-.10547.0586-.08984.04687-.10156.01563-.13281v-.14844l-.04688-.10547-.04297-.10156-.08984-.0586-.13281-.01562-.10157-.04297-.13671-.01563-.1172-.03125h-.4453l-.13282-.01562-.13281-.01172-.13281-.01563-.11719-.03125h-.14844l-.13281-.01562-.13281-.01172-.26563-.03125-.1211-.04297-.08593-.0586-.07422-.07421v-.14844l.01172-.13281.10547-.04688.10156-.04296.13281-.01563h.15235l.13281-.01562h.29297l.1211.03125.10156.04296.08984.0586.23438.0625.12109-.04688.08984-.05859.10156-.04297.13282-.01562.10547.04296.10156.04688.13281.01172.1211-.02735h.14453l.12109-.03125.11719-.02734.10547-.04687.07421-.07422.08594-.0586.14844-.14843.0586-.08594.04687-.10547.02734-.11719.01563-.10547-.10156-.04296-.08985-.0586-.11719-.03125-.10546-.04297-.08985-.0625-.07422-.08594-.07422-.07421-.10156-.04297-.10547-.04688-.10156-.04297-.0586-.08984-.04687-.10156-.08594-.21094-.0625-.08594-.05859-.08984-.07422-.07422-.08594-.0586h-.26953l-.11719.03126-.08984.05859-.10156.04297-.13281.01562-.10547-.01562-.02735-.11719-.0625-.08984-.11718-.03125-.10157-.04297-.14843-.14844-.03125-.11719-.01563-.10546.07422-.07422.17969-.1172.11719-.02733.11718-.03125.13672.01562.10156.04297.10547.04297.10156.04687.10547.04297.1172.03125.1328.01563.1172.02734.1328.01563.10547-.01563.08985-.0586-.07422-.07421-.10547-.04297-.07422-.07422-.07422-.08984-.14844-.14844-.08593-.0586-.08985-.05859-.07422-.07422-.08984-.0586-.10156-.04687-.1211-.02734-.10156-.04688-.10547-.04296-.11719-.03125-.10156-.04297-.1211-.03125h-.14843l-.11719.03125-.10546.04297-.08594.0625-.17969.11718-.08594.0586-.08984.0586-.10547.04687-.08594.05859-.10547.04297-.10156.04297-.10547.04687-.07422.07422-.05859.08985-.0586.08593-.04687.10547-.0586.08594-.07421.07422-.13281-.01172-.1172-.03125h-.11718l-.07422.07422-.08984.0586-.07422.07421-.08984.0586-.08594.05859-.10547.04687-.10156.04297-.13672.01563-.10156-.04297-.14844-.14844-.10547-.04688h-.08594l-.10547.04688-.10156.04297-.1211.03125-.11718-.03125-.07422-.07422v-.11719l.03125-.1211.07422-.0703.0586-.08985.07421-.07422.11719-.03125.10547-.04296h.29297l.13281-.01563.13672-.01563.10156-.04296.08985-.0586.10156-.04687.08984-.0586.13281-.01171.08985.05859.13281.01172.08984-.0586.08594-.05859.10547-.04297.08984-.0586.08594-.0625.08985-.05859.14843-.14843.0586-.08594.05859-.08985.10547-.04296.13281-.01563.11719.02735.1211.03125.05859-.0586.05859-.08984.03125-.26563.02734-.11719.10547.01172.13281.01563.10157-.04297.08984-.0586.0586-.08984.07421-.07422.0586-.08984.04687-.10156.01172-.13281-.01172-.13282-.04687-.10547-.14844-.14843-.0586-.08985-.05859-.08594-.04297-.10546v-.44532l.01563-.1328v-.14845l.01172-.1328-.0586-.0586-.08984.0586-.10156-.04298-.17969-.11719-.08594-.05859-.0625-.08984-.0586-.08985-.07421-.07421-.08594-.0586-.1211.03125-.10155.01172-.10547.04688-.08594.05859-.10547.04297-.14844.14844-.08984.05859-.08594.0586-.08984.0625-.10547.04296-.13281.01563v-.1211l.10547-.04297.11718-.03125.07422-.0703.04297-.10548v-.14844l-.02734-.11718-.14844-.14844-.13281-.01563h-.14844l-.11719.03125-.10547.04297-.10156.04297-.08984.0625-.11719.02735-.07422-.07422.01172-.13281-.04297-.10157-.04297-.10547-.08984-.05859-.11719.02734-.1211.03125-.11718.03125-.10156.04297-.1211.03125-.10156.04297-.10547.04297-.08984.0586-.10156.01562v-.11719l.01562-.13281-.0586-.08985-.07421.04297-.14844.14844-.0586.08985-.07421.07421-.04688.10547-.04296.10156-.07422.07422-.0586.08985-.07422.07422-.05859.08593-.07422.07422-.08984.0625-.07422.07031-.07422.07422-.10156.01563-.13281.01562-.10547-.04296v-.1211l.14843-.14844.04297-.10156.0586-.08984.04687-.10156.04297-.10547.0586-.08985.03124-.11719.04297-.10156.03125-.1211.02735-.11718.04687-.10547.04297-.10156.04297-.10547.07422-.07031.08984-.0625.08985-.0586.10156-.04296h.29687l.26563-.03125.10547-.04297-.07422-.07422-.11719-.03125-.10547-.04297-.08984-.0586-.10156-.04687-.08985-.0586-.10156-.04296-.10547-.04297-.08984-.0625-.08594-.0586-.10547-.04296-.10156-.04297-.1211-.03125-.11718-.03125-.10157-.04297L297.5 410.25l-.10156-.04297-.08985-.0586-.04296-.10546-.01563-.13281.10156-.04297.13281-.01563.13672.01563.13282-.01563.10156-.04297.0586-.08984.01562-.10547-.08985-.0586-.07421-.07421-.10157-.04297-.08984-.0586-.14844-.14843-.04297-.10547-.01562-.13281v-.29297l-.0586-.08985-.08984-.05859-.07422-.07422-.04297-.10547-.03125-.11718-.0586-.08985-.07421-.07422-.11719-.02734-.07422-.07422-.08984-.0586-.08984-.0625-.08594-.05859-.07422-.07421-.0586-.08594-.04687-.10547-.08594-.0586-.14843-.14843-.19532-.0586-.1328.01563-.10157.04297-.07422.07422-.04688.10156-.04296.10547-.0586.08984-.0586.08594-.29687.29687-.08984.0586h-.08594l-.0625-.08594-.04297-.10547.03125-.11719.0586-.08984.02734-.11719-.01172-.13281-.08984-.0625-.10547.04688-.11719.02734-.11719.03125-.26953.17578-.10156.04688-.11719.02734-.10546.04687-.08985.0586-.10156.04297-.0586-.08594-.04687-.10547.01563-.13281.04687-.10547.07031-.07422.07422-.07031.0586-.08985v-.14843l-.04297-.10547h-.23829l-.10156.04687-.03125.11719-.02734.11719-.03125.1211-.07422.04296-.13281.01563-.07422-.04688-.04297-.10156-.04297-.10547-.04687-.10156-.04297-.10547-.1211.03125-.10156.04297-.13281.01562-.11719.03125-.10547.04297-.08984.0586-.10156.04687-.1211.02734-.13281.01563-.10156-.04297-.0586-.08985-.04687-.10546-.04297-.10157-.04297-.10546v-.1172l.0586-.08984.08593-.05859.17969-.11719.10156-.04687.10547-.04297.10547-.0586.10156-.04296.08985-.0625.10156-.04297.10547-.0586.10156-.04687.08984-.0586.10547-.04296.10156-.04297.08985-.0625.10156-.04297.13672-.01563.11719.03125.10156.04297.1211.03125.10156.04297.10546.04688.10157.04296.10547.04297.10156.04688.10547.04297.10156.04297.10547.04687.08594.0586.10546.04296.1172.03125.10546.04297.10156.04688.08985.0586.10547.04296.10156.04297.10547.04687.11719.02735.10156.04687.1211.02735h.14843l.08594-.0586.01562-.10156.0586-.08984-.02735-.1172-.07422-.07421-.11719-.17969-.07421-.07422-.08985-.07421-.17969-.1172-.08593-.05859-.10547-.04296-.10156-.04688-.26954-.17578-.05859-.08985-.07422-.07421-.0586-.08985-.04296-.10156-.03125-.11719-.01563-.13672v-.5625l-.01171-.1328-.01563-.13282-.03125-.11719-.01562-.13281-.01172-.13281-.03125-.1211-.22266-.22265-.0586-.08594-.01562-.10547.03125-.11719.13281-.01562v-91.41406H172.9922v1.45312l-.0586.23438-.35156 1.05078-.17187.52343-.1172.34766-.17577.41016-.11719.17187-.23438.29297-.23046.0586h-.35157l-.11718.05859-.23047.40625v.29297l.11719.17578.23046.23047.1172.23437.64062.75781.29297.46485.17578.23437.23047.35156.23437.34766.64063.8164.17578.46485.17187.41016.11719.69531.17578.46875.11719 1.39844.0586.46484v.875l.11718 1.04688v4.78125l-.0586.46484-.35156 1.28125-.17578.52344-.11328.41015-.35156.9297L172.93359 336l-.23437.58203-.11719.17578-.17187.34766-.17578.40625-.35157.8164-.0586.29297-.11327.29297-.11719.28906-.0586.17579-.11718.875-.0586.40625-.05859.11718-.0586.17579-.05859.17187-.23047.52734-.11718.17188v.23437l-.11719.23438-.0586.17187-.17577.58594v.28906l-.0586.17579v.29296l-.0586.11329-.05859.52734v.17187l-.05468.23438v2.6211l-.17578.8164-.1172.17578-.17577.23438-.1172.17187-.11327.23438-.58594.93359-.23047.28906-.29297.46485-.17578.23437-.28906.35156-.35156.69922-.11328.23047-.17579.41016-.17578.23046-.40625.52735-.8164.69922-.29297.17187-.28906.23438-.17579.11719-.17578.17578-.52344.40625-.52734.17578-.17187.17578-.23438.05469-.64062.17578h-.75782m12.21094 31.02344l-1.07422.44921.35938.89454 1.25-.71485.44531-.53906-.98047-.08985"/><path fill="#d3d3d3" fill-opacity="0" fill-rule="evenodd" d="M201.50781 416.59766h-.89453l.44922.6289.98047.35938.80469-.08985.4453-.98828-.17577.08985-.71485-.35547-.89453.35547m154.6211 59.0703l-.0586-.52343v-.29297l.11328-.29297.0586-.23046.46875-.46875h.11328l.11719-.11329.11718-.05859h.17579l.23437-.0586h.34766l.23437.0586.11719.0586.23047.17187.0586.17578.11718.58203v.29297l-.11719.17578-.17187.28906-.17579.17579-.52734.52343-.23047.23438-.11719.0586h-.17578l-.11718-.0586-.40625-.29297-.17579-.11719-.11718-.0586-.0586-.11327-.05468-.1172m6.64062-10.95702l-.0586-.17188v-1.10937l.0586-.17188.17578-.0586.17188-.05858h.17578l.23437-.0586.1172.0586.05858.69921-.05859.17188-.11719.17578-.11718.0586-.23438.52343-.11328.0586h-.23438l-.05859-.1172m9.61328-14.39062l-.11719-.17578v-.69922l.29297-.875.1172-.17187.17577-.35156.11328-.23047.1172-.29297.35155-.75781.1172-.23047.17187-.23438h.17578l.11719-.0586h.64062l.11719.0586.23437.23438.17188.11328.35156.29297.11719.11718.11328.17579v.11328l.11719.05859.11718.11719v.69922l-.05859.17578v.23047l-.0586.17578-.34765 1.05078-.11719.23047-.11719.23437-.11718.0586-.23047.23437-.64063.28906h-.875l-.41015-.11718-.64063-.46485"/><path fill="none" stroke="#bebebe" stroke-linecap="round" stroke-linejoin="round" stroke-miterlimit="10" stroke-width=".5" d="M467.95703 311.69531H144.02734v168.625h323.9297v-168.625"/><g clip-path="url(#a)"><path fill="#fff" fill-opacity="0" fill-rule="evenodd" d="M144 475.89063v1.70312-165.92188h.0039H144v164.21875"/></g><g clip-path="url(#b)"><path fill="#50fcfc" fill-rule="evenodd" d="M144.0039 480.32813v-2.73047l3.38282 2.73046h-3.38281"/></g><g clip-path="url(#c)"><path fill="#fff" fill-opacity="0" fill-rule="evenodd" d="M144.0039 477.59766V311.67187h62.13282v98.05079l-3.70313 4.03125-.73437.11328-4.4375 1.50781-4.4414.95313-2.2461 1.86328-2.1914 2.17187-4.4375.92188-4.10548 1.34375-.33203.14453-4.4414 1.53515-4.4375.96094-3.16407 1.80078-1.27343 1.33985-2.19532 3.09765-2.24218 2.34375-2.36328 2.09375-2.07422 2.60156-2.12891 1.83594-.39844 4.4375 2.0586 4.4414-.33203 4.4375.80078 1.44142.3828 2.99609 2.16017 4.4375 1.89453 1.57031 2.74218-1.57031 1.69532-.5586 4.4375-.1953 4.4375-.9922 4.4414.01563 4.4375.22266 4.4375.95312 4.4375.13672 4.4414.08203 4.4375.25781 1.22267.07813 3.21484.57031 4.4375 1.6211 3.51953-2.19141.92188-.6289 4.4375-.6797 4.4375-1.85937 4.4375-.45313 2.03125-.8164 2.40625-.66797 4.4414-.8789 4.4375-.5 4.4375-2.38673.00781-.0039 4.4297-1.72656 4.4375-.05079 4.4414-1.92578 4.4375 1.96094 4.4375-1.21094 4.07031-1.48437.36719-.32422 1.45703.32422 2.98437.42187 4.4375.14063 1.2461-.5625 3.1914-.64844 4.4375-.58594 3.33204-3.20703-3.33204-3.63281-1.19921-.80469 1.19921-.42187 3.88672-4.01563.39453-4.4375-4.28125-4-4.4375-.13281-4.4375-.20703-1.12109-.09766-3.3164-2-3.21094 2-1.23047.26563-.16016-.26563-4.27734-3.86328-3.97656 3.86328-.46094.82813-4.4375-.35156-4.4414.55078-3.85157 3.41015-.58594.55078-.50781-.55078-3.92969-4.22265-1.45312-.21485-2.98438-4.0039-.40234-.4375-4.03516-4.21094-.125-.22656-4.3164-2.05079-4.4375-1.28515-4.4375 3.05469-4.4375-3.08594-4.4375.28515-1.75782-1.35546-2.6836-2.7422-4.4375-1.28905v-98.05079h150.90626v120.26954l-4.4414.18359-4.4375 1.1875-2.35157 2.63281 2.35156 2.16797V475.875l-.01172.01563.01172.0078.01172-.0078-.01172-.01563v-37.76172l1.61328 2.26953 2.82422 2.82813 4.4414 1.03515 4.4375-.89453 4.4375-.16015 3.21095-2.8086-3.21094-2.9336-4.4375-.03905-.92969-1.46485-3.50781-4.0039V311.67187h110.95312v168.65625h-63.26171l.02343-4.4375-3.33203-3.98828-4.4414 2.1875-.47657-2.63671-3.60156-4.4375 4.07813-.48829 1.17968.48829 3.26172 3.57421 3.03516-3.57421 1.40234-.45313 4.4375-.46484 3.54297-3.52344-3.54297-3.96875-4.4375-.21094-4.4375.125-4.4414.36719-2.33985-.75-.86719-4.4375 2.57422-4.4375-2.89453-4.4414-.91015-.9922-4.4375-1.91796-4.4336-1.52735.39844-4.4375-.40235-.45312-4.4375-1.26953-1.98437 1.72265-2.45703 1.14063-2.47266 3.29687 2.47266 2.9961.96484 1.4414-.96484 1.2461-2.46875 3.1953-.94531 4.4375-1.02344 2.01954-.74219 2.41797.0039 4.4375.73829.73828 2.42578-.73828 2.01172-1.80078 3.77734 1.80078.66406.125.6836-.125 3.7539-1.01563.26563 1.01563 3.21875 4.4414-1.16406 4.4375-2.32031 1.33985-3.62891 3.09765 3.6289 2.91797 3.71875-2.91796.71875-1.46094 4.4375 1.07031 2.39063.39063 2.04688 1.2578.83593 3.1797H227.0625l-3.17188-2.59766-4.4375.16406-2.2539 2.4336h-69.8125l-3.38281-2.73047"/></g><path fill="#50fcfc" fill-rule="evenodd" d="M156.84766 449.26172l-2.0586-4.4414.39844-4.4375 2.1289-1.83594 2.07423-2.60157 2.36328-2.09375 2.24218-2.34375 2.19532-3.09765 1.27343-1.33985 3.16407-1.80078 4.4375-.96094 4.4414-1.53515.33203-.14453 4.10547-1.34375 4.4375-.92188 2.1914-2.17187 2.2461-1.86329 4.4414-.95312 4.4375-1.50781v5.10156l-4.4375 1.14844-4.4414 2.10547-.41015.40625L191 427.0703l-2.61719 1.29688-4.4375.72656-4.10547 2.41406-.33203.05469-4.4414.03125-3.42188-.08594-1.01562-.10156-.09375.10156-3.97266 4.4375-.3711.16016-4.4375.89453-3.24218 3.38281-.94531 4.4375.17968 4.4414.12891 4.4375 1.70313 4.4375 2.17578 2.80079 4.4375-1.73438 4.4375-.48046 2.70312-.58594 1.73438-.25 4.4414-.01172 4.4375-.19531 1.76563.45703 2.67187 1.0586 4.4375 1.33593 4.4414-.47656 4.4375-.22266 4.4375.45313 4.4375.03515 2.94142-2.1836 1.5-.96483 4.4375-.13672 4.4375-1.14454 4.4375-.47656 3.45312-1.71484.98438-1.24219 4.4414-.79687 4.4375-1.34375 1.0664-1.0547-1.0664-2.99608-4.4375-.98438-4.4414.47656-1.81641-.9375.8086-4.4375-1.33595-4.4375 2.34375-.95703 1.60547.95703 2.83594 2.32422 2.6836 2.11328 1.7539 3.9414 4.4375-.11327 2.64063-3.82813 1.79687-2.92969 4.4375-1.1289 4.4414 2.20703v1.79297l-1.21874.0586 1.21875.08984 2.67187-.08985-2.67187-.0586v-1.79296l2.36328-2.58594 2.07422-3.17187v2.50781l-.4336.66406.4336 4.10156 4.4375-3.42578v4.0625l-4.4375 1.48438-4.4375.97656-4.4414.97656-1.16017.69922 1.16016 1.19922 4.4414.59375 4.4375 2.21094 4.4375-1.91016 2.17579-2.09375-2.17578-4.13672v-4.0625l4.4375.30079 4.4414-.20704.39844-.76953-.39844-.38281-4.4414-.11328-4.4375.14453-4.4375-.3125v-2.50781l4.4375.76172 4.4375-.28516 4.4414.91016 1.8672 1.78515-1.8672 3.58594-2.66406.85156 2.66406 1.08203 1.14063-1.08203 3.29687-1.47265 4.4375 1.0703 4.4375-1.61718 2.33985-2.41797.76172-4.4375-3.10157-2.89844-4.4375.28907-4.4375-.73438-4.4375.10547-4.4414 1.39453-1.58594-2.59375-2.85156-2.57812-2.65625 2.57812-1.78125 3.22656-4.4375-1.41015-4.4414 1.67969-1.0625.9414-3.375 3.1914-2.9375-3.1914-1.5-1.60937-4.4375-.58985-4.4375-1.60937-.96095-.6289-3.48047-3.73829-4.4375-.14453-.41796-.5586-4.01953-3.41406-4.4375.46485-4.4375 1.60937-2.41016 1.33985-2.03125 1.0703-2.36719-1.0703-2.07031-.75391-4.4375-2.90625v-5.10156l.73437-.11328 3.70313-4.03125v5.40234l-1.02344 3.0664 1.02344.64844 2.28906-.64843-2.28906-3.06641v-5.40234l4.4375 1.28906 2.6836 2.74219 1.7578 1.35546 4.4375-.28515 4.4375 3.08594 4.4375-3.0547 4.4375 1.28517 4.31641 2.05078.125.22656 4.03516 4.21094.40234.4375 2.98438 4.0039 1.45312.21485 3.92969 4.22265.50781.55078.58594-.55078 3.85156-3.41015 4.4414-.55079 4.4375.35157.46094-.82813 3.97657-3.86328 4.27734 3.86328.16016.26563 1.23047-.26563 3.21093-2 3.31641 2 1.1211.09766 4.4375.20703 4.4375.13281 4.28124 4-.39453 4.4375-3.88672 4.01563-1.19921.42187 1.19921.80469v3.05078l-3.60156.58203 3.60156.51953.53907-.51953-.53907-.58203v-3.05078l3.33204 3.63281-3.33204 3.20703-4.4375.58594-3.1914.64844-1.2461.5625-4.4375-.14063-2.98437-.42187-1.45703-.32422-.36719.32422-4.07031 1.48437-4.4375 1.21094-4.4375-1.96094-4.4414 1.92579-4.4375.05078-4.4297 1.72656-.0078.0039-4.4375 2.38672-4.4375.5-4.44142.87891-2.40625.66797-2.03125.8164-4.4375.45313-4.4375 1.85938-4.4375.67968-.92187.6289-3.51953 2.19142-4.4375-1.6211-3.21484-.57031-1.22266-.07813-4.4375-.2578-4.4414-.08204-4.4375-.13672-4.4375-.95312-4.4375-.22266-4.44141-.01563-4.4375.9922-4.4375.1953-1.69532.5586-2.74218 1.57031-1.89453-1.57031-2.16016-4.4375-.38281-2.9961-.80078-1.4414.33203-4.4375"/><path fill="#00e8fc" fill-rule="evenodd" d="M157.7461 449.26172l-.1797-4.4414.94532-4.4375L161.7539 437l4.4375-.89453.37109-.16016 3.97266-4.4375.09375-.10156 1.01562.10156 3.42188.08594 4.4414-.03125.33203-.05469 4.10547-2.41406 4.4375-.72656L191 427.0703l1.41016-4.4414.41015-.40625 4.4414-2.10547 4.4375-1.14844 4.4375 2.90625 2.07032.7539 2.36719 1.07032 2.03125-1.07031 2.41016-1.33985 4.4375-1.60937 4.4375-.46485v1.72266l-4.4375 1.58594-.19922.10547.19922.36718 2.6953 4.07422L219.45314 429l-4.4375-1.41406-3.53125 3.92187-.91016.80078-1.41797-.80078-3.01953-2.71094-4.4375-1.35156-4.4375 1.34375-4.4414 1.9375-1.78126.78125-2.65625.74219-4.4375.54688-4.4375.5-4.4414 1.24218-3.05078 1.40625-1.38672.5586-4.4375 1.82812-4.4375 1.26172-.75782.78906-2.6953 4.4375.21093 4.4414.40234 4.4375 2.83985 3.9922 4.4375-1.1875 4.4375-.84375 4.4375-1.19532 3.42578-.76562 1.01562-.14063.83203.14063 3.60547.88672 4.4375 1.30469 3.16797-2.19141 1.26953-.92578 4.4414.13672 4.4375-.09375 4.4375-1.23438 4.4375-1.86328 4.44142-.39844.04296-.0586-.04297-.14843-2.52734-4.29297 2.52734-2.01953 1.6211-2.41797 2.8164-1.96094 4.4375.51563 1.46094-2.99219.0625-4.4375 2.91406-3.23047v2.71094l-.46484.51953.46484 1.75781.6172-1.7578-.6172-.51954v-2.71094l3.85157 3.23047.58594.53125 4.4414 2.60938 3.27734 1.29687 1.16016.82422 2.90625-.82422-2.90625-1.00781-1.47266-3.42969-2.96484-1.9336-3.8086-2.5039-.6328-.67969-4.4375-.51953-2.44532-3.24218-1.99219-1.69141v-1.72266l4.01954 3.41407.41797.55859 4.4375.14453 3.48046 3.73828.96094.6289 4.4375 1.60938 4.4375.58985 1.5 1.60937 2.9375 3.1914 3.375-3.1914 1.0625-.9414 4.4414-1.6797v2.23048l-.8203.39062.8203 2.50781.89063-2.5078-.89062-.39063v-2.23047l4.4375 1.41015 1.78125-3.22656 2.65625-2.57812v2.14062l-.44922.4375.44922 1.47656.48437-1.47656-.48437-.4375v-2.14062l2.85156 2.57812 1.58594 2.59375 4.4414-1.39453 4.4375-.10547v1.66016l-4.4375 1.30078-.90625.38281.90625.3125 4.3125 4.125.125.14063 4.4375 1.55469 3.9375-1.69532.5-.60937 1.14063-3.82813-1.14063-1.0664-4.4375 1-4.4375-1.6172v-1.66015l4.4375.73438 4.4375-.28906 3.10157 2.89843-.76172 4.4375-2.33985 2.41797-4.4375 1.61719-4.4375-1.07031-3.29687 1.47265-1.14063 1.08203-2.66406-1.08203 2.66406-.85156 1.8672-3.58594-1.8672-1.78515-4.4414-.91016-4.4375.28516-4.4375-.76172-2.07422 3.17187-2.36328 2.58594-4.4414-2.20703-4.4375 1.1289-1.79688 2.9297-2.64063 3.82812-4.4375.11328-1.7539-3.9414-2.6836-2.11329-2.83594-2.32422-1.60547-.95703-2.34375.95703 1.33594 4.4375-.8086 4.4375 1.81642.9375 4.4414-.47656 4.4375.98438 1.0664 2.99609-1.0664 1.05469-4.4375 1.34375-4.4414.79687-.98438 1.24219-3.45313 1.71484-4.4375.47656-4.4375 1.14454-4.4375.13671-1.5.96485-2.9414 2.1836-4.4375-.03516-4.4375-.45313-4.4375.22266-4.4414.47656-4.4375-1.33594-2.67188-1.0586-1.76563-.45702-4.4375.19531-4.4414.01172-1.73438.25-2.70312.58594-4.4375.48046-4.4375 1.73438-2.17578-2.80078-1.70313-4.4375-.1289-4.4375"/><path fill="#00d4fc" fill-rule="evenodd" d="M158.51172 449.26172l-.21094-4.4414 2.69531-4.4375.75782-.78907 4.4375-1.26172 4.4375-1.82812 1.38672-.5586 3.05078-1.40625 4.4414-1.24219 4.4375-.5 4.4375-.54687 2.65625-.74219 1.78125-.78125 4.4414-1.9375v3.9961l-4.4414 1.13671-4.4375 1.33204-4.4375-.37891-4.4375.16016-2.21875.91015-2.22265.71875-4.4375 2.41406-3.84375 1.3047-.59375.03124-4.4375.66797-2.72266 3.73828.25 4.4414.66797 4.4375 1.80469 2.53517 4.4375-1.84766 2.32422-.6875 2.11328-.71875 4.4375-1.11328 4.4414-.4336 4.4375.04297 4.4375 1.23438 4.4375-2.99219 1.14063-.45703 3.30078-2.32031 4.07812-2.1211.02344-4.4375.33594-.23828 3.3164-4.19922-3.3164-2.15234-4.4375-1.00781v-3.9961l4.4375-1.34375 4.4375 1.35156 3.01953 2.71094 1.41797.80078.91016-.80078 3.53125-3.92187L219.45313 429l2.6953-1.92969-2.6953-4.07422-.19922-.36718.19922-.10547 4.4375-1.58594 1.99218 1.6914 2.44531 3.2422 4.4375.51952.63282.6797 3.8086 2.5039v1.875l-.15626.0586.15625.08984.08594-.08985-.08594-.0586v-1.875l2.96484 1.9336 1.47266 3.42969 2.90625 1.00781-2.90625.82422-1.16016-.82422-3.27734-1.29687-4.4414-2.60938-.58594-.53125-3.85156-3.23047-2.91407 3.23047-.0625 4.4375-1.46094 2.99219-4.4375-.51563-2.8164 1.96094-1.6211 2.41797-2.52734 2.01953 2.52734 4.29297.04297.14844-.04297.0586-4.4414.39843-4.4375 1.86328-4.4375 1.23438-4.4375.09375-4.4414-.13672-1.26954.92578-3.16797 2.1914-4.4375-1.30468-3.60547-.88672-.83203-.14063-1.01562.14063-3.42578.76562-4.4375 1.19532-4.4375.84375-4.4375 1.1875-2.83985-3.9922-.40234-4.4375"/><path fill="#00c4fc" fill-rule="evenodd" d="M159.28125 449.26172l-.25-4.4414 2.72266-3.73829 4.4375-.66797.59375-.03125 3.84375-1.30469 4.4375-2.41406 2.22265-.71875 2.21875-.91015 4.4375-.16016 4.4375.3789 4.4375-1.33202 4.4414-1.13672v2.46875l-2.14062.6914-2.30078 1.4961-4.4375-.75-4.4375-.41016-4.4375.14063-4.4414 1.61328-3.44532 2.34765-.99218.58594-4.4375-.16797-4.4375 1.28906-1.98828 2.73047.28515 4.4414.9375 4.4375.76563 1.07423 2.3164-1.07422 2.1211-1.02735 4.4375-2.11328 4.4375-1.04687 4.4414-.20313.32031-.04687 4.1172-.51172 4.4375.05469 4.4375-2.32422 2.03124-1.66016.34375-4.4375 2.0664-2.875 2.14454-1.5625-2.14453-.6914v-2.46875l4.4375 1.0078 3.3164 2.15235-3.3164 4.19922-.33594.23828-.02344 4.4375-4.07812 2.1211-3.30078 2.3203-1.14063.45704-4.4375 2.99219-4.4375-1.23438-4.4375-.04297-4.4414.4336-4.4375 1.11328-2.11328.71875-2.32422.6875-4.4375 1.84765-1.8047-2.53515-.66796-4.4375"/><path fill="#00b8fc" fill-rule="evenodd" d="M160.05078 449.26172l-.28516-4.4414 1.98829-2.73048 4.4375-1.28906 4.4375.16797.99218-.58594 3.44532-2.34765 4.4414-1.61329 4.4375-.14062v.69531l-4.4375.44531-4.4414 1.98438-1.4297.97656-3.0078 1.77735-4.4375-.97266-4.4375 1.90625-1.25782 1.72656.32422 4.4414.9336 3.64845 4.4375-1.76172 3.23047-1.88672 1.20703-.76172 4.4375-.91016 4.4414-.66015 4.4375.0586 4.4375-1.33595 1.54297-.83203 2.33203-4.4375-3.875-2.71875-4.4375-.6875v-.69531l4.4375.41016 4.4375.75 2.30078-1.4961 2.14063-.6914 2.14453.6914-2.14453 1.5625-2.0664 2.875-.34376 4.4375-2.03125 1.66016-4.4375 2.32422-4.4375-.05469-4.11719.51172-.3203.04687-4.44141.20313-4.4375 1.04687-4.4375 2.11329-2.1211 1.02734-2.3164 1.07422-.76563-1.07422-.9375-4.4375"/><path fill="#00a8fc" fill-rule="evenodd" d="M160.82031 449.26172l-.32422-4.4414 1.25782-1.72657 4.4375-1.90625 4.4375.97266 3.0078-1.77735 1.4297-.97656 4.4414-1.98438 4.4375-.4453v.69921l-4.4375.74219-3.8711 1.96484-.5703 1.66406-4.4375 1.3047-4.4375-1.77735-4.4375 2.52734-.52735.71875.36328 4.4414.16407.64063 4.4375-.27734.62109-.36328 3.8164-2.40625 4.4375-1.13281 3.57423-.90235.86718-.2461 1.4961.2461 2.9414.40625L185 444.82031l3.38281-1.28906 2.48828-3.14844-2.48828-1.7461-4.4375-.96093v-.69922l4.4375.6875 3.875 2.71875-2.33203 4.4375-1.54297.83203-4.4375 1.33594-4.4375-.0586-4.4414.66016-4.4375.91016-1.20703.76172-3.23047 1.88672-4.4375 1.76172-.9336-3.64844"/><path fill="#009800" fill-rule="evenodd" d="M161.58984 449.26172l-.36328-4.4414.52735-.71876 4.4375-2.52734v.38672l-4.27344 2.85937 4.27344 4.02344 4.4375-3.63281 1.39062-.39063-1.39062-.28125-4.4375-2.57812v-.38672l4.4375 1.77734 4.4375-1.30469.5703-1.66406 3.8711-1.96484 4.4375-.74219v.69531l-4.4375 1.04688-1.90625.96484 1.90625 2.0625 4.4375 1.44531 4.4375-2.11328 1.10156-1.39453-1.10156-.77344-4.4375-1.23828v-.6953l4.4375.96093 2.48828 1.7461-2.48828 3.14843L185 444.82031l-1.05469.40625-2.9414-.40625-1.4961-.2461-.86719.2461-3.57421.90235-4.4375 1.1328-3.81641 2.40626-.6211.36328-4.4375.27734-.16406-.64062"/><path fill="#00ac00" fill-rule="evenodd" d="M166.1914 448.84375l-4.27343-4.02344 4.27344-2.85937v.38672l-3.69532 2.47265 3.69532 3.48047 3.96484-3.48047-3.96484-2.47265v-.38672l4.4375 2.57812 1.39062.28125-1.39062.39063-4.4375 3.63281"/><path fill="#00c800" fill-rule="evenodd" d="M166.1914 448.30078l-3.6953-3.48047 3.6953-2.47265v.77343l-2.53906 1.69922 2.53907 2.39063 2.72656-2.39063-2.72656-1.69922v-.77343l3.96484 2.47265-3.96484 3.48047"/><path fill="#10cc00" fill-rule="evenodd" d="M166.1914 447.21094l-2.53906-2.39063 2.53907-1.69922v.77735l-1.38282.92187 1.38282 1.30469 1.48437-1.30469-1.48437-.92187v-.77735l2.72656 1.69922-2.72656 2.39063"/><path fill="#24d000" fill-rule="evenodd" d="M166.1914 446.125l-1.3828-1.30469 1.3828-.92187v.77344l-.22656.14843.22657.21485.24218-.21485-.24218-.14844v-.77343l1.48437.92187-1.48437 1.30469"/><path fill="#3cd800" fill-rule="evenodd" d="M166.1914 445.03516l-.22656-.21485.22657-.14844.24218.14844-.24218.21485"/><path fill="#00ac00" fill-rule="evenodd" d="M179.50781 442.44531l-1.90625-2.0625 1.90625-.96484 4.4375-1.04688v.69532l-4.36719 1.3164 4.3672 2.29297 4.0039-2.29297-4.0039-1.3164v-.69532l4.4375 1.23829 1.10155.77343-1.10156 1.39453-4.4375 2.11329-4.4375-1.44532"/><path fill="#00c800" fill-rule="evenodd" d="M183.94531 442.67578l-4.36719-2.29297 4.3672-1.3164 4.0039 1.3164-4.0039 2.29297"/><path fill="#fff" fill-opacity="0" fill-rule="evenodd" d="M206.13672 415.125l-1.02344 3.0664 1.02344.64844 2.28906-.64843-2.28906-3.06641"/><g clip-path="url(#d)"><path fill="#50fcfc" fill-rule="evenodd" d="M217.19922 480.32813h9.86328l-3.17188-2.59766-4.4375.16406-2.2539 2.4336"/></g><path fill="#50fcfc" fill-rule="evenodd" d="M228.32813 430.98828l-.46485.51953.46484 1.75781.6172-1.7578-.6172-.51954"/><path fill="#00c4fc" fill-rule="evenodd" d="M237.20703 431.59766l-.15625-.08985.15625-.0586.08594.0586-.08594.08985"/><path fill="#00e8fc" fill-rule="evenodd" d="M254.95703 446.01953l-1.16016-1.19922 1.16016-.69922 4.4414-.97656 4.4375-.97656 4.4375-1.48438 2.17579 4.13672-2.17578 2.09375-4.4375 1.91016-4.4375-2.21094-4.4414-.59375"/><path fill="#fff" fill-opacity="0" fill-rule="evenodd" d="M259.39844 440.32422l-1.21875.0586 1.21875.08984 2.67187-.08985-2.67187-.0586"/><path fill="#00d4fc" fill-rule="evenodd" d="M259.39844 434.01563l-.82031-2.50782.8203-.39062.89063.39062-.89062 2.50781"/><path fill="#fff" fill-opacity="0" fill-rule="evenodd" d="M263.83594 435.28125l-.4336.66406.4336 4.10156 4.4375-3.42578 4.4375.30079 4.4414-.20704.39844-.76953-.39844-.38281-4.4414-.11328-4.4375.14453-4.4375-.3125"/><path fill="#00d4fc" fill-rule="evenodd" d="M268.27344 428.54688l-.44922-1.47657.44922-.4375.48437.4375-.48437 1.47656m8.8789 3.27344l-.90625-.3125.90625-.38281 4.4375-1.30078v1.65625l-.07812.02734.07812.07031.07032-.0703-.07032-.02735v-1.65625l4.4375 1.61719 4.4375-1 1.14063 1.0664-1.14063 3.82813-.5.60937-3.9375 1.69531-4.4375-1.55468-.125-.14063-4.3125-4.125"/><path fill="#00c4fc" fill-rule="evenodd" d="M281.58984 431.57813l-.07812-.07032.07812-.02734.07032.02734-.07032.07031"/><path fill="#00e8fc" fill-rule="evenodd" d="M290.46484 445.33984l-3.60156-.51953 3.60156-.58203.53907.58203-.53907.51953"/><path fill="#50fcfc" fill-rule="evenodd" d="M348.16406 438.11328l-2.35156-2.16797 2.35156-2.63281 4.4375-1.1875v1.4414l-3.58594 2.37891 3.29688 4.4375.28906.29297 4.4414 2.60938 4.4375-2.52735 2.62892-.375-2.62891-.375-2.57813-4.0625-1.85937-2.125-4.4414-.2539V432.125l4.4414-.1836 3.50781 4.00391.92969 1.46485 4.4375.03906 3.21094 2.9336-3.21094 2.80859-4.4375.16015-4.4375.89453-4.4414-1.03515-2.82423-2.82813-1.61328-2.26953m0 37.78516l-.01172-.00781.01172-.01563.01172.01563-.01172.0078"/><path fill="#00e8fc" fill-rule="evenodd" d="M352.3125 440.38281l-3.29688-4.4375 3.58594-2.3789 4.4414.2539v3.38672l-2.0664 3.17578 2.0664 1.29688 2.08204-1.29688-2.08203-3.17578v-3.38672l1.85937 2.125 2.57813 4.0625 2.6289.375-2.6289.375-4.4375 2.52735-4.4414-2.60938-.28907-.29297"/><path fill="#00d4fc" fill-rule="evenodd" d="M357.04297 441.67969l-2.0664-1.29688 2.0664-3.17578 2.08203 3.17578-2.08203 1.29688"/><g clip-path="url(#e)"><path fill="#50fcfc" fill-rule="evenodd" d="M369.61719 462.57422l-.0039-4.4375.74218-2.41797 1.02344-2.01953.9453-4.4375 2.46876-3.19531.96484-1.2461-.96484-1.4414-2.47266-2.9961 2.47266-3.29687 2.45703-1.14063 1.98438-1.72265v14.625l-.5586.41406.5586.38672.3125-.38672-.3125-.41406v-14.625l4.4375 1.26953v13.73047l-.03516.03906-1.2461 4.4375-3.15625 3.57812-.23828.85938.23829.20703.30468-.20703 4.13281-3.94922.40235-.48828-.1875-4.4375-.21485-.03906v-13.73047l.40235.45312-.39844 4.4375 4.4336 1.52735 4.4375 1.91796v14.69532l-4.4375 1.75-1.63282 2.30078 1.63281 1.8164 4.4375 2.03516v2.64453l-2.97265 2.38281 2.97265 2.14454 2.10157-2.14454-2.10156-2.3828v-2.64454l4.4375-1.7461 4.4414 1.65235 4.4375-1.11719 4.4375-1.01171 1.63672-1.62891-1.63672-1.83203-4.4375-.9375-4.4375.34375-4.4414.46094-4.4375-2.08594v-14.69531l.91015.99218 2.89453 4.4414-2.57422 4.4375.8672 4.4375 2.33983.75 4.44141-.36718 4.4375-.125 4.4375.21094 3.54297 3.96875-3.54297 3.52344-4.4375.46484-1.40234.45313-3.03516 3.57421-3.26172-3.57421-1.17969-.48829-4.07812.48829 3.60156 4.4375.47656 2.63671 4.44141-2.1875 3.33203 3.98829-.02344 4.4375h-1.72265l-.39453-4.4375-1.1914-1.42579-1.78907 1.42579.0625 4.4375h-1.8789l-.83594-3.1797-2.04688-1.2578-2.39063-.39063-4.4375-1.07031-.71875 1.46094-3.71875 2.91796-3.6289-2.91796 3.6289-3.09766v2.7461l-.41015.35156.41015.33203.42188-.33204-.42188-.35156v-2.7461l2.32032-1.33983 1.16406-4.4375-3.21875-4.44141-.26563-1.01563-3.7539 1.01563-.6836.125-.66406-.125-3.77734-1.80078-2.01172 1.80078-2.42578.73828-.73828-.73828"/></g><path fill="#fff" fill-opacity="0" fill-rule="evenodd" d="M379.23438 448.84766l-.5586.41406.5586.38672.3125-.38672-.3125-.41406"/><path fill="#00e8fc" fill-rule="evenodd" d="M379.23438 458.34375l-.23829-.20703.23829-.85938 3.15625-3.57812 1.24609-4.4375.03515-.03906.21485.03906.1875 4.4375-.40235.48828-4.1328 3.94922-.3047.20703m4.4375 17.8789l-.41015-.33202.41015-.35157.42188.35156-.42188.33204m4.4375-11.83204l-1.6328-1.8164 1.6328-2.30078 4.4375-1.75v1.05469l-3.64843 2.99609 3.64844 2.85156 3.99609-2.85156-3.9961-2.9961v-1.05468l4.4375 2.08594 4.44141-.46094 4.4375-.34375v2.35156l-2.77344.41797 2.77344.40234 1.19531-.40234-1.1953-.41797v-2.35156l4.4375.9375 1.63671 1.83203-1.63672 1.6289-4.4375 1.01172-4.4375 1.1172-4.4414-1.65235-4.4375 1.7461-4.4375-2.03517"/><path fill="#00d4fc" fill-rule="evenodd" d="M392.54688 465.42578l-3.64844-2.85156 3.64844-2.9961v1.0547l-2.36329 1.9414 2.36329 1.84765 2.58984-1.84765-2.58985-1.9414v-1.0547l3.9961 2.9961-3.9961 2.85156"/><path fill="#00e8fc" fill-rule="evenodd" d="M392.54688 473.59766l-2.97266-2.14454 2.97265-2.3828 2.10157 2.3828-2.10156 2.14454"/><path fill="#00c4fc" fill-rule="evenodd" d="M392.54688 464.42188l-2.36329-1.84766 2.36329-1.9414v1.05468l-1.08204.88672 1.08204.84375 1.18359-.84375-1.1836-.88672v-1.05469l2.58985 1.9414-2.58985 1.84767"/><path fill="#00b8fc" fill-rule="evenodd" d="M392.54688 463.41797l-1.08204-.84375 1.08204-.88672 1.18359.88672-1.1836.84375"/><g clip-path="url(#f)"><path fill="#00e8fc" fill-rule="evenodd" d="M399.69922 480.32813l-.0625-4.4375 1.78906-1.42579 1.1914 1.42579.39454 4.4375h-3.3125"/></g><path fill="#00d4fc" fill-rule="evenodd" d="M405.86328 462.97656l-2.77344-.40234 2.77344-.41797 1.19531.41797-1.1953.40234"/><g clip-path="url(#g)"><path fill="#fff" fill-opacity="0" fill-rule="evenodd" d="M467.9961 480.32813H468V311.67188h-.0039H468v168.65625h-.0039"/></g><path fill="#fff" fill-opacity="0" fill-rule="evenodd" d="M398.21484 457.92188l.96485-5.76172-9.82031-1.64844-.96875 5.75781 9.82421 1.65235"/><path fill-rule="evenodd" d="M390.77734 453.125l.08594-.5039 6.20703 1.04296-.1289.77735-4.4297-.7461-.23046 1.3711-.54688-.09375.02735-.5625-.01172-.25782-.04688-.23828-.10937-.22656-.17578-.20703-.26953-.1875-.3711-.16797"/><path fill="#fff" fill-opacity="0" fill-rule="evenodd" d="M256.08203 432.69531l5.83985-.1289-.22266-9.96094-5.83985.1289.22266 9.96094"/><path fill-rule="evenodd" d="M259.39844 424.49219l.51172-.01172.13671 6.29297-.78515.01562-.10156-4.48828-1.38672.03125-.01172-.55469.5586-.07812.25-.0586.22656-.09375.19921-.14843.17188-.21094.13281-.29688.09766-.39843"/><path fill="#fff" fill-opacity="0" fill-rule="evenodd" d="M248.1211 457.60547l5.73437-1.11328-1.89844-9.77735-5.73437 1.10938 1.89843 9.78125"/><path fill-rule="evenodd" d="M250.00781 448.95703l.5-.09375 1.19922 6.17969-.77344.14844-.85547-4.40625-1.36328.26171-.10547-.54296.53516-.17188.23828-.10156.21094-.1289.17188-.1797.1289-.23828.08203-.3164.03125-.41016"/><path fill="#fff" fill-opacity="0" fill-rule="evenodd" d="M222.89844 445.52344l6.95312-3.80078-4.89062-8.94141-6.95313 3.80078 4.89063 8.9414"/><path fill-rule="evenodd" d="M221.0664 437l2.88282-1.57813.35547.65235-2.3164 1.26562.66405 1.69532.1211-.25391.17187-.2461.24219-.23046.32031-.21485.29688-.1289.33594-.08985.36328-.03125.3789.03907.3789.125.1836.09765.17969.1211.17578.15234.16797.17969.16016.20703.14453.24219.1836.40625.10937.41796.03515.41797-.04687.41407-.13672.39453-.09766.1875-.125.17969-.14844.17187-.17187.16016-.19922.14843-.22266.13672-.42578.1914-.39843.10157-.3711.01953-.34375-.0586-.32031-.12108-.29297-.1797-.26953-.23046-.25-.26953.6914-.375.1836.16406.1875.13281.19531.10156.20313.06641.20312.02735.21094-.01172.21094-.05079.21484-.09375.26172-.17187.21484-.19922.15625-.22265.10157-.2461.04297-.26562-.01954-.28907-.08203-.30859-.15234-.32813-.14063-.21875-.17968-.20312-.21094-.16797-.23828-.1289-.26172-.07813-.28125-.01953-.30078.05078-.3125.13281-.28125.1914-.19531.23438-.14844.29297-.14453.38672-.60938.33203L221.06641 437"/><g clip-path="url(#h)"><path fill="none" stroke="#000" stroke-linecap="round" stroke-linejoin="round" stroke-miterlimit="10" stroke-width=".5" d="M147.46875 480.88672l-6.9375-1.11719"/></g><g clip-path="url(#i)"><path fill="none" stroke="#000" stroke-linecap="round" stroke-linejoin="round" stroke-miterlimit="10" stroke-width=".5" d="M147.46875 480.88672l.79297 2.32422"/></g><g clip-path="url(#j)"><path fill="none" stroke="#000" stroke-linecap="round" stroke-linejoin="round" stroke-miterlimit="10" stroke-width=".5" d="M146.46094 480.72656l.39453 1.16016"/></g><g clip-path="url(#k)"><path fill="none" stroke="#000" stroke-linecap="round" stroke-linejoin="round" stroke-miterlimit="10" stroke-width=".5" d="M160.76563 480.98438l-6.90235-1.3125"/></g><g clip-path="url(#l)"><path fill="none" stroke="#000" stroke-linecap="round" stroke-linejoin="round" stroke-miterlimit="10" stroke-width=".5" d="M160.76563 480.98438l.73046 2.34375"/></g><g clip-path="url(#m)"><path fill="none" stroke="#000" stroke-linecap="round" stroke-linejoin="round" stroke-miterlimit="10" stroke-width=".5" d="M159.76172 480.79297l.36328 1.17187"/></g><g clip-path="url(#n)"><path fill="none" stroke="#000" stroke-linecap="round" stroke-linejoin="round" stroke-miterlimit="10" stroke-width=".5" d="M174.0586 481.09375l-6.85938-1.52734"/></g><g clip-path="url(#o)"><path fill="none" stroke="#000" stroke-linecap="round" stroke-linejoin="round" stroke-miterlimit="10" stroke-width=".5" d="M174.0586 481.09375l.65624 2.36328"/></g><g clip-path="url(#p)"><path fill="none" stroke="#000" stroke-linecap="round" stroke-linejoin="round" stroke-miterlimit="10" stroke-width=".5" d="M173.0625 480.8711l.32422 1.18359"/></g><g clip-path="url(#q)"><path fill="none" stroke="#000" stroke-linecap="round" stroke-linejoin="round" stroke-miterlimit="10" stroke-width=".5" d="M187.3086 481.35156l-6.72657-2.04297"/></g><g clip-path="url(#r)"><path fill="none" stroke="#000" stroke-linecap="round" stroke-linejoin="round" stroke-miterlimit="10" stroke-width=".5" d="M186.32813 481.05078l.23828 1.20703"/></g><g clip-path="url(#s)"><path fill="none" stroke="#000" stroke-linecap="round" stroke-linejoin="round" stroke-miterlimit="10" stroke-width=".5" d="M200.65234 481.23828l-6.78515-1.82031"/></g><g clip-path="url(#t)"><path fill="none" stroke="#000" stroke-linecap="round" stroke-linejoin="round" stroke-miterlimit="10" stroke-width=".5" d="M200.65234 481.23828l.55078 2.39453"/></g><g clip-path="url(#u)"><path fill="none" stroke="#000" stroke-linecap="round" stroke-linejoin="round" stroke-miterlimit="10" stroke-width=".5" d="M199.66797 480.97656l.27344 1.19531"/></g><g clip-path="url(#v)"><path fill="none" stroke="#000" stroke-linecap="round" stroke-linejoin="round" stroke-miterlimit="10" stroke-width=".5" d="M213.84375 481.6211l-6.53516-2.58204"/></g><g clip-path="url(#w)"><path fill="none" stroke="#000" stroke-linecap="round" stroke-linejoin="round" stroke-miterlimit="10" stroke-width=".5" d="M212.89063 481.24219l.14062 1.21875"/></g><g clip-path="url(#x)"><path fill="none" stroke="#000" stroke-linecap="round" stroke-linejoin="round" stroke-miterlimit="10" stroke-width=".5" d="M227.27344 481.28125l-6.76563-1.90625"/></g><g clip-path="url(#y)"><path fill="none" stroke="#000" stroke-linecap="round" stroke-linejoin="round" stroke-miterlimit="10" stroke-width=".5" d="M240.4961 481.5664l-6.57813-2.47265"/></g><g clip-path="url(#z)"><path fill="none" stroke="#000" stroke-linecap="round" stroke-linejoin="round" stroke-miterlimit="10" stroke-width=".5" d="M253.71484 481.78906l-6.39062-2.92187"/></g><g clip-path="url(#A)"><path fill="none" stroke="#000" stroke-linecap="round" stroke-linejoin="round" stroke-miterlimit="10" stroke-width=".5" d="M266.52734 482.58594l-5.3828-4.51563"/></g><g clip-path="url(#B)"><path fill="none" stroke="#000" stroke-linecap="round" stroke-linejoin="round" stroke-miterlimit="10" stroke-width=".5" d="M278.78516 483.4375l-3.26953-6.21875"/></g><g clip-path="url(#C)"><path fill="none" stroke="#000" stroke-linecap="round" stroke-linejoin="round" stroke-miterlimit="10" stroke-width=".5" d="M293.5 478.5586l-6.07031 3.53906"/></g><g clip-path="url(#D)"><path fill="none" stroke="#000" stroke-linecap="round" stroke-linejoin="round" stroke-miterlimit="10" stroke-width=".5" d="M305.77344 477.4336l-3.98438 5.78906"/></g><g clip-path="url(#E)"><path fill="none" stroke="#000" stroke-linecap="round" stroke-linejoin="round" stroke-miterlimit="10" stroke-width=".5" d="M313.67969 481.14453l6.83203-1.6289"/></g><g clip-path="url(#F)"><path fill="none" stroke="#000" stroke-linecap="round" stroke-linejoin="round" stroke-miterlimit="10" stroke-width=".5" d="M328.08984 482.96875l4.64063-5.27734"/></g><g clip-path="url(#G)"><path fill="none" stroke="#000" stroke-linecap="round" stroke-linejoin="round" stroke-miterlimit="10" stroke-width=".5" d="M341.60938 483.13281l4.23437-5.60547"/></g><g clip-path="url(#H)"><path fill="none" stroke="#000" stroke-linecap="round" stroke-linejoin="round" stroke-miterlimit="10" stroke-width=".5" d="M355.07422 483.23828l3.9336-5.82031"/></g><g clip-path="url(#I)"><path fill="none" stroke="#000" stroke-linecap="round" stroke-linejoin="round" stroke-miterlimit="10" stroke-width=".5" d="M367.61328 482.52344l5.48828-4.39063"/></g><g clip-path="url(#J)"><path fill="none" stroke="#000" stroke-linecap="round" stroke-linejoin="round" stroke-miterlimit="10" stroke-width=".5" d="M380.17969 480.71875l6.98437-.77734"/></g><g clip-path="url(#K)"><path fill="none" stroke="#000" stroke-linecap="round" stroke-linejoin="round" stroke-miterlimit="10" stroke-width=".5" d="M381.19531 480.60547l-.6914-1.01172"/></g><g clip-path="url(#L)"><path fill="none" stroke="#000" stroke-linecap="round" stroke-linejoin="round" stroke-miterlimit="10" stroke-width=".5" d="M393.47266 480.4375l7.02734-.21484"/></g><g clip-path="url(#M)"><path fill="none" stroke="#000" stroke-linecap="round" stroke-linejoin="round" stroke-miterlimit="10" stroke-width=".5" d="M394.4961 480.40625l-.60938-1.0664"/></g><g clip-path="url(#N)"><path fill="none" stroke="#000" stroke-linecap="round" stroke-linejoin="round" stroke-miterlimit="10" stroke-width=".5" d="M406.83984 480.9336l6.92188-1.21094"/></g><g clip-path="url(#O)"><path fill="none" stroke="#000" stroke-linecap="round" stroke-linejoin="round" stroke-miterlimit="10" stroke-width=".5" d="M407.84766 480.75781l-.75391-.96875"/></g><g clip-path="url(#P)"><path fill="none" stroke="#000" stroke-linecap="round" stroke-linejoin="round" stroke-miterlimit="10" stroke-width=".5" d="M420.52734 482.0039l6.17579-3.35156"/></g><g clip-path="url(#Q)"><path fill="none" stroke="#000" stroke-linecap="round" stroke-linejoin="round" stroke-miterlimit="10" stroke-width=".5" d="M421.42578 481.51953l-1.02344-.67969"/></g><g clip-path="url(#R)"><path fill="none" stroke="#000" stroke-linecap="round" stroke-linejoin="round" stroke-miterlimit="10" stroke-width=".5" d="M434.30078 482.66016L439.5625 478"/></g><g clip-path="url(#S)"><path fill="none" stroke="#000" stroke-linecap="round" stroke-linejoin="round" stroke-miterlimit="10" stroke-width=".5" d="M447.82422 482.8711l4.84765-5.08594"/></g><g clip-path="url(#T)"><path fill="none" stroke="#000" stroke-linecap="round" stroke-linejoin="round" stroke-miterlimit="10" stroke-width=".5" d="M460.66406 482.32031l5.79297-3.98047"/></g><g clip-path="url(#U)"><path fill="none" stroke="#000" stroke-linecap="round" stroke-linejoin="round" stroke-miterlimit="10" stroke-width=".5" d="M461.50781 481.73828l-1.08594-.5664"/></g><g clip-path="url(#V)"><path fill="none" stroke="#000" stroke-linecap="round" stroke-linejoin="round" stroke-miterlimit="10" stroke-width=".5" d="M147.48438 467.45703l-6.96875-.88672"/></g><path fill="none" stroke="#000" stroke-linecap="round" stroke-linejoin="round" stroke-miterlimit="10" stroke-width=".5" d="M147.48438 467.45703l.87109 2.29297m-1.88281-2.42188l.43359 1.14844m13.85547-.77734l-6.89063-1.3711m6.89063 1.3711l.70703 2.35156m12.625-2.45703l-6.92969-1.16016m6.92969 1.16016l.77734 2.32813m-1.78515-2.4961l.39062 1.16406m13.91016-.86718l-6.88281-1.41797m6.8828 1.41797l.6875 2.35547m-1.6875-2.5586l.34376 1.17578m13.97656-.9961l-6.89453-1.37108m6.89453 1.37109l.70703 2.34766M199.70312 467.5l.35547 1.17188M214 467.80468l-6.84766-1.58202M214 467.80469l.63281 2.3711m12.67969-2.3711l-6.84766-1.58203m6.84766 1.58203l.63672 2.36719m12.67187-2.33985l-6.83203-1.63672m6.83203 1.63672l.6172 2.375m12.45702-1.6914l-6.35156-3.00391m6.35156 3.0039l.11719 2.45313m12.9961-2.07812l-5.94532-3.75m5.07813 3.20312l-.08985 1.22266m14.36328-.83203l-6.1289-3.44141m5.23828 2.9414l-.03125 1.22657m13.77734-4.80469l-5.20703 4.71484m4.44922-4.03125l1.15234.41797m11.32422-2.10937l-2.01953 6.73047m1.72656-5.75l1.20313-.2422m12.25781-.77733l-1.72266 6.80859m1.47266-5.82031l1.1914-.29297m11.89844-.78516l-.77343 6.98828m13.54687-7.0039l.3086 7.01953M354.58594 464.5l4.91015 5.02734m8.08594-4.66797l5.55078 4.3086m-4.7461-3.67969l.21095-1.21094m11.58593 3.16797l6.97266-.86328m-5.95703.73828l-.70703-1.0039m13.4336-1.02735l6.12108 3.44922m-5.23046-2.94531l.02734-1.22656m11.94531 2.42187l7.02735.05078m-6.00782-.04297l-.5664-1.08984m12.85937 1.11719l7.02735-.01953m-6.00391.01562l-.57813-1.08203m13.04688 2.17578l6.67578-2.19922m-5.70312 1.8789l-.88672-.84765m13.0586.22266l7.01952-.3086m-6 .26172l-.6211-1.05468m13.27345-.60938l6.30078 3.11328"/><g clip-path="url(#W)"><path fill="none" stroke="#000" stroke-linecap="round" stroke-linejoin="round" stroke-miterlimit="10" stroke-width=".5" d="M147.29297 454.92188l-6.58594-2.44532"/></g><path fill="none" stroke="#000" stroke-linecap="round" stroke-linejoin="round" stroke-miterlimit="10" stroke-width=".5" d="M147.29297 454.92188l.32812 2.43359m12.90235-2.22656l-6.41797-2.85938m6.41797 2.85938l.17187 2.44921m13.17188-2.51562l-6.47266-2.73047m6.47266 2.73047l.21875 2.44531m13.09765-2.4414l-6.47656-2.73438m6.47656 2.73438l.21485 2.4453m13.21875-2.77733l-6.71485-2.07032m6.71485 2.07031l.46094 2.41016m12.95312-2.80078l-6.91016-1.28906m5.90235 1.10156l.36719 1.16797m14.01171-1.48438l-7.02343-.28125m6 .23828l.53125 1.10547m13.80859-1.20312h-7.02734m6.0039 0l.57813 1.08203m13.73047-1.54688l-6.96485.9297m5.94922-.79688l.71484 1m13.60547-1.20313l-6.9453 1.07031m5.93358-.91406l.73438.98047m13.4961-1.57812l-6.75 1.95312m5.76562-1.67187l.85547.8828m13.19531-1.78905l-6.2539 3.20312m5.34374-2.73828l1.00391.70313m12.46094-2.16407l-4.73438 5.1914m4.04688-4.43359l1.1875.3047m12.48828-1.32813l-4.08203 5.72265m3.48828-4.88672l1.21484.16016m12.85156-.8711l-4.39843 5.47657m3.76172-4.67969l1.20312.22657m12.82813-.96094l-4.5547 5.35156m3.89063-4.57422l1.19922.26563m10.22656-1.8711l.55079 7.00782m-.47266-5.98829l1.03516-.66015M367.28125 452l6.15234 3.39844m-5.2578-2.90235l.01952-1.22656m14.16797-.83203l2.61719 6.52344m9.86719-6.05078l4.27734 5.57422m-3.65625-4.76172l.50781-1.1172m11.625.84376l5.39844 4.5m-4.61328-3.84375l.25-1.20313m11.47656 2.51563l7.0039.5625m-5.98437-.48047l-.48828-1.1289m12.875 2.16796l6.82422-1.67968m-5.83203 1.4375l-.8164-.91407m13.10937 1.01953l6.88281-1.41015m-6.88281 1.41015l-1.5625-1.89062m16.23437-1.64063l4.17188 5.65625m-3.5664-4.83203l.53124-1.10937"/><g clip-path="url(#X)"><path fill="none" stroke="#000" stroke-linecap="round" stroke-linejoin="round" stroke-miterlimit="10" stroke-width=".5" d="M147.14844 441.9414l-6.29688-3.11718"/></g><path fill="none" stroke="#000" stroke-linecap="round" stroke-linejoin="round" stroke-miterlimit="10" stroke-width=".5" d="M146.23438 441.48828l.03515 1.22656m13.69531-.02343l-5.30078-4.61328m4.53125 3.9414l-.27734 1.19531m14.19922-.34765l-4.97266-4.96485m4.25 4.2422l-.35937 1.17187m14.5625-.62891l-5.3047-4.60937m4.53126 3.9375l-.27344 1.1953m13.92969-.10546l-4.4414-5.44531m3.79687 4.65234l-.47656 1.13281m14.22656-.17968l-4.01953-5.76172M212 442.42578l-.5586 1.09375m15.33204-1.1289l-5.76563-4.01172m17.84766 5.10547l-3.30078-6.20313m11.46094 3.34766l7.01171-.4922m-5.99218.42188l-.64844-1.03906m13.26172-.61719l6.3711 2.96485m6.86718-2.78906l6.52734 2.60937m-5.57812-2.23047l-.1289-1.21875m14.52343-1.14453l2.46875 6.57813m-2.10938-5.6211l.8125-.91797m11.7461.14063l3.26562 6.22265m12.36719-6.55859l-1.3711 6.89063m1.17188-5.88672l1.17578-.35547m11.89453-.70703l-.48046 7.01172m.41015-5.9922l1.11719-.5m12.20703-.52343l-.36328 7.01563m.3125-5.9961l1.10937-.51953m9.20704.98047l5.73828 4.05469m-4.90235-3.46485l.15235-1.21484m13.33203-.32422l3.73047 5.95313m-3.1875-5.08594l.60937-1.0625m10.70703 2.02344l6.64063 2.30078m-5.67578-1.96875l-.1875-1.21094m15.7578-1.48438l.19923 7.02344m-.16797-6l1.0664-.60547m11.6211-.34765L411 443.82813m-1.39453-6.88672l1.89453-1.5625m9.84375 2.32422l4.54297 5.35937m-4.54297-5.35937l.91016-2.28125m11.22656 4.3125l6.90234 1.29687m-5.89843-1.10937l-.3672-1.17188m12.75782.63672l6.74219 1.99219m-5.75781-1.69922l-.2461-1.20313m13.82813-.89453l4.23828 5.60547m-3.6211-4.79297l.51563-1.10937"/><g clip-path="url(#Y)"><path fill="none" stroke="#000" stroke-linecap="round" stroke-linejoin="round" stroke-miterlimit="10" stroke-width=".5" d="M147.1914 428.53906l-6.3828-2.9414"/></g><path fill="none" stroke="#000" stroke-linecap="round" stroke-linejoin="round" stroke-miterlimit="10" stroke-width=".5" d="M146.26172 428.10938l.07031 1.22656m14.26172-1.00781l-6.5586-2.51954m5.60548 2.15235l.14843 1.21875m12.94531.70312l-4.20703-5.6289m3.59375 4.80859l-.51953 1.10937m12.89453.3672l-1.10156-6.94141m.9414 5.92968l-.97655.7422m12.98828.1914l1.82422-6.78516m10.73437 6.48438l3.33984-6.1836m8.23047 3.92969l6.82422-1.67578m-5.82812 1.4336l-.82032-.91407m13.39844 1.86719l6.3086-3.09766m-5.39063 2.64844l-.99219-.71875m13.75 1.75l5.58594-4.26172m7.5664 4.03125l5.91407-3.80078m-5.05469 3.2461l-1.07031-.59766m13.34375.83203l6.27734-3.16016m-5.36328 2.70313l-1-.71094m13.02735-.32422l7.02343-.17578m-6 .14844l-.60547-1.06641m13.16016 2.33984l6.5-2.66797m-5.55469 2.28125l-.94531-.78515m14.3164-2.86328l4.4961 5.40234M315.5 425.15234l.46484-1.1328m13.98047-.4336l.9336 6.96484m-.80079-5.95312l1-.71485m10.85157.16797l3.59375 6.03516m-3.07031-5.15625l.6328-1.05078m10.57813 2.22265l6.7539 1.9336m-5.77343-1.65235l-.2539-1.19922m13.20703-.29297l5.51562 4.35547m-4.71094-3.72265l.21875-1.20703m13.35157-.32422l3.39453 6.15234m-2.89844-5.25781l.66797-1.02735m14.3164-.27343l-.93359 6.96484m.9336-6.96484l2.30078-.85157m10.97656.84766l-.85938 6.97266m.85938-6.97266l2.29297-.8789m12.2461 1.26562l-3.3047 6.19922m3.3047-6.19922l2.45312.0039m-2.9336.89844h1.22656m12.76172-.79297l-3.6914 5.98047m3.6914-5.98047l2.44922.16016m10.19531-.48047l-2.34765 6.6211m17.74219-4.63282l-6.51172 2.64453m5.5664-2.2578l.94141.78515"/><g clip-path="url(#Z)"><path fill="none" stroke="#000" stroke-linecap="round" stroke-linejoin="round" stroke-miterlimit="10" stroke-width=".5" d="M147.25781 415.07031l-6.51562-2.63281"/></g><path fill="none" stroke="#000" stroke-linecap="round" stroke-linejoin="round" stroke-miterlimit="10" stroke-width=".5" d="M146.3086 414.6875l.1289 1.21875m14.39063-2.02734l-7.02344-.25m6 .21093l.53906 1.10547m13.78906-.91015l-7.0039-.5625m5.98437.48047l.48828 1.125m12.0586 1.74218l-3.4297-6.13281m2.9297 5.24219l-.66407 1.03125M198 417.1875l-1.48047-6.86719m1.26563 5.86719l-.9375.79297m10.35547-2.23828l6.74218-1.98047m-5.76172 1.69531l-.85547-.8789m13.1211.89062l6.88281-1.4336m-5.8789 1.22657l-.78516-.9414m13.21875 1.58984l6.63672-2.3125m-5.67188 1.97656l-.89844-.83594m13.30079 1.3086l6.53515-2.58594m-5.58594 2.20703l-.93359-.79297m13.4336 1.46875l6.26562-3.17969m-5.35547 2.71875l-1.0039-.70703m13.30859.95313l6.46484-2.75m-5.52344 2.34765l-.95703-.76953m13.6172-2.11719l5.89452 3.82813m-5.03906-3.26953l.10937-1.22266m11.8125 2.125l6.96875.90625m7.59766-3.16406l4.46875 5.42187m7.92969-4.26953l6.30078 3.11719m7.69922-4.0664l4.92578 5.01171m-4.20703-4.28125l.36719-1.16797m16.40234-.125l-3.41797 6.14063m12.80469-5.79297l4.4414 5.44531m-3.79687-4.65234l.47656-1.13281m12.10938.41015l4.60547 5.30469m-3.9336-4.53516l.4414-1.14453m12.51173.13282l3.98828 5.78906m-3.98828-5.78906l1.13281-2.17579m15.48828 1.8125l-2.625 6.51563m2.625-6.51563l2.4414-.26171m10.8047.23437l-2.48438 6.57031m2.48437-6.57031l2.4336-.3125m12.1289 1.11719l-4.98046 4.96094m4.98046-4.96094l2.34375.72265m10.53516-1.09375l-4.10937 5.70313m3.51171-4.8711l1.21485.16407m12.95703-.78906l-4.625 5.28906m3.95312-4.51953l1.19141.27734"/><g clip-path="url(#aa)"><path fill="none" stroke="#000" stroke-linecap="round" stroke-linejoin="round" stroke-miterlimit="10" stroke-width=".5" d="M147.375 399.46875l-6.75 1.9414"/></g><path fill="none" stroke="#000" stroke-linecap="round" stroke-linejoin="round" stroke-miterlimit="10" stroke-width=".5" d="M146.39453 399.75l.85156.88281M156.58984 397l1.45313 6.875M156.80078 398l.9414-.78516m9.39063 2.90625l6.9961.63672m-5.98047-.54687l-.47656-1.1289m13.58593 3.62108l5.375-4.53125m-4.59375 3.8711l-1.13672-.45703M194 401.75l6.51953-2.6211m-5.57031 2.23829l-.9375-.78906m13.1875.83984l6.75-1.95703m-6.75 1.95703l-1.70703-1.76172m14.89453 1.02734l7.00781-.49218m-7.00781.49218l-1.30078-2.08203m14.61328 1.6289l7.01172.41407m-5.99219-.35156l-.51172-1.11719m13.07813 2.6289l6.47265-2.73437m-5.53125 2.33594l-.95312-.77344M261.5 403.0625l4.67188-5.25m-3.9922 4.48828l-1.1914-.28906m15.0664 1.76562l2.19141-6.67578m13.2422 3.33594l-.01954-.19922-.0586-.1914-.09374-.17579-.46094-.3789-.1914-.05469-.19923-.02344-.19921.02344-.19141.05469-.45703.3789-.09766.17579-.05469.1914-.01953.19922.01953.19922.0547.1914.09765.1797.45703.375.1914.05859.19922.01953.19922-.01953.1914-.0586.46095-.375.09375-.17969.05859-.1914.01953-.19922m15.22656-1.92969l-5.86718 3.86328m18.96875-4.15625l-5.44141 4.44532m15.5664-5.70313l.9375 6.96485m11.25391-6.6172l3.1875 6.26563m-2.72265-5.35156l.70312-1.0039m10.26172 3.71874l6.95703-.99218m10.85938.49609l-.01953-.19922-.0586-.1914-.09375-.17579-.46094-.3789-.1914-.05469-.19922-.02344-.19922.02344-.1914.05469-.45704.3789-.09765.17579-.0586.1914-.01953.19922.01953.19922.0586.1914.09765.1797.45703.375.19141.05859.19922.01953.19922-.01953.1914-.0586.46094-.375.09375-.17969.0586-.1914.01953-.19922m15.40234-1.63672l-6.21875 3.27344m5.3125-2.79688l1.01563.69141m13.05468-1.42578l-5.91797 3.78906m5.0547-3.23828l1.0703.60156m11.95313-2.27344l-3.60938 6.03125m3.08594-5.15234l1.22266.0625m12.14062-1.17969l-2.65625 6.50782m2.65625-6.50782l2.4414-.24609m11.13673.36719l-3.1836 6.26562m3.1836-6.26562l2.45312-.04688m11.09375.17969l-3.64843 6.0039m3.11718-5.1328l1.22657.0703m13.98437.58594l-6.3789 2.94922m5.45312-2.51953l.97656.74219"/><g clip-path="url(#ab)"><path fill="none" stroke="#000" stroke-linecap="round" stroke-linejoin="round" stroke-miterlimit="10" stroke-width=".5" d="M147.38281 386.16797l-6.76562 1.91015"/></g><path fill="none" stroke="#000" stroke-linecap="round" stroke-linejoin="round" stroke-miterlimit="10" stroke-width=".5" d="M147.38281 386.16797l1.69531 1.77344m-2.67968-1.4961l.84765.88672m13.1211-1.94922l-6.10547 3.48047m6.10547-3.48047l2.07422 1.3086m-2.96094-.8047l1.03516.65626m12.39843-2.08985l-4.57031 5.33985m3.90625-4.5625l1.19922.26562m11.76953-1.64843l-2.54688 6.55078m11.08594-3.53906l7.00781.52734m-5.98828-.44922l-.49609-1.125m13.08594-.1211l6.41797 2.86329m-5.48438-2.44531l-.08594-1.22657m12.16797 2.05078l7.01563.37891m-7.01563-.3789l-1.03515-2.22657m14.41406 3.10547l6.89062-1.3789m-6.89062 1.3789l-1.55469-1.89453M248.1875 389.75l4.66797-5.2539m-4.66797 5.2539l-2.38672-.57813m16.70703 1.20313l2.65625-6.5039m-2.26953 5.55859l-1.21875.125m15.38672 1.08203l.17578-7.02735m-.14844 6.00391l-1.09765.55078m17.21484-.84375l-5.48437-4.39453m19.5 2.89453l-6.88672-1.39453m5.88672 1.1914l.34765 1.17579m13.9961-2.20703l-6.94141 1.07422m5.9336-.91797l.73437.98047m13.51562-1.4922l-6.79687 1.78517m5.8086-1.52344l.83202.89844m13.46485-1.1797l-6.78516 1.82423m5.80078-1.5586l.83594.89453m12.54688 2.2461l-4.94922-4.98828m4.23047 4.26171l-.36329 1.17188m15.38672-2.34375l-6.92578-1.1914m5.91797 1.01952l.38281 1.16407m11.26563-5.01172l-1.57813 6.84765m1.34766-5.85156l1.1875-.3164m12.92969-.4961l-2.72266 6.48047m2.32422-5.53515l1.22266-.11329m11.76953-1.04687l-1.28125 6.91015m1.28125-6.91015l2.33984-.73828m10.96484.73828l-1.2578 6.91406m1.2578-6.91406l2.33594-.7461m11.23828.80079l-1.77734 6.80078m1.77734-6.80078l2.38672-.56641m10.27344.46094l-.46484 7.01172m.39453-5.9922l1.12109-.5039m15.54297 2.8711l-7.02344.23828m6-.20313l.61328 1.0625"/><g clip-path="url(#ac)"><path fill="none" stroke="#000" stroke-linecap="round" stroke-linejoin="round" stroke-miterlimit="10" stroke-width=".5" d="M147.1836 372.32422l-6.3672 2.96875"/></g><path fill="none" stroke="#000" stroke-linecap="round" stroke-linejoin="round" stroke-miterlimit="10" stroke-width=".5" d="M147.1836 372.32422l1.96093 1.47656m11.29297-1.60156l-6.2461 3.21875m6.2461-3.21875l2.01563 1.39844m11.30078-1.39844l-6.2461 3.21875m6.2461-3.21875l2.01562 1.39453m-2.92578-.92578l1.00781.69531m13.2539-1.08984l-6.3203 3.07031m6.3203-3.07031l1.98438 1.44531m-2.90234-1l.98828.72656m12.91406-1.72265l-5.65625 4.16796m5.65625-4.16796l2.21094 1.0625m-3.03516-.45313l1.10547.52735m12.1172-2l-3.82423 5.89453m3.82422-5.89454l2.44531.21485m8.38672-.73438l1.14063 6.9336m-.97656-5.92188l.97656-.7461m11.75781 6.57423l1.97656-6.74219m-1.6914 5.76172l-1.19922.2461m15.5664.85937l-.69922-6.99219m.69922 6.99219l-2.04297 1.36328m15.64063-1.40235l-1.26563-6.91406m1.26563 6.91406l-1.92578 1.52344m16.38281-1.94922l-3.55078-6.0664m3.55078 6.0664l-1.28906 2.08985m15.32031-2.64453l-4.98437-4.95313m4.98437 4.95313l-.70703 2.34765m14.98828-4.1875l-6.91406-1.27344m6.91406 1.27344l.73828 2.33594m12.6211-3.26953l-7.00391.59375m7.0039-.59375l1.33204 2.0625m11.99219-1.67578l-7.02344-.17969m6.0039.15234l.54688 1.09766m13.78906-1.30469l-7.02344.28906m6-.24609l.6211 1.0586m13.60547-.06641l-6.80078-1.78125m5.80859 1.52344l.28516 1.1914m14.10156-2.3086l-6.96094.96876m5.94922-.82813l.71875.9961m12.22266-3.47266l-4.19141 5.64063m3.58203-4.82032l1.21484.1836m11.70704-1.52344l-2.1836 6.67969m1.86719-5.70703l1.20703-.21094m11.08594-.92578l.4961 7.00781m-.4961-7.00781L412.1328 369m11.91797 1.32031l-.8711 6.97266m.8711-6.97266l2.29297-.8711m10.85938.85548l-.54297 7.00781m.54297-7.00781l2.25-.98047m10.21484 1.01953l1.15625 6.92969m-.98828-5.92188l.97656-.7461m14.73828.3047l-3.97656 5.79296"/><g clip-path="url(#ad)"><path fill="none" stroke="#000" stroke-linecap="round" stroke-linejoin="round" stroke-miterlimit="10" stroke-width=".5" d="M145.50781 357.32031l-3.01562 6.34766"/></g><path fill="none" stroke="#000" stroke-linecap="round" stroke-linejoin="round" stroke-miterlimit="10" stroke-width=".5" d="M145.07031 358.24219l1.22266-.05469m11.35547-1.1914l-.66406 6.99609m.5664-5.98047l1.13281-.46875m13.11328-.36328l-2.33203 6.6289m1.9922-5.66406l1.21483-.1836m12.90235-.58202l-3.25781 6.22656m3.2578-6.22656l2.45313-.01563m11.5586.4961l-4.65235 5.26562m4.65235-5.26563l2.38672.57032m10.89062-.60156l-4.57812 5.32812m4.57812-5.32813l2.39453.53907m9.55469-1.26563l-1.84375 6.78125m1.57813-5.79297l1.1953-.26953m11.14063 6.17188l.64453-6.9961m-.55078 5.97657l-1.1289.47656m15.30859.5l-1.27344-6.91016m1.27344 6.91016l-1.92188 1.52344m15.63672-1.6211l-2.0703-6.71484m2.0703 6.71484l-1.73047 1.73828m15.12891-1.76562l-2.23828-6.66016m2.23828 6.66016l-1.6875 1.78125m16.03906-2.33985l-4.3125-5.54687m3.6875 4.74219l-.5039 1.11719m15.75781-2.53125l-6.9375-1.10547m5.92969.9453l.39844 1.16017m13.88671-2.30079l-6.86328 1.4961m5.86719-1.27735l.79297.9336m13.59375-.64844l-7.01172.48438m5.98828-.41407l.65235 1.04297m13.6914-.92187l-7.02344.10546m20.25391-.8203l-6.85547 1.53124m19.05469-3.41015l-4.625 5.28906m3.95312-4.51953l1.19532.28125m12.41015-1.33985l-3.85937 5.8711m3.29687-5.01953l1.22266.11328m13.01953-.6914l-4.58984 5.32421m4.58984-5.32422l2.39063.54297m10.0078-1.11328l-2.7578 6.46094m2.7578-6.46094l2.44532-.20703m10.41797.05078l-1.85547 6.77734m1.85547-6.77734l2.39453-.53906m11.19531.625l-2.40234 6.60546m2.40234-6.60546l2.42969-.34375m9.33984.14843l.6875 6.9922M450 358.01561l1.02344-.67968m11.73437-.26172l1.60547 6.83984m-1.3711-5.84765l.92188-.8086"/><g clip-path="url(#ae)"><path fill="none" stroke="#000" stroke-linecap="round" stroke-linejoin="round" stroke-miterlimit="10" stroke-width=".5" d="M142.1914 344.16406l3.6172 6.02735"/></g><path fill="none" stroke="#000" stroke-linecap="round" stroke-linejoin="round" stroke-miterlimit="10" stroke-width=".5" d="M154.96484 344.5664l4.70313 5.22266m-4.70313-5.22265l.83985-2.3047m12.38672 2.38673l4.8789 5.0586m-4.8789-5.0586l.76172-2.33203m12.78515 2.125l4.41406 5.47265m-4.41406-5.47265l.96484-2.25391m13.46875 1.64844l2.1797 6.6836m-2.1797-6.6836l1.70313-1.76563m14.33984 2l-3.27734 6.21485m3.27734-6.21485l2.45313-.00781m11.66797.59375l-4.89063 5.04297m4.89063-5.04297l2.35937.6836m11.59766 3.51562l-6.17578-3.35156m5.27734 2.86328l-.01172 1.22656m10.84375 1.08594l.58594-7.0039m-.58594 7.0039l-2.2539.96875m14.9375-1.08203l1.85156-6.77735m-1.85156 6.77735l-2.39063.54296m15.79297-.51953l1.67578-6.82421m-1.42969 5.83203l-1.1914.30078m15.52734.76562l-.85937-6.97265m.73437 5.96093l-1.0039.70313M307 348.58984l-6.4375-2.82421m5.5 2.41406l.08984 1.22265m14.41797-1.69921l-6.94922-1.05079m5.9375.89844l.40625 1.15625m13.95704-1.66406l-7.02344.26953m6-.23047l.61719 1.0625m12.23828-3.83594l-4.0547 5.73829m18.81642-3.37891l-6.94922 1.01953m5.9375-.8711l.73046.98829m13.45704-1.73047l-6.67188 2.20703m5.70313-1.88672l.88671.84766m12.95313-2.0586l-5.78516 3.98829m5.78516-3.98829l2.17969 1.12891m10.05078-2.14844l-3.61328 6.02735m3.61328-6.02735l2.45312.1289m10.19922-.4375L409.16016 350.5m2.28515-6.64453l2.42188-.38281m10.24219.22656l-.98438 6.95703m.98438-6.95703l2.30859-.83594m11.54687.95703l-2.0664 6.71485m2.0664-6.71485l2.41016-.46484m10.94922.48047l-2.15625 6.6875m2.15625-6.6875l2.41406-.4336m11.95313.98047l-4.25782 5.58985m3.63672-4.77735l1.21094.19922"/><g clip-path="url(#af)"><path fill="none" stroke="#000" stroke-linecap="round" stroke-linejoin="round" stroke-miterlimit="10" stroke-width=".5" d="M140.9961 332.04297l6.0078 3.64062"/></g><path fill="none" stroke="#000" stroke-linecap="round" stroke-linejoin="round" stroke-miterlimit="10" stroke-width=".5" d="M154.1836 332.26953l6.26171 3.1875m-6.26172-3.1875l-.04687-2.45312m.95703 2.91796l-.04297-2.45312m12.3789 2.13281l6.40235 2.89844m-6.40234-2.89844l-.15625-2.44922m1.08594 2.8711l-.15625-2.44922m12.47265 2.1914l6.53906 2.57032m-6.53906-2.57031l-.27734-2.44141m1.23047 2.8125l-.28125-2.4375m12.76562 1.79297l6.29688 3.11719m-6.29688-3.1172l-.07031-2.45312m.98437 2.90625l-.0703-2.45312m13.39452.83594l4.44531 5.4414m-4.4453-5.4414l.94921-2.26172M209 331.93359l.47266-1.1328m16.67578.37108l-4.51953 5.38282m3.86328-4.59766l1.19922.2539m13.66015 3.21485l-6.29297-3.125m5.37891 2.67188l.03125 1.22656m11.84375 1.08594l-1.58594-6.84375m1.58594 6.84375l-1.84766 1.61328m14.69141-1.53516l-.64063-7m.64063 7l-2.05469 1.34375m15.94531-1.44531l-1.79296-6.79688m1.79297 6.79688l-1.80079 1.66406m15.33203-1.73047l-2.22265-6.66406m1.89844 5.69531l-.84766.89063m15.17969-.23828l-3.60938-6.03125M305.0586 336l-.6328 1.05078m15.86718-1.73437l-6.39453-2.90625m5.46484 2.48437l.07813 1.22266m14.48046-2.14844l-7.02343-.21094m6.0039.17969l.54297 1.10156m13.78125-.86719l-7-.61718m5.98047.52734l.48047 1.1289m11.375-1.34765l-.01953-.19922-.0586-.1914-.09375-.17579-.45703-.3789-.1914-.0586-.19922-.01953-.20313.01954-.1914.05859-.45703.3789-.09375.17579-.0586.1914-.01953.19922.01953.19922.0586.1914.09375.17579.45703.3789.1914.0586.20313.01953.19922-.01953.1914-.0586.45704-.3789.09375-.17578.05859-.19141.01953-.19922m9.59375-2.2461l5.40234 4.4922m-4.61718-3.83985l.25-1.20312m18.28906 1.61718l-6.6211 2.35547m5.66016-2.01172l.90625.82813m12.3164-2.6875l-4.51171 5.39062m3.85547-4.60546l1.19922.2539m11.15234-1.80078l-1.27344 6.91406m1.08985-5.90625l1.16796-.3711m10.52344-.49218l2.34375 6.625m-2.0039-5.66015l.82812-.90625m14.34766-.10547l-2.0586 6.71875m1.75782-5.7422l1.20703-.23437m13.52734-.16406l-4.29297 5.5625m4.29297-5.5625l2.41797.41016m11.08984-.25l-4.68359 5.23828"/><g clip-path="url(#ag)"><path fill="none" stroke="#000" stroke-linecap="round" stroke-linejoin="round" stroke-miterlimit="10" stroke-width=".5" d="M465.90234 331.24219l2.38282.58594"/></g><g clip-path="url(#ah)"><path fill="none" stroke="#000" stroke-linecap="round" stroke-linejoin="round" stroke-miterlimit="10" stroke-width=".5" d="M141.39844 318.1875l5.20312 4.72266"/></g><path fill="none" stroke="#000" stroke-linecap="round" stroke-linejoin="round" stroke-miterlimit="10" stroke-width=".5" d="M154.32422 318.70313l5.98047 3.6914m-5.98047-3.6914l.16016-2.44922m12.75 3.39062l6.79296 1.80469m-6.79297-1.80469l-.55468-2.39062m13.76562 2.97265l7 .64453m-7-.64453l-.94531-2.26562m1.96484 2.35937l-.47265-1.13281m12.80078.79688l6.9336 1.125m-6.9336-1.125l-.78906-2.32422m1.79687 2.48828l-.78906-2.32422m13.1836 1.76562l6.76171 1.91797m-6.76172-1.91797l-.51562-2.39843m1.5 2.67578l-.25781-1.19922m12.85156.2539l6.23047 3.25m-6.23047-3.25l-.01563-2.45312m13.42188 2.29297l6.05078 3.57422m8.10547.96484l4.36719-5.50781M248.97266 322.5l-1.20703-.22266m13.49609.66407l5.14844-4.78516m-4.39844 4.08594l-1.16016-.39844m14.90625 1.92969l2.78516-6.45313m-2.78516 6.45313l-2.44531.19922m16.48828.02343l1.33203-6.89843m-1.14062 5.89453l-1.17188.36328m15.35156.6836l-.78125-6.98438m.66797 5.96875l-1.01562.6914m14.05469.34766v-7.02734m0 6.0039l-1.08594.57422m17.5664-1.54687l-6.33593-3.03516m5.41406 2.59375l.05469 1.22656m14.19531-3.79687l-6.35938 2.98437m5.4336-2.55078l.98047.73828m11.64062-2.82812l-3.1211 6.29687m2.66798-5.3789l1.22656-.03516m9.60937-.96875l2.7422 6.46875m-2.34376-5.52734l.77344-.95313m16.86328 2.17969l-6.69531 2.13672m5.71875-1.82813l.8789.85938m12.53125-2.60156l-4.93359 5.0039m4.21484-4.27734l1.17579.35156m12.07421-1.66016l-3.36718 6.16797m3.36718-6.16797l2.45704.02735m8.67968-.42188l.9922 6.95703m-.84767-5.9453l.98829-.72267m10.3789 5.84766l4.59766-5.3164m-3.92578 4.54296l-1.19922-.27343m19.53125-2.53516l-6.78125 1.84766m5.79297-1.57813l.84375.89453m12.91406-2.30078l-5.6914 4.1211"/><g clip-path="url(#ai)"><path fill="none" stroke="#000" stroke-linecap="round" stroke-linejoin="round" stroke-miterlimit="10" stroke-width=".5" d="M466.40625 318.48828l2.20313 1.07813"/></g><g clip-path="url(#aj)"><path fill="#00f" fill-rule="evenodd" d="M352.73047 480.96484h8.6211v-10.14843h-8.6211v10.14843"/></g><path fill="azure" fill-rule="evenodd" d="M354.5664 472.65234h.83204v2.82032h3.28515v-2.82032h.83204v6.47657h-.83204v-2.91407h-3.28515v2.91407h-.83203v-6.47657"/><path fill="#00f" fill-rule="evenodd" d="M330.53906 445.45703h8.6211V435.3125h-8.6211v10.14453"/><path fill="azure" fill-rule="evenodd" d="M332.3711 437.14453h.83593v2.82422h3.28516v-2.82422h.83203v6.48047h-.83203v-2.91797h-3.28516v2.91797h-.83594v-6.48047"/><path fill="#00f" fill-rule="evenodd" d="M383.80078 432.14063h8.61719v-10.14454h-8.61719v10.14454"/><path fill="azure" fill-rule="evenodd" d="M385.63281 423.82813h.83203v2.82421h3.28907v-2.82421h.83203v6.48046h-.83203v-2.91796h-3.28907v2.91796h-.83203v-6.48046"/><path fill="#ff3030" fill-rule="evenodd" d="M344.55078 405.51172h7.6914v-10.14453h-7.6914v10.14453"/><path fill="azure" fill-rule="evenodd" d="M346.38281 397.19922h.83203v5.73828h3.19532v.74219h-4.02735v-6.48047"/><path fill="#00f" fill-rule="evenodd" d="M370.48438 401.07422h8.62109v-10.14844h-8.6211v10.14844"/><path fill="azure" fill-rule="evenodd" d="M372.3164 392.76172h.83594v2.82031h3.28516v-2.82031h.83203v6.47656h-.83203v-2.91406h-3.28516v2.91406h-.83593v-6.47656"/><path fill="#ff3030" fill-rule="evenodd" d="M264.66016 356.6875h7.6914v-10.14453h-7.6914v10.14453"/><path fill="azure" fill-rule="evenodd" d="M266.49219 348.375h.83203v5.74219h3.19531v.73828h-4.02734V348.375"/><path fill="#ffffe0" fill-rule="evenodd" d="M412.75781 421.71094h22.17969v-10.1914h-22.17969v10.1914"/><path fill-rule="evenodd" d="M416.25781 413.35156h.50781v6.29297h-.78515v-4.48828h-1.39063v-.55469l.5625-.0664.25-.0547.23047-.08983.20313-.14063.17187-.21094.14453-.29297.10547-.39453m4.8125 0l.23047.01953.21875.0547.20703.08983.19531.1211.1875.14844.16797.17578.3047.41797.24218.49609.17969.54688.11328.57812.03515.58984-.03515.59375-.11328.58594-.1797.55469-.24218.5-.30469.42969-.16796.17968-.1875.15235-.19532.1211-.20703.09374-.21875.0586-.23047.01953-.23047-.01954-.21875-.05859-.20703-.09375-.19531-.1211-.1836-.15234-.17187-.17968-.30078-.4297-.2461-.5-.17968-.55468-.10938-.58594-.03906-.59375h.83203l.03125.5625.08203.50782.125.4414.16016.375.1914.30078.21094.22266.22266.13672.22656.04687.22656-.04687.22266-.13672.21094-.22266.1914-.30078.16016-.375.1289-.4414.08204-.50782.02734-.5625-.02734-.55859-.08203-.5039-.1289-.4336-.16017-.36719-.1914-.28906-.21094-.21484-.22265-.13282-.22657-.04296-.22656.04296-.22266.13282-.21093.21484-.19141.28906-.16016.36719-.125.4336-.08203.5039-.03125.5586h-.83203l.03906-.58985.10938-.57813.17969-.54687.24609-.4961.30078-.41796.17188-.17578.18359-.14844.19531-.1211.20703-.08984.21875-.05469.23047-.01953m4.95313 0l.23047.01953.21875.0547.20703.08983.19531.1211.1836.14844.17187.17578.30469.41797.24218.49609.1797.54688.10937.57812.03906.58984-.03906.59375-.10938.58594-.17969.55469-.24218.5-.3047.42969-.17187.17968-.18359.15235-.19531.1211-.20703.09374-.21875.0586-.23047.01953-.23047-.01954-.21875-.05859-.20703-.09375-.19531-.1211-.1836-.15234-.17187-.17968-.3047-.4297-.24218-.5-.17969-.55468-.10937-.58594-.03906-.59375h.83203l.02734.5625.08203.50782.1289.4414.16017.375.1914.30078.21094.22266.22265.13672.22657.04687.22656-.04687.22266-.13672.21093-.22266.19141-.30078.16016-.375.1289-.4414.07813-.50782.03125-.5625-.03125-.55859-.07813-.5039-.1289-.4336-.16016-.36719-.1914-.28906-.21094-.21484-.22266-.13282-.22656-.04296-.22656.04296-.22266.13282-.21094.21484-.1914.28906-.16016.36719-.1289.4336-.08204.5039-.02734.5586h-.83203l.03906-.58985.10937-.57813.1797-.54687.24218-.4961.30469-.41796.17187-.17578.1836-.14844.1953-.1211.20704-.08984.21875-.05469.23047-.01953m4.95312 0l.38672.02735.35938.08203.3203.13672.28126.1875.23047.23828.17187.28515.10938.33204.03906.375-.02344.27734-.05469.23437-.08984.19922-.10937.17188-.12891.14062-.14063.125-.28906.19531.23438.1172.20703.14843.1836.17188.15234.1914.12109.21485.09375.23046.05469.2422.01953.2578-.03516.3086-.10156.32812-.17188.32422-.24218.30469-.30469.26953-.375.21484-.21094.08204-.23047.05859-.24218.03906-.26172.01563-.26172-.01563-.23828-.03906-.22656-.0586L430 419.6836l-.35938-.21484-.28906-.26953-.22265-.30469-.16016-.32422-.08984-.32812-.03125-.3086h.83203l.02734.25391.07813.23438.12109.21093.16016.1875.1953.14844.21876.11719.24219.07031.2539.02734.2539-.02734.2422-.07031.21875-.11719.1914-.14844.16406-.1875.1211-.21094.07812-.23437.02735-.2539-.02735-.25391-.07812-.23438-.1211-.21094-.16406-.1875-.1914-.15234-.21875-.11328-.2422-.07422-.2539-.02344-.2539.02344-.2422.07422-.21874.11328-.19531.15235-.16016.1875-.1211.21093-.07812.23438-.02734.2539h-.83203l.01953-.2539.05469-.23828.08984-.22657.125-.20703.15234-.1914.1836-.17188.20703-.15234.23047-.13281-.28516-.19532-.14063-.125-.1289-.14062-.10938-.17188-.08984-.19922-.0586-.23437-.01952-.27735h.78515l.02344.21485.0664.1914.10547.16797.13672.14063.16406.10937.1875.08204.20704.05078.22265.01562.21875-.01562.20703-.05079.19141-.08203.16406-.10937.13672-.14063.10156-.16796.06641-.19141.02344-.21485-.02344-.21484-.0664-.1875-.10157-.16797-.13672-.14062-.16406-.10938-.1914-.08203-.20704-.05078-.21875-.01563-.22265.01563-.20704.05078-.1875.08203-.16406.10938-.13672.14062-.10546.16797-.06641.1875-.02344.21485h-.78515l.03906-.375.10937-.33204.17188-.28515.23047-.23828.27734-.1875.32422-.13672.35937-.08203.38672-.02735"/><path fill="#ffffe0" fill-rule="evenodd" d="M188.67578 419.0586h22.17969v-10.19141h-22.17969v10.1914"/><path fill-rule="evenodd" d="M192.17578 410.69922h.50781v6.29297h-.78906v-4.48828h-1.38672v-.5547l.5586-.0664.2539-.05469.23047-.08984.20313-.14062.17187-.21094.14063-.29297.10937-.39453m4.8125 0l.23047.01953.21875.05469.20703.08984.19531.1211.1836.14843.17187.17578.30078.41797.2461.4961.17969.54687.10937.57813.03906.58984-.03906.59375-.10938.58594-.17968.55469-.2461.5-.30078.42968-.17187.17969-.1836.15234-.1953.1211-.20704.09375-.21875.0586-.23047.01952-.23047-.01953-.21875-.0586-.20703-.09374-.19531-.1211-.1875-.15234-.16797-.17969-.30469-.42969-.24219-.5-.17968-.55468-.11328-.58594-.03516-.59375h.83203l.02734.5625.08204.50781.1289.4414.16016.375.1914.30079.21094.22266.22266.13671.22656.04688.22656-.04688.22266-.13671.21094-.22266.1914-.30078.16016-.375.125-.4414.08203-.50782.03125-.5625-.03125-.5586-.08203-.5039-.125-.4336-.16016-.36718-.1914-.28906-.21094-.21485-.22266-.13281-.22656-.04297-.22656.04297-.22266.13281-.21094.21485-.1914.28906-.16016.36719-.1289.43359-.08203.5039-.02735.5586h-.83203l.03516-.58984.11328-.57813.17969-.54687.24218-.4961.30469-.41797.16797-.17578.1875-.14844.19531-.12109.20703-.08984.21875-.05469.23047-.01953m5.08984 0h.51172v6.29297h-.78906v-4.48828h-1.38672v-.5547l.5586-.0664.2539-.05469.22656-.08984.20313-.14062.17578-.21094.14063-.29297.10547-.39453m2.82421 2.17578h.78516l.01953-.3164.0625-.28516.09766-.2539.14062-.21485.17969-.17578.22266-.12891.26562-.07813.3086-.02734.23828.01953.22265.0625.20703.10156.17578.14063.15235.17188.11328.20703.07031.23437.02344.26563-.01953.26562-.0664.22656-.10938.19141-.15625.17188-.19922.16015-.25.16797-.63281.39063-.53907.3125-.4375.3164-.34375.32422-.26562.33594-.1914.35156-.125.36719-.06641.39453-.02344.41797h4.21484v-.73828h-3.33203l.08203-.28516.11328-.23828.14844-.19922.1875-.17969.23047-.17187.27734-.17578.71875-.41797.41407-.20313.34765-.23047.27735-.2539.22265-.26563.16406-.27734.10938-.28516.0625-.28515.02344-.28125-.04297-.38282-.1211-.34765-.1875-.3086-.25-.26171-.30468-.21485-.34375-.15625-.38281-.09765-.40625-.03516-.4336.03125-.39844.10156-.35547.16406-.30468.23438-.2461.30469-.1875.375-.11718.4453-.03907.51954"/></g></defs><use xlink:href="#ak"/></svg>