<svg xmlns="http://www.w3.org/2000/svg" role="img" xmlns:xlink="http://www.w3.org/1999/xlink" viewBox="142.45 309.95 326.84 171.84"><defs><clipPath id="a"><path d="M144 311.67188h1v168.65625h-1zm0 0"/></clipPath><clipPath id="b"><path d="M144 311.67188h324v168.65625H144zm0 0"/></clipPath><clipPath id="c"><path d="M397 473h8v7.32813h-8zm0 0"/></clipPath><clipPath id="d"><path d="M399 475h4v5.32813h-4zm0 0"/></clipPath><clipPath id="e"><path d="M467 311.67188h1v168.65625h-1zm0 0"/></clipPath><clipPath id="f"><path d="M144 479h4v1.32813h-4zm0 0"/></clipPath><clipPath id="g"><path d="M147 480h2v.32813h-2zm0 0"/></clipPath><clipPath id="h"><path d="M153 479h9v1.32813h-9zm0 0"/></clipPath><clipPath id="i"><path d="M160 480h3v.32813h-3zm0 0"/></clipPath><clipPath id="j"><path d="M166 479h9v1.32813h-9zm0 0"/></clipPath><clipPath id="k"><path d="M173 480h3v.32813h-3zm0 0"/></clipPath><clipPath id="l"><path d="M180 479h8v1.32813h-8zm0 0"/></clipPath><clipPath id="m"><path d="M187 480h2v.32813h-2zm0 0"/></clipPath><clipPath id="n"><path d="M193 479h8v1.32813h-8zm0 0"/></clipPath><clipPath id="o"><path d="M200 480h2v.32813h-2zm0 0"/></clipPath><clipPath id="p"><path d="M206 479h9v1.32813h-9zm0 0"/></clipPath><clipPath id="q"><path d="M213 480h2v.32813h-2zm0 0"/></clipPath><clipPath id="r"><path d="M220 479h8v1.32813h-8zm0 0"/></clipPath><clipPath id="s"><path d="M227 480h2v.32813h-2zm0 0"/></clipPath><clipPath id="t"><path d="M233 480h8v.32813h-8zm0 0"/></clipPath><clipPath id="u"><path d="M239 480h2v.32813h-2zm0 0"/></clipPath><clipPath id="v"><path d="M246 479h9v1.32813h-9zm0 0"/></clipPath><clipPath id="w"><path d="M252 480h2v.32813h-2zm0 0"/></clipPath><clipPath id="x"><path d="M260 479h8v1.32813h-8zm0 0"/></clipPath><clipPath id="y"><path d="M266 479h2v1.32813h-2zm0 0"/></clipPath><clipPath id="z"><path d="M274 478h7v2.32813h-7zm0 0"/></clipPath><clipPath id="A"><path d="M288 476h5v4.32813h-5zm0 0"/></clipPath><clipPath id="B"><path d="M300 478h8v2.32813h-8zm0 0"/></clipPath><clipPath id="C"><path d="M313 479h8v1.32813h-8zm0 0"/></clipPath><clipPath id="D"><path d="M327 477h7v3.32813h-7zm0 0"/></clipPath><clipPath id="E"><path d="M340 478h8v2.32813h-8zm0 0"/></clipPath><clipPath id="F"><path d="M354 477h6v3.32813h-6zm0 0"/></clipPath><clipPath id="G"><path d="M369 479h3v1.32813h-3zm0 0"/></clipPath><clipPath id="H"><path d="M381 477h5v3.32813h-5zm0 0"/></clipPath><clipPath id="I"><path d="M393 480h8v.32813h-8zm0 0"/></clipPath><clipPath id="J"><path d="M393 479h2v1.32813h-2zm0 0"/></clipPath><clipPath id="K"><path d="M406 478h8v2.32813h-8zm0 0"/></clipPath><clipPath id="L"><path d="M406 480h3v.32813h-3zm0 0"/></clipPath><clipPath id="M"><path d="M420 477h7v3.32813h-7zm0 0"/></clipPath><clipPath id="N"><path d="M436 476h2v4.32813h-2zm0 0"/></clipPath><clipPath id="O"><path d="M448 476h4v4.32813h-4zm0 0"/></clipPath><clipPath id="P"><path d="M462 476h3v4.32813h-3zm0 0"/></clipPath><clipPath id="Q"><path d="M144 466h4v2h-4zm0 0"/></clipPath><clipPath id="R"><path d="M144 452h4v4h-4zm0 0"/></clipPath><clipPath id="S"><path d="M144 438h4v5h-4zm0 0"/></clipPath><clipPath id="T"><path d="M144 425h4v4h-4zm0 0"/></clipPath><clipPath id="U"><path d="M465 423h3v2h-3zm0 0"/></clipPath><clipPath id="V"><path d="M144 412h4v3h-4zm0 0"/></clipPath><clipPath id="W"><path d="M466 411h2v3h-2zm0 0"/></clipPath><clipPath id="X"><path d="M144 399h4v3h-4zm0 0"/></clipPath><clipPath id="Y"><path d="M466 398h2v2h-2zm0 0"/></clipPath><clipPath id="Z"><path d="M144 385h4v5h-4zm0 0"/></clipPath><clipPath id="aa"><path d="M466 384h2v3h-2zm0 0"/></clipPath><clipPath id="ab"><path d="M144 371h4v5h-4zm0 0"/></clipPath><clipPath id="ac"><path d="M466 371h2v3h-2zm0 0"/></clipPath><clipPath id="ad"><path d="M144 357h3v7h-3zm0 0"/></clipPath><clipPath id="ae"><path d="M466 358h2v2h-2zm0 0"/></clipPath><clipPath id="af"><path d="M144 343h1v8h-1zm0 0"/></clipPath><clipPath id="ag"><path d="M144 343h2v2h-2zm0 0"/></clipPath><clipPath id="ah"><path d="M465 344h3v2h-3zm0 0"/></clipPath><clipPath id="ai"><path d="M144 331h4v5h-4zm0 0"/></clipPath><clipPath id="aj"><path d="M466 331h2v3h-2zm0 0"/></clipPath><clipPath id="ak"><path d="M144 319h4v3h-4zm0 0"/></clipPath><clipPath id="al"><path d="M466 318h2v3h-2zm0 0"/></clipPath><g id="am" clip-path="url(#clip1)"><path fill="#fff" fill-opacity="0" fill-rule="evenodd" d="M0 0h1000v1000H0zm0 0"/><path fill="#d3d3d3" fill-opacity="0" fill-rule="evenodd" d="M162.15234 355.86719l-.23437.29297.0586.23437.11718.17188.17578.23437.29297.34766.11328.0586.11719-.17188.0586-.23438.17577-.17578.46485-.17578h.69922l.23437.29297.28906.8164.0586.17579.17578.23046.35156.23438.69922.69922.17188.17578.23437.34765.23438.41016.28906.58203.41015.46485.23047.23437.23438.17578.11719.23047.17578.29297.17187 1.16406v.23438l.0586.28906.05859.11719.11719.11719.34765.41015.11719.17188.17578.17578.17578.23437.11719.17188.17188.35156.05859.23438.23437.40625.23438-.0586-.17578.17578-.0586.92969h-.58203l-.23437-.11328-.34766.11328-.11719.11719-.05859.29297-.0586.17578-.11718.17187-.46484.29297-.0586.23438-.0586.11328v.64453l.0586.17187v.41016l.0586.0586v.40624l.05859.40625.11719.17579.05859.05859.23047.64062-.0586.29297v.69922l-.05859.58203v.23438l-.0586.23047-.05468.35156v1.92187l.05469.1172h.42578l-.36719.11718-.02344.35156.89063 1.16797 1.74219.53906 1.33984.35938v.53906l.08984.8086.53516.71484 1.51953.26953.89063-.08594.08984 1.16406.53516.1797 1.16015-.1797 2.05469-.98437 1.16016-.36328 1.8789-.17578 1.69531-.1797-.17968.71876-1.51563.08594-1.25.08984-.80469.26953-1.07421.8086.26953.71875.53515.89843-.17968.625-.26563.8086.26563 1.07812.625.89844.80468.17969 1.25-.1797-.26562.72267.09766.5039.05468.29297v.17188l.0586.29296v.40625l.17578.1172.35156.11718h.40625l.29297-.17578.11328-.11719.0586-.11719.11718-.23047.0586-.17578.35156-.46484.23047-.17578.17578-.0586.17578.0586.0586.17578.11718.98828.05469.46875.0586.17188.11718.23437.17578.0586.8164.05859h.28907l.11719.23437.05859.40625.0586.35156v1.10547l.11718.29297.11719.34766.28906.69922.17578.35156.58203.7539.35157.17579.17187.0586.46875.23437.64063.46484.34765.23438.29297.17578.29297.05468.23047.0625.8164.34766.29297.17578.11328.17188.35157.35156.11719.17578.52343.64063v.28906l.0586.35156v.34766l.05859.35156.0586.28906.11718.0586.17188.05859h.17578l.58203.23437.17578.1172.17578.28905.17578.23438.11328.23437.29297.23047.11719.11719v.41016l.0586.05468.28906.23438.23437.11719.0586.11718.11718.17188.0586.11719.23047.23437.05859.17578.23437.0586.1172.05859-.1172.11328-.05859.11719v.11719l-.11719.29296-.11719.28907v.58203l.17579.11719.11718.05859.0586.11719.11719.11719.11328.05859.17578.34765.0586.35157.05858.40625v.17578l-.05859.17578-.11719.69922v.17187l.1172.17579.29296.29296h.40625l.17578.1172.11719.17187.11719.29296v.23438h-.52735l-.23047-.23438h-.23437l-.17578.0586-.0586.69922.0586.34765.11719.17579.17578.41015.11718.23047.28907.46875.17578.05469h.52344l.23437.0586.75781.64062.0586.29296v.23438l.05859.0586.23047.34765v.35156l-.11719.17188v.29297l.29297.28906.29297.17578.17187.0586.29297.17577.29297.1172.58203.40624.28906.23438.29297.17578.21875.16015.01563.01172.23047.17579.64062.52343.17578.23438.1172.17578.17577.17578.11328.17188v.64062l.1172.17578.46874.11719.58203.11719.23438.05859.23047.11328.29297.11719.11328.0586.58593.35156.28907.17187.17578.0625.17578.05469.17578.0586.69922.35155.28906.17579.23438.05468.28906.17578.23437.1172.64063.40624.29297.11719.17187.0586.23438.05859.41015.05859.23047.0586.23438.11718.0586.17188-.41017.17578.46875.0586.0586.29296.11328.23438.17578.05468.23438.0586.17578.05859.40625.11719.64062.23437.11719.17188.0586.23437v.17578l-.0586.1172-.0586.40624.23438.23438.11719.05859.34766.11719.64062.23047.17578.11718.28906.1172.17578.17577.23438.46485.58203 1.10546.17578.17579.34766.17578.17578.11719.35156.11718 1.04688.52344.23437.0586.46485.11327.29297.0586.46484.17578.75781.58203.23438.23438.34765.46484.17578.17578.28907.23438.8164.69921.29297.17579.28906.28906.29297.17578.29297.28906.69531.64063.17578.17578.29297.23437.28907.23438.46875.28906.64062.58203.34766.23438.23437.29297.34766.34765.35156.46485.9336.99218.34765.40625.11719.17579.23437.05859.11328.11719.64454.17578.23047.11328.23437.0586.29297.17577.23047.1172.9336.69921.40624.40625.23438.17578.40625.17578.23437.11719.8164.34766.34766.23437.23438.11719.29297.28906.23047.11719.7578.35156.35157.17188.23047.05859.29297.11719.23437.0586.8711.17577h.8164l.46875.23047.17188.0586.875.69921.46484.1172.29297.05858.17578.0586.23047.0586.46875.05859.34766.05859.35156.0586.40625.05859h.29297l.17187.0586v.23046l.17578.17578h.29297l.34766.0586.35156.05859.69922.11719h.64063l.46484-.23438.29297-.17578.17187-.11719.41016-.17187.28906-.17578.9336-.46485.46875-.29297.52343-.29296.46485-.17188.46484-.17578 1.05078-.46485.28906-.11718.41016-.11719.28906-.11719.52735-.17578 1.51562-.69922.58203-.34765.28907-.0586.29297-.0586.34765-.11718.875-.23047.35156-.11719h.11329l.23437-.05859.875-.23437.23438-.0586h.8125l.35156-.0586.8164-.11718.17188-.0586.35156-.05468.29297-.0586.23047-.05859.8164-.17578.17579-.0586h.34765l.23438-.05859.46484-.11718.75781-.17188.23438-.0586h.34765l.41016-.11718.28906-.0586 1.28516-.05859h.28906l.41016-.0586.23047-.05858h.17578l.875-.1172h.40625l.41015-.11718h.34766l.35156-.11328.8711-.0586h1.75l1.04687.28907.41016.11719.28906.11718.35156.11719.28907.11719 1.05078.17187.28906.0586h.29297l.29297.05859.17187.0586.41016.05859.17187.0586.1172.05858h.11718l.11719.0586.35156.0586h.11328l.41016.0664 1.92187.39453 1.92578.39453 1.51953.44922 1.69532.71875 2.14453.80469 1.60547-.71875 1.42968-.80469 1.16016-1.07813 1.25-.44921 3.03516-.71875 1.875-.35938 2.14453-1.34765 2.23437-1.25391 2.5-1.25781 1.69531-.44922 1.78516-.17969 1.16016-.26953.625.53906 1.33984-.26953.71485-.98828.98437-1.34375.44531-.17969.80469-.35937 1.875-.53907 1.78516-.44921 1.25-.26954 1.16015-.08984 1.69922-.08984 1.96094-.26954 1.25-.08984h.53906l.625-.08984h.89063l2.14453-.17969 2.41015-.17969 2.58985-.08984 1.69531.17969 1.60938.08984 1.42968.35938 1.16016.71875 1.875.98828 1.16015 1.52734.26563.71484.6289.08985.35548.89844.53515.53906.53516 1.52734 1.07422.35938h.53515l-.80469.53515.08985 1.70703.71484 2.69532.89063.80468.89453.98829.71484 1.2578 1.78516.53907 1.51953-.17969.35547 1.34375 1.60937-.80469.98047-.53906.26953.26953.31641-.21484.21875-.14453.80078.44922.44922-.35938h.35547l.53515-.26953.53907-.71875.53515-.26953.625-.98828 1.16016.44922.83984.3711 1.39454.61718 1.6953-.17969h1.60548l1.78515.08985.17969-1.70704.53516-1.34375.80468.26954.4922.84765.40233.40625-.08984.53906v.35938l.71485.44922.71093-.26953h1.42969l.35938.98828.4453 1.25781.71485 1.34375 1.25.6289 1.69531.62891.71485-.17969.17969-.53906.98046-.08984.44922.35937.08594 1.25782-.26563.6289-.53515.17969v.53906l.71484.98438.26563.53906.98437.98828.80078 1.07813-.26562.35937-.08985.89844-.625 2.33203-.35546 2.0664-.08985 1.79298-.17969.71875-.08984.53906v1.4375l-.98047 1.88281-.35937 1.70703-.53516.89844-.80469 1.16797-.26562.53906 2.05469 1.2539.08593.35938-.35546.53906-.08985-.17968v.80859l.08985 1.4375-.44532.71484-1.07422.09375-.26562.71485.53515.89844.8047.71875 1.16015.80859 1.33984.26953.44531.35938-.35546.44921-1.78907-.08984-1.25-.44922-.71484-.71875-.625-.08984-.17578 3.58984-.1875 1.3086h89.35937V311.70313h-55.26953v49.08203l.76172.125 3.28906.54296 2.02344 2.83594v2.7539l2.35156.33204 2.34766.33203h4.05078l-1.3789 4.16016-2.02344.70703-2.02344.70312-.54297.34375-2.59375 1.6172-.1875.11718-2.02344-2.07813-.73046-2.74218-2.67188-2.07813-1.375-3.5-.0664-.08203-1.95704-2.67188 2.75-1.41796v-49.08204H294.42187v91.41407l.1172.03125.1328.01172.07422.07421.10547.04688.08985.0586.08593.05859.08985.0586.29687.29687.0586.08984.03125.11719.02734.11719.01563.13671-.03125.1172-.0586.08983-.0586.08594-.04296.10547-.04688.10156-.02734.1211v.14453l.17578.26953.14844.14844.07422.08594.07422.07421.04296.10547.0625.08985.0586.08593.04297.10547.0586.08985.04687.10156.04296.10547.0586.08594.11719.17968.07421.07422.0625.08594.0586.08984.04297.10547.0586.08985.05858.08593.0625.08985.0586.08984.04297.10156.11719.17969.07421.07422.0586.08594.07422.07421.08984.0586.10547.04687h.14844l.1328-.01562.13282.01562.10156-.04687.07422-.07422.04688-.10156-.01563-.13281v-.14844l-.04687-.10547-.02735-.11719-.04687-.10156-.02735-.1211-.04296-.10156-.0625-.08984-.04297-.10156-.04297-.10547-.03125-.11719-.01563-.13281-.01171-.13672.08593-.0586.0586-.08593.12109-.03125.04297.10547.01562.1328v.1172l.0586.10156.0586.08984.08983.0586.14844.14843.0586.08985.04296.10547-.01171.10156.08593.0586.10547.04687.08594.0586.08984.05858.07422.07422-.11719.02735-.10546.04687-.08594.0586-.07422.07421-.0586.08985-.0625.08594-.02734.12109-.04687.10156-.04297.10547-.03125.11719-.01172.13281-.01563.13281v.14844l.02735.11719.04687.10547.04297.10156.0586.08984.07421.07422.08985.0586.07422.07421.08984.0586.0586.08984.04296.10547.04688.10156.11719.03125.1328.01563h.14845l.11718-.03125.10547.04297.04297.10547.04688.10156.02734.1211L299.5 410l.02734.11719.03125.1211.02735.11718.10547.04297.10156.04687.13281-.01562.14844.14844.0625.08593.07422.07422.07031.07422.08984.0625.10547.04297.10156.04297.1172.03125.13671.01562.11719-.03125.07422-.07422.02734-.11718-.01172-.13282-.03125-.12109-.02734-.11719.04297-.10547h.11719l.08984.0625.11719.02735h.14843l.13282.01562h.14843l.13282.01563.1328-.01563h.14845l.1328-.01562.13282-.01172.13672.01172.11719-.02735.13281-.01562.1914-.0586-.05859.17579-.01562.1328-.02735.1211-.01562.13281-.0586.08594-.1328.01563-.10548.04687-.10546.04297-.1172.03125-.11718.02735-.26563.03125h-.14843l-.13281.01562-.07422.07422.05859.08594.14844.14843.11719.1797.07421.0703.08985.0625.08984.0586.08594.0586.08984.05858.10156.04297.10547.0625.10547.04297.08594.0586.10547.04687.10156.04297.17969.11719.0586.08984-.04298.10156-.04687.10547.01562.13281.22266.22266.0586.08985.04296.10156.03125.1211.04297.10155.01563.13282.03125.11718.01171.13672.03125.11719.14844.14844.10156.04297.10547.04296.1172.03125.1328.01563.13672.01563h.11719l.11719-.03125.08984-.0586.04297-.10547.04688-.10156.04296-.10547.03125-.11719.01172-.1328v-.14845l-.01172-.1328-.01562-.13282-.03125-.11719-.04297-.10547-.04688-.10547-.04296-.10156-.04297-.10547-.01563-.13281.01563-.13281.02734-.11719.03125-.11719.02735-.1211.04687-.10155.08984-.0586.08594-.0625.07422-.07422.08984-.05859.22266-.22266.0586-.08593.07421-.07422.11719-.17969.0586-.08594v-.14844l-.07423-.07421-.10156-.04688-.10547-.04297-.10156-.04297-.0586-.08984-.04687-.10547-.02734-.11719.08984-.05859.11719-.03125.10156-.04297.17969-.11719.14844-.14843.01172-.13282-.01172-.10546-.08985-.0586-.1328.01563h-.14845l-.1328.01562-.13282-.01562-.1211-.03125-.08593-.0586-.07422-.07422-.0586-.08984-.0625-.08594-.11718-.17969-.0586-.08593.03125-.1211.08594-.05859.1211-.03125.05859-.08594v-.1211l-.03125-.11718-.0586-.08984-.05859-.08594-.04687-.10547-.02735-.11719-.01562-.1328.0586-.08985.07421-.07422.08984-.0586.1172-.17968.07421-.07422.0586-.08594.14843-.14844.1211-.03125.1328-.01562.13282.01562.07422.07422.04297.10547.01562.13281-.03125.1172-.11719.03124-.1328.01172-.14844.14844-.04297.10547-.04688.10156-.02734.1211-.03125.11718v.14844l.03125.11719.04297.10546.05859.08985.07422.07031.07422.07422.11719.03125.12109.02734.11719-.02734.1328-.01563h.1172l.08984.0586.07422.07422.04687.10546.0586.08594.10156.04688.13281.01562.10547.04297.08594.0586-.01172.10546-.07422.07422-.17969.11719-.05859.08984-.08984.0586-.07032.07422-.07421.07421-.0625.08985-.02735.11719-.01562.1328.01562.13282-.01562.13281v.14844l.01562.13281.02735.1172.03125.12108.07421.07422.08985.0586.08594.0586.08984.05858.11719.03125v.08594l-.10157.04688-.08984.0586-.26563.03124-.11718.02735h-.14844l-.10547.04296-.10156.04688-.0586.08984-.0625.23438-.01171.13281-.03125.1211-.01563.1328v.29298l-.01172.1328.01172.13673.01563.1328.1328.01563.13282.01172.1211.03125.08593.0586.07422.07421.04688.10547.04296.10157.01563.1328v.44532l-.01563.13281v.44532l.03125.26562.02735.11719.01562.13281.03125.11719.08594.21094.03125.26562v.14844l-.03125.11719-.02734.11718-.03125.1211-.02735.11719-.03125.11718-.03125.1211-.01171.1328-.01563.13282.08984.0586.1172-.03125.10155.01562.04688.10547-.03125.26562v.44141l-.04297.10547-.04688.10547-.04296.10156-.04297.10547-.0586.08594-.03125.12109-.04296.11719-.03125.11719-.01563.1328.01563.13282.05859.08984.10547.04688.08594.0586.05859.08593-.01172.13672-.03125.11719-.04297.10156v.44531l-.01562.13281v.14844l-.03125.11719-.04297.10547-.02735.11719-.04687.10546-.04297.10157-.03125.12109-.02734.11719-.03125.13281-.03125.11719-.02735.11719-.04297.10546-.03125.1172-.03125.12108-.01171.13282-.01563.13281v.29688l.02734.11718v.14844l.04688.39844.02734.11719.0586.08984.12109.03125h.14844l.13281-.01563.0586.08985v.11719l-.0586.08984-.08984.0586-.10157.04296-.10546.04688-.08985.05859-.08594.0586-.13671.01562-.1172-.03125-.1328-.01563-.10157.04688-.0625.08594-.01172.13671-.01562.13282-.03125.11719-.02735.11718-.01562.13281-.03125.1211v.29687l.01563.13282.03125.11718v.14844l.01171.13281v.14844l-.02734.11719-.04688.10156-.02734.1211-.03125.11718-.0586.08985-.07421.07421-.10156.04297-.10547.04688-.11719.02734-.1211.03125-.10156-.04687.0586-.08594.10547-.04688.02734-.11718.03125-.11719.02734-.1211.03125-.11718v-.14844l.01563-.13281-.03125-.11719-.04297-.10547-.10547.01563-.07422.07422-.10156.04296-.08984.0625-.07422.07422-.04297.10157-.01563.1328-.03125.1172L304.25 426l-.03125.11719-.02734.11719-.03125.12109-.02735.11719-.03125.11718-.04297.10547-.08984.0586h-.08984l-.1172-.03125-.03124-.08594.01562-.13672-.03125-.11719v-.14844l-.01171-.1328v-.14844l-.0625-.23438-.02735-.1211-.04297-.10156-.04687-.10546-.0586-.08594-.05859-.08985-.04297-.10546-.0625-.08594-.14844-.14844-.0703-.07422-.10548-.04687-.10547-.04297-.10156-.04297-.29687-.29688-.08985-.07421-.08594-.0586-.10546-.04297-.08985-.0625-.08594-.0586-.10546-.04296-.08985-.0586-.08594-.0625-.07421-.0703-.10547-.04688-.08594-.0586-.10547-.04296-.08984-.0625-.10156-.04297-.10547-.04297-.08594-.0586-.10547-.04687-.10547-.04297-.10156-.04687-.08985-.0586-.10156-.04297-.10547-.04296-.08984-.0625-.11719-.02735-.13281-.01562-.13281.01562H299.75l-.13281.01563-.11719-.03125-.08984-.0586-.07422-.07422-.08985-.05859-.10156-.04688h-.14844l-.12109-.02734-.10156-.04297-.07422-.07422-.11719-.17968-.08984-.0586-.10156-.04297-.08985-.0625-.10547-.04296-.08984-.0586-.08594-.0586-.10547-.04687-.0586-.08594-.05858-.08984-.04297-.10547-.04688-.10156-.07422-.07422-.08594-.0586-.07421-.07421-.08985-.0586-.22265-.22265-.04297-.10547-.03125-.26563.10547-.04296h.14453l.10547.04296.07421.07422.08985.0586.08594.0586.10546.04687.08985.05859.14844.14844.0703.07422.14845.14843.0625.08594.07421.07422.08594.0586.07422.07421.08985.0625.08984.0586.08594.05859.26953.17578.10156.04688.10547.04296.10156.04297.04688-.07421.05859-.08594.07422-.07422.07031-.07422.10547.04297.07422.07422.0586.08984.04296.10156.04688.10547.04296.10547.1211.02735.11719-.02735.07421-.08984.04297-.10547.0586-.08985.07422-.07421.10546-.04297.1172-.02735.1328.01172.08985.0586.14844.14843.05859.08985.04297.10547.04687.10156.04297.10547.04297.10156.10547.04688.10547.04296.13281.01563.08594-.0586.0586-.08984.07421-.07422.10547-.04297.11719.02735.10547.04687.10156.04297.10547.04297.10156.04688.17969.11718v.11719l-.01563.13281.01563.13281.01562.13672.0586.08594.10156.04688.1211.02734.11718.03125h.14844l.11719-.03125.05859-.08984.17969-.1172.05859-.08983.07422-.07422.0586-.08594.11718-.17969.17969-.11719.11719.03125.08984.0586.04297.07422-.01563.1328v.1172l.08985.05859h.14843l.13282-.01563.1328-.01171.26563-.03125.10547-.04297.11719-.03125.1211-.02735.07421-.07421.07031-.07422.0625-.08985-.01562-.10547-.04688-.10156-.10156-.04297-.10547-.01562-.11718.02734-.26563.03125h-.14844l-.07421-.07422-.08985-.0586-.11719-.03124-.11718-.02735-.13282-.01562h-.14843l-.13282.01563h-.29687l-.10547-.04688-.14844-.14844-.04297-.10156-.05859-.08984.22266-.22266.08593-.0586.10547-.04296.11719-.03125.13281-.01563.13281.01563.13672.01562.10157.04297.1328-.01172.08985-.0625.10156-.04297.0625-.08984-.04687-.10156-.08984-.0586-.1172-.03125-.10155-.04296-.0586-.08985-.0625-.08984v-.11719l.01563-.13281.10547-.04688.07421-.07031v-.1211l-.08984-.05859-.03125-.11719.08985-.05859.07421-.07422.04297-.10547.0586-.08984.04687-.10156.01563-.13281v-.14844l-.04688-.10547-.04297-.10156-.08984-.0586-.13281-.01562-.10157-.04297-.13671-.01563-.1172-.03125h-.4453l-.13282-.01562-.13281-.01172-.13281-.01563-.11719-.03125h-.14844l-.13281-.01562-.13281-.01172-.26563-.03125-.1211-.04297-.08593-.0586-.07422-.07421v-.14844l.01172-.13281.10547-.04688.10156-.04296.13281-.01563h.15235l.13281-.01562h.29297l.1211.03125.10156.04296.08984.0586.23438.0625.12109-.04688.08984-.05859.10156-.04297.13282-.01562.10547.04296.10156.04688.13281.01172.1211-.02735h.14453l.12109-.03125.11719-.02734.10547-.04687.07421-.07422.08594-.0586.14844-.14843.0586-.08594.04687-.10547.02734-.11719.01563-.10547-.10156-.04296-.08985-.0586-.11719-.03125-.10546-.04297-.08985-.0625-.07422-.08594-.07422-.07421-.10156-.04297-.10547-.04688-.10156-.04297-.0586-.08984-.04687-.10156-.08594-.21094-.0625-.08594-.05859-.08984-.07422-.07422-.08594-.0586h-.26953l-.11719.03126-.08984.05859-.10156.04297-.13281.01562-.10547-.01562-.02735-.11719-.0625-.08984-.11718-.03125-.10157-.04297-.14843-.14844-.03125-.11719-.01563-.10546.07422-.07422.17969-.1172.11719-.02733.11718-.03125.13672.01562.10156.04297.10547.04297.10156.04687.10547.04297.1172.03125.1328.01563.1172.02734.1328.01563.10547-.01563.08985-.0586-.07422-.07421-.10547-.04297-.07422-.07422-.07422-.08984-.14844-.14844-.08593-.0586-.08985-.05859-.07422-.07422-.08984-.0586-.10156-.04687-.1211-.02734-.10156-.04688-.10547-.04296-.11719-.03125-.10156-.04297-.1211-.03125h-.14843l-.11719.03125-.10546.04297-.08594.0625-.17969.11718-.08594.0586-.08984.0586-.10547.04687-.08594.05859-.10547.04297-.10156.04297-.10547.04687-.07422.07422-.05859.08985-.0586.08593-.04687.10547-.0586.08594-.07421.07422-.13281-.01172-.1172-.03125h-.11718l-.07422.07422-.08984.0586-.07422.07421-.08984.0586-.08594.05859-.10547.04687-.10156.04297-.13672.01563-.10156-.04297-.14844-.14844-.10547-.04688h-.08594l-.10547.04688-.10156.04297-.1211.03125-.11718-.03125-.07422-.07422v-.11719l.03125-.1211.07422-.0703.0586-.08985.07421-.07422.11719-.03125.10547-.04296h.29297l.13281-.01563.13672-.01563.10156-.04296.08985-.0586.10156-.04687.08984-.0586.13281-.01171.08985.05859.13281.01172.08984-.0586.08594-.05859.10547-.04297.08984-.0586.08594-.0625.08985-.05859.14843-.14843.0586-.08594.05859-.08985.10547-.04296.13281-.01563.11719.02735.1211.03125.05859-.0586.05859-.08984.03125-.26563.02734-.11719.10547.01172.13281.01563.10157-.04297.08984-.0586.0586-.08984.07421-.07422.0586-.08984.04687-.10156.01172-.13281-.01172-.13282-.04687-.10547-.14844-.14843-.0586-.08985-.05859-.08594-.04297-.10546v-.44532l.01563-.1328v-.14845l.01172-.1328-.0586-.0586-.08984.0586-.10156-.04298-.17969-.11719-.08594-.05859-.0625-.08984-.0586-.08985-.07421-.07421-.08594-.0586-.1211.03125-.10155.01172-.10547.04688-.08594.05859-.10547.04297-.14844.14844-.08984.05859-.08594.0586-.08984.0625-.10547.04296-.13281.01563v-.1211l.10547-.04297.11718-.03125.07422-.0703.04297-.10548v-.14844l-.02734-.11718-.14844-.14844-.13281-.01563h-.14844l-.11719.03125-.10547.04297-.10156.04297-.08984.0625-.11719.02735-.07422-.07422.01172-.13281-.04297-.10157-.04297-.10547-.08984-.05859-.11719.02734-.1211.03125-.11718.03125-.10156.04297-.1211.03125-.10156.04297-.10547.04297-.08984.0586-.10156.01562v-.11719l.01562-.13281-.0586-.08985-.07421.04297-.14844.14844-.0586.08985-.07421.07421-.04688.10547-.04296.10156-.07422.07422-.0586.08985-.07422.07422-.05859.08593-.07422.07422-.08984.0625-.07422.07031-.07422.07422-.10156.01563-.13281.01562-.10547-.04296v-.1211l.14843-.14844.04297-.10156.0586-.08984.04687-.10156.04297-.10547.0586-.08985.03124-.11719.04297-.10156.03125-.1211.02735-.11718.04687-.10547.04297-.10156.04297-.10547.07422-.07031.08984-.0625.08985-.0586.10156-.04296h.29687l.26563-.03125.10547-.04297-.07422-.07422-.11719-.03125-.10547-.04297-.08984-.0586-.10156-.04687-.08985-.0586-.10156-.04296-.10547-.04297-.08984-.0625-.08594-.0586-.10547-.04296-.10156-.04297-.1211-.03125-.11718-.03125-.10157-.04297L297.5 410.25l-.10156-.04297-.08985-.0586-.04296-.10546-.01563-.13281.10156-.04297.13281-.01563.13672.01563.13282-.01563.10156-.04297.0586-.08984.01562-.10547-.08985-.0586-.07421-.07421-.10157-.04297-.08984-.0586-.14844-.14843-.04297-.10547-.01562-.13281v-.29297l-.0586-.08985-.08984-.05859-.07422-.07422-.04297-.10547-.03125-.11718-.0586-.08985-.07421-.07422-.11719-.02734-.07422-.07422-.08984-.0586-.08984-.0625-.08594-.05859-.07422-.07421-.0586-.08594-.04687-.10547-.08594-.0586-.14843-.14843-.19532-.0586-.1328.01563-.10157.04297-.07422.07422-.04688.10156-.04296.10547-.0586.08984-.0586.08594-.29687.29687-.08984.0586h-.08594l-.0625-.08594-.04297-.10547.03125-.11719.0586-.08984.02734-.11719-.01172-.13281-.08984-.0625-.10547.04688-.11719.02734-.11719.03125-.26953.17578-.10156.04688-.11719.02734-.10546.04687-.08985.0586-.10156.04297-.0586-.08594-.04687-.10547.01563-.13281.04687-.10547.07031-.07422.07422-.07031.0586-.08985v-.14843l-.04297-.10547h-.23829l-.10156.04687-.03125.11719-.02734.11719-.03125.1211-.07422.04296-.13281.01563-.07422-.04688-.04297-.10156-.04297-.10547-.04687-.10156-.04297-.10547-.1211.03125-.10156.04297-.13281.01562-.11719.03125-.10547.04297-.08984.0586-.10156.04687-.1211.02734-.13281.01563-.10156-.04297-.0586-.08985-.04687-.10546-.04297-.10157-.04297-.10546v-.1172l.0586-.08984.08593-.05859.17969-.11719.10156-.04687.10547-.04297.10547-.0586.10156-.04296.08985-.0625.10156-.04297.10547-.0586.10156-.04687.08984-.0586.10547-.04296.10156-.04297.08985-.0625.10156-.04297.13672-.01563.11719.03125.10156.04297.1211.03125.10156.04297.10546.04688.10157.04296.10547.04297.10156.04688.10547.04297.10156.04297.10547.04687.08594.0586.10546.04296.1172.03125.10546.04297.10156.04688.08985.0586.10547.04296.10156.04297.10547.04687.11719.02735.10156.04687.1211.02735h.14843l.08594-.0586.01562-.10156.0586-.08984-.02735-.1172-.07422-.07421-.11719-.17969-.07421-.07422-.08985-.07421-.17969-.1172-.08593-.05859-.10547-.04296-.10156-.04688-.26954-.17578-.05859-.08985-.07422-.07421-.0586-.08985-.04296-.10156-.03125-.11719-.01563-.13672v-.5625l-.01171-.1328-.01563-.13282-.03125-.11719-.01562-.13281-.01172-.13281-.03125-.1211-.22266-.22265-.0586-.08594-.01562-.10547.03125-.11719.13281-.01562v-91.41406H172.9922v1.45312l-.0586.23438-.35156 1.05078-.17187.52343-.1172.34766-.17577.41016-.11719.17187-.23438.29297-.23046.0586h-.35157l-.11718.05859-.23047.40625v.29297l.11719.17578.23046.23047.1172.23437.64062.75781.29297.46485.17578.23437.23047.35156.23437.34766.64063.8164.17578.46485.17187.41016.11719.69531.17578.46875.11719 1.39844.0586.46484v.875l.11718 1.04688v4.78125l-.0586.46484-.35156 1.28125-.17578.52344-.11328.41015-.35156.9297L172.93359 336l-.23437.58203-.11719.17578-.17187.34766-.17578.40625-.35157.8164-.0586.29297-.11327.29297-.11719.28906-.0586.17579-.11718.875-.0586.40625-.05859.11718-.0586.17579-.05859.17187-.23047.52734-.11718.17188v.23437l-.11719.23438-.0586.17187-.17577.58594v.28906l-.0586.17579v.29296l-.0586.11329-.05859.52734v.17187l-.05468.23438v2.6211l-.17578.8164-.1172.17578-.17577.23438-.1172.17187-.11327.23438-.58594.93359-.23047.28906-.29297.46485-.17578.23437-.28906.35156-.35156.69922-.11328.23047-.17579.41016-.17578.23046-.40625.52735-.8164.69922-.29297.17187-.28906.23438-.17579.11719-.17578.17578-.52344.40625-.52734.17578-.17187.17578-.23438.05469-.64062.17578h-.75782m12.21094 31.02344l-1.07422.44921.35938.89454 1.25-.71485.44531-.53906-.98047-.08985"/><path fill="#d3d3d3" fill-opacity="0" fill-rule="evenodd" d="M201.50781 416.59766h-.89453l.44922.6289.98047.35938.80469-.08985.4453-.98828-.17577.08985-.71485-.35547-.89453.35547m154.6211 59.0703l-.0586-.52343v-.29297l.11328-.29297.0586-.23046.46875-.46875h.11328l.11719-.11329.11718-.05859h.17579l.23437-.0586h.34766l.23437.0586.11719.0586.23047.17187.0586.17578.11718.58203v.29297l-.11719.17578-.17187.28906-.17579.17579-.52734.52343-.23047.23438-.11719.0586h-.17578l-.11718-.0586-.40625-.29297-.17579-.11719-.11718-.0586-.0586-.11327-.05468-.1172m6.64062-10.95702l-.0586-.17188v-1.10937l.0586-.17188.17578-.0586.17188-.05858h.17578l.23437-.0586.1172.0586.05858.69921-.05859.17188-.11719.17578-.11718.0586-.23438.52343-.11328.0586h-.23438l-.05859-.1172m9.61328-14.39062l-.11719-.17578v-.69922l.29297-.875.1172-.17187.17577-.35156.11328-.23047.1172-.29297.35155-.75781.1172-.23047.17187-.23438h.17578l.11719-.0586h.64062l.11719.0586.23437.23438.17188.11328.35156.29297.11719.11718.11328.17579v.11328l.11719.05859.11718.11719v.69922l-.05859.17578v.23047l-.0586.17578-.34765 1.05078-.11719.23047-.11719.23437-.11718.0586-.23047.23437-.64063.28906h-.875l-.41015-.11718-.64063-.46485"/><path fill="none" stroke="#bebebe" stroke-linecap="round" stroke-linejoin="round" stroke-miterlimit="10" stroke-width=".5" d="M467.95703 311.69531H144.02734v168.625h323.9297v-168.625"/><g clip-path="url(#a)"><path fill="#fff" fill-opacity="0" fill-rule="evenodd" d="M144 475.89063v4.4375h.0039H144V311.67188h.0039H144v164.21875"/></g><g clip-path="url(#b)"><path fill="#fff" fill-opacity="0" fill-rule="evenodd" d="M144.0039 480.32813V311.67188h26.625v145.11718l-1.61718 1.34766 1.61719.96875 3.83593-.96875-3.83593-1.34766V311.67187h48.82422v118.83594l-1.76563 1 1.76563 1.30078 4.14453-1.30078-4.14453-1V311.67187h128.71093v164.21485l-.0039.0039.0039.00391.0039-.0039-.0039-.00391V311.67187h35.50781v139.10938l-4.4375.51563-3.66796 2.40234 2.03515 4.4375 1.63281 1.72265 1.84766-1.72265 2.58985-1.54688V473.5l-3.35157 2.39063 3.35156 2.51953 2.41407-2.51954-2.41406-2.39062v-16.91016l2.73046-2.89062-2.73046-2.91797V311.67187h8.875v156.64454l-4.3672 3.13671 4.3672 3.06641 3.20703-3.0664-3.20704-3.13672V311.67187h75.44922v168.65625h-63.3125l-.60546-4.4375-2.65235-2.65234-3.89062 2.65235.52734 4.4375H144.0039"/></g><path fill="#50fcfc" fill-rule="evenodd" d="M170.6289 459.10547l-1.61718-.96875 1.61719-1.34766 3.83593 1.34766-3.83593.96875m48.82422-26.29688l-1.76563-1.30078 1.76563-1 4.14453 1-4.14453 1.30078m128.71093 43.08594l-.0039-.0039.0039-.00391.0039.0039-.0039.00391m29.4375-17.75781l-2.03515-4.4375 3.66796-2.40235 4.4375-.51562 2.73047 2.91797-2.73046 2.89062-2.58985 1.54688-1.84765 1.72265-1.63282-1.72265m6.07031 20.27344l-3.35156-2.51954 3.35156-2.39062 2.41407 2.39063-2.41406 2.51953m8.875-3.89063l-4.3672-3.0664 4.3672-3.13672v2.16406l-1.35157.97265 1.35156.94532.9922-.94531-.9922-.97266v-2.16406l3.20704 3.13671-3.20704 3.06641"/><path fill="#00e8fc" fill-rule="evenodd" d="M392.54688 472.39844l-1.35157-.94531 1.35156-.97266.9922.97265-.9922.94532"/><g clip-path="url(#c)"><path fill="#50fcfc" fill-rule="evenodd" d="M398.0625 480.32813l-.52734-4.4375 3.89062-2.65235 2.65235 2.65235.60546 4.4375h-1.76953l-1.48828-4.38672-1.53906 4.38671h-1.82422"/></g><g clip-path="url(#d)"><path fill="#00e8fc" fill-rule="evenodd" d="M399.88672 480.32813l1.53906-4.38672 1.48828 4.38671h-3.02734"/></g><g clip-path="url(#e)"><path fill="#fff" fill-opacity="0" fill-rule="evenodd" d="M467.9961 480.32813H468V311.67188h-.0039H468v168.65625h-.0039"/></g><g clip-path="url(#f)"><path fill="none" stroke="#000" stroke-linecap="round" stroke-linejoin="round" stroke-miterlimit="10" stroke-width=".5" d="M147.48438 480.78906l-6.96875-.92187"/></g><g clip-path="url(#g)"><path fill="none" stroke="#000" stroke-linecap="round" stroke-linejoin="round" stroke-miterlimit="10" stroke-width=".5" d="M147.48438 480.78906l.85937 2.29688"/></g><g clip-path="url(#h)"><path fill="none" stroke="#000" stroke-linecap="round" stroke-linejoin="round" stroke-miterlimit="10" stroke-width=".5" d="M160.82422 480.53516l-7.01563-.41016"/></g><g clip-path="url(#i)"><path fill="none" stroke="#000" stroke-linecap="round" stroke-linejoin="round" stroke-miterlimit="10" stroke-width=".5" d="M160.82422 480.53516l1.02344 2.22656"/></g><g clip-path="url(#j)"><path fill="none" stroke="#000" stroke-linecap="round" stroke-linejoin="round" stroke-miterlimit="10" stroke-width=".5" d="M174.125 480.69922l-6.98828-.74219"/></g><g clip-path="url(#k)"><path fill="none" stroke="#000" stroke-linecap="round" stroke-linejoin="round" stroke-miterlimit="10" stroke-width=".5" d="M174.125 480.69922l.91406 2.27734"/></g><g clip-path="url(#l)"><path fill="none" stroke="#000" stroke-linecap="round" stroke-linejoin="round" stroke-miterlimit="10" stroke-width=".5" d="M187.40234 480.95313l-6.91406-1.25"/></g><g clip-path="url(#m)"><path fill="none" stroke="#000" stroke-linecap="round" stroke-linejoin="round" stroke-miterlimit="10" stroke-width=".5" d="M187.40234 480.95313l.7461 2.33984"/></g><g clip-path="url(#n)"><path fill="none" stroke="#000" stroke-linecap="round" stroke-linejoin="round" stroke-miterlimit="10" stroke-width=".5" d="M200.74219 480.78906l-6.96485-.91797"/></g><g clip-path="url(#o)"><path fill="none" stroke="#000" stroke-linecap="round" stroke-linejoin="round" stroke-miterlimit="10" stroke-width=".5" d="M200.74219 480.78906l.85937 2.29688"/></g><g clip-path="url(#p)"><path fill="none" stroke="#000" stroke-linecap="round" stroke-linejoin="round" stroke-miterlimit="10" stroke-width=".5" d="M213.99219 481.15234l-6.83203-1.64843"/></g><g clip-path="url(#q)"><path fill="none" stroke="#000" stroke-linecap="round" stroke-linejoin="round" stroke-miterlimit="10" stroke-width=".5" d="M213.99219 481.15234l.60937 2.37891"/></g><g clip-path="url(#r)"><path fill="none" stroke="#000" stroke-linecap="round" stroke-linejoin="round" stroke-miterlimit="10" stroke-width=".5" d="M227.35938 480.8789l-6.9375-1.10156"/></g><g clip-path="url(#s)"><path fill="none" stroke="#000" stroke-linecap="round" stroke-linejoin="round" stroke-miterlimit="10" stroke-width=".5" d="M227.35938 480.8789l.80078 2.32032"/></g><g clip-path="url(#t)"><path fill="none" stroke="#000" stroke-linecap="round" stroke-linejoin="round" stroke-miterlimit="10" stroke-width=".5" d="M240.71875 480.35156l-7.02734-.04687"/></g><g clip-path="url(#u)"><path fill="none" stroke="#000" stroke-linecap="round" stroke-linejoin="round" stroke-miterlimit="10" stroke-width=".5" d="M239.69531 480.34375l.57031 1.08984"/></g><g clip-path="url(#v)"><path fill="none" stroke="#000" stroke-linecap="round" stroke-linejoin="round" stroke-miterlimit="10" stroke-width=".5" d="M254.03125 480.46875l-7.01953-.28125"/></g><g clip-path="url(#w)"><path fill="none" stroke="#000" stroke-linecap="round" stroke-linejoin="round" stroke-miterlimit="10" stroke-width=".5" d="M253.00781 480.42969l.53516 1.10547"/></g><g clip-path="url(#x)"><path fill="none" stroke="#000" stroke-linecap="round" stroke-linejoin="round" stroke-miterlimit="10" stroke-width=".5" d="M267.34375 480.14453l-7.01563.36719"/></g><g clip-path="url(#y)"><path fill="none" stroke="#000" stroke-linecap="round" stroke-linejoin="round" stroke-miterlimit="10" stroke-width=".5" d="M266.32422 480.19922l.63281 1.05078"/></g><g clip-path="url(#z)"><path fill="none" stroke="#000" stroke-linecap="round" stroke-linejoin="round" stroke-miterlimit="10" stroke-width=".5" d="M279.99219 482.39453l-5.6836-4.13281"/></g><g clip-path="url(#A)"><path fill="none" stroke="#000" stroke-linecap="round" stroke-linejoin="round" stroke-miterlimit="10" stroke-width=".5" d="M292.08203 483.44922l-3.23437-6.23828"/></g><g clip-path="url(#B)"><path fill="none" stroke="#000" stroke-linecap="round" stroke-linejoin="round" stroke-miterlimit="10" stroke-width=".5" d="M306.85156 478.625l-6.14453 3.40625"/></g><g clip-path="url(#C)"><path fill="none" stroke="#000" stroke-linecap="round" stroke-linejoin="round" stroke-miterlimit="10" stroke-width=".5" d="M320.51563 481.1289l-6.83985-1.60156"/></g><g clip-path="url(#D)"><path fill="none" stroke="#000" stroke-linecap="round" stroke-linejoin="round" stroke-miterlimit="10" stroke-width=".5" d="M333.22266 478.21875l-5.6211 4.21875"/></g><g clip-path="url(#E)"><path fill="none" stroke="#000" stroke-linecap="round" stroke-linejoin="round" stroke-miterlimit="10" stroke-width=".5" d="M346.78125 482.0625l-6.10938-3.46875"/></g><g clip-path="url(#F)"><path fill="none" stroke="#000" stroke-linecap="round" stroke-linejoin="round" stroke-miterlimit="10" stroke-width=".5" d="M359.0625 483.20313l-4.04297-5.7461"/></g><g clip-path="url(#G)"><path fill="none" stroke="#000" stroke-linecap="round" stroke-linejoin="round" stroke-miterlimit="10" stroke-width=".5" d="M371.3789 480.32813l-.01952-.19922-.0586-.19141-.09375-.17578-.46094-.3789-.1914-.0586-.19922-.01953-.19922.01953-.1914.0586-.45704.3789-.09765.17578-.0586.1914-.01953.19923.01953.19921.0586.19141.09765.17969.45703.375.19141.0586.19922.01952.19922-.01953.1914-.0586.46094-.375.09375-.17968.0586-.1914.01953-.19922"/></g><g clip-path="url(#H)"><path fill="none" stroke="#000" stroke-linecap="round" stroke-linejoin="round" stroke-miterlimit="10" stroke-width=".5" d="M381.63281 483.1875l4.07813-5.71875"/></g><g clip-path="url(#I)"><path fill="none" stroke="#000" stroke-linecap="round" stroke-linejoin="round" stroke-miterlimit="10" stroke-width=".5" d="M393.47266 480.40234l7.02734-.14843"/></g><g clip-path="url(#J)"><path fill="none" stroke="#000" stroke-linecap="round" stroke-linejoin="round" stroke-miterlimit="10" stroke-width=".5" d="M394.4961 480.38281l-.59766-1.07422"/></g><g clip-path="url(#K)"><path fill="none" stroke="#000" stroke-linecap="round" stroke-linejoin="round" stroke-miterlimit="10" stroke-width=".5" d="M407.20703 481.9961l6.1875-3.33594"/></g><g clip-path="url(#L)"><path fill="none" stroke="#000" stroke-linecap="round" stroke-linejoin="round" stroke-miterlimit="10" stroke-width=".5" d="M408.10938 481.51172l-1.02344-.67969"/></g><g clip-path="url(#M)"><path fill="none" stroke="#000" stroke-linecap="round" stroke-linejoin="round" stroke-miterlimit="10" stroke-width=".5" d="M420.92969 482.59375l5.3711-4.53125"/></g><g clip-path="url(#N)"><path fill="none" stroke="#000" stroke-linecap="round" stroke-linejoin="round" stroke-miterlimit="10" stroke-width=".5" d="M436.41016 483.80469l1.04296-6.94922"/></g><g clip-path="url(#O)"><path fill="none" stroke="#000" stroke-linecap="round" stroke-linejoin="round" stroke-miterlimit="10" stroke-width=".5" d="M451.48438 483.61719l-2.47657-6.57813"/></g><g clip-path="url(#P)"><path fill="none" stroke="#000" stroke-linecap="round" stroke-linejoin="round" stroke-miterlimit="10" stroke-width=".5" d="M464.52344 483.70703l-1.92188-6.75781"/></g><g clip-path="url(#Q)"><path fill="none" stroke="#000" stroke-linecap="round" stroke-linejoin="round" stroke-miterlimit="10" stroke-width=".5" d="M147.46094 467.60938l-6.92188-1.19141"/></g><path fill="none" stroke="#000" stroke-linecap="round" stroke-linejoin="round" stroke-miterlimit="10" stroke-width=".5" d="M147.46094 467.60938l.76953 2.33203m12.53516-2.26172l-6.90235-1.33203m6.90234 1.33203l.71875 2.34375m12.62891-2.5586l-6.96875-.90234m6.96875.90234l.86719 2.29688m12.47656-2.80469l-7.02344.11328m7.02344-.11328l1.1875 2.14844m12.11328-1.76953l-6.9961-.64453m6.9961.64453l.94922 2.26562m12.34375-2.0664l-6.94922-1.04297m6.94922 1.04297l.8164 2.3125m12.53516-2.8672l-7.02343.06642m7.02343-.06641l1.17578 2.15625m12.02344-3.03125l-6.78906 1.8164m6.78906-1.8164l1.67188 1.79687m11.65234-1.7539l-6.8125 1.73047m6.8125-1.73047l1.64844 1.82031m11.63672-1.9336l-6.75 1.95704m6.75-1.95703l1.70703 1.76171m11.74219-.65234l-7.01954-.26172m6 .22266l.53516 1.10547m13.79297-1.46875l-7.00781.54297m5.98828-.46485l.65625 1.03906m12.10156-3.78515l-3.85156 5.8789m3.29297-5.02343l1.21875.11328M317.75 463.5625l-1.3086 6.90234m1.1172-5.89843l1.17187-.36329m11.63281-.70312l.09375 7.02734m-.07812-6.0039l1.07421-.58985m8.78125 2.67578l6.98047.8086m6.33204-.76172l6.98828.71484m-5.97266-.61328l-.46094-1.13281m13.02344.00781l6.46094 2.76172m-5.51953-2.35937l-.10547-1.22266m12.53515.69922l6.35157 3.0039m-6.35157-3.0039l-.11328-2.45313m13.83594 1.79297l5.53516 4.32422m-5.53516-4.32422l.42578-2.41797m12.1836 4.04688l6.9453 1.0664m-6.9453-1.0664l-.8086-2.3164m14.21485 1.89843L427 467.96484m-6.76563-1.90234l-.51953-2.39844m14.50782 5.58594l5.41796-4.47266m-4.6289 3.82422l-1.13672-.46875m15.5039 2.28516l1.73438-6.8086m-1.73437 6.8086L446.99609 471m14.54688-1.11328l4.03906-5.7461m-3.45312 4.91016l-1.21875-.15234"/><g clip-path="url(#R)"><path fill="none" stroke="#000" stroke-linecap="round" stroke-linejoin="round" stroke-miterlimit="10" stroke-width=".5" d="M147.21875 455.10938l-6.4375-2.82422"/></g><path fill="none" stroke="#000" stroke-linecap="round" stroke-linejoin="round" stroke-miterlimit="10" stroke-width=".5" d="M147.21875 455.10938l.1836 2.44921m12.98827-2.16406L154.23828 452m6.15234 3.39453l-.03906 2.45703m13.3789-2.5l-6.19921-3.30468m5.29688 2.82421v1.22657m14.58203-1.82422l-6.9297-1.15235m5.92188.98438l.39063 1.16406m13.94922-1.10547l-6.96485-.9336m6.96485.9336l.85547 2.30078m12.44922-2.22265l-6.94141-1.08594m6.9414 1.08594l.80079 2.32031m12.55468-2.83203l-7.02343-.0625m7.02343.0625l1.13282 2.17578m12.1328-2.80078l-6.92577 1.1875m6.92578-1.1875l1.5039 1.9375m11.6836-2.45703l-6.66797 2.22265m6.66797-2.22265l1.77734 1.6914m11.28125-2.26953l-6.15625 3.38282m6.15625-3.38282l2.05469 1.34375m10.64453-2.16015l-4.92578 5.01562m4.20703-4.28515l1.17969.34765m12.88672-1.04687l-4.98828 4.95312m4.26172-4.23047l1.17187.35938m13.32422-.51953l-5.89844 3.82422m5.03906-3.26563l1.07422.59375m11.71485-2.38672l-3.125 6.29297m2.66796-5.375l1.22657-.03516m11.94922-1.11328l-1.9336 6.75781m1.65235-5.77343l1.19921-.25782m11.66407-.85546l-.46875 7.01171m.40234-5.98828l1.11719-.5039m10.98437-.36719l2.08985 6.71094m-1.78516-5.73438l.86328-.8711m10.23828 1.34766l5.91016 3.80079m-5.05078-3.2461l.10156-1.22265m12.35547.66406l5.90625 3.8086m-5.04688-3.25391l.10157-1.22266m12.36328.65234l5.88672 3.84375m-5.88672-3.84375l.22265-2.4453m12.69141 3.28515l6.6875 2.16406m-6.6875-2.16406l-.42969-2.41407m1.40235 2.73047l-.21485-1.21093m12.38672 2.04296l7.02735-.1328m-7.02735.1328l-1.1914-2.14843m2.21484 2.1289l-.59375-1.07422m13.01953 1.98438l6.76172-1.91406m-6.76172 1.91406l-1.69922-1.76953m2.6836 1.49219l-.85157-.88672m13.32422 1.5664l6.47656-2.72265m-6.47656 2.72265l-1.90234-1.54687m15.13281 1.32812l6.64453-2.28125m-6.64453 2.28125l-1.79297-1.67578"/><g clip-path="url(#S)"><path fill="none" stroke="#000" stroke-linecap="round" stroke-linejoin="round" stroke-miterlimit="10" stroke-width=".5" d="M146.96875 442.26563l-5.9375-3.76563"/></g><path fill="none" stroke="#000" stroke-linecap="round" stroke-linejoin="round" stroke-miterlimit="10" stroke-width=".5" d="M146.10547 441.71875l-.09375 1.22266m14.1914-.5547l-5.77343-4.0078m5.77344 4.0078l-.28907 2.4375m13.15625-1.91405l-4.8789-5.0547m4.8789 5.0547l-.75781 2.33593m14.16016-2.42187l-5.0547-4.8789m5.0547 4.8789l-.67578 2.35937m14.17187-2.5625l-5.41797-4.47265m4.63281 3.82031l-.24609 1.20313m14.57031-.85547l-5.86719-3.8672m5.01563 3.3047l-.11719 1.22265m14.35938-.77734l-6.01563-3.63281m5.14063 3.10547l-.0664 1.22656m14.74608-2.82813l-6.99609.6289m5.98047-.53905l.66797 1.02734m13.55469-1.72656l-6.78125 1.84375m5.79687-1.57422l.83984.89453m12.4961-2.78125l-4.85547 5.07813m4.15234-4.33985l1.1797.33203m12.0703-1.6289l-3.3164 6.1953m2.83593-5.29296l1.22657.0039m11.48828-1.27343l-1.15625 6.92969m.98828-5.92188l1.16406-.39062m13.38281-.25782l-3.28125 6.21094m2.8047-5.3086h1.22656m12.78125-.77734l-3.71485 5.96485m3.71485-5.96485l2.44921.16797m9.26563-.6914l-.51563 7.0078m.44141-5.98827l1.125-.49219m11.4336-.48828l1.14843 6.9336m-1.14844-6.9336l1.94532-1.49219m10.36718 1.8164l3.15235 6.28126m-2.6914-5.36719l.70702-1m11.79297.29297l3.85938 5.8711m-3.29688-5.01954l.58985-1.07422m12.07421.28125l4.03516 5.75m-4.03516-5.75l1.11329-2.1875m12.36328 2.08203l3.71484 5.96485m-3.71484-5.96485l1.23046-2.125m12.08204 2.125l3.71875 5.96094m-3.71875-5.96094l1.23046-2.125m10.62891 3.94141l6.6289 2.33203m-5.66406-1.99219l-.18359-1.21484m13.09766 4.22656l5.5039-4.3711m-5.5039 4.3711l-2.25-.98047m15.30469.60547l6.02343-3.6211m-5.14453 3.09376l-1.05469-.63281m13.26954-2.02344l6.46875 2.7461m-5.52735-2.34766l-.10937-1.22266"/><g clip-path="url(#T)"><path fill="none" stroke="#000" stroke-linecap="round" stroke-linejoin="round" stroke-miterlimit="10" stroke-width=".5" d="M147.3164 428.22266l-6.6328-2.3086"/></g><path fill="none" stroke="#000" stroke-linecap="round" stroke-linejoin="round" stroke-miterlimit="10" stroke-width=".5" d="M147.3164 428.22266l.37891 2.42578m12.70313-1.89844l-6.16797-3.36328m6.16797 3.36328l-.02344 2.45313m13.375-2.51563l-6.23828-3.23828m6.23828 3.23828l.02344 2.45313m13.33594-2.54688l-6.32813-3.05078m6.32813 3.05078l.09765 2.45313m12.75-1.72657l-5.39453-4.5039m4.60938 3.84765l-.25 1.19922m12.23046.67188l-1.15625-6.9336m.98828 5.92578l-.97265.7461m13.19531.24219l1.36719-6.89454m-1.16797 5.89063l-1.17578.35547m14.13281.61328l1.6875-6.82422m-1.4414 5.83203l-1.19141.29688m18.61719-2.7422l-7.02735.0547m6.0039-.04688l.58595 1.07813m13.40625-2.58203l-6.33594 3.04296m5.41406-2.60156l.98828.72656m10.30078-3.15234l-.4414 7.01172m.375-5.99219l1.11719-.50781m12.6875-.46094l-1.28907 6.91016m1.10157-5.90235l1.17187-.37109m12.64063-.5625l-1.90625 6.76172m1.6289-5.77734l1.19922-.26172m13.1875-.39063l-3.49219 6.09766m3.49219-6.09766l2.44922.07813m9.60156-.50782l-.96484 6.96094m.82422-5.94922l1.15234-.42187m10.85938-.49219l1.92187 6.76172m-1.64453-5.77734l.88672-.85157M357 423.5547l.08203 7.02734m-.07031-6.0039l1.07812-.58985m11.97266-.42187l.58594 7.0039m-.5-5.98437l1.03125-.66406m12.3164-.36329l.35157 7.01954m-.30078-5.9961l1.05078-.63281m12.64453-.38672l-.51172 7.01172m.51172-7.01172l2.2461-.98828m-2.32032 2.01172l2.2461-.99219m12.95702.63672l-4.14062 5.67578m4.14062-5.67578l2.4297.34375m-3.03126.48047l1.21485.17578m11.89062-1.4414l-2.51562 6.55859m2.51562-6.5586l2.4336-.30078m-2.80079 1.2539l2.4375-.30077m11.10547-.70313l-2.23828 6.66016m2.23828-6.66016l2.42188-.40234m13.17187 2.83984l-6.79687 1.78516m5.80859-1.52344l.83203.89844M465.5 424.13672L461.625 430"/><g clip-path="url(#U)"><path fill="none" stroke="#000" stroke-linecap="round" stroke-linejoin="round" stroke-miterlimit="10" stroke-width=".5" d="M465.5 424.13672l2.4414.23437"/></g><g clip-path="url(#V)"><path fill="none" stroke="#000" stroke-linecap="round" stroke-linejoin="round" stroke-miterlimit="10" stroke-width=".5" d="M147.39844 414.64063l-6.79688-1.77735"/></g><path fill="none" stroke="#000" stroke-linecap="round" stroke-linejoin="round" stroke-miterlimit="10" stroke-width=".5" d="M146.41016 414.38281l.28515 1.19531m13.86328-.47656l-6.48828-2.69531m5.54688 2.30469l.11328 1.21875m14.27734-1.20313l-6.7539-1.94531m5.76953 1.66016l.2539 1.20312m13.9961-.76172l-6.65625-2.25781m5.6875 1.92969l.19531 1.21094m8.1914.3828l5.14063-4.78905m-4.39453 4.09375l-1.16016-.40235m12.92578-.3086l6.7422-1.97655m-5.76173 1.6875l-.85547-.875m13.0586-.08594l7.00781.51953m8.82813 3.11328l1.96484-6.7461m-1.67969 5.76563l-1.19922.25m18.36328-1.08984l-6.30468-3.10156m5.39062 2.64843l.03516 1.22657m14.42578-3.27344l-6.76563 1.89844m5.78125-1.6211l.84766.88672m12.96094-2.21094L274.2578 415.75m4.9414-3.41016l1.08985.5625m12.47266-1.80859l-4.58984 5.32031m3.92187-4.54687l1.19531.27344m11.08594-1.85157l-1.1875 6.92578m1.1875-6.92578l2.32813-.76562m12.125 1.17187l-3.46485 6.11328m2.96094-5.22265l1.22656.03515m11.41797-1.33593l-1.11719 6.9375m.95703-5.9297l1.16016-.39452m11.84375-.65625l-.17187 7.02344m.17187-7.02344l2.1914-1.10156m14.03126 2.77343l-5.98828 3.67578m5.11718-3.14062l1.0586.6211m13.64062.48437l-7.01562.39844m5.99609-.33985l.63672 1.04688m11.98828-3.92578l-3.59375 6.03906m3.59375-6.03906l2.44922.11718m10.29687-.39062l-2.45703 6.58594m2.45703-6.58594l2.4297-.32422m-2.78907 1.28125l1.21484-.16016m13.28907-.35156l-4.1172 5.69531m4.1172-5.69531l2.42968.33594m-3.02734.49218l2.42969.33594m11.0703-1.42187l-3.28905 6.21093m3.28906-6.21093l2.45312-.0039m-2.93359.90624l2.45313-.0039m11.47265-.82422l-3.55469 6.0625m3.5547-6.0625l2.45312.10156m-2.96875.78125l1.22656.05078m13.94531.47266l-6.23437 3.25m6.23437-3.25l2.02344 1.39062m11.14844-1.64062l-5.94532 3.75"/><g clip-path="url(#W)"><path fill="none" stroke="#000" stroke-linecap="round" stroke-linejoin="round" stroke-miterlimit="10" stroke-width=".5" d="M466.53516 411.8789l2.1289 1.21876"/></g><path fill="none" stroke="#000" stroke-linecap="round" stroke-linejoin="round" stroke-miterlimit="10" stroke-width=".5" d="M465.66797 412.42578l1.0664.60938"/><g clip-path="url(#X)"><path fill="none" stroke="#000" stroke-linecap="round" stroke-linejoin="round" stroke-miterlimit="10" stroke-width=".5" d="M147.41406 399.61719l-6.82812 1.64453"/></g><path fill="none" stroke="#000" stroke-linecap="round" stroke-linejoin="round" stroke-miterlimit="10" stroke-width=".5" d="M146.42188 399.85547l.8125.91797m10.1328 3.17969l-.10155-7.02735m16.30078 5.4414l-5.875-3.85546m12.7539 2.23828l7-.625m6.375-.41016l6.8789 1.44532m-5.875-1.23438l-.34374-1.17969m12.96484.09375l6.25781 3.19532m-5.34765-2.73047l-.01953-1.22656m12.04297 2.42968l7.02343-.13672m-6.0039.1172l-.59375-1.07423m18.11328 4.09375l-3.42188-6.13672m3.42188 6.13672l-1.33203 2.0586m16.0586-3.51954l-6.25-3.21484m6.25 3.21485l.03515 2.45312m13.65234-3.71875l-6.99219-.6836m5.97657.58204l.46484 1.13281m13.7461-2.35156l-6.75 1.95312m6.75-1.95312l1.70702 1.76172m11.04688-2.88282l-5.63281 4.19922m5.63281-4.19922l2.21875 1.04688m10.8789-1.3125l-5.1953 4.73047m5.1953-4.73047l2.3086.82422m11.72656.3789l-6.63672 2.32032m6.63672-2.32032l1.80078 1.66797m10.63672-3.03125l-4.88281 5.05078m4.17188-4.3164l1.17968.33594m13.4414-.3125l-6.07421 3.53515m6.07422-3.53515l2.08594 1.29296m11.70312.65235l-7.01953-.35938m7.01953.35938l1.03906 2.22656m10.76563.48438l-4-5.77735m4 5.77735l-1.125 2.17968m.54297-3.01953l-.5625 1.08985m15.26953-5.25l-5.61719 4.21875m5.61719-4.21875l2.22265 1.03906m11.0625-1.07422l-5.5625 4.29297m5.5625-4.29297l2.23829 1.00781m11.62109-.0039l-6.64844 2.28125m6.64844-2.28125l1.79297 1.67578m-2.76172-1.34375l.89844.83984m12.53515-2.52734l-4.9453 4.99218m4.9453-4.99218l2.34766.70703m-3.0664.01953l1.17187.35547m13.08203-.83985l-5.38672 4.51172m5.38672-4.51172l2.27344.92188m-3.0586-.26563l1.14063.46094m13.41015-.4336l-6.28515 3.14063m6.28515-3.14062l1.9961 1.42187m-2.91016-.96484l.9961.71094m13.04687-1.4922l-5.91406 3.79298"/><g clip-path="url(#Y)"><path fill="none" stroke="#000" stroke-linecap="round" stroke-linejoin="round" stroke-miterlimit="10" stroke-width=".5" d="M466.51953 398.54297l2.14063 1.19922"/></g><g clip-path="url(#Z)"><path fill="none" stroke="#000" stroke-linecap="round" stroke-linejoin="round" stroke-miterlimit="10" stroke-width=".5" d="M146.98438 385.26953l-5.96875 3.70703"/></g><path fill="none" stroke="#000" stroke-linecap="round" stroke-linejoin="round" stroke-miterlimit="10" stroke-width=".5" d="M146.98438 385.26953l2.12109 1.23438m-2.98828-.69532l1.0586.6172m12.99218-1.35548l-5.70703 4.10547m4.875-3.50781l1.10156.54297m8.41797 3.94531l3.54687-6.0664m9.34766.28906l4.39063 5.48828m-3.75-4.6914l.48437-1.125m12.39844.17577l3.97265 5.79297m-3.39453-4.94922l.5664-1.08984m16.07813.19922l-3.83984 5.88672m3.28125-5.02735l1.22266.10938m13.89453 3.5l-6.32813-3.05078m6.32813 3.05078l.09765 2.44922m-1.01562-2.89454l.09766 2.45313m14.17968-2.10547l-6.41797-2.85547m6.41797 2.85547L240.58594 391m-1.10547-2.86328l.17187 2.44922m14.20703-2.375l-6.67968-2.17578m6.67969 2.17578l.42578 2.41797m-1.39453-2.73438l.21093 1.21094m14.14453-1.13672l-6.8203-1.6914m6.8203 1.6914l.59766 2.38281m-1.58984-2.6289l.29687 1.1914m13.875-.51562l-6.54687-2.55078m6.54687 2.55078l.28516 2.4375m-1.23828-2.8086l.14062 1.21875m14.32813-1.62109l-6.95313-1.0039m6.95313 1.0039l.83203 2.3086m12.5039-3.14454l-6.99609.66797m6.9961-.66797l1.35156 2.04688m11.79297-2.83985l-6.65235 2.25391m5.6836-1.92578l.89453.83984m13.04687-1.89844l-5.96484 3.71485m5.09375-3.17578l1.0625.61719m13.16797-1.08204l-6.0547 3.56641m19.46095-.16797l-6.23828-3.23047m5.33203 2.76172l.01172 1.22656m14.60156-2.28515l-7.02344-.17578m7.02344.17578l1.09765 2.19531m11.54297-4.35547l-5.67578 4.14453m5.67578-4.14453l2.21094 1.07422m11.17188-.97656l-5.8086 3.94922m5.8086-3.94922l2.17187 1.14453m11.17578-1.09766l-5.875 3.85547m5.875-3.85547l2.15235 1.17969m-3.00782-.61719l1.07813.58985m12.92969-1.38282l-5.54688 4.31641m5.54688-4.3164l2.23828 1m-3.04688-.3711l1.1211.5m13.03515-1.08203l-5.61328 4.22265m5.61328-4.22265l2.22266 1.03906m11.32422-.6914l-6.07813 3.52734m6.07813-3.52735l2.08203 1.29297m11.10547-1.49609l-5.82032 3.9336"/><g clip-path="url(#aa)"><path fill="none" stroke="#000" stroke-linecap="round" stroke-linejoin="round" stroke-miterlimit="10" stroke-width=".5" d="M466.47266 385.15625l2.16796 1.14844"/></g><path fill="none" stroke="#000" stroke-linecap="round" stroke-linejoin="round" stroke-miterlimit="10" stroke-width=".5" d="M465.625 385.72656l1.08594.57813"/><g clip-path="url(#ab)"><path fill="none" stroke="#000" stroke-linecap="round" stroke-linejoin="round" stroke-miterlimit="10" stroke-width=".5" d="M147.02734 372.02344l-6.05468 3.5664"/></g><path fill="none" stroke="#000" stroke-linecap="round" stroke-linejoin="round" stroke-miterlimit="10" stroke-width=".5" d="M147.02734 372.02344l2.09375 1.28515m-2.97265-.76562l1.04297.64062m13.09765-1.24609l-5.94531 3.74219m5.94531-3.74219l2.1289 1.21875m-2.99608-.67578l1.0664.60937m12.19922-2.1289l-4.11328 5.69531m3.51172-4.86719l1.21875.16406m13.84375.41407l-6.41016 2.8789m5.48047-2.45703l.96875.75m13.58594.32422l-7.02735-.10937m7.02735.10937l1.11719 2.1836m-2.14063-2.19922l.5586 1.08984m13.26171.70703l-5.98828-3.67578m5.98828 3.67578l-.15234 2.44922m-.71875-2.98438l-.07813 1.22657m14.07813-.41406l-5.61719-4.22657m5.61719 4.22656l-.38281 2.42188m-.4336-3.03906l-.1914 1.21484m14.72265-1.27734l-6.41797-2.86719m6.41797 2.86719l.16797 2.44531m-1.10156-2.86328l.08203 1.22265m14.41797-1.63671l-6.92188-1.20313m6.92188 1.20313l.76562 2.33203m12.58985-2.6211l-7-.625m7 .625l.95312 2.26172m12.3711-2.39062l-7.01953-.36719m7.01953.36719l1.03515 2.22265m12.27344-2.11718l-7.0039-.57813m7.0039.57813l.96875 2.2539m12.2461-3.42578l-6.8047 1.76172m5.8125-1.5039l.83204.90234m13.41797-1.35547l-6.69141 2.15625m5.71875-1.84375l.8789.85547m13.4922-.85547l-6.85938 1.52734m5.86328-1.30469l.79688.9336m13.52343-1.10938l-6.8789 1.4336m5.8789-1.22266l.78516.9414m13.54297.23048l-6.90235-1.32813m6.90235 1.32813l.72265 2.34375m12.64844-2.79297l-7.01562-.42969m7.01562.42969l1.01953 2.23047M387.08984 373l-6.83593 1.61719M387.08984 373l1.6211 1.84375m11.51562-2.39063l-6.48047 2.71094m6.48047-2.71094l1.89844 1.5547m11.30469-1.79688l-6.25781 3.19531m5.34765-2.73047l1.00781.70313m13.08204-1.41407l-5.98438 3.6875m5.11328-3.15234l1.0586.6211m12.95703-1.40235l-5.64453 4.17969m5.64453-4.17969l2.21484 1.05469m10.8711-1.33594l-5.1875 4.74219m5.1875-4.74219l2.3125.82031m11.35156-.36719l-5.88672 3.83594"/><g clip-path="url(#ac)"><path fill="none" stroke="#000" stroke-linecap="round" stroke-linejoin="round" stroke-miterlimit="10" stroke-width=".5" d="M466.5039 371.89063l2.14844 1.1875"/></g><g clip-path="url(#ad)"><path fill="none" stroke="#000" stroke-linecap="round" stroke-linejoin="round" stroke-miterlimit="10" stroke-width=".5" d="M146.4336 357.95703l-4.8672 5.07031"/></g><path fill="none" stroke="#000" stroke-linecap="round" stroke-linejoin="round" stroke-miterlimit="10" stroke-width=".5" d="M146.4336 357.95703l2.35937.66797m11.63281.23438l-6.22266 3.26562m6.22266-3.26563l2.02734 1.38282m-2.93359-.90625l1.01563.6914m13.60156.23047l-7.01172.46875m7.01172-.46875l1.29297 2.08594m-2.3125-2.01563l.64453 1.03907m13.67578-1.2539l-6.98438.7578m6.98438-.7578l1.3789 2.03124m-2.39452-1.91797l1.3789 2.02735m12.94531-1.31641l-6.97265-.89063m6.97265.89063l.8672 2.29688m-1.88282-2.42579l.8711 2.29688m13.05859-.92969l-6.16797-3.36328m6.16797 3.36328l-.02735 2.45313m-.8711-2.94141l-.01171 1.22656m14.34766-.98828l-6.41407-2.86719m6.41407 2.8672l.16797 2.44921m13.19921-2.57422l-6.51953-2.61719m6.51953 2.6172l.26563 2.4414m13.23437-3.0625l-6.89062-1.375m6.89062 1.375l.70703 2.35156m12.67579-3.03906h-7.02735m7.02735 0l1.15234 2.16797m12.14063-2.58594l-6.98047.83594m6.98047-.83594l1.39843 2.01562m11.9375-1.48046l-7.02344-.23438m7.02344.23438l1.07813 2.20703m12.23828-2.4336l-7.02344.21875m7.02344-.21875l1.21875 2.1289m12.09375-1.8828l-7.01953-.27344m7.01953.27344l1.0664 2.21093m12.16016-3.15625l-6.83984 1.6172m6.83984-1.6172l1.61719 1.84375m11.47265-2.49609l-6.39062 2.92188m5.46094-2.4961l.97265.7461m13.53907-.31641l-6.92579 1.21094m6.92579-1.21094l1.5078 1.9375m11.85157-1.51953l-7.01562.3789m7.01562-.3789l1.26953 2.09765m12.01953-2.39843l-6.96093.98046m6.96093-.98046l1.44141 1.98437m11.70703-2.66015l-6.6289 2.32812m6.6289-2.32813l1.80469 1.66407m11.5-1.69531L407 361.6914m6.60547-2.39454l1.82031 1.64454m11.51172-1.59766l-6.64063 2.29688m5.67188-1.96094l.90234.83203m12.8125-2.20313l-5.5039 4.3672m4.70312-3.73048l1.125.49219m12.1875-1.86719l-3.89844 5.84766m3.89844-5.84766l2.4414.24219m11.62892.4375l-5.41016 4.48438"/><g clip-path="url(#ae)"><path fill="none" stroke="#000" stroke-linecap="round" stroke-linejoin="round" stroke-miterlimit="10" stroke-width=".5" d="M466.26563 358.25l2.26953.9336"/></g><g clip-path="url(#af)"><path fill="none" stroke="#000" stroke-linecap="round" stroke-linejoin="round" stroke-miterlimit="10" stroke-width=".5" d="M143.92578 343.66406l.14844 7.02735"/></g><g clip-path="url(#ag)"><path fill="none" stroke="#000" stroke-linecap="round" stroke-linejoin="round" stroke-miterlimit="10" stroke-width=".5" d="M143.94531 344.6875l1.07031-.59766"/></g><path fill="none" stroke="#000" stroke-linecap="round" stroke-linejoin="round" stroke-miterlimit="10" stroke-width=".5" d="M157.45313 343.66797l-.27735 7.01953m.23828-6l1.10547-.53125m15.13672 1.23828l-6.05469 3.5664m5.17578-3.04687l1.04688.64063m13.6211.30469l-7 .63671m7-.63671l1.34374 2.05468m11.88672-.90234l-6.82812-1.66406m6.82812 1.66406l.60547 2.375m12.5586-1.91406l-6.53126-2.58985m5.58203 2.21485l.13672 1.21875m13.9336-.4336l-6.14063-3.41015m6.14063 3.41015l-.04297 2.45313m13.38281-2.49219l-6.1875-3.33203m6.1875 3.33203l-.01562 2.45313m13.20703-2.2461l-5.94531-3.7461m5.08203 3.20313l-.08985 1.22266m14.8086-2.67969l-7.02344.2539m6-.21484l.61719 1.0625m13.66406-1.62109l-6.90625 1.29297m5.89844-1.10547l.76562.95703m13.61719-.4336l-7.02734-.1289m6.0039.10938l.55469 1.09375m13.77734-.92188l-7.01562-.4336m5.99219.3711l.5078 1.11719m13.83595-1.23047l-7.02735-.07813m7.02735.07813l1.1289 2.17578m12.11328-1.5l-6.8789-1.4336m6.8789 1.4336l.6875 2.35547m12.65625-3.6289l-6.9375 1.11327m5.92969-.94921l.73828.97656m13.59375-1.08985l-6.95703 1.01172m5.94531-.86718l.72657.99218m13.5664-1.32812l-6.88672 1.39453m6.88672-1.39453l1.5586 1.89453m11.78515-1.71875l-6.94922 1.04297m6.94922-1.04297l1.46094 1.97266m11.5586-2.94922l-6.35548 3m5.4297-2.5664l.98437.73437m12.6953-2.01563l-5.23437 4.6914m5.23438-4.6914l2.30469.84375m10.7578-1.09765l-4.72655 5.19921m4.72656-5.19921l2.375.60156m10.90234-.63672l-4.65234 5.26953m4.65234-5.26953l2.38672.57031m10.95313-.54687l-4.69922 5.22265m4.69922-5.22265l2.3789.58984m11.01563-.51563l-4.85938 5.07422"/><g clip-path="url(#ah)"><path fill="none" stroke="#000" stroke-linecap="round" stroke-linejoin="round" stroke-miterlimit="10" stroke-width=".5" d="M465.99219 344.64063l2.35937.66796"/></g><g clip-path="url(#ai)"><path fill="none" stroke="#000" stroke-linecap="round" stroke-linejoin="round" stroke-miterlimit="10" stroke-width=".5" d="M141.01953 332l5.96094 3.72656"/></g><path fill="none" stroke="#000" stroke-linecap="round" stroke-linejoin="round" stroke-miterlimit="10" stroke-width=".5" d="M154.1875 332.26172l6.2539 3.20312m-6.2539-3.20312l-.03906-2.45313m.94922 2.91797l-.01953-1.22656m12.28906 1.0586l6.52344 2.60937m-6.52344-2.60938l-.26563-2.4414m14.17188 1.46484l5.34375 4.5625m-4.5664-3.89844l.26562-1.19921m18.42578 3.28125l-6.96485-.9297m5.95313.79298l.42578 1.15234m12.71875 1.17578l-4.60156-5.3125m4.60156 5.3125l-.88281 2.28906m13.45703-1.79687l-3.11719-6.29688m2.66406 5.37891l-.71484 1m14.91406-.33594l-3.98047-5.79297m3.40235 4.95313l-.57031 1.08594m15.1289-.83594l-5.3086-4.60938m5.3086 4.60938l-.55078 2.39062m14.72266-4.6953h-7.02735m7.02735 0l1.15234 2.16796m11.65234-3.99219l-6.0039 3.64844m6.0039-3.64844l2.10938 1.2539m10.64844-1.95312l-4.89063 5.04688m4.17969-4.3125l1.17969.33984m12.04687-1.65625l-3.28906 6.21094m2.8086-5.3086h1.22655m12.41797-.97656l-2.98828 6.35938m17.33594-5.625l-5.05078 4.88672m19.08984-3.76953l-6.5039 2.65625m5.55859-2.26954l.94531.78516m12.14453-2.67578l-4.16015 5.66406m3.55468-4.83984l1.21485.17969m10.76172-1.6836l-.27344 7.02344m.23437-6l1.10547-.53516m14.81641.78125l-5.41016 4.48438m5.41016-4.48438l2.26953.9297m9.55469-1.98438l-2.42578 6.59375m2.07422-5.63672l1.21484-.16406m11.40625-1.00391l-.33594 7.01562m.28906-5.99609l1.10938-.52344m13.13672-.33984l-2.10547 6.70312m1.80078-5.72656l1.20703-.22656m11.80078-.88281l-.8789 6.96875m.7539-5.95704l1.14453-.43359m13.77735-.03515l-3.84375 5.8828m3.28515-5.02734l1.22266.10938m13.55469-.10938l-5.65235 4.17188"/><g clip-path="url(#aj)"><path fill="none" stroke="#000" stroke-linecap="round" stroke-linejoin="round" stroke-miterlimit="10" stroke-width=".5" d="M466.38672 331.77734l2.21484 1.0586"/></g><g clip-path="url(#ak)"><path fill="none" stroke="#000" stroke-linecap="round" stroke-linejoin="round" stroke-miterlimit="10" stroke-width=".5" d="M140.69531 319.35156l6.60938 2.39453"/></g><path fill="none" stroke="#000" stroke-linecap="round" stroke-linejoin="round" stroke-miterlimit="10" stroke-width=".5" d="M153.89844 319.73438l6.83594 1.6289m-6.83594-1.6289l-.6211-2.375m1.61328 2.61328l-.61718-2.375m12.88281 2.43359l6.94922 1.03125m-6.94922-1.03125l-.82422-2.3086m1.83203 2.46094l-.82031-2.3125m13.08984 2.67579h7.02344m-7.02344 0l-1.15234-2.16407m2.17188 2.16406l-1.15235-2.16406m13.46094 2.46875l7-.60937m-7 .60937l-1.33594-2.0586m14.6914 2.3711l6.91798-1.23047m9.53515 4.11329l.64063-6.9961m-.64063 6.9961l-2.26562.94921m15.46484-.96093l.8711-6.97266m-.8711 6.97266l-2.29297.875m16.89063-.95313l-1.69531-6.82031m1.6953 6.82031l-1.82421 1.64063m16.36328-2.21094l-4.14063-5.67578m4.14063 5.67578l-1.07031 2.20703m15.6211-3.85938l-6.61329-2.375m5.65234 2.03125l.17578 1.21485m14.22657-2.8164l-6.86328 1.51562m5.86328-1.29297l.79687.9336m12.36328-3.07423l-4.55468 5.35157m3.89062-4.57422l1.19922.26562m13.89453 2.55469l-6.78515-1.83984m5.79687 1.5703l.27344 1.19923m14.13672-2.16016l-7 .61719m5.98047-.52735l.67187 1.03125m13.16016-2.64453l-5.9961 3.66797m5.125-3.13281l1.05469.6211m12.1914-2.17188l-4.11327 5.69922m3.51562-4.8711l1.21484.16797m11.66407 1.85156l-.01953-.19921-.0586-.19141-.09375-.17578-.46094-.3789-.1914-.0547-.19922-.01953-.19922.01954-.1914.05468-.45704.3789-.09765.17579-.0586.1914-.01953.19923.01953.19921.0586.19141.09765.17969.45703.375.19141.0586.19922.01952.19922-.01953.1914-.0586.46094-.375.09375-.17968.0586-.1914.01953-.19923m14.70312-2.55468l-4.82422 5.10937m4.125-4.36328l1.1836.32422m10.77734-2.01172l-.71484 6.99219m.60937-5.97266l1.13672-.46484m11.1914-.49219l1.47266 6.8711m-1.47265-6.8711l1.875-1.58203m10.73047 1.8125l2.89062 6.40625m-2.47266-5.47266l.75391-.96875m13.75781 6.75l-.33984-7.01953m.29297 5.9961l-1.05469.6289m17.66016-3.9414l-6.82813 1.64843m5.83594-1.40625l.8125.91797m13.1836-1.98437l-6.20313 3.30078"/><g clip-path="url(#al)"><path fill="none" stroke="#000" stroke-linecap="round" stroke-linejoin="round" stroke-miterlimit="10" stroke-width=".5" d="M466.66406 318.89844l2.03516 1.36719"/></g><path fill="none" stroke="#000" stroke-linecap="round" stroke-linejoin="round" stroke-miterlimit="10" stroke-width=".5" d="M465.76172 319.3789l1.01562.6836"/><path fill="#ff3030" fill-rule="evenodd" d="M331.23438 463.21094h7.6914V453.0625h-7.6914v10.14844"/><path fill="azure" fill-rule="evenodd" d="M333.0664 454.89844h.83594v5.73828h3.19141v.74219h-4.02734v-6.48047"/><path fill="#ff3030" fill-rule="evenodd" d="M180.33203 445.45703h7.6914V435.3125h-7.6914v10.14453"/><path fill="azure" fill-rule="evenodd" d="M182.16406 437.14453h.83203v5.73828h3.19532v.74219h-4.02735v-6.48047"/><path fill="#00f" fill-rule="evenodd" d="M383.80078 432.14063h8.61719v-10.14454h-8.61719v10.14454"/><path fill="azure" fill-rule="evenodd" d="M385.63281 423.82813h.83203v2.82421h3.28907v-2.82421h.83203v6.48046h-.83203v-2.91796h-3.28907v2.91796h-.83203v-6.48046"/><path fill="#00f" fill-rule="evenodd" d="M228.45703 418.82813h8.6211v-10.14844h-8.6211v10.14844"/><path fill="azure" fill-rule="evenodd" d="M230.28906 410.51172h.83594v2.82422h3.28516v-2.82422h.83203v6.48047h-.83203v-2.91406H231.125v2.91406h-.83594v-6.48047"/><path fill="#00f" fill-rule="evenodd" d="M370.48438 401.07422h8.62109v-10.14844h-8.6211v10.14844"/><path fill="azure" fill-rule="evenodd" d="M372.3164 392.76172h.83594v2.82031h3.28516v-2.82031h.83203v6.47656h-.83203v-2.91406h-3.28516v2.91406h-.83593v-6.47656"/><path fill="#ff3030" fill-rule="evenodd" d="M215.83594 356.6875h7.69531v-10.14453h-7.69531v10.14453"/><path fill="azure" fill-rule="evenodd" d="M217.67188 348.375h.83203v5.74219h3.1914v.73828h-4.02344V348.375"/><path fill="#ffffe0" fill-rule="evenodd" d="M386.1289 414.4961h22.1797v-10.19532h-22.1797v10.19531"/><path fill-rule="evenodd" d="M389.625 406.13672h.51172v6.29297h-.78906v-4.48828h-1.38672v-.5547l.5586-.0664.2539-.05469.23047-.08984.20312-.14062.17188-.21094.14062-.29297.10547-.39453m4.8164 0l.22657.01953.22265.05469.20704.08984.1953.1211.1836.14843.17188.17578.30078.41797.2461.4961.17968.54687.10938.57813.03906.58984-.03906.59375-.10938.58594-.17969.55078-.2461.5039-.30077.42579-.17188.17968-.1836.15625-.1953.1211-.20704.09375-.22265.05469-.22656.01953-.23047-.01954-.21875-.05468-.20703-.09375-.19922-.1211-.1836-.15625-.17187-.17968-.30078-.42579-.24219-.5039-.17969-.55078-.11328-.58594-.03515-.59375h.83203l.02734.5625.08203.50781.125.4414.16406.375.19141.30079.21094.22266.22265.13671.22657.04688.22656-.04688.22265-.13671.21094-.22266.1914-.30078.16017-.375.125-.4414.08203-.50782.03125-.5625-.03125-.5625-.08204-.5-.125-.4336-.16015-.36718-.1914-.29297-.21094-.21094-.22266-.13281-.22656-.04688-.22657.04688-.22265.13281-.21094.21094-.1914.29297-.16407.36719-.125.43359-.08203.5-.02734.5625h-.83204l.03516-.58984.11328-.57813.17969-.54687.24219-.4961.30078-.41797.17187-.17578.1836-.14844.19922-.12109.20703-.08984.21875-.05469.23047-.01953m5.08984 0h.51172v6.29297h-.78906v-4.48828h-1.38672v-.5547l.5586-.0664.2539-.05469.22656-.08984.20313-.14062.17578-.21094.14062-.29297.10547-.39453m2.82422 2.17578h.78515l.01954-.3164.0625-.28907.09765-.25.14063-.21484.17969-.17578.22265-.12891.26563-.07813.30859-.03125.23828.02344.22266.0625.20703.10156.17578.13672.15234.17579.10938.20312.07422.23828.02344.26563-.01954.26562-.0664.22656-.10938.19141-.15625.17188-.19922.16015-.25.16797-.6328.38672-.53907.3164-.4375.31641-.34375.32422-.26563.33594-.1914.35156-.125.36719-.0664.39453-.02345.41797h4.21485v-.73828h-3.33203l.08203-.28516.11328-.23828.14844-.19922.1875-.17969.23046-.17187.27735-.17578.71875-.41797.41406-.20703.34766-.23047.27734-.25.22266-.26563.16406-.28125.10938-.28125.0625-.28515.02343-.28125-.04297-.38282-.12109-.34765-.1875-.3086-.25-.26171-.30469-.21485-.34375-.15625-.38281-.10156-.40625-.03125-.4336.03125-.39843.09765-.35547.16797-.30469.23438-.25.30469-.1836.375-.11718.4453-.03906.51954"/><path fill="#ffffe0" fill-rule="evenodd" d="M347.77344 383.55078h22.17969v-10.1914h-22.1797v10.1914"/><path fill-rule="evenodd" d="M351.27344 375.1914h.50781v6.29688h-.78516v-4.49219h-1.39062v-.55468l.5625-.06641.25-.05078.23047-.08985.20312-.14453.17188-.20703.14453-.29687.10547-.39453m4.8125 0l.23047.01953.21875.05469.20703.08984.19531.1211.1875.14843.16797.17578.30469.42188.24218.49218.1797.54688.11327.57812.03516.59375-.03516.58985-.11328.58594-.17969.55468-.24218.5-.3047.42969-.16796.17969-.1875.15234-.19531.125-.20703.08985-.21875.05859-.23047.01953-.23047-.01953-.21875-.0586-.20703-.08984-.19531-.125-.1836-.15234-.17187-.17969-.30079-.42969-.24609-.5-.17969-.55469-.10937-.58593-.03906-.58985h.83203l.03125.5625.07812.50391.1289.44531.16017.3711.1914.30078.21094.22265.22265.13672.22657.04688.22656-.04688.22266-.13672.21093-.22265.19141-.30078.16016-.3711.1289-.44531.08203-.5039.02735-.5625-.02735-.5625-.08203-.5-.1289-.4375-.16016-.36329-.1914-.29297-.21094-.21484-.22266-.13281-.22656-.04297-.22656.04297-.22266.13281-.21094.21484-.1914.29297-.16016.36328-.1289.4375-.07813.5-.03125.5625h-.83203l.03906-.59375.10937-.57812.1797-.54688.24608-.49218.30079-.42188.17187-.17578.1836-.14844.1953-.1211.20704-.08983.21875-.0547.23047-.01952m5.09375 0h.50781v6.29687h-.78906v-4.49219h-1.38672v-.55468l.5586-.06641.2539-.05078.23047-.08985.20312-.14453.17188-.20703.14062-.29687.10938-.39453M364 377.36719h.78906l.01953-.3164.0586-.28517.09765-.2539.14063-.21485.1836-.17578.22265-.1289.26562-.07813.3086-.02734.23437.01953.22656.0625.20313.10156.17969.14063.14844.17187.11328.20703.0703.23438.02735.26562-.02344.26954-.0664.22265-.10938.1914-.15625.17188-.19921.16406-.2461.16407-.63672.39062-.53515.3125-.4375.3164-.34766.32423-.26563.33594-.1875.35156-.125.3711-.0703.39062-.01954.42187h4.21094v-.74219h-3.33203l.08203-.28515.11328-.23438.14844-.20312.1875-.17969.23047-.17188.28125-.17578.71484-.41796.41406-.20313.34766-.23047.28125-.2539.21875-.26563.16406-.27734.10938-.28516.0664-.28516.01953-.28125-.04296-.3828-.1211-.34767-.1875-.30859-.25-.26172-.30469-.21484-.34375-.15625-.3789-.09766-.40625-.03515-.4375.03125-.39844.10156-.35547.16406-.30469.23438-.24609.30468-.1875.375-.11328.44532-.04297.51953"/><path fill="#ffffe0" fill-rule="evenodd" d="M263.64453 356.92188h22.17969v-10.19141h-22.17969v10.1914"/><path fill-rule="evenodd" d="M267.14453 348.5625h.50781v6.29297h-.78515v-4.48828h-1.39063v-.55469l.5586-.0664.2539-.0547.23047-.08984.20313-.14062.17187-.21094.14453-.29297.10547-.39453m4.8125 0l.23047.01953.21875.05469.20703.08984.19531.1211.1836.14843.17187.17579.30469.41796.24219.4961.17969.54687.10937.57813.03906.58984-.03906.59375-.10938.58594-.17968.55078-.24219.5039-.30469.4297-.17187.17968-.1836.15235-.1953.12109-.20704.09375-.21875.05469-.23047.01953-.23047-.01953-.21875-.0547-.20703-.09374-.19531-.1211-.1836-.15234-.17187-.17969-.30469-.42968-.24219-.50391-.17968-.55078-.10938-.58594-.03906-.59375h.83203l.03125.5625.07813.50781.1289.44141.16016.375.1914.30078.21094.22266.22266.13672.22656.04687.22656-.04687.22266-.13672.21094-.22266.1914-.30078.16016-.375.1289-.4414.08204-.50782.02734-.5625-.02734-.5586-.08203-.5039-.12891-.4336-.16016-.36718-.1914-.29297-.21094-.21094-.22266-.1328-.22656-.04298-.22656.04297-.22266.13281-.21094.21094-.1914.29297-.16016.36719-.1289.4336-.07813.5039-.03125.5586h-.83203l.03906-.58985.10938-.57813.17969-.54687.24218-.4961.30469-.41796.17188-.17579.18359-.14843.19531-.1211.20703-.08984.21875-.05469.23047-.01953m5.08985 0h.51171v6.29297h-.78906v-4.48828h-1.38672v-.55469l.5586-.0664.2539-.0547.22656-.08984.20704-.14062.17187-.21094.14063-.29297.10546-.39453m2.82422 2.17578h.78907l.01953-.3164.0586-.28907.09765-.25.14062-.21484.1836-.17578.22265-.1289.26563-.07813.30469-.02735.23828.01953.22656.0625.20312.10157.1797.13671.14843.17579.11328.20312.07031.23828.02735.26563-.02344.26562-.0664.22656-.10938.19141-.15625.17188-.19922.16015-.2461.16797-.63671.38672-.53516.3164-.4375.31641-.34766.32422-.26562.33594-.1875.35156-.125.36719-.07031.39453-.01954.41797h4.21094v-.73828h-3.33203l.08203-.28516.11328-.23828.14844-.19922.1875-.17969.23047-.17187.27734-.17578.71875-.41797.41407-.20313.34765-.23437.28125-.25.21875-.26563.16406-.27734.10938-.28516.0664-.28515.01954-.28125-.04297-.38281-.1211-.34766-.1875-.3086-.25-.26171-.30468-.21485-.34375-.15625-.3789-.10156-.41017-.03125-.43359.03125-.39844.09766-.35546.16796-.3047.23438-.24609.30469-.1875.375-.11328.44531-.04297.51953"/><path fill="#ffffe0" fill-rule="evenodd" d="M230.78516 435.98047h22.17968v-10.19531h-22.17968v10.1953"/><path fill-rule="evenodd" d="M234.28516 427.6211h.5078v6.29296h-.78515v-4.48828h-1.39062v-.5586l.5625-.0625.25-.05468.23047-.08984.20312-.14063.17188-.21094.14453-.29296.10547-.39454m4.8125 0l.23047.01563.21875.0586.20703.08984.1953.12109.1875.14844.16798.17578.30469.41797.24218.4961.17969.54296.11328.58203.03516.58985-.03516.59375-.11328.58203-.17969.55468-.24219.50391-.30468.42578-.16797.17969-.1875.15234-.19531.125-.20703.09375-.21875.05469-.23047.01953-.23047-.01953-.21875-.05469-.20703-.09375-.19532-.125-.18359-.15234-.17188-.17969-.30078-.42578-.24609-.5039-.17969-.5547-.10937-.58202-.03906-.59375h.83203l.03125.5625.08203.5078.125.44141.16015.375.19141.30079.21094.22265.22265.13672.22657.04688.22656-.04688.22266-.13672.21093-.22265.1914-.30079.16017-.375.1289-.4414.08203-.50781.02735-.5625-.02735-.5625-.08203-.5-.1289-.4336-.16016-.36719-.1914-.29296-.21095-.21485-.22265-.1289-.22656-.04688-.22657.04688-.22265.1289-.21094.21485-.1914.29296-.16016.3672-.125.43358-.08203.5-.03125.5625h-.83203l.03906-.58984.10937-.58203.17969-.54297.2461-.4961.30077-.41796.17188-.17578.1836-.14844.1953-.1211.20704-.08984.21875-.0586.23047-.01562m5.09375 0h.5078v6.29297h-.78905v-4.48828h-1.38672v-.5586l.5586-.0625.2539-.05468.23047-.08984.20312-.14063.17188-.21094.14062-.29296.10938-.39454m2.8203 2.17188h.78907l.01953-.3125.0586-.28906.09765-.25.14063-.21875.1836-.17188.22265-.1289.26562-.08204.3086-.02734.23437.02344.22656.0625.20313.10156.17969.13672.14843.17578.11328.20313.07032.23828.02734.26171-.02344.26954-.0664.22656-.10938.1914-.15625.17188-.19922.16016-.24609.16796-.63672.38672-.53516.3125-.4375.32032-.34765.32421-.26563.33594-.1875.34766-.125.3711-.0703.39452-.01954.41797h4.21094v-.74219h-3.33203l.08203-.28125.11328-.23828.14844-.20312.1875-.17969.23047-.16797.28125-.17578.71484-.41797.41406-.20703.34766-.23047.28125-.25.21875-.26953.16406-.27734.10938-.28125.0664-.28516.01953-.28125-.04297-.38281-.12109-.35156-.1875-.3047-.25-.26562-.30469-.21093-.34375-.16016-.3789-.09766-.40625-.03125-.4375.03125-.39844.09766-.35547.16797-.30469.23437-.2461.3047-.1875.37108-.11327.44922-.04297.51563"/></g></defs><use xlink:href="#am"/></svg>